<?xml version="1.0" encoding="UTF-8"?>
<svg width="19" height="19" version="1.1" viewBox="0 0 19 19" xml:space="preserve" xmlns="http://www.w3.org/2000/svg">
 <path d="m11.837 3.875c-0.11862 0-0.32538 0.0576-0.42188 0.1128l-2.9856 1.6876c-0.39932 0.2184-0.55542 0.90255-0.29206 1.3124l0.90863 1.425-3.8618 2.5876 2.0769 0.975 2.2392-1.05 2.2392 1.05 0.87622-1.05-2.6935-4.1626 2.2716-1.35c0.45148-0.26088 0.43622-0.70824 0.38942-0.975-0.04434-0.25284-0.3341-0.56244-0.74639-0.56244zm1.8173 2.85c-0.86032 0-1.5577 0.80595-1.5577 1.8s0.6974 1.8 1.5577 1.8c0.86032 0 1.5577-0.80595 1.5577-1.8s-0.6974-1.8-1.5577-1.8zm-4.1539 5.4-2.0769 1.2-2.5961-1.125-2.0769 1.125v1.8l2.0769-1.2 2.5961 1.2 2.0769-1.275 2.0769 1.275 2.0769-1.275 2.5961 1.275v-1.8l-2.5961-1.2-2.0769 1.2z" fill="#fff"/>
</svg>
