<svg width="24" height="24" viewBox="0 0 24 24" fill="none" xmlns="http://www.w3.org/2000/svg">
<path d="M15.5 6.5C16.6 6.5 17.5 5.6 17.5 4.5C17.5 3.4 16.6 2.5 15.5 2.5C14.4 2.5 13.5 3.4 13.5 4.5C13.5 5.6 14.4 6.5 15.5 6.5ZM10.8 11.5L13.2 9.1L14 9.9C15.06 10.96 16.38 11.68 17.96 11.92C18.56 12.01 19.1 11.53 19.1 10.92C19.1 10.43 18.73 10.01 18.25 9.93C17.14 9.75 16.23 9.22 15.5 8.5L13.6 6.6C13.1 6.2 12.6 6 12 6C11.4 6 10.9 6.2 10.6 6.6L7.8 9.4C7.4 9.8 7.2 10.3 7.2 10.8C7.2 11.4 7.4 11.9 7.8 12.2L11 15V19C11 19.55 11.45 20 12 20C12.55 20 13 19.55 13 19V14.6C13 14.08 12.8 13.59 12.45 13.22L10.8 11.5Z" fill="#AF52DE"/>
<path d="M18.5 13C17.3065 13 16.1619 13.4741 15.318 14.318C14.4741 15.1619 14 16.3065 14 17.5C14 18.6935 14.4741 19.8381 15.318 20.682C16.1619 21.5259 17.3065 22 18.5 22C19.6935 22 20.8381 21.5259 21.682 20.682C22.5259 19.8381 23 18.6935 23 17.5C23 16.3065 22.5259 15.1619 21.682 14.318C20.8381 13.4741 19.6935 13 18.5 13ZM18.5 14.5C18.894 14.5 19.2841 14.5776 19.6481 14.7284C20.012 14.8791 20.3427 15.1001 20.6213 15.3787C20.8999 15.6573 21.1209 15.988 21.2716 16.3519C21.4224 16.7159 21.5 17.106 21.5 17.5C21.5 17.894 21.4224 18.2841 21.2716 18.6481C21.1209 19.012 20.8999 19.3427 20.6213 19.6213C20.3427 19.8999 20.012 20.1209 19.6481 20.2716C19.2841 20.4224 18.894 20.5 18.5 20.5C18.106 20.5 17.7159 20.4224 17.3519 20.2716C16.988 20.1209 16.6573 19.8999 16.3787 19.6213C16.1001 19.3427 15.8791 19.012 15.7284 18.6481C15.5776 18.2841 15.5 17.894 15.5 17.5C15.5 17.106 15.5776 16.7159 15.7284 16.3519C15.8791 15.988 16.1001 15.6573 16.3787 15.3787C16.6573 15.1001 16.988 14.8791 17.3519 14.7284C17.7159 14.5776 18.106 14.5 18.5 14.5Z" fill="#AF52DE"/>
<path d="M5.5 13C4.30653 13 3.16193 13.4741 2.31802 14.318C1.47411 15.1619 1 16.3065 1 17.5C1 18.6935 1.47411 19.8381 2.31802 20.682C3.16193 21.5259 4.30653 22 5.5 22C6.69347 22 7.83807 21.5259 8.68198 20.682C9.52589 19.8381 10 18.6935 10 17.5C10 16.9091 9.8836 16.3239 9.65746 15.7779C9.43131 15.232 9.09984 14.7359 8.68198 14.318C8.26412 13.9002 7.76804 13.5687 7.22208 13.3425C6.67611 13.1164 6.09095 13 5.5 13ZM5.5 14.5C5.89397 14.5 6.28407 14.5776 6.64805 14.7284C7.01203 14.8791 7.34274 15.1001 7.62132 15.3787C7.8999 15.6573 8.12087 15.988 8.27164 16.3519C8.4224 16.7159 8.5 17.106 8.5 17.5C8.5 17.894 8.4224 18.2841 8.27164 18.6481C8.12087 19.012 7.8999 19.3427 7.62132 19.6213C7.34274 19.8999 7.01203 20.1209 6.64805 20.2716C6.28407 20.4224 5.89397 20.5 5.5 20.5C5.10603 20.5 4.71593 20.4224 4.35195 20.2716C3.98797 20.1209 3.65726 19.8999 3.37868 19.6213C3.1001 19.3427 2.87913 19.012 2.72836 18.6481C2.5776 18.2841 2.5 17.894 2.5 17.5C2.5 17.106 2.5776 16.7159 2.72836 16.3519C2.87913 15.988 3.1001 15.6573 3.37868 15.3787C3.65726 15.1001 3.98797 14.8791 4.35195 14.7284C4.71593 14.5776 5.10603 14.5 5.5 14.5Z" fill="#AF52DE"/>
</svg>
