<?xml version="1.0" encoding="UTF-8"?>
<svg width="1024" height="1024" version="1.1" viewBox="0 0 1024 1024" xmlns="http://www.w3.org/2000/svg">
 <path d="m796.21 62a94.735 94.735 0 0 0-94.736 94.736 94.735 94.735 0 0 0 94.736 94.736 94.735 94.735 0 0 0 94.733-94.736 94.735 94.735 0 0 0-94.733-94.736zm-390.31 189.47c-38.369 0-72.948 22.262-88.579 56.842l-13.263 35.999c-9.9469 26.526 5.2106 55.42 32.21 62.999 23.21 6.6315 47.368-5.2102 56.842-27.473l14.209-33.63h104.68l-86.683 194.2c-28.421 62.999 18.473 137.37 87.629 137.37h229.4l-39.789 179.19a47.406 47.406 0 1 0 92.556 20.558l47.369-213.15a47.368 47.368 0 0 0 0.71003-16.105 94.925 94.925 0 0 0-94.356-88.91h-88.103l79.104-173.84c28.894-62.999-17.528-134.05-87.631-134.05zm-79.471 242.41a44.904 44.904 0 0 0-12.186 1.5312 236.64 236.64 0 0 0-130.26 84.077c-33.962 42.631-50.921 91.181-50.921 145.66 0 65.51 23.069 121.36 69.3 167.58 46.136 46.136 102.03 69.253 167.54 69.253a230.34 230.34 0 0 0 143.86-48.55 232.34 232.34 0 0 0 84.695-126.71c3.9309-12.647 2.5536-24.488-4.1705-35.525-6.7262-11.036-16.341-18.569-28.987-22.499a41.637 41.637 0 0 0-35.525 4.1191c-11.037 6.7736-18.571 16.39-22.501 29.037-8.6684 30.789-25.673 56.036-50.921 75.789-25.246 19.753-54.092 29.605-86.444 29.605a137.04 137.04 0 0 1-100.66-41.446c-27.615-27.615-41.448-61.201-41.448-100.66a138.98 138.98 0 0 1 30.22-88.198 139.12 139.12 0 0 1 78.726-50.353 45.615 45.615 0 0 0 28.99-21.316 44.904 44.904 0 0 0 5.3526-35.525 45.615 45.615 0 0 0-21.316-28.987 44.904 44.904 0 0 0-23.34-6.8826z"/>
</svg>
