<?xml version="1.0" encoding="UTF-8"?>
<svg width="1024" height="1024" version="1.1" viewBox="0 0 1024 1024" xmlns="http://www.w3.org/2000/svg">
 <path d="m288 96a128 128 0 0 0-128 128v32h-32a32 32 0 0 0-32 32v128a32 32 0 0 0 32 32h32v256a32 32 0 0 0 0 0.00195v192a32 32 0 0 0 32 32h64a32 32 0 0 0 32-32v-96h448v96a32 32 0 0 0 32 32h64a32 32 0 0 0 32-32v-192a32 32 0 0 0 0-2e-3v-31.992a128 128 0 0 0 0-0.00586v-224h32a32 32 0 0 0 32-32v-128a32 32 0 0 0-32-32h-32v-32a128 128 0 0 0-128-128zm32 96h384a64 64 0 0 1 64 64v192a64 64 0 0 1-64 64h-384a64 64 0 0 1-64-64v-192a64 64 0 0 1 64-64zm0 416a64 64 0 0 1 64 64 64 64 0 0 1-64 64 64 64 0 0 1-32-8.5742 64 64 0 0 1-32-55.426 64 64 0 0 1 64-64zm384 0a64 64 0 0 1 64 64 64 64 0 0 1-32 55.426 64 64 0 0 1-32 8.5742 64 64 0 0 1-64-64 64 64 0 0 1 64-64z"/>
</svg>
