<?xml version="1.0" encoding="UTF-8" standalone="no"?>
<!DOCTYPE svg PUBLIC "-//W3C//DTD SVG 1.1//EN" "http://www.w3.org/Graphics/SVG/1.1/DTD/svg11.dtd">
<svg width="100%" height="100%" viewBox="0 0 151 151" version="1.1" xmlns="http://www.w3.org/2000/svg" xmlns:xlink="http://www.w3.org/1999/xlink" xml:space="preserve" xmlns:serif="http://www.serif.com/" style="fill-rule:evenodd;clip-rule:evenodd;stroke-linejoin:round;stroke-miterlimit:2;">
    <g transform="matrix(1,0,0,1,-1715.35,-898.98)">
        <g id="Outdoor2" transform="matrix(1,0,0,1,-9.76189,209.2)">
            <g transform="matrix(-1,0,0,1,3235.08,-428.181)">
                <path d="M1509.97,1128.48C1509.97,1122.67 1505.26,1117.96 1499.46,1117.96L1370.28,1117.96C1364.48,1117.96 1359.76,1122.67 1359.76,1128.48L1359.76,1257.65C1359.76,1263.46 1364.48,1268.17 1370.28,1268.17L1499.46,1268.17C1505.26,1268.17 1509.97,1263.46 1509.97,1257.65L1509.97,1128.48Z" style="fill:rgb(214,219,161);"/>
            </g>
            <g transform="matrix(-1,0,0,1,3235.08,-428.181)">
                <path d="M1509.97,1192.17L1509.97,1128.48C1509.97,1122.67 1505.26,1117.96 1499.46,1117.96L1392.5,1117.96C1415.61,1180.21 1480.56,1137.51 1509.97,1192.17Z" style="fill:rgb(252,235,203);"/>
            </g>
            <g transform="matrix(-1.05411,0,0,0.415629,3628.74,263.515)">
                <path d="M1805.62,1367.71C1805.77,1366.02 1805.89,1364.19 1805.9,1361.91L1805.9,1345.22C1805.9,1345.22 1805.24,1342.26 1804.87,1340.84L1801.6,1346.22C1802.59,1350.09 1805,1361.47 1805.62,1367.71ZM1796.64,1332.13L1799.14,1324.54C1796.06,1317.99 1792.39,1312.69 1788.24,1308.36L1786.75,1317.51C1790.51,1321.43 1793.85,1326.19 1796.64,1332.13ZM1779.34,1311.12L1780.39,1301.6C1776.64,1298.92 1772.62,1296.74 1768.41,1294.87L1767.73,1304.62C1771.81,1306.43 1775.7,1308.54 1779.34,1311.12ZM1759.84,1301.52L1760.38,1291.71C1756.46,1290.34 1752.43,1289.11 1748.34,1287.9L1747.89,1297.73C1751.95,1298.93 1755.95,1300.15 1759.84,1301.52ZM1739.88,1295.39L1740.33,1285.56C1736.37,1284.38 1732.37,1283.15 1728.38,1281.74L1727.84,1291.54C1731.86,1292.96 1735.89,1294.2 1739.88,1295.39ZM1719.82,1288.42L1720.47,1278.66C1716.51,1276.97 1712.59,1275.02 1708.75,1272.7L1707.85,1282.32C1711.77,1284.69 1715.78,1286.69 1719.82,1288.42ZM1699.95,1276.91L1701.09,1267.44C1697.26,1264.47 1693.55,1261.02 1690.01,1256.94L1688.4,1265.95C1692.09,1270.2 1695.95,1273.81 1699.95,1276.91ZM1681.06,1256.25L1683.06,1247.76C1679.71,1242.67 1676.57,1236.85 1673.7,1230.13L1671.05,1237.4C1674.12,1244.58 1677.47,1250.82 1681.06,1256.25ZM1665.36,1221.89L1668.42,1215.73C1667.23,1211.94 1664.45,1201.97 1663.41,1197.72L1663.41,1215.34C1663.71,1216.75 1664.08,1217.81 1665.36,1221.89Z" style="fill:rgb(89,81,44);"/>
            </g>
            <g transform="matrix(0.451147,0,0,0.521983,1043.09,184.649)">
                <path d="M1790.29,1255.48L1769.43,1255.48C1765.11,1253.7 1769.42,1255.51 1765.41,1253.79L1769.45,1246.73C1773.43,1248.43 1786.02,1253.71 1790.29,1255.48ZM1753.16,1239.54L1748.9,1246.51C1739.89,1242.39 1731.81,1238.44 1724.6,1234.58L1729.4,1227.88C1736.44,1231.65 1744.35,1235.52 1753.16,1239.54ZM1714.44,1219.18L1709.01,1225.51C1700.12,1219.82 1693.16,1214.23 1687.97,1208.59L1695.11,1203.69C1699.87,1208.86 1706.28,1213.96 1714.44,1219.18ZM1686.88,1191.06L1678.25,1193.59C1676.62,1189.41 1675.77,1185.13 1675.68,1180.67L1684.8,1180.53C1684.87,1184.17 1685.55,1187.66 1686.88,1191.06Z" style="fill:rgb(206,111,111);"/>
            </g>
            <g transform="matrix(1,0,0,1,69.2177,-869.272)">
                <path d="M1731.04,1649.51C1729.11,1649.51 1727.27,1648.77 1725.94,1647.57C1724.13,1653.07 1718.95,1657.05 1712.85,1657.05C1705.25,1657.05 1699.08,1650.88 1699.08,1643.28C1699.08,1640.75 1699.76,1638.38 1700.95,1636.35C1701,1636.25 1701.06,1636.16 1701.11,1636.07L1712.28,1617.44C1713.58,1615.41 1715.87,1614.33 1718.31,1614.05L1719.31,1612.78C1721.55,1609.48 1728.07,1612 1727.2,1616.25L1727,1617.27C1726.85,1617.77 1727.58,1618.11 1727.89,1617.73C1728.75,1616.67 1729.64,1616.37 1731,1616.37C1732.36,1616.37 1733.25,1616.65 1734.11,1617.71C1734.43,1618.1 1735.12,1617.75 1734.97,1617.26L1734.8,1616.25C1733.93,1612 1740.45,1609.48 1742.69,1612.78L1743.69,1614.05C1746.13,1614.33 1748.42,1615.41 1749.72,1617.44L1760.89,1636.07C1760.94,1636.16 1761,1636.25 1761.05,1636.35C1762.24,1638.38 1762.92,1640.75 1762.92,1643.28C1762.92,1650.88 1756.75,1657.05 1749.15,1657.05C1743.05,1657.05 1737.87,1653.07 1736.06,1647.57C1734.73,1648.77 1732.97,1649.51 1731.04,1649.51ZM1712.85,1633.91C1707.68,1633.91 1703.49,1638.11 1703.49,1643.28C1703.49,1648.44 1707.68,1652.64 1712.85,1652.64C1718.02,1652.64 1722.21,1648.44 1722.21,1643.28C1722.21,1638.11 1718.02,1633.91 1712.85,1633.91ZM1731,1638.94C1729.3,1638.94 1727.89,1640.32 1727.89,1642.02C1727.89,1643.72 1729.34,1645.09 1731.04,1645.09C1732.74,1645.09 1734.11,1643.72 1734.11,1642.02C1734.11,1640.32 1732.7,1638.94 1731,1638.94ZM1749.15,1633.91C1743.98,1633.91 1739.79,1638.11 1739.79,1643.28C1739.79,1648.44 1743.98,1652.64 1749.15,1652.64C1754.32,1652.64 1758.51,1648.44 1758.51,1643.28C1758.51,1638.11 1754.32,1633.91 1749.15,1633.91Z" style="fill:rgb(105,76,39);"/>
            </g>
            <g transform="matrix(-1,0,0,1,3235.08,-428.181)">
                <path d="M1509.97,1205.57L1509.97,1172.73C1499.83,1161.69 1485.62,1159.29 1473.29,1156.12C1457.98,1152.17 1439.96,1143.84 1432.16,1134.97C1427.55,1129.74 1426.82,1124.13 1428.28,1117.96L1423.05,1117.96C1421.97,1124.9 1424.33,1131.41 1429.51,1137.3C1431.88,1139.99 1434.85,1142.55 1438.35,1144.96C1439.25,1145.61 1439.55,1146.81 1439.05,1147.81C1438.56,1148.8 1437.42,1149.3 1436.36,1148.98C1425.43,1146.12 1415.95,1142.61 1410.46,1137.35C1404.67,1131.8 1400.57,1126.27 1398.74,1117.96L1389.23,1117.96C1390.37,1127.94 1392.56,1133.21 1398.79,1140.37C1408.2,1151.2 1433.38,1161.64 1453.83,1167.16C1474.62,1172.77 1498.06,1180.56 1509.26,1207.38L1509.97,1205.57Z" style="fill:rgb(162,204,220);"/>
            </g>
        </g>
    </g>
</svg>
