<?xml version="1.0" encoding="UTF-8" standalone="no"?>
<!DOCTYPE svg PUBLIC "-//W3C//DTD SVG 1.1//EN" "http://www.w3.org/Graphics/SVG/1.1/DTD/svg11.dtd">
<svg width="100%" height="100%" viewBox="0 0 151 151" version="1.1" xmlns="http://www.w3.org/2000/svg" xmlns:xlink="http://www.w3.org/1999/xlink" xml:space="preserve" xmlns:serif="http://www.serif.com/" style="fill-rule:evenodd;clip-rule:evenodd;stroke-linejoin:round;stroke-miterlimit:2;">
    <g transform="matrix(1,0,0,1,-1429.5,-689.781)">
        <g id="Contours">
            <g transform="matrix(1,0,0,1,69.7412,-428.181)">
                <path d="M1509.97,1128.48C1509.97,1122.67 1505.26,1117.96 1499.46,1117.96L1370.28,1117.96C1364.48,1117.96 1359.76,1122.67 1359.76,1128.48L1359.76,1257.65C1359.76,1263.46 1364.48,1268.17 1370.28,1268.17L1499.46,1268.17C1505.26,1268.17 1509.97,1263.46 1509.97,1257.65L1509.97,1128.48Z" style="fill:rgb(224,222,208);"/>
                <clipPath id="_clip1">
                    <path d="M1509.97,1128.48C1509.97,1122.67 1505.26,1117.96 1499.46,1117.96L1370.28,1117.96C1364.48,1117.96 1359.76,1122.67 1359.76,1128.48L1359.76,1257.65C1359.76,1263.46 1364.48,1268.17 1370.28,1268.17L1499.46,1268.17C1505.26,1268.17 1509.97,1263.46 1509.97,1257.65L1509.97,1128.48Z"/>
                </clipPath>
                <g clip-path="url(#_clip1)">
                    <g transform="matrix(1,0,0,1,-2.78829,194.221)">
                        <g transform="matrix(0.925357,-0.379097,0.379097,0.925357,-287.081,621.653)">
                            <text x="1435.08px" y="1039.84px" style="font-family:'Calibri-Bold', 'Calibri', sans-serif;font-weight:700;font-size:20.833px;">1</text>
                        </g>
                        <g transform="matrix(0.749948,-0.661496,0.661496,0.749948,-321.576,1216.66)">
                            <text x="1448.52px" y="1033.69px" style="font-family:'Calibri-Bold', 'Calibri', sans-serif;font-weight:700;font-size:20.833px;">5</text>
                        </g>
                        <g transform="matrix(0.430469,-0.902605,0.902605,0.430469,-92.6834,1899.78)">
                            <text x="1459.06px" y="1023.33px" style="font-family:'Calibri-Bold', 'Calibri', sans-serif;font-weight:700;font-size:20.833px;">0</text>
                        </g>
                        <g transform="matrix(0.155559,-0.987827,0.987827,0.155559,239.595,2299.88)">
                            <text x="1465px" y="1009.8px" style="font-family:'Calibri-Bold', 'Calibri', sans-serif;font-weight:700;font-size:20.833px;">0</text>
                        </g>
                    </g>
                </g>
            </g>
            <g transform="matrix(1,0,0,1,69.7412,-428.181)">
                <path d="M1359.76,1177.75C1372.88,1179.53 1385.02,1186.34 1391.52,1191.65C1409.89,1206.68 1436.85,1188.72 1433.07,1164.98C1431.66,1156.15 1421.86,1136.27 1420.29,1119.96C1420.23,1119.29 1420.17,1118.62 1420.14,1117.96L1423.79,1117.96C1423.82,1118.51 1423.86,1119.06 1423.92,1119.61C1425.48,1135.85 1435.27,1155.62 1436.67,1164.4C1440.96,1191.42 1410.12,1211.57 1389.21,1194.48C1383.17,1189.54 1371.93,1183.12 1359.76,1181.37L1359.76,1177.75ZM1381.85,1117.96C1382.29,1120.37 1383.04,1122.4 1384.04,1124.16C1386.18,1127.94 1389.43,1130.38 1392.89,1132.46C1397.99,1135.53 1403.55,1137.89 1407.43,1141.95C1417.07,1152.04 1415.24,1163.31 1408.74,1169.75C1402.23,1176.18 1390.88,1177.92 1381.18,1168.69C1377.13,1164.84 1371.14,1157.39 1364.87,1152.9C1363.17,1151.68 1361.45,1150.66 1359.76,1150.05L1359.76,1146.29C1362.16,1146.93 1364.6,1148.22 1366.99,1149.93C1373.4,1154.53 1379.55,1162.11 1383.69,1166.05C1391.61,1173.59 1400.86,1172.41 1406.17,1167.16C1411.49,1161.9 1412.67,1152.71 1404.8,1144.47C1401.13,1140.63 1395.83,1138.48 1391.01,1135.58C1387.02,1133.18 1383.34,1130.32 1380.87,1125.95C1379.61,1123.73 1378.66,1121.12 1378.15,1117.96L1381.85,1117.96ZM1359.76,1211.95C1371.16,1210.55 1380.51,1211.98 1388.33,1218.63C1397.71,1226.62 1408.79,1229.63 1419.17,1228.89L1420.53,1232.4C1408.96,1233.53 1396.49,1230.36 1385.97,1221.41C1378.82,1215.33 1370.23,1214.26 1359.76,1215.62L1359.76,1211.95ZM1359.76,1250.95C1372.68,1245.44 1382.01,1250.08 1390.95,1253.16C1442.88,1271.05 1481.38,1230.61 1481.99,1198.38C1482.14,1190.21 1483.11,1149.55 1491.13,1121.79C1491.51,1120.49 1491.9,1119.21 1492.31,1117.96L1496.14,1117.96C1495.62,1119.52 1495.11,1121.14 1494.63,1122.81C1486.71,1150.21 1485.78,1190.38 1485.63,1198.44C1484.99,1232.46 1444.57,1275.48 1389.77,1256.6C1381.25,1253.67 1372.35,1248.99 1359.76,1254.97L1359.76,1250.95ZM1462.2,1117.96C1459.75,1126.51 1458.82,1134.72 1458.61,1139.82C1458.17,1150.15 1459.59,1158.79 1460.6,1167.2C1461.3,1173.09 1461.81,1178.87 1461.42,1185.02L1457.77,1184.88C1458.16,1178.92 1457.66,1173.33 1456.98,1167.64C1455.95,1159.05 1454.53,1150.22 1454.97,1139.66C1455.18,1134.57 1456.09,1126.48 1458.42,1117.96L1462.2,1117.96ZM1464.63,1268.17C1492.61,1258.66 1504.22,1238.71 1509.97,1217.54L1509.97,1229.32C1503.87,1245.07 1493.49,1259.29 1474.48,1268.17L1464.63,1268.17Z" style="fill:rgb(141,141,141);"/>
            </g>
        </g>
    </g>
</svg>
