<svg fill="none" height="48" viewBox="0 0 48 48" width="48" xmlns="http://www.w3.org/2000/svg"><path clip-rule="evenodd" d="m3.36827 3.36827c-3.36827 3.36827-3.36827 8.78943-3.36827 19.63173v2c0 10.8423 0 16.2635 3.36827 19.6317 3.36827 3.3683 8.78943 3.3683 19.63173 3.3683h2c10.8423 0 16.2635 0 19.6317-3.3683 3.3683-3.3682 3.3683-8.7894 3.3683-19.6317v-2c0-10.8423 0-16.26346-3.3683-19.63173-3.3682-3.36827-8.7894-3.36827-19.6317-3.36827h-2c-10.8423 0-16.26346 0-19.63173 3.36827zm6.13183 11.63173h3.5008c.8947 0 1.2313.3915 1.5668 1.3607 1.7122 4.9864 4.5991 9.3442 5.7859 9.3442.445 0 .6492-.2049.6492-1.3349v-5.1542c-.0804-1.4671-.593-2.1016-.9727-2.5715-.2345-.2903-.4183-.5177-.4183-.8398 0-.3915.3346-.8045.8908-.8045h5.5013c.7419 0 1.0002.3966 1.0002 1.2866v6.9339c0 .7415.3221 1.0011.5446 1.0011.4451 0 .816-.2596 1.632-1.0753 2.522-2.8181 4.3022-7.1565 4.3022-7.1565.2226-.519.633-.9898 1.5231-.9898h3.5008c1.0587 0 1.2812.5449 1.0587 1.2866-.4451 2.0393-4.7103 8.0463-4.7103 8.0463-.3709.5932-.5192.8899 0 1.5573.1829.256.573.6381 1.0195 1.0753.459.4495.9776.9574 1.3913 1.4462 1.5038 1.6913 2.6371 3.1182 2.9528 4.1016.2885.9867-.2116 1.4867-1.2119 1.4867h-3.5008c-.9377 0-1.4098-.5251-2.4301-1.6598-.4325-.481-.9634-1.0715-1.67-1.7779-2.077-2.0023-2.9671-2.2619-3.4864-2.2619-.7046 0-.9154.1996-.9154 1.1996v3.1388c0 .8612-.2753 1.3612-2.5006 1.3612-3.7089 0-7.7847-2.2512-10.6776-6.4041-4.33934-6.0811-5.5262-10.679-5.5262-11.6061 0-.519.20006-.9898 1.2003-.9898z" fill="#fff" fill-rule="evenodd"/></svg>