<?xml version="1.0" encoding="UTF-8"?>
<svg width="15" height="15" version="1.1" viewBox="0 0 15 15" xmlns="http://www.w3.org/2000/svg">
 <path d="m7.5 0.20117c-0.067041 6.653e-5 -0.13434 0.005093-0.20117 0.015625-0.13244 0.020495-0.26091 0.061342-0.38086 0.12109l-6 3c-0.64169 0.32156-0.90136 1.1023-0.58008 1.7441 0.32156 0.64169 1.1023 0.90136 1.7441 0.58008l0.73242-0.36719c-0.00846 0.059424-0.013678 0.11964-0.013672 0.17969 0 0.29698 0.099843 0.61113 0.32812 0.86523 0.22641 0.25293 0.5683 0.39267 0.91797 0.40039l0.00977 0.025391c-2.0956 0.015212-3.8086 1.738-3.8086 3.8359 0 2.1083 1.7275 3.8359 3.8359 3.8359 1.5285 0 2.8046-0.93676 3.416-2.2402 0.61082 1.3042 1.8856 2.2402 3.416 2.2402 2.1072 0 3.8359-1.7275 3.8359-3.8359 0-2.1072-1.7287-3.8379-3.8359-3.8379-0.07133 0-0.10639 0.010462-0.1543 0.019531l-0.27735-0.70117v-1.4629c-7.01e-4 -0.061321-0.007944-0.12113-0.017578-0.18164l2.4512 1.2246c0.64183 0.32128 1.4226 0.061608 1.7441-0.58008 0.32128-0.64183 0.06161-1.4226-0.58008-1.7441l-6-3c-0.18158-0.090666-0.38091-0.13692-0.58203-0.13672z" fill="#111" opacity=".6" stroke-linecap="round" stroke-linejoin="round"/>
 <path d="m7.5008 4.135c-0.58277-0.00865-0.58277 0.87345 0 0.86512h1.293v1.0949l-2.4158 2.0192-0.84008-2.249h0.23911c0.58277 0.00865 0.58277-0.87345 0-0.86512h-1.724c-0.58277-0.00865-0.58277 0.87345 0 0.86512h0.56225l0.76778 2.0547c-0.40322-0.20123-0.85088-0.32443-1.33-0.32443-1.6611 0-3.0169 1.3607-3.0169 3.0279s1.3558 3.0279 3.0169 3.0279 3.0169-1.3607 3.0169-3.0279c0-0.57955-0.17264-1.1169-0.45623-1.5782l2.431-2.0327 0.399 1.0038c-0.89865 0.5254-1.5118 1.4922-1.5118 2.6072 0 1.6672 1.3558 3.0279 3.0169 3.0279s3.0169-1.3607 3.0169-3.0279-1.3558-3.0279-3.0169-3.0279c-0.24402 0-0.47787 0.037541-0.70547 0.092917l-0.58751-1.4751v-1.6457c0-0.23886-0.193-0.43256-0.43098-0.43256zm-3.4478 4.3256c0.51054 0 0.97192 0.18332 1.3401 0.47816l-1.6162 1.3518c-0.44038 0.36967 0.11015 1.0334 0.55217 0.66572l1.6162-1.3518c0.16222 0.30436 0.26264 0.64786 0.26264 1.0189 0 1.1996-0.9597 2.1629-2.1549 2.1629s-2.1549-0.96322-2.1549-2.1629c0-1.1996 0.95955-2.1628 2.1549-2.1628zm6.8956 0c1.1952 0 2.1549 0.96322 2.1549 2.1629 0 1.1996-0.9597 2.1628-2.1549 2.1628s-2.1549-0.96322-2.1549-2.1628c0-0.7587 0.38512-1.4206 0.96968-1.8063l0.78458 1.9668c0.21204 0.53906 1.0174 0.21637 0.80145-0.32105l-0.78278-1.9634c0.1243-0.02215 0.25118-0.03885 0.3821-0.03885z" fill="#2e89b0"/>
 <path d="m1.5 4.5 6-3 6 3" fill="none" stroke="#2e89b0" stroke-linecap="round"/>
</svg>
