<?xml version="1.0" encoding="UTF-8"?>
<svg width="11" height="9" version="1.1" viewBox="0 0 11 9" xml:space="preserve" xmlns="http://www.w3.org/2000/svg">
 <path d="m0.5 0.5v8h10v-8z" fill="none" stroke="#c15746" opacity=".6" stroke-width=".75"/>
 <path d="m5.5 0.5v8" fill="none" stroke="#c15746" opacity=".6" stroke-width=".75"/>
 <path d="m7.5834 5.3334h-1.25v1.25c0 0.22916-0.18749 0.41667-0.41667 0.41667h-0.83337c-0.22916 0-0.41667-0.18749-0.41667-0.41667v-1.25h-1.25c-0.22916 0-0.41667-0.18749-0.41667-0.41667v-0.83337c0-0.22917 0.18749-0.41667 0.41667-0.41667h1.25v-1.25c0-0.22916 0.18749-0.41667 0.41667-0.41667h0.83337c0.22917 0 0.41667 0.18749 0.41667 0.41667v1.25h1.25c0.22916 0 0.41667 0.1875 0.41667 0.41667v0.83337c0 0.22916-0.18749 0.41667-0.41667 0.41667z" fill="#c15746" opacity=".6"/>
</svg>
