<?xml version="1.0" encoding="UTF-8"?>
<svg width="18" height="18" version="1.1" viewBox="0 0 18 18" xmlns="http://www.w3.org/2000/svg">
 <circle cx="9" cy="9" r="9" fill="#000" opacity=".6"/>
 <circle cx="9" cy="9" r="8.25" fill="#7f5933"/>
 <path d="m8.125 5.2516c0-0.19766-0.12461-0.37168-0.28359-0.48984-0.24922-0.18692-0.40391-0.44473-0.40391-0.73047 0-0.56934 0.6166-1.0312 1.375-1.0312 0.7584 0 1.375 0.46191 1.375 1.0312 0 0.28575-0.15468 0.54355-0.40391 0.73047-0.15898 0.11817-0.28359 0.29219-0.28359 0.48985 0 0.275 0.22344 0.49844 0.49844 0.49844h1.2203c0.56934 0 1.0312 0.46191 1.0312 1.0312v1.2203c0 0.275 0.22343 0.49843 0.49843 0.49843 0.19766 0 0.37168-0.12461 0.48984-0.28359 0.18692-0.24922 0.44473-0.4039 0.73048-0.4039 0.56934 0 1.0312 0.6166 1.0312 1.375 0 0.7584-0.46191 1.375-1.0312 1.375-0.28575 0-0.54355-0.15468-0.73047-0.40391-0.11817-0.15898-0.29219-0.28359-0.48985-0.28359-0.275 0-0.49844 0.22344-0.49844 0.49844v2.5953c0 0.56934-0.46191 1.0312-1.0312 1.0312h-1.2203c-0.275 0-0.49844-0.22344-0.49844-0.49844 0-0.19766 0.12461-0.37168 0.28359-0.48985 0.24922-0.18691 0.40391-0.44472 0.40391-0.73047 0-0.56934-0.6166-1.0312-1.375-1.0312-0.7584 0-1.375 0.46191-1.375 1.0312 0 0.28575 0.15468 0.54355 0.40391 0.73047 0.15898 0.11817 0.28359 0.29219 0.28359 0.48985 0 0.275-0.22344 0.49844-0.49844 0.49844h-2.5953c-0.56934 0-1.0312-0.46191-1.0312-1.0312v-2.5953c0-0.275 0.22344-0.49844 0.49844-0.49844 0.19766 0 0.37168 0.12461 0.48984 0.28359 0.18691 0.24922 0.44473 0.40391 0.73047 0.40391 0.56934 0 1.0312-0.6166 1.0312-1.375s-0.46191-1.375-1.0312-1.375c-0.28575 0-0.54355 0.15468-0.73047 0.40391-0.11816 0.15898-0.29219 0.28359-0.48984 0.28359-0.275 0-0.49844-0.22344-0.49844-0.49844v-1.2203c0-0.56934 0.46191-1.0312 1.0312-1.0312h2.5953c0.275 0 0.49843-0.22343 0.49844-0.49844z" fill="#000"/>
</svg>
