<?xml version="1.0" encoding="UTF-8"?>
<svg width="18" height="18" version="1.1" viewBox="0 0 18 18" xmlns="http://www.w3.org/2000/svg">
 <circle cx="9" cy="9" r="9" fill="#000" opacity=".6" stroke-width=".75"/>
 <circle cx="9" cy="9" r="8.25" fill="#8C5F93" stroke-width=".75"/>
 <path d="m9.6465 2.582c-2.5862 0-4.6911 2.1052-4.6914 4.6914v5.5723c0 1.3959 1.1293 2.5723 2.5332 2.5723 1.3405 0 2.0822-0.82114 2.3867-1.2305 0.24536-0.32935 0.50644-0.85813 0.86328-1.416 0.3569-0.55799 0.79603-1.1212 1.2695-1.4434 1.3177-0.89525 2.3301-2.3095 2.3301-4.0547-3.4e-4 -2.5862-2.1052-4.6914-4.6914-4.6914z" fill="#000"/>
 <path d="m7.0568 10.295v-3.2372c0-1.3057 1.1654-2.3739 2.5897-2.3739v0c1.4244 0 2.5897 1.0683 2.5897 2.3739" fill="none" stroke="#8C5F93" stroke-linecap="round" stroke-width="1"/>
 <path d="m7.0568 8.5414c0.67441-0.48558 2.1533-0.40465 2.1533-0.40465 0.70139 0 1.1106 0.79365 0.70139 1.365 0 0-0.99435 1.1438-1.1292 1.6564" fill="none" stroke="#8C5F93" stroke-linecap="round"/>
</svg>
