<?xml version="1.0" encoding="UTF-8"?>
<svg width="28" height="28" version="1.1" viewBox="0 0 28 28" xml:space="preserve" xmlns="http://www.w3.org/2000/svg">
 <defs>
  <filter id="filter1" x="-.17373" y="-.17373" width="1.3475" height="1.3475" color-interpolation-filters="sRGB">
   <feGaussianBlur stdDeviation="1.5925"/>
  </filter>
 </defs>
 <circle cx="14" cy="14" r="11" filter="url(#filter1)" opacity=".35"/>
 <circle cx="14" cy="13" r="11" fill="#006c35" stroke="#fff" stroke-width="2"/>
 <path d="m12.86 11.984h0.90234q0.64453 0 0.95508-0.32227 0.31055-0.32226 0.31055-0.85547 0-0.51562-0.31055-0.80274-0.30469-0.28711-0.84375-0.28711-0.48633 0-0.81445 0.26953-0.32812 0.26367-0.32812 0.69141h-1.6934q0-0.66797 0.35742-1.1953 0.36328-0.5332 1.0078-0.83203 0.65039-0.29883 1.4297-0.29883 1.3535 0 2.1211 0.65039 0.76758 0.64453 0.76758 1.7812 0 0.58594-0.35742 1.0781-0.35742 0.49219-0.9375 0.75586 0.7207 0.25781 1.0723 0.77344 0.35742 0.51562 0.35742 1.2188 0 1.1367-0.83203 1.8223-0.82617 0.68555-2.1914 0.68555-1.2773 0-2.0918-0.67383-0.80859-0.67383-0.80859-1.7812h1.6934q0 0.48047 0.35742 0.78516 0.36328 0.30469 0.89062 0.30469 0.60352 0 0.94336-0.31641 0.3457-0.32227 0.3457-0.84961 0-1.2773-1.4062-1.2773h-0.89648z" fill="#fff" aria-label="3" data-font-family="Roboto" data-font-size="12px"/>
</svg>
