<?xml version="1.0" encoding="UTF-8"?>
<svg width="36" height="36" version="1.1" viewBox="0 0 36 36" xml:space="preserve" xmlns="http://www.w3.org/2000/svg">
 <defs>
  <filter id="filter1" x="-.147" y="-.147" width="1.294" height="1.294" color-interpolation-filters="sRGB">
   <feGaussianBlur stdDeviation="1.5925"/>
  </filter>
  <linearGradient id="linearGradient1" x1="18" x2="18" y1="3" y2="29" gradientUnits="userSpaceOnUse">
   <stop stop-color="#3fa8f3" offset="0"/>
   <stop stop-color="#2089d4" offset="1"/>
  </linearGradient>
 </defs>
 <circle cx="18" cy="18" r="13" filter="url(#filter1)" opacity=".35"/>
 <circle cx="18" cy="16" r="13" fill="url(#linearGradient1)" stroke="#fff" stroke-width="2"/>
 <path d="m25.29 19.68c-1.2108-0.8906-1.8212-1.3409-1.8212-1.3409s0.32022-0.5904 0.96065-1.7812c0.38025-0.5904 1.2208-0.5904 1.601 0l0.81054 1.2608c0.19013 0.30021 0.21015 0.68046 0.06004 1.0007l-0.22015 0.47031c-0.25016 0.54037-0.91061 0.72049-1.3909 0.39027zm-14.569 0c-0.48032 0.33022-1.1308 0.1501-1.3909-0.38025l-0.23015-0.47031c-0.1501-0.32022-0.13008-0.70047 0.06003-1.0007l0.81054-1.2608c0.38025-0.5904 1.2208-0.5904 1.601 0 0.65044 1.1808 0.97065 1.7711 0.97065 1.7711s-0.61041 0.45031-1.8212 1.3409zm10.647-6.9747c0.09006-0.68046 0.73049-1.0607 1.2708-0.7505l1.591 0.9006c0.46031 0.26018 0.63043 0.91061 0.36024 1.4109l-2.0814 4.0727h-1.8012l0.66044-5.6337zm-6.7345 0 0.67045 5.6337h-1.8012l-2.0914-4.0828c-0.27018-0.50034-0.10007-1.1508 0.36024-1.4109l1.591-0.9006c0.53036-0.3002 1.1808 0.08006 1.2708 0.76052zm5.1735 5.6337h-3.6024l-0.7405-6.8847c-0.07005-0.5904 0.35024-1.1208 0.88059-1.1208h3.3022c0.53035 0 0.94063 0.53035 0.88059 1.1208l-0.72048 6.8847z" fill="#fff"/>
</svg>
