<?xml version="1.0" encoding="UTF-8"?>
<svg width="26" height="22" version="1.1" viewBox="0 0 26 22" xml:space="preserve" xmlns="http://www.w3.org/2000/svg">
 <path d="m19.14 18.386h2.0171c1.7206 0 3.2346-1.2565 3.8373-4.3898 0.16117-0.8378-0.23809-1.9048-0.64847-2.6229-1.287-2.7546-1.1557-4.8308 0.64845-6.6727l-3.7094-3.7011c-0.97466 0.69223-2.7565 1.3986-4.1372 1.3986-1.3808 0-3.1732-0.70625-4.1479-1.3985-0.97463 0.69225-2.7671 1.3985-4.1479 1.3985-1.3808 0-3.1626-0.70637-4.1372-1.3986l-3.7094 3.7011c1.8042 1.8419 1.9355 3.9181 0.64845 6.6727-0.41038 0.71812-0.80964 1.7851-0.64847 2.6229 0.60275 3.1333 2.1167 4.3898 3.8373 4.3898h2.0171c3.0939 0 5.1959 1.9338 6.1402 3.0102 0.94423-1.0764 3.0462-3.0102 6.1402-3.0102z" fill="#fff" stroke="#000" stroke-linecap="round" stroke-linejoin="round" stroke-width="1"/>
</svg>
