<?xml version="1.0" encoding="UTF-8"?>
<svg width="18" height="18" version="1.1" viewBox="0 0 18 18" xmlns="http://www.w3.org/2000/svg">
 <defs>
  <clipPath id="a">
   <path d="M 0,595.28 H 841.89 V 0 H 0 Z"/>
  </clipPath>
 </defs>
 <circle cx="9" cy="9" r="9" fill="#fff" stroke-width="1.0155"/>
 <g transform="matrix(.1215 0 0 -.1215 -24.188 45.172)" clip-path="url(#a)">
  <path d="m248.41 268.41c-16.479 12.039-19.995 37.584-7.9145 53.944 10.698 15.931 33.502 21.637 50.466 12.709 16.996-8.1548 26.036-29.248 20.218-47.18-2.3907-7.6268-7.0122-15.028-13.659-19.41-0.87609 3.18-0.11234 6.8541-0.36886 10.221-0.20853 8.5414 0.48399 17.145-0.48904 25.635-2.4259 13.985-18.68 23.055-31.856 17.758-10.617-3.6193-16.939-15.035-15.793-25.961-0.0495-9.1313 0.1162-18.293-0.0656-27.406l-0.22739-0.22739zm75.673 3.142c-3.4439-6.1725-9.2364-11.344-16.211-13.452-12.747-4.5232-26.3-0.817-38.683 3.0538-4.9273 2.1841-27.28 0.67532-6.9117 4.5427 1.2971 2.0092 0.23417 5.244 0.58 7.7384 0.12941 9.3639-0.26468 18.761 0.2077 28.103 1.251 8.1682 12.984 11.08 17.907 4.443 3.8047-5.0006 1.8483-11.587 2.3342-17.398v-26.336c7.0584-3.2458 16.041-2.1574 23.451 0.0818 11.784 3.2956 17.172 15.596 19.405 26.58 4.9562 23.065-7.2651 48.346-28.445 58.762-21.801 11.633-51.022 5.5875-66.391-13.772-16.272-18.994-16.418-49.341-0.29909-68.477 2.4752-3.9906 10.578-7.3749 2.7383-9.8544-2.8055-2.6647-10.631-7.6523-9.139-10.739 13.299 6.9549 29.433 6.5052 43.099 0.7344 14.789-5.1026 33.287-6.533 45.876 4.4664 6.268 5.2169 10.057 12.885 11.101 20.905l-0.18138 0.436z" fill="#275140"/>
 </g>
 <circle cx="9" cy="9" r="9" fill-opacity=".36" stroke-width="1.0155"/>
</svg>
