<?xml version="1.0" encoding="UTF-8"?>
<svg width="18" height="18" version="1.1" viewBox="0 0 18 18" xmlns="http://www.w3.org/2000/svg">
 <circle cx="9" cy="9" r="9" fill="#000" opacity=".6" stroke-width=".75"/>
 <circle cx="9" cy="9" r="8.25" fill="#8c5f93" stroke-width=".75"/>
 <path d="m5.8456 3.0978 2.8946 2.6729c-1.5088-1.1773-3.9557-1.5856-5.2324 0.0067324l4.9546 1.0755c-1.9001-0.038242-4.0926 0.94931-4.5284 2.8682l4.505-1.6217c-0.93442 1.12-1.6329 5.5864-1.1415 7.1858h1.7913c-0.36411-1.8942-0.37151-4.8524 1.1147-6.8137l3.4959 3.7583c0.68708-2.5083-0.91408-3.817-3.019-4.7284l4.9114 0.78469c-1.1643-2.2417-3.073-2.1172-4.9414-1.8532l4.0386-1.2695c-0.8292-1.1848-2.9123-2.5459-4.7455 0.68137-0.13298-1.7732-1.696-3.605-4.0978-2.7471z" fill="#000"/>
</svg>
