<?xml version="1.0" encoding="UTF-8"?>
<svg width="19" height="19" version="1.1" viewBox="0 0 19 19" xml:space="preserve" xmlns="http://www.w3.org/2000/svg">
 <path d="m8.7125 2.0188v4.725h2.3625v1.9688c0-0.65362 0.882-1.1812 1.9688-1.1812s1.9688 0.52762 1.9688 1.1812h-3.9375v2.2758c0.59062 0.29925 1.26 0.48038 1.9688 0.48038 2.394 0 4.3312-1.9372 4.3312-4.3312v-5.1188zm2.3625 4.0005c-0.43312 0-0.7875-0.35438-0.7875-0.7875s0.35438-0.7875 0.7875-0.7875 0.7875 0.35438 0.7875 0.7875c0 0.441-0.35438 0.7875-0.7875 0.7875zm3.9375 0c-0.43312 0-0.7875-0.35438-0.7875-0.7875s0.35438-0.7875 0.7875-0.7875 0.7875 0.35438 0.7875 0.7875c0 0.441-0.35438 0.7875-0.7875 0.7875zm-13.388 6.6308c0 2.394 1.9372 4.3312 4.3312 4.3312s4.3312-1.9372 4.3312-4.3312v-5.1188h-8.6625zm4.3312 1.575c-1.0868 0-1.9688-0.52762-1.9688-1.1812h3.9375c0 0.65362-0.882 1.1812-1.9688 1.1812zm1.9688-4.3312c0.43312 0 0.7875 0.35437 0.7875 0.7875 0 0.43312-0.35438 0.7875-0.7875 0.7875s-0.7875-0.35437-0.7875-0.7875c0-0.43313 0.35438-0.7875 0.7875-0.7875zm-3.9375 0c0.43312 0 0.7875 0.35437 0.7875 0.7875 0 0.43312-0.35438 0.7875-0.7875 0.7875s-0.7875-0.35437-0.7875-0.7875c0-0.43313 0.35438-0.7875 0.7875-0.7875z" fill="#fff"/>
</svg>
