<?xml version="1.0" encoding="UTF-8" standalone="no"?>
<!-- Created with Inkscape (http://www.inkscape.org/) -->

<svg
   xmlns:dc="http://purl.org/dc/elements/1.1/"
   xmlns:cc="http://creativecommons.org/ns#"
   xmlns:rdf="http://www.w3.org/1999/02/22-rdf-syntax-ns#"
   xmlns:svg="http://www.w3.org/2000/svg"
   xmlns="http://www.w3.org/2000/svg"
   xmlns:sodipodi="http://sodipodi.sourceforge.net/DTD/sodipodi-0.dtd"
   xmlns:inkscape="http://www.inkscape.org/namespaces/inkscape"
   version="1.0"
   width="24"
   height="24"
   id="symbol-bird"
   inkscape:version="0.48.2 r9819"
   sodipodi:docname="bird.svg">
  <title
     id="title2988">Birds Park Map Icon</title>
  <metadata
     id="metadata9">
    <rdf:RDF>
      <cc:Work
         rdf:about="">
        <dc:format>image/svg+xml</dc:format>
        <dc:type
           rdf:resource="http://purl.org/dc/dcmitype/StillImage" />
        <dc:title>Birds Park Map Icon</dc:title>
        <dc:creator>
          <cc:Agent>
            <dc:title>Yury Melnichek</dc:title>
          </cc:Agent>
        </dc:creator>
        <dc:source>mapsforhumans.com</dc:source>
        <cc:license
           rdf:resource="http://creativecommons.org/licenses/by-sa/3.0/" />
      </cc:Work>
      <cc:License
         rdf:about="http://creativecommons.org/licenses/by-sa/3.0/">
        <cc:permits
           rdf:resource="http://creativecommons.org/ns#Reproduction" />
        <cc:permits
           rdf:resource="http://creativecommons.org/ns#Distribution" />
        <cc:requires
           rdf:resource="http://creativecommons.org/ns#Notice" />
        <cc:requires
           rdf:resource="http://creativecommons.org/ns#Attribution" />
        <cc:permits
           rdf:resource="http://creativecommons.org/ns#DerivativeWorks" />
        <cc:requires
           rdf:resource="http://creativecommons.org/ns#ShareAlike" />
      </cc:License>
    </rdf:RDF>
  </metadata>
  <sodipodi:namedview
     pagecolor="#ffffff"
     bordercolor="#666666"
     borderopacity="1"
     objecttolerance="10"
     gridtolerance="10"
     guidetolerance="10"
     inkscape:pageopacity="0"
     inkscape:pageshadow="2"
     inkscape:window-width="1178"
     inkscape:window-height="749"
     id="namedview7"
     showgrid="true"
     inkscape:zoom="20.243129"
     inkscape:cx="19.9153"
     inkscape:cy="11.104074"
     inkscape:window-x="0"
     inkscape:window-y="0"
     inkscape:window-maximized="0"
     inkscape:current-layer="symbol-bird">
    <inkscape:grid
       type="xygrid"
       id="grid2986"
       empspacing="2"
       visible="true"
       enabled="true"
       snapvisiblegridlinesonly="true" />
  </sodipodi:namedview>
  <defs
     id="defs3341" />
  <g
     id="g3803"
     transform="matrix(1.5243069,0,0,1.5715193,7.3028534,-0.3369297)">
    <path
       sodipodi:nodetypes="ccccccccccc"
       inkscape:connector-curvature="0"
       id="path2997"
       d="M -1.5560836,6.6082327 C -2.8228262,5.3050126 -2.7953466,5.0382957 -3.478862,4.0323588 -3.8203472,3.6064401 -4.2805402,2.0419564 -4.1348979,1.4870513 -2.3093273,3.087641 -0.31427886,5.636444 1.5807833,5.7990076 3.318108,5.5637745 4.5593833,3.2962301 5.6809401,3.3507424 c 0.8986607,0 1.6135586,0.44511 1.9018797,1.3614767 L 9.85978,5.2882015 C 8.9705893,5.7657298 8.5214102,5.7660746 7.6322195,6.2436029 6.9726862,8.4187052 5.2929583,10.617447 2.9392689,10.837754 1.2141556,10.824215 -0.10356506,10.42219 -1.3090862,8.5900782 -1.8003687,7.7173541 -1.7866095,6.8446299 -1.5560836,5.9719058"
       style="fill:#4d4d4d;fill-opacity:1;stroke:none" />
    <path
       sodipodi:nodetypes="ccccccccccccccccccc"
       inkscape:connector-curvature="0"
       d="m 0.25,12.75 -0.46875,0.375 c 0.46241486,0.58865 0.86530691,1.022172 0.875,2.375 l 0.59375,0 c -0.010633,-1.484004 -0.54405818,-2.16959 -1,-2.75 z m 0.09375,-0.125 c -0.80697666,-0.05044 -1.632415,0.0575 -2.4375,0.28125 l 0.1875,0.5625 c 0.7427654,-0.20643 1.47787632,-0.265054 2.21875,-0.21875 0.7042713,0.156331 1.24078,0.467268 1.9702513,1.78125 L 2.7893016,14.675901 C 1.9770564,13.21282 1.2093514,12.829554 0.375,12.65625 l 0,-0.03125 z m 0.5625,-2.5 L 0,12.96875 0.5625,13.15625 1.46875,10.3125 z"
       style="font-size:medium;font-style:normal;font-variant:normal;font-weight:normal;font-stretch:normal;text-indent:0;text-align:start;text-decoration:none;line-height:normal;letter-spacing:normal;word-spacing:normal;text-transform:none;direction:ltr;block-progression:tb;writing-mode:lr-tb;text-anchor:start;baseline-shift:baseline;color:#000000;fill:#4d4d4d;fill-opacity:1;stroke:none;stroke-width:0.60000002;marker:none;visibility:visible;display:inline;overflow:visible;enable-background:accumulate;font-family:Sans;-inkscape-font-specification:Sans"
       id="path3773" />
    <path
       sodipodi:nodetypes="cccccccccccccccccccc"
       inkscape:connector-curvature="0"
       id="path3799"
       style="font-size:medium;font-style:normal;font-variant:normal;font-weight:normal;font-stretch:normal;text-indent:0;text-align:start;text-decoration:none;line-height:normal;letter-spacing:normal;word-spacing:normal;text-transform:none;direction:ltr;block-progression:tb;writing-mode:lr-tb;text-anchor:start;baseline-shift:baseline;color:#000000;fill:#4d4d4d;fill-opacity:1;stroke:none;stroke-width:0.60000002;marker:none;visibility:visible;display:inline;overflow:visible;enable-background:accumulate;font-family:Sans;-inkscape-font-specification:Sans"
       d="M 3.1575746,12.375164 2.808918,12.855003 c 0.5885208,0.453502 1.0810391,0.771899 1.435393,2.077528 L 4.8071362,14.784014 C 4.4184227,13.351786 3.7378571,12.822318 3.1575746,12.375164 z m 0.056974,-0.144313 c -0.7778155,0.153082 -1.1622253,-0.03008 -1.8682897,0.387647 l 0.3706521,0.472283 c 0.6514099,-0.385388 0.9133801,-0.107253 1.6274803,-0.247799 0.7074769,-0.02501 1.4124422,0.110551 2.4391741,1.198579 L 6.2153865,13.636736 C 5.0721502,12.425249 4.0872569,12.212119 3.2521444,12.25325 l -0.00797,-0.03022 -0.029622,0.0078 z M 3.1098919,9.6728939 2.9764084,12.649208 3.5574505,12.689802 3.690934,9.713488 z" />
    <path
       transform="matrix(0.56097563,0,0,0.63235293,2.546483,1.7004691)"
       d="m 6.6442301,4.8604174 c 0,0.4638038 -0.4533964,0.8397911 -1.0126893,0.8397911 -0.5592929,0 -1.0126894,-0.3759873 -1.0126894,-0.8397911 0,-0.4638039 0.4533965,-0.8397912 1.0126894,-0.8397912 0.5592929,0 1.0126893,0.3759873 1.0126893,0.8397912 z"
       sodipodi:ry="0.83979112"
       sodipodi:rx="1.0126894"
       sodipodi:cy="4.8604174"
       sodipodi:cx="5.6315408"
       id="path3801"
       style="fill:#ffffff;fill-opacity:1;stroke:none"
       sodipodi:type="arc" />
  </g>
</svg>
