<?xml version="1.0" encoding="UTF-8" standalone="no"?>
<!-- Created with Inkscape (http://www.inkscape.org/) -->

<svg
   xmlns:dc="http://purl.org/dc/elements/1.1/"
   xmlns:cc="http://creativecommons.org/ns#"
   xmlns:rdf="http://www.w3.org/1999/02/22-rdf-syntax-ns#"
   xmlns:svg="http://www.w3.org/2000/svg"
   xmlns="http://www.w3.org/2000/svg"
   xmlns:sodipodi="http://sodipodi.sourceforge.net/DTD/sodipodi-0.dtd"
   xmlns:inkscape="http://www.inkscape.org/namespaces/inkscape"
   version="1.0"
   width="24"
   height="24"
   id="symbol-cafe"
   inkscape:version="0.48.2 r9819"
   sodipodi:docname="cafe.svg">
  <title
     id="title2988">Cafe Map Icon</title>
  <metadata
     id="metadata11">
    <rdf:RDF>
      <cc:Work
         rdf:about="">
        <dc:format>image/svg+xml</dc:format>
        <dc:type
           rdf:resource="http://purl.org/dc/dcmitype/StillImage" />
        <dc:title>Cafe Map Icon</dc:title>
        <dc:creator>
          <cc:Agent>
            <dc:title>Yury Melnichek</dc:title>
          </cc:Agent>
        </dc:creator>
        <dc:source>mapsforhumans.com</dc:source>
        <cc:license
           rdf:resource="http://creativecommons.org/licenses/by-sa/3.0/" />
      </cc:Work>
      <cc:License
         rdf:about="http://creativecommons.org/licenses/by-sa/3.0/">
        <cc:permits
           rdf:resource="http://creativecommons.org/ns#Reproduction" />
        <cc:permits
           rdf:resource="http://creativecommons.org/ns#Distribution" />
        <cc:requires
           rdf:resource="http://creativecommons.org/ns#Notice" />
        <cc:requires
           rdf:resource="http://creativecommons.org/ns#Attribution" />
        <cc:permits
           rdf:resource="http://creativecommons.org/ns#DerivativeWorks" />
        <cc:requires
           rdf:resource="http://creativecommons.org/ns#ShareAlike" />
      </cc:License>
    </rdf:RDF>
  </metadata>
  <sodipodi:namedview
     pagecolor="#ffffff"
     bordercolor="#666666"
     borderopacity="1"
     objecttolerance="10"
     gridtolerance="10"
     guidetolerance="10"
     inkscape:pageopacity="0"
     inkscape:pageshadow="2"
     inkscape:window-width="974"
     inkscape:window-height="694"
     id="namedview9"
     showgrid="true"
     showguides="true"
     inkscape:guide-bbox="true"
     inkscape:zoom="21.273311"
     inkscape:cx="7.3014949"
     inkscape:cy="10.378331"
     inkscape:window-x="0"
     inkscape:window-y="0"
     inkscape:window-maximized="0"
     inkscape:current-layer="symbol-cafe">
    <inkscape:grid
       type="xygrid"
       id="grid2986"
       empspacing="2"
       visible="true"
       enabled="true"
       snapvisiblegridlinesonly="true" />
  </sodipodi:namedview>
  <defs
     id="defs2230" />
  <path
     style="fill:#4d4d4d;fill-opacity:1;stroke:none"
     d="M 6 10 C 6 10.852249 6.0226526 11.569338 6.03125 12.34375 C 5.2814432 12.013146 4.5154593 12 4 12 C 1.9749559 12 0 14.106767 0 16.5 C 0 18.893233 1.9749559 21 4 21 C 5.7837149 21 6.5237898 20.755024 7.21875 20.5 C 7.6437945 21.41527 8.2324115 22.232412 9 23 L 19 23 C 22 20 22 16 22 10 L 6 10 z M 4 14 C 5.2214854 14 5.6808579 14.365859 6.09375 14.65625 C 6.1668745 16.127334 6.2889585 17.462992 6.59375 18.65625 C 6.364901 18.806938 5.9423077 19 4 19 C 2.8798456 19 2 18.134672 2 17 C 2 15.065087 3 14 4 14 z "
     id="rect2992" />
  <path
     style="fill:#4d4d4d;stroke:none"
     d="m 14,9 c 0,-5.9999994 -2.16343,-3.000001 0,-9 0,5.999999 2.16343,4.5 0,9 z"
     id="path3783"
     inkscape:connector-curvature="0"
     sodipodi:nodetypes="ccc" />
  <path
     sodipodi:nodetypes="ccc"
     inkscape:connector-curvature="0"
     id="path3790"
     d="m 18,9 c 0,-5.9999994 -2.16343,-3.000001 0,-9 0,5.999999 2.16343,4.5 0,9 z"
     style="fill:#4d4d4d;stroke:none" />
  <path
     style="fill:#4d4d4d;stroke:none"
     d="m 10,9 c 0,-5.9999994 -2.16343,-3.000001 0,-9 0,5.999999 2.16343,4.5 0,9 z"
     id="path3792"
     inkscape:connector-curvature="0"
     sodipodi:nodetypes="ccc" />
</svg>
