<?xml version="1.0" encoding="UTF-8" standalone="no"?>
<!-- Generator: Adobe Illustrator 14.0.0, SVG Export Plug-In . SVG Version: 6.00 Build 43363)  -->

<svg
   xmlns:dc="http://purl.org/dc/elements/1.1/"
   xmlns:cc="http://creativecommons.org/ns#"
   xmlns:rdf="http://www.w3.org/1999/02/22-rdf-syntax-ns#"
   xmlns:svg="http://www.w3.org/2000/svg"
   xmlns="http://www.w3.org/2000/svg"
   xmlns:sodipodi="http://sodipodi.sourceforge.net/DTD/sodipodi-0.dtd"
   xmlns:inkscape="http://www.inkscape.org/namespaces/inkscape"
   version="1.0"
   id="Layer_1"
   x="0px"
   y="0px"
   width="24"
   height="24"
   viewBox="0 0 24 24"
   enable-background="new 0 0 100 92.316"
   xml:space="preserve"
   inkscape:version="0.48.2 r9819"
   sodipodi:docname="dog_park.svg"><title
   id="title2998">Dog Run Map Icon</title><metadata
   id="metadata13"><rdf:RDF><cc:Work
       rdf:about=""><dc:format>image/svg+xml</dc:format><dc:type
         rdf:resource="http://purl.org/dc/dcmitype/StillImage" /><dc:title>Dog Run Map Icon</dc:title><dc:creator><cc:Agent><dc:title>Yury Melnichek</dc:title></cc:Agent></dc:creator><dc:source>mapsforhumans.com</dc:source></cc:Work></rdf:RDF></metadata><defs
   id="defs11" /><sodipodi:namedview
   pagecolor="#ffffff"
   bordercolor="#666666"
   borderopacity="1"
   objecttolerance="10"
   gridtolerance="10"
   guidetolerance="10"
   inkscape:pageopacity="0"
   inkscape:pageshadow="2"
   inkscape:window-width="1101"
   inkscape:window-height="793"
   id="namedview9"
   showgrid="true"
   inkscape:zoom="21.983141"
   inkscape:cx="12.132272"
   inkscape:cy="11.794105"
   inkscape:window-x="0"
   inkscape:window-y="0"
   inkscape:window-maximized="0"
   inkscape:current-layer="Layer_1"><inkscape:grid
     type="xygrid"
     id="grid2984"
     empspacing="2"
     visible="true"
     enabled="true"
     snapvisiblegridlinesonly="true" /></sodipodi:namedview>



<path
   style="fill:#4d4d4d;fill-opacity:1;stroke:none"
   d="m 12.865719,4.441906 c -0.717438,-0.4142137 -1.746753,0.025465 -2.299038,0.9820509 -0.552284,0.9565851 -0.4184,2.067837 0.299038,2.4820507 0.717439,0.4142138 1.746754,-0.025465 2.299039,-0.982051 0.552284,-0.9565849 0.4184,-2.0678369 -0.299039,-2.4820506 z m 3.464102,2.0000002 C 15.612382,6.0276925 14.583068,6.4673716 14.030783,7.4239571 13.478498,8.380542 13.612382,9.491793 14.329821,9.9060076 15.047259,10.320221 16.076574,9.8805415 16.628859,8.9239558 17.181144,7.967372 17.04726,6.8561192 16.329821,6.4419062 z M 7.9016181,5.039982 C 7.1841786,4.6257687 6.1548643,5.0654477 5.6025797,6.022033 5.0502951,6.9786178 5.1841788,8.0898702 5.9016177,8.5040838 6.6190566,8.9182973 7.6483714,8.4786179 8.2006556,7.522033 8.7529408,6.5654477 8.6190566,5.4541956 7.9016181,5.039982 z m 10.3923049,6 c -0.717439,-0.414214 -1.746753,0.02547 -2.299039,0.98205 -0.552284,0.956586 -0.418401,2.067838 0.299039,2.482051 0.717439,0.414214 1.746752,-0.02547 2.299038,-0.98205 0.552284,-0.956586 0.4184,-2.067838 -0.299038,-2.482051 z m -5.857777,-0.582378 c -2.429199,-1.5208456 -2.7320503,0.732051 -4.0980757,1.098077 -1.8623558,0.499016 -3.7014316,0.13941 -4.5034403,1.52853 -1.0511927,1.820718 3.4641021,1.999999 5.196153,3 1.73205,0.999999 4.14496,4.820718 5.196152,3 0.740049,-1.281802 -0.225471,-2.784761 -0.692712,-4.52853 -0.366026,-1.366026 1.106621,-2.717784 -1.098077,-4.098077 z"
   id="path2986"
   inkscape:connector-curvature="0"
   sodipodi:nodetypes="sssssssssssssssssssssssssss" /></svg>