<?xml version="1.0" encoding="UTF-8" standalone="no"?>
<!-- Created with Inkscape (http://www.inkscape.org/) -->

<svg
   xmlns:dc="http://purl.org/dc/elements/1.1/"
   xmlns:cc="http://creativecommons.org/ns#"
   xmlns:rdf="http://www.w3.org/1999/02/22-rdf-syntax-ns#"
   xmlns:svg="http://www.w3.org/2000/svg"
   xmlns="http://www.w3.org/2000/svg"
   xmlns:sodipodi="http://sodipodi.sourceforge.net/DTD/sodipodi-0.dtd"
   xmlns:inkscape="http://www.inkscape.org/namespaces/inkscape"
   width="24"
   height="24"
   id="svg2816"
   version="1.1"
   inkscape:version="0.48.2 r9819"
   sodipodi:docname="hairdresser.svg">
  <defs
     id="defs2818">
    <inkscape:perspective
       sodipodi:type="inkscape:persp3d"
       inkscape:vp_x="0 : 8 : 1"
       inkscape:vp_y="0 : 1000 : 0"
       inkscape:vp_z="16 : 8 : 1"
       inkscape:persp3d-origin="8 : 5.3333333 : 1"
       id="perspective2824" />
  </defs>
  <sodipodi:namedview
     id="base"
     pagecolor="#ffffff"
     bordercolor="#666666"
     borderopacity="1.0"
     inkscape:pageopacity="0.0"
     inkscape:pageshadow="2"
     inkscape:zoom="22.627417"
     inkscape:cx="2.0006907"
     inkscape:cy="11.925233"
     inkscape:current-layer="layer1"
     showgrid="true"
     inkscape:grid-bbox="true"
     inkscape:document-units="px"
     inkscape:window-width="1109"
     inkscape:window-height="756"
     inkscape:window-x="168"
     inkscape:window-y="37"
     inkscape:window-maximized="0"
     inkscape:snap-from-guide="true">
    <inkscape:grid
       type="xygrid"
       id="grid2997"
       empspacing="2"
       visible="true"
       enabled="true"
       snapvisiblegridlinesonly="true" />
  </sodipodi:namedview>
  <metadata
     id="metadata2821">
    <rdf:RDF>
      <cc:Work
         rdf:about="">
        <dc:format>image/svg+xml</dc:format>
        <dc:type
           rdf:resource="http://purl.org/dc/dcmitype/StillImage" />
        <dc:title></dc:title>
        <dc:creator>
          <cc:Agent>
            <dc:title>Yury Melnichek</dc:title>
          </cc:Agent>
        </dc:creator>
        <dc:description />
        <cc:license
           rdf:resource="http://creativecommons.org/licenses/by-sa/3.0/" />
        <dc:date>11-11-11</dc:date>
        <dc:publisher>
          <cc:Agent>
            <dc:title></dc:title>
          </cc:Agent>
        </dc:publisher>
      </cc:Work>
      <cc:License
         rdf:about="http://creativecommons.org/licenses/by-sa/3.0/">
        <cc:permits
           rdf:resource="http://creativecommons.org/ns#Reproduction" />
        <cc:permits
           rdf:resource="http://creativecommons.org/ns#Distribution" />
        <cc:requires
           rdf:resource="http://creativecommons.org/ns#Notice" />
        <cc:requires
           rdf:resource="http://creativecommons.org/ns#Attribution" />
        <cc:permits
           rdf:resource="http://creativecommons.org/ns#DerivativeWorks" />
        <cc:requires
           rdf:resource="http://creativecommons.org/ns#ShareAlike" />
      </cc:License>
    </rdf:RDF>
  </metadata>
  <g
     id="layer1"
     inkscape:label="Layer 1"
     inkscape:groupmode="layer"
     transform="translate(0,8)">
    <path
       style="fill:#4d4d4d;fill-opacity:1;stroke:none"
       d="M 4.5,9 C 3.1192882,9 2,10.119288 2,11.5 2,12.880712 3.1192882,14 4.5,14 5.8807118,14 7,12.880712 7,11.5 7,10.119288 5.8807118,9 4.5,9 z m 0,1.25 c 0.6903559,0 1.25,0.559644 1.25,1.25 0,0.690356 -0.5596441,1.25 -1.25,1.25 -0.6903559,0 -1.25,-0.559644 -1.25,-1.25 0,-0.690356 0.5596441,-1.25 1.25,-1.25 z"
       id="path2999"
       inkscape:connector-curvature="0" />
    <path
       style="fill:#4d4d4d;fill-opacity:1;stroke:none"
       d="M 11.5,9 C 10.119288,9 9,10.119288 9,11.5 9,12.880712 10.119288,14 11.5,14 12.880712,14 14,12.880712 14,11.5 14,10.119288 12.880712,9 11.5,9 z m 0,1.25 c 0.690356,0 1.25,0.559644 1.25,1.25 0,0.690356 -0.559644,1.25 -1.25,1.25 -0.690356,0 -1.25,-0.559644 -1.25,-1.25 0,-0.690356 0.559644,-1.25 1.25,-1.25 z"
       id="path3003"
       inkscape:connector-curvature="0" />
    <path
       sodipodi:type="arc"
       style="fill:#4d4d4d;fill-opacity:1;stroke:none"
       id="path3007"
       sodipodi:cx="22"
       sodipodi:cy="22"
       sodipodi:rx="2"
       sodipodi:ry="2"
       d="m 24,22 c 0,1.104569 -0.895431,2 -2,2 -1.104569,0 -2,-0.895431 -2,-2 0,-1.104569 0.895431,-2 2,-2 1.104569,0 2,0.895431 2,2 z"
       transform="matrix(0.5,0,0,0.5,10,2)" />
    <rect
       style="fill:#4d4d4d;fill-opacity:1;stroke:none"
       id="rect3009"
       width="2"
       height="18"
       x="20"
       y="-5"
       ry="0.1013614" />
    <path
       transform="matrix(0.5,0,0,0.5,10,-16)"
       d="m 24,22 c 0,1.104569 -0.895431,2 -2,2 -1.104569,0 -2,-0.895431 -2,-2 0,-1.104569 0.895431,-2 2,-2 1.104569,0 2,0.895431 2,2 z"
       sodipodi:ry="2"
       sodipodi:rx="2"
       sodipodi:cy="22"
       sodipodi:cx="22"
       id="path3017"
       style="fill:#4d4d4d;fill-opacity:1;stroke:none"
       sodipodi:type="arc" />
    <rect
       style="fill:#4d4d4d;fill-opacity:1;stroke:none"
       id="rect3019"
       width="5.5"
       height="1"
       x="15.5"
       y="-6"
       ry="0.061943077" />
    <path
       sodipodi:type="arc"
       style="fill:#4d4d4d;fill-opacity:1;stroke:none"
       id="path3021"
       sodipodi:cx="22"
       sodipodi:cy="22"
       sodipodi:rx="2"
       sodipodi:ry="2"
       d="m 24,22 c 0,1.104569 -0.895431,2 -2,2 -1.104569,0 -2,-0.895431 -2,-2 0,-1.104569 0.895431,-2 2,-2 1.104569,0 2,0.895431 2,2 z"
       transform="matrix(0.25,0,0,0.25,10,-11)" />
    <path
       style="fill:#4d4d4d;fill-opacity:1;stroke:none"
       d="m 2,2 4,11 -1,5 1,1 2,-5 2,5 1,-1 -1,-5 4,-11 -6,9 z"
       transform="translate(0,-8)"
       id="path3057"
       inkscape:connector-curvature="0"
       sodipodi:nodetypes="ccccccccccc" />
    <rect
       ry="0.061943077"
       y="-4"
       x="15.5"
       height="1"
       width="6.5"
       id="rect3005"
       style="fill:#4d4d4d;fill-opacity:1;stroke:none" />
    <path
       transform="matrix(0.25,0,0,0.25,10,-9)"
       d="m 24,22 c 0,1.104569 -0.895431,2 -2,2 -1.104569,0 -2,-0.895431 -2,-2 0,-1.104569 0.895431,-2 2,-2 1.104569,0 2,0.895431 2,2 z"
       sodipodi:ry="2"
       sodipodi:rx="2"
       sodipodi:cy="22"
       sodipodi:cx="22"
       id="path3008"
       style="fill:#4d4d4d;fill-opacity:1;stroke:none"
       sodipodi:type="arc" />
    <rect
       style="fill:#4d4d4d;fill-opacity:1;stroke:none"
       id="rect3010"
       width="6.5"
       height="1"
       x="15.5"
       y="-2"
       ry="0.061943077" />
    <path
       sodipodi:type="arc"
       style="fill:#4d4d4d;fill-opacity:1;stroke:none"
       id="path3012"
       sodipodi:cx="22"
       sodipodi:cy="22"
       sodipodi:rx="2"
       sodipodi:ry="2"
       d="m 24,22 c 0,1.104569 -0.895431,2 -2,2 -1.104569,0 -2,-0.895431 -2,-2 0,-1.104569 0.895431,-2 2,-2 1.104569,0 2,0.895431 2,2 z"
       transform="matrix(0.25,0,0,0.25,10,-7)" />
    <rect
       ry="0.061943077"
       y="0"
       x="15.5"
       height="1"
       width="6.5"
       id="rect3014"
       style="fill:#4d4d4d;fill-opacity:1;stroke:none" />
    <path
       transform="matrix(0.25,0,0,0.25,10,-5)"
       d="m 24,22 c 0,1.104569 -0.895431,2 -2,2 -1.104569,0 -2,-0.895431 -2,-2 0,-1.104569 0.895431,-2 2,-2 1.104569,0 2,0.895431 2,2 z"
       sodipodi:ry="2"
       sodipodi:rx="2"
       sodipodi:cy="22"
       sodipodi:cx="22"
       id="path3016"
       style="fill:#4d4d4d;fill-opacity:1;stroke:none"
       sodipodi:type="arc" />
    <rect
       style="fill:#4d4d4d;fill-opacity:1;stroke:none"
       id="rect3018"
       width="6.5"
       height="1"
       x="15.5"
       y="2"
       ry="0.061943077" />
    <path
       sodipodi:type="arc"
       style="fill:#4d4d4d;fill-opacity:1;stroke:none"
       id="path3020"
       sodipodi:cx="22"
       sodipodi:cy="22"
       sodipodi:rx="2"
       sodipodi:ry="2"
       d="m 24,22 c 0,1.104569 -0.895431,2 -2,2 -1.104569,0 -2,-0.895431 -2,-2 0,-1.104569 0.895431,-2 2,-2 1.104569,0 2,0.895431 2,2 z"
       transform="matrix(0.25,0,0,0.25,10,-3)" />
    <rect
       ry="0.061943077"
       y="4"
       x="15.5"
       height="1"
       width="6.5"
       id="rect3022"
       style="fill:#4d4d4d;fill-opacity:1;stroke:none" />
    <path
       transform="matrix(0.25,0,0,0.25,10,-1)"
       d="m 24,22 c 0,1.104569 -0.895431,2 -2,2 -1.104569,0 -2,-0.895431 -2,-2 0,-1.104569 0.895431,-2 2,-2 1.104569,0 2,0.895431 2,2 z"
       sodipodi:ry="2"
       sodipodi:rx="2"
       sodipodi:cy="22"
       sodipodi:cx="22"
       id="path3024"
       style="fill:#4d4d4d;fill-opacity:1;stroke:none"
       sodipodi:type="arc" />
    <rect
       style="fill:#4d4d4d;fill-opacity:1;stroke:none"
       id="rect3026"
       width="6.5"
       height="1"
       x="15.5"
       y="6"
       ry="0.061943077" />
    <path
       sodipodi:type="arc"
       style="fill:#4d4d4d;fill-opacity:1;stroke:none"
       id="path3028"
       sodipodi:cx="22"
       sodipodi:cy="22"
       sodipodi:rx="2"
       sodipodi:ry="2"
       d="m 24,22 c 0,1.104569 -0.895431,2 -2,2 -1.104569,0 -2,-0.895431 -2,-2 0,-1.104569 0.895431,-2 2,-2 1.104569,0 2,0.895431 2,2 z"
       transform="matrix(0.25,0,0,0.25,10,1)" />
  </g>
</svg>
