<?xml version="1.0" encoding="UTF-8" standalone="no"?>
<!-- Created with Inkscape (http://www.inkscape.org/) -->
<svg
   xmlns:svg="http://www.w3.org/2000/svg"
   xmlns="http://www.w3.org/2000/svg"
   version="1.0"
   width="36"
   height="18"
   id="parking_fee-permissive">
  <defs
     id="defs2856" />
  <g
     transform="matrix(0.5,0,0,0.5,0,-20)"
     id="parking_fee">
    <g
       transform="translate(0,40)"
       id="g2900">
      <rect
         width="72"
         height="36"
         rx="2"
         ry="2"
         x="0"
         y="0"
         style="fill:#aaaaaa"
         id="rect2902" />
      <path
         d="M 15.7,21.4 L 15.76,30.7 L 7.8,30.7 L 7.8,5.1 L 18.7,5.1 C 21.4,5.1 23.5,5.4 24.9,6 C 26.4,6.7 27.5,7.6 28.3,8.9 C 29.1,10.2 29.4,11.7 29.6,13.3 C 29.6,15.7 28.7,17.7 27,19.2 C 25.3,20.6 23,21.4 20.2,21.4 L 15.8,21.4 L 15.7,21.4 z M 15.6,15.9 L 18.3,15.9 C 20.6,15.9 21.7,15 21.7,13.1 C 21.7,11.8 20.7,11 18.5,11 L 15.64,11 L 15.6,15.9 z "
         style="fill:#ffffff"
         id="path2904" />
      <path
         d="M 38.5,33.76 L 69.5,33.76 C 69.776142,33.76 70,33.536142 70,33.26 L 70,2.26 C 70,1.9838576 69.776142,1.76 69.5,1.76 L 38.5,1.76 C 38.223858,1.76 38,1.9838576 38,2.26 L 38,33.26 C 38,33.536142 38.223858,33.76 38.5,33.76 z "
         style="fill:#ffffff"
         id="path2906" />
      <path
         d="M 40,31.76 L 40,3.76 L 68,3.76 L 68,31.76 L 40,31.76 z "
         style="fill:#aaaaaa"
         id="path2908" />
    </g>
    <g
       transform="matrix(0.922587,0,0,0.922587,4.1701143,4.4683601)"
       id="g3894">
      <rect
         width="23.348639"
         height="11.674319"
         x="46.746216"
         y="44.002426"
         transform="matrix(0.9948298,0.1015563,-0.1015563,0.9948298,0,0)"
         style="fill:#aaaaaa;fill-opacity:1;stroke:#ffffff;stroke-width:1.07493544;stroke-miterlimit:4;stroke-dasharray:none;stroke-opacity:1"
         id="rect4197" />
      <path
         d="M 411.42859 375.87302 A 46.984127 46.984127 0 1 1  317.46033,375.87302 A 46.984127 46.984127 0 1 1  411.42859 375.87302 z"
         transform="matrix(0.1272924,0,0,0.1272924,14.568602,12.069448)"
         style="fill:#aaaaaa;fill-opacity:1;stroke:#ffffff;stroke-width:7.5999999;stroke-miterlimit:4;stroke-dasharray:none;stroke-opacity:1"
         id="path3224" />
      <text
         x="58.128101"
         y="63.268608"
         style="font-size:9.66500282px;font-style:normal;font-variant:normal;font-weight:bold;font-stretch:normal;text-align:start;line-height:125%;writing-mode:lr-tb;text-anchor:start;fill:#ffffff;fill-opacity:1;stroke:#ffffff;stroke-width:0.1414389px;stroke-linecap:butt;stroke-linejoin:miter;stroke-opacity:1;font-family:Myriad Pro"
         id="text4205"
         xml:space="preserve"><tspan
           x="58.128101"
           y="63.268608"
           style="fill:#ffffff;fill-opacity:1;stroke-width:0.1414389"
           id="tspan4207">2</tspan></text>
      <path
         d="M 411.42859 375.87302 A 46.984127 46.984127 0 1 1  317.46033,375.87302 A 46.984127 46.984127 0 1 1  411.42859 375.87302 z"
         transform="matrix(9.8999267e-2,0,0,9.8999267e-2,18.414082,25.218524)"
         style="fill:#aaaaaa;fill-opacity:1;stroke:#ffffff;stroke-width:7.5999999;stroke-miterlimit:4;stroke-dasharray:none;stroke-opacity:1"
         id="path4199" />
      <text
         x="52.545464"
         y="64.742836"
         style="font-size:7.11741495px;font-style:normal;font-variant:normal;font-weight:bold;font-stretch:normal;text-align:start;line-height:125%;writing-mode:lr-tb;text-anchor:start;fill:#ffffff;fill-opacity:1;stroke:#ffffff;stroke-width:0.1414389px;stroke-linecap:butt;stroke-linejoin:miter;stroke-opacity:1;font-family:Myriad Pro"
         id="text4201"
         xml:space="preserve"><tspan
           x="52.545464"
           y="64.742836"
           style="fill:#ffffff;fill-opacity:1;stroke-width:0.1414389"
           id="tspan4203">1</tspan></text>
    </g>
  </g>
</svg>
