<?xml version="1.0" encoding="UTF-8" standalone="no"?>
<!-- Created with Inkscape (http://www.inkscape.org/) -->

<svg
   xmlns:dc="http://purl.org/dc/elements/1.1/"
   xmlns:cc="http://creativecommons.org/ns#"
   xmlns:rdf="http://www.w3.org/1999/02/22-rdf-syntax-ns#"
   xmlns:svg="http://www.w3.org/2000/svg"
   xmlns="http://www.w3.org/2000/svg"
   xmlns:sodipodi="http://sodipodi.sourceforge.net/DTD/sodipodi-0.dtd"
   xmlns:inkscape="http://www.inkscape.org/namespaces/inkscape"
   version="1.0"
   width="38"
   height="38"
   viewBox="0 0 300 300"
   id="symbol-archery-borderless"
   inkscape:version="0.48.2 r9819"
   sodipodi:docname="archery-borderless.svg">
  <metadata
     id="metadata16">
    <rdf:RDF>
      <cc:Work
         rdf:about="">
        <dc:format>image/svg+xml</dc:format>
        <dc:type
           rdf:resource="http://purl.org/dc/dcmitype/StillImage" />
      </cc:Work>
    </rdf:RDF>
  </metadata>
  <sodipodi:namedview
     pagecolor="#ffffff"
     bordercolor="#666666"
     borderopacity="1"
     objecttolerance="10"
     gridtolerance="10"
     guidetolerance="10"
     inkscape:pageopacity="0"
     inkscape:pageshadow="2"
     inkscape:window-width="640"
     inkscape:window-height="480"
     id="namedview14"
     showgrid="false"
     inkscape:zoom="6.2105263"
     inkscape:cx="19"
     inkscape:cy="17.470339"
     inkscape:window-x="0"
     inkscape:window-y="0"
     inkscape:window-maximized="0"
     inkscape:current-layer="symbol-archery-borderless" />
  <defs
     id="defs2474" />
  <path
     d="M 58.261298,71.858418 C 58.258258,80.787624 65.495987,88.027798 74.425237,88.027798 C 83.354477,88.027798 90.592208,80.787624 90.589168,71.858418 C 90.592208,62.929168 83.354477,55.688978 74.425237,55.688978 C 65.495987,55.688978 58.258258,62.929168 58.261298,71.858418 L 58.261298,71.858418 z"
     id="path2387"
     style="fill:#50524e;fill-opacity:1;fill-rule:evenodd;stroke:#000000;stroke-width:1px;stroke-linecap:butt;stroke-linejoin:miter;stroke-opacity:1" />
  <path
     d="M 69.959369,96.772801 C 71.98539,96.431432 74.06469,96.893278 75.755693,98.060241 L 100.59767,114.66154 L 132.88253,108.80052 C 137.17888,108.02087 141.29377,110.87171 142.07343,115.16807 C 142.85307,119.46441 140.00222,123.5793 135.70588,124.35895 L 100.24949,130.77021 C 98.240939,131.13384 96.169626,130.70547 94.470076,129.57498 L 66.978213,111.17239 C 64.254731,109.39894 62.896171,106.13781 63.555056,102.9553 C 64.213929,99.772781 66.755621,97.319131 69.959369,96.772801 z"
     id="path3168"
     style="fill:#50524e;fill-opacity:1;fill-rule:evenodd;stroke:#ffffff;stroke-width:0.78947365000000003;stroke-linecap:round;stroke-linejoin:round;stroke-miterlimit:4;stroke-dasharray:none;stroke-opacity:1" />
  <path
     d="M 68.942546,109.29519 C 68.942546,109.29519 68.587219,166.30833 68.587219,166.30833"
     id="path2383"
     style="fill:#555555;fill-opacity:1;fill-rule:evenodd;stroke:#505050;stroke-width:34.34040069999999645;stroke-linecap:round;stroke-linejoin:miter;stroke-miterlimit:4;stroke-dasharray:none;stroke-opacity:1" />
  <path
     d="M 77.80665,173.55893 L 88.87122,200.50364 L 89.26628,236.07501"
     id="path3157"
     style="fill:#555555;fill-opacity:1;fill-rule:evenodd;stroke:#505050;stroke-width:19.73684120000000064;stroke-linecap:round;stroke-linejoin:round;stroke-miterlimit:4;stroke-dasharray:none;stroke-opacity:1" />
  <path
     d="M 61.212962,171.91509 L 60.672082,201.03809 L 46.913852,233.84343"
     id="path2388"
     style="fill:#555555;fill-opacity:1;fill-rule:evenodd;stroke:#505050;stroke-width:19.73684120000000064;stroke-linecap:round;stroke-linejoin:round;stroke-miterlimit:4;stroke-dasharray:none;stroke-opacity:1" />
  <g
     transform="matrix(0.6666666,0,0,1,-15.302868,9.0566038)"
     id="g3233"
     style="stroke:#505050;stroke-opacity:1">
    <path
       d="M 406.57915,94.737891 C 406.57915,118.7182 387.13879,138.15809 363.1579,138.15809 C 339.177,138.15809 319.73665,118.7182 319.73665,94.737891 C 319.73665,70.757583 339.177,51.317695 363.1579,51.317695 C 387.13879,51.317695 406.57915,70.757583 406.57915,94.737891 L 406.57915,94.737891 z"
       id="path3171"
       style="fill:none;fill-rule:evenodd;stroke:#505050;stroke-width:7.89434480999999888;stroke-linecap:butt;stroke-linejoin:miter;stroke-miterlimit:4;stroke-dasharray:none;stroke-opacity:1" />
    <path
       d="M 382.89618,94.736115 C 382.89618,105.63685 374.05936,114.47368 363.15862,114.47368 C 352.25788,114.47368 343.42105,105.63685 343.42105,94.736115 C 343.42105,83.835363 352.25788,74.998553 363.15862,74.998553 C 374.05936,74.998553 382.89618,83.835363 382.89618,94.736115 L 382.89618,94.736115 z"
       id="path3175"
       style="fill:none;fill-rule:evenodd;stroke:#505050;stroke-width:7.89473676999999885;stroke-linecap:butt;stroke-linejoin:miter;stroke-miterlimit:4;stroke-dasharray:none;stroke-opacity:1" />
  </g>
  <path
     d="M 106.23634,70.56298 C 122.2236,70.56298 135.18384,90.00286 135.18384,113.98317 L 135.18384,113.98317 C 135.18384,137.96348 122.2236,157.40337 106.23634,157.40337"
     id="path2392"
     style="fill:none;fill-rule:evenodd;stroke:#505050;stroke-width:6.44570541000000041;stroke-linecap:butt;stroke-linejoin:miter;stroke-miterlimit:4;stroke-dasharray:none;stroke-opacity:1" />
  <path
     d="M 109.06653,72.261094 C 109.27928,138.06644 108.9052,99.099774 109.06653,159.10148"
     id="path2398"
     style="fill:none;fill-rule:evenodd;stroke:#505050;stroke-width:1.57894741999999999;stroke-linecap:butt;stroke-linejoin:miter;stroke-miterlimit:4;stroke-dasharray:none;stroke-opacity:1" />
</svg>
