<svg xmlns="http://www.w3.org/2000/svg" version="1" width="32" height="32" viewBox="0 0 250 250">
    <path d="M 116.07706,70.3125 L 116.07706,179.6875" stroke="#000" stroke-width="7.813" stroke-linecap="square" fill="none"/>
    <path d="M 116.07706,117.1875 L 162.95206,164.0625" stroke="#000" stroke-width="7.813" fill="none"/>
    <path d="M 118.08131,114.65534 C 145.01213,116.03641 169.87135,136.06189 169.87135,136.06189" stroke="#ef0000" stroke-width="19.531" stroke-linecap="round" fill="none"/>
    <path d="M 162.95206,109.375 L 162.95206,218.75" stroke="#000" stroke-width="7.813" stroke-linecap="square" fill="none"/>
    <path d="M 148.4375,195.3125 L 101.5625,148.4375 L 23.4375,148.4375 L 23.4375,187.5 C 23.925782,201.9043 29.467774,212.03614 37.890625,218.75 L 148.4375,218.75 L 148.4375,195.3125 z" fill-rule="evenodd" stroke="#000" stroke-width="7.813"/>
    <path d="M 59.676639,7.8570939 L 190.32335,7.8570939 C 219.03136,7.8570939 242.1429,31.747104 242.1429,61.422137 L 242.1429,188.57786 C 242.1429,218.25289 219.03136,242.1429 190.32335,242.1429 L 59.676639,242.1429 C 30.968611,242.1429 7.8570962,218.25289 7.8570962,188.57786 L 7.8570962,61.422137 C 7.8570962,31.747104 30.968611,7.8570939 59.676639,7.8570939 z" stroke="#000" stroke-width="15.625" stroke-linejoin="bevel" fill="none"/>
    <path d="M 104.94696,111.32811 C 104.94696,118.58697 99.055722,124.47822 91.796871,124.47822 C 84.538024,124.47822 78.646785,118.58697 78.646785,111.32811 C 78.646785,104.06928 84.538024,98.178034 91.796871,98.178034 C 99.055722,98.178034 104.94696,104.06928 104.94696,111.32811 z" fill="#ef0000" fill-rule="evenodd" overflow="visible" enable-background="accumulate"/>
    <path d="M 174.70509,138.13349 C 201.63591,139.51456 196.11163,178.18446 196.11163,178.18446" stroke="#ef0000" stroke-width="11.719" stroke-linecap="round" fill="none"/>
    <path d="M 118.61734,115.11395 C 144.92538,121.03543 150.0176,82.306273 150.0176,82.306273" stroke="#ef0000" stroke-width="11.719" stroke-linecap="round" fill="none"/>
</svg>
