<svg xmlns="http://www.w3.org/2000/svg" version="1" width="24" height="24" viewBox="0 0 188 188">
    <path d="M 96.54581,35.65625 L 96.54581,145.03125" stroke="#000" stroke-width="7.813" stroke-linecap="square" fill="none"/>
    <path d="M 96.54581,82.53125 L 143.42081,129.40625" stroke="#000" stroke-width="7.813" fill="none"/>
    <path d="M 98.55006,79.99909 C 125.48088,81.38016 150.3401,101.40564 150.3401,101.40564" stroke="#ef0000" stroke-width="19.531" stroke-linecap="round" fill="none"/>
    <path d="M 143.42081,74.71875 L 143.42081,184.09375" stroke="#000" stroke-width="7.813" stroke-linecap="square" fill="none"/>
    <path d="M 128.90625,160.65625 L 82.03125,113.78125 L 3.90625,113.78125 L 3.90625,152.84375 C 4.394532,167.24805 9.936524,177.37989 18.359375,184.09375 L 128.90625,184.09375 L 128.90625,160.65625 z" fill-rule="evenodd" stroke="#000" stroke-width="7.813"/>
    <path d="M 85.41571,76.67186 C 85.41571,83.93072 79.524472,89.82197 72.265621,89.82197 C 65.006774,89.82197 59.115535,83.93072 59.115535,76.67186 C 59.115535,69.41303 65.006774,63.52178 72.265621,63.52178 C 79.524472,63.52178 85.41571,69.41303 85.41571,76.67186 z" fill="#ef0000" fill-rule="evenodd" overflow="visible" enable-background="accumulate"/>
    <path d="M 155.17384,103.47724 C 182.10466,104.85831 176.58038,143.52821 176.58038,143.52821" stroke="#ef0000" stroke-width="11.719" stroke-linecap="round" fill="none"/>
    <path d="M 99.08609,80.4577 C 125.39413,86.37918 130.48635,47.65002 130.48635,47.65002" stroke="#ef0000" stroke-width="11.719" stroke-linecap="round" fill="none"/>
</svg>
