<svg xmlns="http://www.w3.org/2000/svg" version="1" width="24" height="24">
    <title>
        ATM Map Icon
    </title>
    <path d="M 3,0 3,6 21,6 21,0 3,0 z M 5,2 19,2 19,5 5,5 5,2 z" fill="#4d4d4d"/>
    <path d="M 19.5,21 17,3 7,3 4.5,21 z" fill="#4d4d4d"/>
    <text style="line-height:125%" x="-6.617" y="15.045" font-size="40" letter-spacing="0" word-spacing="0" font-family="Sans"/>
    <text style="line-height:125%" x="-4.62" y="4.607" font-size="40" letter-spacing="0" word-spacing="0" font-family="Sans"/>
    <path style="text-indent:0;text-align:start;line-height:normal;text-transform:none;block-progression:tb;-inkscape-font-specification:Sans" d="m 11.556391,4.875 0,0.875 C 10.878783,5.9226669 10.260423,6.3200773 9.7744362,6.84375 9.119662,7.5492994 8.669173,8.5046298 8.669173,9.541667 c 0,1.037037 0.5226976,1.906736 1.2180451,2.40625 0.4954579,0.35592 1.0744529,0.542591 1.6691729,0.631945 l 0,3.767361 C 11.296538,16.21618 11.031592,16.024783 10.81203,15.788194 10.384097,15.327077 10.112782,14.726852 10.112782,14.208333 a 0.72187669,0.77785556 0 1 0 -1.443609,0 c 0,1.037037 0.450489,1.992367 1.1052632,2.697917 C 10.260423,17.429924 10.878783,17.827333 11.556391,18 l 0,0.875 L 13,18.875 13,18 c 0.677608,-0.172667 1.295968,-0.570076 1.781955,-1.09375 0.654774,-0.70555 1.105263,-1.66088 1.105263,-2.697917 0,-1.037037 -0.522698,-1.906736 -1.218045,-2.40625 C 14.173715,11.446163 13.59472,11.259492 13,11.170138 l 0,-3.8645824 c 0.315372,0.08395 0.595588,0.2188387 0.81203,0.4131944 0.371669,0.3337422 0.631579,0.8290893 0.631579,1.822917 a 0.72187669,0.77785556 0 1 0 1.443609,0 c 0,-1.3395063 -0.461894,-2.3997147 -1.172932,-3.0381947 C 14.206587,6.0475817 13.605539,5.8248594 13,5.7256944 L 13,4.875 l -1.443609,0 z m -0.02256,2.5277777 c 0.0066,-0.00343 0.01593,0.00334 0.02256,0 l 0,3.5972223 c -0.330954,-0.07996 -0.628272,-0.200171 -0.857143,-0.364583 -0.387359,-0.278265 -0.586466,-0.575231 -0.586466,-1.09375 0,-0.518519 0.271315,-1.1187443 0.699248,-1.5798614 0.213967,-0.2305583 0.468905,-0.4282998 0.721805,-0.5590279 z M 13,12.75 c 0.330955,0.07996 0.628272,0.200171 0.857143,0.364583 0.387359,0.278265 0.586466,0.575231 0.586466,1.09375 0,0.518519 -0.271315,1.118744 -0.699248,1.579861 C 13.524799,16.024783 13.259853,16.21618 13,16.347223 L 13,12.75 z" color="#000" fill="#fff" overflow="visible" enable-background="accumulate" font-family="Sans"/>
</svg>
