<?xml version="1.0" encoding="UTF-8" standalone="no"?>
<!-- Created with Inkscape (http://www.inkscape.org/) -->

<svg
   xmlns:dc="http://purl.org/dc/elements/1.1/"
   xmlns:cc="http://creativecommons.org/ns#"
   xmlns:rdf="http://www.w3.org/1999/02/22-rdf-syntax-ns#"
   xmlns:svg="http://www.w3.org/2000/svg"
   xmlns="http://www.w3.org/2000/svg"
   xmlns:sodipodi="http://sodipodi.sourceforge.net/DTD/sodipodi-0.dtd"
   xmlns:inkscape="http://www.inkscape.org/namespaces/inkscape"
   version="1.0"
   width="24"
   height="24"
   id="symbol-atm"
   inkscape:version="0.48.2 r9819"
   sodipodi:docname="atm.svg">
  <title
     id="title2983">ATM Map Icon</title>
  <metadata
     id="metadata10">
    <rdf:RDF>
      <cc:Work
         rdf:about="">
        <dc:format>image/svg+xml</dc:format>
        <dc:type
           rdf:resource="http://purl.org/dc/dcmitype/StillImage" />
        <dc:title>ATM Map Icon</dc:title>
        <dc:creator>
          <cc:Agent>
            <dc:title>Yury Melnichek</dc:title>
          </cc:Agent>
        </dc:creator>
      </cc:Work>
    </rdf:RDF>
  </metadata>
  <sodipodi:namedview
     pagecolor="#ffffff"
     bordercolor="#666666"
     borderopacity="1"
     objecttolerance="10"
     gridtolerance="10"
     guidetolerance="10"
     inkscape:pageopacity="0"
     inkscape:pageshadow="2"
     inkscape:window-width="1059"
     inkscape:window-height="716"
     id="namedview8"
     showgrid="true"
     inkscape:zoom="17.531842"
     inkscape:cx="10.71227"
     inkscape:cy="11.398954"
     inkscape:window-x="0"
     inkscape:window-y="0"
     inkscape:window-maximized="0"
     inkscape:current-layer="symbol-atm">
    <inkscape:grid
       type="xygrid"
       id="grid2985"
       empspacing="2"
       visible="true"
       enabled="true"
       snapvisiblegridlinesonly="true" />
  </sodipodi:namedview>
  <defs
     id="defs2387" />
  <path
     style="fill:#505050;fill-opacity:1;stroke:none"
     d="M 4,2 4,22 20,22 20,2 4,2 z m 2.59375,1 4.8125,0 C 12.29265,3 13,3.892 13,5 l 0,5 c 0,1.108 -0.70735,2 -1.59375,2 l -4.8125,0 C 5.70735,12 5,11.108 5,10 L 5,5 C 5,3.892 5.70735,3 6.59375,3 z M 14,4 l 1,0 0,1 -1,0 0,-1 z m 2,0 1,0 0,1 -1,0 0,-1 z m 2,0 1,0 0,1 -1,0 0,-1 z m -4,2 1,0 0,1 -1,0 0,-1 z m 2,0 1,0 0,1 -1,0 0,-1 z m 2,0 1,0 0,1 -1,0 0,-1 z m -4,2 1,0 0,1 -1,0 0,-1 z m 2,0 1,0 0,1 -1,0 0,-1 z m 2,0 1,0 0,1 -1,0 0,-1 z m -4,3 5,0 0,1 -5,0 0,-1 z m -6.46875,4 0.5,0 0.46875,0 1.53125,5 -1,0 L 8.71875,19 7.3125,19 7,20 l -0.96875,0 1.5,-5 z M 10,15 l 1,0 1,0 1,0 0,1 -1,0 0,4 -1,0 0,-4 -1,0 0,-1 z m 4,0 0.875,0 0.125,0 1,2 1,-2 1,0 0,5 -1,0 0,-3 -0.625,1.09375 -0.875,0 L 15,17.21875 15,20 14,20 14,15.5 14,15 z M 8,16.3125 7.625,18 8.40625,18 8,16.3125 z"
     id="rect2987"
     inkscape:connector-curvature="0" />
</svg>
