<svg xmlns="http://www.w3.org/2000/svg" width="18.64" viewBox="0 0 125 125" height="18.64">
    <path d="M 65,0.2965772 L 0,50 L 15,50 L 15,125 L 110,125 L 110,50 L 125,50 L 65,0.2965772 z" fill="#4d4d4d"/>
    <path d="M 62,102 C 57,102 43,100 44,91 C 45,82 55,87 62,88 L 62,75 C 54,73 44,67 44,56 C 44,45 54,38 62,38 C 62,32 62,30 65,30 C 68,30 68,32 68,38 C 74,38 88,40 85,47 C 82,54 73,51 68,50 L 68,63 C 77,65 87,71 87,82 C 87,93 78,102 68,102 C 68,108 68,110 65,110 C 62,110 62,108 62,102 z M 62,61 L 62,50 C 55,51 55,60 62,61 z M 68,77 L 68,88 C 75,87 75,78 68,77 z" fill="#fff"/>
</svg>
