<svg xmlns="http://www.w3.org/2000/svg" version="1" width="24" height="24" enable-background="new 0 0 99.801 100">
    <title>
        Bar Map Icon
    </title>
    <path d="M 57.862,-45.945"/>
    <path d="M 2 2 L 11 12 L 11 20 L 7 20 C 6.446 20 6 20.446 6 21 C 6 21.554 6.446 22 7 22 L 17 22 C 17.554 22 18 21.554 18 21 C 18 20.446 17.554 20 17 20 L 13 20 L 13 12 L 22 2 L 2 2 z M 4.6875 3 L 19.3125 3 L 16.59375 6 L 7.40625 6 L 4.6875 3 z M 13 8 C 13.552285 8 14 8.4477153 14 9 C 14 9.5522847 13.552285 10 13 10 C 12.447715 10 12 9.5522847 12 9 C 12 8.4477153 12.447715 8 13 8 z" fill="#4d4d4d"/>
</svg>
