<svg xmlns="http://www.w3.org/2000/svg" width="32" height="32" viewBox="0 0 350.5 350.49999" enable-background="new 0 0 566.93 566.93">
    <g transform="translate(-82.726 -11.221)">
        <polygon points="104.128,156.743 104.128,217 100.128,215 100.128,154.743" fill="#0084cb"/>
        <polygon points="147,154.743 151.564,156.743 104.128,156.743 100.128,154.743" fill="#00b3ea"/>
        <rect x="104.128" y="156.743" width="47.436" height="60.256" fill="#009edf"/>
    </g>
    <g>
        <path d="m 419.128,184.256 c 0,5.5 -4.5,10 -10,10 H 130.003 c -5.5,0 -10,-4.5 -10,-10 v -12.052 c 0,-5.5 4.5,-10 10,-10 h 279.125 c 5.5,0 10,4.5 10,10 v 12.052 z" fill="#fff" transform="translate(-82.726 -11.221)"/>
        <path d="m 419.128,184.256 c 0,5.5 -4.5,10 -10,10 H 130.003 c -5.5,0 -10,-4.5 -10,-10 v -12.052 c 0,-5.5 4.5,-10 10,-10 h 279.125 c 5.5,0 10,4.5 10,10 v 12.052 z" stroke="#ed1c24" stroke-width="3" fill="none" transform="translate(-82.726 -11.221)"/>
    </g>
    <g transform="translate(-82.726 -11.221)" fill="#ed1c24">
        <polygon points="190.563,193.25 161.625,193.25 193.125,161.75 221.5,161.75"/>
        <polygon points="139.938,193.25 125.25,193.25 120.003,184.247 142.5,161.75 170.875,161.75"/>
        <polygon points="240.563,193.25 211.625,193.25 243.125,161.75 271.5,161.75"/>
        <polygon points="290.688,193.25 261.75,193.25 293.25,161.75 321.625,161.75"/>
        <polygon points="340.188,193.25 311.25,193.25 342.75,161.75 371.125,161.75"/>
        <polygon points="390.688,193.25 361.75,193.25 393.25,161.75 410,161.75 417.064,166.394"/>
    </g>
</svg>
