<?xml version="1.0" encoding="UTF-8" standalone="no"?>
<!-- Created with Inkscape (http://www.inkscape.org/) -->
<svg
   xmlns:svg="http://www.w3.org/2000/svg"
   xmlns="http://www.w3.org/2000/svg"
   version="1.0"
   width="36"
   height="36"
   viewBox="0 0 435 435"
   id="symbol-baseball">
  <defs
     id="defs16" />
  <g
     transform="translate(67.279567,67.887125)"
     id="g3694">
    <g
       id="g3689">
      <path
         d="M 39.090816,260.90921 C 26.969728,248.7881 26.969728,224.54591 39.090816,212.42483 C 51.211907,200.30374 75.454099,200.30374 87.575173,212.42483 C 99.696269,224.54591 99.696269,248.7881 87.575173,260.90921 C 75.454099,273.03028 51.211907,273.03028 39.090816,260.90921 z"
         id="path2393"
         style="fill:#000000;fill-opacity:1;fill-rule:evenodd;stroke:none;stroke-width:0.93193001px;stroke-linecap:butt;stroke-linejoin:miter;stroke-opacity:1" />
      <path
         d="M 39.090816,212.42483 C 39.090816,212.42483 49.191725,220.50555 63.332998,220.50555 C 77.474263,220.50555 87.575173,212.42483 87.575173,212.42483"
         id="path3303"
         style="fill:none;fill-rule:evenodd;stroke:#ffffff;stroke-width:4.04036236;stroke-linecap:butt;stroke-linejoin:miter;stroke-miterlimit:4;stroke-dasharray:none;stroke-opacity:1" />
      <path
         d="M 39.090816,260.90921 C 39.090816,260.90921 49.191725,252.82847 63.332998,252.82847 C 77.474263,252.82847 87.575173,260.90921 87.575173,260.90921"
         id="path3367"
         style="fill:none;fill-rule:evenodd;stroke:#ffffff;stroke-width:4.04036236;stroke-linecap:butt;stroke-linejoin:miter;stroke-miterlimit:4;stroke-dasharray:none;stroke-opacity:1" />
    </g>
    <path
       d="M 238.67679,297.78461 C 248.21215,290.61173 251.97113,282.83338 249.0123,276.39766 C 247.18129,272.41504 203.85749,230.40681 157.77016,187.92619 C 148.73504,179.59814 132.75765,164.85972 122.26488,155.17413 C 92.598199,127.78968 80.911051,117.12713 57.924089,96.474078 C 29.971921,71.359939 20.516652,61.668152 20.516652,58.130914 C 20.516652,51.433175 13.549793,47.907691 7.0635109,51.323136 C -2.6972564,56.46281 -2.210698,72.179734 7.7091856,72.179734 C 10.699467,72.179734 21.829061,81.902202 34.363659,95.464252 C 37.247465,98.584446 46.163087,108.2609 54.176141,116.96749 C 62.189202,125.67407 78.019156,142.52739 89.353825,154.41931 C 100.68849,166.31123 123.41955,190.79371 139.86732,208.82483 C 156.31507,226.85595 182.39734,254.7509 197.8279,270.81362 C 225.88347,300.01855 225.88347,300.01855 230.82122,299.99903 C 235.04681,299.98232 236.17981,299.66293 238.67679,297.78461 z"
       id="path3446"
       style="fill:#000000" />
    <path
       d="M 136.05791,71.528011 C 136.05791,71.528011 110.08781,82.215411 102.10357,87.325323 C 95.378665,91.629253 93.583495,106.53683 119.94123,110.53921 C 146.29897,114.54161 151.99891,110.96493 172.06465,110.79351 C 180.90387,110.02643 182.23144,113.93417 180.95394,116.48911 L 174.74976,130.29911 C 170.12256,140.59888 177.8852,154.83116 185.86603,160.84728 C 191.64253,165.20174 205.85062,171.0294 221.0414,170.77702 C 235.34544,170.54182 247.07049,166.12689 258.70403,159.40385 C 270.33758,152.68082 287.99159,140.77787 295.29648,124.98796 C 302.60135,109.19805 299.03307,66.353803 297.02348,55.169076 C 294.95827,43.674832 283.84605,25.698909 273.94574,19.351554 C 264.18793,13.095551 254.89028,6.1239371 234.73327,1.9513782 C 214.51057,-2.2347839 197.24572,1.0522656 184.72733,4.3821967 C 172.2847,7.6919741 164.12616,12.703157 156.97115,17.175029 C 149.81617,21.646898 146.41793,27.339809 142.19703,37.378436 C 138.08997,47.146337 136.05791,71.528011 136.05791,71.528011 z M 213.9401,130.67313 C 211.1556,131.94632 208.90381,135.31321 208.97758,137.96949 C 209.0513,140.62273 210.64218,143.54476 212.71176,144.99562 C 214.78134,146.4465 217.14392,146.26288 220.42576,145.53609 C 223.6913,144.81294 231.23928,143.36434 233.79014,141.85107 C 236.37277,140.31895 237.90315,139.57213 238.82636,136.64288 C 239.74267,133.73555 237.91813,129.58958 235.0185,128.56038 C 232.1844,127.55446 228.44994,128.18583 223.80088,128.56798 C 219.65429,128.90883 216.69606,129.413 213.9401,130.67313 z"
       id="path3478"
       style="fill:#000000;fill-opacity:1;fill-rule:evenodd;stroke:#000000;stroke-width:0.44016922px;stroke-linecap:butt;stroke-linejoin:miter;stroke-opacity:1" />
  </g>
  <rect
     width="409.67169"
     height="392.53659"
     ry="31.721754"
     x="12.664154"
     y="21.231705"
     id="rect2471"
     style="fill:none;stroke:#000000;stroke-width:22.32826805;stroke-linejoin:round;stroke-miterlimit:4" />
</svg>
