<?xml version="1.0" encoding="UTF-8" standalone="no"?>
<!-- Created with Inkscape (http://www.inkscape.org/) -->
<svg
   xmlns:svg="http://www.w3.org/2000/svg"
   xmlns="http://www.w3.org/2000/svg"
   xmlns:xlink="http://www.w3.org/1999/xlink"
   version="1.0"
   width="25"
   height="24.5"
   viewBox="0 0 500 490"
   id="symbol-basketball-borderless">
  <defs
     id="defs2406" />
  <path
     d="M 13.386033,245.92457 C 13.386033,375.30651 117.95887,480.31215 246.80755,480.31215 C 375.65623,480.31215 480.22907,375.30651 480.22907,245.92457 C 480.22907,116.54262 375.65623,11.536978 246.80755,11.536978 C 117.95887,11.536978 13.386033,116.54262 13.386033,245.92457"
     id="path2414"
     style="fill:#ff7006;fill-opacity:1;fill-rule:evenodd;stroke:#000000;stroke-width:12;stroke-linecap:butt;stroke-linejoin:miter;stroke-miterlimit:4;stroke-dasharray:none;stroke-opacity:1" />
  <path
     d="M 308.33727,472.70925 C 324.73347,447.64803 307.98273,374.21025 298.69712,321.82618 C 290.55394,275.88711 278.7749,228.21056 264.94798,180.00715 C 251.17359,131.98686 217.8896,34.559203 178.43989,21.513022"
     id="path3187"
     style="fill:none;fill-rule:evenodd;stroke:#000000;stroke-width:10;stroke-linecap:butt;stroke-linejoin:miter;stroke-miterlimit:4;stroke-dasharray:none;stroke-opacity:1" />
  <g
     id="layer1">
    <path
       d="M 420.1881,88.973658 C 278.0067,-2.4855797 44.794483,94.605195 13.984163,247.11626"
       id="path3193"
       style="fill:none;fill-rule:evenodd;stroke:#000000;stroke-width:10;stroke-linecap:butt;stroke-linejoin:miter;stroke-miterlimit:4;stroke-dasharray:none;stroke-opacity:1;display:inline" />
  </g>
  <path
     d="M 462.86178,334.76893 C 463.60781,242.45369 390.80053,178.69185 355.73631,138.25712 C 320.05101,97.106179 257.67383,40.167003 275.41294,14.110951"
     id="path3196"
     style="fill:none;fill-rule:evenodd;stroke:#000000;stroke-width:10;stroke-linecap:butt;stroke-linejoin:miter;stroke-miterlimit:4;stroke-dasharray:none;stroke-opacity:1" />
  <path
     d="M 95.162113,67.658938 C 184.98125,51.415051 161.28059,148.83725 142.93824,225.32019 C 124.8125,300.89989 99.939723,367.69308 136.24959,452.73461"
     id="path3208"
     style="fill:none;fill-rule:evenodd;stroke:#000000;stroke-width:10;stroke-linecap:butt;stroke-linejoin:miter;stroke-miterlimit:4;stroke-dasharray:none;stroke-opacity:1" />
</svg>
