<?xml version="1.0" encoding="UTF-8" standalone="no"?>
<svg
   xmlns:svg="http://www.w3.org/2000/svg"
   xmlns="http://www.w3.org/2000/svg"
   version="1.0"
   width="16"
   height="16"
   id="symbol-bicycle-rental">
  <defs
     id="defs2477" />
  <g
     transform="matrix(0.2297763,-0.21971,0.21971,0.2297763,-15.777098,7.0450764)"
     id="g2467">
    <path
       d="M 57.120282,25.87914 C 57.120244,24.727187 56.712245,23.767188 55.896282,22.99914 C 55.128246,22.23119 54.168247,21.84719 53.016282,21.84714 C 51.91225,21.84719 50.952251,22.25519 50.136282,23.07114 C 49.368252,23.839188 48.984253,24.775187 48.984282,25.87914 C 48.984253,26.983185 49.368252,27.943184 50.136282,28.75914 C 50.952251,29.527183 51.91225,29.911182 53.016282,29.91114 C 54.168247,29.911182 55.128246,29.527183 55.896282,28.75914 C 56.712245,27.991184 57.120244,27.031185 57.120282,25.87914"
       id="path3555"
       style="font-size:72px;font-style:normal;font-variant:normal;font-weight:normal;font-stretch:normal;fill:#000000;fill-opacity:1;stroke:none;stroke-width:1px;stroke-linecap:butt;stroke-linejoin:miter;stroke-opacity:1;font-family:DNR Recreation Symbols;-inkscape-font-specification:DNR Recreation Symbols" />
    <path
       d="M 73.608282,55.32714 C 73.608228,52.30316 72.528229,49.735162 70.368282,47.62314 C 68.256233,45.463167 65.688236,44.383168 62.664282,44.38314 C 59.640242,44.383168 57.048245,45.463167 54.888282,47.62314 C 52.776249,49.735162 51.72025,52.30316 51.720282,55.32714 C 51.72025,58.351154 52.776249,60.943151 54.888282,63.10314 C 57.048245,65.215147 59.640242,66.271146 62.664282,66.27114 C 65.688236,66.271146 68.256233,65.215147 70.368282,63.10314 C 72.528229,60.943151 73.608228,58.351154 73.608282,55.32714"
       id="path3553"
       style="font-size:72px;font-style:normal;font-variant:normal;font-weight:normal;font-stretch:normal;fill:#000000;fill-opacity:1;stroke:none;stroke-width:1px;stroke-linecap:butt;stroke-linejoin:miter;stroke-opacity:1;font-family:DNR Recreation Symbols;-inkscape-font-specification:DNR Recreation Symbols" />
    <path
       d="M 59.640282,37.75914 C 59.640242,36.559176 59.064243,35.959176 57.912282,35.95914 L 53.088282,35.95914 L 49.488282,29.19114 C 48.912253,28.375184 48.120253,27.967184 47.112282,27.96714 C 46.056256,27.967184 45.264256,28.351184 44.736282,29.11914 L 36.960282,36.75114 C 36.336265,37.375175 36.024266,38.239174 36.024282,39.34314 C 36.024266,40.783171 36.480265,41.74317 37.392282,42.22314 L 46.176282,47.04714 L 46.104282,55.83114 C 46.104256,57.271155 46.824255,57.991154 48.264282,57.99114 C 49.752252,57.991154 50.496251,57.271155 50.496282,55.83114 L 50.496282,45.03114 C 50.496251,44.455168 50.232251,43.711168 49.704282,42.79914 L 43.800282,39.63114 L 48.552282,34.80714 L 50.568282,38.69514 C 50.856251,39.223173 51.36025,39.487173 52.080282,39.48714 L 57.840282,39.48714 C 59.040243,39.487173 59.640242,38.911173 59.640282,37.75914"
       id="path3551"
       style="font-size:72px;font-style:normal;font-variant:normal;font-weight:normal;font-stretch:normal;fill:#000000;fill-opacity:1;stroke:none;stroke-width:1px;stroke-linecap:butt;stroke-linejoin:miter;stroke-opacity:1;font-family:DNR Recreation Symbols;-inkscape-font-specification:DNR Recreation Symbols" />
    <path
       d="M 45.168282,55.32714 C 45.168256,52.30316 44.088258,49.735162 41.928282,47.62314 C 39.816262,45.463167 37.248264,44.383168 34.224282,44.38314 C 31.20027,44.383168 28.608273,45.463167 26.448282,47.62314 C 24.336277,49.735162 23.280278,52.30316 23.280282,55.32714 C 23.280278,58.351154 24.336277,60.943151 26.448282,63.10314 C 28.608273,65.215147 31.20027,66.271146 34.224282,66.27114 C 37.248264,66.271146 39.816262,65.215147 41.928282,63.10314 C 44.088258,60.943151 45.168256,58.351154 45.168282,55.32714"
       id="path3549"
       style="font-size:72px;font-style:normal;font-variant:normal;font-weight:normal;font-stretch:normal;fill:#000000;fill-opacity:1;stroke:none;stroke-width:1px;stroke-linecap:butt;stroke-linejoin:miter;stroke-opacity:1;font-family:DNR Recreation Symbols;-inkscape-font-specification:DNR Recreation Symbols" />
    <path
       d="M 71.520282,55.32714 C 71.52023,57.775154 70.656231,59.863152 68.928282,61.59114 C 67.200234,63.319149 65.112237,64.183148 62.664282,64.18314 C 60.216241,64.183148 58.128243,63.319149 56.400282,61.59114 C 54.672247,59.863152 53.808248,57.775154 53.808282,55.32714 C 53.808248,52.879159 54.672247,50.791161 56.400282,49.06314 C 58.128243,47.335165 60.216241,46.471166 62.664282,46.47114 C 65.112237,46.471166 67.200234,47.335165 68.928282,49.06314 C 70.656231,50.791161 71.52023,52.879159 71.520282,55.32714"
       id="path3547"
       style="font-size:72px;font-style:normal;font-variant:normal;font-weight:normal;font-stretch:normal;fill:#ffffff;fill-opacity:1;stroke:none;stroke-width:1px;stroke-linecap:butt;stroke-linejoin:miter;stroke-opacity:1;font-family:DNR Recreation Symbols;-inkscape-font-specification:DNR Recreation Symbols" />
    <path
       d="M 43.080282,55.32714 C 43.080259,57.775154 42.216259,59.863152 40.488282,61.59114 C 38.760263,63.319149 36.672265,64.183148 34.224282,64.18314 C 31.77627,64.183148 29.688272,63.319149 27.960282,61.59114 C 26.232275,59.863152 25.368276,57.775154 25.368282,55.32714 C 25.368276,52.879159 26.232275,50.791161 27.960282,49.06314 C 29.688272,47.335165 31.77627,46.471166 34.224282,46.47114 C 36.672265,46.471166 38.760263,47.335165 40.488282,49.06314 C 42.216259,50.791161 43.080259,52.879159 43.080282,55.32714"
       id="text3540"
       style="font-size:72px;font-style:normal;font-variant:normal;font-weight:normal;font-stretch:normal;fill:#ffffff;fill-opacity:1;stroke:none;stroke-width:1px;stroke-linecap:butt;stroke-linejoin:miter;stroke-opacity:1;font-family:DNR Recreation Symbols;-inkscape-font-specification:DNR Recreation Symbols" />
  </g>
  <path
     d="M 7.4758621,9.9693176 C 7.2672762,9.8923866 7.0964376,9.7331476 6.1948997,8.7753276 C 5.6382224,8.1838972 5.1672414,7.7017262 5.1482759,7.7038359 C 5.1293103,7.7059455 4.4008659,7.8977276 3.52951,8.1300186 C 1.79637,8.5920486 1.7791414,8.5945621 1.4958955,8.4266379 C 1.3059193,8.3140086 1.0167497,8.0106276 0.91833345,7.8206897 C 0.80732483,7.606449 0.80340483,7.3988921 0.87102517,5.3157272 C 0.92396,3.6849817 0.93286034,3.5524014 0.99801897,3.4241379 C 1.160301,3.1046876 1.479869,2.8896552 1.7923341,2.8896552 C 1.9291738,2.8896552 2.26017,2.9832672 3.1528652,3.274439 L 4.3325621,3.6592231 L 4.9227014,3.0934048 C 5.5361886,2.5052 5.7009114,2.3915617 5.8863028,2.42864 C 6.0202752,2.4554345 6.2799152,2.6806269 6.3377103,2.8201572 C 6.3964359,2.9619317 6.3627034,3.1780624 6.2636669,3.2945748 C 6.1316576,3.4498786 4.8267279,4.6911841 4.7248362,4.7583772 C 4.5729803,4.8585197 4.4167321,4.8332097 3.7194193,4.5955159 C 3.3560979,4.4716697 3.0440462,4.3794824 3.0259697,4.3906541 C 3.0062797,4.4028234 2.9931034,4.8396421 2.9931034,5.4802207 C 2.9931034,6.4943962 2.9963024,6.5484597 3.0552062,6.5297645 C 3.4051393,6.4186997 4.9963662,5.9936262 5.0630417,5.9933997 C 5.110991,5.9932372 5.2584045,6.0453514 5.3906279,6.1092097 C 5.6163062,6.2182028 5.707039,6.3050583 6.871611,7.5269 C 7.5539283,8.2427714 8.1472783,8.8760469 8.1901666,8.934179 C 8.3501214,9.1509855 8.3277707,9.4171341 8.1294707,9.6569307 C 7.9570672,9.8654117 7.6247603,10.024235 7.4758621,9.9693176 z"
     id="path2387"
     style="fill:#0000ff" />
  <path
     d="M 3.6765952,15.668049 C 2.366769,15.43556 1.2938417,14.473846 0.90390621,13.182759 C 0.81865345,12.900483 0.80987138,12.819394 0.80681207,12.286207 C 0.80392655,11.78337 0.81453862,11.656466 0.88142793,11.393897 C 1.0358531,10.787712 1.341529,10.258148 1.8003476,9.8019269 C 2.2621741,9.3427145 2.7530586,9.0535628 3.3355231,8.8976431 C 3.6273297,8.819529 3.7313583,8.8093931 4.2344828,8.8100486 C 4.7318597,8.8106969 4.8447159,8.8217476 5.1314303,8.8978741 C 5.6839124,9.0445666 6.0951972,9.2621331 6.4932021,9.6182424 C 7.1369062,10.194188 7.5068845,10.831238 7.6521528,11.613793 C 7.71175,11.934842 7.7017072,12.645506 7.6330048,12.968782 C 7.3647434,14.231076 6.3175193,15.306671 5.0570731,15.614502 C 4.6823434,15.70602 4.0325252,15.731226 3.6765952,15.66805 L 3.6765952,15.668049 z M 4.7977059,15.012525 C 5.8967162,14.802249 6.7907041,13.914894 7.0140531,12.812621 C 7.0924207,12.425862 7.0658334,11.761601 6.9584783,11.424138 C 6.7883762,10.889435 6.4315583,10.35946 6.019689,10.029772 C 5.7503228,9.8141521 5.25426,9.5635714 4.9586207,9.4937838 C 4.2665797,9.3304224 3.5596407,9.4090879 2.9540083,9.7168479 C 2.2752948,10.061746 1.7027938,10.765711 1.5052645,11.49827 C 1.4070938,11.862348 1.3990834,12.593533 1.4896479,12.923822 C 1.7296817,13.799223 2.3487745,14.519136 3.1482759,14.852557 C 3.6318814,15.054238 4.2608659,15.115239 4.7977059,15.012524 L 4.7977059,15.012525 z"
     id="path2389"
     style="fill:#0000ff" />
  <path
     d="M 10.336386,9.4379497 C 9.2125272,9.2925979 8.1753279,8.5387628 7.6522734,7.4871403 C 7.1910397,6.5598128 7.2105379,5.358201 7.7022676,4.4061217 C 8.133751,3.5706897 8.9847931,2.8792193 9.8724138,2.6428797 C 10.238042,2.5455269 11.188902,2.532281 11.562639,2.6193345 C 12.173221,2.7615555 12.6821,3.0375234 13.145552,3.4777572 C 13.924127,4.2173272 14.275297,5.0967559 14.224473,6.1796807 C 14.185022,7.0202917 13.894291,7.7107031 13.317363,8.3338383 C 12.537297,9.1763814 11.444246,9.5812328 10.336386,9.4379497 L 10.336386,9.4379497 z M 11.24512,8.7822817 C 11.874232,8.6848428 12.402406,8.3916186 12.87746,7.8760614 C 13.562754,7.1323386 13.785149,6.0540986 13.456618,5.0681166 C 13.155412,4.1641403 12.305854,3.4134559 11.365247,3.2201421 C 10.239638,2.9888069 9.0939717,3.4488914 8.4400124,4.3948769 C 8.0767772,4.9203155 7.9389055,5.4263369 7.9676648,6.1285031 C 7.9946528,6.7874103 8.1598903,7.2353031 8.5649928,7.7476124 C 9.2058769,8.5581007 10.204191,8.9435024 11.245119,8.7822814 L 11.24512,8.7822817 z"
     id="path2391"
     style="fill:#0000ff" />
  <path
     d="M 1.7387583,2.5594193 C 1.3844328,2.4462645 1.1110107,2.2033845 0.94688483,1.856001 C 0.85562276,1.66284 0.84164138,1.5953366 0.84332103,1.356001 C 0.84585724,0.99455586 0.93990379,0.74652517 1.1697928,0.49499 C 1.3732486,0.27237724 1.6713938,0.11155069 1.9436976,0.077528621 C 2.1671986,0.049604138 2.4997186,0.10662 2.6953141,0.20640517 C 2.8956662,0.30861759 3.1573903,0.58833414 3.2624769,0.81255897 C 3.3422555,0.98278345 3.3549162,1.053591 3.3533338,1.3206897 C 3.3517955,1.5802293 3.3366669,1.6633131 3.2609179,1.8282093 C 2.9914148,2.4148831 2.3104645,2.7419959 1.7387583,2.5594193 z"
     id="path2393"
     style="fill:#0000ff" />
</svg>
