<?xml version="1.0" encoding="UTF-8" standalone="no"?>
<!-- Created with Inkscape (http://www.inkscape.org/) -->
<svg
   xmlns:svg="http://www.w3.org/2000/svg"
   xmlns="http://www.w3.org/2000/svg"
   version="1.0"
   width="16"
   height="16"
   id="symbol-bird">
  <defs
     id="defs3341" />
  <g
     id="g3129">
    <rect
       width="16"
       height="16"
       x="-0.073563218"
       y="0.036781609"
       style="fill:#c7f1a3;fill-opacity:1;stroke:none;stroke-width:0;stroke-miterlimit:4;stroke-dasharray:none;stroke-opacity:1"
       id="rect2158" />
    <path
       d="M 10.291648,10.6739 C 9.8568485,10.26695 9.141758,10.0331 8.711683,9.8611505 C 7.9484035,9.8311505 7.511643,9.8042005 6.8842125,9.5406505 C 6.4365055,9.5824505 6.045705,9.7243505 5.814369,10.0643 C 6.3784825,9.9457005 6.6854945,10.00955 6.9697355,10.44715 C 7.01647,10.5264 7.018352,10.53115 6.9985945,10.52 C 6.695604,10.38205 6.1663205,10.01725 5.787972,10.1333 C 5.2219095,9.9639505 5.072392,10.2987 4.8166119,10.63005 L 4.7506281,10.32155 C 4.5413822,10.3623 4.3806752,10.49575 4.1779141,10.55365 C 4.8452469,9.9696505 5.844733,9.7455005 6.717884,9.4401505 C 6.322932,9.1607005 5.9241325,9.0806005 5.430826,9.0515505 C 5.2533745,9.0456005 5.1884715,9.0590005 5.1175865,9.1161005 C 4.965095,9.2195505 4.9294111,9.4763005 4.817127,9.5859005 C 4.7660172,9.4932005 4.8525216,9.3367005 4.7597417,9.2956505 C 4.5655792,9.2901505 4.3718041,9.4543505 4.1805749,9.5102505 C 4.3595802,9.0417505 5.155623,9.0479005 5.5926105,8.8758505 C 4.9838033,8.5758505 4.3963709,8.2478505 3.8401712,7.8797505 C 2.6148202,7.0590505 1.9210904,5.9154005 1.9237271,4.5844505 C 1.9385081,4.2905505 1.959948,4.1303005 2.0627278,3.5453505 C 2.1273531,3.1775505 2.1318007,3.1400005 2.1264762,3.0075005 C 2.1152461,2.7280005 2.0369996,2.5419505 1.762123,2.1410005 C 1.5823325,1.8787005 1.4937322,1.7320505 1.4336612,1.5972005 C 1.4152416,1.5558505 1.4044683,1.5400005 1.3919162,1.5358005 C 1.382611,1.5326505 1.275733,1.5301005 1.1544093,1.5300505 C 0.62432605,1.5298505 0.33957278,1.5075505 0.086899765,1.4466005 L 0,1.4256005 L 0.05771199,1.3841505 C 0.22636968,1.2629005 0.44263471,1.2073005 0.9593986,1.1523005 C 1.1595541,1.1309505 1.2010235,1.1210505 1.2540862,1.0820005 C 1.3218174,1.0321005 1.3981031,0.91470046 1.4969389,0.70830046 C 1.5734819,0.54840046 1.5889315,0.52515046 1.6593008,0.46355046 C 1.8222327,0.32090046 2.044632,0.21220046 2.3479005,0.12700046 C 2.6539081,0.041050464 2.9587735,0.00015046356 3.2942743,4.635608e-07 C 3.7252748,-0.00019953644 4.00638,0.064300464 4.2771876,0.22540046 C 4.8938312,0.57025046 5.280662,1.0720005 5.6672375,1.5964505 C 6.15611,2.2887005 6.7317105,2.9306005 7.256694,3.6020005 C 8.2925135,4.9134005 8.9135725,6.4226005 9.756456,7.8213505 C 11.401243,10.6983 14.90315,12.5894 16,15.69645 C 15.97815,15.80885 15.964061,15.906 15.960647,15.96785 L 15.958874,16 C 14.289035,14.2067 12.105412,12.1952 10.291648,10.6739 z "
       style="fill:#000000"
       id="path3347" />
  </g>
</svg>
