<svg xmlns="http://www.w3.org/2000/svg" version="1" width="24" height="24">
    <title>
        Birds Park Map Icon
    </title>
    <g>
        <path d="M -1.5560836,6.6082327 C -2.8228262,5.3050126 -2.7953466,5.0382957 -3.478862,4.0323588 -3.8203472,3.6064401 -4.2805402,2.0419564 -4.1348979,1.4870513 -2.3093273,3.087641 -0.31427886,5.636444 1.5807833,5.7990076 3.318108,5.5637745 4.5593833,3.2962301 5.6809401,3.3507424 c 0.8986607,0 1.6135586,0.44511 1.9018797,1.3614767 L 9.85978,5.2882015 C 8.9705893,5.7657298 8.5214102,5.7660746 7.6322195,6.2436029 6.9726862,8.4187052 5.2929583,10.617447 2.9392689,10.837754 1.2141556,10.824215 -0.10356506,10.42219 -1.3090862,8.5900782 -1.8003687,7.7173541 -1.7866095,6.8446299 -1.5560836,5.9719058" fill="#4d4d4d" transform="matrix(1.524 0 0 1.572 7.303 -.337)"/>
        <path d="m 0.25,12.75 -0.46875,0.375 c 0.46241486,0.58865 0.86530691,1.022172 0.875,2.375 l 0.59375,0 c -0.010633,-1.484004 -0.54405818,-2.16959 -1,-2.75 z m 0.09375,-0.125 c -0.80697666,-0.05044 -1.632415,0.0575 -2.4375,0.28125 l 0.1875,0.5625 c 0.7427654,-0.20643 1.47787632,-0.265054 2.21875,-0.21875 0.7042713,0.156331 1.24078,0.467268 1.9702513,1.78125 L 2.7893016,14.675901 C 1.9770564,13.21282 1.2093514,12.829554 0.375,12.65625 l 0,-0.03125 z m 0.5625,-2.5 L 0,12.96875 0.5625,13.15625 1.46875,10.3125 z" style="text-indent:0;text-align:start;line-height:normal;text-transform:none;block-progression:tb;-inkscape-font-specification:Sans" color="#000" fill="#4d4d4d" overflow="visible" enable-background="accumulate" font-family="Sans" transform="matrix(1.524 0 0 1.572 7.303 -.337)"/>
        <path style="text-indent:0;text-align:start;line-height:normal;text-transform:none;block-progression:tb;-inkscape-font-specification:Sans" d="M 3.1575746,12.375164 2.808918,12.855003 c 0.5885208,0.453502 1.0810391,0.771899 1.435393,2.077528 L 4.8071362,14.784014 C 4.4184227,13.351786 3.7378571,12.822318 3.1575746,12.375164 z m 0.056974,-0.144313 c -0.7778155,0.153082 -1.1622253,-0.03008 -1.8682897,0.387647 l 0.3706521,0.472283 c 0.6514099,-0.385388 0.9133801,-0.107253 1.6274803,-0.247799 0.7074769,-0.02501 1.4124422,0.110551 2.4391741,1.198579 L 6.2153865,13.636736 C 5.0721502,12.425249 4.0872569,12.212119 3.2521444,12.25325 l -0.00797,-0.03022 -0.029622,0.0078 z M 3.1098919,9.6728939 2.9764084,12.649208 3.5574505,12.689802 3.690934,9.713488 z" color="#000" fill="#4d4d4d" overflow="visible" enable-background="accumulate" font-family="Sans" transform="matrix(1.524 0 0 1.572 7.303 -.337)"/>
        <path transform="matrix(.855 0 0 .994 11.183 2.335)" d="m 6.6442301,4.8604174 c 0,0.4638038 -0.4533964,0.8397911 -1.0126893,0.8397911 -0.5592929,0 -1.0126894,-0.3759873 -1.0126894,-0.8397911 0,-0.4638039 0.4533965,-0.8397912 1.0126894,-0.8397912 0.5592929,0 1.0126893,0.3759873 1.0126893,0.8397912 z" fill="#fff"/>
    </g>
</svg>
