<svg xmlns="http://www.w3.org/2000/svg" width="24" height="24" viewBox="0 0 51.502147 51.502147">
    <title>
        Bus Stop Map Icon
    </title>
    <rect ry="6.867" rx="6.867" y="8.584" x="8.607" height="34.335" width="34.335" fill="#f2f2f2"/>
    <rect width="30.043" height="30.043" x="10.753" y="10.73" rx="6.009" ry="6.009" fill="#003cd8"/>
    <path d="m 25.436741,14.892863 c -0.287299,0.0012 -0.575784,0.01362 -0.869531,0.04948 -2.068508,0.165377 -4.852801,0.846691 -5.969216,1.805672 -1.328143,1.140854 -1.104199,2.242123 -1.692061,8.088422 l -0.02349,0.915202 0,8.583126 1.316048,0 0,1.014143 c 10e-4,0.06752 0,0.233519 0,0.272089 0,0.771396 0.583147,1.409906 1.316048,1.409906 0.732898,0 1.339547,-0.63851 1.339547,-1.409906 0,-0.05892 -10e-4,-0.191245 0,-0.272089 0.0024,-0.183735 -3.85e-4,-0.358373 0,-0.618379 l 0,-0.395764 3.713135,0 1.762563,0 3.713135,0 0,0.395764 c 3.85e-4,0.260006 -0.0024,0.434644 0,0.618379 10e-4,0.08085 0,0.213158 0,0.272089 0,0.771396 0.606649,1.409906 1.339547,1.409906 0.732902,0 1.316049,-0.63851 1.316049,-1.409906 0,-0.03857 -10e-4,-0.204571 0,-0.272089 l 0,-1.014143 1.316047,0 0,-8.583126 -0.02349,-0.915202 C 33.403206,18.990139 33.62715,17.88887 32.299006,16.74802 c -1.120542,-0.962528 -3.898383,-1.643623 -5.969214,-1.805673 -0.319616,-0.04102 -0.605733,-0.05075 -0.893033,-0.04948 z m -3.125612,1.756201 6.274726,0 c 0.309494,0 0.54052,0.24316 0.54052,0.56891 0,0.325752 -0.231026,0.593645 -0.54052,0.593645 l -6.274726,0 c -0.309494,0 -0.54052,-0.267893 -0.54052,-0.593645 0,-0.32575 0.231026,-0.56891 0.54052,-0.56891 z m -2.796602,2.201436 5.076184,0 1.71556,0 5.052684,0 c 0.416624,0 0.707426,0.355541 0.752027,0.791527 l 0.56402,5.318075 c 0.0446,0.435986 -0.335403,0.791525 -0.752026,0.791525 l -5.616705,0 -1.71556,0 -5.616703,0 c -0.416623,0 -0.82013,-0.355539 -0.775528,-0.791525 l 0.564021,-5.318075 c 0.0446,-0.435986 0.335403,-0.791527 0.752026,-0.791527 z m 0,10.017767 c 0.7329,0 1.339549,0.613776 1.339549,1.385173 0,0.771397 -0.606649,1.409907 -1.339549,1.409907 -0.7329,0 -1.316047,-0.63851 -1.316047,-1.409907 0,-0.771397 0.583147,-1.385173 1.316047,-1.385173 z m 11.867929,0 c 0.732901,0 1.316048,0.613776 1.316048,1.385173 0,0.771397 -0.583147,1.409907 -1.316048,1.409907 -0.732901,0 -1.316049,-0.63851 -1.316049,-1.409907 0,-0.771397 0.583148,-1.385173 1.316049,-1.385173 z" fill="#fff"/>
</svg>
