<?xml version="1.0" encoding="UTF-8"?>
<svg xmlns:xs="http://www.w3.org/2001/XMLSchema" xmlns:xlink="http://www.w3.org/1999/xlink" xmlns:inkscape="http://www.inkscape.org/namespaces/inkscape" xmlns:rdf="http://www.w3.org/1999/02/22-rdf-syntax-ns#" xmlns="http://www.w3.org/2000/svg" xmlns:svg="http://www.w3.org/2000/svg" xmlns:xi="http://www.w3.org/2001/XInclude" xmlns:cc="http://web.resource.org/cc/" xmlns:dc="http://purl.org/dc/elements/1.1/" version="1.1" baseProfile="full" width="27.96" height="27.96" id="symbol-bus" viewBox="0 0 60 60">
   <svg:g transform="translate(6,20)">
                <svg:path style="fill:blue;stroke:#000000;stroke-width:0.33102515" d="M 2.2521668,0.37432812 C 16.5855,0.37432812 30.918834,0.37432812 45.252168,0.37432812 C 46.355969,1.6734629 46.462793,3.586312 46.948398,5.196193 C 47.576853,8.2837404 48.414233,11.387465 48.252167,14.563593 C 48.236441,15.635583 48.542361,17.557849 46.939414,17.374328 C 32.043665,17.374328 17.147916,17.374328 2.2521668,17.374328 C 0.65875368,17.30455 0.27106428,15.753005 0.2698071,14.227706 C 0.29303084,10.212217 0.1028761,6.2414586 0.23632812,2.1693926 C 0.39484947,1.3347273 1.358163,0.37476685 2.2521668,0.37432812 z "/>
                <svg:path style="fill:blue;stroke:#ffffff;stroke-width:0.75587374" d="M 38.812165,16.734328 C 38.920431,18.865451 36.087926,20.19296 34.514352,18.757021 C 32.815686,17.495237 33.558848,14.486315 35.653279,14.167433 C 37.225591,13.803144 38.854105,15.116219 38.812165,16.734328 z "/>
                <svg:path style="fill:blue;stroke:#ffffff;stroke-width:0.75587374" d="M 15.912166,16.734328 C 16.020431,18.865452 13.187925,20.19296 11.614351,18.757021 C 9.9156863,17.495236 10.658848,14.486315 12.753279,14.167433 C 14.325591,13.803145 15.954103,15.116219 15.912166,16.734328 z "/>
                <svg:path style="fill:#ffffff;stroke:#000000;stroke-width:0.35478419" d="M 36.357025,1.5513395 C 39.305684,1.5513395 40.910594,1.5513395 43.859255,1.5513395 C 44.243739,1.5513395 44.590387,1.6719809 44.715165,1.9230441 C 45.570116,3.6432751 45.6451,5.7562027 46.029437,7.6473997 C 46.245197,8.9459032 46.072777,9.4244981 44.672637,9.4157048 C 41.844185,9.4192225 39.029953,9.3974155 36.281062,9.3974155 C 35.798111,9.3974155 35.537058,8.9607427 35.537058,8.6449215 C 35.562562,6.3521575 35.570716,3.8641786 35.570716,2.2653878 C 35.570716,1.9157124 35.854648,1.5513395 36.357025,1.5513395 z "/>
                <svg:rect ry="0.60000002" y="1.54375" x="13.25" height="7.875" width="10" style="fill:#ffffff;fill-opacity:1;stroke:#000000;stroke-width:0.34999999"/>
                <svg:rect ry="0.60000002" y="1.54375" x="1.9375" height="7.875" width="10" style="fill:#ffffff;stroke:#000000;stroke-width:0.34999999"/>
                <svg:rect ry="0.60000002" y="1.55" x="24.4375" height="7.875" width="10" style="fill:#ffffff;stroke:#000000;stroke-width:0.34999999"/>
            </svg:g>
</svg>