<?xml version="1.0" encoding="UTF-8" standalone="no"?>
<svg
   xmlns:dc="http://purl.org/dc/elements/1.1/"
   xmlns:cc="http://creativecommons.org/ns#"
   xmlns:rdf="http://www.w3.org/1999/02/22-rdf-syntax-ns#"
   xmlns:svg="http://www.w3.org/2000/svg"
   xmlns="http://www.w3.org/2000/svg"
   xmlns:sodipodi="http://sodipodi.sourceforge.net/DTD/sodipodi-0.dtd"
   xmlns:inkscape="http://www.inkscape.org/namespaces/inkscape"
   version="1.1"
   width="24"
   height="24"
   id="symbol-bus"
   viewBox="0 0 51.502147 51.502147"
   inkscape:version="0.48.2 r9819"
   sodipodi:docname="bus.svg">
  <title
     id="title2983">Bus Stop Map Icon</title>
  <metadata
     id="metadata23">
    <rdf:RDF>
      <cc:Work
         rdf:about="">
        <dc:format>image/svg+xml</dc:format>
        <dc:type
           rdf:resource="http://purl.org/dc/dcmitype/StillImage" />
        <dc:title>Bus Stop Map Icon</dc:title>
        <dc:creator>
          <cc:Agent>
            <dc:title>Yury Melnichek</dc:title>
          </cc:Agent>
        </dc:creator>
        <dc:source>mapsforhumans.com</dc:source>
      </cc:Work>
    </rdf:RDF>
  </metadata>
  <defs
     id="defs21" />
  <sodipodi:namedview
     pagecolor="#ffffff"
     bordercolor="#666666"
     borderopacity="1"
     objecttolerance="10"
     gridtolerance="10"
     guidetolerance="10"
     inkscape:pageopacity="0"
     inkscape:pageshadow="2"
     inkscape:window-width="876"
     inkscape:window-height="731"
     id="namedview19"
     showgrid="true"
     showguides="true"
     inkscape:guide-bbox="true"
     inkscape:zoom="19.136028"
     inkscape:cx="-3.068839"
     inkscape:cy="11.681623"
     inkscape:window-x="0"
     inkscape:window-y="0"
     inkscape:window-maximized="0"
     inkscape:current-layer="symbol-bus">
    <inkscape:grid
       type="xygrid"
       id="grid2985"
       empspacing="2"
       visible="true"
       enabled="true"
       snapvisiblegridlinesonly="true" />
  </sodipodi:namedview>
  <rect
     ry="9.4420605"
     rx="9.4420605"
     y="2.1459229"
     x="2.1459229"
     height="47.2103"
     width="47.2103"
     id="rect2995"
     style="fill:#f2f2f2;fill-opacity:1;stroke:none" />
  <rect
     style="fill:#003cd8;fill-opacity:1;stroke:none"
     id="rect2993"
     width="20"
     height="20"
     x="2"
     y="2"
     transform="scale(2.1459228,2.1459228)"
     rx="4"
     ry="4" />
  <path
     style="fill:#ffffff;fill-opacity:1;stroke:none"
     d="m 25.733857,10.319543 c -0.420925,0.0019 -0.843587,0.01938 -1.273958,0.07043 -3.030592,0.235453 -7.109885,1.205459 -8.745557,2.570788 -1.945872,1.624268 -1.617772,3.192176 -2.479054,11.515721 l -0.03443,1.303002 0,12.220044 1.928155,0 0,1.443866 c 0.0016,0.09613 0,0.332466 0,0.387379 0,1.09826 0.854373,2.007326 1.928153,2.007326 1.073778,0 1.962584,-0.909066 1.962584,-2.007326 0,-0.08389 -0.0015,-0.27228 0,-0.387379 0.0035,-0.261589 -5.63e-4,-0.510227 0,-0.880406 l 0,-0.56346 5.44015,0 2.582348,0 5.440149,0 0,0.56346 c 5.66e-4,0.370179 -0.0035,0.618817 0,0.880406 0.0015,0.115099 0,0.303479 0,0.387379 0,1.09826 0.888807,2.007326 1.962585,2.007326 1.073781,0 1.928155,-0.909066 1.928155,-2.007326 0,-0.05491 -0.0016,-0.291252 0,-0.387379 l 0,-1.443866 1.928154,0 0,-12.220044 -0.03443,-1.303002 C 37.405579,16.152939 37.73368,14.585031 35.787806,12.960768 34.146089,11.59039 30.076247,10.620694 27.042251,10.38998 26.573979,10.33157 26.154788,10.31771 25.733861,10.31955 z m -4.579365,2.500354 9.193162,0 c 0.453443,0 0.791921,0.346194 0.791921,0.809974 0,0.463782 -0.338478,0.84519 -0.791921,0.84519 l -9.193162,0 c -0.453443,0 -0.79192,-0.381408 -0.79192,-0.84519 0,-0.46378 0.338477,-0.809974 0.79192,-0.809974 z m -4.097327,3.134248 7.437165,0 2.513485,0 7.402734,0 c 0.6104,0 1.036458,0.506194 1.101803,1.12692 l 0.826351,7.571497 c 0.06535,0.620727 -0.491403,1.126919 -1.101801,1.126919 l -8.229087,0 -2.513485,0 -8.229085,0 c -0.610399,0 -1.20158,-0.506192 -1.136234,-1.126919 l 0.826351,-7.571497 c 0.06535,-0.620726 0.491403,-1.12692 1.101803,-1.12692 z m 0,14.262585 c 1.073779,0 1.962585,0.873851 1.962585,1.972112 0,1.098259 -0.888806,2.007325 -1.962585,2.007325 -1.07378,0 -1.928154,-0.909066 -1.928154,-2.007325 0,-1.098261 0.854374,-1.972112 1.928154,-1.972112 z m 17.387816,0 c 1.07378,0 1.928155,0.873851 1.928155,1.972112 0,1.098259 -0.854375,2.007325 -1.928155,2.007325 -1.073779,0 -1.928154,-0.909066 -1.928154,-2.007325 0,-1.098261 0.854375,-1.972112 1.928154,-1.972112 z"
     id="path3057"
     inkscape:connector-curvature="0" />
</svg>
