<?xml version="1.0" encoding="UTF-8" standalone="no"?>
<svg
   xmlns:dc="http://purl.org/dc/elements/1.1/"
   xmlns:cc="http://creativecommons.org/ns#"
   xmlns:rdf="http://www.w3.org/1999/02/22-rdf-syntax-ns#"
   xmlns:svg="http://www.w3.org/2000/svg"
   xmlns="http://www.w3.org/2000/svg"
   xmlns:sodipodi="http://sodipodi.sourceforge.net/DTD/sodipodi-0.dtd"
   xmlns:inkscape="http://www.inkscape.org/namespaces/inkscape"
   version="1.1"
   width="37.28"
   id="symbol-shelter"
   viewBox="0 0 12 12"
   height="37.28"
   sodipodi:version="0.32"
   inkscape:version="0.47 r22583"
   sodipodi:docname="cannon.svg">
  <metadata
     id="metadata38">
    <rdf:RDF>
      <cc:Work
         rdf:about="">
        <dc:format>image/svg+xml</dc:format>
        <dc:type
           rdf:resource="http://purl.org/dc/dcmitype/StillImage" />
      </cc:Work>
    </rdf:RDF>
  </metadata>
  <defs
     id="defs36">
    <inkscape:perspective
       sodipodi:type="inkscape:persp3d"
       inkscape:vp_x="0 : 18.639999 : 1"
       inkscape:vp_y="0 : 1000 : 0"
       inkscape:vp_z="37.279999 : 18.639999 : 1"
       inkscape:persp3d-origin="18.639999 : 12.426666 : 1"
       id="perspective11" />
    <inkscape:perspective
       id="perspective2825"
       inkscape:persp3d-origin="0.5 : 0.33333333 : 1"
       inkscape:vp_z="1 : 0.5 : 1"
       inkscape:vp_y="0 : 1000 : 0"
       inkscape:vp_x="0 : 0.5 : 1"
       sodipodi:type="inkscape:persp3d" />
  </defs>
  <sodipodi:namedview
     inkscape:window-height="863"
     inkscape:window-width="1009"
     inkscape:pageshadow="2"
     inkscape:pageopacity="0.0"
     guidetolerance="10.0"
     gridtolerance="10.0"
     objecttolerance="10.0"
     borderopacity="1.0"
     bordercolor="#666666"
     pagecolor="#ffffff"
     id="base"
     inkscape:zoom="14.339397"
     inkscape:cx="17.774927"
     inkscape:cy="15.969733"
     inkscape:window-x="0"
     inkscape:window-y="22"
     inkscape:current-layer="symbol-shelter"
     showgrid="false"
     inkscape:window-maximized="0" />
  <path
     d="m 1.2052385,7.4832392 -0.198302,0 0,-0.3645544 0.198302,0 0,-2.3150049 1.2486362,0 0,2.3149282 1.8746066,0 0.4255542,-5.8044539 c 0,0 0,-0.34591944 -0.3987174,-0.61128765 l 3.2079831,0 C 7.1377473,0.98379112 7.166699,1.3141542 7.166699,1.3141542 l 0.4255544,5.8044539 1.8724915,0 0,-2.3150051 1.2518081,0 0,2.3150051 0.226328,0 0,0.364554 -0.226328,0 0,2.281969 -1.2518081,0 0,-2.281969 -1.8447292,0 0.1714636,2.0996918 c 0.083684,0.7941801 -1.0492768,0.9595931 -1.6194586,0.9920901 0.255148,0.04998 0.3718808,0.182278 0.3987174,0.314653 0.027895,0.198526 -0.3139768,0.413917 -0.5970186,0.413917 -0.3109363,0 -0.6496346,-0.215391 -0.6258383,-0.413917 0.030933,-0.132376 0.1435689,-0.264752 0.3987176,-0.314653 -0.564894,-0.0325 -1.7010272,-0.19791 -1.6184016,-0.9920901 l 0.1704072,-2.0996918 -1.8447292,0 0,2.281969 -1.2486362,0 0,-2.2818919 0,0 z"
     id="path3" />
</svg>
