<svg xmlns="http://www.w3.org/2000/svg" version="1" width="24" height="24">
    <title>
        Cafe Map Icon
    </title>
    <path d="M 5 8 L 3 15 L 3 20 L 4 20 L 4 23 L 7 23 L 7 20 L 17 20 L 17 23 L 20 23 L 20 20 L 21 20 L 21 15 L 19 8 L 5 8 z M 6 9 L 18 9 L 19.46875 14 L 4.53125 14 L 6 9 z M 5.5 16 C 6.3284271 16 7 16.671573 7 17.5 C 7 18.328427 6.3284271 19 5.5 19 C 4.6715729 19 4 18.328427 4 17.5 C 4 16.671573 4.6715729 16 5.5 16 z M 18.46875 16 C 19.297177 16 19.96875 16.671573 19.96875 17.5 C 19.96875 18.328427 19.297177 19 18.46875 19 C 17.640323 19 16.96875 18.328427 16.96875 17.5 C 16.96875 16.671573 17.640323 16 18.46875 16 z" fill="#4d4d4d" fill-rule="evenodd"/>
    <path d="m 8.5312499,0 c -1.9424295,0 -3.53125,1.5670033 -3.53125,3.5 0,1.9329967 1.5888205,3.5 3.53125,3.5 C 9.9375099,7 11.124724,6.1869032 11.6875,5 L 13,5 14,4 15,5 16,4 17,5 18,5 19,4 19,3 18,2 11.6875,2 C 11.124724,0.81309676 9.9375099,0 8.5312499,0 z m -1.0625,2.28125 c 0.6820917,0 1.25,0.5460912 1.25,1.21875 0,0.6726588 -0.5679083,1.21875 -1.25,1.21875 -0.6820917,0 -1.21875,-0.5460912 -1.21875,-1.21875 0,-0.6726588 0.5366583,-1.21875 1.21875,-1.21875 z" fill="#4d4d4d" fill-rule="evenodd"/>
</svg>
