<svg xmlns="http://www.w3.org/2000/svg" version="1" width="16" height="16">
    <defs>
        <marker refX="10" refY="5" markerWidth="4" orient="auto" viewBox="0 0 10 10">
            <path d="M 10,0 L 0,5 L 10,10 L 10,0 z"/>
        </marker>
        <marker refY="5" markerWidth="4" orient="auto" viewBox="0 0 10 10">
            <path d="M 0,0 L 10,5 L 0,10 L 0,0 z"/>
        </marker>
    </defs>
    <g>
        <g transform="matrix(.021 0 0 .022 -44.537 -19.943)">
            <g>
                <path d="M 95.872,81.671 C 118.422,81.671 136.706,63.387 136.706,40.835 C 136.706,18.284 118.422,0 95.872,0 C 73.319,0 55.038,18.284 55.038,40.835 C 55.038,63.387 73.319,81.671 95.872,81.671 z" transform="matrix(1.038 0 0 1.149 2194.329 891.247)"/>
                <path transform="matrix(1.038 0 0 1.149 2194.329 891.247)"/>
            </g>
            <path d="M 2248.5,995.46875 C 2218.4813,995.46876 2194.3438,1022.569 2194.3438,1056.375 L 2194.3438,1070.6875 L 2231.375,1070.6875 L 2231.375,1068.7188 L 2240.125,1068.7188 L 2240.125,1070.6875 L 2347.5313,1070.6875 L 2347.5313,1068.7188 L 2356.0938,1068.7188 L 2356.0938,1070.6875 L 2392.8438,1070.6875 L 2392.8438,1057.25 C 2392.8438,1026.0768 2370.9907,995.53125 2338.0313,995.53125 L 2248.5,995.46875 z"/>
        </g>
        <path d="M 0.022176996,11.263985 C -0.018098961,8.5755549 -0.17920276,10.888855 1.6102,6.9031012 C 2.904784,4.1938302 1.5929389,4.9232493 8.2902535,4.8242567 C 14.251094,4.9336696 13.048569,4.1521491 14.417951,7.0281445 C 16.132556,10.711711 16.00022,8.7839603 15.988713,11.185833 C 15.925422,13.822162 17.001367,13.144845 7.9795533,13.233417 C -0.97321429,13.124004 0.085467689,13.811742 0.022176996,11.263985 z M 1.8345945,8.6693375 L 3.0601341,6.1059503 C 3.2887907,5.6506102 3.2158395,5.7178272 3.7505789,5.71519 L 12.318914,5.7143538 C 12.782762,5.7158976 12.714712,5.6886249 12.905792,6.0894837 L 14.124512,8.6380765 L 1.8345945,8.6693375 z M 0.95811327,13.5275 L 3.2500064,13.522869 C 3.2429742,16.128515 3.4814334,15.983212 2.2316004,16 C 0.74330825,15.994789 0.9785709,16.130832 0.95811327,13.5275 z M 12.760883,13.546025 L 15.056612,13.546025 C 15.041269,16.155724 15.25096,15.977422 13.951901,15.984368 C 12.60873,15.968159 12.779423,16.160356 12.760883,13.546025 z" fill-rule="evenodd"/>
        <circle cx="150" cy="412" r="66.5" transform="matrix(.017 0 0 .015 -.427 4.308)" fill="#fff"/>
        <circle cx="850" cy="412" r="66.5" transform="matrix(.017 0 0 .015 -.427 4.308)" fill="#fff"/>
        <g transform="matrix(.021 0 0 .022 -39.436 -19.943)">
            <g>
                <path d="M 95.872,81.671 C 118.422,81.671 136.706,63.387 136.706,40.835 C 136.706,18.284 118.422,0 95.872,0 C 73.319,0 55.038,18.284 55.038,40.835 C 55.038,63.387 73.319,81.671 95.872,81.671 z" transform="matrix(1.038 0 0 1.149 2194.329 891.247)"/>
                <path transform="matrix(1.038 0 0 1.149 2194.329 891.247)"/>
            </g>
            <path d="M 2248.5,995.46875 C 2218.4813,995.46876 2194.3438,1022.569 2194.3438,1056.375 L 2194.3438,1070.6875 L 2231.375,1070.6875 L 2231.375,1068.7188 L 2240.125,1068.7188 L 2240.125,1070.6875 L 2347.5313,1070.6875 L 2347.5313,1068.7188 L 2356.0938,1068.7188 L 2356.0938,1070.6875 L 2392.8438,1070.6875 L 2392.8438,1057.25 C 2392.8438,1026.0768 2370.9907,995.53125 2338.0313,995.53125 L 2248.5,995.46875 z"/>
        </g>
        <g transform="matrix(.021 0 0 .022 -34.334 -19.943)">
            <g>
                <path d="M 95.872,81.671 C 118.422,81.671 136.706,63.387 136.706,40.835 C 136.706,18.284 118.422,0 95.872,0 C 73.319,0 55.038,18.284 55.038,40.835 C 55.038,63.387 73.319,81.671 95.872,81.671 z" transform="matrix(1.038 0 0 1.149 2194.329 891.247)"/>
                <path transform="matrix(1.038 0 0 1.149 2194.329 891.247)"/>
            </g>
            <path d="M 2248.5,995.46875 C 2218.4813,995.46876 2194.3438,1022.569 2194.3438,1056.375 L 2194.3438,1070.6875 L 2231.375,1070.6875 L 2231.375,1068.7188 L 2240.125,1068.7188 L 2240.125,1070.6875 L 2347.5313,1070.6875 L 2347.5313,1068.7188 L 2356.0938,1068.7188 L 2356.0938,1070.6875 L 2392.8438,1070.6875 L 2392.8438,1057.25 C 2392.8438,1026.0768 2370.9907,995.53125 2338.0313,995.53125 L 2248.5,995.46875 z"/>
        </g>
    </g>
</svg>
