<svg xmlns="http://www.w3.org/2000/svg" width="24" height="24" enable-background="new 0 0 100 95.76">
    <title>
        Cinema Map Icon
    </title>
    <path d="M 2 3 L 2 21 L 4 21 L 4 19 L 6 19 L 6 21 L 8 21 L 8 19 L 16 19 L 16 21 L 17.9375 21 L 17.9375 19 L 19.9375 19 L 19.9375 21 L 22 21 L 22 3 L 19.9375 3 L 19.9375 5 L 17.9375 5 L 17.9375 3 L 16 3 L 16 5 L 8 5 L 8 3 L 6 3 L 6 5 L 4 5 L 4 3 L 2 3 z M 4 7 L 6 7 L 6 9 L 4 9 L 4 7 z M 8 7 L 16 7 L 16 17 L 8 17 L 8 7 z M 17.9375 7 L 19.9375 7 L 19.9375 9 L 17.9375 9 L 17.9375 7 z M 4 11 L 6 11 L 6 13 L 4 13 L 4 11 z M 17.9375 11 L 19.9375 11 L 19.9375 13 L 17.9375 13 L 17.9375 11 z M 4 15 L 6 15 L 6 17 L 4 17 L 4 15 z M 17.9375 15 L 19.9375 15 L 19.9375 17 L 17.9375 17 L 17.9375 15 z" fill="#505050"/>
    <rect width="8" height="10" x="8" y="7" fill="#f2f2f2"/>
</svg>
