<?xml version="1.0" encoding="UTF-8" standalone="no"?>
<!-- Generator: Adobe Illustrator 15.1.0, SVG Export Plug-In . SVG Version: 6.00 Build 0)  -->

<svg
   xmlns:dc="http://purl.org/dc/elements/1.1/"
   xmlns:cc="http://creativecommons.org/ns#"
   xmlns:rdf="http://www.w3.org/1999/02/22-rdf-syntax-ns#"
   xmlns:svg="http://www.w3.org/2000/svg"
   xmlns="http://www.w3.org/2000/svg"
   xmlns:sodipodi="http://sodipodi.sourceforge.net/DTD/sodipodi-0.dtd"
   xmlns:inkscape="http://www.inkscape.org/namespaces/inkscape"
   version="1.1"
   id="Layer_1"
   x="0px"
   y="0px"
   width="24"
   height="24"
   viewBox="0 0 24 24"
   enable-background="new 0 0 100 95.76"
   xml:space="preserve"
   inkscape:version="0.48.2 r9819"
   sodipodi:docname="cinema.svg"><title
   id="title3018">Cinema Map Icon</title><metadata
   id="metadata11"><rdf:RDF><cc:Work
       rdf:about=""><dc:format>image/svg+xml</dc:format><dc:type
         rdf:resource="http://purl.org/dc/dcmitype/StillImage" /><dc:title>Cinema Map Icon</dc:title><dc:creator><cc:Agent><dc:title>Yury Melnichek</dc:title></cc:Agent></dc:creator><dc:source>mapsforhumans.com</dc:source></cc:Work></rdf:RDF></metadata><defs
   id="defs9" /><sodipodi:namedview
   pagecolor="#ffffff"
   bordercolor="#666666"
   borderopacity="1"
   objecttolerance="10"
   gridtolerance="10"
   guidetolerance="10"
   inkscape:pageopacity="0"
   inkscape:pageshadow="2"
   inkscape:window-width="1064"
   inkscape:window-height="758"
   id="namedview7"
   showgrid="true"
   inkscape:zoom="17.159503"
   inkscape:cx="12.984407"
   inkscape:cy="11.97"
   inkscape:window-x="0"
   inkscape:window-y="0"
   inkscape:window-maximized="0"
   inkscape:current-layer="Layer_1"><inkscape:grid
     type="xygrid"
     id="grid2983"
     empspacing="2"
     visible="true"
     enabled="true"
     snapvisiblegridlinesonly="true" /></sodipodi:namedview>


<path
   style="fill:#505050;fill-opacity:1;stroke:none"
   d="M 2 3 L 2 21 L 4 21 L 4 19 L 6 19 L 6 21 L 8 21 L 8 19 L 16 19 L 16 21 L 17.9375 21 L 17.9375 19 L 19.9375 19 L 19.9375 21 L 22 21 L 22 3 L 19.9375 3 L 19.9375 5 L 17.9375 5 L 17.9375 3 L 16 3 L 16 5 L 8 5 L 8 3 L 6 3 L 6 5 L 4 5 L 4 3 L 2 3 z M 4 7 L 6 7 L 6 9 L 4 9 L 4 7 z M 8 7 L 16 7 L 16 17 L 8 17 L 8 7 z M 17.9375 7 L 19.9375 7 L 19.9375 9 L 17.9375 9 L 17.9375 7 z M 4 11 L 6 11 L 6 13 L 4 13 L 4 11 z M 17.9375 11 L 19.9375 11 L 19.9375 13 L 17.9375 13 L 17.9375 11 z M 4 15 L 6 15 L 6 17 L 4 17 L 4 15 z M 17.9375 15 L 19.9375 15 L 19.9375 17 L 17.9375 17 L 17.9375 15 z "
   id="rect2984" /><rect
   style="fill:#f2f2f2;fill-opacity:1;stroke:none"
   id="rect3784"
   width="8"
   height="10"
   x="8"
   y="7" /></svg>