<svg xmlns="http://www.w3.org/2000/svg" version="1" width="38" height="38" viewBox="0 0 300 300">
    <g transform="matrix(2.172 0 0 2.172 -178.996 -179.909)">
        <rect width="124.106" height="118.915" ry="9.61" x="89.462" y="92.346" stroke="#000" stroke-width="6.764" stroke-linejoin="round" fill="none"/>
        <path d="M 144.04033,179.01698 L 140.6044,193.50174 C 139.97766,195.89305 140.7972,197.77237 143.06302,199.13971 C 144.63422,200.05008 146.28466,200.17533 148.01434,199.51545 C 149.7439,198.85554 150.83717,197.64806 151.29416,195.893 L 155.43558,178.3919 C 155.8475,176.52953 155.39884,174.9328 154.0896,173.60171 L 144.47306,163.43928 L 157.32191,153.47747 L 159.11066,159.77038 C 159.22643,160.34855 159.54161,160.87501 160.05618,161.34976 L 172.56772,171.24353 C 172.88247,171.54762 173.19115,171.76163 173.49377,171.88556 C 174.55369,172.31982 175.63325,172.27653 176.73243,171.75566 C 177.83145,171.23481 178.59848,170.44523 179.03353,169.38694 C 179.80956,167.49864 179.41301,165.88016 177.84389,164.5315 L 167.0742,155.88471 L 162.37885,140.84882 C 161.71315,138.8117 160.28488,137.12344 158.09402,135.78404 C 154.25694,133.50637 150.60248,133.68616 147.13065,136.3234 L 129.48738,149.88521 C 128.33984,150.74051 127.46304,152.01378 126.85699,153.70502 L 117.92716,176.3966 L 103.20082,189.96138 C 102.61873,190.51759 102.19787,191.00652 101.93824,191.42816 C 101.11923,192.77088 100.90092,194.16037 101.28334,195.59663 C 101.66574,197.03286 102.5294,198.15981 103.87435,198.9775 C 106.1401,200.34481 108.18374,200.2109 110.00527,198.57578 L 126.18079,183.74999 C 126.76284,183.19377 127.20882,182.53869 127.51873,181.78474 L 133.1343,167.79693 L 144.04033,179.01698 z M 163.16907,136.67113 C 165.2128,137.50847 167.2938,137.50031 169.41206,136.64666 C 171.53018,135.79311 173.02376,134.30917 173.89282,132.19486 C 174.7314,130.15443 174.70499,128.06868 173.81361,125.93759 C 172.92205,123.80662 171.45441,122.32246 169.41069,121.4851 C 167.29059,120.61665 165.18215,120.63579 163.08535,121.54251 C 160.98841,122.44935 159.52064,123.92299 158.68205,125.96341 C 157.813,128.07772 157.81359,130.17378 158.68382,132.25158 C 159.5539,134.32948 161.04899,135.80266 163.16907,136.67113 L 163.16907,136.67113 z" style="text-align:start;line-height:125%;-inkscape-font-specification:NPSPICT3" font-size="40" font-family="NPSPICT3"/>
        <g transform="matrix(.209 0 0 .209 91.002 92.217)">
            <rect width="118.496" height="18.157" x="406.645" y="467.606"/>
            <rect width="116.927" height="63.109" rx="31.118" ry="31.555" x="407.429" y="445.129" stroke="#000" stroke-width="10" fill="none"/>
            <path d="M 432.74572,445.14884 L 449.94678,445.14884 L 467.14785,445.14884 L 484.34892,445.14884 C 484.34892,431.44683 480.58149,429.63641 475.01444,429.63641 L 444.18435,429.63641 C 437.39209,429.63641 433.44408,426.06557 433.44408,421.63173 C 433.44408,416.37088 437.9171,414.63494 444.05397,414.63494 L 483.74131,414.63494 C 492.8433,414.63494 501.55,430.68041 501.55,445.14884 C 510.28526,445.14884 511.47978,448.66503 517.17978,454.36502 L 417.11594,454.36502 C 422.81594,448.66503 424.01044,445.14884 432.74572,445.14884 z"/>
        </g>
    </g>
</svg>
