<svg xmlns="http://www.w3.org/2000/svg" version="1" width="38" height="38" viewBox="0 0 300 300">
    <path d="M 249.86451,143.66087 C 249.86755,152.59011 242.62982,159.83031 233.70057,159.83031 C 224.77133,159.83031 217.5336,152.59011 217.53664,143.66087 C 217.5336,134.73162 224.77133,127.49143 233.70057,127.49143 C 242.62982,127.49143 249.86755,134.73162 249.86451,143.66087 L 249.86451,143.66087 z" fill-rule="evenodd" stroke="#000"/>
    <path d="M 208.51188,169.98162 L 160.96472,206.20804" stroke="#000" stroke-width="31.579" stroke-linecap="round" fill="none"/>
    <path d="M 192.66282,146.20803 L 164.92698,167.71747" stroke="#000" stroke-width="15.789" stroke-linecap="round" fill="none"/>
    <path d="M 150.77603,215.26463 L 124.75129,235.09301 L 95.870386,213.56652" stroke="#000" stroke-width="19.737" stroke-linecap="round" stroke-linejoin="round" fill="none"/>
    <path d="M 241.5651,213.80305 L 210.14302,204.68689 L 210.25716,168.66629" stroke="#000" stroke-width="15.789" stroke-linecap="round" stroke-linejoin="round" fill="none"/>
    <path d="M 87.280534,199.69532 L 54.082856,231.4" stroke="#000" stroke-width="7.895" stroke-linecap="round" fill="none"/>
    <path d="M 15.709913,98.718935 C 15.709913,98.718935 37.503993,78.272129 49.282433,78.272129 C 61.060873,78.272129 71.076514,98.718935 82.854953,98.718935 C 94.633393,98.718935 104.64903,78.272128 116.42748,78.272129 C 128.20592,78.272129 138.22156,98.718935 150.00001,98.718935 C 161.77844,98.718935 171.79407,78.272129 183.57252,78.272129 C 195.35097,78.272129 205.3666,98.718935 217.14504,98.718935 C 228.92348,98.718935 238.93913,78.272129 250.71756,78.272129 C 262.496,78.272129 284.29009,98.718935 284.29009,98.718935" stroke="#000" stroke-width="15.63" fill="none"/>
</svg>
