<?xml version="1.0" encoding="UTF-8" standalone="no"?>
<!-- Created with Inkscape (http://www.inkscape.org/) -->
<svg
   xmlns:svg="http://www.w3.org/2000/svg"
   xmlns="http://www.w3.org/2000/svg"
   version="1.0"
   width="32"
   height="32"
   viewBox="0 0 250 250"
   id="symbol-football">
  <defs
     id="defs4" />
  <path
     d="M 211.52524,51.561015 C 224.26806,66.158053 220.89283,137.41061 171.4993,178.88763 C 124.61909,218.25414 50.549886,214.65363 37.286237,198.66757 C 24.664169,183.45142 33.986535,110.95608 80.647168,71.329554 C 130.36472,29.10428 199.02219,37.238633 211.52524,51.561015 z"
     id="path2416"
     style="fill:#000000;fill-opacity:1;fill-rule:evenodd;stroke:#000000;stroke-width:1.82215917;stroke-linecap:butt;stroke-linejoin:miter;stroke-miterlimit:4;stroke-dasharray:none;stroke-opacity:1" />
  <path
     d="M 59.026774,129.44545 C 70.009293,107.36642 118.59874,67.516976 142.05455,59.724902"
     id="path3199"
     style="fill:none;fill-rule:evenodd;stroke:#ffffff;stroke-width:7.65306854;stroke-linecap:butt;stroke-linejoin:miter;stroke-miterlimit:4;stroke-dasharray:none;stroke-opacity:1" />
  <path
     d="M 85.538809,77.963096 L 102.80756,99.161498"
     id="path3201"
     style="fill:none;fill-rule:evenodd;stroke:#ffffff;stroke-width:7.65306854;stroke-linecap:butt;stroke-linejoin:miter;stroke-miterlimit:4;stroke-dasharray:none;stroke-opacity:1" />
  <path
     d="M 66.805127,98.182688 L 83.712879,117.93711"
     id="path3203"
     style="fill:none;fill-rule:evenodd;stroke:#ffffff;stroke-width:7.65306854;stroke-linecap:butt;stroke-linejoin:miter;stroke-miterlimit:4;stroke-dasharray:none;stroke-opacity:1" />
  <path
     d="M 51.344107,119.70936 L 67.529872,139.46378"
     id="path3205"
     style="fill:none;fill-rule:evenodd;stroke:#ffffff;stroke-width:7.65306854;stroke-linecap:butt;stroke-linejoin:miter;stroke-miterlimit:4;stroke-dasharray:none;stroke-opacity:1" />
  <path
     d="M 133.90289,48.347311 L 148.28368,68.101736"
     id="path3207"
     style="fill:none;fill-rule:evenodd;stroke:#ffffff;stroke-width:7.65306854;stroke-linecap:butt;stroke-linejoin:miter;stroke-miterlimit:4;stroke-dasharray:none;stroke-opacity:1" />
  <path
     d="M 110.25972,62.068662 L 126.44549,82.545074"
     id="path3209"
     style="fill:none;fill-rule:evenodd;stroke:#ffffff;stroke-width:7.65306854;stroke-linecap:butt;stroke-linejoin:miter;stroke-miterlimit:4;stroke-dasharray:none;stroke-opacity:1" />
  <path
     d="M 59.676639,7.8570939 L 190.32335,7.8570939 C 219.03136,7.8570939 242.1429,31.747104 242.1429,61.422137 L 242.1429,188.57786 C 242.1429,218.25289 219.03136,242.1429 190.32335,242.1429 L 59.676639,242.1429 C 30.968611,242.1429 7.8570962,218.25289 7.8570962,188.57786 L 7.8570962,61.422137 C 7.8570962,31.747104 30.968611,7.8570939 59.676639,7.8570939 z"
     id="rect2403"
     style="fill:none;fill-opacity:1;stroke:#000000;stroke-width:15.71419239;stroke-linecap:butt;stroke-linejoin:bevel;stroke-miterlimit:4;stroke-dasharray:none;stroke-dashoffset:0;stroke-opacity:1" />
</svg>
