<?xml version="1.0" encoding="UTF-8" standalone="no"?>
<!-- Generator: Adobe Illustrator 14.0.0, SVG Export Plug-In . SVG Version: 6.00 Build 43363)  -->

<svg
   xmlns:dc="http://purl.org/dc/elements/1.1/"
   xmlns:cc="http://creativecommons.org/ns#"
   xmlns:rdf="http://www.w3.org/1999/02/22-rdf-syntax-ns#"
   xmlns:svg="http://www.w3.org/2000/svg"
   xmlns="http://www.w3.org/2000/svg"
   xmlns:sodipodi="http://sodipodi.sourceforge.net/DTD/sodipodi-0.dtd"
   xmlns:inkscape="http://www.inkscape.org/namespaces/inkscape"
   version="1.0"
   id="Layer_1"
   x="0px"
   y="0px"
   width="24"
   height="24"
   viewBox="0 0 24 24"
   enable-background="new 0 0 54.298 99.999"
   xml:space="preserve"
   inkscape:version="0.48.2 r9819"
   sodipodi:docname="noun_project_227.svg"><metadata
   id="metadata11"><rdf:RDF><cc:Work
       rdf:about=""><dc:format>image/svg+xml</dc:format><dc:type
         rdf:resource="http://purl.org/dc/dcmitype/StillImage" /><dc:title></dc:title></cc:Work></rdf:RDF></metadata><defs
   id="defs9" /><sodipodi:namedview
   pagecolor="#ffffff"
   bordercolor="#666666"
   borderopacity="1"
   objecttolerance="10"
   gridtolerance="10"
   guidetolerance="10"
   inkscape:pageopacity="0"
   inkscape:pageshadow="2"
   inkscape:window-width="1071"
   inkscape:window-height="689"
   id="namedview7"
   showgrid="true"
   inkscape:zoom="5.879542"
   inkscape:cx="5.7853844"
   inkscape:cy="18.676904"
   inkscape:window-x="64"
   inkscape:window-y="111"
   inkscape:window-maximized="0"
   inkscape:current-layer="Layer_1"><inkscape:grid
     type="xygrid"
     id="grid3001"
     empspacing="2"
     visible="true"
     enabled="true"
     snapvisiblegridlinesonly="true" /></sodipodi:namedview>


<g
   id="g3775"
   transform="translate(6,0)"><path
     style="fill:#4d4d4d"
     inkscape:connector-curvature="0"
     id="path3"
     d="m 3.924553,4.2657567 c -0.9771678,0 -1.7656886,0.7802156 -1.7656886,1.7400611 0,0.9631676 0.7885208,1.7417221 1.7656886,1.7417221 0.9712355,0 1.7604682,-0.7787918 1.7604682,-1.7417221 C 5.6847839,5.0459723 4.8957885,4.2657567 3.924553,4.2657567 z" /><path
     style="fill:#4d4d4d"
     inkscape:connector-curvature="0"
     id="path5"
     d="M 12.870693,7.7083868 C 12.804488,7.3325165 12.496721,7.1191911 12.477975,7.1054282 L 2.1125925,0.27142315 1.1496622,1.6664619 C 0.97026953,1.9414831 1.0485758,2.3071499 1.3235971,2.4860679 1.5971946,2.6671216 1.9621494,2.5935611 2.1415421,2.3187772 L 2.7051102,1.5126968 11.123987,7.0676988 4.2266255,8.3092097 C 3.7382789,8.3913127 3.384714,8.8796593 3.493631,9.3578024 l 1.5011082,5.8027346 -4.85499112,7.281775 c -0.29020792,0.497126 -0.11437467,1.134018 0.38773487,1.419005 0.50709265,0.288547 1.14920435,0.112951 1.44131065,-0.383938 0,0 5.0633333,-7.614695 5.0820794,-7.662628 0,0 0.2612583,1.05666 0.2612583,1.061881 l -0.7598085,5.712564 c -0.095391,0.568788 0.2904453,1.099847 0.8642169,1.195476 0.5737717,0.09539 1.1185938,-0.285225 1.2139851,-0.850454 l 0.7859106,-5.876295 c 0.023967,-0.150443 -0.00688,-0.479804 -0.041052,-0.625027 L 7.643628,9.552619 12.148614,8.7413182 c 0.481465,-0.085188 0.807504,-0.5495679 0.722079,-1.0329314 z" /><path
     transform="matrix(1.3901428,0,0,1.3901428,-6.9473684,-7.8507215)"
     d="m 16.507203,20.024641 c 0,0.397286 -0.322064,0.719351 -0.719351,0.719351 -0.397286,0 -0.71935,-0.322065 -0.71935,-0.719351 0,-0.397286 0.322064,-0.719351 0.71935,-0.719351 0.397287,0 0.719351,0.322065 0.719351,0.719351 z"
     sodipodi:ry="0.71935058"
     sodipodi:rx="0.71935058"
     sodipodi:cy="20.024641"
     sodipodi:cx="15.787852"
     id="path2999"
     style="fill:#4d4d4d;fill-opacity:1;stroke:none"
     sodipodi:type="arc" /><path
     sodipodi:nodetypes="cccc"
     inkscape:connector-curvature="0"
     id="path3005"
     d="m 14,21 c 0.666667,0.383578 1.333333,0.409954 2,0 -0.333333,0.666667 -1,1.312846 -1,3 0,-1.687154 -0.666667,-2.333333 -1,-3 z"
     style="fill:#4d4d4d;fill-opacity:1;stroke:none" /></g></svg>