<svg xmlns="http://www.w3.org/2000/svg" version="1" width="38" height="38" viewBox="0 0 300 300">
    <path d="M 142.10734,83.91085 C 142.11038,92.840056 134.87265,100.08023 125.9434,100.08023 C 117.01416,100.08023 109.77643,92.840056 109.77947,83.91085 C 109.77643,74.9816 117.01416,67.74141 125.9434,67.74141 C 134.87265,67.74141 142.11038,74.9816 142.10734,83.91085 L 142.10734,83.91085 z" fill-rule="evenodd" stroke="#000"/>
    <path d="M 149.85669,118.26878 C 164.00763,132.41972 165.42631,153.13772 150.14329,178.04338" stroke="#000" stroke-width="31.579" stroke-linecap="round" fill="none"/>
    <path d="M 142.6415,184.94852 L 113.78657,188.92784 L 79.245291,180.42022" stroke="#000" stroke-width="19.737" stroke-linecap="round" stroke-linejoin="round" fill="none"/>
    <path d="M 215.38225,95.396218 L 191.54911,118.32771 L 155.52851,118.21357" stroke="#000" stroke-width="15.789" stroke-linecap="round" stroke-linejoin="round" fill="none"/>
    <path d="M 157.3585,183.8335 L 186.21343,179.85418 L 220.75471,188.3618" stroke="#000" stroke-width="19.737" stroke-linecap="round" stroke-linejoin="round" fill="none"/>
    <path d="M 89.302099,140.96922 L 113.13523,118.03771 L 149.15584,118.15185" stroke="#000" stroke-width="15.789" stroke-linecap="round" stroke-linejoin="round" fill="none"/>
</svg>
