<svg xmlns="http://www.w3.org/2000/svg" width="24" height="24">
    <g transform="translate(0 8)" fill="#4d4d4d">
        <path d="M 4.5,9 C 3.1192882,9 2,10.119288 2,11.5 2,12.880712 3.1192882,14 4.5,14 5.8807118,14 7,12.880712 7,11.5 7,10.119288 5.8807118,9 4.5,9 z m 0,1.25 c 0.6903559,0 1.25,0.559644 1.25,1.25 0,0.690356 -0.5596441,1.25 -1.25,1.25 -0.6903559,0 -1.25,-0.559644 -1.25,-1.25 0,-0.690356 0.5596441,-1.25 1.25,-1.25 z"/>
        <path d="M 11.5,9 C 10.119288,9 9,10.119288 9,11.5 9,12.880712 10.119288,14 11.5,14 12.880712,14 14,12.880712 14,11.5 14,10.119288 12.880712,9 11.5,9 z m 0,1.25 c 0.690356,0 1.25,0.559644 1.25,1.25 0,0.690356 -0.559644,1.25 -1.25,1.25 -0.690356,0 -1.25,-0.559644 -1.25,-1.25 0,-0.690356 0.559644,-1.25 1.25,-1.25 z"/>
        <path d="m 24,22 c 0,1.104569 -0.895431,2 -2,2 -1.104569,0 -2,-0.895431 -2,-2 0,-1.104569 0.895431,-2 2,-2 1.104569,0 2,0.895431 2,2 z" transform="matrix(.5 0 0 .5 10 2)"/>
        <rect width="2" height="18" x="20" y="-5" ry=".101"/>
        <path transform="matrix(.5 0 0 .5 10 -16)" d="m 24,22 c 0,1.104569 -0.895431,2 -2,2 -1.104569,0 -2,-0.895431 -2,-2 0,-1.104569 0.895431,-2 2,-2 1.104569,0 2,0.895431 2,2 z"/>
        <rect width="5.5" height="1" x="15.5" y="-6" ry=".062"/>
        <path d="m 24,22 c 0,1.104569 -0.895431,2 -2,2 -1.104569,0 -2,-0.895431 -2,-2 0,-1.104569 0.895431,-2 2,-2 1.104569,0 2,0.895431 2,2 z" transform="matrix(.25 0 0 .25 10 -11)"/>
        <path d="m 2,2 4,11 -1,5 1,1 2,-5 2,5 1,-1 -1,-5 4,-11 -6,9 z" transform="translate(0 -8)"/>
        <rect ry=".062" y="-4" x="15.5" height="1" width="6.5"/>
        <path transform="matrix(.25 0 0 .25 10 -9)" d="m 24,22 c 0,1.104569 -0.895431,2 -2,2 -1.104569,0 -2,-0.895431 -2,-2 0,-1.104569 0.895431,-2 2,-2 1.104569,0 2,0.895431 2,2 z"/>
        <rect width="6.5" height="1" x="15.5" y="-2" ry=".062"/>
        <path d="m 24,22 c 0,1.104569 -0.895431,2 -2,2 -1.104569,0 -2,-0.895431 -2,-2 0,-1.104569 0.895431,-2 2,-2 1.104569,0 2,0.895431 2,2 z" transform="matrix(.25 0 0 .25 10 -7)"/>
        <rect ry=".062" x="15.5" height="1" width="6.5"/>
        <path transform="matrix(.25 0 0 .25 10 -5)" d="m 24,22 c 0,1.104569 -0.895431,2 -2,2 -1.104569,0 -2,-0.895431 -2,-2 0,-1.104569 0.895431,-2 2,-2 1.104569,0 2,0.895431 2,2 z"/>
        <rect width="6.5" height="1" x="15.5" y="2" ry=".062"/>
        <path d="m 24,22 c 0,1.104569 -0.895431,2 -2,2 -1.104569,0 -2,-0.895431 -2,-2 0,-1.104569 0.895431,-2 2,-2 1.104569,0 2,0.895431 2,2 z" transform="matrix(.25 0 0 .25 10 -3)"/>
        <rect ry=".062" y="4" x="15.5" height="1" width="6.5"/>
        <path transform="matrix(.25 0 0 .25 10 -1)" d="m 24,22 c 0,1.104569 -0.895431,2 -2,2 -1.104569,0 -2,-0.895431 -2,-2 0,-1.104569 0.895431,-2 2,-2 1.104569,0 2,0.895431 2,2 z"/>
        <rect width="6.5" height="1" x="15.5" y="6" ry=".062"/>
        <path d="m 24,22 c 0,1.104569 -0.895431,2 -2,2 -1.104569,0 -2,-0.895431 -2,-2 0,-1.104569 0.895431,-2 2,-2 1.104569,0 2,0.895431 2,2 z" transform="matrix(.25 0 0 .25 10 1)"/>
    </g>
</svg>
