<?xml version="1.0" encoding="UTF-8" standalone="no"?>
<!-- Created with Inkscape (http://www.inkscape.org/) -->
<svg
   xmlns:svg="http://www.w3.org/2000/svg"
   xmlns="http://www.w3.org/2000/svg"
   version="1.0"
   width="35"
   height="35"
   id="symbol-handball-borderless">
  <defs
     id="defs3341" />
  <path
     d="M 16.589448,18.010913 C 16.589448,18.010913 13.05624,20.70255 12.293558,21.213292 C 11.518624,21.732245 11.098373,21.944279 10.465907,21.31787 C 9.8428713,20.700812 10.366579,20.423544 10.948589,19.848537 C 11.518144,19.285823 15.103458,16.441775 15.103458,16.441775 L 16.589448,18.010913 z "
     style="fill:#000000;fill-opacity:1;fill-rule:evenodd;stroke:#000000;stroke-width:0;stroke-linecap:butt;stroke-linejoin:miter;stroke-miterlimit:4;stroke-dasharray:none;stroke-opacity:1"
     id="path8185" />
  <path
     d="M 17.58643,18.809652 C 17.58643,18.809652 9.2457335,28.998698 8.7472953,29.652571 C 8.2420429,30.315382 8.4440585,30.700868 8.8533125,31.016895 C 9.2532074,31.325705 9.812923,31.249828 10.238458,30.722454 C 10.656681,30.204128 18.913822,19.966775 18.913822,19.966775 L 17.58643,18.809652 z "
     style="fill:#000000;fill-opacity:1;fill-rule:evenodd;stroke:#000000;stroke-width:0;stroke-linecap:butt;stroke-linejoin:miter;stroke-miterlimit:4;stroke-dasharray:none;stroke-opacity:1"
     id="path8187" />
  <path
     d="M 17.464983,5.1398254 C 17.465947,5.6035435 17.210058,6.0324156 16.793918,6.2645464 C 16.377778,6.4966772 15.864772,6.4966772 15.448632,6.2645464 C 15.032492,6.0324156 14.776603,5.6035435 14.777567,5.1398254 C 14.776603,4.6761073 15.032492,4.2472351 15.448632,4.0151044 C 15.864772,3.7829736 16.377778,3.7829736 16.793918,4.0151044 C 17.210058,4.2472351 17.465947,4.6761073 17.464983,5.1398254 z "
     style="fill:#000000;fill-opacity:1;stroke:#000000;stroke-width:0.33762848;stroke-linejoin:miter;stroke-miterlimit:4;stroke-dasharray:none;stroke-opacity:1"
     id="path8189" />
  <path
     d="M 24.984297,10.22404 C 26.426958,10.959748 29.698074,14.081862 29.698074,14.081862 C 30.780527,15.400055 30.801967,16.833131 29.168881,17.689998 C 27.612294,18.506724 25.533288,19.331673 24.498495,19.658419 C 23.473319,19.982137 23.00366,19.969339 22.866867,19.293586 C 22.730668,18.620778 23.45578,18.204887 24.125677,17.910469 C 24.821232,17.604793 25.497399,17.429284 26.915888,16.531386 C 28.348685,15.624426 27.906069,15.352546 26.851746,14.458703 C 25.789469,13.558116 24.484784,13.291543 23.69671,14.394588 C 22.590858,15.873326 20.915653,18.522663 20.569765,18.952821 C 20.229438,19.376051 19.876684,19.693889 19.351934,19.439065 C 18.831567,19.186368 16.130816,17.021808 15.755227,16.432973 C 15.396489,15.870577 15.364756,15.728135 15.823321,15.096226 C 16.276477,14.471757 17.250359,13.300122 17.250359,13.300122 C 18.445397,11.80368 19.659172,11.143585 16.963382,10.68032 C 14.271343,10.217701 13.67584,8.2056826 13.531733,6.6850334 C 13.396458,5.257585 14.079132,4.9809583 14.393516,5.4552365 C 14.711822,5.9354331 14.679835,7.3830144 15.840412,8.1609147 C 17.021706,8.9527009 20.222949,8.3886395 21.960419,8.8990018 C 23.697888,9.4093653 23.554,9.4946379 24.984297,10.22404 z "
     style="fill:#000000;fill-opacity:1;fill-rule:evenodd;stroke:#ff0000;stroke-width:0;stroke-linecap:butt;stroke-linejoin:miter;stroke-miterlimit:4;stroke-dasharray:none;stroke-opacity:1"
     id="path8191" />
  <path
     d="M 27.071176,7.0635363 C 27.071176,8.2591549 26.101953,9.2284166 24.906342,9.2284166 C 23.710761,9.2284166 22.741538,8.2591549 22.741538,7.0635363 C 22.741538,5.8679176 23.710761,4.8986559 24.906342,4.8986559 C 26.101953,4.8986559 27.071176,5.8679176 27.071176,7.0635363 L 27.071176,7.0635363 z "
     style="fill:#000000;fill-opacity:1;stroke:#000000;stroke-width:0;stroke-linejoin:miter;stroke-miterlimit:4;stroke-dasharray:none;stroke-opacity:1"
     id="path8193" />
</svg>
