<svg xmlns="http://www.w3.org/2000/svg" viewBox="0 0 700 700" width="37.28" height="37.28">
    <path d="m 104.97375,323.96689 c 34.77389,0.19188 62.85219,-24.75254 62.6362,-55.45335 0.21599,-30.70082 -27.86231,-55.64523 -62.6362,-55.64523 -34.341912,0 -62.420207,24.94441 -62.636193,55.64523 0.215986,30.70081 28.294281,55.64523 62.636193,55.45335 z" fill="#505050"/>
    <path d="m 104.97375,303.81948 c 22.24666,0 39.95758,-15.73417 39.95758,-35.30594 0,-19.57177 -17.71092,-35.49782 -39.95758,-35.49782 -21.814672,0 -39.741584,15.92605 -39.741584,35.49782 0,19.57177 17.926912,35.30594 39.741584,35.30594 z" fill="#fff"/>
    <path d="m 306.48952,446.77015 c -47.7331,0 -47.7331,57.18027 0,57.18027 l 276.89518,0 c 46.43719,0 46.43719,-57.18027 0,-57.18027 l -276.89518,0 z" fill="#505050"/>
    <polygon points="321.89,163.85 301.55,163.85 301.55,212.63 321.89,212.63 321.89,212.63" transform="matrix(1.2 0 0 1.066 1.888 23.237)" fill="#505050"/>
    <polygon points="353.57,154.67 270.41,154.67 270.41,165.11 353.57,165.11 353.57,165.11" transform="matrix(1.2 0 0 1.066 1.888 23.237)" fill="#505050"/>
    <path d="m 434.78573,180.44057 159.61431,0 c 21.3827,0 21.3827,27.0551 0,27.0551 l -159.61431,0 c -20.73474,0 -20.73474,-27.0551 0,-27.0551 z" fill="#505050"/>
    <path d="m 158.10653,180.44057 157.88641,0 c 21.3827,0 21.3827,27.0551 0,27.0551 l -157.88641,0 c -22.46264,0 -22.89461,-27.0551 0,-27.0551 z" fill="#505050"/>
    <path d="m 331.32801,409.92917 c -20.51875,0 -30.67014,-13.23973 -34.12593,-24.56065 L 281.21905,349.67882 98.710138,285.20711 c -22.030667,-7.48333 -16.630995,-36.6491 8.423482,-36.6491 l 396.11995,0 c 44.06133,0 68.68383,23.60125 80.13113,48.54566 l 31.75008,68.69308 c 11.4473,23.60125 -7.77553,44.13242 -36.2858,44.13242 l -247.52097,0 z" fill="#505050"/>
    <polygon points="357.89,232.07 322.25,232.07 322.25,289.13 357.89,289.13 357.89,289.13" transform="matrix(1.2 0 0 1.066 1.888 23.237)" fill="#fff"/>
    <polygon points="414.23,289.13 378.95,289.13 378.95,232.07 414.23,232.07 414.23,232.07" transform="matrix(1.2 0 0 1.066 1.888 23.237)" fill="#fff"/>
    <path d="m 524.85226,273.11866 c 13.1752,2.8782 26.3504,13.43161 34.98987,30.70082 l 13.60718,27.82261 -48.59705,0 0,-58.52343 z" fill="#fff"/>
</svg>
