<?xml version="1.0" encoding="UTF-8"?>
<svg xmlns:xs="http://www.w3.org/2001/XMLSchema" xmlns:xlink="http://www.w3.org/1999/xlink" xmlns:inkscape="http://www.inkscape.org/namespaces/inkscape" xmlns:rdf="http://www.w3.org/1999/02/22-rdf-syntax-ns#" xmlns="http://www.w3.org/2000/svg" xmlns:svg="http://www.w3.org/2000/svg" xmlns:xi="http://www.w3.org/2001/XInclude" xmlns:cc="http://web.resource.org/cc/" xmlns:dc="http://purl.org/dc/elements/1.1/" version="1.1" baseProfile="full" width="18.64" id="hotel" viewBox="0 0 90 90" fill="black" fill-opacity="1" stroke="black" stroke-width="1px" stroke-miterlimit="4" height="18.64">
   <svg:path d="M 0,60 C 0,65 10,65 10,60 L 10,50 L 35,70 L 35,85 C 35,90 45,90 45,85 L 45,70 L 75,70 L 75,85 C 75,90 85,90 85,85 L 85,60 L 40,60 L 5,30 C 9,20 45,20 50,25 L 50,10 C 50,5 40,5 40,10 L 40,15 L 10,15 L 10,10 C 10,5 0,5 0,10 C 0,10 0,60 0,60 z M 10,35 C 15,25 45,25 55,35 L 85,60 C 75,50 40,50 40,60 L 10,35 z "/>
</svg>