<svg xmlns="http://www.w3.org/2000/svg" width="24" viewBox="0 0 115.87983 115.87983" height="24" stroke="#000">
    <title>
        Hotel Map Icon
    </title>
    <rect width="2" height="12" x="2" y="8" transform="scale(4.828)" fill="#4d4d4d"/>
    <path d="m 4,20 a 1,1 0 1 1 -2,0 1,1 0 1 1 2,0 z" transform="scale(4.828)" fill="#4d4d4d"/>
    <path d="M 4,8 A 1,1 0 1 1 2,8 1,1 0 1 1 4,8 z" transform="scale(4.828)" fill="#4d4d4d"/>
    <rect y="57.94" x="96.567" height="38.627" width="9.657" fill="#4d4d4d"/>
    <path transform="matrix(4.828 0 0 4.828 86.91 0)" d="m 4,20 a 1,1 0 1 1 -2,0 1,1 0 1 1 2,0 z" fill="#4d4d4d"/>
    <path transform="matrix(4.828 0 0 4.828 86.91 19.313)" d="M 4,8 A 1,1 0 1 1 2,8 1,1 0 1 1 4,8 z" fill="#4d4d4d"/>
    <rect width="17" height="2" x="3" y="14" transform="scale(4.828)" fill="#4d4d4d"/>
    <rect width="28.97" height="14.485" x="24.142" y="48.283" ry="4.828" fill="#4d4d4d"/>
</svg>
