<svg xmlns="http://www.w3.org/2000/svg" width="24" height="24">
    <rect ry="4.4" rx="4.4" y="1" x="1" height="22" width="22" fill="#f2f2f2"/>
    <rect width="20" height="20" x="2" y="2" rx="4" ry="4" fill="#0044d8"/>
    <rect width="3" height="9" x="10.5" y="10" fill="#fff"/>
    <path d="m 13,8.5 a 1.5,1.5 0 1 1 -3,0 1.5,1.5 0 1 1 3,0 z" transform="matrix(1.2 0 0 1.267 -1.8 -3.867)" fill="#fff"/>
    <path d="m 9,10 4,0 0,1 -2,1 -2,-1 z" fill="#fff"/>
    <path d="m 9,18 2,-1 2,0 2,1 0,1 -6,0 z" fill="#fff"/>
</svg>
