<?xml version="1.0" encoding="UTF-8"?>
<svg xmlns:xs="http://www.w3.org/2001/XMLSchema" xmlns:xlink="http://www.w3.org/1999/xlink" xmlns:inkscape="http://www.inkscape.org/namespaces/inkscape" xmlns:rdf="http://www.w3.org/1999/02/22-rdf-syntax-ns#" xmlns="http://www.w3.org/2000/svg" xmlns:svg="http://www.w3.org/2000/svg" xmlns:xi="http://www.w3.org/2001/XInclude" xmlns:cc="http://web.resource.org/cc/" xmlns:dc="http://purl.org/dc/elements/1.1/" version="1.1" baseProfile="full" width="22.368" id="khanda" viewBox="0 0 800 800" height="22.368">
   <svg:g transform="translate(100,0)">
            <svg:path id="path1317" style="fill:#000000" d="M 286.03178,798.44826 C 274.47686,795.1959 263.17182,785.6738 257.90389,774.7565 C 252.29932,763.14127 252.36888,747.04142 258.07461,735.21664 C 260.5981,729.98693 269.51042,720.03068 274.5261,716.8382 L 277.07851,715.21364 L 276.76949,675.53951 L 276.46034,635.86538 L 253.24066,651.77989 L 230.02096,667.69436 L 232.4758,672.32314 C 234.44224,676.03096 234.93332,678.8551 234.9441,686.51734 C 234.9561,695.01629 234.58908,696.75012 231.65258,702.06831 C 227.9575,708.76054 223.18242,713.40624 216.13794,717.16251 C 212.30051,719.20884 209.59295,719.68801 201.86754,719.68801 C 194.1421,719.68801 191.43455,719.20884 187.5971,717.16251 C 176.24401,711.10866 169.44392,701.24622 168.51299,689.48412 C 167.82042,680.73371 169.38643,674.96231 174.61433,666.99802 C 178.35155,661.30468 183.14155,657.56444 222.73106,629.42653 C 246.9125,612.23974 266.48801,597.83269 266.23205,597.41087 C 265.97618,596.98903 260.44958,592.85755 253.9507,588.22983 L 242.13473,579.81577 L 208.53318,604.47029 C 190.05229,618.03027 174.68262,629.12479 174.37835,629.12479 C 174.07408,629.12479 172.95881,616.20877 168.69736,609.43128 C 164.546,602.82887 149.56374,586.07399 111.53631,548.10002 C 69.396819,506.01978 57.592167,492.99258 44.090693,473.66939 C 20.774574,440.29955 6.6120613,403.50731 1.126918,362.05548 C -0.3756399,350.70054 -0.3756399,315.61806 1.126918,304.26311 C 7.337956,257.32562 24.583085,216.61804 53.523135,180.58044 C 69.431809,160.77015 80.676009,152.23236 105.25771,141.298 C 122.62658,133.57202 156.11806,122.5857 157.64172,124.11432 C 157.85197,124.32525 153.37683,127.51604 147.69699,131.20496 C 133.52067,140.41211 108.34195,165.54821 98.759684,180.05939 C 85.566883,200.03829 76.853504,220.64866 71.54464,244.43298 C 69.248935,254.71802 68.94644,259.02112 68.94644,281.39347 C 68.94644,311.30842 70.078051,317.8443 80.711788,349.34715 C 93.570705,387.44222 107.26937,409.01541 144.14125,449.23843 C 178.2262,486.42123 193.32553,499.46384 245.18911,536.5223 L 277.02119,559.26755 L 277.02119,538.02075 L 277.02119,516.77395 L 272.81484,514.19456 C 270.50133,512.77591 264.06559,508.03191 258.51319,503.65237 C 252.96079,499.27283 243.37029,492.4623 237.20095,488.51784 C 231.03161,484.57339 225.84096,481.24105 225.6661,481.11265 C 225.49121,480.98424 226.8717,473.10672 228.73382,463.60703 C 230.59595,454.10736 231.7485,446.02843 231.29511,445.65386 C 230.84171,445.2793 227.08672,443.56864 222.95047,441.85242 C 204.67956,434.27125 185.22141,421.09346 168.9346,405.27082 C 142.46582,379.55638 125.76996,349.66515 117.028,312.34043 C 114.03024,299.54119 113.86515,297.4559 113.86515,272.39071 C 113.86515,247.32552 114.03024,245.24024 117.028,232.44101 C 125.76996,195.11628 142.46582,165.22505 168.9346,139.51062 C 185.3309,123.58162 205.36952,110.05651 223.44434,102.71917 C 228.73651,100.57088 231.00817,99.05611 231.01782,97.669121 C 231.02544,96.579426 230.01177,91.094405 228.76534,85.480173 L 226.49895,75.272474 L 229.40471,71.80799 C 231.00278,69.902516 242.24421,58.613021 254.38547,46.720212 C 266.52659,34.827407 281.49239,19.450119 287.64254,12.548463 L 298.82474,-1.578948e-007 L 335.96762,37.251274 L 373.11058,74.502537 L 370.36714,86.292121 C 368.85834,92.776384 367.80731,98.203637 368.03166,98.352658 C 368.25599,98.501689 375.25392,102.01749 383.58252,106.1655 C 391.91112,110.31354 403.51194,117.12784 409.36205,121.30836 C 423.04361,131.0852 442.64886,150.77682 452.24206,164.3772 C 498.10623,229.39939 498.10623,315.38204 452.24206,380.40424 C 442.64459,394.01067 423.03744,413.70196 409.36205,423.46831 C 399.26308,430.68053 371.50656,445.69371 368.27158,445.69371 C 366.23941,445.69371 366.36571,447.1322 369.98128,465.16303 L 373.09555,480.69367 L 364.03741,486.66249 C 359.05538,489.94532 348.81823,497.38909 341.28815,503.20416 C 333.7581,509.01923 326.31283,514.68688 324.74312,515.79891 L 321.88919,517.8208 L 321.88919,538.02447 C 321.88919,549.13648 322.10165,558.22811 322.36131,558.22811 C 323.07651,558.22811 384.85094,514.03483 388.06931,511.22076 C 389.61167,509.87218 395.16406,505.37407 400.40798,501.22492 C 416.05084,488.8479 432.27058,473.28491 450.65911,453.00844 C 460.20151,442.48648 468.59932,433.37119 469.32102,432.75225 C 470.04272,432.13331 474.70539,426.30966 479.68247,419.8108 C 499.57745,393.83312 508.68192,376.73911 518.66683,346.61646 C 528.37253,317.33627 529.8487,308.72583 529.8487,281.39347 C 529.8487,261.6814 529.47999,256.60422 527.31522,246.5078 C 516.74312,197.1994 489.7958,157.40616 448.70008,130.41627 C 442.2548,126.18329 437.75209,122.71994 438.69398,122.71994 C 441.96507,122.71994 468.33022,130.44062 478.75808,134.45218 C 512.30624,147.35805 528.16289,158.30041 546.49826,181.19828 C 601.53063,249.92465 615.17282,341.9247 582.46514,423.74951 C 575.77601,440.48357 568.05033,454.75628 556.57649,471.57662 C 541.12758,494.22444 535.94949,500.01311 485.10464,551.47606 C 458.50415,578.39991 442.74913,593.68551 434.58351,604.64856 C 426.41791,615.6116 424.52448,629.89631 424.52448,629.89631 L 393.11695,606.93959 C 375.84282,594.31341 360.65706,583.07503 359.37092,581.96538 C 357.07974,579.98874 356.77723,580.12983 344.43183,588.92974 C 337.50153,593.86978 332.24425,598.30113 332.74913,598.77723 C 333.25389,599.25331 352.34327,612.90979 375.16981,629.12501 C 397.99633,645.34019 418.07562,659.93204 419.79047,661.5513 C 421.50531,663.17056 424.40771,667.50563 426.24022,671.18474 C 430.68786,680.11424 430.95079,691.99371 426.89091,700.58414 C 423.65695,707.42702 417.27797,713.74507 410.50326,716.81534 C 403.09367,720.17327 390.4822,720.01132 383.02169,716.46244 C 376.20097,713.21808 369.90332,706.81828 366.84299,700.02148 C 363.70606,693.05433 363.69394,679.99893 366.81811,673.08997 C 368.64568,669.04838 368.80058,667.84338 367.63481,666.73518 C 365.66701,664.86468 323.27201,635.87687 322.50411,635.87687 C 322.16592,635.87687 321.88919,653.81111 321.88919,675.73073 L 321.88919,715.58455 L 327.24058,719.52573 C 346.00108,733.34204 350.2199,762.23368 336.31366,781.66083 C 326.04777,796.00221 303.76839,803.44051 286.03178,798.44826 z M 383.58252,398.63546 C 389.11978,394.97722 398.30986,387.1266 405.50374,379.90937 C 423.59369,361.76059 434.60943,344.03382 442.4852,320.39804 C 447.88515,304.19225 449.76266,291.80749 449.76266,272.39071 C 449.76266,239.89652 442.0372,214.07926 424.17035,186.86456 C 416.01911,174.44865 395.99523,154.35179 383.58252,146.12872 C 373.7199,139.59506 361.56463,133.15981 360.74051,134.03572 C 358.96913,135.91849 352.88033,189.74496 350.9545,220.54628 C 349.21924,248.30043 350.25523,329.6087 352.65453,353.97817 C 354.52193,372.94452 358.57609,405.1389 359.62869,409.36108 L 360.24989,411.85282 L 367.14899,408.39365 C 370.94348,406.49111 378.3386,402.09991 383.58252,398.63546 z M 239.91904,402.08663 C 249.59514,337.58176 251.51975,256.97754 244.9908,189.67792 C 243.37051,172.97559 239.39051,141.40174 238.28753,136.50065 L 237.71671,133.96385 L 230.72864,137.50164 C 198.17949,153.98009 170.51275,185.76004 157.79447,221.27895 C 151.74051,238.18619 149.70984,251.02416 149.70984,272.39071 C 149.70984,288.91611 150.13061,293.9704 152.32546,303.80896 C 161.03307,342.8415 182.83702,375.62062 214.767,397.68099 C 221.13993,402.084 236.3875,410.71466 237.90593,410.77843 C 238.29359,410.79472 239.19959,406.8834 239.91904,402.08663 z "/>
          </svg:g>
</svg>