<?xml version="1.0" encoding="UTF-8" standalone="no"?>
<!-- Created with Inkscape (http://www.inkscape.org/) -->

<svg
   xmlns:dc="http://purl.org/dc/elements/1.1/"
   xmlns:cc="http://creativecommons.org/ns#"
   xmlns:rdf="http://www.w3.org/1999/02/22-rdf-syntax-ns#"
   xmlns:svg="http://www.w3.org/2000/svg"
   xmlns="http://www.w3.org/2000/svg"
   xmlns:sodipodi="http://sodipodi.sourceforge.net/DTD/sodipodi-0.dtd"
   xmlns:inkscape="http://www.inkscape.org/namespaces/inkscape"
   version="1.0"
   width="24"
   height="24"
   viewBox="0 0 566.52362 566.52362"
   id="symbol-kindergarten"
   inkscape:version="0.48.2 r9819"
   sodipodi:docname="kindergarten.svg">
  <title
     id="title3798">Kindergarden Map Icon</title>
  <metadata
     id="metadata14">
    <rdf:RDF>
      <cc:Work
         rdf:about="">
        <dc:format>image/svg+xml</dc:format>
        <dc:type
           rdf:resource="http://purl.org/dc/dcmitype/StillImage" />
        <dc:title>Kindergarden Map Icon</dc:title>
        <dc:creator>
          <cc:Agent>
            <dc:title>Yury Melnichek</dc:title>
          </cc:Agent>
        </dc:creator>
        <dc:source>mapsforhumans.com</dc:source>
      </cc:Work>
    </rdf:RDF>
  </metadata>
  <sodipodi:namedview
     pagecolor="#ffffff"
     bordercolor="#666666"
     borderopacity="1"
     objecttolerance="10"
     gridtolerance="10"
     guidetolerance="10"
     inkscape:pageopacity="0"
     inkscape:pageshadow="2"
     inkscape:window-width="1105"
     inkscape:window-height="761"
     id="namedview12"
     showgrid="true"
     inkscape:zoom="18.694831"
     inkscape:cx="12.886667"
     inkscape:cy="11.002651"
     inkscape:window-x="0"
     inkscape:window-y="0"
     inkscape:window-maximized="0"
     inkscape:current-layer="symbol-kindergarten">
    <inkscape:grid
       type="xygrid"
       id="grid2991"
       empspacing="2"
       visible="true"
       enabled="true"
       snapvisiblegridlinesonly="true" />
  </sodipodi:namedview>
  <defs
     id="defs24" />
  <path
     style="fill:#505050;fill-opacity:1;stroke:none"
     d="m 400.61683,50.55645 c -33.87051,-19.555139 -93.03314,19.50722 -132.14344,87.24825 -5.15304,8.92534 -9.9092,18.02346 -13.84439,26.92982 -84.99776,-49.07348 -100.91432,-17.0031 -115.13655,7.63052 -16.00263,27.71737 -32.60848,45.39683 74.40378,107.18039 l -30.2441,52.38432 c -32.57265,0.0582 -63.99821,16.42754 -81.45668,46.66649 -26.073521,45.16068 -10.600332,102.90741 34.56034,128.98095 45.16068,26.07352 102.90742,10.60033 128.98095,-34.56035 17.45846,-30.23894 15.9219,-65.63893 -0.31398,-93.8768 l 30.2441,-52.38432 c 96.17953,55.52928 114.0202,38.56274 130.02283,10.84537 14.22223,-24.63361 31.93568,-55.66658 -50.96004,-103.52645 5.74553,-7.86113 11.24666,-16.52915 16.39971,-25.45448 39.11029,-67.74103 43.35798,-138.508556 9.48747,-158.06371 z m -23.60516,40.885325 c 11.29018,6.518385 6.9041,35.252075 -19.16943,80.412755 -26.07353,45.16068 -44.56022,56.04379 -55.8504,49.5254 -11.29017,-6.51838 -11.10846,-27.96988 14.96507,-73.13056 26.07353,-45.16067 48.7646,-63.325981 60.05476,-56.807595 z M 192.18036,175.52752 c 11.29016,6.51838 15.15846,20.95507 8.64008,32.24523 -6.51839,11.29018 -20.95508,15.15848 -32.24524,8.64009 -11.29018,-6.51838 -15.15847,-20.95505 -8.64009,-32.24523 6.51839,-11.29018 20.95507,-15.15848 32.24525,-8.64009 z m 204.42659,118.02575 c 11.29018,6.51839 15.15848,20.95507 8.64009,32.24525 -6.51838,11.29018 -20.95507,15.15847 -32.24523,8.64008 -11.29017,-6.51839 -15.15847,-20.95507 -8.64009,-32.24524 6.51838,-11.29017 20.95506,-15.15846 32.24523,-8.64009 z m -169.49744,10.31636 20.07384,12.44142 -27.80954,48.16751 c -21.10617,15.07123 -56.7379,3.85232 -76.29304,37.72284 -19.55514,33.87051 8.53667,86.69928 5.47759,84.93312 -33.87049,-19.55514 -45.4754,-62.8652 -25.92025,-96.73571 12.59036,-21.80714 36.47535,-36.53733 60.46691,-38.34227 12.84919,-1.55036 32.7927,-25.33013 39.57853,-40.52092 z"
     id="path3005"
     inkscape:connector-curvature="0"
     sodipodi:nodetypes="sscsccsssccscssssssssssssssssscccsssccc" />
</svg>
