<svg xmlns="http://www.w3.org/2000/svg" width="24" viewBox="0 0 824.03436 824.03436" height="24">
    <title>
        Library Map Icon
    </title>
    <path d="M 6.5 3.5 C 4.75 3.5 3 4 2 5 L 0 6 L 0 21 L 2 20 C 4 18 9 18 11 20 L 12 20 C 14 18 19 18 21 20 L 23 21 L 23 6 L 21 5 C 19 3 14 3 12 5 L 11 5 C 10 4 8.25 3.5 6.5 3.5 z M 2 6 L 2 18 C 4 16 9.0000003 16 11 18 L 11 6 L 12 6 L 12 18 C 14 16 19 16 21 18 L 21 6 L 22 6.6875 L 22 19.5625 L 21 19 C 19 17 14 17 12 19 L 11 19 C 9 17 4 17 2 19 L 1 19.5625 L 1 6.6875 L 2 6 z" transform="scale(34.335)" fill="#505050"/>
</svg>
