<svg xmlns="http://www.w3.org/2000/svg" xmlns:xlink="http://www.w3.org/1999/xlink" version="1" width="16" height="16">
    <defs>
        <linearGradient id="a">
            <stop offset="0" stop-color="#fffd2d"/>
            <stop offset="1" stop-color="#fff" stop-opacity="0"/>
        </linearGradient>
        <linearGradient x1="-55.104" y1="1.569" x2="176.37" y2="99.852" xlink:href="#a" gradientUnits="userSpaceOnUse"/>
        <linearGradient x1="59.917" y1="30.272" x2="262.248" y2="88" xlink:href="#a" gradientUnits="userSpaceOnUse"/>
    </defs>
    <g transform="matrix(.081 0 0 .081 -.114 -.501)" stroke="#000">
        <g transform="translate(60.173 3.896)">
            <path d="M 13.8,149.5 L 10,185 L 70,185 L 66.2,149.5 L 13.8,149.5 z" fill="none"/>
            <path d="M 17.55,114.5 L 13.8,149.5 L 66.2,149.5 L 62.45,114.5 L 17.55,114.5 z" fill-rule="evenodd"/>
            <path d="M 21.3,79.5 L 17.55,114.5 L 62.45,114.5 L 58.7,79.5 L 21.3,79.5 z" fill="none"/>
            <path d="M 25,45 L 21.3,79.5 L 58.7,79.5 L 55,45 L 25,45 z" fill-rule="evenodd"/>
            <rect width="72" height="12" rx="1.928" ry="1.639" x="4" y="184" stroke-linejoin="round"/>
            <rect width="40" height="5" rx=".511" ry=".529" x="20" y="40" stroke-linejoin="round"/>
            <rect width="32.008" height="20" rx="0" ry="0" x="23.992" y="19.994" stroke-width="1.033" stroke-linejoin="round" fill="none"/>
            <path d="M 40,5 L 20,20 L 60,20 L 40,5 z" fill-rule="evenodd" stroke-linejoin="round"/>
        </g>
        <path d="M 123.37662,34.199134 L 197.83549,58.008658 L 197.40259,6.9264069 L 123.37662,34.199134 z" fill-rule="evenodd"/>
        <path d="M 76.623378,34.199135 L 2.1645041,58.008661 L 2.5974041,6.9264067 L 76.623378,34.199135 z" fill-rule="evenodd"/>
    </g>
</svg>
