<svg xmlns="http://www.w3.org/2000/svg" width="24" height="24">
    <title>
        Parking Map Icon
    </title>
    <rect ry="4.4" rx="4.4" y="1" x="1" height="22" width="22" fill="#f2f2f2"/>
    <rect width="20" height="20" x="2" y="2" rx="4" ry="4" fill="#0044d8"/>
    <path d="m 7,5 0,10 c 0,0 0,4 0,5 l 3,0 0,-5 3,0 c 2.761424,0 5,-2.238576 5,-5 0,-2.7614237 -2.238576,-5 -5,-5 l -3,0 z m 3,2.53125 3,0 c 1.10457,0 2,1.1126809 2,2.46875 0,1.356069 -0.89543,2.46875 -2,2.46875 l -3,0 L 10,10 z" fill="#fff"/>
</svg>
