<?xml version="1.0" encoding="UTF-8" standalone="no"?>
<!-- Created with Inkscape (http://www.inkscape.org/) -->
<svg
   xmlns:svg="http://www.w3.org/2000/svg"
   xmlns="http://www.w3.org/2000/svg"
   version="1.0"
   width="18"
   height="18"
   id="symbol-parking_roof-permissive">
  <defs
     id="defs9" />
  <g
     transform="matrix(0.5,0,0,0.5,-40,0)"
     id="g3">
    <path
       d="M 82,0 L 114,0 C 115.108,0 116,0.892 116,2 L 116,34 C 116,35.108 115.108,36 114,36 L 82,36 C 80.892,36 80,35.108 80,34 L 80,2 C 80,0.892 80.892,0 82,0 z "
       style="fill:#aaaaaa"
       id="path4291" />
    <path
       d="M 96.181368,24.062684 L 96.231738,31.870441 L 89.548973,31.870441 L 89.548973,10.378121 L 98.699998,10.378121 C 100.96677,10.378121 102.72981,10.629985 103.90517,11.133711 C 105.16449,11.721391 106.08798,12.476981 106.75962,13.568388 C 107.43125,14.659794 107.68312,15.91911 107.85103,17.26238 C 107.85103,19.277285 107.09544,20.956372 105.66821,22.215688 C 104.24099,23.391049 102.31004,24.062684 99.959318,24.062684 L 96.265328,24.062684 L 96.181368,24.062684 z M 96.097418,19.445194 L 98.364178,19.445194 C 100.29513,19.445194 101.21863,18.689604 101.21863,17.094471 C 101.21863,16.003064 100.37909,15.331429 98.532088,15.331429 L 96.130998,15.331429 L 96.097418,19.445194 z "
       style="fill:#ffffff"
       id="path4293" />
    <path
       d="M 98.276478,2.598089 L 86.167828,5.255891 L 86.167828,8.932056 L 98.276478,6.276769 L 110.38181,8.932056 L 110.38181,5.255891 L 98.276478,2.598089 z "
       style="fill:#ffffff;fill-rule:evenodd;stroke:none;stroke-width:1px;stroke-linecap:butt;stroke-linejoin:miter;stroke-opacity:1"
       id="rect2229" />
  </g>
</svg>
