<svg xmlns="http://www.w3.org/2000/svg" version="1" width="36" height="18">
    <g transform="matrix(.5 0 0 .5 0 -20)">
        <g transform="translate(0 40)">
            <rect width="72" height="36" rx="2" ry="2" fill="#00f"/>
            <path d="M 15.7,21.4 L 15.76,30.7 L 7.8,30.7 L 7.8,5.1 L 18.7,5.1 C 21.4,5.1 23.5,5.4 24.9,6 C 26.4,6.7 27.5,7.6 28.3,8.9 C 29.1,10.2 29.4,11.7 29.6,13.3 C 29.6,15.7 28.7,17.7 27,19.2 C 25.3,20.6 23,21.4 20.2,21.4 L 15.8,21.4 L 15.7,21.4 z M 15.6,15.9 L 18.3,15.9 C 20.6,15.9 21.7,15 21.7,13.1 C 21.7,11.8 20.7,11 18.5,11 L 15.64,11 L 15.6,15.9 z" fill="#fff"/>
            <path d="M 38.5,33.76 L 69.5,33.76 C 69.776142,33.76 70,33.536142 70,33.26 L 70,2.26 C 70,1.9838576 69.776142,1.76 69.5,1.76 L 38.5,1.76 C 38.223858,1.76 38,1.9838576 38,2.26 L 38,33.26 C 38,33.536142 38.223858,33.76 38.5,33.76 z" fill="#fff"/>
            <path d="M 40,31.76 L 40,3.76 L 68,3.76 L 68,31.76 L 40,31.76 z" fill="#00f"/>
        </g>
        <g transform="matrix(.923 0 0 .923 4.17 4.468)" stroke="#fff">
            <rect width="23.349" height="11.674" x="46.746" y="44.002" transform="rotate(5.829)" fill="#00f" stroke-width="1.075"/>
            <path d="M 411.42859 375.87302 A 46.984127 46.984127 0 1 1 317.46033,375.87302 A 46.984127 46.984127 0 1 1 411.42859 375.87302 z" transform="matrix(.127 0 0 .127 14.569 12.069)" fill="#00f" stroke-width="7.6"/>
            <text x="58.128" y="63.269" style="text-align:start;line-height:125%" font-size="9.665" font-weight="bold" fill="#fff" stroke-width=".141" font-family="Myriad Pro">
                <tspan x="58.128" y="63.269" fill="#fff">
                    2
                </tspan>
            </text>
            <path d="M 411.42859 375.87302 A 46.984127 46.984127 0 1 1 317.46033,375.87302 A 46.984127 46.984127 0 1 1 411.42859 375.87302 z" transform="matrix(.099 0 0 .099 18.414 25.219)" fill="#00f" stroke-width="7.6"/>
            <text x="52.545" y="64.743" style="text-align:start;line-height:125%" font-size="7.117" font-weight="bold" fill="#fff" stroke-width=".141" font-family="Myriad Pro">
                <tspan x="52.545" y="64.743" fill="#fff">
                    1
                </tspan>
            </text>
        </g>
    </g>
</svg>
