<svg xmlns="http://www.w3.org/2000/svg" version="1" width="36" height="18">
    <g transform="matrix(.5 0 0 .5 -40 -20)">
        <rect width="72" height="36" rx="2" ry="2" x="80" y="40" fill="#aaa"/>
        <path d="M 118.5,73.76 L 149.5,73.76 C 149.77614,73.76 150,73.536142 150,73.26 L 150,42.26 C 150,41.983858 149.77614,41.76 149.5,41.76 L 118.5,41.76 C 118.22386,41.76 118,41.983858 118,42.26 L 118,73.26 C 118,73.536142 118.22386,73.76 118.5,73.76 z" fill="#fff"/>
        <path d="M 120,71.76 L 120,43.76 L 148,43.76 L 148,71.76 L 120,71.76 z" fill="#aaa"/>
        <g transform="matrix(.923 0 0 .923 84.17 4.468)" stroke="#fff">
            <rect width="23.349" height="11.674" x="46.746" y="44.002" transform="rotate(5.829)" fill="#aaa" stroke-width="1.075"/>
            <path d="M 411.42859 375.87302 A 46.984127 46.984127 0 1 1 317.46033,375.87302 A 46.984127 46.984127 0 1 1 411.42859 375.87302 z" transform="matrix(.127 0 0 .127 14.569 12.069)" fill="#aaa" stroke-width="7.6"/>
            <text x="58.128" y="63.269" style="text-align:start;line-height:125%" font-size="9.665" font-weight="bold" fill="#fff" stroke-width=".141" font-family="Myriad Pro">
                <tspan x="58.128" y="63.269" fill="#fff">
                    2
                </tspan>
            </text>
            <path d="M 411.42859 375.87302 A 46.984127 46.984127 0 1 1 317.46033,375.87302 A 46.984127 46.984127 0 1 1 411.42859 375.87302 z" transform="matrix(.099 0 0 .099 18.414 25.219)" fill="#aaa" stroke-width="7.6"/>
            <text x="52.545" y="64.743" style="text-align:start;line-height:125%" font-size="7.117" font-weight="bold" fill="#fff" stroke-width=".141" font-family="Myriad Pro">
                <tspan x="52.545" y="64.743" fill="#fff">
                    1
                </tspan>
            </text>
        </g>
        <path d="M 96.181368,64.062684 L 96.231738,71.870441 L 89.548973,71.870441 L 89.548973,50.378121 L 98.699998,50.378121 C 100.96677,50.378121 102.72981,50.629985 103.90517,51.133711 C 105.16449,51.721391 106.08798,52.476981 106.75962,53.568388 C 107.43125,54.659794 107.68312,55.91911 107.85103,57.26238 C 107.85103,59.277285 107.09544,60.956372 105.66821,62.215688 C 104.24099,63.391049 102.31004,64.062684 99.959318,64.062684 L 96.265328,64.062684 L 96.181368,64.062684 z M 96.097418,59.445194 L 98.364178,59.445194 C 100.29513,59.445194 101.21863,58.689604 101.21863,57.094471 C 101.21863,56.003064 100.37909,55.331429 98.532088,55.331429 L 96.130998,55.331429 L 96.097418,59.445194 z" fill="#fff"/>
        <path d="M 98.276478,42.598089 L 86.167828,45.255891 L 86.167828,48.932056 L 98.276478,46.276769 L 110.38181,48.932056 L 110.38181,45.255891 L 98.276478,42.598089 z" fill="#fff" fill-rule="evenodd"/>
    </g>
</svg>
