<?xml version="1.0" encoding="UTF-8"?>
<svg xmlns:xs="http://www.w3.org/2001/XMLSchema" xmlns:xlink="http://www.w3.org/1999/xlink" xmlns:inkscape="http://www.inkscape.org/namespaces/inkscape" xmlns:rdf="http://www.w3.org/1999/02/22-rdf-syntax-ns#" xmlns="http://www.w3.org/2000/svg" xmlns:svg="http://www.w3.org/2000/svg" xmlns:xi="http://www.w3.org/2001/XInclude" xmlns:cc="http://web.resource.org/cc/" xmlns:dc="http://purl.org/dc/elements/1.1/" version="1.1" baseProfile="full" width="18.64" id="petrolStation" viewBox="0 0 115 115" fill="#000000" fill-rule="evenodd" stroke-width="3px" height="18.64">
   <svg:path d="M 22.7283 108.087 C 4.26832 107.546 23.6818 43.3596 32.6686 21.0597 C 33.8491 17.0245 60.28 18.4952 60.0056 19.8857 C 59.0889 25.9148 54.8979 23.2429 52.0142 26.8579 L 51.7464 36.8066 C 48.6085 40.8144 40.2357 34.4677 38.078 42.8773 C 31.3694 92.5727 45.0689 108.819 22.7283 108.087 z M 85.3122 9.52799 L 29.1766 9.52847 C 28.4855 17.5896 -11.559 113.573 22.9292 113.284 C 48.5214 113.073 39.5312 104.08 42.6984 51.03 C 41.8513 49.3228 50.871 48.6585 50.8739 51.4448 L 51.0453 116.604 L 97.6129 116.188 L 97.6129 26.544 C 96.0669 24.2073 93.899 25.2958 90.584 22.394 C 87.7907 19.4131 92.2353 9.52799 85.3122 9.52799 z M 64.0766 35.3236 C 61.5443 36.7258 61.5443 45.2814 64.0766 46.6836 C 68.3819 49.0684 80.2848 49.0684 84.5902 46.6836 C 87.1225 45.2814 87.1225 36.7258 84.5902 35.3236 C 80.2848 32.9393 68.3819 32.9393 64.0766 35.3236 z "/>
</svg>