<svg xmlns="http://www.w3.org/2000/svg" width="18" height="18" enable-background="new 0 0 510.24 283.46">
    <g>
        <path d="M 125.42455,28.358 H 57.499548 V 16.324 c 0,-3.493 2.831,-6.324 6.324,-6.324 h 55.277002 c 3.493,0 6.324,2.831 6.324,6.324 v 12.034 z"/>
        <path d="m 125.42455,36.956 c 0,18.757 -15.206,39.962 -33.962002,39.962 -18.756,0 -33.962,-21.206 -33.962,-39.962 23.651,0 45.029002,0 67.924002,0 z"/>
        <path d="m 144.13455,159.982 c 0,6.881 -5.076,12.458 -11.338,12.458 H 50.723548 c -6.262,0 -11.337999,-5.577 -11.337999,-12.458 V 96.398 c 0,-6.88 5.076999,-12.458 11.337999,-12.458 h 82.073002 c 6.262,0 11.338,5.578 11.338,12.458 v 63.584 z"/>
        <polygon transform="translate(-119.615 -21.81)" points="199,194.25 180.25,194.25 237.039,105.75 253.5,105.75" fill="#fff"/>
    </g>
</svg>
