<?xml version="1.0" encoding="UTF-8" standalone="no"?>
<svg
   xmlns:dc="http://purl.org/dc/elements/1.1/"
   xmlns:cc="http://creativecommons.org/ns#"
   xmlns:rdf="http://www.w3.org/1999/02/22-rdf-syntax-ns#"
   xmlns:svg="http://www.w3.org/2000/svg"
   xmlns="http://www.w3.org/2000/svg"
   xmlns:sodipodi="http://sodipodi.sourceforge.net/DTD/sodipodi-0.dtd"
   xmlns:inkscape="http://www.inkscape.org/namespaces/inkscape"
   version="1.1"
   x="0px"
   y="0px"
   width="182.44"
   height="182.43999"
   viewBox="0 0 182.44 182.44"
   enable-background="new 0 0 510.24 283.46"
   xml:space="preserve"
   id="svg2"
   inkscape:version="0.48.2 r9819"
   sodipodi:docname="police.svg"><metadata
   id="metadata16"><rdf:RDF><cc:Work
       rdf:about=""><dc:format>image/svg+xml</dc:format><dc:type
         rdf:resource="http://purl.org/dc/dcmitype/StillImage" /></cc:Work></rdf:RDF></metadata><defs
   id="defs14" /><sodipodi:namedview
   pagecolor="#ffffff"
   bordercolor="#666666"
   borderopacity="1"
   objecttolerance="10"
   gridtolerance="10"
   guidetolerance="10"
   inkscape:pageopacity="0"
   inkscape:pageshadow="2"
   inkscape:window-width="640"
   inkscape:window-height="484"
   id="namedview12"
   showgrid="false"
   fit-margin-left="10"
   fit-margin-top="10"
   fit-margin-right="10"
   fit-margin-bottom="10"
   inkscape:zoom="0.74866731"
   inkscape:cx="106.119"
   inkscape:cy="62.519989"
   inkscape:window-x="0"
   inkscape:window-y="0"
   inkscape:window-maximized="0"
   inkscape:current-layer="svg2" />
	
	
	
	<g
   id="g2993"><path
     inkscape:connector-curvature="0"
     id="path4"
     d="M 125.42455,28.358 H 57.499548 V 16.324 c 0,-3.493 2.831,-6.324 6.324,-6.324 h 55.277002 c 3.493,0 6.324,2.831 6.324,6.324 v 12.034 z" /><path
     inkscape:connector-curvature="0"
     id="path6"
     d="m 125.42455,36.956 c 0,18.757 -15.206,39.962 -33.962002,39.962 -18.756,0 -33.962,-21.206 -33.962,-39.962 23.651,0 45.029002,0 67.924002,0 z" /><path
     inkscape:connector-curvature="0"
     id="path8"
     d="m 144.13455,159.982 c 0,6.881 -5.076,12.458 -11.338,12.458 H 50.723548 c -6.262,0 -11.337999,-5.577 -11.337999,-12.458 V 96.398 c 0,-6.88 5.076999,-12.458 11.337999,-12.458 h 82.073002 c 6.262,0 11.338,5.578 11.338,12.458 v 63.584 z" /><polygon
     transform="translate(-119.61545,-21.81)"
     style="fill:#ffffff"
     id="polygon10"
     points="199,194.25 180.25,194.25 237.039,105.75 253.5,105.75 " /></g>
</svg>