<svg xmlns="http://www.w3.org/2000/svg" baseProfile="full" width="18" height="18" viewBox="0 0 16 16">
    <g transform="matrix(1 0 -.26 1 .15 0)">
        <rect x="3.4" y="3.4" width="13" height="8.9" fill="#fff" stroke="#000" stroke-width=".4"/>
        <g fill="#000084">
            <rect x="3.9" y="8" width="3.8" height="3.8"/>
            <rect x="8" y="8" width="3.8" height="3.8"/>
            <rect x="12.1" y="8" width="3.8" height="3.8"/>
            <rect x="3.9" y="3.9" width="3.8" height="3.8"/>
            <rect x="8" y="3.9" width="3.8" height="3.8"/>
            <rect x="12.1" y="3.9" width="3.8" height="3.8"/>
        </g>
    </g>
    <path d="M 2.72 0.34 L 2.97 2.59 L 1.38 2.13 L 2.44 3.25 L 0.38 3.98 L 2.59 4.38 L 1.59 5.72 L 3.13 5.03 L 3.16 7.22 L 4.25 5.34 L 5.22 6.63 L 5.03 5 L 7.22 5.66 L 5.72 4.06 L 7.25 3.59 L 5.59 3.28 L 6.97 1.41 L 4.88 2.34 L 4.88 0.78 L 4.09 2.13 L 2.72 0.34 z" fill="#ff0" stroke="#000" stroke-width=".1"/>
</svg>
