<?xml version="1.0" encoding="UTF-8"?>
<svg xmlns:xs="http://www.w3.org/2001/XMLSchema" xmlns:xlink="http://www.w3.org/1999/xlink" xmlns:inkscape="http://www.inkscape.org/namespaces/inkscape" xmlns:rdf="http://www.w3.org/1999/02/22-rdf-syntax-ns#" xmlns="http://www.w3.org/2000/svg" xmlns:svg="http://www.w3.org/2000/svg" xmlns:xi="http://www.w3.org/2001/XInclude" xmlns:cc="http://web.resource.org/cc/" xmlns:dc="http://purl.org/dc/elements/1.1/" version="1.1" baseProfile="full" width="13.98" id="pub" viewBox="0 0 580 580" height="13.98">
   <svg:g style="fill-rule: nonzero;stroke-linecap:butt;">
                <svg:path style="fill:black;stroke:none;stroke-width:0.28;stroke-linejoin:bevel" d="M 67.775772,2.6625614 C 26.556032,2.6625614 3.3361722,24.082427 3.1561722,67.642152 L 3.1561722,517.81932 C 3.3361722,558.67906 24.216042,580.09892 65.435782,580.09892 L 517.23294,580.09892 C 558.63267,580.09892 579.51254,559.75905 579.51254,517.81932 L 579.51254,67.642152 C 579.51254,25.16242 558.63267,2.6625614 515.97294,2.6625614 C 515.97294,2.6625614 67.775772,2.4825625 67.775772,2.6625614 z "/>
                <svg:path style="fill:none;stroke:black;stroke-width:3.41997862;stroke-linejoin:miter" d="M 67.775772,2.6625614 C 26.556032,2.6625614 3.3361722,24.082427 3.1561722,67.642152 L 3.1561722,517.81932 C 3.3361722,558.67906 24.216042,580.09892 65.435782,580.09892 L 517.23294,580.09892 C 558.63267,580.09892 579.51254,559.75905 579.51254,517.81932 L 579.51254,67.642152 C 579.51254,25.16242 558.63267,2.6625614 515.97294,2.6625614 C 515.97294,2.6625614 67.775772,2.4825625 67.775772,2.6625614"/>
                <svg:path style="fill:white;stroke:none;stroke-width:3.42000008;stroke-linejoin:bevel" d="M 106.47552,104.54192 L 468.63324,104.54192 L 311.31423,299.12069 L 311.31423,423.67991 L 398.43368,423.67991 C 427.7735,423.85991 427.9535,467.95963 398.43368,467.77963 L 180.99505,467.77963 C 151.65524,467.95963 151.65524,423.85991 180.99505,423.67991 L 266.85451,423.67991 L 266.85451,298.2207 L 106.47552,104.54192 z "/>
                <svg:path style="fill:black;stroke:none;stroke-width:3.42000008;stroke-linejoin:bevel" d="M 316.5342,241.88105 C 332.1941,241.88105 344.79402,229.28113 344.61402,213.80123 C 344.79402,198.32133 332.1941,185.72141 316.5342,185.54141 C 301.0543,185.72141 288.45438,198.32133 288.45438,213.80123 C 288.45438,229.28113 301.0543,241.88105 316.5342,241.88105 z "/>
            </svg:g>
</svg>