<?xml version="1.0" encoding="UTF-8" standalone="no"?>
<!-- Generator: Adobe Illustrator 14.0.0, SVG Export Plug-In . SVG Version: 6.00 Build 43363)  -->

<svg
   xmlns:dc="http://purl.org/dc/elements/1.1/"
   xmlns:cc="http://creativecommons.org/ns#"
   xmlns:rdf="http://www.w3.org/1999/02/22-rdf-syntax-ns#"
   xmlns:svg="http://www.w3.org/2000/svg"
   xmlns="http://www.w3.org/2000/svg"
   xmlns:sodipodi="http://sodipodi.sourceforge.net/DTD/sodipodi-0.dtd"
   xmlns:inkscape="http://www.inkscape.org/namespaces/inkscape"
   version="1.0"
   id="Layer_1"
   x="0px"
   y="0px"
   width="24"
   height="24"
   viewBox="0 0 24 24"
   enable-background="new 0 0 66.461 100"
   xml:space="preserve"
   inkscape:version="0.48.2 r9819"
   sodipodi:docname="railway-station.svg"><title
   id="title3765">Train Map Icon</title><metadata
   id="metadata13"><rdf:RDF><cc:Work
       rdf:about=""><dc:format>image/svg+xml</dc:format><dc:type
         rdf:resource="http://purl.org/dc/dcmitype/StillImage" /><dc:title>Train Map Icon</dc:title><dc:creator><cc:Agent><dc:title>Yury Melnichek</dc:title></cc:Agent></dc:creator><dc:source>mapsforhumans.com</dc:source></cc:Work></rdf:RDF></metadata><defs
   id="defs11" /><sodipodi:namedview
   pagecolor="#ffffff"
   bordercolor="#666666"
   borderopacity="1"
   objecttolerance="10"
   gridtolerance="10"
   guidetolerance="10"
   inkscape:pageopacity="0"
   inkscape:pageshadow="2"
   inkscape:window-width="909"
   inkscape:window-height="754"
   id="namedview9"
   showgrid="true"
   inkscape:zoom="19.154332"
   inkscape:cx="16.487407"
   inkscape:cy="13.293445"
   inkscape:window-x="0"
   inkscape:window-y="0"
   inkscape:window-maximized="0"
   inkscape:current-layer="Layer_1"><inkscape:grid
     type="xygrid"
     id="grid2982"
     empspacing="2"
     visible="true"
     enabled="true"
     snapvisiblegridlinesonly="true" /></sodipodi:namedview>


<rect
   ry="4.4000001"
   rx="4.4000001"
   y="1"
   x="1"
   height="22"
   width="22"
   id="rect3759"
   style="fill:#f2f2f2;fill-opacity:1;stroke:none" /><rect
   style="fill:#0044d8;fill-opacity:1;stroke:none"
   id="rect2989"
   width="20"
   height="20"
   x="2"
   y="2"
   rx="4"
   ry="4" />
<path
   style="fill:#ffffff;fill-opacity:1"
   d="M 12.007782,4.266537 C 11.45236,4.266537 10.976917,4.5621993 10.717048,5 L 8.6988084,5 C 7.1384552,4.9987676 5.9985122,6.0290127 6,7.1545477 l 0,7.9764103 c -0.00149,1.093491 1.0306787,2.012294 2.0651751,2.154548 l -3.0977626,3.850681 1.7835603,0 11.2645912,0 1.079524,0 -3.121231,-3.850681 c 1.035561,-0.142432 2.067513,-1.061057 2.065175,-2.154548 l 0,-7.9764103 C 18.041632,6.0290127 16.914693,4.9987676 15.363692,5 L 14.2607,5 13.298517,5 C 13.038648,4.5621993 12.563205,4.266537 12.007782,4.266537 z m 0,0.733463 c 0.414751,0 0.750973,0.3283826 0.750973,0.7334631 0,0.4050804 -0.336222,0.733463 -0.750973,0.733463 -0.414751,0 -0.750973,-0.3283826 -0.750973,-0.733463 C 11.256809,5.3283826 11.593031,5 12.007782,5 z M 8.2059825,7.2462306 c 0.1680532,-0.00563 0.3665454,3.082e-4 0.5866975,0 l 3.23857,0 3.23857,0 c 0.881671,0.00121 1.330133,0.062858 1.33767,1.1231152 l 0,1.4440054 c 0.0023,0.6940168 0.355092,1.1001948 -1.33767,1.1001948 l -3.23857,0 -3.23857,0 c -1.3489021,0 -1.362626,-0.406178 -1.3611382,-1.1001948 l 0,-1.4440054 c 0,-0.9546769 0.2702811,-1.1062073 0.7744407,-1.1231152 z m 0.4224222,6.8991364 c 0.6567894,-0.0029 1.193887,0.444919 1.1968628,0.985591 -0.00276,0.542608 -0.5400734,0.981543 -1.1968628,0.985591 -0.6502004,-0.004 -1.174883,-0.443158 -1.173395,-0.985591 -0.00149,-0.540672 0.5231946,-0.988232 1.173395,-0.985591 z m 6.7587553,0 c 0.656789,-0.0029 1.169995,0.444919 1.173394,0.985591 -0.0035,0.542432 -0.516605,0.981366 -1.173394,0.985591 -0.65105,-0.0043 -1.198777,-0.443159 -1.196863,-0.985591 -0.002,-0.540672 0.545813,-0.988232 1.196863,-0.985591 z m -6.3832689,4.056968 3.0038909,0 3.003891,0 0.586698,0.733463 -7.1577095,0 0.5632296,-0.733463 z m -1.1264592,1.466925 8.2841681,0 0.586698,0.733464 -9.4340957,0 0.5632296,-0.733464 z"
   id="path7"
   inkscape:connector-curvature="0" /></svg>