<?xml version="1.0" encoding="UTF-8" standalone="no"?>
<svg
   xmlns:dc="http://purl.org/dc/elements/1.1/"
   xmlns:cc="http://creativecommons.org/ns#"
   xmlns:rdf="http://www.w3.org/1999/02/22-rdf-syntax-ns#"
   xmlns:svg="http://www.w3.org/2000/svg"
   xmlns="http://www.w3.org/2000/svg"
   xmlns:sodipodi="http://sodipodi.sourceforge.net/DTD/sodipodi-0.dtd"
   xmlns:inkscape="http://www.inkscape.org/namespaces/inkscape"
   version="1.1"
   width="24"
   id="recycling"
   viewBox="0 0 103.0043 103.0043"
   height="24"
   inkscape:version="0.48.2 r9819"
   sodipodi:docname="recycling.svg"
   style="fill:#32cd32;stroke:none">
  <metadata
     id="metadata19">
    <rdf:RDF>
      <cc:Work
         rdf:about="">
        <dc:format>image/svg+xml</dc:format>
        <dc:type
           rdf:resource="http://purl.org/dc/dcmitype/StillImage" />
      </cc:Work>
    </rdf:RDF>
  </metadata>
  <defs
     id="defs17" />
  <sodipodi:namedview
     pagecolor="#ffffff"
     bordercolor="#666666"
     borderopacity="1"
     objecttolerance="10"
     gridtolerance="10"
     guidetolerance="10"
     inkscape:pageopacity="0"
     inkscape:pageshadow="2"
     inkscape:window-width="995"
     inkscape:window-height="758"
     id="namedview15"
     showgrid="true"
     inkscape:zoom="12.660945"
     inkscape:cx="9.3199997"
     inkscape:cy="9.3199997"
     inkscape:window-x="0"
     inkscape:window-y="0"
     inkscape:window-maximized="0"
     inkscape:current-layer="recycling">
    <inkscape:grid
       type="xygrid"
       id="grid2996"
       empspacing="2"
       visible="true"
       enabled="true"
       snapvisiblegridlinesonly="true" />
  </sodipodi:namedview>
  <path
     d="M 68.061158,52.349648 86.91611,40.992571 95.406351,57.42174 c 1.984732,8.931293 -9.151819,12.128917 -18.193375,11.577602 L 68.061158,52.349648 z"
     id="path3"
     inkscape:connector-curvature="0"
     style="fill:#505050;fill-opacity:1" />
  <path
     d="m 63.760905,64.037512 -9.923658,17.531798 9.923658,17.86259 0.220526,-7.167091 9.041556,0 c 3.307886,0.330788 7.608139,-1.874469 9.262082,-4.96183 l 11.577602,-21.50126 c -3.748938,3.859201 -8.710767,4.851567 -14.444437,4.851567 l -15.32654,0 -0.330789,-6.615773 z"
     id="path5"
     inkscape:connector-curvature="0"
     style="fill:#505050;fill-opacity:1" />
  <path
     d="M 41.598067,42.315726 22.52259,31.289438 32.666774,15.852636 C 39.39281,9.7881775 47.772788,17.94763 51.631989,26.107083 L 41.487804,42.315726 z"
     id="path7"
     inkscape:connector-curvature="0"
     style="fill:#505050;fill-opacity:1" />
  <path
     d="m 53.837247,40.441257 20.178106,0.110262 10.695499,-17.311271 -6.395247,3.197623 -4.410515,-7.938927 c -1.323154,-2.977097 -5.292618,-5.733668 -8.82103,-5.623406 l -24.368096,0.220526 c 5.182355,1.54368 8.490242,5.40288 11.246814,10.36471 l 7.497875,13.452072 -5.623406,3.528412 z"
     id="path9"
     inkscape:connector-curvature="0"
     style="fill:#505050;fill-opacity:1" />
  <path
     d="M 7.8576275,41.433622 13.811823,45.9544 8.298679,55.878059 c -2.8668348,5.292618 1.984732,10.033922 4.961829,11.577603 2.977098,1.653943 7.608138,1.874469 12.018654,1.874469 L 33.107826,56.760162 38.951758,59.847523 28.697311,41.213097 7.8576275,41.433622 z"
     id="path11"
     inkscape:connector-curvature="0"
     style="fill:#505050;fill-opacity:1" />
  <path
     d="m 8.7397305,65.581192 12.6802305,22.93468 c 2.536046,3.197623 7.387613,3.969463 12.349442,3.8592 l 13.341808,0 0,-21.721787 -25.360462,-0.220526 c -3.8592,0.220526 -9.041555,-0.551314 -13.0110185,-4.851567 z"
     id="path13"
     inkscape:connector-curvature="0"
     style="fill:#505050;fill-opacity:1" />
</svg>
