<?xml version="1.0" encoding="UTF-8" standalone="no"?>
<!-- Created with Inkscape (http://www.inkscape.org/) -->
<svg
   xmlns:svg="http://www.w3.org/2000/svg"
   xmlns="http://www.w3.org/2000/svg"
   version="1.0"
   width="32"
   height="32"
   id="symbol-religion">
  <defs
     id="defs4" />
  <g
     id="layer1">
    <g
       transform="translate(-23.005076,-11.785714)"
       id="g2212">
      <g
         id="g3385">
        <rect
           width="2.6737955"
           height="14.220004"
           x="30.11763"
           y="13.291089"
           transform="matrix(0.999933,-1.1572613e-2,1.1572613e-2,0.999933,0,0)"
           id="rect3279"
           style="fill:#000000;fill-opacity:1;stroke:none;stroke-width:1;stroke-linecap:square;stroke-linejoin:miter;stroke-miterlimit:1;stroke-dasharray:none;stroke-dashoffset:18;stroke-opacity:1" />
        <rect
           width="9.8616724"
           height="2.3008447"
           x="26.513855"
           y="16.258488"
           transform="matrix(0.9999009,-1.4081469e-2,9.5106519e-3,0.9999548,0,0)"
           id="rect3281"
           style="fill:#000000;fill-opacity:1;stroke:none;stroke-width:1;stroke-linecap:square;stroke-linejoin:miter;stroke-miterlimit:1;stroke-dasharray:none;stroke-dashoffset:18;stroke-opacity:1" />
      </g>
    </g>
    <path
       d="M 29.283943,6.5690673 L 27.583702,6.2113774 L 26.689575,7.7011263 L 26.504323,5.9735758 L 24.811169,5.5835274 L 26.396958,4.8735191 L 26.244679,3.1427327 L 27.40997,4.431471 L 29.008993,3.7518149 L 28.143438,5.2583254 L 29.283943,6.5690673 z"
       id="path273"
       style="font-size:12px;fill:#000000;fill-rule:evenodd;stroke-width:1pt" />
    <path
       d="M 29.925303,10.970691 C 28.415734,14.296492 24.454579,15.749476 21.119079,14.204208 C 17.783611,12.658971 16.330657,8.6977845 17.875925,5.362316 C 18.664084,3.6610523 19.953915,2.4919215 21.774639,1.8538392 C 21.565219,2.0309379 21.358,2.2146372 21.130917,2.4489716 C 18.778927,4.8762318 18.840036,8.7550511 21.267266,11.10704 C 23.694526,13.45903 27.573345,13.397952 29.925303,10.970691 z"
       id="path278"
       style="font-size:12px;fill:#000000;fill-rule:evenodd;stroke-width:1pt" />
    <g
       transform="matrix(6.562822e-2,0,0,6.562822e-2,0.8399029,16.976311)"
       id="g3335">
      <path
         d="M 110.986,16.235 C 111.176,15.1 111.989,15.68 111.986,16.235 C 117.615,20.462 122.685,22.846 126.985,28.234 C 130.577,32.735 132.24,39.903 136.983,45.232 C 147.447,56.987 167.468,61.769 182.978,60.23 C 203.518,58.191 219.115,40.292 217.973,15.236 C 223.04,17.449 226.464,21.651 229.972,25.235 C 233.9,29.248 239.643,33.822 239.97,41.233 C 240.88,61.851 223.887,79.922 205.975,82.228 C 182.026,85.311 159.201,71.005 146.982,60.231 C 130.861,46.016 121.354,30.583 110.986,16.235 z"
         id="path6"
         style="fill-rule:evenodd" />
      <path
         d="M 3,150.219 C 5.805,150.273 7.575,153.389 9.999,155.218 C 19.038,162.039 32.578,169.417 46.995,173.216 C 64.65,177.868 83.548,180.324 94.989,172.216 C 105.909,164.477 113.333,135.49 95.989,127.222 C 81.845,120.48 72.268,135.91 54.994,133.221 C 46.629,131.919 41.371,122.995 35.996,117.223 C 34.296,115.398 31.214,114.807 31.996,112.224 C 46.477,113.754 57.142,106.039 65.992,100.225 C 75.44,94.017 85.45,87.486 83.99,70.229 C 68.012,63.626 48.387,66.302 30.997,71.229 C 27.38,72.254 23.837,74.447 21.998,74.229 C 12.378,73.088 6.979,58.357 0,53.231 C 17.235,46.76 33.888,43.066 53.993,45.232 C 67.707,46.71 81.101,56.97 90.989,67.229 C 97.691,74.183 108.017,85.425 104.987,101.225 C 104.704,102.699 101.558,107.808 99.987,110.224 C 96.845,115.058 91.867,116.511 97.987,122.223 C 101.493,125.494 108.431,130.261 110.986,133.221 C 129.213,122.569 144.141,105.821 175.977,108.224 C 194.958,109.658 205.175,117.424 215.972,128.222 C 225.794,138.044 240.515,149.654 239.969,163.217 C 239.392,177.58 223.815,172.551 212.973,179.215 C 205.961,183.525 204.728,187.712 202.974,198.213 C 197.006,195.16 194.527,192.765 190.976,189.214 C 187.514,185.752 182.811,181.585 181.977,177.216 C 180.452,169.23 185.006,160.854 188.976,158.218 C 197.84,152.331 215.283,156.683 217.972,145.22 C 218.427,143.279 218.101,137.555 217.972,137.221 C 215.357,130.433 194.415,129.357 185.976,130.222 C 160.601,132.821 141.519,149.65 126.984,162.217 C 129.68,187.138 118.255,200.904 91.988,199.213 C 53.93,196.763 20.814,171.461 3,150.219 z"
         id="path8"
         style="fill-rule:evenodd" />
      <rect
         width="23.318001"
         height="23.318001"
         x="161.842"
         y="4.829"
         transform="matrix(0.7071,-0.7071,0.7071,0.7071,39.1583,127.513)"
         id="rect10"
         style="fill-rule:evenodd" />
    </g>
    <g
       transform="matrix(0.1651987,0,0,0.1651987,-10.923567,-116.79723)"
       id="g2241">
      <path
         d="M 211.42857,805.48945 L 205.55357,811.36445 C 199.27471,812.32472 193.48535,814.79046 188.58482,818.3957 L 180.30357,818.3957 L 180.30357,826.73945 C 176.72181,831.62738 174.25999,837.36076 173.30357,843.61445 L 167.42857,849.48945 L 173.30357,855.36445 C 174.25999,861.61814 176.72181,867.38278 180.30357,872.2707 L 180.30357,880.61445 L 188.61607,880.61445 C 193.51172,884.21057 199.28448,886.68692 205.55357,887.6457 L 211.42857,893.5207 L 217.30357,887.6457 C 223.57266,886.68692 229.34543,884.21057 234.24107,880.61445 L 242.55357,880.61445 L 242.55357,872.3332 C 246.15648,867.43392 248.62493,861.64081 249.58482,855.36445 L 249.58482,855.3332 L 255.42857,849.48945 L 249.58482,843.6457 L 249.58482,843.61445 C 248.62493,837.33809 246.15648,831.57623 242.55357,826.67695 L 242.55357,818.3957 L 234.27232,818.3957 C 229.37179,814.79046 223.58243,812.32472 217.30357,811.36445 L 211.42857,805.48945 z"
         id="rect5307"
         style="fill:#000000;fill-opacity:1;stroke:none;stroke-width:10;stroke-linecap:round;stroke-linejoin:round;stroke-miterlimit:4;stroke-dasharray:none;stroke-dashoffset:0;stroke-opacity:1" />
      <path
         d="M 211.42857,814.73945 L 207.74107,818.42695 C 201.8906,819.11746 196.52243,821.43233 192.11607,824.8957 L 186.83482,824.8957 L 186.83482,830.1457 C 183.36569,834.54943 181.06248,839.92027 180.36607,845.7707 L 176.64732,849.48945 L 180.36607,853.2082 C 181.058,859.07069 183.35957,864.42171 186.83482,868.8332 L 186.83482,874.0832 L 192.08482,874.0832 C 196.49799,877.56183 201.8749,879.8911 207.74107,880.5832 L 211.42857,884.2707 L 215.11607,880.5832 C 220.98599,879.8925 226.35674,877.56374 230.77232,874.0832 L 236.02232,874.0832 L 236.02232,868.8332 C 239.50069,864.42036 241.79877,859.07385 242.49107,853.2082 L 246.20982,849.48945 L 242.49107,845.7707 C 241.79429,839.91711 239.49457,834.55077 236.02232,830.1457 L 236.02232,824.8957 L 230.74107,824.8957 C 226.33227,821.43041 220.97033,819.11605 215.11607,818.42695 L 211.42857,814.73945 z"
         id="path5297"
         style="fill:#ffffff;fill-opacity:1;stroke:none;stroke-width:10;stroke-linecap:round;stroke-linejoin:round;stroke-miterlimit:4;stroke-dasharray:none;stroke-dashoffset:0;stroke-opacity:1" />
      <path
         d="M 52.823528,44.588234 C 52.824501,48.877251 49.347839,52.354702 45.058823,52.354702 C 40.769806,52.354702 37.293144,48.877251 37.294117,44.588234 C 37.293144,40.299217 40.769806,36.821766 45.058823,36.821766 C 49.347839,36.821766 52.824501,40.299217 52.823528,44.588234 z"
         transform="matrix(3.5606061,0,0,3.5606061,50.995521,690.73749)"
         id="path5295"
         style="fill:#000000;fill-opacity:1;stroke:none;stroke-width:10;stroke-linecap:round;stroke-linejoin:round;stroke-miterlimit:4;stroke-dasharray:none;stroke-dashoffset:0;stroke-opacity:1" />
      <path
         d="M 181.96166,849.49865 L 240.90283,849.49865"
         id="path5319"
         style="fill:none;fill-rule:evenodd;stroke:#ffffff;stroke-width:4;stroke-linecap:butt;stroke-linejoin:miter;stroke-miterlimit:4;stroke-dasharray:none;stroke-opacity:1" />
      <path
         d="M 52.823528,44.588234 C 52.824501,48.877251 49.347839,52.354702 45.058823,52.354702 C 40.769806,52.354702 37.293144,48.877251 37.294117,44.588234 C 37.293144,40.299217 40.769806,36.821766 45.058823,36.821766 C 49.347839,36.821766 52.824501,40.299217 52.823528,44.588234 z"
         transform="matrix(1.5454546,0,0,1.5454546,141.79588,780.58955)"
         id="path5293"
         style="fill:#ffffff;fill-opacity:1;stroke:none;stroke-width:10;stroke-linecap:round;stroke-linejoin:round;stroke-miterlimit:4;stroke-dasharray:none;stroke-dashoffset:0;stroke-opacity:1" />
      <path
         d="M 190.59339,828.6598 L 232.27109,870.33749"
         id="path5323"
         style="fill:none;fill-rule:evenodd;stroke:#ffffff;stroke-width:4;stroke-linecap:butt;stroke-linejoin:miter;stroke-miterlimit:4;stroke-dasharray:none;stroke-opacity:1" />
      <path
         d="M 211.43224,878.96923 L 211.43224,820.02805"
         id="path5317"
         style="fill:none;fill-rule:evenodd;stroke:#ffffff;stroke-width:4;stroke-linecap:butt;stroke-linejoin:miter;stroke-miterlimit:4;stroke-dasharray:none;stroke-opacity:1" />
      <path
         d="M 190.59339,870.33749 L 232.27109,828.65979"
         id="path5321"
         style="fill:none;fill-rule:evenodd;stroke:#ffffff;stroke-width:4;stroke-linecap:butt;stroke-linejoin:miter;stroke-miterlimit:4;stroke-dasharray:none;stroke-opacity:1" />
      <path
         d="M 52.823528,44.588234 C 52.824501,48.877251 49.347839,52.354702 45.058823,52.354702 C 40.769806,52.354702 37.293144,48.877251 37.294117,44.588234 C 37.293144,40.299217 40.769806,36.821766 45.058823,36.821766 C 49.347839,36.821766 52.824501,40.299217 52.823528,44.588234 z"
         transform="translate(166.37342,804.9104)"
         id="path5291"
         style="fill:#000000;fill-opacity:1;stroke:none;stroke-width:10;stroke-linecap:round;stroke-linejoin:round;stroke-miterlimit:4;stroke-dasharray:none;stroke-dashoffset:0;stroke-opacity:1" />
    </g>
  </g>
</svg>
