<svg xmlns="http://www.w3.org/2000/svg" width="24" viewBox="10 0 108 138" height="24">
    <title>
        Restaraunt Map Icon
    </title>
    <path d="m 38.125,11.5 c -1.58782,0 -2.875,1.287181 -2.875,2.875 l 0,34.5 c 0,1.587819 1.28718,2.875 2.875,2.875 l 11.5,0 11.5,0 C 62.71282,51.75 64,50.462819 64,48.875 l 0,-34.5 C 64,12.787181 62.71282,11.5 61.125,11.5 c -1.58782,0 -2.875,1.287181 -2.875,2.875 l 0,31.625 -5.75,0 0,-31.625 c 0,-1.587819 -1.28718,-2.875 -2.875,-2.875 -1.58782,0 -2.875,1.287181 -2.875,2.875 L 46.75,46 41,46 41,14.375 C 41,12.787181 39.71282,11.5 38.125,11.5 z" fill="#4d4d4d"/>
    <path d="m 87,11.5 c -6.35127,0 -11.5,10.898725 -11.5,17.25 l 0,28.75 c 0,6.351272 8.221604,23 11.5,23 l 0,40.25 c 0,3.17564 2.57436,5.75 5.75,5.75 3.17564,0 5.75,-2.57436 5.75,-5.75 l 0,-57.5 0,-40.25 C 98.5,16.648725 93.35127,11.5 87,11.5 z" fill="#4d4d4d"/>
    <path d="m 43.875,51.75 0,69 c 0,3.17564 2.57436,5.75 5.75,5.75 3.17564,0 5.75,-2.57436 5.75,-5.75 l 0,-69 z" fill="#4d4d4d"/>
</svg>
