<?xml version="1.0" encoding="UTF-8"?>
<svg xmlns:xs="http://www.w3.org/2001/XMLSchema" xmlns:xlink="http://www.w3.org/1999/xlink" xmlns:inkscape="http://www.inkscape.org/namespaces/inkscape" xmlns:rdf="http://www.w3.org/1999/02/22-rdf-syntax-ns#" xmlns="http://www.w3.org/2000/svg" xmlns:svg="http://www.w3.org/2000/svg" xmlns:xi="http://www.w3.org/2001/XInclude" xmlns:cc="http://web.resource.org/cc/" xmlns:dc="http://purl.org/dc/elements/1.1/" version="1.1" baseProfile="full" width="18.64" id="symbol-roundabout_right" viewBox="0 0 507 507" height="18.64">
   <svg:g transform="translate(507,0) scale(-1,1)">
                <svg:path fill="blue" d="M507,253.5c0,140-113.5,253.5-253.5,253.5 S0,393.5,0,253.5S113.5,0,253.5,0S507,113.5,507,253.5z"/>
                <svg:path fill="#FFFFFF" d="M97.6,113.6l40.8-47.7c0,0,91.7,3.1,90.6,2.1 c-1.1-1,2.3,89.2,2.3,89.2l-49.8,33.2l-1.1-48.8c0,0-27.2,27-30.6,27c-3.4,0-27.2,61.2-27.2,61.2l-3.4,79.9L67,312.8v-73.6 l10.6-50.5l18.8-34.5l38.5-40.5"/>
                <svg:path fill="#FFFFFF" d="M459.6,190.5l19.7,59.6 c0,0-50.2,76.9-48.7,76.4c1.5-0.4-77.5-44.3-77.5-44.3l-2.6-59.8l42.3,24.3c0,0-9-37.2-7.2-40.1c1.8-2.9-38.3-54.9-38.3-54.9 l-66.6-44.3l24.3-46.2l63,38.1l37.7,35.3l19.8,34l14.7,53.9"/>
                <svg:path fill="#FFFFFF" d="M209.2,466.6l-60.7-16.1 c0,0-36.9-84-37.4-82.6c-0.4,1.5,79.4-40.7,79.4-40.7l51.5,30.6l-43.5,22.1c0,0,36.1,12.8,37.6,15.9c1.5,3.1,66.9-2,66.9-2 l73.5-31.5l25.4,45.6l-66.4,31.9l-50.2,12.3l-39.3-2L193,432.9"/>
            </svg:g>
</svg>