<svg xmlns="http://www.w3.org/2000/svg" width="18" height="18" viewBox="0 0 141.14998 141.15" enable-background="new 0 0 510.24 283.46">
    <g transform="translate(19.596 7.996)">
        <rect height="22.756" width="14.227" fill="#3c2415"/>
        <rect height="24.641" width="14.25" x="29.908" fill="#3c2415"/>
        <rect height="17.308" width="14.249" y="9.256" x="59.547" fill="#3c2415"/>
        <path d="m 80.615003,51.564 c 4.41,0 5.446,0.09 5.446,0.09 V 105.09 H 7.1130027 V 33.154 c 0,0 -0.503,-3.078 -2.498,-6.042 -1.995,-2.964 -4.50200001,-4.356 -4.50200001,-4.356 H 80.061003 c 0,0 0.554,24.731 0.554,28.808 z" fill="#3c2415"/>
        <path d="m 97.211003,110.693 c 0.914,2.187 2.321,4.128 2.321,4.128 H 3.8650027 c 0,0 1.581,-1.187 2.625,-4.959 1.044,-3.772 0.623,-4.772 0.623,-4.772 H 96.061003 c 0,0 0.142,3.194 1.15,5.603 z" fill="#3c2415"/>
        <rect height="10.333" width="95.667" y="114.821" x="3.865" fill="#3c2415"/>
        <rect height="40.886" width="25.279" y="64.204" x="39.213" fill="#fff"/>
        <circle transform="translate(-135.135 -88.513)" r="12.639" cy="152.717" cx="186.987" fill="#fff"/>
        <rect height="10.603" width="12.446" y="94.487" x="83.615" fill="#3c2415"/>
    </g>
</svg>
