<svg xmlns="http://www.w3.org/2000/svg" width="24" viewBox="0 0 566.52362 566.52362" height="24">
    <path d="m 94.420608,283.26181 70.815442,-94.4206 94.42061,23.60515 23.60515,47.2103" stroke="#505050" stroke-width="37.768" stroke-linecap="round" stroke-linejoin="round" fill="none"/>
    <path d="m 188.84121,472.10302 -23.60516,-94.4206 47.21031,-94.42061 47.2103,118.02576 70.81545,-23.60516" stroke="#505050" stroke-width="37.768" stroke-linecap="round" stroke-linejoin="round" fill="none"/>
    <path d="m 330.47211,236.05151 23.60515,47.2103 70.81546,-47.2103 70.81545,23.60515 23.60515,70.81545" stroke="#505050" stroke-width="35.408" stroke-linecap="round" stroke-linejoin="round" fill="none"/>
    <path d="m 401.28756,472.10302 -23.60515,-70.81545 70.81546,-70.81546 23.60515,94.42061 47.2103,0" stroke="#505050" stroke-width="37.768" stroke-linecap="round" stroke-linejoin="round" fill="none"/>
    <path d="M 8,4 A 2,2 0 1 1 4,4 2,2 0 1 1 8,4 z" transform="matrix(23.605 0 0 23.605 0 23.605)" fill="#505050"/>
    <path d="m 20,8 a 2,2 0 1 1 -4,0 2,2 0 1 1 4,0 z" transform="matrix(23.605 0 0 23.605 0 -23.605)" fill="#505050"/>
    <path d="m 377.68241,354.07727 118.02576,23.60515 -70.81545,-141.63091 0,0 z" fill="#505050" stroke="#505050" stroke-width="23.605" stroke-linecap="round" stroke-linejoin="round"/>
    <path d="m 188.84121,330.47212 47.2103,0 -23.60515,-118.02576 -47.2103,-23.60515 -23.60515,47.2103 z" fill="#505050" stroke="#505050" stroke-width="23.605"/>
</svg>
