<?xml version="1.0" encoding="UTF-8"?>
<svg xmlns:xs="http://www.w3.org/2001/XMLSchema" xmlns:xlink="http://www.w3.org/1999/xlink" xmlns:inkscape="http://www.inkscape.org/namespaces/inkscape" xmlns:rdf="http://www.w3.org/1999/02/22-rdf-syntax-ns#" xmlns="http://www.w3.org/2000/svg" xmlns:svg="http://www.w3.org/2000/svg" xmlns:xi="http://www.w3.org/2001/XInclude" xmlns:cc="http://web.resource.org/cc/" xmlns:dc="http://purl.org/dc/elements/1.1/" version="1.1" baseProfile="full" width="18.64" id="symbol-supermarket" viewBox="0 0 30 30" height="18.64">
   <svg:g transform="translate(0.5,1.5)">
            <svg:path style="fill:black;fill-opacity:1;stroke:none;stroke-width:0.158;stroke-linecap:round;stroke-linejoin:round;stroke-miterlimit:4;stroke-dasharray:none;stroke-opacity:0.9801324" d="M 13.711,19.263 C 13.711,19.754 13.319,20.153 12.836,20.153 C 12.353,20.153 11.962,19.754 11.962,19.263 C 11.962,18.771793 12.353,18.373 12.836,18.373 C 13.319,18.373 13.711,18.771 13.711,19.263 z"/>
            <svg:path style="fill:none;fill-rule:evenodd;stroke:black;stroke-width:1;stroke-linecap:butt;stroke-linejoin:miter;stroke-miterlimit:4;stroke-dasharray:none;stroke-opacity:1" d="M 1.496,6.889 L 16.443,2.987 L 25.387,6.367 L 7.7960,10.054 L 1.496,6.889 z"/>
            <svg:path style="fill:none;fill-rule:evenodd;stroke:black;stroke-width:1;stroke-linecap:butt;stroke-linejoin:miter;stroke-miterlimit:4;stroke-dasharray:none;stroke-opacity:1" d="M 1.540,16.974 L 7.7331,20.521 L 22.605,17.745 L 14.549,13.961 L 1.540,16.974 z"/>
            <svg:path style="fill:none;fill-rule:evenodd;stroke:black;stroke-width:1;stroke-linecap:butt;stroke-linejoin:miter;stroke-miterlimit:4;stroke-dasharray:none;stroke-opacity:1" d="M 7.812,10.136 L 7.812,20.500"/>
            <svg:path style="fill:none;fill-rule:evenodd;stroke:black;stroke-width:1;stroke-linecap:round;stroke-linejoin:miter;stroke-miterlimit:4;stroke-dasharray:none;stroke-opacity:1" d="M 22.841,21.164 L 26.462,6.6923 C 26.610,5.3945 27.232,4.939 28.105,4.932"/>
            <svg:path style="fill:none;fill-rule:evenodd;stroke:black;stroke-width:0.90399998;stroke-linecap:round;stroke-linejoin:miter;stroke-miterlimit:4;stroke-dasharray:none;stroke-opacity:1" d="M 14.1281,17.1309 L 16.5851,2.98845 C 16.5652,2.09899 16.8043,1.34902 17.8289,1.02204"/>
            <svg:path style="fill:none;fill-rule:evenodd;stroke:black;stroke-width:1;stroke-linecap:butt;stroke-linejoin:miter;stroke-miterlimit:4;stroke-dasharray:none;stroke-opacity:1" d="M 0.761,16.846 L 0.761,6.781"/>
            <svg:path style="fill:none;fill-rule:evenodd;stroke:black;stroke-width:0.160;stroke-linecap:butt;stroke-linejoin:miter;stroke-opacity:1" d="M 17.707,0.991 C 17.727,0.991 17.748,0.991 17.707,0.991 z"/>
            <svg:path style="fill:none;fill-rule:evenodd;stroke:black;stroke-width:1.27;stroke-linecap:round;stroke-linejoin:miter;stroke-miterlimit:4;stroke-dasharray:none;stroke-opacity:1" d="M 17.707,1.022 L 28.196,4.902"/>
            <svg:path style="fill:none;fill-rule:evenodd;stroke:black;stroke-width:0.732;stroke-linecap:butt;stroke-linejoin:miter;stroke-miterlimit:4;stroke-dasharray:none;stroke-opacity:1" d="M 14.009,17.240 L 3.853,20.726 C 1.229,21.787 3.228,23.365 4.126,23.909 C 5.447,24.711 6.096,25.159 9.340,24.728 C 13.993,24.109 22.709,21.211 22.709,21.211"/>
            <svg:path style="fill:black;fill-opacity:1;stroke:none;stroke-width:0.159;stroke-linecap:round;stroke-linejoin:round;stroke-miterlimit:4;stroke-dasharray:none;stroke-opacity:0.980" d="M 5.601,21.945 C 5.601,22.437 5.209,22.834 4.727,22.835 C 4.244,22.835 3.853,22.437 3.853,21.945 C 3.853,21.454 4.244,21.056 4.727,21.056 C 5.2095,21.056 5.601,21.454 5.601,21.945 z"/>
            <svg:path style="fill:black;fill-opacity:1;stroke:none;stroke-width:0.159;stroke-linecap:round;stroke-linejoin:round;stroke-miterlimit:4;stroke-dasharray:none;stroke-opacity:0.980" d="M 11.254,25.962 C 11.254,26.453 10.863,26.852 10.380,26.852 C 9.898,26.852 9.506,26.453 9.506,25.962 C 9.506,25.471 9.898,25.072 10.380,25.072 C 10.863,25.072 11.254,25.471 11.254,25.962 z"/>
            <svg:path style="fill:black;fill-opacity:1;stroke:none;stroke-width:0.159;stroke-linecap:round;stroke-linejoin:round;stroke-miterlimit:4;stroke-dasharray:none;stroke-opacity:0.980" d="M 21.926,23.143 C 21.926,23.635 21.535,24.033 21.052,24.033 C 20.569,24.033 20.177,23.632 20.177,23.143 C 20.177,22.652 20.569,22.253 21.052,22.253 C 21.535,22.253 21.926,22.652 21.926,23.143 z"/>
          </svg:g>
</svg>