<?xml version="1.0" encoding="UTF-8" standalone="no"?>
<!-- Created with Inkscape (http://www.inkscape.org/) -->

<svg
   xmlns:dc="http://purl.org/dc/elements/1.1/"
   xmlns:cc="http://creativecommons.org/ns#"
   xmlns:rdf="http://www.w3.org/1999/02/22-rdf-syntax-ns#"
   xmlns:svg="http://www.w3.org/2000/svg"
   xmlns="http://www.w3.org/2000/svg"
   xmlns:sodipodi="http://sodipodi.sourceforge.net/DTD/sodipodi-0.dtd"
   xmlns:inkscape="http://www.inkscape.org/namespaces/inkscape"
   version="1.0"
   width="24"
   height="24"
   id="symbol-cafe"
   inkscape:version="0.48.2 r9819"
   sodipodi:docname="car_rental.svg">
  <title
     id="title2988">Cafe Map Icon</title>
  <metadata
     id="metadata11">
    <rdf:RDF>
      <cc:Work
         rdf:about="">
        <dc:format>image/svg+xml</dc:format>
        <dc:type
           rdf:resource="http://purl.org/dc/dcmitype/StillImage" />
        <dc:title>Cafe Map Icon</dc:title>
        <dc:creator>
          <cc:Agent>
            <dc:title>Yury Melnichek</dc:title>
          </cc:Agent>
        </dc:creator>
        <dc:source>mapsforhumans.com</dc:source>
        <cc:license
           rdf:resource="http://creativecommons.org/licenses/by-sa/3.0/" />
      </cc:Work>
      <cc:License
         rdf:about="http://creativecommons.org/licenses/by-sa/3.0/">
        <cc:permits
           rdf:resource="http://creativecommons.org/ns#Reproduction" />
        <cc:permits
           rdf:resource="http://creativecommons.org/ns#Distribution" />
        <cc:requires
           rdf:resource="http://creativecommons.org/ns#Notice" />
        <cc:requires
           rdf:resource="http://creativecommons.org/ns#Attribution" />
        <cc:permits
           rdf:resource="http://creativecommons.org/ns#DerivativeWorks" />
        <cc:requires
           rdf:resource="http://creativecommons.org/ns#ShareAlike" />
      </cc:License>
    </rdf:RDF>
  </metadata>
  <sodipodi:namedview
     pagecolor="#ffffff"
     bordercolor="#666666"
     borderopacity="1"
     objecttolerance="10"
     gridtolerance="10"
     guidetolerance="10"
     inkscape:pageopacity="0"
     inkscape:pageshadow="2"
     inkscape:window-width="1298"
     inkscape:window-height="819"
     id="namedview9"
     showgrid="true"
     showguides="true"
     inkscape:guide-bbox="true"
     inkscape:zoom="30.085005"
     inkscape:cx="8.4373846"
     inkscape:cy="13.633601"
     inkscape:window-x="0"
     inkscape:window-y="0"
     inkscape:window-maximized="0"
     inkscape:current-layer="symbol-cafe">
    <inkscape:grid
       type="xygrid"
       id="grid2986"
       empspacing="2"
       visible="true"
       enabled="true"
       snapvisiblegridlinesonly="true" />
  </sodipodi:namedview>
  <defs
     id="defs2230" />
  <path
     style="fill:#4d4d4d;fill-opacity:1;fill-rule:evenodd;stroke:none"
     d="M 5 8 L 3 15 L 3 20 L 4 20 L 4 23 L 7 23 L 7 20 L 17 20 L 17 23 L 20 23 L 20 20 L 21 20 L 21 15 L 19 8 L 5 8 z M 6 9 L 18 9 L 19.46875 14 L 4.53125 14 L 6 9 z M 5.5 16 C 6.3284271 16 7 16.671573 7 17.5 C 7 18.328427 6.3284271 19 5.5 19 C 4.6715729 19 4 18.328427 4 17.5 C 4 16.671573 4.6715729 16 5.5 16 z M 18.46875 16 C 19.297177 16 19.96875 16.671573 19.96875 17.5 C 19.96875 18.328427 19.297177 19 18.46875 19 C 17.640323 19 16.96875 18.328427 16.96875 17.5 C 16.96875 16.671573 17.640323 16 18.46875 16 z "
     id="rect3008" />
  <rect
     style="fill:#4d4d4d;fill-opacity:1;fill-rule:evenodd;stroke:none"
     id="rect3810"
     width="3"
     height="3"
     x="4"
     y="1" />
  <rect
     style="fill:#4d4d4d;fill-opacity:1;fill-rule:evenodd;stroke:none"
     id="rect3812"
     width="3"
     height="3"
     x="7"
     y="4" />
  <rect
     style="fill:#4d4d4d;fill-opacity:1;fill-rule:evenodd;stroke:none"
     id="rect3814"
     width="3"
     height="3"
     x="10"
     y="1" />
  <rect
     style="fill:#4d4d4d;fill-opacity:1;fill-rule:evenodd;stroke:none"
     id="rect3816"
     width="3"
     height="3"
     x="13"
     y="4" />
  <rect
     style="fill:#4d4d4d;fill-opacity:1;fill-rule:evenodd;stroke:none"
     id="rect3818"
     width="3"
     height="3"
     x="16"
     y="1" />
</svg>
