<svg xmlns="http://www.w3.org/2000/svg" width="24" viewBox="0 0 566.52362 566.52362" height="24">
    <g>
        <path d="M -3.6666666e-6,23.605152 C 132.18885,89.699577 198.28327,89.699577 330.47213,23.605152 l 0,99.141638 c 0,132.18885 -33.04721,330.47212 -165.23607,330.47212 C 33.047209,453.21891 -3.6666666e-6,254.93564 -3.6666666e-6,122.74679 z" fill="#505050" transform="matrix(.842 -.226 .226 .842 5.856 169.628)"/>
        <path d="m 99.14164,171.19876 c 42.57148,13.39036 33.23879,17.62116 33.04721,50.68966 -61.944948,-13.64168 -62.935868,-14.77107 -99.141643,0 0,-15.73317 32.925183,-50.68966 66.094433,-50.68966 z" fill="#fff" transform="matrix(.842 -.226 .226 .842 5.856 169.628)"/>
        <path d="m 231.33048,171.19876 c -33.04721,17.64245 -33.04721,17.64245 -33.04721,50.68966 50.48458,-18.28979 63.53582,-14.62664 99.14165,0 0,-15.73317 -32.92519,-50.68966 -66.09444,-50.68966 z" fill="#fff" transform="matrix(.842 -.226 .226 .842 5.856 169.628)"/>
        <path d="m 231.33048,354.07726 c -29.3753,-33.45907 -102.81355,-37.44952 -132.18884,0 0,-66.09442 132.18884,-66.09442 132.18884,0 z" fill="#fff" transform="matrix(.842 -.226 .226 .842 5.856 169.628)"/>
    </g>
    <g>
        <path d="m 377.68241,23.605152 c 132.18886,66.094425 198.28328,66.094425 330.47214,0 l 0,99.141638 c 0,132.18885 -33.04721,330.47212 -165.23607,330.47212 -132.18885,0 -165.23607,-198.28327 -165.23607,-330.47212 z" fill="#505050" transform="matrix(.842 .226 -.226 .842 -24.212 -67.594)"/>
        <path d="m 401.28756,70.815452 c 113.30474,51.568178 169.9571,51.568178 283.26184,0 l 0,77.352268 c 0,103.13635 -28.32619,276.72499 -141.63093,276.72499 -113.30473,0 -141.63091,-173.58864 -141.63091,-276.72499 z" fill="#fff" transform="matrix(.842 .226 -.226 .842 -24.212 -67.594)"/>
        <path d="m 472.10302,221.88842 c 42.57148,-13.39036 33.23879,-17.62116 33.04721,-50.68966 -61.94495,13.64168 -62.93587,14.77107 -99.14165,0 0,15.73317 32.92519,50.68966 66.09444,50.68966 z" fill="#505050" transform="matrix(.842 .226 -.226 .842 -24.212 -67.594)"/>
        <path d="m 609.0129,304.50645 c -29.3753,33.45907 -102.81355,37.44952 -132.18884,0 0,66.09442 132.18884,66.09442 132.18884,0 z" fill="#505050" transform="matrix(.842 .226 -.226 .842 -24.212 -67.594)"/>
        <path d="m 590.12877,221.88842 c -42.57148,-13.39036 -33.23879,-17.62116 -33.04721,-50.68966 61.94495,13.64168 62.93587,14.77107 99.14165,0 0,15.73317 -32.92519,50.68966 -66.09444,50.68966 z" fill="#505050" transform="matrix(.842 .226 -.226 .842 -24.212 -67.594)"/>
    </g>
</svg>
