<?xml version="1.0" encoding="UTF-8" standalone="no"?>
<svg
   xmlns:dc="http://purl.org/dc/elements/1.1/"
   xmlns:cc="http://creativecommons.org/ns#"
   xmlns:rdf="http://www.w3.org/1999/02/22-rdf-syntax-ns#"
   xmlns:svg="http://www.w3.org/2000/svg"
   xmlns="http://www.w3.org/2000/svg"
   xmlns:sodipodi="http://sodipodi.sourceforge.net/DTD/sodipodi-0.dtd"
   xmlns:inkscape="http://www.inkscape.org/namespaces/inkscape"
   version="1.1"
   width="24"
   id="theatre"
   viewBox="0 0 566.52362 566.52362"
   height="24"
   inkscape:version="0.48.2 r9819"
   sodipodi:docname="theatre.svg">
  <metadata
     id="metadata37">
    <rdf:RDF>
      <cc:Work
         rdf:about="">
        <dc:format>image/svg+xml</dc:format>
        <dc:type
           rdf:resource="http://purl.org/dc/dcmitype/StillImage" />
      </cc:Work>
    </rdf:RDF>
  </metadata>
  <defs
     id="defs35" />
  <sodipodi:namedview
     pagecolor="#ffffff"
     bordercolor="#666666"
     borderopacity="1"
     objecttolerance="10"
     gridtolerance="10"
     guidetolerance="10"
     inkscape:pageopacity="0"
     inkscape:pageshadow="2"
     inkscape:window-width="977"
     inkscape:window-height="658"
     id="namedview33"
     showgrid="true"
     inkscape:zoom="13.240134"
     inkscape:cx="12.362941"
     inkscape:cy="14.034139"
     inkscape:window-x="0"
     inkscape:window-y="0"
     inkscape:window-maximized="0"
     inkscape:current-layer="theatre">
    <inkscape:grid
       type="xygrid"
       id="grid3014"
       empspacing="2"
       visible="true"
       enabled="true"
       snapvisiblegridlinesonly="true" />
  </sodipodi:namedview>
  <g
     id="g3816"
     transform="matrix(0.84170782,-0.22553493,0.22553493,0.84170782,5.8561786,169.6283)">
    <path
       sodipodi:nodetypes="cccccc"
       inkscape:connector-curvature="0"
       id="rect3016"
       d="M -3.6666666e-6,23.605152 C 132.18885,89.699577 198.28327,89.699577 330.47213,23.605152 l 0,99.141638 c 0,132.18885 -33.04721,330.47212 -165.23607,330.47212 C 33.047209,453.21891 -3.6666666e-6,254.93564 -3.6666666e-6,122.74679 z"
       style="fill:#505050;fill-opacity:1;stroke:none" />
    <path
       sodipodi:nodetypes="cccc"
       inkscape:connector-curvature="0"
       id="rect3019"
       d="m 99.14164,171.19876 c 42.57148,13.39036 33.23879,17.62116 33.04721,50.68966 -61.944948,-13.64168 -62.935868,-14.77107 -99.141643,0 0,-15.73317 32.925183,-50.68966 66.094433,-50.68966 z"
       style="fill:#ffffff;fill-opacity:1;stroke:none" />
    <path
       style="fill:#ffffff;fill-opacity:1;stroke:none"
       d="m 231.33048,171.19876 c -33.04721,17.64245 -33.04721,17.64245 -33.04721,50.68966 50.48458,-18.28979 63.53582,-14.62664 99.14165,0 0,-15.73317 -32.92519,-50.68966 -66.09444,-50.68966 z"
       id="path3024"
       inkscape:connector-curvature="0"
       sodipodi:nodetypes="cccc" />
    <path
       sodipodi:nodetypes="ccc"
       inkscape:connector-curvature="0"
       id="rect3026"
       d="m 231.33048,354.07726 c -29.3753,-33.45907 -102.81355,-37.44952 -132.18884,0 0,-66.09442 132.18884,-66.09442 132.18884,0 z"
       style="fill:#ffffff;fill-opacity:1;stroke:none" />
  </g>
  <g
     id="g3809"
     transform="matrix(0.84170782,0.22553493,-0.22553493,0.84170782,-24.211815,-67.593688)"
     inkscape:transform-center-x="1.9163805"
     inkscape:transform-center-y="3.1686007">
    <path
       style="fill:#505050;fill-opacity:1;stroke:none"
       d="m 377.68241,23.605152 c 132.18886,66.094425 198.28328,66.094425 330.47214,0 l 0,99.141638 c 0,132.18885 -33.04721,330.47212 -165.23607,330.47212 -132.18885,0 -165.23607,-198.28327 -165.23607,-330.47212 z"
       id="path3029"
       inkscape:connector-curvature="0"
       sodipodi:nodetypes="cccccc" />
    <path
       sodipodi:nodetypes="cccccc"
       inkscape:connector-curvature="0"
       id="path3037"
       d="m 401.28756,70.815452 c 113.30474,51.568178 169.9571,51.568178 283.26184,0 l 0,77.352268 c 0,103.13635 -28.32619,276.72499 -141.63093,276.72499 -113.30473,0 -141.63091,-173.58864 -141.63091,-276.72499 z"
       style="fill:#ffffff;fill-opacity:1;stroke:none" />
    <path
       style="fill:#505050;fill-opacity:1;stroke:none"
       d="m 472.10302,221.88842 c 42.57148,-13.39036 33.23879,-17.62116 33.04721,-50.68966 -61.94495,13.64168 -62.93587,14.77107 -99.14165,0 0,15.73317 32.92519,50.68966 66.09444,50.68966 z"
       id="path3031"
       inkscape:connector-curvature="0"
       sodipodi:nodetypes="cccc" />
    <path
       style="fill:#505050;fill-opacity:1;stroke:none"
       d="m 609.0129,304.50645 c -29.3753,33.45907 -102.81355,37.44952 -132.18884,0 0,66.09442 132.18884,66.09442 132.18884,0 z"
       id="path3035"
       inkscape:connector-curvature="0"
       sodipodi:nodetypes="ccc" />
    <path
       sodipodi:nodetypes="cccc"
       inkscape:connector-curvature="0"
       id="path3807"
       d="m 590.12877,221.88842 c -42.57148,-13.39036 -33.23879,-17.62116 -33.04721,-50.68966 61.94495,13.64168 62.93587,14.77107 99.14165,0 0,15.73317 -32.92519,50.68966 -66.09444,50.68966 z"
       style="fill:#505050;fill-opacity:1;stroke:none" />
  </g>
</svg>
