<svg xmlns="http://www.w3.org/2000/svg" width="24" viewBox="0 0 257.51074 257.51074" height="24">
    <path style="text-indent:0;text-align:start;line-height:normal;text-transform:none;block-progression:tb;-inkscape-font-specification:Sans" d="m 29.108405,75.107298 c -6.198355,10e-7 -10.742861,4.097492 -13.706217,8.717811 -2.963356,4.62032 -4.672574,10.38228 -4.672574,16.765021 l 0,58.67758 c 0.511608,4.36116 4.326807,7.98184 8.410633,7.98184 4.083827,0 7.899026,-3.62068 8.410633,-7.98184 l 0,-58.67758 c 0,-2.849692 0.782822,-5.162827 1.557525,-6.370707 0.340944,-0.531583 0.55023,-0.941724 0.62301,-1.005901 l 4.361069,0 c -0.250261,48.650038 -0.62301,92.668558 -0.62301,142.837988 0.328596,5.73507 5.252975,10.71879 10.591168,10.71879 5.338192,0 10.262571,-4.98372 10.591167,-10.71879 l 0,-64.37769 8.722138,0 0,64.37769 c 0.328596,5.73507 5.252974,10.71879 10.591167,10.71879 5.338193,0 10.262572,-4.98372 10.591168,-10.71879 C 84.935971,188.9957 83.8758,136.67802 83.933272,93.213522 l 4.361069,0 c 0.062,0.05075 0.327205,0.241995 0.62301,0.6706 0.655536,0.949829 1.557525,2.954509 1.557525,5.700108 l 0,59.68348 c 0.511605,4.36116 4.326806,7.98184 8.410632,7.98184 4.083832,0 7.899032,-3.62068 8.410632,-7.98184 l 0,-59.68348 c 0,-6.336955 -1.59004,-11.96332 -4.67257,-16.429722 -3.082531,-4.466401 -7.902173,-8.047209 -13.706219,-8.04721 z" color="#000" fill="#505050" overflow="visible" enable-background="accumulate" font-family="Sans"/>
    <path d="M 6,5 A 2,2 0 1 1 2,5 2,2 0 1 1 6,5 z" transform="matrix(10.73 0 0 10.73 16.094 -10.73)" fill="#505050"/>
    <rect width="23.503" height="225.322" x="117.004" y="21.459" fill="#505050"/>
    <path style="text-indent:0;text-align:start;line-height:normal;text-transform:none;block-progression:tb;-inkscape-font-specification:Sans" d="M 16.40625 7.25 C 15.622227 7.25 15.006682 7.810696 14.8125 8.5625 L 13.28125 14.8125 A 0.75007499 0.75007499 0 1 0 14.71875 15.1875 L 16.28125 8.90625 C 16.335122 8.8275442 16.45542 8.75 16.40625 8.75 L 16.78125 8.75 L 16.84375 8.75 L 15 18 L 16.15625 18 C 16.146991 19.309483 16.125 20.595045 16.125 22 C 16.155626 22.534509 16.59623 23 17.09375 23 C 17.591267 23 18.063124 22.534509 18.09375 22 L 18.09375 18 L 18.90625 18 L 18.90625 22 C 18.936876 22.534509 19.408731 23 19.90625 23 C 20.403769 23 20.844374 22.534509 20.875 22 C 20.885437 20.706551 20.878479 19.346628 20.875 18 L 22 18 L 20.15625 8.75 L 20.6875 8.75 C 20.79513 8.75 20.817416 8.7479622 20.84375 8.75 C 20.844706 8.7618178 20.887225 8.821202 20.90625 8.875 C 20.92383 8.9247105 20.879068 8.8703251 20.9375 9 L 22.28125 15.15625 A 0.75007499 0.75007499 0 1 0 23.71875 14.84375 L 22.34375 8.53125 L 22.34375 8.46875 L 22.3125 8.40625 C 22.322668 8.4288155 22.302578 8.1250965 22.03125 7.78125 C 21.759922 7.4374035 21.239787 7.25 20.6875 7.25 L 20.0625 7.25 L 16.78125 7.25 L 16.40625 7.25 z" transform="scale(10.73)" color="#000" fill="#505050" overflow="visible" enable-background="accumulate" font-family="Sans"/>
    <path transform="matrix(10.73 0 0 10.73 156.25 -10.73)" d="M 6,5 A 2,2 0 1 1 2,5 2,2 0 1 1 6,5 z" fill="#505050"/>
</svg>
