<?xml version="1.0" encoding="UTF-8"?>
<svg xmlns:xs="http://www.w3.org/2001/XMLSchema" xmlns:xlink="http://www.w3.org/1999/xlink" xmlns:inkscape="http://www.inkscape.org/namespaces/inkscape" xmlns:rdf="http://www.w3.org/1999/02/22-rdf-syntax-ns#" xmlns="http://www.w3.org/2000/svg" xmlns:svg="http://www.w3.org/2000/svg" xmlns:xi="http://www.w3.org/2001/XInclude" xmlns:cc="http://web.resource.org/cc/" xmlns:dc="http://purl.org/dc/elements/1.1/" version="1.1" baseProfile="full" width="18.64" id="symbol-traffic_signal" viewBox="0 0 550 550" height="18.64">
   <svg:g transform="translate(167,0)">
                <svg:path d="M212.1,105c0,58-47.5,105-106,105c-58.6,0-106-47-106-105 C0,47,47.5,0,106,0C164.6,0,212.1,47,212.1,105z"/>
                <svg:path d="M212.1,452.3c0,58-47.5,105-106,105c-58.6,0-106-47-106-105 c0-58,47.5-105,106-105C164.6,347.3,212.1,394.3,212.1,452.3z"/>
                <svg:path d="M211.3,458.9H0V106.7h211.3V458.9z"/>
                <svg:path fill="red" d="M190,103c0,46.4-37.6,84-84,84 c-46.4,0-84-37.6-84-84s37.6-84,84-84C152.4,19,190,56.6,190,103z"/>
                <svg:path fill="limegreen" d="M190,455c0,46.4-37.6,84-84,84 c-46.4,0-84-37.6-84-84c0-46.4,37.6-84,84-84C152.4,371.1,190,408.7,190,455z"/>
                <svg:path fill="yellow" d="M190,279c0,46.4-37.6,84-84,84 c-46.4,0-84-37.6-84-84c0-46.4,37.6-84,84-84C152.4,195,190,232.6,190,279z"/>
            </svg:g>
</svg>