<?xml version="1.0" encoding="UTF-8"?>
<svg width="19" height="19" version="1.1" viewBox="0 0 19 19" xml:space="preserve" xmlns="http://www.w3.org/2000/svg">
 <path d="m14.479 7.7148h-1.1096c0.24895-0.41964 0.3983-0.9033 0.3983-1.4226 0-1.572-1.2732-2.8452-2.8452-2.8452-0.24183 0-0.46944 0.035565-0.69704 0.092459-0.58324-0.48365-1.323-0.7895-2.148-0.7895-1.3443 0-2.4966 0.7895-3.0372 1.9275-1.1238 0.37698-1.9417 1.4296-1.9417 2.6815 0 1.323 0.91042 2.4255 2.1337 2.7456v6.1454h7.8239v-1.4226h1.4226c0.78239 0 1.4226-0.64013 1.4226-1.4226v-4.2676c0-0.78239-0.64013-1.4226-1.4226-1.4226zm-8.5352 1.0669c-0.78239 0-1.4226-0.64015-1.4226-1.4226 0-0.60458 0.3912-1.138 0.97443-1.3372l0.56902-0.19204 0.25606-0.54056c0.33429-0.68993 1.0029-1.1167 1.7568-1.1167 0.56189 0 0.98865 0.24895 1.2376 0.46232l0.55478 0.46232s0.45522-0.22761 1.0456-0.22761c0.78239 0 1.4226 0.64013 1.4226 1.4226h-2.1337c-2.3614 0-2.7312 2.4895-4.2604 2.4895zm8.5352 4.6232h-1.4226v-4.2676h1.4226z" fill="#fff"/>
</svg>
