<svg width="249" height="150" viewBox="0 0 249 150" fill="none" xmlns="http://www.w3.org/2000/svg">
<path d="M67.2152 16.944L66.593 20.0551H64.5829C64.2596 20.0551 63.9996 19.7951 63.9996 19.4718V19.3722C63.9996 19.3091 64.0096 19.2483 64.0288 19.1875L64.6437 17.3427C64.724 17.1045 64.9476 16.9441 65.1979 16.9441L67.2152 16.944ZM67.784 20.0551L68.4062 16.944H70.4163V20.0551H67.784ZM71.583 16.944H73.5931L74.2153 20.0551H71.583L71.583 16.944ZM74.784 16.944H76.8014C77.0517 16.944 77.2753 17.1045 77.3555 17.3427L77.9705 19.1875C77.9905 19.2459 77.9997 19.309 77.9997 19.3722V19.4718C77.9997 19.795 77.7397 20.0551 77.4164 20.0551H75.4063L74.784 16.944ZM64.624 21.2218H77.377C77.367 21.2728 77.0537 23.0059 76.4315 26.416C76.3585 26.8121 75.9964 27.0868 75.5954 27.0503C75.1943 27.0138 74.8881 26.6809 74.8881 26.2774V25.8885H67.1103V26.2774C67.1103 26.6809 66.804 27.0163 66.403 27.0527C66.0019 27.0892 65.6398 26.8121 65.5669 26.416C64.9471 23.0035 64.6313 21.2728 64.624 21.2218ZM187.906 135.066C187.171 135.066 186.574 135.585 186.449 136.263C186.122 136.337 185.816 136.539 185.626 136.862L183.664 140.871H183.681C183.519 141.228 183.42 141.618 183.42 142.032C183.42 143.628 184.766 144.934 186.41 144.934C187.699 144.934 188.796 144.127 189.213 143.011C189.451 143.125 189.717 143.193 189.998 143.193C190.28 143.193 190.545 143.125 190.783 143.011C191.201 144.127 192.298 144.934 193.587 144.934C195.231 144.934 196.577 143.628 196.577 142.032C196.577 141.618 196.478 141.228 196.316 140.871H196.333L194.371 136.862C194.181 136.539 193.874 136.337 193.548 136.263C193.423 135.585 192.826 135.066 192.091 135.066C191.368 135.066 190.772 135.566 190.633 136.227H189.362C189.222 135.566 188.627 135.066 187.904 135.066H187.906ZM186.411 140.29C187.409 140.29 188.206 141.063 188.206 142.032C188.206 143 187.409 143.773 186.411 143.773C185.413 143.773 184.617 143 184.617 142.032C184.617 141.063 185.413 140.29 186.411 140.29ZM193.588 140.29C194.586 140.29 195.382 141.063 195.382 142.032C195.382 143 194.586 143.773 193.588 143.773C192.59 143.773 191.794 143 191.794 142.032C191.794 141.063 192.59 140.29 193.588 140.29ZM190 140.871C190.331 140.871 190.598 141.129 190.598 141.451C190.598 141.773 190.331 142.032 190 142.032C189.668 142.032 189.402 141.773 189.402 141.451C189.402 141.129 189.668 140.871 190 140.871ZM185 105.172C183.232 105.951 181.968 107.718 181.968 109.766C181.968 111.814 183.232 113.58 185 114.36V113.203C183.804 112.513 183 111.254 183 109.766C183 108.278 183.804 107.019 185 106.328V105.172ZM191 105.172V106.328C192.195 107.019 193 108.277 193 109.766C193 111.254 192.195 112.512 191 113.203V114.359C192.767 113.58 194.031 111.813 194.031 109.766C194.031 107.718 192.767 105.951 191 105.172ZM186 106.953C184.843 107.37 184 108.469 184 109.766C184 111.062 184.843 112.161 186 112.578V111.484C185.403 111.14 185 110.509 185 109.766C185 109.022 185.403 108.392 186 108.047V106.953ZM190 106.953V108.047C190.597 108.392 191 109.022 191 109.766C191 110.509 190.597 111.14 190 111.485V112.578C191.157 112.161 192 111.063 192 109.766C192 108.469 191.157 107.37 190 106.953ZM187 106V116H185V117H183V119H193V117H191V116H189V106C189 105.504 188.597 105 188 105C187.402 105 187 105.469 187 106ZM209.85 48.5L213 46.9168L216.15 48.4903L215.625 44.819L218.25 42.1963L214.575 41.672L213 38L211.425 41.672L207.75 42.1963L210.375 44.819L209.85 48.5ZM206.783 65.3768C204.851 65.3768 203.286 66.9432 203.286 68.8748V72.7371H210.713V68.8748C210.713 66.9432 209.147 65.3768 207.215 65.3768H206.783ZM205.649 68.3784H208.35C208.532 68.3784 208.68 68.526 208.68 68.7081C208.68 68.8901 208.532 69.0377 208.35 69.0377H205.649C205.467 69.0377 205.319 68.8901 205.319 68.7081C205.319 68.526 205.467 68.3784 205.649 68.3784ZM205.649 69.697H208.35C208.532 69.697 208.68 69.8446 208.68 70.0266C208.68 70.2087 208.532 70.3563 208.35 70.3563H205.649C205.467 70.3563 205.319 70.2087 205.319 70.0266C205.319 69.8446 205.467 69.697 205.649 69.697ZM205.649 71.0156H208.35C208.532 71.0156 208.68 71.1631 208.68 71.3452C208.68 71.5273 208.532 71.6748 208.35 71.6748H205.649C205.467 71.6748 205.319 71.5273 205.319 71.3452C205.319 71.1631 205.467 71.0156 205.649 71.0156ZM202.402 73.3963C202.22 73.3963 202.072 73.5439 202.072 73.726V74.5739H211.927V73.726C211.927 73.5439 211.779 73.3963 211.597 73.3963H202.402ZM201.704 75.2332C201.522 75.2332 201.375 75.3808 201.375 75.5628V76.6232H212.625V75.5628C212.625 75.3808 212.477 75.2332 212.295 75.2332H201.704ZM132.475 134.75V137.9H134.05V139.213C134.05 138.777 134.638 138.425 135.362 138.425C136.087 138.425 136.675 138.777 136.675 139.213H134.05V140.525V140.73C134.443 140.929 134.89 141.05 135.362 141.05C136.958 141.05 138.25 139.759 138.25 138.163V134.75H132.475ZM134.05 137.417C133.761 137.417 133.525 137.181 133.525 136.892C133.525 136.603 133.761 136.367 134.05 136.367C134.338 136.367 134.575 136.603 134.575 136.892C134.575 137.186 134.338 137.417 134.05 137.417ZM136.675 137.417C136.386 137.417 136.15 137.181 136.15 136.892C136.15 136.603 136.386 136.367 136.675 136.367C136.963 136.367 137.2 136.603 137.2 136.892C137.2 137.186 136.963 137.417 136.675 137.417ZM127.75 141.838C127.75 143.434 129.041 144.725 130.637 144.725C132.233 144.725 133.525 143.434 133.525 141.838V138.425H127.75V141.838ZM130.637 142.888C129.913 142.888 129.325 142.536 129.325 142.1H131.95C131.95 142.536 131.362 142.888 130.637 142.888ZM131.95 140C132.238 140 132.475 140.236 132.475 140.525C132.475 140.814 132.238 141.05 131.95 141.05C131.661 141.05 131.425 140.814 131.425 140.525C131.425 140.236 131.661 140 131.95 140ZM129.325 140C129.613 140 129.85 140.236 129.85 140.525C129.85 140.814 129.613 141.05 129.325 141.05C129.036 141.05 128.8 140.814 128.8 140.525C128.8 140.236 129.036 140 129.325 140ZM244.336 99.375C244.218 99.375 244.011 99.4326 243.914 99.4878L240.929 101.175C240.529 101.394 240.373 102.078 240.637 102.488L241.545 103.913L237.684 106.5L239.76 107.475L242 106.425L244.239 107.475L245.115 106.425L242.422 102.263L244.693 100.913C245.145 100.652 245.129 100.205 245.083 99.9378C245.038 99.685 244.748 99.375 244.336 99.375ZM246.154 102.225C245.293 102.225 244.596 103.031 244.596 104.025C244.596 105.019 245.293 105.825 246.154 105.825C247.014 105.825 247.711 105.019 247.711 104.025C247.711 103.031 247.014 102.225 246.154 102.225ZM242 107.625L239.923 108.825L237.327 107.7L235.25 108.825V110.625L237.327 109.425L239.923 110.625L242 109.35L244.077 110.625L246.153 109.35L248.75 110.625V108.825L246.153 107.625L244.077 108.825L242 107.625ZM50.8843 127.22C50.5863 127.048 50.208 127.149 50.036 127.447L45.5874 135.152C45.4154 135.45 45.5168 135.828 45.8147 136C46.1126 136.172 46.4909 136.071 46.6629 135.773L51.1115 128.068C51.2835 127.77 51.1822 127.392 50.8843 127.22ZM51.1148 127.22C51.4127 127.048 51.791 127.149 51.963 127.447L56.4116 135.152C56.5836 135.45 56.4823 135.828 56.1844 136C55.8864 136.172 55.5081 136.071 55.3361 135.773L50.8875 128.068C50.7155 127.77 50.8169 127.392 51.1148 127.22ZM50.9999 127.251C51.3439 127.251 51.6209 127.528 51.6209 127.872V136.769C51.6209 137.113 51.3439 137.39 50.9999 137.39C50.6559 137.39 50.379 137.113 50.379 136.769V127.872C50.379 127.528 50.6559 127.251 50.9999 127.251ZM48.8053 124.61H53.1943C53.6647 124.61 54.0433 124.997 54.0433 125.477C54.0433 125.958 53.6647 126.344 53.1943 126.344H48.8053C48.3349 126.344 47.9562 125.958 47.9562 125.477C47.9562 124.997 48.3349 124.61 48.8053 124.61ZM52.2981 127.095C52.2981 127.265 52.2645 127.434 52.1992 127.592C52.134 127.749 52.0384 127.892 51.9178 128.013C51.7972 128.133 51.6541 128.229 51.4966 128.294C51.3391 128.36 51.1703 128.393 50.9998 128.393C50.8293 128.393 50.6604 128.36 50.5029 128.294C50.3454 128.229 50.2023 128.133 50.0817 128.013C49.9611 127.892 49.8655 127.749 49.8003 127.592C49.735 127.434 49.7014 127.265 49.7014 127.095C49.7014 126.751 49.8382 126.42 50.0817 126.177C50.3252 125.933 50.6554 125.797 50.9998 125.797C51.3441 125.797 51.6743 125.933 51.9178 126.177C52.1613 126.42 52.2981 126.751 52.2981 127.095ZM150.639 64.5013C150.188 64.4912 149.737 64.5402 149.301 64.649C147.322 65.4702 146.608 66.7131 146.481 69.2167C146.421 70.3632 146.011 71.4646 146.005 72.6148C145.961 73.206 146.203 73.8578 146.884 73.9273H153.952C154.466 73.9515 154.961 73.5568 155 73.0328C155.002 70.5783 154.63 71.2111 154.547 68.6485C154.488 67.5015 154.327 66.2205 153.427 65.404C152.62 64.8289 151.632 64.5233 150.639 64.5013ZM148.975 67.6361H149.585V68.2459H148.975V67.6361ZM150.195 67.6361H152.025V68.2459H150.195V67.6361ZM147.756 68.9618H153.244V69.5716H147.756V68.9618ZM148.975 70.1814H152.025V70.7912H148.975V70.1814ZM239 124C238.362 124 237.845 124.518 237.845 125.155C237.845 125.792 238.363 126.307 239 126.307C239.637 126.307 240.154 125.792 240.154 125.155C240.154 124.518 239.637 124 239 124ZM237.845 127.078C237.44 127.078 237.077 127.446 237.077 127.846C237.077 128.615 238.423 130.937 238.423 131.693V134H239.577V131.693C239.577 130.952 240.923 128.615 240.923 127.846C240.923 127.42 240.578 127.078 240.154 127.078H237.845ZM236.999 137C236.866 137 236.739 137.053 236.646 137.147C236.552 137.24 236.499 137.367 236.499 137.5C236.499 137.632 236.552 137.759 236.646 137.853C236.739 137.947 236.866 137.999 236.999 137.999H241.001C241.133 137.999 241.26 137.947 241.354 137.853C241.447 137.759 241.5 137.632 241.5 137.5C241.5 137.367 241.447 137.24 241.354 137.147C241.26 137.053 241.133 137 241.001 137H236.999ZM236.999 137.5H241.001ZM235.998 135.001C235.866 135.001 235.739 135.054 235.645 135.147C235.552 135.241 235.499 135.368 235.499 135.5C235.499 135.633 235.552 135.76 235.645 135.853C235.739 135.947 235.866 136 235.998 136H242.001C242.134 136 242.261 135.947 242.354 135.853C242.448 135.76 242.501 135.633 242.501 135.5C242.501 135.368 242.448 135.241 242.354 135.147C242.261 135.054 242.134 135.001 242.001 135.001H235.998ZM235.999 135.5H242ZM157.475 94.75V95.8492C156.141 96.0731 155.082 97.1228 154.85 98.425H161.15C160.917 97.1228 159.858 96.0731 158.525 95.8492V94.75H157.475ZM154.325 98.95V100H161.675V98.95H154.325ZM155.9 101.05C155.61 101.05 155.375 101.285 155.375 101.575C155.375 101.865 155.61 102.1 155.9 102.1C156.19 102.1 156.425 101.865 156.425 101.575C156.425 101.285 156.19 101.05 155.9 101.05ZM158 101.05C157.71 101.05 157.475 101.285 157.475 101.575C157.475 101.865 157.71 102.1 158 102.1C158.29 102.1 158.525 101.865 158.525 101.575C158.525 101.285 158.29 101.05 158 101.05ZM160.1 101.05C159.81 101.05 159.575 101.285 159.575 101.575C159.575 101.865 159.81 102.1 160.1 102.1C160.39 102.1 160.625 101.865 160.625 101.575C160.625 101.285 160.39 101.05 160.1 101.05ZM154.85 102.625C154.56 102.625 154.325 102.86 154.325 103.15C154.325 103.44 154.56 103.675 154.85 103.675C155.14 103.675 155.375 103.44 155.375 103.15C155.375 102.86 155.14 102.625 154.85 102.625ZM156.95 102.625C156.66 102.625 156.425 102.86 156.425 103.15C156.425 103.44 156.66 103.675 156.95 103.675C157.24 103.675 157.475 103.44 157.475 103.15C157.475 102.86 157.24 102.625 156.95 102.625ZM159.05 102.625C158.76 102.625 158.525 102.86 158.525 103.15C158.525 103.44 158.76 103.675 159.05 103.675C159.34 103.675 159.575 103.44 159.575 103.15C159.575 102.86 159.34 102.625 159.05 102.625ZM161.15 102.625C160.86 102.625 160.625 102.86 160.625 103.15C160.625 103.44 160.86 103.675 161.15 103.675C161.44 103.675 161.675 103.44 161.675 103.15C161.675 102.86 161.44 102.625 161.15 102.625ZM153.8 104.2C153.51 104.2 153.275 104.435 153.275 104.725C153.275 105.015 153.51 105.25 153.8 105.25C154.09 105.25 154.325 105.015 154.325 104.725C154.325 104.435 154.09 104.2 153.8 104.2ZM155.9 104.2C155.61 104.2 155.375 104.435 155.375 104.725C155.375 105.015 155.61 105.25 155.9 105.25C156.19 105.25 156.425 105.015 156.425 104.725C156.425 104.435 156.19 104.2 155.9 104.2ZM158 104.2C157.71 104.2 157.475 104.435 157.475 104.725C157.475 105.015 157.71 105.25 158 105.25C158.29 105.25 158.525 105.015 158.525 104.725C158.525 104.435 158.29 104.2 158 104.2ZM160.1 104.2C159.81 104.2 159.575 104.435 159.575 104.725C159.575 105.015 159.81 105.25 160.1 105.25C160.39 105.25 160.625 105.015 160.625 104.725C160.625 104.435 160.39 104.2 160.1 104.2ZM162.2 104.2C161.91 104.2 161.675 104.435 161.675 104.725C161.675 105.015 161.91 105.25 162.2 105.25C162.49 105.25 162.725 105.015 162.725 104.725C162.725 104.435 162.49 104.2 162.2 104.2ZM227.5 7.25H226.5C226.5 5.87 225.38 4.75001 224 4.75001C222.62 4.75001 221.5 5.86999 221.5 7.25H220.5C219.95 7.25 219.505 7.7 219.505 8.24997L219.5 14.25C219.5 14.8 219.95 15.25 220.5 15.25H227.5C228.05 15.25 228.5 14.8 228.5 14.25V8.24997C228.5 7.69997 228.05 7.25 227.5 7.25ZM224 5.75C224.83 5.75 225.5 6.41999 225.5 7.25H222.5C222.5 6.41997 223.17 5.75 224 5.75ZM224 10.75C222.62 10.75 221.5 9.63005 221.5 8.25004H222.5C222.5 9.08007 223.17 9.75004 224 9.75004C224.83 9.75004 225.5 9.08005 225.5 8.25004H226.5C226.5 9.63004 225.38 10.75 224 10.75ZM184.316 47.8986L178.153 53.3888C178.08 53.4544 178.02 53.5338 177.977 53.6226C177.934 53.7113 177.909 53.8076 177.904 53.9059C177.898 54.0043 177.912 54.1028 177.945 54.1958C177.977 54.2888 178.027 54.3744 178.093 54.4479C178.159 54.5215 178.238 54.5815 178.327 54.6244C178.415 54.6673 178.512 54.6924 178.61 54.6981C178.708 54.7038 178.807 54.6901 178.9 54.6577C178.993 54.6253 179.079 54.575 179.152 54.5094L184.815 49.4631L190.478 54.5094C190.552 54.575 190.638 54.6253 190.731 54.6577C190.824 54.6901 190.922 54.7038 191.021 54.6981C191.119 54.6924 191.215 54.6673 191.304 54.6244C191.393 54.5815 191.472 54.5215 191.537 54.4479C191.603 54.3744 191.654 54.2888 191.686 54.1958C191.718 54.1028 191.732 54.0043 191.727 53.9059C191.721 53.8076 191.696 53.7113 191.653 53.6226C191.611 53.5338 191.551 53.4544 191.477 53.3888L185.315 47.8986C185.177 47.7759 184.999 47.7081 184.815 47.7081C184.631 47.7081 184.453 47.7759 184.316 47.8986ZM185.102 44.7272L184.634 46.4674L184.997 46.5641L185.466 44.8239L185.102 44.7272ZM181.787 47.071L181.319 48.8112L181.682 48.9079L182.151 47.1676L181.787 47.071ZM188.417 47.071L187.949 48.8112L188.312 48.9079L188.781 47.1676L188.417 47.071ZM178.471 50.0505L178.002 51.7907L178.364 51.8874L178.833 50.1471L178.471 50.0505ZM191.734 50.0505L191.265 51.7907L191.628 51.8874L192.097 50.1471L191.734 50.0505ZM180.476 51.7966C180.327 51.7966 180.184 51.8558 180.079 51.9613C179.973 52.0668 179.914 52.2099 179.914 52.3591V58.7106C179.914 58.8598 179.973 59.0029 180.079 59.1084C180.184 59.2139 180.327 59.2731 180.476 59.2731C180.626 59.2731 180.769 59.2139 180.874 59.1084C180.98 59.0029 181.039 58.8598 181.039 58.7106V52.9216H188.592V58.7106C188.592 58.7845 188.606 58.8576 188.634 58.9259C188.663 58.9941 188.704 59.0561 188.756 59.1084C188.809 59.1606 188.871 59.202 188.939 59.2303C189.007 59.2586 189.08 59.2731 189.154 59.2731C189.303 59.2731 189.446 59.2139 189.552 59.1084C189.657 59.0029 189.717 58.8598 189.717 58.7106V52.3591C189.717 52.2099 189.657 52.0668 189.552 51.9613C189.446 51.8558 189.303 51.7966 189.154 51.7966H180.476ZM28.712 99C27.0719 99 25.6397 99.9984 24.8426 100.853L23.2506 99.6486C23.0296 99.4813 22.6994 99.6596 22.7559 99.9159L23.1967 101.917L22.7557 103.918C22.6992 104.174 23.0293 104.352 23.2504 104.185L24.8424 102.981C25.6396 103.835 27.072 104.833 28.7121 104.833C31.2178 104.833 33.2493 102.5 33.2493 101.917C33.2493 101.333 31.2178 99 28.712 99ZM30.3058 102.354C30.0643 102.354 29.8683 102.158 29.8683 101.917C29.8683 101.675 30.0643 101.479 30.3058 101.479C30.5475 101.479 30.7433 101.675 30.7433 101.917C30.7433 102.158 30.5473 102.354 30.3058 102.354ZM125.707 80.55V77.6022C125.707 77.2697 125.442 77 125.112 77H125.053C124.724 77 124.457 77.2786 124.457 77.6022V80.55H123.207V77.6022C123.207 77.2697 122.942 77 122.611 77H122.553C122.224 77 121.957 77.2786 121.957 77.6022V80.55C121.957 81.928 123.207 83 124.394 83L124.232 88.1908C124.219 88.6377 124.561 89 125 89H125.164C125.602 89 125.942 88.6426 125.923 88.1908L125.707 83C126.957 83 128.457 81.928 128.207 80.55V77.6022C128.207 77.2697 127.942 77 127.611 77H127.553C127.224 77 126.957 77.2786 126.957 77.6022V80.55H125.707ZM128.957 83.8H130.457V88.255C130.457 88.6665 130.79 89 131.207 89C131.621 89 131.957 88.6666 131.957 88.2494V77.0004C129.863 77.0004 128.907 78.4564 128.957 79.6004V83.8ZM109 122H102C101.448 122 101 121.552 101 121V118.5C101 118.224 101.224 118 101.5 118C101.776 118 102 118.224 102 118.5V120H103V119C103 118.448 103.448 118 104 118C104.552 118 105 118.448 105 119V120H106V119C106 118.448 106.448 118 107 118C107.552 118 108 118.448 108 119V120H109V118.5C109 118.224 109.224 118 109.5 118C109.776 118 110 118.224 110 118.5V121C110 121.552 109.552 122 109 122ZM111.5 131H99.5003C99.2242 131 99.0003 130.776 99.0003 130.5C99.0003 130.224 99.2242 130 99.5003 130H100C100.553 130 101 129.552 101 129C101 129 102 125 102 124C102 123.448 102.448 123 103 123H108C108.552 123 109 123.448 109 124C109 125 110 129 110 129C110 129.552 110.448 130 111 130H111.5C111.772 130 111.995 130.218 112 130.49C112 130.776 111.776 131 111.5 131ZM107 127.5C107 126.672 106.328 126 105.5 126C104.672 126 104 126.672 104 127.5V130H107V126.5V127.5ZM218 123.987H217.22C217.395 123.692 217.5 123.352 217.5 122.987C217.5 121.882 216.605 120.987 215.5 120.987C215.33 120.987 215.17 121.012 215.01 121.052C214.6 120.712 214.08 120.497 213.5 120.497C212.555 120.497 211.745 121.052 211.365 121.852C210.575 122.117 210 122.857 210 123.737C210 124.667 210.64 125.442 211.5 125.667V129.987H217V128.987H218C218.55 128.987 219 128.537 219 127.987V124.987C219 124.437 218.55 123.987 218 123.987ZM212 124.737C211.45 124.737 211 124.287 211 123.737C211 123.312 211.275 122.937 211.685 122.797L212.085 122.662L212.265 122.282C212.5 121.797 212.97 121.497 213.5 121.497C213.895 121.497 214.195 121.672 214.37 121.822L214.76 122.147C214.76 122.147 215.08 121.987 215.495 121.987C216.045 121.987 216.495 122.437 216.495 122.987H214.995C213.335 122.987 213.075 124.737 212 124.737ZM218 127.987H217V124.987H218V127.987ZM125.5 51C125.367 51 125.24 51.0527 125.146 51.1465C125.052 51.2402 125 51.3674 125 51.5C125 51.6326 125.052 51.7598 125.146 51.8536C125.24 51.9473 125.367 52 125.5 52H130.5C130.632 52 130.759 51.9473 130.853 51.8536C130.947 51.7598 131 51.6326 131 51.5C131 51.3674 130.947 51.2402 130.853 51.1465C130.759 51.0527 130.632 51 130.5 51H125.5ZM129.5 40C129.367 40 129.24 40.0527 129.146 40.1465C129.052 40.2402 129 40.3674 129 40.5V48.5C128.999 48.5635 129.011 48.6265 129.035 48.6856L131.035 53.6856C131.059 53.7466 131.095 53.8023 131.141 53.8494C131.187 53.8965 131.242 53.9341 131.302 53.9601C131.362 53.986 131.427 53.9998 131.493 54.0006C131.559 54.0014 131.624 53.9893 131.685 53.9648C131.746 53.9405 131.802 53.9044 131.849 53.8586C131.896 53.8127 131.934 53.758 131.96 53.6976C131.986 53.6372 131.999 53.5722 132 53.5065C132.001 53.4407 131.989 53.3755 131.964 53.3145L130 48.4043V40.5C130 40.3674 129.947 40.2402 129.853 40.1465C129.759 40.0527 129.632 40 129.5 40ZM126.5 40C126.367 40 126.24 40.0527 126.146 40.1465C126.052 40.2402 126 40.3674 126 40.5V48.4043L124.035 53.3145C124.01 53.3755 123.998 53.4407 123.999 53.5065C124 53.5722 124.014 53.6372 124.04 53.6976C124.065 53.758 124.103 53.8127 124.15 53.8586C124.197 53.9044 124.253 53.9405 124.314 53.9648C124.375 53.9893 124.44 54.0014 124.506 54.0006C124.572 53.9998 124.637 53.986 124.697 53.9601C124.758 53.9341 124.812 53.8965 124.858 53.8494C124.904 53.8023 124.94 53.7466 124.964 53.6856L126.964 48.6856C126.988 48.6265 127 48.5635 127 48.5V40.5C127 40.3674 126.947 40.2402 126.853 40.1465C126.759 40.0527 126.632 40 126.5 40ZM126.5 45C126.391 44.9997 126.286 45.0347 126.199 45.0996L122.199 48.0996C122.115 48.1626 122.053 48.2505 122.021 48.3508C121.99 48.4511 121.991 48.5587 122.024 48.6584C122.057 48.7581 122.121 48.8447 122.207 48.906C122.292 48.9674 122.395 49.0002 122.5 49H133.5C133.605 49.0002 133.707 48.9674 133.793 48.906C133.878 48.8447 133.942 48.7581 133.975 48.6584C134.008 48.5587 134.009 48.4511 133.978 48.3508C133.947 48.2505 133.885 48.1626 133.8 48.0996L129.8 45.0996C129.714 45.0347 129.608 44.9997 129.5 45H126.5ZM126.666 46H129.334L132 48H124L126.666 46ZM126.5 40C126.391 39.9997 126.286 40.0347 126.199 40.0996L122.199 43.0996C122.115 43.1626 122.053 43.2505 122.021 43.3508C121.99 43.4511 121.991 43.5587 122.024 43.6584C122.057 43.7581 122.121 43.8447 122.207 43.906C122.292 43.9674 122.395 44.0002 122.5 44H133.5C133.605 44.0002 133.707 43.9674 133.793 43.906C133.878 43.8447 133.942 43.7581 133.975 43.6584C134.008 43.5587 134.009 43.4511 133.978 43.3508C133.947 43.2505 133.885 43.1626 133.8 43.0996L129.8 40.0996C129.714 40.0347 129.608 39.9997 129.5 40H126.5ZM126.666 41H129.334L132 43H124L126.666 41ZM84.7948 138.75L80.4993 140.659V143.523C80.4993 146.172 82.332 148.649 84.7948 149.25C87.2575 148.649 89.0902 146.172 89.0902 143.523V140.659L84.7948 138.75ZM85.9879 144.282L86.4175 146.133L84.7948 145.155L83.1721 146.133L83.6016 144.286L82.1698 143.05L84.0598 142.888L84.7948 141.146L85.5298 142.883L87.4198 143.046L85.9879 144.282ZM54.5 46C54.1022 46 53.7206 46.158 53.4393 46.4393C53.158 46.7207 53 47.1022 53 47.5V54.5C53 54.8978 53.158 55.2794 53.4393 55.5607C53.7206 55.842 54.1022 56 54.5 56H63.5C63.8978 56 64.2794 55.842 64.5607 55.5607C64.842 55.2794 65 54.8978 65 54.5V47.5C65 47.1022 64.842 46.7207 64.5607 46.4393C64.2794 46.158 63.8978 46 63.5 46H54.5ZM54.5 47C54.6326 47 54.7598 47.0527 54.8536 47.1465C54.9473 47.2402 55 47.3674 55 47.5C55 47.6326 54.9473 47.7598 54.8536 47.8536C54.7598 47.9473 54.6326 48 54.5 48C54.3674 48 54.2402 47.9473 54.1464 47.8536C54.0527 47.7598 54 47.6326 54 47.5C54 47.3674 54.0527 47.2402 54.1464 47.1465C54.2402 47.0527 54.3674 47 54.5 47ZM54.5 54C54.6325 54.0001 54.7596 54.0529 54.8532 54.1466C54.9469 54.2404 54.9995 54.3675 54.9995 54.5C54.9995 54.6325 54.9469 54.7596 54.8532 54.8534C54.7596 54.9471 54.6325 54.9999 54.5 55C54.3675 54.9999 54.2404 54.9471 54.1468 54.8534C54.0531 54.7596 54.0005 54.6325 54.0005 54.5C54.0005 54.3675 54.0531 54.2404 54.1468 54.1466C54.2404 54.0529 54.3675 54.0001 54.5 54ZM63.5 54C63.6325 54.0001 63.7596 54.0529 63.8532 54.1466C63.9469 54.2404 63.9995 54.3675 63.9995 54.5C63.9995 54.6325 63.9469 54.7596 63.8532 54.8534C63.7596 54.9471 63.6325 54.9999 63.5 55C63.3675 54.9999 63.2404 54.9471 63.1468 54.8534C63.0531 54.7596 63.0005 54.6325 63.0005 54.5C63.0005 54.3675 63.0531 54.2404 63.1468 54.1466C63.2404 54.0529 63.3675 54.0001 63.5 54ZM63.5 47C63.6326 47 63.7598 47.0527 63.8536 47.1465C63.9473 47.2402 64 47.3674 64 47.5C64 47.6326 63.9473 47.7598 63.8536 47.8536C63.7598 47.9473 63.6326 48 63.5 48C63.3674 48 63.2402 47.9473 63.1464 47.8536C63.0527 47.7598 63 47.6326 63 47.5C63 47.3674 63.0527 47.2402 63.1464 47.1465C63.2402 47.0527 63.3674 47 63.5 47ZM57 48H58V49H57V48ZM59 48H61V49H59V48ZM55 50H63V51H55V50ZM57 52H61V53H57V52ZM177.636 10.3726L175.6 9.49979V13.0998H177.7C177.866 13.0998 178 12.9655 178 12.7998V10.924C178 10.684 177.857 10.4672 177.636 10.3726ZM166 10.9241V12.7998C166 12.9656 166.134 13.0998 166.3 13.0998H168.4V9.49982L166.364 10.3727C166.143 10.4673 166 10.6841 166 10.9241ZM174.708 8.12506L173.8 7.57981V5.42409C173.8 5.26491 173.737 5.11247 173.624 4.99978L172.212 3.58773C172.095 3.47054 171.905 3.47054 171.788 3.58773L170.376 4.99978C170.263 5.11224 170.2 5.26491 170.2 5.42409V7.57981L169.291 8.12506C169.11 8.23352 169 8.42877 169 8.63956V13.0998H170.8V11.2998C170.8 10.637 171.337 10.0998 172 10.0998C172.662 10.0998 173.2 10.637 173.2 11.2998V13.0998H175V8.63956C175 8.4288 174.889 8.23343 174.708 8.12506ZM92.2967 91.9849H90.3956V90H101.604V91.9849H99.5875L100.478 95.9549H103.642V96.9473H100.701L101.611 101L99.6243 100.992L98.7168 96.9479H93.187L92.3248 100.856L90.3383 100.864L91.2025 96.9468H88.3583V95.9544H91.4215L92.2967 91.9849ZM94.2812 91.9849L93.4054 95.9549H98.4935L97.6026 91.9849H94.2812ZM22.4245 118L21.4638 119.05H19.7995C19.222 119.05 18.7495 119.523 18.7495 120.1V126.4C18.7495 126.978 19.222 127.45 19.7995 127.45H28.1995C28.777 127.45 29.2495 126.978 29.2495 126.4V120.1C29.2495 119.523 28.777 119.05 28.1995 119.05H26.5353L25.5745 118H22.4245ZM23.9995 125.875C22.5505 125.875 21.3745 124.699 21.3745 123.25C21.3745 121.801 22.5505 120.625 23.9995 120.625C25.4485 120.625 26.6245 121.801 26.6245 123.25C26.6245 124.699 25.4485 125.875 23.9995 125.875ZM139.34 112.253C138.52 112.253 137.726 112.12 136.986 111.88C136.753 111.8 136.493 111.86 136.313 112.04L135.266 113.353C133.38 112.453 131.613 110.753 130.673 108.8L131.973 107.693C132.153 107.507 132.206 107.247 132.133 107.013C131.886 106.273 131.76 105.48 131.76 104.66C131.76 104.3 131.46 104 131.1 104H128.793C128.433 104 128 104.16 128 104.66C128 110.853 133.153 116 139.34 116C139.813 116 140 115.58 140 115.213V112.913C140 112.553 139.7 112.253 139.34 112.253ZM10.5375 76.0001C9.63041 76.0001 8.72705 76.3521 8.06185 77.0113L3.05379 81.9921C2.0213 83.0151 1.7408 84.5004 2.24116 85.7372C2.24116 85.7372 2.61536 86.6135 2.97819 86.9731C3.31975 87.3115 3.73218 87.5499 4.14988 87.7221C4.2652 87.7816 4.3522 87.8033 4.45221 87.8345C4.46546 87.8385 4.47546 87.8493 4.48989 87.8531C5.69218 88.2084 7.03357 87.9205 7.94827 86.973L10.9719 83.9769L12.9562 81.9921C14.3471 80.6139 14.3471 78.4043 12.9562 77.0861C12.3515 76.367 11.4446 76.0001 10.5375 76.0001ZM10.5375 77.1985C11.1423 77.1985 11.7583 77.4344 12.1817 77.8539C12.6051 78.2733 12.8431 78.8838 12.8431 79.4829C12.8431 80.0821 12.6051 80.6738 12.1817 81.0933L10.1218 83.1344L6.85596 79.877L8.85565 77.91C9.33944 77.4307 9.87224 77.1985 10.5375 77.1985ZM51.5007 107.501H54.5012V102.864H55.491C57.0927 102.864 58.3435 102.507 59.2046 101.776C60.0842 101.036 60.5007 99.9579 60.5007 98.5668C60.5007 97.2204 60.1111 96.1939 59.2963 95.5163C58.4723 94.8297 57.2602 94.5003 55.6863 94.5003L51.5009 94.5005L51.5007 107.501ZM54.5012 96.7748H55.5754C56.3161 96.7748 56.844 96.9176 57.1867 97.2207C57.5385 97.5328 57.7134 97.9961 57.7134 98.647C57.7134 99.2801 57.5281 99.7701 57.1023 100.109C56.6857 100.439 56.0466 100.635 55.204 100.635H54.5012V96.7748ZM231.125 72.7499V70.2672C230.851 70.3639 230.556 70.4166 230.25 70.4166C228.8 70.4166 227.625 69.2413 227.625 67.7916C227.625 67.0535 227.929 66.3865 228.42 65.9096C228.283 65.5921 228.208 65.2423 228.208 64.875C228.208 63.4252 229.383 62.25 230.833 62.25C231.744 62.25 232.547 62.7146 233.018 63.42C233.067 63.4185 233.117 63.417 233.166 63.417C234.938 63.417 236.374 64.8534 236.374 66.6254C236.374 68.3974 234.938 69.8338 233.166 69.8338C232.863 69.8338 232.569 69.7916 232.291 69.713V72.7504L231.125 72.7499ZM147.179 15.3522C147.063 15.3522 146.946 15.3716 146.836 15.3847L145.502 14.0575H146.532C146.703 14.057 146.868 13.9885 146.989 13.8671C147.11 13.7457 147.179 13.5812 147.179 13.4095V13.1638C147.179 13.0533 147.151 12.9446 147.097 12.8482C147.043 12.7517 146.965 12.6707 146.871 12.6129C146.777 12.5552 146.669 12.5225 146.559 12.5181C146.449 12.5137 146.339 12.5377 146.24 12.5878L144.764 13.3258L143.1 11.6615C143.041 11.6004 142.971 11.5518 142.893 11.5185C142.815 11.4852 142.731 11.4679 142.647 11.4676H140.705C140.349 11.4676 140.057 11.7584 140.057 12.1149C140.057 12.4715 140.349 12.7622 140.705 12.7622H142.11C142.285 12.7622 142.446 12.8335 142.57 12.9498L143.677 14.0575H141.508C141.404 14.0575 141.307 14.0831 141.216 14.1281L139.183 15.1451C139.062 15.206 138.924 15.2269 138.791 15.2047C138.657 15.1826 138.534 15.1186 138.439 15.0219L137.662 14.2451C137.538 14.1267 137.374 14.0594 137.202 14.0568H134.877C134.705 14.0574 134.541 14.1258 134.419 14.2473C134.298 14.3687 134.23 14.5332 134.229 14.7048C134.229 15.0607 134.52 15.3521 134.877 15.3521H136.819C136.427 15.3518 136.04 15.4405 135.688 15.6116C135.335 15.7826 135.026 16.0315 134.783 16.3395C134.541 16.6475 134.371 17.0066 134.288 17.3896C134.204 17.7726 134.209 18.1696 134.301 18.5506C134.41 19.0153 134.646 19.4404 134.984 19.7779C135.321 20.1155 135.746 20.3522 136.211 20.4614C136.592 20.5536 136.989 20.5581 137.372 20.4745C137.755 20.391 138.114 20.2215 138.422 19.9789C138.73 19.7363 138.979 19.4269 139.15 19.074C139.321 18.7212 139.41 18.3341 139.409 17.9421L140.322 18.8552C140.568 19.101 140.898 19.2374 141.242 19.2374H141.895C142.361 19.2374 142.788 18.9909 143.022 18.5831L144.906 15.2878L145.56 15.9413C145.177 16.2476 144.889 16.6572 144.73 17.1219C144.572 17.5866 144.55 18.0869 144.667 18.5638C144.779 19.0262 145.017 19.4486 145.354 19.7845C145.691 20.1204 146.114 20.3568 146.577 20.4676C146.958 20.5572 147.354 20.5596 147.736 20.4745C148.118 20.3894 148.476 20.219 148.783 19.9761C149.09 19.7333 149.338 19.4242 149.509 19.0719C149.679 18.7197 149.768 18.3335 149.768 17.9421C149.768 17.602 149.702 17.2652 149.571 16.951C149.441 16.6368 149.251 16.3513 149.01 16.1108C148.77 15.8702 148.484 15.6795 148.17 15.5493C147.856 15.4191 147.519 15.3522 147.179 15.3522ZM136.819 19.2374C136.476 19.2363 136.147 19.0995 135.905 18.8568C135.662 18.6141 135.526 18.2852 135.525 17.9421C135.525 17.2297 136.107 16.6475 136.819 16.6475C137.532 16.6475 138.114 17.2297 138.114 17.9421C138.114 18.6545 137.532 19.2374 136.819 19.2374ZM147.179 19.2374C146.836 19.2363 146.507 19.0995 146.265 18.8568C146.022 18.6141 145.885 18.2852 145.884 17.9421C145.884 17.2297 146.467 16.6475 147.179 16.6475C147.891 16.6475 148.474 17.2297 148.474 17.9421C148.474 18.6545 147.891 19.2374 147.179 19.2374ZM100.64 46.0624H91.3589C91.1259 46.0624 90.9371 46.2511 90.9371 46.4842V47.328C90.9371 47.5611 91.1258 47.7499 91.3589 47.7499H100.64C100.873 47.7499 101.062 47.5611 101.062 47.328V46.4842C101.062 46.2511 100.873 46.0624 100.64 46.0624ZM98.5609 36.9064C98.5409 36.7126 98.4559 36.5314 98.3181 36.3938L96.2979 34.3738C96.1331 34.209 95.866 34.209 95.7012 34.3738L93.6814 36.3938C93.5437 36.5314 93.4579 36.7126 93.4387 36.9064L92.6247 45.2186H99.3747L98.5609 36.9064ZM97.2652 42.3502C97.2652 42.5189 97.0964 42.6877 96.9277 42.6877H95.0714C94.9027 42.6877 94.7339 42.5189 94.7339 42.3502V41.3377C94.7339 41.1689 94.9027 41.0002 95.0714 41.0002H96.9277C97.0964 41.0002 97.2652 41.1689 97.2652 41.3377V42.3502ZM74.6415 121.04L75.0454 117.787H77.6143L77.775 119.082L74.6415 121.04ZM78.7726 124.203H78.4084C78.4084 124.201 78.4087 124.199 78.4087 124.197C78.4087 124.179 78.4067 124.161 78.4037 124.143L77.9491 120.482L74.4569 122.664C74.4519 122.668 74.4445 122.671 74.4395 122.674L74.2544 124.164C74.2524 124.177 74.2524 124.191 74.2524 124.204H73.8874C73.7364 124.204 73.614 124.326 73.614 124.477C73.614 124.628 73.7365 124.751 73.8874 124.751H78.7729C78.9239 124.751 79.0463 124.628 79.0463 124.477C79.0463 124.326 78.9235 124.203 78.7726 124.203ZM77.6788 116.766H77.4876L77.4305 116.328H76.5241C76.4974 116.328 76.4716 116.314 76.4483 116.304C76.4258 116.294 76.4041 116.275 76.3866 116.258C76.3601 116.231 76.3353 116.195 76.3276 116.157C76.3251 116.144 76.3176 116.13 76.3176 116.117V115.903C76.3176 115.89 76.3251 115.876 76.3276 115.864C76.3401 115.8 76.3874 115.748 76.4454 115.724C76.4679 115.714 76.4974 115.709 76.5241 115.709H77.3554L77.3117 115.359C77.4094 115.317 77.4779 115.22 77.4779 115.107C77.4779 114.963 77.3672 114.846 77.2262 114.835C77.1057 114.489 76.7756 114.25 76.3947 114.25H76.2645C75.884 114.25 75.5541 114.488 75.4333 114.833H75.4183C75.2673 114.833 75.1449 114.956 75.1449 115.107C75.1449 115.233 75.2304 115.339 75.3461 115.37L75.1719 116.766H74.9441C74.7931 116.766 74.6707 116.888 74.6707 117.039C74.6707 117.118 74.7047 117.19 74.7587 117.24H77.864C77.918 117.19 77.952 117.119 77.952 117.039C77.952 116.888 77.8297 116.766 77.6788 116.766ZM81.2937 115.214C81.2317 115.162 81.1529 115.14 81.0734 115.155L77.7208 115.749C77.5903 115.772 77.4958 115.886 77.4958 116.018C77.4958 116.151 77.5913 116.264 77.722 116.287L81.0764 116.882C81.0914 116.885 81.1084 116.886 81.1241 116.886C81.1879 116.886 81.2441 116.864 81.2939 116.822C81.3559 116.77 81.3856 116.693 81.3856 116.612V115.424C81.3856 115.343 81.3559 115.266 81.2937 115.214ZM6.75 13.2501C6.3884 13.2501 6.02678 13.4955 6.02678 13.9865V26.75H7.47323V13.9865C7.47323 13.4955 7.11163 13.2501 6.75 13.2501ZM1.92855 13.9865L0 15.4592L1.92855 16.9319H5.78573V13.9864L1.92855 13.9865ZM7.71428 16.9319V19.8774H11.5715L13.5 18.4047L11.5715 16.932L7.71428 16.9319ZM185.036 84.0146L185.544 83.5074C185.818 83.2327 185.818 82.7889 185.544 82.5142L185.529 82.5001C185.254 82.2254 184.81 82.2254 184.535 82.5001L182.521 84.5147L176.484 78.4779L178.499 76.4633C178.773 76.1886 178.773 75.7448 178.499 75.4701L178.484 75.456C178.209 75.1813 177.765 75.1813 177.49 75.456L176.983 75.9632L176.476 75.456C176.201 75.1813 175.75 75.1813 175.476 75.456L174.468 76.4633L173.961 75.9562C173.686 75.6814 173.229 75.6814 172.954 75.9562C172.679 76.2309 172.679 76.6887 172.954 76.9635L173.461 77.4707L172.454 78.478C172.179 78.7527 172.179 79.1965 172.454 79.4712L172.961 79.9784L172.454 80.4926C172.179 80.7673 172.179 81.2111 172.454 81.4858L172.469 81.4999C172.743 81.7746 173.187 81.7746 173.462 81.4999L175.477 79.4853L181.513 85.5221L179.499 87.5367C179.224 87.8114 179.224 88.2552 179.499 88.5299L179.514 88.544C179.788 88.8187 180.232 88.8187 180.507 88.544L181.014 88.0368L181.521 88.544C181.796 88.8187 182.24 88.8187 182.514 88.544L183.522 87.5367L184.029 88.0438C184.304 88.3186 184.762 88.3186 185.036 88.0438C185.311 87.7691 185.311 87.3113 185.036 87.0365L184.529 86.5293L185.543 85.522C185.818 85.2473 185.818 84.8035 185.543 84.5288L185.036 84.0146ZM42.571 6C42.571 5.14283 44.2853 2.57145 45.9793 2.57145C47.7138 2.57145 49.4281 5.1429 49.4281 6H45.9995H42.571ZM45.9995 0C43.4281 0 39.9995 3.42855 39.9995 6H40.8567C40.8567 3.42856 44.2852 0.85717 45.9995 0.85717C47.7138 0.85717 51.1424 3.42863 51.1424 6H51.9995C51.9995 3.42855 48.571 0 45.9995 0ZM103.5 9.99602L108.225 8.69417V10.1236H106.125C105.846 10.1236 105.579 10.2356 105.382 10.4349C105.185 10.6342 105.075 10.9045 105.075 11.1863V15.4373C105.075 15.7192 105.185 15.9895 105.382 16.1888C105.579 16.3881 105.846 16.5001 106.125 16.5001H111.375C111.653 16.5001 111.92 16.3881 112.117 16.1888C112.314 15.9895 112.425 15.7192 112.425 15.4373V11.1863C112.425 10.9045 112.314 10.6342 112.117 10.4349C111.92 10.2356 111.653 10.1236 111.375 10.1236H109.275V8.40197L114 7.10012V6.00017L103.5 8.89614V9.99602ZM108.225 11.1863V12.7804H106.125V11.1863H108.225ZM111.375 11.1863V12.7804H109.275V11.1863H111.375ZM191.142 17.2498V18.2141H192.107C192.684 18.2141 192.918 19.22 193.011 20.0523C192.073 19.323 191.166 19.0623 190.389 19.2085C189.395 19.3954 188.731 20.3108 188.731 21.3481C188.731 22.16 189.032 22.8706 189.545 23.6082C189.993 24.2529 190.625 24.9969 191.413 25.8985C191.767 27.2091 192.417 28.4092 193.071 29.0627V29.7859L192.107 30.2681V30.7503H197.893V30.2681L196.928 29.7859V29.0627C197.582 28.4092 198.232 27.2091 198.586 25.8985C199.374 24.9969 200.006 24.2529 200.454 23.6082C200.967 22.8706 201.268 22.1599 201.268 21.3481C201.268 20.3108 200.604 19.3954 199.61 19.2085C198.833 19.0623 197.926 19.323 196.988 20.0523C197.081 19.2199 197.315 18.2141 197.893 18.2141H198.857V17.2498H191.142ZM190.54 20.1729C191.031 20.0804 191.851 20.2705 192.8 21.1372C191.724 21.2707 191.142 22.2157 191.142 24C191.142 24.0301 191.142 24.0602 191.142 24.0904C190.814 23.7089 190.541 23.371 190.329 23.0658C189.877 22.416 189.696 21.9391 189.696 21.3482C189.696 20.6728 189.996 20.2753 190.54 20.1729ZM198.977 20.1729C199.159 20.1468 199.324 20.1473 199.46 20.1729C200.003 20.2752 200.303 20.6729 200.303 21.3482C200.303 21.9391 200.122 22.4161 199.67 23.0659C199.458 23.371 199.185 23.7089 198.857 24.0905C198.857 24.0603 198.857 24.0302 198.857 24.0001C198.857 22.2157 198.275 21.2706 197.199 21.1373C197.885 20.5103 198.503 20.2413 198.977 20.1729ZM157.999 139.095C157.38 139.095 156.745 138.983 156.095 138.76C155.445 138.536 154.855 138.232 154.327 137.845C153.799 137.459 153.365 137.007 153.024 136.489C152.684 135.971 152.514 135.418 152.514 134.828V133L154.952 134.828L154.007 135.773C154.302 136.291 154.769 136.738 155.409 137.114C156.049 137.49 156.709 137.729 157.39 137.83V132.391H155.562V131.172H157.39V130.455C157.035 130.323 156.742 130.102 156.514 129.793C156.285 129.483 156.171 129.13 156.171 128.734C156.171 128.226 156.349 127.794 156.704 127.438C157.06 127.083 157.492 126.905 158 126.905C158.507 126.905 158.939 127.083 159.295 127.438C159.65 127.794 159.828 128.226 159.828 128.734C159.828 129.13 159.714 129.483 159.485 129.793C159.257 130.102 158.965 130.323 158.609 130.455V131.172H160.438V132.391H158.609V137.83C159.29 137.729 159.95 137.49 160.59 137.114C161.23 136.738 161.697 136.291 161.992 135.773L161.047 134.828L163.485 133V134.828C163.485 135.418 163.315 135.971 162.975 136.489C162.634 137.007 162.2 137.459 161.672 137.845C161.144 138.232 160.554 138.536 159.904 138.76C159.254 138.983 158.619 139.095 157.999 139.095ZM157.999 129.343C158.172 129.343 158.317 129.284 158.434 129.167C158.551 129.051 158.609 128.906 158.609 128.733C158.609 128.561 158.551 128.416 158.434 128.299C158.317 128.182 158.172 128.124 157.999 128.124C157.827 128.124 157.682 128.182 157.565 128.299C157.448 128.416 157.39 128.561 157.39 128.733C157.39 128.906 157.448 129.051 157.565 129.167C157.682 129.284 157.827 129.343 157.999 129.343ZM220.499 99.575V98.6L216.394 96.1625V93.4813C216.394 93.0766 216.05 92.75 215.624 92.75C215.199 92.75 214.855 93.0766 214.855 93.4813V96.1625L210.749 98.6V99.575L214.855 98.3563V101.038L213.828 101.769V102.5L215.624 102.013L217.421 102.5V101.769L216.394 101.038V98.3563L220.499 99.575ZM96.4988 63.938C95.9186 63.938 95.4368 64.4199 95.4368 65V70.499C95.4368 70.8097 95.6886 71.0615 95.9993 71.0615H96.5427C96.771 71.6438 97.3404 72.062 97.9988 72.062C98.6567 72.062 99.2262 71.6447 99.4548 71.063H102.543C102.771 71.6447 103.341 72.062 103.999 72.062C104.657 72.062 105.226 71.6447 105.455 71.063H105.998C106.309 71.063 106.561 70.8112 106.561 70.5005V68.0117C106.561 68.0078 106.562 68.0039 106.562 68C106.562 67.9814 106.561 67.9629 106.56 67.9444C106.55 66.8911 106.247 65.9284 105.725 65.1978C105.194 64.4543 104.403 63.938 103.5 63.938L96.4988 63.938ZM96.5618 64.9558H97.9593V67.1094H96.5618V64.9558ZM99.0022 64.9558H100.436V67.1094H99.0022V64.9558ZM101.474 64.9558H102.544L102.984 67.1094H101.474V64.9558ZM103.488 64.9558C105.151 65.2163 105.586 66.911 105.638 67.9633L104.204 67.9457L103.488 64.9558ZM97.9988 69.8399C98.3735 69.8399 98.6594 70.1243 98.6594 70.499C98.6594 70.8738 98.3735 71.1597 97.9988 71.1597C97.6241 71.1597 97.3381 70.8738 97.3381 70.499C97.3381 70.1243 97.6241 69.8399 97.9988 69.8399ZM103.999 69.8399C104.374 69.8399 104.659 70.1243 104.659 70.499C104.659 70.8738 104.374 71.1597 103.999 71.1597C103.624 71.1597 103.338 70.8738 103.338 70.499C103.338 70.1243 103.624 69.8399 103.999 69.8399ZM242 45C240.385 45 238.884 43.6154 238.884 41.8847C238.884 40.1346 241.25 36.9998 242 36C242.75 37 245.115 40.1346 245.115 41.8847C245.115 43.6154 243.614 45 242 45ZM156.484 34.8574C158.117 38.2102 149.547 40.4072 157 45L157.322 44.8828C155.466 42.1975 162.997 39.0496 156.484 34.8574ZM159.873 38.293C160.923 41.3807 157.337 42.2654 158.462 44.4668L160.152 43.8535C160.83 42.2001 162.566 40.8668 159.873 38.293ZM152.097 43.8672C151.981 43.8714 151.869 43.9163 151.782 43.9942C151.695 44.072 151.638 44.1779 151.621 44.2935C151.603 44.409 151.627 44.5269 151.688 44.6267C151.749 44.7265 151.842 44.8019 151.953 44.8399L156.168 46.3731L151.955 47.9043C151.831 47.9489 151.731 48.0406 151.675 48.1593C151.62 48.2779 151.613 48.4138 151.658 48.5371C151.703 48.6603 151.794 48.7608 151.913 48.8165C152.031 48.8722 152.167 48.8785 152.291 48.834L157.613 46.8985L162.953 48.8399C163.078 48.8847 163.215 48.8782 163.335 48.8218C163.455 48.7654 163.548 48.6636 163.593 48.5389C163.638 48.4141 163.631 48.2766 163.575 48.1566C163.519 48.0365 163.417 47.9437 163.293 47.8985L159.078 46.3653L163.291 44.834C163.401 44.7957 163.493 44.7199 163.553 44.6198C163.612 44.5197 163.635 44.4018 163.616 44.287C163.597 44.1721 163.538 44.0676 163.45 43.9919C163.361 43.9161 163.249 43.8741 163.132 43.8731C163.072 43.8725 163.011 43.8831 162.955 43.9043L157.632 45.8399L152.293 43.8984C152.23 43.8751 152.164 43.8645 152.097 43.8672ZM35.4219 25.0068C35.3308 25.0212 35.2455 25.0605 35.1753 25.1203C35.1052 25.1802 35.0529 25.2583 35.0244 25.346C34.9958 25.4337 34.9921 25.5275 35.0135 25.6172C35.035 25.7069 35.0808 25.7889 35.146 25.8542L36.4389 27.1472C36.6774 27.3857 36.8461 27.6804 36.9331 28.0006H36.4996C35.6769 28.0006 34.9997 28.6778 34.9997 29.5005C34.9997 30.3232 35.6769 31.0005 36.4996 31.0005H36.9991V34.5005C36.9991 34.7825 36.7816 35 36.4996 35C36.4337 35.001 36.3683 34.9888 36.3072 34.9641C36.2461 34.9393 36.1906 34.9026 36.1439 34.856C36.0973 34.8094 36.0605 34.754 36.0356 34.6929C36.0108 34.6319 35.9985 34.5664 35.9994 34.5005V33.5001C35.9994 32.6781 35.3222 32.0002 34.4995 32.0002H33.9993V27.0009C33.9997 26.8695 33.9741 26.7393 33.924 26.6178C33.8739 26.4962 33.8003 26.3858 33.7074 26.2929C33.6145 26.1999 33.5041 26.1262 33.3827 26.076C33.2612 26.0258 33.131 26.0002 32.9996 26.0005H29C28.8685 26.0001 28.7382 26.0257 28.6167 26.0758C28.4951 26.1259 28.3847 26.1996 28.2917 26.2926C28.1987 26.3856 28.125 26.496 28.0749 26.6176C28.0248 26.7391 27.9992 26.8694 27.9995 27.0009V35C27.9992 35.1315 28.0248 35.2618 28.0749 35.3833C28.125 35.5049 28.1987 35.6153 28.2917 35.7083C28.3847 35.8013 28.4951 35.875 28.6167 35.9251C28.7382 35.9753 28.8685 36.0009 29 36.0005H32.9996C33.131 36.0008 33.2612 35.9751 33.3826 35.9249C33.5041 35.8747 33.6145 35.801 33.7074 35.7081C33.8003 35.6151 33.8739 35.5047 33.924 35.3832C33.9741 35.2617 33.9997 35.1314 33.9993 35V33.0006H34.4995C34.7815 33.0006 34.9997 33.2181 34.9997 33.5001V34.5005C34.9997 35.3225 35.6769 36.0005 36.4996 36.0005C37.3216 36.0005 37.9996 35.3225 37.9996 34.5005V28.5008C37.9996 28.1182 37.9242 27.7393 37.7778 27.3859C37.6313 27.0324 37.4167 26.7112 37.1461 26.4407L35.8532 25.147C35.7973 25.0912 35.7291 25.0494 35.654 25.025C35.5789 25.0006 35.4999 24.9944 35.4219 25.0068ZM29.4987 27.0009H32.4986C32.7761 27.0009 32.9988 27.2236 32.9988 27.5004V30.0008H29V27.5004C29 27.2236 29.222 27.0009 29.4987 27.0009ZM36.4996 28.7506C36.5982 28.7504 36.6959 28.7697 36.787 28.8073C36.8781 28.8449 36.961 28.9001 37.0307 28.9698C37.1005 29.0395 37.1558 29.1222 37.1936 29.2133C37.2314 29.3043 37.2508 29.4019 37.2508 29.5005C37.2508 29.5991 37.2314 29.6967 37.1936 29.7878C37.1558 29.8789 37.1005 29.9616 37.0307 30.0313C36.961 30.1009 36.8781 30.1561 36.787 30.1938C36.6959 30.2314 36.5982 30.2507 36.4996 30.2505C36.3009 30.2502 36.1105 30.171 35.9701 30.0304C35.8297 29.8898 35.7509 29.6992 35.7509 29.5005C35.7509 29.3018 35.8297 29.1113 35.9701 28.9707C36.1105 28.8301 36.3009 28.7509 36.4996 28.7506ZM40.1544 73.5844C39.4651 74.2928 39.2142 75.2783 39.399 76.1897C40.286 76.3794 41.2467 76.1211 41.9366 75.4141C42.6253 74.7065 42.8755 73.7209 42.6907 72.8096C41.8043 72.6206 40.8437 72.8782 40.1544 73.5844ZM35.3082 72.8096C35.1235 73.7209 35.375 74.7065 36.0629 75.4141C36.7522 76.1218 37.7135 76.3794 38.5999 76.1897C38.7846 75.2784 38.5331 74.2928 37.8452 73.5844C37.1559 72.8781 36.1946 72.6206 35.3082 72.8096ZM39.819 71.9655C39.819 71.7926 39.7938 71.6274 39.7555 71.4657C39.84 71.605 39.9363 71.7408 40.0541 71.8619C40.3835 72.1999 40.7939 72.4029 41.22 72.4736C41.5459 72.5261 41.8568 72.2076 41.8036 71.8738C41.7354 71.4356 41.5371 71.0149 41.2084 70.6783C41.0892 70.5551 40.9569 70.4571 40.8205 70.3703C40.9767 70.4074 41.1375 70.434 41.3046 70.434C41.7695 70.434 42.1991 70.28 42.5488 70.021C42.8161 69.8215 42.8161 69.37 42.5488 69.1727C42.199 68.9116 41.7688 68.759 41.3039 68.759C41.1354 68.759 40.9746 68.7849 40.8178 68.8227C40.9528 68.7359 41.0857 68.6379 41.203 68.5168C41.5323 68.1788 41.73 67.7581 41.7989 67.3206C41.8494 66.9853 41.5398 66.6668 41.2139 66.7207C40.7878 66.7907 40.378 66.9951 40.0487 67.3325C39.9294 67.455 39.8339 67.5908 39.7487 67.7315C39.7862 67.5712 39.8122 67.406 39.8122 67.2338C39.8122 66.755 39.6614 66.3154 39.4079 65.9564C39.2156 65.6813 38.7759 65.6813 38.5829 65.9564C38.3293 66.3155 38.1799 66.7557 38.1799 67.2338C38.1799 67.406 38.2059 67.5719 38.2427 67.7343C38.1582 67.5943 38.0627 67.4592 37.9447 67.3388C37.6154 67.0007 37.2057 66.7977 36.7795 66.727C36.453 66.6731 36.1428 66.9923 36.1946 67.3248C36.2633 67.7637 36.4605 68.1844 36.7911 68.5217C36.9096 68.6442 37.042 68.7436 37.1798 68.8304C37.023 68.7926 36.862 68.7667 36.695 68.7667C36.2287 68.7667 35.8005 68.9207 35.4501 69.1796C35.1828 69.3777 35.1828 69.8292 35.4501 70.0273C35.8005 70.2884 36.2294 70.4417 36.695 70.4417C36.8628 70.4417 37.0243 70.4151 37.1811 70.3773C37.0454 70.4641 36.9132 70.5614 36.7959 70.6825C36.4666 71.0205 36.2689 71.4419 36.2007 71.8801C36.1495 72.2153 36.4591 72.5331 36.7843 72.4785C37.2111 72.4085 37.6209 72.2055 37.9495 71.8682C38.0688 71.7457 38.1658 71.6099 38.2502 71.4692C38.2134 71.6295 38.1882 71.7947 38.1882 71.9662C38.1868 72.4442 38.3374 72.8845 38.5911 73.2429C38.7834 73.518 39.2232 73.518 39.4161 73.2429C39.6698 72.8845 39.819 72.4435 39.819 71.9655ZM38.9995 70.7196C38.3968 70.7196 37.9086 70.2191 37.9086 69.5997C37.9086 68.9809 38.3968 68.4798 38.9995 68.4798C39.6029 68.4798 40.0904 68.9809 40.0904 69.5997C40.0904 70.2191 39.6029 70.7196 38.9995 70.7196ZM11.1132 145.068C11.9055 145.068 12.545 144.429 12.545 143.636C12.545 142.844 11.9054 142.205 11.1132 142.205C10.3209 142.205 9.68134 142.844 9.68134 143.636C9.68134 144.429 10.3209 145.068 11.1132 145.068ZM16.8405 142.205H13.9768C13.4518 142.205 13.0223 142.634 13.0223 143.159V145.545H9.20411V141.727C9.20411 141.465 8.98936 141.25 8.72684 141.25C8.46433 141.25 8.24956 141.465 8.24956 141.727V147.932C8.24956 148.194 8.46431 148.409 8.72684 148.409C8.98933 148.409 9.20411 148.194 9.20411 147.932V146.977H17.7954V147.932C17.7954 148.194 18.0101 148.409 18.2726 148.409C18.5351 148.409 18.7499 148.194 18.7499 147.932V144.114C18.7499 143.059 17.8953 142.205 16.8405 142.205ZM66.1333 78.114L70.4533 71.9202V78.114H66.1333ZM71.2633 78.114C71.9923 76.089 71.8951 73.3674 71.2633 71.364C73.8337 72.1956 75.7994 75.36 75.8318 78.114H71.2633ZM75.9074 80.0472C75.6859 80.3928 75.4268 80.6898 75.1244 80.9436C74.7734 80.787 74.4602 80.544 74.2118 80.274C73.4072 81.3162 71.7818 81.3162 70.9771 80.274C70.1833 81.3162 68.5471 81.3162 67.7533 80.274C67.4833 80.544 67.1863 80.787 66.8353 80.9436C66.2197 80.436 65.7553 79.7124 65.5933 78.924H76.361C76.2745 79.329 76.1235 79.7016 75.9074 80.0472ZM75.8319 83.244C75.2595 83.244 74.7195 83.109 74.2119 82.839C73.2183 83.379 71.9709 83.379 70.9772 82.839C69.9836 83.379 68.7362 83.379 67.7534 82.839C67.0891 83.2116 66.3278 83.271 65.5934 83.244V82.164C66.3548 82.191 67.0892 82.11 67.7534 81.624C68.693 82.299 70.0268 82.299 70.9772 81.624C71.933 82.299 73.2614 82.299 74.2119 81.624C74.8653 82.11 75.6051 82.191 76.3611 82.164V83.244H75.8319ZM9.89699 52.1652L14.9995 49.8975L20.1021 52.1652V53.2991H18.9682V58.9687H20.1021V60.1026H9.89699V58.9687H11.0309V53.2991H9.89699V52.1652ZM12.6184 53.2991V58.9687H14.2059V53.2991H12.6184ZM15.9066 53.2991V58.9687H17.4941V53.2991H15.9066Z" fill="white" fill-opacity="0.2"/>
</svg>
