<?xml version="1.0" encoding="UTF-8"?>
<svg width="19" height="19" version="1.1" viewBox="0 0 19 19" xml:space="preserve" xmlns="http://www.w3.org/2000/svg">
	<path d="m2.0008 1.9996a1.4962 1.4962 0 0 0-1.5007 1.5008v11.999a1.4962 1.4962 0 0 0 1.5007 1.5008h5.9996a1.4962 1.4962 0 0 0 1.4996-1.5008v-2.9992h0.75038c0.423 0 0.75038 0.32625 0.75038 0.74925v1.5008c0 1.233 1.0159 2.25 2.25 2.25 1.233 0 2.25-1.017 2.25-2.25v-5.2504a0.765 0.765 0 0 0-0.01125-0.126c0.64012-0.225 1.1497-0.73462 1.3792-1.3736h0.13162a1.4962 1.4962 0 0 0 1.4996-1.5008h-1.4996v-2.9992a0.75038 0.75038 0 1 0-1.4996 0v2.9992h-1.5008v-2.9992a0.75038 0.75038 0 1 0-1.4996 0v2.9992h-1.4996a1.4962 1.4962 0 0 0 1.4996 1.5008h0.13162a2.2748 2.2748 0 0 0 1.3804 1.3736 0.76725 0.76725 0 0 0-0.01125 0.126v5.2504c0 0.423-0.32737 0.74925-0.75038 0.74925a0.73912 0.73912 0 0 1-0.75037-0.74925v-1.5008c0-1.233-1.0159-2.25-2.25-2.25h-0.75038v-7.4992a1.4962 1.4962 0 0 0-1.4996-1.5008zm0.74925 1.5008h4.5c0.41625 0 0.75038 0.33412 0.75038 0.74925v3.7508h-5.9996v-3.7508c0-0.41512 0.33412-0.74925 0.74925-0.74925zm3.9611 5.625a0.36 0.36 0 0 1 0.23175 0.09c0.11588 0.117 0.117 0.2925 0.0023 0.41063l-1.7955 2.0767 1.35 1.3568a0.26775 0.26775 0 0 1-0.02587 0.40725l-2.9475 2.3321a0.37012 0.37012 0 0 1-0.468-0.01462 0.28688 0.28688 0 0 1-0.0034-0.41062l1.7966-2.0734-1.3511-1.3601a0.26775 0.26775 0 0 1 0.02588-0.40725l2.9475-2.3321a0.36338 0.36338 0 0 1 0.23738-0.075375z" fill="#fff"/>
</svg>
