<svg xmlns="http://www.w3.org/2000/svg" width="18" height="18" viewBox="0 0 24 24"><path d="M6.667 5.333a1.33 1.33 0 0 0-1.334 1.334v10.666a1.33 1.33 0 0 0 1.334 1.334H12a1.33 1.33 0 0 0 1.333-1.334v-2.666H14c.376 0 .667.29.667.666v1.334c0 1.096.903 2 2 2 1.096 0 2-.904 2-2V12a.68.68 0 0 0-.01-.112 2.023 2.023 0 0 0 1.226-1.221H20a1.33 1.33 0 0 0 1.333-1.334H20V6.667a.667.667 0 1 0-1.333 0v2.666h-1.334V6.667a.667.667 0 1 0-1.333 0v2.666h-1.333A1.33 1.33 0 0 0 16 10.667h.117a2.022 2.022 0 0 0 1.227 1.221.682.682 0 0 0-.01.112v4.667a.657.657 0 0 1-.667.666.657.657 0 0 1-.667-.666v-1.334c0-1.096-.903-2-2-2h-.667V6.667A1.33 1.33 0 0 0 12 5.333Zm.666 1.334h4c.37 0 .667.297.667.666v3.334H6.667V7.333c0-.369.297-.666.666-.666zm3.521 5a.32.32 0 0 1 .206.08c.103.104.104.26.002.365l-1.596 1.846 1.2 1.206a.238.238 0 0 1-.023.362l-2.62 2.073a.329.329 0 0 1-.416-.013.255.255 0 0 1-.003-.365l1.597-1.843L8 14.169a.238.238 0 0 1 .023-.362l2.62-2.073a.323.323 0 0 1 .211-.067z" style="fill:#777;fill-opacity:1;stroke-width:.133333;stroke-linecap:round;stroke-linejoin:round;stroke-dasharray:.133333,.133333;paint-order:fill markers stroke"/></svg>