<?xml version="1.0" encoding="UTF-8"?>
<svg width="18" height="18" version="1.1" viewBox="0 0 18 18" xmlns="http://www.w3.org/2000/svg">
 <circle cx="9" cy="9" r="9" fill="#000" opacity=".6"/>
 <circle cx="9" cy="9" r="8.25" fill="#8c5f93"/>
 <path d="m12.5 12.44c0-0.36313-0.29312-0.65625-0.65625-0.65625h-2.1875c-0.1225 0-0.21875-0.09625-0.21875-0.21875 0-0.1225 0.096248-0.21875 0.21875-0.21875h3.5c0.36313 0 0.65625-0.29312 0.65625-0.65625s-0.29312-0.65625-0.65625-0.65625h-3.5c-0.1225 0-0.21875-0.096248-0.21875-0.21875 0-0.1225 0.096248-0.21875 0.21875-0.21875h3.9375c0.36313 0 0.65625-0.29312 0.65625-0.65625s-0.29312-0.65625-0.65625-0.65625h-3.9332c-0.1225 0-0.21875-0.096247-0.21875-0.21875 0-0.1225 0.096248-0.21875 0.21875-0.21875h2.6206c0.36313 0 0.65625-0.29312 0.65625-0.65625s-0.29312-0.65625-0.65625-0.65625h-4.9918l1.0281-1.8025c0.14438-0.25375 0.105-0.56875-0.096248-0.77872-0.25375-0.2625-0.67375-0.27125-0.93188-0.013125l-3.0144 2.9662c-0.33688 0.32812-0.525 0.77438-0.525 1.2469v3.1937c0 0.9669 0.78315 1.75 1.75 1.75h6.3437c0.36313 0 0.65625-0.29312 0.65625-0.65625z" fill="#000"/>
</svg>
