<?xml version="1.0" encoding="UTF-8"?>
<svg width="14" height="9" version="1.1" viewBox="0 0 14 9" xmlns="http://www.w3.org/2000/svg">
 <path d="m11.52 1.8815a1.7502 1.7497 0 0 0-3.0391 0l-0.48047 0.84158-0.48047-0.84158a1.7502 1.7497 0 0 0-3.0391 0l-0.48047 0.84158-0.48047-0.84158a1.7502 1.7497 0 0 0-1.5195-0.88063 1.7502 1.7497 0 0 0-1 0.3378v3.1867l1.4805 2.5931a1.7502 1.7497 0 0 0 3.0391 0l0.48047-0.84158 0.48047 0.84158a1.7502 1.7497 0 0 0 3.0391 0l0.48047-0.84158 0.48047 0.84158a1.7502 1.7497 0 0 0 2.5195 0.54869v-3.1945z" fill="#000" opacity=".6"/>
 <path d="m12 4.7405-1.3496-2.3635a0.75008 0.75015 0 0 0-1.3008 0l-1.3496 2.3616-1.3496-2.3616a0.75008 0.75015 0 0 0-1.3008 0l-1.3496 2.3616-1.3496-2.3616a0.75008 0.75015 0 0 0-0.65039-0.37699v2.262l1.3496 2.3616a0.75008 0.75015 0 0 0 1.3008 0l1.3496-2.3616 1.3496 2.3616a0.75008 0.75015 0 0 0 1.3008 0l1.3496-2.3616 1.3496 2.3616a0.75008 0.75015 0 0 0 0.65039 0.36136z" fill="#14a0c2"/>
</svg>
