<?xml version="1.0" encoding="UTF-8"?>
<svg version="1.1" viewBox="0 0 24 24" width="18" height="18" xmlns="http://www.w3.org/2000/svg">
	<circle id="Oval" cx="12" cy="12" r="12" fill="#000" opacity=".6"/>
	<circle cx="12" cy="12" r="11" fill="#7f5933"/>
	<path d="m7.0781 5.9961c-0.10394 0-0.22223 0.00669-0.32617 0.013672-0.86615 0.083803-1.3858 0.39146-1.6699 0.62891l-0.20703 0.17383-0.26367-0.13281c-0.18016-0.090787-0.42205-0.12476-0.69922-0.089844-0.27024 0.027934-0.51357 0.097304-0.66602 0.16016-0.083151 0.027934-0.13849 0.097837-0.15234 0.18164-0.013858 0.083803 0.021621 0.16874 0.083984 0.22461 0.048505 0.041902 0.096027 0.075286 0.14453 0.11719 0.15244 0.11872 0.69427 0.50261 1.207 0.65625l0.2832 0.083984 0.068359 0.20312c0.11087 0.33521 0.29938 0.83868 0.54883 1.3555 0.27717 0.57266 0.57509 1.0111 0.87305 1.3184 0.29796 0.30728 0.59569 0.46094 0.88672 0.46094 0.020788-7e-3 0.040643-0.0059 0.068359-0.0059 0.31875-0.027893 0.61081-0.23808 0.86719-0.61519 0.23559-0.3422 0.44307-0.81572 0.60938-1.4023 0.1663-0.57964 0.25618-1.1396 0.30469-1.5098l0.027344-0.22266 0.22266-0.10547c0.45733-0.21649 0.91466-0.68449 1.0879-0.87305 0.05543-0.055869 0.10384-0.11796 0.15234-0.17383 0.05543-0.062852 0.06873-0.15448 0.04102-0.23828-0.027721-0.083803-0.096541-0.13838-0.17969-0.15234-0.22866-0.034918-0.47767-0.050248-0.68555-0.029297-0.32567 0.034918-0.58282 0.13347-0.74219 0.28711l-0.22852 0.22266-0.26367-0.16602c-0.38804-0.24443-0.86596-0.37109-1.3926-0.37109zm5.834 2.0039c-0.38804 0-0.75371 0.12696-1.0586 0.35742l-0.1875 0.13867-0.21484-0.089844c-0.21481-0.090787-0.43628-0.13281-0.67188-0.13281-0.31182 0-0.60974 0.083813-0.87305 0.23047l-0.0625 0.035156c-0.062363 0.034918-0.10528 0.09032-0.11914 0.16016-0.055434 0.29331-0.12495 0.57837-0.20117 0.84375-0.19402 0.67741-0.43465 1.2294-0.71875 1.6484-0.4019 0.58662-0.89469 0.90898-1.4629 0.96484h-0.013672c-0.083151 7e-3 -0.15285 0.05516-0.1875 0.125-0.034646 0.06984-0.034646 0.15365 0 0.23047 0.13858 0.24443 0.34039 0.4616 0.58984 0.61523l0.20703 0.125-0.013672 0.24414v0.07813c0 0.53774 0.27049 1.0317 0.70703 1.332v2.5156c0 0.26538 0.2152 0.48047 0.47852 0.48047 0.26331 0 0.47656-0.21509 0.47656-0.48047v-1.9902c0.21481 0.31426 0.52054 0.54451 0.88086 0.65625v2.4512c0 0.26538 0.2152 0.48242 0.47852 0.48242 0.26331 0 0.47852-0.21704 0.47852-0.48242v-2.3965c0.11087-0.02793 0.22028-0.06161 0.32422-0.10352l0.20898-0.0918 0.1875 0.13281c0.29796 0.20951 0.64359 0.31445 1.0039 0.31445 0.30489 0 0.60192-0.076 0.86524-0.22266l0.20117-0.11328 0.20117 0.11328c0.24252 0.13967 0.52059 0.21567 0.80469 0.22266v1.0469c0 0.26538 0.2152 0.48242 0.47852 0.48242s0.47656-0.21704 0.47656-0.48242v-1.2988c0.13166-0.07682 0.25739-0.17342 0.36133-0.28516l0.11719-0.12695h0.17383c0.04158 0 0.08928 0.0011 0.13086-0.0059v2.8145c0 0.26538 0.2152 0.48242 0.47852 0.48242s0.47852-0.21704 0.47852-0.48242v-3.1914c0.38111-0.30728 0.62305-0.76949 0.62305-1.2793 0-0.28633-0.07607-0.57281-0.22852-0.82422l-0.125-0.20898 0.125-0.20898c0.14551-0.25141 0.22852-0.53789 0.22852-0.82422 0-0.3841-0.13141-0.74072-0.38086-1.041l-0.13867-0.16797 0.02148-0.06836c0.37418 0.29331 0.81658 0.58694 1.0938 0.44727 0.09701-0.04889 0.17982-0.14744 0.24219-0.28711 0.09008-0.23046 0.09027-0.43922-0.01367-0.63476-0.20787-0.38406-0.81001-0.61615-1.3574-0.75582-0.25638-0.60059-0.87223-1.0195-1.5859-1.0195-0.09008 0-0.18815 0.00752-0.28516 0.021484l-0.17969 0.027344-0.13867-0.11719c-0.31182-0.26538-0.71315-0.40625-1.1289-0.40625-0.24945 0-0.49204 0.049543-0.7207 0.1543l-0.16797 0.076172-0.16602-0.076172c-0.22866-0.09777-0.47125-0.1543-0.7207-0.1543z" fill="#000"/>
</svg>
