<?xml version="1.0" encoding="UTF-8"?>
<svg width="28" height="28" version="1.1" viewBox="0 0 28 28" xml:space="preserve" xmlns="http://www.w3.org/2000/svg">
 <defs>
  <filter id="filter1" x="-.17373" y="-.17373" width="1.3475" height="1.3475" color-interpolation-filters="sRGB">
   <feGaussianBlur stdDeviation="1.5925"/>
  </filter>
 </defs>
 <circle cx="14" cy="14" r="11" filter="url(#filter1)" opacity=".35"/>
 <circle cx="14" cy="13" r="11" fill="#006c35" stroke="#fff" stroke-width="2"/>
 <path d="m16.698 10.736q0 0.62109-0.31055 1.1016-0.31055 0.48047-0.85547 0.76758 0.62109 0.29883 0.98438 0.82617 0.36328 0.52148 0.36328 1.2305 0 1.1367-0.77344 1.7988-0.77344 0.65625-2.1035 0.65625t-2.1094-0.66211-0.7793-1.793q0-0.70898 0.36328-1.2363 0.36328-0.52734 0.97852-0.82031-0.54492-0.28711-0.85547-0.76758-0.30469-0.48047-0.30469-1.1016 0-1.0898 0.72656-1.7344 0.72656-0.65039 1.9746-0.65039 1.2422 0 1.9688 0.64453 0.73242 0.63867 0.73242 1.7402zm-1.5176 3.8027q0-0.55664-0.32227-0.89062-0.32226-0.33398-0.86719-0.33398-0.53906 0-0.86133 0.33398-0.32227 0.32812-0.32227 0.89062 0 0.54492 0.31641 0.87891 0.31641 0.33398 0.87891 0.33398 0.55078 0 0.86133-0.32226 0.31641-0.32227 0.31641-0.89062zm-0.17578-3.7207q0-0.49805-0.26367-0.79688-0.26367-0.30469-0.74414-0.30469-0.47461 0-0.73828 0.29297-0.26367 0.29297-0.26367 0.80859 0 0.50977 0.26367 0.82031t0.74414 0.31055q0.48047 0 0.73828-0.31055 0.26367-0.31055 0.26367-0.82031z" fill="#fff" aria-label="8" data-font-family="Roboto" data-font-size="12px"/>
</svg>
