<?xml version="1.0" encoding="UTF-8"?>
<svg width="28" height="28" version="1.1" viewBox="0 0 28 28" xml:space="preserve" xmlns="http://www.w3.org/2000/svg">
 <defs>
  <filter id="filter1" x="-.17373" y="-.17373" width="1.3475" height="1.3475" color-interpolation-filters="sRGB">
   <feGaussianBlur stdDeviation="1.5925"/>
  </filter>
 </defs>
 <circle cx="14" cy="14" r="11" filter="url(#filter1)" opacity=".35"/>
 <circle cx="14" cy="13" r="11" fill="#006c35" stroke="#fff" stroke-width="2"/>
 <path d="m15.731 8.3809v1.3945h-0.16406q-1.1484 0.017578-1.8516 0.59766-0.69726 0.58008-0.83789 1.6113 0.67969-0.69141 1.7168-0.69141 1.1133 0 1.7695 0.79688t0.65625 2.0977q0 0.83203-0.36328 1.5059-0.35742 0.67383-1.0195 1.0488-0.65625 0.375-1.4883 0.375-1.3477 0-2.1797-0.9375-0.82617-0.9375-0.82617-2.502v-0.60938q0-1.3887 0.52148-2.4492 0.52734-1.0664 1.5059-1.6465 0.98438-0.58594 2.2793-0.5918zm-1.6523 4.2715q-0.41016 0-0.74414 0.2168-0.33398 0.21094-0.49219 0.5625v0.51562q0 0.84961 0.33398 1.3301 0.33398 0.47461 0.9375 0.47461 0.54492 0 0.87891-0.42773 0.33984-0.43359 0.33984-1.1191 0-0.69726-0.33984-1.125-0.33984-0.42773-0.91406-0.42773z" fill="#fff" aria-label="6" data-font-family="Roboto" data-font-size="12px"/>
</svg>
