<?xml version="1.0" encoding="UTF-8"?>
<svg width="36" height="36" version="1.1" viewBox="0 0 36 36" xml:space="preserve" xmlns="http://www.w3.org/2000/svg">
 <defs>
  <filter id="filter1" x="-.147" y="-.147" width="1.294" height="1.294" color-interpolation-filters="sRGB">
   <feGaussianBlur stdDeviation="1.5925"/>
  </filter>
  <linearGradient id="linearGradient1" x1="18" x2="18" y1="3" y2="29" gradientUnits="userSpaceOnUse">
   <stop stop-color="#3fa8f3" offset="0"/>
   <stop stop-color="#2089d4" offset="1"/>
  </linearGradient>
 </defs>
 <circle cx="18" cy="18" r="13" filter="url(#filter1)" opacity=".35"/>
 <circle cx="18" cy="16" r="13" fill="url(#linearGradient1)" stroke="#fff" stroke-width="2"/>
 <path d="m15.748 8.5c-0.04898-1.643e-4 -0.09771 0.00409-0.14648 0.013672-0.19506 0.039306-0.3665 0.15454-0.47656 0.32031l-2.7773 4.166h-3.3496c-0.41348 0.001013-0.74811 0.33652-0.74805 0.75v0.75c-6.47e-5 0.41348 0.33457 0.74899 0.74805 0.75h0.99023l1.2715 7.623c0.06002 0.3612 0.37213 0.62624 0.73828 0.62695h12.002c0.36616-7.12e-4 0.67826-0.26575 0.73828-0.62695l1.2695-7.623h0.99024c0.41424 6.4e-5 0.75006-0.33576 0.75-0.75v-0.75c6.3e-5 -0.41424-0.33576-0.75006-0.75-0.75h-3.3477l-2.7773-4.166c-0.23006-0.34499-0.69646-0.43775-1.041-0.20703-0.34378 0.22997-0.43642 0.69489-0.20703 1.0391l2.2227 3.334h-7.6973l2.2227-3.334c0.229-0.34468 0.13547-0.80972-0.20898-1.0391-0.1238-0.083135-0.26906-0.12646-0.41602-0.12695zm-3.8906 6.75h2.2832l1.125 6.75h-2.2832zm5.0156 0h2.25l0.001953 6.75h-2.25zm4.9844 0h2.2812l-1.125 6.75h-2.2812z" fill="#fff"/>
</svg>
