<?xml version="1.0" encoding="UTF-8"?>
<svg width="36" height="36" version="1.1" viewBox="0 0 36 36" xml:space="preserve" xmlns="http://www.w3.org/2000/svg">
 <defs>
  <filter id="filter1" x="-.147" y="-.147" width="1.294" height="1.294" color-interpolation-filters="sRGB">
   <feGaussianBlur stdDeviation="1.5925"/>
  </filter>
  <linearGradient id="linearGradient1" x1="18" x2="18" y1="3" y2="29" gradientUnits="userSpaceOnUse">
   <stop stop-color="#3fa8f3" offset="0"/>
   <stop stop-color="#2089d4" offset="1"/>
  </linearGradient>
 </defs>
 <circle cx="18" cy="18" r="13" filter="url(#filter1)" opacity=".35"/>
 <circle cx="18" cy="16" r="13" fill="url(#linearGradient1)" stroke="#fff" stroke-width="2"/>
 <path d="m21.75 15.25v-6h-7.5v3h-3v10.5h6v-3h1.5v3h6v-7.5h-3zm-7.5 6h-1.5v-1.5h1.5zm0-3h-1.5v-1.5h1.5zm0-3h-1.5v-1.5h1.5zm3 3h-1.5v-1.5h1.5zm0-3h-1.5v-1.5h1.5zm0-3h-1.5v-1.5h1.5zm3 6h-1.5v-1.5h1.5zm0-3h-1.5v-1.5h1.5zm0-3h-1.5v-1.5h1.5zm3 9h-1.5v-1.5h1.5zm0-3h-1.5v-1.5h1.5z" fill="#fff"/>
</svg>
