<?xml version="1.0" encoding="UTF-8"?>
<svg width="36" height="36" version="1.1" viewBox="0 0 36 36" xml:space="preserve" xmlns="http://www.w3.org/2000/svg">
 <defs>
  <filter id="filter1" x="-.147" y="-.147" width="1.294" height="1.294" color-interpolation-filters="sRGB">
   <feGaussianBlur stdDeviation="1.5925"/>
  </filter>
  <linearGradient id="linearGradient1" x1="18" x2="18" y1="3" y2="29" gradientUnits="userSpaceOnUse">
   <stop stop-color="#3fa8f3" offset="0"/>
   <stop stop-color="#2089d4" offset="1"/>
  </linearGradient>
 </defs>
 <circle cx="18" cy="18" r="13" filter="url(#filter1)" opacity=".35"/>
 <circle cx="18" cy="16" r="13" fill="url(#linearGradient1)" stroke="#fff" stroke-width="2"/>
 <path d="m21.15 18.7c-0.9936 0-1.8 0.8055-1.8 1.8 0 0.9936 0.8064 1.8 1.8 1.8s1.8-0.8064 1.8-1.8c0-0.9945-0.8064-1.8-1.8-1.8zm-6.3 0c-0.9945 0-1.8 0.8055-1.8 1.8 0 0.9936 0.8055 1.8 1.8 1.8 0.9936 0 1.8-0.8064 1.8-1.8 0-0.9945-0.8064-1.8-1.8-1.8zm8.5482-3.6h-3.0654c0.4293-0.4896 0.7074-1.1115 0.7821-1.8027 0.0126 0 0.0225 0.0036 0.0351 0.0036 0.9936 0 1.8-0.8064 1.8-1.8s-0.8064-1.8009-1.8-1.8009c-0.531 0-1.0035 0.2349-1.332 0.6003-0.5139-0.3753-1.1394-0.6003-1.818-0.6003s-1.3032 0.225-1.818 0.6003c-0.3294-0.3654-0.801-0.6003-1.332-0.6003-0.9945 0-1.8 0.8064-1.8 1.8009 0 0.9936 0.8055 1.8 1.8 1.8 0.0126 0 0.0225-0.0036 0.0351-0.0036 0.0747 0.6912 0.3537 1.3131 0.7821 1.8027h-3.0663c-0.7452 0-1.3509 0.6048-1.3509 1.35 0 0.7137 0.5553 1.2906 1.2555 1.3401 0.6318-0.5472 1.4445-0.8901 2.3445-0.8901 1.3653 0 2.5389 0.7713 3.15 1.8936 0.6111-1.1214 1.7847-1.8936 3.15-1.8936 0.9 0 1.7127 0.3429 2.3445 0.8901 0.6993-0.0504 1.2555-0.6264 1.2555-1.3401 0-0.7452-0.6057-1.35-1.3518-1.35zm-5.3982 0.18c-0.8577 0-1.53-0.4743-1.53-1.08s0.6723-1.08 1.53-1.08 1.53 0.4743 1.53 1.08-0.6723 1.08-1.53 1.08z" fill="#fff"/>
</svg>
