<?xml version="1.0" encoding="UTF-8"?>
<svg width="36" height="36" version="1.1" viewBox="0 0 36 36" xml:space="preserve" xmlns="http://www.w3.org/2000/svg">
 <defs>
  <filter id="filter1" x="-.147" y="-.147" width="1.294" height="1.294" color-interpolation-filters="sRGB">
   <feGaussianBlur stdDeviation="1.5925"/>
  </filter>
  <linearGradient id="linearGradient1" x1="18" x2="18" y1="3" y2="29" gradientUnits="userSpaceOnUse">
   <stop stop-color="#3fa8f3" offset="0"/>
   <stop stop-color="#2089d4" offset="1"/>
  </linearGradient>
 </defs>
 <circle cx="18" cy="18" r="13" filter="url(#filter1)" opacity=".35"/>
 <circle cx="18" cy="16" r="13" fill="url(#linearGradient1)" stroke="#fff" stroke-width="2"/>
 <path d="m18 8.1256c-0.48327 0.64426-1.3499 1.7966-2.252 3.1465l7.6758 7.6758c0.01741-0.17226 0.02734-0.34669 0.02734-0.52344 0-3.0627-4.1387-8.5489-5.4512-10.299zm-4.1133 6.2383c-0.77413 1.4766-1.3379 2.9334-1.3379 4.0605 0 3.0288 2.626 5.4512 5.4512 5.4512 1.4181 0 2.7859-0.6104 3.7969-1.6016l-7.9102-7.9102z" fill="#fff"/>
 <path d="m12.5 10.501 12 12" fill="none" stroke="#fff" stroke-linecap="round" stroke-width="1.5"/>
</svg>
