<?xml version="1.0" encoding="UTF-8"?>
<svg width="36" height="36" version="1.1" viewBox="0 0 36 36" xml:space="preserve" xmlns="http://www.w3.org/2000/svg">
 <defs>
  <filter id="filter1" x="-.147" y="-.147" width="1.294" height="1.294" color-interpolation-filters="sRGB">
   <feGaussianBlur stdDeviation="1.5925"/>
  </filter>
  <linearGradient id="linearGradient1" x1="18" x2="18" y1="3" y2="29" gradientUnits="userSpaceOnUse">
   <stop stop-color="#3fa8f3" offset="0"/>
   <stop stop-color="#2089d4" offset="1"/>
  </linearGradient>
 </defs>
 <circle cx="18" cy="18" r="13" filter="url(#filter1)" opacity=".35"/>
 <circle cx="18" cy="16" r="13" fill="url(#linearGradient1)" stroke="#fff" stroke-width="2"/>
 <path d="m21.634 13.404h-7.2692c-0.57354 0-1.0384-0.46492-1.0384-1.0384v-2.5961c0-0.28672 0.23252-0.51923 0.51923-0.51923 0.28672 0 0.51923 0.23252 0.51923 0.51923v1.5577h1.0384v-1.0384c0-0.57354 0.46492-1.0385 1.0384-1.0385 0.57353 0 1.0384 0.46492 1.0384 1.0385v1.0384h1.0384v-1.0384c0-0.57354 0.46492-1.0385 1.0384-1.0385 0.57354 0 1.0384 0.46492 1.0384 1.0385v1.0384h1.0384v-1.5577c0-0.28672 0.23252-0.51923 0.51923-0.51923 0.28672 0 0.51923 0.23252 0.51923 0.51923v2.5961c0 0.57354-0.46492 1.0384-1.0384 1.0384zm2.5961 9.3465h-12.461c-0.28672 0-0.51923-0.23252-0.51923-0.51923 0-0.28672 0.23251-0.51923 0.51923-0.51923h0.51923c0.57354 0 1.0385-0.46492 1.0385-1.0384 0 0 1.0384-4.1539 1.0384-5.1923 0-0.57354 0.46492-1.0384 1.0385-1.0384h5.1923c0.57354 0 1.0384 0.46492 1.0384 1.0384 0 1.0384 1.0384 5.1923 1.0384 5.1923 0 0.57354 0.46492 1.0384 1.0384 1.0384h0.51923c0.28277-1.04e-4 0.51362 0.22618 0.51923 0.50884 0 0.2971-0.23252 0.52961-0.51923 0.52961zm-4.6731-3.6346c0-0.86025-0.69743-1.5577-1.5577-1.5577s-1.5577 0.69743-1.5577 1.5577v2.5961h3.1154v-3.6346z" fill="#fff"/>
</svg>
