<?xml version="1.0" encoding="UTF-8"?>
<svg width="36" height="36" version="1.1" viewBox="0 0 36 36" xml:space="preserve" xmlns="http://www.w3.org/2000/svg">
 <defs>
  <filter id="filter1" x="-.147" y="-.147" width="1.294" height="1.294" color-interpolation-filters="sRGB">
   <feGaussianBlur stdDeviation="1.5925"/>
  </filter>
  <linearGradient id="linearGradient1" x1="18" x2="18" y1="3" y2="29" gradientUnits="userSpaceOnUse">
   <stop stop-color="#3fa8f3" offset="0"/>
   <stop stop-color="#2089d4" offset="1"/>
  </linearGradient>
 </defs>
 <circle cx="18" cy="18" r="13" filter="url(#filter1)" opacity=".35"/>
 <circle cx="18" cy="16" r="13" fill="url(#linearGradient1)" stroke="#fff" stroke-width="2"/>
 <path d="m15.511 8.0185c-1.2987 0-2.3687 1.0699-2.3687 2.3687 0 0.66094 0.3266 1.2494 0.74706 1.6172 0.05539 0.04845 0.11154 0.09324 0.16919 0.13623h-2.5356c-0.37536 0-0.72755 0.0939-1.0261 0.29663-0.29856 0.20273-0.56689 0.56364-0.56689 1.0063v1.303h7.0026v-2.6059h2.1357v2.6059h7.0026v-1.303c0-0.4427-0.26833-0.8036-0.56689-1.0063-0.29856-0.20274-0.65074-0.29663-1.0261-0.29663h-2.5356c0.05768-0.043 0.11596-0.08775 0.17138-0.13623 0.42048-0.36778 0.74706-0.95623 0.74706-1.6172 0-1.2987-1.0699-2.3687-2.3687-2.3687-0.72331 0-1.2951 0.43149-1.6282 0.85473-0.33304 0.42323-0.52161 0.87015-0.66356 1.1711-0.09402 0.19931-0.12331 0.3029-0.19994 0.4724-0.07653-0.16926-0.10389-0.27342-0.19775-0.4724-0.14196-0.30097-0.33052-0.74789-0.66356-1.1711-0.33304-0.42323-0.90485-0.85473-1.6282-0.85473zm0 1.6084c0.1407 0 0.20535 0.03694 0.36474 0.2395 0.15939 0.20255 0.31923 0.53878 0.4724 0.86352 0.16272 0.34497 0.211 0.48955 0.30762 0.72069-0.27299-0.07963-0.50992-0.14662-0.90965-0.26806-0.34939-0.10614-0.64253-0.25327-0.7976-0.38891-0.15507-0.13564-0.19775-0.20342-0.19775-0.40649 0-0.42931 0.33095-0.76024 0.76024-0.76024zm4.9306 0c0.01556-0.0014 0.03296 0 0.05053 0 0.4293 0 0.76024 0.33095 0.76024 0.76024 0 0.20307-0.04269 0.27085-0.19775 0.40649-0.15507 0.13564-0.44822 0.28277-0.79759 0.38891-0.39973 0.12144-0.63668 0.18842-0.90965 0.26806 0.09661-0.23114 0.1449-0.37572 0.30762-0.72069 0.15318-0.32474 0.31302-0.66096 0.4724-0.86352 0.13947-0.17723 0.20539-0.22966 0.31421-0.2395zm-9.5799 6.5478v6.2138c0 0.86992 0.72308 1.593 1.593 1.593h4.478v-7.8068h-6.071zm8.2067 0v7.8068h4.478c0.86992 0 1.593-0.72307 1.593-1.593v-6.2138h-6.071z" fill="#fff"/>
</svg>
