<?xml version="1.0" encoding="UTF-8"?>
<svg width="36" height="36" version="1.1" viewBox="0 0 36 36" xml:space="preserve" xmlns="http://www.w3.org/2000/svg">
 <defs>
  <filter id="filter1" x="-.147" y="-.147" width="1.294" height="1.294" color-interpolation-filters="sRGB">
   <feGaussianBlur stdDeviation="1.5925"/>
  </filter>
  <linearGradient id="linearGradient1" x1="18" x2="18" y1="3" y2="29" gradientUnits="userSpaceOnUse">
   <stop stop-color="#3fa8f3" offset="0"/>
   <stop stop-color="#2089d4" offset="1"/>
  </linearGradient>
 </defs>
 <circle cx="18" cy="18" r="13" filter="url(#filter1)" opacity=".35"/>
 <circle cx="18" cy="16" r="13" fill="url(#linearGradient1)" stroke="#fff" stroke-width="2"/>
 <path d="m24.579 11.825 0.0088-0.0087-2.7907-2.7907c-0.2537-0.2537-0.67362-0.2537-0.92733 0-0.2537 0.2537-0.2537 0.67362 0 0.92733l1.3823 1.3823c-0.91858 0.34994-1.5398 1.286-1.3823 2.3708 0.13996 0.96232 0.96232 1.7409 1.9246 1.8459 0.41118 0.04374 0.76986-0.02625 1.111-0.17497v6.3076c0 0.48116-0.39368 0.87484-0.87484 0.87484-0.48116 0-0.87484-0.39368-0.87484-0.87484v-3.9367c0-0.96232-0.78735-1.7497-1.7497-1.7497h-0.87491v-6.1239c0-0.96232-0.78735-1.7497-1.7497-1.7497h-5.2491c-0.96232 0-1.7497 0.78735-1.7497 1.7497v13.123c0 0.48116 0.39367 0.87484 0.87484 0.87484h6.9987c0.48116 0 0.87484-0.39367 0.87484-0.87484v-5.6864h1.3123v4.2517c0 1.146 0.82235 2.1871 1.9596 2.3008 1.3123 0.13123 2.4145-0.89233 2.4145-2.1783v-8.311c0-0.60364-0.24495-1.1548-0.63863-1.5484zm-6.7974 2.4233h-5.249v-3.4994c0-0.48116 0.39368-0.87484 0.87484-0.87484h3.4994c0.48116 0 0.87484 0.39367 0.87484 0.87484zm5.249 0c-0.48116 0-0.87484-0.39368-0.87484-0.87484 0-0.48116 0.39367-0.87484 0.87484-0.87484 0.48116 0 0.87484 0.39367 0.87484 0.87484 0 0.48116-0.39368 0.87484-0.87484 0.87484z" fill="#fff"/>
</svg>
