<?xml version="1.0" encoding="UTF-8"?>
<svg width="36" height="36" version="1.1" viewBox="0 0 36 36" xml:space="preserve" xmlns="http://www.w3.org/2000/svg">
 <defs>
  <filter id="filter1" x="-.147" y="-.147" width="1.294" height="1.294" color-interpolation-filters="sRGB">
   <feGaussianBlur stdDeviation="1.5925"/>
  </filter>
  <linearGradient id="linearGradient1" x1="18" x2="18" y1="3" y2="29" gradientUnits="userSpaceOnUse">
   <stop stop-color="#3fa8f3" offset="0"/>
   <stop stop-color="#2089d4" offset="1"/>
  </linearGradient>
 </defs>
 <circle cx="18" cy="18" r="13" filter="url(#filter1)" opacity=".35"/>
 <circle cx="18" cy="16" r="13" fill="url(#linearGradient1)" stroke="#fff" stroke-width="2"/>
 <path d="m11.994 10.852h12.012c0.47188 0 0.85796-0.38608 0.85796-0.85796 0-0.47188-0.38608-0.85796-0.85796-0.85796h-12.012c-0.47188 0-0.85796 0.38608-0.85796 0.85796 0 0.47188 0.38608 0.85796 0.85796 0.85796zm13.006 1.5443c-0.07722-0.39466-0.42898-0.68636-0.8408-0.68636h-12.32c-0.41182 0-0.76358 0.2917-0.8408 0.68636l-0.85796 4.2897c-0.10296 0.53193 0.30028 1.0295 0.8408 1.0295h0.15443v4.2897c0 0.47188 0.38608 0.85796 0.85796 0.85796h6.8636c0.47188 0 0.85796-0.38608 0.85796-0.85796v-4.2897h3.4318v4.2897c0 0.47188 0.38608 0.85796 0.85796 0.85796 0.47188 0 0.85796-0.38608 0.85796-0.85796v-4.2897h0.15443c0.54052 0 0.94375-0.49761 0.8408-1.0295l-0.85796-4.2897zm-7.0009 8.7512h-5.1478v-3.4318h5.1478z" fill="#fff"/>
</svg>
