<?xml version="1.0" encoding="UTF-8"?>
<svg width="36" height="36" version="1.1" viewBox="0 0 36 36" xml:space="preserve" xmlns="http://www.w3.org/2000/svg">
 <defs>
  <filter id="filter1" x="-.147" y="-.147" width="1.294" height="1.294" color-interpolation-filters="sRGB">
   <feGaussianBlur stdDeviation="1.5925"/>
  </filter>
  <linearGradient id="linearGradient1" x1="18" x2="18" y1="3" y2="29" gradientUnits="userSpaceOnUse">
   <stop stop-color="#3fa8f3" offset="0"/>
   <stop stop-color="#2089d4" offset="1"/>
  </linearGradient>
 </defs>
 <circle cx="18" cy="18" r="13" filter="url(#filter1)" opacity=".35"/>
 <circle cx="18" cy="16" r="13" fill="url(#linearGradient1)" stroke="#fff" stroke-width="2"/>
 <path d="m17.64 8c-0.98578 0-1.7849 0.75398-1.7849 1.6842 0 0.93023 0.79911 1.6842 1.7849 1.6842 0.98578 0 1.7849-0.75398 1.7849-1.6842 0-0.93023-0.79911-1.6842-1.7849-1.6842zm-5.1315 3.3684 0.44622 1.6843c0.2231 0.84209 0.75603 0.84209 1.4223 0.84209h1.4781c0.52989 0.84209 0.28082 2.2111 0.44622 3.498h-0.80878c-0.89245 0-2.3148 0.84209-1.4223 2.5263l1.3387 2.5264c0.89245 1.6842 2.231 0.42105 1.7849-0.42105l-1.3387-2.5264c-0.2231-0.42105 0.23588-0.42105 0.44622-0.42105h2.2025s1.0565 2.0832 2.3008 3.5998c0.45935 0.55975 0.96818 1.3233 1.6051 1.3233 0.44621 0 1.2109-0.65072 0.39705-1.5671-1.524-1.7162-2.4894-3.4855-2.4894-4.3277 0-0.97947-0.18236-3.0422-0.44621-4.2105h1.3387c0.4355 0.82363 1.1999 2.1053 1.1999 2.1053 0.49328 0.80628 1.3044 0.74536 1.3044 0 0-0.10215-0.01304-0.32209-0.12456-0.56998l-1.2642-2.7984c-0.08256-0.18265-0.22615-0.42105-0.89245-0.42105h-6.9164l-0.66933-2.1053c-0.26773-0.84209-1.5618-0.84209-1.5618 0 0 0.42105 0.1581 0.93227 0.2231 1.2631z" fill="#fff"/>
</svg>
