<?xml version="1.0" encoding="UTF-8"?>
<svg width="36" height="36" version="1.1" viewBox="0 0 36 36" xml:space="preserve" xmlns="http://www.w3.org/2000/svg">
 <defs>
  <filter id="filter1" x="-.147" y="-.147" width="1.294" height="1.294" color-interpolation-filters="sRGB">
   <feGaussianBlur stdDeviation="1.5925"/>
  </filter>
  <linearGradient id="linearGradient1" x1="18" x2="18" y1="3" y2="29" gradientUnits="userSpaceOnUse">
   <stop stop-color="#3fa8f3" offset="0"/>
   <stop stop-color="#2089d4" offset="1"/>
  </linearGradient>
 </defs>
 <circle cx="18" cy="18" r="13" filter="url(#filter1)" opacity=".35"/>
 <circle cx="18" cy="16" r="13" fill="url(#linearGradient1)" stroke="#fff" stroke-width="2"/>
 <path d="m17.213 8.519v4.7248h2.3624v1.9687c0-0.6536 0.88197-1.1812 1.9687-1.1812 1.0867 0 1.9687 0.52761 1.9687 1.1812h-3.9374v2.2758c0.5906 0.29924 1.26 0.48036 1.9687 0.48036 2.3939 0 4.3311-1.9372 4.3311-4.3311v-5.1186zm2.3624 4.0004c-0.43311 0-0.78747-0.35436-0.78747-0.78747 0-0.43311 0.35436-0.78747 0.78747-0.78747 0.43311 0 0.78747 0.35436 0.78747 0.78747 0 0.44099-0.35436 0.78747-0.78747 0.78747zm3.9374 0c-0.43311 0-0.78747-0.35436-0.78747-0.78747 0-0.43311 0.35436-0.78747 0.78747-0.78747 0.43311 0 0.78747 0.35436 0.78747 0.78747 0 0.44099-0.35436 0.78747-0.78747 0.78747zm-13.387 6.6305c0 2.3939 1.9372 4.3311 4.3311 4.3311s4.3311-1.9372 4.3311-4.3311v-5.1186h-8.6622zm4.3311 1.5749c-1.0867 0-1.9687-0.52761-1.9687-1.1812h3.9374c0 0.6536-0.88197 1.1812-1.9687 1.1812zm1.9687-4.3311c0.43311 0 0.78747 0.35436 0.78747 0.78747 0 0.43311-0.35436 0.78747-0.78747 0.78747-0.43311 0-0.78747-0.35436-0.78747-0.78747 0-0.43311 0.35436-0.78747 0.78747-0.78747zm-3.9374 0c0.43311 0 0.78747 0.35436 0.78747 0.78747 0 0.43311-0.35436 0.78747-0.78747 0.78747s-0.78747-0.35436-0.78747-0.78747c0-0.43311 0.35436-0.78747 0.78747-0.78747z" fill="#fff"/>
</svg>
