<?xml version="1.0" encoding="UTF-8"?>
<svg width="36" height="36" version="1.1" viewBox="0 0 36 36" xml:space="preserve" xmlns="http://www.w3.org/2000/svg">
 <defs>
  <filter id="filter1" x="-.147" y="-.147" width="1.294" height="1.294" color-interpolation-filters="sRGB">
   <feGaussianBlur stdDeviation="1.5925"/>
  </filter>
  <linearGradient id="linearGradient1" x1="18" x2="18" y1="3" y2="29" gradientUnits="userSpaceOnUse">
   <stop stop-color="#3fa8f3" offset="0"/>
   <stop stop-color="#2089d4" offset="1"/>
  </linearGradient>
 </defs>
 <circle cx="18" cy="18" r="13" filter="url(#filter1)" opacity=".35"/>
 <circle cx="18" cy="16" r="13" fill="url(#linearGradient1)" stroke="#fff" stroke-width="2"/>
 <path d="m14.42 16.358c1.1885 0 2.1478-0.95936 2.1478-2.1478 0-1.1885-0.95936-2.1478-2.1478-2.1478-1.1885 0-2.1478 0.95936-2.1478 2.1478 0 1.1885 0.95936 2.1478 2.1478 2.1478zm8.5913-4.2956h-4.2956c-0.78753 0-1.4318 0.64435-1.4318 1.4318v3.5797h-5.7275v-5.7275c0-0.39376-0.32217-0.71593-0.71593-0.71593-0.39376 0-0.71593 0.32217-0.71593 0.71593v9.3071c0 0.39376 0.32217 0.71593 0.71593 0.71593 0.39376 0 0.71593-0.32217 0.71593-0.71593v-1.4318h12.887v1.4318c0 0.39376 0.32217 0.71593 0.71593 0.71593 0.39376 0 0.71593-0.32217 0.71593-0.71593v-5.7275c0-1.5823-1.2815-2.8638-2.8638-2.8638z" fill="#fff"/>
</svg>
