<?xml version="1.0" encoding="UTF-8"?>
<svg width="38" height="36" version="1.1" viewBox="0 0 38 36" xml:space="preserve" xmlns="http://www.w3.org/2000/svg">
 <path d="m28.184 27.981h3.0171c2.5736 0 4.8382-1.1324 5.7397-5.8296 0.24107-1.256-0.35613-2.8114-0.96996-3.8879-1.9251-4.1295-1.7287-6.2256 0.96993-8.9869l-5.5484-5.5485c-1.4579 1.0378-4.1231 2.0967-6.1883 2.0967-2.0654 0-4.7464-1.0588-6.2043-2.0966-1.4578 1.0378-4.1389 2.0966-6.2043 2.0966s-4.7305-1.059-6.1883-2.0967l-5.5484 5.5485c2.6987 2.7613 2.8951 4.8573 0.96993 8.9869-0.61383 1.0766-1.211 2.6319-0.96996 3.8879 0.90157 4.6973 3.1661 5.8296 5.7397 5.8296h3.0171c4.6277 0 7.7718 2.6339 9.1843 4.2476 1.4123-1.6137 4.5564-4.2476 9.1843-4.2476z" fill="#fff" stroke="#000" stroke-linecap="round" stroke-linejoin="round" stroke-width="1"/>
</svg>
