<?xml version="1.0" encoding="UTF-8"?>
<svg version="1.1" viewBox="0 0 24 24" width="18" height="18" xmlns="http://www.w3.org/2000/svg">
 <path d="m7.9987 18h8.0023" stroke="#717065" opacity=".6" stroke-linecap="round" stroke-width="1.333"/>
 <path d="m9.332 20.666h5.3357" stroke="#717065" opacity=".6" stroke-linecap="round" stroke-width="1.333"/>
 <path d="m12 2.6666c-0.84966 0-1.5393 0.68968-1.5393 1.5393 0 0.84966 0.68968 1.5364 1.5393 1.5364s1.5393-0.68678 1.5393-1.5364c0-0.84966-0.68968-1.5393-1.5393-1.5393zm-1.5393 4.103c-0.54085 0-1.0243 0.49145-1.0243 1.0243 0 1.0256 1.794 4.121 1.794 5.1302v3.0758h1.5393v-3.0758c0-0.98918 1.794-4.1045 1.794-5.1302 0-0.56757-0.45886-1.0243-1.0243-1.0243z" fill="#717065" opacity=".6"/>
</svg>
