<?xml version="1.0" encoding="UTF-8"?>
<svg version="1.1" viewBox="0 0 24 24" width="18" height="18" xmlns="http://www.w3.org/2000/svg">
 <circle cx="12" cy="12" r="12" fill="#fff" opacity=".4"/>
 <circle cx="12" cy="12" r="11" fill="#1b3f00"/>
 <path d="m16.504 16.073 1.9126-3.3662c-4.688-0.12872-6.0974-6.323-9.1797-3.2406 3.6677-0.17543 3.5241 2.2564 7.5801 3.9985-1.1661 2.9342-2.487 3.5223-4.7057 3.6437-2.2187 0.12136-4.4738-3.9561-9.3339-4.087 2.2619-4.6903 2.605-4.6692 4.6991-4.7517l-1.8858 3.4118c4.1895-0.21506 5.613 6.0391 9.0007 3.2824-4.4267-0.013272-3.2528-3.0693-7.4631-3.8421 0.51523-1.7015 1.5562-3.2089 3.2142-3.9962 4.8413-1.3866 3.2714 3.7803 10.881 4.0513-1.0843 2.1686-2.3836 5.5866-4.7196 4.8963z" fill="#ccab35"/>
</svg>
