<svg version="1.1" viewBox="0 0 14 14" width="11" height="11" xmlns="http://www.w3.org/2000/svg">
 <title>transit_tram-m</title>
 <g id="Page-2:-Night" fill="none" fill-rule="evenodd" opacity=".6">
  <g id="transit_tram-m" fill="#fff" fill-rule="nonzero">
   <path transform="matrix(1.2 0 0 1.2 -2.52 -2.5995)" d="m11.2 10.305v-3.9387c0-1.302-1.218-1.5867-2.8047-1.6287l0.35467-0.70467h1.5167v-0.7h-4.6667v0.7h2.2167l-0.35467 0.70933c-1.4607 0.042-2.7953 0.33133-2.7953 1.624v3.9387c0 0.67667 0.55533 1.2413 1.2087 1.386l-0.742 0.742v0.23333h1.0407l0.93333-0.93333h1.7593l0.93333 0.93333h0.93333v-0.23333l-0.7-0.7h-0.037333c0.78867 0 1.204-0.63933 1.204-1.428zm-3.2667 0.728c-0.38733 0-0.7-0.31267-0.7-0.7 0-0.38733 0.31267-0.7 0.7-0.7 0.38733 0 0.7 0.31267 0.7 0.7 0 0.38733-0.31267 0.7-0.7 0.7zm2.3333-2.1h-4.6667v-2.3333h4.6667v2.3333z"/>
  </g>
 </g>
</svg>
