<?xml version="1.0" encoding="UTF-8"?>
<svg width="9" height="10" version="1.1" viewBox="0 0 9 10" xmlns="http://www.w3.org/2000/svg">
 <path d="m4.4997 2.7v-1.4" fill="#f00" stroke="#777777" stroke-linecap="round" stroke-linejoin="round" stroke-width=".7"/>
 <path d="m5.5496 2.7 0.7-1.2125" fill="#f00" stroke="#777777" stroke-linecap="round" stroke-linejoin="round" stroke-width=".7"/>
 <path d="m3.4497 2.7-0.7-1.2125" fill="#f00" stroke="#777777" stroke-linecap="round" stroke-linejoin="round" stroke-width=".7"/>
 <path d="m3.4595 3.4-0.8463 1.9291c0.062273 0.06973 0.11422 0.13841 0.16269 0.20098 0.088158 0.11379 0.16425 0.20601 0.22559 0.25566s0.091245 0.064258 0.16407 0.064258 0.10409-0.014606 0.16543-0.064258c0.061339-0.049652 0.13742-0.14187 0.22559-0.25566 0.088158-0.11379 0.18817-0.24947 0.33769-0.37051s0.36399-0.22012 0.60566-0.22012 0.45614 0.099078 0.60566 0.22012 0.2509 0.25672 0.33907 0.37051c0.088158 0.11379 0.16288 0.20601 0.22422 0.25566 0.061339 0.049652 0.092617 0.064258 0.16543 0.064258s0.10409-0.014606 0.16543-0.064258c0.061339-0.049652 0.13742-0.14187 0.22559-0.25566 0.048467-0.062558 0.10081-0.13126 0.16269-0.20098l-0.84763-1.9291zm3.2471 2.6537c-0.071841 0.090426-0.15649 0.18704-0.2666 0.27617-0.14953 0.12104-0.36399 0.22012-0.60566 0.22012s-0.45614-0.099078-0.60566-0.22012-0.24954-0.25672-0.33769-0.37051-0.16425-0.20601-0.22559-0.25566c-0.061339-0.049652-0.092617-0.064258-0.16543-0.064258s-0.10409 0.014605-0.16543 0.064258c-0.061339 0.049652-0.13606 0.14187-0.22422 0.25566s-0.18954 0.24947-0.33907 0.37051-0.36399 0.22012-0.60566 0.22012-0.45614-0.099078-0.60566-0.22012c-0.11035-0.08932-0.19368-0.18695-0.26524-0.27754l-1.2947 2.9476h7z" fill="#777777"/>
</svg>
