<?xml version="1.0" encoding="UTF-8"?>
<svg width="14" height="14" version="1.1" viewBox="0 0 14 14" xmlns="http://www.w3.org/2000/svg">
 <path d="m7 3v-2" fill="#777777" stroke="#777777" stroke-linecap="round" stroke-linejoin="round"/>
 <path d="m8.5 3 1-1.7321" fill="#777777" stroke="#777777" stroke-linecap="round" stroke-linejoin="round"/>
 <path d="m5.5 3-1-1.7321" fill="#777777" stroke="#777777" stroke-linecap="round" stroke-linejoin="round"/>
 <path d="m5.5137 4-1.209 2.7559c0.088962 0.099614 0.16317 0.19773 0.23242 0.28711 0.12594 0.16256 0.23464 0.2943 0.32227 0.36523s0.13035 0.091797 0.23438 0.091797 0.1487-0.020865 0.23633-0.091797c0.087627-0.070932 0.19632-0.20267 0.32227-0.36523 0.12594-0.16256 0.26882-0.35639 0.48242-0.5293s0.51999-0.31445 0.86523-0.31445 0.65163 0.14154 0.86523 0.31445 0.35843 0.36674 0.48438 0.5293c0.12594 0.16256 0.23269 0.2943 0.32031 0.36523 0.087627 0.070932 0.13231 0.091797 0.23633 0.091797s0.1487-0.020865 0.23633-0.091797c0.087627-0.070932 0.19632-0.20267 0.32227-0.36523 0.069238-0.089368 0.14401-0.18751 0.23242-0.28711l-1.2109-2.7559zm4.6387 3.791c-0.10263 0.12918-0.22356 0.2672-0.38086 0.39453-0.21361 0.17291-0.51999 0.31445-0.86523 0.31445s-0.65163-0.14154-0.86523-0.31445-0.35648-0.36674-0.48242-0.5293c-0.12594-0.16256-0.23464-0.2943-0.32227-0.36523-0.087627-0.070932-0.13231-0.091797-0.23633-0.091797s-0.1487 0.020865-0.23633 0.091797c-0.087627 0.070932-0.19437 0.20267-0.32031 0.36523-0.12594 0.16256-0.27077 0.35639-0.48438 0.5293s-0.51999 0.31445-0.86523 0.31445-0.65163-0.14154-0.86523-0.31445c-0.15764-0.1276-0.27669-0.26707-0.37891-0.39648l-1.8496 4.2109h10z" fill="#777777"/>
</svg>
