<svg xmlns="http://www.w3.org/2000/svg" width="92" height="24" viewBox="0 0 92 24" fill="none"><path fill-rule="evenodd" clip-rule="evenodd" d="M91.6364 12C91.6364 18.6274 86.267 24 79.6437 24C73.0203 24 67.651 18.6274 67.651 12C67.651 5.37258 73.0203 0 79.6437 0C86.267 0 91.6364 5.37258 91.6364 12ZM76.1504 14.4215C74.9204 13.1908 74.3054 12.5754 74.3054 11.8107C74.3054 11.046 74.9204 10.4306 76.1504 9.19985L77.1526 8.1968C78.3826 6.96603 78.9979 6.35065 79.7621 6.35065C80.5262 6.35065 81.1412 6.96603 82.3712 8.1968L83.3737 9.19985C84.6037 10.4306 85.2187 11.046 85.2187 11.8107C85.2187 12.5754 84.6037 13.1908 83.3737 14.4215L82.3712 15.4246C81.1412 16.6554 80.5262 17.2707 79.7621 17.2707C78.9979 17.2707 78.3826 16.6554 77.1526 15.4246L76.1504 14.4215ZM16.9128 7.07692C17.2524 7.07692 17.5278 6.80142 17.5278 6.46154V1.84615C17.5278 1.50629 17.2524 1.23077 16.9128 1.23077H0.615009C0.275349 1.23077 0 1.50629 0 1.84615V22.1538C0 22.4937 0.275349 22.7692 0.615009 22.7692H6.15009C6.48976 22.7692 6.7651 22.4937 6.7651 22.1538V16.4923C6.7651 16.1524 7.04044 15.8769 7.38011 15.8769H14.8217C15.1614 15.8769 15.4367 15.6014 15.4367 15.2615V10.6462C15.4367 10.3063 15.1614 10.0308 14.8217 10.0308H7.38011C7.04044 10.0308 6.7651 9.75526 6.7651 9.41539V7.69231C6.7651 7.35243 7.04044 7.07692 7.38011 7.07692H16.9128ZM31.2092 23.1385H31.3015C37.8821 23.1385 41.9104 19.6308 41.9104 12.9538V1.84615C41.9104 1.50629 41.6352 1.23077 41.2954 1.23077H35.7603C35.4208 1.23077 35.1453 1.50629 35.1453 1.84615V12.3385C35.1453 14.6154 34.1613 16.6154 31.3015 16.6154H31.2092C28.3803 16.6154 27.3655 14.6154 27.3655 12.3385V1.84615C27.3655 1.50629 27.0902 1.23077 26.7505 1.23077H21.2154C20.8757 1.23077 20.6004 1.50629 20.6004 1.84615V12.9538C20.6004 19.6308 24.6287 23.1385 31.2092 23.1385ZM44.9845 1.84615C44.9845 1.50629 45.2597 1.23077 45.5995 1.23077H65.4643C65.8041 1.23077 66.0793 1.50629 66.0793 1.84615V6.55385C66.0793 6.89372 65.8041 7.16923 65.4643 7.16923H59.5295C59.1897 7.16923 58.9145 7.44474 58.9145 7.78462V22.1538C58.9145 22.4937 58.6393 22.7692 58.2995 22.7692H52.7644C52.4246 22.7692 52.1494 22.4937 52.1494 22.1538V7.78462C52.1494 7.44474 51.8742 7.16923 51.5344 7.16923H45.5995C45.2597 7.16923 44.9845 6.89372 44.9845 6.55385V1.84615Z" fill="#404040"></path></svg>