<?xml version="1.0" encoding="UTF-8" standalone="no"?>
<svg xmlns:dc="http://purl.org/dc/elements/1.1/" xmlns:cc="http://creativecommons.org/ns#" xmlns:rdf="http://www.w3.org/1999/02/22-rdf-syntax-ns#" xmlns:svg="http://www.w3.org/2000/svg" xmlns="http://www.w3.org/2000/svg" id="svg51" version="1.1" viewBox="0 0 281 281" height="281px" width="281px">
  <metadata id="metadata55">
    <rdf:RDF>
      <cc:Work rdf:about="">
        <dc:format>image/svg+xml</dc:format>
        <dc:type rdf:resource="http://purl.org/dc/dcmitype/StillImage"/>
        <dc:title>logo_lockup_summer_of_code_horizontal_Roboto</dc:title>
      </cc:Work>
    </rdf:RDF>
  </metadata>
  <!-- Generator: Sketch 3.7.2 (28276) - http://www.bohemiancoding.com/sketch -->
  <title id="title2">logo_lockup_summer_of_code_horizontal_Roboto</title>
  <desc id="desc4">Created with Sketch.</desc>
  <defs id="defs6"/>
  <g id="Group">
    <path style="fill:#fbbc05" d="m 114.7,150.8 25.7,25.7 25.7,-25.7 h 36.4 V 114.4 L 228.2,88.7 202.5,63 V 26.6 H 166.1 L 140.4,0.9 114.7,26.6 H 78.3 V 63 l -25.7,25.7 25.7,25.7 v 36.4 z" id="Shape"/>
    <path style="fill:#ffffff" id="path11" d="m 143.2,61.2 -0.1,0.4 -11.9,52.5 -0.4,2 h 7.4 l 0.1,-0.4 11.9,-52.5 0.4,-2 z m -18.9,7.2 -1,0.7 -21.5,16.7 -1.4,1.1 v 3.4 l 1.4,1.1 21.5,16.7 1,0.7 v -9 L 109.8,88.7 124.3,77.4 Z m 32.2,0 v 9 L 171,88.7 156.5,100 v 9 l 1,-0.7 21.5,-16.7 1.4,-1.1 V 87.1 L 179,86 157.4,69.2 Z"/>
    <circle id="Oval" cx="140.4" cy="88.7" r="58.7" style="fill:none;stroke:#ffffff;stroke-width:8"/>
  </g>
  <g style="fill:#757575;font-family:Roboto" id="Roboto">
    <path id="path16" d="m 9.77,268.3 c -3.03,-0.87 -5.25,-1.95 -6.63,-3.21 -1.38,-1.26 -2.07,-2.85 -2.07,-4.71 0,-2.13 0.84,-3.87 2.55,-5.25 1.71,-1.38 3.9,-2.07 6.6,-2.07 1.86,0 3.48,0.36 4.95,1.08 1.44,0.72 2.58,1.71 3.36,2.94 0.78,1.23 1.2,2.64 1.2,4.11 H 16.1 c 0,-1.62 -0.51,-2.91 -1.56,-3.84 -1.02,-0.93 -2.49,-1.41 -4.38,-1.41 -1.74,0 -3.12,0.39 -4.08,1.17 -0.96,0.78 -1.47,1.83 -1.47,3.21 0,1.11 0.45,2.04 1.38,2.79 0.93,0.75 2.52,1.44 4.74,2.07 2.22,0.63 3.99,1.32 5.25,2.07 1.26,0.75 2.19,1.65 2.82,2.64 0.6,1.02 0.9,2.19 0.9,3.57 0,2.19 -0.84,3.93 -2.55,5.22 -1.71,1.29 -3.96,1.98 -6.81,1.98 -1.86,0 -3.57,-0.36 -5.16,-1.05 C 3.59,278.92 2.36,277.93 1.49,276.7 0.62,275.47 0.2,274.06 0.2,272.5 h 3.57 c 0,1.62 0.6,2.91 1.8,3.84 1.2,0.93 2.79,1.41 4.8,1.41 1.86,0 3.3,-0.39 4.29,-1.14 0.99,-0.75 1.5,-1.8 1.5,-3.12 0,-1.32 -0.45,-2.34 -1.38,-3.06 -0.93,-0.72 -2.61,-1.41 -5.01,-2.13 z"/>
    <path id="path18" d="m 36.05,278.32 c -1.32,1.56 -3.27,2.34 -5.85,2.34 -2.13,0 -3.75,-0.63 -4.86,-1.86 -1.11,-1.23 -1.68,-3.06 -1.68,-5.49 v -12.99 h 3.42 v 12.9 c 0,3.03 1.23,4.53 3.69,4.53 2.61,0 4.35,-0.96 5.19,-2.91 v -14.52 h 3.42 v 19.98 h -3.24 z"/>
    <path id="path20" d="m 47.78,260.32 0.09,2.22 c 1.47,-1.71 3.45,-2.58 5.91,-2.58 2.79,0 4.68,1.08 5.7,3.21 0.66,-0.96 1.53,-1.74 2.58,-2.34 1.05,-0.6 2.31,-0.9 3.78,-0.9 4.38,0 6.6,2.31 6.69,6.96 v 13.41 h -3.42 v -13.2 c 0,-1.44 -0.33,-2.49 -0.99,-3.21 -0.66,-0.72 -1.74,-1.05 -3.3,-1.05 -1.26,0 -2.31,0.39 -3.15,1.14 -0.84,0.75 -1.32,1.77 -1.47,3.06 v 13.26 h -3.42 v -13.08 c 0,-2.91 -1.41,-4.35 -4.26,-4.35 -2.25,0 -3.78,0.96 -4.59,2.85 v 14.58 h -3.42 v -19.98 z"/>
    <path id="path22" d="m 80.9,260.32 0.09,2.22 c 1.47,-1.71 3.45,-2.58 5.91,-2.58 2.79,0 4.68,1.08 5.7,3.21 0.66,-0.96 1.53,-1.74 2.58,-2.34 1.05,-0.6 2.31,-0.9 3.78,-0.9 4.38,0 6.6,2.31 6.69,6.96 v 13.41 h -3.42 v -13.2 c 0,-1.44 -0.33,-2.49 -0.99,-3.21 -0.66,-0.72 -1.74,-1.05 -3.3,-1.05 -1.26,0 -2.31,0.39 -3.15,1.14 -0.84,0.75 -1.32,1.77 -1.47,3.06 V 280.3 H 89.9 v -13.08 c 0,-2.91 -1.41,-4.35 -4.26,-4.35 -2.25,0 -3.78,0.96 -4.59,2.85 v 14.58 h -3.42 v -19.98 z"/>
    <path id="path24" d="m 119.12,280.66 c -2.7,0 -4.92,-0.9 -6.6,-2.67 -1.71,-1.77 -2.55,-4.17 -2.55,-7.14 v -0.63 c 0,-1.98 0.39,-3.75 1.14,-5.31 0.75,-1.56 1.8,-2.76 3.18,-3.66 1.35,-0.87 2.82,-1.32 4.41,-1.32 2.61,0 4.62,0.87 6.06,2.58 1.44,1.71 2.16,4.17 2.16,7.35 v 1.41 h -13.53 c 0.06,1.98 0.63,3.57 1.74,4.77 1.11,1.2 2.49,1.83 4.2,1.83 1.2,0 2.22,-0.24 3.06,-0.75 0.84,-0.48 1.56,-1.14 2.19,-1.95 l 2.1,1.62 c -1.71,2.58 -4.23,3.87 -7.56,3.87 z m -0.42,-17.91 c -1.38,0 -2.52,0.51 -3.48,1.5 -0.93,0.99 -1.5,2.4 -1.74,4.23 h 9.99 v -0.27 c -0.09,-1.74 -0.57,-3.09 -1.41,-4.02 -0.81,-0.96 -1.95,-1.44 -3.36,-1.44 z"/>
    <path id="path26" d="m 140.51,263.38 c -0.51,-0.09 -1.08,-0.12 -1.68,-0.12 -2.25,0 -3.75,0.96 -4.56,2.85 v 14.19 h -3.42 v -19.98 h 3.33 l 0.06,2.31 c 1.11,-1.77 2.7,-2.67 4.77,-2.67 0.66,0 1.17,0.09 1.5,0.27 z"/>
    <path id="path28" d="m 152.09,270.13 c 0,-1.95 0.39,-3.72 1.14,-5.28 0.78,-1.56 1.83,-2.76 3.21,-3.63 1.38,-0.87 2.94,-1.26 4.71,-1.26 2.73,0 4.92,0.93 6.6,2.82 1.68,1.89 2.52,4.38 2.52,7.5 v 0.24 c 0,1.95 -0.36,3.69 -1.11,5.22 -0.75,1.53 -1.8,2.76 -3.18,3.6 -1.38,0.87 -2.97,1.29 -4.77,1.29 -2.7,0 -4.89,-0.93 -6.57,-2.82 -1.68,-1.89 -2.52,-4.38 -2.52,-7.47 v -0.21 z m 3.45,0.39 c 0,2.22 0.51,3.99 1.53,5.34 1.02,1.35 2.4,2.01 4.14,2.01 1.74,0 3.12,-0.69 4.14,-2.04 1.02,-1.35 1.53,-3.27 1.53,-5.7 0,-2.19 -0.51,-3.96 -1.56,-5.31 -1.05,-1.35 -2.43,-2.04 -4.14,-2.04 -1.68,0 -3.06,0.66 -4.08,2.01 -1.05,1.32 -1.56,3.24 -1.56,5.73 z"/>
    <path id="path30" d="m 176.24,280.3 v -17.34 h -3.15 v -2.64 h 3.15 v -2.04 c 0,-2.13 0.57,-3.81 1.71,-4.95 1.14,-1.17 2.76,-1.74 4.86,-1.74 0.78,0 1.56,0.09 2.34,0.3 l -0.18,2.76 c -0.57,-0.12 -1.2,-0.18 -1.86,-0.18 -1.11,0 -1.95,0.33 -2.58,0.96 -0.63,0.63 -0.9,1.59 -0.9,2.79 v 2.1 h 4.26 v 2.64 h -4.26 v 17.34 z"/>
    <path id="path32" d="m 217.34,271.75 c -0.33,2.85 -1.38,5.04 -3.15,6.57 -1.77,1.53 -4.11,2.31 -7.05,2.31 -3.18,0 -5.73,-1.14 -7.62,-3.42 -1.92,-2.28 -2.88,-5.31 -2.88,-9.15 v -2.58 c 0,-2.49 0.45,-4.68 1.35,-6.6 0.9,-1.89 2.16,-3.36 3.78,-4.38 1.62,-1.02 3.54,-1.53 5.67,-1.53 2.85,0 5.13,0.81 6.87,2.4 1.71,1.59 2.73,3.81 3,6.63 h -3.57 c -0.3,-2.16 -0.99,-3.69 -2.01,-4.68 -1.02,-0.99 -2.46,-1.44 -4.32,-1.44 -2.25,0 -4.05,0.84 -5.31,2.52 -1.29,1.68 -1.92,4.05 -1.92,7.14 v 2.61 c 0,2.91 0.6,5.25 1.83,6.96 1.23,1.71 2.91,2.58 5.1,2.58 1.98,0 3.48,-0.45 4.53,-1.35 1.05,-0.9 1.74,-2.46 2.1,-4.65 h 3.6 z"/>
    <path id="path34" d="m 220.73,270.13 c 0,-1.95 0.39,-3.72 1.14,-5.28 0.78,-1.56 1.83,-2.76 3.21,-3.63 1.38,-0.87 2.94,-1.26 4.71,-1.26 2.73,0 4.92,0.93 6.6,2.82 1.68,1.89 2.52,4.38 2.52,7.5 v 0.24 c 0,1.95 -0.36,3.69 -1.11,5.22 -0.75,1.53 -1.8,2.76 -3.18,3.6 -1.38,0.87 -2.97,1.29 -4.77,1.29 -2.7,0 -4.89,-0.93 -6.57,-2.82 -1.68,-1.89 -2.52,-4.38 -2.52,-7.47 v -0.21 z m 3.45,0.39 c 0,2.22 0.51,3.99 1.53,5.34 1.02,1.35 2.4,2.01 4.14,2.01 1.74,0 3.12,-0.69 4.14,-2.04 1.02,-1.35 1.53,-3.27 1.53,-5.7 0,-2.19 -0.51,-3.96 -1.56,-5.31 -1.05,-1.35 -2.43,-2.04 -4.14,-2.04 -1.68,0 -3.06,0.66 -4.08,2.01 -1.05,1.32 -1.56,3.24 -1.56,5.73 z"/>
    <path id="path36" d="m 242.36,270.13 c 0,-3.06 0.72,-5.52 2.19,-7.38 1.47,-1.86 3.36,-2.79 5.7,-2.79 2.34,0 4.2,0.81 5.55,2.4 v -10.41 h 3.42 v 28.35 h -3.15 l -0.18,-2.13 c -1.38,1.68 -3.27,2.52 -5.7,2.52 -2.31,0 -4.2,-0.96 -5.67,-2.85 -1.47,-1.89 -2.19,-4.38 -2.19,-7.41 v -0.3 z m 3.42,0.39 c 0,2.25 0.48,4.05 1.41,5.31 0.93,1.29 2.22,1.92 3.87,1.92 2.16,0 3.75,-0.96 4.74,-2.91 v -9.18 c -1.02,-1.89 -2.58,-2.82 -4.71,-2.82 -1.68,0 -2.97,0.66 -3.9,1.95 -0.93,1.29 -1.41,3.21 -1.41,5.73 z"/>
    <path id="path38" d="m 272.81,280.66 c -2.7,0 -4.92,-0.9 -6.6,-2.67 -1.71,-1.77 -2.55,-4.17 -2.55,-7.14 v -0.63 c 0,-1.98 0.39,-3.75 1.14,-5.31 0.75,-1.56 1.8,-2.76 3.18,-3.66 1.35,-0.87 2.82,-1.32 4.41,-1.32 2.61,0 4.62,0.87 6.06,2.58 1.44,1.71 2.16,4.17 2.16,7.35 v 1.41 h -13.53 c 0.06,1.98 0.63,3.57 1.74,4.77 1.11,1.2 2.49,1.83 4.2,1.83 1.2,0 2.22,-0.24 3.06,-0.75 0.84,-0.48 1.56,-1.14 2.19,-1.95 l 2.1,1.62 c -1.71,2.58 -4.23,3.87 -7.56,3.87 z m -0.42,-17.91 c -1.38,0 -2.52,0.51 -3.48,1.5 -0.93,0.99 -1.5,2.4 -1.74,4.23 h 9.99 v -0.27 c -0.09,-1.74 -0.57,-3.09 -1.41,-4.02 -0.81,-0.96 -1.95,-1.44 -3.36,-1.44 z"/>
  </g>
  <g style="fill:#757575" id="Google">
    <path id="path25" d="m 131.2025,217.9746 c 0,6.0019 -4.6953,10.4246 -10.4575,10.4246 -5.7622,0 -10.4575,-4.4227 -10.4575,-10.4246 0,-6.0442 4.6953,-10.4246 10.4575,-10.4246 5.7622,0 10.4575,4.3804 10.4575,10.4246 z m -4.5778,0 c 0,-3.7506 -2.7213,-6.3168 -5.8797,-6.3168 -3.1584,0 -5.8797,2.5662 -5.8797,6.3168 0,3.713 2.7213,6.3168 5.8797,6.3168 3.1584,0 5.8797,-2.6085 5.8797,-6.3168 z"/>
    <path id="path27" d="m 153.7625,217.9746 c 0,6.0019 -4.6953,10.4246 -10.4575,10.4246 -5.7622,0 -10.4575,-4.4227 -10.4575,-10.4246 0,-6.0395 4.6953,-10.4246 10.4575,-10.4246 5.7622,0 10.4575,4.3804 10.4575,10.4246 z m -4.5778,0 c 0,-3.7506 -2.7213,-6.3168 -5.8797,-6.3168 -3.1584,0 -5.8797,2.5662 -5.8797,6.3168 0,3.713 2.7213,6.3168 5.8797,6.3168 3.1584,0 5.8797,-2.6085 5.8797,-6.3168 z"/>
    <path id="path29" d="m 175.3825,208.1798 v 18.7154 c 0,7.6986 -4.5402,10.8429 -9.9076,10.8429 -5.0525,0 -8.0934,-3.3793 -9.2402,-6.1429 l 3.9856,-1.6591 c 0.7097,1.6967 2.4487,3.6989 5.2499,3.6989 3.4357,0 5.5648,-2.1197 5.5648,-6.11 v -1.4993 h -0.1598 c -1.0246,1.2643 -2.9986,2.3688 -5.4896,2.3688 -5.2123,0 -9.9875,-4.5402 -9.9875,-10.3823 0,-5.8844 4.7752,-10.4622 9.9875,-10.4622 2.4863,0 4.4603,1.1045 5.4896,2.3312 h 0.1598 v -1.6967 h 4.3475 z m -4.0232,9.8324 c 0,-3.6707 -2.4487,-6.3544 -5.5648,-6.3544 -3.1584,0 -5.8045,2.6837 -5.8045,6.3544 0,3.6331 2.6461,6.2792 5.8045,6.2792 3.1161,0 5.5648,-2.6461 5.5648,-6.2792 z"/>
    <path id="path31" d="m 182.55,197.21 v 30.55 h -4.465 v -30.55 z"/>
    <path id="path33" d="m 199.9494,221.4056 3.5532,2.3688 c -1.1468,1.6967 -3.9104,4.6201 -8.6856,4.6201 -5.922,0 -10.3447,-4.5778 -10.3447,-10.4246 0,-6.1993 4.4603,-10.4246 9.8324,-10.4246 5.4097,0 8.0558,4.3052 8.9206,6.6317 l 0.4747,1.1844 -13.9355,5.7716 c 1.0669,2.0915 2.726,3.1584 5.0525,3.1584 2.3312,0 3.948,-1.1468 5.1324,-2.8858 z m -10.9369,-3.7506 9.3154,-3.8681 c -0.5123,-1.3019 -2.0539,-2.209 -3.8681,-2.209 -2.3265,0 -5.5648,2.0539 -5.4473,6.0771 z"/>
    <path id="path35" d="M 93.3863,215.2627 V 210.84 H 108.29 c 0.1457,0.7708 0.2209,1.6826 0.2209,2.6696 0,3.3182 -0.9071,7.4213 -3.8305,10.3447 -2.8435,2.961 -6.4766,4.5402 -11.2894,4.5402 -8.9206,0 -16.4218,-7.2662 -16.4218,-16.1868 0,-8.9206 7.5012,-16.1868 16.4218,-16.1868 4.935,0 8.4506,1.9364 11.092,4.4603 l -3.1208,3.1208 c -1.8941,-1.7766 -4.4603,-3.1584 -7.9759,-3.1584 -6.5142,0 -11.609,5.2499 -11.609,11.7641 0,6.5142 5.0948,11.7641 11.609,11.7641 4.2253,0 6.6317,-1.6967 8.1733,-3.2383 1.2502,-1.2502 2.0727,-3.0362 2.397,-5.4755 z"/>
  </g>
</svg>