<?xml version="1.0" encoding="UTF-8" standalone="no"?>
<!-- Created with Inkscape (http://www.inkscape.org/) -->

<svg
   xmlns:dc="http://purl.org/dc/elements/1.1/"
   xmlns:cc="http://creativecommons.org/ns#"
   xmlns:rdf="http://www.w3.org/1999/02/22-rdf-syntax-ns#"
   xmlns:svg="http://www.w3.org/2000/svg"
   xmlns="http://www.w3.org/2000/svg"
   xmlns:sodipodi="http://sodipodi.sourceforge.net/DTD/sodipodi-0.dtd"
   xmlns:inkscape="http://www.inkscape.org/namespaces/inkscape"
   version="1.0"
   width="24"
   height="24"
   viewBox="0 0 566.52362 566.52362"
   id="symbol-kindergarten"
   inkscape:version="0.48.2 r9819"
   sodipodi:docname="kindergarten.svg">
  <title
     id="title3798">Kindergarden Map Icon</title>
  <metadata
     id="metadata14">
    <rdf:RDF>
      <cc:Work
         rdf:about="">
        <dc:format>image/svg+xml</dc:format>
        <dc:type
           rdf:resource="http://purl.org/dc/dcmitype/StillImage" />
        <dc:title>Kindergarden Map Icon</dc:title>
        <dc:creator>
          <cc:Agent>
            <dc:title>Yury Melnichek</dc:title>
          </cc:Agent>
        </dc:creator>
        <dc:source>mapsforhumans.com</dc:source>
      </cc:Work>
    </rdf:RDF>
  </metadata>
  <sodipodi:namedview
     pagecolor="#ffffff"
     bordercolor="#666666"
     borderopacity="1"
     objecttolerance="10"
     gridtolerance="10"
     guidetolerance="10"
     inkscape:pageopacity="0"
     inkscape:pageshadow="2"
     inkscape:window-width="1105"
     inkscape:window-height="761"
     id="namedview12"
     showgrid="true"
     inkscape:zoom="18.694831"
     inkscape:cx="12.886667"
     inkscape:cy="11.002651"
     inkscape:window-x="0"
     inkscape:window-y="0"
     inkscape:window-maximized="0"
     inkscape:current-layer="symbol-kindergarten">
    <inkscape:grid
       type="xygrid"
       id="grid2991"
       empspacing="2"
       visible="true"
       enabled="true"
       snapvisiblegridlinesonly="true" />
  </sodipodi:namedview>
  <defs
     id="defs24" />
  <path
     style="fill:#505050;fill-opacity:1;stroke:none"
     d="m 480.66539,91.999044 c -27.65516,-27.655146 -94.91194,-5.23621 -150.22227,50.074106 -16.69136,16.69136 -27.27648,59.18106 -33.38272,66.76545 16.69137,-83.45682 -75.26202,-100.77184 -95.37529,-80.65856 -22.63114,22.63113 -48.01983,49.30339 39.35532,136.67854 l -33.66554,29.02457 c -36.09118,-11.25153 -76.57868,-4.0416 -106.41745,23.37981 -44.562984,40.95281 -47.489624,110.27705 -6.536837,154.84006 40.952807,44.56299 110.277067,47.48964 154.840077,6.53683 29.83873,-27.4214 40.43538,-67.15716 32.26581,-104.06826 l 26.27939,-42.94758 c 78.53025,78.53026 121.61853,69.55761 144.24967,46.92646 20.11325,-20.11325 -4.77289,-119.6378 -88.2297,-102.94643 7.58436,-6.10621 59.47794,-26.09521 66.76545,-33.3827 55.31031,-55.31032 77.72924,-122.56713 50.07409,-150.222296 z m -33.38273,33.382736 c 9.21839,9.21839 -2.45506,35.8378 -39.3286,72.71135 -36.87354,36.87353 -57.54707,42.6011 -66.76546,33.38271 -9.21839,-9.21839 -3.49081,-29.89191 33.38273,-66.76545 36.87353,-36.87353 63.49295,-48.54699 72.71133,-39.32861 z m -195.52344,19.48961 c 9.21838,9.21838 9.21838,24.16434 -1e-5,33.38272 -9.2184,9.21839 -24.16436,9.21839 -33.38273,0 -9.21839,-9.21839 -9.21839,-24.16432 0,-33.38272 9.21839,-9.2184 24.16434,-9.2184 33.38274,0 z m 183.60497,183.60498 c 9.21839,9.2184 9.21839,24.16436 0,33.38275 -9.21839,9.21839 -24.16434,9.21839 -33.38272,0 -9.21838,-9.2184 -9.21839,-24.16435 -10e-6,-33.38273 9.21839,-9.21839 24.16435,-9.21838 33.38273,-2e-5 z m -187.85627,-36.70257 16.16976,17.21298 -28.05229,33.35092 c -28.60884,9.35744 -64.16988,-15.44512 -97.59214,15.26949 -33.42224,30.71461 -20.66649,98.97651 -23.44054,95.95792 -30.714593,-33.42224 -28.519607,-85.41545 4.90265,-116.13005 21.51853,-19.77524 53.08615,-27.78963 80.28146,-21.45357 14.76781,2.74704 30.98557,-5.03156 41.47185,-17.94844 z"
     id="path3005"
     inkscape:connector-curvature="0"
     sodipodi:nodetypes="sscsccsssccscssssssssssssssssscccsssccc"
     inkscape:transform-center-y="-0.094689217"
     inkscape:transform-center-x="0.21766293" />
</svg>
