<?xml version="1.0" encoding="UTF-8" standalone="no"?>
<svg
   xmlns:dc="http://purl.org/dc/elements/1.1/"
   xmlns:cc="http://creativecommons.org/ns#"
   xmlns:rdf="http://www.w3.org/1999/02/22-rdf-syntax-ns#"
   xmlns:svg="http://www.w3.org/2000/svg"
   xmlns="http://www.w3.org/2000/svg"
   xmlns:sodipodi="http://sodipodi.sourceforge.net/DTD/sodipodi-0.dtd"
   xmlns:inkscape="http://www.inkscape.org/namespaces/inkscape"
   version="1.1"
   width="32.620000000000005"
   id="symbol-railway-crossing"
   viewBox="0 0 600 600"
   height="32.620000000000005"
   inkscape:version="0.91 r13725"
   sodipodi:docname="railway-crossing.svg">
  <metadata
     id="metadata13">
    <rdf:RDF>
      <cc:Work
         rdf:about="">
        <dc:format>image/svg+xml</dc:format>
        <dc:type
           rdf:resource="http://purl.org/dc/dcmitype/StillImage" />
      </cc:Work>
    </rdf:RDF>
  </metadata>
  <defs
     id="defs11" />
  <sodipodi:namedview
     pagecolor="#ffffff"
     bordercolor="#666666"
     borderopacity="1"
     objecttolerance="10"
     gridtolerance="10"
     guidetolerance="10"
     inkscape:pageopacity="0"
     inkscape:pageshadow="2"
     inkscape:window-width="664"
     inkscape:window-height="480"
     id="namedview9"
     showgrid="false"
     inkscape:zoom="7.2348255"
     inkscape:cx="16.309999"
     inkscape:cy="16.309999"
     inkscape:window-x="0"
     inkscape:window-y="0"
     inkscape:window-maximized="0"
     inkscape:current-layer="g3" />
  <g
     transform="translate(50,150)"
     id="g3">
    <path
       fill="red"
       d="M1.5,4.5l66,1.5l190,91.4L456,0l63,4.5l-15,48    l-184.5,87l175.5,81l15,51l-58.5,6l-193.5-99c0,0-189,96-193.5,99S0,279,0,279l6-51l172.5-85.5L12,63L1.5,4.5z"
       id="path5"
       style="fill:#b00000;fill-opacity:1" />
    <path
       fill="#FFFFFF"
       d="M49.5,21L33,49.5L219,141L36,237l16.5,25.5    L258,156l196.5,105l21-33l-189-91.5l189-87l-21-30l-196.7,96.7L49.5,21z"
       id="path7" />
  </g>
</svg>
