<?xml version="1.0" encoding="UTF-8" standalone="no"?>
<svg
   xmlns:dc="http://purl.org/dc/elements/1.1/"
   xmlns:cc="http://creativecommons.org/ns#"
   xmlns:rdf="http://www.w3.org/1999/02/22-rdf-syntax-ns#"
   xmlns:svg="http://www.w3.org/2000/svg"
   xmlns="http://www.w3.org/2000/svg"
   xmlns:sodipodi="http://sodipodi.sourceforge.net/DTD/sodipodi-0.dtd"
   xmlns:inkscape="http://www.inkscape.org/namespaces/inkscape"
   version="1.1"
   width="18.64"
   id="symbol-traffic_signal"
   viewBox="0 0 550 550"
   height="18.64"
   inkscape:version="0.91 r13725"
   sodipodi:docname="traffic_signal.svg">
  <metadata
     id="metadata21">
    <rdf:RDF>
      <cc:Work
         rdf:about="">
        <dc:format>image/svg+xml</dc:format>
        <dc:type
           rdf:resource="http://purl.org/dc/dcmitype/StillImage" />
      </cc:Work>
    </rdf:RDF>
  </metadata>
  <defs
     id="defs19" />
  <sodipodi:namedview
     pagecolor="#ffffff"
     bordercolor="#666666"
     borderopacity="1"
     objecttolerance="10"
     gridtolerance="10"
     guidetolerance="10"
     inkscape:pageopacity="0"
     inkscape:pageshadow="2"
     inkscape:window-width="664"
     inkscape:window-height="480"
     id="namedview17"
     showgrid="false"
     inkscape:zoom="12.660945"
     inkscape:cx="9.3199997"
     inkscape:cy="9.3199997"
     inkscape:window-x="0"
     inkscape:window-y="0"
     inkscape:window-maximized="0"
     inkscape:current-layer="g3" />
  <g
     transform="translate(167,0)"
     id="g3">
    <path
       d="M212.1,105c0,58-47.5,105-106,105c-58.6,0-106-47-106-105 C0,47,47.5,0,106,0C164.6,0,212.1,47,212.1,105z"
       id="path5"
       style="fill:#909090;fill-opacity:1" />
    <path
       d="M212.1,452.3c0,58-47.5,105-106,105c-58.6,0-106-47-106-105 c0-58,47.5-105,106-105C164.6,347.3,212.1,394.3,212.1,452.3z"
       id="path7"
       style="fill:#909090;fill-opacity:1" />
    <path
       d="M211.3,458.9H0V106.7h211.3V458.9z"
       id="path9"
       style="fill:#909090;fill-opacity:1" />
    <path
       fill="red"
       d="M190,103c0,46.4-37.6,84-84,84 c-46.4,0-84-37.6-84-84s37.6-84,84-84C152.4,19,190,56.6,190,103z"
       id="path11"
       style="fill:#df0000;fill-opacity:1" />
    <path
       fill="limegreen"
       d="M190,455c0,46.4-37.6,84-84,84 c-46.4,0-84-37.6-84-84c0-46.4,37.6-84,84-84C152.4,371.1,190,408.7,190,455z"
       id="path13"
       style="fill:#2bb12b;fill-opacity:1" />
    <path
       fill="yellow"
       d="M190,279c0,46.4-37.6,84-84,84 c-46.4,0-84-37.6-84-84c0-46.4,37.6-84,84-84C152.4,195,190,232.6,190,279z"
       id="path15"
       style="fill:#d4d400;fill-opacity:1" />
  </g>
</svg>
