<?xml version="1.0" encoding="UTF-8" standalone="no"?>
<svg
   xmlns:dc="http://purl.org/dc/elements/1.1/"
   xmlns:cc="http://creativecommons.org/ns#"
   xmlns:rdf="http://www.w3.org/1999/02/22-rdf-syntax-ns#"
   xmlns:svg="http://www.w3.org/2000/svg"
   xmlns="http://www.w3.org/2000/svg"
   xmlns:sodipodi="http://sodipodi.sourceforge.net/DTD/sodipodi-0.dtd"
   xmlns:inkscape="http://www.inkscape.org/namespaces/inkscape"
   version="1.1"
   width="27.96"
   id="hostel"
   viewBox="0 0 12.5 12.5"
   fill="blue"
   fill-opacity="1"
   fill-rule="nonzero"
   stroke="none"
   height="27.96"
   inkscape:version="0.91 r13725"
   sodipodi:docname="hostel.svg">
  <metadata
     id="metadata9">
    <rdf:RDF>
      <cc:Work
         rdf:about="">
        <dc:format>image/svg+xml</dc:format>
        <dc:type
           rdf:resource="http://purl.org/dc/dcmitype/StillImage" />
      </cc:Work>
    </rdf:RDF>
  </metadata>
  <defs
     id="defs7" />
  <sodipodi:namedview
     pagecolor="#ffffff"
     bordercolor="#666666"
     borderopacity="1"
     objecttolerance="10"
     gridtolerance="10"
     guidetolerance="10"
     inkscape:pageopacity="0"
     inkscape:pageshadow="2"
     inkscape:window-width="1129"
     inkscape:window-height="641"
     id="namedview5"
     showgrid="false"
     inkscape:zoom="8.4406297"
     inkscape:cx="-3.1988131"
     inkscape:cy="14.088938"
     inkscape:window-x="0"
     inkscape:window-y="0"
     inkscape:window-maximized="0"
     inkscape:current-layer="hostel" />
  <path
     d="M 5.5,4 L 9,0 L 12.5,4 L 11.5,4 L 11.5,8 L 10,8 L 10,5 L 8,5 L 8,8 L 6.5,8 L 6.5,4 L 5.5,4 z M 0.5,3.5 C 2,2.5 2.3,1 2.5,0 C 2.7,1 3,2.5 4.5,3.5 L 3.3,3.5 C 3.3,4 4,5 5,6 L 3,6 L 3,8 L 2,8 L 2,6 L 0,6 C 1,5 1.7,4 1.7,3.5 L 0.5,3.5 z M 0,8 L 0,7.5 L 12.5,7.5 L 12.5,8 L 0,8 z "
     id="path3"
     style="fill:#a0a0a0;fill-opacity:1" />
</svg>
