<?xml version="1.0" encoding="UTF-8" standalone="no"?>
<svg
   xmlns:dc="http://purl.org/dc/elements/1.1/"
   xmlns:cc="http://creativecommons.org/ns#"
   xmlns:rdf="http://www.w3.org/1999/02/22-rdf-syntax-ns#"
   xmlns:svg="http://www.w3.org/2000/svg"
   xmlns="http://www.w3.org/2000/svg"
   xmlns:sodipodi="http://sodipodi.sourceforge.net/DTD/sodipodi-0.dtd"
   xmlns:inkscape="http://www.inkscape.org/namespaces/inkscape"
   version="1.1"
   width="16"
   height="16"
   id="symbol-power-photovoltaic"
   inkscape:version="0.91 r13725"
   sodipodi:docname="power_photovoltaic.svg">
  <metadata
     id="metadata27">
    <rdf:RDF>
      <cc:Work
         rdf:about="">
        <dc:format>image/svg+xml</dc:format>
        <dc:type
           rdf:resource="http://purl.org/dc/dcmitype/StillImage" />
      </cc:Work>
    </rdf:RDF>
  </metadata>
  <defs
     id="defs25" />
  <sodipodi:namedview
     pagecolor="#ffffff"
     bordercolor="#666666"
     borderopacity="1"
     objecttolerance="10"
     gridtolerance="10"
     guidetolerance="10"
     inkscape:pageopacity="0"
     inkscape:pageshadow="2"
     inkscape:window-width="664"
     inkscape:window-height="480"
     id="namedview23"
     showgrid="false"
     inkscape:zoom="14.75"
     inkscape:cx="8"
     inkscape:cy="8"
     inkscape:window-x="0"
     inkscape:window-y="0"
     inkscape:window-maximized="0"
     inkscape:current-layer="symbol-power-photovoltaic" />
  <g
     transform="matrix(1,0,-0.26,1,0.15,0)"
     id="g3">
    <rect
       x="3.4"
       y="3.4"
       width="13"
       height="8.9"
       style="fill:#ffffff;stroke:#000000;stroke-width:0.4"
       id="rect5" />
    <g
       style="stroke-width:0;fill:#000084"
       id="g7">
      <rect
         x="3.9"
         y="8"
         width="3.8"
         height="3.8"
         id="rect9" />
      <rect
         x="8"
         y="8"
         width="3.8"
         height="3.8"
         id="rect11" />
      <rect
         x="12.1"
         y="8"
         width="3.8"
         height="3.8"
         id="rect13" />
      <rect
         x="3.9"
         y="3.9"
         width="3.8"
         height="3.8"
         id="rect15" />
      <rect
         x="8"
         y="3.9"
         width="3.8"
         height="3.8"
         id="rect17" />
      <rect
         x="12.1"
         y="3.9"
         width="3.8"
         height="3.8"
         id="rect19" />
    </g>
  </g>
  <path
     d="M 2.72 0.34 L 2.97 2.59 L 1.38 2.13 L 2.44 3.25 L 0.38 3.98 L 2.59 4.38 L 1.59 5.72 L 3.13 5.03 L 3.16 7.22 L 4.25 5.34 L 5.22 6.63 L 5.03 5 L 7.22 5.66 L 5.72 4.06 L 7.25 3.59 L 5.59 3.28 L 6.97 1.41 L 4.88 2.34 L 4.88 0.78 L 4.09 2.13 L 2.72 0.34 z"
     style="fill:#bfbf00;stroke:#000000;stroke-width:0.1;fill-opacity:1"
     id="path21" />
</svg>
