<?xml version="1.0" encoding="UTF-8"?>
<svg xmlns:xs="http://www.w3.org/2001/XMLSchema" xmlns:xlink="http://www.w3.org/1999/xlink" xmlns:inkscape="http://www.inkscape.org/namespaces/inkscape" xmlns:rdf="http://www.w3.org/1999/02/22-rdf-syntax-ns#" xmlns="http://www.w3.org/2000/svg" xmlns:svg="http://www.w3.org/2000/svg" xmlns:xi="http://www.w3.org/2001/XInclude" xmlns:cc="http://web.resource.org/cc/" xmlns:dc="http://purl.org/dc/elements/1.1/" version="1.1" baseProfile="full" width="24" id="pubx" viewBox="0 0 600 600" height="24">
   <svg:g style="fill-rule: nonzero;">
                <svg:path style="fill:#ffffff; stroke:#000000; stroke-width:50; stroke-linecap:butt; stroke-linejoin:miter" d="M 598.46 512.06 C 598.46 557.96 561.20 595.40 515.30 595.40 L 88.70 595.40       C 42.62 595.40 5.36 557.96 5.36 512.06 L 5.36 85.46 C 5.36 39.38 42.62 2.12 88.70 2.12       L 515.30 2.12 C 561.20 2.12 598.46 39.38 598.46 85.46 L 598.46 512.06"/>
                <svg:path style="fill:#FFFFFF; stroke:none;" d="M 311.00 565.88 C 344.84 567.68 384.26 575.96 413.60 589.28 L 190.40 589.46       C 221.00 574.88 256.28 567.68 291.92 566.06 L 291.92 377.24 C 224.60 371.48 169.70 318.38 170.24 245.48       C 170.60 191.66 198.86 133.88 198.86 133.88 L 407.30 133.88 C 407.30 133.88 433.76 181.22 433.76 245.48       C 433.76 309.74 379.94 372.74 311.00 376.88 L 311.00 565.88 Z"/>
                <svg:path style="fill:none; stroke:#000000; stroke-width:14.94; stroke-linecap:round; stroke-linejoin:round" d="M 311.00 565.88 C 344.84 567.68 384.26 575.96 413.60 589.28 L 190.40 589.46       C 221.00 574.88 256.28 567.68 291.92 566.06 L 291.92 377.24 C 224.60 371.48 169.70 318.38 170.24 245.48       C 170.60 191.66 198.86 133.88 198.86 133.88 L 407.30 133.88 C 407.30 133.88 433.76 181.22 433.76 245.48       C 433.76 309.74 379.94 372.74 311.00 376.88 L 311.00 565.88"/>
                <svg:path style="fill:#000000; stroke:none; stroke-width:14.94; stroke-linecap:round; stroke-linejoin:bevel" d="M 431.60 210.74 C 432.86 220.64 433.76 234.32 433.76 245.48 C 433.76 309.74 379.94 372.74 311.00 376.88       L 311.00 565.88 C 344.84 567.68 384.26 575.96 413.60 589.28 L 190.40 589.46       C 221.00 574.88 256.28 567.68 291.92 566.06 L 291.92 377.24 C 224.60 371.48 169.70 318.38 170.24 245.48       C 170.24 234.14 171.50 222.62 173.48 211.64 L 431.60 210.74 Z"/>
                <svg:path style="fill:none; stroke:#000000; stroke-width:0.54; stroke-linecap:butt; stroke-linejoin:miter" d="M 431.60 210.74 C 432.86 220.64 433.76 234.32 433.76 245.48 C 433.76 309.74 379.94 372.74 311.00 376.88       L 311.00 565.88 C 344.84 567.68 384.26 575.96 413.60 589.28 L 190.40 589.46       C 221.00 574.88 256.28 567.68 291.92 566.06 L 291.92 377.24 C 224.60 371.48 169.70 318.38 170.24 245.48       C 170.24 234.14 171.50 222.62 173.48 211.64 L 431.60 210.74"/>
                <svg:path style="fill:#FFFFFF; stroke:none; stroke-width:0.54; stroke-linecap:butt; stroke-linejoin:bevel" d="M 365.90 333.68 C 365.90 347.00 355.28 357.62 341.96 357.62 C 328.64 357.62 318.02 347.00 318.02 333.68       C 318.02 320.36 328.64 309.74 341.96 309.74 C 355.28 309.74 365.90 320.36 365.90 333.68 Z"/>
                <svg:path style="fill:none; stroke:#000000; stroke-width:1.08; stroke-linecap:butt; stroke-linejoin:miter" d="M 365.90 333.68 C 365.90 347.00 355.28 357.62 341.96 357.62 C 328.64 357.62 318.02 347.00 318.02 333.68       C 318.02 320.36 328.64 309.74 341.96 309.74 C 355.28 309.74 365.90 320.36 365.90 333.68"/>
            </svg:g>
</svg>