<?xml version="1.0" encoding="UTF-8" standalone="no"?>
<svg
   xmlns:dc="http://purl.org/dc/elements/1.1/"
   xmlns:cc="http://creativecommons.org/ns#"
   xmlns:rdf="http://www.w3.org/1999/02/22-rdf-syntax-ns#"
   xmlns:svg="http://www.w3.org/2000/svg"
   xmlns="http://www.w3.org/2000/svg"
   xmlns:sodipodi="http://sodipodi.sourceforge.net/DTD/sodipodi-0.dtd"
   xmlns:inkscape="http://www.inkscape.org/namespaces/inkscape"
   version="1.1"
   width="18.64"
   id="speed_trap"
   viewBox="0 0 36 36"
   height="18.64"
   inkscape:version="0.91 r13725"
   sodipodi:docname="speed_trap.svg">
  <metadata
     id="metadata11">
    <rdf:RDF>
      <cc:Work
         rdf:about="">
        <dc:format>image/svg+xml</dc:format>
        <dc:type
           rdf:resource="http://purl.org/dc/dcmitype/StillImage" />
      </cc:Work>
    </rdf:RDF>
  </metadata>
  <defs
     id="defs9" />
  <sodipodi:namedview
     pagecolor="#ffffff"
     bordercolor="#666666"
     borderopacity="1"
     objecttolerance="10"
     gridtolerance="10"
     guidetolerance="10"
     inkscape:pageopacity="0"
     inkscape:pageshadow="2"
     inkscape:window-width="664"
     inkscape:window-height="480"
     id="namedview7"
     showgrid="false"
     inkscape:zoom="12.660945"
     inkscape:cx="9.3199997"
     inkscape:cy="9.3199997"
     inkscape:window-x="0"
     inkscape:window-y="0"
     inkscape:window-maximized="0"
     inkscape:current-layer="speed_trap" />
  <rect
     style="fill:#b1b100;fill-opacity:1"
     x="0"
     y="0"
     width="36"
     height="36"
     rx="2"
     ry="2"
     id="rect3" />
  <path
     style="fill:#000000"
     d="M0.5 37.44 L31.5 37.44 a0.5 0.5 -180 0 0 0.5 -0.5 L32 5.94 a0.5 0.5 -180 0 0 -0.5 -0.5 L0.5 5.44 a0.5 0.5 -180    0 0 -0.5 0.5 L0 36.94 a0.5 0.5 -180 0 0 0.5 0.5 Z M2 35.44 L2 7.44 L30 7.44 L30 35.44 L2 35.44 Z M8 30.44    L16 30.44 A3 3 -180 0 0 19 27.44 L19 15.44 A3 3 -180 0 0 16 12.44 L8 12.44 A3 3 -180 0 0 5 15.44 L5 27.44    A3 3 -180 0 0 8 30.44 Z M14 24.94 A3.5 3.5 0 1 1 7 24.94 A3.5 3.5 0 1 1 14 24.94 Z M13 24.94 A2.5 2.5 -180    1 0 8 24.94 A2.5 2.5 -180 1 0 13 24.94 Z M17 15.44 A2 2 0 1 1 13 15.44 A2 2 0 1 1 17 15.44 Z M16 15.44 a1    1 -180 1 0 -2 7.10543E-015 a1 1 -180 1 0 2 -7.10543E-015 Z M20 25.94 L21 25.94 L21 15.44 L20 15.44 L20 25.94    Z M22 25.94 L23 25.94 L23 16.44 L22 16.44 L22 25.94 Z M20 26.94 L20 27.94 L25 27.94 L25 24.94 L27 24.94    L27 19.44 L25 19.44 L25 17.44 L24 17.44 L24 26.94 L20 26.94 Z"
     transform="translate(2,-3.44)"
     id="path5" />
</svg>
