<?xml version="1.0" encoding="UTF-8" standalone="no"?>
<svg
   xmlns:dc="http://purl.org/dc/elements/1.1/"
   xmlns:cc="http://creativecommons.org/ns#"
   xmlns:rdf="http://www.w3.org/1999/02/22-rdf-syntax-ns#"
   xmlns:svg="http://www.w3.org/2000/svg"
   xmlns="http://www.w3.org/2000/svg"
   xmlns:sodipodi="http://sodipodi.sourceforge.net/DTD/sodipodi-0.dtd"
   xmlns:inkscape="http://www.inkscape.org/namespaces/inkscape"
   version="1.1"
   width="46.6"
   id="symbol-swimming-borderless"
   viewBox="0 0 300 300"
   height="46.6"
   inkscape:version="0.91 r13725"
   sodipodi:docname="swimming-borderless.svg">
  <metadata
     id="metadata11">
    <rdf:RDF>
      <cc:Work
         rdf:about="">
        <dc:format>image/svg+xml</dc:format>
        <dc:type
           rdf:resource="http://purl.org/dc/dcmitype/StillImage" />
      </cc:Work>
    </rdf:RDF>
  </metadata>
  <defs
     id="defs9" />
  <sodipodi:namedview
     pagecolor="#ffffff"
     bordercolor="#666666"
     borderopacity="1"
     objecttolerance="10"
     gridtolerance="10"
     guidetolerance="10"
     inkscape:pageopacity="0"
     inkscape:pageshadow="2"
     inkscape:window-width="664"
     inkscape:window-height="480"
     id="namedview7"
     showgrid="false"
     inkscape:zoom="5.0643778"
     inkscape:cx="23.299999"
     inkscape:cy="23.299999"
     inkscape:window-x="0"
     inkscape:window-y="0"
     inkscape:window-maximized="0"
     inkscape:current-layer="symbol-swimming-borderless" />
  <path
     d="M 210.53915,180.45818 C 221.18483,180.42063 228.59512,160.17099 250.83602,160.44974 C 273.582,160.72849 276.4272,177.41436 290.76227,177.7222 C 290.68595,187.3812 290.75823,185.21412 290.83303,193.87816 C 270.18685,193.40007 268.0079,172.81556 251.07545,173.33716 C 234.32157,173.85876 230.97744,194.56702 211.28145,194.18182 C 191.40689,193.79662 189.17993,173.19882 168.67447,173.10386 C 147.99044,173.00889 142.97677,193.08728 125.06307,193.36288 C 120.39415,193.24116 116.11472,191.54501 112.08545,189.20714 C 102.30978,183.53507 94.006659,174.08564 85.186335,174.17905 C 72.729891,174.31098 61.09516,190.45637 45.663964,190.6261 C 30.613903,190.79068 24.262669,177.90922 16.243098,177.92116 C 16.330948,168.99273 16.146328,170.51037 16.0949,162.12021 C 30.018485,162.41604 36.756221,175.52218 44.709562,175.70947 C 52.752189,175.89677 71.586801,159.33619 81.451947,159.44526 C 91.315702,159.55432 96.825144,160.05397 105.80266,166.84009 C 122.39809,159.11328 155.04728,141.99864 155.67088,140.85475 C 160.58076,131.84835 156.09627,109.8996 140.93062,105.9839 C 125.93231,102.11141 98.315313,111.19762 78.932923,114.42935 C 59.626217,117.64846 56.387347,102.77595 73.838857,95.61157 C 91.538773,88.3452 117.48654,82.076364 137.70712,78.24353 C 157.8058,74.433803 160.83707,80.588591 163.77824,86.63543 C 166.76917,92.784581 203.28035,176.19322 203.28035,176.19322 C 206.63143,179.44496 207.56153,180.46846 210.53915,180.45818 z "
     id="path3"
     style="fill:#909090;fill-opacity:1" />
  <path
     style="stroke:#909090;stroke-width:21;stroke-linejoin:miter;stroke-miterlimit:4;fill:#909090;fill-opacity:1;stroke-opacity:1"
     d="M 371.07143 260.39789 A 18.571428 22.678572 0 1 1  333.92857,260.39789 A 18.571428 22.678572 0 1 1  371.07143 260.39789 z"
     transform="matrix(1.040898,0,0,0.8287669,-145.29268,-80.9236)"
     id="path5" />
</svg>
