<?xml version="1.0" encoding="UTF-8"?>
<svg width="19" height="19" version="1.1" viewBox="0 0 19 19" xml:space="preserve" xmlns="http://www.w3.org/2000/svg">
 <path d="m8.7125 1.6251v0.7875c-1.3624 0.1575-2.6067 0.70875-3.6225 1.5277l-0.5985-0.5985-1.1182 1.1182 0.61425 0.59062c-0.86625 1.0474-1.4096 2.3232-1.575 3.6618h-0.7875v1.575h0.7875c0.16537 1.323 0.70875 2.5672 1.575 3.591l-0.61425 0.5985 1.1182 1.1182 0.59062-0.58275c1.0395 0.84262 2.2917 1.3939 3.6304 1.575v0.7875h1.575v-0.7875c1.3309-0.18112 2.5908-0.73237 3.6225-1.575l0.5985 0.58275 1.1182-1.1182-0.61425-0.59062c0.86625-1.0237 1.4096-2.2758 1.575-3.5988h0.7875v-1.575h-0.7875c-0.16537-1.3387-0.70875-2.6067-1.575-3.654l0.61425-0.5985-1.1182-1.1182-0.59062 0.5985c-1.0395-0.84262-2.2995-1.3702-3.6303-1.5277v-0.7875h-1.575m0 2.3625v2.3625l-0.7875 0.39375-1.7247-1.6932c0.71662-0.5355 1.575-0.92925 2.5122-1.0631m1.575 0c0.9135 0.14175 1.7797 0.504 2.52 1.0631l-1.7325 1.6932-0.7875-0.39375v-2.3625m-5.1975 2.1735 1.6537 1.764-0.39375 0.7875h-2.3625c0.126-0.9135 0.55125-1.8112 1.0946-2.5593l0.00788 0.00788m8.82 0c0.57487 0.74812 0.95287 1.6222 1.1025 2.5515h-2.3625l-0.39375-0.7875 1.6617-1.764h-0.0079m-4.41 1.764c0.882 0 1.575 0.693 1.575 1.575 0 0.882-0.693 1.575-1.575 1.575-0.882 0-1.575-0.693-1.575-1.575 0-0.882 0.693-1.575 1.575-1.575m-5.5125 2.3625h2.3625l0.44887 0.7875-1.7167 1.6932c-0.567-0.71662-0.945-1.5672-1.0946-2.4807m8.6625 0h2.3625c-0.14962 0.90562-0.52762 1.764-1.0946 2.4885l-1.6617-1.701 0.39375-0.7875m-4.725 1.9687 0.7875 0.39375v2.3625c-0.9213-0.1575-1.7876-0.54337-2.5199-1.1261l1.7325-1.6302m3.15 0 1.7247 1.6302c-0.71662 0.5355-1.575 0.99224-2.5122 1.1261v-2.3625z" fill="#fff"/>
</svg>
