<?xml version="1.0" encoding="UTF-8"?>
<svg width="19" height="19" version="1.1" viewBox="0 0 19 19" xml:space="preserve" xmlns="http://www.w3.org/2000/svg">
 <path d="m14 3.4997v0.75h-1.5v-0.75c0-0.4125-0.3375-0.75-0.75-0.75h-4.5c-0.4125 0-0.75 0.3375-0.75 0.75v0.75h-1.5v-0.75c0-0.4125-0.3375-0.75-0.75-0.75-0.4125 0-0.75 0.3375-0.75 0.75v12.001c0 0.4125 0.3375 0.75 0.75 0.75 0.4125 0 0.75-0.3375 0.75-0.75v-0.75h1.5v0.75c0 0.4125 0.3375 0.75 0.75 0.75h4.5c0.4125 0 0.75-0.3375 0.75-0.75v-0.75h1.5v0.75c0 0.4125 0.3375 0.75 0.75 0.75s0.75-0.3375 0.75-0.75v-12.001c2e-6 -0.4125-0.3375-0.75-0.75-0.75s-0.75 0.3375-0.75 0.75zm-7.5 9.75h-1.5v-1.5h1.5zm0-3h-1.5v-1.5h1.5zm0-3h-1.5v-1.5h1.5zm7.5 6h-1.5v-1.5h1.5zm0-3h-1.5v-1.5h1.5zm0-3h-1.5v-1.5h1.5z" fill="#fff"/>
</svg>
