<svg xmlns="http://www.w3.org/2000/svg" width="18" height="18" viewBox="72.0 992.362197 18.0 18.0">
    <g transform="translate(36 36)">
        <path d="m 37,959.3622 0,12 16,0 0,-12 z m 3,2 2,0 0,1 c 0.30464,0.3836 0.83184,0.6848 1,1.125 l 0,0.875 c -0.38366,-0.3046 -0.68481,-0.8319 -1.125,-1 l -1.875,0 3,3 0,1 c -0.30464,0.3836 -0.83184,0.6848 -1,1.125 l 0,0.875 -2,0 0,-1 c -0.30464,-0.3836 -0.83184,-0.6848 -1,-1.125 l 0,-0.875 c 0.38366,0.3046 0.68481,0.8319 1.125,1 l 1.875,0 -3,-3 0,-1 c 0.30464,-0.3836 0.83184,-0.6848 1,-1.125 z m 6,0 5,0 0,2 -5,0 z m 0,3 1,0 0,1 -1,0 z m 2,0 1,0 0,1 -1,0 z m 2,0 1,0 0,1 -1,0 z m -4,2 1,0 0,1 -1,0 z m 2,0 1,0 0,1 -1,0 z m 2,0 1,0 0,1 -1,0 z m -4,2 1,0 0,1 -1,0 z m 2,0 1,0 0,1 -1,0 z m 2,0 1,0 0,1 -1,0 z" opacity=".3" stroke="#fff" stroke-width="2" stroke-linejoin="round" fill="none"/>
        <path d="m 37,959.3622 0,12 16,0 0,-12 z m 3,2 2,0 0,1 c 0.30464,0.3836 0.83184,0.6848 1,1.125 l 0,0.875 c -0.38366,-0.3046 -0.68481,-0.8319 -1.125,-1 l -1.875,0 0,0.99998 2,1 1,1.00002 0,1 c -0.30464,0.3836 -0.83184,0.6848 -1,1.125 l 0,0.875 -2,0 0,-1 c -0.30464,-0.3836 -0.83184,-0.6848 -1,-1.125 l 0,-0.875 c 0.38366,0.3046 0.68481,0.8319 1.125,1 l 1.875,0 0,-1.00002 -2,-1 -1,-0.99998 0,-1 c 0.30464,-0.3836 0.83184,-0.6848 1,-1.125 z m 6,0 5,0 0,2 -5,0 z m 0,3 1,0 0,1 -1,0 z m 2,0 1,0 0,1 -1,0 z m 2,0 1,0 0,1 -1,0 z m -4,2 1,0 0,1 -1,0 z m 2,0 1,0 0,1 -1,0 z m 2,0 1,0 0,1 -1,0 z m -4,2 1,0 0,1 -1,0 z m 2,0 1,0 0,1 -1,0 z m 2,0 1,0 0,1 -1,0 z" fill="#747474"/>
        <rect height="18" width="18" x="36" y="956.362" opacity=".3" fill="none"/>
    </g>
</svg>
