<svg xmlns="http://www.w3.org/2000/svg" width="18" height="18" viewBox="72.0 902.362197 18.0 18.0">
    <g fill="#747474">
        <path d="m 9,-139.79988 0,3.76863 c 0,0.0183 -0.2245221,0.0312 -0.5,0.0312 -0.2754779,0 -0.5,-0.013 -0.5,-0.0312 l 0,-3.67488 c -0.6296026,0.0991 -1.3114304,0.0732 -2,0.33113 l 0,3.34375 c 0,0.0183 -0.2245221,0.0312 -0.5,0.0312 -0.2754779,0 -0.5,-0.013 -0.5,-0.0312 l 0,-2.9375 C 2,-138 1.0055673,-137.19071 1,-135 c 0,1.1435 0,3 0,3 l 16,0 c 0,0 0,-1.8702 0,-3 0,-2.21482 -2,-4 -5,-4.40625 l 0,3.375 c 0,0.0183 -0.224522,0.0312 -0.5,0.0312 -0.275478,0 -0.5,-0.013 -0.5,-0.0312 l 0,-3.6875 c -0.663107,-0.16754 -1.3337328,-0.0767 -2,-0.0811 z" transform="translate(72 18.91) translate(0 1028.362)" opacity=".3" stroke="#fff" stroke-width="2" stroke-linejoin="round"/>
        <path d="m 9,-139.79988 0,3.76863 c 0,0.0183 -0.2245221,0.0312 -0.5,0.0312 -0.2754779,0 -0.5,-0.013 -0.5,-0.0312 l 0,-3.67488 c -0.6296026,0.0991 -1.3114304,0.0732 -2,0.33113 l 0,3.34375 c 0,0.0183 -0.2245221,0.0312 -0.5,0.0312 -0.2754779,0 -0.5,-0.013 -0.5,-0.0312 l 0,-2.9375 C 2,-138 1.0055673,-137.19071 1,-135 c 0,1.1435 0,3 0,3 l 16,0 c 0,0 0,-1.8702 0,-3 0,-2.21482 -2,-4 -5,-4.40625 l 0,3.375 c 0,0.0183 -0.224522,0.0312 -0.5,0.0312 -0.275478,0 -0.5,-0.013 -0.5,-0.0312 l 0,-3.6875 c -0.663107,-0.16754 -1.3337328,-0.0767 -2,-0.0811 z" transform="translate(72 18.91) translate(0 1028.362)"/>
    </g>
</svg>
