<svg xmlns="http://www.w3.org/2000/svg" width="18" height="18" viewBox="102.0 902.3622 18.0 18.0">
    <g transform="translate(0 1028.362)">
        <rect height="18" width="18" x="102" y="-126" opacity=".3" fill="none"/>
        <path d="m 117.75,-124.9375 -1.59375,1.59375 c 0,0 -0.28405,0.26983 -0.5625,0.6875 C 115.3153,-122.23858 115,-121.66667 115,-121 l 0,4 -3,0 2,8 3,0 2,-8 -3,0 0,-4 c 0,-0.33333 0.1847,-0.76142 0.40625,-1.09375 0.22155,-0.33233 0.4375,-0.5625 0.4375,-0.5625 l 1.59375,-1.59375 -0.6875,-0.6875 z M 113,-116 l 2,0 0,2 -1.5,0 -0.5,-2 z m 3,0 2,0 -0.40625,2 -1.59375,0 0,-2 z m -9.59375,-6.28125 L 106,-122 l -0.40625,0.28125 0.1875,0.25 L 103,-115 107.96875,-118.15625 110,-115.5 l 0,6.5 1,0 0,-7 -2.1875,-2.6875 L 114,-122 l -7.40625,0 z" stroke="#fff" opacity=".3" stroke-width="2" stroke-linejoin="round" fill="none"/>
        <path d="m 117.75,-124.9375 -1.59375,1.59375 c 0,0 -0.28405,0.26983 -0.5625,0.6875 C 115.3153,-122.23858 115,-121.66667 115,-121 l 0,4 -3,0 2,8 3,0 2,-8 -3,0 0,-4 c 0,-0.33333 0.1847,-0.76142 0.40625,-1.09375 0.22155,-0.33233 0.4375,-0.5625 0.4375,-0.5625 l 1.59375,-1.59375 -0.6875,-0.6875 z M 113,-116 l 2,0 0,2 -1.5,0 -0.5,-2 z m 3,0 2,0 -0.40625,2 -1.59375,0 0,-2 z m -9.59375,-6.28125 L 106,-122 l -0.40625,0.28125 0.1875,0.25 L 103,-115 107.96875,-118.15625 110,-115.5 l 0,6.5 1,0 0,-7 -2.1875,-2.6875 L 114,-122 l -7.40625,0 z" fill="#747474"/>
        <rect height="18" width="18" x="102" y="-126" opacity=".3" fill="none"/>
    </g>
</svg>
