<svg xmlns="http://www.w3.org/2000/svg" width="18" height="18" viewBox="36.0 794.3622 18.0 18.0">
    <g>
        <path d="M 40 -230 L 40 -229 L 37 -229 L 37 -225 L 40 -225 L 40 -223.96875 L 37 -223.96875 L 37 -222 L 40 -222 L 40 -220 L 41 -220 L 41 -222 L 49 -222 L 49 -220 L 50 -220 L 50 -222 L 53 -222 L 53 -223.96875 L 50 -223.96875 L 50 -225 L 53 -225 L 53 -229 L 50 -229 L 50 -230 L 49 -230 L 49 -229 L 41 -229 L 41 -230 L 40 -230 z M 41 -225 L 49 -225 L 49 -223.96875 L 41 -223.96875 L 41 -225 z" style="text-indent:0;text-align:start;line-height:normal;text-transform:none;block-progression:tb;-inkscape-font-specification:Sans" transform="translate(0 -2) translate(0 1030.362)" color="#000" stroke="#fff" stroke-width="2" overflow="visible" enable-background="accumulate" font-family="Sans" stroke-linejoin="round" fill="none" opacity=".3"/>
        <path d="M 40 -230 L 40 -229 L 37 -229 L 37 -225 L 40 -225 L 40 -223.96875 L 37 -223.96875 L 37 -222 L 40 -222 L 40 -220 L 41 -220 L 41 -222 L 49 -222 L 49 -220 L 50 -220 L 50 -222 L 53 -222 L 53 -223.96875 L 50 -223.96875 L 50 -225 L 53 -225 L 53 -229 L 50 -229 L 50 -230 L 49 -230 L 49 -229 L 41 -229 L 41 -230 L 40 -230 z M 41 -225 L 49 -225 L 49 -223.96875 L 41 -223.96875 L 41 -225 z" style="text-indent:0;text-align:start;line-height:normal;text-transform:none;block-progression:tb;-inkscape-font-specification:Sans" transform="translate(0 -2) translate(0 1030.362)" color="#000" fill="#747474" overflow="visible" enable-background="accumulate" font-family="Sans"/>
        <rect height="18" ry=".03" transform="translate(0 1028.362)" width="18" x="36" y="-234" opacity=".3" fill="none"/>
    </g>
</svg>
