<svg xmlns="http://www.w3.org/2000/svg" width="18" height="18" viewBox="132.0 830.3622 18.0 18.0">
    <g transform="translate(0 1028.362)">
        <rect height="18" width="18" x="132" y="-198" opacity=".5" fill="none"/>
        <path d="M 136 -197 L 136 -190 L 133 -190 L 133 -188 L 136 -188 L 136 -185 L 134 -185 L 137 -181 L 140 -185 L 138 -185 L 138 -188 L 144 -188 L 144 -181 L 146 -181 L 146 -188 L 149 -188 L 149 -190 L 146 -190 L 146 -193 L 148 -193 L 145 -197 L 142 -193 L 144 -193 L 144 -190 L 138 -190 L 138 -197 L 136 -197 z" stroke="#fff" opacity=".3" stroke-width="2" stroke-linejoin="round" fill="none"/>
        <path d="M 136 -197 L 136 -190 L 133 -190 L 133 -188 L 136 -188 L 136 -185 L 134 -185 L 137 -181 L 140 -185 L 138 -185 L 138 -188 L 144 -188 L 144 -181 L 146 -181 L 146 -188 L 149 -188 L 149 -190 L 146 -190 L 146 -193 L 148 -193 L 145 -197 L 142 -193 L 144 -193 L 144 -190 L 138 -190 L 138 -197 L 136 -197 z" fill="#747474"/>
    </g>
</svg>
