<svg xmlns="http://www.w3.org/2000/svg" width="18" height="18" viewBox="0.0 902.362196 18.0 18.0">
    <g transform="translate(-72 -17.943)">
        <path d="m 81,-107.0625 c -1.583333,0 -3.225195,0.39462 -4.46875,1.5 -1.243555,1.10538 -2.03125,2.9 -2.03125,5.5 l 1.03125,0 2.46875,9 6,0 2.46875,-9 1.03125,0 c 0,-2.6 -0.787695,-4.39462 -2.03125,-5.5 -1.243555,-1.10538 -2.885417,-1.5 -4.46875,-1.5 z m 0,1 c 1.416667,0 2.774805,0.35538 3.78125,1.25 0.685875,0.60967 1.21968,1.49799 1.5,2.75 l -10.5625,0 c 0.28032,-1.25201 0.814125,-2.14033 1.5,-2.75 1.006445,-0.89462 2.364583,-1.25 3.78125,-1.25 z m -5,5 10,0 -0.28125,1 -9.46875,0 -0.25,-1 z m 2,8 6,0 -0.28125,1 -5.4375,0 -0.28125,-1 z" transform="translate(0 1028.362)" opacity=".3" stroke="#fff" stroke-width="2" stroke-linejoin="round" fill="none"/>
        <path d="m 81,-107.0625 c -1.583333,0 -3.225195,0.39462 -4.46875,1.5 -1.243555,1.10538 -2.03125,2.9 -2.03125,5.5 l 1.03125,0 2.46875,9 6,0 2.46875,-9 1.03125,0 c 0,-2.6 -0.787695,-4.39462 -2.03125,-5.5 -1.243555,-1.10538 -2.885417,-1.5 -4.46875,-1.5 z m 0,1 c 1.416667,0 2.774805,0.35538 3.78125,1.25 0.685875,0.60967 1.21968,1.49799 1.5,2.75 l -10.5625,0 c 0.28032,-1.25201 0.814125,-2.14033 1.5,-2.75 1.006445,-0.89462 2.364583,-1.25 3.78125,-1.25 z m -5,5 10,0 -0.28125,1 -9.46875,0 -0.25,-1 z m 2,8 6,0 -0.28125,1 -5.4375,0 -0.28125,-1 z" transform="translate(0 1028.362)" fill="#747474"/>
        <rect height="18" width="18" x="72" y="920.305" fill="none"/>
    </g>
</svg>
