<svg xmlns="http://www.w3.org/2000/svg" width="18" height="18" viewBox="72.0 974.36218 18.0 18.0">
    <rect height="18" width="18" x="72" y="974.362" fill="none"/>
    <rect height="18" width="18" x="72" y="974.362" opacity=".3" fill="none"/>
    <path d="M 73 -51 L 73 -39 L 89 -39 L 89 -51 L 73 -51 z M 75 -49 L 77 -49 L 77 -48 C 77.30464 -47.6164 77.83184 -47.3152 78 -46.875 L 78 -46 C 77.61634 -46.3046 77.31519 -46.8319 76.875 -47 L 75 -47 L 75 -46 L 77 -45 L 78 -44 L 78 -43 C 77.69536 -42.6164 77.16816 -42.3152 77 -41.875 L 77 -41 L 75 -41 L 75 -42 C 74.69536 -42.3836 74.16816 -42.6848 74 -43.125 L 74 -44 C 74.38366 -43.6954 74.68481 -43.1681 75.125 -43 L 77 -43 L 77 -44 L 75 -45 L 74 -46 L 74 -47 C 74.30464 -47.3836 74.83184 -47.6848 75 -48.125 L 75 -49 z M 85 -49 L 87 -49 L 88 -48 L 88 -47 L 87 -48 L 86 -48 L 85 -47 L 85 -46 L 86 -46 L 87 -44 L 85 -44 L 85 -43 L 86 -42 L 87 -42 L 88 -43 L 88 -42 L 87 -41 L 85 -41 L 84 -43 L 84 -44 L 83 -44 L 83 -46 L 84 -46 L 84 -47 L 85 -49 z M 79 -46 L 81.96875 -46 L 81.96875 -45 L 79 -45 L 79 -46 z M 79 -44 L 82 -44 L 82 -43 L 79 -43 L 79 -44 z" transform="translate(0 1028.362)" stroke="#fff" opacity=".3" stroke-width="2" stroke-linejoin="round" fill="none"/>
    <path d="M 73 -51 L 73 -39 L 89 -39 L 89 -51 L 73 -51 z M 75 -49 L 77 -49 L 77 -48 C 77.30464 -47.6164 77.83184 -47.3152 78 -46.875 L 78 -46 C 77.61634 -46.3046 77.31519 -46.8319 76.875 -47 L 75 -47 L 75 -46 L 77 -45 L 78 -44 L 78 -43 C 77.69536 -42.6164 77.16816 -42.3152 77 -41.875 L 77 -41 L 75 -41 L 75 -42 C 74.69536 -42.3836 74.16816 -42.6848 74 -43.125 L 74 -44 C 74.38366 -43.6954 74.68481 -43.1681 75.125 -43 L 77 -43 L 77 -44 L 75 -45 L 74 -46 L 74 -47 C 74.30464 -47.3836 74.83184 -47.6848 75 -48.125 L 75 -49 z M 85 -49 L 87 -49 L 88 -48 L 88 -47 L 87 -48 L 86 -48 L 85 -47 L 85 -46 L 86 -46 L 87 -44 L 85 -44 L 85 -43 L 86 -42 L 87 -42 L 88 -43 L 88 -42 L 87 -41 L 85 -41 L 84 -43 L 84 -44 L 83 -44 L 83 -46 L 84 -46 L 84 -47 L 85 -49 z M 79 -46 L 81.96875 -46 L 81.96875 -45 L 79 -45 L 79 -46 z M 79 -44 L 82 -44 L 82 -43 L 79 -43 L 79 -44 z" transform="translate(0 1028.362)" fill="#747474"/>
</svg>
