<svg xmlns="http://www.w3.org/2000/svg" width="18" height="18" viewBox="102.0 884.3622 18.0 18.0">
    <g transform="translate(0 1028.362)">
        <path d="m 114.5,-141.875 c -0.95537,0 -1.91074,0.28574 -2.5,0.875 -0.94281,0.94281 -0.29903,2.8658 -1,4 -1.56743,2.53615 -5.52243,1.05707 -6,4 -0.37755,2.32659 1.8224,4.09801 4,5 1.84776,0.76537 4.43992,1.25145 6,0 2.39721,-1.92297 1.66466,-5.94517 2,-9 0.14549,-1.32537 0.94281,-3.05719 0,-4 -0.58926,-0.58925 -1.54463,-0.875 -2.5,-0.875 z m 0,1.125 c 0.49975,0 0.9995,0.24951 1.5,0.75 0.80077,0.80081 0.12354,1.87432 0,3 -0.28489,2.59469 1,6 -2,8 -1.41338,0.94226 -3.43059,0.65005 -5,0 -1.84958,-0.76609 -3.32068,-2.02386 -3,-4 0.99998,-2.00007 5,-1 6,-4 0.35811,-1.07432 0.19928,-2.19919 1,-3 0.50051,-0.5005 1.00025,-0.75 1.5,-0.75 z m 0,0.59375 c -0.18674,0.005 -0.3648,0.0588 -0.5,0.15625 -0.79666,0.57421 -0.13289,0.95956 -0.84375,2.625 l 1.84375,0.75 c 0.002,-0.12413 -0.008,-0.24927 0,-0.375 0.0621,-0.99807 0.70711,-2.29289 0,-3 -0.11785,-0.11785 -0.31326,-0.16135 -0.5,-0.15625 z m -1.8125,3.6875 C 110.61362,-133.10311 107,-133.90352 107,-132 c 0,2 5,4 7,2 1.625,-1.625 1.17345,-3.46165 1.03125,-5.53125 l -2.34375,-0.9375 z" opacity=".3" stroke="#fff" stroke-width="2" stroke-linejoin="round" fill="none"/>
        <path d="m 114.5,-141.875 c -0.95537,0 -1.91074,0.28574 -2.5,0.875 -0.94281,0.94281 -0.29903,2.8658 -1,4 -1.56743,2.53615 -5.52243,1.05707 -6,4 -0.37755,2.32659 1.8224,4.09801 4,5 1.84776,0.76537 4.43992,1.25145 6,0 2.39721,-1.92297 1.66466,-5.94517 2,-9 0.14549,-1.32537 0.94281,-3.05719 0,-4 -0.58926,-0.58925 -1.54463,-0.875 -2.5,-0.875 z m 0,1.125 c 0.49975,0 0.9995,0.24951 1.5,0.75 0.80077,0.80081 0.12354,1.87432 0,3 -0.28489,2.59469 1,6 -2,8 -1.41338,0.94226 -3.43059,0.65005 -5,0 -1.84958,-0.76609 -3.32068,-2.02386 -3,-4 0.99998,-2.00007 5,-1 6,-4 0.35811,-1.07432 0.19928,-2.19919 1,-3 0.50051,-0.5005 1.00025,-0.75 1.5,-0.75 z m 0,0.59375 c -0.18674,0.005 -0.3648,0.0588 -0.5,0.15625 -0.79666,0.57421 -0.13289,0.95956 -0.84375,2.625 l 1.84375,0.75 c 0.002,-0.12413 -0.008,-0.24927 0,-0.375 0.0621,-0.99807 0.70711,-2.29289 0,-3 -0.11785,-0.11785 -0.31326,-0.16135 -0.5,-0.15625 z m -1.8125,3.6875 C 110.61362,-133.10311 107,-133.90352 107,-132 c 0,2 5,4 7,2 1.625,-1.625 1.17345,-3.46165 1.03125,-5.53125 l -2.34375,-0.9375 z" fill="#747474"/>
        <rect height="18" width="18" x="102" y="-144" fill="none"/>
    </g>
</svg>
