<svg xmlns="http://www.w3.org/2000/svg" width="18" height="18" viewBox="36.0 794.3622 18.0 18.0">
    <path d="M 100,97 56.25,15.75 62.5,-3 56.25,-3 50,9.5 43.75,-3 37.5,-3 43.75,15.75 0,97 z m -50,-43.75 18.75,37.5 -37.5,0 z" stroke="#fff" stroke-width="12.5" stroke-linejoin="round" transform="matrix(.16 0 0 .16 37 795.842)" opacity=".3" fill="none"/>
    <path d="M 100,97 56.25,15.75 62.5,-3 56.25,-3 50,9.5 43.75,-3 37.5,-3 43.75,15.75 0,97 z m -50,-43.75 18.75,37.5 -37.5,0 z" fill="#747474" transform="matrix(.16 0 0 .16 37 795.842)"/>
</svg>
