<svg xmlns="http://www.w3.org/2000/svg" width="18" height="18" viewBox="0.0 812.3622 18.0 18.0">
    <g>
        <path d="M 5.8230674,815.72765"/>
        <path d="M 4.2801914,824.44411"/>
        <g fill="#747474" stroke="#fff" opacity=".3" stroke-width="2" stroke-linejoin="round">
            <path d="m 6.19275,813.3622 c -1.364157,-0.003 -2.46571,1.12512 -2.46875,2.5 0.003,1.37792 1.104593,2.49776 2.46875,2.5 0.9023143,-10e-4 1.6957214,-0.51786 2.125,-1.25 l 1.03125,0 0.78125,-0.8125 0.59375,0.625 0.59375,-0.59375 0.59375,0.59375 0.59375,-0.59375 0.625,0.59375 1.03125,-1.03125 c 0.1496,-0.15584 0.15328,-0.25137 0,-0.40625 l -0.84375,-0.875 -5,0 c -0.4270202,-0.74001 -1.2158614,-1.25192 -2.125,-1.25 z m -1.0625,1.8125 c 0.358559,-0.002 0.65353,0.28857 0.65625,0.65625 -0.0026,0.36256 -0.297531,0.68414 -0.65625,0.6875 -0.36464,-0.003 -0.65961,-0.32494 -0.65625,-0.6875 -0.0034,-0.36768 0.29161,-0.65801 0.65625,-0.65625 z"/>
            <path d="m 13.910978,822.7569 -0.98392,-2.54447 c -0.183686,-0.48704 -0.58588,-0.90144 -1.346822,-0.90496 H 10.193164 7.8223307 6.4111392 c -0.7572671,0.003 -1.1593008,0.41776 -1.3466615,0.90496 l -0.9839208,2.54447 c -0.3905333,0.0504 -1.0818329,0.51024 -1.0805551,1.38128 v 3.23951 H 3.959644 v 1.03392 c -0.0022,1.27504 1.79869,1.25984 1.7982108,0 v -1.03392 h 3.2418271 3.2338401 v 1.03392 c 0.004,1.25984 1.805079,1.27504 1.806197,0 v -1.03392 H 15 v -3.23951 c -0.0032,-0.87104 -0.695133,-1.33088 -1.089022,-1.38128 z m -9.0239568,2.6656 c -0.4600148,0.002 -0.8326596,-0.38304 -0.8305832,-0.85584 -0.0021,-0.476 0.3705684,-0.86064 0.8305832,-0.8568 0.4587371,-0.004 0.8312211,0.38096 0.8305822,0.8568 7.987e-4,0.4728 -0.3718451,0.85728 -0.8305822,0.85584 z m 4.1128204,-2.68976 h -0.00819 -3.8869663 l 0.7419343,-2.00351 c 0.089447,-0.28432 0.2285694,-0.48784 0.5564894,-0.4928 h 2.5885426 0.00819 2.5966874 c 0.323288,0.005 0.46257,0.20848 0.55617,0.4928 l 0.742254,2.00351 H 8.9998416 z m 4.1128194,2.68976 c -0.463369,0.002 -0.836013,-0.38304 -0.838888,-0.85584 0.0029,-0.476 0.375519,-0.86064 0.838888,-0.8568 0.455223,-0.004 0.827707,0.38096 0.830423,0.8568 -0.0027,0.4728 -0.3752,0.85728 -0.830423,0.85584 z"/>
        </g>
        <g fill="#747474">
            <path d="m 6.19275,813.3622 c -1.364157,-0.003 -2.46571,1.12512 -2.46875,2.5 0.003,1.37792 1.104593,2.49776 2.46875,2.5 0.9023143,-10e-4 1.6957214,-0.51786 2.125,-1.25 l 1.03125,0 0.78125,-0.8125 0.59375,0.625 0.59375,-0.59375 0.59375,0.59375 0.59375,-0.59375 0.625,0.59375 1.03125,-1.03125 c 0.1496,-0.15584 0.15328,-0.25137 0,-0.40625 l -0.84375,-0.875 -5,0 c -0.4270202,-0.74001 -1.2158614,-1.25192 -2.125,-1.25 z m -1.0625,1.8125 c 0.358559,-0.002 0.65353,0.28857 0.65625,0.65625 -0.0026,0.36256 -0.297531,0.68414 -0.65625,0.6875 -0.36464,-0.003 -0.65961,-0.32494 -0.65625,-0.6875 -0.0034,-0.36768 0.29161,-0.65801 0.65625,-0.65625 z"/>
            <path d="m 13.910978,822.7569 -0.98392,-2.54447 c -0.183686,-0.48704 -0.58588,-0.90144 -1.346822,-0.90496 H 10.193164 7.8223307 6.4111392 c -0.7572671,0.003 -1.1593008,0.41776 -1.3466615,0.90496 l -0.9839208,2.54447 c -0.3905333,0.0504 -1.0818329,0.51024 -1.0805551,1.38128 v 3.23951 H 3.959644 v 1.03392 c -0.0022,1.27504 1.79869,1.25984 1.7982108,0 v -1.03392 h 3.2418271 3.2338401 v 1.03392 c 0.004,1.25984 1.805079,1.27504 1.806197,0 v -1.03392 H 15 v -3.23951 c -0.0032,-0.87104 -0.695133,-1.33088 -1.089022,-1.38128 z m -9.0239568,2.6656 c -0.4600148,0.002 -0.8326596,-0.38304 -0.8305832,-0.85584 -0.0021,-0.476 0.3705684,-0.86064 0.8305832,-0.8568 0.4587371,-0.004 0.8312211,0.38096 0.8305822,0.8568 7.987e-4,0.4728 -0.3718451,0.85728 -0.8305822,0.85584 z m 4.1128204,-2.68976 h -0.00819 -3.8869663 l 0.7419343,-2.00351 c 0.089447,-0.28432 0.2285694,-0.48784 0.5564894,-0.4928 h 2.5885426 0.00819 2.5966874 c 0.323288,0.005 0.46257,0.20848 0.55617,0.4928 l 0.742254,2.00351 H 8.9998416 z m 4.1128194,2.68976 c -0.463369,0.002 -0.836013,-0.38304 -0.838888,-0.85584 0.0029,-0.476 0.375519,-0.86064 0.838888,-0.8568 0.455223,-0.004 0.827707,0.38096 0.830423,0.8568 -0.0027,0.4728 -0.3752,0.85728 -0.830423,0.85584 z"/>
        </g>
        <path d="M 12.519853,824.44411"/>
        <path d="M 4.7406704,815.71949"/>
        <rect height="18" rx=".497" ry=".033" transform="translate(0 1028.362)" width="18" y="-216" opacity=".3" fill="none"/>
    </g>
</svg>
