<svg xmlns="http://www.w3.org/2000/svg" width="18" height="18" viewBox="36.0 812.36218 18.0 18.0">
    <g>
        <path d="m 42.75,-212.21875 c -0.836862,0 -1.5,0.66314 -1.5,1.5 0,0.0735 0.02113,0.14801 0.03125,0.21875 L 39,-209 l -2,3 0,5 2,0 0,-5 2.71875,-3.625 c 0.271328,0.25594 0.628818,0.4375 1.03125,0.4375 0.836862,0 1.53125,-0.69439 1.53125,-1.53125 0,-0.83686 -0.694388,-1.5 -1.53125,-1.5 z M 45,-215 l -1,1 7,5 -9,2 0,2 c -1,0 -1,2 0,2 l 2,0 c 1,-2 1,-2 3,-2 2,0 2,0 3,2 l 3,0 0,-6 0,-2 -1.013246,1.24007 z m 4.156178,12.92191 c 0,1.14769 -0.930392,2.07809 -2.078089,2.07809 C 45.930392,-200 45,-200.9304 45,-202.07809 c 0,-1.1477 0.930392,-2.07809 2.078089,-2.07809 1.147697,0 2.078089,0.93039 2.078089,2.07809 z" style="text-indent:0;text-align:start;line-height:normal;text-transform:none;block-progression:tb;-inkscape-font-specification:Sans" transform="translate(0 1028.362)" color="#000" fill="#747474" stroke="#fff" stroke-width="2" overflow="visible" enable-background="accumulate" font-family="Sans" stroke-linejoin="round" opacity=".3"/>
        <path d="m 42.75,-212.21875 c -0.836862,0 -1.5,0.66314 -1.5,1.5 0,0.0735 0.02113,0.14801 0.03125,0.21875 L 39,-209 l -2,3 0,5 2,0 0,-5 2.71875,-3.625 c 0.271328,0.25594 0.628818,0.4375 1.03125,0.4375 0.836862,0 1.53125,-0.69439 1.53125,-1.53125 0,-0.83686 -0.694388,-1.5 -1.53125,-1.5 z M 45,-215 l -1,1 7,5 -9,2 0,2 c -1,0 -1,2 0,2 l 2,0 c 1,-2 1,-2 3,-2 2,0 2,0 3,2 l 3,0 0,-6 0,-2 -1.013246,1.24007 z m 4.156178,12.92191 c 0,1.14769 -0.930392,2.07809 -2.078089,2.07809 C 45.930392,-200 45,-200.9304 45,-202.07809 c 0,-1.1477 0.930392,-2.07809 2.078089,-2.07809 1.147697,0 2.078089,0.93039 2.078089,2.07809 z" style="text-indent:0;text-align:start;line-height:normal;text-transform:none;block-progression:tb;-inkscape-font-specification:Sans" transform="translate(0 1028.362)" color="#000" fill="#747474" overflow="visible" enable-background="accumulate" font-family="Sans"/>
        <rect height="18" rx=".497" ry=".033" width="18" x="36" y="812.362" opacity=".3" fill="none"/>
    </g>
</svg>
