<svg xmlns="http://www.w3.org/2000/svg" width="18" height="18" viewBox="36.0 848.3622 18.0 18.0">
    <g transform="translate(0 1028.362)">
        <path d="M 41.0625 -177 L 37 -175 L 38 -171 L 41 -173 L 41 -165 L 49 -165 L 49 -173 L 52 -171 L 53 -175 L 49.0625 -177 L 47.9375 -177 C 47.921414 -175.30242 46.607126 -173.9375 45 -173.9375 C 43.392874 -173.9375 42.078586 -175.30242 42.0625 -177 L 41.0625 -177 z" fill="#fff" stroke="#fff" opacity=".3" stroke-width="2" stroke-linejoin="round"/>
        <path d="M 41.0625 -177 L 37 -175 L 38 -171 L 41 -173 L 41 -165 L 49 -165 L 49 -173 L 52 -171 L 53 -175 L 49.0625 -177 L 47.9375 -177 C 47.921414 -175.30242 46.607126 -173.9375 45 -173.9375 C 43.392874 -173.9375 42.078586 -175.30242 42.0625 -177 L 41.0625 -177 z" fill="#747474"/>
        <rect height="18" width="18" x="36" y="-180" opacity=".3" fill="none"/>
    </g>
</svg>
