<svg xmlns="http://www.w3.org/2000/svg" width="18" height="18" viewBox="36.0 794.3622 18.0 18.0">
    <g transform="translate(36 -54)">
        <g transform="matrix(1.009 0 0 .999 -.073 1.02)" opacity=".3" fill="#fff" stroke="#fff" stroke-width="1.992" stroke-linejoin="round">
            <g stroke-width="12.433">
                <path d="m 9.29,85.522 c 0.761,0.755 1.905,0.843 2.556,0.198 L 45.352,52.407 c 0.652,-0.646 0.563,-1.783 -0.198,-2.54 C 44.393,49.111 43.25,49.023 42.599,49.67 L 9.092,82.983 c -0.651,0.644 -0.563,1.784 0.198,2.539 z" transform="matrix(.16 0 0 .16 1.063 849.487)"/>
                <path d="M 49.756,56.789 16.251,90.1 c -0.651,0.646 -0.562,1.784 0.198,2.543 0.76,0.753 1.905,0.844 2.556,0.195 L 52.513,59.526 c 0.65,-0.646 0.561,-1.784 -0.197,-2.541 -0.763,-0.755 -1.907,-0.845 -2.56,-0.196 z" transform="matrix(.16 0 0 .16 1.063 849.487)"/>
            </g>
            <path d="m 13.95696,862.3058 c -0.567341,0.56413 -0.567341,1.47884 0,2.04329 0.567981,0.56413 1.487647,0.56413 2.05563,0 0.567341,-0.5643 0.567341,-1.47948 0,-2.04329 -0.567983,-0.56446 -1.487808,-0.56446 -2.05563,0 z" stroke-width="1.992"/>
            <path d="m 13.717911,862.06754 c 0.593616,-0.59073 0.593616,-1.54788 0,-2.13846 l -5.8318693,-5.7971 c -0.5939378,-0.59072 -1.5570248,-0.59072 -2.1509615,0 -0.5939379,0.59057 -0.5939379,1.5479 0,2.13847 l 5.8310688,5.79727 c 0.594738,0.59025 1.557183,0.59025 2.151762,0 z m -7.6961962,-5.791 c -0.5692641,-0.5659 -0.6115622,-1.44071 -0.095171,-1.95421 0.5165514,-0.51367 1.3964828,-0.47121 1.9657469,0.0946 l 5.5870513,5.55421 c 0.568944,0.56606 0.611882,1.44055 0.09549,1.95452 -0.51703,0.51351 -1.396642,0.47073 -1.965906,-0.0951 l -5.587212,-5.55388 z" stroke-width="1.992"/>
            <path d="m 92.153,3.526 -22.703,15.835 -2.206,8.176 -9.893,9.836 7.535,7.489 9.892,-9.836 8.224,-2.191 15.926,-22.571 z M 21.046004,36.940945 79.430008,94.980988 c 4.447999,4.423027 11.661996,4.423027 16.110002,0 4.446987,-4.420967 4.446987,-11.591955 0,-16.015981 L 37.157006,20.925026 c 0.711999,-5.508031 -1.041,-11.2700247 -5.296,-15.5000054 -5.107003,-5.07799903 -12.434005,-6.5840477 -18.872001,-4.5490408 3.752001,3.7269866 6.652006,6.6790417 7.565001,7.5849802 3.262,3.24409 4.035005,7.733026 1.728,10.026052 l -3.683999,3.66295 C 16.291002,24.442988 11.775008,23.674985 8.5130076,20.432018 7.6020105,19.525019 4.6330094,16.642992 0.88200462,12.911012 -1.1649964,19.312998 0.34998186,26.59602 5.4580089,31.674019 9.71301,35.904936 15.507007,37.64797 21.046004,36.940945 z m 72.261003,55.820042 c -3.545006,3.520958 -9.285005,3.520958 -12.829999,0 -3.540999,-3.52202 -3.540999,-9.232022 0,-12.752981 3.544994,-3.522019 9.284993,-3.522019 12.829999,0 3.540999,3.517963 3.540999,9.230025 0,12.752981 z m -72.411,5.841072 29.442997,-29.272081 -17.60097,-17.4985 -29.4429981,29.272018 c -2.85100308,2.832033 -1.220003,9.045966 3.6409977,13.876993 4.8599984,4.833024 11.1089964,6.455041 13.9600004,3.622006 z" transform="matrix(.16 0 0 .16 1.063 849.487)" stroke-width="12.433"/>
        </g>
        <g transform="matrix(1.009 0 0 .999 -.073 1.02)">
            <g fill="none">
                <path d="m 9.29,85.522 c 0.761,0.755 1.905,0.843 2.556,0.198 L 45.352,52.407 c 0.652,-0.646 0.563,-1.783 -0.198,-2.54 C 44.393,49.111 43.25,49.023 42.599,49.67 L 9.092,82.983 c -0.651,0.644 -0.563,1.784 0.198,2.539 z" transform="matrix(.16 0 0 .16 1.063 849.487)"/>
                <path d="M 49.756,56.789 16.251,90.1 c -0.651,0.646 -0.562,1.784 0.198,2.543 0.76,0.753 1.905,0.844 2.556,0.195 L 52.513,59.526 c 0.65,-0.646 0.561,-1.784 -0.197,-2.541 -0.763,-0.755 -1.907,-0.845 -2.56,-0.196 z" transform="matrix(.16 0 0 .16 1.063 849.487)"/>
            </g>
            <path d="m 13.95696,862.3058 c -0.567341,0.56413 -0.567341,1.47884 0,2.04329 0.567981,0.56413 1.487647,0.56413 2.05563,0 0.567341,-0.5643 0.567341,-1.47948 0,-2.04329 -0.567983,-0.56446 -1.487808,-0.56446 -2.05563,0 z" fill="none"/>
            <path d="m 13.717911,862.06754 c 0.593616,-0.59073 0.593616,-1.54788 0,-2.13846 l -5.8318693,-5.7971 c -0.5939378,-0.59072 -1.5570248,-0.59072 -2.1509615,0 -0.5939379,0.59057 -0.5939379,1.5479 0,2.13847 l 5.8310688,5.79727 c 0.594738,0.59025 1.557183,0.59025 2.151762,0 z m -7.6961962,-5.791 c -0.5692641,-0.5659 -0.6115622,-1.44071 -0.095171,-1.95421 0.5165514,-0.51367 1.3964828,-0.47121 1.9657469,0.0946 l 5.5870513,5.55421 c 0.568944,0.56606 0.611882,1.44055 0.09549,1.95452 -0.51703,0.51351 -1.396642,0.47073 -1.965906,-0.0951 l -5.587212,-5.55388 z" fill="none"/>
            <path d="m 92.153,3.526 -22.703,15.835 -2.206,8.176 -9.893,9.836 7.535,7.489 9.892,-9.836 8.224,-2.191 15.926,-22.571 z M 21.046004,36.940945 79.430008,94.980988 c 4.447999,4.423027 11.661996,4.423027 16.110002,0 4.446987,-4.420967 4.446987,-11.591955 0,-16.015981 L 37.157006,20.925026 c 0.711999,-5.508031 -1.041,-11.2700247 -5.296,-15.5000054 -5.107003,-5.07799903 -12.434005,-6.5840477 -18.872001,-4.5490408 3.752001,3.7269866 6.652006,6.6790417 7.565001,7.5849802 3.262,3.24409 4.035005,7.733026 1.728,10.026052 l -3.683999,3.66295 C 16.291002,24.442988 11.775008,23.674985 8.5130076,20.432018 7.6020105,19.525019 4.6330094,16.642992 0.88200462,12.911012 -1.1649964,19.312998 0.34998186,26.59602 5.4580089,31.674019 9.71301,35.904936 15.507007,37.64797 21.046004,36.940945 z m 72.261003,55.820042 c -3.545006,3.520958 -9.285005,3.520958 -12.829999,0 -3.540999,-3.52202 -3.540999,-9.232022 0,-12.752981 3.544994,-3.522019 9.284993,-3.522019 12.829999,0 3.540999,3.517963 3.540999,9.230025 0,12.752981 z m -72.411,5.841072 29.442997,-29.272081 -17.60097,-17.4985 -29.4429981,29.272018 c -2.85100308,2.832033 -1.220003,9.045966 3.6409977,13.876993 4.8599984,4.833024 11.1089964,6.455041 13.9600004,3.622006 z" transform="matrix(.16 0 0 .16 1.063 849.487)" fill="#747474"/>
        </g>
    </g>
</svg>
