<svg xmlns="http://www.w3.org/2000/svg" width="18" height="18" viewBox="72.0 830.3622 18.0 18.0">
    <g>
        <path d="m 80.837056,839.93983 c 1.04748,0 1.533421,0.79506 1.635621,1.9243 0.02436,0.2702 -0.0011,0.66402 -0.0357,1.12015 -0.11774,1.5155 -0.25312,3.37792 0.756001,3.37792 0.853441,0 1.291922,-1.6373 1.544902,-3.50379 0.244301,-1.84758 -0.01442,-2.7671 0.112841,-3.5875 0.24262,-1.55442 1.599502,-2.94812 1.180341,-4.92997 -0.23212,-1.09942 -0.837481,-1.61658 -1.437242,-1.834 -1.381522,-0.50288 -2.273463,0.46606 -3.756764,0.46606 -1.483302,0 -2.375244,-0.96894 -3.757466,-0.46606 -0.599201,0.21742 -1.204561,0.73458 -1.437242,1.834 -0.4186,1.98185 0.937722,3.37555 1.180902,4.92997 0.12712,0.8204 -0.13146,1.73978 0.11284,3.5875 0.25298,1.86635 0.691601,3.50379 1.544902,3.50379 1.008702,0 0.873882,-1.86242 0.756001,-3.37778 -0.03472,-0.45613 -0.05992,-0.84995 -0.0357,-1.12015 0.101781,-1.12938 0.594161,-1.92444 1.635763,-1.92444 z" stroke="#fff" opacity=".3" stroke-width="2" stroke-linejoin="round" fill="none"/>
        <path d="m 80.837056,839.93983 c 1.04748,0 1.533421,0.79506 1.635621,1.9243 0.02436,0.2702 -0.0011,0.66402 -0.0357,1.12015 -0.11774,1.5155 -0.25312,3.37792 0.756001,3.37792 0.853441,0 1.291922,-1.6373 1.544902,-3.50379 0.244301,-1.84758 -0.01442,-2.7671 0.112841,-3.5875 0.24262,-1.55442 1.599502,-2.94812 1.180341,-4.92997 -0.23212,-1.09942 -0.837481,-1.61658 -1.437242,-1.834 -1.381522,-0.50288 -2.273463,0.46606 -3.756764,0.46606 -1.483302,0 -2.375244,-0.96894 -3.757466,-0.46606 -0.599201,0.21742 -1.204561,0.73458 -1.437242,1.834 -0.4186,1.98185 0.937722,3.37555 1.180902,4.92997 0.12712,0.8204 -0.13146,1.73978 0.11284,3.5875 0.25298,1.86635 0.691601,3.50379 1.544902,3.50379 1.008702,0 0.873882,-1.86242 0.756001,-3.37778 -0.03472,-0.45613 -0.05992,-0.84995 -0.0357,-1.12015 0.101781,-1.12938 0.594161,-1.92444 1.635763,-1.92444 z" fill="#747474"/>
        <rect height="18" transform="translate(0 1028.362)" width="18" x="72" y="-198" opacity=".3" fill="none"/>
    </g>
</svg>
