<svg xmlns="http://www.w3.org/2000/svg" width="18" height="18" viewBox="0.0 866.36218 18.0 18.0">
    <rect height="18" width="18" y="866.362" opacity=".3" fill="none"/>
    <path d="m 3,875.3622 1,8 4,0 1,-8 z m 1,1 4,0 -0.3,2 -3.4,0 m 0.7,-4 0,-2 c 0,-1 0.9999999,-2 2,-2 l 3,0 0,-2 -2,0 c -1,0 -1,-1 0,-1 l 5,0 c 1,0 1,1 0,1 l -2,0 0,2 4,0 0,2 c 0,0 -3.933324,0 -7,0 -0.518943,0 -0.939744,0.3005 -0.939744,0.8196 L 7,874.3622 z" fill="#fff" opacity=".3" stroke="#fff" stroke-width="2" stroke-linejoin="round"/>
    <path d="m 3,875.3622 1,8 4,0 1,-8 z m 1,1 4,0 -0.3,2 -3.4,0 m 0.7,-4 0,-2 c 0,-1 0.9999999,-2 2,-2 l 3,0 0,-2 -2,0 c -1,0 -1,-1 0,-1 l 5,0 c 1,0 1,1 0,1 l -2,0 0,2 4,0 0,2 c 0,0 -3.933324,0 -7,0 -0.518943,0 -0.939744,0.3005 -0.939744,0.8196 L 7,874.3622 z" fill="#747474"/>
</svg>
