<svg xmlns="http://www.w3.org/2000/svg" width="18" height="18" viewBox="0.0 920.36218 18.0 18.0">
    <g>
        <path d="m 6,-105 c -2,0 -3,1 -3,3 l 0,6 c 0,2 1,3 3,3 l 6,0 c 2,0 3,-1 3,-3 l 0,-6 c 0,-2 -1,-3 -3,-3 z m 6,2 c 0.828427,0 1,0.17157 1,1 0,0.82843 -0.171573,1 -1,1 -0.828427,0 -1,-0.17157 -1,-1 0,-0.82843 0.171573,-1 1,-1 z m -3,3 c 0.8284271,0 1,0.171573 1,1 0,0.828427 -0.1715729,1 -1,1 -0.8284271,0 -1,-0.171573 -1,-1 0,-0.828427 0.1715729,-1 1,-1 z m -3,3 c 0.8284271,0 1,0.171573 1,1 0,0.828427 -0.1715729,1 -1,1 -0.8284271,0 -1,-0.171573 -1,-1 0,-0.828427 0.1715729,-1 1,-1 z" transform="translate(0 1028.362)" stroke="#fff" stroke-width="2" stroke-linejoin="round" fill="none" opacity=".3"/>
        <path d="m 6,-105 c -2,0 -3,1 -3,3 l 0,6 c 0,2 1,3 3,3 l 6,0 c 2,0 3,-1 3,-3 l 0,-6 c 0,-2 -1,-3 -3,-3 z m 6,2 c 0.828427,0 1,0.17157 1,1 0,0.82843 -0.171573,1 -1,1 -0.828427,0 -1,-0.17157 -1,-1 0,-0.82843 0.171573,-1 1,-1 z m -3,3 c 0.8284271,0 1,0.171573 1,1 0,0.828427 -0.1715729,1 -1,1 -0.8284271,0 -1,-0.171573 -1,-1 0,-0.828427 0.1715729,-1 1,-1 z m -3,3 c 0.8284271,0 1,0.171573 1,1 0,0.828427 -0.1715729,1 -1,1 -0.8284271,0 -1,-0.171573 -1,-1 0,-0.828427 0.1715729,-1 1,-1 z" transform="translate(0 1028.362)" fill="#747474"/>
        <rect height="18" rx=".995" ry=".033" width="18" y="920.362" opacity=".3" fill="none"/>
    </g>
</svg>
