<svg xmlns="http://www.w3.org/2000/svg" width="18" height="18" viewBox="102.0 992.3622 18.0 18.0">
    <g>
        <path d="m 115,1001.3622 c 0,-2 -3.5,-2.5 -3.5,-2.5 l 0,-1.5 4.5,0 -1.5,-1.5 1.5,-1.5 -4.5,0 0,-1 -1,0 0,5.5 c 0,0 -3.5,0.5 -3.5,2.5 0,0 -1,0 -1,1 l 10,0 c 0,-1 -1,-1 -1,-1 z m -11,2 14,0 0,6 -5,0 0,-1 -4,0 0,1 -5,0 z" stroke="#fff" stroke-width="2" stroke-linejoin="round" opacity=".3" fill="none"/>
        <path d="m 115,1001.3622 c 0,-2 -3.5,-2.5 -3.5,-2.5 l 0,-1.5 4.5,0 -1.5,-1.5 1.5,-1.5 -4.5,0 0,-1 -1,0 0,5.5 c 0,0 -3.5,0.5 -3.5,2.5 0,0 -1,0 -1,1 l 10,0 c 0,-1 -1,-1 -1,-1 z m -11,2 14,0 0,6 -5,0 0,-1 -4,0 0,1 -5,0 z" fill="#747474"/>
        <rect height="18" transform="translate(0 1028.362)" width="18" x="102" y="-36" opacity=".3" fill="none"/>
    </g>
</svg>
