<svg xmlns="http://www.w3.org/2000/svg" width="12" height="12" viewBox="120.0 998.36218 12.0 12.0">
    <g>
        <path d="m 126.5,1002.3622 0,-1 3.5,0 -2,-1 2,-1 -4.5,0 0,3 c 0,0 -2.5,0 -2.5,2 l 6,0 c 0,-2 -2.5,-2 -2.5,-2 z m -5.5,3 10,0 0,4 -3,0 0,-1 -4,0 0,1 -3,0 z" stroke="#fff" opacity=".3" stroke-width="2" stroke-linejoin="round" fill="none"/>
        <path d="m 126.5,1002.3622 0,-1 3.5,0 -2,-1 2,-1 -4.5,0 0,3 c 0,0 -2.5,0 -2.5,2 l 6,0 c 0,-2 -2.5,-2 -2.5,-2 z m -5.5,3 10,0 0,4 -3,0 0,-1 -4,0 0,1 -3,0 z" fill="#525252"/>
        <rect height="12" width="12" x="120" y="998.362" opacity=".3" fill="none"/>
    </g>
</svg>
