<svg xmlns="http://www.w3.org/2000/svg" width="18" height="18" viewBox="36.0 794.3622 18.0 18.0">
    <path d="m 8.96875,831.3622 c -1.9347185,0 -3.6794342,1.2873 -4.96875,3 l 0,10 -3,0 0,3 16,0 0,-3 -3,0 0,-10 c -1.3055,-1.7453 -3.078667,-3.0054 -5.03125,-3 z m -0.96875,2 2,0 0,2 2,0 0,2 -2,0 0,6 -2,0 0,-6 -2,0 0,-2 2,0 z" opacity=".3" fill="#fff" stroke="#fff" stroke-width="2" stroke-linejoin="round" transform="translate(36 -36)"/>
    <path d="m 8.96875,-197 c -1.9347185,0.005 -3.6794342,1.28729 -4.96875,3 l 0,10 -3,0 0,3 16,0 0,-3 -3,0 0,-10 c -1.3055,-1.74534 -3.078667,-3.00538 -5.03125,-3 z M 8,-195 l 2,0 0,2 2,0 0,2 -2,0 0,6 -2,0 0,-6 -2,0 0,-2 2,0 z" transform="translate(36 -36) translate(0 1028.362)" fill="#747474"/>
</svg>
