<svg xmlns="http://www.w3.org/2000/svg" width="18" height="18" viewBox="0.0 938.3622 18.0 18.0">
    <g transform="translate(-.001 .222)">
        <path d="m 6,939.35893 0,11.0938 c -0.419737,-0.3189 -0.935466,-0.5313 -1.5,-0.5313 -1.374789,0 -2.5,1.1252 -2.5,2.5 0,1.3748 1.125211,2.5 2.5,2.5 1.288865,0 2.340096,-0.9936 2.46875,-2.25 l 0.03125,0 c 0.0172,0 0.01427,0 0.03125,0 0.156724,1.227 1.201035,2.1875 2.46875,2.1875 1.37479,0 2.5,-1.1252 2.5,-2.5 0,-1.3748 -1.12521,-2.5 -2.5,-2.5 -0.564535,0 -1.080263,0.2124 -1.5,0.5313 l 0,-11.0313 z m 3.5,11.5 c 0.834349,0 1.5,0.6657 1.5,1.5 0,0.8343 -0.665651,1.5 -1.5,1.5 -0.834349,0 -1.5,-0.6657 -1.5,-1.5 0,-0.8343 0.665651,-1.5 1.5,-1.5 z m -5,0.062 c 0.834349,0 1.5,0.6657 1.5,1.5 0,0.8343 -0.665651,1.5 -1.5,1.5 -0.834349,0 -1.5,-0.6657 -1.5,-1.5 0,-0.8343 0.665651,-1.5 1.5,-1.5 z m 5.499965,-11.56 8e-6,1.9995 4.000665,0 5e-6,0.9998 -4.000665,0 4e-6,0.9997 4.000665,0 5e-6,0.9998 -4.000665,0 4e-6,0.9997 4.000665,0 4e-6,0.9998 -4.000664,0 4e-6,0.9997 4.000665,0 -0.0016,6.9986 1.99934,0 c -0.0058,-10.7928 0.0074,-10.845 0.0016,-14.9966 l -1.99934,0 -4.000665,0 z" opacity=".3" fill="#fff" stroke="#fff" stroke-width="2" stroke-linejoin="round"/>
        <path d="m 6,939.3622 0,11.0938 c -0.419737,-0.3189 -0.935466,-0.5313 -1.5,-0.5313 -1.374789,0 -2.5,1.1252 -2.5,2.5 0,1.3748 1.125211,2.5 2.5,2.5 1.288865,0 2.340096,-0.9936 2.46875,-2.25 l 0.03125,0 c 0.0172,0 0.01427,0 0.03125,0 0.156724,1.227 1.201035,2.1875 2.46875,2.1875 1.37479,0 2.5,-1.1252 2.5,-2.5 0,-1.3748 -1.12521,-2.5 -2.5,-2.5 -0.564535,0 -1.080263,0.2124 -1.5,0.5313 l 0,-11.0313 z m 3.5,11.5 c 0.834349,0 1.5,0.6657 1.5,1.5 0,0.8343 -0.665651,1.5 -1.5,1.5 -0.834349,0 -1.5,-0.6657 -1.5,-1.5 0,-0.8343 0.665651,-1.5 1.5,-1.5 z m -5,0.062 c 0.834349,0 1.5,0.6657 1.5,1.5 0,0.8343 -0.665651,1.5 -1.5,1.5 -0.834349,0 -1.5,-0.6657 -1.5,-1.5 0,-0.8343 0.665651,-1.5 1.5,-1.5 z m 5.499965,-11.56 8e-6,1.9995 4.000665,-0.002 5e-6,0.9998 -4.000665,0.002 4e-6,0.9997 4.000665,-0.002 5e-6,0.9998 -4.000665,0.002 4e-6,0.9997 4.000665,-0.002 4e-6,0.9998 -4.000664,0.002 4e-6,0.9997 4.000665,-0.002 -0.0016,6.9986 1.99934,0 c -0.0058,-10.7928 0.0074,-10.845 0.0016,-14.9966 l -1.99934,0 L 10,939.3642 z" fill="#747474"/>
    </g>
</svg>
