<svg xmlns="http://www.w3.org/2000/svg" width="18" height="18" viewBox="0.0 776.3622 18.0 18.0">
    <g transform="translate(0 1028.362)">
        <path d="M 9 -249 C 5.6862915 -249 3 -246.31371 3 -243 C 3 -239.6863 5.6862915 -237 9 -237 C 12.313709 -237 15 -239.6863 15 -243 C 15 -246.31371 12.313709 -249 9 -249 z M 8 -247 L 10 -247 L 10 -245 L 8 -245 L 8 -247 z M 7 -244 L 8 -244 L 10 -244 L 10 -240 L 11 -240 L 11 -239 L 8 -239 L 7 -239 L 7 -240 L 8 -240 L 8 -243 L 7 -243 L 7 -244 z" stroke="#fff" opacity=".3" stroke-width="2" stroke-linejoin="round" fill="none"/>
        <path d="M 9 -249 C 5.6862915 -249 3 -246.31371 3 -243 C 3 -239.6863 5.6862915 -237 9 -237 C 12.313709 -237 15 -239.6863 15 -243 C 15 -246.31371 12.313709 -249 9 -249 z M 8 -247 L 10 -247 L 10 -245 L 8 -245 L 8 -247 z M 7 -244 L 8 -244 L 10 -244 L 10 -240 L 11 -240 L 11 -239 L 8 -239 L 7 -239 L 7 -240 L 8 -240 L 8 -243 L 7 -243 L 7 -244 z" fill="#747474"/>
        <rect height="18" width="18" y="-252" opacity=".3" fill="none"/>
    </g>
</svg>
