<svg xmlns="http://www.w3.org/2000/svg" width="18" height="18" viewBox="36.0 974.3622 18.0 18.0">
    <g>
        <path d="M 44.627348,977.6214"/>
        <g>
            <path d="m 42.620241,985.49799 1.796629,1.79646 -1.315353,1.31536 1.351993,1.35231 c 0.794714,0.79632 -0.304959,1.93663 -1.125594,1.11631 l -2.141587,-2.22319 c -0.457116,-0.47023 -0.583836,-1.33439 -0.09056,-1.82382 0,-0.004 1.524471,-1.53343 1.524471,-1.53343 l 0,0 z m 2.380001,-0.88928 -2.354242,0 0,-1.73359 -2.145026,1.84223 c -0.881155,0.8264 -2.074,-0.23168 -1.190114,-1.06159 l 3.221805,-3.03087 c 0.263068,-0.24127 0.549336,-0.39615 1.006377,-0.39951 l 1.4612,0 0,0 1.431856,0 c 0.451411,0.003 0.757812,0.1536 1.025486,0.39951 l 3.260701,3.06703 c 0.838846,0.78335 -0.386241,1.85167 -1.190115,1.05248 l -2.20317,-1.87824 0,1.74239 -2.324758,0 z m -8.2e-5,-4.72797 c 1.247352,-0.002 2.259346,-1.01279 2.259346,-2.25934 0,-1.25023 -1.011834,-2.26191 -2.259346,-2.25919 -1.248953,-0.003 -2.260626,1.00896 -2.259666,2.25919 -9.25e-4,1.24655 1.010713,2.25806 2.259666,2.25934 l 0,0 z m 2.374771,5.61725 -1.796309,1.79646 1.324472,1.31536 -1.351672,1.35231 c -0.800155,0.79632 0.299678,1.93663 1.124633,1.11631 l 2.132467,-2.22319 c 0.461917,-0.47023 0.588476,-1.33439 0.100159,-1.82382 -0.0049,-0.004 -1.53375,-1.53343 -1.53375,-1.53343 l 0,0 z" opacity=".3" fill="#fff" stroke="#fff" stroke-width="2" stroke-linejoin="round"/>
            <path d="m 42.620241,985.49799 1.796629,1.79646 -1.315353,1.31536 1.351993,1.35231 c 0.794714,0.79632 -0.304959,1.93663 -1.125594,1.11631 l -2.141587,-2.22319 c -0.457116,-0.47023 -0.583836,-1.33439 -0.09056,-1.82382 0,-0.004 1.524471,-1.53343 1.524471,-1.53343 l 0,0 z m 2.380001,-0.88928 -2.354242,0 0,-1.73359 -2.145026,1.84223 c -0.881155,0.8264 -2.074,-0.23168 -1.190114,-1.06159 l 3.221805,-3.03087 c 0.263068,-0.24127 0.549336,-0.39615 1.006377,-0.39951 l 1.4612,0 0,0 1.431856,0 c 0.451411,0.003 0.757812,0.1536 1.025486,0.39951 l 3.260701,3.06703 c 0.838846,0.78335 -0.386241,1.85167 -1.190115,1.05248 l -2.20317,-1.87824 0,1.74239 -2.324758,0 z m -8.2e-5,-4.72797 c 1.247352,-0.002 2.259346,-1.01279 2.259346,-2.25934 0,-1.25023 -1.011834,-2.26191 -2.259346,-2.25919 -1.248953,-0.003 -2.260626,1.00896 -2.259666,2.25919 -9.25e-4,1.24655 1.010713,2.25806 2.259666,2.25934 l 0,0 z m 2.374771,5.61725 -1.796309,1.79646 1.324472,1.31536 -1.351672,1.35231 c -0.800155,0.79632 0.299678,1.93663 1.124633,1.11631 l 2.132467,-2.22319 c 0.461917,-0.47023 0.588476,-1.33439 0.100159,-1.82382 -0.0049,-0.004 -1.53375,-1.53343 -1.53375,-1.53343 l 0,0 z" fill="#747474"/>
        </g>
        <rect height="18" transform="translate(0 1028.362)" width="18" x="36" y="-54" opacity=".3" fill="none"/>
    </g>
</svg>
