<svg xmlns="http://www.w3.org/2000/svg" width="18" height="18" viewBox="72.0 1010.3622 18.0 18.0">
    <path d="m 74,-15 0,12 11,0 -4,-6 4,-6 z m 11,0 0,12 4,-6 z m -8,2 2,0 0,1 c 0.304638,0.3836 0.831839,0.6848 1,1.125 L 80,-10 c -0.383659,-0.3046 -0.68481,-0.8319 -1.125,-1 l -1.875,0 3,3 0,1 c -0.304638,0.3836 -0.831839,0.6848 -1,1.125 L 79,-5 77,-5 77,-6 C 76.695362,-6.3836 76.168161,-6.6848 76,-7.125 L 76,-8 c 0.383659,0.3046 0.68481,0.8319 1.125,1 l 1.875,0 -3,-3 0,-1 c 0.304638,-0.3836 0.831839,-0.6848 1,-1.125 z" transform="translate(0 1028.362)" stroke="#fff" opacity=".3" stroke-width="2" stroke-linejoin="round" fill="none"/>
    <path d="m 74,-15 0,12 11,0 -4,-6 4,-6 z m 11,0 0,12 4,-6 z m -8,2 2,0 0,1 c 0.304638,0.3836 0.831839,0.6848 1,1.125 L 80,-10 c -0.383659,-0.3046 -0.68481,-0.8319 -1.125,-1 l -1.875,0 0,1 2,1 1,1 0,1 c -0.304638,0.3836 -0.831839,0.6848 -1,1.125 L 79,-5 77,-5 77,-6 C 76.695362,-6.3836 76.168161,-6.6848 76,-7.125 L 76,-8 c 0.383659,0.3046 0.68481,0.8319 1.125,1 l 1.875,0 0,-1 -2,-1 -1,-1 0,-1 c 0.304638,-0.3836 0.831839,-0.6848 1,-1.125 z" transform="translate(0 1028.362)" fill="#747474"/>
    <rect height="18" width="18" x="72" y="1010.362" opacity=".3" fill="none"/>
</svg>
