<svg xmlns="http://www.w3.org/2000/svg" width="18" height="18" viewBox="72.0 884.3622 18.0 18.0">
    <g transform="translate(-30 90) translate(0 1028.362)">
        <path d="m 116,-233 c -0.82842,0 -1.5,0.67158 -1.5,1.5 0,0.64548 0.39681,1.1947 0.96875,1.40625 l -1.34375,4.65625 -6.5,3.5 -1.25,-3.125 c 0.64946,-0.1648 1.125,-0.73679 1.125,-1.4375 0,-0.82843 -0.67157,-1.5 -1.5,-1.5 -0.82843,0 -1.5,0.67157 -1.5,1.5 0,0.72488 0.50398,1.32888 1.1875,1.46875 L 104,-220 l 1,1 6.78125,-3.65625 L 111,-218 l 3,0 -0.90625,-5.375 L 118,-226 l -1.375,-4.125 c 0.52408,-0.23387 0.875,-0.76404 0.875,-1.375 0,-0.82842 -0.67158,-1.5 -1.5,-1.5 z" opacity=".3" stroke="#fff" stroke-width="2" stroke-linejoin="round" fill="none"/>
        <path d="m 116,-233 c -0.82842,0 -1.5,0.67158 -1.5,1.5 0,0.64548 0.39681,1.1947 0.96875,1.40625 l -1.34375,4.65625 -6.5,3.5 -1.25,-3.125 c 0.64946,-0.1648 1.125,-0.73679 1.125,-1.4375 0,-0.82843 -0.67157,-1.5 -1.5,-1.5 -0.82843,0 -1.5,0.67157 -1.5,1.5 0,0.72488 0.50398,1.32888 1.1875,1.46875 L 104,-220 l 1,1 6.78125,-3.65625 L 111,-218 l 3,0 -0.90625,-5.375 L 118,-226 l -1.375,-4.125 c 0.52408,-0.23387 0.875,-0.76404 0.875,-1.375 0,-0.82842 -0.67158,-1.5 -1.5,-1.5 z" fill="#747474"/>
        <rect height="18" width="18" x="102" y="-234" opacity=".3" fill="none"/>
    </g>
</svg>
