<svg xmlns="http://www.w3.org/2000/svg" width="12" height="12" viewBox="150.0 980.3622 12.0 12.0">
    <g transform="translate(0 1028.362)">
        <path d="M 152 -47 L 152 -45 L 153 -45 L 153 -46 L 155 -46 L 155 -44 L 152 -44 L 152 -43 L 152 -42 L 153 -42 L 153 -43 L 155 -43 C 155 -43 153.64038 -39.021162 153 -37 L 154 -37 L 154.65625 -39 L 157.34375 -39 L 158 -37 L 159 -37 C 158.00916 -38.981683 157 -43 157 -43 L 159 -43 L 159 -42 L 160 -42 L 160 -44 L 157 -44 L 157 -46 L 159 -46 L 159 -45 L 160 -45 L 160 -47 L 157 -47 L 155 -47 L 152 -47 z M 156 -43 L 157 -40 L 155 -40 L 156 -43 z" stroke="#fff" opacity=".3" stroke-width="2" stroke-linejoin="round" fill="none"/>
        <path d="M 152 -47 L 152 -45 L 153 -45 L 153 -46 L 155 -46 L 155 -44 L 152 -44 L 152 -43 L 152 -42 L 153 -42 L 153 -43 L 155 -43 C 155 -43 153.64038 -39.021162 153 -37 L 154 -37 L 154.65625 -39 L 157.34375 -39 L 158 -37 L 159 -37 C 158.00916 -38.981683 157 -43 157 -43 L 159 -43 L 159 -42 L 160 -42 L 160 -44 L 157 -44 L 157 -46 L 159 -46 L 159 -45 L 160 -45 L 160 -47 L 157 -47 L 155 -47 L 152 -47 z M 156 -43 L 157 -40 L 155 -40 L 156 -43 z" fill="#747474"/>
        <rect height="12" width="12" x="150" y="-48" opacity=".3" fill="none"/>
    </g>
</svg>
