<svg xmlns="http://www.w3.org/2000/svg" width="18" height="18" viewBox="0.0 830.36218 18.0 18.0">
    <g>
        <path d="m 4,834.36219 c -1,0 -2,1 -2,2 0,2 0,2 0,2 l -1,1 0,2 4,0 0,-2 -1,-1 0,-2 c 0,0 4.68872,-1e-5 6,-3e-5 l 0,4.00003 c -3,1.00001 -3,5.00001 -1,6.00001 l -8,0 0,1 16,-10e-6 0,-1 -4,0 0,-1 4,10e-6 0,-1 -4,0 0,-1 4,0 0,-1 -5,-2.00001 0,-4 c 0,-1 -1,-2 -2,-2 l -2,0 0,-2 2,0 c 1,0 1,-1 0,-1 l -5,0 c -1,0 -1,1 0,1 l 2,0 0,2 z" stroke="#fff" opacity=".3" stroke-width="2" stroke-linejoin="round" fill="none"/>
        <path d="m 4,834.36219 c -1,0 -2,1 -2,2 0,2 0,2 0,2 l -1,1 0,2 4,0 0,-2 -1,-1 0,-2 c 0,0 4.68872,-1e-5 6,-3e-5 l 0,4.00003 c -3,1.00001 -3,5.00001 -1,6.00001 l -8,0 0,1 16,-10e-6 0,-1 -4,0 0,-1 4,10e-6 0,-1 -4,0 0,-1 4,0 0,-1 -5,-2.00001 0,-4 c 0,-1 -1,-2 -2,-2 l -2,0 0,-2 2,0 c 1,0 1,-1 0,-1 l -5,0 c -1,0 -1,1 0,1 l 2,0 0,2 z" fill="#747474"/>
        <rect height="18" width="18" y="830.362" fill="none"/>
    </g>
</svg>
