<svg xmlns="http://www.w3.org/2000/svg" width="18" height="18" viewBox="102.0 938.3622 18.0 18.0">
    <g>
        <path d="m 115.47284,949.59033 h 1.6355 c 0.39152,0 0.79759,-0.17088 1.21823,-0.5128 0.44895,-0.35615 0.67343,-0.73391 0.67343,-1.13326 0,-0.18464 -0.0611,-0.36656 -0.18192,-0.54496 l -1.94494,-2.97117 -3.34588,1.94558 1.94558,3.21661 0,0 z m 1.06863,4.02956 2.45837,-4.46764 c -0.36336,0.4136 -0.75887,0.69152 -1.18623,0.83375 -0.34207,0.11424 -0.83087,0.17104 -1.46462,0.17104 h -2.73598 v -0.56671 c 0,-0.22064 -0.0536,-0.33136 -0.16047,-0.33136 -0.0786,0 -0.13584,0.0291 -0.17088,0.0856 l -1.73119,3.00333 1.79551,2.75773 c 0.13552,0.20672 0.25263,0.28848 0.35263,0.24544 0.0994,-0.0283 0.14976,-0.0814 0.14976,-0.16 v -0.94079 h 1.51759 c 0.55583,0 0.94751,-0.20992 1.17551,-0.63039 l 0,0 z m -1.68831,-8.39016 1.68847,-2.84317 c 0.0568,-0.0994 0.0854,-0.20304 0.0854,-0.30976 0,-0.12831 -0.0427,-0.19247 -0.128,-0.19247 0.0134,0 -0.0429,0.0214 -0.17104,0.0642 l -0.76959,0.35263 -0.70528,-1.39998 c -0.31391,-0.62688 -0.94063,-0.94063 -1.88126,-0.94063 h -4.39259 c 0.53423,0.16415 0.89743,0.32431 1.0899,0.48095 0.44912,0.35648 0.90848,1.02607 1.37871,2.00926 l 0.87663,1.83854 -0.65231,0.31008 c -0.064,0.0288 -0.096,0.0854 -0.096,0.17088 0,0.10688 0.0674,0.168 0.20304,0.18176 l 3.47388,0.27775 0,0 z m -7.81304,8.97767 h 3.7942 v -3.94364 H 107.179 c -0.44896,0.64112 -0.73055,1.07647 -0.84431,1.30399 -0.1856,0.3632 -0.27776,0.73423 -0.27776,1.11119 0,1.01935 0.32736,1.52846 0.98319,1.52846 l 0,0 z m 1.60318,-8.25079 1.96654,-3.04605 c -0.73439,-1.67423 -1.51454,-2.51198 -2.34077,-2.51198 -0.49904,0 -0.83327,0.13936 -1.00431,0.4168 l -1.86014,2.97165 3.23868,2.16958 0,0 z m -0.91919,2.42605 0.716,0.43808 c 0.12079,0 0.18175,-0.0499 0.18175,-0.14976 0,-0.0638 -0.0291,-0.15264 -0.0854,-0.26704 l -1.5819,-2.97133 -3.50588,0.0858 c -0.1568,0.007 -0.23504,0.0891 -0.23504,0.24576 0,0.0357 0.0498,0.0854 0.1496,0.1496 l 0.72687,0.43807 -0.76959,1.19679 c -0.2136,0.3422 -0.32048,0.62411 -0.32048,0.84475 0,0.2 0.0707,0.42432 0.2136,0.67343 l 2.38349,4.1574 c -0.0571,-0.26335 -0.0854,-0.51295 -0.0854,-0.74831 0,-0.41968 0.13136,-0.83343 0.3952,-1.23967 l 1.81726,-2.85357 0,0 z" stroke="#fff" stroke-width="2" stroke-linejoin="round" opacity=".3" fill="none"/>
        <path d="m 115.47284,949.59033 h 1.6355 c 0.39152,0 0.79759,-0.17088 1.21823,-0.5128 0.44895,-0.35615 0.67343,-0.73391 0.67343,-1.13326 0,-0.18464 -0.0611,-0.36656 -0.18192,-0.54496 l -1.94494,-2.97117 -3.34588,1.94558 1.94558,3.21661 0,0 z m 1.06863,4.02956 2.45837,-4.46764 c -0.36336,0.4136 -0.75887,0.69152 -1.18623,0.83375 -0.34207,0.11424 -0.83087,0.17104 -1.46462,0.17104 h -2.73598 v -0.56671 c 0,-0.22064 -0.0536,-0.33136 -0.16047,-0.33136 -0.0786,0 -0.13584,0.0291 -0.17088,0.0856 l -1.73119,3.00333 1.79551,2.75773 c 0.13552,0.20672 0.25263,0.28848 0.35263,0.24544 0.0994,-0.0283 0.14976,-0.0814 0.14976,-0.16 v -0.94079 h 1.51759 c 0.55583,0 0.94751,-0.20992 1.17551,-0.63039 l 0,0 z m -1.68831,-8.39016 1.68847,-2.84317 c 0.0568,-0.0994 0.0854,-0.20304 0.0854,-0.30976 0,-0.12831 -0.0427,-0.19247 -0.128,-0.19247 0.0134,0 -0.0429,0.0214 -0.17104,0.0642 l -0.76959,0.35263 -0.70528,-1.39998 c -0.31391,-0.62688 -0.94063,-0.94063 -1.88126,-0.94063 h -4.39259 c 0.53423,0.16415 0.89743,0.32431 1.0899,0.48095 0.44912,0.35648 0.90848,1.02607 1.37871,2.00926 l 0.87663,1.83854 -0.65231,0.31008 c -0.064,0.0288 -0.096,0.0854 -0.096,0.17088 0,0.10688 0.0674,0.168 0.20304,0.18176 l 3.47388,0.27775 0,0 z m -7.81304,8.97767 h 3.7942 v -3.94364 H 107.179 c -0.44896,0.64112 -0.73055,1.07647 -0.84431,1.30399 -0.1856,0.3632 -0.27776,0.73423 -0.27776,1.11119 0,1.01935 0.32736,1.52846 0.98319,1.52846 l 0,0 z m 1.60318,-8.25079 1.96654,-3.04605 c -0.73439,-1.67423 -1.51454,-2.51198 -2.34077,-2.51198 -0.49904,0 -0.83327,0.13936 -1.00431,0.4168 l -1.86014,2.97165 3.23868,2.16958 0,0 z m -0.91919,2.42605 0.716,0.43808 c 0.12079,0 0.18175,-0.0499 0.18175,-0.14976 0,-0.0638 -0.0291,-0.15264 -0.0854,-0.26704 l -1.5819,-2.97133 -3.50588,0.0858 c -0.1568,0.007 -0.23504,0.0891 -0.23504,0.24576 0,0.0357 0.0498,0.0854 0.1496,0.1496 l 0.72687,0.43807 -0.76959,1.19679 c -0.2136,0.3422 -0.32048,0.62411 -0.32048,0.84475 0,0.2 0.0707,0.42432 0.2136,0.67343 l 2.38349,4.1574 c -0.0571,-0.26335 -0.0854,-0.51295 -0.0854,-0.74831 0,-0.41968 0.13136,-0.83343 0.3952,-1.23967 l 1.81726,-2.85357 0,0 z" fill="#747474"/>
        <rect height="18" transform="translate(0 1028.362)" width="18" x="102" y="-90" opacity=".3" fill="none"/>
    </g>
</svg>
