<svg xmlns="http://www.w3.org/2000/svg" width="18" height="18" viewBox="102.0 866.3622 18.0 18.0">
    <g transform="translate(0 1028.362)">
        <path d="M 109 -159 L 110 -156 C 107 -155 106.58356 -154.79178 105 -154 L 103 -157 L 104 -153.5 L 103 -150 L 105 -153 C 106.39122 -152.30439 108.31421 -152.35902 110 -152 C 110.3319 -151.9293 109.69858 -149.9864 110 -150 C 110.36852 -150.0166 111.66512 -152 112 -152 C 114 -152 118.62724 -153 119 -154 C 118.44087 -155 114.43248 -156 112 -156 L 109 -159 z M 115.625 -155.21875 C 116.03921 -155.21875 116.375 -154.88296 116.375 -154.46875 C 116.375 -154.05454 116.03921 -153.71875 115.625 -153.71875 C 115.21079 -153.71875 114.875 -154.05454 114.875 -154.46875 C 114.875 -154.88296 115.21079 -155.21875 115.625 -155.21875 z" stroke="#fff" opacity=".3" stroke-width="2" stroke-linejoin="round" fill="none"/>
        <path d="M 109 -159 L 110 -156 C 107 -155 106.58356 -154.79178 105 -154 L 103 -157 L 104 -153.5 L 103 -150 L 105 -153 C 106.39122 -152.30439 108.31421 -152.35902 110 -152 C 110.3319 -151.9293 109.69858 -149.9864 110 -150 C 110.36852 -150.0166 111.66512 -152 112 -152 C 114 -152 118.62724 -153 119 -154 C 118.44087 -155 114.43248 -156 112 -156 L 109 -159 z M 115.625 -155.21875 C 116.03921 -155.21875 116.375 -154.88296 116.375 -154.46875 C 116.375 -154.05454 116.03921 -153.71875 115.625 -153.71875 C 115.21079 -153.71875 114.875 -154.05454 114.875 -154.46875 C 114.875 -154.88296 115.21079 -155.21875 115.625 -155.21875 z" fill="#747474"/>
        <rect height="18" width="18" x="102" y="-162" opacity=".3" fill="none"/>
    </g>
</svg>
