<svg xmlns="http://www.w3.org/2000/svg" width="18" height="18" viewBox="0.0 1010.3622 18.0 18.0">
    <g>
        <path d="m 9,1013.3622 c -2.8674418,0 -4.8543401,3.2331 -5,7 l -2,0 3,6 8,0 3,-6 -2,0 c -0.01616,-3.6882 -2.132558,-7 -5,-7 z m 0,1.3125 c 2.259432,0 3.566238,2.7163 3.6875,5.6875 l -7.375,0 c 0.088871,-2.8665 1.4280676,-5.6875 3.6875,-5.6875 z" stroke="#fff" opacity=".3" stroke-width="2" stroke-linejoin="round" fill="none"/>
        <path d="m 9,1013.3622 c -2.8674418,0 -4.8543401,3.2331 -5,7 l -2,0 3,6 8,0 3,-6 -2,0 c -0.01616,-3.6882 -2.132558,-7 -5,-7 z m 0,1.3125 c 2.259432,0 3.566238,2.7163 3.6875,5.6875 l -7.375,0 c 0.088871,-2.8665 1.4280676,-5.6875 3.6875,-5.6875 z" fill="#747474"/>
        <rect height="18" transform="translate(0 1028.362)" width="18" y="-18" opacity=".3" fill="none"/>
    </g>
</svg>
