<svg xmlns="http://www.w3.org/2000/svg" width="18" height="18" viewBox="132.0 866.3622 18.0 18.0">
    <g>
        <path d="m 146,872.3622 c 3,1 3,6 0,7 l -1,0 0,2 -2,0 0,-2 -4,0 0,2 -2,0 0,-2 -1,0 c -3,-1 -3,-6 0,-7 l 2,0 0,-1 -1,0 0,-1 5,0 0,1 -1,0 0,1 c 0,0 4.50977,0 5,0 z" stroke="#fff" opacity=".3" stroke-width="2" stroke-linejoin="round" fill="none"/>
        <path d="m 146,872.3622 c 3,1 3,6 0,7 l -1,0 0,2 -2,0 0,-2 -4,0 0,2 -2,0 0,-2 -1,0 c -3,-1 -3,-6 0,-7 l 2,0 0,-1 -1,0 0,-1 5,0 0,1 -1,0 0,1 c 0,0 4.50977,0 5,0 z" fill="#747474"/>
        <rect height="18" transform="translate(0 1028.362)" width="18" x="132" y="-162" fill="none"/>
    </g>
</svg>
