<svg xmlns="http://www.w3.org/2000/svg" width="18" height="18" viewBox="36.0 830.3622 18.0 18.0">
    <g>
        <path d="m 48.874894,838.2902 0,1.08596 c 0,2.15285 -1.750979,3.90383 -3.90383,3.90383 -2.152851,0 -3.90383,-1.75098 -3.90383,-3.90383 l 0,-1.08596 -1.067234,0 0,1.08596 c 0,2.56085 1.946383,4.67489 4.437447,4.94213 l 0,1.97651 L 41,846.3622 l 0,1 8,0 0,-1 -3.495149,-0.0674 0,-1.97651 c 2.491064,-0.26707 4.437447,-2.38111 4.437447,-4.94213 l 0,-1.08596 z M 45,842.3622 c 2,0 3,-1.52936 3,-3 l 0,-5 c -1.7e-4,-1.47013 -1,-3 -3,-3 -2,0 -3,1.52987 -3,3 l 0,5 c -1.7e-4,1.47064 1,3 3,3 z" fill="#747474" stroke="#fff" stroke-width="2" stroke-linejoin="round" opacity=".3"/>
        <path d="m 48.874894,838.2902 0,1.08596 c 0,2.15285 -1.750979,3.90383 -3.90383,3.90383 -2.152851,0 -3.90383,-1.75098 -3.90383,-3.90383 l 0,-1.08596 -1.067234,0 0,1.08596 c 0,2.56085 1.946383,4.67489 4.437447,4.94213 l 0,1.97651 L 41,846.3622 l 0,1 8,0 0,-1 -3.495149,-0.0674 0,-1.97651 c 2.491064,-0.26707 4.437447,-2.38111 4.437447,-4.94213 l 0,-1.08596 z M 45,842.3622 c 2,0 3,-1.52936 3,-3 l 0,-5 c -1.7e-4,-1.47013 -1,-3 -3,-3 -2,0 -3,1.52987 -3,3 l 0,5 c -1.7e-4,1.47064 1,3 3,3 z" fill="#747474"/>
        <rect height="18" rx=".497" ry=".033" transform="translate(0 1028.362)" width="18" x="36" y="-198" opacity=".3" fill="none"/>
    </g>
</svg>
