<?xml version="1.0" encoding="UTF-8" standalone="no"?>
<!-- Created with Inkscape (http://www.inkscape.org/) -->

<svg
   width="18"
   height="18"
   viewBox="0 0 4.7625 4.7625"
   version="1.1"
   id="svg1"
   xml:space="preserve"
   inkscape:version="1.4.4 (dcaf3e7, 2026-05-05)"
   sodipodi:docname="bird_hide-m.svg"
   xmlns:inkscape="http://www.inkscape.org/namespaces/inkscape"
   xmlns:sodipodi="http://sodipodi.sourceforge.net/DTD/sodipodi-0.dtd"
   xmlns="http://www.w3.org/2000/svg"
   xmlns:svg="http://www.w3.org/2000/svg"><sodipodi:namedview
     id="namedview1"
     pagecolor="#ffffff"
     bordercolor="#000000"
     borderopacity="0.25"
     inkscape:showpageshadow="2"
     inkscape:pageopacity="0.0"
     inkscape:pagecheckerboard="0"
     inkscape:deskcolor="#d1d1d1"
     inkscape:document-units="mm"
     showguides="true"
     inkscape:zoom="11.867151"
     inkscape:cx="7.921025"
     inkscape:cy="14.030326"
     inkscape:window-width="1512"
     inkscape:window-height="840"
     inkscape:window-x="0"
     inkscape:window-y="33"
     inkscape:window-maximized="0"
     inkscape:current-layer="layer1" /><defs
     id="defs1" /><g
     inkscape:label="Calque 1"
     inkscape:groupmode="layer"
     id="layer1"><path
       style="fill:#717066;fill-opacity:1;stroke-width:0.00370684"
       d="m 0.78474306,4.0496287 c 0.005471,-0.014951 0.70883564,-0.7475466 1.13264814,-1.17967 0.098438,-0.1003699 0.1789866,-0.1845459 0.1789866,-0.1870493 0,-0.00246 -0.00994,-0.00637 -0.022164,-0.00871 -0.012194,-0.00223 -0.060743,-0.016045 -0.107896,-0.030594 C 1.5604722,2.5183592 1.2846275,2.313709 1.1009223,2.0015685 1.0493918,1.914017 0.97004499,1.7251889 0.98478061,1.7251889 c 0.003015,0 0.0301816,0.015576 0.0604294,0.034626 0.07307,0.046003 0.17697,0.1046689 0.2517802,0.142147 0.1464412,0.073371 0.3792975,0.1640924 0.545173,0.212415 0.084794,0.024699 0.2236678,0.057169 0.2276206,0.053216 0.00134,-0.00134 -0.058029,-0.030048 -0.1318418,-0.063892 C 1.5191954,1.911747 1.285628,1.7893401 1.1459743,1.6886531 0.87896172,1.4961446 0.70642348,1.2499452 0.62703197,0.94815528 c -0.0200539,-0.0762405 -0.0469971,-0.2330327 -0.0410569,-0.2389718 0.001563,-0.00156 0.0261281,0.00726 0.0545788,0.019607 C 0.74915303,0.77593298 1.8457165,1.2725226 2.4451915,1.5460382 2.6072774,1.6199889 2.6794937,1.6687935 2.7428175,1.7471677 2.9084028,1.9521082 2.9075944,2.222657 2.7405837,2.4789626 2.6398899,2.6335407 2.442041,2.8327038 2.1954953,3.0276777 c -0.04138,0.032726 -0.074142,0.060609 -0.072779,0.06197 0.00368,0.00368 0.1261129,-0.064851 0.205137,-0.1149134 C 2.6836451,2.7493317 2.8887218,2.5142836 2.9576029,2.25295 2.979287,2.1707023 2.9833849,2.0362642 2.9666473,1.9557539 2.9338532,1.7977949 2.8386932,1.6516907 2.7096918,1.5612327 c -0.025202,-0.017676 -0.045814,-0.034112 -0.045814,-0.036524 0,-0.018726 0.085251,-0.1958917 0.1221468,-0.2538235 0.106578,-0.1673709 0.2490143,-0.27945492 0.4188023,-0.32955612 0.071573,-0.021126 0.1930556,-0.026296 0.2719524,-0.01159 0.1450122,0.027033 0.2888564,0.12623682 0.3603805,0.24853762 0.012506,0.021394 0.024465,0.039951 0.026563,0.041246 0.00213,0.00134 0.038276,0.00927 0.080394,0.017654 0.075414,0.015063 0.2332449,0.060989 0.2332449,0.067867 0,0.0019 -0.013969,0.00837 -0.031041,0.014404 C 3.9796086,1.3778781 3.8766549,1.4428333 3.8029692,1.5360693 3.7042853,1.6609361 3.6476889,1.804529 3.633496,1.966031 3.6301462,2.004274 3.6245633,2.0648264 3.6211353,2.1005974 3.5761258,2.5692186 3.2938908,2.9619086 2.8353278,3.1939296 2.6233774,3.3011665 2.4150392,3.3624101 2.1111067,3.406809 2.0785917,3.411609 2.0365407,3.420799 2.0176707,3.427354 1.9988007,3.433944 1.9149894,3.480258 1.831442,3.530359 1.315366,3.8398533 1.1565975,3.9294628 1.023803,3.9861819 0.93040065,4.0260779 0.77859961,4.0663419 0.78469505,4.0496039 Z M 3.4943939,1.3688215 c 0.066292,-0.037551 0.068101,-0.1187847 0.00357,-0.1622523 -0.023426,-0.015788 -0.063299,-0.017932 -0.088735,-0.0048 -0.068257,0.035296 -0.068637,0.1329397 -6.365e-4,0.1672268 0.033207,0.016749 0.055964,0.016692 0.085776,-1.989e-4 z"
       id="path1" /></g></svg>
