<?xml version="1.0" encoding="UTF-8"?>
<svg width="18" height="18" version="1.1" viewBox="0 0 18 18" xmlns="http://www.w3.org/2000/svg">
 <circle cx="9" cy="9" r="9" fill="#fff" opacity=".6"/>
 <circle cx="9" cy="9" r="8.25" fill="#8c5f93"/>
 <path d="m8.323 4.4215c-0.243-0.67693-0.88522-1.1572-1.6373-1.1572-0.96045 0-1.7357 0.77528-1.7357 1.7357 0 0.95468 0.77528 1.7357 1.7357 1.7357 0.75218 0 1.3943-0.486 1.6373-1.1572h2.9912v1.1572h1.1572v-1.1572h0.57856v-1.1572zm-1.6373 1.1572c-0.31822 0-0.57857-0.26036-0.57857-0.57857s0.26036-0.57857 0.57857-0.57857 0.57857 0.26036 0.57857 0.57857-0.26036 0.57857-0.57857 0.57857z" fill="#fff"/>
 <path d="m7.5004 8v2h-3.9999l1 2h9.0001l1-2h-3.9999v-2zm-1.6429 4.7695c-0.4195 0-1.1725 0.78569-1.5715 0.78569v1.1786c0.42207 0 1.1986-0.78569 1.5715-0.78569 0.3962 0 1.152 0.78569 1.5715 0.78569 0.37363 0 1.1725-0.78569 1.5715-0.78569 0.3962 0 1.1957 0.78569 1.5715 0.78569 0.3962 0 1.1986-0.78569 1.5715-0.78569s1.1753 0.78569 1.5715 0.78569v-1.1786c-0.32627 0-1.152-0.80902-1.5715-0.78569-0.3758 0-1.1513 0.78569-1.5715 0.78569-0.34959 0-1.1753-0.78569-1.5715-0.78569s-1.2211 0.78569-1.5715 0.78569c-0.37363 0-1.152-0.78569-1.5715-0.78569z" fill="#fff"/>
</svg>
