<?xml version="1.0" encoding="UTF-8"?>
<svg width="10" height="14" version="1.1" viewBox="0 0 10 14" xml:space="preserve" xmlns="http://www.w3.org/2000/svg">
 <path d="m5 1c2.2091 3.32e-5 4 1.7909 4 4-0.00351 1.3304-0.66822 2.572-1.7734 3.3125-1.0535 0.71328-2.3706 1.842-1.4395 3.0898 0.13845 0.16684 0.21289 0.37329 0.21289 0.59766 0 0.55228-0.44772 1-1 1s-1-0.44772-1-1c0-0.22437 0.074445-0.43081 0.21289-0.59766 0.93117-1.2479-0.386-2.3766-1.4395-3.0898-1.1052-0.74055-1.7699-1.9821-1.7734-3.3125 3.32e-5 -2.2091 1.7909-4 4-4z" fill="#fff"/>
</svg>
