<?xml version="1.0" encoding="UTF-8"?>
<svg width="14" height="20" version="1.1" viewBox="0 0 14 20" xml:space="preserve" xmlns="http://www.w3.org/2000/svg">
 <path d="m6.9999 1c3.324 0 6 2.6792 6.0001 5.984-0.0052 1.6272-0.67289 3.182-1.8491 4.3064-1.8067 1.743-4.6837 3.0902-3.0308 5.6409 0.14086 0.21706 0.21583 0.47028 0.21588 0.72904-3.51e-5 0.73984-0.5961 1.3396-1.3359 1.3397-0.73984-3.6e-5 -1.3359-0.5998-1.3359-1.3397 4.37e-5 -0.25876 0.075017-0.51197 0.21588-0.72904 1.6529-2.5507-1.2242-3.8978-3.0309-5.6409-1.1762-1.1243-1.8439-2.6792-1.8491-4.3064 3.514e-5 -3.3049 2.6761-5.984 6.0001-5.984z" fill="#fff"/>
</svg>
