<?xml version="1.0" encoding="UTF-8"?>
<svg width="21" height="30" version="1.1" viewBox="0 0 21 30" xml:space="preserve" xmlns="http://www.w3.org/2000/svg">
 <defs>
  <linearGradient id="linearGradient1" x1="10.5" x2="10.5" y1="5" y2="29" gradientUnits="userSpaceOnUse">
   <stop stop-color="#fff" stop-opacity=".125" offset="0"/>
   <stop stop-color="#080808" stop-opacity=".125" offset="1"/>
  </linearGradient>
 </defs>
 <path d="m10.5 0c-5.8002 0-10.5 4.7022-10.5 10.475v4e-3c0.0091588 2.8463 1.1778 5.5656 3.2344 7.5332 1.5502 1.4956 3.4061 2.6146 4.4141 3.6992 0.50399 0.54229 0.7772 1.0253 0.84375 1.5156 0.066551 0.49028-0.037971 1.0824-0.60352 1.9551-0.32744 0.50519-0.50381 1.0951-0.50391 1.6973 8.05e-5 1.7081 1.4034 3.1209 3.1152 3.121 1.7118-8e-5 3.1152-1.4128 3.1152-3.1211-1e-4 -0.60213-0.17647-1.192-0.50391-1.6973v-2e-3c-0.56419-0.8714-0.67001-1.4633-0.60352-1.9531 0.06655-0.49028 0.33976-0.97334 0.84375-1.5156 1.008-1.0846 2.8638-2.2036 4.4141-3.6992 2.0566-1.9674 3.2252-4.6868 3.2344-7.5332v-4e-3c-6.1e-5 -5.7721-4.6998-10.475-10.5-10.475zm0 1c5.2629 0 9.4999 4.242 9.5 9.4746-0.0083 2.5763-1.0654 5.0381-2.9277 6.8184-2.8606 2.7598-7.4159 4.3931-4.7988 8.4316 0.22302 0.34368 0.34173 0.7446 0.3418 1.1543-5.5e-5 1.1714-0.94381 2.121-2.1152 2.1211-1.1714-5.5e-5 -2.1152-0.94967-2.1152-2.1211 6.83e-5 -0.4097 0.11878-0.81061 0.3418-1.1543 2.6171-4.0385-1.9382-5.6718-4.7988-8.4316-1.8623-1.7802-2.9194-4.242-2.9277-6.8184 5.52e-5 -5.2327 4.2371-9.4746 9.5-9.4746z" fill="#fff" opacity=".6"/>
 <path d="m10.5 1c5.2629 0 9.4999 4.242 9.5 9.4746-0.0083 2.5763-1.0654 5.0381-2.9277 6.8184-2.8606 2.7598-7.4159 4.3931-4.7988 8.4316 0.22302 0.34368 0.34173 0.7446 0.3418 1.1543-5.5e-5 1.1714-0.94381 2.121-2.1152 2.1211-1.1714-5.5e-5 -2.1152-0.94967-2.1152-2.1211 6.83e-5 -0.4097 0.11878-0.81061 0.3418-1.1543 2.6171-4.0385-1.9382-5.6718-4.7988-8.4316-1.8623-1.7802-2.9194-4.242-2.9277-6.8184 5.52e-5 -5.2327 4.2371-9.4746 9.5-9.4746z" fill="url(#linearGradient1)"/>
 <path d="m10.5 5.2499c-2.8992 0-5.25 2.3508-5.25 5.25 0 2.8992 2.3508 5.25 5.25 5.25 0.48417 0 0.8745-0.39034 0.8745-0.8745 0-0.2275-0.08413-0.43282-0.22705-0.5874-0.13708-0.15458-0.21826-0.35549-0.21826-0.58008 0-0.48417 0.39034-0.8745 0.8745-0.8745h1.0298c1.61 0 2.9165-1.3065 2.9165-2.9165 0-2.5784-2.3508-4.667-5.25-4.667zm1.4502 0.97852a1.0419 1.0419 0 0 1 1.0415 1.0415 1.0419 1.0419 0 0 1-1.0415 1.043 1.0419 1.0419 0 0 1-1.0415-1.043 1.0419 1.0419 0 0 1 1.0415-1.0415zm-2.9209 0.014648a1.0419 1.0419 0 0 1 1.0429 1.043 1.0419 1.0419 0 0 1-1.0429 1.0415 1.0419 1.0419 0 0 1-1.0415-1.0415 1.0419 1.0419 0 0 1 1.0415-1.043zm-1.749 2.3423a1.0419 1.0419 0 0 1 1.0415 1.0429 1.0419 1.0419 0 0 1-1.0415 1.0415 1.0419 1.0419 0 0 1-1.0415-1.0415 1.0419 1.0419 0 0 1 1.0415-1.0429zm6.4189 0a1.0419 1.0419 0 0 1 1.0415 1.0429 1.0419 1.0419 0 0 1-1.0415 1.0415 1.0419 1.0419 0 0 1-1.0415-1.0415 1.0419 1.0419 0 0 1 1.0415-1.0429z" fill="#fff"/>
</svg>
