<?xml version="1.0" encoding="UTF-8"?>
<svg width="10" height="14" version="1.1" viewBox="0 0 10 14" xml:space="preserve" xmlns="http://www.w3.org/2000/svg">
 <defs>
  <linearGradient id="linearGradient1" x1="5" x2="5" y1="3" y2="13" gradientUnits="userSpaceOnUse">
   <stop stop-color="#fff" stop-opacity=".125" offset="0"/>
   <stop stop-color="#080808" stop-opacity=".125" offset="1"/>
  </linearGradient>
 </defs>
 <path d="m5 0c-2.7496 4.1322e-5 -5 2.2504-5 5v0.0019531c0.0043845 1.6618 0.83623 3.2156 2.2168 4.1406 0.48298 0.32747 0.98094 0.75042 1.1836 1.0605 0.10159 0.15547 0.12703 0.25925 0.12891 0.32031 0.00187 0.060859 0.00361 0.11702-0.11719 0.2793v0.001954c-0.26443 0.33755-0.41211 0.76692-0.41211 1.1953 0 1.0927 0.90728 2 2 2s2-0.90728 2-2c0-0.42839-0.14767-0.85773-0.41211-1.1953v-0.001954c-0.1208-0.16224-0.11906-0.21843-0.11719-0.2793 0.00188-0.06106 0.027312-0.16484 0.12891-0.32031 0.20265-0.31012 0.70062-0.73307 1.1836-1.0605 1.3806-0.92505 2.2124-2.4788 2.2168-4.1406v-0.0019531c-4.13e-5 -2.7496-2.2504-5-5-5zm0 1c2.2091 3.32e-5 4 1.7909 4 4-0.00351 1.3304-0.66822 2.572-1.7734 3.3125-1.0535 0.71328-2.3706 1.842-1.4395 3.0898 0.13845 0.16684 0.21289 0.37329 0.21289 0.59766 0 0.55228-0.44772 1-1 1s-1-0.44772-1-1c0-0.22437 0.074445-0.43081 0.21289-0.59766 0.93117-1.2479-0.386-2.3766-1.4395-3.0898-1.1052-0.74055-1.7699-1.9821-1.7734-3.3125 3.32e-5 -2.2091 1.7909-4 4-4z" fill="#fff" opacity=".6"/>
 <path d="m5 1c2.2091 3.32e-5 4 1.7909 4 4-0.00351 1.3304-0.66822 2.572-1.7734 3.3125-1.0535 0.71328-2.3706 1.842-1.4395 3.0898 0.13845 0.16684 0.21289 0.37329 0.21289 0.59766 0 0.55228-0.44772 1-1 1s-1-0.44772-1-1c0-0.22437 0.074445-0.43081 0.21289-0.59766 0.93117-1.2479-0.386-2.3766-1.4395-3.0898-1.1052-0.74055-1.7699-1.9821-1.7734-3.3125 3.32e-5 -2.2091 1.7909-4 4-4z" fill="url(#linearGradient1)"/>
 <circle cx="5" cy="5" r="1.5" fill="#fff"/>
</svg>
