<?xml version="1.0" encoding="UTF-8"?>
<svg width="14" height="20" version="1.1" viewBox="0 0 14 20" xml:space="preserve" xmlns="http://www.w3.org/2000/svg">
 <defs>
  <linearGradient id="linearGradient1" x1="7" x2="7" y1="4" y2="19" gradientUnits="userSpaceOnUse">
   <stop stop-color="#fff" stop-opacity=".125" offset="0"/>
   <stop stop-color="#080808" stop-opacity=".125" offset="1"/>
  </linearGradient>
 </defs>
 <path d="m7 0.19922c-3.7539 0-6.8007 3.0484-6.8008 6.7852v0.0019531c0.005892 1.8437 0.76379 3.6067 2.0957 4.8809 0.98197 0.94735 2.1383 1.7244 2.7578 2.457 0.30977 0.36633 0.47245 0.68922 0.51172 0.99609 0.03927 0.30687-0.017324 0.65397-0.35547 1.1758-0.22374 0.3448-0.34563 0.74896-0.3457 1.1641 0 1.1695 0.96441 2.1406 2.1367 2.1406 1.1723 0 2.1367-0.97112 2.1367-2.1406-8.04e-5 -0.41508-0.12193-0.81924-0.3457-1.1641-0.33814-0.52178-0.39474-0.86892-0.35547-1.1758 0.039275-0.30686 0.20389-0.62975 0.51367-0.99609 0.6191-0.73213 1.7724-1.5087 2.7539-2.4551 1.3331-1.2744 2.0918-3.0382 2.0977-4.8828v-0.0019531c-1.13e-4 -3.7367-3.0469-6.7852-6.8008-6.7852zm0 0.80078c3.324 0 6 2.6792 6.0001 5.984-0.0052 1.6272-0.67289 3.182-1.8491 4.3064-1.8067 1.743-4.6837 3.0902-3.0308 5.6409 0.14086 0.21706 0.21583 0.47028 0.21588 0.72904-3.51e-5 0.73984-0.5961 1.3396-1.3359 1.3397-0.73984-3.6e-5 -1.3359-0.5998-1.3359-1.3397 4.37e-5 -0.25876 0.075017-0.51197 0.21588-0.72904 1.6529-2.5507-1.2242-3.8978-3.0309-5.6409-1.1762-1.1243-1.8439-2.6792-1.8491-4.3064 3.514e-5 -3.3049 2.6761-5.984 6.0001-5.984z" fill="#fff" opacity=".6"/>
 <path d="m7 1c3.324 0 6 2.6792 6.0001 5.984-0.0052 1.6272-0.67289 3.182-1.8491 4.3064-1.8067 1.743-4.6837 3.0902-3.0308 5.6409 0.14086 0.21706 0.21583 0.47028 0.21588 0.72904-3.51e-5 0.73984-0.5961 1.3396-1.3359 1.3397-0.73984-3.6e-5 -1.3359-0.5998-1.3359-1.3397 4.37e-5 -0.25876 0.075017-0.51197 0.21588-0.72904 1.6529-2.5507-1.2242-3.8978-3.0309-5.6409-1.1762-1.1243-1.8439-2.6792-1.8491-4.3064 3.514e-5 -3.3049 2.6761-5.984 6.0001-5.984z" fill="url(#linearGradient1)"/>
 <circle cx="7" cy="7" r="3" fill="#fff"/>
</svg>
