<?xml version="1.0" encoding="UTF-8"?>
<svg width="21" height="30" version="1.1" viewBox="0 0 21 30" xml:space="preserve" xmlns="http://www.w3.org/2000/svg">
 <defs>
  <linearGradient id="linearGradient1" x1="10.5" x2="10.5" y1="5" y2="29" gradientUnits="userSpaceOnUse">
   <stop stop-color="#fff" stop-opacity=".125" offset="0"/>
   <stop stop-color="#080808" stop-opacity=".125" offset="1"/>
  </linearGradient>
 </defs>
 <path d="m10.5 0c-5.8002 0-10.5 4.7022-10.5 10.475v4e-3c0.0091588 2.8463 1.1778 5.5656 3.2344 7.5332 1.5502 1.4956 3.4061 2.6146 4.4141 3.6992 0.50399 0.54229 0.7772 1.0253 0.84375 1.5156 0.066551 0.49028-0.037971 1.0824-0.60352 1.9551-0.32744 0.50519-0.50381 1.0951-0.50391 1.6973 8.05e-5 1.7081 1.4034 3.1209 3.1152 3.121 1.7118-8e-5 3.1152-1.4128 3.1152-3.1211-1e-4 -0.60213-0.17647-1.192-0.50391-1.6973v-2e-3c-0.56419-0.8714-0.67001-1.4633-0.60352-1.9531 0.06655-0.49028 0.33976-0.97334 0.84375-1.5156 1.008-1.0846 2.8638-2.2036 4.4141-3.6992 2.0566-1.9674 3.2252-4.6868 3.2344-7.5332v-4e-3c-6.1e-5 -5.7721-4.6998-10.475-10.5-10.475zm0 1c5.2629 0 9.4999 4.242 9.5 9.4746-0.0083 2.5763-1.0654 5.0381-2.9277 6.8184-2.8606 2.7598-7.4159 4.3931-4.7988 8.4316 0.22302 0.34368 0.34173 0.7446 0.3418 1.1543-5.5e-5 1.1714-0.94381 2.121-2.1152 2.1211-1.1714-5.5e-5 -2.1152-0.94967-2.1152-2.1211 6.83e-5 -0.4097 0.11878-0.81061 0.3418-1.1543 2.6171-4.0385-1.9382-5.6718-4.7988-8.4316-1.8623-1.7802-2.9194-4.242-2.9277-6.8184 5.52e-5 -5.2327 4.2371-9.4746 9.5-9.4746z" fill="#fff" opacity=".6"/>
 <path d="m10.5 1c5.2629 0 9.4999 4.242 9.5 9.4746-0.0083 2.5763-1.0654 5.0381-2.9277 6.8184-2.8606 2.7598-7.4159 4.3931-4.7988 8.4316 0.22302 0.34368 0.34173 0.7446 0.3418 1.1543-5.5e-5 1.1714-0.94381 2.121-2.1152 2.1211-1.1714-5.5e-5 -2.1152-0.94967-2.1152-2.1211 6.83e-5 -0.4097 0.11878-0.81061 0.3418-1.1543 2.6171-4.0385-1.9382-5.6718-4.7988-8.4316-1.8623-1.7802-2.9194-4.242-2.9277-6.8184 5.52e-5 -5.2327 4.2371-9.4746 9.5-9.4746z" fill="url(#linearGradient1)"/>
 <path d="m12.922 5.0057a0.50025 0.50025 0 0 0-0.276 0.8475l1.293 1.293c0.2385 0.2385 0.40725 0.53325 0.49425 0.8535h-0.4335c-0.82275 0-1.5 0.67725-1.5 1.5 0 0.82275 0.67725 1.5 1.5 1.5h0.4995v3.5002c0 0.282-0.2175 0.4995-0.4995 0.4995a0.49275 0.49275 0 0 1-0.50025-0.4995v-1.0005c0-0.822-0.67725-1.5-1.5-1.5h-0.50025v-4.9995a0.9975 0.9975 0 0 0-0.99975-1.0005h-3.9997a0.9975 0.9975 0 0 0-1.0005 1.0005v7.9995a0.9975 0.9975 0 0 0 1.0005 1.0005h3.9997a0.9975 0.9975 0 0 0 0.99975-1.0005v-1.9995h0.50025c0.282 0 0.50025 0.2175 0.50025 0.4995v1.0005c0 0.822 0.67725 1.5 1.5 1.5 0.822 0 1.5-0.678 1.5-1.5v-6a2.913 2.913 0 0 0-0.8535-2.0602l-1.293-1.2938a0.50025 0.50025 0 0 0-0.432-0.14025zm-5.9235 1.9942h3c0.2775 0 0.50025 0.22275 0.50025 0.4995v2.5005h-3.999v-2.5005c0-0.27675 0.22275-0.4995 0.4995-0.4995zm7.0012 1.7498a0.75 0.75 0 1 1 0 1.5 0.75 0.75 0 0 1 0-1.5z" fill="#fff"/>
</svg>
