<?xml version="1.0" encoding="UTF-8"?>
<svg width="21" height="30" version="1.1" viewBox="0 0 21 30" xml:space="preserve" xmlns="http://www.w3.org/2000/svg">
 <defs>
  <linearGradient id="linearGradient1" x1="10.5" x2="10.5" y1="5" y2="29" gradientUnits="userSpaceOnUse">
   <stop stop-color="#fff" stop-opacity=".125" offset="0"/>
   <stop stop-color="#080808" stop-opacity=".125" offset="1"/>
  </linearGradient>
 </defs>
 <path d="m10.5 0c-5.8002 0-10.5 4.7022-10.5 10.475v4e-3c0.0091588 2.8463 1.1778 5.5656 3.2344 7.5332 1.5502 1.4956 3.4061 2.6146 4.4141 3.6992 0.50399 0.54229 0.7772 1.0253 0.84375 1.5156 0.066551 0.49028-0.037971 1.0824-0.60352 1.9551-0.32744 0.50519-0.50381 1.0951-0.50391 1.6973 8.05e-5 1.7081 1.4034 3.1209 3.1152 3.121 1.7118-8e-5 3.1152-1.4128 3.1152-3.1211-1e-4 -0.60213-0.17647-1.192-0.50391-1.6973v-2e-3c-0.56419-0.8714-0.67001-1.4633-0.60352-1.9531 0.06655-0.49028 0.33976-0.97334 0.84375-1.5156 1.008-1.0846 2.8638-2.2036 4.4141-3.6992 2.0566-1.9674 3.2252-4.6868 3.2344-7.5332v-4e-3c-6.1e-5 -5.7721-4.6998-10.475-10.5-10.475zm0 1c5.2629 0 9.4999 4.242 9.5 9.4746-0.0083 2.5763-1.0654 5.0381-2.9277 6.8184-2.8606 2.7598-7.4159 4.3931-4.7988 8.4316 0.22302 0.34368 0.34173 0.7446 0.3418 1.1543-5.5e-5 1.1714-0.94381 2.121-2.1152 2.1211-1.1714-5.5e-5 -2.1152-0.94967-2.1152-2.1211 6.83e-5 -0.4097 0.11878-0.81061 0.3418-1.1543 2.6171-4.0385-1.9382-5.6718-4.7988-8.4316-1.8623-1.7802-2.9194-4.242-2.9277-6.8184 5.52e-5 -5.2327 4.2371-9.4746 9.5-9.4746z" fill="#fff" opacity=".6"/>
 <path d="m10.5 1c5.2629 0 9.4999 4.242 9.5 9.4746-0.0083 2.5763-1.0654 5.0381-2.9277 6.8184-2.8606 2.7598-7.4159 4.3931-4.7988 8.4316 0.22302 0.34368 0.34173 0.7446 0.3418 1.1543-5.5e-5 1.1714-0.94381 2.121-2.1152 2.1211-1.1714-5.5e-5 -2.1152-0.94967-2.1152-2.1211 6.83e-5 -0.4097 0.11878-0.81061 0.3418-1.1543 2.6171-4.0385-1.9382-5.6718-4.7988-8.4316-1.8623-1.7802-2.9194-4.242-2.9277-6.8184 5.52e-5 -5.2327 4.2371-9.4746 9.5-9.4746z" fill="url(#linearGradient1)"/>
 <path d="m15.214 8.3568h-0.61457l-1.161-1.935c-0.06172-0.102-0.16286-0.17443-0.27986-0.19886-0.11614-0.024-0.23914 0.00172-0.33643 0.070715l-2.8882 2.0632h1.4747l1.5338-1.0954 0.65743 1.0954h-1.8146v0.85718h3v3.4285h-5.1428v-0.85718h-0.85718v1.2857c0 0.237 0.192 0.42857 0.42857 0.42857h2.9494l-0.096 0.192c-0.07285 0.14614-0.21943 0.23657-0.38272 0.23657h-2.7218l-1.0346-1.0346v-2.2162l1.0346-1.035h1.5368v0.42857c0 0.23614-0.192 0.42857-0.42857 0.42857h-0.85717v0.85718h0.85717c0.70886 0 1.2857-0.57686 1.2857-1.2857v-0.85718c0-0.23657-0.19157-0.42857-0.42857-0.42857h-2.1428c-0.11357 0-0.22286 0.044572-0.303 0.126l-0.78555 0.78518c-0.06-0.031282-0.12472-0.054-0.19714-0.054h-1.7143c-0.23657 0-0.42857 0.192-0.42857 0.42857v3.4286c0 0.237 0.192 0.42857 0.42857 0.42857h1.7143c0.072428 0 0.13714-0.02228 0.19714-0.054l0.78555 0.786c0.08014 0.07972 0.18943 0.12514 0.303 0.12514h2.8993c0.49028 0 0.93083-0.27214 1.1498-0.711l0.28715-0.57472h2.0923c0.237 0 0.42857-0.19157 0.42857-0.42857v-4.2857c0-0.23657-0.19157-0.42857-0.42857-0.42857zm-8.1428 4.7143h-0.85718v-2.5714h0.85718z" fill="#fff"/>
</svg>
