<?xml version="1.0" encoding="UTF-8"?>
<svg width="21" height="30" version="1.1" viewBox="0 0 21 30" xml:space="preserve" xmlns="http://www.w3.org/2000/svg">
 <defs>
  <linearGradient id="linearGradient1" x1="10.5" x2="10.5" y1="5" y2="29" gradientUnits="userSpaceOnUse">
   <stop stop-color="#fff" stop-opacity=".125" offset="0"/>
   <stop stop-color="#080808" stop-opacity=".125" offset="1"/>
  </linearGradient>
 </defs>
 <path d="m10.5 0c-5.8002 0-10.5 4.7022-10.5 10.475v4e-3c0.0091588 2.8463 1.1778 5.5656 3.2344 7.5332 1.5502 1.4956 3.4061 2.6146 4.4141 3.6992 0.50399 0.54229 0.7772 1.0253 0.84375 1.5156 0.066551 0.49028-0.037971 1.0824-0.60352 1.9551-0.32744 0.50519-0.50381 1.0951-0.50391 1.6973 8.05e-5 1.7081 1.4034 3.1209 3.1152 3.121 1.7118-8e-5 3.1152-1.4128 3.1152-3.1211-1e-4 -0.60213-0.17647-1.192-0.50391-1.6973v-2e-3c-0.56419-0.8714-0.67001-1.4633-0.60352-1.9531 0.06655-0.49028 0.33976-0.97334 0.84375-1.5156 1.008-1.0846 2.8638-2.2036 4.4141-3.6992 2.0566-1.9674 3.2252-4.6868 3.2344-7.5332v-4e-3c-6.1e-5 -5.7721-4.6998-10.475-10.5-10.475zm0 1c5.2629 0 9.4999 4.242 9.5 9.4746-0.0083 2.5763-1.0654 5.0381-2.9277 6.8184-2.8606 2.7598-7.4159 4.3931-4.7988 8.4316 0.22302 0.34368 0.34173 0.7446 0.3418 1.1543-5.5e-5 1.1714-0.94381 2.121-2.1152 2.1211-1.1714-5.5e-5 -2.1152-0.94967-2.1152-2.1211 6.83e-5 -0.4097 0.11878-0.81061 0.3418-1.1543 2.6171-4.0385-1.9382-5.6718-4.7988-8.4316-1.8623-1.7802-2.9194-4.242-2.9277-6.8184 5.52e-5 -5.2327 4.2371-9.4746 9.5-9.4746z" fill="#fff" opacity=".6"/>
 <path d="m10.5 1c5.2629 0 9.4999 4.242 9.5 9.4746-0.0083 2.5763-1.0654 5.0381-2.9277 6.8184-2.8606 2.7598-7.4159 4.3931-4.7988 8.4316 0.22302 0.34368 0.34173 0.7446 0.3418 1.1543-5.5e-5 1.1714-0.94381 2.121-2.1152 2.1211-1.1714-5.5e-5 -2.1152-0.94967-2.1152-2.1211 6.83e-5 -0.4097 0.11878-0.81061 0.3418-1.1543 2.6171-4.0385-1.9382-5.6718-4.7988-8.4316-1.8623-1.7802-2.9194-4.242-2.9277-6.8184 5.52e-5 -5.2327 4.2371-9.4746 9.5-9.4746z" fill="url(#linearGradient1)"/>
 <path d="m10.196 3.7498c-0.83175 0-1.506 0.63616-1.506 1.421 0 0.78488 0.67424 1.421 1.506 1.421 0.83175 0 1.506-0.63616 1.506-1.421 0-0.78488-0.67424-1.421-1.506-1.421zm-4.3297 2.842 0.3765 1.4211c0.18824 0.71051 0.6379 0.71051 1.2001 0.71051h1.2471c0.44709 0.71051 0.23694 1.8656 0.3765 2.9514h-0.6824c-0.753 0-1.9531 0.71051-1.2001 2.1316l1.1295 2.1316c0.753 1.421 1.8824 0.35526 1.506-0.35526l-1.1295-2.1316c-0.18824-0.35526 0.19902-0.35526 0.3765-0.35526h1.8584s0.89138 1.7577 1.9413 3.0373c0.38758 0.47229 0.8169 1.1165 1.3543 1.1165 0.37648 0 1.0216-0.54904 0.33501-1.3222-1.2859-1.448-2.1004-2.9409-2.1004-3.6514 0-0.82643-0.15386-2.5669-0.37648-3.5526h1.1295c0.36746 0.69494 1.0124 1.7763 1.0124 1.7763 0.4162 0.6803 1.1006 0.62889 1.1006 0 0-0.08619-0.011-0.27176-0.1051-0.48092l-1.0666-2.3611c-0.06966-0.15411-0.19082-0.35526-0.753-0.35526h-5.8357l-0.56474-1.7764c-0.22589-0.71051-1.3178-0.71051-1.3178 0 0 0.35526 0.1334 0.7866 0.18824 1.0658z" fill="#fff"/>
</svg>
