<?xml version="1.0" encoding="UTF-8"?>
<svg width="12" height="12" version="1.1" viewBox="0 0 12 12" xmlns="http://www.w3.org/2000/svg">
 <path d="m1 2.4286v0.71429a0.71429 0.71429 0 0 0 0.71429 0.71429h8.5714a0.71429 0.71429 0 0 0 0.71429-0.71429v-0.71429a0.71429 0.71429 0 0 0-0.71429-0.71429 0.71429 0.71429 0 0 0-0.71429 0.71429v0.71429h-1.4286v-0.71429a0.71429 0.71429 0 0 0-0.71429-0.71429h-7e-7a0.71429 0.71429 0 0 0-0.71429 0.71429v0.71429h-1.4286v-0.71429a0.71429 0.71429 0 0 0-0.71429-0.71429h-4e-7a0.71429 0.71429 0 0 0-0.71429 0.71429v0.71429h-1.4286v-0.71429a0.71429 0.71429 0 0 0-0.71429-0.71429h-4e-7a0.71429 0.71429 0 0 0-0.71429 0.71429zm0 2.8571v4.2857a0.71429 0.71429 0 0 0 0.71429 0.71429h1.0714c0-2.1429 0.70549-4.6429 3.2143-4.6429 2.4318-0.019265 3.2143 2.5 3.2143 4.6429h1.0714a0.71429 0.71429 0 0 0 0.71429-0.71429v-4.2857a0.71429 0.71429 0 0 0-0.71429-0.71429h-8.5714a0.71429 0.71429 0 0 0-0.71429 0.71429zm5 1.4286c-1.4286 0-2.1429 1.4286-2.1429 3.5714h4.2857c0-2.1429-0.71429-3.5714-2.1429-3.5714z" fill="#7f5933"/>
</svg>
