<?xml version="1.0" encoding="UTF-8"?>
<svg width="18" height="18" version="1.1" viewBox="0 0 18 18" xmlns="http://www.w3.org/2000/svg">
 <path d="m2 4v1a1 1 0 0 0 1 1h12a1 1 0 0 0 1-1v-1a1 1 0 0 0-1-1 1 1 0 0 0-1 1v1h-2v-1a1 1 0 0 0-1-1h-1e-6a1 1 0 0 0-1 1v1h-2v-1a1 1 0 0 0-1-1h-7e-7a1 1 0 0 0-1 1v1h-2v-1a1 1 0 0 0-1-1h-8e-7a1 1 0 0 0-1 1zm0 4v6a1 1 0 0 0 1 1h1.5c0-3 0.98768-6.5 4.5-6.5 3.4045-0.02697 4.5 3.5 4.5 6.5h1.5a1 1 0 0 0 1-1v-6a1 1 0 0 0-1-1h-12a1 1 0 0 0-1 1zm7 2c-2 0-3 2-3 5h6c0-3-1-5-3-5z" fill="#7f5933"/>
</svg>
