<?xml version="1.0" encoding="UTF-8"?>
<svg width="18" height="18" version="1.1" viewBox="0 0 18 18" xmlns="http://www.w3.org/2000/svg">
 <circle cx="9" cy="9" r="9" fill="#fff" opacity=".6"/>
 <circle cx="9" cy="9" r="8.25" fill="#c15746"/>
 <path d="m12.889 4h-7.7777c-0.6111 0-1.1055 0.49999-1.1055 1.1111l-0.00556 7.7778c0 0.6111 0.49999 1.1111 1.1111 1.1111h7.7778c0.6111 0 1.1111-0.49999 1.1111-1.1111v-7.7778c0-0.6111-0.49999-1.1111-1.1111-1.1111z" fill="#fff"/>
 <path d="m11.916 10h-1.916v1.9166c0 0.32084-0.2625 0.58334-0.58334 0.58334h-0.83332c-0.32084 0-0.58334-0.2625-0.58334-0.58334v-1.9166h-1.9174c-0.32084 0-0.58333-0.2625-0.58333-0.58334v-0.83332c0-0.32084 0.2625-0.58334 0.58333-0.58334h1.9174v-1.9168c0-0.32084 0.2625-0.58334 0.58334-0.58334h0.83332c0.32084 0 0.58334 0.2625 0.58334 0.58334v1.9168h1.916c0.32084 0 0.58334 0.2625 0.58334 0.58334v0.83332c0 0.32084-0.2625 0.58334-0.58334 0.58334z" fill="#c15746"/>
</svg>
