<svg height="14" viewBox="0 0 14 14" width="14" xmlns="http://www.w3.org/2000/svg">
  <g id="dance-m" fill-rule="nonzero">
  <path style="fill:#717065;fill-opacity:1;stroke:none"
      d="M9.5 0a1 1 0 0 0 0 2 1 1 0 0 0 0-2zm-5 2a.5.5 0 0 0-.22.95l2 1a.5.5 0 0 0 .57-.1l.78-.78.37.12v6.1l-1.85 1.85a.5.5 0 0 0 .7.7l2-2A.5.5 0 0 0 9 9.5V7.71l1.93 1.92-.9 2.7a.5.5 0 0 0 .31.64.5.5 0 0 0 .64-.32l1-3c.07-.23 0-.37-.12-.5L10 7.29V3.86l.14.05.89 1.85a.5.5 0 0 0 .68.23l2.02-1.05a.5.5 0 0 0 .22-.67.5.5 0 0 0-.68-.21l-1.56.8-.76-1.58a.5.5 0 0 0-.29-.26l-2.1-.69-.9-.3a.5.5 0 0 0-.51.11l-.75.75-1.67-.83A.5.5 0 0 0 4.5 2zM5 4.33 1 5.66V9a1 1 0 1 0 1 1V6.95l2-.67V8a1 1 0 1 0 1 1V4.33z" />
  </g>
</svg>
