<?xml version="1.0" encoding="UTF-8"?>
<svg width="18" height="18" version="1.1" viewBox="0 0 18 18" xmlns="http://www.w3.org/2000/svg">
 <circle cx="9" cy="9" r="9" fill="#fff" opacity=".6"/>
 <circle cx="9" cy="9" r="8.25" fill="#c15746"/>
 <path d="m13.583 11h-2.5833v2.5833c0 0.50417-0.4125 0.91667-0.91667 0.91667h-2.1667c-0.50417 0-0.91667-0.4125-0.91667-0.91667v-2.5833h-2.5834c-0.50417 0-0.91665-0.4125-0.91665-0.91667v-2.1667c0-0.50417 0.4125-0.91667 0.91665-0.91667h2.5834v-2.5833c0-0.50417 0.4125-0.91667 0.91667-0.91667h2.1667c0.50417 0 0.91667 0.4125 0.91667 0.91667v2.5833h2.5833c0.50417 0 0.91667 0.4125 0.91667 0.91667v2.1667c0 0.50417-0.4125 0.91667-0.91667 0.91667z" fill="#fff"/>
</svg>
