<?xml version="1.0" encoding="UTF-8"?>
<svg width="18" height="18" version="1.1" viewBox="0 0 18 18" xmlns="http://www.w3.org/2000/svg">
 <path d="m9.4386 9.1886-0.29526 5.938q-0.0164 0.26246-0.20504 0.44289-0.18864 0.18044-0.51671 0.18044-0.26245 0-0.45109-0.18044-0.18864-0.18044-0.20504-0.44289l-0.29526-5.2819-2.0832-1.1974-0.22965 0.85298 1.0006 1.7552q0.13123 0.22965 0.05741 0.4921-0.07381 0.26245-0.30346 0.39368-0.22965 0.13123-0.4921 0.06561-0.26245-0.06561-0.39368-0.29526l-1.1482-1.9848q-0.06561-0.11482-0.08202-0.24605-0.0164-0.13123 0.0164-0.26245l0.70535-2.5589 3.7728-2.1652-1.3451-1.3451q-0.18044-0.18044-0.18864-0.45109-0.0082-0.27066 0.18864-0.4675 0.18044-0.18044 0.4593-0.18044t0.4593 0.18044l1.952 1.9356q0.22965 0.22965 0.18864 0.54951-0.04101 0.31987-0.31987 0.4839l-1.6239 0.93499 0.78736 0.68894 4.921-4.0188q0.18044-0.16403 0.43469-0.13943 0.25425 0.024605 0.45109 0.25425 0.14763 0.18044 0.13943 0.41008-0.0082 0.22965-0.17224 0.41009zm-4.921-3.2807q-0.54131 0-0.92679-0.38548-0.38548-0.38548-0.38548-0.92679t0.38548-0.92679q0.38548-0.38548 0.92679-0.38548t0.92679 0.38548q0.38548 0.38548 0.38548 0.92679t-0.38548 0.92679q-0.38548 0.38548-0.92679 0.38548z" fill="#717065"/>
</svg>
