<?xml version="1.0" encoding="UTF-8"?>
<svg version="1.1" viewBox="0 0 16 16" width="12" height="12" xmlns="http://www.w3.org/2000/svg">
 <path d="m4 0c-0.73689-3.6174e-4 -1.3343 0.59709-1.334 1.334v12c-3.617e-4 0.73689 0.59709 1.3343 1.334 1.334h2.668c0.73689 3.61e-4 1.3343-0.59708 1.334-1.334l-0.0019531-3.2461c1.4371-0.06384 2.7287-0.43851 3.7051-1.2676 1.153-0.97001 1.6289-2.337 1.6289-3.873 0-1.486-0.43586-2.8071-1.5508-3.7344-1.0553-0.87929-2.4837-1.2129-4.0625-1.2129h-3.7207zm3.7207 1.332c1.399 1e-7 2.4765 0.29403 3.209 0.9043 0.72421 0.6023 1.0703 1.5141 1.0703 2.7109 0 1.2365-0.37048 2.1938-1.1523 2.8516-0.7654 0.64987-1.8771 0.96875-3.3008 0.96875h-0.88086l0.0019532 4.5645h-2.668v-11.998l3.7207-0.0019532zm-1.0547 2.0234v3.4297h0.625c0.749 0 1.3172-0.17355 1.6875-0.4668 0.37859-0.30117 0.54297-0.73611 0.54297-1.2988 0-0.5786-0.15407-0.99018-0.4668-1.2676-0.3046-0.26947-0.77519-0.39648-1.4336-0.39648h-0.95508z" fill="#fff" opacity=".6"/>
 <path d="m4 13.333h2.6671l-1.998e-4 -4.5657h0.8798c1.4237 0 2.5356-0.31773 3.301-0.9676 0.78187-0.6578 1.1521-1.6157 1.1521-2.8522 0-1.1968-0.34629-2.1093-1.0705-2.7116-0.73247-0.61027-1.8099-0.90307-3.2089-0.90307l-3.7203 2e-4zm2.6669-9.9784h0.9548c0.6584 0 1.1277 0.12695 1.4323 0.39642 0.31273 0.2774 0.46819 0.6892 0.46819 1.2678 0 0.56272-0.16457 0.99833-0.54316 1.2995-0.37035 0.29325-0.9384 0.46735-1.6874 0.46735h-0.62469z" fill="#4e7c90" opacity=".6"/>
</svg>
