<?xml version="1.0" standalone="no"?><!DOCTYPE svg PUBLIC "-//W3C//DTD SVG 20010904//EN"
    "http://www.w3.org/TR/2001/REC-SVG-20010904/DTD/svg10.dtd">
<svg version="1.0" xmlns="http://www.w3.org/2000/svg" width="14" height="14" viewBox="0 0 512 512"
    preserveAspectRatio="xMidYMid meet">

  <g id="plant_nursery-m.svg" transform="translate(0.000000,512.000000) scale(0.100000,-0.100000)" fill="#507F34" stroke="none" >
    <path d="M2340 4773 c-376 -39 -726 -154 -1033 -341 -581 -353 -987 -928
-1121 -1585 -45 -218 -46 -263 -46 -1412 l0 -1095 150 0 150 0 0 1084 c0 1192
0 1199 61 1446 97 393 296 733 600 1025 745 714 1906 781 2737 158 96 -72 274
-243 358 -344 186 -223 339 -519 414 -803 67 -253 64 -187 67 -1434 l4 -1132
150 0 150 0 -4 1153 c-3 1247 0 1181 -58 1423 -234 989 -1066 1731 -2075 1849
-116 13 -406 18 -504 8z" />
    <path d="M3100 3160 c-257 -26 -503 -171 -651 -386 -46 -67 -106 -200 -131
-289 l-23 -80 -3 -1032 -3 -1033 171 0 170 0 0 569 0 569 248 5 c276 5 341 16
480 82 224 106 411 306 491 525 56 153 56 152 56 630 l0 445 -365 1 c-201 1
-399 -2 -440 -6z" />
    <path d="M1080 1768 c0 -364 5 -403 68 -522 67 -128 183 -225 332 -277 61 -21
81 -23 335 -23 l270 -1 0 335 c0 320 -1 338 -23 407 -45 144 -158 276 -295
343 -103 50 -173 60 -444 60 l-243 0 0 -322z" />
  </g>
</svg>
