<?xml version="1.0" encoding="UTF-8"?>
<svg width="18" height="18" version="1.1" viewBox="0 0 24 24" xml:space="preserve" xmlns="http://www.w3.org/2000/svg">
  <circle cx="12" cy="12" r="12" fill="#fff" opacity=".6"/>
  <circle cx="12" cy="12" r="11" fill="#717065"/>
  
  
<path d="m17.928 3.5346c-2.9295 1.7577-3.9492 2.4263-5.3641 3.7272a2.4187 2.4187 0 0 1 1.6368 1.6368c1.3088-1.4208 1.9568-2.4135 3.7272-5.3641zm-10.015 4.4193c-1.1142 0.026812-2.3683 0.16414-4.4972 0.41808 3.1463 1.2249 4.3067 1.6261 6.1648 1.9463a2.4187 2.4187 0 0 1-0.1181-0.73694 2.4187 2.4187 0 0 1 0.55507-1.54c-0.74461-0.065094-1.423-0.1038-2.1045-0.087394zm3.9682 0.41808a1.2093 1.2093 0 0 0-1.2093 1.2093 1.2093 1.2093 0 0 0 1.2093 1.2093 1.2093 1.2093 0 0 0 1.2093-1.2093 1.2093 1.2093 0 0 0-1.2093-1.2093zm2.3219 1.8849a2.4187 2.4187 0 0 1-2.3219 1.7431 2.4187 2.4187 0 0 1-0.86213-0.16298l-0.55507 7.4191h-2.2108v1.2093h7.2561v-1.2093h-2.4187l-0.40154-7.2442c1.3757 1.2598 2.3284 1.8661 5.239 3.6162-1.7686-2.9542-2.4155-3.9476-3.7249-5.3712z" fill="#fff" stroke-width=".94061"/></svg>
