<?xml version="1.0" encoding="UTF-8"?>
<svg version="1.1" viewBox="0 0 24 24" width="18" height="18" xmlns="http://www.w3.org/2000/svg">
	<g>
		<circle id="Oval" cx="12" cy="12" r="12" fill="#FFF" opacity=".6"/>
		<circle cx="12" cy="12" r="11" fill="#8C5F93"/>
	</g>
	<path d="m16.446 6.1355c-0.99735-1.7275-3.2367-2.3286-4.9642-1.3313-1.7275 0.99735-2.3265 3.2373-1.3292 4.9647 0.81698 1.415 2.4674 2.0726 3.987 1.7163l2.1528 3.7288-1.7979 1.038 1.0388 1.7992 1.7979-1.038 0.51939 0.89961 1.7992-1.0388-3.711-6.4277c1.0692-1.1378 1.3244-2.8955 0.50713-4.311zm-1.7979 1.038c0.43615 0.75544 0.18462 1.69-0.57081 2.1261-0.75544 0.43615-1.6906 0.1867-2.1267-0.56873-0.43615-0.75544-0.18538-1.6913 0.57005-2.1275 0.75544-0.43615 1.6913-0.18539 2.1275 0.57005z" fill="#FFF"/>
	<path d="m9.8593 9.3548c-0.28825-0.065582-0.5878-0.063237-0.87499 0.00685l-1.4828 0.36275c-1.2472 0.3047-2.3293 1.0778-3.0218 2.159l-1.287 2.1025c-0.59609 0.92983-0.3256 2.1668 0.60418 2.763l3.054 1.9573c0.92983 0.59609 2.1668 0.3256 2.763-0.60418l1.2875-2.1044c0.69292-1.0811 0.94301-2.3875 0.69839-3.6481l-0.29016-1.4984c-0.14398-0.74223-0.71294-1.3293-1.4503-1.4964zm-3.2495 2.77 3.3642 2.0371-0.62138 1.028-3.3661-2.0376zm-1.2381 1.9987 3.3661 2.0376-0.62328 1.0275-3.3642-2.0371z" fill="#FFF"/>
</svg>
