<?xml version="1.0" encoding="UTF-8"?>
<svg width="40" height="38" version="1.1" viewBox="0 0 40 38" xml:space="preserve" xmlns="http://www.w3.org/2000/svg">
 <defs>
  <filter id="filter1" x="-.051392" y="-.045028" width="1.1028" height="1.0901" color-interpolation-filters="sRGB">
   <feGaussianBlur stdDeviation="0.63706076"/>
  </filter>
 </defs>
 <path d="m35.164 1.5803c-0.12292-0.00508-0.23005-0.00103-0.30664 0.00391-0.52686 0.033944-1.0338 0.21302-1.4648 0.51367-1.6134 1.1222-2.5018 1.4234-3.0742 1.4687-0.58405 0.046261-1.2411-0.10396-2.627-0.78321-1.1869-0.58171-2.4576-0.94149-3.748-1.0938-3.4378-0.40561-7.077 0.66202-9.9277 3.0215-0.47681-0.29919-1.0435-0.45995-1.6367-0.43945-0.25278 0.00861-0.50333 0.050314-0.74805 0.125l-1.4082 0.43164c-1.5254 0.46958-2.3784 2.0801-1.9121 3.6055 0.22846 0.74879 0.73886 1.3472 1.3906 1.6992l6.3477 17.65v8e-3c-0.0014 0.0078-0.0036 0.01738-0.0059 0.02734-0.03322 0.14953-0.19798 0.51965-0.41602 0.87109-0.42552 0.68591-0.67383 1.4882-0.67383 2.3535 0 2.4688 2.0214 4.4902 4.4902 4.4902s4.4902-2.0214 4.4902-4.4902c0-0.94666-0.29762-1.8391-0.80469-2.5742-0.19103-0.27695-0.91926-1.179-1.0547-1.3633-0.18057-0.24571-0.28418-0.45506-0.2793-0.44141-0.43149-1.2081-0.86514-2.4155-1.2988-3.623 0.40711-0.13286 0.79581-0.36187 1.1328-0.69336 0.86369-0.84844 1.7346-1.4668 2.4844-1.7422 0.39507-0.14509 0.74245-0.21491 1.1289-0.2168 0.38646-0.0019 0.82419 0.06463 1.3887 0.26953 3.0509 1.1075 6.372 1.1013 9.6992-0.56055 0.98315-0.48904 1.6047-1.4918 1.6035-2.5879v-13.035c0.003127-1.5646-1.2189-2.8305-2.7695-2.8945z" filter="url(#filter1)" opacity=".3"/>
 <path d="m19.603 19.688-4.5433-12.62c3.1385-3.1728 7.8503-4.0076 11.358-2.2882 3.1372 1.5376 4.9933 1.6163 8.6237-0.90889l1e-6 13.041c-2.6179 1.3076-5.0292 1.3024-7.4253 0.43256-3.3809-1.2273-5.9472 0.31419-8.0134 2.3439z" fill="#fff"/>
 <path d="m35.164 0.98047c-0.12292-0.005075-0.23005-0.001032-0.30664 0.003906-0.52686 0.033944-1.0338 0.21302-1.4648 0.51367-1.6134 1.1222-2.5018 1.4234-3.0742 1.4688-0.58405 0.046265-1.2411-0.10395-2.627-0.7832-1.1869-0.58171-2.4576-0.94149-3.748-1.0938-3.4378-0.40561-7.077 0.66202-9.9277 3.0215-0.47681-0.29919-1.0435-0.45995-1.6367-0.43945-0.25278 0.00861-0.50333 0.050314-0.74805 0.125l-1.4082 0.43164c-1.5254 0.46958-2.3784 2.0801-1.9121 3.6055 0.22846 0.74879 0.73886 1.3472 1.3906 1.6992l6.3477 17.65v8e-3c-0.0014 0.0078-0.0036 0.01738-0.0059 0.02734-0.03322 0.14953-0.19798 0.51965-0.41602 0.87109-0.42552 0.68591-0.67383 1.4882-0.67383 2.3535 0 2.4688 2.0214 4.4902 4.4902 4.4902s4.4902-2.0214 4.4902-4.4902c0-0.94666-0.29762-1.8391-0.80469-2.5742-0.19103-0.27695-0.91926-1.179-1.0547-1.3633-0.18057-0.24571-0.28418-0.45506-0.2793-0.44141-0.43149-1.2081-0.86514-2.4155-1.2988-3.623 0.40711-0.13286 0.79581-0.36187 1.1328-0.69336 0.86369-0.84844 1.7346-1.4668 2.4844-1.7422 0.39507-0.14509 0.74245-0.21491 1.1289-0.2168 0.38646-0.0019 0.82419 0.06463 1.3887 0.26953 3.0509 1.1075 6.372 1.1013 9.6992-0.56055 0.98315-0.48904 1.6047-1.4918 1.6035-2.5879v-13.035c0.003127-1.5646-1.2189-2.8305-2.7695-2.8945z" fill="#fff"/>
 <path d="m12.443 5.5605c-0.08745 0.00298-0.17412 0.017429-0.25781 0.042969l-1.4062 0.43164c-0.5271 0.16226-0.82332 0.72063-0.66211 1.248 0.13692 0.44876 0.56742 0.742 1.0352 0.70508l6.7007 18.631c0.28934 0.80452-0.17658 1.7496-0.62087 2.4657-0.24593 0.39641-0.38843 0.86215-0.38843 1.3582 0 1.4241 1.1755 2.5996 2.5996 2.5996s2.5996-1.1755 2.5996-2.5996c0-0.5518-0.1733-1.0725-0.4693-1.5016-0.44089-0.63918-1.2934-1.5013-1.5579-2.2418-2.3038-6.4506-4.6403-12.878-6.9572-19.327 0.35026-0.25 0.5013-0.69605 0.375-1.1074-0.13295-0.4317-0.5388-0.72068-0.99024-0.70508zm22.535-2.6895a1.0001 1.0001 0 0 0-0.50781 0.17773c-1.7456 1.2142-2.9475 1.7191-4.0039 1.8027s-2.1028-0.23324-3.6074-0.9707c-0.98516-0.48285-2.0471-0.78551-3.1367-0.91406-3.2688-0.38567-6.8015 0.79683-9.373 3.3965a1.0001 1.0001 0 0 0-0.23047 1.043l4.543 12.619a1.0001 1.0001 0 0 0 1.6426 0.375c0.97573-0.95849 2.0287-1.7539 3.1562-2.168 1.1275-0.41408 2.3265-0.48934 3.8145 0.05078 2.5972 0.94278 5.3745 0.94118 8.2129-0.47656a1.0001 1.0001 0 0 0 0.55469-0.89648v-13.039a1.0001 1.0001 0 0 0-1.0645-1zm-12.424 2.041c0.31284-8.35e-4 0.62442 0.016044 0.93164 0.050781 0.12021 0.013592 0.24054 0.030022 0.35938 0.048828l0.85547 3.1836c0.65528 0.11347 1.33 0.33096 2.0234 0.68164 0.51761 0.26175 0.99506 0.47158 1.4395 0.63477l-0.73047-3.1953c1.0749 0.40441 2.1062 0.61526 3.1914 0.5293 0.30778-0.02438 0.61787-0.079449 0.93164-0.16211l0.26758 3.1445c0.78262-0.20575 1.4801-0.58403 2.2188-1.0039v4.1621c-0.60903 0.2756-1.2143 0.51379-1.8945 0.6543l0.25977 3.0703c-0.87307 0.2015-1.7194 0.24895-2.5645 0.15039l-0.75-3.2793c-0.48346-0.10035-1.0075-0.24278-1.582-0.43555-0.55238-0.18534-1.0808-0.31354-1.5859-0.39258l0.89258 3.3242c-1.355-0.28515-2.6292-0.18587-3.7695 0.18164l-1.1836-3.0918c-1.2554 0.48142-2.2225 1.2107-2.8984 1.7969l-1.6406-4.5586c0.86856-0.51588 1.834-1.0983 2.8867-1.5488l-1.2207-3.1895c1.1568-0.49526 2.374-0.75269 3.5625-0.75586zm6.5391 8.6699c1.2347 0.25629 2.2035 0.23441 3.0547 0.05859l-0.32422-3.8125c-0.99625 0.26191-2.1303 0.24535-3.6602-0.31641zm-4.3926-5.3867c-1.6252-0.28142-3.1297 0.080632-4.4883 0.66211l1.6504 4.3105h2e-3c1.1214-0.42976 2.4749-0.66218 4.0605-0.41406z"/>
</svg>
