<?xml version="1.0" encoding="UTF-8"?>
<svg width="36" height="36" version="1.1" viewBox="0 0 36 36" xml:space="preserve" xmlns="http://www.w3.org/2000/svg">
 <defs>
  <filter id="filter1" x="-.147" y="-.147" width="1.294" height="1.294" color-interpolation-filters="sRGB">
   <feGaussianBlur stdDeviation="1.5925" />
  </filter>
  <linearGradient id="linearGradient1" x1="18" x2="18" y1="3" y2="29" gradientUnits="userSpaceOnUse">
   <stop stop-color="#3fa8f3" offset="0" />
   <stop stop-color="#2089d4" offset="1" />
  </linearGradient>
 </defs>
 <circle cx="18" cy="18" r="13" filter="url(#filter1)" opacity=".35" />
 <circle cx="18" cy="16" r="13" fill="url(#linearGradient1)" stroke="#fff" stroke-width="2" />
 <g transform="translate(4.5 3.125) scale(1.125)">
  <g fill="#fff" fill-rule="evenodd">
   <g fill="#fff" fill-rule="nonzero">
    <path d="m18.188 18.75h-12.375c-0.31078 0-0.5625 0.25172-0.5625 0.5625v1.125c0 0.31078 0.25172 0.5625 0.5625 0.5625h12.375c0.31078 0 0.5625-0.25172 0.5625-0.5625v-1.125c0-0.31078-0.25172-0.5625-0.5625-0.5625zm-2.7724-12.208c-0.025746-0.25838-0.14016-0.49987-0.32379-0.68344l-2.6937-2.6933c-0.21973-0.21973-0.57586-0.21973-0.79559 0l-2.693 2.6933c-0.18363 0.18357-0.29804 0.42507-0.32379 0.68344l-1.0853 11.083h9zm-1.7276 7.2584c0 0.225-0.225 0.45-0.45 0.45h-2.475c-0.225 0-0.45-0.225-0.45-0.45v-1.35c0-0.225 0.225-0.45 0.45-0.45h2.475c0.225 0 0.45 0.225 0.45 0.45z" fill="#fff" fill-rule="nonzero" />
   </g>
  </g>
 </g>
</svg>
