<?xml version="1.0" encoding="UTF-8"?>
<svg width="36" height="36" version="1.1" viewBox="0 0 36 36" xml:space="preserve" xmlns="http://www.w3.org/2000/svg">
 <defs>
  <filter id="filter1" x="-.147" y="-.147" width="1.294" height="1.294" color-interpolation-filters="sRGB">
   <feGaussianBlur stdDeviation="1.5925"/>
  </filter>
  <linearGradient id="linearGradient1" x1="18" x2="18" y1="3" y2="29" gradientUnits="userSpaceOnUse">
   <stop stop-color="#3fa8f3" offset="0"/>
   <stop stop-color="#2089d4" offset="1"/>
  </linearGradient>
 </defs>
 <circle cx="18" cy="18" r="13" filter="url(#filter1)" opacity=".35"/>
 <circle cx="18" cy="16" r="13" fill="url(#linearGradient1)" stroke="#fff" stroke-width="2"/>
 <path d="m14.165 8.5611c-0.57872-0.57872-1.5173-0.57872-2.0967 0-0.57872 0.57872-0.57872 1.5173 0 2.0967 0.34213 0.34154 0.80938 0.47614 1.2535 0.41447l2.3108 2.3107 1.6768-1.6768-3.1444-3.145zm-0.73348 1.3572c-0.17374 0.17374-0.45539 0.17374-0.62912 0-0.17374-0.17374-0.17374-0.45538 0-0.62912 0.17374-0.17374 0.45539-0.17374 0.62912 0 0.17374 0.17374 0.17374 0.45539 0 0.62912zm10.587 8.4958-6.2889-6.2894-3.5607 3.5607c0.65936 1.1284 2.0664 2.912 3.3508 4.1963 0.86987 0.86987 1.7943 1.6335 2.7478 2.2835l-0.42574 0.42574c-0.95169-0.65699-1.8732-1.4214-2.7412-2.29-1.0958-1.0958-2.5497-2.8018-3.3674-4.1797l-0.62379 0.62379c0.73348 1.2577 2.1459 2.9695 3.362 4.1851 1.2156 1.2156 2.5082 2.2088 3.7659 2.9428l3.7813-3.7813c0.46369-0.46369 0.46369-1.2143 0-1.6774zm-1.2577 1.2577c-0.23184 0.23184-0.60718 0.23184-0.83843 0-0.23184-0.23184-0.23184-0.60718 0-0.83843 0.23184-0.23184 0.60718-0.23184 0.83843 0 0.23184 0.23184 0.23184 0.60718 0 0.83843z" fill="#fff"/>
</svg>
