<?xml version="1.0" encoding="UTF-8"?>
<svg width="36" height="36" version="1.1" viewBox="0 0 36 36" xml:space="preserve" xmlns="http://www.w3.org/2000/svg">
 <defs>
  <filter id="filter1" x="-.147" y="-.147" width="1.294" height="1.294" color-interpolation-filters="sRGB">
   <feGaussianBlur stdDeviation="1.5925"/>
  </filter>
  <linearGradient id="linearGradient1" x1="18" x2="18" y1="3" y2="29" gradientUnits="userSpaceOnUse">
   <stop stop-color="#3fa8f3" offset="0"/>
   <stop stop-color="#2089d4" offset="1"/>
  </linearGradient>
 </defs>
 <circle cx="18" cy="18" r="13" filter="url(#filter1)" opacity=".35"/>
 <circle cx="18" cy="16" r="13" fill="url(#linearGradient1)" stroke="#fff" stroke-width="2"/>
 <path d="m18 6.9097a4.4349 4.4349 0 0 0-4.4348 4.4348 4.4349 4.4349 0 0 0 1.177 2.9982c-0.39352-0.11437-0.80918-0.17706-1.2396-0.17706-2.4493 0-4.4348 1.9857-4.4348 4.435 0 2.4493 1.9855 4.4348 4.4348 4.4348 1.6523 0 3.0925-0.90424 3.8556-2.2442-0.0036 0.07531-0.0091 0.15025-0.01618 0.22457-0.0075 0.07984-0.01682 0.15912-0.028 0.23776-0.0111 0.07864-0.02437 0.15672-0.03913 0.23404-0.0295 0.15462-0.06595 0.30651-0.10913 0.45527-0.0432 0.14876-0.09312 0.29425-0.14922 0.43634-0.0561 0.14209-0.11843 0.28074-0.18672 0.41537-0.06828 0.13463-0.14246 0.26525-0.22216 0.39161-0.07143 0.11327-0.14879 0.22192-0.22883 0.32795-0.0091 0.0123-0.01717 0.02574-0.02652 0.03786-0.09037 0.11732-0.18587 0.22996-0.28618 0.33741-0.10031 0.10747-0.20544 0.20979-0.31496 0.30661-0.10118 0.08946-0.20691 0.17289-0.31533 0.2526l-3.7e-4 0.0021 5.62e-4 0.0015c-0.0042 0.0043-0.0096 7e-3 -0.01395 0.0114-0.01662 0.01662-0.03151 0.03486-0.0447 0.05439-0.0132 0.01954-0.02445 0.04042-0.03378 0.06237-0.0093 0.02196-0.01662 0.04498-0.02152 0.06886-5e-3 0.02388-0.0075 0.04869-0.0075 0.07405 0 0.02538 3e-3 0.05019 0.0075 0.07405 5e-3 0.02388 0.0123 0.0469 0.02152 0.06886 0.0092 0.02196 0.0206 0.04284 0.03378 0.06237 0.0132 0.01953 0.02815 0.03778 0.0447 0.05439 0.01662 0.01662 0.03484 0.03151 0.05439 0.0447 0.01953 0.0132 0.04042 0.02467 0.06238 0.03399 0.02196 0.0092 0.04498 0.01647 0.06886 0.02132 0.02388 5e-3 0.04869 0.0075 0.07405 0.0075h4.6366c0.02538 0 0.05019-3e-3 0.07405-0.0075 0.02388-5e-3 0.04692-0.012 0.06886-0.02132 0.02196-0.0093 0.04285-0.02074 0.06237-0.03399 0.01953-0.0132 0.03778-0.02808 0.05439-0.0447 0.01662-0.0166 0.03172-0.03484 0.04492-0.05439 0.0132-0.01954 0.02445-0.04042 0.03378-0.06237 0.0091-0.02196 0.01647-0.04498 0.02131-0.06886 5e-3 -0.02388 0.0075-0.04869 0.0075-0.07405 0-0.02538-3e-3 -0.05019-0.0075-0.07405-5e-3 -0.02388-0.012-0.04692-0.02131-0.06886-0.0092-0.02196-0.0206-0.04284-0.03378-0.06237-0.0132-0.01953-0.02829-0.03778-0.04492-0.05439-0.0043-0.0042-0.0093-0.0073-0.0138-0.0114l5.7e-4 -0.0015v-0.0021c-0.10853-0.07978-0.21459-0.16324-0.31588-0.25278-0.10951-0.09681-0.21464-0.19915-0.31496-0.3066-0.05367-0.05752-0.10223-0.1202-0.15313-0.18058-0.04419-0.05247-0.09105-0.10229-0.13307-0.15684-0.09037-0.11731-0.1755-0.23944-0.2552-0.3658-0.07971-0.12638-0.15388-0.25698-0.22216-0.39161-0.06829-0.13463-0.1306-0.27328-0.1867-0.41537-0.0561-0.14209-0.10604-0.28758-0.14923-0.43634-0.04321-0.14876-0.07978-0.30065-0.10931-0.45528-0.0147-0.07731-0.02773-0.1554-0.03898-0.23403-0.0111-0.07864-0.02069-0.1579-0.02823-0.23776-7e-3 -0.07426-0.01215-0.14915-0.01596-0.22439 0.76305 1.3399 2.2034 2.244 3.8556 2.244 2.4493 0 4.4348-1.9855 4.4348-4.4348 0-2.4493-1.9855-4.435-4.4348-4.435-0.4305 0-0.84622 0.06267-1.2398 0.17706a4.4349 4.4349 0 0 0 1.1773-2.9982 4.4349 4.4349 0 0 0-4.435-4.4348z" fill="#fff"/>
</svg>
