<?xml version="1.0" encoding="UTF-8"?>
<svg width="36" height="36" version="1.1" viewBox="0 0 36 36" xml:space="preserve" xmlns="http://www.w3.org/2000/svg">
 <defs>
  <filter id="filter1" x="-.147" y="-.147" width="1.294" height="1.294" color-interpolation-filters="sRGB">
   <feGaussianBlur stdDeviation="1.5925"/>
  </filter>
  <linearGradient id="linearGradient1" x1="18" x2="18" y1="3" y2="29" gradientUnits="userSpaceOnUse">
   <stop stop-color="#3fa8f3" offset="0"/>
   <stop stop-color="#2089d4" offset="1"/>
  </linearGradient>
 </defs>
 <circle cx="18" cy="18" r="13" filter="url(#filter1)" opacity=".35"/>
 <circle cx="18" cy="16" r="13" fill="url(#linearGradient1)" stroke="#fff" stroke-width="2"/>
 <path d="m11.479 22.113c-0.77385-0.19836-1.4486-0.91035-1.6292-1.7192-0.12164-0.54494-0.03653-1.177 0.22591-1.6778 0.17359-0.33122 0.54351-0.71178 0.86302-0.88792 0.45036-0.24822 0.55978-0.26924 1.5429-0.29652 0.86295-0.02394 0.89535-0.02769 1.0891-0.12586 0.10982-0.05565 0.95932-0.67026 1.8878-1.3658 0.9285-0.69554 1.7005-1.2527 1.7156-1.2381 0.01512 0.01456 0.0233 1.1118 0.01816 2.4384l-0.0093 2.4119-1.4522 1.0834c-0.79868 0.59587-1.5502 1.1302-1.67 1.1876-0.44791 0.21415-0.64396 0.24445-1.5586 0.24088-0.53288-0.0021-0.90502-0.02059-1.0234-0.05092zm6.5998-0.034579-0.07894-0.08875v-11.979l3.0041-1.5096 3.0041 1.5293v11.99l-0.0857 0.0733c-0.07215 0.0617-0.14564 0.07331-0.46452 0.07331-0.3538 0-0.3847-0.0062-0.46792-0.09412l-0.08911-0.09413v-2.6877h-3.8119v2.7092l-0.08402 0.08338c-0.07527 0.07468-0.12379 0.08338-0.46562 0.08338-0.35194 0-0.38774-0.0069-0.46053-0.08875zm4.822-9.4403v-1.438h-3.8119v2.876h3.8119z" fill="#fff"/>
</svg>
