<?xml version="1.0" encoding="UTF-8"?>
<svg width="36" height="36" version="1.1" viewBox="0 0 36 36" xml:space="preserve" xmlns="http://www.w3.org/2000/svg">
 <defs>
  <filter id="filter1" x="-.147" y="-.147" width="1.294" height="1.294" color-interpolation-filters="sRGB">
   <feGaussianBlur stdDeviation="1.5925"/>
  </filter>
  <linearGradient id="linearGradient1" x1="18" x2="18" y1="3" y2="29" gradientUnits="userSpaceOnUse">
   <stop stop-color="#3fa8f3" offset="0"/>
   <stop stop-color="#2089d4" offset="1"/>
  </linearGradient>
 </defs>
 <circle cx="18" cy="18" r="13" filter="url(#filter1)" opacity=".35"/>
 <circle cx="18" cy="16" r="13" fill="url(#linearGradient1)" stroke="#fff" stroke-width="2"/>
 <path d="m24.3 9.175v3.1501h-0.54601c-0.13098-0.90293-0.90418-1.5734-1.8166-1.575h-5.5127v1.575h-0.67097c0.09447-0.15891 0.14488-0.34014 0.14595-0.52502 0-0.57991-0.47012-1.05-1.05-1.05h-1.575c-0.57991 0-1.05 0.47012-1.05 1.05 0.0011 0.18486 0.05148 0.3661 0.14595 0.52502h-0.67097v-3.1501h-1.575v13.65h1.575v-1.575h12.6v1.575h1.575v-13.65zm-2.3626 7.8752h-5.5127v1.575h-0.67097c0.09447-0.15891 0.14487-0.34014 0.14595-0.52502 0-0.57991-0.47012-1.05-1.05-1.05h-1.575c-0.57991 0-1.05 0.47012-1.05 1.05 0.0011 0.18486 0.05148 0.3661 0.14595 0.52502h-0.67097v-3.6751h12.6v3.6751h-0.54601c-0.13101-0.90293-0.90418-1.5734-1.8166-1.575z" fill="#fff"/>
</svg>
