<?xml version="1.0" encoding="UTF-8"?>
<svg width="36" height="36" version="1.1" viewBox="0 0 36 36" xml:space="preserve" xmlns="http://www.w3.org/2000/svg">
 <defs>
  <filter id="filter1" x="-.147" y="-.147" width="1.294" height="1.294" color-interpolation-filters="sRGB">
   <feGaussianBlur stdDeviation="1.5925"/>
  </filter>
  <linearGradient id="linearGradient1" x1="18" x2="18" y1="3" y2="29" gradientUnits="userSpaceOnUse">
   <stop stop-color="#3fa8f3" offset="0"/>
   <stop stop-color="#2089d4" offset="1"/>
  </linearGradient>
 </defs>
 <circle cx="18" cy="18" r="13" filter="url(#filter1)" opacity=".35"/>
 <circle cx="18" cy="16" r="13" fill="url(#linearGradient1)" stroke="#fff" stroke-width="2"/>
 <path d="m20.201 8.2907c-0.0015-0.09069-0.07489-0.16391-0.16558-0.16561l-0.011194-7.6e-5c-0.11508 0-1.1427 0.01869-1.7897 0.66569-0.33796 0.338-0.50459 0.77638-0.58652 1.1361-0.07023-0.2174-0.18576-0.45171-0.3766-0.6426-0.47092-0.47098-1.2153-0.48457-1.2987-0.48457l-0.0089 5.1e-5c-0.09058 0.0018-0.16404 0.07494-0.16553 0.16558-5.67e-4 0.03304-8e-3 0.81498 0.48457 1.3074 0.47106 0.47103 1.2153 0.48461 1.2987 0.48461l0.0087-5.1e-5 0.14434-7.8e-5 0.0111 7.8e-5h5.3e-5c0.11511 0 1.1425-0.0187 1.7899-0.66574 0.67629-0.67665 0.66623-1.7553 0.66543-1.8009zm0.94454 7.2964c-0.2502-0.77488-0.25462-1.176-0.25462-1.8169 0-1.5968-1.2945-2.8912-2.8912-2.8912-1.5968 0-2.8912 1.2944-2.8912 2.8912 0 0.64089-0.0044 1.0419-0.25462 1.8169-0.25028 0.77488-1.3734 2.1248-1.3734 3.7686 0 2.4959 2.0234 4.5193 4.5193 4.5193s4.5192-2.0233 4.5192-4.5193c0-1.6437-1.1231-2.9936-1.3734-3.7686z" fill="#fff"/>
</svg>
