<?xml version="1.0" encoding="UTF-8"?>
<svg width="36" height="36" version="1.1" viewBox="0 0 36 36" xml:space="preserve" xmlns="http://www.w3.org/2000/svg">
 <defs>
  <filter id="filter1" x="-.147" y="-.147" width="1.294" height="1.294" color-interpolation-filters="sRGB">
   <feGaussianBlur stdDeviation="1.5925" />
  </filter>
  <linearGradient id="linearGradient1" x1="18" x2="18" y1="3" y2="29" gradientUnits="userSpaceOnUse">
   <stop stop-color="#3fa8f3" offset="0" />
   <stop stop-color="#2089d4" offset="1" />
  </linearGradient>
 </defs>
 <circle cx="18" cy="18" r="13" filter="url(#filter1)" opacity=".35" />
 <circle cx="18" cy="16" r="13" fill="url(#linearGradient1)" stroke="#fff" stroke-width="2" />
 <g transform="translate(4.5 3.125) scale(1.125)">
  <g opacity="1">
   <path d="m5.999 6.584c-0.77352 0-1.416 0.64249-1.416 1.416v7.332c4.1e-5 0.4142 0.3358 0.74996 0.75 0.75h0.72461c0.3044 0.77641 1.0636 1.334 1.9414 1.334 0.87716 0 1.6366-0.5565 1.9414-1.332h4.1172c0.30484 0.77554 1.0642 1.332 1.9414 1.332s1.6366-0.5565 1.9414-1.332h0.72461c0.4142-4.1e-5 0.74996-0.3358 0.75-0.75v-3.3184c7.06e-4 -0.0052 0.0014-0.01041 2e-3 -0.01563-7.5e-5 -0.02479-0.0014-0.04956-0.0039-0.07422-0.01389-1.4044-0.41753-2.688-1.1133-3.6621-0.70808-0.99132-1.7626-1.6797-2.9668-1.6797zm0.08398 1.357h1.8633v2.8715h-1.8633zm3.2539 0h1.9121v2.8715h-1.9121zm3.2953 0h1.4274l0.58594 2.8715h-2.0133zm2.686 0c2.2166 0.34738 2.7966 2.607 2.8669 4.01l-1.9126-0.02337zm-7.3192 6.5121c0.49963 0 0.88086 0.37927 0.88086 0.87891s-0.38122 0.88086-0.88086 0.88086c-0.49963 0-0.88086-0.38123-0.88086-0.88086s0.38123-0.87891 0.88086-0.87891zm8 0c0.49964 0 0.88086 0.37927 0.88086 0.87891 0 0.49963-0.38122 0.88086-0.88086 0.88086-0.49963 0-0.88086-0.38123-0.88086-0.88086s0.38122-0.87891 0.88086-0.87891z" fill="#fff" />
  </g>
 </g>
</svg>
