<?xml version="1.0" encoding="UTF-8"?>
<svg width="36" height="36" version="1.1" viewBox="0 0 36 36" xml:space="preserve" xmlns="http://www.w3.org/2000/svg">
 <defs>
  <filter id="filter1" x="-.147" y="-.147" width="1.294" height="1.294" color-interpolation-filters="sRGB">
   <feGaussianBlur stdDeviation="1.5925"/>
  </filter>
  <linearGradient id="linearGradient1" x1="18" x2="18" y1="3" y2="29" gradientUnits="userSpaceOnUse">
   <stop stop-color="#3fa8f3" offset="0"/>
   <stop stop-color="#2089d4" offset="1"/>
  </linearGradient>
 </defs>
 <circle cx="18" cy="18" r="13" filter="url(#filter1)" opacity=".35"/>
 <circle cx="18" cy="16" r="13" fill="url(#linearGradient1)" stroke="#fff" stroke-width="2"/>
 <path d="m22.979 14.215h-1.1096c0.24895-0.41964 0.39831-0.90331 0.39831-1.4226 0-1.572-1.2732-2.8451-2.8451-2.8451-0.24183 0-0.46944 0.03557-0.69704 0.09246-0.58324-0.48367-1.323-0.78951-2.1481-0.78951-1.3442 0-2.4966 0.78951-3.0371 1.9276-1.1238 0.37697-1.9417 1.4296-1.9417 2.6815 0 1.323 0.91042 2.4255 2.1338 2.7455v6.1454h7.824v-1.4225h1.4226c0.7824 0 1.4226-0.64014 1.4226-1.4226v-4.2677c0-0.7824-0.64014-1.4226-1.4226-1.4226zm-8.5352 1.0669c-0.7824 0-1.4226-0.64014-1.4226-1.4226 0-0.60458 0.39119-1.138 0.97443-1.3372l0.56902-0.19205 0.25606-0.54057c0.33429-0.68994 1.0029-1.1167 1.7568-1.1167 0.5619 0 0.98866 0.24895 1.2376 0.46233l0.55479 0.46233s0.45522-0.22761 1.0456-0.22761c0.7824 0 1.4226 0.64014 1.4226 1.4226h-2.1338c-2.3615 0-2.7313 2.4895-4.2605 2.4895zm8.5352 4.6233h-1.4226v-4.2677h1.4226z" fill="#fff"/>
</svg>
