<?xml version="1.0" encoding="UTF-8"?>
<svg width="36" height="36" version="1.1" viewBox="0 0 36 36" xml:space="preserve" xmlns="http://www.w3.org/2000/svg">
 <defs>
  <filter id="filter1" x="-.147" y="-.147" width="1.294" height="1.294" color-interpolation-filters="sRGB">
   <feGaussianBlur stdDeviation="1.5925"/>
  </filter>
  <linearGradient id="linearGradient1" x1="18" x2="18" y1="3" y2="29" gradientUnits="userSpaceOnUse">
   <stop stop-color="#3fa8f3" offset="0"/>
   <stop stop-color="#2089d4" offset="1"/>
  </linearGradient>
 </defs>
 <circle cx="18" cy="18" r="13" filter="url(#filter1)" opacity=".35"/>
 <circle cx="18" cy="16" r="13" fill="url(#linearGradient1)" stroke="#fff" stroke-width="2"/>
 <path d="m19.87 13.457v-1.3091c-7.6e-4 -0.08643-0.0495-0.16525-0.12649-0.20456l1.0116-1.2874c0.0039-0.0051 0.0059-0.01095 0.0093-0.01637 0.0046-0.0057 9e-3 -0.01155 0.01305-0.01776 0.0021-0.0039 0.0029-0.0084 0.0046-0.0126 0.0041-0.0091 0.0075-0.0185 0.01035-0.02805 0.0036-0.01065 0.0063-0.02163 0.0083-0.03273 0.0014-0.0098 0.0023-0.01943 0.0025-0.02922 8.19e-4 -0.0111 8.19e-4 -0.02229 0-0.03344-0.0011-0.0099-0.0028-0.01964-0.0054-0.02922-0.0025-0.0111-6e-3 -0.02195-0.01035-0.03249-0.0021-5e-3 -0.0025-0.01005-5e-3 -0.0147-0.0024-0.0047-0.0058-0.0083-0.0084-0.0129-0.0025-0.0047-0.0042-0.01005-0.0072-0.0147l-0.93512-1.4027c-0.0055-0.0072-0.01155-0.0141-0.01776-0.02058-0.0058-0.0073-0.012-0.0144-0.01847-0.02105-0.0096-0.0087-0.02007-0.01649-0.0311-0.02337-0.0054-0.0035-0.01035-8e-3 -0.01613-0.01095-0.0111-0.0055-0.02253-0.0102-0.03437-0.0138-0.0075-0.0025-0.01455-0.0059-0.02337-0.0077-0.0099-2e-3 -0.01988-0.0032-0.02993-0.0038-0.0081-0.0014-0.01631-0.0024-0.02454-0.0028h-3.2729c-0.0082 0-0.01566 0.0024-0.02337 3e-3 -0.0105 6.14e-4 -0.02084 0.0019-0.0311 0.0039-0.0072 0.0018-0.0141 5e-3 -0.02127 0.0072-0.012 0.0038-0.02379 0.0085-0.03507 0.01425-0.0055 3e-3 -0.01035 0.0071-0.01566 0.0105-0.01125 0.0069-0.02177 0.0147-0.03156 0.02337-0.0065 0.0065-0.01245 0.0135-0.018 0.02081-0.0065 0.0066-0.0126 0.0135-0.01824 0.02081l-0.93511 1.4027c-3e-3 0.0047-0.0045 0.01005-0.0072 0.0147-0.0028 0.0046-0.0063 0.0082-0.0084 0.0129-0.0021 0.0046-0.0028 0.0098-5e-3 0.0147-0.0042 0.0105-0.0076 0.02142-0.01035 0.03249-0.0025 0.0096-0.0044 0.01938-0.0054 0.02922-0.0012 0.0111-0.0016 0.02226-0.0012 0.03344 2.62e-4 0.0098 0.0011 0.01955 0.0025 0.02922 2e-3 0.0111 0.0046 0.02204 0.0083 0.03273 0.0028 0.0096 0.0063 0.01893 0.01035 0.02805 0.0018 0.0042 0.0025 0.0087 0.0046 0.0126 0.0041 0.0062 0.0084 0.01215 0.01305 0.01776 0.0035 0.0054 0.0054 0.01125 0.0093 0.01637l1.0115 1.2874c-0.07709 0.03921-0.12592 0.11808-0.1267 0.20456v1.3091z" fill="#fff"/>
 <circle cx="18" cy="17.971" r="4.3097" fill="none" stroke="#fff" stroke-width="1.6876"/>
</svg>
