<?xml version="1.0" encoding="UTF-8"?>
<svg width="26" height="24" version="1.1" viewBox="0 0 26 24" xml:space="preserve" xmlns="http://www.w3.org/2000/svg">
 <path d="m23.743 0.50389c-3.4789 1.931-7.7645 1.9106-10.743 0-2.978 1.9106-7.2636 1.931-10.743 0-6.536 13.842 6.8802 20.065 10.743 20.061 3.8623 0.0036 17.278-6.2194 10.743-20.061z" fill="#fff" stroke="#fff" stroke-linejoin="round"/>
 <path d="m24.895 6.2578h-23.789c-0.43961 3.9187 0.95508 6.9145 2.9922 9.1309 1.4561 1.5842 3.2403 2.7617 4.8887 3.5371 1.6483 0.77545 3.1826 1.1394 4.0137 1.1387 0.83105 7.75e-4 2.3653-0.36322 4.0137-1.1387 1.6483-0.77545 3.4325-1.9529 4.8887-3.5371 2.0371-2.2163 3.4318-5.2122 2.9922-9.1309z" fill="#264d99"/>
 <path d="m24.691 4.9805h-23.383c-0.089219 0.43625-0.15653 0.862-0.20312 1.2773h23.789c-0.046594-0.41534-0.11391-0.8411-0.20312-1.2773z" fill="#fff"/>
 <path d="m13 1.043c-2.9868 1.779-7.0035 1.8031-10.436 0.11719-0.60272 1.3546-1.0118 2.6269-1.2559 3.8203h23.383c-0.24407-1.1934-0.65314-2.4657-1.2559-3.8203-3.432 1.6859-7.4487 1.6618-10.436-0.11719z" fill="#bf3939"/>
</svg>
