<?xml version="1.0" encoding="UTF-8"?>
<svg width="18" height="18" version="1.1" viewBox="0 0 18 18" xmlns="http://www.w3.org/2000/svg">
 <path d="m8.627 3.7129a1 1 0 0 0-0.97656 0.72461l-0.31641 1.1055-3.2012-0.91406a1 1 0 0 0-1.2461 1.2031l0.56445 2.2578-0.17578-0.050781a1 1 0 0 0-0.26172-0.039062 1 1 0 0 0-1.0137 1v4.2871a1 1 0 0 0 1 1h12a1 1 0 0 0 1-1v-0.85742a1 1 0 0 0-0.72461-0.96094l-1.252-0.35742 1.6738-1.625a1 1 0 0 0-0.42383-1.6777l-3.2031-0.91406 0.31445-1.1035a1 1 0 0 0-0.68555-1.2363l-2.8125-0.80273a1 1 0 0 0-0.25977-0.039062z" fill="#fff" opacity=".6"/>
 <path d="m8.6116 4.7135-0.58929 2.0658-4.1652-1.1886 0.58929 2.3555 8.8108 2.5145 1.7427-1.6908-4.1652-1.1869 0.58928-2.0675zm-5.6116 4.2874v4.2857h12v-0.85714z" fill="#14a0c2"/>
</svg>
