<?xml version="1.0" encoding="UTF-8"?>
<svg width="14" height="7" version="1.1" viewBox="0 0 14 7" xml:space="preserve" xmlns="http://www.w3.org/2000/svg"><path d="m11.514 0.19487-1.8196 0.002633c-1.1613 0.001822-2.3252 0.002141-3.4863 0.007906h-0.035572l-0.011858 0.001319c-0.42258 0.024496-0.92099 0.183-1.2728 0.59818l-0.90253 1.0672c-0.28144 0.33645-0.09579 0.19032-0.24243 0.26483-0.1752 0.088039-0.35479-0.020916-0.79581 0.059291l-0.031623 0.00527-0.031623 0.00923c-0.40071 0.10266-0.77204 0.32559-1.0382 0.65746l0.00527-0.0079-1.6601 1.9777 3.9013 0.00263-1.6509 1.9632 5.3335 0.00133c0.31608 9.06e-5 0.81816-0.14872 1.199-0.50068l0.036898-0.035576 1.0765-1.2662 0.0067-0.00659 0.0079-0.0079 0.0067-0.00923 0.0041-0.00396c0.0938-0.1122 0.09156-0.1035 0.16601-0.12385 0 0 0.20541 0.019919 0.52966-0.011858 0.59045-0.057858 0.96179-0.29808 1.2227-0.60476l0.54406-0.64035 1.2346-1.4322-1.8644 0.00263c-0.69339 0.0011-1.3878 0.00265-2.0818 0.00396l0.46897-0.54943z" fill="#fff" opacity=".6" stroke-width=".6746"/><path transform="matrix(.6746 0 0 .6746 .92071 .46497)" d="m16.996 3.498-0.65234 0.0019531c-1.7219 0.00271-3.4453 0.00123-5.168 0.00977h-0.0137c-0.43457 0.02519-0.89178 0.18477-1.1953 0.54296l-1.3359 1.5762c-0.41791 0.49959-0.44506 0.52441-0.67383 0.64062-0.50887 0.2557-1.0015 0.095794-1.4414 0.17578l-0.00977 0.00195-0.00781 0.00195c-0.40908 0.10307-0.7719 0.32544-1.0215 0.63672l-1.1191 1.332h5.8027c0.22418 6.38e-5 0.71151-0.10903 1.1113-0.47852l0.011719-0.011719 1.5918-1.873c0.24703-0.29546 0.43672-0.418 0.74414-0.50195 0.18216-0.048219 0.55216-0.00697 0.93945-0.044922 0.59741-0.05854 0.94489-0.29899 1.1641-0.55664l0.80078-0.94531 0.0098-0.00977z" fill="#017ab1"/><path transform="matrix(.6746 0 0 .6746 .92071 .46497)" d="m13.66 0.58398-0.65234 0.001953c-1.7218 0.002705-3.4452-7.2674e-4 -5.168 0.007813h-0.01367c-0.43454 0.025191-0.89305 0.18393-1.1973 0.54297l-1.334 1.5781c-0.41757 0.49917-0.44354 0.52168-0.67383 0.63867-0.50875 0.25564-1.0033 0.095778-1.4434 0.17578l-0.00977 0.00195-0.00781 0.00195c-0.40981 0.10325-0.77245 0.32808-1.0215 0.63868l-1.1172 1.3301 5.8008 0.00195c0.2261 7.16e-5 0.71182-0.11127 1.1113-0.48047l0.011719-0.011719 1.5918-1.873c0.2464-0.29472 0.43831-0.4179 0.74609-0.50195 0.18216-0.048219 0.55216-0.00697 0.93945-0.044922 0.5975-0.058548 0.94226-0.30049 1.1602-0.55664l0.80469-0.94336 0.0078-0.00977z" fill="#40af36"/></svg>
