<?xml version="1.0" encoding="UTF-8" standalone="no"?>
<!DOCTYPE svg PUBLIC "-//W3C//DTD SVG 1.1//EN" "http://www.w3.org/Graphics/SVG/1.1/DTD/svg11.dtd">
<svg width="100%" height="100%" viewBox="0 0 18 18" version="1.1" xmlns="http://www.w3.org/2000/svg" xmlns:xlink="http://www.w3.org/1999/xlink" xml:space="preserve" xmlns:serif="http://www.serif.com/" style="fill-rule:evenodd;clip-rule:evenodd;stroke-linejoin:round;stroke-miterlimit:2;">
    <ellipse cx="8.986" cy="8.992" rx="8.961" ry="8.968" style="fill:rgb(4,139,52);"/>
    <g transform="matrix(1.3515,0,0,1.13791,-2.09203,-0.72571)">
        <path d="M6.575,10.994C5.674,11.599 5.039,12.69 4.93,13.962L3.587,13.962C3.726,11.816 4.928,10.016 6.575,9.289L6.575,7.732C4.936,7 3.741,5.205 3.602,3.065L4.945,3.065C5.054,4.33 5.682,5.416 6.575,6.023L6.574,3.066L7.824,3.066L7.825,6.511C7.953,6.529 8.084,6.538 8.216,6.538C8.347,6.538 8.476,6.529 8.602,6.512L8.602,3.066L9.852,3.066L9.853,6.025C10.748,5.419 11.378,4.332 11.486,3.065L12.83,3.065C12.691,5.207 11.494,7.003 9.853,7.733L9.853,9.301C11.486,10.036 12.676,11.827 12.814,13.962L11.471,13.962C11.363,12.702 10.74,11.62 9.853,11.013L9.852,13.962L8.602,13.962L8.602,10.518C8.471,10.499 8.337,10.489 8.2,10.489C8.074,10.489 7.948,10.498 7.825,10.514L7.824,13.962L6.574,13.962L6.575,10.994ZM8.602,8.065C8.475,8.078 8.346,8.084 8.216,8.084C8.084,8.084 7.954,8.077 7.825,8.065L7.825,8.961C7.949,8.949 8.074,8.943 8.2,8.943C8.336,8.943 8.47,8.95 8.602,8.964L8.602,8.065Z" style="fill:white;"/>
    </g>
</svg>
