<?xml version="1.0" encoding="UTF-8" standalone="no"?>
<!DOCTYPE svg PUBLIC "-//W3C//DTD SVG 1.1//EN" "http://www.w3.org/Graphics/SVG/1.1/DTD/svg11.dtd">
<svg width="100%" height="100%" viewBox="0 0 13 13" version="1.1" xmlns="http://www.w3.org/2000/svg" xmlns:xlink="http://www.w3.org/1999/xlink" xml:space="preserve" xmlns:serif="http://www.serif.com/" style="fill-rule:evenodd;clip-rule:evenodd;stroke-linejoin:round;stroke-miterlimit:2;">
    <g transform="matrix(0.723622,0,0,0.723286,0.00691174,0.00653996)">
        <ellipse cx="8.986" cy="8.992" rx="8.961" ry="8.968" style="fill:rgb(4,139,52);"/>
    </g>
    <g transform="matrix(0.591854,0,0,0.655991,0.929094,0.588599)">
        <path d="M6.878,10.139L6.878,7.883C3.943,7.01 1.822,4.689 1.809,2.152L3.499,2.152C3.735,4.012 4.965,5.562 6.878,6.286L6.878,2.152L8.568,2.152L8.568,6.681C8.841,6.71 9.123,6.725 9.413,6.725C9.703,6.725 9.984,6.71 10.257,6.681L10.257,2.152L11.947,2.152L11.947,6.286C13.86,5.562 15.09,4.012 15.326,2.152L17.016,2.152C17.004,4.689 14.883,7.01 11.947,7.883L11.947,10.14C14.882,11.014 17.004,13.334 17.016,15.871L15.326,15.871C15.09,14.011 13.86,12.461 11.947,11.737L11.947,15.871L10.257,15.871L10.257,11.343C9.984,11.314 9.703,11.299 9.413,11.299C9.123,11.299 8.841,11.314 8.568,11.343L8.568,15.871L6.878,15.871L6.878,11.738C4.965,12.461 3.735,14.011 3.499,15.871L1.809,15.871C1.822,13.333 3.942,11.012 6.878,10.139ZM10.257,8.21C9.98,8.236 9.698,8.249 9.413,8.249C9.127,8.249 8.845,8.236 8.568,8.21L8.568,9.813C8.845,9.787 9.126,9.774 9.41,9.774C9.696,9.774 9.979,9.787 10.257,9.813L10.257,8.21Z" style="fill:white;"/>
    </g>
</svg>
