<?xml version="1.0" encoding="UTF-8" standalone="no"?>
<!DOCTYPE svg PUBLIC "-//W3C//DTD SVG 1.1//EN" "http://www.w3.org/Graphics/SVG/1.1/DTD/svg11.dtd">
<svg width="100%" height="100%" viewBox="0 0 12 11" version="1.1" xmlns="http://www.w3.org/2000/svg" xmlns:xlink="http://www.w3.org/1999/xlink" xml:space="preserve" xmlns:serif="http://www.serif.com/" style="fill-rule:evenodd;clip-rule:evenodd;stroke-linejoin:round;stroke-miterlimit:2;">
    <g transform="matrix(0.712786,0,0,0.954179,-0.0480684,-0.573992)">
        <ellipse cx="8.486" cy="5.88" rx="8.41" ry="5.267" style="fill:rgb(173,35,59);"/>
    </g>
    <g transform="matrix(0.649719,0,0,0.604743,-0.502948,-0.120485)">
        <path d="M9.127,9.245L9.127,7.772C6.975,7.36 5.346,5.476 5.34,3.216L7.037,3.216C7.037,3.222 7.037,3.227 7.037,3.233C7.037,4.589 7.916,5.739 9.127,6.127L9.127,2.877L10.88,2.877L10.88,6.143C12.118,5.771 13.022,4.608 13.022,3.233C13.022,3.227 13.022,3.222 13.022,3.216L14.687,3.216C14.681,5.483 13.042,7.371 10.88,7.776L10.88,9.247C13.035,9.657 14.666,11.542 14.672,13.804L13.008,13.804C13.008,13.799 13.008,13.793 13.008,13.787C13.008,12.417 12.111,11.258 10.88,10.881L10.88,14.035L9.127,14.035L9.127,10.888C7.908,11.272 7.022,12.426 7.022,13.787C7.022,13.793 7.022,13.799 7.022,13.804L5.325,13.804C5.332,11.539 6.968,9.651 9.127,9.245Z" style="fill:white;"/>
    </g>
</svg>
