<?xml version="1.0" encoding="UTF-8"?>
<svg width="18" height="18" version="1.1" viewBox="0 0 18 18" xmlns="http://www.w3.org/2000/svg">
 <circle cx="9" cy="9" r="9" fill="#fff" opacity=".6"/>
 <circle cx="9" cy="9" r="8.25" fill="#717065"/>
 <path d="m6.1364 5.7692c0.56762 0 1.0227-0.44928 1.0227-1.0096 0-0.56034-0.45512-1.0096-1.0227-1.0096s-1.0227 0.44928-1.0227 1.0096c0 0.56034 0.45512 1.0096 1.0227 1.0096zm5.7273 5.6539v2.8269h-1.6364v-2.8269h-1.6364l1.4318-4.4423s0.20455-0.80768 1.0227-0.80768c0.81815 0 1.0227 0.80768 1.0227 0.80768l1.4318 4.4423zm-4.9091-1.2116v4.0384h-1.6364v-4.0384h-0.81818v-2.9135c0-0.62128 0.49706-1.1249 1.1263-1.1249h1.0202c0.62203 0 1.1263 0.50331 1.1263 1.1249v2.9135zm5.2188-5.4519c0 0.56034-0.47229 1.0096-1.0613 1.0096s-1.0613-0.44928-1.0613-1.0096c0-0.56034 0.47229-1.0096 1.0613-1.0096s1.0613 0.44928 1.0613 1.0096z" fill="#fff"/>
</svg>
