<?xml version="1.0" encoding="UTF-8"?>
<svg width="18" height="18" version="1.1" viewBox="0 0 18 18" xmlns="http://www.w3.org/2000/svg">
 <circle cx="9" cy="9" r="9" fill="#fff" opacity=".6"/>
 <circle cx="9" cy="9" r="8.25" fill="#8c5f93"/>
 <path d="m7.0578 14.521-0.66778-2.2507c-0.48-0.38-0.865-0.855-1.155-1.425s-0.435-1.185-0.435-1.845 0.145-1.275 0.435-1.845 0.675-1.045 1.155-1.425l0.66778-2.2507a0.6699 0.6699 143.26 0 1 0.64222-0.47935h2.6a0.6699 0.6699 36.737 0 1 0.64222 0.47935l0.66778 2.2507c0.48 0.38 0.865 0.855 1.155 1.425s0.435 1.185 0.435 1.845-0.145 1.275-0.435 1.845-0.675 1.045-1.155 1.425l-0.66778 2.2507a0.6699 0.6699 143.26 0 1-0.64222 0.47935h-2.6a0.6699 0.6699 36.737 0 1-0.64222-0.47935zm1.9422-2.5207c0.83 0 1.5375-0.2925 2.1225-0.8775s0.8775-1.2925 0.8775-2.1225c0-0.83-0.2925-1.5375-0.8775-2.1225s-1.2925-0.8775-2.1225-0.8775c-0.83 0-1.5375 0.2925-2.1225 0.8775s-0.8775 1.2925-0.8775 2.1225c0 0.83 0.2925 1.5375 0.8775 2.1225s1.2925 0.8775 2.1225 0.8775z" fill="#fff"/>
 <path d="m9 7v2l1 1" fill="none" stroke="#fff" stroke-linecap="round" stroke-linejoin="round"  stroke-width="1"/>
</svg>
