<svg width="24" height="24" viewBox="0 0 24 24" fill="none" xmlns="http://www.w3.org/2000/svg">
<path d="M12 21.9999C13.366 21.9999 14.6519 21.7384 15.8578 21.2155C17.0637 20.6927 18.1274 19.9705 19.0489 19.0489C19.9705 18.1273 20.6927 17.0636 21.2155 15.8577C21.7385 14.6519 22 13.3659 22 11.9999C22 10.6339 21.7385 9.34798 21.2155 8.14211C20.6927 6.93623 19.9705 5.87252 19.0489 4.95097C18.1274 4.0294 17.062 3.30718 15.8529 2.78432C14.6437 2.26144 13.3562 2 11.9902 2C10.6241 2 9.3382 2.26144 8.13232 2.78432C6.92645 3.30718 5.86436 4.0294 4.94607 4.95097C4.02777 5.87252 3.30718 6.93623 2.78431 8.14211C2.26144 9.34798 2 10.6339 2 11.9999C2 13.3659 2.26144 14.6519 2.78431 15.8577C3.30718 17.0636 4.0294 18.1273 4.95097 19.0489C5.87254 19.9705 6.93626 20.6927 8.14214 21.2155C9.34801 21.7384 10.6339 21.9999 12 21.9999ZM12 20.3332C10.8431 20.3332 9.7614 20.1175 8.75487 19.6861C7.74835 19.2548 6.86436 18.6584 6.10292 17.8969C5.34149 17.1355 4.74672 16.2515 4.31862 15.245C3.89051 14.2385 3.67646 13.1568 3.67646 11.9999C3.67646 10.8431 3.89051 9.76138 4.31862 8.75485C4.74672 7.74833 5.33985 6.86272 6.09803 6.09802C6.8562 5.33332 7.73855 4.73691 8.74508 4.3088C9.7516 3.88071 10.8333 3.66666 11.9902 3.66666C13.147 3.66666 14.2287 3.88071 15.2352 4.3088C16.2418 4.73691 17.1274 5.33332 17.8921 6.09802C18.6568 6.86272 19.2548 7.74833 19.6862 8.75485C20.1176 9.76138 20.3333 10.8431 20.3333 11.9999C20.3333 13.1568 20.1192 14.2385 19.6911 15.245C19.263 16.2515 18.6682 17.1355 17.9068 17.8969C17.1454 18.6584 16.2597 19.2548 15.2499 19.6861C14.2401 20.1175 13.1568 20.3332 12 20.3332Z" fill="black"/>
<path d="M11.8041 14.0293C12.0459 14.0293 12.2371 13.9607 12.3776 13.8234C12.5181 13.6862 12.5884 13.5228 12.5884 13.3332C12.5884 13.3136 12.5884 13.2924 12.5884 13.2695C12.5884 13.2466 12.5884 13.2287 12.5884 13.2156C12.5884 12.9411 12.6701 12.7042 12.8335 12.5048C12.9969 12.3055 13.2518 12.0914 13.5982 11.8627C14.0688 11.5489 14.4576 11.2221 14.7648 10.8823C15.072 10.5424 15.2256 10.0784 15.2256 9.49013C15.2256 8.94766 15.0802 8.49015 14.7893 8.1176C14.4985 7.74505 14.1178 7.46237 13.6472 7.26955C13.1766 7.07675 12.6635 6.98035 12.108 6.98035C11.2648 6.98035 10.5769 7.15192 10.0443 7.49505C9.51159 7.83818 9.17662 8.23523 9.03936 8.68622C9.01322 8.76464 8.99362 8.84308 8.98055 8.92151C8.96748 8.99994 8.96094 9.08164 8.96094 9.16661C8.96094 9.38882 9.03283 9.55712 9.17662 9.6715C9.32041 9.78588 9.474 9.84307 9.6374 9.84307C9.8008 9.84307 9.93968 9.80712 10.0541 9.73523C10.1684 9.66333 10.2681 9.56856 10.3531 9.45092L10.5296 9.21562C10.6472 9.02608 10.7812 8.86432 10.9315 8.73033C11.0818 8.59634 11.2501 8.4934 11.4364 8.42151C11.6227 8.34961 11.8237 8.31366 12.0394 8.31366C12.4903 8.31366 12.8498 8.42968 13.1178 8.6617C13.3858 8.89373 13.5197 9.19601 13.5197 9.56856C13.5197 9.9019 13.4152 10.1748 13.206 10.3872C12.9969 10.5996 12.6766 10.8561 12.2452 11.1568C11.8923 11.3986 11.5998 11.6666 11.3678 11.9607C11.1358 12.2548 11.0198 12.6437 11.0198 13.1274C11.0198 13.147 11.0198 13.1682 11.0198 13.1911C11.0198 13.214 11.0198 13.2352 11.0198 13.2548C11.0198 13.7711 11.2812 14.0293 11.8041 14.0293ZM11.7747 16.9509C12.0622 16.9509 12.3106 16.8528 12.5197 16.6568C12.7289 16.4607 12.8335 16.2188 12.8335 15.9313C12.8335 15.6437 12.7289 15.4018 12.5197 15.2058C12.3106 15.0097 12.0622 14.9116 11.7747 14.9116C11.4871 14.9116 11.2403 15.0113 11.0345 15.2107C10.8286 15.41 10.7256 15.6502 10.7256 15.9313C10.7256 16.2123 10.8302 16.4525 11.0394 16.6518C11.2485 16.8512 11.4936 16.9509 11.7747 16.9509Z" fill="black"/>
</svg>
