<svg width="28" height="28" viewBox="0 0 28 28">
  <g fill="none" fill-rule="evenodd">
    <rect width="28" height="28" fill="#FFF" opacity=".4" rx="3.5"/>
    <rect width="26" height="26" x="1" y="1" fill="#1F4366" rx="3"/>
    <path fill="#FFF" d="M22.8518877,16.4071864 L22.8518877,16.9027573 L15.9128751,15.9116156 L15.9128751,19.8759843 L17.8954501,21.8584659 C17.8954501,22.3540368 17.3998064,22.8496077 16.9041626,22.8496077 L11.9477251,22.8496077 C11.4520813,22.8496077 10.9564376,22.3540368 10.9564376,21.8584659 L12.9390126,19.8759843 L12.9390126,15.9114173 L6,16.9025591 L6,16.4071864 C6,15.9116156 6.30300993,15.7749371 6.49564376,15.6638301 L12.9390126,11.9468504 L12.9390126,9.96456693 C12.9390126,8.9734252 13.4346563,6 14.4259439,6 C15.4172314,6 15.9128751,8.9734252 15.9128751,9.96456693 L15.9128751,11.9468504 L22.3562439,15.6638301 C22.6322283,15.8230075 22.8518877,15.9027944 22.8518877,16.4071864 L22.8518877,16.4071864 Z" opacity=".6"/>
  </g>
</svg>
