<svg width="28" height="28" viewBox="0 0 28 28">
  <g fill="none" fill-rule="evenodd">
    <circle cx="14" cy="14" r="14" fill="#FFF" opacity=".4"/>
    <circle cx="14" cy="14" r="13" fill="#4E3551"/>
    <path fill="#FFF" d="M13.40225,10.7217778 L12.375,10.0106667 L11.93925,5 L10.18575,5 L9.75,10.0622222 L8.73325,10.736 C8.328125,11.0053333 8,11.6195556 8,12.1111111 L8,20.1111111 C8,20.6026667 8.391125,21 8.875,21 L13.25,21 C13.733875,21 14.125,20.6026667 14.125,20.1111111 L14.125,12.1111111 C14.125,11.6195556 13.80125,10.9982222 13.40225,10.7217778 L13.40225,10.7217778 Z M20.25,15.6666667 C21.216,15.6666667 22,14.8702222 22,13.8888889 L21.125,9.44444444 L16.75,9.44444444 L15.875,13.8888889 C15.875,14.8702222 16.659,15.6666667 17.625,15.6666667 L18.5,15.6666667 L18.5,19.4 L16.75,20.1111111 L16.75,21 L21.125,21 L21.125,20.1111111 L19.375,19.4 L19.375,15.6666667 L20.25,15.6666667 L20.25,15.6666667 Z" opacity=".6"/>
  </g>
</svg>
