<svg height="24" viewBox="0 0 24 24" width="24"><g fill="none" fill-rule="evenodd"><circle cx="12" cy="12" fill="#fff" opacity=".4" r="12"/><circle cx="12" cy="12" fill="#4e3552" r="11"/><path d="m10.41 10.2903151-.839-.53302222-.356-3.75729288h-1.43l-.356 3.79556593-.83.50688447c-.33.2016336-.599.6618436-.599 1.0305718v6.0014002c0 .3687281.32.6655776.715.6655776h3.571c.394 0 .714-.2968495.714-.6655776v-6.0014002c0-.3687282-.264-.8345391-.59-1.0427071zm6.161 3.0422403c.789 0 1.429-.5974329 1.429-1.3339556l-.715-3.33442244h-3.572l-.713 3.33442244c0 .7365227.639 1.3339556 1.429 1.3339556h.571v3.4669779l-2 .5339556v.6655776h5v-.6655776l-2-.5339556v-3.4669779z" fill="#fff" opacity=".6"/></g></svg>