<?xml version="1.0" encoding="UTF-8" standalone="no"?>
<svg width="23px" height="23px" viewBox="0 0 23 23" version="1.1" xmlns="http://www.w3.org/2000/svg" xmlns:xlink="http://www.w3.org/1999/xlink" xmlns:sketch="http://www.bohemiancoding.com/sketch/ns">
    <!-- Generator: Sketch 3.3.3 (12072) - http://www.bohemiancoding.com/sketch -->
    <title>alcohol-m copy</title>
    <desc>Created with Sketch.</desc>
    <defs></defs>
    <g id="POI" stroke="none" stroke-width="1" fill="none" fill-rule="evenodd" sketch:type="MSPage">
        <g id="alcohol-m" sketch:type="MSLayerGroup">
            <ellipse id="Oval-1-Copy-41" opacity="0" fill="#FFFFFF" sketch:type="MSShapeGroup" cx="11.5" cy="11.5" rx="11.5" ry="11.5"></ellipse>
            <ellipse id="Oval-1-Copy-40" fill="#3D3D37" sketch:type="MSShapeGroup" cx="11.5" cy="11.5" rx="10.5" ry="10.5"></ellipse>
            <path d="M8.5,4 L8,4.5 L8,7.5 L6,10 L6,18 L12,18 L12,10 L10,7.5 L10,4.5 L9.5,4 L8.5,4 L8.5,4 Z M13,10 L13,13 C13,13 13,14 14,14 L15,14 L15,17 L13.5,17.5 L13,18 L18,18 L17.5,17.5 L16,17 L16,14 L17,14 C18,14 18,13 18,13 L18,10 L13,10 L13,10 Z" id="path5792-copy" opacity="0.41" fill="#FFFFFF" sketch:type="MSShapeGroup"></path>
        </g>
    </g>
</svg>