<?xml version="1.0" encoding="UTF-8" standalone="no"?>
<svg width="23px" height="23px" viewBox="0 0 23 23" version="1.1" xmlns="http://www.w3.org/2000/svg" xmlns:xlink="http://www.w3.org/1999/xlink" xmlns:sketch="http://www.bohemiancoding.com/sketch/ns">
    <!-- Generator: Sketch 3.4.2 (15857) - http://www.bohemiancoding.com/sketch -->
    <title>alcohol-m</title>
    <desc>Created with Sketch.</desc>
    <defs>
        <path id="path-1" d="M22,11.5 C22,17.299 17.299,22 11.5,22 C5.701,22 1,17.299 1,11.5 C1,5.701 5.701,1 11.5,1 C17.299,1 22,5.701 22,11.5 L22,11.5 Z"></path>
    </defs>
    <g id="POI" stroke="none" stroke-width="1" fill="none" fill-rule="evenodd" sketch:type="MSPage">
        <g id="alcohol-m" sketch:type="MSLayerGroup">
            <path d="M11.5,23 C5.159,23 0,17.841 0,11.5 C0,5.159 5.159,0 11.5,0 C17.841,0 23,5.159 23,11.5 C23,17.841 17.841,23 11.5,23 L11.5,23 Z" id="Shape" opacity="0" fill="#FFFFFF" sketch:type="MSShapeGroup"></path>
            <g id="Shape">
                <use fill="#3D3D37" fill-rule="evenodd" sketch:type="MSShapeGroup" xlink:href="#path-1"></use>
                <use fill="none" xlink:href="#path-1"></use>
            </g>
            <path d="M10.41,9.742 L9.571,9.171 L9.215,5.146 L7.785,5.146 L7.429,9.212 L6.599,9.755 C6.269,9.971 6,10.464 6,10.859 L6,17.288 C6,17.683 6.32,18.001 6.715,18.001 L10.286,18.001 C10.68,18.001 11,17.683 11,17.288 L11,10.859 C11,10.464 10.736,9.965 10.41,9.742 L10.41,9.742 Z M16.571,13.001 C17.36,13.001 18,12.361 18,11.572 L17.285,8 L13.713,8 L13,11.572 C13,12.361 13.639,13.001 14.429,13.001 L15,13.001 L15,16.715 L13,17.287 L13,18 L18,18 L18,17.287 L16,16.715 L16,13.001 L16.571,13.001 L16.571,13.001 Z" id="Shape" opacity="0.7" fill="#FFFFFF" sketch:type="MSShapeGroup"></path>
        </g>
    </g>
</svg>