<svg version="1.1" viewBox="0 0 24 24" xmlns="http://www.w3.org/2000/svg">
  <title>alternative-m</title>
  <g>
    <circle id="outer" r="12" cx="12" cy="12" fill="#000" opacity=".6"/>
    <circle id="inner" r="11" cx="12" cy="12" fill="#c15746"/>
    <g fill="#000">
      <path id="leaf_left" d="M 7.38389,13.5905 C 7.49978,12.4415 7.20637,11.2481 6.47407,10.2397 5.74178,9.23122 4.69389,8.58276 3.56463,8.33373 3.44874,9.48518 3.74215,10.6761 4.47445,11.6845 c 0.72982,1.0085 1.77772,1.6545 2.90944,1.906 z"/>
      <path id="leaf_center" d="M 6.90802,9.92407 C 7.09541,10.183 7.25814,10.4566 7.39622,10.7427 7.53676,10.4566 7.69703,10.183 7.88441,9.92407 8.09892,9.62819 8.34302,9.3619 8.60931,9.1178 8.49342,8.08717 8.06194,7.1527 7.40608,6.41547 6.74776,7.15516 6.31381,8.09457 6.20285,9.1326 6.46174,9.37176 6.69845,9.63559 6.90802,9.92407 Z"/>
      <path id="leaf_right" d="M 11.2303,8.33127 C 10.101,8.5803 9.05312,9.22876 8.32083,10.2372 c -0.27615,0.3797 -0.48819,0.789 -0.64353,1.2082 0.20711,0.6386 0.29341,1.3141 0.25149,1.9922 0.92955,-0.3131 1.77033,-0.9049 2.39171,-1.7555 0.7347,-1.006 1.0257,-2.19938 0.9098,-3.35083 z"/>
      <path id="head_standing" d="m 14.7755,5.58085 c -0.7833,0 -1.4184,0.63512 -1.4184,1.41668 0,0.78155 0.6351,1.41491 1.4184,1.41491 0.7851,0 1.4203,-0.63336 1.4203,-1.41491 0,-0.78332 -0.6369,-1.41668 -1.4203,-1.41668 z"/>
      <path id="body_standing" d="M 18.454,11.4928 17.7324,9.44275 C 17.5913,9.05638 17.3231,8.75294 16.5645,8.75294 h -3.3309 c -0.7568,0 -1.0268,0.30344 -1.1661,0.68981 l -0.7216,2.05005 c -0.0529,0.1323 -0.0812,0.4305 0.2117,0.6281 l 1.6972,1.1167 c 0.247,0.1641 0.5804,0.0953 0.7445,-0.1517 0.1623,-0.247 0.0953,-0.5804 -0.1535,-0.7445 l -0.8151,-0.5363 -0.531,-0.3494 0.3793,-1.0426 h 0.524 l -0.307,0.8468 1.0197,0.6722 c 0.2294,0.1499 0.3882,0.3828 0.4428,0.651 0.0547,0.2699 0.0018,0.5434 -0.1482,0.7727 -0.0599,0.0918 -0.1358,0.1694 -0.2187,0.2347 h 1.4149 c -0.0829,-0.0653 -0.1588,-0.1429 -0.2188,-0.2347 -0.1499,-0.2276 -0.2029,-0.5028 -0.1482,-0.7727 0.0565,-0.2682 0.2135,-0.5011 0.4429,-0.651 l 1.0214,-0.6722 -0.3087,-0.8468 h 0.524 l 0.3811,1.0426 -0.5328,0.3494 -0.8133,0.5363 c -0.2488,0.1641 -0.3176,0.4975 -0.1535,0.7445 0.164,0.247 0.4975,0.314 0.7445,0.1517 l 1.6972,-1.1167 c 0.2928,-0.1994 0.2646,-0.4976 0.2117,-0.6281 z"/>
      <path id="head_laying" d="m 17.8506,14.5837 c 0,-0.7198 0.584,-1.3002 1.3038,-1.3002 0.7198,0 1.3055,0.5804 1.3055,1.3002 0,0.7163 -0.5857,1.3003 -1.3055,1.3003 -0.7198,0 -1.3038,-0.584 -1.3038,-1.3003 z"/>
      <path id="couch" d="m 5.18519,17.1913 c -0.16231,0 -0.29286,0.1287 -0.29286,0.2893 v 0.3881 c 0,0 -0.02823,0.5505 0.53809,0.5505 H 19.883 c 0.5716,0 0.5416,-0.5381 0.5416,-0.5381 v -1.175 c 0,0 -0.0476,-0.3758 -0.4869,-0.3758 h -1.4096 c -0.4834,0 -0.8804,0.8592 -1.8013,0.8592 H 5.18519 Z"/>
      <path id="body_laying" d="m 16.3969,14.252 h -4.0542 l -6.89641,1.0498 c -0.31756,0.0741 -0.5522,0.3546 -0.5522,0.6933 0,0.3934 0.31933,0.7128 0.71275,0.7128 h 5.54326 c -0.0953,-0.1553 -0.1535,-0.337 -0.1535,-0.5328 0,-0.5628 0.4587,-1.0215 1.0232,-1.0215 h 2.2212 l 1.7995,-0.3758 0.0988,0.4763 -1.8489,0.3864 h -2.2741 c -0.2946,0 -0.5346,0.2382 -0.5346,0.5346 0,0.2928 0.2364,0.5292 0.5293,0.5328 h 4.3965 c 0.6792,-0.0036 1.2243,-0.5523 1.2243,-1.2262 0,-0.6792 -0.5504,-1.2297 -1.2349,-1.2297 z"/>
    </g>
  </g>
</svg>
