<svg width="24" height="24" viewBox="0 0 24 24">
  <g fill="none" fill-rule="evenodd">
    <circle cx="12" cy="12" r="12" fill="#FFF" opacity=".4"/>
    <circle cx="12" cy="12" r="11" fill="#3D3D36"/>
    <path fill="#FFF" d="M12,8 C6.84210923,8 5,12.5 5,12.5 C5,12.5 6.84210923,17 12,17 C17.1578908,17 19,12.5 19,12.5 C19,12.5 17.1578908,8 12,8 L12,8 Z M9.57692308,11 C9.72607692,11 9.84615385,11.1115 9.84615385,11.25 L9.84615385,12 L11.7307692,12 L11.7307692,11.25 C11.7307692,11.1115 11.8508462,11 12,11 C12.1491538,11 12.2692308,11.1115 12.2692308,11.25 L12.2692308,12 L14.1538462,12 L14.1538462,11.25 C14.1538462,11.1115 14.2739231,11 14.4230769,11 C14.5722308,11 14.7284815,11.1156 14.6923077,11.25 L14.6923077,12 L15.2980769,12 C15.5632369,12 15.7692308,12.223 15.7692308,12.5 C15.7692308,12.777 15.5632369,13 15.2980769,13 L14.6923077,13 L14.6923077,13.75 C14.6923077,13.8885 14.5722308,14 14.4230769,14 C14.2739231,14 14.19002,13.8844 14.1538462,13.75 L14.1538462,13 L12.2692308,13 L12.2692308,13.75 C12.2692308,13.8885 12.1491538,14 12,14 C11.8508462,14 11.7307692,13.8885 11.7307692,13.75 L11.7307692,13 L9.84615385,13 L9.84615385,13.75 C9.84615385,13.8885 9.72607692,14 9.57692308,14 C9.42776923,14 9.30769231,13.8885 9.30769231,13.75 L9.30769231,13 L8.70192308,13 C8.43676308,13 8.23076923,12.777 8.23076923,12.5 C8.23076923,12.223 8.43676308,12 8.70192308,12 L9.30769231,12 L9.30769231,11.25 C9.30769231,11.1115 9.42776923,11 9.57692308,11 L9.57692308,11 Z" opacity=".6"/>
  </g>
</svg>
