<?xml version="1.0" encoding="UTF-8" standalone="no"?>
<svg width="17px" height="17px" viewBox="0 0 17 17" version="1.1" xmlns="http://www.w3.org/2000/svg" xmlns:xlink="http://www.w3.org/1999/xlink">
    <!-- Generator: Sketch 3.8.3 (29802) - http://www.bohemiancoding.com/sketch -->
    <title>america-football-s</title>
    <desc>Created with Sketch.</desc>
    <defs></defs>
    <g id="POI-NIght" stroke="none" stroke-width="1" fill="none" fill-rule="evenodd">
        <g id="america-football-s">
            <circle id="Oval-1-Copy-43" fill-opacity="0.1" fill="#FFFFFF" cx="8.5" cy="8.5" r="8.5"></circle>
            <circle id="Oval-1-Copy-42" fill="#252522" cx="8.5" cy="8.5" r="7.5"></circle>
            <path d="M8.5,5 C5.25,5 4,8 4,8 C4,8 5.25,11 8.5,11 C11.75,11 13,8 13,8 C13,8 11.75,5 8.5,5 L8.5,5 Z M7.5,7.5 L8.5,7.5 L9,7.5 L10,7.5 L10.5,7.5 L11,7.5 C11.1385,7.5 11.25,7.6115 11.25,7.75 C11.25,7.8885 11.1385,8 11,8 L10.5,8 L10,8 L9,8 L8.5,8 L7.5,8 L7,8 L6.25,8 C6.1115,8 6,7.8885 6,7.75 C6,7.6115 6.1115,7.5 6.25,7.5 L7,7.5 L7.5,7.5 Z" id="path11300-6-copy" fill-opacity="0.7" fill="#FFFFFF"></path>
        </g>
    </g>
</svg>