<svg height="24" viewBox="0 0 24 24" width="24"><g fill="none" fill-rule="evenodd"><circle cx="12" cy="12" fill="#fff" opacity=".4" r="12"/><circle cx="12" cy="12" fill="#3d3d36" r="11"/><path d="m12 8c-5.15789077 0-7 4.5-7 4.5s1.84210923 4.5 7 4.5c5.1578908 0 7-4.5 7-4.5s-1.8421092-4.5-7-4.5zm-2.42307692 3c.14915384 0 .26923077.1115.26923077.25v.75h1.88461535v-.75c0-.1385.120077-.25.2692308-.25s.2692308.1115.2692308.25v.75h1.8846154v-.75c0-.1385.1200769-.25.2692307-.25.1491539 0 .3054046.1156.2692308.25v.75h.6057692c.26516 0 .4711539.223.4711539.5s-.2059939.5-.4711539.5h-.6057692v.75c0 .1385-.1200769.25-.2692308.25-.1491538 0-.2330569-.1156-.2692307-.25v-.75h-1.8846154v.75c0 .1385-.120077.25-.2692308.25s-.2692308-.1115-.2692308-.25v-.75h-1.88461535v.75c0 .1385-.12007693.25-.26923077.25-.14915385 0-.26923077-.1115-.26923077-.25v-.75h-.60576923c-.26516 0-.47115385-.223-.47115385-.5s.20599385-.5.47115385-.5h.60576923v-.75c0-.1385.12007692-.25.26923077-.25z" fill="#fff" opacity=".6"/></g></svg>