<?xml version="1.0" encoding="UTF-8" standalone="no"?>
<svg width="27px" height="27px" viewBox="0 0 27 27" version="1.1" xmlns="http://www.w3.org/2000/svg" xmlns:xlink="http://www.w3.org/1999/xlink">
    <!-- Generator: Sketch 3.8.3 (29802) - http://www.bohemiancoding.com/sketch -->
    <title>america-football-l</title>
    <desc>Created with Sketch.</desc>
    <defs></defs>
    <g id="POI-NIght" stroke="none" stroke-width="1" fill="none" fill-rule="evenodd">
        <g id="america-football-l">
            <ellipse id="Oval-1-Copy-39" fill-opacity="0.1" fill="#FFFFFF" cx="13.5" cy="13.5" rx="13.5" ry="13.5"></ellipse>
            <ellipse id="Oval-1-Copy-38" fill="#252522" cx="13.5" cy="13.5" rx="12.5" ry="12.5"></ellipse>
            <path d="M13.5,7 C7,7 4,13.5 4,13.5 C4,13.5 7,20 13.5,20 C20,20 23,13.5 23,13.5 C23,13.5 20,7 13.5,7 L13.5,7 Z M10.5,12 C10.777,12 11,12.223 11,12.5 L11,13 L13,13 L13,12.5 C13,12.223 13.223,12 13.5,12 C13.777,12 14,12.223 14,12.5 L14,13 L16,13 L16,12.5 C16,12.223 16.223,12 16.5,12 C16.777,12 17,12.223 17,12.5 L17,13 L18.5,13 C18.777,13 19,13.223 19,13.5 C19,13.777 18.777,14 18.5,14 L17,14 L17,14.5 C17,14.777 16.777,15 16.5,15 C16.223,15 16,14.777 16,14.5 L16,14 L14,14 L14,14.5 C14,14.777 13.777,15 13.5,15 C13.223,15 13,14.777 13,14.5 L13,14 L11,14 L11,14.5 C11,14.777 10.777,15 10.5,15 C10.223,15 10,14.777 10,14.5 L10,14 L8.5,14 C8.223,14 8,13.777 8,13.5 C8,13.223 8.223,13 8.5,13 L10,13 L10,12.5 C10,12.223 10.223,12 10.5,12 L10.5,12 Z" id="path14961-copy" fill-opacity="0.7" fill="#FFFFFF"></path>
        </g>
    </g>
</svg>