<?xml version="1.0" encoding="UTF-8"?>
<svg version="1.1" viewBox="0 0 20 20" xmlns="http://www.w3.org/2000/svg">
	<path d="m10 18.127q-1.2393 0-2.5396-0.44697-1.3003-0.44696-2.3567-1.219t-1.7371-1.8082-0.68061-2.2145v-2.438l3.2507 2.438-1.2596 1.2596q0.58918 1.0362 1.8691 1.7879 1.2799 0.75172 2.6412 0.95488v-7.253h-2.438v-1.6253h2.438v-0.95488q-0.71108-0.26411-1.1682-0.88377t-0.45712-1.412q0-1.0158 0.71108-1.7269 0.71108-0.71108 1.7269-0.71108 1.0158 0 1.7269 0.71108 0.71108 0.71109 0.71108 1.7269 0 0.79234-0.45712 1.412t-1.1682 0.88377v0.95488h2.438v1.6253h-2.438v7.253q1.3612-0.20316 2.6412-0.95488 1.2799-0.75171 1.8691-1.7879l-1.2596-1.2596 3.2507-2.438v2.438q0 1.1784-0.68061 2.2145t-1.7371 1.8082-2.3567 1.219q-1.3003 0.44697-2.5396 0.44697zm0-13.003q0.34538 0 0.57902-0.23364t0.23364-0.57902-0.23364-0.57902-0.57902-0.23364-0.57902 0.23364-0.23364 0.57902 0.23364 0.57902 0.57902 0.23364z" fill="#717065" opacity=".6"/>
</svg>
