<svg version="1.1" viewBox="0 0 24 24" xmlns="http://www.w3.org/2000/svg">
 <title>apartment-m</title>
 <g id="Page-2:-Night" fill="none" fill-rule="evenodd" opacity=".6">
  <g id="apartment-m" fill-rule="nonzero">
   <circle id="Oval" cx="12" cy="12" r="12" fill="#fff"/>
   <circle id="Oval" cx="12" cy="12" r="11" fill="#664E42"/>
   <path id="Shape" d="m15.333 11.333v-5.3333h-6.6667v2.6667h-2.6667v9.3333h5.3333v-2.6667h1.3333v2.6667h5.3333v-6.6667h-2.6667zm-6.6667 5.3333h-1.3333v-1.3333h1.3333v1.3333zm0-2.6667h-1.3333v-1.3333h1.3333v1.3333zm0-2.6667h-1.3333v-1.3333h1.3333v1.3333zm2.6667 2.6667h-1.3333v-1.3333h1.3333v1.3333zm0-2.6667h-1.3333v-1.3333h1.3333v1.3333zm0-2.6667h-1.3333v-1.3333h1.3333v1.3333zm2.6667 5.3333h-1.3333v-1.3333h1.3333v1.3333zm0-2.6667h-1.3333v-1.3333h1.3333v1.3333zm0-2.6667h-1.3333v-1.3333h1.3333v1.3333zm2.6667 8h-1.3333v-1.3333h1.3333v1.3333zm0-2.6667h-1.3333v-1.3333h1.3333v1.3333z" fill="#fff"/>
  </g>
 </g>
</svg>
