<svg height="24" viewBox="0 0 24 24" width="24"><g fill="none" fill-rule="evenodd"><circle cx="12" cy="12" fill="#fff" opacity=".4" r="12"/><circle cx="12" cy="12" fill="#332721" r="11"/><path d="m10.6153846 18h-3.69230768v-11.07692308h-.92307692v-.92307692h12v.92307692h-.9230769v11.07692308h-3.6923077v-2.7692308h-2.7692308zm-2.76923075-5.5384615v1.8461538h1.84615384v-1.8461538zm0-2.76923081v1.84615381h1.84615384v-1.84615381zm0-2.76923077v1.84615385h1.84615384v-1.84615385zm3.23076925 5.53846158v1.8461538h1.8461538v-1.8461538zm0-2.76923081v1.84615381h1.8461538v-1.84615381zm0-2.76923077v1.84615385h1.8461538v-1.84615385zm3.2307692 5.53846158v1.8461538h1.8461539v-1.8461538zm0-2.76923081v1.84615381h1.8461539v-1.84615381zm0-2.76923077v1.84615385h1.8461539v-1.84615385z" fill="#fff" opacity=".6"/></g></svg>