<svg width="16" height="16" viewBox="0 0 16 16">
  <g fill="none" fill-rule="evenodd">
    <circle cx="8" cy="8" r="8" fill="#FFF" opacity=".4"/>
    <circle cx="8" cy="8" r="7" fill="#3D3D36"/>
    <path fill="#FFF" d="M11,12 L10.5816,9.20622222 C10.7224,8.83555556 10.8,8.42755556 10.8,8 C10.8,7.21155556 10.5272,6.50044444 10.0928,5.952 L9.8,4 L9,4 L9.1784,5.18666667 C8.8192,5 8.4232,4.88888889 8,4.88888889 C7.5768,4.88888889 7.1816,5 6.8216,5.18666667 L7,4 L6.2,4 L5.9072,5.952 C5.4728,6.50044444 5.2,7.21155556 5.2,8 C5.2,8.42755556 5.2784,8.83555556 5.4184,9.20622222 L5,12 L5.8,12 L6.064,10.24 C6.5672,10.7768889 7.2472,11.1111111 8,11.1111111 C8.7528,11.1111111 9.4328,10.7768889 9.936,10.24 L10.2,12 L11,12 L11,12 Z M8,9.51111111 C7.2496,9.51111111 6.64,8.83288889 6.64,8 C6.64,7.16711111 7.2504,6.48888889 8,6.48888889 C8.7496,6.48888889 9.36,7.16711111 9.36,8 C9.36,8.83288889 8.7504,9.51111111 8,9.51111111 L8,9.51111111 Z" opacity=".6"/>
  </g>
</svg>
