<svg version="1.1" viewBox="0 0 24 24" xmlns="http://www.w3.org/2000/svg">
 <title>wayside_shrine-m</title>
 <g transform="matrix(1.1429 0 0 1.1429 2.8815 2.8583)">
  <path id="archaeological-site" d="m3.4787 0.12402v1.125h1.125c0.67373 0 0.94628 1.1735 1.0547 2.1445-1.0938-0.85089-2.1516-1.155-3.0586-0.98438-1.1591 0.21803-1.9336 1.2859-1.9336 2.4961 0 0.94716 0.35113 1.7762 0.94922 2.6367 0.5227 0.75204 1.2598 1.6201 2.1797 2.6719 0.41226 1.5289 1.1712 2.929 1.9336 3.6914v0.84375l-1.125 0.5625v0.5625h6.75v-0.5625l-1.125-0.5625v-0.84375c0.76241-0.76241 1.5213-2.1625 1.9336-3.6914 0.91986-1.0518 1.657-1.9198 2.1797-2.6719 0.59809-0.86051 0.94922-1.6896 0.94922-2.6367 0-1.2102-0.7745-2.2781-1.9336-2.4961-0.90701-0.17061-1.9648 0.13348-3.0586 0.98438 0.1084-0.97108 0.38096-2.1445 1.0547-2.1445h1.125v-1.125zm-0.70312 3.4102c0.57357-0.10789 1.5305 0.1139 2.6367 1.125-1.2544 0.15568-1.9336 1.2581-1.9336 3.3398 0 0.035096-5.431e-4 0.070242 0 0.10547-0.38309-0.4451-0.70179-0.83932-0.94922-1.1953-0.52691-0.7581-0.73828-1.3145-0.73828-2.0039 0-0.78786 0.34979-1.2517 0.98438-1.3711zm9.8438 0c0.21162-0.030504 0.40385-0.029842 0.5625 0 0.63458 0.11937 0.98437 0.58323 0.98437 1.3711 0 0.68937-0.21137 1.2458-0.73828 2.0039-0.24743 0.35599-0.56613 0.75021-0.94922 1.1953 5.44e-4 -0.035226 0-0.070374 0-0.10547 0-2.0817-0.67921-3.1842-1.9336-3.3398 0.80028-0.73143 1.5207-1.0452 2.0742-1.125z" fill="#717065" fill-opacity=".6"/>
 </g>
</svg>
