<?xml version="1.0" encoding="UTF-8" standalone="no"?>
<svg width="27px" height="27px" viewBox="0 0 27 27" version="1.1" xmlns="http://www.w3.org/2000/svg" xmlns:xlink="http://www.w3.org/1999/xlink" xmlns:sketch="http://www.bohemiancoding.com/sketch/ns">
    <!-- Generator: Sketch 3.4.2 (15857) - http://www.bohemiancoding.com/sketch -->
    <title>archery-l</title>
    <desc>Created with Sketch.</desc>
    <defs>
        <path id="path-1" d="M26,13.5 C26,20.403 20.403,26 13.5,26 C6.597,26 1,20.403 1,13.5 C1,6.597 6.597,1 13.5,1 C20.403,1 26,6.597 26,13.5 L26,13.5 Z"></path>
    </defs>
    <g id="POI" stroke="none" stroke-width="1" fill="none" fill-rule="evenodd" sketch:type="MSPage">
        <g id="archery-l" sketch:type="MSLayerGroup">
            <path d="M13.5,27 C6.057,27 0,20.943 0,13.5 C0,6.057 6.057,0 13.5,0 C20.943,0 27,6.057 27,13.5 C27,20.943 20.943,27 13.5,27 L13.5,27 Z" id="Shape" opacity="0" fill="#FFFFFF" sketch:type="MSShapeGroup"></path>
            <g id="Shape">
                <use fill="#33332E" fill-rule="evenodd" sketch:type="MSShapeGroup" xlink:href="#path-1"></use>
                <use fill="none" xlink:href="#path-1"></use>
            </g>
            <path d="M21,11.501 C21,9.266 20.012,7.262 18.456,5.886 L18,3 L16,3 L16.241,4.525 C15.39,4.19 14.469,4 13.501,4 C12.532,4 11.609,4.19 10.759,4.526 L11,3 L9,3 L8.544,5.887 C6.988,7.262 6,9.266 6,11.501 C6,12.896 6.39,14.197 7.055,15.316 L6,22 L8,22 L8.743,17.294 C9.917,18.26 11.39,18.868 13,18.976 L13,21 L14,21 L14,18.976 C15.609,18.87 17.083,18.261 18.257,17.295 L19,22 L21,22 L19.945,15.317 C20.61,14.197 21,12.896 21,11.501 L21,11.501 Z M13.501,17.001 C10.468,17.001 8,14.533 8,11.501 C8,8.468 10.468,6 13.501,6 C16.533,6 19,8.468 19,11.501 C19,14.533 16.533,17.001 13.501,17.001 L13.501,17.001 Z M13.501,9 C12.122,9 11,10.121 11,11.5 C11,12.879 12.122,14 13.501,14 C14.879,14 16,12.879 16,11.5 C16,10.121 14.879,9 13.501,9 L13.501,9 Z M13.501,13 C12.672,13 12,12.328 12,11.5 C12,10.672 12.672,10 13.501,10 C14.329,10 15,10.672 15,11.5 C15,12.328 14.329,13 13.501,13 L13.501,13 Z" id="Shape" opacity="0.7" fill="#FFFFFF" sketch:type="MSShapeGroup"></path>
        </g>
    </g>
</svg>