<?xml version="1.0" encoding="UTF-8" standalone="no"?>
<svg width="23px" height="23px" viewBox="0 0 23 23" version="1.1" xmlns="http://www.w3.org/2000/svg" xmlns:xlink="http://www.w3.org/1999/xlink" xmlns:sketch="http://www.bohemiancoding.com/sketch/ns">
    <!-- Generator: Sketch 3.4.2 (15857) - http://www.bohemiancoding.com/sketch -->
    <title>archery-m</title>
    <desc>Created with Sketch.</desc>
    <defs>
        <path id="path-1" d="M22,11.5 C22,17.299 17.299,22 11.5,22 C5.701,22 1,17.299 1,11.5 C1,5.701 5.701,1 11.5,1 C17.299,1 22,5.701 22,11.5 L22,11.5 Z"></path>
    </defs>
    <g id="POI" stroke="none" stroke-width="1" fill="none" fill-rule="evenodd" sketch:type="MSPage">
        <g id="archery-m" sketch:type="MSLayerGroup">
            <path d="M11.5,23 C5.159,23 0,17.841 0,11.5 C0,5.159 5.159,0 11.5,0 C17.841,0 23,5.159 23,11.5 C23,17.841 17.841,23 11.5,23 L11.5,23 Z" id="Shape" opacity="0" fill="#FFFFFF" sketch:type="MSShapeGroup"></path>
            <g id="Shape">
                <use fill="#3D3D37" fill-rule="evenodd" sketch:type="MSShapeGroup" xlink:href="#path-1"></use>
                <use fill="none" xlink:href="#path-1"></use>
            </g>
            <path d="M17,10.501 C17,8.776 16.201,7.236 14.956,6.227 L14.6,4 L13,4 L13.204,5.273 C12.667,5.097 12.096,5 11.501,5 C10.905,5 10.334,5.098 9.796,5.273 L10,4 L8.4,4 L8.044,6.228 C6.799,7.238 6,8.777 6,10.501 C6,11.599 6.327,12.62 6.884,13.48 L6,19 L7.6,19 L8.252,14.928 C9.036,15.505 9.977,15.882 11,15.975 L11,18 L12,18 L12,15.975 C13.023,15.882 13.964,15.506 14.748,14.929 L15.4,19 L17,19 L16.117,13.479 C16.673,12.62 17,11.599 17,10.501 L17,10.501 Z M11.501,14 C9.57,14 8,12.431 8,10.501 C8,8.57 9.57,7 11.501,7 C13.431,7 15,8.57 15,10.501 C15,12.431 13.431,14 11.501,14 L11.501,14 Z M11.501,9 C10.672,9 10,9.672 10,10.5 C10,11.329 10.672,12.002 11.501,12.002 C12.33,12.002 13,11.329 13,10.5 C13,9.672 12.33,9 11.501,9 L11.501,9 Z" id="Shape" opacity="0.7" fill="#FFFFFF" sketch:type="MSShapeGroup"></path>
        </g>
    </g>
</svg>