<svg width="28" height="28" viewBox="0 0 28 28">
  <g fill="none" fill-rule="evenodd">
    <circle cx="14" cy="14" r="14" fill="#FFF" opacity=".4"/>
    <circle cx="14" cy="14" r="13" fill="#3D3C36"/>
    <path fill="#FFF" d="M17,16.9546287 C17.1899228,17.0972853 17.4259987,17.1818182 17.6818182,17.1818182 C18.3094145,17.1818182 18.8181818,16.6730509 18.8181818,16.0454546 C18.8181818,15.4178583 18.3094145,14.9090909 17.6818182,14.9090909 C17.4259987,14.9090909 17.1899228,14.9936238 17,15.1362804 C16.8100772,14.9936238 16.5740013,14.9090909 16.3181818,14.9090909 C15.6905855,14.9090909 15.1818182,15.4178583 15.1818182,16.0454546 C15.1818182,16.6730509 15.6905855,17.1818182 16.3181818,17.1818182 C16.5740013,17.1818182 16.8100772,17.0972853 17,16.9546287 Z M18.6389154,19 L8.99744819,18.9999999 C7.8947199,18.9999999 7,18.1063448 7,17.0039655 L7,12.6363636 L20.6363636,12.6363636 L20.6363636,17.0039656 C20.6363636,18.1017433 19.7420756,19 18.6389154,19 Z M8.35736032,9 L19.2790033,9 C20.032831,9 20.6363636,9.6105208 20.6363636,10.3636364 L20.6363636,11.7272727 L7,11.7272727 L7,10.3636364 C7,9.60527021 7.60771092,9 8.35736032,9 Z M8.81818182,16.2727273 L8.81818182,17.1818182 L11.5454545,17.1818182 L11.5454545,16.2727273 L8.81818182,16.2727273 Z" opacity=".6"/>
  </g>
</svg>
