<?xml version="1.0" encoding="UTF-8"?>
<svg width="24px" height="24px" viewBox="0 0 24 24" version="1.1" xmlns="http://www.w3.org/2000/svg" xmlns:xlink="http://www.w3.org/1999/xlink">
    <title>atm-m</title>
    <g id="Page-2:-Night" stroke="none" stroke-width="1" fill="none" fill-rule="evenodd" opacity="0.6">
        <g id="atm-m" fill-rule="nonzero">
            <circle id="Oval" fill="#FFFFFF" cx="12" cy="12" r="12"></circle>
            <circle id="Oval" fill="#717065" cx="12" cy="12" r="11"></circle>
            <g id="bx-credit-card" transform="translate(7.000000, 8.000000)" fill="#FFFFFF">
                <path d="M9,0 L1,0 C0.4485,0 0,0.4485 0,1 L0,7 C0,7.5515 0.4485,8 1,8 L9,8 C9.5515,8 10,7.5515 10,7 L10,1 C10,0.4485 9.5515,0 9,0 Z M1,1 L9,1 L9,2 L1,2 L1,1 Z M1,7 L1,4 L9.0005,4 L9.001,7 L1,7 Z" id="Shape"></path>
                <polygon id="Path" points="2 5 5 5 5 6 2 6"></polygon>
            </g>
        </g>
    </g>
</svg>