<svg width="24" height="26" viewBox="0 0 24 26">
  <g fill="none">
    <path fill="#FFF" d="M23.1932773,16.6660223 C23.123585,19.0775537 22.1388779,20.8962037 20.1858162,21.9990011 L14.1510497,24.936011 L11.5975018,26 L9.04583021,24.9351247 L2.92442533,21.9539063 C1.04074711,20.8869334 0.0758118462,19.2116733 0,16.8244216 L0,0 L23.1932773,0 L23.1932773,16.6660223 Z" opacity=".4"/>
    <path fill="#B39A20" d="M3.09243698,3.05882353 L20.1008404,3.05882353 L20.1008404,9.94638705 L20.1008404,10.5858304 L20.1008404,16.7851795 C20.0650158,18.0234236 19.613075,18.9121414 18.7422624,19.4540426 L11.5966386,22.9411765 L4.44825915,19.4540426 C3.57744653,18.9121414 3.12550581,18.0234236 3.09243698,16.7851795 L3.09243698,10.5858304 L3.09243698,9.94638705 L3.09243698,3.05882353 Z"/>
    <path fill="#000" d="M3.09243698,3.05882353 L20.1008404,3.05882353 L20.1008404,10.7611443 L20.1008404,16.6173471 C20.0655614,17.8305058 19.4942719,18.7012192 18.6367229,19.2321421 L11.5999362,22.6486307 L4.56043574,19.2321421 C3.70288672,18.7012192 3.12500213,17.8305058 3.09243698,16.6173471 L3.09243698,10.7611443 L3.09243698,3.05882353 Z M21.6470588,16.6660223 L21.6470588,1.52941176 L1.54621849,1.52941176 L1.54621849,16.8244216 C1.60592126,18.6853062 2.31964086,19.8489048 3.69280478,20.6267068 L9.72821299,23.5627101 L11.5979956,24.4705882 L13.4704918,23.5627101 L19.5031863,20.6267068 C20.8763502,19.8489048 21.5927836,18.5269069 21.6470588,16.6660223 Z"/>
    <polygon fill="#000" points="17.277 8.478 17.277 5.778 5.76 5.778 5.76 8.478 10.176 8.478 10.176 18.087 12.864 18.087 12.864 8.478"/>
  </g>
</svg>
