<svg width="23" height="23" viewBox="0 0 23 23">
  <g fill="none" fill-rule="evenodd" transform="translate(1)">
    <path fill="#FFF" fill-rule="nonzero" d="M20.2941176,14.7430197 C20.2331369,16.8762976 19.3715181,18.4851033 17.6625892,19.4606548 L12.3821685,22.0587789 L10.147814,23 L7.91510143,22.057995 L2.55887217,19.4207633 C0.910653718,18.4769026 0.0663353654,16.9949418 0,14.8831422 L0,0 L20.2941176,0 L20.2941176,14.7430197 Z" opacity=".6"/>
    <path fill="#FFDD2D" d="M2.70588235,2.70588235 L17.5882353,2.70588235 L17.5882353,8.79872701 L17.5882353,9.36438844 L17.5882353,14.848428 C17.5568888,15.9437978 17.1614407,16.7299713 16.3994796,17.2093454 L10.1470588,20.2941176 L3.89222675,17.2093454 C3.13026572,16.7299713 2.73481758,15.9437978 2.70588235,14.848428 L2.70588235,9.36438844 L2.70588235,8.79872701 L2.70588235,2.70588235 Z"/>
    <path fill="#000" d="M2.70588235,2.70588235 L17.5882353,2.70588235 L17.5882353,9.51947381 L17.5882353,14.6999609 C17.5573662,15.7731397 17.0574879,16.5433863 16.3071325,17.0130488 L10.1499442,20.0353272 L3.99038127,17.0130488 C3.24002589,16.5433863 2.73437686,15.7731397 2.70588235,14.6999609 L2.70588235,9.51947381 L2.70588235,2.70588235 Z M18.9411765,14.7430197 L18.9411765,1.35294118 L1.35294118,1.35294118 L1.35294118,14.8831422 C1.40518111,16.5293093 2.02968575,17.5586466 3.23120419,18.2467022 L8.51218641,20.8439359 L10.1482461,21.6470588 L11.7866803,20.8439359 L17.065288,18.2467022 C18.2668064,17.5586466 18.8936856,16.3891869 18.9411765,14.7430197 Z"/>
    <polygon fill="#000" points="14.996 7.5 14.996 5 5.001 5 5.001 7.5 8.75 7.5 8.75 16 11.25 16 11.25 7.5"/>
  </g>
</svg>
