<svg width="17" height="17" viewBox="0 0 17 17">
  <g fill="none" fill-rule="evenodd" transform="translate(1)">
    <path fill="#FFF" fill-rule="nonzero" d="M15,10.8970146 C14.9549273,12.4737852 14.3180786,13.6629024 13.0549573,14.3839623 L9.15203762,16.3043149 L7.50055819,17 L5.85029236,16.3037354 L1.8913403,14.3544772 C0.673091878,13.6568411 0.0490304875,12.5614787 0,11.0005833 L0,0 L15,0 L15,10.8970146 Z" opacity=".6"/>
    <path fill="#FFDD2D" d="M2,2 L13,2 L13,6.50340692 L13,6.9215045 L13,10.974925 C12.9768308,11.7845462 12.6845431,12.365631 12.1213545,12.7199509 L7.5,15 L2.87686325,12.7199509 C2.31367466,12.365631 2.02138691,11.7845462 2,10.974925 L2,6.9215045 L2,6.50340692 L2,2 Z"/>
    <path fill="#000" d="M2,2 L13,2 L13,7.03613281 L13,10.8651885 C12.9771837,11.6584076 12.6077085,12.2277203 12.0530979,12.5748622 L7.50213264,14.8087201 L2.94941225,12.5748622 C2.39480174,12.2277203 2.02106116,11.6584076 2,10.8651885 L2,7.03613281 L2,2 Z M14,10.8970146 L14,1 L1,1 L1,11.0005833 C1.03861212,12.2173156 1.50020251,12.9781301 2.38828136,13.4866929 L6.29161604,15.4063874 L7.50087755,16 L8.71189415,15.4063874 L12.6134737,13.4866929 C13.5015526,12.9781301 13.9648981,12.1137468 14,10.8970146 Z"/>
    <polygon fill="#000" points="11 6 11 4 4 4 4 6 6.5 6 6.5 12 8.5 12 8.5 6"/>
  </g>
</svg>
