<?xml version="1.0" encoding="UTF-8" standalone="no"?>
<svg width="27px" height="27px" viewBox="0 0 27 27" version="1.1" xmlns="http://www.w3.org/2000/svg" xmlns:xlink="http://www.w3.org/1999/xlink" xmlns:sketch="http://www.bohemiancoding.com/sketch/ns">
    <!-- Generator: Sketch 3.4.2 (15857) - http://www.bohemiancoding.com/sketch -->
    <title>atm-l</title>
    <desc>Created with Sketch.</desc>
    <defs>
        <circle id="path-1" cx="13.5" cy="13.5" r="12.5"></circle>
    </defs>
    <g id="POI" stroke="none" stroke-width="1" fill="none" fill-rule="evenodd" sketch:type="MSPage">
        <g id="atm-l-copy" sketch:type="MSLayerGroup">
            <circle id="Oval-1-Copy-39" opacity="0" fill="#FFFFFF" sketch:type="MSShapeGroup" cx="13.5" cy="13.5" r="13.5"></circle>
            <g id="Oval-1-Copy-38">
                <use fill="#33332E" fill-rule="evenodd" sketch:type="MSShapeGroup" xlink:href="#path-1"></use>
                <use fill="none" xlink:href="#path-1"></use>
            </g>
            <path d="M6,9 C5.446,9 5,9.446 5,10 L5,19 C5,19.554 5.446,20 6,20 L21,20 C21.554,20 22,19.554 22,19 L22,10 C22,9.446 21.554,9 21,9 L6,9 Z M5.5,11 L21,11 L21,13 L5.5,13 L5.5,11 Z M6,16 L9,16 L9,18 L6,18 L6,16 Z M14,17 L21,17 L21,18 L14,18 L14,17 Z" id="rect10401-copy" opacity="0.7" fill="#FFFFFF" sketch:type="MSShapeGroup"></path>
        </g>
    </g>
</svg>