<svg width="20" height="22" viewBox="0 0 20 22">
  <g fill="none">
    <path fill="#FFF" d="M19.327731,14.1020188 C19.2696542,16.1425455 18.4490649,17.6814032 16.8215135,18.6145394 L11.7925414,21.0997016 L9.66458476,22 L7.53819184,21.0989517 L2.43702111,18.5763823 C0.867289255,17.673559 0.0631765385,16.2560313 0,14.2360491 L0,0 L19.327731,0 L19.327731,14.1020188 Z" opacity=".4"/>
    <path fill="#B39A20" d="M2.57703081,2.58823529 L16.7507003,2.58823529 L16.7507003,8.41617366 L16.7507003,8.95724112 L16.7507003,14.2028442 C16.7208465,15.2505892 16.3442292,16.0025812 15.618552,16.461113 L9.66386552,19.4117647 L3.70688262,16.461113 C2.98120545,16.0025812 2.60458817,15.2505892 2.57703081,14.2028442 L2.57703081,8.95724112 L2.57703081,8.41617366 L2.57703081,2.58823529 Z"/>
    <path fill="#000" d="M2.57703081,2.58823529 L16.7507003,2.58823529 L16.7507003,9.10558364 L16.7507003,14.0608322 C16.7213011,15.087351 16.2452266,15.8241086 15.5306024,16.273351 L9.66661352,19.164226 L3.80036311,16.273351 C3.08573894,15.8241086 2.60416844,15.087351 2.57703081,14.0608322 L2.57703081,9.10558364 L2.57703081,2.58823529 Z M18.0392157,14.1020188 L18.0392157,1.29411765 L1.28851541,1.29411765 L1.28851541,14.2360491 C1.33826772,15.8106437 1.93303405,16.7952272 3.07733732,17.4533673 L8.1068442,19.9376778 L9.66499629,20.7058823 L11.2254098,19.9376778 L16.2526552,17.4533673 C17.3969585,16.7952272 17.9939863,15.6766136 18.0392157,14.1020188 Z"/>
    <polygon fill="#000" points="14.282 7.174 14.282 4.783 4.763 4.783 4.763 7.174 8.333 7.174 8.333 15.304 10.714 15.304 10.714 7.174"/>
  </g>
</svg>
