<svg height="24" viewBox="0 0 24 24" width="24"><g fill="none" fill-rule="evenodd"><circle cx="12" cy="12" fill="#fff" opacity=".4" r="12"/><circle cx="12" cy="12" fill="#3d3d36" r="11"/><path d="m15.0742337 6.00161346c-2.2934218.09148008-4.5587576 1.01510795-6.30731111 2.76446395-1.75096092 1.75015849-2.67298387 4.01469179-2.76526641 6.30731109-.05857936 1.4781256 1.44682975 2.9835347 2.92495533 2.9249553 2.29261929-.0922825 4.55795509-1.0151079 6.30731109-2.7652664 1.7501584-1.749356 2.6729839-4.0138893 2.7644639-6.30731107.0577769-1.47812557-1.4460273-2.98192977-2.9241528-2.92415287zm-4.8115315 6.81927854-.86264113-.8634436c-.18777491-.1869724-.18777491-.4927085 0-.6804834l.23511986-.2351199c.09067763-.0906776.21184862-.1412324.34024172-.1412324.12839305 0 .24956405.0497523.34024175.1412324l.8634436.8626412.688508-.688508-.8626412-.8634436c-.0906776-.0906777-.1412324-.2118487-.1412324-.3402418 0-.12839305.0497523-.24956404.1412324-.34024167l.2351199-.23511987c.0906776-.09067762.2118486-.14123241.3402417-.14123241s.2495641.04975233.3402417.14123241l.8634436.86264114.8634436-.86264114c.0906777-.09067762.2118487-.14123241.3402418-.14123241s.249564.04975233.3402417.14123241l.2351198.23511987c.1877749.18697245.1877749.49270857 0 .68048347l-.8626411.8634436.8626411.8634436c.1877749.1869724.1877749.4927085 0 .6804834l-.2351198.2351199c-.0906777.0906776-.2118486.1412324-.3402417.1412324s-.2495641-.0497523-.3402418-.1412324l-.8634436-.8626412-.688508.688508.8626412.8634436c.1877749.1869725.1877749.4927086 0 .6804835l-.2351199.2351198c-.0906776.0906777-.2118486.1412324-.3402417.1412324s-.2495641-.0497523-.3402417-.1412324l-.8634436-.8626411-.8634436.8626411c-.0906777.0906777-.2118487.1412324-.34024175.1412324-.1283931 0-.24956409-.0497523-.34024172-.1412324l-.23511986-.2351198c-.18777491-.1869725-.18777491-.4927086 0-.6804835z" fill="#fff" opacity=".6"/></g></svg>