<?xml version="1.0" encoding="UTF-8"?>
<svg width="24px" height="24px" viewBox="0 0 24 24" version="1.1" xmlns="http://www.w3.org/2000/svg" xmlns:xlink="http://www.w3.org/1999/xlink">
    <title>australian-football-m</title>
    <g id="Page-2:-Night" stroke="none" stroke-width="1" fill="none" fill-rule="evenodd" opacity="0.6">
        <g id="australian-football-m" fill-rule="nonzero">
            <circle id="Oval" fill="#FFFFFF" cx="12" cy="12" r="12"></circle>
            <circle id="Oval" fill="#717065" cx="12" cy="12" r="11"></circle>
            <path d="M17.6491935,7.26532258 C17.5330645,6.825 17.1870968,6.47903226 16.7467742,6.36048387 C16.1685484,6.20564516 15.266129,6.02177419 14.2112903,6 L18,9.79354839 C17.9806452,8.74112903 17.8016129,7.84354839 17.6491935,7.26532258 Z M6.35080645,16.7346774 C6.46693548,17.175 6.81290323,17.5209677 7.25322581,17.6395161 C7.83145161,17.7943548 8.73387097,17.9782258 9.78870968,18 L6,14.2064516 C6.01935484,15.258871 6.1983871,16.1564516 6.35080645,16.7346774 Z M6.1016129,12.6629032 L11.3322581,17.9032258 C14.5379032,17.433871 17.3516129,15.0314516 17.9008065,11.3370968 L12.6677419,6.09677419 C9.46209677,6.56612903 6.6483871,8.96854839 6.1016129,12.6629032 Z M13.7782258,9.67258065 C13.8532258,9.59758065 13.9766129,9.59758065 14.0516129,9.67258065 L14.325,9.94596774 C14.4,10.0209677 14.4,10.1443548 14.325,10.2193548 L13.6403226,10.9040323 L14.325,11.5887097 C14.4,11.6637097 14.4,11.7870968 14.325,11.8620968 L14.0516129,12.1354839 C13.9766129,12.2104839 13.8532258,12.2104839 13.7782258,12.1354839 L13.0935484,11.4508065 L12.5467742,12 L13.2314516,12.6846774 C13.3064516,12.7596774 13.3064516,12.8830645 13.2314516,12.9580645 L12.9580645,13.2314516 C12.8830645,13.3064516 12.7596774,13.3064516 12.6846774,13.2314516 L12,12.5467742 L11.4532258,13.0935484 L12.1379032,13.7782258 C12.2129032,13.8532258 12.2129032,13.9766129 12.1379032,14.0516129 L11.8645161,14.325 C11.7895161,14.4 11.666129,14.4 11.591129,14.325 L10.9064516,13.6403226 L10.2217742,14.325 C10.1467742,14.4 10.0233871,14.4 9.9483871,14.325 L9.675,14.0516129 C9.6,13.9766129 9.6,13.8532258 9.675,13.7782258 L10.3596774,13.0935484 L9.675,12.4112903 C9.6,12.3362903 9.6,12.2129032 9.675,12.1379032 L9.9483871,11.8645161 C10.0233871,11.7895161 10.1467742,11.7895161 10.2217742,11.8645161 L10.9064516,12.5491935 L11.4532258,12.0024194 L10.7685484,11.3177419 C10.6935484,11.2427419 10.6935484,11.1193548 10.7685484,11.0443548 L11.0419355,10.7709677 C11.1169355,10.6959677 11.2403226,10.6959677 11.3153226,10.7709677 L12,11.4556452 L12.5467742,10.908871 L11.8620968,10.2241935 C11.7870968,10.1491935 11.7870968,10.0258065 11.8620968,9.95080645 L12.1354839,9.67741935 C12.2104839,9.60241935 12.333871,9.60241935 12.408871,9.67741935 L13.0935484,10.3620968 L13.7782258,9.67258065 L13.7782258,9.67258065 Z" id="Shape" fill="#FFFFFF"></path>
        </g>
    </g>
</svg>