<svg width="28" height="28" viewBox="0 0 28 28">
  <g fill="none" fill-rule="evenodd">
    <circle cx="14" cy="14" r="14" fill="#FFF" opacity=".4"/>
    <circle cx="14" cy="14" r="13" fill="#3D3D36"/>
    <path fill="#FFF" d="M17.5857012,7.00193316 C14.9111444,7.10898131 12.2687021,8.18522693 10.2273762,10.2273762 C8.18522693,12.2687021 7.10980476,14.9111444 7.00193316,17.5857012 C6.93358704,19.3108233 8.68917667,21.066413 10.4142988,20.9980668 C13.0888556,20.8901952 15.7312979,19.8147731 17.7726238,17.7726238 C19.8147731,15.7312979 20.8910187,13.0888556 20.9980668,10.4142988 C21.066413,8.68917667 19.3108233,6.93358704 17.5857012,7.00193316 L17.5857012,7.00193316 Z M18.2963363,12.4152757 C18.4890229,12.6071389 18.4890229,12.9208723 18.2963363,13.113559 L18.0550662,13.354829 C17.9620167,13.4478786 17.8376761,13.4997558 17.7059246,13.4997558 C17.574173,13.4997558 17.4498324,13.448702 17.3567829,13.354829 L16.4707536,12.4696232 L14.9407885,13.9995883 L15.8259944,14.8856176 C16.018681,15.0774808 16.018681,15.3912142 15.8259944,15.5839009 L15.5847243,15.8251709 C15.4916748,15.9182205 15.3673342,15.9700977 15.2355827,15.9700977 C15.1038311,15.9700977 14.9794906,15.9190439 14.886441,15.8251709 L14.0004117,14.9399651 L12.4704466,16.4699302 L13.3556525,17.3559595 C13.448702,17.449009 13.5005792,17.5733495 13.5005792,17.7051011 C13.5005792,17.8368527 13.4495255,17.9611932 13.3556525,18.0542428 L13.1143824,18.2955128 C13.0213329,18.3885624 12.8969923,18.4404395 12.7652408,18.4404395 C12.6334892,18.4404395 12.5091487,18.3893858 12.4160991,18.2955128 L11.5300698,17.410307 L10.6440405,18.2955128 C10.550991,18.3885624 10.4266505,18.4404395 10.2948989,18.4404395 C10.1631473,18.4404395 10.0388068,18.3893858 9.94575724,18.2955128 L9.70448718,18.0542428 C9.51180052,17.8623795 9.51180052,17.5486461 9.70448718,17.3559595 L10.589693,16.4699302 L9.70448718,15.5839009 C9.51180052,15.3920377 9.51180052,15.0783042 9.70448718,14.8856176 L9.94575724,14.6443475 C10.0388068,14.551298 10.1631473,14.4994208 10.2948989,14.4994208 C10.4266505,14.4994208 10.550991,14.5504745 10.6440405,14.6443475 L11.5300698,15.5295534 L13.0600349,13.9995883 L12.1748291,13.113559 C11.9821424,12.9216958 11.9821424,12.6079623 12.1748291,12.4152757 L12.4160991,12.1740056 C12.5091487,12.0809561 12.6334892,12.0290789 12.7652408,12.0290789 C12.8969923,12.0290789 13.0213329,12.0801326 13.1143824,12.1740056 L14.0004117,13.0592115 L15.5303768,11.5292464 L14.645171,10.6432171 C14.5521214,10.5501676 14.5002442,10.425827 14.5002442,10.2940754 C14.5002442,10.1623239 14.551298,10.0379833 14.645171,9.9449338 L14.886441,9.70366374 C14.9794906,9.61061419 15.1038311,9.55873701 15.2355827,9.55873701 C15.3673342,9.55873701 15.4916748,9.60979075 15.5847243,9.70366374 L16.4707536,10.5888696 L17.3567829,9.70366374 C17.4498324,9.61061419 17.574173,9.55873701 17.7059246,9.55873701 C17.8376761,9.55873701 17.9620167,9.60979075 18.0550662,9.70366374 L18.2963363,9.9449338 C18.4890229,10.136797 18.4890229,10.4505304 18.2963363,10.6432171 L17.4111304,11.5292464 L18.2963363,12.4152757 L18.2963363,12.4152757 Z" opacity=".6"/>
  </g>
</svg>
