<svg version="1.1" viewBox="0 0 24 24" xmlns="http://www.w3.org/2000/svg">
 <title>australian-football-m</title>
 <g fill="none" fill-rule="evenodd">
  <g id="australian-football-m" fill-rule="nonzero">
   <path id="Shape" d="m20.474 4.898c-0.17419-0.66048-0.69314-1.1794-1.3536-1.3573-0.86734-0.23226-2.221-0.50806-3.8032-0.54073l5.6831 5.6903c-0.029025-1.5786-0.29758-2.925-0.52621-3.7923zm-16.948 14.204c0.17419 0.66048 0.69315 1.1794 1.3536 1.3573 0.86734 0.23226 2.221 0.50806 3.8032 0.54073l-5.6831-5.6903c0.029033 1.5786 0.29758 2.925 0.52621 3.7923zm-0.37379-6.1077 7.846 7.8605c4.8085-0.70403 9.029-4.3077 9.8528-9.8492l-7.8496-7.8605c-4.8085 0.70403-9.029 4.3077-9.8492 9.8492zm11.515-4.4855c0.1125-0.1125 0.29758-0.1125 0.41008 0l0.41008 0.41008c0.1125 0.1125 0.1125 0.29758 0 0.41008l-1.027 1.027 1.027 1.027c0.1125 0.1125 0.1125 0.29758 0 0.41008l-0.41008 0.41008c-0.1125 0.1125-0.29758 0.1125-0.41008 0l-1.027-1.027-0.82016 0.82379 1.027 1.027c0.1125 0.1125 0.1125 0.29758 0 0.41008l-0.41008 0.41008c-0.1125 0.1125-0.29758 0.1125-0.41008 0l-1.027-1.027-0.82016 0.82016 1.027 1.027c0.1125 0.1125 0.1125 0.29758 0 0.41008l-0.41008 0.41008c-0.1125 0.1125-0.29758 0.1125-0.41008 0l-1.027-1.027-1.027 1.027c-0.1125 0.1125-0.29758 0.1125-0.41008 0l-0.41008-0.41008c-0.1125-0.1125-0.1125-0.29758 0-0.41008l1.027-1.027-1.027-1.0234c-0.1125-0.1125-0.1125-0.29758 0-0.41008l0.41008-0.41008c0.1125-0.1125 0.29758-0.1125 0.41008 0l1.027 1.027 0.82016-0.82016-1.027-1.027c-0.1125-0.1125-0.1125-0.29758 0-0.41008l0.41008-0.41008c0.1125-0.1125 0.29758-0.1125 0.41008 0l1.027 1.027 0.82016-0.82016-1.027-1.027c-0.1125-0.1125-0.1125-0.29758 0-0.41008l0.41008-0.41008c0.1125-0.1125 0.29758-0.1125 0.41008 0l1.027 1.027z" fill="#fff" opacity=".6" stroke-width="1.5"/>
  </g>
 </g>
</svg>
