<?xml version="1.0" encoding="UTF-8" standalone="no"?>
<svg width="27px" height="27px" viewBox="0 0 27 27" version="1.1" xmlns="http://www.w3.org/2000/svg" xmlns:xlink="http://www.w3.org/1999/xlink" xmlns:sketch="http://www.bohemiancoding.com/sketch/ns">
    <!-- Generator: Sketch 3.4.2 (15857) - http://www.bohemiancoding.com/sketch -->
    <title>australian-football-l</title>
    <desc>Created with Sketch.</desc>
    <defs>
        <path id="path-1" d="M26,13.5 C26,20.403 20.403,26 13.5,26 C6.597,26 1,20.403 1,13.5 C1,6.597 6.597,1 13.5,1 C20.403,1 26,6.597 26,13.5 L26,13.5 Z"></path>
    </defs>
    <g id="POI" stroke="none" stroke-width="1" fill="none" fill-rule="evenodd" sketch:type="MSPage">
        <g id="australian-football-l" sketch:type="MSLayerGroup">
            <path d="M13.5,27 C6.057,27 0,20.943 0,13.5 C0,6.057 6.057,0 13.5,0 C20.943,0 27,6.057 27,13.5 C27,20.943 20.943,27 13.5,27 L13.5,27 Z" id="Shape" opacity="0" fill="#FFFFFF" sketch:type="MSShapeGroup"></path>
            <g id="Shape">
                <use fill="#3D3D37" fill-rule="evenodd" sketch:type="MSShapeGroup" xlink:href="#path-1"></use>
                <use fill="none" xlink:href="#path-1"></use>
            </g>
            <path d="M17.3414941,6.00207143 C14.4756401,6.11677618 11.6441974,7.27000008 9.45686611,9.45821376 C7.26865244,11.6455451 6.11631088,14.4769877 6.00072379,17.3428417 C5.92748922,19.1913529 7.8086471,21.0725108 9.65715825,20.9992762 C12.5230123,20.8836891 15.3544549,19.7313476 17.5417862,17.5431339 C19.7299999,15.3558026 20.8832238,12.5243599 20.9979286,9.6585059 C21.0711631,7.80999475 19.1900053,5.92883686 17.3414941,6.00207143 L17.3414941,6.00207143 Z M18.1029572,11.8026024 C18.3094257,12.0081886 18.3094257,12.3443617 18.1029572,12.5508303 L17.8444303,12.8093571 C17.7447254,12.909062 17.6114914,12.9646497 17.4703164,12.9646497 C17.3291413,12.9646497 17.1959073,12.9099444 17.0962024,12.8093571 L16.1468,11.8608371 L14.5074045,13.5002327 L15.4559245,14.449635 C15.662393,14.6552212 15.662393,14.9913944 15.4559245,15.1978629 L15.1973976,15.4563898 C15.0976927,15.5560947 14.9644588,15.6116824 14.8232837,15.6116824 C14.6821086,15.6116824 14.5488746,15.556977 14.4491697,15.4563898 L13.4997673,14.5078698 L11.8603718,16.1472653 L12.8088918,17.0966677 C12.9085967,17.1963726 12.9641844,17.3296066 12.9641844,17.4707817 C12.9641844,17.6119567 12.9094791,17.7451907 12.8088918,17.8448956 L12.550365,18.1034225 C12.4506601,18.2031274 12.3174261,18.2587151 12.176251,18.2587151 C12.0350759,18.2587151 11.901842,18.2040097 11.8021371,18.1034225 L10.8527347,17.1549024 L9.90333229,18.1034225 C9.80362739,18.2031274 9.67039342,18.2587151 9.52921834,18.2587151 C9.38804326,18.2587151 9.25480929,18.2040097 9.15510439,18.1034225 L8.89657753,17.8448956 C8.69010898,17.6393094 8.69010898,17.3031363 8.89657753,17.0966677 L9.84509757,16.1472653 L8.89657753,15.1978629 C8.69010898,14.9922767 8.69010898,14.6561036 8.89657753,14.449635 L9.15510439,14.1911082 C9.25480929,14.0914033 9.38804326,14.0358156 9.52921834,14.0358156 C9.67039342,14.0358156 9.80362739,14.0905209 9.90333229,14.1911082 L10.8527347,15.1396282 L12.4921302,13.5002327 L11.5436102,12.5508303 C11.3371417,12.3452441 11.3371417,12.0090709 11.5436102,11.8026024 L11.8021371,11.5440755 C11.901842,11.4443706 12.0350759,11.3887829 12.176251,11.3887829 C12.3174261,11.3887829 12.4506601,11.4434883 12.550365,11.5440755 L13.4997673,12.4925955 L15.1391629,10.8532 L14.1906429,9.90379759 C14.090938,9.80409269 14.0353503,9.67085872 14.0353503,9.52968364 C14.0353503,9.38850856 14.0900556,9.25527459 14.1906429,9.15556969 L14.4491697,8.89704283 C14.5488746,8.79733793 14.6821086,8.74175025 14.8232837,8.74175025 C14.9644588,8.74175025 15.0976927,8.79645559 15.1973976,8.89704283 L16.1468,9.84556287 L17.0962024,8.89704283 C17.1959073,8.79733793 17.3291413,8.74175025 17.4703164,8.74175025 C17.6114914,8.74175025 17.7447254,8.79645559 17.8444303,8.89704283 L18.1029572,9.15556969 C18.3094257,9.36115589 18.3094257,9.69732904 18.1029572,9.90379759 L17.1544371,10.8532 L18.1029572,11.8026024 L18.1029572,11.8026024 Z" id="Shape" opacity="0.7" fill="#FFFFFF" sketch:type="MSShapeGroup"></path>
        </g>
    </g>
</svg>