<?xml version="1.0" encoding="UTF-8" standalone="no"?>
<svg width="23px" height="23px" viewBox="0 0 23 23" version="1.1" xmlns="http://www.w3.org/2000/svg" xmlns:xlink="http://www.w3.org/1999/xlink" xmlns:sketch="http://www.bohemiancoding.com/sketch/ns">
    <!-- Generator: Sketch 3.4.2 (15857) - http://www.bohemiancoding.com/sketch -->
    <title>australian-football-m</title>
    <desc>Created with Sketch.</desc>
    <defs>
        <path id="path-1" d="M22,11.5 C22,17.299 17.299,22 11.5,22 C5.701,22 1,17.299 1,11.5 C1,5.701 5.701,1 11.5,1 C17.299,1 22,5.701 22,11.5 L22,11.5 Z"></path>
    </defs>
    <g id="POI" stroke="none" stroke-width="1" fill="none" fill-rule="evenodd" sketch:type="MSPage">
        <g id="australian-football-m" sketch:type="MSLayerGroup">
            <path d="M11.5,23 C5.159,23 0,17.841 0,11.5 C0,5.159 5.159,0 11.5,0 C17.841,0 23,5.159 23,11.5 C23,17.841 17.841,23 11.5,23 L11.5,23 Z" id="Shape" opacity="0" fill="#FFFFFF" sketch:type="MSShapeGroup"></path>
            <g id="Shape">
                <use fill="#33332E" fill-rule="evenodd" sketch:type="MSShapeGroup" xlink:href="#path-1"></use>
                <use fill="none" xlink:href="#path-1"></use>
            </g>
            <path d="M14.8416197,5.00174174 C12.3658587,5.10049497 9.92041664,6.09755618 8.03284378,7.98599529 C6.14267215,9.87530066 5.14734346,12.3198764 5.04772397,14.7947712 C4.98448725,16.3904156 6.60958439,18.0155128 8.20522882,17.952276 C10.6801236,17.8526565 13.1255656,16.8564616 15.0140047,14.9671562 C16.9033101,13.0787171 17.899505,10.6341413 17.9982583,8.15838033 C18.0606287,6.5627359 16.4372641,4.93937127 14.8416197,5.00174174 L14.8416197,5.00174174 Z M9.64754585,12.3631893 L8.71632014,11.4310973 C8.51361612,11.2292595 8.51361612,10.8992158 8.71632014,10.6965118 L8.97013329,10.4426987 C9.06802027,10.3448117 9.198825,10.2902375 9.33742603,10.2902375 C9.47602707,10.2902375 9.60683179,10.3439454 9.70471878,10.4426987 L10.6368107,11.3739244 L11.3800588,10.6306763 L10.4488331,9.69858434 C10.3509461,9.60069736 10.2963719,9.46989263 10.2963719,9.3312916 C10.2963719,9.19269056 10.3500798,9.06188583 10.4488331,8.96399885 L10.7026462,8.7101857 C10.8005332,8.61229872 10.9313379,8.55772456 11.069939,8.55772456 C11.20854,8.55772456 11.3393447,8.61143247 11.4372317,8.7101857 L12.3693237,9.64141141 L13.3014157,8.7101857 C13.3993026,8.61229872 13.5301074,8.55772456 13.6687084,8.55772456 C13.8073094,8.55772456 13.9381142,8.61143247 14.0360011,8.7101857 L14.2898143,8.96399885 C14.4925183,9.16583661 14.4925183,9.49588033 14.2898143,9.69858434 L13.3585886,10.6306763 L14.2898143,11.5627683 C14.4925183,11.764606 14.4925183,12.0946497 14.2898143,12.2973538 L14.0360011,12.5511669 C13.9381142,12.6490539 13.8073094,12.7036281 13.6687084,12.7036281 C13.5301074,12.7036281 13.3993026,12.6499202 13.3014157,12.5511669 L12.3693237,11.6199412 L11.6260756,12.3631893 L12.5573013,13.2952812 C12.7600054,13.497119 12.7600054,13.8271627 12.5573013,14.0298667 L12.3034882,14.2836799 C12.2056012,14.3815668 12.0747965,14.436141 11.9361955,14.436141 C11.7975944,14.436141 11.6667897,14.3824331 11.5689027,14.2836799 L10.6368107,13.3524542 L9.70471878,14.2836799 C9.60683179,14.3815668 9.47602707,14.436141 9.33742603,14.436141 C9.198825,14.436141 9.06802027,14.3824331 8.97013329,14.2836799 L8.71632014,14.0298667 C8.51361612,13.828029 8.51361612,13.4979852 8.71632014,13.2952812 L9.64754585,12.3631893 L9.64754585,12.3631893 Z" id="Shape" opacity="0.7" fill="#FFFFFF" sketch:type="MSShapeGroup"></path>
        </g>
    </g>
</svg>