<?xml version="1.0" encoding="UTF-8" standalone="no"?>
<svg width="27px" height="27px" viewBox="0 0 27 27" version="1.1" xmlns="http://www.w3.org/2000/svg" xmlns:xlink="http://www.w3.org/1999/xlink" xmlns:sketch="http://www.bohemiancoding.com/sketch/ns">
    <!-- Generator: Sketch 3.4.2 (15857) - http://www.bohemiancoding.com/sketch -->
    <title>bakery-l</title>
    <desc>Created with Sketch.</desc>
    <defs>
        <path id="path-1" d="M26,13.5 C26,20.403 20.403,26 13.5,26 C6.597,26 1,20.403 1,13.5 C1,6.597 6.597,1 13.5,1 C20.403,1 26,6.597 26,13.5 L26,13.5 Z"></path>
    </defs>
    <g id="POI" stroke="none" stroke-width="1" fill="none" fill-rule="evenodd" sketch:type="MSPage">
        <g id="bakery-l" sketch:type="MSLayerGroup">
            <path d="M13.5,27 C6.057,27 0,20.943 0,13.5 C0,6.057 6.057,0 13.5,0 C20.943,0 27,6.057 27,13.5 C27,20.943 20.943,27 13.5,27 L13.5,27 Z" id="Shape" opacity="0" fill="#FFFFFF" sketch:type="MSShapeGroup"></path>
            <g id="Shape">
                <use fill="#33332E" fill-rule="evenodd" sketch:type="MSShapeGroup" xlink:href="#path-1"></use>
                <use fill="none" xlink:href="#path-1"></use>
            </g>
            <path d="M13.5,7 C12,7 10.736,7.536 11.062,9 L12.5,15.5 C12.551,15.73 12.689,16 13,16 L14,16 L14,16 C14.311,16 14.449,15.73 14.5,15.5 L15.938,9 C16.264,7.536 15,7 13.5,7 L14,7 L13.5,7 L13.5,7 Z M8,10 C7,10 6.049,10.599 6.5,11.5 L8.5,15.5 C8.666,15.834 9,16 9.5,16 L10.5,16 C10.5,16 11.115,16.018 11,15.5 L10,11 C9.889,10.497 9.5,10 9,10 L8,10 L8,10 Z M18,10 C17.5,10 17.111,10.497 17,11 L16,15.5 C15.885,16.018 16.5,16 16.5,16 L17.5,16 C18,16 18.334,15.834 18.5,15.5 L20.5,11.5 C20.951,10.599 20,10 19,10 L18,10 L18,10 Z M5.438,13.125 C5.245,13.124 5.083,13.243 5,13.5 L4.043,16.494 C3.924,16.869 4.005,17.06 4.512,16.963 L7,16.5 C7.491,16.406 7.572,16.234 7.438,16 L6,13.5 C5.854,13.248 5.631,13.126 5.438,13.125 L5.438,13.125 Z M21.562,13.125 C21.369,13.126 21.145,13.248 21,13.5 L19.562,16 C19.427,16.234 19.508,16.406 20,16.5 L22.453,16.975 C22.96,17.072 23.072,16.88 22.953,16.506 L22,13.5 C21.918,13.243 21.756,13.124 21.562,13.125 L21.562,13.125 Z" id="Shape" opacity="0.7" fill="#FFFFFF" sketch:type="MSShapeGroup"></path>
        </g>
    </g>
</svg>