<?xml version="1.0" encoding="UTF-8" standalone="no"?>
<svg width="23px" height="23px" viewBox="0 0 23 23" version="1.1" xmlns="http://www.w3.org/2000/svg" xmlns:xlink="http://www.w3.org/1999/xlink" xmlns:sketch="http://www.bohemiancoding.com/sketch/ns">
    <!-- Generator: Sketch 3.4.2 (15857) - http://www.bohemiancoding.com/sketch -->
    <title>bakery-m</title>
    <desc>Created with Sketch.</desc>
    <defs>
        <path id="path-1" d="M22,11.5 C22,17.299 17.299,22 11.5,22 C5.701,22 1,17.299 1,11.5 C1,5.701 5.701,1 11.5,1 C17.299,1 22,5.701 22,11.5 L22,11.5 Z"></path>
    </defs>
    <g id="POI" stroke="none" stroke-width="1" fill="none" fill-rule="evenodd" sketch:type="MSPage">
        <g id="bakery-m" sketch:type="MSLayerGroup">
            <path d="M11.5,23 C5.159,23 0,17.841 0,11.5 C0,5.159 5.159,0 11.5,0 C17.841,0 23,5.159 23,11.5 C23,17.841 17.841,23 11.5,23 L11.5,23 Z" id="Shape" opacity="0" fill="#FFFFFF" sketch:type="MSShapeGroup"></path>
            <g id="Shape">
                <use fill="#33332E" fill-rule="evenodd" sketch:type="MSShapeGroup" xlink:href="#path-1"></use>
                <use fill="none" xlink:href="#path-1"></use>
            </g>
            <path d="M11,7 C10,7 9.5,7.5 9.5,8.5 L10.5,12.5 L11,13 L12,13 L12.5,12.5 L13.5,8.5 C13.5,7.5 13,7 12,7 L11,7 L11,7 Z M8.5,8.5 L6.5,9.5 L8,13 L9,13 L9.5,12.5 L8.5,8.5 L8.5,8.5 Z M14.5,8.5 L13.5,12.5 L14,13 L15,13 L16.5,9.5 L14.5,8.5 L14.5,8.5 Z M6,10.5 L5.5,11 L5,12.5 L5,14 L5.5,14 L7,13 L6,10.5 L6,10.5 Z M17,10.5 L16,13 L17,14 L18,14 L18,12.5 L17.5,11 L17,10.5 L17,10.5 Z" id="Shape" opacity="0.7" fill="#FFFFFF" sketch:type="MSShapeGroup"></path>
        </g>
    </g>
</svg>