<svg width="24" height="24" viewBox="0 0 24 24">
  <g fill="none" fill-rule="evenodd">
    <circle cx="12" cy="12" r="12" fill="#FFF" opacity=".4"/>
    <circle cx="12" cy="12" r="11" fill="#4E3551"/>
    <path fill="#FFF" d="M11.4615385,8 C10.3846154,8 9.84615385,8.57142857 9.84615385,9.71428571 L10.9230769,14.2857143 L11.4615385,14.8571429 L12.5384615,14.8571429 L13.0769231,14.2857143 L14.1538462,9.71428571 C14.1538462,8.57142857 13.6153846,8 12.5384615,8 L11.4615385,8 L11.4615385,8 Z M8.76923077,9.71428571 L6.61538462,10.8571429 L8.23076923,14.8571429 L9.30769231,14.8571429 L9.84615385,14.2857143 L8.76923077,9.71428571 L8.76923077,9.71428571 Z M15.2307692,9.71428571 L14.1538462,14.2857143 L14.6923077,14.8571429 L15.7692308,14.8571429 L17.3846154,10.8571429 L15.2307692,9.71428571 L15.2307692,9.71428571 Z M6.07692308,12 L5.53846154,12.5714286 L5,14.2857143 L5,16 L5.53846154,16 L7.15384615,14.8571429 L6.07692308,12 L6.07692308,12 Z M17.9230769,12 L16.8461538,14.8571429 L17.9230769,16 L19,16 L19,14.2857143 L18.4615385,12.5714286 L17.9230769,12 L17.9230769,12 Z" opacity=".6"/>
  </g>
</svg>
