<svg width="28" height="28" viewBox="0 0 28 28">
  <g fill="none" fill-rule="evenodd">
    <circle cx="14" cy="14" r="14" fill="#FFF" opacity=".4"/>
    <circle cx="14" cy="14" r="13" fill="#3D3C36"/>
    <path fill="#FFF" fill-rule="nonzero" d="M17.1274661,7 C16.5650732,7 16.0114677,7.23042161 15.589673,7.59909618 C16.0114677,7.89403583 16.4288687,8.24427667 16.7100652,8.61295124 L16.9077814,8.4055718 L17.4789617,8.4055718 L17.4789617,11.0554203 C17.4789617,11.4240948 17.41745,11.7927694 17.3471509,12.161444 C18.6125349,12.0139742 19.5879351,10.9079504 19.5879351,9.58072199 C19.5879351,8.17975862 18.4631493,7 17.1274661,7 Z M13.6125104,7.73734914 C11.8550326,7.73734914 10.4490503,9.21204742 10.4490503,11.0554203 C10.4490503,12.8987931 11.8550326,14.3734914 13.6125104,14.3734914 C15.3699883,14.3734914 16.7759706,12.8987931 16.7759706,11.0554203 C16.7759706,9.21204742 15.3699883,7.73734914 13.6125104,7.73734914 Z M13.3928257,9.51159551 L14.1836907,9.51159551 L14.1836907,12.5301186 L14.0958168,12.5301186 L13.129204,12.5301186 L13.129204,10.5484927 L12.4262129,10.5484927 L13.3928257,9.51159551 Z M16.797939,14.3734914 C16.4519352,14.4253359 16.064192,14.6407805 15.589673,14.9725876 C15.1678783,15.2675272 14.3198953,15.7790632 14.2495962,15.7790632 C14.3198953,15.8527981 14.6669971,15.8481897 14.6669971,15.8481897 L14.7329026,15.8481897 C15.5061928,15.8481897 16.0729794,16.5164123 16.0729794,17.2537615 L16.0729794,17.3920144 C16.0729794,18.2030985 15.4358937,18.7975862 14.7329026,18.7975862 L13.2610149,18.7975862 C11.9956308,18.7975862 10.8005459,17.4611409 10.8005459,17.4611409 C10.8005459,17.4611409 12.2768273,18.0602371 13.2610149,18.0602371 L14.6669971,18.0602371 C15.0887918,18.0602371 15.3699883,17.6915625 15.3699883,17.322888 C15.3699883,16.9542134 15.0843981,16.5855388 14.7329026,16.5855388 C13.3972194,16.438069 12.8436139,15.8481897 12.8436139,15.8481897 C12.8436139,15.8481897 11.6397415,14.8942442 11.2179469,14.6730395 C9.74166545,13.7882205 7,15.6177681 7,15.6177681 L8.82338327,19.8344835 C8.82338327,19.8344835 9.75484654,19.2492126 11.0202306,19.765357 C11.86382,20.1340316 12.3515201,20.4151459 13.1951094,20.7100856 C14.3901944,21.1524951 14.8163828,21.0925854 15.589673,20.5027061 C16.2926642,19.9865617 19.6670216,17.184635 20.1591154,16.8159604 C20.8621066,16.1523462 21.2136022,15.6223765 20.8621066,15.179967 C20.7215084,15.0324972 20.4930362,14.8850274 20.0712415,14.8112925 C19.6494469,14.7375575 17.4086626,14.4472263 17.1274661,14.3734914 C17.0220175,14.3550577 16.9132732,14.3562094 16.797939,14.3734914 Z" opacity=".6"/>
  </g>
</svg>
