<?xml version="1.0" encoding="UTF-8" standalone="no"?>
<svg width="23px" height="23px" viewBox="0 0 23 23" version="1.1" xmlns="http://www.w3.org/2000/svg" xmlns:xlink="http://www.w3.org/1999/xlink">
    <!-- Generator: Sketch 3.8.3 (29802) - http://www.bohemiancoding.com/sketch -->
    <title>banknote-m</title>
    <desc>Created with Sketch.</desc>
    <defs></defs>
    <g id="POI-NIght" stroke="none" stroke-width="1" fill="none" fill-rule="evenodd">
        <g id="banknote-m">
            <g>
                <ellipse id="Oval-1-Copy-41" fill-opacity="0.1" fill="#FFFFFF" cx="11.5" cy="11.5" rx="11.5" ry="11.5"></ellipse>
                <ellipse id="Oval-1-Copy-40" fill="#252522" cx="11.5" cy="11.5" rx="10.5" ry="10.5"></ellipse>
                <g id="Group-10" transform="translate(9.000000, 8.000000)" fill="#FFFFFF" fill-opacity="0.7">
                    <path d="M0,2.5 C0,1.67157288 0.674322248,1 1.50016487,1 L4.00019251,1 C4.55237094,1 5,1.44266033 5,1.99895656 L5,4 L1.50016487,4 C0.671646689,4 0,3.33420277 0,2.5 Z M1,2.5 C1,2.22385763 1.21505737,2 1.49047852,2 L5,2 L5,3 L1.49047852,3 C1.21959471,3 1,2.76806641 1,2.5 Z M3,3 L5,3 L5,4 L3,4 L3,3 Z" id="Combined-Shape"></path>
                    <path d="M5,4.5 C5,5.32842712 4.32567775,6 3.49983513,6 L0.999807492,6 C0.447629061,6 0,5.55733967 0,5.00104344 L0,3 L3.49983513,3 C4.32835331,3 5,3.66579723 5,4.5 Z M4,4.5 C4,4.77614237 3.78494263,5 3.50952148,5 L0,5 L0,4 L3.50952148,4 C3.78040529,4 4,4.23193359 4,4.5 Z M0,3 L2,3 L2,4 L0,4 L0,3 Z M2,0 L3,0 L3,1 L2,1 L2,0 Z" id="Combined-Shape"></path>
                    <rect id="Rectangle-435" x="2" y="2" width="1" height="1"></rect>
                    <rect id="Rectangle-436" x="2" y="4" width="1" height="1"></rect>
                    <rect id="Rectangle-441" x="2" y="6" width="1" height="1"></rect>
                </g>
                <path d="M5,15.0640979 L4,15.0146484 L5.99841309,12 L8,15.0146484 L7,15.0640979 C7,16.4412231 7,18.0181885 13.015625,19.0090332 C9,19.0090332 5,18.03302 5,15.0640979 Z M18.015625,7.94493532 L19.015625,7.99438477 L17.0172119,11.0090332 L15.015625,7.99438477 L16.015625,7.94493532 C16.015625,6.56781006 16.015625,4.99084473 10,4 C14.015625,4 18.015625,4.97601318 18.015625,7.94493532 Z" id="Combined-Shape" fill-opacity="0.7" fill="#FFFFFF"></path>
            </g>
        </g>
    </g>
</svg>