<svg height="24" viewBox="0 0 24 24" width="24"><g fill="none" fill-rule="evenodd"><circle cx="12" cy="12" fill="#fff" opacity=".4" r="12"/><circle cx="12" cy="12" fill="#3d3d36" r="11"/><path d="m6 7.76923077 6-2.76923077 6 2.76923077v.92307692h-.9230769v6.92307691h.9230769v1.3846154h-12v-1.3846154h.92307692v-6.92307691h-.92307692zm8.3076923 4.92417043c0-1.0202645-1.0379487-1.846974-2.3097436-1.846974-.4225641 0-.771282-.2755698-.771282-.6167515s.3446154-.61675153.771282-.61675153c.4266667 0 .7712821.27885043.7712821.61675153h1.5384615c0-.80046475-.6441026-1.47626696-1.5384615-1.73215323v-.7282917h-1.5384616v.7282917c-.8943589.25588627-1.53846151.93168848-1.53846151 1.73215323 0 1.0202645 1.03794871 1.846974 2.30974361 1.846974.4266666 0 .771282.2755698.771282.6167515s-.3446154.6167516-.771282.6167516c-.4266667 0-.7712821-.2788505-.7712821-.6167516h-1.53846151c0 .8004648.64410261 1.476267 1.53846151 1.7321533v.7282917h1.5384616v-.7282917c.8943589-.2558863 1.5384615-.9316885 1.5384615-1.7321533z" fill="#fff" opacity=".6"/></g></svg>