<svg version="1.1" viewBox="0 0 24 24" xmlns="http://www.w3.org/2000/svg">
 <title>banknote-m</title>
 <g id="Page-2:-Night" fill="none" fill-rule="evenodd" opacity=".6">
  <g id="banknote-m" fill-rule="nonzero">
   <circle id="Oval" cx="12" cy="12" r="12" fill="#fff"/>
   <circle id="Oval" cx="12" cy="12" r="11.143" fill="#717065"/>
   <path id="Shape" d="m18.286 8.8571h-0.81943l-1.548-2.58c-0.082286-0.136-0.21714-0.23257-0.37314-0.26514-0.15486-0.032-0.31886 0.0022857-0.44857 0.094286l-3.8509 2.7509h1.9663l2.0451-1.4606 0.87657 1.4606h-2.4194v1.1429h4v4.5714h-6.8571v-1.1429h-1.1429v1.7143c0 0.316 0.256 0.57143 0.57143 0.57143h3.9326l-0.128 0.256c-0.097143 0.19486-0.29257 0.31543-0.51029 0.31543h-3.6291l-1.3794-1.3794v-2.9549l1.3794-1.38h2.0491v0.57143c0 0.31486-0.256 0.57143-0.57143 0.57143h-1.1429v1.1429h1.1429c0.94514 0 1.7143-0.76914 1.7143-1.7143v-1.1429c0-0.31543-0.25543-0.57143-0.57143-0.57143h-2.8571c-0.15143 0-0.29714 0.059429-0.404 0.168l-1.0474 1.0469c-0.08-0.041714-0.16629-0.072-0.26286-0.072h-2.2857c-0.31543 0-0.57143 0.256-0.57143 0.57143v4.5714c0 0.316 0.256 0.57143 0.57143 0.57143h2.2857c0.096571 0 0.18286-0.029714 0.26286-0.072l1.0474 1.048c0.10686 0.10629 0.25257 0.16686 0.404 0.16686h3.8657c0.65371 0 1.2411-0.36286 1.5331-0.948l0.38286-0.76629h2.7897c0.316 0 0.57143-0.25543 0.57143-0.57143v-5.7143c0-0.31543-0.25543-0.57143-0.57143-0.57143zm-10.857 6.2857h-1.1429v-3.4286h1.1429v3.4286z" fill="#fff"/>
  </g>
 </g>
</svg>
