<?xml version="1.0" encoding="UTF-8"?>
<svg width="17px" height="17px" viewBox="0 0 17 17" version="1.1" xmlns="http://www.w3.org/2000/svg" xmlns:xlink="http://www.w3.org/1999/xlink">
    <!-- Generator: Sketch 39.1 (31720) - http://www.bohemiancoding.com/sketch -->
    <title>bank-s</title>
    <desc>Created with Sketch.</desc>
    <defs></defs>
    <g id="POI-Night" stroke="none" stroke-width="1" fill="none" fill-rule="evenodd">
        <g id="Artboard-1" transform="translate(-567.000000, -105.000000)">
            <g id="atm-s" transform="translate(567.000000, 105.000000)">
                <circle id="Oval-1-Copy-43" fill-opacity="0.1" fill="#FFFFFF" cx="8.5" cy="8.5" r="8.5"></circle>
                <circle id="Oval-1-Copy-42" fill="#252522" cx="8.5" cy="8.5" r="7.5"></circle>
                <path d="M4,6 L4,7 L5,7 L5,12 L4,12 L4,13 L13,13 L13,12 L12,12 L12,7 L13,7 L13,6 L8.5,4 L4,6 Z M10,9.33407375 C10,9.87605509 9.58133333,10.3336295 9,10.5068858 L9,11 L8,11 L8,10.5068858 C7.41866667,10.3336295 7,9.87605509 7,9.33407375 L8,9.33407375 C8,9.56286095 8.224,9.75166593 8.50133333,9.75166593 C8.77866667,9.75166593 9.00266667,9.56508219 9.00266667,9.33407375 C9.00266667,9.1030653 8.77866667,8.91648156 8.50133333,8.91648156 C7.67466667,8.91648156 7,8.35673034 7,7.66592625 C7,7.12394491 7.41866667,6.6663705 8,6.49311417 L8,6 L9,6 L9,6.49311417 C9.58133333,6.6663705 10,7.12394491 10,7.66592625 L9,7.66592625 C9,7.43713905 8.776,7.24833407 8.49866667,7.24833407 C8.22133333,7.24833407 7.99733333,7.43491781 7.99733333,7.66592625 C7.99733333,7.8969347 8.224,8.08351844 8.49866667,8.08351844 C9.32533333,8.08351844 10,8.64326966 10,9.33407375 Z" id="Combined-Shape" fill-opacity="0.7" fill="#FFFFFF"></path>
            </g>
        </g>
    </g>
</svg>