<svg width="24" height="24" viewBox="0 0 24 24">
  <g fill="none" fill-rule="evenodd">
    <circle cx="12" cy="12" r="12" fill="#FFF" opacity=".4"/>
    <circle cx="12" cy="12" r="11" fill="#3D3C36"/>
    <path fill="#FFF" fill-rule="nonzero" d="M14.6806853,6 C14.1986342,6 13.7241152,6.19750423 13.3625769,6.51351101 C13.7241152,6.76631643 14.0818875,7.06652286 14.322913,7.38252964 L14.4923841,7.20477583 L14.9819672,7.20477583 L14.9819672,9.47607452 C14.9819672,9.79208129 14.9292428,10.1080881 14.8689865,10.4240948 C15.9536014,10.2976921 16.7896587,9.34967181 16.7896587,8.21204742 C16.7896587,7.01122168 15.8255566,6 14.6806853,6 Z M11.6678661,6.63201355 C10.1614565,6.63201355 8.95632882,7.89604065 8.95632882,9.47607452 C8.95632882,11.0561084 10.1614565,12.3201355 11.6678661,12.3201355 C13.1742757,12.3201355 14.3794033,11.0561084 14.3794033,9.47607452 C14.3794033,7.89604065 13.1742757,6.63201355 11.6678661,6.63201355 Z M11.4795649,8.15279615 L12.1574492,8.15279615 L12.1574492,10.7401016 L12.0821287,10.7401016 L11.2536034,10.7401016 L11.2536034,9.0415652 L10.6510396,9.0415652 L11.4795649,8.15279615 Z M14.3982335,12.3201355 C14.1016588,12.3645736 13.7693075,12.5492404 13.3625769,12.8336465 C13.0010386,13.0864519 12.2741959,13.5249113 12.2139396,13.5249113 C12.2741959,13.5881127 12.5717118,13.5841626 12.5717118,13.5841626 L12.6282022,13.5841626 C13.2910224,13.5841626 13.7768395,14.1569249 13.7768395,14.7889384 L13.7768395,14.907441 C13.7768395,15.6026559 13.230766,16.1122168 12.6282022,16.1122168 L11.3665842,16.1122168 C10.2819693,16.1122168 9.25761074,14.9666922 9.25761074,14.9666922 C9.25761074,14.9666922 10.5229948,15.4802032 11.3665842,15.4802032 L12.5717118,15.4802032 C12.9332501,15.4802032 13.1742757,15.1641965 13.1742757,14.8481897 C13.1742757,14.5321829 12.9294841,14.2161761 12.6282022,14.2161761 C11.4833309,14.0897734 11.0088119,13.5841626 11.0088119,13.5841626 C11.0088119,13.5841626 9.97692132,12.7664951 9.61538302,12.576891 C8.34999896,11.8184747 6,13.3866584 6,13.3866584 L7.56289995,17.0009858 C7.56289995,17.0009858 8.36129703,16.4993251 9.44591194,16.9417346 C10.1689885,17.2577413 10.5870172,17.4986965 11.3100938,17.7515019 C12.3344523,18.1307101 12.6997567,18.079359 13.3625769,17.5737481 C13.9651407,17.1313386 16.8574471,14.7296871 17.2792418,14.4136804 C17.8818056,13.8448682 18.1830876,13.3906084 17.8818056,13.0114003 C17.7612929,12.8849976 17.5654596,12.7585949 17.2039213,12.6953935 C16.842383,12.6321922 14.9217108,12.3833368 14.6806853,12.3201355 C14.5903007,12.3043352 14.4970913,12.3053224 14.3982335,12.3201355 Z" opacity=".6"/>
  </g>
</svg>
