<?xml version="1.0" encoding="UTF-8" standalone="no"?>
<svg width="27px" height="28px" viewBox="0 0 27 28" version="1.1" xmlns="http://www.w3.org/2000/svg" xmlns:xlink="http://www.w3.org/1999/xlink" xmlns:sketch="http://www.bohemiancoding.com/sketch/ns">
    <!-- Generator: Sketch 3.4.2 (15857) - http://www.bohemiancoding.com/sketch -->
    <title>bank-l</title>
    <desc>Created with Sketch.</desc>
    <defs>
        <circle id="path-1" cx="13.5" cy="13.5" r="12.5"></circle>
        <path d="M14,10.0429192 L14,9 L13,9 L13,10.0112011 C12.1840525,10.0616568 11.5515095,10.2825733 11.102356,10.673955 C10.5867284,11.1232606 10.3289185,11.6874564 10.3289185,12.3665595 C10.3289185,13.110829 10.5956801,13.6578761 11.1292114,14.007717 C11.4443172,14.2169357 12.0136474,14.4107172 12.8372192,14.5890675 L13,14.6240494 L13,16.6791338 C12.5841018,16.6204224 12.2756117,16.4742166 12.0745239,16.2405145 C11.9277133,16.0690238 11.8292442,15.8100768 11.7791138,15.4636656 L10.2000122,15.4636656 C10.2000122,16.2525227 10.4954194,16.8724522 11.0862427,17.3234727 C11.574049,17.6958525 12.2119635,17.9145044 13,17.9794324 L13,19 L14,19 L14,17.9813452 C14.7805086,17.9183206 15.4017809,17.6956013 15.8638306,17.3131833 C16.417056,16.8553032 16.6936646,16.2799606 16.6936646,15.5871383 C16.6936646,14.911465 16.4573388,14.3952858 15.9846802,14.0385852 C15.6803167,13.8087877 15.2291493,13.6252954 14.6311646,13.4881029 L14,13.3429133 L14,11.4183449 C14.078905,11.443386 14.1532254,11.4730695 14.2229614,11.5073955 C14.6096821,11.6994651 14.8173623,12.0235776 14.8460083,12.4797428 L16.4358521,12.4797428 C16.4072061,11.6737366 16.0983713,11.0589517 15.5093384,10.6353698 C15.0733979,10.3218788 14.570288,10.1243961 14,10.0429192 Z M14,14.8444083 L14,16.6758666 C14.1524217,16.6553077 14.2876142,16.6250886 14.4055786,16.585209 C14.867495,16.4274376 15.0984497,16.1341929 15.0984497,15.7054662 C15.0984497,15.4550899 14.9838675,15.2613083 14.7546997,15.1241158 C14.5795105,15.0218598 14.3279456,14.9286245 14,14.8444083 Z M13,13.1108495 L13,11.328331 C12.6938917,11.3560047 12.4409026,11.4345563 12.2410278,11.5639871 C11.9867948,11.7286182 11.8596802,11.9584122 11.8596802,12.2533762 C11.8596802,12.5243315 11.9850044,12.7266874 12.2356567,12.8604502 C12.3677376,12.9335468 12.6225168,13.0170127 13,13.1108495 Z" id="path-2"></path>
    </defs>
    <g id="POI" stroke="none" stroke-width="1" fill="none" fill-rule="evenodd" sketch:type="MSPage">
        <g id="bank-l-copy-2" sketch:type="MSLayerGroup" transform="translate(0.000000, 0.500000)">
            <circle id="Oval-1-Copy-39" opacity="0" fill="#FFFFFF" sketch:type="MSShapeGroup" cx="13.5" cy="13.5" r="13.5"></circle>
            <g id="Oval-1-Copy-38">
                <use fill="#33332E" fill-rule="evenodd" sketch:type="MSShapeGroup" xlink:href="#path-1"></use>
                <use fill="none" xlink:href="#path-1"></use>
            </g>
            <path d="M13.5,5.5 C13.5,5.5 6.00625,9.08651786 6.00397727,9.54568452 L6,10.5 L21,10.5 L21,9.55133929 C20.99375,9.08651786 13.5,5.5 13.5,5.5 Z M20.0365553,19.5 L19.5,10.5 L7.5,10.5 L7.04839683,19.5 L7.00334852,19.5 C6.44921444,19.5 6,19.9438648 6,20.5 L6,21.5 L21,21.5 L21,20.5 C21,19.9477153 20.5521239,19.5 20.0365553,19.5 L20.0365553,19.5 Z" id="Imported-Layers-Copy-3" opacity="0.7" fill="#FFFFFF" sketch:type="MSShapeGroup"></path>
            <g id="Rectangle-11-Copy">
                <use fill="#33332E" fill-rule="evenodd" sketch:type="MSShapeGroup" xlink:href="#path-2"></use>
                <use fill="none" xlink:href="#path-2"></use>
            </g>
        </g>
    </g>
</svg>