<?xml version="1.0" encoding="utf-8"?>
<!-- Generator: Adobe Illustrator 21.0.2, SVG Export Plug-In . SVG Version: 6.00 Build 0)  -->
<svg version="1.1" id="Слой_1" xmlns="http://www.w3.org/2000/svg" xmlns:xlink="http://www.w3.org/1999/xlink" x="0px" y="0px"
	 viewBox="0 0 38.9 38.9" style="enable-background:new 0 0 38.9 38.9;" xml:space="preserve">
<style type="text/css">
	.st0{fill:#FFFFFF;fill-opacity:0.1;}
	.st1{fill:#252522;}
	.st2{fill:#FFFFFF;fill-opacity:0.7;}
</style>
<title>bank-l</title>
<desc>Created with Sketch.</desc>
<g id="POI-Night">
	<g id="Artboard-1" transform="translate(-497.000000, -100.000000)">
		<g id="bank-l" transform="translate(497.000000, 100.000000)">
			<circle id="Oval-1-Copy-39" class="st0" cx="19.4" cy="19.4" r="19.4"/>
			<path id="Oval-1-Copy-38" class="st1" d="M19.4,37.4c10,0,18-8,18-18s-8-18-18-18s-18,8-18,18S9.5,37.4,19.4,37.4z"/>
			<path id="Combined-Shape" class="st2" d="M8.6,12.2v2.2h2.9v11.5H8.6v2.9h21.6v-2.9h-2.9V14.4h2.9v-2.2l-10.8-5L8.6,12.2z
				 M23,21.6c0,1.4-1,2.6-2.4,3v1.3h-2.4v-1.3c-1.4-0.5-2.4-1.7-2.4-3h2.4c0,0.6,0.5,1.1,1.2,1.1c0.7,0,1.2-0.5,1.2-1.1
				s-0.5-1.1-1.2-1.1c-2,0-3.6-1.4-3.6-3.2c0-1.4,1-2.6,2.4-3V13h2.4v1.3c1.4,0.5,2.4,1.7,2.4,3h-2.4c0-0.6-0.5-1.1-1.2-1.1
				c-0.7,0-1.2,0.5-1.2,1.1s0.6,1.1,1.2,1.1C21.5,18.4,23,19.8,23,21.6z"/>
		</g>
	</g>
</g>
</svg>
