<?xml version="1.0" encoding="UTF-8" standalone="no"?>
<svg width="23px" height="23px" viewBox="0 0 23 23" version="1.1" xmlns="http://www.w3.org/2000/svg" xmlns:xlink="http://www.w3.org/1999/xlink">
    <!-- Generator: Sketch 3.8.3 (29802) - http://www.bohemiancoding.com/sketch -->
    <title>bar-m</title>
    <desc>Created with Sketch.</desc>
    <defs></defs>
    <g id="POI-NIght" stroke="none" stroke-width="1" fill="none" fill-rule="evenodd">
        <g id="bar-m">
            <ellipse id="Oval-1-Copy-41" fill-opacity="0.1" fill="#FFFFFF" cx="11.5" cy="11.5" rx="11.5" ry="11.5"></ellipse>
            <ellipse id="Oval-1-Copy-40" fill="#332714" cx="11.5" cy="11.5" rx="10.5" ry="10.5"></ellipse>
            <path d="M6,6 C5.59375,6 5,6.047 5,6.25 C5,6.4536 5.37228,6.8358 5.5,7 L11,13 L11,17 L8.1875,18.1875 C7.78125,18.3229 7.5,18.5 7.5,19 L15.5,19 C15.5,18.5 15.09375,18.3229 14.6875,18.1875 L12,17 L12,13 L17.5,7 C17.62772,6.8358 18,6.4536 18,6.25 C18,6.0474 17.40625,6 17,6 L6,6 Z" id="path15601-4-0" fill-opacity="0.7" fill="#FFFFFF"></path>
        </g>
    </g>
</svg>