<svg width="28" height="28" viewBox="0 0 28 28">
  <g fill="none" fill-rule="evenodd">
    <circle cx="14" cy="14" r="14" fill="#FFF" opacity=".4"/>
    <circle cx="14" cy="14" r="13" fill="#6E5626"/>
    <path fill="#FFF" fill-rule="nonzero" d="M8.515625,7 C8.140625,7.81052632 8,8.75921053 8,9.71710526 C8,13.1837042 10.3032499,16.0807559 13.25,16.5098684 L13.25,19.5263158 L10.25,20.4013158 L10.25,21 L17.75,21 L17.75,20.4013158 L14.75,19.5263158 L14.75,16.5098684 C17.69675,16.0807559 20,13.1837042 20,9.71710526 C20,8.75921053 19.859375,7.81052632 19.484375,7 L8.515625,7 Z M9.640625,8.47368421 L18.359375,8.47368421 C18.434375,8.91578947 18.5,9.275 18.5,9.71710526 C18.5,9.7937266 18.5027098,9.87147788 18.5,9.94736842 L11,9.94736842 C11,12.3904532 11.8519297,14.0357236 12.8984375,14.9210526 C10.9504065,14.3284511 9.5,12.2131579 9.5,9.71710526 C9.5,9.275 9.565625,8.91578947 9.640625,8.47368421 Z" opacity=".6"/>
  </g>
</svg>
