<svg height="24" viewBox="0 0 24 24" width="24"><g fill="none" fill-rule="evenodd"><circle cx="12" cy="12" fill="#fff" opacity=".4" r="12"/><circle cx="12" cy="12" fill="#6e5626" r="11"/><path d="m7.4296875 6c-.3125.69473684-.4296875 1.50789474-.4296875 2.32894737 0 2.97137053 1.91937494 5.45455773 4.375 5.82236843v2.5855263l-2.5.75v.5131579h6.25v-.5131579l-2.5-.75v-2.5855263c2.455625-.3678107 4.375-2.8509979 4.375-5.82236843 0-.82105263-.1171875-1.63421053-.4296875-2.32894737zm.9375 1.26315789h7.265625c.0625.37894737.1171875.68684211.1171875 1.06578948 0 .06567543.0022581.13231939 0 .19736842h-6.25c0 2.09407261.7099414 3.50430441 1.5820312 4.26315791-1.62335914-.5079442-2.8320312-2.3210526-2.8320312-4.46052633 0-.37894737.0546875-.68684211.1171875-1.06578948z" fill="#fff" fill-rule="nonzero" opacity=".6"/></g></svg>