<svg width="24" height="24" viewBox="0 0 24 24">
  <g fill="none" fill-rule="evenodd">
    <circle cx="12" cy="12" r="12" fill="#FFF" opacity=".4"/>
    <circle cx="12" cy="12" r="11" fill="#3D3D36"/>
    <path fill="#FFF" d="M7.84615385,6 C7.84615385,6 6.92307692,6 6.46153846,6.46153846 C6,6.92307692 6,7.84615385 6,7.84615385 C8.30769231,11.0769231 12.5351262,13.5155077 13.3846154,14.3076923 L15.7788462,16.5288923 L15.2307692,17.0769231 L15.2307692,18 L16.1538462,18 L17.0769231,17.0769231 L18,16.1538462 L18,15.2307692 L17.0769231,15.2307692 L16.5288462,15.7788923 L14.3076923,13.3846154 C12.1272831,11.0466462 11.0769231,8.30769231 7.84615385,6 L7.84615385,6 Z M9.46153846,14.3076923 C8.82428308,14.3076923 8.30769231,14.8242462 8.30769231,15.4615385 C8.30769231,16.0988308 8.82428308,16.6153846 9.46153846,16.6153846 C10.0987938,16.6153846 10.6153846,16.0988308 10.6153846,15.4615385 C10.6153846,14.8242462 10.0987938,14.3076923 9.46153846,14.3076923 L9.46153846,14.3076923 Z" opacity=".6"/>
  </g>
</svg>
