<svg version="1.1" viewBox="0 0 24 24" xmlns="http://www.w3.org/2000/svg">
 <title>baseball-m</title>
 <g fill="none" fill-rule="evenodd">
  <g id="baseball-m" fill-rule="nonzero">
   <g id="Group" transform="translate(5,5)" fill="#fff" stroke-width="1.2854">
    <path id="Path" d="m-0.3717 1.852c-1.0256 1.458-1.6283 3.231-1.6283 5.148s0.60274 3.69 1.6283 5.148c2.1771-0.693 3.7694-2.736 3.7694-5.148s-1.5923-4.455-3.7694-5.148z" opacity=".6"/>
    <path d="m14.372 1.852c-2.1771 0.693-3.7694 2.736-3.7694 5.148s1.5923 4.455 3.7694 5.148c1.0256-1.458 1.6283-3.231 1.6283-5.148s-0.60274-3.69-1.6283-5.148z" opacity=".6"/>
    <path d="m8.7992 7c0-2.952 1.7722-5.481 4.3092-6.597-1.6013-1.485-3.7424-2.403-6.1084-2.403s-4.5071 0.918-6.1084 2.403c2.5369 1.116 4.3092 3.645 4.3092 6.597s-1.7722 5.481-4.3092 6.597c1.6013 1.485 3.7424 2.403 6.1084 2.403s4.5071-0.918 6.1084-2.403c-2.5369-1.116-4.3092-3.645-4.3092-6.597z" opacity=".6"/>
   </g>
  </g>
 </g>
</svg>
