<svg width="28" height="28" viewBox="0 0 28 28">
  <g fill="none" fill-rule="evenodd">
    <circle cx="14" cy="14" r="14" fill="#FFF" opacity=".4"/>
    <circle cx="14" cy="14" r="13" fill="#3D3D36"/>
    <path fill="#FFF" d="M7.82352941,7.82352941 C7,8.64705882 7,9.47058824 7,9.47058824 L15.2352941,17.7058824 L16.4705882,17.2941176 L19.7647059,20.5882353 C20.0251718,20.8487176 20.1816176,21 20.5110294,21 C20.6139706,21 20.7426471,21 20.8713235,20.8713647 C21.0000412,20.7426471 21,20.6140118 21,20.5110706 C21,20.1816588 20.8205694,19.9970235 20.5882353,19.7647059 L17.2941176,16.4705882 L17.7058824,15.2352941 L9.47058824,7 C9.47058824,7 8.64705882,7 7.82352941,7.82352941 L7.82352941,7.82352941 Z M10.7058824,15.2352941 C10.0236459,15.2352941 9.47058824,15.7883765 9.47058824,16.4705882 C9.47058824,17.1528 10.0236459,17.7058824 10.7058824,17.7058824 C11.3881188,17.7058824 11.9411765,17.1528 11.9411765,16.4705882 C11.9411765,15.7883765 11.3881188,15.2352941 10.7058824,15.2352941 L10.7058824,15.2352941 Z" opacity=".6"/>
  </g>
</svg>
