<svg width="16" height="16" viewBox="0 0 16 16">
  <g fill="none" fill-rule="evenodd">
    <circle cx="8" cy="8" r="8" fill="#FFF" opacity=".4"/>
    <circle cx="8" cy="8" r="7" fill="#3D3D36"/>
    <path fill="#FFF" d="M4,4 L4,5.5 C5.5,7.5 8.58739,9.0874 10.5,11 L11.5,12 L11.5,13 L12.5,13 L13,12.5 L13,11.5 L12,11.5 L11,10.5 C9.21569,8.7157 7.5,5.5 5.5,4 L4,4 Z M6,9.5 C5.44772,9.5 5,9.9477 5,10.5 C5,11.0523 5.44772,11.5 6,11.5 C6.55228,11.5 7,11.0523 7,10.5 C7,9.9477 6.55228,9.5 6,9.5 L6,9.5 Z" opacity=".6"/>
  </g>
</svg>
