<?xml version="1.0" encoding="UTF-8"?>
<svg width="24px" height="24px" viewBox="0 0 24 24" version="1.1" xmlns="http://www.w3.org/2000/svg" xmlns:xlink="http://www.w3.org/1999/xlink">
    <title>basketball-m</title>
    <g id="Page-2:-Night" stroke="none" stroke-width="1" fill="none" fill-rule="evenodd" opacity="0.6">
        <g id="basketball-m" fill-rule="nonzero">
            <circle id="Oval" fill="#FFFFFF" cx="12" cy="12" r="12"></circle>
            <circle id="Oval" fill="#717065" cx="12" cy="12" r="11"></circle>
            <g id="Group" transform="translate(5.000000, 5.000000)" fill="#FFFFFF">
                <path d="M10.563,6.3 L13.965,6.3 C13.853,5.173 13.468,4.123 12.887,3.22 C11.676,3.801 10.794,4.935 10.563,6.3 Z" id="Path"></path>
                <path d="M3.437,6.3 C3.206,4.935 2.324,3.801 1.113,3.22 C0.532,4.123 0.147,5.173 0.035,6.3 L3.437,6.3 Z" id="Path"></path>
                <path d="M9.149,6.3 C9.373,4.487 10.465,2.947 11.991,2.1 C10.871,0.959 9.373,0.203 7.7,0.035 L7.7,6.3 L9.149,6.3 Z" id="Path"></path>
                <path d="M4.851,6.3 L6.3,6.3 L6.3,0.035 C4.627,0.203 3.122,0.959 2.009,2.1 C3.535,2.947 4.627,4.487 4.851,6.3 Z" id="Path"></path>
                <path d="M9.149,7.7 L7.7,7.7 L7.7,13.965 C9.373,13.797 10.878,13.041 11.991,11.9 C10.465,11.053 9.373,9.513 9.149,7.7 Z" id="Path"></path>
                <path d="M1.113,10.78 C2.317,10.199 3.206,9.058 3.437,7.7 L0.035,7.7 C0.147,8.827 0.532,9.877 1.113,10.78 Z" id="Path"></path>
                <path d="M10.563,7.7 C10.794,9.065 11.676,10.199 12.887,10.78 C13.468,9.877 13.853,8.827 13.965,7.7 L10.563,7.7 L10.563,7.7 Z" id="Path"></path>
                <path d="M4.851,7.7 C4.627,9.513 3.535,11.053 2.009,11.9 C3.129,13.041 4.627,13.797 6.3,13.965 L6.3,7.7 L4.851,7.7 Z" id="Path"></path>
            </g>
        </g>
    </g>
</svg>