<?xml version="1.0" encoding="UTF-8" standalone="no"?>
<svg
   width="24"
   height="24"
   viewBox="0 0 24 24"
   version="1.1"
   id="svg25"
   sodipodi:docname="basketball-m.svg"
   inkscape:version="1.2 (dc2aedaf03, 2022-05-15)"
   xmlns:inkscape="http://www.inkscape.org/namespaces/inkscape"
   xmlns:sodipodi="http://sodipodi.sourceforge.net/DTD/sodipodi-0.dtd"
   xmlns="http://www.w3.org/2000/svg"
   xmlns:svg="http://www.w3.org/2000/svg">
  <defs
     id="defs29" />
  <sodipodi:namedview
     id="namedview27"
     pagecolor="#ffffff"
     bordercolor="#000000"
     borderopacity="0.25"
     inkscape:showpageshadow="2"
     inkscape:pageopacity="0.0"
     inkscape:pagecheckerboard="0"
     inkscape:deskcolor="#d1d1d1"
     showgrid="false"
     inkscape:zoom="31.5"
     inkscape:cx="12.063492"
     inkscape:cy="12"
     inkscape:window-width="1920"
     inkscape:window-height="1011"
     inkscape:window-x="0"
     inkscape:window-y="0"
     inkscape:window-maximized="1"
     inkscape:current-layer="svg25" />
  <title
     id="title2">basketball-m</title>
  <g
     id="Page-1"
     stroke="none"
     stroke-width="1"
     fill="none"
     fill-rule="evenodd"
     inkscape:label="Page-2:-Night">
    <g
       id="basketball-m"
       fill-rule="nonzero">
      <g
         id="Group"
         transform="matrix(1.2921752,0,0,1.2921752,2.9547739,2.9547739)"
         fill="#ffffff">
        <path
           d="m 10.563,6.3 h 3.402 C 13.853,5.173 13.468,4.123 12.887,3.22 11.676,3.801 10.794,4.935 10.563,6.3 Z"
           id="Path"
           style="opacity:0.6;fill:#ffffff;fill-opacity:1" />
        <path
           d="M 3.437,6.3 C 3.206,4.935 2.324,3.801 1.113,3.22 0.532,4.123 0.147,5.173 0.035,6.3 Z"
           id="path8"
           style="opacity:0.6;fill:#ffffff;fill-opacity:1" />
        <path
           d="M 9.149,6.3 C 9.373,4.487 10.465,2.947 11.991,2.1 10.871,0.959 9.373,0.203 7.7,0.035 V 6.3 Z"
           id="path10"
           style="opacity:0.6;fill:#ffffff;fill-opacity:1" />
        <path
           d="M 4.851,6.3 H 6.3 V 0.035 C 4.627,0.203 3.122,0.959 2.009,2.1 3.535,2.947 4.627,4.487 4.851,6.3 Z"
           id="path12"
           style="opacity:0.6;fill:#ffffff;fill-opacity:1" />
        <path
           d="M 9.149,7.7 H 7.7 v 6.265 C 9.373,13.797 10.878,13.041 11.991,11.9 10.465,11.053 9.373,9.513 9.149,7.7 Z"
           id="path14"
           style="opacity:0.6;fill:#ffffff;fill-opacity:1" />
        <path
           d="M 1.113,10.78 C 2.317,10.199 3.206,9.058 3.437,7.7 H 0.035 c 0.112,1.127 0.497,2.177 1.078,3.08 z"
           id="path16"
           style="opacity:0.6;fill:#ffffff;fill-opacity:1" />
        <path
           d="m 10.563,7.7 c 0.231,1.365 1.113,2.499 2.324,3.08 0.581,-0.903 0.966,-1.953 1.078,-3.08 z"
           id="path18"
           style="opacity:0.6;fill:#ffffff;fill-opacity:1" />
        <path
           d="m 4.851,7.7 c -0.224,1.813 -1.316,3.353 -2.842,4.2 1.12,1.141 2.618,1.897 4.291,2.065 V 7.7 Z"
           id="path20"
           style="opacity:0.6;fill:#ffffff;fill-opacity:1" />
      </g>
    </g>
  </g>
</svg>
