<?xml version="1.0" encoding="UTF-8" standalone="no"?>
<svg width="17px" height="17px" viewBox="0 0 17 17" version="1.1" xmlns="http://www.w3.org/2000/svg" xmlns:xlink="http://www.w3.org/1999/xlink">
    <!-- Generator: Sketch 3.8.3 (29802) - http://www.bohemiancoding.com/sketch -->
    <title>basketball-s</title>
    <desc>Created with Sketch.</desc>
    <defs></defs>
    <g id="POI-NIght" stroke="none" stroke-width="1" fill="none" fill-rule="evenodd">
        <g id="basketball-s">
            <circle id="Oval-1-Copy-43" fill-opacity="0.1" fill="#FFFFFF" cx="8.5" cy="8.5" r="8.5"></circle>
            <circle id="Oval-1-Copy-42" fill="#252522" cx="8.5" cy="8.5" r="7.5"></circle>
            <path d="M6,4.3622 L4,6.3622 L4,10.8622 C4,11.1122 4.25,11.3622 4.5,11.3622 L6,11.3622 L7,12.3622 L8,13.3622 L9,13.3622 L10,12.3622 L11,11.3622 L12.5,11.3622 C12.75,11.3622 13,11.1122 13,10.8622 L13,6.3622 L11,4.3622 L6,4.3622 L6,4.3622 Z M6,6.3622 L11,6.3622 L11,9.3622 L6,9.3622 L6,6.3622 L6,6.3622 Z M6.6875,7.0497 L6.6875,8.6747 L10.3125,8.6747 L10.3125,7.0497 L6.6875,7.0497 L6.6875,7.0497 Z M7,10.3622 L8,10.3622 L8,11.3622 L9,11.3622 L9,10.3622 L10,10.3622 L10,11.3622 L9,12.3622 L8,12.3622 L7,11.3622 L7,10.3622 L7,10.3622 Z" id="rect5769-7-3-copy" fill-opacity="0.7" fill="#FFFFFF"></path>
        </g>
    </g>
</svg>