<svg width="24" height="24" viewBox="0 0 24 24">
  <g fill="none" fill-rule="evenodd">
    <circle cx="12" cy="12" r="12" fill="#FFF" opacity=".4"/>
    <circle cx="12" cy="12" r="11" fill="#3D3C36"/>
    <path fill="#FFF" d="M15.0623686,14.0290667 C16.0268045,13.1788 16.6355992,11.9598667 16.6355992,10.6 L7,10.6 C7,12.1446667 7.78486335,13.5092 8.98668535,14.3538667 L7.17519271,19 L8.57761037,19 L8.94113525,18.0666667 L13.3375964,18.0666667 L12.9740715,17.1333333 L9.30553609,17.1333333 L10.1534688,14.9568 C10.6737912,15.1416 11.23178,15.248 11.8177996,15.248 C12.5833917,15.248 13.3043097,15.0716 13.947267,14.7645333 L15.5975823,19 L17,19 L15.0623686,14.0290667 L15.0623686,14.0290667 Z M9.90995095,9.53506667 C12.7892432,8.26013333 9.88980378,6.2068 10.414506,5 C8.48475823,6.5148 10.8822705,8.7436 9.90995095,9.53506667 L9.90995095,9.53506667 Z M12.5807638,9.6284 C14.9826559,8.6204 12.5632446,6.9964 13.0012263,6.04253333 C11.3929573,7.24 13.3919061,9.00213333 12.5807638,9.6284 L12.5807638,9.6284 Z" opacity=".6"/>
  </g>
</svg>
