<?xml version="1.0" encoding="UTF-8" standalone="no"?>
<svg width="27px" height="27px" viewBox="0 0 27 27" version="1.1" xmlns="http://www.w3.org/2000/svg" xmlns:xlink="http://www.w3.org/1999/xlink" xmlns:sketch="http://www.bohemiancoding.com/sketch/ns">
    <!-- Generator: Sketch 3.4.2 (15857) - http://www.bohemiancoding.com/sketch -->
    <title>bbq-l</title>
    <desc>Created with Sketch.</desc>
    <defs>
        <path id="path-1" d="M26,13.5 C26,20.403 20.403,26 13.5,26 C6.597,26 1,20.403 1,13.5 C1,6.597 6.597,1 13.5,1 C20.403,1 26,6.597 26,13.5 L26,13.5 Z"></path>
    </defs>
    <g id="POI" stroke="none" stroke-width="1" fill="none" fill-rule="evenodd" sketch:type="MSPage">
        <g id="bbq-l" sketch:type="MSLayerGroup">
            <path d="M13.5,27 C6.056,27 0,20.943 0,13.5 C0,6.057 6.056,0 13.5,0 C20.944,0 27,6.057 27,13.5 C27,20.943 20.944,27 13.5,27 L13.5,27 Z" id="Shape" opacity="0" fill="#FFFFFF" sketch:type="MSShapeGroup"></path>
            <g id="Shape">
                <use fill="#3D3D37" fill-rule="evenodd" sketch:type="MSShapeGroup" xlink:href="#path-1"></use>
                <use fill="none" xlink:href="#path-1"></use>
            </g>
            <path d="M20,12 L7,12 C7,13.94 8.002,15.661 9.551,16.758 L7,23 L9,23 L9.409,22 L15.431,22 L14.614,20 L10.227,20 L11.205,17.607 C11.918,17.857 12.69,18 13.5,18 C14.31,18 15.082,17.857 15.796,17.607 L18,23 L20,23 L17.449,16.758 C18.998,15.661 20,13.94 20,12 L20,12 Z M13.338,10.942 C16.766,9 13.315,5.871 13.939,4.033 C11.643,6.34 14.495,9.736 13.338,10.942 L13.338,10.942 Z M16.338,10.942 C19.766,9.592 16.315,7.417 16.939,6.139 C14.643,7.743 17.495,10.104 16.338,10.942 L16.338,10.942 Z M10.338,10.942 C13.766,9.592 10.315,7.417 10.939,6.139 C8.643,7.743 11.495,10.104 10.338,10.942 L10.338,10.942 Z" id="Shape" opacity="0.7" fill="#FFFFFF" sketch:type="MSShapeGroup"></path>
        </g>
    </g>
</svg>