<svg width="28" height="28" viewBox="0 0 28 28">
  <g fill="none" fill-rule="evenodd">
    <circle cx="14" cy="14" r="14" fill="#FFF" opacity=".4"/>
    <circle cx="14" cy="14" r="13" fill="#3D3C36"/>
    <path fill="#FFF" d="M20,12.5608162 L8,12.5608162 C8,14.4019086 8.92492308,16.0351663 10.3547692,17.0762377 L8,23 L9.84615385,23 L10.2236923,22.0509833 L15.7824615,22.0509833 L15.0283077,20.1529499 L10.9787692,20.1529499 L11.8815385,17.8819529 C12.5396923,18.119207 13.2523077,18.2549164 14,18.2549164 C14.7476923,18.2549164 15.4603077,18.119207 16.1193846,17.8819529 L18.1538462,23 L20,23 L17.6452308,17.0762377 C19.0750769,16.0351663 20,14.4019086 20,12.5608162 L20,12.5608162 Z M13.8504615,11.5567565 C17.0147692,9.71376601 13.8292308,6.74429272 14.4052308,5 C12.2858462,7.18938156 14.9184615,10.4122423 13.8504615,11.5567565 L13.8504615,11.5567565 Z M16.6196923,11.5567565 C19.784,10.2755839 16.5984615,8.21147256 17.1744615,6.9986292 C15.0550769,8.52085201 17.6876923,10.7614805 16.6196923,11.5567565 L16.6196923,11.5567565 Z M11.0812308,11.5567565 C14.2455385,10.2755839 11.06,8.21147256 11.636,6.9986292 C9.51661538,8.52085201 12.1492308,10.7614805 11.0812308,11.5567565 L11.0812308,11.5567565 Z" opacity=".6"/>
  </g>
</svg>
