<?xml version="1.0" encoding="UTF-8"?>
<svg width="24px" height="24px" viewBox="0 0 24 24" version="1.1" xmlns="http://www.w3.org/2000/svg" xmlns:xlink="http://www.w3.org/1999/xlink">
    <title>bcontrol-m</title>
    <g id="Page-2:-Night" stroke="none" stroke-width="1" fill="none" fill-rule="evenodd" opacity="0.6">
        <g id="bcontrol-m" fill-rule="nonzero">
            <circle id="Oval" fill="#FFFFFF" cx="12" cy="12" r="12"></circle>
            <circle id="Oval" fill="#717065" cx="12" cy="12" r="11"></circle>
            <path d="M10.2857143,17.1333333 L10.2857143,18.0666667 L13.7142857,18.0666667 L13.7142857,6.86666667 L10.2857143,6.86666667 L10.2857143,17.1333333 L10.2857143,18.0666667 L12,17.1333333 L13.7142857,18.0666667 L13.7142857,16.2 L12,15.2666667 L10.2857143,16.2 L10.2857143,17.1333333 Z M14.8571429,18.0666667 L16,19 L8,19 L9.14285714,18.0666667 L9.14285714,6.86666667 L12,5 L14.8571429,6.86666667 L14.8571429,18.0666667 Z M10.2857143,8.73333333 L12,7.8 L13.7142857,8.73333333 L13.7142857,10.6 L12,9.66666667 L10.2857143,10.6 L10.2857143,8.73333333 Z M10.2857143,12.4666667 L12,11.5333333 L13.7142857,12.4666667 L13.7142857,14.3333333 L12,13.4 L10.2857143,14.3333333 L10.2857143,12.4666667 Z" id="Shape" fill="#FFFFFF"></path>
        </g>
    </g>
</svg>