<?xml version="1.0" encoding="UTF-8" standalone="no"?>
<svg width="21px" height="21px" viewBox="0 0 21 21" version="1.1" xmlns="http://www.w3.org/2000/svg" xmlns:xlink="http://www.w3.org/1999/xlink" xmlns:sketch="http://www.bohemiancoding.com/sketch/ns">
    <!-- Generator: Sketch 3.3.3 (12081) - http://www.bohemiancoding.com/sketch -->
    <title>bcontrol-m</title>
    <desc>Created with Sketch.</desc>
    <defs></defs>
    <g id="Page-1" stroke="none" stroke-width="1" fill="none" fill-rule="evenodd" sketch:type="MSPage">
        <g id="bcontrol-m" sketch:type="MSLayerGroup" transform="translate(-1.000000, -1.000000)">
            <g id="POI" sketch:type="MSShapeGroup">
                <g id="bcontrol-m">
                    <circle id="Oval-1-Copy-41" cx="11.5" cy="11.5" r="11.5"></circle>
                    <circle id="Oval-1-Copy-40" fill="#3D3D37" cx="11.5" cy="11.5" r="10.5"></circle>
                    <g id="Rectangle-22-+-Group" transform="translate(4.000000, 4.000000)" fill="#FFFFFF" opacity="0.4">
                        <path d="M7.98144924,4 L7.98144924,6 L6.98587208,6 L6.98587208,4 L7.98144924,4 L7.98144924,4 Z M7.98144924,3 L7.98144924,1 L6.98587208,1 L6.98587208,3 L7.98144924,3 L7.98144924,3 Z M7.98144924,7 L7.98144924,9 L6.98587208,9 L6.98587208,7 L7.98144924,7 L7.98144924,7 Z M7.98144924,10 L7.98144924,14 L6.98587208,14 L6.98587208,10 L7.98144924,10 L7.98144924,10 Z M8.9770264,1 L8.9770264,0 L5.99029492,0 L5.99029492,4 L1.82113326,4 L1.01240912,4 L8.8817842e-16,5 L1.01240912,6 L5.99029492,6 L5.99029492,15 L8.9770264,15 L8.9770264,9 L12.959335,9 L13.9607457,8 L12.959335,7 L8.9770264,7 L8.9770264,3 L12.959335,3 L14,2 L12.959335,1 L8.9770264,1 L8.9770264,1 Z" id="Rectangle-22"></path>
                    </g>
                </g>
            </g>
        </g>
    </g>
</svg>