<?xml version="1.0" encoding="UTF-8"?>
<svg width="24px" height="24px" viewBox="0 0 24 24" version="1.1" xmlns="http://www.w3.org/2000/svg" xmlns:xlink="http://www.w3.org/1999/xlink">
    <title>beach-m</title>
    <g id="Page-2:-Night" stroke="none" stroke-width="1" fill="none" fill-rule="evenodd" opacity="0.6">
        <g id="beach-m" fill-rule="nonzero">
            <circle id="Oval" fill="#FFFFFF" cx="12" cy="12" r="12"></circle>
            <circle id="Oval" fill="#717065" cx="12" cy="12" r="11"></circle>
            <path d="M12.8774469,13.9907662 L13.9899312,12.8784674 L19,17.8900347 L17.8898497,19 L12.8774469,13.9907662 Z M16.2172335,9.53379269 L18.442202,7.30919508 C15.369256,4.23676132 10.3903056,4.22898301 7.31735965,7.29363846 C10.3747464,6.28245773 13.7822156,7.09918062 16.2172335,9.53379269 L16.2172335,9.53379269 Z M7.29402082,7.3169734 C4.22885448,10.3894072 4.23663409,15.3675277 7.30958004,18.4399614 L9.5345485,16.2153638 C7.09953057,13.7807518 6.28267152,10.3738505 7.29402082,7.3169734 Z M7.30958004,7.30141677 L7.30180043,7.30919508 C7.00617525,9.65046739 8.2120148,12.6606746 10.6470327,15.103065 L15.1047493,10.6460915 C12.6697313,8.21147943 9.65124265,7.00584086 7.30958004,7.30141677 Z" id="Shape" fill="#FFFFFF"></path>
        </g>
    </g>
</svg>