<svg width="16" height="16" viewBox="0 0 16 16">
  <g fill="none" fill-rule="evenodd">
    <circle cx="8" cy="8" r="8" fill="#FFF" opacity=".4"/>
    <circle cx="8" cy="8" r="7" fill="#4E3551"/>
    <path fill="#FFF" d="M8.51457976,5.77777778 L8.51457976,11.5555556 C8.51457976,11.8 8.70754717,12 8.94339623,12 L10.5711835,12 C10.8078902,12 11,11.8 11,11.5555556 L11,5.77777778 L8.51457976,5.77777778 L8.51457976,5.77777778 Z M5.85763293,4 L5.08747856,4 L5.08747856,4.79822222 L5.85763293,4.79822222 L5.85763293,5.86577778 L5.08747856,5.86577778 L5.08747856,6.576 L5.85763293,6.576 L5.85763293,8.53422222 L5,8.53422222 L5,11.5546667 C5,11.7991111 5.19210978,11.9991111 5.42881647,11.9991111 L7.14236707,11.9991111 C7.37821612,11.9991111 7.57118353,11.7991111 7.57118353,11.5546667 L7.57118353,8.53422222 L6.7135506,8.53422222 L6.7135506,6.576 L7.48370497,6.576 L7.48370497,5.86577778 L6.7135506,5.86577778 L6.7135506,4.79822222 L7.48370497,4.79822222 L7.48370497,4 L6.7135506,4 L5.85763293,4 L5.85763293,4 Z" opacity=".6"/>
  </g>
</svg>
