<?xml version="1.0" encoding="UTF-8"?>
<svg version="1.1" viewBox="0 0 24 24" xml:space="preserve" xmlns="http://www.w3.org/2000/svg">
 <g opacity=".6">
  <circle cx="12" cy="12" r="12" fill="#fff" opacity="1"/>
  <circle cx="12" cy="12" r="11" fill="#8C5F93"/>
  <path d="m8.6463 3.6857-0.5827 0.5827 1.4971 1.4971-0.12348 0.13616c-0.40917 0.45341-0.67933 0.97215-0.81164 1.5565-0.13109 0.57898-0.08803 1.1645 0.13283 1.7608l0.06408 0.17288-1.6413 0.70351-0.0034 6.83e-4c-1.0565 0.41147-1.64 1.0503-1.7935 1.8916-0.15505 0.85008 0.1228 1.6486 0.8637 2.3895 0.26641 0.26641 0.61685 0.48656 1.0553 0.65679 0.29919 2.2359 2.0677 3.9872 4.2598 4.2037v1.3409h1.0593v-1.3643c2.0602-0.28802 3.7124-1.9345 4.0549-4.0402 0.42228-0.11839 0.80092-0.34171 1.134-0.67481 0.66561-0.66561 0.93848-1.4688 0.81832-2.4082-0.11979-0.93652-0.58618-1.5645-1.4044-1.909l-0.0013-0.0013-1.7414-0.7736 0.06341-0.17087c0.21998-0.59395 0.2599-1.1793 0.12415-1.7494-0.13827-0.58072-0.40668-1.105-0.8063-1.5712l-0.11681-0.13616 1.4938-1.4938-0.60072-0.60006-1.5465 1.5465-0.13149-0.0841c-0.41898-0.26858-0.99473-0.43053-1.7434-0.47591-0.72998-0.04424-1.3602 0.1169-1.8903 0.4739l-0.13216 0.08877zm3.5322 2.0678c0.64989 0 1.1905 0.21934 1.64 0.6688 0.29735 0.29734 0.52269 0.63324 0.67281 1.0085 0.15938 0.39842 0.16011 0.85644 0.02403 1.3636l-0.0574 0.21492-2.2434-0.9458-2.2247 0.97384-0.07342-0.18823c-0.17879-0.45974-0.19665-0.90892-0.04605-1.3476 0.14343-0.41782 0.36552-0.77735 0.66747-1.0793 0.4454-0.44539 0.9963-0.6688 1.6406-0.6688zm0.47457 3.6357 4.1143 1.8175c0.51452 0.22428 0.805 0.61351 0.83233 1.1467 0.02677 0.52186-0.16493 0.9719-0.56401 1.371-0.38756 0.38756-0.89148 0.46505-1.4678 0.26432-0.53063-0.18482-0.94346-0.40882-1.2014-0.6668-0.59898-0.59898-0.99631-1.2118-1.1767-1.8402-0.16982-0.59143-0.31954-1.1629-0.44854-1.7141zm-0.99987 0.01468-0.07142 0.35776c-0.06068 0.3034-0.22866 0.84648-0.49727 1.6173-0.27562 0.79092-0.65643 1.4347-1.1474 1.9256-0.19221 0.19221-0.57574 0.60791-1.2862 0.76292-0.71613 0.15625-1.3214-0.15933-1.6627-0.5006-0.34782-0.34784-0.59005-0.92342-0.3591-1.5212 0.22762-0.58914 0.75498-0.86266 1.1908-1.0326l4e-3 -2e-3h6.84e-4zm0.4392 2.3709 0.20958 0.45588c0.1932 0.4205 0.42356 0.82045 0.69083 1.2014 0.26402 0.37636 0.6268 0.76576 0.96116 1.0332 0.34232 0.25428 0.67653 0.40726 1.2135 0.6381 0.12035 0.04353 0.23924 0.07681 0.35643 0.10212-0.0017 0.0078-0.0036 0.01554-0.0053 0.02336h-6.7915c0.11867-0.01762 0.23628-0.04341 0.35243-0.07876 0.43249-0.18326 0.85985-0.37385 1.2575-0.6895 0.37243-0.28215 0.67809-0.64926 0.96516-1.0039 0.28097-0.34707 0.49414-0.74798 0.63877-1.2041zm-3.1605 4.5822h6.1354c-0.64052 1.0665-1.7785 1.7664-3.067 1.7748-1.289-0.0082-2.4278-0.70786-3.0684-1.7748z" fill="#fff"/>
 </g>
</svg>
