<?xml version="1.0" encoding="UTF-8" standalone="no"?>
<svg width="23px" height="23px" viewBox="0 0 23 23" version="1.1" xmlns="http://www.w3.org/2000/svg" xmlns:xlink="http://www.w3.org/1999/xlink" xmlns:sketch="http://www.bohemiancoding.com/sketch/ns">
    <!-- Generator: Sketch 3.4.2 (15857) - http://www.bohemiancoding.com/sketch -->
    <title>beer-m</title>
    <desc>Created with Sketch.</desc>
    <defs></defs>
    <g id="POI" stroke="none" stroke-width="1" fill="none" fill-rule="evenodd" sketch:type="MSPage">
        <g id="beer-m" sketch:type="MSLayerGroup">
            <g id="Layer_2" sketch:type="MSShapeGroup">
                <path d="M11.5,23 C5.159,23 0,17.841 0,11.5 C0,5.159 5.159,0 11.5,0 C17.841,0 23,5.159 23,11.5 C23,17.841 17.841,23 11.5,23 L11.5,23 Z" id="Shape" opacity="0" fill="#FFFFFF"></path>
                <path d="M22,11.5 C22,17.299 17.299,22 11.5,22 C5.701,22 1,17.299 1,11.5 C1,5.701 5.701,1 11.5,1 C17.299,1 22,5.701 22,11.5 L22,11.5 Z" id="Shape" fill="#5E491A"></path>
            </g>
            <g id="Layer_1" transform="translate(7.000000, 4.000000)" fill="#FFFFFF" opacity="0.7" sketch:type="MSShapeGroup">
                <path d="M6.222,2.2 C5.868,2.2 5.537,2.307 5.259,2.487 C4.986,1.305 3.932,0.423 2.666,0.423 C1.194,0.422 0,1.616 0,3.089 L0,3.978 L8,3.978 C8,2.996 7.204,2.2 6.222,2.2 L6.222,2.2 Z M8.998,5 L0,5 L0,13 C0,13.552 0.447,14 1,14 L7,14 C7.553,14 8,13.552 8,13 L8,11.614 L10.998,10.329 L10.998,7 C10.998,5.896 10.101,5 8.998,5 L8.998,5 Z M10.098,9.67 L8,10.526 L8,6 L8.998,6 C9.81,6 10.098,6.449 10.098,7 L10.098,9.67 L10.098,9.67 Z" id="Shape"></path>
            </g>
        </g>
    </g>
</svg>