<svg version="1.1" viewBox="0 0 24 24" xmlns="http://www.w3.org/2000/svg">
	<path d="m5.9809 1.9476c-1.0045 5.734e-4 -1.9378 0.5998-2.4667 1.4569h3.3507l0.88119 1.4569-0.88119 1.4569h-3.348c0.5285 0.85626 1.4604 1.4554 2.464 1.4569 1.0724 0 1.9972-0.58891 2.4999-1.4569h6.5992c0.50268 0.86817 1.4302 1.4569 2.5026 1.4569 1.6034 0 2.9032-1.3045 2.9032-2.9137s-1.2998-2.9137-2.9032-2.9137c-1.0726-4e-7 -2 0.58869-2.5026 1.4569h-6.5992c-0.50273-0.86795-1.4275-1.4569-2.4999-1.4569zm10.718 1.4569h1.7679l0.88119 1.4569-0.88119 1.4569h-1.7679l-0.88119-1.4569z" fill="#777"/>
	<path d="m12 8.8037c-0.85705-0.012723-0.85705 1.2845 0 1.2723h1.9015v1.6102l-3.5528 2.9695-1.2355-3.3075h0.35164c0.85705 0.01272 0.85705-1.2845 0-1.2723h-2.5353c-0.85705-0.01272-0.85705 1.2845 0 1.2723h0.82688l1.1291 3.0217c-0.593-0.29594-1.2513-0.47712-1.9559-0.47712-2.4429 0-4.4368 2.0012-4.4368 4.453s1.9939 4.453 4.4368 4.453 4.4368-2.0012 4.4368-4.453c0-0.85231-0.2539-1.6426-0.67096-2.321l3.5751-2.9894 0.58679 1.4762c-1.3216 0.77267-2.2233 2.1945-2.2233 3.8342 0 2.4518 1.9939 4.453 4.4368 4.453s4.4368-2.0012 4.4368-4.453-1.9939-4.453-4.4368-4.453c-0.35887 0-0.70278 0.05521-1.0375 0.13665l-0.86402-2.1694v-2.4203c0-0.35128-0.28383-0.63615-0.63382-0.63615zm-5.0705 6.3615c0.75082 0 1.4294 0.2696 1.9708 0.7032l-2.3769 1.988c-0.64764 0.54365 0.162 1.5197 0.81205 0.97904l2.3769-1.988c0.23857 0.4476 0.38625 0.95278 0.38625 1.4985 0 1.7642-1.4114 3.1808-3.1691 3.1808s-3.1691-1.4166-3.1691-3.1808 1.4112-3.1808 3.1691-3.1808zm10.141 0c1.7577 0 3.1691 1.4166 3.1691 3.1808s-1.4114 3.1808-3.1691 3.1808-3.1691-1.4166-3.1691-3.1808c0-1.1158 0.56638-2.0892 1.4261-2.6564l1.1538 2.8925c0.31184 0.79277 1.4963 0.3182 1.1786-0.47215l-1.1512-2.8875c0.1828-0.03257 0.36939-0.05713 0.56194-0.05713z" fill="#777"/>
</svg>
