<?xml version="1.0" encoding="UTF-8" standalone="no"?>
<svg
   width="20"
   height="20"
   viewBox="0 0 20 20"
   version="1.1"
   id="svg10"
   sodipodi:docname="bicycle-rental.svg"
   xml:space="preserve"
   inkscape:export-filename="../../../../../../../Bilder/bicycle_rental/bike-rental.svg"
   inkscape:export-xdpi="96"
   inkscape:export-ydpi="96"
   inkscape:version="1.2 (dc2aedaf03, 2022-05-15)"
   xmlns:inkscape="http://www.inkscape.org/namespaces/inkscape"
   xmlns:sodipodi="http://sodipodi.sourceforge.net/DTD/sodipodi-0.dtd"
   xmlns="http://www.w3.org/2000/svg"
   xmlns:svg="http://www.w3.org/2000/svg"><defs
     id="defs14" /><sodipodi:namedview
     id="namedview12"
     pagecolor="#ffffff"
     bordercolor="#000000"
     borderopacity="0.25"
     inkscape:showpageshadow="2"
     inkscape:pageopacity="0.0"
     inkscape:pagecheckerboard="0"
     inkscape:deskcolor="#d1d1d1"
     showgrid="false"
     inkscape:zoom="51.35"
     inkscape:cx="9.4352483"
     inkscape:cy="10.019474"
     inkscape:window-width="2560"
     inkscape:window-height="1371"
     inkscape:window-x="0"
     inkscape:window-y="0"
     inkscape:window-maximized="1"
     inkscape:current-layer="svg10" /><title
     id="title2">bike-parking-m</title><g
     id="Page-1"
     stroke="none"
     stroke-width="1"
     fill="none"
     fill-rule="evenodd"
     style="opacity:0.6"
     inkscape:label="Page-2:-Night"><g
       id="bike-parking-m"
       fill-rule="nonzero"
       inkscape:label="bicycle-rental"><rect
         id="Rectangle"
         fill="#ffffff"
         opacity="0.6"
         x="0"
         y="0"
         width="20"
         height="20"
         rx="2.5" /><rect
         id="rect5"
         fill="#2e89b0"
         x="1"
         y="1"
         width="18"
         height="18"
         rx="2" /><path
         d="M 13.605,11.3 12.613333,8.57 C 12.444167,8.1091667 12.006667,7.8 11.516667,7.8 H 10 v 1.166667 h 1.516667 L 12.368333,11.3 H 9.5625 l -0.21,-0.583333 H 10 V 9.55 H 7.0833333 v 1.166667 h 1.0208334 l 1.0616666,2.916666 H 8.775 C 8.5183333,12.3325 7.4275,11.37 6.0625,11.305833 4.4291667,11.224167 3,12.583333 3,14.216667 3,15.85 4.2833333,17.133333 5.9166667,17.133333 7.3516667,17.133333 8.5125,16.1475 8.775,14.8 h 2.45 c 0.256667,1.300833 1.3475,2.263333 2.7125,2.3275 C 15.570833,17.203333 17,15.85 17,14.210833 17,12.5775 15.716667,11.294167 14.083333,11.294167 H 13.605 Z m -6.0433333,3.5 c -0.2333334,0.6825 -0.8691667,1.166667 -1.645,1.166667 -0.98,0 -1.75,-0.77 -1.75,-1.75 0,-0.98 0.77,-1.75 1.75,-1.75 0.7758333,0 1.4116666,0.484166 1.645,1.166666 h -1.645 V 14.8 Z M 11.225,13.633333 H 10.408333 L 9.9825,12.466667 H 11.75 c -0.256667,0.338333 -0.443333,0.729166 -0.525,1.166666 z m 2.858333,2.333334 c -0.98,0 -1.75,-0.77 -1.75,-1.75 0,-0.5425 0.239167,-1.009167 0.6125,-1.33 l 0.56,1.54 L 14.6025,14.03 14.036667,12.4725 c 0.0175,0 0.035,-0.0058 0.0525,-0.0058 0.98,0 1.75,0.77 1.75,1.75 0,0.98 -0.775834,1.75 -1.755834,1.75 z"
         id="Shape"
         fill="#ffffff" /><path
         d="M 9.0974292,3.7508575 C 8.7734292,2.8482856 7.9171425,2.208 6.9142859,2.208 5.6337145,2.208 4.6,3.2417146 4.6,4.5222859 c 0,1.2728567 1.0337145,2.3142866 2.3142859,2.3142866 1.0028566,0 1.8591432,-0.648 2.1831433,-1.5428577 h 3.9882938 v 1.5428577 h 1.542852 V 5.2937148 H 15.4 V 3.7508575 Z M 6.9142859,5.2937148 c -0.4242856,0 -0.7714284,-0.3471425 -0.7714284,-0.7714289 0,-0.4242856 0.3471428,-0.7714284 0.7714284,-0.7714284 0.4242864,0 0.7714289,0.3471428 0.7714289,0.7714284 0,0.4242864 -0.3471425,0.7714289 -0.7714289,0.7714289 z"
         id="path306"
         style="fill:#ffffff;fill-opacity:1;stroke-width:0.771425" /></g></g></svg>
