<svg height="24" viewBox="0 0 24 24" width="24"><g fill="none" fill-rule="evenodd"><circle cx="12" cy="12" fill="#fff" opacity=".4" r="12"/><circle cx="12" cy="12" fill="#3d3d36" r="11"/><path d="m14.3333333 7v.90909091l.9333334.45454545v1.36363637h-4.6666667v-.90909091h.9333333v-.45454546l-.9333333-.45454545h-1.86666667v.90909091h.93333334v.90909091l-1.16666667 1.93181817c-.22903067-.0589818-.45192933-.1136364-.7-.1136364-1.54640267 0-2.8 1.2210364-2.8 2.7272728 0 1.5062363 1.25359733 2.7272727 2.8 2.7272727s2.8-1.2210364 2.8-2.7272727h.9333333l2.3333334-3.6363637h1.4l.4958333.9659091c-1.3326413.2095182-2.3625 1.3133-2.3625 2.6704546 0 1.5062272 1.2536067 2.7272727 2.8 2.7272727s2.8-1.2210455 2.8-2.7272727c0-1.3085364-.9543893-2.4060091-2.2166667-2.6704546l-.5833333-1.4204545v-2.27272729l-.4666667-.45454546zm-4.2 3.6363636h2.8l-1.8666666 2.7272728h-.6416667c-.197932-.5374455-.54817467-1.0142546-1.02083333-1.3352273zm-2.3333333 2.0454546c.90206667 0 1.63333333.7122727 1.63333333 1.5909091 0 .8786363-.73126666 1.5909091-1.63333333 1.5909091s-1.63333333-.7122728-1.63333333-1.5909091c0-.8786364.73126666-1.5909091 1.63333333-1.5909091zm8.4 0c.9020667 0 1.6333333.7122727 1.6333333 1.5909091 0 .8786363-.7312666 1.5909091-1.6333333 1.5909091s-1.6333333-.7122728-1.6333333-1.5909091c0-.8786364.7312666-1.5909091 1.6333333-1.5909091z" fill="#fff" opacity=".6"/></g></svg>