<svg version="1.1" viewBox="0 0 20 20" xmlns="http://www.w3.org/2000/svg">
	<path d="m10.013 2.6065c-0.48169-0.00339-0.94969 0.19599-1.281 0.54562-0.00154 0.00156-0.00317 0.00315-0.00481 0.00474-0.14997 0.16568-0.23099 0.37754-0.30519 0.58832h-2.9638c-0.4818-0.00392-0.95078 0.19497-1.2826 0.54404-0.00215 0.00208-0.00425 0.00418-0.00633 0.00633-0.27762 0.31236-0.43496 0.72869-0.43492 1.1466 0 0.39598 0.13213 0.81411 0.4365 1.1529 0.30188 0.33724 0.75948 0.52425 1.2257 0.53455l0.012652 0.034794c-2.7942 0.020283-5.0798 2.3159-5.0798 5.113 0 2.8111 2.3051 5.1162 5.1162 5.1162 2.038 0 3.7379-1.2511 4.5531-2.9891 0.81442 1.739 2.5159 2.9891 4.5564 2.9891 2.8096 0 5.1146-2.3051 5.1146-5.1162 0-2.8096-2.305-5.1162-5.1146-5.1162-0.09511 0-0.14172 0.013218-0.2056 0.025305l-0.37164-0.93465v-1.9468c6e-6 -0.00105 6e-6 -0.00212 0-0.00316-0.0051-0.44292-0.18954-0.88099-0.50292-1.194-0.31338-0.31303-0.75112-0.49679-1.194-0.50134-9.97e-4 -6.3e-6 -0.0022-6.3e-6 -0.0032 0h-2.2631zm3.9395 3.5853c0.05019 0.096919-0.03147-0.083775 0.0095 0.017395 0.0124 0.030624 0.0031 0.012334 0.0015 0.00633-0.0033-0.00809-7e-3 -0.016001-0.01107-0.023724z" fill="#111" opacity=".6"/>
	<path d="m10.001 3.6558c-0.77703-0.011535-0.77703 1.1646 0 1.1535h1.724v1.4599l-3.2211 2.6922-1.1201-2.9987h0.31881c0.77703 0.011534 0.77703-1.1646 0-1.1535h-2.2986c-0.77703-0.011535-0.77703 1.1646 0 1.1535h0.74967l1.0237 2.7396c-0.53763-0.26831-1.1345-0.43257-1.7733-0.43257-2.2148 0-4.0225 1.8143-4.0225 4.0372 0 2.2229 1.8077 4.0372 4.0225 4.0372s4.0225-1.8143 4.0225-4.0372c0-0.77273-0.23019-1.4892-0.60831-2.1043l3.2413-2.7103 0.532 1.3384c-1.1982 0.70053-2.0157 1.9896-2.0157 3.4762 0 2.2229 1.8077 4.0372 4.0225 4.0372 2.2148 0 4.0225-1.8143 4.0225-4.0372 0-2.2229-1.8077-4.0372-4.0225-4.0372-0.32536 0-0.63716 0.050055-0.94063 0.12389l-0.78335-1.9668v-2.1943c0-0.31848-0.25733-0.57675-0.57464-0.57675zm-4.5971 5.7675c0.68072 0 1.2959 0.24443 1.7868 0.63754l-2.155 1.8024c-0.58717 0.49289 0.14687 1.3778 0.73623 0.88763l2.155-1.8024c0.21629 0.40581 0.35019 0.86382 0.35019 1.3586 0 1.5995-1.2796 2.8838-2.8732 2.8838-1.5936 0-2.8732-1.2843-2.8732-2.8838s1.2794-2.8838 2.8732-2.8838zm9.1941 0c1.5936 0 2.8732 1.2843 2.8732 2.8838s-1.2796 2.8838-2.8732 2.8838-2.8732-1.2843-2.8732-2.8838c0-1.0116 0.5135-1.8941 1.2929-2.4084l1.0461 2.6224c0.28272 0.71875 1.3566 0.28849 1.0686-0.42806l-1.0437-2.6179c0.16573-0.02953 0.3349-0.0518 0.50947-0.0518z" fill="#2e89b0"/>
</svg>
