<?xml version="1.0" encoding="UTF-8"?>
<svg width="22" height="22" version="1.1" viewBox="0 0 22 22" xmlns="http://www.w3.org/2000/svg">
	<path d="m11.015 2.845c-0.5313-0.00374-1.0475 0.21617-1.4129 0.60181-0.0017 0.00172-0.0035 0.00347-0.0053 0.00523-0.16542 0.18274-0.25478 0.41642-0.33663 0.64891h-3.269c-0.53142-0.00432-1.0487 0.21505-1.4147 0.60007-0.00237 0.00229-0.00469 0.00461-0.00698 0.00698-0.30621 0.34453-0.47975 0.80374-0.47971 1.2647 0 0.43676 0.14574 0.89795 0.48145 1.2716 0.33297 0.37197 0.8377 0.57824 1.3519 0.5896l0.013955 0.038377c-3.082 0.022372-5.6029 2.5544-5.6029 5.6396 0 3.1006 2.5425 5.6431 5.6431 5.6431 2.2479 0 4.1229-1.3799 5.022-3.2969 0.8983 1.9181 2.775 3.2969 5.0256 3.2969 3.0989 0 5.6413-2.5425 5.6413-5.6431 0-3.0989-2.5424-5.6431-5.6413-5.6431-0.1049 0-0.15632 0.014579-0.22677 0.027911l-0.40992-1.0309v-2.1473c7e-6 -0.00116 7e-6 -0.00234 0-0.00349-0.0056-0.48853-0.20906-0.97172-0.55471-1.317-0.34565-0.34527-0.82848-0.54795-1.317-0.55297-0.0011-7e-6 -0.0024-7e-6 -0.0035 0h-2.4962zm4.3452 3.9545c0.05536 0.1069-0.03471-0.092403 0.01048 0.019187 0.01368 0.033778 0.0034 0.013604 0.0017 0.00698-0.0036-0.00892-0.0077-0.017649-0.01221-0.026167z" fill="#111" opacity=".6" stroke-width=".89312"/>
	<path d="m11.001 4.0024c-0.85705-0.012723-0.85705 1.2845 0 1.2723h1.9015v1.6102l-3.5528 2.9695-1.2355-3.3075h0.35164c0.85705 0.012722 0.85705-1.2845 0-1.2723h-2.5353c-0.85705-0.012723-0.85705 1.2845 0 1.2723h0.82688l1.1291 3.0217c-0.593-0.29594-1.2513-0.47712-1.9559-0.47712-2.4429 0-4.4368 2.0012-4.4368 4.453s1.9939 4.453 4.4368 4.453 4.4368-2.0012 4.4368-4.453c0-0.85231-0.2539-1.6426-0.67096-2.321l3.5751-2.9894 0.58679 1.4762c-1.3216 0.77267-2.2233 2.1945-2.2233 3.8342 0 2.4518 1.9939 4.453 4.4368 4.453 2.4429 0 4.4368-2.0012 4.4368-4.453s-1.9939-4.453-4.4368-4.453c-0.35887 0-0.70278 0.05521-1.0375 0.13665l-0.86402-2.1694v-2.4203c0-0.35128-0.28383-0.63615-0.63382-0.63615zm-5.0705 6.3615c0.75082 0 1.4294 0.2696 1.9708 0.7032l-2.3769 1.988c-0.64764 0.54365 0.162 1.5197 0.81205 0.97904l2.3769-1.988c0.23857 0.4476 0.38625 0.95278 0.38625 1.4985 0 1.7642-1.4114 3.1808-3.1691 3.1808-1.7577 0-3.1691-1.4166-3.1691-3.1808 0-1.7642 1.4112-3.1808 3.1691-3.1808zm10.141 0c1.7577 0 3.1691 1.4166 3.1691 3.1808s-1.4114 3.1808-3.1691 3.1808c-1.7577 0-3.1691-1.4166-3.1691-3.1808 0-1.1158 0.56638-2.0892 1.4261-2.6564l1.1538 2.8925c0.31184 0.79277 1.4963 0.3182 1.1786-0.47215l-1.1512-2.8875c0.1828-0.03257 0.36939-0.05713 0.56194-0.05713z" fill="#2e89b0" stroke-width="1.2699"/>
</svg>
