<?xml version="1.0" encoding="UTF-8"?>
<svg width="20px" height="20px" viewBox="0 0 20 20" version="1.1" xmlns="http://www.w3.org/2000/svg" xmlns:xlink="http://www.w3.org/1999/xlink">
    <title>bike-parking-m</title>
    <g id="Page-2:-Night" stroke="none" stroke-width="1" fill="none" fill-rule="evenodd" opacity="0.6">
        <g id="bike-parking-m" fill-rule="nonzero">
            <rect id="Rectangle" fill="#FFFFFF" x="0" y="0" width="20" height="20" rx="2.5"></rect>
            <rect id="Rectangle" fill="#2E89B0" x="1" y="1" width="18" height="18" rx="2"></rect>
            <path d="M13.605,8.5 L12.6133333,5.77 C12.4441667,5.30916667 12.0066667,5 11.5166667,5 L10,5 L10,6.16666667 L11.5166667,6.16666667 L12.3683333,8.5 L9.5625,8.5 L9.3525,7.91666667 L10,7.91666667 L10,6.75 L7.08333333,6.75 L7.08333333,7.91666667 L8.10416667,7.91666667 L9.16583333,10.8333333 L8.775,10.8333333 C8.51833333,9.5325 7.4275,8.57 6.0625,8.50583333 C4.42916667,8.42416667 3,9.78333333 3,11.4166667 C3,13.05 4.28333333,14.3333333 5.91666667,14.3333333 C7.35166667,14.3333333 8.5125,13.3475 8.775,12 L11.225,12 C11.4816667,13.3008333 12.5725,14.2633333 13.9375,14.3275 C15.5708333,14.4033333 17,13.05 17,11.4108333 C17,9.7775 15.7166667,8.49416667 14.0833333,8.49416667 L13.605,8.49416667 L13.605,8.5 Z M7.56166667,12 C7.32833333,12.6825 6.6925,13.1666667 5.91666667,13.1666667 C4.93666667,13.1666667 4.16666667,12.3966667 4.16666667,11.4166667 C4.16666667,10.4366667 4.93666667,9.66666667 5.91666667,9.66666667 C6.6925,9.66666667 7.32833333,10.1508333 7.56166667,10.8333333 L5.91666667,10.8333333 L5.91666667,12 L7.56166667,12 Z M11.225,10.8333333 L10.4083333,10.8333333 L9.9825,9.66666667 L11.75,9.66666667 C11.4933333,10.005 11.3066667,10.3958333 11.225,10.8333333 Z M14.0833333,13.1666667 C13.1033333,13.1666667 12.3333333,12.3966667 12.3333333,11.4166667 C12.3333333,10.8741667 12.5725,10.4075 12.9458333,10.0866667 L13.5058333,11.6266667 L14.6025,11.23 L14.0366667,9.6725 C14.0541667,9.6725 14.0716667,9.66666667 14.0891667,9.66666667 C15.0691667,9.66666667 15.8391667,10.4366667 15.8391667,11.4166667 C15.8391667,12.3966667 15.0633333,13.1666667 14.0833333,13.1666667 Z" id="Shape" fill="#FFFFFF"></path>
        </g>
    </g>
</svg>