<svg height="20" viewBox="0 0 20 20" width="20"><g fill="none" fill-rule="evenodd"><rect fill="#fff" height="20" opacity=".4" rx="2.5" width="20"/><rect fill="#216380" height="18" rx="2" width="18" x="1" y="1"/><path d="m12.3333333 5v.90909091l.9333334.45454545v1.36363637h-4.6666667v-.90909091h.93333333v-.45454546l-.93333333-.45454545h-1.86666667v.90909091h.93333334v.90909091l-1.16666667 1.93181818c-.22903067-.05898182-.45192933-.11363636-.7-.11363636-1.54640267 0-2.8 1.22103635-2.8 2.72727275 0 1.5062363 1.25359733 2.7272727 2.8 2.7272727s2.8-1.2210364 2.8-2.7272727h.93333333l2.33333337-3.63636366h1.4l.4958333.96590909c-1.3326413.20951818-2.3625 1.31329997-2.3625 2.67045457 0 1.5062272 1.2536067 2.7272727 2.8 2.7272727s2.8-1.2210455 2.8-2.7272727c0-1.3085364-.9543893-2.40600912-2.2166667-2.67045457l-.5833333-1.42045455v-2.27272727l-.4666667-.45454546zm-4.19999997 3.63636364h2.79999997l-1.86666663 2.72727276h-.64166667c-.197932-.5374455-.54817467-1.0142546-1.02083333-1.3352273zm-2.33333333 2.04545456c.90206667 0 1.63333333.7122727 1.63333333 1.5909091 0 .8786363-.73126666 1.5909091-1.63333333 1.5909091s-1.63333333-.7122728-1.63333333-1.5909091c0-.8786364.73126666-1.5909091 1.63333333-1.5909091zm8.4 0c.9020667 0 1.6333333.7122727 1.6333333 1.5909091 0 .8786363-.7312666 1.5909091-1.6333333 1.5909091s-1.6333333-.7122728-1.6333333-1.5909091c0-.8786364.7312666-1.5909091 1.6333333-1.5909091z" fill="#fff" opacity=".6"/></g></svg>