<?xml version="1.0" encoding="UTF-8" standalone="no"?>
<svg width="21px" height="21px" viewBox="0 0 21 21" version="1.1" xmlns="http://www.w3.org/2000/svg" xmlns:xlink="http://www.w3.org/1999/xlink">
    <!-- Generator: Sketch 3.7.2 (28276) - http://www.bohemiancoding.com/sketch -->
    <title>bike-parking-l copy</title>
    <desc>Created with Sketch.</desc>
    <defs></defs>
    <g id="POI" stroke="none" stroke-width="1" fill="none" fill-rule="evenodd">
        <g id="bike-parking-l">
            <rect id="Rectangle-346-Copy-3" fill="#FFFFFF" opacity="0" x="0" y="0" width="21" height="21" rx="2"></rect>
            <rect id="Rectangle-346" fill="#0E2940" x="1" y="1" width="19" height="19" rx="2"></rect>
            <g id="bicycle-18-copy" transform="translate(3.000000, 4.000000)" fill="#B7BFC6">
                <path d="M10,0.3622 L10,1.3622 L11,1.8622 L11,3.3622 L6,3.3622 L6,2.3622 L7,2.3622 L7,1.8622 L6,1.3622 L4,1.3622 L4,2.3622 L5,2.3622 L5,3.3622 L3.75,5.4872 C3.50461,5.42232 3.26579,5.3622 3,5.3622 C1.34314,5.3622 0,6.70534 0,8.3622 C0,10.01906 1.34314,11.3622 3,11.3622 C4.65686,11.3622 6,10.01906 6,8.3622 L7,8.3622 L9.5,4.3622 L11,4.3622 L11.53125,5.4247 C10.10342,5.65517 9,6.86933 9,8.3622 C9,10.01905 10.34315,11.3622 12,11.3622 C13.65685,11.3622 15,10.01905 15,8.3622 C15,6.92281 13.97744,5.71559 12.625,5.4247 L12,3.8622 L12,1.3622 L11.5,0.8622 L10,0.3622 L10,0.3622 Z M5.5,4.3622 L8.5,4.3622 L6.5,7.3622 L5.8125,7.3622 C5.60043,6.77101 5.22517,6.24652 4.71875,5.89345 L5.5,4.3622 L5.5,4.3622 Z M3,6.6122 C3.9665,6.6122 4.75,7.3957 4.75,8.3622 C4.75,9.3287 3.9665,10.1122 3,10.1122 C2.0335,10.1122 1.25,9.3287 1.25,8.3622 C1.25,7.3957 2.0335,6.6122 3,6.6122 L3,6.6122 Z M12,6.6122 C12.9665,6.6122 13.75,7.3957 13.75,8.3622 C13.75,9.3287 12.9665,10.1122 12,10.1122 C11.0335,10.1122 10.25,9.3287 10.25,8.3622 C10.25,7.3957 11.0335,6.6122 12,6.6122 L12,6.6122 Z" id="path5430"></path>
            </g>
        </g>
    </g>
</svg>