<?xml version="1.0" encoding="UTF-8" standalone="no"?>
<svg width="27px" height="27px" viewBox="0 0 27 27" version="1.1" xmlns="http://www.w3.org/2000/svg" xmlns:xlink="http://www.w3.org/1999/xlink">
    <!-- Generator: Sketch 3.7.2 (28276) - http://www.bohemiancoding.com/sketch -->
    <title>bookmaker-l</title>
    <desc>Created with Sketch.</desc>
    <defs></defs>
    <g id="POI" stroke="none" stroke-width="1" fill="none" fill-rule="evenodd">
        <g id="bank-l">
            <circle id="Oval-1-Copy-39" fill="#FFFFFF" opacity="0" cx="13.5" cy="13.5" r="13.5"></circle>
            <circle id="Oval-1-Copy-38" fill="#33332E" cx="13.5" cy="13.5" r="12.5"></circle>
            <rect id="Rectangle-150" fill="#C2C2C0" x="7" y="7" width="13" height="13" rx="2"></rect>
        </g>
        <path d="M13.7999878,9.0429192 L13.7999878,8 L12.7999878,8 L12.7999878,9.01120106 C11.9840403,9.06165681 11.3514973,9.2825733 10.9023438,9.67395498 C10.3867162,10.1232606 10.1289062,10.6874564 10.1289062,11.3665595 C10.1289062,12.110829 10.3956679,12.6578761 10.9291992,13.007717 C11.244305,13.2169357 11.8136352,13.4107172 12.637207,13.5890675 L12.7999878,13.6240494 L12.7999878,15.6791338 C12.3840896,15.6204224 12.0755995,15.4742166 11.8745117,15.2405145 C11.7277011,15.0690238 11.629232,14.8100768 11.5791016,14.4636656 L10,14.4636656 C10,15.2525227 10.2954072,15.8724522 10.8862305,16.3234727 C11.3740368,16.6958525 12.0119513,16.9145044 12.7999878,16.9794324 L12.7999878,18 L13.7999878,18 L13.7999878,16.9813452 C14.5804963,16.9183206 15.2017686,16.6956013 15.6638184,16.3131833 C16.2170438,15.8553032 16.4936523,15.2799606 16.4936523,14.5871383 C16.4936523,13.911465 16.2573266,13.3952858 15.784668,13.0385852 C15.4803045,12.8087877 15.0291371,12.6252954 14.4311523,12.4881029 L13.7999878,12.3429133 L13.7999878,10.4183449 C13.8788928,10.443386 13.9532132,10.4730695 14.0229492,10.5073955 C14.4096699,10.6994651 14.6173501,11.0235776 14.6459961,11.4797428 L16.2358398,11.4797428 C16.2071939,10.6737366 15.8983591,10.0589517 15.3093262,9.63536977 C14.8733857,9.32187875 14.3702758,9.12439609 13.7999878,9.0429192 Z M13.7999878,13.8444083 L13.7999878,15.6758666 C13.9524095,15.6553077 14.087602,15.6250886 14.2055664,15.585209 C14.6674828,15.4274376 14.8984375,15.1341929 14.8984375,14.7054662 C14.8984375,14.4550899 14.7838553,14.2613083 14.5546875,14.1241158 C14.3794983,14.0218598 14.1279334,13.9286245 13.7999878,13.8444083 Z M12.7999878,12.1108495 L12.7999878,10.328331 C12.4938795,10.3560047 12.2408904,10.4345563 12.0410156,10.5639871 C11.7867826,10.7286182 11.659668,10.9584122 11.659668,11.2533762 C11.659668,11.5243315 11.7849922,11.7266874 12.0356445,11.8604502 C12.1677254,11.9335468 12.4225046,12.0170127 12.7999878,12.1108495 Z" id="Rectangle-11-Copy" fill="#33332E"></path>
    </g>
</svg>