<?xml version="1.0" encoding="UTF-8" standalone="no"?>
<svg width="27px" height="27px" viewBox="0 0 27 27" version="1.1" xmlns="http://www.w3.org/2000/svg" xmlns:xlink="http://www.w3.org/1999/xlink">
    <!-- Generator: Sketch 3.8.3 (29802) - http://www.bohemiancoding.com/sketch -->
    <title>bookmaker-l</title>
    <desc>Created with Sketch.</desc>
    <defs></defs>
    <g id="POI-NIght" stroke="none" stroke-width="1" fill="none" fill-rule="evenodd">
        <g id="bookmaker-l">
            <g id="POI">
                <g>
                    <g id="bank-l">
                        <circle id="Oval-1-Copy-39" fill-opacity="0.1" fill="#FFFFFF" cx="13.5" cy="13.5" r="13.5"></circle>
                        <circle id="Oval-1-Copy-38" fill="#252522" cx="13.5" cy="13.5" r="12.5"></circle>
                        <path d="M17.7401761,14 L17,17 L17.9993304,17 C17.9993304,17 19.0056826,13.4541832 18.9998217,13.5 C18.9790688,12.9049206 18.2521674,13.0083414 18.016754,13.0067731 C17.677836,13.0045154 17,13 17,13 C17,13 16.5863384,9.15700956 16.5863384,9.00919673 C16.5863384,8.62488336 16.8968737,8.3107811 17.2802596,8.3107811 C17.4568674,8.3107811 17.6165502,8.37803594 17.7401756,8.48520024 L18.3831667,9.45286156 C18.5053204,9.66497298 18.7356463,9.8068733 18.9998221,9.8068733 C19.3949819,9.8068733 19.7202345,9.48316319 19.7202345,9.08332948 L19.7165552,6.59859578 C19.6952151,6.59859578 19.6488556,6.59416139 19.6488556,6.59416139 C19.4177938,6.56164257 19.2389784,6.36135618 19.2389784,6.12116033 C19.2389784,6.01916948 19.2676772,5.92604739 19.3206595,5.84918472 L20.3567583,5.41609312 L16.9114355,5 C14.7744818,5 13.043726,6.73901797 13.043726,8.88452122 C13.043726,8.96463477 13,10 13,10 L7.03614238,10 C6.68612143,10 6.37488359,10.0149269 6.12728691,10.1350632 C5.87969023,10.2551994 5.83493556,10.6602577 5.75240334,11 C5.50160223,11.9935911 5,14 5,14 L6,14 L7,11 L7,14 L5.99999997,15.0006247 L7.0602796,19 L8,19 L7.27001953,15.9733391 L8,15.0006247 L9,19 L10.0772519,19 L8.94777015,15.0006247 L14.916664,15.0006247 L15,19 L16,19 L16.0863236,14 L17.7401761,14 Z" id="Shape" fill-opacity="0.7" fill="#FFFFFF"></path>
                        <circle id="Oval-631" fill="#BEBEBD" cx="17.5" cy="17.5" r="4.5"></circle>
                        <g id="doll" transform="translate(15.000000, 14.000000)" fill="#262622">
                            <path d="M0,2.5 C0,1.67157288 0.674322248,1 1.50016487,1 L4.00019251,1 C4.55237094,1 5,1.44266033 5,1.99895656 L5,4 L1.50016487,4 C0.671646689,4 0,3.33420277 0,2.5 Z M1,2.5 C1,2.22385763 1.21505737,2 1.49047852,2 L5,2 L5,3 L1.49047852,3 C1.21959471,3 1,2.76806641 1,2.5 Z M3,3 L5,3 L5,4 L3,4 L3,3 Z" id="Combined-Shape"></path>
                            <path d="M5,4.5 C5,5.32842712 4.32567775,6 3.49983513,6 L0.999807492,6 C0.447629061,6 0,5.55733967 0,5.00104344 L0,3 L3.49983513,3 C4.32835331,3 5,3.66579723 5,4.5 Z M4,4.5 C4,4.77614237 3.78494263,5 3.50952148,5 L0,5 L0,4 L3.50952148,4 C3.78040529,4 4,4.23193359 4,4.5 Z M0,3 L2,3 L2,4 L0,4 L0,3 Z M2,0 L3,0 L3,1 L2,1 L2,0 Z" id="Combined-Shape"></path>
                            <rect id="Rectangle-435" x="2" y="2" width="1" height="1"></rect>
                            <rect id="Rectangle-436" x="2" y="4" width="1" height="1"></rect>
                            <rect id="Rectangle-441" x="2" y="6" width="1" height="1"></rect>
                        </g>
                    </g>
                </g>
            </g>
        </g>
    </g>
</svg>