<?xml version="1.0" encoding="UTF-8" standalone="no"?>
<svg width="23px" height="23px" viewBox="0 0 23 23" version="1.1" xmlns="http://www.w3.org/2000/svg" xmlns:xlink="http://www.w3.org/1999/xlink">
    <!-- Generator: Sketch 3.8.3 (29802) - http://www.bohemiancoding.com/sketch -->
    <title>book-shop-m</title>
    <desc>Created with Sketch.</desc>
    <defs>
        <path d="M22,11.5 C22,17.299 17.299,22 11.5,22 C5.701,22 1,17.299 1,11.5 C1,5.701 5.701,1 11.5,1 C17.299,1 22,5.701 22,11.5 L22,11.5 Z" id="path-1"></path>
    </defs>
    <g id="POI-NIght" stroke="none" stroke-width="1" fill="none" fill-rule="evenodd">
        <g id="book-shop-m">
            <path d="M11.5,23 C5.159,23 0,17.841 0,11.5 C0,5.159 5.159,0 11.5,0 C17.841,0 23,5.159 23,11.5 C23,17.841 17.841,23 11.5,23 L11.5,23 Z" id="Shape" fill-opacity="0.1" fill="#FFFFFF"></path>
            <g id="Shape">
                <use fill="#2D7970" xlink:href="#path-1"></use>
                <use fill="#825089" xlink:href="#path-1"></use>
                <use fill-opacity="0.65" fill="#000000" xlink:href="#path-1"></use>
            </g>
            <path d="M5,18 L18,18 L18,16.9570376 L5,16.9570376 L5,18 L5,18 Z M17.038,14.425768 L12,15.9140753 L12,6.52741406 L17.038,5.03910677 C17.569,4.88266242 18,5.22162518 18,5.79838337 L18,13.0991199 C18,13.6748351 17.569,14.2682807 17.038,14.425768 L17.038,14.425768 Z M5,13.0980769 L5,5.79734041 C5,5.22162518 5.431,4.88161945 5.962,5.03806381 L11,6.52741406 L11,15.9140753 L5.962,14.425768 C5.431,14.2682807 5,13.6748351 5,13.0980769 L5,13.0980769 Z" id="Shape" fill-opacity="0.7" fill="#FFFFFF"></path>
        </g>
    </g>
</svg>