<svg width="16" height="16" viewBox="0 0 16 16">
  <g fill="none" fill-rule="evenodd">
    <circle cx="8" cy="8" r="8" fill="#FFF" opacity=".4"/>
    <circle cx="8" cy="8" r="7" fill="#4E3551"/>
    <path fill="#FFF" d="M11.5697778,4.01427968 L8.44444444,4.85116944 L8.44444444,10.0936452 L11.5697778,9.25675542 C11.808,9.19289253 12,8.92695604 12,8.66387907 L12,4.37458074 C12,4.11150378 11.8071111,3.94946362 11.5697778,4.01427968 L11.5697778,4.01427968 Z M4.43022222,9.25675542 L7.55555556,10.0936452 L7.55555556,4.85116944 L4.43022222,4.01427968 C4.19288889,3.94946362 4,4.11150378 4,4.37458074 L4,8.66387907 C4,8.92695604 4.19288889,9.19193936 4.43022222,9.25675542 L4.43022222,9.25675542 Z M4,12 L12,12 L12,11.0468226 L4,11.0468226 L4,12 L4,12 Z" opacity=".6"/>
  </g>
</svg>
