<svg width="16" height="16" viewBox="0 0 16 16">
  <g fill="none" fill-rule="evenodd">
    <circle cx="8" cy="8" r="8" fill="#3D3C36"/>
    <circle cx="8" cy="8" r="7" fill="#3D3C36"/>
    <path fill="#FFF" fill-rule="nonzero" d="M7.42857143,4 C5.52380952,4 4,5.55555556 4,7.5 C4,9.44444444 5.52380952,11 7.42857143,11 C9.33333333,11 10.8571429,9.44444444 10.8571429,7.5 C10.8571429,5.55555556 9.33333333,4 7.42857143,4 Z M9.48809524,4.12152778 C10.5547619,4.86041667 11.2380952,6.1 11.2380952,7.5 C11.2380952,8.9 10.5547619,10.1395833 9.48809524,10.8784722 C10.9357143,10.4506944 12,9.13333333 12,7.5 C12,5.86666667 10.9357143,4.54930556 9.48809524,4.12152778 Z M7.80952381,5.94444444 L7.80952381,9.05555556 L7.04761905,9.05555556 L7.04761905,7.11111111 L6.28571429,7.11111111 L6.28571429,6.52777778 C7.04761905,6.45 7.80952381,5.94444444 7.80952381,5.94444444 Z" opacity=".6"/>
  </g>
</svg>
