<?xml version="1.0" encoding="UTF-8" standalone="no"?>
<svg width="23px" height="23px" viewBox="0 0 23 23" version="1.1" xmlns="http://www.w3.org/2000/svg" xmlns:xlink="http://www.w3.org/1999/xlink" xmlns:sketch="http://www.bohemiancoding.com/sketch/ns">
    <!-- Generator: Sketch 3.4.2 (15857) - http://www.bohemiancoding.com/sketch -->
    <title>bowls-m</title>
    <desc>Created with Sketch.</desc>
    <defs>
        <path id="path-1" d="M22,11.5 C22,17.299 17.299,22 11.5,22 C5.701,22 1,17.299 1,11.5 C1,5.701 5.701,1 11.5,1 C17.299,1 22,5.701 22,11.5 L22,11.5 Z"></path>
    </defs>
    <g id="POI" stroke="none" stroke-width="1" fill="none" fill-rule="evenodd" sketch:type="MSPage">
        <g id="bowls-m" sketch:type="MSLayerGroup">
            <path d="M11.5,23 C5.159,23 0,17.841 0,11.5 C0,5.159 5.159,0 11.5,0 C17.841,0 23,5.159 23,11.5 C23,17.841 17.841,23 11.5,23 L11.5,23 Z" id="Shape" opacity="0" fill="#FFFFFF" sketch:type="MSShapeGroup"></path>
            <g id="Shape">
                <use fill="#3D3D37" fill-rule="evenodd" sketch:type="MSShapeGroup" xlink:href="#path-1"></use>
                <use fill="none" xlink:href="#path-1"></use>
            </g>
            <path d="M8.999,9 C6.238,9 4,11.238 4,13.999 C4,16.762 6.238,19 8.999,19 C11.762,19 14,16.762 14,13.999 C14,11.238 11.762,9 8.999,9 L8.999,9 Z M9.999,13.1 C9.393,13.1 8.9,12.607 8.9,12 C8.9,11.393 9.392,10.9 9.999,10.9 C10.606,10.9 11.1,11.393 11.1,12 C11.1,12.607 10.606,13.1 9.999,13.1 L9.999,13.1 Z M11.999,15.1 C11.393,15.1 10.9,14.607 10.9,14 C10.9,13.393 11.392,12.9 11.999,12.9 C12.606,12.9 13.1,13.393 13.1,14 C13.1,14.607 12.606,15.1 11.999,15.1 L11.999,15.1 Z M18,14.036 C18,16.61 16.158,18.847 16.079,18.94 C16.048,18.978 16.001,19 15.95,19 L13.888,19 C15.189,17.729 15.999,15.957 15.999,13.999 C15.999,11.821 14.999,9.874 13.435,8.59 C13.387,8.072 13.323,7.361 13.258,7.062 C13.088,6.259 12.942,5.565 13.213,5.063 C13.4,4.573 13.903,4.03 14.734,4.03 C15.562,4.03 16.067,4.573 16.261,5.083 C16.523,5.565 16.376,6.26 16.205,7.062 C16.087,7.623 15.954,8.258 15.954,8.898 C15.954,9.553 16.332,10.11 16.77,10.757 C17.349,11.604 18,12.568 18,14.036 L18,14.036 Z" id="Shape" opacity="0.7" fill="#FFFFFF" sketch:type="MSShapeGroup"></path>
        </g>
    </g>
</svg>