<svg height="24" viewBox="0 0 24 24" width="24"><g fill="none" fill-rule="evenodd"><circle cx="12" cy="12" fill="#fff" opacity=".4" r="12"/><circle cx="12" cy="12" fill="#3d3d36" r="11"/><path d="m10.2848571 9.31596526c-2.36657139 0-4.2848571 1.94348694-4.2848571 4.34114894 0 2.3993988 1.91828571 4.3428858 4.2848571 4.3428858 2.3682858 0 4.2865715-1.943487 4.2865715-4.3428858 0-2.397662-1.9182857-4.34114894-4.2865715-4.34114894zm.8571429 3.56045424c-.5194286 0-.942-.4281229-.942-.9552438s.4217143-.9552438.942-.9552438.9437143.4281229.9437143.9552438-.4234286.9552438-.9437143.9552438zm1.7142857 1.736807c-.5194286 0-.942-.428123-.942-.9552439s.4217143-.9552438.942-.9552438.9437143.4281229.9437143.9552438-.4234286.9552439-.9437143.9552439zm-2.5714286.8684034c-.51942853 0-.94199996-.4281229-.94199996-.9552438s.42171429-.9552438.94199996-.9552438c.5202858 0 .9437143.4281229.9437143.9552438s-.4234285.9552438-.9437143.9552438zm7.7151429-1.7923847c0 2.2352705-1.5788571 4.1778891-1.6465714 4.2586506-.0265715.0329993-.0668572.0521042-.1105715.0521042h-1.7674285c1.1151428-1.1037408 1.8094285-2.6425518 1.8094285-4.3428858 0-1.8913827-.8571428-3.5821643-2.1977142-4.69719436-.0411429-.449833-.096-1.06726787-.1517143-1.32692051-.1457143-.69732799-.2708572-1.3-.0385715-1.73593854.1602858-.4255177.5914286-.89706079 1.3037143-.89706079.7097143 0 1.1425715.47154309 1.3088572.91442886.2245714.41857047.0985714 1.02211089-.048 1.71857047-.1011429.48717435-.2151429 1.03861056-.2151429 1.59438878 0 .56880427.324 1.05250499.6994286 1.61436209.4962857.7355377 1.0542857 1.5726787 1.0542857 2.847495z" fill="#fff" opacity=".6"/></g></svg>