<svg width="28" height="28" viewBox="0 0 28 28">
  <g fill="none" fill-rule="evenodd">
    <circle cx="14" cy="14" r="14" fill="#FFF" opacity=".4"/>
    <circle cx="14" cy="14" r="13" fill="#3D3D36"/>
    <path fill="#FFF" d="M19.7836527,12.7412435 C19.3506033,12.0935143 18.9746865,11.534607 18.9746865,10.8768225 C18.9746865,10.2366348 19.1071682,9.59979889 19.2247457,9.03837774 C19.3928318,8.23395341 19.5385616,7.53929948 19.2785664,7.054969 C19.0864679,6.54466231 18.5871777,6 17.7657913,6 C16.944405,6 16.4451147,6.54382437 16.2604684,7.03569633 C15.992193,7.53929948 16.1379229,8.23395341 16.306009,9.03837774 C16.4244145,9.59979889 16.5568961,10.2374728 16.5568961,10.8768225 C16.5568961,10.9606167 16.5353679,11.0377074 16.5237757,11.1181498 C17.7947717,12.3398693 18.5921457,14.0618401 18.5921457,15.97151 C18.5921457,17.9331322 17.7500591,19.6944863 16.4194464,20.9220714 C16.4235865,20.927099 16.4318666,20.9371543 16.4335226,20.9396682 C16.464987,20.9782135 16.5121836,21 16.5618642,21 L18.9697185,21 C19.0202271,21 19.0665957,20.9782135 19.0980601,20.9396682 C19.1758931,20.8458187 21,18.6051617 21,16.0268141 C21,14.555388 20.3541519,13.5900788 19.7836527,12.7412435 L19.7836527,12.7412435 Z M11.9680625,10.9446958 C9.22486397,10.9446958 7,13.1945701 7,15.97151 C7,18.7484498 9.22486397,21 11.9680625,21 C14.712089,21 16.9361249,18.7484498 16.9361249,15.97151 C16.9361249,13.1945701 14.712089,10.9446958 11.9680625,10.9446958 L11.9680625,10.9446958 Z M11.8024604,13.4593598 C11.8024604,12.9046422 12.24793,12.4529915 12.7952449,12.4529915 C13.3433877,12.4529915 13.7896854,12.9046422 13.7896854,13.4593598 C13.7896854,14.0132395 13.3433877,14.4640523 12.7952449,14.4640523 C12.24793,14.4640523 11.8024604,14.0132395 11.8024604,13.4593598 L11.8024604,13.4593598 Z M10.1464396,15.9731859 C10.1464396,15.4184682 10.5919092,14.9668175 11.139224,14.9668175 C11.6873669,14.9668175 12.1336645,15.4184682 12.1336645,15.9731859 C12.1336645,16.5270655 11.6873669,16.9778783 11.139224,16.9778783 C10.5919092,16.9778783 10.1464396,16.5270655 10.1464396,15.9731859 L10.1464396,15.9731859 Z M14.4512657,16.9778783 C13.9039508,16.9778783 13.4584812,16.5270655 13.4584812,15.9731859 C13.4584812,15.4184682 13.9039508,14.9668175 14.4512657,14.9668175 C14.9994086,14.9668175 15.4457062,15.4184682 15.4457062,15.9731859 C15.4457062,16.5270655 14.9994086,16.9778783 14.4512657,16.9778783 L14.4512657,16.9778783 Z" opacity=".6"/>
  </g>
</svg>
