<svg width="24" height="24" viewBox="0 0 24 24">
  <g fill="none" fill-rule="evenodd">
    <circle cx="12" cy="12" r="12" fill="#FFF" opacity=".4"/>
    <circle cx="12" cy="12" r="11" fill="#3D3D36"/>
    <path fill="#FFF" d="M10.2848571,9.31596526 C7.91828571,9.31596526 6,11.2594522 6,13.6571142 C6,16.056513 7.91828571,18 10.2848571,18 C12.6531429,18 14.5714286,16.056513 14.5714286,13.6571142 C14.5714286,11.2594522 12.6531429,9.31596526 10.2848571,9.31596526 L10.2848571,9.31596526 Z M11.142,12.8764195 C10.6225714,12.8764195 10.2,12.4482966 10.2,11.9211757 C10.2,11.3940548 10.6217143,10.9659319 11.142,10.9659319 C11.6622857,10.9659319 12.0857143,11.3940548 12.0857143,11.9211757 C12.0857143,12.4482966 11.6622857,12.8764195 11.142,12.8764195 L11.142,12.8764195 Z M12.8562857,14.6132265 C12.3368571,14.6132265 11.9142857,14.1851035 11.9142857,13.6579826 C11.9142857,13.1308617 12.336,12.7027388 12.8562857,12.7027388 C13.3765714,12.7027388 13.8,13.1308617 13.8,13.6579826 C13.8,14.1851035 13.3765714,14.6132265 12.8562857,14.6132265 L12.8562857,14.6132265 Z M10.2848571,15.4816299 C9.76542857,15.4816299 9.34285714,15.053507 9.34285714,14.5263861 C9.34285714,13.9992652 9.76457143,13.5711423 10.2848571,13.5711423 C10.8051429,13.5711423 11.2285714,13.9992652 11.2285714,14.5263861 C11.2285714,15.053507 10.8051429,15.4816299 10.2848571,15.4816299 L10.2848571,15.4816299 Z M18,13.6892452 C18,15.9245157 16.4211429,17.8671343 16.3534286,17.9478958 C16.3268571,17.9808951 16.2865714,18 16.2428571,18 L14.4754286,18 C15.5905714,16.8962592 16.2848571,15.3574482 16.2848571,13.6571142 C16.2848571,11.7657315 15.4277143,10.0749499 14.0871429,8.95991984 C14.046,8.51008684 13.9911429,7.89265197 13.9354286,7.63299933 C13.7897143,6.93567134 13.6645714,6.33299933 13.8968571,5.89706079 C14.0571429,5.47154309 14.4882857,5 15.2005714,5 C15.9102857,5 16.3431429,5.47154309 16.5094286,5.91442886 C16.734,6.33299933 16.608,6.93653975 16.4614286,7.63299933 C16.3602857,8.12017368 16.2462857,8.67160989 16.2462857,9.22738811 C16.2462857,9.79619238 16.5702857,10.2798931 16.9457143,10.8417502 C17.442,11.5772879 18,12.4144289 18,13.6892452 L18,13.6892452 Z" opacity=".6"/>
  </g>
</svg>
