<svg width="16" height="16" viewBox="0 0 16 16">
  <g fill="none" fill-rule="evenodd">
    <circle cx="8" cy="8" r="8" fill="#FFF" opacity=".4"/>
    <circle cx="8" cy="8" r="7" fill="#3D3D36"/>
    <path fill="#FFF" d="M12,9.31763137 C12,10.6854794 11.0204444,11.872903 10.9795556,11.923564 C10.9617778,11.9440062 10.9368889,11.9555605 10.9102222,11.9555605 L9.58133333,11.9555605 C9.55466667,11.9555605 9.52888889,11.9440062 9.512,11.923564 C9.50577778,11.9155649 9.47377778,11.8746806 9.43111111,11.8195756 C10.0275556,11.1583157 10.4008889,10.2908566 10.4008889,9.33274081 C10.4008889,8.41639818 10.056,7.58626819 9.50488889,6.9365626 C9.54755556,6.82368626 9.57777778,6.70903233 9.57777778,6.58726808 C9.57777778,6.24686146 9.50666667,5.90912121 9.44444444,5.61137651 C9.35377778,5.18475725 9.27644444,4.81590934 9.41511111,4.55904899 C9.51911111,4.287968 9.78666667,4 10.2275556,4 C10.2346667,4 10.24,4.00266637 10.2462222,4.00355516 C10.2533333,4.00266637 10.2586667,4 10.2648889,4 C10.7057778,4 10.9733333,4.287968 11.0773333,4.55904899 C11.216,4.81590934 11.1377778,5.18386846 11.048,5.61137651 C10.9857778,5.90912121 10.9146667,6.24686146 10.9146667,6.58726808 C10.9146667,6.93567381 11.1164444,7.23164093 11.3484444,7.57471392 C11.6524444,8.02621931 12,8.53727364 12,9.31763137 L12,9.31763137 Z M9.33333333,9.33274081 C9.33333333,10.8063548 8.14044444,12 6.66666667,12 C5.19466667,12 4,10.8063548 4,9.33274081 C4,7.86090434 5.19466667,6.66725919 6.66666667,6.66725919 C8.14044444,6.66725919 9.33333333,7.86090434 9.33333333,9.33274081 L9.33333333,9.33274081 Z M8.44444444,8.44483946 L8.44444444,9.3336296 L7.55555556,9.3336296 L7.55555556,8.44483946 L6.66666667,8.44483946 L6.66666667,7.55604933 L7.55555556,7.55604933 L7.55555556,8.44483946 L8.44444444,8.44483946 Z M6.66666667,9.33274081 L7.55555556,9.33274081 L7.55555556,10.2215309 L6.66666667,10.2215309 L6.66666667,9.33274081 Z" opacity=".6"/>
  </g>
</svg>
