<?xml version="1.0" encoding="UTF-8" standalone="no"?>
<svg width="27px" height="27px" viewBox="0 0 27 27" version="1.1" xmlns="http://www.w3.org/2000/svg" xmlns:xlink="http://www.w3.org/1999/xlink" xmlns:sketch="http://www.bohemiancoding.com/sketch/ns">
    <!-- Generator: Sketch 3.4.2 (15857) - http://www.bohemiancoding.com/sketch -->
    <title>bowls-l</title>
    <desc>Created with Sketch.</desc>
    <defs>
        <path id="path-1" d="M26,13.5 C26,20.403 20.403,26 13.5,26 C6.597,26 1,20.403 1,13.5 C1,6.597 6.597,1 13.5,1 C20.403,1 26,6.597 26,13.5 L26,13.5 Z"></path>
    </defs>
    <g id="POI" stroke="none" stroke-width="1" fill="none" fill-rule="evenodd" sketch:type="MSPage">
        <g id="bowls-l" sketch:type="MSLayerGroup">
            <path d="M13.5,27 C6.057,27 0,20.943 0,13.5 C0,6.057 6.057,0 13.5,0 C20.943,0 27,6.057 27,13.5 C27,20.943 20.943,27 13.5,27 L13.5,27 Z" id="Shape" opacity="0" fill="#FFFFFF" sketch:type="MSShapeGroup"></path>
            <g id="Shape">
                <use fill="#3D3D37" fill-rule="evenodd" sketch:type="MSShapeGroup" xlink:href="#path-1"></use>
                <use fill="none" xlink:href="#path-1"></use>
            </g>
            <path d="M20.439,12.144 C19.916,11.371 19.462,10.704 19.462,9.919 C19.462,9.155 19.622,8.395 19.764,7.725 C19.967,6.765 20.143,5.936 19.829,5.358 C19.597,4.749 18.994,4.099 18.002,4.099 C17.01,4.099 16.407,4.748 16.184,5.335 C15.86,5.936 16.036,6.765 16.239,7.725 C16.382,8.395 16.542,9.156 16.542,9.919 C16.542,10.019 16.516,10.111 16.502,10.207 C18.037,11.665 19,13.72 19,15.999 C19,18.34 17.983,20.442 16.376,21.907 C16.381,21.913 16.391,21.925 16.393,21.928 C16.431,21.974 16.488,22 16.548,22 L19.456,22 C19.517,22 19.573,21.974 19.611,21.928 C19.705,21.816 21.908,19.142 21.908,16.065 C21.908,14.309 21.128,13.157 20.439,12.144 L20.439,12.144 Z M11,10 C7.687,10 5,12.685 5,15.999 C5,19.313 7.687,22 11,22 C14.314,22 17,19.313 17,15.999 C17,12.685 14.314,10 11,10 L11,10 Z M10.8,13.001 C10.8,12.339 11.338,11.8 11.999,11.8 C12.661,11.8 13.2,12.339 13.2,13.001 C13.2,13.662 12.661,14.2 11.999,14.2 C11.338,14.2 10.8,13.662 10.8,13.001 L10.8,13.001 Z M13.999,17.2 C13.338,17.2 12.8,16.662 12.8,16.001 C12.8,15.339 13.338,14.8 13.999,14.8 C14.661,14.8 15.2,15.339 15.2,16.001 C15.2,16.662 14.661,17.2 13.999,17.2 L13.999,17.2 Z" id="Shape" opacity="0.7" fill="#FFFFFF" sketch:type="MSShapeGroup"></path>
        </g>
    </g>
</svg>