<?xml version="1.0" encoding="UTF-8"?>
<svg version="1.1" viewBox="0 0 24 24" xml:space="preserve" xmlns="http://www.w3.org/2000/svg">
 <g opacity=".6">
  <circle cx="12" cy="12" r="12" fill="#fff" opacity="1"/>
  <circle cx="12" cy="12" r="11" fill="#8C5F93"/>
  <path d="m7.3403 4.5911c-0.33792 0.52218-0.62345 1.2577-0.88003 2.0534h1.1658c0.17111-0.70659 0.33873-1.4156 0.57729-2.0534zm1.8579 0c-0.24683 0.61583-0.39422 1.3518-0.57165 2.0534h1.2411c0.07024-0.69344 0.11314-1.3791 0.23129-2.0534zm1.8673 0c-0.12095 0.66044-0.15715 1.3586-0.22941 2.0534h2.328c-0.072254-0.69479-0.10846-1.393-0.22941-2.0534h-0.93456zm2.8357 0c0.11815 0.67436 0.16105 1.36 0.23129 2.0534h1.2317c-0.17743-0.70166-0.3248-1.4376-0.57165-2.0534zm1.886 0c0.23857 0.63777 0.40617 1.3468 0.5773 2.0534h1.1753c-0.2566-0.79572-0.54212-1.5312-0.88004-2.0534zm-9.6089 3.0163c-0.37652 1.4728-0.61302 3.0844-0.61302 4.3926 0 1.3084 0.23651 2.9197 0.61302 4.3926h1.2298c-0.56317-2.9406-0.5744-6.0256-0.052646-8.7852zm2.1813 0c-0.53578 2.7358-0.53401 5.8486 0.047012 8.7852h1.352c-0.12955-1.7041-0.18992-3.3179-0.18992-4.3926 0-1.0747 0.060375-2.6886 0.18992-4.3926zm2.3675 0c-0.13169 1.693-0.19556 3.3125-0.19556 4.3926 0 1.0802 0.06388 2.6996 0.19556 4.3926h2.5461c0.13168-1.693 0.19556-3.3125 0.19556-4.3926 0-1.0802-0.06387-2.6996-0.19556-4.3926h-1.2731zm3.5145 0c0.12957 1.7041 0.18992 3.3179 0.18992 4.3926 0 1.0747-0.06035 2.6886-0.18992 4.3926h1.3407c0.58105-2.9366 0.58466-6.0494 0.04889-8.7852zm2.3938 0c0.52177 2.7598 0.50866 5.8446-0.05454 8.7852h1.2411c0.37652-1.4728 0.61302-3.0844 0.61302-4.3926 0-1.3084-0.23651-2.9197-0.61302-4.3926zm-10.175 9.7481c0.2566 0.79572 0.54211 1.5313 0.88003 2.0534h0.86875c-0.2356-0.6592-0.37887-1.3604-0.54532-2.0534zm2.2001 0c0.17256 0.69046 0.29443 1.4066 0.53968 2.0534h0.89883c-0.11815-0.67436-0.16105-1.36-0.23129-2.0534zm2.1756 0c0.07226 0.69479 0.10846 1.393 0.22941 2.0534h1.8691c0.12096-0.66043 0.15715-1.3586 0.22941-2.0534h-1.164zm3.2964 0c-0.07024 0.69344-0.11314 1.3791-0.23129 2.0534h0.88943c0.24527-0.64691 0.36709-1.3628 0.53968-2.0534zm2.1926 0c-0.16645 0.69301-0.30971 1.3942-0.54532 2.0534h0.88004c0.33792-0.52217 0.62345-1.2577 0.88004-2.0534z" fill="#fff"/>
 </g>
</svg>
