<svg width="24" height="24" viewBox="0 0 24 24">
  <g fill="none" fill-rule="evenodd">
    <circle cx="12" cy="12" r="12" fill="#FFF" opacity=".4"/>
    <circle cx="12" cy="12" r="11" fill="#4C351E"/>
    <path fill="#FFF" d="M12.1932997,11.5333333 L11.8067003,11.5333333 L11.5333333,11.8067003 L11.5333333,12.1932997 L11.8067003,12.4666667 L12.1932997,12.4666667 L12.4666667,12.1932997 L12.4666667,11.8067003 L12.1932997,11.5333333 Z M12.4666667,10.873367 L15.2838679,8.05616576 C14.5059439,7.40735724 13.5333501,6.98399373 12.4666667,6.88764373 L12.4666667,10.873367 Z M15.9437747,8.71619162 L13.126633,11.5333333 L17.1123292,11.5333333 C17.0159601,10.4676726 16.5928418,9.49469514 15.9437747,8.71619162 Z M10.873367,12.4666667 L6.8876708,12.4666667 C6.98403994,13.5323274 7.40715821,14.5053049 8.05622529,15.2838084 L10.873367,12.4666667 Z M8.71613209,15.9438342 C9.49405606,16.5926428 10.4666499,17.0160063 11.5333333,17.1123563 L11.5333333,13.126633 L8.71613209,15.9438342 Z M13.126633,12.4666667 L15.9438342,15.2838679 C16.5926428,14.5059439 17.0160063,13.5333501 17.1123563,12.4666667 L13.126633,12.4666667 Z M15.2838084,15.9437747 L12.4666667,13.126633 L12.4666667,17.1123292 C13.5323274,17.0159601 14.5053049,16.5928418 15.2838084,15.9437747 Z M8.05616576,8.71613209 C7.40735724,9.49405606 6.98399373,10.4666499 6.88764373,11.5333333 L10.873367,11.5333333 L8.05616576,8.71613209 Z M8.71619162,8.05622529 L11.5333333,10.873367 L11.5333333,6.8876708 C10.4676726,6.98403994 9.49469514,7.40715821 8.71619162,8.05622529 Z M5.95105798,11.5333333 C6.17814935,8.55516792 8.56034389,6.17805445 11.5333333,5.95108158 L11.5333333,5 L12.4666667,5 L12.4666667,5.95105798 C15.4448321,6.17814935 17.8219455,8.56034389 18.0489184,11.5333333 L19,11.5333333 L19,12.4666667 L18.048942,12.4666667 C17.8218506,15.4448321 15.4396561,17.8219455 12.4666667,18.0489184 L12.4666667,19 L11.5333333,19 L11.5333333,18.048942 C8.55516792,17.8218506 6.17805445,15.4396561 5.95108158,12.4666667 L5,12.4666667 L5,11.5333333 L5.95105798,11.5333333 Z" opacity=".6"/>
  </g>
</svg>
