<?xml version="1.0" encoding="utf-8"?>
<!-- Generator: Adobe Illustrator 21.0.2, SVG Export Plug-In . SVG Version: 6.00 Build 0)  -->
<svg version="1.1" id="Слой_1" xmlns="http://www.w3.org/2000/svg" xmlns:xlink="http://www.w3.org/1999/xlink" x="0px" y="0px"
	 viewBox="0 0 38.9 38.9" style="enable-background:new 0 0 38.9 38.9;" xml:space="preserve">
<style type="text/css">
	.st0{fill:#FFFFFF;fill-opacity:0.1;}
	.st1{fill:#26160D;}
	.st2{fill:#FFFFFF;fill-opacity:0.7;}
</style>
<title>buddhist-l</title>
<desc>Created with Sketch.</desc>
<g id="POI-Night">
	<g id="Artboard-1" transform="translate(-317.000000, -1026.000000)">
		<g id="buddhist-l" transform="translate(317.000000, 1026.000000)">
			<circle id="Oval-1-Copy-39" class="st0" cx="19.4" cy="19.4" r="19.4"/>
			<circle id="Oval-1-Copy-38" class="st1" cx="19.4" cy="19.4" r="18"/>
			<path id="Combined-Shape" class="st2" d="M20.2,8.6c5.4,0.4,9.7,4.7,10.1,10.1h1.4v1.4h-1.4c-0.4,5.4-4.7,9.7-10.1,10.1v1.4h-1.4
				v-1.4C13.3,29.9,9,25.6,8.6,20.2H7.2v-1.4h1.4C9,13.3,13.3,9,18.7,8.6V7.2h1.4V8.6z M18.7,10.1c-2,0.1-4,1-5.4,2.3L18,17
				c0.2-0.1,0.5-0.2,0.7-0.4V10.1z M20.2,10.1c2,0.1,4,1,5.4,2.3L20.9,17c-0.2-0.1-0.5-0.2-0.7-0.4V10.1z M20.2,28.8
				c2-0.1,4-1,5.4-2.3l-4.7-4.7c-0.2,0.1-0.5,0.2-0.7,0.4V28.8z M18.7,28.8c-2-0.1-4-1-5.4-2.3l4.7-4.7c0.2,0.1,0.5,0.2,0.7,0.4
				V28.8z M22.2,18.7h6.6c-0.1-2-1-4-2.3-5.4L22,18C22.1,18.2,22.2,18.5,22.2,18.7z M22.2,20.2h6.6c-0.1,2-1,4-2.3,5.4l-4.7-4.7
				C22.1,20.6,22.2,20.4,22.2,20.2z M16.9,20.9l-4.7,4.7c-1.2-1.4-2-3.4-2.3-5.4h6.6C16.7,20.4,16.8,20.6,16.9,20.9z M16.7,18.7
				h-6.6c0.1-2,1-4,2.3-5.4L17,18C16.8,18.2,16.7,18.5,16.7,18.7z M18.7,19.4c0-0.4,0.4-0.7,0.7-0.7c0.4,0,0.7,0.4,0.7,0.7
				c0,0.4-0.4,0.7-0.7,0.7C19.1,20.2,18.7,19.8,18.7,19.4z"/>
		</g>
	</g>
</g>
</svg>
