<svg height="24" viewBox="0 0 24 24" width="24"><g fill="none" fill-rule="evenodd"><circle cx="12" cy="12" fill="#fff" opacity=".4" r="12"/><circle cx="12" cy="12" fill="#4d361f" r="11"/><path d="m12.1932997 11.5333333h-.3865994l-.273367.273367v.3865994l.273367.273367h.3865994l.273367-.273367v-.3865994zm.273367-.6599663 2.8172012-2.81720124c-.777924-.64880852-1.7505178-1.07217203-2.8172012-1.16852203zm3.477108-2.15717538-2.8171417 2.81714168h3.9856962c-.0963691-1.0656607-.5194874-2.03863816-1.1685545-2.81714168zm-5.0704077 3.75047508h-3.9856962c.09636914 1.0656607.51948741 2.0386382 1.16855449 2.8171417zm-2.15723491 3.4771675c.77792397.6488086 1.75051781 1.0721721 2.81720121 1.1685221v-3.9857233zm4.41050091-3.4771675 2.8172012 2.8172012c.6488086-.777924 1.0721721-1.7505178 1.1685221-2.8172012zm2.1571754 3.477108-2.8171417-2.8171417v3.9856962c1.0656607-.0963691 2.0386382-.5194874 2.8171417-1.1685545zm-7.22764264-7.22764261c-.64880852.77792397-1.07217203 1.75051781-1.16852203 2.81720121h3.98572327zm.66002586-.6599068 2.81714168 2.81714171v-3.9856962c-1.0656607.09636914-2.03863816.51948741-2.81714168 1.16855449zm-2.76513364 3.47710801c.22709137-2.97816538 2.60928591-5.35527885 5.58227532-5.58225172v-.95108158h.9333334v.95105798c2.9781654.22709137 5.3552788 2.60928591 5.5822517 5.58227532h.9510816v.9333334h-.951058c-.2270914 2.9781654-2.6092859 5.3552788-5.5822753 5.5822517v.9510816h-.9333334v-.951058c-2.97816538-.2270914-5.35527885-2.6092859-5.58225172-5.5822753h-.95108158v-.9333334z" fill="#fff" opacity=".6"/></g></svg>