<?xml version="1.0" encoding="UTF-8" standalone="no"?>
<svg width="17px" height="17px" viewBox="0 0 17 17" version="1.1" xmlns="http://www.w3.org/2000/svg" xmlns:xlink="http://www.w3.org/1999/xlink">
    <!-- Generator: Sketch 3.8.3 (29802) - http://www.bohemiancoding.com/sketch -->
    <title>buddhist-s</title>
    <desc>Created with Sketch.</desc>
    <defs></defs>
    <g id="POI-NIght" stroke="none" stroke-width="1" fill="none" fill-rule="evenodd">
        <g id="buddhist-s">
            <circle id="Oval-1-Copy-43" fill-opacity="0.1" fill="#FFFFFF" cx="8.5" cy="8.5" r="8.5"></circle>
            <circle id="Oval-1-Copy-42" fill="#26160D" cx="8.5" cy="8.5" r="7.5"></circle>
            <path d="M12.0150051,5.69210173 C12.5332155,6.3397729 12.8762964,7.13324469 12.9724363,8 L14,8 L14,9 L12.9724702,9 C12.8763474,9.86753257 12.533093,10.6607387 12.0150681,11.3079613 L12.0355339,11.3284271 L11.3284271,12.0355339 L11.3078983,12.0150051 C10.6602271,12.5332155 9.86675531,12.8762964 9,12.9724363 L9,14 L8,14 L8,12.9724702 C7.13246743,12.8763474 6.33926126,12.533093 5.69203871,12.0150681 L5.67157288,12.0355339 L4.96446609,11.3284271 L4.98499495,11.3078983 C4.46678451,10.6602271 4.12370357,9.86675531 4.0275637,9 L3,9 L3,8 L4.02752977,8 C4.12365258,7.13246743 4.46690705,6.33926126 4.98493192,5.69203871 L4.96446609,5.67157288 L5.67157288,4.96446609 L5.69210173,4.98499495 C6.3397729,4.46678451 7.13324469,4.12370357 8,4.0275637 L8,3 L9,3 L9,4.02752977 C9.86753257,4.12365258 10.6607387,4.46690705 11.3079613,4.98493192 L11.3284271,4.96446609 L12.0355339,5.67157288 L12.0150051,5.69210173 Z M8.70710678,8 L8.29289322,8 L8,8.29289322 L8,8.70710678 L8.29289322,9 L8.70710678,9 L9,8.70710678 L9,8.29289322 L8.70710678,8 Z M9,7.29289322 L9,5.03552745 C9.59266786,5.12049313 10.1374388,5.3542309 10.5954237,5.69746952 L9,7.29289322 Z M11.3024689,6.40463784 C11.6458093,6.86290133 11.8794539,7.40780659 11.9644319,8 L9.70710678,8 L11.3024689,6.40463784 Z M7.29289322,9 L5.03556805,9 C5.12054612,9.59219341 5.35419071,10.1370987 5.69753106,10.5953622 L7.29289322,9 Z M6.40457631,11.3025305 C6.8625612,11.6457691 7.40733214,11.8795069 8,11.9644726 L8,9.70710678 L6.40457631,11.3025305 Z M9.70710678,9 L11.9644726,9 C11.8795069,9.59266786 11.6457691,10.1374388 11.3025305,10.5954237 L9.70710678,9 Z M10.5953622,11.3024689 C10.1370987,11.6458093 9.59219341,11.8794539 9,11.9644319 L9,9.70710678 L10.5953622,11.3024689 Z M5.69746952,6.40457631 C5.3542309,6.8625612 5.12049313,7.40733214 5.03552745,8 L7.29289322,8 L5.69746952,6.40457631 Z M6.40463784,5.69753106 C6.86290133,5.35419071 7.40780659,5.12054612 8,5.03556805 L8,7.29289322 L6.40463784,5.69753106 Z" id="Combined-Shape" fill-opacity="0.7" fill="#FFFFFF"></path>
        </g>
    </g>
</svg>