<svg width="28" height="28" viewBox="0 0 28 28">
  <g fill="none" fill-rule="evenodd">
    <circle cx="14" cy="14" r="14" fill="#FFF" opacity=".4"/>
    <circle cx="14" cy="14" r="13" fill="#4C351E"/>
    <path fill="#FFF" d="M14.4705882,6.95665147 C17.9938248,7.18910766 20.8109912,10.0124339 21.0433274,13.5294118 L22,13.5294118 L22,14.4705882 L21.0433485,14.4705882 C20.8108923,17.9938248 17.9875661,20.8109912 14.4705882,21.0433274 L14.4705882,22 L13.5294118,22 L13.5294118,21.0433485 C10.0061752,20.8108923 7.18900882,17.9875661 6.95667255,14.4705882 L6,14.4705882 L6,13.5294118 L6.95665147,13.5294118 C7.18910766,10.0061752 10.0124339,7.18900882 13.5294118,6.95667255 L13.5294118,6 L14.4705882,6 L14.4705882,6.95665147 Z M13.5294118,7.90025033 C12.1957359,8.00206982 10.9799606,8.53297738 10.0209613,9.35544901 L13.0425847,12.3770724 C13.1925161,12.288728 13.3559953,12.2205685 13.5294118,12.1763306 L13.5294118,7.90025033 Z M14.4705882,7.90022653 L14.4705882,12.1765012 C14.6436981,12.2207446 14.8071705,12.2888697 14.9572451,12.3772426 L17.9790992,9.35538857 C17.0208472,8.5332679 15.8056033,8.00202424 14.4705882,7.90022653 Z M14.4705882,20.0997497 C15.8042641,19.9979302 17.0200394,19.4670226 17.9790387,18.644551 L14.9574153,15.6229276 C14.8074839,15.711272 14.6440047,15.7794315 14.4705882,15.8236694 L14.4705882,20.0997497 Z M13.5294118,20.0997735 L13.5294118,15.8234988 C13.3563019,15.7792554 13.1928295,15.7111303 13.0427549,15.6227574 L10.0209008,18.6446114 C10.9791528,19.4667321 12.1943967,19.9979758 13.5294118,20.0997735 Z M15.8236694,13.5294118 L20.0997497,13.5294118 C19.9979302,12.1957359 19.4670226,10.9799606 18.644551,10.0209613 L15.6229276,13.0425847 C15.711272,13.1925161 15.7794315,13.3559953 15.8236694,13.5294118 Z M15.8234988,14.4705882 C15.7792554,14.6436981 15.7111303,14.8071705 15.6227574,14.9572451 L18.6446114,17.9790992 C19.4667321,17.0208472 19.9979758,15.8056033 20.0997735,14.4705882 L15.8234988,14.4705882 Z M12.3770724,14.9574153 C12.288728,14.8074839 12.2205685,14.6440047 12.1763306,14.4705882 L7.90025033,14.4705882 C8.00206982,15.8042641 8.53297738,17.0200394 9.35544901,17.9790387 L12.3770724,14.9574153 Z M12.1765012,13.5294118 C12.2207446,13.3563019 12.2888697,13.1928295 12.3772426,13.0427549 L9.35538857,10.0209008 C8.5332679,10.9791528 8.00202424,12.1943967 7.90022653,13.5294118 L12.1765012,13.5294118 Z M13.5294118,14 C13.5294118,14.2522978 13.7401013,14.4705882 14,14.4705882 C14.2522978,14.4705882 14.4705882,14.2598987 14.4705882,14 C14.4705882,13.7477022 14.2598987,13.5294118 14,13.5294118 C13.7477022,13.5294118 13.5294118,13.7401013 13.5294118,14 Z" opacity=".6"/>
  </g>
</svg>
