<?xml version="1.0" encoding="UTF-8" standalone="no"?>
<svg width="17px" height="17px" viewBox="0 0 17 17" version="1.1" xmlns="http://www.w3.org/2000/svg" xmlns:xlink="http://www.w3.org/1999/xlink">
    <!-- Generator: Sketch 3.8.3 (29802) - http://www.bohemiancoding.com/sketch -->
    <title>bus-s</title>
    <desc>Created with Sketch.</desc>
    <defs>
        <rect id="path-1" x="0" y="0" width="15" height="15" rx="1"></rect>
    </defs>
    <g id="POI-NIght" stroke="none" stroke-width="1" fill="none" fill-rule="evenodd">
        <g id="bus-s" transform="translate(1.000000, 1.000000)">
            <g id="Rectangle-211">
                <use fill="#3C3E38" xlink:href="#path-1"></use>
                <use fill="#032C4D" xlink:href="#path-1"></use>
            </g>
            <path d="M8.05000906,12 L3,12 L3,6.65149687 L3,4.99668948 C3,3.89394833 3.90195036,3 5.0085302,3 L15,3 L15,5 L14.0093689,5 C13.4433532,5 13,5.44724809 13,5.99895656 L13,7.00104344 C13,7.55733967 13.4519098,8 14.0093689,8 L15,8 L15,12 L12.9499909,12 C12.9827849,11.838445 13,11.6712329 13,11.5 C13,10.1192881 11.8807119,9 10.5,9 C9.11928813,9 8,10.1192881 8,11.5 C8,11.6712329 8.01721513,11.838445 8.05000906,12 Z M8,5.99895656 C8,5.44724809 8.44335318,5 9.0093689,5 L10.9906311,5 C11.5480902,5 12,5.44266033 12,5.99895656 L12,7.00104344 C12,7.55275191 11.5566468,8 10.9906311,8 L9.0093689,8 C8.45190985,8 8,7.55733967 8,7.00104344 L8,5.99895656 Z M4,5.49100518 C4,5.21983051 4.2157526,5 4.49538898,5 L6.50461102,5 C6.7782068,5 7,5.22788048 7,5.49100518 L7,11 L4,11 L4,5.49100518 Z M10.5,13 C11.3284271,13 12,12.3284271 12,11.5 C12,10.6715729 11.3284271,10 10.5,10 C9.67157288,10 9,10.6715729 9,11.5 C9,12.3284271 9.67157288,13 10.5,13 Z" id="Mask" fill-opacity="0.7" fill="#FFFFFF"></path>
        </g>
    </g>
</svg>