<?xml version="1.0" encoding="UTF-8" standalone="no"?>
<svg width="27px" height="27px" viewBox="0 0 27 27" version="1.1" xmlns="http://www.w3.org/2000/svg" xmlns:xlink="http://www.w3.org/1999/xlink" xmlns:sketch="http://www.bohemiancoding.com/sketch/ns">
    <!-- Generator: Sketch 3.4.2 (15857) - http://www.bohemiancoding.com/sketch -->
    <title>bus-l</title>
    <desc>Created with Sketch.</desc>
    <defs></defs>
    <g id="Transport" stroke="none" stroke-width="1" fill="none" fill-rule="evenodd" sketch:type="MSPage">
        <g id="bus-l" sketch:type="MSLayerGroup">
            <circle id="Oval-1-Copy-39" fill="#FFFFFF" sketch:type="MSShapeGroup" cx="13.5" cy="13.5" r="13.5"></circle>
            <circle id="Oval-1-Copy-38" fill="#133655" sketch:type="MSShapeGroup" cx="13.5" cy="13.5" r="12.5"></circle>
            <path d="M24.1791951,7 L7.99456145,7 C6.90234375,7 6,7.89111747 6,8.99036657 L6,14.6514969 L5.87738037,14.7172421 C5.39522648,14.9757597 5,15.6350152 5,16.1868445 L5,20.0008247 C5,20.5439162 5.44881738,21 6.00246167,21 L15.0354444,21 C15.012086,20.8366985 15,20.6697607 15,20.5 C15,18.5670034 16.5670034,17 18.5,17 C20.4329966,17 22,18.5670034 22,20.5 C22,20.6697607 21.987914,20.8366985 21.9645556,21 L23.5009155,21 C24.9767568,19.0351697 25.8870676,16.6212813 25.9901828,14 L25.0029293,14 C24.4490268,14 24,13.5562834 24,13.0001925 L24,9.99980749 C24,9.44762906 24.4378814,9 25.0029293,9 L25.1655114,9 C24.8956127,8.30079625 24.5646621,7.63195111 24.1791951,7 Z M15,9.99980749 C15,9.44762906 15.4378814,9 16.0029293,9 L20.9970707,9 C21.5509732,9 22,9.44371665 22,9.99980749 L22,13.0001925 C22,13.5523709 21.5621186,14 20.9970707,14 L16.0029293,14 C15.4490268,14 15,13.5562834 15,13.0001925 L15,9.99980749 Z M8,9.99539757 C8,9.44565467 8.44371665,9 8.99980749,9 L12.0001925,9 C12.5523709,9 13,9.4556644 13,9.99539757 L13,19 L8,19 L8,9.99539757 Z M18.5,23 C19.8807119,23 21,21.8807119 21,20.5 C21,19.1192881 19.8807119,18 18.5,18 C17.1192881,18 16,19.1192881 16,20.5 C16,21.8807119 17.1192881,23 18.5,23 Z" id="Mask" opacity="0.7" fill="#FFFFFF" sketch:type="MSShapeGroup"></path>
        </g>
    </g>
</svg>