<svg version="1.1" viewBox="0 0 24 24" xmlns="http://www.w3.org/2000/svg">
 <title>bus-m</title>
 <g id="Page-2:-Night" fill="none" fill-rule="evenodd" opacity=".6">
  <g id="bus-m">
   <rect id="Rectangle" width="24" height="24" rx="2.5" fill="#fff" fill-rule="nonzero"/>
   <rect id="Rectangle" x="1" y="1" width="22" height="22" rx="2" fill="#2F6499" fill-rule="nonzero"/>
   <g id="bus" transform="translate(4 4)">
    <polygon id="Path" points="0 0 16 0 16 16 0 16"/>
    <circle id="Oval" cx="4" cy="11.333" r="1.3333" stroke="#fff" stroke-linecap="round" stroke-linejoin="round" stroke-width="1.5"/>
    <circle id="Oval" cx="12" cy="11.333" r="1.3333" stroke="#fff" stroke-linecap="round" stroke-linejoin="round" stroke-width="1.5"/>
    <path id="Shape" d="m2.6667 11.333h-1.3333v-7.3333c0-0.36819 0.29848-0.66667 0.66667-0.66667h9.3333c1.8409 0 3.3333 2.0893 3.3333 4.6667v3.3333h-1.3333m-2.6667 0h-5.3333" stroke="#fff" stroke-linecap="round" stroke-linejoin="round" stroke-width="1.5"/>
    <polyline id="Path" points="10.667 3.3333 11.667 8 14.667 8" stroke="#fff" stroke-linecap="round" stroke-linejoin="round" stroke-width="1.5"/>
    <line id="Path" x1="1.3333" x2="11.333" y1="6.6667" y2="6.6667" stroke="#fff" stroke-linecap="round" stroke-linejoin="round" stroke-width="1.5"/>
    <line id="Path" x1="4.6667" x2="4.6667" y1="3.3333" y2="6.6667" stroke="#fff" stroke-linecap="round" stroke-linejoin="round" stroke-width="1.5"/>
    <line id="Path" x1="8" x2="8" y1="3.3333" y2="6.6667" stroke="#fff" stroke-linecap="round" stroke-linejoin="round" stroke-width="1.5"/>
   </g>
  </g>
 </g>
</svg>
