<?xml version="1.0" encoding="UTF-8" standalone="no"?>
<svg width="17px" height="17px" viewBox="0 0 17 17" version="1.1" xmlns="http://www.w3.org/2000/svg" xmlns:xlink="http://www.w3.org/1999/xlink" xmlns:sketch="http://www.bohemiancoding.com/sketch/ns">
    <!-- Generator: Sketch 3.4.2 (15857) - http://www.bohemiancoding.com/sketch -->
    <title>bus-s</title>
    <desc>Created with Sketch.</desc>
    <defs></defs>
    <g id="Transport" stroke="none" stroke-width="1" fill="none" fill-rule="evenodd" sketch:type="MSPage">
        <g id="bus-s" sketch:type="MSLayerGroup">
            <circle id="Oval-1-Copy-43" opacity="0" fill="#FFFFFF" sketch:type="MSShapeGroup" cx="8.5" cy="8.5" r="8.5"></circle>
            <circle id="Oval-1-Copy-42" fill="#133655" sketch:type="MSShapeGroup" cx="8.5" cy="8.5" r="7.5"></circle>
            <path d="M14.5005493,13 L13.9499909,13 C13.9827849,12.838445 14,12.6712329 14,12.5 C14,11.1192881 12.8807119,10 11.5,10 C10.1192881,10 9,11.1192881 9,12.5 C9,12.6712329 9.01721513,12.838445 9.05000906,13 L4,13 L4,7.65149687 L4,5.99668948 C4,4.89394833 4.89821238,4 5.99079514,4 L14.5005493,4 C14.9532572,4.60270312 15.3172777,5.27582819 15.5732357,6 L15.0093689,6 C14.4433532,6 14,6.44724809 14,6.99895656 L14,8.00104344 C14,8.55733967 14.4519098,9 15.0093689,9 L15.9835977,9 C15.8851642,10.495487 15.3483904,11.8712446 14.5005493,13 Z M9,6.99895656 C9,6.44724809 9.44335318,6 10.0093689,6 L11.9906311,6 C12.5480902,6 13,6.44266033 13,6.99895656 L13,8.00104344 C13,8.55275191 12.5566468,9 11.9906311,9 L10.0093689,9 C9.45190985,9 9,8.55733967 9,8.00104344 L9,6.99895656 Z M5,6.49100518 C5,6.21983051 5.2157526,6 5.49538898,6 L7.50461102,6 C7.7782068,6 8,6.22788048 8,6.49100518 L8,12 L5,12 L5,6.49100518 Z M11.5,14 C12.3284271,14 13,13.3284271 13,12.5 C13,11.6715729 12.3284271,11 11.5,11 C10.6715729,11 10,11.6715729 10,12.5 C10,13.3284271 10.6715729,14 11.5,14 Z" id="Mask" opacity="0.7" fill="#FFFFFF" sketch:type="MSShapeGroup"></path>
        </g>
    </g>
</svg>