<?xml version="1.0" encoding="UTF-8"?>
<svg version="1.1" viewBox="0 0 16 16" xml:space="preserve" xmlns="http://www.w3.org/2000/svg">
 <g opacity="1">
  <rect id="Rectangle" width="16" height="16" rx="2.5" fill="#000" opacity=".6" />
  <rect x=".66667" y=".66667" width="14.667" height="14.667" rx="2" fill="#2F6499" />
  <path d="m3.9997 4.3897c-0.51566 0-0.94397 0.42831-0.94397 0.94397v4.8878c2.7e-5 0.27612 0.22386 0.49996 0.49998 0.49998h0.48306c0.20293 0.51759 0.70904 0.8893 1.2942 0.8893 0.58475 0 1.091-0.37099 1.2942-0.88797h2.7447c0.20322 0.51701 0.70944 0.88797 1.2942 0.88797s1.091-0.37099 1.2942-0.88797h0.48306c0.27612-2.8e-5 0.49996-0.22386 0.49998-0.49998v-2.2122c4.7e-4 -0.00347 9.33e-4 -0.00694 0.0013-0.01042-5e-5 -0.016526-9.33e-4 -0.033039-0.0026-0.049478-0.009226-0.93623-0.27831-1.7919-0.74214-2.4413-0.47204-0.66086-1.175-1.1198-1.9778-1.1198zm0.05598 0.90464h1.2422v1.9143h-1.2422zm2.1692 0h1.2747v1.9143h-1.2747zm2.1968 0h0.95157l0.39061 1.9143h-1.3422zm1.7906 0c1.4777 0.23158 1.8643 1.7379 1.9112 2.6732l-1.275-0.015579zm-4.8793 4.3412c0.33308 0 0.58722 0.25284 0.58722 0.58592 0 0.33308-0.25414 0.58722-0.58722 0.58722-0.33308 0-0.58722-0.25414-0.58722-0.58722s0.25414-0.58592 0.58722-0.58592zm5.3331 0c0.33308 0 0.58722 0.25284 0.58722 0.58592 0 0.33308-0.25414 0.58722-0.58722 0.58722-0.33308 0-0.58722-0.25414-0.58722-0.58722s0.25414-0.58592 0.58722-0.58592z" fill="#000" />
 </g>
</svg>
