<?xml version="1.0" encoding="UTF-8" standalone="no"?>
<svg width="23px" height="23px" viewBox="0 0 23 23" version="1.1" xmlns="http://www.w3.org/2000/svg" xmlns:xlink="http://www.w3.org/1999/xlink" xmlns:sketch="http://www.bohemiancoding.com/sketch/ns">
    <!-- Generator: Sketch 3.4.2 (15857) - http://www.bohemiancoding.com/sketch -->
    <title>bus-m</title>
    <desc>Created with Sketch.</desc>
    <defs></defs>
    <g id="Transport" stroke="none" stroke-width="1" fill="none" fill-rule="evenodd" sketch:type="MSPage">
        <g id="bus-m" sketch:type="MSLayerGroup">
            <circle id="Oval-1-Copy-41" fill="#FFFFFF" sketch:type="MSShapeGroup" cx="11.5" cy="11.5" r="11.5"></circle>
            <circle id="Oval-1-Copy-40" fill="#133655" sketch:type="MSShapeGroup" cx="11.5" cy="11.5" r="10.5"></circle>
            <path d="M20.4460025,6 L6.99079514,6 C5.89821238,6 5,6.89112225 5,7.99037724 L5,10.9638276 L4.87738037,11.0295729 C4.39522648,11.2880905 4,11.9516483 4,12.5087848 L4,15.9912152 C4,16.5499119 4.44715386,17 4.99874609,17 L12.0354444,17 C12.012086,16.8366985 12,16.6697607 12,16.5 C12,14.5670034 13.5670034,13 15.5,13 C17.4329966,13 19,14.5670034 19,16.5 C19,16.6697607 18.987914,16.8366985 18.9645556,17 L20.4460025,17 C21.3495828,15.533412 21.9026157,13.8278132 21.9883049,12 L21.0029293,12 C20.4490268,12 20,11.5566468 20,10.9906311 L20,9.0093689 C20,8.45190985 20.4378814,8 21.0029293,8 L21.40253,8 C21.1536409,7.29582798 20.8317689,6.62613174 20.4460025,6 L20.4460025,6 Z M13,9.0093689 C13,8.45190985 13.4437166,8 13.9998075,8 L17.0001925,8 C17.5523709,8 18,8.44335318 18,9.0093689 L18,10.9906311 C18,11.5480902 17.5562834,12 17.0001925,12 L13.9998075,12 C13.4476291,12 13,11.5566468 13,10.9906311 L13,9.0093689 L13,9.0093689 Z M7,8.99703014 C7,8.4463856 7.44335318,8 8.0093689,8 L9.9906311,8 C10.5480902,8 11,8.45303631 11,8.99703014 L11,16 L7,16 L7,8.99703014 L7,8.99703014 Z M15.5,19 C16.8807119,19 18,17.8807119 18,16.5 C18,15.1192881 16.8807119,14 15.5,14 C14.1192881,14 13,15.1192881 13,16.5 C13,17.8807119 14.1192881,19 15.5,19 L15.5,19 Z" id="Mask" opacity="0.7" fill="#FFFFFF" sketch:type="MSShapeGroup"></path>
        </g>
    </g>
</svg>