<?xml version="1.0" encoding="UTF-8" standalone="no"?>
<svg width="23px" height="23px" viewBox="0 0 23 23" version="1.1" xmlns="http://www.w3.org/2000/svg" xmlns:xlink="http://www.w3.org/1999/xlink">
    <!-- Generator: Sketch 3.8.3 (29802) - http://www.bohemiancoding.com/sketch -->
    <title>bus-m</title>
    <desc>Created with Sketch.</desc>
    <defs>
        <rect id="path-1" x="0" y="0" width="21" height="21" rx="2"></rect>
    </defs>
    <g id="POI-NIght" stroke="none" stroke-width="1" fill="none" fill-rule="evenodd">
        <g id="bus-m" transform="translate(1.000000, 1.000000)">
            <g id="Rectangle-211">
                <use fill="#3C3E38" xlink:href="#path-1"></use>
                <use fill="#032C4D" xlink:href="#path-1"></use>
            </g>
            <path d="M5.99079514,5 C4.89821238,5 4,5.89112225 4,6.99037724 L4,9.9638276 L3.87738037,10.0295729 C3.39522648,10.2880905 3,10.9516483 3,11.5087848 L3,14.9912152 C3,15.5499119 3.44715386,16 3.99874609,16 L11.0354444,16 C11.012086,15.8366985 11,15.6697607 11,15.5 C11,13.5670034 12.5670034,12 14.5,12 C16.4329966,12 18,13.5670034 18,15.5 C18,15.6697607 17.987914,15.8366985 17.9645556,16 L21,16 L21,11 L20.0029293,11 C19.4490268,11 19,10.5566468 19,9.9906311 L19,8.0093689 C19,7.45190985 19.4378814,7 20.0029293,7 L21,7 L21,5 L5.99079514,5 Z M12,8.0093689 C12,7.45190985 12.4437166,7 12.9998075,7 L16.0001925,7 C16.5523709,7 17,7.44335318 17,8.0093689 L17,9.9906311 C17,10.5480902 16.5562834,11 16.0001925,11 L12.9998075,11 C12.4476291,11 12,10.5566468 12,9.9906311 L12,8.0093689 L12,8.0093689 Z M6,7.99703014 C6,7.4463856 6.44335318,7 7.0093689,7 L8.9906311,7 C9.5480902,7 10,7.45303631 10,7.99703014 L10,15 L6,15 L6,7.99703014 L6,7.99703014 Z M14.5,18 C15.8807119,18 17,16.8807119 17,15.5 C17,14.1192881 15.8807119,13 14.5,13 C13.1192881,13 12,14.1192881 12,15.5 C12,16.8807119 13.1192881,18 14.5,18 L14.5,18 Z" id="Mask" fill-opacity="0.7" fill="#FFFFFF"></path>
        </g>
    </g>
</svg>