<?xml version="1.0" encoding="UTF-8" standalone="no"?>
<svg width="27px" height="27px" viewBox="0 0 27 27" version="1.1" xmlns="http://www.w3.org/2000/svg" xmlns:xlink="http://www.w3.org/1999/xlink">
    <!-- Generator: Sketch 3.8.3 (29802) - http://www.bohemiancoding.com/sketch -->
    <title>bus-l</title>
    <desc>Created with Sketch.</desc>
    <defs>
        <rect id="path-1" x="0" y="0" width="25" height="25" rx="3"></rect>
    </defs>
    <g id="POI-NIght" stroke="none" stroke-width="1" fill="none" fill-rule="evenodd">
        <g id="bus-l" transform="translate(1.000000, 1.000000)">
            <g id="Rectangle-211">
                <use fill="#3C3E38" xlink:href="#path-1"></use>
                <use fill="#032C4D" xlink:href="#path-1"></use>
            </g>
            <path d="M14.0354444,20 L4.99874609,20 C4.44715386,20 4,19.5439162 4,19.0008247 L4,15.1868445 C4,14.6350152 4.39522648,13.9757597 4.87738037,13.7172421 L5,13.6514969 L5,7.99036657 C5,6.89111747 5.89821238,6 6.99079514,6 L25,6 L25,8 L24.0029293,8 C23.4378814,8 23,8.44762906 23,8.99980749 L23,12.0001925 C23,12.5562834 23.4490268,13 24.0029293,13 L25,13 L25,20 L20.9645556,20 C20.987914,19.8366985 21,19.6697607 21,19.5 C21,17.5670034 19.4329966,16 17.5,16 C15.5670034,16 14,17.5670034 14,19.5 C14,19.6697607 14.012086,19.8366985 14.0354444,20 Z M14,8.99980749 C14,8.44762906 14.4378814,8 15.0029293,8 L19.9970707,8 C20.5509732,8 21,8.44371665 21,8.99980749 L21,12.0001925 C21,12.5523709 20.5621186,13 19.9970707,13 L15.0029293,13 C14.4490268,13 14,12.5562834 14,12.0001925 L14,8.99980749 Z M7,8.99539757 C7,8.44565467 7.44371665,8 7.99980749,8 L11.0001925,8 C11.5523709,8 12,8.4556644 12,8.99539757 L12,18 L7,18 L7,8.99539757 Z M17.5,22 C18.8807119,22 20,20.8807119 20,19.5 C20,18.1192881 18.8807119,17 17.5,17 C16.1192881,17 15,18.1192881 15,19.5 C15,20.8807119 16.1192881,22 17.5,22 Z" id="Mask" fill-opacity="0.7" fill="#FFFFFF"></path>
        </g>
    </g>
</svg>