<svg width="24" height="24" viewBox="0 0 24 24">
  <g fill="none" fill-rule="evenodd">
    <circle cx="12" cy="12" r="12" fill="#FFF" opacity=".4"/>
    <circle cx="12" cy="12" r="11" fill="#4E3551"/>
    <path fill="#FFF" d="M19,9.41082164 L15.5583845,6 L8.73637915,12.7627884 L12.1779946,16.1736101 C13.6965726,15.6200068 15.1260954,14.751898 16.3450395,13.542615 C17.565839,12.3342517 18.4424768,10.9171376 19,9.41082164 L19,9.41082164 Z M14.5296105,9.11470825 C14.1659682,8.75514199 14.1659682,8.17395049 14.5296105,7.81530383 C14.89047,7.45573757 15.4776782,7.45665718 15.8403929,7.81530383 C16.2040353,8.17487009 16.2040353,8.7569812 15.8403929,9.11470825 C15.4804612,9.47427451 14.89047,9.4733549 14.5296105,9.11470825 L14.5296105,9.11470825 Z M8.89222589,14.6912039 L7.84211573,13.6511286 L5.32630411,16.1441827 C4.89123196,16.5745587 4.89123196,17.2743794 5.32630411,17.7047554 C5.76137625,18.1351314 6.41259297,18.0900707 6.78087366,17.6017595 L8.89222589,14.6912039 L8.89222589,14.6912039 Z" opacity=".6"/>
  </g>
</svg>
