<?xml version="1.0" encoding="UTF-8" standalone="no"?>
<svg width="23px" height="23px" viewBox="0 0 23 23" version="1.1" xmlns="http://www.w3.org/2000/svg" xmlns:xlink="http://www.w3.org/1999/xlink" xmlns:sketch="http://www.bohemiancoding.com/sketch/ns">
    <!-- Generator: Sketch 3.4.2 (15857) - http://www.bohemiancoding.com/sketch -->
    <title>butcher-m</title>
    <desc>Created with Sketch.</desc>
    <defs>
        <path id="path-1" d="M22,11.5 C22,17.299 17.299,22 11.5,22 C5.701,22 1,17.299 1,11.5 C1,5.701 5.701,1 11.5,1 C17.299,1 22,5.701 22,11.5 L22,11.5 Z"></path>
    </defs>
    <g id="POI" stroke="none" stroke-width="1" fill="none" fill-rule="evenodd" sketch:type="MSPage">
        <g id="butcher-m" sketch:type="MSLayerGroup">
            <path d="M11.5,23 C5.159,23 0,17.841 0,11.5 C0,5.159 5.159,0 11.5,0 C17.841,0 23,5.159 23,11.5 C23,17.841 17.841,23 11.5,23 L11.5,23 Z" id="Shape" opacity="0" fill="#FFFFFF" sketch:type="MSShapeGroup"></path>
            <g id="Shape">
                <use fill="#33332E" fill-rule="evenodd" sketch:type="MSShapeGroup" xlink:href="#path-1"></use>
                <use fill="none" xlink:href="#path-1"></use>
            </g>
            <path d="M19.113,8.029 L15.403,4.32 L8.049,11.674 L11.759,15.383 C13.396,14.781 14.937,13.837 16.251,12.522 C17.567,11.208 18.512,9.667 19.113,8.029 L19.113,8.029 Z M14.294,7.707 C13.902,7.316 13.902,6.684 14.294,6.294 C14.683,5.903 15.316,5.904 15.707,6.294 C16.099,6.685 16.099,7.318 15.707,7.707 C15.319,8.098 14.683,8.097 14.294,7.707 L14.294,7.707 Z M8.217,13.771 L7.085,12.64 L4.373,15.351 C3.904,15.819 3.904,16.58 4.373,17.048 C4.842,17.516 5.544,17.467 5.941,16.936 L8.217,13.771 L8.217,13.771 Z" id="Shape" opacity="0.7" fill="#FFFFFF" sketch:type="MSShapeGroup"></path>
        </g>
    </g>
</svg>