<svg height="24" viewBox="0 0 24 24" width="24"><g fill="none" fill-rule="evenodd"><circle cx="12" cy="12" fill="#fff" opacity=".4" r="12"/><circle cx="12" cy="12" fill="#4e3552" r="11"/><path d="m19 9.41082164-3.4416155-3.41082164-6.82200535 6.7627884 3.44161545 3.4108217c1.518578-.5536033 2.9481008-1.4217121 4.1670449-2.6309951 1.2207995-1.2083633 2.0974373-2.6254774 2.6549605-4.13179336zm-4.4703895-.29611339c-.3636423-.35956626-.3636423-.94075776 0-1.29940442.3608595-.35956626.9480677-.35864665 1.3107824 0 .3636424.35956626.3636424.94167737 0 1.29940442-.3599317.35956626-.9499229.35864665-1.3107824 0zm-5.63738461 5.57649565-1.05011016-1.0400753-2.51581162 2.4930541c-.43507215.430376-.43507215 1.1301967 0 1.5605727.43507214.430376 1.08628886.3853153 1.45456955-.1029959z" fill="#fff" opacity=".6"/></g></svg>