<svg width="16" height="16" viewBox="0 0 16 16">
  <g fill="none" fill-rule="evenodd">
    <rect width="16" height="16" fill="#FFF" opacity=".4" rx="1.5"/>
    <rect width="14" height="14" x="1" y="1" fill="#1F4366" rx="1"/>
    <path fill="#FFF" d="M9.93798452,4.29457364 L9,6 L7.7,6 L8.52713179,4.49612404 L5,5.00000001 L5,4.00000001 L12,3 L12,4 L9.93798452,4.29457364 Z M8,7.14285714 L7,7.14285714 L6,7.71428571 L6,9.42857143 L8,9.42857143 L8,7.14285714 Z M9,7.14285714 L9,9.42857143 L11,9.42857143 L11,7.71428571 L10,7.14285714 L9,7.14285714 Z M5.69730425,6.61157772 C6.13689184,6.27665383 6.95190985,6 7.5093689,6 L9.4906311,6 C10.0566468,6 10.8593791,6.27381267 11.3026958,6.61157772 L11.1973042,6.53127943 C11.6368918,6.86620331 12,7.59500869 12,8.15276589 L12,12.4285714 C12,12.7142857 11.75,13 11.5,13 L10.25,13 L9,13 L6.75,13 L5.5,13 C5.25,13 5,12.7142857 5,12.4285714 L5,8.15276589 C5,7.59491021 5.35937913,6.86904447 5.80269575,6.53127943 L5.69730425,6.61157772 Z" opacity=".6"/>
  </g>
</svg>
