<?xml version="1.0" encoding="UTF-8" standalone="no"?>
<svg
   width="16"
   height="16"
   viewBox="0 0 16 16"
   version="1.1"
   id="svg10"
   sodipodi:docname="cable-car-s.svg"
   xml:space="preserve"
   inkscape:export-filename="../../../../../../../Bilder/om/cable-car/cable-car-s.svg"
   inkscape:export-xdpi="96"
   inkscape:export-ydpi="96"
   inkscape:version="1.2 (dc2aedaf03, 2022-05-15)"
   xmlns:inkscape="http://www.inkscape.org/namespaces/inkscape"
   xmlns:sodipodi="http://sodipodi.sourceforge.net/DTD/sodipodi-0.dtd"
   xmlns="http://www.w3.org/2000/svg"
   xmlns:svg="http://www.w3.org/2000/svg"><defs
     id="defs14" /><sodipodi:namedview
     id="namedview12"
     pagecolor="#ffffff"
     bordercolor="#000000"
     borderopacity="0.25"
     inkscape:showpageshadow="2"
     inkscape:pageopacity="0.0"
     inkscape:pagecheckerboard="0"
     inkscape:deskcolor="#d1d1d1"
     showgrid="false"
     inkscape:zoom="64.1875"
     inkscape:cx="7.9922103"
     inkscape:cy="8.0155794"
     inkscape:window-width="2560"
     inkscape:window-height="1371"
     inkscape:window-x="0"
     inkscape:window-y="0"
     inkscape:window-maximized="1"
     inkscape:current-layer="svg10" /><title
     id="title2">cable-car-s</title><g
     id="Page-1"
     stroke="none"
     stroke-width="1"
     fill="none"
     fill-rule="evenodd"
     inkscape:label="Page-2:-Night"
     style="opacity:0.6"><g
       id="cable-car-s"
       fill-rule="nonzero"><rect
         id="Rectangle"
         fill="#ffffff"
         opacity="0.6"
         x="0"
         y="0"
         width="16"
         height="16"
         rx="2.5" /><rect
         id="rect5"
         fill="#2f6499"
         x="0.66666669"
         y="0.66666669"
         width="14.666667"
         height="14.666667"
         rx="2" /><path
         d="M 3.5,6.9251012 7.55,5.8092105 V 7.0344129 H 5.75 A 0.9,0.91093117 0 0 0 4.85,7.9453441 V 11.589069 A 0.9,0.91093117 0 0 0 5.75,12.5 h 4.5 a 0.9,0.91093117 0 0 0 0.9,-0.910931 V 7.9453441 A 0.9,0.91093117 0 0 0 10.25,7.0344129 H 8.45 V 5.5587045 L 12.5,4.4428138 V 3.5 l -9,2.4822874 z M 7.55,7.9453441 V 9.3117409 H 5.75 V 7.9453441 Z m 2.7,0 V 9.3117409 H 8.45 V 7.9453441 Z"
         id="path243"
         style="fill:#ffffff;fill-opacity:1;stroke-width:0.452724" /></g></g></svg>
