<svg version="1.1" viewBox="0 0 24 24" xml:space="preserve" xmlns="http://www.w3.org/2000/svg"><title>cable-car-m</title><g fill="none" fill-rule="evenodd" opacity=".6"><g id="cable-car-m" fill-rule="nonzero"><rect id="Rectangle" width="24" height="24" rx="2.5" fill="#fff" opacity=".6"/><rect x="1" y="1" width="22" height="22" rx="2" fill="#2f6499"/><path d="m5 10.328 6.3-1.7358v1.9059h-2.8a1.4 1.417 0 0 0-1.4 1.417v5.668a1.4 1.417 0 0 0 1.4 1.417h7a1.4 1.417 0 0 0 1.4-1.417v-5.668a1.4 1.417 0 0 0-1.4-1.417h-2.8v-2.2955l6.3-1.7358v-1.4666l-14 3.8613zm6.3 1.587v2.1255h-2.8v-2.1255zm4.2 0v2.1255h-2.8v-2.1255z" fill="#fff" stroke-width=".70424"/></g></g></svg>
