<?xml version="1.0" encoding="UTF-8" standalone="no"?>
<svg width="27px" height="27px" viewBox="0 0 27 27" version="1.1" xmlns="http://www.w3.org/2000/svg" xmlns:xlink="http://www.w3.org/1999/xlink" xmlns:sketch="http://www.bohemiancoding.com/sketch/ns">
    <!-- Generator: Sketch 3.4.2 (15857) - http://www.bohemiancoding.com/sketch -->
    <title>cable-car-l</title>
    <desc>Created with Sketch.</desc>
    <defs></defs>
    <g id="Transport" stroke="none" stroke-width="1" fill="none" fill-rule="evenodd" sketch:type="MSPage">
        <g id="cable-car-l" sketch:type="MSLayerGroup">
            <circle id="Oval-1-Copy-39" opacity="0" fill="#FFFFFF" sketch:type="MSShapeGroup" cx="13.5" cy="13.5" r="13.5"></circle>
            <path d="M13.5,26 C20.4035594,26 26,20.4035594 26,13.5 C26,6.59644063 20.4035594,1 13.5,1 C6.59644063,1 1,6.59644063 1,13.5 C1,20.4035594 6.59644063,26 13.5,26 Z" id="Oval-1-Copy-38" fill="#133655" sketch:type="MSShapeGroup"></path>
            <path d="M11.0029293,10 C10.4490268,10 9.63214111,10.2452393 9.16433275,10.5571115 L7.83566725,11.4428885 C7.37414097,11.7505727 7,12.4556644 7,12.9953976 L7,22 C7,22.5 7.5,23 8,23 L10.5,23 L14,23 L16.5,23 L19,23 C19.5,23 20,22.5 20,22 L20,12.9953976 C20,12.4456547 19.6321411,11.7547607 19.1643327,11.4428885 L17.8356673,10.5571115 C17.374141,10.2494273 16.5621186,10 15.9970707,10 L11.0029293,10 Z M10.1052949,12.4473525 C10.5994269,12.2002865 11.4437166,12 11.9998075,12 L15.0001925,12 C15.5523709,12 16.4047298,12.2023649 16.8947051,12.4473525 L17.1052949,12.5526475 C17.5994269,12.7997135 18,13.4433532 18,14.0093689 L18,15.9906311 C18,16.5480902 17.5536886,17 17.0024554,17 L9.99754465,17 C9.44661595,17 9,16.5566468 9,15.9906311 L9,14.0093689 C9,13.4519098 9.40472984,12.7976351 9.89470506,12.5526475 L10.1052949,12.4473525 Z M13,12 L14,12 L14,17 L13,17 L13,12 Z" id="path24859-copy" opacity="0.7" fill="#FFFFFF" sketch:type="MSShapeGroup"></path>
            <path d="M14.357121,5.91071975 L15.4619459,7.99771849 L13.6126744,8 L12.7108116,6.32229711 L6,8 L6,6 L18,3 L18,5 L14.357121,5.91071975 Z M13.6126744,8 L15.4619459,8.00228151 L13.875,11 L12,11 L13.6126744,8 Z" id="Path-Copy" opacity="0.7" fill="#FFFFFF" sketch:type="MSShapeGroup"></path>
        </g>
    </g>
</svg>