<?xml version="1.0" encoding="UTF-8" standalone="no"?>
<svg width="23px" height="23px" viewBox="0 0 23 23" version="1.1" xmlns="http://www.w3.org/2000/svg" xmlns:xlink="http://www.w3.org/1999/xlink">
    <!-- Generator: Sketch 3.8.3 (29802) - http://www.bohemiancoding.com/sketch -->
    <title>cable-car-m</title>
    <desc>Created with Sketch.</desc>
    <defs>
        <rect id="path-1" x="0" y="0" width="21" height="21" rx="2"></rect>
    </defs>
    <g id="POI-NIght" stroke="none" stroke-width="1" fill="none" fill-rule="evenodd">
        <g id="cable-car-m" transform="translate(1.000000, 1.000000)">
            <g id="Rectangle-211">
                <use fill="#3C3E38" xlink:href="#path-1"></use>
                <use fill="#032C4D" xlink:href="#path-1"></use>
            </g>
            <path d="M7.98774308,7 C7.43572034,7 6.63187106,7.2689333 6.18898655,7.60317655 L5.79423602,7.90109328 C5.35283296,8.2342185 4.99727577,8.96088415 5.00001573,9.5118661 L5.03723909,16.9971534 C5.05254779,17.4985767 5.55085089,18 6.04915399,18 L15.0186098,18 C15.5169129,18 16.0077475,17.6699559 15.9999073,16.9971534 L15.962684,9.5118661 C15.9599166,8.95538605 15.6013269,8.23533654 15.1584424,7.90109328 L14.7636918,7.60317655 C14.3222888,7.27005134 13.5174531,7 12.9649353,7 L7.98774308,7 Z M7.37871804,9.73999755 C7.75450397,9.3375159 8.49939393,9.01124006 9.06307016,9.01124006 L12.0162029,9.01124006 C12.5706589,9.01124006 13.3214957,9.34779246 13.6836581,9.75224585 L14.0066949,10.1130049 L14.0066949,12.9754866 C14.0066949,13.5238178 13.5596871,13.9683281 13.0071693,13.9683281 L8.02997709,13.9683281 C7.47795435,13.9683281 7.0304515,13.5260735 7.0304515,12.9754866 L7.0304515,10.1130049 L7.37871804,9.73999755 Z" id="path24869" fill-opacity="0.7" fill="#FFFFFF"></path>
            <polygon id="Rectangle-58" fill-opacity="0.7" fill="#FFFFFF" points="10.7 4 12.2 4 10.5 7 9 7"></polygon>
            <rect id="Rectangle" fill-opacity="0.7" fill="#FFFFFF" x="10.0002578" y="9.00630996" width="1.00005155" height="5.0157749"></rect>
            <polygon id="Rectangle-56" fill-opacity="0.7" fill="#FFFFFF" points="5 4.60000004 16 2 16 3.19999999 5 5.80000003"></polygon>
        </g>
    </g>
</svg>