<svg width="24" height="24" viewBox="0 0 24 24">
  <g fill="none" fill-rule="evenodd">
    <rect width="24" height="24" fill="#FFF" opacity=".4" rx="2.5"/>
    <rect width="22" height="22" x="1" y="1" fill="#1F4366" rx="2"/>
    <path fill="#FFF" d="M14.1357593,5.11336598 L12.5,8 L11,8 L12.4037789,5.52274318 L7,6.80000003 L7,5.60000004 L18,3 L18,4.19999999 L14.1357593,5.11336598 Z M12.0002578,10.0112401 L11.0630702,10.0112401 C10.4993939,10.0112401 9.75450397,10.3375159 9.37871804,10.7399976 L9.0304515,11.1130049 L9.0304515,13.9754866 C9.0304515,14.5260735 9.47795435,14.9683281 10.0299771,14.9683281 L12.0002578,14.9683281 L12.0002578,10.0112401 Z M13.0003093,10.0112401 L13.0003093,14.9683281 L15.0071693,14.9683281 C15.5596871,14.9683281 16.0066949,14.5238178 16.0066949,13.9754866 L16.0066949,11.1130049 L15.6836581,10.7522459 C15.3214957,10.3477925 14.5706589,10.0112401 14.0162029,10.0112401 L13.0003093,10.0112401 Z M9.98774308,8 L14.9649353,8 C15.5174531,8 16.3222888,8.27005134 16.7636918,8.60317655 L17.1584424,8.90109328 C17.6013269,9.23533654 17.9599166,9.95538605 17.962684,10.5118661 L17.9999073,17.9971534 C18.0077475,18.6699559 17.5169129,19 17.0186098,19 L8.04915399,19 C7.55085089,19 7.05254779,18.4985767 7.03723909,17.9971534 L7.00001573,10.5118661 C6.99727577,9.96088415 7.35283296,9.2342185 7.79423602,8.90109328 L8.18898655,8.60317655 C8.63187106,8.2689333 9.43572034,8 9.98774308,8 Z" opacity=".6"/>
  </g>
</svg>
