<svg width="28" height="28" viewBox="0 0 28 28">
  <g fill="none" fill-rule="evenodd">
    <circle cx="14" cy="14" r="14" fill="#FFF" opacity=".4"/>
    <circle cx="14" cy="14" r="13" fill="#6E5626"/>
    <path fill="#FFF" fill-rule="nonzero" d="M13.3,6 C13.3,6.89444446 13.146875,6.896875 12.796875,7.246875 C12.446875,7.596875 11.9,8.29444446 11.9,9.5 L13.3,9.5 C13.3,8.60555554 13.453125,8.603125 13.803125,8.253125 C14.153125,7.903125 14.7,7.20555554 14.7,6 L13.3,6 Z M15.88125,6.7 C15.88125,8.38 14.7,8.38 14.7,9.5 L16.1,9.5 C16.1,8.45 17.28125,8.59 17.28125,6.7 L15.88125,6.7 Z M9.1,10.2 L9.1,14.4 C9.1,15.94 10.36,17.2 11.9,17.2 L16.1,17.2 C17.43056,17.2 18.5320506,16.2615968 18.8125,15.0125 C20.0646299,14.7333344 21,13.6364897 21,12.3 L21,11.6 C21,11.2344445 20.8701717,10.8576714 20.60625,10.59375 C20.3423283,10.3298286 19.9655554,10.2 19.6,10.2 L18.9,10.2 L14,10.2 L9.1,10.2 Z M18.9,11.6 L19.6,11.6 L19.6,12.3 C19.6,12.8670756 19.3304524,13.2994327 18.9,13.525 L18.9,11.6 Z M7,17.9 C7,19.09 7.91,20 9.1,20 L18.9,20 C20.09,20 21,19.09 21,17.9 L7,17.9 Z" opacity=".6"/>
  </g>
</svg>
