<svg width="24" height="24" viewBox="0 0 24 24">
  <g fill="none" fill-rule="evenodd">
    <circle cx="12" cy="12" r="12" fill="#FFF" opacity=".4"/>
    <circle cx="12" cy="12" r="11" fill="#6E5626"/>
    <path fill="#FFF" fill-rule="nonzero" d="M11.4,5 C11.4,5.76666668 11.26875,5.76875 10.96875,6.06875 C10.66875,6.36875 10.2,6.96666668 10.2,8 L11.4,8 C11.4,7.23333332 11.53125,7.23125 11.83125,6.93125 C12.13125,6.63125 12.6,6.03333332 12.6,5 L11.4,5 Z M13.6125,5.6 C13.6125,7.04 12.6,7.04 12.6,8 L13.8,8 C13.8,7.1 14.8125,7.22 14.8125,5.6 L13.6125,5.6 Z M7.8,8.6 L7.8,12.2 C7.8,13.52 8.88,14.6 10.2,14.6 L13.8,14.6 C14.94048,14.6 15.8846148,13.7956544 16.125,12.725 C17.1982542,12.4857152 18,11.5455626 18,10.4 L18,9.8 C18,9.48666668 17.8887186,9.1637183 17.6625,8.9375 C17.4362814,8.7112817 17.1133332,8.6 16.8,8.6 L16.2,8.6 L12,8.6 L7.8,8.6 Z M16.2,9.8 L16.8,9.8 L16.8,10.4 C16.8,10.8860648 16.5689592,11.2566566 16.2,11.45 L16.2,9.8 Z M6,15.2 C6,16.22 6.78,17 7.8,17 L16.2,17 C17.22,17 18,16.22 18,15.2 L6,15.2 Z" opacity=".6"/>
  </g>
</svg>
