<svg width="24" height="24" viewBox="0 0 24 24">
  <g fill="none" fill-rule="evenodd">
    <circle cx="12" cy="12" r="12" fill="#FFF" opacity=".4"/>
    <circle cx="12" cy="12" r="11" fill="#3D3C36"/>
    <path fill="#FFF" d="M12,7.00036004 C11.6666677,7.00027004 11.5159385,7.15597004 11.4166708,7.32535004 L7.84615385,14.65 L6.46153846,14.65 C6,14.65 6,15.35002 6,15.35002 C6,15.35002 6,16 6.46153846,16 L17.5384615,16 C18,16 18,15.35002 18,15.35002 C18,15.35002 18,14.65009 17.5384615,14.65 L16.1538462,14.64964 L12.5833292,7.32499004 C12.4840615,7.15561004 12.3333323,6.99991004 12,7.00000004 L12,7.00036004 Z M12,9.70000003 L14.3076923,14.65 L9.69230769,14.65 L12,9.70000003 Z" opacity=".6"/>
  </g>
</svg>
