<svg width="28" height="28" viewBox="0 0 28 28">
  <g fill="none" fill-rule="evenodd">
    <circle cx="14" cy="14" r="14" fill="#FFF" opacity=".4"/>
    <circle cx="14" cy="14" r="13" fill="#3D3C36"/>
    <path fill="#FFF" d="M14,7.00000003 C13.5789474,6.99991431 13.3885524,7.20520003 13.2631579,7.42857145 L8.02631579,17.2857143 L6.89473684,17.2857143 C6.40077204,17.2857143 6,17.6680043 6,18.1428571 C6,18.61771 6.40077204,19 6.89473684,19 L8.52631579,19 L19.4736842,19 L21.1052632,19 C21.5992278,19 22,18.61771 22,18.1428571 C22,17.6680043 21.5992278,17.2857143 21.1052632,17.2857143 L19.9736842,17.2857143 L14.7368421,7.42857145 C14.6114476,7.20520003 14.4210526,6.99991431 14,7.00000003 L14,7.00000003 Z M14,11.2857143 L16.9473684,17.2857143 L11.0526316,17.2857143 L14,11.2857143 Z" opacity=".6"/>
  </g>
</svg>
