<?xml version="1.0" encoding="UTF-8" standalone="no"?>
<svg width="17px" height="17px" viewBox="0 0 17 17" version="1.1" xmlns="http://www.w3.org/2000/svg" xmlns:xlink="http://www.w3.org/1999/xlink" xmlns:sketch="http://www.bohemiancoding.com/sketch/ns">
    <!-- Generator: Sketch 3.4.2 (15857) - http://www.bohemiancoding.com/sketch -->
    <title>campsite-s</title>
    <desc>Created with Sketch.</desc>
    <defs>
        <circle id="path-1" cx="8.5" cy="8.5" r="7.5"></circle>
    </defs>
    <g id="POI" stroke="none" stroke-width="1" fill="none" fill-rule="evenodd" sketch:type="MSPage">
        <g id="campsite-s-copy" sketch:type="MSLayerGroup">
            <circle id="Oval-1-Copy-43" opacity="0" fill="#FFFFFF" sketch:type="MSShapeGroup" cx="8.5" cy="8.5" r="8.5"></circle>
            <g id="Oval-1-Copy-42">
                <use fill="#3D3D37" fill-rule="evenodd" sketch:type="MSShapeGroup" xlink:href="#path-1"></use>
                <use fill="none" xlink:href="#path-1"></use>
            </g>
            <path d="M8.53125,5 C8.28125,5 8.1682,5.1197 8.09375,5.25 L5.23437,11 L4.5,11 C4.20671,11 4,11.223 4,11.5 C4,11.777 4.20671,12 4.5,12 L5.53125,12 L11.53125,12 L12.46875,12 C12.76204,12 13,11.777 13,11.5 C13,11.223 12.76204,11 12.46875,11 L11.82812,11 L8.96875,5.25 C8.89425,5.1197 8.78125,5 8.53125,5 L8.53125,5 Z M8.53125,7.5 L10.03125,11 L7.03125,11 L8.53125,7.5 Z" id="path11349-0-3-copy" opacity="0.7" fill="#FFFFFF" sketch:type="MSShapeGroup"></path>
        </g>
    </g>
</svg>