<?xml version="1.0" encoding="UTF-8" standalone="no"?>
<svg width="23px" height="23px" viewBox="0 0 23 23" version="1.1" xmlns="http://www.w3.org/2000/svg" xmlns:xlink="http://www.w3.org/1999/xlink">
    <!-- Generator: Sketch 3.8.3 (29802) - http://www.bohemiancoding.com/sketch -->
    <title>campsite-m</title>
    <desc>Created with Sketch.</desc>
    <defs></defs>
    <g id="POI-NIght" stroke="none" stroke-width="1" fill="none" fill-rule="evenodd">
        <g id="campsite-m">
            <ellipse id="Oval-1-Copy-41" fill-opacity="0.1" fill="#FFFFFF" cx="11.5" cy="11.5" rx="11.5" ry="11.5"></ellipse>
            <ellipse id="Oval-1-Copy-40" fill="#252522" cx="11.5" cy="11.5" rx="10.5" ry="10.5"></ellipse>
            <path d="M11.5,6.00040004 C11.13889,6.00030004 10.9756,6.17330004 10.86806,6.36150004 L7,14.5 L5.5,14.5 C5,14.5 5,15.2778 5,15.2778 C5,15.2778 5,16 5.5,16 L17.5,16 C18,16 18,15.2778 18,15.2778 C18,15.2778 18,14.5001 17.5,14.5 L16,14.4996 L12.13194,6.36110004 C12.0244,6.17290004 11.86111,5.99990004 11.5,6.00000004 L11.5,6.00040004 Z M11.5,9.00000004 L14,14.5 L9,14.5 L11.5,9.00000004 Z" id="path11349-0-7-copy" fill-opacity="0.7" fill="#FFFFFF"></path>
        </g>
    </g>
</svg>