<svg width="24" height="24" viewBox="0 0 24 24">
  <g fill="none" fill-rule="evenodd">
    <circle cx="12" cy="12" r="12" fill="#FFF" opacity=".4"/>
    <circle cx="12" cy="12" r="11" fill="#3D3D36"/>
    <path fill="#FFF" fill-rule="nonzero" d="M9.07589286,10 C8.67589286,10 8.32589286,10.233625 8.18303571,10.590625 L7.11160714,13.215625 C7.03303571,13.411625 7,13.59625 7,13.80625 L7,18.05 C7,18.246 7.15714286,18.4 7.35714286,18.4 L8.78571429,18.4 C8.98571429,18.4 9.14285714,18.246 9.14285714,18.05 L9.14285714,17 L14.8571429,17 L14.8571429,18.05 C14.8571429,18.246 15.0142857,18.4 15.2142857,18.4 L16.6428571,18.4 C16.8428571,18.4 17,18.246 17,18.05 L17,13.80625 C17,13.59625 16.9669643,13.411625 16.8883929,13.215625 L15.8169643,10.590625 C15.6741071,10.233625 15.3241071,10 14.9241071,10 L9.07589286,10 Z M9.54464286,11.115625 L14.4553571,11.115625 C14.6267857,11.115625 14.7928571,11.224125 14.8571429,11.378125 L15.7946429,13.5 L8.20535714,13.5 C8.20535714,13.5 8.87142857,11.987125 9.14285714,11.378125 C9.20714286,11.224125 9.37321429,11.115625 9.54464286,11.115625 Z M8.78571429,14.2 C9.37857143,14.2 9.85714286,14.669 9.85714286,15.25 C9.85714286,15.831 9.37857143,16.3 8.78571429,16.3 C8.19285714,16.3 7.71428571,15.831 7.71428571,15.25 C7.71428571,14.669 8.19285714,14.2 8.78571429,14.2 Z M15.2142857,14.2 C15.8071429,14.2 16.2857143,14.669 16.2857143,15.25 C16.2857143,15.831 15.8071429,16.3 15.2142857,16.3 C14.6214286,16.3 14.1428571,15.831 14.1428571,15.25 C14.1428571,14.669 14.6214286,14.2 15.2142857,14.2 Z M8,6.44000006 C8,5.91200004 8.92307692,5 8.92307692,5 C8.92307692,5 9.84615385,5.91200004 9.84615385,6.44000006 C9.84615385,6.96800008 9.43076923,7.4000001 8.92307692,7.4000001 C8.41538462,7.4000001 8,6.96800008 8,6.44000006 Z M12,5 C12,5 12.9230769,5.91200004 12.9230769,6.44000006 C12.9230769,6.96800008 12.5076923,7.4000001 12,7.4000001 C11.4923077,7.4000001 11.0769231,6.96800008 11.0769231,6.44000006 C11.0769231,5.91200004 12,5 12,5 Z M15.0769231,5 C15.0769231,5 16,5.91200004 16,6.44000006 C16,6.96800008 15.5846154,7.4000001 15.0769231,7.4000001 C14.5692308,7.4000001 14.1538462,6.96800008 14.1538462,6.44000006 C14.1538462,5.91200004 15.0769231,5 15.0769231,5 Z" opacity=".6"/>
  </g>
</svg>
