<svg version="1.1" viewBox="0 0 16 16" xmlns="http://www.w3.org/2000/svg">
 <g fill-rule="evenodd" opacity=".6">
  <circle cx="8" cy="8" r="8" fill="#fff"/>
  <circle cx="8" cy="8" r="7" fill="#717065"/>
  <path d="m5.1625 4-0.1625 0.8h-0.075c-0.52 0-0.925 0.405-0.925 0.925v1.475 0.4 0.525c0 0.16 0.115 0.275 0.275 0.275h1.05c0.16 0 0.275-0.115 0.275-0.275v-0.525h4.8v0.525c0 0.16 0.115 0.275 0.275 0.275h1.05c0.16 0 0.275-0.115 0.275-0.275v-0.525-0.4-1.475c0-0.52-0.405-0.925-0.925-0.925h-0.075l-0.1625-0.8h-5.675zm-0.0875 1.6h0.6875c0.12 0 0.2375 0.115 0.2375 0.275v0.25c0 0.16-0.115 0.275-0.275 0.275h-0.65c-0.16 0-0.275-0.115-0.275-0.275v-0.25c0-0.16 0.115-0.275 0.275-0.275zm5.2 0h0.6875c0.12 0 0.2375 0.115 0.2375 0.275v0.25c0 0.16-0.115 0.275-0.275 0.275h-0.6875c-0.12 0-0.2375-0.115-0.2375-0.275v-0.25c0-0.16 0.115-0.275 0.275-0.275zm-6.275 3.4v1h1v1h1v-1h4.0012v1h0.99882v-1h1v-1h-8z" fill="#fff" opacity=".6"/>
 </g>
</svg>
