<svg version="1.1" viewBox="0 0 24 24" xmlns="http://www.w3.org/2000/svg">
 <title>car-wash-m</title>
 <g id="Page-2:-Night" fill="none" fill-rule="evenodd" opacity=".6">
  <g id="car-wash-m" fill-rule="nonzero">
   <circle id="Oval" cx="12" cy="12" r="12" fill="#fff"/>
   <circle id="Oval" cx="12" cy="12" r="11" fill="#717065"/>
   <path id="Shape" d="m14.944 7.501c0.53023 0 0.95825-0.42802 0.95825-0.95825 0-0.42163-0.42163-1.0477-0.7091-1.4182-0.12777-0.1661-0.37691-0.1661-0.50468 0-0.28109 0.37052-0.70272 0.99658-0.70272 1.4182 0 0.53023 0.42802 0.95825 0.95825 0.95825zm-3.1942 0c0.53023 0 0.95825-0.42802 0.95825-0.95825 0-0.42163-0.42163-1.0477-0.7091-1.4182-0.12777-0.1661-0.37691-0.1661-0.50468 0-0.28109 0.37052-0.70272 0.99658-0.70272 1.4182 0 0.53023 0.42802 0.95825 0.95825 0.95825zm-3.1942 0c0.53023 0 0.95825-0.42802 0.95825-0.95825 0-0.42163-0.42163-1.0477-0.7091-1.4182-0.12777-0.1661-0.37691-0.1661-0.50468 0-0.28109 0.37052-0.70272 0.99658-0.70272 1.4182 0 0.53023 0.42802 0.95825 0.95825 0.95825zm7.6149 1.9229c-0.12777-0.37691-0.48551-0.64522-0.90714-0.64522h-7.0272c-0.42163 0-0.77299 0.26831-0.90714 0.64522l-1.2585 3.6222c-0.044718 0.13415-0.070272 0.2747-0.070272 0.42163v4.574c0 0.53023 0.42802 0.95825 0.95825 0.95825 0.53023 0 0.95825-0.42802 0.95825-0.95825v-0.31942h7.666v0.31942c0 0.52384 0.42802 0.95825 0.95825 0.95825 0.52384 0 0.95825-0.42802 0.95825-0.95825v-4.574c0-0.14054-0.025553-0.28747-0.070272-0.42163l-1.2585-3.6222zm-7.9343 6.3819c-0.53023 0-0.95825-0.42802-0.95825-0.95825 0-0.53023 0.42802-0.95825 0.95825-0.95825 0.53023 0 0.95825 0.42802 0.95825 0.95825 0 0.53023-0.42802 0.95825-0.95825 0.95825zm7.0272 0c-0.53023 0-0.95825-0.42802-0.95825-0.95825 0-0.53023 0.42802-0.95825 0.95825-0.95825 0.53023 0 0.95825 0.42802 0.95825 0.95825 0 0.53023-0.42802 0.95825-0.95825 0.95825zm-7.9854-3.1942 0.81132-2.4403c0.089436-0.25553 0.33219-0.43441 0.60689-0.43441h6.1072c0.2747 0 0.51745 0.17887 0.60689 0.43441l0.81132 2.4403h-8.9436z" fill="#fff"/>
  </g>
 </g>
</svg>
