<?xml version="1.0" encoding="utf-8"?>
<!-- Generator: Adobe Illustrator 21.0.2, SVG Export Plug-In . SVG Version: 6.00 Build 0)  -->
<svg version="1.1" id="Слой_1" xmlns="http://www.w3.org/2000/svg" xmlns:xlink="http://www.w3.org/1999/xlink" x="0px" y="0px"
	 viewBox="0 0 38.9 38.9" style="enable-background:new 0 0 38.9 38.9;" xml:space="preserve">
<style type="text/css">
	.st0{fill:#FFFFFF;fill-opacity:0.1;}
	.st1{fill:#252522;}
	.st2{fill:#FFFFFF;fill-opacity:0.7;}
</style>
<title>car-repair-l</title>
<desc>Created with Sketch.</desc>
<g id="POI-Night">
	<g id="Artboard-1" transform="translate(-677.000000, -137.000000)">
		<g id="car-repair-l" transform="translate(677.000000, 137.000000)">
			<g id="Layer_2">
				<path id="Shape" class="st0" d="M19.4,38.9C8.8,38.9,0,30.1,0,19.4S8.8,0,19.4,0s19.4,8.8,19.4,19.4S30.1,38.9,19.4,38.9
					L19.4,38.9z"/>
				<path id="Shape_1_" class="st1" d="M37.4,19.4c0,10-8,18-18,18s-18-8-18-18s8-18,18-18S37.4,9.5,37.4,19.4L37.4,19.4z"/>
			</g>
			<g id="Layer_1" transform="translate(6.000000, 5.000000)">
				<path id="Shape_2_" class="st2" d="M2.6,25.2h8.6v2.9h4.3v-2.9h8.6v-2.9H2.6L2.6,25.2L2.6,25.2z M22.8,9.4l-2.2-5.8
					c-0.2-0.7-0.7-1.4-2.2-1.4H8.4C7,2.2,6.5,2.9,6.2,3.6L4.1,9.4l-1.4,1.4V18h2.9v1.4c0,0.7,0.7,1.4,1.4,1.4h1.4
					c0.7,0,1.4-0.7,1.4-1.4V18H17v1.4c0,0.7,0.7,1.4,1.4,1.4h1.4c0.7,0,1.4-0.7,1.4-1.4V18h2.9v-7.2L22.8,9.4L22.8,9.4z M8.4,15.2
					H5.5v-2.9h2.9V15.2L8.4,15.2z M7.7,9.4l1.4-4.3h8.6l1.4,4.3H7.7L7.7,9.4z M21.4,15.2h-2.9v-2.9h2.9V15.2L21.4,15.2z"/>
			</g>
		</g>
	</g>
</g>
</svg>
