<?xml version="1.0" encoding="UTF-8" standalone="no"?>
<svg width="27px" height="27px" viewBox="0 0 27 27" version="1.1" xmlns="http://www.w3.org/2000/svg" xmlns:xlink="http://www.w3.org/1999/xlink">
    <!-- Generator: Sketch 3.7.2 (28276) - http://www.bohemiancoding.com/sketch -->
    <title>car-part-l</title>
    <desc>Created with Sketch.</desc>
    <defs></defs>
    <g id="POI" stroke="none" stroke-width="1" fill="none" fill-rule="evenodd">
        <g id="car-repair-l">
            <g id="Layer_2">
                <path d="M13.5,27 C6.056,27 0,20.943 0,13.5 C0,6.057 6.056,0 13.5,0 C20.944,0 27,6.057 27,13.5 C27,20.943 20.944,27 13.5,27 L13.5,27 Z" id="Shape" fill="#FFFFFF" opacity="0"></path>
                <path d="M26,13.5 C26,20.403 20.403,26 13.5,26 C6.597,26 1,20.403 1,13.5 C1,6.597 6.597,1 13.5,1 C20.403,1 26,6.597 26,13.5 L26,13.5 Z" id="Shape" fill="#33332E"></path>
                <g id="noun_79131_cc" transform="translate(6.000000, 4.000000)" fill="#C2C2C0">
                    <g id="Group">
                        <g id="Shape">
                            <path d="M0.188944444,3.45462222 C0.544877778,4.46035556 1.50121111,5.18193333 2.62896667,5.18193333 C3.75693333,5.18193333 4.71368889,4.46056667 5.06983333,3.45462222 L10.5528111,3.45462222 C10.9087444,4.46035556 11.8650778,5.18193333 12.9928333,5.18193333 C14.1208,5.18193333 15.0775556,4.46056667 15.4337,3.45462222 L12.9924111,3.45462222 L12.9924111,1.72731111 L15.4332778,1.72731111 C15.0773444,0.722 14.1205889,0 12.9924111,0 C11.8648667,0 10.9083222,0.722 10.5523889,1.72731111 L5.06962222,1.72731111 C4.71368889,0.722 3.75693333,0 2.62896667,0 C1.50142222,0 0.544877778,0.722 0.188944444,1.72731111 L2.62896667,1.72731111 L2.62896667,3.45462222 L0.188944444,3.45462222 L0.188944444,3.45462222 Z"></path>
                        </g>
                    </g>
                </g>
            </g>
            <g id="Layer_1" transform="translate(6.000000, 10.000000)" fill="#C2C2C0">
                <path d="M14,5 L12.5,1 C12.312,0.5 12,0 11,0 L4,0 C3,0 2.688,0.5 2.5,1 L1,5 L0,6 L0,11 L2,11 L2,12 C2,12.5 2.5,13 3,13 L4,13 C4.5,13 5,12.5 5,12 L5,11 L10,11 L10,12 C10,12.5 10.5,13 11,13 L12,13 C12.5,13 13,12.5 13,12 L13,11 L15,11 L15,6 L14,5 L14,5 Z M4,9 L2,9 L2,7 L4,7 L4,9 L4,9 Z M3.5,5 L4.5,2 L10.5,2 L11.5,5 L3.5,5 L3.5,5 Z M13,9 L11,9 L11,7 L13,7 L13,9 L13,9 Z" id="Shape"></path>
            </g>
        </g>
    </g>
</svg>