<?xml version="1.0" encoding="UTF-8"?>
<svg width="24px" height="24px" viewBox="0 0 24 24" version="1.1" xmlns="http://www.w3.org/2000/svg" xmlns:xlink="http://www.w3.org/1999/xlink">
    <title>car-wash-m</title>
    <g id="Page-2:-Night" stroke="none" stroke-width="1" fill="none" fill-rule="evenodd" opacity="0.6">
        <g id="car-wash-m" fill-rule="nonzero">
            <circle id="Oval" fill="#FFFFFF" cx="12" cy="12" r="12"></circle>
            <circle id="Oval" fill="#717065" cx="12" cy="12" r="11"></circle>
            <path d="M14.9436459,7.50102669 C15.4738763,7.50102669 15.9018937,7.07300935 15.9018937,6.54277892 C15.9018937,6.1211499 15.4802647,5.49509468 15.1927903,5.12457221 C15.065024,4.95847593 14.8158795,4.95847593 14.6881132,5.12457221 C14.4070272,5.49509468 13.9853981,6.1211499 13.9853981,6.54277892 C13.9853981,7.07300935 14.4134155,7.50102669 14.9436459,7.50102669 Z M11.7494867,7.50102669 C12.2797171,7.50102669 12.7077344,7.07300935 12.7077344,6.54277892 C12.7077344,6.1211499 12.2861054,5.49509468 11.9986311,5.12457221 C11.8708647,4.95847593 11.6217203,4.95847593 11.4939539,5.12457221 C11.2128679,5.49509468 10.7912389,6.1211499 10.7912389,6.54277892 C10.7912389,7.07300935 11.2192562,7.50102669 11.7494867,7.50102669 L11.7494867,7.50102669 Z M8.5553274,7.50102669 C9.08555784,7.50102669 9.51357518,7.07300935 9.51357518,6.54277892 C9.51357518,6.1211499 9.09194616,5.49509468 8.80447182,5.12457221 C8.67670545,4.95847593 8.42756103,4.95847593 8.29979466,5.12457221 C8.01870865,5.49509468 7.59707963,6.1211499 7.59707963,6.54277892 C7.59707963,7.07300935 8.02509697,7.50102669 8.5553274,7.50102669 Z M16.1702031,9.42391056 C16.0424367,9.04699977 15.6846909,8.77869039 15.2630618,8.77869039 L8.23591148,8.77869039 C7.81428245,8.77869039 7.46292494,9.04699977 7.32877025,9.42391056 L6.0702715,13.0460872 C6.02555327,13.1802418 6,13.3207849 6,13.4677162 L6,18.0417522 C6,18.5719827 6.42801734,19 6.95824778,19 C7.48847821,19 7.91649555,18.5719827 7.91649555,18.0417522 L7.91649555,17.7223363 L15.5824778,17.7223363 L15.5824778,18.0417522 C15.5824778,18.5655943 16.0104951,19 16.5407255,19 C17.0645676,19 17.4989733,18.5719827 17.4989733,18.0417522 L17.4989733,13.4677162 C17.4989733,13.3271732 17.47342,13.1802418 17.4287018,13.0460872 L16.1702031,9.42391056 Z M8.23591148,15.8058407 C7.70568104,15.8058407 7.2776637,15.3778234 7.2776637,14.847593 C7.2776637,14.3173625 7.70568104,13.8893452 8.23591148,13.8893452 C8.76614191,13.8893452 9.19415925,14.3173625 9.19415925,14.847593 C9.19415925,15.3778234 8.76614191,15.8058407 8.23591148,15.8058407 Z M15.2630618,15.8058407 C14.7328314,15.8058407 14.3048141,15.3778234 14.3048141,14.847593 C14.3048141,14.3173625 14.7328314,13.8893452 15.2630618,13.8893452 C15.7932923,13.8893452 16.2213096,14.3173625 16.2213096,14.847593 C16.2213096,15.3778234 15.7932923,15.8058407 15.2630618,15.8058407 Z M7.2776637,12.6116815 L8.08898015,10.1713438 C8.17841661,9.91581109 8.42117271,9.73693817 8.69587041,9.73693817 L14.8031029,9.73693817 C15.0778006,9.73693817 15.3205567,9.91581109 15.4099932,10.1713438 L16.2213096,12.6116815 L7.2776637,12.6116815 Z" id="Shape" fill="#FFFFFF"></path>
        </g>
    </g>
</svg>