<?xml version="1.0" encoding="utf-8"?>
<!-- Generator: Adobe Illustrator 21.0.2, SVG Export Plug-In . SVG Version: 6.00 Build 0)  -->
<svg version="1.1" id="Слой_1" xmlns="http://www.w3.org/2000/svg" xmlns:xlink="http://www.w3.org/1999/xlink" x="0px" y="0px"
	 viewBox="0 0 38.9 38.9" style="enable-background:new 0 0 38.9 38.9;" xml:space="preserve">
<style type="text/css">
	.st0{fill:#FFFFFF;fill-opacity:0.1;}
	.st1{fill:#252522;}
	.st2{fill:#FFFFFF;fill-opacity:0.7;}
</style>
<title>car-wash-l</title>
<desc>Created with Sketch.</desc>
<g id="POI-Night">
	<g id="Artboard-1" transform="translate(-677.000000, -322.000000)">
		<g id="car-wash-l" transform="translate(677.000000, 322.000000)">
			<g id="car-part-l">
				<g id="POI">
					<g id="car-repair-l">
						<g id="Layer_2">
							<path id="Shape" class="st0" d="M19.4,38.9C8.8,38.9,0,30.2,0,19.4S8.8,0,19.4,0s19.4,8.8,19.4,19.4S30.1,38.9,19.4,38.9
								L19.4,38.9L19.4,38.9z"/>
							<path id="Shape_1_" class="st1" d="M37.4,19.4c0,10-8,18-18,18s-18-8-18-18s8-18,18-18S37.4,9.6,37.4,19.4L37.4,19.4
								L37.4,19.4z"/>
							<path id="Combined-Shape" class="st2" d="M28.8,21.6l-2.2-5.8c-0.2-0.7-0.7-1.4-2.2-1.4H14.4c-1.4,0-1.9,0.7-2.2,1.4
								l-2.2,5.8L8.6,23v7.2h2.9v1.4c0,0.7,0.7,1.4,1.4,1.4h1.4c0.7,0,1.4-0.7,1.4-1.4v-1.4H23v1.4c0,0.7,0.7,1.4,1.4,1.4h1.4
								c0.7,0,1.4-0.7,1.4-1.4v-1.4h2.9V23L28.8,21.6z M14.4,27.4h-2.9v-2.9h2.9V27.4z M13.7,21.6l1.4-4.3h8.6l1.4,4.3H13.7z
								 M27.4,27.4h-2.9v-2.9h2.9V27.4z"/>
							<path id="Shape_2_" class="st2" d="M10.1,9.2c0,1.3,1,2.3,2.2,2.3s2.2-1,2.2-2.3s-2.2-3.5-2.2-3.5S10.1,8,10.1,9.2z"/>
							<path id="Shape_3_" class="st2" d="M19.4,5.8c0,0-2.2,2.2-2.2,3.5s1,2.3,2.2,2.3c1.2,0,2.2-1,2.2-2.3S19.4,5.8,19.4,5.8
								L19.4,5.8z"/>
							<path id="Shape_4_" class="st2" d="M26.6,5.8c0,0-2.2,2.2-2.2,3.5s1,2.3,2.2,2.3c1.2,0,2.2-1.1,2.2-2.3S26.6,5.8,26.6,5.8
								L26.6,5.8z"/>
							<g id="noun_79131_cc" transform="translate(6.000000, 4.000000)">
								<g id="Group">
									<g id="Shape_5_">
									</g>
								</g>
							</g>
						</g>
						<g id="Layer_1" transform="translate(6.000000, 10.000000)">
						</g>
					</g>
				</g>
			</g>
		</g>
	</g>
</g>
</svg>
