<?xml version="1.0" encoding="UTF-8" standalone="no"?>
<svg width="27px" height="27px" viewBox="0 0 27 27" version="1.1" xmlns="http://www.w3.org/2000/svg" xmlns:xlink="http://www.w3.org/1999/xlink" xmlns:sketch="http://www.bohemiancoding.com/sketch/ns">
    <!-- Generator: Sketch 3.4.2 (15857) - http://www.bohemiancoding.com/sketch -->
    <title>car_sharing-l</title>
    <desc>Created with Sketch.</desc>
    <defs>
        <path id="path-1" d="M26,13.5 C26,20.403 20.403,26 13.5,26 C6.597,26 1,20.403 1,13.5 C1,6.597 6.597,1 13.5,1 C20.403,1 26,6.597 26,13.5 L26,13.5 Z"></path>
    </defs>
    <g id="POI" stroke="none" stroke-width="1" fill="none" fill-rule="evenodd" sketch:type="MSPage">
        <g id="car_sharing-l" sketch:type="MSLayerGroup">
            <path d="M13.5,27 C6.056,27 0,20.943 0,13.5 C0,6.056 6.056,0 13.5,0 C20.944,0 27,6.056 27,13.5 C27,20.943 20.944,27 13.5,27 L13.5,27 Z" id="Shape" opacity="0" fill="#FFFFFF" sketch:type="MSShapeGroup"></path>
            <g id="Shape">
                <use fill="#3D3D37" fill-rule="evenodd" sketch:type="MSShapeGroup" xlink:href="#path-1"></use>
                <use fill="none" xlink:href="#path-1"></use>
            </g>
            <path d="M20.968,11 L19.471,6.998 C19.284,6.499 18.973,6 17.974,6 L9.027,6 C8.028,6 7.716,6.499 7.53,6.998 L6.032,11 L5,12 L5,18 L7,18 L7,18.975 C7,19.473 7.499,19.973 7.998,19.973 L9,19.973 C9.499,19.973 9.998,19.473 9.998,18.975 L9.998,18 L17.002,18 L17.002,18.975 C17.002,19.473 17.501,19.973 18,19.973 L19.002,19.973 C19.501,19.973 20,19.473 20,18.975 L20,18 L22,18 L22,12 L20.968,11 L20.968,11 Z M9.525,8 L17.474,8 L18.472,11 L8.527,11 L9.525,8 L9.525,8 Z M9.2,15.5 C9.2,15.886 8.886,16.2 8.5,16.2 L7.5,16.2 C7.114,16.2 6.8,15.886 6.8,15.5 L6.8,14.5 C6.8,14.114 7.114,13.8 7.5,13.8 L8.5,13.8 C8.886,13.8 9.2,14.114 9.2,14.5 L9.2,15.5 L9.2,15.5 Z M20.2,15.5 C20.2,15.886 19.886,16.2 19.5,16.2 L18.5,16.2 C18.114,16.2 17.8,15.886 17.8,15.5 L17.8,14.5 C17.8,14.114 18.114,13.8 18.5,13.8 L19.5,13.8 C19.886,13.8 20.2,14.114 20.2,14.5 L20.2,15.5 L20.2,15.5 Z" id="Shape" opacity="0.7" fill="#FFFFFF" sketch:type="MSShapeGroup"></path>
        </g>
    </g>
</svg>