<svg width="24" height="24" viewBox="0 0 24 24">
  <g fill="none" fill-rule="evenodd">
    <circle cx="12" cy="12" r="12" fill="#FFF" opacity=".4"/>
    <circle cx="12" cy="12" r="11" fill="#3D3D36"/>
    <path fill="#FFF" fill-rule="nonzero" d="M9.5,4 C8.12142857,4 7,5.099 7,6.45 C7,7.801 8.12142857,8.9 9.5,8.9 C10.5,8.9 11.3544643,8.333 11.7544643,7.5 L15.5714286,7.5 L16.2857143,6.8 L16.2857143,6.1 L15.5714286,5.4 L14.8571429,5.4 L14.3214286,5.946875 L13.7857143,5.4 L13.0714286,5.4 L12.5357143,5.75 L12,5.4 L11.7544643,5.4 C11.3544643,4.567 10.5,4 9.5,4 Z M9.5,5.4 C9.62142857,5.4 9.75,5.430625 9.85714286,5.465625 L9.85714286,7.434375 C9.75,7.469375 9.62142857,7.5 9.5,7.5 C8.90714286,7.5 8.42857143,7.031 8.42857143,6.45 C8.42857143,5.869 8.90714286,5.4 9.5,5.4 Z M9.07589286,9.6 C8.67589286,9.6 8.32589286,9.833625 8.18303571,10.190625 L7.11160714,12.815625 C7.03303571,13.011625 7,13.19625 7,13.40625 L7,17.65 C7,17.846 7.15714286,18 7.35714286,18 L8.78571429,18 C8.98571429,18 9.14285714,17.846 9.14285714,17.65 L9.14285714,16.6 L14.8571429,16.6 L14.8571429,17.65 C14.8571429,17.846 15.0142857,18 15.2142857,18 L16.6428571,18 C16.8428571,18 17,17.846 17,17.65 L17,13.40625 C17,13.19625 16.9669643,13.011625 16.8883929,12.815625 L15.8169643,10.190625 C15.6741071,9.833625 15.3241071,9.6 14.9241071,9.6 L9.07589286,9.6 Z M9.54464286,10.715625 L14.4553571,10.715625 C14.6267857,10.715625 14.7928571,10.824125 14.8571429,10.978125 L15.7946429,13.1 L8.20535714,13.1 C8.20535714,13.1 8.87142857,11.587125 9.14285714,10.978125 C9.20714286,10.824125 9.37321429,10.715625 9.54464286,10.715625 Z M8.78571429,13.8 C9.37857143,13.8 9.85714286,14.269 9.85714286,14.85 C9.85714286,15.431 9.37857143,15.9 8.78571429,15.9 C8.19285714,15.9 7.71428571,15.431 7.71428571,14.85 C7.71428571,14.269 8.19285714,13.8 8.78571429,13.8 Z M15.2142857,13.8 C15.8071429,13.8 16.2857143,14.269 16.2857143,14.85 C16.2857143,15.431 15.8071429,15.9 15.2142857,15.9 C14.6214286,15.9 14.1428571,15.431 14.1428571,14.85 C14.1428571,14.269 14.6214286,13.8 15.2142857,13.8 Z" opacity=".6"/>
  </g>
</svg>
