<?xml version="1.0" encoding="utf-8"?>
<!-- Generator: Adobe Illustrator 21.0.2, SVG Export Plug-In . SVG Version: 6.00 Build 0)  -->
<svg version="1.1" id="Слой_1" xmlns="http://www.w3.org/2000/svg" xmlns:xlink="http://www.w3.org/1999/xlink" x="0px" y="0px"
	 viewBox="0 0 38.9 38.9" style="enable-background:new 0 0 38.9 38.9;" xml:space="preserve">
<style type="text/css">
	.st0{fill:#FFFFFF;fill-opacity:0.1;}
	.st1{fill:#2D7970;}
	.st2{fill:#825089;}
	.st3{fill-opacity:0.65;}
	.st4{fill:#FFFFFF;fill-opacity:0.7;}
</style>
<title>car_shop-l</title>
<desc>Created with Sketch.</desc>
<g id="POI-NIght">
	<g id="car_shop-l">
		<path id="Shape" class="st0" d="M19.4,38.9C8.8,38.9,0,30.1,0,19.4S8.8,0,19.4,0s19.4,8.8,19.4,19.4S30.1,38.9,19.4,38.9
			L19.4,38.9z"/>
		<g id="Shape_1_">
			<g>
				<path id="path-1" class="st1" d="M37.4,19.4c0,10-8,18-18,18s-18-8-18-18s8-18,18-18S37.4,9.5,37.4,19.4L37.4,19.4z"/>
			</g>
			<g>
				<path id="path-1_1_" class="st2" d="M37.4,19.4c0,10-8,18-18,18s-18-8-18-18s8-18,18-18S37.4,9.5,37.4,19.4L37.4,19.4z"/>
			</g>
			<g>
				<path id="path-1_2_" class="st3" d="M37.4,19.4c0,10-8,18-18,18s-18-8-18-18s8-18,18-18S37.4,9.5,37.4,19.4L37.4,19.4z"/>
			</g>
		</g>
		<path id="Shape_2_" class="st4" d="M30.2,15.8l-2.2-5.8c-0.2-0.7-0.7-1.4-2.2-1.4H13c-1.4,0-1.8,0.7-2.2,1.4l-2.2,5.8l-1.4,1.4
			v8.6h2.9v1.4c0,0.7,0.7,1.4,1.4,1.4H13c0.7,0,1.4-0.7,1.4-1.4v-1.4h10.1v1.4c0,0.7,0.7,1.4,1.4,1.4h1.4c0.7,0,1.4-0.7,1.4-1.4
			v-1.4h2.9v-8.6L30.2,15.8L30.2,15.8z M13.7,11.5h11.5l1.4,4.3H12.2L13.7,11.5L13.7,11.5z M13.2,22.3c0,0.6-0.5,1-1,1h-1.4
			c-0.6,0-1-0.5-1-1v-1.4c0-0.6,0.5-1,1-1h1.4c0.6,0,1,0.5,1,1V22.3L13.2,22.3z M29,22.3c0,0.6-0.5,1-1,1h-1.4c-0.6,0-1-0.5-1-1
			v-1.4c0-0.6,0.5-1,1-1h1.4c0.6,0,1,0.5,1,1V22.3L29,22.3z"/>
	</g>
</g>
</svg>
