<svg width="16" height="16" viewBox="0 0 16 16">
  <g fill="none" fill-rule="evenodd">
    <circle cx="8" cy="8" r="8" fill="#FFF" opacity=".4"/>
    <circle cx="8" cy="8" r="7" fill="#3D3D36"/>
    <path fill="#FFF" fill-rule="nonzero" d="M6,2 C4.89714286,2 4,2.785 4,3.75 C4,4.715 4.89714286,5.5 6,5.5 C6.8,5.5 7.48357143,5.095 7.80357143,4.5 L10.8571429,4.5 L11.4285714,4 L11.4285714,3.5 L10.8571429,3 L10.2857143,3 L9.85714286,3.390625 L9.42857143,3 L8.85714286,3 L8.42857143,3.25 L8,3 L7.80357143,3 C7.48357143,2.405 6.8,2 6,2 Z M6,3 C6.09714286,3 6.2,3.021875 6.28571429,3.046875 L6.28571429,4.453125 C6.2,4.478125 6.09714286,4.5 6,4.5 C5.52571429,4.5 5.14285714,4.165 5.14285714,3.75 C5.14285714,3.335 5.52571429,3 6,3 Z M5.66071429,6 C5.34071429,6 5.06071429,6.166875 4.94642857,6.421875 L4.08928571,8.296875 C4.02642857,8.436875 4,8.56875 4,8.71875 L4,11.75 C4,11.89 4.12571429,12 4.28571429,12 L5.42857143,12 C5.58857143,12 5.71428571,11.89 5.71428571,11.75 L5.71428571,11 L10.2857143,11 L10.2857143,11.75 C10.2857143,11.89 10.4114286,12 10.5714286,12 L11.7142857,12 C11.8742857,12 12,11.89 12,11.75 L12,8.71875 C12,8.56875 11.9735714,8.436875 11.9107143,8.296875 L11.0535714,6.421875 C10.9392857,6.166875 10.6592857,6 10.3392857,6 L5.66071429,6 Z M6.03571429,6.796875 L9.96428571,6.796875 C10.1014286,6.796875 10.2342857,6.874375 10.2857143,6.984375 L11.0357143,8.5 L4.96428571,8.5 C4.96428571,8.5 5.49714286,7.419375 5.71428571,6.984375 C5.76571429,6.874375 5.89857143,6.796875 6.03571429,6.796875 Z M5.42857143,9 C5.90285714,9 6.28571429,9.335 6.28571429,9.75 C6.28571429,10.165 5.90285714,10.5 5.42857143,10.5 C4.95428571,10.5 4.57142857,10.165 4.57142857,9.75 C4.57142857,9.335 4.95428571,9 5.42857143,9 Z M10.5714286,9 C11.0457143,9 11.4285714,9.335 11.4285714,9.75 C11.4285714,10.165 11.0457143,10.5 10.5714286,10.5 C10.0971429,10.5 9.71428571,10.165 9.71428571,9.75 C9.71428571,9.335 10.0971429,9 10.5714286,9 Z" opacity=".6"/>
  </g>
</svg>
