<svg height="24" viewBox="0 0 24 24" width="24"><g fill="none" fill-rule="evenodd"><circle cx="12" cy="12" fill="#fff" opacity=".4" r="12"/><circle cx="12" cy="12" fill="#4e3552" r="11"/><path d="m16.9062 6.83538889c-.1638-.49988889-.6216-.83538889-1.1388-.83538889h-7.5348c-.5172 0-.975.3355-1.1388.83538889l-1.0938 3.34338891v6.2101111c0 .3373333.2688.6111111.6.6111111h1.2c.3312 0 .6-.2737778.6-.6111111v-1.2222222h7.2v1.2222222c0 .3373333.2688.6111111.6.6111111h1.2c.3312 0 .6-.2737778.6-.6111111v-6.2101111zm-8.8062 6.49794441c-.4968 0-.9-.4106666-.9-.9166666s.4032-.9166667.9-.9166667.9.4106667.9.9166667-.4032.9166666-.9.9166666zm7.8 0c-.4968 0-.9-.4106666-.9-.9166666s.4032-.9166667.9-.9166667.9.4106667.9.9166667-.4032.9166666-.9.9166666zm-8.6676-3.0555555 1.0002-3.05555558h7.5354l1.0002 3.05555558z" fill="#fff" fill-rule="nonzero" opacity=".6"/></g></svg>