<?xml version="1.0" encoding="UTF-8" standalone="no"?>
<svg width="23px" height="23px" viewBox="0 0 23 23" version="1.1" xmlns="http://www.w3.org/2000/svg" xmlns:xlink="http://www.w3.org/1999/xlink" xmlns:sketch="http://www.bohemiancoding.com/sketch/ns">
    <!-- Generator: Sketch 3.4.2 (15857) - http://www.bohemiancoding.com/sketch -->
    <title>car_sharing-m</title>
    <desc>Created with Sketch.</desc>
    <defs>
        <path id="path-1" d="M22,11.5 C22,17.299 17.299,22 11.5,22 C5.701,22 1,17.299 1,11.5 C1,5.701 5.701,1 11.5,1 C17.299,1 22,5.701 22,11.5 L22,11.5 Z"></path>
    </defs>
    <g id="POI" stroke="none" stroke-width="1" fill="none" fill-rule="evenodd" sketch:type="MSPage">
        <g id="car_sharing-m" sketch:type="MSLayerGroup">
            <path d="M11.5,23 C5.159,23 0,17.841 0,11.5 C0,5.159 5.159,0 11.5,0 C17.841,0 23,5.159 23,11.5 C23,17.841 17.841,23 11.5,23 L11.5,23 Z" id="Shape" opacity="0" fill="#FFFFFF" sketch:type="MSShapeGroup"></path>
            <g id="Shape">
                <use fill="#3D3D37" fill-rule="evenodd" sketch:type="MSShapeGroup" xlink:href="#path-1"></use>
                <use fill="none" xlink:href="#path-1"></use>
            </g>
            <path d="M17.968,10 L16.471,5.998 C16.284,5.499 15.973,5 14.974,5 L8.027,5 C7.028,5 6.716,5.499 6.53,5.998 L5.032,10 L4,11 L4,16 L6,16 L6,16.975 C6,17.473 6.499,17.973 6.998,17.973 L8,17.973 C8.499,17.973 8.998,17.473 8.998,16.975 L8.998,16 L14.002,16 L14.002,16.975 C14.002,17.473 14.501,17.973 15,17.973 L16.002,17.973 C16.501,17.973 17,17.473 17,16.975 L17,16 L19,16 L19,11 L17.968,10 L17.968,10 Z M8.525,7 L14.474,7 L15.472,10 L7.527,10 L8.525,7 L8.525,7 Z M8.2,13.5 C8.2,13.886 7.886,14.2 7.5,14.2 L6.5,14.2 C6.114,14.2 5.8,13.886 5.8,13.5 L5.8,12.5 C5.8,12.114 6.114,11.8 6.5,11.8 L7.5,11.8 C7.886,11.8 8.2,12.114 8.2,12.5 L8.2,13.5 L8.2,13.5 Z M17.2,13.5 C17.2,13.886 16.886,14.2 16.5,14.2 L15.5,14.2 C15.114,14.2 14.8,13.886 14.8,13.5 L14.8,12.5 C14.8,12.114 15.114,11.8 15.5,11.8 L16.5,11.8 C16.886,11.8 17.2,12.114 17.2,12.5 L17.2,13.5 L17.2,13.5 Z" id="Shape" opacity="0.7" fill="#FFFFFF" sketch:type="MSShapeGroup"></path>
        </g>
    </g>
</svg>