<svg width="28" height="28" viewBox="0 0 28 28">
  <g fill="none" fill-rule="evenodd">
    <circle cx="14" cy="14" r="14" fill="#FFF" opacity=".4"/>
    <circle cx="14" cy="14" r="13" fill="#4E3551"/>
    <path fill="#FFF" fill-rule="nonzero" d="M19.7239,7.98727778 C19.5328,7.3965 18.9987,7 18.3953,7 L9.6047,7 C9.0013,7 8.4672,7.3965 8.2761,7.98727778 L7,11.9385556 L7,19.2777778 C7,19.6764444 7.3136,20 7.7,20 L9.1,20 C9.4864,20 9.8,19.6764444 9.8,19.2777778 L9.8,17.8333333 L18.2,17.8333333 L18.2,19.2777778 C18.2,19.6764444 18.5136,20 18.9,20 L20.3,20 C20.6864,20 21,19.6764444 21,19.2777778 L21,11.9385556 L19.7239,7.98727778 Z M9.45,15.6666667 C8.8704,15.6666667 8.4,15.1813333 8.4,14.5833333 C8.4,13.9853333 8.8704,13.5 9.45,13.5 C10.0296,13.5 10.5,13.9853333 10.5,14.5833333 C10.5,15.1813333 10.0296,15.6666667 9.45,15.6666667 Z M18.55,15.6666667 C17.9704,15.6666667 17.5,15.1813333 17.5,14.5833333 C17.5,13.9853333 17.9704,13.5 18.55,13.5 C19.1296,13.5 19.6,13.9853333 19.6,14.5833333 C19.6,15.1813333 19.1296,15.6666667 18.55,15.6666667 Z M8.4378,12.0555556 L9.6047,8.44444444 L18.396,8.44444444 L19.5629,12.0555556 L8.4378,12.0555556 Z" opacity=".6"/>
  </g>
</svg>
