<svg version="1.1" viewBox="0 0 24 24" xmlns="http://www.w3.org/2000/svg">
 <title>car_shop-m</title>
 <g id="Page-2:-Night" fill="none" fill-rule="evenodd" opacity=".6">
  <g id="car_shop-m" fill-rule="nonzero">
   <circle id="Oval" cx="12" cy="12" r="12" fill="#fff"/>
   <circle id="Oval" cx="12" cy="12" r="11" fill="#8C5F93"/>
   <path id="Shape" d="m16.613 7.6733c-0.13333-0.39333-0.50667-0.67333-0.94667-0.67333h-7.3333c-0.44 0-0.80667 0.28-0.94667 0.67333l-1.3133 3.78c-0.046667 0.14-0.073333 0.28667-0.073333 0.44v4.7733c0 0.55333 0.44667 1 1 1s1-0.44667 1-1v-0.33333h8v0.33333c0 0.54667 0.44667 1 1 1 0.54667 0 1-0.44667 1-1v-4.7733c0-0.14667-0.026667-0.3-0.073333-0.44l-1.3133-3.78zm-8.28 6.66c-0.55333 0-1-0.44667-1-1 0-0.55333 0.44667-1 1-1 0.55333 0 1 0.44667 1 1 0 0.55333-0.44667 1-1 1zm7.3333 0c-0.55333 0-1-0.44667-1-1 0-0.55333 0.44667-1 1-1 0.55333 0 1 0.44667 1 1 0 0.55333-0.44667 1-1 1zm-8.3333-3.3333 0.84667-2.5467c0.093333-0.26667 0.34667-0.45333 0.63333-0.45333h6.3733c0.28667 0 0.54 0.18667 0.63333 0.45333l0.84667 2.5467h-9.3333z" fill="#fff"/>
  </g>
 </g>
</svg>
