<?xml version="1.0" encoding="utf-8"?>
<!-- Generator: Adobe Illustrator 21.0.2, SVG Export Plug-In . SVG Version: 6.00 Build 0)  -->
<svg version="1.1" id="Слой_1" xmlns="http://www.w3.org/2000/svg" xmlns:xlink="http://www.w3.org/1999/xlink" x="0px" y="0px"
	 viewBox="0 0 38.9 38.9" style="enable-background:new 0 0 38.9 38.9;" xml:space="preserve">
<style type="text/css">
	.st0{fill:#FFFFFF;fill-opacity:0.1;}
	.st1{fill:#252522;}
	.st2{fill:#FFFFFF;fill-opacity:0.7;}
</style>
<title>car_sharing-l</title>
<desc>Created with Sketch.</desc>
<g id="POI-Night">
	<g id="Artboard-1" transform="translate(-677.000000, -211.000000)">
		<g id="car-sharing-l" transform="translate(677.000000, 211.000000)">
			<g id="car-part-l">
				<g id="POI">
					<g id="car-repair-l">
						<g id="Layer_2">
							<path id="Shape" class="st0" d="M19.4,38.9C8.8,38.9,0,30.1,0,19.4S8.8,0,19.4,0s19.4,8.8,19.4,19.4S30.1,38.9,19.4,38.9
								L19.4,38.9L19.4,38.9z"/>
							<path id="Shape_1_" class="st1" d="M19.4,37.4c-10,0-18-8-18-18s8-18,18-18s18,8,18,18S29.4,37.4,19.4,37.4z"/>
							<g id="noun_79131_cc" transform="translate(6.000000, 4.000000)">
								<g id="Group">
									<g id="Shape_2_">
										<path id="Combined-Shape" class="st2" d="M11,3.9h8.9l1.4,1.4l-2.9,2.2L17,6.1l-1.4,1.4l-1.4-1.4l-1.4,1.4l-1.7-1
											C10.6,8,9.2,9,7.7,9c-2,0-3.6-1.6-3.6-3.6s1.6-3.6,3.6-3.6C9.1,1.8,10.4,2.6,11,3.9z M5.5,5.4c0-0.8,0.6-1.4,1.4-1.4
											s1.4,0.6,1.4,1.4S7.8,6.8,7,6.8S5.5,6.2,5.5,5.4z M22.8,17.6l-2.2-5.8c-0.2-0.7-0.7-1.4-2.2-1.4H8.4
											c-1.4,0-1.9,0.7-2.2,1.4l-2.2,5.8L2.6,19v7.2h2.9v1.4c0,0.7,0.7,1.4,1.4,1.4h1.4c0.7,0,1.4-0.7,1.4-1.4v-1.4H17v1.4
											c0,0.7,0.7,1.4,1.4,1.4h1.4c0.7,0,1.4-0.7,1.4-1.4v-1.4h2.9V19L22.8,17.6z M8.4,23.4H5.5v-2.9h2.9V23.4z M7.7,17.6
											l1.4-4.3h8.6l1.4,4.3H7.7z M21.4,23.4h-2.9v-2.9h2.9V23.4z"/>
									</g>
								</g>
							</g>
						</g>
						<g id="Layer_1" transform="translate(6.000000, 10.000000)">
						</g>
					</g>
				</g>
			</g>
		</g>
	</g>
</g>
</svg>
