<?xml version="1.0" encoding="UTF-8" standalone="no"?>
<svg width="23px" height="23px" viewBox="0 0 23 23" version="1.1" xmlns="http://www.w3.org/2000/svg" xmlns:xlink="http://www.w3.org/1999/xlink" xmlns:sketch="http://www.bohemiancoding.com/sketch/ns">
    <!-- Generator: Sketch 3.4.2 (15857) - http://www.bohemiancoding.com/sketch -->
    <title>caravan_site-m</title>
    <desc>Created with Sketch.</desc>
    <defs></defs>
    <g id="POI" stroke="none" stroke-width="1" fill="none" fill-rule="evenodd" sketch:type="MSPage">
        <g id="caravan_site-m" sketch:type="MSLayerGroup">
            <path d="M11.5,23 C5.159,23 0,17.841 0,11.5 C0,5.159 5.159,0 11.5,0 C17.841,0 23,5.159 23,11.5 C23,17.841 17.841,23 11.5,23 L11.5,23 Z" id="Shape" opacity="0" fill="#FFFFFF" sketch:type="MSShapeGroup"></path>
            <path d="M22,11.5 C22,17.299 17.299,22 11.5,22 C5.701,22 1,17.299 1,11.5 C1,5.701 5.701,1 11.5,1 C17.299,1 22,5.701 22,11.5 L22,11.5 Z" id="Shape" fill="#2E1B10" sketch:type="MSShapeGroup"></path>
            <path d="M10,16.5 C10,17.328 9.328,18 8.5,18 C7.672,18 7,17.328 7,16.5 C7,15.672 7.672,15 8.5,15 C9.328,15 10,15.672 10,16.5 L10,16.5 Z M19,12.6 L19,16 L11.949,16 C11.704,14.309 10.259,13 8.5,13 C6.741,13 5.296,14.309 5.051,16 L4,16 L4,7.601 C4,6.717 4.717,6 5.601,6 L15.201,6 C16.085,6 16.974,6.695 17.189,7.553 L19,12.6 L19,12.6 Z M10,9 C10,8.447 9.553,8 9,8 L7,8 C6.447,8 6,8.447 6,9 L6,10 C6,10.553 6.447,11 7,11 L9,11 C9.553,11 10,10.553 10,10 L10,9 L10,9 Z M16,9.5 C16,8.673 15.327,8 14.5,8 L13.5,8 C12.673,8 12,8.673 12,9.5 L12,14 L16,14 L16,9.5 L16,9.5 Z" id="Shape" opacity="0.7" fill="#FFFFFF" sketch:type="MSShapeGroup"></path>
        </g>
    </g>
</svg>