<svg width="16" height="16" viewBox="0 0 16 16">
  <g fill="none" fill-rule="evenodd">
    <circle cx="8" cy="8" r="8" fill="#FFF" opacity=".4"/>
    <circle cx="8" cy="8" r="7" fill="#332721"/>
    <path fill="#FFF" d="M6.66755556,9.44444444 C6.176,9.44444444 5.77777778,9.84355556 5.77777778,10.3342222 C5.77777778,10.8257778 6.176,11.2222222 6.66755556,11.2222222 C7.15911111,11.2222222 7.55555556,10.8257778 7.55555556,10.3342222 C7.55555556,9.84355556 7.15911111,9.44444444 6.66755556,9.44444444 L6.66755556,9.44444444 Z M11.0328889,5.82844444 C10.9182222,5.37066667 10.4444444,5 9.97333333,5 L4.85422222,5 C4.38222222,5 4,5.38222222 4,5.85422222 L4,10.3333333 L4.71111111,10.3333333 C4.712,9.25511111 5.58844444,8.37777778 6.66755556,8.37777778 C7.74577778,8.37777778 8.62133333,9.25511111 8.62222222,10.3333333 L12,10.3333333 L12,8.51911111 L11.0328889,5.82844444 L11.0328889,5.82844444 Z M7.55555556,7.66666667 L4.88888889,7.66666667 L4.88888889,5.88888889 L7.55555556,5.88888889 L7.55555556,7.66666667 L7.55555556,7.66666667 Z M10.2222222,8.55555556 L8.44444444,8.55555556 L8.44444444,5.88888889 L10.2222222,5.88888889 L10.2222222,8.55555556 L10.2222222,8.55555556 Z" opacity=".6"/>
  </g>
</svg>
