<svg width="16" height="16" viewBox="0 0 16 16">
  <g fill="none" fill-rule="evenodd">
    <circle cx="8" cy="8" r="8" fill="#FFF" opacity=".4"/>
    <circle cx="8" cy="8" r="7" fill="#4C351E"/>
    <path fill="#FFF" d="M11.496075,4.58878358 L8.9654694,3.13442389 C8.48272943,2.85759404 7.86695881,3.02208714 7.58880384,3.50152434 L6.20810705,5.88165921 L7.34289872,5.88165921 L7.84781046,5.88165921 L7.93145852,5.88165921 C8.77297809,5.88165921 9.49759196,6.35608137 9.87350429,7.04514696 L10.0014959,7.31696178 C10.0921986,7.55768338 10.1486358,7.8154561 10.1486358,8.08827392 L10.1486358,8.76530343 C10.2484088,8.68907492 10.3370959,8.59278628 10.4036112,8.47744051 L11.8649327,5.95788771 C12.1430876,5.47945352 11.9778071,4.86461042 11.496075,4.58878358 L11.496075,4.58878358 Z M8.84554026,5.29690631 L7.97277864,4.79540296 L8.47668258,3.92679917 L9.3494442,4.42830251 L8.84554026,5.29690631 L8.84554026,5.29690631 Z M10.5910635,6.29991299 L9.71830188,5.79840965 L10.2222058,4.92980586 L11.0949674,5.4313092 L10.5910635,6.29991299 L10.5910635,6.29991299 Z M7.93045071,7.08526723 L5.00780787,7.08526723 C4.45149793,7.08526723 4,7.53461423 4,8.08827392 L4,10.9969933 C4,11.550653 4.45149793,12 5.00780787,12 L7.93045071,12 C8.48676066,12 8.93825859,11.550653 8.93825859,10.9969933 L8.93825859,8.08827392 C8.93825859,7.53461423 8.48776847,7.08526723 7.93045071,7.08526723 L7.93045071,7.08526723 Z M5.99142836,9.01806112 L4.98362049,9.01806112 L4.98362049,8.01505443 L5.99142836,8.01505443 L5.99142836,9.01806112 L5.99142836,9.01806112 Z M8.00704411,9.01806112 L6.99923623,9.01806112 L6.99923623,8.01505443 L8.00704411,8.01505443 L8.00704411,9.01806112 L8.00704411,9.01806112 Z M5.99142836,11.0240745 L4.98362049,11.0240745 L4.98362049,10.0210678 L5.99142836,10.0210678 L5.99142836,11.0240745 L5.99142836,11.0240745 Z M8.00704411,11.0240745 L6.99923623,11.0240745 L6.99923623,10.0210678 L8.00704411,10.0210678 L8.00704411,11.0240745 L8.00704411,11.0240745 Z" opacity=".6"/>
  </g>
</svg>
