<svg width="24" height="24" viewBox="0 0 24 24">
  <g fill="none" fill-rule="evenodd">
    <circle cx="12" cy="12" r="12" fill="#FFF" opacity=".4"/>
    <circle cx="12" cy="12" r="11" fill="#4C351E"/>
    <path fill="#FFF" d="M17.2768889,7.41211481 L13.5230431,5.19857785 C12.8322343,4.78982551 11.9490827,5.03249338 11.5490457,5.73927508 L9.83602052,8.77216211 L11.7793153,8.77216211 C13.570903,8.77216211 15.0301801,10.2623089 15.0301801,12.0938516 L15.0301801,13.8478882 C15.275801,13.7233248 15.4907193,13.5258688 15.6388143,13.2647471 L17.8060575,9.43004116 C18.2051915,8.72325946 17.9686007,7.82086715 17.2768889,7.41211481 L17.2768889,7.41211481 Z M17.0240439,9.33592663 C16.7386902,9.84248427 16.1056746,10.0141049 15.6108207,9.72253438 C15.1159668,9.43188655 14.9471025,8.7841571 15.2324562,8.28036753 C15.5178099,7.77288719 16.1508255,7.60034388 16.6456793,7.89283709 C17.1405332,8.18440761 17.3093976,8.82936898 17.0240439,9.33592663 L17.0240439,9.33592663 Z M11.7793153,10.6175451 L7.44482882,10.6175451 C6.64746391,10.6175451 6,11.279115 6,12.0938516 L6,16.5236936 C6,17.3384302 6.64746391,18 7.44482882,18 L11.7802183,18 C12.5775832,18 13.2250471,17.3384302 13.2250471,16.5236936 L13.2250471,12.0938516 C13.2241441,11.279115 12.5766802,10.6175451 11.7793153,10.6175451 L11.7793153,10.6175451 Z M7.80603602,17.2609241 C7.2082381,17.2609241 6.72241441,16.7645161 6.72241441,16.154617 C6.72241441,15.5437952 7.2082381,15.0473871 7.80603602,15.0473871 C8.40383395,15.0473871 8.88965764,15.5437952 8.88965764,16.154617 C8.88965764,16.7645161 8.40383395,17.2609241 7.80603602,17.2609241 L7.80603602,17.2609241 Z M7.80603602,13.5692353 C7.2082381,13.5692353 6.72241441,13.0728273 6.72241441,12.4629282 C6.72241441,11.8521064 7.2082381,11.3556984 7.80603602,11.3556984 C8.40383395,11.3556984 8.88965764,11.8521064 8.88965764,12.4629282 C8.88965764,13.0728273 8.40383395,13.5692353 7.80603602,13.5692353 L7.80603602,13.5692353 Z M11.4181081,17.2609241 C10.8203102,17.2609241 10.3344865,16.7645161 10.3344865,16.154617 C10.3344865,15.5437952 10.8203102,15.0473871 11.4181081,15.0473871 C12.015906,15.0473871 12.5017297,15.5437952 12.5017297,16.154617 C12.5017297,16.7645161 12.015906,17.2609241 11.4181081,17.2609241 L11.4181081,17.2609241 Z M11.4181081,13.5692353 C10.8203102,13.5692353 10.3344865,13.0728273 10.3344865,12.4629282 C10.3344865,11.8521064 10.8203102,11.3556984 11.4181081,11.3556984 C12.015906,11.3556984 12.5017297,11.8521064 12.5017297,12.4629282 C12.5017297,13.0728273 12.015906,13.5692353 11.4181081,13.5692353 L11.4181081,13.5692353 Z" opacity=".6"/>
  </g>
</svg>
