<?xml version="1.0" encoding="UTF-8" standalone="no"?>
<svg width="27px" height="27px" viewBox="0 0 27 27" version="1.1" xmlns="http://www.w3.org/2000/svg" xmlns:xlink="http://www.w3.org/1999/xlink" xmlns:sketch="http://www.bohemiancoding.com/sketch/ns">
    <!-- Generator: Sketch 3.4.2 (15857) - http://www.bohemiancoding.com/sketch -->
    <title>casino-l</title>
    <desc>Created with Sketch.</desc>
    <defs>
        <path id="path-1" d="M26,13.5 C26,20.403 20.403,26 13.5,26 C6.597,26 1,20.403 1,13.5 C1,6.597 6.597,1 13.5,1 C20.403,1 26,6.597 26,13.5 L26,13.5 Z"></path>
    </defs>
    <g id="POI" stroke="none" stroke-width="1" fill="none" fill-rule="evenodd" sketch:type="MSPage">
        <g id="casino-l" sketch:type="MSLayerGroup">
            <path d="M13.5,27 C6.056,27 0,20.943 0,13.5 C0,6.057 6.056,0 13.5,0 C20.944,0 27,6.057 27,13.5 C27,20.943 20.944,27 13.5,27 L13.5,27 Z" id="Shape" opacity="0" fill="#FFFFFF" sketch:type="MSShapeGroup"></path>
            <g id="Shape">
                <use fill="#3D3D37" fill-rule="evenodd" sketch:type="MSShapeGroup" xlink:href="#path-1"></use>
                <use fill="none" xlink:href="#path-1"></use>
            </g>
            <path d="M21.098,7.2687044 L15.903,4.2687044 C14.946,3.7157044 13.723,4.0437044 13.171,5.0007044 L10.228,10.0987044 L14,10.0987044 C16.205,10.0987044 18,11.8927044 18,14.0987044 L18,15.9797044 C18.336,15.8097044 18.628,15.5457044 18.83,15.1967044 L21.83,10.0017044 C22.383,9.0437044 22.055,7.8217044 21.098,7.2687044 L21.098,7.2687044 Z M20.748,9.8747044 C20.352,10.5607044 19.477,10.7937044 18.791,10.3977044 C18.106,10.0027044 17.871,9.1267044 18.268,8.4427044 C18.664,7.7557044 19.539,7.5217044 20.225,7.9187044 C20.908,8.3147044 21.144,9.1887044 20.748,9.8747044 L20.748,9.8747044 Z M14,12.0987044 L8,12.0987044 C6.896,12.0987044 6,12.9947044 6,14.0987044 L6,20.0987044 C6,21.2027044 6.896,22.0987044 8,22.0987044 L14,22.0987044 C15.104,22.0987044 16,21.2027044 16,20.0987044 L16,14.0987044 C16,12.9947044 15.104,12.0987044 14,12.0987044 L14,12.0987044 Z M8.5,21.0987044 C7.672,21.0987044 7,20.4277044 7,19.5987044 C7,18.7697044 7.672,18.0987044 8.5,18.0987044 C9.328,18.0987044 10,18.7697044 10,19.5987044 C10,20.4277044 9.328,21.0987044 8.5,21.0987044 L8.5,21.0987044 Z M8.5,16.0987044 C7.672,16.0987044 7,15.4277044 7,14.5987044 C7,13.7697044 7.672,13.0987044 8.5,13.0987044 C9.328,13.0987044 10,13.7697044 10,14.5987044 C10,15.4277044 9.328,16.0987044 8.5,16.0987044 L8.5,16.0987044 Z M13.5,21.0987044 C12.672,21.0987044 12,20.4277044 12,19.5987044 C12,18.7697044 12.672,18.0987044 13.5,18.0987044 C14.328,18.0987044 15,18.7697044 15,19.5987044 C15,20.4277044 14.328,21.0987044 13.5,21.0987044 L13.5,21.0987044 Z M13.5,16.0987044 C12.672,16.0987044 12,15.4277044 12,14.5987044 C12,13.7697044 12.672,13.0987044 13.5,13.0987044 C14.328,13.0987044 15,13.7697044 15,14.5987044 C15,15.4277044 14.328,16.0987044 13.5,16.0987044 L13.5,16.0987044 Z" id="Shape" opacity="0.7" fill="#FFFFFF" sketch:type="MSShapeGroup"></path>
        </g>
    </g>
</svg>