<svg width="28" height="28" viewBox="0 0 28 28">
  <g fill="none" fill-rule="evenodd">
    <circle cx="14" cy="14" r="14" fill="#FFF" opacity=".4"/>
    <circle cx="14" cy="14" r="13" fill="#4C351E"/>
    <path fill="#FFF" d="M20.1297522,7.88966929 L15.6119974,5.23754575 C14.7797565,4.74867098 13.7161926,5.03863649 13.236154,5.8846639 L10.6768176,10.3915058 L13.9570816,10.3915058 C15.8746272,10.3915058 17.4356224,11.9774757 17.4356224,13.9276706 L17.4356224,15.590552 C17.7278198,15.440265 17.9817533,15.2068781 18.1574196,14.8983478 L20.7663252,10.3057538 C21.2472335,9.45884239 20.9619931,8.37854407 20.1297522,7.88966929 L20.1297522,7.88966929 Z M19.8253799,10.1934806 C19.4810044,10.7999329 18.7200736,11.0059145 18.1235038,10.6558341 C17.5278037,10.3066379 17.3234394,9.53221781 17.6686846,8.92753364 C18.0130602,8.32019735 18.773991,8.11333171 19.3705607,8.46429606 C19.9645215,8.81437637 20.1697555,9.58702836 19.8253799,10.1934806 L19.8253799,10.1934806 Z M13.9570816,12.1595882 L8.7392704,12.1595882 C7.77919314,12.1595882 7,12.9516891 7,13.9276706 L7,19.2319176 C7,20.2078991 7.77919314,21 8.7392704,21 L13.9570816,21 C14.9171589,21 15.696352,20.2078991 15.696352,19.2319176 L15.696352,13.9276706 C15.696352,12.9516891 14.9171589,12.1595882 13.9570816,12.1595882 L13.9570816,12.1595882 Z M9.174088,20.1159588 C8.45403005,20.1159588 7.8696352,19.5227672 7.8696352,18.789897 C7.8696352,18.0570269 8.45403005,17.4638353 9.174088,17.4638353 C9.89414594,17.4638353 10.4785408,18.0570269 10.4785408,18.789897 C10.4785408,19.5227672 9.89414594,20.1159588 9.174088,20.1159588 L9.174088,20.1159588 Z M9.174088,15.6957529 C8.45403005,15.6957529 7.8696352,15.1025613 7.8696352,14.3696911 C7.8696352,13.636821 8.45403005,13.0436294 9.174088,13.0436294 C9.89414594,13.0436294 10.4785408,13.636821 10.4785408,14.3696911 C10.4785408,15.1025613 9.89414594,15.6957529 9.174088,15.6957529 L9.174088,15.6957529 Z M13.522264,20.1159588 C12.802206,20.1159588 12.2178112,19.5227672 12.2178112,18.789897 C12.2178112,18.0570269 12.802206,17.4638353 13.522264,17.4638353 C14.2423219,17.4638353 14.8267168,18.0570269 14.8267168,18.789897 C14.8267168,19.5227672 14.2423219,20.1159588 13.522264,20.1159588 L13.522264,20.1159588 Z M13.522264,15.6957529 C12.802206,15.6957529 12.2178112,15.1025613 12.2178112,14.3696911 C12.2178112,13.636821 12.802206,13.0436294 13.522264,13.0436294 C14.2423219,13.0436294 14.8267168,13.636821 14.8267168,14.3696911 C14.8267168,15.1025613 14.2423219,15.6957529 13.522264,15.6957529 L13.522264,15.6957529 Z" opacity=".6"/>
  </g>
</svg>
