<svg version="1.1" viewBox="0 0 24 24" xmlns="http://www.w3.org/2000/svg">
 <title>casino-m</title>
 <g id="Page-2:-Night" fill="none" fill-rule="evenodd" opacity=".6">
  <g id="casino-m" fill-rule="nonzero">
   <circle id="Oval" cx="12" cy="12" r="12" fill="#fff"/>
   <circle id="Oval" cx="12" cy="12" r="11" fill="#7F5933"/>
   <path id="Shape" d="m16.667 6h-9.3333c-0.73333 0-1.3333 0.6-1.3333 1.3333v9.3333c0 0.73333 0.6 1.3333 1.3333 1.3333h9.3333c0.73333 0 1.3333-0.6 1.3333-1.3333v-9.3333c0-0.73333-0.6-1.3333-1.3333-1.3333zm-7.6667 10c-0.55333 0-1-0.44667-1-1s0.44667-1 1-1 1 0.44667 1 1-0.44667 1-1 1zm0-6c-0.55333 0-1-0.44667-1-1s0.44667-1 1-1 1 0.44667 1 1-0.44667 1-1 1zm3 3c-0.55333 0-1-0.44667-1-1s0.44667-1 1-1 1 0.44667 1 1-0.44667 1-1 1zm3 3c-0.55333 0-1-0.44667-1-1s0.44667-1 1-1 1 0.44667 1 1-0.44667 1-1 1zm0-6c-0.55333 0-1-0.44667-1-1s0.44667-1 1-1 1 0.44667 1 1-0.44667 1-1 1z" fill="#fff"/>
  </g>
 </g>
</svg>
