<?xml version="1.0" encoding="UTF-8"?>
<svg width="13px" height="13px" viewBox="0 0 13 13" version="1.1" xmlns="http://www.w3.org/2000/svg" xmlns:xlink="http://www.w3.org/1999/xlink">
    <title>cave-s</title>
    <g id="Page-2:-Night" stroke="none" stroke-width="1" fill="none" fill-rule="evenodd" opacity="0.6">
        <g id="cave-s" fill="#262622" fill-rule="nonzero">
            <path d="M11.0657626,7.60009268 C9.72204609,5.2289603 9.94754993,2.59336319 8.87801745,2.59336319 C8.41555561,2.59336319 7.74119176,3.02978026 7.40830515,3.75379015 C7.0331813,1.51438735 6.32015965,0 5.50118699,0 C4.52185604,0 3.69357687,2.16297954 3.41366576,5.14549804 C3.21751322,4.89108901 2.74789253,4.74528147 2.51594573,4.74528147 C1.67836005,4.74528147 1.28104377,6.32603639 0.999700889,8.87314339 C0.718358008,11.4192448 -0.556633523,13 0.280952154,13 L4.41805269,13 C4.41089384,12.8491644 4.40659853,12.6943067 4.40659853,12.5384434 C4.40659853,10.1743501 5.25349071,8.25773499 6.29796721,8.25773499 C7.34172782,8.25773499 8.18933589,10.1743501 8.18933589,12.5384434 C8.18933589,12.6943067 8.18504058,12.8491644 8.17716584,13 L12.597041,13 C13.6687212,13.0010053 12.4109109,9.97122506 11.0657626,7.60009268 Z" id="Path"></path>
        </g>
    </g>
</svg>