<?xml version="1.0" encoding="UTF-8"?>
<svg width="27px" height="27px" viewBox="0 0 27 27" version="1.1" xmlns="http://www.w3.org/2000/svg" xmlns:xlink="http://www.w3.org/1999/xlink">
    <!-- Generator: Sketch 39.1 (31720) - http://www.bohemiancoding.com/sketch -->
    <title>charging-station-l</title>
    <desc>Created with Sketch.</desc>
    <defs></defs>
    <g id="POI-Night" stroke="none" stroke-width="1" fill="none" fill-rule="evenodd">
        <g id="Artboard-1" transform="translate(-677.000000, -100.000000)">
            <g id="charging-station-l" transform="translate(677.000000, 69.000000)">
                <g id="POI">
                    <g>
                        <g id="charging-station-l">
                            <circle id="Oval-1-Copy-39" fill-opacity="0.1" fill="#FFFFFF" cx="13.5" cy="44.5" r="13.5"></circle>
                            <circle id="Oval-1-Copy-38" fill="#252522" cx="13.5" cy="44.5" r="12.5"></circle>
                            <path d="M8.99703014,37 C8.4463856,37 8,37.4499488 8,38.0068455 L8,51 L7,51 L7,52 L7.1953125,52 L17,52 L17,51 L16,51 L16,38.0068455 C16,37.4507801 15.5469637,37 15.0029699,37 L8.99703014,37 Z M11.25,49 L11.925,45.4356436 L9,45.4356436 L12.75,40 L12,43.5643564 L15,43.5643564 L11.25,49 Z M21.0602306,44.5739437 C20.9943707,44.3204225 20.9285109,44.1091549 20.9285109,43.8767606 L20.9285109,42.9260563 L20.9943707,42.9260563 L21.6529691,42.165493 C21.6529691,42.165493 21.9164084,39.7359155 18.2282577,38.3838028 L17.7452856,39.1232394 C17.7452856,39.1232394 19.5454544,40.7288732 19.5235011,42.3133803 L19.9625667,42.9260563 L19.9625667,43.8767606 C19.9625667,44.1725352 20.0284265,44.5105634 20.1162396,44.7852113 L20.9724174,48.6725352 C21.0602306,49.0739437 20.9943707,49.4542254 20.7528847,49.7711268 C20.4894453,50.0669014 20.1162396,50.2570423 19.6991273,50.2570423 C18.9746692,50.2570423 18.4038839,49.7077465 18.3599774,49.0105634 L18.7331831,45.9049296 L18.7331831,45.8415493 C18.7331831,44.9330986 17.9428651,44.1302817 16.9988741,44.1302817 L16,44.1302817 L16,45.0387324 L16.9988741,45.0387324 C17.4379397,45.0387324 17.7891922,45.3767606 17.7891922,45.7992958 L17.4379397,48.9471831 L17.4379397,49.0105634 C17.4379397,50.2359155 18.4477905,51.2077465 19.7210806,51.2077465 C20.4235855,51.2077465 21.0821838,50.9119718 21.5212494,50.3626761 C21.960315,49.7922535 22.0920346,49.0950704 21.9383617,48.4612676 L21.0602306,44.5739437 L21.0602306,44.5739437 Z" id="Combined-Shape" fill-opacity="0.7" fill="#FFFFFF"></path>
                        </g>
                    </g>
                </g>
            </g>
        </g>
    </g>
</svg>