<svg version="1.1" viewBox="0 0 16 16" xmlns="http://www.w3.org/2000/svg">
 <g fill-rule="evenodd" opacity=".6">
  <circle cx="8" cy="8" r="8" fill="#fff"/>
  <circle cx="8" cy="8" r="7" fill="#717065"/>
  <path d="m4.9543 4h3.4248c0.29547 0 0.50983 0.22388 0.50983 0.50004v6.6111h0.44444v0.88889h-5.3333v-0.88889h0.44444v-6.6111c0-0.27942 0.22826-0.50004 0.50983-0.50004zm6.5584 4.0394 0.45533 2.0732c0.079682 0.33803 0.011383 0.70986-0.21628 1.0141-0.22766 0.29296-0.56916 0.4507-0.93342 0.4507-0.66022 0-1.1839-0.51831-1.1839-1.1718v-0.033803l0.18213-1.6789c0-0.22535-0.18213-0.40563-0.40979-0.40563h-0.51793v-0.48451h0.51793c0.48948 0 0.89927 0.42817 0.89927 0.91268v0.033803l-0.19351 1.6563c0.022766 0.37183 0.31873 0.66479 0.69437 0.66479 0.21628 0 0.40979-0.10141 0.54639-0.25915 0.12522-0.16901 0.15936-0.37183 0.11383-0.58592l-0.44394-2.0732c-0.045533-0.14648-0.079682-0.32676-0.079682-0.48451v-0.50704l-0.22766-0.32676c0.011383-0.84507-0.92204-1.7014-0.92204-1.7014l0.25043-0.39437c1.9124 0.72113 1.7758 2.0169 1.7758 2.0169l-0.3415 0.40563h-0.03415v0.50704c0 0.12394 0.03415 0.23662 0.068299 0.37183zm-5.1794 2.1828 1.6667-2.6843h-1.3333l0.33333-1.7602-1.6667 2.6843h1.3l-0.3 1.7602z" fill="#fff"/>
 </g>
</svg>
