<svg version="1.1" viewBox="0 0 24 24" xmlns="http://www.w3.org/2000/svg">
 <title>shop-m</title>
 <g id="charity-shop-m" opacity=".6">
  <circle id="Oval" cx="12" cy="12" r="12" fill="#fff"/>
  <circle id="Oval" cx="12" cy="12" r="11" fill="#8c5f93"/>
  <path d="m12 17.787-3.359-3.359c-2.1213-2.1213 1.0607-5.3033 3.182-3.182l0.177 0.177 0.177-0.177c2.1213-2.1213 5.3033 1.0607 3.182 3.182zm4.6667-9.4534h-1.3333c0-1.84-1.4933-3.3333-3.3333-3.3333s-3.3333 1.4933-3.3333 3.3333h-1.3333c-0.73333 0-1.3267 0.6-1.3267 1.3333l-0.0066667 8c0 0.73333 0.6 1.3333 1.3333 1.3333h9.3333c0.73333 0 1.3333-0.6 1.3333-1.3333v-8c0-0.73333-0.6-1.3333-1.3333-1.3333zm-4.6667-2c1.1067 0 2 0.89333 2 2h-4c0-1.1067 0.89333-2 2-2z" fill="#fff"/>
 </g>
</svg>
