<svg height="24" viewBox="0 0 24 24" width="24"><g fill="none" fill-rule="evenodd"><circle cx="12" cy="12" fill="#fff" opacity=".4" r="12"/><circle cx="12" cy="12" fill="#3d3d36" r="11"/><path d="m13.3822158 11.7023718h.7687642c.7265244 0 1.3347774.6420449 1.3347774 1.3685693v.0506877l-.2872305 2.4836997c.0337918.5575653.4730856.9968591 1.0306509.9968591.3210224 0 .608253-.1520632.811004-.3886061.185855-.2534387.2365428-.5575652.1689591-.8785876l-.6589407-3.1088487c-.0675837-.2196469-.1182714-.4899815-.1182714-.7265244v-.7603162l-.3379184-.4899816c.016896-1.26719373-1.3685692-2.55128339-1.3685692-2.55128339l.3717102-.59135708c2.8385139 1.08133866 2.6357629 3.02436907 2.6357629 3.02436907l-.5068775.608253h-.0506877v.7603162c0 .1858551.0506877.3548143.1013755.5575653l.6758367 3.1088486c.1182714.5068775.0168959 1.0644428-.3210225 1.5206325-.3379183.4392938-.8447958.6758367-1.3854651.6758367-.9799632 0-1.7571753-.7772122-1.7571753-1.7571754v-.0506877l.2703346-2.5174916c0-.3379183-.2703346-.608253-.608253-.608253h-.7687642v4.6444276h.922777v.9227769h-8.3049928v-.9227769h.92277698v-10.07110998c0-.55441165.45187332-1.00221382 1.00928732-1.00221382h4.4408642c.5653039 0 1.0092873.44870641 1.0092873 1.00221382zm-3.80645501 3.525398 2.88367811-3.9012453h-2.3069425l.5767356-2.55819356-2.88367804 3.90124526h2.24926884z" fill="#fff" opacity=".6"/></g></svg>