<?xml version="1.0" encoding="UTF-8" standalone="no"?>
<svg width="27px" height="27px" viewBox="0 0 27 27" version="1.1" xmlns="http://www.w3.org/2000/svg" xmlns:xlink="http://www.w3.org/1999/xlink">
    <!-- Generator: Sketch 3.7.2 (28276) - http://www.bohemiancoding.com/sketch -->
    <title>childcare-l</title>
    <desc>Created with Sketch.</desc>
    <defs></defs>
    <g id="POI" stroke="none" stroke-width="1" fill="none" fill-rule="evenodd">
        <g id="lighthouse-l">
            <circle id="Oval-1-Copy-39" fill="#FFFFFF" opacity="0" cx="13.5" cy="13.5" r="13.5"></circle>
            <circle id="Oval-1-Copy-38" fill="#33332E" cx="13.5" cy="13.5" r="12.5"></circle>
        </g>
        <g id="Group-3" transform="translate(8.000000, 4.000000)" fill="#C2C2C0">
            <path d="M4.72998047,15.5 L4.72998047,17.5 C4.72998047,18.0497674 4.27974791,18.5 3.72998047,18.5 C3.18021303,18.5 2.72998047,18.0497674 2.72998047,17.5 L2.72998047,13.5 L4.22998047,13.5 L4.72998047,15.5 Z M6.19995117,15.5 L6.19995117,17.5 C6.19995117,18.0497674 6.65018373,18.5 7.19995117,18.5 C7.74971861,18.5 8.19995117,18.0497674 8.19995117,17.5 L8.19995117,13.5 L6.69995117,13.5 L6.19995117,15.5 Z M10.8449776,9.54976744 C10.6712072,9.83976744 10.3776098,10 10.0840123,10 C9.91024188,10 9.73561857,9.95023256 9.57997141,9.83023256 L8.25036096,8.86 L8.25036096,12 L2.74940684,12 L2.74940684,8.85976744 L1.41979638,9.83 C1.26393602,9.95023256 1.08973914,10 0.915755471,10 C0.622584467,10 0.328987032,9.84 0.154790152,9.54976744 C-0.129425811,9.08976744 -0.00981204113,8.47 0.411714559,8.16976744 L3.16219162,6.16976744 C3.19886464,6.14 3.24470593,6.12 3.28137895,6.1 C3.30845729,6.08 3.33617528,6.07069767 3.36346684,6.06 C3.45536262,6.02 3.5653817,6 3.66601931,6 L7.33332205,6 C7.43374645,6 7.53566335,6.02 7.63587453,6.06 C7.66273966,6.07069767 7.69152372,6.08093023 7.71838884,6.1 C7.75506187,6.12093023 7.80090315,6.14 7.83757618,6.16976744 L10.58784,8.16976744 C11.0097931,8.47023256 11.12962,9.08976744 10.8449776,9.54976744 Z M5.5,0 C6.88023256,0 8,1.11937984 8,2.5 C8,3.88062016 6.88003876,5 5.5,5 C4.11918605,5 3,3.88062016 3,2.5 C3,1.11937984 4.11918605,0 5.5,0 Z" id="Combined-Shape"></path>
        </g>
    </g>
</svg>