<svg version="1.1" viewBox="0 0 24 24" xmlns="http://www.w3.org/2000/svg">
 <title>chimney-m</title>
 <g id="Page-2:-Night" fill="none" fill-rule="evenodd" opacity=".6">
  <g id="chimney-m" fill="#fff" fill-rule="nonzero">
   <circle id="Oval" cx="12" cy="12" r="12" fill="#fff"/>
   <circle id="Oval" cx="12" cy="12" r="11" fill="#717065"/>
   <g id="chimney" transform="translate(8 6)">
    <polygon id="Path" points="0.70588 9.5294 3.5294 9.5294 3.5294 10.235 0.70588 10.235"/>
    <polygon id="Path" points="0.70588 10.941 2.1176 10.941 2.1176 12 0.70588 12"/>
    <polygon id="Path" points="0.70588 7.7647 2.4706 7.7647 2.4706 8.8235 0.70588 8.8235"/>
    <polygon id="Path" points="2.8235 10.941 5.6471 10.941 5.6471 12 2.8235 12"/>
    <polygon id="Path" points="3.1765 7.7647 5.6471 7.7647 5.6471 8.8235 3.1765 8.8235"/>
    <polygon id="Path" points="4.2353 9.5294 5.6471 9.5294 5.6471 10.235 4.2353 10.235"/>
    <polygon id="Path" points="2.4706 0.35294 3.1765 0.35294 3.1765 1.0588 2.4706 1.0588"/>
    <polygon id="Path" points="0.70588 1.4118 1.4118 1.4118 1.4118 2.1176 0.70588 2.1176"/>
    <polygon id="Path" points="1.0588 3.1765 1.7647 3.1765 1.7647 3.8824 1.0588 3.8824"/>
    <polygon id="Path" points="0 5.6471 0 7.0588 3.1765 7.0588 6.3529 7.0588 6.3529 5.6471 3.1765 5.6471"/>
    <path id="Path" d="m9.5294 0.35294c-0.50616 0-0.97668 0.15233-1.3685 0.41348-0.31812-0.4628-0.85104-0.76642-1.4551-0.76642-0.97461 0-1.7647 0.79009-1.7647 1.7647 0 0.024588 8.7059e-4 0.048965 0.0018588 0.073294-0.50353 0.17718-0.86459 0.65671-0.86459 1.2208 0 0.024565 8.2353e-4 0.048965 0.0021882 0.073176-0.46864 0.16475-0.81376 0.59141-0.85958 1.1044-0.014847-4.7059e-4 -0.029624-0.0011294-0.044588-0.0011294-0.52247 0-0.97831 0.28402-1.2224 0.70588h3.7088c0.090094-0.17668 0.14106-0.37659 0.14106-0.58824 0-0.024565-8.2353e-4 -0.048965-0.0021882-0.073176 0.35713-0.12555 0.64238-0.4032 0.77826-0.75532 0.041624 0.0029412 0.083506 0.0049647 0.12588 0.0049647 0.15181 0 0.29913-0.0192 0.43972-0.055247 0.2856 1.0488 1.2446 1.82 2.3838 1.82 1.3645 0 2.4706-1.1061 2.4706-2.4706s-1.1061-2.4706-2.4706-2.4706z"/>
   </g>
  </g>
 </g>
</svg>
