<svg width="24" height="24" viewBox="0 0 24 24">
  <g fill="#FFF" fill-rule="evenodd">
    <circle cx="12" cy="12" r="12" opacity=".1"/>
    <path d="M9,8 L13,8 L14,8 L14,10 L13,11 L13,12 L14,19 L8,19 L9,12 L9,11 L8,10 L8,8 L9,8 Z M11.8532601,6.23403071 C11.5282748,6.40304577 11.2589667,6.70866682 11.013866,7 C10.9681744,6.67103048 11.0401917,6.30407613 11.1597161,6.00437932 C11.2934623,5.66634919 11.5161711,5.37048571 11.8018192,5.19450096 C12.3604067,4.85019811 13.0354925,4.99795561 13.5568609,5.36490996 C13.7166302,5.47816747 13.8733736,5.59769771 14.0434311,5.69039463 C14.2791514,5.81794002 14.5333298,5.89321271 14.7950731,5.87648544 C15.2256635,5.84895516 15.6402165,5.60466741 16,5.34678875 C15.9742796,5.68412191 15.8114843,6.02075809 15.625692,6.2751519 C15.4081273,6.57310629 15.1194532,6.79334859 14.7944679,6.90103036 C14.4470907,7.01568181 14.0752034,7 13.7308521,6.88116673 C13.4521636,6.78463648 13.207063,6.62084869 12.9622649,6.44381848 C12.8024956,6.32812157 12.6297148,6.22427314 12.4460406,6.16956105 C12.24179,6.10892471 12.043894,6.1343641 11.8532601,6.23403071 Z" opacity=".6"/>
  </g>
</svg>
