<svg width="16" height="16" viewBox="0 0 16 16">
  <g fill="#FFF" fill-rule="evenodd">
    <circle cx="8" cy="8" r="8" opacity=".1"/>
    <path d="M5.75,5.14285714 L8.75,5.14285714 L9.5,5.14285714 L9.5,6.57142857 L8.75,7.28571429 L8.75,8 L9.5,13 L5,13 L5.75,8 L5.75,7.28571429 L5,6.57142857 L5,5.14285714 L5.75,5.14285714 Z M7.88994509,3.88145051 C7.64620611,4.00217555 7.44422502,4.2204763 7.26039953,4.42857143 C7.22613083,4.1935932 7.28014375,3.93148295 7.36978705,3.7174138 C7.47009676,3.47596371 7.63712831,3.26463265 7.85136443,3.13892925 C8.27030499,2.89299865 8.77661939,2.99853972 9.1676457,3.26064997 C9.28747268,3.3415482 9.40503022,3.42692694 9.53257333,3.49313902 C9.70936352,3.58424287 9.89999736,3.63800908 10.0963048,3.62606103 C10.4192476,3.60639654 10.7301623,3.43190529 11,3.24770625 C10.9807097,3.48865851 10.8586132,3.72911292 10.719269,3.91082279 C10.5560955,4.12364735 10.3395899,4.28096328 10.0958509,4.35787883 C9.83531802,4.43977272 9.55640256,4.42857143 9.2981391,4.34369052 C9.08912271,4.27474034 8.90529723,4.15774906 8.72169868,4.03129891 C8.6018717,3.94865826 8.47228608,3.87448081 8.33453044,3.83540075 C8.18134253,3.79208908 8.03292047,3.81026007 7.88994509,3.88145051 Z" opacity=".6"/>
  </g>
</svg>
