<?xml version="1.0" encoding="UTF-8"?>
<svg width="23px" height="23px" viewBox="0 0 23 23" version="1.1" xmlns="http://www.w3.org/2000/svg" xmlns:xlink="http://www.w3.org/1999/xlink">
    <!-- Generator: Sketch 39.1 (31720) - http://www.bohemiancoding.com/sketch -->
    <title>cinema-m</title>
    <desc>Created with Sketch.</desc>
    <defs></defs>
    <g id="POI-Night" stroke="none" stroke-width="1" fill="none" fill-rule="evenodd">
        <g id="Artboard-1" transform="translate(-354.000000, -806.000000)">
            <g id="cinema-m" transform="translate(354.000000, 806.000000)">
                <ellipse id="Oval-1-Copy-41" fill-opacity="0.1" fill="#FFFFFF" cx="11.5" cy="11.5" rx="11.5" ry="11.5"></ellipse>
                <ellipse id="Oval-1-Copy-40" fill="#26160D" cx="11.5" cy="11.5" rx="10.5" ry="10.5"></ellipse>
                <path d="M5,5.99850233 C5,5.44704472 5.44748943,5 5.99850233,5 L17.0014977,5 C17.5529553,5 18,5.44748943 18,5.99850233 L18,17.0014977 C18,17.5529553 17.5525106,18 17.0014977,18 L5.99850233,18 C5.44704472,18 5,17.5525106 5,17.0014977 L5,5.99850233 Z M5,6 L6,6 L6,7.5 L5,7.5 L5,6 Z M7,6 L8.5,6 L8.5,7.5 L7,7.5 L7,6 Z M9.5,6 L11,6 L11,7.5 L9.5,7.5 L9.5,6 Z M12,6 L13.5,6 L13.5,7.5 L12,7.5 L12,6 Z M14.5,6 L16,6 L16,7.5 L14.5,7.5 L14.5,6 Z M17,6 L18,6 L18,7.5 L17,7.5 L17,6 Z M5,15.5 L6,15.5 L6,17 L5,17 L5,15.5 Z M7,15.5 L8.5,15.5 L8.5,17 L7,17 L7,15.5 Z M9.5,15.5 L11,15.5 L11,17 L9.5,17 L9.5,15.5 Z M12,15.5 L13.5,15.5 L13.5,17 L12,17 L12,15.5 Z M14.5,15.5 L16,15.5 L16,17 L14.5,17 L14.5,15.5 Z M17,15.5 L18,15.5 L18,17 L17,17 L17,15.5 Z M10,9.52566914 C10,9.0879134 10.2960744,8.93197272 10.6614448,9.17746268 L13.4554154,11.0547132 C13.8207213,11.3001598 13.8207858,11.698064 13.4554154,11.943554 L10.6614448,13.8208045 C10.2961389,14.0662511 10,13.9022429 10,13.472598 L10,9.52566914 Z" id="Combined-Shape" fill-opacity="0.7" fill="#FFFFFF"></path>
            </g>
        </g>
    </g>
</svg>