<?xml version="1.0" encoding="UTF-8"?>
<svg width="27px" height="27px" viewBox="0 0 27 27" version="1.1" xmlns="http://www.w3.org/2000/svg" xmlns:xlink="http://www.w3.org/1999/xlink">
    <!-- Generator: Sketch 39.1 (31720) - http://www.bohemiancoding.com/sketch -->
    <title>cinema-l</title>
    <desc>Created with Sketch.</desc>
    <defs></defs>
    <g id="POI-Night" stroke="none" stroke-width="1" fill="none" fill-rule="evenodd">
        <g id="Artboard-1" transform="translate(-317.000000, -804.000000)">
            <g id="cinema-l" transform="translate(317.000000, 804.000000)">
                <circle id="Oval-1-Copy-39" fill-opacity="0.1" fill="#FFFFFF" cx="13.5" cy="13.5" r="13.5"></circle>
                <circle id="Oval-1-Copy-38" fill="#26160D" cx="13.5" cy="13.5" r="12.5"></circle>
                <path d="M21,18 L21,9 L20,9 L20,7 L20.999975,7 C20.9959652,6.4449157 20.5464468,6 19.992516,6 L7.00748397,6 C6.45142662,6 6.00403105,6.44702693 6.00002709,7 L7,7 L7,9 L6,9 L6,18 L7,18 L7,20 L6.00002505,20 C6.00403476,20.5550843 6.45355321,21 7.00748397,21 L19.992516,21 C20.5485734,21 20.995969,20.5529731 20.9999729,20 L20,20 L20,18 L21,18 Z M8,7 L10,7 L10,9 L8,9 L8,7 Z M11,7 L13,7 L13,9 L11,9 L11,7 Z M14,7 L16,7 L16,9 L14,9 L14,7 Z M17,7 L19,7 L19,9 L17,9 L17,7 Z M8,18 L10,18 L10,20 L8,20 L8,18 Z M11,18 L13,18 L13,20 L11,20 L11,18 Z M14,18 L16,18 L16,20 L14,20 L14,18 Z M17,18 L19,18 L19,20 L17,20 L17,18 Z M11.5,10.802989 C11.5,10.3595104 11.7977991,10.2084594 12.1536627,10.4575639 L15.8463373,13.0424361 C16.2073452,13.2951417 16.2022009,13.7084594 15.8463373,13.9575639 L12.1536627,16.5424361 C11.7926548,16.7951417 11.5,16.6432453 11.5,16.197011 L11.5,10.802989 Z" id="Combined-Shape" fill-opacity="0.7" fill="#FFFFFF"></path>
            </g>
        </g>
    </g>
</svg>