<?xml version="1.0" encoding="UTF-8" standalone="no"?>
<svg width="27px" height="27px" viewBox="0 0 27 27" version="1.1" xmlns="http://www.w3.org/2000/svg" xmlns:xlink="http://www.w3.org/1999/xlink" xmlns:sketch="http://www.bohemiancoding.com/sketch/ns">
    <!-- Generator: Sketch 3.4.2 (15857) - http://www.bohemiancoding.com/sketch -->
    <title>cinema-l</title>
    <desc>Created with Sketch.</desc>
    <defs></defs>
    <g id="POI" stroke="none" stroke-width="1" fill="none" fill-rule="evenodd" sketch:type="MSPage">
        <g id="cinema-l-copy" sketch:type="MSLayerGroup">
            <circle id="Oval-1-Copy-39" opacity="0" fill="#FFFFFF" sketch:type="MSShapeGroup" cx="13.5" cy="13.5" r="13.5"></circle>
            <circle id="Oval-1-Copy-38" fill="#2E1B10" sketch:type="MSShapeGroup" cx="13.5" cy="13.5" r="12.5"></circle>
            <path d="M19,5 L16.75,5.6563 L17.84375,8.625 L20,8 L19,5 Z M15.375,6.0313 L12.4375,6.875 L12.5,7 L13.0625,8.5313 L13.5625,9.8438 L16.5,9 L15.375,6.0313 Z M11.09375,7.25 L8.5,8 L9.625,10.9688 L12.21875,10.2188 L11.5625,8.5313 L11.09375,7.25 Z M7.15625,8.375 L5,9 L6,12 L8.25,11.3438 L7.15625,8.375 Z M6,12 L6,21 C6,21.554 6.44599,22 7,22 L20,22 C20.55401,22 21,21.554 21,21 L21,12 L6,12 Z M8,14 L19,14 L19,17 L8,17 L8,14 Z" id="rect7568-8-4-copy" opacity="0.7" fill="#FFFFFF" sketch:type="MSShapeGroup"></path>
        </g>
    </g>
</svg>