<?xml version="1.0" encoding="UTF-8"?>
<svg width="17px" height="17px" viewBox="0 0 17 17" version="1.1" xmlns="http://www.w3.org/2000/svg" xmlns:xlink="http://www.w3.org/1999/xlink">
    <!-- Generator: Sketch 39.1 (31720) - http://www.bohemiancoding.com/sketch -->
    <title>cinema-s</title>
    <desc>Created with Sketch.</desc>
    <defs></defs>
    <g id="POI-Night" stroke="none" stroke-width="1" fill="none" fill-rule="evenodd">
        <g id="Artboard-1" transform="translate(-387.000000, -809.000000)">
            <g id="cinema-s" transform="translate(387.000000, 809.000000)">
                <circle id="Oval-1-Copy-43" fill-opacity="0.1" fill="#FFFFFF" cx="8.5" cy="8.5" r="8.5"></circle>
                <circle id="Oval-1-Copy-42" fill="#26160D" cx="8.5" cy="8.5" r="7.5"></circle>
                <path d="M4,4.99754465 C4,4.44661595 4.4463114,4 4.99754465,4 L12.0024554,4 C12.553384,4 13,4.4463114 13,4.99754465 L13,12.0024554 C13,12.553384 12.5536886,13 12.0024554,13 L4.99754465,13 C4.44661595,13 4,12.5536886 4,12.0024554 L4,4.99754465 Z M4,5 L5,5 L5,6 L4,6 L4,5 Z M6,5 L7,5 L7,6 L6,6 L6,5 Z M8,5 L9,5 L9,6 L8,6 L8,5 Z M10,5 L11,5 L11,6 L10,6 L10,5 Z M12,5 L13,5 L13,6 L12,6 L12,5 Z M4,11 L5,11 L5,12 L4,12 L4,11 Z M6,11 L7,11 L7,12 L6,12 L6,11 Z M8,11 L9,11 L9,12 L8,12 L8,11 Z M10,11 L11,11 L11,12 L10,12 L10,11 Z M12,11 L13,11 L13,12 L12,12 L12,11 Z M7.5,7.3911331 C7.5,7.06357038 7.71976145,6.96749449 7.96821243,7.1590842 L9.23956321,8.13946966 C9.4981498,8.33887531 9.48801419,8.66999168 9.23956321,8.86158139 L7.96821243,9.84196685 C7.70962584,10.0413725 7.5,9.93583852 7.5,9.60991796 L7.5,7.3911331 Z" id="Combined-Shape" fill-opacity="0.7" fill="#FFFFFF"></path>
            </g>
        </g>
    </g>
</svg>