<svg version="1.1" viewBox="0 0 24 24" xmlns="http://www.w3.org/2000/svg">
 <title>cinema-m</title>
 <g id="Page-2:-Night" fill="none" fill-rule="evenodd" opacity=".6">
  <g id="cinema-m" fill-rule="nonzero">
   <circle id="Oval" cx="12" cy="12" r="12" fill="#fff"/>
   <circle id="Oval" cx="12" cy="12" r="11" fill="#7F5933"/>
   <path id="Shape" d="m16.333 6.6667v0.66667h-1.3333v-0.66667c0-0.36667-0.3-0.66667-0.66667-0.66667h-4c-0.36667 0-0.66667 0.3-0.66667 0.66667v0.66667h-1.3333v-0.66667c0-0.36667-0.3-0.66667-0.66667-0.66667-0.36667 0-0.66667 0.3-0.66667 0.66667v10.667c0 0.36667 0.3 0.66667 0.66667 0.66667 0.36667 0 0.66667-0.3 0.66667-0.66667v-0.66667h1.3333v0.66667c0 0.36667 0.3 0.66667 0.66667 0.66667h4c0.36667 0 0.66667-0.3 0.66667-0.66667v-0.66667h1.3333v0.66667c0 0.36667 0.3 0.66667 0.66667 0.66667s0.66667-0.3 0.66667-0.66667v-10.667c0-0.36667-0.3-0.66667-0.66667-0.66667s-0.66667 0.3-0.66667 0.66667zm-6.6667 8.6667h-1.3333v-1.3333h1.3333v1.3333zm0-2.6667h-1.3333v-1.3333h1.3333v1.3333zm0-2.6667h-1.3333v-1.3333h1.3333v1.3333zm6.6667 5.3333h-1.3333v-1.3333h1.3333v1.3333zm0-2.6667h-1.3333v-1.3333h1.3333v1.3333zm0-2.6667h-1.3333v-1.3333h1.3333v1.3333z" fill="#fff"/>
  </g>
 </g>
</svg>
