<svg width="24" height="24" viewBox="0 0 24 24">
  <g fill="none" fill-rule="evenodd">
    <circle cx="12" cy="12" r="12" fill="#FFF" opacity=".4"/>
    <circle cx="12" cy="12" r="11" fill="#3D3D36"/>
    <path fill="#FFF" fill-rule="nonzero" d="M10.7366548,6 C10.0448248,6 9.48398577,6.5372583 9.48398577,7.2 C9.48398577,7.8627417 10.0448248,8.4 10.7366548,8.4 C11.4284845,8.4 11.9893238,7.8627417 11.9893238,7.2 C11.9893238,6.5372583 11.4284845,6 10.7366548,6 Z M16.3736655,6 C16.3736655,8.03714286 15.7199395,9.06059802 15.0231317,9.6 C14.3263239,10.139402 13.539027,10.2 13.2419929,10.2 L13.2419929,10.8 C13.6339267,10.8 14.5612206,10.710598 15.4145907,10.05 C16.2679609,9.38940198 17,8.16285714 17,6 L16.3736655,6 Z M13.8879004,6.09375 C13.8879004,6.09375 13.6359059,7.04294736 13.3985765,7.725 L13.3985765,7.74375 L13.3790036,7.78125 C13.3073515,8.05580808 13.0910106,8.26645044 12.8113879,8.38125 L9.24911032,9.825 C8.75522689,10.0221325 8.3028001,9.88171512 8.01601423,9.45 C7.57517589,8.72683116 7.07651246,7.96875 7.07651246,7.96875 L6,8.5875 C6,8.5875 6.50651823,9.3764511 6.93950178,10.0875 L6.95907473,10.10625 C7.5491572,10.994535 8.7095418,11.3341176 9.71886121,10.93125 L9.83629893,10.89375 L10.4234875,12.7125 L12.8113879,11.64375 L12.5765125,9.7875 L13.3007117,9.4875 C13.8804658,9.24948078 14.3798986,8.77325736 14.5729537,8.11875 L14.5925267,8.11875 C14.8562649,7.36080264 15.1014235,6.39375 15.1014235,6.39375 L13.8879004,6.09375 Z M13.8683274,12.0375 C13.634808,12.03129 13.4077899,12.073158 13.183274,12.16875 L13.1637011,12.16875 L13.1441281,12.1875 L10.2669039,13.55625 C9.461302,13.9421148 8.84739552,14.6696598 8.68149466,15.54375 L9.91459075,15.76875 C9.9992237,15.3228402 10.3874526,14.8578852 10.8345196,14.64375 L12.6156584,13.8 L12.6156584,18 L13.2419929,18 L13.2419929,13.5 L13.6921708,13.275 C13.8068395,13.226178 13.8863984,13.225482 13.9466192,13.25625 C14.0068413,13.287018 14.0522806,13.330935 14.0640569,13.44375 L14.3772242,16.14375 L15.6103203,16.0125 L15.297153,13.3125 C15.2462959,12.825315 14.9433379,12.4154826 14.5338078,12.20625 C14.3290428,12.1016334 14.1018468,12.0437118 13.8683274,12.0375 Z M8.68149466,15.54375 L8.66192171,15.54375 L8.113879,18 L9.4252669,18 L9.91459075,15.7875 L8.68149466,15.54375 Z" opacity=".6"/>
  </g>
</svg>
