<svg version="1.1" viewBox="0 0 24 24" xmlns="http://www.w3.org/2000/svg">
 <title>climbing-m</title>
 <g fill="none" fill-rule="evenodd">
  <g id="climbing-m" fill-rule="nonzero">
   <g id="climbing-silhouette" transform="translate(6,6)" fill="#fff">
    <g transform="matrix(1.6132 0 0 1.6132 -3.0024 -3.6586)" fill="#fff">
     <path id="Path" d="m1.9535 2.1329c0.75051-0.59611 0.4697-1.8613-0.46726-2.0959-0.82975-0.2086-1.5992 0.49401-1.4706 1.3425 0.13688 0.90292 1.2192 1.3235 1.9378 0.75341z" opacity=".6"/>
     <path id="Shape" d="m2.7293 2.836c-0.14685-0.29003-0.50886-0.42374-0.80908-0.29855l-1.1458 0.47845c-0.20664 0.086542-0.33064 0.27496-0.34497 0.48015l-0.004144-0.00778s-0.48015 1.3743 0 2.2821c0.33379 0.63112 1.0692 0.94963 1.4869 1.0853l0.1663 0.35616c0.00534 0.011161 0.012661 0.020441 0.018229 0.031119l0.011186 0.023848 0.00219-9.661e-4c0.11329 0.19716 0.30633 0.32504 0.52172 0.35908-0.13492 0.75852-0.081432 1.8661 0.97513 2.7715 0.027712 0.02385 0.061754 0.03549 0.095797 0.03549 0.041314 0 0.082653-0.01726 0.11158-0.0513 0.052983-0.06176 0.045941-0.15463-0.016042-0.20761-0.99214-0.85068-1.0123-1.8803-0.87326-2.5615 0.016297-0.00412 0.032568-0.00582 0.048864-0.010958l2.8972-0.94447 3.2772 2.0757c0.082932 0.052271 0.17214 0.084585 0.26306 0.10114l0.7517 2.1047c0.10963 0.3063 0.3749 0.72203 0.5927 0.92845 0.21808 0.20639 0.39506 0.11014 0.39557-0.21491l0.0085-10.054c0-0.36224-0.291-0.65301-0.65275-0.65301h-6.7124c-0.079754-0.11451-0.21201-0.18964-0.36201-0.18964h-0.36808c-0.14441 0-0.27981 0.070754-0.36249 0.18938-0.082424 0.1184-0.1021 0.26985-0.051788 0.40551l0.76144 2.0587-0.37197 0.042559zm3.9027-0.29492c0.31607 0.077059 0.60656 0.39872 0.64886 0.7184 0.042305 0.31945 0.32916 0.65494 0.6406 0.74903l1.4968 0.45196c0.31144 0.094093 0.63526 0.38947 0.72303 0.65982 0.08751 0.27033 0.0525 0.73055-0.0795 1.0279l-0.49086 1.1084-3.2047-2.0295c-0.18623-0.11743-0.41331-0.14634-0.62237-0.078025l-1.2914 0.42107c0.51491-0.52586 1.4385-1.6758 1.4927-3.1962zm-2.56 1.6807c0.13492-0.015559 0.25503-0.091881 0.32601-0.20761 0.070983-0.11573 0.085093-0.25747 0.037932-0.38461l-0.66005-1.7842 1.8763 0.45707c-0.030636 1.6328-1.1492 2.8264-1.5666 3.2157l-0.62019-1.227z" opacity=".6"/>
    </g>
   </g>
  </g>
 </g>
</svg>
