<svg width="16" height="16" viewBox="0 0 16 16">
  <g fill="none" fill-rule="evenodd">
    <circle cx="8" cy="8" r="8" fill="#FFF" opacity=".4"/>
    <circle cx="8" cy="8" r="7" fill="#3D3D36"/>
    <path fill="#FFF" fill-rule="nonzero" d="M7.01423488,4 C6.57397942,4 6.21708185,4.3581722 6.21708185,4.8 C6.21708185,5.2418278 6.57397942,5.6 7.01423488,5.6 C7.45449014,5.6 7.8113879,5.2418278 7.8113879,4.8 C7.8113879,4.3581722 7.45449014,4 7.01423488,4 Z M10.6014235,4 C10.6014235,5.35809524 10.185416,6.04039868 9.74199288,6.4 C9.29856974,6.75960132 8.79756265,6.8 8.60854093,6.8 L8.60854093,7.2 C8.85795337,7.2 9.44804948,7.14039868 9.9911032,6.7 C10.5341569,6.25960132 11,5.44190476 11,4 L10.6014235,4 Z M9.01957295,4.0625 C9.01957295,4.0625 8.85921287,4.69529824 8.70818505,5.15 L8.70818505,5.1625 L8.69572954,5.1875 C8.65013278,5.37053872 8.51246127,5.51096696 8.33451957,5.5875 L6.06761566,6.55 C5.7533262,6.68142164 5.46541824,6.58781008 5.28291815,6.3 C5.00238465,5.81788744 4.68505338,5.3125 4.68505338,5.3125 L4,5.725 C4,5.725 4.32232978,6.2509674 4.59786477,6.725 L4.61032028,6.7375 C4.98582731,7.32969 5.72425387,7.5560784 6.36654804,7.2875 L6.44128114,7.2625 L6.81494662,8.475 L8.33451957,7.7625 L8.18505338,6.525 L8.64590747,6.325 C9.01484185,6.16632052 9.33266278,5.84883824 9.45551601,5.4125 L9.46797153,5.4125 C9.63580493,4.90720176 9.79181495,4.2625 9.79181495,4.2625 L9.01957295,4.0625 Z M9.00711744,8.025 C8.85851416,8.02086 8.71404811,8.048772 8.57117438,8.1125 L8.55871886,8.1125 L8.54626335,8.125 L6.71530249,9.0375 C6.20264672,9.2947432 5.81197897,9.7797732 5.70640569,10.3625 L6.4911032,10.5125 C6.54496054,10.2152268 6.79201532,9.9052568 7.07651246,9.7625 L8.20996441,9.2 L8.20996441,12 L8.60854093,12 L8.60854093,9 L8.89501779,8.85 C8.96798878,8.817452 9.01861717,8.816988 9.0569395,8.8375 C9.09526263,8.858012 9.12417856,8.88729 9.1316726,8.9625 L9.33096085,10.7625 L10.1156584,10.675 L9.91637011,8.875 C9.88400649,8.55021 9.69121503,8.2769884 9.43060498,8.1375 C9.30029996,8.0677556 9.15572071,8.0291412 9.00711744,8.025 Z M5.70640569,10.3625 L5.69395018,10.3625 L5.34519573,12 L6.1797153,12 L6.4911032,10.525 L5.70640569,10.3625 Z" opacity=".6"/>
  </g>
</svg>
