<svg width="28" height="28" viewBox="0 0 28 28">
  <g fill="none" fill-rule="evenodd">
    <circle cx="14" cy="14" r="14" fill="#FFF" opacity=".4"/>
    <circle cx="14" cy="14" r="13" fill="#3D3C36"/>
    <path fill="#FFF" d="M14,8 L6,12.2857143 L14,16.5714286 L18.6315789,14.1875 L18.6315789,17.4285714 C18.6315789,19.1428571 20.3157895,19.1428571 20.3157895,19.1428571 L20.3157895,18.2857143 C20.3157895,18.2857143 19.4736842,18.2366943 19.4736842,17.4285714 L19.4736842,13.7053571 L22,12.2857143 L14,8 Z M10.2105263,15.7142857 L10.2105263,17.4285714 C10.2105263,17.8543143 10.4842856,18.425 11.0526316,18.7142857 L14,20 L16.5263158,18.7142857 C17.0946619,18.425 17.8291638,17.8523934 17.7894737,17.4285714 L17.7894737,15.7142857 L14,17.5892857 L10.2105263,15.7142857 Z" opacity=".6"/>
  </g>
</svg>
