<svg width="28" height="28" viewBox="0 0 28 28">
  <g fill="none" fill-rule="evenodd">
    <circle cx="14" cy="14" r="14" fill="#FFF" opacity=".4"/>
    <circle cx="14" cy="14" r="13" fill="#4E3551"/>
    <path fill="#FFF" d="M21,8.75 L21,15.75 C21,16.716 20.2621176,17.5 19.3529412,17.5 L15.2352941,17.5 L16.8823529,19.25 L16.8823529,20.125 C16.8823529,20.608875 16.5142353,21 16.0588235,21 L11.9411765,21 C11.4857647,21 11.1176471,20.608875 11.1176471,20.125 L11.1176471,19.25 L12.7647059,17.5 L8.64705882,17.5 C7.73788235,17.5 7,16.716 7,15.75 L7,8.75 C7,7.784 7.73788235,7 8.64705882,7 L19.3529412,7 C20.2621176,7 21,7.784 21,8.75 L21,8.75 Z M19.3529412,14.875 L19.3529412,8.75 L8.64705882,8.75 L8.64705882,14.875 L19.3529412,14.875 L19.3529412,14.875 Z" opacity=".6"/>
  </g>
</svg>
