<?xml version="1.0" encoding="UTF-8" standalone="no"?>
<svg width="27px" height="27px" viewBox="0 0 27 27" version="1.1" xmlns="http://www.w3.org/2000/svg" xmlns:xlink="http://www.w3.org/1999/xlink">
    <!-- Generator: Sketch 3.8.3 (29802) - http://www.bohemiancoding.com/sketch -->
    <title>computer-l</title>
    <desc>Created with Sketch.</desc>
    <defs>
        <path d="M26,13.5 C26,20.403 20.403,26 13.5,26 C6.597,26 1,20.403 1,13.5 C1,6.597 6.597,1 13.5,1 C20.403,1 26,6.597 26,13.5 L26,13.5 Z" id="path-1"></path>
    </defs>
    <g id="POI-NIght" stroke="none" stroke-width="1" fill="none" fill-rule="evenodd">
        <g id="computer-l">
            <path d="M13.5,27 C6.057,27 0,20.943 0,13.5 C0,6.057 6.057,0 13.5,0 C20.943,0 27,6.057 27,13.5 C27,20.943 20.943,27 13.5,27 L13.5,27 Z" id="Shape" fill-opacity="0.1" fill="#FFFFFF"></path>
            <g id="Shape">
                <use fill="#2D7970" xlink:href="#path-1"></use>
                <use fill="#825089" xlink:href="#path-1"></use>
                <use fill-opacity="0.65" fill="#000000" xlink:href="#path-1"></use>
            </g>
            <path d="M22,8 L22,16 C22,17.104 21.104,18 20,18 L15,18 L17,20 L17,21 C17,21.553 16.553,22 16,22 L11,22 C10.447,22 10,21.553 10,21 L10,20 L12,18 L7,18 C5.896,18 5,17.104 5,16 L5,8 C5,6.896 5.896,6 7,6 L20,6 C21.104,6 22,6.896 22,8 L22,8 Z M20,15 L20,8 L7,8 L7,15 L20,15 L20,15 Z" id="Shape" fill-opacity="0.7" fill="#FFFFFF"></path>
        </g>
    </g>
</svg>