<svg version="1.1" viewBox="0 0 24 24" xmlns="http://www.w3.org/2000/svg">
 <title>copyshop-m</title>
 <g id="Page-2:-Night" fill="none" fill-rule="evenodd" opacity=".6">
  <g id="copyshop-m" fill-rule="nonzero">
   <circle id="Oval" cx="12" cy="12" r="12" fill="#fff"/>
   <circle id="Oval" cx="12" cy="12" r="11" fill="#8C5F93"/>
   <path id="Shape" d="m14.4 17.6h-7v-9.1c0-0.385-0.315-0.7-0.7-0.7s-0.7 0.315-0.7 0.7v9.1c0 0.77 0.63 1.4 1.4 1.4h7c0.385 0 0.7-0.315 0.7-0.7s-0.315-0.7-0.7-0.7zm3.5-2.8v-8.4c0-0.77-0.63-1.4-1.4-1.4h-6.3c-0.77 0-1.4 0.63-1.4 1.4v8.4c0 0.77 0.63 1.4 1.4 1.4h6.3c0.77 0 1.4-0.63 1.4-1.4zm-1.4 0h-6.3v-8.4h6.3v8.4z" fill="#fff"/>
  </g>
 </g>
</svg>
