<svg width="28" height="28" viewBox="0 0 28 28">
  <g fill="none" fill-rule="evenodd">
    <circle cx="14" cy="14" r="14" fill="#FFF" opacity=".4"/>
    <circle cx="14" cy="14" r="13" fill="#3D3D36"/>
    <path fill="#FFF" d="M19.6597426,8.33947495 C19.0494619,7.7283237 18.3363438,7.2857659 17.5777075,7 L9.14925867,15.4288295 L9.65080154,16.882948 L7.3040867,19.2306118 C6.89863777,19.6343931 6.89863777,20.2927505 7.3040867,20.6965318 C7.70869271,21.1011561 8.36617747,21.1011561 8.76994054,20.6965318 L11.1166554,18.348868 L12.5715511,18.8512765 L21,10.42329 C20.714247,9.66461946 20.2717092,8.9506262 19.6597426,8.33947495 L19.6597426,8.33947495 Z M9.22680816,11.8293593 C10.157402,11.8293593 10.9126665,11.0740607 10.9126665,10.1434249 C10.9126665,9.21278902 10.157402,8.45749037 9.22680816,8.45749037 C8.29621434,8.45749037 7.5409498,9.21278902 7.5409498,10.1434249 C7.5409498,11.0740607 8.29621434,11.8293593 9.22680816,11.8293593 L9.22680816,11.8293593 Z" opacity=".6"/>
  </g>
</svg>
