<?xml version="1.0" encoding="UTF-8" standalone="no"?>
<svg width="17px" height="17px" viewBox="0 0 17 17" version="1.1" xmlns="http://www.w3.org/2000/svg" xmlns:xlink="http://www.w3.org/1999/xlink">
    <!-- Generator: Sketch 3.8.3 (29802) - http://www.bohemiancoding.com/sketch -->
    <title>cricket-s</title>
    <desc>Created with Sketch.</desc>
    <defs></defs>
    <g id="POI-NIght" stroke="none" stroke-width="1" fill="none" fill-rule="evenodd">
        <g id="cricket-s">
            <path d="M8.5,17 C3.812,17 0,13.188 0,8.5 C0,3.812 3.812,0 8.5,0 C13.188,0 17,3.812 17,8.5 C17,13.188 13.188,17 8.5,17 L8.5,17 Z" id="Shape" fill-opacity="0.1" fill="#FFFFFF"></path>
            <ellipse id="Oval" fill="#252522" cx="8.5" cy="8.5" rx="7.5" ry="7.5"></ellipse>
            <path d="M12.205,4.795 C11.844,4.432 11.42,4.17 10.971,4 L5.971,9 L6.268,9.861 L4.181,11.949 C3.94,12.189 3.94,12.58 4.181,12.819 C4.421,13.059 4.811,13.059 5.051,12.819 L7.138,10.731 L8,11.029 L13,6.03 C12.83,5.58 12.568,5.156 12.205,4.795 L12.205,4.795 Z M5.5,7 C6.328,7 7,6.328 7,5.5 C7,4.672 6.328,4 5.5,4 C4.672,4 4,4.672 4,5.5 C4,6.328 4.672,7 5.5,7 L5.5,7 Z" id="Shape" fill-opacity="0.7" fill="#FFFFFF"></path>
        </g>
    </g>
</svg>