<svg width="24" height="24" viewBox="0 0 24 24">
  <g fill="none" fill-rule="evenodd">
    <circle cx="12" cy="12" r="12" fill="#FFF" opacity=".4"/>
    <circle cx="12" cy="12" r="11" fill="#3D3D36"/>
    <path fill="#FFF" d="M16.8505211,7.14780253 C16.3277023,6.62402167 15.7154897,6.24473209 15.0662553,6 L7.84250724,13.2245635 L8.27322322,14.4698977 L6.26140938,16.4828417 C5.91286354,16.8296207 5.91286354,17.3931367 6.26140938,17.7399157 C6.60814929,18.0866948 7.17160164,18.0866948 7.51834155,17.7399157 L9.52925242,15.7278748 L10.7762519,16.1586394 L18,8.93497893 C17.7543926,8.28386514 17.3751458,7.67158338 16.8505211,7.14780253 L16.8505211,7.14780253 Z M7.97163174,9.5833835 C8.71928966,9.5833835 9.3260845,8.97652017 9.3260845,8.22787477 C9.3260845,7.47922938 8.71928966,6.87236604 7.97163174,6.87236604 C7.22307085,6.87236604 6.61717898,7.47922938 6.61717898,8.22787477 C6.61717898,8.97652017 7.22307085,9.5833835 7.97163174,9.5833835 L7.97163174,9.5833835 Z" opacity=".6"/>
  </g>
</svg>
