<svg width="16" height="16" viewBox="0 0 16 16">
  <g fill="none" fill-rule="evenodd">
    <circle cx="8" cy="8" r="8" fill="#FFF" opacity=".4"/>
    <circle cx="8" cy="8" r="7" fill="#3D3D36"/>
    <path fill="#FFF" d="M11.2933333,4.70666667 C10.9724444,4.384 10.5955556,4.15111111 10.1964444,4 L5.752,8.44444444 L6.016,9.20977778 L4.16088889,11.0657778 C3.94666667,11.2791111 3.94666667,11.6266667 4.16088889,11.8391111 C4.37422222,12.0524444 4.72088889,12.0524444 4.93422222,11.8391111 L6.78933333,9.98311111 L7.55555556,10.248 L12,5.80444444 C11.8488889,5.40444444 11.616,5.02755556 11.2933333,4.70666667 L11.2933333,4.70666667 Z M5.33333333,6.66666667 C6.06933333,6.66666667 6.66666667,6.06933333 6.66666667,5.33333333 C6.66666667,4.59733333 6.06933333,4 5.33333333,4 C4.59733333,4 4,4.59733333 4,5.33333333 C4,6.06933333 4.59733333,6.66666667 5.33333333,6.66666667 L5.33333333,6.66666667 Z" opacity=".6"/>
  </g>
</svg>
