<svg height="24" viewBox="0 0 24 24" width="24"><g fill="none" fill-rule="evenodd"><circle cx="12" cy="12" fill="#fff" opacity=".4" r="12"/><circle cx="12" cy="12" fill="#3d3d36" r="11"/><path d="m17.9676316 13.1101028h-11.94947371c-.01263157.0977868-.01815789.1222335-.01815789.2222428 0 1.4727289 1.27184211 2.6676544 2.84210526 2.6676544h6.31578944c1.5694737 0 2.8421053-1.1941846 2.8421053-2.6676544-.0007895-.1014909-.0213158-.124456-.0323684-.2222428zm-2.4963158-2.2231688h-4.3571053c-.3489473 0-1.0894737-.1326049-1.0894737-.8141495 0-.68154457.7405264-.88748957 1.0894737-.88748957h3.7263158c.3497369 0 .6323684-.26446893.6323684-.59338827 0-.32669692-.2818421-.59190666-.6323684-.59190666h-4.6121052s-3.4934211 3.3232707-4.05394742 4.2929901h11.65894742c-.51-.7133994-1.3768422-1.4060561-2.3621053-1.4060561z" fill="#fff" opacity=".6"/></g></svg>