<svg width="28" height="28" viewBox="0 0 28 28">
  <g fill="none" fill-rule="evenodd">
    <circle cx="14" cy="14" r="14" fill="#FFF" opacity=".4"/>
    <circle cx="14" cy="14" r="13" fill="#3D3D36"/>
    <path fill="#FFF" d="M21.9570526,15.3846154 L6.02442105,15.3846154 C6.00842105,15.536 6,15.6901538 6,15.8461538 C6,18.14 7.69684211,20 9.78947368,20 L18.2105263,20 C20.3031579,20 22,18.14 22,15.8461538 C22,15.6883077 21.9730526,15.5378462 21.9570526,15.3846154 L21.9570526,15.3846154 Z M18.2105263,11.6923077 L12.8210526,11.6923077 C12.3553684,11.6923077 11.9789474,11.2796923 11.9789474,10.7692308 C11.9789474,10.2587692 12.3553684,9.84615385 12.8210526,9.84615385 L17.7894737,9.84615385 C18.2551579,9.84615385 18.6315789,9.43353846 18.6315789,8.92307692 C18.6315789,8.41261538 18.2551579,8 17.7894737,8 L11.6395789,8 L7.40463158,12.6421538 C7.11747368,12.8987692 6.86821053,13.2024615 6.65852632,13.5384615 L21.36,13.5384615 C20.6804211,12.4261538 19.5242105,11.6923077 18.2105263,11.6923077 L18.2105263,11.6923077 Z" opacity=".6"/>
  </g>
</svg>
