<svg width="16" height="16" viewBox="0 0 16 16">
  <g fill="none" fill-rule="evenodd">
    <circle cx="8" cy="8" r="8" fill="#FFF" opacity=".4"/>
    <circle cx="8" cy="8" r="7" fill="#3D3D36"/>
    <path fill="#FFF" d="M11.9775331,8.52993087 L4.01348012,8.52993087 C4.00539205,8.60229446 4,8.94028534 4,9.01441388 C4,10.1104574 4.90586385,11 6.02201752,11 L9.97798248,11 C11.0941361,11 12,10.1104574 12,9.01441388 C12,8.93852037 11.9865199,8.60317694 11.9775331,8.52993087 L11.9775331,8.52993087 Z M9.97798248,6.76496544 L7.37092788,6.76496544 C7.12289373,6.76496544 6.92159065,6.47992352 6.92159065,6.23547581 C6.92159065,5.99102809 7.12289373,5.70598617 7.37092788,5.70598617 L9.75331386,5.70598617 C10.001348,5.70598617 10.2026511,5.59655832 10.2026511,5.35299309 C10.2026511,5.10942786 10.001348,5 9.75331386,5 L6.74005841,5 L4.35048304,7.55919988 L11.6585037,7.55919988 C11.2963379,7.02794529 10.6780499,6.76496544 9.97798248,6.76496544 L9.97798248,6.76496544 Z" opacity=".6"/>
  </g>
</svg>
