<?xml version="1.0" encoding="UTF-8" standalone="no"?>
<svg width="23px" height="23px" viewBox="0 0 23 23" version="1.1" xmlns="http://www.w3.org/2000/svg" xmlns:xlink="http://www.w3.org/1999/xlink" xmlns:sketch="http://www.bohemiancoding.com/sketch/ns">
    <!-- Generator: Sketch 3.4.2 (15857) - http://www.bohemiancoding.com/sketch -->
    <title>curling-m</title>
    <desc>Created with Sketch.</desc>
    <defs>
        <path id="path-1" d="M22,11.5 C22,17.299 17.299,22 11.5,22 C5.701,22 1,17.299 1,11.5 C1,5.701 5.701,1 11.5,1 C17.299,1 22,5.701 22,11.5 L22,11.5 Z"></path>
    </defs>
    <g id="POI" stroke="none" stroke-width="1" fill="none" fill-rule="evenodd" sketch:type="MSPage">
        <g id="curling-m" sketch:type="MSLayerGroup">
            <path d="M11.5,23 C5.159,23 0,17.841 0,11.5 C0,5.159 5.159,0 11.5,0 C17.841,0 23,5.159 23,11.5 C23,17.841 17.841,23 11.5,23 L11.5,23 Z" id="Shape" opacity="0" fill="#FFFFFF" sketch:type="MSShapeGroup"></path>
            <g id="Shape">
                <use fill="#3D3D37" fill-rule="evenodd" sketch:type="MSShapeGroup" xlink:href="#path-1"></use>
                <use fill="none" xlink:href="#path-1"></use>
            </g>
            <path d="M19.06,12.099 L3.924,12.099 C3.908,12.231 3.901,12.264 3.901,12.399 C3.901,14.387 5.512,16 7.501,16 L15.501,16 C17.489,16 19.101,14.388 19.101,12.399 C19.1,12.262 19.074,12.231 19.06,12.099 L19.06,12.099 Z M15.898,9.098 L10.379,9.098 C9.937,9.098 8.999,8.919 8.999,7.999 C8.999,7.079 9.937,6.801 10.379,6.801 L15.099,6.801 C15.542,6.801 15.9,6.444 15.9,6 C15.9,5.559 15.543,5.201 15.099,5.201 L9.257,5.201 C9.257,5.201 4.832,9.687 4.122,10.996 L18.89,10.996 C18.244,10.033 17.146,9.098 15.898,9.098 L15.898,9.098 Z" id="Shape" opacity="0.7" fill="#FFFFFF" sketch:type="MSShapeGroup"></path>
        </g>
    </g>
</svg>