<?xml version="1.0" encoding="UTF-8"?>
<svg width="24px" height="24px" viewBox="0 0 24 24" version="1.1" xmlns="http://www.w3.org/2000/svg" xmlns:xlink="http://www.w3.org/1999/xlink">
    <title>defibrillator-m</title>
    <g id="Page-2:-Night" stroke="none" stroke-width="1" fill="none" fill-rule="evenodd" opacity="0.6">
        <g id="defibrillator-m" fill-rule="nonzero">
            <g id="defibrillator" transform="translate(5.000000, 5.000000)" fill="#C15746">
                <path d="M9.54759725,0.898551933 C8.6101303,0.898551933 7.72088877,1.21245321 7,1.79065959 C6.27911123,1.21245321 5.3898697,0.898551933 4.45240275,0.898551933 C3.36228434,0.898551933 2.33733877,1.32310994 1.56635539,2.09396873 C-0.0249583086,3.68540699 -0.0249583086,6.27474976 1.56635539,7.86606345 L6.66167449,12.961258 C6.75500995,13.054718 6.87750498,13.1014481 7,13.1014481 C7.12249502,13.1014481 7.24486541,13.054718 7.33832551,12.961258 L12.43352,7.86606345 C14.0249583,6.27462515 14.0249583,3.68528239 12.43352,2.09396873 C11.6626612,1.32310994 10.6378403,0.898551933 9.54759725,0.898551933 Z M11.756869,7.18928783 L7,11.9461568 L2.24313101,7.18928783 C1.02490998,5.9710668 1.02490998,3.98896534 2.24313101,2.77074432 C2.83330028,2.18057504 3.61786652,1.85558318 4.45240275,1.85558318 C5.28706361,1.85558318 6.07162986,2.18069968 6.66167449,2.77074432 C6.75139617,2.860466 6.87314353,2.91093443 7,2.91093443 C7.12685647,2.91093443 7.24860383,2.860466 7.33832551,2.77074432 C7.92849478,2.18057504 8.71306102,1.85558318 9.54759725,1.85558318 C10.3821335,1.85558318 11.1666997,2.18069968 11.756869,2.77074432 C12.97509,3.98884074 12.97509,5.9710668 11.756869,7.18928783 Z" id="Shape"></path>
                <path d="M9.31282552,5.67810059 L8.37324015,5.67810059 L9.15282186,4.07706706 C9.22497305,3.92877704 9.21575164,3.75369516 9.12827302,3.61387889 C9.04079436,3.47406259 8.88751984,3.38907624 8.72253164,3.38907624 L6.49382017,3.38907624 C6.28870646,3.38907624 6.10652162,3.51967113 6.04060109,3.7139435 L4.87210083,7.1593806 C4.82225545,7.30605062 4.84655508,7.46767425 4.93727367,7.5932846 C5.02724456,7.71789804 5.17154694,7.7916692 5.32519531,7.7916692 L5.32855988,7.7916692 L6.47849274,7.78369394 L6.02465057,10.0379512 C5.98003897,10.2595138 6.09655255,10.4819489 6.30403392,10.5716705 C6.36546834,10.5980886 6.42989349,10.6107992 6.49357096,10.6107992 C6.64497631,10.6107992 6.79214478,10.5388972 6.88410951,10.40905 L9.70311483,6.43338266 C9.80666861,6.28746031 9.82012686,6.09592946 9.73788199,5.9369227 C9.65576172,5.77804055 9.49177043,5.67810059 9.31282552,5.67810059 L9.31282552,5.67810059 Z M7.4079844,8.0158488 L7.53284709,7.39564769 C7.56125895,7.25446064 7.52449798,7.10791523 7.43290709,6.99676007 C7.34193929,6.88647714 7.20648447,6.82267506 7.06367748,6.82267506 C7.06255596,6.82267506 7.06155906,6.82267506 7.06043751,6.82267506 L5.99436949,6.83002726 L6.83675637,4.3462321 L7.9574051,4.3462321 L7.17782339,5.94726563 C7.1056722,6.09555564 7.11489358,6.27063752 7.20237223,6.41045379 C7.28985089,6.55027009 7.44312541,6.63525644 7.60811361,6.63525644 L8.38694762,6.63525644 L7.4079844,8.0158488 Z" id="Shape"></path>
            </g>
        </g>
    </g>
</svg>