<?xml version="1.0" encoding="UTF-8"?>
<svg width="24px" height="24px" viewBox="0 0 24 24" version="1.1" xmlns="http://www.w3.org/2000/svg" xmlns:xlink="http://www.w3.org/1999/xlink">
    <title>department_store-m</title>
    <g id="Page-2:-Night" stroke="none" stroke-width="1" fill="none" fill-rule="evenodd" opacity="0.6">
        <g id="department_store-m" fill-rule="nonzero">
            <circle id="Oval" fill="#FFFFFF" cx="12" cy="12" r="12"></circle>
            <circle id="Oval" fill="#8C5F93" cx="12" cy="12" r="11"></circle>
            <path d="M10.6363636,6.31973333 L11.0127273,5.93333333 L12.9872727,5.93333333 L13.3636364,6.31973333 L13.3636364,7.8 L14.2727273,7.8 L14.2727273,5.54693333 L13.74,5 L10.26,5 L9.72727273,5.54693333 L9.72727273,7.8 L10.6363636,7.8 L10.6363636,6.31973333 Z M14.2727273,9.66666667 L14.2727273,12.8530667 L13.74,13.4 L10.26,13.4 L9.72727273,12.8530667 L9.72727273,9.66666667 L7,9.66666667 L7,17.1333333 C7,18.1637333 7.81454545,19 8.81818182,19 L15.1818182,19 C16.1854545,19 17,18.1637333 17,17.1333333 L17,9.66666667 L14.2727273,9.66666667 Z M10.6363636,12.0802667 L11.0127273,12.4666667 L12.9872727,12.4666667 L13.3636364,12.0802667 L13.3636364,9.66666667 L10.6363636,9.66666667 L10.6363636,12.0802667 Z" id="Shape" fill="#FFFFFF"></path>
        </g>
    </g>
</svg>