<?xml version="1.0" encoding="UTF-8" standalone="no"?>
<svg width="27px" height="27px" viewBox="0 0 27 27" version="1.1" xmlns="http://www.w3.org/2000/svg" xmlns:xlink="http://www.w3.org/1999/xlink" xmlns:sketch="http://www.bohemiancoding.com/sketch/ns">
    <!-- Generator: Sketch 3.4.2 (15857) - http://www.bohemiancoding.com/sketch -->
    <title>department_store-l</title>
    <desc>Created with Sketch.</desc>
    <defs>
        <path id="path-1" d="M26,13.5 C26,20.403 20.403,26 13.5,26 C6.597,26 1,20.403 1,13.5 C1,6.597 6.597,1 13.5,1 C20.403,1 26,6.597 26,13.5 L26,13.5 Z"></path>
    </defs>
    <g id="POI" stroke="none" stroke-width="1" fill="none" fill-rule="evenodd" sketch:type="MSPage">
        <g id="department_store-l" sketch:type="MSLayerGroup">
            <path d="M13.5,27 C6.057,27 0,20.943 0,13.5 C0,6.057 6.057,0 13.5,0 C20.943,0 27,6.057 27,13.5 C27,20.943 20.943,27 13.5,27 L13.5,27 Z" id="Shape" opacity="0" fill="#FFFFFF" sketch:type="MSShapeGroup"></path>
            <g id="Shape">
                <use fill="#3D3D37" fill-rule="evenodd" sketch:type="MSShapeGroup" xlink:href="#path-1"></use>
                <use fill="none" xlink:href="#path-1"></use>
            </g>
            <path d="M12,6.28694737 L12.414,5.89473684 L14.586,5.89473684 L15,6.28694737 L15,7.78947368 L17,7.78947368 L17,5.50252632 L15.414,4 L11.586,4 L10,5.50252632 L10,7.78947368 L12,7.78947368 L12,6.28694737 L12,6.28694737 Z M17,9.68421053 L17,12.9185263 L15.414,14.4210526 L11.586,14.4210526 L10,12.9185263 L10,9.68421053 L7,9.68421053 L7,20.1052632 C7,21.1511579 7.896,22 9,22 L18,22 C19.104,22 20,21.1511579 20,20.1052632 L20,9.68421053 L17,9.68421053 L17,9.68421053 Z M12,12.1341053 L12.414,12.5263158 L14.586,12.5263158 L15,12.1341053 L15,9.68421053 L12,9.68421053 L12,12.1341053 L12,12.1341053 Z" id="Shape" opacity="0.7" fill="#FFFFFF" sketch:type="MSShapeGroup"></path>
        </g>
    </g>
</svg>