<svg width="16" height="16" viewBox="0 0 16 16">
  <g fill="none" fill-rule="evenodd">
    <circle cx="8" cy="8" r="8" fill="#FFF" opacity=".4"/>
    <circle cx="8" cy="8" r="7" fill="#4E3551"/>
    <path fill="#FFF" d="M9.28571429,4 L9.28571429,5.77777778 L8.42857143,5.77777778 L8.42857143,4.88888889 L7.57142857,4.88888889 L7.57142857,5.77777778 L6.71428571,5.77777778 L6.71428571,4 L9.28571429,4 L9.28571429,4 Z M8.42857143,7.55555556 L7.57142857,7.55555556 L7.57142857,6.66666667 L8.42857143,6.66666667 L8.42857143,7.55555556 L8.42857143,7.55555556 Z M11,6.66666667 L11,11.0426667 C11,11.5724444 10.5877143,12 10.0768571,12 L5.92314286,12 C5.41228571,12 5,11.5724444 5,11.0426667 L5,6.66666667 L6.71428571,6.66666667 L6.71428571,8.44444444 L9.28571429,8.44444444 L9.28571429,6.66666667 L11,6.66666667 L11,6.66666667 Z" opacity=".6"/>
  </g>
</svg>
