<?xml version="1.0" encoding="UTF-8" standalone="no"?>
<svg width="23px" height="23px" viewBox="0 0 23 23" version="1.1" xmlns="http://www.w3.org/2000/svg" xmlns:xlink="http://www.w3.org/1999/xlink" xmlns:sketch="http://www.bohemiancoding.com/sketch/ns">
    <!-- Generator: Sketch 3.4.2 (15857) - http://www.bohemiancoding.com/sketch -->
    <title>diving-m</title>
    <desc>Created with Sketch.</desc>
    <defs>
        <path id="path-1" d="M22,11.5 C22,17.299 17.299,22 11.5,22 C5.701,22 1,17.299 1,11.5 C1,5.701 5.701,1 11.5,1 C17.299,1 22,5.701 22,11.5 L22,11.5 Z"></path>
    </defs>
    <g id="POI" stroke="none" stroke-width="1" fill="none" fill-rule="evenodd" sketch:type="MSPage">
        <g id="diving-m" sketch:type="MSLayerGroup">
            <path d="M11.5,23 C5.159,23 0,17.841 0,11.5 C0,5.159 5.159,0 11.5,0 C17.841,0 23,5.159 23,11.5 C23,17.841 17.841,23 11.5,23 L11.5,23 Z" id="Shape" opacity="0" fill="#FFFFFF" sketch:type="MSShapeGroup"></path>
            <g id="Shape">
                <use fill="#3D3D37" fill-rule="evenodd" sketch:type="MSShapeGroup" xlink:href="#path-1"></use>
                <use fill="none" xlink:href="#path-1"></use>
            </g>
            <path d="M18.892,11.586 C18.828,12.366 18.142,12.947 17.361,12.882 C16.582,12.818 16.001,12.134 16.064,11.352 C16.128,10.573 16.814,9.993 17.595,10.056 C18.374,10.12 18.955,10.806 18.892,11.586 L18.892,11.586 Z M4.482,7.213 L6.353,10.96 L13.341,13.761 L15.427,15.969 L18.177,15.969 C18.618,15.969 18.976,15.699 18.976,15.366 C18.976,15.033 18.621,14.719 18.183,14.664 L15.82,14.369 L14.103,11.484 L7.787,9.24 L5.844,6.542 C5.586,6.184 5.097,6.027 4.75,6.195 C4.404,6.362 4.284,6.818 4.482,7.213 L4.482,7.213 Z M9.359,8.422 L13.502,9.828 C14.049,10.013 14.643,9.721 14.827,9.174 L14.827,9.174 C15.014,8.627 14.721,8.035 14.174,7.849 L10.03,6.444 L9.359,8.422 L9.359,8.422 Z" id="Shape" opacity="0.7" fill="#FFFFFF" sketch:type="MSShapeGroup"></path>
        </g>
    </g>
</svg>