<?xml version="1.0" encoding="UTF-8" standalone="no"?>
<svg width="27px" height="27px" viewBox="0 0 27 27" version="1.1" xmlns="http://www.w3.org/2000/svg" xmlns:xlink="http://www.w3.org/1999/xlink" xmlns:sketch="http://www.bohemiancoding.com/sketch/ns">
    <!-- Generator: Sketch 3.4.2 (15857) - http://www.bohemiancoding.com/sketch -->
    <title>diving-l</title>
    <desc>Created with Sketch.</desc>
    <defs>
        <path id="path-1" d="M26,13.5 C26,20.403 20.403,26 13.5,26 C6.597,26 1,20.403 1,13.5 C1,6.597 6.597,1 13.5,1 C20.403,1 26,6.597 26,13.5 L26,13.5 Z"></path>
    </defs>
    <g id="POI" stroke="none" stroke-width="1" fill="none" fill-rule="evenodd" sketch:type="MSPage">
        <g id="diving-l" sketch:type="MSLayerGroup">
            <path d="M13.5,27 C6.057,27 0,20.943 0,13.5 C0,6.057 6.057,0 13.5,0 C20.943,0 27,6.057 27,13.5 C27,20.943 20.943,27 13.5,27 L13.5,27 Z" id="Shape" opacity="0" fill="#FFFFFF" sketch:type="MSShapeGroup"></path>
            <g id="Shape">
                <use fill="#33332E" fill-rule="evenodd" sketch:type="MSShapeGroup" xlink:href="#path-1"></use>
                <use fill="none" xlink:href="#path-1"></use>
            </g>
            <path d="M22.994,13.166 C22.903,14.267 21.936,15.085 20.836,14.993 C19.736,14.903 18.918,13.937 19.007,12.836 C19.099,11.736 20.066,10.918 21.166,11.008 C22.266,11.099 23.084,12.065 22.994,13.166 L22.994,13.166 Z M4.881,8.055 L7.22,12.739 L15.955,16.24 L18.562,19.001 L22,19.001 C22.553,19.001 23,18.664 23,18.247 C23,17.831 22.556,17.438 22.008,17.37 L19.054,17.001 L16.908,13.395 L9.012,10.59 L6.584,7.217 C6.262,6.769 5.649,6.574 5.217,6.783 C4.785,6.992 4.634,7.561 4.881,8.055 L4.881,8.055 Z M11.227,9.939 L16.406,11.696 C17.09,11.927 17.831,11.562 18.062,10.879 L18.062,10.879 C18.294,10.196 17.928,9.455 17.246,9.223 L12.066,7.466 L11.227,9.939 L11.227,9.939 Z" id="Shape" opacity="0.7" fill="#FFFFFF" sketch:type="MSShapeGroup"></path>
        </g>
    </g>
</svg>