<?xml version="1.0" encoding="UTF-8" standalone="no"?>
<svg
   width="24"
   height="24"
   viewBox="0 0 24 24"
   version="1.1"
   id="svg10"
   sodipodi:docname="diving-m.svg"
   inkscape:version="1.2 (dc2aedaf03, 2022-05-15)"
   xmlns:inkscape="http://www.inkscape.org/namespaces/inkscape"
   xmlns:sodipodi="http://sodipodi.sourceforge.net/DTD/sodipodi-0.dtd"
   xmlns="http://www.w3.org/2000/svg"
   xmlns:svg="http://www.w3.org/2000/svg">
  <defs
     id="defs14" />
  <sodipodi:namedview
     id="namedview12"
     pagecolor="#ffffff"
     bordercolor="#000000"
     borderopacity="0.25"
     inkscape:showpageshadow="2"
     inkscape:pageopacity="0.0"
     inkscape:pagecheckerboard="0"
     inkscape:deskcolor="#d1d1d1"
     showgrid="false"
     inkscape:zoom="31.5"
     inkscape:cx="12.063492"
     inkscape:cy="12"
     inkscape:window-width="1920"
     inkscape:window-height="1011"
     inkscape:window-x="0"
     inkscape:window-y="0"
     inkscape:window-maximized="1"
     inkscape:current-layer="svg10" />
  <title
     id="title2">diving-m</title>
  <g
     id="Page-1"
     stroke="none"
     stroke-width="1"
     fill="none"
     fill-rule="evenodd"
     inkscape:label="Page-2:-Night">
    <g
       id="diving-m"
       fill-rule="nonzero">
      <path
         d="m 12.340366,10.466946 0.12411,1.971214 -1.299826,0.08211 -0.124425,-1.971213 z m 8.590662,1.732786 c -0.664756,0.06853 -1.129296,-0.824549 -1.129296,-2.4246995 -0.548225,-0.494856 -3.135877,2.2099565 -3.135877,2.2099565 l 0.01674,0.036 c -0.58549,0.409907 -1.182349,0.801812 -1.778891,1.194033 0.298429,-0.835603 0.58549,-1.676889 0.835286,-2.530175 0.0072,-0.02685 0.01358,-0.05274 0.01863,-0.07863 l 2.201429,-1.9847905 c -1.467198,-0.5965485 -0.906025,-1.42394 -2.506806,-2.090906 -0.477803,0.1430567 -0.980871,2.96661 -1.084137,3.5682045 -0.03284,0.05495 -0.05937,0.116216 -0.08021,0.18569 -0.272535,0.935079 -0.592122,1.854053 -0.920236,2.769867 -2.16164,-0.636334 -4.4306509,-0.301271 -6.5929218,0.246007 -1.1264526,0.285167 -1.1299263,1.59415 -0.4759081,2.20364 0.084002,0.146215 0.233375,0.258008 0.4610655,0.297482 1.3036154,0.225481 2.458174,0.768969 3.5334674,1.530675 0.794232,0.56149 1.545517,-0.743389 0.759495,-1.300141 -0.372007,-0.263376 -0.760123,-0.501488 -1.1599236,-0.716863 1.1160316,-0.10548 2.2295356,-0.03095 3.3392506,0.386854 0.483488,0.181267 1.018766,-0.05432 1.333302,-0.441486 1.033291,-0.723179 2.112058,-1.381619 3.138086,-2.117744 0.02716,-0.01958 0.05179,-0.0401 0.07421,-0.06063 1.142559,-0.289587 3.670839,-0.93571 3.153246,-0.88234 z M 4.9206852,13.963781 c 0.5633842,-1.153926 1.1921386,-1.1514 2.0485836,-1.149506 0.3720104,0.0015 0.7894957,0.0032 1.2290869,-0.10485 L 10.9278,12.537004 10.803376,10.56516 7.2695929,10.788114 c -0.544752,0.03442 -0.9581319,0.503698 -0.92371,1.048134 0.00885,0.138319 0.045791,0.267797 0.1045298,0.383695 -0.7714953,0.042 -1.5316217,0.285482 -2.1357439,1.617835 -0.546331,0.01484 -1.0512925,0.362536 -1.236982,0.910762 C 2.9491564,15.126866 3,15.521614 3.1828472,15.843728 L 3,16.383428 l 1.2726671,0.431696 0.098529,-0.291482 c 0.056528,-9.48e-4 0.1124241,-0.0054 0.1680047,-0.01327 0.1964265,0.17369 0.4948559,0.178742 0.6960194,9.48e-4 0.1446357,-0.127273 0.2002161,-0.317694 0.1661099,-0.494225 0.094108,-0.117797 0.1708469,-0.25327 0.222322,-0.404537 0.222322,-0.655597 -0.090319,-1.362986 -0.702967,-1.648783 z"
         id="Shape"
         fill="#FFFFFF"
         style="opacity:0.6;fill:#ffffff;fill-opacity:1;stroke-width:1.28571" />
    </g>
  </g>
</svg>
