<?xml version="1.0" encoding="UTF-8"?>
<svg version="1.1" viewBox="0 0 24 24" xmlns="http://www.w3.org/2000/svg">
    <title>dog_park-m</title>
    <g fill="none" fill-rule="evenodd" >
        <g id="dog_park-m" fill-rule="nonzero">
            <path id="Shape"
                d="m19.05 6.3925h-1.88l-0.2103-0.42036c-0.1592-0.31845-0.4847-0.51962-0.8407-0.51964h-1.5752l-0.8013-0.80135c-0.2964-0.29609-0.8025-0.08636-0.8025 0.33223v4.4015l3.76 1.3427v-1.0452h0.9399c1.0384 0 1.88-0.84159 1.88-1.88v-0.93999c0-0.25968-0.2103-0.47-0.47-0.47zm-3.29 1.41c-0.2597 0-0.47-0.21032-0.47-0.47 0-0.25967 0.2103-0.47 0.47-0.47s0.47 0.21033 0.47 0.47c0 0.25968-0.2103 0.47-0.47 0.47zm-8.46 2.35c-0.51817 0-0.94-0.42181-0.94-0.93998 0-0.51905-0.42094-0.93999-0.93999-0.93999s-0.94 0.42094-0.94 0.93999c0 1.2237 0.78813 2.2575 1.88 2.6467v6.2833c0 0.2596 0.21032 0.47 0.47 0.47h1.88c0.25967 0 0.47-0.2104 0.47-0.47v-3.29h4.7v3.29c0 0.2596 0.2103 0.47 0.47 0.47h1.88c0.2597 0 0.47-0.2104 0.47-0.47v-6.4169l-4.4048-1.5731z"
                fill="#777777" />
        </g>
    </g>
</svg>