<svg version="1.1" viewBox="0 0 24 24" xmlns="http://www.w3.org/2000/svg">
 <title>dog_park-m</title>
 <g id="Page-2:-Night" fill="none" fill-rule="evenodd" opacity=".6">
  <g id="dog_park-m" fill-rule="nonzero">
   <circle id="Oval" cx="12" cy="12" r="12" fill="#fff"/>
   <circle id="Oval" cx="12" cy="12" r="11" fill="#717065"/>
   <path id="Shape" d="m18.562 6.75h-1.75l-0.19578-0.39129c-0.1482-0.29643-0.45116-0.48369-0.78258-0.48371h-1.4662l-0.74594-0.74594c-0.2759-0.27562-0.74703-0.080391-0.74703 0.30926v4.0972l3.5 1.2499v-0.97289h0.875c0.9666 0 1.75-0.7834 1.75-1.75v-0.875c0-0.24172-0.19578-0.4375-0.4375-0.4375zm-3.0625 1.3125c-0.24172 0-0.4375-0.19578-0.4375-0.4375s0.19578-0.4375 0.4375-0.4375 0.4375 0.19578 0.4375 0.4375-0.19578 0.4375-0.4375 0.4375zm-7.875 2.1875c-0.48234 0-0.875-0.39266-0.875-0.875 0-0.48316-0.39184-0.875-0.875-0.875s-0.875 0.39184-0.875 0.875c0 1.1391 0.73363 2.1014 1.75 2.4637v5.8488c0 0.24172 0.19578 0.4375 0.4375 0.4375h1.75c0.24172 0 0.4375-0.19578 0.4375-0.4375v-3.0625h4.375v3.0625c0 0.24172 0.19578 0.4375 0.4375 0.4375h1.75c0.24172 0 0.4375-0.19578 0.4375-0.4375v-5.9732l-4.1002-1.4643h-4.6498z" fill="#fff"/>
  </g>
 </g>
</svg>
