<?xml version="1.0" encoding="UTF-8" standalone="no"?>
<svg width="23px" height="23px" viewBox="0 0 23 23" version="1.1" xmlns="http://www.w3.org/2000/svg" xmlns:xlink="http://www.w3.org/1999/xlink" xmlns:sketch="http://www.bohemiancoding.com/sketch/ns">
    <!-- Generator: Sketch 3.4.2 (15857) - http://www.bohemiancoding.com/sketch -->
    <title>dog_park-m</title>
    <desc>Created with Sketch.</desc>
    <defs>
        <path id="path-1" d="M22,11.5 C22,17.299 17.299,22 11.5,22 C5.701,22 1,17.299 1,11.5 C1,5.701 5.701,1 11.5,1 C17.299,1 22,5.701 22,11.5 L22,11.5 Z"></path>
    </defs>
    <g id="POI" stroke="none" stroke-width="1" fill="none" fill-rule="evenodd" sketch:type="MSPage">
        <g id="dog_park-m" sketch:type="MSLayerGroup">
            <path d="M11.5,23 C5.159,23 0,17.841 0,11.5 C0,5.159 5.159,0 11.5,0 C17.841,0 23,5.159 23,11.5 C23,17.841 17.841,23 11.5,23 L11.5,23 Z" id="Shape" opacity="0" fill="#FFFFFF" sketch:type="MSShapeGroup"></path>
            <g id="Shape">
                <use fill="#3D3D37" fill-rule="evenodd" sketch:type="MSShapeGroup" xlink:href="#path-1"></use>
                <use fill="none" xlink:href="#path-1"></use>
            </g>
            <path d="M15.215,11.799 L15.334,11.491 L12.615,9.058 L7.419,9.692 L6.949,7 L6,7 L6,12.034 L5,17 L5.761,17 C6.18,17 6.651,16.666 6.811,16.254 L7.986,13.22 L13.367,14.194 L13.972,16.233 C14.098,16.657 14.557,17.001 14.999,17.001 L15.4,17.001 L14.961,12.457 L15.215,11.799 L15.215,11.799 Z M16.159,7.077 L15.8,6 L15,6 L15,6.729 C14.785,6.95 14.312,7.425 13.847,7.888 L15.987,9.803 L15.988,9.8 L17.296,9.8 C18.017,9.8 18.602,9.262 18.602,8.599 L18.602,8.2 L16.159,7.077 L16.159,7.077 Z" id="Shape" opacity="0.7" fill="#FFFFFF" sketch:type="MSShapeGroup"></path>
        </g>
    </g>
</svg>