<?xml version="1.0" encoding="UTF-8"?>
<svg width="24px" height="24px" viewBox="0 0 24 24" version="1.1" xmlns="http://www.w3.org/2000/svg" xmlns:xlink="http://www.w3.org/1999/xlink">
    <title>doityourself-m</title>
    <g id="Page-2:-Night" stroke="none" stroke-width="1" fill="none" fill-rule="evenodd" opacity="0.6">
        <g id="doityourself-m" fill-rule="nonzero">
            <circle id="Oval" fill="#FFFFFF" cx="12" cy="12" r="12"></circle>
            <circle id="Oval" fill="#8C5F93" cx="12" cy="12" r="11"></circle>
            <g id="Group" transform="translate(6.000000, 5.000000)" fill="#FFFFFF">
                <path d="M10.57,0.318888889 L8.55555556,2.33333333 L8.55555556,1.55555556 C8.55555556,0.7 7.85555556,0 7,0 L3.88888889,0 C1.74222222,0 0,1.74222222 0,3.88888889 L3.88888889,3.88888889 L3.88888889,6.22222222 L8.55555556,6.22222222 L8.55555556,3.88888889 L10.57,5.90333333 C10.7722222,6.10555556 11.0522222,6.22222222 11.3477778,6.22222222 L11.3555556,6.22222222 C11.9544444,6.22222222 12.4444444,5.73222222 12.4444444,5.12555556 L12.4444444,1.09666667 C12.4444444,0.49 11.9544444,0 11.3477778,0 L11.34,0 C11.0522222,0 10.7722222,0.116666667 10.57,0.318888889 Z" id="Path"></path>
                <path d="M3.88888889,7.77777778 L3.88888889,13.2222222 C3.88888889,13.65 4.23888889,14 4.66666667,14 L7.77777778,14 C8.20555556,14 8.55555556,13.65 8.55555556,13.2222222 L8.55555556,7.77777778 L3.88888889,7.77777778 Z" id="Path"></path>
            </g>
        </g>
    </g>
</svg>