<?xml version="1.0" encoding="UTF-8"?>
<svg width="24px" height="24px" viewBox="0 0 24 24" version="1.1" xmlns="http://www.w3.org/2000/svg" xmlns:xlink="http://www.w3.org/1999/xlink">
    <title>electronics-m</title>
    <g id="Page-2:-Night" stroke="none" stroke-width="1" fill="none" fill-rule="evenodd" opacity="0.6">
        <g id="electronics-m" fill-rule="nonzero">
            <circle id="Oval" fill="#FFFFFF" cx="12" cy="12" r="12"></circle>
            <circle id="Oval" fill="#8C5F93" cx="12" cy="12" r="11"></circle>
            <path d="M11.3455755,5.01241075 C8.30368849,5.20968795 6,7.87611192 6,10.9243627 L6,15.1817318 C6,16.2381193 6.85274657,17.0908659 7.90913411,17.0908659 L8.54551215,17.0908659 C9.24552799,17.0908659 9.81826822,16.5181257 9.81826822,15.8181098 L9.81826822,13.2725977 C9.81826822,12.5725818 9.24552799,11.9998416 8.54551215,11.9998416 L7.27275607,11.9998416 L7.27275607,10.9116352 C7.27275607,8.46794349 9.15643506,6.34244085 11.5937629,6.27243927 C14.1201837,6.20243768 16.1820486,8.21975606 16.1820486,10.7270855 L16.1820486,11.9998416 L14.9092925,11.9998416 C14.2092767,11.9998416 13.6365364,12.5725818 13.6365364,13.2725977 L13.6365364,15.8181098 C13.6365364,16.5181257 14.2092767,17.0908659 14.9092925,17.0908659 L16.1820486,17.0908659 L16.1820486,17.7272439 L12.3637804,17.7272439 C12.0137724,17.7272439 11.7274023,18.013614 11.7274023,18.363622 C11.7274023,18.7136299 12.0137724,19 12.3637804,19 L15.5456705,19 C16.6020581,19 17.4548047,18.1472534 17.4548047,17.0908659 L17.4548047,10.7270855 C17.4548047,7.43701107 14.6801964,4.79604222 11.3455755,5.01241075 Z" id="Path" fill="#FFFFFF"></path>
        </g>
    </g>
</svg>