<svg width="28" height="28" viewBox="0 0 28 28">
  <g fill="none" fill-rule="evenodd">
    <circle cx="14" cy="14" r="14" fill="#FFF" opacity=".4"/>
    <circle cx="14" cy="14" r="13" fill="#4E3551"/>
    <path fill="#FFF" d="M8.78947368,17.2941176 L8.78947368,20.1176471 C8.78947368,21.1567059 9.42610526,22 10.2105263,22 L11.6315789,22 L11.6315789,15.4117647 L10.2105263,15.4117647 C9.42610526,15.4117647 8.78947368,16.2550588 8.78947368,17.2941176 L8.78947368,17.2941176 Z M17.7894737,15.4117647 L16.3684211,15.4117647 L16.3684211,22 L17.7894737,22 C18.5738947,22 19.2105263,21.1567059 19.2105263,20.1176471 L19.2105263,17.2941176 C19.2105263,16.2550588 18.5738947,15.4117647 17.7894737,15.4117647 L17.7894737,15.4117647 Z M14,6 C9.03768421,6 5,10.0112941 5,14.9411765 L5.96915789,19.3807059 L6.89473684,19.1764706 L6.89473684,14.4705882 L6.91936842,14.4705882 C7.16473684,10.7981176 10.2417895,7.88235294 14,7.88235294 C17.7582105,7.88235294 20.8352632,10.7981176 21.0806316,14.4705882 L21.1052632,14.4705882 L21.1052632,19.1764706 L22.0308421,19.3807059 L22.9782105,15.1454118 L23,14.9411765 C23,10.0112941 18.9623158,6 14,6 L14,6 Z" opacity=".6"/>
  </g>
</svg>
