<svg width="16" height="16" viewBox="0 0 16 16">
  <g fill="none" fill-rule="evenodd">
    <circle cx="8" cy="8" r="8" fill="#FFF" opacity=".4"/>
    <circle cx="8" cy="8" r="7" fill="#4E3551"/>
    <path fill="#FFF" d="M5.77777778,9.23832893 L5.77777778,10.1658487 C5.77777778,10.6265257 6.06044444,11 6.40977778,11 L7.55555556,11 L7.55555556,8.40417768 L6.40977778,8.40417768 C6.06044444,8.40417768 5.77777778,8.77677111 5.77777778,9.23832893 L5.77777778,9.23832893 Z M9.59022222,8.40417768 L8.44444444,8.40417768 L8.44444444,11 L9.59022222,11 C9.93955556,11 10.2222222,10.6265257 10.2222222,10.1658487 L10.2222222,9.23832893 C10.2222222,8.77677111 9.93955556,8.40417768 9.59022222,8.40417768 L9.59022222,8.40417768 Z M8,4 C5.79466667,4 4,5.77840695 4,7.96375991 L4.43022222,9.9315465 L4.84177778,9.84082044 L4.84177778,7.75412105 L4.85333333,7.75412105 C4.96177778,6.12633698 6.32977778,4.83415125 8,4.83415125 C9.67022222,4.83415125 11.0382222,6.12721782 11.1466667,7.75412105 L11.1582222,7.75412105 L11.1582222,9.84082044 L11.5697778,9.9315465 L11.9911111,8.05360513 L12,7.96375991 C12,5.77840695 10.2053333,4 8,4 L8,4 Z" opacity=".6"/>
  </g>
</svg>
