<svg width="24" height="24" viewBox="0 0 24 24">
  <g fill="none" fill-rule="evenodd">
    <circle cx="12" cy="12" r="12" fill="#FFF" opacity=".4"/>
    <circle cx="12" cy="12" r="11" fill="#4E3551"/>
    <path fill="#FFF" d="M17.1333333,14.2288408 L17.1333333,16.6278123 C17.1333333,17.3854725 16.6321333,18 16.0133333,18 L14.3333333,18 L14.3333333,12.8575102 L16.0133333,12.8575102 C16.6321333,12.8575102 17.1333333,13.4703235 17.1333333,14.2288408 L17.1333333,14.2288408 Z M7.98666667,17.9991429 L9.66666667,17.9991429 L9.66666667,12.8566531 L7.98666667,12.8566531 C7.36786667,12.8566531 6.86666667,13.4711806 6.86666667,14.2288408 L6.86666667,16.6278123 C6.86666667,17.3854725 7.36786667,17.9991429 7.98666667,17.9991429 L7.98666667,17.9991429 Z M12,6 C8.08933333,6 5,8.9217913 5,12.5146775 L5,15.427898 L5.93333333,15.427898 L5.93333333,12.1709878 L5.95293333,12.1709878 C6.14613333,9.49517892 9.0376,7.37133062 12,7.37133062 C14.9624,7.37133062 17.8529333,9.49517892 18.0470667,12.1709878 L18.0666667,12.1709878 L18.0666667,15.427898 L19,15.427898 L18.9832,12.6620956 L19,12.5138204 C19,8.9217913 15.9116,6 12,6 L12,6 Z" opacity=".6"/>
  </g>
</svg>
