<?xml version="1.0" encoding="UTF-8" standalone="no"?>
<svg width="27px" height="27px" viewBox="0 0 27 27" version="1.1" xmlns="http://www.w3.org/2000/svg" xmlns:xlink="http://www.w3.org/1999/xlink" xmlns:sketch="http://www.bohemiancoding.com/sketch/ns">
    <!-- Generator: Sketch 3.4.2 (15857) - http://www.bohemiancoding.com/sketch -->
    <title>electronics-l</title>
    <desc>Created with Sketch.</desc>
    <defs>
        <path id="path-1" d="M26,13.5 C26,20.403 20.403,26 13.5,26 C6.597,26 1,20.403 1,13.5 C1,6.597 6.597,1 13.5,1 C20.403,1 26,6.597 26,13.5 L26,13.5 Z"></path>
    </defs>
    <g id="POI" stroke="none" stroke-width="1" fill="none" fill-rule="evenodd" sketch:type="MSPage">
        <g id="electronics-l" sketch:type="MSLayerGroup">
            <path d="M13.5,27 C6.057,27 0,20.943 0,13.5 C0,6.057 6.057,0 13.5,0 C20.943,0 27,6.057 27,13.5 C27,20.943 20.943,27 13.5,27 L13.5,27 Z" id="Shape" opacity="0" fill="#FFFFFF" sketch:type="MSShapeGroup"></path>
            <g id="Shape">
                <use fill="#33332E" fill-rule="evenodd" sketch:type="MSShapeGroup" xlink:href="#path-1"></use>
                <use fill="none" xlink:href="#path-1"></use>
            </g>
            <path d="M8,16 L8,19 C8,20.104 8.672,21 9.5,21 L11,21 L11,14 L9.5,14 C8.672,14 8,14.896 8,16 L8,16 Z M17.5,14 L16,14 L16,21 L17.5,21 C18.328,21 19,20.104 19,19 L19,16 C19,14.896 18.328,14 17.5,14 L17.5,14 Z M13.5,4 C8.262,4 4,8.262 4,13.5 L5.023,18.217 L6,18 L6,13 L6.026,13 C6.285,9.098 9.533,6 13.5,6 C17.467,6 20.715,9.098 20.974,13 L21,13 L21,18 L21.977,18.217 L22.977,13.717 L23,13.5 C23,8.262 18.738,4 13.5,4 L13.5,4 Z" id="Shape" opacity="0.7" fill="#FFFFFF" sketch:type="MSShapeGroup"></path>
        </g>
    </g>
</svg>