<svg width="28" height="28" viewBox="0 0 28 28">
  <g fill="none" fill-rule="evenodd">
    <circle cx="14" cy="14" r="14" fill="#FFF" opacity=".4"/>
    <circle cx="14" cy="14" r="13" fill="#3D3C36"/>
    <path fill="#FFF" d="M12.6922736,6.14580811 L10.8461368,7.02659654 L9,7.90738498 L9,21.1192116 C9,21.5596058 9.4615342,22 9.9230684,22 C10.3846026,22 10.8461368,21.5596058 10.8461368,21.1192116 L10.8461368,13.1921156 C10.8461368,13.1921156 11.7692126,12.7517214 12.6923475,12.3113272 C14.5384104,11.4306268 16.5795463,14.8605932 18.2307948,14.072816 C20.0770054,13.1920275 21,12.7517214 21,12.7517214 L21,6.58620233 C21,6.58620233 20.0768208,7.02659654 18.230684,7.90738498 C16.5794356,8.69516216 14.5385581,5.26501967 12.6922736,6.14580811 L12.6922736,6.14580811 Z" opacity=".6"/>
  </g>
</svg>
