<?xml version="1.0" encoding="UTF-8" standalone="no"?>
<svg width="27px" height="27px" viewBox="0 0 27 27" version="1.1" xmlns="http://www.w3.org/2000/svg" xmlns:xlink="http://www.w3.org/1999/xlink" xmlns:sketch="http://www.bohemiancoding.com/sketch/ns">
    <!-- Generator: Sketch 3.4.2 (15857) - http://www.bohemiancoding.com/sketch -->
    <title>embassy-l</title>
    <desc>Created with Sketch.</desc>
    <defs>
        <circle id="path-1" cx="13.5" cy="13.5" r="12.5"></circle>
    </defs>
    <g id="POI" stroke="none" stroke-width="1" fill="none" fill-rule="evenodd" sketch:type="MSPage">
        <g id="embassy-l-copy" sketch:type="MSLayerGroup">
            <circle id="Oval-1-Copy-39" opacity="0" fill="#FFFFFF" sketch:type="MSShapeGroup" cx="13.5" cy="13.5" r="13.5"></circle>
            <g id="Oval-1-Copy-38">
                <use fill="#33332E" fill-rule="evenodd" sketch:type="MSShapeGroup" xlink:href="#path-1"></use>
                <use fill="none" xlink:href="#path-1"></use>
            </g>
            <path d="M12,5.16554271 L10,6.16554271 L8,7.16554271 L8,22.1655427 C8,22.6655427 8.5,23.1655427 9,23.1655427 C9.5,23.1655427 10,22.6655427 10,22.1655427 L10,13.1655427 C10,13.1655427 11.000008,12.6655427 12.00008,12.1655427 C14,11.1656427 16.211251,15.0598427 18.00012,14.1654427 C20.0002,13.1654427 21.00012,12.6655427 21.00012,12.6655427 L21.00012,5.66554271 C21.00012,5.66554271 20,6.16554271 18,7.16554271 C16.211131,8.05994271 14.00016,4.16554271 12,5.16554271 L12,5.16554271 Z" id="rect9498-4-copy" opacity="0.7" fill="#FFFFFF" sketch:type="MSShapeGroup"></path>
        </g>
    </g>
</svg>