<?xml version="1.0" encoding="UTF-8" standalone="no"?>
<svg width="25px" height="25px" viewBox="0 0 25 25" version="1.1" xmlns="http://www.w3.org/2000/svg" xmlns:xlink="http://www.w3.org/1999/xlink" xmlns:sketch="http://www.bohemiancoding.com/sketch/ns">
    <!-- Generator: Sketch 3.4.2 (15857) - http://www.bohemiancoding.com/sketch -->
    <title>equestrian-m</title>
    <desc>Created with Sketch.</desc>
    <defs>
        <circle id="path-1" cx="12.5" cy="12.5" r="11.5"></circle>
    </defs>
    <g id="POI" stroke="none" stroke-width="1" fill="none" fill-rule="evenodd" sketch:type="MSPage">
        <g id="equestrian-m" sketch:type="MSLayerGroup">
            <circle id="Oval-1-Copy-38" opacity="0" fill="#FFFFFF" sketch:type="MSShapeGroup" cx="12.5" cy="12.5" r="12.5"></circle>
            <g id="Oval-1-Copy-47">
                <use fill="#3D3D37" fill-rule="evenodd" sketch:type="MSShapeGroup" xlink:href="#path-1"></use>
                <use fill="none" xlink:href="#path-1"></use>
            </g>
            <path d="M17.7401761,15 L17,18 L17.9993304,18 C17.9993304,18 19.0056826,14.4541832 18.9998217,14.5 C18.9790688,13.9049206 18.2521674,14.0083414 18.016754,14.0067731 C17.677836,14.0045154 17,14 17,14 C17,14 15.8694676,10.3501363 15.8694676,10.2023234 C15.8694676,9.81801007 16.1800029,9.5039078 16.5633889,9.5039078 C16.7399966,9.5039078 16.8996795,9.57116264 17.0233049,9.67832694 L17.666296,10.6459883 C17.7884497,10.8580997 18.0187756,11 18.2829514,11 C18.6781112,11 19.0033638,10.6762899 19.0033638,10.2764562 L18.9996844,7.79172248 C18.9783443,7.79172248 18.9319848,7.7872881 18.9319848,7.7872881 C18.700923,7.75476927 18.5221077,7.55448289 18.5221077,7.31428703 C18.5221077,7.21229618 18.5508064,7.1191741 18.6037888,7.04231142 L19.6398875,6.60921983 L16,6 C13.94937,6.08764279 13.043726,7.73901797 13.043726,9.88452122 C13.043726,9.96463477 13,11 13,11 L7.03614238,11 C6.68612143,11 6.37488359,11.0149269 6.12728691,11.1350632 C5.87969023,11.2551994 5.83493556,11.6602577 5.75240334,12 C5.50160223,12.9935911 5,15 5,15 L6,15 L7,12 L7,15 L5.99999997,16.0006247 L7.0602796,20 L8,20 L7.27001953,16.9733391 L8,16.0006247 L9,20 L10.0772519,20 L8.94777015,16.0006247 L14.916664,16.0006247 L15,20 L16,20 L16.0863236,15 L17.7401761,15 Z" id="Shape" opacity="0.7" fill="#FFFFFF" sketch:type="MSShapeGroup"></path>
        </g>
    </g>
</svg>