<?xml version="1.0" encoding="UTF-8"?>
<svg width="24px" height="24px" viewBox="0 0 24 24" version="1.1" xmlns="http://www.w3.org/2000/svg" xmlns:xlink="http://www.w3.org/1999/xlink">
    <title>equestrian-m</title>
    <g id="Page-2:-Night" stroke="none" stroke-width="1" fill="none" fill-rule="evenodd" opacity="0.6">
        <g id="equestrian-m" fill-rule="nonzero">
            <circle id="Oval" fill="#FFFFFF" cx="12" cy="12" r="12"></circle>
            <circle id="Oval" fill="#717065" cx="12" cy="12" r="11"></circle>
            <g id="equestrian-race" transform="translate(5.000000, 6.000000)" fill="#FFFFFF">
                <path d="M8.33803122,2.76044656 C8.84701199,3.17621963 9.59698122,3.10080809 10.0124851,2.59206963 C10.1484466,2.42600809 10.2264428,2.23342732 10.2596658,2.03597348 L10.381412,2.09132732 C10.5111812,2.15028886 10.6615197,2.08901194 10.6682235,1.94691194 C10.6728543,1.84702732 10.6609812,1.72420425 10.6084812,1.59214656 C10.5147889,1.35581579 10.8023274,0.479442709 9.89636584,0.067519632 C9.24838122,-0.226991907 8.41960815,0.520123478 8.15934276,0.807177324 C8.07978507,0.895242709 8.09779661,1.00619271 8.17940045,1.07570809 C8.17633122,1.07931579 8.1724543,1.08187348 8.16935815,1.0857504 C7.75361199,1.59470425 7.82905045,2.34467348 8.33803122,2.76044656 Z" id="Path"></path>
                <path d="M7.29742738,3.07558117 L5.55267738,5.82851963 C5.38147353,5.81616194 5.21438891,5.80792348 5.05734661,5.80792348 C4.00976968,5.80792348 3.44441199,6.07618502 3.14112353,6.33569656 C2.89243507,6.24534271 2.08918507,5.99740809 1.43422738,6.28755809 C1.08409276,6.44282348 0.834354299,6.72573117 0.692254299,7.1281504 L0.611431222,7.35753502 C0.13357353,8.70783502 -0.106122624,9.38573117 0.0449966067,10.0030773 C0.0539889144,10.0393966 0.0781927605,10.0700081 0.111685068,10.0869966 C0.129965837,10.0965273 0.150050453,10.1011581 0.170135068,10.1011581 C0.186611991,10.1011581 0.203088914,10.0980619 0.218785068,10.0916273 C0.234481222,10.0852196 1.79798507,9.42713886 1.80056968,7.80418886 C1.80108122,7.60363886 1.85463122,7.47179656 1.96482738,7.40179656 C2.19343122,7.25606194 2.63238507,7.38219656 2.85509276,7.47104271 L2.85509276,7.90434271 C2.85509276,8.04181194 2.8430043,8.26581194 2.82806199,8.40379271 L2.76780815,8.95525809 C2.75493891,9.07291194 2.68208507,9.26032348 2.61154661,9.35611579 L0.468496607,12.265585 C0.317619684,12.4705235 0.355742761,12.6214004 0.392035068,12.6932312 C0.428327376,12.7650619 0.527215837,12.8855427 0.781558145,12.8855427 L1.18163507,12.8855427 C1.50500815,12.8855427 1.91693122,12.6883581 2.11979661,12.4368158 L4.35834276,9.66093886 C4.4162543,9.58910809 4.54963122,9.53531579 4.65336584,9.55203502 C4.72853507,9.56388117 4.82535045,9.57753117 4.93681199,9.5914504 L4.70021199,9.85944271 C4.41803122,10.1794773 4.43195045,10.6482889 4.73214276,10.9070196 C5.03182353,11.1659927 5.5009043,11.1137619 5.77893891,10.7909273 L6.72609276,9.69184656 C7.02989276,9.69082348 7.33985815,9.68183117 7.64880045,9.66352348 C8.92831968,9.58835425 9.62732353,9.38624271 9.98852353,9.23022348 C10.0721735,9.1942004 10.1903658,9.21145809 10.2423812,9.26858886 L11.9039658,11.0949696 C11.9577851,11.1544427 11.9629274,11.2623235 11.9145466,11.3264273 L11.2011389,12.2684389 C11.0471658,12.4715735 11.0837543,12.6221812 11.1195351,12.6934735 C11.1550466,12.7650619 11.2528851,12.8852735 11.5077658,12.8852735 L11.9397735,12.8852735 C12.2613428,12.8852735 12.6789197,12.6960581 12.8910735,12.4543158 L13.7772197,11.4438119 C13.9126158,11.289085 13.9164928,11.0434658 13.7859697,10.8846196 L11.6382889,8.2740504 C11.5734043,8.19500425 11.6511581,8.08278886 11.6673658,8.06114271 C11.7466543,7.95530809 11.7878735,7.83870425 11.7907005,7.71434656 C11.7927466,7.61731579 11.7636697,7.50555809 11.7358581,7.39743502 C11.7170658,7.32560425 11.6980312,7.25118886 11.6936428,7.19944271 C11.671512,6.92886579 11.6900351,6.65492348 11.7124351,6.45876194 C11.9145466,6.61321963 12.1889735,6.62428502 12.4103889,6.63306194 C12.5053735,6.63693886 12.5949735,6.64051963 12.6642466,6.65416963 C12.756162,6.67218117 12.9677774,6.8058004 13.0815812,6.87763117 L13.1191658,6.90132348 C13.3923274,7.07201579 13.7144081,7.08151963 13.8709389,6.91443502 C14.0158928,6.75970809 14.014062,6.48783886 13.8655543,6.18713502 C13.8264081,6.10835809 13.7839235,6.02161194 13.7466081,5.94383117 C13.6902043,5.82668886 13.6400197,5.62048502 13.6258581,5.49636963 C13.596512,5.23917348 13.5455466,5.00103886 13.4747389,4.78837348 C13.4371543,4.67561963 13.4101235,4.47918886 13.4317428,4.35921963 L13.5048658,3.96016579 C13.5344812,3.79924656 13.5056197,3.65663502 13.4242851,3.55879656 C13.3159197,3.42878502 13.1253581,3.39378502 12.9209851,3.46868502 L12.5160081,3.61748886 C12.4158543,3.65431963 12.2142812,3.67488886 12.0762735,3.66177732 C12.0026389,3.65507348 11.9251543,3.65098117 11.8445735,3.65098117 C11.2094312,3.65098117 10.6350543,3.90508117 10.1837428,4.38576579 C9.73991584,4.85869656 9.3411043,5.24797732 8.83726584,5.51701963 L8.70313507,5.37489271 L9.09419276,4.10565809 C9.10937738,4.05622732 9.11427738,4.00679656 9.11481584,3.95760809 L9.13541199,3.92543502 C9.17350815,3.78847732 9.10014276,3.6288504 8.97166584,3.56937732 L8.89854276,3.5354004 C8.85506199,3.50451963 8.80740815,3.47824271 8.75385815,3.46176579 C8.74537738,3.45918117 8.73686968,3.45893886 8.72838891,3.45662348 L7.66974661,2.96592348 C7.53968122,2.90669271 7.37337738,2.95561194 7.29742738,3.07558117 Z" id="Path"></path>
            </g>
        </g>
    </g>
</svg>