<?xml version="1.0" encoding="UTF-8" standalone="no"?>
<svg width="27px" height="27px" viewBox="0 0 27 27" version="1.1" xmlns="http://www.w3.org/2000/svg" xmlns:xlink="http://www.w3.org/1999/xlink" xmlns:sketch="http://www.bohemiancoding.com/sketch/ns">
    <!-- Generator: Sketch 3.4.2 (15857) - http://www.bohemiancoding.com/sketch -->
    <title>equestrian-l</title>
    <desc>Created with Sketch.</desc>
    <defs>
        <circle id="path-1" cx="13.5" cy="13.5" r="12.5"></circle>
    </defs>
    <g id="POI" stroke="none" stroke-width="1" fill="none" fill-rule="evenodd" sketch:type="MSPage">
        <g id="equestrian-l" sketch:type="MSLayerGroup">
            <ellipse id="Oval-1-Copy-46" fill="#FFFFFF" sketch:type="MSShapeGroup" cx="13.5" cy="13.5" rx="13.5" ry="13.5"></ellipse>
            <g id="Oval-1-Copy-38">
                <use fill="#33332E" fill-rule="evenodd" sketch:type="MSShapeGroup" xlink:href="#path-1"></use>
                <use fill="none" xlink:href="#path-1"></use>
            </g>
            <g id="icons2-01" transform="translate(6.000000, 7.000000)" fill="#FFFFFF" opacity="0.7" sketch:type="MSShapeGroup">
                <path d="M12.7401761,9 L12,12 L12.9993304,12 C12.9993304,12 14.0056826,8.45418318 13.9998217,8.5 C13.9790688,7.90492058 13.2521674,8.00834135 13.016754,8.00677314 C12.677836,8.00451542 12,8 12,8 C12,8 11.5863384,4.15700956 11.5863384,4.00919673 C11.5863384,3.62488336 11.8968737,3.3107811 12.2802596,3.3107811 C12.4568674,3.3107811 12.6165502,3.37803594 12.7401756,3.48520024 L13.3831667,4.45286156 C13.5053204,4.66497298 13.7356463,4.8068733 13.9998221,4.8068733 C14.3949819,4.8068733 14.7202345,4.48316319 14.7202345,4.08332948 L14.7165552,1.59859578 C14.6952151,1.59859578 14.6488556,1.59416139 14.6488556,1.59416139 C14.4177938,1.56164257 14.2389784,1.36135618 14.2389784,1.12116033 C14.2389784,1.01916948 14.2676772,0.926047392 14.3206595,0.84918472 L15.3567583,0.416093122 L11.9114355,0 C9.77448184,0 8.04372596,1.73901797 8.04372596,3.88452122 C8.04372596,3.96463477 8,5 8,5 L2.03614238,5 C1.68612143,5 1.37488359,5.01492691 1.12728691,5.13506317 C0.87969023,5.25519943 0.834935563,5.66025775 0.752403344,6 C0.50160223,6.99359108 0,9 0,9 L1,9 L2,6 L2,9 L0.999999974,10.0006247 L2.0602796,14 L3,14 L2.27001953,10.9733391 L3,10.0006247 L4,14 L5.07725194,14 L3.94777015,10.0006247 L9.91666399,10.0006247 L10,14 L11,14 L11.0863236,9 L12.7401761,9 Z" id="Shape"></path>
            </g>
        </g>
    </g>
</svg>