<svg width="28" height="28" viewBox="0 0 28 28">
  <g fill="none" fill-rule="evenodd">
    <circle cx="14" cy="14" r="14" fill="#FFF" opacity=".4"/>
    <circle cx="14" cy="14" r="13" fill="#3D3D36"/>
    <path fill="#FFF" fill-rule="nonzero" d="M11.9547821,7 C11.0732177,7 10.5543804,7.29904229 10.5543804,7.29904229 L10.8528266,7.87220667 L9.08510638,9.1431364 L9.38355266,10.0901036 L10.64621,9.79106136 C11.5277744,10.4290182 12.478211,10.010359 12.5516747,8.49521144 C12.9924569,9.53189137 12.6205469,10.3293375 11.8859099,10.4888267 L11.8859099,11.7846766 L9.75087115,14.0773342 C9.60394375,14.2368234 9.53048006,14.5607859 9.75087115,14.8000197 L11.0135285,16.3949119 L11.8170377,16.8683955 L12.4828024,15.9961888 L11.5874636,15.5974658 L10.8528266,14.4760572 L11.8859099,13.7782919 C11.8859099,13.7782919 12.6297298,15.2784873 13.9520764,15.9961888 L15.2606485,14.7252591 L14.5260116,15.9214283 C14.0852294,16.7188744 14.3193949,17.6060332 15.0540319,18.1642454 L16.2248596,19.0364521 L15.5590948,20.6313443 L15.5590948,21.503551 L14.5260116,21.503551 L14.6867134,20.7061049 L15.627967,19.2607338 L14.7555856,18.7124896 L13.7225024,20.3073818 L13.4240561,21.503551 L16.6610503,21.503551 L16.6610503,20.7061049 L17.6252613,18.637729 L16.6610503,17.2671186 C16.6610503,17.2671186 18.1303243,16.4796405 18.1303243,15.1239822 C18.1303243,15.0991593 18.1307144,15.0537814 18.1303243,15.0243014 C19.6321735,14.7097209 19.8466096,16.9815595 19.301152,18.3137666 L21,18.3137666 C21,16.0011729 20.1092527,14.3265361 18.9338335,14.3265361 C18.5951835,14.3265361 18.2944804,14.4478603 18.0614521,14.575738 C17.9458518,14.1122216 17.6131296,13.527764 16.5233059,13.2051275 L14.8933301,12.0089583 C15.4810396,10.5735553 15.4075759,7 11.9547821,7 Z M9.43262411,11.7628866 L7.78191489,12.604811 L7,13.5429553 L8.04255319,14.0721649 L8.39007092,13.4467354 L9.36746454,12.7731959 L9.93218085,12.7731959 L10.9095745,11.7628866 L9.43262411,11.7628866 Z" opacity=".6"/>
  </g>
</svg>
