<svg width="28" height="28" viewBox="0 0 28 28">
  <g fill="none" fill-rule="evenodd" transform="translate(-2077 -801)">
    <g transform="translate(2077 801)">
      <circle cx="14" cy="14" r="14" fill="#FFF" opacity=".4"/>
      <circle cx="14" cy="14" r="13" fill="#4E3552"/>
    </g>
    <path fill="#FFF" fill-rule="nonzero" d="M2091.7,808 L2091.7,810.1 L2094.5,810.1 L2091.59062,813.009375 C2090.81681,812.497967 2089.89696,812.2 2088.9,812.2 C2086.1938,812.2 2084,814.3938 2084,817.1 C2084,819.8062 2086.1938,822 2088.9,822 C2091.6062,822 2093.8,819.8062 2093.8,817.1 C2093.8,816.103039 2093.50203,815.183185 2092.99062,814.409375 L2095.9,811.5 L2095.9,814.3 L2098,814.3 L2098,810.1 L2098,808 L2095.9,808 L2091.7,808 Z M2088.9,814.3 C2090.4463,814.3 2091.7,815.5537 2091.7,817.1 C2091.7,818.6463 2090.4463,819.9 2088.9,819.9 C2087.3537,819.9 2086.1,818.6463 2086.1,817.1 C2086.1,815.5537 2087.3537,814.3 2088.9,814.3 Z" opacity=".6"/>
  </g>
</svg>
