<svg width="24" height="24" viewBox="0 0 24 24">
  <g fill="none" fill-rule="evenodd">
    <circle cx="12" cy="12" r="12" fill="#FFF" opacity=".4"/>
    <circle cx="12" cy="12" r="11" fill="#4E3552"/>
    <path fill="#FFF" fill-rule="nonzero" d="M12.6,6 L12.6,7.8 L15,7.8 L12.50625,10.29375 C11.8429842,9.85540026 11.054538,9.6 10.2,9.6 C7.8804,9.6 6,11.4804 6,13.8 C6,16.1196 7.8804,18 10.2,18 C12.5196,18 14.4,16.1196 14.4,13.8 C14.4,12.945462 14.1445998,12.1570158 13.70625,11.49375 L16.2,9 L16.2,11.4 L18,11.4 L18,7.8 L18,6 L16.2,6 L12.6,6 Z M10.2,11.4 C11.5254,11.4 12.6,12.4746 12.6,13.8 C12.6,15.1254 11.5254,16.2 10.2,16.2 C8.8746,16.2 7.8,15.1254 7.8,13.8 C7.8,12.4746 8.8746,11.4 10.2,11.4 Z" opacity=".6"/>
  </g>
</svg>
