<svg width="16" height="16" viewBox="0 0 16 16">
  <g fill="none" fill-rule="evenodd">
    <circle cx="8" cy="8" r="8" fill="#FFF" opacity=".4"/>
    <circle cx="8" cy="8" r="7" fill="#4E3552"/>
    <path fill="#FFF" fill-rule="nonzero" d="M8.4,4 L8.4,5.2 L10,5.2 L8.3375,6.8625 C7.8953228,6.57026684 7.369692,6.4 6.8,6.4 C5.2536,6.4 4,7.6536 4,9.2 C4,10.7464 5.2536,12 6.8,12 C8.3464,12 9.6,10.7464 9.6,9.2 C9.6,8.630308 9.4297332,8.1046772 9.1375,7.6625 L10.8,6 L10.8,7.6 L12,7.6 L12,5.2 L12,4 L10.8,4 L8.4,4 Z M6.8,7.6 C7.6836,7.6 8.4,8.3164 8.4,9.2 C8.4,10.0836 7.6836,10.8 6.8,10.8 C5.9164,10.8 5.2,10.0836 5.2,9.2 C5.2,8.3164 5.9164,7.6 6.8,7.6 Z" opacity=".6"/>
  </g>
</svg>
