<?xml version="1.0" encoding="UTF-8" standalone="no"?>
<svg width="18px" height="17px" viewBox="0 0 18 17" version="1.1" xmlns="http://www.w3.org/2000/svg" xmlns:xlink="http://www.w3.org/1999/xlink">
    <!-- Generator: Sketch 3.8.3 (29802) - http://www.bohemiancoding.com/sketch -->
    <title>fastfood-s</title>
    <desc>Created with Sketch.</desc>
    <defs></defs>
    <g id="POI-NIght" stroke="none" stroke-width="1" fill="none" fill-rule="evenodd">
        <g id="fastfood-s" transform="translate(0.500000, 0.000000)">
            <circle id="Oval-1-Copy-43" fill-opacity="0.1" fill="#FFFFFF" cx="8.5" cy="8.5" r="8.5"></circle>
            <circle id="Oval-1-Copy-42" fill="#332714" cx="8.5" cy="8.5" r="7.5"></circle>
            <path d="M8.05044132,5 C6.62939132,5 4.3512,5.8723 4.44736,7.0526 L4.44736,8.25 L12.5,8.25 L12.5,7.0526 C12.5,5.8684 10.4050722,5 8.98402216,5 L8.05044132,5 Z M4,9 L4,10 L13,10 L13,9 L4,9 Z M4.49996,10.75 C4.49996,11.2237 5.02628,12 5.49996,12 L11.49996,12 C11.97364,12 12.49996,11.2237 12.49996,10.75 L4.49996,10.75 Z" id="rect13326-2-5-2-3-1-copy" fill-opacity="0.7" fill="#FFFFFF"></path>
        </g>
    </g>
</svg>