<svg version="1.1" viewBox="0 0 24 24" xmlns="http://www.w3.org/2000/svg">
 <title>fastfood-m</title>
 <g id="Page-2:-Night" fill="none" fill-rule="evenodd" opacity=".6">
  <g id="fastfood-m" fill-rule="nonzero">
   <circle id="Oval" cx="12" cy="12" r="12" fill="#fff"/>
   <circle id="Oval" cx="12" cy="12" r="11" fill="#BB9342"/>
   <g id="Group" transform="translate(5 6)" fill="#fff">
    <path id="Path" d="m0.959 7.896c0.553-0.203 0.819-0.546 1.393-0.546 0.833 0 0.994 0.7 2.331 0.7 1.365 0 1.463-0.7 2.331-0.7 0.833 0 0.994 0.7 2.331 0.7 1.365 0 1.463-0.7 2.331-0.7 0.567 0 0.819 0.322 1.351 0.532 0.469 0.182 0.973-0.175 0.973-0.672 0-0.301-0.196-0.567-0.483-0.672-0.679-0.245-0.854-0.581-1.855-0.581-1.365 0-1.463 0.7-2.331 0.7-0.833 0-0.994-0.7-2.331-0.7-1.365 0-1.463 0.7-2.331 0.7-0.833 0-0.994-0.7-2.331-0.7-1.085 0-1.372 0.441-1.876 0.623-0.273 0.098-0.455 0.364-0.455 0.658 0 0.483 0.49 0.826 0.952 0.658z"/>
    <path id="Path" d="m0 11.2c0 0.77 0.63 1.4 1.4 1.4h11.2c0.77 0 1.4-0.63 1.4-1.4v-0.7c0-0.77-0.63-1.4-1.4-1.4h-11.2c-0.77 0-1.4 0.63-1.4 1.4v0.7z"/>
    <path id="Path" d="m14 4.2c0.013951-2.8-2.996-4.2-7-4.2-3.997 0-7 1.4-7 4.2 0 0.385 0.315 0.7 0.7 0.7h12.6c0.385 0 0.70005-0.315 0.70005-0.7z"/>
   </g>
  </g>
 </g>
</svg>
