<svg width="24" height="24" viewBox="0 0 24 24">
  <g fill="none" fill-rule="evenodd">
    <circle cx="12" cy="12" r="12" fill="#FFF" opacity=".4"/>
    <circle cx="12" cy="12" r="11" fill="#6E5626"/>
    <path fill="#FFF" d="M11.4615385,7 C9.25101385,7 5.53846154,7.85023077 5.53846154,9.69230769 L5.53846154,11.3076923 L18.4615385,11.3076923 L18.4615385,9.69230769 C18.4615385,7.85023077 14.7489862,7 12.5384615,7 L11.4615385,7 Z M9.30769231,8.21153846 C9.53073385,8.21153846 9.71153846,8.39235385 9.71153846,8.61538462 C9.71153846,8.83841538 9.53073385,9.01923077 9.30769231,9.01923077 C9.08465077,9.01923077 8.90384615,8.83841538 8.90384615,8.61538462 C8.90384615,8.39235385 9.08465077,8.21153846 9.30769231,8.21153846 L9.30769231,8.21153846 Z M14.6923077,8.21153846 C14.9153492,8.21153846 15.0961538,8.39235385 15.0961538,8.61538462 C15.0961538,8.83841538 14.9153492,9.01923077 14.6923077,9.01923077 C14.4692662,9.01923077 14.2884615,8.83841538 14.2884615,8.61538462 C14.2884615,8.39235385 14.4692662,8.21153846 14.6923077,8.21153846 L14.6923077,8.21153846 Z M7.15384615,9.28846154 C7.37688769,9.28846154 7.55769231,9.46927692 7.55769231,9.69230769 C7.55769231,9.91533846 7.37688769,10.0961538 7.15384615,10.0961538 C6.93080462,10.0961538 6.75,9.91533846 6.75,9.69230769 C6.75,9.46927692 6.93080462,9.28846154 7.15384615,9.28846154 L7.15384615,9.28846154 Z M11.8653846,9.28846154 C12.0884262,9.28846154 12.2692308,9.46927692 12.2692308,9.69230769 C12.2692308,9.91533846 12.0884262,10.0961538 11.8653846,10.0961538 C11.6423431,10.0961538 11.4615385,9.91533846 11.4615385,9.69230769 C11.4615385,9.46927692 11.6423431,9.28846154 11.8653846,9.28846154 L11.8653846,9.28846154 Z M16.8461538,9.28846154 C17.0691954,9.28846154 17.25,9.46927692 17.25,9.69230769 C17.25,9.91533846 17.0691954,10.0961538 16.8461538,10.0961538 C16.6231123,10.0961538 16.4423077,9.91533846 16.4423077,9.69230769 C16.4423077,9.46927692 16.6231123,9.28846154 16.8461538,9.28846154 L16.8461538,9.28846154 Z M5.53846154,12.3846154 C5.17001385,12.3846154 4.99998923,12.5546615 5,12.9230769 C5.00001077,13.2916 5.17001385,13.4615385 5.53846154,13.4615385 L18.4615385,13.4615385 C18.8299646,13.4615385 18.9999892,13.2916 19,12.9230769 C19.0000108,12.5546615 18.8299646,12.3846154 18.4615385,12.3846154 L6.61538462,12.3846154 L5.53846154,12.3846154 Z M5.53846154,15.2115385 C5.53846154,15.9483692 6.28238923,16.6923077 7.01923077,16.6923077 L16.9807692,16.6923077 C17.7176108,16.6923077 18.4615385,15.9483692 18.4615385,15.2115385 L18.4615385,14.5384615 L5.53846154,14.5384615 L5.53846154,15.2115385 Z" opacity=".6"/>
  </g>
</svg>
