<svg width="28" height="28" viewBox="0 0 28 28">
  <g fill="none" fill-rule="evenodd">
    <circle cx="14" cy="14" r="14" fill="#FFF" opacity=".4"/>
    <circle cx="14" cy="14" r="13" fill="#6E5626"/>
    <path fill="#FFF" d="M12.5789474,8 C9.73684211,8 5.94736842,9.38461538 5.94736842,11.6923077 L5.94736842,13.5384615 L22.0526316,13.5384615 L22.0526316,11.6923077 C22.0526126,9.38461538 18.2631579,8 15.4210526,8 L12.5789474,8 Z M12.1052632,8.92307692 C12.3676842,8.92307692 12.5789474,9.12892308 12.5789474,9.38461538 C12.5789474,9.64030769 12.3676842,9.84615385 12.1052632,9.84615385 C11.8428421,9.84615385 11.6315789,9.64030769 11.6315789,9.38461538 C11.6315789,9.12892308 11.8428421,8.92307692 12.1052632,8.92307692 L12.1052632,8.92307692 Z M15.8947368,8.92307692 C16.1571579,8.92307692 16.3684211,9.12892308 16.3684211,9.38461538 C16.3684211,9.64030769 16.1571579,9.84615385 15.8947368,9.84615385 C15.6323158,9.84615385 15.4210526,9.64030769 15.4210526,9.38461538 C15.4210526,9.12892308 15.6323158,8.92307692 15.8947368,8.92307692 L15.8947368,8.92307692 Z M10.2105263,10.7692308 C10.4729474,10.7692308 10.6842105,10.9750769 10.6842105,11.2307692 C10.6842105,11.4864615 10.4729474,11.6923077 10.2105263,11.6923077 C9.94810526,11.6923077 9.73684211,11.4864615 9.73684211,11.2307692 C9.73684211,10.9750769 9.94810526,10.7692308 10.2105263,10.7692308 L10.2105263,10.7692308 Z M14,10.7692308 C14.2624211,10.7692308 14.4736842,10.9750769 14.4736842,11.2307692 C14.4736842,11.4864615 14.2624211,11.6923077 14,11.6923077 C13.7375789,11.6923077 13.5263158,11.4864615 13.5263158,11.2307692 C13.5263158,10.9750769 13.7375789,10.7692308 14,10.7692308 L14,10.7692308 Z M17.7894737,10.7692308 C18.0518947,10.7692308 18.2631579,10.9750769 18.2631579,11.2307692 C18.2631579,11.4864615 18.0518947,11.6923077 17.7894737,11.6923077 C17.5270526,11.6923077 17.3157895,11.4864615 17.3157895,11.2307692 C17.3157895,10.9750769 17.5270526,10.7692308 17.7894737,10.7692308 L17.7894737,10.7692308 Z M5.94736842,14.4615385 C5.47365579,14.4615385 4.99999053,14.9230769 5,15.3846154 C5.00000947,15.8461538 5.47365579,16.3076923 5.94736842,16.3076923 L22.0526316,16.3076923 C22.5263253,16.3076923 22.9999905,15.8461538 23,15.3846154 C23,14.9230769 22.5263158,14.4615385 22.0526316,14.4615385 L5.94736842,14.4615385 Z M5.94736842,17.2307692 L5.94736842,18.1538462 C5.94736842,19.0769231 6.89473684,20 7.84210526,20 L20.1578947,20 C21.1052632,20 22.0526316,19.0769231 22.0526316,18.1538462 L22.0526316,17.2307692 L5.94736842,17.2307692 Z" opacity=".6"/>
  </g>
</svg>
