<?xml version="1.0" encoding="UTF-8"?>
<svg width="24px" height="24px" viewBox="0 0 24 24" version="1.1" xmlns="http://www.w3.org/2000/svg" xmlns:xlink="http://www.w3.org/1999/xlink">
    <title>fastfood-m</title>
    <g id="Page-2:-Night" stroke="none" stroke-width="1" fill="none" fill-rule="evenodd" opacity="0.6">
        <g id="fastfood-m" fill-rule="nonzero">
            <circle id="Oval" fill="#FFFFFF" cx="12" cy="12" r="12"></circle>
            <circle id="Oval" fill="#BB9342" cx="12" cy="12" r="11"></circle>
            <g id="Group" transform="translate(5.000000, 6.000000)" fill="#FFFFFF">
                <path d="M0.959,7.896 C1.512,7.693 1.778,7.35 2.352,7.35 C3.185,7.35 3.346,8.05 4.683,8.05 C6.048,8.05 6.146,7.35 7.014,7.35 C7.847,7.35 8.008,8.05 9.345,8.05 C10.71,8.05 10.808,7.35 11.676,7.35 C12.243,7.35 12.495,7.672 13.027,7.882 C13.496,8.064 14,7.707 14,7.21 C14,6.909 13.804,6.643 13.517,6.538 C12.838,6.293 12.663,5.957 11.662,5.957 C10.297,5.957 10.199,6.657 9.331,6.657 C8.498,6.657 8.337,5.957 7,5.957 C5.635,5.957 5.537,6.657 4.669,6.657 C3.836,6.657 3.675,5.957 2.338,5.957 C1.253,5.957 0.966,6.398 0.462,6.58 C0.189,6.678 0.007,6.944 0.007,7.238 C0.007,7.721 0.497,8.064 0.959,7.896 Z" id="Path"></path>
                <path d="M0,11.2 C0,11.97 0.63,12.6 1.4,12.6 L12.6,12.6 C13.37,12.6 14,11.97 14,11.2 L14,10.5 C14,9.73 13.37,9.1 12.6,9.1 L1.4,9.1 C0.63,9.1 0,9.73 0,10.5 L0,11.2 Z" id="Path"></path>
                <path d="M14.0000486,4.2 C14.014,1.4 11.004,0 7,0 C3.003,0 0,1.4 0,4.2 L0,4.2 C0,4.585 0.315,4.9 0.7,4.9 L13.3,4.9 C13.685,4.9 14.0000486,4.585 14.0000486,4.2 L14.0000486,4.2 L14.0000486,4.2 Z" id="Path"></path>
            </g>
        </g>
    </g>
</svg>