<?xml version="1.0" encoding="UTF-8" standalone="no"?>
<svg width="21px" height="21px" viewBox="0 0 21 21" version="1.1" xmlns="http://www.w3.org/2000/svg" xmlns:xlink="http://www.w3.org/1999/xlink">
    <!-- Generator: Sketch 3.7.2 (28276) - http://www.bohemiancoding.com/sketch -->
    <title>firehydrant-l</title>
    <desc>Created with Sketch.</desc>
    <defs></defs>
    <g id="POI" stroke="none" stroke-width="1" fill="none" fill-rule="evenodd">
        <g id="Group-2" transform="translate(2.000000, 1.000000)" fill="#33332E">
            <path d="M1,10 L1,8.99077797 C1,8.45097518 1.44771525,8 2,8 L3,8 L3,14 L2,14 C1.44386482,14 1,13.5564136 1,13.009222 L1,12 C0.44771525,12 0,11.5561352 0,11 C0,10.4477153 0.443864822,10 1,10 Z M15,10 L15,8.99077797 C15,8.45097518 14.5522847,8 14,8 L13,8 L13,14 L14,14 C14.5561352,14 15,13.5564136 15,13.009222 L15,12 C15.5561352,12 16,11.5522847 16,11 C16,10.4438648 15.5522847,10 15,10 Z M8.99243941,1.12407944 C10.7215016,1.56548716 12,3.13343893 12,5 C8,5 8,5 4,5 C4,3.1334495 5.27848395,1.56550493 7.0075312,1.12408695 C7.00255985,1.08346212 7,1.04205202 7,1 C7,0.44771525 7.44386482,0 8,0 C8.55228475,0 9,0.443864822 9,1 C9,1.04201537 8.99743114,1.08342555 8.99243941,1.12407944 Z M11,8 L11,6 L5,6 L5,8 L4,8 L4,14 L5,14 L5,20 L11,20 L11,14 L12,14 L12,8 L11,8 Z M8,14 C9.65685425,14 11,12.6568542 11,11 C11,9.34314575 9.65685425,8 8,8 C6.34314575,8 5,9.34314575 5,11 C5,12.6568542 6.34314575,14 8,14 Z M7,11 C7,10.4477153 7.44386482,10 8,10 C8.55228475,10 9,10.4438648 9,11 C9,11.5522847 8.55613518,12 8,12 C7.44771525,12 7,11.5561352 7,11 Z" id="Combined-Shape"></path>
        </g>
    </g>
</svg>