<svg width="28" height="28" viewBox="0 0 28 28">
  <g fill="none" fill-rule="evenodd">
    <circle cx="14" cy="14" r="14" fill="#FFF" opacity=".1"/>
    <path fill="#8F4033" fill-rule="nonzero" d="M13.1999969,4 L13.1999969,5 L13.1999969,5 C12.2611146,5 11.5,5.88989258 11.5,6.5 L11.5,6.5 L10.5,6.5 L10.5,8 L17.5,8 L17.5,6.5 L16.5,6.5 L16.5,6.5 C16.5,5.67157288 15.6101708,5 14.8000031,5 L14.8000031,5 L14.8000031,4 L13.1999969,4 Z M11,9 L11,9.00286865 C11,9.55356909 10.5561352,10 10,10 L9,10 L9,15 L10,15 C10.5522847,15 11,15.4378814 11,16.0029293 L11,22 L10,22 L10,24 L18,24 L18,22 L17,22 L17,16.0029293 C17,15.4490268 17.4438648,15 18,15 L19,15 L19,10 L18,10 C17.4477153,10 17,9.54681396 17,9.00286865 L17,9 L11,9 Z M6.5,9.5 L6.5,11 L5.5,11 L5.5,14 L6.5,14 L6.5,15.5 L8,15.5 L8,9.5 L6.5,9.5 Z M14,10 C15.4166667,10 16.5,11.0833333 16.5,12.5 C16.5,13.9166667 15.4166667,15 14,15 C12.5833333,15 11.5,13.9166667 11.5,12.5 C11.5,11.0833333 12.5833333,10 14,10 Z M20.0040283,9.5 L20.0040283,15.5 L21.5028076,15.5 L21.5028076,14 L22.5,14 L22.5,11 L21.5028076,11 L21.5028076,9.5 L20.0040283,9.5 Z M14.0000031,11.3000488 C13.3372615,11.3000488 12.8000031,11.8373072 12.8000031,12.5000488 C12.8000031,13.1627904 13.3372615,13.7000488 14.0000031,13.7000488 C14.6627447,13.7000488 15.2000031,13.1627904 15.2000031,12.5000488 C15.2000031,11.8373072 14.6627447,11.3000488 14.0000031,11.3000488 Z"/>
  </g>
</svg>
