<?xml version="1.0" encoding="UTF-8" standalone="no"?>
<svg width="17px" height="17px" viewBox="0 0 17 17" version="1.1" xmlns="http://www.w3.org/2000/svg" xmlns:xlink="http://www.w3.org/1999/xlink">
    <!-- Generator: Sketch 3.8.3 (29802) - http://www.bohemiancoding.com/sketch -->
    <title>fire_station-s</title>
    <desc>Created with Sketch.</desc>
    <defs></defs>
    <g id="POI-NIght" stroke="none" stroke-width="1" fill="none" fill-rule="evenodd">
        <g id="fire_station-s">
            <path d="M8.5,17 C3.813,17 0,13.188 0,8.5 C0,3.812 3.813,0 8.5,0 C13.187,0 17,3.812 17,8.5 C17,13.188 13.187,17 8.5,17 L8.5,17 Z" id="Shape" fill-opacity="0.1" fill="#FFFFFF"></path>
            <ellipse id="Oval" fill="#252522" cx="8.5" cy="8.5" rx="7.5" ry="7.5"></ellipse>
            <path d="M8.5,4 L5,4.934 L5,8.04 C5,10.641 6.392,11.532 8.5,12.867 C10.608,11.532 12,10.64 12,8.04 L12,4.934 L8.5,4 L8.5,4 Z M8.473,10.948 C8.473,10.948 4.988,8.513 8.446,5.431 C7.063,7.943 9.02,9.634 9.263,6.931 C11.492,9.59 8.473,10.948 8.473,10.948 L8.473,10.948 Z" id="Shape" fill-opacity="0.7" fill="#FFFFFF"></path>
        </g>
    </g>
</svg>