<?xml version="1.0" encoding="UTF-8" standalone="no"?>
<svg width="27px" height="27px" viewBox="0 0 27 27" version="1.1" xmlns="http://www.w3.org/2000/svg" xmlns:xlink="http://www.w3.org/1999/xlink" xmlns:sketch="http://www.bohemiancoding.com/sketch/ns">
    <!-- Generator: Sketch 3.4.2 (15857) - http://www.bohemiancoding.com/sketch -->
    <title>florist-l</title>
    <desc>Created with Sketch.</desc>
    <defs>
        <path id="path-1" d="M26,13.5 C26,20.403 20.403,26 13.5,26 C6.597,26 1,20.403 1,13.5 C1,6.597 6.597,1 13.5,1 C20.403,1 26,6.597 26,13.5 L26,13.5 Z"></path>
    </defs>
    <g id="POI" stroke="none" stroke-width="1" fill="none" fill-rule="evenodd" sketch:type="MSPage">
        <g id="florist-l" sketch:type="MSLayerGroup">
            <path d="M13.5,27 C6.057,27 0,20.943 0,13.5 C0,6.057 6.057,0 13.5,0 C20.943,0 27,6.057 27,13.5 C27,20.943 20.943,27 13.5,27 L13.5,27 Z" id="Shape" opacity="0" fill="#FFFFFF" sketch:type="MSShapeGroup"></path>
            <g id="Shape">
                <use fill="#3D3D37" fill-rule="evenodd" sketch:type="MSShapeGroup" xlink:href="#path-1"></use>
                <use fill="none" xlink:href="#path-1"></use>
            </g>
            <path d="M15.433,18.433 C14.22,19.646 13.779,21.334 14.104,22.898 C15.665,23.222 17.355,22.781 18.568,21.568 C19.781,20.355 20.222,18.666 19.897,17.103 C18.336,16.778 16.646,17.22 15.433,18.433 L15.433,18.433 Z M7.104,17.103 C6.779,18.665 7.22,20.355 8.433,21.568 C9.646,22.781 11.336,23.222 12.897,22.898 C13.222,21.335 12.781,19.646 11.568,18.433 C10.355,17.22 8.664,16.778 7.104,17.103 L7.104,17.103 Z M14.92,14.494 C14.92,14.202 14.876,13.923 14.812,13.65 C14.958,13.886 15.124,14.114 15.33,14.32 C15.9,14.891 16.61,15.233 17.35,15.352 C17.915,15.442 18.454,14.904 18.363,14.339 C18.245,13.6 17.901,12.89 17.331,12.319 C17.125,12.112 16.895,11.946 16.658,11.799 C16.929,11.861 17.207,11.906 17.497,11.906 C18.303,11.907 19.048,11.646 19.654,11.208 C20.118,10.872 20.118,10.109 19.654,9.776 C19.048,9.336 18.302,9.078 17.496,9.078 C17.204,9.078 16.925,9.122 16.653,9.185 C16.888,9.039 17.117,8.873 17.322,8.668 C17.893,8.098 18.235,7.388 18.354,6.648 C18.443,6.083 17.906,5.544 17.34,5.636 C16.601,5.753 15.891,6.098 15.32,6.667 C15.113,6.874 14.947,7.104 14.799,7.342 C14.863,7.071 14.907,6.792 14.907,6.502 C14.907,5.694 14.647,4.95 14.208,4.345 C13.873,3.881 13.112,3.881 12.777,4.345 C12.338,4.95 12.079,5.695 12.079,6.502 C12.079,6.793 12.124,7.073 12.187,7.346 C12.041,7.11 11.875,6.882 11.67,6.677 C11.1,6.106 10.39,5.764 9.65,5.645 C9.085,5.555 8.547,6.093 8.636,6.657 C8.755,7.397 9.097,8.107 9.669,8.677 C9.875,8.884 10.105,9.051 10.343,9.198 C10.072,9.134 9.793,9.09 9.503,9.09 C8.695,9.09 7.952,9.351 7.346,9.789 C6.882,10.124 6.882,10.885 7.346,11.219 C7.952,11.66 8.696,11.919 9.503,11.919 C9.795,11.919 10.074,11.874 10.346,11.811 C10.111,11.957 9.883,12.122 9.678,12.327 C9.107,12.898 8.764,13.608 8.646,14.348 C8.557,14.913 9.093,15.451 9.659,15.36 C10.398,15.243 11.109,14.899 11.679,14.329 C11.886,14.123 12.053,13.893 12.2,13.655 C12.137,13.926 12.093,14.204 12.093,14.494 C12.092,15.302 12.353,16.046 12.792,16.651 C13.127,17.115 13.888,17.115 14.222,16.651 C14.662,16.047 14.92,15.302 14.92,14.494 L14.92,14.494 Z M13.5,13 C12.119,13 11,11.881 11,10.5 C11,9.119 12.119,8 13.5,8 C14.881,8 16,9.119 16,10.5 C16,11.881 14.881,13 13.5,13 L13.5,13 Z" id="Shape" opacity="0.7" fill="#FFFFFF" sketch:type="MSShapeGroup"></path>
        </g>
    </g>
</svg>