<svg width="28" height="28" viewBox="0 0 28 28">
  <g fill="none" fill-rule="evenodd">
    <circle cx="14" cy="14" r="14" fill="#FFF" opacity=".4"/>
    <circle cx="14" cy="14" r="13" fill="#4E3551"/>
    <path fill="#FFF" d="M15.7837588,18.6734389 C14.664411,19.822364 14.2574592,21.4211978 14.557367,22.9025817 C15.9978468,23.2094669 17.557367,22.7917621 18.6767149,21.6428371 C19.7960627,20.493912 20.2030145,18.8941311 19.9031067,17.4136943 C18.4626269,17.105862 16.9031067,17.5245139 15.7837588,18.6734389 L15.7837588,18.6734389 Z M8.09781606,17.4136943 C7.79790834,18.8931839 8.20486004,20.493912 9.32420794,21.6428371 C10.4435558,22.7917621 12.003076,23.2094669 13.4435558,22.9025817 C13.7434635,21.4221449 13.3365118,19.822364 12.2171639,18.6734389 C11.0978161,17.5245139 9.53737312,17.105862 8.09781606,17.4136943 L8.09781606,17.4136943 Z M15.310366,14.942511 C15.310366,14.6659355 15.2697631,14.4016732 15.2107044,14.1430941 C15.3454322,14.3666277 15.4986158,14.5825839 15.6887112,14.7777023 C16.2147032,15.31854 16.8698862,15.6424744 17.552753,15.7551884 C18.074131,15.8404342 18.5715165,15.3308533 18.4875423,14.7956986 C18.3786527,14.0957353 18.0612119,13.42324 17.5352199,12.8824023 C17.3451246,12.6863367 17.1328822,12.5291054 16.9141803,12.3898705 C17.1642572,12.4485954 17.4207936,12.4912184 17.6884036,12.4912184 C18.4321747,12.4921656 19.1196555,12.2449525 19.678868,11.8300892 C20.107044,11.511838 20.107044,10.7891423 19.678868,10.4737326 C19.1196555,10.056975 18.4312519,9.81260344 17.6874808,9.81260344 C17.4180252,9.81260344 17.160566,9.8542792 16.9095663,9.91395132 C17.1264226,9.77566356 17.3377422,9.61843227 17.5269148,9.4242611 C18.0538296,8.88437054 18.3694248,8.21187527 18.4792372,7.51096472 C18.5613657,6.97581003 18.0658259,6.46528194 17.5435251,6.55242217 C16.8615811,6.66324181 16.206398,6.99001768 15.6794832,7.52896107 C15.4884651,7.72502659 15.3352815,7.94287717 15.1987081,8.16830516 C15.2577668,7.91162035 15.2983697,7.64735812 15.2983697,7.37267696 C15.2983697,6.6073584 15.0584436,5.90265914 14.6533374,5.3296174 C14.3442018,4.89012753 13.6419563,4.89012753 13.3328207,5.3296174 C12.9277145,5.90265914 12.6887112,6.60830558 12.6887112,7.37267696 C12.6887112,7.6483053 12.7302369,7.9135147 12.7883728,8.17209386 C12.653645,7.94856023 12.5004614,7.732604 12.3112888,7.53843283 C11.7852968,6.99759509 11.1301138,6.67366075 10.447247,6.56094676 C9.92586896,6.47570088 9.42940634,6.9852818 9.51153491,7.5194893 C9.62134728,8.22039986 9.93694248,8.89289513 10.4647801,9.43278569 C10.6548754,9.62885121 10.8671178,9.78702968 11.0867425,9.92626461 C10.8366656,9.86564532 10.5792064,9.82396956 10.3115964,9.82396956 C9.5659797,9.82396956 8.88034451,10.0711826 8.32113196,10.4860459 C7.89295601,10.80335 7.89295601,11.5241512 8.32113196,11.8405082 C8.88034451,12.258213 9.56690249,12.5035317 10.3115964,12.5035317 C10.581052,12.5035317 10.8385112,12.4609087 11.0895109,12.4012366 C10.8726546,12.5395244 10.6622578,12.6958085 10.4730852,12.8899797 C9.94617041,13.4308174 9.62965241,14.1033127 9.52076284,14.8042232 C9.43863427,15.3393779 9.93325131,15.8489588 10.4555521,15.7627658 C11.1374962,15.6519461 11.793602,15.3261174 12.319594,14.7862269 C12.5106121,14.5911085 12.6647185,14.373258 12.8003691,14.14783 C12.7422332,14.4045148 12.7016303,14.6678298 12.7016303,14.942511 C12.7007075,15.7078295 12.9415564,16.4125288 13.3466626,16.9855705 C13.6557982,17.4250604 14.3580437,17.4250604 14.6662565,16.9855705 C15.0722855,16.413476 15.310366,15.7078295 15.310366,14.942511 L15.310366,14.942511 Z M14,13.5274294 C12.7256229,13.5274294 11.6930175,12.467539 11.6930175,11.1594883 C11.6930175,9.85143767 12.7256229,8.79154725 14,8.79154725 C15.2743771,8.79154725 16.3069825,9.85143767 16.3069825,11.1594883 C16.3069825,12.467539 15.2743771,13.5274294 14,13.5274294 L14,13.5274294 Z" opacity=".6"/>
  </g>
</svg>
