<?xml version="1.0" encoding="UTF-8" standalone="no"?>
<svg width="23px" height="23px" viewBox="0 0 23 23" version="1.1" xmlns="http://www.w3.org/2000/svg" xmlns:xlink="http://www.w3.org/1999/xlink" xmlns:sketch="http://www.bohemiancoding.com/sketch/ns">
    <!-- Generator: Sketch 3.4.2 (15857) - http://www.bohemiancoding.com/sketch -->
    <title>florist-m</title>
    <desc>Created with Sketch.</desc>
    <defs>
        <path id="path-1" d="M22,11.5 C22,17.299 17.299,22 11.5,22 C5.701,22 1,17.299 1,11.5 C1,5.701 5.701,1 11.5,1 C17.299,1 22,5.701 22,11.5 L22,11.5 Z"></path>
    </defs>
    <g id="POI" stroke="none" stroke-width="1" fill="none" fill-rule="evenodd" sketch:type="MSPage">
        <g id="florist-m" sketch:type="MSLayerGroup">
            <path d="M11.5,23 C5.159,23 0,17.841 0,11.5 C0,5.159 5.159,0 11.5,0 C17.841,0 23,5.159 23,11.5 C23,17.841 17.841,23 11.5,23 L11.5,23 Z" id="Shape" opacity="0" fill="#FFFFFF" sketch:type="MSShapeGroup"></path>
            <g id="Shape">
                <use fill="#3D3D37" fill-rule="evenodd" sketch:type="MSShapeGroup" xlink:href="#path-1"></use>
                <use fill="none" xlink:href="#path-1"></use>
            </g>
            <path d="M13.194,15.193 C12.183,16.205 11.815,17.613 12.086,18.915 C13.387,19.186 14.796,18.817 15.808,17.807 C16.818,16.796 17.185,15.388 16.914,14.086 C15.614,13.816 14.205,14.184 13.194,15.193 L13.194,15.193 Z M6.086,14.086 C5.815,15.388 6.184,16.796 7.193,17.807 C8.204,18.818 9.614,19.186 10.914,18.915 C11.185,17.613 10.816,16.205 9.807,15.193 C8.796,14.184 7.386,13.816 6.086,14.086 L6.086,14.086 Z M12.702,12.88 C12.702,12.633 12.665,12.397 12.609,12.166 C12.733,12.365 12.874,12.559 13.047,12.732 C13.53,13.215 14.132,13.505 14.757,13.606 C15.235,13.681 15.691,13.226 15.613,12.749 C15.513,12.123 15.222,11.522 14.74,11.041 C14.565,10.865 14.371,10.725 14.171,10.601 C14.4,10.654 14.636,10.692 14.881,10.692 C15.563,10.692 16.193,10.472 16.706,10.102 C17.098,9.817 17.098,9.172 16.706,8.89 C16.193,8.517 15.562,8.299 14.88,8.299 C14.633,8.299 14.397,8.336 14.167,8.39 C14.365,8.266 14.56,8.126 14.732,7.953 C15.215,7.47 15.505,6.869 15.606,6.244 C15.68,5.765 15.226,5.31 14.748,5.387 C14.123,5.487 13.522,5.779 13.039,6.261 C12.864,6.436 12.724,6.63 12.599,6.831 C12.654,6.602 12.692,6.366 12.692,6.12 C12.692,5.436 12.471,4.808 12.099,4.295 C11.817,3.902 11.172,3.902 10.889,4.295 C10.517,4.808 10.298,5.437 10.298,6.12 C10.298,6.366 10.336,6.603 10.39,6.835 C10.266,6.635 10.126,6.442 9.953,6.27 C9.47,5.787 8.869,5.497 8.244,5.396 C7.765,5.319 7.31,5.775 7.386,6.25 C7.487,6.877 7.776,7.478 8.261,7.96 C8.435,8.135 8.629,8.277 8.831,8.401 C8.601,8.347 8.365,8.31 8.12,8.31 C7.436,8.31 6.808,8.53 6.294,8.9 C5.902,9.183 5.902,9.828 6.294,10.111 C6.808,10.484 7.437,10.703 8.12,10.703 C8.366,10.703 8.603,10.665 8.833,10.611 C8.634,10.735 8.44,10.874 8.268,11.047 C7.785,11.53 7.495,12.132 7.395,12.758 C7.32,13.237 7.774,13.691 8.251,13.613 C8.877,13.513 9.478,13.223 9.96,12.741 C10.135,12.566 10.277,12.372 10.401,12.171 C10.347,12.4 10.31,12.636 10.31,12.881 C10.308,13.564 10.529,14.193 10.901,14.705 C11.183,15.098 11.828,15.098 12.111,14.705 C12.483,14.193 12.702,13.563 12.702,12.88 L12.702,12.88 Z M11.5,11.1 C10.616,11.1 9.9,10.385 9.9,9.5 C9.9,8.616 10.616,7.9 11.5,7.9 C12.385,7.9 13.1,8.616 13.1,9.5 C13.1,10.385 12.385,11.1 11.5,11.1 L11.5,11.1 Z" id="Shape" opacity="0.7" fill="#FFFFFF" sketch:type="MSShapeGroup"></path>
        </g>
    </g>
</svg>