<svg width="28" height="28" viewBox="0 0 28 28">
  <g fill="none" fill-rule="evenodd">
    <circle cx="14" cy="14" r="14" fill="#FFF" opacity=".4"/>
    <circle cx="14" cy="14" r="13" fill="#133B4C" opacity="0"/>
    <path fill="#133B4C" d="M14.184263,12.9483055 L8.04673619,12.9483055 C8.04673598,15.9099795 10.6121107,18.5411956 14.0053929,18.7977151 L9.9984977,21.9911308 L18.9839723,21.9911308 L14.9862287,18.8050088 C18.4286263,18.5964244 21.0525991,15.9410825 21.0525991,12.9483055 L14.801387,12.9483055 L14.801387,12.4973889 L15.3845027,10.1799908 C15.5680104,9.22273455 16.396275,8.6169485 17.2270195,8.8312596 C17.9486512,9.01413841 18.4322188,9.74851113 18.4322188,10.5657508 L18.5813789,10.565751 L18.4322188,10.5657508 L18.4322188,10.985695 L21.0215356,10.9856952 L21.0215356,10.0399744 C21.0215356,7.90829327 19.4503757,6 17.6028993,6 C16.2454837,6 15.0372358,7.0301796 14.4917485,8.4222299 C13.9489054,7.03231978 12.7537128,6 11.4006935,6 C9.55073727,6 8,7.9247046 8,10.0563857 L8,10.9844508 L10.5509514,10.9844508 L10.5509514,10.5793048 C10.5509514,9.76492262 11.0369988,9.02769242 11.7586306,8.84767109 C12.589375,8.63335999 13.4176396,9.23914604 13.6011473,10.1964023 L14.184263,12.5138004 L14.184263,12.9483055 Z"/>
  </g>
</svg>
