<svg version="1.1" viewBox="0 0 24 24" xmlns="http://www.w3.org/2000/svg">
    <title>fountain-s</title>
    <g fill="none" fill-rule="evenodd" opacity="0.6">
        <g fill-rule="nonzero">
            <g transform="matrix(1.125,0,0,1.125,5.109375,4.125)" fill="#14a0c2">
                <path d="m7.7656249 0c-.6701406 0-1.2661523.32312109-1.640625.82173438-.3744727-.49861329-.9704844-.82173438-1.640625-.82173438-1.1308008 0-2.0507812.91998047-2.0507812 2.0507813h.8203125c0-.6784805.5519882-1.2304688 1.2304687-1.2304688s1.2304687.5519883 1.2304687 1.2304688v1.2851562h.8203125v-1.2851562c0-.6784805.5519883-1.2304688 1.2304688-1.2304688s1.2304689.5519883 1.2304689 1.2304688h.8203125c0-1.1308008-.9199806-2.0507813-2.0507814-2.0507813z"/>
                <path d="m2.4335937 4.15625v.8203125h.8615742c.1905586.9349375 1.0191562 1.640625 2.0095195 1.640625h1.640625c.9903633 0 1.818961-.7056875 2.0095195-1.640625h.8615744v-.8203125z"/>
                <path d="m0 7.4375v.8203125h.86157422c.19053128.9349375 1.0191289 1.640625 2.0095196 1.640625h2.0234374v.8203125h2.4609375v-.8203125h2.0234376c.9903637 0 1.8189607-.7056875 2.0095197-1.640625h.861574v-.8203125z"/>
                <path d="m10.609129 13.179688c-.190559-.934938-1.0191562-1.640625-2.0095195-1.640625h-4.921875c-.9903633 0-1.8189609.705687-2.0095195 1.640625h-.888918v.820312h10.691406v-.820312z"/>
            </g>
        </g>
    </g>
</svg>
