<?xml version="1.0" encoding="UTF-8"?>
<svg width="24px" height="24px" viewBox="0 0 24 24" version="1.1" xmlns="http://www.w3.org/2000/svg" xmlns:xlink="http://www.w3.org/1999/xlink">
    <title>fountain-m</title>
    <g id="Page-2:-Night" stroke="none" stroke-width="1" fill="none" fill-rule="evenodd" opacity="0.6">
        <g id="fountain-m" fill-rule="nonzero">
            <circle id="Oval" fill="#FFFFFF" cx="12" cy="12" r="12"></circle>
            <g id="fountain" transform="translate(6.000000, 5.000000)" fill="#14A0C2">
                <path d="M7.765625,0 C7.09548438,0 6.49947266,0.323121094 6.125,0.821734375 C5.75052734,0.323121094 5.15451563,0 4.484375,0 C3.35357422,0 2.43359375,0.919980469 2.43359375,2.05078125 L3.25390625,2.05078125 C3.25390625,1.37230078 3.80589453,0.8203125 4.484375,0.8203125 C5.16285547,0.8203125 5.71484375,1.37230078 5.71484375,2.05078125 L5.71484375,3.3359375 L6.53515625,3.3359375 L6.53515625,2.05078125 C6.53515625,1.37230078 7.08714453,0.8203125 7.765625,0.8203125 C8.44410547,0.8203125 8.99609375,1.37230078 8.99609375,2.05078125 L9.81640625,2.05078125 C9.81640625,0.919980469 8.89642578,0 7.765625,0 Z" id="Path"></path>
                <path d="M2.43359375,4.15625 L2.43359375,4.9765625 L3.29516797,4.9765625 C3.48572656,5.9115 4.31432422,6.6171875 5.3046875,6.6171875 L6.9453125,6.6171875 C7.93567578,6.6171875 8.76427344,5.9115 8.95483203,4.9765625 L9.81640625,4.9765625 L9.81640625,4.15625 L2.43359375,4.15625 Z" id="Path"></path>
                <path d="M0,7.4375 L0,8.2578125 L0.861574219,8.2578125 C1.05210547,9.19275 1.88070312,9.8984375 2.87109375,9.8984375 L4.89453125,9.8984375 L4.89453125,10.71875 L7.35546875,10.71875 L7.35546875,9.8984375 L9.37890625,9.8984375 C10.3692695,9.8984375 11.1978672,9.19275 11.3884258,8.2578125 L12.25,8.2578125 L12.25,7.4375 L0,7.4375 Z" id="Path"></path>
                <path d="M10.595457,13.1796875 C10.4048984,12.24475 9.57630078,11.5390625 8.5859375,11.5390625 L3.6640625,11.5390625 C2.67369922,11.5390625 1.84510156,12.24475 1.65454297,13.1796875 L0.765625,13.1796875 L0.765625,14 L11.4570312,14 L11.4570312,13.1796875 L10.595457,13.1796875 Z" id="Path"></path>
            </g>
        </g>
    </g>
</svg>