<?xml version="1.0" encoding="UTF-8" standalone="no"?>
<svg width="27px" height="27px" viewBox="0 0 27 27" version="1.1" xmlns="http://www.w3.org/2000/svg" xmlns:xlink="http://www.w3.org/1999/xlink" xmlns:sketch="http://www.bohemiancoding.com/sketch/ns">
    <!-- Generator: Sketch 3.4.2 (15857) - http://www.bohemiancoding.com/sketch -->
    <title>fountain-l</title>
    <desc>Created with Sketch.</desc>
    <defs></defs>
    <g id="POI" stroke="none" stroke-width="1" fill="none" fill-rule="evenodd" sketch:type="MSPage">
        <g id="fountain-l" sketch:type="MSLayerGroup">
            <circle id="Oval-1-Copy-39" opacity="0" fill="#FFFFFF" sketch:type="MSShapeGroup" cx="13.5" cy="13.5" r="13.5"></circle>
            <circle id="Oval-1-Copy-38" fill="#133655" sketch:type="MSShapeGroup" cx="13.5" cy="13.5" r="12.5"></circle>
            <path d="M13.2069489,11.9381747 L7.06942208,11.9381747 C7.06942187,14.8998487 9.63479656,17.5310648 13.0280788,17.7875843 L9.02118359,20.981 L18.0066582,20.981 L14.0089146,17.794878 C17.4513122,17.5862935 20.075285,14.9309517 20.075285,11.9381747 L13.8240729,11.9381747 L13.8240729,11.4872581 L14.4071886,9.16986002 C14.5906963,8.21260375 15.4189609,7.6068177 16.2497054,7.8211288 C16.9713371,8.00400761 17.4549047,8.73838033 17.4549047,9.55562 L17.6040647,9.55562015 L17.4549047,9.55562 L17.4549047,9.97556423 L20.0442215,9.97556438 L20.0442215,9.02984358 C20.0442215,6.89816247 18.4730616,4.9898692 16.6255852,4.9898692 C15.2681696,4.9898692 14.0599217,6.0200488 13.5144344,7.4120991 C12.9715913,6.02218898 11.7763987,4.9898692 10.4233794,4.9898692 C8.57342316,4.9898692 7.02268589,6.9145738 7.02268589,9.04625492 L7.02268589,9.97432002 L9.57363728,9.97432002 L9.57363725,9.56917401 C9.57363725,8.75479182 10.0596847,8.01756162 10.7813165,7.83754029 C11.6120609,7.62322919 12.4403255,8.22901524 12.6238332,9.18627151 L13.2069489,11.5036696 L13.2069489,11.9381747 Z" id="Shape" opacity="0.7" fill="#FFFFFF" sketch:type="MSShapeGroup"></path>
        </g>
    </g>
</svg>