<?xml version="1.0" encoding="UTF-8" standalone="no"?>
<svg width="23px" height="23px" viewBox="0 0 23 23" version="1.1" xmlns="http://www.w3.org/2000/svg" xmlns:xlink="http://www.w3.org/1999/xlink" xmlns:sketch="http://www.bohemiancoding.com/sketch/ns">
    <!-- Generator: Sketch 3.4.2 (15857) - http://www.bohemiancoding.com/sketch -->
    <title>fountain-m</title>
    <desc>Created with Sketch.</desc>
    <defs></defs>
    <g id="POI" stroke="none" stroke-width="1" fill="none" fill-rule="evenodd" sketch:type="MSPage">
        <g id="fountain-m" sketch:type="MSLayerGroup" transform="translate(0.000000, -0.019000)">
            <ellipse id="Oval-1-Copy-41" opacity="0" fill="#FFFFFF" sketch:type="MSShapeGroup" cx="11.5" cy="11.5" rx="11.5" ry="11.5"></ellipse>
            <ellipse id="Oval-1-Copy-40" fill="#0F2940" sketch:type="MSShapeGroup" cx="11.5" cy="11.5" rx="10.5" ry="10.5"></ellipse>
            <path d="M11.1316441,15.5508237 C8.24183572,15.4086379 5.94170881,13.4894614 5.94170898,10.9897551 L11.4564534,10.9897551 L10.5688771,7.92856109 C10.4205105,7.25690108 9.75085539,6.83185056 9.07919538,6.98222221 C8.4957534,7.11053935 8.10478712,7.62581285 8.10478712,8.19923005 L7.98419069,8.19923016 L8.10478712,8.19923005 L8.10478719,9.04531044 L6.01131478,9.04531054 L6.01131471,7.83031839 C6.01131471,6.33462176 7.28160343,4.99566549 8.7752951,4.99566549 C10.2642654,4.99566549 11.5312427,6.32617042 11.5392374,7.81613977 C11.5471408,6.32609794 12.799703,4.98415035 14.2886734,4.98415035 C15.78437,4.98415035 17.038147,6.33462166 17.038147,7.83031828 L17.038147,9.03070778 L14.9756931,9.03070778 L14.9756932,8.1972251 C14.9756932,7.62581285 14.5827219,7.10853439 13.9992799,6.98222221 C13.3276199,6.83185056 12.6579649,7.25690108 12.5095982,7.92856109 L11.6220219,10.9897551 L16.9709677,10.9897551 C16.9709677,13.4551243 14.7664478,15.355803 11.9394199,15.5439615 L15.0055485,18.0181528 L8.07401961,18.0181528 L11.1316441,15.5508237 Z" id="Shape" opacity="0.7" fill="#FFFFFF" sketch:type="MSShapeGroup"></path>
        </g>
    </g>
</svg>