<?xml version="1.0" encoding="UTF-8" standalone="no"?>
<svg width="17px" height="17px" viewBox="0 0 17 17" version="1.1" xmlns="http://www.w3.org/2000/svg" xmlns:xlink="http://www.w3.org/1999/xlink">
    <!-- Generator: Sketch 3.8.3 (29802) - http://www.bohemiancoding.com/sketch -->
    <title>fuel-s</title>
    <desc>Created with Sketch.</desc>
    <defs></defs>
    <g id="POI-NIght" stroke="none" stroke-width="1" fill="none" fill-rule="evenodd">
        <g id="fuel-s">
            <circle id="Oval-1-Copy-43" fill-opacity="0.1" fill="#FFFFFF" cx="8.5" cy="8.5" r="8.5"></circle>
            <circle id="Oval-1-Copy-42" fill="#252522" cx="8.5" cy="8.5" r="7.5"></circle>
            <path d="M5.5,4 C5.22299,4 5,4.223 5,4.5 L5,12.5 C5,12.75 5.25,13 5.5,13 L9.5,13 C9.75,13 10,12.75 10,12.5 L10,12 L11.25,12 C11.75,12 12,11.75 12,11.25 L12,8.5 C12,8 11,7.5 11,7 L11,6.75 L11,6 L10,5 L10,4.5 C10,4.223 9.777,4 9.5,4 L5.5,4 L5.5,4 Z M6,5 L9,5 L9,7 L6,7 L6,5 L6,5 Z M10,6.5 L10.5,6.5 L10.5,7.25 C10.5,7.75 11.5,8.25 11.5,8.75 L11.5,11 L11.5,11.25 C11.5,11.5 11.25,11.5 11.25,11.5 L10.5,11.5 L10.5,10 L10,10 L10,6.5 L10,6.5 Z" id="rect7223-2-4-9-3-copy" fill-opacity="0.7" fill="#FFFFFF"></path>
        </g>
    </g>
</svg>