<?xml version="1.0" encoding="UTF-8" standalone="no"?>
<svg width="27px" height="27px" viewBox="0 0 27 27" version="1.1" xmlns="http://www.w3.org/2000/svg" xmlns:xlink="http://www.w3.org/1999/xlink">
    <!-- Generator: Sketch 3.8.3 (29802) - http://www.bohemiancoding.com/sketch -->
    <title>funicular-l</title>
    <desc>Created with Sketch.</desc>
    <defs>
        <rect id="path-1" x="0" y="0" width="25" height="25" rx="3"></rect>
    </defs>
    <g id="POI-NIght" stroke="none" stroke-width="1" fill="none" fill-rule="evenodd">
        <g id="funicular-l" transform="translate(1.000000, 1.000000)">
            <g id="Rectangle-211">
                <use fill="#3C3E38" xlink:href="#path-1"></use>
                <use fill="#032C4D" xlink:href="#path-1"></use>
            </g>
            <path d="M4,9.99539757 C4,9.44565467 4.43731068,8.89710337 4.9750526,8.77057586 L20.0249474,5.22942414 C20.5634541,5.10271669 21,5.4556644 21,5.99539757 L21,14.0046024 C21,14.5543453 20.5626893,15.1028966 20.0249474,15.2294241 L4.9750526,18.7705759 C4.43654592,18.8972833 4,18.5443356 4,18.0046024 L4,9.99539757 Z M6,11.1904785 C6,10.9195947 6.2157526,10.6496577 6.49538898,10.5844092 L8.50461102,10.1155908 C8.7782068,10.0517517 9,10.2150574 9,10.4904785 L9,13.5095215 C9,13.7804053 8.7842474,14.0503423 8.50461102,14.1155908 L6.49538898,14.5844092 C6.2217932,14.6482482 6,14.4849426 6,14.2095215 L6,11.1904785 Z M16,8.19047851 C16,7.91959471 16.2157526,7.64965772 16.495389,7.58440923 L18.504611,7.11559076 C18.7782068,7.05175175 19,7.21505737 19,7.49047852 L19,10.5095215 C19,10.7804053 18.7842474,11.0503423 18.504611,11.1155908 L16.495389,11.5844092 C16.2217932,11.6482482 16,11.4849426 16,11.2095215 L16,8.19047851 Z M11,9.69047851 C11,9.41959471 11.2157526,9.14965772 11.495389,9.08440923 L13.504611,8.61559076 C13.7782068,8.55175175 14,8.71505737 14,8.99047852 L14,12.0095215 C14,12.2804053 13.7842474,12.5503423 13.504611,12.6155908 L11.495389,13.0844092 C11.2217932,13.1482482 11,12.9849426 11,12.7095215 L11,9.69047851 Z" id="Rectangle-41" fill-opacity="0.7" fill="#FFFFFF"></path>
        </g>
    </g>
</svg>