<?xml version="1.0" encoding="UTF-8" standalone="no"?>
<svg width="27px" height="27px" viewBox="0 0 27 27" version="1.1" xmlns="http://www.w3.org/2000/svg" xmlns:xlink="http://www.w3.org/1999/xlink" xmlns:sketch="http://www.bohemiancoding.com/sketch/ns">
    <!-- Generator: Sketch 3.4.2 (15857) - http://www.bohemiancoding.com/sketch -->
    <title>funicular-l</title>
    <desc>Created with Sketch.</desc>
    <defs></defs>
    <g id="Transport" stroke="none" stroke-width="1" fill="none" fill-rule="evenodd" sketch:type="MSPage">
        <g id="funicular-l" sketch:type="MSLayerGroup">
            <circle id="Oval-1-Copy-39" opacity="0" fill="#FFFFFF" sketch:type="MSShapeGroup" cx="13.5" cy="13.5" r="13.5"></circle>
            <path d="M13.5,26 C20.4035594,26 26,20.4035594 26,13.5 C26,6.59644063 20.4035594,1 13.5,1 C6.59644063,1 1,6.59644063 1,13.5 C1,20.4035594 6.59644063,26 13.5,26 Z" id="Oval-1-Copy-38" fill="#133655" sketch:type="MSShapeGroup"></path>
            <path d="M5,10.9953976 C5,10.4456547 5.43731068,9.89710337 5.9750526,9.77057586 L21.0249474,6.22942414 C21.5634541,6.10271669 22,6.4556644 22,6.99539757 L22,15.0046024 C22,15.5543453 21.5626893,16.1028966 21.0249474,16.2294241 L5.9750526,19.7705759 C5.43654592,19.8972833 5,19.5443356 5,19.0046024 L5,10.9953976 Z M7,12.1904785 C7,11.9195947 7.2157526,11.6496577 7.49538898,11.5844092 L9.50461102,11.1155908 C9.7782068,11.0517517 10,11.2150574 10,11.4904785 L10,14.5095215 C10,14.7804053 9.7842474,15.0503423 9.50461102,15.1155908 L7.49538898,15.5844092 C7.2217932,15.6482482 7,15.4849426 7,15.2095215 L7,12.1904785 Z M17,9.19047851 C17,8.91959471 17.2157526,8.64965772 17.495389,8.58440923 L19.504611,8.11559076 C19.7782068,8.05175175 20,8.21505737 20,8.49047852 L20,11.5095215 C20,11.7804053 19.7842474,12.0503423 19.504611,12.1155908 L17.495389,12.5844092 C17.2217932,12.6482482 17,12.4849426 17,12.2095215 L17,9.19047851 Z M12,10.6904785 C12,10.4195947 12.2157526,10.1496577 12.495389,10.0844092 L14.504611,9.61559076 C14.7782068,9.55175175 15,9.71505737 15,9.99047852 L15,13.0095215 C15,13.2804053 14.7842474,13.5503423 14.504611,13.6155908 L12.495389,14.0844092 C12.2217932,14.1482482 12,13.9849426 12,13.7095215 L12,10.6904785 Z" id="Rectangle-41" opacity="0.7" fill="#FFFFFF" sketch:type="MSShapeGroup"></path>
        </g>
    </g>
</svg>