<?xml version="1.0" encoding="UTF-8" standalone="no"?>
<svg width="23px" height="23px" viewBox="0 0 23 23" version="1.1" xmlns="http://www.w3.org/2000/svg" xmlns:xlink="http://www.w3.org/1999/xlink" xmlns:sketch="http://www.bohemiancoding.com/sketch/ns">
    <!-- Generator: Sketch 3.4.2 (15857) - http://www.bohemiancoding.com/sketch -->
    <title>funicular-m</title>
    <desc>Created with Sketch.</desc>
    <defs></defs>
    <g id="Transport" stroke="none" stroke-width="1" fill="none" fill-rule="evenodd" sketch:type="MSPage">
        <g id="funicular-m" sketch:type="MSLayerGroup">
            <circle id="Oval-1-Copy-41" opacity="0" fill="#FFFFFF" sketch:type="MSShapeGroup" cx="11.5" cy="11.5" r="11.5"></circle>
            <circle id="Oval-1-Copy-40" fill="#133655" sketch:type="MSShapeGroup" cx="11.5" cy="11.5" r="10.5"></circle>
            <path d="M4,9.21764909 C4,8.6679062 4.43274403,8.12416288 4.98419189,7.99916803 L18.0158081,5.04533502 C18.5593623,4.9221294 19,5.27791592 19,5.81764909 L19,13.826854 C19,14.3765968 18.567256,14.9203402 18.0158081,15.045335 L4.98419189,17.999168 C4.44063772,18.1223736 4,17.7665871 4,17.226854 L4,9.21764909 Z M5.7,9.91273003 C5.7,9.64184623 5.9157526,9.37190924 6.19538898,9.30666075 L8.20461102,8.83784228 C8.4782068,8.77400327 8.7,8.93730889 8.7,9.21273004 L8.7,12.231773 C8.7,12.5026568 8.4842474,12.7725938 8.20461102,12.8378423 L6.19538898,13.3066608 C5.9217932,13.3704998 5.7,13.2071941 5.7,12.931773 L5.7,9.91273003 Z M14.6,7.71273003 C14.6,7.44184623 14.8157526,7.17190924 15.095389,7.10666075 L17.104611,6.63784228 C17.3782068,6.57400327 17.6,6.73730889 17.6,7.01273004 L17.6,10.031773 C17.6,10.3026568 17.3842474,10.5725938 17.104611,10.6378423 L15.095389,11.1066608 C14.8217932,11.1704998 14.6,11.0071941 14.6,10.731773 L14.6,7.71273003 Z M10.2,8.91273003 C10.2,8.64184623 10.4197113,8.36732369 10.6877228,8.30032082 L12.5122772,7.84418221 C12.7816391,7.77684175 13,7.93730889 13,8.21273004 L13,11.231773 C13,11.5026568 12.7802887,11.7771793 12.5122772,11.8441822 L10.6877228,12.3003208 C10.4183609,12.3676613 10.2,12.2071941 10.2,11.931773 L10.2,8.91273003 Z" id="Rectangle-41-Copy" opacity="0.7" fill="#FFFFFF" sketch:type="MSShapeGroup"></path>
        </g>
    </g>
</svg>