<svg width="24" height="24" viewBox="0 0 24 24">
  <g fill="none" fill-rule="evenodd">
    <rect width="24" height="24" fill="#FFF" opacity=".4" rx="2.5"/>
    <rect width="22" height="22" x="1" y="1" fill="#1F4366" rx="2"/>
    <path fill="#FFF" d="M5,9.19675033 C5,8.64700743 5.43274403,8.10326411 5.98419189,7.97826926 L19.0158081,5.02443625 C19.5593623,4.90123064 20,5.25701715 20,5.79675032 L20,13.8059552 C20,14.3556981 19.567256,14.8994414 19.0158081,15.0244362 L5.98419189,17.9782693 C5.44063772,18.1014749 5,17.7456884 5,17.2059552 L5,9.19675033 Z M6.7,9.89183126 L6.7,12.9108742 C6.7,13.1862954 6.9217932,13.349601 7.19538898,13.285762 L9.20461102,12.8169435 C9.4842474,12.751695 9.7,12.481758 9.7,12.2108742 L9.7,9.19183127 C9.7,8.91641013 9.4782068,8.7531045 9.20461102,8.81694351 L7.19538898,9.28576199 C6.9157526,9.35101047 6.7,9.62094746 6.7,9.89183126 Z M15.6,7.69183126 L15.6,10.7108742 C15.6,10.9862954 15.8217932,11.149601 16.095389,11.085762 L18.104611,10.6169435 C18.3842474,10.551695 18.6,10.281758 18.6,10.0108742 L18.6,6.99183127 C18.6,6.71641013 18.3782068,6.5531045 18.104611,6.61694351 L16.095389,7.08576199 C15.8157526,7.15101047 15.6,7.42094746 15.6,7.69183126 Z M11.2,8.89183126 L11.2,11.9108742 C11.2,12.1862954 11.4183609,12.3467625 11.6877228,12.2794221 L13.5122772,11.8232834 C13.7802887,11.7562806 14,11.481758 14,11.2108742 L14,8.19183127 C14,7.91641013 13.7816391,7.75594298 13.5122772,7.82328345 L11.6877228,8.27942205 C11.4197113,8.34642492 11.2,8.62094746 11.2,8.89183126 Z" opacity=".6"/>
  </g>
</svg>
