<?xml version="1.0" encoding="UTF-8" standalone="no"?>
<svg width="23px" height="23px" viewBox="0 0 23 23" version="1.1" xmlns="http://www.w3.org/2000/svg" xmlns:xlink="http://www.w3.org/1999/xlink" xmlns:sketch="http://www.bohemiancoding.com/sketch/ns">
    <!-- Generator: Sketch 3.4.2 (15857) - http://www.bohemiancoding.com/sketch -->
    <title>furniture-m</title>
    <desc>Created with Sketch.</desc>
    <defs>
        <path id="path-1" d="M22,11.5 C22,17.299 17.299,22 11.5,22 C5.701,22 1,17.299 1,11.5 C1,5.701 5.701,1 11.5,1 C17.299,1 22,5.701 22,11.5 L22,11.5 Z"></path>
    </defs>
    <g id="POI" stroke="none" stroke-width="1" fill="none" fill-rule="evenodd" sketch:type="MSPage">
        <g id="furniture-m" sketch:type="MSLayerGroup">
            <path d="M11.5,23 C5.159,23 0,17.841 0,11.5 C0,5.159 5.159,0 11.5,0 C17.841,0 23,5.159 23,11.5 C23,17.841 17.841,23 11.5,23 L11.5,23 Z" id="Shape" opacity="0" fill="#FFFFFF" sketch:type="MSShapeGroup"></path>
            <g id="Shape">
                <use fill="#3D3D37" fill-rule="evenodd" sketch:type="MSShapeGroup" xlink:href="#path-1"></use>
                <use fill="none" xlink:href="#path-1"></use>
            </g>
            <path d="M18,11.9333333 C18,12.5418667 17.581,13.0542667 17,13.2474667 L17,18 L15,18 L15,16.1333333 L8,16.1333333 L8,18 L6,18 L6,13.2474667 C5.419,13.0542667 5,12.5418667 5,11.9333333 C5,11.1605333 5.672,10.5333333 6.5,10.5333333 C7.327,10.5333333 7.999,11.1596 8,11.9314667 L8,13.3333333 L9.2,13.3333333 L9.2,11.9305333 C9.198,10.7022667 8.249,9.68026667 7,9.46093333 L7,5.25906667 C8.308,4.46106667 9.859,4 11.501,4 C13.141,4 14.692,4.46013333 16,5.25906667 L16,9.46093333 C14.751,9.68026667 13.802,10.7032 13.8,11.9314667 L13.8,13.3333333 L15,13.3333333 L15,11.9314667 C15.001,11.1596 15.673,10.5333333 16.5,10.5333333 C17.328,10.5333333 18,11.1605333 18,11.9333333 L18,11.9333333 Z" id="Shape" opacity="0.7" fill="#FFFFFF" sketch:type="MSShapeGroup"></path>
        </g>
    </g>
</svg>