<?xml version="1.0" encoding="UTF-8"?>
<svg width="24px" height="24px" viewBox="0 0 24 24" version="1.1" xmlns="http://www.w3.org/2000/svg" xmlns:xlink="http://www.w3.org/1999/xlink">
    <title>gallery-m</title>
    <g id="Page-2:-Night" stroke="none" stroke-width="1" fill="none" fill-rule="evenodd" opacity="0.6">
        <g id="gallery-m" fill-rule="nonzero">
            <circle id="Oval" fill="#FFFFFF" cx="12" cy="12" r="12"></circle>
            <circle id="Oval" fill="#7F5933" cx="12" cy="12" r="11"></circle>
            <path d="M12,5 C8.143,5 5,8.143 5,12 C5,15.857 8.143,19 12,19 C12.966,19 13.75,18.216 13.75,17.25 C13.75,16.823 13.589,16.41 13.302,16.081 C13.246,16.011 13.211,15.934 13.211,15.85 C13.211,15.654 13.365,15.5 13.561,15.5 L14.8,15.5 C17.117,15.5 19,13.617 19,11.3 C19,7.828 15.857,5 12,5 Z M15.85,12.7 C15.269,12.7 14.8,12.231 14.8,11.65 C14.8,11.069 15.269,10.6 15.85,10.6 C16.431,10.6 16.9,11.069 16.9,11.65 C16.9,12.231 16.431,12.7 15.85,12.7 Z M13.75,9.9 C13.169,9.9 12.7,9.431 12.7,8.85 C12.7,8.269 13.169,7.8 13.75,7.8 C14.331,7.8 14.8,8.269 14.8,8.85 C14.8,9.431 14.331,9.9 13.75,9.9 Z M7.1,11.65 C7.1,11.069 7.569,10.6 8.15,10.6 C8.731,10.6 9.2,11.069 9.2,11.65 C9.2,12.231 8.731,12.7 8.15,12.7 C7.569,12.7 7.1,12.231 7.1,11.65 Z M11.3,8.85 C11.3,9.431 10.831,9.9 10.25,9.9 C9.669,9.9 9.2,9.431 9.2,8.85 C9.2,8.269 9.669,7.8 10.25,7.8 C10.831,7.8 11.3,8.269 11.3,8.85 Z" id="Shape" fill="#FFFFFF"></path>
        </g>
    </g>
</svg>