<?xml version="1.0" encoding="UTF-8" standalone="no"?>
<svg width="17px" height="17px" viewBox="0 0 17 17" version="1.1" xmlns="http://www.w3.org/2000/svg" xmlns:xlink="http://www.w3.org/1999/xlink" xmlns:sketch="http://www.bohemiancoding.com/sketch/ns">
    <!-- Generator: Sketch 3.4.2 (15857) - http://www.bohemiancoding.com/sketch -->
    <title>gallery-s</title>
    <desc>Created with Sketch.</desc>
    <defs></defs>
    <g id="POI" stroke="none" stroke-width="1" fill="none" fill-rule="evenodd" sketch:type="MSPage">
        <g id="art-gallery-s" sketch:type="MSLayerGroup">
            <circle id="Oval-1-Copy-43" opacity="0" fill="#FFFFFF" sketch:type="MSShapeGroup" cx="8.5" cy="8.5" r="8.5"></circle>
            <circle id="Oval-1-Copy-42" fill="#59310E" sketch:type="MSShapeGroup" cx="8.5" cy="8.5" r="7.5"></circle>
            <path d="M8,5 C5.5,5 4,6.5 4,8 C4,9 4.5,10 6,10 C7,10 7,10.25 7,11 C7,12.5 8.5,13 9.5,13 C12,13 13,10.75 13,9 C13,5.5 10.48528,5 8,5 L8,5 Z M7.375,6 C7.72017,6 8,6.2798 8,6.625 C8,6.9702 7.72017,7.25 7.375,7.25 C7.02983,7.25 6.75,6.9702 6.75,6.625 C6.75,6.2798 7.02983,6 7.375,6 L7.375,6 Z M9.375,6 C9.72017,6 10,6.2798 10,6.625 C10,6.9702 9.72017,7.25 9.375,7.25 C9.02983,7.25 8.75,6.9702 8.75,6.625 C8.75,6.2798 9.02983,6 9.375,6 L9.375,6 Z M5.625,6.75 C5.97017,6.75 6.25,7.0298 6.25,7.375 C6.25,7.7202 5.97017,8 5.625,8 C5.27983,8 5,7.7202 5,7.375 C5,7.0298 5.27983,6.75 5.625,6.75 L5.625,6.75 Z M11.375,7 C11.72017,7 12,7.2798 12,7.625 C12,7.9702 11.72017,8.25 11.375,8.25 C11.02983,8.25 10.75,7.9702 10.75,7.625 C10.75,7.2798 11.02983,7 11.375,7 L11.375,7 Z M9,9.5 C9.55228,9.5 10,9.9477 10,10.5 C10,11.0523 9.55228,11.5 9,11.5 C8.44772,11.5 8,11.0523 8,10.5 C8,9.9477 8.44772,9.5 9,9.5 L9,9.5 Z" id="path6558" opacity="0.7" fill="#FFFFFF" sketch:type="MSShapeGroup"></path>
        </g>
    </g>
</svg>