<svg width="24" height="24" viewBox="0 0 24 24">
  <g fill="none" fill-rule="evenodd">
    <circle cx="12" cy="12" r="12" fill="#FFF" opacity=".4"/>
    <circle cx="12" cy="12" r="11" fill="#4C351E"/>
    <path fill="#FFF" d="M10.9333333,6 C6.785184,6 4,9.59419826 4,11.2173913 C4,12.7826087 5.066656,13.826087 6.66666667,13.826087 C8.32593067,13.826087 9.86666667,14.1739096 9.86666667,15.3913043 C9.86666667,17.0144974 11.4074027,18 13.0666667,18 C17.8666667,18 20,15.101447 20,12.2608696 C20,6.52173913 15.0570667,6 10.9333333,6 L10.9333333,6 Z M9.33333333,7.56521739 C9.922432,7.56521739 10.4,8.03240348 10.4,8.60869565 C10.4,9.18498783 9.922432,9.65217391 9.33333333,9.65217391 C8.74423467,9.65217391 8.26666667,9.18498783 8.26666667,8.60869565 C8.26666667,8.03240348 8.74423467,7.56521739 9.33333333,7.56521739 L9.33333333,7.56521739 Z M12.5333333,7.56521739 C13.1224213,7.56521739 13.6,8.03241391 13.6,8.60869565 C13.6,9.18497739 13.1224213,9.65217391 12.5333333,9.65217391 C11.9442453,9.65217391 11.4666667,9.18497739 11.4666667,8.60869565 C11.4666667,8.03241391 11.9442453,7.56521739 12.5333333,7.56521739 L12.5333333,7.56521739 Z M15.7333333,9.13043478 C16.3142613,9.13043478 16.7666667,9.60561391 16.7666667,10.173913 C16.7666667,10.7422122 16.3142613,11.1847826 15.7333333,11.1847826 C15.1524053,11.1847826 14.6666667,10.7422122 14.6666667,10.173913 C14.6666667,9.60561391 15.1524053,9.13043478 15.7333333,9.13043478 L15.7333333,9.13043478 Z M7.2,10.173913 C7.78910933,10.173913 8.26666667,10.6410887 8.26666667,11.2173913 C8.26666667,11.7936939 7.78910933,12.2608696 7.2,12.2608696 C6.61089067,12.2608696 6.13333333,11.7936939 6.13333333,11.2173913 C6.13333333,10.6410887 6.61089067,10.173913 7.2,10.173913 L7.2,10.173913 Z M12.8,13.826087 C13.5363733,13.826087 14.1333333,14.4100696 14.1333333,15.1304348 C14.1333333,15.8508 13.5363733,16.4347826 12.8,16.4347826 C12.0636267,16.4347826 11.4666667,15.8508 11.4666667,15.1304348 C11.4666667,14.4100696 12.0636267,13.826087 12.8,13.826087 L12.8,13.826087 Z" opacity=".6"/>
  </g>
</svg>
