<svg version="1.1" viewBox="0 0 24 24" xmlns="http://www.w3.org/2000/svg">
 <title>gallery-m</title>
 <g id="Page-2:-Night" fill="none" fill-rule="evenodd" opacity=".6">
  <g id="gallery-m" fill-rule="nonzero">
   <circle id="Oval" cx="12" cy="12" r="12" fill="#fff"/>
   <circle id="Oval" cx="12" cy="12" r="11" fill="#7F5933"/>
   <path id="Shape" d="m12 5c-3.857 0-7 3.143-7 7s3.143 7 7 7c0.966 0 1.75-0.784 1.75-1.75 0-0.427-0.161-0.84-0.448-1.169-0.056-0.07-0.091-0.147-0.091-0.231 0-0.196 0.154-0.35 0.35-0.35h1.239c2.317 0 4.2-1.883 4.2-4.2 0-3.472-3.143-6.3-7-6.3zm3.85 7.7c-0.581 0-1.05-0.469-1.05-1.05s0.469-1.05 1.05-1.05 1.05 0.469 1.05 1.05-0.469 1.05-1.05 1.05zm-2.1-2.8c-0.581 0-1.05-0.469-1.05-1.05s0.469-1.05 1.05-1.05 1.05 0.469 1.05 1.05-0.469 1.05-1.05 1.05zm-6.65 1.75c0-0.581 0.469-1.05 1.05-1.05s1.05 0.469 1.05 1.05-0.469 1.05-1.05 1.05-1.05-0.469-1.05-1.05zm4.2-2.8c0 0.581-0.469 1.05-1.05 1.05s-1.05-0.469-1.05-1.05 0.469-1.05 1.05-1.05 1.05 0.469 1.05 1.05z" fill="#fff"/>
  </g>
 </g>
</svg>
