<?xml version="1.0" encoding="UTF-8" standalone="no"?>
<svg width="23px" height="23px" viewBox="0 0 23 23" version="1.1" xmlns="http://www.w3.org/2000/svg" xmlns:xlink="http://www.w3.org/1999/xlink" xmlns:sketch="http://www.bohemiancoding.com/sketch/ns">
    <!-- Generator: Sketch 3.4.2 (15857) - http://www.bohemiancoding.com/sketch -->
    <title>gallery-m</title>
    <desc>Created with Sketch.</desc>
    <defs></defs>
    <g id="POI" stroke="none" stroke-width="1" fill="none" fill-rule="evenodd" sketch:type="MSPage">
        <g id="art-gallery-m" sketch:type="MSLayerGroup">
            <ellipse id="Oval-1-Copy-41" opacity="0" fill="#FFFFFF" sketch:type="MSShapeGroup" cx="11.5" cy="11.5" rx="11.5" ry="11.5"></ellipse>
            <ellipse id="Oval-1-Copy-40" fill="#2E1B10" sketch:type="MSShapeGroup" cx="11.5" cy="11.5" rx="10.5" ry="10.5"></ellipse>
            <path d="M10.5000045,7 C6.61111446,7 4.00000442,10.44444 4.00000442,12.0000001 C4.00000442,13.5000001 4.99999444,14.5000001 6.50000446,14.5000001 C8.05556448,14.5000001 9.5000045,14.8333301 9.5000045,16.0000001 C9.5000045,17.5555601 10.9444445,18.5000002 12.5000045,18.5000002 C17.0000046,18.5000002 19.0000046,15.7222201 19.0000046,13.0000001 C19.0000046,7.50000001 14.3660046,7 10.5000045,7 L10.5000045,7 Z M9.00000449,8.50000002 C9.5522845,8.50000002 10.0000045,8.94772003 10.0000045,9.50000003 C10.0000045,10.05228 9.5522845,10.5 9.00000449,10.5 C8.44772449,10.5 8.00000448,10.05228 8.00000448,9.50000003 C8.00000448,8.94772003 8.44772449,8.50000002 9.00000449,8.50000002 L9.00000449,8.50000002 Z M12.0000045,8.50000002 C12.5522745,8.50000002 13.0000046,8.94773003 13.0000046,9.50000003 C13.0000046,10.05227 12.5522745,10.5 12.0000045,10.5 C11.4477345,10.5 11.0000045,10.05227 11.0000045,9.50000003 C11.0000045,8.94773003 11.4477345,8.50000002 12.0000045,8.50000002 L12.0000045,8.50000002 Z M15.0000046,10 C15.5446246,10 15.9687546,10.45538 15.9687546,11.0000001 C15.9687546,11.5446201 15.5446246,11.9687501 15.0000046,11.9687501 C14.4553846,11.9687501 14.0000046,11.5446201 14.0000046,11.0000001 C14.0000046,10.45538 14.4553846,10 15.0000046,10 L15.0000046,10 Z M7.00000447,11.0000001 C7.55229447,11.0000001 8.00000448,11.4477101 8.00000448,12.0000001 C8.00000448,12.5522901 7.55229447,13.0000001 7.00000447,13.0000001 C6.44771446,13.0000001 6.00000445,12.5522901 6.00000445,12.0000001 C6.00000445,11.4477101 6.44771446,11.0000001 7.00000447,11.0000001 L7.00000447,11.0000001 Z M12.2500045,14.5000001 C12.9403545,14.5000001 13.5000046,15.0596501 13.5000046,15.7500001 C13.5000046,16.4403501 12.9403545,17.0000001 12.2500045,17.0000001 C11.5596545,17.0000001 11.0000045,16.4403501 11.0000045,15.7500001 C11.0000045,15.0596501 11.5596545,14.5000001 12.2500045,14.5000001 L12.2500045,14.5000001 Z" id="path6511-1" opacity="0.7" fill="#FFFFFF" sketch:type="MSShapeGroup"></path>
        </g>
    </g>
</svg>