<?xml version="1.0" encoding="UTF-8"?>
<svg width="24px" height="24px" viewBox="0 0 24 24" version="1.1" xmlns="http://www.w3.org/2000/svg" xmlns:xlink="http://www.w3.org/1999/xlink">
    <title>garden_center-m</title>
    <g id="Page-2:-Night" stroke="none" stroke-width="1" fill="none" fill-rule="evenodd" opacity="0.6">
        <g id="garden_center-m" fill-rule="nonzero">
            <circle id="Oval" fill="#FFFFFF" cx="12" cy="12" r="12"></circle>
            <circle id="Oval" fill="#8C5F93" cx="12" cy="12" r="11"></circle>
            <g id="Group" transform="translate(5.000000, 5.000000)" fill="#FFFFFF">
                <path d="M12.6,0 L1.4,0 C0.63,0 0,0.63 0,1.4 L0,12.6 C0,13.37 0.63,14 1.4,14 L12.6,14 C13.37,14 14,13.37 14,12.6 L14,1.4 C14,0.63 13.37,0 12.6,0 Z M4.2,4.354 C4.2,3.752 4.69,3.262 5.292,3.262 C5.523,3.262 5.74,3.332 5.915,3.458 L5.908,3.374 C5.908,2.772 6.398,2.282 7,2.282 C7.602,2.282 8.092,2.772 8.092,3.374 L8.085,3.458 C8.267,3.332 8.477,3.262 8.708,3.262 C9.31,3.262 9.8,3.752 9.8,4.354 C9.8,4.788 9.541,5.166 9.177,5.334 C9.541,5.509 9.8,5.887 9.8,6.321 C9.8,6.923 9.31,7.413 8.708,7.413 C8.477,7.413 8.26,7.336 8.085,7.217 L8.092,7.301 C8.092,7.903 7.602,8.393 7,8.393 C6.398,8.393 5.908,7.903 5.908,7.301 L5.915,7.217 C5.733,7.343 5.523,7.413 5.292,7.413 C4.69,7.413 4.2,6.923 4.2,6.321 C4.2,5.887 4.459,5.509 4.823,5.341 C4.459,5.166 4.2,4.788 4.2,4.354 Z M7,11.9 C5.019,11.9 3.353,10.521 2.912,8.673 C2.786,8.155 3.255,7.693 3.773,7.812 C5.621,8.253 7,9.919 7,11.9 C7,9.919 8.379,8.253 10.227,7.812 C10.745,7.686 11.207,8.155 11.088,8.673 C10.647,10.521 8.981,11.9 7,11.9 Z" id="Shape"></path>
                <circle id="Oval" cx="7" cy="5.334" r="1.092"></circle>
            </g>
        </g>
    </g>
</svg>