<?xml version="1.0" encoding="utf-8"?>
<!-- Generator: Adobe Illustrator 21.0.2, SVG Export Plug-In . SVG Version: 6.00 Build 0)  -->
<svg version="1.1" id="Слой_1" xmlns="http://www.w3.org/2000/svg" xmlns:xlink="http://www.w3.org/1999/xlink" x="0px" y="0px"
	 viewBox="0 0 32.4 32.4" enable-background="new 0 0 32.4 32.4" xml:space="preserve">
<title>garden-l</title>
<desc>Created with Sketch.</desc>
<g id="POI-NIght">
	<g id="garden-l">
		<ellipse id="Oval-1-Copy-39" fill="#FFFFFF" fill-opacity="0.1" cx="16.2" cy="16.2" rx="16.2" ry="16.2"/>
		<ellipse id="Oval-1-Copy-38" fill="#112906" cx="16.2" cy="16.2" rx="15" ry="15"/>
		<path id="path6080-4" fill="#FFFFFF" fill-opacity="0.7" d="M10.8,8.4v2.4c0,2.4,2.4,3.7,4.8,3.6V24c-1.2-2.4-4.8-6-8.4-4.8
			c0,0,3,7.2,9,7.2s9-7.2,9-7.2C21.6,18,18,21.6,16.8,24v-9.6c2.4,0.1,4.8-1.2,4.8-3.6V8.4c0-0.5-0.1-1.2-0.4-1.2
			c-0.2,0-0.5,0.3-0.8,0.6l-1.8,1.8l-1.8-2c-0.2-0.2-0.3-0.4-0.6-0.4c-0.3,0-0.4,0.2-0.6,0.4l-1.8,2L12,7.8
			c-0.3-0.3-0.6-0.6-0.8-0.6C10.9,7.2,10.8,7.9,10.8,8.4z"/>
	</g>
</g>
</svg>
