<?xml version="1.0" encoding="UTF-8" standalone="no"?>
<svg width="27px" height="27px" viewBox="0 0 27 27" version="1.1" xmlns="http://www.w3.org/2000/svg" xmlns:xlink="http://www.w3.org/1999/xlink" xmlns:sketch="http://www.bohemiancoding.com/sketch/ns">
    <!-- Generator: Sketch 3.4.2 (15857) - http://www.bohemiancoding.com/sketch -->
    <title>garden-l</title>
    <desc>Created with Sketch.</desc>
    <defs></defs>
    <g id="POI" stroke="none" stroke-width="1" fill="none" fill-rule="evenodd" sketch:type="MSPage">
        <g id="garden-l" sketch:type="MSLayerGroup">
            <circle id="Oval-1-Copy-39" opacity="0" fill="#FFFFFF" sketch:type="MSShapeGroup" cx="13.5" cy="13.5" r="13.5"></circle>
            <circle id="Oval-1-Copy-38" fill="#1B430B" sketch:type="MSShapeGroup" cx="13.5" cy="13.5" r="12.5"></circle>
            <path d="M9,7 L9,9 C9,11.0312 11,12.0625 13,12 L13,20 C12,18 9,15 6,16 C6,16 8.5,22 13.5,22 C18.5,22 21,16 21,16 C18,15 15,18 14,20 L14,12 C16,12.062 18,11.0312 18,9 L18,7 C18,6.5596 17.9532,6 17.7,6 C17.50708,6 17.27438,6.2256 17,6.5 L15.5,8 L14,6.3125 C13.84343,6.1364 13.75304,6 13.5,6 C13.24695,6 13.15657,6.1364 13,6.3125 L11.5,8 L10,6.5 C9.72562,6.2256 9.49292,6 9.3,6 C9.047,6 9,6.5596 9,7 Z" id="path6080-4" opacity="0.7" fill="#FFFFFF" sketch:type="MSShapeGroup"></path>
        </g>
    </g>
</svg>