<?xml version="1.0" encoding="UTF-8" standalone="no"?>
<svg width="23px" height="23px" viewBox="0 0 23 23" version="1.1" xmlns="http://www.w3.org/2000/svg" xmlns:xlink="http://www.w3.org/1999/xlink" xmlns:sketch="http://www.bohemiancoding.com/sketch/ns">
    <!-- Generator: Sketch 3.4.2 (15857) - http://www.bohemiancoding.com/sketch -->
    <title>garden_center-m</title>
    <desc>Created with Sketch.</desc>
    <defs>
        <path id="path-1" d="M21.4867917,11.5 C21.4867917,17.299 16.9816667,22 11.4242917,22 C5.86691667,22 1.36179167,17.299 1.36179167,11.5 C1.36179167,5.701 5.86691667,1 11.4242917,1 C16.9816667,1 21.4867917,5.701 21.4867917,11.5 L21.4867917,11.5 Z"></path>
    </defs>
    <g id="POI" stroke="none" stroke-width="1" fill="none" fill-rule="evenodd" sketch:type="MSPage">
        <g id="garden_center-m" sketch:type="MSLayerGroup">
            <path d="M11.4242917,23 C5.3475,23 0.403458333,17.841 0.403458333,11.5 C0.403458333,5.159 5.3475,0 11.4242917,0 C17.5010833,0 22.445125,5.159 22.445125,11.5 C22.445125,17.841 17.5010833,23 11.4242917,23 L11.4242917,23 Z" id="Shape" opacity="0" fill="#FFFFFF" sketch:type="MSShapeGroup"></path>
            <g id="Shape">
                <use fill="#3D3D37" fill-rule="evenodd" sketch:type="MSShapeGroup" xlink:href="#path-1"></use>
                <use fill="none" xlink:href="#path-1"></use>
            </g>
            <path d="M13.0020468,8.347 C13.9325884,7.377 15.2272968,7.024 16.4232968,7.284 C16.6734218,8.534 16.3351301,9.886 15.4055468,10.855 C14.4759634,11.824 13.1802968,12.178 11.9833384,11.918 C11.7332134,10.668 12.0724634,9.316 13.0020468,8.347 L13.0020468,8.347 Z M10.8802968,11.83 C11.0882551,10.791 10.8055468,9.664 10.0302551,8.855 C9.25688009,8.046 8.17588009,7.751 7.17729676,7.968 C6.97029676,9.009 7.25396342,10.135 8.02733842,10.944 C8.80263009,11.753 9.88075509,12.047 10.8802968,11.83 L10.8802968,11.83 Z M7.11179167,14.2 C7.11179167,14.642 7.47792803,15 7.92997348,15 L8.39735985,15 L8.98235985,19 L14.0959962,19 L14.8262235,15 L15.2936098,15 C15.7456553,15 16.1117917,14.643 16.1117917,14.2 L16.1117917,13 L7.11179167,13 L7.11179167,14.2 L7.11179167,14.2 Z M11.4246301,4 C10.6311301,4 9.98713009,4.672 9.98713009,5.5 C9.98713009,6.328 10.6311301,7 11.4246301,7 C12.2181301,7 12.8621301,6.328 12.8621301,5.5 C12.8621301,4.672 12.2181301,4 11.4246301,4 L11.4246301,4 Z" id="Shape" opacity="0.7" fill="#FFFFFF" sketch:type="MSShapeGroup"></path>
        </g>
    </g>
</svg>