<svg width="24" height="24" viewBox="0 0 24 24">
  <g fill="none" fill-rule="evenodd">
    <circle cx="12" cy="12" r="12" fill="#FFF" opacity=".4"/>
    <circle cx="12" cy="12" r="11" fill="#3D3C36"/>
    <path fill="#FFF" d="M5.93333333,16 L18.0666667,16 C18.5818667,16 19,15.5894898 19,15.0816327 L19,14.5296939 L5,14.5296939 L5,15.0816327 C5,15.5894898 5.41813333,16 5.93333333,16 L5.93333333,16 Z M9.66666667,12.5102041 L17.6,12.5102041 C18.3737333,12.5102041 19,11.8930612 19,11.1326531 C19,10.3722449 18.3737333,9.75510204 17.6,9.75510204 L14.24,9.75510204 L10.88,7 L9.38666667,7 L11.0666667,9.75510204 L7.9932,9.75510204 L6.42613333,7.91836735 L5,7.91836735 L6.16666667,10.9792857 L9.66666667,12.5102041 L9.66666667,12.5102041 Z" opacity=".6"/>
  </g>
</svg>
