<?xml version="1.0" encoding="UTF-8"?>
<svg width="16px" height="16px" viewBox="0 0 16 16" version="1.1" xmlns="http://www.w3.org/2000/svg" xmlns:xlink="http://www.w3.org/1999/xlink">
    <title>geyser-s</title>
    <g id="Page-2:-Night" stroke="none" stroke-width="1" fill="none" fill-rule="evenodd" opacity="0.6">
        <g id="geyser-s" fill-rule="nonzero">
            <g id="geyser" transform="translate(3.428571, 3.428571)" fill="#14A0C2">
                <path d="M8.33928571,0 L0.803571429,0 C0.360482143,0 0,0.360482143 0,0.803571429 C0,1.24666071 0.360482143,1.60714286 0.803571429,1.60714286 L1.09833929,1.60714286 C1.22280357,2.21767857 1.76394643,2.67857143 2.41071429,2.67857143 L3.27803571,2.67857143 C3.35885714,2.90657143 3.53985714,3.08755357 3.76785714,3.16839286 L3.76785714,5.78041071 C4.00148214,5.76919643 4.22239286,5.68939286 4.409875,5.547625 L4.57142857,5.42546429 L4.73298214,5.547625 C4.92046429,5.68939286 5.141375,5.76919643 5.375,5.78041071 L5.375,3.16839286 C5.603,3.08757143 5.78398214,2.90657143 5.86482143,2.67857143 L6.73214286,2.67857143 C7.37891071,2.67857143 7.92005357,2.21767857 8.04451786,1.60714286 L8.33928571,1.60714286 C8.782375,1.60714286 9.14285714,1.24666071 9.14285714,0.803571429 C9.14285714,0.360482143 8.782375,0 8.33928571,0 Z" id="Path"></path>
                <path d="M8.87496429,6.31764286 C8.56821429,6.31764286 8.27417857,6.23716071 8.01428571,6.083375 C7.75439286,6.23716071 7.46035714,6.31764286 7.15357143,6.31764286 C6.84678571,6.31764286 6.55275,6.23716071 6.292875,6.083375 C6.03296429,6.23716071 5.73892857,6.31764286 5.43216071,6.31764286 C5.12535714,6.31764286 4.83133929,6.23716071 4.57144643,6.083375 C4.31155357,6.23716071 4.01751786,6.31764286 3.71073214,6.31764286 C3.40394643,6.31764286 3.10991071,6.23716071 2.85001786,6.083375 C2.590125,6.23716071 2.29608929,6.31764286 1.98932143,6.31764286 C1.68251786,6.31764286 1.3885,6.23716071 1.12860714,6.083375 C0.868696429,6.23716071 0.574660714,6.31764286 0.267892857,6.31764286 L0,6.31764286 L0,7.43514286 L0.267857143,7.43514286 C0.522535714,7.43514286 0.764303571,7.354125 0.967017857,7.20083929 L1.12857143,7.07867857 L1.290125,7.20083929 C1.49283929,7.354125 1.73460714,7.43514286 1.98928571,7.43514286 C2.24396429,7.43514286 2.48573214,7.354125 2.68842857,7.20083929 L2.84998214,7.07867857 L3.01153571,7.20083929 C3.21426786,7.354125 3.45603571,7.43514286 3.71069643,7.43514286 C3.96539286,7.43514286 4.20716071,7.354125 4.40985714,7.20083929 L4.57141071,7.07867857 L4.73296429,7.20083929 C4.93567857,7.354125 5.17744643,7.43514286 5.432125,7.43514286 C5.68680357,7.43514286 5.92857143,7.354125 6.13128571,7.20083929 L6.29283929,7.07867857 L6.45439286,7.20083929 C6.65710714,7.354125 6.898875,7.43514286 7.15353571,7.43514286 C7.40823214,7.43514286 7.65,7.354125 7.85269643,7.20083929 L8.01425,7.07867857 L8.17580357,7.20083929 C8.37853571,7.354125 8.62030357,7.43514286 8.87496429,7.43514286 L9.14282143,7.43514286 L9.14282143,6.31764286 L8.87496429,6.31764286 Z" id="Path"></path>
                <path d="M8.875,7.97085714 C8.56821429,7.97085714 8.27417857,7.890375 8.01428571,7.73658929 C7.75439286,7.890375 7.46035714,7.97085714 7.15357143,7.97085714 C6.84678571,7.97085714 6.55275,7.890375 6.292875,7.73658929 C6.03296429,7.890375 5.73892857,7.97085714 5.43216071,7.97085714 C5.12535714,7.97085714 4.83133929,7.890375 4.57144643,7.73658929 C4.31155357,7.890375 4.01751786,7.97085714 3.71073214,7.97085714 C3.40394643,7.97085714 3.10991071,7.890375 2.85001786,7.73658929 C2.590125,7.890375 2.29608929,7.97085714 1.98932143,7.97085714 C1.68251786,7.97085714 1.3885,7.890375 1.12860714,7.73658929 C0.868696429,7.890375 0.574660714,7.97085714 0.267892857,7.97085714 L0,7.97085714 L0,9.14285714 L9.14285714,9.14285714 L9.14285714,7.97085714 L8.875,7.97085714 Z" id="Path"></path>
            </g>
        </g>
    </g>
</svg>