<svg version="1.1" viewBox="0 0 28 28" xmlns="http://www.w3.org/2000/svg">
 <title>geyser-l</title>
 <g id="Page-2:-Night" fill="none" fill-rule="evenodd" opacity=".6">
  <g id="geyser-l" fill-rule="nonzero">
   <g id="geyser" transform="translate(6 6)" fill="#14A0C2">
    <path id="Path" d="m14.594 0h-13.188c-0.77541 0-1.4062 0.63084-1.4062 1.4062s0.63084 1.4062 1.4062 1.4062h0.51584c0.21781 1.0684 1.1648 1.875 2.2967 1.875h1.5178c0.14144 0.399 0.45819 0.71572 0.85719 0.85719v4.571c0.40884-0.019625 0.79544-0.15928 1.1235-0.40737l0.28272-0.21378 0.28272 0.21378c0.32809 0.24809 0.71469 0.38775 1.1235 0.40737v-4.571c0.399-0.14144 0.71572-0.45819 0.85719-0.85719h1.5178c1.1318 0 2.0788-0.80656 2.2967-1.875h0.51584c0.77541 0 1.4062-0.63084 1.4062-1.4062s-0.63084-1.4062-1.4062-1.4062z"/>
    <path id="Path" d="m15.531 11.056c-0.53681 0-1.0514-0.14084-1.5062-0.40997-0.45481 0.26913-0.96938 0.40997-1.5062 0.40997s-1.0514-0.14084-1.5062-0.40997c-0.45484 0.26913-0.96941 0.40997-1.5063 0.40997-0.53691 0-1.0514-0.14084-1.5062-0.40997-0.45481 0.26913-0.96938 0.40997-1.5062 0.40997s-1.0514-0.14084-1.5062-0.40997c-0.45481 0.26913-0.96938 0.40997-1.5062 0.40997-0.53691 0-1.0514-0.14084-1.5062-0.40997-0.45484 0.26913-0.96941 0.40997-1.5062 0.40997h-0.46881v1.9556h0.46875c0.44569 0 0.86878-0.14178 1.2235-0.41003l0.28272-0.21378 0.28272 0.21378c0.35475 0.26825 0.77784 0.41003 1.2235 0.41003s0.86878-0.14178 1.2235-0.41003l0.28272-0.21378 0.28272 0.21378c0.35478 0.26825 0.77788 0.41003 1.2235 0.41003 0.44572 0 0.86881-0.14178 1.2235-0.41003l0.28272-0.21378 0.28272 0.21378c0.35475 0.26825 0.77784 0.41003 1.2235 0.41003s0.86878-0.14178 1.2235-0.41003l0.28272-0.21378 0.28272 0.21378c0.35475 0.26825 0.77784 0.41003 1.2235 0.41003 0.44572 0 0.86881-0.14178 1.2235-0.41003l0.28272-0.21378 0.28272 0.21378c0.35478 0.26825 0.77788 0.41003 1.2235 0.41003h0.46875v-1.9556h-0.46875z"/>
    <path id="Path" d="m15.531 13.949c-0.53688 0-1.0514-0.14084-1.5062-0.40997-0.45481 0.26912-0.96938 0.40997-1.5062 0.40997s-1.0514-0.14084-1.5062-0.40997c-0.45484 0.26912-0.96941 0.40997-1.5063 0.40997-0.53691 0-1.0514-0.14084-1.5062-0.40997-0.45481 0.26912-0.96938 0.40997-1.5062 0.40997s-1.0514-0.14084-1.5062-0.40997c-0.45481 0.26912-0.96938 0.40997-1.5062 0.40997-0.53691 0-1.0514-0.14084-1.5062-0.40997-0.45484 0.26912-0.96941 0.40997-1.5062 0.40997h-0.46881v2.051h16v-2.051h-0.46875z"/>
   </g>
  </g>
 </g>
</svg>
