<svg version="1.1" viewBox="0 0 24 24" xmlns="http://www.w3.org/2000/svg">
 <title>geyser-m</title>
 <g id="Page-2:-Night" fill="none" fill-rule="evenodd" opacity=".6">
  <g id="geyser-m" fill-rule="nonzero">
   <g id="geyser" transform="translate(5.1429 5.1429)" fill="#14A0C2">
    <path id="Path" d="m12.509 0h-11.304c-0.66463 0-1.2054 0.54072-1.2054 1.2054 0 0.66463 0.54072 1.2054 1.2054 1.2054h0.44215c0.1867 0.9158 0.99841 1.6071 1.9686 1.6071h1.301c0.12123 0.342 0.39273 0.61347 0.73473 0.73473v3.918c0.35044-0.016821 0.6818-0.13653 0.96303-0.34918l0.24233-0.18324 0.24233 0.18324c0.28122 0.21265 0.61259 0.33236 0.96303 0.34918v-3.918c0.342-0.12123 0.61347-0.39273 0.73473-0.73473h1.301c0.97015 0 1.7819-0.69134 1.9686-1.6071h0.44215c0.66463 0 1.2054-0.54072 1.2054-1.2054 0-0.66463-0.54072-1.2054-1.2054-1.2054z"/>
    <path id="Path" d="m13.312 9.4765c-0.46012 0-0.90118-0.12072-1.291-0.3514-0.38984 0.23068-0.83089 0.3514-1.2911 0.3514-0.46018 0-0.90123-0.12072-1.291-0.3514-0.38987 0.23068-0.83092 0.3514-1.2911 0.3514-0.46021 0-0.90123-0.12072-1.2911-0.3514-0.38984 0.23068-0.83089 0.3514-1.2911 0.3514-0.46018 0-0.90123-0.12072-1.2911-0.3514-0.38984 0.23068-0.83089 0.3514-1.291 0.3514-0.46021 0-0.90123-0.12072-1.2911-0.3514-0.38987 0.23068-0.83092 0.3514-1.2911 0.3514h-0.40184v1.6763h0.40179c0.38202 0 0.74467-0.12153 1.0487-0.35146l0.24233-0.18324 0.24233 0.18324c0.30407 0.22993 0.66672 0.35146 1.0487 0.35146s0.74467-0.12153 1.0487-0.35146l0.24233-0.18324 0.24233 0.18324c0.3041 0.22993 0.66675 0.35146 1.0487 0.35146 0.38204 0 0.7447-0.12153 1.0487-0.35146l0.24233-0.18324 0.24233 0.18324c0.30407 0.22993 0.66672 0.35146 1.0487 0.35146s0.74467-0.12153 1.0487-0.35146l0.24233-0.18324 0.24233 0.18324c0.30407 0.22993 0.66672 0.35146 1.0487 0.35146 0.38204 0 0.7447-0.12153 1.0487-0.35146l0.24233-0.18324 0.24233 0.18324c0.3041 0.22993 0.66675 0.35146 1.0487 0.35146h0.40179v-1.6763h-0.40179z"/>
    <path id="Path" d="m13.312 11.956c-0.46018 0-0.90123-0.12072-1.2911-0.3514-0.38984 0.23068-0.83089 0.3514-1.2911 0.3514-0.46018 0-0.90123-0.12072-1.291-0.3514-0.38987 0.23068-0.83092 0.3514-1.2911 0.3514-0.46021 0-0.90123-0.12072-1.2911-0.3514-0.38984 0.23068-0.83089 0.3514-1.2911 0.3514-0.46018 0-0.90123-0.12072-1.2911-0.3514-0.38984 0.23068-0.83089 0.3514-1.291 0.3514-0.46021 0-0.90123-0.12072-1.2911-0.3514-0.38987 0.23068-0.83092 0.3514-1.2911 0.3514h-0.40184v1.758h13.714v-1.758h-0.40179z"/>
   </g>
  </g>
 </g>
</svg>
