<?xml version="1.0" encoding="UTF-8"?>
<svg width="28px" height="28px" viewBox="0 0 28 28" version="1.1" xmlns="http://www.w3.org/2000/svg" xmlns:xlink="http://www.w3.org/1999/xlink">
    <title>geyser-l</title>
    <g id="Page-2:-Night" stroke="none" stroke-width="1" fill="none" fill-rule="evenodd" opacity="0.6">
        <g id="geyser-l" fill-rule="nonzero">
            <circle id="border" fill="#FFFFFF" opacity="0.600000024" cx="14" cy="14" r="14"></circle>
            <circle id="fill" fill="#14A0C2" opacity="0" cx="14" cy="14" r="13"></circle>
            <g id="geyser" transform="translate(6.000000, 6.000000)" fill="#14A0C2">
                <path d="M14.59375,0 L1.40625,0 C0.63084375,0 0,0.63084375 0,1.40625 C0,2.18165625 0.63084375,2.8125 1.40625,2.8125 L1.92209375,2.8125 C2.13990625,3.8809375 3.08690625,4.6875 4.21875,4.6875 L5.7365625,4.6875 C5.878,5.0865 6.19475,5.40321875 6.59375,5.5446875 L6.59375,10.1157187 C7.00259375,10.0960937 7.3891875,9.9564375 7.71728125,9.70834375 L8,9.4945625 L8.28271875,9.70834375 C8.6108125,9.9564375 8.99740625,10.0960937 9.40625,10.1157187 L9.40625,5.5446875 C9.80525,5.40325 10.1219688,5.0865 10.2634375,4.6875 L11.78125,4.6875 C12.9130937,4.6875 13.8600938,3.8809375 14.0779062,2.8125 L14.59375,2.8125 C15.3691562,2.8125 16,2.18165625 16,1.40625 C16,0.63084375 15.3691562,0 14.59375,0 Z" id="Path"></path>
                <path d="M15.5311875,11.055875 C14.994375,11.055875 14.4798125,10.9150313 14.025,10.6459062 C13.5701875,10.9150313 13.055625,11.055875 12.51875,11.055875 C11.981875,11.055875 11.4673125,10.9150313 11.0125313,10.6459062 C10.5576875,10.9150313 10.043125,11.055875 9.50628125,11.055875 C8.969375,11.055875 8.45484375,10.9150313 8.00003125,10.6459062 C7.54521875,10.9150313 7.03065625,11.055875 6.49378125,11.055875 C5.95690625,11.055875 5.44234375,10.9150313 4.98753125,10.6459062 C4.53271875,10.9150313 4.01815625,11.055875 3.4813125,11.055875 C2.94440625,11.055875 2.429875,10.9150313 1.9750625,10.6459062 C1.52021875,10.9150313 1.00565625,11.055875 0.4688125,11.055875 L0,11.055875 L0,13.0115 L0.46875,13.0115 C0.9144375,13.0115 1.33753125,12.8697188 1.69228125,12.6014688 L1.975,12.3876875 L2.25771875,12.6014688 C2.61246875,12.8697188 3.0355625,13.0115 3.48125,13.0115 C3.9269375,13.0115 4.35003125,12.8697188 4.70475,12.6014688 L4.98746875,12.3876875 L5.2701875,12.6014688 C5.62496875,12.8697188 6.0480625,13.0115 6.49371875,13.0115 C6.9394375,13.0115 7.36253125,12.8697188 7.71725,12.6014688 L7.99996875,12.3876875 L8.2826875,12.6014688 C8.6374375,12.8697188 9.06053125,13.0115 9.50621875,13.0115 C9.95190625,13.0115 10.375,12.8697188 10.72975,12.6014688 L11.0124688,12.3876875 L11.2951875,12.6014688 C11.6499375,12.8697188 12.0730313,13.0115 12.5186875,13.0115 C12.9644063,13.0115 13.3875,12.8697188 13.7422188,12.6014688 L14.0249375,12.3876875 L14.3076563,12.6014688 C14.6624375,12.8697188 15.0855313,13.0115 15.5311875,13.0115 L15.9999375,13.0115 L15.9999375,11.055875 L15.5311875,11.055875 Z" id="Path"></path>
                <path d="M15.53125,13.949 C14.994375,13.949 14.4798125,13.8081562 14.025,13.5390313 C13.5701875,13.8081563 13.055625,13.949 12.51875,13.949 C11.981875,13.949 11.4673125,13.8081563 11.0125313,13.5390313 C10.5576875,13.8081563 10.043125,13.949 9.50628125,13.949 C8.969375,13.949 8.45484375,13.8081563 8.00003125,13.5390313 C7.54521875,13.8081563 7.03065625,13.949 6.49378125,13.949 C5.95690625,13.949 5.44234375,13.8081563 4.98753125,13.5390313 C4.53271875,13.8081563 4.01815625,13.949 3.4813125,13.949 C2.94440625,13.949 2.429875,13.8081563 1.9750625,13.5390313 C1.52021875,13.8081563 1.00565625,13.949 0.4688125,13.949 L0,13.949 L0,16 L16,16 L16,13.949 L15.53125,13.949 Z" id="Path"></path>
            </g>
        </g>
    </g>
</svg>