<?xml version="1.0" encoding="UTF-8"?>
<svg width="24px" height="24px" viewBox="0 0 24 24" version="1.1" xmlns="http://www.w3.org/2000/svg" xmlns:xlink="http://www.w3.org/1999/xlink">
    <!-- Generator: Sketch 51.3 (57544) - http://www.bohemiancoding.com/sketch -->
    <title>dark/symbols/geyser-m</title>
    <desc>Created with Sketch.</desc>
    <defs></defs>
    <g id="Icons" stroke="none" stroke-width="1" fill="none" fill-rule="evenodd">
        <g id="Icons-Dark" transform="translate(-1870.000000, -168.000000)">
            <g id="geyser-m" transform="translate(1870.000000, 168.000000)">
                <circle id="border" fill="#FFFFFF" opacity="0.4" cx="12" cy="12" r="12"></circle>
                <circle id="fill" fill="#14A0C2" opacity="0" cx="12" cy="12" r="11"></circle>
                <path d="M6.39192746,17.8768427 C6.11880704,17.9651809 5.99135085,18.0535191 6.00045486,18.2680548 C6.00955888,18.4825905 6.1552231,18.5330694 6.42834352,18.5709287 C6.43744753,18.5709287 10.3537087,19 12.0364161,19 C13.7191234,19 17.5625525,18.5709287 17.5716565,18.5709287 C17.8538809,18.5456892 17.9904411,18.4825905 17.9995451,18.2680548 C18.0086491,18.0535191 17.881193,17.9651809 17.6080725,17.8768427 C17.5989685,17.8768427 13.7206586,16.6148682 13.3473941,16.5012905 C13.2745619,16.476051 13.0145878,16.8294039 11.981792,16.8294039 C10.9489962,16.8294039 10.5160457,16.52653 10.4341096,16.5517695 C10.0972611,16.6779669 6.40103147,17.8642229 6.39192746,17.8768427 Z M11.1844156,14.9909729 C11.1026613,14.9909729 11.0311264,14.9277834 11.0311264,14.8555667 C11.0311264,14.8465396 11.0209071,9.19759278 11.0209071,9.19759278 C11.0209071,9.19759278 11.0515649,9.1885657 10.9289336,9.26980943 C10.0909525,9.77532598 8.93617383,9.70310933 8.16972779,9.06218656 C7.30108893,8.3219659 7.27043109,7.08525577 8.11863138,6.31795386 C8.53762189,5.93881645 9.09968232,5.73119358 9.68218132,5.7221665 C9.75371628,5.7221665 9.81503197,5.7221665 9.88656693,5.73119358 C10.4179695,5.27081244 11.1333192,5 11.8997652,5 C12.6866498,5 13.4122187,5.27983952 13.9334021,5.74924774 C14.0662527,5.73119358 14.1991034,5.7221665 14.3217347,5.7221665 C14.9042337,5.7221665 15.4662942,5.93881645 15.8852847,6.31795386 C16.7232657,7.08525577 16.7028271,8.3219659 15.8341883,9.06218656 C15.0473036,9.73019057 13.8414285,9.78435306 13.0034475,9.22467402 C12.983009,9.21564694 12.983009,14.8555667 12.983009,14.8645938 C12.983009,14.9368104 12.911474,15 12.8297198,15 C12.7479655,15 11.2661698,14.9909729 11.1844156,14.9909729 Z" id="a" fill="#143C4D"></path>
            </g>
        </g>
    </g>
</svg>