<svg width="28" height="28" viewBox="0 0 28 28">
  <g fill="none" fill-rule="evenodd">
    <circle cx="14" cy="14" r="14" fill="#FFF" opacity=".4"/>
    <circle cx="14" cy="14" r="13" fill="#4E3551"/>
    <path fill="#FFF" d="M20.0666667,10.6187179 L15.4,10.6187179 L15.4,13.7458119 L21,13.7458119 L21,11.4004914 C21,10.9681706 20.5828,10.6187179 20.0666667,10.6187179 L20.0666667,10.6187179 Z M7,19.2182265 C7,19.6505472 7.4172,20 7.93333333,20 L12.6,20 L12.6,15.3093589 L7,15.3093589 L7,19.2182265 L7,19.2182265 Z M7,11.4004914 L7,13.7458119 L12.6,13.7458119 L12.6,10.6187179 L7.93333333,10.6187179 C7.4172,10.6187179 7,10.9681706 7,11.4004914 L7,11.4004914 Z M15.4,20 L20.0666667,20 C20.5828,20 21,19.6505472 21,19.2182265 L21,15.3093589 L15.4,15.3093589 L15.4,20 L15.4,20 Z M11.1981333,9.83538084 L16.8018667,9.83538084 C18.0656,9.83538084 19.0913333,8.97542998 19.0913333,7.91769042 C19.0913333,6.85995086 18.0646667,6 16.8018667,6 C16.1905333,6 15.6156,6.20013402 15.1844,6.56131338 L14,7.54400268 L12.8165333,6.56287693 C12.3853333,6.20013402 11.8104,6 11.1981333,6 C9.9344,6 8.90866667,6.85995086 8.90866667,7.91769042 C8.90866667,8.97542998 9.93533333,9.83538084 11.1981333,9.83538084 L11.1981333,9.83538084 Z M11.144,6.63010945 C11.5434667,6.63010945 11.9177333,6.75988385 12.1996,6.99676122 L14,8.4907304 L15.7985333,6.997543 C16.0813333,6.76066562 16.4574667,6.63010945 16.856,6.63010945 C17.6792,6.63010945 18.3493333,7.19142283 18.3493333,7.88094706 C18.3493333,8.5704713 17.6792,9.13178468 16.856,9.13178468 L11.1449333,9.13178468 C10.3217333,9.13178468 9.6516,8.5704713 9.6516,7.88094706 C9.6516,7.19142283 10.3217333,6.63010945 11.144,6.63010945 L11.144,6.63010945 Z" opacity=".6"/>
  </g>
</svg>
