<?xml version="1.0" encoding="UTF-8"?>
<svg version="1.1" viewBox="0 0 24 24" xml:space="preserve" xmlns="http://www.w3.org/2000/svg">
 <g opacity="1">
   <circle id="Oval" cx="12" cy="12" r="12" fill="#000" opacity=".6"/>
   <circle cx="12" cy="12" r="11" fill="#8C5F93"/>
   <path d="m9.7871 4.1406c-1.1544 0-2.1055 0.95104-2.1055 2.1055 0 0.58751 0.29031 1.1106 0.66406 1.4375 0.049239 0.043069 0.09915 0.082878 0.15039 0.12109h-2.2539c-0.33366 0-0.64672 0.083462-0.91211 0.26367-0.26539 0.18021-0.50391 0.50102-0.50391 0.89453v1.1582h1.416 4.8086v-2.3164h1.8984v2.3164h4.8086 1.416v-1.1582c0-0.39352-0.23852-0.71432-0.50391-0.89453-0.26539-0.18021-0.57844-0.26367-0.91211-0.26367h-2.2539c0.051265-0.038231 0.10308-0.078004 0.15234-0.12109 0.37376-0.32692 0.66406-0.84999 0.66406-1.4375 0-1.1544-0.95104-2.1055-2.1055-2.1055-0.64295 2e-7 -1.1512 0.38355-1.4473 0.75977-0.29604 0.37621-0.46366 0.77348-0.58984 1.041-0.08357 0.17717-0.10962 0.26925-0.17773 0.41992-0.068027-0.15046-0.09235-0.24304-0.17578-0.41992-0.12619-0.26753-0.2938-0.6648-0.58984-1.041-0.29604-0.37621-0.80432-0.75977-1.4473-0.75977zm0 1.4297c0.12507 1e-7 0.18254 0.032841 0.32422 0.21289 0.14168 0.18005 0.28376 0.47892 0.41992 0.76758 0.14464 0.30664 0.18756 0.43516 0.27344 0.64062-0.24266-0.070788-0.45327-0.13034-0.80859-0.23828-0.31057-0.094349-0.57114-0.22513-0.70898-0.3457-0.13784-0.12057-0.17578-0.18082-0.17578-0.36133 0-0.38161 0.29418-0.67578 0.67578-0.67578zm4.3828 0c0.013818-0.0012497 0.029288 0 0.044922 0 0.3816 0 0.67578 0.29418 0.67578 0.67578 0 0.18051-0.03794 0.24076-0.17578 0.36133s-0.39842 0.25135-0.70898 0.3457c-0.35532 0.10794-0.56594 0.16749-0.80859 0.23828 0.08588-0.20546 0.1288-0.33398 0.27344-0.64062 0.13616-0.28866 0.27824-0.58753 0.41992-0.76758 0.12397-0.15754 0.18257-0.20414 0.2793-0.21289zm-8.5156 5.8203v1.416 2.0527 2.0547c0 0.77327 0.64275 1.416 1.416 1.416h3.9805v-6.9395h-3.9805-1.416zm7.2949 0v6.9395h3.9805c0.77327 0 1.416-0.64274 1.416-1.416v-2.0547-2.0527-1.416h-1.416-3.9805z" fill="#000" fill-rule="evenodd" />
  </g>
</svg>
