<svg version="1.1" viewBox="0 0 24 24" xmlns="http://www.w3.org/2000/svg">
 <title>gift-m</title>
 <g id="Page-2:-Night" fill="none" fill-rule="evenodd" opacity=".6">
  <g id="gift-m" fill-rule="nonzero">
   <circle id="Oval" cx="12" cy="12" r="12" fill="#fff"/>
   <circle id="Oval" cx="12" cy="12" r="11" fill="#8C5F93"/>
   <path id="Shape" d="m17.6 7.8h-1.526c0.077-0.217 0.126-0.455 0.126-0.7 0-1.162-0.938-2.1-2.1-2.1-0.735 0-1.372 0.378-1.75 0.945l-0.35 0.469-0.35-0.476c-0.378-0.56-1.015-0.938-1.75-0.938-1.162 0-2.1 0.938-2.1 2.1 0 0.245 0.049 0.483 0.126 0.7h-1.526c-0.777 0-1.393 0.623-1.393 1.4l-7e-3 7.7c0 0.777 0.623 1.4 1.4 1.4h11.2c0.777 0 1.4-0.623 1.4-1.4v-7.7c0-0.777-0.623-1.4-1.4-1.4zm-3.5-1.4c0.385 0 0.7 0.315 0.7 0.7s-0.315 0.7-0.7 0.7-0.7-0.315-0.7-0.7 0.315-0.7 0.7-0.7zm-4.2 0c0.385 0 0.7 0.315 0.7 0.7s-0.315 0.7-0.7 0.7-0.7-0.315-0.7-0.7 0.315-0.7 0.7-0.7zm7.7 10.5h-11.2v-1.4h11.2v1.4zm0-3.5h-11.2v-3.5c0-0.385 0.315-0.7 0.7-0.7h2.856l-1.036 1.414c-0.231 0.315-0.161 0.756 0.154 0.98 0.308 0.224 0.749 0.154 0.973-0.154l1.953-2.66 1.953 2.66c0.224 0.308 0.665 0.378 0.973 0.154 0.315-0.224 0.385-0.665 0.154-0.98l-1.036-1.414h2.856c0.385 0 0.7 0.315 0.7 0.7v3.5z" fill="#fff"/>
  </g>
 </g>
</svg>
