<svg width="16" height="16" viewBox="0 0 16 16">
  <g fill="none" fill-rule="evenodd">
    <circle cx="8" cy="8" r="8" fill="#FFF" opacity=".4"/>
    <circle cx="8" cy="8" r="7" fill="#3D3D36"/>
    <path fill="#FFF" d="M7,4 C6.80487,4 6.5,4.19048889 6.5,4.44444444 L6.5,10.4444444 C5.35714,10.4755556 5,11.2381333 5,11.7460444 C5,12 5.28571,12 5.28571,12 L11.71429,12 C11.71429,12 12,12 12,11.7460444 C12,10.4761778 11.35714,9.46035556 10.5,9.46035556 C9.60152,9.46035556 9.31823,10.8725333 8.42857,10.9840889 C8.03845,11.0329778 7.37578,10.8087111 7,10.6349333 L7,7.11111111 L11,5.77777778 L7,4 Z" opacity=".6"/>
  </g>
</svg>
