<?xml version="1.0" encoding="UTF-8" standalone="no"?>
<svg width="27px" height="27px" viewBox="0 0 27 27" version="1.1" xmlns="http://www.w3.org/2000/svg" xmlns:xlink="http://www.w3.org/1999/xlink">
    <!-- Generator: Sketch 3.8.3 (29802) - http://www.bohemiancoding.com/sketch -->
    <title>golf-l</title>
    <desc>Created with Sketch.</desc>
    <defs></defs>
    <g id="POI-NIght" stroke="none" stroke-width="1" fill="none" fill-rule="evenodd">
        <g id="golf-l">
            <ellipse id="Oval-1-Copy-39" fill-opacity="0.1" fill="#FFFFFF" cx="13.5" cy="13.5" rx="13.5" ry="13.5"></ellipse>
            <ellipse id="Oval-1-Copy-38" fill="#252522" cx="13.5" cy="13.5" rx="12.5" ry="12.5"></ellipse>
            <path d="M10,5.5 L10,17.9375 C8,17.9995 7,19.5 7,20.5 C7,21 7.5,21 7.5,21 L19.5,21 C19.5,21 20,21 20,20.5 C20,18 18.5,16 17,16 C15.42767,16 14.55691,18.7803 13,19 C12.31729,19.096 11.6576,18.6547 11,18.3125 L11,11 L18,8 L11.50162,5.215 C11.12515,5.0537 10.75012,5 10.5,5 C10.15852,5 10,5 10,5.5 Z" id="rect8138-7-copy" fill-opacity="0.7" fill="#FFFFFF"></path>
        </g>
    </g>
</svg>