<?xml version="1.0" encoding="UTF-8" standalone="no"?>
<svg width="27px" height="27px" viewBox="0 0 27 27" version="1.1" xmlns="http://www.w3.org/2000/svg" xmlns:xlink="http://www.w3.org/1999/xlink" xmlns:sketch="http://www.bohemiancoding.com/sketch/ns">
    <!-- Generator: Sketch 3.4.2 (15857) - http://www.bohemiancoding.com/sketch -->
    <title>golf-l</title>
    <desc>Created with Sketch.</desc>
    <defs>
        <circle id="path-1" cx="13.5" cy="13.5" r="12.5"></circle>
    </defs>
    <g id="POI" stroke="none" stroke-width="1" fill="none" fill-rule="evenodd" sketch:type="MSPage">
        <g id="golf-l" sketch:type="MSLayerGroup">
            <circle id="Oval-1-Copy-39" opacity="0" fill="#FFFFFF" sketch:type="MSShapeGroup" cx="13.5" cy="13.5" r="13.5"></circle>
            <g id="Oval-1-Copy-38">
                <use fill="#3D3D37" fill-rule="evenodd" sketch:type="MSShapeGroup" xlink:href="#path-1"></use>
                <use fill="none" xlink:href="#path-1"></use>
            </g>
            <path d="M10,5.5 L10,17.9375 C8,17.9995 7,19.5 7,20.5 C7,21 7.5,21 7.5,21 L19.5,21 C19.5,21 20,21 20,20.5 C20,18 18.5,16 17,16 C15.42767,16 14.55691,18.7803 13,19 C12.31729,19.096 11.6576,18.6547 11,18.3125 L11,11 L18,8 L11.50162,5.215 C11.12515,5.0537 10.75012,5 10.5,5 C10.15852,5 10,5 10,5.5 Z" id="rect8138-7-copy" opacity="0.7" fill="#FFFFFF" sketch:type="MSShapeGroup"></path>
        </g>
    </g>
</svg>