<svg width="24" height="24" viewBox="0 0 24 24">
  <g fill="none" fill-rule="evenodd">
    <circle cx="12" cy="12" r="12" fill="#FFF" opacity=".4"/>
    <circle cx="12" cy="12" r="11" fill="#3D3D36"/>
    <path fill="#FFF" d="M9.22222222,6.3823 L9.22222222,15.6581 C7.52286667,15.7051 7,16.7353 7,17.5 C7,17.8823 7.55555556,18 7.55555556,18 L16.4444444,18 C16.4444444,18 17,17.8823 17,17.5 C17,15.5882 16.0522889,14 14.7777778,14 C13.4418111,14 13.0941,16.3025 11.7712333,16.4706 C11.1911556,16.5446 10.6306444,16.2065 10.0718889,15.9449 L10.0718889,10.5882 L16.0196111,8.2941 L10.4981111,6.1644 C10.1782556,6.041 9.85957778,6 9.64705556,6 C9.35691111,6 9.22222222,6 9.22222222,6.3823 Z" opacity=".6"/>
  </g>
</svg>
