<?xml version="1.0" encoding="UTF-8"?>
<svg width="24px" height="24px" viewBox="0 0 24 24" version="1.1" xmlns="http://www.w3.org/2000/svg" xmlns:xlink="http://www.w3.org/1999/xlink">
    <title>greengrocer-m</title>
    <g id="Page-2:-Night" stroke="none" stroke-width="1" fill="none" fill-rule="evenodd" opacity="0.6">
        <g id="greengrocer-m" fill-rule="nonzero">
            <circle id="Oval" fill="#FFFFFF" cx="12" cy="12" r="12"></circle>
            <circle id="Oval" fill="#8C5F93" cx="12" cy="12" r="11"></circle>
            <g id="pear-fruit" transform="translate(8.000000, 5.000000)" fill="#FFFFFF">
                <path d="M6.82252941,6.63295752 C6.60013072,5.94416667 6.59619608,5.58769281 6.59619608,5.01799346 C6.59619608,3.59864052 5.44554248,2.4480098 4.02616667,2.4480098 C2.60679085,2.4480098 1.45613725,3.59864052 1.45613725,5.01799346 C1.45613725,5.58766993 1.45220261,5.94416667 1.22980392,6.63295752 C1.0073366,7.32174837 0.00896732026,8.52169935 0.00896732026,9.98282353 C0.00896732026,12.2014575 1.80753268,13.9999771 4.02616667,13.9999771 C6.24480065,13.9999771 8.04329739,12.2014346 8.04329739,9.98282353 C8.04329739,8.52169935 7.04495098,7.32179412 6.82252941,6.63295752 Z" id="Path"></path>
                <path d="M5.98294118,0.14727451 C5.98161438,0.0666601307 5.91637255,0.00157843137 5.83575817,6.8627451e-05 L5.82580719,0 C5.72350654,0 4.81009804,0.0166078431 4.23488562,0.591728758 C3.93448039,0.892179739 3.78635948,1.28184641 3.71352288,1.6016732 C3.65109477,1.4084183 3.54840523,1.20015686 3.37875817,1.03046405 C2.96015359,0.611813725 2.29844771,0.599735294 2.22435294,0.599735294 L2.21652941,0.599781046 C2.13600654,0.601359477 2.07071895,0.666395425 2.06939216,0.746964052 C2.06888889,0.776336601 2.06234641,1.47139542 2.50012092,1.90910131 C2.91883987,2.32779739 3.58045425,2.33987582 3.65450327,2.33987582 L3.66223529,2.33983007 L3.79054575,2.33976144 L3.80040523,2.33983007 C3.80040523,2.33983007 3.80040523,2.33983007 3.80045098,2.33983007 C3.90277451,2.33983007 4.81602288,2.32319935 5.39144118,1.74805556 C5.99259477,1.1465817 5.98365033,0.187764706 5.98294118,0.14727451 Z" id="Path"></path>
            </g>
        </g>
    </g>
</svg>