<svg width="28" height="28" viewBox="0 0 28 28">
  <g fill="none" fill-rule="evenodd">
    <circle cx="14" cy="14" r="14" fill="#FFF" opacity=".4"/>
    <circle cx="14" cy="14" r="13" fill="#4E3551"/>
    <path fill="#FFF" d="M18.6921302,6 C17.7265174,6 16.8781445,6.50273684 16.3842603,7.26231579 C16.8781445,8.02273684 17.7265174,8.52631579 18.691207,8.52631579 C19.6558966,8.52631579 20.5042696,8.02273684 21,7.26231579 C20.5042696,6.50189474 19.6568198,6 18.6921302,6 L18.6921302,6 Z M17.318486,13.8054737 L16.3464113,9.44336842 C16.3362566,9.39115789 16.326102,9.34063158 16.3122548,9.29010526 L16.2928687,9.20252632 L16.2827141,9.20252632 C16.0445419,8.45978947 15.3761828,7.88884211 14.5379645,7.73221053 L14.5379645,6 L13.6148165,6 L13.6148165,7.73221053 C12.7775213,7.88968421 12.1082391,8.45978947 11.8700669,9.20252632 L11.8608354,9.20252632 L11.8414493,9.29010526 C11.8276021,9.34063158 11.8174475,9.39115789 11.8072929,9.44336842 L10.8352181,13.8054737 C9.71359335,14.6551579 9,15.936 9,17.3684211 C9,19.9258947 11.2737134,22 14.0773136,22 C16.8809139,22 19.1546273,19.9258947 19.1546273,17.3684211 C19.1537041,15.936 18.4401108,14.6543158 17.318486,13.8054737 L17.318486,13.8054737 Z" opacity=".6"/>
  </g>
</svg>
