<?xml version="1.0" encoding="UTF-8" standalone="no"?>
<svg width="27px" height="27px" viewBox="0 0 27 27" version="1.1" xmlns="http://www.w3.org/2000/svg" xmlns:xlink="http://www.w3.org/1999/xlink" xmlns:sketch="http://www.bohemiancoding.com/sketch/ns">
    <!-- Generator: Sketch 3.4.2 (15857) - http://www.bohemiancoding.com/sketch -->
    <title>greengrocer-l</title>
    <desc>Created with Sketch.</desc>
    <defs>
        <path id="path-1" d="M26,13.5 C26,20.403 20.403,26 13.5,26 C6.597,26 1,20.403 1,13.5 C1,6.597 6.597,1 13.5,1 C20.403,1 26,6.597 26,13.5 L26,13.5 Z"></path>
    </defs>
    <g id="POI" stroke="none" stroke-width="1" fill="none" fill-rule="evenodd" sketch:type="MSPage">
        <g id="greengrocer-l" sketch:type="MSLayerGroup">
            <path d="M13.5,27 C6.057,27 0,20.943 0,13.5 C0,6.057 6.057,0 13.5,0 C20.943,0 27,6.057 27,13.5 C27,20.943 20.943,27 13.5,27 L13.5,27 Z" id="Shape" opacity="0" fill="#FFFFFF" sketch:type="MSShapeGroup"></path>
            <g id="Shape">
                <use fill="#33332E" fill-rule="evenodd" sketch:type="MSShapeGroup" xlink:href="#path-1"></use>
                <use fill="none" xlink:href="#path-1"></use>
            </g>
            <path d="M17.5,4 C16.454,4 15.535,4.597 15,5.499 C15.535,6.402 16.454,7 17.499,7 C18.544,7 19.463,6.402 20,5.499 C19.463,4.596 18.545,4 17.5,4 L17.5,4 Z M16.012,13.269 L14.959,8.089 C14.948,8.027 14.937,7.967 14.922,7.907 L14.901,7.803 L14.89,7.803 C14.632,6.921 13.908,6.243 13,6.057 L13,4 L12,4 L12,6.057 C11.093,6.244 10.368,6.921 10.11,7.803 L10.1,7.803 L10.079,7.907 C10.064,7.967 10.053,8.027 10.042,8.089 L8.989,13.269 C7.774,14.278 7.001,15.799 7.001,17.5 C7.001,20.537 9.464,23 12.501,23 C15.538,23 18.001,20.537 18.001,17.5 C18,15.799 17.227,14.277 16.012,13.269 L16.012,13.269 Z" id="Shape" opacity="0.7" fill="#FFFFFF" sketch:type="MSShapeGroup"></path>
        </g>
    </g>
</svg>