<?xml version="1.0" encoding="UTF-8" standalone="no"?>
<svg width="23px" height="23px" viewBox="0 0 23 23" version="1.1" xmlns="http://www.w3.org/2000/svg" xmlns:xlink="http://www.w3.org/1999/xlink" xmlns:sketch="http://www.bohemiancoding.com/sketch/ns">
    <!-- Generator: Sketch 3.4.2 (15857) - http://www.bohemiancoding.com/sketch -->
    <title>greengrocer-m</title>
    <desc>Created with Sketch.</desc>
    <defs>
        <path id="path-1" d="M22,11.5 C22,17.299 17.299,22 11.5,22 C5.701,22 1,17.299 1,11.5 C1,5.701 5.701,1 11.5,1 C17.299,1 22,5.701 22,11.5 L22,11.5 Z"></path>
    </defs>
    <g id="POI" stroke="none" stroke-width="1" fill="none" fill-rule="evenodd" sketch:type="MSPage">
        <g id="greengrocer-m" sketch:type="MSLayerGroup">
            <path d="M11.5,23 C5.159,23 0,17.841 0,11.5 C0,5.159 5.159,0 11.5,0 C17.841,0 23,5.159 23,11.5 C23,17.841 17.841,23 11.5,23 L11.5,23 Z" id="Shape" opacity="0" fill="#FFFFFF" sketch:type="MSShapeGroup"></path>
            <g id="Shape">
                <use fill="#3D3D37" fill-rule="evenodd" sketch:type="MSShapeGroup" xlink:href="#path-1"></use>
                <use fill="none" xlink:href="#path-1"></use>
            </g>
            <path d="M18,5 C17.57,5.603 16.835,6 15.999,6 C15.163,6 14.429,5.603 14,5 C14.429,4.397 15.163,4 16,4 C16.836,4 17.57,4.397 18,5 L18,5 Z M14.374,11.012 L13.513,6.774 C13.503,6.723 13.494,6.673 13.482,6.625 L13.465,6.539 L13.455,6.539 C13.245,5.818 12.651,5.264 11.908,5.11 L11.908,4 L11.092,4 L11.092,5.109 C10.349,5.262 9.755,5.817 9.545,6.538 L9.535,6.538 L9.518,6.624 C9.505,6.673 9.497,6.723 9.487,6.773 L8.626,11.011 C7.632,11.835 7,13.081 7,14.473 C7,16.958 9.015,18.974 11.5,18.974 C13.985,18.974 16,16.958 16,14.473 C16,13.082 15.368,11.836 14.374,11.012 L14.374,11.012 Z" id="Shape" opacity="0.7" fill="#FFFFFF" sketch:type="MSShapeGroup"></path>
        </g>
    </g>
</svg>