<svg version="1.1" viewBox="0 0 24 24" xmlns="http://www.w3.org/2000/svg">
 <title>greengrocer-m</title>
 <g id="Page-2:-Night" fill="none" fill-rule="evenodd" opacity=".6">
  <g id="greengrocer-m" fill-rule="nonzero">
   <circle id="Oval" cx="12" cy="12" r="12" fill="#fff"/>
   <circle id="Oval" cx="12" cy="12" r="11" fill="#8C5F93"/>
   <g id="pear-fruit" transform="translate(8 5)" fill="#fff">
    <path id="Path" d="m6.8225 6.633c-0.2224-0.68879-0.22633-1.0453-0.22633-1.615 0-1.4194-1.1507-2.57-2.57-2.57-1.4194 0-2.57 1.1506-2.57 2.57 0 0.56968-0.0039346 0.92617-0.22633 1.615-0.22247 0.68879-1.2208 1.8887-1.2208 3.3499 0 2.2186 1.7986 4.0172 4.0172 4.0172 2.2186 0 4.0171-1.7985 4.0171-4.0172 0-1.4611-0.99835-2.661-1.2208-3.3499z"/>
    <path id="Path" d="m5.9829 0.14727c-0.0013268-0.080614-0.066569-0.1457-0.14718-0.14721l-0.009951-6.8627e-5c-0.1023 0-1.0157 0.016608-1.5909 0.59173-0.30041 0.30045-0.44853 0.69012-0.52136 1.0099-0.062428-0.19325-0.16512-0.40152-0.33476-0.57121-0.4186-0.41865-1.0803-0.43073-1.1544-0.43073l-0.0078235 4.5752e-5c-0.080523 0.0015784-0.14581 0.066614-0.14714 0.14718-5.0327e-4 0.029373-0.0070458 0.72443 0.43073 1.1621 0.41872 0.4187 1.0803 0.43077 1.1544 0.43077l0.007732-4.575e-5 0.12831-6.863e-5 0.0098595 6.863e-5h4.575e-5c0.10232 0 1.0156-0.016631 1.591-0.59177 0.60115-0.60147 0.59221-1.5603 0.5915-1.6008z"/>
   </g>
  </g>
 </g>
</svg>
