<?xml version="1.0" encoding="utf-8"?>
<!-- Generator: Adobe Illustrator 21.0.2, SVG Export Plug-In . SVG Version: 6.00 Build 0)  -->
<svg version="1.1" id="Слой_1" xmlns="http://www.w3.org/2000/svg" xmlns:xlink="http://www.w3.org/1999/xlink" x="0px" y="0px"
	 viewBox="0 0 38.9 38.9" style="enable-background:new 0 0 38.9 38.9;" xml:space="preserve">
<style type="text/css">
	.st0{fill:#FFFFFF;fill-opacity:0.1;}
	.st1{fill:#2D7970;}
	.st2{fill:#825089;}
	.st3{fill-opacity:0.65;}
	.st4{fill:#FFFFFF;fill-opacity:0.7;}
</style>
<title>grocery-l</title>
<desc>Created with Sketch.</desc>
<g id="POI-NIght">
	<g id="grocery-l">
		<circle id="Oval-1-Copy-39" class="st0" cx="19.4" cy="19.4" r="19.4"/>
		<g id="Oval-1-Copy-38">
			<g>
				<circle id="path-1" class="st1" cx="19.4" cy="19.4" r="18"/>
			</g>
			<g>
				<circle id="path-1_1_" class="st2" cx="19.4" cy="19.4" r="18"/>
			</g>
			<g>
				<circle id="path-1_2_" class="st3" cx="19.4" cy="19.4" r="18"/>
			</g>
		</g>
		<path id="rect7842-copy" class="st4" d="M30.2,8.6c-0.8,0-1.6,0.2-2.2,0.7c-0.5,0.5-0.7,1.3-0.7,2.2H7.2l2.9,13h17.3v1.4H11.5
			c-1.4,0-1.4,1.4,0,1.4h2.2h11.5h2.2c0.7,0,1.4-0.7,1.4-1.4v-1.4V13v-1.4c0,0,0.1-1,0.4-1.1c0.2-0.2,0.5-0.4,1.1-0.4h0.6
			c0.7,0,0.8-0.4,0.8-0.7s-0.1-0.7-0.8-0.7L30.2,8.6L30.2,8.6z M25.2,27.4c-1.2,0-2.2,1-2.2,2.2c0,1.2,1,2.2,2.2,2.2
			c1.2,0,2.2-1,2.2-2.2C27.4,28.3,26.4,27.4,25.2,27.4L25.2,27.4z M13.7,27.4c-1.2,0-2.2,1-2.2,2.2c0,1.2,1,2.2,2.2,2.2
			s2.2-1,2.2-2.2C15.8,28.3,14.9,27.4,13.7,27.4L13.7,27.4z"/>
	</g>
</g>
</svg>
