<svg width="16" height="16" viewBox="0 0 16 16">
  <g fill="none" fill-rule="evenodd">
    <circle cx="8" cy="8" r="8" fill="#FFF" opacity=".4"/>
    <circle cx="8" cy="8" r="7" fill="#4E3551"/>
    <path fill="#FFF" d="M6.44888067,10.6833337 C6.08037606,10.6833337 5.78222232,10.9840837 5.78222232,11.3516671 C5.78222232,11.7192504 6.08037606,12.0200005 6.44888067,12.0200005 C6.81738529,12.0200005 7.11888907,11.7192504 7.11888907,11.3516671 C7.11888907,10.9840837 6.81738529,10.6833337 6.44888067,10.6833337 L6.44888067,10.6833337 Z M4,4.38308289 C4,4.66365916 4.22486497,4.89111116 4.50802827,4.89111116 L4.89111116,4.89111116 L5.78222232,7.56444465 L5.78222232,7.56444465 C5.29007522,7.56444465 4.89111116,8.23903957 4.89111116,9.05743334 L4.89111116,8.74478944 C4.89111116,9.56934433 5.55866269,10.2377781 6.40110325,10.2377781 L10.6289701,10.2377781 C10.9050678,10.2377781 11.1288893,10.0129132 11.1288893,9.72974986 L11.1288893,9.85469524 C11.1288893,9.57411898 10.8991497,9.34666697 10.6354713,9.34666697 L6.27564032,9.34666697 C6.00313309,9.34666697 5.78222232,9.121802 5.78222232,8.8386387 L5.78222232,8.96358408 C5.78222232,8.68300781 6.00747725,8.45555581 6.27429106,8.45555581 L10.7256615,8.45555581 C11.1297595,8.45555581 11.2152048,8.45555581 11.4274115,8.01000023 L11.9718805,5.7964801 C12.0039605,5.7403401 12.1088723,5.33666674 11.6190004,5.33666674 L5.78222232,5.33666674 L5.33666674,4 L4.49772536,4 C4.22283923,4 4,4.22486497 4,4.50802827 L4,4.38308289 Z M10.0133253,10.6833337 C9.64482071,10.6833337 9.34666697,10.9840837 9.34666697,11.3516671 C9.34666697,11.7192504 9.64482071,12.0200005 10.0133253,12.0200005 C10.3818299,12.0200005 10.6833337,11.7192504 10.6833337,11.3516671 C10.6833337,10.9840837 10.3818299,10.6833337 10.0133253,10.6833337 L10.0133253,10.6833337 Z" opacity=".6"/>
  </g>
</svg>
