<?xml version="1.0" encoding="UTF-8" standalone="no"?>
<svg width="17px" height="17px" viewBox="0 0 17 17" version="1.1" xmlns="http://www.w3.org/2000/svg" xmlns:xlink="http://www.w3.org/1999/xlink">
    <!-- Generator: Sketch 3.8.3 (29802) - http://www.bohemiancoding.com/sketch -->
    <title>gym-s</title>
    <desc>Created with Sketch.</desc>
    <defs></defs>
    <g id="POI-NIght" stroke="none" stroke-width="1" fill="none" fill-rule="evenodd">
        <g id="gym-s">
            <path d="M8.5,17 C3.812,17 0,13.188 0,8.5 C0,3.812 3.812,0 8.5,0 C13.188,0 17,3.812 17,8.5 C17,13.188 13.188,17 8.5,17 L8.5,17 Z" id="Shape" fill-opacity="0.1" fill="#FFFFFF"></path>
            <ellipse id="Oval" fill="#252522" cx="8.5" cy="8.5" rx="7.5" ry="7.5"></ellipse>
            <path d="M4,6.00292933 C4,5.44902676 4.44386482,5 5,5 C5.55228475,5 6,5.43788135 6,6.00292933 L6,10.9970707 C6,11.5509732 5.55613518,12 5,12 C4.44771525,12 4,11.5621186 4,10.9970707 L4,6.00292933 Z M11,6.00292933 C11,5.44902676 11.4438648,5 12,5 C12.5522847,5 13,5.43788135 13,6.00292933 L13,10.9970707 C13,11.5509732 12.5561352,12 12,12 C11.4477153,12 11,11.5621186 11,10.9970707 L11,6.00292933 Z M6,8 L11,8 L11,9 L6,9 L6,8 Z M13,7 L13.5,7 C13.7761424,7 14,7.2157526 14,7.49538898 L14,9.50461102 C14,9.7782068 13.7680664,10 13.5,10 L13,10 L13,7 Z M3,7.49538898 C3,7.2217932 3.23193359,7 3.5,7 L4,7 L4,10 L3.5,10 C3.22385763,10 3,9.7842474 3,9.50461102 L3,7.49538898 Z" id="Combined-Shape" fill-opacity="0.7" fill="#FFFFFF" transform="translate(8.500000, 8.500000) rotate(-45.000000) translate(-8.500000, -8.500000) "></path>
        </g>
    </g>
</svg>