<svg height="24" viewBox="0 0 24 24" width="24"><g fill="none" fill-rule="evenodd"><circle cx="12" cy="12" fill="#fff" opacity=".4" r="12"/><circle cx="12" cy="12" fill="#3d3d36" r="11"/><path d="m8.9375 11.2727273h6.125v-2.40135806c0-.48124394.3883817-.87136924.875-.87136924.4832492 0 .875.38585663.875.87136924v6.25726156c0 .4812439-.3883817.8713692-.875.8713692-.4832492 0-.875-.3858566-.875-.8713692v-2.4013581h-6.125v2.4013581c0 .4812439-.38838172.8713692-.875.8713692-.48324916 0-.875-.3858566-.875-.8713692v-6.25726156c0-.48124394.38838172-.87136924.875-.87136924.48324916 0 .875.38585663.875.87136924zm8.3125-.2106469c0-.4861554.3883817-.8802622.875-.8802622.4832492 0 .875.3891546.875.8802622v1.8758392c0 .4861554-.3883817.8802622-.875.8802622-.4832492 0-.875-.3891546-.875-.8802622zm-12.25 0c0-.4861554.38838172-.8802622.875-.8802622.48324916 0 .875.3891546.875.8802622v1.8758392c0 .4861554-.38838172.8802622-.875.8802622-.48324916 0-.875-.3891546-.875-.8802622z" fill="#fff" opacity=".6" transform="matrix(.70710678 -.70710678 .70710678 .70710678 -4.970563 12)"/></g></svg>