<?xml version="1.0" encoding="UTF-8" standalone="no"?>
<svg width="23px" height="23px" viewBox="0 0 23 23" version="1.1" xmlns="http://www.w3.org/2000/svg" xmlns:xlink="http://www.w3.org/1999/xlink">
    <!-- Generator: Sketch 3.8.3 (29802) - http://www.bohemiancoding.com/sketch -->
    <title>gym-m</title>
    <desc>Created with Sketch.</desc>
    <defs></defs>
    <g id="POI-NIght" stroke="none" stroke-width="1" fill="none" fill-rule="evenodd">
        <g id="gym-m">
            <path d="M11.5,23 C5.159,23 0,17.841 0,11.5 C0,5.159 5.159,0 11.5,0 C17.841,0 23,5.159 23,11.5 C23,17.841 17.841,23 11.5,23 L11.5,23 Z" id="Shape" fill-opacity="0.1" fill="#FFFFFF"></path>
            <path d="M22,11.5 C22,17.299 17.299,22 11.5,22 C5.701,22 1,17.299 1,11.5 C1,5.701 5.701,1 11.5,1 C17.299,1 22,5.701 22,11.5 L22,11.5 Z" id="Shape" fill="#252522"></path>
            <path d="M8,10.5 L15,10.5 L15,12.5 L8,12.5 L8,10.5 Z M15,6.9955775 C15,6.44573523 15.4438648,6 16,6 C16.5522847,6 17,6.44483697 17,6.9955775 L17,16.0044225 C17,16.5542648 16.5561352,17 16,17 C15.4477153,17 15,16.555163 15,16.0044225 L15,6.9955775 Z M6,6.9955775 C6,6.44573523 6.44386482,6 7,6 C7.55228475,6 8,6.44483697 8,6.9955775 L8,16.0044225 C8,16.5542648 7.55613518,17 7,17 C6.44771525,17 6,16.555163 6,16.0044225 L6,6.9955775 Z M17.5,9.99980749 C17.5,9.44762906 17.9438648,9 18.5,9 C19.0522847,9 19.5,9.44371665 19.5,9.99980749 L19.5,13.0001925 C19.5,13.5523709 19.0561352,14 18.5,14 C17.9477153,14 17.5,13.5562834 17.5,13.0001925 L17.5,9.99980749 Z M3.5,9.99980749 C3.5,9.44762906 3.94386482,9 4.5,9 C5.05228475,9 5.5,9.44371665 5.5,9.99980749 L5.5,13.0001925 C5.5,13.5523709 5.05613518,14 4.5,14 C3.94771525,14 3.5,13.5562834 3.5,13.0001925 L3.5,9.99980749 Z" id="Combined-Shape" fill-opacity="0.7" fill="#FFFFFF" transform="translate(11.500000, 11.500000) rotate(-45.000000) translate(-11.500000, -11.500000) "></path>
        </g>
    </g>
</svg>