<svg height="24" viewBox="0 0 24 24" width="24"><g fill="none" fill-rule="evenodd"><circle cx="12" cy="12" fill="#fff" opacity=".4" r="12"/><circle cx="12" cy="12" fill="#3d3d36" r="11"/><path d="m17.6754532 15.2628346-.41034-.7297799c-.6592035-1.1762449-2.1096412-1.5865629-3.2618225-.9359158l-1.1664293 2.927912.1187327.2950381.013298-.0244236c.034195.0771788.0598413.1533807.1006853.2276287l.4103399.7297799c.6677523 1.1918761 2.1485855 1.6012171 3.3083657.9124691 1.1597803-.6887481 1.5549224-2.2118094.8871702-3.4027085zm-1.3981954 2.3759365c-.1709749.1016026-.3666463.1543578-.5623176.1543578-.4055907 0-.7798359-.2227441-.9812064-.57933l-.4844291-.8636217c-.3115544-.5568601-.1272814-1.2700318.4122396-1.5885168.170975-.1025795.3675962-.1563116.5642175-.1563116.4036909 0 .7779361.223721.9802565.5803069l.4853789.8655756c.3115544.5558832.1253817 1.268078-.4141394 1.5875398zm-1.3972454-12.6387711-2.8799785 5.1328827-2.87997838-5.1328827-.70099738.41422578 2.58457166 6.49377072-.9622091 1.7116122c-1.15883041-.6887481-2.63871379-.280384-3.30646604.913446l-.41033993.7297799c-.66775226 1.191876-.2726101 2.7139604.88527041 3.4017315 1.16073009.6887481 2.64156332.279407 3.30931556-.912469l.4103399-.7297799c.0389443-.0722941.0645906-.1465421.0968859-.2227441l.0180473.019539 4.5374858-11.40586326zm-5.14444698 11.3492003-.47872992.8538522c-.1994708.3556089-.56991657.5754221-.9707579.5754221-.19377163 0-.38659341-.054709-.55661852-.1533807-.53382185-.3165311-.71714502-1.0228642-.40939007-1.5719087l.48062964-.8528753c.19757108-.354632.56991658-.578353.96980804-.578353.19377164 0 .38754327.0556861.55661852.1553347.532872.316531.71619519 1.0218872.40844021 1.5719087z" fill="#fff" opacity=".6"/></g></svg>