<?xml version="1.0" encoding="UTF-8"?>
<svg width="24px" height="24px" viewBox="0 0 24 24" version="1.1" xmlns="http://www.w3.org/2000/svg" xmlns:xlink="http://www.w3.org/1999/xlink">
    <title>hairdresser-m</title>
    <g id="Page-2:-Night" stroke="none" stroke-width="1" fill="none" fill-rule="evenodd" opacity="0.6">
        <g id="hairdresser-m" fill-rule="nonzero">
            <circle id="Oval" fill="#FFFFFF" cx="12" cy="12" r="12"></circle>
            <circle id="Oval" fill="#717065" cx="12" cy="12" r="11"></circle>
            <path d="M10.348946,8.95246819 C10.5519238,8.51851565 10.6429139,8.02156999 10.58692,7.48962816 C10.4539345,6.27876057 9.50903787,5.24987308 8.30516952,5.04689528 C6.36638153,4.71093202 4.70756293,6.36975062 5.04352619,8.30153937 C5.25350323,9.50540773 6.27539148,10.4503044 7.48625907,10.5832899 C8.0182009,10.6392837 8.50814732,10.5482937 8.9490991,10.3453159 L10.6009185,12.0041345 L8.9490991,13.6559538 C8.51514656,13.452976 8.0182009,13.361986 7.48625907,13.4179799 C6.27539148,13.5509653 5.24650399,14.495862 5.04352619,15.6997304 C4.70756293,17.6385183 6.36638153,19.2903377 8.29817028,18.9543744 C9.50203864,18.7443974 10.4469353,17.7225092 10.5799208,16.5116416 C10.6359146,15.9796997 10.5449246,15.4897533 10.3419468,15.0488015 L12.0007654,13.4039814 L17.3131845,18.7164005 C17.9361163,19.3393324 19,18.8983806 19,18.016477 L19,18.0094778 C19,17.7505061 18.8950115,17.4985336 18.7130314,17.3095543 L10.348946,8.95246819 Z M7.80122463,9.20444064 C7.03130882,9.20444064 6.4013777,8.58150876 6.4013777,7.80459372 C6.4013777,7.02767867 7.03130882,6.40474679 7.80122463,6.40474679 C8.57114043,6.40474679 9.20107155,7.02767867 9.20107155,7.80459372 C9.20107155,8.58150876 8.57114043,9.20444064 7.80122463,9.20444064 Z M7.80122463,17.6035222 C7.03130882,17.6035222 6.4013777,16.9805903 6.4013777,16.2036752 C6.4013777,15.4267602 7.03130882,14.8038283 7.80122463,14.8038283 C8.57114043,14.8038283 9.20107155,15.4267602 9.20107155,16.2036752 C9.20107155,16.9805903 8.57114043,17.6035222 7.80122463,17.6035222 Z M12.0007654,12.3540962 C11.8047868,12.3540962 11.6508037,12.200113 11.6508037,12.0041345 C11.6508037,11.8081559 11.8047868,11.6541728 12.0007654,11.6541728 C12.196744,11.6541728 12.3507271,11.8081559 12.3507271,12.0041345 C12.3507271,12.200113 12.196744,12.3540962 12.0007654,12.3540962 Z M17.3131845,5.29186849 L12.7006889,9.9043641 L14.1005358,11.304211 L18.7130314,6.69171541 C18.8950115,6.50973531 19,6.25776287 19,5.99179195 L19,5.98479272 C19,5.10988839 17.9361163,4.66893661 17.3131845,5.29186849 Z" id="Shape" fill="#FFFFFF"></path>
        </g>
    </g>
</svg>