<svg version="1.1" viewBox="0 0 24 24" xmlns="http://www.w3.org/2000/svg">
 <title>hairdresser-m</title>
 <g id="Page-2:-Night" fill="none" fill-rule="evenodd" opacity=".6">
  <g id="hairdresser-m" fill-rule="nonzero">
   <circle id="Oval" cx="12" cy="12" r="12" fill="#fff"/>
   <circle id="Oval" cx="12" cy="12" r="11" fill="#717065"/>
   <path id="Shape" d="m10.349 8.9525c0.20298-0.43395 0.29397-0.9309 0.23797-1.4628-0.13299-1.2109-1.0779-2.2398-2.2818-2.4427-1.9388-0.33596-3.5976 1.3229-3.2616 3.2546 0.20998 1.2039 1.2319 2.1488 2.4427 2.2818 0.53194 0.055994 1.0219-0.034996 1.4628-0.23797l1.6518 1.6588-1.6518 1.6518c-0.43395-0.20298-0.9309-0.29397-1.4628-0.23797-1.2109 0.13299-2.2398 1.0779-2.4427 2.2818-0.33596 1.9388 1.3229 3.5906 3.2546 3.2546 1.2039-0.20998 2.1488-1.2319 2.2818-2.4427 0.055994-0.53194-0.034996-1.0219-0.23797-1.4628l1.6588-1.6448 5.3124 5.3124c0.62293 0.62293 1.6868 0.18198 1.6868-0.69992v-0.0069992c0-0.25897-0.10499-0.51094-0.28697-0.69992l-8.3641-8.3571zm-2.5477 0.25197c-0.76992 0-1.3998-0.62293-1.3998-1.3998 0-0.77692 0.62993-1.3998 1.3998-1.3998 0.76992 0 1.3998 0.62293 1.3998 1.3998 0 0.77692-0.62993 1.3998-1.3998 1.3998zm0 8.3991c-0.76992 0-1.3998-0.62293-1.3998-1.3998 0-0.77692 0.62993-1.3998 1.3998-1.3998 0.76992 0 1.3998 0.62293 1.3998 1.3998 0 0.77692-0.62993 1.3998-1.3998 1.3998zm4.1995-5.2494c-0.19598 0-0.34996-0.15398-0.34996-0.34996 0-0.19598 0.15398-0.34996 0.34996-0.34996s0.34996 0.15398 0.34996 0.34996c0 0.19598-0.15398 0.34996-0.34996 0.34996zm5.3124-7.0622-4.6125 4.6125 1.3998 1.3998 4.6125-4.6125c0.18198-0.18198 0.28697-0.43395 0.28697-0.69992v-0.0069992c0-0.8749-1.0639-1.3159-1.6868-0.69292z" fill="#fff"/>
  </g>
 </g>
</svg>
