<?xml version="1.0" encoding="UTF-8" standalone="no"?>
<svg width="27px" height="27px" viewBox="0 0 27 27" version="1.1" xmlns="http://www.w3.org/2000/svg" xmlns:xlink="http://www.w3.org/1999/xlink" xmlns:sketch="http://www.bohemiancoding.com/sketch/ns">
    <!-- Generator: Sketch 3.4.2 (15857) - http://www.bohemiancoding.com/sketch -->
    <title>hairdresser-l</title>
    <desc>Created with Sketch.</desc>
    <defs>
        <path id="path-1" d="M26,13.5 C26,20.403 20.403,26 13.5,26 C6.597,26 1,20.403 1,13.5 C1,6.597 6.597,1 13.5,1 C20.403,1 26,6.597 26,13.5 L26,13.5 Z"></path>
    </defs>
    <g id="POI" stroke="none" stroke-width="1" fill="none" fill-rule="evenodd" sketch:type="MSPage">
        <g id="hairdresser-l" sketch:type="MSLayerGroup">
            <path d="M13.5,27 C6.057,27 0,20.943 0,13.5 C0,6.057 6.057,0 13.5,0 C20.943,0 27,6.057 27,13.5 C27,20.943 20.943,27 13.5,27 L13.5,27 Z" id="Shape" opacity="0" fill="#FFFFFF" sketch:type="MSShapeGroup"></path>
            <g id="Shape">
                <use fill="#33332E" fill-rule="evenodd" sketch:type="MSShapeGroup" xlink:href="#path-1"></use>
                <use fill="none" xlink:href="#path-1"></use>
            </g>
            <path d="M20.513,17.428 L20.005,16.549 C19.188,15.133 17.393,14.641 15.965,15.425 L14.524,18.949 L14.669,19.303 L14.688,19.276 C14.729,19.367 14.76,19.461 14.811,19.549 L15.319,20.428 C16.147,21.863 17.981,22.355 19.417,21.527 C20.85,20.698 21.341,18.863 20.513,17.428 L20.513,17.428 Z M18.782,20.291 C18.57,20.414 18.329,20.479 18.085,20.479 C17.585,20.479 17.119,20.21 16.871,19.779 L16.27,18.74 C15.883,18.07 16.113,17.213 16.781,16.828 C16.993,16.705 17.235,16.64 17.479,16.64 C17.978,16.64 18.443,16.909 18.693,17.34 L19.294,18.38 C19.68,19.048 19.45,19.906 18.782,20.291 L18.782,20.291 Z M17.051,5.071 L13.484,11.251 L9.916,5.071 L9.05,5.571 L12.249,13.39 L11.06,15.451 C9.624,14.622 7.79,15.114 6.962,16.549 L6.454,17.428 C5.626,18.864 6.117,20.699 7.552,21.527 C8.988,22.355 10.822,21.863 11.65,20.428 L12.158,19.549 C12.208,19.463 12.238,19.371 12.278,19.282 L12.299,19.303 L17.918,5.572 L17.051,5.071 L17.051,5.071 Z M10.68,18.738 L10.086,19.765 C9.84,20.193 9.38,20.458 8.885,20.458 C8.643,20.458 8.405,20.394 8.195,20.272 C7.534,19.889 7.306,19.04 7.688,18.378 L8.282,17.351 C8.528,16.923 8.989,16.657 9.483,16.657 C9.725,16.657 9.964,16.721 10.175,16.844 C10.835,17.227 11.062,18.076 10.68,18.738 L10.68,18.738 Z" id="Shape" opacity="0.7" fill="#FFFFFF" sketch:type="MSShapeGroup"></path>
        </g>
    </g>
</svg>