<?xml version="1.0" encoding="UTF-8" standalone="no"?>
<svg width="27px" height="27px" viewBox="0 0 27 27" version="1.1" xmlns="http://www.w3.org/2000/svg" xmlns:xlink="http://www.w3.org/1999/xlink" xmlns:sketch="http://www.bohemiancoding.com/sketch/ns">
    <!-- Generator: Sketch 3.4.2 (15857) - http://www.bohemiancoding.com/sketch -->
    <title>hand-l</title>
    <desc>Created with Sketch.</desc>
    <defs>
        <circle id="path-1" cx="13.5" cy="13.5" r="12.5"></circle>
    </defs>
    <g id="POI" stroke="none" stroke-width="1" fill="none" fill-rule="evenodd" sketch:type="MSPage">
        <g id="hand-l" sketch:type="MSLayerGroup">
            <ellipse id="Oval-1-Copy-46" opacity="0" fill="#FFFFFF" sketch:type="MSShapeGroup" cx="13.5" cy="13.5" rx="13.5" ry="13.5"></ellipse>
            <g id="Oval-1-Copy-38">
                <use fill="#33332E" fill-rule="evenodd" sketch:type="MSShapeGroup" xlink:href="#path-1"></use>
                <use fill="none" xlink:href="#path-1"></use>
            </g>
            <path d="M9,18.048907 L8,14.9999998 L8,9 C8,9 8.5,8.5 9,8.5 C9.5,8.5 10,9 10,9 L10,12 L10.461174,12 L10.5,6 C10.5,6 11.0013973,5.50264525 11.5009725,5.50264525 C12.0005477,5.50264525 12.5,6 12.5,6 L12.461174,12 L13,12 L13,5 C13,5 13.5,4.50264525 14,4.50264525 C14.5,4.50264525 15,5 15,5 L15,12 L15.5,12 L15.5,6 C15.5,6 16,5.50264525 16.5,5.50264525 C17,5.50264525 17.5,6 17.5,6 L17.5,15 L19,12 C19,12 19.5,11.5 20,11.5 C20.5,11.5 21,12 21,12 L16,22 L16.0000002,23 L9.99999993,23 L10,22 L9,18.048907 Z" id="Path-1150" opacity="0.7" fill="#FFFFFF" sketch:type="MSShapeGroup"></path>
        </g>
    </g>
</svg>