<svg version="1.1" viewBox="0 0 24 24" xml:space="preserve" xmlns="http://www.w3.org/2000/svg">
<path d="m8.9715 22.813-1.183-0.7098 3.0285-5.1579-1.9401-1.1593-1.7745 2.8629-1.183-0.7098 5.4182-8.7779q-0.99372-0.87542-1.4906-1.9046-0.49686-1.0292-0.49686-2.1649 0-0.89908 0.17745-1.6562t0.62699-1.6562l1.2303 0.66248q-0.33124 0.68614-0.4732 1.2895-0.14196 0.60333-0.14196 1.2185 0 1.1357 0.54418 2.0584t1.8218 1.6799l2.295 1.3486q1.3486 0.78078 1.9993 1.9283 0.65065 1.1475 0.65065 2.6381 0 0.92274-0.28392 1.8691-0.28392 0.9464-0.75712 1.7982l-1.2303-0.7098q0.40222-0.75712 0.62699-1.4788 0.22477-0.72163 0.22477-1.4788 0-0.89908-0.30758-1.6444-0.30758-0.74529-0.92274-1.1475zm6.7431-14.385q-0.7098 0-1.2185-0.50869-0.50869-0.50869-0.50869-1.2185 0-0.7098 0.50869-1.2185 0.50869-0.50869 1.2185-0.50869t1.2185 0.50869q0.50869 0.50869 0.50869 1.2185 0 0.7098-0.50869 1.2185-0.50869 0.50869-1.2185 0.50869zm-2.224-4.4008q-0.61516 0-1.0174-0.40222-0.40222-0.40222-0.40222-1.0174t0.40222-1.0174 1.0174-0.40222q0.61516 0 1.0174 0.40222t0.40222 1.0174-0.40222 1.0174q-0.40222 0.40222-1.0174 0.40222z" fill="#fff" opacity=".6" stroke-width=".4732"/>
</svg>
