<?xml version="1.0" encoding="UTF-8" standalone="no"?>
<svg width="27px" height="27px" viewBox="0 0 27 27" version="1.1" xmlns="http://www.w3.org/2000/svg" xmlns:xlink="http://www.w3.org/1999/xlink">
    <!-- Generator: Sketch 3.8.3 (29802) - http://www.bohemiancoding.com/sketch -->
    <title>heliport-l</title>
    <desc>Created with Sketch.</desc>
    <defs></defs>
    <g id="POI-NIght" stroke="none" stroke-width="1" fill="none" fill-rule="evenodd">
        <g id="heliport-l">
            <circle id="Oval-1-Copy-39" fill-opacity="0.1" fill="#FFFFFF" cx="13.5" cy="13.5" r="13.5"></circle>
            <ellipse id="Oval-1-Copy-38" fill="#252522" cx="13.5" cy="13.5" rx="12.5" ry="12.5"></ellipse>
            <path d="M9,9 L14,9 L14,10 C13.723,10 13.5,10.223 13.5,10.5 L13.5,11 L6.9316,11 C6.7041,10.1201 5.9122,9.5011 5,9.5 C3.8954,9.5 3,10.3954 3,11.5 C3,12.6046 3.8954,13.5 5,13.5 C5.3722,13.499 5.7368,13.3942 6.0527,13.1973 L11.5,17.5 C12.5074,18.9505 14.3182,19 15,19 L21,19 C21,19 22,19 22,18 L22,17.0059 C22,16.2734 21.874,15.874 21.5,15.5 L17.5,11.5 C17.5,11.5 16.9084,11 16.2266,11 L15.5,11 L15.5,10.5 C15.5,10.223 15.277,10 15,10 L15,9 L20,9 C21,9 21,8 20,8 L9,8 C8,8 8,9 9,9 Z M5,10.5 C5.5523,10.5 6,10.9477 6,11.5 C6,12.0523 5.5523,12.5 5,12.5 C4.4477,12.5 4,12.0523 4,11.5 C4,10.9477 4.4477,10.5 5,10.5 L5,10.5 Z M17,12.5 L20.5,16 L16,16 C16,16 15,16 15,15 L15,13 C15,13 15,12 16,12 C16.5,12 16.7896,12.3231 17,12.5 Z" id="path10415" fill-opacity="0.7" fill="#FFFFFF"></path>
        </g>
    </g>
</svg>