<svg width="24" height="24" viewBox="0 0 24 24">
  <g fill="none" fill-rule="evenodd">
    <circle cx="12" cy="12" r="12" fill="#FFF" opacity=".4"/>
    <circle cx="12" cy="12" r="11" fill="#3D3C36"/>
    <path fill="#FFF" d="M8.73333333,7 C7.8,7 7.8,7.9 8.73333333,7.9 L12.4666667,7.9 L12.4666667,8.8 C12.2081333,8.8 12,9.0007 12,9.25 L12,9.7 L9.66666667,9.7 L8.70598667,9.7 L8.66949333,9.7 C8.45716,8.90809 7.71805333,8.35099 6.86666667,8.35 C5.83570667,8.35 5,9.15586 5,10.15 C5,11.14414 5.83570667,11.95 6.86666667,11.95 C7.21405333,11.9491 7.55434667,11.85478 7.84918667,11.67757 L10.1333333,14.65 C11.0735733,15.95545 12.7636533,16 13.4,16 L18.0666667,16 C18.0666667,16 19,16 19,15.1 L19,14.20531 C19,13.54606 18.8824,13.1866 18.5333333,12.85 L15.7333333,10.15 C15.7333333,10.15 15.1811733,9.7 14.5448267,9.7 L13.8666667,9.7 L13.8666667,9.25 C13.8666667,9.0007 13.6585333,8.8 13.4,8.8 L13.4,7.9 L17.1333333,7.9 C18.0666667,7.9 18.0666667,7 17.1333333,7 L8.73333333,7 L8.73333333,7 Z M6.86666667,9.25 C7.38214667,9.25 7.8,9.65293 7.8,10.15 C7.8,10.64707 7.38214667,11.05 6.86666667,11.05 C6.35118667,11.05 5.93333333,10.64707 5.93333333,10.15 C5.93333333,9.65293 6.35118667,9.25 6.86666667,9.25 L6.86666667,9.25 Z M14.3333333,10.6 C14.8,10.6 15.0702933,10.89079 15.2666667,11.05 L17.6,13.3 L14.3333333,13.3 C14.3333333,13.3 13.4,13.3 13.4,12.4 L13.4,11.5 C13.4,11.5 13.4,10.6 14.3333333,10.6 L14.3333333,10.6 Z" opacity=".6"/>
  </g>
</svg>
