<svg height="24" viewBox="0 0 24 24" width="24"><g fill="none" fill-rule="evenodd"><circle cx="12" cy="12" fill="#fff" opacity=".4" r="12"/><circle cx="12" cy="12" fill="#3d3d36" r="11"/><path d="m8.73333333 7c-.93333333 0-.93333333.9 0 .9h3.73333337v.9c-.2585334 0-.4666667.2007-.4666667.45v.45h-2.33333333-.96068-.03649334c-.21233333-.79191-.95144-1.34901-1.80282666-1.35-1.03096 0-1.86666667.80586-1.86666667 1.8s.83570667 1.8 1.86666667 1.8c.34738666-.0009.68768-.09522.98252-.27243l2.28414663 2.97243c.94024 1.30545 2.63032 1.35 3.2666667 1.35h4.6666667s.9333333 0 .9333333-.9v-.89469c0-.65925-.1176-1.01871-.4666667-1.35531l-2.8-2.7s-.55216-.45-1.1885066-.45h-.67816v-.45c0-.2493-.2081334-.45-.4666667-.45v-.9h3.7333333c.9333334 0 .9333334-.9 0-.9zm-1.86666666 2.25c.51548 0 .93333333.40293.93333333.9s-.41785333.9-.93333333.9-.93333334-.40293-.93333334-.9.41785334-.9.93333334-.9zm7.46666663 1.35c.4666667 0 .73696.29079.9333334.45l2.3333333 2.25h-3.2666667s-.9333333 0-.9333333-.9v-.9s0-.9.9333333-.9z" fill="#fff" opacity=".6"/></g></svg>