<?xml version="1.0" encoding="UTF-8" standalone="no"?>
<svg width="17px" height="17px" viewBox="0 0 17 17" version="1.1" xmlns="http://www.w3.org/2000/svg" xmlns:xlink="http://www.w3.org/1999/xlink" xmlns:sketch="http://www.bohemiancoding.com/sketch/ns">
    <!-- Generator: Sketch 3.4.2 (15857) - http://www.bohemiancoding.com/sketch -->
    <title>heliport-s</title>
    <desc>Created with Sketch.</desc>
    <defs>
        <circle id="path-1" cx="8.5" cy="8.5" r="7.5"></circle>
    </defs>
    <g id="POI" stroke="none" stroke-width="1" fill="none" fill-rule="evenodd" sketch:type="MSPage">
        <circle id="Oval-1-Copy-43" opacity="0" fill="#FFFFFF" sketch:type="MSShapeGroup" cx="8.5" cy="8.5" r="8.5"></circle>
        <g id="Oval-1-Copy-42">
            <use fill="#3D3D37" fill-rule="evenodd" sketch:type="MSShapeGroup" xlink:href="#path-1"></use>
            <use fill="none" xlink:href="#path-1"></use>
        </g>
        <path d="M12.4983883,12 C12.7483883,12 12.9983883,11.750207 12.9983883,11.5004141 L12.9983883,10.0016562 C12.9983883,9.50207031 12.7580083,9.26186939 12.4983883,9.00248437 C12.4983883,9.00248437 12.1650483,8.66946039 11.9983883,8.50289844 C11.8317283,8.3364364 11.4983883,8.0033125 10.9983883,8.0033125 L9,7.99751563 L9,5.99917188 L10.5,5.99917188 L11.5,5.99917188 C11.77699,5.99917188 12,5.74864852 12,5.49958594 C12,5.20454054 11.77699,5 11.5,5 L10.5,5 L9,5 L8.5,5 L6.5,5 L6,5 L5.5,5 C5.223,5 5,5.22281533 5,5.49958594 C5,5.77635655 5.223,5.99917188 5.5,5.99917188 L6,5.99917188 L6.5,5.99917188 L8,5.99917188 L8,7.99751563 L7,7.99751563 L4.85938,7.99751563 C4.68635,7.69936274 4.3698,7.49792969 4,7.49792969 C3.44772,7.49792969 3,7.94525894 3,8.49710156 C3,9.04894419 3.44772,9.49627344 4,9.49627344 C4.28852,9.49627344 4.53623,9.36378325 4.71875,9.16844515 L6.5,10.9950313 C7,11.5078063 7.375,11.9942031 7.625,11.9942031 L12.4983883,12 Z M4.5,8.49710156 C4.5,8.77307284 4.27614,8.9966875 4,8.9966875 C3.72386,8.9966875 3.5,8.77307284 3.5,8.49710156 C3.5,8.22113029 3.72386,7.99751563 4,7.99751563 C4.27614,7.99751563 4.5,8.22113029 4.5,8.49710156 Z" id="rect9361-1" opacity="0.7" fill="#FFFFFF" sketch:type="MSShapeGroup"></path>
    </g>
</svg>