<?xml version="1.0" encoding="UTF-8" standalone="no"?>
<svg width="17px" height="17px" viewBox="0 0 17 17" version="1.1" xmlns="http://www.w3.org/2000/svg" xmlns:xlink="http://www.w3.org/1999/xlink">
    <!-- Generator: Sketch 3.8.3 (29802) - http://www.bohemiancoding.com/sketch -->
    <title>helipad-s</title>
    <desc>Created with Sketch.</desc>
    <defs></defs>
    <g id="POI-NIght" stroke="none" stroke-width="1" fill="none" fill-rule="evenodd">
        <g id="helipad-s">
            <circle id="Oval-1-Copy-42" fill="#042D4D" cx="8.5" cy="8.5" r="7.5"></circle>
            <path d="M8.5,17 C13.1944204,17 17,13.1944204 17,8.5 C17,3.80557963 13.1944204,0 8.5,0 C3.80557963,0 0,3.80557963 0,8.5 C0,13.1944204 3.80557963,17 8.5,17 Z M8.5,15.8666667 C12.5684977,15.8666667 15.8666667,12.5684977 15.8666667,8.5 C15.8666667,4.43150234 12.5684977,1.13333333 8.5,1.13333333 C4.43150234,1.13333333 1.13333333,4.43150234 1.13333333,8.5 C1.13333333,12.5684977 4.43150234,15.8666667 8.5,15.8666667 Z" id="Oval-1-Copy-54" fill="#3A3602"></path>
            <path d="M6,5 L7,5 L7,12 L6,12 L6,5 Z M10,5 L11,5 L11,12 L10,12 L10,5 Z M7,8 L10,8 L10,9 L7,9 L7,8 Z" id="Rectangle-53-Copy-3" fill-opacity="0.7" fill="#FFFFFF"></path>
        </g>
    </g>
</svg>