<?xml version="1.0" encoding="UTF-8" standalone="no"?>
<svg width="27px" height="27px" viewBox="0 0 27 27" version="1.1" xmlns="http://www.w3.org/2000/svg" xmlns:xlink="http://www.w3.org/1999/xlink">
    <!-- Generator: Sketch 3.8.3 (29802) - http://www.bohemiancoding.com/sketch -->
    <title>hindu-l</title>
    <desc>Created with Sketch.</desc>
    <defs></defs>
    <g id="POI-NIght" stroke="none" stroke-width="1" fill="none" fill-rule="evenodd">
        <g id="hindu-l">
            <circle id="Oval-1-Copy-39" fill-opacity="0.1" fill="#FFFFFF" cx="13.5" cy="13.5" r="13.5"></circle>
            <circle id="Oval-1-Copy-38" fill="#26160D" cx="13.5" cy="13.5" r="12.5"></circle>
            <path d="M7.4384375,9.38890625 L8.40171875,11.3067188 C8.40171875,11.3067188 10.3625,9.83609375 11.5321875,10.1629688 C11.5321875,10.1629688 12.2201562,10.3028125 12.39875,10.78 C12.39875,10.78 12.9140625,11.7682813 11.4920312,12.2040625 C11.4920312,12.2040625 10.4314062,12.5739063 9.31625,12.138125 L10.13625,14.6639063 C10.13625,14.6639063 11.2370312,14.0676563 12.2260937,14.6982813 C12.2260937,14.6982813 13.5810937,15.55 12.479375,17.1914063 C12.479375,17.1914063 11.8160937,18.0570313 10.2928125,18.0570313 C10.2928125,18.0570313 6.805625,18.4289063 6.12921875,12.941875 C6.12921875,12.941875 5.536875,15.174375 6.89140625,17.6125 C6.89140625,17.6125 8.1703125,20.1204688 10.899375,20.1260938 C10.899375,20.1260938 13.7920312,20.2607813 14.1876562,17.3195313 C14.1876562,17.3195313 14.4714062,15.9092188 13.5426562,14.3609375 C13.5426562,14.3609375 14.97875,14.8254688 15.8990625,13.9567188 C15.8990625,13.9567188 16.3864062,13.5896875 17.034375,12.3454688 C17.034375,12.3454688 17.5273437,11.4625 18.2096875,11.3192188 C18.2096875,11.3192188 19.0295312,11.0842188 19.5110937,11.8409375 C19.5110937,11.8409375 20.035625,12.864375 19.8895312,13.905 C19.8895312,13.905 19.8551562,15.9604688 17.8342187,16.5539063 C17.8342187,16.5539063 15.4117187,17.2648438 15.2540625,14.799375 C15.2540625,14.799375 14.9703125,15.0860938 15.0792187,16.4220313 C15.0792187,16.4220313 15.2626562,18.52625 17.1489062,18.8873438 C17.1489062,18.8873438 18.5307812,19.196875 19.751875,17.8839063 C19.751875,17.8839063 20.835625,16.8460938 20.835625,14.805 C20.835625,14.805 20.9732812,13.148125 20.1304687,11.6 C20.1304687,11.6 19.3965625,10.2182813 18.02625,9.97171875 C18.02625,9.97171875 16.8565625,9.69078125 15.8589062,10.5795313 C15.8589062,10.5795313 15.2510937,10.9521875 14.3739062,12.7639063 C14.3739062,12.7639063 13.9439062,13.744375 13.0953125,13.7271875 C13.0953125,13.7271875 12.75125,13.7157813 12.6021875,13.5609375 C12.6021875,13.5609375 12.1092187,13.2914063 11.816875,13.2857813 C11.816875,13.2857813 12.8603125,12.8414063 13.3590625,11.5370313 C13.3590625,11.5370313 13.8521875,10.2985938 13.175625,9.2034375 C13.175625,9.2034375 12.6423437,7.93640625 10.3546875,8.1484375 C10.3545312,8.1484375 8.7478125,8.226875 7.4384375,9.38890625 Z M12.4529688,5.8378125 C12.4529688,5.8378125 12.785625,7.85609375 15.2739063,8.13125 C15.2739063,8.13125 16.8334375,8.25171875 18.266875,6.61765625 L19.5339063,8.17140625 C19.5339063,8.17140625 18.2610938,9.5990625 16.0364063,9.70796875 C16.0364063,9.70796875 14.41375,9.98890625 13.02625,8.2 C13.0264063,8.2 12.1778125,7.139375 12.4529688,5.8378125 Z M13.8289062,6.50296875 L15.2165625,5.029375 L16.6729687,6.40546875 L15.2796875,7.8159375 L13.8289062,6.50296875 Z" id="Combined-Shape" fill-opacity="0.7" fill="#FFFFFF"></path>
        </g>
    </g>
</svg>