<?xml version="1.0" encoding="utf-8"?>
<!-- Generator: Adobe Illustrator 21.0.2, SVG Export Plug-In . SVG Version: 6.00 Build 0)  -->
<svg version="1.1" id="Слой_1" xmlns="http://www.w3.org/2000/svg" xmlns:xlink="http://www.w3.org/1999/xlink" x="0px" y="0px"
	 viewBox="0 0 38.9 38.9" style="enable-background:new 0 0 38.9 38.9;" xml:space="preserve">
<style type="text/css">
	.st0{fill:#FFFFFF;fill-opacity:0.1;}
	.st1{fill:#26160D;}
	.st2{fill:#FFFFFF;fill-opacity:0.7;}
</style>
<title>hindu-l</title>
<desc>Created with Sketch.</desc>
<g id="POI-Night">
	<g id="Artboard-1" transform="translate(-317.000000, -1063.000000)">
		<g id="hindu-l" transform="translate(317.000000, 1063.000000)">
			<circle id="Oval-1-Copy-39" class="st0" cx="19.4" cy="19.4" r="19.4"/>
			<circle id="Oval-1-Copy-38" class="st1" cx="19.4" cy="19.4" r="18"/>
			<path id="Combined-Shape" class="st2" d="M10.7,13.6l1.4,2.8c0,0,2.9-2.2,4.6-1.7c0,0,1,0.2,1.2,0.8c0,0,0.7,1.4-1.3,2
				c0,0-1.6,0.5-3.1-0.1l1.2,3.6c0,0,1.6-0.8,3,0c0,0,1.9,1.2,0.4,3.6c0,0-1,1.2-3.1,1.2c0,0-5,0.5-6-7.3c0,0-0.8,3.2,1.1,6.7
				c0,0,1.8,3.6,5.8,3.6c0,0,4.2,0.2,4.7-4.1c0,0,0.4-2-1-4.3c0,0,2,0.7,3.4-0.6c0,0,0.7-0.5,1.7-2.3c0,0,0.7-1.3,1.7-1.4
				c0,0,1.2-0.4,1.9,0.7c0,0,0.7,1.4,0.6,3c0,0,0,3-3,3.8c0,0-3.5,1.1-3.7-2.5c0,0-0.4,0.4-0.2,2.3c0,0,0.2,3,3,3.6
				c0,0,2,0.5,3.7-1.4c0,0,1.6-1.4,1.6-4.4c0,0,0.2-2.4-1-4.6c0,0-1.1-2-3-2.4c0,0-1.7-0.4-3.1,0.8c0,0-0.8,0.5-2.2,3.1
				c0,0-0.6,1.4-1.8,1.4c0,0-0.5,0-0.7-0.2c0,0-0.7-0.4-1.1-0.4c0,0,1.6-0.6,2.3-2.5c0,0,0.7-1.8-0.2-3.4c0,0-0.7-1.8-4.1-1.6
				C14.9,11.8,12.6,11.9,10.7,13.6z M17.9,8.4c0,0,0.5,2.9,4.1,3.4c0,0,2.3,0.1,4.3-2.2l1.8,2.3c0,0-1.8,2-5,2.2
				c0,0-2.3,0.4-4.3-2.2C18.7,11.8,17.5,10.3,17.9,8.4z M19.9,9.4l2-2.2l2,2l-2,2L19.9,9.4z"/>
		</g>
	</g>
</g>
</svg>
