<svg width="16" height="16" viewBox="0 0 16 16">
  <g fill="none" fill-rule="evenodd">
    <circle cx="8" cy="8" r="8" fill="#FFF" opacity=".4"/>
    <circle cx="8" cy="8" r="7" fill="#4C351E"/>
    <path fill="#FFF" d="M4.77509396,6.31004236 C5.48078102,5.69430153 6.34672136,5.65273881 6.34680557,5.65273881 C7.57973686,5.54038701 7.86714855,6.21176559 7.86714855,6.21176559 C8.2317816,6.79207048 7.9660121,7.4482977 7.9660121,7.4482977 C7.69721102,8.1394641 7.13485085,8.37493095 7.13485085,8.37493095 C7.29240938,8.37791154 7.55809467,8.52073162 7.55809467,8.52073162 C7.63843183,8.60278072 7.82386416,8.6088247 7.82386416,8.6088247 C8.28121337,8.61793207 8.51296168,8.09839815 8.51296168,8.09839815 C8.98572148,7.13839883 9.31330175,6.94093454 9.31330175,6.94093454 C9.85098813,6.47000085 10.4813907,6.61886491 10.4813907,6.61886491 C11.21992,6.74951424 11.6154584,7.48166379 11.6154584,7.48166379 C12.0696918,8.30198921 11.995502,9.17993944 11.995502,9.17993944 C11.995502,10.2614807 11.4114155,10.8114001 11.4114155,10.8114001 C10.7533076,11.5071202 10.0085467,11.3431048 10.0085467,11.3431048 C8.99195308,11.1517673 8.89308953,10.0367771 8.89308953,10.0367771 C8.83439455,9.32888629 8.98732149,9.17695884 8.98732149,9.17695884 C9.07229025,10.4833693 10.3778955,10.1066555 10.3778955,10.1066555 C11.4670789,9.79220291 11.4856053,8.70304456 11.4856053,8.70304456 C11.5643424,8.15163485 11.2816465,7.60933252 11.2816465,7.60933252 C11.0221086,7.20835997 10.5802542,7.33288252 10.5802542,7.33288252 C10.2125054,7.40880485 9.94682009,7.87667515 9.94682009,7.87667515 C9.59759763,8.53596576 9.33494394,8.73044945 9.33494394,8.73044945 C8.83894194,9.19078548 8.06495987,8.94463818 8.06495987,8.94463818 C8.56550926,9.7650464 8.41258233,10.5123473 8.41258233,10.5123473 C8.19936041,12.0708663 6.64036465,11.9994976 6.64036465,11.9994976 C5.16953766,11.996517 4.48027172,10.6675865 4.48027172,10.6675865 C3.75024772,9.37566504 4.06949112,8.1927008 4.06949112,8.1927008 C4.43403996,11.1001865 6.31345807,10.9031362 6.31345807,10.9031362 C7.1344298,10.9031362 7.49190493,10.444456 7.49190493,10.444456 C8.08567574,9.57470242 7.35539911,9.12339096 7.35539911,9.12339096 C6.82234433,8.78923337 6.22907878,9.10517623 6.22907878,9.10517623 L5.78714015,7.76680718 C6.3881531,7.99772034 6.95977646,7.80174636 6.95977646,7.80174636 C7.72617956,7.57083319 7.44845212,7.04715956 7.44845212,7.04715956 C7.3521991,6.79430593 6.98141866,6.72020507 6.98141866,6.72020507 C6.35101611,6.5469995 5.29425395,7.32625898 5.29425395,7.32625898 L4.77509396,6.31004236 Z M7.47767329,4.42837745 C7.47767329,4.42837745 7.65695822,5.49783077 8.99801627,5.64363144 C8.99801627,5.64363144 9.83852492,5.70746581 10.6110754,4.84160355 L11.2939413,5.66490957 C11.2939413,5.66490957 10.6079596,6.42140063 9.40896529,6.47910822 C9.40896529,6.47910822 8.53443545,6.62797228 7.78664296,5.68006091 C7.78672717,5.68006091 7.32937795,5.11805355 7.47767329,4.42837745 Z M8.21923418,4.78083257 L8.96711088,4 L9.75204036,4.72916896 L9.00113207,5.47655265 L8.21923418,4.78083257 Z" opacity=".6"/>
  </g>
</svg>
