<svg width="16" height="16" viewBox="0 0 16 16">
  <g fill="none" fill-rule="evenodd">
    <circle cx="8" cy="8" r="8" fill="#3D3C36"/>
    <circle cx="8" cy="8" r="7" fill="#3D3C36"/>
    <path fill="#FFF" d="M11.7932302,7.36347773 L11.0290135,7.45518579 C10.9001934,6.73200228 10.5215667,6.0970332 9.98626692,5.64285998 L10.4475822,5.02361227 C10.6782398,4.70481762 10.5903288,4.28732762 10.25,4.09168378 C9.90967118,3.89429311 9.50667311,4.02617803 9.34564797,4.38602296 L9.04187621,5.09785213 C8.71547389,4.97906836 8.36644101,4.91181579 8,4.91181579 C7.63355899,4.91181579 7.28452611,4.97906836 6.95725338,5.09785213 L6.65348162,4.38602296 C6.49332689,4.02617803 6.09032882,3.89516652 5.75,4.09081037 C5.40967118,4.28820103 5.32263056,4.70481762 5.55154739,5.02361227 L6.01286267,5.64373339 C5.47843327,6.0970332 5.10154739,6.73112887 4.97185687,7.45169215 L4.20676983,7.36173091 C3.81595745,7.32068064 3.5,7.60628572 3.5,8.00019364 C3.5,8.39410156 3.81595745,8.67883323 4.20676983,8.63865637 L4.97185687,8.54956855 C5.10067698,9.26925841 5.47843327,9.90248068 6.01025145,10.3549071 L5.55154739,10.9750282 C5.32088975,11.2946963 5.40967118,11.7121862 5.75,11.9087035 C6.09032882,12.1052208 6.4959381,11.9742093 6.65435203,11.6143643 L6.9598646,10.904282 C7.28626692,11.0221923 7.6344294,11.0885715 8,11.0885715 C8.3655706,11.0885715 8.71373308,11.0221923 9.0401354,10.904282 L9.34564797,11.6134909 C9.5049323,11.9742093 9.90880077,12.1052208 10.25,11.9087035 C10.5903288,11.7113128 10.6782398,11.2938228 10.4484526,10.9750282 L9.98887814,10.3549071 C10.5241779,9.90073386 10.9001934,9.26751159 11.0290135,8.5452015 L11.7932302,8.63690955 C12.1840426,8.67795982 12.5,8.39322815 12.5,7.99932023 C12.5,7.60541231 12.184913,7.32155405 11.7932302,7.36347773 L11.7932302,7.36347773 Z M10.1699226,7.55737476 L8.40212766,7.76873998 L9.4631528,6.34682846 C9.81479691,6.65950925 10.0715667,7.07787265 10.1699226,7.55737476 L10.1699226,7.55737476 Z M8.00087041,5.78085877 C8.24545455,5.78085877 8.477853,5.83064314 8.69806576,5.90400958 L8.00087041,7.53553951 L7.30367505,5.9057564 C7.52301741,5.83064314 7.75628627,5.78085877 8.00087041,5.78085877 L8.00087041,5.78085877 Z M6.53858801,6.34770187 L7.58916828,7.75825906 L5.83355899,7.5521343 C5.9327853,7.07437901 6.18868472,6.65863584 6.53858801,6.34770187 L6.53858801,6.34770187 Z M5.8344294,8.4499998 L7.57698259,8.24649527 L6.53597679,9.651812 C6.1860735,9.33913121 5.93191489,8.92688168 5.8344294,8.4499998 L5.8344294,8.4499998 Z M8.00087041,10.2212753 C7.75802708,10.2212753 7.52736944,10.1723644 7.30802708,10.0989979 L8.00087041,8.49017667 L8.69371373,10.0989979 C8.47350097,10.1732378 8.24371373,10.2212753 8.00087041,10.2212753 L8.00087041,10.2212753 Z M9.46663443,9.65268541 L8.41518375,8.23601435 L10.170793,8.44475934 C10.0724371,8.92338804 9.81653772,9.33913121 9.46663443,9.65268541 L9.46663443,9.65268541 Z" opacity=".6"/>
  </g>
</svg>
