<svg width="28" height="28" viewBox="0 0 28 28">
  <g fill="none" fill-rule="evenodd">
    <circle cx="14" cy="14" r="14" fill="#FFF" opacity=".4"/>
    <circle cx="14" cy="14" r="13" fill="#3D3C36"/>
    <path fill="#FFF" d="M20.7442889,12.8841354 L19.3833035,13.0437401 C19.155069,11.7793721 18.4838404,10.6696212 17.5304769,9.87409189 L18.3507738,8.79094173 C18.7609222,8.23398808 18.6042741,7.50412941 18.0004211,7.15998193 C17.3965681,6.81583445 16.6773345,7.04692865 16.3935151,7.67537187 L15.8528266,8.91978921 C15.2733972,8.71446451 14.6510159,8.59559231 14,8.59559231 C13.3489841,8.59559231 12.7257606,8.71446451 12.1463312,8.92062049 L11.6048005,7.67537187 C11.3218233,7.04609737 10.6034319,6.81583445 9.9995789,7.15915065 C9.39572587,7.50329813 9.2390778,8.23398808 9.64754185,8.79094173 L10.4686809,9.87492317 C9.51700179,10.6687899 8.84745763,11.7777096 8.61753869,13.0387524 L7.25655332,12.8824729 C6.56258554,12.8109833 6,13.3122416 6,14.0005366 C6,14.6888315 6.56258554,15.1900898 7.25655332,15.1186002 L8.61753869,14.9623207 C8.84661543,16.221701 9.5153174,17.3289581 10.4644699,18.1228249 L9.64754185,19.2068063 C9.2382356,19.7654225 9.39572587,20.4961125 9.9995789,20.8402599 C10.6034319,21.1844074 11.3243499,20.9541445 11.6081693,20.3257013 L12.1522266,19.0829465 C12.7308138,19.2874399 13.3506685,19.4054808 14,19.4054808 C14.6493315,19.4054808 15.2700284,19.2874399 15.8477734,19.0829465 L16.3909885,20.3240387 C16.6764923,20.9541445 17.3957259,21.1844074 18.0004211,20.8402599 C18.6042741,20.4961125 18.7617644,19.76376 18.3524582,19.2076376 L17.5346879,18.1228249 C18.4855248,17.3281268 19.155069,16.2183759 19.3833035,14.9565018 L20.7442889,15.1161064 C21.4374145,15.1884273 22,14.6888315 22,14.0005366 C22,13.3122416 21.4374145,12.8118146 20.7442889,12.8841354 L20.7442889,12.8841354 Z M17.8538794,13.2232953 L14.7133382,13.592381 L16.597326,11.1052088 C17.2230761,11.6538498 17.6812296,12.3845397 17.8538794,13.2232953 L17.8538794,13.2232953 Z M13.9991578,10.1159927 C14.4354143,10.1159927 14.8464049,10.2024452 15.2388672,10.3321239 L13.9983156,13.1867192 L12.7586062,10.3329552 C13.1510685,10.2032764 13.5629014,10.1159927 13.9991578,10.1159927 L13.9991578,10.1159927 Z M11.4001474,11.1068714 L13.2698179,13.574093 L10.1461206,13.2141513 C10.3204548,12.3795521 10.7769239,11.6521872 11.4001474,11.1068714 L11.4001474,11.1068714 Z M10.1461206,14.7852593 L13.2470786,14.4278115 L11.394252,16.8867203 C10.7735551,16.3414045 10.3196126,15.6165334 10.1461206,14.7852593 L10.1461206,14.7852593 Z M13.9991578,17.8834179 C13.5662701,17.8834179 13.1578061,17.7969654 12.7687125,17.6697805 L13.9991578,14.8575802 L15.2296031,17.6697805 C14.8396673,17.7969654 14.4320455,17.8834179 13.9991578,17.8834179 L13.9991578,17.8834179 Z M16.6049058,16.8883828 L14.7369197,14.4103547 L17.8538794,14.7761153 C17.6820718,15.6115458 17.2264449,16.3397419 16.6049058,16.8883828 L16.6049058,16.8883828 Z" opacity=".6"/>
  </g>
</svg>
