<?xml version="1.0" encoding="UTF-8"?>
<svg width="24px" height="24px" viewBox="0 0 24 24" version="1.1" xmlns="http://www.w3.org/2000/svg" xmlns:xlink="http://www.w3.org/1999/xlink">
    <title>historic-ship-m</title>
    <g id="Page-2:-Night" stroke="none" stroke-width="1" fill="none" fill-rule="evenodd" opacity="0.6">
        <g id="historic-ship-m" fill-rule="nonzero">
            <circle id="Oval" fill="#FFFFFF" cx="12" cy="12" r="12"></circle>
            <circle id="Oval" fill="#717065" cx="12" cy="12" r="11"></circle>
            <path d="M18.3436718,11.34375 C18.1497784,11.34375 17.975299,11.4283516 17.8550692,11.5625 L16.7923332,11.5625 C16.7018807,10.5635234 16.3050431,9.65174609 15.6965115,8.92210547 L16.4501009,8.16851172 C16.4619407,8.16914063 16.4737804,8.17020703 16.4856202,8.17020703 C16.6536739,8.17020703 16.8217003,8.10625 16.9496136,7.97836328 C16.9496683,7.97833594 16.9496956,7.97830859 16.949723,7.97825391 C17.2054949,7.72242578 17.2054949,7.30611719 16.9496136,7.05017969 C16.6938416,6.79440625 16.2774808,6.79437891 16.0215448,7.05026172 C15.8846628,7.18719922 15.8217725,7.37007422 15.8314248,7.54977734 L15.0778081,8.30339844 C14.3481991,7.69489062 13.4364271,7.29805078 12.4374564,7.20759766 L12.4374564,6.14485547 C12.5716041,6.024625 12.6562051,5.85014453 12.6562051,5.65625 C12.6562051,5.29441016 12.3617967,5 11.999959,5 C11.6381213,5 11.3437128,5.29441016 11.3437128,5.65625 C11.3437128,5.85014453 11.4283139,6.024625 11.5624615,6.14485547 L11.5624615,7.20759766 C10.5634908,7.29805078 9.65171884,7.69489062 8.92208249,8.30342578 L8.16849315,7.54980469 C8.17814544,7.37012891 8.11528253,7.18722656 7.97837317,7.05028906 C7.97834583,7.05026172 7.97831849,7.05023438 7.9782638,7.05020703 C7.72246452,6.79443359 7.30610368,6.79440625 7.05019502,7.05028906 C6.79442308,7.30614453 6.79442308,7.72245312 7.05030439,7.97839063 C7.17821771,8.10627734 7.34618938,8.17020703 7.51427042,8.17020703 C7.52613754,8.17020703 7.53794997,8.16914063 7.54978975,8.16851172 L8.30340643,8.92213281 C7.69487483,9.65174609 7.29803732,10.5635234 7.20758472,11.5625 L6.14484876,11.5625 C6.024619,11.4283516 5.85013955,11.34375 5.65624615,11.34375 C5.29440843,11.34375 5,11.6381602 5,12 C5,12.3618398 5.29440843,12.65625 5.65624615,12.65625 C5.85013955,12.65625 6.024619,12.5716484 6.14484876,12.4375 L7.20758472,12.4375 C7.29803732,13.4364766 7.69487483,14.3482539 8.30340643,15.0778945 L7.54978975,15.8314883 C7.37011502,15.8218359 7.18721375,15.8847266 7.05027705,16.0216094 C7.05022236,16.0216367 7.05019502,16.0216641 7.05016767,16.0217187 C6.79439574,16.2775469 6.79439574,16.6938555 7.05027705,16.949793 C7.17819036,17.0776797 7.34616203,17.1416094 7.51424308,17.1416094 C7.68229678,17.1416094 7.85040517,17.077625 7.97837317,16.9496836 C8.11525518,16.8127461 8.17814544,16.6298711 8.16849315,16.4501953 L8.92210983,15.6965742 C9.65171884,16.305082 10.5635182,16.7019219 11.5624889,16.7924023 L11.5624889,17.8551445 C11.4283412,17.975375 11.3437402,18.1498555 11.3437402,18.34375 C11.3437402,18.7055898 11.6381486,19 11.9999863,19 C12.3618241,19 12.6562325,18.7055898 12.6562325,18.34375 C12.6562325,18.1498555 12.5716314,17.975375 12.4374838,17.8551445 L12.4374838,16.7924023 C13.4364545,16.7019492 14.3482265,16.3051094 15.0778628,15.6965742 L15.8314795,16.4501953 C15.8218272,16.6298711 15.8846901,16.8127461 16.0215995,16.9497109 C16.0216268,16.9497656 16.0216542,16.949793 16.0217089,16.9498203 C16.1496222,17.077707 16.3175938,17.1416367 16.4856749,17.1416367 C16.6537286,17.1416367 16.821837,17.0776523 16.949805,16.9497109 C17.2055769,16.6938828 17.2055769,16.2775742 16.9496956,16.0216367 C16.8127863,15.8847539 16.629885,15.8218633 16.4502103,15.8315156 L15.6965936,15.0778945 C16.3050978,14.3482812 16.7019353,13.4364766 16.7924153,12.4375 L17.8551512,12.4375 C17.975381,12.5716484 18.1498605,12.65625 18.3437538,12.65625 C18.7055916,12.65625 19,12.3618398 19,12 C19,11.6381602 18.7055095,11.34375 18.3436718,11.34375 Z M14.6076898,13.9890391 L13.1841825,12.5655234 C13.2040886,12.5240156 13.2216706,12.48125 13.2372017,12.4375 L15.2519595,12.4375 C15.1745771,13.0156016 14.9461214,13.5464258 14.6076898,13.9890391 Z M10.0109316,14.6077461 L11.4344389,13.1842305 C11.4759464,13.2041367 11.5187118,13.2217187 11.5624615,13.23725 L11.5624615,15.2520195 C10.9843634,15.1746367 10.4535423,14.9461797 10.0109316,14.6077461 Z M8.74795851,12.4375 L10.7627162,12.4375 C10.7782474,12.48125 10.7958293,12.524043 10.8157355,12.5655234 L9.39222817,13.9890391 C9.05379656,13.5464258 8.82534087,13.0156016 8.74795851,12.4375 Z M9.39222817,10.0109609 L10.8157355,11.4344766 C10.7958293,11.4759844 10.7782474,11.51875 10.7627162,11.5625 L8.74795851,11.5625 C8.82534087,10.9843984 9.05379656,10.4535742 9.39222817,10.0109609 L9.39222817,10.0109609 Z M13.9889864,9.39225391 L12.5654791,10.8157695 C12.5239715,10.7958633 12.4812062,10.7782812 12.4374564,10.76275 L12.4374564,8.74798047 C13.0155546,8.82536328 13.5463757,9.05382031 13.9889864,9.39225391 Z M15.2519595,11.5625 L13.2372017,11.5625 C13.2216706,11.51875 13.2040886,11.475957 13.1841825,11.4344766 L14.6076898,10.0109609 C14.9461214,10.4535742 15.1745771,10.9843984 15.2519595,11.5625 Z M12.4374564,12 C12.4374564,12.2412266 12.2411841,12.4375 11.999959,12.4375 C11.7587338,12.4375 11.5624615,12.2412266 11.5624615,12 C11.5624615,11.7587734 11.7587338,11.5625 11.999959,11.5625 C12.2411841,11.5625 12.4374564,11.7587734 12.4374564,12 L12.4374564,12 Z M11.5624615,10.76275 C11.5187118,10.7782812 11.4759191,10.7958633 11.4344389,10.8157695 L10.0109316,9.39225391 C10.4535423,9.05384766 10.9843907,8.82536328 11.5624615,8.74800781 L11.5624615,10.76275 Z M12.4374564,13.23725 C12.4812062,13.2217187 12.5239989,13.2041367 12.5654791,13.1842305 L13.9889864,14.6077461 C13.5463757,14.9461523 13.0155273,15.1746367 12.4374564,15.2519922 L12.4374564,13.23725 Z" id="Shape" fill="#FFFFFF"></path>
        </g>
    </g>
</svg>