<svg version="1.1" viewBox="0 0 24 24" xml:space="preserve" xmlns="http://www.w3.org/2000/svg">
<path d="m3.3924 18.886v-1.8291q0-0.38734 0.23671-0.62405t0.62405-0.23671h0.43038v2.6899zm2.238 0v-2.6899h3.7658l0.92532-2.0228 1.0544 2.0873-0.98987 2.1734q-0.1076 0.23671-0.31203 0.3443-0.20443 0.1076-0.46266 0.1076zm13.686 0v-2.6899h0.43038q0.38734 0 0.62405 0.23671t0.23671 0.62405v1.8291zm-0.94684 0h-3.981q-0.25823 0-0.46266-0.1076t-0.31203-0.3443l-6.0684-13.32h2.0013l2.4532 5.3797 2.4532-5.3797h2.0013l-3.443 7.5962 1.5924 3.4861h3.7658z" fill="#fff" opacity=".6" stroke-width=".43038"/>
</svg>
