<?xml version="1.0" encoding="UTF-8"?>
<svg width="24px" height="24px" viewBox="0 0 24 24" version="1.1" xmlns="http://www.w3.org/2000/svg" xmlns:xlink="http://www.w3.org/1999/xlink">
    <title>hospital-m</title>
    <g id="Page-2:-Night" stroke="none" stroke-width="1" fill="none" fill-rule="evenodd" opacity="0.6">
        <g id="hospital-m" fill-rule="nonzero">
            <circle id="Oval" fill="#FFFFFF" cx="12" cy="12" r="12"></circle>
            <circle id="Oval" fill="#C15746" cx="12" cy="12" r="11"></circle>
            <path d="M17.4444444,5 L6.55555556,5 C5.7,5 5.00777778,5.7 5.00777778,6.55555556 L5,17.4444444 C5,18.3 5.7,19 6.55555556,19 L17.4444444,19 C18.3,19 19,18.3 19,17.4444444 L19,6.55555556 C19,5.7 18.3,5 17.4444444,5 Z M15.8888889,13.5555556 L13.5555556,13.5555556 L13.5555556,15.8888889 C13.5555556,16.3166667 13.2055556,16.6666667 12.7777778,16.6666667 L11.2222222,16.6666667 C10.7944444,16.6666667 10.4444444,16.3166667 10.4444444,15.8888889 L10.4444444,13.5555556 L8.11111111,13.5555556 C7.68333333,13.5555556 7.33333333,13.2055556 7.33333333,12.7777778 L7.33333333,11.2222222 C7.33333333,10.7944444 7.68333333,10.4444444 8.11111111,10.4444444 L10.4444444,10.4444444 L10.4444444,8.11111111 C10.4444444,7.68333333 10.7944444,7.33333333 11.2222222,7.33333333 L12.7777778,7.33333333 C13.2055556,7.33333333 13.5555556,7.68333333 13.5555556,8.11111111 L13.5555556,10.4444444 L15.8888889,10.4444444 C16.3166667,10.4444444 16.6666667,10.7944444 16.6666667,11.2222222 L16.6666667,12.7777778 C16.6666667,13.2055556 16.3166667,13.5555556 15.8888889,13.5555556 Z" id="Shape" fill="#FFFFFF"></path>
        </g>
    </g>
</svg>