<?xml version="1.0" encoding="utf-8"?>
<!-- Generator: Adobe Illustrator 21.0.2, SVG Export Plug-In . SVG Version: 6.00 Build 0)  -->
<svg version="1.1" id="Слой_1" xmlns="http://www.w3.org/2000/svg" xmlns:xlink="http://www.w3.org/1999/xlink" x="0px" y="0px"
	 viewBox="0 0 38.9 38.9" style="enable-background:new 0 0 38.9 38.9;" xml:space="preserve">
<style type="text/css">
	.st0{fill:#FFFFFF;fill-opacity:0.1;}
	.st1{fill:#612C23;}
	.st2{fill:#FFFFFF;fill-opacity:0.7;}
</style>
<title>hospital-l</title>
<desc>Created with Sketch.</desc>
<g id="POI-Night">
	<g id="Artboard-1" transform="translate(-137.000000, -248.000000)">
		<g id="hospital-l" transform="translate(137.000000, 248.000000)">
			<circle id="Oval-1-Copy-39" class="st0" cx="19.4" cy="19.4" r="19.4"/>
			<circle id="Oval-1-Copy-38" class="st1" cx="19.4" cy="19.4" r="18"/>
			<path id="Combined-Shape" class="st2" d="M23,15.8v-5.8c0-0.8-0.6-1.4-1.4-1.4h-4.3c-0.8,0-1.4,0.6-1.4,1.4v5.8h-5.8
				c-0.8,0-1.4,0.6-1.4,1.4v4.3c0,0.8,0.6,1.4,1.4,1.4h5.8v5.8c0,0.8,0.6,1.4,1.4,1.4h4.3c0.8,0,1.4-0.6,1.4-1.4V23h5.8
				c0.8,0,1.4-0.6,1.4-1.4v-4.3c0-0.8-0.6-1.4-1.4-1.4H23z"/>
		</g>
	</g>
</g>
</svg>
