<svg height="24" viewBox="0 0 24 24" width="24"><g fill="none" fill-rule="evenodd"><circle cx="12" cy="12" fill="#fff" opacity=".4" r="12"/><circle cx="12" cy="12" fill="#8f4033" r="11"/><path d="m13.8461538 10.1538462h3.1513729c.5536507 0 1.0024733.4527494 1.0024733 1.0089393v1.674429c0 .5572218-.455761 1.0089393-1.0024733 1.0089393h-3.1513729v3.1513729c0 .5536507-.4527494 1.0024733-1.0089393 1.0024733h-1.674429c-.5572218 0-1.0089393-.455761-1.0089393-1.0024733v-3.1513729h-3.15137291c-.55365071 0-1.00247329-.4527494-1.00247329-1.0089393v-1.674429c0-.5572218.45576096-1.0089393 1.00247329-1.0089393h3.15137291v-3.15137291c0-.55365071.4527494-1.00247329 1.0089393-1.00247329h1.674429c.5572218 0 1.0089393.45576096 1.0089393 1.00247329z" fill="#fff" opacity=".6"/></g></svg>