<svg version="1.1" viewBox="0 0 16 16" xmlns="http://www.w3.org/2000/svg">
 <title>hospital-s</title>
 <g id="Page-2:-Night" fill="none" fill-rule="evenodd" opacity=".6">
  <g id="hospital-s" fill-rule="nonzero">
   <circle id="Oval" cx="8" cy="8" r="8" fill="#fff"/>
   <circle id="Oval" cx="8" cy="8" r="7.3333" fill="#C15746"/>
   <path id="Shape" d="m11.63 3.3333h-7.2593c-0.57037 0-1.0319 0.46667-1.0319 1.037l-0.0051852 7.2593c0 0.57037 0.46667 1.037 1.037 1.037h7.2593c0.57037 0 1.037-0.46667 1.037-1.037v-7.2593c0-0.57037-0.46667-1.037-1.037-1.037zm-1.037 5.7037h-1.5556v1.5556c0 0.28519-0.23333 0.51852-0.51852 0.51852h-1.037c-0.28519 0-0.51852-0.23333-0.51852-0.51852v-1.5556h-1.5556c-0.28519 0-0.51852-0.23333-0.51852-0.51852v-1.037c0-0.28519 0.23333-0.51852 0.51852-0.51852h1.5556v-1.5556c0-0.28519 0.23333-0.51852 0.51852-0.51852h1.037c0.28519 0 0.51852 0.23333 0.51852 0.51852v1.5556h1.5556c0.28519 0 0.51852 0.23333 0.51852 0.51852v1.037c0 0.28519-0.23333 0.51852-0.51852 0.51852z" fill="#fff"/>
  </g>
 </g>
</svg>
