<svg width="28" height="28" viewBox="0 0 28 28">
  <g fill="none" fill-rule="evenodd">
    <circle cx="14" cy="14" r="14" fill="#FFF" opacity=".4"/>
    <circle cx="14" cy="14" r="13" fill="#8F3F33"/>
    <path fill="#FFF" d="M16.6666667,11.3333333 L16.6666667,7.00087166 C16.6666667,6.44463086 16.217537,6 15.6635075,6 L12.3364925,6 C11.7880503,6 11.3333333,6.4481055 11.3333333,7.00087166 L11.3333333,11.3333333 L7.00087166,11.3333333 C6.44463086,11.3333333 6,11.782463 6,12.3364925 L6,15.6635075 C6,16.2119497 6.4481055,16.6666667 7.00087166,16.6666667 L11.3333333,16.6666667 L11.3333333,20.9991283 C11.3333333,21.5553691 11.782463,22 12.3364925,22 L15.6635075,22 C16.2119497,22 16.6666667,21.5518945 16.6666667,20.9991283 L16.6666667,16.6666667 L20.9991283,16.6666667 C21.5553691,16.6666667 22,16.217537 22,15.6635075 L22,12.3364925 C22,11.7880503 21.5518945,11.3333333 20.9991283,11.3333333 L16.6666667,11.3333333 Z" opacity=".6"/>
  </g>
</svg>
