<svg width="28" height="28" viewBox="0 0 28 28">
  <g fill="none" fill-rule="evenodd">
    <circle cx="14" cy="14" r="14" fill="#FFF" opacity=".4"/>
    <circle cx="14" cy="14" r="13" fill="#332721"/>
    <path fill="#FFF" d="M22,9 L23,9 L23,22 L22,22 L22,21 L7,21 L7,22 L6,22 L6,7 L7,7 L7,11 L22,11 L22,9 Z M7,13 L7,19 L22,19 L22,13 L7,13 Z M9.5,18 C8.67157288,18 8,17.3284271 8,16.5 C8,15.6715729 8.67157288,15 9.5,15 C10.3284271,15 11,15.6715729 11,16.5 C11,17.3284271 10.3284271,18 9.5,18 Z M9.5,10 C8.67157288,10 8,9.32842712 8,8.5 C8,7.67157288 8.67157288,7 9.5,7 C10.3284271,7 11,7.67157288 11,8.5 C11,9.32842712 10.3284271,10 9.5,10 Z M12,7.99895656 C12,7.44724809 12.4463114,7.04959016 12.9975446,7.11083829 L20.0024554,7.88916171 C20.553384,7.95037601 21,8.44386482 21,9 L21,10 L12,10 L12,7.99895656 Z M12,15.9989566 C12,15.4472481 12.4463114,15.0495902 12.9975446,15.1108383 L20.0024554,15.8891617 C20.553384,15.950376 21,16.4438648 21,17 L21,18 L12,18 L12,15.9989566 Z" opacity=".6"/>
  </g>
</svg>
