<svg width="16" height="16" viewBox="0 0 16 16">
  <g fill="none" fill-rule="evenodd">
    <circle cx="8" cy="8" r="8" fill="#FFF" opacity=".4"/>
    <circle cx="8" cy="8" r="7" fill="#332721"/>
    <path fill="#FFF" d="M12,4.5 L13,4.5 L13,12.5 L12,12.5 L12,11.5 L10.5,11.5 L5,11.5 L5,12.5 L4,12.5 L4,3.5 L5,3.5 L5,5.5 L12,5.5 L12,4.5 Z M5,6.5 L5,10.5 L12,10.5 L12,6.5 L5,6.5 Z M6.75,9.5 C6.33578644,9.5 6,9.16421356 6,8.75 C6,8.33578644 6.33578644,8 6.75,8 C7.16421356,8 7.5,8.33578644 7.5,8.75 C7.5,9.16421356 7.16421356,9.5 6.75,9.5 Z M8,8.67412429 C8,8.25883947 8.32105255,7.97846923 8.74157321,8.05219189 L10.2584268,8.31811577 C10.6679864,8.38991682 11,8.7809435 11,9.19009146 L11,9.5 L8,9.5 L8,8.67412429 Z M6.75,4.5 C6.33578644,4.5 6,4.16421356 6,3.75 C6,3.33578644 6.33578644,3 6.75,3 C7.16421356,3 7.5,3.33578644 7.5,3.75 C7.5,4.16421356 7.16421356,4.5 6.75,4.5 Z M8,3.67412429 C8,3.25883947 8.32105255,2.97846923 8.74157321,3.05219189 L10.2584268,3.31811577 C10.6679864,3.38991682 11,3.7809435 11,4.19009146 L11,4.5 L8,4.5 L8,3.67412429 Z" opacity=".6"/>
  </g>
</svg>
