<svg height="24" viewBox="0 0 24 24" width="24"><g fill="none" fill-rule="evenodd"><circle cx="12" cy="12" fill="#fff" opacity=".4" r="12"/><circle cx="12" cy="12" fill="#332721" r="11"/><path d="m6.92307692 12.4444444h2.76923077v2.2222223h-2.76923077v1.3333333h-.92307692v-7.54696369c0-.25020505.21409255-.45303631.46153846-.45303631.25490066 0 .46153846.19775391.46153846.45303631zm10.15384618-.8888888h.9230769v4.4444444h-.9230769zm-8.30769233.2222222c-.63725164 0-1.15384615-.4974614-1.15384615-1.1111111 0-.6136498.51659451-1.11111114 1.15384615-1.11111114.63725163 0 1.15384615.49746134 1.15384615 1.11111114 0 .6136497-.51659452 1.1111111-1.15384615 1.1111111zm1.84615383-1.5555556 4.0396741.3241714c.8277575.066425 1.4987875.7890459 1.4987875 1.6281487v2.0476799l-5.5384616 1.3333334z" fill="#fff" opacity=".6"/></g></svg>