<?xml version="1.0" encoding="UTF-8" standalone="no"?>
<svg width="27px" height="27px" viewBox="0 0 27 27" version="1.1" xmlns="http://www.w3.org/2000/svg" xmlns:xlink="http://www.w3.org/1999/xlink" xmlns:sketch="http://www.bohemiancoding.com/sketch/ns">
    <!-- Generator: Sketch 3.4.2 (15857) - http://www.bohemiancoding.com/sketch -->
    <title>hotel-l</title>
    <desc>Created with Sketch.</desc>
    <defs></defs>
    <g id="POI" stroke="none" stroke-width="1" fill="none" fill-rule="evenodd" sketch:type="MSPage">
        <g id="hotel-l-copy" sketch:type="MSLayerGroup">
            <circle id="Oval-1-Copy-39" opacity="0" fill="#FFFFFF" sketch:type="MSShapeGroup" cx="13.5" cy="13.5" r="13.5"></circle>
            <circle id="Oval-1-Copy-38" fill="#59310E" sketch:type="MSShapeGroup" cx="13.5" cy="13.5" r="12.5"></circle>
            <path d="M7,8 C5.89543,8 5,8.8954 5,10 C5,11.1046 5.89543,12 7,12 C8.10457,12 9,11.1046 9,10 C9,8.8954 8.10457,8 7,8 L7,8 Z M10,10 C10,11.6569 8.65686,13 7,13 L5.5,13 C5.24741,13 4.9987,13 5,13.5 C5.00035,13.636 5,14.1157 5,14.5 C5,15 5.38857,15 5.5,15 L22,15 L22,13 C22,12 22,10 17,10 L10,10 Z M6,16 C5.5,16 5,16.5 5,17 C4.99976,17.9907 5,19.1445 5,20 C5,20.5 5.5,21 6,21 C6.5,21 7,20.5 7,20 L7,18 L20,18 L20,20 C20,20.5 20.5,21 21,21 C21.5,21 22,20.5 22,20 L22,17 C22,16.5 21.5,16 21,16 L6,16 Z" id="path4536" opacity="0.7" fill="#FFFFFF" sketch:type="MSShapeGroup"></path>
        </g>
    </g>
</svg>