<svg width="16" height="16" viewBox="0 0 16 16">
  <g fill="none" fill-rule="evenodd">
    <circle cx="8" cy="8" r="8" fill="#FFF" opacity=".4"/>
    <circle cx="8" cy="8" r="7" fill="#332721"/>
    <path fill="#FFF" d="M4,5.33977723 C4,5.15212345 4.1546224,5 4.33333333,5 C4.51742825,5 4.66666667,5.14831543 4.66666667,5.33977723 L4.66666667,11 L4,11 L4,5.33977723 Z M11.3333333,7.57142857 L12,7.57142857 L12,11 L11.3333333,11 L11.3333333,7.57142857 Z M6,7.78571429 C5.50908022,7.78571429 5.11111111,7.40195836 5.11111111,6.92857143 C5.11111111,6.4551845 5.50908022,6.07142857 6,6.07142857 C6.49091978,6.07142857 6.88888889,6.4551845 6.88888889,6.92857143 C6.88888889,7.40195836 6.49091978,7.78571429 6,7.78571429 Z M4.66666667,8.42857143 L7.11111111,8.42857143 L7.11111111,10.1428571 L4.66666667,10.1428571 L4.66666667,8.42857143 Z M7.55555556,6.71428571 L9.90680779,7.01658957 C10.4491962,7.08632523 10.8888889,7.59076582 10.8888889,8.14440165 L10.8888889,9.71428571 L7.55555556,10.5714286 L7.55555556,6.71428571 Z" opacity=".6"/>
  </g>
</svg>
