<?xml version="1.0" encoding="UTF-8" standalone="no"?>
<svg width="27px" height="27px" viewBox="0 0 27 27" version="1.1" xmlns="http://www.w3.org/2000/svg" xmlns:xlink="http://www.w3.org/1999/xlink" xmlns:sketch="http://www.bohemiancoding.com/sketch/ns">
    <!-- Generator: Sketch 3.4.2 (15857) - http://www.bohemiancoding.com/sketch -->
    <title>hunting-tower-l</title>
    <desc>Created with Sketch.</desc>
    <defs>
        <path id="path-1" d="M26,13.5 C26,20.403 20.403,26 13.5,26 C6.597,26 1,20.403 1,13.5 C1,6.597 6.597,1 13.5,1 C20.403,1 26,6.597 26,13.5 L26,13.5 Z"></path>
    </defs>
    <g id="POI" stroke="none" stroke-width="1" fill="none" fill-rule="evenodd" sketch:type="MSPage">
        <g id="hunting-tower-l" sketch:type="MSLayerGroup">
            <g id="Layer_2">
                <path d="M13.5,27 C6.056,27 0,20.943 0,13.5 C0,6.056 6.056,0 13.5,0 C20.944,0 27,6.056 27,13.5 C27,20.943 20.944,27 13.5,27 L13.5,27 Z" id="Shape" opacity="0" fill="#FFFFFF" sketch:type="MSShapeGroup"></path>
                <g id="Shape">
                    <use fill="#33332E" fill-rule="evenodd" sketch:type="MSShapeGroup" xlink:href="#path-1"></use>
                    <use fill="none" xlink:href="#path-1"></use>
                </g>
            </g>
            <g id="Layer_1" transform="translate(7.000000, 6.000000)" fill="#FFFFFF" opacity="0.7" sketch:type="MSShapeGroup">
                <path d="M1,10 C1,10.553 1.447,11 2,11 L2,16 L4,16 L4,11 L6,11 L6,14 L8,14 L8,11 L10,11 L10,16 L12,16 L12,11 C12.553,11 13,10.553 13,10 L13,5 L1,5 L1,10 L1,10 Z M13,0 L1,0 C0.447,0 0,0.448 0,1 L0,2 L14,2 L14,1 C14,0.448 13.553,0 13,0 L13,0 Z" id="Shape"></path>
            </g>
        </g>
    </g>
</svg>