<?xml version="1.0" encoding="UTF-8" standalone="no"?>
<svg width="23px" height="23px" viewBox="0 0 23 23" version="1.1" xmlns="http://www.w3.org/2000/svg" xmlns:xlink="http://www.w3.org/1999/xlink" xmlns:sketch="http://www.bohemiancoding.com/sketch/ns">
    <!-- Generator: Sketch 3.4.2 (15857) - http://www.bohemiancoding.com/sketch -->
    <title>hunting-tower-m</title>
    <desc>Created with Sketch.</desc>
    <defs>
        <path id="path-1" d="M22,11.5 C22,17.299 17.299,22 11.5,22 C5.701,22 1,17.299 1,11.5 C1,5.701 5.701,1 11.5,1 C17.299,1 22,5.701 22,11.5 L22,11.5 Z"></path>
    </defs>
    <g id="POI" stroke="none" stroke-width="1" fill="none" fill-rule="evenodd" sketch:type="MSPage">
        <g id="hunting-tower-m" sketch:type="MSLayerGroup">
            <g id="Layer_2">
                <path d="M11.5,23 C5.159,23 0,17.842 0,11.5 C0,5.159 5.159,0 11.5,0 C17.841,0 23,5.159 23,11.5 C23,17.842 17.841,23 11.5,23 L11.5,23 Z" id="Shape" opacity="0" fill="#FFFFFF" sketch:type="MSShapeGroup"></path>
                <g id="Shape">
                    <use fill="#3D3D37" fill-rule="evenodd" sketch:type="MSShapeGroup" xlink:href="#path-1"></use>
                    <use fill="none" xlink:href="#path-1"></use>
                </g>
            </g>
            <g id="Layer_1" transform="translate(6.000000, 5.000000)" fill="#FFFFFF" opacity="0.7" sketch:type="MSShapeGroup">
                <path d="M1,8 C1,8.553 1.447,9 2,9 L2,14 L3,14 L3,9 L5,9 L5,12 L6,12 L6,9 L8,9 L8,14 L9,14 L9,9 C9.553,9 10,8.553 10,8 L10,3 L1,3 L1,8 L1,8 Z M10,0 L1,0 C0.447,0 0,0.447 0,1 L11,1 C11,0.447 10.553,0 10,0 L10,0 Z" id="Shape"></path>
            </g>
        </g>
    </g>
</svg>