<?xml version="1.0" encoding="UTF-8"?>
<svg width="24px" height="24px" viewBox="0 0 24 24" version="1.1" xmlns="http://www.w3.org/2000/svg" xmlns:xlink="http://www.w3.org/1999/xlink">
    <title>hunting-tower-m</title>
    <g id="Page-2:-Night" stroke="none" stroke-width="1" fill="none" fill-rule="evenodd" opacity="0.6">
        <g id="hunting-tower-m" fill-rule="nonzero">
            <circle id="Oval" fill="#FFFFFF" cx="12" cy="12" r="12"></circle>
            <circle id="Oval" fill="#717065" cx="12" cy="12" r="11"></circle>
            <g id="control-tower" transform="translate(6.000000, 5.000000)" fill="#FFFFFF">
                <path d="M10.7978008,0 L0.413136719,0 C0.186566406,0 0.0028984375,0.183667969 0.0028984375,0.410238281 C0.0028984375,0.636808594 0.186566406,0.820476563 0.413136719,0.820476563 L1.110375,0.820476563 L1.81855078,5.99437891 L1.70635937,5.99437891 C1.35455469,5.99437891 1.06832031,6.28058594 1.06832031,6.63239063 L1.06832031,7.55078516 C1.06832031,7.90258984 1.35455469,8.18879688 1.70635937,8.18879688 L3.11658594,8.18879688 L3.11658594,9.78974609 C3.11658594,10.3511953 3.562125,10.8103516 4.11824219,10.8326914 L4.11824219,13.5095078 C4.11824219,13.7799648 4.33827734,14 4.60873438,14 L6.60220312,14 C6.87266016,14 7.09272266,13.7799648 7.09272266,13.5095078 L7.09272266,10.8332656 C7.65917578,10.8225469 8.11680078,10.3587422 8.11680078,9.78977344 L8.11680078,8.18882422 L9.52514063,8.18882422 C9.87694531,8.18882422 10.1631797,7.90261719 10.1631797,7.5508125 L10.1631797,6.63241797 C10.1631797,6.28061328 9.87694531,5.99440625 9.52514063,5.99440625 L9.39238672,5.99440625 L10.1005625,0.820476563 L10.7978008,0.820476563 C11.0243711,0.820476563 11.2080391,0.636808594 11.2080391,0.410238281 C11.2080391,0.183667969 11.0243711,0 10.7978008,0 Z M9.27240234,0.820476563 L9.18998828,1.42258594 L7.94363281,1.42258594 C7.58666016,1.42258594 7.29626953,1.71300391 7.29626953,2.06997656 L7.29626953,4.79475391 C7.29626953,5.15172656 7.58666016,5.44214453 7.94363281,5.44214453 L8.63977734,5.44214453 L8.56417188,5.99437891 L2.64671094,5.99437891 L2.57110547,5.44214453 L3.28972656,5.44214453 C3.64669922,5.44214453 3.93711719,5.15172656 3.93711719,4.79475391 L3.93711719,2.06997656 C3.93711719,1.71300391 3.64669922,1.42258594 3.28972656,1.42258594 L2.02094922,1.42258594 L1.93850781,0.820476563 L9.27240234,0.820476563 Z M9.06787109,2.24303516 L8.74234375,4.62161328 L8.11680078,4.62161328 L8.11680078,2.24303516 L9.06787109,2.24303516 Z M2.49104297,4.62164062 L2.16548828,2.2430625 L3.11658594,2.2430625 L3.11658594,4.62164062 L2.49104297,4.62164062 Z M6.27221875,13.1795234 L4.93874609,13.1795234 L4.93874609,10.8337578 L6.27221875,10.8337578 L6.27221875,13.1795234 Z M7.29632422,9.78974609 C7.29632422,9.91301172 7.196,10.0132813 7.07273438,10.0132813 L4.160625,10.0132813 C4.03735938,10.0132813 3.93708984,9.91301172 3.93708984,9.78974609 L3.93708984,8.18879687 L7.29632422,8.18879687 L7.29632422,9.78974609 L7.29632422,9.78974609 Z M9.34267578,7.36829297 L1.88882422,7.36829297 L1.88882422,6.81485547 L9.34267578,6.81485547 L9.34267578,7.36829297 Z" id="Shape"></path>
                <path d="M6.25209375,1.37804297 L4.97940625,1.37804297 C4.62243359,1.37804297 4.33201563,1.66846094 4.33201563,2.02543359 L4.33201563,4.79475391 C4.33201563,5.15169922 4.62243359,5.44211719 4.97940625,5.44211719 L6.25209375,5.44211719 C6.60906641,5.44211719 6.89945703,5.15169922 6.89945703,4.79472656 L6.89945703,2.02540625 C6.89945703,1.66846094 6.60906641,1.37804297 6.25209375,1.37804297 Z M6.07898047,4.62164062 L5.15251953,4.62164062 L5.15251953,2.19851953 L6.07898047,2.19851953 L6.07898047,4.62164062 Z" id="Shape"></path>
            </g>
        </g>
    </g>
</svg>