<svg version="1.1" viewBox="0 0 24 24" xmlns="http://www.w3.org/2000/svg">
 <title>hunting-tower-m</title>
 <g id="Page-2:-Night" fill="none" fill-rule="evenodd" opacity=".6">
  <g id="hunting-tower-m" fill-rule="nonzero">
   <circle id="Oval" cx="12" cy="12" r="12" fill="#fff"/>
   <circle id="Oval" cx="12" cy="12" r="11" fill="#717065"/>
   <g id="control-tower" transform="translate(6 5)" fill="#fff">
    <path id="Shape" d="m10.798 0h-10.385c-0.22657 0-0.41024 0.18367-0.41024 0.41024 0 0.22657 0.18367 0.41024 0.41024 0.41024h0.69724l0.70818 5.1739h-0.11219c-0.3518 0-0.63804 0.28621-0.63804 0.63801v0.91839c0 0.3518 0.28623 0.63801 0.63804 0.63801h1.4102v1.6009c0 0.56145 0.44554 1.0206 1.0017 1.0429v2.6768c0 0.27046 0.22004 0.49049 0.49049 0.49049h1.9935c0.27046 0 0.49052-0.22004 0.49052-0.49049v-2.6762c0.56645-0.010719 1.0241-0.47452 1.0241-1.0435v-1.6009h1.4083c0.3518 0 0.63804-0.28621 0.63804-0.63801v-0.91839c0-0.3518-0.28623-0.63801-0.63804-0.63801h-0.13275l0.70818-5.1739h0.69724c0.22657 0 0.41024-0.18367 0.41024-0.41024 0-0.22657-0.18367-0.41024-0.41024-0.41024zm-1.5254 0.82048-0.082414 0.60211h-1.2464c-0.35697 0-0.64736 0.29042-0.64736 0.64739v2.7248c0 0.35697 0.29039 0.64739 0.64736 0.64739h0.69614l-0.075605 0.55223h-5.9175l-0.075605-0.55223h0.71862c0.35697 0 0.64739-0.29042 0.64739-0.64739v-2.7248c0-0.35697-0.29042-0.64739-0.64739-0.64739h-1.2688l-0.082441-0.60211h7.3339zm-0.20453 1.4226-0.32553 2.3786h-0.62554v-2.3786h0.95107zm-6.5768 2.3786-0.32555-2.3786h0.9511v2.3786h-0.62554zm3.7812 8.5579h-1.3335v-2.3458h1.3335v2.3458zm1.0241-3.3898c0 0.12327-0.10032 0.22354-0.22359 0.22354h-2.9121c-0.12327 0-0.22354-0.10027-0.22354-0.22354v-1.6009h3.3592v1.6009zm2.0464-2.4215h-7.4539v-0.55344h7.4539v0.55344z"/>
    <path id="Shape" d="m6.2521 1.378h-1.2727c-0.35697 0-0.64739 0.29042-0.64739 0.64739v2.7693c0 0.35695 0.29042 0.64736 0.64739 0.64736h1.2727c0.35697 0 0.64736-0.29042 0.64736-0.64739v-2.7693c0-0.35695-0.29039-0.64736-0.64736-0.64736zm-0.17311 3.2436h-0.92646v-2.4231h0.92646v2.4231z"/>
   </g>
  </g>
 </g>
</svg>
