<svg width="16" height="16" viewBox="0 0 16 16">
  <g fill="none" fill-rule="evenodd">
    <circle cx="8" cy="8" r="8" fill="#FFF" opacity=".4"/>
    <circle cx="8" cy="8" r="7" fill="#4E3552"/>
    <path fill="#FFF" fill-rule="nonzero" d="M7.99070491,4 C7.15563729,4 6.47116068,4.55894752 6.32178476,5.3 C5.55951022,5.53977984 5,6.21176112 5,7 C5,7.17288804 5.03013289,7.3410412 5.08010817,7.5 C5.04330848,7.5902344 5.03204327,7.695 5.08010817,7.8 L5.60081125,8.9625 C5.64353561,9.1225 5.8171033,9.2 5.98800073,9.2 L10.0868686,9.2 C10.257766,9.2 10.3886094,9.085 10.4740581,8.925 L10.9814098,7.7625 C11.0299126,7.6035656 10.9797466,7.4452264 10.8745989,7.3375 C10.9386846,7.16935284 10.9814098,6.98880564 10.9814098,6.8 C10.9814098,6.03629176 10.4105086,5.40952308 9.64627369,5.25 C9.47588555,4.53449736 8.80642864,4 7.99070491,4 Z M7.99070491,4.8 C8.36729361,4.8 8.65463798,4.97695024 8.77843522,5.2625 C8.5348235,5.3297024 8.30945594,5.44423392 8.12421852,5.6 C7.87003595,5.40726552 7.55828102,5.27665136 7.22967732,5.225 C7.36260732,4.96400256 7.63283673,4.8 7.99070491,4.8 Z M6.92259601,6 C7.41036588,6 7.83882025,6.3062016 7.96400218,6.775 L8.79178658,6.5875 C8.75978689,6.4676634 8.71311267,6.35848324 8.65827297,6.25 C8.81044516,6.09854556 9.02975569,6 9.27243558,6 C9.78093915,6 10.1269227,6.32392156 10.1269227,6.8 C10.1269227,6.95203532 10.0847063,7.08459392 10.0201118,7.2 L5.8945412,7.2375 C5.87351936,7.16150892 5.85448712,7.08053792 5.85448712,7 C5.85448712,6.4645614 6.35068928,6 6.92259601,6 Z M6.36183884,9.6 L7.34983957,11.7625 C7.43528828,11.9225 7.56613162,12 7.73702904,12 L8.20432669,12 C8.37522411,12 8.5487918,11.9225 8.59151616,11.7625 L9.56616553,9.6 L6.36183884,9.6 Z" opacity=".6"/>
  </g>
</svg>
