<?xml version="1.0" encoding="UTF-8"?>
<svg width="24px" height="24px" viewBox="0 0 24 24" version="1.1" xmlns="http://www.w3.org/2000/svg" xmlns:xlink="http://www.w3.org/1999/xlink">
    <title>ice_cream-m</title>
    <g id="Page-2:-Night" stroke="none" stroke-width="1" fill="none" fill-rule="evenodd" opacity="0.6">
        <g id="ice_cream-m" fill-rule="nonzero">
            <circle id="Oval" fill="#FFFFFF" cx="12" cy="12" r="12"></circle>
            <circle id="Oval" fill="#8C5F93" cx="12" cy="12" r="11"></circle>
            <path d="M16.3394829,8.52268467 C15.9428447,6.50588047 14.1613343,5 12.0504126,5 C9.93949087,5 8.15798049,6.50588047 7.76134234,8.52268467 C6.72604951,8.90587747 6,9.90083421 6,11.0504126 C6,12.536125 7.20335984,13.7394849 8.68907227,13.7394849 C8.76974444,13.7394849 8.84369392,13.7260395 8.91764341,13.7260395 L11.4924301,18.6403191 C11.747892,19.1243521 12.4403281,19.1176294 12.6890673,18.6335964 L15.1966272,13.7193168 C15.2705766,13.7260395 15.3378034,13.7394849 15.4117529,13.7394849 C16.8974654,13.7394849 18.1008252,12.536125 18.1008252,11.0504126 C18.1008252,9.90083421 17.3747757,8.90587747 16.3394829,8.52268467 Z M12.084026,16.852086 L10.2487342,13.3495694 C10.8067167,13.5983086 11.4184806,13.7394849 12.0504126,13.7394849 C12.6890673,13.7394849 13.3142766,13.5983086 13.8789817,13.336124 L12.084026,16.852086 Z" id="Shape" fill="#FFFFFF"></path>
        </g>
    </g>
</svg>