<?xml version="1.0" encoding="UTF-8" standalone="no"?>
<svg width="17px" height="17px" viewBox="0 0 17 17" version="1.1" xmlns="http://www.w3.org/2000/svg" xmlns:xlink="http://www.w3.org/1999/xlink" xmlns:sketch="http://www.bohemiancoding.com/sketch/ns">
    <!-- Generator: Sketch 3.4.2 (15857) - http://www.bohemiancoding.com/sketch -->
    <title>information-s</title>
    <desc>Created with Sketch.</desc>
    <defs></defs>
    <g id="POI" stroke="none" stroke-width="1" fill="none" fill-rule="evenodd" sketch:type="MSPage">
        <g id="information-s" sketch:type="MSLayerGroup">
            <circle id="Oval-1-Copy-43" opacity="0" fill="#FFFFFF" sketch:type="MSShapeGroup" cx="8.5" cy="8.5" r="8.5"></circle>
            <circle id="Oval-1-Copy-42" fill="#59310E" sketch:type="MSShapeGroup" cx="8.5" cy="8.5" r="7.5"></circle>
            <path d="M7.03964758,7.89163498 L7.03964758,7.55893536 C7.29074956,7.42585525 7.46695925,7.37040586 7.68722467,7.31273764 C7.90749009,7.25506942 8.14096793,7.20405599 8.3876652,7.15969582 C8.63436247,7.11533565 8.87885341,7.07763007 9.12114537,7.04657795 C9.36343733,7.01552583 9.57709159,7 9.76211454,7 L10,7.15969582 L8.81057269,11.9619772 L9.73568282,11.9619772 L9.73568282,12.4144487 C9.6211448,12.494297 9.48678491,12.5697081 9.33259912,12.6406844 C9.17841333,12.7116607 9.01541936,12.773764 8.84361233,12.8269962 C8.67180531,12.8802284 8.49779824,12.9223699 8.3215859,12.9534221 C8.14537357,12.9844742 7.97797436,13 7.81938326,13 C7.48457982,13 7.3193839,12.9356787 7.19162996,12.8070342 C7.06387601,12.6783897 7,12.5386573 7,12.3878327 C7,12.210392 7.01321573,12.0373899 7.03964758,11.8688213 C7.06607943,11.7002526 7.10132137,11.5139427 7.14537445,11.3098859 L7.97797357,8.11787072 L7.03964758,7.89163498 Z M9,6 C9.55228475,6 10,5.55228475 10,5 C10,4.44771525 9.55228475,4 9,4 C8.44771525,4 8,4.44771525 8,5 C8,5.55228475 8.44771525,6 9,6 Z" id="i-copy-2" opacity="0.7" fill="#FFFFFF" sketch:type="MSShapeGroup"></path>
        </g>
    </g>
</svg>