<svg width="28" height="28" viewBox="0 0 28 28">
  <g fill="none" fill-rule="evenodd">
    <circle cx="14" cy="14" r="14" fill="#FFF" opacity=".4"/>
    <circle cx="14" cy="14" r="13" fill="#3D3C36"/>
    <path fill="#FFF" d="M12.0594714,12.4090909 L12.0594714,11.9411765 C12.4361243,11.7540103 12.7004389,11.6760254 13.030837,11.5949198 C13.3612351,11.5138142 13.7114519,11.442068 14.0814978,11.3796791 C14.4515437,11.3172902 14.8182801,11.2642605 15.1817181,11.2205882 C15.545156,11.176916 15.8656374,11.1550802 16.1431718,11.1550802 L16.5,11.3796791 L14.715859,19.540107 L16.1035242,19.540107 L16.1035242,20.1764706 C15.9317172,20.2887706 15.7301774,20.3948302 15.4988987,20.4946524 C15.26762,20.5944747 15.023129,20.6818178 14.7654185,20.7566845 C14.507708,20.8315512 14.2466974,20.8908197 13.9823789,20.934492 C13.7180604,20.9781642 13.4669615,21 13.2290749,21 C12.7268697,21 12.4790758,20.9095374 12.2874449,20.7286096 C12.095814,20.5476818 12,20.3511597 12,20.1390374 C12,19.8894818 12.0198236,19.6461687 12.0594714,19.4090909 C12.0991191,19.1720131 12.151982,18.9099836 12.2180617,18.6229947 L13.4669604,12.7272727 L12.0594714,12.4090909 Z M15.15,9.80748663 C14.4044156,9.80748663 13.8,9.17900934 13.8,8.40374332 C13.8,7.62847729 14.4044156,7 15.15,7 C15.8955844,7 16.5,7.62847729 16.5,8.40374332 C16.5,9.17900934 15.8955844,9.80748663 15.15,9.80748663 Z" opacity=".6"/>
  </g>
</svg>
