<?xml version="1.0" encoding="UTF-8" standalone="no"?>
<svg width="23px" height="23px" viewBox="0 0 23 23" version="1.1" xmlns="http://www.w3.org/2000/svg" xmlns:xlink="http://www.w3.org/1999/xlink" xmlns:sketch="http://www.bohemiancoding.com/sketch/ns">
    <!-- Generator: Sketch 3.4.2 (15857) - http://www.bohemiancoding.com/sketch -->
    <title>information-m</title>
    <desc>Created with Sketch.</desc>
    <defs></defs>
    <g id="POI" stroke="none" stroke-width="1" fill="none" fill-rule="evenodd" sketch:type="MSPage">
        <g id="information-m-copy" sketch:type="MSLayerGroup">
            <ellipse id="Oval-1-Copy-41" opacity="0" fill="#FFFFFF" sketch:type="MSShapeGroup" cx="11.5" cy="11.5" rx="11.5" ry="11.5"></ellipse>
            <ellipse id="Oval-1-Copy-40" fill="#59310E" sketch:type="MSShapeGroup" cx="11.5" cy="11.5" rx="10.5" ry="10.5"></ellipse>
            <path d="M9.06353778,9.79545455 L9.06353778,9.29411765 C9.46594481,9.09358249 9.74833213,9.01002717 10.1013216,8.92312834 C10.454311,8.83622951 10.8284742,8.75935862 11.2238224,8.69251337 C11.6191706,8.62566811 12.010983,8.5688505 12.3992714,8.52205882 C12.7875598,8.47526714 13.1299545,8.45187166 13.4264656,8.45187166 L13.8076923,8.69251337 L11.9015588,17.4358289 L13.3841071,17.4358289 L13.3841071,18.1176471 C13.2005526,18.2379685 12.9852322,18.3516037 12.7381396,18.4585561 C12.491047,18.5655086 12.2298387,18.6590905 11.9545069,18.7393048 C11.6791752,18.8195191 11.4003177,18.8830212 11.1179261,18.9298128 C10.8355346,18.9766045 10.5672666,19 10.3131142,19 C9.77657023,19 9.51183317,18.9030758 9.30709929,18.7092246 C9.10236541,18.5153734 9,18.304814 9,18.0775401 C9,17.8101591 9.02117905,17.5494665 9.06353778,17.2954545 C9.10589652,17.0414426 9.16237398,16.7606967 9.23297187,16.4532086 L10.5672653,10.1363636 L9.06353778,9.79545455 Z M12.3653846,7.00802139 C13.1619492,7.00802139 13.8076923,6.33465287 13.8076923,5.5040107 C13.8076923,4.67336852 13.1619492,4 12.3653846,4 C11.5688201,4 10.9230769,4.67336852 10.9230769,5.5040107 C10.9230769,6.33465287 11.5688201,7.00802139 12.3653846,7.00802139 Z" id="i-copy" opacity="0.7" fill="#FFFFFF" sketch:type="MSShapeGroup"></path>
        </g>
    </g>
</svg>