<?xml version="1.0" encoding="UTF-8"?>
<svg version="1.1" viewBox="0 0 24 24" xml:space="preserve" xmlns="http://www.w3.org/2000/svg" xmlns:cc="http://creativecommons.org/ns#" xmlns:dc="http://purl.org/dc/elements/1.1/" xmlns:rdf="http://www.w3.org/1999/02/22-rdf-syntax-ns#">
    <title>interior_decoration-m</title>
    <g id="interior_decoration-m" fill-rule="nonzero">
        <circle id="Oval" cx="12" cy="12" r="12" fill="#000" opacity=".6"/>
        <circle cx="12" cy="12" r="11" fill="#8C5F93"/>
        <path d="m16.246 5.543c-0.52905 8.118e-4 -0.99393 0.35107-1.1406 0.85938-0.09265-0.023045-0.18773-0.034849-0.2832-0.035156-0.657-2.11e-4 -1.1897 0.53245-1.1895 1.1895 1e-3 0.37613 0.17992 0.7296 0.48242 0.95312-0.30305 0.22394-0.48203 0.57826-0.48242 0.95508-2.1e-4 0.657 0.53245 1.1897 1.1895 1.1895 0.10086-2.93e-4 0.20128-0.01342 0.29883-0.03906 0.11406 0.34283 0.37781 0.61521 0.7168 0.74024v4.3008h0.8125v-4.2988c0.38406-0.13857 0.67018-0.4645 0.75781-0.86328 0.12882 0.0478 0.26495 0.07291 0.40234 0.07422 0.657 2.057e-4 1.1897-0.53245 1.1895-1.1895-9.43e-4 -0.32709-0.13658-0.63935-0.375-0.86328 0.23891-0.2244 0.37459-0.53747 0.375-0.86523 2.11e-4 -0.657-0.53245-1.1897-1.1895-1.1895-0.13388 0.00117-0.26661 0.02494-0.39258 0.070312-0.0978-0.57087-0.59269-0.98822-1.1719-0.98828zm0.07031 2.0586c0.48871-1.605e-4 0.88493 0.39606 0.88477 0.88477 1.6e-4 0.48871-0.39606 0.88493-0.88477 0.88477-0.48871 1.599e-4 -0.88492-0.39606-0.88476-0.88477-1.6e-4 -0.48871 0.39606-0.88493 0.88476-0.88477z" fill="#000" fill-rule="evenodd" style="paint-order:stroke fill markers"/>
        <path d="m6.1756 5.4825-1.0446 3.8474a0.38235 0.38235 52.595 0 0 0.36899 0.48253h1.8613a0.5 0.5 45 0 1 0.5 0.5v7.0664a0.5 0.5 135 0 1-0.5 0.5h-0.3457a0.5 0.5 135 0 0-0.5 0.5v0.12109a0.5 0.5 45 0 0 0.5 0.5h2.8145a0.5 0.5 135 0 0 0.5-0.5v-0.12109a0.5 0.5 45 0 0-0.5-0.5h-0.3457a0.5 0.5 45 0 1-0.5-0.5v-7.0664a0.5 0.5 135 0 1 0.5-0.5h1.8613a0.38145 0.38145 127.34 0 0 0.3679-0.48223l-1.0541-3.848a0.65539 0.65539 37.34 0 0-0.6321-0.48223h-3.2207a0.65386 0.65386 142.6 0 0-0.63101 0.48253zm7.464 8.6643 0.85945 4.3626a0.60811 0.60811 39.428 0 0 0.59664 0.49057h2.3633a0.6068 0.6068 140.51 0 0 0.59561-0.49077l0.8498-4.3622a0.41199 0.41199 50.512 0 0-0.40439-0.49077h-4.457a0.41111 0.41111 129.43 0 0-0.40336 0.49057z" fill="#000" fill-rule="evenodd" style="paint-order:stroke fill markers"/>
    </g>
</svg>
