<svg width="24" height="24" viewBox="0 0 24 24">
  <g fill="none" fill-rule="evenodd">
    <circle cx="12" cy="12" r="12" fill="#FFF" opacity=".4"/>
    <circle cx="12" cy="12" r="11" fill="#4E3551"/>
    <path fill="#4E3551" d="M13.0789091,8.315 L15.8181818,6.07142857 L15.8181818,5 L8.18181818,5 L8.18181818,6.07142857 L10.7945455,8.33321429 C8.05854545,8.88178571 6,11.2571429 6,14.1071429 C6,17.3621429 8.68690909,20 12,20 C15.3130909,20 18,17.3621429 18,14.1071429 C18,11.2153571 15.8770909,8.81535714 13.0789091,8.315 L13.0789091,8.315 Z M12,18.1678571 C9.72,18.1678571 7.86545455,16.3464286 7.86545455,14.1071429 C7.86545455,11.8678571 9.72,10.0464286 12,10.0464286 C14.28,10.0464286 16.1345455,11.8678571 16.1345455,14.1071429 C16.1345455,16.3464286 14.28,18.1678571 12,18.1678571 L12,18.1678571 Z"/>
  </g>
</svg>
