<svg width="28" height="28" viewBox="0 0 28 28">
  <g fill="none" fill-rule="evenodd">
    <circle cx="14" cy="14" r="14" fill="#FFF" opacity=".4"/>
    <circle cx="14" cy="14" r="13" fill="#4E3551"/>
    <path fill="#FFF" d="M15.0957333,8.88610526 L17.2666667,5.94736842 L17.2666667,5 L10.7333333,5 L10.7333333,5.94736842 L12.9042667,8.88610526 C9.56386667,9.42231579 7,12.3563158 7,15.8947368 C7,19.8130526 10.1397333,23 14,23 C17.8602667,23 21,19.8130526 21,15.8947368 C21,12.3563158 18.4361333,9.42231579 15.0957333,8.88610526 L15.0957333,8.88610526 Z M14,21.1052632 C11.1654667,21.1052632 8.86666667,18.7718947 8.86666667,15.8947368 C8.86666667,13.0175789 11.1654667,10.6842105 14,10.6842105 C16.8345333,10.6842105 19.1333333,13.0175789 19.1333333,15.8947368 C19.1333333,18.7718947 16.8345333,21.1052632 14,21.1052632 L14,21.1052632 Z" opacity=".6"/>
  </g>
</svg>
