<?xml version="1.0" encoding="UTF-8"?>
<svg width="24px" height="24px" viewBox="0 0 24 24" version="1.1" xmlns="http://www.w3.org/2000/svg" xmlns:xlink="http://www.w3.org/1999/xlink">
    <title>jewelry-m</title>
    <g id="Page-2:-Night" stroke="none" stroke-width="1" fill="none" fill-rule="evenodd" opacity="0.6">
        <g id="jewelry-m" fill-rule="nonzero">
            <circle id="Oval" fill="#FFFFFF" cx="12" cy="12" r="12"></circle>
            <circle id="Oval" fill="#8C5F93" cx="12" cy="12" r="11"></circle>
            <g id="ring" transform="translate(7.000000, 6.000000)" fill="#FFFFFF">
                <path d="M4.9892987,4.77922078 C3.15402597,4.7814026 1.66680519,6.26862338 1.66462338,8.1038961 C1.66462338,9.94005195 3.15314286,11.4285714 4.9892987,11.4285714 C6.82545455,11.4285714 8.31397403,9.94005195 8.31397403,8.1038961 C8.31397403,6.26774026 6.82545455,4.77922078 4.9892987,4.77922078 Z M4.9892987,11.012987 C3.38264935,11.012987 2.08020779,9.71054545 2.08020779,8.1038961 C2.08020779,6.49724675 3.38264935,5.19480519 4.9892987,5.19480519 C6.59524675,5.19651948 7.89667532,6.49797403 7.89838961,8.1038961 C7.89838961,9.71054545 6.59594805,11.012987 4.9892987,11.012987 Z" id="Shape"></path>
                <rect id="Rectangle" x="0.00228571429" y="1.24675325" width="1.24675325" height="1"></rect>
                <polygon id="Rectangle" transform="translate(0.729480, 0.415511) rotate(-68.198591) translate(-0.729480, -0.415511) " points="0.521683035 -0.143983835 0.937277884 -0.143983835 0.937277884 0.975005295 0.521683035 0.975005295"></polygon>
                <polygon id="Rectangle" transform="translate(0.729508, 2.493512) rotate(-21.783322) translate(-0.729508, -2.493512) " points="0.170023802 2.28571845 1.28899221 2.28571845 1.28899221 2.7013056 0.170023802 2.7013056"></polygon>
                <rect id="Rectangle" x="8.72955844" y="1.24675325" width="1.24675325" height="1"></rect>
                <polygon id="Rectangle" transform="translate(9.248908, 0.415148) rotate(-21.783322) translate(-9.248908, -0.415148) " points="8.68942384 0.207354097 9.80839225 0.207354097 9.80839225 0.622941249 8.68942384 0.622941249"></polygon>
                <polygon id="Rectangle" transform="translate(9.248401, 2.494166) rotate(-68.198591) translate(-9.248401, -2.494166) " points="9.04060359 1.934671 9.45619844 1.934671 9.45619844 3.05366013 9.04060359 3.05366013"></polygon>
                <path d="M9.0238961,6.44498701 C8.58085714,5.36971429 7.72690909,4.51576623 6.65163636,4.07272727 L6.65163636,2.90909091 C6.65096104,2.83225974 6.60763636,2.76220779 6.53922078,2.72727273 L7.43833766,1.58296104 C7.44187013,1.57838961 7.44353247,1.57319481 7.44664935,1.56841558 C7.45083117,1.56337662 7.4547013,1.5581039 7.45828571,1.55262338 C7.46015584,1.54909091 7.46077922,1.54514286 7.46244156,1.5414026 C7.466,1.5332987 7.46906494,1.52496104 7.47158442,1.51646753 C7.47472727,1.50696104 7.47716883,1.49724675 7.47885714,1.48737662 C7.48012987,1.47877922 7.48090909,1.4701039 7.48114286,1.4614026 C7.48187013,1.45150649 7.48187013,1.44158442 7.48114286,1.43168831 C7.48018182,1.42293506 7.47857143,1.41423377 7.47636364,1.40571429 C7.47405195,1.39587013 7.47098701,1.38620779 7.46722078,1.37683117 C7.46535065,1.37246753 7.46493506,1.3678961 7.46285714,1.36374026 C7.46077922,1.35958442 7.45766234,1.35646753 7.45537662,1.35231169 C7.45309091,1.34815584 7.45163636,1.34337662 7.44893506,1.33922078 L6.61776623,0.0924675325 C6.61283117,0.0860779221 6.60755844,0.079974026 6.60197403,0.0741818182 C6.59683117,0.0676623377 6.59135065,0.0614285714 6.58555844,0.0554805195 C6.57696104,0.0477662338 6.56771429,0.0408311688 6.55792208,0.0347012987 C6.55314286,0.0315844156 6.54877922,0.0276363636 6.54358442,0.0249350649 C6.53376623,0.02 6.52355844,0.0158961039 6.51303896,0.0126753247 C6.50638961,0.0103896104 6.50015584,0.00748051948 6.49225974,0.00581818182 C6.48348052,0.00407792208 6.4745974,0.00296103896 6.46566234,0.00249350649 C6.45844156,0.00124675325 6.45116883,0.000415584416 6.44384416,0 L3.53475325,0 C3.52748052,0 3.52083117,0.00207792208 3.51397403,0.0027012987 C3.5047013,0.00324675325 3.49545455,0.00441558442 3.48633766,0.00623376623 C3.4798961,0.0078961039 3.47387013,0.0105974026 3.46742857,0.0126753247 C3.4567013,0.016025974 3.44628571,0.0202857143 3.43625974,0.0253506494 C3.43127273,0.0280519481 3.42711688,0.0315844156 3.42233766,0.0347012987 C3.41238961,0.0407792208 3.40298701,0.0477402597 3.39428571,0.0554805195 C3.38851948,0.0612467532 3.38316883,0.0674285714 3.37828571,0.073974026 C3.37249351,0.0797922078 3.36709091,0.085974026 3.36207792,0.0924675325 L2.53090909,1.33922078 C2.52820779,1.34337662 2.52696104,1.34815584 2.52446753,1.35231169 C2.52197403,1.35646753 2.51885714,1.35958442 2.51698701,1.36374026 C2.51511688,1.3678961 2.51449351,1.37246753 2.51262338,1.37683117 C2.50885714,1.38620779 2.50579221,1.39587013 2.50348052,1.40571429 C2.50127273,1.41423377 2.49966234,1.42293506 2.4987013,1.43168831 C2.49763636,1.44155844 2.49727273,1.45148052 2.49766234,1.4614026 C2.4978961,1.4701039 2.49867532,1.47877922 2.49994805,1.48737662 C2.50163636,1.49724675 2.50407792,1.50696104 2.50722078,1.51646753 C2.50974026,1.52496104 2.51280519,1.5332987 2.51636364,1.5414026 C2.51802597,1.54514286 2.51864935,1.54909091 2.52051948,1.55262338 C2.5241039,1.5581039 2.52797403,1.56337662 2.53215584,1.56841558 C2.53527273,1.57319481 2.53693506,1.57838961 2.54046753,1.58296104 L3.43958442,2.72727273 C3.37106494,2.76212987 3.32766234,2.83223377 3.32696104,2.90909091 L3.32696104,4.07272727 C1.09872727,4.99080519 0.0366233766,7.5414026 0.954701299,9.76966234 C1.87277922,11.9978961 4.42337662,13.06 6.65163636,12.1419221 C8.8798961,11.2238442 9.94197403,8.67322078 9.0238961,6.44498701 Z M5.4801039,3.40280519 L5.97735065,1.66233766 L6.84737662,1.66233766 L5.4801039,3.40280519 Z M6.23605195,3.94805195 L5.58025974,3.94805195 L6.23314286,3.11688312 L6.23605195,3.94805195 Z M4.9892987,3.60706494 L4.77361039,2.85194805 L4.43366234,1.66233766 L5.54493506,1.66233766 L5.48737662,1.8638961 L4.9892987,3.60706494 Z M6.46961039,0.620883117 L6.88685714,1.24675325 L6.15667532,1.24675325 L6.46961039,0.620883117 Z M6.10763636,0.415584416 L5.7947013,1.04124675 L5.37745455,0.415584416 L6.10763636,0.415584416 Z M5.43231169,1.24675325 L4.54628571,1.24675325 L4.9892987,0.581818182 L5.43231169,1.24675325 Z M4.60114286,0.415584416 L4.1838961,1.04124675 L3.87096104,0.415584416 L4.60114286,0.415584416 Z M3.50898701,0.620883117 L3.82192208,1.24675325 L3.09174026,1.24675325 L3.50898701,0.620883117 Z M3.13122078,1.66233766 L4.00124675,1.66233766 L4.49849351,3.40280519 L3.13122078,1.66233766 Z M4.39833766,3.94805195 L3.74254545,3.94805195 L3.74254545,3.11688312 L4.39833766,3.94805195 Z M4.99075325,12.0534029 C2.81031169,12.0542078 1.04205195,10.2872468 1.04124648,8.10680519 C1.04062338,6.41124675 2.1227013,4.90462338 3.72966234,4.36363636 L6.24893506,4.36363636 C7.85667532,4.90181818 8.93961039,6.40846753 8.93735418,8.1038961 C8.93815584,10.2843377 7.17119481,12.0525974 4.99075325,12.0534029 Z" id="Shape"></path>
            </g>
        </g>
    </g>
</svg>