<svg height="24" viewBox="0 0 24 24" width="24"><g fill="none" fill-rule="evenodd"><circle cx="12" cy="12" fill="#fff" opacity=".4" r="12"/><circle cx="12" cy="12" fill="#4d361f" r="11"/><path d="m15.972885 11.8807242 2.0156548-3.45899896c.0292124-.02981896 0-.08945687-.0584247-.08945687h-3.8852478c-.0292124 0-.0292124 0-.0584248-.02981896l-1.7819558-3.28008519c-.0292124-.02981896-.0876371-.02981896-.0876371 0l-1.8988054 3.28008519c0 .02981896-.0292123.02981896-.0584247.02981896h-4.06052217c-.05842478 0-.05842478.05963791-.05842478.08945687l1.98644248 3.63791266v.0596379l-2.01565487 3.458999c-.02921239.0298189 0 .0894568.05842478.0894568h3.8852478c.02921239 0 .02921239 0 .05842476.029819l1.7819558 3.2800852c.0292124.0298189.0876371.0298189.0876371 0l1.8988054-3.2800852c0-.029819.0292123-.029819.0584247-.029819h4.0605222c.0584247 0 .0584247-.0596379.0584247-.0894568l-1.9864424-3.6379127zm.6426725-2.65388714-1.0224336 1.78913734c-.0292124.029819-.0876372.029819-.0876372 0l-.9640088-1.78913734c-.0292124-.02981896 0-.08945687.0584248-.08945687h2.0156548c-.0292124 0 0 .05963791 0 .08945687zm-1.577469 2.71352504-1.6651062 2.8924388c0 .0298189-.0292124.0298189-.0584248.0298189h-2.8336018c-.0292123 0-.0292123 0-.0584247-.0298189l-1.4606195-2.7135251v-.0596379l1.6651062-2.89243875c0-.02981896.0292124-.02981896.0584248-.02981896h2.8336018c.0292123 0 .0292123 0 .0584247.02981896l1.4606195 2.71352505c.0292124 0 .0292124.0298189 0 .0596379zm-2.8628142-5.30777424.8763717 1.61022364c.0292124.02981896 0 .08945687-.0584248.08945687h-1.8111681c-.0584248 0-.0876372-.05963791-.0584248-.08945687l.9640089-1.61022364c.0292124-.02981896.0876371-.02981896.0876371 0zm-4.76161944 2.50479233h2.22014159c.05842478 0 .08763717.05963791.05842478.08945687l-1.13928319 1.96805114c-.02921239.0298189-.08763716.0298189-.08763716 0l-1.08085841-1.96805114c-.02921239-.02981896 0-.08945687.02921239-.08945687zm-.02921239 5.63578271 1.02243363-1.7891373c.02921239-.029819.08763717-.029819.08763717 0l.96400885 1.7891373c.02921239.029819 0 .0894569-.05842478.0894569h-1.95723009c-.02921239 0-.05842478-.0596379-.05842478-.0894569zm4.44028323 2.5942492-.8763717-1.6102236c-.0292124-.029819 0-.0894569.0584248-.0894569h1.8111681c.0584248 0 .0876372.0596379.0584248.0894569l-.9640089 1.6102236c-.0292124.029819-.0876371.029819-.0876371 0zm3.7391858-4.5623003 1.0808584 1.9680511c.0292124.029819 0 .0894569-.0584248.0894569h-2.2201416c-.0584247 0-.0876371-.0596379-.0584247-.0894569l1.1392832-1.9680511c.0292123-.0298189.0876371-.0298189.1168495 0z" fill="#fff" opacity=".6"/></g></svg>