<?xml version="1.0" encoding="UTF-8"?>
<svg width="27px" height="27px" viewBox="0 0 27 27" version="1.1" xmlns="http://www.w3.org/2000/svg" xmlns:xlink="http://www.w3.org/1999/xlink">
    <!-- Generator: Sketch 39.1 (31720) - http://www.bohemiancoding.com/sketch -->
    <title>jewish-l</title>
    <desc>Created with Sketch.</desc>
    <defs></defs>
    <g id="POI-Night" stroke="none" stroke-width="1" fill="none" fill-rule="evenodd">
        <g id="Artboard-1" transform="translate(-317.000000, -1137.000000)">
            <g id="jewish-l" transform="translate(317.000000, 1137.000000)">
                <circle id="Oval-1-Copy-39" fill-opacity="0.1" fill="#FFFFFF" cx="13.5" cy="13.5" r="13.5"></circle>
                <circle id="Oval-1-Copy-38" fill="#26160D" cx="13.5" cy="13.5" r="12.5"></circle>
                <path d="M18.4661062,13.3551651 L20.9856748,9.15495208 C21.0221903,9.11874334 20.9856748,9.04632588 20.9126438,9.04632588 L16.0560841,9.04632588 C16.0195686,9.04632588 16.0195686,9.04632588 15.9830531,9.01011715 L13.7556084,5.02715655 C13.7190929,4.99094782 13.6460619,4.99094782 13.6460619,5.02715655 L11.2725553,9.01011715 C11.2725553,9.04632588 11.2360398,9.04632588 11.1995243,9.04632588 L6.12387166,9.04632588 C6.05084069,9.04632588 6.05084069,9.11874334 6.05084069,9.15495208 L8.53389379,13.5724175 L8.53389379,13.6448349 L6.0143252,17.8450479 C5.97780972,17.8812567 6.0143252,17.9536741 6.08735618,17.9536741 L10.9439159,17.9536741 C10.9804314,17.9536741 10.9804314,17.9536741 11.0169469,17.9898829 L13.2443916,21.9728435 C13.2809071,22.0090522 13.3539381,22.0090522 13.3539381,21.9728435 L15.7274447,17.9898829 C15.7274447,17.9536741 15.7639602,17.9536741 15.8004757,17.9536741 L20.8761283,17.9536741 C20.9491593,17.9536741 20.9491593,17.8812567 20.9491593,17.8450479 L18.4661062,13.4275825 L18.4661062,13.3551651 L18.4661062,13.3551651 Z M19.2694469,10.1325879 L17.9914049,12.3051118 C17.9548894,12.3413206 17.8818584,12.3413206 17.8818584,12.3051118 L16.6768474,10.1325879 C16.6403319,10.0963791 16.6768474,10.0239617 16.7498783,10.0239617 L19.2694469,10.0239617 C19.2329314,10.0239617 19.2694469,10.0963791 19.2694469,10.1325879 L19.2694469,10.1325879 Z M17.2976106,13.4275825 L15.2162279,16.9398296 C15.2162279,16.9760383 15.1797124,16.9760383 15.1431969,16.9760383 L11.6011947,16.9760383 C11.5646792,16.9760383 11.5646792,16.9760383 11.5281637,16.9398296 L9.70238937,13.6448349 L9.70238937,13.5724175 L11.7837721,10.0601704 C11.7837721,10.0239617 11.8202876,10.0239617 11.8568031,10.0239617 L15.3988053,10.0239617 C15.4353208,10.0239617 15.4353208,10.0239617 15.4718363,10.0601704 L17.2976106,13.3551651 C17.3341261,13.3551651 17.3341261,13.3913738 17.2976106,13.4275825 L17.2976106,13.4275825 Z M13.7190929,6.98242812 L14.8145575,8.93769968 C14.851073,8.97390841 14.8145575,9.04632588 14.7415266,9.04632588 L12.4775664,9.04632588 C12.4045354,9.04632588 12.3680199,8.97390841 12.4045354,8.93769968 L13.6095465,6.98242812 C13.6460619,6.94621938 13.7190929,6.94621938 13.7190929,6.98242812 L13.7190929,6.98242812 Z M7.76706857,10.0239617 L10.5422456,10.0239617 C10.6152765,10.0239617 10.651792,10.0963791 10.6152765,10.1325879 L9.19117256,12.5223642 C9.15465707,12.5585729 9.0816261,12.5585729 9.0816261,12.5223642 L7.73055308,10.1325879 C7.6940376,10.0963791 7.73055308,10.0239617 7.76706857,10.0239617 L7.76706857,10.0239617 Z M7.73055308,16.8674121 L9.00859512,14.6948882 C9.04511061,14.6586794 9.11814158,14.6586794 9.11814158,14.6948882 L10.3231526,16.8674121 C10.3596681,16.9036209 10.3231526,16.9760383 10.2501217,16.9760383 L7.80358406,16.9760383 C7.76706857,16.9760383 7.73055308,16.9036209 7.73055308,16.8674121 L7.73055308,16.8674121 Z M13.2809071,20.0175719 L12.1854425,18.0623003 C12.148927,18.0260916 12.1854425,17.9536741 12.2584734,17.9536741 L14.5224336,17.9536741 C14.5954646,17.9536741 14.6319801,18.0260916 14.5954646,18.0623003 L13.3904535,20.0175719 C13.3539381,20.0537806 13.2809071,20.0537806 13.2809071,20.0175719 L13.2809071,20.0175719 Z M17.9548894,14.4776358 L19.3059624,16.8674121 C19.3424779,16.9036209 19.3059624,16.9760383 19.2329314,16.9760383 L16.4577544,16.9760383 C16.3847235,16.9760383 16.348208,16.9036209 16.3847235,16.8674121 L17.8088274,14.4776358 C17.8453429,14.4414271 17.9183739,14.4414271 17.9548894,14.4776358 L17.9548894,14.4776358 Z" id="Shape" fill-opacity="0.7" fill="#FFFFFF"></path>
            </g>
        </g>
    </g>
</svg>