<svg version="1.1" viewBox="0 0 16 16" xmlns="http://www.w3.org/2000/svg">
 <title>jewish-s</title>
 <g id="Page-2:-Night" fill="none" fill-rule="evenodd" opacity=".6">
  <g id="jewish-s" fill-rule="nonzero">
   <circle id="Oval" cx="8" cy="8" r="8" fill="#fff"/>
   <circle id="Oval" cx="8" cy="8" r="7" fill="#7F5933"/>
   <path id="Shape" d="m10.649 7.4233 1.3438-2.2236c0.019475-0.019169 0-0.057508-0.03895-0.057508h-2.5902c-0.019475 0-0.019475 0-0.03895-0.019169l-1.188-2.1086c-0.019475-0.019169-0.058425-0.019169-0.058425 0l-1.2659 2.1086c0 0.019169-0.019475 0.019169-0.03895 0.019169h-2.707c-0.03895 0-0.03895 0.038339-0.03895 0.057508l1.3243 2.3387v0.038339l-1.3438 2.2236c-0.019475 0.019169 0 0.057508 0.03895 0.057508h2.5902c0.019475 0 0.019475 0 0.03895 0.019169l1.188 2.1086c0.019475 0.019169 0.058425 0.019169 0.058425 0l1.2659-2.1086c0-0.019169 0.019475-0.019169 0.03895-0.019169h2.707c0.03895 0 0.03895-0.038339 0.03895-0.057508l-1.3243-2.3387v-0.038339zm0.42845-1.7061-0.68162 1.1502c-0.019475 0.019169-0.058425 0.019169-0.058425 0l-0.64267-1.1502c-0.019475-0.019169 0-0.057508 0.03895-0.057508h1.3438c-0.019475 0 0 0.038339 0 0.057508zm-1.0516 1.7444-1.1101 1.8594c0 0.019169-0.019475 0.019169-0.03895 0.019169h-1.8891c-0.019475 0-0.019475 0-0.03895-0.019169l-0.97375-1.7444v-0.038339l1.1101-1.8594c0-0.019169 0.019475-0.019169 0.03895-0.019169h1.8891c0.019475 0 0.019475 0 0.03895 0.019169l0.97375 1.7444c0.019475 0 0.019475 0.019169 0 0.038339zm-1.9085-3.4121 0.58425 1.0351c0.019475 0.019169 0 0.057508-0.03895 0.057508h-1.2074c-0.03895 0-0.058425-0.038339-0.03895-0.057508l0.64267-1.0351c0.019475-0.019169 0.058425-0.019169 0.058425 0zm-3.1744 1.6102h1.4801c0.03895 0 0.058425 0.038339 0.03895 0.057508l-0.75952 1.2652c-0.019475 0.019169-0.058425 0.019169-0.058425 0l-0.72057-1.2652c-0.019475-0.019169 0-0.057508 0.019475-0.057508zm-0.019475 3.623 0.68162-1.1502c0.019475-0.019169 0.058425-0.019169 0.058425 0l0.64267 1.1502c0.019475 0.019169 0 0.057508-0.03895 0.057508h-1.3048c-0.019475 0-0.03895-0.038339-0.03895-0.057508zm2.9602 1.6677-0.58425-1.0351c-0.019475-0.019169 0-0.057508 0.03895-0.057508h1.2074c0.03895 0 0.058425 0.038339 0.03895 0.057508l-0.64267 1.0351c-0.019475 0.019169-0.058425 0.019169-0.058425 0zm2.4928-2.9329 0.72057 1.2652c0.019475 0.019169 0 0.057508-0.03895 0.057508h-1.4801c-0.03895 0-0.058425-0.038339-0.03895-0.057508l0.75952-1.2652c0.019475-0.019169 0.058425-0.019169 0.0779 0z" fill="#fff"/>
  </g>
 </g>
</svg>
