<svg version="1.1" viewBox="0 0 24 24" xmlns="http://www.w3.org/2000/svg">
 <title>jewish-m</title>
 <g id="Page-2:-Night" fill="none" fill-rule="evenodd" opacity=".6">
  <g id="jewish-m" fill-rule="nonzero">
   <circle id="Oval" cx="12" cy="12" r="12" fill="#fff"/>
   <circle id="Oval" cx="12" cy="12" r="11" fill="#7F5933"/>
   <path id="Shape" d="m15.973 11.881 2.0157-3.459c0.029212-0.029819 0-0.089457-0.058425-0.089457h-3.8852c-0.029212 0-0.029212 0-0.058425-0.029819l-1.782-3.2801c-0.029212-0.029819-0.087637-0.029819-0.087637 0l-1.8988 3.2801c0 0.029819-0.029212 0.029819-0.058425 0.029819h-4.0605c-0.058425 0-0.058425 0.059638-0.058425 0.089457l1.9864 3.6379v0.059638l-2.0157 3.459c-0.029212 0.029819 0 0.089457 0.058425 0.089457h3.8852c0.029212 0 0.029212 0 0.058425 0.029819l1.782 3.2801c0.029212 0.029819 0.087637 0.029819 0.087637 0l1.8988-3.2801c0-0.029819 0.029212-0.029819 0.058425-0.029819h4.0605c0.058425 0 0.058425-0.059638 0.058425-0.089457l-1.9864-3.6379v-0.059638zm0.64267-2.6539-1.0224 1.7891c-0.029212 0.029819-0.087637 0.029819-0.087637 0l-0.96401-1.7891c-0.029212-0.029819 0-0.089457 0.058425-0.089457h2.0157c-0.029212 0 0 0.059638 0 0.089457zm-1.5775 2.7135-1.6651 2.8924c0 0.029819-0.029212 0.029819-0.058425 0.029819h-2.8336c-0.029212 0-0.029212 0-0.058425-0.029819l-1.4606-2.7135v-0.059638l1.6651-2.8924c0-0.029819 0.029212-0.029819 0.058425-0.029819h2.8336c0.029212 0 0.029212 0 0.058425 0.029819l1.4606 2.7135c0.029212 0 0.029212 0.029819 0 0.059638zm-2.8628-5.3078 0.87637 1.6102c0.029212 0.029819 0 0.089457-0.058425 0.089457h-1.8112c-0.058425 0-0.087637-0.059638-0.058425-0.089457l0.96401-1.6102c0.029212-0.029819 0.087637-0.029819 0.087637 0zm-4.7616 2.5048h2.2201c0.058425 0 0.087637 0.059638 0.058425 0.089457l-1.1393 1.9681c-0.029212 0.029819-0.087637 0.029819-0.087637 0l-1.0809-1.9681c-0.029212-0.029819 0-0.089457 0.029212-0.089457zm-0.029212 5.6358 1.0224-1.7891c0.029212-0.029819 0.087637-0.029819 0.087637 0l0.96401 1.7891c0.029212 0.029819 0 0.089457-0.058425 0.089457h-1.9572c-0.029212 0-0.058425-0.059638-0.058425-0.089457zm4.4403 2.5942-0.87637-1.6102c-0.029212-0.029819 0-0.089457 0.058425-0.089457h1.8112c0.058425 0 0.087637 0.059638 0.058425 0.089457l-0.96401 1.6102c-0.029212 0.029819-0.087637 0.029819-0.087637 0zm3.7392-4.5623 1.0809 1.9681c0.029212 0.029819 0 0.089457-0.058425 0.089457h-2.2201c-0.058425 0-0.087637-0.059638-0.058425-0.089457l1.1393-1.9681c0.029212-0.029819 0.087637-0.029819 0.11685 0z" fill="#fff"/>
  </g>
 </g>
</svg>
