<?xml version="1.0" encoding="UTF-8"?>
<svg width="23px" height="23px" viewBox="0 0 23 23" version="1.1" xmlns="http://www.w3.org/2000/svg" xmlns:xlink="http://www.w3.org/1999/xlink">
    <!-- Generator: Sketch 39.1 (31720) - http://www.bohemiancoding.com/sketch -->
    <title>jewish-m</title>
    <desc>Created with Sketch.</desc>
    <defs></defs>
    <g id="POI-Night" stroke="none" stroke-width="1" fill="none" fill-rule="evenodd">
        <g id="Artboard-1" transform="translate(-354.000000, -1139.000000)">
            <g id="jewish-m" transform="translate(354.000000, 1139.000000)">
                <ellipse id="Oval-1-Copy-41" fill-opacity="0.1" fill="#FFFFFF" cx="11.5" cy="11.5" rx="11.5" ry="11.5"></ellipse>
                <ellipse id="Oval-1-Copy-40" fill="#26160D" cx="11.5" cy="11.5" rx="10.5" ry="10.5"></ellipse>
                <path d="M15.8039587,11.3722045 L17.9875848,7.66613419 C18.0192316,7.6341853 17.9875848,7.57028754 17.9242913,7.57028754 L13.7152729,7.57028754 C13.6836261,7.57028754 13.6836261,7.57028754 13.6519794,7.53833866 L11.7215273,4.02396166 C11.6898805,3.99201278 11.626587,3.99201278 11.626587,4.02396166 L9.56954793,7.53833866 C9.56954793,7.57028754 9.53790118,7.57028754 9.50625442,7.57028754 L5.10735544,7.57028754 C5.04406193,7.57028754 5.04406193,7.6341853 5.04406193,7.66613419 L7.19604129,11.5638978 L7.19604129,11.6277955 L5.01241518,15.3338658 C4.98076842,15.3658147 5.01241518,15.4297125 5.07570869,15.4297125 L9.28472713,15.4297125 C9.31637389,15.4297125 9.31637389,15.4297125 9.34802064,15.4616613 L11.2784727,18.9760383 C11.3101195,19.0079872 11.373413,19.0079872 11.373413,18.9760383 L13.4304521,15.4616613 C13.4304521,15.4297125 13.4620988,15.4297125 13.4937456,15.4297125 L17.8926446,15.4297125 C17.9559381,15.4297125 17.9559381,15.3658147 17.9559381,15.3338658 L15.8039587,11.4361022 L15.8039587,11.3722045 L15.8039587,11.3722045 Z M16.5001873,8.52875399 L15.3925509,10.4456869 C15.3609041,10.4776358 15.2976106,10.4776358 15.2976106,10.4456869 L14.2532677,8.52875399 C14.221621,8.49680511 14.2532677,8.43290735 14.3165612,8.43290735 L16.5001873,8.43290735 C16.4685406,8.43290735 16.5001873,8.49680511 16.5001873,8.52875399 L16.5001873,8.52875399 Z M14.7912625,11.4361022 L12.9873975,14.5351438 C12.9873975,14.5670927 12.9557507,14.5670927 12.924104,14.5670927 L9.85436873,14.5670927 C9.82272197,14.5670927 9.82272197,14.5670927 9.79107522,14.5351438 L8.20873745,11.6277955 L8.20873745,11.5638978 L10.0126025,8.46485623 C10.0126025,8.43290735 10.0442493,8.43290735 10.075896,8.43290735 L13.1456313,8.43290735 C13.177278,8.43290735 13.177278,8.43290735 13.2089248,8.46485623 L14.7912625,11.3722045 C14.8229093,11.3722045 14.8229093,11.4041534 14.7912625,11.4361022 L14.7912625,11.4361022 Z M11.6898805,5.74920128 L12.6392832,7.47444089 C12.6709299,7.50638978 12.6392832,7.57028754 12.5759897,7.57028754 L10.6138909,7.57028754 C10.5505973,7.57028754 10.5189506,7.50638978 10.5505973,7.47444089 L11.5949403,5.74920128 C11.626587,5.7172524 11.6898805,5.7172524 11.6898805,5.74920128 L11.6898805,5.74920128 Z M6.53145943,8.43290735 L8.93661283,8.43290735 C8.99990634,8.43290735 9.03155309,8.49680511 8.99990634,8.52875399 L7.76568288,10.6373802 C7.73403613,10.6693291 7.67074262,10.6693291 7.67074262,10.6373802 L6.49981267,8.52875399 C6.46816592,8.49680511 6.49981267,8.43290735 6.53145943,8.43290735 L6.53145943,8.43290735 Z M6.49981267,14.471246 L7.60744911,12.5543131 C7.63909586,12.5223642 7.70238937,12.5223642 7.70238937,12.5543131 L8.74673229,14.471246 C8.77837905,14.5031949 8.74673229,14.5670927 8.68343878,14.5670927 L6.56310618,14.5670927 C6.53145943,14.5670927 6.49981267,14.5031949 6.49981267,14.471246 L6.49981267,14.471246 Z M11.3101195,17.2507987 L10.3607168,15.5255591 C10.3290701,15.4936102 10.3607168,15.4297125 10.4240103,15.4297125 L12.3861091,15.4297125 C12.4494027,15.4297125 12.4810494,15.4936102 12.4494027,15.5255591 L11.4050597,17.2507987 C11.373413,17.2827476 11.3101195,17.2827476 11.3101195,17.2507987 L11.3101195,17.2507987 Z M15.3609041,12.3626198 L16.5318341,14.471246 C16.5634808,14.5031949 16.5318341,14.5670927 16.4685406,14.5670927 L14.0633872,14.5670927 C14.0000937,14.5670927 13.9684469,14.5031949 14.0000937,14.471246 L15.2343171,12.3626198 C15.2659639,12.3306709 15.3292574,12.3306709 15.3609041,12.3626198 L15.3609041,12.3626198 Z" id="Shape" fill-opacity="0.7" fill="#FFFFFF"></path>
            </g>
        </g>
    </g>
</svg>