<?xml version="1.0" encoding="UTF-8" standalone="no"?>
<svg width="27px" height="27px" viewBox="0 0 27 27" version="1.1" xmlns="http://www.w3.org/2000/svg" xmlns:xlink="http://www.w3.org/1999/xlink">
    <!-- Generator: Sketch 3.8.3 (29802) - http://www.bohemiancoding.com/sketch -->
    <title>jewish-l</title>
    <desc>Created with Sketch.</desc>
    <defs></defs>
    <g id="POI-NIght" stroke="none" stroke-width="1" fill="none" fill-rule="evenodd">
        <g id="jewish-l">
            <circle id="Oval-1-Copy-39" fill-opacity="0.1" fill="#FFFFFF" cx="13.5" cy="13.5" r="13.5"></circle>
            <circle id="Oval-1-Copy-38" fill="#26160D" cx="13.5" cy="13.5" r="12.5"></circle>
            <path d="M8.41859845,13.494755 L6.0010376,18.0122681 L8.54998779,16.4509277 L9.26771667,15.0860855 L9.9967547,16.452374 L8.54998779,16.4509277 L6.0010376,18.0065918 L10.8260699,18.0065918 L13.4901123,22.9992676 L16.1820202,18.0065918 L21.0098877,18.0065918 L18.6074889,13.5080804 L21.0431519,8.99066162 L16.1949927,8.99066162 L13.5147705,3.97192383 L10.8289777,8.99066162 L6.01525879,8.99066162 L8.44775391,10.4033203 L10.0729891,10.4033203 L9.26311062,11.916679 L8.44775391,10.4154663 L6.01525879,8.99066162 L8.41859845,13.494755 Z M16.9494132,10.4033203 L17.7473836,11.8975263 L18.5567627,10.4033203 L16.9494132,10.4033203 Z M14.4382348,18.0065918 L12.5707374,18.0065918 L13.5057373,19.7280884 L14.4382348,18.0065918 Z M11.7275316,16.4541043 L15.2772616,16.4576529 L16.9065788,13.4497477 L15.2925641,10.4033203 L11.7302401,10.4033203 L10.1122551,13.4801008 L11.7275316,16.4541043 Z M17.0162265,16.4593913 L18.5018921,16.4608765 L17.7651706,15.0703263 L17.0162265,16.4593913 Z M14.5441294,8.99066162 L13.5047607,7.02886963 L12.4731142,8.99066162 L14.5441294,8.99066162 Z" id="Combined-Shape" fill-opacity="0.7" fill="#FFFFFF"></path>
        </g>
    </g>
</svg>