<?xml version="1.0" encoding="UTF-8" standalone="no"?>
<svg width="17px" height="17px" viewBox="0 0 17 17" version="1.1" xmlns="http://www.w3.org/2000/svg" xmlns:xlink="http://www.w3.org/1999/xlink" xmlns:sketch="http://www.bohemiancoding.com/sketch/ns">
    <!-- Generator: Sketch 3.4.2 (15857) - http://www.bohemiancoding.com/sketch -->
    <title>kindergarten-s</title>
    <desc>Created with Sketch.</desc>
    <defs>
        <circle id="path-1" cx="8.5" cy="8.5" r="7.5"></circle>
    </defs>
    <g id="POI" stroke="none" stroke-width="1" fill="none" fill-rule="evenodd" sketch:type="MSPage">
        <g id="kindergarten-s-copy" sketch:type="MSLayerGroup">
            <circle id="Oval-1-Copy-38" opacity="0" fill="#FFFFFF" sketch:type="MSShapeGroup" cx="8.5" cy="8.5" r="8.5"></circle>
            <g id="Oval-1-Copy-48">
                <use fill="#3D3D37" fill-rule="evenodd" sketch:type="MSShapeGroup" xlink:href="#path-1"></use>
                <use fill="none" xlink:href="#path-1"></use>
            </g>
            <path d="M13.6137821,9.83659341 C13.5680719,9.82542179 13.5218855,9.81916567 13.4742706,9.81916567 C13.2390534,9.81916567 13.0305004,9.96841861 12.968125,10.1815733 C12.8286135,10.6606126 12.6043476,11.1034559 12.3143733,11.4958034 C12.0196375,10.2999925 11.0735131,7.1635443 11.0735131,7.07417129 C11.0735131,6.84180145 11.1744477,6.65188379 11.4225209,6.65188379 C11.5367965,6.65188379 11.6401207,6.69254851 11.7201136,6.75734395 L12.3067549,7.38196355 C12.3857956,7.51021383 12.53483,7.59601192 12.7057672,7.59601192 C12.9614589,7.59601192 13.1719164,7.40028502 13.1719164,7.15853101 L13.1695357,5.65617063 C13.1557274,5.65617063 12.8790852,5.24952341 12.9133679,5.20304944 L13.5837848,4.94118651 L11.3544583,4.68960147 C9.97172354,4.68960147 8.85182268,5.74107499 8.85182268,7.03832431 C8.85182268,7.18310859 8.86467868,7.60673668 8.89372373,7.74481799 L4.56744003,7.74481799 C4.37412381,7.74481799 4.21651871,7.89094287 4.21651871,8.07281696 C4.21651871,8.25424418 4.37412381,8.40081592 4.56744003,8.40081592 L5.55116247,8.40081592 L4.72980661,11.5525553 C4.4193579,11.1459081 4.1779507,10.6851902 4.03129701,10.182467 C3.96892158,9.96931234 3.76132091,9.8200594 3.52562749,9.8200594 C3.47848881,9.8200594 3.43135012,9.82631552 3.38659218,9.83748714 C3.25136605,9.87234262 3.1385189,9.95456579 3.06900125,10.0689633 C2.99948359,10.1833607 2.9818661,10.3160796 3.01900567,10.4425425 C3.6932317,12.7519412 5.94684173,14.3637835 8.49994906,14.3637835 C11.0535325,14.3637835 13.3066664,12.7510474 13.9808925,10.4425425 C14.0185082,10.3151859 13.9999384,10.182467 13.9308969,10.0680695 C13.8613792,9.95367206 13.7485321,9.87189575 13.6137821,9.83659341 Z M5.56116159,12.3841712 C5.83018539,11.09005 7.04103059,10.112756 8.49994906,10.112756 C9.95886754,10.112756 11.1697127,11.0904968 11.4382604,12.3846181 C10.6297605,13.0084417 9.60032785,13.3775523 8.49994906,13.3775523 C7.40004643,13.3775523 6.37061375,13.0084417 5.56116159,12.3841712 Z" id="Shape" opacity="0.7" fill="#FFFFFF" sketch:type="MSShapeGroup"></path>
        </g>
    </g>
</svg>