<?xml version="1.0" encoding="UTF-8" standalone="no"?>
<svg width="27px" height="27px" viewBox="0 0 27 27" version="1.1" xmlns="http://www.w3.org/2000/svg" xmlns:xlink="http://www.w3.org/1999/xlink" xmlns:sketch="http://www.bohemiancoding.com/sketch/ns">
    <!-- Generator: Sketch 3.4.2 (15857) - http://www.bohemiancoding.com/sketch -->
    <title>kindergarten-l</title>
    <desc>Created with Sketch.</desc>
    <defs>
        <circle id="path-1" cx="13.5" cy="13.5" r="12.5"></circle>
    </defs>
    <g id="POI" stroke="none" stroke-width="1" fill="none" fill-rule="evenodd" sketch:type="MSPage">
        <g id="kindergarten-l-copy" sketch:type="MSLayerGroup">
            <ellipse id="Oval-1-Copy-46" opacity="0" fill="#FFFFFF" sketch:type="MSShapeGroup" cx="13.5" cy="13.5" rx="13.5" ry="13.5"></ellipse>
            <g id="Oval-1-Copy-38">
                <use fill="#33332E" fill-rule="evenodd" sketch:type="MSShapeGroup" xlink:href="#path-1"></use>
                <use fill="none" xlink:href="#path-1"></use>
            </g>
            <g id="icons2-01" transform="translate(5.000000, 7.000000)" fill="#FFFFFF" opacity="0.7" sketch:type="MSShapeGroup">
                <path d="M16.4031178,8.51254099 C16.3324747,8.49406439 16.2610957,8.48371749 16.1875092,8.48371749 C15.8239916,8.48371749 15.5016824,8.73056492 15.405284,9.08309853 C15.1896754,9.87537531 14.8430827,10.6077879 14.3949406,11.2566862 C13.9394398,9.27895053 12.5863384,4.15700956 12.5863384,4.00919673 C12.5863384,3.62488336 12.8968737,3.3107811 13.2802596,3.3107811 C13.4568674,3.3107811 13.6165502,3.37803594 13.7401756,3.48520024 L14.3831667,4.45286156 C14.5053204,4.66497298 14.7356463,4.8068733 14.9998221,4.8068733 C15.3949819,4.8068733 15.7202345,4.48316319 15.7202345,4.08332948 L15.7165552,1.59859578 C15.6952151,1.59859578 15.6488556,1.59416139 15.6488556,1.59416139 C15.4177938,1.56164257 15.2389784,1.36135618 15.2389784,1.12116033 C15.2389784,1.01916948 15.2676772,0.926047392 15.3206595,0.84918472 L16.3567583,0.416093122 L12.9114355,0 C10.7744818,0 9.04372596,1.73901797 9.04372596,3.88452122 C9.04372596,4.12397801 9.06359433,4.82461084 9.10848213,5.05298166 L2.42240732,5.05298166 C2.12364589,5.05298166 1.88007438,5.29465564 1.88007438,5.59545476 C1.88007438,5.8955148 2.12364589,6.13792785 2.42240732,6.13792785 L3.94270564,6.13792785 L2.67333749,11.3505474 C2.19355312,10.677999 1.82046926,9.91602383 1.59382266,9.08457665 C1.49742427,8.73204305 1.17658687,8.48519562 0.812333395,8.48519562 C0.739482701,8.48519562 0.666632007,8.49554252 0.597460641,8.51401912 C0.388474811,8.57166613 0.214074665,8.70765393 0.106638288,8.89685436 C-0.000798089125,9.08605478 -0.0280251162,9.30555684 0.0293724003,9.514712 C1.07135808,13.3341956 4.55420995,16 8.49992128,16 C12.4463685,16 15.9284845,13.3327174 16.9704702,9.514712 C17.0286035,9.30407871 16.9999048,9.08457665 16.8932043,8.89537623 C16.7857679,8.7061758 16.6113678,8.57092706 16.4031178,8.51254099 Z M8.49992128,14.3688854 C6.80007175,14.3688854 5.20913033,13.7584184 3.95815882,12.7259458 C4.37392288,10.585616 6.24522909,8.96928265 8.49992128,8.96928265 C10.7546135,8.96928265 12.6259197,10.586355 13.0409479,12.7266848 C11.7914481,13.7584184 10.2005067,14.3688854 8.49992128,14.3688854 L8.49992128,14.3688854 Z" id="Shape"></path>
            </g>
        </g>
    </g>
</svg>