<?xml version="1.0" encoding="UTF-8" standalone="no"?>
<svg width="25px" height="25px" viewBox="0 0 25 25" version="1.1" xmlns="http://www.w3.org/2000/svg" xmlns:xlink="http://www.w3.org/1999/xlink" xmlns:sketch="http://www.bohemiancoding.com/sketch/ns">
    <!-- Generator: Sketch 3.4.2 (15857) - http://www.bohemiancoding.com/sketch -->
    <title>kindergarten-m</title>
    <desc>Created with Sketch.</desc>
    <defs>
        <circle id="path-1" cx="12.5" cy="12.5" r="11.5"></circle>
    </defs>
    <g id="POI" stroke="none" stroke-width="1" fill="none" fill-rule="evenodd" sketch:type="MSPage">
        <g id="kindergarten-m-copy" sketch:type="MSLayerGroup">
            <circle id="Oval-1-Copy-38" opacity="0" fill="#FFFFFF" sketch:type="MSShapeGroup" cx="12.5" cy="12.5" r="12.5"></circle>
            <g id="Oval-1-Copy-47">
                <use fill="#33332E" fill-rule="evenodd" sketch:type="MSShapeGroup" xlink:href="#path-1"></use>
                <use fill="none" xlink:href="#path-1"></use>
            </g>
            <path d="M19.4733392,14.5186499 C19.4110071,14.5024828 19.3480256,14.4934293 19.2830963,14.4934293 C18.9623455,14.4934293 18.6779551,14.7094208 18.5928977,15.0178877 C18.4026548,15.7111299 18.0968377,16.3519909 17.7014182,16.9197769 C17.2995057,15.1892582 16.2820633,10.7950599 16.2820633,10.6657236 C16.2820633,10.3294494 16.556065,10.05461 16.8943467,10.05461 C17.0501771,10.05461 17.1910737,10.1134579 17.300155,10.2072267 L17.7910295,11.0664304 C17.8988121,11.2520279 18.1020409,11.3761906 18.3351371,11.3761906 C18.6838076,11.3761906 18.9707952,11.0929443 18.9707952,10.7430898 L18.9675487,8.46894781 C18.9487192,8.46894781 18.5714799,7.88046797 18.618229,7.81321313 L19.7324338,7.23425798 L16.3924431,7.0701765 C14.5068957,7.0701765 12.9797582,8.59181722 12.9797582,10.4691326 C12.9797582,10.6786573 12.9972891,11.291711 13.036896,11.4915355 L7.13741822,11.4915355 C6.8738052,11.4915355 6.65888915,11.7030002 6.65888915,11.9661994 C6.65888915,12.228752 6.8738052,12.4408634 7.13741822,12.4408634 L8.47885792,12.4408634 L7.3588272,17.0019054 C6.93548805,16.4134256 6.60629641,15.7466974 6.40631411,15.0191811 C6.3212567,14.7107142 6.03816488,14.4947227 5.71676476,14.4947227 C5.65248474,14.4947227 5.58820471,14.5037762 5.52717115,14.5199432 C5.34277189,14.5703844 5.18888941,14.6893737 5.09409261,14.8549241 C4.9992958,15.0204744 4.97527196,15.2125387 5.02591682,15.3955495 C5.94531596,18.7375976 9.01842055,21.0701765 12.4999305,21.0701765 C15.9820898,21.0701765 19.0545451,18.7363043 19.9739443,15.3955495 C20.0252384,15.2112454 19.999916,15.0191811 19.9057685,14.8536307 C19.8109717,14.6880803 19.6570892,14.5697377 19.4733392,14.5186499 Z M12.4999305,19.6429512 C11.0000633,19.6429512 9.59629147,19.1087926 8.49249308,18.205379 C8.85934372,16.3325905 10.5104963,14.9182988 12.4999305,14.9182988 C14.4893648,14.9182988 16.1405174,16.3332371 16.5067187,18.2060257 C15.4042189,19.1087926 14.0004471,19.6429512 12.4999305,19.6429512 L12.4999305,19.6429512 Z" id="Shape" opacity="0.7" fill="#FFFFFF" sketch:type="MSShapeGroup"></path>
        </g>
    </g>
</svg>