<svg width="24" height="24" viewBox="0 0 24 24">
  <g fill="none" fill-rule="evenodd">
    <circle cx="12" cy="12" r="12" fill="#FFF" opacity=".4"/>
    <circle cx="12" cy="12" r="11" fill="#3D3C36"/>
    <path fill="#FFF" d="M17.5786714,12.3844057 C17.5288057,12.3705483 17.4784205,12.3627881 17.4264771,12.3627881 C17.1698764,12.3627881 16.9423641,12.5479237 16.8743181,12.8123239 C16.7221238,13.4065315 16.4774702,13.9558409 16.1611345,14.4425147 C15.8396045,12.9592129 15.0256506,9.19275717 15.0256506,9.08189755 C15.0256506,8.79366252 15.244852,8.55808582 15.5154774,8.55808582 C15.6401417,8.55808582 15.752859,8.60852695 15.840124,8.68890018 L16.2328236,9.42536046 C16.3190497,9.58444402 16.4816327,9.69086926 16.6681097,9.69086926 C16.9470461,9.69086926 17.1766361,9.44808668 17.1766361,9.1482114 L17.174039,7.19894683 C17.1589754,7.19894683 16.8571839,6.69453554 16.8945832,6.63688854 L17.785947,6.14064127 L15.1139545,6 C13.6055166,6 12.3838066,7.30426348 12.3838066,8.91339092 C12.3838066,9.09298351 12.3978313,9.61845813 12.4295168,9.78973625 L7.70993458,9.78973625 C7.49904416,9.78973625 7.32711132,9.97099173 7.32711132,10.1965911 C7.32711132,10.4216361 7.49904416,10.6034459 7.70993458,10.6034459 L8.78308634,10.6034459 L7.88706176,14.5129105 C7.54839044,14.0084992 7.28503713,13.4370179 7.12505129,12.8134325 C7.05700536,12.5490323 6.8305319,12.3638967 6.57341181,12.3638967 C6.52198779,12.3638967 6.47056377,12.3716569 6.42173692,12.3855143 C6.27421751,12.4287496 6.15111153,12.5307404 6.07527409,12.6726408 C5.99943664,12.8145411 5.98021757,12.9791676 6.02073346,13.136034 C6.75625277,16.0006467 9.21473644,18 11.9999444,18 C14.7856719,18 17.2436361,15.9995381 17.9791554,13.136034 C18.0201907,12.978059 17.9999328,12.8134325 17.9246148,12.6715322 C17.8487773,12.5296319 17.7256714,12.4281953 17.5786714,12.3844057 Z M11.9999444,16.776664 C10.8000506,16.776664 9.67703318,16.3188138 8.79399446,15.5444593 C9.08747498,13.939212 10.408397,12.726962 11.9999444,12.726962 C13.5914919,12.726962 14.9124139,13.9397663 15.205375,15.5450136 C14.3233751,16.3188138 13.2003577,16.776664 11.9999444,16.776664 L11.9999444,16.776664 Z" opacity=".6"/>
  </g>
</svg>
