<?xml version="1.0" encoding="UTF-8" standalone="no"?>
<svg width="27px" height="27px" viewBox="0 0 27 27" version="1.1" xmlns="http://www.w3.org/2000/svg" xmlns:xlink="http://www.w3.org/1999/xlink" xmlns:sketch="http://www.bohemiancoding.com/sketch/ns">
    <!-- Generator: Sketch 3.4.2 (15857) - http://www.bohemiancoding.com/sketch -->
    <title>laundry-l</title>
    <desc>Created with Sketch.</desc>
    <defs>
        <path id="path-1" d="M26,13.5 C26,20.403 20.403,26 13.5,26 C6.597,26 1,20.403 1,13.5 C1,6.597 6.597,1 13.5,1 C20.403,1 26,6.597 26,13.5 L26,13.5 Z"></path>
    </defs>
    <g id="POI" stroke="none" stroke-width="1" fill="none" fill-rule="evenodd" sketch:type="MSPage">
        <g id="Layer_2" sketch:type="MSLayerGroup">
            <path d="M13.5,27 C6.056,27 0,20.944 0,13.5 C0,6.056 6.056,0 13.5,0 C20.944,0 27,6.056 27,13.5 C27,20.944 20.944,27 13.5,27 L13.5,27 Z" id="Shape" opacity="0" fill="#FFFFFF" sketch:type="MSShapeGroup"></path>
            <g id="Shape">
                <use fill="#33332E" fill-rule="evenodd" sketch:type="MSShapeGroup" xlink:href="#path-1"></use>
                <use fill="none" xlink:href="#path-1"></use>
            </g>
        </g>
        <g id="Layer_1" sketch:type="MSLayerGroup" transform="translate(7.000000, 5.000000)" fill="#FFFFFF" opacity="0.7">
            <path d="M4.051,10 C4.018,10.162 4,10.329 4,10.5 C4,11.878 5.121,13 6.5,13 C7.879,13 9,11.878 9,10.5 C9,10.329 8.982,10.162 8.949,10 L4.051,10 L4.051,10 Z M11,0 L2,0 C0.9,0 0,0.9 0,2 L0,15 C0,16.1 0.9,17 2,17 L11,17 C12.1,17 13,16.1 13,15 L13,2 C13,0.9 12.1,0 11,0 L11,0 Z M6,1.8 C6.662,1.8 7.2,2.339 7.2,3 C7.2,3.661 6.662,4.2 6,4.2 C5.338,4.2 4.8,3.662 4.8,3 C4.8,2.338 5.338,1.8 6,1.8 L6,1.8 Z M3,1.8 C3.662,1.8 4.2,2.339 4.2,3 C4.2,3.661 3.662,4.2 3,4.2 C2.338,4.2 1.8,3.662 1.8,3 C1.8,2.338 2.338,1.8 3,1.8 L3,1.8 Z M6.5,15.2 C3.908,15.2 1.8,13.092 1.8,10.5 C1.8,7.908 3.908,5.8 6.5,5.8 C9.092,5.8 11.2,7.908 11.2,10.5 C11.2,13.092 9.092,15.2 6.5,15.2 L6.5,15.2 Z" id="Shape" sketch:type="MSShapeGroup"></path>
        </g>
    </g>
</svg>