<svg width="24" height="24" viewBox="0 0 24 24">
  <g fill="none" fill-rule="evenodd">
    <circle cx="12" cy="12" r="12" fill="#FFF" opacity=".4"/>
    <circle cx="12" cy="12" r="11" fill="#3D3C36"/>
    <path fill="#FFF" d="M15.2,6 L8.8,6 C8.36,6 8,6.41538462 8,6.92307692 L8,17.0769231 C8,17.5846154 8.36,18 8.8,18 L15.2,18 C15.64,18 16,17.5846154 16,17.0769231 L16,6.92307692 C16,6.41538462 15.64,6 15.2,6 L15.2,6 Z M8.88888889,7.84615385 L11.5555556,7.84615385 L11.5555556,8.76923077 L8.88888889,8.76923077 L8.88888889,7.84615385 L8.88888889,7.84615385 Z M12,16.1538462 C10.5291667,16.1538462 9.33333333,14.9111538 9.33333333,13.3846154 C9.33333333,11.8580769 10.53,10.6153846 12,10.6153846 C13.47,10.6153846 14.6666667,11.8580769 14.6666667,13.3846154 C14.6666667,14.9111538 13.4708333,16.1538462 12,16.1538462 L12,16.1538462 Z M12,15.2307692 C12.7348148,15.2307692 13.3333333,14.8169231 13.3333333,14.3076923 L10.6666667,14.3076923 C10.6666667,14.8169231 11.2651852,15.2307692 12,15.2307692 L12,15.2307692 Z" opacity=".6"/>
  </g>
</svg>
