<?xml version="1.0" encoding="UTF-8"?>
<svg width="24px" height="24px" viewBox="0 0 24 24" version="1.1" xmlns="http://www.w3.org/2000/svg" xmlns:xlink="http://www.w3.org/1999/xlink">
    <title>library-m</title>
    <g id="Page-2:-Night" stroke="none" stroke-width="1" fill="none" fill-rule="evenodd" opacity="0.6">
        <g id="library-m" fill-rule="nonzero">
            <circle id="Oval" fill="#FFFFFF" cx="12" cy="12" r="12"></circle>
            <circle id="Oval" fill="#717065" cx="12" cy="12" r="11"></circle>
            <path d="M12.2331327,11.6140463 C10.9726547,10.4366768 9.37974305,9.61251818 7.60676309,9.29393584 C6.76875303,9.14849608 6,9.81336356 6,10.665225 L6,14.9868637 C6,16.1503818 6.49865061,16.7598436 7.18429521,16.8498778 C8.91572095,17.0715003 10.4878555,17.7848477 11.7760363,18.8375545 C12.0184359,19.0383999 12.413201,19.059177 12.6556006,18.8652573 C13.950707,17.8056248 15.536693,17.078426 17.2819701,16.8568035 C17.9329862,16.7667693 18.4662653,16.122679 18.4662653,15.4578115 L18.4662653,10.665225 C18.4662653,9.81336356 17.6975123,9.14849608 16.8595023,9.29393584 C15.0865223,9.61251818 13.4936106,10.4366768 12.2331327,11.6140463 L12.2331327,11.6140463 Z M12.2331327,9.15542178 C13.3827994,9.15542178 14.3108436,8.22737758 14.3108436,7.07771089 C14.3108436,5.9280442 13.3827994,5 12.2331327,5 C11.083466,5 10.1554218,5.9280442 10.1554218,7.07771089 C10.1554218,8.22737758 11.083466,9.15542178 12.2331327,9.15542178 Z" id="Shape" fill="#FFFFFF"></path>
        </g>
    </g>
</svg>