<svg version="1.1" viewBox="0 0 24 24" xmlns="http://www.w3.org/2000/svg">
 <title>lift_gate-m</title>
 <g id="Page-2:-Night" fill="none" fill-rule="evenodd" opacity=".6">
  <g id="lift_gate-m" fill-rule="nonzero">
   <g id="gate" transform="translate(5 7)" fill="#FFF">
    <path id="Shape" d="m4.2292 10.5h-3.2083c-0.56292 0-1.0208-0.45792-1.0208-1.0208v-0.58333c0-0.56292 0.45792-1.0208 1.0208-1.0208h3.2083c0.56292 0 1.0208 0.45792 1.0208 1.0208v0.58333c0 0.56292-0.45792 1.0208-1.0208 1.0208zm-3.2083-1.75c-0.0805 0-0.14583 0.065333-0.14583 0.14583v0.58333c0 0.0805 0.065333 0.14583 0.14583 0.14583h3.2083c0.0805 0 0.14583-0.065333 0.14583-0.14583v-0.58333c0-0.0805-0.065333-0.14583-0.14583-0.14583h-3.2083z"/>
    <path id="Path" d="m3.6458 8.6042c-0.2415 0-0.4375-0.196-0.4375-0.4375v-6.7083c0-0.32142-0.26192-0.58333-0.58333-0.58333s-0.58333 0.26192-0.58333 0.58333v6.7083c0 0.2415-0.196 0.4375-0.4375 0.4375s-0.4375-0.196-0.4375-0.4375v-6.7083c0-0.80383 0.6545-1.4583 1.4583-1.4583s1.4583 0.6545 1.4583 1.4583v6.7083c0 0.2415-0.196 0.4375-0.4375 0.4375z"/>
    <path id="Path" d="m12.979 5.25h-9.0417c-0.2415 0-0.4375-0.196-0.4375-0.4375s0.196-0.4375 0.4375-0.4375h9.0417c0.0805 0 0.14583-0.065333 0.14583-0.14583v-1.4583c0-0.0805-0.065333-0.14583-0.14583-0.14583h-9.0417c-0.2415 0-0.4375-0.196-0.4375-0.4375s0.196-0.4375 0.4375-0.4375h9.0417c0.56292 0 1.0208 0.45792 1.0208 1.0208v1.4583c0 0.56292-0.45792 1.0208-1.0208 1.0208z"/>
    <path id="Path" d="m10.792 5.25c-0.083417 0-0.168-0.023917-0.24267-0.0735-0.20125-0.13417-0.2555-0.40542-0.12133-0.60667l1.75-2.625c0.13417-0.20125 0.406-0.2555 0.60667-0.12133 0.20125 0.13417 0.2555 0.40542 0.12133 0.60667l-1.75 2.625c-0.084583 0.12658-0.22283 0.19483-0.364 0.19483z"/>
    <path id="Path" d="m8.4583 5.25c-0.083417 0-0.168-0.023917-0.24267-0.0735-0.20125-0.13417-0.2555-0.40542-0.12133-0.60667l1.75-2.625c0.13417-0.20125 0.406-0.2555 0.60667-0.12133 0.20125 0.13417 0.2555 0.40542 0.12133 0.60667l-1.75 2.625c-0.084583 0.12658-0.22283 0.19483-0.364 0.19483z"/>
    <path id="Path" d="m6.125 5.25c-0.083417 0-0.168-0.023917-0.24267-0.0735-0.20125-0.13417-0.2555-0.40542-0.12133-0.60667l1.75-2.625c0.13417-0.20125 0.40542-0.2555 0.60667-0.12133s0.2555 0.40542 0.12133 0.60667l-1.75 2.625c-0.084583 0.12658-0.22283 0.19483-0.364 0.19483z"/>
    <path id="Path" d="m3.7917 5.25c-0.083417 0-0.168-0.023917-0.24267-0.0735-0.20125-0.13417-0.2555-0.40542-0.12133-0.60667l1.75-2.625c0.13417-0.20125 0.40542-0.2555 0.60667-0.12133s0.2555 0.40542 0.12133 0.60667l-1.75 2.625c-0.084583 0.12658-0.22283 0.19483-0.364 0.19483z"/>
   </g>
  </g>
 </g>
</svg>
