<svg width="28" height="28" viewBox="0 0 28 28">
  <g fill="#FFF" fill-rule="evenodd">
    <circle cx="14" cy="14" r="14" opacity=".1"/>
    <path fill-rule="nonzero" d="M22.2,9.625 L12.4519685,9.625 C12.1212598,8.68134843 11.2425197,8 10.2,8 C8.87401575,8 7.8,9.09079724 7.8,10.4375 L7.8,19.375 L7,19.375 L7,21 L13.4,21 L13.4,19.375 L12.6,19.375 L12.6,11.25 L22.2,11.25 C22.6409449,11.25 23,10.8853346 23,10.4375 C23,9.98646654 22.6409449,9.625 22.2,9.625 Z M10.2,9.625 C10.6409449,9.625 11,9.98966535 11,10.4375 C11,10.8853346 10.6409449,11.25 10.2,11.25 C9.75905512,11.25 9.4,10.8853346 9.4,10.4375 C9.4,9.98966535 9.75905512,9.625 10.2,9.625 Z" opacity=".6"/>
  </g>
</svg>
