<svg version="1.1" viewBox="0 0 16 16" xmlns="http://www.w3.org/2000/svg">
 <title>lighthouse-s</title>
 <g id="Page-2:-Night" fill="none" fill-rule="evenodd" opacity=".6">
  <g id="lighthouse-s" fill-rule="nonzero">
   <circle id="Oval" cx="8" cy="8" r="8" fill="#fff"/>
   <circle id="Oval" cx="8" cy="8" r="7.3333" fill="#717065"/>
   <path id="Shape" d="m5.5803 9.3687 0.35901-2.8919h2.2834l0.14292 1.1512-2.7854 1.7407zm3.672 2.8118h-0.32372c3.241e-5 -0.0018149 2.5926e-4 -0.0035973 2.5926e-4 -0.0054121 0-0.01643-0.0016204-0.032505-0.0047315-0.047995l-0.40402-3.2546-3.1041 1.9399c-0.0051852 0.0032408-0.01063 0.0056713-0.015944 0.0084584l-0.1644 1.3243c-0.0014583 0.011829-0.00175 0.023625-0.0014583 0.035356h-0.32446c-0.13426 0-0.24306 0.10879-0.24306 0.24306s0.10879 0.24306 0.24306 0.24306h4.3426c0.13426 0 0.24306-0.10879 0.24306-0.24306s-0.10879-0.24309-0.24302-0.24309zm-0.97222-6.6111h-0.16998l-0.050556-0.38889h-0.80571c-0.023852 0-0.046602-0.012931-0.067278-0.021681-0.020676-0.00875-0.03931-0.02544-0.054931-0.041093-0.023463-0.023463-0.045597-0.055644-0.0525-0.089412-0.0023009-0.011245-0.008912-0.023917-0.008912-0.035843v-0.0010046-0.18903c0-0.011926 0.0066111-0.023593 0.008912-0.034838 0.011505-0.056259 0.053051-0.10257 0.10474-0.12441 0.020676-0.00875 0.046116-0.013579 0.069968-0.013579h0.73895l-0.038824-0.31105c0.086917-0.037042 0.14784-0.12321 0.14784-0.22368 0-0.12772-0.098551-0.2322-0.22371-0.24208-0.10707-0.30761-0.40059-0.51952-0.73915-0.51952h-0.11589c-0.33824 0-0.63146 0.21149-0.73879 0.51852h-0.013449c-0.13426 0-0.24306 0.10879-0.24306 0.24306 0 0.11203 0.075866 0.20608 0.17895 0.23424l-0.15478 1.2403h-0.20242c-0.13426 0-0.24306 0.10879-0.24306 0.24306 0 0.070519 0.030204 0.13384 0.078199 0.17824h2.7603c0.047963-0.044398 0.078199-0.10772 0.078199-0.17824 0-0.13426-0.10882-0.24306-0.24306-0.24306zm3.2132-1.3789c-0.05506-0.046245-0.12512-0.065657-0.19587-0.053083l-2.9801 0.52831c-0.11605 0.020579-0.19999 0.12143-0.19999 0.23933s0.08494 0.21875 0.20099 0.23933l2.9816 0.52831c0.01413 0.0024954 0.028389 0.0037268 0.042486 0.0037268 0.056648 0 0.10672-0.019801 0.15079-0.05681 0.055093-0.046181 0.081537-0.11437 0.081537-0.18625v-1.0566c0-0.07188-0.026347-0.14006-0.081472-0.18625z" fill="#fff"/>
  </g>
 </g>
</svg>
