<svg width="21" height="21" viewBox="0 0 21 21">
  <g fill="none" fill-rule="evenodd">
    <circle cx="10.5" cy="10.5" r="10.5" fill="#FFF" opacity=".6"/>
    <path fill="#003D1D" d="M10.4942943,19.9763784 C5.27357357,19.9763784 1.02858559,15.7313904 1.02858559,10.5106126 C1.02858559,5.28989189 5.27357357,1.04484685 10.4942943,1.04484685 C15.7150721,1.04484685 19.9601171,5.28989189 19.9601171,10.5106126 C19.9602312,15.7313904 15.7150721,19.9763784 10.4942943,19.9763784 L10.4942943,19.9763784 Z"/>
    <path fill="#FFF" d="M8.0978979,6.31691892 C8.0978979,5.4952973 8.85105105,4.7934955 10.1691261,4.7934955 C12.4970541,4.7934955 14.4826396,6.04304505 15.8006577,7.46376577 L15.8006577,4.98178378 C14.2772342,3.8007027 12.3600601,3.0989009 10.2204204,3.0989009 C7.65285285,3.0989009 4.79429429,4.67373273 4.79429429,7.6007027 C4.79429429,13.1809399 13.2672673,11.1782372 13.2672673,14.4133153 C13.2672673,15.2691712 12.1375946,16.0737327 10.733991,16.0737327 C8.4402973,16.0737327 6.16372072,14.6872462 4.91417117,12.8899489 L4.91417117,15.8682703 C6.23218919,17.0493514 8.6457027,17.9907928 10.733991,17.9907928 C14.4826396,17.9907928 16.7079219,15.3204655 16.7079219,13.0267718 C16.707979,7.34394595 8.0978979,9.77446246 8.0978979,6.31691892 L8.0978979,6.31691892 Z" opacity=".6"/>
  </g>
</svg>
