<?xml version="1.0" encoding="UTF-8" standalone="no"?>
<svg width="27px" height="27px" viewBox="0 0 27 27" version="1.1" xmlns="http://www.w3.org/2000/svg" xmlns:xlink="http://www.w3.org/1999/xlink">
    <!-- Generator: Sketch 3.8.3 (29802) - http://www.bohemiancoding.com/sketch -->
    <title>lighthouse-l</title>
    <desc>Created with Sketch.</desc>
    <defs></defs>
    <g id="POI-NIght" stroke="none" stroke-width="1" fill="none" fill-rule="evenodd">
        <g id="lighthouse-l">
            <circle id="Oval-1-Copy-39" fill-opacity="0.1" fill="#FFFFFF" cx="13.5" cy="13.5" r="13.5"></circle>
            <circle id="Oval-1-Copy-38" fill="#252522" cx="13.5" cy="13.5" r="12.5"></circle>
            <path d="M12.5,5 L13.5,4 L14.5,5 L15.5023012,5 C15.7771727,5 16,5.23193359 16,5.5 L16,6 L14.9273899,6 C15.0014064,6.30394422 15,6.5 15,6.5 L15,10 L16,10 L16,12 L15,13 L15,14 L17,23 L10,23 L12,14 L12,13 L11,12 L11,10 L12,10 L12,6.5 C12,6.5 11.9961748,6.30451404 12.0697134,6 L11,6 L11,5.5 C11,5.22385763 11.2148438,5 11.4976988,5 L12.5,5 Z M13.5,7 C13.7761424,7 14,7.2157526 14,7.49538898 L14,10 L13,10 L13,7.49538898 C13,7.2217932 13.2319336,7 13.5,7 Z M16,7 L22,5 L17,8.02587891 L24,12 L16,9 L16,7 Z M11,7 L5,5 L10,8.02587891 L3,12 L11,9 L11,7 Z" id="Combined-Shape" fill-opacity="0.7" fill="#FFFFFF"></path>
        </g>
    </g>
</svg>