<svg height="24" viewBox="0 0 24 24" width="24"><g fill="none" fill-rule="evenodd"><circle cx="12" cy="12" fill="#fff" opacity=".4" r="12"/><circle cx="12" cy="12" fill="#3d3d36" r="11"/><path d="m12.6315789 5.93333333h.631579l.8421053.93333334h-.8421053v2.8h.8421053v.93333333l-.8421053.9333333 1.6842105 7.4666667h-5.89473682l1.68421072-7.4666667-.84210546-.9333333v-.93333333h.84210546v-2.8h-.84210546l.84210526-.93333334h.631579l.6315789-.93333333zm-.6315789.93333334.4210526.93333333v.02722982 1.83943685h-.8421052v-1.86666667zm2.1052632.93333333 4.2105263-.93333333-3.3684211 1.4 5.0526316 3.26666663-5.8947368-2.79999997zm-4.21052636 0v.93333333l-5.89473684 2.79999997 5.05263158-3.26666663-3.36842105-1.4z" fill="#fff" opacity=".6"/></g></svg>