<?xml version="1.0" encoding="UTF-8"?>
<svg width="24px" height="24px" viewBox="0 0 24 24" version="1.1" xmlns="http://www.w3.org/2000/svg" xmlns:xlink="http://www.w3.org/1999/xlink">
    <title>lighthouse-m</title>
    <g id="Page-2:-Night" stroke="none" stroke-width="1" fill="none" fill-rule="evenodd" opacity="0.6">
        <g id="lighthouse-m" fill-rule="nonzero">
            <circle id="Oval" fill="#FFFFFF" cx="12" cy="12" r="12"></circle>
            <circle id="Oval" fill="#717065" cx="12" cy="12" r="11"></circle>
            <path d="M8.37049306,14.0530903 L8.90900694,9.71527778 L12.3341458,9.71527778 L12.5485208,11.4420417 L8.37049306,14.0530903 Z M13.8785208,18.2708333 L13.3929444,18.2708333 C13.3929931,18.2681111 13.3933333,18.2654375 13.3933333,18.2627153 C13.3933333,18.2380694 13.3909028,18.2139583 13.3862361,18.1907222 L12.7802014,13.3087569 L8.12398611,16.2186667 C8.11620833,16.2235278 8.10804167,16.2271736 8.10006944,16.2313542 L7.85346528,18.2178472 C7.85127778,18.2355903 7.85084028,18.2532847 7.85127778,18.2708819 L7.36458333,18.2708819 C7.1631875,18.2708819 7,18.4340694 7,18.6354653 C7,18.8368611 7.1631875,19.0000486 7.36458333,19.0000486 L13.8784722,19.0000486 C14.0798681,19.0000486 14.2430556,18.8368611 14.2430556,18.6354653 C14.2430556,18.4340694 14.0798681,18.2708333 13.8785208,18.2708333 Z M12.4201875,8.35416667 L12.1652222,8.35416667 L12.0893889,7.77083333 L10.8808194,7.77083333 C10.8450417,7.77083333 10.8109167,7.7514375 10.7799028,7.7383125 C10.7488889,7.7251875 10.7209375,7.70015278 10.6975069,7.67667361 C10.6623125,7.64147917 10.6291111,7.59320833 10.6187569,7.54255556 C10.6153056,7.5256875 10.6053889,7.50668056 10.6053889,7.48879167 L10.6053889,7.48728472 L10.6053889,7.20373611 L10.6053889,7.20373611 C10.6053889,7.18584722 10.6153056,7.16834722 10.6187569,7.15147917 C10.6360139,7.06709028 10.6983333,6.997625 10.7758681,6.96486111 C10.8068819,6.95173611 10.8450417,6.94449306 10.8808194,6.94449306 L11.98925,6.94449306 L11.9310139,6.47792361 C12.0613889,6.42236111 12.1527778,6.29310417 12.1527778,6.14240972 C12.1527778,5.95083333 12.0049514,5.79411111 11.8172153,5.77928472 C11.6566042,5.31786806 11.2163333,5 10.7084931,5 L10.5346597,5 C10.0273056,5 9.58747222,5.31723611 9.42647222,5.77777778 L9.40629861,5.77777778 C9.20490278,5.77777778 9.04171528,5.94096528 9.04171528,6.14236111 C9.04171528,6.31040972 9.15551389,6.45147917 9.31014583,6.49372222 L9.07797917,8.35416667 L8.77435417,8.35416667 C8.57295833,8.35416667 8.40977083,8.51735417 8.40977083,8.71875 C8.40977083,8.82452778 8.45507639,8.91951389 8.52706944,8.98611111 L12.6674722,8.98611111 C12.7394167,8.91951389 12.7847708,8.82452778 12.7847708,8.71875 C12.7847708,8.51735417 12.6215347,8.35416667 12.4201875,8.35416667 Z M17.2400278,6.2858125 C17.1574375,6.21644444 17.0523403,6.18732639 16.9462222,6.2061875 L12.4760417,6.99864583 C12.3019653,7.02951389 12.1760625,7.18079167 12.1760625,7.35763889 C12.1760625,7.53448611 12.3034722,7.68576389 12.4775486,7.71663194 L16.9500139,8.50909028 C16.9712083,8.51283333 16.9925972,8.51468056 17.0137431,8.51468056 C17.0987153,8.51468056 17.1738194,8.48497917 17.2399306,8.42946528 C17.3225694,8.36019444 17.3622362,8.25791667 17.3622362,8.15009722 L17.3622362,6.56518056 C17.3622362,6.45736111 17.3227153,6.35508333 17.2400278,6.2858125 Z" id="Shape" fill="#FFFFFF"></path>
        </g>
    </g>
</svg>