<?xml version="1.0" encoding="UTF-8"?>
<svg version="1.1" viewBox="0 0 24 24" xml:space="preserve" xmlns="http://www.w3.org/2000/svg"><circle cx="12" cy="12" r="12" fill="#000" opacity=".6"/><circle cx="12" cy="12" r="11" fill="#bb9342"/><path d="m12 3.1699c-0.3174 0-0.57422 0.25681-0.57422 0.57422v1.7227c0 0.31623 0.25681 0.57418 0.57422 0.57422 0.3174 0 0.57422-0.25795 0.57422-0.57422v-1.7227c0-0.31741-0.25681-0.57422-0.57422-0.57422zm-3.9805 1.0781c-0.11028-0.0078801-0.22399 0.016417-0.32617 0.076172-0.27465 0.15817-0.36903 0.50961-0.21094 0.7832l0.86133 1.4883c0.1066 0.184 0.29958 0.28711 0.49805 0.28711 0.097432 0 0.19537-0.024482 0.28516-0.076172 0.2759-0.15916 0.37017-0.50925 0.21094-0.78516l-0.85938-1.4883c-0.10023-0.171-0.27519-0.27202-0.45898-0.28516zm7.9609 0.0019531c-0.18391 0.01296-0.36024 0.11221-0.45898 0.2832l-0.85938 1.4922c-0.15923 0.27484-0.06567 0.6271 0.20898 0.78516 0.09084 0.052598 0.18956 0.076172 0.28711 0.076172 0.19744 0 0.3906-0.10323 0.49609-0.28711l0.86133-1.4922c0.15923-0.27359 0.065669-0.62503-0.20898-0.7832-0.10265-0.05842-0.21582-0.081994-0.32617-0.074219zm-3.9805 2.3652c-2.854 0-5.168 2.3139-5.168 5.168 0 2.0241 1.1754 3.7575 2.8711 4.6055v2.8574c0 0.63485 0.51359 1.1484 1.1484 1.1484 0 0.63481 0.5137 1.1484 1.1484 1.1484 0.63481 0 1.1484-0.51363 1.1484-1.1484 0.63466 0 1.1484-0.51359 1.1484-1.1484v-2.8574c1.6957-0.84797 2.8711-2.5814 2.8711-4.6055 7.5e-5 -2.8541-2.3138-5.168-5.168-5.168zm-7.002 0.57422c-0.18389 0.013194-0.35822 0.11536-0.45703 0.28711-0.15817 0.2748-0.06457 0.62581 0.20898 0.78516l1.4941 0.86133c0.090731 0.052749 0.18956 0.076172 0.28711 0.076172 0.19846 0 0.39149-0.1033 0.49805-0.28711 0.15935-0.27481 0.064927-0.62511-0.21094-0.7832l-1.4922-0.86328c-0.10265-0.059741-0.21779-0.084088-0.32812-0.076172zm14.004 0c-0.1104-0.00771-0.22318 0.017298-0.32617 0.076172l-1.4941 0.86133c-0.27462 0.15821-0.36822 0.51156-0.20898 0.78516 0.1055 0.18506 0.29869 0.28711 0.49609 0.28711 0.09755 0 0.19627-0.024558 0.28711-0.076172l1.4941-0.86133c0.27462-0.15916 0.36822-0.51035 0.20898-0.78516-0.098194-0.17244-0.27303-0.27425-0.45703-0.28711zm-6.1602 0.57227a0.6 0.6 0 0 1 0.15625 0.00977s0.72294 0.13839 1.4551 0.61914 1.5269 1.3816 1.5781 2.7539a0.6 0.6 0 0 1-0.57812 0.62305 0.6 0.6 0 0 1-0.62109-0.57812c-0.03557-0.95261-0.51643-1.455-1.0371-1.7969-0.52068-0.3419-1.0293-0.44336-1.0293-0.44336a0.6 0.6 0 0 1-0.47266-0.70508 0.6 0.6 0 0 1 0.54883-0.48242zm-8.8809 3.4473c-0.31752 0-0.57422 0.25681-0.57422 0.57422 0 0.31733 0.25674 0.57227 0.57422 0.57227h1.7227c0.31627 0 0.57426-0.25494 0.57422-0.57227 0-0.31744-0.25795-0.57422-0.57422-0.57422zm14.355 0c-0.3174 0-0.57422 0.25681-0.57422 0.57422 0 0.31733 0.25681 0.57227 0.57422 0.57227h1.7227c0.31722 0 0.57422-0.25497 0.57422-0.57227 0-0.3174-0.257-0.57418-0.57422-0.57422zm-11.746 3.1582c-0.11019-0.0077-0.22397 0.01599-0.32617 0.07617l-1.4941 0.86133c-0.27359 0.15798-0.36716 0.50836-0.20898 0.7832 0.10656 0.18392 0.29958 0.28711 0.49805 0.28711 0.09766 0 0.19733-0.0235 0.28711-0.07617l1.4922-0.86133c0.27484-0.15836 0.36822-0.51035 0.20898-0.78516-0.099568-0.17175-0.27339-0.27228-0.45703-0.28516zm10.859 0c-0.18384 0.01303-0.36001 0.11407-0.45898 0.28516-0.15904 0.27484-0.06406 0.62518 0.21094 0.7832l1.4941 0.86328c0.09084 0.05267 0.18956 0.07617 0.28711 0.07617 0.1974 0 0.39056-0.10319 0.49609-0.28711 0.15923-0.2748 0.06563-0.62522-0.20898-0.7832l-1.4941-0.86328c-0.10258-0.05926-0.21586-0.08203-0.32617-0.07422zm-6.5781 3.0273h2.2969v1.8516h-2.2969z" fill="#000"/></svg>
