<?xml version="1.0" encoding="UTF-8" standalone="no"?>
<svg width="21px" height="21px" viewBox="0 0 21 21" version="1.1" xmlns="http://www.w3.org/2000/svg" xmlns:xlink="http://www.w3.org/1999/xlink" xmlns:sketch="http://www.bohemiancoding.com/sketch/ns">
    <!-- Generator: Sketch 3.3.3 (12072) - http://www.bohemiancoding.com/sketch -->
    <title>lighthouse-m</title>
    <desc>Created with Sketch.</desc>
    <defs></defs>
    <g id="POI" stroke="none" stroke-width="1" fill="none" fill-rule="evenodd" sketch:type="MSPage">
        <g id="phone-l" sketch:type="MSLayerGroup" transform="translate(-38.000000, -114.000000)">
            <g id="lighthouse-m" transform="translate(37.000000, 113.000000)" sketch:type="MSShapeGroup">
                <ellipse id="Oval-1-Copy-41" opacity="0" fill="#FFFFFF" cx="11.5" cy="11.5" rx="11.5" ry="11.5"></ellipse>
                <ellipse id="Oval-1-Copy-40" fill="#3D3D37" cx="11.5" cy="11.5" rx="10.5" ry="10.5"></ellipse>
                <path d="M10,10 L9,17 C8.44599,17 8,17.446 8,18 L8,19 L15,19 L15,18 C15,17.446 14.55401,17 14,17 L13,10 L10,10 Z M20,7 L20,11 L14,9 L20,7 Z M3,7 L3,11 L9,9 L3,7 Z M11.5,6 L14,8 L9,8 L11.5,6 Z" id="path11719-copy" opacity="0.4" fill="#FFFFFF"></path>
            </g>
        </g>
    </g>
</svg>