<?xml version="1.0" encoding="UTF-8"?>
<svg version="1.1" viewBox="0 0 24 24" xmlns="http://www.w3.org/2000/svg">
	<title>locomotive-m</title>
	<path d="m13.789 8.0953h5.6461v7.5849h-0.99317q-0.19047-0.67345-0.75508-1.1156-0.56461-0.44216-1.2857-0.44216-0.63264 0-1.1768 0.36054-0.5442 0.36053-0.7959 0.99317h0.13605q0.21769-0.5238 0.71427-0.87073 0.49658-0.34694 1.1224-0.34694 0.72787 0 1.2857 0.47618 0.55781 0.47618 0.66665 1.1905h1.0816v1.1768h-1.2449q-0.2517 0.51699-0.73468 0.82311-0.48298 0.30612-1.0544 0.30612-0.58502 0-1.0646-0.30612-0.47958-0.30612-0.73128-0.82311h-0.38774q-0.2517 0.51699-0.73468 0.82311-0.48298 0.30612-1.0544 0.30612-0.57822 0-1.0578-0.30952-0.47957-0.30952-0.73126-0.8197h-0.40816q-0.09528 0.48298-0.48298 0.8061-0.38775 0.32312-0.89114 0.32312-0.50339 0-0.89114-0.31972-0.38774-0.31972-0.48299-0.8095h-0.027208v1.0952h-3.6666v-0.76188h0.51019l1.1836-1.7551h0.36734q0.32653-0.2381 0.54421-0.88773 0.21767-0.64965 0.21767-1.5204 0-0.82311-0.21087-1.483-0.21089-0.65985-0.55102-0.92515h0.60543l-1.0272-3.3196h3.9183l-1.0204 3.3196q0.38094 0.35373 0.59182 0.95576 0.21088 0.60202 0.21088 1.4387 0 0.72787-0.16326 1.2959-0.16326 0.56801-0.44216 0.91494l0.16326-0.02721q0.081624-0.01365 0.17006-0.01365h0.013654q0.23809-0.33332 0.38094-0.89454 0.14286-0.56121 0.14286-1.2551 0-0.87073-0.21768-1.5204-0.21768-0.64965-0.5442-0.88773h0.70066v-0.81631q0-0.2721 0.23129-0.45917 0.23129-0.18707 0.5374-0.18707 0.31292 0 0.5442 0.18707 0.23129 0.18707 0.23129 0.45917v0.81631h0.39454v-1.2925q0-0.2585 0.23129-0.44557 0.23129-0.18706 0.5374-0.18706 0.34013 0 0.55441 0.19387 0.21428 0.19387 0.21428 0.43876v1.2925h0.97957t0-2.7754zm2.6258 3.8162q0 0.15646 0.10544 0.2585 0.10544 0.10204 0.2551 0.10204h1.6122q0.15646 0 0.2585-0.10204 0.10204-0.10204 0.10204-0.2585v-2.7822q0-0.14966-0.10204-0.2551-0.10204-0.10544-0.2585-0.10544h-1.6122q-0.14965 0-0.2551 0.10544-0.10544 0.10544-0.10544 0.2551 0 0 0 2.7822zm3.7958-4.9727v0.89113h-7.1903v-0.89113h7.1903zm-14.728 4.0611q0.31973 0 0.58843 0.67006 0.26871 0.67005 0.26871 1.602 0 0.94555-0.26871 1.6122-0.2687 0.66665-0.58843 0.66665-0.31972 0-0.58843-0.66665-0.2687-0.66666-0.2687-1.6122 0-0.93195 0.2687-1.602 0.26871-0.67006 0.58843-0.67006zm8.1699 5.3536h-0.7823q-0.13605 0-0.23468-0.09859-0.09864-0.09869-0.09864-0.23469 0-0.13605 0.09864-0.23128 0.09863-0.09528 0.23468-0.09528h0.65305q-0.15646-0.30612-0.44217-0.49319-0.28571-0.18707-0.65305-0.18707-0.51019 0-0.87073 0.36393-0.36053 0.36394-0.36053 0.86733 0 0.51018 0.36053 0.87073 0.36054 0.36053 0.87073 0.36053 0.46938 0 0.82651-0.32652 0.35714-0.32653 0.39795-0.7959zm1.6598-0.65985h0.84352q0.13605 0 0.23129 0.09528 0.09524 0.09528 0.09524 0.23128 0 0.13605-0.09524 0.23469-0.09524 0.09859-0.23129 0.09859h-0.97277q0.04081 0.48298 0.39794 0.8027 0.35714 0.31972 0.82651 0.31972 0.51019 0 0.86733-0.36393 0.35713-0.36393 0.35713-0.86732 0-0.50339-0.35713-0.86733-0.35714-0.36393-0.86733-0.36393-0.36734 0-0.65304 0.18707-0.28571 0.18707-0.44217 0.49319zm-6.0203-9.0202h-3.8162l0.38776-0.90474h3.0271s0.40134 0.90474 0.40134 0.90474zm-4.1632 0.2653h4.5237v0.34012h-4.5237v-0.34012zm9.2719 8.5372q-0.24488-0.61904-0.78909-0.98638-0.54421-0.36734-1.1836-0.36734-0.73468 0-1.2993 0.44897-0.56461 0.44897-0.74147 1.1088h-0.73468q0.0748 0.05442 0.13945 0.11224 0.06466 0.05783 0.12584 0.13266h0.55102q0.12244-0.72107 0.67345-1.1938 0.551-0.47279 1.2857-0.47279 0.60543 0 1.0986 0.33333 0.49319 0.33332 0.73128 0.88433 0 0 0.14285 0zm-6.6053 0.44897q0.10884-0.13605 0.2585-0.24489h-0.59863v0.24489t0.34013 0z" fill="#717065" opacity=".6"/>
</svg>
