<svg width="28" height="28" viewBox="0 0 28 28">
  <g fill="none" fill-rule="evenodd">
    <circle cx="14" cy="14" r="14" fill="#FFF" opacity=".4"/>
    <circle cx="14" cy="14" r="13" fill="#3D3C36"/>
    <path fill="#FFF" d="M20.9963507,9.91146056 C20.9987671,9.9391742 21,9.96717092 21,9.99539757 L21,18.0046024 C21,18.5543453 20.5500512,19 19.9931545,19 L8.00684547,19 C7.45078007,19 7,18.5443356 7,18.0046024 L7,9.99539757 C7,9.96710134 7.00119207,9.93908087 7.00352943,9.91138275 L7,9.90909091 L7,11.2727273 L14,15.8181818 L14,14.4545455 L7.00352943,9.91138275 C7.04660265,9.40095811 7.47861321,9 8.00684547,9 L19.9931545,9 C20.5201391,9 20.9525628,9.40925051 20.9963507,9.91146056 L21,9.90909091 L21,11.2727273 L14,15.8181818 L14,14.4545455 L20.9963507,9.91146056 Z" opacity=".6"/>
  </g>
</svg>
