<svg version="1.1" viewBox="0 0 24 24" xmlns="http://www.w3.org/2000/svg">
 <title>marina-m</title>
 <g id="Page-2:-Night" fill="none" fill-rule="evenodd" opacity=".6">
  <g id="viewpoint-m" fill-rule="nonzero">
   <circle id="Oval" cx="12" cy="12" r="12" fill="#fff"/>
   <circle id="Oval" cx="12" cy="12" r="11" fill="#7F5933"/>
   <path id="Shape" d="m5.5116 12.152 5.7601-8.2584v8.2584h-5.7601m6.8401 0c0.97201-2.7 0.84241-6.3288 0-9 3.4272 1.1088 6.0481 5.328 6.0913 9h-6.0913m6.1921 2.5776c-0.2952 0.4608-0.64081 0.8568-1.044 1.1952-0.46801-0.2088-0.88561-0.5328-1.2168-0.8928-1.0728 1.3896-3.24 1.3896-4.3129 0-1.0584 1.3896-3.24 1.3896-4.2985 0-0.36 0.36-0.75601 0.684-1.224 0.8928-0.82081-0.6768-1.44-1.6416-1.656-2.6928h14.357c-0.1152 0.54-0.3168 1.0368-0.60481 1.4976m-0.1008 4.2624c-0.76321 0-1.4832-0.18-2.16-0.54-1.3248 0.72-2.988 0.72-4.3129 0-1.3248 0.72-2.988 0.72-4.2985 0-0.88561 0.4968-1.9008 0.576-2.88 0.54v-1.44c1.0152 0.036 1.9944-0.072 2.88-0.72 1.2528 0.9 3.0312 0.9 4.2985 0 1.2744 0.9 3.0456 0.9 4.3129 0 0.87121 0.648 1.8576 0.756 2.8656 0.72v1.44z" fill="#fff"/>
  </g>
 </g>
</svg>
