<?xml version="1.0" encoding="UTF-8"?>
<svg width="24px" height="24px" viewBox="0 0 24 24" version="1.1" xmlns="http://www.w3.org/2000/svg" xmlns:xlink="http://www.w3.org/1999/xlink">
    <title>marketplace-m</title>
    <g id="Page-2:-Night" stroke="none" stroke-width="1" fill="none" fill-rule="evenodd" opacity="0.6">
        <g id="marketplace-m" fill-rule="nonzero">
            <circle id="Oval" fill="#FFFFFF" cx="12" cy="12" r="12"></circle>
            <circle id="Oval" fill="#8C5F93" cx="12" cy="12" r="11"></circle>
            <path d="M6.66160253,7.52525642 L17.3383975,7.52525642 C17.757843,7.52525642 18.1010257,7.18207373 18.1010257,6.76262821 C18.1010257,6.34318269 17.757843,6 17.3383975,6 L6.66160253,6 C6.24215701,6 5.89897432,6.34318269 5.89897432,6.76262821 C5.89897432,7.18207373 6.24215701,7.52525642 6.66160253,7.52525642 Z M18.2230462,8.8979872 C18.1544097,8.54717822 17.8417321,8.28788463 17.4756706,8.28788463 L6.52432945,8.28788463 C6.15826791,8.28788463 5.84559034,8.54717822 5.7769538,8.8979872 L5.01432559,12.7111283 C4.92281021,13.1839577 5.28124546,13.6262821 5.76170124,13.6262821 L5.89897432,13.6262821 L5.89897432,17.4394232 C5.89897432,17.8588687 6.24215701,18.2020514 6.66160253,18.2020514 L12.7626282,18.2020514 C13.1820737,18.2020514 13.5252564,17.8588687 13.5252564,17.4394232 L13.5252564,13.6262821 L16.5757693,13.6262821 L16.5757693,17.4394232 C16.5757693,17.8588687 16.918952,18.2020514 17.3383975,18.2020514 C17.757843,18.2020514 18.1010257,17.8588687 18.1010257,17.4394232 L18.1010257,13.6262821 L18.2382988,13.6262821 C18.7187545,13.6262821 19.0771898,13.1839577 18.9856744,12.7111283 L18.2230462,8.8979872 Z M12,16.6767949 L7.42423074,16.6767949 L7.42423074,13.6262821 L12,13.6262821 L12,16.6767949 Z" id="Shape" fill="#FFFFFF"></path>
        </g>
    </g>
</svg>