<svg width="28" height="28" viewBox="0 0 28 28">
  <g fill="none" fill-rule="evenodd">
    <circle cx="14" cy="14" r="14" fill="#FFF" opacity=".4"/>
    <circle cx="14" cy="14" r="13" fill="#4E3551"/>
    <path fill="#FFF" d="M7.93333333,22 L20.0666667,22 L20.0666667,18.2352941 L7.93333333,18.2352941 L7.93333333,22 L7.93333333,22 Z M19.1333333,11.6470588 L17.2666667,11.6470588 L17.2666667,15.4117647 L10.7333333,15.4117647 L10.7333333,11.6470588 L8.86666667,11.6470588 L8.86666667,15.4117647 L7,15.4117647 L7,17.2941176 L21,17.2941176 L21,15.4117647 L19.1333333,15.4117647 L19.1333333,11.6470588 L19.1333333,11.6470588 Z M7,6 L7,7.88235294 C7,8.92216471 8.0444,9.76470588 9.33333333,9.76470588 C10.6222667,9.76470588 11.6666667,8.92216471 11.6666667,7.88235294 C11.6666667,8.92216471 12.7110667,9.76470588 14,9.76470588 C15.2889333,9.76470588 16.3333333,8.92216471 16.3333333,7.88235294 C16.3333333,8.92216471 17.3777333,9.76470588 18.6666667,9.76470588 C19.9556,9.76470588 21,8.92216471 21,7.88235294 L21,6 L7,6 L7,6 Z" opacity=".6"/>
  </g>
</svg>
