<?xml version="1.0" encoding="UTF-8" standalone="no"?>
<svg width="27px" height="27px" viewBox="0 0 27 27" version="1.1" xmlns="http://www.w3.org/2000/svg" xmlns:xlink="http://www.w3.org/1999/xlink" xmlns:sketch="http://www.bohemiancoding.com/sketch/ns">
    <!-- Generator: Sketch 3.4.2 (15857) - http://www.bohemiancoding.com/sketch -->
    <title>marketplace-l</title>
    <desc>Created with Sketch.</desc>
    <defs>
        <path id="path-1" d="M26,13.5 C26,20.403 20.403,26 13.5,26 C6.597,26 1,20.403 1,13.5 C1,6.597 6.597,1 13.5,1 C20.403,1 26,6.597 26,13.5 L26,13.5 Z"></path>
    </defs>
    <g id="POI" stroke="none" stroke-width="1" fill="none" fill-rule="evenodd" sketch:type="MSPage">
        <g id="marketplace-l" sketch:type="MSLayerGroup">
            <path d="M13.5,27 C6.056,27 0,20.943 0,13.5 C0,6.057 6.056,0 13.5,0 C20.944,0 27,6.057 27,13.5 C27,20.943 20.944,27 13.5,27 L13.5,27 Z" id="Shape" opacity="0" fill="#FFFFFF" sketch:type="MSShapeGroup"></path>
            <g id="Shape">
                <use fill="#3D3D37" fill-rule="evenodd" sketch:type="MSShapeGroup" xlink:href="#path-1"></use>
                <use fill="none" xlink:href="#path-1"></use>
            </g>
            <path d="M7,22 L20,22 L20,18 L7,18 L7,22 L7,22 Z M19,11 L17,11 L17,15 L10,15 L10,11 L8,11 L8,15 L6,15 L6,17 L21,17 L21,15 L19,15 L19,11 L19,11 Z M6,5 L6,7 C6,8.1048 7.119,9 8.5,9 C9.881,9 11,8.1048 11,7 C11,8.1048 12.119,9 13.5,9 C14.881,9 16,8.1048 16,7 C16,8.1048 17.119,9 18.5,9 C19.881,9 21,8.1048 21,7 L21,5 L6,5 L6,5 Z" id="Shape" opacity="0.7" fill="#FFFFFF" sketch:type="MSShapeGroup"></path>
        </g>
    </g>
</svg>