<svg width="16" height="16" viewBox="0 0 16 16">
  <g fill="none" fill-rule="evenodd">
    <circle cx="8" cy="8" r="8" fill="#FFF" opacity=".4"/>
    <circle cx="8" cy="8" r="7" fill="#4E3552"/>
    <path fill="#FFF" d="M11.9941212,11.1111111 C11.9394746,11.610891 11.5108655,12 11.0029699,12 L4.99703014,12 C4.48332459,12 4.06035912,11.6057072 4.00592313,11.1111111 L4,11.1111111 L4,10.2222222 L4.88888889,10.2222222 L4.88888889,11.1111111 L4.00592313,11.1111111 C4.0020088,11.0755462 4,11.0394627 4,11.0029699 L4,4.99703014 C4,4.96049065 4.00199487,4.92441024 4.00587882,4.88888889 L4,4.88888889 L4,5.77777778 L4.88888889,5.77777778 L4.88888889,4.88888889 L4.00587882,4.88888889 C4.06052539,4.38910896 4.48913448,4 4.99703014,4 L11.0029699,4 C11.5166754,4 11.9396409,4.3942928 11.9940769,4.88888889 L11.1111111,4.88888889 L11.1111111,5.77777778 L12,5.77777778 L12,4.88888889 L11.9940769,4.88888889 C11.9979912,4.92445378 12,4.9605373 12,4.99703014 L12,11.0029699 C12,11.0395094 11.9980051,11.0755898 11.9941212,11.1111111 L12,11.1111111 L12,10.2222222 L11.1111111,10.2222222 L11.1111111,11.1111111 L11.9941212,11.1111111 Z M5.77777778,4.88888889 L5.77777778,5.77777778 L6.66666667,5.77777778 L6.66666667,4.88888889 L5.77777778,4.88888889 Z M7.55555556,4.88888889 L7.55555556,5.77777778 L8.44444444,5.77777778 L8.44444444,4.88888889 L7.55555556,4.88888889 Z M9.33333333,4.88888889 L9.33333333,5.77777778 L10.2222222,5.77777778 L10.2222222,4.88888889 L9.33333333,4.88888889 Z M5.77777778,10.2222222 L5.77777778,11.1111111 L6.66666667,11.1111111 L6.66666667,10.2222222 L5.77777778,10.2222222 Z M7.55555556,10.2222222 L7.55555556,11.1111111 L8.44444444,11.1111111 L8.44444444,10.2222222 L7.55555556,10.2222222 Z M9.33333333,10.2222222 L9.33333333,11.1111111 L10.2222222,11.1111111 L10.2222222,10.2222222 L9.33333333,10.2222222 Z M7.11111111,7.08510725 L7.11111111,8.91582702 C7.11111111,9.24520194 7.32380208,9.34978412 7.58616969,9.14746279 L8.59851977,8.36680232 C8.86355998,8.16242004 8.86088738,7.83645329 8.59851977,7.63413195 L7.58616969,6.85347148 C7.32112948,6.64908921 7.11111111,6.75485701 7.11111111,7.08510725 Z" opacity=".6"/>
  </g>
</svg>
