<?xml version="1.0" encoding="UTF-8"?>
<svg width="24px" height="24px" viewBox="0 0 24 24" version="1.1" xmlns="http://www.w3.org/2000/svg" xmlns:xlink="http://www.w3.org/1999/xlink">
    <title>media-m</title>
    <g id="Page-2:-Night" stroke="none" stroke-width="1" fill="none" fill-rule="evenodd" opacity="0.6">
        <g id="media-m" fill-rule="nonzero">
            <circle id="Oval" fill="#FFFFFF" cx="12" cy="12" r="12"></circle>
            <circle id="Oval" fill="#8C5F93" cx="12" cy="12" r="11"></circle>
            <path d="M16.3333333,6.66666667 L16.3333333,7.33333333 L15,7.33333333 L15,6.66666667 C15,6.3 14.7,6 14.3333333,6 L10.3333333,6 C9.96666667,6 9.66666667,6.3 9.66666667,6.66666667 L9.66666667,7.33333333 L8.33333333,7.33333333 L8.33333333,6.66666667 C8.33333333,6.3 8.03333333,6 7.66666667,6 C7.3,6 7,6.3 7,6.66666667 L7,17.3333333 C7,17.7 7.3,18 7.66666667,18 C8.03333333,18 8.33333333,17.7 8.33333333,17.3333333 L8.33333333,16.6666667 L9.66666667,16.6666667 L9.66666667,17.3333333 C9.66666667,17.7 9.96666667,18 10.3333333,18 L14.3333333,18 C14.7,18 15,17.7 15,17.3333333 L15,16.6666667 L16.3333333,16.6666667 L16.3333333,17.3333333 C16.3333333,17.7 16.6333333,18 17,18 C17.3666667,18 17.6666667,17.7 17.6666667,17.3333333 L17.6666667,6.66666667 C17.6666667,6.3 17.3666667,6 17,6 C16.6333333,6 16.3333333,6.3 16.3333333,6.66666667 Z M9.66666667,15.3333333 L8.33333333,15.3333333 L8.33333333,14 L9.66666667,14 L9.66666667,15.3333333 Z M9.66666667,12.6666667 L8.33333333,12.6666667 L8.33333333,11.3333333 L9.66666667,11.3333333 L9.66666667,12.6666667 Z M9.66666667,10 L8.33333333,10 L8.33333333,8.66666667 L9.66666667,8.66666667 L9.66666667,10 Z M16.3333333,15.3333333 L15,15.3333333 L15,14 L16.3333333,14 L16.3333333,15.3333333 Z M16.3333333,12.6666667 L15,12.6666667 L15,11.3333333 L16.3333333,11.3333333 L16.3333333,12.6666667 Z M16.3333333,10 L15,10 L15,8.66666667 L16.3333333,8.66666667 L16.3333333,10 Z" id="Shape" fill="#FFFFFF"></path>
        </g>
    </g>
</svg>