<?xml version="1.0" encoding="UTF-8" standalone="no"?>
<svg width="21px" height="15px" viewBox="0 0 21 15" version="1.1" xmlns="http://www.w3.org/2000/svg" xmlns:xlink="http://www.w3.org/1999/xlink" xmlns:sketch="http://www.bohemiancoding.com/sketch/ns">
    <!-- Generator: Sketch 3.3.3 (12072) - http://www.bohemiancoding.com/sketch -->
    <title>metro-barcelona-s</title>
    <desc>Created with Sketch.</desc>
    <defs></defs>
    <g id="Subways" stroke="none" stroke-width="1" fill="none" fill-rule="evenodd" sketch:type="MSPage">
        <g id="metro-barcelona-s" sketch:type="MSLayerGroup" transform="translate(-1.000000, -4.000000)">
            <path d="M4.0753788,4.0753788 L16.8033009,6.19669914 L18.9246212,18.9246212 L6.19669914,16.8033009 L4.0753788,4.0753788 Z" id="Rectangle-339-Copy-4" fill="#FFFFFF" sketch:type="MSShapeGroup" transform="translate(11.500000, 11.500000) rotate(-45.000000) translate(-11.500000, -11.500000) "></path>
            <path d="M4.78248558,4.78248558 L16.0961941,6.90380592 L18.2175144,18.2175144 L6.90380592,16.0961941 L4.78248558,4.78248558 Z" id="Rectangle-339" fill="#ED1B2D" sketch:type="MSShapeGroup" transform="translate(11.500000, 11.500000) rotate(-45.000000) translate(-11.500000, -11.500000) "></path>
            <path d="M14,14 L14,12.5714286 L10.8819876,11.4992236 L14,10.4285714 L14,9 L9,9 L9,10.1110248 L11.867669,10.0892857 L9,11.1428571 L9,11.8571429 L11.867669,12.8889752 L10.6940994,12.8889752 L9,12.8889752 L9,14 L14,14 Z" id="path4854" fill="#FFFFFF" sketch:type="MSShapeGroup" transform="translate(11.500000, 11.500000) rotate(-90.000000) translate(-11.500000, -11.500000) "></path>
        </g>
    </g>
</svg>