<svg width="16" height="16" viewBox="0 0 16 16">
  <g fill="none" fill-rule="evenodd">
    <circle cx="8" cy="8" r="8" fill="#3D3C36"/>
    <circle cx="8" cy="8" r="7" fill="#3D3C36"/>
    <path fill="#FFF" d="M9.84513685,7.32613413 L10.8622756,7.32613413 C11.4393772,7.32613413 12,7.85815599 12,8.83183978 L11.8662289,8.83183978 L11.5814466,8.83183978 C11.5814466,8.83183978 11.3335951,8.83183977 10.9249664,8.83183977 C10.9326296,8.89020911 10.9388178,8.95069113 10.9388178,9.01265795 C10.9388178,9.4986397 10.5582057,10 10.0890687,10 L5.67777493,10 C5.20863796,10 4.77982237,9.4986397 4.77982237,9.01265795 C4.77982237,8.95068673 4.78599955,8.89020526 4.79775,8.83183971 C4.62275483,8.83183971 4.2847823,8.83183971 4.2847823,8.83183971 L4,8.83183978 C4,7.85815599 4.79418069,7.32613413 5.37175606,7.32613413 L5.49305128,7.32613413 L5.48903504,5 L8.75979121,5 L9.14219703,5.81957968 L11.9919503,5.81957967 L11.9919502,6.56552257 L9.49024484,6.56552259 L9.84513685,7.32613413 Z" opacity=".6"/>
  </g>
</svg>
