<svg version="1.1" viewBox="0 0 24 24" xmlns="http://www.w3.org/2000/svg">
 <title>mobile_phone-m</title>
 <g id="Page-2:-Night" fill="none" fill-rule="evenodd" opacity=".6">
  <g id="mobile_phone-m" fill-rule="nonzero">
   <circle id="Oval" cx="12" cy="12" r="12" fill="#fff"/>
   <circle id="Oval" cx="12" cy="12" r="11" fill="#8C5F93"/>
   <path id="Shape" d="m14.286 6h-4.5714c-0.94857 0-1.7143 0.76571-1.7143 1.7143v9.1429c0 0.94857 0.76571 1.7143 1.7143 1.7143h4.5714c0.94857 0 1.7143-0.76571 1.7143-1.7143v-9.1429c0-0.94857-0.76571-1.7143-1.7143-1.7143zm-1.4286 11.429h-1.7143c-0.16 0-0.28571-0.12571-0.28571-0.28571s0.12571-0.28571 0.28571-0.28571h1.7143c0.16 0 0.28571 0.12571 0.28571 0.28571s-0.12571 0.28571-0.28571 0.28571zm2-1.7143h-5.7143v-8h5.7143v8z" fill="#fff"/>
  </g>
 </g>
</svg>
