<svg version="1.1" viewBox="0 0 16 16" xmlns="http://www.w3.org/2000/svg">
 <title>monument-s</title>
 <g fill="none" fill-rule="evenodd">
  <g id="monument-s" fill-rule="nonzero">
   <path id="Shape" d="m12.125 12.5h-8.25c-0.20719 0-0.375 0.16781-0.375 0.375v0.75c1e-7 0.20719 0.16781 0.375 0.375 0.375h8.25c0.20719 0 0.375-0.16781 0.375-0.375v-0.75c0-0.20719-0.16781-0.375-0.375-0.375zm-1.8483-8.1389c-0.017164-0.17225-0.093438-0.33324-0.21586-0.45563l-1.7958-1.7956c-0.14649-0.14648-0.38391-0.14648-0.53039 0l-1.7953 1.7956c-0.12242 0.12238-0.1987 0.28338-0.21586 0.45563l-0.72352 7.3889h6zm-1.1517 4.8389c0 0.15-0.15 0.3-0.3 0.3h-1.65c-0.15 0-0.3-0.15-0.3-0.3v-0.9c0-0.15 0.15-0.3 0.3-0.3h1.65c0.15 0 0.3 0.15 0.3 0.3z" fill="#717065" opacity=".6"/>
  </g>
 </g>
</svg>
