<svg version="1.1" viewBox="0 0 24 24" xmlns="http://www.w3.org/2000/svg">
 <title>monument-m</title>
 <g fill="#717065" fill-rule="evenodd">
  <g id="monument-m" fill="#7f5933" fill-rule="nonzero">
   <path id="Shape" d="m18.188 18.75h-12.375c-0.31078 0-0.5625 0.25172-0.5625 0.5625v1.125c0 0.31078 0.25172 0.5625 0.5625 0.5625h12.375c0.31078 0 0.5625-0.25172 0.5625-0.5625v-1.125c0-0.31078-0.25172-0.5625-0.5625-0.5625zm-2.7724-12.208c-0.025746-0.25838-0.14016-0.49987-0.32379-0.68344l-2.6937-2.6933c-0.21973-0.21973-0.57586-0.21973-0.79559 0l-2.693 2.6933c-0.18363 0.18357-0.29804 0.42507-0.32379 0.68344l-1.0853 11.083h9zm-1.7276 7.2584c0 0.225-0.225 0.45-0.45 0.45h-2.475c-0.225 0-0.45-0.225-0.45-0.45v-1.35c0-0.225 0.225-0.45 0.45-0.45h2.475c0.225 0 0.45 0.225 0.45 0.45z" fill="#717065" opacity=".6"/>
  </g>
 </g>
</svg>
