<svg width="28" height="28" viewBox="0 0 28 28">
  <g fill="none" fill-rule="evenodd">
    <circle cx="14" cy="14" r="14" fill="#FFF" opacity=".4"/>
    <circle cx="14" cy="14" r="13" fill="#4C351E"/>
    <path fill="#FFF" d="M11.6666667,7.82352941 L11.6666667,16.2941176 L9.8,16.2941176 C9.282924,16.2941176 8.86666667,16.7138824 8.86666667,17.2352941 L8.86666667,19.1176471 L7.93333333,19.1176471 C7.416276,19.1176471 7,19.5374118 7,20.0588235 L7,21 L21,21 L21,20.0588235 C21,19.5374118 20.583724,19.1176471 20.0666667,19.1176471 L19.1333333,19.1176471 L19.1333333,17.2352941 C19.1333333,16.7138824 18.717076,16.2941176 18.2,16.2941176 L16.3333333,16.2941176 L16.3333333,7.82352941 C16.3333333,6.88235294 14,5 14,5 C14,5 11.5821627,6.88621176 11.6666667,7.82352941 Z" opacity=".6"/>
  </g>
</svg>
