<?xml version="1.0" encoding="UTF-8" standalone="no"?>
<svg width="27px" height="27px" viewBox="0 0 27 27" version="1.1" xmlns="http://www.w3.org/2000/svg" xmlns:xlink="http://www.w3.org/1999/xlink">
    <!-- Generator: Sketch 3.8.3 (29802) - http://www.bohemiancoding.com/sketch -->
    <title>monument-l</title>
    <desc>Created with Sketch.</desc>
    <defs></defs>
    <g id="POI-NIght" stroke="none" stroke-width="1" fill="none" fill-rule="evenodd">
        <g id="monument-l">
            <ellipse id="Oval-1-Copy-39" fill-opacity="0.1" fill="#FFFFFF" cx="13.5" cy="13.5" rx="13.5" ry="13.5"></ellipse>
            <ellipse id="Oval-1-Copy-38" fill="#26160D" cx="13.5" cy="13.5" rx="12.5" ry="12.5"></ellipse>
            <path d="M11,7 L11,16 L9,16 C8.44599,16 8,16.446 8,17 L8,19 L7,19 C6.44601,19 6,19.446 6,20 L6,21 L21,21 L21,20 C21,19.446 20.55399,19 20,19 L19,19 L19,17 C19,16.446 18.55401,16 18,16 L16,16 L16,7 C16,6 13.5,4 13.5,4 C13.5,4 10.90946,6.0041 11,7 Z" id="path11719" fill-opacity="0.7" fill="#FFFFFF"></path>
        </g>
    </g>
</svg>