<?xml version="1.0" encoding="UTF-8" standalone="no"?>
<svg width="27px" height="27px" viewBox="0 0 27 27" version="1.1" xmlns="http://www.w3.org/2000/svg" xmlns:xlink="http://www.w3.org/1999/xlink" xmlns:sketch="http://www.bohemiancoding.com/sketch/ns">
    <!-- Generator: Sketch 3.4.2 (15857) - http://www.bohemiancoding.com/sketch -->
    <title>motel-l</title>
    <desc>Created with Sketch.</desc>
    <defs></defs>
    <g id="POI" stroke="none" stroke-width="1" fill="none" fill-rule="evenodd" sketch:type="MSPage">
        <g id="motel-l" sketch:type="MSLayerGroup">
            <path d="M13.5,27 C6.057,27 0,20.943 0,13.5 C0,6.057 6.057,0 13.5,0 C20.943,0 27,6.057 27,13.5 C27,20.943 20.943,27 13.5,27 L13.5,27 Z" id="Shape" opacity="0" fill="#FFFFFF" sketch:type="MSShapeGroup"></path>
            <path d="M26,13.5 C26,20.403 20.403,26 13.5,26 C6.597,26 1,20.403 1,13.5 C1,6.597 6.597,1 13.5,1 C20.403,1 26,6.597 26,13.5 L26,13.5 Z" id="Shape" fill="#59310E" sketch:type="MSShapeGroup"></path>
            <path d="M7,14 L22,14 L22,19 L20,19 L20,16 L7,16 L7,19 L5,19 L5,14 L7,14 L7,14 L7,14 Z M7,13 C8.104,13 9,12.104 9,11 C9,9.896 8.104,9 7,9 C5.896,9 5,9.896 5,11 C5,12.104 5.896,13 7,13 L7,13 Z M21.02,10.804 L10.981,9.197 C10.44,9.089 10.001,9.448 10.001,10.001 L10.001,13.001 L22.001,13.001 L22.001,12.001 C22,11.447 21.561,10.912 21.02,10.804 L21.02,10.804 Z" id="Shape" opacity="0.7" fill="#FFFFFF" sketch:type="MSShapeGroup"></path>
        </g>
    </g>
</svg>