<?xml version="1.0" encoding="UTF-8" standalone="no"?>
<svg width="23px" height="23px" viewBox="0 0 23 23" version="1.1" xmlns="http://www.w3.org/2000/svg" xmlns:xlink="http://www.w3.org/1999/xlink" xmlns:sketch="http://www.bohemiancoding.com/sketch/ns">
    <!-- Generator: Sketch 3.4.2 (15857) - http://www.bohemiancoding.com/sketch -->
    <title>motel-m</title>
    <desc>Created with Sketch.</desc>
    <defs></defs>
    <g id="POI" stroke="none" stroke-width="1" fill="none" fill-rule="evenodd" sketch:type="MSPage">
        <g id="motel-m" sketch:type="MSLayerGroup">
            <path d="M11.5,23 C5.159,23 0,17.841 0,11.5 C0,5.159 5.159,0 11.5,0 C17.841,0 23,5.159 23,11.5 C23,17.841 17.841,23 11.5,23 L11.5,23 Z" id="Shape" opacity="0" fill="#FFFFFF" sketch:type="MSShapeGroup"></path>
            <path d="M22,11.5 C22,17.299 17.299,22 11.5,22 C5.701,22 1,17.299 1,11.5 C1,5.701 5.701,1 11.5,1 C17.299,1 22,5.701 22,11.5 L22,11.5 Z" id="Shape" fill="#59310E" sketch:type="MSShapeGroup"></path>
            <path d="M7,12 L18,12 L18,16 L16,16 L16,14 L7,14 L7,16 L5,16 L5,12 L7,12 L7,12 L7,12 Z M6.5,11 C7.328,11 8,10.328 8,9.5 C8,8.672 7.328,8 6.5,8 C5.672,8 5,8.672 5,9.5 C5,10.328 5.672,11 6.5,11 L6.5,11 Z M17.02,8.804 L9.981,8.197 C9.44,8.089 9.001,8.448 9.001,9.001 L9.001,11.001 L18.001,11.001 L18.001,10.001 C18,9.447 17.561,8.912 17.02,8.804 L17.02,8.804 Z" id="Shape" opacity="0.7" fill="#FFFFFF" sketch:type="MSShapeGroup"></path>
        </g>
    </g>
</svg>