<svg viewBox="0 0 26 26" xmlns="http://www.w3.org/2000/svg"><path d="M11.131 4.85a2.557 2.557 0 0 0-2.54 2.54c0 .944.617 1.62 1.394 2.057l-1.337.666-.796-.798-.015-.013a2.52 2.52 0 0 0-1.766-.71H2.714a2.555 2.555 0 0 0-2.54 2.536c0 .77.391 1.405.943 1.873-.742 1.156-1.14 2.555-.799 4.042a5.268 5.268 0 0 0 3.965 3.965c2.377.544 4.586-.638 5.736-2.512.577.395 1.184.783 1.889.783h.942c1.138 0 2.166-.616 2.812-1.547.635 1.598 1.881 2.89 3.592 3.282l.003.003h.003c3.393.767 6.567-1.875 6.567-5.21 0-2.575-1.894-4.646-4.331-5.14.3-.416.589-.862.589-1.409v-.353c0-1.82-2.054-3.09-3.683-2.264l-1.09.544-1.556-1.556-.006-.003a2.46 2.46 0 0 0-1.813-.777z" fill="#111" opacity=".6"/><path d="M20.482 12.064c-.168 0-.337.028-.496.047l-1.926-1.917h1.487a.938.938 0 0 0 .935-.936v-.355a.933.933 0 0 0-1.356-.832l-2.132 1.066-2.404-2.404a.913.913 0 0 0-.655-.28H11.13c-.514 0-.935.42-.935.935s.421.935.935.935h2.03c.252 0 .486.103.664.271l1.599 1.6H12.29c-.15 0-.29.037-.421.102l-2.937 1.469a.925.925 0 0 1-1.075-.178l-1.122-1.122a.983.983 0 0 0-.664-.272H2.712a.938.938 0 0 0-.935.936c0 .514.42.935.935.935h2.806a3.74 3.74 0 0 0-3.638 4.62 3.704 3.704 0 0 0 2.759 2.76 3.74 3.74 0 0 0 4.62-3.639l1.319 1.319c.355.355.832.552 1.328.552h.944c.673 0 1.29-.356 1.627-.945l2.722-4.76.945.944a3.716 3.716 0 0 0-1.291 3.788 3.734 3.734 0 0 0 2.759 2.75 3.751 3.751 0 0 0 4.61-3.648 3.74 3.74 0 0 0-3.74-3.741zM5.518 17.676a1.876 1.876 0 0 1-1.87-1.871c0-1.029.841-1.87 1.87-1.87 1.029 0 1.87.841 1.87 1.87 0 1.029-.841 1.87-1.87 1.87zm14.964 0a1.876 1.876 0 0 1-1.87-1.871c0-1.029.841-1.87 1.87-1.87 1.029 0 1.87.841 1.87 1.87 0 1.029-.841 1.87-1.87 1.87z" fill="#2e89b0"/></svg>