<svg width="16" height="16" viewBox="0 0 16 16">
  <g fill="none" fill-rule="evenodd">
    <circle cx="8" cy="8" r="8" fill="#FFF" opacity=".4"/>
    <circle cx="8" cy="8" r="7" fill="#4E3551"/>
    <path fill="#FFF" d="M9.13187573,6.5033849 L9.13164062,6.5022871 L9.38053385,6.00107748 C9.01627604,5.81050641 8.28776042,5.42936429 8.28776042,5.42936429 L8.3000651,5 C9.01002705,5.22921416 10.2977846,6.29223058 10.8295954,7.26236184 L10.9744141,7.52654049 L10.9707031,8.00731871 L10.3928952,8.51531433 C10.4518091,8.50646447 10.5119521,8.5018805 10.5729853,8.5018805 L10.760348,8.5018805 C11.4449889,8.5018805 12,9.05629419 12,9.75094025 C12,10.4407769 11.4344686,11 10.760348,11 L10.5729853,11 C9.95719963,11 9.44628081,10.5514948 9.34974173,9.95584804 L6.65580722,9.58388782 C6.66296977,9.63848778 6.66666667,9.69424697 6.66666667,9.75094025 C6.66666667,10.4407769 6.10113525,11 5.42701467,11 L5.239652,11 C4.5550111,11 4,10.4455863 4,9.75094025 C4,9.0611036 4.56553141,8.5018805 5.239652,8.5018805 L5.37921938,8.5018805 L4.27441406,7.01917095 C4.34372234,6.9021739 5.0194549,6.57615164 5.56988618,6.65192043 L7.29567372,6.88948111 C7.85108635,6.96593559 8.08562634,7.42594859 7.83065961,7.91848046 L7.78372396,8.00914839 L8.86790365,8.02476163 L9.34602865,7.50336457 L9.23887382,7.0030088 L9.04739583,7.0030088 C8.91076289,7.0030088 8.8,6.88712924 8.8,6.75319685 C8.8,6.61522952 8.91415202,6.5033849 9.04739583,6.5033849 L9.13187573,6.5033849 Z M4.8,9.75094025 C4.8,10.018805 5.02759223,10.2505642 5.30834147,10.2505642 L5.3583252,10.2505642 C5.6404541,10.2505642 5.86666667,10.0268749 5.86666667,9.75094025 C5.86666667,9.48307548 5.63907444,9.25131635 5.3583252,9.25131635 L5.30834147,9.25131635 C5.02621257,9.25131635 4.8,9.47500559 4.8,9.75094025 Z M10.1333333,9.75094025 C10.1333333,10.018805 10.3609256,10.2505642 10.6416748,10.2505642 L10.6916585,10.2505642 C10.9737874,10.2505642 11.2,10.0268749 11.2,9.75094025 C11.2,9.48307548 10.9724078,9.25131635 10.6916585,9.25131635 L10.6416748,9.25131635 C10.3595459,9.25131635 10.1333333,9.47500559 10.1333333,9.75094025 Z" opacity=".6"/>
  </g>
</svg>
