<svg version="1.1" viewBox="0 0 20 20" xmlns="http://www.w3.org/2000/svg">
 <title>motorcycle-parking-m</title>
 <g id="Page-2:-Night" fill="none" fill-rule="evenodd" opacity=".6">
  <g id="motorcycle-parking-m" fill-rule="nonzero">
   <rect id="Rectangle" width="20" height="20" rx="2.5" fill="#fff"/>
   <rect id="Rectangle" x="1" y="1" width="18" height="18" rx="2" fill="#2E89B0"/>
   <path id="Shape" d="m14.667 9.5c-0.105 0-0.21 0.0175-0.30917 0.029167l-1.2017-1.1958h0.9275c0.32083 0 0.58333-0.2625 0.58333-0.58333v-0.22167c0-0.43167-0.455-0.7175-0.84583-0.51917l-1.33 0.665-1.4992-1.4992c-0.105-0.11083-0.25667-0.175-0.40833-0.175h-1.75c-0.32083 0-0.58333 0.2625-0.58333 0.58333 0 0.32083 0.2625 0.58333 0.58333 0.58333h1.2658c0.1575 0 0.30333 0.064167 0.41417 0.16917l0.9975 0.9975h-1.9542c-0.093333 0-0.18083 0.023333-0.2625 0.064167l-1.8317 0.91583c-0.22167 0.11083-0.49583 0.07-0.67083-0.11083l-0.7-0.7c-0.11083-0.105-0.2625-0.16917-0.41417-0.16917h-2.0942c-0.32083 0-0.58333 0.2625-0.58333 0.58333 0 0.32083 0.2625 0.58333 0.58333 0.58333h1.75c-1.47 0-2.6192 1.3533-2.2692 2.8817 0.1925 0.84583 0.875 1.5283 1.7208 1.7208 1.5283 0.35 2.8817-0.79917 2.8817-2.2692l0.8225 0.8225c0.22167 0.22167 0.51917 0.34417 0.82833 0.34417h0.58917c0.42 0 0.805-0.22167 1.015-0.58917l1.6975-2.9692 0.58917 0.58917c-0.65917 0.53083-1.0267 1.4058-0.805 2.3625 0.19833 0.84 0.88083 1.5225 1.7208 1.715 1.5225 0.34417 2.8758-0.81083 2.8758-2.275 0-1.2892-1.0442-2.3333-2.3333-2.3333zm-9.3333 3.5c-0.64167 0-1.1667-0.525-1.1667-1.1667 0-0.64167 0.525-1.1667 1.1667-1.1667 0.64167 0 1.1667 0.525 1.1667 1.1667 0 0.64167-0.525 1.1667-1.1667 1.1667zm9.3333 0c-0.64167 0-1.1667-0.525-1.1667-1.1667 0-0.64167 0.525-1.1667 1.1667-1.1667 0.64167 0 1.1667 0.525 1.1667 1.1667 0 0.64167-0.525 1.1667-1.1667 1.1667z" fill="#fff"/>
  </g>
 </g>
</svg>
