<svg width="20" height="20" viewBox="0 0 20 20">
  <g fill="none" fill-rule="evenodd">
    <rect width="20" height="20" fill="#FFF" opacity=".4" rx="2.5"/>
    <rect width="18" height="18" x="1" y="1" fill="#216380" rx="2"/>
    <path fill="#FFF" d="M11.9807825,6.75620566 L11.9803711,6.75419301 L12.4159342,5.83530871 C11.7784831,5.48592843 10.5035807,4.78716786 10.5035807,4.78716786 L10.5251139,4 L11.3775303,4.2883112 C12.4142503,4.63895912 13.6802923,5.71773809 14.1905255,6.69282948 L15.2052246,8.63199089 L15.1987305,9.51341763 L14.1640088,10.4664407 C14.3130837,10.4360647 14.4674697,10.4201143 14.6256529,10.4201143 L14.7076804,10.4201143 C15.9736936,10.4201143 17,11.4365393 17,12.7100571 C17,13.9747577 15.9758802,15 14.7076804,15 L14.6256529,15 C13.4870481,15 12.5423308,14.1778615 12.3637146,13.0859625 L7.64656475,12.4036355 C7.65982326,12.5037861 7.66666667,12.6060645 7.66666667,12.7100571 C7.66666667,13.9747577 6.64254686,15 5.37434708,15 L5.29231959,15 C4.02630644,15 3,13.9835749 3,12.7100571 C3,11.4453566 4.0241198,10.4201143 5.29231959,10.4201143 L5.37434708,10.4201143 C5.38754744,10.4201143 5.40072175,10.4202248 5.4138691,10.4204449 L3.48022461,7.70181341 L3.51453677,7.64113402 C3.77836136,7.17457297 4.44573282,6.84082372 4.99165699,6.91955058 L9.52307282,7.57301889 C10.0642085,7.65105522 10.312314,8.11878009 10.0665365,8.61616927 L9.62151693,9.51677204 L11.5188314,9.54539633 L12.3555501,8.58950172 L12.1680292,7.67218281 L11.8518679,7.67218281 C11.6023082,7.67218281 11.4,7.45973693 11.4,7.21419423 C11.4,6.96125413 11.599766,6.75620566 11.8518679,6.75620566 L11.9807825,6.75620566 Z M4.4,12.7100571 C4.4,13.2194642 4.80807459,13.6260343 5.31146011,13.6260343 L5.35520655,13.6260343 C5.85239283,13.6260343 6.26666667,13.2159373 6.26666667,12.7100571 C6.26666667,12.20065 5.85859207,11.79408 5.35520655,11.79408 L5.31146011,11.79408 C4.81427383,11.79408 4.4,12.2041769 4.4,12.7100571 Z M13.7333333,12.7100571 C13.7333333,13.2194642 14.1414079,13.6260343 14.6447934,13.6260343 L14.6885399,13.6260343 C15.1857262,13.6260343 15.6,13.2159373 15.6,12.7100571 C15.6,12.20065 15.1919254,11.79408 14.6885399,11.79408 L14.6447934,11.79408 C14.1476072,11.79408 13.7333333,12.2041769 13.7333333,12.7100571 Z" opacity=".6"/>
  </g>
</svg>
