<?xml version="1.0" encoding="UTF-8" standalone="no"?>
<svg width="27px" height="27px" viewBox="0 0 27 27" version="1.1" xmlns="http://www.w3.org/2000/svg" xmlns:xlink="http://www.w3.org/1999/xlink">
    <!-- Generator: Sketch 3.8.3 (29802) - http://www.bohemiancoding.com/sketch -->
    <title>museum-l</title>
    <desc>Created with Sketch.</desc>
    <defs></defs>
    <g id="POI-NIght" stroke="none" stroke-width="1" fill="none" fill-rule="evenodd">
        <g id="museum-l">
            <ellipse id="Oval-1-Copy-39" fill-opacity="0.1" fill="#FFFFFF" cx="13.5" cy="13.5" rx="13.5" ry="13.5"></ellipse>
            <ellipse id="Oval-1-Copy-38" fill="#26160D" cx="13.5" cy="13.5" rx="12.5" ry="12.5"></ellipse>
            <path d="M21.4018182,7.39104762 L14,4 L6.59818182,7.39104762 C6.23090909,7.52404762 6.005,7.86921429 6.00318182,8.23654762 L6,9 L22,9 L22,8.24107143 C21.995,7.86921429 21.7690909,7.52404762 21.4018182,7.39104762 Z M19.5,18 L19,10 L17,10 L16.5,18 L15.5,18 L14.9090909,10 L13.0909091,10 L12.5,18 L11.5,18 L11,10 L9,10 L8.5,18 L7.00244075,18 C6.44880801,18 6,18.4426603 6,18.9989566 L6,21 L22,21 L22,18.9989566 C22,18.4472481 21.5530501,18 20.9975592,18 L19.5,18 Z" id="Imported-Layers" fill-opacity="0.7" fill="#FFFFFF"></path>
        </g>
    </g>
</svg>