<?xml version="1.0" encoding="UTF-8" standalone="no"?>
<svg width="27px" height="27px" viewBox="0 0 27 27" version="1.1" xmlns="http://www.w3.org/2000/svg" xmlns:xlink="http://www.w3.org/1999/xlink" xmlns:sketch="http://www.bohemiancoding.com/sketch/ns">
    <!-- Generator: Sketch 3.4.2 (15857) - http://www.bohemiancoding.com/sketch -->
    <title>museum-l</title>
    <desc>Created with Sketch.</desc>
    <defs></defs>
    <g id="POI" stroke="none" stroke-width="1" fill="none" fill-rule="evenodd" sketch:type="MSPage">
        <g id="museum-l-copy" sketch:type="MSLayerGroup">
            <circle id="Oval-1-Copy-39" opacity="0" fill="#FFFFFF" sketch:type="MSShapeGroup" cx="13.5" cy="13.5" r="13.5"></circle>
            <circle id="Oval-1-Copy-38" fill="#2E1B10" sketch:type="MSShapeGroup" cx="13.5" cy="13.5" r="12.5"></circle>
            <path d="M13.5,3.3622 L7,8.3622 L20,8.3622 L13.5,3.3622 Z M8,9.3622 C7.44599,9.3622 7.07835,9.8138 7,10.3622 L7,17.3622 L5.25,20.3622 C5.10167,20.6165 5,20.7189 5,20.8622 C5,21.3622 5.63165,21.3622 6,21.3622 L21,21.3622 C21.35499,21.3622 22,21.3622 22,20.8622 C22,20.716 21.9134,20.6423 21.75,20.3622 L20,17.3622 L20,10.3622 C20,9.8082 19.55401,9.3622 19,9.3622 L8,9.3622 Z M10,11.3622 L11.5,11.3622 C12,11.3622 12.5,12.3622 12.5,12.3622 L13.5,14.8622 L14.5,12.3622 C14.72318,11.8042 15,11.3622 15.5,11.3622 L17,11.3622 C17.554,11.3622 18,11.8082 18,12.3622 L18,17.3622 C18,17.8622 17.5,18.3622 17,18.3622 C16.5,18.3622 16,17.8622 16,17.3622 L16,13.3622 L14.5,16.3622 C14.5,16.3622 14,17.3622 13.5,17.3622 C13,17.3622 12.5,16.3622 12.5,16.3622 L11,13.3622 L11,17.3622 C11,17.8622 10.5,18.3622 10,18.3622 C9.5,18.3622 9,17.8622 9,17.3622 L9,16.3622 L9,12.3622 C9,11.8082 9.446,11.3622 10,11.3622 L10,11.3622 Z" id="rect7645-6-5-0" opacity="0.7" fill="#FFFFFF" sketch:type="MSShapeGroup"></path>
        </g>
    </g>
</svg>