<?xml version="1.0" encoding="UTF-8" standalone="no"?>
<svg width="17px" height="17px" viewBox="0 0 17 17" version="1.1" xmlns="http://www.w3.org/2000/svg" xmlns:xlink="http://www.w3.org/1999/xlink" xmlns:sketch="http://www.bohemiancoding.com/sketch/ns">
    <!-- Generator: Sketch 3.4.2 (15857) - http://www.bohemiancoding.com/sketch -->
    <title>museum-s</title>
    <desc>Created with Sketch.</desc>
    <defs></defs>
    <g id="POI" stroke="none" stroke-width="1" fill="none" fill-rule="evenodd" sketch:type="MSPage">
        <g id="museum-s-copy" sketch:type="MSLayerGroup">
            <circle id="Oval-1-Copy-43" opacity="0" fill="#FFFFFF" sketch:type="MSShapeGroup" cx="8.5" cy="8.5" r="8.5"></circle>
            <circle id="Oval-1-Copy-42" fill="#2E1B10" sketch:type="MSShapeGroup" cx="8.5" cy="8.5" r="7.5"></circle>
            <g id="museum-12-copy" transform="translate(2.000000, 2.000000)" sketch:type="MSShapeGroup">
                <g id="g21713" transform="translate(2.000000, 1.000000)" fill="#FFFFFF" opacity="0.7">
                    <path d="M4.5,0.3622 L1,2.3622 L8,2.3622 L4.5,0.3622 Z M1.5,3.3622 C1.22299,3.3622 1,3.5852 1,3.8622 L1,7.3622 L1,8.3622 L0,9.3622 L9,9.3622 L8,8.3622 L8,7.3622 L8,3.8622 C8,3.5852 7.777,3.3622 7.5,3.3622 L1.5,3.3622 Z M2.5,4.3622 L3.25,4.3622 C3.5,4.3622 3.75,4.8622 3.75,4.8622 L4.5,6.3622 L5.25,4.8622 C5.38438,4.5935 5.5,4.3622 5.75,4.3622 L6.5,4.3622 C6.777,4.3622 7,4.5852 7,4.8622 L7,7.3622 C7,7.6122 6.75,7.8622 6.5,7.8622 C6.25,7.8622 6,7.6122 6,7.3622 L6,5.3622 L5.25,6.8622 C5.13059,7.101 5,7.3622 4.5,7.3622 C4,7.3622 3.8694,7.101 3.75,6.8622 L3,5.3622 L3,7.3622 C3,7.6122 2.75,7.8622 2.5,7.8622 C2.25,7.8622 2,7.6122 2,7.3622 L2,6.8622 L2,4.8622 C2,4.5852 2.223,4.3622 2.5,4.3622 L2.5,4.3622 Z" id="rect7645-6-5-0-0"></path>
                </g>
                <rect id="rect22246" opacity="0.5" x="0" y="0.3622" width="11.999998" height="12.000007"></rect>
            </g>
        </g>
    </g>
</svg>