<?xml version="1.0" encoding="UTF-8"?>
<svg width="24px" height="24px" viewBox="0 0 24 24" version="1.1" xmlns="http://www.w3.org/2000/svg" xmlns:xlink="http://www.w3.org/1999/xlink">
    <title>music-m</title>
    <g id="Page-2:-Night" stroke="none" stroke-width="1" fill="none" fill-rule="evenodd" opacity="0.6">
        <g id="music-m" fill-rule="nonzero">
            <circle id="Oval" fill="#FFFFFF" cx="12" cy="12" r="12"></circle>
            <circle id="Oval" fill="#8C5F93" cx="12" cy="12" r="11"></circle>
            <path d="M18.7433013,6.49233316 L17.507324,5.2563559 C17.1655161,4.91454803 16.6104202,4.91454803 16.2686123,5.2563559 L14.4119119,7.11305625 C14.0701041,7.45486412 14.0701041,8.00996009 14.4119119,8.35176796 L12.929833,9.83111242 C11.6883868,9.03811817 10.1844322,9.04085263 9.27932498,9.94595987 C9.01408208,10.2112028 8.83087306,10.525666 8.71876008,10.8729428 C8.55195784,11.3870218 8.07616128,11.77805 7.5511444,11.8272704 C6.89487329,11.890163 6.28508805,12.1444681 5.81749488,12.6147957 C4.554173,13.8753831 4.78113343,16.1449874 6.3179016,17.6817556 C7.85466978,19.2185237 10.124274,19.4427497 11.3848615,18.1821623 C11.8551891,17.7145691 12.1094941,17.1047839 12.1723868,16.4457783 C12.2216071,15.9234959 12.6126353,15.4449649 13.1267144,15.2781626 C13.4739912,15.1660496 13.7884544,14.9828406 14.0536973,14.7175977 C14.9588045,13.8124905 14.9588045,12.3085359 14.1685447,11.0670897 L15.6506237,9.58501076 C15.9924315,9.92681862 16.5475275,9.92681862 16.8893354,9.58501076 L18.7460357,7.72831041 C19.0851091,7.389237 19.0851091,6.83414103 18.7433013,6.49233316 L18.7433013,6.49233316 Z M10.6875734,14.624626 C9.96294072,14.624626 9.37503119,14.0367164 9.37503119,13.3120838 C9.37503119,12.5874511 9.96294072,11.9995415 10.6875734,11.9995415 C11.4122061,11.9995415 12.0001156,12.5874511 12.0001156,13.3120838 C12.0001156,14.0367164 11.4122061,14.624626 10.6875734,14.624626 Z" id="Shape" fill="#FFFFFF"></path>
        </g>
    </g>
</svg>