<?xml version="1.0" encoding="UTF-8" standalone="no"?>
<svg width="27px" height="27px" viewBox="0 0 27 27" version="1.1" xmlns="http://www.w3.org/2000/svg" xmlns:xlink="http://www.w3.org/1999/xlink">
    <!-- Generator: Sketch 3.8.3 (29802) - http://www.bohemiancoding.com/sketch -->
    <title>muslim-l</title>
    <desc>Created with Sketch.</desc>
    <defs></defs>
    <g id="POI-NIght" stroke="none" stroke-width="1" fill="none" fill-rule="evenodd">
        <g id="muslim-l">
            <circle id="Oval-1-Copy-39" fill-opacity="0.1" fill="#FFFFFF" cx="13.5" cy="13.5" r="13.5"></circle>
            <circle id="Oval-1-Copy-38" fill="#26160D" cx="13.5" cy="13.5" r="12.5"></circle>
            <path d="M17.7931609,8.1897312 C16.4367366,6.83739076 14.565915,6 12.5,6 C8.36629279,6 5,9.35786438 5,13.5 C5,17.6337072 8.35786438,21 12.5,21 C14.5636018,21 16.4359532,20.1631733 17.7937253,18.8097031 C16.9587519,19.2504717 16.0078898,19.5 15,19.5 C11.6862915,19.5 9,16.8069658 9,13.5 C9,10.1862915 11.6930342,7.5 15,7.5 C16.0085164,7.5 16.9589171,7.74944753 17.7931609,8.1897312 Z M18.5,14.75 L16.8339945,15.5833333 L17.25,13.9166667 L16,12.6666667 L17.6666667,12.6666667 L18.5,11 L19.3333333,12.6666667 L21,12.6666667 L19.75,13.9166667 L20.1666667,15.5833333 L18.5,14.75 Z" id="Combined-Shape" fill-opacity="0.7" fill="#FFFFFF"></path>
        </g>
    </g>
</svg>