<?xml version="1.0" encoding="UTF-8"?>
<svg width="24px" height="24px" viewBox="0 0 24 24" version="1.1" xmlns="http://www.w3.org/2000/svg" xmlns:xlink="http://www.w3.org/1999/xlink">
    <title>muslim-m</title>
    <g id="Page-2:-Night" stroke="none" stroke-width="1" fill="none" fill-rule="evenodd" opacity="0.6">
        <g id="muslim-m" fill-rule="nonzero">
            <circle id="Oval" fill="#FFFFFF" cx="12" cy="12" r="12"></circle>
            <circle id="Oval" fill="#7F5933" cx="12" cy="12" r="11"></circle>
            <path d="M15.4773417,11.9587489 L14.4444444,11.2615497 L15.7650747,11.2615497 L16.2222222,10.1538462 L16.6793697,11.2615497 L18,11.2615497 L16.9671027,11.9587489 L17.5555556,13.3846154 L16.2259115,12.4615385 L14.8888889,13.3846154 L15.4773417,11.9587489 Z M15.4175121,7.29053766 C14.8436193,7.05368533 14.2148268,6.92307692 13.5555556,6.92307692 C10.8609909,6.92307692 8.66666667,9.11619673 8.66666667,11.8215471 L8.66666667,12.1784529 C8.66666667,14.8861906 10.8554968,17.0769231 13.5555556,17.0769231 C14.2150151,17.0769231 14.8445121,16.9455636 15.4192134,16.7074845 C14.4245738,17.515576 13.1565914,18 11.7777778,18 C8.58679922,18 6,15.4109526 6,12.2284665 L6,11.7715335 C6,8.58400356 8.59329222,6 11.7777778,6 C13.1573593,6 14.4240099,6.48393493 15.4175121,7.29053766 L15.4175121,7.29053766 Z" id="Shape" fill="#FFFFFF"></path>
        </g>
    </g>
</svg>