<?xml version="1.0" encoding="UTF-8"?>
<svg width="16px" height="16px" viewBox="0 0 16 16" version="1.1" xmlns="http://www.w3.org/2000/svg" xmlns:xlink="http://www.w3.org/1999/xlink">
    <title>muslim-s</title>
    <g id="Page-2:-Night" stroke="none" stroke-width="1" fill="none" fill-rule="evenodd" opacity="0.6">
        <g id="muslim-s" fill-rule="nonzero">
            <circle id="Oval" fill="#FFFFFF" cx="8" cy="8" r="8"></circle>
            <circle id="Oval" fill="#7F5933" cx="8" cy="8" r="7.33333333"></circle>
            <path d="M10.3182278,7.97249927 L9.6296296,7.5076998 L10.5100498,7.5076998 L10.8148148,6.7692308 L11.1195798,7.5076998 L12,7.5076998 L11.3114018,7.97249927 L11.7037037,8.92307693 L10.8172743,8.30769233 L9.92592593,8.92307693 L10.3182278,7.97249927 Z M10.2783414,4.86035844 C9.8957462,4.70245689 9.4765512,4.61538461 9.03703707,4.61538461 C7.2406606,4.61538461 5.77777778,6.07746449 5.77777778,7.8810314 L5.77777778,8.1189686 C5.77777778,9.92412707 7.23699787,11.3846154 9.03703707,11.3846154 C9.47667673,11.3846154 9.8963414,11.2970424 10.2794756,11.138323 C9.61638253,11.6770507 8.77106093,12 7.85185187,12 C5.72453281,12 4,10.2739684 4,8.152311 L4,7.847689 C4,5.72266904 5.72886148,4 7.85185187,4 C8.77157287,4 9.6160066,4.32262329 10.2783414,4.86035844 L10.2783414,4.86035844 Z" id="Shape" fill="#FFFFFF"></path>
        </g>
    </g>
</svg>