<svg version="1.1" viewBox="0 0 24 24" xmlns="http://www.w3.org/2000/svg">
 <title>needle_and_thread-m</title>
 <g id="Page-2:-Night" fill="none" fill-rule="evenodd" opacity="1">
  <g id="needle_and_thread-m" fill-rule="nonzero">
   <circle id="Oval" cx="12" cy="12" r="12" fill="#000" opacity=".6"/>
   <circle id="Oval" cx="12" cy="12" r="11" fill="#664E42"/>
   <path 
    id="Shape" 
    transform="translate(3.6, 2.85)
                scale(0.6)"
    d="M25.343,3.585c-0.502-0.677-1.528-1.212-2.636-1.397c0.168-0.746-0.146-1.544-0.846-1.947 c-0.854-0.495-1.951-0.202-2.445,0.655c-0.098,0.169-0.741,1.425-1.702,3.314c-1.646-0.354-3.277-0.68-4.625-0.796 c-1.282-0.111-3.016-0.12-3.276,1.08c-0.354,1.631,2.031,3.647,4.813,5.799c-0.618,1.221-1.263,2.496-1.917,3.788 c-2.15-1.01-3.904-1.625-4.68-0.821c-1.085,1.124-0.127,2.754,0.98,4.642c0.316,0.538,0.641,1.093,0.931,1.656 c-2.925,5.784-5.393,10.673-5.393,10.673s2.715-4.145,6.033-9.217c0.536,1.536,0.556,3.084-0.81,4.496 c-0.114,0.118-0.111,0.307,0.007,0.422c0.019,0.017,0.038,0.032,0.059,0.043c0.116,0.066,0.267,0.049,0.363-0.051 c1.708-1.767,1.523-3.702,0.784-5.528c1.045-1.598,2.139-3.271,3.221-4.928c0.023,0.012,0.046,0.023,0.067,0.034 c3.134,1.549,6.093,3.012,6.941,1.491c0.838-1.499-1.493-3.516-4.291-5.687c1.478-2.264,2.812-4.311,3.809-5.843 c2.45,0.494,4.011,0.665,4.53,0.084C25.796,4.954,25.825,4.239,25.343,3.585z M10.268,18.906c-0.243-0.448-0.499-0.887-0.745-1.305 c-0.984-1.678-1.836-3.127-1.066-3.925c0.508-0.526,2.205,0.113,3.981,0.939C11.711,16.054,10.979,17.499,10.268,18.906z M20.692,16.703c-0.572,1.025-3.668-0.506-6.156-1.734c-0.001,0-0.002-0.001-0.003-0.001c0.701-1.073,1.394-2.134,2.061-3.156 C19.005,13.684,21.29,15.633,20.692,16.703z M14.9,9.753c-2.426-1.883-4.78-3.868-4.505-5.13c0.12-0.547,1.008-0.754,2.642-0.613 c1.272,0.111,2.823,0.416,4.396,0.753C16.714,6.177,15.844,7.891,14.9,9.753z M19.557,4.612c-0.093-0.021-0.184-0.04-0.273-0.06 c-0.26-0.462,0.674-2.803,0.908-3.208c0.246-0.428,0.795-0.575,1.223-0.328c0.39,0.224,0.529,0.691,0.371,1.096 c-0.512,0.014-1.016,0.108-1.469,0.319c-0.15,0.069-0.216,0.246-0.146,0.396c0.067,0.149,0.247,0.215,0.396,0.145 c0.252-0.117,0.53-0.181,0.813-0.222C20.881,3.404,20.028,4.401,19.557,4.612z M24.819,5.151c-0.322,0.358-1.943,0.129-3.74-0.225 c0.769-1.182,1.271-1.962,1.404-2.181c0.993,0.135,1.938,0.599,2.379,1.196C25.179,4.369,25.165,4.764,24.819,5.151z" 
    fill="#000"
   />
  </g>
 </g>
</svg>
