<?xml version="1.0" encoding="UTF-8"?>
<svg version="1.1" viewBox="0 0 24 24" xmlns="http://www.w3.org/2000/svg">
 <circle cx="12" cy="12" r="12" fill="#000" opacity=".6"/>
 <circle cx="12" cy="12" r="11" fill="#8c5f93"/>
 <path d="m18.806 5.001c-0.3012-0.4062-0.9168-0.7272-1.5816-0.8382 0.1008-0.4476-0.08761-0.9264-0.5076-1.1682-0.5124-0.297-1.1706-0.1212-1.467 0.393-0.0588 0.1014-0.4446 0.855-1.0212 1.9884-0.9876-0.2124-1.9662-0.408-2.775-0.4776-0.7692-0.0666-1.8096-0.072001-1.9656 0.648-0.2124 0.9786 1.2186 2.1882 2.8878 3.4794-0.3708 0.7326-0.7578 1.4976-1.1502 2.2728-1.29-0.606-2.3424-0.975-2.808-0.4926-0.651 0.6744-0.076199 1.6524 0.588 2.7852 0.1896 0.3228 0.3846 0.6558 0.5586 0.9936-1.755 3.4704-3.2358 6.4038-3.2358 6.4038s1.629-2.487 3.6198-5.5302c0.3216 0.9216 0.3336 1.8504-0.486 2.6976-0.068395 0.0708-0.0666 0.1842 0.00423 0.2532 0.011343 0.01016 0.022804 0.0192 0.035399 0.0258 0.069596 0.0396 0.1602 0.02941 0.2178-0.03059 1.0248-1.0602 0.9138-2.2212 0.4704-3.3168 0.627-0.9588 1.2834-1.9626 1.9326-2.9568 0.01388 0.0073 0.02759 0.01388 0.04021 0.0204 1.8804 0.9294 3.6558 1.8072 4.1646 0.8946 0.5028-0.8994-0.8958-2.1096-2.5746-3.4122 0.8868-1.3584 1.6872-2.5866 2.2854-3.5058 1.47 0.2964 2.4066 0.399 2.718 0.0504 0.3216-0.3558 0.339-0.7848 0.04981-1.1772zm-9.045 9.1926c-0.1458-0.2688-0.2994-0.5322-0.447-0.783-0.5904-1.0068-1.1016-1.8762-0.6396-2.355 0.3048-0.3156 1.323 0.0678 2.3886 0.5634-0.4362 0.8634-0.8754 1.7304-1.302 2.5746zm6.2544-1.3218c-0.3432 0.615-2.2008-0.3036-3.6936-1.0404-6.01e-4 0-0.0012-5.99e-4 -0.0019-5.99e-4 0.4206-0.6438 0.8364-1.2804 1.2366-1.8936 1.4466 1.1232 2.8176 2.2926 2.4588 2.9346zm-3.4752-4.17c-1.4556-1.1298-2.868-2.3208-2.703-3.078 0.072001-0.3282 0.6048-0.4524 1.5852-0.3678 0.7632 0.0666 1.6938 0.2496 2.6376 0.4518-0.4314 0.8484-0.9534 1.8768-1.5198 2.994zm2.7942-3.0846c-0.0558-0.012595-0.1104-0.024001-0.16379-0.036-0.156-0.2772 0.4044-1.6818 0.5448-1.9248 0.14761-0.2568 0.477-0.345 0.7338-0.1968 0.234 0.1344 0.3174 0.4146 0.2226 0.6576-0.3072 0.0084-0.6096 0.0648-0.8814 0.1914-0.09 0.041401-0.1296 0.1476-0.08759 0.2376 0.04021 0.0894 0.1482 0.129 0.2376 0.087 0.1512-0.070199 0.318-0.1086 0.4878-0.1332-0.2994 0.3924-0.8112 0.9906-1.0938 1.1172zm3.1572 0.3234c-0.1932 0.2148-1.1658 0.077399-2.244-0.135 0.4614-0.7092 0.7626-1.1772 0.8424-1.3086 0.5958 0.081 1.1628 0.3594 1.4274 0.7176 0.1902 0.2568 0.1818 0.4938-0.0258 0.726z" fill="#000"/>
</svg>
