<svg version="1.1" viewBox="0 0 16 16" xmlns="http://www.w3.org/2000/svg">
 <title>nparkF-s</title>
 <g id="Page-2:-Night" fill="none" fill-rule="evenodd" opacity=".6">
  <g id="nparkF-s" fill-rule="nonzero">
   <circle id="Oval" cx="8" cy="8" r="8" fill="#fff"/>
   <circle id="Oval" cx="8" cy="8" r="7.3333" fill="#507F34"/>
   <path id="Path" d="m10.332 7.8176h0.038793c0.39278 0 0.62069-0.44127 0.39763-0.76131l-2.4634-3.5156c-0.19396-0.2764-0.60129-0.2764-0.79525 0l-2.444 3.5156c-0.22306 0.32004 0.0096982 0.76131 0.40248 0.76131h0.019396l-1.4062 2.1627c-0.21336 0.32004 0.019396 0.74676 0.40733 0.74676h2.4634v0.97952c0 0.52855 0.43157 0.96012 0.96012 0.96012 0.52855 0 0.96012-0.43157 0.96012-0.96012v-0.97952h2.4973c0.38793 0 0.62069-0.43157 0.40248-0.75161l-1.4402-2.1579z" fill="#fff"/>
  </g>
 </g>
</svg>
