<?xml version="1.0" encoding="UTF-8"?>
<svg width="16px" height="16px" viewBox="0 0 16 16" version="1.1" xmlns="http://www.w3.org/2000/svg" xmlns:xlink="http://www.w3.org/1999/xlink">
    <title>nparkF-s</title>
    <g id="Page-2:-Night" stroke="none" stroke-width="1" fill="none" fill-rule="evenodd" opacity="0.6">
        <g id="nparkF-s" fill-rule="nonzero">
            <circle id="Oval" fill="#FFFFFF" cx="8" cy="8" r="8"></circle>
            <circle id="Oval" fill="#507F34" cx="8" cy="8" r="7.33333333"></circle>
            <path d="M10.3315734,7.81755206 L10.3703663,7.81755206 C10.7631446,7.81755206 10.991053,7.37628263 10.7679937,7.05624107 L8.3046435,3.54063298 C8.11067891,3.26423345 7.70335329,3.26423345 7.5093887,3.54063298 L5.06543494,7.05624107 C4.84237567,7.37628263 5.07513317,7.81755206 5.46791145,7.81755206 L5.48730791,7.81755206 L4.08106468,9.98025718 C3.86770363,10.3002987 4.10046114,10.7270208 4.4883903,10.7270208 L6.95174052,10.7270208 L6.95174052,11.706542 C6.95174052,12.2350955 7.38331172,12.6666667 7.91186521,12.6666667 L7.91186521,12.6666667 C8.44041871,12.6666667 8.87198991,12.2350955 8.87198991,11.706542 L8.87198991,10.7270208 L11.3692839,10.7270208 C11.7572131,10.7270208 11.9899706,10.2954496 11.7717604,9.97540806 L10.3315734,7.81755206 Z" id="Path" fill="#FFFFFF"></path>
        </g>
    </g>
</svg>