<svg width="24" height="24" viewBox="0 0 24 24">
  <g fill="none" fill-rule="evenodd">
    <circle cx="12" cy="12" r="12" fill="#FFF" opacity=".4"/>
    <circle cx="12" cy="12" r="11" fill="#304C1F"/>
    <path fill="#FFF" fill-rule="nonzero" d="M13.3055556,6 C11.5,6 10.0555556,7.44444444 10.0555556,9.25 C10.0555556,13.2944444 8.10555556,14.5222222 5,13.9444444 C5,13.9444444 6.77990042,16.4933812 10.3940972,16.8107639 C10.1872578,17.046581 10.1006944,17.2847222 10.1006944,17.2847222 L11.4548611,17.8263889 C11.4548611,17.8263889 11.4271783,17.8381756 11.5225694,17.7586806 C11.6179627,17.6791863 11.7949072,17.5555556 12.2222222,17.5555556 C13.0768516,17.5555556 13.9600694,18.1423611 13.9600694,18.1423611 L14.8177083,16.96875 C14.8177083,16.96875 14.220757,16.5410507 13.3506944,16.2916667 C15.1707363,15.3073991 16.3913677,13.0314523 16.5329861,9.859375 L18,8.88888889 L16.3298611,8.09895833 C15.8655213,6.87430279 14.7004209,6 13.3055556,6 Z M14.3888889,8.16666667 C14.8222222,8.16666667 15.1111111,8.45555556 15.1111111,8.88888889 C15.1111111,9.32222222 14.8222222,9.61111111 14.3888889,9.61111111 C13.9555556,9.61111111 13.6666667,9.32222222 13.6666667,8.88888889 C13.6666667,8.45555556 13.9555556,8.16666667 14.3888889,8.16666667 Z" opacity=".6"/>
  </g>
</svg>
