<?xml version="1.0" encoding="UTF-8" standalone="no"?>
<svg width="27px" height="27px" viewBox="0 0 27 27" version="1.1" xmlns="http://www.w3.org/2000/svg" xmlns:xlink="http://www.w3.org/1999/xlink" xmlns:sketch="http://www.bohemiancoding.com/sketch/ns">
    <!-- Generator: Sketch 3.4.2 (15857) - http://www.bohemiancoding.com/sketch -->
    <title>npark-l</title>
    <desc>Created with Sketch.</desc>
    <defs></defs>
    <g id="POI" stroke="none" stroke-width="1" fill="none" fill-rule="evenodd" sketch:type="MSPage">
        <g id="npark-l" sketch:type="MSLayerGroup">
            <circle id="Oval-1-Copy-44" opacity="0" fill="#FFFFFF" sketch:type="MSShapeGroup" cx="13.5" cy="13.5" r="13.5"></circle>
            <circle id="Oval-1-Copy-45" fill="#153308" sketch:type="MSShapeGroup" cx="13.5" cy="13.5" r="12.5"></circle>
            <path d="M20,13.5002001 C20,12.4301001 19.320222,11.5131001 18.375,11.1565001 C18.76954,10.7145001 19,10.1393001 19,9.50020008 C19,8.11950008 17.880712,7.00020008 16.5,7.00020008 C16.303249,7.00020008 16.121152,7.01920008 15.9375,7.06220008 C15.728193,5.89300008 14.729365,4.99970008 13.5,5.00000008 C12.270635,5.00020008 11.271807,5.89350008 11.0625,7.06270008 C10.878848,7.01970008 10.696751,7.00070008 10.5,7.00070008 C9.119288,7.00070008 8,8.12000008 8,9.50070008 C8,10.1398001 8.23046,10.7150001 8.625,11.1570001 C7.679778,11.5136001 7,12.4301001 7,13.5002001 C7,14.8809001 8,16.0007001 9.5,16.0007001 L10,16.0007001 L12,19.5007001 L12,23.0002001 L15,23.0002001 L15,19.5002001 L17,16.0007001 L17.71875,15.9857001 C19,16.0002001 20,14.8052001 20,13.5002001 L20,13.5002001 Z M12,16.0002001 L15,16.0002001 L14,18.0002001 L13,18.0002001 L12,16.0002001 Z" id="path4390-3-copy" opacity="0.7" fill="#FFFFFF" sketch:type="MSShapeGroup"></path>
        </g>
    </g>
</svg>