<?xml version="1.0" encoding="UTF-8" standalone="no"?>
<svg width="27px" height="27px" viewBox="0 0 27 27" version="1.1" xmlns="http://www.w3.org/2000/svg" xmlns:xlink="http://www.w3.org/1999/xlink">
    <!-- Generator: Sketch 3.8.3 (29802) - http://www.bohemiancoding.com/sketch -->
    <title>office-l</title>
    <desc>Created with Sketch.</desc>
    <defs></defs>
    <g id="POI-NIght" stroke="none" stroke-width="1" fill="none" fill-rule="evenodd">
        <g id="office-l">
            <circle id="Oval-1-Copy-39" fill-opacity="0.1" fill="#FFFFFF" cx="13.5" cy="13.5" r="13.5"></circle>
            <ellipse id="Oval-1-Copy-38" fill="#252522" cx="13.5" cy="13.5" rx="12.5" ry="12.5"></ellipse>
            <path d="M21,8 L17,8 L17,6 C17,5.447 16.552,5 16,5 L11,5 C10.448,5 10,5.447 10,6 L10,8 L6,8 C5.448,8 5,8.447 5,9 L5,19 C5,19.553 5.448,20 6,20 L21,20 C21.552,20 22,19.553 22,19 L22,9 C22,8.447 21.552,8 21,8 L21,8 Z M9,19 L8,19 L8,9 L9,9 L9,19 Z M16,8 L11,8 L11,6 L16,6 L16,8 Z M19,19 L18,19 L18,9 L19,9 L19,19 Z" id="path19" fill-opacity="0.7" fill="#FFFFFF"></path>
        </g>
    </g>
</svg>