<svg height="24" viewBox="0 0 24 24" width="24"><g fill="none" fill-rule="evenodd"><circle cx="12" cy="12" fill="#fff" opacity=".4" r="12"/><circle cx="12" cy="12" fill="#3d3d36" r="11"/><path d="m17.0769231 7.81818182h-2.7692308v-.90909091c0-.50272727-.4135385-.90909091-.9230769-.90909091h-2.7692308c-.5095384 0-.92307691.40636364-.92307691.90909091v.90909091h-2.76923077c-.50953846 0-.92307692.40636363-.92307692.90909091v6.36363637c0 .5027273.41353846.9090909.92307692.9090909h10.15384618c.5095384 0 .9230769-.4063636.9230769-.9090909v-6.36363637c0-.50272728-.4135385-.90909091-.9230769-.90909091zm-6.4615385-.90909091h2.7692308v.90909091h-2.7692308zm-1.84615383 8.18181819h-.92307692v-6.36363637h.92307692zm7.38461543 0h-.923077v-6.36363637h.923077z" fill="#fff" opacity=".6"/></g></svg>