<?xml version="1.0" encoding="UTF-8" standalone="no"?>
<svg width="23px" height="23px" viewBox="0 0 23 23" version="1.1" xmlns="http://www.w3.org/2000/svg" xmlns:xlink="http://www.w3.org/1999/xlink">
    <!-- Generator: Sketch 3.8.3 (29802) - http://www.bohemiancoding.com/sketch -->
    <title>olympic-ship-m</title>
    <desc>Created with Sketch.</desc>
    <defs>
        <rect id="path-1" x="0" y="0" width="21" height="21" rx="2"></rect>
        <mask id="mask-2" maskContentUnits="userSpaceOnUse" maskUnits="objectBoundingBox" x="0" y="0" width="21" height="21" fill="white">
            <use xlink:href="#path-1"></use>
        </mask>
        <linearGradient x1="50%" y1="0%" x2="50%" y2="100%" id="linearGradient-3">
            <stop stop-color="#4FC7F3" offset="0%"></stop>
            <stop stop-color="#286EB4" offset="100%"></stop>
        </linearGradient>
        <path d="M9,3 C8.5,3 8,3.5 8,4 L6.82354,4 C6.3673,4 5.9706,4.5438 5.9706,5 L6,8.5 L4,9.5 L6,13 L6,14.5 L8.5,15.5 L10.5,14.5 L12.5,15.5 L15,14.5 L15,13 L17,9.5 L15,8.5 L15,5 C15,4.5438 14.63271,4 14.17647,4 L13,4 C13,3.5 12.5,3 12,3 L9,3 Z M7,5 L14,5 L14,8.0441 L10.5,6 L7,8.0441 L7,5 Z M6,16 L4,17 L4,18.5 L6,17.5 L8.5,18.5 L10.5,17.5 L12.5,18.5 L15,17.6466 L17,18.5 L17,17 L15,16 L12.5,17 L10.5,16 L8.5,17 L6,16 Z" id="path-4"></path>
    </defs>
    <g id="POI-Clear" stroke="none" stroke-width="1" fill="none" fill-rule="evenodd">
        <g id="Artboard-4" transform="translate(-251.000000, -138.000000)">
            <g id="ship-m" transform="translate(252.000000, 139.000000)">
                <use id="Rectangle-211" stroke="#2568AA" mask="url(#mask-2)" stroke-width="2" fill="#FFFFFF" xlink:href="#path-1"></use>
                <g id="path30964-copy">
                    <use fill="url(#linearGradient-3)" xlink:href="#path-4"></use>
                    <use fill-opacity="0.6" fill="#2568AA" xlink:href="#path-4"></use>
                </g>
            </g>
        </g>
    </g>
</svg>