<?xml version="1.0" encoding="UTF-8" standalone="no"?>
<svg width="27px" height="27px" viewBox="0 0 27 27" version="1.1" xmlns="http://www.w3.org/2000/svg" xmlns:xlink="http://www.w3.org/1999/xlink">
    <!-- Generator: Sketch 3.8.3 (29802) - http://www.bohemiancoding.com/sketch -->
    <title>olympic-train-l</title>
    <desc>Created with Sketch.</desc>
    <defs>
        <rect id="path-1" x="0" y="0" width="25" height="25" rx="3"></rect>
        <mask id="mask-2" maskContentUnits="userSpaceOnUse" maskUnits="objectBoundingBox" x="0" y="0" width="25" height="25" fill="white">
            <use xlink:href="#path-1"></use>
        </mask>
        <linearGradient x1="50%" y1="0%" x2="50%" y2="100%" id="linearGradient-3">
            <stop stop-color="#4FC7F3" offset="0%"></stop>
            <stop stop-color="#286EB4" offset="100%"></stop>
        </linearGradient>
        <path d="M10.25,18 L11,18 L9.46311476,21 L15.5368852,21 L14,18 L14.75,18 L13,18 L10.25,18 Z M9.31250001,18 L9.12500001,18 L6.00000001,24 L7.875,24.1 L8.4385246,23 L16.5614754,23 L17.125,24.1 L19,24 L15.875,18 L15.6875,18 L18,18 C18.5,18 19,17.5 19,17 L19,6.9955775 C19,6.44573523 18.6321411,5.75476074 18.1643327,5.4428885 L16.8356673,4.5571115 C16.374141,4.24942732 15.5621186,4 14.9970707,4 L10.0029293,4 C9.44902676,4 8.63214111,4.24523926 8.16433275,4.5571115 L6.83566725,5.4428885 C6.37414097,5.75057268 6,6.44483697 6,6.9955775 L6,17 C6,17.5 6.5,18 7,18 L9.31250001,18 Z M9.10529494,6.44735253 C9.5994269,6.20028655 10.4437166,6 10.9998075,6 L14.0001925,6 C14.5523709,6 15.4047298,6.20236492 15.8947051,6.44735253 L16.1052949,6.55264747 C16.5994269,6.79971345 17,7.44335318 17,8.0093689 L17,9.9906311 C17,10.5480902 16.5536886,11 16.0024554,11 L8.99754465,11 C8.44661595,11 8,10.5566468 8,9.9906311 L8,8.0093689 C8,7.45190985 8.40472984,6.79763508 8.89470506,6.55264747 L9.10529494,6.44735253 Z M9,14 C9.554,14 10,14.446 10,15 C10,15.554 9.554,16 9,16 C8.446,16 8,15.554 8,15 C8,14.446 8.446,14 9,14 Z M16,14 C16.554,14 17,14.446 17,15 C17,15.554 16.554,16 16,16 C15.446,16 15,15.554 15,15 C15,14.446 15.446,14 16,14 Z" id="path-4"></path>
    </defs>
    <g id="POI-Clear" stroke="none" stroke-width="1" fill="none" fill-rule="evenodd">
        <g id="Artboard-4" transform="translate(-214.000000, -288.000000)">
            <g id="train-l" transform="translate(215.000000, 289.000000)">
                <use id="Rectangle-211" stroke="#2568AA" mask="url(#mask-2)" stroke-width="2" fill="#FFFFFF" xlink:href="#path-1"></use>
                <g id="Combined-Shape">
                    <use fill="url(#linearGradient-3)" xlink:href="#path-4"></use>
                    <use fill-opacity="0.6" fill="#2568AA" xlink:href="#path-4"></use>
                </g>
                <g id="g24855" transform="translate(6.000000, 4.000000)"></g>
            </g>
        </g>
    </g>
</svg>