<?xml version="1.0" encoding="UTF-8" standalone="no"?>
<svg width="27px" height="27px" viewBox="0 0 27 27" version="1.1" xmlns="http://www.w3.org/2000/svg" xmlns:xlink="http://www.w3.org/1999/xlink">
    <!-- Generator: Sketch 3.8.3 (29802) - http://www.bohemiancoding.com/sketch -->
    <title>olympic-cable-car-l</title>
    <desc>Created with Sketch.</desc>
    <defs>
        <rect id="path-1" x="0" y="0" width="25" height="25" rx="3"></rect>
        <mask id="mask-2" maskContentUnits="userSpaceOnUse" maskUnits="objectBoundingBox" x="0" y="0" width="25" height="25" fill="white">
            <use xlink:href="#path-1"></use>
        </mask>
        <linearGradient x1="50%" y1="0%" x2="50%" y2="100%" id="linearGradient-3">
            <stop stop-color="#4FC7F3" offset="0%"></stop>
            <stop stop-color="#286EB4" offset="100%"></stop>
        </linearGradient>
        <path d="M13.357121,4.91071975 L14.4619459,6.99771849 L12.6126744,7 L11.7108116,5.32229711 L5,7 L5,5 L17,2 L17,4 L13.357121,4.91071975 Z M13.4043846,9 L14.9970707,9 C15.5621186,9 16.374141,9.24942732 16.8356673,9.5571115 L18.1643327,10.4428885 C18.6321411,10.7547607 19,11.4456547 19,11.9953976 L19,21 C19,21.5 18.5,22 18,22 L15.5,22 L13,22 L9.5,22 L7,22 C6.5,22 6,21.5 6,21 L6,11.9953976 C6,11.4556644 6.37414097,10.7505727 6.83566725,10.4428885 L8.16433275,9.5571115 C8.63214111,9.24523926 9.44902676,9 10.0029293,9 L11.5375581,9 L12.6126744,7 L14.4619459,7.00228151 L13.4043846,9 Z M9.10529494,11.4473525 C9.5994269,11.2002865 10.4437166,11 10.9998075,11 L14.0001925,11 C14.5523709,11 15.4047298,11.2023649 15.8947051,11.4473525 L16.1052949,11.5526475 C16.5994269,11.7997135 17,12.4433532 17,13.0093689 L17,14.9906311 C17,15.5480902 16.5536886,16 16.0024554,16 L8.99754465,16 C8.44661595,16 8,15.5566468 8,14.9906311 L8,13.0093689 C8,12.4519098 8.40472984,11.7976351 8.89470506,11.5526475 L9.10529494,11.4473525 Z M12,11 L13,11 L13,16 L12,16 L12,11 Z" id="path-4"></path>
    </defs>
    <g id="POI-Clear" stroke="none" stroke-width="1" fill="none" fill-rule="evenodd">
        <g id="Artboard-4" transform="translate(-214.000000, -325.000000)">
            <g id="cable-car-l" transform="translate(215.000000, 326.000000)">
                <use id="Rectangle-211" stroke="#2568AA" mask="url(#mask-2)" stroke-width="2" fill="#FFFFFF" xlink:href="#path-1"></use>
                <g id="Combined-Shape">
                    <use fill="url(#linearGradient-3)" xlink:href="#path-4"></use>
                    <use fill-opacity="0.6" fill="#2568AA" xlink:href="#path-4"></use>
                </g>
            </g>
        </g>
    </g>
</svg>