<?xml version="1.0" encoding="UTF-8" standalone="no"?>
<svg width="17px" height="17px" viewBox="0 0 17 17" version="1.1" xmlns="http://www.w3.org/2000/svg" xmlns:xlink="http://www.w3.org/1999/xlink">
    <!-- Generator: Sketch 3.8.3 (29802) - http://www.bohemiancoding.com/sketch -->
    <title>olympic-tourism-s</title>
    <desc>Created with Sketch.</desc>
    <defs>
        <path d="M7.5,15 C11.6421356,15 15,11.6421356 15,7.5 C15,3.35786438 11.6421356,0 7.5,0 C3.35786438,0 0,3.35786438 0,7.5 C0,11.6421356 3.35786438,15 7.5,15 Z" id="path-1"></path>
        <mask id="mask-2" maskContentUnits="userSpaceOnUse" maskUnits="objectBoundingBox" x="0" y="0" width="15" height="15" fill="white">
            <use xlink:href="#path-1"></use>
        </mask>
        <linearGradient x1="50%" y1="0%" x2="50%" y2="100%" id="linearGradient-3">
            <stop stop-color="#FCB131" offset="0%"></stop>
            <stop stop-color="#F34320" offset="100%"></stop>
        </linearGradient>
        <polygon id="path-4" points="4.71590909 11 7.5 9.63129973 10.2840909 11 9.75 8.10344828 12 6.05570292 8.88636364 5.63129973 7.5 3 6.11363636 5.63129973 3 6.05570292 5.25 8.10344828"></polygon>
    </defs>
    <g id="POI-Clear" stroke="none" stroke-width="1" fill="none" fill-rule="evenodd">
        <g id="Artboard-4" transform="translate(-141.000000, -176.000000)">
            <g id="wayside_shrine-s" transform="translate(142.000000, 177.000000)">
                <use id="Oval" stroke="#E74A20" mask="url(#mask-2)" stroke-width="2" fill="#FFFFFF" xlink:href="#path-1"></use>
                <g id="Shape">
                    <use fill="url(#linearGradient-3)" xlink:href="#path-4"></use>
                    <use fill-opacity="0.75" fill="#E74A20" xlink:href="#path-4"></use>
                </g>
            </g>
        </g>
    </g>
</svg>