<?xml version="1.0" encoding="UTF-8" standalone="no"?>
<svg width="23px" height="23px" viewBox="0 0 23 23" version="1.1" xmlns="http://www.w3.org/2000/svg" xmlns:xlink="http://www.w3.org/1999/xlink">
    <!-- Generator: Sketch 3.8.3 (29802) - http://www.bohemiancoding.com/sketch -->
    <title>olympic-center-m</title>
    <desc>Created with Sketch.</desc>
    <defs>
        <path d="M21,10.5 C21,16.299 16.299,21 10.5,21 C4.701,21 0,16.299 0,10.5 C0,4.701 4.701,0 10.5,0 C16.299,0 21,4.701 21,10.5 L21,10.5 Z" id="path-1"></path>
        <mask id="mask-2" maskContentUnits="userSpaceOnUse" maskUnits="objectBoundingBox" x="0" y="0" width="21" height="21" fill="white">
            <use xlink:href="#path-1"></use>
        </mask>
        <linearGradient x1="50%" y1="0%" x2="50%" y2="100%" id="linearGradient-3">
            <stop stop-color="#4FC7F3" offset="0%"></stop>
            <stop stop-color="#286EB4" offset="100%"></stop>
        </linearGradient>
        <path d="M15.05,9.5 L15.05,8.2 L15.7,8.2 L15.7,6.9 L11.15,6.9 L11.15,5.6 L13.75,5.6 L13.75,3.65 L11.15,3.65 L11.15,3 L9.85,3 L9.85,6.9 L5.3,6.9 L5.3,8.2 L5.95,8.2 L5.95,9.5 L4,9.5 L4,16 L17,16 L17,9.5 L15.05,9.5 L15.05,9.5 Z M7.25,14.7 L5.95,14.7 L5.95,13.4 L7.25,13.4 L7.25,14.7 L7.25,14.7 Z M7.25,12.1 L5.95,12.1 L5.95,10.8 L7.25,10.8 L7.25,12.1 L7.25,12.1 Z M9.85,14.7 L8.55,14.7 L8.55,13.4 L9.85,13.4 L9.85,14.7 L9.85,14.7 Z M9.85,12.1 L8.55,12.1 L8.55,10.8 L9.85,10.8 L9.85,12.1 L9.85,12.1 Z M12.45,14.7 L11.15,14.7 L11.15,13.4 L12.45,13.4 L12.45,14.7 L12.45,14.7 Z M12.45,12.1 L11.15,12.1 L11.15,10.8 L12.45,10.8 L12.45,12.1 L12.45,12.1 Z M15.05,14.7 L13.75,14.7 L13.75,13.4 L15.05,13.4 L15.05,14.7 L15.05,14.7 Z M15.05,12.1 L13.75,12.1 L13.75,10.8 L15.05,10.8 L15.05,12.1 L15.05,12.1 Z" id="path-4"></path>
    </defs>
    <g id="POI-Clear" stroke="none" stroke-width="1" fill="none" fill-rule="evenodd">
        <g id="Artboard-4" transform="translate(-107.000000, -134.000000)">
            <g id="wayside_shrine-m" transform="translate(108.000000, 135.000000)">
                <use id="Shape" stroke="#2568AA" mask="url(#mask-2)" stroke-width="2" fill="#FFFFFF" xlink:href="#path-1"></use>
                <g id="Shape">
                    <use fill="url(#linearGradient-3)" xlink:href="#path-4"></use>
                    <use fill-opacity="0.6" fill="#2568AA" xlink:href="#path-4"></use>
                </g>
            </g>
        </g>
    </g>
</svg>