<?xml version="1.0" encoding="UTF-8" standalone="no"?>
<svg width="27px" height="27px" viewBox="0 0 27 27" version="1.1" xmlns="http://www.w3.org/2000/svg" xmlns:xlink="http://www.w3.org/1999/xlink">
    <!-- Generator: Sketch 3.8.3 (29802) - http://www.bohemiancoding.com/sketch -->
    <title>olympic-cycle-l</title>
    <desc>Created with Sketch.</desc>
    <defs>
        <path d="M25,12.5 C25,19.403 19.403,25 12.5,25 C5.597,25 0,19.403 0,12.5 C0,5.597 5.597,0 12.5,0 C19.403,0 25,5.597 25,12.5 L25,12.5 Z" id="path-1"></path>
        <mask id="mask-2" maskContentUnits="userSpaceOnUse" maskUnits="objectBoundingBox" x="0" y="0" width="25" height="25" fill="white">
            <use xlink:href="#path-1"></use>
        </mask>
        <linearGradient x1="50%" y1="0%" x2="50%" y2="100%" id="linearGradient-3">
            <stop stop-color="#A6CE39" offset="0%"></stop>
            <stop stop-color="#009D57" offset="100%"></stop>
        </linearGradient>
        <path d="M8,12.248 C6.344,12.248 5,13.592 5,15.248 C5,16.904 6.344,18.248 8,18.248 C9.656,18.248 11,16.904 11,15.248 C11,13.596 9.656,12.248 8,12.248 L8,12.248 Z M8,16.748 C7.172,16.748 6.5,16.076 6.5,15.248 C6.5,14.42 7.172,13.748 8,13.748 C8.828,13.748 9.5,14.424 9.5,15.248 C9.5,16.076 8.828,16.748 8,16.748 Z M17,12.248 C15.344,12.248 14,13.592 14,15.248 C14,16.904 15.344,18.248 17,18.248 C18.656,18.248 20,16.904 20,15.248 C20,13.596 18.656,12.248 17,12.248 Z M17,16.748 C16.172,16.748 15.5,16.076 15.5,15.248 C15.5,14.42 16.172,13.748 17,13.748 C17.828,13.748 18.5,14.424 18.5,15.248 C18.5,16.076 17.828,16.748 17,16.748 Z M12.576,14.168 L14.604,11.4 C14.732,11.224 14.78,11.004 14.732,10.792 C14.684,10.58 14.548,10.4 14.36,10.296 L12.436,9.244 L15.04,9.244 L15.956,11.08 C16.14,11.452 16.592,11.6 16.964,11.416 C17.336,11.232 17.484,10.78 17.3,10.408 L16.176,8.156 C16.048,7.9 15.788,7.74 15.504,7.74 L9.5,7.74 C9.432,7.74 9.368,7.752 9.304,7.768 C9.288,7.772 9.276,7.78 9.264,7.784 C9.196,7.808 9.128,7.84 9.068,7.884 C9.052,7.896 9.04,7.904 9.024,7.916 C8.972,7.96 8.92,8.012 8.88,8.072 C8.872,8.084 8.868,8.1 8.856,8.116 C8.852,8.124 8.844,8.128 8.84,8.132 C8.836,8.14 8.836,8.152 8.832,8.16 C8.792,8.24 8.764,8.324 8.752,8.412 L8.752,8.424 C8.744,8.504 8.756,8.588 8.776,8.668 C8.78,8.688 8.784,8.704 8.792,8.724 C8.796,8.74 8.796,8.756 8.804,8.768 L11.804,16.268 C11.92,16.56 12.204,16.74 12.5,16.74 C12.592,16.74 12.688,16.724 12.78,16.688 C13.164,16.536 13.352,16.096 13.2,15.712 L12.576,14.168 Z M11.92,12.528 L10.972,10.156 L12.888,11.204 L11.92,12.528 Z M18.876,9.248 C19.4967681,9.248 20,8.74476806 20,8.124 C20,7.50323194 19.4967681,7 18.876,7 C18.2552319,7 17.752,7.50323194 17.752,8.124 C17.752,8.74476806 18.2552319,9.248 18.876,9.248 Z" id="path-4"></path>
    </defs>
    <g id="POI-Clear" stroke="none" stroke-width="1" fill="none" fill-rule="evenodd">
        <g id="Artboard-4" transform="translate(-70.000000, -288.000000)">
            <g id="wayside_shrine-l" transform="translate(71.000000, 289.000000)">
                <use id="Shape" stroke="#098F4C" mask="url(#mask-2)" stroke-width="2" fill="#FFFFFF" xlink:href="#path-1"></use>
                <g id="Combined-Shape">
                    <use fill="url(#linearGradient-3)" xlink:href="#path-4"></use>
                    <use fill-opacity="0.7" fill="#098F4C" xlink:href="#path-4"></use>
                </g>
            </g>
        </g>
    </g>
</svg>