<?xml version="1.0" encoding="UTF-8" standalone="no"?>
<svg width="23px" height="23px" viewBox="0 0 23 23" version="1.1" xmlns="http://www.w3.org/2000/svg" xmlns:xlink="http://www.w3.org/1999/xlink">
    <!-- Generator: Sketch 3.8.3 (29802) - http://www.bohemiancoding.com/sketch -->
    <title>olympic-stadium-main-m</title>
    <desc>Created with Sketch.</desc>
    <defs>
        <path d="M21,10.5 C21,16.299 16.299,21 10.5,21 C4.701,21 0,16.299 0,10.5 C0,4.701 4.701,0 10.5,0 C16.299,0 21,4.701 21,10.5 L21,10.5 Z" id="path-1"></path>
        <mask id="mask-2" maskContentUnits="userSpaceOnUse" maskUnits="objectBoundingBox" x="0" y="0" width="21" height="21" fill="white">
            <use xlink:href="#path-1"></use>
        </mask>
        <linearGradient x1="50%" y1="0%" x2="50%" y2="100%" id="linearGradient-3">
            <stop stop-color="#A6CE39" offset="0%"></stop>
            <stop stop-color="#009D57" offset="100%"></stop>
        </linearGradient>
        <path d="M12,5.86330785 L12,6.84518416 C14.592628,7.03362209 16.5853865,7.69977093 16.9427258,8.525 L17,8.525 L17,12.8583333 L16.9397179,12.8583333 C16.5649725,13.9058448 14.4824032,15.8070267 11.8,16.3026305 L11.8,14.2266817 C11.8,13.9480835 11.5755576,13.725 11.2986938,13.725 L9.70130615,13.725 C9.42167454,13.725 9.2,13.9496106 9.2,14.2266817 L9.2,16.3026305 C6.51759676,15.8070267 4.43502752,13.9058448 4.06028211,12.8583333 L4,12.8583333 L4,8.525 L4.05727424,8.525 C4.41461348,7.69977093 6.40737195,7.03362209 9,6.84518416 L9,5.86481354 C8.41202929,5.9271044 8,6 8,6 L8,4.22222222 C8,4.22222222 9.25,4 10.5,4 C11.75,4 13,4.22222222 13,4.22222222 L13,6 C13,6 12.5890263,5.92592332 12,5.86330785 Z M11.25,5.80073998 L11.25,6.80483645 C11.0039181,6.7961373 10.7536558,6.79166667 10.5,6.79166667 C10.2463442,6.79166667 9.99608187,6.7961373 9.75,6.80483645 L9.75,5.80197788 C9.99666521,5.78712186 10.2541424,5.77777778 10.5115967,5.77777778 C10.7618243,5.77777778 11.0111523,5.78660465 11.25,5.80073998 Z M10.5,10.6916667 C13.6112041,10.6916667 16.1333333,10.0126319 16.1333333,9.175 C16.1333333,8.33736813 13.6112041,7.65833333 10.5,7.65833333 C7.38879591,7.65833333 4.86666667,8.33736813 4.86666667,9.175 C4.86666667,10.0126319 7.38879591,10.6916667 10.5,10.6916667 Z M8.33333333,8.95833333 L12.6666667,8.95833333 L13.7848592,9.98284505 C13.7848592,9.98284505 12.1070979,10.2145874 10.5,10.2145874 C8.89290214,10.2145874 7.29030762,9.98284505 7.29030762,9.98284505 L8.33333333,8.95833333 Z" id="path-4"></path>
    </defs>
    <g id="POI-Clear" stroke="none" stroke-width="1" fill="none" fill-rule="evenodd">
        <g id="Artboard-4" transform="translate(-108.000000, -369.000000)">
            <g id="wayside_shrine-m" transform="translate(109.000000, 370.000000)">
                <use id="Shape" stroke="#098F4C" mask="url(#mask-2)" stroke-width="2" fill="#FFFFFF" xlink:href="#path-1"></use>
                <g id="Combined-Shape">
                    <use fill="url(#linearGradient-3)" xlink:href="#path-4"></use>
                    <use fill-opacity="0.7" fill="#098F4C" xlink:href="#path-4"></use>
                </g>
            </g>
        </g>
    </g>
</svg>