<?xml version="1.0" encoding="UTF-8" standalone="no"?>
<svg width="17px" height="17px" viewBox="0 0 17 17" version="1.1" xmlns="http://www.w3.org/2000/svg" xmlns:xlink="http://www.w3.org/1999/xlink">
    <!-- Generator: Sketch 3.8.3 (29802) - http://www.bohemiancoding.com/sketch -->
    <title>olympic-ship-s</title>
    <desc>Created with Sketch.</desc>
    <defs>
        <rect id="path-1" x="0" y="0" width="15" height="15" rx="1"></rect>
        <mask id="mask-2" maskContentUnits="userSpaceOnUse" maskUnits="objectBoundingBox" x="0" y="0" width="15" height="15" fill="white">
            <use xlink:href="#path-1"></use>
        </mask>
        <linearGradient x1="50%" y1="0%" x2="50%" y2="100%" id="linearGradient-3">
            <stop stop-color="#4FC7F3" offset="0%"></stop>
            <stop stop-color="#286EB4" offset="100%"></stop>
        </linearGradient>
        <path d="M4.5,2.5 C4.223,2.5 4,2.723 4,3 L4,6.5 L3,7 L4,9 L4,10 L6,10.5 L7.5,10 L9,10.5 L11,10 L11,9 L12,7 L11,6.5313 L11,3 C11,2.723 10.777,2.5 10.5,2.5 L9.5,2.5 L5.5,2.5 L4.5,2.5 Z M5,3.5 L10,3.5 L10,6.0625 L7.5,4.5 L5,6 L5,3.5 Z M4.5,10.9995 L3,11.4683 L3,12.4995 L3.15625,12.4375 L4.5,12 L6,12.5 L7.5,12 L9,12.5 L10.5,12 L12,12.5 L12,11.4688 L10.5,11 L9,11.4688 L7.5,11 L6,11.4688 L4.5,10.9995 Z" id="path-4"></path>
    </defs>
    <g id="POI-Clear" stroke="none" stroke-width="1" fill="none" fill-rule="evenodd">
        <g id="Artboard-4" transform="translate(-284.000000, -141.000000)">
            <g id="ship-s" transform="translate(285.000000, 142.000000)">
                <use id="Rectangle-211" stroke="#2568AA" mask="url(#mask-2)" stroke-width="2" fill="#FFFFFF" xlink:href="#path-1"></use>
                <g id="path30937-copy">
                    <use fill="url(#linearGradient-3)" xlink:href="#path-4"></use>
                    <use fill-opacity="0.6" fill="#2568AA" xlink:href="#path-4"></use>
                </g>
            </g>
        </g>
    </g>
</svg>