<?xml version="1.0" encoding="UTF-8" standalone="no"?>
<svg width="23px" height="23px" viewBox="0 0 23 23" version="1.1" xmlns="http://www.w3.org/2000/svg" xmlns:xlink="http://www.w3.org/1999/xlink" xmlns:sketch="http://www.bohemiancoding.com/sketch/ns">
    <!-- Generator: Sketch 3.4.2 (15857) - http://www.bohemiancoding.com/sketch -->
    <title>optician-m</title>
    <desc>Created with Sketch.</desc>
    <defs>
        <path id="path-1" d="M22,11.5 C22,17.299 17.299,22 11.5,22 C5.701,22 1,17.299 1,11.5 C1,5.701 5.701,1 11.5,1 C17.299,1 22,5.701 22,11.5 L22,11.5 Z"></path>
    </defs>
    <g id="POI" stroke="none" stroke-width="1" fill="none" fill-rule="evenodd" sketch:type="MSPage">
        <g id="optician-m" sketch:type="MSLayerGroup">
            <path d="M11.5,23 C5.159,23 0,17.841 0,11.5 C0,5.159 5.159,0 11.5,0 C17.841,0 23,5.159 23,11.5 C23,17.841 17.841,23 11.5,23 L11.5,23 Z" id="Shape" opacity="0" fill="#FFFFFF" sketch:type="MSShapeGroup"></path>
            <g id="Shape">
                <use fill="#3D3D37" fill-rule="evenodd" sketch:type="MSShapeGroup" xlink:href="#path-1"></use>
                <use fill="none" xlink:href="#path-1"></use>
            </g>
            <path d="M18.862,9 L13.334,5.353 C13.149,5.237 13,5.32 13,5.539 L13,6.091 C13,6.309 13.151,6.576 13.338,6.689 L16.508,9.001 L5.974,9.001 L6.37,8.792 L9.662,6.311 C9.849,6.199 10.001,6.01 10.001,5.792 L10.001,5.24 C10.001,5.022 9.851,4.939 9.666,5.054 L4,8.791 L4,13.104 C4,14.01 5.548,14.85 7.157,14.85 C8.696,14.85 10.292,14.083 10.645,11.873 C10.697,11.546 10.743,11.26 10.784,11.001 L12.216,11.001 C12.258,11.26 12.303,11.546 12.356,11.873 C12.71,14.083 14.305,14.85 15.844,14.85 C17.452,14.85 19,14.011 19,13.104 L19,9 L18.862,9 L18.862,9 Z M9.164,11.635 C9.097,12.059 8.891,13.349 7.157,13.349 C6.356,13.349 5.73,13.055 5.5,12.875 L5.5,10.5 L9.346,10.5 C9.295,10.819 9.234,11.194 9.164,11.635 L9.164,11.635 Z M17.5,12.875 C17.27,13.055 16.644,13.349 15.844,13.349 C14.111,13.349 13.905,12.059 13.837,11.635 C13.767,11.194 13.706,10.819 13.655,10.5 L17.5,10.5 L17.5,12.875 L17.5,12.875 Z" id="Shape" opacity="0.7" fill="#FFFFFF" sketch:type="MSShapeGroup"></path>
        </g>
    </g>
</svg>