<?xml version="1.0" encoding="UTF-8" standalone="no"?>
<svg width="27px" height="27px" viewBox="0 0 27 27" version="1.1" xmlns="http://www.w3.org/2000/svg" xmlns:xlink="http://www.w3.org/1999/xlink" xmlns:sketch="http://www.bohemiancoding.com/sketch/ns">
    <!-- Generator: Sketch 3.4.2 (15857) - http://www.bohemiancoding.com/sketch -->
    <title>optician-l</title>
    <desc>Created with Sketch.</desc>
    <defs>
        <path id="path-1" d="M26,13.5 C26,20.403 20.403,26 13.5,26 C6.597,26 1,20.403 1,13.5 C1,6.597 6.597,1 13.5,1 C20.403,1 26,6.597 26,13.5 L26,13.5 Z"></path>
    </defs>
    <g id="POI" stroke="none" stroke-width="1" fill="none" fill-rule="evenodd" sketch:type="MSPage">
        <g id="optician-l" sketch:type="MSLayerGroup">
            <path d="M13.5,27 C6.057,27 0,20.943 0,13.5 C0,6.056 6.057,0 13.5,0 C20.943,0 27,6.056 27,13.5 C27,20.943 20.943,27 13.5,27 L13.5,27 Z" id="Shape" opacity="0" fill="#FFFFFF" sketch:type="MSShapeGroup"></path>
            <g id="Shape">
                <use fill="#33332E" fill-rule="evenodd" sketch:type="MSShapeGroup" xlink:href="#path-1"></use>
                <use fill="none" xlink:href="#path-1"></use>
            </g>
            <path d="M15.424,6.265 C15.19,6.119 15,6.223 15,6.5 L15,7.2 C15,7.476 15.192,7.815 15.429,7.957 L20,11 L7,11 L11.571,7.857 C11.807,7.715 12,7.476 12,7.2 L12,6.5 C12,6.224 11.811,6.119 11.576,6.265 L4,11 L4,16 C4,17.104 5.96,18.127 7.999,18.127 C9.948,18.127 11.97,17.192 12.417,14.5 C12.516,13.906 12.598,13.414 12.666,13 L14.334,13 C14.402,13.414 14.484,13.906 14.583,14.5 C15.03,17.192 17.052,18.127 19.001,18.127 C21.04,18.127 23,17.105 23,16 L23,11 L15.424,6.265 L15.424,6.265 Z M10.444,14.172 C10.363,14.655 10.119,16.127 7.999,16.127 C7.061,16.127 6.32,15.823 6,15.612 L6,13 L10.639,13 C10.582,13.341 10.518,13.729 10.444,14.172 L10.444,14.172 Z M21,15.612 C20.68,15.822 19.938,16.127 19.001,16.127 C16.881,16.127 16.637,14.656 16.556,14.172 C16.483,13.729 16.418,13.34 16.362,13 L21,13 L21,15.612 L21,15.612 Z" id="Shape" opacity="0.7" fill="#FFFFFF" sketch:type="MSShapeGroup"></path>
        </g>
    </g>
</svg>