<svg width="28" height="28" viewBox="0 0 28 28">
  <g fill="none" fill-rule="evenodd">
    <circle cx="14" cy="14" r="14" fill="#FFF" opacity=".4"/>
    <circle cx="14" cy="14" r="13" fill="#4E3551"/>
    <path fill="#FFF" d="M15.8227368,7.06640579 C15.6010526,6.91952459 15.4210526,7.0241523 15.4210526,7.30282416 L15.4210526,8.00704907 C15.4210526,8.28471489 15.6029474,8.62576096 15.8274737,8.76861802 L20.1578947,11.8299843 L7.84210526,11.8299843 L12.1725263,8.66801446 C12.3961053,8.5251574 12.5789474,8.28471489 12.5789474,8.00704907 L12.5789474,7.30282416 C12.5789474,7.02515833 12.3998947,6.91952459 12.1772632,7.06640579 L5,11.8299843 L5,16.8601623 C5,17.9708256 6.85684211,19 8.78852632,19 C10.6349474,19 12.5505263,18.0593567 12.974,15.3511089 C13.0677895,14.7535238 13.1454737,14.2585542 13.2098947,13.8420555 L14.7901053,13.8420555 C14.8545263,14.2585542 14.9322105,14.7535238 15.026,15.3511089 C15.4494737,18.0593567 17.3650526,19 19.2114737,19 C21.1431579,19 23,17.9718316 23,16.8601623 L23,11.8299843 L15.8227368,7.06640579 L15.8227368,7.06640579 Z M11.1048421,15.0211292 C11.0281053,15.5070444 10.7969474,16.9879288 8.78852632,16.9879288 C7.89989474,16.9879288 7.19789474,16.682094 6.89473684,16.4698205 L6.89473684,13.8420555 L11.2895789,13.8420555 C11.2355789,14.1851137 11.1749474,14.5754555 11.1048421,15.0211292 L11.1048421,15.0211292 Z M21.1052632,16.4698205 C20.8021053,16.681088 20.0991579,16.9879288 19.2114737,16.9879288 C17.2030526,16.9879288 16.9718947,15.5080505 16.8951579,15.0211292 C16.826,14.5754555 16.7644211,14.1841076 16.7113684,13.8420555 L21.1052632,13.8420555 L21.1052632,16.4698205 L21.1052632,16.4698205 Z" opacity=".6"/>
  </g>
</svg>
