<svg width="16" height="16" viewBox="0 0 16 16">
  <g fill="none" fill-rule="evenodd">
    <circle cx="8" cy="8" r="8" fill="#FFF" opacity=".4"/>
    <circle cx="8" cy="8" r="7" fill="#4E3551"/>
    <path fill="#FFF" fill-rule="nonzero" d="M8.4430164,4 C7.97228893,4 7.59068853,4.3581722 7.59068853,4.8 C7.59068853,5.2418278 7.97228893,5.6 8.4430164,5.6 C8.91374387,5.6 9.29534427,5.2418278 9.29534427,4.8 C9.29534427,4.3581722 8.91374387,4 8.4430164,4 Z M6.57854919,5.6375 C6.00322788,5.699375 5.47851354,6.06 5.28673977,6.6 L5.03370493,7.4 C4.90585575,7.76 5.15622706,8.155 5.5397746,8.275 C5.96593854,8.395 6.35747665,8.2 6.48532583,7.8 L7.1645246,5.675 C6.97275083,5.625 6.77032296,5.616875 6.57854919,5.6375 Z M7.55073566,5.7375 L7.29770083,6.5 L7.32433607,6.5125 L6.8182664,8.125 C6.73303362,8.445 6.86887337,8.7625 7.12457173,8.9625 L8.37642828,9.9125 C8.42137153,10.002812 8.4430164,10.1017776 8.4430164,10.2 L8.4430164,12 L9.29534427,12 L9.29534427,10.2 C9.29534427,9.8711112 9.18015514,9.5461036 8.94908607,9.275 L8.93576845,9.2625 L8.11007583,8.3625 L8.52292214,7 C8.53695231,7.01237396 8.54898036,7.02445828 8.56287501,7.0375 L8.9091332,7.3625 C9.18004647,7.6167808 9.57440451,7.6976144 9.8946373,7.6375 L10.5738361,7.5125 L10.5738361,12 L11,12 L11,6 L10.5738361,6 L10.5738361,6.6875 L9.7215082,6.85 C9.61557706,6.86988552 9.57844411,6.86571908 9.50842623,6.8 L9.48179099,6.775 L9.17548566,6.475 C8.87398107,6.19200608 8.50350611,5.9986696 8.0967582,5.9 L8.08344058,5.9 L7.55073566,5.7375 Z M6.91148976,9.4375 L5.92598567,12 L6.8182664,12 L7.59068853,10 L6.91148976,9.4375 Z" opacity=".6"/>
  </g>
</svg>
