<svg version="1.1" viewBox="0 0 24 24" xml:space="preserve" xmlns="http://www.w3.org/2000/svg">
<g fill="none" fill-rule="evenodd" opacity=".6"><g id="tennis-m" fill-rule="nonzero"><g id="Group" transform="translate(5 5)" fill="#fff"><g transform="matrix(1.2858 0 0 1.2858 -1.9355 -2.0018)" fill="#fff"><path d="m10.818 10.182c0.33727 0 0.66182 0.13364 0.89727 0.37546 0.49636 0.49636 0.49636 1.3045 0 1.8009-0.23546 0.23545-0.56 0.36909-0.89727 0.36909s-0.66182-0.13364-0.89727-0.37546c-0.49636-0.49636-0.49636-1.3045 0-1.8009 0.23545-0.23545 0.56-0.36909 0.89727-0.36909m0-1.2727c-0.64909 0-1.3045 0.24818-1.8009 0.74455-0.99273 0.99273-0.99273 2.6027 0 3.6018 0.49636 0.49636 1.1518 0.74454 1.8009 0.74454s1.3045-0.24818 1.8009-0.74454c0.99273-0.99273 0.99273-2.6027 0-3.6018-0.49636-0.49636-1.1518-0.74455-1.8009-0.74455z" fill="#fff"/></g></g></g></g><path d="m6.2703 13.138 0.60389-2.4108c0.33214-1.3259 0.62962-2.544 0.66108-2.7068 0.29299-1.5168 1.1936-3.0978 2.6613-4.6717 0.82563-0.88535 1.2874-1.2245 2.029-1.4902 1.0927-0.3915 2.1548-0.23984 3.4006 0.48559 0.64748 0.37704 1.0532 0.69989 1.81 1.4405 0.89937 0.87982 1.3826 1.5013 1.7625 2.2661 0.73524 1.4802 0.62214 2.8112-0.35125 4.1335-0.24381 0.33121-1.2616 1.32-1.7451 1.6954-0.88835 0.6897-1.6476 1.1461-2.4752 1.4878-0.36402 0.1503-1.127 0.38604-1.2929 0.39943-0.04132 0.0034-1.2026 0.32394-2.5806 0.71244l-2.5055 0.70637-3.3589 3.4541-2.0614-1.9911zm4.5003-4.9687 0.39866-0.40654-0.81307-0.79731-0.79732 0.81307 0.81307 0.79731zm1.6261 1.5946 0.39866-0.40654-0.81307-0.79731-0.79732 0.81307 0.81307 0.79731zm1.6261 1.5946 0.39866-0.40654-0.81307-0.79731-0.79732 0.81307 0.81307 0.79731zm-1.6577-4.8154 0.39866-0.40654-0.81307-0.79731-0.79732 0.81307 0.81308 0.79732zm1.6261 1.5946 0.39866-0.40654-0.81307-0.79731-0.79732 0.81308 0.81307 0.79731zm1.6261 1.5946 0.39866-0.40654-0.81307-0.79731-0.79732 0.81307 0.81308 0.79732zm-1.6577-4.8154 0.39866-0.40654-0.81307-0.79731-0.79732 0.81307 0.81307 0.79731zm1.6261 1.5946 0.39866-0.40654-0.81307-0.79731-0.79731 0.81307 0.81307 0.79731zm1.6261 1.5946 0.39866-0.40654-0.81307-0.79731-0.79732 0.81307 0.81307 0.79731z" fill="#fff" opacity=".6" stroke-width=".037959"/>
</svg>
