<svg width="24" height="24" viewBox="0 0 24 24">
  <g fill="none" fill-rule="evenodd">
    <circle cx="12" cy="12" r="12" fill="#FFF" opacity=".4"/>
    <circle cx="12" cy="12" r="11" fill="#304C1F"/>
    <path fill="#FFF" d="M17,12 C17,11 15.8888889,10 15.3333333,10 C15.6742889,9.6563 16.0123111,8.9972 16.0123111,8.5001 C16.0123111,7.4263 14.7777778,6.5 13.6666667,6.5 C13.6666667,5.5 13.1111111,5 12,5 C10.8888889,5 10.3333333,5.5 10.3333333,6.5 C9.22222222,6.5 7.98768889,7.4266 7.98768889,8.5005 C7.98768889,8.9976 8.32571111,9.6563 8.66666667,10 C8.11111111,10 7,11 7,12 C7,13 7.55555556,14.056 9.28396667,14.056 L9.71606667,14.056 L9.77773333,15 L11.4444,16.5 L11.4443556,19 L12.5554667,19 L12.5555111,16.4996 L14.2221778,15 L14.2838444,14.056 L14.9049778,14.044 C16.4444444,14 17,13 17,12 L17,12 Z M10.8888889,14 L13.1111111,14 L13.1111111,14.5 L12,15.5 L10.8888889,14.5 L10.8888889,14 Z" opacity=".6"/>
  </g>
</svg>
