<?xml version="1.0" encoding="UTF-8"?>
<svg version="1.1" viewBox="0 0 24 24" xmlns="http://www.w3.org/2000/svg">
	<path d="m4.74 1a0.77 0.77 0 0 0-0.77 0.77v20.46a0.77 0.77 0 0 0 0.77 0.77h6.6a0.77 0.77 0 0 0 0.77-0.77v-5.6833c2.1144-0.12222 4.0578-0.63556 5.5-1.9189a7.7489 7.7489 0 0 0 2.42-5.9644c0-2.2489-0.69667-4.3633-2.3222-5.7567-1.5889-1.3811-3.74-1.9067-6.1111-1.9067z" fill="#111" opacity=".6" stroke-width="1.2222"/>
	<path d="m6.06 3.09v17.82h3.96v-6.3556h1.3078c2.1144 0 3.7644-0.48889 4.9011-1.4911 1.1611-1.0144 1.7111-2.4933 1.7111-4.4 0-1.8456-0.51333-3.2511-1.5889-4.18-1.0878-0.94111-2.6889-1.3933-4.7667-1.3933h-5.5122zm3.96 3.1167h1.4178c0.97778 0 1.6744 0.19556 2.1267 0.61111 0.46444 0.42778 0.69667 1.0633 0.69667 1.9556 0 0.86778-0.24444 1.54-0.80667 2.0044-0.55 0.45222-1.3933 0.72111-2.5056 0.72111h-0.92889z" fill="#2e89b0" stroke-width="1.2222"/>
</svg>
