<svg version="1.1" viewBox="0 0 20 20" xmlns="http://www.w3.org/2000/svg">
 <title>parking_pay-m</title>
 <g id="Page-2:-Night" fill="none" fill-rule="evenodd" opacity=".6">
  <g id="parking_pay-m" fill-rule="nonzero">
   <rect id="Rectangle" width="20" height="20" rx="2.5" fill="#fff"/>
   <rect id="Rectangle" x="1" y="1" width="18" height="18" rx="2" fill="#2E89B0"/>
   <path id="Shape" d="m12.5 13.133c0.14674-0.084519 0.31737-0.13287 0.50013-0.13287 0.55228 0 1 0.44386 1 1 0 0.55228-0.44386 1-1 1-0.18209 0-0.35282-0.048251-0.49987-0.13287-0.14674 0.084519-0.31737 0.13287-0.50013 0.13287-0.55228 0-1-0.44386-1-1 0-0.55228 0.44386-1 1-1 0.18209 0 0.35282 0.048251 0.49987 0.13287zm-6.4999-7.1329h2.7945c1.0449 9e-5 1.8553 0.23148 2.3974 0.70317 0.54604 0.46755 0.80812 1.1783 0.80812 2.1093 0 0.96804-0.2806 1.7092-0.86199 2.2219-0.57747 0.51273-1.4097 0.75933-2.4782 0.75933h-0.65979v3.2062h-2v-9zm2 1.575v2.6719h0.47122c0.56174 0 0.98713-0.13599 1.266-0.36567 0.27891-0.23382 0.40406-0.56952 0.40406-1.0125 0-0.44703-0.11449-0.77103-0.35018-0.98433-0.23177-0.21321-0.57859-0.30942-1.0775-0.30942h-0.71366z" fill="#fff"/>
  </g>
 </g>
</svg>
