<?xml version="1.0" encoding="UTF-8" standalone="no"?>
<svg width="27px" height="27px" viewBox="0 0 27 27" version="1.1" xmlns="http://www.w3.org/2000/svg" xmlns:xlink="http://www.w3.org/1999/xlink" xmlns:sketch="http://www.bohemiancoding.com/sketch/ns">
    <!-- Generator: Sketch 3.4.2 (15857) - http://www.bohemiancoding.com/sketch -->
    <title>parking-meter-l</title>
    <desc>Created with Sketch.</desc>
    <defs>
        <path id="path-1" d="M26,13.5 C26,20.403 20.403,26 13.5,26 C6.597,26 1,20.403 1,13.5 C1,6.597 6.597,1 13.5,1 C20.403,1 26,6.597 26,13.5 L26,13.5 Z"></path>
    </defs>
    <g id="POI" stroke="none" stroke-width="1" fill="none" fill-rule="evenodd" sketch:type="MSPage">
        <g id="parking-meter-l" sketch:type="MSLayerGroup">
            <path d="M13.5,27 C6.056,27 0,20.943 0,13.5 C0,6.057 6.056,0 13.5,0 C20.944,0 27,6.057 27,13.5 C27,20.943 20.944,27 13.5,27 L13.5,27 Z" id="Shape" opacity="0" fill="#FFFFFF" sketch:type="MSShapeGroup"></path>
            <g id="Shape">
                <use fill="#33332E" fill-rule="evenodd" sketch:type="MSShapeGroup" xlink:href="#path-1"></use>
                <use fill="none" xlink:href="#path-1"></use>
            </g>
            <path d="M15,14 L13,14 L13,16 L15,16 C15.551,16 16,15.552 16,15 C16,14.448 15.551,14 15,14 L15,14 Z M20,8 L19,8 L19,10 L8,10 L8,8 L7,8 C6.448,8 6,8.447 6,9 L6,20 C6,21.104 6.896,22 8,22 L19,22 C20.104,22 21,21.104 21,20 L21,9 C21,8.447 20.552,8 20,8 L20,8 Z M15,18 L13,18 L13,20 L11,20 L11,12 L15,12 C16.654,12 18,13.346 18,15 C18,16.654 16.654,18 15,18 L15,18 Z M16.65,9 C16.868,8.544 17,8.039 17,7.5 C17,5.567 15.433,4 13.5,4 C11.567,4 10,5.567 10,7.5 C10,8.039 10.132,8.544 10.35,9 L16.65,9 L16.65,9 Z" id="Shape" opacity="0.7" fill="#FFFFFF" sketch:type="MSShapeGroup"></path>
        </g>
    </g>
</svg>