<svg width="16" height="16" viewBox="0 0 16 16">
  <g fill="#FFF" fill-rule="evenodd">
    <circle cx="8" cy="8" r="8" opacity=".1"/>
    <path fill-rule="nonzero" d="M8.00006852,3 C6.34592632,3 5,4.26536608 5,5.82078705 C5,6.00646857 5.01973459,6.1880267 5.0563258,6.36378631 C5.05742217,6.37319279 5.0563258,6.38259928 5.05797035,6.39200577 L5.82748224,10.8201428 C5.86667733,11.0460274 6.07430164,11.2118651 6.31769489,11.2118651 L9.68244216,11.2118651 C9.92583541,11.2118651 10.1334597,11.0460274 10.1726548,10.8200139 L10.9420296,6.39187692 C10.9436742,6.38259928 10.9425778,6.37319279 10.9436742,6.36391516 C10.9804025,6.1880267 11,6.00659743 11,5.82078705 C11.000137,4.26536608 9.65421073,3 8.00006852,3 Z M6.096366,5.82078705 C6.096366,5.81163828 6.09773646,5.80261835 6.09787351,5.79346958 L6.09787351,5.73123212 C6.15132135,4.78607324 6.98250383,4.03097699 7.99993148,4.03097699 C9.01735913,4.03097699 9.8485416,4.78607324 9.89870035,5.73123212 L9.90390809,5.86769064 L6.09787351,5.86769064 L6.09787351,5.84823338 C6.09773646,5.83882689 6.096366,5.82993583 6.096366,5.82078705 Z M9.02791165,11.6126073 L9.02791165,13 L6.97222539,13 L6.97222539,11.6126073 L9.02791165,11.6126073 Z" opacity=".6"/>
  </g>
</svg>
