<?xml version="1.0" encoding="UTF-8" standalone="no"?>
<svg width="21px" height="21px" viewBox="0 0 21 21" version="1.1" xmlns="http://www.w3.org/2000/svg" xmlns:xlink="http://www.w3.org/1999/xlink" xmlns:sketch="http://www.bohemiancoding.com/sketch/ns">
    <!-- Generator: Sketch 3.4.2 (15857) - http://www.bohemiancoding.com/sketch -->
    <title>parking-l</title>
    <desc>Created with Sketch.</desc>
    <defs></defs>
    <g id="Other" stroke="none" stroke-width="1" fill="none" fill-rule="evenodd" sketch:type="MSPage">
        <g id="parking-l" sketch:type="MSLayerGroup">
            <rect id="Rectangle-346-Copy-3" opacity="0" fill="#FFFFFF" sketch:type="MSShapeGroup" x="0" y="0" width="21" height="21" rx="2"></rect>
            <rect id="Rectangle-346" fill="#0F2940" sketch:type="MSShapeGroup" x="1" y="1" width="19" height="19" rx="2"></rect>
            <path d="M9.42187501,10.3749332 L10.2187499,10.3749332 C10.9635366,10.3749332 11.5208272,10.2291999 11.8906245,9.93746654 C12.2604099,9.64066655 12.4453059,9.21093323 12.4453125,8.64839991 C12.4453059,8.08066659 12.2890552,7.6614666 11.9765619,7.39053327 C11.6692645,7.11973328 11.1848899,6.98439995 10.5234374,6.98439995 L9.42187501,6.98439995 L9.42187501,10.3749332 M14.8906245,8.56253324 C14.8906151,9.79159988 14.5051991,10.7317332 13.7343752,11.3827998 C12.9687419,12.0338665 11.8775979,12.3593331 10.4609374,12.3593331 L9.42187501,12.3593331 L9.42187501,16.4218664 L7,16.4218664 L7,5 L10.6484374,5 C12.0338472,5 13.0859298,5.29946666 13.8046872,5.89839998 C14.5286365,6.4921333 14.8906151,7.38013327 14.8906245,8.56253324" id="path15189-copy" opacity="0.7" fill="#FFFFFF" sketch:type="MSShapeGroup"></path>
        </g>
    </g>
</svg>