<?xml version="1.0" encoding="UTF-8"?>
<svg width="24px" height="24px" viewBox="0 0 24 24" version="1.1" xmlns="http://www.w3.org/2000/svg" xmlns:xlink="http://www.w3.org/1999/xlink">
    <title>park-m</title>
    <g id="Page-2:-Night" stroke="none" stroke-width="1" fill="none" fill-rule="evenodd" opacity="0.6">
        <g id="park-m" fill-rule="nonzero">
            <circle id="Oval" fill="#FFFFFF" cx="12" cy="12" r="12"></circle>
            <circle id="Oval" fill="#507F34" cx="12" cy="12" r="11"></circle>
            <path d="M10.6666667,19 L10.6666667,15.6897 C10.3017333,15.8187333 9.90911111,15.8888889 9.5,15.8888889 C7.56700444,15.8888889 6,14.3219 6,12.3888889 C6,11.4046889 6.40621778,10.5153778 7.06012667,9.87949778 C6.87840667,9.4562 6.77777778,8.98985222 6.77777778,8.5 C6.77777778,6.56700444 8.34478222,5 10.2777778,5 C11.4932111,5 12.5639,5.61953111 13.1914111,6.56003556 C13.2568222,6.55705667 13.3227,6.55555556 13.3888889,6.55555556 C15.7514667,6.55555556 17.6666667,8.47077889 17.6666667,10.8333333 C17.6666667,13.1959111 15.7514667,15.1111111 13.3888889,15.1111111 C12.9844444,15.1111111 12.5930667,15.0549556 12.2222222,14.9501111 L12.2222222,19 L10.6666667,19 Z" id="Path" fill="#FFFFFF"></path>
        </g>
    </g>
</svg>