<svg height="24" viewBox="0 0 24 24" width="24"><g fill="#fff" fill-rule="evenodd"><circle cx="12" cy="12" opacity=".1" r="12"/><path d="m12.0001028 4c-2.48121333 0-4.5001028 2.02458573-4.5001028 4.51325928 0 .29709044.02960188.58758344.08448871.86879881.00164454.01505038 0 .03010076.00246682.04515115l1.15426783 7.08501916c.05879263.3614154.3702291.6267557.73531898.6267557h5.04712086c.3650899 0 .6765264-.2653403.735319-.6269618l1.1540623-7.08501923c.0024668-.01484422.0008222-.0298946.0024668-.04473881.0550924-.28142154.0844887-.57170838.0844887-.86900498.0002056-2.48867355-2.0186839-4.51325928-4.4998972-4.51325928zm-2.85555379 4.51325928c0-.01463804.00205568-.02906991.00226125-.04370796v-.09957993c.08017176-1.5122542 1.32694544-2.72040821 2.85308694-2.72040821s2.7729152 1.20815401 2.8481533 2.72040821l.0078116.21833364h-1.936662c0-.50944515-.4115484-.92219674-.9195085-.92219674-.5075489 0-.9195084.41275159-.9195084.92219674h-1.93337294v-.03113162c-.00020557-.01505038-.00226125-.02927608-.00226125-.04391413zm4.46680069 4.10174472-1.6589388-1.6639951c-.2008406-.2014277-.5260501-.2014277-.7266851 0-.2008406.2012216-.2008406.5275881 0 .7288097l1.6587332 1.6637889c-.698111.3845063-1.5927457.2816277-2.1845778-.3117285-.71825675-.7203567-.71764005-1.8883076 0-2.6080458.7182568-.72035666 1.8821864-.72035666 2.6004431 0 .5918321.5935624.694822 1.4906064.3110254 2.1911708zm-2.3007241 2.6936062c0-.3822385.3089697-.691493.6894772-.691493.3811242 0 .6894772.3094606.6894772.691493 0 .3820323-.3085586.6914929-.6894772.6914929-.3807131 0-.6894772-.3096668-.6894772-.6914929zm2.2312419 2.4715614v2.2198284h-3.0835294v-2.2198284z" fill-rule="nonzero" opacity=".6"/></g></svg>