<?xml version="1.0" encoding="UTF-8"?>
<svg version="1.1" viewBox="0 0 16 16" xmlns="http://www.w3.org/2000/svg">
  <title>park-outline-s</title>
  <g id="park-outline-s" opacity="0.6">
    <path
      d="m6.8516 2.084c-1.9641 0-3.584 1.6197-3.584 3.584 0 0.23062 0.092451 0.43391 0.13477 0.6543-0.37652 0.56882-0.65234 1.2111-0.65234 1.9375 0 1.797 1.3765 3.2426 3.1113 3.4863v0.92188c-6.99e-5 0.04109 0.00189 0.08215 0.00586 0.12305 0.06333 0.63963 0.60138 1.127 1.2441 1.127h1.0371c0.69033-6.9e-5 1.2499-0.55967 1.25-1.25v-1.4395c2.021-0.24725 3.6289-1.9225 3.6289-4.0059 0-2.1158-1.6548-3.8198-3.7207-4.0234-0.64973-0.64411-1.4764-1.1152-2.4551-1.1152z"
      fill="#111" />
    <path
      d="m7.1111 12.667v-2.2069c-0.24329 0.08602-0.50504 0.13279-0.77778 0.13279-1.2887 0-2.3333-1.0447-2.3333-2.3333 0-0.65613 0.27081-1.249 0.70675-1.6729-0.12115-0.2822-0.18823-0.5931-0.18823-0.91967 0-1.2887 1.0447-2.3333 2.3333-2.3333 0.81029 0 1.5241 0.41302 1.9424 1.04 0.043607-0.00199 0.087526-0.00299 0.13165-0.00299 1.5751 0 2.8519 1.2768 2.8519 2.8519s-1.2768 2.8519-2.8519 2.8519c-0.26963 0-0.53055-0.03744-0.77778-0.10733v2.6999h-1.037z"
      fill="#507f34" />
  </g>
</svg>