<?xml version="1.0" encoding="UTF-8"?>
<svg version="1.1" viewBox="0 0 24 24" xmlns="http://www.w3.org/2000/svg">
	<title>parking_entrance-m</title>
	<path transform="translate(-.062485 .37491)" d="m1.4922 0.56259a0.77 0.77 0 0 0-0.76953 0.76953v20.459a0.77 0.77 0 0 0 0.76953 0.77148h6.5996a0.77 0.77 0 0 0 0.76953-0.77148v-4.6191a1.887 1.887 0 0 0 0.71289 1.166l6.4082 4.8066a1.887 1.887 0 0 0 3.0195-1.5098v-1.3262h3.1055a1.887 1.887 0 0 0 1.8867-1.8867v-3.1973a1.887 1.887 0 0 0-1.8867-1.8867h-3.1055v-1.3164a1.887 1.887 0 0 0-1.043-1.6875 1.887 1.887 0 0 0-1.3516-0.11328 7.749 7.749 0 0 0 0.17383-1.9961c0-2.249-0.69531-4.3629-2.3203-5.7559-1.59-1.381-3.7403-1.9062-6.1113-1.9062h-6.8574zm7.4746 15.537a1.887 1.887 0 0 0-0.10547 0.38477v-0.375c0.03552-0.002067 0.070046-0.007477 0.10547-0.009766z" fill="#111" opacity=".6"/>
	<path d="m2.75 3.0273v17.82h3.959v-6.3574h1.3086c2.114 0 3.7644-0.48824 4.9004-1.4902 1.162-1.015 1.7109-2.4924 1.7109-4.3984 0-1.846-0.51189-3.2517-1.5879-4.1797-1.088-0.942-2.6896-1.3945-4.7676-1.3945h-5.5117-0.011719zm3.959 3.1172h1.418c0.978 0 1.675 0.19438 2.127 0.60938 0.465 0.429 0.69727 1.0631 0.69727 1.9551 0 0.868-0.24364 1.5409-0.80664 2.0059-0.55 0.452-1.3939 0.7207-2.5059 0.7207h-0.92969v-5.291zm10.344 6.252-6.4082 4.8047 6.4082 4.8066v-3.2109h4.9922v-3.1973h-4.9922v-3.2031z" fill="#2e89b0"/>
</svg>
