<svg version="1.1" viewBox="0 0 16 16" xmlns="http://www.w3.org/2000/svg">
	<title>parking-m</title>
	<path d="m2.9146 0.29457a0.54039 0.54039 0 0 0-0.53958 0.53958v14.332a0.54039 0.54039 0 0 0 0.53958 0.53958h4.6214a0.54039 0.54039 0 0 0 0.53958-0.53958v-3.9803c1.4789-0.08352 2.8404-0.44315 3.8584-1.3456a0.54039 0.54039 0 0 0 0.0023-0.00454c1.1616-1.0264 1.6887-2.5428 1.6887-4.1767 0-1.5721-0.48795-3.0522-1.6278-4.0322-1.1147-0.96811-2.6195-1.3319-4.2828-1.332z" fill="#111" opacity=".6"/>
	<path d="m3.8374 1.7578v12.484h2.7742v-4.4474h0.9152c1.4821 0 2.6366-0.34206 3.4375-1.0533 0.80645-0.71121 1.1957-1.7393 1.1957-3.082 0-1.2915-0.36353-2.2774-1.121-2.9258-0.75197-0.65429-1.8761-0.97525-3.3255-0.97538h-3.8763zm2.7742 2.1847h0.98993c0.69202 0 1.1731 0.13345 1.4946 0.4292 0.32693 0.29587 0.48574 0.7453 0.48574 1.3654 0 0.61446-0.1736 1.0801-0.56048 1.4045-0.38689 0.31859-0.97696 0.50723-1.7561 0.50723h-0.65364v-3.7062z" fill="#2e89b0"/>
</svg>
