<svg version="1.1" viewBox="0 0 24 24" xmlns="http://www.w3.org/2000/svg">
 <title>parking-meter-m</title>
 <g id="Page-2:-Night" fill="none" opacity=".6">
  <g id="parking-meter-m" fill="#FFF">
   <path d="m12 4c-2.4812 0-4.5001 2.0246-4.5001 4.5133 0 0.29709 0.029602 0.58758 0.084489 0.8688 0.0016445 0.01505 0 0.030101 0.0024668 0.045151l1.1543 7.085c0.058793 0.36142 0.37023 0.62676 0.73532 0.62676h5.0471c0.36509 0 0.67653-0.26534 0.73532-0.62696l1.1541-7.085c0.0024668-0.014844 8.222e-4 -0.029895 0.0024668-0.044739 0.055092-0.28142 0.084489-0.57171 0.084489-0.869 2.056e-4 -2.4887-2.0187-4.5133-4.4999-4.5133zm-2.8556 4.5133c0-0.014638 0.0020557-0.02907 0.0022612-0.043708v-0.09958c0.080172-1.5123 1.3269-2.7204 2.8531-2.7204s2.7729 1.2082 2.8482 2.7204l0.0078116 0.21833h-1.9367c0-0.50945-0.41155-0.9222-0.91951-0.9222-0.50755 0-0.91951 0.41275-0.91951 0.9222h-1.9334v-0.031132c-2.0557e-4 -0.01505-0.0022612-0.029276-0.0022612-0.043914zm4.4668 4.1017-1.6589-1.664c-0.20084-0.20143-0.52605-0.20143-0.72669 0-0.20084 0.20122-0.20084 0.52759 0 0.72881l1.6587 1.6638c-0.69811 0.38451-1.5927 0.28163-2.1846-0.31173-0.71826-0.72036-0.71764-1.8883 0-2.608 0.71826-0.72036 1.8822-0.72036 2.6004 0 0.59183 0.59356 0.69482 1.4906 0.31103 2.1912zm-2.3007 2.6936c0-0.38224 0.30897-0.69149 0.68948-0.69149 0.38112 0 0.68948 0.30946 0.68948 0.69149 0 0.38203-0.30856 0.69149-0.68948 0.69149-0.38071 0-0.68948-0.30967-0.68948-0.69149zm2.2312 2.4716v2.2198h-3.0835v-2.2198h3.0835z"/>
  </g>
 </g>
</svg>
