<?xml version="1.0" encoding="UTF-8" standalone="no"?>
<svg width="23px" height="23px" viewBox="0 0 23 23" version="1.1" xmlns="http://www.w3.org/2000/svg" xmlns:xlink="http://www.w3.org/1999/xlink">
    <!-- Generator: Sketch 3.8.3 (29802) - http://www.bohemiancoding.com/sketch -->
    <title>parking-meter-m</title>
    <desc>Created with Sketch.</desc>
    <defs></defs>
    <g id="POI-NIght" stroke="none" stroke-width="1" fill="none" fill-rule="evenodd">
        <g id="parking-meter-m" fill="#252522">
            <path d="M12.464,12 L11,12 L11,13.07 L12.464,13.07 C12.759,13.07 13,12.83 13,12.535 C13,12.24 12.76,12 12.464,12 L12.464,12 Z M17.134,7 L16,7 L16,9 L7,9 L7,7 L5.867,7 C5.388,7 5,7.389 5,7.867 L5,16.267 C5,17.224 5.776,17.999 6.733,17.999 L16.266,17.999 C17.224,17.999 17.999,17.224 17.999,16.267 L17.999,7.867 C18,7.389 17.612,7 17.134,7 L17.134,7 Z M12.464,15.07 L11,15.07 L11,17 L9,17 L9,10 L12.464,10 C13.862,10 15,11.138 15,12.535 C15,13.932 13.862,15.07 12.464,15.07 L12.464,15.07 Z M9.511,8 C9.195,7.581 9,7.065 9,6.5 C9,5.12 10.12,4 11.5,4 C12.881,4 14,5.12 14,6.5 C14,7.065 13.806,7.581 13.489,8 L9.511,8 L9.511,8 Z" id="Shape"></path>
        </g>
    </g>
</svg>