<?xml version="1.0" encoding="UTF-8" standalone="no"?>
<svg width="16px" height="16px" viewBox="0 0 16 16" version="1.1" xmlns="http://www.w3.org/2000/svg" xmlns:xlink="http://www.w3.org/1999/xlink" xmlns:sketch="http://www.bohemiancoding.com/sketch/ns">
    <!-- Generator: Sketch 3.4.2 (15857) - http://www.bohemiancoding.com/sketch -->
    <title>parking-m</title>
    <desc>Created with Sketch.</desc>
    <defs></defs>
    <g id="Other" stroke="none" stroke-width="1" fill="none" fill-rule="evenodd" sketch:type="MSPage">
        <g id="parking-m" sketch:type="MSLayerGroup">
            <rect id="Rectangle-346-Copy-4" opacity="0" fill="#FFFFFF" sketch:type="MSShapeGroup" x="0" y="0" width="16" height="16" rx="2"></rect>
            <rect id="Rectangle-346-Copy" fill="#0F2940" sketch:type="MSShapeGroup" x="1" y="1" width="14" height="14" rx="2"></rect>
            <path d="M5,4 L5,13 L7,13 L7,9.79375 L7.65978507,9.79375 C8.72829181,9.79375 9.56053545,9.54715 10.138009,9.03442 C10.7193961,8.52169 10.9999914,7.78054 11,6.8125 C10.9999914,5.88145 10.7379203,5.17072 10.1918835,4.70317 C9.64976876,4.23148 8.83941106,4.00009 7.79447115,4 L5,4 Z M7,5.575 L7.7136595,5.575 C8.212554,5.575 8.55937606,5.67121 8.79114819,5.88442 C9.02684238,6.09772 9.14132339,6.42172 9.14133201,6.86875 C9.14132339,7.31173 9.01617955,7.64743 8.73727376,7.88125 C8.45835072,8.11093 8.03296681,8.24692 7.47122455,8.24692 L7,8.24692 L7,5.575 Z" id="path8599-0-copy-2" opacity="0.7" fill="#FFFFFF" sketch:type="MSShapeGroup"></path>
        </g>
    </g>
</svg>