<svg height="20" viewBox="0 0 20 20" width="20"><g fill="none" fill-rule="evenodd"><rect fill="#fff" height="20" opacity=".4" rx="2.5" width="20"/><rect fill="#216380" height="18" rx="2" width="18" x="1" y="1"/><path d="m12.4998737 13.1328674c.14674-.0845192.3173712-.1328674.5001263-.1328674.5522847 0 1 .4438648 1 1 0 .5522847-.4438648 1-1 1-.1820914 0-.3528155-.0482507-.4998737-.1328674-.14674.0845192-.3173712.1328674-.5001263.1328674-.5522847 0-1-.4438648-1-1 0-.5522847.4438648-1 1-1 .1820914 0 .3528155.0482507.4998737.1328674zm-6.4998737-7.1328674h2.79447115c1.04493991.00009 1.85529765.23148 2.39741235.70317.5460368.46755.8081079 1.17828.8081165 2.10933-.0000086.96804-.2806039 1.70919-.861991 2.22192-.5774735.51273-1.40971719.75933-2.47822393.75933h-.65978507v3.20625h-2zm2 1.575v2.67192h.47122455c.56174226 0 .98712617-.13599 1.26604921-.36567.27890574-.23382.40404964-.56952.40405824-1.0125-.0000086-.44703-.1144896-.77103-.35018381-.98433-.23177213-.21321-.57859419-.30942-1.07748869-.30942z" fill="#fff" opacity=".6"/></g></svg>