<svg width="24" height="24" viewBox="0 0 24 24">
  <g fill="none" fill-rule="evenodd">
    <rect width="24" height="24" fill="#FFF" opacity=".4" rx="3.5"/>
    <rect width="22" height="22" x="1" y="1" fill="#21637F" rx="3"/>
    <path fill="#FFF" d="M15.5,16.3819467 C15.7653782,16.1444268 16.1158228,16 16.5,16 C17.3284271,16 18,16.6715729 18,17.5 C18,18.3284271 17.3284271,19 16.5,19 C16.1158228,19 15.7653782,18.8555732 15.5,18.6180533 C15.2346218,18.8555732 14.8841772,19 14.5,19 C13.6715729,19 13,18.3284271 13,17.5 C13,16.6715729 13.6715729,16 14.5,16 C14.8841772,16 15.2346218,16.1444268 15.5,16.3819467 Z M14.8906245,9.56253324 C14.8906151,10.7915999 14.5051991,11.7317332 13.7343752,12.3827998 C12.9687419,13.0338665 11.8775979,13.3593331 10.4609374,13.3593331 L9.42187501,13.3593331 L9.42187501,17.4218664 L7,17.4218664 L7,6 L10.6484374,6 C12.0338472,6 13.0859298,6.29946666 13.8046872,6.89839998 C14.5286365,7.4921333 14.8906151,8.38013327 14.8906245,9.56253324 Z M9.42187501,11.3749332 L10.2187499,11.3749332 C10.9635366,11.3749332 11.5208272,11.2291999 11.8906245,10.9374665 C12.2604099,10.6406666 12.4453059,10.2109332 12.4453125,9.64839991 C12.4453059,9.08066659 12.2890552,8.6614666 11.9765619,8.39053327 C11.6692645,8.11973328 11.1848899,7.98439995 10.5234374,7.98439995 L9.42187501,7.98439995 L9.42187501,11.3749332 Z" opacity=".6"/>
  </g>
</svg>
