<svg width="12" height="12" viewBox="0 0 12 12">
  <g fill="none" fill-rule="evenodd">
    <rect width="12" height="12" fill="#FFF" opacity=".4" rx="1.5"/>
    <rect width="10" height="10" x="1" y="1" fill="#21637F" rx="1"/>
    <path fill="#FFF" d="M6.0776,6.1354 C6.51206,6.1354 6.83715,6.0504 7.05286,5.8802 C7.26857,5.707 7.37642,5.4564 7.37643,5.1283 C7.37642,4.7971 7.28533,4.5525 7.10299,4.3945 C6.92373,4.2365 6.64118,4.1576 6.25533,4.1575 L5.41276,4.1575 L5.41276,6.1354 L6.0776,6.1354 Z M8.02838,6.7233 C7.58176,7.1031 6.94526,7.293 6.11888,7.293 L5.41276,7.293 L5.41276,10 L4,10 L4,3 L6.22825,3 C7.03641,3 7.65012,3.1747 8.0694,3.5241 C8.4917,3.8704 8.70285,4.3885 8.70286,5.0781 C8.70285,5.7951 8.47803,6.3435 8.02838,6.7233 Z" opacity=".6"/>
  </g>
</svg>
