<?xml version="1.0" encoding="UTF-8"?>
<svg width="20px" height="20px" viewBox="0 0 20 20" version="1.1" xmlns="http://www.w3.org/2000/svg" xmlns:xlink="http://www.w3.org/1999/xlink">
    <title>parking_pay-m</title>
    <g id="Page-2:-Night" stroke="none" stroke-width="1" fill="none" fill-rule="evenodd" opacity="0.6">
        <g id="parking_pay-m" fill-rule="nonzero">
            <rect id="Rectangle" fill="#FFFFFF" x="0" y="0" width="20" height="20" rx="2.5"></rect>
            <rect id="Rectangle" fill="#2E89B0" x="1" y="1" width="18" height="18" rx="2"></rect>
            <path d="M12.4998737,13.1328674 C12.6466137,13.0483482 12.8172449,13 13,13 C13.5522847,13 14,13.4438648 14,14 C14,14.5522847 13.5561352,15 13,15 C12.8179086,15 12.6471845,14.9517493 12.5001263,14.8671326 C12.3533863,14.9516518 12.1827551,15 12,15 C11.4477153,15 11,14.5561352 11,14 C11,13.4477153 11.4438648,13 12,13 C12.1820914,13 12.3528155,13.0482507 12.4998737,13.1328674 Z M6,6 L8.79447115,6 C9.83941106,6.00009 10.6497688,6.23148 11.1918835,6.70317 C11.7379203,7.17072 12,7.88145 12,8.8125 C12,9.78054 11.7193961,10.52169 11.138009,11.03442 C10.5605355,11.54715 9.72829181,11.79375 8.65978507,11.79375 L8,11.79375 L8,15 L6,15 L6,6 Z M8,7.575 L8,10.24692 L8.47122455,10.24692 C9.03296681,10.24692 9.45835072,10.11093 9.73727376,9.88125 C10.0161795,9.64743 10.141332,9.31173 10.141332,8.86875 C10.141332,8.42172 10.0268424,8.09772 9.79114819,7.88442 C9.55937606,7.67121 9.212554,7.575 8.7136595,7.575 L8,7.575 Z" id="Shape" fill="#FFFFFF"></path>
        </g>
    </g>
</svg>