<svg height="20" viewBox="0 0 20 20" width="20"><g fill="none" fill-rule="evenodd"><rect fill="#fff" height="20" opacity=".4" rx="2.5" width="20"/><rect fill="#216380" height="18" rx="2" width="18" x="1" y="1"/><path d="m7 6v9h2v-3.20625h.65978507c1.06850673 0 1.90075043-.2466 2.47822393-.75933.5813871-.51273.8619824-1.25388.861991-2.22192-.0000086-.93105-.2620797-1.64178-.8081165-2.10933-.5421147-.47169-1.3524724-.70308-2.39741235-.70317zm2 1.575h.7136595c.4988945 0 .8457166.09621 1.0774887.30942.2356942.2133.3501752.5373.3501838.98433-.0000086.44298-.1251525.77868-.4040582 1.0125-.2789231.22968-.704307.36567-1.26604925.36567h-.47122455z" fill="#fff" opacity=".6"/></g></svg>