<svg height="32" viewBox="0 0 32 32" width="32"><g fill="none" fill-rule="evenodd"><circle cx="16" cy="16" fill="#fff" fill-opacity=".4" r="16"/><circle cx="16" cy="16" fill="#66001f" r="15"/><g fill="#fff" opacity=".6" transform="translate(2 2)"><path d="m4.15773214 22.4637952.14375-1.2896386c-.26339285-.0356024-.50285714-.1724096-.66714285-.3842168-.16642858-.211988-.24303572-.4836145-.21196429-.7512651.03160714-.2687349.16732143-.5141566.37910714-.6813253.20946429-.1673494.47642857-.2434337.74196429-.211988.265.0314458.50696428.1682531.67321428.3813253.16678572.2179519.24196429.4915663.21089286.7664458l1.27964286.1530723c.07428571-.6184337-.09803572-1.2399397-.47928572-1.7296988-.37767857-.4816265-.92910714-.7928313-1.53321428-.8638554-.60410714-.0708434-1.21160714.1044578-1.68857143.4866867-.47785714.380241-.78642857.9379519-.85892857 1.5491567-.07178572.6113855.09857143 1.2258433.47571428 1.7094578.37785715.4836145.92964286.7948193 1.53482143.8658434m1.73958929-8.5192952c0-4.42644578 3.595-8.02879518 8.01392857-8.02879518 4.4171429 0 8.0125 3.6023494 8.0125 8.02879518 0 4.4273494-3.5953571 8.0295181-8.0125 8.0295181-4.41892857 0-8.01392857-3.6021687-8.01392857-8.0295181m-.19875 0c0 4.5388554 3.68410714 8.2322892 8.21267857 8.2322892 4.5282143 0 8.2119643-3.6934338 8.2119643-8.2322892 0-4.53795181-3.68375-8.23012048-8.2119643-8.23012048-4.52857143 0-8.21267857 3.69216867-8.21267857 8.23012048"/><path d="m2.135 11.646h.255l.351 1.304h.005v-1.304h.245v2.02h-.264l-.358-1.328h-.006v1.328h-.228z"/><path d="m.39098214 13.1663614h.26035715v.0800603c0 .1339156.04607142.2179518.15089285.2179518.13767857 0 .17125-.1008434.17125-.2320482 0-.1704217-.00803571-.2260843-.27839285-.5145181-.16642858-.1790964-.30410715-.3412048-.30410715-.6160843 0-.3303615.14321429-.4724096.42678572-.4724096.14017857 0 .24196428.0496987.30392857.111506.04410714.0446385.07571428.1145783.07571428.2575301v.0872892h-.245v-.0563856c0-.1149397-.04410714-.1823494-.14571428-.1823494-.10625 0-.15535714.0648795-.15535714.2213856 0 .1375301.02571428.2210241.265.489759.25553571.2853614.30160714.3836747.30160714.6265663 0 .3164457-.11410714.498253-.42375.498253-.23946429 0-.40321429-.1089759-.40321429-.3603615z"/><path d="m1.521 13.666h.5v-2.02h-.5z"/><path d="m3.31919643 12.1606566c0-.2822891.08607143-.5313253.43982143-.5313253.2575 0 .37714285.1395181.37714285.3659639v.0983132h-.24482142v-.0363253c0-.1288554-.04107143-.2103614-.15089286-.2103614-.13517857 0-.16071429.1037349-.16071429.3477108v.99c0 .2376506.06964286.2797591.15321429.2797591.09607143 0 .15839286-.0724699.15839286-.2401808v-.054759h.24482142v.1389759c0 .2123494-.08107142.3744578-.38267857.3744578-.3275 0-.43428571-.1875903-.43428571-.5007831z"/><path d="m4.432 11.646h.665v.235h-.405v.632h.295v.235h-.295v.683h.405v.235h-.665z"/><path d="m24.2129286 13.3275843c0 .2210241.1091071.3553012.3846428.3553012.2814286 0 .3896429-.1342771.3896429-.498253v-1.0910241c0-.3556626-.1010714-.4642771-.3735714-.4642771-.3385715 0-.4157143.1339157-.4157143.4973494v.1890362c0 .2880723.0541071.4872289.2964285.4872289.11125 0 .1842858-.0097591.2444643-.0968675h.005v.5069277c0 .1592169-.0369643.2513856-.14625.2513856-.1032143 0-.1392857-.0581928-.1392857-.2179518v-.0800603h-.2453571zm.2453571-1.245c0-.1566867 0-.2519277.1392857-.2519277.14625 0 .14625.1171085.14625.2519277v.268735c0 .1792771-.045.2544578-.14625.2544578-.1141071 0-.1392857-.1024699-.1392857-.2089157z"/><path d="m25.812 11.892h-.499v-.246h.737v.257l-.349 1.763h-.247z"/><path d="m23.2652143 12.0855482v-.1789157c.101735-.0370482.192429-.1201807.305205-.2611445h.194795v2.0206626h-.2699133v-1.5806024zm3.2168214 0v-.1789157c.1027614-.0370482.1934911-.1201807.3053255-.2611445h.1946745v2.0206626h-.2700197v-1.5806024z"/><path d="m24.6 6.66h-.167l-.102.311-.108-.311h-.164v.527h.102v-.425l.137.425h.062l.134-.425.004.425h.102z"/><path d="m24.104 6.66h-.5l.005.102h.179v.425h.132v-.425h.184z"/><path d="m14.91125 15.5299639c-.1442857.166265-.2855357.3375903-.4180357.5128915-.3425.4543374-.7148214 1.0059036-1.1094643 1.6243374-.5585714.8770482-1.1496429 1.5421084-1.7085714 1.9557831-.5610715.4086145-.9576786.5920482-1.0308929.5423494-.0575-.0609036.2208929-.3446386.6878572-.8343976.4673214-.489759 1.0032142-1.2034337 1.5591071-2.0774096.4153571-.6478916.8326786-1.1963856 1.2383929-1.6190964.1351785-.1429518.2803571-.2768675.4328571-.3995783.5441071-.4368073.9328571-.6356024 1.0078571-.5828314.0601786.0637952-.2073214.361988-.6591071.8779519m2.5535714.4024698c-.3296428-1.2773494-1.6730357-1.5693976-1.6730357-1.5693976s-.4448214-1.2686747-1.4201786-1.513012c-1.9260714-.4836145-3.4758928 1.8171687-3.4758928 1.8171687s-1.07535716 1.1678313-1.07482144 3.6894578c.00053571 1.0158434.19678574 1.7063855.52892854 2.0145181.3321429.3072289 2.1728572.8992771 4.1746429-.036506 2.0007143-.9357832 3.2708928-3.1257832 2.9403571-4.402229"/><path d="m19.6596964 15.9638614c-.0760714.0354217-.2614285-.3050602-.5841071-.8840963-.3244643-.5777711-.8414286-1.2858434-1.5066072-2.0618675-.6621428-.7751205-1.1560714-1.5112048-1.4114285-2.1439157-.2525-.6346988-.3196429-1.05542166-.2466072-1.11126503.0782143-.03939759.2785715.29873493.6291072.87108433.3557143.5727108.9098214 1.2703012 1.575 2.0459639.6610714.7751204 1.115 1.5196988 1.3383928 2.1637951.22125.6428314.2753572 1.0655422.20625 1.1203012m1.2753572-3.5974698c-.2985715-2.210241-2.0076786-4.11722895-3.3108929-4.17090365-1.3033928-.05385542-1.9725 1.26524097-1.9725 1.26524097s-1.2194643.03542168-1.7189286.91753008c-.5821428 1.0281326-.2023214 1.898494-.1267857 2.0515663.2103572-.001988.4267857.0207831.6496429.0766265.9255357.2320482 1.4242857 1.176506 1.59375 1.565241.4176786.1348192 1.4464286.5792168 1.7539286 1.7705421.0451785.1733133.0671428.3558434.0671428.5443374 0 .005241-.0008928.0103012-.0008928.0153614.9157142.1772892 1.6039285.115482 1.9566071-.0954217.3876786-.2320481 1.4083929-1.729518 1.1089286-3.9401204m.6110714-6.16986148c-.1071429-.11855422-.3857143-.38168675-.4819643-.45740964.1053572-.07084337 1.19125-.80945783 1.19125-.80945783l.0089286.01066265s-.6701786 1.17036145-.7182143 1.25620482m-3.1596429-.36343373c.4176786.28590361.97375.72469879 1.1910715.89819277.1303571-.08566265.5069643-.32150603.6121428-.38873494.1573215.12415662.6851786.62512048.8264286.78686747-.0660714.11728915-.2675.47638554-.3485714.64120482.2975.33361445.8033928.88608433 1.0158928 1.18825301.0821429-.17240964 2.0505357-4.3713253 2.0505357-4.3713253l-1.2010714-1.12536145s-3.9119643 2.2413253-4.1464286 2.37090362m-1.9194642-.73156627 1.3453571.49301205s1.0117857-2.8033735 1.0991071-3.04933735c.4135715.15740964.8353572.36271084.8353572.36271084s.2775-.72542168.4148214-1.06536144c-.42375-.18018073-.9746428-.40138555-1.5467857-.61283133-.5730357-.21036144-1.1319643-.39722891-1.5748214-.5336747-.1101786.35006024-.3507143 1.08650603-.3507143 1.08650603s.4539286.11927711.8696428.26638554c-.0941071.24307229-1.0919642 3.05259036-1.0919642 3.05259036m-1.165-1.09825301c.0330357-.35512048-.0371429-.6986747-.3467858-1.19168675-.2844642-.45704819-.3846428-.69126506-.3976785-.91481928-.03-.56349397.1703571-1.00969879.9196428-1.46674698 0 0-1.7403571-.10084338-1.7433928-.08060241-.5825.37680723-.8289286 1.01222891-.8469643 1.43819277-.0191072.39325301.0966071.68837349.3351786 1.0753012.1978571.31987952.4051785.61951807.3871428.96253012-.02.45487952-.3682143.83259036-.8260714 1.10674699l1.4551786.43933735c.6448214-.33180723 1.0235714-.91951807 1.06375-1.36825301m-7.8233929.37084337c.51696429 1.15987952 1.87946429 1.665 3.0408929 1.13222892 1.16625-.53475904 1.6891071-1.90445783 1.1726785-3.06343374-.5189285-1.15608433-1.88285711-1.66481927-3.04392854-1.13060241-1.16160715.53222892-1.68553572 1.90590362-1.16964286 3.06180723m1.19714286-.54740964c-.22535715-.51-.005-1.10710843.49839285-1.33608433.50339286-.23168675 1.09339289-.00433735 1.31982139.50114457.2260715.50891567.0051786 1.10638555-.4978571 1.33843374-.50035714.22861446-1.09339286.00216867-1.32035714-.50349398m-.69678572 2.65680723-1.26017857-.21325301c-.04.25156627-.18035714.49084337-.40321428.65403614-.45071429.32114458-1.075.21361446-1.39303572-.24108433-.31839286-.45216868-.21178571-1.08307229.23857143-1.40566265.22571429-.16355422.49589286-.21885542.75267857-.17168675l.21446429-1.27518072c-.57946429-.09849398-1.19357143.02493976-1.70910715.39307229-1.02821428.73987951-1.28821428 2.18385542-.58357142 3.24506024.73232142 1.10168674 2.18589285 1.24933735 3.21678571.50819277.51303571-.36759036.82946429-.9133735.92660714-1.49349398"/><path d="m13.2645179 11.5380843c0-.3853012.0871428-.8456024.3646428-1.3357229.1792857-.31590357.4276786-.53981923.6901786-.69957827-.2198214-.46698795-.5078572-.8329518-.8428572-1.03626506-1.1185714-.67987952-2.2801785.06253012-2.2801785.06253012s-1.1951786-.5929518-2.06160717-.07825301c-1.71017857 1.01692771-1.23035714 3.75849402-1.23035714 3.75849402s.03767857 1.5957831 1.77982142 3.3988554c.06767858.069759.13428572.1348193.20035715.1986144.29339284-.8161445.65000004-1.2603614.73625004-1.3606626.0521428-.075.2633928-.3697591.5955357-.7109639-.0460715-.3811445-.1091072-.7908433-.1917857-1.2287349-.18625-1.0068072-.2483929-1.8948795-.1553572-2.57114459.0967857-.67789156.2480357-1.07475903.3385714-1.08686747.0873215.00596386.0926786.40048193.11125 1.0736747.0230358.67572286.1558929 1.56018076.3457143 2.56897586.0475.2560844.0841072.5029519.1101786.740241.4548214-.3569277 1.0223214-.6757229 1.6614286-.7725904-.0730357-.1856024-.1717857-.51-.1717857-.9206024"/><path d="m24.97 21.851 1.465-2.539-.962-.724-.928 1.608-.418-.248.775-1.346-.93-.379-.703 1.218-.412-.243.844-1.466-1.118-.467-1.366 2.369z"/><path d="m21.052 25.534 2.303-1.795-.622-1.036-1.457 1.136-.297-.39 1.219-.951-.72-.705-1.105.86-.292-.383 1.329-1.035-.863-.86-2.147 1.674z"/><path d="m15.929 27.405 1.16-.301-.416-1.644 1.492-.387-.34-.948-1.397.361-.119-.469 1.618-.419-.45-1.135-2.626.681z"/><path d="m10.459 27.125 1.186.183.251-1.679 1.522.234.052-1.008-1.426-.218.073-.48 1.65.253.024-1.222-2.68-.412z"/><path d="m8.52105357 24.0018012c-.14571428.2291566-.37517857.3881928-.63821428.4451205-.26285715.056747-.53732143.0039759-.76178572-.1451205-.225-.1458434-.38375-.3771687-.44035714-.6426506-.05660714-.263494-.00642857-.5414458.14017857-.7675301.145-.226988.37321429-.3872892.63321429-.4431325.26196428-.0576507.535-.0070482.75982142.1389759.22589286.1460241.38517858.378253.44285715.6428313s.00857143.5423494-.13571429.771506m1.39303572-1.0492771c-.12875-.6023494-.48785715-1.1284337-.99928572-1.4631325-.5125-.3325302-1.13357143-.4460241-1.72821428-.3151808-.59446429.1306627-1.1125.4946386-1.44196429 1.0127711-.33017857.5170482-.44392857 1.1446988-.31714286 1.7468675.12732143.6023494.48589286 1.1284337.99678572 1.4631325.51196428.3334338 1.13410714.4480121 1.72857143.3173494.59660714-.129759 1.11660714-.4939156 1.44714285-1.0118674.32910715-.5170482.44178576-1.1466868.31410715-1.7499398"/></g></g></svg>