<svg width="32" height="32" viewBox="0 0 32 32">
  <g fill="none" fill-rule="evenodd">
    <circle cx="16" cy="16" r="16" fill="#FFF" fill-opacity=".4"/>
    <circle cx="16" cy="16" r="15" fill="#66001F"/>
    <g fill="#FFF" opacity=".6" transform="translate(2 2)">
      <path d="M4.15773214 22.4637952L4.30148214 21.1741566C4.03808929 21.1385542 3.798625 21.001747 3.63433929 20.7899398 3.46791071 20.5779518 3.39130357 20.3063253 3.422375 20.0386747 3.45398214 19.7699398 3.58969643 19.5245181 3.80148214 19.3573494 4.01094643 19.19 4.27791071 19.1139157 4.54344643 19.1453614 4.80844643 19.1768072 5.05041071 19.3136145 5.21666071 19.5266867 5.38344643 19.7446386 5.458625 20.018253 5.42755357 20.2931325L6.70719643 20.4462048C6.78148214 19.8277711 6.60916071 19.2062651 6.22791071 18.716506 5.85023214 18.2348795 5.29880357 17.9236747 4.69469643 17.8526506 4.09058929 17.7818072 3.48308929 17.9571084 3.006125 18.3393373 2.52826786 18.7195783 2.21969643 19.2772892 2.14719643 19.888494 2.07541071 20.4998795 2.24576786 21.1143373 2.62291071 21.5979518 3.00076786 22.0815663 3.55255357 22.3927711 4.15773214 22.4637952M5.89732143 13.9445C5.89732143 9.51805422 9.49232143 5.91570482 13.91125 5.91570482 18.3283929 5.91570482 21.92375 9.51805422 21.92375 13.9445 21.92375 18.3718494 18.3283929 21.9740181 13.91125 21.9740181 9.49232143 21.9740181 5.89732143 18.3718494 5.89732143 13.9445M5.69857143 13.9445C5.69857143 18.4833554 9.38267857 22.1767892 13.91125 22.1767892 18.4394643 22.1767892 22.1232143 18.4833554 22.1232143 13.9445 22.1232143 9.40654819 18.4394643 5.71437952 13.91125 5.71437952 9.38267857 5.71437952 5.69857143 9.40654819 5.69857143 13.9445"/>
      <polygon points="2.135 11.646 2.39 11.646 2.741 12.95 2.746 12.95 2.746 11.646 2.991 11.646 2.991 13.666 2.727 13.666 2.369 12.338 2.363 12.338 2.363 13.666 2.135 13.666"/>
      <path d="M0.390982143,13.1663614 L0.651339286,13.1663614 L0.651339286,13.2464217 C0.651339286,13.3803373 0.697410714,13.4643735 0.802232143,13.4643735 C0.939910714,13.4643735 0.973482143,13.3635301 0.973482143,13.2323253 C0.973482143,13.0619036 0.965446429,13.006241 0.695089286,12.7178072 C0.528660714,12.5387108 0.390982143,12.3766024 0.390982143,12.1017229 C0.390982143,11.7713614 0.534196429,11.6293133 0.817767857,11.6293133 C0.957946429,11.6293133 1.05973214,11.679012 1.12169643,11.7408193 C1.16580357,11.7854578 1.19741071,11.8553976 1.19741071,11.9983494 L1.19741071,12.0856386 L0.952410714,12.0856386 L0.952410714,12.029253 C0.952410714,11.9143133 0.908303571,11.8469036 0.806696429,11.8469036 C0.700446429,11.8469036 0.651339286,11.9117831 0.651339286,12.0682892 C0.651339286,12.2058193 0.677053571,12.2893133 0.916339286,12.5580482 C1.171875,12.8434096 1.21794643,12.9417229 1.21794643,13.1846145 C1.21794643,13.5010602 1.10383929,13.6828675 0.794196429,13.6828675 C0.554732143,13.6828675 0.390982143,13.5738916 0.390982143,13.322506 L0.390982143,13.1663614"/>
      <polygon points="1.521 13.666 2.021 13.666 2.021 11.646 1.521 11.646"/>
      <path d="M3.31919643,12.1606566 C3.31919643,11.8783675 3.40526786,11.6293313 3.75901786,11.6293313 C4.01651786,11.6293313 4.13616071,11.7688494 4.13616071,11.9952952 L4.13616071,12.0936084 L3.89133929,12.0936084 L3.89133929,12.0572831 C3.89133929,11.9284277 3.85026786,11.8469217 3.74044643,11.8469217 C3.60526786,11.8469217 3.57973214,11.9506566 3.57973214,12.1946325 L3.57973214,13.1846325 C3.57973214,13.4222831 3.649375,13.4643916 3.73294643,13.4643916 C3.82901786,13.4643916 3.89133929,13.3919217 3.89133929,13.2242108 L3.89133929,13.1694518 L4.13616071,13.1694518 L4.13616071,13.3084277 C4.13616071,13.5207771 4.05508929,13.6828855 3.75348214,13.6828855 C3.42598214,13.6828855 3.31919643,13.4952952 3.31919643,13.1821024 L3.31919643,12.1606566"/>
      <polygon points="4.432 11.646 5.097 11.646 5.097 11.881 4.692 11.881 4.692 12.513 4.987 12.513 4.987 12.748 4.692 12.748 4.692 13.431 5.097 13.431 5.097 13.666 4.432 13.666"/>
      <path d="M24.2129286,13.3275843 C24.2129286,13.5486084 24.3220357,13.6828855 24.5975714,13.6828855 C24.879,13.6828855 24.9872143,13.5486084 24.9872143,13.1846325 L24.9872143,12.0936084 C24.9872143,11.7379458 24.8861429,11.6293313 24.6136429,11.6293313 C24.2750714,11.6293313 24.1979286,11.763247 24.1979286,12.1266807 L24.1979286,12.3157169 C24.1979286,12.6037892 24.2520357,12.8029458 24.4943571,12.8029458 C24.6056071,12.8029458 24.6786429,12.7931867 24.7388214,12.7060783 L24.7438214,12.7060783 L24.7438214,13.213006 C24.7438214,13.3722229 24.7068571,13.4643916 24.5975714,13.4643916 C24.4943571,13.4643916 24.4582857,13.4061988 24.4582857,13.2464398 L24.4582857,13.1663795 L24.2129286,13.1663795 L24.2129286,13.3275843 Z M24.4582857,12.0825843 C24.4582857,11.9258976 24.4582857,11.8306566 24.5975714,11.8306566 C24.7438214,11.8306566 24.7438214,11.9477651 24.7438214,12.0825843 L24.7438214,12.3513193 C24.7438214,12.5305964 24.6988214,12.6057771 24.5975714,12.6057771 C24.4834643,12.6057771 24.4582857,12.5033072 24.4582857,12.3968614 L24.4582857,12.0825843 Z"/>
      <polygon points="25.812 11.892 25.313 11.892 25.313 11.646 26.05 11.646 26.05 11.903 25.701 13.666 25.454 13.666"/>
      <path d="M23.2652143 12.0855482L23.2652143 11.9066325C23.3669493 11.8695843 23.4576433 11.7864518 23.5704193 11.645488L23.7652143 11.645488 23.7652143 13.6661506 23.495301 13.6661506 23.495301 12.0855482 23.2652143 12.0855482M26.4820357 12.0855482L26.4820357 11.9066325C26.5847971 11.8695843 26.6755268 11.7864518 26.7873612 11.645488L26.9820357 11.645488 26.9820357 13.6661506 26.712016 13.6661506 26.712016 12.0855482 26.4820357 12.0855482"/>
      <polygon points="24.6 6.66 24.433 6.66 24.331 6.971 24.223 6.66 24.059 6.66 24.059 7.187 24.161 7.187 24.161 6.762 24.298 7.187 24.36 7.187 24.494 6.762 24.498 7.187 24.6 7.187"/>
      <polygon points="24.104 6.66 23.604 6.66 23.609 6.762 23.788 6.762 23.788 7.187 23.92 7.187 23.92 6.762 24.104 6.762"/>
      <path d="M14.91125,15.5299639 C14.7669643,15.6962289 14.6257143,15.8675542 14.4932143,16.0428554 C14.1507143,16.4971928 13.7783929,17.048759 13.38375,17.6671928 C12.8251786,18.544241 12.2341071,19.2093012 11.6751786,19.6229759 C11.1141071,20.0315904 10.7175,20.2150241 10.6442857,20.1653253 C10.5867857,20.1044217 10.8651786,19.8206867 11.3321429,19.3309277 C11.7994643,18.8411687 12.3353571,18.127494 12.89125,17.2535181 C13.3066071,16.6056265 13.7239286,16.0571325 14.1296429,15.6344217 C14.2648214,15.4914699 14.41,15.3575542 14.5625,15.2348434 C15.1066071,14.7980361 15.4953571,14.599241 15.5703571,14.652012 C15.6305357,14.7158072 15.3630357,15.014 14.91125,15.5299639 M17.4648214,15.9324337 C17.1351786,14.6550843 15.7917857,14.3630361 15.7917857,14.3630361 C15.7917857,14.3630361 15.3469643,13.0943614 14.3716071,12.8500241 C12.4455357,12.3664096 10.8957143,14.6671928 10.8957143,14.6671928 C10.8957143,14.6671928 9.82035714,15.8350241 9.82089286,18.3566506 C9.82142857,19.372494 10.0176786,20.0630361 10.3498214,20.3711687 C10.6819643,20.6783976 12.5226786,21.2704458 14.5244643,20.3346627 C16.5251786,19.3988795 17.7953571,17.2088795 17.4648214,15.9324337"/>
      <path d="M19.6596964 15.9638614C19.583625 15.9992831 19.3982679 15.6588012 19.0755893 15.0797651 18.751125 14.501994 18.2341607 13.7939217 17.5689821 13.0178976 16.9068393 12.2427771 16.4129107 11.5066928 16.1575536 10.8739819 15.9050536 10.2392831 15.8379107 9.81856024 15.9109464 9.76271687 15.9891607 9.72331928 16.1895179 10.0614518 16.5400536 10.6338012 16.8957679 11.206512 17.449875 11.9041024 18.1150536 12.6797651 18.776125 13.4548855 19.2300536 14.1994639 19.4534464 14.8435602 19.6746964 15.4863916 19.7288036 15.9091024 19.6596964 15.9638614M20.9350536 12.3663916C20.6364821 10.1561506 18.927375 8.24916265 17.6241607 8.19548795 16.3207679 8.14163253 15.6516607 9.46072892 15.6516607 9.46072892 15.6516607 9.46072892 14.4321964 9.4961506 13.9327321 10.378259 13.3505893 11.4063916 13.7304107 12.276753 13.8059464 12.4298253 14.0163036 12.4278373 14.2327321 12.4506084 14.4555893 12.5064518 15.381125 12.7385 15.879875 13.6829578 16.0493393 14.0716928 16.4670179 14.206512 17.4957679 14.6509096 17.8032679 15.8422349 17.8484464 16.0155482 17.8704107 16.1980783 17.8704107 16.3865723 17.8704107 16.3918133 17.8695179 16.3968735 17.8695179 16.4019337 18.7852321 16.5792229 19.4734464 16.5174157 19.826125 16.306512 20.2138036 16.0744639 21.2345179 14.576994 20.9350536 12.3663916M21.546125 6.19653012C21.4389821 6.0779759 21.1604107 5.81484337 21.0641607 5.73912048 21.1695179 5.66827711 22.2554107 4.92966265 22.2554107 4.92966265L22.2643393 4.9403253C22.2643393 4.9403253 21.5941607 6.11068675 21.546125 6.19653012M18.3864821 5.83309639C18.8041607 6.119 19.3602321 6.55779518 19.5775536 6.73128916 19.7079107 6.64562651 20.0845179 6.40978313 20.1896964 6.34255422 20.3470179 6.46671084 20.874875 6.9676747 21.016125 7.12942169 20.9500536 7.24671084 20.748625 7.60580723 20.6675536 7.77062651 20.9650536 8.10424096 21.4709464 8.65671084 21.6834464 8.95887952 21.7655893 8.78646988 23.7339821 4.58755422 23.7339821 4.58755422L22.5329107 3.46219277C22.5329107 3.46219277 18.6209464 5.70351807 18.3864821 5.83309639M16.4670179 5.10153012L17.812375 5.59454217C17.812375 5.59454217 18.8241607 2.79116867 18.9114821 2.54520482 19.3250536 2.70261446 19.7468393 2.90791566 19.7468393 2.90791566 19.7468393 2.90791566 20.0243393 2.18249398 20.1616607 1.84255422 19.7379107 1.66237349 19.1870179 1.44116867 18.614875 1.22972289 18.0418393 1.01936145 17.4829107.832493976 17.0400536.696048193 16.929875 1.04610843 16.6893393 1.78255422 16.6893393 1.78255422 16.6893393 1.78255422 17.1432679 1.90183133 17.5589821 2.04893976 17.464875 2.29201205 16.4670179 5.10153012 16.4670179 5.10153012M15.3020179 4.00327711C15.3350536 3.64815663 15.264875 3.30460241 14.9552321 2.81159036 14.6707679 2.35454217 14.5705893 2.1203253 14.5575536 1.89677108 14.5275536 1.33327711 14.7279107.887072289 15.4771964.430024096 15.4771964.430024096 13.7368393.329180723 13.7338036.349421687 13.1513036.726228916 12.904875 1.3616506 12.8868393 1.78761446 12.8677321 2.18086747 12.9834464 2.47598795 13.2220179 2.86291566 13.419875 3.18279518 13.6271964 3.48243373 13.6091607 3.82544578 13.5891607 4.2803253 13.2409464 4.65803614 12.7830893 4.93219277L14.2382679 5.37153012C14.8830893 5.03972289 15.2618393 4.45201205 15.3020179 4.00327711M7.478625 4.37412048C7.99558929 5.534 9.35808929 6.03912048 10.5195179 5.5063494 11.6857679 4.97159036 12.208625 3.60189157 11.6921964 2.44291566 11.1732679 1.28683133 9.80933929.778096386 8.64826786 1.31231325 7.48666071 1.84454217 6.96273214 3.21821687 7.478625 4.37412048M8.67576786 3.82671084C8.45041071 3.31671084 8.67076786 2.71960241 9.17416071 2.49062651 9.67755357 2.25893976 10.2675536 2.48628916 10.4939821 2.99177108 10.7200536 3.50068675 10.4991607 4.09815663 9.996125 4.33020482 9.49576786 4.55881928 8.90273214 4.33237349 8.67576786 3.82671084M7.97898214 6.48351807L6.71880357 6.27026506C6.67880357 6.52183133 6.53844643 6.76110843 6.31558929 6.9243012 5.864875 7.24544578 5.24058929 7.13791566 4.92255357 6.68321687 4.60416071 6.23104819 4.71076786 5.60014458 5.161125 5.27755422 5.38683929 5.114 5.65701786 5.0586988 5.91380357 5.10586747L6.12826786 3.83068675C5.54880357 3.73219277 4.93469643 3.85562651 4.41916071 4.22375904 3.39094643 4.96363855 3.13094643 6.40761446 3.83558929 7.46881928 4.56791071 8.57050602 6.02148214 8.71815663 7.052375 7.97701205 7.56541071 7.60942169 7.88183929 7.06363855 7.97898214 6.48351807"/>
      <path d="M13.2645179,11.5380843 C13.2645179,11.1527831 13.3516607,10.6924819 13.6291607,10.2023614 C13.8084464,9.88645783 14.0568393,9.66254217 14.3193393,9.50278313 C14.0995179,9.03579518 13.8114821,8.66983133 13.4764821,8.46651807 C12.3579107,7.78663855 11.1963036,8.52904819 11.1963036,8.52904819 C11.1963036,8.52904819 10.001125,7.93609639 9.13469643,8.45079518 C7.42451786,9.46772289 7.90433929,12.2092892 7.90433929,12.2092892 C7.90433929,12.2092892 7.94201786,13.8050723 9.68416071,15.6081446 C9.75183929,15.6779036 9.81844643,15.7429639 9.88451786,15.806759 C10.1779107,14.9906145 10.5345179,14.5463976 10.6207679,14.4460964 C10.6729107,14.3710964 10.8841607,14.0763373 11.2163036,13.7351325 C11.1702321,13.353988 11.1071964,12.9442892 11.0245179,12.5063976 C10.8382679,11.4995904 10.776125,10.6115181 10.8691607,9.93525301 C10.9659464,9.25736145 11.1171964,8.86049398 11.2077321,8.84838554 C11.2950536,8.8543494 11.3004107,9.24886747 11.3189821,9.92206024 C11.3420179,10.5977831 11.474875,11.482241 11.6646964,12.4910361 C11.7121964,12.7471205 11.7488036,12.993988 11.774875,13.2312771 C12.2296964,12.8743494 12.7971964,12.5555542 13.4363036,12.4586867 C13.3632679,12.2730843 13.2645179,11.9486867 13.2645179,11.5380843"/>
      <polygon points="24.97 21.851 26.435 19.312 25.473 18.588 24.545 20.196 24.127 19.948 24.902 18.602 23.972 18.223 23.269 19.441 22.857 19.198 23.701 17.732 22.583 17.265 21.217 19.634"/>
      <polygon points="21.052 25.534 23.355 23.739 22.733 22.703 21.276 23.839 20.979 23.449 22.198 22.498 21.478 21.793 20.373 22.653 20.081 22.27 21.41 21.235 20.547 20.375 18.4 22.049"/>
      <polygon points="15.929 27.405 17.089 27.104 16.673 25.46 18.165 25.073 17.825 24.125 16.428 24.486 16.309 24.017 17.927 23.598 17.477 22.463 14.851 23.144"/>
      <polygon points="10.459 27.125 11.645 27.308 11.896 25.629 13.418 25.863 13.47 24.855 12.044 24.637 12.117 24.157 13.767 24.41 13.791 23.188 11.111 22.776"/>
      <path d="M8.52105357,24.0018012 C8.37533929,24.2309578 8.145875,24.389994 7.88283929,24.4469217 C7.61998214,24.5036687 7.34551786,24.4508976 7.12105357,24.3018012 C6.89605357,24.1559578 6.73730357,23.9246325 6.68069643,23.6591506 C6.62408929,23.3956566 6.67426786,23.1177048 6.820875,22.8916205 C6.965875,22.6646325 7.19408929,22.5043313 7.45408929,22.448488 C7.71605357,22.3908373 7.98908929,22.4414398 8.21391071,22.5874639 C8.43980357,22.733488 8.59908929,22.9657169 8.65676786,23.2302952 C8.71444643,23.4948735 8.66533929,23.7726446 8.52105357,24.0018012 M9.91408929,22.9525241 C9.78533929,22.3501747 9.42623214,21.8240904 8.91480357,21.4893916 C8.40230357,21.1568614 7.78123214,21.0433675 7.18658929,21.1742108 C6.592125,21.3048735 6.07408929,21.6688494 5.744625,22.1869819 C5.41444643,22.7040301 5.30069643,23.3316807 5.42748214,23.9338494 C5.55480357,24.5361988 5.913375,25.0622831 6.42426786,25.3969819 C6.93623214,25.7304157 7.558375,25.844994 8.15283929,25.7143313 C8.74944643,25.5845723 9.26944643,25.2204157 9.59998214,24.7024639 C9.92908929,24.1854157 10.0417679,23.5557771 9.91408929,22.9525241"/>
    </g>
  </g>
</svg>
