<?xml version="1.0" encoding="UTF-8"?>
<svg width="24px" height="24px" viewBox="0 0 24 24" version="1.1" xmlns="http://www.w3.org/2000/svg" xmlns:xlink="http://www.w3.org/1999/xlink">
    <title>petshop-m</title>
    <g id="Page-2:-Night" stroke="none" stroke-width="1" fill="none" fill-rule="evenodd" opacity="0.6">
        <g id="petshop-m" fill-rule="nonzero">
            <circle id="Oval" fill="#FFFFFF" cx="12" cy="12" r="12"></circle>
            <circle id="Oval" fill="#8C5F93" cx="12" cy="12" r="11"></circle>
            <path d="M16.7907801,7.20921986 C16.7614124,6.6547298 16.5432524,6.10723204 16.1195185,5.68279892 C15.20912,4.77240036 13.7337429,4.77240036 12.8240436,5.68279892 C11.913645,6.59319748 11.913645,8.06857457 12.8240436,8.97897313 L8.97897313,12.8247428 C8.06857457,11.9143442 6.59319748,11.9143442 5.68279892,12.8247428 C4.77240036,13.7344421 4.77240036,15.2098192 5.68279892,16.1202178 C6.10653281,16.5439517 6.6547298,16.7621117 7.20921986,16.7914794 C7.23858755,17.3459694 7.45674758,17.8934672 7.88048147,18.3179003 C8.79088003,19.2282989 10.2662571,19.2282989 11.1759564,18.3179003 C12.086355,17.4075017 12.086355,15.9321247 11.1759564,15.0217261 L15.0210269,11.1766557 C15.9314254,12.0870542 17.4068025,12.0870542 18.3172011,11.1766557 C19.2275996,10.2669563 19.2275996,8.79157926 18.3172011,7.8811807 C17.892768,7.45674758 17.3452702,7.23858755 16.7907801,7.20921986 Z" id="Path" fill="#FFFFFF"></path>
        </g>
    </g>
</svg>