<svg version="1.1" viewBox="0 0 24 24" xmlns="http://www.w3.org/2000/svg">
 <title>petshop-m</title>
 <g id="Page-2:-Night" fill="none" fill-rule="evenodd" opacity=".6">
  <g id="petshop-m" fill-rule="nonzero">
   <circle id="Oval" cx="12" cy="12" r="12" fill="#fff"/>
   <circle id="Oval" cx="12" cy="12" r="11" fill="#8C5F93"/>
   <path id="Path" d="m16.791 7.2092c-0.029368-0.55449-0.24753-1.102-0.67126-1.5264-0.9104-0.9104-2.3858-0.9104-3.2955 0-0.9104 0.9104-0.9104 2.3858 0 3.2962l-3.8451 3.8458c-0.9104-0.9104-2.3858-0.9104-3.2962 0-0.9104 0.9097-0.9104 2.3851 0 3.2955 0.42373 0.42373 0.97193 0.64189 1.5264 0.67126 0.029368 0.55449 0.24753 1.102 0.67126 1.5264 0.9104 0.9104 2.3858 0.9104 3.2955 0 0.9104-0.9104 0.9104-2.3858 0-3.2962l3.8451-3.8451c0.9104 0.9104 2.3858 0.9104 3.2962 0 0.9104-0.9097 0.9104-2.3851 0-3.2955-0.42443-0.42443-0.97193-0.64259-1.5264-0.67196z" fill="#fff"/>
  </g>
 </g>
</svg>
