<svg width="24" height="24" viewBox="0 0 24 24">
  <g fill="#FFF" fill-rule="evenodd">
    <circle cx="12" cy="12" r="12" opacity=".1"/>
    <path d="M13.8461538,6 L6,13.8461538 L6,16.1538462 L7.21153846,17.3653846 L9.98076923,14.5961538 L9.23076923,13.8461538 L13.8461538,9.23076923 L14.5961538,9.98076923 L17.3653846,7.21153846 L16.1538462,6 L13.8461538,6 L13.8461538,6 Z M17.7115385,7.55769231 L14.9423077,10.3269231 L15.2307692,10.6153846 L16.1538462,10.6153846 L18,8.76923077 L18,7.84615385 L17.7115385,7.55769231 L17.7115385,7.55769231 Z M10.3269231,14.9423077 L7.55769231,17.7115385 L7.84615385,18 L8.76923077,18 L10.6153846,16.1538462 L10.6153846,15.2307692 L10.3269231,14.9423077 L10.3269231,14.9423077 Z" opacity=".6"/>
  </g>
</svg>
