<?xml version="1.0" encoding="UTF-8"?>
<svg width="24px" height="24px" viewBox="0 0 24 24" version="1.1" xmlns="http://www.w3.org/2000/svg" xmlns:xlink="http://www.w3.org/1999/xlink">
    <title>phone-m</title>
    <g id="Page-2:-Night" stroke="none" stroke-width="1" fill="none" fill-rule="evenodd" opacity="0.6">
        <g id="phone-m" fill-rule="nonzero">
            <circle id="Oval" fill="#FFFFFF" opacity="0.2" cx="12" cy="12" r="12"></circle>
            <path d="M18.23,14.6288889 C17.2733333,14.6288889 16.3477778,14.4733333 15.4844444,14.1933333 C15.2122222,14.1 14.9088889,14.17 14.6988889,14.38 L13.4777778,15.9122222 C11.2766667,14.8622222 9.21555556,12.8788889 8.11888889,10.6 L9.63555556,9.30888889 C9.84555556,9.09111111 9.90777778,8.78777778 9.82222222,8.51555556 C9.53444444,7.65222222 9.38666667,6.72666667 9.38666667,5.77 C9.38666667,5.35 9.03666667,5 8.61666667,5 L5.92555556,5 C5.50555556,5 5,5.18666667 5,5.77 C5,12.9955556 11.0122222,19 18.23,19 C18.7822222,19 19,18.51 19,18.0822222 L19,15.3988889 C19,14.9788889 18.65,14.6288889 18.23,14.6288889 Z" id="Path" fill="#717065"></path>
        </g>
    </g>
</svg>