<?xml version="1.0" encoding="UTF-8" standalone="no"?>
<svg width="27px" height="27px" viewBox="0 0 27 27" version="1.1" xmlns="http://www.w3.org/2000/svg" xmlns:xlink="http://www.w3.org/1999/xlink">
    <!-- Generator: Sketch 3.7.2 (28276) - http://www.bohemiancoding.com/sketch -->
    <title>photo-shop-l</title>
    <desc>Created with Sketch.</desc>
    <defs></defs>
    <g id="POI" stroke="none" stroke-width="1" fill="none" fill-rule="evenodd">
        <g id="lighthouse-l">
            <circle id="Oval-1-Copy-39" fill="#FFFFFF" opacity="0" cx="13.5" cy="13.5" r="13.5"></circle>
            <path d="M13.5,26 C20.4035594,26 26,20.4035594 26,13.5 C26,6.59644063 20.4035594,1 13.5,1 C6.59644063,1 1,6.59644063 1,13.5 C1,20.4035594 6.59644063,26 13.5,26 Z" id="Oval-1-Copy-38" fill="#33332E"></path>
        </g>
        <g id="Group" transform="translate(6.000000, 6.000000)" fill="#C2C2C0">
            <path d="M5.25,0.5 L3.75,2 L1.5,2 C0.669,2 0,2.669 0,3.5 L0,12.5 C0,13.331 0.669,14 1.5,14 L13.5,14 C14.331,14 15,13.331 15,12.5 L15,3.5 C15,2.669 14.331,2 13.5,2 L11.25,2 L9.75,0.5 L5.25,0.5 L5.25,0.5 Z M7.5,4.5 C9.4247053,4.5 11,6.0752947 11,8 C11,9.9247053 9.4247053,11.5 7.5,11.5 C5.57529463,11.5 4,9.9247053 4,8 C4,6.0752947 5.57529463,4.5 7.5,4.5 L7.5,4.5 Z" id="Shape"></path>
        </g>
    </g>
</svg>