<?xml version="1.0" encoding="UTF-8" standalone="no"?>
<svg width="23px" height="23px" viewBox="0 0 23 23" version="1.1" xmlns="http://www.w3.org/2000/svg" xmlns:xlink="http://www.w3.org/1999/xlink">
    <!-- Generator: Sketch 3.8.3 (29802) - http://www.bohemiancoding.com/sketch -->
    <title>photo-shop-m</title>
    <desc>Created with Sketch.</desc>
    <defs>
        <path d="M11.5,22 C17.2989899,22 22,17.2989899 22,11.5 C22,5.70101013 17.2989899,1 11.5,1 C5.70101013,1 1,5.70101013 1,11.5 C1,17.2989899 5.70101013,22 11.5,22 L11.5,22 Z" id="path-1"></path>
    </defs>
    <g id="POI-NIght" stroke="none" stroke-width="1" fill="none" fill-rule="evenodd">
        <g id="photo-shop-l">
            <g id="POI">
                <g>
                    <g id="lighthouse-l">
                        <circle id="Oval-1-Copy-39" fill-opacity="0.1" fill="#FFFFFF" cx="11.5" cy="11.5" r="11.5"></circle>
                        <g id="Oval-1-Copy-38">
                            <use fill="#2D7970" xlink:href="#path-1"></use>
                            <use fill="#825089" xlink:href="#path-1"></use>
                            <use fill-opacity="0.65" fill="#000000" xlink:href="#path-1"></use>
                        </g>
                        <path d="M10,6 C9.446,6 9.2478,6.5045 9,7 L8.5,8 L6.5,8 C5.669,8 5,8.669 5,9.5 L5,14.5 C5,15.331 5.669,16 6.5,16 L16.5,16 C17.331,16 18,15.331 18,14.5 L18,9.5 C18,8.669 17.331,8 16.5,8 L14.5,8 L14,7 C13.75,6.5 13.554,6 13,6 L10,6 L10,6 Z M6.5,9 C6.7761,9 7,9.2239 7,9.5 C7,9.7761 6.7761,10 6.5,10 C6.2239,10 6,9.7761 6,9.5 C6,9.2239 6.2239,9 6.5,9 L6.5,9 Z M11.5,9 C13.1569,9 14.5,10.3431 14.5,12 C14.5,13.6569 13.1569,15 11.5,15 C9.8431,15 8.5,13.6569 8.5,12 C8.5,10.3431 9.8431,9 11.5,9 L11.5,9 Z M11.5,10.5 C10.6716,10.5 10,11.1716 10,12 L10,12 C10,12.8284 10.6716,13.5 11.5,13.5 L11.5,13.5 C12.3284,13.5 13,12.8284 13,12 L13,12 C13,11.1716 12.3284,10.5 11.5,10.5 L11.5,10.5 L11.5,10.5 Z" id="Shape" fill-opacity="0.7" fill="#FFFFFF"></path>
                    </g>
                </g>
            </g>
        </g>
    </g>
</svg>