<svg version="1.1" viewBox="0 0 24 24" xmlns="http://www.w3.org/2000/svg">
 <title>photo-shop-m</title>
 <g id="Page-2:-Night" fill="none" fill-rule="evenodd" opacity=".6">
  <g id="photo-shop-m" fill-rule="nonzero">
   <circle id="Oval" cx="12" cy="12" r="12" fill="#fff"/>
   <circle id="Oval" cx="12" cy="12" r="11" fill="#8C5F93"/>
   <path id="Shape" d="m9.9 6-1.281 1.4h-2.219c-0.77 0-1.4 0.63-1.4 1.4v8.4c0 0.77 0.63 1.4 1.4 1.4h11.2c0.77 0 1.4-0.63 1.4-1.4v-8.4c0-0.77-0.63-1.4-1.4-1.4h-2.219l-1.281-1.4h-4.2zm2.1 10.5c-1.932 0-3.5-1.568-3.5-3.5s1.568-3.5 3.5-3.5 3.5 1.568 3.5 3.5-1.568 3.5-3.5 3.5z" fill="#fff"/>
  </g>
 </g>
</svg>
