<?xml version="1.0" encoding="UTF-8" standalone="no"?>
<svg width="27px" height="27px" viewBox="0 0 27 27" version="1.1" xmlns="http://www.w3.org/2000/svg" xmlns:xlink="http://www.w3.org/1999/xlink">
    <!-- Generator: Sketch 3.8.3 (29802) - http://www.bohemiancoding.com/sketch -->
    <title>picnic-l</title>
    <desc>Created with Sketch.</desc>
    <defs></defs>
    <g id="POI-NIght" stroke="none" stroke-width="1" fill="none" fill-rule="evenodd">
        <g id="picnic-l">
            <circle id="Oval-1-Copy-39" fill-opacity="0.1" fill="#FFFFFF" cx="13.5" cy="13.5" r="13.5"></circle>
            <circle id="Oval-1-Copy-38" fill="#252522" cx="13.5" cy="13.5" r="12.5"></circle>
            <path d="M16.0273984,9 L10.9954545,9 L10.2698347,13 L16.744708,13 L16.0273984,9 Z M18.0273984,9 L20,9 L20,7 L7,7 L7,9 L8.99545455,9 L8.26983471,13 L5,13 L5,15 L7.90702479,15 L7,20 L9,20 L9.90702479,15 L17.1033629,15 L18,20 L20,20 L19.1033629,15 L22,15 L22,13 L18.744708,13 L18.0273984,9 Z" id="Combined-Shape" fill-opacity="0.7" fill="#FFFFFF"></path>
        </g>
    </g>
</svg>