<?xml version="1.0" encoding="UTF-8" standalone="no"?>
<svg width="17px" height="17px" viewBox="0 0 17 17" version="1.1" xmlns="http://www.w3.org/2000/svg" xmlns:xlink="http://www.w3.org/1999/xlink" xmlns:sketch="http://www.bohemiancoding.com/sketch/ns">
    <!-- Generator: Sketch 3.4.2 (15857) - http://www.bohemiancoding.com/sketch -->
    <title>pitch-s</title>
    <desc>Created with Sketch.</desc>
    <defs>
        <circle id="path-1" cx="8.5" cy="8.5" r="7.5"></circle>
    </defs>
    <g id="POI" stroke="none" stroke-width="1" fill="none" fill-rule="evenodd" sketch:type="MSPage">
        <g id="pitch-s" sketch:type="MSLayerGroup">
            <circle id="Oval-1-Copy-43" opacity="0" fill="#FFFFFF" sketch:type="MSShapeGroup" cx="8.5" cy="8.5" r="8.5"></circle>
            <g id="Oval-1-Copy-42">
                <use fill="#33332E" fill-rule="evenodd" sketch:type="MSShapeGroup" xlink:href="#path-1"></use>
                <use fill="none" xlink:href="#path-1"></use>
            </g>
            <path d="M7.99993334,3.5 C7.44765334,3.5 6.99993334,3.9477 6.99993334,4.5 C6.99993334,5.0523 7.44765334,5.5 7.99993334,5.5 C8.55221334,5.5 8.99993334,5.0523 8.99993334,4.5 C8.99993334,3.9477 8.55221334,3.5 7.99993334,3.5 L7.99993334,3.5 Z M5.40618334,4.7188 C5.18754334,4.7188 4.99993334,4.8517 4.99993334,5.125 C4.99993334,5.3982 5.08503334,5.7541 5.12493334,5.9688 L5.40618334,6.9688 C5.55469334,7.5123 5.87307334,7.5 6.28118334,7.5 L7.18743334,7.5 C7.51198334,8.0467 7.39862334,8.6646 7.49993334,9.5 L6.99993334,9.5 C6.45332334,9.5 5.54710334,9.8131 6.09368334,10.9063 L6.90618334,12.5625 C7.10253334,12.9552 7.30084334,12.9977 7.49993334,13 C7.85502334,13 8.15100334,12.6426 7.99993334,12.2813 L7.37493334,10.7813 C7.25706334,10.4994 7.52734334,10.5 7.65618334,10.5 L8.99993334,10.5 C8.99993334,10.5 9.45651334,11.7032 10.2186833,12.6875 C10.5000333,13.0509 10.7973433,13.5 11.1874333,13.5 C11.4607333,13.5 11.9359033,13.1261 11.4374333,12.5313 C10.5039533,11.4172 9.99993334,10.0466 9.99993334,9.5 C9.99993334,8.8643 9.81778334,8.2583 9.65618334,7.5 L10.4686833,7.5 C10.7354333,8.0347 11.1874333,8.875 11.1874333,8.875 C11.4895733,9.3983 11.9999333,9.3588 11.9999333,8.875 C11.9999333,8.808 12.0059333,8.6608 11.9374333,8.5 L11.1874333,6.7813 C11.1371333,6.6627 11.0642833,6.5 10.6561833,6.5 L6.37493334,6.5 L5.96868334,5.125 C5.88668334,4.8517 5.62482334,4.7188 5.40618334,4.7188 L5.40618334,4.7188 Z" id="path10527-1-3-2-copy" opacity="0.7" fill="#FFFFFF" sketch:type="MSShapeGroup"></path>
        </g>
    </g>
</svg>