<svg version="1.1" viewBox="0 0 24 24" xmlns="http://www.w3.org/2000/svg">
 <title>pitch-m</title>
 <g fill="none" fill-rule="evenodd">
  <g id="pitch-m" fill-rule="nonzero">
   <path id="Shape" d="m11.595 3c-1.109 0-2.008 0.84822-2.008 1.8947 0 1.0465 0.89899 1.8947 2.008 1.8947 1.109 0 2.008-0.84822 2.008-1.8947 0-1.0465-0.89899-1.8947-2.008-1.8947zm-5.7729 3.7894 0.502 1.8948c0.25099 0.94735 0.85053 0.94735 1.6001 0.94735h1.6628c0.59612 0.94735 0.31592 2.4875 0.502 3.9352h-0.90987c-1.004 0-2.6041 0.94735-1.6001 2.8421l1.506 2.8422c1.004 1.8947 2.5099 0.47368 2.008-0.47368l-1.506-2.8422c-0.25099-0.47368 0.26536-0.47368 0.502-0.47368h2.4778s1.1885 2.3436 2.5884 4.0497c0.51677 0.62972 1.0892 1.4887 1.8057 1.4887 0.50198 0 1.3622-0.73205 0.44668-1.763-1.7145-1.9307-2.8006-3.9212-2.8006-4.8686 0-1.1019-0.20515-3.4225-0.50198-4.7368h1.506c0.48994 0.92658 1.3499 2.3684 1.3499 2.3684 0.55494 0.90706 1.4674 0.83852 1.4674 0 0-0.11492-0.01467-0.36235-0.14013-0.64122l-1.4222-3.1482c-0.09288-0.20548-0.25442-0.47368-1.004-0.47368h-7.7809l-0.75299-2.3685c-0.30119-0.94735-1.757-0.94735-1.757 0 0 0.47368 0.17786 1.0488 0.25099 1.421z" fill="#fff" opacity=".6" stroke-width="1.2857"/>
  </g>
 </g>
</svg>
