<?xml version="1.0" encoding="UTF-8" standalone="no"?>
<svg width="23px" height="23px" viewBox="0 0 23 23" version="1.1" xmlns="http://www.w3.org/2000/svg" xmlns:xlink="http://www.w3.org/1999/xlink" xmlns:sketch="http://www.bohemiancoding.com/sketch/ns">
    <!-- Generator: Sketch 3.4.2 (15857) - http://www.bohemiancoding.com/sketch -->
    <title>pitch-m</title>
    <desc>Created with Sketch.</desc>
    <defs>
        <ellipse id="path-1" cx="11.5" cy="11.5" rx="10.5" ry="10.5"></ellipse>
    </defs>
    <g id="POI" stroke="none" stroke-width="1" fill="none" fill-rule="evenodd" sketch:type="MSPage">
        <g id="pitch-m" sketch:type="MSLayerGroup">
            <ellipse id="Oval-1-Copy-41" opacity="0" fill="#FFFFFF" sketch:type="MSShapeGroup" cx="11.5" cy="11.5" rx="11.5" ry="11.5"></ellipse>
            <g id="Oval-1-Copy-40">
                <use fill="#3D3D37" fill-rule="evenodd" sketch:type="MSShapeGroup" xlink:href="#path-1"></use>
                <use fill="none" xlink:href="#path-1"></use>
            </g>
            <path d="M11.224255,5 C10.468495,5 9.855835,5.6126 9.855835,6.3684 C9.855835,7.1242 10.468495,7.7368 11.224255,7.7368 C11.980015,7.7368 12.592675,7.1242 12.592675,6.3684 C12.592675,5.6126 11.980015,5 11.224255,5 L11.224255,5 Z M7.290045,7.7368 L7.632155,9.1053 C7.803205,9.7895 8.211785,9.7895 8.722615,9.7895 L9.855835,9.7895 C10.262085,10.4737 10.071135,11.586 10.197945,12.6316 L9.577875,12.6316 C8.893665,12.6316 7.803225,13.3158 8.487415,14.6842 L9.513735,16.7369 C10.197925,18.1053 11.224245,17.079 10.882155,16.3948 L9.855835,14.3421 C9.684785,14 10.036675,14 10.197945,14 L11.886525,14 C11.886525,14 12.696455,15.6926 13.650485,16.9248 C14.002665,17.3796 14.392765,18 14.881045,18 C15.223145,18 15.809405,17.4713 15.185455,16.7267 C14.017005,15.3323 13.276885,13.8947 13.276885,13.2105 C13.276885,12.4147 13.137075,10.7387 12.934785,9.7895 L13.961105,9.7895 C14.294995,10.4587 14.881045,11.5 14.881045,11.5 C15.259235,12.1551 15.881045,12.1056 15.881045,11.5 C15.881045,11.417 15.871045,11.2383 15.785545,11.0369 L14.816325,8.7632 C14.753025,8.6148 14.642935,8.4211 14.132115,8.4211 L8.829485,8.4211 L8.316325,6.7105 C8.111065,6.0263 7.118955,6.0263 7.118955,6.7105 C7.118955,7.0526 7.240165,7.468 7.290005,7.7368 L7.290045,7.7368 Z" id="path10527-1-3-copy" opacity="0.7" fill="#FFFFFF" sketch:type="MSShapeGroup"></path>
        </g>
    </g>
</svg>