<svg width="24" height="24" viewBox="0 0 24 24">
  <g fill="none" fill-rule="evenodd">
    <circle cx="12" cy="12" r="12" fill="#FFF" opacity=".4"/>
    <circle cx="12" cy="12" r="11" fill="#3D3D36"/>
    <path fill="#FFF" d="M11.6852977,5 C10.8227637,5 10.123547,5.65972308 10.123547,6.47366154 C10.123547,7.2876 10.8227637,7.94732308 11.6852977,7.94732308 C12.5478316,7.94732308 13.2470484,7.2876 13.2470484,6.47366154 C13.2470484,5.65972308 12.5478316,5 11.6852977,5 L11.6852977,5 Z M7.19526163,7.94732308 L7.58570501,9.42109231 C7.78092099,10.1579231 8.24722526,10.1579231 8.83022544,10.1579231 L10.123547,10.1579231 C10.5871921,10.8947538 10.3692646,12.0926154 10.5139904,13.2186462 L9.80631676,13.2186462 C9.02544142,13.2186462 7.78094382,13.9554769 8.56179633,15.4291385 L9.73311504,17.6397385 C10.5139676,19.1134 11.6852863,18.0081538 11.2948657,17.2713231 L10.123547,15.0607231 C9.92833103,14.6923077 10.3299361,14.6923077 10.5139904,14.6923077 L12.4411333,14.6923077 C12.4411333,14.6923077 13.3654904,16.5151077 14.454306,17.8420923 C14.8562421,18.3318769 15.3014555,19 15.8587198,19 C16.2491517,19 16.9182387,18.4306308 16.2061369,17.6287538 C14.872608,16.1270923 14.0279237,14.5789077 14.0279237,13.8420769 C14.0279237,12.9850615 13.8683613,11.1801385 13.6374917,10.1579231 L14.8088105,10.1579231 C15.1898725,10.8786 15.8587198,12 15.8587198,12 C16.2903405,12.7054923 17,12.6521846 17,12 C17,11.9106154 16.9885872,11.7181692 16.8910077,11.5012769 L15.7848561,9.05267692 C15.7126131,8.89286154 15.5869695,8.68426154 15.0039808,8.68426154 L8.95219405,8.68426154 L8.3665347,6.84207692 C8.13227552,6.10524615 7,6.10524615 7,6.84207692 C7,7.21049231 7.13833458,7.65784615 7.19521598,7.94732308 L7.19526163,7.94732308 Z" opacity=".6"/>
  </g>
</svg>
