<?xml version="1.0" encoding="UTF-8" standalone="no"?>
<svg width="27px" height="27px" viewBox="0 0 27 27" version="1.1" xmlns="http://www.w3.org/2000/svg" xmlns:xlink="http://www.w3.org/1999/xlink" xmlns:sketch="http://www.bohemiancoding.com/sketch/ns">
    <!-- Generator: Sketch 3.4.2 (15857) - http://www.bohemiancoding.com/sketch -->
    <title>pitch-l</title>
    <desc>Created with Sketch.</desc>
    <defs>
        <circle id="path-1" cx="13.5" cy="13.5" r="12.5"></circle>
    </defs>
    <g id="POI" stroke="none" stroke-width="1" fill="none" fill-rule="evenodd" sketch:type="MSPage">
        <g id="pitch-l" sketch:type="MSLayerGroup">
            <circle id="Oval-1-Copy-39" opacity="0" fill="#FFFFFF" sketch:type="MSShapeGroup" cx="13.5" cy="13.5" r="13.5"></circle>
            <g id="Oval-1-Copy-38">
                <use fill="#33332E" fill-rule="evenodd" sketch:type="MSShapeGroup" xlink:href="#path-1"></use>
                <use fill="none" xlink:href="#path-1"></use>
            </g>
            <path d="M13,4 C11.89543,4 11,4.8954 11,6 C11,7.1046 11.89543,8 13,8 C14.10457,8 15,7.1046 15,6 C15,4.8954 14.10457,4 13,4 L13,4 Z M7.25,8 L7.75,10 C8,11 8.59716,11 9.34375,11 L11,11 C11.59375,12 11.31467,13.4718 11.5,15 L10.59375,15 C9.59375,15 8,16 9,18 L10.5,21 C11.5,23 13,21.5 12.5,20.5 L11,17.5 C10.75,17 11.2643,17 11.5,17 L13.96793,17 C13.96793,17 15.15167,19.6276 16.54603,21.4285 C17.06075,22.0933 17.63089,23 18.34453,23 C18.84453,23 19.70137,22.2273 18.78944,21.139 C17.0817,19.101 16,17 16,16 C16,14.8368 15.79566,12.3873 15.5,11 L17,11 C17.488,11.9781 18.25,13.5 18.25,13.5 C18.80274,14.4574 20,14.3851 20,13.5 C20,13.3785 20,13.1111 19.86048,12.8232 L18.25,9.5 C18.14722,9.2879 17.99658,9 17.25,9 L9.5,9 L8.75,6.5 C8.45,5.5 7,5.5 7,6.5 C7,7 7.17716,7.6071 7.25,8 L7.25,8 Z" id="path10527-1-copy" opacity="0.7" fill="#FFFFFF" sketch:type="MSShapeGroup"></path>
        </g>
    </g>
</svg>