<?xml version="1.0" encoding="UTF-8" standalone="no"?>
<svg
   width="24"
   height="24"
   viewBox="0 0 24 24"
   version="1.1"
   id="svg10"
   sodipodi:docname="pitch-m.svg"
   inkscape:version="1.2 (dc2aedaf03, 2022-05-15)"
   xmlns:inkscape="http://www.inkscape.org/namespaces/inkscape"
   xmlns:sodipodi="http://sodipodi.sourceforge.net/DTD/sodipodi-0.dtd"
   xmlns="http://www.w3.org/2000/svg"
   xmlns:svg="http://www.w3.org/2000/svg">
  <defs
     id="defs14" />
  <sodipodi:namedview
     id="namedview12"
     pagecolor="#ffffff"
     bordercolor="#000000"
     borderopacity="0.25"
     inkscape:showpageshadow="2"
     inkscape:pageopacity="0.0"
     inkscape:pagecheckerboard="0"
     inkscape:deskcolor="#d1d1d1"
     showgrid="false"
     inkscape:zoom="31.5"
     inkscape:cx="12.095238"
     inkscape:cy="12"
     inkscape:window-width="1920"
     inkscape:window-height="1011"
     inkscape:window-x="0"
     inkscape:window-y="0"
     inkscape:window-maximized="1"
     inkscape:current-layer="svg10" />
  <title
     id="title2">pitch-m</title>
  <g
     id="Page-1"
     stroke="none"
     stroke-width="1"
     fill="none"
     fill-rule="evenodd"
     inkscape:label="Page-2:-Night">
    <g
       id="pitch-m"
       fill-rule="nonzero">
      <path
         d="m 11.595384,3 c -1.108973,0 -2.0079665,0.8482154 -2.0079665,1.8947076 0,1.0464924 0.8989935,1.8947078 2.0079665,1.8947078 1.108972,0 2.007964,-0.8482154 2.007964,-1.8947078 C 13.603348,3.8482154 12.704356,3 11.595384,3 Z M 5.8224791,6.7894154 6.3244778,8.6842615 c 0.250992,0.9473539 0.8505261,0.9473539 1.6000976,0.9473539 h 1.6628421 c 0.5961155,0.9473536 0.315923,2.4874606 0.5019985,3.9352156 H 9.1795505 c -1.0039831,0 -2.6040514,0.947354 -1.6000982,2.842062 l 1.5059812,2.8422 C 10.089388,21.1458 11.595368,19.724769 11.0934,18.777415 l -1.5059825,-2.8422 c -0.250992,-0.473676 0.265357,-0.473676 0.5019985,-0.473676 h 2.477755 c 0,0 1.188459,2.3436 2.588366,4.049722 C 15.672311,20.140985 16.244727,21 16.961211,21 c 0.501984,0 1.362239,-0.732046 0.446679,-1.763031 -1.714536,-1.930708 -2.800559,-3.92123 -2.800559,-4.868584 0,-1.101877 -0.205152,-3.422493 -0.501984,-4.7367696 h 1.505981 C 16.101265,10.5582 16.961211,12 16.961211,12 c 0.55494,0.907061 1.46736,0.838524 1.46736,0 0,-0.114923 -0.01467,-0.362354 -0.140132,-0.641215 L 16.866243,8.2105846 c -0.09288,-0.205477 -0.254425,-0.473677 -1.003982,-0.473677 H 8.0813922 L 7.3284017,5.3683846 c -0.3011904,-0.9473539 -1.7569732,-0.9473539 -1.7569732,0 0,0.4736769 0.1778588,1.0488461 0.250992,1.4210308 z"
         id="Shape"
         fill="#FFFFFF"
         style="opacity:0.6;fill:#ffffff;fill-opacity:1;stroke-width:1.28571" />
    </g>
  </g>
</svg>
