<svg width="28" height="28" viewBox="0 0 28 28">
  <g fill="none" fill-rule="evenodd">
    <circle cx="14" cy="14" r="14" fill="#FFF" opacity=".4"/>
    <circle cx="14" cy="14" r="13" fill="#4C351E"/>
    <path fill="#FFF" d="M14,6 C14,6 11.6470588,6.93333333 11.6470588,7.86666667 L11.6470588,9.73333333 C11.6470588,10.6666667 9.76470588,10.6666667 9.76470588,11.6 L9.76470588,20 L18.2352941,20 L18.2352941,11.6 C18.2352941,10.6666667 16.3529412,10.6666667 16.3529412,9.55833333 L16.3529412,7.86666667 C16.3529412,6.93333333 14,6 14,6 L14,6 Z M6,13.4666667 L6,20 L7.88235294,20 L7.88235294,13.4666667 C7.88235294,12.5333333 6.94117647,12.5333333 6.94117647,12.5333333 C6.94117647,12.5333333 6,12.5333333 6,13.4666667 L6,13.4666667 Z M20.1176471,13.4666667 L20.1176471,20 L22,20 L22,13.4666667 C22,12.5333333 21.0588235,12.5333333 21.0588235,12.5333333 C21.0588235,12.5333333 20.1176471,12.5333333 20.1176471,13.4666667 L20.1176471,13.4666667 Z" opacity=".6"/>
  </g>
</svg>
