<svg version="1.1" viewBox="0 0 24 24" xmlns="http://www.w3.org/2000/svg">
 <path d="m4.7696 21.038c-1.0318-0.26448-1.9314-1.2138-2.1722-2.2923-0.16219-0.72659-0.04871-1.5694 0.30121-2.2371 0.23145-0.44162 0.72468-0.94904 1.1507-1.1839 0.60048-0.33096 0.74638-0.35899 2.0572-0.39536 1.1506-0.03192 1.1938-0.03692 1.4521-0.16782 0.14642-0.0742 1.2791-0.89368 2.5171-1.8211 1.238-0.92738 2.2673-1.6703 2.2875-1.6508 0.02016 0.01941 0.03106 1.4824 0.02421 3.2512l-0.01246 3.2159-1.9362 1.4445c-1.0649 0.79449-2.0669 1.507-2.2266 1.5834-0.59721 0.28553-0.85862 0.32593-2.0781 0.32118-0.71051-0.0028-1.2067-0.02745-1.3645-0.06789zm8.7998-0.0461-0.10525-0.11833v-15.972l4.0055-2.0128 4.0055 2.039v15.987l-0.11427 0.09774c-0.0962 0.08227-0.19418 0.09774-0.61936 0.09774-0.47173 0-0.51294-0.0083-0.6239-0.1255l-0.11881-0.1255v-3.5836h-5.0825v3.6123l-0.11203 0.11117c-0.10036 0.09958-0.16505 0.11117-0.62083 0.11117-0.46925 0-0.51698-0.0092-0.61404-0.11834zm6.4294-12.587v-1.9173h-5.0825v3.8346h5.0825z" fill="#fff" opacity=".6" stroke-width=".049748"/>
</svg>
