<svg width="16" height="16" viewBox="0 0 16 16">
  <g fill="none" fill-rule="evenodd">
    <circle cx="8" cy="8" r="8" fill="#3D3C36"/>
    <circle cx="8" cy="8" r="7" fill="#3D3C36"/>
    <path fill="#FFF" d="M8.02080228,11.9255933 C8.0208031,11.9568857 8.0208031,11.9818384 8.0208031,12 C8.01876405,11.9869311 8.0117517,11.9713003 8,11.9534841 C7.9882483,11.9713003 7.98123595,11.9869311 7.9791969,12 C7.9791969,11.9818384 7.9791969,11.9568857 7.97919772,11.9255933 C7.83665268,11.7524601 7.34335145,11.4276462 6.65384615,11.2 C5.84615385,10.9333333 5.30765944,10.4 5.03846154,10.1333333 C4.76923077,9.86666667 4.5,9.33333333 4.5,8.8 C4.5,8.26666667 5.03846154,7.20999349 5.03846154,6.66666667 C5.03846154,6.13333333 4.79192766,5.60104 4.5,5.06666667 L5.57692308,4 C5.97353962,4.30472 6.38461538,4.53333333 6.92307692,4.53333333 C7.46153846,4.53333333 7.73076923,4.42666016 8,4.26666667 C8.26923077,4.42666016 8.53846154,4.53333333 9.07692308,4.53333333 C9.61538462,4.53333333 10.0264604,4.30472 10.4230769,4 L11.5,5.06666667 C11.2080723,5.60104 10.9615385,6.13333333 10.9615385,6.66666667 C10.9615385,7.20999349 11.5,8.26666667 11.5,8.8 C11.5,9.33333333 11.2307692,9.86666667 10.9615385,10.1333333 C10.6923406,10.4 10.1538462,10.9333333 9.34615385,11.2 C8.65664855,11.4276462 8.16334732,11.7524601 8.02080228,11.9255933 Z M6.83401321,9.86666667 L8,9.22793988 L9.16598679,9.86666667 L8.94230769,8.51494253 L9.88461538,7.55932803 L8.58061383,7.36127321 L8,6.13333333 L7.41938617,7.36127321 L6.11538462,7.55932803 L7.05769231,8.51494253 L6.83401321,9.86666667 Z" opacity=".6"/>
  </g>
</svg>
