<?xml version="1.0" encoding="UTF-8" standalone="no"?>
<svg width="27px" height="27px" viewBox="0 0 27 27" version="1.1" xmlns="http://www.w3.org/2000/svg" xmlns:xlink="http://www.w3.org/1999/xlink">
    <!-- Generator: Sketch 3.8.3 (29802) - http://www.bohemiancoding.com/sketch -->
    <title>police-l</title>
    <desc>Created with Sketch.</desc>
    <defs></defs>
    <g id="POI-NIght" stroke="none" stroke-width="1" fill="none" fill-rule="evenodd">
        <g id="police-l">
            <circle id="Oval-1-Copy-39" fill-opacity="0.1" fill="#FFFFFF" cx="13.5" cy="13.5" r="13.5"></circle>
            <circle id="Oval-1-Copy-38" fill="#252522" cx="13.5" cy="13.5" r="12.5"></circle>
            <path d="M12.0003662,5.5 L18.9979248,5.5 L20,4 L11,4 L12.0003662,5.5 Z M12,7.71875 C12,7.71875 12,11.5 15.5,11.5 C19,11.5 19,7.71875 19,7.71875 L19,6 L12,6 L12,7.71875 Z M5.00003726,9.53846154 L5.00003726,15.0769231 C4.9998988,15.9628 5.82000649,16.6210462 6.68483726,16.4291385 L9.9961547,15.6222533 L9.9961547,22 L17.6652836,12.300476 C17.4717144,12.2438452 17.2051819,11.998474 16.9929203,11.998474 L12.0159911,11.998474 L7.76926803,13.3515538 L7.76926803,9.53846154 C7.77992957,8.75781538 7.14356034,8.12269231 6.36305265,8.13487692 C5.59943726,8.14678462 4.98951419,8.77484615 5.00003726,9.53846154 Z M12,22 L20,22 L20,14 C20.0126957,13.5975393 19.2763418,13.3649904 19.0574341,13.0272827 L12,22 Z" id="Shape" fill-opacity="0.7" fill="#FFFFFF"></path>
        </g>
    </g>
</svg>