<svg width="28" height="28" viewBox="0 0 28 28">
  <g fill="#FFF" fill-rule="evenodd">
    <circle cx="14" cy="14" r="14" opacity=".1"/>
    <path d="M19.1764706,14.5581701 L19.1764706,16.2450717 L8.82352941,16.2450717 L8.82352941,14.3206709 L6,11.5044746 L6,20 L22,20 L22,11.7419738 L19.1764706,14.5581701 L19.1764706,14.5581701 Z M16.2625882,10.3892609 L16.24,5 L9.75529412,11.4697415 L15.2611765,11.4697415 L16.2625882,10.3892609 L16.2625882,10.3892609 Z M16.7058824,14.3676075 L21.7298824,9.35665561 L17.3656471,5.0028162 L17.3656471,10.8332812 L15.7270588,12.5661806 C15.7091765,12.5849553 15.6856471,12.5943426 15.6592941,12.5943426 L9.75435294,12.5943426 L11.5322353,14.3676075 L16.7058824,14.3676075 L16.7058824,14.3676075 Z" opacity=".6"/>
  </g>
</svg>
