<svg height="24" viewBox="0 0 24 24" width="24"><g fill="none" fill-rule="evenodd"><circle cx="12" cy="12" fill="#fff" opacity=".4" r="12"/><circle cx="12" cy="12" fill="#3d3d36" r="11"/><path d="m8.4 6v2.4h-2.4v1.2h1.55625l-.05625.05625.84375.84375.05625-.05625v3.95625h-2.4v1.2h1.55625l-.05625.05625.84375.84375.05625-.05625v1.55625h1.2v-2.4h3.95625l-.05625.05625.84375.84375.05625-.05625v1.55625h1.2v-2.4h2.4v-1.2h-1.55625l.05625-.05625-.84375-.84375-.05625.05625v-3.95625h2.4v-1.2h-1.55625l.05625-.05625-.84375-.84375-.05625.05625v-1.55625h-1.2v2.4h-3.95625l.05625-.05625-.84375-.84375-.05625.05625v-1.55625zm1.2 3.6h3.95625l-.05625.05625.84375.84375.05625-.05625v3.95625h-3.95625l.05625-.05625-.84375-.84375-.05625.05625z" fill="#fff" fill-rule="nonzero" opacity=".6"/></g></svg>