<svg width="28" height="28" viewBox="0 0 28 28">
  <g fill="none" fill-rule="evenodd">
    <circle cx="14" cy="14" r="14" fill="#FFF" opacity=".4"/>
    <circle cx="14" cy="14" r="13" fill="#3D3D36"/>
    <path fill="#FFF" fill-rule="nonzero" d="M9.8,7 L9.8,9.8 L7,9.8 L7,11.2 L8.815625,11.2 L8.75,11.265625 L9.734375,12.25 L9.8,12.184375 L9.8,16.8 L7,16.8 L7,18.2 L8.815625,18.2 L8.75,18.265625 L9.734375,19.25 L9.8,19.184375 L9.8,21 L11.2,21 L11.2,18.2 L15.815625,18.2 L15.75,18.265625 L16.734375,19.25 L16.8,19.184375 L16.8,21 L18.2,21 L18.2,18.2 L21,18.2 L21,16.8 L19.184375,16.8 L19.25,16.734375 L18.265625,15.75 L18.2,15.815625 L18.2,11.2 L21,11.2 L21,9.8 L19.184375,9.8 L19.25,9.734375 L18.265625,8.75 L18.2,8.815625 L18.2,7 L16.8,7 L16.8,9.8 L12.184375,9.8 L12.25,9.734375 L11.265625,8.75 L11.2,8.815625 L11.2,7 L9.8,7 Z M11.2,11.2 L15.815625,11.2 L15.75,11.265625 L16.734375,12.25 L16.8,12.184375 L16.8,16.8 L12.184375,16.8 L12.25,16.734375 L11.265625,15.75 L11.2,15.815625 L11.2,11.2 Z" opacity=".6"/>
  </g>
</svg>
