<svg height="24" viewBox="0 0 24 24" width="24"><g fill="none" fill-rule="evenodd"><circle cx="12" cy="12" fill="#fff" opacity=".4" r="12"/><circle cx="12" cy="12" fill="#3d3d36" r="11"/><path d="m15.6923077 16.1428571v-4.2857142h-1.3846154v4.2857142zm1.3846154 0h.9230769v.8571429h-12v-.8571429h.92307692v-4.2857142h-.92307692v-.8571429l5.5384615-3.16483516v-2.83516484h.923077v.42857143l1.8461538-.42857143 1.8461539.42857143v1.71428571l-1.8461539-.42857143-1.8461538.42857143v.6923077l5.5384615 3.16483516v.8571429h-.9230769zm-4.1538462 0v-4.2857142h-1.8461538v4.2857142zm-3.23076921 0v-4.2857142h-1.38461538v4.2857142zm2.30769231-6c.2549007 0 .4615385-.19187792.4615385-.42857139 0-.23669346-.2066378-.42857142-.4615385-.42857142s-.4615385.19187796-.4615385.42857142c0 .23669347.2066378.42857139.4615385.42857139z" fill="#fff" opacity=".6"/></g></svg>