<?xml version="1.0" encoding="UTF-8" standalone="no"?>
<svg width="17px" height="10px" viewBox="0 0 17 10" version="1.1" xmlns="http://www.w3.org/2000/svg" xmlns:xlink="http://www.w3.org/1999/xlink" xmlns:sketch="http://www.bohemiancoding.com/sketch/ns">
    <!-- Generator: Sketch 3.4.2 (15857) - http://www.bohemiancoding.com/sketch -->
    <title>railway-crossing</title>
    <desc>Created with Sketch.</desc>
    <defs></defs>
    <g id="Other" stroke="none" stroke-width="1" fill="none" fill-rule="evenodd" sketch:type="MSPage">
        <g id="railway-crossing" sketch:type="MSLayerGroup">
            <path d="M15.916193,8.36044317 L15.916193,8.36044317 L16.4317829,9.57941698 L15.1183256,9.74238992 L13.4721155,9.94665061 L13.1393627,9.98793837 L12.8489804,9.8202861 L2.15101958,3.64381552 L1.86063733,3.47616325 L1.73001715,3.16734695 L1.08380704,1.63955683 L0.568217109,0.420583013 L1.88167437,0.257610083 L3.52788448,0.0533493951 L3.86063733,0.0120616365 L4.15101958,0.179713908 L14.8489804,6.35618448 L15.1393627,6.52383676 L15.2699829,6.83265306 L15.916193,8.36044317 Z M1.08380704,8.36044317 L1.08380704,8.36044317 L1.73001714,6.83265306 L1.86063732,6.52383676 L2.15101957,6.35618448 L12.8489804,0.179713908 L13.1393627,0.0120616365 L13.4721155,0.0533493951 L15.1183256,0.257610083 L16.4317829,0.420583013 L15.916193,1.63955683 L15.2699828,3.16734695 L15.1393627,3.47616325 L14.8489804,3.64381552 L4.15101957,9.8202861 L3.86063732,9.98793837 L3.52788447,9.94665061 L1.88167437,9.74238992 L0.568217118,9.57941698 L1.08380704,8.36044317 Z" id="Shape" fill="#81110D" sketch:type="MSShapeGroup"></path>
            <path d="M10.5,5 L14.3489804,7.22220989 L14.9951905,8.75 L13.3489804,8.95426069 L8.5,6.15470054 L3.65101957,8.95426069 L2.00480947,8.75 L2.65101957,7.22220989 L6.5,5 L2.65101958,2.77779012 L2.00480947,1.25 L3.65101958,1.04573931 L8.5,3.84529946 L13.3489804,1.04573931 L14.9951905,1.25 L14.3489804,2.77779012 L10.5,5 Z" id="Rectangle-27-Copy" fill="#AAAAAA" sketch:type="MSShapeGroup"></path>
        </g>
    </g>
</svg>