<?xml version="1.0" encoding="utf-8"?>
<!-- Generator: Adobe Illustrator 21.0.2, SVG Export Plug-In . SVG Version: 6.00 Build 0)  -->
<svg version="1.1" id="Слой_1" xmlns="http://www.w3.org/2000/svg" xmlns:xlink="http://www.w3.org/1999/xlink" x="0px" y="0px"
	 viewBox="0 0 19 12" enable-background="new 0 0 19 12" xml:space="preserve">
<title>railway-crossing</title>
<desc>Created with Sketch.</desc>
<g>
	<path id="path-1" fill="#C81D17" d="M18.4,10L18.4,10l0.6,1.5l-1.6,0.2l-2,0.2l-0.4,0l-0.3-0.2L1.9,4.4L1.6,4.2L1.4,3.8L0.6,2
		L0,0.5l1.6-0.2l2-0.2L4,0l0.3,0.2l13.2,7.6l0,0l0.2,0.4L18.4,10z M0.6,10L0.6,10l0.8-1.8l0.2-0.4l0,0l13.2-7.6L15.1,0l0.4,0l2,0.2
		L19,0.5L18.4,2l-0.8,1.8l-0.2,0.4l-0.3,0.2L4.3,11.8L4,12l-0.4,0l-2-0.2L0,11.5L0.6,10z"/>
</g>
<g>
	<path id="path-1_1_" fill-opacity="0.4" d="M18.4,10L18.4,10l0.6,1.5l-1.6,0.2l-2,0.2l-0.4,0l-0.3-0.2L1.9,4.4L1.6,4.2L1.4,3.8
		L0.6,2L0,0.5l1.6-0.2l2-0.2L4,0l0.3,0.2l13.2,7.6l0,0l0.2,0.4L18.4,10z M0.6,10L0.6,10l0.8-1.8l0.2-0.4l0,0l13.2-7.6L15.1,0l0.4,0
		l2,0.2L19,0.5L18.4,2l-0.8,1.8l-0.2,0.4l-0.3,0.2L4.3,11.8L4,12l-0.4,0l-2-0.2L0,11.5L0.6,10z"/>
</g>
<path id="Rectangle-27-Copy" fill="#4C4C4B" d="M11.9,6l4.6,2.7l0.8,1.8l-2,0.2L9.5,7.4l-5.8,3.4l-2-0.2l0.8-1.8L7.1,6L2.5,3.3
	L1.7,1.5l2-0.2l5.8,3.4l5.8-3.4l2,0.2l-0.8,1.8L11.9,6z"/>
</svg>
