<svg height="10" viewBox="0 0 17 10" width="17"><g fill="none" fill-rule="evenodd"><path d="m15.916193 8.36044317.5155899 1.21897381-1.3134573.16297294-1.6462101.20426069-.3327528.04128776-.2903823-.16765227-10.69796082-6.17647058-.29038225-.16765227-.13062018-.3088163-.64621011-1.52779012-.51558993-1.21897382 1.31345726-.16297293 1.64621011-.20426068.33275285-.04128776.29038225.16765227 10.69796082 6.17647057.2903823.16765228.1306202.3088163zm-14.83238596 0 .6462101-1.52779011.13062018-.3088163.29038225-.16765228 10.69796083-6.17647057.2903823-.16765227.3327528.04128776 1.6462101.20426068 1.3134573.16297293-.5155899 1.21897382-.6462102 1.52779012-.1306201.3088163-.2903823.16765227-10.69796083 6.17647058-.29038225.16765227-.33275285-.04128776-1.6462101-.20426069-1.31345725-.16297294z" fill="#80130f" fill-rule="nonzero"/><path d="m13.4013849 8.69584128 1.2346575-.15319553-.4846575-1.14584258-4.1513849-2.39680317 4.1513849-2.39680316.4846575-1.14584259-1.2346575-.15319552-4.9013849 2.82981587-4.90138485-2.82981587-1.23465759.15319552.48465759 1.14584259 4.15138485 2.39680316-4.15138487 2.39680317-.48465757 1.14584258 1.23465757.15319553 4.90138487-2.82981588z" fill="#b3b3b3" stroke="#80130f" stroke-width=".5"/></g></svg>