<svg version="1.1" viewBox="0 0 24 24" xmlns="http://www.w3.org/2000/svg">
 <title>recycling-m</title>
 <g id="Page-2:-Night" fill="none">
  <g id="recycling-m">
   <path id="Path" d="m8.18 8.4333 0.95333-1.58 0.68667-1.14c0.26-0.43333 0.88667-0.43333 1.1467 0l0.98667 1.64-0.82 1.3733-0.66667 1.08-2.2867-1.3733zm10.633 3.88-1.0667-1.7733-2.3067 1.3333 1.4733 2.46h0.75333c0.50667 0 0.96667-0.28667 1.1933-0.74 0.093333-0.18667 0.14-0.38667 0.14-0.59333 0-0.24-0.066667-0.47333-0.18667-0.68667zm-3.8133 5.3533h1c0.50667 0 0.96667-0.28667 1.1933-0.74l0.96667-1.9267h-3.16v-1.3333l-2.6667 2.6667 2.6667 2.6667v-1.3333zm-4-2.6667h-2.8667l-0.56 0.94c-0.2 0.33333-0.21333 0.74667-0.04 1.1 0.18667 0.38 0.58 0.62667 1.0133 0.62667h2.4533v-2.6667zm-2.5867-1.7667 1.1533 0.69333-0.91333-3.66-3.6533 0.91333 1.1333 0.68-0.27333 0.46c-0.23333 0.39333-0.25333 0.87333-0.046667 1.28l1.0867 2.1733 1.5133-2.54zm7.2667-6.14-0.86667-1.4467c-0.24667-0.4-0.68-0.64667-1.1467-0.64667h-2.3533l2.08 3.4667-1.1467 0.68667 3.66 0.91333 0.91333-3.66-1.14 0.68667z" fill="#FFF" opacity=".6"/>
  </g>
 </g>
</svg>
