<?xml version="1.0" encoding="UTF-8" standalone="no"?>
<svg width="27px" height="27px" viewBox="0 0 27 27" version="1.1" xmlns="http://www.w3.org/2000/svg" xmlns:xlink="http://www.w3.org/1999/xlink">
    <!-- Generator: Sketch 3.8.3 (29802) - http://www.bohemiancoding.com/sketch -->
    <title>recycling-l</title>
    <desc>Created with Sketch.</desc>
    <defs></defs>
    <g id="POI-NIght" stroke="none" stroke-width="1" fill="none" fill-rule="evenodd">
        <g id="recycling-l" fill="#252522">
            <path d="M11.5,5 C11.223,5 11,5.223 11,5.5 L11,7 L8,7 C7.446,7 7,7.446 7,8 C7,8.554 7.446,9 8,9 L19,9 C19.554,9 20,8.554 20,8 C20,7.446 19.554,7 19,7 L16,7 L16,5.5 C16,5.223 15.77701,5 15.5,5 L11.5,5 Z M12,6 L15,6 L15,7 L12,7 L12,6 Z M8,10 C7.446,10 6.92453,10.4212 7.01563,10.9285714 L7,22.0714286 C7.0904,22.5788929 7.446,23 8,23 L19,23 C19.554,23 19.9089,22.5788 20,22.0714286 L19.98437,10.9285714 C20.07477,10.4211071 19.554,10 19,10 L8,10 Z" id="rect5636-copy"></path>
        </g>
    </g>
</svg>