<?xml version="1.0" encoding="UTF-8" standalone="no"?>
<svg
   width="16"
   height="16"
   viewBox="0 0 16 16"
   version="1.1"
   id="svg10"
   sodipodi:docname="remains-s.svg"
   inkscape:version="1.2.1 (9c6d41e410, 2022-07-14)"
   xmlns:inkscape="http://www.inkscape.org/namespaces/inkscape"
   xmlns:sodipodi="http://sodipodi.sourceforge.net/DTD/sodipodi-0.dtd"
   xmlns="http://www.w3.org/2000/svg"
   xmlns:svg="http://www.w3.org/2000/svg">
  <defs
     id="defs14" />
  <sodipodi:namedview
     id="namedview12"
     pagecolor="#ffffff"
     bordercolor="#000000"
     borderopacity="0.25"
     inkscape:showpageshadow="2"
     inkscape:pageopacity="0.0"
     inkscape:pagecheckerboard="0"
     inkscape:deskcolor="#d1d1d1"
     showgrid="false"
     inkscape:zoom="48.4375"
     inkscape:cx="2.6322581"
     inkscape:cy="8.1135484"
     inkscape:window-width="3840"
     inkscape:window-height="2072"
     inkscape:window-x="0"
     inkscape:window-y="0"
     inkscape:window-maximized="1"
     inkscape:current-layer="svg10" />
  <title
     id="title2">remains-s</title>
  <g
     id="Page-1"
     stroke="none"
     stroke-width="1"
     fill="none"
     fill-rule="evenodd">
    <g
       id="remains-s"
       fill-rule="nonzero">
      <path
         d="m 12.1589,2.4993406 v 1.8561589 c 0.01486,0.4777087 -0.382131,0.8764092 -0.886641,0.8904492 H 11.271436 4.7679801 C 4.2633614,5.2529641 3.8482498,4.8712002 3.840825,4.3932395 c -9.87e-5,-0.0084 -9.87e-5,-0.0168 0,-0.0252 V 2.4993406 c 0,-0.2389204 0.2046465,-0.4326845 0.4569612,-0.4326845 0.2523286,0 0.4569617,0.1937641 0.4569617,0.4326845 v 0.8653692 h 1.2185639 v -0.6270849 0 c 0,-0.3462724 0.2965681,-0.6270849 0.6622697,-0.6270849 0.365701,0 0.6622686,0.2808125 0.6622686,0.6270849 v 0 0.6270849 h 1.3245391 v -0.6270849 0 c 0,-0.3462724 0.2965691,-0.6270849 0.66227,-0.6270849 0.3657017,0 0.6622688,0.2808125 0.6622688,0.6270849 v 0 0.6270849 H 11.27146 V 2.4993406 c -0.04252,-0.2320203 0.12177,-0.4527487 0.366767,-0.4930088 0.245038,-0.0402 0.478156,0.1152002 0.520669,0.3472806 0.0088,0.04824 0.0088,0.09756 10e-7,0.1457282 z M 14,13.561045 C 14,13.803474 13.792445,14 13.536412,14 v 0 H 2.4633214 C 2.2072886,13.999876 1.9998677,13.803223 2.0000001,13.560794 2.0002647,13.318489 2.207549,13.122218 2.46332,13.122085 h 0.4635899 c 0.4972322,0.01404 0.9123436,-0.356184 0.92718,-0.826992 5.292e-4,-0.01692 5.292e-4,-0.03396 0,-0.05088 0,0 0.9271666,-4.0133174 0.9271666,-4.8786888 -0.00741,-0.4709411 0.3898123,-0.8583496 0.8873009,-0.8653695 0.00888,-1.251e-4 0.017685,-1.251e-4 0.026595,0 h 4.6093726 c 0.497232,-0.014039 0.912345,0.3561844 0.927167,0.8269931 5.32e-4,0.01692 5.32e-4,0.03396 0,0.05088 0,0.8779093 0.927181,4.8786892 0.927181,4.8786892 -0.01486,0.470809 0.376164,0.863869 0.873396,0.877908 0.01782,5.05e-4 0.03592,5.05e-4 0.05374,0 h 0.450346 c 0.25604,0 0.463591,0.196526 0.463591,0.438962 v 0 -0.01248 z M 9.2846626,10.88968 c 0,-0.692677 -0.5929863,-1.2541613 -1.3245252,-1.2541613 -0.7315377,0 -1.3245386,0.5614933 -1.3245386,1.2541613 v 2.508323 h 2.6490638 z"
         id="Shape"
         style="opacity:0.6;fill:#717065;fill-opacity:1" />
    </g>
  </g>
</svg>
