<?xml version="1.0" encoding="UTF-8" standalone="no"?>
<svg
   width="24"
   height="24"
   viewBox="0 0 24 24"
   version="1.1"
   id="svg10"
   sodipodi:docname="remains-m.svg"
   inkscape:version="1.2.1 (9c6d41e410, 2022-07-14)"
   xmlns:inkscape="http://www.inkscape.org/namespaces/inkscape"
   xmlns:sodipodi="http://sodipodi.sourceforge.net/DTD/sodipodi-0.dtd"
   xmlns="http://www.w3.org/2000/svg"
   xmlns:svg="http://www.w3.org/2000/svg">
  <defs
     id="defs14" />
  <sodipodi:namedview
     id="namedview12"
     pagecolor="#ffffff"
     bordercolor="#000000"
     borderopacity="0.25"
     inkscape:showpageshadow="2"
     inkscape:pageopacity="0.0"
     inkscape:pagecheckerboard="0"
     inkscape:deskcolor="#d1d1d1"
     showgrid="false"
     inkscape:zoom="32.291667"
     inkscape:cx="11.752258"
     inkscape:cy="12.108387"
     inkscape:window-width="3840"
     inkscape:window-height="2072"
     inkscape:window-x="0"
     inkscape:window-y="0"
     inkscape:window-maximized="1"
     inkscape:current-layer="svg10" />
  <title
     id="title2">remains-m</title>
  <g
     id="Page-1"
     stroke="none"
     stroke-width="1"
     fill="none"
     fill-rule="evenodd">
    <g
       id="remains-m"
       fill-rule="nonzero">
      <path
         d="M 16.846153,8.538462 H 7.1538462 c -0.7647231,0 -1.3846154,-0.619893 -1.3846154,-1.384616 V 3.6923077 C 5.7692308,3.3100154 6.0792462,3 6.4615385,3 6.8438308,3 7.1538462,3.3100154 7.1538462,3.6923077 V 5.7692309 H 8.5384615 V 4.3846154 C 8.5384615,3.6198922 9.1583538,3 9.9230769,3 10.6878,3 11.307692,3.6198922 11.307692,4.3846154 v 1.3846155 h 1.384616 V 4.3846154 C 12.692308,3.6198922 13.3122,3 14.076923,3 c 0.764724,0 1.384615,0.6198922 1.384615,1.3846154 v 1.3846155 h 1.384615 V 3.6923077 C 16.846153,3.3100154 17.156169,3 17.538462,3 c 0.382291,0 0.692307,0.3100154 0.692307,0.6923077 V 7.153846 c 0,0.764723 -0.619892,1.384616 -1.384616,1.384616 z M 20.307693,21 H 3.6923078 C 3.3100154,21 3,20.689985 3,20.307692 3,19.9254 3.3100154,19.615384 3.6923078,19.615384 h 0.6923075 c 0.7647231,0 1.3846155,-0.619893 1.3846155,-1.384615 0,0 1.3846154,-5.53846 1.3846154,-6.923076 0,-0.764724 0.6198922,-1.384615 1.3846153,-1.384615 h 6.9230765 c 0.764724,0 1.384615,0.619891 1.384615,1.384615 0,1.384616 1.384616,6.923076 1.384616,6.923076 0,0.764722 0.619893,1.384615 1.384615,1.384615 h 0.692309 C 20.684722,19.615246 20.992522,19.916953 21,20.293846 21,20.689985 20.689984,21 20.307693,21 Z m -6.23077,-4.846154 c 0,-1.147015 -0.929908,-2.076923 -2.076923,-2.076923 -1.147015,0 -2.0769231,0.929908 -2.0769231,2.076923 v 3.461538 h 4.1538461 v -4.846153 z"
         id="Shape"
         style="opacity:0.6;fill:#717065;fill-opacity:1" />
    </g>
  </g>
</svg>
