<?xml version="1.0" encoding="UTF-8" standalone="no"?>
<svg width="23px" height="23px" viewBox="0 0 23 23" version="1.1" xmlns="http://www.w3.org/2000/svg" xmlns:xlink="http://www.w3.org/1999/xlink">
    <!-- Generator: Sketch 3.8.3 (29802) - http://www.bohemiancoding.com/sketch -->
    <title>remains-m</title>
    <desc>Created with Sketch.</desc>
    <defs></defs>
    <g id="POI-NIght" stroke="none" stroke-width="1" fill="none" fill-rule="evenodd">
        <g id="fort-m">
            <ellipse id="Oval-1-Copy-41" fill-opacity="0.1" fill="#FFFFFF" cx="11.5" cy="11.5" rx="11.5" ry="11.5"></ellipse>
            <ellipse id="Oval-1-Copy-40" fill="#252522" cx="11.5" cy="11.5" rx="10.5" ry="10.5"></ellipse>
            <path d="M15,9 L8,9 C7.4477,9 7,8.5523 7,8 L7,5.5 C7,5.2239 7.2239,5 7.5,5 C7.7761,5 8,5.2239 8,5.5 L8,7 L9,7 L9,6 C9,5.4477 9.4477,5 10,5 C10.5523,5 11,5.4477 11,6 L11,7 L12,7 L12,6 C12,5.4477 12.4477,5 13,5 C13.5523,5 14,5.4477 14,6 L14,7 L15,7 L15,5.5 C15,5.2239 15.2239,5 15.5,5 C15.7761,5 16,5.2239 16,5.5 L16,8 C16,8.5523 15.5523,9 15,9 L15,9 Z M17.5,18 L5.5,18 C5.2239,18 5,17.7761 5,17.5 C5,17.2239 5.2239,17 5.5,17 L6,17 C6.5523,17 7,16.5523 7,16 C7,16 8,12 8,11 C8,10.4477 8.4477,10 9,10 L14,10 C14.5523,10 15,10.4477 15,11 C15,12 16,16 16,16 C16,16.5523 16.4477,17 17,17 L17.5,17 C17.7723,16.9999 17.9946,17.2178 18,17.49 C18,17.7761 17.7761,18 17.5,18 Z M13,14.5 C13,13.6716 12.3284,13 11.5,13 C10.6716,13 10,13.6716 10,14.5 L10,17 L13,17 L13,13.5 L13,14.5 Z" id="Shape" fill-opacity="0.7" fill="#FFFFFF"></path>
        </g>
    </g>
</svg>