<svg width="28" height="28" viewBox="0 0 28 28">
  <g fill="none" fill-rule="evenodd">
    <circle cx="14" cy="14" r="14" fill="#FFF" opacity=".4"/>
    <circle cx="14" cy="14" r="13" fill="#6E5626"/>
    <path fill="#FFF" d="M12.1538462,11.6666667 L12.1538462,7.74978073 C12.1538462,7.33568827 11.8186694,7 11.3967191,7 L11.5263578,7 C11.1082081,7 10.7692308,7.33561516 10.7692308,7.74978073 L10.7692308,11.6666667 L9.38461538,11.6666667 L9.38461538,7.74978073 C9.38461538,7.33568827 9.04943862,7 8.62748836,7 L8.75712703,7 C8.33897732,7 8,7.33561516 8,7.74978073 L8,11.6666667 C8,13.384 9.38461538,14.4666667 10.7692308,14.4666667 L10.5735104,20.0077273 C10.5541535,20.5557444 10.9853639,21 11.5479642,21 L11.3751127,21 C11.9326456,21 12.3687537,20.5509375 12.3495665,20.0077273 L12.1538462,14.4666667 C13.5384615,14.4666667 14.9230769,13.384 14.9230769,11.6666667 L14.9230769,7.74978073 C14.9230769,7.33568827 14.5879002,7 14.1659499,7 L14.2955886,7 C13.8774389,7 13.5384615,7.33561516 13.5384615,7.74978073 L13.5384615,11.6666667 L12.1538462,11.6666667 Z M16.3076923,15.4 L18.1538462,15.4 L18.1538462,19.9988322 C18.1538462,20.5517619 18.6007485,21 19.1633489,21 L18.9904973,21 C19.5480302,21 20,20.5500512 20,19.9931545 L20,7 C17.8584615,7 16.3076923,8.568 16.3076923,9.8 L16.3076923,15.4 Z" opacity=".6"/>
  </g>
</svg>
