<?xml version="1.0" encoding="utf-8"?>
<!-- Generator: Adobe Illustrator 21.0.2, SVG Export Plug-In . SVG Version: 6.00 Build 0)  -->
<svg version="1.1" id="Слой_1" xmlns="http://www.w3.org/2000/svg" xmlns:xlink="http://www.w3.org/1999/xlink" x="0px" y="0px"
	 viewBox="0 0 32.4 32.4" enable-background="new 0 0 32.4 32.4" xml:space="preserve">
<title>restaurant-l</title>
<desc>Created with Sketch.</desc>
<g id="POI-Night">
	<g id="Artboard-1" transform="translate(-137.000000, -396.000000)">
		<g id="restaurant-l" transform="translate(137.000000, 396.000000)">
			<ellipse id="Oval-1-Copy-39" fill="#FFFFFF" fill-opacity="0.1" cx="16.2" cy="16.2" rx="16.2" ry="16.2"/>
			<ellipse id="Oval-1-Copy-38" fill="#332714" cx="16.2" cy="16.2" rx="15" ry="15"/>
			<path id="Shape" fill="#FFFFFF" fill-opacity="0.7" d="M13.8,13.2V8.1c0-0.5-0.4-0.9-0.9-0.9l0,0c-0.5,0-0.9,0.4-0.9,0.9v5.1
				h-1.8V8.1c0-0.5-0.4-0.9-0.9-0.9l0,0c-0.5,0-0.9,0.4-0.9,0.9v5.1c0,2.2,1.8,3.6,3.6,3.6L11.7,24c0,0.7,0.5,1.2,1.2,1.2l0,0
				c0.7,0,1.2-0.5,1.2-1.2l-0.3-7.2c1.8,0,3.6-1.4,3.6-3.6V8.1c0-0.5-0.4-0.9-0.9-0.9l0,0c-0.5,0-0.9,0.4-0.9,0.9v5.1H13.8z
				 M19.2,18h2.4v6c0,0.7,0.5,1.2,1.2,1.2l0,0c0.7,0,1.2-0.5,1.2-1.2V7.2c-2.8,0-4.8,2-4.8,3.6V18z"/>
		</g>
	</g>
</g>
</svg>
