<?xml version="1.0" encoding="UTF-8" standalone="no"?>
<svg width="27px" height="27px" viewBox="0 0 27 27" version="1.1" xmlns="http://www.w3.org/2000/svg" xmlns:xlink="http://www.w3.org/1999/xlink">
    <!-- Generator: Sketch 3.7.2 (28276) - http://www.bohemiancoding.com/sketch -->
    <title>sauna-l</title>
    <desc>Created with Sketch.</desc>
    <defs></defs>
    <g id="POI" stroke="none" stroke-width="1" fill="none" fill-rule="evenodd">
        <g id="pool-l">
            <circle id="Oval-1-Copy-39" fill="#FFFFFF" opacity="0" cx="13.5" cy="13.5" r="13.5"></circle>
            <path d="M13.5,26 C20.4035594,26 26,20.4035594 26,13.5 C26,6.59644063 20.4035594,1 13.5,1 C6.59644063,1 1,6.59644063 1,13.5 C1,20.4035594 6.59644063,26 13.5,26 Z" id="Oval-1-Copy-38" fill="#33332E"></path>
            <path d="M12.4736842,10 L7.34210526,14.5882353 C7.09845789,14.8060706 7,14.9411765 7,15.1176471 C7,15.4676941 7.34210526,15.6470588 7.68421053,15.6470588 L8.36842105,15.6470588 L8.36842105,21.2941176 C8.36842105,21.6851765 8.67357895,22 9.05263158,22 L13.5,22 L17.9473684,22 C18.3264211,22 18.6315789,21.6851765 18.6315789,21.2941176 L18.6315789,15.6470588 L19.3157895,15.6470588 C19.6578947,15.6470588 20,15.4676941 20,15.1176471 C20,14.9411765 19.9055858,14.8012 19.6578947,14.5882353 L14.5263158,10 L12.4736842,10 Z" id="path5881" fill="#C2C2C0"></path>
            <path d="M13.2477579,8 C13.1234708,7.69562206 13,7.350765 13,6.82336484 C13,5.78062897 13.50025,5.08547173 13.5,4.39031449 C13.49975,3.69515724 13.17185,3 13.17185,3 L14.1875,3 C14.29755,3.45897062 14.5,3.90783365 14.5,4.39031449 C14.5,5.43305035 13.99975,6.12820759 14,6.82336484 C13.9998405,7.2667899 14.2033283,7.56878956 14.3507242,8 L13.2477579,8 Z M10.1526514,10.0752764 C10.2996417,9.64948102 10.4998418,9.34875868 10.5,8.90883657 C10.48265,8.19527156 10,7.8661007 10,6.82336484 C10,5.78062897 10.50025,5.08547173 10.5,4.39031449 C10.49975,3.69515724 10.17185,3 10.17185,3 L11.1875,3 C11.29755,3.45897062 11.5,3.90783365 11.5,4.39031449 C11.5,5.43305035 10.99975,6.12820759 11,6.82336484 C10.9997531,7.50999766 11.4878066,7.85752402 11.4997762,8.87078836 L10.1526514,10.0752764 Z M16.3345759,9.61679728 C16.4257452,9.39265737 16.4999037,9.17651518 16.5,8.90883657 C16.48265,8.19527156 16,7.8661007 16,6.82336484 C16,5.78062897 16.50025,5.08547173 16.5,4.39031449 C16.49975,3.69515724 16.17185,3 16.17185,3 L17.1875,3 C17.29755,3.45897062 17.5,3.90783365 17.5,4.39031449 C17.5,5.43305035 16.99975,6.12820759 17,6.82336484 C16.99975,7.51852208 17.5,7.8661007 17.5,8.90883657 C17.5,9.58235743 17.2914999,9.96585256 17.1437798,10.3403208 L16.3345759,9.61679728 Z" id="Combined-Shape" fill="#C2C2C0"></path>
        </g>
    </g>
</svg>