<?xml version="1.0" encoding="UTF-8"?>
<svg version="1.1" viewBox="0 0 24 24" xml:space="preserve" xmlns="http://www.w3.org/2000/svg">
 <g opacity=".6">
  <circle cx="12" cy="12" r="12" fill="#fff" opacity="1"/>
  <circle cx="12" cy="12" r="11" fill="#8C5F93"/>
  <path d="m11.566 2.6328-2.5312 3.543-0.0058593 0.0078126a4 4 0 0 0-0.52148 0.73828l-2.1113-0.80273 1.4844 3.2637h8.7207l-0.7832-1.7207a4 4 0 0 0-0.39258-0.875l1.7441-1.4199-4.3008-0.41797a4 4 0 0 0-0.86914-0.095703 4 4 0 0 0-0.074219 0.0058594l-0.35938-2.2266zm-6.0664 7.918c-0.554 0-1 0.446-1 1v0.89844c0 0.554 0.446 1 1 1h0.56445v5.1445c0 0.554 0.41769 1 0.93555 1s0.93555-0.446 0.93555-1v-5.1445h8.1523v5.1445c0 0.554 0.4072 1 0.91211 1s0.91211-0.446 0.91211-1v-5.1445h0.58789c0.554 0 1-0.446 1-1v-0.89844c0-0.554-0.446-1-1-1h-13z" fill="#fff"/>
 </g>
</svg>
