<?xml version="1.0" encoding="UTF-8" standalone="no"?>
<svg width="27px" height="27px" viewBox="0 0 27 27" version="1.1" xmlns="http://www.w3.org/2000/svg" xmlns:xlink="http://www.w3.org/1999/xlink" xmlns:sketch="http://www.bohemiancoding.com/sketch/ns">
    <!-- Generator: Sketch 3.4.2 (15857) - http://www.bohemiancoding.com/sketch -->
    <title>school-l</title>
    <desc>Created with Sketch.</desc>
    <defs>
        <circle id="path-1" cx="13.5" cy="13.5" r="12.5"></circle>
    </defs>
    <g id="POI" stroke="none" stroke-width="1" fill="none" fill-rule="evenodd" sketch:type="MSPage">
        <g id="school-l-copy" sketch:type="MSLayerGroup">
            <circle id="Oval-1-Copy-39" opacity="0" fill="#FFFFFF" sketch:type="MSShapeGroup" cx="13.5" cy="13.5" r="13.5"></circle>
            <g id="Oval-1-Copy-38">
                <use fill="#3D3D37" fill-rule="evenodd" sketch:type="MSShapeGroup" xlink:href="#path-1"></use>
                <use fill="none" xlink:href="#path-1"></use>
            </g>
            <path d="M15.75,4 C14.7805,4 14,4.7805 14,5.75 C14,6.7195 14.7805,7.5 15.75,7.5 C16.7195,7.5 17.5,6.7195 17.5,5.75 C17.5,4.7805 16.7195,4 15.75,4 L15.75,4 Z M7.75,6 C6.7805,6 6,6.7805 6,7.75 C6,8.7195 6.7805,9.5 7.75,9.5 C8.7195,9.5 9.5,8.7195 9.5,7.75 C9.5,6.7805 8.7195,6 7.75,6 L7.75,6 Z M17,8 C16.627322,8 16.013592,8.1345 15.5,8.5 L12.25,10.8125 C11.368196,11.44 12.17732,12.5443 13,12 L15.125,10.59375 C15.125,10.59375 16.526043,13.598 16,15 C15.98243,15.04683 15.96749,15.08933 15.96875,15.125 L13.78125,20.9375 C13.530309,21.606628 14.013036,22.006672 14.5,22 C14.81932,21.9956 15.124779,21.806965 15.28125,21.4375 L18,15 C18,15 18.5,17.9998 20.5,18 C21.70185,18.0001 22.583333,18 23.25,18 C24,18 24,17.25 24,17.25 C24,17.25 24,16.5 23.25,16.5 C22.75,16.5 21.5,16.4998 21,16.5 C19.932813,16.5004 20,14.8975 20,14 C20,12.4998 19,10 19,10 L22,12 C22.906394,12.6043 23.691522,11.5343 22.8125,10.875 L19.5,8.5 C18.896477,8.0701 18.703177,8.0001 18,8 L17,8 L17,8 Z M6.5,10 C6,10 5.763524,10.2365 5.5,10.5 L3.375,12.625 C3.1014,12.8986 3,13.1435 3,13.5 C3,14 3.764327,14.2356 4.1875,13.8125 L6,12 C7,12 7.375,14.5 7,15.5 L5.5,19.5 C5.084539,20.6079 6.644264,20.9486 7,20 L8.5,16 C8.5,16 9,17 10,17 L13,17 C14,17 14,15.5 13,15.5 L10.5,15.5 C10,15.5 10,14.5 10,14 C10,12 9,10 8,10 L6.5,10 Z" id="rect6848-8-copy" opacity="0.7" fill="#FFFFFF" sketch:type="MSShapeGroup"></path>
        </g>
    </g>
</svg>