<svg width="16" height="16" viewBox="0 0 16 16">
  <g fill="none" fill-rule="evenodd">
    <circle cx="8" cy="8" r="8" fill="#3D3C36"/>
    <circle cx="8" cy="8" r="7" fill="#3D3C36"/>
    <path fill="#FFF" d="M9.4,4 C8.902948,4 8.5,4.37701053 8.5,4.84210526 C8.5,5.3072 8.902948,5.68421053 9.4,5.68421053 C9.897052,5.68421053 10.3,5.3072 10.3,4.84210526 C10.3,4.37701053 9.897052,4 9.4,4 L9.4,4 Z M5.8,4.84210526 C5.302948,4.84210526 4.9,5.21911579 4.9,5.68421053 C4.9,6.14930526 5.302948,6.52631579 5.8,6.52631579 C6.297052,6.52631579 6.7,6.14930526 6.7,5.68421053 C6.7,5.21911579 6.297052,4.84210526 5.8,4.84210526 L5.8,4.84210526 Z M9.85,6.10526316 L9.4,6.10526316 L7.6,6.94736842 L7.6,7.78947368 L9.4,6.94736842 L9.4,7.78947368 L9.4,9.10526316 L8.5,12 L9.4,12 L10.3,9.05263158 C10.3,9.05263158 10.525,10.3157053 11.425,10.3157895 C11.965837,10.3158737 12.700003,10.3157895 13,10.3157895 L13,9.68421053 C12.775,9.68421053 11.875,9.68412632 11.65,9.68421053 C11.169769,9.68437895 11.2,9.00951579 11.2,8.63157895 C11.2,7.99991579 10.75,6.94736842 10.75,6.94736842 L12.1,7.73684211 C12.50788,7.99124211 12.861184,7.54071579 12.465625,7.26315789 L10.975,6.31578947 C10.703416,6.13482105 10.616431,6.10534737 10.3,6.10526316 L9.85,6.10526316 Z M5.575,6.94736842 C5.35,6.94736842 5.243584,7.04698947 5.125,7.15789474 L4.16875,8.05263158 C4.04563,8.16783158 4,8.27098947 4,8.42105263 C4,8.63157895 4.343944,8.73077895 4.534375,8.55267368 L5.35,7.78947368 L5.8,7.78947368 L5.8,8.63157895 L4.9,10.9473684 C4.718038,11.4155789 5.414926,11.5573053 5.575,11.1578947 L6.029167,10.0631579 L8.5,10.0631579 L8.5,9.47368421 L7.15,9.47368421 L7.15,7.78947368 C7.15,7.36842105 6.7,6.94736842 6.25,6.94736842 L5.575,6.94736842 Z" opacity=".6"/>
  </g>
</svg>
