<svg version="1.1" viewBox="0 0 24 24" xmlns="http://www.w3.org/2000/svg">
 <title>school-m</title>
 <g id="Page-2:-Night" fill="none" fill-rule="evenodd" opacity=".6">
  <g id="school-m" fill-rule="nonzero">
   <circle id="Oval" cx="12" cy="12" r="12" fill="#fff"/>
   <circle id="Oval" cx="12" cy="12" r="11" fill="#717065"/>
   <path id="Shape" d="m13.167 6c-0.64433 0-1.1667 0.51655-1.1667 1.1538 0 0.63729 0.52233 1.1538 1.1667 1.1538 0.64433 0 1.1667-0.51655 1.1667-1.1538 0-0.63729-0.52233-1.1538-1.1667-1.1538zm-5.3083 0.92307c-0.64433 0-1.1667 0.51655-1.1667 1.1538 0 0.63729 0.52233 1.1538 1.1667 1.1538 0.64433 0 1.1667-0.51655 1.1667-1.1538 0-0.63729-0.52233-1.1538-1.1667-1.1538zm6.2416 1.8461c-0.26088 0-0.69049 0.093138-1.05 0.34615l-2.275 1.6154c-0.61726 0.4344-0.050866 1.1845 0.525 0.80769l1.4875-0.98076s0.40752 0.32871 0.6125 0.98076l-0.02912 1.702-1.5167 4.0096c-0.17566 0.46329 0.15496 0.75461 0.49583 0.75005 0.22352 0 0.44463-0.14811 0.55416-0.4039l1.8958-4.2115s0.35 1.8461 1.75 1.8461c0.84129 9.23e-5 1.5167 0 1.9833 0s0.46667-0.46154 0.46667-0.46154 0-0.46154-0.46667-0.46154c-0.35 0-1.5167-9.23e-5 -1.8667 0 0 0-0.46667 0-0.46667-0.92307 0-0.64957-0.7282-2.3062-0.93333-2.7692v-0.46154l2.3333 1.2692c0.63448 0.41843 1.1986-0.32234 0.58333-0.7788l-2.45-1.4135c-0.48249-0.26806-1.0101-0.46154-1.6333-0.46154h-4.66e-5zm-6.65 0.92307c-0.35 0-0.51553 0.16375-0.7 0.34615l-1.4875 1.4712c-0.19152 0.18941-0.2625 0.35889-0.2625 0.60572 0 0.34615 0.52045 0.52366 0.81666 0.23077l1.2833-1.2692c0.29381 0 0.7 0.036 0.7 0.46154v1.9615l-1.05 2.7692c-0.29083 0.76698 0.80098 1.0029 1.05 0.34615l1.05-2.7692s0.35 0.46154 1.05 0.46154h2.0417c0.7 0 0.7-0.92307 0-0.92307h-1.8083s-0.46667 0-0.46667-0.46154v-0.6923c0-1.3846-0.46667-2.5385-1.1667-2.5385h-1.05z" fill="#fff"/>
  </g>
 </g>
</svg>
