<?xml version="1.0" encoding="UTF-8" standalone="no"?>
<svg width="23px" height="23px" viewBox="0 0 23 23" version="1.1" xmlns="http://www.w3.org/2000/svg" xmlns:xlink="http://www.w3.org/1999/xlink" xmlns:sketch="http://www.bohemiancoding.com/sketch/ns">
    <!-- Generator: Sketch 3.4.2 (15857) - http://www.bohemiancoding.com/sketch -->
    <title>school-m</title>
    <desc>Created with Sketch.</desc>
    <defs>
        <ellipse id="path-1" cx="11.5" cy="11.5" rx="10.5" ry="10.5"></ellipse>
    </defs>
    <g id="POI" stroke="none" stroke-width="1" fill="none" fill-rule="evenodd" sketch:type="MSPage">
        <g id="school-m-copy" sketch:type="MSLayerGroup">
            <ellipse id="Oval-1-Copy-41" opacity="0" fill="#FFFFFF" sketch:type="MSShapeGroup" cx="11.5" cy="11.5" rx="11.5" ry="11.5"></ellipse>
            <g id="Oval-1-Copy-40">
                <use fill="#33332E" fill-rule="evenodd" sketch:type="MSShapeGroup" xlink:href="#path-1"></use>
                <use fill="none" xlink:href="#path-1"></use>
            </g>
            <path d="M12.75,5 C12.05964,5 11.5,5.5596 11.5,6.25 C11.5,6.9404 12.05964,7.5 12.75,7.5 C13.44036,7.5 14,6.9404 14,6.25 C14,5.5596 13.44036,5 12.75,5 L12.75,5 Z M7.0625,6 C6.37214,6 5.8125,6.5596 5.8125,7.25 C5.8125,7.9404 6.37214,8.5 7.0625,8.5 C7.75286,8.5 8.3125,7.9404 8.3125,7.25 C8.3125,6.5596 7.75286,6 7.0625,6 L7.0625,6 Z M13.75,8 C13.47049,8 13.01019,8.1009 12.625,8.375 L10.1875,10.125 C9.52615,10.5956 10.133,11.4082 10.75,11 L12.34375,9.9375 C12.34375,9.9375 12.78038,10.2936 13,11 L12.9688,12.8438 L11.3438,17.1875 C11.15559,17.6894 11.50983,18.005 11.87505,18 C12.11454,18 12.35144,17.8396 12.4688,17.5625 L14.50005,13 C14.50005,13 14.87505,14.9999 16.37505,15 C17.27644,15.0001 18.00005,15 18.50005,15 C19.00005,15 19.00005,14.5 19.00005,14.5 C19.00005,14.5 19.00005,14 18.50005,14 C18.12505,14 16.87505,13.9999 16.50005,14 C16.50005,14 16.00005,14 16.00005,13 C16.00005,12.2963 15.21983,10.5016 15.00005,10 L15.00005,9.5 L17.50005,10.875 C18.17985,11.3283 18.78432,10.5258 18.12505,10.0313 L15.50005,8.5 C14.98309,8.2096 14.41782,8 13.75005,8 L13.75,8 Z M6.625,9 C6.25,9 6.07264,9.1774 5.875,9.375 L4.28125,10.9688 C4.07605,11.174 4,11.3576 4,11.625 C4,12 4.55763,12.1923 4.875,11.875 L6.25,10.5 C6.5648,10.5 7,10.539 7,11 L7,13.125 L5.875,16.125 C5.5634,16.9559 6.7332,17.2115 7,16.5 L8.125,13.5 C8.125,13.5 8.5,14 9.25,14 L11.4375,14 C12.1875,14 12.1875,13 11.4375,13 L9.5,13 C9.5,13 9,13 9,12.5 L9,11.75 C9,10.25 8.5,9 7.75,9 L6.625,9 L6.625,9 Z" id="path17507-copy" opacity="0.7" fill="#FFFFFF" sketch:type="MSShapeGroup"></path>
        </g>
    </g>
</svg>