<?xml version="1.0" encoding="UTF-8" standalone="no"?>
<svg width="23px" height="23px" viewBox="0 0 27 27" version="1.1" xmlns="http://www.w3.org/2000/svg" xmlns:xlink="http://www.w3.org/1999/xlink">
    <!-- Generator: Sketch 3.7.2 (28276) - http://www.bohemiancoding.com/sketch -->
    <title>seefood-shop-l copy</title>
    <desc>Created with Sketch.</desc>
    <defs></defs>
    <g id="POI" stroke="none" stroke-width="1" fill="none" fill-rule="evenodd">
        <g id="lighthouse-l">
            <circle id="Oval-1-Copy-39" fill="#FFFFFF" cx="13.5" cy="13.5" r="13.5"></circle>
            <circle id="Oval-1-Copy-38" fill="#33332E" cx="13.5" cy="13.5" r="12.5"></circle>
        </g>
        <path d="M16,9.0752622 L16,9 C15.6517335,8.19587519 12.8482116,6.52786081 12.8482116,6.52786081 C12.3797991,6.23308443 12.1083794,6.43351749 12.2420721,6.96828842 L12.8362083,9.34483333 C10.5176401,10.0699078 8.62482629,11.7666939 7.6708292,12.7531219 L4,10 L4,17 L7.6708292,14.2468781 C8.33849202,14.937238 9.46598886,15.9755324 10.8774462,16.7851618 C10.4008537,16.9527844 10.1493633,17.4480898 10.3164062,17.9492188 L10.6835938,19.0507812 C10.8583401,19.5750203 11.3210526,19.6789474 11.7109581,19.2890419 L13.2318804,17.7681196 C13.8006755,17.9149054 14.3924281,18 15,18 C19.418278,18 23,13.5 23,13.5 C23,13.5 19.9463116,9.66341025 16,9.0752622 Z M18,14 C18.5522847,14 19,13.5522847 19,13 C19,12.4477153 18.5522847,12 18,12 C17.4477153,12 17,12.4477153 17,13 C17,13.5522847 17.4477153,14 18,14 Z" id="Combined-Shape" fill="#C2C2C0"></path>
    </g>
</svg>
