<?xml version="1.0" encoding="UTF-8" standalone="no"?>
<svg width="27px" height="27px" viewBox="0 0 27 27" version="1.1" xmlns="http://www.w3.org/2000/svg" xmlns:xlink="http://www.w3.org/1999/xlink">
    <!-- Generator: Sketch 3.7.2 (28276) - http://www.bohemiancoding.com/sketch -->
    <title>seefood-shop-l copy</title>
    <desc>Created with Sketch.</desc>
    <defs></defs>
    <g id="Page-6" stroke="none" stroke-width="1" fill="none" fill-rule="evenodd">
        <g id="seefood-shop-l-copy" transform="translate(1.000000, 1.000000)">
            <g id="POI">
                <g>
                    <g id="lighthouse-l" fill="#33332E">
                        <circle id="Oval-1-Copy-38" cx="12.5" cy="12.5" r="12.5"></circle>
                    </g>
                    <path d="M15,8.0752622 L15,8 C14.6517335,7.19587519 11.8482116,5.52786081 11.8482116,5.52786081 C11.3797991,5.23308443 11.1083794,5.43351749 11.2420721,5.96828842 L11.8362083,8.34483333 C9.5176401,9.0699078 7.62482629,10.7666939 6.6708292,11.7531219 L3,9 L3,16 L6.6708292,13.2468781 C7.33849202,13.937238 8.46598886,14.9755324 9.8774462,15.7851618 C9.4008537,15.9527844 9.1493633,16.4480898 9.3164062,16.9492188 L9.6835938,18.0507812 C9.8583401,18.5750203 10.3210526,18.6789474 10.7109581,18.2890419 L12.2318804,16.7681196 C12.8006755,16.9149054 13.3924281,17 14,17 C18.418278,17 22,12.5 22,12.5 C22,12.5 18.9463116,8.66341025 15,8.0752622 L15,8.0752622 Z M17,13 C17.5522847,13 18,12.5522847 18,12 C18,11.4477153 17.5522847,11 17,11 C16.4477153,11 16,11.4477153 16,12 C16,12.5522847 16.4477153,13 17,13 L17,13 Z" id="Combined-Shape" fill="#C2C2C0"></path>
                </g>
            </g>
        </g>
    </g>
</svg>