<svg width="16" height="16" viewBox="0 0 16 16">
  <g fill="none" fill-rule="evenodd">
    <circle cx="8" cy="8" r="8" fill="#FFF" opacity=".4"/>
    <circle cx="8" cy="8" r="7" fill="#4E3551"/>
    <path fill="#FFF" d="M9.5,6.40572637 C9.32586675,5.97235221 7.9241058,5.07339432 7.9241058,5.07339432 C7.68989955,4.91452785 7.5541897,5.02254903 7.62103605,5.3107579 L7.91810415,6.59157048 C6.75882005,6.98234134 5.81241314,7.35786649 5.3354146,7.88949095 L4,6.9446653 L4,9.63935996 L5.3354146,8.69453432 C5.66924601,9.06659614 6.23299443,9.08723449 6.9387231,9.52357529 C6.70042685,9.61391363 6.57468165,9.880853 6.6582031,10.1509309 L6.8417969,10.7446058 C6.92917005,11.0271386 7.1605263,11.083149 7.35547905,10.8730138 L8.1159402,10.0533295 C8.40033775,10.1324381 8.69621405,10.1782989 9,10.1782989 C11.209139,10.1782989 12,8.29201263 12,8.29201263 C12,8.29201263 11.4731558,6.76326398 9.5,6.4462881 L9.5,6.40572637 Z M10,8.5614821 C10.2761424,8.5614821 10.5,8.32019089 10.5,8.02254317 C10.5,7.72489544 10.2761424,7.48360423 10,7.48360423 C9.72385765,7.48360423 9.5,7.72489544 9.5,8.02254317 C9.5,8.32019089 9.72385765,8.5614821 10,8.5614821 L10,8.5614821 Z" opacity=".6"/>
  </g>
</svg>
