<?xml version="1.0" encoding="UTF-8"?>
<svg width="24px" height="24px" viewBox="0 0 24 24" version="1.1" xmlns="http://www.w3.org/2000/svg" xmlns:xlink="http://www.w3.org/1999/xlink">
    <title>ship-m</title>
    <g id="Page-2:-Night" stroke="none" stroke-width="1" fill="none" fill-rule="evenodd" opacity="0.6">
        <g id="ship-m" fill-rule="nonzero">
            <rect id="Rectangle" fill="#FFFFFF" x="0" y="0" width="24" height="24" rx="2.5"></rect>
            <rect id="Rectangle" fill="#2F6499" x="1" y="1" width="22" height="22" rx="2"></rect>
            <path d="M17.4560282,17.7272727 C16.5714827,17.7272727 15.6869373,17.4281818 14.9105736,16.8872727 C13.3578464,17.9754545 11.3723918,17.9754545 9.81966454,16.8872727 C9.04330091,17.4281818 8.15875545,17.7272727 7.27421,17.7272727 L6.00148272,17.7272727 L6.00148272,19 L7.27421,19 C8.15239181,19 9.01784636,18.7772727 9.81966454,18.37 C11.4233009,19.1909091 13.3069373,19.1909091 14.9105736,18.37 C15.7123918,18.7836364 16.5778464,19 17.4560282,19 L18.7287555,19 L18.7287555,17.7272727 L17.4560282,17.7272727 Z M7.24239181,16.4545455 L7.27421,16.4545455 C8.29239181,16.4545455 9.19602818,15.8945455 9.81966454,15.1818182 C10.4433009,15.8945455 11.3469373,16.4545455 12.3651191,16.4545455 C13.3833009,16.4545455 14.2869373,15.8945455 14.9105736,15.1818182 C15.53421,15.8945455 16.4378464,16.4545455 17.4560282,16.4545455 L17.4878464,16.4545455 L18.6905736,12.2036364 C18.7414827,12.0381818 18.7287555,11.86 18.6523918,11.7072727 C18.5760282,11.5545455 18.4360282,11.44 18.2705736,11.3890909 L17.4560282,11.1218182 L17.4560282,8.18181818 C17.4560282,7.48181818 16.8833009,6.90909091 16.1833009,6.90909091 L14.27421,6.90909091 L14.27421,5 L10.4560282,5 L10.4560282,6.90909091 L8.54693727,6.90909091 C7.84693727,6.90909091 7.27421,7.48181818 7.27421,8.18181818 L7.27421,11.1218182 L6.45330091,11.3890909 C6.28784636,11.44 6.14784636,11.5545455 6.07148272,11.7072727 C5.99511909,11.86 5.97602818,12.0381818 6.03330091,12.2036364 L7.24239181,16.4545455 Z M8.54693727,8.18181818 L16.1833009,8.18181818 L16.1833009,10.7081818 L12.3651191,9.45454545 L8.54693727,10.7081818 L8.54693727,8.18181818 Z" id="Shape" fill="#FFFFFF"></path>
        </g>
    </g>
</svg>