<svg height="24" viewBox="0 0 24 24" width="24"><g fill="none" fill-rule="evenodd"><rect fill="#fff" height="24" opacity=".4" rx="2.5" width="24"/><rect fill="#204366" height="22" rx="2" width="22" x="1" y="1"/><path d="m11 5c-.5 0-1 .5-1 1h-1.17646c-.45624 0-.85294.5438-.85294 1l.0294 3.5-2 1 2 3.5v1.5l2.5 1 2-1 2 1 2.5-1v-1.5l2-3.5-2-1v-3.5c0-.4562-.36729-1-.82353-1h-1.17647c0-.5-.5-1-1-1zm-2 2h7v3.0441l-3.5-2.0441-3.5 2.0441zm-1 11-2 1v1.5l2-1 2.5 1 2-1 2 1 2.5-.8534 2 .8534v-1.5l-2-1-2.5 1-2-1-2 1z" fill="#fff" opacity=".6"/></g></svg>