<?xml version="1.0" encoding="UTF-8"?>
<svg width="16px" height="16px" viewBox="0 0 16 16" version="1.1" xmlns="http://www.w3.org/2000/svg" xmlns:xlink="http://www.w3.org/1999/xlink">
    <title>ship-s</title>
    <g id="Page-2:-Night" stroke="none" stroke-width="1" fill="none" fill-rule="evenodd" opacity="0.6">
        <g id="ship-s" fill-rule="nonzero">
            <rect id="Rectangle" fill="#FFFFFF" x="0" y="0" width="16" height="16" rx="2.5"></rect>
            <rect id="Rectangle" fill="#2F6499" x="0.666666667" y="0.666666667" width="14.6666667" height="14.6666667" rx="2"></rect>
            <path d="M11.6373521,11.8181818 C11.0476551,11.8181818 10.4579582,11.6187879 9.94038242,11.2581818 C8.90523091,11.9836364 7.58159454,11.9836364 6.54644303,11.2581818 C6.02886727,11.6187879 5.4391703,11.8181818 4.84947333,11.8181818 L4.00098848,11.8181818 L4.00098848,12.6666667 L4.84947333,12.6666667 C5.43492788,12.6666667 6.01189757,12.5181818 6.54644303,12.2466667 C7.61553394,12.7939394 8.87129151,12.7939394 9.94038242,12.2466667 C10.4749279,12.5224242 11.0518976,12.6666667 11.6373521,12.6666667 L12.485837,12.6666667 L12.485837,11.8181818 L11.6373521,11.8181818 Z M4.82826121,10.969697 L4.84947333,10.969697 C5.52826121,10.969697 6.13068545,10.5963636 6.54644303,10.1212121 C6.9622006,10.5963636 7.56462485,10.969697 8.24341273,10.969697 C8.9222006,10.969697 9.52462485,10.5963636 9.94038242,10.1212121 C10.35614,10.5963636 10.9585642,10.969697 11.6373521,10.969697 L11.6585642,10.969697 L12.4603824,8.13575758 C12.4943218,8.02545455 12.485837,7.90666667 12.4349279,7.80484848 C12.3840188,7.7030303 12.2906855,7.62666667 12.1803824,7.59272727 L11.6373521,7.41454545 L11.6373521,5.45454545 C11.6373521,4.98787879 11.2555339,4.60606061 10.7888673,4.60606061 L9.51614,4.60606061 L9.51614,3.33333333 L6.97068545,3.33333333 L6.97068545,4.60606061 L5.69795818,4.60606061 C5.23129151,4.60606061 4.84947333,4.98787879 4.84947333,5.45454545 L4.84947333,7.41454545 L4.3022006,7.59272727 C4.19189757,7.62666667 4.09856424,7.7030303 4.04765515,7.80484848 C3.99674606,7.90666667 3.98401879,8.02545455 4.0222006,8.13575758 L4.82826121,10.969697 Z M5.69795818,5.45454545 L10.7888673,5.45454545 L10.7888673,7.13878788 L8.24341273,6.3030303 L5.69795818,7.13878788 L5.69795818,5.45454545 Z" id="Shape" fill="#FFFFFF"></path>
        </g>
    </g>
</svg>