<?xml version="1.0" encoding="UTF-8" standalone="no"?>
<svg width="27px" height="27px" viewBox="0 0 27 27" version="1.1" xmlns="http://www.w3.org/2000/svg" xmlns:xlink="http://www.w3.org/1999/xlink" xmlns:sketch="http://www.bohemiancoding.com/sketch/ns">
    <!-- Generator: Sketch 3.4.2 (15857) - http://www.bohemiancoding.com/sketch -->
    <title>ship-l</title>
    <desc>Created with Sketch.</desc>
    <defs></defs>
    <g id="Transport" stroke="none" stroke-width="1" fill="none" fill-rule="evenodd" sketch:type="MSPage">
        <g id="ship-l" sketch:type="MSLayerGroup">
            <circle id="Oval-1-Copy-39" fill="#FFFFFF" sketch:type="MSShapeGroup" cx="13.5" cy="13.5" r="13.5"></circle>
            <circle id="Oval-1-Copy-38" fill="#133655" sketch:type="MSShapeGroup" cx="13.5" cy="13.5" r="12.5"></circle>
            <path d="M11,4.3622 C10.446,4.3622 10,4.8082 10,5.3622 L8,5.3622 C7.446,5.3622 7,5.8082 7,6.3622 L7,12.4247 L5,13.3622 L7,17.3622 L7,19.3622 C8.5,19.3622 9.5,20.3627 10.5,20.3622 C11.5,20.3627 12,19.3622 13.5,19.3622 C15,19.3622 15.5,20.3617 16.5,20.3622 C17.5,20.3627 18.5,19.3622 20,19.3622 L20,17.3622 L22,13.3622 L20,12.4247 L20,6.3622 C20,5.8082 19.554,5.3622 19,5.3622 L17,5.3622 C17,4.8082 16.554,4.3622 16,4.3622 L11,4.3622 L11,4.3622 Z M9,7.3622 L18,7.3622 L18,11.4872 L13.5,9.3622 L9,11.4872 L9,7.3622 L9,7.3622 Z M7,21.3622 C6.30594,21.3622 5.66024,21.7671 5,21.9872 L5,24.01845 C5,24.01845 6,23.3627 7,23.3622 C8,23.3617 9,24.3622 10.5,24.3622 C12,24.3622 12.47352,23.3969 13.5,23.3622 C14.5,23.3627 15,24.3622 16.5,24.3622 C18,24.3622 19,23.3622 20,23.3622 C20.70165,23.3622 22,24.01845 22,24.01845 L22,21.9872 C21.3584,21.7404 20.65657,21.3622 20,21.3622 C18.5,21.3622 17.5,22.3627 16.5,22.3622 C15.5,22.3617 15,21.3622 13.5,21.3622 C12,21.3622 11.5,22.3627 10.5,22.3622 C9.5,22.3627 8.5,21.3622 7,21.3622 L7,21.3622 Z" id="path8421-9-1-0-1-copy" opacity="0.7" fill="#FFFFFF" sketch:type="MSShapeGroup"></path>
        </g>
    </g>
</svg>