<?xml version="1.0" encoding="UTF-8"?>
<svg width="24px" height="24px" viewBox="0 0 24 24" version="1.1" xmlns="http://www.w3.org/2000/svg" xmlns:xlink="http://www.w3.org/1999/xlink">
    <title>shop-bicycle-m</title>
    <g id="Page-2:-Night" stroke="none" stroke-width="1" fill="none" fill-rule="evenodd" opacity="0.6">
        <g id="shop-bicycle-m" fill-rule="nonzero">
            <circle id="Oval" fill="#FFFFFF" cx="12" cy="12" r="12"></circle>
            <circle id="Oval" fill="#8C5F93" cx="12" cy="12" r="11"></circle>
            <path d="M15.605,10.5 L14.6133333,7.77 C14.4441667,7.30916667 14.0066667,7 13.5166667,7 L12,7 L12,8.16666667 L13.5166667,8.16666667 L14.3683333,10.5 L11.5625,10.5 L11.3525,9.91666667 L12,9.91666667 L12,8.75 L9.08333333,8.75 L9.08333333,9.91666667 L10.1041667,9.91666667 L11.1658333,12.8333333 L10.775,12.8333333 C10.5183333,11.5325 9.4275,10.57 8.0625,10.5058333 C6.42916667,10.4241667 5,11.7833333 5,13.4166667 C5,15.05 6.28333333,16.3333333 7.91666667,16.3333333 C9.35166667,16.3333333 10.5125,15.3475 10.775,14 L13.225,14 C13.4816667,15.3008333 14.5725,16.2633333 15.9375,16.3275 C17.5708333,16.4033333 19,15.05 19,13.4108333 C19,11.7775 17.7166667,10.4941667 16.0833333,10.4941667 L15.605,10.4941667 L15.605,10.5 Z M9.56166667,14 C9.32833333,14.6825 8.6925,15.1666667 7.91666667,15.1666667 C6.93666667,15.1666667 6.16666667,14.3966667 6.16666667,13.4166667 C6.16666667,12.4366667 6.93666667,11.6666667 7.91666667,11.6666667 C8.6925,11.6666667 9.32833333,12.1508333 9.56166667,12.8333333 L7.91666667,12.8333333 L7.91666667,14 L9.56166667,14 Z M13.225,12.8333333 L12.4083333,12.8333333 L11.9825,11.6666667 L13.75,11.6666667 C13.4933333,12.005 13.3066667,12.3958333 13.225,12.8333333 Z M16.0833333,15.1666667 C15.1033333,15.1666667 14.3333333,14.3966667 14.3333333,13.4166667 C14.3333333,12.8741667 14.5725,12.4075 14.9458333,12.0866667 L15.5058333,13.6266667 L16.6025,13.23 L16.0366667,11.6725 C16.0541667,11.6725 16.0716667,11.6666667 16.0891667,11.6666667 C17.0691667,11.6666667 17.8391667,12.4366667 17.8391667,13.4166667 C17.8391667,14.3966667 17.0633333,15.1666667 16.0833333,15.1666667 Z" id="Shape" fill="#FFFFFF"></path>
        </g>
    </g>
</svg>