<?xml version="1.0" encoding="UTF-8"?>
<svg version="1.1" viewBox="0 0 24 24" xmlns="http://www.w3.org/2000/svg">
	<title>bicycle-m</title>
	<circle id="Oval" cx="12" cy="12" r="12" fill="#000" opacity=".6"/>
	<circle cx="12" cy="12" r="11" fill="#8C5F93"/>
	<path d="m12 6.8323c-0.63294-0.00939-0.63294 0.94862 0 0.93961h1.4043v1.1892l-2.6238 2.193-0.91243-2.4426h0.25969c0.63294 0.00939 0.63294-0.94862 0-0.93961h-1.8723c-0.63294-0.00939-0.63294 0.94862 0 0.93961h0.61066l0.83385 2.2316c-0.43794-0.21856-0.9241-0.35236-1.4445-0.35236-1.8041 0-3.2766 1.4779-3.2766 3.2886 0 1.8107 1.4725 3.2886 3.2766 3.2886 1.8041 0 3.2766-1.4779 3.2766-3.2886 0-0.62944-0.18751-1.2131-0.49551-1.7141l2.6403-2.2077 0.43335 1.0902c-0.97602 0.57063-1.6419 1.6207-1.6419 2.8316 0 1.8107 1.4725 3.2886 3.2766 3.2886 1.8041 0 3.2766-1.4779 3.2766-3.2886 0-1.8107-1.4725-3.2886-3.2766-3.2886-0.26503 0-0.51901 0.04077-0.76621 0.10092l-0.63809-1.6021v-1.7874c0-0.25942-0.20961-0.4698-0.46808-0.4698zm-3.7446 4.698c0.55449 0 1.0556 0.1991 1.4555 0.51932l-1.7554 1.4682c-0.47829 0.40149 0.11964 1.1223 0.59971 0.72303l1.7554-1.4682c0.17619 0.33056 0.28525 0.70364 0.28525 1.1067 0 1.3029-1.0423 2.3491-2.3404 2.3491-1.2981 0-2.3404-1.0462-2.3404-2.3491s1.0422-2.3491 2.3404-2.3491zm7.4893 0c1.2981 0 2.3404 1.0462 2.3404 2.3491 0 1.3029-1.0423 2.3491-2.3404 2.3491-1.2981 0-2.3404-1.0462-2.3404-2.3491 0-0.82403 0.41828-1.5429 1.0532-1.9618l0.8521 2.1361c0.2303 0.58547 1.105 0.23499 0.87041-0.34869l-0.85018-2.1325c0.135-0.02405 0.2728-0.04219 0.415-0.04219z" fill="#000"/>
</svg>
