<svg width="28" height="28" viewBox="0 0 28 28">
  <g fill="none" fill-rule="evenodd">
    <circle cx="14" cy="14" r="14" fill="#FFF" opacity=".4"/>
    <circle cx="14" cy="14" r="13" fill="#4E3551"/>
    <path fill="#FFF" d="M16.25,7.00217744 C15.7175789,7.07309974 15.6465263,7.98949052 16.1609474,8.13973382 L18.2631579,8.95627347 L18.2631579,10.7349301 L11.6315789,10.7349301 L11.6315789,9.80174195 L12.9342105,9.80174195 C13.2468421,9.80174195 13.5263158,9.52645144 13.5263158,9.21849934 C13.5263158,8.91054725 13.2468421,8.6305908 12.9342105,8.63525674 L9.26315789,8.63525674 C9.20442105,8.62592486 9.14473684,8.62592486 9.08505263,8.63525674 C8.77526316,8.68098296 8.53557895,9.0010665 8.582,9.30621903 C8.62842105,9.61137156 8.95336842,9.84746817 9.26315789,9.80174195 L10.6842105,9.80174195 L10.6842105,10.7349301 L9.67810526,13.6511432 C9.39389474,13.5839536 9.09547368,13.5344946 8.78947368,13.5344946 C6.69673684,13.5344946 5,15.2058346 5,17.2672473 C5,19.32866 6.69673684,21 8.78947368,21 C10.8822105,21 12.5789474,19.32866 12.5789474,17.2672473 C12.5789474,16.9863577 12.5202105,16.7129335 12.4605263,16.4507077 L13.5263158,16.4507077 C13.7148421,16.4413758 13.8967368,16.343391 14,16.1884818 L17.1973684,11.6681183 L17.3157895,11.6681183 L18.2631579,11.6681183 L18.9149474,13.5634235 C16.9614737,13.7127336 15.4210526,15.3038194 15.4210526,17.2672473 C15.4210526,19.32866 17.1177895,21 19.2105263,21 C21.3032632,21 23,19.32866 23,17.2672473 C23,15.5613793 21.8347368,14.1550648 20.2469474,13.709934 L19.2105263,10.7349301 L19.2105263,8.54753705 C19.2105263,8.44955229 19.1697895,8.35063435 19.1214737,8.25638234 C19.1176842,8.24705046 19.1252632,8.23491901 19.1214737,8.22745351 C19.1072632,8.19852467 19.0807368,8.16866265 19.0627368,8.13973382 C19.0333684,8.09774035 19.0106316,8.05947964 18.9736842,8.0230853 C18.9575789,8.00815429 18.932,8.00628791 18.9149474,7.99415646 C18.8978947,7.98015864 18.8742105,7.97735908 18.8562105,7.96522763 C18.8258947,7.94749706 18.8012632,7.91856822 18.7671579,7.90736996 L18.7377895,7.87844113 L18.3228421,7.73286378 L16.5758947,7.03297265 C16.5152632,7.01057613 16.4356842,7.00684338 16.3684211,7.004977 C16.3238947,7.004977 16.2945263,6.99377875 16.25,7.004977 L16.25,7.00217744 L16.25,7.00217744 Z M11.6315789,11.6681183 L15.8056842,11.6681183 L13.2297895,15.2842225 L11.9868421,15.2842225 C11.6931579,14.8232275 11.3246316,14.4443531 10.8613684,14.1466661 L11.6315789,11.6681183 L11.6315789,11.6681183 Z M8.78947368,14.9342769 C10.0977895,14.9342769 11.1578947,15.9785145 11.1578947,17.2672473 C11.1578947,18.5559802 10.0977895,19.6002177 8.78947368,19.6002177 C7.48115789,19.6002177 6.42105263,18.5559802 6.42105263,17.2672473 C6.42105263,15.9785145 7.48115789,14.9342769 8.78947368,14.9342769 L8.78947368,14.9342769 Z M19.2105263,14.9342769 C20.5188421,14.9342769 21.5789474,15.9785145 21.5789474,17.2672473 C21.5789474,18.5559802 20.5188421,19.6002177 19.2105263,19.6002177 C17.9022105,19.6002177 16.8421053,18.5559802 16.8421053,17.2672473 C16.8421053,17.1058058 16.8695789,16.9518297 16.9008421,16.8006532 C17.1215789,15.7377519 18.0661053,14.9342769 19.2105263,14.9342769 L19.2105263,14.9342769 Z" opacity=".6"/>
  </g>
</svg>
