<?xml version="1.0" encoding="UTF-8" standalone="no"?>
<svg width="27px" height="27px" viewBox="0 0 27 27" version="1.1" xmlns="http://www.w3.org/2000/svg" xmlns:xlink="http://www.w3.org/1999/xlink" xmlns:sketch="http://www.bohemiancoding.com/sketch/ns">
    <!-- Generator: Sketch 3.4.2 (15857) - http://www.bohemiancoding.com/sketch -->
    <title>shop-bicycle-l</title>
    <desc>Created with Sketch.</desc>
    <defs>
        <path id="path-1" d="M26,13.5 C26,20.403 20.403,26 13.5,26 C6.597,26 1,20.403 1,13.5 C1,6.597 6.597,1 13.5,1 C20.403,1 26,6.597 26,13.5 L26,13.5 Z"></path>
    </defs>
    <g id="POI" stroke="none" stroke-width="1" fill="none" fill-rule="evenodd" sketch:type="MSPage">
        <g id="shop-bicycle-l" sketch:type="MSLayerGroup">
            <path d="M13.5,27 C6.057,27 0,20.943 0,13.5 C0,6.057 6.057,0 13.5,0 C20.943,0 27,6.057 27,13.5 C27,20.943 20.943,27 13.5,27 L13.5,27 Z" id="Shape" opacity="0" fill="#FFFFFF" sketch:type="MSShapeGroup"></path>
            <g id="Shape">
                <use fill="#3D3D37" fill-rule="evenodd" sketch:type="MSShapeGroup" xlink:href="#path-1"></use>
                <use fill="none" xlink:href="#path-1"></use>
            </g>
            <path d="M15.875,5 C15.313,5.076 15.238,6.058 15.781,6.219 L18,7.094 L18,9 L11,9 L11,8 L12.375,8 C12.705,8 13,7.705 13,7.375 C13,7.045 12.705,6.745 12.375,6.75 L8.5,6.75 C8.438,6.74 8.375,6.74 8.312,6.75 C7.985,6.799 7.732,7.142 7.781,7.469 C7.83,7.796 8.173,8.049 8.5,8 L10,8 L10,9 L8.938,12.125 C8.638,12.053 8.323,12 8,12 C5.791,12 4,13.791 4,16 C4,18.209 5.791,20 8,20 C10.209,20 12,18.209 12,16 C12,15.699 11.938,15.406 11.875,15.125 L13,15.125 C13.199,15.115 13.391,15.01 13.5,14.844 L16.875,10 L17,10 L18,10 L18.688,12.031 C16.626,12.191 15,13.896 15,16 C15,18.209 16.791,20 19,20 C21.209,20 23,18.209 23,16 C23,14.172 21.77,12.665 20.094,12.188 L19,9 L19,6.656 C19,6.551 18.957,6.445 18.906,6.344 C18.902,6.334 18.91,6.321 18.906,6.313 C18.891,6.282 18.863,6.25 18.844,6.219 C18.813,6.174 18.789,6.133 18.75,6.094 C18.733,6.078 18.706,6.076 18.688,6.063 C18.67,6.048 18.645,6.045 18.626,6.032 C18.594,6.013 18.568,5.982 18.532,5.97 L18.501,5.939 L18.063,5.783 L16.219,5.033 C16.155,5.009 16.071,5.005 16,5.003 C15.953,5.003 15.922,4.991 15.875,5.003 L15.875,5 L15.875,5 Z M11,10 L15.406,10 L12.687,13.875 L11.375,13.875 C11.065,13.381 10.676,12.975 10.187,12.656 L11,10 L11,10 Z M8,13.5 C9.381,13.5 10.5,14.619 10.5,16 C10.5,17.381 9.381,18.5 8,18.5 C6.619,18.5 5.5,17.381 5.5,16 C5.5,14.619 6.619,13.5 8,13.5 L8,13.5 Z M19,13.5 C20.381,13.5 21.5,14.619 21.5,16 C21.5,17.381 20.381,18.5 19,18.5 C17.619,18.5 16.5,17.381 16.5,16 C16.5,15.827 16.529,15.662 16.562,15.5 C16.795,14.361 17.792,13.5 19,13.5 L19,13.5 Z" id="Shape" opacity="0.7" fill="#FFFFFF" sketch:type="MSShapeGroup"></path>
        </g>
    </g>
</svg>