<svg width="24" height="24" viewBox="0 0 24 24">
  <g fill="none" fill-rule="evenodd">
    <circle cx="12" cy="12" r="12" fill="#FFF" opacity=".4"/>
    <circle cx="12" cy="12" r="11" fill="#4E3551"/>
    <path fill="#FFF" d="M14.3333333,6 L14.3333333,7 L15.2666667,7.5 L15.2666667,9 L10.6,9 L10.6,8 L11.5333333,8 L11.5333333,7.5 L10.6,7 L8.73333333,7 L8.73333333,8 L9.66666667,8 L9.66666667,9 L8.5,11.125 C8.2704,11.061 8.04826667,11 7.8,11 C6.2544,11 5,12.344 5,14 C5,15.656 6.2544,17 7.8,17 C9.3456,17 10.6,15.656 10.6,14 L11.5333333,14 L13.8666667,10 L15.2666667,10 L15.7622667,11.062 C14.4294667,11.292 13.4,12.507 13.4,14 C13.4,15.656 14.6544,17 16.2,17 C17.7456,17 19,15.656 19,14 C19,12.561 18.0461333,11.354 16.7833333,11.062 L16.2,9.5 L16.2,7 L15.7333333,6.5 L14.3333333,6 L14.3333333,6 Z M10.1333333,10 L12.9333333,10 L11.0666667,13 L10.4245333,13 C10.2266667,12.408 9.87573333,11.885 9.40346667,11.531 L10.1333333,10 L10.1333333,10 Z M7.8,12.25 C8.70253333,12.25 9.43333333,13.033 9.43333333,14 C9.43333333,14.967 8.70253333,15.75 7.8,15.75 C6.89746667,15.75 6.16666667,14.967 6.16666667,14 C6.16666667,13.033 6.89746667,12.25 7.8,12.25 L7.8,12.25 Z M16.2,12.25 C17.1025333,12.25 17.8333333,13.033 17.8333333,14 C17.8333333,14.967 17.1025333,15.75 16.2,15.75 C15.2974667,15.75 14.5666667,14.967 14.5666667,14 C14.5666667,13.033 15.2974667,12.25 16.2,12.25 L16.2,12.25 Z" opacity=".6"/>
  </g>
</svg>
