<svg width="16" height="16" viewBox="0 0 16 16">
  <g fill="none" fill-rule="evenodd">
    <circle cx="8" cy="8" r="8" fill="#FFF" opacity=".4"/>
    <circle cx="8" cy="8" r="7" fill="#4E3551"/>
    <path fill="#FFF" d="M11.1111111,7.57142857 L10.6666667,7.57142857 L10.2222222,6.71428571 L10.2222222,5.85714286 L9.33333333,5 L8.44444444,5 L8.44444444,5.85714286 L9.33333333,5.85714286 L9.33333333,6.71428571 L7.55555556,6.71428571 L7.55555556,5.85714286 L6.66666667,5.85714286 L6.66666667,6.71428571 L5.77777778,7.57142857 L4.88888889,7.57142857 L4,9.28571429 L4.88888889,11 L6.66666667,11 L7.55555556,9.28571429 L8.88888889,7.57142857 L9.77777778,7.57142857 L8.44444444,9.28571429 L9.33333333,11 L11.1111111,11 L12,9.28571429 L11.1111111,7.57142857 L11.1111111,7.57142857 Z M7.55555556,8.42857143 L6.66666667,8.42857143 L6.66666667,10.1428571 L4.88888889,10.1428571 L4.88888889,8.42857143 L6.66666667,8.42857143 L6.66666667,7.57142857 L7.55555556,7.57142857 L7.55555556,8.42857143 L7.55555556,8.42857143 Z M11.1111111,10.1428571 L9.33333333,10.1428571 L9.33333333,8.42857143 L11.1111111,8.42857143 L11.1111111,10.1428571 L11.1111111,10.1428571 Z" opacity=".6"/>
  </g>
</svg>
