<svg version="1.1" viewBox="0 0 16 16" xmlns="http://www.w3.org/2000/svg">
 <title>shop-s</title>
 <g id="Page-2:-Night" fill="none" fill-rule="evenodd" opacity=".6">
  <g id="shop-s" fill-rule="nonzero">
   <circle id="Oval" cx="8" cy="8" r="8" fill="#fff"/>
   <circle id="Oval" cx="8" cy="8" r="7.3333" fill="#8C5F93"/>
   <path id="Shape" d="m11.111 5.5556h-0.88889c0-1.2267-0.99556-2.2222-2.2222-2.2222s-2.2222 0.99556-2.2222 2.2222h-0.88889c-0.48889 0-0.88444 0.4-0.88444 0.88889l-0.0044444 5.3333c0 0.48889 0.4 0.88889 0.88889 0.88889h6.2222c0.48889 0 0.88889-0.4 0.88889-0.88889v-5.3333c0-0.48889-0.4-0.88889-0.88889-0.88889zm-3.1111-1.3333c0.73778 0 1.3333 0.59556 1.3333 1.3333h-2.6667c0-0.73778 0.59556-1.3333 1.3333-1.3333zm0 4.4444c-1.2267 0-2.2222-0.99556-2.2222-2.2222h0.88889c0 0.73778 0.59556 1.3333 1.3333 1.3333s1.3333-0.59556 1.3333-1.3333h0.88889c0 1.2267-0.99556 2.2222-2.2222 2.2222z" fill="#fff"/>
  </g>
 </g>
</svg>
