<svg width="24" height="24" viewBox="0 0 24 24">
  <g fill="none" fill-rule="evenodd">
    <circle cx="12" cy="12" r="12" fill="#FFF" opacity=".4"/>
    <circle cx="12" cy="12" r="11" fill="#4E3551"/>
    <path fill="#FFF" d="M10.8597323,5 C10.1538462,5 9.36919385,5.7502 9.23076923,6.5 L8.76923077,9 L7.84615385,9 C7.49321538,9 6.92307692,9.6177 6.92307692,10 L6,18.2353 C6,18.6176 6.46153846,19 6.92307692,19 L17.0769231,19 C17.5384615,19 18,18.6176 18,18.2353 L17.0769231,10 C17.0769231,9.6177 16.5067846,9 16.1538462,9 L15.2307692,9 L14.7692308,6.5 C14.6308062,5.7502 13.8461631,5 13.1402769,5 L10.8597323,5 Z M10.8597323,5.7647 L13.1402769,5.7647 C13.4932246,5.7647 13.9941508,6.1251 14.0633538,6.5 L14.5248923,9 L9.47510769,9 L9.93665538,6.5 C10.0058862,6.1251 10.5067846,5.7647 10.8597323,5.7647 L10.8597323,5.7647 Z" opacity=".6"/>
  </g>
</svg>
