<svg height="24" viewBox="0 0 24 24" width="24"><g fill="#fff" fill-rule="evenodd"><circle cx="12" cy="12" opacity=".1" r="12"/><path d="m11.6 5v1.465625c-1.77746303.29845851-3.18994242 1.69805244-3.5 3.434375h8.4c-.3100573-1.73632256-1.7225369-3.13591649-3.5-3.434375v-1.465625zm-4.2 5.6v1.4h9.8v-1.4zm2.1 2.8c-.38659929 0-.7.3134005-.7.7s.31340071.7.7.7.7-.3134005.7-.7-.31340071-.7-.7-.7zm2.8 0c-.3865995 0-.7.3134005-.7.7s.3134005.7.7.7.7-.3134005.7-.7-.3134005-.7-.7-.7zm2.8 0c-.3865995 0-.7.3134005-.7.7s.3134005.7.7.7.7-.3134005.7-.7-.3134005-.7-.7-.7zm-7 2.1c-.38659929 0-.7.3134005-.7.7s.31340071.7.7.7.7-.3134005.7-.7-.31340071-.7-.7-.7zm2.8 0c-.3865993 0-.7.3134005-.7.7s.3134007.7.7.7c.3865995 0 .7-.3134005.7-.7s-.3134005-.7-.7-.7zm2.8 0c-.3865995 0-.7.3134005-.7.7s.3134005.7.7.7.7-.3134005.7-.7-.3134005-.7-.7-.7zm2.8 0c-.3865995 0-.7.3134005-.7.7s.3134005.7.7.7.7-.3134005.7-.7-.3134005-.7-.7-.7zm-9.8 2.1c-.38659929 0-.7.3134005-.7.7s.31340071.7.7.7.7-.3134005.7-.7-.31340071-.7-.7-.7zm2.8 0c-.38659929 0-.7.3134005-.7.7s.31340071.7.7.7.7-.3134005.7-.7-.31340071-.7-.7-.7zm2.8 0c-.3865995 0-.7.3134005-.7.7s.3134005.7.7.7.7-.3134005.7-.7-.3134005-.7-.7-.7zm2.8 0c-.3865995 0-.7.3134005-.7.7s.3134005.7.7.7.7-.3134005.7-.7-.3134005-.7-.7-.7zm2.8 0c-.3865995 0-.7.3134005-.7.7s.3134005.7.7.7.7-.3134005.7-.7-.3134005-.7-.7-.7z" fill-rule="nonzero" opacity=".6"/></g></svg>