<?xml version="1.0" encoding="UTF-8" standalone="no"?>
<svg
   enable-background="new 0 0 24 24"
   height="24"
   viewBox="0 0 24 24"
   width="24"
   fill="#000000"
   version="1.1"
   id="svg6"
   sodipodi:docname="skateboarding-original.svg"
   inkscape:export-filename="skateboard/skateboard.svg"
   inkscape:export-xdpi="96"
   inkscape:export-ydpi="96"
   xmlns:inkscape="http://www.inkscape.org/namespaces/inkscape"
   xmlns:sodipodi="http://sodipodi.sourceforge.net/DTD/sodipodi-0.dtd"
   xmlns="http://www.w3.org/2000/svg"
   xmlns:svg="http://www.w3.org/2000/svg">
  <defs
     id="defs10" />
  <sodipodi:namedview
     id="namedview8"
     pagecolor="#ffffff"
     bordercolor="#000000"
     borderopacity="0.25"
     inkscape:showpageshadow="2"
     inkscape:pageopacity="0.0"
     inkscape:pagecheckerboard="0"
     inkscape:deskcolor="#d1d1d1"
     showgrid="false" />
  <path
     d="M 13.588235,4.5652174 C 13.588235,3.7043478 14.541176,3 15.705882,3 c 1.164706,0 2.117647,0.7043478 2.117647,1.5652174 0,0.8608696 -0.952941,1.5652174 -2.117647,1.5652174 -1.164706,0 -2.117647,-0.7043478 -2.117647,-1.5652174 z M 7.5,19.826087 c -0.4341176,0 -0.7941176,0.266087 -0.7941176,0.586956 0,0.32087 0.36,0.586957 0.7941176,0.586957 0.4341176,0 0.7941176,-0.266087 0.7941176,-0.586957 0,-0.320869 -0.36,-0.586956 -0.7941176,-0.586956 z m 9,0 c -0.434118,0 -0.794118,0.266087 -0.794118,0.586956 0,0.32087 0.36,0.586957 0.794118,0.586957 0.434118,0 0.794118,-0.266087 0.794118,-0.586957 0,-0.320869 -0.36,-0.586956 -0.794118,-0.586956 z m 3.695294,-2.73913 c -0.254118,0 -0.47647,0.08609 -0.624706,0.234782 -0.582353,0.571304 -1.503529,0.939131 -2.541176,0.939131 h -0.264706 v -4.695653 l -4.574118,-2.089565 1.905883,-2.261739 c 1.217647,1.44 3.388235,2.394783 5.844705,2.394783 v -1.565218 c -1.958823,0 -3.642352,-0.8765215 -4.372941,-2.1286954 L 15.017647,6.9678261 C 14.816471,6.6313043 14.234118,6.1304348 13.270588,6.1304348 H 7.2352941 l -2.6470588,3.1304348 1.8,0.8295654 L 8.4,7.6956522 h 2.488235 L 8.3470588,10.70087 C 8.0188235,11.092174 7.9341176,11.569565 8.1247059,12.007826 L 9.5435294,15.255652 6.24,18.198261 C 5.4988235,18.073043 4.8635294,17.752174 4.4294118,17.321739 4.2811765,17.173043 4.0482353,17.086957 3.7941176,17.086957 3.3282353,17.086957 3,17.368696 3,17.673913 c 0,0.117391 0.052941,0.242609 0.1588235,0.352174 0.8682353,0.86087 2.2552941,1.408696 3.8117647,1.408696 H 17.029412 c 1.55647,0 2.943529,-0.547826 3.811764,-1.408696 C 20.947059,17.916522 21,17.791304 21,17.673913 21,17.368696 20.661176,17.086957 20.195294,17.086957 Z M 14.647059,18.26087 H 8.9294118 L 12,15.521739 10.941176,12.93913 l 3.705883,1.72174 z"
     id="path4"
     style="opacity:0.6;fill:#ffffff;fill-opacity:1;stroke-width:0.910298" />
</svg>
