<svg width="24" height="24" viewBox="0 0 24 24">
  <g fill="none" fill-rule="evenodd">
    <circle cx="12" cy="12" r="12" fill="#FFF" opacity=".4"/>
    <circle cx="12" cy="12" r="11" fill="#3D3D36"/>
    <path fill="#FFF" d="M11,6 C10,6 9.5,6.5 9.5,7.5 C9.5,7.8954 9.63581,8.1569 9.71875,8.5 L10.5,10.5 L7.6875,12.46875 L5,11 L5,12 L16,18 L17,18 L18,17 L17.5,16.5 L17,16 L17,17 L16,17 L9,13.1875 L11.46875,11.53125 C11.71392,11.36325 12.07056,11.2887 12,11 L11.46875,9.53125 L14,11 L14.625,12.96875 C14.6818,13.18085 14.83039,13.38015 15.03125,13.46875 L16.71875,14.1875 C17.90217,14.7062 18.06588,13.5765 17.3125,13.25 L15.9375,12.65625 L15,10 L15,8 L12.5,6.59375 C11.92064,6.25935 11.5,6 11,6 L11,6 Z M17.5,7.5 C16.6861,7.5 16,8.1861 16,9 C16,9.814 16.6861,10.5 17.5,10.5 C18.31389,10.5 19,9.814 19,9 C19,8.1861 18.31389,7.5 17.5,7.5 L17.5,7.5 Z" opacity=".6"/>
  </g>
</svg>
