<svg width="28" height="28" viewBox="0 0 28 28">
  <g fill="none" fill-rule="evenodd">
    <circle cx="14" cy="14" r="14" fill="#FFF" opacity=".4"/>
    <circle cx="14" cy="14" r="13" fill="#3D3D36"/>
    <path fill="#FFF" d="M13.5789477,7 C12.7368425,7 11.8947372,7.43749453 11.8947372,8.74997813 C11.8947372,9.21958476 11.9315288,9.29964625 12.0263162,9.70704116 L12.6052635,12.1952476 L9.47368472,14.1913601 L6.63157957,12.4686816 C6.53699616,12.4109324 6.41367456,12.4091824 6.26315853,12.441557 C6.11264241,12.4739316 5.99968864,12.6591668 6.00000064,12.8516644 C6.00031264,13.0441619 6.08113833,13.1556356 6.21052695,13.2344721 L18.4210528,20.6718791 C18.8046915,20.9020012 19.1508077,20.9946626 19.4736843,21 C19.6995571,21 19.9215007,20.9693754 20.1052632,20.8906264 C20.551707,20.6999663 20.8310426,20.3553081 21.0263158,20.1523981 C21.1241567,20.0506369 21.1578948,19.9265634 21.1578948,19.79689 C21.1578948,19.6118299 21.049456,19.4152198 20.8157895,19.3867827 C20.6650047,19.3684079 20.5425424,19.4252822 20.4473685,19.5508431 C20.2496893,19.8112399 20.002934,20.0065374 19.7894738,20.0977113 C19.5760136,20.1888851 19.3399454,20.2048974 18.8421054,19.9062637 L11.0263162,15.1485106 L14.0526319,13.316546 C14.3328222,13.1170485 14.4753805,12.7296034 14.3947371,12.3868702 L14.0526319,10.9376258 L17.0636608,12.7793028 L17.6315791,15.0286371 C17.6965054,15.280459 17.8757063,15.4976313 18.1052633,15.6028925 L20.0263159,16.4778815 C21.3788042,17.0938738 21.571536,15.7552281 20.7105264,15.3675204 L19.1315791,14.6565918 L17.7894739,9.18834765 L15.2105266,7.65711679 C14.5484028,7.25995925 14.0000003,7.00087499 13.5789477,7.00087499 L13.5789477,7 Z M20.3157895,8.74997813 C19.3856254,8.74997813 18.6315791,9.53344333 18.6315791,10.4999563 C18.6315791,11.4664692 19.3856254,12.2499344 20.3157895,12.2499344 C21.2459537,12.2499344 22,11.4664692 22,10.4999563 C22,9.53344333 21.2459537,8.74997813 20.3157895,8.74997813 L20.3157895,8.74997813 Z" opacity=".6"/>
  </g>
</svg>
