<?xml version="1.0" encoding="UTF-8" standalone="no"?>
<svg width="27px" height="27px" viewBox="0 0 27 27" version="1.1" xmlns="http://www.w3.org/2000/svg" xmlns:xlink="http://www.w3.org/1999/xlink" xmlns:sketch="http://www.bohemiancoding.com/sketch/ns">
    <!-- Generator: Sketch 3.4.2 (15857) - http://www.bohemiancoding.com/sketch -->
    <title>skiing-l</title>
    <desc>Created with Sketch.</desc>
    <defs>
        <circle id="path-1" cx="13.5" cy="13.5" r="12.5"></circle>
    </defs>
    <g id="POI" stroke="none" stroke-width="1" fill="none" fill-rule="evenodd" sketch:type="MSPage">
        <g id="skiing-l" sketch:type="MSLayerGroup">
            <circle id="Oval-1-Copy-39" opacity="0" fill="#FFFFFF" sketch:type="MSShapeGroup" cx="13.5" cy="13.5" r="13.5"></circle>
            <g id="Oval-1-Copy-38">
                <use fill="#33332E" fill-rule="evenodd" sketch:type="MSShapeGroup" xlink:href="#path-1"></use>
                <use fill="none" xlink:href="#path-1"></use>
            </g>
            <path d="M12.0000004,6 C11.0000004,6 10.0000004,6.5 10.0000004,8 C10.0000004,8.5367 10.0436904,8.6282 10.1562504,9.0938 L10.8437504,11.9375 L7.12500038,14.2188 L3.75000038,12.25 C3.63768258,12.184 3.49123818,12.182 3.31250038,12.219 C3.13376248,12.256 2.99962988,12.4677 3.00000038,12.6877 C3.00037088,12.9077 3.09635138,13.0351 3.25000038,13.1252 L17.7500004,21.6252 C18.2055714,21.8882 18.6165844,21.9941 19.0000004,22.0002 C19.2682244,22.0002 19.5317824,21.9652 19.7500004,21.8752 C20.2801524,21.6573 20.6118634,21.2634 20.8437504,21.0315 C20.9599364,20.9152 21.0000004,20.7734 21.0000004,20.6252 C21.0000004,20.4137 20.8712294,20.189 20.5937504,20.1565 C20.4146934,20.1355 20.2692694,20.2005 20.1562504,20.344 C19.9215064,20.6416 19.6284844,20.8648 19.3750004,20.969 C19.1215164,21.0732 18.8411854,21.0915 18.2500004,20.7502 L8.96875038,15.3127 L12.5625004,13.219 C12.8952264,12.991 13.0645144,12.5482 12.9687504,12.1565 L12.5625004,10.5002 L16.1380974,12.605 L16.8125004,15.1757 C16.8896004,15.4635 17.1024014,15.7117 17.3750004,15.832 L19.6562504,16.832 C21.2623304,17.536 21.4911994,16.0061 20.4687504,15.563 L18.5937504,14.7505 L17.0000004,8.501 L13.9375004,6.751 C13.1512284,6.2971 12.5000004,6.001 12.0000004,6.001 L12.0000004,6 Z M20.0000004,8 C18.8954304,8 18.0000004,8.8954 18.0000004,10 C18.0000004,11.1046 18.8954304,12 20.0000004,12 C21.1045704,12 22.0000004,11.1046 22.0000004,10 C22.0000004,8.8954 21.1045704,8 20.0000004,8 L20.0000004,8 Z" id="rect10364-copy" opacity="0.7" fill="#FFFFFF" sketch:type="MSShapeGroup"></path>
        </g>
    </g>
</svg>