<?xml version="1.0" encoding="UTF-8" standalone="no"?>
<svg
   width="24"
   height="24"
   viewBox="0 0 24 24"
   version="1.1"
   id="svg10"
   sodipodi:docname="skiing-m.svg"
   inkscape:version="1.2 (dc2aedaf03, 2022-05-15)"
   xmlns:inkscape="http://www.inkscape.org/namespaces/inkscape"
   xmlns:sodipodi="http://sodipodi.sourceforge.net/DTD/sodipodi-0.dtd"
   xmlns="http://www.w3.org/2000/svg"
   xmlns:svg="http://www.w3.org/2000/svg">
  <defs
     id="defs14" />
  <sodipodi:namedview
     id="namedview12"
     pagecolor="#ffffff"
     bordercolor="#000000"
     borderopacity="0.25"
     inkscape:showpageshadow="2"
     inkscape:pageopacity="0.0"
     inkscape:pagecheckerboard="0"
     inkscape:deskcolor="#d1d1d1"
     showgrid="false"
     inkscape:zoom="31.5"
     inkscape:cx="12.063492"
     inkscape:cy="12"
     inkscape:window-width="1920"
     inkscape:window-height="1011"
     inkscape:window-x="0"
     inkscape:window-y="0"
     inkscape:window-maximized="1"
     inkscape:current-layer="svg10" />
  <title
     id="title2">skiing-m</title>
  <g
     id="Page-1"
     stroke="none"
     stroke-width="1"
     fill="none"
     fill-rule="evenodd"
     inkscape:label="Page-2:-Night">
    <g
       id="skiing-m"
       fill-rule="nonzero">
      <path
         d="m 17.85,4.5750005 c 0,0.99 -0.81,1.7999999 -1.8,1.7999999 -0.99,0 -1.800001,-0.8099999 -1.800001,-1.7999999 0,-0.9900001 0.810001,-1.8 1.800001,-1.8 0.99,0 1.8,0.8099999 1.8,1.8 z M 15.402,19.335 l 0.683999,0.243 c 0.558001,0.188999 1.143,0.297 1.764001,0.297 0.755999,0 1.485,-0.162 2.142,-0.450001 L 21,20.442 c -0.945001,0.494999 -2.016,0.783 -3.15,0.783 -0.774,0 -1.512,-0.126001 -2.205,-0.369 L 3,16.248 3.45,14.979001 9.6599997,17.237999 11.208,13.242001 7.9949998,9.8850005 c -0.801,-0.846 -0.603,-2.2230001 0.4050001,-2.8080002 L 11.532,5.2680004 c 0.99,-0.5759999 2.268,-0.09 2.618999,0.999 l 0.297,0.972 C 14.844,8.5170005 15.78,9.5520005 16.994999,10.064999 l 0.468,-1.4399985 1.287001,0.414 L 17.742,12.144 C 15.537,11.784 13.709999,10.281 12.9,8.2560005 l -2.277,1.304999 2.727,3.1140005 -1.998,5.184 2.781,1.008 1.889999,-5.796 v 0 0 c 0.414001,0.162 0.846,0.278999 1.296001,0.369 z"
         id="Shape"
         fill="#FFFFFF"
         style="opacity:0.6;fill:#ffffff;fill-opacity:1;stroke-width:1.31786" />
    </g>
  </g>
</svg>
