<?xml version="1.0" encoding="UTF-8"?>
<svg version="1.1" viewBox="0 0 24 24" xmlns="http://www.w3.org/2000/svg">
 <circle cx="12" cy="12" r="12" fill="#000" opacity=".6"/>
 <circle cx="12" cy="12" r="11" fill="#7f5933"/>
 <path d="m2.977 8.1665q0.308 0 0.429 0.198 0.099 0.143 0.121 0.495 0.429-0.726 1.397-0.726 0.616 0 1.188 0.286l0.506 0.253q0.176 0.088 0.297 0.088 0.143 0 0.242-0.143l0.165-0.242q0.154-0.22 0.473-0.22 0.363 0 0.605 0.308 0.253 0.308 0.253 0.781 0 0.792-0.605 1.54-0.176 0.209-0.561 0.638-0.792 0.869-1.078 1.386-0.275 0.506-0.275 1.078 0 0.187 0.055 0.572 0.055 0.374 0.055 0.561 0 0.385-0.253 0.616t-0.682 0.231q-0.594 0-0.935-0.451-0.341-0.462-0.341-1.265 0-1.287 0.858-2.167 0.418-0.429 1.012-0.913 0.715-0.583 1.056-0.968-0.462 0.209-0.814 0.209-0.473 0-1.155-0.385l-0.506-0.286q-0.187-0.099-0.341-0.099-0.33 0-0.33 0.363 0 0.011 0.022 0.099l0.099 0.374q0.055 0.209 0.055 0.385 0 0.88-0.858 0.88-0.814 0-0.814-0.77 0-0.231 0.033-0.451 0.088-0.583 0.088-0.682 0-0.143-0.055-0.429-0.055-0.297-0.055-0.44 0-0.308 0.176-0.506 0.187-0.198 0.473-0.198zm6.515 0q0.308 0 0.429 0.198 0.099 0.143 0.121 0.495 0.429-0.726 1.397-0.726 0.616 0 1.188 0.286l0.506 0.253q0.176 0.088 0.297 0.088 0.143 0 0.242-0.143l0.165-0.242q0.154-0.22 0.473-0.22 0.363 0 0.605 0.308 0.253 0.308 0.253 0.781 0 0.792-0.605 1.54-0.176 0.209-0.561 0.638-0.792 0.869-1.078 1.386-0.275 0.506-0.275 1.078 0 0.187 0.055 0.572 0.055 0.374 0.055 0.561 0 0.385-0.253 0.616t-0.682 0.231q-0.594 0-0.935-0.451-0.341-0.462-0.341-1.265 0-1.287 0.858-2.167 0.418-0.429 1.012-0.913 0.715-0.583 1.056-0.968-0.462 0.209-0.814 0.209-0.473 0-1.155-0.385l-0.506-0.286q-0.187-0.099-0.341-0.099-0.33 0-0.33 0.363 0 0.011 0.022 0.099l0.099 0.374q0.055 0.209 0.055 0.385 0 0.88-0.858 0.88-0.814 0-0.814-0.77 0-0.231 0.033-0.451 0.088-0.583 0.088-0.682 0-0.143-0.055-0.429-0.055-0.297-0.055-0.44 0-0.308 0.176-0.506 0.187-0.198 0.473-0.198zm6.515 0q0.308 0 0.429 0.198 0.099 0.143 0.121 0.495 0.429-0.726 1.397-0.726 0.616 0 1.188 0.286l0.506 0.253q0.176 0.088 0.297 0.088 0.143 0 0.242-0.143l0.165-0.242q0.154-0.22 0.473-0.22 0.363 0 0.605 0.308 0.253 0.308 0.253 0.781 0 0.792-0.605 1.54-0.176 0.209-0.561 0.638-0.792 0.869-1.078 1.386-0.275 0.506-0.275 1.078 0 0.187 0.055 0.572 0.055 0.374 0.055 0.561 0 0.385-0.253 0.616t-0.682 0.231q-0.594 0-0.935-0.451-0.341-0.462-0.341-1.265 0-1.287 0.858-2.167 0.418-0.429 1.012-0.913 0.715-0.583 1.056-0.968-0.462 0.209-0.814 0.209-0.473 0-1.155-0.385l-0.506-0.286q-0.187-0.099-0.341-0.099-0.33 0-0.33 0.363 0 0.011 0.022 0.099l0.099 0.374q0.055 0.209 0.055 0.385 0 0.88-0.858 0.88-0.814 0-0.814-0.77 0-0.231 0.033-0.451 0.088-0.583 0.088-0.682 0-0.143-0.055-0.429-0.055-0.297-0.055-0.44 0-0.308 0.176-0.506 0.187-0.198 0.473-0.198z" fill="#000"/>
</svg>
