<?xml version="1.0" encoding="UTF-8" standalone="no"?>
<svg width="27px" height="27px" viewBox="0 0 27 27" version="1.1" xmlns="http://www.w3.org/2000/svg" xmlns:xlink="http://www.w3.org/1999/xlink" xmlns:sketch="http://www.bohemiancoding.com/sketch/ns">
    <!-- Generator: Sketch 3.4.2 (15857) - http://www.bohemiancoding.com/sketch -->
    <title>soccer-l</title>
    <desc>Created with Sketch.</desc>
    <defs>
        <circle id="path-1" cx="13.5" cy="13.5" r="12.5"></circle>
    </defs>
    <g id="POI" stroke="none" stroke-width="1" fill="none" fill-rule="evenodd" sketch:type="MSPage">
        <g id="soccer-l" sketch:type="MSLayerGroup">
            <circle id="Oval-1-Copy-39" opacity="0" fill="#FFFFFF" sketch:type="MSShapeGroup" cx="13.5" cy="13.5" r="13.5"></circle>
            <g id="Oval-1-Copy-38">
                <use fill="#33332E" fill-rule="evenodd" sketch:type="MSShapeGroup" xlink:href="#path-1"></use>
                <use fill="none" xlink:href="#path-1"></use>
            </g>
            <path d="M13.5,5 C8.81676,5 5,8.8168 5,13.5 C5,18.1832 8.81676,22 13.5,22 C18.18324,22 22,18.1832 22,13.5 C22,8.8168 18.18324,5 13.5,5 L13.5,5 Z M13.5,6.5 C16.16601,6.5 18.47358,7.9738 19.65625,10.1563 C18.54025,10.8967 17.51446,11.2836 17.5,12 C17.4899,12.4999 17.5,12.6412 17.5,13 C17.5,13.5 17.76049,14.1434 18.5,14.5 L20.25,15.3438 C20.04966,16.0846 19.72761,16.7544 19.3125,17.375 L18,16.5 C17.25,16 16.5,15.6667 16,16 L14.5,17 C13.80662,17.4623 13.87903,18 14,18.5 L14.46875,20.4375 C14.15151,20.4815 13.82962,20.4995 13.5,20.4995 C12.80671,20.4995 12.13146,20.4045 11.5,20.2183 L11.5,18.4995 C11.5,17.4995 11,16.9995 10.5,16.4995 C10,15.9995 9.5,15.4995 8.5,15.4995 L6.78125,15.4995 C6.59519,14.8685 6.5,14.1933 6.5,13.5 C6.5,9.6222 9.62216,6.5 13.5,6.5 L13.5,6.5 Z M10.5,10 L10,12 C9.8581107,12.5676 9.47997,13.1533 10,13.5 L11.5,14.5 C12.5,15.1667 12.94098,14.7795 13.5,14.5 L14.5,14 C15.24536,13.6273 15.5,13.5 15.5,12.5 L15.5,10.5 C15.5,10 15.5082,9.7016 14.5,9.5 L12,9 C10.95274,8.7905 10.755655,8.977 10.5,10 L10.5,10 Z" id="path10911-4-1-7-6-7-copy" opacity="0.7" fill="#FFFFFF" sketch:type="MSShapeGroup"></path>
        </g>
    </g>
</svg>