<svg width="28" height="28" viewBox="0 0 28 28">
  <g fill="none" fill-rule="evenodd">
    <path fill="#FFF" d="M3,2.22033763e-15 L25,2.22033763e-15 L25,2.22044605e-15 C26.6568542,1.91608339e-15 28,1.34314575 28,3 L28,25 L28,25 C28,26.6568542 26.6568542,28 25,28 L3,28 L3,28 C1.34314575,28 6.33922569e-16,26.6568542 -1.77635684e-15,25 L0,3 L4.4408921e-16,3 C2.41183085e-16,1.34314575 1.34314575,2.5248087e-15 3,2.22044605e-15 Z" opacity=".4"/>
    <rect width="26" height="26" x="1" y="1" fill="#B1B1AE" rx="2"/>
    <path fill="#000" d="M20,14 L20,11 C20,9.34314575 18.6568542,8 17,8 L11,8 C9.34314575,8 8,9.34314575 8,11 L8,14 L7,14 L7,11 C7,8.790861 8.790861,7 11,7 L17,7 C19.209139,7 21,8.790861 21,11 L21,14 L20,14 L20,17 C20,18.6568542 18.6568542,20 17,20 L11,20 C9.34314575,20 8,18.6568542 8,17 L8,14 L6,14 L6,11 C6,8.23857625 8.23857625,6 11,6 L17,6 C19.7614237,6 22,8.23857625 22,11 L22,14 L20,14 Z M14,11 C12.3431458,11 11,12.3431458 11,14 C11,15.6568542 12.3431458,17 14,17 C15.6568542,17 17,15.6568542 17,14 C17,12.3431458 15.6568542,11 14,11 Z M10,17 C9.44771525,17 9,17.4477153 9,18 C9,18.5522847 9.44771525,19 10,19 C10.5522847,19 11,18.5522847 11,18 C11,17.4477153 10.5522847,17 10,17 Z M12.5,21 L15.5,21 L15.5,23 L12.5,23 L12.5,21 Z"/>
  </g>
</svg>
