<svg version="1.1" viewBox="0 0 12 12" xmlns="http://www.w3.org/2000/svg">
 <title>speedcam-s</title>
 <g id="Page-2:-Night" fill="none" fill-rule="evenodd" opacity=".6">
  <g id="speedcam-s" fill-rule="nonzero">
   <rect id="Rectangle" width="12" height="12" rx="3" fill="#fff"/>
   <rect id="Rectangle" x="1" y="1" width="10" height="10" rx="2" fill="#000"/>
   <path id="Shape" d="m5 3h2c1.1046 0 2 0.89543 2 2v2c0 1.1046-0.89543 2-2 2h-2c-1.1046 0-2-0.89543-2-2v-2c0-1.1046 0.89543-2 2-2zm1 1.5c-0.82843 0-1.5 0.67157-1.5 1.5s0.67157 1.5 1.5 1.5 1.5-0.67157 1.5-1.5-0.67157-1.5-1.5-1.5zm-0.5 4.5h1v1h-1v-1z" fill="#fff"/>
  </g>
 </g>
</svg>
