<svg width="20" height="20" viewBox="0 0 20 20">
  <g fill="none" fill-rule="evenodd">
    <rect width="20" height="20" fill="#FFF" opacity=".4" rx="2.5"/>
    <rect width="18" height="18" x="1" y="1" fill="#B3A813" rx="2"/>
    <path fill="#4A4A4A" d="M14.6457063,8.53626696 L14.6457063,7.94688914 C14.6457063,7.62155258 14.3716838,7.35751131 14.0333657,7.35751131 L13.4210251,7.35751131 L13.4210251,11.4831561 L12.5727684,11.4831561 L12.5727684,6.47344457 C12.5727684,5.65951379 11.8875593,5 11.0419169,5 L6.5308515,5 C5.68520913,5 5,5.65951379 5,6.47344457 L5,12.9566007 C5,13.7705314 5.68520913,14.4300452 6.5308515,14.4300452 L11.0419169,14.4300452 C11.8875593,14.4300452 12.5727684,13.7705314 12.5727684,12.9566007 L12.5727684,12.6619118 L14.0333657,12.6619118 C14.3716838,12.6619118 14.6457063,12.3981652 14.6457063,12.0725339 L14.6457063,11.4831561 L15.7479194,11.4831561 C15.9172315,11.4831561 16.0540896,11.3514302 16.0018758,11.1884672 L16.0018758,8.83095588 C16.0540896,8.66799291 15.9172315,8.53626696 15.7479194,8.53626696 L14.6457063,8.53626696 Z M6,11.7151476 C6,10.8867166 6.67125,10.2150226 7.5,10.2150226 C8.3285,10.2150226 9,10.8867166 9,11.7151476 C9,12.5435786 8.3285,13.2150226 7.5,13.2150226 C6.67125,13.2150226 6,12.5435786 6,11.7151476 Z M10.7666851,7.46467091 C10.411451,7.46467091 10.123406,7.17694737 10.123406,6.82203476 C10.123406,6.46680067 10.411451,6.17875565 10.7666851,6.17875565 C11.1215977,6.17875565 11.4093213,6.46680067 11.4093213,6.82203476 C11.4093213,7.17694737 11.1215977,7.46467091 10.7666851,7.46467091 L10.7666851,7.46467091 Z"/>
  </g>
</svg>
