<?xml version="1.0" encoding="utf-8"?>
<!-- Generator: Adobe Illustrator 21.0.2, SVG Export Plug-In . SVG Version: 6.00 Build 0)  -->
<svg version="1.1" id="Слой_1" xmlns="http://www.w3.org/2000/svg" xmlns:xlink="http://www.w3.org/1999/xlink" x="0px" y="0px"
	 viewBox="0 0 31.2 29.4" enable-background="new 0 0 31.2 29.4" xml:space="preserve">
<title>speedcam-l</title>
<desc>Created with Sketch.</desc>
<path display="none" fill="#4A4A4A" d="M-88.7,10.1c-1.5,0-2.6,1.2-2.6,2.6s1.2,2.6,2.6,2.6c1.5,0,2.6-1.2,2.6-2.6
	C-86,11.3-87.2,10.1-88.7,10.1z M-81.6,8h-2.7l-0.2-2.3c0-0.2-0.2-0.4-0.4-0.4h-7.5c-0.2,0-0.4,0.2-0.4,0.4L-93,8h-0.5V7.5
	c0-0.2-0.2-0.3-0.3-0.3h-1.5c-0.2,0-0.3,0.1-0.3,0.3V8l0,0c-0.4,0-0.8,0.3-0.8,0.8V17c0,0.4,0.3,0.8,0.8,0.8h14.1
	c0.4,0,0.8-0.3,0.8-0.8V8.9C-80.8,8.4-81.2,8-81.6,8z M-94.6,11.2c-0.5,0-1-0.4-1-0.9c0-0.5,0.4-0.9,1-0.9c0.5,0,1,0.4,1,0.9
	C-93.6,10.8-94,11.2-94.6,11.2z M-90.7,6.3h4c0.2,0,0.4,0.2,0.4,0.4c0,0.2-0.2,0.4-0.4,0.4h-4c-0.2,0-0.4-0.2-0.4-0.4
	C-91.1,6.5-90.9,6.3-90.7,6.3z M-88.7,16.5c-2.1,0-3.8-1.7-3.8-3.8s1.7-3.8,3.8-3.8c2.1,0,3.8,1.7,3.8,3.8
	C-84.8,14.8-86.5,16.5-88.7,16.5z"/>
<g transform="translate(0,-952.36218)" display="none">
	<path display="inline" fill="#4A4A4A" d="M13.3,960.5l-1,1.9H8.5c-0.7,0-1.3,0.6-1.3,1.3v8.3c0,0.7,0.6,1.3,1.3,1.3h14.1
		c0.7,0,1.3-0.6,1.3-1.3v-8.3c0-0.7-0.6-1.3-1.3-1.3h-3.8l-1-1.9H13.3z M15.5,964.5c1.9,0,3.4,1.5,3.4,3.4s-1.5,3.4-3.4,3.4
		s-3.4-1.5-3.4-3.4S13.6,964.5,15.5,964.5z"/>
</g>
<g>
	<path id="Rectangle-346-Copy-3" fill="#232323" d="M3,0h25.2c1.7,0,3,1.3,3,2.8v23.9c0,1.6-1.3,2.8-3,2.8H3c-1.7,0-3-1.3-3-2.8V2.8
		C0,1.3,1.3,0,3,0z"/>
	<path id="Rectangle-346" fill="#9B730E" d="M4.4,1.4h22.2c1.7,0,3,1.3,3,2.8v21.1c0,1.6-1.3,2.8-3,2.8H4.4c-1.7,0-3-1.3-3-2.8V4.2
		C1.4,2.6,2.8,1.4,4.4,1.4z"/>
	<path fill="#232323" d="M15.5,12.5c-3.4,0-6.1,2.6-6.1,5.9s2.8,5.9,6.1,5.9s6.1-2.6,6.1-5.9C21.7,15.1,19,12.5,15.5,12.5z
		 M15.5,21.6c-1.9,0-3.5-1.4-3.5-3.2s1.6-3.2,3.5-3.2s3.5,1.4,3.5,3.2C19,20.2,17.4,21.6,15.5,21.6z"/>
	<path fill="#232323" d="M24.5,8.6h-9.4c0-1.1-0.8-1.9-1.9-1.9H10C8.9,6.7,8,7.6,8,8.6H6.6c-1.1,0-1.9,0.8-1.9,1.8V19
		c0,1,0.8,1.8,1.9,1.8h2.6c-0.4-0.7-0.5-1.6-0.5-2.5c0-3.6,3.1-6.5,6.8-6.5s6.8,2.9,6.8,6.5c0,0.8-0.2,1.7-0.5,2.5h2.6
		c1.1,0,1.9-0.8,1.9-1.8v-8.5C26.4,9.5,25.6,8.6,24.5,8.6z"/>
</g>
</svg>
