<?xml version="1.0" encoding="utf-8"?>
<!-- Generator: Adobe Illustrator 21.0.2, SVG Export Plug-In . SVG Version: 6.00 Build 0)  -->
<svg version="1.1" id="Слой_1" xmlns="http://www.w3.org/2000/svg" xmlns:xlink="http://www.w3.org/1999/xlink" x="0px" y="0px"
	 viewBox="0 0 20.8 19.6" enable-background="new 0 0 20.8 19.6" xml:space="preserve">
<title>speedcam-l</title>
<desc>Created with Sketch.</desc>
<path id="Rectangle-346-Copy-3" fill="#232323" d="M2,0h16.8c1.1,0,2,0.9,2,1.8v15.9c0,1-0.9,1.8-2,1.8H2c-1.1,0-2-0.9-2-1.8V1.8
	C0,0.9,0.9,0,2,0z"/>
<path id="Rectangle-346" fill="#9B730E" d="M3,1h14.8c1.1,0,2,0.9,2,1.8v14.1c0,1-0.9,1.8-2,1.8H3c-1.1,0-2-0.9-2-1.8V2.8
	C1,1.8,1.8,1,3,1z"/>
<path display="none" fill="#4A4A4A" d="M-93.9,5.2c-1.5,0-2.6,1.2-2.6,2.6s1.2,2.6,2.6,2.6c1.5,0,2.6-1.2,2.6-2.6
	C-91.2,6.4-92.4,5.2-93.9,5.2z M-86.8,3.2h-2.7l-0.2-2.3c0-0.2-0.2-0.4-0.4-0.4h-7.5c-0.2,0-0.4,0.2-0.4,0.4l-0.2,2.3h-0.5V2.7
	c0-0.2-0.2-0.3-0.3-0.3h-1.5c-0.2,0-0.3,0.1-0.3,0.3v0.5l0,0c-0.4,0-0.8,0.3-0.8,0.8v8.2c0,0.4,0.3,0.8,0.8,0.8h14.1
	c0.4,0,0.8-0.3,0.8-0.8V4C-86,3.5-86.4,3.2-86.8,3.2z M-99.8,6.4c-0.5,0-1-0.4-1-0.9s0.4-0.9,1-0.9c0.5,0,1,0.4,1,0.9
	S-99.2,6.4-99.8,6.4z M-95.9,1.5h4c0.2,0,0.4,0.2,0.4,0.4c0,0.2-0.2,0.4-0.4,0.4h-4c-0.2,0-0.4-0.2-0.4-0.4
	C-96.3,1.7-96.1,1.5-95.9,1.5z M-93.9,11.7c-2.1,0-3.8-1.7-3.8-3.8s1.7-3.8,3.8-3.8c2.1,0,3.8,1.7,3.8,3.8
	C-90,9.9-91.7,11.7-93.9,11.7z"/>
<g transform="translate(0,-952.36218)" display="none">
	<path display="inline" fill="#4A4A4A" d="M8.1,955.6l-1,1.9H3.3c-0.7,0-1.3,0.6-1.3,1.3v8.3c0,0.7,0.6,1.3,1.3,1.3h14.1
		c0.7,0,1.3-0.6,1.3-1.3v-8.3c0-0.7-0.6-1.3-1.3-1.3h-3.8l-1-1.9H8.1z M10.3,959.6c1.9,0,3.4,1.5,3.4,3.4s-1.5,3.4-3.4,3.4
		S6.9,965,6.9,963S8.4,959.6,10.3,959.6z"/>
</g>
<path fill="#232323" d="M10.3,8.3c-2.2,0-4.1,1.8-4.1,3.9s1.8,3.9,4.1,3.9s4.1-1.8,4.1-3.9C14.5,10.1,12.6,8.3,10.3,8.3z M10.3,14.4
	c-1.3,0-2.3-1-2.3-2.2s1-2.2,2.3-2.2s2.3,1,2.3,2.2C12.6,13.4,11.6,14.4,10.3,14.4z"/>
<path fill="#232323" d="M16.3,5.8h-6.2c0-0.7-0.6-1.3-1.3-1.3H6.6C5.9,4.5,5.4,5,5.4,5.8h-1C3.7,5.8,3.1,6.3,3.1,7v5.7
	c0,0.6,0.6,1.2,1.3,1.2h1.8c-0.2-0.5-0.3-1-0.3-1.7c0-2.4,2.1-4.3,4.6-4.3S15,9.8,15,12.2c0,0.6-0.2,1.1-0.3,1.7h1.8
	c0.7,0,1.3-0.6,1.3-1.2V7C17.6,6.3,17,5.8,16.3,5.8z"/>
</svg>
