<?xml version="1.0" encoding="utf-8"?>
<!-- Generator: Adobe Illustrator 21.0.2, SVG Export Plug-In . SVG Version: 6.00 Build 0)  -->
<svg version="1.1" id="Слой_1" xmlns="http://www.w3.org/2000/svg" xmlns:xlink="http://www.w3.org/1999/xlink" x="0px" y="0px"
	 viewBox="0 0 25.2 25.2" enable-background="new 0 0 25.2 25.2" xml:space="preserve">
<title>speedcam-l</title>
<desc>Created with Sketch.</desc>
<path id="Rectangle-346-Copy-3" fill="#FFFFFF" fill-opacity="0.7" d="M2.4,0h20.4c1.3,0,2.4,1.1,2.4,2.4v20.4
	c0,1.3-1.1,2.4-2.4,2.4H2.4c-1.3,0-2.4-1.1-2.4-2.4V2.4C0,1.1,1.1,0,2.4,0z"/>
<path id="Rectangle-346" fill="#252522" d="M3.6,1.2h18c1.3,0,2.4,1.1,2.4,2.4v18c0,1.3-1.1,2.4-2.4,2.4h-18c-1.3,0-2.4-1.1-2.4-2.4
	v-18C1.2,2.3,2.3,1.2,3.6,1.2z"/>
<polygon id="Shape_2_" fill="#FFFFFF" fill-opacity="0.7" points="4.7,8.6 15.6,8.6 15.6,7.3 19.3,7.3 19.3,8.6 20.5,8.6 20.5,18.2 
	4.7,18.2 "/>
<circle id="Oval_4_" fill="#252522" cx="13.2" cy="13.4" r="3.6"/>
<circle id="Oval_1_" fill="#FFFFFF" fill-opacity="0.7" cx="13.2" cy="13.4" r="2.4"/>
</svg>
