<?xml version="1.0" encoding="UTF-8" standalone="no"?>
<svg width="13px" height="13px" viewBox="0 0 13 13" version="1.1" xmlns="http://www.w3.org/2000/svg" xmlns:xlink="http://www.w3.org/1999/xlink" xmlns:sketch="http://www.bohemiancoding.com/sketch/ns">
    <!-- Generator: Sketch 3.4.2 (15857) - http://www.bohemiancoding.com/sketch -->
    <title>speedcam-s</title>
    <desc>Created with Sketch.</desc>
    <defs>
        <rect id="path-1" x="1" y="1" width="11" height="11" rx="2"></rect>
    </defs>
    <g id="Other" stroke="none" stroke-width="1" fill="none" fill-rule="evenodd" sketch:type="MSPage">
        <g id="speedcam-s" sketch:type="MSLayerGroup">
            <rect id="Rectangle-346-Copy-5" opacity="0.398087687" fill="#FFFFFF" sketch:type="MSShapeGroup" x="0" y="0" width="13" height="13" rx="2"></rect>
            <g id="Rectangle-346-Copy-2">
                <use fill="#33332E" fill-rule="evenodd" sketch:type="MSShapeGroup" xlink:href="#path-1"></use>
                <use fill="none" xlink:href="#path-1"></use>
            </g>
            <g id="Rectangle-358-Copy-2-+-Oval-322-Copy-5-+-Oval-322-Copy-6" transform="translate(3.000000, 3.000000)" fill="#FFFFFF" sketch:type="MSShapeGroup">
                <path d="M0,1.00292933 C0,0.449026756 0.443716645,0 0.999807492,0 L4.00019251,0 C4.55237094,0 5,0.437881351 5,1.00292933 L5,5.99707067 C5,6.55097324 4.55628335,7 4.00019251,7 L0.999807492,7 C0.447629061,7 0,6.56211865 0,5.99707067 L0,1.00292933 Z M1.875,6.36363636 C2.56535594,6.36363636 3.125,5.79381695 3.125,5.09090909 C3.125,4.38800123 2.56535594,3.81818182 1.875,3.81818182 C1.18464406,3.81818182 0.625,4.38800123 0.625,5.09090909 C0.625,5.79381695 1.18464406,6.36363636 1.875,6.36363636 Z M3.4375,2.70454545 C4.04156145,2.70454545 4.53125,2.20595347 4.53125,1.59090909 C4.53125,0.97586471 4.04156145,0.477272727 3.4375,0.477272727 C2.83343855,0.477272727 2.34375,0.97586471 2.34375,1.59090909 C2.34375,2.20595347 2.83343855,2.70454545 3.4375,2.70454545 Z" id="Rectangle-358-Copy-2" opacity="0.7"></path>
                <ellipse id="Oval-322-Copy-5" opacity="0.609316698" cx="3.4375" cy="1.59090909" rx="0.625" ry="0.636363636"></ellipse>
                <ellipse id="Oval-322-Copy-6" opacity="0.609316698" cx="1.875" cy="5.09090909" rx="0.625" ry="0.636363636"></ellipse>
            </g>
            <rect id="Rectangle-365" opacity="0.7" fill="#FFFFFF" sketch:type="MSShapeGroup" x="10" y="5" width="1" height="3"></rect>
            <rect id="Rectangle-365-Copy" opacity="0.7" fill="#FFFFFF" sketch:type="MSShapeGroup" x="9" y="4" width="1" height="5"></rect>
        </g>
    </g>
</svg>