<svg width="28" height="28" viewBox="0 0 28 28">
  <g fill="none" fill-rule="evenodd">
    <circle cx="14" cy="14" r="14" fill="#FFF" opacity=".4"/>
    <circle cx="14" cy="14" r="13" fill="#4E3551"/>
    <path fill="#FFF" d="M7,7 L7,11.9411765 C7,13.3032941 8.10840539,14.4117647 9.47044292,14.4117647 L10.2939239,14.4117647 C10.2939239,15.3209412 10.9872949,16.3108235 11.8420681,16.6221176 L13.1275219,17.2685882 L12.7643668,19.5176471 L10.2939239,20.1764706 L10.2939239,21 L17.7052526,21 L17.7052526,20.1764706 L15.2348097,19.5176471 L14.8724781,17.2669412 L16.1579319,16.6221176 C17.0127051,16.3108235 17.7060761,15.3217647 17.7060761,14.4117647 L18.5295571,14.4117647 C19.8915946,14.4117647 21,13.3032941 21,11.9411765 L21,7 L7,7 L7,7 Z M9.47044292,12.7647059 C9.01588142,12.7647059 8.64696194,12.3957647 8.64696194,11.9411765 L8.64696194,8.64705882 L10.2939239,8.64705882 L10.2939239,12.7647059 L9.47044292,12.7647059 L9.47044292,12.7647059 Z M19.3522146,11.9411765 C19.3522146,12.3957647 18.9832951,12.7647059 18.5287336,12.7647059 L17.7052526,12.7647059 L17.7052526,8.64705882 L19.3522146,8.64705882 L19.3522146,11.9411765 L19.3522146,11.9411765 Z" opacity=".6"/>
  </g>
</svg>
