<svg width="16" height="16" viewBox="0 0 16 16">
  <g fill="none" fill-rule="evenodd">
    <circle cx="8" cy="8" r="8" fill="#FFF" opacity=".4"/>
    <circle cx="8" cy="8" r="7" fill="#4E3551"/>
    <path fill="#FFF" d="M10.17056,4.02977332 L10.17056,4 L5.87772438,4 L5.87772438,4.02977332 L4,4.02977332 L4,6.88710951 C4,7.66572685 4.62859059,8.29998872 5.40024589,8.29998872 L5.87683022,8.29998872 L5.87683022,8.32976204 C5.87683022,8.86207285 6.27830558,9.43859253 6.772773,9.62174354 L7.50150889,9.99165445 L7.30747737,11.1338671 L5.87593607,11.5191158 L5.87593607,12 L10.1687717,12 L10.1687717,11.5182136 L8.73723036,11.1329649 L8.54230468,9.98985001 L9.27193473,9.62084132 C9.76640215,9.43859253 10.1678775,8.86117063 10.1678775,8.32885982 L10.1678775,8.2990865 L10.6444618,8.2990865 C11.4161171,8.2990865 12,7.66482463 12,6.88620729 L12,4.02977332 L10.17056,4.02977332 L10.17056,4.02977332 Z M5.35553817,7.54843803 C5.07656198,7.54843803 4.84944674,7.31927371 4.84944674,7.03778053 L4.84944674,4.84177287 L5.87772438,4.84177287 L5.87772438,7.54843803 L5.35553817,7.54843803 L5.35553817,7.54843803 Z M11.1541299,7.03778053 C11.1541299,7.31927371 10.9270146,7.54843803 10.6480384,7.54843803 L10.1714541,7.54843803 L10.1714541,4.84177287 L11.155024,4.84177287 L11.155024,7.03778053 L11.1541299,7.03778053 Z" opacity=".6"/>
  </g>
</svg>
