<svg width="28" height="28" viewBox="0 0 28 28">
  <g fill="none" fill-rule="evenodd">
    <circle cx="14" cy="14" r="14" fill="#FFF" opacity=".4"/>
    <circle cx="14" cy="14" r="13" fill="#4C351E"/>
    <path fill="#FFF" d="M15.4,8.93518097 L15.4,10.0368495 C18.5951364,10.2060416 21,10.9429503 21,11.8263838 C21,11.8331557 20.9998587,11.8399189 20.9995768,11.8466734 L21,16.4625528 C20.9635278,17.3582254 18.5709378,19.4833366 15.4,19.9999999 L15.4,17.8937027 C15.4,17.6030488 15.175881,17.3857286 14.8994161,17.3857286 L13.1005839,17.3857286 C12.8197113,17.3857286 12.6,17.6131564 12.6,17.8937027 L12.6,19.9999999 C9.42906217,19.4833366 7.03647217,17.3582254 7.00041312,16.4625528 L7,11.8466734 C7.00014131,11.8399189 7,11.8331557 7,11.8263838 C7,10.9429503 9.40486355,10.2060416 12.6,10.0368495 L12.6,8.93674474 C12.0512273,9.00143834 11.6666667,9.07714573 11.6666667,9.07714573 L11.6666667,7.23079397 C11.6666667,7.23079397 12.8333333,7 14,7 C15.1666667,7 16.3333333,7.23079397 16.3333333,7.23079397 L16.3333333,9.07714573 C16.3333333,9.07714573 15.9497578,9.0002117 15.4,8.93518097 Z M14.4666667,8.8571477 C14.316761,8.85029388 14.1639728,8.84635176 14.0108236,8.84635176 C13.8506717,8.84635176 13.6905103,8.85066262 13.5333333,8.85810602 L13.5333333,10.0043152 C13.6875777,10.0016667 13.8431867,10.0003216 14,10.0003216 C14.1568133,10.0003216 14.3124223,10.0016667 14.4666667,10.0043152 L14.4666667,8.8571477 Z M14,14.1546131 C17.3505275,14.1546131 20.0666667,13.4313032 20.0666667,12.5390553 C20.0666667,11.6468073 17.3505275,10.9234975 14,10.9234975 C10.6494725,10.9234975 7.93333333,11.6468073 7.93333333,12.5390553 C7.93333333,13.4313032 10.6494725,14.1546131 14,14.1546131 Z M11.6666667,12.3082613 L16.3333333,12.3082613 L17.5375407,13.3995742 C17.5375407,13.3995742 15.7307208,13.6464268 14,13.6464268 C12.2692792,13.6464268 10.5434082,13.3995742 10.5434082,13.3995742 L11.6666667,12.3082613 Z" opacity=".6"/>
  </g>
</svg>
