<svg height="24" viewBox="0 0 24 24" width="24"><g fill="none" fill-rule="evenodd"><circle cx="12" cy="12" fill="#fff" opacity=".4" r="12"/><circle cx="12" cy="12" fill="#4d361f" r="11"/><path d="m13.3846154 7.66601657v.87791301c2.3931951.1684857 4.2326645.76410118 4.5625161 1.50195312h.0528685v3.8745101h-.055645c-.3459189.9365986-2.2682905 2.6364791-4.744355 3.0796072v-1.8027109c0-.2833649-.2278773-.5019942-.5089783-.5019942h-1.3820434c-.2874939 0-.5089783.2247504-.5089783.5019942v1.8027109c-2.47606453-.4431281-4.39843613-2.1430086-4.74435498-3.0796072h-.05564502v-3.8745101h.05286853c.32985161-.73785194 2.16932096-1.33346742 4.56251607-1.50195312v-.87656675c-.5427422.05569537-.92307691.12087262-.92307691.12087262v-1.58954262s1.15384611-.19869283 2.30769231-.19869283 2.3076923.19869283 2.3076923.19869283v1.58954262s-.3793604-.06623328-.9230769-.12221888zm-.6923077-.05594304c-.2204748-.01263865-.4506238-.02053091-.6816031-.02053091-.2376501 0-.4753213.00835471-.7030123.02163774v.89667362c.2271525-.00777807.4581638-.01177534.6923077-.01177534s.4651552.00399727.6923077.01177534zm-.6923077 4.37306427c2.8718807 0 5.2-.6071371 5.2-1.3560786 0-.74894148-2.3281193-1.35607853-5.2-1.35607853s-5.2.60713705-5.2 1.35607853c0 .7489415 2.3281193 1.3560786 5.2 1.3560786zm-2-1.5498041h4l1.0321777.9160341s-1.5487028.2072049-3.0321777.2072049-2.96279297-.2072049-2.96279297-.2072049z" fill="#fff" opacity=".6"/></g></svg>