<svg version="1.1" viewBox="0 0 16 16" xmlns="http://www.w3.org/2000/svg">
 <title>stadium-s</title>
 <g id="Page-2:-Night" fill="none" fill-rule="evenodd" opacity=".6">
  <g id="stadium-s" fill-rule="nonzero">
   <circle id="Oval" cx="8" cy="8" r="8" fill="#fff"/>
   <circle id="Oval" cx="8" cy="8" r="7.3333" fill="#7F5933"/>
   <path id="Shape" d="m4.7333 4h0.93333l1.4 0.93333-1.4 0.93333v0.62275c0.68641-0.099269 1.4833-0.15608 2.3333-0.15608s1.6469 0.056812 2.3333 0.15608v-2.4894h0.93333l1.4 0.93333-1.4 0.93333v0.80017c0.86399 0.21174 1.4 0.5068 1.4 0.83317 0 0.64433-2.0894 1.1667-4.6667 1.1667-2.5773 0-4.6667-0.52234-4.6667-1.1667 0-0.32636 0.53603-0.62143 1.4-0.83317v-2.6668zm3.2667 3.0333c-1.5464 0-2.3333 0.080066-2.3333 0.46666 0 0.38659 0.78694 0.46667 2.3333 0.46667 1.5464 0 2.3333-0.08008 2.3333-0.46667 0-0.3866-0.78694-0.46666-2.3333-0.46666zm0 2.45c1.7772 0 3.361-0.31043 4.3869-0.79459l-0.65357 3.7113h-2.3333v-0.93333c0-0.51548-0.41785-0.93333-0.93333-0.93333h-0.93333c-0.51547 0-0.93333 0.41785-0.93333 0.93333v0.93333h-2.3333l-0.65357-3.7113c1.0259 0.48417 2.6097 0.79459 4.3869 0.79459z" fill="#fff" fill-opacity=".86274"/>
  </g>
 </g>
</svg>
