<?xml version="1.0" encoding="UTF-8"?>
<svg version="1.1" viewBox="0 0 24 24" xml:space="preserve" xmlns="http://www.w3.org/2000/svg">
 <g opacity=".6">
  <circle id="Oval" cx="12" cy="12" r="12" fill="#fff" opacity="1"/>
  <circle cx="12" cy="12" r="11" fill="#8C5F93"/>
  <path d="m14.861 4.8613c-1.2646-0.014877-2.3354 0.42329-3.2363 1.3242l-6.166 6.168 0.97656 0.97656 6.1816-6.1797c0.61883-0.61883 1.3737-0.92656 2.2363-0.91406 0.87307 0.012653 1.619 0.33191 2.2559 0.96875 0.62719 0.62719 0.94762 1.3731 0.96875 2.248 0.02086 0.86347-0.27659 1.6086-0.88477 2.2168l-5.9688 5.9688c-0.38041 0.38041-0.84556 0.57228-1.3672 0.56836-0.53199-0.003999-0.98371-0.19464-1.3711-0.58203-0.38739-0.38738-0.57804-0.8391-0.58203-1.3711-0.0039218-0.52163 0.18795-0.98678 0.56836-1.3672l5.457-5.457c0.13861-0.13862 0.29707-0.20571 0.49023-0.20898 0.1813-0.00307 0.34803 0.064829 0.47852 0.19531 0.12844 0.12845 0.19562 0.2973 0.18945 0.48242-0.0065 0.19618-0.07935 0.36255-0.23047 0.51367l-5.668 5.6719 0.97656 0.97656 5.6289-5.627c0.41232-0.41232 0.63359-0.91328 0.66016-1.4922 0.027234-0.59369-0.16242-1.0882-0.57812-1.5039-0.41169-0.41168-0.89023-0.61093-1.4648-0.60547-0.5639 0.00537-1.0564 0.21463-1.4609 0.61914l-5.4434 5.4434c-0.65971 0.65971-0.98633 1.4342-0.98633 2.3535 0 0.91033 0.33247 1.7016 0.98633 2.3555 0.64552 0.64553 1.4332 0.97349 2.3457 0.97852 0.92235 0.0051 1.6972-0.31243 2.3496-0.96484l5.9414-5.9414c0.90093-0.90093 1.3363-1.968 1.3164-3.2285-0.019672-1.2491-0.48027-2.3279-1.373-3.2207-0.8932-0.8932-1.973-1.3505-3.2266-1.3652z" fill="#fff"/>
 </g>
</svg>
