<svg version="1.1" viewBox="0 0 24 24" xmlns="http://www.w3.org/2000/svg">
 <title>stationery_shop-m</title>
 <g id="Page-2:-Night" fill="none" fill-rule="evenodd" opacity=".6">
  <g id="stationery_shop-m" fill-rule="nonzero">
   <circle id="Oval" cx="12" cy="12" r="12" fill="#fff"/>
   <circle id="Oval" cx="12" cy="12" r="11" fill="#8C5F93"/>
   <path id="Shape" d="m18.376 5.6233c-0.83092-0.83103-2.1763-0.83117-3.0074 0-0.1093 0.1093-3.1851 3.1852-3.2537 3.2538l-1.6771-1.6771c-8.24e-5 -8.235e-5 -1.647e-4 -1.9214e-4 -2.47e-4 -2.7449e-4 -8.24e-5 -8.234e-5 -1.922e-4 -1.6469e-4 -2.745e-4 -2.4703e-4l-2.0477-2.0477c-0.16077-0.16077-0.42147-0.16077-0.58226 0l-2.6559 2.6559c-0.16079 0.16077-0.16079 0.42147 0 0.58226l3.7253 3.7253-2.5165 2.5165c-0.042243 0.042243-0.078201 0.098046-0.098897 0.1592l-1.2395 3.6646c-0.10784 0.31868 0.19598 0.63219 0.52196 0.52196l3.6646-1.2395c0.058575-0.019818 0.11548-0.055116 0.15926-0.098897l2.5164-2.5164 3.7252 3.7252c0.16079 0.16079 0.42147 0.16079 0.58226 0l2.6559-2.6559c0.16079-0.16077 0.16079-0.42147 0-0.58226l-3.7253-3.7253c0.068539-0.068539 3.1448-3.1448 3.2537-3.2537 0.84234-0.84234 0.81851-2.1891 0-3.0074zm-2.4755 12.351-3.434-3.434 2.0737-2.0736 1.3861 1.3861-0.64254 0.64251c-0.16079 0.16077-0.16079 0.42144 0 0.58226 0.16074 0.16079 0.42144 0.16082 0.58226 0l0.64254-0.64251 1.4656 1.4656-2.0736 2.0736zm-1.0296-10.689 0.63038 0.63038-7.6372 7.6372-0.63038-0.63038c0.37094-0.37097 7.3892-7.3893 7.6372-7.6372zm1.0801-1.0801c0.50876-0.5087 1.3348-0.50711 1.8421-6.5877e-4 2.47e-4 2.4704e-4 4.391e-4 5.2152e-4 6.862e-4 7.6856e-4 0.50524 0.50508 0.5104 1.3322 0 1.8426l-0.49786 0.49786-0.92043-0.92043c-2.745e-4 -2.7448e-4 -4.941e-4 -5.7642e-4 -7.686e-4 -8.509e-4 -2.744e-4 -2.7448e-4 -5.764e-4 -4.9407e-4 -8.509e-4 -7.6856e-4l-0.92073-0.92073 0.49786-0.49783zm-7.5046 9.9299 7.6372-7.6372 0.63011 0.63011-7.6372 7.6372-0.63011-0.63011zm-0.12975 1.0348-2.2479 0.76035 0.76035-2.2479 1.4876 1.4875zm-2.2917-9.0714 2.0736-2.0736 1.4656 1.4656-0.64251 0.64254c-0.16079 0.16079-0.16079 0.42147 0 0.58226 0.16074 0.16079 0.42144 0.16082 0.58226 0l0.64251-0.64254 1.3863 1.3863-2.0736 2.0736-3.4342-3.4342z" fill="#fff"/>
  </g>
 </g>
</svg>
