<?xml version="1.0" encoding="UTF-8"?>
<svg version="1.1" viewBox="0 0 16 16" xmlns="http://www.w3.org/2000/svg">
	<title>stone-m</title>
	<path d="m8.2285 0.27148c-0.7397-0.016388-1.4803 0.063849-2.1953 0.24219-3.2452 1.3467-4.4152 3.3848-4.623 7.4902-0.099199 1.8801-0.77216 3.6862-0.78125 5.5723-0.071978 0.96952 0.32468 2.0383 1.4414 2.1523h11.59c0.84246 0.039747 1.6542-0.60749 1.7188-1.4668 0.002169-4.0249-0.60695-2.9872-0.74219-7.1895-0.096741-1.8809-0.36192-3.9815-1.8379-5.3203-1.3228-0.94308-2.943-1.4444-4.5703-1.4805zm-2.7285 5.1406h1v1h-1v-1zm2 0h3v1h-3v-1zm-4 2.1738h9v1h-9v-1zm2 2h5v1h-5v-1z" fill="#717065" opacity=".6"/>
</svg>
