<svg viewBox="0 0 13 13" xmlns="http://www.w3.org/2000/svg">
 <g>
  <rect width="13" height="13" rx="1" fill="#FFF" opacity=".4"/>
  <rect x="1" y="1" width="11" height="11" rx="1" fill="#142433"/>
  <path d="m8.7065 10.395c0.25225-0.16034 0.60802-0.49234 0.76269-0.71174 0.22604-0.32063 0.39019-0.70586 0.47801-1.1218 0.034016-0.16111 0.038172-0.44417 0.045132-3.074l0.0076655-2.4874h-2v2.2429 2.9114s-0.21821 0.45825-0.30092 0.60411c-0.1038 0.18303-0.2953 0.3572-0.49511 0.45028-0.54971 0.25608-1.3541 0.16388-1.7354-0.19892-0.19418-0.18477-0.40393-0.48229-0.46861-0.85547-0.0049871-0.091212 0.062971-1.1641 0-2.8548v-2.2995h-2v2.3338c0 2.752 0.0055441 2.9843 0.079516 3.332 0.18269 0.85864 0.74564 1.542 1.6075 1.9514 0.63169 0.30006 1.4495 0.43499 2.2088 0.36446 0.6766-0.062842 1.3087-0.26767 1.8107-0.58673z" fill="#FFF" opacity=".6"/>
 </g>
</svg>
