<svg width="15" height="15" viewBox="0 0 15 15">
  <g fill="none">
    <circle cx="7.5" cy="7.5" r="7.5" fill="#FFF" opacity=".4"/>
    <circle cx="7.5" cy="7.5" r="6.5" fill="#0A234D"/>
    <circle cx="7.5" cy="7.5" r="5.5" fill="#A3A3A3"/>
    <path fill="#0A234D" d="M11,10.4998373 L11,4.68325532 C11,4.35007036 10.8072506,4 10.2264922,4 C9.7875029,4 9.61094557,4.18339412 9.41770119,4.55038337 L7.51774765,8.30031397 L7.50042425,8.30031397 L5.58311195,4.55038337 C5.38958474,4.18339412 5.21394661,4 4.77386135,4 C4.19356256,4 4,4.35007036 4,4.68325532 L4,10.4998373 C4,10.8174099 4.26416428,11 4.58033414,11 C4.86153901,11 5.17820382,10.8174099 5.17820382,10.4998373 L5.17820382,6.1666906 L5.19605754,6.1666906 L6.93720139,9.53341661 C7.06033899,9.76683035 7.21897191,9.90070739 7.50042425,9.90070739 C7.78138163,9.90070739 7.94001455,9.76683035 8.06336428,9.53341661 L9.8042253,6.1666906 L9.82211436,6.1666906 L9.82211436,10.4998373 C9.82211436,10.8174099 10.1382489,11 10.4197366,11 C10.7368963,11 11,10.8174099 11,10.4998373 Z"/>
  </g>
</svg>
