<svg width="20" height="20" viewBox="0 0 20 20">
  <g fill="none">
    <polygon fill="#FFF" points="17 7.1 17 3 12.9 3 10 .1 7.1 3 3 3 3 7.1 .1 10 3 12.9 3 17 7.1 17 10 19.9 12.9 17 17 17 17 12.9 19.9 10" opacity=".4"/>
    <polygon fill="#000" points="16 13.2 18.8 10.4 16 7.6 16 4 12.4 4 10.2 1.8 8 4 4 4 4 8 1.6 10.4 4 12.7 4 16 7.3 16 10.2 19 13.2 16 16 16"/>
    <path fill="#8A0000" d="M12,8 L15,8 L15,15 L12,15 L12,11.2 L10.2,13 L8,10.8431373 L8,15 L5,15 L5,8 L8,8 L10.2,9.9 L12,8 Z"/>
    <path fill="#707070" d="M7,5 L7,6 L8,6 L8,5 L8,4 L9,4 L9,5 L11,5 L11,4 L12,4 L12,5 L12,6 L13,6 L13,5 L14,5 L15,5 L15,7 L14,7 L14,6 L13,6 L13,7 L12,7 L11,7 L11,6 L9,6 L9,7 L8,7 L7,7 L7,6 L6,6 L6,7 L5,7 L5,5 L6,5 L7,5 Z"/>
  </g>
</svg>
