<svg width="18" height="18" viewBox="0 0 18 18">
  <g fill="none">
    <path fill="#FFF" d="M9,0 C4,0 0,4 0,9 C0,14 4,18 9,18 C14,18 18,14 18,9 C18,4 14,0 9,0 Z" opacity=".4"/>
    <circle cx="9" cy="9" r="7.5" fill="#A3A3A3"/>
    <path fill="#000" d="M9,2 C12.9,2 16,5.1 16,9 C16,12.9 12.9,16 9,16 C5.1,16 2,12.9 2,9 C2,5.1 5.1,2 9,2 Z M9,1 C4.6,1 1,4.6 1,9 C1,13.4 4.6,17 9,17 C13.4,17 17,13.4 17,9 C17,4.6 13.4,1 9,1 Z"/>
    <path fill="#000" d="M9.9,10.9 L9.2,11.5 L8.4,10.9 L7,9.8 L7,8.5 L9.2,10.2 L13,7 L13,8 L13,8.4 L13,13 L12,13 L12,9.2 L9.9,10.9 Z M6,6.21818182 L6,13 L5,13 L5,5 L6.1,5 L6.3,5.2 L8.9,7.3 L9.1,7.4 L11.9,5 L13,5 L13,5.4 L9.8,8.1 L9,8.7 L8.3,8.1 L6,6.21818182 Z"/>
  </g>
</svg>
