<svg width="16" height="18" viewBox="0 0 16 18">
  <g fill="none">
    <path fill="#FFF" d="M16,8 C16,7.4 15.6,7 15,7 L14.8,7 L15.7,5.2 C15.9,4.8 15.8,4.4 15.6,4 L14.9,3.2 L12.1,0.2 C11.9,0.1 11.7,0 11.4,0 L7.3,0 C6.9,0 6.5,0.2 6.4,0.6 C6.2,1 6.3,1.4 6.6,1.7 L7.8,3 L1,3 C0.4,3 0,3.4 0,4 L0,7 C0,7.2 0.1,7.4 0.2,7.5 C0.1,7.6 0,7.8 0,8 L0,10 C0,10.6 0.4,11 1,11 L1.1,11 L0.2,12.8 C0,13.1 0,13.6 0.3,13.9 L1,14.7 L3.8,17.7 C4,17.9 4.3,18 4.6,18 L8.7,18 C9.1,18 9.5,17.8 9.6,17.4 C9.8,17 9.7,16.6 9.4,16.3 L8.2,15 L15,15 C15.6,15 16,14.6 16,14 L16,11 C16,10.8 15.9,10.6 15.8,10.5 C15.9,10.4 16,10.2 16,10 L16,8 Z" opacity=".4"/>
    <path fill="#06224D" d="M3,11 L15,11 L15,14 L5.9,14 L8.7,17 L4.6,17 L1.8,14 L1.1,13.2 L2.3,11 L3,11 Z M1,8 L15,8 L15,10 L1,10 L1,8 Z"/>
    <path fill="#900" d="M13,7 L1,7 L1,4 L10.1,4 L7.3,1 L11.4,1 L14.2,4 L14.9,4.8 L13.7,7 L13,7 Z"/>
  </g>
</svg>
