<svg width="28" height="28" viewBox="0 0 28 28">
  <g fill="none">
    <rect width="28" height="28" fill="#FFF" opacity=".4"/>
    <g transform="translate(1 1)">
      <rect width="25" height="25" x=".5" y=".5" fill="#A3A3A3"/>
      <path fill="#757575" d="M25,1 L25,25 L1,25 L1,1 L25,1 Z M26,0 L0,0 L0,26 L26,26 L26,0 Z"/>
    </g>
    <path fill="#8A0000" d="M10,25 L10,10.5 C10,6.9 12.9,4 16.5,4 L22,4 C23.7,4 25,5.3 25,7 L16.5,7 C14.6,7 13,8.6 13,10.5 L13,22 C13,23.7 11.7,25 10,25 Z M14,25 L14,12.7 C14,10.1 16.1,7.9 18.8,7.9 L22,7.9 C23.7,7.9 25,9.2 25,10.9 L18.7,10.9 C17.7,10.9 16.9,11.7 16.9,12.7 L16.9,22 C17,23.7 15.7,25 14,25 Z"/>
    <path fill="#292929" d="M9,11 L3,11 C3,9.3 4.3,8 6,8 L9,8 L9,11 Z M12,4 C10.9,4.7 10,5.8 9.5,7 L3,7 C3,5.3 4.3,4 6,4 L12,4 Z"/>
  </g>
</svg>
