<svg width="30" height="18" viewBox="0 0 30 18">
  <g fill="none">
    <polygon fill="#FFF" points="20.7 .6 15.3 6.3 9.9 .6 .9 16.8 10.2 16.8 17.4 17.8 17.5 17.8 17.5 17.8 17.6 17.8 17.7 17.8 22.2 17.8 23.2 17.8 24.2 17.8 24.2 16.8 26.4 16.8 28.1 16.8 29.7 16.8" opacity=".4"/>
    <path fill="#B39637" d="M27.3,14.3 L21.3,3.8 L20.6,2.5 L19.6,3.7 L15.3,8 L11,3.6 L10,2.4 L9.4,3.8 L3.4,14.3 L2.6,15.8 L4.3,15.8 L9.2,15.8 L9.8,15.8 L9.8,15.7 L17.6,16.8 L17.7,16.8 L17.8,16.8 L22.3,16.8 L23.3,16.8 L23.3,15.8 L26.5,15.8 L28.2,15.8 L27.3,14.3 Z M4,14.5 L10,4 L4,14.5 Z"/>
    <polygon fill="#8A0000" points="20.2 4.2 15.1 9.4 10.1 4.2 4 14.8 8.9 14.8 10.9 9.9 15.1 12.8 19.3 9.9 21.4 14.8 26.2 14.8"/>
    <path fill="#083A73" d="M22.2,13.3 L22.2,15.7 L17.7,15.7 L9.5,14.6 L10,13.6 L10.2,13.2 L18,10.7 L19.7,10.7 C21,10.8 22.2,11.9 22.2,13.3 Z"/>
    <polygon fill="#839CB9" points="18.2 10.8 18.2 13.3 10.1 13.7 10.3 13.2 18.1 10.8" opacity=".5"/>
  </g>
</svg>
