<svg viewBox="0 0 24 24" xmlns="http://www.w3.org/2000/svg">
 <g>
  <polygon points="24 0 0 0 0 24 24 24" fill="#FFF" opacity=".4"/>
  <rect x="1" y="1" width="22" height="22" fill="#B37100"/>
  <path d="m8.9896 15.99c-1.0929-0.10903-1.8837-1.0608-1.7896-2.1896l0.7-5.9c0.1-0.5 0.5-0.9 1-0.9h0.1v-1h6v1h0.1c0.5 0 0.9 0.4 0.9 0.9l0.7 5.9c0.087353 1.0482-0.58834 1.9439-1.5605 2.1536 0.28026-0.07568 0.54596-0.23908 0.7605-0.45363 0.3-0.4 0.4-0.8 0.4-1.2l-0.7-5.9c0-0.2-0.2-0.4-0.5-0.4h-0.1-6.1c-0.3 0-0.5 0.2-0.5 0.4l-0.7 5.9c0 0.5 0.1 0.9 0.4 1.2 0.24495 0.24495 0.55656 0.42323 0.88041 0.48041l-0.98041-0.98041h8l-1 1h1l2.1996 2.538c1.7187-1.643 2.8004-3.9891 2.8004-6.538 0-5-4-9-9-9s-9 4-9 9c0 2.5317 1.1445 4.8181 2.8423 6.4897l2.1577-2.4897h1l-0.010406-0.010406zm0.21041 0.010406-3 6h-3.4l2.3516-2.7134c-1.9212-1.8066-3.1516-4.3928-3.1516-7.2866 0-5.5 4.5-10 10-10s10 4.5 10 10c0 2.8625-1.1971 5.4856-3.1282 7.3136l2.3282 2.6864h-3.4l-0.68354-1.3671c-0.038648 0.022631-0.077468 0.044995-0.11646 0.067088v-0.3l-2.2-4.4h-5.6zm-0.2-7h1l2 3 2-3h1v5h-1v-2.9l-2 2.9-2-2.9v2.9h-1v-5z"/>
 </g>
</svg>
