<svg viewBox="0 0 26 26" xmlns="http://www.w3.org/2000/svg">
 <g>
  <rect width="26" height="26" fill="#FFF" opacity=".4"/>
  <rect x="1" y="1" width="24" height="24"/>
  <path d="m17.2 17-6.5-2.5 2.6-1 4.2-1.6c1-0.4 1.6-1.3 1.6-2.4 0-0.3-0.1-0.7-0.2-0.9-0.3-0.6-0.8-1.1-1.5-1.4l-15.4-5.1c-0.4-0.1-0.7-0.1-1 0v2.8l11.3 3.8 2.8 0.9-6.7 2.6c-0.7 0.2-1.1 0.7-1.4 1.3-0.1 0.3-0.2 0.6-0.2 1 0 1 0.6 2 1.6 2.3l3.3 1.3 3 1.2-13.6 3.7h-0.1v2h4.3l11.7-3.2c1.1-0.3 1.8-1.2 1.8-2.3 0-0.4 0-0.8-0.2-1.1-0.3-0.6-0.8-1.1-1.4-1.4z" fill="#19401B"/>
  <path d="m18.8 8.6c0.2-0.3 0.2-0.7 0.2-1.1 0-1.1-0.7-2-1.7-2.3l-12.6-4.2h-3.7v1.9l14 4.7-2.8 1.1-3.9 1.5c-1 0.4-1.6 1.3-1.6 2.3 0 0.3 0.1 0.7 0.2 1 0.3 0.6 0.7 1.1 1.4 1.3l6.3 2.4-3 0.8-10.5 3h-0.1v2.8c0.2 0.2 0.3 0.2 0.5 0.2h0.4l15.1-4.2c0.8-0.2 1.3-0.7 1.6-1.4 0.1-0.3 0.2-0.6 0.2-0.9 0.1-1.1-0.6-2.1-1.6-2.5l-6.5-2.5 6.8-2.6c0.6-0.2 1.1-0.7 1.3-1.3z" fill="#A3A3A3"/>
 </g>
</svg>
