<svg width="32" height="21" viewBox="0 0 32 21">
  <g fill="none">
    <path fill="#FFF" d="M31,0 L23.9,0 C23.6,0 23.4,0.1 23.2,0.3 L22,1.5 C20.4,0.5 18.5,0 16.5,0 C14.4,0 12.4,0.6 10.7,1.7 L9.2,0.3 C9.1,0.1 8.8,0 8.5,0 L1.5,0 C1.1,0 0.7,0.2 0.5,0.6 C0.3,1 0.5,1.4 0.8,1.7 L3.8,4.7 C3.9,4.9 4.2,5 4.5,5 C4.5,5.3 4.6,5.5 4.8,5.7 L6.5,7.4 C6.2,8.4 6,9.4 6,10.5 C6,11.5 6.1,12.5 6.4,13.4 C6.7,14.6 7.3,15.7 8,16.7 C10,19.4 13.1,21 16.5,21 C19.8,21 23,19.4 24.9,16.8 C25.7,15.8 26.2,14.7 26.6,13.4 C26.9,12.5 27,11.5 27,10.5 C27,9.3 26.8,8.1 26.4,7 L27.7,5.7 C27.9,5.5 28,5.3 28,5 C28.3,5 28.5,4.9 28.7,4.7 L31.7,1.7 C31.9,1.6 32,1.3 32,1 C32,0.4 31.5,0 31,0 Z" opacity=".4"/>
    <g transform="translate(7 1)">
      <path fill="#A3A3A3" d="M9.5,0 C4.3,0 0,4.3 0,9.5 C0,10.4 0.1,11.3 0.4,12.1 C0.7,13.2 1.2,14.2 1.9,15.1 C3.6,17.5 6.4,19 9.6,19 C12.7,19 15.5,17.5 17.2,15.2 C17.9,14.3 18.4,13.3 18.7,12.2 C19,11.4 19.1,10.5 19.1,9.6 C19,4.3 14.8,0 9.5,0 Z M18.1,12 C17.8,13 17.3,14 16.7,14.8 L11.5,9.6 L9.4,11.6 L7.3,9.6 L2.1,14.7 C1.6,13.9 1.1,13 0.9,12 C0.9,11.9 0.9,11.8 0.8,11.7 L7.4,5.4 L9.5,7.4 L11.6,5.4 L18.2,11.7 C18.2,11.8 18.2,11.9 18.1,12 Z"/>
      <path fill="#707070" d="M18.1,12 C17.8,13 17.3,14 16.7,14.8 C16.7,14.8 16.7,14.8 16.7,14.9 C15,17.2 12.3,18.5 9.5,18.5 C6.6,18.5 3.9,17.1 2.2,14.8 C2.2,14.8 2.2,14.8 2.2,14.7 C1.6,13.9 1.1,13 0.9,12 C0.9,11.9 0.9,11.8 0.8,11.7 C0.6,11 0.5,10.2 0.5,9.5 C0.5,4.5 4.5,0.5 9.5,0.5 C14.5,0.5 18.5,4.5 18.5,9.5 C18.5,10.3 18.4,11 18.2,11.7 C18.2,11.8 18.2,11.9 18.1,12 Z"/>
    </g>
    <circle cx="16.5" cy="10.5" r="5.5" fill="#072654"/>
    <path fill="#1A1A1A" d="M16.2368421,8.73684211 L23.9,1 L31,1 L28,4 L24.5,4 L24.5,5 L27,5 L17,15 L16.25,14.25 L15.5,15 L5.5,5 L8,5 L8,4 L4.5,4 L1.5,1 L8.5,1 L16.2368421,8.73684211 Z"/>
    <polygon fill="#940C13" points="16.9 8 16.2 8.7 15.5 8 8.5 8 16.2 16 24 8"/>
    <path fill="#B39E02" d="M25.2,12.7 C25.2,12.8 25.2,12.9 25.1,13 C24.8,14 24.3,15 23.7,15.8 L18.5,10.6 L16.4,12.6 L14.3,10.6 L9.1,15.7 C8.6,14.9 8.1,14 7.9,13 C7.9,12.9 7.9,12.8 7.8,12.7 L14.4,6.4 L16.5,8.4 L18.6,6.4 L25.2,12.7 Z"/>
  </g>
</svg>
