<svg width="28" height="19" viewBox="0 0 28 19">
  <g fill="none">
    <path fill="#FFF" d="M27.1,9.3 L18.9,3.1 C18.8,3.1 18.8,3 18.7,3 C18.7,2.9 18.8,2.8 18.8,2.6 C18.8,2.3 18.7,2.1 18.5,1.9 L17.9,1.3 C17.7,1.1 17.4,1 17.2,1 C17,1 16.7,1.1 16.5,1.3 L15.5,2.3 L15.5,1.2 C15.5,0.6 15.1,0.2 14.5,0.2 L13.7,0.2 C13.1,0.2 12.7,0.6 12.7,1.2 L12.7,2.4 L11.7,1.4 C11.5,1.2 11.2,1.1 11,1.1 C10.7,1.1 10.5,1.2 10.3,1.4 L9.6,2 C9.4,2.2 9.3,2.4 9.3,2.7 C9.3,2.8 9.3,2.9 9.4,3.1 C9.3,3.1 9.3,3.2 9.2,3.2 L0.9,9.3 C0.6,9.5 0.5,9.8 0.5,10.1 C0.5,10.4 0.7,10.7 1,10.9 L13.5,18.8 C13.7,18.9 13.8,19 14,19 C14.2,19 14.4,18.9 14.5,18.8 L27,11 C27.3,10.8 27.5,10.5 27.5,10.2 C27.5,9.8 27.4,9.5 27.1,9.3 Z" opacity=".4"/>
    <polygon fill="#A3A3A3" points="25 10.1 14 17 3 10.1 9.8 5 14 7.8 18.2 5"/>
    <path fill="#8C0B12" d="M12.7078,3.8941 L12.14212,4.45978 L10.37437,2.69203 L10.94005,2.12635 L12.7078,3.8941 Z M17.14811,2.07081 L17.71379,2.63649 L15.94604,4.40424 L15.38036,3.83856 L17.14811,2.07081 Z M13.6,1.2 L14.4,1.2 L14.4,3.7 L13.6,3.7 L13.6,1.2 Z M14,18 L1.5,10.1 L9.7,4 L14,6.8 L18.3,4 L26.5,10.2 L14,18 Z M4.5,10 L14,16 L23.5,10 L18.2,6 L14,8.8 L9.8,6 L4.5,10 Z"/>
  </g>
</svg>
