<svg viewBox="0 0 28 23" xmlns="http://www.w3.org/2000/svg">
 <g>
  <path d="m27.3 11.7c-0.3-0.7-1-1.1-1.6-1.1-0.7-5.9-5.6-10.4-11.7-10.4s-11 4.5-11.7 10.4c-0.6 0-1.1 0.4-1.5 0.9v0.1 0.1c-0.4 0.9-0.1 1.9 0.7 2.4l11.7 7.8c0.4 0.3 0.8 0.3 0.9 0.3 0.2 0 0.5 0 0.9-0.3l11.8-7.8 0.2-0.2c0.5-0.5 0.7-1.4 0.3-2.2zm-23.1 0.5v-0.2 0.2zm19.6 0v-0.2 0.2z" fill="#FFF" opacity=".4"/>
  <path d="m23.799 12.252c8.148e-4 -0.086961 8.148e-4 -0.1715 8.148e-4 -0.25199 0-5.4-4.4-9.8-9.8-9.8s-9.8 4.4-9.8 9.8c0 0.080492 0 0.16503 8.1484e-4 0.25199 0.58029 0.21412 1.2646 0.46766 1.9975 0.73978-0.098361-0.49617-0.098361-0.89452-0.098361-1.3918 0-4.6 3.5-8.3 7.9-8.3s7.9 3.6 7.9 8.2c0 0.49726 0 0.99451-0.098363 1.4918 0.73292-0.27212 1.4173-0.52565 1.9975-0.73978zm-20.599-0.36762c0.061204-5.9459 4.838-10.684 10.799-10.684 5.9614 0 10.738 4.7384 10.799 10.684 0.48855-0.17851 0.7849-0.28437 0.80059-0.28437 0.3 0 0.7 0.2 0.8 0.5 0.2 0.4 0.1 0.9-0.2 1.2l-7.2298 4.7388c-0.0233 0.020609-0.046712 0.040999-0.070237 0.061164l-1.2 0.77143-3.4 2.2286c-0.1 0.1-0.2 0.1-0.3 0.1s-0.2 0-0.3-0.1l-11.8-7.9c-0.4-0.2-0.5-0.7-0.3-1.1 0.2-0.3 0.5-0.5 0.8-0.5 0.015691 0 0.31204 0.10586 0.80059 0.28437z" fill="#45748A"/>
  <path d="m14 11.2-1.5-2.3-1.4 3.1h-3l4.4-6.9 1.5 3.1 1.5-3.1 4.4 6.9h-3l-1.4-3.1-1.5 2.3z" fill="maroon"/>
  <path d="m14 16.9-11.8-4.4 11.5 7.6c0.2 0.1 0.4 0.1 0.5 0l11.5-7.6-11.7 4.4z" fill="#0B0E33"/>
  <path d="m14 15.1-5.1-1.7 5.1 0.8 5.1-0.8-5.1 1.7z" fill="#8A7E00"/>
 </g>
</svg>
