<svg width="23" height="23" viewBox="0 0 23 23">
  <g fill="none">
    <path fill="#FFF" d="M11.5,0 C5.2,0 0,5.2 0,11.5 C0,17.8 5.2,23 11.5,23 C17.8,23 23,17.8 23,11.5 C23,5.2 17.8,0 11.5,0 Z" opacity=".4"/>
    <path fill="#A3A3A3" d="M11.5,1 C5.7,1 1,5.7 1,11.5 C1,17.3 5.7,22 11.5,22 C17.3,22 22,17.3 22,11.5 C22,5.7 17.3,1 11.5,1 Z"/>
    <path fill="#06224D" d="M13,12.4181818 L13,3.13193315 C16.9790164,3.84039965 20,7.31740556 20,11.5 C20,16.1944204 16.1944204,20 11.5,20 C6.80557963,20 3,16.1944204 3,11.5 C3,7.31740556 6.02098363,3.84039965 10,3.13193315 L10,12.0888889 L7.2,9.6 L5.3,11.3 L11.7,17 L18,11.3 L16.1,9.6 L13,12.4181818 Z"/>
  </g>
</svg>
