<svg width="29" height="29" viewBox="0 0 29 29">
  <g fill="none" transform="translate(0 1)">
    <path fill="#FFF" d="M14,0 C6.3,0 0,6.3 0,14 C0,21.7 6.3,28 14,28 C21.7,28 28,21.7 28,14 C28,6.3 21.7,0 14,0 Z" opacity=".4"/>
    <path fill="#000" d="M14,27 C6.81060606,27 1,21.1893939 1,14 C1,6.81060606 6.81060606,1 14,1 C21.1893939,1 27,6.81060606 27,14 C27,21.1893939 21.1893939,27 14,27 Z"/>
    <path fill="#FFF" d="M10,12.4067797 L10,21 L7,21 L7,6 L10,6 L14.4,15.4 L15.9,18.6 L14.8,21 L14,21 L12.9,18.6 L10,12.4067797 Z M19,12.42 L17,16.7 L15.5,13.5 L19,6 L22,6 L22,21 L19,21 L19,12.42 Z" opacity=".6"/>
  </g>
</svg>
