<svg height="13" viewBox="0 0 17 13" width="17"><g fill="none" fill-rule="evenodd"><path d="m2.49816335 4c.97955962-2.34895185 3.29788666-4 6.00183665-4 2.70395 0 5.022277 1.65104815 6.0018367 4h2.4981633v5h-2.4981633c-.9795597 2.3489518-3.2978867 4-6.0018367 4-2.70394999 0-5.02227703-1.6510482-6.00183665-4h-2.49816335v-5z" fill="#fff" opacity=".6"/><path d="m8.5 12c-3.03756612 0-5.5-2.46243388-5.5-5.5s2.46243388-5.5 5.5-5.5c3.0375661 0 5.5 2.46243388 5.5 5.5s-2.4624339 5.5-5.5 5.5zm0-2c1.9329966 0 3.5-1.56700338 3.5-3.5s-1.5670034-3.5-3.5-3.5c-1.93299662 0-3.5 1.56700338-3.5 3.5s1.56700338 3.5 3.5 3.5z" fill="#b32d2d"/><path d="m1 5h15v3h-15z" fill="#032759"/></g></svg>