<svg width="34" height="34" viewBox="0 0 34 34">
  <g fill="none">
    <path fill="#FFF" d="M17.1,0.7 C8.1,0.7 0.7,8 0.7,17.1 C0.7,26.2 8.1,33.5 17.1,33.5 C26.1,33.5 33.5,26.1 33.5,17.1 C33.5,8 26.2,0.7 17.1,0.7 Z" opacity=".4"/>
    <circle cx="17.1" cy="17.1" r="15.4" fill="#A3A3A3"/>
    <path fill="#072654" d="M10.1,14.7 C12.2,14.7 12.2,14.7 12.2,16.9 C12.2,18 11.3,18.9 10.2,19 L11.3,20.7 L9,20.7 L7.2,17.9 L6.3,21.6 L4,21.6 L5.1,17.2 L6.8,17.2 L7.3,17.2 L9,17.2 L9.1,17.2 L10.1,17.2 C10.2,17.2 10.4,17 10.4,16.8 C10.4,16.6 10.3,16.4 10,16.4 L7.1,16.4 C6.8,16.4 6.4,16.6 6.1,16.9 C5.3,16.2 5.7,14.9 6.7,14.7 C6.8,14.7 7,14.7 7.1,14.7 L10.1,14.7 Z M30.3,14.4 C30.6,14.9 30.5,15.4 30.4,16 L29.3,19.9 L27.2,19.9 L28.4,15.6 L27.1,15.6 L27.8,13 L28.4,13 C29.3,13 30,13.5 30.3,14.4 Z M24.8,13 C25.7,13 26.5,13.5 26.8,14.5 C27,15 27,15.5 26.8,16 L25.7,19.9 L23.6,19.9 L24.8,15.6 L23.5,15.6 L24.2,13 L24.8,13 Z M21.3,13 C22.2,13 23,13.5 23.3,14.5 C23.5,15 23.5,15.5 23.3,16 L22.2,19.9 L20.1,19.9 L21.3,15.6 L20,15.6 L20.7,13 L21.3,13 Z M12.7,15.7 L13.3,13.9 L19.8,13.6 L19.2,15.4 L17.4,15.5 L16,20.7 L13.4,20.7 L14.8,15.6 L12.7,15.7 Z"/>
  </g>
</svg>
