<svg width="23" height="15" viewBox="0 0 23 15">
  <g fill="none">
    <path fill="#FFF" d="M11.5,0 C5.1,0 0,3.1 0,7 C0,9.1 1.5,11.1 4.1,12.4 C5.9,14 8.6,15 11.5,15 C14.4,15 17.1,14 18.9,12.4 C21.5,11.1 23,9.1 23,7 C23,3.1 17.9,0 11.5,0 Z" opacity=".4"/>
    <ellipse cx="11.5" cy="7" fill="#066A99" rx="10.5" ry="6"/>
    <ellipse cx="11.5" cy="8" fill="#A3A3A3" rx="8.5" ry="6"/>
    <polygon fill="#A80000" points="18 12 14.4 3.6 12 7.8 9.6 3.6 6 12 9 12 10.4 8.2 12 12.5 13.6 8.4 15 12"/>
  </g>
</svg>
