<svg viewBox="0 0 18 18" xmlns="http://www.w3.org/2000/svg">
 <g fill="none">
  <circle cx="9" cy="9" r="9" fill="#FFF" opacity=".4"/>
  <g transform="translate(1 1)">
   <path d="m16 8c0 4.4-3.6 8-8 8-3.1 0-5.8-1.8-7.1-4.3-0.3-0.6-0.6-1.4-0.7-2.1-0.2-0.6-0.2-1.1-0.2-1.6 0-4.4 3.6-8 8-8 3.2 0 5.9 1.8 7.2 4.5 0.3 0.7 0.5 1.4 0.7 2.2 0.1 0.4 0.1 0.8 0.1 1.3z" fill="#FFF"/>
   <path d="m8 15.5c-2.8 0-5.4-1.6-6.7-4.1-0.3-0.6-0.6-1.3-0.7-2-0.1-0.4-0.1-0.9-0.1-1.4 0-4.1 3.4-7.5 7.5-7.5 2.9 0 5.5 1.7 6.8 4.3 0.3 0.6 0.5 1.3 0.6 2 0.1 0.4 0.1 0.8 0.1 1.2 0 4.1-3.4 7.5-7.5 7.5z" fill="#073326"/>
   <path d="m8 1c2.7 0 5.2 1.6 6.3 4 0.3 0.6 0.5 1.2 0.6 1.9 0.1 0.4 0.1 0.7 0.1 1.1 0 3.9-3.1 7-7 7-2.6 0-5-1.5-6.2-3.8-0.3-0.6-0.5-1.2-0.6-1.8-0.2-0.5-0.2-0.9-0.2-1.4 0-3.9 3.1-7 7-7zm0-1c-4.4 0-8 3.6-8 8 0 0.5 0 1 0.2 1.5 0.1 0.8 0.4 1.5 0.7 2.1 1.3 2.6 4 4.4 7.1 4.4 4.4 0 8-3.6 8-8 0-0.5 0-0.9-0.1-1.3-0.1-0.8-0.3-1.5-0.7-2.2-1.3-2.7-4-4.5-7.2-4.5z" fill="#A3A3A3"/>
  </g>
  <rect x="4" y="8" width="10" height="3" fill="#FFF" opacity=".6"/>
 </g>
</svg>
