<svg width="18" height="18" viewBox="0 0 18 18">
  <g fill="none">
    <path fill="#FFF" d="M9,18 C4,18 0,14 0,9 C0,4 4,0 9,0 C14,0 18,4 18,9 C18,14 14,18 9,18 Z" opacity=".4"/>
    <circle cx="9" cy="9" r="8" fill="#A3A3A3"/>
    <path fill="#3B0622" d="M13.8,13 C13.8,13.4 13.5,13.8 13,13.8 C12.5,13.8 12.2,13.5 12.2,13 L12.2,7.9 L9.6,12.7 C9.3,13.2 8.5,13.2 8.3,12.7 L5.8,7.9 L5.8,13 C5.8,13.4 5.5,13.8 5,13.8 C4.5,13.8 4.3,13.4 4.3,13 L4,13 L4,5 L4.3,5 C4.3,4.7 4.5,4.4 4.9,4.3 C5.2,4.2 5.6,4.4 5.7,4.7 L7,7 L9,10.8 L11,7 L12.3,4.6 C12.5,4.3 12.8,4.1 13.1,4.2 C13.5,4.4 13.8,4.7 13.8,5 L14,5 L14,13 L13.8,13 Z M10.5,4 L9,6.8 L7.5,4 L10.5,4 Z"/>
  </g>
</svg>
