<svg width="28" height="28" viewBox="0 0 28 28">
  <g fill="none">
    <rect width="28" height="28" fill="#FFF" opacity=".4"/>
    <rect width="26" height="26" x="1" y="1" fill="#A3A3A3"/>
    <path fill="#52732C" d="M12.9533569,15.3465255 C15.4471243,14.0913202 20.0666667,10.8268104 20.0666667,3.86666667 L24.4,3.86666667 C24.4,3.86666667 22.0459975,14.8520115 12.8582436,15.9172053 L11.4,24.6666667 L9.66666667,24.6666667 L13.1333333,3.86666667 L14.8666667,3.86666667 L12.9533569,15.3465255 Z M7.93333333,24.6666667 L5.33333333,24.6666667 L8.8,3.86666667 L11.4,3.86666667 L7.93333333,24.6666667 Z"/>
    <path fill="#145B99" d="M25.2666667,24.6666667 C25.2666667,24.6666667 21.8,16 11.4,16 L3.6,16 L2.73333333,17.7333333 L10.0133333,17.7333333 C11.66,17.7333333 13.3933333,17.9066667 14.8666667,18.6 C16.9466667,19.64 19.2,22.0666667 19.2,24.6666667 L25.2666667,24.6666667 Z"/>
  </g>
</svg>
