<svg width="25" height="25" viewBox="0 0 25 25">
  <g fill="none">
    <circle cx="12.5" cy="12.5" r="12.5" fill="#FFF" opacity=".4"/>
    <g transform="translate(1 1)">
      <circle cx="11.5" cy="11.5" r="11.5" fill="#B3A400"/>
      <path fill="#8C0000" d="M11.5,1 C17.3,1 22,5.7 22,11.5 C22,17.3 17.3,22 11.5,22 C5.7,22 1,17.3 1,11.5 C1,5.7 5.7,1 11.5,1 Z M11.5,0 C5.1,0 0,5.1 0,11.5 C0,17.9 5.1,23 11.5,23 C17.9,23 23,17.9 23,11.5 C23,5.1 17.9,0 11.5,0 Z"/>
    </g>
    <g fill="#8C0000" transform="translate(5 6)">
      <path d="M16,12 L13,12 L11.7,4.4 L10.4,7 L9,4.1 L11,0 L14,0 L16,12 Z M10,13 L5.4,10.4 L6.5,9.8 L5.6,8.2 L6.4,3.1 L8.7,7.8 L8.9,8.3 L9.9,7.8 L10,13 Z M2,0 L5,0 L4.1,5.6 L3,12 L0,12 L2,0 Z"/>
    </g>
  </g>
</svg>
