<svg width="29" height="29" viewBox="0 0 29 29">
  <g fill="none">
    <circle cx="14.5" cy="14.5" r="14.5" fill="#FFF" opacity=".4"/>
    <path fill="#000" d="M10,26.5 C4.2,25 0,19.8 0,13.5 C0,6 6,0 13.5,0 C21,0 27,6 27,13.5 C27,19.7 22.8,25 17,26.5 C16,26.8 15,27 14,27 L14,24 L14,15 L14,12 L22,12 L22,15 L17,15 L17,23.4 C21.1,22 24,18.1 24,13.5 C24,7.7 19.3,3 13.5,3 C7.7,3 3,7.7 3,13.5 C3,18.1 5.9,22 10,23.4 L10,15 L5,15 L5,12 L13,12 L13,15 L13,27 C12,27 11,26.8 10,26.5 Z M5,8 L22,8 L22,11 L5,11 L5,8 Z" transform="translate(1 1)"/>
  </g>
</svg>
