<svg viewBox="0 0 23 23" xmlns="http://www.w3.org/2000/svg">
 <g>
  <path d="m11.5 23c6.3513 0 11.5-5.1487 11.5-11.5 0-6.3513-5.1487-11.5-11.5-11.5-6.3513 0-11.5 5.1487-11.5 11.5 0 6.3513 5.1487 11.5 11.5 11.5z" fill="#FFF" opacity=".4"/>
  <path d="m11.5 22c5.799 0 10.5-4.701 10.5-10.5 0-5.799-4.701-10.5-10.5-10.5-5.799 0-10.5 4.701-10.5 10.5 0 5.799 4.701 10.5 10.5 10.5z" fill="#162833"/>
  <path d="m13.668 4-2.1597 8.6794-2.0383-8.6794s-2.2578 0.40173-3.7383 1.753c-1.5776 1.4365-2.9368 3.64-2.7063 7.1339 0.18205 2.7635 2.2208 5.113 2.2208 5.113l4.3691-0.01219s-3.3859-1.8017-4.199-4.6382c-0.97087-3.3478 0.036098-5.4106 1.2011-6.5184 0.4733-0.41392 1.165-0.51133 1.4199 0.37739 0.87378 2.8365 3.4587 10.694 3.4587 10.694 0.01216 4.11e-5 2.415-7.9449 3.3009-10.781 0.26699-0.88872 0.95872-0.7913 1.4199-0.37739 1.165 1.1078 2.512 3.258 1.5411 6.6059-0.81308 2.8365-4.199 4.6382-4.199 4.6382l4.1991 0.012198s2.051-2.3617 2.2208-5.113c0.20631-3.4939-1.1529-5.6974-2.7427-7.1339-1.4805-1.3392-3.5683-1.753-3.5683-1.753z" fill="#FFF" opacity=".6"/>
 </g>
</svg>
