<svg viewBox="0 0 28 28" xmlns="http://www.w3.org/2000/svg">
 <g>
  <path d="m14 0.7c-2.6 0-5.2 0.8-7.4 2.2h-2.6-1.1v1.1 2.6c-1.4 2.2-2.2 4.8-2.2 7.4s0.8 5.2 2.2 7.4v2.6 1.1h1.1 2.6c2.2 1.5 4.7 2.2 7.4 2.2s5.2-0.8 7.4-2.2h2.6 1.1v-1.1-2.6c1.5-2.2 2.2-4.7 2.2-7.4s-0.8-5.2-2.2-7.4v-2.6-1.1h-1.1-2.6c-2.2-1.4-4.8-2.2-7.4-2.2z" fill="#FFF" opacity=".4"/>
  <circle cx="14" cy="14" r="12" fill="#06224D"/>
  <rect x="4" y="4" width="20" height="20" fill="#8A0000"/>
  <rect x="6" y="6" width="16" height="16" fill="#06224D"/>
  <path transform="translate(7 7)" d="m3-1.7764e-15 4 7.4 4-7.4h3v14h-3v-8.3818l-4 6.9818-4-6.9818v8.3818h-3v-14h3z" fill="#FFF" opacity=".6"/>
 </g>
</svg>
