<svg width="18" height="18" viewBox="0 0 18 18">
  <g fill="none">
    <polygon fill="#FFF" points="18 0 0 0 0 18 18 18" opacity=".4"/>
    <rect width="16" height="16" x="1" y="1" fill="#B37100"/>
    <path fill="#000" d="M11,13 L12,13 L12.6308208,13.7569849 C14.0496713,12.6446402 15,10.9519104 15,9 C15,5.7 12.3,3 9,3 C5.7,3 3,5.7 3,9 C3,10.9519104 3.9503287,12.6446402 5.36917924,13.7569849 L6,13 L7,13 L6,12 L12,12 L11,13 Z M10.8,13 L7.2,13 L5.4,16 L3.5,16 L4.73724663,14.515304 C3.08416802,13.2914163 2,11.2812292 2,9 C2,5.1 5.1,2 9,2 C12.9,2 16,5.1 16,9 C16,11.1893006 14.9127326,13.19739 13.2556663,14.5067996 L14.5,16 L12.6,16 L10.8,13 Z M6,6 L7,6 L9,9 L11,6 L12,6 L12,11 L11,11 L11,8 L9,11 L7,8 L7,11 L6,11 L6,6 Z"/>
  </g>
</svg>
