<svg height="17" viewBox="0 0 23 17" width="23"><g fill="none" fill-rule="evenodd"><path d="m3.75173932 5c1.33398937-2.94852506 4.3015512-5 7.74826068-5 3.4467095 0 6.4142713 2.05147494 7.7482607 5h3.7517393v7h-3.7517393c-1.3339894 2.9485251-4.3015512 5-7.7482607 5-3.44670948 0-6.41427131-2.0514749-7.74826068-5h-3.75173932v-7z" fill="#fff" opacity=".6"/><path d="m11.5 16c-4.14213562 0-7.5-3.3578644-7.5-7.5 0-4.14213562 3.35786438-7.5 7.5-7.5 4.1421356 0 7.5 3.35786438 7.5 7.5 0 4.1421356-3.3578644 7.5-7.5 7.5zm0-3c2.4852814 0 4.5-2.0147186 4.5-4.5 0-2.48528137-2.0147186-4.5-4.5-4.5-2.48528137 0-4.5 2.01471863-4.5 4.5 0 2.4852814 2.01471863 4.5 4.5 4.5z" fill="#b32d2d"/><path d="m1 6h21v5h-21z" fill="#032759"/></g></svg>