<svg viewBox="0 0 24 24" xmlns="http://www.w3.org/2000/svg">
 <g>
  <path d="m12 24c-6.6 0-12-5.4-12-12s5.4-12 12-12 12 5.4 12 12-5.4 12-12 12z" fill="#FFF" opacity=".4"/>
  <circle cx="12" cy="12" r="11" fill="#072A60"/>
  <path d="m12.831 11.557 4.9693 5.6431-0.8 0.6-5.05-5.7347-5.05 5.7347-0.8-0.6 5.0281-5.7099c-0.081584-0.14483-0.12813-0.31202-0.12813-0.49009 0-0.55228 0.44772-1 1-1s1 0.44772 1 1c0 0.20615-0.062381 0.39773-0.1693 0.5569z" fill="#990D28"/>
  <path d="m18 19.1c-0.6 0-1.1-0.5-1.1-1.1v-7.5l-3.8 7c-0.4 0.7-1.6 0.7-2 0l-3.8-7v7.5c0 0.6-0.5 1.1-1.1 1.1s-1.3-0.5-1.3-1.1v-12c0-0.5 0.4-1 0.9-1.1 0.4-0.1 1 0.1 1.2 0.5l5 9.1 5-9.1c0.3-0.5 0.8-0.7 1.3-0.6 0.5 0.2 0.8 0.7 0.8 1.2v12c0 0.6-0.5 1.1-1.1 1.1z" fill="#A3A3A3"/>
 </g>
</svg>
