<?xml version="1.0" encoding="UTF-8" standalone="no"?>
<svg width="15px" height="15px" viewBox="0 0 15 15" version="1.1" xmlns="http://www.w3.org/2000/svg" xmlns:xlink="http://www.w3.org/1999/xlink">
    <!-- Generator: Sketch 3.8.3 (29802) - http://www.bohemiancoding.com/sketch -->
    <title>subway-paris-s</title>
    <desc>Created with Sketch.</desc>
    <defs>
        <path d="M7.5,15 C11.6421356,15 15,11.6421356 15,7.5 C15,3.35786438 11.6421356,0 7.5,0 C3.35786438,0 0,3.35786438 0,7.5 C0,11.6421356 3.35786438,15 7.5,15 Z M7.5,14 C11.0898509,14 14,11.0898509 14,7.5 C14,3.91014913 11.0898509,1 7.5,1 C3.91014913,1 1,3.91014913 1,7.5 C1,11.0898509 3.91014913,14 7.5,14 Z" id="path-1"></path>
        <path d="M11,10.4998373 L11,4.68325532 C11,4.35007036 10.8072506,4 10.2264922,4 C9.7875029,4 9.61094557,4.18339412 9.41770119,4.55038337 L7.51774765,8.30031397 L7.50042425,8.30031397 L5.58311195,4.55038337 C5.38958474,4.18339412 5.21394661,4 4.77386135,4 C4.19356256,4 4,4.35007036 4,4.68325532 L4,10.4998373 C4,10.8174099 4.26416428,11 4.58033414,11 C4.86153901,11 5.17820382,10.8174099 5.17820382,10.4998373 L5.17820382,6.1666906 L5.19605754,6.1666906 L6.93720139,9.53341661 C7.06033899,9.76683035 7.21897191,9.90070739 7.50042425,9.90070739 C7.78138163,9.90070739 7.94001455,9.76683035 8.06336428,9.53341661 L9.8042253,6.1666906 L9.82211436,6.1666906 L9.82211436,10.4998373 C9.82211436,10.8174099 10.1382489,11 10.4197366,11 C10.7368963,11 11,10.8174099 11,10.4998373 L11,10.4998373 Z" id="path-2"></path>
    </defs>
    <g id="POI-NIght" stroke="none" stroke-width="1" fill="none" fill-rule="evenodd">
        <g id="subway-paris-s">
            <g id="Combined-Shape">
                <use fill="#14489E" xlink:href="#path-1"></use>
                <use fill-opacity="0.4" fill="#000000" xlink:href="#path-1"></use>
            </g>
            <g id="path3-copy">
                <use fill="#14489E" xlink:href="#path-2"></use>
                <use fill-opacity="0.4" fill="#000000" xlink:href="#path-2"></use>
            </g>
        </g>
    </g>
</svg>