<?xml version="1.0" encoding="UTF-8" standalone="no"?>
<svg width="26px" height="23px" viewBox="0 0 26 23" version="1.1" xmlns="http://www.w3.org/2000/svg" xmlns:xlink="http://www.w3.org/1999/xlink">
    <!-- Generator: Sketch 3.8.3 (29802) - http://www.bohemiancoding.com/sketch -->
    <title>subway-moscow-l</title>
    <desc>Created with Sketch.</desc>
    <defs>
        <polygon id="path-1" points="16.5525404 13.0806815 18.0443176 17 16.9646059 17 16.9646059 19.9965827 25.0023924 19.9965832 25.0023925 17 22.9524346 17 17.344449 2.85958339 12.9987483 11.8625228 8.66033611 2.85958339 3.0523505 17 1.00239253 17 1.00239263 19.9965832 9.04017914 19.9965827 9.04017914 17 7.96046747 17 9.45224468 13.0806815 12.9982925 19.9836482"></polygon>
    </defs>
    <g id="POI-NIght" stroke="none" stroke-width="1" fill="none" fill-rule="evenodd">
        <g id="subway-moscow-l">
            <polygon id="Shape" fill-opacity="0.1" fill="#FFFFFF" points="13.8873628 20.441419 12.9972655 22.1701425 12.1087926 20.4405835 10.040179 16.0000001 10.0401791 17 10.0401791 19.9965827 10.0401791 20.9965827 9.0401792 20.9965827 1.00239269 20.9965832 0.0023926663 20.9965833 0.00239263221 19.9965832 0.00239253007 17 0.00239249598 16 1.00239253 16 2.38592526 16.0000001 7.73077125 2.49092478 8.5713604 0.371397077 9.56119444 2.4254702 12.9972655 9.62509352 16.4438759 2.42487861 17.4341746 0.373287993 18.2740138 2.49092478 23.6834361 16.0000001 25.0023925 16 26.0023926 16 26.0023925 17 26.0023924 19.9965832 26.0023924 20.9965833 25.0023924 20.9965832 16.9646059 20.9965827 15.9646059 20.9965827 15.9646059 19.9965827 15.9646059 17 15.9646059 16"></polygon>
            <g id="Path">
                <use fill="#D73535" xlink:href="#path-1"></use>
                <use fill-opacity="0.4" fill="#000000" xlink:href="#path-1"></use>
            </g>
        </g>
    </g>
</svg>