<svg width="24" height="24" viewBox="0 0 24 24">
  <g fill="none">
    <rect width="24" height="24" fill="#FFF" opacity=".4"/>
    <rect width="22" height="22" x="1" y="1" fill="#145B99"/>
    <path fill="#FFF" d="M15.2,7.3 C13.9,8 12.8,8.7 12,9.5 C11.2,8.8 10.2,8 8.8,7.3 C0.8,2.9 2.6,10.8 5.3,17 L8.8,16.1 C8.8,16.1 3.5,8.1 7,8.1 C8.6,8.1 10.1,9 11.2,10.1 C7.8,13.6 9,16 11.7,16 C17.9,16 13.8,11.2 12.8,10.1 C13.9,9 15.3,8.1 17,8.1 C20.5,8.1 15.2,16.1 15.2,16.1 L18.7,17 C21.3,10.8 23.1,2.9 15.2,7.3 Z M13.2,13.7 C12.7,14.6 10.7,14.5 10.7,13.4 C10.7,13 11.2,12.1 11.9,11.1 C11.9,11.1 11.9,11.1 11.9,11.1 C13.4,12.3 13.6,13.2 13.2,13.7 Z" opacity=".6"/>
  </g>
</svg>
