<svg width="27" height="29" viewBox="0 0 27 29">
  <g fill="none">
    <path fill="#FFF" d="M17.8,1.5 C17.1,0.7 16.1,0.3 15,0.3 C14,0.3 13,0.7 12.3,1.4 L0.9,13 L0.2,13.7 L0.6,14 L0.2,14 L1,15.3 L1,16 L1,17 L1,18 L2,18 L2.6,18 L4.1,20.5 L4.4,21 L5,21 L7.1,21 L13.3,27.7 L14,28.5 L14.7,27.7 L25.9,16.2 C26.6,15.5 27,14.6 27,13.6 L27,13.3 C27,12.4 26.7,11.5 26.1,10.9 L17.8,1.5 Z" opacity=".4"/>
    <path fill="#A3A3A3" d="M25.3,11.5 L17,2.2 C16,1 14,1 13,2.1 L1.6,13.7 L2.1,14.2 L2.9,15 L2,15 L2.6,16 L2,16 L2,17 L3.2,17 L5,20 L7.5,20 L14,27 L25.2,15.5 C25.7,15 26,14.3 26,13.6 L26,13.3 C26,12.6 25.8,12 25.3,11.5 Z"/>
    <path fill="#A3A3A3" stroke="#097099" d="M3,13.5 L7.5,13.5 L14.5,6.3 L21.5,13.5 L14.5,20.7 L14.5,25.8 L24.9,15.2 C25.3,14.8 25.5,14.2 25.5,13.7 L25.5,13.4 C25.5,12.9 25.3,12.4 25,12 L16.7,2.7 C16.2,2 15.6,1.7 15,1.7 C14.4,1.7 13.8,1.9 13.4,2.4 L2,14"/>
    <path fill="#0E1333" d="M16.5120345,14 L12.5,14 L9.3,14 L14.5,8.9 L19.4,13.7 L17,16.2 L17,15.5 C17,14.9331062 16.8196401,14.4154014 16.5120345,14 Z M12.5,15 C13.9,15 15,16.1 15,17.5 C15,18.9 13.9,20 12.5,20 L5,20 L2,15 L12.5,15 Z M14,18 L13,16 L12,16 L12,18 L14,18 Z"/>
    <rect width="6" height="1" x="2" y="16" fill="#FFF" opacity=".6"/>
  </g>
</svg>
