<svg viewBox="0 0 18 21" xmlns="http://www.w3.org/2000/svg">
 <g>
  <path d="m18 9.4c0-2.6-1.2-4.9-3-6.5l-0.1-0.1c-1.5-1.2-3.3-1.9-5.4-1.9s-3.9 0.8-5.4 1.9l-0.1 0.2c-1.8 1.5-3 3.8-3 6.4 0 1.7 0.5 3.2 1.3 4.5h-1.6l9.4 6.2 7.8-6.2h-1.2c0.8-1.3 1.3-2.8 1.3-4.5z" fill="#FFF" opacity=".4"/>
  <circle cx="9.5" cy="9.4" r="7.5" fill="#0D1033"/>
  <path d="m6 14.9v-6l3.5 1 3.5-1v6h2l-5 4-6-4h2z" fill="#940C13"/>
  <polygon points="5 4.9 5 14.9 7 14.9 7 9.5 9.5 11.9 12 9.5 12 14.9 14 14.9 14 4.9 9.5 8.9" fill="#8F93BE"/>
 </g>
</svg>
