<svg viewBox="0 0 23 24" xmlns="http://www.w3.org/2000/svg">
 <g>
  <path d="m22 19.9-1.5-4c0.9-1.6 1.5-3.4 1.5-5.4-0.1-5.8-4.8-10.5-10.5-10.5s-10.4 4.7-10.4 10.5c0 1.7 0.4 3.2 1.1 4.6l-1.8 4.8c-0.4 0.9-0.2 2 0.3 2.8s1.4 1.3 2.4 1.3h4.8c0.6 0 1.1-0.2 1.6-0.5 0.5 0.3 1 0.5 1.6 0.5s1.1-0.2 1.6-0.5c0.5 0.3 1 0.5 1.6 0.5h4.8c1 0 1.9-0.5 2.5-1.3s0.7-1.9 0.4-2.8z" fill="#FFF" opacity=".4"/>
  <path d="m19.284 15.948 1.6164 4.3519c0.3 0.7 0.1 1.3-0.2 1.9s-0.9 0.9-1.6 0.9h-4.8c-0.6 0-1.2-0.3-1.6-0.8-0.4 0.5-1 0.8-1.6 0.8s-1.2-0.3-1.6-0.8c-0.4 0.5-1 0.8-1.6 0.8h-4.8c-0.6 0-1.2-0.3-1.6-0.9s-0.4-1.3-0.2-1.9l1.9426-5.0993c-0.79078-1.3861-1.2426-2.9906-1.2426-4.7007 0-5.2467 4.2533-9.5 9.5-9.5 5.2467 0 9.5 4.2533 9.5 9.5 0 2.0269-0.6348 3.9056-1.7164 5.4481z" fill="#3060B3"/>
  <path d="m15.2 9.5c-0.3 0-0.6 0.1-0.8 0.4l-3.2 4.2-3.3-4.2c-0.2-0.3-0.5-0.4-0.8-0.4h-0.1c-0.4 0.1-0.7 0.3-0.8 0.6l-4 10.5c-0.1 0.3-0.1 0.7 0.1 0.9s0.5 0.5 0.8 0.5h4.8c0.4 0 0.8-0.3 1-0.7l0.4-1.5 1 1.8c0.2 0.3 0.5 0.5 0.9 0.5s0.7-0.2 0.9-0.5l1-1.8 0.4 1.5c0.1 0.4 0.5 0.7 1 0.7h4.8c0.3 0 0.6-0.2 0.8-0.4 0.2-0.3 0.2-0.6 0.1-0.9l-4-10.5c-0.1-0.3-0.4-0.6-0.8-0.6-0.1-0.1-0.2-0.1-0.2-0.1z" fill="#FFF" opacity=".6"/>
  <polygon points="15.2 10.5 11.1 15.7 7.1 10.5 3.1 21 7.9 21 9 17.1 11.1 21 13.3 17.1 14.4 21 19.2 21" fill="#8A0000"/>
  <path d="m14 7v1 1h-1v-1h-3v1 1h-1v-1-1-1-1-1h-1v-1h1 1v1 1h1 2l1 1zm-2 2h1v1h-1v-1zm0-5h-1-1v-1h1 1v1z" fill="#FFF" opacity=".6"/>
 </g>
</svg>
