<?xml version="1.0" encoding="UTF-8" standalone="no"?>
<svg width="17px" height="17px" viewBox="0 0 17 17" version="1.1" xmlns="http://www.w3.org/2000/svg" xmlns:xlink="http://www.w3.org/1999/xlink" xmlns:sketch="http://www.bohemiancoding.com/sketch/ns">
    <!-- Generator: Sketch 3.4.2 (15857) - http://www.bohemiancoding.com/sketch -->
    <title>subway-s</title>
    <desc>Created with Sketch.</desc>
    <defs></defs>
    <g id="Transport" stroke="none" stroke-width="1" fill="none" fill-rule="evenodd" sketch:type="MSPage">
        <g id="subway-s" sketch:type="MSLayerGroup">
            <g id="g24875" sketch:type="MSShapeGroup">
                <circle id="Oval-1-Copy-43" opacity="0" fill="#FFFFFF" cx="8.5" cy="8.5" r="8.5"></circle>
                <circle id="Oval-1-Copy-42" fill="#0F2940" cx="8.5" cy="8.5" r="7.5"></circle>
                <path d="M6.5,4 L5,5.14285714 L5,11.4285714 C5,11.7142857 5.25,12 5.5,12 L6.75,12 L9,12 L10.25,12 L11.5,12 C11.75,12 12,11.7142857 12,11.4285714 L12,5.14285714 L10.5,4 L6.5,4 Z M7,5.14285714 L10,5.14285714 L11,5.71428571 L11,7.42857143 L6,7.42857143 L6,5.71428571 L7,5.14285714 Z M6.5,9.71428571 C6.777,9.71428571 7,9.96914286 7,10.2857143 C7,10.6022857 6.777,10.8571429 6.5,10.8571429 C6.223,10.8571429 6,10.6022857 6,10.2857143 C6,9.96914286 6.223,9.71428571 6.5,9.71428571 L6.5,9.71428571 Z M10.5,9.71428571 C10.777,9.71428571 11,9.96914286 11,10.2857143 C11,10.6022857 10.777,10.8571429 10.5,10.8571429 C10.223,10.8571429 10,10.6022857 10,10.2857143 C10,9.96914286 10.223,9.71428571 10.5,9.71428571 L10.5,9.71428571 Z" id="path24879" opacity="0.7" fill="#FFFFFF"></path>
            </g>
        </g>
    </g>
</svg>