<svg viewBox="0 0 25 25" xmlns="http://www.w3.org/2000/svg">
 <g fill="none">
  <circle cx="12.5" cy="12.5" r="12.5" fill="#FFF" opacity=".4"/>
  <g transform="translate(1 1)">
   <circle cx="11.5" cy="11.5" r="11.5" fill="#B3A400"/>
   <path d="m11.5 1c5.8 0 10.5 4.7 10.5 10.5s-4.7 10.5-10.5 10.5-10.5-4.7-10.5-10.5 4.7-10.5 10.5-10.5zm0-1c-6.4 0-11.5 5.1-11.5 11.5s5.1 11.5 11.5 11.5 11.5-5.1 11.5-11.5-5.1-11.5-11.5-11.5z" fill="#8C0000"/>
  </g>
  <g transform="translate(5 6)" fill="#8C0000">
   <path d="m16 12h-3l-1.3-7.6-1.3 2.6-1.4-2.9 2-4.1h3l2 12zm-6 1-4.6-2.6 1.1-0.6-0.9-1.6 0.8-5.1 2.3 4.7 0.2 0.5 1-0.5 0.1 5.2zm-8-13h3l-0.9 5.6-1.1 6.4h-3l2-12z"/>
  </g>
 </g>
</svg>
