<svg viewBox="0 0 17 13" xmlns="http://www.w3.org/2000/svg">
 <g fill-rule="evenodd">
  <path d="m2.4982 4c0.97956-2.349 3.2979-4 6.0018-4 2.704 0 5.0223 1.651 6.0018 4h2.4982v5h-2.4982c-0.97956 2.349-3.2979 4-6.0018 4-2.7039 0-5.0223-1.651-6.0018-4h-2.4982v-5z" fill="#fff" opacity=".6"/>
  <path d="m8.5 12c-3.0376 0-5.5-2.4624-5.5-5.5s2.4624-5.5 5.5-5.5c3.0376 0 5.5 2.4624 5.5 5.5s-2.4624 5.5-5.5 5.5zm0-2c1.933 0 3.5-1.567 3.5-3.5s-1.567-3.5-3.5-3.5c-1.933 0-3.5 1.567-3.5 3.5s1.567 3.5 3.5 3.5z" fill="#b32d2d"/>
  <path d="m1 5h15v3h-15z" fill="#032759"/>
 </g>
</svg>
