<svg viewBox="0 0 18 18" xmlns="http://www.w3.org/2000/svg">
 <g>
  <circle cx="9" cy="9" r="9" fill="#FFF" opacity=".4"/>
  <circle cx="9" cy="9" r="8" fill="#0D3C73"/>
  <path d="m8.1739 6.065c-1.1431-1.1843-2.7701-1.9263-4.5739-1.9263h-0.6v-1.2774h0.6c2.1136 0 4.0289 0.85125 5.4 2.2218 1.3711-1.3706 3.2864-2.2218 5.4-2.2218h0.6v1.2774h-0.6c-1.8039 0-3.4308 0.74191-4.5739 1.9263 0.32527 0.46267 0.59759 0.96339 0.80836 1.4939 0.97041-1.6209 2.744-2.7088 4.7656-2.7088h1.6v1.3h-1.6c-2.341 0-4.25 1.909-4.25 4.25v6.6h-1.3v-6.6c0-0.11149 0.0033089-0.22222 0.0098337-0.33211-0.023718-1.0676-0.33418-2.0685-0.85983-2.9331-0.52565 0.86454-0.83612 1.8655-0.85983 2.9331 0.0065248 0.10989 0.0098337 0.22062 0.0098337 0.33211v6.6h-1.3v-6.6c0-2.341-1.909-4.25-4.25-4.25h-1.6v-1.3h1.6c2.0216 0 3.7952 1.088 4.7656 2.7088 0.21076-0.53049 0.48309-1.0312 0.80836-1.4939z" fill="#9EB1C7"/>
 </g>
</svg>
