<svg viewBox="0 0 24 25" xmlns="http://www.w3.org/2000/svg">
 <g>
  <path d="m12 0.3c-6.6 0-12 5.4-12 12s5.4 12 12 12 12-5.4 12-12-5.4-12-12-12z" fill="#FFF" opacity=".4"/>
  <path d="m12 1.3c-6.1 0-11 4.9-11 11s4.9 11 11 11 11-4.9 11-11-4.9-11-11-11z" fill="#2E7D32"/>
  <circle cx="12" cy="12.3" r="10" fill="#A3A3A3"/>
  <path d="m6.9143 10.3h-1.9143v-2h0.8 1.5l3.9 7h-1.5l-2.7857-5zm4 0h-1.9143v-2h0.8 1.5l3.9 7h-1.5l-2.7857-5zm4 0h-1.9143v-2h0.8 1.5l3.9 7h-1.5l-2.7857-5zm-8.9143 4c-0.55228 0-1-0.44772-1-1s0.44772-1 1-1 1 0.44772 1 1-0.44772 1-1 1z" fill="#06224D"/>
 </g>
</svg>
