<svg width="28" height="28" viewBox="0 0 28 28">
  <g fill="none">
    <rect width="28" height="28" fill="#FFF" opacity=".4"/>
    <rect width="26" height="26" x="1" y="1" fill="#999"/>
    <path fill="#1D3099" d="M25.1,12 C24.1,10.8 22.7,10.1 21.2,9.7 C20.5,6.4 17.5,4 14,4 C10.5,4 7.5,6.4 6.8,9.7 C5.3,10 3.9,10.8 2.9,12 C1.5,13.5 0.8,15.6 1.1,17.7 C1.3,19.6 2.4,21.3 3.8,22.4 C4,22.5 4.2,22.7 4.3,22.8 C4.4,22.8 4.4,22.9 4.5,22.9 C4.5,22.9 4.5,22.9 4.5,22.9 C5.3,23.4 6.3,23.1 6.7,22.3 L10.5,15.5 L13.9,19.8 L17.3,15.5 L21.1,22.3 C21.6,23.1 22.6,23.4 23.4,22.9 C23.4,22.9 23.5,22.9 23.5,22.8 C23.6,22.8 23.6,22.7 23.7,22.7 C23.8,22.6 23.9,22.6 23.9,22.5 C25.5,21.4 26.6,19.6 26.8,17.6 C27.2,15.6 26.5,13.5 25.1,12 Z M25.2,17.4 C25,18.9 24.2,20.1 23.1,21 L17.6,12.1 L14,17.2 L10.4,12.1 L4.7,20.9 C3.7,20 2.9,18.8 2.8,17.4 C2.4,14 5,11.2 8.4,11.2 C8.4,8.1 10.9,5.7 14,5.7 C17.1,5.7 19.6,8.2 19.6,11.2 C23,11.2 25.6,14.1 25.2,17.4 Z"/>
  </g>
</svg>
