<svg width="29" height="22" viewBox="0 0 29 22">
  <g fill="none">
    <path fill="#FFF" d="M14.5,0.8 C6.9,0.8 0.8,6.3 0.8,13 C0.8,15.7 1.8,18.3 3.7,20.5 C4.1,21 4.7,21.3 5.4,21.3 L23.8,21.3 C24.4,21.3 25.1,21 25.5,20.5 C27.4,18.3 28.4,15.8 28.4,13 C28.2,6.3 22.1,0.8 14.5,0.8 Z" opacity=".4"/>
    <g transform="translate(1 1)">
      <path fill="#A3A3A3" d="M25,12 C25,14.3 24.1,16.3 22.7,18 L4.3,18 C2.9,16.3 2,14.3 2,12 C2,6.5 7.2,2 13.5,2 C19.8,2 25,6.5 25,12 Z"/>
      <path fill="#8C0B12" d="M13.5,2 C19.8,2 25,6.5 25,12 C25,14.3 24.1,16.3 22.7,18 L4.3,18 C2.9,16.3 2,14.3 2,12 C2,6.5 7.2,2 13.5,2 Z M13.5,0.8 C6.5,0.8 0.8,5.8 0.8,12 C0.8,14.5 1.7,16.8 3.4,18.8 C3.6,19.1 4,19.2 4.3,19.2 L22.7,19.2 C23.1,19.2 23.4,19 23.6,18.8 C25.3,16.8 26.2,14.5 26.2,12 C26.2,5.8 20.5,0.8 13.5,0.8 Z"/>
    </g>
    <polygon fill="#8C0B12" points="14.4 11.8 11.7 6.4 7.3 17 10.6 17 12.3 12.5 14.4 15.9 16.5 12.5 18.3 17 21.4 17 17.1 6.4"/>
  </g>
</svg>
