<svg width="27" height="28" viewBox="0 0 27 28">
  <g fill="none">
    <path fill="#FFF" d="M17.4,0 L12,0 L1,0 L0,0 L0,1 L0,5 L0,9 L0,27 L0,28 L1,28 L5,28 L8,28 L12,28 L15,28 L19,28 L22,28 L24,28 L26,28 L27,28 L27,27 L27,9.6 C27,4.3 22.7,0 17.4,0 Z" opacity=".4"/>
    <polygon fill="#E0C199" points="1 1 1 27 24 27 24 8 18.5 2.5 12 1"/>
    <path fill="#B36500" d="M26,27 L22,27 L22,9.6 C22,7 20,5 17.4,5 L1,5 L1,1 L17.4,1 C22.2,1 26,4.8 26,9.6 L26,27 Z M19,27 L15,27 L15,9 L16.9,9 C18,9 19,10 19,11.1 L19,27 Z M12,27 L8,27 L8,9 L9.9,9 C11,9 12,10 12,11.1 L12,27 Z M5,27 L1,27 L1,9 L2.9,9 C4,9 5,10 5,11.1 L5,27 Z"/>
  </g>
</svg>
