<svg width="30" height="30" viewBox="0 0 30 30">
  <g fill="none">
    <polygon fill="#FFF" points="28.7 14.3 25 10.6 25 6 25 5 24 5 19.4 5 15.7 1.4 15 .7 14.3 1.4 10.7 5 6 5 5 5 5 6 5 10.7 1.4 14.3 .7 15 1.4 15.7 5 19.4 5 24 5 25 6 25 10.6 25 14.3 28.7 15 29.4 15.7 28.7 19.4 25 24 25 25 25 25 24 25 19.4 28.7 15.7 29.4 15" opacity=".4"/>
    <path fill="#B38900" d="M18.91542,6 L24,6 L24,11.08458 L27.97243,15.05701 L24,19.02944 L24,24 L19.02944,24 L15.0325,27.99694 L11.03556,24 L6,24 L6,18.96444 L2.09257,15.05701 L6,11.14958 L6,6 L11.14958,6 L15.0325,2.11708 L18.91542,6 Z"/>
    <g transform="translate(6 6)">
      <circle cx="9" cy="9" r="9" fill="#374073"/>
      <path fill="#A3A3A3" d="M9,0.5 C13.7,0.5 17.5,4.3 17.5,9 C17.5,13.7 13.7,17.5 9,17.5 C4.3,17.5 0.5,13.7 0.5,9 C0.5,4.3 4.3,0.5 9,0.5 Z M9,0 C4,0 0,4 0,9 C0,14 4,18 9,18 C14,18 18,14 18,9 C18,4 14,0 9,0 Z"/>
    </g>
    <path fill="#898EAB" d="M15,17.8 C12.9,17.8 11.2,16.1 11.2,14 C11.2,11.9 12.9,10.2 15,10.2 C17.1,10.2 18.8,11.9 18.8,14 C18.8,16.1 17.1,17.8 15,17.8 Z M15,10.8 C16.8,10.8 18.3,12.3 18.3,14.1 C18.3,15.9 16.8,17.4 15,17.4 C13.2,17.4 11.7,15.9 11.7,14.1 C11.7,12.3 13.2,10.8 15,10.8 Z M8,19 L22,19 L22,20 L8,20 L8,19 Z M10,21 L20,21 L20,22 L10,22 L10,21 Z"/>
    <path fill="#AFB2C7" d="M21,15 L19,15 C19,12.8 17.2,11 15,11 C12.8,11 11,12.8 11,15 L9,15 C9,11.7 11.7,9 15,9 C18.3,9 21,11.7 21,15 Z"/>
  </g>
</svg>
