<svg width="21" height="19" viewBox="0 0 21 19">
  <g fill="none">
    <path fill="#FFF" d="M19.0714286,3 L19.3,1 L2.1,1 L1.4,8 L9.9,8 L9.9,7.8 C9.9,7.7 9.8,7.6 9.8,7.6 L8.1,7 C7.4,6.7 6.9,6 6.9,5.1 C6.9,4.6 7,4.1 7.3,3.8 C7.6,3.3 8.1,3 8.6,3 L19.0714286,3 Z M19.9636523,4 L8.6,4 C8.46010362,4 8.28024061,4.10991629 8.15749293,4.31449576 L8.0941556,4.42005796 L8.00710678,4.50710678 C7.95977527,4.5544383 7.9,4.76962925 7.9,5.1 C7.9,5.56913504 8.13362433,5.92644284 8.43282012,6.05700967 L10.3467158,6.73250227 L10.5071068,6.89289322 C10.5624543,6.94824077 10.6219591,7.01766295 10.6820503,7.1077998 C10.8127799,7.30389423 10.9,7.52194445 10.9,7.8 L10.9,9 L0.295012438,9 L1.19501244,0 L20.4207951,0 L19.9636523,4 Z M18.8428571,5 L8.8,5 L8.8,5.2 C8.8,5.3 8.8,5.4 8.9,5.4 L10.5,6 C11.2,6.3 11.7,7 11.7,7.9 C11.7,8.4 11.6,8.9 11.3,9.2 C11,9.7 10.5,10 10,10 L6.18,10 L5.7,18 L13.2,18 L13.8,8 L18.5,8 L18.8428571,5 Z M14.1417984,19 L4.63820162,19 L5.23820162,9 L10,9 C10.1398964,9 10.3197594,8.89008371 10.4425071,8.68550424 L10.5058444,8.57994204 L10.5928932,8.49289322 C10.6402247,8.4455617 10.7,8.23037075 10.7,7.9 C10.7,7.43086496 10.4663757,7.07355716 10.1488766,6.93632918 L8.63603372,6.36901311 C8.268218,6.28033928 7.98222523,6.00895336 7.8638167,5.65372777 C7.80560795,5.4791015 7.8,5.3949823 7.8,5.2 L7.8,4 L19.9636523,4 L19.3922237,9 L14.7417984,9 L14.1417984,19 Z" opacity=".4"/>
    <path fill="#000D1A" d="M19.0714286,3 L8.6,3 C8.1,3 7.6,3.3 7.3,3.8 C7,4.1 6.9,4.6 6.9,5.1 C6.9,6 7.4,6.7 8.1,7 L9.8,7.6 C9.8,7.6 9.9,7.7 9.9,7.8 C9.9,7.9 9.9,8 9.9,8 L6.3,8 L1.4,8 L2.1,1 L19.3,1 L19.0714286,3 Z M18.8428571,5 L18.5,8 L13.8,8 L13.2,18 L5.7,18 L6.18,10 L10,10 C10.5,10 11,9.7 11.3,9.2 C11.6,8.9 11.7,8.4 11.7,7.9 C11.7,7 11.2,6.3 10.5,6 L8.9,5.4 C8.8,5.4 8.8,5.3 8.8,5.2 C8.8,5.1 8.8,5 8.8,5 L18.8428571,5 Z"/>
  </g>
</svg>
