<svg width="18" height="18" viewBox="0 0 18 18">
  <g fill="none">
    <rect width="18" height="18" fill="#FFF" opacity=".4"/>
    <rect width="16" height="16" x="1" y="1" fill="#0D1033"/>
    <path fill="#B36302" d="M4,10 L7,10 L7,17 L4,17 L4,10 Z M11,10 L14,10 L14,17 L11,17 L11,10 Z"/>
    <path fill="#A3A3A3" d="M10,13 L11,13 L11,17 L10,17 L10,16 L9,16 L9,15 L8,15 L8,14 L7,14 L7,13 L6,13 L6,12 L5,12 L5,11 L4,11 L4,10 L5,10 L6,10 L7,10 L8,10 L8,11 L9,11 L9,12 L10,12 L10,13 Z M16,12 L17,12 L17,16 L16,16 L16,15 L15,15 L15,14 L14,14 L14,13 L13,13 L13,12 L12,12 L12,11 L11,11 L11,10 L12,10 L13,10 L14,10 L15,10 L15,11 L16,11 L16,12 Z"/>
  </g>
</svg>
