<svg width="25" height="25" viewBox="0 0 25 25">
  <g fill="none">
    <circle cx="12.6" cy="12.4" r="12" fill="#FFF" opacity=".4"/>
    <circle cx="12.6" cy="12.4" r="11" fill="#B36500"/>
    <circle cx="12.6" cy="12.3" r="8.6" fill="#000"/>
    <circle cx="12.6" cy="12.4" r="5" fill="#A3A3A3"/>
    <path fill="#B36500" d="M13.5,13.65 C13.630558,13.65 13.75,13.530558 13.75,13.4 C13.75,13.2469168 13.6781943,13.1424722 13.562,13.116 L11.0843179,12.3892052 C10.2679359,12.0626524 9.75,11.3563761 9.75,10.5 C9.75,9.43055796 10.630558,8.55 11.7,8.55 L14.6,8.55 L14.6,10.25 L11.7,10.25 C11.569442,10.25 11.45,10.369442 11.45,10.5 C11.45,10.634533 11.5226301,10.733574 11.638,10.784 L13.9666987,11.4665064 C14.871081,11.6473829 15.45,12.4894468 15.45,13.4 C15.45,14.469442 14.569442,15.35 13.5,15.35 L9.75,15.35 L9.75,13.5 L11.45,13.5 L11.45,13.65 L13.5,13.65 Z"/>
  </g>
</svg>
