<svg width="18" height="18" viewBox="0 0 18 18">
  <g fill="none">
    <rect width="18" height="18" fill="#FFF" opacity=".4"/>
    <rect width="16" height="16" x="1" y="1" fill="#2238B3"/>
    <path fill="#FFF" d="M15.8,4 C8.9,10.3 14.6,9.1 14.6,9.2 C14.6,11.5 12.9,12.1 12.9,12.1 C10.6,8.9 9.4,13.4 9,15.3 C9,15.5 8.7,15.5 8.7,15.3 C8.3,13.3 7.1,8.9 4.8,12.1 C4.8,12.1 3.1,11.5 3.1,9.2 C3.1,9.2 8.9,10.3 2,4 C2,4 9.5,6.8 7.2,2.8 C7.2,2.8 7.2,2.3 8.9,2.3 C10.6,2.3 10.6,2.9 10.6,2.9 C8.3,6.9 15.8,4 15.8,4 Z M6.2,6 C8.4,7.6 8.9,10.2 8.9,10.2 C9.4,7.1 11,6 11,6 L6.2,6 Z" opacity=".6"/>
  </g>
</svg>
