<?xml version="1.0" encoding="UTF-8" standalone="no"?>
<svg width="27px" height="21px" viewBox="0 0 27 21" version="1.1" xmlns="http://www.w3.org/2000/svg" xmlns:xlink="http://www.w3.org/1999/xlink">
    <!-- Generator: Sketch 3.8.3 (29802) - http://www.bohemiancoding.com/sketch -->
    <title>subway-london-l</title>
    <desc>Created with Sketch.</desc>
    <defs>
        <path d="M13.5,20 C18.7467051,20 23,15.7467051 23,10.5 C23,5.25329488 18.7467051,1 13.5,1 C8.25329488,1 4,5.25329488 4,10.5 C4,15.7467051 8.25329488,20 13.5,20 Z M13.5,16 C16.5375661,16 19,13.5375661 19,10.5 C19,7.46243388 16.5375661,5 13.5,5 C10.4624339,5 8,7.46243388 8,10.5 C8,13.5375661 10.4624339,16 13.5,16 Z" id="path-1"></path>
        <rect id="path-2" x="1" y="8" width="25" height="5"></rect>
    </defs>
    <g id="POI-NIght" stroke="none" stroke-width="1" fill="none" fill-rule="evenodd">
        <g id="subway-london-l">
            <path d="M23.40253,14 C21.9611026,18.0781733 18.0717659,21 13.5,21 C8.92823411,21 5.0388974,18.0781733 3.59746998,14 L0,14 L0,7 L3.59746998,7 C5.0388974,2.9218267 8.92823411,0 13.5,0 C18.0717659,0 21.9611026,2.9218267 23.40253,7 L27,7 L27,14 L23.40253,14 Z M16.3286672,14 C15.5558041,14.6253999 14.5716483,15 13.5,15 C12.4283517,15 11.4441959,14.6253999 10.6713328,14 L16.3286672,14 Z M16.3286672,7 C15.5558041,6.37460006 14.5716483,6 13.5,6 C12.4283517,6 11.4441959,6.37460006 10.6713328,7 L16.3286672,7 Z" id="Combined-Shape" fill-opacity="0.1" fill="#FFFFFF"></path>
            <g id="Oval-196">
                <use fill="#E12524" xlink:href="#path-1"></use>
                <use fill-opacity="0.4" fill="#000000" xlink:href="#path-1"></use>
            </g>
            <g id="Rectangle-326">
                <use fill="#043A86" xlink:href="#path-2"></use>
                <use fill-opacity="0.4" fill="#000000" xlink:href="#path-2"></use>
            </g>
        </g>
    </g>
</svg>