<svg width="28" height="28" viewBox="0 0 28 28">
  <g fill="none">
    <path fill="#FFF" d="M14,0 C6.3,0 0,6.3 0,14 C0,21.7 6.3,28 14,28 C21.7,28 28,21.7 28,14 C28,6.3 21.7,0 14,0 Z" opacity=".4"/>
    <circle cx="14" cy="14" r="12" fill="#999"/>
    <path fill="#0B0E33" d="M14,3 C20.1,3 25,7.9 25,14 C25,20.1 20.1,25 14,25 C7.9,25 3,20.1 3,14 C3,7.9 7.9,3 14,3 Z M14,1 C6.8,1 1,6.8 1,14 C1,21.2 6.8,27 14,27 C21.2,27 27,21.2 27,14 C27,6.8 21.2,1 14,1 Z"/>
    <path fill="#0B0E33" d="M12,14.975 C11.875,14.875 11.8,14.7 11.8,14.5 C11.8,14.3 11.875,14.125 12,14.025 L12,11.5 C12,11.5 12.1,10.8 12.5,11 L15.5,11 C15.9,10.8 16.2,11.1 16.2,11.5 C16.2,11.9 15.9,12.2 15.5,12 L13,12 L13,14 L14.5,14 C14.9,13.8 15.2,14.1 15.2,14.5 C15.2,14.9 14.9,15.2 14.5,15 L13,15 L13,17 L15.5,17 C15.9,16.8 16.2,17.1 16.2,17.5 C16.2,17.9 15.9,18.2 15.5,18 L12.5,18 C12.1,18.2 12,17.5 12,17.5 L12,14.975 Z M7.6616811,15 L7,15 L7,17.5 C7.2,17.9 6.9,18.2 6.5,18.2 C6.1,18.2 5.8,17.9 6,17.5 L6,11.6 C6,11.3 6.3,11 6.6,11 L6.9,11 L8.8,11 C9.8,11 10.8,11.7 10.9,12.7 C11.0872225,13.8233351 10.222877,14.8590395 9.12728508,14.9867915 L11,17.2 C11.2,17.5 11.2,17.9 10.9,18.1 C10.8,18.1 10.7,18.2 10.5,18.2 C10.3,18.2 10.1,18.1 10,18 L7.8,15.4 C7.71774939,15.2766241 7.6693246,15.1363353 7.6616811,15 Z M18.6616811,15 L18,15 L18,17.5 C18.2,17.9 17.9,18.2 17.5,18.2 C17.1,18.2 16.8,17.9 17,17.5 L17,11.6 C17,11.3 17.3,11 17.6,11 L17.9,11 L19.8,11 C20.8,11 21.8,11.7 21.9,12.7 C22.0872225,13.8233351 21.222877,14.8590395 20.1272851,14.9867915 L22,17.2 C22.2,17.5 22.2,17.9 21.9,18.1 C21.8,18.1 21.7,18.2 21.5,18.2 C21.3,18.2 21.1,18.1 21,18 L18.8,15.4 C18.7177494,15.2766241 18.6693246,15.1363353 18.6616811,15 Z M20,14 C20.5,13.8 20.8,13.5 20.8,13 C20.8,12.5 20.5,12.1 20,12 L18,12 L18,14 L20,14 Z M9,14 C9.5,13.8 9.8,13.5 9.8,13 C9.8,12.5 9.5,12.1 9,12 L7,12 L7,14 L9,14 Z"/>
  </g>
</svg>
