<svg viewBox="0 0 28 21" xmlns="http://www.w3.org/2000/svg">
 <g>
  <path d="m25.6 0h-8.7-3.9-4.6-0.1-5.9c-1.3 0-2.4 1.1-2.4 2.4v16.1c0 1.4 1.1 2.5 2.4 2.5h6 2.9 6.1 2.5 5.6c1.3 0 2.4-1.1 2.4-2.4v-16.2c0.1-1.3-1-2.4-2.3-2.4z" fill="#FFF" opacity=".4"/>
  <path d="m27 2.4v16.1c0 0.8-0.6 1.4-1.4 1.4h-17.2c-0.8 0.1-1.4-0.5-1.4-1.3v-16.2c0-0.8 0.6-1.4 1.4-1.4h17.1c0.9 0 1.5 0.6 1.5 1.4z" fill="#A63614"/>
  <path d="m23.2 13.7-5.8 6.3h-15c-0.8 0-1.4-0.6-1.4-1.4v-16.2c0-0.8 0.6-1.4 1.4-1.4h10.6v0.9l-6.5 6.3 7.4 4.5 9.3 1z" fill="#06224D"/>
  <path d="m17.9 14h-9.6l-6-6h-0.3v-1h0.3l6-6h8.6l-7.6 6h2.1 8.5l6 6h0.1v1h-0.1l-6 6h-8.5l8.5-6h-2zm-1.4333-1h3.4333l-7.0833-5h-3.5167l7.1667 5z" fill="#A3A3A3"/>
 </g>
</svg>
