<svg viewBox="0 0 24 20" xmlns="http://www.w3.org/2000/svg">
 <g>
  <path d="m23.3 13.7-3.1-12.3c-0.2-0.8-0.9-1.4-1.8-1.4h-1.5-0.9-0.8-1.5-3.8-1.5-0.8-0.8-1.6c-0.8 0-1.5 0.6-1.7 1.4l-3.2 12.3c-0.1 0.5 0 1.1 0.3 1.6s0.9 0.7 1.5 0.7h2l1.7 3.4c0.2 0.4 0.6 0.6 0.9 0.6h10.2c0.4 0 0.7-0.2 0.9-0.5l1.8-3.5h2c0.6 0 1.1-0.3 1.4-0.7s0.5-1 0.3-1.6z" fill="#FFF" opacity=".4"/>
  <path d="m4.7317 15h-2.6317c-0.3 0-0.5-0.1-0.7-0.3-0.1-0.2-0.2-0.5-0.1-0.7l3.1-12.4c0.1-0.4 0.4-0.6 0.8-0.6h1.6 0.8 8.4 0.9 1.5c0.4 0 0.7 0.3 0.8 0.6l3.2 12.4c0.1 0.2 0.1 0.5-0.1 0.7-0.1 0.2-0.3 0.3-0.6 0.3h-2.7672l-2.0328 4h-10.2l-1.9683-4z"/>
  <polygon points="18.2 2 16.7 2 15.1 2 13.7 2 11.8 9.4 9.9 2 8.5 2 6.9 2 5.4 2 2.4 14 5.4 14 7.7 5.2 9.9 14 10.7 14 13 14 13.7 14 15.9 5.2 18.2 14 21.3 14" fill="#FFEA00" opacity=".6"/>
 </g>
</svg>
