<svg width="28" height="28" viewBox="0 0 28 28">
  <g fill="none">
    <path fill="#FFF" d="M14,28 C6.3,28 0,21.7 0,14 C0,6.3 6.3,0 14,0 C21.7,0 28,6.3 28,14 C28,21.7 21.7,28 14,28 Z" opacity=".4"/>
    <circle cx="14" cy="14" r="13" fill="#8C0000"/>
    <path fill="#FFF" d="M23.8,12 C23.4,11.4 22.8,11 22,11 C21.2,11 20.6,11.4 20.3,12 L17.7,12 C17.4,11.4 16.7,11 16,11 C15.3,11 14.6,11.4 14.3,12 L13,12 L13,11 L10,11 L10,22 L13,22 L13,13.9 C13,13.4 13.4,13 13.9,13 L14,13 L15.1,13 C15.6,13 16,13.4 16,13.9 L16,22 L19,22 L19,13.9 C19,13.4 19.4,13 19.9,13 L20,13 L21.1,13 C21.6,13 22,13.4 22,13.9 L22,22 L25,22 L25,13.2 C25,12.6 24.4,12 23.8,12 Z" opacity=".5"/>
  </g>
</svg>
