<svg width="19" height="19" viewBox="0 0 19 19">
  <g fill="none">
    <circle cx="9.5" cy="9.5" r="9.5" fill="#FFF" opacity=".4"/>
    <circle cx="9.5" cy="9.5" r="8.5" fill="#0A234D"/>
    <circle cx="9.5" cy="9.5" r="7.5" fill="#A3A3A3"/>
    <path fill="#0A234D" d="M14,13.3569336 L14,5.87847113 C14,5.45009046 13.7521793,5 13.00549,5 C12.4410752,5 12.2140729,5.23579244 11.9656158,5.70763576 L9.52281841,10.5289751 L9.50054546,10.5289751 L7.03542965,5.70763576 C6.78660896,5.23579244 6.56078849,5 5.9949646,5 C5.24886615,5 5,5.45009046 5,5.87847113 L5,13.3569336 C5,13.7652414 5.33963979,14 5.7461439,14 C6.10769301,14 6.51483348,13.7652414 6.51483348,13.3569336 L6.51483348,7.78574505 L6.53778826,7.78574505 L8.77640178,12.1143928 C8.93472156,12.4144962 9.13867817,12.5866238 9.50054546,12.5866238 C9.86177638,12.5866238 10.065733,12.4144962 10.2243255,12.1143928 L12.4625754,7.78574505 L12.4855756,7.78574505 L12.4855756,13.3569336 C12.4855756,13.7652414 12.8920343,14 13.253947,14 C13.6617239,14 14,13.7652414 14,13.3569336 Z"/>
  </g>
</svg>
