<svg viewBox="0 0 14 13" xmlns="http://www.w3.org/2000/svg">
 <g>
  <path d="m12.8 2 0.1-1h-11l-0.5 5h5.1s0.1-0.1 0.1-0.4c0-0.2-0.1-0.4-0.2-0.4l-1.3-0.5c-0.5-0.2-0.8-0.7-0.8-1.3 0-0.3 0.1-0.7 0.3-0.9 0.2-0.3 0.5-0.5 0.8-0.5h7.4zm-5.2 3.6c0 0.25514-0.041647 0.4842-0.12152 0.68389-0.0697 0.17425-0.16429 0.31614-0.27137 0.42322l-0.29289 0.29289h-6.6192l0.7-7h13.01l-0.3 3h-8.305c0.073362 0 0.064948 0.0053544 0.03205 0.0547l-0.12494 0.15241c0.032705-0.032705-0.0071068 0.096683-0.0071068 0.19289 0 0.2127 0.073011 0.33217 0.15898 0.36665l1.1825 0.45481c0.66853 0.12418 0.95852 0.76635 0.95852 1.3785zm5.1-2.6h-7.3s-0.1 0.1-0.1 0.4c0 0.2 0.1 0.4 0.2 0.4l1.4 0.5c0.4 0.2 0.7 0.7 0.8 1.3 0 0.4-0.1 0.8-0.4 1.1-0.2 0.2-0.5 0.3-0.8 0.3h-2.15l-0.25 5h5l0.3-6h3l0.3-3zm-2.6488 10h-7.0025l0.35-7h3.1012c0.061208 0 0.099831-0.014045 0.092893-0.0071068 0.057314-0.057314 0.095187-0.15476 0.10473-0.31102-0.053449-0.24168-0.15117-0.41254-0.22095-0.47119l-1.2018-0.42922c-0.68016-0.11667-0.97487-0.7643-0.97487-1.3815 0-0.25514 0.041647-0.4842 0.12152-0.68389 0.0697-0.17425 0.16429-0.31614 0.27137-0.42322l0.29289-0.29289h8.8192l-0.5 5h-2.9537l-0.3 6z" fill="#FFF" opacity=".4"/>
  <path d="m12.8 2h-7.4c-0.3 0-0.6 0.2-0.8 0.5-0.2 0.2-0.3 0.6-0.3 0.9 0 0.6 0.3 1.1 0.8 1.3l1.3 0.5c0.1 0 0.2 0.2 0.2 0.4 0 0.3-0.1 0.4-0.1 0.4h-2.1-3l0.5-5h11l-0.1 1zm-0.1 1-0.3 3h-3l-0.3 6h-5l0.25-5h2.15c0.3 0 0.6-0.1 0.8-0.3 0.3-0.3 0.4-0.7 0.4-1.1-0.1-0.6-0.4-1.1-0.8-1.3l-1.4-0.5c-0.1 0-0.2-0.2-0.2-0.4 0-0.3 0.1-0.4 0.1-0.4h7.3z" fill="#000D1A"/>
 </g>
</svg>
