<svg viewBox="0 0 31 17" xmlns="http://www.w3.org/2000/svg">
 <g>
  <polygon points="30 0 1 0 0 0 0 1 0 16 0 17 1 17 30 17 31 17 31 16 31 1 31 0" fill="#FFF" opacity=".4"/>
  <rect x="1" y="1" width="29" height="15" fill="#A3A3A3"/>
  <path d="m10.986 10h-2.3286l-0.65714 2h-1.6l2.4-7h1.5l-0.98571 3h2.3571l1.0286-3h1.5l-2.3 7h-1.6l0.68571-2zm5.6571-3h-2.4429l0.8-2h6.2l-0.8 2h-2.1571l-1.6429 5h-1.6l1.6429-5zm5.7571 1.5-1.2 3.5h-1.5l2.3-7h1.6l0.47174 4.7174 2.6283-4.7174h1.5 0.8l-1.6 7h-1.5l1-4.6667-2.6 4.6667h-1.5l-0.4-3.5z"/>
  <path d="m26 15h-13l1-1h13l-1 1zm-5-11h-19l1-2h19l-1 2z" fill="#940C13"/>
 </g>
</svg>
