<svg width="24" height="24" viewBox="0 0 24 24">
  <g fill="none">
    <circle cx="12" cy="12" r="11" fill="#C41F38"/>
    <path fill="#FFF" d="M12,1.2 C18,1.2 22.8,6 22.8,12 C22.8,18 18,22.8 12,22.8 C6,22.8 1.2,18 1.2,12 C1.2,6 6,1.2 12,1.2 Z M12,0 C5.4,0 0,5.4 0,12 C0,18.6 5.4,24 12,24 C18.6,24 24,18.6 24,12 C24,5.4 18.6,0 12,0 Z" opacity=".4"/>
    <circle cx="12" cy="12" r="11" fill="#145B99"/>
    <g fill="#FFF" opacity=".6" transform="translate(3 7)">
      <path d="M3.6,7.4 C3.9,7.4 4.1,7.3 4.2,7.2 C4.3,7.1 4.5,6.8 4.5,6.6 L6.3,6.6 C6.2,7.3 5.9,7.9 5.3,8.3 C4.8,8.7 4.1,8.9 3.3,8.9 C2.4,8.9 1.7,8.6 1.2,8 C0.7,7.4 0.6,6.6 0.7,5.7 L0.7,5.6 C0.8,4.6 1.2,3.8 1.8,3.3 C2.4,2.8 3.2,2.4 4.1,2.4 C4.9,2.4 5.5,2.6 5.9,3.1 C6.3,3.6 6.5,4.2 6.3,4.9 L4.8,4.9 C4.8,4.6 4.8,4.3 4.7,4.2 C4.6,4 4.4,3.9 4.1,3.9 C3.7,3.9 3.5,4.1 3.2,4.4 C3,4.6 2.9,5 2.8,5.6 L2.8,5.7 C2.7,6.2 2.7,6.7 2.8,7 C2.9,7.3 3.2,7.4 3.6,7.4 Z M10.2,0.9 L10,2.5 L11,2.5 L10.8,3.9 L9.8,3.9 L9.4,6.8 C9.4,7 9.4,7.2 9.5,7.3 C9.6,7.4 9.7,7.4 9.9,7.4 C10,7.4 10.1,7.4 10.1,7.4 C10.1,7.4 10.2,7.4 10.3,7.4 L10.2,8.9 C10,9 9.8,9 9.7,9 C9.6,9 9.3,9 9.1,9 C8.5,9 8,8.8 7.7,8.5 C7.4,8.2 7.3,7.6 7.4,6.9 L7.8,4 L6.9,4 L7.1,2.6 L8,2.6 L8.2,1 L10.2,1 L10.2,0.9 Z M14.6,8.8 C14.5,8.7 14.5,8.5 14.5,8.4 C14.5,8.2 14.5,8.1 14.5,7.9 C14.3,8.2 14,8.5 13.7,8.7 C13.4,8.9 13.1,9 12.7,9 C12.1,9 11.6,8.8 11.3,8.5 C11,8.2 10.9,7.7 10.9,7.1 C11,6.5 11.3,6 11.8,5.6 C12.3,5.2 13,5 14,5 L14.8,5 L14.9,4.6 C14.9,4.3 14.9,4.1 14.8,4 C14.7,3.9 14.5,3.8 14.2,3.8 C14,3.8 13.8,3.9 13.7,4 C13.6,4.1 13.5,4.3 13.5,4.5 L11.6,4.5 C11.7,3.9 12,3.4 12.5,3 C13.1,2.6 13.8,2.4 14.6,2.4 C15.4,2.4 15.9,2.6 16.4,3 C16.9,3.4 17,3.9 16.9,4.7 L16.5,7 C16.4,7.3 16.4,7.7 16.4,7.9 C16.4,8.2 16.5,8.5 16.5,8.8 L14.6,8.8 Z M13.4,7.5 C13.6,7.5 13.8,7.4 14.1,7.3 C14.4,7.2 14.5,7.1 14.6,6.9 L14.7,6.1 L13.9,6.1 C13.6,6.1 13.4,6.2 13.2,6.3 C13,6.5 12.9,6.6 12.9,6.9 C12.9,7.1 12.9,7.2 13,7.3 C13.1,7.4 13.2,7.5 13.4,7.5 Z"/>
    </g>
  </g>
</svg>
