<svg width="23" height="23" viewBox="0 0 23 23">
  <g fill="none">
    <path fill="#FFF" d="M11.5,23 C17.8512746,23 23,17.8512746 23,11.5 C23,5.14872538 17.8512746,0 11.5,0 C5.14872538,0 0,5.14872538 0,11.5 C0,17.8512746 5.14872538,23 11.5,23 Z" opacity=".4"/>
    <path fill="#162833" d="M11.5,22 C17.2989899,22 22,17.2989899 22,11.5 C22,5.70101013 17.2989899,1 11.5,1 C5.70101013,1 1,5.70101013 1,11.5 C1,17.2989899 5.70101013,22 11.5,22 Z"/>
    <path fill="#FFF" d="M13.6682315,4 L11.5084999,12.6793939 L9.47019475,4 C9.47019475,4 7.21244002,4.40172644 5.73188959,5.75304551 C4.15424017,7.18952169 2.79505891,9.39302087 3.02562994,12.8869133 C3.20767629,15.6503698 5.24647648,17.9999511 5.24647648,17.9999511 L9.61559614,17.9877612 C9.61559614,17.9877612 6.22972625,16.1860382 5.41663441,13.3495158 C4.44576727,10.0017055 5.45273253,7.93896291 6.61776458,6.83114721 C7.09106698,6.41722302 7.78278878,6.31981836 8.03762215,7.20853493 C8.91139815,10.0450574 11.4963404,17.9025464 11.4963404,17.9025464 C11.5084999,17.9025875 13.9113314,9.95759848 14.7972103,7.12107599 C15.064204,6.23235942 15.7559336,6.32977195 16.2170757,6.74368827 C17.3821077,7.85151184 18.7290721,10.0017055 17.7581971,13.3495568 C16.945114,16.1860793 13.5592441,17.9878022 13.5592441,17.9878022 L17.7583638,18 C17.7583638,18 19.8093156,15.6382699 19.9792103,12.8869543 C20.185519,9.39302087 18.826289,7.18952169 17.2365289,5.75304551 C15.7559863,4.41387526 13.6682315,4 13.6682315,4 Z" opacity=".6"/>
  </g>
</svg>
