<svg width="24" height="25" viewBox="0 0 24 25">
  <g fill="none">
    <path fill="#FFF" d="M12,0.7 C5.4,0.7 0,6 0,12.7 C0,19.4 5.4,24.7 12,24.7 C18.6,24.7 24,19.3 24,12.7 C24,6.1 18.6,0.7 12,0.7 Z" opacity=".4"/>
    <circle cx="12" cy="13" r="10" fill="#A3A3A3"/>
    <path fill="#781322" d="M14.9,11 L10.9,15 L21.0081133,15 C21.1985766,14.2633227 21.3,13.4925281 21.3,12.7 C21.3,12.1200791 21.2456942,11.5517951 21.1419344,11 L14.9,11 Z M12.5,11 L2.85806563,11 C2.75430583,11.5517951 2.7,12.1200791 2.7,12.7 C2.7,13.4925281 2.80142343,14.2633227 2.99188669,15 L8.5,15 L12.5,11 Z M6.5,17 L3.76699036,17 C5.33048245,19.9613391 8.44681327,22 12,22 C15.5531867,22 18.6695175,19.9613391 20.2330096,17 L8.9,17 L6.5,17 Z M14.5,9 L16.9,9 L20.522811,9 C19.0802528,5.71754741 15.788435,3.4 12,3.4 C8.21156496,3.4 4.91974722,5.71754741 3.47718903,9 L14.5,9 Z M12,1.7 C18.1,1.7 23,6.6 23,12.7 C23,18.8 18.1,23.7 12,23.7 C5.9,23.7 1,18.8 1,12.7 C1,6.6 5.9,1.7 12,1.7 Z"/>
  </g>
</svg>
