<svg viewBox="0 0 23 23" xmlns="http://www.w3.org/2000/svg">
 <g>
  <rect width="23" height="23" fill="#FFF" opacity=".4"/>
  <rect x="1" y="1" width="21" height="21" fill="#B3A400"/>
  <path d="m15.801 15.637 0.19947 0.2633 0.7 1 1.3 1.8c0 0.1 0 0.3-0.2 0.3h-1.2c-0.1 0-0.2 0-0.3-0.1l-0.66316-0.9h-8.0737l-0.66316 0.9c-0.1 0.1-0.2 0.1-0.3 0.1h-1.2c-0.1 0-0.2-0.2-0.1-0.3l1.7-2.3 0.3-0.4 0.2008-0.26505c-0.875-0.44811-1.5008-1.4351-1.5008-2.7349v-2.8c0-0.9 0.1-1.7 0.2-2.6 0.3-1.2 0.7-2.8 1.4-3.8 0.4-0.5 1-0.8 1.6-0.8h2 0.6 2c0.6 0 1.2 0.3 1.6 0.8 0.4 0.6 0.7 1.5 1 2.4 0.4 1.5 0.6 3 0.6 4.5v2.7c0 0.9331-0.48865 1.7774-1.1995 2.2367zm-1.6005 0.3633h-2.4-0.6-2.2l-0.7 1h6.6l-0.7-1zm-0.3-12h-4.5c-1.5 0-1.8 4-1.9 6 0 0.6 0.4 1 0.9 1h6.5c0.5 0 0.9-0.5 0.9-1-0.1-2-0.4-6-1.9-6zm1.1 10c0.55228 0 1-0.44772 1-1s-0.44772-1-1-1-1 0.44772-1 1 0.44772 1 1 1zm-7 0c0.55228 0 1-0.44772 1-1s-0.44772-1-1-1-1 0.44772-1 1 0.44772 1 1 1z"/>
  <polygon points="12.8 5 12.5 5.4 11.5 7.1 10.5 5.4 10.3 5 9 5 9 10 10.5 10 10.5 7.4 11.5 9.1 12.5 7.4 12.5 10 14 10 14 5" fill="#262626"/>
 </g>
</svg>
