<svg width="19" height="20" viewBox="0 0 19 20">
  <g fill="none">
    <path fill="#FFF" d="M18.3,7.5 L13,1.7 C12.5,1.1 11.7,0.8 10.8,0.8 C10,0.8 9.2,1.1 8.7,1.6 L1.5,8.8 L0.7,9.5 L1.3,10 L0.1,10 L1.1,11.6 L3.1,14.6 L3.5,15 L4,15 L6,15 L9.2,18.9 L9.9,19.7 L10.7,18.9 L18.2,11.5 C18.7,11 19,10.2 19,9.5 L19,9.4 C19,8.7 18.7,8 18.3,7.5 Z" opacity=".4"/>
    <path fill="#A3A3A3" d="M17.5,8.1 L12.2,2.3 C11.5,1.5 10.1,1.5 9.3,2.2 L2.2,9.5 L3.9,11 L2,11 L4,14 L6.5,14 L10,18.3 L17.5,10.9 C17.9,10.6 18,10.1 18,9.6 L18,9.4 C18,8.9 17.8,8.5 17.5,8.1 Z"/>
    <path fill="#A3A3A3" stroke="#097099" d="M3,9.5 L6,9.5 L10.5,5.1 L15,9.5 L10.5,13.9 L10.5,17.1 L17.1,10.6 C17.4,10.3 17.5,10 17.5,9.7 L17.5,9.4 C17.5,9.1 17.4,8.8 17.2,8.5 L11.9,2.7 C11.6,2.4 11.2,2.2 10.8,2.2 C10.4,2.2 10,2.4 9.8,2.6 L2.5,9.8"/>
    <path fill="#0E1333" d="M4.11104,6 L3.42919,6.68185 L1.74734,5 L3,5 L3,6 L4,6 L4.11104,6 Z M5,5.11104 L5,5 L4,5 L4,4 L1,4 L1,4.25266 L0.24724,3.4999 L3.42919,0.31795 L6.61114,3.4999 L5,5.11104 Z" transform="translate(7 6)"/>
    <path fill="#0E1333" d="M9.5,14 L4,14 L2,11 L9.5,11 C10.3,11 11,11.7 11,12.5 C11,13.3 10.3,14 9.5,14 Z"/>
    <rect width="1" height="1" x="8" y="12" fill="#9EA0AD"/>
  </g>
</svg>
