<svg width="24" height="17" viewBox="0 0 24 17">
  <g fill="none">
    <path fill="#FFF" d="M22.8,7.5 L21.2,5.9 C20.9,5.6 20.6,5.5 20.2,5.5 C20.1,5.5 20,5.5 19.9,5.5 L19.9,5.4 L19.9,3.4 C19.9,2.7 19.3,2 18.5,2 C18.2,2 17.8,2.1 17.6,2.3 L16.3,0.9 C16.1,0.6 15.7,0.5 15.3,0.5 L15.2,0.5 L15.1,0.5 C15,0.5 14.6,0.6 14.3,0.9 L11.8,3.4 L9.5,1 C9.2,0.7 8.9,0.6 8.5,0.6 C8.1,0.6 7.8,0.8 7.5,1.1 L6.3,2.4 C6.1,2.3 5.8,2.1 5.5,2.1 C4.8,2.1 4.1,2.7 4.1,3.5 L4.1,5.5 L4.1,5.6 C4,5.6 3.8,5.5 3.6,5.5 C3.2,5.5 2.9,5.6 2.6,5.9 L1,7.5 C0.5,8.1 0.5,8.9 1,9.5 L7.5,16 C7.8,16.3 8.1,16.4 8.5,16.4 C8.9,16.4 9.3,16.2 9.5,16 L11.6,13.6 C11.8,13.8 12.1,13.9 12.5,13.9 C13.1,13.9 13.7,13.5 13.8,12.9 L13.8,14.6 C13.8,14.9 13.9,15.1 14,15.3 C14,15.6 14.2,15.8 14.4,16 C14.7,16.3 15,16.4 15.4,16.4 C15.8,16.4 16.1,16.3 16.4,16 L22.9,9.5 C23.3,8.9 23.3,8.1 22.8,7.5 Z" opacity=".4"/>
    <path fill="#781322" d="M22.1,8.3 L20.5,6.7 C20.4,6.6 20.1,6.6 20,6.7 C19.9,6.8 19.9,7.1 20,7.2 L21.4,8.6 L16.3,13.7 C16.3,13.6 16.3,13.6 16.3,13.6 L16.3,10.4 C16.3,9.3 15.8,8.1 15,7.4 L13.3,5.8 C13.1,5.6 12.9,5.5 12.6,5.4 L15.4,2.6 L17.8,5.2 L16.6,5.2 C16.4,5.2 16.2,5.4 16.2,5.6 C16.2,5.8 16.4,6 16.6,6 L18.6,6 C18.7,6 18.8,6 18.8,5.9 C18.8,5.9 18.8,5.9 18.8,5.9 C18.8,5.9 18.8,5.9 18.8,5.9 C18.9,5.8 18.9,5.8 18.9,5.7 C18.9,5.7 18.9,5.7 18.9,5.7 C18.9,5.7 18.9,5.7 18.9,5.7 L18.9,3.7 C18.9,3.5 18.7,3.3 18.5,3.3 C18.3,3.3 18.1,3.5 18.1,3.7 L18.1,4.8 L15.5,2 C15.4,1.9 15.3,1.9 15.2,1.9 C15.1,1.9 15,1.9 14.9,2 L11.7,5.2 L8.8,1.8 C8.7,1.7 8.6,1.6 8.5,1.6 C8.4,1.6 8.3,1.6 8.2,1.7 L5.9,4.5 L5.9,3.5 C5.9,3.3 5.7,3.1 5.5,3.1 C5.3,3.1 5.1,3.3 5.1,3.5 L5.1,5.5 C5.1,5.5 5.1,5.5 5.1,5.5 C5.1,5.5 5.1,5.5 5.1,5.5 C5.1,5.6 5.1,5.7 5.2,5.7 C5.2,5.7 5.2,5.7 5.2,5.7 C5.2,5.7 5.2,5.7 5.2,5.7 C5.3,5.7 5.3,5.8 5.4,5.8 L7.4,5.8 C7.6,5.8 7.8,5.6 7.8,5.4 C7.8,5.2 7.7,5.1 7.5,5.1 L6.3,5.1 L8.6,2.5 L11.4,5.3 C11.2,5.4 11.1,5.5 10.9,5.6 L9.1,7.3 C8.3,8.1 7.8,9.2 7.8,10.3 L7.8,13.8 L2.5,8.5 L3.9,7.1 C4,7 4,6.8 3.9,6.6 C3.8,6.5 3.5,6.5 3.4,6.6 L1.8,8.3 C1.7,8.4 1.7,8.7 1.8,8.8 L8.3,15.3 C8.4,15.4 8.5,15.4 8.6,15.4 C8.6,15.4 8.6,15.4 8.6,15.4 C8.7,15.4 8.8,15.4 8.9,15.3 L12.3,11.5 L12.3,12.6 C12.3,12.8 12.5,13 12.7,13 C12.9,13 13.1,12.8 13.1,12.6 L13.1,10.6 C13.1,10.6 13.1,10.6 13.1,10.6 C13.1,10.6 13.1,10.6 13.1,10.6 C13.1,10.5 13.1,10.4 13,10.4 C13,10.4 13,10.4 13,10.4 C13,10.4 13,10.4 13,10.4 C12.9,10.4 12.9,10.3 12.8,10.3 L10.8,10.3 C10.6,10.3 10.4,10.5 10.4,10.7 C10.4,10.9 10.6,11.1 10.8,11.1 L12,11.1 L9.5,13.9 L9.5,10.5 C9.5,9.7 9.8,9 10.4,8.4 L12.2,6.7 C12.3,6.6 12.4,6.5 12.6,6.8 L14.3,8.4 C14.9,8.9 15.2,9.7 15.2,10.5 L15.2,14.7 C15.2,14.9 15.4,15.4 15.5,15.5 C15.6,15.6 15.7,15.6 15.8,15.6 C15.9,15.6 16,15.6 16.1,15.5 L22.6,9 C22.2,8.6 22.2,8.4 22.1,8.3 Z"/>
  </g>
</svg>
