<svg width="24" height="24" viewBox="0 0 24 24">
  <g fill="none">
    <rect width="24" height="24" fill="#FFF" opacity=".4"/>
    <rect width="22" height="22" x="1" y="1" fill="#A3A3A3"/>
    <path fill="#52732C" d="M9.94189542,13.0152941 C11.9204369,12.0083366 15.5833333,9.40324092 15.5833333,3.91666667 L19.0666667,3.91666667 C19.0666667,3.91666667 17.1577565,12.6312567 9.86510692,13.4760252 L8.70833333,20.4166667 L7.33333333,20.4166667 L10.0833333,3.91666667 L11.4583333,3.91666667 L9.94189542,13.0152941 Z M5.95833333,20.4166667 L3.94166667,20.4166667 L6.69166667,3.91666667 L8.70833333,3.91666667 L5.95833333,20.4166667 Z"/>
    <path fill="#145B99" d="M20.075,20.4166667 C20.075,20.4166667 17.1416667,13.0833333 8.34166667,13.0833333 L2.56666667,13.0833333 L1.83333333,14.9166667 L7.60833333,14.9166667 C8.89166667,14.9166667 10.2666667,15.0083333 11.4583333,15.65 C13.1083333,16.475 14.9416667,18.4 14.9416667,20.5083333 L20.075,20.5083333 L20.075,20.4166667 Z"/>
  </g>
</svg>
