<svg viewBox="0 0 29 12" xmlns="http://www.w3.org/2000/svg">
 <g fill="none">
  <path d="m27.9 7.3-1.9-5.3c-0.4-1.2-1.5-2-2.8-2h-1.2-2.9-1.1c-1.3 0-2.4 0.8-2.8 2l-0.6 1.7-0.1 0.3-0.1-0.4-0.6-1.6c-0.4-1.2-1.5-2-2.8-2h-1.1-2.9-1.2c-1.2 0-2.3 0.8-2.8 2l-1.9 5.3c-0.4 1.1-0.2 2.3 0.4 3.2 0.7 0.9 1.8 1.5 3 1.5 1.5 0 2.8-0.9 3.3-2.3l0.6-1.7 0.7 2c0.3 0.7 0.8 1.3 1.4 1.6 0.4 0.2 0.9 0.4 1.4 0.4h1.1 3 1.1c1.3 0 2.4-0.8 2.8-2l0.1-0.2 0.6-1.8 0.6 1.7c0.5 1.4 1.8 2.3 3.3 2.3 1.2 0 2.2-0.6 2.9-1.5s0.9-2.2 0.5-3.2z" fill="#FFF" opacity=".4"/>
  <g transform="translate(1 1)">
   <path d="m23.5 10c1.8 0 3-1.7 2.4-3.4l-1.9-5.3c-0.3-0.8-1-1.3-1.8-1.3h-4l3 8.3c0.3 1 1.3 1.7 2.3 1.7z" fill="#008035"/>
   <path d="m21 0-3 8.5-0.1 0.2c-0.3 0.8-1 1.3-1.9 1.3h-1l-1.5-4 1.1-3 0.6-1.7c0.3-0.8 1-1.3 1.8-1.3h4z" fill="#A60056"/>
   <path d="m13.5 6-1.5 4h-1.1c-0.3 0-0.7-0.1-0.9-0.2-0.4-0.2-0.8-0.6-0.9-1.1l-3.1-8.7h4c0.8 0 1.6 0.5 1.9 1.3l0.5 1.7 1.1 3z" fill="#145B99"/>
   <path d="m3.5 10c-1.8 0-3-1.7-2.4-3.4l1.9-5.3c0.3-0.8 1-1.3 1.8-1.3h4l-3 8.3c-0.3 1-1.3 1.7-2.3 1.7z" fill="#B3A400"/>
   <polygon points="15 10 12 10 13.5 6" fill="#340E4D"/>
  </g>
 </g>
</svg>
