<svg width="18" height="18" viewBox="0 0 18 18">
  <g fill="none">
    <circle cx="9" cy="9" r="9" fill="#FFF" opacity=".4"/>
    <g transform="translate(1 1)">
      <path fill="#FFF" d="M16,8 C16,12.4 12.4,16 8,16 C4.9,16 2.2,14.2 0.9,11.7 C0.6,11.1 0.3,10.3 0.2,9.6 C0,9 0,8.5 0,8 C0,3.6 3.6,0 8,0 C11.2,0 13.9,1.8 15.2,4.5 C15.5,5.2 15.7,5.9 15.9,6.7 C16,7.1 16,7.5 16,8 Z"/>
      <path fill="#073326" d="M8,15.5 C5.2,15.5 2.6,13.9 1.3,11.4 C1,10.8 0.7,10.1 0.6,9.4 C0.5,9 0.5,8.5 0.5,8 C0.5,3.9 3.9,0.5 8,0.5 C10.9,0.5 13.5,2.2 14.8,4.8 C15.1,5.4 15.3,6.1 15.4,6.8 C15.5,7.2 15.5,7.6 15.5,8 C15.5,12.1 12.1,15.5 8,15.5 Z"/>
      <path fill="#A3A3A3" d="M8,1 C10.7,1 13.2,2.6 14.3,5 C14.6,5.6 14.8,6.2 14.9,6.9 C15,7.3 15,7.6 15,8 C15,11.9 11.9,15 8,15 C5.4,15 3,13.5 1.8,11.2 C1.5,10.6 1.3,10 1.2,9.4 C1,8.9 1,8.5 1,8 C1,4.1 4.1,1 8,1 Z M8,0 C3.6,0 0,3.6 0,8 C0,8.5 0,9 0.2,9.5 C0.3,10.3 0.6,11 0.9,11.6 C2.2,14.2 4.9,16 8,16 C12.4,16 16,12.4 16,8 C16,7.5 16,7.1 15.9,6.7 C15.8,5.9 15.6,5.2 15.2,4.5 C13.9,1.8 11.2,0 8,0 Z"/>
    </g>
    <rect width="10" height="3" x="4" y="8" fill="#FFF" opacity=".6"/>
  </g>
</svg>
