<svg width="24" height="24" viewBox="0 0 24 24">
  <g fill="none">
    <rect width="24" height="24" fill="#FFF" opacity=".4"/>
    <rect width="22" height="22" x="1" y="1" fill="#A3A3A3"/>
    <path fill="#340E4D" d="M10.5464027,13.8097784 C11.4760724,13.4570691 12.3099091,13.2696661 13.0376312,13.1869078 C13.0374331,13.1863337 13.0372351,13.1857595 13.037037,13.1851852 C13.0423254,13.1851852 13.0476137,13.1851852 13.0529016,13.1851848 C13.3026634,13.157226 13.5398658,13.141594 13.7640907,13.1358212 C13.7944303,13.1286704 13.823734,13.1204837 13.8518519,13.1111111 C13.8541943,13.1187241 13.856546,13.1263372 13.858907,13.1339502 C15.5227276,13.1111639 16.4444444,13.6296296 16.4444444,13.6296296 C15.5387961,13.5367426 14.7423458,13.5384939 14.0208607,13.6166261 C14.3080986,14.4130847 14.6962067,15.2183618 15.1851852,16.0740741 C15.0504688,16.0067159 13.9969847,15.4493482 13.2500861,13.7335967 C12.232008,13.9340731 11.3574886,14.2949676 10.5068304,14.7524416 C10.4373666,15.6717081 10.274721,16.6788939 10,17.7777778 C10,17.7777778 8.44444444,22.6666667 6,21.2592593 C6,21.2592593 7.7037037,21.1111111 8.66666667,18.2962963 C9.62962963,15.7037037 9.85185185,13.3333333 9.33333333,10.962963 C9.32278445,10.9418652 9.31373784,10.9192652 9.30576562,10.8955908 C7.28510165,11.0177444 5.85185185,10.4444444 5.85185185,10.4444444 C6.86903558,10.6624124 8.02874938,10.6665852 9.19119182,10.4569629 C9.18924469,10.452735 9.18724353,10.4485611 9.18518519,10.4444444 C9.48148148,10.3703704 9.7037037,10.2962963 10,10.2222222 C10.0019479,10.2280659 10.0038958,10.2338583 10.0058423,10.2396023 C10.0281804,10.2338089 10.0509007,10.2280156 10.0740741,10.2222222 C10.5185185,10.0740741 11.037037,9.92592593 11.4814815,9.7037037 C11.5555556,10 11.5555556,10.2962963 11.5555556,10.5185185 C11.1111111,10.6666667 10.6666667,10.7407407 10.2962963,10.8148148 C10.2498989,10.8264142 10.2035015,10.8361971 10.1571042,10.8444482 C10.4097578,11.6863092 10.5542409,12.6718092 10.5464027,13.8097784 Z M13.4179728,8.63181705 C14.4165727,7.94185643 15.3772943,7.05255851 16.1481481,5.92592593 C17.9259259,3.55555556 17.1851852,2.07407407 17.1851852,2.07407407 C19.6296296,3.40740741 16.3703704,7.33333333 16.3703704,7.33333333 C15.3753254,8.38691031 14.3340295,9.16298117 13.3561228,9.69809268 C13.3457454,10.4314445 13.4020496,11.2068857 13.5555556,12 C13.2592593,12 12.962963,12.0740741 12.7407407,12.0740741 C12.4444444,10.7407407 12.3703704,8.96296296 12.7407407,6.74074074 C12.7407407,6.74074074 13.9259259,1.77777778 16.4444444,3.03703704 C16.4444444,3.03703704 14.8148148,3.33333333 13.9259259,6.14814815 C13.7118052,6.82619709 13.5148774,7.67617483 13.4179728,8.63181705 Z M8.37037037,14.4444444 C7.11111111,14.8148148 3.03703704,18.7407407 5.25925926,20.3703704 C5.25925926,20.3703704 4.74074074,18.8148148 6.88888889,16.7407407 C7.25925926,16.3703704 7.7037037,16 8.22222222,15.6296296 C8.2962963,15.2592593 8.37037037,14.8148148 8.37037037,14.4444444 Z M9.03703704,9.62962963 C8.74074074,8.66666667 8.2962963,7.7037037 7.7037037,6.74074074 C7.85185185,6.81481481 8.96296296,7.55555556 9.77777778,9.40740741 L9.03703704,9.62962963 Z M6.51851852,6.74074074 C4,7.40740741 5.25925926,9.85185185 5.25925926,9.85185185 C5.25925926,9.85185185 4,9.25925926 4,8 C4,6.14814815 6.51851852,6.74074074 6.51851852,6.74074074 Z M17.037037,12.962963 C18.2962963,13.6296296 19.5555556,15.4814815 18.2962963,16.6666667 C16.7407407,18.2222222 15.1851852,16.6666667 15.1851852,16.6666667 C15.1851852,16.6666667 16.2962963,17.1851852 17.037037,16.6666667 C18.8888889,15.4814815 17.037037,12.962963 17.037037,12.962963 Z"/>
    <path fill="#52732C" d="M15.4814815,5.7037037 C15.2769316,5.7037037 15.1111111,5.53788324 15.1111111,5.33333333 C15.1111111,5.12878343 15.2769316,4.96296296 15.4814815,4.96296296 C15.6860314,4.96296296 15.8518519,5.12878343 15.8518519,5.33333333 C15.8518519,5.53788324 15.6860314,5.7037037 15.4814815,5.7037037 Z M11.037037,12.3703704 C10.8324871,12.3703704 10.6666667,12.2045499 10.6666667,12 C10.6666667,11.7954501 10.8324871,11.6296296 11.037037,11.6296296 C11.2415869,11.6296296 11.4074074,11.7954501 11.4074074,12 C11.4074074,12.2045499 11.2415869,12.3703704 11.037037,12.3703704 Z M16.2222222,15.3333333 C16.0176723,15.3333333 15.8518519,15.1675129 15.8518519,14.962963 C15.8518519,14.7584131 16.0176723,14.5925926 16.2222222,14.5925926 C16.4267721,14.5925926 16.5925926,14.7584131 16.5925926,14.962963 C16.5925926,15.1675129 16.4267721,15.3333333 16.2222222,15.3333333 Z M7.33333333,19.037037 C7.12878343,19.037037 6.96296296,18.8712166 6.96296296,18.6666667 C6.96296296,18.4621168 7.12878343,18.2962963 7.33333333,18.2962963 C7.53788324,18.2962963 7.7037037,18.4621168 7.7037037,18.6666667 C7.7037037,18.8712166 7.53788324,19.037037 7.33333333,19.037037 Z M6.59259259,9.40740741 C6.38804269,9.40740741 6.22222222,9.24158694 6.22222222,9.03703704 C6.22222222,8.83248713 6.38804269,8.66666667 6.59259259,8.66666667 C6.7971425,8.66666667 6.96296296,8.83248713 6.96296296,9.03703704 C6.96296296,9.24158694 6.7971425,9.40740741 6.59259259,9.40740741 Z"/>
  </g>
</svg>
