<svg viewBox="0 0 24 18" xmlns="http://www.w3.org/2000/svg">
 <g fill="none">
  <path d="m11.5 0c-6.4 0-11.5 4.7-11.5 10.5 0 2 0.6 4 1.8 5.7 0.4 0.5 1 0.9 1.7 0.9h16.1c0.7 0 1.3-0.3 1.7-0.9 1.2-1.7 1.8-3.7 1.8-5.7-0.1-5.8-5.2-10.5-11.6-10.5z" fill="#FFF" opacity=".4"/>
  <g transform="translate(1 1)">
   <path d="m20 9.5c0 1.6-0.5 3.2-1.4 4.5h-16.2c-0.9-1.3-1.4-2.9-1.4-4.5 0-4.7 4.3-8.5 9.5-8.5s9.5 3.8 9.5 8.5z" fill="#A3A3A3"/>
   <path d="m10.5 1c5.3 0 9.5 3.8 9.5 8.5 0 1.6-0.5 3.2-1.4 4.5h-16.2c-0.9-1.3-1.4-2.9-1.4-4.5 0-4.7 4.3-8.5 9.5-8.5zm0-1c-5.8 0-10.5 4.2-10.5 9.5 0 1.8 0.6 3.6 1.6 5.1 0.2 0.3 0.5 0.4 0.8 0.4h16.1c0.3 0 0.7-0.2 0.9-0.4 1.1-1.5 1.6-3.3 1.6-5.1 0-5.3-4.7-9.5-10.5-9.5z" fill="#8C0B12"/>
  </g>
  <polygon points="11.4 9.7 9.2 5.2 5.6 14 8.3 14 9.7 10.3 11.4 13.1 13.1 10.3 14.7 14 17.2 14 13.6 5.2" fill="#8C0B12"/>
 </g>
</svg>
