<svg viewBox="0 0 29 22" xmlns="http://www.w3.org/2000/svg">
 <g>
  <path d="m18 0c-4.3 0-8 2.4-9.8 6h-7.2c-0.4 0-0.8 0.2-0.9 0.6-0.1 0.4-0.1 0.8 0.2 1.1 1.8 1.8 4.2 2.9 6.7 3.2v0.1h-2c-0.4 0-0.8 0.2-0.9 0.6s-0.1 0.8 0.2 1.1c1 1 2.2 1.8 3.5 2.4 1.6 4 5.6 6.9 10.2 6.9 6.1 0 11-4.9 11-11s-4.9-11-11-11z" fill="#FFF" opacity=".4"/>
  <path d="m28 11c0 5.5-4.5 10-10 10-3.7 0-6.9-2-8.7-5h2.4c1.5 1.8 3.7 3 6.2 3 4.4 0 8-3.6 8-8s-3.6-8-8-8c-2.5 0-4.8 1.2-6.2 3h-2.4c1.7-3 5-5 8.7-5 5.5 0 10 4.5 10 10z"/>
  <path d="m1 7h15c1.7 0 3 1.3 3 3l-2 2-1-2h-7.8c-2.7 0-5.3-1.1-7.2-3zm4 5h8c1.7 0 3 1.3 3 3l-2 2-1-2h-0.8c-2.7 0-5.3-1.1-7.2-3z" fill="#800006"/>
 </g>
</svg>
