<svg width="29" height="18" viewBox="0 0 29 18">
  <g fill="none">
    <path fill="#FFF" d="M21.7,3 C21.7,3 21.6,3 21.6,3 L22.4,1.5 L23,0 L21.4,0 L15.7,0 C14,0 12.4,0.9 11.5,2.3 L8,7.6 C7.4,8.5 6.4,9 5.3,9 L3.6,9 L3,9 L2.7,9.5 L0.7,13.5 L0,15 L1.6,15 L7.3,15 C7.3,15 7.4,15 7.4,15 L6.6,16.5 L6,18 L7.6,18 L13.3,18 C15,18 16.6,17.1 17.5,15.7 L21,10.4 C21.6,9.5 22.6,9 23.7,9 L25.5,9 L26,9 L26.3,8.5 L28.3,4.5 L29,3 L27.4,3 L21.7,3 Z" opacity=".4"/>
    <path fill="#06224D" d="M19.725257,4.54948603 C20.3382857,4.19823202 21.0549834,4 21.8,4 L27.5,4 L25.5,8 L23.7,8 C22.3,8 21,8.7 20.1,9.9 L16.6,15.2 C15.9,16.3 14.6,17 13.2,17 L7.5,17 L9.23703471,13.5259306 C8.65553112,13.8300098 7.98990772,14 7.3,14 L1.6,14 L3.6,10 L5.3,10 C6.7,10 8,9.3 8.8,8.2 L12.4,2.8 C13.1,1.7 14.4,1 15.8,1 L21.5,1 L19.725257,4.54948603 Z M19.0911129,5 L17.7,5 C16.3,5 15,5.7 14.2,6.9 L10.7,12.2 C10.5103542,12.4980148 10.276669,12.76667 10.0088871,13 L11.3,13 C12.7,13 14,12.3 14.9,11.1 L18.4,5.8 C18.5896458,5.50198517 18.823331,5.23332996 19.0911129,5 Z"/>
  </g>
</svg>
