<svg viewBox="0 0 18 18" xmlns="http://www.w3.org/2000/svg">
 <g>
  <path d="m9 18c-5 0-9-4-9-9s4-9 9-9 9 4 9 9-4 9-9 9z" fill="#FFF" opacity=".4"/>
  <circle cx="9" cy="9" r="8" fill="#072A60"/>
  <path d="m12.3 10.4-0.8-0.9-1-1.2-0.7-0.7c0.1-0.2 0.2-0.4 0.2-0.6 0-0.5-0.5-1-1-1s-1 0.5-1 1c0 0.2 0.1 0.4 0.2 0.5l-0.6 0.7-1.1 1.2-0.8 0.9-1.4 1.7v0.6l0.4 0.4 1-1.2 1.3-1.5 1-1.2 0.9-1 0.9 1 1.1 1.2 1.3 1.5 1 1.1 0.5-0.5v-0.4l-1.4-1.6z" fill="#990D28"/>
  <path d="m13.8 5v8c0 0.4-0.3 0.8-0.8 0.8s-0.8-0.3-0.8-0.8v-5.1l-0.8 1.5-0.5 0.9-1.3 2.3c-0.3 0.5-1.1 0.5-1.3 0l-1.3-2.4-0.5-0.8-0.7-1.5v5.1c0 0.4-0.3 0.8-0.8 0.8s-0.7-0.4-0.7-0.8v-8c0-0.3 0.2-0.6 0.6-0.7 0.3-0.1 0.7 0.1 0.8 0.4l2.5 4.5 0.8 1.6 0.8-1.6 2.5-4.5c0.2-0.3 0.5-0.5 0.8-0.4 0.4 0.1 0.7 0.4 0.7 0.7z" fill="#A3A3A3"/>
 </g>
</svg>
