<svg viewBox="0 0 31 11" xmlns="http://www.w3.org/2000/svg">
 <g>
  <path d="m28.4 0h-5.7-0.3-0.5-1.2-5-0.2-0.3-1.6-7-0.6l-0.3 0.4-5 6.8c-0.4 0.6-0.6 1.3-0.4 2 0.3 1 1.2 1.7 2.3 1.7h6.4 1 1 2.9 0.1 1 0.8 4.2 0.5l0.3-0.4 2.6-3.5h1.3 0.5l0.3-0.4 3.6-5 1.2-1.6h-1.9z" fill="#FFF" opacity=".4"/>
  <path d="m22.4 1h6l-3.7 5h-1.8l-2.9 4h-4.2l6.6-9zm-15.9 0h7l-2.9 4h-2.6l-0.6 1h1.6v4h-6.3c-0.6 0-1.1-0.4-1.3-1-0.1-0.4-0.1-0.8 0.1-1.2l5-6.8zm3.6 2 0.6-1h-3.7l-4.2 6h4.2v-1h-2.3l3-4h2.4zm5.6-2h5l-3.7 5h-3v4h-3v-4h1l3.7-5z" fill="#133314"/>
 </g>
</svg>
