<svg width="29" height="29" viewBox="0 0 29 29">
  <g fill="none">
    <path fill="#FFF" d="M14.5,0.5 C6.8,0.5 0.5,6.8 0.5,14.5 C0.5,22.2 6.8,28.5 14.5,28.5 C22.2,28.5 28.5,22.2 28.5,14.5 C28.5,6.8 22.2,0.5 14.5,0.5 Z" opacity=".4"/>
    <path fill="maroon" d="M14.5,27.7 C7.2,27.7 1.3,21.8 1.3,14.5 C1.3,7.2 7.2,1.3 14.5,1.3 C21.8,1.3 27.7,7.2 27.7,14.5 C27.7,21.8 21.8,27.7 14.5,27.7 Z"/>
    <path fill="#FFF" d="M7,7 L10,7 L14.4,16.4 L14.4516499,16.5101865 L19,7 L22,7 L22,22 L19,22 L19,13.3 L15,21.7 L14.9683989,21.6325843 L14.8,22 L14,22 L12.9,19.6 L10,13.4067797 L10,22 L7,22 L7,7 Z" opacity=".6"/>
  </g>
</svg>
