<svg width="25" height="25" viewBox="0 0 25 25">
  <g fill="none" transform="translate(-1)">
    <path fill="#FFF" d="M24,15 L21.1,15 C22,13.6 22.5,11.9 22.5,10.1 C22.5,5 18.2,0.8 13,0.8 C7.8,0.8 3.5,5 3.5,10.1 C3.5,11.9 4,13.6 4.9,15 L2,15 C1.6,15 1.2,15.3 1,15.7 C0.9,16.1 1,16.5 1.4,16.8 L12.4,24.6 C12.4,24.6 12.4,24.6 12.5,24.6 C12.5,24.6 12.5,24.6 12.6,24.7 C12.6,24.7 12.6,24.7 12.7,24.7 C12.8,24.8 13,24.8 13.1,24.8 C13.1,24.8 13.1,24.8 13.1,24.8 C13.1,24.8 13.1,24.8 13.1,24.8 C13.2,24.8 13.4,24.8 13.5,24.7 C13.5,24.7 13.5,24.7 13.6,24.7 C13.6,24.7 13.6,24.7 13.7,24.6 C13.7,24.6 13.7,24.6 13.8,24.6 L24.8,16.8 C25.1,16.6 25.2,16.3 25.2,16 C25,15.4 24.6,15 24,15 Z" opacity=".4"/>
    <path fill="#0B224D" d="M13,18.15 C8.49887929,18.15 4.85,14.5011207 4.85,10 C4.85,5.49887929 8.49887929,1.85 13,1.85 C17.5011207,1.85 21.15,5.49887929 21.15,10 C21.15,14.5011207 17.5011207,18.15 13,18.15 Z M13,16.85 C16.7831505,16.85 19.85,13.7831505 19.85,10 C19.85,6.21684946 16.7831505,3.15 13,3.15 C9.21684946,3.15 6.15,6.21684946 6.15,10 C6.15,13.7831505 9.21684946,16.85 13,16.85 Z"/>
    <path fill="#B30000" d="M13,23.8 L2,16 L5.9,16 L13,21 L20.1,16 L24,16 L13,23.8 Z"/>
    <path fill="#B3272A" d="M11.0538682,10.4899713 L9.7,14 L8,14 L10.7,7 L9,7 L9,5 L14,5 L14,7 L12.4,7 L11.6955087,8.82645891 L13.8,14 L12.2,14 L11.0538682,10.4899713 Z M17,13.7 L15,14.6 L15,5.9 L17,5 L17,13.7 Z"/>
  </g>
</svg>
