<svg width="31" height="23" viewBox="0 0 31 23">
  <g fill="none">
    <path fill="#FFF" d="M28.4,0 L19,0 L14,0 L9.6,0 L9,0 L2.6,0 C1.2,0 0,1.2 0,2.6 L0,20.4 C0,21.8 1.2,23 2.6,23 L9.6,23 L12,23 L18.8,23 L22,23 L28.4,23 C29.8,23 31,21.8 31,20.4 L31,2.6 C31,1.2 29.8,0 28.4,0 Z" opacity=".4"/>
    <path fill="#A63614" d="M30,2.6 L30,20.4 C30,21.3 29.3,22 28.4,22 L9.6,22 C8.7,22 8,21.3 8,20.4 L8,2.6 C8,1.7 8.7,1 9.6,1 L28.4,1 C29.3,1 30,1.7 30,2.6 Z"/>
    <path fill="#06224D" d="M25,15 L18.8,22 L2.6,22 C1.7,22 1,21.3 1,20.4 L1,2.6 C1,1.7 1.7,1 2.6,1 L14,1 L14,2 L7,9 L15,14 L25,15 Z"/>
    <path fill="#A3A3A3" d="M22,15 L19,15 L9,15 L2,8 L9,1 L19,1 L9,8 L12,8 L22,8 L29,15 L22,22 L12,22 L22,15 Z M20.5714286,14 L13.4285714,9 L10.4285714,9 L17.5714286,14 L20.5714286,14 Z"/>
  </g>
</svg>
