<svg viewBox="0 0 18 18" xmlns="http://www.w3.org/2000/svg">
 <g>
  <rect width="18" height="18" fill="#FFF" opacity=".4"/>
  <rect x="1" y="1" width="16" height="16" fill="#2238B3"/>
  <path d="m15.8 4c-6.9 6.3-1.2 5.1-1.2 5.2 0 2.3-1.7 2.9-1.7 2.9-2.3-3.2-3.5 1.3-3.9 3.2 0 0.2-0.3 0.2-0.3 0-0.4-2-1.6-6.4-3.9-3.2 0 0-1.7-0.6-1.7-2.9 0 0 5.8 1.1-1.1-5.2 0 0 7.5 2.8 5.2-1.2 0 0 0-0.5 1.7-0.5s1.7 0.6 1.7 0.6c-2.3 4 5.2 1.1 5.2 1.1zm-9.6 2c2.2 1.6 2.7 4.2 2.7 4.2 0.5-3.1 2.1-4.2 2.1-4.2h-4.8z" fill="#FFF" opacity=".6"/>
 </g>
</svg>
