<svg width="18" height="18" viewBox="0 0 18 18">
  <g fill="none">
    <rect width="18" height="18" fill="#FFF" opacity=".4"/>
    <rect width="16" height="16" x="1" y="1" fill="#A3A3A3"/>
    <path fill="#52732C" d="M8.2039844,10.0820366 C9.55495359,9.17407662 12.2666667,6.85937238 12.2666667,2.90740741 L14.6259259,2.90740741 C14.6259259,2.90740741 13.2904173,9.91882756 8.13769262,10.4924143 L7.45740741,14.7037037 L6.45925926,14.7037037 L8.36481481,2.90740741 L9.36296296,2.90740741 L8.2039844,10.0820366 Z M5.55185185,14.7037037 L4.00925926,14.7037037 L6.00555556,2.90740741 L7.45740741,2.90740741 L5.55185185,14.7037037 Z"/>
    <path fill="#145B99" d="M15.3518519,14.7037037 C15.3518519,14.7037037 14.6259259,12.5259259 11.7222222,11.0740741 C9.90740741,10.1666667 7.18518519,10.1666667 7.18518519,10.1666667 L3.10185185,10.1666667 L2.64814815,11.0740741 L6.82222222,11.0740741 C7.72962963,11.0740741 8.5462963,11.1648148 9.36296296,11.5277778 C10.4518519,12.0722222 11.6314815,13.3425926 11.6314815,14.7037037 L15.3518519,14.7037037 Z"/>
  </g>
</svg>
