<svg width="21" height="16" viewBox="0 0 21 16">
  <g fill="none">
    <path fill="#FFF" d="M18,0 L12.1,0 L10,0 L7,0 L6.4,0 L3,0 C1.3,0 0,1.3 0,3 L0,13 C0,14.7 1.3,16 3,16 L7,16 L8,16 L12.9,16 L13.8,16 L18,16 C19.7,16 21,14.7 21,13 L21,3 C21,1.3 19.7,0 18,0 Z" opacity=".4"/>
    <path fill="#A63614" d="M20,3 L20,13 C20,14.1 19.1,15 18,15 L7,15 C5.9,15 5,14.1 5,13 L5,3 C5,1.9 5.9,1 7,1 L18,1 C19.1,1 20,1.9 20,3 Z"/>
    <path fill="#06224D" d="M16.3,11.7 L13.6,14.6 C13.4,14.8 13.2,14.9 12.9,14.9 L3,14.9 C1.9,14.9 1,14 1,12.9 L1,3 C1,1.9 1.9,1 3,1 L10,1 L10,1.7 L6.1,5.5 C5.6,5.9 5.7,6.7 6.2,7 L10.5,9.6 C10.6,9.7 10.8,9.7 10.9,9.7 L15.7,10.2 C16.5,10.2 16.8,11.2 16.3,11.7 Z"/>
    <path fill="#A3A3A3" d="M13.1,10 L6.4,10 L2.4,6 L2,6 L2,5 L2.4,5 L6.4,1 L12.1,1 L6.4,5 L9,5 L14.8,5 L18.8,9 L19,9 L19,10 L18.8,10 L13.8,15 L8,15 L14.8,10 L13.1,10 Z M11.425,9 L14.8,9 L10.45,6 L6.4,6 L11.425,9 Z"/>
  </g>
</svg>
