<svg width="24" height="24" viewBox="0 0 24 24">
  <g fill="none">
    <path fill="#FFF" d="M12,24 C5.4,24 0,18.6 0,12 C0,5.4 5.4,0 12,0 C18.6,0 24,5.4 24,12 C24,18.6 18.6,24 12,24 Z" opacity=".4"/>
    <circle cx="12" cy="12" r="11" fill="#072552"/>
    <path fill="#B31031" d="M12.8307036,11.5569007 L17.8,17.2 L17,17.8 L11.95,12.0652542 L6.9,17.8 L6.1,17.2 L11.1281268,11.4900933 C11.0465427,11.3452672 11,11.1780689 11,11 C11,10.4477153 11.4477153,10 12,10 C12.5522847,10 13,10.4477153 13,11 C13,11.2061523 12.937619,11.3977347 12.8307036,11.5569007 Z"/>
    <path fill="#9BA7B9" d="M18,19.1 C17.4,19.1 16.9,18.6 16.9,18 L16.9,10.5 L13.1,17.5 C12.7,18.2 11.5,18.2 11.1,17.5 L7.3,10.5 L7.3,18 C7.3,18.6 6.8,19.1 6.2,19.1 C5.6,19.1 4.9,18.6 4.9,18 L4.9,6 C4.9,5.5 5.3,5 5.8,4.9 C6.2,4.8 6.8,5 7,5.4 L12,14.5 L17,5.4 C17.3,4.9 17.8,4.7 18.3,4.8 C18.8,5 19.1,5.5 19.1,6 L19.1,18 C19.1,18.6 18.6,19.1 18,19.1 Z"/>
  </g>
</svg>
