<svg width="28" height="28" viewBox="0 0 28 28">
  <g fill="none">
    <path fill="#FFF" d="M14,0 C6.3,0 0,6.3 0,14 C0,21.7 6.3,28 14,28 C21.7,28 28,21.7 28,14 C28,6.3 21.7,0 14,0 Z" opacity=".4"/>
    <path fill="#8C0B12" d="M14,1 C6.8,1 1,6.8 1,14 C1,21.2 6.8,27 14,27 C21.2,27 27,21.2 27,14 C27,6.8 21.2,1 14,1 Z"/>
    <path fill="#FFF" d="M14,14.9244439 L14,12 L25,12 L25,15 L21,15 L21,22 L18,22 L18,15 L17.5050038,15 L13.9244439,15 C13.9499983,14.975187 13.975187,14.9499983 14,14.9244439 Z M16.5251874,16.6312968 C15.3347755,18.0792339 13.5285147,19 11.5,19 C7.9,19 5,16.1 5,12.5 C5,8.9 7.9,6 11.5,6 C14.290296,6 16.6600653,7.74218215 17.5849163,10.2021548 L14.4540906,10.6494156 C13.8271876,9.66624196 12.726054,9 11.5,9 C9.6,9 8,10.6 8,12.5 C8,14.4 9.6,16 11.5,16 C11.9795628,16 12.4400137,15.8980696 12.8604491,15.7151123 L16.5251874,16.6312968 Z" opacity=".5"/>
  </g>
</svg>
