<svg viewBox="0 0 24 24" xmlns="http://www.w3.org/2000/svg">
 <g>
  <circle cx="12" cy="12" r="12" fill="#FFF" opacity=".4"/>
  <circle cx="12" cy="12" r="11" fill="#A3A3A3"/>
  <g transform="translate(2 5)" fill="#06224D">
   <path d="m3.4667 5h0.83333c0.4-0.2 0.7-0.1 1 0l2.7 1.3c1.3 0.6 2.8 0.9 4.3 0.7h0.3l3.4-0.6-3.9 0.1c-0.8-0.1-1.7-0.3-2.5-0.6l-4.2-1.7c-0.4-0.1-0.9-0.2-1.3-0.1l-0.42143 0.10536 1.1214-4.2054h3.3l2.2 6 2.1-6h3.3l3.3 12h-4.4l-1.4-5.1-1.8 5.1h-2.2l-1.9-5.1-1.4 5.1h-4.3l1.8667-7zm-1.4417 0h0.975v1h-2.6l1.625-1zm15.975 1h2.6l-2.6 1.6v-1.6z"/>
  </g>
 </g>
</svg>
