<svg width="28" height="28" viewBox="0 0 28 28">
  <g fill="none">
    <circle cx="14" cy="14" r="14" fill="#FFF" opacity=".4"/>
    <path fill="#012C4D" d="M13,0 C20.2,0 26,5.8 25.9,13 C25.9,16.5 24.6,19.7 22.3,22 L3.6,22 C1.4,19.7 0,16.5 0,13 C0,5.8 5.8,0 13,0 Z" transform="translate(1 1)"/>
    <g transform="translate(4 4)">
      <path fill="#900" d="M7.1,10 C6.1,12.3 3.7,13.9 1,13.9 L0.5,13.9 L6.3,1.2 L9.9,8 L13.4,1.2 L19,13.9 L18.5,13.9 C15.9,13.9 13.5,12.4 12.4,10.2 L9.7,15.9 L7.1,10 Z"/>
      <path fill="#B3A400" d="M13.2,2 L18.4,13.5 C15.8,13.5 13.4,12 12.5,9.6 L12.3,9.3 L9.7,15 L7.2,9.2 L6.9,9.6 C6,12 3.6,13.5 1,13.5 L6.2,2 L9.8,8.7 L13.2,2 Z M13.3,0.4 L12.6,1.7 L9.8,7.2 L6.9,1.7 L6.2,0.4 L5.6,1.7 L0.4,13.2 L0,14.2 L1,14.2 C3.5,14.2 5.9,12.9 7.1,10.8 L9,15.3 L9.6,16.7 L10.3,15.3 L12.4,10.9 C13.6,12.9 16,14.2 18.5,14.2 L19.6,14.2 L19.2,13.2 L13.9,1.7 L13.3,0.4 Z"/>
    </g>
    <path fill="#B3A400" d="M23.4,23 C21,25.5 17.7,27 14,27 C10.3,27 7,25.5 4.6,23 L23.4,23 Z"/>
  </g>
</svg>
