<svg width="24" height="24" viewBox="0 0 24 24">
  <g fill="none">
    <circle cx="12" cy="12" r="12" fill="#FFF" opacity=".4"/>
    <path fill="#012C4D" d="M11,0 C17.1,0 22,4.9 22.1,11 C22.1,14.2 20.7,17 18.6,19 L3.5,19 C1.3,17 0,14.2 0,11 C0,4.9 4.9,0 11,0 Z" transform="translate(1 1)"/>
    <g transform="translate(4 3)">
      <path fill="#900" d="M5.9,8.5 C5.1,10.4 3.1,11.6 1,11.6 L0.5,11.6 L5.2,1.3 L8,6.9 L10.8,1.3 L15.5,11.6 L15,11.6 C12.9,11.6 11,10.4 10.1,8.6 L7.9,13.7 L5.9,8.5 Z"/>
      <path fill="#B3A400" d="M10.8,2 L15,11.3 C12.9,11.3 11,10.1 10.3,8.2 L10.2,7.8 L8,13 L5.9,7.6 L5.7,8.2 C5,10.1 3.1,11.3 1,11.3 L5.2,2 L8,7.5 L10.8,2 Z M10.8,0.6 L10.2,1.7 L8,6.2 L5.7,1.7 L5.2,0.6 L4.7,1.8 L0.5,11.1 L0.1,11.9 L1,11.9 C3,11.9 4.9,10.9 5.9,9.2 L7.4,13.1 L7.9,14.5 L8.5,13.1 L10.2,9.2 C11.2,10.8 13,11.8 15,11.8 L15.9,11.8 L15.5,11 L11.3,1.7 L10.8,0.6 Z"/>
    </g>
    <path fill="#B3A400" d="M19.5,20 C17.5,21.9 14.9,23 12,23 C9.1,23 6.4,21.9 4.5,20 L19.5,20 Z"/>
  </g>
</svg>
