<?xml version="1.0" encoding="UTF-8"?>
<svg width="18" height="9" version="1.1" viewBox="0 0 18 9" xml:space="preserve" xmlns="http://www.w3.org/2000/svg"><g><path d="m14.438 0.19503-1.4331 0.001926c-1.7217 0.002706-3.4435 0.002997-5.1667 0.011542h-0.034627c-0.50859 0.029482-1.0793 0.21839-1.4696 0.67902l-1.3369 1.5793c-0.41257 0.4932-0.35703 0.44531-0.54822 0.54245-0.43678 0.21948-0.81661 0.045452-1.3388 0.14042l-0.023083 0.00385-0.02116 0.00577c-0.48423 0.122-0.92117 0.38881-1.2311 0.7752l-1.6427 1.9544 5.9362 0.0038471-0.6367 0.6367c-0.11655 0.095291-0.22416 0.20068-0.31931 0.31931l-1.6427 1.9544 6.6306 0.00194c0.33475 9.58e-5 0.90469-0.15144 1.3715-0.58284l0.03077-0.028854 1.6062-1.887 0.0019-0.00193c0.20027-0.23954 0.33018-0.31746 0.54822-0.37702 0.11026-0.029186 0.46351 0.0061 0.87907-0.034624 0.70833-0.069409 1.1318-0.3545 1.4177-0.69056l0.80983-0.95217 0.98295-1.1388-1.4658 0.00193c-1.4985 0.00236-2.9973 0.00237-4.4973 0.00769l0.59054-0.59246c0.0075-0.00616 0.01382-0.012996 0.02116-0.019236 0.08208-0.069818 0.15539-0.14383 0.22121-0.22121l0.8156-0.95602z" fill="#fff" opacity=".4"/><path d="m11.178 3.7927c-0.37943 0.021996-0.75401 0.15787-0.99532 0.44267l-1.3349 1.5755c-0.42205 0.50453-0.50591 0.58152-0.76299 0.71212-0.56164 0.28222-1.1396 0.13171-1.5191 0.20071-0.35469 0.089359-0.66126 0.28045-0.87297 0.5444l-0.72724 0.86609 5.1943 0.00145c0.14533 4.14e-5 0.56772-0.082048 0.91789-0.40565l1.5796-1.8573c0.28045-0.33544 0.51691-0.49216 0.88946-0.59389 0.23539-0.06231 0.6189-0.016986 0.98509-0.052869 0.51554-0.050518 0.80441-0.25981 0.97352-0.45861l0.81152-0.95401 0.02749-0.030244c-1.7221 0.00271-3.4442 0.00109-5.1663 0.00962z" fill="#01577f"/><path d="m7.8413 0.87787c-0.37943 0.021996-0.75401 0.15787-0.99532 0.44267l-1.3349 1.5755c-0.42205 0.50453-0.50591 0.58152-0.76299 0.71212-0.56164 0.28222-1.1396 0.13171-1.5191 0.20071-0.35469 0.089359-0.66126 0.28045-0.87297 0.5444l-0.72724 0.86609 5.1943 0.00145c0.14533 4.4e-5 0.56772-0.082045 0.91789-0.40565l1.5796-1.8573c0.28045-0.33544 0.51691-0.49216 0.88946-0.59389 0.23539-0.06231 0.6189-0.016986 0.98509-0.052869 0.51555-0.050518 0.80441-0.25981 0.97352-0.45861l0.81152-0.95401 0.02749-0.030244c-1.7221 0.002706-3.4442 0.001087-5.1663 0.009623z" fill="#2e7f27"/></g></svg>
