<svg viewBox="0 0 20 16" xmlns="http://www.w3.org/2000/svg">
 <g>
  <path d="m19 5h-1-1.1c-1.2-2.7-3.9-4.5-6.9-4.5s-5.7 1.8-6.9 4.5h-2.1-1v1 1 1 1 1 1h1 2.1c1.2 2.7 3.9 4.5 6.9 4.5s5.7-1.8 6.9-4.5h1.1 1 1v-1-1-2-1-1h-1z" fill="#FFF" opacity=".4"/>
  <circle cx="10" cy="8" r="6" fill="#A3A3A3"/>
  <path d="m19 7v2 1h-2.8113c-0.84014 2.616-3.287 4.5-6.1887 4.5-2.9016 0-5.3485-1.884-6.1887-4.5h-2.8113v-1h2.5758c-0.04994-0.32584-0.075838-0.6598-0.075838-1s0.025898-0.67416 0.075838-1h-2.5758v-1h2.8113c0.84014-2.616 3.287-4.5 6.1887-4.5 2.9016 0 5.3485 1.884 6.1887 4.5h2.8113v1zm-1 0h-1.5758c0.04994 0.32584 0.075838 0.6598 0.075838 1s-0.025898 0.67416-0.075838 1h1.5758v-2zm-2.3912 2c0.059878-0.32546 0.091206-0.65972 0.091206-1s-0.030123-0.67454-0.087988-1h-11.224c-0.057865 0.32546-0.087988 0.65972-0.087988 1s0.030123 0.67454 0.087988 1h11.221zm-0.28258 1h-10.664c0.80321 2.1419 2.8609 3.7 5.3381 3.7 2.3998 0 4.4999-1.5581 5.3262-3.7zm0.01185-4c-0.80321-2.1419-2.8609-3.7-5.3381-3.7-2.4772 0-4.5349 1.5581-5.3381 3.7h10.676z" fill="#731221"/>
 </g>
</svg>
