<svg width="18" height="18" viewBox="0 0 18 18">
  <g fill="none">
    <path fill="#FFF" d="M18,8 L17.7,6.8 C17.7,6.7 17.7,6.7 17.6,6.6 L17.6,6.5 C17.6,6.4 17.6,6.3 17.5,6.3 C17.4,6.1 17.4,5.9 17.3,5.7 C17.3,5.7 17.3,5.6 17.2,5.6 C17,5.1 16.7,4.6 16.4,4.1 C16.4,4.1 16.3,4 16.3,4 C16.2,3.8 16,3.6 15.9,3.5 C15.9,3.4 15.8,3.4 15.8,3.3 C15.7,3.2 15.6,3 15.4,2.9 C15.3,2.8 15.3,2.8 15.2,2.7 C15.1,2.6 14.9,2.4 14.8,2.3 C14.8,2.3 14.7,2.2 14.6,2.2 C14.4,2.1 14.3,1.9 14.1,1.8 C14,1.8 14,1.7 14,1.7 C13.8,1.5 13.5,1.4 13.3,1.3 C13.3,1.3 13.2,1.3 13.2,1.2 C13,1.1 12.8,1 12.6,0.9 C12.5,0.9 12.5,0.8 12.4,0.8 L12.3,0.8 C12.1,0.7 12,0.7 11.8,0.6 C11.7,0.6 11.6,0.5 11.5,0.5 C11.3,0.5 11.2,0.4 11,0.4 C10.9,0.4 10.8,0.4 10.7,0.3 C10.5,0.3 10.3,0.2 10.1,0.2 L10,0.2 C9.9,0.2 9.9,0.2 9.8,0.2 C9.6,0 9.3,0 9,0 C4,0 0,4 0,9 C0,9.3 0,9.7 0.1,10.1 C0.1,10.2 0.1,10.3 0.1,10.3 L0.1,10.4 C0.1,10.6 0.2,10.9 0.2,11.1 C0.2,11.2 0.2,11.2 0.2,11.3 L0.5,12 L0.6,12 C0.9,12.9 1.3,13.7 1.9,14.4 C2.4,15 2.9,15.5 3.5,16 L3.6,16.1 C3.9,16.3 4.1,16.5 4.4,16.6 C4.4,16.6 4.5,16.7 4.5,16.7 C5.1,17.1 5.8,17.3 6.5,17.5 C6.6,17.5 6.6,17.5 6.7,17.6 L6.8,17.6 C7.1,17.7 7.3,17.7 7.6,17.8 L7.7,17.8 C7.8,17.8 7.9,17.8 7.9,17.8 C8.3,18 8.7,18 9,18 C9.3,18 9.6,18 9.9,18 C10,18 10,18 10.1,18 L10.2,18 C10.4,18 10.6,17.9 10.8,17.9 C10.9,17.9 11,17.9 11.1,17.8 C11.3,17.8 11.5,17.7 11.6,17.7 C11.7,17.7 11.8,17.6 11.9,17.6 C12.1,17.5 12.2,17.5 12.4,17.4 L12.5,17.4 C12.6,17.4 12.6,17.4 12.7,17.3 C12.9,17.2 13.1,17.1 13.3,17 C13.4,17 13.4,17 13.4,16.9 C13.6,16.8 13.9,16.6 14.1,16.5 C14.1,16.5 14.2,16.4 14.2,16.4 C14.4,16.3 14.6,16.1 14.7,16 C14.8,16 14.8,15.9 14.9,15.9 C15,15.8 15.2,15.7 15.3,15.5 C15.4,15.4 15.4,15.4 15.5,15.3 C15.6,15.2 15.8,15 15.9,14.9 C15.9,14.8 16,14.8 16,14.7 C16.1,14.5 16.3,14.4 16.4,14.2 C16.5,14.1 16.5,14.1 16.5,14.1 C16.8,13.6 17.1,13.2 17.3,12.6 C17.3,12.6 17.3,12.5 17.4,12.5 C17.5,12.3 17.6,12.1 17.6,11.9 C17.6,11.8 17.6,11.8 17.7,11.7 L17.7,11.6 C17.7,11.5 17.7,11.5 17.8,11.4 C17.8,11.3 17.8,11.3 17.8,11.2 C17.9,11 17.9,10.7 17.9,10.5 L17.9,10.4 C17.9,10.3 17.9,10.3 17.9,10.2 C18,9.7 18,9.3 18,9 C18,8.7 18,8.3 18,8 Z" opacity=".4"/>
    <path fill="#900" d="M4.28888889,9 L5.8,7.4 L7.4,5.7 L9.1,7.4 L10.8,5.7 L12.4,7.4 L13.9111111,9 L15,9 L17.1,9 C17.1,9.7 17,10.4 16.8,11 C15.9,14.5 12.7,17 9,17 C6.1,17 3.5,15.4 2.1,13 L4.5,13 C5.6,14.2 7.2,15 9,15 C11.7,15 13.9,13.3 14.7,11 L12.4,11 L10.8,9.2 L9.1,11 L7.4,9.2 L5.8,11 L2.4,11 L1.3,11 C1.1,10.4 1,9.7 1,9 C1,4.6 4.6,1 9,1 C12.7,1 15.9,3.5 16.8,7 L14.7,7 C13.8,4.7 11.6,3 9,3 C5.7,3 3,5.7 3,9 L4.28888889,9 Z"/>
  </g>
</svg>
