<svg width="23" height="10" viewBox="0 0 23 10">
  <g fill="none">
    <path fill="#FFF" d="M22.1,5.9 L20.5,1.4 C20.1,0.6 19.3,0 18.4,0 L17.4,0 L14.9,0 L13.9,0 C13,0 12.2,0.6 11.8,1.4 L11.4,2.6 L11,1.4 C10.7,0.6 9.9,0 9,0 L8,0 L5.5,0 L4.5,0 C3.5,0 2.7,0.6 2.4,1.4 L0.8,5.9 C0.5,6.8 0.6,7.9 1.2,8.7 C1.8,9.5 2.6,10 3.6,10 C4.9,10 6,9.2 6.5,8 L6.7,7.4 L7.1,8.6 C7.4,9.4 8.3,10 9.2,10 L10.2,10 L12.7,10 L13.7,10 C14.6,10 15.4,9.4 15.8,8.6 L16.2,7.4 L16.4,8 C16.8,9.2 18,10 19.3,10 C20.3,10 21.2,9.5 21.8,8.7 C22.4,7.9 22.4,6.9 22.1,5.9 Z" opacity=".4"/>
    <g transform="translate(1 1)">
      <path fill="#008035" d="M18.2,8 C19.6,8 20.6,6.6 20.1,5.3 L18.5,0.8 C18.3,0.3 17.9,0 17.4,0 L13.9,0 L16.3,6.7 C16.6,7.5 17.4,8 18.2,8 Z"/>
      <path fill="#A60056" d="M16.4,0 L15,4 L13.8,7.2 C13.6,7.7 13.2,8 12.7,8 L11.7,8 L10.5,4.6 L10.6,4 L11.8,0.8 C12,0.3 12.4,0 12.9,0 L16.4,0 Z"/>
      <path fill="#145B99" d="M10.4,4.6 L9.2,8 L8.2,8 C7.7,8 7.2,7.7 7.1,7.2 L6,4.3 L4.5,0 L8,0 C8.5,0 9,0.3 9.1,0.8 L10.2,4 L10.4,4.6 Z"/>
      <path fill="#B3A400" d="M2.6,8 C1.2,8 0.2,6.6 0.7,5.3 L2.3,0.8 C2.5,0.3 3,0 3.5,0 L7,0 L4.5,6.7 C4.3,7.5 3.5,8 2.6,8 Z"/>
      <polygon fill="#340E4D" points="11.7 8 9.2 8 10.4 4.6"/>
    </g>
  </g>
</svg>
