<svg width="20" height="20" viewBox="0 0 20 20">
  <g fill="none">
    <rect width="20" height="20" fill="#FFF" opacity=".4"/>
    <rect width="18" height="18" x="1" y="1" fill="#000"/>
    <path fill="#19401B" d="M13.8,14.4 C14,14.7 14.1,15.1 14.1,15.5 C14.1,16.4 13.5,17.1 12.6,17.4 L6.3,19 L1,19 L1,18.3 L12,15.4 L8.7,14.3 L6,13.4 C5.2,13.1 4.6,12.4 4.6,11.5 C4.6,11.1 4.7,10.8 4.9,10.5 C5.2,10.1 5.5,9.8 6,9.6 L12,7.6 L8.7,6.7 L1,4.7 L1,2.6 L12.5,5.7 C13,5.8 13.5,6.2 13.7,6.6 C13.9,6.9 14,7.2 14,7.5 C14,8.4 13.5,9.2 12.6,9.5 L9.6,10.5 L6.6,11.5 L12.6,13.5 C13.1,13.7 13.5,14 13.8,14.4 Z"/>
    <path fill="#A3A3A3" d="M14,13.5 C14,13.8 13.9,14.2 13.7,14.4 C13.4,14.8 13,15.2 12.5,15.3 L1,18.4 L1,16.3 L8.7,14.3 L12,13.4 L6,11.4 C5.5,11.2 5.1,10.9 4.9,10.5 C4.7,10.2 4.6,9.9 4.6,9.5 C4.6,8.6 5.1,7.9 6,7.6 L8.6,6.7 L12,5.6 L1,2.7 L1,1 L2.5,1 L12.5,3.7 C13.4,3.9 14,4.7 14,5.6 C14,6 13.9,6.4 13.7,6.7 C13.5,7.1 13.1,7.4 12.6,7.6 L6.6,9.6 L9.6,10.6 L12.6,11.6 C13.5,11.8 14,12.6 14,13.5 Z"/>
  </g>
</svg>
