<svg viewBox="0 0 26 26" xmlns="http://www.w3.org/2000/svg">
 <g>
  <polygon points="22 9.6 22 4 16.4 4 13 0.6 9.6 4 4 4 4 9.6 0.6 13 4 16.4 4 22 9.6 22 13 25.4 16.4 22 22 22 22 16.4 25.4 13" fill="#FFF" opacity=".4"/>
  <polygon points="21 16.6 24.2 13.4 21 10.2 21 5 15.8 5 13.2 2.4 10.6 5 5 5 5 10.6 2.2 13.4 5 16.2 5 21 9.8 21 13.2 24.4 16.6 21 21 21"/>
  <path d="m11 15.8-1-1v5.2h-4v-9h4 0.6l2.6227 2.6227 2.6773-2.6227h0.1 4v9h-4v-4.7588l-2.8 2.7588-2.2-2.2z" fill="#8A0000"/>
  <path d="m17 9v-2-1h2 1v3 1h-4-1v-2h-4v1 1h-5v-1h2v-2h-1v1h-1v-1-1h3v1 2h1v-3h1v1h4v-1h1v3h1zm1 0h1v-2h-1v2zm-4-4h1v1h-1v-1zm-3 0h1v1h-1v-1z" fill="#707070"/>
 </g>
</svg>
