<svg width="29" height="19" viewBox="0 0 29 19">
  <g fill="none">
    <path fill="#FFF" d="M8,0 L8,4 L8,4.2 C7.3,4.3 6.6,4.5 6,4.9 L6,0 L0,0 L0,19 L6,19 L6,18.1 C7.1,18.7 8.3,19 9.5,19 C11.4,19 13.1,18.3 14.5,17.1 C15.9,18.3 17.6,19 19.5,19 C20.7,19 21.9,18.7 23,18.1 L23,19 L29,19 L29,0 L8,0 Z M12.1,12.4 C11.7,13.5 10.7,14.2 9.5,14.2 C8,14.2 6.8,13 6.8,11.5 C6.8,10 8,8.8 9.5,8.8 C10.7,8.8 11.7,9.6 12.1,10.6 C12.1,10.9 12,11.2 12,11.5 C12,11.8 12,12.1 12.1,12.4 Z M19.5,14.2 C18.3,14.2 17.3,13.4 16.9,12.4 C16.9,12.1 17,11.8 17,11.5 C17,11.2 17,10.9 16.9,10.6 C17.3,9.5 18.3,8.8 19.5,8.8 C21,8.8 22.2,10 22.2,11.5 C22.2,13 21,14.2 19.5,14.2 Z" opacity=".4"/>
    <path fill="#145B99" d="M24,5 L24,6.8 C22.8,5.7 21.2,5 19.5,5 C15.9,5 13,7.9 13,11.5 C13,15.1 15.9,18 19.5,18 C21.2,18 22.8,17.3 24,16.2 L24,18 L28,18 L28,5 L24,5 Z M19.5,15.2 C17.5,15.2 15.8,13.5 15.8,11.5 C15.8,9.5 17.5,7.8 19.5,7.8 C21.5,7.8 23.2,9.5 23.2,11.5 C23.2,13.5 21.5,15.2 19.5,15.2 Z"/>
    <path fill="#000" d="M9.5,5 C7.8,5 6.2,5.7 5,6.8 L5,1 L1,1 L1,18 L5,18 L5,16.2 C6.2,17.3 7.8,18 9.5,18 C13.1,18 16,15.1 16,11.5 C16,7.9 13.1,5 9.5,5 Z M9.5,15.2 C7.5,15.2 5.8,13.5 5.8,11.5 C5.8,9.5 7.5,7.8 9.5,7.8 C11.5,7.8 13.2,9.5 13.2,11.5 C13.2,13.5 11.5,15.2 9.5,15.2 Z M9,1 L28,1 L28,4 L9,4 L9,1 Z"/>
  </g>
</svg>
