<svg width="28" height="28" viewBox="0 0 28 28">
  <g fill="none">
    <path fill="#FFF" d="M14,0.4 C6.5,0.4 0.4,6.5 0.4,14 C0.4,21.5 6.5,27.6 14,27.6 C21.5,27.6 27.6,21.5 27.6,14 C27.6,6.5 21.5,0.4 14,0.4 Z" opacity=".4"/>
    <path fill="#A3A3A3" d="M14,25.8 C7.5,25.8 2.2,20.5 2.2,14 C2.2,7.5 7.5,2.2 14,2.2 C20.5,2.2 25.8,7.5 25.8,14 C25.8,20.5 20.5,25.8 14,25.8 Z"/>
    <path fill="#000" d="M14,3 C20.1,3 25,7.9 25,14 C25,20.1 20.1,25 14,25 C7.9,25 3,20.1 3,14 C3,7.9 7.9,3 14,3 Z M14,1.4 C7.1,1.4 1.4,7.1 1.4,14 C1.4,20.9 7.1,26.6 14,26.6 C20.9,26.6 26.6,20.9 26.6,14 C26.6,7.1 20.9,1.4 14,1.4 Z"/>
    <path fill="#000" d="M9,9.9 L9,21 L7,21 L7,7 L8.9,7 L9,7.1 L14,12.1 L19.1,7 L21,7 L21,7.9 L14,14.9 L12.6,13.5 L9,9.9 Z M14,17.1 L19,12 L21,10 L21,21 L19,21 L19,14.9 L14,19.9 L12.6,18.5 L10,15.9 L10,13.1 L14,17.1 Z"/>
  </g>
</svg>
