<svg width="18" height="18" viewBox="0 0 18 18">
  <g fill="none">
    <circle cx="9" cy="9" r="8" fill="#C41F38"/>
    <path fill="#FFF" d="M9,1.2 C13.3,1.2 16.8,4.7 16.8,9 C16.8,13.3 13.3,16.8 9,16.8 C4.7,16.8 1.2,13.3 1.2,9 C1.2,4.7 4.7,1.2 9,1.2 Z M9,0 C4,0 0,4 0,9 C0,14 4,18 9,18 C14,18 18,14 18,9 C18,4 14,0 9,0 Z" opacity=".4"/>
    <circle cx="9" cy="9" r="8" fill="#145B99"/>
    <g fill="#FFF" opacity=".6" transform="translate(2 5)">
      <path d="M3,5.4 C3.2,5.4 3.3,5.3 3.5,5.2 C3.6,5.1 3.7,4.9 3.7,4.7 L5,4.7 C4.9,5.2 4.7,5.6 4.3,6 C3.9,6.3 3.4,6.5 2.8,6.5 C2.1,6.5 1.6,6.3 1.3,5.8 C1,5.4 0.9,4.8 1,4.1 L1,4 C1.1,3.3 1.4,2.7 1.8,2.3 C2.2,1.9 2.8,1.7 3.5,1.7 C4.1,1.7 4.5,1.9 4.8,2.2 C5.1,2.5 5.2,3 5.1,3.5 L3.8,3.5 C3.8,3.3 3.8,3.1 3.7,3 C3.7,2.8 3.5,2.8 3.3,2.8 C3,2.8 2.8,2.9 2.7,3.1 C2.6,3.4 2.5,3.7 2.4,4 L2.4,4.1 C2.3,4.5 2.3,4.8 2.4,5 C2.5,5.3 2.7,5.4 3,5.4 Z M7.9,0.6 L7.7,1.7 L8.4,1.7 L8.2,2.7 L7.5,2.7 L7.2,4.9 C7.2,5.1 7.2,5.2 7.2,5.3 C7.3,5.4 7.3,5.4 7.5,5.4 C7.6,5.4 7.6,5.4 7.7,5.4 C7.8,5.4 7.8,5.4 7.9,5.4 L7.8,6.5 C7.7,6.5 7.5,6.6 7.4,6.6 C7.3,6.6 7.1,6.6 7,6.6 C6.5,6.6 6.2,6.5 6,6.2 C5.8,5.9 5.7,5.5 5.8,5 L6.1,2.9 L5.4,2.9 L5.5,1.9 L6.1,1.9 L6.3,0.7 L7.9,0.7 L7.9,0.6 Z M11.1,6.4 C11.1,6.3 11,6.2 11,6.1 C11,6 11,5.8 11,5.7 C10.8,5.9 10.7,6.1 10.4,6.3 C10.2,6.4 9.9,6.5 9.6,6.5 C9.1,6.5 8.8,6.4 8.5,6.1 C8.3,5.8 8.2,5.5 8.2,5.1 C8.4,4.6 8.7,4.2 9,4 C9.4,3.8 9.9,3.6 10.6,3.6 L11.2,3.6 L11.3,3.3 C11.3,3.1 11.3,2.9 11.2,2.8 C11.1,2.7 11,2.6 10.8,2.6 C10.6,2.6 10.5,2.6 10.4,2.7 C10.3,2.8 10.2,2.9 10.2,3.1 L8.8,3.1 C8.8,2.7 9.1,2.3 9.5,2 C9.9,1.7 10.4,1.6 11,1.6 C11.6,1.6 12,1.7 12.3,2 C12.6,2.3 12.7,2.7 12.7,3.2 L12.4,5 C12.4,5.3 12.3,5.5 12.4,5.7 C12.4,5.9 12.4,6.1 12.5,6.3 L11.1,6.4 Z M10.2,5.5 C10.4,5.5 10.5,5.5 10.7,5.4 C10.9,5.3 11,5.2 11,5.1 L11.1,4.5 L10.5,4.5 C10.3,4.5 10.1,4.6 10,4.7 C9.9,4.8 9.8,5 9.8,5.1 C9.8,5.2 9.8,5.3 9.9,5.4 C10,5.4 10.1,5.5 10.2,5.5 Z"/>
    </g>
  </g>
</svg>
