<svg viewBox="0 0 18 18" xmlns="http://www.w3.org/2000/svg">
 <g>
  <path d="m9 0c-5 0-9 4-9 9s4 9 9 9 9-4 9-9-4-9-9-9z" fill="#FFF" opacity=".4"/>
  <circle cx="9" cy="9" r="6" fill="#A3A3A3"/>
  <path d="m12.588 9h2.6123 1.9c0 0.7-0.1 1.4-0.3 2-0.9 3.5-4.1 6-7.8 6-4.4 0-8-3.6-8-8s3.6-8 7.9-8c3.8 0 6.9 2.5 7.8 6h-1.9c-0.8-2.5-3.1-4.2-5.8-4.2-3.4 0-6.1 2.8-6.1 6.2s2.8 6.2 6.2 6.2c2.7 0 5-1.8 5.8-4.2h-2.7211c-0.12489 0.32276-0.28262 0.65657-0.47887 1h-5.7v-6h5.7s0.92602 1.1575 0.88773 3zm-3.5877 1c0.6 0 1-0.4 1-1s-0.4-1-1-1h-1v2h1z" fill="#06224D"/>
 </g>
</svg>
