<svg viewBox="0 0 24 13" xmlns="http://www.w3.org/2000/svg">
 <g>
  <polygon points="22 4 19.4 4 19.2 3.6 17.8 0.6 17.5 0 16.9 0 10.8 0 10.4 0 10.1 0.3 6.2 4 3.4 4 2.7 4 2.4 4.6 1 7.6 0.5 9 2 9 4.6 9 4.8 9.4 6.2 12.4 6.5 13 7.1 13 13.2 13 13.6 13 13.9 12.7 17.8 9 20.7 9 21.3 9 21.6 8.4 23 5.4 23.5 4" fill="#FFF" opacity=".4"/>
  <path d="m6.6333 11h5.3667l1.4-1.6-0.4-0.4-1.2 1h-5.6333l-0.46667-1h5.6l4.1-4h6.6l-1.4 3h-3.2l-4.2 4h-6.1l-0.46667-1zm10.733-9h-5.3667l-1.4 1.6 0.4 0.4 1.2-1h5.6333l0.46667 1h-5.6l-4.1 4h-6.6l1.4-3h3.2l4.2-4h6.1l0.46667 1z" fill="#0B0E33"/>
 </g>
</svg>
