<?xml version="1.0" encoding="UTF-8" standalone="no"?>
<svg width="27px" height="27px" viewBox="0 0 27 27" version="1.1" xmlns="http://www.w3.org/2000/svg" xmlns:xlink="http://www.w3.org/1999/xlink" xmlns:sketch="http://www.bohemiancoding.com/sketch/ns">
    <!-- Generator: Sketch 3.4.2 (15857) - http://www.bohemiancoding.com/sketch -->
    <title>subway-l</title>
    <desc>Created with Sketch.</desc>
    <defs></defs>
    <g id="Transport" stroke="none" stroke-width="1" fill="none" fill-rule="evenodd" sketch:type="MSPage">
        <g id="subway-l" sketch:type="MSLayerGroup">
            <circle id="Oval-1-Copy-39" fill="#FFFFFF" sketch:type="MSShapeGroup" cx="13.5" cy="13.5" r="13.5"></circle>
            <circle id="Oval-1-Copy-38" fill="#133655" sketch:type="MSShapeGroup" cx="13.5" cy="13.5" r="12.5"></circle>
            <g id="g24855" transform="translate(7.000000, 6.000000)" fill="#FFFFFF" opacity="0.7" sketch:type="MSShapeGroup">
                <path d="M3,0.3622 L0,2.3622 L0,13.3622 C0,13.8622 0.5,14.3622 1,14.3622 L3.5,14.3622 L7,14.3622 L9.5,14.3622 L12,14.3622 C12.5,14.3622 13,13.8622 13,13.3622 L13,2.3622 L10,0.3622 L3,0.3622 Z M4,2.3622 L9,2.3622 L11,3.3622 L11,6.3622 L2,6.3622 L2,3.3622 L4,2.3622 Z M3,10.3622 C3.554,10.3622 4,10.8082 4,11.3622 C4,11.9162 3.554,12.3622 3,12.3622 C2.446,12.3622 2,11.9162 2,11.3622 C2,10.8082 2.446,10.3622 3,10.3622 L3,10.3622 Z M10,10.3622 C10.554,10.3622 11,10.8082 11,11.3622 C11,11.9162 10.554,12.3622 10,12.3622 C9.446,12.3622 9,11.9162 9,11.3622 C9,10.8082 9.446,10.3622 10,10.3622 L10,10.3622 Z" id="path24859"></path>
            </g>
        </g>
    </g>
</svg>