<?xml version="1.0" encoding="UTF-8" standalone="no"?>
<svg width="23px" height="23px" viewBox="0 0 23 23" version="1.1" xmlns="http://www.w3.org/2000/svg" xmlns:xlink="http://www.w3.org/1999/xlink" xmlns:sketch="http://www.bohemiancoding.com/sketch/ns">
    <!-- Generator: Sketch 3.4.2 (15857) - http://www.bohemiancoding.com/sketch -->
    <title>subway-m</title>
    <desc>Created with Sketch.</desc>
    <defs></defs>
    <g id="Transport" stroke="none" stroke-width="1" fill="none" fill-rule="evenodd" sketch:type="MSPage">
        <g id="subway-m" sketch:type="MSLayerGroup">
            <circle id="Oval-1-Copy-41" fill="#FFFFFF" sketch:type="MSShapeGroup" cx="11.5" cy="11.5" r="11.5"></circle>
            <circle id="Oval-1-Copy-40" fill="#133655" sketch:type="MSShapeGroup" cx="11.5" cy="11.5" r="10.5"></circle>
            <path d="M7.95762217,5.03583644 L5.95762217,6.53583644 L6,16.0049207 C6.01536083,16.5049207 6.51536083,17.0049207 7.01536083,17.0049207 L16.0153608,17.0049207 C16.5153608,17.0049207 17.0078669,16.6758134 17,16.0049207 L16.9576222,6.53583644 L14.9576222,5.03583644 L7.95762217,5.03583644 Z M9.57605219,7.04136763 L13.5760522,7.04136763 L15,8.14000509 L15,11.9843851 L8,11.9843851 L8,8.14000509 L9.57605219,7.04136763 Z M9,14.6122 C9,15.026414 8.66421,15.3622 8.25,15.3622 C7.83579,15.3622 7.5,15.026414 7.5,14.6122 C7.5,14.197986 7.83579,13.8622 8.25,13.8622 C8.66421,13.8622 9,14.197986 9,14.6122 Z M14.75,13.8622 C15.16421,13.8622 15.5,14.197986 15.5,14.6122 C15.5,15.026414 15.16421,15.3622 14.75,15.3622 C14.33579,15.3622 14,15.026414 14,14.6122 C14,14.197986 14.33579,13.8622 14.75,13.8622 L14.75,13.8622 Z" id="path24869" opacity="0.7" fill="#FFFFFF" sketch:type="MSShapeGroup"></path>
        </g>
    </g>
</svg>