<?xml version="1.0" encoding="UTF-8" standalone="no"?>
<svg width="17px" height="13px" viewBox="0 0 17 13" version="1.1" xmlns="http://www.w3.org/2000/svg" xmlns:xlink="http://www.w3.org/1999/xlink">
    <!-- Generator: Sketch 3.8.3 (29802) - http://www.bohemiancoding.com/sketch -->
    <title>subway-london-s</title>
    <desc>Created with Sketch.</desc>
    <defs>
        <path d="M8.5,12 C11.5375661,12 14,9.53756612 14,6.5 C14,3.46243388 11.5375661,1 8.5,1 C5.46243388,1 3,3.46243388 3,6.5 C3,9.53756612 5.46243388,12 8.5,12 Z M8.5,10 C10.4329966,10 12,8.43299662 12,6.5 C12,4.56700338 10.4329966,3 8.5,3 C6.56700338,3 5,4.56700338 5,6.5 C5,8.43299662 6.56700338,10 8.5,10 Z" id="path-1"></path>
        <rect id="path-2" x="1" y="5" width="15" height="3"></rect>
    </defs>
    <g id="POI-NIght" stroke="none" stroke-width="1" fill="none" fill-rule="evenodd">
        <g id="subway-london-s">
            <path d="M2.49816335,4 L0,4 L0,9 L2.49816335,9 C3.47772297,11.3489518 5.79605001,13 8.5,13 C11.20395,13 13.522277,11.3489518 14.5018367,9 L17,9 L17,4 L14.5018367,4 C13.522277,1.65104815 11.20395,0 8.5,0 C5.79605001,0 3.47772297,1.65104815 2.49816335,4 Z" id="Combined-Shape" fill-opacity="0.1" fill="#FFFFFF"></path>
            <g id="Oval-203">
                <use fill="#E12524" xlink:href="#path-1"></use>
                <use fill-opacity="0.4" fill="#000000" xlink:href="#path-1"></use>
            </g>
            <g id="Rectangle-330">
                <use fill="#043A86" xlink:href="#path-2"></use>
                <use fill-opacity="0.4" fill="#000000" xlink:href="#path-2"></use>
            </g>
        </g>
    </g>
</svg>