<svg viewBox="0 0 18 16" xmlns="http://www.w3.org/2000/svg">
 <g>
  <path d="m17.5 10-2.2-8.8c-0.2-0.7-0.9-1.2-1.6-1.2h-0.4-0.7-1.2-1-2.8-1-1.2-0.7-0.4c-0.7 0-1.4 0.5-1.6 1.2l-2.2 8.8c-0.1 0.5 0 1 0.3 1.4s0.7 0.6 1.2 0.6h0.7l1.7 3.4c0.2 0.4 0.5 0.6 0.9 0.6h7.3c0.4 0 0.7-0.2 0.9-0.5l1.8-3.5h0.7c0.5 0 0.9-0.2 1.2-0.6s0.4-0.9 0.3-1.4z" fill="#FFF" opacity=".4"/>
  <path d="m14.843 10.9-2.1432 4.1h-7.4l-2.0444-4h-1.2556c-0.1 0-0.3-0.1-0.4-0.3-0.1-0.1-0.1-0.3-0.1-0.5l2.2-8.8c0.1-0.2 0.3-0.4 0.6-0.4h1.1 1.2 1 2.8 1 1.2 1.1c0.3 0 0.5 0.2 0.7 0.4l2.2 8.8c0 0.2 0 0.4-0.1 0.5-0.2 0.1-0.3 0.2-0.5 0.2h-1.1568z"/>
  <polygon points="15.8 10 13.5 10 12.1 4.4 10.7 10 7.3 10 5.9 4.4 4.5 10 2.2 10 4.2 2 7.6 2 9 7.5 10.4 2 13.8 2" fill="#FFEA00" opacity=".6"/>
 </g>
</svg>
