<svg viewBox="0 0 19 19" xmlns="http://www.w3.org/2000/svg">
 <g>
  <circle cx="9.7" cy="9.9" r="9" fill="#FFF" opacity=".4"/>
  <circle cx="9.7" cy="9.9" r="8" fill="#0D1033"/>
  <path d="m12.7 8.0605c-0.17464-0.22759-0.45408-0.36054-0.8-0.36054h-0.5c-0.28599 0-0.52655 0.09088-0.7 0.25098v5.049c0 0.5-0.4 0.9-0.9 0.9h-0.2c-0.5 0-0.9-0.4-0.9-0.9v-4.9395c-0.17464-0.22759-0.45408-0.36054-0.8-0.36054h-0.4c-0.34592 0-0.62536 0.13296-0.8 0.36054v4.9395c0 0.5-0.4 0.9-0.9 0.9h-0.2c-0.5 0-0.9-0.4-0.9-0.9v-5.1h0.42639c0.3271-0.99713 1.2545-1.7 2.3736-1.7h0.5c0.68713 0 1.302 0.26498 1.75 0.70036 0.44801-0.43538 1.0629-0.70036 1.75-0.70036h0.5c1.1191 0 2.0465 0.70287 2.3736 1.7h0.32639v5.1c0 0.5-0.4 0.9-0.9 0.9h-0.2c-0.5 0-0.9-0.4-0.9-0.9v-4.9395z" fill="#B3B3B3"/>
 </g>
</svg>
