<svg width="33" height="26" viewBox="0 0 33 26">
  <g fill="none">
    <ellipse cx="16.5" cy="13" fill="#FFF" opacity=".4" rx="16.5" ry="13"/>
    <g transform="translate(1 1)">
      <path fill="#999" d="M15.5,23.5 C7.2,23.5 0.5,18.3 0.5,12 C0.5,5.7 7.2,0.5 15.5,0.5 C23.8,0.5 30.5,5.7 30.5,12 C30.5,18.3 23.8,23.5 15.5,23.5 Z"/>
      <path fill="#0D1033" d="M15.5,1 C23.5,1 30,5.9 30,12 C30,18.1 23.5,23 15.5,23 C7.5,23 1,18.1 1,12 C1,5.9 7.5,1 15.5,1 Z M15.5,0 C6.9,0 0,5.4 0,12 C0,18.6 6.9,24 15.5,24 C24.1,24 31,18.6 31,12 C31,5.4 24.1,0 15.5,0 Z"/>
    </g>
    <path fill="#0D1033" d="M23,11 C22.5,15.5 17.1,19 12.5,19 L12.9,19 L17.1,8 L11.6,8 L7,20 L10,20 L12.6,20 C17.6,20 23.6,16 24.1,11 L29,11 L31,8 L23,8 L23,11 Z"/>
  </g>
</svg>
