<svg width="29" height="28" viewBox="0 0 29 28">
  <g fill="none">
    <path fill="#FFF" d="M14,0 C6.3,0 -9.05386877e-14,6.3 -9.05386877e-14,14 C-9.05386877e-14,21.7 6.3,28 14,28 C21.7,28 28,21.7 28,14 C28,6.3 21.7,0 14,0 Z" opacity=".4"/>
    <path fill="#A3A3A3" d="M14,1 C6.8,1 1,6.8 1,14 C1,21.2 6.8,27 14,27 C21.2,27 27,21.2 27,14 C27,6.8 21.2,1 14,1 Z"/>
    <path fill="#A80000" d="M2,17.7817204 C2,16.1256695 7.13375796,11.6543319 11.1082803,10.3294911 C13.5923567,9.50146563 20.2165605,10.4950962 20.2165605,10.4950962 C20.2165605,10.4950962 13.5923567,11.1575166 11.9363057,11.9855421 C8.62420382,13.641593 6.96815287,15.297644 6.96815287,15.297644 C6.96815287,15.297644 18.0636943,11.1575166 28,12.8135675 C28,12.8135675 14.6687898,13.5587905 6.96815287,18.1129306 C6.22292994,18.5269433 5.39490446,18.9409561 4.48407643,19.1065612 C3.32484076,19.1893637 2,19.1893637 2,17.7817204 Z"/>
  </g>
</svg>
