<svg viewBox="0 0 23 23" xmlns="http://www.w3.org/2000/svg">
<path d="M23 .95a.95.95 0 0 0-.95-.95H.95A.95.95 0 0 0 0 .95v21.304c0 .524.425.95.95.95h21.1a.95.95 0 0 0 .95-.95z"/><path d="M320 33c0-6.627-5.373-12-12-12H31c-6.627 0-12 5.373-12 12v277c0 6.627 5.373 12 12 12h277c6.627 0 12-5.373 12-12z" style="fill:#f9d42b" transform="scale(.06785)"/><path d="M16.826 12.484a1.049 1.049 0 0 0-1.018-.814h-3.935a.814.814 0 0 0-.814.814v3.935c0 .45.365.814.814.814h5.02c.232 0 .479-.14.632-.35.143-.198.201-.461.157-.656z"/><path d="M6.678 4.953 1.968 15.91v4.512c0 .45.364.814.814.814h17.572c.45 0 .814-.364.814-.814v-1.086l-3.697-17.3H7.938l-.905 2.103h9.125l2.907 13.51c0 .333-.222.602-.567.602h-7.303a.746.746 0 0 1-.747-.73v-.627a.746.746 0 0 0-.746-.747H3.976c-.185 0-.223-.131-.217-.32a1.14 1.14 0 0 1 .105-.429L7.703 6.92h6.748V4.953H8.617"/></svg>