<svg viewBox="0 0 24 24" xmlns="http://www.w3.org/2000/svg">
 <g fill="none">
  <circle cx="12" cy="12" r="12" fill="#FFF" opacity=".4"/>
  <path transform="translate(1 1)" d="m11 0c6.1 0 11 4.9 11.1 11 0 3.2-1.4 6-3.5 8h-15.1c-2.2-2-3.5-4.8-3.5-8 0-6.1 4.9-11 11-11z" fill="#012C4D"/>
  <g transform="translate(4 3)">
   <path d="m5.9 8.5c-0.8 1.9-2.8 3.1-4.9 3.1h-0.5l4.7-10.3 2.8 5.6 2.8-5.6 4.7 10.3h-0.5c-2.1 0-4-1.2-4.9-3l-2.2 5.1-2-5.2z" fill="#900"/>
   <path d="m10.8 2 4.2 9.3c-2.1 0-4-1.2-4.7-3.1l-0.1-0.4-2.2 5.2-2.1-5.4-0.2 0.6c-0.7 1.9-2.6 3.1-4.7 3.1l4.2-9.3 2.8 5.5 2.8-5.5zm0-1.4-0.6 1.1-2.2 4.5-2.3-4.5-0.5-1.1-0.5 1.2-4.2 9.3-0.4 0.8h0.9c2 0 3.9-1 4.9-2.7l1.5 3.9 0.5 1.4 0.6-1.4 1.7-3.9c1 1.6 2.8 2.6 4.8 2.6h0.9l-0.4-0.8-4.2-9.3-0.5-1.1z" fill="#B3A400"/>
  </g>
  <path d="m19.5 20c-2 1.9-4.6 3-7.5 3s-5.6-1.1-7.5-3h15z" fill="#B3A400"/>
 </g>
</svg>
