<svg width="30" height="30" viewBox="0 0 30 30">
  <g fill="none">
    <rect width="30" height="30" fill="#FFF" opacity=".4"/>
    <rect width="28" height="28" x="1" y="1" fill="#A3A3A3"/>
    <path fill="#B37100" d="M25.5,28 C24.1,28 23,26.9 23,25.5 C23,24.1 24.1,23 25.5,23 C26.9,23 28,24.1 28,25.5 C28,26.9 26.9,28 25.5,28 Z M18.5,28 C17.1,28 16,26.9 16,25.5 C16,24.1 17.1,23 18.5,23 C19.9,23 21,24.1 21,25.5 C21,26.9 19.9,28 18.5,28 Z M11.5,28 C10.1,28 9,26.9 9,25.5 C9,24.1 10.1,23 11.5,23 C12.9,23 14,24.1 14,25.5 C14,26.9 12.9,28 11.5,28 Z M4.5,28 C3.1,28 2,26.9 2,25.5 C2,24.1 3.1,23 4.5,23 C5.9,23 7,24.1 7,25.5 C7,26.9 5.9,28 4.5,28 Z M25.5,21 C24.1,21 23,19.9 23,18.5 C23,17.1 24.1,16 25.5,16 C26.9,16 28,17.1 28,18.5 C28,19.9 26.9,21 25.5,21 Z M18.5,21 C17.1,21 16,19.9 16,18.5 C16,17.1 17.1,16 18.5,16 C19.9,16 21,17.1 21,18.5 C21,19.9 19.9,21 18.5,21 Z M11.5,21 C10.1,21 9,19.9 9,18.5 C9,17.1 10.1,16 11.5,16 C12.9,16 14,17.1 14,18.5 C14,19.9 12.9,21 11.5,21 Z M4.5,21 C3.1,21 2,19.9 2,18.5 C2,17.1 3.1,16 4.5,16 C5.9,16 7,17.1 7,18.5 C7,19.9 5.9,21 4.5,21 Z M25.5,14 C24.1,14 23,12.9 23,11.5 C23,10.1 24.1,9 25.5,9 C26.9,9 28,10.1 28,11.5 C28,12.9 26.9,14 25.5,14 Z M18.5,14 C17.1,14 16,12.9 16,11.5 C16,10.1 17.1,9 18.5,9 C19.9,9 21,10.1 21,11.5 C21,12.9 19.9,14 18.5,14 Z M11.5,14 C10.1,14 9,12.9 9,11.5 C9,10.1 10.1,9 11.5,9 C12.9,9 14,10.1 14,11.5 C14,12.9 12.9,14 11.5,14 Z M4.5,14 C3.1,14 2,12.9 2,11.5 C2,10.1 3.1,9 4.5,9 C5.9,9 7,10.1 7,11.5 C7,12.9 5.9,14 4.5,14 Z M25.5,7 C24.1,7 23,5.9 23,4.5 C23,3.1 24.1,2 25.5,2 C26.9,2 28,3.1 28,4.5 C28,5.9 26.9,7 25.5,7 Z M18.5,7 C17.1,7 16,5.9 16,4.5 C16,3.1 17.1,2 18.5,2 C19.9,2 21,3.1 21,4.5 C21,5.9 19.9,7 18.5,7 Z M11.5,7 C10.1,7 9,5.9 9,4.5 C9,3.1 10.1,2 11.5,2 C12.9,2 14,3.1 14,4.5 C14,5.9 12.9,7 11.5,7 Z M4.5,7 C3.1,7 2,5.9 2,4.5 C2,3.1 3.1,2 4.5,2 C5.9,2 7,3.1 7,4.5 C7,5.9 5.9,7 4.5,7 Z"/>
  </g>
</svg>
