<svg width="25" height="25" viewBox="0 0 25 25">
  <g fill="none">
    <path fill="#FFF" d="M12.5,0.5 C5.9,0.5 0.5,5.9 0.5,12.5 C0.5,19.1 5.9,24.5 12.5,24.5 C19.1,24.5 24.5,19.1 24.5,12.5 C24.5,5.9 19.1,0.5 12.5,0.5 Z" opacity=".4"/>
    <path fill="maroon" d="M12.5,23.7 C6.3,23.7 1.3,18.7 1.3,12.5 C1.3,6.3 6.3,1.3 12.5,1.3 C18.7,1.3 23.7,6.3 23.7,12.5 C23.7,18.7 18.7,23.7 12.5,23.7 Z"/>
    <path fill="#FFF" d="M6,6 L8.6,6 L9,6.9 L12.4,14.2 L12.5,14.3 L16,6.8 L16.4,6 L19,6 L19,19 L16,19 L16,12.3 L12.8,19 L12.5,19 L12.1,19 L11.1,17 L9,12.4 L9,19 L6,19 L6,6 Z" opacity=".6"/>
  </g>
</svg>
