<svg viewBox="0 0 18 18" xmlns="http://www.w3.org/2000/svg">
 <g fill="none">
  <circle cx="9" cy="9" r="9" fill="#FFF" opacity=".4"/>
  <path transform="translate(1 1)" d="m8 0c4.4 0 8 3.6 8 8 0 2.4-1 4.5-2.7 6h-10.6c-1.7-1.5-2.7-3.6-2.7-6 0-4.4 3.6-8 8-8z" fill="#012C4D"/>
  <g transform="translate(3 3)">
   <path d="m4.2 6.3-0.3 0.4c-0.6 1-1.7 1.5-2.9 1.5h-0.4l3.2-7.2 2.3 4 2.1-4 3.2 7.2h-0.4c-1.2 0-2.3-0.6-2.9-1.5l-0.2-0.3-1.9 3.1-1.8-3.2z" fill="#900"/>
   <path d="m8.2 1.6 2.8 6.4c-1.1 0-2.1-0.5-2.7-1.4l-0.4-0.7-1.9 3.1-1.8-3.2-0.5 0.8c-0.6 0.8-1.6 1.4-2.7 1.4l2.9-6.4 2.2 3.9 2.1-3.9zm0-1.1-0.5 0.9-1.6 3.1-1.8-3.1-0.5-0.9-0.4 0.9-2.9 6.4-0.3 0.7h0.8c1.3 0 2.4-0.6 3.1-1.6v-0.1l1.4 2.5 0.5 0.7 0.4-0.7 1.5-2.4c0.7 1 1.8 1.6 3.1 1.6h0.8l-0.3-0.7-2.9-6.4-0.4-0.9z" fill="#B3A400"/>
  </g>
  <path d="m14.3 15c-1.4 1.2-3.3 2-5.3 2s-3.9-0.8-5.3-2h10.6z" fill="#B3A400"/>
 </g>
</svg>
