<svg width="28" height="29" viewBox="0 0 28 29">
  <g fill="none">
    <circle cx="14" cy="14.5" r="14" fill="#FFF" opacity=".4"/>
    <circle cx="14" cy="14.5" r="13" fill="#B36500"/>
    <circle cx="14" cy="14.5" r="10" fill="#000"/>
    <circle cx="14" cy="14.5" r="6" fill="#A3A3A3"/>
    <path fill="#B36500" d="M14.9,15.6 C14.9477153,15.6 15,15.5477153 15,15.5 C15,15.4137524 14.9729396,15.3743918 14.92,15.36 L12.4286093,14.6284767 C11.5572276,14.279924 11,13.5200682 11,12.6 C11,11.4477153 11.9477153,10.5 13.1,10.5 L17,10.5 L17,12.5 L13.1,12.5 C13.0522847,12.5 13,12.5522847 13,12.6 C13,12.6708409 13.0333384,12.7163024 13.08,12.74 L15.3961161,13.4194193 C16.3763357,13.6154632 17,14.5226113 17,15.5 C17,16.6522847 16.0522847,17.6 14.9,17.6 L11,17.6 L11,15.6 L14.9,15.6 Z"/>
  </g>
</svg>
