<svg viewBox="0 0 21 19" xmlns="http://www.w3.org/2000/svg">
 <g>
  <path d="m19.071 3 0.22857-2h-17.2l-0.7 7h8.5v-0.2c0-0.1-0.1-0.2-0.1-0.2l-1.7-0.6c-0.7-0.3-1.2-1-1.2-1.9 0-0.5 0.1-1 0.4-1.3 0.3-0.5 0.8-0.8 1.3-0.8h10.471zm0.89222 1h-11.364c-0.1399 0-0.31976 0.10992-0.44251 0.3145l-0.063337 0.10556-0.087049 0.087049c-0.047332 0.047332-0.10711 0.26252-0.10711 0.59289 0 0.46914 0.23362 0.82644 0.53282 0.95701l1.9139 0.67549 0.16039 0.16039c0.055348 0.055348 0.11485 0.12477 0.17494 0.21491 0.13073 0.19609 0.21795 0.41414 0.21795 0.6922v1.2h-10.605l0.9-9h19.226l-0.45714 4zm-1.1208 1h-10.043v0.2c0 0.1 0 0.2 0.1 0.2l1.6 0.6c0.7 0.3 1.2 1 1.2 1.9 0 0.5-0.1 1-0.4 1.3-0.3 0.5-0.8 0.8-1.3 0.8h-3.82l-0.48 8h7.5l0.6-10h4.7l0.34286-3zm-4.7011 14h-9.5036l0.6-10h4.7618c0.1399 0 0.31976-0.10992 0.44251-0.3145l0.063337-0.10556 0.087049-0.087049c0.047332-0.047332 0.10711-0.26252 0.10711-0.59289 0-0.46914-0.23362-0.82644-0.55112-0.96367l-1.5128-0.56732c-0.36782-0.088674-0.65381-0.36006-0.77222-0.71529-0.058209-0.17463-0.063817-0.25875-0.063817-0.45373v-1.2h12.164l-0.57143 5h-4.6504l-0.6 10z" fill="#FFF" opacity=".4"/>
  <path d="m19.071 3h-10.471c-0.5 0-1 0.3-1.3 0.8-0.3 0.3-0.4 0.8-0.4 1.3 0 0.9 0.5 1.6 1.2 1.9l1.7 0.6s0.1 0.1 0.1 0.2v0.2h-3.6-4.9l0.7-7h17.2l-0.22857 2zm-0.22857 2-0.34286 3h-4.7l-0.6 10h-7.5l0.48-8h3.82c0.5 0 1-0.3 1.3-0.8 0.3-0.3 0.4-0.8 0.4-1.3 0-0.9-0.5-1.6-1.2-1.9l-1.6-0.6c-0.1 0-0.1-0.1-0.1-0.2v-0.2h10.043z" fill="#000D1A"/>
 </g>
</svg>
