<svg version="1.1" viewBox="0 0 24 16" xml:space="preserve" xmlns="http://www.w3.org/2000/svg">
<path d="m15.832041.13167236c-.742377 0-1.448531.13139697-2.12475.3227467-.644435-.17349264-1.317201-.29008783-2.021008-.29008781-.776244 0-1.513014.14419473-2.2150415.35348448-.5066589-.10822839-1.0315202-.18250557-1.5772326-.18250558-4.2330769 0-7.697893 3.464816-7.697893 7.697893 0 4.2330769 3.464816 7.6978929 7.697893 7.6978929.5471338 0 1.0707202-.07451 1.5772326-.182506.7020265.209289 1.4387955.353485 2.2150415.353485.704095 0 1.37532-.117932 2.019087-.292009.675824.191566 1.383161.324668 2.126671.324668 4.34984 0 7.901531-3.55169 7.901531-7.9015309 0-4.3498402-3.551691-7.9015307-7.901531-7.9015307z" fill="#000" opacity=".4"/>
<path d="m15.832041.92124911c-.742298 0-1.457258.11460419-2.130512.32658889-.639279-.1906088-1.315386-.29393-2.015246-.29393-.772632-1e-8-1.516125.1268198-2.2131204.3573267-.5079632-.1203474-1.0358996-.1863478-1.5791537-.1863478-3.8031779 0-6.9083162 3.1051382-6.9083162 6.9083162 0 3.8031779 3.1051383 6.9083169 6.9083162 6.9083169.5437681 0 1.0709701-.06644 1.5791537-.186349.6969954.230507 1.4404874.357327 2.2131204.357327.699243 0 1.373716-.104553 2.013325-.295851.673931.212454 1.389279.32851 2.132433.32851 3.921356 0 7.111954-3.190598 7.111954-7.1119539s-3.190598-7.111954-7.111954-7.111954zm-7.9380321.81647229c.1744538 0 .3458637.00861.5167791.023053-2.2585567 1.1851832-3.8057216 3.5528779-3.8057216 6.2724288 0 2.7195508 1.5471639 5.0872448 3.8057216 6.2724278-.1709154.01445-.3423253.02306-.5167791.02306-3.4271576 0-6.2205583-2.825351-6.2205583-6.2954818 0-3.4701314 2.7934007-6.2954817 6.2205583-6.2954817zm2.4282851.5033311c.28969.1255983.568437.2729072.833762.4399346-1.4913926 1.304716-2.4359691 3.2198888-2.4359691 5.352216 0 2.1323279.9445765 4.0474999 2.4359691 5.3522159-.27063.170368-.555115.320397-.851052.447619-2.4712485-.590812-4.3244219-3.017122-4.3244219-5.8113616 0-2.7938797 1.8564569-5.1430582 4.3417119-5.7806239zm6.199425.6320456c2.448149.3503083 4.349397 2.5338465 4.349397 5.160105 0 2.6130489-1.896212 4.7940719-4.339791 5.1485779 1.37223-1.292471 2.234252-3.123092 2.234252-5.1485779 0-2.0319949-.865197-3.866959-2.243858-5.160105zm-1.836581.088371c1.616408 1.0501063 2.695318 2.9242032 2.695318 5.0602071 0 2.1126028-1.068549 4.0231048-2.658818 5.0813398-.55049-.128278-1.066347-.348037-1.533046-.645494 1.004813-1.200192 1.611812-2.7438123 1.611812-4.4243191-.0047-1.6810274-.613574-3.2258895-1.619497-4.4262404.458517-.2943013.965201-.5147242 1.504231-.6454934zm-2.034457 1.0354788c.905126 1.0939244 1.45236 2.5014121 1.45236 4.0362548 0 1.5328916-.545454 2.9390803-1.448518 4.0324123-1.140185-.955811-1.871163-2.4105322-1.871163-4.0324123 0-1.6244767.730312-3.0792105 1.867321-4.0362548z" fill="#b2401e"/>
</svg>