<svg width="18" height="18" viewBox="0 0 18 18">
  <g fill="none">
    <path fill="#FFF" d="M9,18 C4,18 0,14 0,9 C0,4 4,0 9,0 C14,0 18,4 18,9 C18,14 14,18 9,18 Z" opacity=".4"/>
    <circle cx="9" cy="9" r="8" fill="#072552"/>
    <path fill="#B31031" d="M12.3,10.4 L11.5,9.5 L10.5,8.3 L9.8,7.6 C9.9,7.4 10,7.2 10,7 C10,6.5 9.5,6 9,6 C8.5,6 8,6.5 8,7 C8,7.2 8.1,7.4 8.2,7.5 L7.6,8.2 L6.5,9.4 L5.7,10.3 L4.3,12 L4.3,12.6 L4.7,13 L5.7,11.8 L7,10.3 L8,9.1 L8.9,8.1 L9.8,9.1 L10.9,10.3 L12.2,11.8 L13.2,12.9 L13.7,12.4 L13.7,12 L12.3,10.4 Z"/>
    <path fill="#9BA7B9" d="M13.8,5 L13.8,13 C13.8,13.4 13.5,13.8 13,13.8 C12.5,13.8 12.2,13.5 12.2,13 L12.2,7.9 L11.4,9.4 L10.9,10.3 L9.6,12.6 C9.3,13.1 8.5,13.1 8.3,12.6 L7,10.2 L6.5,9.4 L5.8,7.9 L5.8,13 C5.8,13.4 5.5,13.8 5,13.8 C4.5,13.8 4.3,13.4 4.3,13 L4.3,5 C4.3,4.7 4.5,4.4 4.9,4.3 C5.2,4.2 5.6,4.4 5.7,4.7 L7.7,8.3 L8.2,9.2 L9,10.8 L9.8,9.2 L10.3,8.3 L12.3,4.7 C12.5,4.4 12.8,4.2 13.1,4.3 C13.5,4.4 13.8,4.7 13.8,5 Z"/>
  </g>
</svg>
