<svg viewBox="0 0 24 24" xmlns="http://www.w3.org/2000/svg">
 <g>
  <circle cx="12" cy="12" r="11" fill="#C41F38"/>
  <path d="m12 1.2c6 0 10.8 4.8 10.8 10.8s-4.8 10.8-10.8 10.8-10.8-4.8-10.8-10.8 4.8-10.8 10.8-10.8zm0-1.2c-6.6 0-12 5.4-12 12s5.4 12 12 12 12-5.4 12-12-5.4-12-12-12z" fill="#FFF" opacity=".4"/>
  <circle cx="12" cy="12" r="11" fill="#145B99"/>
  <g transform="translate(3 7)" fill="#FFF" opacity=".6">
   <path d="m3.6 7.4c0.3 0 0.5-0.1 0.6-0.2s0.3-0.4 0.3-0.6h1.8c-0.1 0.7-0.4 1.3-1 1.7-0.5 0.4-1.2 0.6-2 0.6-0.9 0-1.6-0.3-2.1-0.9s-0.6-1.4-0.5-2.3v-0.1c0.1-1 0.5-1.8 1.1-2.3s1.4-0.9 2.3-0.9c0.8 0 1.4 0.2 1.8 0.7s0.6 1.1 0.4 1.8h-1.5c0-0.3 0-0.6-0.1-0.7-0.1-0.2-0.3-0.3-0.6-0.3-0.4 0-0.6 0.2-0.9 0.5-0.2 0.2-0.3 0.6-0.4 1.2v0.1c-0.1 0.5-0.1 1 0 1.3s0.4 0.4 0.8 0.4zm6.6-6.5-0.2 1.6h1l-0.2 1.4h-1l-0.4 2.9c0 0.2 0 0.4 0.1 0.5s0.2 0.1 0.4 0.1h0.2 0.2l-0.1 1.5c-0.2 0.1-0.4 0.1-0.5 0.1h-0.6c-0.6 0-1.1-0.2-1.4-0.5s-0.4-0.9-0.3-1.6l0.4-2.9h-0.9l0.2-1.4h0.9l0.2-1.6h2v-0.1zm4.4 7.9c-0.1-0.1-0.1-0.3-0.1-0.4v-0.5c-0.2 0.3-0.5 0.6-0.8 0.8s-0.6 0.3-1 0.3c-0.6 0-1.1-0.2-1.4-0.5s-0.4-0.8-0.4-1.4c0.1-0.6 0.4-1.1 0.9-1.5s1.2-0.6 2.2-0.6h0.8l0.1-0.4c0-0.3 0-0.5-0.1-0.6s-0.3-0.2-0.6-0.2c-0.2 0-0.4 0.1-0.5 0.2s-0.2 0.3-0.2 0.5h-1.9c0.1-0.6 0.4-1.1 0.9-1.5 0.6-0.4 1.3-0.6 2.1-0.6s1.3 0.2 1.8 0.6 0.6 0.9 0.5 1.7l-0.4 2.3c-0.1 0.3-0.1 0.7-0.1 0.9 0 0.3 0.1 0.6 0.1 0.9h-1.9zm-1.2-1.3c0.2 0 0.4-0.1 0.7-0.2s0.4-0.2 0.5-0.4l0.1-0.8h-0.8c-0.3 0-0.5 0.1-0.7 0.2-0.2 0.2-0.3 0.3-0.3 0.6 0 0.2 0 0.3 0.1 0.4s0.2 0.2 0.4 0.2z"/>
  </g>
 </g>
</svg>
