<svg width="24" height="24" viewBox="0 0 24 24">
  <g fill="none">
    <rect width="24" height="24" fill="#FFF" opacity=".4"/>
    <rect width="22" height="22" x="1" y="1" fill="#999"/>
    <path fill="#06224D" d="M14.1881603,13.31949 L13,17.1 C12.8,17.6 12.3,18 11.8,18 L11.6,18 C11,18 10.4,17.5 10.4,16.8 C10.4,16.6 10.4,16.3 10.5,16.1 L12.6,9.3 C12.7410403,8.87687906 13.0312734,8.55321997 13.4005586,8.39916338 C13.600744,8.09981406 14.000279,8 14.3,8 L14.6,8 C15.2,8 15.6,8.4 15.8,8.9 L16,9.5 L19,19 C19,19.2 19.1,19.5 19.1,19.8 C19.1,20.5 18.5,21.1 17.8,21.1 L17.5,21.1 C17,21.1 16.5,20.7 16.3,20.2 L14.1881603,13.31949 Z M10.7,9 C10.8,9.1 10.8,9.2 10.8,9.3 C10.8,9.5 10.8,9.8 10.7,10 L7.5,20.1 C7.4,20.6 6.9,21 6.3,21 L6,21 C5.3,21 4.7,20.4 4.7,19.7 C4.7,19.5 4.7,19.2 4.8,19 L8,8.9 C8.2,8.4 8.7,8 9.2,8 L9.5,8 C9.8,8 10.2,8.1 10.3,8.3 C10.5,8.5 10.7,8.8 10.7,9 Z M4.6,11.5 C4.2,9.5 4.9,7.2 6.4,5.5 C7.1,4.6 8.1,4 9.1,3.5 C10.1,3 11.3,2.8 12.4,2.8 C13.5,2.8 14.7,3 15.7,3.5 C16.7,4 17.7,4.6 18.4,5.5 C19.9,7.2 20.6,9.5 20.2,11.6 C19.8,9.5 18.8,7.8 17.4,6.6 C16,5.4 14.2,4.7 12.4,4.7 C10.6,4.7 8.8,5.4 7.4,6.6 C6,7.7 5,9.5 4.6,11.5 Z"/>
  </g>
</svg>
