<svg width="34" height="16" viewBox="0 0 34 16">
  <g fill="none">
    <polygon fill="#FFF" points="33 0 30.3 0 29.7 0 29.4 .5 25 8.4 25 1 25 0 24 0 21 0 20.3 0 20.1 .6 18 5.8 18 1 18 0 17 0 15.6 0 15 0 14.7 .5 12 5.9 12 1 12 0 11 0 9 0 8.4 0 8.1 .6 1.6 14.6 .9 16 2.5 16 3.5 16 4.1 16 4.4 15.5 8 8.4 8 15 8 16 9 16 10.5 16 11.1 16 11.4 15.5 14 10.3 14 15 14 16 15 16 17.5 16 18.1 16 18.4 15.5 20 12.3 20 15 20 16 21 16 26.5 16 27.1 16 27.4 15.5 29 12.3 29 15 29 16 30 16 33 16 34 16 34 15 34 2.2 34 1 34 0" opacity=".4"/>
    <polygon fill="#990C13" points="30.3 1 24 12.3 24 1 21 1 17 11 17 1 15.6 1 11 10.1 11 1 9 1 2.5 15 3.5 15 9 4.2 9 15 10.5 15 15 6.2 15 15 15 15 17.5 15 21 8.1 21 15 26.5 15 30 8.1 30 15 33 15 33 2.2 33 1"/>
  </g>
</svg>
