<svg width="30" height="18" viewBox="0 0 30 18">
  <g fill="none">
    <path fill="#FFF" d="M26.4,0 L2.6,0 C1.1,0 0,1.1 0,2.6 L0,15.5 C0,16.9 1.1,18 2.6,18 L26.5,18 C27.9,18 29.1,16.9 29.1,15.4 L29.1,2.6 C29,1.1 27.9,0 26.4,0 Z" opacity=".4"/>
    <path fill="#145B99" d="M26.4,17 L2.6,17 C1.7,17 1,16.3 1,15.4 L1,2.6 C1,1.7 1.7,1 2.6,1 L26.5,1 C27.3,1 28,1.7 28,2.6 L28,15.5 C28,16.3 27.3,17 26.4,17 Z"/>
    <path fill="#FFF" d="M10.3411335,11.9038488 L5.20034319,3 L7,3 L8.1,3 C8.53777583,3 8.9223162,3.1597064 9.1759371,3.4402772 L9.0602,3.5071 L13.9637219,12 L10.9,12 C10.7001537,12 10.5114014,11.9667179 10.3411335,11.9038488 Z M7,7.9169264 L7,15 L4.2,15 C3.5,15 3,14.5 3,13.8 L3,4.2 C3,3.5129281 3.48170184,3.01853693 4.16142226,3.00050975 L7,7.9169264 Z M17,3.01102087 L17,8.56521739 L15.6,11 C15.3968526,11.3047211 15.1421192,11.5578561 14.8488991,11.7332061 L12.9472544,8.43955749 L15.5,4 C15.8613542,3.45796871 16.3859294,3.07915849 17,3.01102087 Z M18,3 L24.5,3 C25.3,3 26,3.7 26,4.5 L26,13.4 C26,14.2 25.3,14.9 24.5,14.9 L18,14.9 L18,3 Z" opacity=".6"/>
  </g>
</svg>
