<svg width="19" height="11" viewBox="0 0 19 11">
  <g fill="none">
    <polygon fill="#FFF" points="7.457 .46 10.342 4.96 8.658 4.96 11.543 .46 12.4 0 13.274 .544 17.89 9.544 18.637 11 17 11 13.769 11 13.158 11 12.879 10.456 11.149 7.081 12.838 7.226 10.299 10.601 9.5 11 8.701 10.601 6.162 7.226 7.851 7.081 6.121 10.456 5.842 11 5.231 11 2 11 .363 11 1.11 9.544 5.726 .544 6.575 0" opacity=".4"/>
    <polygon fill="#004D21" points="6.615 1 9.5 5.5 12.385 1 17 10 13.769 10 12.038 6.625 9.5 10 6.962 6.625 5.231 10 2 10"/>
  </g>
</svg>
