<svg viewBox="0 0 29 23" xmlns="http://www.w3.org/2000/svg">
 <g fill="none">
  <ellipse cx="14.5" cy="11.5" rx="14.5" ry="11.5" fill="#FFF" opacity=".4"/>
  <g transform="translate(1 1)">
   <path d="m13.5 20.5c-7.2 0-13-4.5-13-10s5.8-10 13-10 13 4.5 13 10-5.8 10-13 10z" fill="#999"/>
   <path d="m13.5 1c6.9 0 12.5 4.3 12.5 9.5s-5.6 9.5-12.5 9.5-12.5-4.3-12.5-9.5 5.6-9.5 12.5-9.5zm0-1c-7.5 0-13.5 4.7-13.5 10.5s6 10.5 13.5 10.5 13.5-4.7 13.5-10.5-6-10.5-13.5-10.5z" fill="#0D1033"/>
  </g>
  <path d="m20.3 8.5c0 4.1-5 7.5-9.1 7.5h0.5l3.5-9h-4.6l-3.9 10h2.3 2.3-0.1c4.1 0 9-3 10-7h4.2l1.7-3h-7.1l0.3 1.5z" fill="#0D1033"/>
 </g>
</svg>
