<svg width="21" height="21" viewBox="0 0 21 21">
  <g fill="none">
    <rect width="21" height="21" fill="#FFF" opacity=".4" rx="1"/>
    <rect width="19" height="19" x="1" y="1" fill="#142433" rx="1"/>
    <path fill="#FFF" d="M14.6120386,17.1479476 C15.080502,16.8537691 15.741216,16.2446361 16.0284581,15.8421052 C16.448241,15.2538364 16.7530942,14.547041 16.9161838,13.783933 C16.9793566,13.4883442 16.9870747,12.9690008 17,8.14394673 L17,3 L13,3 L13,7.69540626 L13,10.891197 L13,13 C13,13 12.8947108,13.8778027 12.74109,14.1454241 C12.5483239,14.4812398 12.1926709,14.800785 11.8216015,14.971562 C10.8007105,15.4414056 9.30687889,15.2722362 8.59880422,14.6065956 C8.23819101,14.2675938 8,13 8,13 L8,7.79922785 L8,3 L4,3 L4.01423629,7.86219812 C4.01423629,12.9113456 4.02453241,13.337575 4.16190947,13.9754436 C4.50119535,15.5508141 5.54667035,16.8046612 7.147229,17.5557626 C8.32036755,18.1062871 9.83907519,18.3538472 11.2493779,18.2244419 C12.5059211,18.1091449 13.6798338,17.7333381 14.6120386,17.1479476 Z" opacity=".6"/>
  </g>
</svg>
