<svg width="27" height="21" viewBox="0 0 27 21">
  <g fill="none">
    <path fill="#FFF" d="M3.59746998,7 C5.03889741,2.9218267 8.92823411,0 13.5,0 C18.0717659,0 21.9611026,2.9218267 23.40253,7 L27,7 L27,14 L23.40253,14 C21.9611026,18.0781733 18.0717659,21 13.5,21 C8.92823411,21 5.0388974,18.0781733 3.59746997,14 L0,14 L0,7 L3.59746998,7 Z" opacity=".4"/>
    <path fill="#941818" d="M13.5,20 C8.25329488,20 4,15.7467051 4,10.5 C4,5.25329488 8.25329488,1 13.5,1 C18.7467051,1 23,5.25329488 23,10.5 C23,15.7467051 18.7467051,20 13.5,20 Z M13.5,16 C16.5375661,16 19,13.5375661 19,10.5 C19,7.46243388 16.5375661,5 13.5,5 C10.4624339,5 8,7.46243388 8,10.5 C8,13.5375661 10.4624339,16 13.5,16 Z"/>
    <rect width="25" height="5" x="1" y="8" fill="#021C40"/>
  </g>
</svg>
