<svg width="28" height="28" viewBox="0 0 28 28">
  <g fill="none">
    <rect width="28" height="28" fill="#FFF" opacity=".4"/>
    <rect width="26" height="26" x="1" y="1" fill="#000"/>
    <path fill="#FFF" d="M22.5,23.4 C22.3,23.6 22.1,23.8 21.9,24 L17.6,24 L17.3,23 L15.4,17.3 L20,21.2 L22.5,23.4 Z M13.2,17.3 L11.2,23.2 L10.9,24 L6.1,24 C6,23.9 5.9,23.8 5.8,23.7 L8.4,21.5 L13.2,17.3 Z M14,3 C20.6,3 26,8.4 26.1,15 C26.1,17.9 25.1,20.5 23.5,22.5 L22.1,21.3 L21,20.3 C22.1,18.8 22.8,17 22.8,15 C22.8,10.2 18.9,6.3 14.1,6.3 C9.3,6.3 5.4,10.2 5.4,15 C5.4,17.1 6.1,19 7.4,20.5 L6.3,21.4 L4.8,22.7 C3.1,20.6 2,18 2,15 C2,8.4 7.4,3 14,3 Z" opacity=".6"/>
  </g>
</svg>
