<svg width="28" height="29" viewBox="0 0 28 29">
  <g fill="none">
    <path fill="#FFF" d="M14,0 C6.8,0 0.9,5.8 0.9,13 C0.9,15.1 1.4,17.3 2.5,19.1 L0.3,24.9 C-0.1,25.8 0.1,26.9 0.6,27.7 C1.1,28.5 2,29 3,29 L9.6,29 C10.5,29 11.2,28.6 11.8,28.1 C12.4,28.7 13.2,29 14,29 C14.8,29 15.6,28.7 16.2,28.1 C16.8,28.7 17.5,29 18.4,29 L25,29 C26,29 26.9,28.5 27.5,27.7 C28.1,26.9 28.2,25.8 27.8,24.9 L25.5,19.1 C26.5,17.2 27,15.1 27,13 C27.1,5.8 21.2,0 14,0 Z" opacity=".4"/>
    <path fill="#3060B3" d="M24.4463331,18.9096902 L26.9,25.2 C27.2,25.9 27.1,26.5 26.7,27.1 C26.3,27.7 25.7,28 25,28 L18.4,28 C17.5,28 16.7,27.4 16.5,26.5 L16.4,26 L15.8,27 C15.4,27.6 14.8,28 14,28 C13.2,28 12.6,27.6 12.2,27 L11.6,26 L11.5,26.5 C11.3,27.4 10.5,28 9.6,28 L3,28 C2.4,28 1.8,27.8 1.4,27.2 C1,26.6 1,25.9 1.2,25.3 L3.59958963,18.989968 C2.58215424,17.2271968 2,15.1815831 2,13 C2,6.372583 7.372583,1 14,1 C20.627417,1 26,6.372583 26,13 C26,15.1485463 25.435344,17.16521 24.4463331,18.9096902 Z"/>
    <path fill="#FFF" d="M19.5,10.8 C19.2,10.8 18.9,10.9 18.7,11.2 L14,17.2 L9.3,11.2 C9.1,11 8.8,10.8 8.5,10.8 C8.5,10.8 8.4,10.8 8.4,10.8 C8,10.9 7.7,11.1 7.6,11.4 L2.1,25.6 C2,25.9 2,26.3 2.2,26.6 C2.4,26.9 2.7,27 3,27 L9.6,27 C10.1,27 10.5,26.7 10.6,26.3 L11.4,23.4 L13.2,26.5 C13.4,26.8 13.7,27 14.1,27 C14.5,27 14.8,26.8 15,26.5 L16.8,23.4 L17.6,26.3 C17.7,26.7 18.1,27 18.6,27 L25,27 C25.3,27 25.6,26.8 25.8,26.6 C26,26.4 26,26 25.9,25.7 L20.4,11.5 C20.3,11.2 20,10.9 19.6,10.9 C19.6,10.8 19.6,10.8 19.5,10.8 Z" opacity=".6"/>
    <polygon fill="#8A0000" points="25 26 19.5 11.8 14 18.8 8.5 11.8 3 26 9.6 26 11 20.7 14 26 17 20.7 18.4 26"/>
    <path fill="#FFF" d="M15,10 L16,10 L16,11 L15,11 L15,10 Z M15,5 L14,5 L13,5 L13,4 L14,4 L15,4 L15,5 Z M16,7 L17,8 L17,9 L17,10 L16,10 L16,9 L13,9 L13,10 L13,11 L12,11 L12,10 L12,9 L12,8 L12,7 L12,6 L11,6 L11,5 L12,5 L13,5 L13,6 L13,7 L14,7 L16,7 Z" opacity=".6"/>
  </g>
</svg>
