<svg viewBox="0 0 24 24" xmlns="http://www.w3.org/2000/svg">
 <g>
  <rect width="24" height="24" fill="#FFF" opacity=".4"/>
  <rect x="1" y="1" width="22" height="22" fill="#145B99"/>
  <path d="m15.2 7.3c-1.3 0.7-2.4 1.4-3.2 2.2-0.8-0.7-1.8-1.5-3.2-2.2-8-4.4-6.2 3.5-3.5 9.7l3.5-0.9s-5.3-8-1.8-8c1.6 0 3.1 0.9 4.2 2-3.4 3.5-2.2 5.9 0.5 5.9 6.2 0 2.1-4.8 1.1-5.9 1.1-1.1 2.5-2 4.2-2 3.5 0-1.8 8-1.8 8l3.5 0.9c2.6-6.2 4.4-14.1-3.5-9.7zm-2 6.4c-0.5 0.9-2.5 0.8-2.5-0.3 0-0.4 0.5-1.3 1.2-2.3 1.5 1.2 1.7 2.1 1.3 2.6z" fill="#FFF" opacity=".6"/>
 </g>
</svg>
