<svg width="18" height="18" viewBox="0 0 18 18">
  <g fill="none">
    <rect width="18" height="18" fill="#FFF" opacity=".4"/>
    <rect width="16" height="16" x="1" y="1" fill="#999"/>
    <path fill="#06224D" d="M10.8801782,10.3293987 L10,13.3 C9.9,13.7 9.5,14 9.1,14 L8.9,14 C8.4,14 8,13.6 8,13 C8,12.8 8,12.6 8.1,12.4 L9.6,7.2 C9.63577182,7.0211409 9.70993233,6.86787426 9.81332665,6.74477753 L9.8,6.7 C9.7,6.5 9.7,6.3 9.7,6.1 C9.7,6 9.7,6 9.7,5.9 C9.7,5.7 9.8,5.5 10,5.3 C10.2,5.1 10.5,5 10.8,5 L11,5 C11.4,5 11.8,5.3 12,5.8 L14.4,14.2 C14.5,14.4 14.5,14.6 14.6,14.8 C14.6,15.4 14.1,15.9 13.5,15.9 L13.3,15.9 C12.9,15.9 12.4,15.6 12.3,15.1 L10.8801782,10.3293987 Z M8.6,5.9 C8.6,6 8.6,6.1 8.6,6.1 C8.6,6.3 8.6,6.5 8.5,6.7 L6,15.1 C5.9,15.6 5.5,15.9 5,15.9 L4.8,15.9 C4.2,15.9 3.7,15.4 3.7,14.8 C3.7,14.6 3.7,14.4 3.8,14.2 L6.3,5.8 C6.4,5.3 6.8,5 7.3,5 L7.5,5 C7.8,5 8.1,5.1 8.3,5.3 C8.5,5.5 8.6,5.7 8.6,5.9 Z M3.8,7.9 C3.6,6.4 4.1,4.8 5.1,3.7 C6.1,2.5 7.6,1.8 9.1,1.8 C10.6,1.8 12.1,2.5 13.1,3.7 C14.1,4.8 14.6,6.5 14.4,7.9 C14.2,6.4 13.6,5.1 12.6,4.2 C11.6,3.3 10.4,2.8 9.1,2.8 C7.8,2.8 6.6,3.3 5.6,4.2 C4.6,5.1 3.9,6.4 3.8,7.9 Z"/>
  </g>
</svg>
