<svg viewBox="0 0 19 19" xmlns="http://www.w3.org/2000/svg">
 <g>
  <circle cx="9.5" cy="9.5" r="9.5" fill="#FFF" opacity=".4"/>
  <circle cx="9.5" cy="9.5" r="8.5" fill="#0A234D"/>
  <circle cx="9.5" cy="9.5" r="7.5" fill="#A3A3A3"/>
  <path d="m14 13.357v-7.4785c0-0.42838-0.24782-0.87847-0.99451-0.87847-0.56441 0-0.79142 0.23579-1.0399 0.70764l-2.4428 4.8213h-0.022273l-2.4651-4.8213c-0.24882-0.47184-0.47464-0.70764-1.0405-0.70764-0.7461 0-0.99496 0.45009-0.99496 0.87847v7.4785c0 0.40831 0.33964 0.64307 0.74614 0.64307 0.36155 0 0.76869-0.23476 0.76869-0.64307v-5.5712h0.022955l2.2386 4.3286c0.15832 0.3001 0.36228 0.47223 0.72414 0.47223 0.36123 0 0.56519-0.17213 0.72378-0.47223l2.2382-4.3286h0.023v5.5712c0 0.40831 0.40646 0.64307 0.76837 0.64307 0.40778 0 0.74605-0.23476 0.74605-0.64307z" fill="#0A234D"/>
 </g>
</svg>
