<svg width="25" height="25" viewBox="0 0 25 25">
  <g fill="none">
    <circle cx="12.5" cy="12.5" r="12.5" fill="#FFF" opacity=".4"/>
    <path fill="#000" d="M10,23.7 C4.9,22.6 1,18 1,12.5 C1,6.1 6.2,1 12.5,1 C18.9,1 24,6.1 24,12.5 C24,18 20.2,22.6 15,23.7 C14.4,23.9 13.7,24 13,24 L13,22 L13,13 L13,11 L20,11 L20,13 L15,13 L15,21.7 C19,20.6 22,16.9 22,12.5 C22,7.3 17.7,3 12.5,3 C7.3,3 3,7.3 3,12.5 C3,16.9 6,20.6 10,21.7 L10,13 L5,13 L5,11 L12,11 L12,13 L12,24 C11.3,24 10.7,23.9 10,23.7 Z M5,8 L20,8 L20,10 L5,10 L5,8 Z"/>
  </g>
</svg>
