<svg viewBox="0 0 23 23" xmlns="http://www.w3.org/2000/svg">
 <g>
  <path d="m11.5 0c-6.3 0-11.5 5.2-11.5 11.5s5.2 11.5 11.5 11.5 11.5-5.2 11.5-11.5-5.2-11.5-11.5-11.5z" fill="#FFF" opacity=".4"/>
  <path d="m11.5 1c-5.8 0-10.5 4.7-10.5 10.5s4.7 10.5 10.5 10.5 10.5-4.7 10.5-10.5-4.7-10.5-10.5-10.5z" fill="#A3A3A3"/>
  <path d="m13 12.418v-9.2862c3.979 0.70847 7 4.1855 7 8.3681 0 4.6944-3.8056 8.5-8.5 8.5-4.6944 0-8.5-3.8056-8.5-8.5 0-4.1826 3.021-7.6596 7-8.3681v8.957l-2.8-2.4889-1.9 1.7 6.4 5.7 6.3-5.7-1.9-1.7-3.1 2.8182z" fill="#06224D"/>
 </g>
</svg>
