<svg viewBox="0 0 15 15" xmlns="http://www.w3.org/2000/svg">
 <g>
  <circle cx="7.5" cy="7.5" r="7.5" fill="#FFF" opacity=".4"/>
  <circle cx="7.5" cy="7.5" r="6.5" fill="#0A234D"/>
  <circle cx="7.5" cy="7.5" r="5.5" fill="#A3A3A3"/>
  <path d="m11 10.5v-5.8166c0-0.33318-0.19275-0.68326-0.77351-0.68326-0.43899 0-0.61555 0.18339-0.80879 0.55038l-1.9 3.7499h-0.017323l-1.9173-3.7499c-0.19353-0.36699-0.36917-0.55038-0.80925-0.55038-0.5803 0-0.77386 0.35007-0.77386 0.68326v5.8166c0 0.31757 0.26416 0.50016 0.58033 0.50016 0.2812 0 0.59787-0.18259 0.59787-0.50016v-4.3331h0.017854l1.7411 3.3667c0.12314 0.23341 0.28177 0.36729 0.56322 0.36729 0.28096 0 0.43959-0.13388 0.56294-0.36729l1.7409-3.3667h0.017889v4.3331c0 0.31757 0.31613 0.50016 0.59762 0.50016 0.31716 0 0.58026-0.18259 0.58026-0.50016z" fill="#0A234D"/>
 </g>
</svg>
