<svg width="29" height="22" viewBox="0 0 29 22">
  <g fill="none">
    <path fill="#FFF" d="M18,0 C13.7,0 10,2.4 8.2,6 L1,6 C0.6,6 0.2,6.2 0.1,6.6 C3.53883589e-16,7 3.53883589e-16,7.4 0.3,7.7 C2.1,9.5 4.5,10.6 7,10.9 C7,10.9 7,10.9 7,11 L5,11 C4.6,11 4.2,11.2 4.1,11.6 C4,12 4,12.4 4.3,12.7 C5.3,13.7 6.5,14.5 7.8,15.1 C9.4,19.1 13.4,22 18,22 C24.1,22 29,17.1 29,11 C29,4.9 24.1,0 18,0 Z" opacity=".4"/>
    <path fill="#000" d="M28,11 C28,16.5 23.5,21 18,21 C14.3,21 11.1,19 9.3,16 L11.7,16 C13.2,17.8 15.4,19 17.9,19 C22.3,19 25.9,15.4 25.9,11 C25.9,6.6 22.3,3 17.9,3 C15.4,3 13.1,4.2 11.7,6 L9.3,6 C11,3 14.3,1 18,1 C23.5,1 28,5.5 28,11 Z"/>
    <path fill="#800006" d="M1,7 L16,7 C17.7,7 19,8.3 19,10 L17,12 L16,10 L8.2,10 C5.5,10 2.9,8.9 1,7 Z M5,12 L13,12 C14.7,12 16,13.3 16,15 L14,17 L13,15 L12.2,15 C9.5,15 6.9,13.9 5,12 Z"/>
  </g>
</svg>
