<svg viewBox="0 0 25 24" xmlns="http://www.w3.org/2000/svg">
 <g fill="none">
  <circle cx="12.4" cy="11.8" r="10.8" fill="#999"/>
  <path d="m12.4 1c5.9 0 10.8 4.8 10.8 10.8s-4.8 10.8-10.8 10.8-10.8-4.9-10.8-10.8 4.8-10.8 10.8-10.8zm0-1c-6.5 0-11.8 5.3-11.8 11.8s5.3 11.8 11.8 11.8 11.8-5.3 11.8-11.8-5.3-11.8-11.8-11.8z" fill="#FFF" opacity=".4"/>
  <g transform="translate(4 5)">
   <path d="m0 12.4 0.5-1.5s5.1-1 5.1-2.6l1-1c0.1 0 3.2 3.6-6.6 5.1zm6.2-5.5-1.1 1-1.5-1h2.6z" fill="#143E99"/>
   <path d="m3.6 6.7s0-2.6 4.6-3.6l-1 2.1-3.6 1.5z" fill="#99004F"/>
   <polygon points="8.9 3 8.9 4.5 15.9 1.5 15.9 0" fill="#133314"/>
   <polygon points="9.3 8.8 10.8 8.2 11.9 3.6 10.3 4.6" fill="#993212"/>
  </g>
 </g>
</svg>
