<svg viewBox="0 0 18 19" xmlns="http://www.w3.org/2000/svg">
 <g>
  <path d="m9 0.3c-5 0-9 4-9 9s4 9 9 9 9-4 9-9c0-4.9-4-9-9-9z" fill="#FFF" opacity=".4"/>
  <path d="m9 1.3c-4.4 0-8 3.6-8 8s3.6 8 8 8 8-3.6 8-8-3.6-8-8-8z" fill="#2E7D32"/>
  <circle cx="9" cy="9.3" r="7" fill="#A3A3A3"/>
  <path d="m5 7.1929v0.10714h-1v-1h0.5 1.1l2.8 5h-1.1l-2.3-4.1071zm2.86 0.10714h-0.86v-1h0.3 1.1l2.8 5h-1.1l-2.24-4zm2.8 0h-0.66v-1h0.1 1.2l2.7 5h-1.1l-2.24-4zm-6.16 3c-0.27614 0-0.5-0.22386-0.5-0.5 0-0.27614 0.22386-0.5 0.5-0.5s0.5 0.22386 0.5 0.5c0 0.27614-0.22386 0.5-0.5 0.5z" fill="#06224D"/>
 </g>
</svg>
