<svg viewBox="0 0 19 19" xmlns="http://www.w3.org/2000/svg">
 <g fill="none">
  <circle cx="9.5" cy="9.5" r="9.5" fill="#FFF" opacity=".4"/>
  <g transform="translate(1 1)">
   <circle cx="8.5" cy="8.5" r="8.5" fill="#B3A400"/>
   <path d="m8.5 1.1c4.1 0 7.4 3.3 7.4 7.4s-3.3 7.4-7.4 7.4-7.4-3.3-7.4-7.4 3.3-7.4 7.4-7.4zm0-1.1c-4.7 0-8.5 3.8-8.5 8.5s3.8 8.5 8.5 8.5 8.5-3.8 8.5-8.5-3.8-8.5-8.5-8.5z" fill="#8C0000"/>
  </g>
  <g transform="translate(4 5)" fill="#8C0000">
   <path d="m11.2 8h-2l-1.2-5-0.9 2.2-1.1-1.5 1.4-3.7h2l1.8 8zm-4.2-2v3l-3.2-1.8 0.8-0.3-1.4-3.4-1 4.5h-2l1.8-8h2l1.8 6.4 1.2-0.4z"/>
  </g>
 </g>
</svg>
