<svg width="24" height="24" viewBox="0 0 24 24">
  <g fill="none" fill-rule="evenodd">
    <g fill-rule="nonzero">
      <circle cx="12" cy="12" r="12" fill="#FFF" opacity=".4"/>
      <g transform="translate(1 1)">
        <path fill="#A3A3A3" d="M11,21.5 C5.2,21.5 0.5,16.8 0.5,11 C0.5,5.2 5.2,0.5 11,0.5 C16.8,0.5 21.5,5.2 21.5,11 C21.5,16.8 16.8,21.5 11,21.5 Z"/>
        <path fill="#133314" d="M11,1 C16.5,1 21,5.5 21,11 C21,16.5 16.5,21 11,21 C5.5,21 1,16.5 1,11 C1,5.5 5.5,1 11,1 Z M11,0 C4.9,0 0,4.9 0,11 C0,17.1 4.9,22 11,22 C17.1,22 22,17.1 22,11 C22,4.9 17.1,0 11,0 Z"/>
      </g>
    </g>
    <g transform="translate(4 4)">
      <path fill="#133314" fill-rule="nonzero" d="M6.33629211,8.42551579 L7.86988957,5.35832087 L8.1,5.7 L8.18001351,5.57352703 L9.65509259,8.52368519 L7.9,10.7 L6.33629211,8.42551579 Z M3.43105,12 L0,12 L4.8,0.8 L7.22825478,4.40559044 L3.43105,12 Z M12.51125,12 L10.6366667,8.25083334 L10.4,7.6 L10.345216,7.6679321 L8.80448198,4.58646396 L11.2,0.8 L16,12 L12.51125,12 Z"/>
    </g>
  </g>
</svg>
