<svg width="28" height="28" viewBox="0 0 28 28">
  <g fill="none">
    <rect width="28" height="28" fill="#FFF" opacity=".4"/>
    <rect width="26" height="26" x="1" y="1" fill="#2238B3"/>
    <path fill="#FFF" d="M26,6 C14,17 24,15 23.9,15 C23.9,19 20.9,20 20.9,20 C16.7,14.1 14.6,23.1 14.1,26.1 C14.1,26.3 13.8,26.3 13.8,26.1 C13.3,23.1 11.2,14.1 7,20 C7,20 4,19 4,15 C4,15 14,17 2,6 C2,6 15,11 11,4 C11,4 11,3 14,3 C17,3 17,4 17,4 C13,11 26,6 26,6 Z M9.4,10 C13.1,12.8 14,17.4 14,17.4 C14.9,11.8 17.7,10 17.7,10 L9.4,10 Z" opacity=".6"/>
  </g>
</svg>
