<svg width="25" height="25" viewBox="0 0 25 25">
  <g fill="none">
    <circle cx="12.7" cy="12.9" r="12" fill="#FFF" opacity=".4"/>
    <circle cx="12.7" cy="12.9" r="11" fill="#0D1033"/>
    <path fill="#B3B3B3" d="M12.75,18.8987717 C12.7334361,18.8995874 12.7167662,18.9 12.7,18.9 C12.1477153,18.9 11.7,18.4522847 11.7,17.9 L11.7,10.1 C11.7,9.95900749 11.7092469,9.81965227 11.7271825,9.68255909 C11.5455401,9.17418928 11.0474683,8.8 10.5,8.8 L9,8.8 C8.29289925,8.8 7.7,9.4108659 7.7,10.1 L7.7,17.9 C7.7,18.4522847 7.25228475,18.9 6.7,18.9 C6.14771525,18.9 5.7,18.4522847 5.7,17.9 L5.7,10.1 C5.7,8.31943713 7.17474781,6.8 9,6.8 L10.5,6.8 C11.3572865,6.8 12.1540407,7.14186536 12.7498216,7.70011844 C13.3388997,7.14552354 14.1295971,6.8 15,6.8 L16.5,6.8 C18.2805629,6.8 19.8,8.27474781 19.8,10.1 L19.8,17.9 C19.8,18.4522847 19.3522847,18.9 18.8,18.9 C18.2477153,18.9 17.8,18.4522847 17.8,17.9 L17.8,10.1 C17.8,9.39289925 17.1891341,8.8 16.5,8.8 L15,8.8 C14.440649,8.8 13.9527605,9.18225409 13.7732921,9.68312388 C13.790903,9.81963689 13.8,9.9587692 13.8,10.1 L13.8,17.9 C13.8,18.4522847 13.3522847,18.9 12.8,18.9 C12.7832338,18.9 12.7665639,18.8995874 12.75,18.8987717 Z"/>
  </g>
</svg>
