<svg width="33" height="22" viewBox="0 0 33 22">
  <g fill="none">
    <path fill="#FFF" d="M31.9,10.8 L22.2,3.5 C22.1,3.4 21.9,3.4 21.8,3.3 C22,2.9 22,2.4 21.6,2.1 L20.9,1.4 C20.7,1.2 20.5,1.1 20.2,1.1 C19.9,1.1 19.7,1.2 19.5,1.4 L18,2.9 L18,1 C18,0.4 17.6,0 17,0 L16,0 C15.4,0 15,0.4 15,1 L15,2.9 L13.5,1.4 C13.3,1.2 13.1,1.1 12.8,1.1 C12.5,1.1 12.3,1.2 12.1,1.4 L11.4,2.1 C11,2.4 11,2.9 11.3,3.3 C11.2,3.3 11,3.4 10.9,3.5 L1.2,10.8 C0.9,11 0.8,11.3 0.8,11.6 C0.8,11.9 1,12.2 1.3,12.4 L16,21.7 C16.2,21.8 16.3,21.9 16.5,21.9 C16.7,21.9 16.9,21.8 17,21.7 L31.8,12.4 C32.1,12.2 32.3,11.9 32.3,11.6 C32.3,11.3 32.1,11 31.9,10.8 Z" opacity=".4"/>
    <g transform="translate(1 1)">
      <polygon fill="#A3A3A3" points="28.5 10.5 15.5 18.7 2.5 10.5 10.5 4.5 15.5 7.8 20.5 4.5"/>
      <path fill="#8C0B12" d="M15.5,19.9 L0.7,10.6 L10.4,3.3 L15.4,6.7 L20.4,3.3 L30.1,10.6 L15.5,19.9 Z M4.3,10.4 L15.5,17.5 L26.7,10.4 L20.4,5.7 L15.4,9 L10.4,5.7 L4.3,10.4 Z M13.9143,3.207 L13.2072,3.9141 L11.0859,1.7928 L11.793,1.0857 L13.9143,3.207 Z M19.207,1.0856 L19.9141,1.7927 L17.7928,3.914 L17.0857,3.2069 L19.207,1.0856 Z M15,0 L16,0 L16,3 L15,3 L15,0 Z"/>
    </g>
  </g>
</svg>
