<svg viewBox="0 0 18 18" xmlns="http://www.w3.org/2000/svg">
 <g>
  <rect width="18" height="18" fill="#FFF" opacity=".4"/>
  <rect x="1" y="1" width="16" height="16" fill="#999"/>
  <path d="m13.798 14.854c-0.034431 0.0156-0.067246 0.030845-0.097737 0.046091l-0.6-0.9c0.027186-0.0090621 0.054373-0.018124 0.081559-0.027261l-2.2816-3.3727-1.9 2.5-1.9-2.5-2.3 3.4-0.7 1h-0.3c-0.3-0.1-0.6-0.3-0.8-0.4l0.04787-0.068385c-0.015685-0.010256-0.031631-0.020789-0.04787-0.031615h-0.1c-0.6-0.4-1.1-1-1.4-1.6-0.8-1.6-0.4-3.5 1-5.1 0.5-0.5 1.3-0.8 2-0.8h0.1c0.2-0.8 0.6-1.6 1.2-2.2 0.8-0.8 1.9-1.2 3-1.2 0.9 0 2.1 0.2 3.4 1.4 0.5 0.5 0.8 1.1 0.8 1.8v0.2c0.8 0 1.5 0.3 2 0.8 1.4 1.6 1.8 3.5 0.8 5-0.28341 0.56682-0.56682 0.95515-1.0189 1.3336l0.11885 0.16639-0.3 0.3c-0.2 0.1-0.5 0.3-0.7 0.4l-0.10226-0.14609zm-9.9631-1.4058 3.1654-4.7481 2 2.9 2-2.9 3.2626 4.7457c1.253-1.1138 1.7081-3.1765-0.062646-5.0457-0.2-0.3-0.6-0.4-0.9-0.4h-1.3v-1.4c0-0.3-0.1-0.6-0.3-0.9-0.9-0.8-1.9-1.2-2.7-1.2-1.7 0-3 1.4-3 3.1v0.4h-1.3c-0.4 0-0.7 0.1-1 0.3-1.8 1.9-1.3 4.1 0 5.1 0.048725 0 0.097451 0.023742 0.13461 0.048088z" fill="#1D3099"/>
 </g>
</svg>
