<svg width="31" height="15" viewBox="0 0 31 15">
  <g fill="none">
    <path fill="#FFF" d="M28.5,6.5 L28.9,5.4 L29.9,2.8 L30.2,2.1 L29.6,1.6 C28.3,0.6 26.5,4.4408921e-16 24.8,4.4408921e-16 C23.2,4.4408921e-16 21.8,0.5 20.9,1.5 L21,1.3 L21.3,0 L20,0 L18.8,0 L17.7,0 L14.3,0 L13.4,0 L12.4,0 L11.8,0 L11,0 L8.2,0 L7,0 L4,0 L3.6,0 L3,0 L2.8,0 L2.7,0.9 L1.1,13.9 L0.9,15 L2,15 L3,15 L4,15 L5.4,15 L6.3,15 L9,15 L9.7,15 L9.9,14.3 L10.9,11.3 L11.3,10 L10,10 L8.7,10 L8.9,9.3 L9.9,6.3 L10.4,5 L10.7,5 L11,5 L12.8,5 L11.7,13.9 L11.6,15 L12.7,15 L16.1,15 L17,15 L17.1,14.1 L18.2,5 L19.2,5 L19.6,5 C19.6,6.2 20,7.1 20.6,7.8 L20.1,9 L19,11.6 L18.7,12.2 L19.2,12.7 C20.7,14.2 22.7,15 24.8,15 C27.9,15 30,13 30,10.1 C30,8.3 29.3,7.2 28.5,6.5 Z M12.7,14 L13.8,5 L12.7,14 Z M24.8,10.3 C24.1,10.3 22.9,9.8 22,8.9 C22.6,9.2 23.3,9.4 23.8,9.6 C24.3,9.8 25,10 25.1,10.2 C25.1,10.2 25.1,10.2 25.1,10.2 C25.1,10.3 25,10.3 24.8,10.3 Z M25.8,5.2 C25.5,5.1 24.9,4.9 24.6,4.7 C25.1,4.7 26,5.1 26.9,5.6 C26.5,5.4 26.1,5.3 25.8,5.2 Z" opacity=".4"/>
    <path fill="#000D1A" d="M13.9307692,4 L11,4 L11.8,1 L20,1 L19.2,4 L17.3307692,4 L16.1,14 L12.7,14 L13.9307692,4 Z M4,1 L11,1 L10,4 L6.63076923,4 L6.38461538,6 L9,6 L8,9 L6.01538462,9 L5.76923077,11 L10,11 L9,14 L4,14 L2,14 L3.6,1 L4,1 Z M24.6,3.7 C23.9,3.7 23.5,4 23.5,4.6 C23.5,6.7 29.1,5.5 29.1,10.1 C29.1,12.7 27.2,14 24.9,14 C23.1,14 21.3,13.2 20,12 L21,9.4 C22.1,10.5 23.7,11.3 24.8,11.3 C25.6,11.3 26.1,10.9 26.1,10.3 C26.1,8.1 20.5,9.4 20.5,4.9 C20.5,2.5 22.2,1 24.7,1 C26.2,1 27.8,1.6 28.9,2.4 L27.9,5 C26.8,4.3 25.4,3.7 24.6,3.7 Z"/>
  </g>
</svg>
