<svg viewBox="0 0 26 10" xmlns="http://www.w3.org/2000/svg">
 <g>
  <path d="m23.5 0h-4.1-0.9-0.5-0.7-4.2-0.1-0.4-1.6-5.2-0.5l-0.3 0.4-4.4 6.1c-0.4 0.5-0.5 1.2-0.4 1.9 0.3 1 1.1 1.6 2.1 1.6h5.7 1 1.8 1.2 0.8 0.2 3.5 0.5l0.3-0.4 2.1-2.6h1.1 0.5l0.3-0.5 3.1-5 0.9-1.5h-1.8z" fill="#FFF" opacity=".4"/>
  <path d="m18.6 1h4.9l-3.1 5h-1.5l-2.4 3h-3.7l5.8-8zm-12.8 0h5.2l-2.5 3h-1.8l-0.5 1h1.8v4h-5.6c-0.6 0-1-0.4-1.2-0.9-0.1-0.3 0-0.7 0.2-1l4.4-6.1zm2.2 2 0.7-1h-2.7l-3.5 5h3.5v-1h-1.3l1.7-3h1.6zm5.2-2h4.2l-3.1 4h-2.3v4h-3v-4h1.1l3.1-4z" fill="#133314"/>
 </g>
</svg>
