<svg viewBox="0 0 18 14.659">
  <path fill="#fff" d="m2.015 0-.196.295C.125 2.859 0 6.859 0 7.33c0 .484.129 4.479 1.82 7.035l.195.294H18V0z" opacity=".4"/>
  <path fill="#930000" d="M16.964 1.034v12.59H2.61c-.435-.728-.85-1.83-.989-2.29a13.825 13.825 0 0 1-.586-4.004c0-1.592.267-2.949.586-4.004.14-.46.552-1.56.989-2.29z"/>
  <path fill="#A3A3A3" d="M10.414 11.247h-1.59L7.42 6.655a9.586 9.586 0 0 1-.214-.934l-.042 5.526h-1.65l.245-7.841H7.87l1.538 5.052c.092.318.184.74.184 1.016h.052c0-.277.092-.698.184-1.015l1.537-5.054h2.112l.246 7.841h-1.65l-.042-5.525a9.464 9.464 0 0 1-.215.933z"/>
</svg>
