<svg width="24" height="15" viewBox="0 0 24 15">
  <g fill="none">
    <path fill="#FFF" d="M20.4,0 L2.6,0 C1.1,0 0,1.1 0,2.6 L0,12.5 C0,13.9 1.1,15 2.6,15 L20.5,15 C21.9,15 23.1,13.9 23.1,12.4 L23.1,2.6 C23,1.1 21.9,0 20.4,0 Z" opacity=".4"/>
    <path fill="#145B99" d="M20.4,14 L2.6,14 C1.7,14 1,13.3 1,12.4 L1,2.6 C1,1.7 1.7,1 2.6,1 L20.5,1 C21.3,1 22,1.7 22,2.6 L22,12.5 C22,13.3 21.3,14 20.4,14 Z"/>
    <path fill="#FFF" d="M8.7437615,9.91108693 L4.75352656,3 L6,3 L7,3 C7.30702969,3 7.61405938,3.11783404 7.87586589,3.35350212 L11.7038383,9.98355037 C11.6998287,9.98419561 11.6958175,9.98482229 11.6918045,9.98543021 L11.7,10 L9.2,10 C9.04601898,10 8.89203797,9.97036231 8.7437615,9.91108693 Z M6,6.5588304 L6,12 L3.9,12 C3.4,12 3,11.6 3,11.1 L3,3.9 C3,3.4 3.4,3 3.9,3 L3.94524804,3 L6,6.5588304 Z M14,3.00397507 L14,7.13333333 L12.8,9.2 C12.6784094,9.40265097 12.5239649,9.572448 12.3499822,9.70273322 L10.8655084,7.13162449 L12.8,3.8 C13.0799881,3.33335312 13.5341837,3.04091369 14,3.00397507 Z M15,3 L18.7,3 C19.4,3 20,3.6 20,4.3 L20,10.7 C20,11.4 19.4,12 18.7,12 L15,12 L15,3 Z" opacity=".6"/>
  </g>
</svg>
