<?xml version="1.0" encoding="UTF-8" standalone="no"?>
<svg width="23px" height="12px" viewBox="0 0 23 12" version="1.1" xmlns="http://www.w3.org/2000/svg" xmlns:xlink="http://www.w3.org/1999/xlink">
    <!-- Generator: Sketch 3.8.3 (29802) - http://www.bohemiancoding.com/sketch -->
    <title>subway-minsk-l</title>
    <desc>Created with Sketch.</desc>
    <defs>
        <polygon id="path-1" points="1 1 8 1 11.5 4.94999999 15 1 22 1 22 10 15 10 15 7.42857143 11.5 11 8 7.42857143 8 10 1 10"></polygon>
    </defs>
    <g id="POI-NIght" stroke="none" stroke-width="1" fill="none" fill-rule="evenodd">
        <g id="subway-minsk-l">
            <polygon id="Shape" fill-opacity="0.1" fill="#FFFFFF" points="1 0 8 0 8.45001184 0 8.74845381 0.336813078 12.2484538 4.28681307 10.7515462 4.28681307 14.2515462 0.336813078 14.5499882 0 15 0 22 0 23 0 23 1 23 10 23 11 22 11 14 11 14 10 11.5 12 9 10 9 11 1 11 0 11 0 10 0 1 0 0"></polygon>
            <g id="Rectangle-400-Copy-5">
                <use fill="#C81D17" xlink:href="#path-1"></use>
                <use fill-opacity="0.4" fill="#000000" xlink:href="#path-1"></use>
            </g>
        </g>
    </g>
</svg>