<svg width="29" height="20" viewBox="0 0 29 20">
  <g fill="none">
    <path fill="#FFF" d="M28.2,8.7 L26.1,6.6 C25.8,6.3 25.5,6.2 25.1,6.2 C25,6.2 24.8,6.2 24.7,6.2 C24.7,6.2 24.7,6.2 24.7,6.2 C24.7,6.1 24.8,6.1 24.8,6 C24.8,5.9 24.9,5.8 24.9,5.8 C24.9,5.7 24.9,5.6 24.9,5.5 L24.9,3.5 C24.9,2.7 24.2,2.1 23.5,2.1 C23,2.1 22.6,2.3 22.4,2.6 L19.9,0.4 C19.6,0.2 19.3,-1.77635684e-15 18.9,-1.77635684e-15 C18.5,-1.77635684e-15 18.1,0.2 17.9,0.4 L14.6,3.7 L11.3,0.4 C11,0.2 10.6,-7.77156117e-16 10.3,-7.77156117e-16 L10.2,-7.77156117e-16 C9.8,-7.77156117e-16 9.5,0.2 9.2,0.5 L7.4,2.4 C7.2,2.2 6.9,2.1 6.5,2.1 C5.7,2.1 5.1,2.7 5.1,3.5 L5.1,5.5 L5.1,5.7 L5.1,5.8 C5.1,5.8 5.1,5.9 5.1,5.9 C5.1,5.9 5.1,6 5.2,6.2 L5.3,6.3 L5.3,6.4 C5.3,6.4 5.4,6.5 5.4,6.5 L5,6.6 C4.7,6.4 4.4,6.2 4.1,6.2 C3.7,6.2 3.4,6.3 3.1,6.6 L1,8.7 C0.4,9.3 0.4,10.2 1,10.7 L9.2,19 C9.5,19.3 9.8,19.4 10.2,19.4 C10.5,19.4 10.9,19.3 11.3,18.9 L13.6,16.5 C13.9,16.7 14.2,16.8 14.5,16.8 C15.3,16.8 15.9,16.1 15.9,15.4 L15.9,13.4 L15.9,13.2 L15.9,13.1 C15.9,13.1 15.9,13 15.9,13 C15.9,12.9 15.9,12.8 15.8,12.7 L15.7,12.6 L15.6,12.5 C15.6,12.5 15.6,12.4 15.5,12.4 L15.5,12.3 L15.4,12.2 L15.3,12.1 L15.2,12.1 C15.1,12.1 15,12 14.9,12 C14.8,12 14.7,11.9 14.6,11.9 C14.5,11.9 14.4,11.9 14.3,11.9 L12.3,11.9 C12.1,11.9 11.9,12 11.7,12 C11.7,11.3 12,10.6 12.5,10.1 L14.3,8.4 L16.1,10.1 C16.6,10.6 16.9,11.3 16.9,12 L16.9,18 C16.9,18.6 17.3,19.1 17.8,19.2 C18,19.4 18.3,19.5 18.7,19.5 C19.1,19.5 19.5,19.3 19.7,19.1 L28,10.8 C28.7,10.2 28.7,9.3 28.2,8.7 Z M10.3,1 C10.3,1 10.3,1.1 10.3,1 C10.3,1.1 10.3,1 10.3,1 C10.3,1 10.3,1 10.3,1 Z" opacity=".4"/>
    <path fill="#781322" d="M27.5,9.4 L25.4,7.3 C25.2,7.1 24.9,7.1 24.8,7.3 C24.6,7.5 24.6,7.8 24.8,7.9 L26.5,9.6 L19.9,16.2 L19.9,12 C19.9,10.5 19.3,9.1 18.2,8.1 L16,6.1 C15.8,5.9 15.6,5.8 15.4,5.7 L18.9,2.2 L22.3,5.1 L21.5,5.1 C21.3,5.1 21.1,5.3 21.1,5.5 C21.1,5.7 21.3,5.9 21.5,5.9 L23.5,5.9 C23.5,5.9 23.5,5.9 23.5,5.9 C23.5,5.9 23.6,5.9 23.6,5.9 C23.6,5.9 23.7,5.9 23.7,5.9 C23.7,5.9 23.7,5.9 23.8,5.9 C23.8,5.9 23.9,5.9 23.9,5.8 C23.9,5.8 23.9,5.8 23.9,5.8 C23.9,5.8 23.9,5.8 23.9,5.7 C23.9,5.7 23.9,5.6 23.9,5.6 C23.9,5.6 23.9,5.5 23.9,5.5 C23.9,5.5 23.9,5.5 23.9,5.4 L23.9,3.4 C23.9,3.2 23.7,3 23.5,3 C23.3,3 23.1,3.2 23.1,3.4 L23.1,4.4 L19.2,1 C19,1 18.7,1 18.6,1.2 L14.6,5.2 L10.6,1.2 C10.5,1.1 10.4,1 10.3,1.1 C10.2,1.1 10.1,1.2 10,1.2 L7,4.4 L7,3.5 C7,3.3 6.8,3.1 6.6,3.1 C6.4,3.1 6.1,3.3 6.1,3.5 L6.1,5.5 C6.1,5.5 6.1,5.5 6.1,5.5 C6.1,5.5 6.1,5.6 6.1,5.6 C6.1,5.6 6.1,5.7 6.1,5.7 C6.1,5.7 6.1,5.7 6.1,5.7 C6.1,5.7 6.1,5.8 6.2,5.8 C6.2,5.8 6.2,5.8 6.2,5.8 C6.2,5.8 6.2,5.8 6.2,5.8 C6.2,5.8 6.3,5.8 6.3,5.9 C6.3,5.9 6.4,5.9 6.4,5.9 C6.4,5.9 6.4,5.9 6.5,5.9 L8.5,5.9 C8.7,5.9 8.9,5.7 8.9,5.5 C8.9,5.3 8.7,5.1 8.5,5.1 L7.5,5.1 L10.2,2.2 L13.6,5.6 C13.3,5.7 13.1,5.9 12.9,6.1 L10.7,8.2 C9.6,9.2 9,10.6 9,12.1 L9,16.3 L2.6,9.8 L4.4,8 C4.6,7.8 4.6,7.5 4.4,7.4 C4.2,7.2 3.9,7.2 3.8,7.4 L1.7,9.4 C1.5,9.6 1.5,9.9 1.7,10 L10,18.3 C10.1,18.4 10.2,18.4 10.3,18.4 C10.4,18.4 10.5,18.3 10.6,18.3 L14.1,14.6 L14.1,15.5 C14.1,15.7 14.3,15.9 14.5,15.9 C14.7,15.9 14.9,15.7 14.9,15.5 L14.9,13.5 C14.9,13.5 14.9,13.5 14.9,13.5 C14.9,13.5 14.9,13.4 14.9,13.4 C14.9,13.4 14.9,13.3 14.9,13.3 C14.9,13.3 14.9,13.3 14.9,13.3 C14.9,13.3 14.9,13.2 14.8,13.2 C14.8,13.2 14.8,13.2 14.8,13.2 C14.8,13.2 14.8,13.2 14.8,13.2 C14.8,13.2 14.7,13.2 14.7,13.1 C14.7,13.1 14.6,13.1 14.6,13.1 C14.6,13.1 14.6,13.1 14.5,13.1 L12.5,13.1 C12.3,13.1 12.1,13.3 12.1,13.5 C12.1,13.7 12.3,13.9 12.5,13.9 L13.5,13.9 L10.9,16.6 L10.9,12 C10.9,11 11.3,10.1 12,9.4 L14.2,7.3 C14.2,7.3 14.2,7.3 14.3,7.2 C14.4,7 14.6,7 14.7,7.2 C14.7,7.2 14.7,7.3 14.8,7.3 L17,9.4 C17.7,10.1 18.1,11 18.1,12 L18.1,18 C18.1,18.2 18.5,18.3 18.6,18.3 C18.7,18.4 18.8,18.4 18.9,18.4 C19,18.4 19.1,18.4 19.2,18.3 L27.5,10 C27.6,9.9 27.6,9.6 27.5,9.4 Z"/>
  </g>
</svg>
