<svg viewBox="0 0 23 10" xmlns="http://www.w3.org/2000/svg">
 <g fill="none">
  <path d="m22.1 5.9-1.6-4.5c-0.4-0.8-1.2-1.4-2.1-1.4h-1-2.5-1c-0.9 0-1.7 0.6-2.1 1.4l-0.4 1.2-0.4-1.2c-0.3-0.8-1.1-1.4-2-1.4h-1-2.5-1c-1 0-1.8 0.6-2.1 1.4l-1.6 4.5c-0.3 0.9-0.2 2 0.4 2.8s1.4 1.3 2.4 1.3c1.3 0 2.4-0.8 2.9-2l0.2-0.6 0.4 1.2c0.3 0.8 1.2 1.4 2.1 1.4h1 2.5 1c0.9 0 1.7-0.6 2.1-1.4l0.4-1.2 0.2 0.6c0.4 1.2 1.6 2 2.9 2 1 0 1.9-0.5 2.5-1.3s0.6-1.8 0.3-2.8z" fill="#FFF" opacity=".4"/>
  <g transform="translate(1 1)">
   <path d="m18.2 8c1.4 0 2.4-1.4 1.9-2.7l-1.6-4.5c-0.2-0.5-0.6-0.8-1.1-0.8h-3.5l2.4 6.7c0.3 0.8 1.1 1.3 1.9 1.3z" fill="#008035"/>
   <path d="m16.4 0-1.4 4-1.2 3.2c-0.2 0.5-0.6 0.8-1.1 0.8h-1l-1.2-3.4 0.1-0.6 1.2-3.2c0.2-0.5 0.6-0.8 1.1-0.8h3.5z" fill="#A60056"/>
   <path d="m10.4 4.6-1.2 3.4h-1c-0.5 0-1-0.3-1.1-0.8l-1.1-2.9-1.5-4.3h3.5c0.5 0 1 0.3 1.1 0.8l1.1 3.2 0.2 0.6z" fill="#145B99"/>
   <path d="M2.6,8 C1.2,8 0.2,6.6 0.7,5.3 L2.3,0.8 C2.5,0.3 3,0 3.5,0 L7,0 L4.5,6.7 C4.3,7.5 3.5,8 2.6,8 Z" fill="#B3A400"/>
   <polygon points="11.7 8 9.2 8 10.4 4.6" fill="#340E4D"/>
  </g>
 </g>
</svg>
