<svg viewBox="0 0 21 16" xmlns="http://www.w3.org/2000/svg">
 <g>
  <path d="m18 0h-5.9-2.1-3-0.6-3.4c-1.7 0-3 1.3-3 3v10c0 1.7 1.3 3 3 3h4 1 4.9 0.9 4.2c1.7 0 3-1.3 3-3v-10c0-1.7-1.3-3-3-3z" fill="#FFF" opacity=".4"/>
  <path d="m20 3v10c0 1.1-0.9 2-2 2h-11c-1.1 0-2-0.9-2-2v-10c0-1.1 0.9-2 2-2h11c1.1 0 2 0.9 2 2z" fill="#A63614"/>
  <path d="m16.3 11.7-2.7 2.9c-0.2 0.2-0.4 0.3-0.7 0.3h-9.9c-1.1 0-2-0.9-2-2v-9.9c0-1.1 0.9-2 2-2h7v0.7l-3.9 3.8c-0.5 0.4-0.4 1.2 0.1 1.5l4.3 2.6c0.1 0.1 0.3 0.1 0.4 0.1l4.8 0.5c0.8 0 1.1 1 0.6 1.5z" fill="#06224D"/>
  <path d="m13.1 10h-6.7l-4-4h-0.4v-1h0.4l4-4h5.7l-5.7 4h2.6 5.8l4 4h0.2v1h-0.2l-5 5h-5.8l6.8-5h-1.7zm-1.675-1h3.375l-4.35-3h-4.05l5.025 3z" fill="#A3A3A3"/>
 </g>
</svg>
