<svg width="25" height="25" viewBox="0 0 25 25">
  <g fill="none">
    <path fill="#FFF" d="M12.5,0.5 C5.9,0.5 0.5,5.9 0.5,12.5 C0.5,19.1 5.9,24.5 12.5,24.5 C19.1,24.5 24.5,19.1 24.5,12.5 C24.5,5.9 19.1,0.5 12.5,0.5 Z" opacity=".4"/>
    <path fill="#145B99" d="M12.5,23.7 C6.3,23.7 1.3,18.7 1.3,12.5 C1.3,6.3 6.3,1.3 12.5,1.3 C18.7,1.3 23.7,6.3 23.7,12.5 C23.7,18.7 18.7,23.7 12.5,23.7 Z"/>
    <path fill="#FFF" d="M17.5628292,15.5696262 C19.5327234,14.6 21.2,14.6 21.2,14.6 L16.934492,17.8735294 L16.9,18 L13.4,18 L15.1882707,11.4430075 L11.6,14.9 L10.3,12.2 L9.89470199,11.419426 L8.1,18 L4.6,18 L7.5,7 L11.1,7 L11.0699422,7.11021195 L12.8957447,9.98723404 L16.4,7 L19.9,7 L17.5628292,15.5696262 Z" opacity=".7"/>
  </g>
</svg>
