<svg viewBox="0 0 19 20" xmlns="http://www.w3.org/2000/svg">
 <g>
  <path d="m18.3 7.5-5.3-5.8c-0.5-0.6-1.3-0.9-2.2-0.9-0.8 0-1.6 0.3-2.1 0.8l-7.2 7.2-0.8 0.7 0.6 0.5h-1.2l1 1.6 2 3 0.4 0.4h0.5 2l3.2 3.9 0.7 0.8 0.8-0.8 7.5-7.4c0.5-0.5 0.8-1.3 0.8-2v-0.1c0-0.7-0.3-1.4-0.7-1.9z" fill="#FFF" opacity=".4"/>
  <path d="m17.5 8.1-5.3-5.8c-0.7-0.8-2.1-0.8-2.9-0.1l-7.1 7.3 1.7 1.5h-1.9l2 3h2.5l3.5 4.3 7.5-7.4c0.4-0.3 0.5-0.8 0.5-1.3v-0.2c0-0.5-0.2-0.9-0.5-1.3z" fill="#A3A3A3"/>
  <path d="m3 9.5h3l4.5-4.4 4.5 4.4-4.5 4.4v3.2l6.6-6.5c0.3-0.3 0.4-0.6 0.4-0.9v-0.3c0-0.3-0.1-0.6-0.3-0.9l-5.3-5.8c-0.3-0.3-0.7-0.5-1.1-0.5s-0.8 0.2-1 0.4l-7.3 7.2" fill="#A3A3A3" stroke="#097099"/>
  <path transform="translate(7 6)" d="m4.111 6-0.68185 0.68185-1.6818-1.6818h1.2527v1h1 0.11104zm0.88896-0.88896v-0.11104h-1v-1h-3v0.25266l-0.75276-0.75276 3.182-3.182 3.182 3.182-1.6111 1.6111z" fill="#0E1333"/>
  <path d="m9.5 14h-5.5l-2-3h7.5c0.8 0 1.5 0.7 1.5 1.5s-0.7 1.5-1.5 1.5z" fill="#0E1333"/>
  <rect x="8" y="12" width="1" height="1" fill="#9EA0AD"/>
 </g>
</svg>
