<svg width="24" height="24" viewBox="0 0 24 24">
  <g fill="none">
    <path fill="#FFF" d="M12,0 C5.4,0 0,5.4 0,12 C0,18.6 5.4,24 12,24 C18.6,24 24,18.6 24,12 C24,5.4 18.6,0 12,0 Z" opacity=".4"/>
    <path fill="#8C0B12" d="M12,1 C5.9,1 1,5.9 1,12 C1,18.1 5.9,23 12,23 C18.1,23 23,18.1 23,12 C23,5.9 18.1,1 12,1 Z"/>
    <path fill="#FFF" d="M12.603002,11 L12,11 L12,9 L20,9 L20,11 L17,11 L17,17 L15,17 L15,11.4505282 L15,11 L12.603002,11 Z M14.352068,12.8704136 C13.4279829,14.2801496 11.8339719,15.2 10,15.2 C7.1,15.2 4.8,12.9 4.8,10 C4.8,7.1 7.1,4.8 10,4.8 C11.9099598,4.8 13.5596619,5.79765482 14.4634514,7.30730972 L11.7552552,7.84894896 C11.2687013,7.44661174 10.6533208,7.2 10,7.2 C8.5,7.2 7.2,8.5 7.2,10 C7.2,11.5 8.5,12.8 10,12.8 C10.5627581,12.8 11.0973653,12.6170197 11.5457341,12.3091468 L14.352068,12.8704136 Z" opacity=".5"/>
  </g>
</svg>
