<svg viewBox="0 0 24 25" xmlns="http://www.w3.org/2000/svg">
 <g>
  <path d="m12 0.7c-6.6 0-12 5.3-12 12s5.4 12 12 12 12-5.4 12-12-5.4-12-12-12z" fill="#FFF" opacity=".4"/>
  <circle cx="12" cy="13" r="10" fill="#A3A3A3"/>
  <path d="m14.9 11-4 4h10.108c0.19046-0.73668 0.29189-1.5075 0.29189-2.3 0-0.57992-0.054306-1.1482-0.15807-1.7h-6.2419zm-2.4 0h-9.6419c-0.10376 0.5518-0.15807 1.1201-0.15807 1.7 0 0.79253 0.10142 1.5633 0.29189 2.3h5.5081l4-4zm-6 6h-2.733c1.5635 2.9613 4.6798 5 8.233 5 3.5532 0 6.6695-2.0387 8.233-5h-11.333-2.4zm8-8h2.4 3.6228c-1.4426-3.2825-4.7344-5.6-8.5228-5.6-3.7884 0-7.0803 2.3175-8.5228 5.6h11.023zm-2.5-7.3c6.1 0 11 4.9 11 11s-4.9 11-11 11-11-4.9-11-11 4.9-11 11-11z" fill="#781322"/>
 </g>
</svg>
