<svg width="26" height="26" viewBox="0 0 26 26">
  <g fill="none">
    <polygon fill="#FFF" points="22 9.6 22 4 16.4 4 13 .6 9.6 4 4 4 4 9.6 .6 13 4 16.4 4 22 9.6 22 13 25.4 16.4 22 22 22 22 16.4 25.4 13" opacity=".4"/>
    <polygon fill="#000" points="21 16.6 24.2 13.4 21 10.2 21 5 15.8 5 13.2 2.4 10.6 5 5 5 5 10.6 2.2 13.4 5 16.2 5 21 9.8 21 13.2 24.4 16.6 21 21 21"/>
    <path fill="#8A0000" d="M11,15.8 L10,14.8 L10,20 L6,20 L6,11 L10,11 L10.6,11 L13.2226804,13.6226804 L15.9,11 L16,11 L20,11 L20,20 L16,20 L16,15.2411765 L13.2,18 L11,15.8 Z"/>
    <path fill="#707070" d="M17,9 L17,7 L17,6 L19,6 L20,6 L20,9 L20,10 L16,10 L15,10 L15,8 L11,8 L11,9 L11,10 L6,10 L6,9 L8,9 L8,7 L7,7 L7,8 L6,8 L6,7 L6,6 L9,6 L9,7 L9,9 L10,9 L10,6 L11,6 L11,7 L15,7 L15,6 L16,6 L16,9 L17,9 Z M18,9 L19,9 L19,7 L18,7 L18,9 Z M14,5 L15,5 L15,6 L14,6 L14,5 Z M11,5 L12,5 L12,6 L11,6 L11,5 Z"/>
  </g>
</svg>
