<svg width="28" height="28" viewBox="0 0 28 28">
  <g fill="none">
    <circle cx="14" cy="14" r="14" fill="#FFF" opacity=".4"/>
    <circle cx="14" cy="14" r="13" fill="#A3A3A3"/>
    <path fill="#131947" d="M14,2.5 C20.3,2.5 25.5,7.7 25.5,14 C25.5,20.3 20.3,25.5 14,25.5 C7.7,25.5 2.5,20.3 2.5,14 C2.5,7.7 7.7,2.5 14,2.5 Z M14,1 C6.8,1 1,6.8 1,14 C1,21.2 6.8,27 14,27 C21.2,27 27,21.2 27,14 C27,6.8 21.2,1 14,1 Z"/>
    <path fill="#131947" d="M15,10 L15,22 L13,22 L13,10 L8,10 L8,8 L20,8 L20,10 L15,10 Z"/>
  </g>
</svg>
