<svg viewBox="0 0 25 17" xmlns="http://www.w3.org/2000/svg">
 <g>
  <path d="m23.9 1c-0.3-0.6-1-1-1.7-1h-7.9c-1 0-1.9 0.5-2.5 1.3l-3.4 5.1-0.3 0.6h-0.7c-1 0-1.9 0.5-2.5 1.3l-3.8 5.7c-0.4 0.6-0.4 1.4-0.1 2s1 1 1.7 1h7.9c1 0 1.9-0.5 2.5-1.3l3.8-5.7h0.7c1 0 1.9-0.5 2.5-1.3l3.7-5.7c0.4-0.6 0.5-1.4 0.1-2z" fill="#FFF" opacity=".4"/>
  <path d="m16.2 9h-8.5c-0.3 0-0.5 0.2-0.5 0.4-0.1 0.3 0.1 0.5 0.3 0.6 0 0 2.4 0.8 3.2 2.4 0.1 0.2 0.3 0.3 0.5 0.3 0.1 0 0.1-0.1 0.2-0.1 0.2-0.2 0.3-0.4 0.2-0.7-0.4-0.8-1.1-1.4-1.8-1.9h5.8l-3.4 5.1c-0.4 0.5-1 0.9-1.7 0.9h-7.8c-0.7 0-1.2-0.8-0.8-1.4l3.8-5.7c0.4-0.6 1-0.9 1.7-0.9h1.4 8.5c0.2 0 0.5-0.2 0.5-0.4 0-0.3-0.2-0.5-0.4-0.6 0 0-2.4-0.8-3.2-2.4-0.2-0.2-0.4-0.3-0.7-0.2-0.2 0.2-0.3 0.4-0.2 0.7 0.4 0.8 1.1 1.4 1.8 1.9h-5.8l3.4-5.1c0.3-0.6 1-0.9 1.7-0.9h7.9c0.7 0 1.1 0.8 0.7 1.4l-3.8 5.7c-0.4 0.5-1 0.9-1.7 0.9h-1.3z" fill="#731221"/>
 </g>
</svg>
