<svg width="20" height="20" viewBox="0 0 20 20">
  <g fill="none">
    <circle cx="10.2" cy="9.6" r="8.6" fill="#999"/>
    <path fill="#FFF" d="M10.2,1 C15,1 18.8,4.9 18.8,9.6 C18.8,14.3 14.9,18.2 10.2,18.2 C5.5,18.2 1.6,14.3 1.6,9.6 C1.6,4.9 5.5,1 10.2,1 Z M10.2,0 C4.9,0 0.6,4.3 0.6,9.6 C0.6,14.9 4.9,19.2 10.2,19.2 C15.5,19.2 19.8,14.9 19.8,9.6 C19.8,4.3 15.5,0 10.2,0 Z" opacity=".4"/>
    <g transform="translate(4 4)">
      <path fill="#143E99" d="M0,10.2 L0.4,9 C0.4,9 4.3,8.2 4.3,7 L5.1,6.2 C5.1,6.3 7.5,9 0,10.2 Z M4.7,5.9 L3.9,6.7 L2.7,5.9 L4.7,5.9 Z"/>
      <path fill="#99004F" d="M2.7,5.6 C2.7,5.6 2.7,3.6 6.2,2.9 L5.5,4.5 L2.7,5.6 Z"/>
      <polygon fill="#133314" points="6.9 2.8 6.9 4 12 1.8 12 .7"/>
      <polygon fill="#993212" points="7 7.2 8.2 6.8 9 3.3 7.8 4.1"/>
    </g>
  </g>
</svg>
