<svg width="27" height="16" viewBox="0 0 27 16">
  <g fill="none">
    <polygon fill="#FFF" points="26.6 6.2 19.6 .2 19.3 0 19 0 14 0 13 0 8 0 7.7 0 7.4 .2 .4 6.2 0 6.5 0 7 0 9 0 9.5 .4 9.8 7.4 15.8 7.7 16 8 16 13 16 14 16 19 16 19.3 16 19.6 15.8 26.6 9.8 27 9.5 27 9 27 7 27 6.5" opacity=".4"/>
    <polygon fill="#A3A3A3" points="19 1 14 1 13 1 8 1 1 7 1 9 8 15 13 15 14 15 19 15 26 9 26 7"/>
    <path fill="#B34D00" d="M17,11 L20,8 L25,8 L18,14 L13,14 L12,14 L7,14 L0,8 L5,8 L8,11 L11,11 L11,8 L12,8 L13,8 L14,8 L14,11 L17,11 Z M8,3 L5,6 L0,6 L7,0 L12,0 L13,0 L18,0 L25,6 L20,6 L17,3 L14,3 L14,6 L13,6 L12,6 L11,6 L11,3 L8,3 Z" transform="translate(1 1)"/>
  </g>
</svg>
