<svg width="18" height="18" viewBox="0 0 18 18">
  <g fill="none">
    <circle cx="9" cy="9" r="9" fill="#FFF" opacity=".4"/>
    <circle cx="9" cy="9" r="8" fill="#0D3C73"/>
    <path fill="#9EB1C7" d="M8.17392229,6.0649576 C7.03081699,4.88061492 5.40385435,4.1387 3.6,4.1387 L3,4.1387 L3,2.8613 L3.6,2.8613 C5.71360176,2.8613 7.62885439,3.71254719 9,5.08310729 C10.3711456,3.71254719 12.2863982,2.8613 14.4,2.8613 L15,2.8613 L15,4.1387 L14.4,4.1387 C12.5961456,4.1387 10.969183,4.88061492 9.82607771,6.0649576 C10.151347,6.52763149 10.4236714,7.02834898 10.6344346,7.55883818 C11.6048417,5.93797063 13.3783881,4.85 15.4,4.85 L17,4.85 L17,6.15 L15.4,6.15 C13.0589851,6.15 11.15,8.05898509 11.15,10.4 L11.15,17 L9.85,17 L9.85,10.4 C9.85,10.2885109 9.85330892,10.1777762 9.85983367,10.0678891 C9.83611583,9.00032995 9.52565455,7.99937465 9,7.13483026 C8.47434545,7.99937465 8.16388417,9.00032995 8.14016633,10.0678891 C8.14669108,10.1777762 8.15,10.2885109 8.15,10.4 L8.15,17 L6.85,17 L6.85,10.4 C6.85,8.05898509 4.94101491,6.15 2.6,6.15 L1,6.15 L1,4.85 L2.6,4.85 C4.62161188,4.85 6.39515826,5.93797063 7.36556543,7.55883818 C7.57632857,7.02834898 7.84865298,6.52763149 8.17392229,6.0649576 Z"/>
  </g>
</svg>
