<svg viewBox="0 0 26 26" xmlns="http://www.w3.org/2000/svg">
 <g fill="none">
  <rect transform="rotate(-90 13 13)" x="5" y="5" width="16" height="16" fill="#F3F3ED"/>
  <polygon points="24.7 12.3 22 9.6 22 5 22 4 21 4 16.4 4 13.7 1.3 13 0.6 12.3 1.3 9.6 4 5 4 4 4 4 5 4 9.6 1.3 12.3 0.6 13 1.3 13.7 4 16.4 4 21 4 22 5 22 9.6 22 12.3 24.7 13 25.4 13.7 24.7 16.4 22 21 22 22 22 22 21 22 16.4 24.7 13.7 25.4 13" fill="#FFF" opacity=".4"/>
  <path d="m5 16.031-3.031-3.031 3.031-3.031v-4.969h4.969l3.0308-3.0308 3.0308 3.0308h4.9694v4.9694l3.0306 3.0306-3.0306 3.0306v4.9694h-4.9694l-3.0308 3.0308-3.0308-3.0308h-4.969v-4.969z" fill="#B38900"/>
  <g transform="translate(5 5)">
   <circle cx="8" cy="8" r="8" fill="#374073"/>
   <path d="m8 0.5c4.1 0 7.5 3.4 7.5 7.5s-3.4 7.5-7.5 7.5-7.5-3.4-7.5-7.5 3.4-7.5 7.5-7.5zm0-0.5c-4.4 0-8 3.6-8 8s3.6 8 8 8 8-3.6 8-8-3.6-8-8-8z" fill="#A3A3A3"/>
  </g>
  <path d="m7 17h12v1h-12v-1zm6-1.2c-2.1 0-3.8-1.7-3.8-3.8s1.7-3.8 3.8-3.8 3.8 1.7 3.8 3.8-1.7 3.8-3.8 3.8z" fill="#898EAB"/>
  <path d="m19 13h-2c0-2.2-1.8-4-4-4s-4 1.8-4 4h-2c0-3.3 2.7-6 6-6s6 2.7 6 6z" fill="#AFB2C7"/>
 </g>
</svg>
