<svg width="29" height="29" viewBox="0 0 29 29">
  <g fill="none">
    <circle cx="14.7" cy="14.9" r="14" fill="#FFF" opacity=".4"/>
    <circle cx="14.7" cy="14.9" r="13" fill="#0D1033"/>
    <path fill="#B3B3B3" d="M13.7,11.1 C13.7,10.4522847 13.1477153,9.9 12.5,9.9 L9.9,9.9 C9.25228475,9.9 8.7,10.4522847 8.7,11.1 L8.7,19.9 C8.7,20.4522847 8.25228475,20.9 7.7,20.9 C7.14771525,20.9 6.7,20.4522847 6.7,19.9 L6.7,11.1 C6.7,9.34771525 8.14771525,7.9 9.9,7.9 L12.5,7.9 C13.3477789,7.9 14.1242655,8.23887456 14.7,8.78716376 C15.2757345,8.23887456 16.0522211,7.9 16.9,7.9 L19.5,7.9 C21.2522847,7.9 22.7,9.34771525 22.7,11.1 L22.7,19.9 C22.7,20.4522847 22.2522847,20.9 21.7,20.9 C21.1477153,20.9 20.7,20.4522847 20.7,19.9 L20.7,11.1 C20.7,10.4522847 20.1477153,9.9 19.5,9.9 L16.9,9.9 C16.2522847,9.9 15.7,10.4522847 15.7,11.1 L15.7,19.9 C15.7,20.4522847 15.2522847,20.9 14.7,20.9 C14.1477153,20.9 13.7,20.4522847 13.7,19.9 L13.7,11.1 Z"/>
  </g>
</svg>
