<svg width="25" height="26" viewBox="0 0 25 26">
  <g fill="none">
    <path fill="#FFF" d="M16.6,2 C15.9,1.3 15,0.9 13.9,0.9 C12.9,0.9 12,1.3 11.4,1.9 L1.1,11.9 L0.4,12.6 L1.1,13.3 L3,15.4 L3,16 L3,17 L4,17 L4.1,17 L5,18.5 L5.3,19 L5.9,19 L6.7,19 L12.4,25 L13.1,25.7 L13.8,25 L24,15 C24.7,14.4 25,13.5 25,12.6 L25,12.3 C25,11.5 24.7,10.7 24.1,10 L16.6,2 Z" opacity=".4"/>
    <path fill="#A3A3A3" d="M23.4,10.7 L15.9,2.6 C15,1.6 13.1,1.5 12.1,2.5 L1.8,12.5 L4,15 L4,16 L4.6,16 L5.8,18 L7,18 L13,24.3 L23.3,14.3 C23.8,13.8 24,13.3 24,12.6 L24,12.3 C24,11.7 23.8,11.2 23.4,10.7 Z"/>
    <path fill="#05384D" d="M13.5,6.99614592 L7.30247321,13 L3,13 L3,12.7230988 L2.44829043,13.2587391 L1.75170957,12.5412609 L12.0464466,2.54644661 C12.5418101,2.0510831 13.1695179,1.8 13.9,1.8 C14.6091777,1.8 15.3387144,2.13160761 15.8647686,2.65802944 L23.4,10.7 C23.7986762,11.2315683 24,11.7204975 24,12.3 L24,12.6 C24,13.2294655 23.7532077,13.7538991 23.2497315,14.2573344 L13,24.2889865 L13,18.4882291 L19.1813978,12.5 L13.5,6.99614592 Z M3.74479175,12 L6.89752679,12 L13.5,5.60385408 L20.6186022,12.5 L14,18.9117709 L14,21.9110171 L22.5464466,13.5464466 C22.8690145,13.2238787 23,12.9455345 23,12.6 L23,12.3 C23,11.9652168 22.8795847,11.6727796 22.6352314,11.3419706 L15.1464466,3.35355339 C14.8112856,3.01839239 14.3308223,2.8 13.9,2.8 C13.4304821,2.8 13.0581899,2.9489169 12.7482904,3.25873915 L3.74479175,12 Z"/>
    <path fill="#0E1333" d="M15.4935675 13L12.1757896 13C12.1496025 13.0325924 12.1243278 13.0659411 12.1 13.1L9.4 13.1 13.9 8.7 18.2 12.9 16 14.9 16 14.4C16 13.8987903 15.8139176 13.3975805 15.4935675 13zM11.7 14L3.4 14 5.8 18 11.8 18C13 18 14 16.9 13.8 15.7 13.7 14.7 12.7 14 11.7 14zM13.4 16L12 16 12 14 12.5 14 13.4 16z"/>
    <rect width="5" height="1" x="4" y="15" fill="#9EA0AD"/>
  </g>
</svg>
