<svg width="24" height="24" viewBox="0 0 24 24">
  <g fill="none">
    <path fill="#FFF" d="M12,0 C5.4,0 0,5.4 0,12 C0,18.6 5.4,24 12,24 C18.6,24 24,18.6 24,12 C24,5.4 18.6,0 12,0 Z" opacity=".4"/>
    <path fill="#06224D" d="M12,1 C5.9,1 1,5.9 1,12 C1,18.1 5.9,23 12,23 C18.1,23 23,18.1 23,12 C23,5.9 18.1,1 12,1 Z"/>
    <g fill="#FFF" opacity=".6" transform="translate(6 6)">
      <path d="M0,-1.77635684e-15 L3,-1.77635684e-15 L6,5 L9,-1.77635684e-15 L12,-1.77635684e-15 L12,12 L9,12 L9,4.9 L6,9.8 L3,4.9 L3,12 L0,12 L0,-1.77635684e-15 Z"/>
    </g>
  </g>
</svg>
