<svg viewBox="0 0 28 13" xmlns="http://www.w3.org/2000/svg">
 <g>
  <polygon points="27 0 24.9 0 24.3 0 24 0.5 21 6 21 1 21 0 20 0 17.3 0 16.7 0 16.4 0.6 15 3.7 15 1 15 0 14 0 12.8 0 12.3 0 12 0.5 10 3.8 10 1 10 0 9 0 7 0 6.4 0 6.1 0.6 0.7 11.6 0 13 1.6 13 2.4 13 3 13 3.3 12.5 6 7.5 6 12 6 13 7 13 8.3 13 8.9 13 9.1 12.5 11 9 11 12 11 13 12 13 14.3 13 14.9 13 15.2 12.4 16 10.7 16 12 16 13 17 13 21.3 13 21.9 13 22.2 12.4 23 10.7 23 12 23 13 24 13 27 13 28 13 28 12 28 1.9 28 1 28 0" fill="#FFF" opacity=".4"/>
  <polygon points="24.9 1 20 9.9 20 1 17.3 1 14 8.2 14 1 12.8 1 9 7.5 9 1 7 1 1.6 12 2.4 12 7 3.5 7 12 8.3 12 12 5.1 12 12 12 12 14.3 12 17 6.4 17 12 21.3 12 24 6.3 24 12 27 12 27 1.9 27 1" fill="#990C13"/>
 </g>
</svg>
