<svg width="28" height="28" viewBox="0 0 28 28">
  <g fill="none">
    <polygon fill="#FFF" points="28 0 0 0 0 28 28 28" opacity=".4"/>
    <rect width="26" height="26" x="1" y="1" fill="#999"/>
    <polygon fill="#900" points="21 2 13.9 14 6.8 2 3 2 3 19 7 19 7 12.2 11.7 19 16.3 19 21 12.2 21 19 25 19 25 2"/>
    <path fill="#0B0E33" d="M13,20 L16,20 L21,21.6666667 L21,21 L25,21 L25,23 L21,23 L19,23 L14,20.5 L9,23 L7,23 L3,23 L3,21 L7,21 L7,21.6666667 L12,20 L13,20 Z M19,24 L25,24 L25,26 L19,26 L19,24 Z M3,24 L9,24 L9,26 L3,26 L3,24 Z M11,24 L17,24 L17,26 L11,26 L11,24 Z"/>
  </g>
</svg>
