<svg viewBox="0 0 27 20" xmlns="http://www.w3.org/2000/svg">
 <g>
  <path d="m26 6h-2-1.4c-1.5-3.3-4.9-5.5-8.6-5.5s-7.1 2.2-8.6 5.5h-4.4-1v1 2 1h1 3.5c0 0.3 0 0.7 0.1 1h-3.6-1v1 2 1h1 4.9c1.7 2.8 4.8 4.5 8.1 4.5s6.3-1.7 8.1-4.5h1.9 2 1v-1-2-3-2-1h-1z" fill="#FFF" opacity=".4"/>
  <circle cx="14" cy="10" r="8" fill="#A3A3A3"/>
  <path d="m26 9v3 2h-4.4957c-1.4291 2.6794-4.2511 4.5-7.5043 4.5s-6.0752-1.8206-7.5043-4.5h-5.4957v-2h4.7359c-0.15422-0.64123-0.23589-1.3109-0.23589-2 0-0.33836 0.019694-0.67205 0.058001-1h-4.558v-2h5.043c1.2107-3.2163 4.3134-5.5 7.957-5.5s6.7462 2.2837 7.957 5.5h4.043v2zm-2 0h-1.558c0.038307 0.32795 0.058001 0.66164 0.058001 1 0 0.68906-0.081677 1.3588-0.23589 2h1.7359v-3zm-2.7767 3c0.18015-0.63818 0.27668-1.3092 0.27668-2 0-0.33862-0.023191-0.67246-0.068053-1h-14.864c-0.044861 0.32754-0.068053 0.66138-0.068053 1 0 0.69085 0.096533 1.3618 0.27668 2h14.447zm-0.90006 2h-12.647c1.3396 2.094 3.6867 3.5 6.3233 3.5s4.9836-1.406 6.3233-3.5zm0.5385-7c-1.1713-2.6341-3.8245-4.5-6.8618-4.5s-5.6904 1.8659-6.8618 4.5h13.724z" fill="#731221"/>
 </g>
</svg>
