<?xml version="1.0" encoding="UTF-8" standalone="no"?>
<svg width="27px" height="27px" viewBox="0 0 27 27" version="1.1" xmlns="http://www.w3.org/2000/svg" xmlns:xlink="http://www.w3.org/1999/xlink" xmlns:sketch="http://www.bohemiancoding.com/sketch/ns">
    <!-- Generator: Sketch 3.4.2 (15857) - http://www.bohemiancoding.com/sketch -->
    <title>sweets-l</title>
    <desc>Created with Sketch.</desc>
    <defs>
        <path id="path-1" d="M26,13.5 C26,20.403 20.403,26 13.5,26 C6.597,26 1,20.403 1,13.5 C1,6.597 6.597,1 13.5,1 C20.403,1 26,6.597 26,13.5 L26,13.5 Z"></path>
    </defs>
    <g id="POI" stroke="none" stroke-width="1" fill="none" fill-rule="evenodd" sketch:type="MSPage">
        <g id="sweets-l" sketch:type="MSLayerGroup">
            <path d="M13.5,27 C6.057,27 0,20.943 0,13.5 C0,6.057 6.057,0 13.5,0 C20.943,0 27,6.057 27,13.5 C27,20.943 20.943,27 13.5,27 L13.5,27 Z" id="Shape" opacity="0" fill="#FFFFFF" sketch:type="MSShapeGroup"></path>
            <g id="Shape">
                <use fill="#3D3D37" fill-rule="evenodd" sketch:type="MSShapeGroup" xlink:href="#path-1"></use>
                <use fill="none" xlink:href="#path-1"></use>
            </g>
            <path d="M22.143,9.64 L18.27,10.783 C18.755,11.97 18.517,13.381 17.554,14.345 L14.359,17.541 C13.395,18.505 11.982,18.742 10.795,18.257 L9.654,22.13 C9.508,22.624 9.195,22.536 8.956,21.933 L7.857,19.169 L5.093,18.07 C4.49,17.83 4.402,17.517 4.896,17.371 L8.769,16.228 C8.283,15.042 8.52,13.63 9.485,12.666 L12.68,9.47 C13.645,8.506 15.058,8.269 16.244,8.755 L17.385,4.882 C17.531,4.388 17.842,4.476 18.083,5.079 L19.182,7.843 L21.945,8.942 C22.548,9.182 22.637,9.494 22.143,9.64 L22.143,9.64 Z" id="Shape" opacity="0.7" fill="#FFFFFF" sketch:type="MSShapeGroup"></path>
        </g>
    </g>
</svg>