<svg width="16" height="16" viewBox="0 0 16 16">
  <g fill="none" fill-rule="evenodd">
    <circle cx="8" cy="8" r="8" fill="#FFF" opacity=".4"/>
    <circle cx="8" cy="8" r="7" fill="#3D3D36"/>
    <path fill="#FFF" d="M9.77777778,4 L9.33333333,4.28355423 L7.36111111,5.48758634 C7.12448,5.60518947 7.03838222,5.96677245 7.19444444,6.187605 L7.73610667,6.96051895 L5.77777778,8.66679111 L6.66666667,8.88557028 L8,8.44829195 L9.33333333,8.88557028 L10.2222222,8.66679111 L8.25,6.07093522 L10.2361067,4.77291394 L10.22224,4 L9.77777778,4 Z M10.6666667,5.91058428 C10.1757511,5.91058428 9.77777778,6.32844876 9.77777778,6.84394251 C9.77777778,7.35934292 10.1757511,7.77730073 10.6666667,7.77730073 C11.1575822,7.77730073 11.5555556,7.35934292 11.5555556,6.84394251 C11.5555556,6.32844876 11.1575822,5.91058428 10.6666667,5.91058428 L10.6666667,5.91058428 Z M5.33333333,9.60024267 L4,10.037521 L4,11 L4.13888889,10.9561322 L5.33333333,10.5332276 L6.66666667,10.99972 L8,10.5332276 L9.33333333,10.99972 L10.6666667,10.5332276 L12,10.9999067 L12,10.0374277 L10.6666667,9.60014934 L9.33333333,10.0374277 L8,9.60014934 L6.66666667,10.0374277 L5.33333333,9.60014934 L5.33333333,9.60024267 Z" opacity=".6"/>
  </g>
</svg>
