<?xml version="1.0" encoding="UTF-8" standalone="no"?>
<svg width="27px" height="27px" viewBox="0 0 27 27" version="1.1" xmlns="http://www.w3.org/2000/svg" xmlns:xlink="http://www.w3.org/1999/xlink" xmlns:sketch="http://www.bohemiancoding.com/sketch/ns">
    <!-- Generator: Sketch 3.4.2 (15857) - http://www.bohemiancoding.com/sketch -->
    <title>swimming-l</title>
    <desc>Created with Sketch.</desc>
    <defs>
        <circle id="path-1" cx="13.5" cy="13.5" r="12.5"></circle>
    </defs>
    <g id="POI" stroke="none" stroke-width="1" fill="none" fill-rule="evenodd" sketch:type="MSPage">
        <g id="swimming-l" sketch:type="MSLayerGroup">
            <circle id="Oval-1-Copy-39" opacity="0" fill="#FFFFFF" sketch:type="MSShapeGroup" cx="13.5" cy="13.5" r="13.5"></circle>
            <g id="Oval-1-Copy-38">
                <use fill="#33332E" fill-rule="evenodd" sketch:type="MSShapeGroup" xlink:href="#path-1"></use>
                <use fill="none" xlink:href="#path-1"></use>
            </g>
            <path d="M16.125,6 C15.96683,6 15.69115,6.093 15.5625,6.1563 L11.5625,8.0938 C11.03008,8.3459 10.83636,9.1208 11.1875,9.5938 L12.40625,11.25 L7.6875,14.9063 C8.81645,15.1353 9.6636,15.8442 10.5,15.8438 C11.5,15.8443 12,14.8438 13.5,14.8438 C15,14.8438 15.5,15.8433 16.5,15.8438 C16.9128,15.844 17.33328,15.6689 17.78125,15.4688 L13.5625,9.3438 L16.59375,7.8125 C17.19573,7.5115 17.15614,6.9953 17.09375,6.6875 C17.03465,6.3957 16.67472,6 16.125,6 L16.125,6 Z M18,9 C16.89543,9 16,9.8954 16,11 C16,12.1046 16.89543,13 18,13 C19.10457,13 20,12.1046 20,11 C20,9.8954 19.10457,9 18,9 L18,9 Z M7,17 C6.30594,17 5.66024,17.4049 5,17.625 L5,19.6563 C5,19.6563 6,19.0005 7,19 C8,18.9995 9,20 10.5,20 C12,20 12.47352,19.0347 13.5,19 C14.5,19.0005 15,20 16.5,20 C18,20 19,19 20,19 C20.70165,19 22,19.6563 22,19.6563 L22,17.625 C21.3584,17.3782 20.65657,17 20,17 C18.5,17 17.5,18.0005 16.5,18 C15.5,17.9995 15,17 13.5,17 C12,17 11.5,18.0005 10.5,18 C9.5,18.0005 8.5,17 7,17 L7,17 Z" id="path4758-copy" opacity="0.7" fill="#FFFFFF" sketch:type="MSShapeGroup"></path>
        </g>
    </g>
</svg>