<svg width="28" height="28" viewBox="0 0 28 28">
  <g fill="none" fill-rule="evenodd">
    <circle cx="14" cy="14" r="14" fill="#FFF" opacity=".4"/>
    <circle cx="14" cy="14" r="13" fill="#3D3D36"/>
    <path fill="#FFF" d="M16.1617647,7 C16.0315071,7 15.8044765,7.07971429 15.6985294,7.13397143 L12.4044118,8.79468571 C11.9659482,9.01077143 11.8064141,9.67497143 12.0955882,10.0804 L13.0992647,11.5 L9.21323529,14.6339714 C10.1429588,14.8302571 10.8406118,15.4378857 11.5294118,15.4375429 C12.3529412,15.4379714 12.7647059,14.5804 14,14.5804 C15.2352941,14.5804 15.6470588,15.4371143 16.4705882,15.4375429 C16.8105412,15.4377143 17.1568188,15.2876286 17.5257353,15.1161143 L14.0514706,9.86611429 L16.5477941,8.55357143 C17.0435424,8.29557143 17.0109388,7.85311429 16.9595588,7.58928571 C16.9108882,7.33917143 16.6144753,7 16.1617647,7 L16.1617647,7 Z M17.7058824,9.57142857 C16.7962365,9.57142857 16.0588235,10.3389143 16.0588235,11.2857143 C16.0588235,12.2325143 16.7962365,13 17.7058824,13 C18.6155282,13 19.3529412,12.2325143 19.3529412,11.2857143 C19.3529412,10.3389143 18.6155282,9.57142857 17.7058824,9.57142857 L17.7058824,9.57142857 Z M8.64705882,16.4285714 C8.07548,16.4285714 7.54372706,16.7756286 7,16.9642857 L7,18.7054 C7,18.7054 7.82352941,18.1432857 8.64705882,18.1428571 C9.47058824,18.1424286 10.2941176,19 11.5294118,19 C12.7647059,19 13.1546635,18.1726 14,18.1428571 C14.8235294,18.1432857 15.2352941,19 16.4705882,19 C17.7058824,19 18.5294118,18.1428571 19.3529412,18.1428571 C19.9307706,18.1428571 21,18.7054 21,18.7054 L21,16.9642857 C20.4716235,16.7527429 19.8936459,16.4285714 19.3529412,16.4285714 C18.1176471,16.4285714 17.2941176,17.2861429 16.4705882,17.2857143 C15.6470588,17.2852857 15.2352941,16.4285714 14,16.4285714 C12.7647059,16.4285714 12.3529412,17.2861429 11.5294118,17.2857143 C10.7058824,17.2861429 9.88235294,16.4285714 8.64705882,16.4285714 L8.64705882,16.4285714 Z" opacity=".6"/>
  </g>
</svg>
