<svg version="1.1" viewBox="0 0 24 24" xmlns="http://www.w3.org/2000/svg">
 <title>swimming-m</title>
 <g fill="none" fill-rule="evenodd">
  <g id="swimming-m" fill-rule="nonzero">
   <path id="Shape" d="m15.115 4.5c-0.15816 0-0.43384 0.0768-0.5625 0.1504l-3.9808 2.2501c-0.53243 0.2912-0.74056 1.2034-0.38942 1.7499l1.2115 1.9-5.149 3.4501 2.7692 1.3 2.9856-1.4 2.9856 1.4 1.1683-1.4-3.5913-5.5501 3.0288-1.8c0.60198-0.34784 0.58162-0.94432 0.51923-1.3-0.05912-0.33712-0.44547-0.74992-0.99519-0.74992zm2.4231 3.8c-1.1471 0-2.0769 1.0746-2.0769 2.4 0 1.3254 0.92987 2.4 2.0769 2.4 1.1471 0 2.0769-1.0746 2.0769-2.4 0-1.3254-0.92987-2.4-2.0769-2.4zm-5.5385 7.2-2.7692 1.6-3.4615-1.5-2.7692 1.5v2.4l2.7692-1.6 3.4615 1.6 2.7692-1.7 2.7692 1.7 2.7692-1.7 3.4615 1.7v-2.4l-3.4615-1.6-2.7692 1.6z" fill="#fff" opacity=".6" stroke-width="1.5"/>
  </g>
 </g>
</svg>
