<svg id="SVGRoot" version="1.1" viewBox="0 0 24 24" xml:space="preserve" xmlns="http://www.w3.org/2000/svg"><g fill="#fff" opacity=".6"><g fill="#fff"><path d="m17.359 13.055c0.93705 0 1.7971 0.30916 2.5028 0.81885 0.46969-0.99625 0.70505-2.0757 0.70505-3.1548 0-3.4445-2.6571-7.2865-7.2479-7.2865-2.0067 0-4.0307 0.79212-5.5406 2.3035l-1.8299 1.8308c-0.051887 0.0825-0.086369 0.10925-0.13458 0.18942l7.7233 7.7074c0.70169-1.4032 2.1412-2.4088 3.8218-2.4088zm-4.2082 3.5079-7.9878-7.9714c-0.43388 0.75838-0.64947 1.5335-0.64947 2.2852 0 1.02 0.39203 2.0025 1.148 2.7589l1.2253 1.2261-3.0927 2.7168c-0.24027 0.20897-0.36189 0.5018-0.36189 0.79547 0 0.26817 0.1015 0.53688 0.30679 0.74302l1.1399 1.1426c0.20572 0.2058 0.47404 0.30753 0.74153 0.30753 0.2929 0 0.58486-0.1219 0.79342-0.36282l2.7127-3.102 1.2035 1.2041c0.79075 0.79112 1.8215 1.177 2.858 1.177 0.15172 0 0.30816-9e-3 0.45932-0.02539-0.35353-0.62174-0.57314-1.3327-0.57314-2.0984-4.68e-4 -0.2621 0.0027-0.51601 0.07653-0.79665zm4.178-2.4088c-1.774 0-3.2135 1.4065-3.2135 3.1772 0 1.7406 1.4392 3.2069 3.2135 3.2069 1.7442 0 3.2135-1.4065 3.2135-3.2069 3.37e-4 -1.7406-1.4392-3.1772-3.2135-3.1772z" fill="#fff" opacity="1" stroke-opacity="0"/></g></g></svg>
