<svg width="16" height="16" viewBox="0 0 16 16">
  <g fill="none" fill-rule="evenodd">
    <circle cx="8" cy="8" r="8" fill="#FFF" opacity=".4"/>
    <circle cx="8" cy="8" r="7" fill="#4C351E"/>
    <path fill="#FFF" fill-rule="nonzero" d="M7.8375,4 C6.8375,4 5.92,4.405 5.2,5.125 C4.44,5.885 4,6.88 4,8 C4,10.2 5.715,12 7.875,12 L8,12 C10.2,12 12,10.2 12,8 C12,5.8 10.2,4 8,4 L7.8375,4 Z M7.875,4.8 C8.755,4.8 10,5.28 10,6.4 C10,7.44 9.2,7.92 8.2,8 C7.4,8.04 6.6375,8.445 6.2375,9.125 C5.9175,9.685 5.955,10.1975 6.075,10.6375 C5.315,10.0375 4.8,9.08 4.8,8 C4.8,7.12 5.1225,6.275 5.7625,5.675 C6.3225,5.115 7.035,4.8 7.875,4.8 Z M8,5.6 C7.5581724,5.6 7.2,5.9581722 7.2,6.4 C7.2,6.8418278 7.5581724,7.2 8,7.2 C8.4418276,7.2 8.8,6.8418278 8.8,6.4 C8.8,5.9581722 8.4418276,5.6 8,5.6 Z M8,9.2 C8.44,9.2 8.8,9.56 8.8,10 C8.8,10.44 8.44,10.8 8,10.8 C7.56,10.8 7.2,10.44 7.2,10 C7.2,9.56 7.56,9.2 8,9.2 Z" opacity=".6"/>
  </g>
</svg>
