<?xml version="1.0" encoding="UTF-8" standalone="no"?>
<svg width="23px" height="23px" viewBox="0 0 23 23" version="1.1" xmlns="http://www.w3.org/2000/svg" xmlns:xlink="http://www.w3.org/1999/xlink">
    <!-- Generator: Sketch 3.8.3 (29802) - http://www.bohemiancoding.com/sketch -->
    <title>taoist-m</title>
    <desc>Created with Sketch.</desc>
    <defs></defs>
    <g id="POI-NIght" stroke="none" stroke-width="1" fill="none" fill-rule="evenodd">
        <g id="taoist-m">
            <ellipse id="Oval-1-Copy-41" fill-opacity="0.1" fill="#FFFFFF" cx="11.5" cy="11.5" rx="11.5" ry="11.5"></ellipse>
            <ellipse id="Oval-1-Copy-40" fill="#26160D" cx="11.5" cy="11.5" rx="10.5" ry="10.5"></ellipse>
            <path d="M6.90164,6.90164 C5.63388,8.16953 5,9.70223 5,11.5 C5,13.29777 5.63388,14.83047 6.90164,16.09836 C8.1694,17.36625 9.70223,18 11.5,18 C13.29777,18 14.83047,17.36612 16.09836,16.09836 C17.36612,14.83047 18,13.29777 18,11.5 C18,9.70223 17.36612,8.16953 16.09836,6.90164 C14.83047,5.63388 13.29777,5 11.5,5 C9.70223,5 8.16953,5.63388 6.90164,6.90164 Z M12.11035,13.92424 C12.28325,14.09415 12.36957,14.29604 12.36957,14.5303 C12.36957,14.77041 12.28468,14.97542 12.11477,15.1452 C11.94512,15.31511 11.74011,15.4 11.5,15.4 C11.25989,15.4 11.05501,15.31511 10.88523,15.14533 C10.71532,14.97555 10.63043,14.77054 10.63043,14.53043 C10.63043,14.29032 10.71532,14.08687 10.88523,13.91995 C11.05501,13.75303 11.26002,13.66957 11.5,13.66957 C11.73426,13.66957 11.93771,13.75446 12.11035,13.92424 Z M14.53043,8.46073 C14.53043,9.28649 14.25223,9.98771 13.69596,10.56452 C13.13969,11.14146 12.44276,11.45021 11.60543,11.49129 L11.39457,11.5 C10.55724,11.5468 9.85888,11.85724 9.29962,12.43106 C8.74036,13.00488 8.46073,13.70467 8.46073,14.5303 C8.46073,15.39701 8.71839,16.08796 9.23371,16.60328 C9.74916,17.11873 10.50446,17.44074 11.5,17.56957 C9.70808,17.46999 8.24857,16.85665 7.12121,15.72942 C5.99398,14.60219 5.43043,13.19234 5.43043,11.5 C5.43043,9.84861 6.01894,8.4242 7.19609,7.22664 C8.37311,6.02921 9.77555,5.43043 11.40354,5.43043 C12.2878,5.43043 13.02997,5.72176 13.63018,6.30455 C14.23026,6.88708 14.53043,7.60585 14.53043,8.46073 Z M10.63043,8.46073 C10.63043,8.70097 10.71532,8.90585 10.88523,9.07563 C11.05501,9.24541 11.26002,9.3303 11.5,9.3303 C11.73998,9.3303 11.94512,9.24541 12.11477,9.07563 C12.28468,8.90572 12.36957,8.70084 12.36957,8.46073 C12.36957,8.22647 12.28468,8.02458 12.11477,7.85467 C11.94512,7.68489 11.74011,7.6 11.5,7.6 C11.25989,7.6 11.05501,7.68346 10.88523,7.85038 C10.71532,8.01717 10.63043,8.22062 10.63043,8.46073 Z" id="Combined-Shape" fill-opacity="0.7" fill="#FFFFFF"></path>
        </g>
    </g>
</svg>