<svg width="28" height="28" viewBox="0 0 28 28">
  <g fill="none" fill-rule="evenodd">
    <circle cx="14" cy="14" r="14" fill="#FFF" opacity=".4"/>
    <circle cx="14" cy="14" r="13" fill="#4C351E"/>
    <path fill="#FFF" fill-rule="nonzero" d="M13.675,6 C11.675,6 9.84,6.81 8.4,8.25 C6.88,9.77 6,11.76 6,14 C6,18.4 9.43,22 13.75,22 L14,22 C18.4,22 22,18.4 22,14 C22,9.6 18.4,6 14,6 L13.675,6 Z M13.75,7.6 C15.51,7.6 18,8.56 18,10.8 C18,12.88 16.4,13.84 14.4,14 C12.8,14.08 11.275,14.89 10.475,16.25 C9.835,17.37 9.91,18.395 10.15,19.275 C8.63,18.075 7.6,16.16 7.6,14 C7.6,12.24 8.245,10.55 9.525,9.35 C10.645,8.23 12.07,7.6 13.75,7.6 Z M14,9.2 C13.1163448,9.2 12.4,9.9163444 12.4,10.8 C12.4,11.6836556 13.1163448,12.4 14,12.4 C14.8836552,12.4 15.6,11.6836556 15.6,10.8 C15.6,9.9163444 14.8836552,9.2 14,9.2 Z M14,16.4 C14.88,16.4 15.6,17.12 15.6,18 C15.6,18.88 14.88,19.6 14,19.6 C13.12,19.6 12.4,18.88 12.4,18 C12.4,17.12 13.12,16.4 14,16.4 Z" opacity=".6"/>
  </g>
</svg>
