<?xml version="1.0" encoding="UTF-8" standalone="no"?>
<svg width="17px" height="17px" viewBox="0 0 17 17" version="1.1" xmlns="http://www.w3.org/2000/svg" xmlns:xlink="http://www.w3.org/1999/xlink">
    <!-- Generator: Sketch 3.8.3 (29802) - http://www.bohemiancoding.com/sketch -->
    <title>taoist-s</title>
    <desc>Created with Sketch.</desc>
    <defs></defs>
    <g id="POI-NIght" stroke="none" stroke-width="1" fill="none" fill-rule="evenodd">
        <g id="taoist-s">
            <circle id="Oval-1-Copy-43" fill-opacity="0.1" fill="#FFFFFF" cx="8.5" cy="8.5" r="8.5"></circle>
            <circle id="Oval-1-Copy-42" fill="#26160D" cx="8.5" cy="8.5" r="7.5"></circle>
            <path d="M5.31652,5.31652 C4.43884,6.19429 4,7.25539 4,8.5 C4,9.74461 4.43884,10.80571 5.31652,11.68348 C6.1942,12.56125 7.25539,13 8.5,13 C9.74461,13 10.80571,12.56116 11.68348,11.68348 C12.56116,10.80571 13,9.74461 13,8.5 C13,7.25539 12.56116,6.19429 11.68348,5.31652 C10.80571,4.43884 9.74461,4 8.5,4 C7.25539,4 6.19429,4.43884 5.31652,5.31652 Z M8.92255,10.17832 C9.04225,10.29595 9.10201,10.43572 9.10201,10.5979 C9.10201,10.76413 9.04324,10.90606 8.92561,11.0236 C8.80816,11.14123 8.66623,11.2 8.5,11.2 C8.33377,11.2 8.19193,11.14123 8.07439,11.02369 C7.95676,10.90615 7.89799,10.76422 7.89799,10.59799 C7.89799,10.43176 7.95676,10.29091 8.07439,10.17535 C8.19193,10.05979 8.33386,10.00201 8.5,10.00201 C8.66218,10.00201 8.80303,10.06078 8.92255,10.17832 Z M10.59799,6.39589 C10.59799,6.96757 10.40539,7.45303 10.02028,7.85236 C9.63517,8.25178 9.15268,8.46553 8.57299,8.49397 L8.42701,8.5 C7.84732,8.5324 7.36384,8.74732 6.97666,9.14458 C6.58948,9.54184 6.39589,10.02631 6.39589,10.5979 C6.39589,11.19793 6.57427,11.67628 6.93103,12.03304 C7.28788,12.38989 7.81078,12.61282 8.5,12.70201 C7.25944,12.63307 6.24901,12.20845 5.46853,11.42806 C4.68814,10.64767 4.29799,9.67162 4.29799,8.5 C4.29799,7.35673 4.70542,6.3706 5.52037,5.54152 C6.33523,4.71253 7.30615,4.29799 8.43322,4.29799 C9.0454,4.29799 9.55921,4.49968 9.97474,4.90315 C10.39018,5.30644 10.59799,5.80405 10.59799,6.39589 Z M7.89799,6.39589 C7.89799,6.56221 7.95676,6.70405 8.07439,6.82159 C8.19193,6.93913 8.33386,6.9979 8.5,6.9979 C8.66614,6.9979 8.80816,6.93913 8.92561,6.82159 C9.04324,6.70396 9.10201,6.56212 9.10201,6.39589 C9.10201,6.23371 9.04324,6.09394 8.92561,5.97631 C8.80816,5.85877 8.66623,5.8 8.5,5.8 C8.33377,5.8 8.19193,5.85778 8.07439,5.97334 C7.95676,6.08881 7.89799,6.22966 7.89799,6.39589 Z" id="Combined-Shape" fill-opacity="0.7" fill="#FFFFFF"></path>
        </g>
    </g>
</svg>