<svg width="28" height="28" viewBox="0 0 28 28">
  <g fill="none" fill-rule="evenodd">
    <circle cx="14" cy="14" r="14" fill="#FFF" opacity=".4"/>
    <circle cx="14" cy="14" r="13" fill="#3D3C36"/>
    <path fill="#FFF" d="M21.3254737,11.592 C21.2328421,10.712 20.4033684,10 19.4736842,10 L8.52631579,10 C7.59663158,10 6.76715789,10.7128 6.67452632,11.592 L6,18 L22,18 L21.3254737,11.592 L21.3254737,11.592 Z M20.3157895,16.4 L17.7894737,16.4 L17.7894737,14 L15.2631579,14 L15.2631579,16.4 L12.7368421,16.4 L12.7368421,14 L10.2105263,14 L10.2105263,16.4 L7.68421053,16.4 L7.68421053,14 L10.2105263,14 L10.2105263,11.6 L12.7368421,11.6 L12.7368421,13.92 L15.2631579,13.92 L15.2631579,11.6 L17.7894737,11.6 L17.7894737,14 L20.3157895,14 L20.3157895,16.4 L20.3157895,16.4 Z" opacity=".6"/>
  </g>
</svg>
