<svg version="1.1" viewBox="0 0 24 24" xmlns="http://www.w3.org/2000/svg">
 <title>tennis-m</title>
 <g fill="none" fill-rule="evenodd">
  <g id="tennis-m" fill-rule="nonzero">
   <g id="Group" transform="translate(5,5)" fill="#fff">
    <g transform="matrix(1.2858 0 0 1.2858 -1.9355 -2.0018)" fill="#fff">
     <path id="Shape" d="m11.785 0.94818c-1.4891-1.4891-4.2127-1.19-6.0773 0.67455-1.0182 1.0182-1.6036 2.4627-1.6164 3.4745-0.012727 1.0055 0.16545 2.4755-0.85909 3.5l-2.6982 2.6982 0.90364 0.90364 2.6982-2.6982c1.0245-1.0245 2.4945-0.84636 3.5-0.85909 1.0055-0.012727 2.4564-0.59818 3.4745-1.6164 1.8582-1.8645 2.1636-4.5882 0.67455-6.0773zm-5.8545 5.8482c-0.97364-0.97364-0.66818-2.9336 0.67455-4.2764 1.3427-1.3427 3.2964-1.6482 4.2764-0.67455 0.97364 0.97364 0.66818 2.9336-0.67454 4.2764-1.3427 1.3427-3.2964 1.6482-4.2764 0.67455z" opacity=".6"/>
     <path d="m10.818 10.182c0.33727 0 0.66182 0.13364 0.89727 0.37546 0.49636 0.49636 0.49636 1.3045 0 1.8009-0.23546 0.23545-0.56 0.36909-0.89727 0.36909-0.33727 0-0.66182-0.13364-0.89727-0.37546-0.49636-0.49636-0.49636-1.3045 0-1.8009 0.23545-0.23545 0.56-0.36909 0.89727-0.36909m0-1.2727c-0.64909 0-1.3045 0.24818-1.8009 0.74455-0.99273 0.99273-0.99273 2.6027 0 3.6018 0.49636 0.49636 1.1518 0.74454 1.8009 0.74454s1.3045-0.24818 1.8009-0.74454c0.99273-0.99273 0.99273-2.6027 0-3.6018-0.49636-0.49636-1.1518-0.74455-1.8009-0.74455z" opacity=".6"/>
    </g>
   </g>
  </g>
 </g>
</svg>
