<svg width="24" height="24" viewBox="0 0 24 24">
  <g fill="none" fill-rule="evenodd">
    <circle cx="12" cy="12" r="12" fill="#FFF" opacity=".4"/>
    <circle cx="12" cy="12" r="11" fill="#3D3D36"/>
    <path fill="#FFF" d="M10.1538462,6 C7.81475077,6 6,7.81476923 6,10.1538462 C6,12.4929231 7.97765538,14.3062154 10.3167508,14.3076923 L13.3846154,14.3076923 L17.0769231,18 L18,18 L18,17.0769231 L14.3076923,13.3846154 L14.3076923,10.3166769 C14.3076923,7.9776 12.4929323,6 10.1538462,6 L10.1538462,6 Z M13.3846154,11.2668923 L13.3846154,13.3846154 L11.0769231,13.3846154 L13.3846154,11.2668923 Z M7.05882462,14.3076923 C6.47404615,14.3076923 6,14.7816923 6,15.3664615 C6,15.9512308 6.47404615,16.4253231 7.05882462,16.4253231 C7.64359385,16.4253231 8.11764923,15.9512308 8.11764923,15.3664615 C8.11764923,14.7816923 7.64359385,14.3076923 7.05882462,14.3076923 L7.05882462,14.3076923 Z" opacity=".6"/>
  </g>
</svg>
