<?xml version="1.0" encoding="UTF-8"?>
<svg width="24px" height="24px" viewBox="0 0 24 24" version="1.1" xmlns="http://www.w3.org/2000/svg" xmlns:xlink="http://www.w3.org/1999/xlink">
    <title>tennis-m</title>
    <g id="Page-2:-Night" stroke="none" stroke-width="1" fill="none" fill-rule="evenodd" opacity="0.6">
        <g id="tennis-m" fill-rule="nonzero">
            <circle id="Oval" fill="#FFFFFF" cx="12" cy="12" r="12"></circle>
            <circle id="Oval" fill="#717065" cx="12" cy="12" r="11"></circle>
            <g id="Group" transform="translate(5.000000, 5.000000)" fill="#FFFFFF">
                <path d="M11.7854545,0.948181818 C10.2963636,-0.540909091 7.57272727,-0.241818182 5.70818182,1.62272727 C4.69,2.64090909 4.10454545,4.08545455 4.09181818,5.09727273 C4.07909091,6.10272727 4.25727273,7.57272727 3.23272727,8.59727273 L0.534545455,11.2954545 L1.43818182,12.1990909 L4.13636364,9.50090909 C5.16090909,8.47636364 6.63090909,8.65454545 7.63636364,8.64181818 C8.64181818,8.62909091 10.0927273,8.04363636 11.1109091,7.02545455 C12.9690909,5.16090909 13.2745455,2.43727273 11.7854545,0.948181818 Z M5.93090909,6.79636364 C4.95727273,5.82272727 5.26272727,3.86272727 6.60545455,2.52 C7.94818182,1.17727273 9.90181818,0.871818182 10.8818182,1.84545455 C11.8554545,2.81909091 11.55,4.77909091 10.2072727,6.12181818 C8.86454545,7.46454545 6.91090909,7.77 5.93090909,6.79636364 Z" id="Shape"></path>
                <path d="M10.8181818,10.1818182 C11.1554545,10.1818182 11.48,10.3154545 11.7154545,10.5572727 C12.2118182,11.0536364 12.2118182,11.8618182 11.7154545,12.3581818 C11.48,12.5936364 11.1554545,12.7272727 10.8181818,12.7272727 C10.4809091,12.7272727 10.1563636,12.5936364 9.92090909,12.3518182 C9.42454545,11.8554545 9.42454545,11.0472727 9.92090909,10.5509091 C10.1563636,10.3154545 10.4809091,10.1818182 10.8181818,10.1818182 M10.8181818,8.90909091 C10.1690909,8.90909091 9.51363636,9.15727273 9.01727273,9.65363636 C8.02454545,10.6463636 8.02454545,12.2563636 9.01727273,13.2554545 C9.51363636,13.7518182 10.1690909,14 10.8181818,14 C11.4672727,14 12.1227273,13.7518182 12.6190909,13.2554545 C13.6118182,12.2627273 13.6118182,10.6527273 12.6190909,9.65363636 C12.1227273,9.15727273 11.4672727,8.90909091 10.8181818,8.90909091 L10.8181818,8.90909091 Z" id="Shape"></path>
            </g>
        </g>
    </g>
</svg>