<?xml version="1.0" encoding="UTF-8" standalone="no"?>
<svg width="27px" height="27px" viewBox="0 0 27 27" version="1.1" xmlns="http://www.w3.org/2000/svg" xmlns:xlink="http://www.w3.org/1999/xlink" xmlns:sketch="http://www.bohemiancoding.com/sketch/ns">
    <!-- Generator: Sketch 3.4.2 (15857) - http://www.bohemiancoding.com/sketch -->
    <title>tennis-l</title>
    <desc>Created with Sketch.</desc>
    <defs>
        <circle id="path-1" cx="13.5" cy="13.5" r="12.5"></circle>
    </defs>
    <g id="POI" stroke="none" stroke-width="1" fill="none" fill-rule="evenodd" sketch:type="MSPage">
        <g id="tennis-l" sketch:type="MSLayerGroup">
            <circle id="Oval-1-Copy-39" opacity="0" fill="#FFFFFF" sketch:type="MSShapeGroup" cx="13.5" cy="13.5" r="13.5"></circle>
            <g id="Oval-1-Copy-38">
                <use fill="#3D3D37" fill-rule="evenodd" sketch:type="MSShapeGroup" xlink:href="#path-1"></use>
                <use fill="none" xlink:href="#path-1"></use>
            </g>
            <path d="M11,5 C7.68629,5 5,7.6863 5,11 C5,14.3137 7.68629,17 11,17 L16,17 L20.5,21.5 C20.81628,21.8163 21.00625,22 21.40625,22 C21.53125,22 21.6875,22 21.84375,21.8438 C22.00005,21.6875 22,21.5313 22,21.4063 C22,21.0063 21.78212,20.7821 21.5,20.5 L17,16 L17,11 C17,7.6863 14.31371,5 11,5 L11,5 Z M16,13 L16,16 L13,16 L16,13 Z M6.5,17 C5.67157,17 5,17.6716 5,18.5 C5,19.3284 5.67157,20 6.5,20 C7.32843,20 8,19.3284 8,18.5 C8,17.6716 7.32843,17 6.5,17 L6.5,17 Z" id="path11507" opacity="0.7" fill="#FFFFFF" sketch:type="MSShapeGroup"></path>
        </g>
    </g>
</svg>