<?xml version="1.0" encoding="UTF-8" standalone="no"?>
<svg width="17px" height="17px" viewBox="0 0 17 17" version="1.1" xmlns="http://www.w3.org/2000/svg" xmlns:xlink="http://www.w3.org/1999/xlink" xmlns:sketch="http://www.bohemiancoding.com/sketch/ns">
    <!-- Generator: Sketch 3.4.2 (15857) - http://www.bohemiancoding.com/sketch -->
    <title>theatre-s</title>
    <desc>Created with Sketch.</desc>
    <defs></defs>
    <g id="POI" stroke="none" stroke-width="1" fill="none" fill-rule="evenodd" sketch:type="MSPage">
        <g id="theatre-s-copy" sketch:type="MSLayerGroup">
            <circle id="Oval-1-Copy-43" opacity="0" fill="#FFFFFF" sketch:type="MSShapeGroup" cx="8.5" cy="8.5" r="8.5"></circle>
            <circle id="Oval-1-Copy-42" fill="#2E1B10" sketch:type="MSShapeGroup" cx="8.5" cy="8.5" r="7.5"></circle>
            <g id="g6508-copy" transform="translate(4.000000, 4.000000)" fill="#FFFFFF" opacity="0.7" sketch:type="MSShapeGroup">
                <path d="M0.5,0.3622 C0.25,0.3622 0,0.6122 0,0.8622 L0,3.8622 C0,4.9702 0.5,6.3622 2.5,6.3622 C2.67934,6.3622 2.84309,6.3522 3,6.3312 L3,4.8624 L1,4.8624 C1,4.8624 1.25,3.8624 2.5,3.8624 C2.75,3.8624 2.84826,3.8994 3,3.9564 L3,2.8624 C3,2.4041 3.20224,2.0508 3.45312,1.7999 C3.70401,1.549 4.04166,1.3624 4.5,1.3624 L5,1.3624 L5,0.8626 C5,0.6126 4.7357,0.3628 4.5,0.3626 C4,0.3622 3.5,0.8622 2.5,0.8622 C1.63337,0.8622 1,0.3622 0.5,0.3622 L0.5,0.3622 Z M1.5,2.3622 C1.77614,2.3622 2,2.5861 2,2.8622 C2,3.1383 1.77614,3.3622 1.5,3.3622 C1.22386,3.3622 1,3.1383 1,2.8622 C1,2.5861 1.22386,2.3622 1.5,2.3622 L1.5,2.3622 Z M4.5,2.3622 C4.2643,2.3622 4,2.6122 4,2.8622 L4,5.8622 C4,6.9702 4.5,8.3622 6.5,8.3622 C8.5,8.3622 9,6.9702 9,5.8622 L9,2.8622 C9,2.6122 8.7357,2.3622 8.5,2.3622 C8,2.3622 7.24536,2.8622 6.5,2.8622 C5.75464,2.8622 5,2.3622 4.5,2.3622 L4.5,2.3622 Z M5.5,4.3622 C5.77614,4.3622 6,4.5861 6,4.8622 C6,5.1383 5.77614,5.3622 5.5,5.3622 C5.22386,5.3622 5,5.1383 5,4.8622 C5,4.5861 5.22386,4.3622 5.5,4.3622 L5.5,4.3622 Z M7.5,4.3622 C7.77614,4.3622 8,4.5861 8,4.8622 C8,5.1383 7.77614,5.3622 7.5,5.3622 C7.22386,5.3622 7,5.1383 7,4.8622 C7,4.5861 7.22386,4.3622 7.5,4.3622 L7.5,4.3622 Z M5,6.3622 L8,6.3622 C8,6.3622 7.75,7.3622 6.5,7.3622 C5.25,7.3622 5,6.3622 5,6.3622 L5,6.3622 Z" id="path6370"></path>
            </g>
        </g>
    </g>
</svg>