<svg width="16" height="16" viewBox="0 0 16 16">
  <g fill="none" fill-rule="evenodd">
    <circle cx="8" cy="8" r="8" fill="#FFF" opacity=".4"/>
    <circle cx="8" cy="8" r="7" fill="#4C351E"/>
    <path fill="#FFF" d="M4.5,4 C4.25,4 4,4.25 4,4.5 L4,7.5 C4,8.608 4.5,10 6.5,10 C6.67934,10 6.84309,9.99 7,9.969 L7,8.5002 L5,8.5002 C5,8.5002 5.25,7.5002 6.5,7.5002 C6.75,7.5002 6.84826,7.5372 7,7.5942 L7,6.5002 C7,6.0419 7.20224,5.6886 7.45312,5.4377 C7.70401,5.1868 8.04166,5.0002 8.5,5.0002 L9,5.0002 L9,4.5004 C9,4.2504 8.7357,4.0006 8.5,4.0004 C8,4 7.5,4.5 6.5,4.5 C5.63337,4.5 5,4 4.5,4 L4.5,4 Z M5.5,6 C5.77614,6 6,6.2239 6,6.5 C6,6.7761 5.77614,7 5.5,7 C5.22386,7 5,6.7761 5,6.5 C5,6.2239 5.22386,6 5.5,6 L5.5,6 Z M8.5,6 C8.2643,6 8,6.25 8,6.5 L8,9.5 C8,10.608 8.5,12 10.5,12 C12.5,12 13,10.608 13,9.5 L13,6.5 C13,6.25 12.7357,6 12.5,6 C12,6 11.24536,6.5 10.5,6.5 C9.75464,6.5 9,6 8.5,6 L8.5,6 Z M9.5,8 C9.77614,8 10,8.2239 10,8.5 C10,8.7761 9.77614,9 9.5,9 C9.22386,9 9,8.7761 9,8.5 C9,8.2239 9.22386,8 9.5,8 L9.5,8 Z M11.5,8 C11.77614,8 12,8.2239 12,8.5 C12,8.7761 11.77614,9 11.5,9 C11.22386,9 11,8.7761 11,8.5 C11,8.2239 11.22386,8 11.5,8 L11.5,8 Z M9,10 L12,10 C12,10 11.75,11 10.5,11 C9.25,11 9,10 9,10 L9,10 Z" opacity=".6"/>
  </g>
</svg>
