<?xml version="1.0" encoding="UTF-8" standalone="no"?>
<svg width="27px" height="27px" viewBox="0 0 27 27" version="1.1" xmlns="http://www.w3.org/2000/svg" xmlns:xlink="http://www.w3.org/1999/xlink" xmlns:sketch="http://www.bohemiancoding.com/sketch/ns">
    <!-- Generator: Sketch 3.4.2 (15857) - http://www.bohemiancoding.com/sketch -->
    <title>theatre-l</title>
    <desc>Created with Sketch.</desc>
    <defs></defs>
    <g id="POI" stroke="none" stroke-width="1" fill="none" fill-rule="evenodd" sketch:type="MSPage">
        <g id="theatre-l-copy" sketch:type="MSLayerGroup">
            <circle id="Oval-1-Copy-39" opacity="0" fill="#FFFFFF" sketch:type="MSShapeGroup" cx="13.5" cy="13.5" r="13.5"></circle>
            <circle id="Oval-1-Copy-38" fill="#59310E" sketch:type="MSShapeGroup" cx="13.5" cy="13.5" r="12.5"></circle>
            <path d="M6,5 C5.5286,5 5,5.5 5,6 L5,13 C5,15.216 6,18 10,18 C10.35868,18 10.68618,17.983 11,17.938 L11,15.0005 L7,15.0005 C7,15.0005 7.5,13.0005 10,13.0005 C10.5,13.0005 10.69653,13.0745 11,13.188 L11,11.0005 C11,10.0838 11.36529,9.3179 12,9.0005 C13,8.5005 13.40372,8.7024 14,9.0005 L15,9.5005 L15,6.0005 C15,5.5005 14.4714,5.0005 14,5.0005 C13,5.0005 12,6.0005 10,6.0005 C8,6.0005 7,5.0005 6,5.0005 L6,5 Z M7.75,8.5 C8.44036,8.5 9,9.0596 9,9.75 C9,10.4404 8.44036,11 7.75,11 C7.05964,11 6.5,10.4404 6.5,9.75 C6.5,9.0596 7.05964,8.5 7.75,8.5 L7.75,8.5 Z M13,10 C12.5286,10 12,10.5 12,11 L12,18 C12,20.216 13,23 17,23 C21,23 22,20.216 22,18 L22,11 C22,10.5 21.4714,10 21,10 C20,10 19,11 17,11 C15,11 14,10 13,10 L13,10 Z M14.75,13.5 C15.44036,13.5 16,14.0596 16,14.75 C16,15.4404 15.44036,16 14.75,16 C14.05964,16 13.5,15.4404 13.5,14.75 C13.5,14.0596 14.05964,13.5 14.75,13.5 L14.75,13.5 Z M19.25,13.5 C19.94036,13.5 20.5,14.0596 20.5,14.75 C20.5,15.4404 19.94036,16 19.25,16 C18.55964,16 18,15.4404 18,14.75 C18,14.0596 18.55964,13.5 19.25,13.5 L19.25,13.5 Z M14,19 L20,19 C20,19 19.5,21 17,21 C14.5,21 14,19 14,19 L14,19 Z" id="path6342-copy" opacity="0.7" fill="#FFFFFF" sketch:type="MSShapeGroup"></path>
        </g>
    </g>
</svg>