<?xml version="1.0" encoding="UTF-8"?>
<svg width="24px" height="24px" viewBox="0 0 24 24" version="1.1" xmlns="http://www.w3.org/2000/svg" xmlns:xlink="http://www.w3.org/1999/xlink">
    <title>theatre-m</title>
    <g id="Page-2:-Night" stroke="none" stroke-width="1" fill="none" fill-rule="evenodd" opacity="0.6">
        <g id="theatre-m" fill-rule="nonzero">
            <circle id="Oval" fill="#FFFFFF" cx="12" cy="12" r="12"></circle>
            <circle id="Oval" fill="#7F5933" cx="12" cy="12" r="11"></circle>
            <g id="Group" transform="translate(5.000000, 5.000000)" fill="#FFFFFF">
                <path d="M0,9.45 C0,11.578 1.722,13.3 3.85,13.3 C5.978,13.3 7.7,11.578 7.7,9.45 L7.7,4.9 L0,4.9 L0,9.45 Z M3.85,10.85 C2.884,10.85 2.1,10.381 2.1,9.8 L5.6,9.8 C5.6,10.381 4.816,10.85 3.85,10.85 Z M5.6,7 C5.985,7 6.3,7.315 6.3,7.7 C6.3,8.085 5.985,8.4 5.6,8.4 C5.215,8.4 4.9,8.085 4.9,7.7 C4.9,7.315 5.215,7 5.6,7 Z M2.1,7 C2.485,7 2.8,7.315 2.8,7.7 C2.8,8.085 2.485,8.4 2.1,8.4 C1.715,8.4 1.4,8.085 1.4,7.7 C1.4,7.315 1.715,7 2.1,7 Z" id="Shape"></path>
                <path d="M6.3,0 L6.3,4.2 L8.4,4.2 L8.4,5.95 C8.4,5.369 9.184,4.9 10.15,4.9 C11.116,4.9 11.9,5.369 11.9,5.95 L8.4,5.95 L8.4,7.7 L8.4,7.973 C8.925,8.239 9.52,8.4 10.15,8.4 C12.278,8.4 14,6.678 14,4.55 L14,0 L6.3,0 Z M8.4,3.556 C8.015,3.556 7.7,3.241 7.7,2.856 C7.7,2.471 8.015,2.156 8.4,2.156 C8.785,2.156 9.1,2.471 9.1,2.856 C9.1,3.248 8.785,3.556 8.4,3.556 Z M11.9,3.556 C11.515,3.556 11.2,3.241 11.2,2.856 C11.2,2.471 11.515,2.156 11.9,2.156 C12.285,2.156 12.6,2.471 12.6,2.856 C12.6,3.248 12.285,3.556 11.9,3.556 Z" id="Shape"></path>
            </g>
        </g>
    </g>
</svg>