<svg width="28" height="28" viewBox="0 0 28 28">
  <g fill="none" fill-rule="evenodd">
    <circle cx="14" cy="14" r="14" fill="#FFF" opacity=".4"/>
    <circle cx="14" cy="14" r="13" fill="#4C351E"/>
    <path fill="#FFF" d="M7.88235294,6 C7.46641176,6 7,6.44444444 7,6.88888889 L7,13.1111111 C7,15.0808889 7.88235294,17.5555556 11.4117647,17.5555556 C11.7282471,17.5555556 12.0172176,17.5404444 12.2941176,17.5004444 L12.2941176,14.8893333 L8.76470588,14.8893333 C8.76470588,14.8893333 9.20588235,13.1115556 11.4117647,13.1115556 C11.8529412,13.1115556 12.02635,13.1773333 12.2941176,13.2782222 L12.2941176,11.3337778 C12.2941176,10.5189333 12.6164324,9.83813333 13.1764706,9.556 C14.0588235,9.11155556 14.4150471,9.29102222 14.9411765,9.556 L15.8235294,10.0004444 L15.8235294,6.88933333 C15.8235294,6.44488889 15.3571176,6.00044444 14.9411765,6.00044444 C14.0588235,6.00044444 13.1764706,6.88933333 11.4117647,6.88933333 C9.64705882,6.88933333 8.76470588,6.00044444 7.88235294,6.00044444 L7.88235294,6 Z M9.42647059,9.11111111 C10.0356118,9.11111111 10.5294118,9.60853333 10.5294118,10.2222222 C10.5294118,10.8359111 10.0356118,11.3333333 9.42647059,11.3333333 C8.81732941,11.3333333 8.32352941,10.8359111 8.32352941,10.2222222 C8.32352941,9.60853333 8.81732941,9.11111111 9.42647059,9.11111111 L9.42647059,9.11111111 Z M14.0588235,10.4444444 C13.6428824,10.4444444 13.1764706,10.8888889 13.1764706,11.3333333 L13.1764706,17.5555556 C13.1764706,19.5253333 14.0588235,22 17.5882353,22 C21.1176471,22 22,19.5253333 22,17.5555556 L22,11.3333333 C22,10.8888889 21.5335882,10.4444444 21.1176471,10.4444444 C20.2352941,10.4444444 19.3529412,11.3333333 17.5882353,11.3333333 C15.8235294,11.3333333 14.9411765,10.4444444 14.0588235,10.4444444 L14.0588235,10.4444444 Z M15.6029412,13.5555556 C16.2120824,13.5555556 16.7058824,14.0529778 16.7058824,14.6666667 C16.7058824,15.2803556 16.2120824,15.7777778 15.6029412,15.7777778 C14.9938,15.7777778 14.5,15.2803556 14.5,14.6666667 C14.5,14.0529778 14.9938,13.5555556 15.6029412,13.5555556 L15.6029412,13.5555556 Z M19.5735294,13.5555556 C20.1826706,13.5555556 20.6764706,14.0529778 20.6764706,14.6666667 C20.6764706,15.2803556 20.1826706,15.7777778 19.5735294,15.7777778 C18.9643882,15.7777778 18.4705882,15.2803556 18.4705882,14.6666667 C18.4705882,14.0529778 18.9643882,13.5555556 19.5735294,13.5555556 L19.5735294,13.5555556 Z M14.9411765,18.4444444 L20.2352941,18.4444444 C20.2352941,18.4444444 19.7941176,20.2222222 17.5882353,20.2222222 C15.3823529,20.2222222 14.9411765,18.4444444 14.9411765,18.4444444 L14.9411765,18.4444444 Z" opacity=".6"/>
  </g>
</svg>
