<svg width="28" height="28" viewBox="0 0 28 28">
  <g fill="none" fill-rule="evenodd">
    <circle cx="14" cy="14" r="14" fill="#FFF" opacity=".4"/>
    <circle cx="14" cy="14" r="13" fill="#3D3D36"/>
    <path fill="#FFF" fill-rule="nonzero" d="M14,6 L14,7.33333333 L16.8,7.33333333 L16.1,6.66666667 L16.8,6 L14,6 Z M14,8 L18.9,12.6666667 L18.9,14 C18.9,14 19.0708,14.6666667 19.95,14.6666667 C20.8292,14.6666667 21,14 21,14 L21,12.6666667 L14,8 Z M14,8 L14.7,12.6666667 L14.7,14 C14.7,14 15.0472,14.6666667 16.1,14.6666667 C17.1528,14.6666667 17.5,14 17.5,14 L17.5,12.6666667 L14,8 Z M14,8 L10.5,12.6666667 L10.5,14 C10.5,14 10.8472,14.6666667 11.9,14.6666667 C12.9528,14.6666667 13.3,14 13.3,14 L13.3,12.6666667 L14,8 Z M14,8 L7,12.6666667 L7,14 C7,14 7.1708,14.6666667 8.05,14.6666667 C8.9292,14.6666667 9.1,14 9.1,14 L9.1,12.6666667 L14,8 Z M9.8,14.6666667 C9.8,14.6666667 9.1056,15.3333333 8.05,15.3333333 C7.8995,15.3333333 7.762475,15.3163333 7.634375,15.2916667 L7,20 L11.9,20 L12.6,17.3333333 L15.4,17.3333333 L16.1,20 L21,20 L20.365625,15.2916667 C20.237525,15.3163333 20.1005,15.3333333 19.95,15.3333333 C18.7341,15.3333333 18.2,14.6666667 18.2,14.6666667 C18.2,14.6666667 17.3964,15.3333333 16.1,15.3333333 C14.9821,15.3333333 14,14.6666667 14,14.6666667 C14,14.6666667 13.0123,15.3333333 11.9,15.3333333 C10.6218,15.3333333 9.8,14.6666667 9.8,14.6666667 Z" opacity=".6"/>
  </g>
</svg>
