<?xml version="1.0" encoding="UTF-8"?>
<svg width="24px" height="24px" viewBox="0 0 24 24" version="1.1" xmlns="http://www.w3.org/2000/svg" xmlns:xlink="http://www.w3.org/1999/xlink">
    <title>theme_park-m</title>
    <g id="Page-2:-Night" stroke="none" stroke-width="1" fill="none" fill-rule="evenodd" opacity="0.6">
        <g id="theme_park-m" fill-rule="nonzero">
            <circle id="Oval" fill="#FFFFFF" cx="12" cy="12" r="12"></circle>
            <circle id="Oval" fill="#717065" cx="12" cy="12" r="11"></circle>
            <path d="M12,5 L12,6.14286 L14.4,6.14286 L13.8,5.57143 L14.4,5 L12,5 Z M12,6.71429 L16.2,10.71429 L16.2,11.85714 C16.2,11.85714 16.3464,12.42857 17.1,12.42857 C17.8536,12.42857 18,11.85714 18,11.85714 L18,10.71429 L12,6.71429 Z M12,6.71429 L12.6,10.71429 L12.6,11.85714 C12.6,11.85714 12.8976,12.42857 13.8,12.42857 C14.7024,12.42857 15,11.85714 15,11.85714 L15,10.71429 L12,6.71429 Z M12,6.71429 L9,10.71429 L9,11.85714 C9,11.85714 9.2976,12.42857 10.2,12.42857 C11.1024,12.42857 11.4,11.85714 11.4,11.85714 L11.4,10.71429 L12,6.71429 Z M12,6.71429 L6,10.71429 L6,11.85714 C6,11.85714 6.1464,12.42857 6.9,12.42857 C7.6536,12.42857 7.8,11.85714 7.8,11.85714 L7.8,10.71429 L12,6.71429 Z M8.4,12.42857 C8.4,12.42857 7.8048,13 6.9,13 C6.771,13 6.65355,12.98543 6.54375,12.96429 L6,17 L10.2,17 L10.8,14.71429 L13.2,14.71429 L13.8,17 L18,17 L17.45625,12.96429 C17.34645,12.98543 17.229,13 17.1,13 C16.0578,13 15.6,12.42857 15.6,12.42857 C15.6,12.42857 14.9112,13 13.8,13 C12.8418,13 12,12.42857 12,12.42857 C12,12.42857 11.1534,13 10.2,13 C9.1044,13 8.4,12.42857 8.4,12.42857 L8.4,12.42857 Z" id="Shape" fill="#FFFFFF"></path>
        </g>
    </g>
</svg>