<?xml version="1.0" encoding="UTF-8"?>
<svg width="16px" height="16px" viewBox="0 0 16 16" version="1.1" xmlns="http://www.w3.org/2000/svg" xmlns:xlink="http://www.w3.org/1999/xlink">
    <title>theme_park-s</title>
    <g id="Page-2:-Night" stroke="none" stroke-width="1" fill="none" fill-rule="evenodd" opacity="0.6">
        <g id="theme_park-s" fill-rule="nonzero">
            <circle id="Oval" fill="#FFFFFF" cx="8" cy="8" r="8"></circle>
            <circle id="Oval" fill="#717065" cx="8" cy="8" r="7"></circle>
            <path d="M8,3 L8,3.76190476 L9.6,3.76190476 L9.2,3.38095238 L9.6,3 L8,3 Z M8,4.14285714 L10.8,6.80952381 L10.8,7.57142857 C10.8,7.57142857 10.8976,7.95238095 11.4,7.95238095 C11.9024,7.95238095 12,7.57142857 12,7.57142857 L12,6.80952381 L8,4.14285714 Z M8,4.14285714 L8.4,6.80952381 L8.4,7.57142857 C8.4,7.57142857 8.5984,7.95238095 9.2,7.95238095 C9.8016,7.95238095 10,7.57142857 10,7.57142857 L10,6.80952381 L8,4.14285714 Z M8,4.14285714 L6,6.80952381 L6,7.57142857 C6,7.57142857 6.1984,7.95238095 6.8,7.95238095 C7.4016,7.95238095 7.6,7.57142857 7.6,7.57142857 L7.6,6.80952381 L8,4.14285714 Z M8,4.14285714 L4,6.80952381 L4,7.57142857 C4,7.57142857 4.0976,7.95238095 4.6,7.95238095 C5.1024,7.95238095 5.2,7.57142857 5.2,7.57142857 L5.2,6.80952381 L8,4.14285714 Z M5.6,7.95238095 C5.6,7.95238095 5.2032,8.33333333 4.6,8.33333333 C4.514,8.33333333 4.4357,8.32361905 4.3625,8.30952381 L4,11 L6.8,11 L7.2,9.47619048 L8.8,9.47619048 L9.2,11 L12,11 L11.6375,8.30952381 C11.5643,8.32361905 11.486,8.33333333 11.4,8.33333333 C10.7052,8.33333333 10.4,7.95238095 10.4,7.95238095 C10.4,7.95238095 9.9408,8.33333333 9.2,8.33333333 C8.5612,8.33333333 8,7.95238095 8,7.95238095 C8,7.95238095 7.4356,8.33333333 6.8,8.33333333 C6.0696,8.33333333 5.6,7.95238095 5.6,7.95238095 Z" id="Shape" fill="#FFFFFF"></path>
        </g>
    </g>
</svg>