<svg version="1.1" viewBox="0 0 24 24" xmlns="http://www.w3.org/2000/svg">
 <title>tire-repair-m</title>
 <g id="Page-2:-Night" fill="none" fill-rule="evenodd" opacity=".6">
  <g id="tire-repair-m" fill-rule="nonzero">
   <circle id="Oval" cx="12" cy="12" r="12" fill="#fff"/>
   <circle id="Oval" cx="12" cy="12" r="11" fill="#717065"/>
   <path id="Shape" d="m12 5c-3.8661 0-7 2.9847-7 6.6667 0 2.9347 1.5094 3.4588 1.5094 4.3542 0 0.406-1.6863 0.97917 3.0625 0.97917h4.8562c4.7488 0 3.0625-0.57317 3.0625-0.97917-7e-4 -0.89533 1.5094-1.4195 1.5094-4.3542 0-3.682-3.1339-6.6667-7-6.6667zm0 2c2.7062 0 4.9 2.0893 4.9 4.6667 0 2.5773-2.1938 4.6667-4.9 4.6667s-4.9-2.0893-4.9-4.6667c0-2.5773 2.1938-4.6667 4.9-4.6667zm0 0.66667c-0.1596 0-0.32655 0.0041667-0.48125 0.020833l-0.21875 2.1042c-0.2366 0.081333-0.46795 0.20283-0.65625 0.35417l-2.0125-0.85417c-0.1869 0.24067-0.35385 0.4935-0.48125 0.77083l1.7938 1.25c-0.0217 0.116-0.04375 0.23283-0.04375 0.35417 0 0.12133 0.02205 0.23883 0.04375 0.35417l-1.7938 1.25c0.1274 0.27733 0.29435 0.53083 0.48125 0.77083l2.0125-0.85417c0.1883 0.15133 0.41965 0.27283 0.65625 0.35417l0.21875 2.1042c0.154 0.017333 0.32165 0.020833 0.48125 0.020833s0.32655-0.0041667 0.48125-0.020833l0.21875-2.1042c0.2366-0.081333 0.46795-0.20283 0.65625-0.35417l2.0125 0.85417c0.1869-0.24067 0.35385-0.4935 0.48125-0.77083l-1.7938-1.25c0.021-0.116 0.04375-0.23283 0.04375-0.35417 0-0.12133-0.02205-0.23883-0.04375-0.35417l1.7938-1.25c-0.1274-0.27733-0.29435-0.53083-0.48125-0.77083l-2.0125 0.85417c-0.1883-0.15133-0.41965-0.27283-0.65625-0.35417l-0.21875-2.1042c-0.154-0.017333-0.32165-0.020833-0.48125-0.020833zm0 3c0.5796 0 1.05 0.448 1.05 1s-0.4704 1-1.05 1-1.05-0.448-1.05-1 0.4704-1 1.05-1z" fill="#fff"/>
  </g>
 </g>
</svg>
