<svg width="16" height="16" viewBox="0 0 16 16">
  <g fill="none" fill-rule="evenodd">
    <circle cx="8" cy="8" r="8" fill="#FFF" opacity=".4"/>
    <circle cx="8" cy="8" r="7" fill="#3D3D36"/>
    <path fill="#FFF" fill-rule="nonzero" d="M8,4 C5.7908,4 4,5.74105556 4,7.88888889 C4,9.60077778 4.8625,9.90654167 4.8625,10.4288194 C4.8625,10.6656528 3.8989,11 6.6125,11 L9.3875,11 C12.1011,11 11.1375,10.6656528 11.1375,10.4288194 C11.1371,9.90654167 12,9.60077778 12,7.88888889 C12,5.74105556 10.2092,4 8,4 Z M8,5.16666667 C9.5464,5.16666667 10.8,6.38544444 10.8,7.88888889 C10.8,9.39233333 9.5464,10.6111111 8,10.6111111 C6.4536,10.6111111 5.2,9.39233333 5.2,7.88888889 C5.2,6.38544444 6.4536,5.16666667 8,5.16666667 Z M8,5.55555556 C7.9088,5.55555556 7.8134,5.55798611 7.725,5.56770833 L7.6,6.79513889 C7.4648,6.84258333 7.3326,6.91345833 7.225,7.00173611 L6.075,6.50347222 C5.9682,6.64386111 5.8728,6.79134722 5.8,6.953125 L6.825,7.68229167 C6.8126,7.74995833 6.8,7.81811111 6.8,7.88888889 C6.8,7.95966667 6.8126,8.02820833 6.825,8.09548611 L5.8,8.82465278 C5.8728,8.98643056 5.9682,9.13430556 6.075,9.27430556 L7.225,8.77604167 C7.3326,8.86431944 7.4648,8.93519444 7.6,8.98263889 L7.725,10.2100694 C7.813,10.2201806 7.9088,10.2222222 8,10.2222222 C8.0912,10.2222222 8.1866,10.2197917 8.275,10.2100694 L8.4,8.98263889 C8.5352,8.93519444 8.6674,8.86431944 8.775,8.77604167 L9.925,9.27430556 C10.0318,9.13391667 10.1272,8.98643056 10.2,8.82465278 L9.175,8.09548611 C9.187,8.02781944 9.2,7.95966667 9.2,7.88888889 C9.2,7.81811111 9.1874,7.74956944 9.175,7.68229167 L10.2,6.953125 C10.1272,6.79134722 10.0318,6.64347222 9.925,6.50347222 L8.775,7.00173611 C8.6674,6.91345833 8.5352,6.84258333 8.4,6.79513889 L8.275,5.56770833 C8.187,5.55759722 8.0912,5.55555556 8,5.55555556 Z M8,7.30555556 C8.3312,7.30555556 8.6,7.56688889 8.6,7.88888889 C8.6,8.21088889 8.3312,8.47222222 8,8.47222222 C7.6688,8.47222222 7.4,8.21088889 7.4,7.88888889 C7.4,7.56688889 7.6688,7.30555556 8,7.30555556 Z" opacity=".6"/>
  </g>
</svg>
