<svg version="1.1" viewBox="0 0 24 24" xmlns="http://www.w3.org/2000/svg">
 <title>toilets-m</title>
 <g id="Page-2:-Night" fill="none" fill-rule="evenodd" opacity=".6">
  <g id="toilets-m" fill-rule="nonzero">
   <circle id="Oval" cx="12" cy="12" r="12" fill="#fff"/>
   <circle id="Oval" cx="12" cy="12" r="11" fill="#7F5933"/>
   <path id="Shape" d="m8.1818 7.6923c0.75682 0 1.3636-0.59904 1.3636-1.3462 0-0.74712-0.60682-1.3462-1.3636-1.3462s-1.3636 0.59904-1.3636 1.3462c0 0.74712 0.60682 1.3462 1.3636 1.3462zm7.6364 7.5385v3.7692h-2.1818v-3.7692h-2.1818l1.9091-5.9231s0.27273-1.0769 1.3636-1.0769 1.3636 1.0769 1.3636 1.0769l1.9091 5.9231h-2.1818zm-6.5455-1.6154v5.3846h-2.1818v-5.3846h-1.0909v-3.8847c0-0.82838 0.66274-1.4999 1.5017-1.4999h1.3602c0.82937 0 1.5017 0.67108 1.5017 1.4999v3.8847h-1.0909zm6.9584-7.2692c0 0.74712-0.62972 1.3462-1.4151 1.3462s-1.4151-0.59904-1.4151-1.3462c0-0.74712 0.62972-1.3462 1.4151-1.3462s1.4151 0.59904 1.4151 1.3462z" fill="#fff"/>
  </g>
 </g>
</svg>
