<?xml version="1.0" encoding="UTF-8"?>
<svg width="27px" height="27px" viewBox="0 0 27 27" version="1.1" xmlns="http://www.w3.org/2000/svg" xmlns:xlink="http://www.w3.org/1999/xlink">
    <!-- Generator: Sketch 39.1 (31720) - http://www.bohemiancoding.com/sketch -->
    <title>toilets-l</title>
    <desc>Created with Sketch.</desc>
    <defs></defs>
    <g id="POI-Night" stroke="none" stroke-width="1" fill="none" fill-rule="evenodd">
        <g id="Artboard-1" transform="translate(-317.000000, -878.000000)">
            <g id="toilets-l" transform="translate(317.000000, 878.000000)">
                <circle id="Oval-1-Copy-39" fill-opacity="0.1" fill="#FFFFFF" cx="13.5" cy="13.5" r="13.5"></circle>
                <circle id="Oval-1-Copy-38" fill="#26160D" cx="13.5" cy="13.5" r="12.5"></circle>
                <path d="M10.6447303,9 C11.4774175,9 12.1450676,8.3325 12.1450676,7.5 C12.1450676,6.6675 11.4774175,6 10.6447303,6 C9.81204303,6 9.1443929,6.6675 9.1443929,7.5 C9.1443929,8.3325 9.81204303,9 10.6447303,9 L10.6447303,9 Z M17.5286312,9 C18.3613184,9 19.0289685,8.3325 19.0289685,7.5 C19.0289685,6.6675 18.3613184,6 17.5286312,6 C16.6959439,6 16.0282938,6.6675 16.0282938,7.5 C16.0282938,8.3325 16.6959439,9 17.5286312,9 Z M8,11.9979131 C8,10.8944962 8.89410085,10 10.0053324,10 L10.9957922,10 C12.1033067,10 13.0011246,10.8982606 13.0011246,11.9979131 L13.0011246,16 L8,16 L8,11.9979131 Z M16,11 C16,11 16.25,10 17.5,10 C18.75,10 19,11 19,11 L21,17 L14,17 L16,11 Z M16.5,17 L18.5,17 L18.5,21 L16.5,21 L16.5,17 Z M9.5,16 L11.5,16 L11.5,21 L9.5,21 L9.5,16 Z" id="Shape" fill-opacity="0.7" fill="#FFFFFF"></path>
            </g>
        </g>
    </g>
</svg>