<?xml version="1.0" encoding="UTF-8" standalone="no"?>
<svg width="17px" height="17px" viewBox="0 0 17 17" version="1.1" xmlns="http://www.w3.org/2000/svg" xmlns:xlink="http://www.w3.org/1999/xlink">
    <!-- Generator: Sketch 3.8.3 (29802) - http://www.bohemiancoding.com/sketch -->
    <title>toilets-s</title>
    <desc>Created with Sketch.</desc>
    <defs></defs>
    <g id="POI-NIght" stroke="none" stroke-width="1" fill="none" fill-rule="evenodd">
        <g id="toilets-s">
            <circle id="Oval-1-Copy-43" fill-opacity="0.1" fill="#FFFFFF" cx="8.5" cy="8.5" r="8.5"></circle>
            <circle id="Oval-1-Copy-42" fill="#26160D" cx="8.5" cy="8.5" r="7.5"></circle>
            <path d="M6,4 C5.30964,4 4.75,4.55964 4.75,5.25 C4.75,5.94036 5.30964,6.5 6,6.5 C6.69036,6.5 7.25,5.94036 7.25,5.25 C7.25,4.55964 6.69036,4 6,4 L6,4 Z M11,4 C10.30964,4 9.75,4.55964 9.75,5.25 C9.75,5.94036 10.30964,6.5 11,6.5 C11.69036,6.5 12.25,5.94036 12.25,5.25 C12.25,4.55964 11.69036,4 11,4 Z M10.641777,7.47848141 C10.8395963,6.96850185 11.163995,6.97795082 11.3581551,7.47848138 L13.1418053,12.0766003 C13.3396308,12.5865799 13.0701062,12.8686308 12.533595,12.7265929 C12.533595,12.7265929 12.0094605,12.4999998 10.9999604,12.5 C9.99046034,12.5000002 9.45434435,12.7295128 9.45434435,12.7295128 C8.92727452,12.8788989 8.66402939,12.5771311 8.85818338,12.0766005 L10.641777,7.47848141 Z M5.64177705,12.4140425 C5.83959627,12.9240221 6.16399501,12.9145731 6.35815514,12.4140426 L8.14180528,7.8159236 C8.33963076,7.30594405 8.07010624,7.02389311 7.53359496,7.16593102 C7.53359496,7.16593102 7.00946051,7.39252418 5.99996043,7.39252395 C4.99046034,7.39252371 4.45434435,7.16301112 4.45434435,7.16301112 C3.92727452,7.01362506 3.66402939,7.31539283 3.85818338,7.81592341 L5.64177705,12.4140425 Z" id="Combined-Shape" fill-opacity="0.7" fill="#FFFFFF"></path>
        </g>
    </g>
</svg>