<?xml version="1.0" encoding="UTF-8"?>
<svg width="17px" height="17px" viewBox="0 0 17 17" version="1.1" xmlns="http://www.w3.org/2000/svg" xmlns:xlink="http://www.w3.org/1999/xlink">
    <!-- Generator: Sketch 39.1 (31720) - http://www.bohemiancoding.com/sketch -->
    <title>toilets-s</title>
    <desc>Created with Sketch.</desc>
    <defs></defs>
    <g id="POI-Night" stroke="none" stroke-width="1" fill="none" fill-rule="evenodd">
        <g id="Artboard-1" transform="translate(-387.000000, -883.000000)">
            <g id="toilets-s" transform="translate(387.000000, 883.000000)">
                <circle id="Oval-1-Copy-43" fill-opacity="0.1" fill="#FFFFFF" cx="8.5" cy="8.5" r="8.5"></circle>
                <circle id="Oval-1-Copy-42" fill="#26160D" cx="8.5" cy="8.5" r="7.5"></circle>
                <path d="M6.5,6 C7.055,6 7.5,5.555 7.5,5 C7.5,4.445 7.055,4 6.5,4 C5.945,4 5.5,4.445 5.5,5 C5.5,5.555 5.945,6 6.5,6 L6.5,6 Z M10.5,6 C11.055,6 11.5,5.555 11.5,5 C11.5,4.445 11.055,4 10.5,4 C9.945,4 9.5,4.445 9.5,5 C9.5,5.555 9.945,6 10.5,6 Z M5,7.49359751 C5,6.94484876 5.44266033,6.5 5.99895656,6.5 L7.00104344,6.5 C7.55275191,6.5 8,6.95756388 8,7.49359751 L8,10 L5,10 L5,7.49359751 Z M6,10 L7,10 L7,13 L6,13 L6,10 Z M9.75,7 C9.75,7 9.86706543,6.5 10.4823608,6.5 C11.0976562,6.5 11.25,7 11.25,7 L12.25,11 L8.75,11 L9.75,7 Z M10,11 L11,11 L11,13 L10,13 L10,11 Z" id="Combined-Shape" fill-opacity="0.7" fill="#FFFFFF"></path>
            </g>
        </g>
    </g>
</svg>