<?xml version="1.0" encoding="UTF-8"?>
<svg width="17px" height="17px" viewBox="0 0 17 17" version="1.1" xmlns="http://www.w3.org/2000/svg" xmlns:xlink="http://www.w3.org/1999/xlink">
    <!-- Generator: Sketch 39.1 (31720) - http://www.bohemiancoding.com/sketch -->
    <title>tomb-s</title>
    <desc>Created with Sketch.</desc>
    <defs></defs>
    <g id="POI-Night" stroke="none" stroke-width="1" fill="none" fill-rule="evenodd">
        <g id="Artboard-1" transform="translate(-387.000000, -1216.000000)">
            <g id="tomb-s" transform="translate(387.000000, 1216.000000)">
                <path d="M8.5,17 C3.812,17 0,13.188 0,8.5 C0,3.812 3.812,0 8.5,0 C13.188,0 17,3.812 17,8.5 C17,13.188 13.188,17 8.5,17 L8.5,17 Z" id="Shape" fill-opacity="0.1" fill="#FFFFFF"></path>
                <ellipse id="Oval" fill="#26160D" cx="8.5" cy="8.5" rx="7.5" ry="7.5"></ellipse>
                <path d="M8.57,6 L8.431,6 L7.001,7.482 L7.001,11 L10.001,11 L10.001,7.482 L8.57,6 L8.57,6 Z M8.57,4 L8.431,4 C6.538,4 5,5.562 5,7.482 L5,13 L12,13 L12,7.482 C12.001,5.562 10.463,4 8.57,4 L8.57,4 Z M11.001,12 L6.001,12 L6.001,7.482 C6.001,6.113 7.092,5 8.432,5 L8.571,5 C9.911,5 11.002,6.113 11.002,7.482 L11.002,12 L11.001,12 Z" id="Shape" fill-opacity="0.7" fill="#FFFFFF"></path>
            </g>
        </g>
    </g>
</svg>