<?xml version="1.0" encoding="UTF-8" standalone="no"?>
<svg width="27px" height="27px" viewBox="0 0 27 27" version="1.1" xmlns="http://www.w3.org/2000/svg" xmlns:xlink="http://www.w3.org/1999/xlink">
    <!-- Generator: Sketch 3.7.2 (28276) - http://www.bohemiancoding.com/sketch -->
    <title>tourist-shop-l</title>
    <desc>Created with Sketch.</desc>
    <defs></defs>
    <g id="POI" stroke="none" stroke-width="1" fill="none" fill-rule="evenodd">
        <g id="lighthouse-l">
            <circle id="Oval-1-Copy-39" cx="13.5" cy="13.5" r="13.5"></circle>
            <path d="M13.5,26 C20.4035594,26 26,20.4035594 26,13.5 C26,6.59644063 20.4035594,1 13.5,1 C6.59644063,1 1,6.59644063 1,13.5 C1,20.4035594 6.59644063,26 13.5,26 Z" id="Oval-1-Copy-38" fill="#33332E"></path>
        </g>
        <path d="M10,8 L7.00010618,8 C5.89005841,8 5,8.8992496 5,10.0085302 L5,17.9914698 C5,19.0980496 5.89547804,20 7.00010618,20 L19.9998938,20 C21.1099416,20 22,19.1007504 22,17.9914698 L22,10.0085302 C22,8.90195036 21.104522,8 19.9998938,8 L17,8 L17,6.00591905 C17,4.88655484 16.1019194,4 14.9940809,4 L12.0059191,4 C10.8865548,4 10,4.89808055 10,6.00591905 L10,8 Z M10,16 L15,16 L15,18 L10,18 L10,16 Z M15.2984529,11.5886679 L20.2224916,12.4569088 L19.7015471,15.4113321 L14.7775084,14.5430912 L15.2984529,11.5886679 Z M6.76991223,11.3700847 L10.7091432,10.675492 L11.2300878,13.6299153 L7.29085676,14.324508 L6.76991223,11.3700847 Z M11,5.99895656 C11,5.44724809 11.4437166,5 11.9998075,5 L15.0001925,5 C15.5523709,5 16,5.44266033 16,5.99895656 L16,8 L11,8 L11,5.99895656 Z" id="Combined-Shape" fill="#C2C2C0"></path>
    </g>
</svg>