<?xml version="1.0" encoding="UTF-8" standalone="no"?>
<svg width="23px" height="23px" viewBox="0 0 23 23" version="1.1" xmlns="http://www.w3.org/2000/svg" xmlns:xlink="http://www.w3.org/1999/xlink" xmlns:sketch="http://www.bohemiancoding.com/sketch/ns">
    <!-- Generator: Sketch 3.4.2 (15857) - http://www.bohemiancoding.com/sketch -->
    <title>toys-m</title>
    <desc>Created with Sketch.</desc>
    <defs>
        <path id="path-1" d="M22,11.5 C22,17.299 17.299,22 11.5,22 C5.701,22 1,17.299 1,11.5 C1,5.701 5.701,1 11.5,1 C17.299,1 22,5.701 22,11.5 L22,11.5 Z"></path>
    </defs>
    <g id="POI" stroke="none" stroke-width="1" fill="none" fill-rule="evenodd" sketch:type="MSPage">
        <g id="toys-m" sketch:type="MSLayerGroup">
            <path d="M11.5,23 C5.159,23 0,17.841 0,11.5 C0,5.159 5.159,0 11.5,0 C17.841,0 23,5.159 23,11.5 C23,17.841 17.841,23 11.5,23 L11.5,23 Z" id="Shape" opacity="0" fill="#FFFFFF" sketch:type="MSShapeGroup"></path>
            <g id="Shape">
                <use fill="#3D3D37" fill-rule="evenodd" sketch:type="MSShapeGroup" xlink:href="#path-1"></use>
                <use fill="none" xlink:href="#path-1"></use>
            </g>
            <path d="M15,15 C13.896,15 13,15.895 13,17 C13,18.104 13.896,19 15,19 C16.104,19 17,18.104 17,17 C17,15.895 16.104,15 15,15 L15,15 Z M8,15 C6.895,15 6,15.895 6,17 C6,18.104 6.895,19 8,19 C9.104,19 10,18.104 10,17 C10,15.895 9.104,15 8,15 L8,15 Z M17.498,11 L14.092,11 C14.569,10.456 14.878,9.765 14.961,8.997 C14.975,8.997 14.986,9.001 15,9.001 C16.104,9.001 17,8.105 17,7.001 C17,5.897 16.104,5 15,5 C14.41,5 13.885,5.261 13.52,5.667 C12.949,5.25 12.254,5 11.5,5 C10.746,5 10.052,5.25 9.48,5.667 C9.114,5.261 8.59,5 8,5 C6.895,5 6,5.896 6,7.001 C6,8.105 6.895,9.001 8,9.001 C8.014,9.001 8.025,8.997 8.039,8.997 C8.122,9.765 8.432,10.456 8.908,11 L5.501,11 C4.673,11 4,11.672 4,12.5 C4,13.293 4.617,13.934 5.395,13.989 C6.097,13.381 7,13 8,13 C9.517,13 10.821,13.857 11.5,15.104 C12.179,13.858 13.483,13 15,13 C16,13 16.903,13.381 17.605,13.989 C18.382,13.933 19,13.293 19,12.5 C19,11.672 18.327,11 17.498,11 L17.498,11 Z M11.5,11.2 C10.547,11.2 9.8,10.673 9.8,10 C9.8,9.327 10.547,8.8 11.5,8.8 C12.453,8.8 13.2,9.327 13.2,10 C13.2,10.673 12.453,11.2 11.5,11.2 L11.5,11.2 Z" id="Shape" opacity="0.7" fill="#FFFFFF" sketch:type="MSShapeGroup"></path>
        </g>
    </g>
</svg>