<svg width="16" height="16" viewBox="0 0 16 16">
  <g fill="none" fill-rule="evenodd">
    <rect width="16" height="16" fill="#FFF" opacity=".4" rx="1.5"/>
    <rect width="14" height="14" x="1" y="1" fill="#1F4366" rx="1"/>
    <path fill="#FFF" d="M6.86363637,13 L8.00000001,11 L6.50000001,11 L4,15.4 L5.5,15.4 L6.29545455,14 L10.7045454,14 L11.5,15.4 L13,15.4 L10.5,11 L8.99999999,11 L10.1363636,13 L6.86363637,13 Z M7.5093689,3 L9.4906311,3 C10.0566468,3 10.8593791,3.27381267 11.3026958,3.61157772 L11.1973042,3.53127943 C11.6368918,3.86620331 12,4.59500869 12,5.15276589 L12,10.4285714 C12,10.7142857 11.75,11 11.5,11 L10.25,11 L9,11 L6.75,11 L5.5,11 C5.25,11 5,10.7142857 5,10.4285714 L5,5.15276589 C5,4.59491021 5.35937913,3.86904447 5.80269575,3.53127943 L5.69730425,3.61157772 C6.13689184,3.27665383 6.95190985,3 7.5093689,3 Z M7,4.14285714 L6,4.71428571 L6,6.42857143 L11,6.42857143 L11,4.71428571 L10,4.14285714 L7,4.14285714 Z M6.5,8.71428571 C6.223,8.71428571 6,8.96914286 6,9.28571429 C6,9.60228571 6.223,9.85714286 6.5,9.85714286 C6.777,9.85714286 7,9.60228571 7,9.28571429 C7,8.96914286 6.777,8.71428571 6.5,8.71428571 Z M10.5,8.71428571 C10.223,8.71428571 10,8.96914286 10,9.28571429 C10,9.60228571 10.223,9.85714286 10.5,9.85714286 C10.777,9.85714286 11,9.60228571 11,9.28571429 C11,8.96914286 10.777,8.71428571 10.5,8.71428571 Z" opacity=".6"/>
  </g>
</svg>
