<?xml version="1.0" encoding="UTF-8" standalone="no"?>
<svg width="17px" height="17px" viewBox="0 0 17 17" version="1.1" xmlns="http://www.w3.org/2000/svg" xmlns:xlink="http://www.w3.org/1999/xlink">
    <!-- Generator: Sketch 3.8.3 (29802) - http://www.bohemiancoding.com/sketch -->
    <title>train-s</title>
    <desc>Created with Sketch.</desc>
    <defs>
        <rect id="path-1" x="0" y="0" width="15" height="15" rx="1"></rect>
    </defs>
    <g id="POI-NIght" stroke="none" stroke-width="1" fill="none" fill-rule="evenodd">
        <g id="train-s" transform="translate(1.000000, 1.000000)">
            <g id="Rectangle-211">
                <use fill="#3C3E38" xlink:href="#path-1"></use>
                <use fill="#032C4D" xlink:href="#path-1"></use>
            </g>
            <path d="M5.86363637,12 L7.00000001,10 L5.50000001,10 L3,14.4 L4.5,14.4 L5.29545455,13 L9.70454545,13 L10.5,14.4 L12,14.4 L9.49999999,10 L7.99999999,10 L9.13636363,12 L5.86363637,12 Z" id="Rectangle-22" fill-opacity="0.7" fill="#FFFFFF"></path>
            <path d="M6.5093689,2 C5.95190985,2 5.13689184,2.27665383 4.69730425,2.61157772 L4.80269575,2.53127943 C4.35937913,2.86904447 4,3.59491021 4,4.15276589 L4,9.4285714 C4,9.7142857 4.25,10 4.5,10 L5.75,10 L8,10 L9.25,10 L10.5,10 C10.75,10 11,9.7142857 11,9.4285714 L11,4.15276589 C11,3.59500869 10.6368918,2.86620331 10.1973042,2.53127943 L10.3026958,2.61157772 C9.8593791,2.27381267 9.0566468,2 8.4906311,2 L6.5093689,2 L6.5093689,2 Z M6,3.14285714 L9,3.14285714 L10,3.71428571 L10,5.42857143 L5,5.42857143 L5,3.71428571 L6,3.14285714 L6,3.14285714 Z M5.5,7.71428571 C5.777,7.71428571 6,7.96914286 6,8.28571429 C6,8.60228571 5.777,8.85714286 5.5,8.85714286 C5.223,8.85714286 5,8.60228571 5,8.28571429 C5,7.96914286 5.223,7.71428571 5.5,7.71428571 L5.5,7.71428571 L5.5,7.71428571 Z M9.5,7.71428571 C9.777,7.71428571 10,7.96914286 10,8.28571429 C10,8.60228571 9.777,8.85714286 9.5,8.85714286 C9.223,8.85714286 9,8.60228571 9,8.28571429 C9,7.96914286 9.223,7.71428571 9.5,7.71428571 L9.5,7.71428571 L9.5,7.71428571 Z" id="path24879" fill-opacity="0.7" fill="#FFFFFF"></path>
        </g>
    </g>
</svg>