<svg version="1.1" viewBox="0 0 16 16" xmlns="http://www.w3.org/2000/svg">
 <title>train-s</title>
 <g id="Page-2:-Night" fill="none" fill-rule="evenodd" opacity=".6">
  <g id="train-s" fill-rule="nonzero">
   <rect id="Rectangle" width="16" height="16" rx="2.5" fill="#fff"/>
   <rect id="Rectangle" x=".66667" y=".66667" width="14.667" height="14.667" rx="2" fill="#2F6499"/>
   <path id="Shape" d="m7.9298 3.3333c-1.9649 0-3.9298 0.24561-3.9298 1.9649v4.6667c0 0.94807 0.77123 1.7193 1.7193 1.7193l-0.73684 0.73684v0.24561h1.0954l0.98246-0.98246h1.8519l0.98246 0.98246h0.98246v-0.24561l-0.73684-0.73684c0.94807 0 1.7193-0.77123 1.7193-1.7193v-4.6667c0-1.7193-1.7586-1.9649-3.9298-1.9649zm-2.2105 7.3684c-0.40772 0-0.73684-0.32912-0.73684-0.73684 0-0.40772 0.32912-0.73684 0.73684-0.73684 0.40772 0 0.73684 0.32912 0.73684 0.73684 0 0.40772-0.32912 0.73684-0.73684 0.73684zm1.7193-3.4386h-2.4561v-1.9649h2.4561v1.9649zm0.98246 0v-1.9649h2.4561v1.9649h-2.4561zm1.7193 3.4386c-0.40772 0-0.73684-0.32912-0.73684-0.73684 0-0.40772 0.32912-0.73684 0.73684-0.73684 0.40772 0 0.73684 0.32912 0.73684 0.73684 0 0.40772-0.32912 0.73684-0.73684 0.73684z" fill="#fff"/>
  </g>
 </g>
</svg>
