<?xml version="1.0" encoding="UTF-8" standalone="no"?>
<svg width="23px" height="23px" viewBox="0 0 23 23" version="1.1" xmlns="http://www.w3.org/2000/svg" xmlns:xlink="http://www.w3.org/1999/xlink" xmlns:sketch="http://www.bohemiancoding.com/sketch/ns">
    <!-- Generator: Sketch 3.4.2 (15857) - http://www.bohemiancoding.com/sketch -->
    <title>train-m</title>
    <desc>Created with Sketch.</desc>
    <defs></defs>
    <g id="Transport" stroke="none" stroke-width="1" fill="none" fill-rule="evenodd" sketch:type="MSPage">
        <g id="train-m" sketch:type="MSLayerGroup">
            <circle id="Oval-1-Copy-41" opacity="0" fill="#FFFFFF" sketch:type="MSShapeGroup" cx="11.5" cy="11.5" r="11.5"></circle>
            <circle id="Oval-1-Copy-40" fill="#133655" sketch:type="MSShapeGroup" cx="11.5" cy="11.5" r="10.5"></circle>
            <path d="M8.9881561,3.03459562 C8.43616181,3.03459562 7.623115,3.30963415 7.18949229,3.63587515 L6.79476211,3.93285492 C6.35338181,4.26493243 5.9976093,4.99070765 6.0000121,5.52928925 L6.0378042,14.0003074 C6.05311212,14.5001537 6.55138953,15 7.04966694,15 L16.0186604,15 C16.5169378,15 17.0077471,14.6709939 16.9999073,14.0003074 L16.9621152,5.52928925 C16.9596632,4.97968043 16.5921085,4.25909592 16.1584858,3.93285492 L15.7637556,3.63587515 C15.3223753,3.30379764 14.5068586,3.03459562 13.9650918,3.03459562 L8.9881561,3.03459562 Z M8.37916245,5.76597573 C8.75492901,5.3647599 9.49978057,5.03951021 10.0634277,5.03951021 L13.0164082,5.03951021 C13.5708357,5.03951021 14.3216338,5.37500414 14.6946598,5.79030102 L15.0067977,6.1378099 L15.0067977,8.97125292 C15.0067977,9.52892524 14.5490904,9.98100797 14.0073236,9.98100797 L9.03038793,9.98100797 C8.47839364,9.98100797 8.03091386,9.54014429 8.03091386,8.97125292 L8.03091386,6.1378099 L8.37916245,5.76597573 Z M9.02746869,12.6080149 C9.02746869,13.0221016 8.69283554,13.3577844 8.28005257,13.3577844 C7.86726959,13.3577844 7.53263645,13.0221016 7.53263645,12.6080149 C7.53263645,12.1939283 7.86726959,11.8582455 8.28005257,11.8582455 C8.69283554,11.8582455 9.02746869,12.1939283 9.02746869,12.6080149 Z M14.757659,11.8582455 C15.1704419,11.8582455 15.5050751,12.1939283 15.5050751,12.6080149 C15.5050751,13.0221016 15.1704419,13.3577844 14.757659,13.3577844 C14.344876,13.3577844 14.0102428,13.0221016 14.0102428,12.6080149 C14.0102428,12.1939283 14.344876,11.8582455 14.757659,11.8582455 L14.757659,11.8582455 Z" id="path24869" opacity="0.7" fill="#FFFFFF" sketch:type="MSShapeGroup"></path>
            <path d="M8.95833334,17 L10,15 L8.12500001,15 L5.00000001,21 L6.875,21 L7.91666667,19 L15.0833333,19 L16.125,21 L18,21 L14.875,15 L13,15 L14.0416667,17 L8.95833334,17 Z" id="Rectangle-22-Copy-2" opacity="0.7" fill="#FFFFFF" sketch:type="MSShapeGroup"></path>
        </g>
    </g>
</svg>