<svg height="24" viewBox="0 0 24 24" width="24"><g fill="none" fill-rule="evenodd"><rect fill="#fff" height="24" opacity=".4" rx="2.5" width="24"/><rect fill="#204366" height="22" rx="2" width="22" x="1" y="1"/><path d="m14.9862193 8.0347299c.5416429.00683009 1.3418567.27335676 1.7775363.60114525l.3947302.29697977c.4336227.326241.8011774 1.04682551.8036294 1.59643438l.0377921 8.4710181c.0078398.6706865-.4829695.9996926-.9812469.9996926h-8.96899346c-.49827741 0-.99655482-.4998463-1.01186274-.9996926l-.0377921-8.4710181c-.0024028-.53858165.35336971-1.26435687.79475001-1.59643438l.39473018-.29697977c.43362271-.326241 1.24666952-.60127953 1.79866381-.60127953h.00150839v-2.03521052h.99655481v2.03521052h3.0034452v-2.03521052h.9965548zm-5.60705685 2.7312458c.37576656-.4012158 1.12061815-.7264655 1.68426525-.7264655h2.9529805c.5544275 0 1.3052256.3354939 1.6782516.7507908l.3121379.3475089v2.833443c0 .5576723-.4577073 1.0097551-.9994741 1.0097551h-4.9769357c-.55199426 0-.99947404-.4408637-.99947404-1.0097551v-2.833443zm.64830625 6.8420392c0 .4140867-.33463316.7497695-.74741613.7497695-.41278298 0-.74741612-.3356828-.74741612-.7497695 0-.4140866.33463314-.7497694.74741612-.7497694.41278297 0 .74741613.3356828.74741613.7497694zm5.7301903-.7497694c.4127829 0 .7474161.3356828.7474161.7497694 0 .4140867-.3346332.7497695-.7474161.7497695-.412783 0-.7474162-.3356828-.7474162-.7497695 0-.4140866.3346332-.7497694.7474162-.7497694zm-7.72329997-11.85855295c0-.55211495.45710432-.99969255.99410794-.99969255h6.98077763c.5490306 0 .9941079.44372836.9941079.99969255 0 .55211495-.4571043.99969255-.9941079.99969255h-6.98077763c-.54903065 0-.99410794-.44372835-.99410794-.99969255z" fill="#fff" opacity=".6"/></g></svg>