<?xml version="1.0" encoding="utf-8"?>
<!-- Generator: Adobe Illustrator 21.1.0, SVG Export Plug-In . SVG Version: 6.00 Build 0)  -->
<svg version="1.1" id="Layer_1" xmlns="http://www.w3.org/2000/svg" xmlns:xlink="http://www.w3.org/1999/xlink" x="0px" y="0px"
	 viewBox="0 0 16 16" style="enable-background:new 0 0 16 16;" xml:space="preserve">
<style type="text/css">
	.st0{opacity:0.6;}
	.st1{fill:#FFFFFF;}
</style>
<g class="st0">
	<g>
		<path class="st1" d="M12.2,4.2c0-1-0.8-1.7-1.8-1.7H5.6c-1,0-1.8,0.8-1.8,1.7l-0.3,6.4v0.1c0,1,0.8,1.8,1.8,1.8h1.4V12
			c0-0.4,0.3-0.7,0.7-0.7h1.3c0.4,0,0.7,0.3,0.7,0.7v0.4h1.2h0.1c1,0,1.8-0.9,1.7-1.9L12.2,4.2z M9.2,9.5c0,0.2-0.1,0.4-0.3,0.4H7.3
			C7.2,9.8,7,9.6,7,9.5V9.3C7,9.1,7.2,9,7.3,9h1.6c0.2,0,0.3,0.2,0.3,0.4C9.2,9.4,9.2,9.5,9.2,9.5z M10.2,8.1L10.2,8.1H5.9
			C5.4,8.1,5,7.7,5,7.1l0,0l0-2.4c0-0.5,0.4-0.9,0.9-0.9H10c0.5,0,0.9,0.4,0.9,0.9L11,7.1C11.1,7.6,10.7,8.1,10.2,8.1z"/>
		<path class="st1" d="M8.5,11.8H7.9c-0.3,0-0.6,0.3-0.6,0.6v0.8c0,0.3,0.3,0.6,0.6,0.6h0.6c0.3,0,0.6-0.3,0.6-0.6v-0.8
			C9,12,8.8,11.8,8.5,11.8z"/>
	</g>
</g>
</svg>
