<?xml version="1.0" encoding="UTF-8"?>
<svg width="10px" height="12px" viewBox="0 0 10 12" version="1.1" xmlns="http://www.w3.org/2000/svg" xmlns:xlink="http://www.w3.org/1999/xlink">
    <title>transit_light_rail-s</title>
    <g id="Page-2:-Night" stroke="none" stroke-width="1" fill="none" fill-rule="evenodd" opacity="0.6">
        <g id="transit_light_rail-s" fill="#FFFFFF" fill-rule="nonzero">
            <path d="M8.9,4 C8.8,3.1 8.1,2.4 7.2,2.4 L5.7,2.4 L5.7,1.7 C6,1.7 6.4,1.8 6.8,1.9 C7.1,2 7.5,1.8 7.6,1.4 C7.7,1 7.5,0.7 7.1,0.5 C6.4,0.3 5.7,0.2 5.1,0.2 C5.1,0.2 5.1,0.2 5,0.2 L5,0.2 L5,0.2 L5,0.2 L5,0.2 L5,0.2 L5,0.2 L5,0.2 L5,0.2 C3.8,0.2 2.9,0.5 2.9,0.5 C2.5,0.6 2.3,1 2.3,1.3 C2.4,1.7 2.8,1.9 3.2,1.8 L3.2,1.8 C3.3,1.8 3.7,1.7 4.3,1.7 L4.3,2.4 L2.8,2.4 C1.9,2.4 1.1,3.1 1.1,4 L0.8,9.9 L0.8,10 C0.8,10.9 1.5,11.7 2.5,11.7 L7.4,11.7 L7.5,11.7 C8.4,11.6 9.2,10.8 9.1,9.9 L8.9,4 Z M2.1,6.9 L2.2,4.6 C2.2,4.1 2.6,3.7 3.1,3.7 L6.9,3.7 C7.4,3.7 7.7,4.1 7.8,4.6 L7.9,6.9 C7.9,7.4 7.6,7.8 7.1,7.9 C7.1,7.9 7.1,7.9 7,7.9 L3,7.9 C2.5,7.9 2.1,7.5 2.1,6.9 C2.1,7 2.1,6.9 2.1,6.9 Z M2.7,10.5 C2.3,10.5 2,10.2 2,9.8 C2,9.4 2.3,9.1 2.7,9.1 C3.1,9.1 3.4,9.4 3.4,9.8 C3.4,10.2 3.1,10.5 2.7,10.5 Z M7.3,10.5 C6.9,10.5 6.6,10.2 6.6,9.8 C6.6,9.4 6.9,9.1 7.3,9.1 C7.7,9.1 8,9.4 8,9.8 C8.1,10.2 7.7,10.5 7.3,10.5 Z" id="Shape"></path>
        </g>
    </g>
</svg>