<?xml version="1.0" encoding="utf-8"?>
<!-- Generator: Adobe Illustrator 21.1.0, SVG Export Plug-In . SVG Version: 6.00 Build 0)  -->
<svg version="1.1" id="Layer_1" xmlns="http://www.w3.org/2000/svg" xmlns:xlink="http://www.w3.org/1999/xlink" x="0px" y="0px"
	 viewBox="0 0 20 20" style="enable-background:new 0 0 20 20;" xml:space="preserve">
<style type="text/css">
	.st0{opacity:0.6;}
	.st1{fill:#FFFFFF;}
</style>
<g class="st0">
	<path class="st1" d="M14.8,7.5c-0.1-1.2-1-2-2.1-2h-1.8V4.6c0.4,0,0.9,0.1,1.4,0.2c0.4,0.1,0.8-0.2,1-0.7c0.1-0.5-0.2-0.9-0.7-1.1
		c-0.9-0.2-1.8-0.3-2.6-0.3c0,0,0,0-0.1,0l0,0l0,0l0,0l0,0l0,0l0,0l0,0l0,0C8.4,2.7,7.3,3,7.2,3C6.8,3.2,6.6,3.7,6.7,4.2
		S7.3,5,7.8,4.9l0,0c0.2,0,0.7-0.2,1.3-0.2v0.9H7.2c-1.1-0.1-2,0.8-2,1.9l-0.3,7.4V15c0,1.2,0.9,2.1,2.1,2.1h6.2h0.1
		c1.2-0.1,2.1-1.1,2-2.2L14.8,7.5z M6.4,11.2l0.1-2.9c0-0.7,0.5-1.2,1.1-1.2h4.8c0.6,0,1,0.5,1.1,1.2l0.1,2.9c0,0.7-0.4,1.2-1,1.2
		c0,0,0,0-0.1,0h-5C6.9,12.4,6.4,11.9,6.4,11.2L6.4,11.2z M7.1,15.7c-0.5,0-0.9-0.4-0.9-0.9s0.4-0.9,0.9-0.9S8,14.2,8,14.7
		S7.6,15.7,7.1,15.7z M12.9,15.7c-0.5,0-0.9-0.4-0.9-0.9s0.4-0.9,0.9-0.9s0.9,0.4,0.9,0.9C13.8,15.2,13.4,15.7,12.9,15.7z"/>
</g>
</svg>
