<?xml version="1.0" encoding="utf-8"?>
<!-- Generator: Adobe Illustrator 21.1.0, SVG Export Plug-In . SVG Version: 6.00 Build 0)  -->
<svg version="1.1" id="Layer_1" xmlns="http://www.w3.org/2000/svg" xmlns:xlink="http://www.w3.org/1999/xlink" x="0px" y="0px"
	 viewBox="0 0 16 16" style="enable-background:new 0 0 16 16;" xml:space="preserve">
<style type="text/css">
	.st0{opacity:0.6;}
	.st1{fill:#FFFFFF;}
</style>
<g class="st0">
	<path class="st1" d="M11.9,6c-0.1-0.9-0.8-1.6-1.7-1.6H8.7V3.7c0.3,0,0.7,0.1,1.1,0.2c0.3,0.1,0.7-0.1,0.8-0.5s-0.1-0.7-0.5-0.9
		c-0.7-0.2-1.4-0.3-2-0.3c0,0,0,0-0.1,0l0,0l0,0l0,0l0,0l0,0l0,0l0,0l0,0c-1.2,0-2.1,0.3-2.1,0.3C5.5,2.6,5.3,3,5.3,3.3
		c0.1,0.4,0.5,0.6,0.9,0.5l0,0c0.1,0,0.5-0.1,1.1-0.1v0.7H5.8C4.9,4.4,4.1,5.1,4.1,6l-0.3,5.9V12c0,0.9,0.7,1.7,1.7,1.7h4.9h0.1
		c0.9-0.1,1.7-0.9,1.6-1.8L11.9,6z M5.1,8.9l0.1-2.3c0-0.5,0.4-0.9,0.9-0.9h3.8c0.5,0,0.8,0.4,0.9,0.9l0.1,2.3c0,0.5-0.3,0.9-0.8,1
		c0,0,0,0-0.1,0H6C5.5,9.9,5.1,9.5,5.1,8.9C5.1,9,5.1,8.9,5.1,8.9z M5.7,12.5c-0.4,0-0.7-0.3-0.7-0.7s0.3-0.7,0.7-0.7
		c0.4,0,0.7,0.3,0.7,0.7C6.4,12.2,6.1,12.5,5.7,12.5z M10.3,12.5c-0.4,0-0.7-0.3-0.7-0.7s0.3-0.7,0.7-0.7s0.7,0.3,0.7,0.7
		C11.1,12.2,10.7,12.5,10.3,12.5z"/>
</g>
</svg>
