<svg version="1.1" viewBox="0 0 10 12" xmlns="http://www.w3.org/2000/svg">
 <title>transit_monorail-s</title>
 <g id="Page-2:-Night" fill="none" fill-rule="evenodd" opacity=".6">
  <g id="transit_monorail-s" fill="#fff" fill-rule="nonzero">
   <path id="Shape" d="m9.2 2.2c0-1-0.8-1.7-1.8-1.7h-4.8c-1 0-1.8 0.8-1.8 1.7l-0.3 6.4v0.1c0 1 0.8 1.8 1.8 1.8h1.4v-0.5c0-0.4 0.3-0.7 0.7-0.7h1.3c0.4 0 0.7 0.3 0.7 0.7v0.4h1.2 0.1c1 0 1.8-0.9 1.7-1.9l-0.2-6.3zm-3 5.3c0 0.2-0.1 0.4-0.3 0.4h-1.6c-0.1-0.1-0.3-0.3-0.3-0.4v-0.2c0-0.2 0.2-0.3 0.3-0.3h1.6c0.2 0 0.3 0.2 0.3 0.4v0.1zm1-1.4h-4.3c-0.5 0-0.9-0.4-0.9-1v-2.4c0-0.5 0.4-0.9 0.9-0.9h4.1c0.5 0 0.9 0.4 0.9 0.9l0.1 2.4c0.1 0.5-0.3 1-0.8 1z"/>
   <path id="Path" d="m5.5 9.8h-0.6c-0.3 0-0.6 0.3-0.6 0.6v0.8c0 0.3 0.3 0.6 0.6 0.6h0.6c0.3 0 0.6-0.3 0.6-0.6v-0.8c-0.1-0.4-0.3-0.6-0.6-0.6z"/>
  </g>
 </g>
</svg>
