<?xml version="1.0" encoding="UTF-8"?>
<svg width="12px" height="16px" viewBox="0 0 12 16" version="1.1" xmlns="http://www.w3.org/2000/svg" xmlns:xlink="http://www.w3.org/1999/xlink">
    <title>transit_light_rail-m</title>
    <g id="Page-2:-Night" stroke="none" stroke-width="1" fill="none" fill-rule="evenodd" opacity="0.6">
        <g id="transit_light_rail-m" fill="#FFFFFF" fill-rule="nonzero">
            <path d="M10.8,5.5 C10.7,4.3 9.8,3.5 8.7,3.5 L6.9,3.5 L6.9,2.6 C7.3,2.6 7.8,2.7 8.3,2.8 C8.7,2.9 9.1,2.6 9.3,2.1 C9.4,1.6 9.1,1.2 8.6,1 C7.7,0.8 6.8,0.7 6,0.7 C6,0.7 6,0.7 5.9,0.7 L5.9,0.7 L5.9,0.7 L5.9,0.7 L5.9,0.7 L5.9,0.7 L5.9,0.7 L5.9,0.7 L5.9,0.7 C4.4,0.7 3.3,1 3.2,1 C2.8,1.2 2.6,1.7 2.7,2.2 C2.8,2.7 3.3,3 3.8,2.9 L3.8,2.9 C4,2.9 4.5,2.7 5.1,2.7 L5.1,3.6 L3.2,3.6 C2.1,3.5 1.2,4.4 1.2,5.5 L0.9,12.9 L0.9,13 C0.9,14.2 1.8,15.1 3,15.1 L9.2,15.1 L9.3,15.1 C10.5,15 11.4,14 11.3,12.9 L10.8,5.5 Z M2.4,9.2 L2.5,6.3 C2.5,5.6 3,5.1 3.6,5.1 L8.4,5.1 C9,5.1 9.4,5.6 9.5,6.3 L9.6,9.2 C9.6,9.9 9.2,10.4 8.6,10.4 C8.6,10.4 8.6,10.4 8.5,10.4 L3.5,10.4 C2.9,10.4 2.4,9.9 2.4,9.2 C2.4,9.2 2.4,9.2 2.4,9.2 Z M3.1,13.7 C2.6,13.7 2.2,13.3 2.2,12.8 C2.2,12.3 2.6,11.9 3.1,11.9 C3.6,11.9 4,12.2 4,12.7 C4,13.2 3.6,13.7 3.1,13.7 Z M8.9,13.7 C8.4,13.7 8,13.3 8,12.8 C8,12.3 8.4,11.9 8.9,11.9 C9.4,11.9 9.8,12.3 9.8,12.8 C9.8,13.2 9.4,13.7 8.9,13.7 Z" id="Shape"></path>
        </g>
    </g>
</svg>