<svg version="1.1" viewBox="0 0 12 15" xmlns="http://www.w3.org/2000/svg">
 <title>transit_monorail-m</title>
 <g id="Page-2:-Night" fill="none" fill-rule="evenodd" opacity=".6">
  <g id="transit_monorail-m" fill="#fff" fill-rule="nonzero">
   <path id="Shape" d="m11.2 2.2c0-1.2-1-2.2-2.3-2.2h-5.8c-1.3 0-2.3 1-2.3 2.2l-0.4 8v0.1c0 1.3 1 2.3 2.3 2.3h1.8v-0.6c0-0.5 0.4-0.9 0.9-0.9h1.6c0.5 0 0.9 0.4 0.9 0.9v0.5h1.5 0.1c1.3-0.1 2.2-1.1 2.2-2.4l-0.5-7.9zm-3.7 6.6c0 0.2-0.2 0.4-0.4 0.4h-1.9c-0.2 0-0.4-0.2-0.4-0.4v-0.2c0-0.2 0.2-0.4 0.4-0.4h1.9c0.2 0 0.4 0.2 0.4 0.4v0.2zm1.2-1.7h-5.4c-0.6 0-1.1-0.5-1.1-1.2v-0.1l0.1-3c0-0.6 0.5-1.1 1.1-1.1h5.1c0.6 0 1.1 0.5 1.1 1.1l0.1 3c0.1 0.7-0.3 1.3-1 1.3z"/>
   <path id="Path" d="m6.6 11.7h-0.8c-0.4 0-0.7 0.3-0.7 0.7v1c0 0.4 0.3 0.7 0.7 0.7h0.7c0.4 0 0.7-0.3 0.7-0.7v-1c0.1-0.4-0.2-0.7-0.6-0.7z"/>
  </g>
 </g>
</svg>
