<svg version="1.1" viewBox="0 0 24 24" xmlns="http://www.w3.org/2000/svg">
 <title>travel_agency_shop-m</title>
 <g id="Page-2:-Night" fill="none" fill-rule="evenodd" opacity=".6">
  <g id="travel_agency_shop-m" fill-rule="nonzero">
   <circle id="Oval" cx="12" cy="12" r="12" fill="#fff"/>
   <circle id="Oval" cx="12" cy="12" r="11" fill="#8C5F93"/>
   <path id="Shape" d="m16.248 11.233 2.717 0.33592-0.11845-0.56216c-0.15209-0.72166-0.57009-1.4031-1.1774-1.9187-0.28451-0.24155-0.60156-0.44207-0.94295-0.59855l1.3076-0.51209-0.37204-0.43796c-0.42074-0.49596-1.0305-0.84859-1.7169-0.99329-0.69647-0.14689-1.4307-0.080965-2.1236 0.19039-0.45027 0.17645-0.85433 0.42839-1.1952 0.74271-0.1893-0.52525-0.50225-1.0086-0.92053-1.4165-0.53263-0.51975-1.1834-0.86633-1.8821-1.002-0.68854-0.13377-1.3875-0.046238-1.968 0.24648l-0.51319 0.25881 1.138 1.1104c-0.44179-0.013398-0.87921 0.042957-1.2983 0.16852-0.76294 0.2287-1.4192 0.68499-1.8482 1.2849l-0.33428 0.46777 2.4363 0.72658c-0.49623 0.30311-0.91943 0.69784-1.245 1.1654-0.45492 0.65382-0.68499 1.4195-0.64723 2.1559l0.029258 0.57392 3.8864-1.5595c-0.016953 0.08698-0.025977 0.177-0.025977 0.2689 0 0.45355 0.2161 0.85734 0.55068 1.1142-0.68636 2.3329-0.82614 5.3754-0.833 5.5289l-0.01832 0.42782h2.7055l0.020234-0.38899c0.0019141-0.035574 0.16743-3.0827 0.83902-5.2838 0.042137 0.0041015 0.084793 0.0060156 0.12802 0.0060156 0.37122 0 0.70932-0.14443 0.96075-0.38079l2.7698 2.8959 0.26398-0.51045c0.33838-0.65518 0.44562-1.4474 0.30146-2.2306-0.12529-0.67897-0.42484-1.3202-0.8735-1.8739zm1.5951-0.62945-2.6694-0.3299c-0.39446-0.25003-0.82368-0.43086-1.2734-0.53454-0.080965-0.018594-0.16196-0.03448-0.2432-0.047605-0.2421-0.039676-0.48448-0.055262-0.7233-0.046785-0.016406-0.020781-0.033113-0.041043-0.050887-0.06073 0.02707-0.021328 0.054441-0.042137 0.082332-0.062371 0.41253-0.30092 0.92053-0.5017 1.4676-0.57474h5.469e-4c0.29381-0.039676 0.59855-0.04241 0.90603-0.004375 0.056082 0.0068359 0.11162 0.015039 0.16688 0.024609 1.0442 0.17921 1.9253 0.80921 2.3367 1.6364zm-3.7226-3.103c0.35727-0.13978 0.72822-0.20735 1.0877-0.20735 0.49815 0 0.97469 0.12966 1.3631 0.37559l-1.1629 0.45546c-0.82996-0.097125-1.6468 0.038309-2.3641 0.39227-0.072488 0.035848-0.14361 0.073582-0.21309 0.11353 0-0.049246-0.0010938-0.098492-0.0032813-0.14798 0.30909-0.42128 0.7569-0.77172 1.2925-0.98153zm-1.6812 3.0133c0 0.33559-0.27204 0.60766-0.60766 0.60766-0.33562 0-0.60766-0.27204-0.60766-0.60766s0.27204-0.60766 0.60766-0.60766c0.33559 0 0.60766 0.27204 0.60766 0.60766zm-1.018 1.4148c0 0.1852-0.086707 0.35044-0.22187 0.45738-0.046238 0.036941-0.097945 0.066473-0.15403 0.087801-0.064558 0.024883-0.13459 0.038309-0.20762 0.038309-0.24675 0-0.4582-0.15373-0.54329-0.3704-0.02625-0.065926-0.040496-0.13787-0.040496-0.21309 0-0.2782 0.19586-0.51182 0.45711-0.56954 0.04241 0.056082 0.088621 0.10861 0.13869 0.15758 0.15758 0.15427 0.35098 0.27163 0.56653 0.33865 0.003336 0.024062 0.0049766 0.048398 0.0049766 0.073308zm-0.28886-5.2786c0.46971 0.45793 0.76267 1.0401 0.84995 1.6216-0.039129 0.065926-0.07577 0.13322-0.1097 0.20106-0.06948-0.1015-0.1447-0.20024-0.22515-0.29572-0.44207-0.52522-1.016-0.93256-1.6753-1.1916l-1.1629-1.1347c0.78072-0.12969 1.6682 0.16029 2.3231 0.79934zm-4.7178 1.513c0.74654-0.62398 1.8818-0.83847 2.9599-0.51674 0.05034 0.015039 0.10013 0.031199 0.14935 0.048152 0.71482 0.24784 1.3098 0.7085 1.6911 1.2729-0.18493-0.076863-0.37833-0.13951-0.57802-0.18657-0.040223-0.0095703-0.080418-0.018594-0.12119-0.026797-0.62234-0.12556-1.2701-0.10232-1.9001 0.065652l-2.201-0.65658zm-0.0041016 3.8358c0.19614-0.95279 0.95143-1.8271 1.9956-2.2462 0.06948-0.027891 0.13978-0.053621 0.21008-0.07659 0.28588-0.094363 0.5772-0.15045 0.86527-0.16989h2.7344e-4c0.077137-0.0051953 0.15373-0.0079297 0.23007-0.0079297 0.35016 0 0.69128 0.054441 1.007 0.16004-0.044051 0.057176-0.083973 0.11791-0.11873 0.18164-0.065652 0.119-0.11435 0.24866-0.14279 0.38544-0.010938 0.05198-0.018867 0.10533-0.023789 0.15922l-4.0229 1.6142zm4.6535 6.18h-1.0674c0.019961-0.2908 0.053621-0.71154 0.10587-1.2059h1.0734c-0.055535 0.50064-0.091082 0.92135-0.11189 1.2059zm0.21421-2.0265h-1.0784c0.051434-0.38927 0.11353-0.80068 0.18848-1.2143h1.0844c-0.077164 0.41636-0.14142 0.82726-0.1945 1.2143zm0.36302-2.035-1.0869 2.73e-5v-2.73e-5c0.060457-0.26862 0.1272-0.5329 0.20051-0.78703 0.027344 0.0016406 0.054988 0.0024609 0.082879 0.0024609 0.3879 0 0.73943-0.15813 0.99384-0.41308 0.033113 0.033113 0.067566 0.064558 0.10369 0.09439-0.1105 0.35345-0.20789 0.72576-0.29405 1.1033zm1.7669-2.1543c-0.0090234 0.15649-0.080144 0.29654-0.18903 0.3961-0.062098 0.056902-0.1365 0.10041-0.21886 0.12611-0.055262 0.0175-0.1138 0.026797-0.17481 0.026797-0.3217 0-0.58349-0.26179-0.58349-0.58349 0-0.024883 0.0016406-0.049246 0.0049219-0.073309 0.10478-0.032566 0.20434-0.077137 0.29709-0.13185 0.014219-0.0084765 0.028164-0.016953 0.042137-0.025976 0.11627-0.074129 0.22077-0.16524 0.31049-0.26945 0.019141-0.022148 0.037762-0.045418 0.055535-0.068934 0.26124 0.057723 0.45711 0.29135 0.45711 0.56954 0 0.011484-2.735e-4 0.022969-0.0010938 0.034453zm2.8896 2.4273-2.0944-2.1896c0.0175-0.088074 0.026523-0.17918 0.026523-0.27218 0-0.38927-0.15922-0.74189-0.41582-0.9963-0.16032-0.15922-0.35891-0.27984-0.58021-0.34716 0.0013672-0.023789 0.0019141-0.047605 0.0019141-0.071394 0-0.014766-2.735e-4 -0.029559-8.203e-4 -0.044051 0.56325 0.036941 1.1375 0.24155 1.6414 0.59391 0.18875 0.13185 0.36766 0.28451 0.53236 0.45683 0.77771 0.81301 1.1041 1.9215 0.88905 2.8699z" fill="#fff"/>
  </g>
 </g>
</svg>
