<svg width="16" height="16" viewBox="0 0 16 16">
  <g fill="none" fill-rule="evenodd">
    <circle cx="8" cy="8" r="8" fill="#FFF" opacity=".4"/>
    <circle cx="8" cy="8" r="7" fill="#4E3551"/>
    <path fill="#FFF" fill-rule="nonzero" d="M10.1,4.00116298 C9.344,4.03285361 8.79142857,4.54672937 8.6,5.46380746 C6.77885714,3.68133138 4.6,4.60816044 4.6,6.43890378 C5.29428571,5.90942648 6.96485714,5.62043231 7.70714286,6.2713091 C6.09628571,6.11724388 3.05828571,7.80745147 5.6,9.85174091 C5.6,8.4462127 6.83420263,7.48532928 8.01071429,7.13975427 C7.952648,9.08569257 7.139828,10.3514207 6.06428571,11.3753289 C5.91228571,11.5196432 5.71614286,11.6571318 5.54642857,11.8019336 L5.35,11.9695282 C5.482,11.9768415 5.60285714,12 5.74285714,12 C6.74628571,12 7.59057143,11.6979639 8.42142857,11.4210366 C8.486,11.263071 8.54742857,11.0987672 8.6,10.9334884 C8.93056629,9.89380364 9.148744,8.6032895 9.17142857,7.17022603 C10.3228446,7.63841365 10.6,8.99982802 10.6,9.85174091 C13.9691429,7.33257956 10.298,6.06215094 9.49285714,6.2713091 C9.91971429,5.9938942 10.9434286,5.65833918 12.0285714,6.43890378 C12.1777143,6.54665193 12.4554286,6.78311279 12.6,6.92645195 C12.6,5.20491939 10.7697143,4.57671358 9.6,5.25050514 C9.78057143,4.83511411 10.2651429,4.30051755 10.8857143,4.30588058 C10.6462857,4.10257299 10.4434286,3.98702408 10.1,4.00116298 Z" opacity=".6"/>
  </g>
</svg>
