<?xml version="1.0" encoding="UTF-8"?>
<svg width="16px" height="16px" viewBox="0 0 16 16" version="1.1" xmlns="http://www.w3.org/2000/svg" xmlns:xlink="http://www.w3.org/1999/xlink">
    <!-- Generator: Sketch 47 (45396) - http://www.bohemiancoding.com/sketch -->
    <title>vending-s</title>
    <desc>Created with Sketch.</desc>
    <defs></defs>
    <g id="Icons" stroke="none" stroke-width="1" fill="none" fill-rule="evenodd">
        <g id="Icons-Dark" transform="translate(-1696.000000, -1341.000000)">
            <g id="vending-s" transform="translate(1696.000000, 1341.000000)">
                <circle id="border" fill="#FFFFFF" opacity="0.4" cx="8" cy="8" r="8"></circle>
                <circle id="fill" fill="#3D3D36" cx="8" cy="8" r="7"></circle>
                <path d="M10.538,4 L5.462,4 C5.20657143,4 5,4.20980109 5,4.47027447 L5,11.5297255 C5,11.7901989 5.20657143,12 5.462,12 L10.538,12 C10.7934286,12 11,11.7901989 11,11.5297255 L11,4.47027447 C11,4.20980109 10.7934286,4 10.538,4 L10.538,4 Z M9.28571429,11.1119013 L5.85714286,11.1119013 L5.85714286,10.2229137 L9.28571429,10.2229137 L9.28571429,11.1119013 L9.28571429,11.1119013 Z M9.28571429,9.33392599 L5.85714286,9.33392599 L5.85714286,4.88898767 L9.28571429,4.88898767 L9.28571429,9.33392599 L9.28571429,9.33392599 Z" id="icon" fill="#FFFFFF" opacity="0.6"></path>
            </g>
        </g>
    </g>
</svg>