<?xml version="1.0" encoding="UTF-8" standalone="no"?>
<svg width="27px" height="27px" viewBox="0 0 27 27" version="1.1" xmlns="http://www.w3.org/2000/svg" xmlns:xlink="http://www.w3.org/1999/xlink">
    <!-- Generator: Sketch 3.8.3 (29802) - http://www.bohemiancoding.com/sketch -->
    <title>vending-l</title>
    <desc>Created with Sketch.</desc>
    <defs></defs>
    <g id="POI-NIght" stroke="none" stroke-width="1" fill="none" fill-rule="evenodd">
        <g id="vending-l" fill="#252522">
            <path d="M19,5 L8,5 C7.448,5 7,5.447 7,6 L7,21 C7,21.553 7.448,22 8,22 L19,22 C19.552,22 20,21.553 20,21 L20,6 C20,5.447 19.552,5 19,5 L19,5 Z M16,20 L9,20 L9,18 L16,18 L16,20 L16,20 Z M16,17 L9,17 L9,7 L16,7 L16,17 L16,17 Z M19,9 L17,9 L17,7 L19,7 L19,9 L19,9 Z" id="Shape"></path>
        </g>
    </g>
</svg>