<?xml version="1.0" encoding="UTF-8"?>
<svg width="24px" height="24px" viewBox="0 0 24 24" version="1.1" xmlns="http://www.w3.org/2000/svg" xmlns:xlink="http://www.w3.org/1999/xlink">
    <title>vending-m</title>
    <g id="Page-2:-Night" stroke="none" stroke-width="1" fill="none" fill-rule="evenodd" opacity="0.6">
        <g id="vending-m" fill="#FFFFFF" fill-rule="nonzero">
            <circle id="Oval" opacity="0.2" cx="12" cy="12" r="12"></circle>
            <g id="vending-machine" transform="translate(5.000000, 5.000000)">
                <path d="M8.69684375,10.2244023 C8.46217969,9.9789375 8.15087109,9.84375 7.8203125,9.84375 L3.71875,9.84375 C3.03693359,9.84375 2.4609375,10.4197461 2.4609375,11.1015625 L2.4609375,11.9492188 C2.4609375,12.1757344 2.64457812,12.359375 2.87109375,12.359375 L8.640625,12.359375 C8.86714063,12.359375 9.05078125,12.1757344 9.05078125,11.9492188 L9.05078125,11.1015625 C9.05078125,10.774668 8.92508203,10.463168 8.69684375,10.2244023 Z M8.23046875,11.5390625 L3.28125,11.5390625 L3.28125,11.1015625 C3.28125,10.8766875 3.493875,10.6640625 3.71875,10.6640625 L7.8203125,10.6640625 C8.03881641,10.6640625 8.23046875,10.8685117 8.23046875,11.1015625 L8.23046875,11.5390625 Z" id="Shape"></path>
                <path d="M12.7695312,0 L1.23046875,0 C0.551988281,0 0,0.551988281 0,1.23046875 L0,12.7695312 C0,13.4480117 0.551988281,14 1.23046875,14 L12.7695312,14 C13.4480117,14 14,13.4480117 14,12.7695312 L14,1.23046875 C14,0.551988281 13.4480117,0 12.7695312,0 Z M9.8984375,8.203125 L9.05078125,8.203125 L9.05078125,7.79296875 C9.05078125,7.11448828 8.49879297,6.5625 7.8203125,6.5625 C7.14183203,6.5625 6.58984375,7.11448828 6.58984375,7.79296875 L6.58984375,8.203125 L5.76953125,8.203125 L5.76953125,7.79296875 C5.76953125,7.11448828 5.21754297,6.5625 4.5390625,6.5625 C3.86058203,6.5625 3.30859375,7.11448828 3.30859375,7.79296875 L3.30859375,8.203125 L2.4609375,8.203125 L2.4609375,5.7421875 C2.68846484,5.7421875 9.57826953,5.7421875 9.8984375,5.7421875 L9.8984375,8.203125 Z M8.23046875,7.79296875 L8.23046875,8.203125 L7.41015625,8.203125 L7.41015625,7.79296875 C7.41015625,7.56680859 7.59415234,7.3828125 7.8203125,7.3828125 C8.04647266,7.3828125 8.23046875,7.56680859 8.23046875,7.79296875 Z M4.94921875,7.79296875 L4.94921875,8.203125 L4.12890625,8.203125 L4.12890625,7.79296875 C4.12890625,7.56680859 4.31290234,7.3828125 4.5390625,7.3828125 C4.76522266,7.3828125 4.94921875,7.56680859 4.94921875,7.79296875 Z M4.12890625,4.921875 L4.12890625,4.51171875 C4.12890625,4.28555859 4.31290234,4.1015625 4.5390625,4.1015625 C4.76522266,4.1015625 4.94921875,4.28555859 4.94921875,4.51171875 L4.94921875,4.921875 L4.12890625,4.921875 Z M7.41015625,4.921875 L7.41015625,4.51171875 C7.41015625,4.28555859 7.59415234,4.1015625 7.8203125,4.1015625 C8.04647266,4.1015625 8.23046875,4.28555859 8.23046875,4.51171875 L8.23046875,4.921875 L7.41015625,4.921875 Z M9.8984375,4.921875 L9.05078125,4.921875 L9.05078125,4.51171875 C9.05078125,3.83323828 8.49879297,3.28125 7.8203125,3.28125 C7.14183203,3.28125 6.58984375,3.83323828 6.58984375,4.51171875 L6.58984375,4.921875 L5.76953125,4.921875 L5.76953125,4.51171875 C5.76953125,3.83323828 5.21754297,3.28125 4.5390625,3.28125 C3.86058203,3.28125 3.30859375,3.83323828 3.30859375,4.51171875 L3.30859375,4.921875 L2.4609375,4.921875 L2.4609375,2.4609375 L9.8984375,2.4609375 L9.8984375,4.921875 Z M9.8984375,1.640625 L2.05078125,1.640625 C1.82426562,1.640625 1.640625,1.82426562 1.640625,2.05078125 L1.640625,8.61328125 C1.640625,8.83979688 1.82426562,9.0234375 2.05078125,9.0234375 C2.23819531,9.0234375 9.71427734,9.0234375 9.8984375,9.0234375 L9.8984375,13.1796875 L1.23046875,13.1796875 C1.00430859,13.1796875 0.8203125,12.9956914 0.8203125,12.7695312 L0.8203125,1.23046875 C0.8203125,1.00430859 1.00430859,0.8203125 1.23046875,0.8203125 L9.8984375,0.8203125 L9.8984375,1.640625 Z M13.1796875,12.7695312 C13.1796875,12.9956914 12.9956914,13.1796875 12.7695312,13.1796875 L10.71875,13.1796875 C10.71875,12.3113867 10.71875,1.23454297 10.71875,0.8203125 L12.7695312,0.8203125 C12.9956914,0.8203125 13.1796875,1.00430859 13.1796875,1.23046875 L13.1796875,12.7695312 Z" id="Shape"></path>
                <circle id="Oval" cx="11.9492188" cy="4.51171875" r="1"></circle>
                <circle id="Oval" cx="11.9492188" cy="6.15234375" r="1"></circle>
                <circle id="Oval" cx="11.9492188" cy="7.79296875" r="1"></circle>
                <circle id="Oval" cx="11.9492188" cy="2.87109375" r="1"></circle>
            </g>
        </g>
    </g>
</svg>