<?xml version="1.0" encoding="UTF-8"?>
<svg width="28px" height="28px" viewBox="0 0 28 28" version="1.1" xmlns="http://www.w3.org/2000/svg" xmlns:xlink="http://www.w3.org/1999/xlink">
    <!-- Generator: Sketch 47 (45396) - http://www.bohemiancoding.com/sketch -->
    <title>vending-l</title>
    <desc>Created with Sketch.</desc>
    <defs></defs>
    <g id="Icons" stroke="none" stroke-width="1" fill="none" fill-rule="evenodd">
        <g id="Icons-Dark" transform="translate(-1690.000000, -1401.000000)">
            <g id="vending-l" transform="translate(1690.000000, 1401.000000)">
                <circle id="border" fill="#FFFFFF" opacity="0.4" cx="14" cy="14" r="14"></circle>
                <circle id="fill" fill="#3D3D36" cx="14" cy="14" r="13"></circle>
                <path d="M19.0769231,6 L8.92307692,6 C8.41353846,6 8,6.42070588 8,6.94117647 L8,21.0588235 C8,21.5792941 8.41353846,22 8.92307692,22 L19.0769231,22 C19.5864615,22 20,21.5792941 20,21.0588235 L20,6.94117647 C20,6.42070588 19.5864615,6 19.0769231,6 L19.0769231,6 Z M16.3076923,20.1176471 L9.84615385,20.1176471 L9.84615385,18.2352941 L16.3076923,18.2352941 L16.3076923,20.1176471 L16.3076923,20.1176471 Z M16.3076923,17.2941176 L9.84615385,17.2941176 L9.84615385,7.88235294 L16.3076923,7.88235294 L16.3076923,17.2941176 L16.3076923,17.2941176 Z M19.0769231,9.76470588 L17.2307692,9.76470588 L17.2307692,7.88235294 L19.0769231,7.88235294 L19.0769231,9.76470588 L19.0769231,9.76470588 Z" id="icon" fill="#FFFFFF" opacity="0.6"></path>
            </g>
        </g>
    </g>
</svg>