<svg width="16" height="16" viewBox="0 0 16 16">
  <g fill="#FFF" fill-rule="evenodd">
    <circle cx="8" cy="8" r="8" opacity=".1"/>
    <path d="M10.538,4 L5.462,4 C5.20657143,4 5,4.20980109 5,4.47027447 L5,11.5297255 C5,11.7901989 5.20657143,12 5.462,12 L10.538,12 C10.7934286,12 11,11.7901989 11,11.5297255 L11,4.47027447 C11,4.20980109 10.7934286,4 10.538,4 L10.538,4 Z M9.28571429,11.1119013 L5.85714286,11.1119013 L5.85714286,10.2229137 L9.28571429,10.2229137 L9.28571429,11.1119013 L9.28571429,11.1119013 Z M9.28571429,9.33392599 L5.85714286,9.33392599 L5.85714286,4.88898767 L9.28571429,4.88898767 L9.28571429,9.33392599 L9.28571429,9.33392599 Z" opacity=".6"/>
  </g>
</svg>
