<svg width="28" height="28" viewBox="0 0 28 28">
  <g fill="none" fill-rule="evenodd">
    <circle cx="14" cy="14" r="14" fill="#FFF" opacity=".4"/>
    <circle cx="14" cy="14" r="13" fill="#8F3F33"/>
    <path fill="#FFF" d="M19.4476299,13.8444151 C18.9483248,14.1524878 18.5727455,14.541732 18.3194251,15.0126226 C18.1952102,15.2713276 18.1194096,15.5134186 18.0920236,15.7393702 C18.0548569,16.0203856 18.0871332,16.2923819 18.1878746,16.5563086 C18.3355633,16.8862168 18.5629648,17.1240355 18.8710571,17.2692902 C19.0661823,17.3675506 19.2901606,17.4344816 19.5434809,17.4705579 C19.8999878,17.5018873 20.2858368,17.44445 20.6990718,17.3001449 C20.9768439,17.179574 21.238967,17.0262498 21.4854408,16.8406467 C21.8140727,16.5795682 22.0615246,16.2895338 22.2273076,15.9705433 L22.3407639,15.7322499 C22.4028713,15.6036094 22.4468846,15.4436395 22.4718254,15.2537642 C22.5270864,14.939046 22.5011675,14.6475874 22.3930906,14.3798633 C22.2571387,14.0651451 22.0434303,13.8268516 21.7509871,13.6664071 C21.5671097,13.5591275 21.3543793,13.4936206 21.1127958,13.4689368 C20.7377056,13.4243161 20.3557689,13.4713103 19.9669857,13.6094445 C19.7894658,13.6768502 19.6158582,13.7551737 19.4476299,13.8444151 L19.4476299,13.8444151 L19.4476299,13.8444151 Z M19.833968,8.43059675 C19.5923844,8.34562758 19.3532462,8.31524753 19.1160639,8.340406 C18.8030812,8.35559602 18.4886314,8.44198927 18.1712474,8.59816167 C17.8445716,8.75433407 17.5291438,8.97886156 17.2259418,9.27126947 C16.9745776,9.52807576 16.761358,9.82238241 16.5838383,10.1551388 C16.498257,10.3312481 16.4400618,10.4708064 16.4077855,10.5733391 C16.3349192,10.7831512 16.2850376,11.0005584 16.2596076,11.2265099 C16.2253752,11.5412282 16.264498,11.8511995 16.3764872,12.1568987 C16.5124391,12.5162377 16.7530444,12.7868099 17.0978145,12.9676661 C17.2929396,13.0659265 17.5076263,13.1281107 17.739429,13.1551679 C18.0250258,13.1770035 18.3389865,13.135231 18.6813114,13.0274768 C18.994294,12.9159251 19.3014083,12.7431386 19.6026543,12.5086426 C20.0193124,12.1849054 20.3410978,11.7980345 20.5684993,11.3470808 C20.7064073,11.0945466 20.7963898,10.8391645 20.8379578,10.5799847 C20.909357,10.2453296 20.9171816,9.92966193 20.8619206,9.63250715 C20.7680258,9.15307211 20.5205738,8.79563194 20.1205428,8.56113599 L20.1068498,8.54119908 L19.8618431,8.43059675 L19.833968,8.43059675 L19.833968,8.43059675 L19.833968,8.43059675 Z M9.33339826,13.9920431 C9.00916773,14.0831833 8.695696,14.203754 8.39200497,14.3537555 C7.96018664,14.5792323 7.60710303,14.8336652 7.33324316,15.117054 C7.14936583,15.2979103 6.98015954,15.5200643 6.82611337,15.7825668 C6.7038545,15.9994993 6.61827329,16.214533 6.56741361,16.4295667 C6.42461524,17.0276738 6.50872935,17.6034706 6.81926688,18.156957 C7.00803457,18.4612321 7.26428916,18.7075952 7.58851968,18.8969958 L7.7611492,18.9876612 L8.36510802,19.2183596 C8.57686037,19.2715248 8.93190013,19.3422532 9.43120536,19.4291212 L10.4312829,19.6194712 L10.9247197,19.7770676 C11.191244,19.8976384 11.384413,19.9935255 11.5042267,20.0647287 C11.7409199,20.2057111 11.9976635,20.3827697 12.2734795,20.596854 C12.4759402,20.7577734 12.7727848,21.000339 13.1630351,21.3236016 C13.4026625,21.5044578 13.5933863,21.6264527 13.7361847,21.6886368 L13.7875334,21.7123712 L13.8080729,21.7323081 L14.0633494,21.8495561 L14.0878011,21.8495561 L14.1807179,21.8899046 L14.4800076,21.9596838 C14.7631592,22.01095 15.0556024,22.0133235 15.3568482,21.9668041 C15.7730174,21.8908539 16.1349036,21.7394284 16.443485,21.5115782 C16.7721169,21.2571452 17.022014,20.9243889 17.1917094,20.5133089 C17.2909835,20.2859334 17.3599375,20.0186839 17.3990603,19.7129848 C17.435738,19.3536458 17.4205779,19.0019019 17.3535801,18.6582276 C17.2807138,18.2476224 17.159433,17.8522072 16.9916938,17.4724567 C16.8469393,17.1710297 16.732016,16.8468177 16.6469238,16.4983966 C16.5637878,16.1457033 16.5007022,15.8072506 16.457178,15.4835132 L16.3290507,14.5730615 C16.2669432,14.2493241 16.1906537,13.967834 16.0977369,13.7290659 C15.9275526,13.3293785 15.6796116,13.0004195 15.3529359,12.7412399 C15.1416726,12.5826941 14.8986219,12.4407623 14.6252512,12.3159193 C14.3998058,12.2262032 14.1611564,12.1716141 13.9078361,12.1516771 C13.6153929,12.1407593 13.2887171,12.1929751 12.927809,12.3092736 C12.6842694,12.4032619 12.4465981,12.5057945 12.2143063,12.6168715 C12.0001087,12.7222523 11.6910383,12.8883931 11.2866059,13.1157688 C10.8684806,13.3478913 10.5139299,13.5287475 10.2239319,13.6583374 C9.92953245,13.8073895 9.633177,13.9179918 9.33339826,13.9920431 L9.33339826,13.9920431 L9.33339826,13.9920431 Z M11.9692994,7.69388074 C11.8979003,7.89657258 11.8367709,8.10543537 11.7859112,8.31999441 C11.7194024,8.74626437 11.7203805,9.13076177 11.7893344,9.47491068 C11.8445954,9.80766708 11.9678323,10.1133662 12.1585562,10.3924829 C12.3267845,10.6246054 12.5155521,10.7921703 12.7277935,10.8951776 C12.9757345,11.0333119 13.2476382,11.0959707 13.5415486,11.0826794 C13.7806868,11.0693882 14.0256937,11.0010331 14.2765688,10.8785635 C14.6350319,10.6801439 14.9318763,10.4076729 15.1661243,10.0611505 C15.271756,9.92491505 15.3720083,9.75972357 15.4663921,9.56557612 L15.6179931,9.12364145 C15.698684,8.87822768 15.7500328,8.61572513 15.7700832,8.33708319 C15.781331,7.89704727 15.711888,7.48549264 15.5593089,7.10146993 C15.4580785,6.85320802 15.3123459,6.63580085 15.1211331,6.44829903 C14.8907974,6.21854997 14.6257402,6.07899165 14.3240052,6.03009877 C14.0344963,5.96981337 13.7356956,6.00019342 13.4276033,6.12028952 C13.1679255,6.22282216 12.9292761,6.37804519 12.7136114,6.58548391 C12.4490433,6.83564456 12.2319115,7.14039435 12.0612382,7.49973329 L11.9692994,7.69388074 L11.9692994,7.69388074 L11.9692994,7.69388074 Z M9.3959948,8.09166942 C9.09034763,8.016194 8.78665659,8.03945371 8.48541074,8.16239794 C8.23453554,8.26967746 8.01006826,8.43819176 7.81249793,8.66794082 C7.72740576,8.77094816 7.64475876,8.88772144 7.56406791,9.01968474 L7.52934639,9.05671042 L7.38459188,9.3581374 L7.31563788,9.58551303 C7.22125403,9.89358563 7.1821312,10.2007089 7.19826937,10.506408 C7.21000622,10.8543544 7.27309179,11.1638511 7.38850417,11.4339487 C7.51956568,11.7619582 7.70001977,12.0311064 7.92986644,12.2409185 C8.12059027,12.4065847 8.33429877,12.5257314 8.57148099,12.5993081 C8.89815668,12.6866507 9.22336528,12.6629163 9.54759579,12.5290543 C9.80042714,12.4265216 10.0283177,12.2537351 10.2307784,12.0102201 C10.3525482,11.8716112 10.4689386,11.6879069 10.5784826,11.4581578 L10.7026976,11.1367939 C10.7809433,10.8909055 10.8210442,10.660207 10.8234894,10.4437492 C10.8464741,9.98140295 10.7706735,9.54896203 10.5960879,9.14452773 C10.4669825,8.86778453 10.2933749,8.6366114 10.075265,8.45195771 C9.86840307,8.26255714 9.64246868,8.14388511 9.3959948,8.09166942 L9.3959948,8.09166942 L9.3959948,8.09166942 Z" opacity=".6"/>
  </g>
</svg>
