<svg version="1.1" viewBox="0 0 24 24" xmlns="http://www.w3.org/2000/svg">
 <title>veterinary-m</title>
 <g id="Page-2:-Night" fill="none" fill-rule="evenodd" opacity=".6">
  <g id="veterinary-m" fill-rule="nonzero">
   <circle id="Oval" cx="12" cy="12" r="12" fill="#fff"/>
   <circle id="Oval" cx="12" cy="12" r="11" fill="#C15746"/>
   <path id="Shape" d="m16.52 11.874c-0.40569 0.25031-0.71084 0.56657-0.91667 0.94917-0.10092 0.2102-0.16251 0.4069-0.18476 0.59048-0.030198 0.22832-0.0039734 0.44932 0.077879 0.66376 0.12 0.26805 0.30476 0.46128 0.55509 0.5793 0.15854 0.079837 0.34052 0.13422 0.54634 0.16353 0.28966 0.025455 0.60316-0.021213 0.93892-0.13846 0.22569-0.097964 0.43866-0.22254 0.63892-0.37334 0.26701-0.21213 0.46807-0.44778 0.60277-0.70696l0.092183-0.19361c0.050462-0.10452 0.086223-0.2345 0.10649-0.38877 0.0449-0.25571 0.02384-0.49252-0.063972-0.71004-0.11046-0.25571-0.2841-0.44932-0.52171-0.57968-0.1494-0.087165-0.32224-0.14039-0.51853-0.16044-0.30476-0.036254-0.61508 0.0019285-0.93097 0.11416-0.14423 0.054767-0.28529 0.1184-0.42198 0.19091zm0.3139-4.3987c-0.19629-0.069037-0.39059-0.093721-0.5833-0.07328-0.2543 0.012342-0.50979 0.082536-0.76766 0.20943-0.26542 0.12689-0.52171 0.30932-0.76806 0.5469-0.20423 0.20866-0.37747 0.44778-0.52171 0.71814-0.069535 0.14309-0.11682 0.25648-0.14304 0.33979-0.059204 0.17047-0.099733 0.34712-0.12039 0.5307-0.027814 0.25571 0.0039735 0.50756 0.094965 0.75594 0.11046 0.29196 0.30595 0.5118 0.58608 0.65875 0.15854 0.079837 0.33297 0.13036 0.52131 0.15235 0.23205 0.017742 0.48714-0.016199 0.76528-0.10375 0.2543-0.090636 0.50383-0.23102 0.74859-0.42155 0.33853-0.26304 0.59999-0.57737 0.78475-0.94377 0.11205-0.20518 0.18516-0.41268 0.21894-0.62327 0.058012-0.27191 0.064369-0.52839 0.01947-0.76983-0.07629-0.38954-0.27734-0.67996-0.60237-0.87049l-0.011126-0.016199-0.19907-0.089864h-0.022648zm-8.5317 4.5187c-0.26344 0.074051-0.51813 0.17202-0.76488 0.29389-0.35085 0.1832-0.63773 0.38993-0.86024 0.62018-0.1494 0.14695-0.28688 0.32745-0.41204 0.54073-0.099335 0.17626-0.16887 0.35097-0.21019 0.52569-0.11602 0.48596-0.047681 0.9538 0.20463 1.4035 0.15337 0.24722 0.36158 0.44739 0.62502 0.60128l0.14026 0.073666 0.49072 0.18744c0.17205 0.043197 0.46052 0.10066 0.8662 0.17124l0.81256 0.15466 0.40092 0.12805c0.21655 0.097964 0.3735 0.17587 0.47085 0.23372 0.19231 0.11455 0.40092 0.25841 0.62502 0.43235 0.1645 0.13075 0.40569 0.32783 0.72276 0.59048 0.1947 0.14695 0.34966 0.24607 0.46568 0.29659l0.041721 0.019284 0.016688 0.016199 0.20741 0.095264h0.019867l0.075495 0.032783 0.24317 0.056696c0.23006 0.041654 0.46767 0.043582 0.71243 0.0057852 0.33814-0.06171 0.63217-0.18474 0.88289-0.36987 0.26701-0.20673 0.47005-0.47709 0.60793-0.81109 0.08066-0.18474 0.13669-0.40188 0.16847-0.65026 0.029801-0.29196 0.017483-0.57775-0.036953-0.85699-0.059204-0.33362-0.15774-0.65489-0.29403-0.96344-0.11761-0.24491-0.21099-0.50833-0.28013-0.79142-0.067548-0.28656-0.11881-0.56156-0.15417-0.82459l-0.1041-0.73974c-0.050462-0.26304-0.11245-0.49175-0.18794-0.68575-0.13827-0.32475-0.33973-0.59203-0.60515-0.80261-0.17165-0.12882-0.36913-0.24414-0.59124-0.34557-0.18317-0.072894-0.37708-0.11725-0.5829-0.13345-0.23761-0.0088708-0.50303 0.033555-0.79627 0.12805-0.19788 0.076366-0.39098 0.15967-0.57972 0.24992-0.17404 0.085622-0.42516 0.22061-0.75376 0.40535-0.33973 0.1886-0.6278 0.33555-0.86342 0.44084-0.2392 0.1211-0.47999 0.21097-0.72356 0.27114zm2.1417-5.1173c-0.058012 0.16469-0.10768 0.33439-0.149 0.50872-0.054038 0.34634-0.053244 0.65875 0.0027814 0.93837 0.0449 0.27036 0.14503 0.51875 0.29999 0.74553 0.13669 0.1886 0.29006 0.32475 0.46251 0.40844 0.20145 0.11223 0.42237 0.16314 0.66118 0.15235 0.1943-0.010799 0.39337-0.066338 0.5972-0.16584 0.29125-0.16122 0.53244-0.3826 0.72276-0.66415 0.085826-0.11069 0.16728-0.24491 0.24397-0.40265l0.12318-0.35907c0.065561-0.1994 0.10728-0.41268 0.12357-0.63908 0.0091388-0.35753-0.047284-0.69192-0.17125-1.0039-0.08225-0.20171-0.20066-0.37836-0.35602-0.5307-0.18715-0.18667-0.40251-0.30006-0.64767-0.33979-0.23523-0.048982-0.478-0.024298-0.72833 0.07328-0.21099 0.083308-0.40489 0.20943-0.58012 0.37797-0.21496 0.20326-0.39138 0.45086-0.53005 0.74283l-0.0747 0.15774zm-2.0908 0.3232c-0.24834-0.061324-0.49509-0.042425-0.73985 0.057467-0.20384 0.087165-0.38622 0.22408-0.54674 0.41075-0.069137 0.083693-0.13629 0.17857-0.20185 0.28579l-0.028211 0.030083-0.11761 0.24491-0.056025 0.18474c-0.076687 0.25031-0.10847 0.49985-0.095362 0.74823 0.0095362 0.28271 0.060793 0.53417 0.15457 0.75363 0.10649 0.26651 0.25311 0.48519 0.43986 0.65566 0.15496 0.1346 0.3286 0.23141 0.52131 0.29119 0.26542 0.070966 0.52966 0.051682 0.79309-0.057081 0.20543-0.083308 0.39059-0.2237 0.55509-0.42155 0.098938-0.11262 0.19351-0.26188 0.28251-0.44855l0.10092-0.26111c0.063575-0.19978 0.096157-0.38723 0.098143-0.5631 0.018675-0.37566-0.042913-0.72701-0.18476-1.0556-0.1049-0.22485-0.24595-0.41268-0.42317-0.56271-0.16808-0.15389-0.35165-0.25031-0.55191-0.29273z" fill="#fff"/>
  </g>
 </g>
</svg>
