<svg version="1.1" viewBox="0 0 16 16" xmlns="http://www.w3.org/2000/svg">
    <title>viewpoint-s</title>

    <g id="viewpoint-m" fill-rule="nonzero" transform="scale(0.666666)" opacity="0.6">
        <path id="Shape"
            d="m9.209 4.6713c-0.98033 0-1.7768 0.69142-1.9437 1.5964-0.43485 0.09882-0.84334 0.36824-1.0965 0.79816l-2.6166 5.3451h0.02492c-0.2168 0.4761-0.34887 0.9964-0.34887 1.548 0 2.1282 1.7945 3.8699 3.987 3.8699 1.7184 0 3.1809-1.0767 3.738-2.5639 0.3173 0.1519 0.6717 0.2418 1.0467 0.2418 0.3749 0 0.7294-0.0899 1.0466-0.2418 0.5571 1.4872 2.0195 2.5639 3.738 2.5639 2.1925 0 3.9871-1.742 3.9871-3.8699 0-0.5516-0.1321-1.0719-0.3488-1.548h0.0249l-2.6166-5.3451c-0.2531-0.42992-0.6616-0.69934-1.0965-0.79816-0.1669-0.90491-0.9634-1.5964-1.9437-1.5964-0.9634 0-1.7578 0.66624-1.9437 1.548h-1.6945c-0.1859-0.88172-0.9804-1.548-1.9437-1.548zm-1.9935 6.9657c1.3307 0 2.3923 1.0304 2.3923 2.3219 0 1.2914-1.0616 2.3218-2.3923 2.3218-1.3307 0-2.3923-1.0304-2.3923-2.3218 0-1.2915 1.0616-2.3219 2.3923-2.3219zm9.5691 0c1.3307 0 2.3922 1.0304 2.3922 2.3219 0 1.2914-1.0615 2.3218-2.3922 2.3218-1.3306 0-2.3923-1.0304-2.3923-2.3218 0-1.2915 1.0616-2.3219 2.3923-2.3219zm-4.7846 0.7739c0.4422 0 0.7974 0.3448 0.7974 0.7741 0 0.4291-0.3552 0.7739-0.7974 0.7739s-0.7974-0.3448-0.7974-0.7739c0-0.4293 0.3552-0.7741 0.7974-0.7741z"
            fill="#fff" />
    </g>

</svg>