<?xml version="1.0" encoding="UTF-8" standalone="no"?>
<svg width="23px" height="23px" viewBox="0 0 23 23" version="1.1" xmlns="http://www.w3.org/2000/svg" xmlns:xlink="http://www.w3.org/1999/xlink">
    <!-- Generator: Sketch 3.8.3 (29802) - http://www.bohemiancoding.com/sketch -->
    <title>viewpoint-m</title>
    <desc>Created with Sketch.</desc>
    <defs></defs>
    <g id="POI-NIght" stroke="none" stroke-width="1" fill="none" fill-rule="evenodd">
        <g id="viewpoint-m">
            <path d="M11.5,23 C5.2,23 0,17.8 0,11.5 C0,5.2 5.2,0 11.5,0 C17.8,0 23,5.2 23,11.5 C23,17.8 17.8,23 11.5,23 L11.5,23 Z" id="Shape" fill-opacity="0.1" fill="#FFFFFF"></path>
            <path d="M11.5,22 C17.2989899,22 22,17.2989899 22,11.5 C22,5.70101013 17.2989899,1 11.5,1 C5.70101013,1 1,5.70101013 1,11.5 C1,17.2989899 5.70101013,22 11.5,22 Z" id="Oval" fill="#26160D"></path>
            <g id="Group" transform="translate(4.000000, 5.000000)" fill-opacity="0.7" fill="#FFFFFF">
                <g transform="translate(0.444079, 0.000000)" id="Combined-Shape">
                    <path d="M4.55592105,9 L4.55592105,7.99996053 C5.10906574,7.99493895 5.55592105,7.54599753 5.55592105,7.00922203 L5.55592105,2 L2.49871184,2 L2.39954114,2.63113066 L0.555921053,9 L0.555921053,11.0010434 C0.555921053,11.5527519 0.999274229,12 1.56528995,12 L3.54655216,12 C4.1040112,12 4.55592105,11.5443356 4.55592105,11.0046024 L4.55592105,10 L0.555921053,10 L0.555921053,9 L4.55592105,9 Z M9.55592105,9 L9.55592105,8 L9.55200878,8 C9.00188472,8 8.55592105,7.54902482 8.55592105,7.00922203 L8.55592105,2 L11.5604987,2 L11.597179,2.23343663 L13.5559211,9 L13.5559211,11.0010434 C13.5559211,11.5527519 13.1125679,12 12.5465522,12 L10.5652899,12 C10.0078309,12 9.55592105,11.5443356 9.55592105,11.0046024 L9.55592105,10 L13.5559211,10 L13.5559211,9 L9.55592105,9 Z M6.55592105,3 L7.55592105,3 L7.55592105,6 L6.55592105,6 L6.55592105,3 Z M2.55592105,0 L5.55592105,0 L5.55592105,1 L2.55592105,1 L2.55592105,0 Z M8.55592105,0 L11.5559211,0 L11.5559211,1 L8.55592105,1 L8.55592105,0 Z"></path>
                </g>
            </g>
        </g>
    </g>
</svg>