<svg height="24" viewBox="0 0 24 24" width="24"><g fill="none" fill-rule="evenodd"><circle cx="12" cy="12" fill="#fff" opacity=".4" r="12"/><circle cx="12" cy="12" fill="#4d361f" r="11"/><path d="m9.77272727 6c-.78232292 0-1.41794106.55177068-1.55113636 1.27389706-.34701616.07887093-.6730143.2938698-.875.63694853l-2.08806818 4.26562501h.01988636c-.17300761.3799159-.27840909.7951211-.27840909 1.2352941 0 1.6982694 1.43208603 3.0882353 3.18181818 3.0882353 1.37135257 0 2.53836332-.8590878 2.98295452-2.0459559.2531964.1213108.5360008.1930147.8352273.1930147s.5820309-.0717039.8352273-.1930147c.444591 1.1868681 1.6116017 2.0459559 2.9829545 2.0459559 1.7497321 0 3.1818182-1.3899659 3.1818182-3.0882353 0-.440173-.1054015-.8553782-.2784091-1.2352941h.0198864l-2.0880682-4.26562501c-.2019856-.34307873-.5279839-.5580776-.875-.63694853-.1331954-.72212638-.7688132-1.27389706-1.5511364-1.27389706-.7688055 0-1.4027898.53166577-1.5511363 1.23529412h-1.3522728c-.1483465-.70362835-.7823308-1.23529412-1.55113633-1.23529412zm-1.59090909 5.5588235c1.0618993 0 1.90909092.8222742 1.90909092 1.8529412s-.84719162 1.8529412-1.90909092 1.8529412-1.90909091-.8222742-1.90909091-1.8529412.84719161-1.8529412 1.90909091-1.8529412zm7.63636362 0c1.0618994 0 1.9090909.8222742 1.9090909 1.8529412s-.8471915 1.8529412-1.9090909 1.8529412c-1.0618993 0-1.9090909-.8222742-1.9090909-1.8529412s.8471916-1.8529412 1.9090909-1.8529412zm-3.8181818.6176471c.3528923 0 .6363636.275134.6363636.617647 0 .3425131-.2834713.6176471-.6363636.6176471s-.6363636-.275134-.6363636-.6176471c0-.342513.2834713-.617647.6363636-.617647z" fill="#fff" fill-rule="nonzero" opacity=".6"/></g></svg>