<?xml version="1.0" encoding="UTF-8" standalone="no"?>
<svg width="27px" height="27px" viewBox="0 0 27 27" version="1.1" xmlns="http://www.w3.org/2000/svg" xmlns:xlink="http://www.w3.org/1999/xlink">
    <!-- Generator: Sketch 3.8.3 (29802) - http://www.bohemiancoding.com/sketch -->
    <title>viewpoint-l</title>
    <desc>Created with Sketch.</desc>
    <defs></defs>
    <g id="POI-NIght" stroke="none" stroke-width="1" fill="none" fill-rule="evenodd">
        <g id="viewpoint-l">
            <path d="M13.5,27 C6.1,27 0,20.9 0,13.5 C0,6.1 6.1,0 13.5,0 C20.9,0 27,6.1 27,13.5 C27,20.9 20.9,27 13.5,27 L13.5,27 Z" id="Shape" fill-opacity="0.1" fill="#FFFFFF"></path>
            <circle id="Oval" fill="#26160D" cx="13.5" cy="13.5" r="12.5"></circle>
            <g id="Group" transform="translate(4.000000, 5.000000)" fill-opacity="0.7" fill="#FFFFFF">
                <g transform="translate(0.562500, 0.000000)" id="Combined-Shape">
                    <path d="M5.4375,12 L5.4375,10 L6.43769251,10 C6.98987094,10 7.4375,9.56211865 7.4375,8.99707067 L7.4375,3 L3.9375,3 L2.4375,3 L0.4375,11.982666 L0.4375,13.9952715 C0.4375,14.5501677 0.881216645,15 1.43730749,15 L4.43769251,15 C4.98987094,15 5.4375,14.544239 5.4375,13.9975267 L5.4375,13 L0.4375,13 L0.4375,12 L5.4375,12 Z M12.4375,12 L12.4375,10 L11.4373075,10 C10.8851291,10 10.4375,9.56211865 10.4375,8.99707067 L10.4375,3 L13.9375,3 L15.4375,3 L17.4375,11.982666 L17.4375,13.9952715 C17.4375,14.5501677 16.9937834,15 16.4376925,15 L13.4373075,15 C12.8851291,15 12.4375,14.544239 12.4375,13.9975267 L12.4375,13 L17.4375,13 L17.4375,12 L12.4375,12 Z M3.4375,0 L6.4375,0 L5.9375,2 L3.9375,2 L3.4375,0 Z M11.4375,0 L14.4375,0 L13.9375,2 L11.9375,2 L11.4375,0 Z M8.4375,4 L9.4375,4 L9.4375,9 L8.4375,9 L8.4375,4 Z"></path>
                </g>
            </g>
        </g>
    </g>
</svg>