<svg version="1.1" viewBox="0 0 9 8" xmlns="http://www.w3.org/2000/svg">
 <title>volcano-s</title>
 <g id="Page-2:-Night" fill="none" fill-rule="evenodd" opacity=".6">
  <g id="volcano-s" fill="#262622" fill-rule="nonzero">
   <g id="volcano">
    <path id="Path" d="m7.1921 3.4301c-0.12155 0.08088-0.27564 0.14331-0.48215 0.14331-0.37248 0-0.57468-0.20306-0.7223-0.35131-0.12635-0.12689-0.20262-0.2035-0.38257-0.2035-0.17996 0-0.25622 0.076586-0.38259 0.2035-0.14764 0.14827-0.34982 0.35131-0.7223 0.35131s-0.57468-0.20306-0.72232-0.35129c-0.12637-0.12691-0.20264-0.20352-0.38262-0.20352-0.17996 0-0.25622 0.076586-0.38259 0.2035-0.14764 0.14827-0.34984 0.35131-0.72232 0.35131-0.20663 0-0.36079-0.062513-0.48238-0.14343l-1.808 4.5527h9l-1.8079-4.5526z"/>
    <path id="Path" d="m5.8369 0.017382h-2.6738l-1.1288 2.8426c0.069803 0.05466 0.14215 0.085382 0.25604 0.085382 0.17996 0 0.25624-0.076586 0.38259-0.2035 0.14764-0.14827 0.34984-0.35131 0.7223-0.35131 0.3725 0 0.5747 0.20306 0.72234 0.35131 0.12637 0.12689 0.20264 0.2035 0.38261 0.2035 0.17996 0 0.25622-0.076586 0.38259-0.2035 0.14764-0.14827 0.34982-0.35131 0.7223-0.35131s0.57466 0.20306 0.72229 0.35131c0.12635 0.12689 0.20262 0.2035 0.38259 0.2035 0.11377 0 0.18608-0.03066 0.25581-0.085236l-1.1288-2.8428z"/>
   </g>
  </g>
 </g>
</svg>
