<svg width="16" height="16" viewBox="0 0 16 16">
  <g fill="#FFF" fill-rule="evenodd">
    <circle cx="8" cy="8" r="8" opacity=".1"/>
    <path fill-rule="nonzero" d="M7.14285714,4 L6.71428571,4.42105263 L5,4.42105263 L5,5.26315789 L11,5.26315789 L11,4.42105263 L9.28571429,4.42105263 L8.85714286,4 L7.14285714,4 Z M5.42857143,5.68421053 L5.42857143,11.1578947 C5.42857143,11.6210526 5.81428571,12 6.28571429,12 L9.71428571,12 C10.1857143,12 10.5714286,11.6210526 10.5714286,11.1578947 L10.5714286,5.68421053 L5.42857143,5.68421053 Z M6.71428571,6.94736842 L7.57142857,6.94736842 L7.57142857,10.7368421 L6.71428571,10.7368421 L6.71428571,6.94736842 Z M8.42857143,6.94736842 L9.28571429,6.94736842 L9.28571429,10.7368421 L8.42857143,10.7368421 L8.42857143,6.94736842 Z" opacity=".6"/>
  </g>
</svg>
