<?xml version="1.0" encoding="UTF-8" standalone="no"?>
<svg width="27px" height="27px" viewBox="0 0 27 27" version="1.1" xmlns="http://www.w3.org/2000/svg" xmlns:xlink="http://www.w3.org/1999/xlink">
    <!-- Generator: Sketch 3.8.3 (29802) - http://www.bohemiancoding.com/sketch -->
    <title>waste-basket-l</title>
    <desc>Created with Sketch.</desc>
    <defs></defs>
    <g id="POI-NIght" stroke="none" stroke-width="1" fill="none" fill-rule="evenodd">
        <g id="waste-basket-l" fill="#252522">
            <path d="M8,10 C7.446,10 6.92453,10.4212 7.01563,10.9285714 L9,22.0714286 C9.0904,22.5788929 9.446,23 10,23 L17,23 C17.554,23 17.9089,22.5788 18,22.0714286 L19.98437,10.9285714 C20.07477,10.4211071 19.554,10 19,10 L8,10 Z" id="rect5636-copy"></path>
            <path d="M10.796156,3.61417545 C10.519156,3.61417545 10.296156,3.83717545 10.296156,4.11417545 L10.296156,5.61417545 L7.29615596,5.61417545 C6.74215596,5.61417545 6.29615596,6.06017545 6.29615596,6.61417545 C6.29615596,7.16817545 6.74215596,7.61417545 7.29615596,7.61417545 L18.296156,7.61417545 C18.850156,7.61417545 19.296156,7.16817545 19.296156,6.61417545 C19.296156,6.06017545 18.850156,5.61417545 18.296156,5.61417545 L15.296156,5.61417545 L15.296156,4.11417545 C15.296156,3.83717545 15.073166,3.61417545 14.796156,3.61417545 L10.796156,3.61417545 Z M11.296156,4.61417545 L14.296156,4.61417545 L14.296156,5.61417545 L11.296156,5.61417545 L11.296156,4.61417545 Z" id="Combined-Shape" transform="translate(12.796156, 5.614175) rotate(-15.000000) translate(-12.796156, -5.614175) "></path>
        </g>
    </g>
</svg>