<?xml version="1.0" encoding="UTF-8" standalone="no"?>
<svg width="25px" height="25px" viewBox="0 0 25 25" version="1.1" xmlns="http://www.w3.org/2000/svg" xmlns:xlink="http://www.w3.org/1999/xlink" xmlns:sketch="http://www.bohemiancoding.com/sketch/ns">
    <!-- Generator: Sketch 3.3.3 (12072) - http://www.bohemiancoding.com/sketch -->
    <title>waterfall-l</title>
    <desc>Created with Sketch.</desc>
    <defs></defs>
    <g id="POI" stroke="none" stroke-width="1" fill="none" fill-rule="evenodd" sketch:type="MSPage">
        <g id="waterfall-l-copy" sketch:type="MSLayerGroup">
            <circle id="Oval-1-Copy-38" opacity="0.2" fill="#FFFFFF" sketch:type="MSShapeGroup" cx="12.5" cy="12.5" r="12.5"></circle>
            <path d="M4,16.4166667 L4,17.7708667 C4,17.7708667 5,17.3336667 6,17.3333333 C7,17.333 8,18 9.5,18 C11,18 11.47352,17.3564667 12.5,17.3333333 C13.5,17.3336667 14,18 15.5,18 C17,18 18,17.3333333 19,17.3333333 C19.70165,17.3333333 21,17.7708667 21,17.7708667 L21,16.4166667 C20.3584,16.2521333 19.65657,16 19,16 C17.5,16 16.5,16.667 15.5,16.6666667 C14.5,16.6663333 14,16 12.5,16 C11,16 10.5,16.667 9.5,16.6666667 C8.5,16.667 7.5,16 6,16 C5.30594,16 4.66024,16.2699333 4,16.4166667 Z" id="path4758-copy" fill="#295675" sketch:type="MSShapeGroup"></path>
            <path d="M6,19 C5.30594,19 4.66024,19.2699333 4,19.4166667 L4,20.7708667 C4,20.7708667 5,20.3336667 6,20.3333333 C7,20.333 8,21 9.5,21 C11,21 11.47352,20.3564667 12.5,20.3333333 C13.5,20.3336667 14,21 15.5,21 C17,21 18,20.3333333 19,20.3333333 C19.70165,20.3333333 21,20.7708667 21,20.7708667 L21,19.4166667 C20.3584,19.2521333 19.65657,19 19,19 C17.5,19 16.5,19.667 15.5,19.6666667 C14.5,19.6663333 14,19 12.5,19 C11,19 10.5,19.667 9.5,19.6666667 C8.5,19.667 7.5,19 6,19 L6,19 Z" id="path4758-copy-6" fill="#295675" sketch:type="MSShapeGroup"></path>
            <path d="M12.1875,3 L11.17185,3 C11.17185,3 11.49975,3.69515724 11.5,4.39031449 C11.50025,5.08547173 11,5.78062897 11,6.82336484 C11,7.8661007 11.48265,8.19527156 11.5,8.90883657 C11.49975,9.60399381 11,9.95157243 11,10.9943083 C11,12.0370442 11.5,12.7322014 11.5,13.4273586 C11.5,13.9151157 11.17185,14.8176731 11.17185,14.8176731 L12.1875,14.8176731 C12.3109,14.3716602 12.5,13.883778 12.5,13.4273586 C12.5,12.3846228 11.99975,11.6894655 12,10.9943083 C12.00025,10.2991511 12.5,9.95157243 12.5,8.90883657 C12.5,7.8661007 11.99975,7.51852208 12,6.82336484 C11.99975,6.12820759 12.5,5.43305035 12.5,4.39031449 C12.5,3.90783365 12.29755,3.45897062 12.1875,3 Z" id="path4758-copy-2" fill="#295675" sketch:type="MSShapeGroup"></path>
            <path d="M10.1875,3 L9.17185,3 C9.17185,3 9.49975,3.69515724 9.5,4.39031449 C9.50025,5.08547173 9,5.78062897 9,6.82336484 C9,7.8661007 9.48265,8.19527156 9.5,8.90883657 C9.49975,9.60399381 9,9.95157243 9,10.9943083 C9,12.0370442 9.5,12.7322014 9.5,13.4273586 C9.5,13.9151157 9.17185,14.8176731 9.17185,14.8176731 L10.1875,14.8176731 C10.3109,14.3716602 10.5,13.883778 10.5,13.4273586 C10.5,12.3846228 9.99975,11.6894655 10,10.9943083 C10.00025,10.2991511 10.5,9.95157243 10.5,8.90883657 C10.5,7.8661007 9.99975,7.51852208 10,6.82336484 C9.99975,6.12820759 10.5,5.43305035 10.5,4.39031449 C10.5,3.90783365 10.29755,3.45897062 10.1875,3 Z" id="path4758-copy-5" fill="#295675" sketch:type="MSShapeGroup"></path>
            <path d="M14.1875,3 L13.17185,3 C13.17185,3 13.49975,3.69515724 13.5,4.39031449 C13.50025,5.08547173 13,5.78062897 13,6.82336484 C13,7.8661007 13.48265,8.19527156 13.5,8.90883657 C13.49975,9.60399381 13,9.95157243 13,10.9943083 C13,12.0370442 13.5,12.7322014 13.5,13.4273586 C13.5,13.9151157 13.17185,14.8176731 13.17185,14.8176731 L14.1875,14.8176731 C14.3109,14.3716602 14.5,13.883778 14.5,13.4273586 C14.5,12.3846228 13.99975,11.6894655 14,10.9943083 C14.00025,10.2991511 14.5,9.95157243 14.5,8.90883657 C14.5,7.8661007 13.99975,7.51852208 14,6.82336484 C13.99975,6.12820759 14.5,5.43305035 14.5,4.39031449 C14.5,3.90783365 14.29755,3.45897062 14.1875,3 Z" id="path4758-copy-3" fill="#295675" sketch:type="MSShapeGroup"></path>
            <path d="M16.1875,3 L15.17185,3 C15.17185,3 15.49975,3.69515724 15.5,4.39031449 C15.50025,5.08547173 15,5.78062897 15,6.82336484 C15,7.8661007 15.48265,8.19527156 15.5,8.90883657 C15.49975,9.60399381 15,9.95157243 15,10.9943083 C15,12.0370442 15.5,12.7322014 15.5,13.4273586 C15.5,13.9151157 15.17185,14.8176731 15.17185,14.8176731 L16.1875,14.8176731 C16.3109,14.3716602 16.5,13.883778 16.5,13.4273586 C16.5,12.3846228 15.99975,11.6894655 16,10.9943083 C16.00025,10.2991511 16.5,9.95157243 16.5,8.90883657 C16.5,7.8661007 15.99975,7.51852208 16,6.82336484 C15.99975,6.12820759 16.5,5.43305035 16.5,4.39031449 C16.5,3.90783365 16.29755,3.45897062 16.1875,3 Z" id="path4758-copy-4" fill="#295675" sketch:type="MSShapeGroup"></path>
        </g>
    </g>
</svg>