<svg width="16" height="16" viewBox="0 0 16 16">
  <g fill="none" fill-rule="evenodd">
    <circle cx="8" cy="8" r="8" fill="#FFF" opacity=".4"/>
    <circle cx="8" cy="8" r="7" fill="#133B4C" opacity="0"/>
    <path fill="#133B4C" d="M5.05882353,10 C5.85294118,10 6.38235294,10.3382521 6.91176471,10.3380831 C7.44117647,10.3382521 7.70588235,10 8.5,10 C9.29411765,10 9.55882353,10.337914 10.0882353,10.3380831 C10.6176471,10.3382521 11.1470588,10 11.9411765,10 C12.2887724,10 12.6603294,10.127863 13,10.2113019 L13,10.89805 C13,10.89805 12.3126382,10.6761661 11.9411765,10.6761661 C11.4117647,10.6761661 10.8823529,11.0142492 10.0882353,11.0142492 C9.29411765,11.0142492 9.02941176,10.6763352 8.5,10.6761661 C7.95656941,10.6878976 7.70588235,11.0142492 6.91176471,11.0142492 C6.11764706,11.0142492 5.58823529,10.6759971 5.05882353,10.6761661 C4.52941176,10.6763352 4,10.89805 4,10.89805 L4,10.2113019 C4.34953882,10.1368898 4.69138,10 5.05882353,10 Z M5.05882353,12 C5.85294118,12 6.38235294,12.3382521 6.91176471,12.3380831 C7.44117647,12.3382521 7.70588235,12 8.5,12 C9.29411765,12 9.55882353,12.337914 10.0882353,12.3380831 C10.6176471,12.3382521 11.1470588,12 11.9411765,12 C12.2887724,12 12.6603294,12.127863 13,12.2113019 L13,12.89805 C13,12.89805 12.3126382,12.6761661 11.9411765,12.6761661 C11.4117647,12.6761661 10.8823529,13.0142492 10.0882353,13.0142492 C9.29411765,13.0142492 9.02941176,12.6763352 8.5,12.6761661 C7.95656941,12.6878976 7.70588235,13.0142492 6.91176471,13.0142492 C6.11764706,13.0142492 5.58823529,12.6759971 5.05882353,12.6761661 C4.52941176,12.6763352 4,12.89805 4,12.89805 L4,12.2113019 C4.34953882,12.1368898 4.69138,12 5.05882353,12 Z M6.92033348,3 C7.00562417,3.23275529 7.1625265,3.46038477 7.1625265,3.70506267 C7.1625265,4.23385967 6.77482391,4.58639101 6.77501767,4.93892234 C6.77482391,5.29145368 7.1625265,5.46771935 7.1625265,5.99651635 C7.1625265,6.52531335 6.77521142,6.70157902 6.77501767,7.05411036 C6.77482391,7.40664169 7.1625265,7.75917303 7.1625265,8.28797003 C7.1625265,8.51943153 7.01597066,8.7668486 6.92033348,8.9930327 L6.13318679,8.9930327 C6.13318679,8.9930327 6.38750883,8.53532364 6.38750883,8.28797003 C6.38750883,7.93543869 6,7.58290736 6,7.05411036 C6,6.52531335 6.38731508,6.34904769 6.38750883,5.99651635 C6.37406228,5.63464998 6,5.46771935 6,4.93892234 C6,4.41012534 6.38770259,4.05759401 6.38750883,3.70506267 C6.38731508,3.35253134 6.13318679,3 6.13318679,3 L6.92033348,3 Z M8.92033348,3 C9.00562417,3.23275529 9.1625265,3.46038477 9.1625265,3.70506267 C9.1625265,4.23385967 8.77482391,4.58639101 8.77501767,4.93892234 C8.77482391,5.29145368 9.1625265,5.46771935 9.1625265,5.99651635 C9.1625265,6.52531335 8.77521142,6.70157902 8.77501767,7.05411036 C8.77482391,7.40664169 9.1625265,7.75917303 9.1625265,8.28797003 C9.1625265,8.51943153 9.01597066,8.7668486 8.92033348,8.9930327 L8.13318679,8.9930327 C8.13318679,8.9930327 8.38750883,8.53532364 8.38750883,8.28797003 C8.38750883,7.93543869 8,7.58290736 8,7.05411036 C8,6.52531335 8.38731508,6.34904769 8.38750883,5.99651635 C8.37406228,5.63464998 8,5.46771935 8,4.93892234 C8,4.41012534 8.38770259,4.05759401 8.38750883,3.70506267 C8.38731508,3.35253134 8.13318679,3 8.13318679,3 L8.92033348,3 Z M10.9203335,3 C11.0056242,3.23275529 11.1625265,3.46038477 11.1625265,3.70506267 C11.1625265,4.23385967 10.7748239,4.58639101 10.7750177,4.93892234 C10.7748239,5.29145368 11.1625265,5.46771935 11.1625265,5.99651635 C11.1625265,6.52531335 10.7752114,6.70157902 10.7750177,7.05411036 C10.7748239,7.40664169 11.1625265,7.75917303 11.1625265,8.28797003 C11.1625265,8.51943153 11.0159707,8.7668486 10.9203335,8.9930327 L10.1331868,8.9930327 C10.1331868,8.9930327 10.3875088,8.53532364 10.3875088,8.28797003 C10.3875088,7.93543869 10,7.58290736 10,7.05411036 C10,6.52531335 10.3873151,6.34904769 10.3875088,5.99651635 C10.3740623,5.63464998 10,5.46771935 10,4.93892234 C10,4.41012534 10.3877026,4.05759401 10.3875088,3.70506267 C10.3873151,3.35253134 10.1331868,3 10.1331868,3 L10.9203335,3 Z"/>
  </g>
</svg>
