<svg version="1.1" viewBox="0 0 24 24" xmlns="http://www.w3.org/2000/svg">
    <title>waterfall-m</title>
    <g fill="none" fill-rule="evenodd" opacity=".6">
        <g transform="matrix(1.5,0,0,1.5,-6,-6)" fill-rule="nonzero">
            <g transform="translate(.481866 1.2331605)" fill="#14a0c2">
                <path d="m6.5336786 14c1.150259 0 1.9170983.511482 2.6839377.511226.7668393.000256 1.1502587-.511226 2.3005177-.511226s1.533679.510971 2.300518.511226c.76684.000256 1.533679-.511226 2.683938-.511226.503483 0 1.041674.193346 1.533678.319516v1.038454s-.995625-.335518-1.533678-.335518c-.766839 0-1.533679.511227-2.683938.511227s-1.533678-.510971-2.300518-.511227c-.787145.01774-1.150259.511227-2.3005177.511227-1.150259 0-1.9170983-.511482-2.6839377-.511227-.7668393.000256-1.5336786.335518-1.5336786.335518v-1.038454c.506298-.11252 1.0014461-.319516 1.5336786-.319516zm-1.5336786 2.319516c.506298-.11252 1.0014461-.319516 1.5336786-.319516 1.150259 0 1.9170983.511482 2.6839377.511226.7668393.000256 1.1502587-.511226 2.3005177-.511226s1.533679.510971 2.300518.511226c.76684.000256 1.533679-.511226 2.683938-.511226.503483 0 1.041674.193346 1.533678.319516v1.038454s-.995625-.335518-1.533678-.335518c-.766839 0-1.533679.511227-2.683938.511227s-1.533678-.510971-2.300518-.511227c-.787145.01774-1.150259.511227-2.3005177.511227-1.150259 0-1.9170983-.511482-2.6839377-.511227-.7668393.000256-1.5336786.335518-1.5336786.335518zm5.910622-12.319516c.08439.3519567.239637.6961625.239637 1.0661478 0 .7996109-.383611 1.3326848-.38342 1.8657587-.000191.5330739.38342.7996108.38342 1.5992217s-.383228 1.0661478-.38342 1.5992218c-.000191.533074.38342 1.066148.38342 1.865759 0 .35-.145009.724127-.239637 1.066147h-.778841s.251639-.692116.251639-1.066147c0-.533074-.38342-1.066148-.38342-1.865759 0-.7996109.383228-1.0661479.38342-1.5992218-.013305-.5471897-.38342-.7996109-.38342-1.5992217 0-.7996109.383611-1.3326848.38342-1.8657587-.000192-.5330739-.251639-1.0661478-.251639-1.0661478zm-2.0000003 0c.084391.3519567.2396373.6961625.2396373 1.0661478 0 .7996109-.3836114 1.3326848-.3834197 1.8657587-.0001917.5330739.3834197.7996108.3834197 1.5992217s-.383228 1.0661478-.3834197 1.5992218.3834197 1.066148.3834197 1.865759c0 .35-.1450093.724127-.2396373 1.066147h-.7788404s.2516384-.692116.2516384-1.066147c0-.533074-.3834197-1.066148-.3834197-1.865759 0-.7996109.383228-1.0661479.3834197-1.5992218-.0133047-.5471897-.3834197-.7996109-.3834197-1.5992217 0-.7996109.3836114-1.3326848.3834197-1.8657587s-.2516384-1.0661478-.2516384-1.0661478zm4.0000003 0c.08439.3519567.239637.6961625.239637 1.0661478 0 .7996109-.383611 1.3326848-.38342 1.8657587-.000191.5330739.38342.7996108.38342 1.5992217s-.383228 1.0661478-.38342 1.5992218c-.000191.533074.38342 1.066148.38342 1.865759 0 .35-.145009.724127-.239637 1.066147h-.778841s.251639-.692116.251639-1.066147c0-.533074-.38342-1.066148-.38342-1.865759 0-.7996109.383228-1.0661479.38342-1.5992218-.013305-.5471897-.38342-.7996109-.38342-1.5992217 0-.7996109.383611-1.3326848.38342-1.8657587-.000192-.5330739-.251639-1.0661478-.251639-1.0661478zm2.002027 0c.08439.3519567.239637.6961625.239637 1.0661478 0 .7996109-.383612 1.3326848-.38342 1.8657587-.000192.5330739.38342.7996108.38342 1.5992217s-.383228 1.0661478-.38342 1.5992218.38342 1.066148.38342 1.865759c0 .35-.145009.724127-.239637 1.066147h-.778841s.251638-.692116.251638-1.066147c0-.533074-.383419-1.066148-.383419-1.865759 0-.7996109.383228-1.0661479.383419-1.5992218-.0133-.5471897-.383419-.7996109-.383419-1.5992217 0-.7996109.383611-1.3326848.383419-1.8657587-.000191-.5330739-.251638-1.0661478-.251638-1.0661478z"/>
            </g>
        </g>
    </g>
</svg>
