<?xml version="1.0" encoding="UTF-8" standalone="no"?>
<svg width="23px" height="23px" viewBox="0 0 23 23" version="1.1" xmlns="http://www.w3.org/2000/svg" xmlns:xlink="http://www.w3.org/1999/xlink" xmlns:sketch="http://www.bohemiancoding.com/sketch/ns">
    <!-- Generator: Sketch 3.4.2 (15857) - http://www.bohemiancoding.com/sketch -->
    <title>waterfall-m</title>
    <desc>Created with Sketch.</desc>
    <defs></defs>
    <g id="POI" stroke="none" stroke-width="1" fill="none" fill-rule="evenodd" sketch:type="MSPage">
        <g id="waterfall-m" sketch:type="MSLayerGroup">
            <ellipse id="Oval-1-Copy-41" opacity="0" fill="#FFFFFF" sketch:type="MSShapeGroup" cx="11.5" cy="11.5" rx="11.5" ry="11.5"></ellipse>
            <ellipse id="Oval-1-Copy-40" fill="#0F2940" sketch:type="MSShapeGroup" cx="11.5" cy="11.5" rx="10.5" ry="10.5"></ellipse>
            <path d="M6.53367864,14 C6.00144614,14 5.50629799,14.2069955 5,14.3195164 L5,15.3579702 C5,15.3579702 5.76683932,15.022708 6.53367864,15.0224524 C7.30051796,15.0221968 8.06735728,15.5336786 9.21761626,15.5336786 C10.3678752,15.5336786 10.730989,15.040192 11.5181342,15.0224524 C12.2849735,15.022708 12.6683932,15.5336786 13.8186522,15.5336786 C14.9689111,15.5336786 15.7357505,15.0224524 16.5025898,15.0224524 C17.0406426,15.0224524 18.0362684,15.3579702 18.0362684,15.3579702 L18.0362684,14.3195164 C17.5442643,14.1933458 17.0060735,14 16.5025898,14 C15.3523308,14 14.5854915,14.5114818 13.8186522,14.5112262 C13.0518129,14.5109706 12.6683932,14 11.5181342,14 C10.3678752,14 9.98445557,14.5114818 9.21761626,14.5112262 C8.45077694,14.5114818 7.68393762,14 6.53367864,14 L6.53367864,14 Z" id="path4758-copy-18" opacity="0.7" fill="#FFFFFF" sketch:type="MSShapeGroup"></path>
            <path d="M5,16.3195164 L5,17.3579702 C5,17.3579702 5.76683932,17.022708 6.53367864,17.0224524 C7.30051796,17.0221968 8.06735728,17.5336786 9.21761626,17.5336786 C10.3678752,17.5336786 10.730989,17.040192 11.5181342,17.0224524 C12.2849735,17.022708 12.6683932,17.5336786 13.8186522,17.5336786 C14.9689111,17.5336786 15.7357505,17.0224524 16.5025898,17.0224524 C17.0406426,17.0224524 18.0362684,17.3579702 18.0362684,17.3579702 L18.0362684,16.3195164 C17.5442643,16.1933458 17.0060735,16 16.5025898,16 C15.3523308,16 14.5854915,16.5114818 13.8186522,16.5112262 C13.0518129,16.5109706 12.6683932,16 11.5181342,16 C10.3678752,16 9.98445557,16.5114818 9.21761626,16.5112262 C8.45077694,16.5114818 7.68393762,16 6.53367864,16 C6.00144615,16 5.50629799,16.2069955 5,16.3195164 Z" id="path4758-copy-13" opacity="0.7" fill="#FFFFFF" sketch:type="MSShapeGroup"></path>
            <path d="M10.9106217,4 L10.1317813,4 C10.1317813,4 10.3832279,4.53307391 10.3834197,5.06614781 C10.3836114,5.59922172 10,6.13229563 10,6.93190649 C10,7.73151735 10.370115,7.98393851 10.3834197,8.53112821 C10.3832279,9.06420212 10,9.33073907 10,10.1303499 C10,10.9299608 10.3834197,11.4630347 10.3834197,11.9961086 C10.3834197,12.3701399 10.1317813,13.0622564 10.1317813,13.0622564 L10.9106217,13.0622564 C11.0052497,12.7202362 11.150259,12.3461089 11.150259,11.9961086 C11.150259,11.1964977 10.7666476,10.6634238 10.7668393,10.1303499 C10.767031,9.59727602 11.150259,9.33073907 11.150259,8.53112821 C11.150259,7.73151735 10.7666476,7.4649804 10.7668393,6.93190649 C10.7666476,6.39883258 11.150259,5.86575867 11.150259,5.06614781 C11.150259,4.69616254 10.9950124,4.35195672 10.9106217,4 Z" id="path4758-copy-14" opacity="0.7" fill="#FFFFFF" sketch:type="MSShapeGroup"></path>
            <path d="M8.91062169,4 L8.13178134,4 C8.13178134,4 8.38322795,4.53307391 8.38341966,5.06614781 C8.38361137,5.59922172 8,6.13229563 8,6.93190649 C8,7.73151735 8.370115,7.98393851 8.38341966,8.53112821 C8.38322795,9.06420212 8,9.33073907 8,10.1303499 C8,10.9299608 8.38341966,11.4630347 8.38341966,11.9961086 C8.38341966,12.3701399 8.13178134,13.0622564 8.13178134,13.0622564 L8.91062169,13.0622564 C9.00524966,12.7202362 9.15025898,12.3461089 9.15025898,11.9961086 C9.15025898,11.1964977 8.76664761,10.6634238 8.76683932,10.1303499 C8.76703103,9.59727602 9.15025898,9.33073907 9.15025898,8.53112821 C9.15025898,7.73151735 8.76664761,7.4649804 8.76683932,6.93190649 C8.76664761,6.39883258 9.15025898,5.86575867 9.15025898,5.06614781 C9.15025898,4.69616254 8.99501236,4.35195672 8.91062169,4 Z" id="path4758-copy-15" opacity="0.7" fill="#FFFFFF" sketch:type="MSShapeGroup"></path>
            <path d="M12.9106217,4 L12.1317813,4 C12.1317813,4 12.3832279,4.53307391 12.3834197,5.06614781 C12.3836114,5.59922172 12,6.13229563 12,6.93190649 C12,7.73151735 12.370115,7.98393851 12.3834197,8.53112821 C12.3832279,9.06420212 12,9.33073907 12,10.1303499 C12,10.9299608 12.3834197,11.4630347 12.3834197,11.9961086 C12.3834197,12.3701399 12.1317813,13.0622564 12.1317813,13.0622564 L12.9106217,13.0622564 C13.0052497,12.7202362 13.150259,12.3461089 13.150259,11.9961086 C13.150259,11.1964977 12.7666476,10.6634238 12.7668393,10.1303499 C12.767031,9.59727602 13.150259,9.33073907 13.150259,8.53112821 C13.150259,7.73151735 12.7666476,7.4649804 12.7668393,6.93190649 C12.7666476,6.39883258 13.150259,5.86575867 13.150259,5.06614781 C13.150259,4.69616254 12.9950124,4.35195672 12.9106217,4 Z" id="path4758-copy-16" opacity="0.7" fill="#FFFFFF" sketch:type="MSShapeGroup"></path>
            <path d="M14.9126485,4 L14.1338081,4 C14.1338081,4 14.3852547,4.53307391 14.3854464,5.06614781 C14.3856382,5.59922172 14.0020268,6.13229563 14.0020268,6.93190649 C14.0020268,7.73151735 14.3721418,7.98393851 14.3854464,8.53112821 C14.3852547,9.06420212 14.0020268,9.33073907 14.0020268,10.1303499 C14.0020268,10.9299608 14.3854464,11.4630347 14.3854464,11.9961086 C14.3854464,12.3701399 14.1338081,13.0622564 14.1338081,13.0622564 L14.9126485,13.0622564 C15.0072765,12.7202362 15.1522858,12.3461089 15.1522858,11.9961086 C15.1522858,11.1964977 14.7686744,10.6634238 14.7688661,10.1303499 C14.7690578,9.59727602 15.1522858,9.33073907 15.1522858,8.53112821 C15.1522858,7.73151735 14.7686744,7.4649804 14.7688661,6.93190649 C14.7686744,6.39883258 15.1522858,5.86575867 15.1522858,5.06614781 C15.1522858,4.69616254 14.9970391,4.35195672 14.9126485,4 Z" id="path4758-copy-17" opacity="0.7" fill="#FFFFFF" sketch:type="MSShapeGroup"></path>
        </g>
    </g>
</svg>