<?xml version="1.0" encoding="UTF-8" standalone="no"?>
<svg width="23px" height="22px" viewBox="0 0 23 22" version="1.1" xmlns="http://www.w3.org/2000/svg" xmlns:xlink="http://www.w3.org/1999/xlink" xmlns:sketch="http://www.bohemiancoding.com/sketch/ns">
    <!-- Generator: Sketch 3.3.3 (12072) - http://www.bohemiancoding.com/sketch -->
    <title>waterfall-m</title>
    <desc>Created with Sketch.</desc>
    <defs></defs>
    <g id="POI" stroke="none" stroke-width="1" fill="none" fill-rule="evenodd" sketch:type="MSPage">
        <g id="waterfall-m-copy" sketch:type="MSLayerGroup" transform="translate(0.000000, -0.500000)">
            <circle id="Oval-1-Copy-38" opacity="0.2" fill="#FFFFFF" sketch:type="MSShapeGroup" cx="11.5" cy="11.5" r="10.6481481"></circle>
            <path d="M5.96296296,14.4814815 C5.37172667,14.4814815 4.82168593,14.7114247 4.25925926,14.8364198 L4.25925926,15.9899975 C4.25925926,15.9899975 5.11111111,15.6175679 5.96296296,15.617284 C6.81481481,15.617 7.66666667,16.1851852 8.94444444,16.1851852 C10.2222222,16.1851852 10.6255911,15.6369901 11.5,15.617284 C12.3518519,15.6175679 12.7777778,16.1851852 14.0555556,16.1851852 C15.3333333,16.1851852 16.1851852,15.617284 17.037037,15.617284 C17.6347389,15.617284 18.7407407,15.9899975 18.7407407,15.9899975 L18.7407407,14.8364198 C18.1941926,14.6962617 17.5963374,14.4814815 17.037037,14.4814815 C15.7592593,14.4814815 14.9074074,15.0496667 14.0555556,15.0493827 C13.2037037,15.0490988 12.7777778,14.4814815 11.5,14.4814815 C10.2222222,14.4814815 9.7962963,15.0496667 8.94444444,15.0493827 C8.09259259,15.0496667 7.24074074,14.4814815 5.96296296,14.4814815 L5.96296296,14.4814815 Z" id="path4758-copy" fill="#295675" sketch:type="MSShapeGroup"></path>
            <path d="M5.96296296,17.037037 C5.37172667,17.037037 4.82168593,17.2669802 4.25925926,17.3919753 L4.25925926,18.5455531 C4.25925926,18.5455531 5.11111111,18.1731235 5.96296296,18.1728395 C6.81481481,18.1725556 7.66666667,18.7407407 8.94444444,18.7407407 C10.2222222,18.7407407 10.6255911,18.1925457 11.5,18.1728395 C12.3518519,18.1731235 12.7777778,18.7407407 14.0555556,18.7407407 C15.3333333,18.7407407 16.1851852,18.1728395 17.037037,18.1728395 C17.6347389,18.1728395 18.7407407,18.5455531 18.7407407,18.5455531 L18.7407407,17.3919753 C18.1941926,17.2518173 17.5963374,17.037037 17.037037,17.037037 C15.7592593,17.037037 14.9074074,17.6052222 14.0555556,17.6049383 C13.2037037,17.6046543 12.7777778,17.037037 11.5,17.037037 C10.2222222,17.037037 9.7962963,17.6052222 8.94444444,17.6049383 C8.09259259,17.6052222 7.24074074,17.037037 5.96296296,17.037037 L5.96296296,17.037037 Z" id="path4758-copy-6" fill="#295675" sketch:type="MSShapeGroup"></path>
            <path d="M11.2337963,3.40740741 L10.368613,3.40740741 C10.368613,3.40740741 10.6479352,3.99957839 10.6481481,4.59174938 C10.6483611,5.18392036 10.2222222,5.77609135 10.2222222,6.66434782 C10.2222222,7.5526043 10.6333685,7.83300911 10.6481481,8.44086078 C10.6479352,9.03303176 10.2222222,9.32911726 10.2222222,10.2173737 C10.2222222,11.1056302 10.6481481,11.6978012 10.6481481,12.2899722 C10.6481481,12.705469 10.368613,13.4743142 10.368613,13.4743142 L11.2337963,13.4743142 C11.3389148,13.0943772 11.5,12.6787739 11.5,12.2899722 C11.5,11.4017157 11.0738611,10.8095447 11.0740741,10.2173737 C11.074287,9.62520275 11.5,9.32911726 11.5,8.44086078 C11.5,7.5526043 11.0738611,7.25651881 11.0740741,6.66434782 C11.0738611,6.07217684 11.5,5.48000585 11.5,4.59174938 C11.5,4.18074718 11.3275426,3.79838238 11.2337963,3.40740741 Z" id="path4758-copy-2" fill="#295675" sketch:type="MSShapeGroup"></path>
            <path d="M9.53009259,3.40740741 L8.66490926,3.40740741 C8.66490926,3.40740741 8.94423148,3.99957839 8.94444444,4.59174938 C8.94465741,5.18392036 8.51851852,5.77609135 8.51851852,6.66434782 C8.51851852,7.5526043 8.92966481,7.83300911 8.94444444,8.44086078 C8.94423148,9.03303176 8.51851852,9.32911726 8.51851852,10.2173737 C8.51851852,11.1056302 8.94444444,11.6978012 8.94444444,12.2899722 C8.94444444,12.705469 8.66490926,13.4743142 8.66490926,13.4743142 L9.53009259,13.4743142 C9.63521111,13.0943772 9.7962963,12.6787739 9.7962963,12.2899722 C9.7962963,11.4017157 9.37015741,10.8095447 9.37037037,10.2173737 C9.37058333,9.62520275 9.7962963,9.32911726 9.7962963,8.44086078 C9.7962963,7.5526043 9.37015741,7.25651881 9.37037037,6.66434782 C9.37015741,6.07217684 9.7962963,5.48000585 9.7962963,4.59174938 C9.7962963,4.18074718 9.62383889,3.79838238 9.53009259,3.40740741 Z" id="path4758-copy-5" fill="#295675" sketch:type="MSShapeGroup"></path>
            <path d="M12.9375,3.40740741 L12.0723167,3.40740741 C12.0723167,3.40740741 12.3516389,3.99957839 12.3518519,4.59174938 C12.3520648,5.18392036 11.9259259,5.77609135 11.9259259,6.66434782 C11.9259259,7.5526043 12.3370722,7.83300911 12.3518519,8.44086078 C12.3516389,9.03303176 11.9259259,9.32911726 11.9259259,10.2173737 C11.9259259,11.1056302 12.3518519,11.6978012 12.3518519,12.2899722 C12.3518519,12.705469 12.0723167,13.4743142 12.0723167,13.4743142 L12.9375,13.4743142 C13.0426185,13.0943772 13.2037037,12.6787739 13.2037037,12.2899722 C13.2037037,11.4017157 12.7775648,10.8095447 12.7777778,10.2173737 C12.7779907,9.62520275 13.2037037,9.32911726 13.2037037,8.44086078 C13.2037037,7.5526043 12.7775648,7.25651881 12.7777778,6.66434782 C12.7775648,6.07217684 13.2037037,5.48000585 13.2037037,4.59174938 C13.2037037,4.18074718 13.0312463,3.79838238 12.9375,3.40740741 Z" id="path4758-copy-3" fill="#295675" sketch:type="MSShapeGroup"></path>
            <path d="M14.6412037,3.40740741 L13.7760204,3.40740741 C13.7760204,3.40740741 14.0553426,3.99957839 14.0555556,4.59174938 C14.0557685,5.18392036 13.6296296,5.77609135 13.6296296,6.66434782 C13.6296296,7.5526043 14.0407759,7.83300911 14.0555556,8.44086078 C14.0553426,9.03303176 13.6296296,9.32911726 13.6296296,10.2173737 C13.6296296,11.1056302 14.0555556,11.6978012 14.0555556,12.2899722 C14.0555556,12.705469 13.7760204,13.4743142 13.7760204,13.4743142 L14.6412037,13.4743142 C14.7463222,13.0943772 14.9074074,12.6787739 14.9074074,12.2899722 C14.9074074,11.4017157 14.4812685,10.8095447 14.4814815,10.2173737 C14.4816944,9.62520275 14.9074074,9.32911726 14.9074074,8.44086078 C14.9074074,7.5526043 14.4812685,7.25651881 14.4814815,6.66434782 C14.4812685,6.07217684 14.9074074,5.48000585 14.9074074,4.59174938 C14.9074074,4.18074718 14.73495,3.79838238 14.6412037,3.40740741 Z" id="path4758-copy-4" fill="#295675" sketch:type="MSShapeGroup"></path>
        </g>
    </g>
</svg>