<?xml version="1.0" encoding="UTF-8" standalone="no"?>
<svg width="17px" height="17px" viewBox="0 0 17 17" version="1.1" xmlns="http://www.w3.org/2000/svg" xmlns:xlink="http://www.w3.org/1999/xlink" xmlns:sketch="http://www.bohemiancoding.com/sketch/ns">
    <!-- Generator: Sketch 3.4.2 (15857) - http://www.bohemiancoding.com/sketch -->
    <title>waterfall-s</title>
    <desc>Created with Sketch.</desc>
    <defs></defs>
    <g id="POI" stroke="none" stroke-width="1" fill="none" fill-rule="evenodd" sketch:type="MSPage">
        <g id="waterfall-s" sketch:type="MSLayerGroup">
            <circle id="Oval-1-Copy-43" opacity="0" fill="#FFFFFF" sketch:type="MSShapeGroup" cx="8.5" cy="8.5" r="8.5"></circle>
            <circle id="Oval-1-Copy-42" fill="#0F2940" sketch:type="MSShapeGroup" cx="8.5" cy="8.5" r="7.5"></circle>
            <path d="M5.05882353,10 C4.69138,10 4.34953882,10.1368898 4,10.2113019 L4,10.89805 C4,10.89805 4.52941176,10.6763352 5.05882353,10.6761661 C5.58823529,10.6759971 6.11764706,11.0142492 6.91176471,11.0142492 C7.70588235,11.0142492 7.95656941,10.6878976 8.5,10.6761661 C9.02941176,10.6763352 9.29411765,11.0142492 10.0882353,11.0142492 C10.8823529,11.0142492 11.4117647,10.6761661 11.9411765,10.6761661 C12.3126382,10.6761661 13,10.89805 13,10.89805 L13,10.2113019 C12.6603294,10.127863 12.2887724,10 11.9411765,10 C11.1470588,10 10.6176471,10.3382521 10.0882353,10.3380831 C9.55882353,10.337914 9.29411765,10 8.5,10 C7.70588235,10 7.44117647,10.3382521 6.91176471,10.3380831 C6.38235294,10.3382521 5.85294118,10 5.05882353,10 L5.05882353,10 Z" id="path4758-copy-24" opacity="0.7" fill="#FFFFFF" sketch:type="MSShapeGroup"></path>
            <path d="M5.05882353,12 C4.69138,12 4.34953882,12.1368898 4,12.2113019 L4,12.89805 C4,12.89805 4.52941176,12.6763352 5.05882353,12.6761661 C5.58823529,12.6759971 6.11764706,13.0142492 6.91176471,13.0142492 C7.70588235,13.0142492 7.95656941,12.6878976 8.5,12.6761661 C9.02941176,12.6763352 9.29411765,13.0142492 10.0882353,13.0142492 C10.8823529,13.0142492 11.4117647,12.6761661 11.9411765,12.6761661 C12.3126382,12.6761661 13,12.89805 13,12.89805 L13,12.2113019 C12.6603294,12.127863 12.2887724,12 11.9411765,12 C11.1470588,12 10.6176471,12.3382521 10.0882353,12.3380831 C9.55882353,12.337914 9.29411765,12 8.5,12 C7.70588235,12 7.44117647,12.3382521 6.91176471,12.3380831 C6.38235294,12.3382521 5.85294118,12 5.05882353,12 L5.05882353,12 Z" id="path4758-copy-19" opacity="0.7" fill="#FFFFFF" sketch:type="MSShapeGroup"></path>
            <path d="M6.92033348,3 L6.13318679,3 C6.13318679,3 6.38731508,3.35253134 6.38750883,3.70506267 C6.38770259,4.05759401 6,4.41012534 6,4.93892234 C6,5.46771935 6.37406228,5.63464998 6.38750883,5.99651635 C6.38731508,6.34904769 6,6.52531335 6,7.05411036 C6,7.58290736 6.38750883,7.93543869 6.38750883,8.28797003 C6.38750883,8.53532364 6.13318679,8.9930327 6.13318679,8.9930327 L6.92033348,8.9930327 C7.01597066,8.7668486 7.1625265,8.51943153 7.1625265,8.28797003 C7.1625265,7.75917303 6.77482391,7.40664169 6.77501767,7.05411036 C6.77521142,6.70157902 7.1625265,6.52531335 7.1625265,5.99651635 C7.1625265,5.46771935 6.77482391,5.29145368 6.77501767,4.93892234 C6.77482391,4.58639101 7.1625265,4.23385967 7.1625265,3.70506267 C7.1625265,3.46038477 7.00562417,3.23275529 6.92033348,3 Z" id="path4758-copy-20" opacity="0.7" fill="#FFFFFF" sketch:type="MSShapeGroup"></path>
            <path d="M8.92033348,3 L8.13318679,3 C8.13318679,3 8.38731508,3.35253134 8.38750883,3.70506267 C8.38770259,4.05759401 8,4.41012534 8,4.93892234 C8,5.46771935 8.37406228,5.63464998 8.38750883,5.99651635 C8.38731508,6.34904769 8,6.52531335 8,7.05411036 C8,7.58290736 8.38750883,7.93543869 8.38750883,8.28797003 C8.38750883,8.53532364 8.13318679,8.9930327 8.13318679,8.9930327 L8.92033348,8.9930327 C9.01597066,8.7668486 9.1625265,8.51943153 9.1625265,8.28797003 C9.1625265,7.75917303 8.77482391,7.40664169 8.77501767,7.05411036 C8.77521142,6.70157902 9.1625265,6.52531335 9.1625265,5.99651635 C9.1625265,5.46771935 8.77482391,5.29145368 8.77501767,4.93892234 C8.77482391,4.58639101 9.1625265,4.23385967 9.1625265,3.70506267 C9.1625265,3.46038477 9.00562417,3.23275529 8.92033348,3 Z" id="path4758-copy-22" opacity="0.7" fill="#FFFFFF" sketch:type="MSShapeGroup"></path>
            <path d="M10.9203335,3 L10.1331868,3 C10.1331868,3 10.3873151,3.35253134 10.3875088,3.70506267 C10.3877026,4.05759401 10,4.41012534 10,4.93892234 C10,5.46771935 10.3740623,5.63464998 10.3875088,5.99651635 C10.3873151,6.34904769 10,6.52531335 10,7.05411036 C10,7.58290736 10.3875088,7.93543869 10.3875088,8.28797003 C10.3875088,8.53532364 10.1331868,8.9930327 10.1331868,8.9930327 L10.9203335,8.9930327 C11.0159707,8.7668486 11.1625265,8.51943153 11.1625265,8.28797003 C11.1625265,7.75917303 10.7748239,7.40664169 10.7750177,7.05411036 C10.7752114,6.70157902 11.1625265,6.52531335 11.1625265,5.99651635 C11.1625265,5.46771935 10.7748239,5.29145368 10.7750177,4.93892234 C10.7748239,4.58639101 11.1625265,4.23385967 11.1625265,3.70506267 C11.1625265,3.46038477 11.0056242,3.23275529 10.9203335,3 Z" id="path4758-copy-23" opacity="0.7" fill="#FFFFFF" sketch:type="MSShapeGroup"></path>
        </g>
    </g>
</svg>