<svg version="1.1" viewBox="0 0 16 16" xmlns="http://www.w3.org/2000/svg">
 <title>waterfall-s</title>
 <g fill="none" fill-rule="evenodd" opacity=".6">
  <g transform="translate(-.5 -.0071245)" fill-rule="nonzero">
   <path d="m3.3382 10.996c1.1912 0 1.9853 0.50738 2.7794 0.50712 0.79412 2.54e-4 1.1912-0.50712 2.3824-0.50712 1.1912 0 1.5882 0.50687 2.3824 0.50712 0.79412 2.54e-4 1.5882-0.50712 2.7794-0.50712 0.52139 0 1.0787 0.19179 1.5882 0.31695v1.0301s-1.031-0.33283-1.5882-0.33283c-0.79412 0-1.5882 0.50712-2.7794 0.50712-1.1912 0-1.5882-0.50687-2.3824-0.50712-0.81515 0.0176-1.1912 0.50712-2.3824 0.50712-1.1912 0-1.9853-0.50738-2.7794-0.50712-0.79412 2.53e-4 -1.5882 0.33283-1.5882 0.33283v-1.0301c0.52431-0.11162 1.0371-0.31695 1.5882-0.31695zm0 3c1.1912 0 1.9853 0.50738 2.7794 0.50712 0.79412 2.54e-4 1.1912-0.50712 2.3824-0.50712 1.1912 0 1.5882 0.50687 2.3824 0.50712 0.79412 2.54e-4 1.5882-0.50712 2.7794-0.50712 0.52139 0 1.0787 0.19179 1.5882 0.31695v1.0301s-1.031-0.33283-1.5882-0.33283c-0.79412 0-1.5882 0.50712-2.7794 0.50712-1.1912 0-1.5882-0.50687-2.3824-0.50712-0.81515 0.0176-1.1912 0.50712-2.3824 0.50712-1.1912 0-1.9853-0.50738-2.7794-0.50712-0.79412 2.53e-4 -1.5882 0.33283-1.5882 0.33283v-1.0301c0.52431-0.11162 1.0371-0.31695 1.5882-0.31695zm2.7923-13.5c0.12794 0.34913 0.36329 0.69058 0.36329 1.0576 0 0.7932-0.58155 1.322-0.58126 1.8508-2.908e-4 0.5288 0.58126 0.7932 0.58126 1.5864 0 0.7932-0.58097 1.0576-0.58126 1.5864-2.908e-4 0.5288 0.58126 1.0576 0.58126 1.8508 0 0.34719-0.21983 0.71832-0.36329 1.0576h-1.1807s0.38148-0.68656 0.38148-1.0576c0-0.5288-0.58126-1.0576-0.58126-1.8508 0-0.7932 0.58097-1.0576 0.58126-1.5864-0.02017-0.5428-0.58126-0.7932-0.58126-1.5864 0-0.7932 0.58155-1.322 0.58126-1.8508-2.906e-4 -0.5288-0.38148-1.0576-0.38148-1.0576zm3 0c0.12794 0.34913 0.36329 0.69058 0.36329 1.0576 0 0.7932-0.58155 1.322-0.58126 1.8508-2.907e-4 0.5288 0.58126 0.7932 0.58126 1.5864 0 0.7932-0.58097 1.0576-0.58126 1.5864-2.907e-4 0.5288 0.58126 1.0576 0.58126 1.8508 0 0.34719-0.21983 0.71832-0.36329 1.0576h-1.1807s0.38148-0.68656 0.38148-1.0576c0-0.5288-0.58126-1.0576-0.58126-1.8508 0-0.7932 0.58097-1.0576 0.58126-1.5864-0.02017-0.5428-0.58126-0.7932-0.58126-1.5864 0-0.7932 0.58155-1.322 0.58126-1.8508-2.905e-4 -0.5288-0.38148-1.0576-0.38148-1.0576zm3 0c0.12794 0.34913 0.36329 0.69058 0.36329 1.0576 0 0.7932-0.58156 1.322-0.58126 1.8508-2.91e-4 0.5288 0.58126 0.7932 0.58126 1.5864 0 0.7932-0.58097 1.0576-0.58126 1.5864-2.91e-4 0.5288 0.58126 1.0576 0.58126 1.8508 0 0.34719-0.21983 0.71832-0.36329 1.0576h-1.1807s0.38148-0.68656 0.38148-1.0576c0-0.5288-0.58126-1.0576-0.58126-1.8508 0-0.7932 0.58097-1.0576 0.58126-1.5864-0.02017-0.5428-0.58126-0.7932-0.58126-1.5864 0-0.7932 0.58155-1.322 0.58126-1.8508-2.91e-4 -0.5288-0.38148-1.0576-0.38148-1.0576z" fill="#14a0c2" stroke-width="1.5"/>
  </g>
 </g>
</svg>
