<svg xmlns:xlink="http://www.w3.org/1999/xlink" width="36" height="36" viewBox="0 0 36 36">
  <defs>
    <path id="wfc_ticket-a" d="M3,0 L21,0 C22.6568542,-3.04359188e-16 24,1.34314575 24,3 L24,27 C24,28.6568542 22.6568542,30 21,30 L3,30 C1.34314575,30 2.02906125e-16,28.6568542 0,27 L0,3 C-2.02906125e-16,1.34314575 1.34314575,3.04359188e-16 3,0 Z M8,1.5 C7.44771525,1.5 7,1.94771525 7,2.5 C7,3.05228475 7.44771525,3.5 8,3.5 L16,3.5 C16.5522847,3.5 17,3.05228475 17,2.5 C17,1.94771525 16.5522847,1.5 16,1.5 L8,1.5 Z"/>
  </defs>
  <g fill="none" fill-rule="evenodd">
    <path fill="#FFF" fill-rule="nonzero" d="M14.5,4 L14.5,1.80000001 C14.5,0.805887456 15.3058875,0 16.3,0 L19.7,0 C20.6941125,-2.49800178e-16 21.5,0.805887456 21.5,1.80000001 L21.5,4 L27,4 C29.209139,4 31,5.790861 31,8 L31,32 C31,34.209139 29.209139,36 27,36 L9,36 C6.790861,36 5,34.209139 5,32 L5,8 C5,5.790861 6.790861,4 9,4 L14.5,4 Z" opacity=".6"/>
    <g transform="translate(6 5)">
      <mask id="wfc_ticket-b" fill="#fff">
        <use xlink:href="#wfc_ticket-a"/>
      </mask>
      <use fill="#344566" xlink:href="#wfc_ticket-a"/>
      <rect width="24" height="5" fill="#8C7638" mask="url(#wfc_ticket-b)"/>
      <rect width="18" height="12" x="3" y="5" fill="#0B6B00" mask="url(#wfc_ticket-b)"/>
      <g mask="url(#wfc_ticket-b)">
        <g transform="translate(7.5 6)">
          <path fill="#B3A376" d="M7.0135,3.5547 L2.4115,3.5547 C2.1295,3.5547 1.9015,3.7837 1.9015,4.0657 C1.9015,4.3477 2.1295,4.5767 2.4115,4.5767 L7.0135,4.5767 C7.2955,4.5767 7.5245,4.3477 7.5245,4.0657 C7.5245,3.7837 7.2955,3.5547 7.0135,3.5547"/>
          <path fill="#B3A376" d="M5.6727,6.6675 C5.6727,6.4445 5.7767,6.2355 5.9517,6.0985 C6.5857,5.6005 7.0107,4.7405 7.0107,3.7505 C7.0107,2.1985 5.9827,0.9395 4.7127,0.9395 C3.4437,0.9395 2.4147,2.1985 2.4147,3.7505 C2.4147,4.7405 2.8397,5.6005 3.4737,6.0985 C3.6497,6.2355 3.7527,6.4445 3.7527,6.6675 C3.7527,6.9835 3.5467,7.2595 3.2467,7.3585 L6.1787,7.3585 C5.8787,7.2595 5.6727,6.9835 5.6727,6.6675"/>
          <path fill="#6B1813" d="M0.1063,11.0449 L9.3193,11.0449 C9.0643,9.2869 7.8193,7.9029 6.1793,7.3589 L3.2463,7.3589 C1.6063,7.9029 0.3623,9.2869 0.1063,11.0449"/>
          <path fill="#B3A376" d="M4.7127,8.8276 C5.5237,8.8276 6.1817,8.1696 6.1817,7.3586 L4.7127,6.8596 L3.2437,7.3586 C3.2437,8.1696 3.9017,8.8276 4.7127,8.8276"/>
          <path fill="#0D0E1A" d="M6.9818,3.3013 C6.9818,3.3013 5.9128,3.5993 5.5718,2.3053 C3.9598,3.4233 2.5478,3.4233 1.5128,2.5763 C0.4778,1.7293 1.5008,0.2123 2.7718,1.0943 C3.3478,-0.0467 6.3948,-0.5767 6.2898,1.4593 C7.5718,1.3883 6.9818,3.3013 6.9818,3.3013"/>
        </g>
      </g>
      <rect width="18" height="10" x="3" y="17" fill="#FFF" mask="url(#wfc_ticket-b)" opacity=".4"/>
      <rect width="7" height="2" x="5" y="19" fill="#6B1813" mask="url(#wfc_ticket-b)" rx="1"/>
      <rect width="5" height="2" x="14" y="19" fill="#6B1813" mask="url(#wfc_ticket-b)" rx="1"/>
      <rect width="10" height="2" x="7" y="23" fill="#6B1813" mask="url(#wfc_ticket-b)" rx="1"/>
    </g>
    <rect width="5" height="7" x="15.5" y="1" fill="#6B1813" rx=".8"/>
  </g>
</svg>
