<svg width="28" height="28" viewBox="0 0 28 28">
  <g fill="none" fill-rule="evenodd">
    <circle cx="14" cy="14" r="14" fill="#FFF" opacity=".4"/>
    <circle cx="14" cy="14" r="13" fill="#3D3C36"/>
    <path fill="#FFF" d="M14.0013273,15.2444834 L10.7721467,19.5925028 L10.4925249,23 L17.5081253,23 L17.2365214,19.4398576 L14.0013273,15.2444834 L14.0013273,15.2444834 Z M20.6360809,15.4141946 L15.2240463,11.622714 L20.6350787,7.82933725 C21.0800682,7.51741 21.123164,6.96466352 20.7322948,6.59395362 L19.3161458,5.25333009 C18.9242744,4.88262018 18.3409773,4.92338879 18.0112441,5.34529648 L14.0023296,10.4669714 L9.99040833,5.34624459 C9.66067511,4.9243369 9.07637581,4.8845164 8.68550664,5.25333009 L7.26735313,6.59300551 C6.87548173,6.96466352 6.91957979,7.51646189 7.36557153,7.82744104 L12.7806129,11.6208178 L7.36657376,15.4160908 C6.92158425,15.7270699 6.87949064,16.2807645 7.27035981,16.6505263 L8.68550664,17.9911498 C9.07737804,18.3628079 9.66067511,18.3210911 9.99141056,17.9001316 L14.0013273,12.7784567 L18.0102419,17.8972872 C18.3399751,18.3191949 18.9242744,18.3590154 19.3161458,17.9892536 L20.7332971,16.6505263 C21.1241662,16.2798164 21.0800682,15.7270699 20.6360809,15.4141946 L20.6360809,15.4141946 Z" opacity=".6"/>
  </g>
</svg>
