<?xml version="1.0" encoding="UTF-8" standalone="no"?>
<svg width="27px" height="27px" viewBox="0 0 27 27" version="1.1" xmlns="http://www.w3.org/2000/svg" xmlns:xlink="http://www.w3.org/1999/xlink" xmlns:sketch="http://www.bohemiancoding.com/sketch/ns">
    <!-- Generator: Sketch 3.4.2 (15857) - http://www.bohemiancoding.com/sketch -->
    <title>windmill-l</title>
    <desc>Created with Sketch.</desc>
    <defs>
        <path id="path-1" d="M26,13.5 C26,20.403 20.403,26 13.5,26 C6.597,26 1,20.403 1,13.5 C1,6.597 6.597,1 13.5,1 C20.403,1 26,6.597 26,13.5 L26,13.5 Z"></path>
    </defs>
    <g id="POI" stroke="none" stroke-width="1" fill="none" fill-rule="evenodd" sketch:type="MSPage">
        <g id="windmill-l" sketch:type="MSLayerGroup">
            <path d="M13.5,27 C6.057,27 0,20.943 0,13.5 C0,6.057 6.057,0 13.5,0 C20.943,0 27,6.057 27,13.5 C27,20.943 20.943,27 13.5,27 L13.5,27 Z" id="Shape" opacity="0" fill="#FFFFFF" sketch:type="MSShapeGroup"></path>
            <g id="Shape">
                <use fill="#33332E" fill-rule="evenodd" sketch:type="MSShapeGroup" xlink:href="#path-1"></use>
                <use fill="none" xlink:href="#path-1"></use>
            </g>
            <path d="M13.9857586,14.8051956 L10.7637586,19.3911956 L10.4847586,22.9851956 L17.4847586,22.9851956 L17.2137586,19.2301956 L13.9857586,14.8051956 L13.9857586,14.8051956 Z M20.6057586,14.9841956 L15.2057586,10.9851956 L20.6047586,6.98419562 C21.0487586,6.65519562 21.0917586,6.07219562 20.7017586,5.68119562 L19.2887586,4.26719562 C18.8977586,3.87619562 18.3157586,3.91919562 17.9867586,4.36419562 L13.9867586,9.76619562 L9.98375862,4.36519562 C9.65475862,3.92019562 9.07175862,3.87819562 8.68175862,4.26719562 L7.26675862,5.68019562 C6.87575862,6.07219562 6.91975862,6.65419562 7.36475862,6.98219562 L12.7677586,10.9831956 L7.36575862,14.9861956 C6.92175862,15.3141956 6.87975862,15.8981956 7.26975862,16.2881956 L8.68175862,17.7021956 C9.07275862,18.0941956 9.65475862,18.0501956 9.98475862,17.6061956 L13.9857586,12.2041956 L17.9857586,17.6031956 C18.3147586,18.0481956 18.8977586,18.0901956 19.2887586,17.7001956 L20.7027586,16.2881956 C21.0927586,15.8971956 21.0487586,15.3141956 20.6057586,14.9841956 L20.6057586,14.9841956 Z" id="Shape" opacity="0.7" fill="#FFFFFF" sketch:type="MSShapeGroup"></path>
        </g>
    </g>
</svg>