<?xml version="1.0" encoding="UTF-8" standalone="no"?>
<svg width="17px" height="17px" viewBox="0 0 17 17" version="1.1" xmlns="http://www.w3.org/2000/svg" xmlns:xlink="http://www.w3.org/1999/xlink" xmlns:sketch="http://www.bohemiancoding.com/sketch/ns">
    <!-- Generator: Sketch 3.4.2 (15857) - http://www.bohemiancoding.com/sketch -->
    <title>zoo-s</title>
    <desc>Created with Sketch.</desc>
    <defs></defs>
    <g id="POI" stroke="none" stroke-width="1" fill="none" fill-rule="evenodd" sketch:type="MSPage">
        <g id="zoo-s-copy" sketch:type="MSLayerGroup">
            <circle id="Oval-1-Copy-43" opacity="0" fill="#FFFFFF" sketch:type="MSShapeGroup" cx="8.5" cy="8.5" r="8.5"></circle>
            <circle id="Oval-1-Copy-42" fill="#59310E" sketch:type="MSShapeGroup" cx="8.5" cy="8.5" r="7.5"></circle>
            <path d="M10.5,4 C9.5,5.5 9.60789,7.0026 8.5,8 C7.44168,8.9528 5,8.6257 5,10 L5,10.5 C5,11 5.5,11.4758 5.5,12 L5.5,12.5 C5.5,13.25 5.25,13.25 5,14 L5.5,14 L6.5,12.5 L6.5,14 L7,14 L7,11 L8,11 L8,14 L8.5,14 L8.5,11.5 L9.5,11.5 L10,14 L10.5,14 L10,10 L10,8.5 L11,5 L12,5 L12,4 L10.5,4 Z" id="path10518" opacity="0.7" fill="#FFFFFF" sketch:type="MSShapeGroup"></path>
        </g>
    </g>
</svg>