<?xml version="1.0" encoding="UTF-8" standalone="no"?>
<svg width="27px" height="27px" viewBox="0 0 27 27" version="1.1" xmlns="http://www.w3.org/2000/svg" xmlns:xlink="http://www.w3.org/1999/xlink" xmlns:sketch="http://www.bohemiancoding.com/sketch/ns">
    <!-- Generator: Sketch 3.4.2 (15857) - http://www.bohemiancoding.com/sketch -->
    <title>zoo-l</title>
    <desc>Created with Sketch.</desc>
    <defs></defs>
    <g id="POI" stroke="none" stroke-width="1" fill="none" fill-rule="evenodd" sketch:type="MSPage">
        <g id="zoo-l-copy" sketch:type="MSLayerGroup">
            <circle id="Oval-1-Copy-39" opacity="0" fill="#FFFFFF" sketch:type="MSShapeGroup" cx="13.5" cy="13.5" r="13.5"></circle>
            <circle id="Oval-1-Copy-38" fill="#2E1B10" sketch:type="MSShapeGroup" cx="13.5" cy="13.5" r="12.5"></circle>
            <path d="M19,4 C17,7 15.215787,9.0052 13,11 C10.883373,12.9055 7,12.2513 7,15 L7,16 C7,17 8,17.9515 8,19 L8,20 C8,21.5 7.5,21.5 7,23 L8,23 L10,20 L10,23 L11,23 L11,21.5 L11,17 L13,17 L13,23 L14,23 L14,20 L14,18.5 L15,20 L16,23 L17,23 L15.46875,16.71875 C16.058246,16.359058 16,15.694118 16,15 L16,12 L20,6.5 L21.4375,6.9453125 C21.737214,7.0381587 22,7 22,6.75 C22,6.25 21.673378,6.1387024 21.5,6 L19,4 Z" id="path10847-43-3-9" opacity="0.7" fill="#FFFFFF" sketch:type="MSShapeGroup"></path>
        </g>
    </g>
</svg>