<svg width="28" height="28" viewBox="0 0 28 28">
  <g fill="none" fill-rule="evenodd">
    <circle cx="14" cy="14" r="14" fill="#FFF" opacity=".4"/>
    <circle cx="14" cy="14" r="13" fill="#4C351E"/>
    <path fill="#FFF" d="M18.2,5 C16.3333333,7.84210526 14.6680679,9.74176842 12.6,11.6315789 C10.6244815,13.4367895 7,12.8170211 7,15.4210526 L7,16.3684211 C7,17.3157895 7.93333333,18.2172105 7.93333333,19.2105263 L7.93333333,20.1578947 C7.93333333,21.5789474 7.46666667,21.5789474 7,23 L7.93333333,23 L9.8,20.1578947 L9.8,23 L10.7333333,23 L10.7333333,21.5789474 L10.7333333,17.3157895 L12.6,17.3157895 L12.6,23 L13.5333333,23 L13.5333333,20.1578947 L13.5333333,18.7368421 L14.4666667,20.1578947 L15.4,23 L16.3333333,23 L14.9041667,17.0493421 C15.4543629,16.7085813 15.4,16.0786381 15.4,15.4210526 L15.4,12.5789474 L19.1333333,7.36842105 L20.475,7.79029605 C20.7547331,7.87825561 21,7.84210526 21,7.60526316 C21,7.13157895 20.6951528,7.02613912 20.5333333,6.89473684 L18.2,5 Z" opacity=".6"/>
  </g>
</svg>
