<?xml version="1.0" encoding="UTF-8"?>
<svg width="19" height="19" version="1.1" viewBox="0 0 19 19" xml:space="preserve" xmlns="http://www.w3.org/2000/svg">
 <path d="m2.75 5.8654 6.75-3.1153 6.75 3.1153v1.0385h-1.0385v7.7885h1.0385v1.5576h-13.5v-1.5576h1.0385v-7.7885h-1.0385zm9.3462 5.5398c0-1.1478-1.1676-2.0778-2.5985-2.0778-0.47538 0-0.86769-0.31002-0.86769-0.69384s0.38769-0.69384 0.86769-0.69384c0.48 0 0.86769 0.31371 0.86769 0.69384h1.7308c0-0.90051-0.72462-1.6608-1.7308-1.9488v-0.81933h-1.7309v0.81933c-1.0062 0.28788-1.7309 1.0482-1.7309 1.9488 0 1.1478 1.1676 2.0778 2.5985 2.0778 0.48 0 0.86769 0.31002 0.86769 0.69384s-0.38769 0.69384-0.86769 0.69384c-0.48 0-0.86769-0.31371-0.86769-0.69384h-1.7309c0 0.90051 0.72462 1.6608 1.7309 1.9488v0.81933h1.7309v-0.81933c1.0062-0.28788 1.7308-1.0482 1.7308-1.9488z" fill="#fff"/>
</svg>
