<svg width="21" height="24" viewBox="0 0 21 24" fill="none" xmlns="http://www.w3.org/2000/svg">
<path d="M6.09199 20H8.33174C9.24744 20 9.70528 19.538 9.70528 18.6141V5.37354C9.70528 4.45785 9.24744 4 8.33174 4H6.09199C5.16803 4 4.70605 4.45785 4.70605 5.37354V18.6141C4.70605 19.538 5.16803 20 6.09199 20ZM13.3309 20H15.5707C16.4864 20 16.9442 19.538 16.9442 18.6141V5.37354C16.9442 4.45785 16.4864 4 15.5707 4H13.3309C12.407 4 11.945 4.45785 11.945 5.37354V18.6141C11.945 19.538 12.407 20 13.3309 20Z" fill="black"/>
</svg>
