<svg width="32" height="32" viewBox="0 0 32 32">
  <g fill="none" fill-rule="evenodd">
    <circle cx="16" cy="16" r="16" fill="#6E5626"/>
    <circle cx="16" cy="16" r="15" fill="#FFF" opacity=".4"/>
    <path fill="#6E5626" fill-rule="nonzero" d="M15.2,7 C15.2,8.02222224 15.025,8.025 14.625,8.425 C14.225,8.825 13.6,9.62222224 13.6,11 L15.2,11 C15.2,9.97777776 15.375,9.975 15.775,9.575 C16.175,9.175 16.8,8.37777776 16.8,7 L15.2,7 Z M18.15,7.8 C18.15,9.72 16.8,9.72 16.8,11 L18.4,11 C18.4,9.8 19.75,9.96 19.75,7.8 L18.15,7.8 Z M10.4,11.8 L10.4,16.6 C10.4,18.36 11.84,19.8 13.6,19.8 L18.4,19.8 C19.92064,19.8 21.1794864,18.7275392 21.5,17.3 C22.9310056,16.9809536 24,15.7274168 24,14.2 L24,13.4 C24,12.9822222 23.8516248,12.5516244 23.55,12.25 C23.2483752,11.9483756 22.8177776,11.8 22.4,11.8 L21.6,11.8 L16,11.8 L10.4,11.8 Z M21.6,13.4 L22.4,13.4 L22.4,14.2 C22.4,14.8480864 22.0919456,15.3422088 21.6,15.6 L21.6,13.4 Z M8,20.6 C8,21.96 9.04,23 10.4,23 L21.6,23 C22.96,23 24,21.96 24,20.6 L8,20.6 Z"/>
  </g>
</svg>
