<svg width="32" height="32" viewBox="0 0 32 32">
  <g fill="none" fill-rule="evenodd">
    <circle cx="16" cy="16" r="16" fill="#4C351E"/>
    <circle cx="16" cy="16" r="15" fill="#FFF" opacity=".4"/>
    <path fill="#4C351E" d="M17.6,11.2116354 L17.6,12.4706851 C21.2515845,12.6640475 24,13.5062289 24,14.5158672 C24,14.5236065 23.9998385,14.5313359 23.9995164,14.5390553 L24,19.814346 C23.9583175,20.8379719 21.223929,23.2666704 17.6,23.8571427 L17.6,21.3639627 C17.6,21.0970357 17.3761424,20.8694042 17.1,20.8694042 L14.9,20.8694042 C14.6301361,20.8694042 14.4,21.0908256 14.4,21.3639627 L14.4,23.8571427 C10.776071,23.2666704 8.04168248,20.8379719 8.00047214,19.814346 L8,14.5390553 C8.00016149,14.5313359 8,14.5236065 8,14.5158672 C8,13.5062289 10.7484155,12.6640475 14.4,12.4706851 L14.4,11.2134226 C13.7728312,11.2873581 13.3333333,11.3738808 13.3333333,11.3738808 L13.3333333,9.26376454 C13.3333333,9.26376454 14.6666667,9 16,9 C17.3333333,9 18.6666667,9.26376454 18.6666667,9.26376454 L18.6666667,11.3738808 C18.6666667,11.3738808 18.2282947,11.2859562 17.6,11.2116354 Z M16.5333333,11.1224545 C16.3620126,11.1146216 16.1873975,11.1101163 16.0123698,11.1101163 C15.8293391,11.1101163 15.6462975,11.115043 15.4666667,11.1235497 L15.4666667,12.433503 C15.6429459,12.4304763 15.8207848,12.428939 16,12.428939 C16.1792152,12.428939 16.3570541,12.4304763 16.5333333,12.433503 L16.5333333,11.1224545 Z M16,17.1767006 C19.8291743,17.1767006 22.9333333,16.3500608 22.9333333,15.3303489 C22.9333333,14.310637 19.8291743,13.4839971 16,13.4839971 C12.1708257,13.4839971 9.06666667,14.310637 9.06666667,15.3303489 C9.06666667,16.3500608 12.1708257,17.1767006 16,17.1767006 Z M13.3333333,15.0665844 L18.6666667,15.0665844 L20.0429036,16.3137991 C20.0429036,16.3137991 17.9779666,16.5959164 16,16.5959164 C14.0220334,16.5959164 12.0496094,16.3137991 12.0496094,16.3137991 L13.3333333,15.0665844 Z"/>
  </g>
</svg>
