<svg width="40" height="40" viewBox="0 0 40 40">
  <g fill="none" fill-rule="evenodd">
    <path fill="#FFF" d="M22.2795551,37.5731166 C21.5728764,37.256593 20.4262588,37.2569804 19.7204449,37.5731166 L17.1031742,38.7453999 C16.3964954,39.0619235 15.4552348,38.8090943 15.0020501,38.1824054 L13.321569,35.858543 C12.867829,35.2310861 11.8746353,34.6581128 11.1053144,34.5789878 L8.25254993,34.2855797 C7.48228637,34.2063577 6.79354533,33.5167709 6.71442033,32.7474501 L6.42101219,29.8946856 C6.34179022,29.124422 5.76814595,28.1316157 5.14145704,27.678431 L2.81759457,25.9979499 C2.19013774,25.5442099 1.93846389,24.6026397 2.25460006,23.8968258 L3.42688342,21.2795551 C3.74340697,20.5728764 3.74301958,19.4262588 3.42688342,18.7204449 L2.25460006,16.1031742 C1.93807651,15.3964954 2.19090566,14.4552348 2.81759457,14.0020501 L5.14145704,12.321569 C5.76891387,11.867829 6.34188718,10.8746353 6.42101219,10.1053144 L6.71442033,7.25254993 C6.79364229,6.48228637 7.48322906,5.79354533 8.25254993,5.71442033 L11.1053144,5.42101219 C11.875578,5.34179022 12.8683843,4.76814595 13.321569,4.14145704 L15.0020501,1.81759457 C15.4557901,1.19013774 16.3973603,0.938463891 17.1031742,1.25460006 L19.7204449,2.42688342 C20.4271236,2.74340697 21.5737412,2.74301958 22.2795551,2.42688342 L24.8968258,1.25460006 C25.6035046,0.938076509 26.5447652,1.19090566 26.9979499,1.81759457 L28.678431,4.14145704 C29.132171,4.76891387 30.1253647,5.34188718 30.8946856,5.42101219 L33.7474501,5.71442033 C34.5177136,5.79364229 35.2064547,6.48322906 35.2855797,7.25254993 L35.5789878,10.1053144 C35.6582098,10.875578 36.231854,11.8683843 36.858543,12.321569 L39.1824054,14.0020501 C39.8098623,14.4557901 40.0615361,15.3973603 39.7453999,16.1031742 L38.5731166,18.7204449 C38.256593,19.4271236 38.2569804,20.5737412 38.5731166,21.2795551 L39.7453999,23.8968258 C40.0619235,24.6035046 39.8090943,25.5447652 39.1824054,25.9979499 L36.858543,27.678431 C36.2310861,28.132171 35.6581128,29.1253647 35.5789878,29.8946856 L35.2855797,32.7474501 C35.2063577,33.5177136 34.5167709,34.2064547 33.7474501,34.2855797 L30.8946856,34.5789878 C30.124422,34.6582098 29.1316157,35.231854 28.678431,35.858543 L26.9979499,38.1824054 C26.5442099,38.8098623 25.6026397,39.0615361 24.8968258,38.7453999 L22.2795551,37.5731166 Z" opacity=".4"/>
    <path fill="#4C351E" d="M22.2791942,36.7229549 C21.5727148,36.4065207 20.4358931,36.4026652 19.7208058,36.7229549 L17.3616324,37.7796358 C16.6551529,38.09607 15.7202398,37.8517228 15.2611009,37.2168 L13.7463372,35.1221009 C13.2927252,34.4948211 12.3101365,33.9230713 11.5307078,33.8429067 L8.95926334,33.5784324 C8.18921703,33.4992328 7.50173217,32.8201654 7.42156757,32.0407367 L7.15709332,29.4692922 C7.0778937,28.6992459 6.51282185,27.7128017 5.87789908,27.2536628 L3.78319995,25.7388991 C3.1559201,25.2852871 2.90007446,24.353455 3.22036424,23.6383676 L4.27704506,21.2791942 C4.59347934,20.5727148 4.59733484,19.4358931 4.27704506,18.7208058 L3.22036424,16.3616324 C2.90392996,15.6551529 3.14827718,14.7202398 3.78319995,14.2611009 L5.87789908,12.7463372 C6.50517893,12.2927252 7.07692872,11.3101365 7.15709332,10.5307078 L7.42156757,7.95926334 C7.50076718,7.18921703 8.17983462,6.50173217 8.95926334,6.42156757 L11.5307078,6.15709332 C12.3007541,6.0778937 13.2871983,5.51282185 13.7463372,4.87789908 L15.2611009,2.78319995 C15.7147129,2.1559201 16.646545,1.90007446 17.3616324,2.22036424 L19.7208058,3.27704506 C20.4272852,3.59347934 21.5641069,3.59733484 22.2791942,3.27704506 L24.6383676,2.22036424 C25.3448471,1.90392996 26.2797602,2.14827718 26.7388991,2.78319995 L28.2536628,4.87789908 C28.7072748,5.50517893 29.6898635,6.07692872 30.4692922,6.15709332 L33.0407367,6.42156757 C33.810783,6.50076718 34.4982678,7.17983462 34.5784324,7.95926334 L34.8429067,10.5307078 C34.9221063,11.3007541 35.4871782,12.2871983 36.1221009,12.7463372 L38.2168,14.2611009 C38.8440799,14.7147129 39.0999255,15.646545 38.7796358,16.3616324 L37.7229549,18.7208058 C37.4065207,19.4272852 37.4026652,20.5641069 37.7229549,21.2791942 L38.7796358,23.6383676 C39.09607,24.3448471 38.8517228,25.2797602 38.2168,25.7388991 L36.1221009,27.2536628 C35.4948211,27.7072748 34.9230713,28.6898635 34.8429067,29.4692922 L34.5784324,32.0407367 C34.4992328,32.810783 33.8201654,33.4982678 33.0407367,33.5784324 L30.4692922,33.8429067 C29.6992459,33.9221063 28.7128017,34.4871782 28.2536628,35.1221009 L26.7388991,37.2168 C26.2852871,37.8440799 25.353455,38.0999255 24.6383676,37.7796358 L22.2791942,36.7229549 Z"/>
    <polygon fill="#FFF" points="21 34.45 16.6 36.421 13.775 32.514 8.979 32.021 8.486 27.225 4.579 24.4 6.55 20 4.579 15.6 8.486 12.775 8.979 7.979 13.775 7.486 16.6 3.579 21 5.55 25.4 3.579 28.225 7.486 33.021 7.979 33.514 12.775 37.421 15.6 35.45 20 37.421 24.4 33.514 27.225 33.021 32.021 28.225 32.514 25.4 36.421" opacity=".4"/>
    <path fill="#4C351E" d="M23,13.0145442 L23,14.5883564 C27.5644806,14.8300594 31,15.8827861 31,17.144834 C31,17.1545081 30.9997981,17.1641699 30.9993954,17.1738191 L31,23.7679325 C30.9478969,25.0474649 27.5299112,28.0833379 23,28.8214284 L23,25.5878446 C23,25.3108082 22.7804053,25.0867552 22.5095215,25.0867552 L19.4904785,25.0867552 C19.2150574,25.0867552 19,25.3111006 19,25.5878446 L19,28.8214284 C14.4700888,28.0833379 11.0521031,25.0474649 11.0005902,23.7679325 L11,17.1738191 C11.0002019,17.1641699 11,17.1545081 11,17.144834 C11,15.8827861 14.4355194,14.8300594 19,14.5883564 L19,13.0167782 C18.216039,13.1091976 17.6666667,13.217351 17.6666667,13.217351 L17.6666667,10.5797057 C17.6666667,10.5797057 19.3333333,10.25 21,10.25 C22.6666667,10.25 24.3333333,10.5797057 24.3333333,10.5797057 L24.3333333,13.217351 C24.3333333,13.217351 23.7853684,13.1074453 23,13.0145442 Z M21.6666667,12.9030681 C21.4525158,12.893277 21.2342469,12.8876454 21.0154622,12.8876454 C20.7866738,12.8876454 20.5578718,12.8938037 20.3333333,12.9044372 L20.3333333,14.5418788 C20.5536824,14.5380953 20.775981,14.5361737 21,14.5361737 C21.224019,14.5361737 21.4463176,14.5380953 21.6666667,14.5418788 L21.6666667,12.9030681 Z M21,20.4708758 C25.7864678,20.4708758 29.6666667,19.437576 29.6666667,18.1629361 C29.6666667,16.8882962 25.7864678,15.8549964 21,15.8549964 C16.2135322,15.8549964 12.3333333,16.8882962 12.3333333,18.1629361 C12.3333333,19.437576 16.2135322,20.4708758 21,20.4708758 Z M17.6666667,17.8332304 L24.3333333,17.8332304 L26.0536296,19.3922489 C26.0536296,19.3922489 23.4724582,19.7448955 21,19.7448955 C18.5275418,19.7448955 16.0620117,19.3922489 16.0620117,19.3922489 L17.6666667,17.8332304 Z"/>
  </g>
</svg>
