<svg width="32" height="32" viewBox="0 0 32 32">
  <g fill="none" fill-rule="evenodd">
    <circle cx="16" cy="16" r="16" fill="#4E3551"/>
    <circle cx="16" cy="16" r="15" fill="#FFF" opacity=".4"/>
    <path fill="#4E3551" d="M16.6363636,10.4444444 L16.6363636,24.8888889 C16.6363636,25.5022222 17.2065455,26 17.9090909,26 L21.7272727,26 C22.4310909,26 23,25.5022222 23,24.8888889 L23,10.4444444 L16.6363636,10.4444444 L16.6363636,10.4444444 Z M12.8181818,11.5555556 L14.0909091,11.5555556 L14.0909091,10.4444444 L12.8181818,10.4444444 L12.8181818,9.33333333 L14.0909091,9.33333333 L14.0909091,8.22222222 L12.8181818,8.22222222 L12.8181818,7.11111111 L14.0909091,7.11111111 L14.0909091,6 L10.2727273,6 L10.2727273,7.11111111 L11.5454545,7.11111111 L11.5454545,8.22222222 L10.2727273,8.22222222 L10.2727273,9.33333333 L11.5454545,9.33333333 L11.5454545,10.4444444 L10.2727273,10.4444444 L10.2727273,11.5555556 L11.5454545,11.5555556 L11.5454545,18.2222222 L9,18.2222222 L9,24.8888889 C9,25.5022222 9.56890909,26 10.2727273,26 L14.0909091,26 C14.7934545,26 15.3636364,25.5022222 15.3636364,24.8888889 L15.3636364,18.2222222 L12.8181818,18.2222222 L12.8181818,11.5555556 L12.8181818,11.5555556 Z"/>
  </g>
</svg>
