<svg width="32" height="32" viewBox="0 0 32 32">
  <g fill="none" fill-rule="evenodd">
    <circle cx="16" cy="16" r="16" fill="#4E3551"/>
    <circle cx="16" cy="16" r="15" fill="#FFF" opacity=".4"/>
    <path fill="#4E3551" d="M22.9333333,12.2785347 L17.6,12.2785347 L17.6,15.8523565 L24,15.8523565 L24,13.1719902 C24,12.6779093 23.5232,12.2785347 22.9333333,12.2785347 L22.9333333,12.2785347 Z M8,22.1065446 C8,22.6006254 8.4768,23 9.06666667,23 L14.4,23 L14.4,17.6392674 L8,17.6392674 L8,22.1065446 L8,22.1065446 Z M8,13.1719902 L8,15.8523565 L14.4,15.8523565 L14.4,12.2785347 L9.06666667,12.2785347 C8.4768,12.2785347 8,12.6779093 8,13.1719902 L8,13.1719902 Z M17.6,23 L22.9333333,23 C23.5232,23 24,22.6006254 24,22.1065446 L24,17.6392674 L17.6,17.6392674 L17.6,23 L17.6,23 Z M12.7978667,11.3832924 L19.2021333,11.3832924 C20.6464,11.3832924 21.8186667,10.4004914 21.8186667,9.19164619 C21.8186667,7.98280098 20.6453333,7 19.2021333,7 C18.5034667,7 17.8464,7.22872459 17.3536,7.64150101 L16,8.76457449 L14.6474667,7.64328792 C14.1546667,7.22872459 13.4976,7 12.7978667,7 C11.3536,7 10.1813333,7.98280098 10.1813333,9.19164619 C10.1813333,10.4004914 11.3546667,11.3832924 12.7978667,11.3832924 L12.7978667,11.3832924 Z M12.736,7.72012508 C13.1925333,7.72012508 13.6202667,7.86843869 13.9424,8.13915568 L16,9.84654903 L18.0554667,8.14004914 C18.3786667,7.86933214 18.8085333,7.72012508 19.264,7.72012508 C20.2048,7.72012508 20.9706667,8.36162609 20.9706667,9.14965379 C20.9706667,9.93768148 20.2048,10.5791825 19.264,10.5791825 L12.7370667,10.5791825 C11.7962667,10.5791825 11.0304,9.93768148 11.0304,9.14965379 C11.0304,8.36162609 11.7962667,7.72012508 12.736,7.72012508 L12.736,7.72012508 Z"/>
  </g>
</svg>
