<svg width="32" height="32" viewBox="0 0 32 32">
  <g fill="none" fill-rule="evenodd">
    <circle cx="16" cy="16" r="16" fill="#4E3551"/>
    <circle cx="16" cy="16" r="15" fill="#FFF" opacity=".4"/>
    <path fill="#4E3551" d="M8,8 L8,13.6470588 C8,15.2037647 9.26674901,16.4705882 10.8233633,16.4705882 L11.7644844,16.4705882 C11.7644844,17.5096471 12.5569084,18.6409412 13.5337921,18.9967059 L15.0028822,19.7355294 L14.5878478,22.3058824 L11.7644844,23.0588235 L11.7644844,24 L20.2345744,24 L20.2345744,23.0588235 L17.4112111,22.3058824 L16.9971178,19.7336471 L18.4662079,18.9967059 C19.4430916,18.6409412 20.2355156,17.5105882 20.2355156,16.4705882 L21.1766367,16.4705882 C22.733251,16.4705882 24,15.2037647 24,13.6470588 L24,8 L8,8 L8,8 Z M10.8233633,14.5882353 C10.3038645,14.5882353 9.88224222,14.1665882 9.88224222,13.6470588 L9.88224222,9.88235294 L11.7644844,9.88235294 L11.7644844,14.5882353 L10.8233633,14.5882353 L10.8233633,14.5882353 Z M22.1168167,13.6470588 C22.1168167,14.1665882 21.6951944,14.5882353 21.1756955,14.5882353 L20.2345744,14.5882353 L20.2345744,9.88235294 L22.1168167,9.88235294 L22.1168167,13.6470588 L22.1168167,13.6470588 Z"/>
  </g>
</svg>
