<svg width="32" height="32" viewBox="0 0 32 32">
  <g fill="none" fill-rule="evenodd">
    <circle cx="16" cy="16" r="16" fill="#4E3551"/>
    <circle cx="16" cy="16" r="15" fill="#FFF" opacity=".4"/>
    <path fill="#4E3551" d="M18.0252632,9.07747342 C17.7789474,8.90611203 17.5789474,9.02817768 17.5789474,9.35329485 L17.5789474,10.1748906 C17.5789474,10.498834 17.7810526,10.8967211 18.0305263,11.0633877 L22.8421053,14.6349817 L9.15789474,14.6349817 L13.9694737,10.9460169 C14.2178947,10.7793503 14.4210526,10.498834 14.4210526,10.1748906 L14.4210526,9.35329485 C14.4210526,9.02935139 14.2221053,8.90611203 13.9747368,9.07747342 L6,14.6349817 L6,20.5035227 C6,21.7992965 8.06315789,23 10.2094737,23 C12.2610526,23 14.3894737,21.9025828 14.86,18.7429604 C14.9642105,18.0457777 15.0505263,17.4683133 15.1221053,16.9823981 L16.8778947,16.9823981 C16.9494737,17.4683133 17.0357895,18.0457777 17.14,18.7429604 C17.6105263,21.9025828 19.7389474,23 21.7905263,23 C23.9368421,23 26,21.8004702 26,20.5035227 L26,14.6349817 L18.0252632,9.07747342 L18.0252632,9.07747342 Z M12.7831579,18.3579841 C12.6978947,18.9248852 12.4410526,20.6525836 10.2094737,20.6525836 C9.22210526,20.6525836 8.44210526,20.2957763 8.10526316,20.0481239 L8.10526316,16.9823981 L12.9884211,16.9823981 C12.9284211,17.3826326 12.8610526,17.8380314 12.7831579,18.3579841 L12.7831579,18.3579841 Z M23.8947368,20.0481239 C23.5578947,20.2946026 22.7768421,20.6525836 21.7905263,20.6525836 C19.5589474,20.6525836 19.3021053,18.9260589 19.2168421,18.3579841 C19.14,17.8380314 19.0715789,17.3814589 19.0126316,16.9823981 L23.8947368,16.9823981 L23.8947368,20.0481239 L23.8947368,20.0481239 Z"/>
  </g>
</svg>
