<svg width="32" height="32" viewBox="0 0 32 32">
  <g fill="none" fill-rule="evenodd">
    <circle cx="16" cy="16" r="16" fill="#4E3551"/>
    <circle cx="16" cy="16" r="15" fill="#FFF" opacity=".4"/>
    <path fill="#4E3551" d="M22.9653333,8.02997932 L16.5333333,9.81073241 L16.5333333,20.9594427 L22.9653333,19.1786896 C23.536,19.042878 24,18.4793614 24,17.9188853 L24,8.79721329 C24,8.23775074 23.536,7.89315424 22.9653333,8.02997932 L22.9653333,8.02997932 Z M9.03466667,19.1786896 L15.4666667,20.9594427 L15.4666667,9.81073241 L9.03466667,8.02997932 C8.464,7.89416776 8,8.23775074 8,8.79721329 L8,17.9188853 C8,18.4783479 8.464,19.0418645 9.03466667,19.1786896 L9.03466667,19.1786896 Z M8,24 L24,24 L24,21.9729618 L8,21.9729618 L8,24 L8,24 Z"/>
  </g>
</svg>
