<svg width="32" height="32" viewBox="0 0 32 32">
  <g fill="none" fill-rule="evenodd">
    <circle cx="16" cy="16" r="16" fill="#4E3551"/>
    <circle cx="16" cy="16" r="15" fill="#FFF" opacity=".4"/>
    <path fill="#4E3551" d="M20.9090909,6 C20.3058182,6 19.8181818,6.47157895 19.8181818,7.05263158 L19.8181818,8.10526316 L12.1818182,8.10526316 C10.9774545,8.10526316 10,9.04842105 10,10.2105263 L10,23.8947368 C10,25.0568421 10.9774545,26 12.1818182,26 L19.8181818,26 C21.0225455,26 22,25.0568421 22,23.8947368 L22,7.05263158 C22,6.47157895 21.5123636,6 20.9090909,6 L20.9090909,6 Z M15.4545455,23.8947368 L13.2727273,23.8947368 C12.6694545,23.8947368 12.1818182,23.4231579 12.1818182,22.8421053 L12.1818182,21.7894737 L15.4545455,21.7894737 L15.4545455,23.8947368 L15.4545455,23.8947368 Z M15.4545455,20.7368421 L12.1818182,20.7368421 L12.1818182,19.6842105 C12.1818182,19.1031579 12.6694545,18.6315789 13.2727273,18.6315789 L15.4545455,18.6315789 L15.4545455,20.7368421 L15.4545455,20.7368421 Z M19.8181818,22.8421053 C19.8181818,23.4231579 19.3305455,23.8947368 18.7272727,23.8947368 L16.5454545,23.8947368 L16.5454545,21.7894737 L19.8181818,21.7894737 L19.8181818,22.8421053 L19.8181818,22.8421053 Z M19.8181818,20.7368421 L16.5454545,20.7368421 L16.5454545,18.6315789 L18.7272727,18.6315789 C19.3305455,18.6315789 19.8181818,19.1031579 19.8181818,19.6842105 L19.8181818,20.7368421 L19.8181818,20.7368421 Z M19.8181818,16.5263158 L12.1818182,16.5263158 L12.1818182,10.2105263 L19.8181818,10.2105263 L19.8181818,16.5263158 L19.8181818,16.5263158 Z"/>
  </g>
</svg>
