<svg width="32" height="32" viewBox="0 0 32 32">
  <g fill="none" fill-rule="evenodd">
    <circle cx="16" cy="16" r="16" fill="#4E3551"/>
    <circle cx="16" cy="16" r="15" fill="#FFF" opacity=".4"/>
    <path fill="#4E3551" d="M26,13.5482907 L21.5747794,9 L12.8054385,18.01615 L17.229705,22.5644407 C19.182794,21.8278079 21.0204341,20.6684205 22.5880576,19.0568523 C24.155681,17.4452841 25.2824998,15.5571109 26,13.5482907 L26,13.5482907 Z M20.552914,12.9421135 C20.178898,12.5585936 20.1779439,11.9377034 20.552914,11.5541835 C20.9240677,11.1696828 21.5299356,11.1716445 21.9029975,11.5541835 C22.2770136,11.9386842 22.2770136,12.5595745 21.9029975,12.9421135 C21.5318438,13.3256333 20.9250219,13.3256333 20.552914,12.9421135 L20.552914,12.9421135 Z M13.0048501,20.5879892 L11.6547666,19.2010401 L8.41933688,22.5252059 C7.86022104,23.0990144 7.86022104,24.0318211 8.41933688,24.6066105 C8.97845273,25.180419 9.81617238,25.1196051 10.2903713,24.4692888 L13.0048501,20.5879892 L13.0048501,20.5879892 Z"/>
  </g>
</svg>
