<svg width="32" height="32" viewBox="0 0 32 32">
  <g fill="none" fill-rule="evenodd">
    <circle cx="16" cy="16" r="16" fill="#4E3551"/>
    <circle cx="16" cy="16" r="15" fill="#FFF" opacity=".4"/>
    <path fill="#4E3551" d="M22.1176471,21.7777778 C22.1176471,23.0053333 21.0644706,24 19.7647059,24 C18.4649412,24 17.4117647,23.0053333 17.4117647,21.7777778 C17.4117647,20.5502222 18.4649412,19.5555556 19.7647059,19.5555556 C21.0644706,19.5555556 22.1176471,20.5502222 22.1176471,21.7777778 L22.1176471,21.7777778 Z M12.2352941,19.5555556 C10.9355294,19.5555556 9.88235294,20.5502222 9.88235294,21.7777778 C9.88235294,23.0053333 10.9355294,24 12.2352941,24 C13.5350588,24 14.5882353,23.0053333 14.5882353,21.7777778 C14.5882353,20.5502222 13.5350588,19.5555556 12.2352941,19.5555556 L12.2352941,19.5555556 Z M24,16.4444444 C24,17.1804444 23.3675294,17.7777778 22.5882353,17.7777778 L20.9712941,17.7777778 C20.5854118,17.6737778 20.1854118,17.6 19.7647059,17.6 C18.2164706,17.6 16.8037647,18.3653333 16,19.6186667 C15.1962353,18.3662222 13.7835294,17.6 12.2352941,17.6 C11.8145882,17.6 11.4145882,17.6737778 11.0287059,17.7777778 L9.41176471,17.7777778 C8.63247059,17.7777778 8,17.1804444 8,16.4444444 C8,15.7084444 8.63247059,15.1111111 9.41176471,15.1111111 L13.3675294,15.1111111 C12.5025882,14.4577778 11.9087059,13.5004444 11.7891765,12.4026667 C10.704,12.2053333 9.88235294,11.3057778 9.88235294,10.2231111 C9.88235294,8.99555556 10.9355294,8 12.2352941,8 C12.8470588,8 13.3985882,8.22666667 13.8183529,8.58755556 C14.4574118,8.22222222 15.1990588,8 16,8 C16.8009412,8 17.5435294,8.22222222 18.1816471,8.58755556 C18.6004706,8.22666667 19.152,8 19.7647059,8 C21.0644706,8 22.1176471,8.99555556 22.1176471,10.2231111 C22.1176471,11.312 21.2865882,12.2142222 20.192,12.4044444 C20.0734118,13.5004444 19.4955294,14.4586667 18.6324706,15.1111111 L22.5882353,15.1111111 C23.3675294,15.1111111 24,15.7084444 24,16.4444444 L24,16.4444444 Z M17.6,13.3333333 C17.6,12.7351111 16.8969412,12.2666667 16,12.2666667 C15.1030588,12.2666667 14.4,12.7351111 14.4,13.3333333 C14.4,13.9315556 15.1030588,14.4 16,14.4 C16.8969412,14.4 17.6,13.9315556 17.6,13.3333333 L17.6,13.3333333 Z"/>
  </g>
</svg>
