<svg width="32" height="32" viewBox="0 0 32 32">
  <g fill="none" fill-rule="evenodd">
    <circle cx="16" cy="16" r="16" fill="#4E3551"/>
    <circle cx="16" cy="16" r="15" fill="#FFF" opacity=".4"/>
    <path fill="#4E3551" d="M25,13.888 L25,10.8181818 C25,10.3662727 24.6536154,10 24.2262444,10 L7.77375566,10 C7.34638462,10 7,10.3662727 7,10.8181818 L7,13.7857273 C7,13.9220909 7.09568778,14.0374545 7.22387331,14.0543636 C8.11523982,14.1708182 8.80542987,14.9745455 8.80542987,15.9487273 C8.80542987,16.9229091 8.11523982,17.7266364 7.22387331,17.8433636 C7.09568778,17.8602727 7,17.9753636 7,18.112 L7,21.1818182 C7,21.6337273 7.34638462,22 7.77375566,22 L24.2262444,22 C24.6536154,22 25,21.6337273 25,21.1818182 L25,18.2142727 C25,18.0779091 24.9043122,17.9625455 24.7761267,17.9456364 C23.8847601,17.8291818 23.1945701,17.0254545 23.1945701,16.0512727 C23.1945701,15.0770909 23.8847601,14.2733636 24.7761267,14.1566364 C24.9043122,14.1397273 25,14.0246364 25,13.888 Z M17.8686074,16.8141261 C17.8065821,16.8780627 17.7781051,16.9700489 17.7929288,17.0603851 L18.4010887,19.2936277 C18.4346369,19.4994622 18.2797688,19.6669348 18.1042255,19.6669348 C18.057804,19.6669348 18.0102122,19.655385 17.9637909,19.6298104 L16.122537,18.343654 C16.0843076,18.3222043 16.0421772,18.3114794 16.0000468,18.3114794 C15.9579164,18.3114794 15.915786,18.3222043 15.8775565,18.343654 L14.0363026,19.6298104 C13.9902713,19.655385 13.9422895,19.6669348 13.895868,19.6669348 C13.7203247,19.6669348 13.5654566,19.4994622 13.5990048,19.2936277 L14.2071647,17.0603851 C14.2219884,16.9700489 14.1935114,16.8780627 14.1314861,16.8141261 L12.3854157,15.3444099 C12.2067516,15.1600251 12.3050558,14.8386922 12.5523768,14.8007428 L14.7692934,14.7376312 C14.8551145,14.7244314 14.9292329,14.6675072 14.9674621,14.5854209 L15.7297101,12.3596031 C15.7851039,12.2412173 15.8923802,12.1818182 16.0000468,12.1818182 C16.1077133,12.1818182 16.2149897,12.2412173 16.2703834,12.3596031 L17.0326314,14.5854209 C17.0708607,14.6675072 17.144979,14.7244314 17.2308001,14.7376312 L19.4477167,14.8007428 C19.6946476,14.8386922 19.7933419,15.1600251 19.6146779,15.3444099 L17.8686074,16.8141261 L17.8686074,16.8141261 Z"/>
  </g>
</svg>
