<svg width="32" height="32" viewBox="0 0 32 32">
  <g fill="none" fill-rule="evenodd">
    <circle cx="16" cy="16" r="16" fill="#4E3551"/>
    <circle cx="16" cy="16" r="15" fill="#FFF" opacity=".4"/>
    <path fill="#4E3551" fill-rule="nonzero" d="M17.0337049,7 C15.9353408,7 15.0449399,7.80588745 15.0449399,8.8 C15.0449399,9.79411255 15.9353408,10.6 17.0337049,10.6 C18.132069,10.6 19.02247,9.79411255 19.02247,8.8 C19.02247,7.80588745 18.132069,7 17.0337049,7 Z M12.6832814,10.684375 C11.3408651,10.8235937 10.1165316,11.635 9.66905946,12.85 L9.07864484,14.65 C8.78033009,15.46 9.36452981,16.34875 10.2594741,16.61875 C11.2538566,16.88875 12.1674455,16.45 12.4657603,15.55 L14.0505574,10.76875 C13.6030853,10.65625 13.1307536,10.6379687 12.6832814,10.684375 Z M14.9517165,10.909375 L14.3613019,12.625 L14.4234508,12.653125 L13.2426216,16.28125 C13.0437451,17.00125 13.3607045,17.715625 13.957334,18.165625 L16.8783327,20.303125 C16.9832002,20.506327 17.0337049,20.7289996 17.0337049,20.95 L17.0337049,25 L19.02247,25 L19.02247,20.95 C19.02247,20.2100002 18.7536953,19.4787331 18.2145342,18.86875 L18.1834597,18.840625 L16.2568436,16.815625 L17.2201517,13.75 C17.2528887,13.7778414 17.2809542,13.8050311 17.313375,13.834375 L18.1213108,14.565625 C18.7534418,15.1377568 19.6736105,15.3196324 20.4208204,15.184375 L22.0056175,14.903125 L22.0056175,25 L23,25 L23,11.5 L22.0056175,11.5 L22.0056175,13.046875 L20.0168525,13.4125 C19.7696798,13.4572424 19.6830363,13.4478679 19.5196612,13.3 L19.4575123,13.24375 L18.7427999,12.56875 C18.0392892,11.9320137 17.1748476,11.4970066 16.2257691,11.275 L16.1946947,11.275 L14.9517165,10.909375 Z M13.4601428,19.234375 L11.1606332,25 L13.2426216,25 L15.0449399,20.5 L13.4601428,19.234375 Z"/>
  </g>
</svg>
