<svg width="40" height="40" viewBox="0 0 40 40">
  <g fill="none" fill-rule="evenodd">
    <path fill="#FFF" d="M21.2795551,37.5731166 C20.5728764,37.256593 19.4262588,37.2569804 18.7204449,37.5731166 L16.1031742,38.7453999 C15.3964954,39.0619235 14.4552348,38.8090943 14.0020501,38.1824054 L12.321569,35.858543 C11.867829,35.2310861 10.8746353,34.6581128 10.1053144,34.5789878 L7.25254993,34.2855797 C6.48228637,34.2063577 5.79354533,33.5167709 5.71442033,32.7474501 L5.42101219,29.8946856 C5.34179022,29.124422 4.76814595,28.1316157 4.14145704,27.678431 L1.81759457,25.9979499 C1.19013774,25.5442099 0.938463891,24.6026397 1.25460006,23.8968258 L2.42688342,21.2795551 C2.74340697,20.5728764 2.74301958,19.4262588 2.42688342,18.7204449 L1.25460006,16.1031742 C0.938076509,15.3964954 1.19090566,14.4552348 1.81759457,14.0020501 L4.14145704,12.321569 C4.76891387,11.867829 5.34188718,10.8746353 5.42101219,10.1053144 L5.71442033,7.25254993 C5.79364229,6.48228637 6.48322906,5.79354533 7.25254993,5.71442033 L10.1053144,5.42101219 C10.875578,5.34179022 11.8683843,4.76814595 12.321569,4.14145704 L14.0020501,1.81759457 C14.4557901,1.19013774 15.3973603,0.938463891 16.1031742,1.25460006 L18.7204449,2.42688342 C19.4271236,2.74340697 20.5737412,2.74301958 21.2795551,2.42688342 L23.8968258,1.25460006 C24.6035046,0.938076509 25.5447652,1.19090566 25.9979499,1.81759457 L27.678431,4.14145704 C28.132171,4.76891387 29.1253647,5.34188718 29.8946856,5.42101219 L32.7474501,5.71442033 C33.5177136,5.79364229 34.2064547,6.48322906 34.2855797,7.25254993 L34.5789878,10.1053144 C34.6582098,10.875578 35.231854,11.8683843 35.858543,12.321569 L38.1824054,14.0020501 C38.8098623,14.4557901 39.0615361,15.3973603 38.7453999,16.1031742 L37.5731166,18.7204449 C37.256593,19.4271236 37.2569804,20.5737412 37.5731166,21.2795551 L38.7453999,23.8968258 C39.0619235,24.6035046 38.8090943,25.5447652 38.1824054,25.9979499 L35.858543,27.678431 C35.2310861,28.132171 34.6581128,29.1253647 34.5789878,29.8946856 L34.2855797,32.7474501 C34.2063577,33.5177136 33.5167709,34.2064547 32.7474501,34.2855797 L29.8946856,34.5789878 C29.124422,34.6582098 28.1316157,35.231854 27.678431,35.858543 L25.9979499,38.1824054 C25.5442099,38.8098623 24.6026397,39.0615361 23.8968258,38.7453999 L21.2795551,37.5731166 Z" opacity=".4"/>
    <path fill="#4E3551" d="M21.2791942,36.7229549 C20.5727148,36.4065207 19.4358931,36.4026652 18.7208058,36.7229549 L16.3616324,37.7796358 C15.6551529,38.09607 14.7202398,37.8517228 14.2611009,37.2168 L12.7463372,35.1221009 C12.2927252,34.4948211 11.3101365,33.9230713 10.5307078,33.8429067 L7.95926334,33.5784324 C7.18921703,33.4992328 6.50173217,32.8201654 6.42156757,32.0407367 L6.15709332,29.4692922 C6.0778937,28.6992459 5.51282185,27.7128017 4.87789908,27.2536628 L2.78319995,25.7388991 C2.1559201,25.2852871 1.90007446,24.353455 2.22036424,23.6383676 L3.27704506,21.2791942 C3.59347934,20.5727148 3.59733484,19.4358931 3.27704506,18.7208058 L2.22036424,16.3616324 C1.90392996,15.6551529 2.14827718,14.7202398 2.78319995,14.2611009 L4.87789908,12.7463372 C5.50517893,12.2927252 6.07692872,11.3101365 6.15709332,10.5307078 L6.42156757,7.95926334 C6.50076718,7.18921703 7.17983462,6.50173217 7.95926334,6.42156757 L10.5307078,6.15709332 C11.3007541,6.0778937 12.2871983,5.51282185 12.7463372,4.87789908 L14.2611009,2.78319995 C14.7147129,2.1559201 15.646545,1.90007446 16.3616324,2.22036424 L18.7208058,3.27704506 C19.4272852,3.59347934 20.5641069,3.59733484 21.2791942,3.27704506 L23.6383676,2.22036424 C24.3448471,1.90392996 25.2797602,2.14827718 25.7388991,2.78319995 L27.2536628,4.87789908 C27.7072748,5.50517893 28.6898635,6.07692872 29.4692922,6.15709332 L32.0407367,6.42156757 C32.810783,6.50076718 33.4982678,7.17983462 33.5784324,7.95926334 L33.8429067,10.5307078 C33.9221063,11.3007541 34.4871782,12.2871983 35.1221009,12.7463372 L37.2168,14.2611009 C37.8440799,14.7147129 38.0999255,15.646545 37.7796358,16.3616324 L36.7229549,18.7208058 C36.4065207,19.4272852 36.4026652,20.5641069 36.7229549,21.2791942 L37.7796358,23.6383676 C38.09607,24.3448471 37.8517228,25.2797602 37.2168,25.7388991 L35.1221009,27.2536628 C34.4948211,27.7072748 33.9230713,28.6898635 33.8429067,29.4692922 L33.5784324,32.0407367 C33.4992328,32.810783 32.8201654,33.4982678 32.0407367,33.5784324 L29.4692922,33.8429067 C28.6992459,33.9221063 27.7128017,34.4871782 27.2536628,35.1221009 L25.7388991,37.2168 C25.2852871,37.8440799 24.353455,38.0999255 23.6383676,37.7796358 L21.2791942,36.7229549 Z"/>
    <polygon fill="#FFF" points="20 34.45 15.6 36.421 12.775 32.514 7.979 32.021 7.486 27.225 3.579 24.4 5.55 20 3.579 15.6 7.486 12.775 7.979 7.979 12.775 7.486 15.6 3.579 20 5.55 24.4 3.579 27.225 7.486 32.021 7.979 32.514 12.775 36.421 15.6 34.45 20 36.421 24.4 32.514 27.225 32.021 32.021 27.225 32.514 24.4 36.421" opacity=".4"/>
    <path fill="#4E3551" fill-rule="nonzero" d="M21.2921312,8.75 C19.919176,8.75 18.8061749,9.75735931 18.8061749,11 C18.8061749,12.2426407 19.919176,13.25 21.2921312,13.25 C22.6650863,13.25 23.7780874,12.2426407 23.7780874,11 C23.7780874,9.75735931 22.6650863,8.75 21.2921312,8.75 Z M15.8541018,13.3554688 C14.1760813,13.5294922 12.6456645,14.54375 12.0863243,16.0625 L11.3483061,18.3125 C10.9754126,19.325 11.7056623,20.4359375 12.8243426,20.7734375 C14.0673207,21.1109375 15.2093069,20.5625 15.5822003,19.4375 L17.5631967,13.4609375 C17.0038566,13.3203125 16.413442,13.2974609 15.8541018,13.3554688 Z M18.6896457,13.6367188 L17.9516274,15.78125 L18.0293135,15.8164062 L16.553277,20.3515625 C16.3046814,21.2515625 16.7008807,22.1445312 17.4466675,22.7070312 L21.0979158,25.3789062 C21.2290003,25.6329087 21.2921312,25.9112495 21.2921312,26.1875 L21.2921312,31.25 L23.7780874,31.25 L23.7780874,26.1875 C23.7780874,25.2625002 23.4421192,24.3484164 22.7681677,23.5859375 L22.7293246,23.5507812 L20.3210545,21.0195312 L21.5251896,17.1875 C21.5661109,17.2223018 21.6011927,17.2562889 21.6417188,17.2929688 L22.6516385,18.2070312 C23.4418022,18.922196 24.5920131,19.1495405 25.5260255,18.9804688 L27.5070219,18.6289062 L27.5070219,31.25 L28.75,31.25 L28.75,14.375 L27.5070219,14.375 L27.5070219,16.3085938 L25.0210656,16.765625 C24.7120997,16.821553 24.6037953,16.8098349 24.3995765,16.625 L24.3218904,16.5546875 L23.4284998,15.7109375 C22.5491115,14.9150171 21.4685595,14.3712583 20.2822114,14.09375 L20.2433684,14.09375 L18.6896457,13.6367188 Z M16.8251785,24.0429688 L13.9507915,31.25 L16.553277,31.25 L18.8061749,25.625 L16.8251785,24.0429688 Z"/>
  </g>
</svg>
