<svg width="32" height="32" viewBox="0 0 32 32">
  <g fill="none" fill-rule="evenodd">
    <circle cx="16" cy="16" r="16" fill="#4E3551"/>
    <circle cx="16" cy="16" r="15" fill="#FFF" opacity=".4"/>
    <path fill="#4E3551" d="M13.3529412,9 C12.7663529,9 12.5564941,9.5045 12.2941176,10 L11.7647059,11 L8.58823529,11 C7.70835294,11 7,11.669 7,12.5 L7,21.5 C7,22.331 7.70835294,23 8.58823529,23 L23.4117647,23 C24.2916471,23 25,22.331 25,21.5 L25,12.5 C25,11.669 24.2916471,11 23.4117647,11 L20.2352941,11 L19.7058824,10 C19.4411765,9.5 19.2336471,9 18.6470588,9 L14.4117647,9 L13.3529412,9 Z M10.1764706,13 C10.7611529,13 11.2352941,13.4478 11.2352941,14 C11.2352941,14.5522 10.7611529,15 10.1764706,15 C9.59178824,15 9.11764706,14.5522 9.11764706,14 C9.11764706,13.4478 9.59178824,13 10.1764706,13 L10.1764706,13 Z M16,13 C18.3391529,13 20.2352941,14.7908 20.2352941,17 C20.2352941,19.2092 18.3391529,21 16,21 C13.6608471,21 11.7647059,19.2092 11.7647059,17 C11.7647059,14.7908 13.6608471,13 16,13 L16,13 Z M16,14.5 C14.5381176,14.5 13.3529412,15.6193333 13.3529412,17 L13.3529412,17 C13.3529412,18.3806667 14.5381176,19.5 16,19.5 L16,19.5 C17.4618824,19.5 18.6470588,18.3806667 18.6470588,17 L18.6470588,17 C18.6470588,15.6193333 17.4618824,14.5 16,14.5 L16,14.5 L16,14.5 Z"/>
  </g>
</svg>
