<svg width="32" height="32" viewBox="0 0 32 32">
  <g fill="none" fill-rule="evenodd">
    <circle cx="16" cy="16" r="16" fill="#4E3551"/>
    <circle cx="16" cy="16" r="15" fill="#FFF" opacity=".4"/>
    <path fill="#4E3551" d="M18.3684211,11.8607492 L18.3684211,11.7805183 C18.0384844,10.9233068 15.3825163,9.14517352 15.3825163,9.14517352 C14.938757,8.8309366 14.6816226,9.04460185 14.8082788,9.61467727 L15.3711447,12.1481169 C13.1746064,12.9210593 11.3814144,14.7298638 10.4776277,15.7814138 L7,12.8465363 L7,20.3086622 L10.4776277,17.3737847 C11.1101503,18.1097208 12.1783052,19.2165613 13.5154753,20.0796408 C13.0639667,20.2583295 12.8257126,20.7863339 12.9839638,21.3205465 L13.3318257,22.4948318 C13.4973748,23.0536801 13.935734,23.1644682 14.3051182,22.748822 L15.745992,21.1274915 C16.2848505,21.2839678 16.8454582,21.3746801 17.4210526,21.3746801 C21.6067897,21.3746801 25,16.5775992 25,16.5775992 C25,16.5775992 22.107032,12.4877256 18.3684211,11.8607492 L18.3684211,11.8607492 Z M20.2631579,17.1106082 C20.786375,17.1106082 21.2105263,16.6333357 21.2105263,16.0445902 C21.2105263,15.4558448 20.786375,14.9785723 20.2631579,14.9785723 C19.7399408,14.9785723 19.3157895,15.4558448 19.3157895,16.0445902 C19.3157895,16.6333357 19.7399408,17.1106082 20.2631579,17.1106082 L20.2631579,17.1106082 Z"/>
  </g>
</svg>
