<svg width="32" height="32" viewBox="0 0 32 32">
  <g fill="none" fill-rule="evenodd">
    <circle cx="16" cy="16" r="16" fill="#4E3551"/>
    <circle cx="16" cy="16" r="15" fill="#FFF" opacity=".4"/>
    <path fill="#4E3551" d="M18.2469508,12.4695505 L18.2466395,12.467017 L18.7407657,11.3103125 C18.0176068,10.8705076 16.5712891,9.990898 16.5712891,9.990898 L16.5957175,9 L17.824937,9.46133244 C18.8724152,9.85445644 20.0228412,11.0055745 20.4138299,12.0396868 L21.9050867,15.9838604 L21.8977914,17.0825781 C23.6178046,17.1218884 25,18.5233268 25,20.2573909 L25,20.8243394 C25,22.5782083 23.574276,24 21.8235294,24 C20.3435668,24 19.0999978,22.9917541 18.7472353,21.6203546 L13.3527137,20.8626933 C13.3321096,22.5988894 11.9144375,24 10.1764706,24 C8.42215432,24 7,22.5832906 7,20.8243394 L7,20.2573909 C7,18.8759568 7.88450754,17.7005407 9.11566337,17.2636331 L7.54479262,14.8129399 L7.88989542,13.4650096 C8.029241,12.9207424 8.58387401,12.5670691 9.13382044,12.6550697 L14.525747,13.5178682 C15.0817556,13.6068389 15.3955887,14.1037815 15.2402531,14.6299873 L14.5118049,17.0976354 L17.723044,17.133668 L18.6722628,15.9303744 L18.3886523,13.6225955 L18.1668917,13.6225955 C17.8473086,13.6225955 17.5882353,13.3551656 17.5882353,13.046073 C17.5882353,12.7276684 17.8479004,12.4695505 18.1668917,12.4695505 L18.2469508,12.4695505 Z M10.1086019,18.8127025 C9.25735925,18.8480187 8.58823529,19.5447745 8.58823529,20.399128 L8.58823529,20.6826023 C8.58823529,21.5536976 9.29931246,22.2704326 10.1764706,22.2704326 C11.0597441,22.2704326 11.7647059,21.5595367 11.7647059,20.6826023 L11.7647059,20.6396573 L11.2316751,20.5647931 L10.1086019,18.8127025 Z M20.2352941,20.399128 L20.2352941,20.6826023 C20.2352941,21.5536976 20.9463713,22.2704326 21.8235294,22.2704326 C22.7068029,22.2704326 23.4117647,21.5595367 23.4117647,20.6826023 L23.4117647,20.399128 C23.4117647,19.5280327 22.7006875,18.8112977 21.8235294,18.8112977 C20.9402559,18.8112977 20.2352941,19.5221936 20.2352941,20.399128 Z"/>
  </g>
</svg>
