<svg width="32" height="32" viewBox="0 0 32 32">
  <g fill="none" fill-rule="evenodd">
    <circle cx="16" cy="16" r="16" fill="#4E3551"/>
    <circle cx="16" cy="16" r="15" fill="#FFF" opacity=".4"/>
    <path fill="#4E3551" fill-rule="nonzero" d="M18.9,8.76190476 C17.8416,8.81142857 17.068,9.61447619 16.8,11.047619 C14.2504,8.26209524 11.2,9.71047619 11.2,12.5714286 C12.172,11.744 14.5108,11.292381 15.55,12.3095238 C13.2948,12.0687619 9.0416,14.7100952 12.6,17.9047619 C12.6,15.7083048 14.3278837,14.2067061 15.975,13.6666667 C15.8937072,16.7076373 14.7557592,18.6856251 13.25,20.2857143 C13.0372,20.5112381 12.7626,20.7260952 12.525,20.952381 L12.25,21.2142857 C12.4348,21.2257143 12.604,21.2619048 12.8,21.2619048 C14.2048,21.2619048 15.3868,20.7899048 16.55,20.3571429 C16.6404,20.1102857 16.7264,19.8535238 16.8,19.5952381 C17.2627928,17.9704945 17.5682416,15.953773 17.6,13.7142857 C19.2119824,14.4459352 19.6,16.5734545 19.6,17.9047619 C24.3168,13.968 19.1772,11.9826667 18.05,12.3095238 C18.6476,11.876 20.0808,11.351619 21.6,12.5714286 C21.8088,12.7398095 22.1976,13.1093333 22.4,13.3333333 C22.4,10.6430476 19.8376,9.66133333 18.2,10.7142857 C18.4528,10.0651429 19.1312,9.22971429 20,9.23809524 C19.6648,8.92038095 19.3808,8.73980952 18.9,8.76190476 Z M8,20.952381 C8,20.952381 9.2216,24 12.8,24 C16.8712,24 16.8606,22.3095238 19.575,22.3095238 C22.1662,22.3102857 24,23.2380952 24,23.2380952 C23.532,21.9154286 21.7328,20.952381 19.6,20.952381 C18.744,20.9638095 17.8744,21.1428571 17.2,21.4285714 C15.824,21.9032381 14.4624,22.5714286 12.8,22.5714286 C9.7152,22.5721905 8,20.952381 8,20.952381 Z"/>
  </g>
</svg>
