<svg width="32" height="32" viewBox="0 0 32 32">
  <g fill="none" fill-rule="evenodd">
    <circle cx="16" cy="16" r="16" fill="#3D3C36"/>
    <circle cx="16" cy="16" r="15" fill="#FFF" opacity=".4"/>
    <path fill="#3D3C36" fill-rule="nonzero" d="M19.574247,8 C18.9315123,8 18.2988202,8.26333898 17.8167692,8.68468134 C18.2988202,9.02175524 18.7758499,9.42203049 19.0972173,9.84337285 L19.3231788,9.60636777 L19.9759562,9.60636777 L19.9759562,12.634766 C19.9759562,13.0561084 19.9056571,13.4774508 19.8253153,13.8987931 C21.2714685,13.7302562 22.3862116,12.4662291 22.3862116,10.9493966 C22.3862116,9.34829557 21.1007421,8 19.574247,8 Z M15.5571548,8.84268473 C13.5486087,8.84268473 11.9417718,10.5280542 11.9417718,12.634766 C11.9417718,14.7414779 13.5486087,16.4268473 15.5571548,16.4268473 C17.5657009,16.4268473 19.1725378,14.7414779 19.1725378,12.634766 C19.1725378,10.5280542 17.5657009,8.84268473 15.5571548,8.84268473 Z M15.3060865,10.8703949 L16.2099323,10.8703949 L16.2099323,14.3201355 L16.109505,14.3201355 L15.0048046,14.3201355 L15.0048046,12.0554203 L14.2013861,12.0554203 L15.3060865,10.8703949 Z M19.1976446,16.4268473 C18.8022117,16.4860982 18.3590766,16.7323205 17.8167692,17.1115287 C17.3347181,17.4486026 16.3655946,18.0332151 16.2852527,18.0332151 C16.3655946,18.1174836 16.7622825,18.1122168 16.7622825,18.1122168 L16.8376029,18.1122168 C17.7213632,18.1122168 18.3691193,18.8758998 18.3691193,19.7185846 L18.3691193,19.8765879 C18.3691193,20.8035411 17.6410214,21.4829557 16.8376029,21.4829557 L15.1554456,21.4829557 C13.7092923,21.4829557 12.343481,19.9555896 12.343481,19.9555896 C12.343481,19.9555896 14.0306597,20.640271 15.1554456,20.640271 L16.7622825,20.640271 C17.2443335,20.640271 17.5657009,20.2189286 17.5657009,19.7975862 C17.5657009,19.3762439 17.2393122,18.9549015 16.8376029,18.9549015 C15.3111079,18.7863646 14.6784159,18.1122168 14.6784159,18.1122168 C14.6784159,18.1122168 13.3025618,17.0219934 12.8205107,16.769188 C11.1333319,15.7579663 8,17.8488778 8,17.8488778 L10.0838666,22.6679811 C10.0838666,22.6679811 11.148396,21.9991001 12.5945493,22.5889794 C13.5586514,23.0103218 14.1160229,23.3315953 15.0801251,23.6686692 C16.4459364,24.1742801 16.9330089,24.1058119 17.8167692,23.4316642 C18.6201876,22.8417848 22.4765962,19.6395829 23.0389891,19.2182405 C23.8424075,18.4598242 24.2441167,17.8541446 23.8424075,17.3485337 C23.6817238,17.1799968 23.4206128,17.0114599 22.9385618,16.9271914 C22.4565107,16.8429229 19.8956144,16.5111158 19.574247,16.4268473 C19.4537343,16.4057802 19.3294551,16.4070965 19.1976446,16.4268473 Z"/>
  </g>
</svg>
