<svg width="32" height="32" viewBox="0 0 32 32">
  <g fill="none" fill-rule="evenodd">
    <circle cx="16" cy="16" r="16" fill="#3D3D36"/>
    <circle cx="16" cy="16" r="15" fill="#FFF" opacity=".4"/>
    <path fill="#3D3D36" fill-rule="nonzero" d="M16,7 C11.0293,7 7,10.9795556 7,15.8888889 C7,19.8017778 8.940625,20.5006667 8.940625,21.6944444 C8.940625,22.2357778 6.772525,23 12.878125,23 L19.121875,23 C25.227475,23 23.059375,22.2357778 23.059375,21.6944444 C23.058475,20.5006667 25,19.8017778 25,15.8888889 C25,10.9795556 20.9707,7 16,7 Z M16,9.66666667 C19.4794,9.66666667 22.3,12.4524444 22.3,15.8888889 C22.3,19.3253333 19.4794,22.1111111 16,22.1111111 C12.5206,22.1111111 9.7,19.3253333 9.7,15.8888889 C9.7,12.4524444 12.5206,9.66666667 16,9.66666667 Z M16,10.5555556 C15.7948,10.5555556 15.58015,10.5611111 15.38125,10.5833333 L15.1,13.3888889 C14.7958,13.4973333 14.49835,13.6593333 14.25625,13.8611111 L11.66875,12.7222222 C11.42845,13.0431111 11.2138,13.3802222 11.05,13.75 L13.35625,15.4166667 C13.32835,15.5713333 13.3,15.7271111 13.3,15.8888889 C13.3,16.0506667 13.32835,16.2073333 13.35625,16.3611111 L11.05,18.0277778 C11.2138,18.3975556 11.42845,18.7355556 11.66875,19.0555556 L14.25625,17.9166667 C14.49835,18.1184444 14.7958,18.2804444 15.1,18.3888889 L15.38125,21.1944444 C15.57925,21.2175556 15.7948,21.2222222 16,21.2222222 C16.2052,21.2222222 16.41985,21.2166667 16.61875,21.1944444 L16.9,18.3888889 C17.2042,18.2804444 17.50165,18.1184444 17.74375,17.9166667 L20.33125,19.0555556 C20.57155,18.7346667 20.7862,18.3975556 20.95,18.0277778 L18.64375,16.3611111 C18.67075,16.2064444 18.7,16.0506667 18.7,15.8888889 C18.7,15.7271111 18.67165,15.5704444 18.64375,15.4166667 L20.95,13.75 C20.7862,13.3802222 20.57155,13.0422222 20.33125,12.7222222 L17.74375,13.8611111 C17.50165,13.6593333 17.2042,13.4973333 16.9,13.3888889 L16.61875,10.5833333 C16.42075,10.5602222 16.2052,10.5555556 16,10.5555556 Z M16,14.5555556 C16.7452,14.5555556 17.35,15.1528889 17.35,15.8888889 C17.35,16.6248889 16.7452,17.2222222 16,17.2222222 C15.2548,17.2222222 14.65,16.6248889 14.65,15.8888889 C14.65,15.1528889 15.2548,14.5555556 16,14.5555556 Z"/>
  </g>
</svg>
