<svg width="32" height="32" viewBox="0 0 32 32">
  <g fill="none" fill-rule="evenodd">
    <circle cx="16" cy="16" r="16" fill="#3D3D36"/>
    <circle cx="16" cy="16" r="15" fill="#FFF" opacity=".4"/>
    <path fill="#3D3D36" fill-rule="nonzero" d="M10.325,8 L10,9.6 L9.85,9.6 C8.81,9.6 8,10.41 8,11.45 L8,14.4 L8,15.2 L8,16.25 C8,16.57 8.23,16.8 8.55,16.8 L10.65,16.8 C10.97,16.8 11.2,16.57 11.2,16.25 L11.2,15.2 L20.8,15.2 L20.8,16.25 C20.8,16.57 21.03,16.8 21.35,16.8 L23.45,16.8 C23.77,16.8 24,16.57 24,16.25 L24,15.2 L24,14.4 L24,11.45 C24,10.41 23.19,9.6 22.15,9.6 L22,9.6 L21.675,8 L10.325,8 Z M14.4,9.6 L17.6,9.6 C18.08,9.6 18.4,10 18.4,10.4 L18.4,12 C18.4,12.48 18,12.8 17.6,12.8 L14.4,12.8 C14,12.8 13.6,12.4 13.6,12 L13.6,10.4 C13.6,9.92 14,9.6 14.4,9.6 Z M10.15,11.2 L11.525,11.2 C11.765,11.2 12,11.43 12,11.75 L12,12.25 C12,12.57 11.77,12.8 11.45,12.8 L10.15,12.8 C9.83,12.8 9.6,12.57 9.6,12.25 L9.6,11.75 C9.6,11.43 9.83,11.2 10.15,11.2 Z M20.55,11.2 L21.925,11.2 C22.165,11.2 22.4,11.43 22.4,11.75 L22.4,12.25 C22.4,12.57 22.17,12.8 21.85,12.8 L20.475,12.8 C20.235,12.8 20,12.57 20,12.25 L20,11.75 C20,11.43 20.23,11.2 20.55,11.2 Z M8,17.6 L8,19.2 L11.2,19.2 L11.2,20.8 L9.6,20.8 L12,24 L14.4,20.8 L12.8,20.8 L12.8,19.2 L19.2,19.2 L19.2,20.8 L17.6,20.8 L20,24 L22.4,20.8 L20.8,20.8 L20.8,19.2 L24,19.2 L24,17.6 L8,17.6 Z"/>
  </g>
</svg>
