<svg width="32" height="32" viewBox="0 0 32 32">
  <g fill="none" fill-rule="evenodd">
    <circle cx="16" cy="16" r="16" fill="#3D3D36"/>
    <circle cx="16" cy="16" r="15" fill="#FFF" opacity=".4"/>
    <path fill="#3D3D36" d="M14.6470588,8 C11.5282729,8 9,10.5282824 9,13.6470588 C9,16.7658353 11.5282729,19.2941176 14.6470588,19.2941176 L19.3529412,19.2941176 L23.5882353,23.5294118 C23.8859106,23.8271059 24.0647059,24 24.4411765,24 C24.5588235,24 24.7058824,24 24.8529412,23.8529882 C25.0000471,23.7058824 25,23.5588706 25,23.4412235 C25,23.0647529 24.7949365,22.8537412 24.5294118,22.5882353 L20.2941176,18.3529412 L20.2941176,13.6470588 C20.2941176,10.5282824 17.7658447,8 14.6470588,8 L14.6470588,8 Z M19.3529412,15.5294118 L19.3529412,18.3529412 L16.5294118,18.3529412 L19.3529412,15.5294118 Z M10.4117647,19.2941176 C9.63206588,19.2941176 9,19.9262118 9,20.7058824 C9,21.4855529 9.63206588,22.1176471 10.4117647,22.1176471 C11.1914635,22.1176471 11.8235294,21.4855529 11.8235294,20.7058824 C11.8235294,19.9262118 11.1914635,19.2941176 10.4117647,19.2941176 L10.4117647,19.2941176 Z"/>
  </g>
</svg>
