<svg width="32" height="32" viewBox="0 0 32 32">
  <g fill="none" fill-rule="evenodd">
    <circle cx="16" cy="16" r="16" fill="#3D3D36"/>
    <circle cx="16" cy="16" r="15" fill="#FFF" opacity=".4"/>
    <path fill="#3D3D36" d="M8.94117647,8.94117647 C8,9.88235294 8,10.8235294 8,10.8235294 L17.4117647,20.2352941 L18.8235294,19.7647059 L22.5882353,23.5294118 C22.8859106,23.8271059 23.0647059,24 23.4411765,24 C23.5588235,24 23.7058824,24 23.8529412,23.8529882 C24.0000471,23.7058824 24,23.5588706 24,23.4412235 C24,23.0647529 23.7949365,22.8537412 23.5294118,22.5882353 L19.7647059,18.8235294 L20.2352941,17.4117647 L10.8235294,8 C10.8235294,8 9.88235294,8 8.94117647,8.94117647 L8.94117647,8.94117647 Z M12.2352941,17.4117647 C11.4555953,17.4117647 10.8235294,18.0438588 10.8235294,18.8235294 C10.8235294,19.6032 11.4555953,20.2352941 12.2352941,20.2352941 C13.0149929,20.2352941 13.6470588,19.6032 13.6470588,18.8235294 C13.6470588,18.0438588 13.0149929,17.4117647 12.2352941,17.4117647 L12.2352941,17.4117647 Z"/>
  </g>
</svg>
