<svg width="32" height="32" viewBox="0 0 32 32">
  <g fill="none" fill-rule="evenodd">
    <circle cx="16" cy="16" r="16" fill="#3D3D36"/>
    <circle cx="16" cy="16" r="15" fill="#FFF" opacity=".4"/>
    <path fill="#3D3D36" d="M18.5,8.00350738 C17.9089053,8.08455628 17.8293263,9.13168668 18.4013158,9.30327573 L20.7368421,10.2364045 L20.7368421,12.2692387 L13.3684211,12.2692387 L13.3684211,11.2028059 L14.8157895,11.2028059 C15.1633579,11.2028059 15.4736842,10.8884215 15.4736842,10.5362854 C15.4736842,10.1841493 15.1633579,9.86475262 14.8157895,9.86976485 L10.7368421,9.86976485 C10.6715789,9.85910052 10.6047684,9.85910052 10.5394737,9.86976485 C10.1949789,9.92202006 9.92858947,10.2872733 9.98026316,10.6363168 C10.0319474,10.9852536 10.3923579,11.2551678 10.7368421,11.2028059 L12.3157895,11.2028059 L12.3157895,12.2692387 L11.1973684,15.6018414 C10.8819158,15.5250582 10.5491053,15.4685373 10.2105263,15.4685373 C7.88511579,15.4685373 6,17.3784118 6,19.7342686 C6,22.0901254 7.88511579,24 10.2105263,24 C12.5359368,24 14.4210526,22.0901254 14.4210526,19.7342686 C14.4210526,19.4139122 14.3555684,19.1013407 14.2894737,18.8011399 L15.4736842,18.8011399 C15.6826737,18.7904756 15.8851053,18.6782868 16,18.501259 L19.5526316,13.3356716 L19.6842105,13.3356716 L20.7368421,13.3356716 L21.4605263,15.5019166 C19.2901158,15.6731857 17.5789474,17.4914537 17.5789474,19.7342686 C17.5789474,22.0901254 19.4640632,24 21.7894737,24 C24.1148842,24 26,22.0901254 26,19.7342686 C26,17.7846161 24.7041158,16.1775018 22.9407895,15.6684934 L21.7894737,12.2692387 L21.7894737,9.76984009 C21.7894737,9.65797129 21.7449474,9.54482276 21.6908421,9.43657983 C21.6866316,9.4259155 21.6950526,9.41098544 21.6908421,9.40352041 C21.6751579,9.36939456 21.6456842,9.33526871 21.6250526,9.30327573 C21.5913684,9.25528625 21.5675789,9.2115625 21.5264211,9.16997162 C21.5086316,9.1529087 21.4801053,9.15184226 21.4606316,9.1369122 C21.4413684,9.12091571 21.4150526,9.11771641 21.3948421,9.10385278 C21.3607368,9.08359056 21.3341053,9.05053114 21.2962105,9.03773395 L21.2633684,9.00467453 L20.8028421,8.83809772 L18.8620526,8.03827309 C18.7936211,8.01161227 18.7049053,8.00841297 18.6317895,8.00521367 C18.5823158,8.00521367 18.5488421,7.99348291 18.5002105,8.00521367 L18.5,8.00350738 Z M13.3684211,13.3356716 L18.0065789,13.3356716 L15.1447368,17.4680988 L13.7631579,17.4680988 C13.4371895,16.9411744 13.0272421,16.5073495 12.5131579,16.1684371 L13.3684211,13.3356716 L13.3684211,13.3356716 Z M10.2105263,17.0681865 C11.6639053,17.0681865 12.8421053,18.2618448 12.8421053,19.7342686 C12.8421053,21.2066925 11.6639053,22.4003507 10.2105263,22.4003507 C8.75714737,22.4003507 7.57894737,21.2066925 7.57894737,19.7342686 C7.57894737,18.2618448 8.75714737,17.0681865 10.2105263,17.0681865 L10.2105263,17.0681865 Z M21.7894737,17.0681865 C23.2428526,17.0681865 24.4210526,18.2618448 24.4210526,19.7342686 C24.4210526,21.2066925 23.2428526,22.4003507 21.7894737,22.4003507 C20.3360947,22.4003507 19.1578947,21.2066925 19.1578947,19.7342686 C19.1578947,19.5502023 19.1886316,19.3745608 19.2236842,19.2010522 C19.4690737,17.9861719 20.5177684,17.0681865 21.7894737,17.0681865 L21.7894737,17.0681865 Z"/>
  </g>
</svg>
