<svg width="40" height="40" viewBox="0 0 40 40">
  <g fill="none" fill-rule="evenodd">
    <path fill="#FFF" d="M21.2795551,37.5731166 C20.5728764,37.256593 19.4262588,37.2569804 18.7204449,37.5731166 L16.1031742,38.7453999 C15.3964954,39.0619235 14.4552348,38.8090943 14.0020501,38.1824054 L12.321569,35.858543 C11.867829,35.2310861 10.8746353,34.6581128 10.1053144,34.5789878 L7.25254993,34.2855797 C6.48228637,34.2063577 5.79354533,33.5167709 5.71442033,32.7474501 L5.42101219,29.8946856 C5.34179022,29.124422 4.76814595,28.1316157 4.14145704,27.678431 L1.81759457,25.9979499 C1.19013774,25.5442099 0.938463891,24.6026397 1.25460006,23.8968258 L2.42688342,21.2795551 C2.74340697,20.5728764 2.74301958,19.4262588 2.42688342,18.7204449 L1.25460006,16.1031742 C0.938076509,15.3964954 1.19090566,14.4552348 1.81759457,14.0020501 L4.14145704,12.321569 C4.76891387,11.867829 5.34188718,10.8746353 5.42101219,10.1053144 L5.71442033,7.25254993 C5.79364229,6.48228637 6.48322906,5.79354533 7.25254993,5.71442033 L10.1053144,5.42101219 C10.875578,5.34179022 11.8683843,4.76814595 12.321569,4.14145704 L14.0020501,1.81759457 C14.4557901,1.19013774 15.3973603,0.938463891 16.1031742,1.25460006 L18.7204449,2.42688342 C19.4271236,2.74340697 20.5737412,2.74301958 21.2795551,2.42688342 L23.8968258,1.25460006 C24.6035046,0.938076509 25.5447652,1.19090566 25.9979499,1.81759457 L27.678431,4.14145704 C28.132171,4.76891387 29.1253647,5.34188718 29.8946856,5.42101219 L32.7474501,5.71442033 C33.5177136,5.79364229 34.2064547,6.48322906 34.2855797,7.25254993 L34.5789878,10.1053144 C34.6582098,10.875578 35.231854,11.8683843 35.858543,12.321569 L38.1824054,14.0020501 C38.8098623,14.4557901 39.0615361,15.3973603 38.7453999,16.1031742 L37.5731166,18.7204449 C37.256593,19.4271236 37.2569804,20.5737412 37.5731166,21.2795551 L38.7453999,23.8968258 C39.0619235,24.6035046 38.8090943,25.5447652 38.1824054,25.9979499 L35.858543,27.678431 C35.2310861,28.132171 34.6581128,29.1253647 34.5789878,29.8946856 L34.2855797,32.7474501 C34.2063577,33.5177136 33.5167709,34.2064547 32.7474501,34.2855797 L29.8946856,34.5789878 C29.124422,34.6582098 28.1316157,35.231854 27.678431,35.858543 L25.9979499,38.1824054 C25.5442099,38.8098623 24.6026397,39.0615361 23.8968258,38.7453999 L21.2795551,37.5731166 Z" opacity=".4"/>
    <path fill="#3D3D36" d="M21.2791942,36.7229549 C20.5727148,36.4065207 19.4358931,36.4026652 18.7208058,36.7229549 L16.3616324,37.7796358 C15.6551529,38.09607 14.7202398,37.8517228 14.2611009,37.2168 L12.7463372,35.1221009 C12.2927252,34.4948211 11.3101365,33.9230713 10.5307078,33.8429067 L7.95926334,33.5784324 C7.18921703,33.4992328 6.50173217,32.8201654 6.42156757,32.0407367 L6.15709332,29.4692922 C6.0778937,28.6992459 5.51282185,27.7128017 4.87789908,27.2536628 L2.78319995,25.7388991 C2.1559201,25.2852871 1.90007446,24.353455 2.22036424,23.6383676 L3.27704506,21.2791942 C3.59347934,20.5727148 3.59733484,19.4358931 3.27704506,18.7208058 L2.22036424,16.3616324 C1.90392996,15.6551529 2.14827718,14.7202398 2.78319995,14.2611009 L4.87789908,12.7463372 C5.50517893,12.2927252 6.07692872,11.3101365 6.15709332,10.5307078 L6.42156757,7.95926334 C6.50076718,7.18921703 7.17983462,6.50173217 7.95926334,6.42156757 L10.5307078,6.15709332 C11.3007541,6.0778937 12.2871983,5.51282185 12.7463372,4.87789908 L14.2611009,2.78319995 C14.7147129,2.1559201 15.646545,1.90007446 16.3616324,2.22036424 L18.7208058,3.27704506 C19.4272852,3.59347934 20.5641069,3.59733484 21.2791942,3.27704506 L23.6383676,2.22036424 C24.3448471,1.90392996 25.2797602,2.14827718 25.7388991,2.78319995 L27.2536628,4.87789908 C27.7072748,5.50517893 28.6898635,6.07692872 29.4692922,6.15709332 L32.0407367,6.42156757 C32.810783,6.50076718 33.4982678,7.17983462 33.5784324,7.95926334 L33.8429067,10.5307078 C33.9221063,11.3007541 34.4871782,12.2871983 35.1221009,12.7463372 L37.2168,14.2611009 C37.8440799,14.7147129 38.0999255,15.646545 37.7796358,16.3616324 L36.7229549,18.7208058 C36.4065207,19.4272852 36.4026652,20.5641069 36.7229549,21.2791942 L37.7796358,23.6383676 C38.09607,24.3448471 37.8517228,25.2797602 37.2168,25.7388991 L35.1221009,27.2536628 C34.4948211,27.7072748 33.9230713,28.6898635 33.8429067,29.4692922 L33.5784324,32.0407367 C33.4992328,32.810783 32.8201654,33.4982678 32.0407367,33.5784324 L29.4692922,33.8429067 C28.6992459,33.9221063 27.7128017,34.4871782 27.2536628,35.1221009 L25.7388991,37.2168 C25.2852871,37.8440799 24.353455,38.0999255 23.6383676,37.7796358 L21.2791942,36.7229549 Z"/>
    <polygon fill="#FFF" points="20 34.45 15.6 36.421 12.775 32.514 7.979 32.021 7.486 27.225 3.579 24.4 5.55 20 3.579 15.6 7.486 12.775 7.979 7.979 12.775 7.486 15.6 3.579 20 5.55 24.4 3.579 27.225 7.486 32.021 7.979 32.514 12.775 36.421 15.6 34.45 20 36.421 24.4 32.514 27.225 32.021 32.021 27.225 32.514 24.4 36.421" opacity=".4"/>
    <path fill="#3D3D36" d="M25.1224304,10.0027617 C21.3016349,10.1556876 17.5267172,11.6931813 14.6105375,14.6105375 C11.6931813,17.5267172 10.1568639,21.3016349 10.0027617,25.1224304 C9.90512434,27.5868905 12.4131095,30.0948757 14.8775696,29.9972383 C18.6983651,29.8431361 22.4732828,28.3068187 25.3894625,25.3894625 C28.3068187,22.4732828 29.8443124,18.6983651 29.9972383,14.8775696 C30.0948757,12.4131095 27.5868905,9.90512434 25.1224304,10.0027617 L25.1224304,10.0027617 Z M26.1376232,17.7361081 C26.4128899,18.0101984 26.4128899,18.458389 26.1376232,18.7336557 L25.7929517,19.0783272 C25.6600238,19.2112551 25.4823945,19.2853654 25.2941779,19.2853654 C25.1059614,19.2853654 24.9283321,19.2124315 24.7954041,19.0783272 L23.529648,17.8137474 L21.3439836,19.9994118 L22.6085634,21.265168 C22.8838301,21.5392583 22.8838301,21.9874489 22.6085634,22.2627155 L22.2638919,22.607387 C22.130964,22.740315 21.9533346,22.8144252 21.7651181,22.8144252 C21.5769016,22.8144252 21.3992722,22.7414913 21.2663443,22.607387 L20.0005882,21.3428073 L17.8149238,23.5284717 L19.0795036,24.7942278 C19.2124315,24.9271557 19.2865417,25.1047851 19.2865417,25.2930016 C19.2865417,25.4812181 19.2136078,25.6588474 19.0795036,25.7917754 L18.734832,26.1364469 C18.6019041,26.2693748 18.4242748,26.3434851 18.2360583,26.3434851 C18.0478417,26.3434851 17.8702124,26.2705512 17.7372845,26.1364469 L16.4715283,24.8718671 L15.2057722,26.1364469 C15.0728443,26.2693748 14.8952149,26.3434851 14.7069984,26.3434851 C14.5187819,26.3434851 14.3411526,26.2705512 14.2082246,26.1364469 L13.8635531,25.7917754 C13.5882865,25.5176851 13.5882865,25.0694945 13.8635531,24.7942278 L15.1281329,23.5284717 L13.8635531,22.2627155 C13.5882865,21.9886252 13.5882865,21.5404346 13.8635531,21.265168 L14.2082246,20.9204964 C14.3411526,20.7875685 14.5187819,20.7134583 14.7069984,20.7134583 C14.8952149,20.7134583 15.0728443,20.7863922 15.2057722,20.9204964 L16.4715283,22.1850762 L18.6571927,19.9994118 L17.392613,18.7336557 C17.1173463,18.4595654 17.1173463,18.0113748 17.392613,17.7361081 L17.7372845,17.3914366 C17.8702124,17.2585087 18.0478417,17.1843984 18.2360583,17.1843984 C18.4242748,17.1843984 18.6019041,17.2573323 18.734832,17.3914366 L20.0005882,18.6560164 L22.1862526,16.470352 L20.9216728,15.2045959 C20.7887449,15.0716679 20.7146346,14.8940386 20.7146346,14.7058221 C20.7146346,14.5176055 20.7875685,14.3399762 20.9216728,14.2070483 L21.2663443,13.8623768 C21.3992722,13.7294488 21.5769016,13.6553386 21.7651181,13.6553386 C21.9533346,13.6553386 22.130964,13.7282725 22.2638919,13.8623768 L23.529648,15.1269565 L24.7954041,13.8623768 C24.9283321,13.7294488 25.1059614,13.6553386 25.2941779,13.6553386 C25.4823945,13.6553386 25.6600238,13.7282725 25.7929517,13.8623768 L26.1376232,14.2070483 C26.4128899,14.4811386 26.4128899,14.9293292 26.1376232,15.2045959 L24.8730435,16.470352 L26.1376232,17.7361081 L26.1376232,17.7361081 Z"/>
  </g>
</svg>
