<svg width="32" height="32" viewBox="0 0 32 32">
  <g fill="none" fill-rule="evenodd">
    <circle cx="16" cy="16" r="16" fill="#3D3D36"/>
    <circle cx="16" cy="16" r="15" fill="#FFF" opacity=".4"/>
    <path fill="#3D3D36" d="M22.6098888,15.0894922 C22.1149752,14.3122172 21.685356,13.6415284 21.685356,12.852187 C21.685356,12.0839618 21.8367637,11.3197587 21.9711379,10.6460533 C22.1632363,9.68074409 22.3297847,8.84715938 22.0326473,8.2659628 C21.8131062,7.65359477 21.2424888,7 20.3037615,7 C19.3650343,7 18.7944168,7.65258924 18.5833925,8.2428356 C18.2767921,8.84715938 18.4433404,9.68074409 18.6354388,10.6460533 C18.7707594,11.3197587 18.922167,12.0849673 18.922167,12.852187 C18.922167,12.9527401 18.8975633,13.0452489 18.8843151,13.1417798 C20.3368819,14.6078431 21.2481665,16.6742081 21.2481665,18.965812 C21.2481665,21.3197587 20.2857819,23.4333836 18.7650816,24.9064857 C18.7698131,24.9125189 18.7792761,24.9245852 18.7811687,24.9276018 C18.817128,24.9738562 18.871067,25 18.9278448,25 L21.6796783,25 C21.7374024,25 21.7903951,24.9738562 21.8263544,24.9276018 C21.9153064,24.8149824 24,22.1261941 24,19.032177 C24,17.2664656 23.2618879,16.1080945 22.6098888,15.0894922 L22.6098888,15.0894922 Z M13.6777857,12.933635 C10.5427017,12.933635 8,15.6334842 8,18.965812 C8,22.2981398 10.5427017,25 13.6777857,25 C16.8138159,25 19.3555713,22.2981398 19.3555713,18.965812 C19.3555713,15.6334842 16.8138159,12.933635 13.6777857,12.933635 L13.6777857,12.933635 Z M13.4885261,15.9512318 C13.4885261,15.2855706 13.9976343,14.7435897 14.623137,14.7435897 C15.249586,14.7435897 15.7596404,15.2855706 15.7596404,15.9512318 C15.7596404,16.6158874 15.249586,17.1568627 14.623137,17.1568627 C13.9976343,17.1568627 13.4885261,16.6158874 13.4885261,15.9512318 L13.4885261,15.9512318 Z M11.5959309,18.967823 C11.5959309,18.3021619 12.105039,17.760181 12.7305418,17.760181 C13.3569908,17.760181 13.8670452,18.3021619 13.8670452,18.967823 C13.8670452,19.6324786 13.3569908,20.173454 12.7305418,20.173454 C12.105039,20.173454 11.5959309,19.6324786 11.5959309,18.967823 L11.5959309,18.967823 Z M16.5157322,20.173454 C15.8902295,20.173454 15.3811214,19.6324786 15.3811214,18.967823 C15.3811214,18.3021619 15.8902295,17.760181 16.5157322,17.760181 C17.1421812,17.760181 17.6522356,18.3021619 17.6522356,18.967823 C17.6522356,19.6324786 17.1421812,20.173454 16.5157322,20.173454 L16.5157322,20.173454 Z"/>
  </g>
</svg>
