<svg width="32" height="32" viewBox="0 0 32 32">
  <g fill="none" fill-rule="evenodd">
    <circle cx="16" cy="16" r="16" fill="#3D3D36"/>
    <circle cx="16" cy="16" r="15" fill="#FFF" opacity=".4"/>
    <path fill="#3D3D36" d="M24.9516842,17.6153846 L7.02747368,17.6153846 C7.00947368,17.792 7,17.9718462 7,18.1538462 C7,20.83 8.90894737,23 11.2631579,23 L20.7368421,23 C23.0910526,23 25,20.83 25,18.1538462 C25,17.9696923 24.9696842,17.7941538 24.9516842,17.6153846 L24.9516842,17.6153846 Z M20.7368421,13.3076923 L14.6736842,13.3076923 C14.1497895,13.3076923 13.7263158,12.8263077 13.7263158,12.2307692 C13.7263158,11.6352308 14.1497895,11.1538462 14.6736842,11.1538462 L20.2631579,11.1538462 C20.7870526,11.1538462 21.2105263,10.6724615 21.2105263,10.0769231 C21.2105263,9.48138462 20.7870526,9 20.2631579,9 L13.3445263,9 L8.58021053,14.4158462 C8.25715789,14.7152308 7.97673684,15.0695385 7.74084211,15.4615385 L24.28,15.4615385 C23.5154737,14.1638462 22.2147368,13.3076923 20.7368421,13.3076923 L20.7368421,13.3076923 Z"/>
  </g>
</svg>
