<svg width="36" height="36" viewBox="0 0 36 36">
  <g fill="none" fill-rule="evenodd">
    <path fill="#FFFFFE" d="M18,0 C27.9394103,0 36,8.06060951 36,18 C36,27.9395953 27.9394103,36 18,36 C8.06058972,36 0,27.9395953 0,18 C0,8.06060951 8.06058972,0 18,0" opacity=".4"/>
    <g transform="translate(1)">
      <path fill="#B38F19" d="M17.9113684,2.07057895 C20.6077895,2.07057895 23.0745263,3.04952632 25.0555789,4.707 C25.4730526,5.09710526 25.3995789,5.391 24.9858947,5.43921053 C19.0606316,6.64278947 13.1355789,8.31689474 7.21031579,10.2697368 C6.56589474,10.4516316 6.86357895,9.16405263 7.12715789,8.74447368 C9.44105263,4.74678947 13.4522105,2.07057895 17.9113684,2.07057895 Z M28.3136842,22.1977368 C26.1269474,26.7703684 21.8155789,29.923 16.976,29.923 C14.6490526,29.923 12.4934737,29.1941579 10.6730526,27.9295263 C10.1791579,27.5307895 10.3237895,27.1747895 10.7877895,27.0023684 C15.9412632,24.9404737 21.4096842,23.0888947 27.4033684,21.5874211 C28.0924211,21.4114211 28.6193684,21.5267895 28.3136842,22.1977368 Z"/>
      <path fill="#801919" d="M5.26168421,19.7086842 L7.70926316,18.5853158 L7.70063158,21.5143684 L10.0366316,17.7425789 C10.8391579,16.6324737 12.6046316,17.7558421 11.9625263,18.8259474 C11.3741053,19.8958421 10.7856842,20.9659474 10.1970526,22.0360526 L11.9625263,24.0423684 C12.7233684,24.8762632 11.0528421,26.8301579 10.0366316,25.7676316 C9.28757895,25.0053158 8.53852632,24.2427895 7.78947368,23.4804737 L7.74947368,26.2091053 C7.79494737,26.7714211 7.64547368,27.1326842 7.18757895,27.2924737 C6.54568421,27.5600526 5.90357895,27.8274211 5.26168421,28.095 L5.26168421,19.7086842 Z M12.5821053,17.7402632 C12.5882105,17.1691053 12.8545263,16.7707895 13.4309474,16.4512105 C14.0178947,16.2101579 14.6048421,15.9691053 15.1917895,15.7278421 L15.1288421,23.2739474 C15.1153684,23.8876316 14.8612632,24.3488947 14.1856842,24.6575263 C13.6406316,24.8878421 13.0955789,25.1183684 12.5507368,25.3491053 C12.5507368,25.3491053 12.5821053,17.8975263 12.5821053,17.7402632 Z M15.9776842,23.9657368 L15.9149474,15.6337368 C16.376,15.4659474 16.8372632,15.2983684 17.2983158,15.1305789 C17.8244211,14.9093158 18.2427368,15.1926842 18.4301053,15.5080526 L20.7882105,18.0861579 C20.7778947,17.1219474 20.7671579,16.1577368 20.7568421,15.1935263 C20.7254737,14.6065789 21.3016842,14.1874211 22.0145263,13.9358421 L23.0206316,13.6215263 L23.052,21.3560526 C23.0555789,22.2314211 21.4785263,22.6981579 21.0082105,22.1105789 C20.6848421,21.6697368 18.3357895,19.1236316 18.3357895,19.1236316 L18.2416842,22.3621579 C18.1943158,23.2817368 17.5025263,23.5804737 15.9776842,23.9657368 Z M27.1393684,16.1053158 L30.5978947,15.2564737 L30.5978947,18.6834211 C30.252,20.0040526 29.1831579,20.7166842 27.2966316,21.0101579 C24.8861053,21.2406842 23.4189474,19.8781579 23.4608421,17.3000526 C23.9324211,13.6320526 25.9970526,12.0179474 29.6547368,12.4581579 C31.4783158,12.7305789 30.8181053,14.7848947 29.2774737,14.4703684 C27.2597895,14.0813158 25.908,15.0899474 25.8189474,16.9227895 C25.9027368,18.7779474 27.1604211,19.543 28.46,18.4634211 L28.4913684,17.6459474 C27.6791579,17.8347895 27.0816842,17.7926842 27.108,17.1114211 C27.108,17.1114211 27.2023158,16.1366842 27.1393684,16.1053158 Z M19.2052632,10.5160526 L21.4498947,9.94868421 L21.4498947,12.239 C21.2254737,13.1215263 20.5315789,13.5977368 19.3071579,13.7939474 C17.7427368,13.9478421 16.7905263,13.0373158 16.8176842,11.3143684 C17.1237895,8.863 18.4637895,7.78447368 20.8376842,8.07878947 C22.0212632,8.26068421 21.5928421,9.63352632 20.5928421,9.42342105 C19.2833684,9.16342105 18.4058947,9.83752632 18.3482105,11.0623684 C18.4027368,12.3019474 19.2187368,12.8133158 20.0623158,12.0920526 L20.0825263,11.5455263 C19.5553684,11.6718421 19.1677895,11.6436316 19.1848421,11.1884737 C19.1848421,11.1884737 19.2458947,10.5371053 19.2052632,10.5160526 Z M3.95747368,13.1181579 L6.508,12.2152105 C7.61389474,11.8522632 8.33621053,13.8874211 7.20757895,15.0592105 C8.38126316,14.9387895 8.38126316,17.1958421 6.98189474,17.9482632 L3.98021053,19.3701579 C3.98021053,19.3701579 3.98021053,13.2535263 3.95747368,13.1181579 Z M5.38505263,15.9152105 L5.30863158,17.5419474 C5.90842105,17.3177368 6.53663158,16.9897368 6.53052632,16.1571053 C6.53957895,15.7320526 6.02694737,15.5888947 5.38505263,15.9152105 Z M5.37936842,13.6147895 L5.30863158,15.1333158 C5.864,14.9240526 6.44589474,14.6177368 6.44042105,13.8404737 C6.44863158,13.4436316 5.97410526,13.3101579 5.37936842,13.6147895 Z M8.22336842,11.8992105 C8.21578947,11.0225789 9.70547368,10.9097368 9.69052632,11.6735263 C9.69052632,12.7720526 9.69052632,13.8703684 9.69052632,14.9688947 C9.67536842,15.7663684 10.6985263,15.7286842 10.7964211,14.7882632 C10.7814737,13.4941579 10.7663158,12.3131053 10.7513684,11.019 C10.7964211,10.2817368 12.2185263,10.011 12.2408421,10.7707895 C12.2334737,12.1701579 12.2258947,13.3663684 12.2185263,14.7657368 C12.1581053,15.9242632 11.4661053,16.6992105 10.2096842,16.955 C9.26905263,17.1432105 8.19326316,16.7444737 8.20084211,15.7587895 C8.20084211,15.7587895 8.22336842,12.0347895 8.22336842,11.8992105 Z M12.7374737,15.7587895 L12.6696842,10.0484737 L14.9042105,9.34889474 C16.2962105,8.92005263 17.2892632,10.8234211 15.7393684,12.3733158 C16.0930526,12.7720526 16.4467368,13.1707895 16.8002105,13.5695263 C17.3191579,14.2316316 16.2357895,15.1419474 15.6490526,14.6078421 L14.2271579,13.2760526 C14.2046316,13.7200526 14.1821053,14.1638421 14.1593684,14.6078421 C14.1143158,15.2737368 13.6404211,15.5821579 12.7374737,15.7587895 Z M14.1821053,10.5901579 C14.1745263,11.1318421 14.1669474,11.7413158 14.1593684,12.283 C15.5667368,11.6057368 15.3934737,10.0032105 14.1821053,10.5901579 Z M25.4138947,12.283 L25.3747368,6.76110526 L27.6816842,6.38026316 C29.1183158,6.14973684 30.1317895,8.11836842 28.5261053,9.41015789 C28.8882105,9.84194737 29.2507368,10.2735263 29.6130526,10.7051053 C30.1444211,11.4126842 29.0229474,12.1488947 28.4210526,11.5556316 L26.9625263,10.0825789 C26.9368421,10.5080526 26.9111579,10.9337368 26.8856842,11.3592105 C26.8355789,11.9960526 26.3454737,12.2314211 25.4138947,12.283 Z M26.9305263,7.48342105 C26.9197895,8.00552632 26.9088421,8.59268421 26.8981053,9.11478947 C28.352,8.64636842 28.1823158,7.07647368 26.9305263,7.48342105 Z M21.8250526,7.51268421 L25.0818947,6.847 C25.0898947,7.91668421 24.8126316,8.09121053 23.2515789,8.39226316 C23.2515789,8.68531579 23.2515789,9.02615789 23.2515789,9.31942105 L24.9391579,9.01036842 C25.0044211,9.90384211 24.8705263,10.1091053 23.3227368,10.3655263 L23.3227368,11.5539474 L25.1056842,11.1259474 C25.1452632,11.7996316 25.1056842,12.4019474 24.2023158,12.6238421 C23.3305263,12.7981579 22.7444211,12.9248947 21.8726316,13.0992105 L21.8250526,7.51268421 Z"/>
      <path fill="#285480" d="M17.0917895,0.420684211 C18.6046316,0.420684211 20.072,0.622157895 21.4705263,0.997947368 L21.3709474,1.16594737 C18.0082105,0.449736842 13.1884211,1.52026316 11.0597895,2.53036842 C5.76294737,4.79542105 2.00926316,10.2891053 2.00926316,16.6798421 C2.00926316,20.1280526 3.10252632,23.3145789 4.94063158,25.8743684 L4.94063158,28.6493158 L6.71094737,27.9263684 C9.28294737,30.4147895 12.7052632,31.9366842 16.4536842,31.9366842 C22.38,31.9366842 27.4911579,28.1335263 29.7138947,22.7200526 C30.6086316,23.2257368 31.8149474,23.9156316 32.7985263,24.4796316 C30.1802105,30.6324737 24.1202105,34.9596316 17.0917895,34.9596316 C7.68042105,34.9596316 0.00442105263,27.2019474 0.00442105263,17.6901579 C0.00442105263,8.17836842 7.68042105,0.420684211 17.0917895,0.420684211"/>
    </g>
  </g>
</svg>
