<svg width="32" height="32" viewBox="0 0 32 32">
  <g fill="none" fill-rule="evenodd">
    <circle cx="16" cy="16" r="16" fill="#3D3C36"/>
    <circle cx="16" cy="16" r="15" fill="#FFF" opacity=".4"/>
    <path fill="#3D3C36" d="M23.4382285,16.512541 C23.3717409,16.4940644 23.3045607,16.4837175 23.2353027,16.4837175 C22.8931685,16.4837175 22.5898188,16.7305649 22.4990909,17.0830985 C22.2961651,17.8753753 21.9699602,18.6077879 21.5481794,19.2566862 C21.1194727,17.2789505 19.8459655,12.1570096 19.8459655,12.0091967 C19.8459655,11.6248834 20.138234,11.3107811 20.4990679,11.3107811 C20.6652869,11.3107811 20.8155767,11.3780359 20.93193,11.4852002 L21.5370981,12.4528616 C21.6520663,12.664973 21.8688436,12.8068733 22.1174796,12.8068733 C22.4893947,12.8068733 22.7955148,12.4831632 22.7955148,12.0833295 L22.7920519,9.59859578 C22.7719671,9.59859578 22.7283346,9.59416139 22.7283346,9.59416139 C22.5108647,9.56164257 22.3425679,9.36135618 22.3425679,9.12116033 C22.3425679,9.01916948 22.3695785,8.92604739 22.4194442,8.84918472 L23.394596,8.41609312 L20.1519393,8 C18.1406888,8 16.5117421,9.73901797 16.5117421,11.8845212 C16.5117421,12.123978 16.5304417,12.8246108 16.5726891,13.0529817 L10.2799128,13.0529817 C9.99872554,13.0529817 9.76948177,13.2946556 9.76948177,13.5954548 C9.76948177,13.8955148 9.99872554,14.1379278 10.2799128,14.1379278 L11.7107818,14.1379278 L10.5160823,19.3505474 C10.0645206,18.677999 9.71338283,17.9160238 9.50006838,17.0845767 C9.40934048,16.7320431 9.10737587,16.4851956 8.76454908,16.4851956 C8.69598372,16.4851956 8.62741836,16.4955425 8.5623159,16.5140191 C8.36562335,16.5716661 8.20148204,16.7076539 8.10036545,16.8968544 C7.99924886,17.0860548 7.97362342,17.3055568 8.02764461,17.514712 C9.00833702,21.3341956 12.2863152,24 15.9999259,24 C19.7142292,24 22.9915148,21.3327174 23.9722072,17.514712 C24.026921,17.3040787 23.9999104,17.0845767 23.8994864,16.8953762 C23.7983698,16.7061758 23.6342285,16.5709271 23.4382285,16.512541 Z M15.9999259,22.3688854 C14.4000675,22.3688854 12.9027109,21.7584184 11.7253259,20.7259458 C12.1166333,18.585616 13.8778627,16.9692826 15.9999259,16.9692826 C18.1219891,16.9692826 19.8832185,18.586355 20.2738333,20.7266848 C19.0978335,21.7584184 17.6004769,22.3688854 15.9999259,22.3688854 L15.9999259,22.3688854 Z"/>
  </g>
</svg>
