<svg width="32" height="32" viewBox="0 0 32 32">
  <g fill="none" fill-rule="evenodd">
    <circle cx="16" cy="16" r="16" fill="#3D3C36"/>
    <circle cx="16" cy="16" r="15" fill="#FFF" opacity=".4"/>
    <path fill="#3D3C36" d="M16,9 L7,14 L16,19 L21.2105263,16.21875 L21.2105263,20 C21.2105263,22 23.1052632,22 23.1052632,22 L23.1052632,21 C23.1052632,21 22.1578947,20.94281 22.1578947,20 L22.1578947,15.65625 L25,14 L16,9 Z M11.7368421,18 L11.7368421,20 C11.7368421,20.4967 12.0448213,21.1625 12.6842105,21.5 L16,23 L18.8421053,21.5 C19.4814946,21.1625 20.3078093,20.494459 20.2631579,20 L20.2631579,18 L16,20.1875 L11.7368421,18 Z"/>
  </g>
</svg>
