<svg width="40" height="40" viewBox="0 0 40 40">
  <g fill="none" fill-rule="evenodd">
    <path fill="#FFF" d="M21.2795551,37.5731166 C20.5728764,37.256593 19.4262588,37.2569804 18.7204449,37.5731166 L16.1031742,38.7453999 C15.3964954,39.0619235 14.4552348,38.8090943 14.0020501,38.1824054 L12.321569,35.858543 C11.867829,35.2310861 10.8746353,34.6581128 10.1053144,34.5789878 L7.25254993,34.2855797 C6.48228637,34.2063577 5.79354533,33.5167709 5.71442033,32.7474501 L5.42101219,29.8946856 C5.34179022,29.124422 4.76814595,28.1316157 4.14145704,27.678431 L1.81759457,25.9979499 C1.19013774,25.5442099 0.938463891,24.6026397 1.25460006,23.8968258 L2.42688342,21.2795551 C2.74340697,20.5728764 2.74301958,19.4262588 2.42688342,18.7204449 L1.25460006,16.1031742 C0.938076509,15.3964954 1.19090566,14.4552348 1.81759457,14.0020501 L4.14145704,12.321569 C4.76891387,11.867829 5.34188718,10.8746353 5.42101219,10.1053144 L5.71442033,7.25254993 C5.79364229,6.48228637 6.48322906,5.79354533 7.25254993,5.71442033 L10.1053144,5.42101219 C10.875578,5.34179022 11.8683843,4.76814595 12.321569,4.14145704 L14.0020501,1.81759457 C14.4557901,1.19013774 15.3973603,0.938463891 16.1031742,1.25460006 L18.7204449,2.42688342 C19.4271236,2.74340697 20.5737412,2.74301958 21.2795551,2.42688342 L23.8968258,1.25460006 C24.6035046,0.938076509 25.5447652,1.19090566 25.9979499,1.81759457 L27.678431,4.14145704 C28.132171,4.76891387 29.1253647,5.34188718 29.8946856,5.42101219 L32.7474501,5.71442033 C33.5177136,5.79364229 34.2064547,6.48322906 34.2855797,7.25254993 L34.5789878,10.1053144 C34.6582098,10.875578 35.231854,11.8683843 35.858543,12.321569 L38.1824054,14.0020501 C38.8098623,14.4557901 39.0615361,15.3973603 38.7453999,16.1031742 L37.5731166,18.7204449 C37.256593,19.4271236 37.2569804,20.5737412 37.5731166,21.2795551 L38.7453999,23.8968258 C39.0619235,24.6035046 38.8090943,25.5447652 38.1824054,25.9979499 L35.858543,27.678431 C35.2310861,28.132171 34.6581128,29.1253647 34.5789878,29.8946856 L34.2855797,32.7474501 C34.2063577,33.5177136 33.5167709,34.2064547 32.7474501,34.2855797 L29.8946856,34.5789878 C29.124422,34.6582098 28.1316157,35.231854 27.678431,35.858543 L25.9979499,38.1824054 C25.5442099,38.8098623 24.6026397,39.0615361 23.8968258,38.7453999 L21.2795551,37.5731166 Z" opacity=".4"/>
    <path fill="#3D3D36" d="M21.2791942,36.7229549 C20.5727148,36.4065207 19.4358931,36.4026652 18.7208058,36.7229549 L16.3616324,37.7796358 C15.6551529,38.09607 14.7202398,37.8517228 14.2611009,37.2168 L12.7463372,35.1221009 C12.2927252,34.4948211 11.3101365,33.9230713 10.5307078,33.8429067 L7.95926334,33.5784324 C7.18921703,33.4992328 6.50173217,32.8201654 6.42156757,32.0407367 L6.15709332,29.4692922 C6.0778937,28.6992459 5.51282185,27.7128017 4.87789908,27.2536628 L2.78319995,25.7388991 C2.1559201,25.2852871 1.90007446,24.353455 2.22036424,23.6383676 L3.27704506,21.2791942 C3.59347934,20.5727148 3.59733484,19.4358931 3.27704506,18.7208058 L2.22036424,16.3616324 C1.90392996,15.6551529 2.14827718,14.7202398 2.78319995,14.2611009 L4.87789908,12.7463372 C5.50517893,12.2927252 6.07692872,11.3101365 6.15709332,10.5307078 L6.42156757,7.95926334 C6.50076718,7.18921703 7.17983462,6.50173217 7.95926334,6.42156757 L10.5307078,6.15709332 C11.3007541,6.0778937 12.2871983,5.51282185 12.7463372,4.87789908 L14.2611009,2.78319995 C14.7147129,2.1559201 15.646545,1.90007446 16.3616324,2.22036424 L18.7208058,3.27704506 C19.4272852,3.59347934 20.5641069,3.59733484 21.2791942,3.27704506 L23.6383676,2.22036424 C24.3448471,1.90392996 25.2797602,2.14827718 25.7388991,2.78319995 L27.2536628,4.87789908 C27.7072748,5.50517893 28.6898635,6.07692872 29.4692922,6.15709332 L32.0407367,6.42156757 C32.810783,6.50076718 33.4982678,7.17983462 33.5784324,7.95926334 L33.8429067,10.5307078 C33.9221063,11.3007541 34.4871782,12.2871983 35.1221009,12.7463372 L37.2168,14.2611009 C37.8440799,14.7147129 38.0999255,15.646545 37.7796358,16.3616324 L36.7229549,18.7208058 C36.4065207,19.4272852 36.4026652,20.5641069 36.7229549,21.2791942 L37.7796358,23.6383676 C38.09607,24.3448471 37.8517228,25.2797602 37.2168,25.7388991 L35.1221009,27.2536628 C34.4948211,27.7072748 33.9230713,28.6898635 33.8429067,29.4692922 L33.5784324,32.0407367 C33.4992328,32.810783 32.8201654,33.4982678 32.0407367,33.5784324 L29.4692922,33.8429067 C28.6992459,33.9221063 27.7128017,34.4871782 27.2536628,35.1221009 L25.7388991,37.2168 C25.2852871,37.8440799 24.353455,38.0999255 23.6383676,37.7796358 L21.2791942,36.7229549 Z"/>
    <polygon fill="#FFF" points="20 34.45 15.6 36.421 12.775 32.514 7.979 32.021 7.486 27.225 3.579 24.4 5.55 20 3.579 15.6 7.486 12.775 7.979 7.979 12.775 7.486 15.6 3.579 20 5.55 24.4 3.579 27.225 7.486 32.021 7.979 32.514 12.775 36.421 15.6 34.45 20 36.421 24.4 32.514 27.225 32.021 32.021 27.225 32.514 24.4 36.421" opacity=".4"/>
    <path fill="#3D3C36" d="M29.2977856,20.6406762 C29.2146761,20.6175805 29.1307009,20.6046469 29.0441284,20.6046469 C28.6164607,20.6046469 28.2372734,20.9132062 28.1238636,21.3538732 C27.8702064,22.3442191 27.4624503,23.2597349 26.9352242,24.0708578 C26.3993409,21.5986882 24.8074569,15.196262 24.8074569,15.0114959 C24.8074569,14.5311042 25.1727925,14.1384764 25.6238349,14.1384764 C25.8316087,14.1384764 26.0194708,14.2225449 26.1649125,14.3565003 L26.9213726,15.566077 C27.0650828,15.8312162 27.3360545,16.0085916 27.6468495,16.0085916 C28.1117434,16.0085916 28.4943935,15.603954 28.4943935,15.1041619 L28.4900649,11.9982447 C28.4649589,11.9982447 28.4104183,11.9927017 28.4104183,11.9927017 C28.1385809,11.9520532 27.9282099,11.7016952 27.9282099,11.4014504 C27.9282099,11.2739618 27.9619731,11.1575592 28.0243053,11.0614809 L29.243245,10.5201164 L25.1899242,10 C22.675861,10 20.6396776,12.1737725 20.6396776,14.8556515 C20.6396776,15.1549725 20.6630522,16.0307635 20.7158613,16.3162271 L12.849891,16.3162271 C12.4984069,16.3162271 12.2118522,16.6183196 12.2118522,16.9943184 C12.2118522,17.3693935 12.4984069,17.6724098 12.849891,17.6724098 L14.6384772,17.6724098 L13.1451029,24.1881842 C12.5806507,23.3474987 12.1417285,22.3950298 11.8750855,21.3557208 C11.7616756,20.9150538 11.3842198,20.6064945 10.9556863,20.6064945 C10.8699796,20.6064945 10.7842729,20.6194281 10.7028949,20.6425239 C10.4570292,20.7145827 10.2518525,20.8845674 10.1254568,21.1210679 C9.99906107,21.3575685 9.96702928,21.631946 10.0345558,21.89339 C11.2604213,26.6677445 15.3578941,30 19.9999074,30 C24.6427864,30 28.7393935,26.6658968 29.965259,21.89339 C30.0336512,21.6300984 29.999888,21.3557208 29.874358,21.1192203 C29.7479622,20.8827198 29.5427856,20.7136588 29.2977856,20.6406762 Z M19.9999074,27.9611067 C18.0000844,27.9611067 16.1283886,27.198023 14.6566574,25.9074322 C15.1457916,23.23202 17.3473283,21.2116033 19.9999074,21.2116033 C22.6524864,21.2116033 24.8540232,23.2329438 25.3422916,25.908356 C23.8722919,27.198023 22.0005961,27.9611067 19.9999074,27.9611067 L19.9999074,27.9611067 Z"/>
  </g>
</svg>
