<svg width="32" height="32" viewBox="0 0 32 32">
  <g fill="none" fill-rule="evenodd">
    <circle cx="16" cy="16" r="16" fill="#3D3C36"/>
    <circle cx="16" cy="16" r="15" fill="#FFF" opacity=".4"/>
    <path fill="#3D3C36" d="M17.9285714,8 C17.0975714,8 16.4285714,8.69377461 16.4285714,9.55554845 C16.4285714,10.4173223 17.0975714,11.1110969 17.9285714,11.1110969 C18.7595714,11.1110969 19.4285714,10.4173223 19.4285714,9.55554845 C19.4285714,8.69377461 18.7595714,8 17.9285714,8 L17.9285714,8 Z M11.0714286,9.77776966 C10.2404286,9.77776966 9.57142857,10.4715443 9.57142857,11.3333181 C9.57142857,12.195092 10.2404286,12.8888666 11.0714286,12.8888666 C11.9024286,12.8888666 12.5714286,12.195092 12.5714286,11.3333181 C12.5714286,10.4715443 11.9024286,9.77776966 11.0714286,9.77776966 L11.0714286,9.77776966 Z M19,11.5555393 C18.6805617,11.5555393 18.1545074,11.6750943 17.7142857,11.9999817 L14.9285714,14.0555279 C14.1727394,14.6133031 14.8662743,15.5948987 15.5714286,15.1110787 L17.3928571,13.8610844 C17.3928571,13.8610844 18.5937511,16.5315166 18.1428571,17.7777331 C18.1277971,17.8193596 18.1149914,17.8571372 18.1160714,17.8888437 L16.2410714,23.0554868 C16.0259791,23.6502646 16.4397451,24.0058576 16.8571429,23.999927 C17.1308457,23.9960159 17.3926677,23.8283411 17.5267857,23.4999292 L19.8571429,17.7777331 C19.8571429,17.7777331 20.2857143,20.4442099 22,20.4443876 C23.0301571,20.4444765 23.785714,20.4443876 24.3571429,20.4443876 C25,20.4443876 25,19.777724 25,19.777724 C25,19.777724 25,19.1110604 24.3571429,19.1110604 C23.9285714,19.1110604 22.8571429,19.1108826 22.4285714,19.1110604 C21.5138397,19.1114159 21.5714286,17.6866225 21.5714286,16.8888483 C21.5714286,15.5553433 20.7142857,13.333309 20.7142857,13.333309 L23.2857143,15.1110787 C24.0626234,15.6482318 24.7355903,14.697125 23.9821429,14.1110832 L21.1428571,11.9999817 C20.6255517,11.6178502 20.459866,11.5556282 19.8571429,11.5555393 L19,11.5555393 L19,11.5555393 Z M10,13.333309 C9.57142857,13.333309 9.36873486,13.5435303 9.14285714,13.7777514 L7.32142857,15.6666317 C7.08691429,15.9098306 7,16.1275185 7,16.4444059 C7,16.8888483 7.65513743,17.0982696 8.01785714,16.7221824 L9.57142857,15.1110787 C10.4285714,15.1110787 10.75,17.3332907 10.4285714,18.2221756 L9.14285714,21.7777149 C8.78674771,22.7625104 10.1236549,23.0653535 10.4285714,22.2221573 L11.7142857,18.666618 C11.7142857,18.666618 12.1428571,19.5555028 13,19.5555028 L15.5714286,19.5555028 C16.4285714,19.5555028 16.4285714,18.2221756 15.5714286,18.2221756 L13.4285714,18.2221756 C13,18.2221756 13,17.3332907 13,16.8888483 C13,15.1110787 12.1428571,13.333309 11.2857143,13.333309 L10,13.333309 Z"/>
  </g>
</svg>
