<svg width="32" height="32" viewBox="0 0 32 32">
  <g fill="none" fill-rule="evenodd">
    <circle cx="16" cy="16" r="16" fill="#3D3C36"/>
    <circle cx="16" cy="16" r="15" fill="#FFF" opacity=".4"/>
    <path fill="#3D3C36" d="M20.8,18 L19.0222222,18 L19.0222222,22 L20.8,22 L20.8,18 Z M22.9333333,18 L22.9333333,22 L24,22 L24,24 L8,24 L8,22 L9.06666667,22 L9.06666667,18 L8,18 L8,16 L24,16 L24,18 L22.9333333,18 Z M16.8888889,18 L15.1111111,18 L15.1111111,22 L16.8888889,22 L16.8888889,18 Z M12.9777778,18 L11.2,18 L11.2,22 L12.9777778,22 L12.9777778,18 Z M16.5333333,12.2666667 L24,16 L8,16 L15.4666667,12.2666667 L15.4666667,8 L16.5333333,8 L16.5333333,12.2666667 Z M16,16 C16.5891037,16 17.0666667,15.5522847 17.0666667,15 C17.0666667,14.4477153 16.5891037,14 16,14 C15.4108963,14 14.9333333,14.4477153 14.9333333,15 C14.9333333,15.5522847 15.4108963,16 16,16 Z M16.5333333,9 L18.6666667,8.5 L20.8,9 L20.8,11 L18.6666667,10.5 L16.5333333,11 L16.5333333,9 Z"/>
  </g>
</svg>
