<svg width="32" height="32" viewBox="0 0 32 32">
  <g fill="none" fill-rule="evenodd">
    <circle cx="16" cy="16" r="16" fill="#3D3C36"/>
    <circle cx="16" cy="16" r="15" fill="#FFF" opacity=".4"/>
    <path fill="#3D3C36" d="M24.2411579,12.99 C24.1369474,11.89 23.2037895,11 22.1578947,11 L9.84210526,11 C8.79621053,11 7.86305263,11.891 7.75884211,12.99 L7,21 L25,21 L24.2411579,12.99 L24.2411579,12.99 Z M23.1052632,19 L20.2631579,19 L20.2631579,16 L17.4210526,16 L17.4210526,19 L14.5789474,19 L14.5789474,16 L11.7368421,16 L11.7368421,19 L8.89473684,19 L8.89473684,16 L11.7368421,16 L11.7368421,13 L14.5789474,13 L14.5789474,15.9 L17.4210526,15.9 L17.4210526,13 L20.2631579,13 L20.2631579,16 L23.1052632,16 L23.1052632,19 L23.1052632,19 Z"/>
  </g>
</svg>
