<svg width="32" height="32" viewBox="0 0 32 32">
  <g fill="none" fill-rule="evenodd">
    <circle cx="16" cy="16" r="16" fill="#3D3C36"/>
    <circle cx="16" cy="16" r="15" fill="#FFF" opacity=".4"/>
    <path fill="#3D3C36" d="M23.5668867,20.1940706 L23.0200487,19.2555266 C22.1405867,17.7436059 20.2083539,17.2182775 18.6711792,18.0553862 L17.1200107,21.818104 L17.2760964,22.1960842 L17.296549,22.1672552 C17.3406835,22.2644196 17.3740536,22.3647872 17.4289527,22.4587484 L17.9757907,23.3972924 C18.8670937,24.9295001 20.8413081,25.4548285 22.3870944,24.5707393 C23.9296513,23.6855823 24.4581896,21.7262783 23.5668867,20.1940706 L23.5668867,20.1940706 Z M21.7035469,23.2510119 C21.4753389,23.382344 21.2159137,23.4517472 20.9532592,23.4517472 C20.4150328,23.4517472 19.9134058,23.1645249 19.6464455,22.7043287 L18.9994974,21.5949463 C18.5829101,20.8795601 18.8304943,19.9645064 19.5495647,19.5534262 C19.7777727,19.4220941 20.0382743,19.352691 20.3009288,19.352691 C20.8380788,19.352691 21.3386293,19.6399132 21.6077425,20.1001094 L22.2546907,21.2105596 C22.6702015,21.9238104 22.4226173,22.8399318 21.7035469,23.2510119 L21.7035469,23.2510119 Z M19.840207,7 L16.0004998,13.5986369 L12.1597161,7 L11.2275079,7.5338703 L14.6710805,15.882534 L13.3911781,18.0831474 C11.8453919,17.1979905 9.87117738,17.7233188 8.97987444,19.2555266 L8.43303641,20.1940706 C7.54173346,21.7273461 8.0702718,23.6866501 9.61498161,24.5707393 C11.1607679,25.4548285 13.1349824,24.9295001 14.0262853,23.3972924 L14.5731233,22.4587484 C14.626946,22.3669227 14.6592396,22.2686906 14.7022977,22.1736617 L14.7249032,22.1960842 L20.7734916,7.53493804 L19.840207,7 L19.840207,7 Z M12.9821261,21.5928108 L12.3427131,22.6893804 C12.0779057,23.1463733 11.5827374,23.4293246 11.0498932,23.4293246 C10.7893916,23.4293246 10.5331959,23.3609892 10.3071408,23.2307249 C9.59560546,22.8217802 9.35017421,21.9152684 9.76137919,21.2084242 L10.4007922,20.1118546 C10.6655996,19.6548616 11.1618443,19.3708426 11.693612,19.3708426 C11.9541136,19.3708426 12.2113858,19.439178 12.4385174,19.5705101 C13.1489762,19.9794547 13.393331,20.8859665 12.9821261,21.5928108 L12.9821261,21.5928108 Z"/>
  </g>
</svg>
