<svg width="32" height="32" viewBox="0 0 32 32">
  <g fill="none" fill-rule="evenodd">
    <circle cx="16" cy="16" r="16" fill="#3D3C36"/>
    <circle cx="16" cy="16" r="15" fill="#FFF" opacity=".4"/>
    <path fill="#3D3C36" d="M16,9.00000003 C15.5263158,8.99990003 15.3121215,9.23940003 15.1710526,9.50000003 L9.27960526,21 L8.00657895,21 C7.45086855,21 7,21.446005 7,22 C7,22.553995 7.45086855,23 8.00657895,23 L9.84210526,23 L22.1578947,23 L23.9934211,23 C24.5491313,23 25,22.553995 25,22 C25,21.446005 24.5491313,21 23.9934211,21 L22.7203947,21 L16.8289474,9.50000003 C16.6878785,9.23940003 16.4736842,8.99990003 16,9.00000003 L16,9.00000003 Z M16,14 L19.3157895,21 L12.6842105,21 L16,14 Z"/>
  </g>
</svg>
