<svg width="32" height="32" viewBox="0 0 32 32">
  <g fill="none" fill-rule="evenodd">
    <circle cx="16" cy="16" r="16" fill="#3D3C36"/>
    <circle cx="16" cy="16" r="15" fill="#FFF" opacity=".4"/>
    <path fill="#3D3C36" fill-rule="nonzero" d="M15.5736412,8 C15.3786888,8 15.1745936,8.0686 15.0260221,8.225 L11.8117364,11.625 C11.5138317,11.937 11.5138317,12.4372 11.8117364,12.75 C12.1096412,13.0628 12.5860221,13.0628 12.883165,12.75 L16.1212602,9.375 C16.419165,9.0622 16.419165,8.537 16.1212602,8.225 C15.9723078,8.0686 15.7685936,8 15.5736412,8 Z M16.6450698,9.925 L13.4069745,13.325 C13.4069745,13.325 13.3820221,13.9642 14.0022126,14.925 L8.45459356,20.75 C7.92735547,21.3036 7.84145071,22.1312 8.2879269,22.6 C8.73440309,23.0688 9.52259356,23.0036 10.0498317,22.45 L15.6212602,16.625 C16.5713555,17.3218 17.1926888,17.275 17.1926888,17.275 L20.430784,13.9 C20.430784,13.9008 20.4877364,12.8348 19.0736412,11.35 C17.6595459,9.8652 16.6450698,9.925 16.6450698,9.925 Z M21.5022126,14.225 C21.3072602,14.225 21.1035459,14.2936 20.9545936,14.45 L17.7164983,17.85 C17.4185936,18.162 17.4185936,18.6622 17.7164983,18.975 C18.0136412,19.287 18.5145936,19.287 18.8117364,18.975 L22.0260221,15.6 C22.3239269,15.288 22.3239269,14.7628 22.0260221,14.45 C21.8774507,14.2936 21.697165,14.225 21.5022126,14.225 Z M16.383165,22.4 C15.5412602,22.4 14.8593555,23.116 14.8593555,24 L23.2403078,24 C23.2403078,23.116 22.5584031,22.4 21.7164983,22.4 L16.383165,22.4 Z"/>
  </g>
</svg>
