<svg width="32" height="32" viewBox="0 0 32 32">
  <g fill="none" fill-rule="evenodd">
    <circle cx="16" cy="16" r="16" fill="#3D3C36"/>
    <circle cx="16" cy="16" r="15" fill="#FFF" opacity=".4"/>
    <path fill="#3D3C36" d="M23,14.4009068 L9,14.4009068 C9,16.4465651 10.0790769,18.2612959 11.7472308,19.4180419 L9,26 L11.1538462,26 L11.5943077,24.945537 L18.0795385,24.945537 L17.1996923,22.836611 L12.4752308,22.836611 L13.5284615,20.313281 C14.2963077,20.5768967 15.1276923,20.7276849 16,20.7276849 C16.8723077,20.7276849 17.7036923,20.5768967 18.4726154,20.313281 L20.8461538,26 L23,26 L20.2527692,19.4180419 C21.9209231,18.2612959 23,16.4465651 23,14.4009068 L23,14.4009068 Z M15.8255385,13.285285 C19.5172308,11.2375178 15.8007692,7.93810302 16.4727692,6 C14.0001538,8.43264617 17.0715385,12.0136026 15.8255385,13.285285 L15.8255385,13.285285 Z M19.0563077,13.285285 C22.748,11.8617599 19.0315385,9.56830284 19.7035385,8.22069911 C17.2309231,9.91205778 20.3023077,12.401645 19.0563077,13.285285 L19.0563077,13.285285 Z M12.5947692,13.285285 C16.2864615,11.8617599 12.57,9.56830284 13.242,8.22069911 C10.7693846,9.91205778 13.8407692,12.401645 12.5947692,13.285285 L12.5947692,13.285285 Z"/>
  </g>
</svg>
