<?xml version="1.0" encoding="UTF-8"?>
<svg width="19" height="19" version="1.1" viewBox="0 0 19 19" xml:space="preserve" xmlns="http://www.w3.org/2000/svg">
 <path d="m9.5005 1.6304c-2.0687 0-3.7484 1.6797-3.7484 3.7484h-1.4976c-0.8245 0-1.4932 0.6731-1.4932 1.4976l-0.0066 8.9944c0 0.8245 0.6753 1.4998 1.4998 1.4998h10.492c0.8245 0 1.4998-0.6753 1.4998-1.4998v-8.9944c0-0.8245-0.6753-1.4976-1.4998-1.4976h-1.4976c0-2.0687-1.6797-3.7484-3.7484-3.7484zm0 1.4998c1.2443 0 2.2486 1.0044 2.2486 2.2486h-4.4972c0-1.2443 1.0044-2.2486 2.2486-2.2486zm-0.5446 3.8099a0.2089 0.2089 0 0 1 0.2328 0.1998l0.0373 1.0716a0.2089 0.2089 0 0 1-0.1779 0.213c-0.602 0.091-1.1811 0.3674-1.6447 0.8344-1.0808 1.0887-1.1337 2.8022-0.191 3.9768l1.0211-1.0277a0.2089 0.2089 0 0 1 0.3557 0.1471l0.0066 3.0062a0.2089 0.2089 0 0 1-0.2196 0.2086l-2.8393-0.1537a0.2089 0.2089 0 0 1-0.1383-0.3557l0.7686-0.7774c-1.5133-1.7565-1.4595-4.4079 0.1932-6.0717 0.7268-0.7323 1.646-1.1562 2.5956-1.2715zm1.6733 0.2372 2.8393 0.1559a0.2089 0.2089 0 0 1 0.1361 0.3557l-0.7686 0.7751c1.5147 1.7555 1.4637 4.4087-0.1888 6.0738a0.2089 0.2089 0 0 0-0.0022 0c-0.7276 0.7319-1.6484 1.154-2.5977 1.2692a0.2089 0.2089 0 0 1-0.2328-0.1998l-0.0351-1.0694a0.2089 0.2089 0 0 1 0.1779-0.213c0.6016-0.091 1.1793-0.3695 1.6425-0.8366a0.2089 0.2089 0 0 0 0.0022 0c1.0808-1.0877 1.134-2.7992 0.191-3.9746l-1.0211 1.0277a0.2089 0.2089 0 0 1-0.3557-0.1471l-0.0066-3.0084a0.2089 0.2089 0 0 1 0.2196-0.2086z" fill="#fff"/>
</svg>
