<svg width="24" height="24" viewBox="0 0 24 24" fill="none" xmlns="http://www.w3.org/2000/svg">
<path d="M6.03578 20C6.24398 20 6.44218 19.964 6.63037 19.8919C6.81855 19.8198 7.01274 19.7237 7.21294 19.6036L18.0238 13.3814C18.4642 13.1251 18.7685 12.8989 18.9367 12.7027C19.1048 12.5065 19.1889 12.2723 19.1889 12C19.1889 11.7277 19.1048 11.4935 18.9367 11.2973C18.7685 11.1011 18.4642 10.8749 18.0238 10.6186L7.21294 4.39639C7.01274 4.27627 6.81855 4.18017 6.63037 4.10809C6.44218 4.03603 6.24398 4 6.03578 4C5.6594 4 5.3611 4.13413 5.14088 4.40239C4.92066 4.67067 4.81055 5.02903 4.81055 5.47746V18.5225C4.81055 18.971 4.92066 19.3293 5.14088 19.5976C5.3611 19.8659 5.6594 20 6.03578 20Z" fill="black"/>
</svg>
