<?xml version="1.0" encoding="UTF-8"?>
<svg width="24" height="24" version="1.1" viewBox="0 0 24 24" xmlns="http://www.w3.org/2000/svg">
 <path d="m14 9.9v-1.7q0.825-0.35 1.6875-0.525t1.8125-0.175q0.65 0 1.275 0.1t1.225 0.25v1.6q-0.6-0.225-1.2125-0.3375t-1.2875-0.1125q-0.95 0-1.825 0.2375t-1.675 0.6625zm0 5.5v-1.7q0.825-0.35 1.6875-0.525t1.8125-0.175q0.65 0 1.275 0.1t1.225 0.25v1.6q-0.6-0.225-1.2125-0.3375t-1.2875-0.1125q-0.95 0-1.825 0.225t-1.675 0.675zm0-2.75v-1.7q0.825-0.35 1.6875-0.525t1.8125-0.175q0.65 0 1.275 0.1t1.225 0.25v1.6q-0.6-0.225-1.2125-0.3375t-1.2875-0.1125q-0.95 0-1.825 0.2375t-1.675 0.6625zm-7.5 3.35q1.175 0 2.2875 0.2625t2.2125 0.7875v-9.85q-1.025-0.6-2.175-0.9t-2.325-0.3q-0.9 0-1.7875 0.175t-1.7125 0.525v9.9q0.875-0.3 1.7375-0.45t1.7625-0.15zm6.5 1.05q1.1-0.525 2.2125-0.7875t2.2875-0.2625q0.9 0 1.7625 0.15t1.7375 0.45v-9.9q-0.825-0.35-1.7125-0.525t-1.7875-0.175q-1.175 0-2.325 0.3t-2.175 0.9zm-1 2.95q-1.2-0.95-2.6-1.475t-2.9-0.525q-1.05 0-2.0625 0.275t-1.9375 0.775q-0.525 0.275-1.0125-0.025t-0.4875-0.875v-12.05q0-0.275 0.1375-0.525t0.4125-0.375q1.15-0.6 2.4-0.9t2.55-0.3q1.45 0 2.8375 0.375t2.6625 1.125q1.275-0.75 2.6625-1.125t2.8375-0.375q1.3 0 2.55 0.3t2.4 0.9q0.275 0.125 0.4125 0.375t0.1375 0.525v12.05q0 0.575-0.4875 0.875t-1.0125 0.025q-0.925-0.5-1.9375-0.775t-2.0625-0.275q-1.5 0-2.9 0.525t-2.6 1.475z"/>
</svg>
