<?xml version="1.0" encoding="UTF-8"?>
<svg width="19" height="19" version="1.1" viewBox="0 0 19 19" xml:space="preserve" xmlns="http://www.w3.org/2000/svg">
 <path d="m16.375 12.5h-3.8749v3.8749c0 0.75625-0.61875 1.375-1.375 1.375h-3.25c-0.75625 0-1.375-0.61875-1.375-1.375v-3.8749h-3.8751c-0.75625 0-1.375-0.61875-1.375-1.375v-3.25c0-0.75625 0.61875-1.375 1.375-1.375h3.8751v-3.8749c0-0.75625 0.61875-1.375 1.375-1.375h3.25c0.75625 0 1.375 0.61875 1.375 1.375v3.8749h3.8749c0.75625 0 1.375 0.61875 1.375 1.375v3.25c0 0.75625-0.61875 1.375-1.375 1.375z" fill="#fff"/>
</svg>
