<svg width="24" height="24" viewBox="0 0 24 24" fill="none" xmlns="http://www.w3.org/2000/svg">
<path fill-rule="evenodd" clip-rule="evenodd" d="M15.764 4C16.9001 4.00004 17.9388 4.64188 18.447 5.658L19.833 8.429C20.077 8.329 20.317 8.221 20.553 8.105C21.7463 7.509 22.6403 9.299 21.447 9.895C21.2066 10.002 20.9649 10.106 20.722 10.207L21.683 12.13C21.8916 12.547 22.0001 13.0068 22 13.473V16C22 16.889 21.614 17.687 21 18.236V19.5C21 21.5 18 21.5 18 19.5V19H6V19.5C6 21.5 3 21.5 3 19.5V18.236C2.386 17.686 2 16.888 2 16V13.472C2.00019 13.0065 2.10872 12.5473 2.317 12.131L3.27 10.223C3.029 10.121 2.79 10.013 2.555 9.896C2.06364 9.64614 1.86338 9.04846 2.105 8.553C2.35171 8.05852 2.95272 7.85788 3.447 8.105C3.683 8.222 3.924 8.329 4.167 8.429L5.553 5.659C6.06095 4.64249 7.09964 4.00023 8.236 4H15.764ZM6.5 13C4.5 13 4.5 16 6.5 16C8.5 16 8.5 13 6.5 13ZM17.5 13C15.5 13 15.5 16 17.5 16C19.5 16 19.5 13 17.5 13ZM15.764 6H8.236C7.90172 5.99995 7.58952 6.16693 7.404 6.445L7.342 6.553L6.072 9.091C7.62 9.555 9.706 10 12 10C14.142 10 16.101 9.612 17.61 9.183L17.927 9.091L16.658 6.553C16.5085 6.25408 16.2196 6.04958 15.888 6.008L15.765 6H15.764Z" fill="#0000FF"/>
</svg>
