<svg width="25" height="25" viewBox="0 0 25 25" fill="none" xmlns="http://www.w3.org/2000/svg">
<path d="M9.83337 3.5H4.83337C4.28109 3.5 3.83337 3.94772 3.83337 4.5V9.5C3.83337 10.0523 4.28109 10.5 4.83337 10.5H9.83337C10.3857 10.5 10.8334 10.0523 10.8334 9.5V4.5C10.8334 3.94772 10.3857 3.5 9.83337 3.5Z" fill="white" stroke="white" stroke-width="2" stroke-linecap="round" stroke-linejoin="round"/>
<path d="M9.83337 14.5H4.83337C4.28109 14.5 3.83337 14.9477 3.83337 15.5V20.5C3.83337 21.0523 4.28109 21.5 4.83337 21.5H9.83337C10.3857 21.5 10.8334 21.0523 10.8334 20.5V15.5C10.8334 14.9477 10.3857 14.5 9.83337 14.5Z" fill="white" stroke="white" stroke-width="2" stroke-linecap="round" stroke-linejoin="round"/>
<path d="M14.8334 4.5H21.8334" stroke="white" stroke-width="2" stroke-linecap="round" stroke-linejoin="round"/>
<path d="M14.8334 9.5H21.8334" stroke="white" stroke-width="2" stroke-linecap="round" stroke-linejoin="round"/>
<path d="M14.8334 15.5H21.8334" stroke="white" stroke-width="2" stroke-linecap="round" stroke-linejoin="round"/>
<path d="M14.8334 20.5H21.8334" stroke="white" stroke-width="2" stroke-linecap="round" stroke-linejoin="round"/>
</svg>
