<svg width="28" height="28" fill="none" xmlns="http://www.w3.org/2000/svg">
  <path d="M9.049 8c-.305 0-.555.1-.752.297A1.018 1.018 0 0 0 8 9.049c0 .305.1.556.297.754L12.494 14l-4.197 4.197a1.022 1.022 0 0 0-.297.754c0 .305.1.555.297.752.197.197.447.297.752.297s.556-.1.754-.297L14 15.506l4.197 4.197c.198.197.45.297.754.297.305 0 .555-.1.752-.297.197-.197.297-.447.297-.752s-.1-.556-.297-.754L15.506 14l4.197-4.197c.197-.198.297-.45.297-.754 0-.305-.1-.555-.297-.752A1.018 1.018 0 0 0 18.951 8c-.305 0-.556.1-.754.297L14 12.494 9.803 8.297A1.022 1.022 0 0 0 9.049 8Z" style="fill:#000"/>
</svg>
