<?xml version="1.0" encoding="UTF-8"?>
<svg width="19" height="19" version="1.1" viewBox="0 0 19 19" xml:space="preserve" xmlns="http://www.w3.org/2000/svg">
 <path d="m2.749 3.407c-0.87021 0-1.593 0.72281-1.593 1.593v8.2485c4.6e-5 0.46598 0.37778 0.84371 0.84375 0.84375h0.81519c0.34245 0.87347 1.1966 1.5008 2.184 1.5008 0.98681 0 1.8411-0.62606 2.184-1.4985h4.6319c0.34295 0.87249 1.1972 1.4985 2.184 1.4985 0.98685 0 1.8411-0.62606 2.184-1.4985h0.81519c0.46598-4.5e-5 0.84371-0.37778 0.84375-0.84375v-3.7332c7.94e-4 -0.00585 0.0015-0.0117 0.0022-0.017581-8.4e-5 -0.027885-0.0015-0.055755-0.0044-0.083506-0.01553-1.58-0.46963-3.024-1.2524-4.1199-0.79662-1.1152-1.983-1.8897-3.3377-1.8897zm0.09447 1.5267h2.0963v3.2304h-2.0963zm3.6606 0h2.1512v3.2304h-2.1512zm3.7073 0h1.6059l0.65919 3.2304h-2.265zm3.0218 0c2.4936 0.39081 3.1461 2.933 3.2253 4.5113l-2.1516-0.026295zm-8.2341 7.3262c0.56208 0 0.99096 0.42668 0.99096 0.98877 0 0.5621-0.42888 0.99096-0.99096 0.99096s-0.99096-0.42888-0.99096-0.99096c0-0.56208 0.42888-0.98877 0.99096-0.98877zm9 0c0.5621 0 0.99096 0.42668 0.99096 0.98877 0 0.56208-0.42888 0.99096-0.99096 0.99096s-0.99096-0.42888-0.99096-0.99096c0-0.56208 0.42888-0.98877 0.99096-0.98877z" fill="#fff"/>
</svg>
