<?xml version="1.0" encoding="UTF-8"?>
<svg width="19" height="19" version="1.1" viewBox="0 0 19 19" xml:space="preserve" xmlns="http://www.w3.org/2000/svg">
 <path d="m9.1963 2.7501c-0.83175 0-1.506 0.63616-1.506 1.421 0 0.78488 0.67424 1.421 1.506 1.421 0.83175 0 1.506-0.63616 1.506-1.421 0-0.78488-0.67424-1.421-1.506-1.421zm-4.3297 2.842 0.3765 1.4211c0.18824 0.71051 0.6379 0.71051 1.2001 0.71051h1.2471c0.44709 0.71051 0.23694 1.8656 0.3765 2.9514h-0.6824c-0.753 0-1.9531 0.71051-1.2001 2.1316l1.1295 2.1316c0.753 1.421 1.8824 0.35526 1.506-0.35526l-1.1295-2.1316c-0.18824-0.35526 0.19902-0.35526 0.3765-0.35526h1.8584s0.89138 1.7577 1.9413 3.0373c0.38758 0.47229 0.8169 1.1165 1.3543 1.1165 0.37648 0 1.0216-0.54904 0.33501-1.3222-1.2859-1.448-2.1004-2.9409-2.1004-3.6514 0-0.82643-0.15386-2.5669-0.37648-3.5526h1.1295c0.36746 0.69494 1.0124 1.7763 1.0124 1.7763 0.4162 0.6803 1.1006 0.62889 1.1006 0 0-0.08619-0.011-0.27176-0.1051-0.48092l-1.0666-2.3611c-0.06966-0.15411-0.19082-0.35526-0.753-0.35526h-5.8357l-0.56474-1.7764c-0.22589-0.71051-1.3178-0.71051-1.3178 0 0 0.35526 0.1334 0.7866 0.18824 1.0658z" fill="#fff"/>
</svg>
