<svg xmlns="http://www.w3.org/2000/svg" width="24" height="24"><path d="M13 2c-1.645 0-3 1.355-3 3 0 .743.276 1.427.73 1.953L5.533 16.05A2.956 2.956 0 0 0 5 16c-1.645 0-3 1.355-3 3s1.355 3 3 3 3-1.355 3-3c0-.743-.276-1.427-.73-1.953l5.197-9.096a2.956 2.956 0 0 0 1.01.01L16.77 14A2.987 2.987 0 0 0 16 16c0 1.645 1.355 3 3 3s3-1.355 3-3-1.355-3-3-3c-.162 0-.32.014-.477.04L15.23 7A2.987 2.987 0 0 0 16 5c0-1.645-1.355-3-3-3zm0 1.5A1.5 1.5 0 0 1 14.5 5 1.5 1.5 0 0 1 13 6.5 1.5 1.5 0 0 1 11.5 5 1.5 1.5 0 0 1 13 3.5zm6 11a1.5 1.5 0 0 1 1.5 1.5 1.5 1.5 0 0 1-1.5 1.5 1.5 1.5 0 0 1-1.5-1.5 1.5 1.5 0 0 1 1.5-1.5zm-14 3A1.5 1.5 0 0 1 6.5 19 1.5 1.5 0 0 1 5 20.5 1.5 1.5 0 0 1 3.5 19 1.5 1.5 0 0 1 5 17.5z" style="baseline-shift:baseline;display:inline;overflow:visible;opacity:1;vector-effect:none;stroke-linecap:round;stroke-linejoin:round;paint-order:markers stroke fill;enable-background:accumulate;stop-color:#000;stop-opacity:1"/></svg>