<svg xmlns="http://www.w3.org/2000/svg" width="24" height="24">
    <g transform="translate(0 -1028.362) translate(-84 -262)">
        <g>
            <path d="m 91.5,1294.3622 c -0.277,0 -0.5,0.223 -0.5,0.5 0,0.277 0.223,0.5 0.5,0.5 l 4,0 -0.5,3 0,1 -7,2 0,2 7,0 0,4 -2.5,1 0,1 8,0 0,-1 -2.5,-1 0,-1.9687 0,-2.0313 7,0 0,-2 -7,-2 0,-1 -0.5,-3 4,0 c 0.277,0 0.5,-0.223 0.5,-0.5 0,-0.277 -0.223,-0.5 -0.5,-0.5 z" opacity=".3" color="#000" fill="#fff" stroke="#fff" stroke-width="2" stroke-linejoin="round" overflow="visible" enable-background="accumulate"/>
            <path d="m 91.5,1294.3622 c -0.277,0 -0.5,0.223 -0.5,0.5 0,0.277 0.223,0.5 0.5,0.5 l 4,0 -0.5,3 0,1 -7,2 0,2 7,0 0,4 -2.5,1 0,1 8,0 0,-1 -2.5,-1 0,-1.9687 0,-2.0313 7,0 0,-2 -7,-2 0,-1 -0.5,-3 4,0 c 0.277,0 0.5,-0.223 0.5,-0.5 0,-0.277 -0.223,-0.5 -0.5,-0.5 z" fill="#444"/>
        </g>
        <rect y="1290.362" x="84" height="24" width="24" opacity=".5" color="#000" overflow="visible" enable-background="accumulate" fill="none"/>
    </g>
</svg>
