<svg xmlns="http://www.w3.org/2000/svg" width="12" height="12">
    <g transform="translate(0 -1040.362) translate(-126 -250)">
        <g>
            <path d="m 131.25,1292.8622 c -0.1385,0 -0.25,0.1115 -0.25,0.25 0,0.1385 0.1115,0.25 0.25,0.25 l 2,0 -0.25,1 0,1 -4,1 0,1 4,0 0,2 -1,0.5 0,0.5 3,0 0,-0.5 -1,-0.5 0,-2 4,0 0,-1 -4,-1 0,-1 -0.25,-1 2,0 c 0.1385,0 0.25,-0.1115 0.25,-0.25 0,-0.1385 -0.1115,-0.25 -0.25,-0.25 z" opacity=".3" color="#000" fill="#fff" stroke="#fff" stroke-width="2" stroke-linejoin="round" overflow="visible" enable-background="accumulate" transform="translate(-1 -1)"/>
            <path d="m 131.25,1292.8622 c -0.1385,0 -0.25,0.1115 -0.25,0.25 0,0.1385 0.1115,0.25 0.25,0.25 l 2,0 -0.25,1 0,1 -4,1 0,1 4,0 0,2 -1,0.5 0,0.5 3,0 0,-0.5 -1,-0.5 0,-2 4,0 0,-1 -4,-1 0,-1 -0.25,-1 2,0 c 0.1385,0 0.25,-0.1115 0.25,-0.25 0,-0.1385 -0.1115,-0.25 -0.25,-0.25 z" fill="#444" transform="translate(-1 -1)"/>
        </g>
        <rect width="12" height="12" x="126" y="1290.362" opacity=".5" color="#000" overflow="visible" enable-background="accumulate" fill="none"/>
    </g>
</svg>
