<?xml version="1.0" encoding="UTF-8" standalone="no"?>
<!-- Created with Inkscape (http://www.inkscape.org/) -->

<svg
   xmlns:dc="http://purl.org/dc/elements/1.1/"
   xmlns:cc="http://creativecommons.org/ns#"
   xmlns:rdf="http://www.w3.org/1999/02/22-rdf-syntax-ns#"
   xmlns:svg="http://www.w3.org/2000/svg"
   xmlns="http://www.w3.org/2000/svg"
   xmlns:sodipodi="http://sodipodi.sourceforge.net/DTD/sodipodi-0.dtd"
   xmlns:inkscape="http://www.inkscape.org/namespaces/inkscape"
   width="24"
   height="24"
   id="svg4460"
   version="1.1"
   inkscape:version="0.48.2 r9819"
   sodipodi:docname="place-of-worship-24.svg">
  <defs
     id="defs4462" />
  <sodipodi:namedview
     id="base"
     pagecolor="#ffffff"
     bordercolor="#666666"
     borderopacity="1.0"
     inkscape:pageopacity="0.0"
     inkscape:pageshadow="2"
     inkscape:zoom="11.313708"
     inkscape:cx="15.622727"
     inkscape:cy="-0.15638252"
     inkscape:document-units="px"
     inkscape:current-layer="layer1"
     showgrid="true"
     showguides="true"
     inkscape:guide-bbox="true"
     inkscape:window-width="1220"
     inkscape:window-height="833"
     inkscape:window-x="56"
     inkscape:window-y="20"
     inkscape:window-maximized="0">
    <inkscape:grid
       type="xygrid"
       id="grid4468"
       empspacing="5"
       visible="true"
       enabled="true"
       snapvisiblegridlinesonly="true" />
    <sodipodi:guide
       orientation="1,0"
       position="0,20"
       id="guide4470" />
    <sodipodi:guide
       orientation="0,1"
       position="4,24"
       id="guide4472" />
    <sodipodi:guide
       orientation="1,0"
       position="24,13"
       id="guide4474" />
    <sodipodi:guide
       orientation="0,1"
       position="15,0"
       id="guide4476" />
    <sodipodi:guide
       orientation="1,0"
       position="23,20"
       id="guide4478" />
    <sodipodi:guide
       orientation="0,1"
       position="20,23"
       id="guide4480" />
    <sodipodi:guide
       orientation="1,0"
       position="2,5"
       id="guide4482" />
    <sodipodi:guide
       orientation="0,1"
       position="7,2"
       id="guide4484" />
    <sodipodi:guide
       orientation="0,1"
       position="16,13"
       id="guide4490" />
  </sodipodi:namedview>
  <metadata
     id="metadata4465">
    <rdf:RDF>
      <cc:Work
         rdf:about="">
        <dc:format>image/svg+xml</dc:format>
        <dc:type
           rdf:resource="http://purl.org/dc/dcmitype/StillImage" />
        <dc:title></dc:title>
      </cc:Work>
    </rdf:RDF>
  </metadata>
  <g
     inkscape:label="Layer 1"
     inkscape:groupmode="layer"
     id="layer1"
     transform="translate(0,-1028.3622)">
    <g
       transform="translate(-84,-22)"
       style="display:inline"
       id="airport-24"
       inkscape:label="airport-24"
       inkscape:export-xdpi="89.996864"
       inkscape:export-ydpi="89.996864">
      <g
         transform="translate(84,-2)"
         id="g6678">
        <g
           id="g14771">
          <path
             inkscape:connector-curvature="0"
             inkscape:export-ydpi="90"
             inkscape:export-xdpi="90"
             style="opacity:0.3;color:#000000;fill:none;stroke:#ffffff;stroke-width:2;stroke-linecap:round;stroke-linejoin:round;stroke-miterlimit:4;stroke-opacity:1;stroke-dasharray:none;stroke-dashoffset:0;marker:none;visibility:visible;display:inline;overflow:visible;enable-background:accumulate"
             d="m 21,1065.3622 0,1 -7,-1 0,0.031 0,3.9688 2,2.0002 c 0,0.5 -0.5,1 -1,1 -2,0 -5,0 -5,0 -0.5,0 -1,-0.5 -1,-1 l 2,-2.0002 0,-4 -7,1 0,-1 7,-4 c 0,0 0,-0.3333 0,-2 0,-1 0.5,-4 1.5,-4 1,0 1.5,3 1.5,4 0,1.6667 0,2 0,2 z"
             id="path14304"
             sodipodi:nodetypes="ccccccscccccccssscc" />
          <path
             sodipodi:nodetypes="cccccsccccccccsssccc"
             id="path7712"
             d="m 21,1065.8622 0,0.5 -7,-1 0,3.9998 2,2.0002 c 0,0.5 -0.5,1 -1,1 -2,0 -5,0 -5,0 -0.5,0 -1,-0.5 -1,-1 l 2,-2.0002 0,-4 -7,1 0,-0.4998 c 0,-0.5 0.3056731,-0.6379 0.5,-0.75 l 6.5,-3.7502 c 0,0 0,-0.3333 0,-2 0,-1 0.5,-4 1.5,-4 1,0 1.5,3 1.5,4 0,1.6667 0,2 0,2 l 6.5,3.7502 c 0.27841,0.1606 0.5,0.2411 0.5,0.75 z"
             style="fill:#444444;fill-opacity:1;stroke:none;display:inline"
             inkscape:export-xdpi="90"
             inkscape:export-ydpi="90"
             inkscape:connector-curvature="0" />
        </g>
      </g>
      <rect
         style="opacity:0.5;color:#000000;fill:none;stroke:none;stroke-width:2;marker:none;visibility:visible;display:inline;overflow:visible;enable-background:accumulate"
         id="rect22075-7"
         width="24"
         height="24.000017"
         x="84"
         y="1050.3622" />
    </g>
  </g>
</svg>
