<svg xmlns="http://www.w3.org/2000/svg" width="24" height="24">
    <g transform="translate(0 -1028.362) translate(-552 -46)" color="#000">
        <path d="m 680,27 c -0.55401,0 -0.5,0.6273 -0.5,1 l 0,2.5 c 0,0.5 -0.49764,1.2488 -1,1.5 -1,0.5 -1.5,1 -1.5,2 l 0,9 c 0,0.554 0.44599,1 1,1 l 5,0 c 0.55401,0 1,-0.446 1,-1 l 0,-9 c 0,-1 -0.5,-1.5 -1.5,-2 -0.49864,-0.2493 -1,-1 -1,-1.5 l 0,-2.5 c 0,-0.5 0.054,-1 -0.5,-1 z m 6,7 0,3 c 0,1 1,2 2,2 l 1,0 0,2.5 c 0,0.5 -1,1.5 -2,1.5 -1,0 -1,1 -1,1 l 7,0 c 0,0 0,-1 -1,-1 -1,0 -2,-1 -2,-1.5 l 0,-2.5 1,0 c 1,0 2,-1 2,-2 l 0,-3 z" transform="translate(-120 1050.362)" opacity=".3" fill="#fff" stroke="#fff" stroke-width="2" stroke-linecap="round" stroke-linejoin="round" overflow="visible" enable-background="accumulate"/>
        <rect width="24" height="24" x="552" y="1074.362" opacity=".5" overflow="visible" enable-background="accumulate" fill="none"/>
        <path d="m 560,1077.3622 c -0.55401,0 -0.5,0.6273 -0.5,1 l 0,2.5 c 0,0.5 -0.49764,1.2488 -1,1.5 -1,0.5 -1.5,1 -1.5,2 l 0,9 c 0,0.554 0.44599,1 1,1 l 5,0 c 0.55401,0 1,-0.446 1,-1 l 0,-9 c 0,-1 -0.5,-1.5 -1.5,-2 -0.49864,-0.2493 -1,-1 -1,-1.5 l 0,-2.5 c 0,-0.5 0.054,-1 -0.5,-1 z m 6,7 0,3 c 0,1 1,2 2,2 l 1,0 0,2.5 c 0,0.5 -1,1.5 -2,1.5 -1,0 -1,1 -1,1 l 7,0 c 0,0 0,-1 -1,-1 -1,0 -2,-1 -2,-1.5 l 0,-2.5 1,0 c 1,0 2,-1 2,-2 l 0,-3 z" fill="#444" overflow="visible" enable-background="accumulate"/>
    </g>
</svg>
