<svg xmlns="http://www.w3.org/2000/svg" width="18" height="18">
    <g transform="translate(0 -1034.362) translate(-576 -40)" color="#000">
        <path d="m 702.5,26 -0.5,0.5 0,3 -2,2.5 0,8 6,0 0,-8 -2,-2.5 0,-3 -0.5,-0.5 -1,0 z m 4.5,6 0,3 c 0,0 0,1 1,1 l 1,0 0,3 -1.5,0.5 -0.5,0.5 5,0 -0.5,-0.5 -1.5,-0.5 0,-3 1,0 c 1,0 1,-1 1,-1 l 0,-3 -5,0 z" transform="translate(-120 1050.362)" opacity=".3" fill="#fff" stroke="#fff" stroke-width="2" stroke-linecap="round" stroke-linejoin="round" overflow="visible" enable-background="accumulate"/>
        <rect y="1074.362" x="576" height="18" width="18" opacity=".5" overflow="visible" enable-background="accumulate" fill="none"/>
        <path d="m 582.5,1076.3622 -0.5,0.5 0,3 -2,2.5 0,8 6,0 0,-8 -2,-2.5 0,-3 -0.5,-0.5 -1,0 z m 4.5,6 0,3 c 0,0 0,1 1,1 l 1,0 0,3 -1.5,0.5 -0.5,0.5 5,0 -0.5,-0.5 -1.5,-0.5 0,-3 1,0 c 1,0 1,-1 1,-1 l 0,-3 -5,0 z" fill="#444" overflow="visible" enable-background="accumulate"/>
    </g>
</svg>
