<svg xmlns="http://www.w3.org/2000/svg" width="24" height="24">
    <g transform="translate(0 -1028.362) translate(-474 -70)" color="#000">
        <g>
            <path transform="translate(474 94) translate(-360 956.362)" d="m 372.5,53 c -6.5,0 -9.5,6.5 -9.5,6.5 0,0 3,6.5 9.5,6.5 6.5,0 9.5,-6.5 9.5,-6.5 0,0 -3,-6.5 -9.5,-6.5 z" opacity=".3" fill="#fff" stroke="#fff" stroke-width="2" overflow="visible" enable-background="accumulate"/>
            <path d="m 372.5,53 c -6.5,0 -9.5,6.5 -9.5,6.5 0,0 3,6.5 9.5,6.5 6.5,0 9.5,-6.5 9.5,-6.5 0,0 -3,-6.5 -9.5,-6.5 z m -3,5 c 0.277,0 0.5,0.223 0.5,0.5 l 0,0.5 2,0 0,-0.5 c 0,-0.277 0.223,-0.5 0.5,-0.5 0.277,0 0.5,0.223 0.5,0.5 l 0,0.5 2,0 0,-0.5 c 0,-0.277 0.223,-0.5 0.5,-0.5 0.277,0 0.5,0.223 0.5,0.5 l 0,0.5 1.5,0 c 0.277,0 0.5,0.223 0.5,0.5 0,0.277 -0.223,0.5 -0.5,0.5 l -1.5,0 0,0.5 c 0,0.277 -0.223,0.5 -0.5,0.5 -0.277,0 -0.5,-0.223 -0.5,-0.5 l 0,-0.5 -2,0 0,0.5 c 0,0.277 -0.223,0.5 -0.5,0.5 -0.277,0 -0.5,-0.223 -0.5,-0.5 l 0,-0.5 -2,0 0,0.5 c 0,0.277 -0.223,0.5 -0.5,0.5 -0.277,0 -0.5,-0.223 -0.5,-0.5 l 0,-0.5 -1.5,0 c -0.277,0 -0.5,-0.223 -0.5,-0.5 0,-0.277 0.223,-0.5 0.5,-0.5 l 1.5,0 0,-0.5 c 0,-0.277 0.223,-0.5 0.5,-0.5 z" transform="translate(474 94) translate(-360 956.362)" fill="#444" overflow="visible" enable-background="accumulate"/>
        </g>
        <rect width="24" height="24" x="474" y="1098.362" opacity=".5" overflow="visible" enable-background="accumulate" fill="none"/>
    </g>
</svg>
