<?xml version="1.0" encoding="UTF-8" standalone="no"?>
<!-- Created with Inkscape (http://www.inkscape.org/) -->

<svg
   xmlns:dc="http://purl.org/dc/elements/1.1/"
   xmlns:cc="http://creativecommons.org/ns#"
   xmlns:rdf="http://www.w3.org/1999/02/22-rdf-syntax-ns#"
   xmlns:svg="http://www.w3.org/2000/svg"
   xmlns="http://www.w3.org/2000/svg"
   xmlns:sodipodi="http://sodipodi.sourceforge.net/DTD/sodipodi-0.dtd"
   xmlns:inkscape="http://www.inkscape.org/namespaces/inkscape"
   width="18"
   height="18"
   id="svg4619"
   version="1.1"
   inkscape:version="0.48.2 r9819"
   sodipodi:docname="soccer-18.svg">
  <defs
     id="defs4621" />
  <sodipodi:namedview
     id="base"
     pagecolor="#ffffff"
     bordercolor="#666666"
     borderopacity="1.0"
     inkscape:pageopacity="0.0"
     inkscape:pageshadow="2"
     inkscape:zoom="16"
     inkscape:cx="6.5869453"
     inkscape:cy="5.510534"
     inkscape:document-units="px"
     inkscape:current-layer="layer1"
     showgrid="true"
     showguides="true"
     inkscape:guide-bbox="true"
     inkscape:window-width="1008"
     inkscape:window-height="662"
     inkscape:window-x="76"
     inkscape:window-y="40"
     inkscape:window-maximized="0"
     inkscape:snap-bbox="true"
     inkscape:object-paths="true"
     inkscape:snap-nodes="false">
    <inkscape:grid
       type="xygrid"
       id="grid4627"
       empspacing="5"
       visible="true"
       enabled="true"
       snapvisiblegridlinesonly="true" />
    <sodipodi:guide
       orientation="0,1"
       position="7,18"
       id="guide4659" />
    <sodipodi:guide
       orientation="1,0"
       position="18,9"
       id="guide4661" />
    <sodipodi:guide
       orientation="0,1"
       position="16,17"
       id="guide4663" />
    <sodipodi:guide
       orientation="1,0"
       position="17,14"
       id="guide4665" />
    <sodipodi:guide
       orientation="1,0"
       position="0,16"
       id="guide4667" />
    <sodipodi:guide
       orientation="0,1"
       position="8,0"
       id="guide4669" />
    <sodipodi:guide
       orientation="1,0"
       position="2,10"
       id="guide4671" />
    <sodipodi:guide
       orientation="0,1"
       position="12,2"
       id="guide4673" />
  </sodipodi:namedview>
  <metadata
     id="metadata4624">
    <rdf:RDF>
      <cc:Work
         rdf:about="">
        <dc:format>image/svg+xml</dc:format>
        <dc:type
           rdf:resource="http://purl.org/dc/dcmitype/StillImage" />
        <dc:title></dc:title>
      </cc:Work>
    </rdf:RDF>
  </metadata>
  <g
     inkscape:label="Layer 1"
     inkscape:groupmode="layer"
     id="layer1"
     transform="translate(0,-1034.3622)">
    <g
       style="display:inline"
       id="america-football-18"
       inkscape:label="america-football-18"
       transform="translate(-498,-64)"
       inkscape:export-xdpi="89.996864"
       inkscape:export-ydpi="89.996864">
      <g
         id="g21422">
        <path
           sodipodi:nodetypes="scscsssccsssccssscssscsssccsssccssscssscss"
           id="path14436"
           d="m 507.5,1102.3622 c -4.78947,0 -6.5,4.5 -6.5,4.5 0,0 1.71053,4.5 6.5,4.5 4.78947,0 6.5,-4.5 6.5,-4.5 0,0 -1.71053,-4.5 -6.5,-4.5 z m -2.25,3 c 0.1385,0 0.25,0.1115 0.25,0.25 l 0,0.75 1.75,0 0,-0.75 c 0,-0.1385 0.1115,-0.25 0.25,-0.25 0.1385,0 0.25,0.1115 0.25,0.25 l 0,0.75 1.75,0 0,-0.75 c 0,-0.1385 0.1115,-0.25 0.25,-0.25 0.1385,0 0.28359,0.1156 0.25,0.25 l 0,0.75 0.5625,0 c 0.24622,0 0.4375,0.223 0.4375,0.5 0,0.277 -0.19128,0.5 -0.4375,0.5 l -0.5625,0 0,0.75 c 0,0.1385 -0.1115,0.25 -0.25,0.25 -0.1385,0 -0.21641,-0.1156 -0.25,-0.25 l 0,-0.75 -1.75,0 0,0.75 c 0,0.1385 -0.1115,0.25 -0.25,0.25 -0.1385,0 -0.25,-0.1115 -0.25,-0.25 l 0,-0.75 -1.75,0 0,0.75 c 0,0.1385 -0.1115,0.25 -0.25,0.25 -0.1385,0 -0.25,-0.1115 -0.25,-0.25 l 0,-0.75 -0.5625,0 c -0.24622,0 -0.4375,-0.223 -0.4375,-0.5 0,-0.277 0.19128,-0.5 0.4375,-0.5 l 0.5625,0 0,-0.75 c 0,-0.1385 0.1115,-0.25 0.25,-0.25 z"
           style="opacity:0.3;color:#000000;fill:#ffffff;fill-opacity:1;fill-rule:nonzero;stroke:#ffffff;stroke-width:2;stroke-linecap:butt;stroke-linejoin:miter;stroke-miterlimit:4;stroke-opacity:1;stroke-dasharray:none;stroke-dashoffset:0;marker:none;visibility:visible;display:inline;overflow:visible;enable-background:accumulate"
           inkscape:connector-curvature="0" />
        <path
           inkscape:connector-curvature="0"
           style="color:#000000;fill:#444444;fill-opacity:1;fill-rule:nonzero;stroke:none;stroke-width:2;marker:none;visibility:visible;display:inline;overflow:visible;enable-background:accumulate"
           d="m 507.5,1102.3622 c -4.78947,0 -6.5,4.5 -6.5,4.5 0,0 1.71053,4.5 6.5,4.5 4.78947,0 6.5,-4.5 6.5,-4.5 0,0 -1.71053,-4.5 -6.5,-4.5 z m -2.25,3 c 0.1385,0 0.25,0.1115 0.25,0.25 l 0,0.75 1.75,0 0,-0.75 c 0,-0.1385 0.1115,-0.25 0.25,-0.25 0.1385,0 0.25,0.1115 0.25,0.25 l 0,0.75 1.75,0 0,-0.75 c 0,-0.1385 0.1115,-0.25 0.25,-0.25 0.1385,0 0.28359,0.1156 0.25,0.25 l 0,0.75 0.5625,0 c 0.24622,0 0.4375,0.223 0.4375,0.5 0,0.277 -0.19128,0.5 -0.4375,0.5 l -0.5625,0 0,0.75 c 0,0.1385 -0.1115,0.25 -0.25,0.25 -0.1385,0 -0.21641,-0.1156 -0.25,-0.25 l 0,-0.75 -1.75,0 0,0.75 c 0,0.1385 -0.1115,0.25 -0.25,0.25 -0.1385,0 -0.25,-0.1115 -0.25,-0.25 l 0,-0.75 -1.75,0 0,0.75 c 0,0.1385 -0.1115,0.25 -0.25,0.25 -0.1385,0 -0.25,-0.1115 -0.25,-0.25 l 0,-0.75 -0.5625,0 c -0.24622,0 -0.4375,-0.223 -0.4375,-0.5 0,-0.277 0.19128,-0.5 0.4375,-0.5 l 0.5625,0 0,-0.75 c 0,-0.1385 0.1115,-0.25 0.25,-0.25 z"
           id="path11300-2"
           sodipodi:nodetypes="scscsssccsssccssscssscsssccsssccssscssscss" />
      </g>
      <rect
         y="1098.3622"
         x="497.99997"
         height="18.000031"
         width="18.000017"
         id="rect22296-3"
         style="opacity:0.5;color:#000000;fill:none;stroke:none;stroke-width:2;marker:none;visibility:visible;display:inline;overflow:visible;enable-background:accumulate" />
    </g>
  </g>
</svg>
