<svg xmlns="http://www.w3.org/2000/svg" width="12" height="12">
    <g color="#000" transform="translate(0 -1040.362)">
        <path d="m 5.9999999,1043.8622 -0.9999998,0.5 0.9999998,4 1,0 1.0000003,-4 -0.9999999,-0.5 z m -1.9999999,1 -0.5,0.5 -1.5,2.5 0,0.5 0.5,0.5 0.5,0 1,-0.5 1,0 z m 5.0000002,0 -1.0000004,3.5 1.0000004,0 0.9999998,0.5 0.5,0 0.5,-0.5 0,-1 -1.4999999,-2 z" stroke="#fff" stroke-width="2" overflow="visible" enable-background="accumulate" opacity=".5" fill="none"/>
        <path d="m 6,1043.8622 -1,0.5 1,4 1,0 1,-4 -1,-0.5 z m -2,1 -0.5,0.5 -1.5,2.5 0,0.5 0.5,0.5 0.5,0 1,-0.5 1,0 z m 5,0 -1,3.5 1,0 1,0.5 0.5,0 0.5,-0.5 0,-1 -1.5,-2 z" fill="#444" overflow="visible" enable-background="accumulate"/>
        <rect transform="translate(0 1040.362)" height="12" width="12" overflow="visible" enable-background="accumulate" fill="none"/>
    </g>
</svg>
