<svg xmlns="http://www.w3.org/2000/svg" width="18" height="18">
    <g color="#000" transform="translate(0 -1034.362)">
        <path d="m 9.0000005,1040.3622 c -0.9999998,0 -1.5,0.5 -1.5,1.5 l 0.9999997,4 0.5000003,0.5 0.9999995,0 0.500001,-0.5 0.999999,-4 c 0,-1 -0.5,-1.5 -1.5,-1.5 z m -2.5000005,1.5 -1.9999998,1 1.4999997,3.5 1.0000003,0 0.4999995,-0.5 z m 6,0 -1,4 0.5,0.5 1,0 1.5,-3.5 z m -8.5,2 -0.5,0.5 -0.5000001,1.5 0,1.5 0.5000001,0 1.5,-1 z m 11,0 -1,2.5 1,1 1,0 0,-1.5 -0.5,-1.5 z" stroke="#fff" stroke-width="2" overflow="visible" enable-background="accumulate" fill="none"/>
        <path d="m 9.0000005,1040.3622 c -0.9999997,0 -1.5,0.5 -1.5,1.5 l 0.9999997,4 0.5000003,0.5 0.9999995,0 0.500001,-0.5 0.999999,-4 c 0,-1 -0.5,-1.5 -1.5,-1.5 z m -2.5000005,1.5 -1.9999997,1 1.4999997,3.5 1.0000002,0 0.4999996,-0.5 z m 6,0 -1,4 0.5,0.5 1,0 1.5,-3.5 z m -8.5,2 -0.5,0.5 -0.5,1.5 0,1.5 0.5,0 1.5,-1 z m 11,0 -1,2.5 1,1 1,0 0,-1.5 -0.5,-1.5 z" fill="#444" overflow="visible" enable-background="accumulate"/>
        <rect y="1034.362" height="18" width="18" overflow="visible" enable-background="accumulate" fill="none"/>
    </g>
</svg>
