<svg xmlns="http://www.w3.org/2000/svg" width="12" height="12">
    <g transform="translate(0 -1040.362) translate(-360 -106)" color="#000">
        <g>
            <path d="m 363.5,1149.3622 c -0.28125,0 -0.5,3e-4 -0.5,0.1406 0,0.141 0.19283,0.3082 0.28125,0.4219 l 3.71875,4.4375 0,2.5 c -1,0.5 -2.5,1 -2.5,1.5 l 6,0 c 0,-0.5 -1.5,-1 -2.5,-1.5 l 0,-2.5 3.71875,-4.4375 c 0.0884,-0.1137 0.28125,-0.2809 0.28125,-0.4219 0,-0.1403 -0.21875,-0.1406 -0.5,-0.1406 z" opacity=".3" stroke="#fff" stroke-width="2" stroke-linecap="round" stroke-linejoin="round" overflow="visible" enable-background="accumulate" fill="none" transform="translate(-1 -1)"/>
            <path d="m 363.5,1149.3622 c -0.28125,0 -0.5,3e-4 -0.5,0.1406 0,0.141 0.19283,0.3082 0.28125,0.4219 l 3.71875,4.4375 0,2.5 c -1,0.5 -2.5,1 -2.5,1.5 l 6,0 c 0,-0.5 -1.5,-1 -2.5,-1.5 l 0,-2.5 3.71875,-4.4375 c 0.0884,-0.1137 0.28125,-0.2809 0.28125,-0.4219 0,-0.1403 -0.21875,-0.1406 -0.5,-0.1406 z" fill="#444" overflow="visible" enable-background="accumulate" transform="translate(-1 -1)"/>
        </g>
        <rect y="1146.362" x="360" height="12" width="12" opacity=".5" overflow="visible" enable-background="accumulate" fill="none"/>
    </g>
</svg>
