<svg xmlns="http://www.w3.org/2000/svg" width="18" height="18">
    <g transform="translate(0 -1034.362) translate(-498 -136)" color="#000">
        <g>
            <path d="m 503,1172.3622 c 0,0 -1,0 -1.5,0.5 -0.5,0.5 -0.5,1.5 -0.5,1.5 2.5,3.5 7.07972,6.1418 8,7 l 2.59375,2.4063 -0.59375,0.5937 0,1 1,0 1,-1 1,-1 0,-1 -1,0 -0.59375,0.5938 L 510,1180.3622 c -2.36211,-2.5328 -3.5,-5.5 -7,-8 z m 1.75,9 c -0.69036,0 -1.25,0.5596 -1.25,1.25 0,0.6904 0.55964,1.25 1.25,1.25 0.69036,0 1.25,-0.5596 1.25,-1.25 0,-0.6904 -0.55964,-1.25 -1.25,-1.25 z" opacity=".3" stroke="#fff" stroke-width="2" stroke-linecap="round" stroke-linejoin="round" overflow="visible" enable-background="accumulate" fill="none"/>
            <path d="m 503,1172.3622 c 0,0 -1,0 -1.5,0.5 -0.5,0.5 -0.5,1.5 -0.5,1.5 2.5,3.5 7.07972,6.1418 8,7 l 2.59375,2.4063 -0.59375,0.5937 0,1 1,0 1,-1 1,-1 0,-1 -1,0 -0.59375,0.5938 L 510,1180.3622 c -2.36211,-2.5328 -3.5,-5.5 -7,-8 z m 1.75,9 c -0.69036,0 -1.25,0.5596 -1.25,1.25 0,0.6904 0.55964,1.25 1.25,1.25 0.69036,0 1.25,-0.5596 1.25,-1.25 0,-0.6904 -0.55964,-1.25 -1.25,-1.25 z" fill="#444" overflow="visible" enable-background="accumulate"/>
        </g>
        <rect width="18" height="18" x="498" y="1170.362" opacity=".5" overflow="visible" enable-background="accumulate" fill="none"/>
    </g>
</svg>
