<svg xmlns="http://www.w3.org/2000/svg" width="24" height="24">
    <g transform="translate(0 -1028.362) translate(-474 -142)" color="#000">
        <g>
            <path d="m 480,1173.3622 c -1.25235,0 -2,0.7534 -2,2 0,1 2,2.5 3,3.5 1.99995,2 5.30187,3.8019 8.5,7 l 3,3 -0.5,0.5 c 0,0.5 0.5,1 1,1 l 1,-1 1,-1 c 0,-0.5 -0.5,-1 -1,-1 l -0.5,0.5 -3,-3 c -2.86335,-2.8633 -5.00005,-6.5 -7,-8.5 -1,-1 -2.5,-3 -3.5,-3 z m 3.5,10 c -0.82843,0 -1.5,0.6716 -1.5,1.5 0,0.8284 0.67157,1.5 1.5,1.5 0.82843,0 1.5,-0.6716 1.5,-1.5 0,-0.8284 -0.67157,-1.5 -1.5,-1.5 z" opacity=".3" stroke="#fff" stroke-width="2" stroke-linecap="round" stroke-linejoin="round" overflow="visible" enable-background="accumulate" fill="none"/>
            <path d="m 480,1173.3622 c -1.25235,0 -2,0.7534 -2,2 0,1 2,2.5 3,3.5 1.99995,2 5.30187,3.8019 8.5,7 l 3,3 -0.5,0.5 c 0,0.5 0.5,1 1,1 l 1,-1 1,-1 c 0,-0.5 -0.5,-1 -1,-1 l -0.5,0.5 -3,-3 c -2.86335,-2.8633 -5.00005,-6.5 -7,-8.5 -1,-1 -2.5,-3 -3.5,-3 z m 3.5,10 c -0.82843,0 -1.5,0.6716 -1.5,1.5 0,0.8284 0.67157,1.5 1.5,1.5 0.82843,0 1.5,-0.6716 1.5,-1.5 0,-0.8284 -0.67157,-1.5 -1.5,-1.5 z" fill="#444" overflow="visible" enable-background="accumulate"/>
        </g>
        <rect y="1170.362" x="474" height="24" width="24" opacity=".5" overflow="visible" enable-background="accumulate" fill="none"/>
    </g>
</svg>
