<svg xmlns="http://www.w3.org/2000/svg" width="18" height="18">
    <g transform="translate(0 -1034.362) translate(-498 -112)" color="#000">
        <g>
            <path d="m 505,1149.3622 -3,2 0,7 c 0,0.5 0.5,1 1,1 l 2.5,0 2,3 1,0 1,0 2,-3 2.5,0 c 0.5,0 1,-0.5 1,-1 l 0,-6.5 -3,-2.5 -7,0 z m 0,3 7,0 0,5 -7,0 0,-5 z m 1,1 0,3 5,0 0,-3 -5,0 z m 0.5,6 1.5,0 0,1 1,0 0,-1 1.5,0 -0.6875,1 -0.8125,0 0,1 -1,0 0,-1 -0.8125,0 -0.6875,-1 z" opacity=".3" fill="#fff" stroke="#fff" stroke-width="2" stroke-linecap="round" stroke-linejoin="round" overflow="visible" enable-background="accumulate" transform="translate(-1 -1)"/>
            <path d="m 505,1149.3622 -3,2 0,7 c 0,0.5 0.5,1 1,1 l 2.5,0 2,3 1,0 1,0 2,-3 2.5,0 c 0.5,0 1,-0.5 1,-1 l 0,-6.5 -3,-2.5 -7,0 z m 0,3 7,0 0,5 -7,0 0,-5 z m 1,1 0,3 5,0 0,-3 -5,0 z m 0.5,6 1.5,0 0,1 1,0 0,-1 1.5,0 -0.6875,1 -0.8125,0 0,1 -1,0 0,-1 -0.8125,0 -0.6875,-1 z" fill="#444" overflow="visible" enable-background="accumulate" transform="translate(-1 -1)"/>
        </g>
        <rect width="18" height="18" x="498" y="1146.362" opacity=".5" overflow="visible" enable-background="accumulate" fill="none"/>
    </g>
</svg>
