<svg xmlns="http://www.w3.org/2000/svg" width="24" height="24">
    <g color="#000" transform="translate(0 -1028.362) translate(-318 -214)">
        <path d="m 443,195 2,16 c 0.0625,0.5 0.5,1 1,1 l 9,0 c 0.5,0 0.9375,-0.5 1,-1 l 2,-16 z m 2.25,2 10.5,0 -0.46875,4 -9.5625,0 z" transform="translate(-71 -1) translate(-49 1051.362)" opacity=".3" fill="#fff" stroke="#fff" stroke-width="2" stroke-linecap="round" stroke-linejoin="round" overflow="visible" enable-background="accumulate"/>
        <path transform="translate(-71 -1) translate(-49 1051.362)" d="m 443,195 2,16 c 0.0625,0.5 0.5,1 1,1 l 9,0 c 0.5,0 0.9375,-0.5 1,-1 l 2,-16 z m 2.25,2 10.5,0 -0.46875,4 -9.5625,0 z" fill="#444" overflow="visible" enable-background="accumulate"/>
    </g>
</svg>
