<svg xmlns="http://www.w3.org/2000/svg" width="24" height="24">
    <g transform="translate(0 -1028.362) translate(-84 -358)" color="#000">
        <path d="m 98.875,1390.3622 c -0.56154,0.076 -0.63714,1.0579 -0.09375,1.2188 l 2.21875,0.875 0,1.9062 -7,0 0,-1 1.375,0 c 0.33019,0 0.625,-0.2948 0.625,-0.625 0,-0.3302 -0.29481,-0.6297 -0.625,-0.625 l -3.875,0 c -0.062,-0.01 -0.12547,-0.01 -0.1875,0 -0.32727,0.049 -0.58034,0.3915 -0.53125,0.7188 0.0491,0.3272 0.39149,0.5803 0.71875,0.5312 l 1.5,0 0,1 -1.0625,3.125 c -0.29968,-0.072 -0.61585,-0.125 -0.9375,-0.125 -2.20914,0 -4,1.7909 -4,4 0,2.2091 1.79086,4 4,4 2.20914,0 4,-1.7909 4,-4 0,-0.3004 -0.06221,-0.5935 -0.125,-0.875 l 1.125,0 c 0.19854,-0.01 0.39085,-0.1152 0.5,-0.2812 l 3.375,-4.8438 0.125,0 1,0 0.6875,2.0313 c -2.06189,0.1606 -3.6875,1.8656 -3.6875,3.9687 0,2.2091 1.79086,4 4,4 2.20914,0 4,-1.7909 4,-4 0,-1.8282 -1.23109,-3.3352 -2.90625,-3.8125 L 102,1394.3622 l 0,-2.3437 c 0,-0.1049 -0.0423,-0.211 -0.0937,-0.3125 -0.004,-0.01 0.004,-0.024 0,-0.031 -0.0149,-0.032 -0.0429,-0.064 -0.0625,-0.094 -0.032,-0.045 -0.0546,-0.086 -0.0937,-0.125 -0.0169,-0.016 -0.044,-0.017 -0.0625,-0.031 -0.0183,-0.015 -0.0433,-0.018 -0.0625,-0.031 -0.0324,-0.019 -0.0577,-0.05 -0.0937,-0.062 l -0.0312,-0.031 -0.4375,-0.1562 -1.84375,-0.75 c -0.06501,-0.025 -0.14929,-0.028 -0.21875,-0.031 -0.047,0 -0.0788,-0.011 -0.125,0 z m -4.875,5 4.40625,0 -2.71875,3.875 -1.3125,0 c -0.30967,-0.4941 -0.69912,-0.9009 -1.1875,-1.2187 L 94,1395.3622 z m -3,3.5 c 1.38071,0 2.5,1.1193 2.5,2.5 0,1.3807 -1.11929,2.5 -2.5,2.5 -1.38071,0 -2.5,-1.1193 -2.5,-2.5 0,-1.3807 1.11929,-2.5 2.5,-2.5 z m 11,0 c 1.38071,0 2.5,1.1193 2.5,2.5 0,1.3807 -1.11929,2.5 -2.5,2.5 -1.38071,0 -2.5,-1.1193 -2.5,-2.5 0,-0.1726 0.0292,-0.3373 0.0625,-0.5 0.23312,-1.1392 1.22938,-2 2.4375,-2 z" opacity=".3" fill="#fff" stroke="#fff" stroke-width="2" stroke-linejoin="round" overflow="visible" enable-background="accumulate"/>
        <path d="m 98.875,1390.3622 c -0.56154,0.076 -0.63714,1.0579 -0.09375,1.2188 l 2.21875,0.875 0,1.9062 -7,0 0,-1 1.375,0 c 0.33019,0 0.625,-0.2948 0.625,-0.625 0,-0.3302 -0.29481,-0.6297 -0.625,-0.625 l -3.875,0 c -0.062,-0.01 -0.12547,-0.01 -0.1875,0 -0.32727,0.049 -0.58034,0.3915 -0.53125,0.7188 0.0491,0.3272 0.39149,0.5803 0.71875,0.5312 l 1.5,0 0,1 -1.0625,3.125 c -0.29968,-0.072 -0.61585,-0.125 -0.9375,-0.125 -2.20914,0 -4,1.7909 -4,4 0,2.2091 1.79086,4 4,4 2.20914,0 4,-1.7909 4,-4 0,-0.3004 -0.06221,-0.5935 -0.125,-0.875 l 1.125,0 c 0.19854,-0.01 0.39085,-0.1152 0.5,-0.2812 l 3.375,-4.8438 0.125,0 1,0 0.6875,2.0313 c -2.06189,0.1606 -3.6875,1.8656 -3.6875,3.9687 0,2.2091 1.79086,4 4,4 2.20914,0 4,-1.7909 4,-4 0,-1.8282 -1.23109,-3.3352 -2.90625,-3.8125 L 102,1394.3622 l 0,-2.3437 c 0,-0.1049 -0.0423,-0.211 -0.0937,-0.3125 -0.004,-0.01 0.004,-0.024 0,-0.031 -0.0149,-0.032 -0.0429,-0.064 -0.0625,-0.094 -0.032,-0.045 -0.0546,-0.086 -0.0937,-0.125 -0.0169,-0.016 -0.044,-0.017 -0.0625,-0.031 -0.0183,-0.015 -0.0433,-0.018 -0.0625,-0.031 -0.0324,-0.019 -0.0577,-0.05 -0.0937,-0.062 l -0.0312,-0.031 -0.4375,-0.1562 -1.84375,-0.75 c -0.06501,-0.025 -0.14929,-0.028 -0.21875,-0.031 -0.047,0 -0.0788,-0.011 -0.125,0 z m -4.875,5 4.40625,0 -2.71875,3.875 -1.3125,0 c -0.30967,-0.4941 -0.69912,-0.9009 -1.1875,-1.2187 L 94,1395.3622 z m -3,3.5 c 1.38071,0 2.5,1.1193 2.5,2.5 0,1.3807 -1.11929,2.5 -2.5,2.5 -1.38071,0 -2.5,-1.1193 -2.5,-2.5 0,-1.3807 1.11929,-2.5 2.5,-2.5 z m 11,0 c 1.38071,0 2.5,1.1193 2.5,2.5 0,1.3807 -1.11929,2.5 -2.5,2.5 -1.38071,0 -2.5,-1.1193 -2.5,-2.5 0,-0.1726 0.0292,-0.3373 0.0625,-0.5 0.23312,-1.1392 1.22938,-2 2.4375,-2 z" fill="#444" overflow="visible" enable-background="accumulate"/>
        <rect width="24" height="24" x="84" y="1386.362" rx="0" ry="0" opacity=".3" overflow="visible" enable-background="accumulate" fill="none"/>
    </g>
</svg>
