<svg xmlns="http://www.w3.org/2000/svg" width="18" height="18">
    <g transform="translate(0 -1034.362) translate(-108 -352)" color="#000">
        <path transform="translate(-120 1050.362)" d="m 240,339 0,1 1,0.5 0,1.5 -5,0 0,-1 1,0 0,-0.5 -1,-0.5 -2,0 0,1 1,0 0,1 -1.25,2.125 C 233.50461,344.06012 233.26579,344 233,344 c -1.65686,0 -3,1.34314 -3,3 0,1.65686 1.34314,3 3,3 1.65686,0 3,-1.34314 3,-3 l 1,0 2.5,-4 1.5,0 0.53125,1.0625 C 240.10342,344.29297 239,345.50713 239,347 c 0,1.65685 1.34315,3 3,3 1.65685,0 3,-1.34315 3,-3 0,-1.43939 -1.02256,-2.64661 -2.375,-2.9375 L 242,342.5 242,340 241.5,339.5 240,339 z m -4.5,4 3,0 -2,3 -0.6875,0 c -0.21207,-0.59119 -0.58733,-1.11568 -1.09375,-1.46875 L 235.5,343 z m -2.5,2 c 1.10456,0 2,0.89544 2,2 0,1.10456 -0.89544,2 -2,2 -1.10456,0 -2,-0.89544 -2,-2 0,-1.10456 0.89544,-2 2,-2 z m 9,0 c 1.10457,0 2,0.89543 2,2 0,1.10457 -0.89543,2 -2,2 -1.10457,0 -2,-0.89543 -2,-2 0,-1.10457 0.89543,-2 2,-2 z" opacity=".3" fill="#fff" stroke="#fff" stroke-width="2" stroke-linejoin="round" overflow="visible" enable-background="accumulate"/>
        <path d="m 240,339 0,1 1,0.5 0,1.5 -5,0 0,-1 1,0 0,-0.5 -1,-0.5 -2,0 0,1 1,0 0,1 -1.25,2.125 C 233.50461,344.06012 233.26579,344 233,344 c -1.65686,0 -3,1.34314 -3,3 0,1.65686 1.34314,3 3,3 1.65686,0 3,-1.34314 3,-3 l 1,0 2.5,-4 1.5,0 0.53125,1.0625 C 240.10342,344.29297 239,345.50713 239,347 c 0,1.65685 1.34315,3 3,3 1.65685,0 3,-1.34315 3,-3 0,-1.43939 -1.02256,-2.64661 -2.375,-2.9375 L 242,342.5 242,340 241.5,339.5 240,339 z m -4.5,4 3,0 -2,3 -0.6875,0 c -0.21207,-0.59119 -0.58733,-1.11568 -1.09375,-1.46875 L 235.5,343 z m -2.5,2.25 c 0.9665,0 1.75,0.7835 1.75,1.75 0,0.9665 -0.7835,1.75 -1.75,1.75 -0.9665,0 -1.75,-0.7835 -1.75,-1.75 0,-0.9665 0.7835,-1.75 1.75,-1.75 z m 9,0 c 0.9665,0 1.75,0.7835 1.75,1.75 0,0.9665 -0.7835,1.75 -1.75,1.75 -0.9665,0 -1.75,-0.7835 -1.75,-1.75 0,-0.9665 0.7835,-1.75 1.75,-1.75 z" transform="translate(-120 1050.362)" fill="#444" overflow="visible" enable-background="accumulate"/>
        <rect width="18" height="18" x="108" y="1386.362" rx="0" ry="0" opacity=".3" overflow="visible" enable-background="accumulate" fill="none"/>
    </g>
</svg>
