<svg xmlns="http://www.w3.org/2000/svg" width="24" height="24">
    <g transform="translate(0 -1028.362) translate(-630 -46)" color="#000">
        <path d="m 641,1077.3622 -7.5,6.5 c -0.3561,0.3086 -0.5,0.5 -0.5,0.75 0,0.4959 0.5,0.75 1,0.75 l 1,0 0,8 c 0,0.554 0.446,1 1,1 l 6.5,0 6.5,0 c 0.554,0 1,-0.446 1,-1 l 0,-8 1,0 c 0.5,0 1,-0.2541 1,-0.75 0,-0.25 -0.13799,-0.4483 -0.5,-0.75 l -7.5,-6.5 z" opacity=".3" fill="#fff" stroke="#fff" stroke-width="2" stroke-linejoin="round" overflow="visible" enable-background="accumulate"/>
        <rect y="1074.362" x="630" height="24" width="24" opacity=".5" overflow="visible" enable-background="accumulate" fill="none"/>
        <path d="m 641,1077.3622 -7.5,6.5 c -0.3561,0.3086 -0.5,0.5 -0.5,0.75 0,0.4959 0.5,0.75 1,0.75 l 1,0 0,8 c 0,0.554 0.446,1 1,1 l 6.5,0 6.5,0 c 0.554,0 1,-0.446 1,-1 l 0,-8 1,0 c 0.5,0 1,-0.2541 1,-0.75 0,-0.25 -0.13799,-0.4483 -0.5,-0.75 l -7.5,-6.5 z" fill="#444" overflow="visible" enable-background="accumulate"/>
    </g>
</svg>
