<svg xmlns="http://www.w3.org/2000/svg" width="24" height="24">
    <g transform="translate(0 -1028.362) translate(-84 -118)">
        <g>
            <path d="m 93,1149.3622 0,1 -2,0 c -0.5,0 -1,0.5 -1,1 l 0,6 0,5 0,1 0,1 1,0 0,2 2,0 0,-2 7,0 0,2 2,0 0,-2 1,0 0,-1 0,-1 0,-5 0,-6 c 0,-0.5 -0.5,-1 -1,-1 l -2,0 0,-1 -7,0 z" opacity=".3" color="#000" fill="#fff" stroke="#fff" stroke-width="2" stroke-linejoin="round" overflow="visible" enable-background="accumulate"/>
            <g transform="translate(-1 2)">
                <path d="m 10,1008.3622 0,1 -2,0 c -0.5,0 -1,0.5 -1,1 l 0,6 0,5 0,1 0,1 1,0 0,2 2,0 0,-2 7,0 0,2 2,0 0,-2 1,0 0,-1 0,-1 0,-5 0,-6 c 0,-0.5 -0.5,-1 -1,-1 l -2,0 0,-1 z m -1,3 9,0 0,3 0,2 -9,0 0,-2 z m 1,8 c 0.554,0 1,0.446 1,1 0,0.554 -0.446,1 -1,1 -0.554,0 -1,-0.446 -1,-1 0,-0.554 0.446,-1 1,-1 z m 7,0 c 0.554,0 1,0.446 1,1 0,0.554 -0.446,1 -1,1 -0.554,0 -1,-0.446 -1,-1 0,-0.554 0.446,-1 1,-1 z" color="#000" fill="#444" overflow="visible" enable-background="accumulate" transform="translate(84 139)"/>
            </g>
        </g>
        <rect y="1146.362" x="84" height="24" width="24" opacity=".5" color="#000" overflow="visible" enable-background="accumulate" fill="none"/>
    </g>
</svg>
