<?xml version="1.0" encoding="UTF-8" standalone="no"?>
<!-- Created with Inkscape (http://www.inkscape.org/) -->

<svg
   xmlns:dc="http://purl.org/dc/elements/1.1/"
   xmlns:cc="http://creativecommons.org/ns#"
   xmlns:rdf="http://www.w3.org/1999/02/22-rdf-syntax-ns#"
   xmlns:svg="http://www.w3.org/2000/svg"
   xmlns="http://www.w3.org/2000/svg"
   xmlns:sodipodi="http://sodipodi.sourceforge.net/DTD/sodipodi-0.dtd"
   xmlns:inkscape="http://www.inkscape.org/namespaces/inkscape"
   width="12"
   height="12"
   id="svg4764"
   version="1.1"
   inkscape:version="0.48.2 r9819"
   sodipodi:docname="shop-12.svg">
  <defs
     id="defs4766" />
  <sodipodi:namedview
     id="base"
     pagecolor="#ffffff"
     bordercolor="#666666"
     borderopacity="1.0"
     inkscape:pageopacity="0.0"
     inkscape:pageshadow="2"
     inkscape:zoom="11.313709"
     inkscape:cx="5.6084938"
     inkscape:cy="5.0524314"
     inkscape:document-units="px"
     inkscape:current-layer="layer1"
     showgrid="true"
     showguides="true"
     inkscape:guide-bbox="true"
     inkscape:window-width="957"
     inkscape:window-height="704"
     inkscape:window-x="24"
     inkscape:window-y="468"
     inkscape:window-maximized="0"
     inkscape:snap-bbox="true"
     inkscape:snap-nodes="false">
    <inkscape:grid
       type="xygrid"
       id="grid4772"
       empspacing="5"
       visible="true"
       enabled="true"
       snapvisiblegridlinesonly="true"
       spacingx="1px"
       spacingy="1px" />
    <sodipodi:guide
       orientation="0,1"
       position="2,12"
       id="guide4789" />
    <sodipodi:guide
       orientation="1,0"
       position="12,10"
       id="guide4791" />
    <sodipodi:guide
       orientation="0,1"
       position="10,0"
       id="guide4793" />
    <sodipodi:guide
       orientation="1,0"
       position="0,9"
       id="guide4795" />
    <sodipodi:guide
       orientation="0,1"
       position="5,11"
       id="guide4797" />
    <sodipodi:guide
       orientation="1,0"
       position="11,7"
       id="guide4799" />
    <sodipodi:guide
       orientation="0,1"
       position="9,2"
       id="guide4801" />
    <sodipodi:guide
       orientation="1,0"
       position="2,5"
       id="guide4803" />
  </sodipodi:namedview>
  <metadata
     id="metadata4769">
    <rdf:RDF>
      <cc:Work
         rdf:about="">
        <dc:format>image/svg+xml</dc:format>
        <dc:type
           rdf:resource="http://purl.org/dc/dcmitype/StillImage" />
        <dc:title></dc:title>
      </cc:Work>
    </rdf:RDF>
  </metadata>
  <g
     inkscape:label="Layer 1"
     inkscape:groupmode="layer"
     id="layer1"
     transform="translate(0,-1040.3622)">
    <g
       style="display:inline"
       id="cafe-12"
       inkscape:label="cafe-12"
       transform="translate(-360,-33.999983)"
       inkscape:export-xdpi="89.996864"
       inkscape:export-ydpi="89.996864">
      <g
         id="g21598">
        <path
           style="opacity:0.3;color:#000000;fill:#ffffff;fill-opacity:1;fill-rule:nonzero;stroke:#ffffff;stroke-width:2;stroke-linecap:butt;stroke-linejoin:round;stroke-miterlimit:4;stroke-opacity:1;stroke-dasharray:none;stroke-dashoffset:0;marker:none;visibility:visible;display:inline;overflow:visible;enable-background:accumulate"
           d="m 363.5,1076.3622 c -0.27701,0 -0.5,0.223 -0.5,0.5 l 0,4.5 c 0,0.277 0.22299,0.5 0.5,0.5 l 5,0 c 0.277,0 0.5,-0.223 0.5,-0.5 l 0,-0.5 0.25,0 c 0.25,0 0.25,-0.25 0.25,-0.25 l 0,-0.25 0.5,0 c 0.5,0 1,-0.5 1,-1 l 0,-0.5 0,-1 c 0,-0.25 -0.25,-0.5 -0.5,-0.5 l -1.5,0 0,-0.5 c 0,-0.277 -0.223,-0.5 -0.5,-0.5 z m 5.5,1.5 1.25,0 c 0.25,0 0.25,0.25 0.25,0.25 l 0,1.25 c 0,0.25 -0.25,0.5 -0.5,0.5 l -0.5,0 -0.5,0 z m -7,4.5 1.5,1.5 5,0 1.5,-1.5 z"
           id="path14854"
           inkscape:connector-curvature="0"
           sodipodi:nodetypes="sssssscsccsscsscssscccsscccccccc" />
        <path
           sodipodi:nodetypes="sssssscsccsscsscssscccsscccccccc"
           inkscape:connector-curvature="0"
           id="rect9826-2-1-5"
           d="m 363.5,1076.3622 c -0.27701,0 -0.5,0.223 -0.5,0.5 l 0,4.5 c 0,0.277 0.22299,0.5 0.5,0.5 l 5,0 c 0.277,0 0.5,-0.223 0.5,-0.5 l 0,-0.5 0.25,0 c 0.25,0 0.25,-0.25 0.25,-0.25 l 0,-0.25 0.5,0 c 0.5,0 1,-0.5 1,-1 l 0,-0.5 0,-1 c 0,-0.25 -0.25,-0.5 -0.5,-0.5 l -1.5,0 0,-0.5 c 0,-0.277 -0.223,-0.5 -0.5,-0.5 z m 5.5,1.5 1.25,0 c 0.25,0 0.25,0.25 0.25,0.25 l 0,1.25 c 0,0.25 -0.25,0.5 -0.5,0.5 l -0.5,0 -0.5,0 z m -7,4.5 2,1 4,0 2,-1 z"
           style="color:#000000;fill:#444444;fill-opacity:1;fill-rule:nonzero;stroke:none;stroke-width:2;marker:none;visibility:visible;display:inline;overflow:visible;enable-background:accumulate" />
      </g>
      <rect
         style="opacity:0.5;color:#000000;fill:none;stroke:none;stroke-width:2;marker:none;visibility:visible;display:inline;overflow:visible;enable-background:accumulate"
         id="rect22292-9"
         width="11.999998"
         height="12.000007"
         x="360"
         y="1074.3622" />
    </g>
  </g>
</svg>
