<svg xmlns="http://www.w3.org/2000/svg" width="18" height="18">
    <g transform="translate(0 -1034.362) translate(-186 -184)" color="#000">
        <g font-family="Sans">
            <path style="text-indent:0;text-align:start;line-height:normal;text-transform:none;block-progression:tb;-inkscape-font-specification:Sans" d="m 196.5,1225.3626 c -0.36111,-10e-5 -0.5244,0.1729 -0.63194,0.3611 l -3.86806,8.1385 -1.5,0 c -0.5,0 -0.5,0.7778 -0.5,0.7778 0,0 0,0.7222 0.5,0.7222 l 12,0 c 0.5,0 0.5,-0.7222 0.5,-0.7222 0,0 0,-0.7777 -0.5,-0.7778 l -1.5,-4e-4 -3.86806,-8.1385 c -0.10754,-0.1882 -0.27083,-0.3612 -0.63194,-0.3611 z" opacity=".3" fill="#fff" stroke="#fff" stroke-width="2" stroke-linecap="round" stroke-linejoin="round" overflow="visible" enable-background="accumulate" transform="translate(-1 -3)"/>
            <path d="m 196.5,1225.3626 c -0.36111,-10e-5 -0.5244,0.1729 -0.63194,0.3611 l -3.86806,8.1385 -1.5,0 c -0.5,0 -0.5,0.7778 -0.5,0.7778 0,0 0,0.7222 0.5,0.7222 l 12,0 c 0.5,0 0.5,-0.7222 0.5,-0.7222 0,0 0,-0.7777 -0.5,-0.7778 l -1.5,-4e-4 -3.86806,-8.1385 c -0.10754,-0.1882 -0.27083,-0.3612 -0.63194,-0.3611 z m 0,2.9996 2.5,5.5 -5,0 z" style="text-indent:0;text-align:start;line-height:normal;text-transform:none;block-progression:tb;-inkscape-font-specification:Sans" fill="#444" overflow="visible" enable-background="accumulate" transform="translate(-1 -3)"/>
        </g>
        <rect y="1218.362" x="186" height="18" width="18" opacity=".5" overflow="visible" enable-background="accumulate" fill="none"/>
    </g>
</svg>
