<svg xmlns="http://www.w3.org/2000/svg" width="12" height="12">
    <g transform="translate(0 -1040.362) translate(-48 -82)" color="#000">
        <g>
            <path d="m 54.5,1124.3622 c -1.865079,0 -2.5,1.2857 -2.5,2.7857 l 0,3.7143 c -0.5,0 -1,0.5 -1,1 l 0,0.5 7,0 0,-0.5 c 0,-0.5 -0.5,-1 -1,-1 l 0,-3.5 c 0,-1.7143 -0.634922,-3 -2.5,-3 z" opacity=".3" fill="#fff" stroke="#fff" stroke-width="2" stroke-linejoin="round" overflow="visible" enable-background="accumulate"/>
            <path d="m 54.5,1124.3622 c -1.865079,0 -2.5,1.2857 -2.5,2.7857 l 0,3.7143 c -0.5,0 -1,0.5 -1,1 l 0,0.5 7,0 0,-0.5 c 0,-0.5 -0.5,-1 -1,-1 l 0,-3.5 c 0,-1.7143 -0.634922,-3 -2.5,-3 z" fill="#444" overflow="visible" enable-background="accumulate"/>
        </g>
        <rect width="12" height="12" x="48" y="1122.362" opacity=".5" overflow="visible" enable-background="accumulate" fill="none"/>
    </g>
</svg>
