<svg xmlns="http://www.w3.org/2000/svg" width="24" height="24">
    <g transform="translate(0 -1028.362) translate(-240 -142)" color="#000">
        <g>
            <path d="m 258,1173.3622 -2.25,0.6563 1.09375,2.9687 2.15625,-0.625 z m -3.625,1.0313 -2.9375,0.8437 0.0625,0.125 0.5625,1.5313 0.5,1.3125 2.9375,-0.8438 z m -4.28125,1.2187 -2.59375,0.75 1.125,2.9688 2.59375,-0.75 -0.65625,-1.6875 z m -3.9375,1.125 -2.15625,0.625 1,3 2.25,-0.6562 z m -1.15625,3.625 0,9 c 0,0.554 0.44599,1 1,1 l 13,0 c 0.55401,0 1,-0.446 1,-1 l 0,-9 z m 2,2 11,0 0,3 -11,0 z" opacity=".3" fill="#fff" stroke="#fff" stroke-width="2" stroke-linecap="round" stroke-linejoin="round" overflow="visible" enable-background="accumulate"/>
            <path d="m 258,1173.3622 -2.25,0.6563 1.09375,2.9687 2.15625,-0.625 z m -3.625,1.0313 -2.9375,0.8437 0.0625,0.125 0.5625,1.5313 0.5,1.3125 2.9375,-0.8438 z m -4.28125,1.2187 -2.59375,0.75 1.125,2.9688 2.59375,-0.75 -0.65625,-1.6875 z m -3.9375,1.125 -2.15625,0.625 1,3 2.25,-0.6562 z m -1.15625,3.625 0,9 c 0,0.554 0.44599,1 1,1 l 13,0 c 0.55401,0 1,-0.446 1,-1 l 0,-9 z m 2,2 11,0 0,3 -11,0 z" fill="#444" overflow="visible" enable-background="accumulate"/>
        </g>
        <rect width="24" height="24" x="240" y="1170.362" opacity=".5" overflow="visible" enable-background="accumulate" fill="none"/>
    </g>
</svg>
