<svg xmlns="http://www.w3.org/2000/svg" width="12" height="12">
    <g transform="translate(0 -1040.362) translate(-282 -130)" color="#000">
        <g>
            <path d="m 291.5,1171.8622 -7,2 0.5,1.5 7,-2 -0.5,-1.5 z m -6.5,3.5 0,4.5 c 0,0.3077 0.19231,0.5 0.5,0.5 l 6,0 c 0.30769,0 0.5,-0.1923 0.5,-0.5 l 0,-4.5 -7,0 z m 1,1 5,0 0,1 -5,0 0,-1 z" opacity=".3" fill="#fff" stroke="#fff" stroke-width="2" stroke-linecap="round" stroke-linejoin="round" overflow="visible" enable-background="accumulate"/>
            <path d="m 291.5,1171.8622 -7,2 0.5,1.5 7,-2 -0.5,-1.5 z m -6.5,3.5 0,4.5 c 0,0.3077 0.19231,0.5 0.5,0.5 l 6,0 c 0.30769,0 0.5,-0.1923 0.5,-0.5 l 0,-4.5 -7,0 z m 1,1 5,0 0,1 -5,0 0,-1 z" fill="#444" overflow="visible" enable-background="accumulate"/>
        </g>
        <rect width="12" height="12" x="282" y="1170.362" opacity=".5" overflow="visible" enable-background="accumulate" fill="none"/>
    </g>
</svg>
