<?xml version="1.0" encoding="UTF-8" standalone="no"?>
<!-- Created with Inkscape (http://www.inkscape.org/) -->

<svg
   xmlns:dc="http://purl.org/dc/elements/1.1/"
   xmlns:cc="http://creativecommons.org/ns#"
   xmlns:rdf="http://www.w3.org/1999/02/22-rdf-syntax-ns#"
   xmlns:svg="http://www.w3.org/2000/svg"
   xmlns="http://www.w3.org/2000/svg"
   xmlns:sodipodi="http://sodipodi.sourceforge.net/DTD/sodipodi-0.dtd"
   xmlns:inkscape="http://www.inkscape.org/namespaces/inkscape"
   width="24"
   height="24"
   id="svg4460"
   version="1.1"
   inkscape:version="0.48.2 r9819"
   sodipodi:docname="alcohol-shop-24.svg">
  <defs
     id="defs4462" />
  <sodipodi:namedview
     id="base"
     pagecolor="#ffffff"
     bordercolor="#666666"
     borderopacity="1.0"
     inkscape:pageopacity="0.0"
     inkscape:pageshadow="2"
     inkscape:zoom="11.313708"
     inkscape:cx="15.622727"
     inkscape:cy="6.9146856"
     inkscape:document-units="px"
     inkscape:current-layer="layer1"
     showgrid="true"
     showguides="true"
     inkscape:guide-bbox="true"
     inkscape:window-width="1220"
     inkscape:window-height="833"
     inkscape:window-x="25"
     inkscape:window-y="195"
     inkscape:window-maximized="0"
     inkscape:snap-bbox="true"
     inkscape:snap-nodes="false">
    <inkscape:grid
       type="xygrid"
       id="grid4468"
       empspacing="5"
       visible="true"
       enabled="true"
       snapvisiblegridlinesonly="true"
       spacingx="1px"
       spacingy="1px" />
    <sodipodi:guide
       orientation="1,0"
       position="0,20"
       id="guide4470" />
    <sodipodi:guide
       orientation="0,1"
       position="4,24"
       id="guide4472" />
    <sodipodi:guide
       orientation="1,0"
       position="24,13"
       id="guide4474" />
    <sodipodi:guide
       orientation="0,1"
       position="15,0"
       id="guide4476" />
    <sodipodi:guide
       orientation="1,0"
       position="23,20"
       id="guide4478" />
    <sodipodi:guide
       orientation="0,1"
       position="20,23"
       id="guide4480" />
    <sodipodi:guide
       orientation="1,0"
       position="2,5"
       id="guide4482" />
    <sodipodi:guide
       orientation="0,1"
       position="7,2"
       id="guide4484" />
    <sodipodi:guide
       orientation="1,0"
       position="13,16"
       id="guide4486" />
    <sodipodi:guide
       orientation="0,1"
       position="16,13"
       id="guide4490" />
  </sodipodi:namedview>
  <metadata
     id="metadata4465">
    <rdf:RDF>
      <cc:Work
         rdf:about="">
        <dc:format>image/svg+xml</dc:format>
        <dc:type
           rdf:resource="http://purl.org/dc/dcmitype/StillImage" />
        <dc:title></dc:title>
      </cc:Work>
    </rdf:RDF>
  </metadata>
  <g
     inkscape:label="Layer 1"
     inkscape:groupmode="layer"
     id="layer1"
     transform="translate(0,-1028.3622)">
    <g
       style="display:inline"
       id="cinema-24"
       inkscape:label="cinema-24"
       transform="translate(-240,-141.99998)"
       inkscape:export-xdpi="89.996864"
       inkscape:export-ydpi="89.996864">
      <g
         id="g23190">
        <path
           style="opacity:0.3;color:#000000;fill:#ffffff;fill-opacity:1;fill-rule:nonzero;stroke:#ffffff;stroke-width:2;stroke-linecap:round;stroke-linejoin:round;stroke-miterlimit:4;stroke-opacity:1;stroke-dasharray:none;stroke-dashoffset:0;marker:none;visibility:visible;display:inline;overflow:visible;enable-background:accumulate"
           d="m 258,1173.3622 -2.25,0.6563 1.09375,2.9687 2.15625,-0.625 z m -3.625,1.0313 -2.9375,0.8437 0.0625,0.125 0.5625,1.5313 0.5,1.3125 2.9375,-0.8438 z m -4.28125,1.2187 -2.59375,0.75 1.125,2.9688 2.59375,-0.75 -0.65625,-1.6875 z m -3.9375,1.125 -2.15625,0.625 1,3 2.25,-0.6562 z m -1.15625,3.625 0,9 c 0,0.554 0.44599,1 1,1 l 13,0 c 0.55401,0 1,-0.446 1,-1 l 0,-9 z m 2,2 11,0 0,3 -11,0 z"
           id="path14717"
           inkscape:connector-curvature="0"
           sodipodi:nodetypes="ccccccccccccccccccccccccssssccccccc" />
        <path
           sodipodi:nodetypes="ccccccccccccccccccccccccssssccccccc"
           inkscape:connector-curvature="0"
           id="rect7568-8-4"
           d="m 258,1173.3622 -2.25,0.6563 1.09375,2.9687 2.15625,-0.625 z m -3.625,1.0313 -2.9375,0.8437 0.0625,0.125 0.5625,1.5313 0.5,1.3125 2.9375,-0.8438 z m -4.28125,1.2187 -2.59375,0.75 1.125,2.9688 2.59375,-0.75 -0.65625,-1.6875 z m -3.9375,1.125 -2.15625,0.625 1,3 2.25,-0.6562 z m -1.15625,3.625 0,9 c 0,0.554 0.44599,1 1,1 l 13,0 c 0.55401,0 1,-0.446 1,-1 l 0,-9 z m 2,2 11,0 0,3 -11,0 z"
           style="color:#000000;fill:#444444;fill-opacity:1;fill-rule:nonzero;stroke:none;stroke-width:2;marker:none;visibility:visible;display:inline;overflow:visible;enable-background:accumulate" />
      </g>
      <rect
         style="opacity:0.5;color:#000000;fill:none;stroke:none;stroke-width:2;marker:none;visibility:visible;display:inline;overflow:visible;enable-background:accumulate"
         id="rect22288-7"
         width="24"
         height="24.000017"
         x="240"
         y="1170.3622" />
    </g>
  </g>
</svg>
