<svg xmlns="http://www.w3.org/2000/svg" width="24" height="24">
    <g transform="translate(0 -1028.362) translate(72 -22)" color="#000">
        <rect y="1050.362" x="-72" height="24" width="24" opacity=".3" overflow="visible" enable-background="accumulate" fill="none"/>
        <path d="m -59.5,1053.3622 c -4.69442,0 -8.5,3.8056 -8.5,8.5 0,4.6944 3.80558,8.5 8.5,8.5 4.69442,0 8.5,-3.8056 8.5,-8.5 0,-4.6944 -3.80558,-8.5 -8.5,-8.5 z m 0,2 c 3.589851,0 6.5,2.9101 6.5,6.5 0,3.5899 -2.910149,6.5 -6.5,6.5 -3.589851,0 -6.5,-2.9101 -6.5,-6.5 0,-3.5899 2.910149,-6.5 6.5,-6.5 z" opacity=".3" fill="#fff" stroke="#fff" stroke-width="2" overflow="visible" enable-background="accumulate"/>
        <path d="m -59.5,1053.3622 c -4.69442,0 -8.5,3.8056 -8.5,8.5 0,4.6944 3.80558,8.5 8.5,8.5 4.69442,0 8.5,-3.8056 8.5,-8.5 0,-4.6944 -3.80558,-8.5 -8.5,-8.5 z m 0,2 c 3.589851,0 6.5,2.9101 6.5,6.5 0,3.5899 -2.910149,6.5 -6.5,6.5 -3.589851,0 -6.5,-2.9101 -6.5,-6.5 0,-3.5899 2.910149,-6.5 6.5,-6.5 z" fill="#444" overflow="visible" enable-background="accumulate"/>
    </g>
</svg>
