<svg xmlns="http://www.w3.org/2000/svg" width="18" height="18">
    <g transform="translate(0 -1034.362) translate(48 -16)" color="#000">
        <rect width="18" height="18" x="-48" y="1050.362" opacity=".5" overflow="visible" enable-background="accumulate" fill="none"/>
        <g>
            <path d="m -38.5,1052.3622 c 3.589871,0 6.5,2.9101 6.5,6.5 0,3.5899 -2.910129,6.5 -6.5,6.5 -3.589871,0 -6.5,-2.9101 -6.5,-6.5 0,-3.5899 2.910129,-6.5 6.5,-6.5 z m 0,1.4444 c -2.792126,0 -5.055556,2.2635 -5.055556,5.0556 0,2.7921 2.26343,5.0556 5.055556,5.0556 2.792126,0 5.055556,-2.2635 5.055556,-5.0556 0,-2.7921 -2.26343,-5.0556 -5.055556,-5.0556 z" opacity=".3" fill="#fff" stroke="#fff" stroke-width="2" overflow="visible" enable-background="accumulate"/>
            <path d="m -38.5,1052.3622 c 3.589871,0 6.5,2.9101 6.5,6.5 0,3.5899 -2.910129,6.5 -6.5,6.5 -3.589871,0 -6.5,-2.9101 -6.5,-6.5 0,-3.5899 2.910129,-6.5 6.5,-6.5 z m 0,1.4444 c -2.792126,0 -5.055556,2.2635 -5.055556,5.0556 0,2.7921 2.26343,5.0556 5.055556,5.0556 2.792126,0 5.055556,-2.2635 5.055556,-5.0556 0,-2.7921 -2.26343,-5.0556 -5.055556,-5.0556 z" fill="#444" overflow="visible" enable-background="accumulate"/>
        </g>
    </g>
</svg>
