<svg xmlns="http://www.w3.org/2000/svg" width="24" height="24">
    <g transform="translate(0 -1028.362) translate(72 -46)" color="#000">
        <g>
            <path transform="matrix(-1.03 0 0 1.03 -46.879 1073.241)" d="m 20.5,12.25 c 0,4.556349 -3.693651,8.25 -8.25,8.25 C 7.6936508,20.5 4,16.806349 4,12.25 4,7.6936508 7.6936508,4 12.25,4 c 4.556349,0 8.25,3.6936508 8.25,8.25 z" opacity=".3" fill="#fff" stroke="#fff" stroke-width="1.941" overflow="visible" enable-background="accumulate"/>
            <path d="m 20.5,12.25 c 0,4.556349 -3.693651,8.25 -8.25,8.25 C 7.6936508,20.5 4,16.806349 4,12.25 4,7.6936508 7.6936508,4 12.25,4 c 4.556349,0 8.25,3.6936508 8.25,8.25 z" transform="matrix(-1.03 0 0 1.03 -46.879 1073.241)" fill="#444" overflow="visible" enable-background="accumulate"/>
        </g>
        <rect width="24" height="24" x="-72" y="1074.362" opacity=".5" overflow="visible" enable-background="accumulate" fill="none"/>
    </g>
</svg>
