<svg xmlns="http://www.w3.org/2000/svg" width="18" height="18">
    <g transform="translate(0 -1034.362) translate(-654 -232)" color="#000">
        <path d="m 658,1268.3622 0,2 -1,0 0,10 6,0 0,-10 -1,0 0,-2 -4,0 z m 7,2 0,3 -1,0 0,9 6,0 0,-9 -1,0 0,-3 -1,0 0,3 -2,0 0,-3 -1,0 z m -7,1 1,0 0,1 -1,0 0,-1 z m 3,0 1,0 0,1 -1,0 0,-1 z m -3,2 1,0 0,1 -1,0 0,-1 z m 3,0 1,0 0,1 -1,0 0,-1 z m 4,1 1,0 0,1 -1,0 0,-1 z m 3,0 1,0 0,1 -1,0 0,-1 z m -10,1 1,0 0,1 -1,0 0,-1 z m 3,0 1,0 0,1 -1,0 0,-1 z m 4,1 1,0 0,1 -1,0 0,-1 z m 3,0 1,0 0,1 -1,0 0,-1 z m -10,1 1,0 0,1 -1,0 0,-1 z m 3,0 1,0 0,1 -1,0 0,-1 z m 4,1 1,0 0,1 -1,0 0,-1 z m 3,0 1,0 0,1 -1,0 0,-1 z m -3,2 1,0 0,1 -1,0 0,-1 z m 3,0 1,0 0,1 -1,0 0,-1 z" opacity=".3" fill="#fff" stroke="#fff" stroke-width="2" stroke-linecap="round" stroke-linejoin="round" overflow="visible" enable-background="accumulate"/>
        <path d="m 658,1268.3622 0,2 -1,0 0,10 6,0 0,-10 -1,0 0,-2 -4,0 z m 7,2 0,3 -1,0 0,9 6,0 0,-9 -1,0 0,-3 -1,0 0,3 -2,0 0,-3 -1,0 z m -7,1 1,0 0,1 -1,0 0,-1 z m 3,0 1,0 0,1 -1,0 0,-1 z m -3,2 1,0 0,1 -1,0 0,-1 z m 3,0 1,0 0,1 -1,0 0,-1 z m 4,1 1,0 0,1 -1,0 0,-1 z m 3,0 1,0 0,1 -1,0 0,-1 z m -10,1 1,0 0,1 -1,0 0,-1 z m 3,0 1,0 0,1 -1,0 0,-1 z m 4,1 1,0 0,1 -1,0 0,-1 z m 3,0 1,0 0,1 -1,0 0,-1 z m -10,1 1,0 0,1 -1,0 0,-1 z m 3,0 1,0 0,1 -1,0 0,-1 z m 4,1 1,0 0,1 -1,0 0,-1 z m 3,0 1,0 0,1 -1,0 0,-1 z m -3,2 1,0 0,1 -1,0 0,-1 z m 3,0 1,0 0,1 -1,0 0,-1 z" fill="#444" overflow="visible" enable-background="accumulate"/>
        <rect y="1266.362" x="654" height="18" width="18" opacity=".5" overflow="visible" enable-background="accumulate" fill="none"/>
    </g>
</svg>
