<svg xmlns="http://www.w3.org/2000/svg" width="18" height="18">
    <g transform="translate(0 -1034.362) translate(-264 -40)" color="#000">
        <g>
            <path d="m 274.5,1078.3622 -6.5,3.5 6.5,3.5 4.5,-2.3437 0,3.5625 c 0,1.7812 1.5,1.5312 1.5,1.5312 l 0,-0.75 c 0,0 -0.78125,0 -0.78125,-0.7812 l 0,-3.9688 1.28125,-0.75 z m -3.5,6.5 0,1.4375 c 0,0.3588 0.51257,0.8187 1,1.0625 l 2.5,1 2.5,-1 c 0.48743,-0.2438 1,-0.7037 1,-1.0625 l 0,-1.4375 -3.5,1.5 z" opacity=".3" stroke="#fff" stroke-width="2" stroke-linecap="round" stroke-linejoin="round" overflow="visible" enable-background="accumulate" fill="none" transform="translate(-1)"/>
            <path d="m 274.5,1078.3622 -6.5,3.5 6.5,3.5 4.5,-2.3437 0,3.5625 c 0,1.7812 1.5,1.5312 1.5,1.5312 l 0,-0.75 c 0,0 -0.78125,0 -0.78125,-0.7812 l 0,-3.9688 1.28125,-0.75 z m -3.5,6.5 0,1.4375 c 0,0.3588 0.51257,0.8187 1,1.0625 l 2.5,1 2.5,-1 c 0.48743,-0.2438 1,-0.7037 1,-1.0625 l 0,-1.4375 -3.5,1.5 z" fill="#444" overflow="visible" enable-background="accumulate" transform="translate(-1)"/>
        </g>
        <rect y="1074.362" x="264" height="18" width="18" opacity=".5" overflow="visible" enable-background="accumulate" fill="none"/>
    </g>
</svg>
