<svg xmlns="http://www.w3.org/2000/svg" width="24" height="24">
    <g transform="translate(0 -1028.362) translate(-630 -70)" color="#000">
        <path transform="translate(-120 1050.362)" d="m 756,50 c -0.5,0 -1,0.5 -1,1 l 0,18 6.5,0 0,-3 2,0 0,3 6.5,0 0,-18 c 0,-0.5 -0.5,-1 -1,-1 z" opacity=".3" fill="#fff" stroke="#fff" stroke-width="2" stroke-linejoin="round" overflow="visible" enable-background="accumulate"/>
        <path d="m 636,1100.3622 c -0.5,0 -1,0.5 -1,1 l 0,18 6,0 0,-3 3,0 0,3 6,0 0,-18 c 0,-0.5 -0.5,-1 -1,-1 z m 2,3 3,0 0,1 -3,0 z m 6,0 3,0 0,1 -3,0 z m -6,3 3,0 0,1 -3,0 z m 6,0 3,0 0,1 -3,0 z m -6,3 3,0 0,1 -3,0 z m 6,0 3,0 0,1 -3,0 z m -6,3 3,0 0,1 -3,0 z m 6,0 3,0 0,1 -3,0 z" fill="#444" overflow="visible" enable-background="accumulate"/>
        <rect width="24" height="24" x="630" y="1098.362" opacity=".5" overflow="visible" enable-background="accumulate" fill="none"/>
    </g>
</svg>
