<svg xmlns="http://www.w3.org/2000/svg" width="12" height="12">
    <g transform="translate(0 -1040.362) translate(-672 -58)" color="#000">
        <path d="m 675.5,1099.3622 -0.5,0.5 0,9.5 3,0 0,-2 1,0 0,2 3,0 0,-9.5 -0.5,-0.5 -6,0 z m 0.5,2 2,0 0,0.5 -2,0 0,-0.5 z m 3,0 2,0 0,0.5 -2,0 0,-0.5 z m -3,2 2,0 0,0.5 -2,0 0,-0.5 z m 3,0 2,0 0,0.5 -2,0 0,-0.5 z m -3,2 2,0 0,0.5 -2,0 0,-0.5 z m 3,0 2,0 0,0.5 -2,0 0,-0.5 z" opacity=".3" fill="#fff" stroke="#fff" stroke-width="2" stroke-linejoin="round" overflow="visible" enable-background="accumulate"/>
        <path d="m 795.5,49 -0.5,0.5 0,9.5 3,0 0,-2 1,0 0,2 3,0 0,-9.5 -0.5,-0.5 z m 0.5,2 2,0 0,1 -2,0 z m 3,0 2,0 0,1 -2,0 z m -3,2 2,0 0,1 -2,0 z m 3,0 2,0 0,1 -2,0 z m -3,2 2,0 0,1 -2,0 z m 3,0 2,0 0,1 -2,0 z" transform="translate(-120 1050.362)" fill="#444" overflow="visible" enable-background="accumulate"/>
        <rect y="1098.362" x="672" height="12" width="12" overflow="visible" enable-background="accumulate" fill="none"/>
    </g>
</svg>
