<?xml version="1.0" encoding="UTF-8" standalone="no"?>
<!-- Created with Inkscape (http://www.inkscape.org/) -->

<svg
   xmlns:dc="http://purl.org/dc/elements/1.1/"
   xmlns:cc="http://creativecommons.org/ns#"
   xmlns:rdf="http://www.w3.org/1999/02/22-rdf-syntax-ns#"
   xmlns:svg="http://www.w3.org/2000/svg"
   xmlns="http://www.w3.org/2000/svg"
   xmlns:sodipodi="http://sodipodi.sourceforge.net/DTD/sodipodi-0.dtd"
   xmlns:inkscape="http://www.inkscape.org/namespaces/inkscape"
   width="18"
   height="18"
   id="svg4619"
   version="1.1"
   inkscape:version="0.48.2 r9819"
   sodipodi:docname="swimming-18.svg">
  <defs
     id="defs4621" />
  <sodipodi:namedview
     id="base"
     pagecolor="#ffffff"
     bordercolor="#666666"
     borderopacity="1.0"
     inkscape:pageopacity="0.0"
     inkscape:pageshadow="2"
     inkscape:zoom="5.6568542"
     inkscape:cx="10.390555"
     inkscape:cy="12.616639"
     inkscape:document-units="px"
     inkscape:current-layer="layer1"
     showgrid="true"
     showguides="true"
     inkscape:guide-bbox="true"
     inkscape:window-width="1008"
     inkscape:window-height="662"
     inkscape:window-x="76"
     inkscape:window-y="40"
     inkscape:window-maximized="0"
     inkscape:snap-bbox="true"
     inkscape:object-paths="true"
     inkscape:snap-nodes="false">
    <inkscape:grid
       type="xygrid"
       id="grid4627"
       empspacing="5"
       visible="true"
       enabled="true"
       snapvisiblegridlinesonly="true" />
    <sodipodi:guide
       orientation="0,1"
       position="7,18"
       id="guide4659" />
    <sodipodi:guide
       orientation="1,0"
       position="18,9"
       id="guide4661" />
    <sodipodi:guide
       orientation="0,1"
       position="16,17"
       id="guide4663" />
    <sodipodi:guide
       orientation="1,0"
       position="17,14"
       id="guide4665" />
    <sodipodi:guide
       orientation="1,0"
       position="0,16"
       id="guide4667" />
    <sodipodi:guide
       orientation="0,1"
       position="8,0"
       id="guide4669" />
    <sodipodi:guide
       orientation="1,0"
       position="2,10"
       id="guide4671" />
    <sodipodi:guide
       orientation="0,1"
       position="12,2"
       id="guide4673" />
  </sodipodi:namedview>
  <metadata
     id="metadata4624">
    <rdf:RDF>
      <cc:Work
         rdf:about="">
        <dc:format>image/svg+xml</dc:format>
        <dc:type
           rdf:resource="http://purl.org/dc/dcmitype/StillImage" />
        <dc:title></dc:title>
      </cc:Work>
    </rdf:RDF>
  </metadata>
  <g
     inkscape:label="Layer 1"
     inkscape:groupmode="layer"
     id="layer1"
     transform="translate(0,-1034.3622)">
    <g
       style="display:inline"
       id="cricket-18"
       inkscape:label="cricket-18"
       transform="translate(-498,-208)"
       inkscape:export-xdpi="89.996864"
       inkscape:export-ydpi="89.996864">
      <g
         transform="translate(-1,-1)"
         id="g21398">
        <path
           inkscape:connector-curvature="0"
           style="opacity:0.3;color:#000000;fill:none;stroke:#ffffff;stroke-width:2;stroke-linecap:round;stroke-linejoin:round;stroke-miterlimit:4;stroke-opacity:1;stroke-dasharray:none;stroke-dashoffset:0;marker:none;visibility:visible;display:inline;overflow:visible;enable-background:accumulate"
           d="m 504.4375,1245.331 c 0,0 -0.8125,0 -1.625,0.8125 -0.8125,0.8125 -0.8125,1.625 -0.8125,1.625 l 8.125,8.125 1.21875,-0.4062 2.4375,2.4375 c 0.25698,0.2569 0.425,0.4062 0.75,0.4062 0.10156,0 0.21679,0 0.34375,-0.125 0.12699,-0.127 0.125,-0.2421 0.125,-0.3437 0,-0.325 -0.17703,-0.5208 -0.40625,-0.75 l -2.4375,-2.4375 0.40625,-1.2188 -8.125,-8.125 z m 2.3125,10.0313 c -0.69036,0 -1.25,0.5596 -1.25,1.25 0,0.6903 0.55964,1.25 1.25,1.25 0.69036,0 1.25,-0.5597 1.25,-1.25 0,-0.6904 -0.55964,-1.25 -1.25,-1.25 z"
           id="path9336-3-6-1" />
        <path
           style="color:#000000;fill:#444444;fill-opacity:1;fill-rule:nonzero;stroke:none;stroke-width:2;marker:none;visibility:visible;display:inline;overflow:visible;enable-background:accumulate"
           d="m 504.4375,1245.331 c 0,0 -0.8125,0 -1.625,0.8125 -0.8125,0.8125 -0.8125,1.625 -0.8125,1.625 l 8.125,8.125 1.21875,-0.4063 2.4375,2.4375 c 0.25698,0.2569 0.425,0.4063 0.75,0.4063 0.10156,0 0.21679,0 0.34375,-0.125 0.12699,-0.127 0.125,-0.2422 0.125,-0.3438 0,-0.325 -0.17703,-0.5208 -0.40625,-0.75 l -2.4375,-2.4375 0.40625,-1.2187 -8.125,-8.125 z m 2.3125,10.0312 c -0.69036,0 -1.25,0.5596 -1.25,1.25 0,0.6904 0.55964,1.25 1.25,1.25 0.69036,0 1.25,-0.5596 1.25,-1.25 0,-0.6904 -0.55964,-1.25 -1.25,-1.25 z"
           id="path9336-3-6"
           inkscape:connector-curvature="0" />
      </g>
      <rect
         y="1242.3622"
         x="497.99997"
         height="18.000031"
         width="18.000017"
         id="rect22605"
         style="opacity:0.5;color:#000000;fill:none;stroke:none;stroke-width:2;marker:none;visibility:visible;display:inline;overflow:visible;enable-background:accumulate" />
    </g>
  </g>
</svg>
