<svg xmlns="http://www.w3.org/2000/svg" width="24" height="24">
    <g transform="translate(0 -1028.362) translate(-474 -214)" color="#000">
        <g>
            <path d="m 479,1246.3623 c -1,1 -1,2 -1,2 l 10,10 1.5,-0.5 4,4 c 0.31628,0.3163 0.50625,0.5 0.90625,0.5 0.125,0 0.28125,0 0.4375,-0.1562 0.1563,-0.1563 0.15625,-0.3125 0.15625,-0.4375 0,-0.4 -0.21788,-0.6242 -0.5,-0.9063 l -4,-4 0.5,-1.5 -10,-10 c 0,0 -1,0 -2,1 z m 3.5,9 c -0.82843,0 -1.5,0.6716 -1.5,1.5 0,0.8284 0.67157,1.5 1.5,1.5 0.82843,0 1.5,-0.6716 1.5,-1.5 0,-0.8284 -0.67157,-1.5 -1.5,-1.5 z" opacity=".3" stroke="#fff" stroke-width="2" overflow="visible" enable-background="accumulate" fill="none"/>
            <path d="m 479,1246.3623 c -1,1 -1,2 -1,2 l 10,10 1.5,-0.5 4,4 c 0.31628,0.3163 0.50625,0.5 0.90625,0.5 0.125,0 0.28125,0 0.4375,-0.1562 0.1563,-0.1563 0.15625,-0.3125 0.15625,-0.4375 0,-0.4 -0.21788,-0.6242 -0.5,-0.9063 l -4,-4 0.5,-1.5 -10,-10 c 0,0 -1,0 -2,1 z m 3.5,9 c -0.82843,0 -1.5,0.6716 -1.5,1.5 0,0.8284 0.67157,1.5 1.5,1.5 0.82843,0 1.5,-0.6716 1.5,-1.5 0,-0.8284 -0.67157,-1.5 -1.5,-1.5 z" fill="#444" overflow="visible" enable-background="accumulate"/>
        </g>
        <rect width="24" height="24" x="474" y="1242.362" opacity=".5" overflow="visible" enable-background="accumulate" fill="none"/>
    </g>
</svg>
