<svg xmlns="http://www.w3.org/2000/svg" width="12" height="12">
    <g transform="translate(0 -1040.362) translate(-516 -202)" color="#000">
        <path d="m 520,1243.6122 c 0,0 -0.5,0.25 -1,0.75 -0.5,0.5 -0.75,1 -0.75,1 l 5,5 1.25,0 2,2 0.5,0 0,-0.5 -2,-1.9995 0,-1.25 -5,-5 z m -1,5.25 c -0.55228,0 -1,0.4477 -1,1 0,0.5523 0.44772,1 1,1 0.55228,0 1,-0.4477 1,-1 0,-0.5523 -0.44772,-1 -1,-1 z" opacity=".3" stroke="#fff" stroke-width="2" stroke-linecap="round" stroke-linejoin="round" overflow="visible" enable-background="accumulate" fill="none"/>
        <path d="m 520,1243.6122 c 0,0 -0.5,0.25 -1,0.75 -0.5,0.5 -0.75,1 -0.75,1 l 5,5 1.25,0 2,2 0.5,0 0,-0.5 -2,-1.9995 0,-1.25 -5,-5 z m -1,5.25 c -0.55228,0 -1,0.4477 -1,1 0,0.5523 0.44772,1 1,1 0.55228,0 1,-0.4477 1,-1 0,-0.5523 -0.44772,-1 -1,-1 z" fill="#444" overflow="visible" enable-background="accumulate"/>
        <rect width="12" height="12" x="516" y="1242.362" opacity=".5" overflow="visible" enable-background="accumulate" fill="none"/>
    </g>
</svg>
