<svg xmlns="http://www.w3.org/2000/svg" width="12" height="12">
    <g transform="translate(0 -1040.362) translate(30 -202)" color="#000">
        <g font-family="Sans">
            <path style="text-indent:0;text-align:start;line-height:normal;text-transform:none;block-progression:tb;-inkscape-font-specification:Sans" d="m -27.5,1243.3622 c -0.25,0 -0.5,0.2502 -0.5,0.5 0,0.1245 0.0407,0.2438 0.140625,0.3438 l 3.65625,3.6562 -3.65625,3.6563 c -0.09995,0.1 -0.140625,0.2193 -0.140625,0.3437 0,0.2498 0.25,0.5 0.5,0.5 0.125,0 0.25,-0.031 0.359375,-0.1406 l 3.640625,-3.6406 3.640625,3.6406 c 0.109375,0.1096 0.234375,0.1406 0.359375,0.1406 0.25,0 0.5,-0.2502 0.5,-0.5 0,-0.1244 -0.0407,-0.2438 -0.140625,-0.3437 l -3.65625,-3.6563 3.65625,-3.6562 c 0.09995,-0.1 0.140625,-0.2193 0.140625,-0.3438 0,-0.2498 -0.25,-0.5 -0.5,-0.5 -0.125,0 -0.25,0.031 -0.359375,0.1407 l -3.640625,3.6406 -3.640625,-3.6406 C -27.25,1243.3932 -27.375,1243.3622 -27.5,1243.3622 z" opacity=".3" fill="#fff" stroke="#fff" stroke-width="2" stroke-linejoin="round" overflow="visible" enable-background="accumulate"/>
            <path d="m -27.5,1243.3622 c -0.25,0 -0.5,0.2502 -0.5,0.5 0,0.1245 0.0407,0.2438 0.140625,0.3438 l 3.65625,3.6562 -3.65625,3.6563 c -0.09995,0.1 -0.140625,0.2193 -0.140625,0.3437 0,0.2498 0.25,0.5 0.5,0.5 0.125,0 0.25,-0.031 0.359375,-0.1406 l 3.640625,-3.6406 3.640625,3.6406 c 0.109375,0.1096 0.234375,0.1406 0.359375,0.1406 0.25,0 0.5,-0.2502 0.5,-0.5 0,-0.1244 -0.0407,-0.2438 -0.140625,-0.3437 l -3.65625,-3.6563 3.65625,-3.6562 c 0.09995,-0.1 0.140625,-0.2193 0.140625,-0.3438 0,-0.2498 -0.25,-0.5 -0.5,-0.5 -0.125,0 -0.25,0.031 -0.359375,0.1407 l -3.640625,3.6406 -3.640625,-3.6406 C -27.25,1243.3932 -27.375,1243.3622 -27.5,1243.3622 z" style="text-indent:0;text-align:start;line-height:normal;text-transform:none;block-progression:tb;-inkscape-font-specification:Sans" fill="#444" overflow="visible" enable-background="accumulate"/>
        </g>
        <rect width="12" height="12" x="-30" y="1242.362" opacity=".5" overflow="visible" enable-background="accumulate" fill="none"/>
    </g>
</svg>
