<svg xmlns="http://www.w3.org/2000/svg" width="18" height="18">
    <g transform="translate(0 -1034.362) translate(48 -208)" color="#000">
        <g font-family="Sans">
            <path style="text-indent:0;text-align:start;line-height:normal;text-transform:none;block-progression:tb;-inkscape-font-specification:Sans" d="m -43.916667,1244.3622 c -0.541666,0 -1.083333,0.5421 -1.083333,1.0833 0,0.2697 0.08818,0.5283 0.304688,0.7448 l 4.671875,4.6719 -4.671875,4.6719 c -0.216559,0.2165 -0.304688,0.4751 -0.304688,0.7448 0,0.5412 0.541667,1.0833 1.083333,1.0833 0.270834,0 0.541667,-0.067 0.778646,-0.3046 l 4.638021,-4.6381 4.638021,4.6381 c 0.236979,0.2374 0.507812,0.3046 0.778646,0.3046 0.541666,0 1.083333,-0.5421 1.083333,-1.0833 0,-0.2697 -0.08818,-0.5283 -0.304687,-0.7448 l -4.671875,-4.6719 4.671875,-4.6719 c 0.216558,-0.2165 0.304687,-0.4751 0.304687,-0.7448 0,-0.5412 -0.541667,-1.0833 -1.083333,-1.0833 -0.270834,0 -0.541667,0.067 -0.778646,0.3047 l -4.638021,4.638 -4.638021,-4.638 c -0.236979,-0.2375 -0.507812,-0.3047 -0.778646,-0.3047 z" opacity=".3" fill="#fff" stroke="#fff" stroke-width="2" stroke-linejoin="round" overflow="visible" enable-background="accumulate"/>
            <path d="m -43.916667,1244.3622 c -0.541666,0 -1.083333,0.5421 -1.083333,1.0833 0,0.2697 0.08818,0.5283 0.304688,0.7448 l 4.671875,4.6719 -4.671875,4.6719 c -0.216559,0.2165 -0.304688,0.4751 -0.304688,0.7448 0,0.5412 0.541667,1.0833 1.083333,1.0833 0.270834,0 0.541667,-0.067 0.778646,-0.3046 l 4.638021,-4.6381 4.638021,4.6381 c 0.236979,0.2374 0.507812,0.3046 0.778646,0.3046 0.541666,0 1.083333,-0.5421 1.083333,-1.0833 0,-0.2697 -0.08818,-0.5283 -0.304687,-0.7448 l -4.671875,-4.6719 4.671875,-4.6719 c 0.216558,-0.2165 0.304687,-0.4751 0.304687,-0.7448 0,-0.5412 -0.541667,-1.0833 -1.083333,-1.0833 -0.270834,0 -0.541667,0.067 -0.778646,0.3047 l -4.638021,4.638 -4.638021,-4.638 c -0.236979,-0.2375 -0.507812,-0.3047 -0.778646,-0.3047 z" style="text-indent:0;text-align:start;line-height:normal;text-transform:none;block-progression:tb;-inkscape-font-specification:Sans" fill="#444" overflow="visible" enable-background="accumulate"/>
        </g>
        <rect y="1242.362" x="-48" height="18" width="18" opacity=".5" overflow="visible" enable-background="accumulate" fill="none"/>
    </g>
</svg>
