<?xml version="1.0" encoding="UTF-8" standalone="no"?>
<!-- Created with Inkscape (http://www.inkscape.org/) -->

<svg
   xmlns:dc="http://purl.org/dc/elements/1.1/"
   xmlns:cc="http://creativecommons.org/ns#"
   xmlns:rdf="http://www.w3.org/1999/02/22-rdf-syntax-ns#"
   xmlns:svg="http://www.w3.org/2000/svg"
   xmlns="http://www.w3.org/2000/svg"
   xmlns:sodipodi="http://sodipodi.sourceforge.net/DTD/sodipodi-0.dtd"
   xmlns:inkscape="http://www.inkscape.org/namespaces/inkscape"
   width="24"
   height="24"
   id="svg4460"
   version="1.1"
   inkscape:version="0.48.2 r9819"
   sodipodi:docname="land-use-24.svg">
  <defs
     id="defs4462" />
  <sodipodi:namedview
     id="base"
     pagecolor="#ffffff"
     bordercolor="#666666"
     borderopacity="1.0"
     inkscape:pageopacity="0.0"
     inkscape:pageshadow="2"
     inkscape:zoom="11.313708"
     inkscape:cx="15.622727"
     inkscape:cy="6.9146856"
     inkscape:document-units="px"
     inkscape:current-layer="layer1"
     showgrid="true"
     showguides="true"
     inkscape:guide-bbox="true"
     inkscape:window-width="1220"
     inkscape:window-height="833"
     inkscape:window-x="38"
     inkscape:window-y="82"
     inkscape:window-maximized="0"
     inkscape:snap-bbox="true"
     inkscape:snap-nodes="false">
    <inkscape:grid
       type="xygrid"
       id="grid4468"
       empspacing="5"
       visible="true"
       enabled="true"
       snapvisiblegridlinesonly="true"
       spacingx="1px"
       spacingy="1px" />
    <sodipodi:guide
       orientation="1,0"
       position="0,20"
       id="guide4470" />
    <sodipodi:guide
       orientation="0,1"
       position="4,24"
       id="guide4472" />
    <sodipodi:guide
       orientation="1,0"
       position="24,13"
       id="guide4474" />
    <sodipodi:guide
       orientation="0,1"
       position="15,0"
       id="guide4476" />
    <sodipodi:guide
       orientation="1,0"
       position="23,20"
       id="guide4478" />
    <sodipodi:guide
       orientation="0,1"
       position="20,23"
       id="guide4480" />
    <sodipodi:guide
       orientation="1,0"
       position="2,5"
       id="guide4482" />
    <sodipodi:guide
       orientation="0,1"
       position="7,2"
       id="guide4484" />
    <sodipodi:guide
       orientation="1,0"
       position="13,16"
       id="guide4486" />
    <sodipodi:guide
       orientation="0,1"
       position="16,13"
       id="guide4490" />
  </sodipodi:namedview>
  <metadata
     id="metadata4465">
    <rdf:RDF>
      <cc:Work
         rdf:about="">
        <dc:format>image/svg+xml</dc:format>
        <dc:type
           rdf:resource="http://purl.org/dc/dcmitype/StillImage" />
        <dc:title></dc:title>
      </cc:Work>
    </rdf:RDF>
  </metadata>
  <g
     inkscape:label="Layer 1"
     inkscape:groupmode="layer"
     id="layer1"
     transform="translate(0,-1028.3622)">
    <g
       style="display:inline"
       id="dam-24"
       transform="translate(-476,-285.99998)"
       inkscape:label="dam-24"
       inkscape:export-xdpi="89.996864"
       inkscape:export-ydpi="89.996864">
      <g
         transform="translate(2,0)"
         id="g7277">
        <path
           id="path7063"
           d="m 478,1320.3622 c 0,2.2083 0,6.625 0,6.625 l 0,2.0313 0,1.9687 0,1.375 c 0,0.5 0.5,1 1,1 l 5,0 -4,-14 c 0,0 -0.66667,0 -1,0 -0.5,0 -1,0.5 -1,1 z m 8.5,6 c -0.10553,0 -0.21675,0.033 -0.3125,0.062 l -2.4375,0.8438 0.53125,1.875 2.21875,-0.7813 2.6875,0.9375 c 0.10312,0.034 0.20717,0.062 0.3125,0.062 0.10533,0 0.21434,-0.032 0.3125,-0.062 l 3.1875,-0.9375 2,0.6563 0,-2.0313 -1.6875,-0.5625 c -0.0994,-0.033 -0.20697,-0.062 -0.3125,-0.062 -0.10553,0 -0.21062,0.029 -0.3125,0.062 l -3.1875,0.9375 -2.6875,-0.9375 c -0.10552,-0.035 -0.20697,-0.062 -0.3125,-0.062 z m 0,4 c -0.10553,0 -0.21675,0.033 -0.3125,0.062 l -1.375,0.4688 0.53125,1.875 1.15625,-0.4063 2.6875,0.9375 c 0.10312,0.034 0.20717,0.062 0.3125,0.062 0.10533,0 0.21434,-0.032 0.3125,-0.062 l 3.1875,-0.9375 2,0.6563 0,-2.0313 -1.6875,-0.5625 c -0.0994,-0.033 -0.20697,-0.062 -0.3125,-0.062 -0.10553,0 -0.21062,0.029 -0.3125,0.062 l -3.1875,0.9375 -2.6875,-0.9375 c -0.10552,-0.035 -0.20697,-0.062 -0.3125,-0.062 z"
           style="opacity:0.3;color:#000000;fill:#ffffff;fill-opacity:1;fill-rule:nonzero;stroke:#ffffff;stroke-width:2;stroke-linecap:round;stroke-linejoin:round;stroke-miterlimit:4;stroke-opacity:1;stroke-dasharray:none;stroke-dashoffset:0;marker:none;visibility:visible;display:inline;overflow:visible;enable-background:accumulate"
           inkscape:connector-curvature="0"
           sodipodi:nodetypes="scccccccssscccccscccccscccsscccccscccccscccs" />
        <path
           style="color:#000000;fill:#444444;fill-opacity:1;fill-rule:nonzero;stroke:none;stroke-width:2;marker:none;visibility:visible;display:inline;overflow:visible;enable-background:accumulate"
           d="m 478,1320.3622 c 0,2.2083 0,6.625 0,6.625 l 0,2.0313 0,1.9687 0,1.375 c 0,0.5 0.5,1 1,1 l 5,0 -4,-14 c 0,0 -0.66667,0 -1,0 -0.5,0 -1,0.5 -1,1 z m 8.5,6 c -0.10553,0 -0.21675,0.033 -0.3125,0.062 l -2.4375,0.8438 0.53125,1.875 2.21875,-0.7813 2.6875,0.9375 c 0.10312,0.034 0.20717,0.062 0.3125,0.062 0.10533,0 0.21434,-0.032 0.3125,-0.062 l 3.1875,-0.9375 2,0.6563 0,-2.0313 -1.6875,-0.5625 c -0.0994,-0.033 -0.20697,-0.062 -0.3125,-0.062 -0.10553,0 -0.21062,0.029 -0.3125,0.062 l -3.1875,0.9375 -2.6875,-0.9375 c -0.10552,-0.035 -0.20697,-0.062 -0.3125,-0.062 z m 0,4 c -0.10553,0 -0.21675,0.033 -0.3125,0.062 l -1.375,0.4688 0.53125,1.875 1.15625,-0.4063 2.6875,0.9375 c 0.10312,0.034 0.20717,0.062 0.3125,0.062 0.10533,0 0.21434,-0.032 0.3125,-0.062 l 3.1875,-0.9375 2,0.6563 0,-2.0313 -1.6875,-0.5625 c -0.0994,-0.033 -0.20697,-0.062 -0.3125,-0.062 -0.10553,0 -0.21062,0.029 -0.3125,0.062 l -3.1875,0.9375 -2.6875,-0.9375 c -0.10552,-0.035 -0.20697,-0.062 -0.3125,-0.062 z"
           id="path7047"
           inkscape:connector-curvature="0"
           sodipodi:nodetypes="scccccccssscccccscccccscccsscccccscccccscccs" />
      </g>
      <rect
         style="opacity:0.5;color:#000000;fill:none;stroke:none;stroke-width:2;marker:none;visibility:visible;display:inline;overflow:visible;enable-background:accumulate"
         id="rect7325"
         width="24"
         height="24.000017"
         x="476"
         y="1314.3622" />
    </g>
  </g>
</svg>
