<svg xmlns="http://www.w3.org/2000/svg" width="24" height="24">
    <g transform="translate(0 -1028.362) translate(-476 -286)" color="#000">
        <g>
            <path d="m 478,1320.3622 c 0,2.2083 0,6.625 0,6.625 l 0,2.0313 0,1.9687 0,1.375 c 0,0.5 0.5,1 1,1 l 5,0 -4,-14 c 0,0 -0.66667,0 -1,0 -0.5,0 -1,0.5 -1,1 z m 8.5,6 c -0.10553,0 -0.21675,0.033 -0.3125,0.062 l -2.4375,0.8438 0.53125,1.875 2.21875,-0.7813 2.6875,0.9375 c 0.10312,0.034 0.20717,0.062 0.3125,0.062 0.10533,0 0.21434,-0.032 0.3125,-0.062 l 3.1875,-0.9375 2,0.6563 0,-2.0313 -1.6875,-0.5625 c -0.0994,-0.033 -0.20697,-0.062 -0.3125,-0.062 -0.10553,0 -0.21062,0.029 -0.3125,0.062 l -3.1875,0.9375 -2.6875,-0.9375 c -0.10552,-0.035 -0.20697,-0.062 -0.3125,-0.062 z m 0,4 c -0.10553,0 -0.21675,0.033 -0.3125,0.062 l -1.375,0.4688 0.53125,1.875 1.15625,-0.4063 2.6875,0.9375 c 0.10312,0.034 0.20717,0.062 0.3125,0.062 0.10533,0 0.21434,-0.032 0.3125,-0.062 l 3.1875,-0.9375 2,0.6563 0,-2.0313 -1.6875,-0.5625 c -0.0994,-0.033 -0.20697,-0.062 -0.3125,-0.062 -0.10553,0 -0.21062,0.029 -0.3125,0.062 l -3.1875,0.9375 -2.6875,-0.9375 c -0.10552,-0.035 -0.20697,-0.062 -0.3125,-0.062 z" opacity=".3" fill="#fff" stroke="#fff" stroke-width="2" stroke-linecap="round" stroke-linejoin="round" overflow="visible" enable-background="accumulate" transform="translate(2)"/>
            <path d="m 478,1320.3622 c 0,2.2083 0,6.625 0,6.625 l 0,2.0313 0,1.9687 0,1.375 c 0,0.5 0.5,1 1,1 l 5,0 -4,-14 c 0,0 -0.66667,0 -1,0 -0.5,0 -1,0.5 -1,1 z m 8.5,6 c -0.10553,0 -0.21675,0.033 -0.3125,0.062 l -2.4375,0.8438 0.53125,1.875 2.21875,-0.7813 2.6875,0.9375 c 0.10312,0.034 0.20717,0.062 0.3125,0.062 0.10533,0 0.21434,-0.032 0.3125,-0.062 l 3.1875,-0.9375 2,0.6563 0,-2.0313 -1.6875,-0.5625 c -0.0994,-0.033 -0.20697,-0.062 -0.3125,-0.062 -0.10553,0 -0.21062,0.029 -0.3125,0.062 l -3.1875,0.9375 -2.6875,-0.9375 c -0.10552,-0.035 -0.20697,-0.062 -0.3125,-0.062 z m 0,4 c -0.10553,0 -0.21675,0.033 -0.3125,0.062 l -1.375,0.4688 0.53125,1.875 1.15625,-0.4063 2.6875,0.9375 c 0.10312,0.034 0.20717,0.062 0.3125,0.062 0.10533,0 0.21434,-0.032 0.3125,-0.062 l 3.1875,-0.9375 2,0.6563 0,-2.0313 -1.6875,-0.5625 c -0.0994,-0.033 -0.20697,-0.062 -0.3125,-0.062 -0.10553,0 -0.21062,0.029 -0.3125,0.062 l -3.1875,0.9375 -2.6875,-0.9375 c -0.10552,-0.035 -0.20697,-0.062 -0.3125,-0.062 z" fill="#444" overflow="visible" enable-background="accumulate" transform="translate(2)"/>
        </g>
        <rect width="24" height="24" x="476" y="1314.362" opacity=".5" overflow="visible" enable-background="accumulate" fill="none"/>
    </g>
</svg>
