<svg xmlns="http://www.w3.org/2000/svg" width="24" height="24">
    <g transform="translate(0 -1028.362) translate(-552 -22)" color="#000">
        <path d="m 564.5,1054.3622 c -2.5,0 -4.5,2 -4.5,4 l 0,2 c 0,1 2,1 2,2 l 0,1 2.5,1 2.5,-1 0,-1 c 0,-1 2,-1 2,-2 l 0,-2 c 0,-2 -2,-4 -4.5,-4 z m -1.5,3 c 0.55228,0 1,0.4477 1,1 0,0.5523 -0.44772,1 -1,1 -0.55228,0 -1,-0.4477 -1,-1 0,-0.5523 0.44772,-1 1,-1 z m 3,0 c 0.55228,0 1,0.4477 1,1 0,0.5523 -0.44772,1 -1,1 -0.55228,0 -1,-0.4477 -1,-1 0,-0.5523 0.44772,-1 1,-1 z m -8,6 c -0.5,0 -1,0.5 -1,1 l 0,0.5 5.25,2.25 -5.25,2.25 0,0.5 c 0,0.5 0.5,1 1,1 l 14,-6 0,-0.5 c 0,-0.5 -0.5,-1 -1,-1 l -6.5,2.7813 -6.5,-2.7813 z m 10.5,4.5 -2.25,0.9688 4.75,2.0312 c 0.5,0 1,-0.5 1,-1 l 0,-0.5 -3.5,-1.5 z" opacity=".3" fill="#fff" stroke="#fff" stroke-width="2" stroke-linecap="round" stroke-linejoin="round" overflow="visible" enable-background="accumulate"/>
        <path d="m 564.5,1054.3622 c -2.5,0 -4.5,2 -4.5,4 l 0,2 c 0,1 2,1 2,2 l 0,1 2.5,1 2.5,-1 0,-1 c 0,-1 2,-1 2,-2 l 0,-2 c 0,-2 -2,-4 -4.5,-4 z m -1.5,3 c 0.55228,0 1,0.4477 1,1 0,0.5523 -0.44772,1 -1,1 -0.55228,0 -1,-0.4477 -1,-1 0,-0.5523 0.44772,-1 1,-1 z m 3,0 c 0.55228,0 1,0.4477 1,1 0,0.5523 -0.44772,1 -1,1 -0.55228,0 -1,-0.4477 -1,-1 0,-0.5523 0.44772,-1 1,-1 z m -8,6 c -0.5,0 -1,0.5 -1,1 l 0,0.5 5.25,2.25 -5.25,2.25 0,0.5 c 0,0.5 0.5,1 1,1 l 14,-6 0,-0.5 c 0,-0.5 -0.5,-1 -1,-1 l -6.5,2.7813 -6.5,-2.7813 z m 10.5,4.5 -2.25,0.9688 4.75,2.0312 c 0.5,0 1,-0.5 1,-1 l 0,-0.5 -3.5,-1.5 z" fill="#444" overflow="visible" enable-background="accumulate"/>
        <rect y="1050.362" x="552" height="24" width="24" opacity=".5" overflow="visible" enable-background="accumulate" fill="none"/>
    </g>
</svg>
