<svg xmlns="http://www.w3.org/2000/svg" width="18" height="18">
    <g transform="translate(0 -1034.362) translate(-576 -16)" color="#000">
        <path d="m 584.5,1052.3622 -1.5,0.5 -1,1.5 0,2.5 1.5,1 0,1.5 2,1 2,-1 0,-1.5 1.5,-1 0,-2.5 -1,-1.5 -1.5,-0.5 z m -0.5,2.5 0.5,0 0.5,0.5 0,0.5 -0.5,0.5 -0.5,0 -0.5,-0.5 0,-0.5 z m 2.5,0 0.5,0 0.5,0.5 0,0.5 -0.5,0.5 -0.5,0 -0.5,-0.5 0,-0.5 z m -6.5,5 0,1 3.875,1.75 -3.875,1.75 0,1 1,0 10,-4.5 0,-1 -1,0 -4.5,2.0313 -4.5,-2.0313 z m 8.21875,3.25 -1.59375,0.7188 3.375,1.5312 1,0 0,-1 z" opacity=".3" fill="#fff" stroke="#fff" stroke-width="2" stroke-linecap="round" stroke-linejoin="round" overflow="visible" enable-background="accumulate"/>
        <path d="m 584.5,1052.3622 -1.5,0.5 -1,1.5 0,2.5 1.5,1 0,1.5 2,1 2,-1 0,-1.5 1.5,-1 0,-2.5 -1,-1.5 -1.5,-0.5 z m -0.5,2.5 0.5,0 0.5,0.5 0,0.5 -0.5,0.5 -0.5,0 -0.5,-0.5 0,-0.5 z m 2.5,0 0.5,0 0.5,0.5 0,0.5 -0.5,0.5 -0.5,0 -0.5,-0.5 0,-0.5 z m -6.5,5 0,1 3.875,1.75 -3.875,1.75 0,1 1,0 10,-4.5 0,-1 -1,0 -4.5,2.0313 -4.5,-2.0313 z m 8.21875,3.25 -1.59375,0.7188 3.375,1.5312 1,0 0,-1 z" fill="#444" overflow="visible" enable-background="accumulate"/>
        <rect y="1050.362" x="576" height="18" width="18" opacity=".5" overflow="visible" enable-background="accumulate" fill="none"/>
    </g>
</svg>
