<svg xmlns="http://www.w3.org/2000/svg" width="24" height="24">
    <g transform="translate(0 -1028.362) translate(-318 -335)">
        <path d="m 329.5,1365.3622 c -1.3807,0 -2.5,1.1193 -2.5,2.5 0,1.3808 1.1193,2.5 2.5,2.5 1.3807,0 2.5,-1.1192 2.5,-2.5 0,-1.3807 -1.1193,-2.5 -2.5,-2.5 z m -0.5,6 c -1,0 -2,1 -2,2 l 0,3.5 c 0,1.5 1,2.5 2.5,2.5 l 5,0 2.625,3.5 c 0.22625,0.3321 0.48443,0.5 0.875,0.5 0.50005,0 1.00005,-0.5 1,-1 0,-0.293 -0.16664,-0.5202 -0.28125,-0.7187 L 336,1377.8622 c -0.18118,-0.3138 -0.49995,-0.5001 -1,-0.5 l -2.5,0 -1,-4 c -0.24256,-0.9702 -0.5,-2 -1.5,-2 z m -3,2 c -2.33117,0.8233 -4,3.387 -4,6 0,3.3137 2.6863,6 6,6 2.97561,0 5.43327,-2.1586 5.90625,-5 l -1.90625,0 c -0.5381,1.73 -1.84289,3 -3.75,3 -2.34721,0 -4.25,-1.9028 -4.25,-4.25 0,-1.5176 0.80334,-2.9981 2,-3.75 z" opacity=".3" color="#000" stroke="#fff" stroke-width="2" stroke-linecap="round" stroke-linejoin="round" overflow="visible" enable-background="accumulate" fill="none"/>
        <path d="m 329.5,1365.3622 c -1.3807,0 -2.5,1.1193 -2.5,2.5 0,1.3808 1.1193,2.5 2.5,2.5 1.3807,0 2.5,-1.1192 2.5,-2.5 0,-1.3807 -1.1193,-2.5 -2.5,-2.5 z m -0.5,6 c -1,0 -2,1 -2,2 l 0,3.5 c 0,1.5 1,2.5 2.5,2.5 l 5,0 2.625,3.5 c 0.22625,0.3321 0.48443,0.5 0.875,0.5 0.50005,0 1.00005,-0.5 1,-1 0,-0.293 -0.16664,-0.5202 -0.28125,-0.7187 L 336,1377.8622 c -0.18118,-0.3138 -0.49995,-0.5001 -1,-0.5 l -2.5,0 -1,-4 c -0.24256,-0.9702 -0.5,-2 -1.5,-2 z m -3,2 c -2.33117,0.8233 -4,3.387 -4,6 0,3.3137 2.6863,6 6,6 2.97561,0 5.43327,-2.1586 5.90625,-5 l -1.90625,0 c -0.5381,1.73 -1.84289,3 -3.75,3 -2.34721,0 -4.25,-1.9028 -4.25,-4.25 0,-1.5176 0.80334,-2.9981 2,-3.75 z" color="#000" fill="#444" overflow="visible" enable-background="accumulate"/>
        <rect y="1314.362" x="320" height="24" width="24" color="#000" overflow="visible" enable-background="accumulate" fill="none" transform="translate(-2 49)"/>
    </g>
</svg>
