<svg xmlns="http://www.w3.org/2000/svg" width="18" height="18">
    <g transform="translate(0 -1034.362) translate(-342 -329)" color="#000">
        <rect width="18" height="18" x="342" y="1363.362" overflow="visible" enable-background="accumulate" fill="none"/>
        <path d="m 350.5,1364.3622 c -1.10457,0 -2,0.8954 -2,2 0,1.1046 0.89543,2 2,2 1.10457,0 2,-0.8954 2,-2 0,-1.1046 -0.89543,-2 -2,-2 z m -0.5,5 -1,1 0,4 1,1 4.375,0 2.625,3 1,0 0,-1 -2.5,-3.125 -0.5,-0.375 -2,0 -1,-3.5 -1,-1 -1,0 z m -2,1.5 c -1.74838,0.6175 -3,2.5403 -3,4.5 0,2.4853 2.01472,4.5 4.5,4.5 2.23171,0 4.08276,-1.3689 4.4375,-3.5 l -1.4375,0 c -0.40358,1.2975 -1.38217,2 -2.8125,2 -1.76041,0 -3.1875,-1.4271 -3.1875,-3.1875 0,-1.1382 0.6025,-2.2486 1.5,-2.8125 l 0,-1.5 z" opacity=".3" stroke="#fff" stroke-width="2" stroke-linecap="round" stroke-linejoin="round" overflow="visible" enable-background="accumulate" fill="none"/>
        <path d="m 350.5,1364.3622 c -1.10457,0 -2,0.8954 -2,2 0,1.1046 0.89543,2 2,2 1.10457,0 2,-0.8954 2,-2 0,-1.1046 -0.89543,-2 -2,-2 z m -0.5,5 -1,1 0,4 1,1 4.375,0 2.625,3 1,0 0,-1 -2.5,-3.125 -0.5,-0.375 -2,0 -1,-3.5 -1,-1 -1,0 z m -2,1.5 c -1.74838,0.6175 -3,2.5403 -3,4.5 0,2.4853 2.01472,4.5 4.5,4.5 2.23171,0 4.08276,-1.3689 4.4375,-3.5 l -1.4375,0 c -0.40358,1.2975 -1.38217,2 -2.8125,2 -1.76041,0 -3.1875,-1.4271 -3.1875,-3.1875 0,-1.1382 0.6025,-2.2486 1.5,-2.8125 l 0,-1.5 z" fill="#444" overflow="visible" enable-background="accumulate"/>
    </g>
</svg>
