<svg xmlns="http://www.w3.org/2000/svg" width="12" height="12">
    <g transform="translate(0 -1040.362) translate(-360 -323)" color="#000">
        <path d="m 365.5,1364.3622 c -0.82843,0 -1.5,0.6716 -1.5,1.5 0,0.8284 0.67157,1.5 1.5,1.5 0.82843,0 1.5,-0.6716 1.5,-1.5 0,-0.8284 -0.67157,-1.5 -1.5,-1.5 z m -0.5,3.5 0,3.5 3.25,0 1.75,2 1,0 0,-0.5 -2,-2.5 -1.65625,0 -0.84375,-2.5 -1.5,0 z m -1,0.5 c -1.16559,0.4117 -2,1.6935 -2,3 0,1.6569 1.34315,3 3,3 1.36817,0 2.51442,-0.7711 2.875,-2 l -1.03125,0 c -0.32327,0.6419 -0.90219,1 -1.71875,1 -1.17361,0 -2.125,-0.9514 -2.125,-2.125 0,-0.7588 0.40167,-1.499 1,-1.875 l 0,-1 z" opacity=".3" stroke="#fff" stroke-width="2" stroke-linecap="round" stroke-linejoin="round" overflow="visible" enable-background="accumulate" fill="none"/>
        <path d="m 365.5,1364.3622 c -0.82843,0 -1.5,0.6716 -1.5,1.5 0,0.8284 0.67157,1.5 1.5,1.5 0.82843,0 1.5,-0.6716 1.5,-1.5 0,-0.8284 -0.67157,-1.5 -1.5,-1.5 z m -0.5,3.5 0,3.5 3.25,0 1.75,2 1,0 0,-0.5 -2,-2.5 -1.65625,0 -0.84375,-2.5 -1.5,0 z m -1,0.5 c -1.16559,0.4117 -2,1.6935 -2,3 0,1.6569 1.34315,3 3,3 1.36817,0 2.51442,-0.7711 2.875,-2 l -1.03125,0 c -0.32327,0.6419 -0.90219,1 -1.71875,1 -1.17361,0 -2.125,-0.9514 -2.125,-2.125 0,-0.7588 0.40167,-1.499 1,-1.875 l 0,-1 z" fill="#444" overflow="visible" enable-background="accumulate"/>
        <rect y="1363.362" x="360" height="12" width="12" overflow="visible" enable-background="accumulate" fill="none"/>
    </g>
</svg>
