<svg xmlns="http://www.w3.org/2000/svg" width="18" height="18">
    <g transform="matrix(.75 0 0 .75 -240 -985.773)" color="#000">
        <path d="m 327.99998,1316.3622 -4.66666,4.6667 4.66666,0 z m 7.33332,0.6667 -11.33331,11.3333 0,3.3333 1.75,1.75 3.99999,-4 -1.08333,-1.0833 6.66665,-6.6667 1.08334,1.0834 3.99999,-4 -1.75,-1.75 z m 5.58333,2.25 -3.99999,4 0.41666,0.4166 1.33333,0 2.66666,-2.6666 0,-1.3334 z m -10.66665,10.6666 -3.99999,4 0.41666,0.4167 1.33333,0 2.66667,-2.6667 0,-1.3333 z" opacity=".3" stroke="#fff" stroke-width="2.667" stroke-linecap="round" stroke-linejoin="round" overflow="visible" enable-background="accumulate" fill="none"/>
        <path d="m 327.99998,1316.3622 -4.66665,4.6667 4.66665,0 z m 7.33333,0.6667 -11.33332,11.3333 0,3.3333 1.75,1.75 3.99999,-4 -1.08333,-1.0833 6.66666,-6.6667 1.08333,1.0834 3.99999,-4 -1.75,-1.75 z m 5.58332,2.25 -3.99999,4 0.41666,0.4166 1.33333,0 2.66667,-2.6666 0,-1.3334 z m -10.66665,10.6666 -3.99999,4 0.41666,0.4167 1.33333,0 2.66667,-2.6667 0,-1.3333 z" fill="#444" overflow="visible" enable-background="accumulate"/>
        <rect y="1314.362" x="320" height="24" width="24" overflow="visible" enable-background="accumulate" fill="none"/>
    </g>
</svg>
