<svg xmlns="http://www.w3.org/2000/svg" width="18" height="18">
    <g transform="translate(0 -1034.362) translate(-654 -304)" color="#000">
        <path d="m 667,1344.3622 0,8 4,0 0,-8 -1,-2 -2,0 z m -9.5,0 -2.5,3 1,0 0,5 9,0 0,-5 1,0 -2,-3 z" opacity=".3" fill="#fff" stroke="#fff" stroke-width="2" stroke-linecap="round" stroke-linejoin="round" overflow="visible" enable-background="accumulate"/>
        <rect width="18" height="18" x="654" y="1338.362" opacity=".5" overflow="visible" enable-background="accumulate" fill="none"/>
        <path d="m 667,1344.3622 0,8 4,0 0,-8 -1,-2 -2,0 z m -9.5,0 -2.5,3 1,0 0,5 6,0 0,-2 1,0 0,2 2,0 0,-5 1,0 -2,-3 z m 5,2 1.5,1 0,1 -3,0 0,-1 z" fill="#444" overflow="visible" enable-background="accumulate"/>
    </g>
</svg>
