<svg xmlns="http://www.w3.org/2000/svg" width="24" height="24">
    <g transform="translate(0 -1028.362) translate(-630 -310)" color="#000">
        <rect y="1338.362" x="630" height="24" width="24" opacity=".5" overflow="visible" enable-background="accumulate" fill="none"/>
        <g>
            <path transform="translate(-120 1050.362)" d="m 767,295 0,10 5,0 0,-10 c 0,-1.5 -0.5,-3 -2.5,-3 -2,0 -2.5,1.5 -2.5,3 z m -11,0 c -0.5,0 -1,0.5 -1.5,1 l -2.5,3 1,0 0,6 12,0 0,-6 1,0 -2.5,-3 c -0.5,-0.5 -1,-1 -1.5,-1 z" opacity=".3" fill="#fff" stroke="#fff" stroke-width="2" stroke-linecap="round" stroke-linejoin="round" overflow="visible" enable-background="accumulate"/>
            <path d="m 767,295 0,10 5,0 0,-10 c 0,-1.5 -0.5,-3 -2.5,-3 -2,0 -2.5,1.5 -2.5,3 z m -11,0 c -0.5,0 -1,0.5 -1.5,1 l -2.5,3 1,0 0,6 7,0 0,-3 2,0 0,3 3,0 0,-6 1,0 -2.5,-3 c -0.5,-0.5 -1,-1 -1.5,-1 z m 5,2 c 0,0 2,1.2546 2,2 l 0,1 -4,0 0,-1 c 0,-0.7454 2,-2 2,-2 z" transform="translate(-120 1050.362)" fill="#444" overflow="visible" enable-background="accumulate"/>
        </g>
    </g>
</svg>
