<svg xmlns="http://www.w3.org/2000/svg" width="18" height="18">
    <g transform="translate(0 -1034.362) translate(-342 -88)" color="#000">
        <g>
            <path d="m 350.5,1127.3622 c -2.05263,0 -3.5,0.7895 -3.5,2.5 l 0,1.5 11,0 0,-1.5 c 0,-1.7105 -1.44737,-2.5 -3.5,-2.5 l -4,0 z m 0,1.125 c 0.20711,0 0.375,0.1679 0.375,0.375 0,0.2071 -0.16789,0.375 -0.375,0.375 -0.20711,0 -0.375,-0.1679 -0.375,-0.375 0,-0.2071 0.16789,-0.375 0.375,-0.375 z m 4,0 c 0.20711,0 0.375,0.1679 0.375,0.375 0,0.2071 -0.16789,0.375 -0.375,0.375 -0.20711,0 -0.375,-0.1679 -0.375,-0.375 0,-0.2071 0.16789,-0.375 0.375,-0.375 z m -6,1 c 0.20711,0 0.375,0.1679 0.375,0.375 0,0.2071 -0.16789,0.375 -0.375,0.375 -0.20711,0 -0.375,-0.1679 -0.375,-0.375 0,-0.2071 0.16789,-0.375 0.375,-0.375 z m 4,0 c 0.20711,0 0.375,0.1679 0.375,0.375 0,0.2071 -0.16789,0.375 -0.375,0.375 -0.20711,0 -0.375,-0.1679 -0.375,-0.375 0,-0.2071 0.16789,-0.375 0.375,-0.375 z m 4,0 c 0.20711,0 0.375,0.1679 0.375,0.375 0,0.2071 -0.16789,0.375 -0.375,0.375 -0.20711,0 -0.375,-0.1679 -0.375,-0.375 0,-0.2071 0.16789,-0.375 0.375,-0.375 z m -9.5,2.875 c -0.34213,0 -0.50001,0.1579 -0.5,0.5 10e-6,0.3422 0.15787,0.5 0.5,0.5 l 11,0 c 0.34211,0 0.49999,-0.1578 0.5,-0.5 10e-6,-0.3421 -0.15789,-0.5 -0.5,-0.5 l -11,0 z m 0,2 0,0.625 c 0,0.6842 0.69079,1.375 1.375,1.375 l 8.25,0 c 0.68421,0 1.375,-0.6908 1.375,-1.375 l 0,-0.625 -11,0 z" opacity=".3" stroke="#fff" stroke-width="2" stroke-linecap="round" stroke-linejoin="round" overflow="visible" enable-background="accumulate" fill="none" transform="translate(-1 -1)"/>
            <path d="m 350.5,1127.3622 c -2.05263,0 -3.5,0.7895 -3.5,2.5 l 0,1.5 11,0 0,-1.5 c 0,-1.7105 -1.44737,-2.5 -3.5,-2.5 l -4,0 z m 0,1.125 c 0.20711,0 0.375,0.1679 0.375,0.375 0,0.2071 -0.16789,0.375 -0.375,0.375 -0.20711,0 -0.375,-0.1679 -0.375,-0.375 0,-0.2071 0.16789,-0.375 0.375,-0.375 z m 4,0 c 0.20711,0 0.375,0.1679 0.375,0.375 0,0.2071 -0.16789,0.375 -0.375,0.375 -0.20711,0 -0.375,-0.1679 -0.375,-0.375 0,-0.2071 0.16789,-0.375 0.375,-0.375 z m -6,1 c 0.20711,0 0.375,0.1679 0.375,0.375 0,0.2071 -0.16789,0.375 -0.375,0.375 -0.20711,0 -0.375,-0.1679 -0.375,-0.375 0,-0.2071 0.16789,-0.375 0.375,-0.375 z m 4,0 c 0.20711,0 0.375,0.1679 0.375,0.375 0,0.2071 -0.16789,0.375 -0.375,0.375 -0.20711,0 -0.375,-0.1679 -0.375,-0.375 0,-0.2071 0.16789,-0.375 0.375,-0.375 z m 4,0 c 0.20711,0 0.375,0.1679 0.375,0.375 0,0.2071 -0.16789,0.375 -0.375,0.375 -0.20711,0 -0.375,-0.1679 -0.375,-0.375 0,-0.2071 0.16789,-0.375 0.375,-0.375 z m -9.5,2.875 c -0.34213,0 -0.50001,0.1579 -0.5,0.5 10e-6,0.3422 0.15787,0.5 0.5,0.5 l 11,0 c 0.34211,0 0.49999,-0.1578 0.5,-0.5 10e-6,-0.3421 -0.15789,-0.5 -0.5,-0.5 l -11,0 z m 0,2 0,0.625 c 0,0.6842 0.69079,1.375 1.375,1.375 l 8.25,0 c 0.68421,0 1.375,-0.6908 1.375,-1.375 l 0,-0.625 -11,0 z" fill="#444" overflow="visible" enable-background="accumulate" transform="translate(-1 -1)"/>
        </g>
        <rect width="18" height="18" x="342" y="1122.362" opacity=".5" overflow="visible" enable-background="accumulate" fill="none"/>
    </g>
</svg>
