<svg xmlns="http://www.w3.org/2000/svg" width="12" height="12">
    <g transform="translate(0 -1040.362) translate(-360 -82)" color="#000">
        <g>
            <path d="m 365.5,1125.3622 c -1.42105,0 -3.1488,0.8723 -3.05264,2.0526 l 0,1.1974 8.05264,0 0,-1.1974 c 0,-1.1842 -1.57895,-2.0526 -3,-2.0526 z m -3.5,4 0,1 9,0 0,-1 z m 0.49996,1.75 c 0,0.4737 0.52632,1.25 1,1.25 l 6,0 c 0.47368,0 1,-0.7763 1,-1.25 z" opacity=".3" stroke="#fff" stroke-width="2" stroke-linecap="round" stroke-linejoin="round" overflow="visible" enable-background="accumulate" fill="none"/>
            <path d="m 365.5,1125.3622 c -1.42105,0 -3.1488,0.8723 -3.05264,2.0526 l 0,1.1974 8.05264,0 0,-1.1974 c 0,-1.1842 -1.57895,-2.0526 -3,-2.0526 z m -3.5,4 0,1 9,0 0,-1 z m 0.49996,1.75 c 0,0.4737 0.52632,1.25 1,1.25 l 6,0 c 0.47368,0 1,-0.7763 1,-1.25 z" fill="#444" overflow="visible" enable-background="accumulate"/>
        </g>
        <rect y="1122.362" x="360" height="12" width="12" opacity=".5" overflow="visible" enable-background="accumulate" fill="none"/>
    </g>
</svg>
