<svg xmlns="http://www.w3.org/2000/svg" width="12" height="12">
    <g transform="translate(0 -1040.362) translate(-126 -298)" color="#000">
        <g>
            <path d="m 130.5,1339.3622 c -0.277,0 -0.5,0.223 -0.5,0.5 l 0,3.5 -1,0.5 1,2 0,1 2,0.5 1.5,-0.5 1.5,0.5 2,-0.5 0,-1 1,-2 -1,-0.4687 0,-3.5313 c 0,-0.277 -0.223,-0.5 -0.5,-0.5 l -1,0 -4,0 z m 0.5,1 5,0 0,2.5625 -2.5,-1.5625 -2.5,1.5 z m -0.5,7.4995 -1.5,0.4688 0,1.0312 0.15625,-0.062 1.34375,-0.4375 1.5,0.5 1.5,-0.5 1.5,0.5 1.5,-0.5 1.5,0.5 0,-1.0312 -1.5,-0.4688 -1.5,0.4688 -1.5,-0.4688 -1.5,0.4688 z" opacity=".3" fill="#fff" stroke="#fff" stroke-width="2" stroke-linejoin="round" overflow="visible" enable-background="accumulate" transform="translate(-1)"/>
            <path d="m 130.5,1339.3622 c -0.277,0 -0.5,0.223 -0.5,0.5 l 0,3.5 -1,0.5 1,2 0,1 2,0.5 1.5,-0.5 1.5,0.5 2,-0.5 0,-1 1,-2 -1,-0.4687 0,-3.5313 c 0,-0.277 -0.223,-0.5 -0.5,-0.5 l -1,0 -4,0 z m 0.5,1 5,0 0,2.5625 -2.5,-1.5625 -2.5,1.5 z m -0.5,7.4995 -1.5,0.4688 0,1.0312 0.15625,-0.062 1.34375,-0.4375 1.5,0.5 1.5,-0.5 1.5,0.5 1.5,-0.5 1.5,0.5 0,-1.0312 -1.5,-0.4688 -1.5,0.4688 -1.5,-0.4688 -1.5,0.4688 z" fill="#444" overflow="visible" enable-background="accumulate" transform="translate(-1)"/>
        </g>
        <rect width="12" height="12" x="126" y="1338.362" opacity=".3" overflow="visible" enable-background="accumulate" fill="none"/>
    </g>
</svg>
