<svg xmlns="http://www.w3.org/2000/svg" width="24" height="24">
    <g transform="translate(0 -1028.362) translate(-396 -46)" color="#000">
        <g>
            <path d="m 152.5,74 -3.5,5 -2,-3 c -0.66279,1.165233 -3,4 -3,7 0,4.418278 4.08172,8 8.5,8 4.41828,0 8.5,-3.581722 8.5,-8 0,-3 -2.33721,-5.834767 -3,-7 l -2,3 z" transform="translate(396 70) translate(-140 933.362)" opacity=".3" fill="#fff" stroke="#fff" stroke-width="2" stroke-linecap="round" stroke-linejoin="round" overflow="visible" enable-background="accumulate"/>
            <path transform="translate(396 70) translate(-140 933.362)" d="m 152.5,74 -3.5,5 -2,-3 c -0.66279,1.165233 -3,4 -3,7 0,4.418278 4.08172,8 8.5,8 4.41828,0 8.5,-3.581722 8.5,-8 0,-3 -2.33721,-5.834767 -3,-7 l -2,3 z m 0,8 c 0,0 3.5,2.684593 3.5,5 0,1 -1.5,2 -3.5,2 -2,0 -3.5,-1 -3.5,-2 0,-2.236068 3.5,-5 3.5,-5 z" fill="#444" overflow="visible" enable-background="accumulate"/>
        </g>
        <rect width="24" height="24" x="396" y="1074.362" opacity=".5" overflow="visible" enable-background="accumulate" fill="none"/>
    </g>
</svg>
