<svg xmlns="http://www.w3.org/2000/svg" width="18" height="18">
    <g transform="translate(0 -1034.362) translate(-664 -184)" color="#000">
        <path d="m 670,1220.3623 c -0.5,0 -1,0.5 -1,1 l 0,11 c 0,0.5 0.5,1 1,1 l 6,0 c 0.5,0 1,-0.5 1,-1 l 0,-3 c 0.16385,0 0.25,0 0.25,0 0.13687,0 0.25,0.096 0.25,0.25 0,0.19 0,0.5724 0,0.75 0,0.5 0.5,1 1,1 0.12942,0 0.34431,0 0.5,0 0.5,0 1,-0.4072 1,-1 0,-0.8426 0,-2.7778 0,-3.5 0,-1 -1,-1 -1,-1.9998 l 0,-1.5 -1,0 -1,-1.0002 0,-0.9998 c 0,-0.5 -0.5,-1 -1,-1 z m 0,1.5 6,0 0,2.5 -6,0 z m 7,3.5 1,0 c 0,1 1,1 1,2 l 0,2.75 c 0,0.25 -0.24998,0.25 -0.24998,0.25 0,0 -0.25002,0 -0.25,-0.25 0,0 0,-0.4201 0,-0.75 0,-0.5906 -0.49938,-1.0014 -1,-1 l -0.50009,-2e-4 z" opacity=".3" fill="#fff" stroke="#fff" stroke-width="2" stroke-linejoin="round" overflow="visible" enable-background="accumulate"/>
        <path d="m 670,1220.3623 c -0.5,0 -1,0.5 -1,1 l 0,11 c 0,0.5 0.5,1 1,1 l 6,0 c 0.5,0 1,-0.5 1,-1 l 0,-3 c 0.16385,0 0.25,0 0.25,0 0.13687,0 0.25,0.096 0.25,0.25 0,0.19 0,0.5724 0,0.75 0,0.5 0.5,1 1,1 0.12942,0 0.34431,0 0.5,0 0.5,0 1,-0.4072 1,-1 0,-0.8426 0,-2.7778 0,-3.5 0,-1 -1,-1 -1,-1.9998 l 0,-1.5 -1,0 -1,-1.0002 0,-0.9998 c 0,-0.5 -0.5,-1 -1,-1 z m 0,1.5 6,0 0,2.5 -6,0 z m 7,3.5 1,0 c 0,1 1,1 1,2 l 0,2.75 c 0,0.25 -0.24998,0.25 -0.24998,0.25 0,0 -0.25002,0 -0.25,-0.25 0,0 0,-0.4201 0,-0.75 0,-0.5906 -0.49938,-1.0014 -1,-1 l -0.50009,-2e-4 z" fill="#444" overflow="visible" enable-background="accumulate"/>
        <rect width="18" height="18" x="664" y="1218.362" opacity=".5" overflow="visible" enable-background="accumulate" fill="none"/>
    </g>
</svg>
