<svg xmlns="http://www.w3.org/2000/svg" width="12" height="12">
    <g transform="translate(0 -1040.362) translate(-126 -130)" color="#000">
        <g>
            <path d="m 130.5,1171.3622 c -0.27701,0 -0.5,0.223 -0.5,0.5 l 0,8 c 0,0.25 0.25,0.5 0.5,0.5 l 4,0 c 0.25,0 0.5,-0.25 0.5,-0.5 l 0,-0.5 1.25,0 c 0.5,0 0.75,-0.25 0.75,-0.75 l 0,-2.75 c 0,-0.5 -1,-1 -1,-1.5 l 0,-0.25 0,-0.75 -1,-1 0,-0.5 c 0,-0.277 -0.223,-0.5 -0.5,-0.5 l -4,0 z m 0.5,1 3,0 0,2 -3,0 0,-2 z m 4,1.5 0.5,0 0,0.75 c 0,0.5 1,1 1,1.5 l 0,2.25 0,0.25 c 0,0.25 -0.25,0.25 -0.25,0.25 l -0.75,0 0,-1.5 -0.5,0 0,-3.5 z" opacity=".3" fill="#fff" stroke="#fff" stroke-width="2" stroke-linejoin="round" overflow="visible" enable-background="accumulate"/>
            <path d="m 130.5,1171.3622 c -0.27701,0 -0.5,0.223 -0.5,0.5 l 0,8 c 0,0.25 0.25,0.5 0.5,0.5 l 4,0 c 0.25,0 0.5,-0.25 0.5,-0.5 l 0,-0.5 1.25,0 c 0.5,0 0.75,-0.25 0.75,-0.75 l 0,-2.75 c 0,-0.5 -1,-1 -1,-1.5 l 0,-0.25 0,-0.75 -1,-1 0,-0.5 c 0,-0.277 -0.223,-0.5 -0.5,-0.5 l -4,0 z m 0.5,1 3,0 0,2 -3,0 0,-2 z m 4,1.5 0.5,0 0,0.75 c 0,0.5 1,1 1,1.5 l 0,2.25 0,0.25 c 0,0.25 -0.25,0.25 -0.25,0.25 l -0.75,0 0,-1.5 -0.5,0 0,-3.5 z" fill="#444" overflow="visible" enable-background="accumulate"/>
        </g>
        <rect width="12" height="12" x="126" y="1170.362" opacity=".5" overflow="visible" enable-background="accumulate" fill="none"/>
    </g>
</svg>
