<?xml version="1.0" encoding="UTF-8" standalone="no"?>
<!-- Created with Inkscape (http://www.inkscape.org/) -->

<svg
   xmlns:dc="http://purl.org/dc/elements/1.1/"
   xmlns:cc="http://creativecommons.org/ns#"
   xmlns:rdf="http://www.w3.org/1999/02/22-rdf-syntax-ns#"
   xmlns:svg="http://www.w3.org/2000/svg"
   xmlns="http://www.w3.org/2000/svg"
   xmlns:sodipodi="http://sodipodi.sourceforge.net/DTD/sodipodi-0.dtd"
   xmlns:inkscape="http://www.inkscape.org/namespaces/inkscape"
   width="24"
   height="24"
   id="svg4460"
   version="1.1"
   inkscape:version="0.48.2 r9819"
   sodipodi:docname="zoo-24.svg">
  <defs
     id="defs4462" />
  <sodipodi:namedview
     id="base"
     pagecolor="#ffffff"
     bordercolor="#666666"
     borderopacity="1.0"
     inkscape:pageopacity="0.0"
     inkscape:pageshadow="2"
     inkscape:zoom="11.313708"
     inkscape:cx="15.622727"
     inkscape:cy="6.9146856"
     inkscape:document-units="px"
     inkscape:current-layer="layer1"
     showgrid="true"
     showguides="true"
     inkscape:guide-bbox="true"
     inkscape:window-width="1220"
     inkscape:window-height="833"
     inkscape:window-x="56"
     inkscape:window-y="20"
     inkscape:window-maximized="0">
    <inkscape:grid
       type="xygrid"
       id="grid4468"
       empspacing="5"
       visible="true"
       enabled="true"
       snapvisiblegridlinesonly="true" />
    <sodipodi:guide
       orientation="1,0"
       position="0,20"
       id="guide4470" />
    <sodipodi:guide
       orientation="0,1"
       position="4,24"
       id="guide4472" />
    <sodipodi:guide
       orientation="1,0"
       position="24,13"
       id="guide4474" />
    <sodipodi:guide
       orientation="0,1"
       position="15,0"
       id="guide4476" />
    <sodipodi:guide
       orientation="1,0"
       position="23,20"
       id="guide4478" />
    <sodipodi:guide
       orientation="0,1"
       position="20,23"
       id="guide4480" />
    <sodipodi:guide
       orientation="1,0"
       position="2,5"
       id="guide4482" />
    <sodipodi:guide
       orientation="0,1"
       position="7,2"
       id="guide4484" />
    <sodipodi:guide
       orientation="1,0"
       position="13,16"
       id="guide4486" />
    <sodipodi:guide
       orientation="0,1"
       position="16,13"
       id="guide4490" />
  </sodipodi:namedview>
  <metadata
     id="metadata4465">
    <rdf:RDF>
      <cc:Work
         rdf:about="">
        <dc:format>image/svg+xml</dc:format>
        <dc:type
           rdf:resource="http://purl.org/dc/dcmitype/StillImage" />
        <dc:title></dc:title>
      </cc:Work>
    </rdf:RDF>
  </metadata>
  <g
     inkscape:label="Layer 1"
     inkscape:groupmode="layer"
     id="layer1"
     transform="translate(0,-1028.3622)">
    <g
       transform="translate(-162,-166)"
       style="display:inline"
       id="garden-24"
       inkscape:label="garden-24"
       inkscape:export-xdpi="89.996864"
       inkscape:export-ydpi="89.996864">
      <path
         style="opacity:0.3;color:#000000;fill:#444444;fill-opacity:1;fill-rule:nonzero;stroke:#ffffff;stroke-width:2;stroke-linecap:round;stroke-linejoin:round;stroke-miterlimit:4;stroke-opacity:1;stroke-dasharray:none;stroke-dashoffset:0;marker:none;visibility:visible;display:inline;overflow:visible;enable-background:accumulate"
         d="m 170.3,1198.3622 c -0.253,0 -0.3,0.5596 -0.3,1 l 0,2 c 0,2.0312 2,3.0625 4,3 l 0,8 c -1,-2 -4,-5 -7,-4 0,0 2.5,6 7.5,6 5,0 7.5,-6 7.5,-6 -3,-1 -6,2 -7,4 l 0,-8 c 2,0.062 4,-0.9688 4,-3 l 0,-2 c 0,-0.4404 -0.0468,-1 -0.3,-1 -0.19292,0 -0.42562,0.2256 -0.7,0.5 l -1.5,1.5 -1.5,-1.6875 c -0.15657,-0.1761 -0.24696,-0.3125 -0.5,-0.3125 -0.25305,0 -0.34343,0.1364 -0.5,0.3125 l -1.5,1.6875 -1.5,-1.5 c -0.27438,-0.2744 -0.50708,-0.5 -0.7,-0.5 z"
         id="path15093"
         inkscape:connector-curvature="0"
         sodipodi:nodetypes="ssscccscccsssscccccss" />
      <path
         sodipodi:nodetypes="ssscccscccsssscccccss"
         inkscape:connector-curvature="0"
         id="path6080-4"
         d="m 170.3,1198.3622 c -0.253,0 -0.3,0.5596 -0.3,1 l 0,2 c 0,2.0312 2,3.0625 4,3 l 0,8 c -1,-2 -4,-5 -7,-4 0,0 2.5,6 7.5,6 5,0 7.5,-6 7.5,-6 -3,-1 -6,2 -7,4 l 0,-8 c 2,0.062 4,-0.9688 4,-3 l 0,-2 c 0,-0.4404 -0.0468,-1 -0.3,-1 -0.19292,0 -0.42562,0.2256 -0.7,0.5 l -1.5,1.5 -1.5,-1.6875 c -0.15657,-0.1761 -0.24696,-0.3125 -0.5,-0.3125 -0.25305,0 -0.34343,0.1364 -0.5,0.3125 l -1.5,1.6875 -1.5,-1.5 c -0.27438,-0.2744 -0.50708,-0.5 -0.7,-0.5 z"
         style="color:#000000;fill:#444444;fill-opacity:1;fill-rule:nonzero;stroke:none;stroke-width:2;marker:none;visibility:visible;display:inline;overflow:visible;enable-background:accumulate" />
      <rect
         style="opacity:0.5;color:#000000;fill:none;stroke:none;stroke-width:2;marker:none;visibility:visible;display:inline;overflow:visible;enable-background:accumulate"
         id="rect22282"
         width="24"
         height="24.000017"
         x="162"
         y="1194.3622" />
    </g>
  </g>
</svg>
