<svg xmlns="http://www.w3.org/2000/svg" width="18" height="18">
    <g transform="translate(0 -1034.362) translate(-498 -160)" color="#000">
        <g>
            <path d="m 505.38235,1196.3622 c -0.26113,0 -0.38235,0 -0.38235,0.3823 l 0,10.2758 c -1.52942,0.047 -2,1.0772 -2,1.8419 0,0.3823 0.5,0.5 0.5,0.5 l 8,0 c 0,0 0.5,-0.1177 0.5,-0.5 0,-1.9118 -0.85294,-3.5 -2,-3.5 -1.20237,0 -1.51531,2.3025 -2.70589,2.4706 -0.52207,0.074 -1.02653,-0.2641 -1.52941,-0.5257 l 0,-6.3567 5.35295,-2.2941 -4.96935,-2.1297 c -0.28787,-0.1234 -0.57468,-0.1644 -0.76595,-0.1644 z" opacity=".3" stroke="#fff" stroke-width="2" stroke-linecap="round" stroke-linejoin="round" overflow="visible" enable-background="accumulate" fill="none"/>
            <path d="m 505.38235,1196.3622 c -0.26113,0 -0.38235,0 -0.38235,0.3823 l 0,10.2758 c -1.52942,0.047 -2,1.0772 -2,1.8419 0,0.3823 0.5,0.5 0.5,0.5 l 8,0 c 0,0 0.5,-0.1177 0.5,-0.5 0,-1.9118 -0.85294,-3.5 -2,-3.5 -1.20237,0 -1.51531,2.3025 -2.70589,2.4706 -0.52207,0.074 -1.02653,-0.2641 -1.52941,-0.5257 l 0,-6.3567 5.35295,-2.2941 -4.96935,-2.1297 c -0.28787,-0.1234 -0.57468,-0.1644 -0.76595,-0.1644 z" fill="#444" overflow="visible" enable-background="accumulate"/>
        </g>
        <rect width="18" height="18" x="498" y="1194.362" opacity=".5" overflow="visible" enable-background="accumulate" fill="none"/>
    </g>
</svg>
