<?xml version="1.0" encoding="UTF-8" standalone="no"?>
<!-- Created with Inkscape (http://www.inkscape.org/) -->

<svg
   xmlns:dc="http://purl.org/dc/elements/1.1/"
   xmlns:cc="http://creativecommons.org/ns#"
   xmlns:rdf="http://www.w3.org/1999/02/22-rdf-syntax-ns#"
   xmlns:svg="http://www.w3.org/2000/svg"
   xmlns="http://www.w3.org/2000/svg"
   xmlns:sodipodi="http://sodipodi.sourceforge.net/DTD/sodipodi-0.dtd"
   xmlns:inkscape="http://www.inkscape.org/namespaces/inkscape"
   width="18"
   height="18"
   id="svg4619"
   version="1.1"
   inkscape:version="0.48.2 r9819"
   sodipodi:docname="baseball-18.svg">
  <defs
     id="defs4621" />
  <sodipodi:namedview
     id="base"
     pagecolor="#ffffff"
     bordercolor="#666666"
     borderopacity="1.0"
     inkscape:pageopacity="0.0"
     inkscape:pageshadow="2"
     inkscape:zoom="5.6568542"
     inkscape:cx="10.390555"
     inkscape:cy="12.616639"
     inkscape:document-units="px"
     inkscape:current-layer="layer1"
     showgrid="true"
     showguides="true"
     inkscape:guide-bbox="true"
     inkscape:window-width="1008"
     inkscape:window-height="662"
     inkscape:window-x="76"
     inkscape:window-y="40"
     inkscape:window-maximized="0"
     inkscape:snap-bbox="true"
     inkscape:object-paths="true"
     inkscape:snap-nodes="false">
    <inkscape:grid
       type="xygrid"
       id="grid4627"
       empspacing="5"
       visible="true"
       enabled="true"
       snapvisiblegridlinesonly="true" />
    <sodipodi:guide
       orientation="0,1"
       position="7,18"
       id="guide4659" />
    <sodipodi:guide
       orientation="1,0"
       position="18,9"
       id="guide4661" />
    <sodipodi:guide
       orientation="0,1"
       position="16,17"
       id="guide4663" />
    <sodipodi:guide
       orientation="1,0"
       position="17,14"
       id="guide4665" />
    <sodipodi:guide
       orientation="1,0"
       position="0,16"
       id="guide4667" />
    <sodipodi:guide
       orientation="0,1"
       position="8,0"
       id="guide4669" />
    <sodipodi:guide
       orientation="1,0"
       position="2,10"
       id="guide4671" />
    <sodipodi:guide
       orientation="0,1"
       position="12,2"
       id="guide4673" />
  </sodipodi:namedview>
  <metadata
     id="metadata4624">
    <rdf:RDF>
      <cc:Work
         rdf:about="">
        <dc:format>image/svg+xml</dc:format>
        <dc:type
           rdf:resource="http://purl.org/dc/dcmitype/StillImage" />
        <dc:title></dc:title>
      </cc:Work>
    </rdf:RDF>
  </metadata>
  <g
     inkscape:label="Layer 1"
     inkscape:groupmode="layer"
     id="layer1"
     transform="translate(0,-1034.3622)">
    <g
       style="display:inline"
       id="golf-18"
       inkscape:label="golf-18"
       transform="translate(-498,-160)"
       inkscape:export-xdpi="89.996864"
       inkscape:export-ydpi="89.996864">
      <g
         id="g21406">
        <path
           style="opacity:0.3;color:#000000;fill:none;stroke:#ffffff;stroke-width:2;stroke-linecap:round;stroke-linejoin:round;stroke-miterlimit:4;stroke-opacity:1;stroke-dasharray:none;stroke-dashoffset:0;marker:none;visibility:visible;display:inline;overflow:visible;enable-background:accumulate"
           d="m 505.38235,1196.3622 c -0.26113,0 -0.38235,0 -0.38235,0.3823 l 0,10.2758 c -1.52942,0.047 -2,1.0772 -2,1.8419 0,0.3823 0.5,0.5 0.5,0.5 l 8,0 c 0,0 0.5,-0.1177 0.5,-0.5 0,-1.9118 -0.85294,-3.5 -2,-3.5 -1.20237,0 -1.51531,2.3025 -2.70589,2.4706 -0.52207,0.074 -1.02653,-0.2641 -1.52941,-0.5257 l 0,-6.3567 5.35295,-2.2941 -4.96935,-2.1297 c -0.28787,-0.1234 -0.57468,-0.1644 -0.76595,-0.1644 z"
           id="path16336"
           inkscape:connector-curvature="0"
           sodipodi:nodetypes="sscsccssscccss" />
        <path
           sodipodi:nodetypes="sscsccssscccss"
           inkscape:connector-curvature="0"
           id="rect8138-7-4"
           d="m 505.38235,1196.3622 c -0.26113,0 -0.38235,0 -0.38235,0.3823 l 0,10.2758 c -1.52942,0.047 -2,1.0772 -2,1.8419 0,0.3823 0.5,0.5 0.5,0.5 l 8,0 c 0,0 0.5,-0.1177 0.5,-0.5 0,-1.9118 -0.85294,-3.5 -2,-3.5 -1.20237,0 -1.51531,2.3025 -2.70589,2.4706 -0.52207,0.074 -1.02653,-0.2641 -1.52941,-0.5257 l 0,-6.3567 5.35295,-2.2941 -4.96935,-2.1297 c -0.28787,-0.1234 -0.57468,-0.1644 -0.76595,-0.1644 z"
           style="color:#000000;fill:#444444;fill-opacity:1;fill-rule:nonzero;stroke:none;stroke-width:2;marker:none;visibility:visible;display:inline;overflow:visible;enable-background:accumulate" />
      </g>
      <rect
         style="opacity:0.5;color:#000000;fill:none;stroke:none;stroke-width:2;marker:none;visibility:visible;display:inline;overflow:visible;enable-background:accumulate"
         id="rect22593"
         width="18.000017"
         height="18.000031"
         x="497.99997"
         y="1194.3622" />
    </g>
  </g>
</svg>
