<svg xmlns="http://www.w3.org/2000/svg" width="24" height="24">
    <g transform="translate(0 -1028.362) translate(-318 -166)" color="#000">
        <g>
            <path d="m 21,-19.000017 c -0.583333,0 -1.100899,0.163399 -1.46875,0.53125 C 19.163399,-18.100916 19,-17.58335 19,-17.000017 l -14,0 2,9 12,0 0,1 -11,0 c -1,0 -1,1 0,1 l 1.5,0 8,0 1.5,0 c 0.5,0 1,-0.5 1,-1 l 0,-1 0,-8 0,-1 c 0,0 0.0866,-0.649101 0.21875,-0.78125 0.132149,-0.132149 0.364583,-0.21875 0.78125,-0.21875 0.111026,0 0.292249,0 0.4,0 0.5,0 0.6,-0.248673 0.6,-0.5 0,-0.247421 -0.1,-0.5 -0.6,-0.5 -0.130972,0 -0.262788,0 -0.4,0 z m -3.5,13 c -0.828427,0 -1.5,0.671573 -1.5,1.5 0,0.828427 0.671573,1.5 1.5,1.5 0.828427,0 1.5,-0.671573 1.5,-1.5 0,-0.828427 -0.671573,-1.5 -1.5,-1.5 z m -8,0 c -0.8284271,0 -1.5,0.671573 -1.5,1.5 0,0.828427 0.6715729,1.5 1.5,1.5 0.828427,0 1.5,-0.671573 1.5,-1.5 0,-0.828427 -0.671573,-1.5 -1.5,-1.5 z" opacity=".3" fill="#fff" stroke="#fff" stroke-width="2" stroke-linecap="round" stroke-linejoin="round" overflow="visible" enable-background="accumulate" transform="translate(317 1217.362)"/>
            <path d="m 21,-19.000017 c -0.583333,0 -1.100899,0.163399 -1.46875,0.53125 C 19.163399,-18.100916 19,-17.58335 19,-17.000017 l -14,0 2,9 12,0 0,1 -11,0 c -1,0 -1,1 0,1 l 1.5,0 8,0 1.5,0 c 0.5,0 1,-0.5 1,-1 l 0,-1 0,-8 0,-1 c 0,0 0.0866,-0.649101 0.21875,-0.78125 0.132149,-0.132149 0.364583,-0.21875 0.78125,-0.21875 0.111026,0 0.292249,0 0.4,0 0.5,0 0.6,-0.248673 0.6,-0.5 0,-0.247421 -0.1,-0.5 -0.6,-0.5 -0.130972,0 -0.262788,0 -0.4,0 z m -3.5,13 c -0.828427,0 -1.5,0.671573 -1.5,1.5 0,0.828427 0.671573,1.5 1.5,1.5 0.828427,0 1.5,-0.671573 1.5,-1.5 0,-0.828427 -0.671573,-1.5 -1.5,-1.5 z m -8,0 c -0.8284271,0 -1.5,0.671573 -1.5,1.5 0,0.828427 0.6715729,1.5 1.5,1.5 0.828427,0 1.5,-0.671573 1.5,-1.5 0,-0.828427 -0.671573,-1.5 -1.5,-1.5 z" fill="#444" overflow="visible" enable-background="accumulate" transform="translate(317 1217.362)"/>
        </g>
        <rect y="1194.362" x="318" height="24" width="24" opacity=".5" overflow="visible" enable-background="accumulate" fill="none"/>
    </g>
</svg>
