<?xml version="1.0" encoding="UTF-8" standalone="no"?>
<!-- Created with Inkscape (http://www.inkscape.org/) -->

<svg
   xmlns:dc="http://purl.org/dc/elements/1.1/"
   xmlns:cc="http://creativecommons.org/ns#"
   xmlns:rdf="http://www.w3.org/1999/02/22-rdf-syntax-ns#"
   xmlns:svg="http://www.w3.org/2000/svg"
   xmlns="http://www.w3.org/2000/svg"
   xmlns:sodipodi="http://sodipodi.sourceforge.net/DTD/sodipodi-0.dtd"
   xmlns:inkscape="http://www.inkscape.org/namespaces/inkscape"
   width="24"
   height="24"
   id="svg4460"
   version="1.1"
   inkscape:version="0.48.2 r9819"
   sodipodi:docname="cinema-24.svg">
  <defs
     id="defs4462" />
  <sodipodi:namedview
     id="base"
     pagecolor="#ffffff"
     bordercolor="#666666"
     borderopacity="1.0"
     inkscape:pageopacity="0.0"
     inkscape:pageshadow="2"
     inkscape:zoom="11.313708"
     inkscape:cx="15.622727"
     inkscape:cy="6.9146856"
     inkscape:document-units="px"
     inkscape:current-layer="layer1"
     showgrid="true"
     showguides="true"
     inkscape:guide-bbox="true"
     inkscape:window-width="1220"
     inkscape:window-height="833"
     inkscape:window-x="25"
     inkscape:window-y="195"
     inkscape:window-maximized="0"
     inkscape:snap-bbox="true"
     inkscape:snap-nodes="false">
    <inkscape:grid
       type="xygrid"
       id="grid4468"
       empspacing="5"
       visible="true"
       enabled="true"
       snapvisiblegridlinesonly="true"
       spacingx="1px"
       spacingy="1px" />
    <sodipodi:guide
       orientation="1,0"
       position="0,20"
       id="guide4470" />
    <sodipodi:guide
       orientation="0,1"
       position="4,24"
       id="guide4472" />
    <sodipodi:guide
       orientation="1,0"
       position="24,13"
       id="guide4474" />
    <sodipodi:guide
       orientation="0,1"
       position="15,0"
       id="guide4476" />
    <sodipodi:guide
       orientation="1,0"
       position="23,20"
       id="guide4478" />
    <sodipodi:guide
       orientation="0,1"
       position="20,23"
       id="guide4480" />
    <sodipodi:guide
       orientation="1,0"
       position="2,5"
       id="guide4482" />
    <sodipodi:guide
       orientation="0,1"
       position="7,2"
       id="guide4484" />
    <sodipodi:guide
       orientation="1,0"
       position="13,16"
       id="guide4486" />
    <sodipodi:guide
       orientation="0,1"
       position="16,13"
       id="guide4490" />
  </sodipodi:namedview>
  <metadata
     id="metadata4465">
    <rdf:RDF>
      <cc:Work
         rdf:about="">
        <dc:format>image/svg+xml</dc:format>
        <dc:type
           rdf:resource="http://purl.org/dc/dcmitype/StillImage" />
        <dc:title></dc:title>
      </cc:Work>
    </rdf:RDF>
  </metadata>
  <g
     inkscape:label="Layer 1"
     inkscape:groupmode="layer"
     id="layer1"
     transform="translate(0,-1028.3622)">
    <g
       style="display:inline"
       id="grocery-24"
       inkscape:label="grocery-24"
       transform="translate(-318,-165.99998)"
       inkscape:export-xdpi="89.996864"
       inkscape:export-ydpi="89.996864">
      <g
         transform="translate(317,1217.3623)"
         id="g8119">
        <path
           sodipodi:nodetypes="sscccccssccssccsssssssssssssssss"
           inkscape:connector-curvature="0"
           id="path8100"
           d="m 21,-19.000017 c -0.583333,0 -1.100899,0.163399 -1.46875,0.53125 C 19.163399,-18.100916 19,-17.58335 19,-17.000017 l -14,0 2,9 12,0 0,1 -11,0 c -1,0 -1,1 0,1 l 1.5,0 8,0 1.5,0 c 0.5,0 1,-0.5 1,-1 l 0,-1 0,-8 0,-1 c 0,0 0.0866,-0.649101 0.21875,-0.78125 0.132149,-0.132149 0.364583,-0.21875 0.78125,-0.21875 0.111026,0 0.292249,0 0.4,0 0.5,0 0.6,-0.248673 0.6,-0.5 0,-0.247421 -0.1,-0.5 -0.6,-0.5 -0.130972,0 -0.262788,0 -0.4,0 z m -3.5,13 c -0.828427,0 -1.5,0.671573 -1.5,1.5 0,0.828427 0.671573,1.5 1.5,1.5 0.828427,0 1.5,-0.671573 1.5,-1.5 0,-0.828427 -0.671573,-1.5 -1.5,-1.5 z m -8,0 c -0.8284271,0 -1.5,0.671573 -1.5,1.5 0,0.828427 0.6715729,1.5 1.5,1.5 0.828427,0 1.5,-0.671573 1.5,-1.5 0,-0.828427 -0.671573,-1.5 -1.5,-1.5 z"
           style="opacity:0.3;color:#000000;fill:#ffffff;fill-opacity:1;fill-rule:nonzero;stroke:#ffffff;stroke-width:2;stroke-linecap:round;stroke-linejoin:round;stroke-miterlimit:4;stroke-opacity:1;stroke-dasharray:none;stroke-dashoffset:0;marker:none;visibility:visible;display:inline;overflow:visible;enable-background:accumulate" />
        <path
           style="color:#000000;fill:#444444;fill-opacity:1;stroke:none;stroke-width:2;marker:none;visibility:visible;display:inline;overflow:visible;enable-background:accumulate"
           d="m 21,-19.000017 c -0.583333,0 -1.100899,0.163399 -1.46875,0.53125 C 19.163399,-18.100916 19,-17.58335 19,-17.000017 l -14,0 2,9 12,0 0,1 -11,0 c -1,0 -1,1 0,1 l 1.5,0 8,0 1.5,0 c 0.5,0 1,-0.5 1,-1 l 0,-1 0,-8 0,-1 c 0,0 0.0866,-0.649101 0.21875,-0.78125 0.132149,-0.132149 0.364583,-0.21875 0.78125,-0.21875 0.111026,0 0.292249,0 0.4,0 0.5,0 0.6,-0.248673 0.6,-0.5 0,-0.247421 -0.1,-0.5 -0.6,-0.5 -0.130972,0 -0.262788,0 -0.4,0 z m -3.5,13 c -0.828427,0 -1.5,0.671573 -1.5,1.5 0,0.828427 0.671573,1.5 1.5,1.5 0.828427,0 1.5,-0.671573 1.5,-1.5 0,-0.828427 -0.671573,-1.5 -1.5,-1.5 z m -8,0 c -0.8284271,0 -1.5,0.671573 -1.5,1.5 0,0.828427 0.6715729,1.5 1.5,1.5 0.828427,0 1.5,-0.671573 1.5,-1.5 0,-0.828427 -0.671573,-1.5 -1.5,-1.5 z"
           id="rect7842"
           inkscape:connector-curvature="0"
           sodipodi:nodetypes="sscccccssccssccsssssssssssssssss" />
      </g>
      <rect
         y="1194.3622"
         x="318"
         height="24.000017"
         width="24"
         id="rect22427"
         style="opacity:0.5;color:#000000;fill:none;stroke:none;stroke-width:2;marker:none;visibility:visible;display:inline;overflow:visible;enable-background:accumulate" />
    </g>
  </g>
</svg>
