<svg xmlns="http://www.w3.org/2000/svg" width="18" height="18">
    <g transform="translate(0 -1034.362) translate(-342 -160)" color="#000">
        <g>
            <path d="m 357.5,1198.8622 c -1,0 -1.5,0.5 -1.5,1.5 l -10,0 1.05882,6 9.17647,0 0,1 -8.41176,0 c -0.76471,0 -0.76435,0.7411 0,0.7647 l 1.14706,0 6.11764,0 1.14706,0 c 0.38236,0 0.76471,-0.3824 0.76471,-0.7647 l 0,-1 0,-4.9412 0,-1.0588 c 0,-0.5 0.23836,-0.7353 0.7647,-0.7353 l 1.2353,0 0,-0.7647 z m -2.5,9.2059 c -0.6335,0 -1.14706,0.5136 -1.14706,1.147 0,0.6335 0.51356,1.1471 1.14706,1.1471 0.63351,0 1.14706,-0.5136 1.14706,-1.1471 0,-0.6334 -0.51355,-1.147 -1.14706,-1.147 z m -6,0 c -0.63351,0 -1.14706,0.5136 -1.14706,1.147 0,0.6335 0.51355,1.1471 1.14706,1.1471 0.6335,0 1.14706,-0.5136 1.14706,-1.1471 0,-0.6334 -0.51356,-1.147 -1.14706,-1.147 z" opacity=".3" fill="#fff" stroke="#fff" stroke-width="2" stroke-linecap="round" stroke-linejoin="round" overflow="visible" enable-background="accumulate" transform="translate(-1 -1)"/>
            <path d="m 357.5,1198.8622 c -1,0 -1.5,0.5 -1.5,1.5 l -10,0 1.05882,6 9.17647,0 0,1 -8.41176,0 c -0.76471,0 -0.76435,0.7411 0,0.7647 l 1.14706,0 6.11764,0 1.14706,0 c 0.38236,0 0.76471,-0.3824 0.76471,-0.7647 l 0,-1 0,-4.9412 0,-1.0588 c 0,-0.5 0.23836,-0.7353 0.7647,-0.7353 l 1.2353,0 0,-0.7647 z m -2.5,9.2059 c -0.6335,0 -1.14706,0.5136 -1.14706,1.147 0,0.6335 0.51356,1.1471 1.14706,1.1471 0.63351,0 1.14706,-0.5136 1.14706,-1.1471 0,-0.6334 -0.51355,-1.147 -1.14706,-1.147 z m -6,0 c -0.63351,0 -1.14706,0.5136 -1.14706,1.147 0,0.6335 0.51355,1.1471 1.14706,1.1471 0.6335,0 1.14706,-0.5136 1.14706,-1.1471 0,-0.6334 -0.51356,-1.147 -1.14706,-1.147 z" fill="#444" overflow="visible" enable-background="accumulate" transform="translate(-1 -1)"/>
        </g>
        <rect width="18" height="18" x="342" y="1194.362" opacity=".5" overflow="visible" enable-background="accumulate" fill="none"/>
    </g>
</svg>
