<svg xmlns="http://www.w3.org/2000/svg" width="18" height="18">
    <g transform="translate(0 -1034.362) translate(-108 -328)" color="#000">
        <path d="m 121,1364.3622 -1,0.5 -0.5,0.5 -0.5,1 0,1 0.0937,0.4063 -6.3437,6.3437 c -0.75,-0.75 -0.75,-2.75 0.25,-3.75 l 1,1 0,-4 -1.5,1.5 c -1,1 -1.5,1.5 -1.5,3 l 0,1.5 0,4 4,0 1.5,0 c 1,0 2,-0.5 3,-1.5 l 0.5,-0.5 1,-1 -1,0 -3,0 1,1 c -1,1 -3,1 -3.75,0.25 l 6.34375,-6.3437 0.40625,0.094 1,0 1,-0.5 0.5,-0.5 0.5,-1 0,-1 -0.5,-1 -0.5,-0.5 -1,-0.5 -1,0 z m 0,1.5 0.5,0 0.5,0 0.5,0.5 0,0.5 0,0.5 -0.5,0.5 -0.5,0 -0.5,0 -0.5,-0.5 0,-0.5 0,-0.5 0.5,-0.5 z" opacity=".3" fill="#fff" stroke="#fff" stroke-width="2" stroke-linejoin="round" overflow="visible" enable-background="accumulate"/>
        <path d="m 121,1364.3622 -1,0.5 -0.5,0.5 -0.5,1 0,1 0.0937,0.4063 -6.3437,6.3437 c -0.75,-0.75 -0.75,-2.75 0.25,-3.75 l 1,1 0,-4 -1.5,1.5 c -1,1 -1.5,1.5 -1.5,3 l 0,1.5 0,4 4,0 1.5,0 c 1,0 2,-0.5 3,-1.5 l 0.5,-0.5 1,-1 -1,0 -3,0 1,1 c -1,1 -3,1 -3.75,0.25 l 6.34375,-6.3437 0.40625,0.094 1,0 1,-0.5 0.5,-0.5 0.5,-1 0,-1 -0.5,-1 -0.5,-0.5 -1,-0.5 -1,0 z m 0,1.5 0.5,0 0.5,0 0.5,0.5 0,0.5 0,0.5 -0.5,0.5 -0.5,0 -0.5,0 -0.5,-0.5 0,-0.5 0,-0.5 0.5,-0.5 z" fill="#444" overflow="visible" enable-background="accumulate"/>
        <rect ry="0" rx="0" y="1362.362" x="108" height="18" width="18" opacity=".3" overflow="visible" enable-background="accumulate" fill="none"/>
    </g>
</svg>
