<svg xmlns="http://www.w3.org/2000/svg" width="18" height="18">
    <g transform="translate(0 -1034.362) translate(-108 -40)" color="#000">
        <g>
            <path d="m 118.19444,1087.3622 5.02778,0 c 0.38889,0 0.77778,-0.3889 0.77778,-0.7778 l 0,-2.3333 c 0,-0.7778 -0.37392,-1.1517 -0.77778,-1.5556 0,0 -0.51852,-0.5185 -0.77778,-0.7777 -0.25925,-0.2593 -0.77777,-0.5556 -1.55555,-0.5556 l -1.88889,0 0,-2 3.22222,0 c 0.43088,0 0.77778,-0.1247 0.77778,-0.5556 0,-0.4308 -0.29135,-0.4444 -0.72223,-0.4444 l -7.33333,0 c -0.43089,0 -0.83333,0.014 -0.83333,0.4444 0,0.4309 0.34939,0.5092 0.77778,0.5556 l 3.11111,0 0,2 -0.77778,0 -3.32986,0 c -0.26914,-0.4643 -0.76156,-0.7778 -1.3368,-0.7778 -0.85911,0 -1.55556,0.6964 -1.55556,1.5556 0,0.8591 0.69645,1.5555 1.55556,1.5555 0.4488,0 0.83413,-0.2063 1.11805,-0.5104 l 2.77083,2.6215 c 0.80962,0.766 1.36112,1.5556 1.75,1.5556 z m -5.63888,-6 c 0.42955,0 0.77777,0.3482 0.77777,0.7778 0,0.4295 -0.34822,0.7777 -0.77777,0.7777 -0.42956,0 -0.77778,-0.3482 -0.77778,-0.7777 0,-0.4296 0.34822,-0.7778 0.77778,-0.7778 z" opacity=".3" stroke="#fff" stroke-width="2" stroke-linecap="round" stroke-linejoin="round" overflow="visible" enable-background="accumulate" fill="none"/>
            <path d="m 118.19444,1087.3622 5.02778,0 c 0.38889,0 0.77778,-0.3889 0.77778,-0.7778 l 0,-2.3333 c 0,-0.7778 -0.37392,-1.1517 -0.77778,-1.5556 0,0 -0.51852,-0.5185 -0.77778,-0.7777 -0.25925,-0.2593 -0.77777,-0.5556 -1.55555,-0.5556 l -1.88889,0 0,-2 3.22222,0 c 0.43088,0 0.77778,-0.1247 0.77778,-0.5556 0,-0.4308 -0.29135,-0.4444 -0.72223,-0.4444 l -7.33333,0 c -0.43089,0 -0.83333,0.014 -0.83333,0.4444 0,0.4309 0.34939,0.5092 0.77778,0.5556 l 3.11111,0 0,2 -0.77778,0 -3.32986,0 c -0.26914,-0.4643 -0.76156,-0.7778 -1.3368,-0.7778 -0.85911,0 -1.55556,0.6964 -1.55556,1.5556 0,0.8591 0.69645,1.5555 1.55556,1.5555 0.4488,0 0.83413,-0.2063 1.11805,-0.5104 l 2.77083,2.6215 c 0.80962,0.766 1.36112,1.5556 1.75,1.5556 z m -5.63888,-6 c 0.42955,0 0.77777,0.3482 0.77777,0.7778 0,0.4295 -0.34822,0.7777 -0.77777,0.7777 -0.42956,0 -0.77778,-0.3482 -0.77778,-0.7777 0,-0.4296 0.34822,-0.7778 0.77778,-0.7778 z" fill="#444" overflow="visible" enable-background="accumulate"/>
        </g>
        <rect y="1074.362" x="108" height="18" width="18" opacity=".5" overflow="visible" enable-background="accumulate" fill="none"/>
    </g>
</svg>
