<svg xmlns="http://www.w3.org/2000/svg" width="12" height="12">
    <g transform="translate(0 -1040.362) translate(-126 -34)" color="#000">
        <g>
            <path d="m 132.625,1084.3622 3.875,0 c 0.25,0 0.5,-0.25 0.5,-0.5 l 0,-1.5 c 0,-0.5 -0.24038,-0.7404 -0.5,-1 0,0 -0.33334,-0.3333 -0.5,-0.5 -0.16666,-0.1666 -0.5,-0.5 -1,-0.5 l -1,0 0,-1 1.5,0 1,0 c 0.27699,0 0.5,-0.223 0.5,-0.5 0,-0.277 -0.22301,-0.5 -0.5,-0.5 l -1,0 -1.5,0 -0.5,0 -2,0 -0.5,0 -0.5,0 c -0.277,0 -0.5,0.223 -0.5,0.5 0,0.277 0.223,0.5 0.5,0.5 l 0.5,0 0.5,0 1.5,0 0,1 -1,0 -2.14062,0 c -0.17303,-0.2984 -0.48958,-0.5 -0.85938,-0.5 -0.55228,0 -1,0.4477 -1,1 0,0.5523 0.44772,1 1,1 0.28852,0 0.53623,-0.1326 0.71875,-0.3281 l 1.78125,1.8281 c 0.5,0.5132 0.875,1 1.125,1 z m -3.625,-4 c 0.27614,0 0.5,0.2238 0.5,0.5 0,0.2762 -0.22386,0.5 -0.5,0.5 -0.27614,0 -0.5,-0.2238 -0.5,-0.5 0,-0.2762 0.22386,-0.5 0.5,-0.5 z" opacity=".3" stroke="#fff" stroke-width="2" stroke-linecap="round" stroke-linejoin="round" overflow="visible" enable-background="accumulate" fill="none" transform="translate(0 -1)"/>
            <path d="m 132.625,1084.3622 3.875,0 c 0.25,0 0.5,-0.25 0.5,-0.5 l 0,-1.5 c 0,-0.5 -0.24038,-0.7404 -0.5,-1 0,0 -0.33334,-0.3333 -0.5,-0.5 -0.16666,-0.1666 -0.5,-0.5 -1,-0.5 l -1,0 0,-1 1.5,0 1,0 c 0.27699,0 0.5,-0.223 0.5,-0.5 0,-0.277 -0.22301,-0.5 -0.5,-0.5 l -1,0 -1.5,0 -0.5,0 -2,0 -0.5,0 -0.5,0 c -0.277,0 -0.5,0.223 -0.5,0.5 0,0.277 0.223,0.5 0.5,0.5 l 0.5,0 0.5,0 1.5,0 0,1 -1,0 -2.14062,0 c -0.17303,-0.2984 -0.48958,-0.5 -0.85938,-0.5 -0.55228,0 -1,0.4477 -1,1 0,0.5523 0.44772,1 1,1 0.28852,0 0.53623,-0.1326 0.71875,-0.3281 l 1.78125,1.8281 c 0.5,0.5132 0.875,1 1.125,1 z m -3.625,-4 c 0.27614,0 0.5,0.2238 0.5,0.5 0,0.2762 -0.22386,0.5 -0.5,0.5 -0.27614,0 -0.5,-0.2238 -0.5,-0.5 0,-0.2762 0.22386,-0.5 0.5,-0.5 z" fill="#444" overflow="visible" enable-background="accumulate" transform="translate(0 -1)"/>
        </g>
        <rect width="12" height="12" x="126" y="1074.362" opacity=".5" overflow="visible" enable-background="accumulate" fill="none"/>
    </g>
</svg>
