<svg xmlns="http://www.w3.org/2000/svg" width="24" height="24">
    <g transform="translate(0 -1028.362) translate(-84 -46)" color="#000">
        <g>
            <path d="m 96.25,1091.3622 8.75,0 c 0.5,0 1,-0.5 1,-1 l 0,-3 c 0,-1 -0.48076,-1.4808 -1,-2 0,0 -0.66667,-0.6667 -1,-1 -0.33333,-0.3333 -1,-1 -2,-1 l -3,0 0,-2 4,0 2,0 c 0.55399,0 1,-0.446 1,-1 0,-0.554 -0.44601,-1 -1,-1 l -2,0 -3.5,0 -1,0 -4.5,0 -1,0 -1,0 c -0.553995,0 -1,0.446 -1,1 0,0.554 0.446005,1 1,1 l 1,0 1,0 4,0 0,2 -3,0 -4.28125,0 c -0.346043,-0.5969 -0.979146,-1 -1.71875,-1 -1.104569,0 -2,0.8954 -2,2 0,1.1046 0.895431,2 2,2 0.577042,0 1.072461,-0.2653 1.4375,-0.6562 L 94,1089.3622 c 1,1.0263 1.75,2 2.25,2 z m -7.25,-8 c 0.552285,0 1,0.4477 1,1 0,0.5523 -0.447715,1 -1,1 -0.552285,0 -1,-0.4477 -1,-1 0,-0.5523 0.447715,-1 1,-1 z" opacity=".3" fill="#fff" stroke="#fff" stroke-width="2" stroke-linecap="round" stroke-linejoin="round" overflow="visible" enable-background="accumulate" transform="translate(0 1)"/>
            <path d="m 96.25,1091.3622 8.75,0 c 0.5,0 1,-0.5 1,-1 l 0,-3 c 0,-1 -0.48076,-1.4808 -1,-2 0,0 -0.66667,-0.6667 -1,-1 -0.33333,-0.3333 -1,-1 -2,-1 l -3,0 0,-2 4,0 2,0 c 0.55399,0 1,-0.446 1,-1 0,-0.554 -0.44601,-1 -1,-1 l -2,0 -3.5,0 -1,0 -4.5,0 -1,0 -1,0 c -0.553995,0 -1,0.446 -1,1 0,0.554 0.446005,1 1,1 l 1,0 1,0 4,0 0,2 -3,0 -4.28125,0 c -0.346043,-0.5969 -0.979146,-1 -1.71875,-1 -1.104569,0 -2,0.8954 -2,2 0,1.1046 0.895431,2 2,2 0.577042,0 1.072461,-0.2653 1.4375,-0.6562 L 94,1089.3622 c 1,1.0263 1.75,2 2.25,2 z m -7.25,-8 c 0.552285,0 1,0.4477 1,1 0,0.5523 -0.447715,1 -1,1 -0.552285,0 -1,-0.4477 -1,-1 0,-0.5523 0.447715,-1 1,-1 z" fill="#444" overflow="visible" enable-background="accumulate" transform="translate(0 1)"/>
        </g>
        <rect width="24" height="24" x="84" y="1074.362" opacity=".5" overflow="visible" enable-background="accumulate" fill="none"/>
    </g>
</svg>
