<svg xmlns="http://www.w3.org/2000/svg" width="24" height="24">
    <g transform="translate(0 -1028.362) translate(-630 -214)" color="#000">
        <path d="m 637.5,1245.3622 c -0.5,0 -0.78339,0.1967 -1,0.5 l -2.5,3.5 2,0 0,3 5,0 0,-3 2,0 -2.5,-3.5 c -0.21661,-0.3033 -0.5,-0.5 -1,-0.5 z m 12.5,0 0,2 -4,0 c -0.5,0 -1,0.5 -1,1 l 0,4 6,0 0,-7 z m -14,9 c -0.5,0 -1,0.5 -1,1 l 0,7 2,0 0,-2 1,0 0,2 4,0 0,-7 c 0,-0.5 -0.5,-1 -1,-1 z m 12,-1 -3,4 1.5,0 -1.5,3 2,0 0,2 2,0 0,-2 2,0 -1.5,-3 1.5,0 z" opacity=".3" fill="#fff" stroke="#fff" stroke-width="2" stroke-linecap="round" stroke-linejoin="round" overflow="visible" enable-background="accumulate"/>
        <path d="m 757.5,195 c -0.5,0 -0.78339,0.1967 -1,0.5 l -2.5,3.5 2,0 0,3 5,0 0,-3 2,0 -2.5,-3.5 c -0.21661,-0.3033 -0.5,-0.5 -1,-0.5 l -2,0 z m 12.5,0 0,2 -4,0 c -0.5,0 -1,0.5 -1,1 l 0,4 6,0 0,-7 -1,0 z m -2,8 -3,4 1.5,0 -1.5,3 2,0 0,2 2,0 0,-2 2,0 -1.5,-3 1.5,0 -3,-4 z m -12,1 c -0.5,0 -1,0.5 -1,1 l 0,7 2,0 0,-2 1,0 0,2 4,0 0,-7 c 0,-0.5 -0.5,-1 -1,-1 l -5,0 z m 1,2 1,0 0,1 -1,0 0,-1 z m 2,0 1,0 0,1 -1,0 0,-1 z m -2,2 1,0 0,1 -1,0 0,-1 z m 2,0 1,0 0,1 -1,0 0,-1 z m 0,2 1,0 0,1 -1,0 0,-1 z" transform="translate(-120 1050.362)" fill="#444" overflow="visible" enable-background="accumulate"/>
        <rect y="1242.362" x="630" height="24" width="24" opacity=".5" overflow="visible" enable-background="accumulate" fill="none"/>
    </g>
</svg>
