<svg xmlns="http://www.w3.org/2000/svg" width="24" height="24">
    <g transform="translate(0 -1028.362) translate(-240 -70)">
        <g>
            <path d="m 244,1101.3622 0,10 c 3,3 7,2 7,4 l 1,0 0,-9 c 0,-3 -5,-3 -8,-5 z m 17,0 c -3,2 -8,2 -8,5 l 0,9 1,0 c 0,-2 4,-1 7,-4 z" opacity=".3" color="#000" stroke="#fff" stroke-width="2" stroke-linecap="round" stroke-linejoin="round" overflow="visible" enable-background="accumulate" fill="none" transform="translate(0 2)"/>
            <path d="m 244,1102.3622 0,10 c 3,3 7,2 7,4 l 1,0 0,-9 c 0,-3 -5,-3 -8,-5 z m 17,0 c -3,2 -8,2 -8,5 l 0,9 1,0 c 0,-2 4,-1 7,-4 z" color="#000" fill="#444" overflow="visible" enable-background="accumulate" transform="translate(0 2) translate(0 -1)"/>
        </g>
        <rect width="24" height="24" x="240" y="1098.362" opacity=".5" color="#000" overflow="visible" enable-background="accumulate" fill="none"/>
    </g>
</svg>
