<svg xmlns="http://www.w3.org/2000/svg" width="18" height="18">
    <g transform="translate(0 -1034.362) translate(-264 -64)" color="#000">
        <g>
            <path d="m 266,1103.7151 0,7.6471 c 2,2.5 5,1.4706 5,3 l 1,0 0,-6.8824 c 0,-2.2941 -3,-1.6176 -6,-3.7647 z m 13,0 c -3,2.1471 -6,1.4706 -6,3.7647 l 0,6.8824 1,0 c 0,-1.5294 3,-0.5 5,-3 z" opacity=".3" stroke="#fff" stroke-width="2" stroke-linecap="round" stroke-linejoin="round" overflow="visible" enable-background="accumulate" fill="none" transform="translate(1 -1)"/>
            <path d="m 266,1103.7151 0,7.6471 c 2,2.5 5,1.4706 5,3 l 1,0 0,-6.8824 c 0,-2.2941 -3,-1.6176 -6,-3.7647 z m 13,0 c -3,2.1471 -6,1.4706 -6,3.7647 l 0,6.8824 1,0 c 0,-1.5294 3,-0.5 5,-3 z" fill="#444" overflow="visible" enable-background="accumulate" transform="translate(1 -1)"/>
        </g>
        <rect y="1098.362" x="264" height="18" width="18" opacity=".5" overflow="visible" enable-background="accumulate" fill="none"/>
    </g>
</svg>
