<?xml version="1.0" encoding="UTF-8" standalone="no"?>
<!-- Created with Inkscape (http://www.inkscape.org/) -->

<svg
   xmlns:dc="http://purl.org/dc/elements/1.1/"
   xmlns:cc="http://creativecommons.org/ns#"
   xmlns:rdf="http://www.w3.org/1999/02/22-rdf-syntax-ns#"
   xmlns:svg="http://www.w3.org/2000/svg"
   xmlns="http://www.w3.org/2000/svg"
   xmlns:sodipodi="http://sodipodi.sourceforge.net/DTD/sodipodi-0.dtd"
   xmlns:inkscape="http://www.inkscape.org/namespaces/inkscape"
   width="18"
   height="18"
   id="svg4619"
   version="1.1"
   inkscape:version="0.48.2 r9819"
   sodipodi:docname="museum-18.svg">
  <defs
     id="defs4621" />
  <sodipodi:namedview
     id="base"
     pagecolor="#ffffff"
     bordercolor="#666666"
     borderopacity="1.0"
     inkscape:pageopacity="0.0"
     inkscape:pageshadow="2"
     inkscape:zoom="16"
     inkscape:cx="6.5869453"
     inkscape:cy="5.510534"
     inkscape:document-units="px"
     inkscape:current-layer="layer1"
     showgrid="true"
     showguides="true"
     inkscape:guide-bbox="true"
     inkscape:window-width="1008"
     inkscape:window-height="662"
     inkscape:window-x="76"
     inkscape:window-y="40"
     inkscape:window-maximized="0"
     inkscape:snap-bbox="true"
     inkscape:object-paths="true"
     inkscape:snap-nodes="false">
    <inkscape:grid
       type="xygrid"
       id="grid4627"
       empspacing="5"
       visible="true"
       enabled="true"
       snapvisiblegridlinesonly="true" />
    <sodipodi:guide
       orientation="0,1"
       position="7,18"
       id="guide4659" />
    <sodipodi:guide
       orientation="1,0"
       position="18,9"
       id="guide4661" />
    <sodipodi:guide
       orientation="0,1"
       position="16,17"
       id="guide4663" />
    <sodipodi:guide
       orientation="1,0"
       position="17,14"
       id="guide4665" />
    <sodipodi:guide
       orientation="1,0"
       position="0,16"
       id="guide4667" />
    <sodipodi:guide
       orientation="0,1"
       position="8,0"
       id="guide4669" />
    <sodipodi:guide
       orientation="1,0"
       position="2,10"
       id="guide4671" />
    <sodipodi:guide
       orientation="0,1"
       position="12,2"
       id="guide4673" />
  </sodipodi:namedview>
  <metadata
     id="metadata4624">
    <rdf:RDF>
      <cc:Work
         rdf:about="">
        <dc:format>image/svg+xml</dc:format>
        <dc:type
           rdf:resource="http://purl.org/dc/dcmitype/StillImage" />
        <dc:title></dc:title>
      </cc:Work>
    </rdf:RDF>
  </metadata>
  <g
     inkscape:label="Layer 1"
     inkscape:groupmode="layer"
     id="layer1"
     transform="translate(0,-1034.3622)">
    <g
       style="display:inline"
       id="lodging-18"
       inkscape:label="lodging-18"
       inkscape:export-xdpi="89.996864"
       inkscape:export-ydpi="89.996864"
       transform="translate(-186,-64)">
      <g
         id="g21721">
        <path
           sodipodi:nodetypes="ssssscsccccsscscsssccssssss"
           inkscape:connector-curvature="0"
           id="path17345"
           d="m 190.49999,1102.1123 c -0.82842,0 -1.49999,0.6715 -1.49999,1.5 0,0.8284 0.67157,1.4999 1.49999,1.4999 0.82843,0 1.49999,-0.6715 1.49999,-1.4999 0,-0.8285 -0.67156,-1.5 -1.49999,-1.5 z M 193,1103.3622 c 0,2 -1,3 -2.5,3 l -1,0 c -0.5,0 -0.5,0.5 -0.5,0.5 0,0 0,0.5 0.5,0.5 l 12.5,0 0,-1.7501 c 0,-0.75 0,-2.2499 -3.74997,-2.2499 z m -3.25001,5 c -0.375,0 -0.75,0.375 -0.75,0.75 -1.8e-4,0.743 0,0.8584 0,1.5 0,0.375 0.375,0.75 0.75,0.75 0.375,0 0.74999,-0.375 0.74999,-0.75 l 2e-5,-1.25 10.00002,0 -2e-5,1.25 c -1e-5,0.375 0.375,0.75 0.75,0.75 0.375,0 0.74999,-0.375 0.74999,-0.75 l 0,-1.5 c 0,-0.375 -0.37499,-0.75 -0.74999,-0.75 z"
           style="opacity:0.3;color:#000000;fill:none;stroke:#ffffff;stroke-width:2;stroke-linecap:round;stroke-linejoin:round;stroke-miterlimit:4;stroke-opacity:1;stroke-dasharray:none;stroke-dashoffset:0;marker:none;visibility:visible;display:inline;overflow:visible;enable-background:accumulate" />
        <path
           style="color:#000000;fill:#444444;fill-opacity:1;stroke:none;stroke-width:2;marker:none;visibility:visible;display:inline;overflow:visible;enable-background:accumulate"
           d="m 190.49999,1102.1123 c -0.82842,0 -1.49999,0.6715 -1.49999,1.5 0,0.8284 0.67157,1.4999 1.49999,1.4999 0.82843,0 1.49999,-0.6715 1.49999,-1.4999 0,-0.8285 -0.67156,-1.5 -1.49999,-1.5 z M 193,1103.3622 c 0,2 -1,3 -2.5,3 l -1,0 c -0.5,0 -0.5,0.5 -0.5,0.5 0,0 0,0.5 0.5,0.5 l 12.5,0 0,-1.7501 c 0,-0.75 0,-2.2499 -3.74997,-2.2499 z m -3.25001,5 c -0.375,0 -0.75,0.375 -0.75,0.75 -1.8e-4,0.743 0,0.8584 0,1.5 0,0.375 0.375,0.75 0.75,0.75 0.375,0 0.74999,-0.375 0.74999,-0.75 l 2e-5,-1.25 10.00002,0 -2e-5,1.25 c -1e-5,0.375 0.375,0.75 0.75,0.75 0.375,0 0.74999,-0.375 0.74999,-0.75 l 0,-1.5 c 0,-0.375 -0.37499,-0.75 -0.74999,-0.75 z"
           id="path4536-7"
           inkscape:connector-curvature="0"
           sodipodi:nodetypes="ssssscsccccsscscsssccssssss" />
      </g>
      <rect
         style="opacity:0.5;color:#000000;fill:none;stroke:none;stroke-width:2;marker:none;visibility:visible;display:inline;overflow:visible;enable-background:accumulate"
         id="rect22196"
         width="18.000017"
         height="18.000031"
         x="185.99997"
         y="1098.3622" />
    </g>
  </g>
</svg>
