<svg xmlns="http://www.w3.org/2000/svg" width="12" height="12">
    <g transform="translate(0 -1040.362) translate(-204 -58)" color="#000">
        <g>
            <path d="m 207,1100.3622 c -0.55229,0 -1,0.4477 -1,1 0,0.5523 0.44771,1 1,1 0.55228,0 1,-0.4477 1,-1 0,-0.5523 -0.44772,-1 -1,-1 z m 2,1 c 0,1 -0.5,2 -2,2 l -0.75,0 c -0.1263,0 -0.25065,0 -0.25,0.25 1.7e-4,0.068 0,0.3079 0,0.5 0,0.25 0.19428,0.25 0.25,0.25 l 8.75,0 0,-1.5 c 0,-0.5 0,-1.5 -2.5,-1.5 z m -2.5,4 c -0.25,0 -0.5,0.25 -0.5,0.5 -1.2e-4,0.4954 0,0.5723 0,1 0,0.25 0.25,0.5 0.5,0.5 0.25,0 0.5,-0.25 0.5,-0.5 l 0,-0.5 7,0 0,0.5 c 0,0.25 0.25,0.5 0.5,0.5 0.25,0 0.5,-0.25 0.5,-0.5 l 0,-1 c 0,-0.25 -0.25,-0.5 -0.5,-0.5 z" opacity=".3" stroke="#fff" stroke-width="2" stroke-linecap="round" stroke-linejoin="round" overflow="visible" enable-background="accumulate" fill="none"/>
            <path d="m 207,1100.3622 c -0.55229,0 -1,0.4477 -1,1 0,0.5523 0.44771,1 1,1 0.55228,0 1,-0.4477 1,-1 0,-0.5523 -0.44772,-1 -1,-1 z m 2,1 c 0,1 -0.5,2 -2,2 l -0.75,0 c -0.1263,0 -0.25065,0 -0.25,0.25 1.7e-4,0.068 0,0.3079 0,0.5 0,0.25 0.19428,0.25 0.25,0.25 l 8.75,0 0,-1.5 c 0,-0.5 0,-1.5 -2.5,-1.5 z m -2.5,4 c -0.25,0 -0.5,0.25 -0.5,0.5 -1.2e-4,0.4954 0,0.5723 0,1 0,0.25 0.25,0.5 0.5,0.5 0.25,0 0.5,-0.25 0.5,-0.5 l 0,-0.5 7,0 0,0.5 c 0,0.25 0.25,0.5 0.5,0.5 0.25,0 0.5,-0.25 0.5,-0.5 l 0,-1 c 0,-0.25 -0.25,-0.5 -0.5,-0.5 z" fill="#444" overflow="visible" enable-background="accumulate"/>
        </g>
        <rect y="1098.362" x="204" height="12" width="12" opacity=".5" overflow="visible" enable-background="accumulate" fill="none"/>
    </g>
</svg>
