<svg xmlns="http://www.w3.org/2000/svg" width="18" height="18">
    <g transform="translate(0 -1034.362) translate(-186 -64)" color="#000">
        <g>
            <path d="m 190.49999,1102.1123 c -0.82842,0 -1.49999,0.6715 -1.49999,1.5 0,0.8284 0.67157,1.4999 1.49999,1.4999 0.82843,0 1.49999,-0.6715 1.49999,-1.4999 0,-0.8285 -0.67156,-1.5 -1.49999,-1.5 z M 193,1103.3622 c 0,2 -1,3 -2.5,3 l -1,0 c -0.5,0 -0.5,0.5 -0.5,0.5 0,0 0,0.5 0.5,0.5 l 12.5,0 0,-1.7501 c 0,-0.75 0,-2.2499 -3.74997,-2.2499 z m -3.25001,5 c -0.375,0 -0.75,0.375 -0.75,0.75 -1.8e-4,0.743 0,0.8584 0,1.5 0,0.375 0.375,0.75 0.75,0.75 0.375,0 0.74999,-0.375 0.74999,-0.75 l 2e-5,-1.25 10.00002,0 -2e-5,1.25 c -1e-5,0.375 0.375,0.75 0.75,0.75 0.375,0 0.74999,-0.375 0.74999,-0.75 l 0,-1.5 c 0,-0.375 -0.37499,-0.75 -0.74999,-0.75 z" opacity=".3" stroke="#fff" stroke-width="2" stroke-linecap="round" stroke-linejoin="round" overflow="visible" enable-background="accumulate" fill="none"/>
            <path d="m 190.49999,1102.1123 c -0.82842,0 -1.49999,0.6715 -1.49999,1.5 0,0.8284 0.67157,1.4999 1.49999,1.4999 0.82843,0 1.49999,-0.6715 1.49999,-1.4999 0,-0.8285 -0.67156,-1.5 -1.49999,-1.5 z M 193,1103.3622 c 0,2 -1,3 -2.5,3 l -1,0 c -0.5,0 -0.5,0.5 -0.5,0.5 0,0 0,0.5 0.5,0.5 l 12.5,0 0,-1.7501 c 0,-0.75 0,-2.2499 -3.74997,-2.2499 z m -3.25001,5 c -0.375,0 -0.75,0.375 -0.75,0.75 -1.8e-4,0.743 0,0.8584 0,1.5 0,0.375 0.375,0.75 0.75,0.75 0.375,0 0.74999,-0.375 0.74999,-0.75 l 2e-5,-1.25 10.00002,0 -2e-5,1.25 c -1e-5,0.375 0.375,0.75 0.75,0.75 0.375,0 0.74999,-0.375 0.74999,-0.75 l 0,-1.5 c 0,-0.375 -0.37499,-0.75 -0.74999,-0.75 z" fill="#444" overflow="visible" enable-background="accumulate"/>
        </g>
        <rect width="18" height="18" x="186" y="1098.362" opacity=".5" overflow="visible" enable-background="accumulate" fill="none"/>
    </g>
</svg>
