<svg xmlns="http://www.w3.org/2000/svg" width="24" height="24">
    <g transform="translate(0 -1028.362) translate(-162 -70)" color="#000">
        <g>
            <path d="m 6,1010.3622 c -1.10457,0 -2,0.8954 -2,2 0,1.1046 0.89543,2 2,2 1.10457,0 2,-0.8954 2,-2 0,-1.1046 -0.89543,-2 -2,-2 z m 3,2 c 0,1.6569 -1.34314,3 -3,3 l -1.5,0 c -0.25259,0 -0.5013,0 -0.5,0.5 3.5e-4,0.136 0,0.6157 0,1 0,0.5 0.38857,0.5 0.5,0.5 l 16.5,0 0,-2 c 0,-1 0,-3 -5,-3 z m -4,6 c -0.5,0 -1,0.5 -1,1 -2.4e-4,0.9907 0,2.1445 0,3 0,0.5 0.5,1 1,1 0.5,0 1,-0.5 1,-1 l 0,-2 13,0 0,2 c 0,0.5 0.5,1 1,1 0.5,0 1,-0.5 1,-1 l 0,-3 c 0,-0.5 -0.5,-1 -1,-1 z" opacity=".3" stroke="#fff" stroke-width="2" stroke-linecap="round" stroke-linejoin="round" overflow="visible" enable-background="accumulate" fill="none" transform="translate(162 94)"/>
            <path d="m 6,1010.3622 c -1.10457,0 -2,0.8954 -2,2 0,1.1046 0.89543,2 2,2 1.10457,0 2,-0.8954 2,-2 0,-1.1046 -0.89543,-2 -2,-2 z m 3,2 c 0,1.6569 -1.34314,3 -3,3 l -1.5,0 c -0.25259,0 -0.5013,0 -0.5,0.5 3.5e-4,0.136 0,0.6157 0,1 0,0.5 0.38857,0.5 0.5,0.5 l 16.5,0 0,-2 c 0,-1 0,-3 -5,-3 z m -4,6 c -0.5,0 -1,0.5 -1,1 -2.4e-4,0.9907 0,2.1445 0,3 0,0.5 0.5,1 1,1 0.5,0 1,-0.5 1,-1 l 0,-2 13,0 0,2 c 0,0.5 0.5,1 1,1 0.5,0 1,-0.5 1,-1 l 0,-3 c 0,-0.5 -0.5,-1 -1,-1 z" fill="#444" overflow="visible" enable-background="accumulate" transform="translate(162 94)"/>
        </g>
        <rect y="1098.362" x="162" height="24" width="24" opacity=".5" overflow="visible" enable-background="accumulate" fill="none"/>
    </g>
</svg>
