<svg xmlns="http://www.w3.org/2000/svg" width="24" height="24">
    <g transform="translate(0 -1028.362) translate(-476 -214)" color="#000">
        <g>
            <path transform="translate(2) translate(-276 1148.362)" d="m 768,97 -7.5,7.5 1.25,1.25 7.25,-7.25 0.5,0.5 -7.25,7.25 1.25,1.25 7.5,-7.5 0,-2 -1,-1 z m -11.5,5.5 -2.5,2.5 0.5,0.5 1,0 1,-1 1,1 -3.5,3.5 0,2 3,3 2,0 4.5,-4.5 z" opacity=".3" fill="#fff" stroke="#fff" stroke-width="2" stroke-linecap="round" stroke-linejoin="round" overflow="visible" enable-background="accumulate"/>
            <path d="m 768,97 -7.5,7.5 1.25,1.25 7.25,-7.25 0.5,0.5 -7.25,7.25 1.25,1.25 7.5,-7.5 0,-2 -1,-1 z m -11.5,5.5 -2.5,2.5 0.5,0.5 1,0 1,-1 1,1 -3.5,3.5 0,2 3,3 2,0 4.5,-4.5 z" transform="translate(2) translate(-276 1148.362)" fill="#444" overflow="visible" enable-background="accumulate"/>
        </g>
        <rect y="1242.362" x="476" height="24" width="24" opacity=".5" overflow="visible" enable-background="accumulate" fill="none"/>
    </g>
</svg>
