<?xml version="1.0" encoding="UTF-8" standalone="no"?>
<!-- Created with Inkscape (http://www.inkscape.org/) -->

<svg
   xmlns:dc="http://purl.org/dc/elements/1.1/"
   xmlns:cc="http://creativecommons.org/ns#"
   xmlns:rdf="http://www.w3.org/1999/02/22-rdf-syntax-ns#"
   xmlns:svg="http://www.w3.org/2000/svg"
   xmlns="http://www.w3.org/2000/svg"
   xmlns:sodipodi="http://sodipodi.sourceforge.net/DTD/sodipodi-0.dtd"
   xmlns:inkscape="http://www.inkscape.org/namespaces/inkscape"
   width="24"
   height="24"
   id="svg4460"
   version="1.1"
   inkscape:version="0.48.2 r9819"
   sodipodi:docname="airfield-24.svg">
  <defs
     id="defs4462" />
  <sodipodi:namedview
     id="base"
     pagecolor="#ffffff"
     bordercolor="#666666"
     borderopacity="1.0"
     inkscape:pageopacity="0.0"
     inkscape:pageshadow="2"
     inkscape:zoom="11.313708"
     inkscape:cx="15.622727"
     inkscape:cy="-0.15638252"
     inkscape:document-units="px"
     inkscape:current-layer="layer1"
     showgrid="true"
     showguides="true"
     inkscape:guide-bbox="true"
     inkscape:window-width="1220"
     inkscape:window-height="833"
     inkscape:window-x="56"
     inkscape:window-y="20"
     inkscape:window-maximized="0">
    <inkscape:grid
       type="xygrid"
       id="grid4468"
       empspacing="5"
       visible="true"
       enabled="true"
       snapvisiblegridlinesonly="true" />
    <sodipodi:guide
       orientation="1,0"
       position="0,20"
       id="guide4470" />
    <sodipodi:guide
       orientation="0,1"
       position="4,24"
       id="guide4472" />
    <sodipodi:guide
       orientation="1,0"
       position="24,13"
       id="guide4474" />
    <sodipodi:guide
       orientation="0,1"
       position="15,0"
       id="guide4476" />
    <sodipodi:guide
       orientation="1,0"
       position="23,20"
       id="guide4478" />
    <sodipodi:guide
       orientation="0,1"
       position="20,23"
       id="guide4480" />
    <sodipodi:guide
       orientation="1,0"
       position="2,5"
       id="guide4482" />
    <sodipodi:guide
       orientation="0,1"
       position="7,2"
       id="guide4484" />
  </sodipodi:namedview>
  <metadata
     id="metadata4465">
    <rdf:RDF>
      <cc:Work
         rdf:about="">
        <dc:format>image/svg+xml</dc:format>
        <dc:type
           rdf:resource="http://purl.org/dc/dcmitype/StillImage" />
        <dc:title></dc:title>
      </cc:Work>
    </rdf:RDF>
  </metadata>
  <g
     inkscape:label="Layer 1"
     inkscape:groupmode="layer"
     id="layer1"
     transform="translate(0,-1028.3622)">
    <g
       transform="translate(-84,-238)"
       style="display:inline"
       id="london-underground-24"
       inkscape:label="london-underground-24"
       inkscape:export-xdpi="90"
       inkscape:export-ydpi="90">
      <rect
         y="1266.3622"
         x="84"
         height="24.000017"
         width="24"
         id="rect8831"
         style="opacity:0.5;color:#000000;fill:none;stroke:none;stroke-width:2;marker:none;visibility:visible;display:inline;overflow:visible;enable-background:accumulate" />
      <g
         id="g8833"
         style="display:inline"
         transform="translate(0,-2.6171874e-6)">
        <path
           sodipodi:nodetypes="sccssccscsssscssccsccsc"
           inkscape:connector-curvature="0"
           id="path7879"
           d="m 96.5,1270.3622 c -3.62438,0 -6.64441,2.5824 -7.34375,6 l -1.15625,0 c -0.5,0 -1,0.5 -1,1 l 0,1 c 0,0.5 0.5,1 1,1 l 1.15625,0 c 0.69934,3.4177 3.71937,6 7.34375,6 3.62438,0 6.64441,-2.5823 7.34375,-6 l 1.15625,0 c 0.5,0 1,-0.5 1,-1 l 0,-1 c 0,-0.5 -0.5,-1 -1,-1 l -1.15625,0 c -0.69934,-3.4176 -3.71937,-6 -7.34375,-6 z m 0,2.5 c 2.05647,0 3.86839,1.6577 4.5,3.5 l -9,0 c 0.63161,-1.8423 2.44353,-3.5 4.5,-3.5 z m -4.5,6.5 9,0 c -0.63161,1.8423 -2.44353,3.5 -4.5,3.5 -2.05647,0 -3.86839,-1.6577 -4.5,-3.5 z"
           style="opacity:0.3;color:#000000;fill:#ffffff;fill-opacity:1;fill-rule:nonzero;stroke:#ffffff;stroke-width:2;stroke-linecap:butt;stroke-linejoin:round;stroke-miterlimit:4;stroke-opacity:1;stroke-dasharray:none;stroke-dashoffset:0;marker:none;visibility:visible;display:inline;overflow:visible;enable-background:accumulate" />
        <path
           style="color:#000000;fill:#444444;fill-opacity:1;fill-rule:nonzero;stroke:none;stroke-width:2;marker:none;visibility:visible;display:inline;overflow:visible;enable-background:accumulate"
           d="m 96.5,1270.3622 c -3.62438,0 -6.64441,2.5824 -7.34375,6 l -1.15625,0 c -0.5,0 -1,0.5 -1,1 l 0,1 c 0,0.5 0.5,1 1,1 l 1.15625,0 c 0.69934,3.4177 3.71937,6 7.34375,6 3.62438,0 6.64441,-2.5823 7.34375,-6 l 1.15625,0 c 0.5,0 1,-0.5 1,-1 l 0,-1 c 0,-0.5 -0.5,-1 -1,-1 l -1.15625,0 c -0.69934,-3.4176 -3.71937,-6 -7.34375,-6 z m 0,2.5 c 2.05647,0 3.86839,1.6577 4.5,3.5 l -9,0 c 0.63161,-1.8423 2.44353,-3.5 4.5,-3.5 z m -4.5,6.5 9,0 c -0.63161,1.8423 -2.44353,3.5 -4.5,3.5 -2.05647,0 -3.86839,-1.6577 -4.5,-3.5 z"
           id="path7698-1"
           inkscape:connector-curvature="0"
           sodipodi:nodetypes="sccssccscsssscssccsccsc" />
      </g>
    </g>
  </g>
</svg>
