<?xml version="1.0" encoding="UTF-8" standalone="no"?>
<!-- Created with Inkscape (http://www.inkscape.org/) -->

<svg
   xmlns:dc="http://purl.org/dc/elements/1.1/"
   xmlns:cc="http://creativecommons.org/ns#"
   xmlns:rdf="http://www.w3.org/1999/02/22-rdf-syntax-ns#"
   xmlns:svg="http://www.w3.org/2000/svg"
   xmlns="http://www.w3.org/2000/svg"
   xmlns:sodipodi="http://sodipodi.sourceforge.net/DTD/sodipodi-0.dtd"
   xmlns:inkscape="http://www.inkscape.org/namespaces/inkscape"
   width="12"
   height="12"
   id="svg4764"
   version="1.1"
   inkscape:version="0.48.2 r9819"
   sodipodi:docname="airfield-12.svg">
  <defs
     id="defs4766" />
  <sodipodi:namedview
     id="base"
     pagecolor="#ffffff"
     bordercolor="#666666"
     borderopacity="1.0"
     inkscape:pageopacity="0.0"
     inkscape:pageshadow="2"
     inkscape:zoom="22.627417"
     inkscape:cx="8.7068106"
     inkscape:cy="4.7770366"
     inkscape:document-units="px"
     inkscape:current-layer="layer1"
     showgrid="true"
     showguides="true"
     inkscape:guide-bbox="true"
     inkscape:window-width="957"
     inkscape:window-height="704"
     inkscape:window-x="164"
     inkscape:window-y="265"
     inkscape:window-maximized="0">
    <inkscape:grid
       type="xygrid"
       id="grid4772"
       empspacing="5"
       visible="true"
       enabled="true"
       snapvisiblegridlinesonly="true" />
    <sodipodi:guide
       orientation="0,1"
       position="2,12"
       id="guide4789" />
    <sodipodi:guide
       orientation="1,0"
       position="12,10"
       id="guide4791" />
    <sodipodi:guide
       orientation="0,1"
       position="10,0"
       id="guide4793" />
    <sodipodi:guide
       orientation="1,0"
       position="0,9"
       id="guide4795" />
    <sodipodi:guide
       orientation="0,1"
       position="5,11"
       id="guide4797" />
    <sodipodi:guide
       orientation="1,0"
       position="11,7"
       id="guide4799" />
    <sodipodi:guide
       orientation="0,1"
       position="9,2"
       id="guide4801" />
    <sodipodi:guide
       orientation="1,0"
       position="2,5"
       id="guide4803" />
  </sodipodi:namedview>
  <metadata
     id="metadata4769">
    <rdf:RDF>
      <cc:Work
         rdf:about="">
        <dc:format>image/svg+xml</dc:format>
        <dc:type
           rdf:resource="http://purl.org/dc/dcmitype/StillImage" />
        <dc:title></dc:title>
      </cc:Work>
    </rdf:RDF>
  </metadata>
  <g
     inkscape:label="Layer 1"
     inkscape:groupmode="layer"
     id="layer1"
     transform="translate(0,-1040.3622)">
    <g
       style="display:inline"
       id="london-underground-12"
       transform="translate(-126,-228)"
       inkscape:label="london-underground-12"
       inkscape:export-xdpi="90"
       inkscape:export-ydpi="90">
      <path
         style="opacity:0.3;color:#000000;fill:#ffffff;fill-opacity:1;fill-rule:nonzero;stroke:#ffffff;stroke-width:2;stroke-linecap:butt;stroke-linejoin:round;stroke-miterlimit:4;stroke-opacity:1;stroke-dasharray:none;stroke-dashoffset:0;marker:none;visibility:visible;display:inline;overflow:visible;enable-background:accumulate"
         d="m 132.5,1270.3622 c -1.76528,0 -3.22866,1.301 -3.46875,3 l -1.03125,0 0,1 1.03125,0 c 0.24009,1.699 1.70347,3 3.46875,3 1.76528,0 3.22866,-1.301 3.46875,-3 l 1.03125,0 0,-1 -1.03125,0 c -0.24009,-1.699 -1.70347,-3 -3.46875,-3 z m 0,1.5 c 0.93197,0 1.71554,0.6373 1.9375,1.5 l -3.875,0 c 0.22196,-0.8627 1.00553,-1.5 1.9375,-1.5 z m -1.9375,2.5 3.875,0 c -0.22196,0.8627 -1.00553,1.5 -1.9375,1.5 -0.93197,0 -1.71554,-0.6373 -1.9375,-1.5 z"
         id="path8752"
         inkscape:connector-curvature="0" />
      <rect
         y="1268.3622"
         x="126"
         height="12.000007"
         width="11.999998"
         id="rect22192-14-7"
         style="opacity:0.5;color:#000000;fill:none;stroke:none;stroke-width:2;marker:none;visibility:visible;display:inline;overflow:visible;enable-background:accumulate" />
      <path
         id="path8744"
         d="m 132.5,1270.3622 c -1.76528,0 -3.22866,1.301 -3.46875,3 l -1.03125,0 0,1 1.03125,0 c 0.24009,1.699 1.70347,3 3.46875,3 1.76528,0 3.22866,-1.301 3.46875,-3 l 1.03125,0 0,-1 -1.03125,0 c -0.24009,-1.699 -1.70347,-3 -3.46875,-3 z m 0,1.5 c 0.93197,0 1.71554,0.6373 1.9375,1.5 l -3.875,0 c 0.22196,-0.8627 1.00553,-1.5 1.9375,-1.5 z m -1.9375,2.5 3.875,0 c -0.22196,0.8627 -1.00553,1.5 -1.9375,1.5 -0.93197,0 -1.71554,-0.6373 -1.9375,-1.5 z"
         style="color:#000000;fill:#444444;fill-opacity:1;fill-rule:nonzero;stroke:none;stroke-width:2;marker:none;visibility:visible;display:inline;overflow:visible;enable-background:accumulate"
         inkscape:connector-curvature="0" />
    </g>
  </g>
</svg>
