<?xml version="1.0" encoding="UTF-8" standalone="no"?>
<!-- Created with Inkscape (http://www.inkscape.org/) -->

<svg
   xmlns:dc="http://purl.org/dc/elements/1.1/"
   xmlns:cc="http://creativecommons.org/ns#"
   xmlns:rdf="http://www.w3.org/1999/02/22-rdf-syntax-ns#"
   xmlns:svg="http://www.w3.org/2000/svg"
   xmlns="http://www.w3.org/2000/svg"
   xmlns:sodipodi="http://sodipodi.sourceforge.net/DTD/sodipodi-0.dtd"
   xmlns:inkscape="http://www.inkscape.org/namespaces/inkscape"
   width="18"
   height="18"
   id="svg4619"
   version="1.1"
   inkscape:version="0.48.2 r9819"
   sodipodi:docname="airfield-18.svg">
  <defs
     id="defs4621" />
  <sodipodi:namedview
     id="base"
     pagecolor="#ffffff"
     bordercolor="#666666"
     borderopacity="1.0"
     inkscape:pageopacity="0.0"
     inkscape:pageshadow="2"
     inkscape:zoom="16"
     inkscape:cx="5.9619453"
     inkscape:cy="6.948034"
     inkscape:document-units="px"
     inkscape:current-layer="layer1"
     showgrid="true"
     showguides="true"
     inkscape:guide-bbox="true"
     inkscape:window-width="1008"
     inkscape:window-height="662"
     inkscape:window-x="76"
     inkscape:window-y="40"
     inkscape:window-maximized="0"
     inkscape:snap-bbox="true"
     inkscape:object-paths="true"
     inkscape:snap-nodes="false">
    <inkscape:grid
       type="xygrid"
       id="grid4627"
       empspacing="5"
       visible="true"
       enabled="true"
       snapvisiblegridlinesonly="true" />
    <sodipodi:guide
       orientation="0,1"
       position="7,18"
       id="guide4659" />
    <sodipodi:guide
       orientation="1,0"
       position="18,9"
       id="guide4661" />
    <sodipodi:guide
       orientation="0,1"
       position="16,17"
       id="guide4663" />
    <sodipodi:guide
       orientation="1,0"
       position="17,14"
       id="guide4665" />
    <sodipodi:guide
       orientation="1,0"
       position="0,16"
       id="guide4667" />
    <sodipodi:guide
       orientation="0,1"
       position="8,0"
       id="guide4669" />
    <sodipodi:guide
       orientation="1,0"
       position="2,10"
       id="guide4671" />
    <sodipodi:guide
       orientation="0,1"
       position="12,2"
       id="guide4673" />
  </sodipodi:namedview>
  <metadata
     id="metadata4624">
    <rdf:RDF>
      <cc:Work
         rdf:about="">
        <dc:format>image/svg+xml</dc:format>
        <dc:type
           rdf:resource="http://purl.org/dc/dcmitype/StillImage" />
        <dc:title></dc:title>
      </cc:Work>
    </rdf:RDF>
  </metadata>
  <g
     inkscape:label="Layer 1"
     inkscape:groupmode="layer"
     id="layer1"
     transform="translate(0,-1034.3622)">
    <g
       transform="translate(-108,-232)"
       style="display:inline"
       id="london-underground-18"
       inkscape:label="london-underground-18"
       inkscape:export-xdpi="90"
       inkscape:export-ydpi="90">
      <path
         inkscape:connector-curvature="0"
         id="path12749"
         transform="translate(-120,1050.3622)"
         d="m 237.5,219 c -2.97562,0 -5.43327,2.15859 -5.90625,5 L 230.5,224 c -0.27701,0 -0.5,0.22299 -0.5,0.5 l 0,1 c 0,0.27701 0.22299,0.5 0.5,0.5 l 1.09375,0 c 0.47298,2.84141 2.93063,5 5.90625,5 2.97562,0 5.43327,-2.15859 5.90625,-5 l 1.09375,0 c 0.27701,0 0.5,-0.22299 0.5,-0.5 l 0,-1 c 0,-0.27701 -0.22299,-0.5 -0.5,-0.5 l -1.09375,0 c -0.47298,-2.84141 -2.93063,-5 -5.90625,-5 z m 0,2 c 1.86319,0 3.39908,1.27569 3.84375,3 l -7.6875,0 c 0.44467,-1.72431 1.98056,-3 3.84375,-3 z m -3.84375,5 7.6875,0 c -0.44467,1.72431 -1.98056,3 -3.84375,3 -1.86319,0 -3.39908,-1.27569 -3.84375,-3 z"
         style="opacity:0.3;color:#000000;fill:#ffffff;fill-opacity:1;fill-rule:nonzero;stroke:#ffffff;stroke-width:2;stroke-linecap:butt;stroke-linejoin:round;stroke-miterlimit:4;stroke-opacity:1;stroke-dasharray:none;stroke-dashoffset:0;marker:none;visibility:visible;display:inline;overflow:visible;enable-background:accumulate" />
      <path
         inkscape:connector-curvature="0"
         style="color:#000000;fill:#444444;fill-opacity:1;fill-rule:nonzero;stroke:none;stroke-width:2;marker:none;visibility:visible;display:inline;overflow:visible;enable-background:accumulate"
         d="m 237.5,219 c -2.97562,0 -5.43327,2.15859 -5.90625,5 L 230.5,224 c -0.27701,0 -0.5,0.22299 -0.5,0.5 l 0,1 c 0,0.27701 0.22299,0.5 0.5,0.5 l 1.09375,0 c 0.47298,2.84141 2.93063,5 5.90625,5 2.97562,0 5.43327,-2.15859 5.90625,-5 l 1.09375,0 c 0.27701,0 0.5,-0.22299 0.5,-0.5 l 0,-1 c 0,-0.27701 -0.22299,-0.5 -0.5,-0.5 l -1.09375,0 c -0.47298,-2.84141 -2.93063,-5 -5.90625,-5 z m 0,2 c 1.86319,0 3.39908,1.27569 3.84375,3 l -7.6875,0 c 0.44467,-1.72431 1.98056,-3 3.84375,-3 z m -3.84375,5 7.6875,0 c -0.44467,1.72431 -1.98056,3 -3.84375,3 -1.86319,0 -3.39908,-1.27569 -3.84375,-3 z"
         transform="translate(-120,1050.3622)"
         id="path12671" />
      <rect
         style="opacity:0.5;color:#000000;fill:none;stroke:none;stroke-width:2;marker:none;visibility:visible;display:inline;overflow:visible;enable-background:accumulate"
         id="rect22190-58"
         width="18.000017"
         height="18.000031"
         x="107.99998"
         y="1266.3622" />
      <g
         transform="translate(0,-1)"
         id="g8808" />
    </g>
  </g>
</svg>
