<svg xmlns="http://www.w3.org/2000/svg" width="24" height="24">
    <g transform="translate(0 -1028.362) translate(72 -238)">
        <g color="#000" transform="translate(-72 262)">
            <path d="m 114.49314,304.36219 c -3.22874,0 -6.5,3 -6.5,6.5 0,3.5 5,9.5 6.5,11.5 1.5,-2 6.5,-8 6.5,-11.5 0,-3.5 -3.27126,-6.5 -6.5,-6.5 z m 0,2 c 2.51124,0 4.5,1.77778 4.5,4.5 0,2.72222 -3.33334,6.94444 -4.5,8.5 -1.16666,-1.55556 -4.5,-5.77778 -4.5,-8.5 0,-2.72222 1.98876,-4.5 4.5,-4.5 z" opacity=".3" fill="#fff" stroke="#fff" stroke-width="2" stroke-linejoin="round" overflow="visible" enable-background="accumulate" transform="translate(-101.993 703)"/>
            <path d="m 114.49314,304.36219 c -3.22874,0 -6.5,3 -6.5,6.5 0,3.5 5,9.5 6.5,11.5 1.5,-2 6.5,-8 6.5,-11.5 0,-3.5 -3.27126,-6.5 -6.5,-6.5 z m 0,2 c 2.51124,0 4.5,1.77778 4.5,4.5 0,2.72222 -3.33334,6.94444 -4.5,8.5 -1.16666,-1.55556 -4.5,-5.77778 -4.5,-8.5 0,-2.72222 1.98876,-4.5 4.5,-4.5 z" fill="#444" overflow="visible" enable-background="accumulate" transform="translate(-101.993 703)"/>
        </g>
        <rect width="24" height="24" x="-72" y="1266.362" opacity=".5" color="#000" overflow="visible" enable-background="accumulate" fill="none"/>
    </g>
</svg>
