<svg xmlns="http://www.w3.org/2000/svg" width="18" height="18">
    <g transform="translate(0 -1034.362) translate(48 -232)" color="#000">
        <g>
            <path d="m -38.5,1268.3622 c -2.33186,0 -4.5,2 -4.5,4.5 0,2.5278 3.41667,7.0556 4.5,8.5 1.08334,-1.4444 4.5,-5.9722 4.5,-8.5 0,-2.5 -2.16813,-4.5 -4.5,-4.5 z m 0,1.5 c 1.5,0 3,1.2501 3,3 0,2 -2.249996,5 -3,6 -0.749998,-1 -3,-4 -3,-6 0,-1.7499 1.5,-3 3,-3 z" opacity=".3" fill="#fff" stroke="#fff" stroke-width="2" stroke-linejoin="round" overflow="visible" enable-background="accumulate"/>
            <path d="m -38.5,1268.3622 c -2.33186,0 -4.5,2 -4.5,4.5 0,2.5278 3.41667,7.0556 4.5,8.5 1.08334,-1.4444 4.5,-5.9722 4.5,-8.5 0,-2.5 -2.16813,-4.5 -4.5,-4.5 z m 0,1.5 c 1.5,0 3,1.2501 3,3 0,2 -2.249996,5 -3,6 -0.749998,-1 -3,-4 -3,-6 0,-1.7499 1.5,-3 3,-3 z" fill="#444" overflow="visible" enable-background="accumulate"/>
        </g>
        <rect y="1266.362" x="-48" height="18" width="18" opacity=".5" overflow="visible" enable-background="accumulate" fill="none"/>
    </g>
</svg>
