<svg xmlns="http://www.w3.org/2000/svg" width="24" height="24">
    <g transform="translate(0 -1028.362) translate(-552 -94)" color="#000">
        <g>
            <path transform="translate(-120 1050.362)" d="m 683.5,76 -2.5,7 -6,-4 2,6.5 c 0.45832,1.4895 1,1.5 2,1.5 l 2,0 0,-1 5,0 0,1 2,0 c 1,0 1.50645,-0.4306 2,-1.5 l 2,-6.5 -6,4 -2.5,-7 z m -1.5,11 0,1 c -2.216,0 -4,0.669 -4,1.5 0,0.831 1.784,1.5 4,1.5 l 3,0 c 2.216,0 4,-0.669 4,-1.5 0,-0.831 -1.784,-1.5 -4,-1.5 l 0,-1 -3,0 z" opacity=".3" fill="#fff" stroke="#fff" stroke-width="2" stroke-linecap="round" stroke-linejoin="round" overflow="visible" enable-background="accumulate"/>
            <path d="m 564.5,1126.3622 -2.5,7 -6,-4 2,6.5 c 0.45832,1.4895 1,1.5 2,1.5 l 2,0 0,-1 5,0 0,1 2,0 c 1,0 1.50645,-0.4306 2,-1.5 l 2,-6.5 -6,4 -2.5,-7 z m -1.5,11 0,1 c -2.216,0 -4,0.669 -4,1.5 0,0.831 1.784,1.5 4,1.5 l 3,0 c 2.216,0 4,-0.669 4,-1.5 0,-0.831 -1.784,-1.5 -4,-1.5 l 0,-1 -3,0 z" fill="#444" overflow="visible" enable-background="accumulate"/>
        </g>
        <rect width="24" height="24" x="552" y="1122.362" opacity=".5" overflow="visible" enable-background="accumulate" fill="none"/>
    </g>
</svg>
