<svg xmlns="http://www.w3.org/2000/svg" width="18" height="18">
    <g transform="translate(0 -1034.362) translate(-186 -112)" color="#000">
        <g>
            <path d="m 195.44444,1148.3622 c 0,0 -1.44444,1.7223 -1.44444,2.5 l 0,7.5 -1,0 c -0.43092,0 -1,0.5136 -1,0.9445 l 0,1.5555 -1,0 c -0.5,0 -1,0.5 -1,1 l 0,0.5 11,0 0,-0.5 c 0,-0.5 -0.5,-1 -1,-1 l -1,0 0,-1.5 c 0,-0.5 -0.5,-1 -1,-1 l -1,0 0,-7.5 c 0,-0.7777 -1.55556,-2.5 -1.55556,-2.5 z" opacity=".3" fill="#fff" stroke="#fff" stroke-width="2" stroke-linecap="round" stroke-linejoin="round" overflow="visible" enable-background="accumulate"/>
            <path d="m 195.44444,1148.3622 c 0,0 -1.44444,1.7223 -1.44444,2.5 l 0,7.5 -1,0 c -0.43092,0 -1,0.5136 -1,0.9445 l 0,1.5555 -1,0 c -0.5,0 -1,0.5 -1,1 l 0,0.5 11,0 0,-0.5 c 0,-0.5 -0.5,-1 -1,-1 l -1,0 0,-1.5 c 0,-0.5 -0.5,-1 -1,-1 l -1,0 0,-7.5 c 0,-0.7777 -1.55556,-2.5 -1.55556,-2.5 z" fill="#444" overflow="visible" enable-background="accumulate"/>
        </g>
        <rect width="18" height="18" x="186" y="1146.362" opacity=".5" overflow="visible" enable-background="accumulate" fill="none"/>
    </g>
</svg>
