<svg xmlns="http://www.w3.org/2000/svg" width="12" height="12">
    <g transform="translate(0 -1040.362) translate(-204 -82)" color="#000">
        <g>
            <path d="m 213,1125.3622 -3.5,-2 -3.5,2 0,5 0,1 -1,1 9,0 -1,-1 0,-1 z m -5.5,2 c 0.25,0 0.5,0 0.75,0 0.25,0 0.5,0.5 0.5,0.5 l 0.75,1.5 0.75,-1.5 c 0.13438,-0.2687 0.25,-0.5 0.5,-0.5 0.25,0 0.5,0 0.75,0 0.277,0 0.5,0.223 0.5,0.5 l 0,2.5 c 0,0.25 -0.25,0.5 -0.5,0.5 -0.25,0 -0.5,-0.25 -0.5,-0.5 l 0,-2 -0.75,1.5 c -0.11941,0.2388 -0.25,0.5 -0.75,0.5 -0.5,0 -0.6306,-0.2612 -0.75,-0.5 l -0.75,-1.5 0,2 c 0,0.25 -0.25,0.5 -0.5,0.5 -0.25,0 -0.5,-0.25 -0.5,-0.5 l 0,-0.5 0,-2 c 0,-0.277 0.223,-0.5 0.5,-0.5 z" opacity=".3" fill="#fff" stroke="#fff" stroke-width="2" stroke-linecap="round" stroke-linejoin="round" overflow="visible" enable-background="accumulate" transform="translate(1)"/>
            <path d="m 209.5,1123.3622 -3.5,2 7,0 z m -3,3 c -0.27701,0 -0.5,0.223 -0.5,0.5 l 0,3.5 0,1 -1,1 9,0 -1,-1 0,-1 0,-3.5 c 0,-0.277 -0.223,-0.5 -0.5,-0.5 z m 1,1 c 0.25,0 0.5,0 0.75,0 0.25,0 0.5,0.5 0.5,0.5 l 0.75,1.5 0.75,-1.5 c 0.13438,-0.2687 0.25,-0.5 0.5,-0.5 0.25,0 0.5,0 0.75,0 0.277,0 0.5,0.223 0.5,0.5 l 0,2.5 c 0,0.25 -0.25,0.5 -0.5,0.5 -0.25,0 -0.5,-0.25 -0.5,-0.5 l 0,-2 -0.75,1.5 c -0.11941,0.2388 -0.25,0.5 -0.75,0.5 -0.5,0 -0.6306,-0.2612 -0.75,-0.5 l -0.75,-1.5 0,2 c 0,0.25 -0.25,0.5 -0.5,0.5 -0.25,0 -0.5,-0.25 -0.5,-0.5 l 0,-0.5 0,-2 c 0,-0.277 0.223,-0.5 0.5,-0.5 z" fill="#444" overflow="visible" enable-background="accumulate" transform="translate(1)"/>
        </g>
        <rect y="1122.362" x="204" height="12" width="12" opacity=".5" overflow="visible" enable-background="accumulate" fill="none"/>
    </g>
</svg>
