<?xml version="1.0" encoding="UTF-8" standalone="no"?>
<!-- Created with Inkscape (http://www.inkscape.org/) -->

<svg
   xmlns:dc="http://purl.org/dc/elements/1.1/"
   xmlns:cc="http://creativecommons.org/ns#"
   xmlns:rdf="http://www.w3.org/1999/02/22-rdf-syntax-ns#"
   xmlns:svg="http://www.w3.org/2000/svg"
   xmlns="http://www.w3.org/2000/svg"
   xmlns:sodipodi="http://sodipodi.sourceforge.net/DTD/sodipodi-0.dtd"
   xmlns:inkscape="http://www.inkscape.org/namespaces/inkscape"
   width="12"
   height="12"
   id="svg4764"
   version="1.1"
   inkscape:version="0.48.2 r9819"
   sodipodi:docname="park2-12.svg">
  <defs
     id="defs4766" />
  <sodipodi:namedview
     id="base"
     pagecolor="#ffffff"
     bordercolor="#666666"
     borderopacity="1.0"
     inkscape:pageopacity="0.0"
     inkscape:pageshadow="2"
     inkscape:zoom="22.627417"
     inkscape:cx="8.7068106"
     inkscape:cy="4.7770366"
     inkscape:document-units="px"
     inkscape:current-layer="layer1"
     showgrid="true"
     showguides="true"
     inkscape:guide-bbox="true"
     inkscape:window-width="957"
     inkscape:window-height="704"
     inkscape:window-x="164"
     inkscape:window-y="265"
     inkscape:window-maximized="0">
    <inkscape:grid
       type="xygrid"
       id="grid4772"
       empspacing="5"
       visible="true"
       enabled="true"
       snapvisiblegridlinesonly="true" />
    <sodipodi:guide
       orientation="0,1"
       position="2,12"
       id="guide4789" />
    <sodipodi:guide
       orientation="1,0"
       position="12,10"
       id="guide4791" />
    <sodipodi:guide
       orientation="0,1"
       position="10,0"
       id="guide4793" />
    <sodipodi:guide
       orientation="1,0"
       position="0,9"
       id="guide4795" />
    <sodipodi:guide
       orientation="0,1"
       position="5,11"
       id="guide4797" />
    <sodipodi:guide
       orientation="1,0"
       position="11,7"
       id="guide4799" />
    <sodipodi:guide
       orientation="0,1"
       position="9,2"
       id="guide4801" />
    <sodipodi:guide
       orientation="1,0"
       position="2,6"
       id="guide4803" />
  </sodipodi:namedview>
  <metadata
     id="metadata4769">
    <rdf:RDF>
      <cc:Work
         rdf:about="">
        <dc:format>image/svg+xml</dc:format>
        <dc:type
           rdf:resource="http://purl.org/dc/dcmitype/StillImage" />
        <dc:title></dc:title>
      </cc:Work>
    </rdf:RDF>
  </metadata>
  <g
     inkscape:label="Layer 1"
     inkscape:groupmode="layer"
     id="layer1"
     transform="translate(0,-1040.3622)">
    <g
       style="display:inline"
       id="museum-12"
       inkscape:label="museum-12"
       inkscape:export-xdpi="89.996864"
       inkscape:export-ydpi="89.996864"
       transform="translate(-204,-82)">
      <g
         id="g21713"
         transform="translate(1,0)">
        <path
           style="opacity:0.3;color:#000000;fill:#ffffff;stroke:#ffffff;stroke-width:2;stroke-linecap:round;stroke-linejoin:round;stroke-miterlimit:4;stroke-opacity:1;stroke-dasharray:none;stroke-dashoffset:0;marker:none;visibility:visible;display:inline;overflow:visible;enable-background:accumulate"
           d="m 213,1125.3622 -3.5,-2 -3.5,2 0,5 0,1 -1,1 9,0 -1,-1 0,-1 z m -5.5,2 c 0.25,0 0.5,0 0.75,0 0.25,0 0.5,0.5 0.5,0.5 l 0.75,1.5 0.75,-1.5 c 0.13438,-0.2687 0.25,-0.5 0.5,-0.5 0.25,0 0.5,0 0.75,0 0.277,0 0.5,0.223 0.5,0.5 l 0,2.5 c 0,0.25 -0.25,0.5 -0.5,0.5 -0.25,0 -0.5,-0.25 -0.5,-0.5 l 0,-2 -0.75,1.5 c -0.11941,0.2388 -0.25,0.5 -0.75,0.5 -0.5,0 -0.6306,-0.2612 -0.75,-0.5 l -0.75,-1.5 0,2 c 0,0.25 -0.25,0.5 -0.5,0.5 -0.25,0 -0.5,-0.25 -0.5,-0.5 l 0,-0.5 0,-2 c 0,-0.277 0.223,-0.5 0.5,-0.5 z"
           id="path9458"
           inkscape:connector-curvature="0"
           sodipodi:nodetypes="ccccccccccccccsccsssscssscssscsc" />
        <path
           sodipodi:nodetypes="ccccssccccccsssccccsccsssscssscssscsc"
           inkscape:connector-curvature="0"
           id="rect7645-6-5-0-0"
           d="m 209.5,1123.3622 -3.5,2 7,0 z m -3,3 c -0.27701,0 -0.5,0.223 -0.5,0.5 l 0,3.5 0,1 -1,1 9,0 -1,-1 0,-1 0,-3.5 c 0,-0.277 -0.223,-0.5 -0.5,-0.5 z m 1,1 c 0.25,0 0.5,0 0.75,0 0.25,0 0.5,0.5 0.5,0.5 l 0.75,1.5 0.75,-1.5 c 0.13438,-0.2687 0.25,-0.5 0.5,-0.5 0.25,0 0.5,0 0.75,0 0.277,0 0.5,0.223 0.5,0.5 l 0,2.5 c 0,0.25 -0.25,0.5 -0.5,0.5 -0.25,0 -0.5,-0.25 -0.5,-0.5 l 0,-2 -0.75,1.5 c -0.11941,0.2388 -0.25,0.5 -0.75,0.5 -0.5,0 -0.6306,-0.2612 -0.75,-0.5 l -0.75,-1.5 0,2 c 0,0.25 -0.25,0.5 -0.5,0.5 -0.25,0 -0.5,-0.25 -0.5,-0.5 l 0,-0.5 0,-2 c 0,-0.277 0.223,-0.5 0.5,-0.5 z"
           style="color:#000000;fill:#444444;fill-opacity:1;fill-rule:nonzero;stroke:none;stroke-width:1;marker:none;visibility:visible;display:inline;overflow:visible;enable-background:accumulate" />
      </g>
      <rect
         y="1122.3622"
         x="204"
         height="12.000007"
         width="11.999998"
         id="rect22246"
         style="opacity:0.5;color:#000000;fill:none;stroke:none;stroke-width:2;marker:none;visibility:visible;display:inline;overflow:visible;enable-background:accumulate" />
    </g>
  </g>
</svg>
