<svg xmlns="http://www.w3.org/2000/svg" width="12" height="12">
    <g transform="matrix(.5 0 0 .5 -198 -645.181)">
        <path transform="matrix(2 0 0 2 -720 810.362)" d="m 563,242 0,5.5 -0.5,0 c -0.82843,0 -1.5,0.67155 -1.5,1.5 0,0.82845 0.67157,1.5 1.5,1.5 0.82842,0 1.5,-0.67155 1.5,-1.5 l 0,-4 3,0 0,2.5 -0.5,0 c -0.82842,0 -1.5,0.67155 -1.5,1.5 0,0.82845 0.67157,1.5 1.5,1.5 0.82842,0 1.5,-0.67155 1.5,-1.5 l 0,-7 -5,0 z" opacity=".3" color="#000" fill="#fff" stroke="#fff" stroke-width="2" stroke-linecap="round" stroke-linejoin="round" overflow="visible" enable-background="accumulate"/>
        <rect y="1290.362" x="396" height="24" width="24" color="#000" overflow="visible" enable-background="accumulate" fill="none"/>
        <path d="m 563,242 0,5.5 -0.5,0 c -0.82843,0 -1.5,0.67155 -1.5,1.5 0,0.82845 0.67157,1.5 1.5,1.5 0.82842,0 1.5,-0.67155 1.5,-1.5 l 0,-4 3,0 0,2.5 -0.5,0 c -0.82842,0 -1.5,0.67155 -1.5,1.5 0,0.82845 0.67157,1.5 1.5,1.5 0.82842,0 1.5,-0.67155 1.5,-1.5 l 0,-7 -5,0 z" transform="matrix(2 0 0 2 -720 810.362)" fill="#454545"/>
    </g>
</svg>
