<svg xmlns="http://www.w3.org/2000/svg" width="24" height="24">
    <g transform="translate(0 -1028.362) translate(-396 -262)">
        <rect width="24" height="24" x="396" y="1290.362" color="#000" overflow="visible" enable-background="accumulate" fill="none"/>
        <g transform="translate(1)">
            <path transform="translate(-121 1050.362)" d="m 526,244 c -0.5,0 -1,0.5 -1,1 l 0,10 -1,0 c -1.65685,0 -3,1.3431 -3,3 0,1.6569 1.34315,3 3,3 1.65684,0 3,-1.3431 3,-3 l 0,-9 7,0 0,6 -1,0 c -1.65685,0 -3,1.3431 -3,3 0,1.6569 1.34315,3 3,3 1.65685,0 3,-1.3431 3,-3 l 0,-13 c 0,-0.5 -0.5,-1 -1,-1 l -9,0 z" opacity=".3" color="#000" fill="#fff" stroke="#fff" stroke-width="2" stroke-linecap="round" stroke-linejoin="round" overflow="visible" enable-background="accumulate"/>
            <path d="m 526,244 c -0.5,0 -1,0.5 -1,1 l 0,10 -1,0 c -1.65685,0 -3,1.3431 -3,3 0,1.6569 1.34315,3 3,3 1.65684,0 3,-1.3431 3,-3 l 0,-9 7,0 0,6 -1,0 c -1.65685,0 -3,1.3431 -3,3 0,1.6569 1.34315,3 3,3 1.65685,0 3,-1.3431 3,-3 l 0,-13 c 0,-0.5 -0.5,-1 -1,-1 l -9,0 z" transform="translate(-121 1050.362)" fill="#454545"/>
        </g>
    </g>
</svg>
