<?xml version="1.0" encoding="UTF-8" standalone="no"?>
<!-- Created with Inkscape (http://www.inkscape.org/) -->

<svg
   xmlns:dc="http://purl.org/dc/elements/1.1/"
   xmlns:cc="http://creativecommons.org/ns#"
   xmlns:rdf="http://www.w3.org/1999/02/22-rdf-syntax-ns#"
   xmlns:svg="http://www.w3.org/2000/svg"
   xmlns="http://www.w3.org/2000/svg"
   xmlns:sodipodi="http://sodipodi.sourceforge.net/DTD/sodipodi-0.dtd"
   xmlns:inkscape="http://www.inkscape.org/namespaces/inkscape"
   width="24"
   height="24"
   id="svg4460"
   version="1.1"
   inkscape:version="0.48.2 r9819"
   sodipodi:docname="slaughterhouse-24.svg">
  <defs
     id="defs4462" />
  <sodipodi:namedview
     id="base"
     pagecolor="#ffffff"
     bordercolor="#666666"
     borderopacity="1.0"
     inkscape:pageopacity="0.0"
     inkscape:pageshadow="2"
     inkscape:zoom="11.313708"
     inkscape:cx="15.622727"
     inkscape:cy="6.9146856"
     inkscape:document-units="px"
     inkscape:current-layer="layer1"
     showgrid="true"
     showguides="true"
     inkscape:guide-bbox="true"
     inkscape:window-width="1220"
     inkscape:window-height="833"
     inkscape:window-x="38"
     inkscape:window-y="82"
     inkscape:window-maximized="0"
     inkscape:snap-bbox="true"
     inkscape:snap-nodes="false">
    <inkscape:grid
       type="xygrid"
       id="grid4468"
       empspacing="5"
       visible="true"
       enabled="true"
       snapvisiblegridlinesonly="true"
       spacingx="1px"
       spacingy="1px" />
    <sodipodi:guide
       orientation="1,0"
       position="0,20"
       id="guide4470" />
    <sodipodi:guide
       orientation="0,1"
       position="4,24"
       id="guide4472" />
    <sodipodi:guide
       orientation="1,0"
       position="24,13"
       id="guide4474" />
    <sodipodi:guide
       orientation="0,1"
       position="15,0"
       id="guide4476" />
    <sodipodi:guide
       orientation="1,0"
       position="23,20"
       id="guide4478" />
    <sodipodi:guide
       orientation="0,1"
       position="20,23"
       id="guide4480" />
    <sodipodi:guide
       orientation="1,0"
       position="2,5"
       id="guide4482" />
    <sodipodi:guide
       orientation="0,1"
       position="7,2"
       id="guide4484" />
    <sodipodi:guide
       orientation="1,0"
       position="13,16"
       id="guide4486" />
    <sodipodi:guide
       orientation="0,1"
       position="16,13"
       id="guide4490" />
  </sodipodi:namedview>
  <metadata
     id="metadata4465">
    <rdf:RDF>
      <cc:Work
         rdf:about="">
        <dc:format>image/svg+xml</dc:format>
        <dc:type
           rdf:resource="http://purl.org/dc/dcmitype/StillImage" />
        <dc:title></dc:title>
      </cc:Work>
    </rdf:RDF>
  </metadata>
  <g
     inkscape:label="Layer 1"
     inkscape:groupmode="layer"
     id="layer1"
     transform="translate(0,-1028.3622)">
    <g
       style="display:inline"
       id="oil-well-24"
       transform="translate(-476,-237.99998)"
       inkscape:label="oil-well-24"
       inkscape:export-xdpi="89.996864"
       inkscape:export-ydpi="89.996864">
      <g
         transform="translate(2,0)"
         id="g7345">
        <path
           sodipodi:nodetypes="cccsscccccsscccccccccccccccccc"
           id="path5656"
           d="m 484.5,1269.3622 c -0.5,0 -0.84615,0.5 -1,1 l -5.34375,15.9688 c -0.038,0.1133 -0.15625,0.4166 -0.15625,0.5312 0,0.5 0.5,0.5 1,0.5 0.5,0 0.97049,0 1.15625,-0.5 l 0.84375,-2.25 5.5,-2.75 5.5,2.75 0.84375,2.25 c 0.18576,0.5 0.65625,0.5 1.15625,0.5 0.5,0 1,0 1,-0.5 0,-0.1146 -0.11823,-0.418 -0.15625,-0.5312 L 489.5,1270.3622 c -0.15385,-0.5 -0.5,-1 -1,-1 z m 4.5,7 0.6875,1.9063 -3.1875,1.5937 -3.1875,-1.5937 0.6875,-1.9063 z m -6.3125,3.5938 1.8125,0.9062 -2.625,1.3125 z m 7.625,0 0.8125,2.2187 -2.625,-1.3125 z"
           style="opacity:0.3;color:#000000;fill:#ffffff;fill-opacity:1;fill-rule:nonzero;stroke:#ffffff;stroke-width:2;stroke-linecap:round;stroke-linejoin:round;stroke-miterlimit:4;stroke-opacity:1;stroke-dasharray:none;stroke-dashoffset:0;marker:none;visibility:visible;display:inline;overflow:visible;enable-background:accumulate"
           inkscape:connector-curvature="0" />
        <path
           inkscape:connector-curvature="0"
           style="color:#000000;fill:#444444;fill-opacity:1;fill-rule:nonzero;stroke:none;stroke-width:2;marker:none;visibility:visible;display:inline;overflow:visible;enable-background:accumulate"
           d="m 484.5,1269.3622 c -0.5,0 -0.84615,0.5 -1,1 l -5.34375,15.9688 c -0.038,0.1133 -0.15625,0.4166 -0.15625,0.5312 0,0.5 0.5,0.5 1,0.5 0.5,0 0.97049,0 1.15625,-0.5 l 0.84375,-2.25 5.5,-2.75 5.5,2.75 0.84375,2.25 c 0.18576,0.5 0.65625,0.5 1.15625,0.5 0.5,0 1,0 1,-0.5 0,-0.1146 -0.11823,-0.418 -0.15625,-0.5312 L 489.5,1270.3622 c -0.15385,-0.5 -0.5,-1 -1,-1 z m 4.5,7 0.6875,1.9063 -3.1875,1.5937 -3.1875,-1.5937 0.6875,-1.9063 z m -6.3125,3.5938 1.8125,0.9062 -2.625,1.3125 z m 7.625,0 0.8125,2.2187 -2.625,-1.3125 z"
           id="path6960-9"
           sodipodi:nodetypes="cccsscccccsscccccccccccccccccc" />
      </g>
      <rect
         style="opacity:0.5;color:#000000;fill:none;stroke:none;stroke-width:2;marker:none;visibility:visible;display:inline;overflow:visible;enable-background:accumulate"
         id="rect7313"
         width="24"
         height="24.000017"
         x="476"
         y="1266.3622" />
    </g>
  </g>
</svg>
