<?xml version="1.0" encoding="UTF-8" standalone="no"?>
<!-- Created with Inkscape (http://www.inkscape.org/) -->

<svg
   xmlns:dc="http://purl.org/dc/elements/1.1/"
   xmlns:cc="http://creativecommons.org/ns#"
   xmlns:rdf="http://www.w3.org/1999/02/22-rdf-syntax-ns#"
   xmlns:svg="http://www.w3.org/2000/svg"
   xmlns="http://www.w3.org/2000/svg"
   xmlns:sodipodi="http://sodipodi.sourceforge.net/DTD/sodipodi-0.dtd"
   xmlns:inkscape="http://www.inkscape.org/namespaces/inkscape"
   width="12"
   height="12"
   id="svg4764"
   version="1.1"
   inkscape:version="0.48.2 r9819"
   sodipodi:docname="slaughterhouse-12.svg">
  <defs
     id="defs4766" />
  <sodipodi:namedview
     id="base"
     pagecolor="#ffffff"
     bordercolor="#666666"
     borderopacity="1.0"
     inkscape:pageopacity="0.0"
     inkscape:pageshadow="2"
     inkscape:zoom="22.627417"
     inkscape:cx="5.4435686"
     inkscape:cy="2.8129693"
     inkscape:document-units="px"
     inkscape:current-layer="layer1"
     showgrid="true"
     showguides="true"
     inkscape:guide-bbox="true"
     inkscape:window-width="1307"
     inkscape:window-height="902"
     inkscape:window-x="30"
     inkscape:window-y="249"
     inkscape:window-maximized="0"
     inkscape:snap-bbox="true"
     inkscape:snap-nodes="false">
    <inkscape:grid
       type="xygrid"
       id="grid4772"
       empspacing="5"
       visible="true"
       enabled="true"
       snapvisiblegridlinesonly="true"
       spacingx="1px"
       spacingy="1px" />
    <sodipodi:guide
       orientation="0,1"
       position="2,12"
       id="guide4789" />
    <sodipodi:guide
       orientation="1,0"
       position="12,10"
       id="guide4791" />
    <sodipodi:guide
       orientation="0,1"
       position="10,0"
       id="guide4793" />
    <sodipodi:guide
       orientation="1,0"
       position="0,9"
       id="guide4795" />
    <sodipodi:guide
       orientation="0,1"
       position="5,11"
       id="guide4797" />
    <sodipodi:guide
       orientation="1,0"
       position="11,7"
       id="guide4799" />
    <sodipodi:guide
       orientation="0,1"
       position="9,2"
       id="guide4801" />
    <sodipodi:guide
       orientation="1,0"
       position="2,5"
       id="guide4803" />
  </sodipodi:namedview>
  <metadata
     id="metadata4769">
    <rdf:RDF>
      <cc:Work
         rdf:about="">
        <dc:format>image/svg+xml</dc:format>
        <dc:type
           rdf:resource="http://purl.org/dc/dcmitype/StillImage" />
        <dc:title></dc:title>
      </cc:Work>
    </rdf:RDF>
  </metadata>
  <g
     inkscape:label="Layer 1"
     inkscape:groupmode="layer"
     id="layer1"
     transform="translate(0,-1040.3622)">
    <g
       style="display:inline"
       id="oil-well-12"
       transform="translate(-518,-225.99998)"
       inkscape:label="oil-well-12"
       inkscape:export-xdpi="89.996864"
       inkscape:export-ydpi="89.996864">
      <g
         transform="translate(2,-3)"
         id="g7337">
        <path
           sodipodi:nodetypes="ccccccccccccccccccccccccccccccccccccccccc"
           inkscape:connector-curvature="0"
           id="path6518"
           d="m 521,1270.3622 -3,9 1,0 0.5,0 0.5,-1.5312 2.5,-1.4688 2.5,1.4688 0.5,1.5312 1.5,0 -3,-9 z m 0.5,3 2,0 0.5,1.5313 -0.71875,0.4687 -0.28125,0 0,0.1875 -0.5,0.3125 -0.5,-0.3125 0,-0.1875 -0.28125,0 L 521,1274.8935 z m -0.78125,2.375 0.28125,0.125 0.5,0.25 -0.5,0.25 -0.59375,0.3125 0.0937,-0.3125 0,-0.5 0.1875,0 z m 3.5625,0 0.0312,0.125 0.1875,0 0,0.5 0.0937,0.3125 -0.59365,-0.3125 -0.5,-0.25 0.5,-0.25 z"
           style="opacity:0.3;color:#000000;fill:#ffffff;fill-opacity:1;fill-rule:nonzero;stroke:#ffffff;stroke-width:2;stroke-linecap:round;stroke-linejoin:round;stroke-miterlimit:4;stroke-opacity:1;stroke-dasharray:none;stroke-dashoffset:0;marker:none;visibility:visible;display:inline;overflow:visible;enable-background:accumulate" />
        <path
           style="color:#000000;fill:#444444;fill-opacity:1;fill-rule:nonzero;stroke:none;stroke-width:2;marker:none;visibility:visible;display:inline;overflow:visible;enable-background:accumulate"
           d="m 521,1270.3622 -3,9 1,0 0.5,0 0.5,-1.5312 2.5,-1.4688 2.5,1.4688 0.5,1.5312 1.5,0 -3,-9 z m 0.5,3 2,0 0.5,1.5313 -0.71875,0.4687 -0.28125,0 0,0.1875 -0.5,0.3125 -0.5,-0.3125 0,-0.1875 -0.28125,0 L 521,1274.8935 z m -0.78125,2.375 0.28125,0.125 0.5,0.25 -0.5,0.25 -0.59375,0.3125 0.0937,-0.3125 0,-0.5 0.1875,0 z m 3.5625,0 0.0312,0.125 0.1875,0 0,0.5 0.0937,0.3125 -0.59365,-0.3125 -0.5,-0.25 0.5,-0.25 z"
           id="path6462"
           inkscape:connector-curvature="0"
           sodipodi:nodetypes="ccccccccccccccccccccccccccccccccccccccccc" />
      </g>
      <rect
         style="opacity:0.5;color:#000000;fill:none;stroke:none;stroke-width:2;marker:none;visibility:visible;display:inline;overflow:visible;enable-background:accumulate"
         id="rect7317"
         width="11.999998"
         height="12.000007"
         x="518"
         y="1266.3622" />
    </g>
  </g>
</svg>
