<svg xmlns="http://www.w3.org/2000/svg" width="12" height="12">
    <g transform="translate(0 -1040.362) translate(-518 -226)" color="#000">
        <g>
            <path d="m 521,1270.3622 -3,9 1,0 0.5,0 0.5,-1.5312 2.5,-1.4688 2.5,1.4688 0.5,1.5312 1.5,0 -3,-9 z m 0.5,3 2,0 0.5,1.5313 -0.71875,0.4687 -0.28125,0 0,0.1875 -0.5,0.3125 -0.5,-0.3125 0,-0.1875 -0.28125,0 L 521,1274.8935 z m -0.78125,2.375 0.28125,0.125 0.5,0.25 -0.5,0.25 -0.59375,0.3125 0.0937,-0.3125 0,-0.5 0.1875,0 z m 3.5625,0 0.0312,0.125 0.1875,0 0,0.5 0.0937,0.3125 -0.59365,-0.3125 -0.5,-0.25 0.5,-0.25 z" opacity=".3" fill="#fff" stroke="#fff" stroke-width="2" stroke-linecap="round" stroke-linejoin="round" overflow="visible" enable-background="accumulate" transform="translate(2 -3)"/>
            <path d="m 521,1270.3622 -3,9 1,0 0.5,0 0.5,-1.5312 2.5,-1.4688 2.5,1.4688 0.5,1.5312 1.5,0 -3,-9 z m 0.5,3 2,0 0.5,1.5313 -0.71875,0.4687 -0.28125,0 0,0.1875 -0.5,0.3125 -0.5,-0.3125 0,-0.1875 -0.28125,0 L 521,1274.8935 z m -0.78125,2.375 0.28125,0.125 0.5,0.25 -0.5,0.25 -0.59375,0.3125 0.0937,-0.3125 0,-0.5 0.1875,0 z m 3.5625,0 0.0312,0.125 0.1875,0 0,0.5 0.0937,0.3125 -0.59365,-0.3125 -0.5,-0.25 0.5,-0.25 z" fill="#444" overflow="visible" enable-background="accumulate" transform="translate(2 -3)"/>
        </g>
        <rect width="12" height="12" x="518" y="1266.362" opacity=".5" overflow="visible" enable-background="accumulate" fill="none"/>
    </g>
</svg>
