<?xml version="1.0" encoding="UTF-8" standalone="no"?>
<!-- Created with Inkscape (http://www.inkscape.org/) -->

<svg
   xmlns:dc="http://purl.org/dc/elements/1.1/"
   xmlns:cc="http://creativecommons.org/ns#"
   xmlns:rdf="http://www.w3.org/1999/02/22-rdf-syntax-ns#"
   xmlns:svg="http://www.w3.org/2000/svg"
   xmlns="http://www.w3.org/2000/svg"
   xmlns:sodipodi="http://sodipodi.sourceforge.net/DTD/sodipodi-0.dtd"
   xmlns:inkscape="http://www.inkscape.org/namespaces/inkscape"
   width="12"
   height="12"
   id="svg4764"
   version="1.1"
   inkscape:version="0.48.2 r9819"
   sodipodi:docname="fuel-12.svg">
  <defs
     id="defs4766" />
  <sodipodi:namedview
     id="base"
     pagecolor="#ffffff"
     bordercolor="#666666"
     borderopacity="1.0"
     inkscape:pageopacity="0.0"
     inkscape:pageshadow="2"
     inkscape:zoom="22.627417"
     inkscape:cx="8.7068106"
     inkscape:cy="4.7770366"
     inkscape:document-units="px"
     inkscape:current-layer="layer1"
     showgrid="true"
     showguides="true"
     inkscape:guide-bbox="true"
     inkscape:window-width="957"
     inkscape:window-height="704"
     inkscape:window-x="164"
     inkscape:window-y="265"
     inkscape:window-maximized="0">
    <inkscape:grid
       type="xygrid"
       id="grid4772"
       empspacing="5"
       visible="true"
       enabled="true"
       snapvisiblegridlinesonly="true" />
    <sodipodi:guide
       orientation="0,1"
       position="2,12"
       id="guide4789" />
    <sodipodi:guide
       orientation="1,0"
       position="12,10"
       id="guide4791" />
    <sodipodi:guide
       orientation="0,1"
       position="10,0"
       id="guide4793" />
    <sodipodi:guide
       orientation="1,0"
       position="0,9"
       id="guide4795" />
    <sodipodi:guide
       orientation="0,1"
       position="5,11"
       id="guide4797" />
    <sodipodi:guide
       orientation="1,0"
       position="11,7"
       id="guide4799" />
    <sodipodi:guide
       orientation="0,1"
       position="9,2"
       id="guide4801" />
    <sodipodi:guide
       orientation="1,0"
       position="2,5"
       id="guide4803" />
  </sodipodi:namedview>
  <metadata
     id="metadata4769">
    <rdf:RDF>
      <cc:Work
         rdf:about="">
        <dc:format>image/svg+xml</dc:format>
        <dc:type
           rdf:resource="http://purl.org/dc/dcmitype/StillImage" />
        <dc:title></dc:title>
      </cc:Work>
    </rdf:RDF>
  </metadata>
  <g
     inkscape:label="Layer 1"
     inkscape:groupmode="layer"
     id="layer1"
     transform="translate(0,-1040.3622)">
    <g
       transform="translate(-126,-178)"
       style="display:inline"
       id="parking-12"
       inkscape:label="parking-12"
       inkscape:export-xdpi="89.996864"
       inkscape:export-ydpi="89.996864">
      <rect
         style="color:#000000;fill:#ffffff;fill-opacity:0;fill-rule:nonzero;stroke:none;stroke-width:2;marker:none;visibility:visible;display:inline;overflow:visible;enable-background:accumulate"
         id="rect3537"
         width="12"
         height="12"
         x="126"
         y="1218.3622" />
      <g
         id="text3539-7"
         style="font-size:9.33333302px;font-style:normal;font-variant:normal;font-weight:bold;font-stretch:normal;text-indent:0;text-align:center;text-decoration:none;line-height:125%;letter-spacing:normal;word-spacing:normal;text-transform:none;direction:ltr;block-progression:tb;writing-mode:lr-tb;text-anchor:middle;color:#000000;fill:#444444;fill-opacity:1;fill-rule:nonzero;stroke:none;stroke-width:2;marker:none;visibility:visible;display:inline;overflow:visible;enable-background:accumulate;font-family:Open Sans;-inkscape-font-specification:Open Sans Bold">
        <path
           d="m 132.31641,1224.1682 0.46484,0 c 0.43446,0 0.75955,-0.085 0.97526,-0.2552 0.21571,-0.1732 0.32356,-0.4238 0.32357,-0.7519 -1e-5,-0.3312 -0.0911,-0.5758 -0.27344,-0.7338 -0.17926,-0.158 -0.46181,-0.2369 -0.84766,-0.237 l -0.64257,0 0,1.9779 m 3.1901,-1.0573 c -1e-5,0.717 -0.22483,1.2654 -0.67448,1.6452 -0.44662,0.3798 -1.08312,0.5697 -1.9095,0.5697 l -0.60612,0 0,2.3698 -1.41276,0 0,-6.6628 2.12825,0 c 0.80816,0 1.42187,0.1747 1.84115,0.5241 0.4223,0.3463 0.63345,0.8644 0.63346,1.554"
           style="opacity:0.3;color:#000000;fill:#ffffff;fill-opacity:1;fill-rule:nonzero;stroke:#ffffff;stroke-width:2;stroke-linecap:butt;stroke-linejoin:round;stroke-miterlimit:4;stroke-opacity:1;stroke-dasharray:none;stroke-dashoffset:0;marker:none;visibility:visible;display:inline;overflow:visible;enable-background:accumulate"
           id="path4078"
           inkscape:connector-curvature="0" />
        <path
           id="path5034"
           style="marker:none"
           d="m 132.31641,1224.1682 0.46484,0 c 0.43446,0 0.75955,-0.085 0.97526,-0.2552 0.21571,-0.1732 0.32356,-0.4238 0.32357,-0.7519 -1e-5,-0.3312 -0.0911,-0.5758 -0.27344,-0.7338 -0.17926,-0.158 -0.46181,-0.2369 -0.84766,-0.237 l -0.64257,0 0,1.9779 m 3.1901,-1.0573 c -1e-5,0.717 -0.22483,1.2654 -0.67448,1.6452 -0.44662,0.3798 -1.08312,0.5697 -1.9095,0.5697 l -0.60612,0 0,2.3698 -1.41276,0 0,-6.6628 2.12825,0 c 0.80816,0 1.42187,0.1747 1.84115,0.5241 0.4223,0.3463 0.63345,0.8644 0.63346,1.554"
           inkscape:connector-curvature="0" />
      </g>
    </g>
  </g>
</svg>
