<svg xmlns="http://www.w3.org/2000/svg" width="24" height="24">
    <g transform="translate(0 -1028.362) translate(-162 -22)">
        <g color="#000" transform="translate(162 23)">
            <path d="m 12.5,1030.3622 -5.5,5 3,0 -4,4 3,0 -3,4 5,0 0,3 0,0.5 0,0.5 c 0,0.554 0.446,1 1,1 l 1,0 c 0.554,0 1,-0.446 1,-1 l 0,-0.5 0,-0.5 0,-3 5,0 -3,-4 3,0 -4,-4 3,0 -5.5,-5 z" opacity=".3" stroke="#fff" stroke-width="2" stroke-linecap="round" stroke-linejoin="round" overflow="visible" enable-background="accumulate" fill="none"/>
            <path d="m 12.5,1030.3622 -5.5,5 3,0 -4,4 3,0 -3,4 5,0 0,3 0,0.5 0,0.5 c 0,0.554 0.446,1 1,1 l 1,0 c 0.554,0 1,-0.446 1,-1 l 0,-0.5 0,-0.5 0,-3 5,0 -3,-4 3,0 -1,-1 -3,-3 3,0 z" fill="#444" overflow="visible" enable-background="accumulate"/>
        </g>
        <rect width="24" height="24" x="162" y="1050.362" opacity=".5" color="#000" overflow="visible" enable-background="accumulate" fill="none"/>
    </g>
</svg>
