<svg xmlns="http://www.w3.org/2000/svg" width="24" height="24">
    <g transform="translate(0 -1028.362) translate(-162 -46)" color="#000">
        <g>
            <path d="m 52,1085.8622 c 0,-1.0701 -0.679778,-1.9871 -1.625,-2.3437 0.39454,-0.442 0.625,-1.0172 0.625,-1.6563 0,-1.3807 -1.119288,-2.5 -2.5,-2.5 -0.196751,0 -0.378848,0.019 -0.5625,0.062 -0.209307,-1.1692 -1.208135,-2.0625 -2.4375,-2.0622 -1.229365,2e-4 -2.228193,0.8935 -2.4375,2.0627 -0.183652,-0.043 -0.365749,-0.062 -0.5625,-0.062 -1.380712,0 -2.5,1.1193 -2.5,2.5 0,0.6391 0.23046,1.2143 0.625,1.6563 -0.945222,0.3566 -1.625,1.2731 -1.625,2.3432 0,1.3807 1,2.5005 2.5,2.5005 l 0.5,0 2,3.5 0,3.4995 3,0 0,-3.5 2,-3.4995 0.71875,-0.015 C 51,1088.3622 52,1087.1672 52,1085.8622 z m -8,2.5 3,0 -1,2 -1,0 z" opacity=".3" fill="#fff" stroke="#fff" stroke-width="2" overflow="visible" enable-background="accumulate" transform="translate(129)"/>
            <path d="m 52,1085.8622 c 0,-1.0701 -0.679778,-1.9871 -1.625,-2.3437 0.39454,-0.442 0.625,-1.0172 0.625,-1.6563 0,-1.3807 -1.119288,-2.5 -2.5,-2.5 -0.196751,0 -0.378848,0.019 -0.5625,0.062 -0.209307,-1.1692 -1.208135,-2.0625 -2.4375,-2.0622 -1.229365,2e-4 -2.228193,0.8935 -2.4375,2.0627 -0.183652,-0.043 -0.365749,-0.062 -0.5625,-0.062 -1.380712,0 -2.5,1.1193 -2.5,2.5 0,0.6391 0.23046,1.2143 0.625,1.6563 -0.945222,0.3566 -1.625,1.2731 -1.625,2.3432 0,1.3807 1,2.5005 2.5,2.5005 l 0.5,0 2,3.5 0,3.4995 3,0 0,-3.5 2,-3.4995 0.71875,-0.015 C 51,1088.3622 52,1087.1672 52,1085.8622 z m -8,2.5 3,0 -1,2 -1,0 z" fill="#444" overflow="visible" enable-background="accumulate" transform="translate(129)"/>
        </g>
        <rect width="24" height="24" x="162" y="1074.362" opacity=".5" overflow="visible" enable-background="accumulate" fill="none"/>
    </g>
</svg>
