<?xml version="1.0" encoding="UTF-8" standalone="no"?>
<!-- Created with Inkscape (http://www.inkscape.org/) -->

<svg
   xmlns:dc="http://purl.org/dc/elements/1.1/"
   xmlns:cc="http://creativecommons.org/ns#"
   xmlns:rdf="http://www.w3.org/1999/02/22-rdf-syntax-ns#"
   xmlns:svg="http://www.w3.org/2000/svg"
   xmlns="http://www.w3.org/2000/svg"
   xmlns:sodipodi="http://sodipodi.sourceforge.net/DTD/sodipodi-0.dtd"
   xmlns:inkscape="http://www.inkscape.org/namespaces/inkscape"
   width="24"
   height="24"
   id="svg4460"
   version="1.1"
   inkscape:version="0.48.2 r9819"
   sodipodi:docname="fuel-24.svg">
  <defs
     id="defs4462" />
  <sodipodi:namedview
     id="base"
     pagecolor="#ffffff"
     bordercolor="#666666"
     borderopacity="1.0"
     inkscape:pageopacity="0.0"
     inkscape:pageshadow="2"
     inkscape:zoom="11.313708"
     inkscape:cx="15.622727"
     inkscape:cy="-0.15638252"
     inkscape:document-units="px"
     inkscape:current-layer="layer1"
     showgrid="true"
     showguides="true"
     inkscape:guide-bbox="true"
     inkscape:window-width="1220"
     inkscape:window-height="833"
     inkscape:window-x="56"
     inkscape:window-y="20"
     inkscape:window-maximized="0">
    <inkscape:grid
       type="xygrid"
       id="grid4468"
       empspacing="5"
       visible="true"
       enabled="true"
       snapvisiblegridlinesonly="true" />
    <sodipodi:guide
       orientation="1,0"
       position="0,20"
       id="guide4470" />
    <sodipodi:guide
       orientation="0,1"
       position="4,24"
       id="guide4472" />
    <sodipodi:guide
       orientation="1,0"
       position="24,13"
       id="guide4474" />
    <sodipodi:guide
       orientation="0,1"
       position="15,0"
       id="guide4476" />
    <sodipodi:guide
       orientation="1,0"
       position="23,20"
       id="guide4478" />
    <sodipodi:guide
       orientation="0,1"
       position="20,23"
       id="guide4480" />
    <sodipodi:guide
       orientation="1,0"
       position="2,5"
       id="guide4482" />
    <sodipodi:guide
       orientation="0,1"
       position="7,2"
       id="guide4484" />
  </sodipodi:namedview>
  <metadata
     id="metadata4465">
    <rdf:RDF>
      <cc:Work
         rdf:about="">
        <dc:format>image/svg+xml</dc:format>
        <dc:type
           rdf:resource="http://purl.org/dc/dcmitype/StillImage" />
        <dc:title></dc:title>
      </cc:Work>
    </rdf:RDF>
  </metadata>
  <g
     inkscape:label="Layer 1"
     inkscape:groupmode="layer"
     id="layer1"
     transform="translate(0,-1028.3622)">
    <g
       style="display:inline"
       id="parking-24"
       transform="translate(-84,-166)"
       inkscape:label="parking-24"
       inkscape:export-xdpi="89.996864"
       inkscape:export-ydpi="89.996864">
      <g
         transform="translate(0,6)"
         id="g15948" />
      <rect
         style="opacity:0.5;color:#000000;fill:none;stroke:none;stroke-width:2;marker:none;visibility:visible;display:inline;overflow:visible;enable-background:accumulate"
         id="rect22182"
         width="24"
         height="24.000017"
         x="84"
         y="1194.3622" />
      <g
         style="display:inline"
         inkscape:label="#g6714"
         id="p-24"
         transform="matrix(1.3333333,0,0,1.3333333,84,-160.78737)">
        <g
           style="font-size:14px;font-style:normal;font-variant:normal;font-weight:bold;font-stretch:normal;text-indent:0;text-align:center;text-decoration:none;line-height:125%;letter-spacing:normal;word-spacing:normal;text-transform:none;direction:ltr;block-progression:tb;writing-mode:lr-tb;text-anchor:middle;color:#000000;fill:#444444;fill-opacity:1;fill-rule:nonzero;stroke:none;stroke-width:2;marker:none;visibility:visible;display:inline;overflow:visible;enable-background:accumulate;font-family:Open Sans;-inkscape-font-specification:Open Sans Bold"
           id="text3827">
          <path
             id="path15202"
             style="font-size:12px;opacity:0.3;color:#000000;fill:#ffffff;fill-opacity:1;fill-rule:nonzero;stroke:#ffffff;stroke-width:1.5;stroke-linecap:butt;stroke-linejoin:round;stroke-miterlimit:4;stroke-opacity:1;stroke-dasharray:none;stroke-dashoffset:0;marker:none;visibility:visible;display:inline;overflow:visible;enable-background:accumulate"
             d="m 8.8710938,1025.077 0.5976562,0 c 0.55859,0 0.976558,-0.1093 1.253906,-0.3281 0.277339,-0.2226 0.416011,-0.5449 0.416016,-0.9668 -5e-6,-0.4258 -0.117193,-0.7402 -0.351563,-0.9434 -0.230473,-0.2031 -0.593754,-0.3046 -1.0898434,-0.3046 l -0.8261718,0 0,2.5429 m 4.1015622,-1.3593 c -7e-6,0.9218 -0.289069,1.6269 -0.867187,2.1152 -0.574225,0.4883 -1.392583,0.7324 -2.4550784,0.7324 l -0.7792968,0 0,3.0469 -1.8164063,0 0,-8.5664 2.7363281,0 c 1.0390574,0 1.8281194,0.2246 2.3671874,0.6738 0.542962,0.4453 0.814446,1.1113 0.814453,1.9981"
             inkscape:connector-curvature="0" />
          <path
             d="m 8.8710938,1025.077 0.5976562,0 c 0.55859,0 0.976558,-0.1093 1.253906,-0.3281 0.277339,-0.2226 0.416011,-0.5449 0.416016,-0.9668 -5e-6,-0.4258 -0.117193,-0.7402 -0.351563,-0.9434 -0.230473,-0.2031 -0.593754,-0.3046 -1.0898434,-0.3046 l -0.8261718,0 0,2.5429 m 4.1015622,-1.3593 c -7e-6,0.9218 -0.289069,1.6269 -0.867187,2.1152 -0.574225,0.4883 -1.392583,0.7324 -2.4550784,0.7324 l -0.7792968,0 0,3.0469 -1.8164063,0 0,-8.5664 2.7363281,0 c 1.0390574,0 1.8281194,0.2246 2.3671874,0.6738 0.542962,0.4453 0.814446,1.1113 0.814453,1.9981"
             style="font-size:12px;marker:none"
             id="path15189"
             inkscape:connector-curvature="0" />
        </g>
      </g>
    </g>
  </g>
</svg>
