<svg xmlns="http://www.w3.org/2000/svg" width="18" height="18">
    <g transform="translate(0 -1034.362) translate(-186 -40)" color="#000">
        <g>
            <path d="m 200,1083.3622 c 0,-1 -1,-2 -1.5,-2 0.30686,-0.3437 0.61108,-1.0028 0.61108,-1.4999 0,-1.0738 -1.11108,-2.0001 -2.11108,-2.0001 0,-1 -0.5,-1.5 -1.5,-1.5 -1,0 -1.5,0.5 -1.5,1.5 -1,0 -2.11108,0.9266 -2.11108,2.0005 0,0.4971 0.30422,1.1558 0.61108,1.4995 -0.5,0 -1.5,1 -1.5,2 0,1 0.5,2.056 2.05557,2.056 l 0.38889,0 0.0555,0.944 1.5,1.5 -4e-5,2.5 1,0 4e-5,-2.5004 1.5,-1.4996 0.0555,-0.944 0.55902,-0.012 C 199.5,1085.3622 200,1084.3622 200,1083.3622 z m -5.5,2 2,0 0,0.5 -1,1 -1,-1 z" opacity=".3" stroke="#fff" stroke-width="2" stroke-linecap="round" stroke-linejoin="round" overflow="visible" enable-background="accumulate" fill="none"/>
            <path d="m 200,1083.3622 c 0,-1 -1,-2 -1.5,-2 0.30686,-0.3437 0.61108,-1.0028 0.61108,-1.4999 0,-1.0738 -1.11108,-2.0001 -2.11108,-2.0001 0,-1 -0.5,-1.5 -1.5,-1.5 -1,0 -1.5,0.5 -1.5,1.5 -1,0 -2.11108,0.9266 -2.11108,2.0005 0,0.4971 0.30422,1.1558 0.61108,1.4995 -0.5,0 -1.5,1 -1.5,2 0,1 0.5,2.056 2.05557,2.056 l 0.38889,0 0.0555,0.944 1.5,1.5 -4e-5,2.5 1,0 4e-5,-2.5004 1.5,-1.4996 0.0555,-0.944 0.55902,-0.012 C 199.5,1085.3622 200,1084.3622 200,1083.3622 z m -5.5,2 2,0 0,0.5 -1,1 -1,-1 z" fill="#444" overflow="visible" enable-background="accumulate"/>
        </g>
        <rect y="1074.362" x="186" height="18" width="18" opacity=".5" overflow="visible" enable-background="accumulate" fill="none"/>
    </g>
</svg>
