<svg xmlns="http://www.w3.org/2000/svg" width="12" height="12">
    <g transform="translate(0 -1040.362) translate(-126 -202)" color="#000">
        <path d="m 132.5,1243.3622 -3.5,1 0,1 3.5,-1 3.5,1 0,-1 -3.5,-1 z m -1.59375,2.6563 0,6.6875 1.40625,0 0,-2.375 0.625,0 c 0.82638,0 1.45963,-0.1827 1.90625,-0.5625 0.44965,-0.3798 0.65624,-0.9393 0.65625,-1.6563 -1e-5,-0.6896 -0.2027,-1.2162 -0.625,-1.5625 -0.41928,-0.3494 -1.03559,-0.5312 -1.84375,-0.5312 l -2.125,0 z m 1.40625,1.1562 0.65625,0 c 0.38585,10e-5 0.66449,0.092 0.84375,0.25 0.18234,0.158 0.28124,0.4188 0.28125,0.75 -1e-5,0.3281 -0.12804,0.5768 -0.34375,0.75 -0.21571,0.1702 -0.53429,0.25 -0.96875,0.25 l -0.46875,0 0,-2 z" style="text-indent:0;text-align:start;line-height:125%;text-transform:none;block-progression:tb;-inkscape-font-specification:Helvetica Neue Bold" font-size="25.21" font-weight="bold" letter-spacing="0" word-spacing="0" opacity=".3" fill="#fff" stroke="#fff" stroke-width="2" stroke-linejoin="round" overflow="visible" enable-background="accumulate" font-family="Helvetica Neue"/>
        <path style="text-indent:0;text-align:start;line-height:125%;text-transform:none;block-progression:tb;-inkscape-font-specification:Helvetica Neue Bold" d="m 132.5,1243.3622 -3.5,1 0,1 3.5,-1 3.5,1 0,-1 -3.5,-1 z m -1.59375,2.6563 0,6.6875 1.40625,0 0,-2.375 0.625,0 c 0.82638,0 1.45963,-0.1827 1.90625,-0.5625 0.44965,-0.3798 0.65624,-0.9393 0.65625,-1.6563 -1e-5,-0.6896 -0.2027,-1.2162 -0.625,-1.5625 -0.41928,-0.3494 -1.03559,-0.5312 -1.84375,-0.5312 l -2.125,0 z m 1.40625,1.1562 0.65625,0 c 0.38585,10e-5 0.66449,0.092 0.84375,0.25 0.18234,0.158 0.28124,0.4188 0.28125,0.75 -1e-5,0.3281 -0.12804,0.5768 -0.34375,0.75 -0.21571,0.1702 -0.53429,0.25 -0.96875,0.25 l -0.46875,0 0,-2 z" font-size="25.21" font-weight="bold" letter-spacing="0" word-spacing="0" fill="#444" overflow="visible" enable-background="accumulate" font-family="Helvetica Neue"/>
        <rect width="12" height="12" x="126" y="1242.362" opacity=".5" overflow="visible" enable-background="accumulate" fill="none"/>
    </g>
</svg>
