<svg xmlns="http://www.w3.org/2000/svg" width="18" height="18">
    <g transform="translate(0 -1034.362) translate(-108 -184)" color="#000">
        <g fill="#b4b4b4" font-size="25.21" font-weight="bold" letter-spacing="0" word-spacing="0" font-family="Helvetica Neue">
            <path d="m 117,1219.3622 -6,1.5 0,1.5 6,-1.5 6,1.5 0,-1.5 -6,-1.5 z m -2.72727,4 0,10 2.31818,0 0,-3.5625 0.98864,0 c 1.35227,0 2.40553,-0.274 3.13636,-0.8437 0.73579,-0.5697 1.0909,-1.3932 1.09091,-2.4688 -1e-5,-1.0345 -0.33168,-1.8242 -1.02273,-2.3437 -0.68608,-0.5241 -1.71165,-0.7812 -3.03409,-0.7813 l -3.47727,0 z m 2.31818,1.75 1.05682,0 c 0.63138,0 1.07031,0.1069 1.36363,0.3438 0.29829,0.237 0.44318,0.597 0.44319,1.0937 -1e-5,0.4922 -0.15839,0.8652 -0.51137,1.125 -0.35299,0.2552 -0.89135,0.4063 -1.60227,0.4063 l -0.75,0 0,-2.9688 z" style="text-indent:0;text-align:start;line-height:125%;text-transform:none;block-progression:tb;-inkscape-font-specification:Helvetica Neue Bold" opacity=".3" fill="#fff" stroke="#fff" stroke-width="2.089" stroke-linejoin="round" overflow="visible" enable-background="accumulate" transform="matrix(.917 0 0 1 10.25 0)"/>
            <path style="text-indent:0;text-align:start;line-height:125%;text-transform:none;block-progression:tb;-inkscape-font-specification:Helvetica Neue Bold" d="m 117,1219.3622 -6,1.5 0,1.5 6,-1.5 6,1.5 0,-1.5 -6,-1.5 z m -2.72727,4 0,10 2.31818,0 0,-3.5625 0.98864,0 c 1.35227,0 2.40553,-0.274 3.13636,-0.8437 0.73579,-0.5697 1.0909,-1.3932 1.09091,-2.4688 -1e-5,-1.0345 -0.33168,-1.8242 -1.02273,-2.3437 -0.68608,-0.5241 -1.71165,-0.7812 -3.03409,-0.7813 l -3.47727,0 z m 2.31818,1.75 1.05682,0 c 0.63138,0 1.07031,0.1069 1.36363,0.3438 0.29829,0.237 0.44318,0.597 0.44319,1.0937 -1e-5,0.4922 -0.15839,0.8652 -0.51137,1.125 -0.35299,0.2552 -0.89135,0.4063 -1.60227,0.4063 l -0.75,0 0,-2.9688 z" fill="#444" overflow="visible" enable-background="accumulate" transform="matrix(.917 0 0 1 10.25 0)"/>
        </g>
        <rect y="1218.362" x="108" height="18" width="18" opacity=".5" overflow="visible" enable-background="accumulate" fill="none"/>
    </g>
</svg>
