<svg xmlns="http://www.w3.org/2000/svg" width="12" height="12">
    <g transform="translate(0 -1040.362) translate(-204 -34)" color="#000">
        <g>
            <path d="m 210.84375,1076.3622 c -0.5625,0.047 -0.84375,0.75 -0.84375,1.5 -1,-0.5 -1.5,-0.25 -1.5,0.75 0,1 1,1.25 1,1.25 0,0 -1.5,-0.2461 -1.5,1.25 0,0.6903 0.80965,1.25 1.5,1.25 l 0,1 1.5,0 0,3 1,0 0,-3 1.5,0 0,-1 c 1,0 1.5,-0.5976 1.5,-1.25 0,-1.496 -1.5,-1.25 -1.5,-1.25 0,0 1,-0.25 1,-1.25 0,-1 -1,-1.25 -1.5,-0.75 0,-1 -0.5,-1.5 -1.5,-1.5 -0.25,0 -0.46875,-0.016 -0.65625,0 z m -0.34375,6 2,0 -0.5,1 -1,0 z" opacity=".3" stroke="#fff" stroke-width="2" stroke-linecap="round" stroke-linejoin="round" overflow="visible" enable-background="accumulate" fill="none" transform="translate(-1 -1)"/>
            <path d="m 210.84375,1076.3622 c -0.5625,0.047 -0.84375,0.75 -0.84375,1.5 -1,-0.5 -1.5,-0.25 -1.5,0.75 0,1 1,1.25 1,1.25 0,0 -1.5,-0.2461 -1.5,1.25 0,0.6903 0.80965,1.25 1.5,1.25 l 0,1 1.5,0 0,3 1,0 0,-3 1.5,0 0,-1 c 1,0 1.5,-0.5976 1.5,-1.25 0,-1.496 -1.5,-1.25 -1.5,-1.25 0,0 1,-0.25 1,-1.25 0,-1 -1,-1.25 -1.5,-0.75 0,-1 -0.5,-1.5 -1.5,-1.5 -0.25,0 -0.46875,-0.016 -0.65625,0 z m -0.34375,6 2,0 -0.5,1 -1,0 z" fill="#444" overflow="visible" enable-background="accumulate" transform="translate(-1 -1)"/>
        </g>
        <rect width="12" height="12" x="204" y="1074.362" opacity=".5" overflow="visible" enable-background="accumulate" fill="none"/>
    </g>
</svg>
