<svg xmlns="http://www.w3.org/2000/svg" width="12" height="12">
    <g transform="translate(0 -1040.362) translate(-204 -10)" color="#000">
        <g>
            <path d="m 210.5,1053.3622 -3,3 1.71875,0 -2.21875,2 2,0 -2,2 3,0 0,2 1,0 0,-2 3,0 -2,-2 2,0 -2.21875,-2 1.71875,0 z" opacity=".3" stroke="#fff" stroke-width="2" stroke-linecap="round" stroke-linejoin="round" overflow="visible" enable-background="accumulate" fill="none" transform="translate(0 -2)"/>
            <path d="m 210.5,1053.3622 -3,3 1.71875,0 -2.21875,2 2,0 -2,2 3,0 0,2 1,0 0,-2 3,0 -2,-2 2,0 -2.21875,-2 1.71875,0 z" fill="#444" overflow="visible" enable-background="accumulate" transform="translate(0 -2)"/>
        </g>
        <rect width="12" height="12" x="204" y="1050.362" opacity=".5" overflow="visible" enable-background="accumulate" fill="none"/>
    </g>
</svg>
