<svg xmlns="http://www.w3.org/2000/svg" width="24" height="24">
    <g transform="translate(0 -1028.362) translate(-84 -190)" color="#000">
        <g font-size="25.21" font-weight="bold" letter-spacing="0" word-spacing="0" font-family="Helvetica Neue">
            <path d="m 96.5,1216.3622 -6.5,2 0,2 6.5,-2 6.5,2 0,-2 -6.5,-2 z m -3.09375,4.25 0,11.4063 2.40625,0 0,-4.0625 1.0625,0 c 1.41666,0 2.51561,-0.3177 3.28125,-0.9688 0.77082,-0.6511 1.125,-1.5834 1.125,-2.8125 0,-1.1824 -0.33855,-2.0625 -1.0625,-2.6562 -0.71876,-0.5989 -1.77084,-0.9063 -3.15625,-0.9063 l -3.65625,0 z m 2.40625,1.9688 1.125,0 c 0.66145,0 1.1302,0.1354 1.4375,0.4062 0.3125,0.271 0.46875,0.7136 0.46875,1.2813 0,0.5625 -0.19271,0.9844 -0.5625,1.2812 -0.36979,0.2917 -0.91146,0.4375 -1.65625,0.4375 l -0.8125,0 0,-3.4062 z" style="text-indent:0;text-align:start;line-height:125%;text-transform:none;block-progression:tb;-inkscape-font-specification:Helvetica Neue Bold" opacity=".3" fill="#fff" stroke="#fff" stroke-width="2" stroke-linejoin="round" overflow="visible" enable-background="accumulate" transform="translate(0 6)"/>
            <path style="text-indent:0;text-align:start;line-height:125%;text-transform:none;block-progression:tb;-inkscape-font-specification:Helvetica Neue Bold" d="m 96.5,1216.3622 -6.5,2 0,2 6.5,-2 6.5,2 0,-2 -6.5,-2 z m -3.09375,4.25 0,11.4063 2.40625,0 0,-4.0625 1.0625,0 c 1.41666,0 2.51561,-0.3177 3.28125,-0.9688 0.77082,-0.6511 1.125,-1.5834 1.125,-2.8125 0,-1.1824 -0.33855,-2.0625 -1.0625,-2.6562 -0.71876,-0.5989 -1.77084,-0.9063 -3.15625,-0.9063 l -3.65625,0 z m 2.40625,1.9688 1.125,0 c 0.66145,0 1.1302,0.1354 1.4375,0.4062 0.3125,0.271 0.46875,0.7136 0.46875,1.2813 0,0.5625 -0.19271,0.9844 -0.5625,1.2812 -0.36979,0.2917 -0.91146,0.4375 -1.65625,0.4375 l -0.8125,0 0,-3.4062 z" fill="#444" overflow="visible" enable-background="accumulate" transform="translate(0 6)"/>
        </g>
        <rect width="24" height="24" x="84" y="1218.362" opacity=".5" overflow="visible" enable-background="accumulate" fill="none"/>
    </g>
</svg>
