<svg xmlns="http://www.w3.org/2000/svg" width="18" height="18">
    <g transform="translate(0 -1034.362) translate(-186 -16)" color="#000">
        <g>
            <path d="m 195.5,1052.3622 -4,4 2.5,0 -3,3 2.5,0 -2.5,3 4,0 0,3 1,0 0,-3 4,0 -2.5,-3 2.5,0 -3,-3 2.5,0 z" opacity=".3" stroke="#fff" stroke-width="2" stroke-linecap="round" stroke-linejoin="round" overflow="visible" enable-background="accumulate" fill="none"/>
            <path d="m 195.5,1052.3622 -4,4 2.5,0 -3,3 2.5,0 -2.5,3 4,0 0,3 1,0 0,-3 4,0 -2.5,-3 2.5,0 -3,-3 2.5,0 z" fill="#444" overflow="visible" enable-background="accumulate"/>
        </g>
        <rect y="1050.362" x="186" height="18" width="18" opacity=".5" overflow="visible" enable-background="accumulate" fill="none"/>
    </g>
</svg>
