<?xml version="1.0" encoding="UTF-8" standalone="no"?>
<!-- Created with Inkscape (http://www.inkscape.org/) -->

<svg
   xmlns:dc="http://purl.org/dc/elements/1.1/"
   xmlns:cc="http://creativecommons.org/ns#"
   xmlns:rdf="http://www.w3.org/1999/02/22-rdf-syntax-ns#"
   xmlns:svg="http://www.w3.org/2000/svg"
   xmlns="http://www.w3.org/2000/svg"
   xmlns:sodipodi="http://sodipodi.sourceforge.net/DTD/sodipodi-0.dtd"
   xmlns:inkscape="http://www.inkscape.org/namespaces/inkscape"
   width="12"
   height="12"
   id="svg4764"
   version="1.1"
   inkscape:version="0.48.2 r9819"
   sodipodi:docname="art-gallery-12.svg">
  <defs
     id="defs4766" />
  <sodipodi:namedview
     id="base"
     pagecolor="#ffffff"
     bordercolor="#666666"
     borderopacity="1.0"
     inkscape:pageopacity="0.0"
     inkscape:pageshadow="2"
     inkscape:zoom="22.627417"
     inkscape:cx="8.7068106"
     inkscape:cy="3.0092696"
     inkscape:document-units="px"
     inkscape:current-layer="layer1"
     showgrid="true"
     showguides="true"
     inkscape:guide-bbox="true"
     inkscape:window-width="957"
     inkscape:window-height="704"
     inkscape:window-x="164"
     inkscape:window-y="265"
     inkscape:window-maximized="0">
    <inkscape:grid
       type="xygrid"
       id="grid4772"
       empspacing="5"
       visible="true"
       enabled="true"
       snapvisiblegridlinesonly="true" />
    <sodipodi:guide
       orientation="0,1"
       position="2,12"
       id="guide4789" />
    <sodipodi:guide
       orientation="1,0"
       position="12,10"
       id="guide4791" />
    <sodipodi:guide
       orientation="0,1"
       position="10,0"
       id="guide4793" />
    <sodipodi:guide
       orientation="1,0"
       position="0,9"
       id="guide4795" />
    <sodipodi:guide
       orientation="0,1"
       position="5,11"
       id="guide4797" />
    <sodipodi:guide
       orientation="1,0"
       position="11,7"
       id="guide4799" />
    <sodipodi:guide
       orientation="0,1"
       position="9,2"
       id="guide4801" />
    <sodipodi:guide
       orientation="1,0"
       position="2,6"
       id="guide4803" />
  </sodipodi:namedview>
  <metadata
     id="metadata4769">
    <rdf:RDF>
      <cc:Work
         rdf:about="">
        <dc:format>image/svg+xml</dc:format>
        <dc:type
           rdf:resource="http://purl.org/dc/dcmitype/StillImage" />
        <dc:title></dc:title>
      </cc:Work>
    </rdf:RDF>
  </metadata>
  <g
     inkscape:label="Layer 1"
     inkscape:groupmode="layer"
     id="layer1"
     transform="translate(0,-1040.3622)">
    <g
       style="display:inline"
       id="pitch-12"
       inkscape:label="pitch-12"
       transform="translate(-516,-10)"
       inkscape:export-xdpi="89.996864"
       inkscape:export-ydpi="89.996864">
      <g
         transform="translate(-1,-1)"
         id="g21458" />
      <g
         id="g5224">
        <path
           id="path10527-1-3-2-1"
           d="m 523,1052.3622 c -0.55228,0 -1,0.4477 -1,1 0,0.5523 0.44772,1 1,1 0.55228,0 1,-0.4477 1,-1 0,-0.5523 -0.44772,-1 -1,-1 z m -2.59375,1.2188 c -0.21864,0 -0.40625,0.1329 -0.40625,0.4062 0,0.2732 0.0851,0.6291 0.125,0.8438 l 0.28125,1 c 0.14851,0.5435 0.46689,0.5312 0.875,0.5312 l 0.90625,0 c 0.32455,0.5467 0.21119,1.1646 0.3125,2 l -0.5,0 c -0.54661,0 -1.45283,0.3131 -0.90625,1.4063 l 0.8125,1.6562 c 0.19635,0.3927 0.39466,0.4352 0.59375,0.4375 0.35509,0 0.65107,-0.3574 0.5,-0.7187 l -0.625,-1.5 c -0.11787,-0.2819 0.15241,-0.2813 0.28125,-0.2813 l 1.34375,0 c 0,0 0.45658,1.2032 1.21875,2.1875 0.28135,0.3634 0.57866,0.8125 0.96875,0.8125 0.2733,0 0.74847,-0.3739 0.25,-0.9687 -0.93348,-1.1141 -1.4375,-2.4847 -1.4375,-3.0313 0,-0.6357 -0.18215,-1.2417 -0.34375,-2 l 0.8125,0 c 0.26675,0.5347 0.71875,1.375 0.71875,1.375 0.30214,0.5233 0.8125,0.4838 0.8125,0 0,-0.067 0.006,-0.2142 -0.0625,-0.375 l -0.75,-1.7187 c -0.0503,-0.1186 -0.12315,-0.2813 -0.53125,-0.2813 l -4.28125,0 -0.40625,-1.375 c -0.082,-0.2733 -0.34386,-0.4062 -0.5625,-0.4062 z"
           style="opacity:0.3;color:#000000;fill:none;stroke:#ffffff;stroke-width:2;stroke-linecap:round;stroke-linejoin:round;stroke-miterlimit:4;stroke-opacity:1;stroke-dasharray:none;stroke-dashoffset:0;marker:none;visibility:visible;display:inline;overflow:visible;enable-background:accumulate"
           inkscape:connector-curvature="0"
           transform="translate(-1,-1)" />
        <path
           id="path10527-1-3-2"
           d="m 523,1052.3622 c -0.55228,0 -1,0.4477 -1,1 0,0.5523 0.44772,1 1,1 0.55228,0 1,-0.4477 1,-1 0,-0.5523 -0.44772,-1 -1,-1 z m -2.59375,1.2188 c -0.21864,0 -0.40625,0.1329 -0.40625,0.4062 0,0.2732 0.0851,0.6291 0.125,0.8438 l 0.28125,1 c 0.14851,0.5435 0.46689,0.5312 0.875,0.5312 l 0.90625,0 c 0.32455,0.5467 0.21119,1.1646 0.3125,2 l -0.5,0 c -0.54661,0 -1.45283,0.3131 -0.90625,1.4063 l 0.8125,1.6562 c 0.19635,0.3927 0.39466,0.4352 0.59375,0.4375 0.35509,0 0.65107,-0.3574 0.5,-0.7187 l -0.625,-1.5 c -0.11787,-0.2819 0.15241,-0.2813 0.28125,-0.2813 l 1.34375,0 c 0,0 0.45658,1.2032 1.21875,2.1875 0.28135,0.3634 0.57866,0.8125 0.96875,0.8125 0.2733,0 0.74847,-0.3739 0.25,-0.9687 -0.93348,-1.1141 -1.4375,-2.4847 -1.4375,-3.0313 0,-0.6357 -0.18215,-1.2417 -0.34375,-2 l 0.8125,0 c 0.26675,0.5347 0.71875,1.375 0.71875,1.375 0.30214,0.5233 0.8125,0.4838 0.8125,0 0,-0.067 0.006,-0.2142 -0.0625,-0.375 l -0.75,-1.7187 c -0.0503,-0.1186 -0.12315,-0.2813 -0.53125,-0.2813 l -4.28125,0 -0.40625,-1.375 c -0.082,-0.2733 -0.34386,-0.4062 -0.5625,-0.4062 z"
           style="color:#000000;fill:#444444;fill-opacity:1;fill-rule:nonzero;stroke:none;stroke-width:2;marker:none;visibility:visible;display:inline;overflow:visible;enable-background:accumulate"
           inkscape:connector-curvature="0"
           transform="translate(-1,-1)" />
        <rect
           y="1050.3622"
           x="516"
           height="12.000007"
           width="11.999998"
           id="rect22286-5"
           style="opacity:0.5;color:#000000;fill:none;stroke:none;stroke-width:2;marker:none;visibility:visible;display:inline;overflow:visible;enable-background:accumulate" />
      </g>
    </g>
  </g>
</svg>
