<svg xmlns="http://www.w3.org/2000/svg" width="18" height="18">
    <g transform="translate(0 -1034.362) translate(-30 -112)">
        <path d="m 39.5,1149.8622 -1.5,1.5 0,1.5 -2,2 0,6.5 7,0 0,-6.5 -2,-2 0,-1.5 z m -6.5,6 0,5.5 1.5,0 0,-5.5 z m 11.5,0 0,5.5 1.5,0 0,-5.5 z" opacity=".3" color="#000" fill="#fff" stroke="#fff" stroke-width="2" stroke-linejoin="round" overflow="visible" enable-background="accumulate"/>
        <g transform="translate(0 24)">
            <rect y="1122.362" x="30" height="18" width="18" opacity=".5" color="#000" overflow="visible" enable-background="accumulate" fill="none"/>
        </g>
        <path d="m 39.5,1149.8622 -1.5,1.5 0,1.5 -2,2 0,6.5 7,0 0,-6.5 -2,-2 0,-1.5 z m -6.5,6 0,5.5 1.5,0 0,-5.5 z m 11.5,0 0,5.5 1.5,0 0,-5.5 z" color="#000" fill="#444" overflow="visible" enable-background="accumulate"/>
    </g>
</svg>
