<svg xmlns="http://www.w3.org/2000/svg" width="12" height="12">
    <g transform="translate(0 -1040.362) translate(-438 -82)" color="#000">
        <g>
            <path d="m 444,1124.3622 3,0 0,-1 -3,0 z m 0,0.75 c 0,0.9665 0.53351,1.75 1.5,1.75 0.96649,0 1.5,-0.7835 1.5,-1.75 l 0,-0.25 -3,0 z m -1,2.25 c -0.5,0 -1,1.5 -1,2 l 0,3 1.59375,0 3.40625,-5 z m 5,0 -3.40625,5 4.40625,0 0,-3 c 0,-0.5 -0.5,-2 -1,-2 z" opacity=".3" fill="#fff" stroke="#fff" stroke-width="2" stroke-linecap="round" stroke-linejoin="round" overflow="visible" enable-background="accumulate" transform="translate(-1)"/>
            <path d="m 444,1124.3622 3,0 0,-1 -3,0 z m 0,0.75 c 0,0.9665 0.53351,1.75 1.5,1.75 0.96649,0 1.5,-0.7835 1.5,-1.75 l 0,-0.25 -3,0 z m -1,2.25 c -0.5,0 -1,1.5 -1,2 l 0,3 1.59375,0 3.40625,-5 z m 5,0 -3.40625,5 4.40625,0 0,-3 c 0,-0.5 -0.5,-2 -1,-2 z" fill="#444" overflow="visible" enable-background="accumulate" transform="translate(-1)"/>
        </g>
        <rect y="1122.362" x="438" height="12" width="12" opacity=".5" overflow="visible" enable-background="accumulate" fill="none"/>
    </g>
</svg>
