<svg xmlns="http://www.w3.org/2000/svg" width="24" height="24">
    <g transform="translate(0 -1028.362) translate(-396 -94)" color="#000">
        <g>
            <path d="m 407,1125.3622 -1,1 0,1 7,0 0,-1 -1,-1 z m -1,3 0,0.5 c 0,1.933 1.56702,3.5 3.5,3.5 1.93298,0 3.5,-1.567 3.5,-3.5 l 0,-0.5 z m 1.1875,15 8.8125,0 0,-6 c 0,-1.5 -0.5,-4 -2,-4 l -1.5,0 -7.5,0 c -1.5,0 -2,2.5 -2,4 l 0,6 2.6875,0 z" opacity=".3" fill="#fff" stroke="#fff" stroke-width="2" stroke-linecap="round" stroke-linejoin="round" overflow="visible" enable-background="accumulate" transform="translate(-1)"/>
            <path d="m 407,1125.3622 -1,1 0,1 7,0 0,-1 -1,-1 -5,0 z m -1,3 0,0.5 c 0,1.933 1.56702,3.5 3.5,3.5 1.93298,0 3.5,-1.567 3.5,-3.5 l 0,-0.5 -7,0 z m -1,5 c -1.5,0 -2,2.5 -2,4 l 0,6 2.6875,0 6.8125,-10 -7.5,0 z m 9,0 -6.8125,10 8.8125,0 0,-6 c 0,-1.5 -0.5,-4 -2,-4 z" fill="#444" overflow="visible" enable-background="accumulate" transform="translate(-1)"/>
        </g>
        <rect y="1122.362" x="396" height="24" width="24" opacity=".5" overflow="visible" enable-background="accumulate" fill="none"/>
    </g>
</svg>
