<svg xmlns="http://www.w3.org/2000/svg" width="18" height="18">
    <g transform="translate(0 -1034.362) translate(-420 -16)" color="#000">
        <g>
            <path d="m 424,1057.3622 c -0.8125,0 -0.59375,0.3382 -0.1875,0.6719 l 5.6875,4.3281 5.6875,-4.3281 c 0.41835,-0.3184 0.625,-0.6719 -0.1875,-0.6719 z m -1,1.5 0,6.5 c 0,0.5 0.5,1 1,1 l 11,0 c 0.5,0 1,-0.5 1,-1 l 0,-6.5 -6.5,5 z" opacity=".3" fill="#fff" stroke="#fff" stroke-width="2" stroke-linejoin="round" overflow="visible" enable-background="accumulate" transform="translate(0 -3)"/>
            <path d="m 424,1057.3622 c -0.8125,0 -0.59375,0.3382 -0.1875,0.6719 l 5.6875,4.3281 5.6875,-4.3281 c 0.41835,-0.3184 0.625,-0.6719 -0.1875,-0.6719 z m -1,1.5 0,6.5 c 0,0.5 0.5,1 1,1 l 11,0 c 0.5,0 1,-0.5 1,-1 l 0,-6.5 -6.5,5 z" fill="#444" overflow="visible" enable-background="accumulate" transform="translate(0 -3)"/>
        </g>
        <rect y="1050.362" x="420" height="18" width="18" opacity=".5" overflow="visible" enable-background="accumulate" fill="none"/>
    </g>
</svg>
