<svg xmlns="http://www.w3.org/2000/svg" width="12" height="12">
    <g transform="translate(0 -1040.362) translate(-438 -106)" color="#000">
        <g>
            <path d="m 441.5,1148.8622 c -0.277,0 -0.5,0.223 -0.5,0.5 l 0,1.5 0,4 0,1.5 c 0,0.277 0.223,0.5 0.5,0.5 0.277,0 0.5,-0.223 0.5,-0.5 l 0,-1 1,0 0,1 c 0,0.277 0.223,0.5 0.5,0.5 0.277,0 0.5,-0.2541 0.5,-0.5 l 0,-1 1,0 0,1 c 0,0.277 0.223,0.5 0.5,0.5 0.277,0 0.5,-0.2541 0.5,-0.5 l 0,-1 1,0 0,1 c 0,0.277 0.223,0.5 0.5,0.5 0.277,0 0.5,-0.223 0.5,-0.5 l 0,-7 c 0,-0.277 -0.223,-0.5 -0.5,-0.5 -0.277,0 -0.5,0.223 -0.5,0.5 l 0,1 -1,0 0,-1 c 0,-0.277 -0.223,-0.5 -0.5,-0.5 -0.277,0 -0.5,0.223 -0.5,0.5 l 0,1 -1,0 0,-1 c 0,-0.277 -0.223,-0.5 -0.5,-0.5 -0.277,0 -0.5,0.2474 -0.5,0.5 l 0,1 -1,0 0,-1 c 0,-0.277 -0.223,-0.5 -0.5,-0.5 z m 0.5,2.5 1,0 0,3 -1,0 z m 2,0 1,0 0,3 -1,0 z m 2,0 1,0 0,3 -1,0 z" opacity=".3" stroke="#fff" stroke-width="2" stroke-linecap="round" stroke-linejoin="round" overflow="visible" enable-background="accumulate" fill="none" transform="translate(0 -1)"/>
            <path d="m 441.5,1148.8622 c -0.277,0 -0.5,0.223 -0.5,0.5 l 0,1.5 0,4 0,1.5 c 0,0.277 0.223,0.5 0.5,0.5 0.277,0 0.5,-0.223 0.5,-0.5 l 0,-1 1,0 0,1 c 0,0.277 0.223,0.5 0.5,0.5 0.277,0 0.5,-0.2543 0.5,-0.5 l 0,-1 1,0 0,1 c 0,0.277 0.223,0.5 0.5,0.5 0.277,0 0.5,-0.2541 0.5,-0.5 l 0,-1 1,0 0,1 c 0,0.277 0.223,0.5 0.5,0.5 0.277,0 0.5,-0.223 0.5,-0.5 l 0,-7 c 0,-0.277 -0.223,-0.5 -0.5,-0.5 -0.277,0 -0.5,0.223 -0.5,0.5 l 0,1 -1,0 0,-1 c 0,-0.277 -0.223,-0.5 -0.5,-0.5 -0.277,0 -0.5,0.223 -0.5,0.5 l 0,1 -1,0 0,-1 c 0,-0.277 -0.223,-0.5 -0.5,-0.5 -0.277,0 -0.5,0.2474 -0.5,0.5 l 0,1 -1,0 0,-1 c 0,-0.277 -0.223,-0.5 -0.5,-0.5 z m 0.5,2.5 1,0 0,3 -1,0 z m 2,0 1,0 0,3 -1,0 z m 2,0 1,0 0,3 -1,0 z" fill="#444" overflow="visible" enable-background="accumulate" transform="translate(0 -1)"/>
        </g>
        <rect y="1146.362" x="438" height="12" width="12" opacity=".5" overflow="visible" enable-background="accumulate" fill="none"/>
    </g>
</svg>
