<svg xmlns="http://www.w3.org/2000/svg" width="12" height="12">
    <g transform="translate(0 -1040.362) translate(-126 -82)" color="#000">
        <g>
            <path d="m 130.5,1123.3622 -1.5,1 0,5.5 c 0,0.25 0.25,0.5 0.5,0.5 l 1.25,0 2.25,0 1.25,0 1.25,0 c 0.25,0 0.5,-0.25 0.5,-0.5 l 0,-5.5 -1.5,-1 -4,0 z m 0.5,1 3,0 1,0.5 0,1.5 -5,0 0,-1.5 1,-0.5 z m -0.5,4 c 0.277,0 0.5,0.223 0.5,0.5 0,0.277 -0.223,0.5 -0.5,0.5 -0.277,0 -0.5,-0.223 -0.5,-0.5 0,-0.277 0.223,-0.5 0.5,-0.5 z m 4,0 c 0.277,0 0.5,0.223 0.5,0.5 0,0.277 -0.223,0.5 -0.5,0.5 -0.277,0 -0.5,-0.223 -0.5,-0.5 0,-0.277 0.223,-0.5 0.5,-0.5 z m -2.5,3 -3,2 7,0 -3,-2 -1,0 z" opacity=".3" stroke="#fff" stroke-width="2" stroke-linecap="round" stroke-linejoin="round" overflow="visible" enable-background="accumulate" fill="none"/>
            <path d="m 130.5,1123.3622 -1.5,1 0,5.5 c 0,0.25 0.25,0.5 0.5,0.5 l 1.25,0 2.25,0 1.25,0 1.25,0 c 0.25,0 0.5,-0.25 0.5,-0.5 l 0,-5.5 -1.5,-1 -4,0 z m 0.5,1 3,0 1,0.5 0,1.5 -5,0 0,-1.5 1,-0.5 z m -0.5,4 c 0.277,0 0.5,0.223 0.5,0.5 0,0.277 -0.223,0.5 -0.5,0.5 -0.277,0 -0.5,-0.223 -0.5,-0.5 0,-0.277 0.223,-0.5 0.5,-0.5 z m 4,0 c 0.277,0 0.5,0.223 0.5,0.5 0,0.277 -0.223,0.5 -0.5,0.5 -0.277,0 -0.5,-0.223 -0.5,-0.5 0,-0.277 0.223,-0.5 0.5,-0.5 z m -2.5,3 -3,2 7,0 -3,-2 -1,0 z" fill="#444" overflow="visible" enable-background="accumulate"/>
        </g>
        <rect y="1122.362" x="126" height="12" width="12" opacity=".5" overflow="visible" enable-background="accumulate" fill="none"/>
    </g>
</svg>
