<svg xmlns="http://www.w3.org/2000/svg" width="18" height="18">
    <g transform="translate(0 -1034.362) translate(-108 -64)" color="#000">
        <g>
            <path d="m 234,54 -2,1.5 0,7.5 c 0,0.5 0.5,1 1,1 l 9,0 c 0.5,0 1.06608,-0.504386 1,-1 l 0,-7.5 -2,-1.5 z" transform="translate(0 -2) translate(-120 1050.362)" opacity=".3" fill="#fff" stroke="#fff" stroke-width="2" stroke-linecap="round" stroke-linejoin="round" overflow="visible" enable-background="accumulate"/>
            <path d="m 234,54 -2,1.5 0,7.5 c 0,0.5 0.5,1 1,1 l 9,0 c 0.5,0 1.06608,-0.504386 1,-1 l 0,-7.5 -2,-1.5 z m 1.5,1 4,0 1.5,1 0,2 -7,0 0,-2 z m -1.25,5.5 c 0.41421,0 0.75,0.335786 0.75,0.75 0,0.414214 -0.33579,0.75 -0.75,0.75 -0.41421,0 -0.75,-0.335786 -0.75,-0.75 0,-0.414214 0.33579,-0.75 0.75,-0.75 z m 6.5,0 c 0.41421,0 0.75,0.335786 0.75,0.75 0,0.414214 -0.33579,0.75 -0.75,0.75 -0.41421,0 -0.75,-0.335786 -0.75,-0.75 0,-0.414214 0.33579,-0.75 0.75,-0.75 z" transform="translate(0 -2) translate(-120 1050.362)" fill="#444" overflow="visible" enable-background="accumulate"/>
        </g>
        <rect y="1098.362" x="108" height="18" width="18" opacity=".5" overflow="visible" enable-background="accumulate" fill="none"/>
    </g>
</svg>
