<svg xmlns="http://www.w3.org/2000/svg" width="24" height="24">
    <g transform="translate(0 -1028.362) translate(-84 -94)" color="#000">
        <g>
            <path d="m 9,1079.3622 -3,2 0,11 c 0,0.5 0.5,1 1,1 l 11,0 c 0.5,0 1,-0.5 1,-1 l 0,-11 -3,-2 z m 3.5,15 -5.5,3 11,0 z" opacity=".3" fill="#fff" stroke="#fff" stroke-width="2" stroke-linejoin="round" overflow="visible" enable-background="accumulate" transform="translate(84 45)"/>
            <path d="m 9,1079.3622 -3,2 0,11 c 0,0.5 0.5,1 1,1 l 11,0 c 0.5,0 1,-0.5 1,-1 l 0,-11 -3,-2 z m 1,2 5,0 2,1 0,3 -9,0 0,-3 z m -1,8 c 0.554,0 1,0.446 1,1 0,0.554 -0.446,1 -1,1 -0.554,0 -1,-0.446 -1,-1 0,-0.554 0.446,-1 1,-1 z m 7,0 c 0.554,0 1,0.446 1,1 0,0.554 -0.446,1 -1,1 -0.554,0 -1,-0.446 -1,-1 0,-0.554 0.446,-1 1,-1 z m -3.5,5 -5.5,3 11,0 z" fill="#444" overflow="visible" enable-background="accumulate" transform="translate(84 45)"/>
        </g>
        <rect y="1122.362" x="84" height="24" width="24" opacity=".5" overflow="visible" enable-background="accumulate" fill="none"/>
    </g>
</svg>
