<?xml version="1.0" encoding="UTF-8" standalone="no"?>
<!-- Created with Inkscape (http://www.inkscape.org/) -->

<svg
   xmlns:dc="http://purl.org/dc/elements/1.1/"
   xmlns:cc="http://creativecommons.org/ns#"
   xmlns:rdf="http://www.w3.org/1999/02/22-rdf-syntax-ns#"
   xmlns:svg="http://www.w3.org/2000/svg"
   xmlns="http://www.w3.org/2000/svg"
   xmlns:sodipodi="http://sodipodi.sourceforge.net/DTD/sodipodi-0.dtd"
   xmlns:inkscape="http://www.inkscape.org/namespaces/inkscape"
   width="24"
   height="24"
   id="svg4460"
   version="1.1"
   inkscape:version="0.48.2 r9819"
   sodipodi:docname="religious-christian-24.svg">
  <defs
     id="defs4462" />
  <sodipodi:namedview
     id="base"
     pagecolor="#ffffff"
     bordercolor="#666666"
     borderopacity="1.0"
     inkscape:pageopacity="0.0"
     inkscape:pageshadow="2"
     inkscape:zoom="11.313708"
     inkscape:cx="15.622727"
     inkscape:cy="-3.6919166"
     inkscape:document-units="px"
     inkscape:current-layer="layer1"
     showgrid="true"
     showguides="true"
     inkscape:guide-bbox="true"
     inkscape:window-width="1220"
     inkscape:window-height="833"
     inkscape:window-x="56"
     inkscape:window-y="20"
     inkscape:window-maximized="0">
    <inkscape:grid
       type="xygrid"
       id="grid4468"
       empspacing="5"
       visible="true"
       enabled="true"
       snapvisiblegridlinesonly="true" />
    <sodipodi:guide
       orientation="1,0"
       position="0,20"
       id="guide4470" />
    <sodipodi:guide
       orientation="0,1"
       position="4,24"
       id="guide4472" />
    <sodipodi:guide
       orientation="1,0"
       position="24,13"
       id="guide4474" />
    <sodipodi:guide
       orientation="0,1"
       position="15,0"
       id="guide4476" />
    <sodipodi:guide
       orientation="1,0"
       position="23,20"
       id="guide4478" />
    <sodipodi:guide
       orientation="0,1"
       position="20,23"
       id="guide4480" />
    <sodipodi:guide
       orientation="1,0"
       position="2,5"
       id="guide4482" />
    <sodipodi:guide
       orientation="0,1"
       position="7,2"
       id="guide4484" />
    <sodipodi:guide
       orientation="0,1"
       position="16,13"
       id="guide4490" />
  </sodipodi:namedview>
  <metadata
     id="metadata4465">
    <rdf:RDF>
      <cc:Work
         rdf:about="">
        <dc:format>image/svg+xml</dc:format>
        <dc:type
           rdf:resource="http://purl.org/dc/dcmitype/StillImage" />
        <dc:title></dc:title>
      </cc:Work>
    </rdf:RDF>
  </metadata>
  <g
     inkscape:label="Layer 1"
     inkscape:groupmode="layer"
     id="layer1"
     transform="translate(0,-1028.3622)">
    <g
       style="display:inline"
       id="religious-muslim-24"
       inkscape:label="religious-muslim-24"
       inkscape:export-xdpi="89.996864"
       inkscape:export-ydpi="89.996864"
       transform="translate(-6.0000014,-46)">
      <g
         id="g21856">
        <path
           id="path7587"
           d="m 18.5,1077.3622 c -4.69442,0 -8.5,3.8056 -8.5,8.5 0,4.6944 3.80558,8.5 8.5,8.5 2.624764,0 4.972051,-1.1929 6.53125,-3.0625 -1.018799,0.6632 -2.225004,1.0625 -3.53125,1.0625 -3.589851,0 -6.5,-2.9101 -6.5,-6.5 0,-3.5899 2.910149,-6.5 6.5,-6.5 1.306246,0 2.512451,0.3993 3.53125,1.0625 -1.559199,-1.8696 -3.906486,-3.0625 -6.53125,-3.0625 z m 5,4 -1,3 -3.5,0 3,2 -1.5,3.5 3,-2 3,2 -1.5,-3.5 3,-2 -3.5,0 -1,-3 z"
           style="opacity:0.3;color:#000000;fill:#ffffff;fill-opacity:1;fill-rule:nonzero;stroke:#ffffff;stroke-width:2;stroke-linecap:butt;stroke-linejoin:round;stroke-miterlimit:4;stroke-opacity:1;stroke-dasharray:none;stroke-dashoffset:0;marker:none;visibility:visible;display:inline;overflow:visible;enable-background:accumulate"
           inkscape:connector-curvature="0" />
        <path
           style="color:#000000;fill:#444444;fill-opacity:1;fill-rule:nonzero;stroke:none;stroke-width:2;marker:none;visibility:visible;display:inline;overflow:visible;enable-background:accumulate"
           d="m 18.5,1077.3622 c -4.69442,0 -8.5,3.8056 -8.5,8.5 0,4.6944 3.80558,8.5 8.5,8.5 2.624764,0 4.972051,-1.1929 6.53125,-3.0625 -1.018799,0.6632 -2.225004,1.0625 -3.53125,1.0625 -3.589851,0 -6.5,-2.9101 -6.5,-6.5 0,-3.5899 2.910149,-6.5 6.5,-6.5 1.306246,0 2.512451,0.3993 3.53125,1.0625 -1.559199,-1.8696 -3.906486,-3.0625 -6.53125,-3.0625 z m 5,4 -1,3 -3.5,0 3,2 -1.5,3.5 3,-2 3,2 -1.5,-3.5 3,-2 -3.5,0 -1,-3 z"
           id="path7552-2"
           inkscape:connector-curvature="0" />
      </g>
      <rect
         style="opacity:0.5;color:#000000;fill:none;stroke:none;stroke-width:2;marker:none;visibility:visible;display:inline;overflow:visible;enable-background:accumulate"
         id="rect22081-5"
         width="24"
         height="24.000017"
         x="6.0000014"
         y="1074.3622" />
    </g>
  </g>
</svg>
