<svg xmlns="http://www.w3.org/2000/svg" width="18" height="18">
    <g transform="translate(0 -1034.362) translate(-30 -64)">
        <g>
            <path d="m 39.5,1099.3622 -2.5,3 -4,0 2.5,4.5 -2.5,4.5 4,0 2.5,3 2.5,-3 4,0 -2.5,-4.5 2.5,-4.5 -4,0 -2.5,-3 z" opacity=".3" color="#000" fill="#fff" stroke="#fff" stroke-width="2" stroke-linejoin="round" overflow="visible" enable-background="accumulate"/>
            <path d="m 39.5,1099.3622 -2.5,3 -4,0 2.5,4.5 -2.5,4.5 4,0 2.5,3 2.5,-3 4,0 -2.5,-4.5 2.5,-4.5 -4,0 -2.5,-3 z" fill="#444"/>
        </g>
        <rect width="18" height="18" x="30" y="1098.362" opacity=".5" color="#000" overflow="visible" enable-background="accumulate" fill="none"/>
    </g>
</svg>
