<svg xmlns="http://www.w3.org/2000/svg" width="18" height="18">
    <g transform="translate(0 -1034.362) translate(-30 -40)" color="#000">
        <g>
            <path d="m 40,1077.3622 c -3.390415,0 -6,2.6096 -6,6 0,3.3904 2.609585,6 6,6 1.89566,0 3.873911,-0.6497 5,-2 -0.7358,0.479 -2.056598,1 -3,1 -2.59267,0 -4.527778,-2.5462 -4.527778,-5.1389 0,-2.5927 1.935108,-4.8611 4.527778,-4.8611 0.943402,0 2.2642,0.5211 3,1 -1.126089,-1.3502 -3.10434,-2 -5,-2 z m 3.611111,2.6111 -0.722222,2.3889 -2.888889,0 2.527778,1.2222 L 41,1086.3622 43.611111,1084.6678 46,1086.3622 44.694444,1083.5844 47,1082.3622 l -2.666667,0 z" opacity=".3" fill="#fff" stroke="#fff" stroke-width="2" stroke-linejoin="round" overflow="visible" enable-background="accumulate"/>
            <path d="m 40,1077.3622 c -3.390415,0 -6,2.6096 -6,6 0,3.3904 2.609585,6 6,6 1.89566,0 3.873911,-0.6497 5,-2 -0.7358,0.479 -2.056598,1 -3,1 -2.59267,0 -4.527778,-2.5462 -4.527778,-5.1389 0,-2.5927 1.935108,-4.8611 4.527778,-4.8611 0.943402,0 2.2642,0.5211 3,1 -1.126089,-1.3502 -3.10434,-2 -5,-2 z m 3.611111,2.6111 -0.722222,2.3889 -2.888889,0 2.527778,1.2222 L 41,1086.3622 43.611111,1084.6678 46,1086.3622 44.694444,1083.5844 47,1082.3622 l -2.666667,0 z" fill="#444" overflow="visible" enable-background="accumulate"/>
        </g>
        <rect y="1074.362" x="30" height="18" width="18" opacity=".5" overflow="visible" enable-background="accumulate" fill="none"/>
    </g>
</svg>
