<svg xmlns="http://www.w3.org/2000/svg" width="24" height="24">
    <g transform="translate(0 -1028.362) translate(-6 -46)" color="#000">
        <g>
            <path d="m 18.5,1077.3622 c -4.69442,0 -8.5,3.8056 -8.5,8.5 0,4.6944 3.80558,8.5 8.5,8.5 2.624764,0 4.972051,-1.1929 6.53125,-3.0625 -1.018799,0.6632 -2.225004,1.0625 -3.53125,1.0625 -3.589851,0 -6.5,-2.9101 -6.5,-6.5 0,-3.5899 2.910149,-6.5 6.5,-6.5 1.306246,0 2.512451,0.3993 3.53125,1.0625 -1.559199,-1.8696 -3.906486,-3.0625 -6.53125,-3.0625 z m 5,4 -1,3 -3.5,0 3,2 -1.5,3.5 3,-2 3,2 -1.5,-3.5 3,-2 -3.5,0 -1,-3 z" opacity=".3" fill="#fff" stroke="#fff" stroke-width="2" stroke-linejoin="round" overflow="visible" enable-background="accumulate"/>
            <path d="m 18.5,1077.3622 c -4.69442,0 -8.5,3.8056 -8.5,8.5 0,4.6944 3.80558,8.5 8.5,8.5 2.624764,0 4.972051,-1.1929 6.53125,-3.0625 -1.018799,0.6632 -2.225004,1.0625 -3.53125,1.0625 -3.589851,0 -6.5,-2.9101 -6.5,-6.5 0,-3.5899 2.910149,-6.5 6.5,-6.5 1.306246,0 2.512451,0.3993 3.53125,1.0625 -1.559199,-1.8696 -3.906486,-3.0625 -6.53125,-3.0625 z m 5,4 -1,3 -3.5,0 3,2 -1.5,3.5 3,-2 3,2 -1.5,-3.5 3,-2 -3.5,0 -1,-3 z" fill="#444" overflow="visible" enable-background="accumulate"/>
        </g>
        <rect width="24" height="24" x="6" y="1074.362" opacity=".5" overflow="visible" enable-background="accumulate" fill="none"/>
    </g>
</svg>
