<svg xmlns="http://www.w3.org/2000/svg" width="18" height="18">
    <g transform="translate(0 -1034.362) translate(-30 -16)" color="#000">
        <g>
            <path d="m 38,1051.3622 c -0.738667,0 -1,0.7614 -1,1.5 l 0,2.5 -4,0 0,2 4,0 0,9 2,0 0,-9 4,0 0,-2 -4,0 0,-2.5 c 0,-0.7386 -0.261334,-1.5 -1,-1.5 z" opacity=".3" fill="#fff" stroke="#fff" stroke-width="2" stroke-linejoin="round" overflow="visible" enable-background="accumulate" transform="translate(1)"/>
            <path d="m 38,1051.3622 c -0.738667,0 -1,0.7614 -1,1.5 l 0,2.5 -4,0 0,2 4,0 0,9 2,0 0,-9 4,0 0,-2 -4,0 0,-2.5 c 0,-0.7386 -0.261334,-1.5 -1,-1.5 z" fill="#444" overflow="visible" enable-background="accumulate" transform="translate(1)"/>
        </g>
        <rect y="1050.362" x="30" height="18" width="18" opacity=".5" overflow="visible" enable-background="accumulate" fill="none"/>
    </g>
</svg>
