<?xml version="1.0" encoding="UTF-8" standalone="no"?>
<!-- Created with Inkscape (http://www.inkscape.org/) -->

<svg
   xmlns:dc="http://purl.org/dc/elements/1.1/"
   xmlns:cc="http://creativecommons.org/ns#"
   xmlns:rdf="http://www.w3.org/1999/02/22-rdf-syntax-ns#"
   xmlns:svg="http://www.w3.org/2000/svg"
   xmlns="http://www.w3.org/2000/svg"
   xmlns:sodipodi="http://sodipodi.sourceforge.net/DTD/sodipodi-0.dtd"
   xmlns:inkscape="http://www.inkscape.org/namespaces/inkscape"
   width="24"
   height="24"
   id="svg4460"
   version="1.1"
   inkscape:version="0.48.2 r9819"
   sodipodi:docname="cafe-24.svg">
  <defs
     id="defs4462" />
  <sodipodi:namedview
     id="base"
     pagecolor="#ffffff"
     bordercolor="#666666"
     borderopacity="1.0"
     inkscape:pageopacity="0.0"
     inkscape:pageshadow="2"
     inkscape:zoom="11.313708"
     inkscape:cx="15.622727"
     inkscape:cy="6.9146856"
     inkscape:document-units="px"
     inkscape:current-layer="layer1"
     showgrid="true"
     showguides="true"
     inkscape:guide-bbox="true"
     inkscape:window-width="1220"
     inkscape:window-height="833"
     inkscape:window-x="25"
     inkscape:window-y="195"
     inkscape:window-maximized="0"
     inkscape:snap-bbox="true"
     inkscape:snap-nodes="false">
    <inkscape:grid
       type="xygrid"
       id="grid4468"
       empspacing="5"
       visible="true"
       enabled="true"
       snapvisiblegridlinesonly="true"
       spacingx="1px"
       spacingy="1px" />
    <sodipodi:guide
       orientation="1,0"
       position="0,20"
       id="guide4470" />
    <sodipodi:guide
       orientation="0,1"
       position="4,24"
       id="guide4472" />
    <sodipodi:guide
       orientation="1,0"
       position="24,13"
       id="guide4474" />
    <sodipodi:guide
       orientation="0,1"
       position="15,0"
       id="guide4476" />
    <sodipodi:guide
       orientation="1,0"
       position="23,20"
       id="guide4478" />
    <sodipodi:guide
       orientation="0,1"
       position="20,23"
       id="guide4480" />
    <sodipodi:guide
       orientation="1,0"
       position="2,5"
       id="guide4482" />
    <sodipodi:guide
       orientation="0,1"
       position="7,2"
       id="guide4484" />
    <sodipodi:guide
       orientation="1,0"
       position="13,16"
       id="guide4486" />
    <sodipodi:guide
       orientation="0,1"
       position="16,13"
       id="guide4490" />
  </sodipodi:namedview>
  <metadata
     id="metadata4465">
    <rdf:RDF>
      <cc:Work
         rdf:about="">
        <dc:format>image/svg+xml</dc:format>
        <dc:type
           rdf:resource="http://purl.org/dc/dcmitype/StillImage" />
        <dc:title></dc:title>
      </cc:Work>
    </rdf:RDF>
  </metadata>
  <g
     inkscape:label="Layer 1"
     inkscape:groupmode="layer"
     id="layer1"
     transform="translate(0,-1028.3622)">
    <g
       style="display:inline"
       id="restaurant-24"
       inkscape:label="restaurant-24"
       transform="translate(-318,-21.999983)"
       inkscape:export-xdpi="89.996864"
       inkscape:export-ydpi="89.996864">
      <g
         transform="translate(0,-1)"
         id="g16702">
        <path
           sodipodi:nodetypes="scsscccsscssscsccsccsccsccscsssscsssc"
           inkscape:connector-curvature="0"
           id="path5418"
           transform="translate(-198,1027.3622)"
           d="m 523.5,26 c -0.5,0 -0.5,0.5 -0.5,0.5 l 0,6 c 0,0.505147 0.5,1 1,1.5 0.5,0.5 0.52601,1.00584 0.5,1.5 l 0,1.5 -0.5,6.5 c -0.0383,0.4985 0.5,1.5 1.5,1.5 1,0 1.53846,-1 1.5,-1.5 l -0.5,-6.5 0,-1.5 c 0,-0.478617 0,-1 0.5,-1.5 0.46054,-0.460539 1,-0.978617 1,-1.5 l 0,-6 c 0,0 0,-0.5 -0.5,-0.5 -0.5,0 -0.5,0.5 -0.5,0.5 l 0,4.5 c 0,0 0,0.5 -0.5,0.5 C 526,31.5 526,31 526,31 l 0,-4.5 c 0,0 0,-0.5 -0.5,-0.5 -0.5,0 -0.5,0.5 -0.5,0.5 l 0,4.5 c 0,0 0,0.5 -0.5,0.5 C 524,31.5 524,31 524,31 l 0,-4.5 c 0,0 0,-0.5 -0.5,-0.5 z m 10.5,0 c -1,0 -2.86754,0.2351 -3.5,1.5 -0.5,1 -0.5,3.5 -0.5,4.5 l 0,5 c 0,0.5 0.5,1 1,1 l 1,0 0,6 c 0,0.5 0.5,1 1,1 0.5,0 1,-0.5 1,-1 z"
           style="opacity:0.3;color:#000000;fill:#ffffff;fill-opacity:1;fill-rule:nonzero;stroke:#ffffff;stroke-width:2;stroke-linecap:butt;stroke-linejoin:round;stroke-miterlimit:4;stroke-opacity:1;stroke-dasharray:none;stroke-dashoffset:0;marker:none;visibility:visible;display:inline;overflow:visible;enable-background:accumulate" />
        <path
           style="color:#000000;fill:#444444;fill-opacity:1;fill-rule:nonzero;stroke:none;stroke-width:2;marker:none;visibility:visible;display:inline;overflow:visible;enable-background:accumulate"
           d="m 523.5,26 c -0.5,0 -0.5,0.5 -0.5,0.5 l 0,6 c 0,0.5 0.5,1 1,1.5 0.5,0.5 0.5,1 0.5,1.5 0,0 0,1 0,1.5 0,0.5 -0.5,6.5 -0.5,6.5 -0.0383,0.4985 0.5,1.5 1.5,1.5 1,0 1.53846,-1 1.5,-1.5 0,0 -0.5,-6 -0.5,-6.5 0,-0.5 0,-1.5 0,-1.5 0,-0.5 0,-1 0.5,-1.5 0.46054,-0.460539 1,-1 1,-1.5 l 0,-6 c 0,0 0,-0.5 -0.5,-0.5 -0.5,0 -0.5,0.5 -0.5,0.5 l 0,4.5 c 0,0 0,0.5 -0.5,0.5 C 526,31.5 526,31 526,31 l 0,-4.5 c 0,0 0,-0.5 -0.5,-0.5 -0.5,0 -0.5,0.5 -0.5,0.5 l 0,4.5 c 0,0 0,0.5 -0.5,0.5 C 524,31.5 524,31 524,31 l 0,-4.5 c 0,0 0,-0.5 -0.5,-0.5 z m 10.5,0 c -1,0 -2.86754,0.2351 -3.5,1.5 -0.5,1 -0.5,3.5 -0.5,4.5 l 0,5 c 0,0.5 0.5,1 1,1 l 1,0 0,6 c 0,0.5 0.5,1 1,1 0.5,0 1,-0.5 1,-1 z"
           transform="translate(-198,1027.3622)"
           id="path5304"
           inkscape:connector-curvature="0"
           sodipodi:nodetypes="scsscccssccsscsccsccsccsccscsssscsssc" />
      </g>
      <rect
         style="opacity:0.5;color:#000000;fill:none;stroke:none;stroke-width:2;marker:none;visibility:visible;display:inline;overflow:visible;enable-background:accumulate"
         id="rect22282-0"
         width="24"
         height="24.000017"
         x="318"
         y="1050.3622" />
    </g>
  </g>
</svg>
