<svg xmlns="http://www.w3.org/2000/svg" width="18" height="18">
    <g transform="translate(0 -1034.362) translate(-342 -16)" color="#000">
        <g>
            <path d="m 348,1052.3622 -1,0 c 0,1.2963 0,3.2037 0,4.5 0,0.7777 1,0.7222 1,1.5 l 0,7 c 0,0.3889 0.5,1 1,1 0.5,0 1,-0.5 1,-1 l 0,-7 c 0,-0.7778 1,-0.7223 1,-1.5 0,-1.2963 0,-3.2037 0,-4.5 l -1,0 0,3 -0.5,0 0,-3 -1,0 0,3 -0.5,0 z m 8,0 c -0.77778,0 -2.00808,0.5162 -2.5,1.5 -0.38889,0.7777 -0.5,2.5 -0.5,3.5 l 0,3 c 0,0.5 0.61111,1 1,1 l 0,4 c 0,0.5 0.5,1 1,1 0.5,0 1,-0.5 1,-1 z" opacity=".3" fill="#fff" stroke="#fff" stroke-width="2" stroke-linejoin="round" overflow="visible" enable-background="accumulate"/>
            <path d="m 348,1052.3622 -1,0 c 0,1.2963 0,3.2037 0,4.5 0,0.7777 1,0.7222 1,1.5 l 0,7 c 0,0.3889 0.5,1 1,1 0.5,0 1,-0.5 1,-1 l 0,-7 c 0,-0.7778 1,-0.7223 1,-1.5 0,-1.2963 0,-3.2037 0,-4.5 l -1,0 0,3 -0.5,0 0,-3 -1,0 0,3 -0.5,0 z m 8,0 c -0.77778,0 -2.00808,0.5162 -2.5,1.5 -0.38889,0.7777 -0.5,2.5 -0.5,3.5 l 0,3 c 0,0.5 0.61111,1 1,1 l 0,4 c 0,0.5 0.5,1 1,1 0.5,0 1,-0.5 1,-1 z" fill="#444" overflow="visible" enable-background="accumulate"/>
        </g>
        <rect y="1050.362" x="342" height="18" width="18" opacity=".5" overflow="visible" enable-background="accumulate" fill="none"/>
    </g>
</svg>
