<svg xmlns="http://www.w3.org/2000/svg" width="24" height="24">
    <g transform="translate(0 -1028.362) translate(-318 -22)" color="#000">
        <g>
            <path transform="translate(0 -1) translate(-198 1027.362)" d="m 523.5,26 c -0.5,0 -0.5,0.5 -0.5,0.5 l 0,6 c 0,0.505147 0.5,1 1,1.5 0.5,0.5 0.52601,1.00584 0.5,1.5 l 0,1.5 -0.5,6.5 c -0.0383,0.4985 0.5,1.5 1.5,1.5 1,0 1.53846,-1 1.5,-1.5 l -0.5,-6.5 0,-1.5 c 0,-0.478617 0,-1 0.5,-1.5 0.46054,-0.460539 1,-0.978617 1,-1.5 l 0,-6 c 0,0 0,-0.5 -0.5,-0.5 -0.5,0 -0.5,0.5 -0.5,0.5 l 0,4.5 c 0,0 0,0.5 -0.5,0.5 C 526,31.5 526,31 526,31 l 0,-4.5 c 0,0 0,-0.5 -0.5,-0.5 -0.5,0 -0.5,0.5 -0.5,0.5 l 0,4.5 c 0,0 0,0.5 -0.5,0.5 C 524,31.5 524,31 524,31 l 0,-4.5 c 0,0 0,-0.5 -0.5,-0.5 z m 10.5,0 c -1,0 -2.86754,0.2351 -3.5,1.5 -0.5,1 -0.5,3.5 -0.5,4.5 l 0,5 c 0,0.5 0.5,1 1,1 l 1,0 0,6 c 0,0.5 0.5,1 1,1 0.5,0 1,-0.5 1,-1 z" opacity=".3" fill="#fff" stroke="#fff" stroke-width="2" stroke-linejoin="round" overflow="visible" enable-background="accumulate"/>
            <path d="m 523.5,26 c -0.5,0 -0.5,0.5 -0.5,0.5 l 0,6 c 0,0.5 0.5,1 1,1.5 0.5,0.5 0.5,1 0.5,1.5 0,0 0,1 0,1.5 0,0.5 -0.5,6.5 -0.5,6.5 -0.0383,0.4985 0.5,1.5 1.5,1.5 1,0 1.53846,-1 1.5,-1.5 0,0 -0.5,-6 -0.5,-6.5 0,-0.5 0,-1.5 0,-1.5 0,-0.5 0,-1 0.5,-1.5 0.46054,-0.460539 1,-1 1,-1.5 l 0,-6 c 0,0 0,-0.5 -0.5,-0.5 -0.5,0 -0.5,0.5 -0.5,0.5 l 0,4.5 c 0,0 0,0.5 -0.5,0.5 C 526,31.5 526,31 526,31 l 0,-4.5 c 0,0 0,-0.5 -0.5,-0.5 -0.5,0 -0.5,0.5 -0.5,0.5 l 0,4.5 c 0,0 0,0.5 -0.5,0.5 C 524,31.5 524,31 524,31 l 0,-4.5 c 0,0 0,-0.5 -0.5,-0.5 z m 10.5,0 c -1,0 -2.86754,0.2351 -3.5,1.5 -0.5,1 -0.5,3.5 -0.5,4.5 l 0,5 c 0,0.5 0.5,1 1,1 l 1,0 0,6 c 0,0.5 0.5,1 1,1 0.5,0 1,-0.5 1,-1 z" transform="translate(0 -1) translate(-198 1027.362)" fill="#444" overflow="visible" enable-background="accumulate"/>
        </g>
        <rect width="24" height="24" x="318" y="1050.362" opacity=".5" overflow="visible" enable-background="accumulate" fill="none"/>
    </g>
</svg>
