<?xml version="1.0" encoding="UTF-8" standalone="no"?>
<!-- Created with Inkscape (http://www.inkscape.org/) -->

<svg
   xmlns:dc="http://purl.org/dc/elements/1.1/"
   xmlns:cc="http://creativecommons.org/ns#"
   xmlns:rdf="http://www.w3.org/1999/02/22-rdf-syntax-ns#"
   xmlns:svg="http://www.w3.org/2000/svg"
   xmlns="http://www.w3.org/2000/svg"
   xmlns:sodipodi="http://sodipodi.sourceforge.net/DTD/sodipodi-0.dtd"
   xmlns:inkscape="http://www.inkscape.org/namespaces/inkscape"
   width="24"
   height="24"
   id="svg4460"
   version="1.1"
   inkscape:version="0.48.4 r9939"
   sodipodi:docname="rocket-24.svg"
   inkscape:export-filename="renders/rocket-24.png"
   inkscape:export-xdpi="90"
   inkscape:export-ydpi="90">
  <defs
     id="defs4462" />
  <sodipodi:namedview
     id="base"
     pagecolor="#ffffff"
     bordercolor="#666666"
     borderopacity="1.0"
     inkscape:pageopacity="0.0"
     inkscape:pageshadow="2"
     inkscape:zoom="5.6568542"
     inkscape:cx="21.112938"
     inkscape:cy="5.6608446"
     inkscape:document-units="px"
     inkscape:current-layer="layer1"
     showgrid="false"
     showguides="false"
     inkscape:guide-bbox="true"
     inkscape:window-width="1215"
     inkscape:window-height="776"
     inkscape:window-x="65"
     inkscape:window-y="24"
     inkscape:window-maximized="1"
     inkscape:snap-bbox="true">
    <inkscape:grid
       type="xygrid"
       id="grid4468"
       empspacing="5"
       visible="true"
       enabled="true"
       snapvisiblegridlinesonly="true" />
    <sodipodi:guide
       orientation="1,0"
       position="0,20"
       id="guide4470" />
    <sodipodi:guide
       orientation="0,1"
       position="4,24"
       id="guide4472" />
    <sodipodi:guide
       orientation="1,0"
       position="24,13"
       id="guide4474" />
    <sodipodi:guide
       orientation="0,1"
       position="15,0"
       id="guide4476" />
    <sodipodi:guide
       orientation="1,0"
       position="23,20"
       id="guide4478" />
    <sodipodi:guide
       orientation="0,1"
       position="20,23"
       id="guide4480" />
    <sodipodi:guide
       orientation="1,0"
       position="2,5"
       id="guide4482" />
    <sodipodi:guide
       orientation="0,1"
       position="7,2"
       id="guide4484" />
    <sodipodi:guide
       orientation="1,0"
       position="13,5"
       id="guide4486" />
  </sodipodi:namedview>
  <metadata
     id="metadata4465">
    <rdf:RDF>
      <cc:Work
         rdf:about="">
        <dc:format>image/svg+xml</dc:format>
        <dc:type
           rdf:resource="http://purl.org/dc/dcmitype/StillImage" />
        <dc:title></dc:title>
      </cc:Work>
    </rdf:RDF>
  </metadata>
  <g
     inkscape:label="Layer 1"
     inkscape:groupmode="layer"
     id="layer1"
     transform="translate(0,-1028.3622)">
    <path
       id="path3876"
       transform="translate(0,1028.3622)"
       d="M 22.75,1.25 C 22,0.5 16.5,2.5 12.5,6.5 9.5,9.5 7,14 7,14 c 0,1 2,3 3,3 0,0 4.5,-2.5 7.5,-5.5 4,-4 6,-9.5 5.25,-10.25 z M 16.5,6 C 17.328427,6 18,6.6715729 18,7.5 18,8.3284271 17.328427,9 16.5,9 15.671573,9 15,8.3284271 15,7.5 15,6.6715729 15.671573,6 16.5,6 z M 6,9 2,13 2,14 6,12 7.5,12 9,9 z m 9,6 -3,1.5 0,1.5 -2,4 1,0 4,-4 z"
       style="fill:#666666;stroke:#ffffff;stroke-width:2;stroke-linecap:round;stroke-linejoin:round;stroke-miterlimit:4;stroke-dasharray:none;opacity:0.3"
       inkscape:connector-curvature="0"
       sodipodi:nodetypes="zsccszssssscccccccccccccc"
       inkscape:export-filename="/home/aj/Ubuntu One/tmp/rocket-24@2x.png"
       inkscape:export-xdpi="180.05"
       inkscape:export-ydpi="180.05" />
    <path
       style="fill:#444444;fill-opacity:1;stroke:none"
       d="M 22.75,1.25 C 22,0.5 16.5,2.5 12.5,6.5 9.5,9.5 7,14 7,14 c 0,1 2,3 3,3 0,0 4.25,-2.25 7.25,-5.25 4,-4 6.25,-9.75 5.5,-10.5 z M 16.5,6 C 17.328427,6 18,6.6715729 18,7.5 18,8.3284271 17.328427,9 16.5,9 15.671573,9 15,8.3284271 15,7.5 15,6.6715729 15.671573,6 16.5,6 z M 6,9 l -4,4 0,1 4,-2 1.25,0 2,-3 z m 9,5.75 -3,2 0,1.25 -2,4 1,0 4,-4 z"
       transform="translate(0,1028.3622)"
       id="path3088"
       inkscape:connector-curvature="0"
       sodipodi:nodetypes="zsccszssssscccccccccccccc"
       inkscape:export-filename="/home/aj/Ubuntu One/tmp/rocket-24@2x.png"
       inkscape:export-xdpi="180.05"
       inkscape:export-ydpi="180.05" />
  </g>
</svg>
