<svg xmlns="http://www.w3.org/2000/svg" width="18" height="18">
    <g>
        <path transform="translate(0 -1034.362) translate(0 1034.362)" d="M 16.53125 1 C 15.376152 0.95337344 12.042545 2.36375 9.53125 4.875 C 7.378712 7.0275 5.59375 10.25 5.59375 10.25 C 5.59375 10.9674 7.0324874 12.40625 7.75 12.40625 C 7.75 12.40625 10.784962 10.80885 12.9375 8.65625 C 15.80755 5.78625 17.413134 1.663 16.875 1.125 C 16.807733 1.057725 16.696264 1.0066609 16.53125 1 z M 12.5 4.25 C 13.190356 4.25 13.75 4.8096441 13.75 5.5 C 13.75 6.1903559 13.190356 6.75 12.5 6.75 C 11.809644 6.75 11.25 6.1903559 11.25 5.5 C 11.25 4.8096441 11.809644 4.25 12.5 4.25 z M 5 7 L 2 9.5 L 2 10 L 5 9 L 5.75 9 L 7 7 L 5 7 z M 11 11 L 9 12.25 L 9 13 L 8 16 L 8.5 16 L 11 13 L 11 11 z" stroke="#fff" stroke-width="2" stroke-linejoin="round" stroke-linecap="round" opacity=".3" fill="none"/>
        <path d="M 16.53125 1 C 15.376152 0.95337344 12.042545 2.36375 9.53125 4.875 C 7.378712 7.0275 5.59375 10.25 5.59375 10.25 C 5.59375 10.9674 7.0324874 12.40625 7.75 12.40625 C 7.75 12.40625 10.784962 10.80885 12.9375 8.65625 C 15.80755 5.78625 17.413134 1.663 16.875 1.125 C 16.807733 1.057725 16.696264 1.0066609 16.53125 1 z M 12.5 4.25 C 13.190356 4.25 13.75 4.8096441 13.75 5.5 C 13.75 6.1903559 13.190356 6.75 12.5 6.75 C 11.809644 6.75 11.25 6.1903559 11.25 5.5 C 11.25 4.8096441 11.809644 4.25 12.5 4.25 z M 5 7 L 2 9.5 L 2 10 L 5 9 L 5.75 9 L 7 7 L 5 7 z M 11 11 L 9 12.25 L 9 13 L 8 16 L 8.5 16 L 11 13 L 11 11 z" transform="translate(0 -1034.362) translate(0 1034.362)" fill="#444"/>
    </g>
</svg>
