<svg xmlns="http://www.w3.org/2000/svg" width="24" height="24">
    <g>
        <path transform="translate(0 -1028.362) translate(0 1028.362)" d="M 22.75,1.25 C 22,0.5 16.5,2.5 12.5,6.5 9.5,9.5 7,14 7,14 c 0,1 2,3 3,3 0,0 4.5,-2.5 7.5,-5.5 4,-4 6,-9.5 5.25,-10.25 z M 16.5,6 C 17.328427,6 18,6.6715729 18,7.5 18,8.3284271 17.328427,9 16.5,9 15.671573,9 15,8.3284271 15,7.5 15,6.6715729 15.671573,6 16.5,6 z M 6,9 2,13 2,14 6,12 7.5,12 9,9 z m 9,6 -3,1.5 0,1.5 -2,4 1,0 4,-4 z" fill="#666" stroke="#fff" stroke-width="2" stroke-linecap="round" stroke-linejoin="round" opacity=".3"/>
        <path d="M 22.75,1.25 C 22,0.5 16.5,2.5 12.5,6.5 9.5,9.5 7,14 7,14 c 0,1 2,3 3,3 0,0 4.25,-2.25 7.25,-5.25 4,-4 6.25,-9.75 5.5,-10.5 z M 16.5,6 C 17.328427,6 18,6.6715729 18,7.5 18,8.3284271 17.328427,9 16.5,9 15.671573,9 15,8.3284271 15,7.5 15,6.6715729 15.671573,6 16.5,6 z M 6,9 l -4,4 0,1 4,-2 1.25,0 2,-3 z m 9,5.75 -3,2 0,1.25 -2,4 1,0 4,-4 z" transform="translate(0 -1028.362) translate(0 1028.362)" fill="#444"/>
    </g>
</svg>
