<?xml version="1.0" encoding="UTF-8" standalone="no"?>
<!-- Created with Inkscape (http://www.inkscape.org/) -->

<svg
   xmlns:dc="http://purl.org/dc/elements/1.1/"
   xmlns:cc="http://creativecommons.org/ns#"
   xmlns:rdf="http://www.w3.org/1999/02/22-rdf-syntax-ns#"
   xmlns:svg="http://www.w3.org/2000/svg"
   xmlns="http://www.w3.org/2000/svg"
   xmlns:sodipodi="http://sodipodi.sourceforge.net/DTD/sodipodi-0.dtd"
   xmlns:inkscape="http://www.inkscape.org/namespaces/inkscape"
   width="12"
   height="12"
   id="svg4764"
   version="1.1"
   inkscape:version="0.48.2 r9819"
   sodipodi:docname="college-12.svg">
  <defs
     id="defs4766" />
  <sodipodi:namedview
     id="base"
     pagecolor="#ffffff"
     bordercolor="#666666"
     borderopacity="1.0"
     inkscape:pageopacity="0.0"
     inkscape:pageshadow="2"
     inkscape:zoom="11.313709"
     inkscape:cx="5.6084938"
     inkscape:cy="5.0524314"
     inkscape:document-units="px"
     inkscape:current-layer="layer1"
     showgrid="true"
     showguides="true"
     inkscape:guide-bbox="true"
     inkscape:window-width="957"
     inkscape:window-height="704"
     inkscape:window-x="24"
     inkscape:window-y="468"
     inkscape:window-maximized="0"
     inkscape:snap-bbox="true"
     inkscape:snap-nodes="false">
    <inkscape:grid
       type="xygrid"
       id="grid4772"
       empspacing="5"
       visible="true"
       enabled="true"
       snapvisiblegridlinesonly="true"
       spacingx="1px"
       spacingy="1px" />
    <sodipodi:guide
       orientation="0,1"
       position="2,12"
       id="guide4789" />
    <sodipodi:guide
       orientation="1,0"
       position="12,10"
       id="guide4791" />
    <sodipodi:guide
       orientation="0,1"
       position="10,0"
       id="guide4793" />
    <sodipodi:guide
       orientation="1,0"
       position="0,9"
       id="guide4795" />
    <sodipodi:guide
       orientation="0,1"
       position="5,11"
       id="guide4797" />
    <sodipodi:guide
       orientation="1,0"
       position="11,7"
       id="guide4799" />
    <sodipodi:guide
       orientation="0,1"
       position="9,2"
       id="guide4801" />
    <sodipodi:guide
       orientation="1,0"
       position="2,5"
       id="guide4803" />
  </sodipodi:namedview>
  <metadata
     id="metadata4769">
    <rdf:RDF>
      <cc:Work
         rdf:about="">
        <dc:format>image/svg+xml</dc:format>
        <dc:type
           rdf:resource="http://purl.org/dc/dcmitype/StillImage" />
        <dc:title></dc:title>
      </cc:Work>
    </rdf:RDF>
  </metadata>
  <g
     inkscape:label="Layer 1"
     inkscape:groupmode="layer"
     id="layer1"
     transform="translate(0,-1040.3622)">
    <g
       style="display:inline"
       id="school-12"
       inkscape:label="school-12"
       transform="translate(-282,-9.9999826)"
       inkscape:export-xdpi="89.996864"
       inkscape:export-ydpi="89.996864">
      <g
         id="g21610">
        <path
           sodipodi:nodetypes="ssssssssssccccccccccccccsccccccscssccccsscccccss"
           inkscape:connector-curvature="0"
           id="path10199"
           d="m 289,1051.8622 c -0.55228,0 -1,0.4477 -1,1 0,0.5523 0.44772,1 1,1 0.55228,0 1,-0.4477 1,-1 0,-0.5523 -0.44772,-1 -1,-1 z m -4,1 c -0.55228,0 -1,0.4477 -1,1 0,0.5523 0.44772,1 1,1 0.55228,0 1,-0.4477 1,-1 0,-0.5523 -0.44772,-1 -1,-1 z m 4.5,1.5 -0.5,0 -2,1 0,1 2,-1 0,1 0,1.5625 -1,3.4375 1,0 1,-3.5 c 0,0 0.25,1.4999 1.25,1.5 0.60093,10e-5 1.41667,0 1.75,0 l 0,-0.75 c -0.25,0 -1.25,-10e-5 -1.5,0 -0.53359,2e-4 -0.5,-0.8012 -0.5,-1.25 0,-0.7501 -0.5,-2 -0.5,-2 l 1.5,0.9375 c 0.4532,0.3021 0.84576,-0.2329 0.40625,-0.5625 l -1.65625,-1.125 c -0.30176,-0.2149 -0.39841,-0.2499 -0.75,-0.25 z m -4.75,1 c -0.25,0 -0.36824,0.1183 -0.5,0.25 l -1.0625,1.0625 c -0.1368,0.1368 -0.1875,0.2593 -0.1875,0.4375 0,0.25 0.38216,0.3678 0.59375,0.1563 l 0.90625,-0.9063 0.5,0 0,1 -1,2.75 c -0.20218,0.556 0.57214,0.7243 0.75,0.25 l 0.50463,-1.3 2.74537,0 0,-0.7 -1.5,0 0,-2 c 0,-0.5 -0.5,-1 -1,-1 z"
           style="opacity:0.3;color:#000000;fill:none;stroke:#ffffff;stroke-width:2;stroke-linecap:round;stroke-linejoin:round;stroke-miterlimit:4;stroke-opacity:1;stroke-dasharray:none;stroke-dashoffset:0;marker:none;visibility:visible;display:inline;overflow:visible;enable-background:accumulate" />
        <path
           style="color:#000000;fill:#444444;fill-opacity:1;fill-rule:nonzero;stroke:none;stroke-width:2;marker:none;visibility:visible;display:inline;overflow:visible;enable-background:accumulate"
           d="m 289,1051.8622 c -0.55228,0 -1,0.4477 -1,1 0,0.5523 0.44772,1 1,1 0.55228,0 1,-0.4477 1,-1 0,-0.5523 -0.44772,-1 -1,-1 z m -4,1 c -0.55228,0 -1,0.4477 -1,1 0,0.5523 0.44772,1 1,1 0.55228,0 1,-0.4477 1,-1 0,-0.5523 -0.44772,-1 -1,-1 z m 4.5,1.5 -0.5,0 -2,1 0,1 2,-1 0,1 0,1.5625 -1,3.4375 1,0 1,-3.5 c 0,0 0.25,1.4999 1.25,1.5 0.60093,10e-5 1.41667,0 1.75,0 l 0,-0.75 c -0.25,0 -1.25,-10e-5 -1.5,0 -0.53359,2e-4 -0.5,-0.8012 -0.5,-1.25 0,-0.7501 -0.5,-2 -0.5,-2 l 1.5,0.9375 c 0.4532,0.3021 0.84576,-0.2329 0.40625,-0.5625 l -1.65625,-1.125 c -0.30176,-0.2149 -0.39841,-0.2499 -0.75,-0.25 z m -4.75,1 c -0.25,0 -0.36824,0.1183 -0.5,0.25 l -1.0625,1.0625 c -0.1368,0.1368 -0.1875,0.2593 -0.1875,0.4375 0,0.25 0.38216,0.3678 0.59375,0.1563 l 0.90625,-0.9063 0.5,0 0,1 -1,2.75 c -0.20218,0.556 0.57214,0.7243 0.75,0.25 l 0.50463,-1.3 2.74537,0 0,-0.7 -1.5,0 0,-2 c 0,-0.5 -0.5,-1 -1,-1 z"
           id="path17501"
           inkscape:connector-curvature="0"
           sodipodi:nodetypes="ssssssssssccccccccccccccsccccccscssccccsscccccss" />
      </g>
      <rect
         style="opacity:0.5;color:#000000;fill:none;stroke:none;stroke-width:2;marker:none;visibility:visible;display:inline;overflow:visible;enable-background:accumulate"
         id="rect22286-0"
         width="11.999998"
         height="12.000007"
         x="282"
         y="1050.3622" />
    </g>
  </g>
</svg>
