<svg xmlns="http://www.w3.org/2000/svg" width="12" height="12">
    <g transform="translate(0 -1040.362) translate(-282 -10)" color="#000">
        <g>
            <path d="m 289,1051.8622 c -0.55228,0 -1,0.4477 -1,1 0,0.5523 0.44772,1 1,1 0.55228,0 1,-0.4477 1,-1 0,-0.5523 -0.44772,-1 -1,-1 z m -4,1 c -0.55228,0 -1,0.4477 -1,1 0,0.5523 0.44772,1 1,1 0.55228,0 1,-0.4477 1,-1 0,-0.5523 -0.44772,-1 -1,-1 z m 4.5,1.5 -0.5,0 -2,1 0,1 2,-1 0,1 0,1.5625 -1,3.4375 1,0 1,-3.5 c 0,0 0.25,1.4999 1.25,1.5 0.60093,10e-5 1.41667,0 1.75,0 l 0,-0.75 c -0.25,0 -1.25,-10e-5 -1.5,0 -0.53359,2e-4 -0.5,-0.8012 -0.5,-1.25 0,-0.7501 -0.5,-2 -0.5,-2 l 1.5,0.9375 c 0.4532,0.3021 0.84576,-0.2329 0.40625,-0.5625 l -1.65625,-1.125 c -0.30176,-0.2149 -0.39841,-0.2499 -0.75,-0.25 z m -4.75,1 c -0.25,0 -0.36824,0.1183 -0.5,0.25 l -1.0625,1.0625 c -0.1368,0.1368 -0.1875,0.2593 -0.1875,0.4375 0,0.25 0.38216,0.3678 0.59375,0.1563 l 0.90625,-0.9063 0.5,0 0,1 -1,2.75 c -0.20218,0.556 0.57214,0.7243 0.75,0.25 l 0.50463,-1.3 2.74537,0 0,-0.7 -1.5,0 0,-2 c 0,-0.5 -0.5,-1 -1,-1 z" opacity=".3" stroke="#fff" stroke-width="2" stroke-linecap="round" stroke-linejoin="round" overflow="visible" enable-background="accumulate" fill="none"/>
            <path d="m 289,1051.8622 c -0.55228,0 -1,0.4477 -1,1 0,0.5523 0.44772,1 1,1 0.55228,0 1,-0.4477 1,-1 0,-0.5523 -0.44772,-1 -1,-1 z m -4,1 c -0.55228,0 -1,0.4477 -1,1 0,0.5523 0.44772,1 1,1 0.55228,0 1,-0.4477 1,-1 0,-0.5523 -0.44772,-1 -1,-1 z m 4.5,1.5 -0.5,0 -2,1 0,1 2,-1 0,1 0,1.5625 -1,3.4375 1,0 1,-3.5 c 0,0 0.25,1.4999 1.25,1.5 0.60093,10e-5 1.41667,0 1.75,0 l 0,-0.75 c -0.25,0 -1.25,-10e-5 -1.5,0 -0.53359,2e-4 -0.5,-0.8012 -0.5,-1.25 0,-0.7501 -0.5,-2 -0.5,-2 l 1.5,0.9375 c 0.4532,0.3021 0.84576,-0.2329 0.40625,-0.5625 l -1.65625,-1.125 c -0.30176,-0.2149 -0.39841,-0.2499 -0.75,-0.25 z m -4.75,1 c -0.25,0 -0.36824,0.1183 -0.5,0.25 l -1.0625,1.0625 c -0.1368,0.1368 -0.1875,0.2593 -0.1875,0.4375 0,0.25 0.38216,0.3678 0.59375,0.1563 l 0.90625,-0.9063 0.5,0 0,1 -1,2.75 c -0.20218,0.556 0.57214,0.7243 0.75,0.25 l 0.50463,-1.3 2.74537,0 0,-0.7 -1.5,0 0,-2 c 0,-0.5 -0.5,-1 -1,-1 z" fill="#444" overflow="visible" enable-background="accumulate"/>
        </g>
        <rect width="12" height="12" x="282" y="1050.362" opacity=".5" overflow="visible" enable-background="accumulate" fill="none"/>
    </g>
</svg>
