<?xml version="1.0" encoding="UTF-8" standalone="no"?>
<!-- Created with Inkscape (http://www.inkscape.org/) -->

<svg
   xmlns:dc="http://purl.org/dc/elements/1.1/"
   xmlns:cc="http://creativecommons.org/ns#"
   xmlns:rdf="http://www.w3.org/1999/02/22-rdf-syntax-ns#"
   xmlns:svg="http://www.w3.org/2000/svg"
   xmlns="http://www.w3.org/2000/svg"
   xmlns:sodipodi="http://sodipodi.sourceforge.net/DTD/sodipodi-0.dtd"
   xmlns:inkscape="http://www.inkscape.org/namespaces/inkscape"
   width="18"
   height="18"
   id="svg4619"
   version="1.1"
   inkscape:version="0.48.2 r9819"
   sodipodi:docname="wetland-18.svg">
  <defs
     id="defs4621" />
  <sodipodi:namedview
     id="base"
     pagecolor="#ffffff"
     bordercolor="#666666"
     borderopacity="1.0"
     inkscape:pageopacity="0.0"
     inkscape:pageshadow="2"
     inkscape:zoom="11.313708"
     inkscape:cx="9.6985107"
     inkscape:cy="10.73833"
     inkscape:document-units="px"
     inkscape:current-layer="layer1"
     showgrid="true"
     showguides="true"
     inkscape:guide-bbox="true"
     inkscape:window-width="1008"
     inkscape:window-height="662"
     inkscape:window-x="76"
     inkscape:window-y="40"
     inkscape:window-maximized="0"
     inkscape:snap-bbox="true"
     inkscape:object-paths="true"
     inkscape:snap-nodes="false">
    <inkscape:grid
       type="xygrid"
       id="grid4627"
       empspacing="5"
       visible="true"
       enabled="true"
       snapvisiblegridlinesonly="true" />
    <sodipodi:guide
       orientation="0,1"
       position="7,18"
       id="guide4659" />
    <sodipodi:guide
       orientation="1,0"
       position="18,9"
       id="guide4661" />
    <sodipodi:guide
       orientation="0,1"
       position="16,17"
       id="guide4663" />
    <sodipodi:guide
       orientation="1,0"
       position="17,14"
       id="guide4665" />
    <sodipodi:guide
       orientation="1,0"
       position="0,16"
       id="guide4667" />
    <sodipodi:guide
       orientation="0,1"
       position="8,0"
       id="guide4669" />
    <sodipodi:guide
       orientation="1,0"
       position="2,10"
       id="guide4671" />
    <sodipodi:guide
       orientation="0,1"
       position="12,2"
       id="guide4673" />
  </sodipodi:namedview>
  <metadata
     id="metadata4624">
    <rdf:RDF>
      <cc:Work
         rdf:about="">
        <dc:format>image/svg+xml</dc:format>
        <dc:type
           rdf:resource="http://purl.org/dc/dcmitype/StillImage" />
        <dc:title></dc:title>
      </cc:Work>
    </rdf:RDF>
  </metadata>
  <g
     inkscape:label="Layer 1"
     inkscape:groupmode="layer"
     id="layer1"
     transform="translate(0,-1034.3622)">
    <g
       style="display:inline"
       id="school-18"
       inkscape:label="school-18"
       transform="translate(-264,-16)"
       inkscape:export-xdpi="89.996864"
       inkscape:export-ydpi="89.996864">
      <g
         transform="translate(0,-1)"
         id="g21614">
        <path
           id="path12957"
           d="m 274.75,1053.3622 c -0.69036,0 -1.25,0.5596 -1.25,1.25 0,0.6904 0.55964,1.25 1.25,1.25 0.69036,0 1.25,-0.5596 1.25,-1.25 0,-0.6904 -0.55964,-1.25 -1.25,-1.25 z m -5.6875,1 c -0.69036,0 -1.25,0.5596 -1.25,1.25 0,0.6904 0.55964,1.25 1.25,1.25 0.69036,0 1.25,-0.5596 1.25,-1.25 0,-0.6904 -0.55964,-1.25 -1.25,-1.25 z m 6.6875,2 c -0.27951,0 -0.73981,0.1009 -1.125,0.375 l -2.4375,1.75 c -0.66135,0.4706 -0.0545,1.2832 0.5625,0.875 l 1.59375,-1.0625 c 0,0 0.43663,0.3561 0.65625,1.0625 l -0.0312,1.8438 -1.625,4.3437 c -0.18821,0.5019 0.16603,0.8175 0.53125,0.8125 0.23949,0 0.47639,-0.1604 0.59375,-0.4375 l 2.03125,-4.5625 c 0,0 0.375,1.9999 1.875,2 0.90139,10e-5 1.625,0 2.125,0 0.5,0 0.5,-0.5 0.5,-0.5 0,0 0,-0.5 -0.5,-0.5 -0.375,0 -1.625,-10e-5 -2,0 0,0 -0.5,0 -0.5,-1 0,-0.7037 -0.78022,-2.4984 -1,-3 l 0,-0.5 2.5,1.375 c 0.6798,0.4533 1.28427,-0.3492 0.625,-0.8437 l -2.625,-1.5313 c -0.51696,-0.2904 -1.08223,-0.5 -1.75,-0.5 z m -7.125,1 c -0.375,0 -0.55236,0.1774 -0.75,0.375 l -1.59375,1.5938 c -0.2052,0.2052 -0.28125,0.3888 -0.28125,0.6562 0,0.375 0.55763,0.5673 0.875,0.25 l 1.375,-1.375 c 0.3148,0 0.75,0.039 0.75,0.5 l 0,2.125 -1.125,3 c -0.3116,0.8309 0.8582,1.0865 1.125,0.375 l 1.125,-3 c 0,0 0.375,0.5 1.125,0.5 l 2.1875,0 c 0.75,0 0.75,-1 0,-1 l -1.9375,0 c 0,0 -0.5,0 -0.5,-0.5 l 0,-0.75 c 0,-1.5 -0.5,-2.75 -1.25,-2.75 l -1.125,0 z"
           style="opacity:0.3;color:#000000;fill:none;stroke:#ffffff;stroke-width:2;stroke-linecap:round;stroke-linejoin:round;stroke-miterlimit:4;stroke-opacity:1;stroke-dasharray:none;stroke-dashoffset:0;marker:none;visibility:visible;display:inline;overflow:visible;enable-background:accumulate"
           inkscape:connector-curvature="0" />
        <path
           style="color:#000000;fill:#444444;fill-opacity:1;fill-rule:nonzero;stroke:none;stroke-width:2;marker:none;visibility:visible;display:inline;overflow:visible;enable-background:accumulate"
           d="m 274.75,1053.3622 c -0.69036,0 -1.25,0.5596 -1.25,1.25 0,0.6904 0.55964,1.25 1.25,1.25 0.69036,0 1.25,-0.5596 1.25,-1.25 0,-0.6904 -0.55964,-1.25 -1.25,-1.25 z m -5.6875,1 c -0.69036,0 -1.25,0.5596 -1.25,1.25 0,0.6904 0.55964,1.25 1.25,1.25 0.69036,0 1.25,-0.5596 1.25,-1.25 0,-0.6904 -0.55964,-1.25 -1.25,-1.25 z m 6.6875,2 c -0.27951,0 -0.73981,0.1009 -1.125,0.375 l -2.4375,1.75 c -0.66135,0.4706 -0.0545,1.2832 0.5625,0.875 l 1.59375,-1.0625 c 0,0 0.43663,0.3561 0.65625,1.0625 l -0.0312,1.8438 -1.625,4.3437 c -0.18821,0.5019 0.16603,0.8175 0.53125,0.8125 0.23949,0 0.47639,-0.1604 0.59375,-0.4375 l 2.03125,-4.5625 c 0,0 0.375,1.9999 1.875,2 0.90139,10e-5 1.625,0 2.125,0 0.5,0 0.5,-0.5 0.5,-0.5 0,0 0,-0.5 -0.5,-0.5 -0.375,0 -1.625,-10e-5 -2,0 0,0 -0.5,0 -0.5,-1 0,-0.7037 -0.78022,-2.4984 -1,-3 l 0,-0.5 2.5,1.375 c 0.6798,0.4533 1.28427,-0.3492 0.625,-0.8437 l -2.625,-1.5313 c -0.51696,-0.2904 -1.08223,-0.5 -1.75,-0.5 z m -7.125,1 c -0.375,0 -0.55236,0.1774 -0.75,0.375 l -1.59375,1.5938 c -0.2052,0.2052 -0.28125,0.3888 -0.28125,0.6562 0,0.375 0.55763,0.5673 0.875,0.25 l 1.375,-1.375 c 0.3148,0 0.75,0.039 0.75,0.5 l 0,2.125 -1.125,3 c -0.3116,0.8309 0.8582,1.0865 1.125,0.375 l 1.125,-3 c 0,0 0.375,0.5 1.125,0.5 l 2.1875,0 c 0.75,0 0.75,-1 0,-1 l -1.9375,0 c 0,0 -0.5,0 -0.5,-0.5 l 0,-0.75 c 0,-1.5 -0.5,-2.75 -1.25,-2.75 l -1.125,0 z"
           id="path17507"
           inkscape:connector-curvature="0" />
      </g>
      <rect
         y="1050.3622"
         x="263.99997"
         height="18.000031"
         width="18.000017"
         id="rect22284-1"
         style="opacity:0.5;color:#000000;fill:none;stroke:none;stroke-width:2;marker:none;visibility:visible;display:inline;overflow:visible;enable-background:accumulate" />
    </g>
  </g>
</svg>
