<?xml version="1.0" encoding="UTF-8" standalone="no"?>
<!-- Created with Inkscape (http://www.inkscape.org/) -->

<svg
   xmlns:dc="http://purl.org/dc/elements/1.1/"
   xmlns:cc="http://creativecommons.org/ns#"
   xmlns:rdf="http://www.w3.org/1999/02/22-rdf-syntax-ns#"
   xmlns:svg="http://www.w3.org/2000/svg"
   xmlns="http://www.w3.org/2000/svg"
   xmlns:sodipodi="http://sodipodi.sourceforge.net/DTD/sodipodi-0.dtd"
   xmlns:inkscape="http://www.inkscape.org/namespaces/inkscape"
   width="24"
   height="24"
   id="svg4460"
   version="1.1"
   inkscape:version="0.48.2 r9819"
   sodipodi:docname="fast-food-24.svg">
  <defs
     id="defs4462" />
  <sodipodi:namedview
     id="base"
     pagecolor="#ffffff"
     bordercolor="#666666"
     borderopacity="1.0"
     inkscape:pageopacity="0.0"
     inkscape:pageshadow="2"
     inkscape:zoom="11.313708"
     inkscape:cx="15.622727"
     inkscape:cy="6.9146856"
     inkscape:document-units="px"
     inkscape:current-layer="layer1"
     showgrid="true"
     showguides="true"
     inkscape:guide-bbox="true"
     inkscape:window-width="1220"
     inkscape:window-height="833"
     inkscape:window-x="25"
     inkscape:window-y="195"
     inkscape:window-maximized="0"
     inkscape:snap-bbox="true"
     inkscape:snap-nodes="false">
    <inkscape:grid
       type="xygrid"
       id="grid4468"
       empspacing="5"
       visible="true"
       enabled="true"
       snapvisiblegridlinesonly="true"
       spacingx="1px"
       spacingy="1px" />
    <sodipodi:guide
       orientation="1,0"
       position="0,20"
       id="guide4470" />
    <sodipodi:guide
       orientation="0,1"
       position="4,24"
       id="guide4472" />
    <sodipodi:guide
       orientation="1,0"
       position="24,13"
       id="guide4474" />
    <sodipodi:guide
       orientation="0,1"
       position="15,0"
       id="guide4476" />
    <sodipodi:guide
       orientation="1,0"
       position="23,20"
       id="guide4478" />
    <sodipodi:guide
       orientation="0,1"
       position="20,23"
       id="guide4480" />
    <sodipodi:guide
       orientation="1,0"
       position="2,5"
       id="guide4482" />
    <sodipodi:guide
       orientation="0,1"
       position="7,2"
       id="guide4484" />
    <sodipodi:guide
       orientation="1,0"
       position="13,16"
       id="guide4486" />
    <sodipodi:guide
       orientation="0,1"
       position="16,13"
       id="guide4490" />
  </sodipodi:namedview>
  <metadata
     id="metadata4465">
    <rdf:RDF>
      <cc:Work
         rdf:about="">
        <dc:format>image/svg+xml</dc:format>
        <dc:type
           rdf:resource="http://purl.org/dc/dcmitype/StillImage" />
        <dc:title></dc:title>
      </cc:Work>
    </rdf:RDF>
  </metadata>
  <g
     inkscape:label="Layer 1"
     inkscape:groupmode="layer"
     id="layer1"
     transform="translate(0,-1028.3622)">
    <g
       style="display:inline"
       id="shop-24"
       inkscape:label="shop-24"
       transform="translate(-318,-69.999983)"
       inkscape:export-xdpi="89.996864"
       inkscape:export-ydpi="89.996864">
      <g
         transform="translate(-1,-1)"
         id="g16678">
        <path
           sodipodi:nodetypes="ssccccccccccssssssccss"
           inkscape:connector-curvature="0"
           id="path13307"
           d="m 330,1102.3622 c -1,0 -1.88616,1.0065 -2,2 l -0.34375,3 -1.65625,0 c -0.5,0 -1,0.5 -1,1 l -1,10 c 0,0.5 0.5,1 1,1 l 13,0 c 0.5,0 1,-0.5 1,-1 l -1,-10 c 0,-0.5 -0.5,-1 -1,-1 l -1.65625,0 -0.34375,-3 c -0.11384,-0.9935 -1,-2 -2,-2 z m 0,1 3,0 c 0.5,0 0.94308,0.5033 1,1 l 0.34375,3 -5.6875,0 0.34375,-3 c 0.0569,-0.4967 0.5,-1 1,-1 z"
           style="opacity:0.3;color:#000000;fill:none;stroke:#ffffff;stroke-width:2;stroke-linecap:butt;stroke-linejoin:round;stroke-miterlimit:4;stroke-opacity:1;stroke-dasharray:none;stroke-dashoffset:0;marker:none;visibility:visible;display:inline;overflow:visible;enable-background:accumulate" />
        <path
           style="color:#000000;fill:#444444;fill-opacity:1;fill-rule:nonzero;stroke:none;stroke-width:2;marker:none;visibility:visible;display:inline;overflow:visible;enable-background:accumulate"
           d="m 330,1102.3622 c -1,0 -1.88616,1.0065 -2,2 l -0.34375,3 -1.65625,0 c -0.5,0 -1,0.5 -1,1 l -1,10 c 0,0.5 0.5,1 1,1 l 13,0 c 0.5,0 1,-0.5 1,-1 l -1,-10 c 0,-0.5 -0.5,-1 -1,-1 l -1.65625,0 -0.34375,-3 c -0.11384,-0.9935 -1,-2 -2,-2 z m 0,1 3,0 c 0.5,0 0.94308,0.5033 1,1 l 0.34375,3 -5.6875,0 0.34375,-3 c 0.0569,-0.4967 0.5,-1 1,-1 z"
           id="rect13131-6"
           inkscape:connector-curvature="0"
           sodipodi:nodetypes="ssccccccccccssssssccss" />
      </g>
      <rect
         style="opacity:0.5;color:#000000;fill:none;stroke:none;stroke-width:2;marker:none;visibility:visible;display:inline;overflow:visible;enable-background:accumulate"
         id="rect22294-0"
         width="24"
         height="24.000017"
         x="318"
         y="1098.3622" />
    </g>
  </g>
</svg>
