<?xml version="1.0" encoding="UTF-8" standalone="no"?>
<!-- Created with Inkscape (http://www.inkscape.org/) -->

<svg
   xmlns:dc="http://purl.org/dc/elements/1.1/"
   xmlns:cc="http://creativecommons.org/ns#"
   xmlns:rdf="http://www.w3.org/1999/02/22-rdf-syntax-ns#"
   xmlns:svg="http://www.w3.org/2000/svg"
   xmlns="http://www.w3.org/2000/svg"
   xmlns:sodipodi="http://sodipodi.sourceforge.net/DTD/sodipodi-0.dtd"
   xmlns:inkscape="http://www.inkscape.org/namespaces/inkscape"
   width="18"
   height="18"
   id="svg4619"
   version="1.1"
   inkscape:version="0.48.2 r9819"
   sodipodi:docname="fast-food-18.svg">
  <defs
     id="defs4621" />
  <sodipodi:namedview
     id="base"
     pagecolor="#ffffff"
     bordercolor="#666666"
     borderopacity="1.0"
     inkscape:pageopacity="0.0"
     inkscape:pageshadow="2"
     inkscape:zoom="16"
     inkscape:cx="5.9619453"
     inkscape:cy="11.948034"
     inkscape:document-units="px"
     inkscape:current-layer="layer1"
     showgrid="true"
     showguides="true"
     inkscape:guide-bbox="true"
     inkscape:window-width="1231"
     inkscape:window-height="818"
     inkscape:window-x="-6"
     inkscape:window-y="146"
     inkscape:window-maximized="0"
     inkscape:snap-bbox="true"
     inkscape:snap-nodes="false">
    <inkscape:grid
       type="xygrid"
       id="grid4627"
       empspacing="5"
       visible="true"
       enabled="true"
       snapvisiblegridlinesonly="true"
       spacingx="1px"
       spacingy="1px" />
    <sodipodi:guide
       orientation="0,1"
       position="7,18"
       id="guide4659" />
    <sodipodi:guide
       orientation="1,0"
       position="18,9"
       id="guide4661" />
    <sodipodi:guide
       orientation="0,1"
       position="16,17"
       id="guide4663" />
    <sodipodi:guide
       orientation="1,0"
       position="17,14"
       id="guide4665" />
    <sodipodi:guide
       orientation="1,0"
       position="0,16"
       id="guide4667" />
    <sodipodi:guide
       orientation="0,1"
       position="8,0"
       id="guide4669" />
    <sodipodi:guide
       orientation="1,0"
       position="2,10"
       id="guide4671" />
    <sodipodi:guide
       orientation="0,1"
       position="12,2"
       id="guide4673" />
  </sodipodi:namedview>
  <metadata
     id="metadata4624">
    <rdf:RDF>
      <cc:Work
         rdf:about="">
        <dc:format>image/svg+xml</dc:format>
        <dc:type
           rdf:resource="http://purl.org/dc/dcmitype/StillImage" />
        <dc:title></dc:title>
      </cc:Work>
    </rdf:RDF>
  </metadata>
  <g
     inkscape:label="Layer 1"
     inkscape:groupmode="layer"
     id="layer1"
     transform="translate(0,-1034.3622)">
    <g
       style="display:inline"
       id="shop-18"
       inkscape:label="shop-18"
       transform="translate(-341.99999,-64.000013)"
       inkscape:export-xdpi="89.996864"
       inkscape:export-ydpi="89.996864">
      <g
         id="g21586">
        <path
           style="opacity:0.3;color:#000000;fill:none;stroke:#ffffff;stroke-width:2;stroke-linecap:butt;stroke-linejoin:round;stroke-miterlimit:4;stroke-opacity:1;stroke-dasharray:none;stroke-dashoffset:0;marker:none;visibility:visible;display:inline;overflow:visible;enable-background:accumulate"
           d="m 350.26471,1100.3622 c -0.76471,0 -1.61475,0.7502 -1.76471,1.5 l -0.5,2.5 -1,0 c -0.38235,0 -1,0.6177 -1,1 l -1,8.2353 c 0,0.3823 0.5,0.7647 1,0.7647 l 11,0 c 0.5,0 1,-0.3824 1,-0.7647 l -1,-8.2353 c 0,-0.3823 -0.61765,-1 -1,-1 l -1,0 -0.5,-2.5 c -0.14996,-0.7498 -0.99999,-1.5 -1.7647,-1.5 z m 0,0.7647 2.47059,0 c 0.38236,0 0.92503,0.3604 1,0.7353 l 0.5,2.5 -5.4706,0 0.50001,-2.5 c 0.075,-0.3749 0.61764,-0.7353 1,-0.7353 z"
           id="path14972"
           inkscape:connector-curvature="0"
           sodipodi:nodetypes="cccccccccccccccccccccc" />
        <path
           sodipodi:nodetypes="cccccccccccccccccccccc"
           inkscape:connector-curvature="0"
           id="rect13131-6-2"
           d="m 350.26471,1100.3622 c -0.76471,0 -1.61475,0.7502 -1.76471,1.5 l -0.5,2.5 -1,0 c -0.38235,0 -1,0.6177 -1,1 l -1,8.2353 c 0,0.3823 0.5,0.7647 1,0.7647 l 11,0 c 0.5,0 1,-0.3824 1,-0.7647 l -1,-8.2353 c 0,-0.3823 -0.61765,-1 -1,-1 l -1,0 -0.5,-2.5 c -0.14996,-0.7498 -0.99999,-1.5 -1.7647,-1.5 z m 0,0.7647 2.47059,0 c 0.38236,0 0.92503,0.3604 1,0.7353 l 0.5,2.5 -5.4706,0 0.50001,-2.5 c 0.075,-0.3749 0.61764,-0.7353 1,-0.7353 z"
           style="color:#000000;fill:#444444;fill-opacity:1;fill-rule:nonzero;stroke:none;stroke-width:2;marker:none;visibility:visible;display:inline;overflow:visible;enable-background:accumulate" />
      </g>
      <rect
         y="1098.3622"
         x="341.99997"
         height="18.000031"
         width="18.000017"
         id="rect22296-1"
         style="opacity:0.5;color:#000000;fill:none;stroke:none;stroke-width:2;marker:none;visibility:visible;display:inline;overflow:visible;enable-background:accumulate" />
    </g>
  </g>
</svg>
