<?xml version="1.0" encoding="UTF-8" standalone="no"?>
<!-- Created with Inkscape (http://www.inkscape.org/) -->

<svg
   xmlns:dc="http://purl.org/dc/elements/1.1/"
   xmlns:cc="http://creativecommons.org/ns#"
   xmlns:rdf="http://www.w3.org/1999/02/22-rdf-syntax-ns#"
   xmlns:svg="http://www.w3.org/2000/svg"
   xmlns="http://www.w3.org/2000/svg"
   xmlns:sodipodi="http://sodipodi.sourceforge.net/DTD/sodipodi-0.dtd"
   xmlns:inkscape="http://www.inkscape.org/namespaces/inkscape"
   width="12"
   height="12"
   id="svg4764"
   version="1.1"
   inkscape:version="0.48.2 r9819"
   sodipodi:docname="cricket-12.svg">
  <defs
     id="defs4766" />
  <sodipodi:namedview
     id="base"
     pagecolor="#ffffff"
     bordercolor="#666666"
     borderopacity="1.0"
     inkscape:pageopacity="0.0"
     inkscape:pageshadow="2"
     inkscape:zoom="32"
     inkscape:cx="8.7068106"
     inkscape:cy="3.0092696"
     inkscape:document-units="px"
     inkscape:current-layer="layer1"
     showgrid="true"
     showguides="true"
     inkscape:guide-bbox="true"
     inkscape:window-width="957"
     inkscape:window-height="704"
     inkscape:window-x="164"
     inkscape:window-y="265"
     inkscape:window-maximized="0">
    <inkscape:grid
       type="xygrid"
       id="grid4772"
       empspacing="5"
       visible="true"
       enabled="true"
       snapvisiblegridlinesonly="true" />
    <sodipodi:guide
       orientation="0,1"
       position="2,12"
       id="guide4789" />
    <sodipodi:guide
       orientation="1,0"
       position="12,10"
       id="guide4791" />
    <sodipodi:guide
       orientation="0,1"
       position="10,0"
       id="guide4793" />
    <sodipodi:guide
       orientation="1,0"
       position="0,9"
       id="guide4795" />
    <sodipodi:guide
       orientation="0,1"
       position="5,11"
       id="guide4797" />
    <sodipodi:guide
       orientation="1,0"
       position="11,7"
       id="guide4799" />
    <sodipodi:guide
       orientation="0,1"
       position="9,2"
       id="guide4801" />
    <sodipodi:guide
       orientation="1,0"
       position="2,6"
       id="guide4803" />
  </sodipodi:namedview>
  <metadata
     id="metadata4769">
    <rdf:RDF>
      <cc:Work
         rdf:about="">
        <dc:format>image/svg+xml</dc:format>
        <dc:type
           rdf:resource="http://purl.org/dc/dcmitype/StillImage" />
        <dc:title></dc:title>
      </cc:Work>
    </rdf:RDF>
  </metadata>
  <g
     inkscape:label="Layer 1"
     inkscape:groupmode="layer"
     id="layer1"
     transform="translate(0,-1040.3622)">
    <g
       style="display:inline"
       id="skiing-12"
       inkscape:label="skiing-12"
       transform="translate(-516,-226)"
       inkscape:export-xdpi="89.996864"
       inkscape:export-ydpi="89.996864">
      <g
         transform="translate(0,-1)"
         id="g23647">
        <path
           inkscape:connector-curvature="0"
           id="path5313"
           d="m 522,1269.3622 c -0.5,0 -1,1 -1,1.5 l 0,2 -1.625,0.7813 -1.375,-0.7813 0,0.5 7,4 0,-0.5 -4.6875,-2.6875 1.6875,-0.625 0,-2.1875 0.5,0 0.5,0 1,1.5 0,1.5 1,1 1,0 0,-1 -1,0 0,-1.5 -0.5,-2.5 -1.5,-1 -1,0 z m 4.5,1.5 c -0.55227,0 -1,0.4477 -1,1 0,0.5523 0.44773,1 1,1 0.18732,0 0.35013,-0.067 0.5,-0.1562 l 0,-1.6875 c -0.14987,-0.09 -0.31268,-0.1563 -0.5,-0.1563 z"
           style="opacity:0.3;color:#000000;fill:none;stroke:#ffffff;stroke-width:2;stroke-linecap:round;stroke-linejoin:round;stroke-miterlimit:4;stroke-opacity:1;stroke-dasharray:none;stroke-dashoffset:0;marker:none;visibility:visible;display:inline;overflow:visible;enable-background:accumulate" />
        <path
           style="color:#000000;fill:#444444;fill-opacity:1;fill-rule:nonzero;stroke:none;stroke-width:2;marker:none;visibility:visible;display:inline;overflow:visible;enable-background:accumulate"
           d="m 522,1269.3622 c -0.5,0 -1,1 -1,1.5 l 0,2 -1.625,0.7813 -1.375,-0.7813 0,0.5 7,4 0,-0.5 -4.6875,-2.6875 1.6875,-0.625 0,-2.1875 0.5,0 0.5,0 1,1.5 0,1.5 1,1 1,0 0,-1 -1,0 0,-1.5 -0.5,-2.5 -1.5,-1 -1,0 z m 4.5,1.5 c -0.55227,0 -1,0.4477 -1,1 0,0.5523 0.44773,1 1,1 0.18732,0 0.35013,-0.067 0.5,-0.1562 l 0,-1.6875 c -0.14987,-0.09 -0.31268,-0.1563 -0.5,-0.1563 z"
           id="rect10364-5"
           inkscape:connector-curvature="0" />
      </g>
      <rect
         style="opacity:0.5;color:#000000;fill:none;stroke:none;stroke-width:2;marker:none;visibility:visible;display:inline;overflow:visible;enable-background:accumulate"
         id="rect22613"
         width="11.999998"
         height="12.000007"
         x="516"
         y="1266.3622" />
    </g>
  </g>
</svg>
