<?xml version="1.0" encoding="UTF-8" standalone="no"?>
<!-- Created with Inkscape (http://www.inkscape.org/) -->

<svg
   xmlns:dc="http://purl.org/dc/elements/1.1/"
   xmlns:cc="http://creativecommons.org/ns#"
   xmlns:rdf="http://www.w3.org/1999/02/22-rdf-syntax-ns#"
   xmlns:svg="http://www.w3.org/2000/svg"
   xmlns="http://www.w3.org/2000/svg"
   xmlns:sodipodi="http://sodipodi.sourceforge.net/DTD/sodipodi-0.dtd"
   xmlns:inkscape="http://www.inkscape.org/namespaces/inkscape"
   width="24"
   height="24"
   id="svg4460"
   version="1.1"
   inkscape:version="0.48.2 r9819"
   sodipodi:docname="cricket-24.svg">
  <defs
     id="defs4462" />
  <sodipodi:namedview
     id="base"
     pagecolor="#ffffff"
     bordercolor="#666666"
     borderopacity="1.0"
     inkscape:pageopacity="0.0"
     inkscape:pageshadow="2"
     inkscape:zoom="11.313708"
     inkscape:cx="15.622727"
     inkscape:cy="6.9146856"
     inkscape:document-units="px"
     inkscape:current-layer="layer1"
     showgrid="true"
     showguides="true"
     inkscape:guide-bbox="true"
     inkscape:window-width="1220"
     inkscape:window-height="833"
     inkscape:window-x="56"
     inkscape:window-y="20"
     inkscape:window-maximized="0">
    <inkscape:grid
       type="xygrid"
       id="grid4468"
       empspacing="5"
       visible="true"
       enabled="true"
       snapvisiblegridlinesonly="true" />
    <sodipodi:guide
       orientation="1,0"
       position="0,20"
       id="guide4470" />
    <sodipodi:guide
       orientation="0,1"
       position="4,24"
       id="guide4472" />
    <sodipodi:guide
       orientation="1,0"
       position="24,13"
       id="guide4474" />
    <sodipodi:guide
       orientation="0,1"
       position="15,0"
       id="guide4476" />
    <sodipodi:guide
       orientation="1,0"
       position="23,20"
       id="guide4478" />
    <sodipodi:guide
       orientation="0,1"
       position="20,23"
       id="guide4480" />
    <sodipodi:guide
       orientation="1,0"
       position="2,5"
       id="guide4482" />
    <sodipodi:guide
       orientation="0,1"
       position="7,2"
       id="guide4484" />
    <sodipodi:guide
       orientation="1,0"
       position="13,16"
       id="guide4486" />
  </sodipodi:namedview>
  <metadata
     id="metadata4465">
    <rdf:RDF>
      <cc:Work
         rdf:about="">
        <dc:format>image/svg+xml</dc:format>
        <dc:type
           rdf:resource="http://purl.org/dc/dcmitype/StillImage" />
        <dc:title></dc:title>
      </cc:Work>
    </rdf:RDF>
  </metadata>
  <g
     inkscape:label="Layer 1"
     inkscape:groupmode="layer"
     id="layer1"
     transform="translate(0,-1028.3622)">
    <g
       style="display:inline"
       id="skiing-24"
       inkscape:label="skiing-24"
       transform="translate(-474,-238)"
       inkscape:export-xdpi="89.996864"
       inkscape:export-ydpi="89.996864">
      <g
         transform="translate(-1,0)"
         id="g21389">
        <path
           sodipodi:nodetypes="ssccccssccsccsccsccccccccsscccsssssss"
           style="opacity:0.3;color:#000000;fill:none;stroke:#ffffff;stroke-width:2;stroke-linecap:round;stroke-linejoin:round;stroke-miterlimit:4;stroke-opacity:1;stroke-dasharray:none;stroke-dashoffset:0;marker:none;visibility:visible;display:inline;overflow:visible;enable-background:accumulate"
           d="m 487,1270.3622 c -1,0 -2,0.5 -2,2 0,0.5367 0.0437,0.6282 0.15625,1.0938 l 0.6875,2.8437 -3.71875,2.2813 -3.375,-1.9688 c -0.11232,-0.066 -0.25876,-0.068 -0.4375,-0.031 -0.17874,0.037 -0.31287,0.2487 -0.3125,0.4687 3.7e-4,0.22 0.0964,0.3474 0.25,0.4375 l 14.5,8.5 c 0.45557,0.263 0.86658,0.3689 1.25,0.375 0.26822,0 0.53178,-0.035 0.75,-0.125 0.53015,-0.2179 0.86186,-0.6118 1.09375,-0.8437 0.11619,-0.1163 0.15625,-0.2581 0.15625,-0.4063 0,-0.2115 -0.12877,-0.4362 -0.40625,-0.4687 -0.17906,-0.021 -0.32448,0.044 -0.4375,0.1875 -0.23474,0.2976 -0.52777,0.5208 -0.78125,0.625 -0.25348,0.1042 -0.53381,0.1225 -1.125,-0.2188 l -9.28125,-5.4375 3.59375,-2.0937 c 0.33273,-0.228 0.50201,-0.6708 0.40625,-1.0625 l -0.40625,-1.6563 3.5756,2.1048 0.6744,2.5707 c 0.0771,0.2878 0.2899,0.536 0.5625,0.6563 l 2.28125,1 c 1.60608,0.704 1.83495,-0.8259 0.8125,-1.269 l -1.875,-0.8125 -1.59375,-6.2495 -3.0625,-1.75 c -0.78627,-0.4539 -1.4375,-0.75 -1.9375,-0.75 z m 8,2 c -1.10457,0 -2,0.8954 -2,2 0,1.1046 0.89543,2 2,2 1.10457,0 2,-0.8954 2,-2 0,-1.1046 -0.89543,-2 -2,-2 z"
           id="path21337"
           inkscape:connector-curvature="0" />
        <g
           transform="translate(475,263)"
           style="display:inline"
           id="g6041">
          <path
             inkscape:connector-curvature="0"
             id="rect10364"
             d="m 12,1007.3622 c -1,0 -2,0.5 -2,2 0,0.5367 0.04369,0.6282 0.15625,1.0938 l 0.6875,2.8437 -3.71875,2.2813 -3.375,-1.9688 c -0.1123178,-0.066 -0.2587622,-0.068 -0.4375,-0.031 -0.1787379,0.037 -0.3128705,0.2487 -0.3125,0.4687 3.705e-4,0.22 0.096351,0.3474 0.25,0.4375 l 14.5,8.5 c 0.455571,0.263 0.866584,0.3689 1.25,0.375 0.268224,0 0.531782,-0.035 0.75,-0.125 0.530152,-0.2179 0.861863,-0.6118 1.09375,-0.8437 0.116186,-0.1163 0.15625,-0.2581 0.15625,-0.4063 0,-0.2115 -0.128771,-0.4362 -0.40625,-0.4687 -0.179057,-0.021 -0.324481,0.044 -0.4375,0.1875 -0.234744,0.2976 -0.527766,0.5208 -0.78125,0.625 -0.253484,0.1042 -0.533815,0.1225 -1.125,-0.2188 l -9.28125,-5.4375 3.59375,-2.0937 c 0.332726,-0.228 0.502014,-0.6708 0.40625,-1.0625 l -0.40625,-1.6563 3.575597,2.1048 0.674403,2.5707 c 0.0771,0.2878 0.289901,0.536 0.5625,0.6563 l 2.28125,1 c 1.60608,0.704 1.834949,-0.8259 0.8125,-1.269 l -1.875,-0.8125 -1.59375,-6.2495 -3.0625,-1.75 c -0.786272,-0.4539 -1.4375,-0.75 -1.9375,-0.75 z m 8,2 c -1.10457,0 -2,0.8954 -2,2 0,1.1046 0.89543,2 2,2 1.10457,0 2,-0.8954 2,-2 0,-1.1046 -0.89543,-2 -2,-2 z"
             style="color:#000000;fill:#444444;fill-opacity:1;fill-rule:nonzero;stroke:none;stroke-width:2;marker:none;visibility:visible;display:inline;overflow:visible;enable-background:accumulate"
             sodipodi:nodetypes="ssccccssccsccsccsccccccccsscccsssssss" />
        </g>
      </g>
      <rect
         style="opacity:0.5;color:#000000;fill:none;stroke:none;stroke-width:2;marker:none;visibility:visible;display:inline;overflow:visible;enable-background:accumulate"
         id="rect22609"
         width="24"
         height="24.000017"
         x="474"
         y="1266.3622" />
    </g>
  </g>
</svg>
