<?xml version="1.0" encoding="UTF-8" standalone="no"?>
<!-- Created with Inkscape (http://www.inkscape.org/) -->

<svg
   xmlns:dc="http://purl.org/dc/elements/1.1/"
   xmlns:cc="http://creativecommons.org/ns#"
   xmlns:rdf="http://www.w3.org/1999/02/22-rdf-syntax-ns#"
   xmlns:svg="http://www.w3.org/2000/svg"
   xmlns="http://www.w3.org/2000/svg"
   xmlns:sodipodi="http://sodipodi.sourceforge.net/DTD/sodipodi-0.dtd"
   xmlns:inkscape="http://www.inkscape.org/namespaces/inkscape"
   width="18"
   height="18"
   id="svg4619"
   version="1.1"
   inkscape:version="0.48.2 r9819"
   sodipodi:docname="cricket-18.svg">
  <defs
     id="defs4621" />
  <sodipodi:namedview
     id="base"
     pagecolor="#ffffff"
     bordercolor="#666666"
     borderopacity="1.0"
     inkscape:pageopacity="0.0"
     inkscape:pageshadow="2"
     inkscape:zoom="5.6568542"
     inkscape:cx="10.390555"
     inkscape:cy="12.616639"
     inkscape:document-units="px"
     inkscape:current-layer="layer1"
     showgrid="true"
     showguides="true"
     inkscape:guide-bbox="true"
     inkscape:window-width="1008"
     inkscape:window-height="662"
     inkscape:window-x="76"
     inkscape:window-y="40"
     inkscape:window-maximized="0"
     inkscape:snap-bbox="true"
     inkscape:object-paths="true"
     inkscape:snap-nodes="false">
    <inkscape:grid
       type="xygrid"
       id="grid4627"
       empspacing="5"
       visible="true"
       enabled="true"
       snapvisiblegridlinesonly="true" />
    <sodipodi:guide
       orientation="0,1"
       position="7,18"
       id="guide4659" />
    <sodipodi:guide
       orientation="1,0"
       position="18,9"
       id="guide4661" />
    <sodipodi:guide
       orientation="0,1"
       position="16,17"
       id="guide4663" />
    <sodipodi:guide
       orientation="1,0"
       position="17,14"
       id="guide4665" />
    <sodipodi:guide
       orientation="1,0"
       position="0,16"
       id="guide4667" />
    <sodipodi:guide
       orientation="0,1"
       position="8,0"
       id="guide4669" />
    <sodipodi:guide
       orientation="1,0"
       position="2,10"
       id="guide4671" />
    <sodipodi:guide
       orientation="0,1"
       position="12,2"
       id="guide4673" />
  </sodipodi:namedview>
  <metadata
     id="metadata4624">
    <rdf:RDF>
      <cc:Work
         rdf:about="">
        <dc:format>image/svg+xml</dc:format>
        <dc:type
           rdf:resource="http://purl.org/dc/dcmitype/StillImage" />
        <dc:title></dc:title>
      </cc:Work>
    </rdf:RDF>
  </metadata>
  <g
     inkscape:label="Layer 1"
     inkscape:groupmode="layer"
     id="layer1"
     transform="translate(0,-1034.3622)">
    <g
       style="display:inline"
       id="skiing-18"
       inkscape:label="skiing-18"
       transform="translate(-498,-232)"
       inkscape:export-xdpi="89.996864"
       inkscape:export-ydpi="89.996864">
      <g
         transform="translate(0,-1)"
         id="g21394">
        <path
           inkscape:connector-curvature="0"
           id="path21341"
           d="m 506,1270.3622 c -1,0 -1.5,0.5 -1.5,1.5 0,0.3954 0.13581,0.6569 0.21875,1 l 0.78125,2 -2.8125,1.9688 -2.6875,-1.4688 0,1 11,6 1,0 1,-1 -0.5,-0.5 -0.5,-0.5 0,1 -1,0 -7,-3.8125 2.46875,-1.6562 c 0.24517,-0.168 0.60181,-0.2426 0.53125,-0.5313 l -0.53125,-1.4687 2.53125,1.4687 0.625,1.9688 c 0.0568,0.2121 0.20539,0.4114 0.40625,0.5 l 1.6875,0.7187 c 1.18342,0.5187 1.34713,-0.611 0.59375,-0.9375 l -1.375,-0.5937 -0.9375,-2.6563 0,-2 -2.5,-1.4062 c -0.57936,-0.3344 -1,-0.5938 -1.5,-0.5938 z m 6.5,1.5 c -0.8139,0 -1.5,0.6861 -1.5,1.5 0,0.814 0.6861,1.5 1.5,1.5 0.81389,0 1.5,-0.686 1.5,-1.5 0,-0.8139 -0.68611,-1.5 -1.5,-1.5 z"
           style="opacity:0.3;color:#000000;fill:none;stroke:#ffffff;stroke-width:2;stroke-linecap:round;stroke-linejoin:round;stroke-miterlimit:4;stroke-opacity:1;stroke-dasharray:none;stroke-dashoffset:0;marker:none;visibility:visible;display:inline;overflow:visible;enable-background:accumulate" />
        <path
           inkscape:connector-curvature="0"
           style="color:#000000;fill:#444444;fill-opacity:1;fill-rule:nonzero;stroke:none;stroke-width:2;marker:none;visibility:visible;display:inline;overflow:visible;enable-background:accumulate"
           d="m 626,220 c -1,0 -1.5,0.5 -1.5,1.5 0,0.3954 0.13581,0.6569 0.21875,1 l 0.78125,2 -2.8125,1.96875 L 620,225 l 0,1 11,6 1,0 1,-1 -0.5,-0.5 -0.5,-0.5 0,1 -1,0 -7,-3.8125 2.46875,-1.65625 C 626.71392,225.36325 627.07056,225.2887 627,225 L 626.46875,223.53125 629,225 l 0.625,1.96875 c 0.0568,0.2121 0.20539,0.4114 0.40625,0.5 l 1.6875,0.71875 c 1.18342,0.5187 1.34713,-0.611 0.59375,-0.9375 l -1.375,-0.59375 L 630,224 l 0,-2 -2.5,-1.40625 C 626.92064,220.25935 626.5,220 626,220 z m 6.5,1.5 c -0.8139,0 -1.5,0.6861 -1.5,1.5 0,0.814 0.6861,1.5 1.5,1.5 0.81389,0 1.5,-0.686 1.5,-1.5 0,-0.8139 -0.68611,-1.5 -1.5,-1.5 z"
           transform="translate(-120,1050.3622)"
           id="rect10364-0" />
      </g>
      <rect
         y="1266.3622"
         x="497.99997"
         height="18.000031"
         width="18.000017"
         id="rect22611"
         style="opacity:0.5;color:#000000;fill:none;stroke:none;stroke-width:2;marker:none;visibility:visible;display:inline;overflow:visible;enable-background:accumulate" />
    </g>
  </g>
</svg>
