<?xml version="1.0" encoding="UTF-8" standalone="no"?>
<!-- Created with Inkscape (http://www.inkscape.org/) -->

<svg
   xmlns:dc="http://purl.org/dc/elements/1.1/"
   xmlns:cc="http://creativecommons.org/ns#"
   xmlns:rdf="http://www.w3.org/1999/02/22-rdf-syntax-ns#"
   xmlns:svg="http://www.w3.org/2000/svg"
   xmlns="http://www.w3.org/2000/svg"
   xmlns:sodipodi="http://sodipodi.sourceforge.net/DTD/sodipodi-0.dtd"
   xmlns:inkscape="http://www.inkscape.org/namespaces/inkscape"
   width="12"
   height="12"
   id="svg4764"
   version="1.1"
   inkscape:version="0.48.2 r9819"
   sodipodi:docname="dam-12.svg">
  <defs
     id="defs4766" />
  <sodipodi:namedview
     id="base"
     pagecolor="#ffffff"
     bordercolor="#666666"
     borderopacity="1.0"
     inkscape:pageopacity="0.0"
     inkscape:pageshadow="2"
     inkscape:zoom="22.627417"
     inkscape:cx="5.4435686"
     inkscape:cy="2.8129693"
     inkscape:document-units="px"
     inkscape:current-layer="layer1"
     showgrid="true"
     showguides="true"
     inkscape:guide-bbox="true"
     inkscape:window-width="1307"
     inkscape:window-height="902"
     inkscape:window-x="30"
     inkscape:window-y="249"
     inkscape:window-maximized="0"
     inkscape:snap-bbox="true"
     inkscape:snap-nodes="false">
    <inkscape:grid
       type="xygrid"
       id="grid4772"
       empspacing="5"
       visible="true"
       enabled="true"
       snapvisiblegridlinesonly="true"
       spacingx="1px"
       spacingy="1px" />
    <sodipodi:guide
       orientation="0,1"
       position="2,12"
       id="guide4789" />
    <sodipodi:guide
       orientation="1,0"
       position="12,10"
       id="guide4791" />
    <sodipodi:guide
       orientation="0,1"
       position="10,0"
       id="guide4793" />
    <sodipodi:guide
       orientation="1,0"
       position="0,9"
       id="guide4795" />
    <sodipodi:guide
       orientation="0,1"
       position="5,11"
       id="guide4797" />
    <sodipodi:guide
       orientation="1,0"
       position="11,7"
       id="guide4799" />
    <sodipodi:guide
       orientation="0,1"
       position="9,2"
       id="guide4801" />
    <sodipodi:guide
       orientation="1,0"
       position="2,5"
       id="guide4803" />
  </sodipodi:namedview>
  <metadata
     id="metadata4769">
    <rdf:RDF>
      <cc:Work
         rdf:about="">
        <dc:format>image/svg+xml</dc:format>
        <dc:type
           rdf:resource="http://purl.org/dc/dcmitype/StillImage" />
        <dc:title></dc:title>
      </cc:Work>
    </rdf:RDF>
  </metadata>
  <g
     inkscape:label="Layer 1"
     inkscape:groupmode="layer"
     id="layer1"
     transform="translate(0,-1040.3622)">
    <g
       style="display:inline"
       id="slaughterhouse-12"
       transform="translate(-518,-249.99998)"
       inkscape:label="slaughterhouse-12"
       inkscape:export-xdpi="89.996864"
       inkscape:export-ydpi="89.996864">
      <g
         transform="translate(2,-1)"
         id="g6869">
        <path
           sodipodi:nodetypes="ccccccccccccccsccccccccccccc"
           inkscape:connector-curvature="0"
           id="path6861"
           transform="translate(-120,1050.3622)"
           d="m 639,243 0.5,1 -1.5,0 0,1 1,0 1,1 c 10e-6,0.59553 2e-5,1.21287 0,1.53125 l 0,2.46875 0.5,0 0.5,-2 1,2 0.5,0 0,-2 c 0.94737,0 1.52631,-0.5 2,-0.5 l 0,1 c 0,0.4025 0.0312,1.5 0.0312,1.5 l 0.46875,0 1,-2 0.5,2 0.5,0 0,-2 0,-1 0,-1.09375 0,-0.90625 -1,-1 -4.99995,0 -0.375,-1 z"
           style="opacity:0.3;color:#000000;fill:#ffffff;fill-opacity:1;fill-rule:nonzero;stroke:#ffffff;stroke-width:2;stroke-linecap:round;stroke-linejoin:round;stroke-miterlimit:4;stroke-opacity:1;stroke-dasharray:none;stroke-dashoffset:0;marker:none;visibility:visible;display:inline;overflow:visible;enable-background:accumulate" />
        <path
           style="color:#000000;fill:#444444;fill-opacity:1;fill-rule:nonzero;stroke:none;stroke-width:2;marker:none;visibility:visible;display:inline;overflow:visible;enable-background:accumulate"
           d="m 639,243 0.5,1 -1.5,0 0,1 1,0 1,1 c 10e-6,0.59553 2e-5,1.21287 0,1.53125 l 0,2.46875 0.5,0 0.5,-2 1,2 0.5,0 0,-2 c 0.94737,0 1.52631,-0.5 2,-0.5 l 0,1 c 0,0.4025 0.0312,1.5 0.0312,1.5 l 0.46875,0 1,-2 0.5,2 0.5,0 0,-2 0,-1 0,-1.09375 0,-0.90625 -1,-1 -4.99995,0 -0.375,-1 z"
           transform="translate(-120,1050.3622)"
           id="path6765"
           inkscape:connector-curvature="0"
           sodipodi:nodetypes="ccccccccccccccsccccccccccccc" />
      </g>
      <rect
         y="1290.3622"
         x="518"
         height="12.000007"
         width="11.999998"
         id="rect7323"
         style="opacity:0.5;color:#000000;fill:none;stroke:none;stroke-width:2;marker:none;visibility:visible;display:inline;overflow:visible;enable-background:accumulate" />
    </g>
  </g>
</svg>
