<svg xmlns="http://www.w3.org/2000/svg" width="18" height="18">
    <g transform="translate(0 -1034.362) translate(-500 -256)" color="#000">
        <g>
            <path d="m 500.68421,1295.3622 0.68421,0.7895 -1.36842,1.7105 0,0.5 2.05263,0.1842 c 0,1.0263 1.62539,1.384 1.94737,3.3158 l 0,3.5 0.5,0 0.99998,-3 1,3 0.5,0 0,-3 c 2.05263,0 1.63158,-0.5 3,-0.5 0,0 -0.079,1.208 -0.079,1.7895 0,0.5814 -0.3421,1.7105 -0.3421,1.7105 l 0.68421,0 1.02631,-2.7368 1.02632,2.7368 0.68421,0 c 0,0 7e-5,-2.0878 7e-5,-3 l -0.5,-1 0.5,-1 c 0,-0.1942 0,-2.6579 0,-3 l -1,-1 -8.5,0 -0.76323,-1 z" opacity=".3" fill="#fff" stroke="#fff" stroke-width="2" stroke-linecap="round" stroke-linejoin="round" overflow="visible" enable-background="accumulate" transform="translate(2 -1)"/>
            <path d="m 500.68421,1295.3622 0.68421,0.7895 -1.36842,1.7105 0,0.5 2.05263,0.1842 c 0,1.0263 1.62539,1.384 1.94737,3.3158 l 0,3.5 0.5,0 0.99998,-3 1,3 0.5,0 0,-3 c 2.05263,0 1.63158,-0.5 3,-0.5 0,0 -0.079,1.208 -0.079,1.7895 0,0.5814 -0.3421,1.7105 -0.3421,1.7105 l 0.68421,0 1.02631,-2.7368 1.02632,2.7368 0.68421,0 c 0,0 7e-5,-2.0878 7e-5,-3 l -0.5,-1 0.5,-1 c 0,-0.1942 0,-2.6579 0,-3 l -1,-1 -8.5,0 -0.76323,-1 z" fill="#444" overflow="visible" enable-background="accumulate" transform="translate(2 -1)"/>
        </g>
        <rect width="18" height="18" x="500" y="1290.362" opacity=".5" overflow="visible" enable-background="accumulate" fill="none"/>
    </g>
</svg>
