<svg xmlns="http://www.w3.org/2000/svg" width="24" height="24">
    <g transform="translate(0 -1028.362) translate(-474 -46)" color="#000">
        <g>
            <path d="m 13.5,1007.8622 c -4.68324,0 -8.5,3.8168 -8.5,8.5 0,4.6832 3.81676,8.5 8.5,8.5 4.68324,0 8.5,-3.8168 8.5,-8.5 0,-4.6832 -3.81676,-8.5 -8.5,-8.5 z" opacity=".3" fill="#fff" stroke="#fff" stroke-width="2" stroke-linejoin="round" overflow="visible" enable-background="accumulate" transform="translate(473 69.5)"/>
            <path d="m 13.5,1007.8622 c -4.68324,0 -8.5,3.8168 -8.5,8.5 0,4.6832 3.81676,8.5 8.5,8.5 4.68324,0 8.5,-3.8168 8.5,-8.5 0,-4.6832 -3.81676,-8.5 -8.5,-8.5 z m 0,1.5 c 2.66601,0 4.97358,1.4738 6.15625,3.6563 -1.116,0.7404 -2.14179,1.1273 -2.15625,1.8437 -0.0101,0.4999 0,0.6412 0,1 0,0.5 0.26049,1.1434 1,1.5 l 1.75,0.8438 c -0.20034,0.7408 -0.52239,1.4106 -0.9375,2.0312 L 18,1019.3622 c -0.75,-0.5 -1.5,-0.8333 -2,-0.5 l -1.5,1 c -0.69338,0.4623 -0.62097,1 -0.5,1.5 l 0.46875,1.9375 c -0.31724,0.044 -0.63913,0.062 -0.96875,0.062 -0.69329,0 -1.36854,-0.095 -2,-0.2812 l 0,-1.7188 c 0,-1 -0.5,-1.5 -1,-2 -0.5,-0.5 -1,-1 -2,-1 l -1.71875,0 C 6.59519,1017.7307 6.5,1017.0555 6.5,1016.3622 c 0,-3.8778 3.12216,-7 7,-7 z m -3,3.5 -0.5,2 c -0.1418893,0.5676 -0.52003,1.1533 0,1.5 l 1.5,1 c 1,0.6667 1.44098,0.2795 2,0 l 1,-0.5 c 0.74536,-0.3727 1,-0.5 1,-1.5 l 0,-2 c 0,-0.5 0.0082,-0.7984 -1,-1 l -2.5,-0.5 c -1.04726,-0.2095 -1.244345,-0.023 -1.5,1 z" fill="#444" overflow="visible" enable-background="accumulate" transform="translate(473 69.5)"/>
        </g>
        <rect width="24" height="24" x="474" y="1074.362" opacity=".5" overflow="visible" enable-background="accumulate" fill="none"/>
    </g>
</svg>
