<svg xmlns="http://www.w3.org/2000/svg" width="12" height="12">
    <g transform="translate(0 -1040.362) translate(-516 -34)" color="#000">
        <g>
            <path d="m 523.5,1076.3622 c -2.47936,0 -4.5,2.0207 -4.5,4.5 0,2.4793 2.02064,4.5 4.5,4.5 2.47936,0 4.5,-2.0207 4.5,-4.5 0,-2.4793 -2.02064,-4.5 -4.5,-4.5 z m 0,0.7941 c 1.41142,0 2.63307,0.7803 3.25919,1.9358 -0.59083,0.3919 -1.13389,0.5967 -1.14154,0.976 -0.005,0.2647 0,0.3394 0,0.5294 0,0.2647 0.1379,0.6053 0.52941,0.7941 l 0.92647,0.4467 c -0.10606,0.3922 -0.27657,0.7468 -0.49632,1.0754 l -0.69486,-0.4633 c -0.39706,-0.2647 -0.79411,-0.4411 -1.05882,-0.2647 l -0.79412,0.5294 c -0.36708,0.2448 -0.32875,0.5295 -0.2647,0.7942 l 0.24815,1.0257 c -0.16794,0.023 -0.33836,0.033 -0.51286,0.033 -0.36704,0 -0.72452,-0.051 -1.05882,-0.1489 l 0,-0.91 c 0,-0.5294 -0.26471,-0.7941 -0.52942,-1.0588 -0.2647,-0.2647 -0.52941,-0.5294 -1.05882,-0.5294 l -0.90993,0 c -0.0985,-0.3342 -0.14889,-0.6915 -0.14889,-1.0586 0,-2.053 1.65291,-3.7059 3.70588,-3.7059 z m -1.58824,1.853 -0.2647,1.0588 c -0.0751,0.3005 -0.27532,0.6106 0,0.7941 l 0.79412,0.5294 c 0.52941,0.353 0.76287,0.148 1.05882,0 l 0.52941,-0.2647 c 0.3946,-0.1973 0.52941,-0.2647 0.52941,-0.7941 l 0,-1.0588 c 0,-0.2647 0.004,-0.4227 -0.52941,-0.5294 l -1.32353,-0.2648 c -0.55443,-0.1108 -0.65877,-0.013 -0.79412,0.5295 z" opacity=".3" fill="#fff" stroke="#fff" stroke-width="2" stroke-linejoin="round" overflow="visible" enable-background="accumulate" transform="translate(-1 -1)"/>
            <path d="m 523.5,1076.3622 c -2.47936,0 -4.5,2.0207 -4.5,4.5 0,2.4793 2.02064,4.5 4.5,4.5 2.47936,0 4.5,-2.0207 4.5,-4.5 0,-2.4793 -2.02064,-4.5 -4.5,-4.5 z m 0,0.7941 c 1.41142,0 2.63307,0.7803 3.25919,1.9358 -0.59083,0.3919 -1.13389,0.5967 -1.14154,0.976 -0.005,0.2647 0,0.3394 0,0.5294 0,0.2647 0.1379,0.6053 0.52941,0.7941 l 0.92647,0.4467 c -0.10606,0.3922 -0.27657,0.7468 -0.49632,1.0754 l -0.69486,-0.4633 c -0.39706,-0.2647 -0.79411,-0.4411 -1.05882,-0.2647 l -0.79412,0.5294 c -0.36708,0.2448 -0.32875,0.5295 -0.2647,0.7942 l 0.24815,1.0257 c -0.16794,0.023 -0.33836,0.033 -0.51286,0.033 -0.36704,0 -0.72452,-0.051 -1.05882,-0.1489 l 0,-0.91 c 0,-0.5294 -0.26471,-0.7941 -0.52942,-1.0588 -0.2647,-0.2647 -0.52941,-0.5294 -1.05882,-0.5294 l -0.90993,0 c -0.0985,-0.3342 -0.14889,-0.6915 -0.14889,-1.0586 0,-2.053 1.65291,-3.7059 3.70588,-3.7059 z m -1.58824,1.853 -0.2647,1.0588 c -0.0751,0.3005 -0.27532,0.6106 0,0.7941 l 0.79412,0.5294 c 0.52941,0.353 0.76287,0.148 1.05882,0 l 0.52941,-0.2647 c 0.3946,-0.1973 0.52941,-0.2647 0.52941,-0.7941 l 0,-1.0588 c 0,-0.2647 0.004,-0.4227 -0.52941,-0.5294 l -1.32353,-0.2648 c -0.55443,-0.1108 -0.65877,-0.013 -0.79412,0.5295 z" fill="#444" overflow="visible" enable-background="accumulate" transform="translate(-1 -1)"/>
        </g>
        <rect width="12" height="12" x="516" y="1074.362" opacity=".5" overflow="visible" enable-background="accumulate" fill="none"/>
    </g>
</svg>
