<svg xmlns="http://www.w3.org/2000/svg" width="18" height="18">
    <g transform="translate(0 -1034.362) translate(-498 -40)" color="#000">
        <g>
            <path d="m 507.5,1078.3622 c -3.58129,0 -6.5,2.9188 -6.5,6.5 0,3.5812 2.91871,6.5 6.5,6.5 3.58129,0 6.5,-2.9188 6.5,-6.5 0,-3.5812 -2.91871,-6.5 -6.5,-6.5 z" opacity=".3" fill="#fff" stroke="#fff" stroke-width="2" stroke-linejoin="round" overflow="visible" enable-background="accumulate" transform="translate(0 -2)"/>
            <path d="m 507.5,1078.3622 c -3.58129,0 -6.5,2.9188 -6.5,6.5 0,3.5812 2.91871,6.5 6.5,6.5 3.58129,0 6.5,-2.9188 6.5,-6.5 0,-3.5812 -2.91871,-6.5 -6.5,-6.5 z m 0,1.1471 c 2.03872,0 3.80332,1.127 4.70772,2.796 -0.85343,0.5661 -1.63784,0.862 -1.64889,1.4098 -0.007,0.3825 0,0.4903 0,0.7647 0,0.3824 0.19918,0.8743 0.76471,1.147 l 1.33822,0.6453 c -0.15319,0.5666 -0.39949,1.0788 -0.7169,1.5533 l -1.00369,-0.6692 c -0.57352,-0.3823 -1.14704,-0.637 -1.52941,-0.3823 l -1.14705,0.7648 c -0.53024,0.3535 -0.47486,0.7648 -0.38236,1.147 l 0.35845,1.4817 c -0.24259,0.033 -0.48875,0.047 -0.7408,0.047 -0.53017,0 -1.04653,-0.074 -1.5294,-0.215 l 0,-1.3146 c 0,-0.7646 -0.38236,-1.147 -0.76473,-1.5293 -0.38233,-0.3824 -0.7647,-0.7647 -1.52941,-0.7647 l -1.31434,0 c -0.14227,-0.4827 -0.21506,-0.9988 -0.21506,-1.5291 0,-2.9655 2.38754,-5.353 5.35294,-5.353 z m -2.29413,2.6764 -0.38233,1.5294 c -0.10848,0.4342 -0.39769,0.882 0,1.1471 l 1.14706,0.7646 c 0.76469,0.5099 1.10192,0.2139 1.5294,0 l 0.76471,-0.3822 c 0.56998,-0.2851 0.76469,-0.3824 0.76469,-1.147 l 0,-1.5294 c 0,-0.3825 0.006,-0.6106 -0.76469,-0.7647 l -1.91177,-0.3826 c -0.80084,-0.16 -0.95156,-0.018 -1.14707,0.7648 z" fill="#444" overflow="visible" enable-background="accumulate" transform="translate(0 -2)"/>
        </g>
        <rect y="1074.362" x="498" height="18" width="18" opacity=".5" overflow="visible" enable-background="accumulate" fill="none"/>
    </g>
</svg>
