<svg xmlns="http://www.w3.org/2000/svg" width="24" height="24">
    <g transform="translate(0 -1028.362) translate(72 -190)">
        <g color="#000" transform="translate(-72 214)">
            <path d="m 143.49314,204.36214 -2,6 -6.5,0 5,5 -2.5,7 6,-4 6,4 -2.5,-7 5,-5 -6.5,0 z m 0,4 1,3.5 4,0 -3.5,3.5 1.5,3.5 -3,-2.5 -3,2.5 1.5,-3.5 -3.5,-3.5 4,0 z" opacity=".3" fill="#fff" stroke="#fff" stroke-width="2" stroke-linejoin="round" overflow="visible" enable-background="accumulate" transform="translate(-130.993 803)"/>
            <path d="m 143.49314,204.36214 -2,6 -6.5,0 5,5 -2.5,7 6,-4 6,4 -2.5,-7 5,-5 -6.5,0 -2,-6 z m 0,4 1,3.5 4,0 -3.5,3.5 1.5,3.5 -3,-2.5 -3,2.5 1.5,-3.5 -3.5,-3.5 4,0 1,-3.5 z" fill="#444" overflow="visible" enable-background="accumulate" transform="translate(-130.993 803)"/>
        </g>
        <rect y="1218.362" x="-72" height="24" width="24" opacity=".5" color="#000" overflow="visible" enable-background="accumulate" fill="none"/>
    </g>
</svg>
