<?xml version="1.0" encoding="UTF-8" standalone="no"?>
<!-- Created with Inkscape (http://www.inkscape.org/) -->

<svg
   xmlns:dc="http://purl.org/dc/elements/1.1/"
   xmlns:cc="http://creativecommons.org/ns#"
   xmlns:rdf="http://www.w3.org/1999/02/22-rdf-syntax-ns#"
   xmlns:svg="http://www.w3.org/2000/svg"
   xmlns="http://www.w3.org/2000/svg"
   xmlns:sodipodi="http://sodipodi.sourceforge.net/DTD/sodipodi-0.dtd"
   xmlns:inkscape="http://www.inkscape.org/namespaces/inkscape"
   width="24"
   height="24"
   id="svg4460"
   version="1.1"
   inkscape:version="0.48.2 r9819"
   sodipodi:docname="golf-24.svg">
  <defs
     id="defs4462" />
  <sodipodi:namedview
     id="base"
     pagecolor="#ffffff"
     bordercolor="#666666"
     borderopacity="1.0"
     inkscape:pageopacity="0.0"
     inkscape:pageshadow="2"
     inkscape:zoom="11.313708"
     inkscape:cx="15.622727"
     inkscape:cy="6.9146856"
     inkscape:document-units="px"
     inkscape:current-layer="layer1"
     showgrid="true"
     showguides="true"
     inkscape:guide-bbox="true"
     inkscape:window-width="1220"
     inkscape:window-height="833"
     inkscape:window-x="56"
     inkscape:window-y="20"
     inkscape:window-maximized="0">
    <inkscape:grid
       type="xygrid"
       id="grid4468"
       empspacing="5"
       visible="true"
       enabled="true"
       snapvisiblegridlinesonly="true" />
    <sodipodi:guide
       orientation="1,0"
       position="0,20"
       id="guide4470" />
    <sodipodi:guide
       orientation="0,1"
       position="4,24"
       id="guide4472" />
    <sodipodi:guide
       orientation="1,0"
       position="24,13"
       id="guide4474" />
    <sodipodi:guide
       orientation="0,1"
       position="15,0"
       id="guide4476" />
    <sodipodi:guide
       orientation="1,0"
       position="23,20"
       id="guide4478" />
    <sodipodi:guide
       orientation="0,1"
       position="20,23"
       id="guide4480" />
    <sodipodi:guide
       orientation="1,0"
       position="2,5"
       id="guide4482" />
    <sodipodi:guide
       orientation="0,1"
       position="7,2"
       id="guide4484" />
    <sodipodi:guide
       orientation="1,0"
       position="13,16"
       id="guide4486" />
  </sodipodi:namedview>
  <metadata
     id="metadata4465">
    <rdf:RDF>
      <cc:Work
         rdf:about="">
        <dc:format>image/svg+xml</dc:format>
        <dc:type
           rdf:resource="http://purl.org/dc/dcmitype/StillImage" />
        <dc:title></dc:title>
      </cc:Work>
    </rdf:RDF>
  </metadata>
  <g
     inkscape:label="Layer 1"
     inkscape:groupmode="layer"
     id="layer1"
     transform="translate(0,-1028.3622)">
    <g
       style="display:inline"
       id="swimming-24"
       inkscape:label="swimming-24"
       transform="translate(-474,-190)"
       inkscape:export-xdpi="89.996864"
       inkscape:export-ydpi="89.996864">
      <g
         id="g21381" />
      <rect
         style="opacity:0.5;color:#000000;fill:none;stroke:none;stroke-width:2;marker:none;visibility:visible;display:inline;overflow:visible;enable-background:accumulate"
         id="rect22597"
         width="24"
         height="24.000017"
         x="474"
         y="1218.3622" />
      <path
         style="opacity:0.3;color:#000000;fill:none;stroke:#ffffff;stroke-width:2;stroke-linecap:round;stroke-linejoin:round;stroke-miterlimit:4;stroke-opacity:1;stroke-dasharray:none;stroke-dashoffset:0;marker:none;visibility:visible;display:inline;overflow:visible;enable-background:accumulate"
         d="m 489.125,1223.3622 c -0.15817,0 -0.43385,0.093 -0.5625,0.1563 l -4,1.9375 c -0.53242,0.2521 -0.72614,1.027 -0.375,1.5 l 1.21875,1.6562 -4.71875,3.6563 c 1.12895,0.229 1.9761,0.9379 2.8125,0.9375 1,5e-4 1.5,-1 3,-1 1.5,0 2,0.9995 3,1 0.4128,2e-4 0.83328,-0.1749 1.28125,-0.375 l -4.21875,-6.125 3.03125,-1.5313 c 0.60198,-0.301 0.56239,-0.8172 0.5,-1.125 -0.0591,-0.2918 -0.41903,-0.6875 -0.96875,-0.6875 z m 1.875,3 c -1.10457,0 -2,0.8954 -2,2 0,1.1046 0.89543,2 2,2 1.10457,0 2,-0.8954 2,-2 0,-1.1046 -0.89543,-2 -2,-2 z m -11,8 c -0.69406,0 -1.33976,0.4049 -2,0.625 l 0,2.0313 c 0,0 1,-0.6558 2,-0.6563 1,-5e-4 2,1 3.5,1 1.5,0 1.97352,-0.9653 3,-1 1,5e-4 1.5,1 3,1 1.5,0 2.5,-1 3.5,-1 0.70165,0 2,0.6563 2,0.6563 l 0,-2.0313 c -0.6416,-0.2468 -1.34343,-0.625 -2,-0.625 -1.5,0 -2.5,1.0005 -3.5,1 -1,-5e-4 -1.5,-1 -3,-1 -1.5,0 -2,1.0005 -3,1 -1,5e-4 -2,-1 -3.5,-1 z"
         id="path8421-9-1-0-0"
         inkscape:connector-curvature="0"
         sodipodi:nodetypes="sccccccscccccsssssssccsscssccssscs" />
      <path
         sodipodi:nodetypes="sccccccscccccsssssssccsscssccssscs"
         inkscape:connector-curvature="0"
         id="path4758"
         d="m 489.125,1223.3622 c -0.15817,0 -0.43385,0.093 -0.5625,0.1563 l -4,1.9375 c -0.53242,0.2521 -0.72614,1.027 -0.375,1.5 l 1.21875,1.6562 -4.71875,3.6563 c 1.12895,0.229 1.9761,0.9379 2.8125,0.9375 1,5e-4 1.5,-1 3,-1 1.5,0 2,0.9995 3,1 0.4128,2e-4 0.83328,-0.1749 1.28125,-0.375 l -4.21875,-6.125 3.03125,-1.5313 c 0.60198,-0.301 0.56239,-0.8172 0.5,-1.125 -0.0591,-0.2918 -0.41903,-0.6875 -0.96875,-0.6875 z m 1.875,3 c -1.10457,0 -2,0.8954 -2,2 0,1.1046 0.89543,2 2,2 1.10457,0 2,-0.8954 2,-2 0,-1.1046 -0.89543,-2 -2,-2 z m -11,8 c -0.69406,0 -1.33976,0.4049 -2,0.625 l 0,2.0313 c 0,0 1,-0.6558 2,-0.6563 1,-5e-4 2,1 3.5,1 1.5,0 1.97352,-0.9653 3,-1 1,5e-4 1.5,1 3,1 1.5,0 2.5,-1 3.5,-1 0.70165,0 2,0.6563 2,0.6563 l 0,-2.0313 c -0.6416,-0.2468 -1.34343,-0.625 -2,-0.625 -1.5,0 -2.5,1.0005 -3.5,1 -1,-5e-4 -1.5,-1 -3,-1 -1.5,0 -2,1.0005 -3,1 -1,5e-4 -2,-1 -3.5,-1 z"
         style="color:#000000;fill:#444444;fill-opacity:1;fill-rule:nonzero;stroke:none;stroke-width:2;marker:none;visibility:visible;display:inline;overflow:visible;enable-background:accumulate" />
    </g>
  </g>
</svg>
