<?xml version="1.0" encoding="UTF-8" standalone="no"?>
<!-- Created with Inkscape (http://www.inkscape.org/) -->

<svg
   xmlns:dc="http://purl.org/dc/elements/1.1/"
   xmlns:cc="http://creativecommons.org/ns#"
   xmlns:rdf="http://www.w3.org/1999/02/22-rdf-syntax-ns#"
   xmlns:svg="http://www.w3.org/2000/svg"
   xmlns="http://www.w3.org/2000/svg"
   xmlns:sodipodi="http://sodipodi.sourceforge.net/DTD/sodipodi-0.dtd"
   xmlns:inkscape="http://www.inkscape.org/namespaces/inkscape"
   width="18"
   height="18"
   id="svg4619"
   version="1.1"
   inkscape:version="0.48.2 r9819"
   sodipodi:docname="golf-18.svg">
  <defs
     id="defs4621" />
  <sodipodi:namedview
     id="base"
     pagecolor="#ffffff"
     bordercolor="#666666"
     borderopacity="1.0"
     inkscape:pageopacity="0.0"
     inkscape:pageshadow="2"
     inkscape:zoom="5.6568542"
     inkscape:cx="10.390555"
     inkscape:cy="12.616639"
     inkscape:document-units="px"
     inkscape:current-layer="layer1"
     showgrid="true"
     showguides="true"
     inkscape:guide-bbox="true"
     inkscape:window-width="1008"
     inkscape:window-height="662"
     inkscape:window-x="76"
     inkscape:window-y="40"
     inkscape:window-maximized="0"
     inkscape:snap-bbox="true"
     inkscape:object-paths="true"
     inkscape:snap-nodes="false">
    <inkscape:grid
       type="xygrid"
       id="grid4627"
       empspacing="5"
       visible="true"
       enabled="true"
       snapvisiblegridlinesonly="true" />
    <sodipodi:guide
       orientation="0,1"
       position="7,18"
       id="guide4659" />
    <sodipodi:guide
       orientation="1,0"
       position="18,9"
       id="guide4661" />
    <sodipodi:guide
       orientation="0,1"
       position="16,17"
       id="guide4663" />
    <sodipodi:guide
       orientation="1,0"
       position="17,14"
       id="guide4665" />
    <sodipodi:guide
       orientation="1,0"
       position="0,16"
       id="guide4667" />
    <sodipodi:guide
       orientation="0,1"
       position="8,0"
       id="guide4669" />
    <sodipodi:guide
       orientation="1,0"
       position="2,10"
       id="guide4671" />
    <sodipodi:guide
       orientation="0,1"
       position="12,2"
       id="guide4673" />
  </sodipodi:namedview>
  <metadata
     id="metadata4624">
    <rdf:RDF>
      <cc:Work
         rdf:about="">
        <dc:format>image/svg+xml</dc:format>
        <dc:type
           rdf:resource="http://purl.org/dc/dcmitype/StillImage" />
        <dc:title></dc:title>
      </cc:Work>
    </rdf:RDF>
  </metadata>
  <g
     inkscape:label="Layer 1"
     inkscape:groupmode="layer"
     id="layer1"
     transform="translate(0,-1034.3622)">
    <g
       style="display:inline"
       id="swimming-18"
       inkscape:label="swimming-18"
       transform="translate(-498,-184)"
       inkscape:export-xdpi="89.996864"
       inkscape:export-ydpi="89.996864">
      <g
         transform="translate(-1,-2)"
         id="g21402">
        <path
           inkscape:connector-curvature="0"
           style="opacity:0.3;color:#000000;fill:none;stroke:#ffffff;stroke-width:2;stroke-linecap:round;stroke-linejoin:round;stroke-miterlimit:4;stroke-opacity:1;stroke-dasharray:none;stroke-dashoffset:0;marker:none;visibility:visible;display:inline;overflow:visible;enable-background:accumulate"
           d="m 510.75,1223.9872 c -0.11423,0 -0.31333,0.048 -0.40625,0.094 l -2.875,1.4063 c -0.38453,0.182 -0.53485,0.7521 -0.28125,1.0937 l 0.875,1.1875 -3.71875,2.1563 2,0.8125 2.15625,-0.875 2.15625,0.875 0.84375,-0.875 -2.59375,-3.4688 2.1875,-1.125 c 0.43476,-0.2174 0.42006,-0.5902 0.375,-0.8125 -0.0427,-0.2107 -0.32173,-0.4687 -0.71875,-0.4687 z m 1.75,2.375 c -0.82843,0 -1.5,0.6716 -1.5,1.5 0,0.8284 0.67157,1.5 1.5,1.5 0.82843,0 1.5,-0.6716 1.5,-1.5 0,-0.8284 -0.67157,-1.5 -1.5,-1.5 z m -4,4.5 -2,1 -2.5,-0.9375 -2,0.9375 0,1.5 2,-1 2.5,1 2,-1.0625 2,1.0625 2,-1.0625 2.5,1.0625 0,-1.5 -2.5,-1 -2,1 -2,-1 z"
           id="path16388-5" />
        <path
           inkscape:connector-curvature="0"
           id="path16388"
           d="m 510.75,1223.9872 c -0.11423,0 -0.31333,0.048 -0.40625,0.094 l -2.875,1.4063 c -0.38453,0.182 -0.53485,0.7521 -0.28125,1.0937 l 0.875,1.1875 -3.71875,2.1563 2,0.8125 2.15625,-0.875 2.15625,0.875 0.84375,-0.875 -2.59375,-3.4688 2.1875,-1.125 c 0.43476,-0.2174 0.42006,-0.5902 0.375,-0.8125 -0.0427,-0.2107 -0.32173,-0.4687 -0.71875,-0.4687 z m 1.75,2.375 c -0.82843,0 -1.5,0.6716 -1.5,1.5 0,0.8284 0.67157,1.5 1.5,1.5 0.82843,0 1.5,-0.6716 1.5,-1.5 0,-0.8284 -0.67157,-1.5 -1.5,-1.5 z m -4,4.5 -2,1 -2.5,-0.9375 -2,0.9375 0,1.5 2,-1 2.5,1 2,-1.0625 2,1.0625 2,-1.0625 2.5,1.0625 0,-1.5 -2.5,-1 -2,1 -2,-1 z"
           style="color:#000000;fill:#444444;fill-opacity:1;fill-rule:nonzero;stroke:none;stroke-width:2;marker:none;visibility:visible;display:inline;overflow:visible;enable-background:accumulate" />
      </g>
      <rect
         y="1218.3622"
         x="497.99997"
         height="18.000031"
         width="18.000017"
         id="rect22599"
         style="opacity:0.5;color:#000000;fill:none;stroke:none;stroke-width:2;marker:none;visibility:visible;display:inline;overflow:visible;enable-background:accumulate" />
    </g>
  </g>
</svg>
