<svg xmlns="http://www.w3.org/2000/svg" width="12" height="12">
    <g transform="translate(0 -1040.362) translate(-360 -275)">
        <path d="m 367.5,1317.3622 -5.5,5.5 0,2 1,1 1,0 1,-1 0,-1 -1,-1 3.5,-3.5 1,1 1,0 1,-1 0,-1 -1,-1 z" opacity=".3" color="#000" stroke="#fff" stroke-width="2" stroke-linecap="round" stroke-linejoin="round" overflow="visible" enable-background="accumulate" fill="none"/>
        <rect width="24" height="24" x="320" y="1314.362" color="#000" overflow="visible" enable-background="accumulate" fill="none" transform="matrix(.5 0 0 .5 200 658.18)"/>
        <path d="m 367.5,1317.3622 -5.5,5.5 0,2 1,1 1,0 1,-1 0,-1 -1,-1 3.5,-3.5 1,1 1,0 1,-1 0,-1 -1,-1 z" color="#000" fill="#444" overflow="visible" enable-background="accumulate"/>
    </g>
</svg>
