<?xml version="1.0" encoding="UTF-8" standalone="no"?>
<!-- Created with Inkscape (http://www.inkscape.org/) -->

<svg
   xmlns:dc="http://purl.org/dc/elements/1.1/"
   xmlns:cc="http://creativecommons.org/ns#"
   xmlns:rdf="http://www.w3.org/1999/02/22-rdf-syntax-ns#"
   xmlns:svg="http://www.w3.org/2000/svg"
   xmlns="http://www.w3.org/2000/svg"
   xmlns:sodipodi="http://sodipodi.sourceforge.net/DTD/sodipodi-0.dtd"
   xmlns:inkscape="http://www.inkscape.org/namespaces/inkscape"
   width="24"
   height="24"
   id="svg4460"
   version="1.1"
   inkscape:version="0.48.2 r9819"
   sodipodi:docname="emergency-telephone24.svg">
  <defs
     id="defs4462" />
  <sodipodi:namedview
     id="base"
     pagecolor="#ffffff"
     bordercolor="#666666"
     borderopacity="1.0"
     inkscape:pageopacity="0.0"
     inkscape:pageshadow="2"
     inkscape:zoom="11.313708"
     inkscape:cx="15.622727"
     inkscape:cy="6.9146856"
     inkscape:document-units="px"
     inkscape:current-layer="layer1"
     showgrid="true"
     showguides="true"
     inkscape:guide-bbox="true"
     inkscape:window-width="1220"
     inkscape:window-height="833"
     inkscape:window-x="56"
     inkscape:window-y="20"
     inkscape:window-maximized="0">
    <inkscape:grid
       type="xygrid"
       id="grid4468"
       empspacing="5"
       visible="true"
       enabled="true"
       snapvisiblegridlinesonly="true" />
    <sodipodi:guide
       orientation="1,0"
       position="0,20"
       id="guide4470" />
    <sodipodi:guide
       orientation="0,1"
       position="4,24"
       id="guide4472" />
    <sodipodi:guide
       orientation="1,0"
       position="24,13"
       id="guide4474" />
    <sodipodi:guide
       orientation="0,1"
       position="15,0"
       id="guide4476" />
    <sodipodi:guide
       orientation="1,0"
       position="23,20"
       id="guide4478" />
    <sodipodi:guide
       orientation="0,1"
       position="20,23"
       id="guide4480" />
    <sodipodi:guide
       orientation="1,0"
       position="2,5"
       id="guide4482" />
    <sodipodi:guide
       orientation="0,1"
       position="7,2"
       id="guide4484" />
    <sodipodi:guide
       orientation="1,0"
       position="13,16"
       id="guide4486" />
  </sodipodi:namedview>
  <metadata
     id="metadata4465">
    <rdf:RDF>
      <cc:Work
         rdf:about="">
        <dc:format>image/svg+xml</dc:format>
        <dc:type
           rdf:resource="http://purl.org/dc/dcmitype/StillImage" />
        <dc:title></dc:title>
      </cc:Work>
    </rdf:RDF>
  </metadata>
  <g
     inkscape:label="Layer 1"
     inkscape:groupmode="layer"
     id="layer1"
     transform="translate(0,-1028.3622)">
    <g
       style="display:inline"
       id="telephone-24"
       transform="translate(-320,-286)"
       inkscape:label="#g5774">
      <path
         sodipodi:nodetypes="ccccccccccccccccccccccccccccccc"
         inkscape:connector-curvature="0"
         id="path5953"
         d="m 336,1318.3622 c -1,0 -1.32629,0.3263 -2,1 l -8,8 c -0.5,0.5 -1,1 -1,2 0,0.8333 0,1 0,1.5 0,1 0.5,1.5 1,2 l 0.5625,0.5625 3.5,-3.5 -0.5625,-0.5625 c -0.50009,-0.5 0,-1 0,-1 l 5.5,-5.5 c 0,0 0.5,-0.5 1,0 l 0.5625,0.5625 3.5,-3.5 c 0,0 -0.375,-0.375 -0.5625,-0.5625 -0.5,-0.5 -1,-1 -2,-1 -0.5,0 -1.5,0 -1.5,0 z m 4.4375,1.9375 -3.5,3.5 0.5625,0.5625 c 0.35356,0.3535 1.14645,0.3536 1.5,0 l 2,-2 c 0.35359,-0.3537 0.35357,-1.1465 0,-1.5 z m -10,10 -3.5,3.5 0.5625,0.5625 c 0.35362,0.3537 1.1464,0.3534 1.5,0 l 2,-2 c 0.35372,-0.3536 0.35352,-1.1466 0,-1.5 z"
         style="opacity:0.3;color:#000000;fill:none;stroke:#ffffff;stroke-width:2;stroke-linecap:round;stroke-linejoin:round;stroke-miterlimit:4;stroke-opacity:1;stroke-dasharray:none;stroke-dashoffset:0;marker:none;visibility:visible;display:inline;overflow:visible;enable-background:accumulate" />
      <path
         style="color:#000000;fill:#444444;fill-opacity:1;stroke:none;stroke-width:1;marker:none;visibility:visible;display:inline;overflow:visible;enable-background:accumulate"
         d="m 336,1318.3622 c -1,0 -1.32629,0.3263 -2,1 l -8,8 c -0.5,0.5 -1,1 -1,2 0,0.8333 0,1 0,1.5 0,1 0.5,1.5 1,2 l 0.5625,0.5625 3.5,-3.5 -0.5625,-0.5625 c -0.50009,-0.5 0,-1 0,-1 l 5.5,-5.5 c 0,0 0.5,-0.5 1,0 l 0.5625,0.5625 3.5,-3.5 c 0,0 -0.375,-0.375 -0.5625,-0.5625 -0.5,-0.5 -1,-1 -2,-1 -0.5,0 -1.5,0 -1.5,0 z m 4.4375,1.9375 -3.5,3.5 0.5625,0.5625 c 0.35356,0.3535 1.14645,0.3536 1.5,0 l 2,-2 c 0.35359,-0.3537 0.35357,-1.1465 0,-1.5 z m -10,10 -3.5,3.5 0.5625,0.5625 c 0.35362,0.3537 1.1464,0.3534 1.5,0 l 2,-2 c 0.35372,-0.3536 0.35352,-1.1466 0,-1.5 z"
         id="path5722"
         inkscape:connector-curvature="0"
         sodipodi:nodetypes="ccccccccccccccccccccccccccccccc" />
      <rect
         y="1314.3623"
         x="320"
         height="23.99996"
         width="23.99996"
         id="rect4379"
         style="color:#000000;fill:none;stroke:none;stroke-width:2;marker:none;visibility:visible;display:inline;overflow:visible;enable-background:accumulate" />
    </g>
  </g>
</svg>
