<svg xmlns="http://www.w3.org/2000/svg" width="24" height="24">
    <g transform="translate(0 -1028.362) translate(-474 -94)" color="#000">
        <g>
            <path d="m 484,1125.3622 c -3.31371,0 -6,2.6863 -6,6 0,3.3137 2.68629,6 6,6 l 5,0 4.5,4.5 c 0.31628,0.3163 0.50625,0.5 0.90625,0.5 0.125,0 0.28125,0 0.4375,-0.1562 0.1563,-0.1563 0.15625,-0.3125 0.15625,-0.4375 0,-0.4 -0.21788,-0.6242 -0.5,-0.9063 l -4.5,-4.5 0,-5 c 0,-3.3137 -2.68629,-6 -6,-6 z m 5,8 0,3 -3,0 z m -9.5,4 c -0.82843,0 -1.5,0.6716 -1.5,1.5 0,0.8284 0.67157,1.5 1.5,1.5 0.82843,0 1.5,-0.6716 1.5,-1.5 0,-0.8284 -0.67157,-1.5 -1.5,-1.5 z" opacity=".3" fill="#fff" stroke="#fff" stroke-width="2" overflow="visible" enable-background="accumulate"/>
            <path d="m 484,1125.3622 c -3.31371,0 -6,2.6863 -6,6 0,3.3137 2.68629,6 6,6 l 5,0 4.5,4.5 c 0.31628,0.3163 0.50625,0.5 0.90625,0.5 0.125,0 0.28125,0 0.4375,-0.1562 0.1563,-0.1563 0.15625,-0.3125 0.15625,-0.4375 0,-0.4 -0.21788,-0.6242 -0.5,-0.9063 l -4.5,-4.5 0,-5 c 0,-3.3137 -2.68629,-6 -6,-6 z m 5,8 0,3 -3,0 z m -9.5,4 c -0.82843,0 -1.5,0.6716 -1.5,1.5 0,0.8284 0.67157,1.5 1.5,1.5 0.82843,0 1.5,-0.6716 1.5,-1.5 0,-0.8284 -0.67157,-1.5 -1.5,-1.5 z" fill="#444" overflow="visible" enable-background="accumulate"/>
        </g>
        <rect y="1122.362" x="474" height="24" width="24" opacity=".5" overflow="visible" enable-background="accumulate" fill="none"/>
    </g>
</svg>
