<svg xmlns="http://www.w3.org/2000/svg" width="18" height="18">
    <g transform="translate(0 -1034.362) translate(-498 -88)" color="#000">
        <g>
            <path d="m 505.5,1124.3622 c -2.53402,0 -4.5,1.966 -4.5,4.5 0,2.534 2.14246,4.4984 4.67648,4.5 l 3.32352,0 4,4 1,0 0,-1 -4,-4 0,-3.3236 c 0,-2.534 -1.96599,-4.6764 -4.5,-4.6764 z m 3.5,5.7058 0,2.2942 -2.5,0 z m -6.85294,3.2942 c -0.63351,0 -1.14706,0.5135 -1.14706,1.147 0,0.6335 0.51355,1.1471 1.14706,1.1471 0.6335,0 1.14706,-0.5136 1.14706,-1.1471 0,-0.6335 -0.51356,-1.147 -1.14706,-1.147 z" opacity=".3" fill="#fff" stroke="#fff" stroke-width="2" overflow="visible" enable-background="accumulate"/>
            <path d="m 505.5,1124.3622 c -2.53402,0 -4.5,1.966 -4.5,4.5 0,2.534 2.14246,4.4984 4.67648,4.5 l 3.32352,0 4,4 1,0 0,-1 -4,-4 0,-3.3236 c 0,-2.534 -1.96599,-4.6764 -4.5,-4.6764 z m 3.5,5.7058 0,2.2942 -2.5,0 z m -6.85294,3.2942 c -0.63351,0 -1.14706,0.5135 -1.14706,1.147 0,0.6335 0.51355,1.1471 1.14706,1.1471 0.6335,0 1.14706,-0.5136 1.14706,-1.1471 0,-0.6335 -0.51356,-1.147 -1.14706,-1.147 z" fill="#444" overflow="visible" enable-background="accumulate"/>
        </g>
        <rect width="18" height="18" x="498" y="1122.362" opacity=".5" overflow="visible" enable-background="accumulate" fill="none"/>
    </g>
</svg>
