<svg xmlns="http://www.w3.org/2000/svg" width="12" height="12">
    <g transform="translate(0 -1040.362) translate(-360 -226)" color="#000">
        <g>
            <path d="m 362.5,1268.3622 c -0.25,0 -0.5,0.25 -0.5,0.5 l 0,3 c 0,1.108 0.5,2.5 2.5,2.5 0.17934,0 0.34309,-0.01 0.5,-0.031 l 0,-1.4688 -2,0 c 0,0 0.25,-1 1.5,-1 0.25,0 0.34826,0.037 0.5,0.094 l 0,-1.094 c 0,-0.4583 0.20224,-0.8116 0.45312,-1.0625 0.25089,-0.2509 0.58854,-0.4375 1.04688,-0.4375 l 0.5,0 0,-0.4998 c 0,-0.25 -0.2643,-0.4998 -0.5,-0.5 -0.5,-4e-4 -1,0.4996 -2,0.4996 -0.86663,0 -1.5,-0.5 -2,-0.5 z m 1,2 c 0.27614,0 0.5,0.2239 0.5,0.5 0,0.2761 -0.22386,0.5 -0.5,0.5 -0.27614,0 -0.5,-0.2239 -0.5,-0.5 0,-0.2761 0.22386,-0.5 0.5,-0.5 z m 3,0 c -0.2357,0 -0.5,0.25 -0.5,0.5 l 0,3 c 0,1.108 0.5,2.5 2.5,2.5 2,0 2.5,-1.392 2.5,-2.5 l 0,-3 c 0,-0.25 -0.2643,-0.5 -0.5,-0.5 -0.5,0 -1.25464,0.5 -2,0.5 -0.74536,0 -1.5,-0.5 -2,-0.5 z m 1,2 c 0.27614,0 0.5,0.2239 0.5,0.5 0,0.2761 -0.22386,0.5 -0.5,0.5 -0.27614,0 -0.5,-0.2239 -0.5,-0.5 0,-0.2761 0.22386,-0.5 0.5,-0.5 z m 2,0 c 0.27614,0 0.5,0.2239 0.5,0.5 0,0.2761 -0.22386,0.5 -0.5,0.5 -0.27614,0 -0.5,-0.2239 -0.5,-0.5 0,-0.2761 0.22386,-0.5 0.5,-0.5 z m -2.5,2 3,0 c 0,0 -0.25,1 -1.5,1 -1.25,0 -1.5,-1 -1.5,-1 z" opacity=".3" fill="#fff" stroke="#fff" stroke-width="2" stroke-linecap="round" stroke-linejoin="round" overflow="visible" enable-background="accumulate"/>
            <path d="m 362.5,1268.3622 c -0.25,0 -0.5,0.25 -0.5,0.5 l 0,3 c 0,1.108 0.5,2.5 2.5,2.5 0.17934,0 0.34309,-0.01 0.5,-0.031 l 0,-1.4688 -2,0 c 0,0 0.25,-1 1.5,-1 0.25,0 0.34826,0.037 0.5,0.094 l 0,-1.094 c 0,-0.4583 0.20224,-0.8116 0.45312,-1.0625 0.25089,-0.2509 0.58854,-0.4375 1.04688,-0.4375 l 0.5,0 0,-0.4998 c 0,-0.25 -0.2643,-0.4998 -0.5,-0.5 -0.5,-4e-4 -1,0.4996 -2,0.4996 -0.86663,0 -1.5,-0.5 -2,-0.5 z m 1,2 c 0.27614,0 0.5,0.2239 0.5,0.5 0,0.2761 -0.22386,0.5 -0.5,0.5 -0.27614,0 -0.5,-0.2239 -0.5,-0.5 0,-0.2761 0.22386,-0.5 0.5,-0.5 z m 3,0 c -0.2357,0 -0.5,0.25 -0.5,0.5 l 0,3 c 0,1.108 0.5,2.5 2.5,2.5 2,0 2.5,-1.392 2.5,-2.5 l 0,-3 c 0,-0.25 -0.2643,-0.5 -0.5,-0.5 -0.5,0 -1.25464,0.5 -2,0.5 -0.74536,0 -1.5,-0.5 -2,-0.5 z m 1,2 c 0.27614,0 0.5,0.2239 0.5,0.5 0,0.2761 -0.22386,0.5 -0.5,0.5 -0.27614,0 -0.5,-0.2239 -0.5,-0.5 0,-0.2761 0.22386,-0.5 0.5,-0.5 z m 2,0 c 0.27614,0 0.5,0.2239 0.5,0.5 0,0.2761 -0.22386,0.5 -0.5,0.5 -0.27614,0 -0.5,-0.2239 -0.5,-0.5 0,-0.2761 0.22386,-0.5 0.5,-0.5 z m -2.5,2 3,0 c 0,0 -0.25,1 -1.5,1 -1.25,0 -1.5,-1 -1.5,-1 z" fill="#444" overflow="visible" enable-background="accumulate"/>
        </g>
        <rect transform="translate(-120 1050.362)" y="216" x="480" height="12" width="12" overflow="visible" enable-background="accumulate" fill="none"/>
    </g>
</svg>
