<?xml version="1.0" encoding="UTF-8" standalone="no"?>
<!-- Created with Inkscape (http://www.inkscape.org/) -->

<svg
   xmlns:dc="http://purl.org/dc/elements/1.1/"
   xmlns:cc="http://creativecommons.org/ns#"
   xmlns:rdf="http://www.w3.org/1999/02/22-rdf-syntax-ns#"
   xmlns:svg="http://www.w3.org/2000/svg"
   xmlns="http://www.w3.org/2000/svg"
   xmlns:sodipodi="http://sodipodi.sourceforge.net/DTD/sodipodi-0.dtd"
   xmlns:inkscape="http://www.inkscape.org/namespaces/inkscape"
   width="24"
   height="24"
   id="svg4460"
   version="1.1"
   inkscape:version="0.48.2 r9819"
   sodipodi:docname="campsite-24.svg">
  <defs
     id="defs4462" />
  <sodipodi:namedview
     id="base"
     pagecolor="#ffffff"
     bordercolor="#666666"
     borderopacity="1.0"
     inkscape:pageopacity="0.0"
     inkscape:pageshadow="2"
     inkscape:zoom="11.313708"
     inkscape:cx="15.622727"
     inkscape:cy="6.9146856"
     inkscape:document-units="px"
     inkscape:current-layer="layer1"
     showgrid="true"
     showguides="true"
     inkscape:guide-bbox="true"
     inkscape:window-width="1220"
     inkscape:window-height="833"
     inkscape:window-x="56"
     inkscape:window-y="20"
     inkscape:window-maximized="0">
    <inkscape:grid
       type="xygrid"
       id="grid4468"
       empspacing="5"
       visible="true"
       enabled="true"
       snapvisiblegridlinesonly="true" />
    <sodipodi:guide
       orientation="1,0"
       position="0,20"
       id="guide4470" />
    <sodipodi:guide
       orientation="0,1"
       position="4,24"
       id="guide4472" />
    <sodipodi:guide
       orientation="1,0"
       position="24,13"
       id="guide4474" />
    <sodipodi:guide
       orientation="0,1"
       position="15,0"
       id="guide4476" />
    <sodipodi:guide
       orientation="1,0"
       position="23,20"
       id="guide4478" />
    <sodipodi:guide
       orientation="0,1"
       position="20,23"
       id="guide4480" />
    <sodipodi:guide
       orientation="1,0"
       position="2,5"
       id="guide4482" />
    <sodipodi:guide
       orientation="0,1"
       position="7,2"
       id="guide4484" />
    <sodipodi:guide
       orientation="1,0"
       position="13,16"
       id="guide4486" />
    <sodipodi:guide
       orientation="0,1"
       position="16,13"
       id="guide4490" />
  </sodipodi:namedview>
  <metadata
     id="metadata4465">
    <rdf:RDF>
      <cc:Work
         rdf:about="">
        <dc:format>image/svg+xml</dc:format>
        <dc:type
           rdf:resource="http://purl.org/dc/dcmitype/StillImage" />
        <dc:title></dc:title>
      </cc:Work>
    </rdf:RDF>
  </metadata>
  <g
     inkscape:label="Layer 1"
     inkscape:groupmode="layer"
     id="layer1"
     transform="translate(0,-1028.3622)">
    <g
       style="display:inline"
       id="theatre-24"
       inkscape:label="theatre-24"
       inkscape:export-xdpi="89.996864"
       inkscape:export-ydpi="89.996864"
       transform="translate(-318,-238)">
      <path
         sodipodi:nodetypes="sssscccscssscsssssssssssss"
         inkscape:connector-curvature="0"
         style="opacity:0.3;color:#000000;fill:#ffffff;fill-opacity:1;fill-rule:nonzero;stroke:#ffffff;stroke-width:2;stroke-linecap:round;stroke-linejoin:round;stroke-miterlimit:4;stroke-opacity:1;stroke-dasharray:none;stroke-dashoffset:0;marker:none;visibility:visible;display:inline;overflow:visible;enable-background:accumulate"
         d="m 323,1269.3622 c -0.4714,0 -1,0.5 -1,1 l 0,7 c 0,2.216 1,5 5,5 0.35868,0 0.68618,-0.017 1,-0.062 l 0,-2.9375 -4,0 c 0,0 0.5,-2 3,-2 0.5,0 0.69653,0.074 1,0.1875 l 0,-2.1875 c 0,-0.9167 0.36529,-1.6826 1,-2 1,-0.5 1.40372,-0.2981 2,0 1,0.5 1,0.5 1,0.5 l 0,-3.5 c 0,-0.5 -0.5286,-1 -1,-1 -1,0 -2,1 -4,1 -2,0 -3,-1 -4,-1 z m 7,5 c -0.4714,0 -1,0.5 -1,1 l 0,7 c 0,2.216 1,5 5,5 4,0 5,-2.784 5,-5 l 0,-7 c 0,-0.5 -0.5286,-1 -1,-1 -1,0 -2,1 -4,1 -2,0 -3,-1 -4,-1 z"
         id="path15112" />
      <rect
         y="1266.3622"
         x="318"
         height="23.999956"
         width="24"
         id="rect6492"
         style="color:#000000;fill:none;stroke:none;stroke-width:2;marker:none;visibility:visible;display:inline;overflow:visible;enable-background:accumulate" />
      <path
         id="path6342"
         d="m 323,1269.3622 c -0.4714,0 -1,0.5 -1,1 l 0,7 c 0,2.216 1,5 5,5 0.35868,0 0.68618,-0.017 1,-0.062 l 0,-2.9375 -4,0 c 0,0 0.5,-2 3,-2 0.5,0 0.69653,0.074 1,0.1875 l 0,-2.1875 c 0,-0.9167 0.36529,-1.6826 1,-2 1,-0.5 1.40372,-0.2981 2,0 1,0.5 1,0.5 1,0.5 l 0,-3.5 c 0,-0.5 -0.5286,-1 -1,-1 -1,0 -2,1 -4,1 -2,0 -3,-1 -4,-1 z m 1.75,3.5 c 0.69036,0 1.25,0.5596 1.25,1.25 0,0.6904 -0.55964,1.25 -1.25,1.25 -0.69036,0 -1.25,-0.5596 -1.25,-1.25 0,-0.6904 0.55964,-1.25 1.25,-1.25 z m 5.25,1.5 c -0.4714,0 -1,0.5 -1,1 l 0,7 c 0,2.216 1,5 5,5 4,0 5,-2.784 5,-5 l 0,-7 c 0,-0.5 -0.5286,-1 -1,-1 -1,0 -2,1 -4,1 -2,0 -3,-1 -4,-1 z m 1.75,3.5 c 0.69036,0 1.25,0.5596 1.25,1.25 0,0.6904 -0.55964,1.25 -1.25,1.25 -0.69036,0 -1.25,-0.5596 -1.25,-1.25 0,-0.6904 0.55964,-1.25 1.25,-1.25 z m 4.5,0 c 0.69036,0 1.25,0.5596 1.25,1.25 0,0.6904 -0.55964,1.25 -1.25,1.25 -0.69036,0 -1.25,-0.5596 -1.25,-1.25 0,-0.6904 0.55964,-1.25 1.25,-1.25 z m -5.25,5.5 6,0 c 0,0 -0.5,2 -3,2 -2.5,0 -3,-2 -3,-2 z"
         style="color:#000000;fill:#444444;fill-opacity:1;fill-rule:nonzero;stroke:none;stroke-width:0.055;marker:none;visibility:visible;display:inline;overflow:visible;enable-background:accumulate"
         inkscape:connector-curvature="0"
         sodipodi:nodetypes="sssscccscssscssssssssssssssssssssssssssssccsc" />
    </g>
  </g>
</svg>
