<?xml version="1.0" encoding="UTF-8" standalone="no"?>
<!-- Created with Inkscape (http://www.inkscape.org/) -->

<svg
   xmlns:dc="http://purl.org/dc/elements/1.1/"
   xmlns:cc="http://creativecommons.org/ns#"
   xmlns:rdf="http://www.w3.org/1999/02/22-rdf-syntax-ns#"
   xmlns:svg="http://www.w3.org/2000/svg"
   xmlns="http://www.w3.org/2000/svg"
   xmlns:sodipodi="http://sodipodi.sourceforge.net/DTD/sodipodi-0.dtd"
   xmlns:inkscape="http://www.inkscape.org/namespaces/inkscape"
   width="12"
   height="12"
   id="svg4764"
   version="1.1"
   inkscape:version="0.48.2 r9819"
   sodipodi:docname="campsite-12.svg">
  <defs
     id="defs4766" />
  <sodipodi:namedview
     id="base"
     pagecolor="#ffffff"
     bordercolor="#666666"
     borderopacity="1.0"
     inkscape:pageopacity="0.0"
     inkscape:pageshadow="2"
     inkscape:zoom="22.627417"
     inkscape:cx="8.7068106"
     inkscape:cy="4.7770366"
     inkscape:document-units="px"
     inkscape:current-layer="layer1"
     showgrid="true"
     showguides="true"
     inkscape:guide-bbox="true"
     inkscape:window-width="957"
     inkscape:window-height="704"
     inkscape:window-x="164"
     inkscape:window-y="265"
     inkscape:window-maximized="0">
    <inkscape:grid
       type="xygrid"
       id="grid4772"
       empspacing="5"
       visible="true"
       enabled="true"
       snapvisiblegridlinesonly="true" />
    <sodipodi:guide
       orientation="0,1"
       position="2,12"
       id="guide4789" />
    <sodipodi:guide
       orientation="1,0"
       position="12,10"
       id="guide4791" />
    <sodipodi:guide
       orientation="0,1"
       position="10,0"
       id="guide4793" />
    <sodipodi:guide
       orientation="1,0"
       position="0,9"
       id="guide4795" />
    <sodipodi:guide
       orientation="0,1"
       position="5,11"
       id="guide4797" />
    <sodipodi:guide
       orientation="1,0"
       position="11,7"
       id="guide4799" />
    <sodipodi:guide
       orientation="0,1"
       position="9,2"
       id="guide4801" />
    <sodipodi:guide
       orientation="1,0"
       position="2,6"
       id="guide4803" />
  </sodipodi:namedview>
  <metadata
     id="metadata4769">
    <rdf:RDF>
      <cc:Work
         rdf:about="">
        <dc:format>image/svg+xml</dc:format>
        <dc:type
           rdf:resource="http://purl.org/dc/dcmitype/StillImage" />
        <dc:title></dc:title>
      </cc:Work>
    </rdf:RDF>
  </metadata>
  <g
     inkscape:label="Layer 1"
     inkscape:groupmode="layer"
     id="layer1"
     transform="translate(0,-1040.3622)">
    <g
       style="display:inline"
       id="theatre-12"
       inkscape:label="theatre-12"
       inkscape:export-xdpi="89.996864"
       inkscape:export-ydpi="89.996864"
       transform="translate(-360,-226)">
      <g
         id="g6508">
        <path
           sodipodi:nodetypes="sssscccscscscssssssssssssssssssssssssssssccsc"
           inkscape:connector-curvature="0"
           style="opacity:0.3;color:#000000;fill:#ffffff;fill-opacity:1;fill-rule:nonzero;stroke:#ffffff;stroke-width:2;stroke-linecap:round;stroke-linejoin:round;stroke-miterlimit:4;stroke-opacity:1;stroke-dasharray:none;stroke-dashoffset:0;marker:none;visibility:visible;display:inline;overflow:visible;enable-background:accumulate"
           d="m 362.5,1268.3622 c -0.25,0 -0.5,0.25 -0.5,0.5 l 0,3 c 0,1.108 0.5,2.5 2.5,2.5 0.17934,0 0.34309,-0.01 0.5,-0.031 l 0,-1.4688 -2,0 c 0,0 0.25,-1 1.5,-1 0.25,0 0.34826,0.037 0.5,0.094 l 0,-1.094 c 0,-0.4583 0.20224,-0.8116 0.45312,-1.0625 0.25089,-0.2509 0.58854,-0.4375 1.04688,-0.4375 l 0.5,0 0,-0.4998 c 0,-0.25 -0.2643,-0.4998 -0.5,-0.5 -0.5,-4e-4 -1,0.4996 -2,0.4996 -0.86663,0 -1.5,-0.5 -2,-0.5 z m 1,2 c 0.27614,0 0.5,0.2239 0.5,0.5 0,0.2761 -0.22386,0.5 -0.5,0.5 -0.27614,0 -0.5,-0.2239 -0.5,-0.5 0,-0.2761 0.22386,-0.5 0.5,-0.5 z m 3,0 c -0.2357,0 -0.5,0.25 -0.5,0.5 l 0,3 c 0,1.108 0.5,2.5 2.5,2.5 2,0 2.5,-1.392 2.5,-2.5 l 0,-3 c 0,-0.25 -0.2643,-0.5 -0.5,-0.5 -0.5,0 -1.25464,0.5 -2,0.5 -0.74536,0 -1.5,-0.5 -2,-0.5 z m 1,2 c 0.27614,0 0.5,0.2239 0.5,0.5 0,0.2761 -0.22386,0.5 -0.5,0.5 -0.27614,0 -0.5,-0.2239 -0.5,-0.5 0,-0.2761 0.22386,-0.5 0.5,-0.5 z m 2,0 c 0.27614,0 0.5,0.2239 0.5,0.5 0,0.2761 -0.22386,0.5 -0.5,0.5 -0.27614,0 -0.5,-0.2239 -0.5,-0.5 0,-0.2761 0.22386,-0.5 0.5,-0.5 z m -2.5,2 3,0 c 0,0 -0.25,1 -1.5,1 -1.25,0 -1.5,-1 -1.5,-1 z"
           id="path6484" />
        <path
           id="path6370"
           d="m 362.5,1268.3622 c -0.25,0 -0.5,0.25 -0.5,0.5 l 0,3 c 0,1.108 0.5,2.5 2.5,2.5 0.17934,0 0.34309,-0.01 0.5,-0.031 l 0,-1.4688 -2,0 c 0,0 0.25,-1 1.5,-1 0.25,0 0.34826,0.037 0.5,0.094 l 0,-1.094 c 0,-0.4583 0.20224,-0.8116 0.45312,-1.0625 0.25089,-0.2509 0.58854,-0.4375 1.04688,-0.4375 l 0.5,0 0,-0.4998 c 0,-0.25 -0.2643,-0.4998 -0.5,-0.5 -0.5,-4e-4 -1,0.4996 -2,0.4996 -0.86663,0 -1.5,-0.5 -2,-0.5 z m 1,2 c 0.27614,0 0.5,0.2239 0.5,0.5 0,0.2761 -0.22386,0.5 -0.5,0.5 -0.27614,0 -0.5,-0.2239 -0.5,-0.5 0,-0.2761 0.22386,-0.5 0.5,-0.5 z m 3,0 c -0.2357,0 -0.5,0.25 -0.5,0.5 l 0,3 c 0,1.108 0.5,2.5 2.5,2.5 2,0 2.5,-1.392 2.5,-2.5 l 0,-3 c 0,-0.25 -0.2643,-0.5 -0.5,-0.5 -0.5,0 -1.25464,0.5 -2,0.5 -0.74536,0 -1.5,-0.5 -2,-0.5 z m 1,2 c 0.27614,0 0.5,0.2239 0.5,0.5 0,0.2761 -0.22386,0.5 -0.5,0.5 -0.27614,0 -0.5,-0.2239 -0.5,-0.5 0,-0.2761 0.22386,-0.5 0.5,-0.5 z m 2,0 c 0.27614,0 0.5,0.2239 0.5,0.5 0,0.2761 -0.22386,0.5 -0.5,0.5 -0.27614,0 -0.5,-0.2239 -0.5,-0.5 0,-0.2761 0.22386,-0.5 0.5,-0.5 z m -2.5,2 3,0 c 0,0 -0.25,1 -1.5,1 -1.25,0 -1.5,-1 -1.5,-1 z"
           style="color:#000000;fill:#444444;fill-opacity:1;fill-rule:nonzero;stroke:none;stroke-width:0.055;marker:none;visibility:visible;display:inline;overflow:visible;enable-background:accumulate"
           inkscape:connector-curvature="0"
           sodipodi:nodetypes="sssscccscscscssssssssssssssssssssssssssssccsc" />
      </g>
      <rect
         transform="translate(-120,1050.3622)"
         y="216"
         x="480"
         height="12"
         width="12"
         id="rect6506"
         style="color:#000000;fill:none;stroke:none;stroke-width:2;marker:none;visibility:visible;display:inline;overflow:visible;enable-background:accumulate" />
    </g>
  </g>
</svg>
