<?xml version="1.0" encoding="UTF-8" standalone="no"?>
<!-- Created with Inkscape (http://www.inkscape.org/) -->

<svg
   xmlns:dc="http://purl.org/dc/elements/1.1/"
   xmlns:cc="http://creativecommons.org/ns#"
   xmlns:rdf="http://www.w3.org/1999/02/22-rdf-syntax-ns#"
   xmlns:svg="http://www.w3.org/2000/svg"
   xmlns="http://www.w3.org/2000/svg"
   xmlns:sodipodi="http://sodipodi.sourceforge.net/DTD/sodipodi-0.dtd"
   xmlns:inkscape="http://www.inkscape.org/namespaces/inkscape"
   width="18"
   height="18"
   id="svg4619"
   version="1.1"
   inkscape:version="0.48.2 r9819"
   sodipodi:docname="campsite-18.svg">
  <defs
     id="defs4621" />
  <sodipodi:namedview
     id="base"
     pagecolor="#ffffff"
     bordercolor="#666666"
     borderopacity="1.0"
     inkscape:pageopacity="0.0"
     inkscape:pageshadow="2"
     inkscape:zoom="16"
     inkscape:cx="6.5869453"
     inkscape:cy="5.510534"
     inkscape:document-units="px"
     inkscape:current-layer="layer1"
     showgrid="true"
     showguides="true"
     inkscape:guide-bbox="true"
     inkscape:window-width="1008"
     inkscape:window-height="662"
     inkscape:window-x="76"
     inkscape:window-y="40"
     inkscape:window-maximized="0"
     inkscape:snap-bbox="true"
     inkscape:object-paths="true"
     inkscape:snap-nodes="false">
    <inkscape:grid
       type="xygrid"
       id="grid4627"
       empspacing="5"
       visible="true"
       enabled="true"
       snapvisiblegridlinesonly="true" />
    <sodipodi:guide
       orientation="0,1"
       position="7,18"
       id="guide4659" />
    <sodipodi:guide
       orientation="1,0"
       position="18,9"
       id="guide4661" />
    <sodipodi:guide
       orientation="0,1"
       position="16,17"
       id="guide4663" />
    <sodipodi:guide
       orientation="1,0"
       position="17,14"
       id="guide4665" />
    <sodipodi:guide
       orientation="1,0"
       position="0,16"
       id="guide4667" />
    <sodipodi:guide
       orientation="0,1"
       position="8,0"
       id="guide4669" />
    <sodipodi:guide
       orientation="1,0"
       position="2,10"
       id="guide4671" />
    <sodipodi:guide
       orientation="0,1"
       position="12,2"
       id="guide4673" />
  </sodipodi:namedview>
  <metadata
     id="metadata4624">
    <rdf:RDF>
      <cc:Work
         rdf:about="">
        <dc:format>image/svg+xml</dc:format>
        <dc:type
           rdf:resource="http://purl.org/dc/dcmitype/StillImage" />
        <dc:title></dc:title>
      </cc:Work>
    </rdf:RDF>
  </metadata>
  <g
     inkscape:label="Layer 1"
     inkscape:groupmode="layer"
     id="layer1"
     transform="translate(0,-1034.3622)">
    <g
       style="display:inline"
       id="theatre-18"
       inkscape:label="theatre-18"
       inkscape:export-xdpi="89.996864"
       inkscape:export-ydpi="89.996864"
       transform="translate(-342,-232)">
      <path
         sodipodi:nodetypes="ccccccccccsccccccccccccccccccccccccccccccccccc"
         style="opacity:0.3;color:#000000;fill:#ffffff;fill-opacity:1;fill-rule:nonzero;stroke:#ffffff;stroke-width:2;stroke-linecap:round;stroke-linejoin:round;stroke-miterlimit:4;stroke-opacity:1;stroke-dasharray:none;stroke-dashoffset:0;marker:none;visibility:visible;display:inline;overflow:visible;enable-background:accumulate"
         d="m 345.78125,1268.3622 c -0.38889,0 -0.78125,0.3924 -0.78125,0.7813 l 0,5.5 c 0,1.7236 0.76389,3.7812 3.875,3.7812 0.27897,0 -0.11909,-0.027 0.125,-0.062 l 0,-2 -2.5,0 c 0,0 0.5555,-2 2.5,-2 l 0,-1.6562 c 0,-0.713 0.10973,-1.454 0.5,-1.8443 0.39026,-0.3903 0.86828,-1.267 2.5,-0.5005 l 1,0.5005 0,-1.7182 c 0,-0.3889 -0.39236,-0.7813 -0.78125,-0.7813 -0.72222,0 -2.21875,1 -3.21875,1 -1,0 -2.49653,-1 -3.21875,-1 z m 1.21875,2 c 0.55228,0 1,0.4477 1,1 0,0.5523 -0.44772,1 -1,1 -0.55228,0 -1,-0.4477 -1,-1 0,-0.5523 0.44772,-1 1,-1 z m 3.78125,1 c -0.36665,0 -0.78125,0.3924 -0.78125,0.7813 l 0,5.2187 c 0,1.7236 0.88889,4 4,4 3.11111,0 4,-2.2764 4,-4 l 0,-5.2187 c 0,-0.3889 -0.4146,-0.7813 -0.78125,-0.7813 -0.72222,0 -2.21875,1 -3.21875,1 -1,0 -2.49653,-1 -3.21875,-1 z m 1.21875,2 c 0.55228,0 1,0.4477 1,1 0,0.5523 -0.44772,1 -1,1 -0.55228,0 -1,-0.4477 -1,-1 0,-0.5523 0.44772,-1 1,-1 z m 4,0 c 0.55228,0 1,0.4477 1,1 0,0.5523 -0.44772,1 -1,1 -0.55228,0 -1,-0.4477 -1,-1 0,-0.5523 0.44772,-1 1,-1 z m -4.5,4 2.5625,0 2.4375,0 c 0,0 -0.55555,2 -2.5,2 -1.94444,0 -2.5,-2 -2.5,-2 z"
         id="path14391"
         inkscape:connector-curvature="0" />
      <path
         inkscape:connector-curvature="0"
         id="path6342-3"
         d="m 345.78125,1268.3622 c -0.38889,0 -0.78125,0.3924 -0.78125,0.7813 l 0,5.5 c 0,1.7236 0.76389,3.7812 3.875,3.7812 0.27897,0 -0.11909,-0.027 0.125,-0.062 l 0,-2 -2.5,0 c 0,0 0.5555,-2 2.5,-2 l 0,-1.6562 c 0,-0.713 0.10973,-1.454 0.5,-1.8443 0.39026,-0.3903 0.88818,-1.308 2.5,-0.5005 l 1,0.5005 0,-1.7182 c 0,-0.3889 -0.39236,-0.7813 -0.78125,-0.7813 -0.72222,0 -2.21875,1 -3.21875,1 -1,0 -2.49653,-1 -3.21875,-1 z m 1.21875,2 c 0.55228,0 1,0.4477 1,1 0,0.5523 -0.44772,1 -1,1 -0.55228,0 -1,-0.4477 -1,-1 0,-0.5523 0.44772,-1 1,-1 z m 3.78125,1 c -0.36665,0 -0.78125,0.3924 -0.78125,0.7813 l 0,5.2187 c 0,1.7236 0.88889,4 4,4 3.11111,0 4,-2.2764 4,-4 l 0,-5.2187 c 0,-0.3889 -0.4146,-0.7813 -0.78125,-0.7813 -0.72222,0 -2.21875,1 -3.21875,1 -1,0 -2.49653,-1 -3.21875,-1 z m 1.21875,2 c 0.55228,0 1,0.4477 1,1 0,0.5523 -0.44772,1 -1,1 -0.55228,0 -1,-0.4477 -1,-1 0,-0.5523 0.44772,-1 1,-1 z m 4,0 c 0.55228,0 1,0.4477 1,1 0,0.5523 -0.44772,1 -1,1 -0.55228,0 -1,-0.4477 -1,-1 0,-0.5523 0.44772,-1 1,-1 z m -4.5,4 2.5625,0 2.4375,0 c 0,0 -0.55555,2 -2.5,2 -1.94444,0 -2.5,-2 -2.5,-2 z"
         style="color:#000000;fill:#444444;fill-opacity:1;fill-rule:nonzero;stroke:none;stroke-width:0.055;marker:none;visibility:visible;display:inline;overflow:visible;enable-background:accumulate"
         sodipodi:nodetypes="ccccccccccsccccccccccccccccccccccccccccccccccc" />
      <rect
         y="1266.3622"
         x="342"
         height="18.000006"
         width="18"
         id="rect6499"
         style="color:#000000;fill:none;stroke:none;stroke-width:2;marker:none;visibility:visible;display:inline;overflow:visible;enable-background:accumulate" />
    </g>
  </g>
</svg>
