<svg xmlns="http://www.w3.org/2000/svg" width="12" height="12">
    <g transform="matrix(.5 0 0 .5 -159 -645.181)" color="#000">
        <path transform="matrix(2 0 0 2 -642 810.362)" d="m 484,241 c -0.69036,0 -1.25,0.55964 -1.25,1.25 0,0.69036 0.55964,1.25 1.25,1.25 0.69036,0 1.25,-0.55964 1.25,-1.25 0,-0.69036 -0.55964,-1.25 -1.25,-1.25 z m 5,0 c -0.69036,0 -1.25,0.55964 -1.25,1.25 0,0.69036 0.55964,1.25 1.25,1.25 0.69036,0 1.25,-0.55964 1.25,-1.25 0,-0.69036 -0.55964,-1.25 -1.25,-1.25 z m -6,3 0,1.5 -1.5,2.5 1.5,0 0,2 2,0 0,-2 1.5,0 -1.5,-2.5 0,-1.5 -2,0 z m 4,0 1,3.5 0,2.5 2,0 0,-2.5 1,-3.5 -4,0 z" opacity=".3" stroke="#fff" stroke-width="2" stroke-linecap="round" stroke-linejoin="round" overflow="visible" enable-background="accumulate" fill="none"/>
        <path d="m 484,241 c -0.69036,0 -1.25,0.55964 -1.25,1.25 0,0.69036 0.55964,1.25 1.25,1.25 0.69036,0 1.25,-0.55964 1.25,-1.25 0,-0.69036 -0.55964,-1.25 -1.25,-1.25 z m 5,0 c -0.69036,0 -1.25,0.55964 -1.25,1.25 0,0.69036 0.55964,1.25 1.25,1.25 0.69036,0 1.25,-0.55964 1.25,-1.25 0,-0.69036 -0.55964,-1.25 -1.25,-1.25 z m -6,3 0,1.5 -1.5,2.5 1.5,0 0,2 2,0 0,-2 1.5,0 -1.5,-2.5 0,-1.5 -2,0 z m 4,0 1,3.5 0,2.5 2,0 0,-2.5 1,-3.5 -4,0 z" transform="matrix(2 0 0 2 -642 810.362)" fill="#444" overflow="visible" enable-background="accumulate"/>
        <rect y="1290.362" x="318" height="24" width="24" opacity=".5" overflow="visible" enable-background="accumulate" fill="none"/>
    </g>
</svg>
