<svg xmlns="http://www.w3.org/2000/svg" width="18" height="18">
    <g transform="translate(0 -1034.362) translate(-342 -256)" color="#000">
        <path d="m 348.00001,1291.3622 c -1.10457,0 -2,0.8954 -2,2 0,1.1046 0.89543,2 2,2 1.10457,0 2,-0.8954 2,-2 0,-1.1046 -0.89543,-2 -2,-2 z m 6.99999,0 c -1.10457,0 -2,0.8954 -2,2 0,1.1046 0.89543,2 2,2 1.10457,0 2,-0.8954 2,-2 0,-1.1046 -0.89543,-2 -2,-2 z m -7.49999,5 -1.5,1.5 0,2.5 -1.5,2.5 0.5,0.5 2,0 0,3 2,0 0,-3 2,0 0.5,-0.5 -1.5,-2.5 0,-2.5 -1.5,-1.5 z m 5.49999,0 -0.99999,1 1.99999,4.5 0,4.5 2,0 0,-4.5 2.00001,-4.5 -1.00001,-1 z" opacity=".3" stroke="#fff" stroke-width="2" stroke-linecap="round" stroke-linejoin="round" overflow="visible" enable-background="accumulate" fill="none"/>
        <path d="m 348.00001,1291.3622 c -1.10457,0 -2,0.8954 -2,2 0,1.1046 0.89543,2 2,2 1.10457,0 2,-0.8954 2,-2 0,-1.1046 -0.89543,-2 -2,-2 z m 6.99999,0 c -1.10457,0 -2,0.8954 -2,2 0,1.1046 0.89543,2 2,2 1.10457,0 2,-0.8954 2,-2 0,-1.1046 -0.89543,-2 -2,-2 z m -7.49999,5 -1.5,1.5 0,2.5 -1.5,2.5 0.5,0.5 2,0 0,3 2,0 0,-3 2,0 0.5,-0.5 -1.5,-2.5 0,-2.5 -1.5,-1.5 z m 5.49999,0 -0.99999,1 1.99999,4.5 0,4.5 2,0 0,-4.5 2.00001,-4.5 -1.00001,-1 z" fill="#444" overflow="visible" enable-background="accumulate"/>
        <rect y="1290.362" x="342" height="18" width="18" opacity=".5" overflow="visible" enable-background="accumulate" fill="none"/>
    </g>
</svg>
