<svg xmlns="http://www.w3.org/2000/svg" width="12" height="12">
    <g transform="translate(0 -1040.362) translate(-438 -58)" color="#000">
        <g>
            <path d="m 448,1102.3622 -3.5,-2 -3.5,2 0,5 0,1 -1,1 9,0 -1,-1 0,-1 z m -6,2.5 0.5,-0.5 0.5,0.5 0,2.5 -1,0 z m 2,0 0.5,-0.5 0.5,0.5 0,2.5 -1,0 z m 2,0 0.5,-0.5 0.5,0.5 0,2.5 -1,0 z" opacity=".3" fill="#fff" stroke="#fff" stroke-width="2" stroke-linecap="round" stroke-linejoin="round" overflow="visible" enable-background="accumulate" transform="translate(0 -1)"/>
            <path d="m 444.5,1100.3622 -3.5,2 7,0 z m -3,3 c -0.27701,0 -0.5,0.223 -0.5,0.5 l 0,3.5 0,1 -1,1 9,0 -1,-1 0,-1 0,-3.5 c 0,-0.277 -0.223,-0.5 -0.5,-0.5 z m 0.5,1.5 0.5,-0.5 0.5,0.5 0,2.5 -1,0 z m 2,0 0.5,-0.5 0.5,0.5 0,2.5 -1,0 z m 2,0 0.5,-0.5 0.5,0.5 0,2.5 -1,0 z" fill="#444" overflow="visible" enable-background="accumulate" transform="translate(0 -1)"/>
        </g>
        <rect width="12" height="12" x="438" y="1098.362" opacity=".5" overflow="visible" enable-background="accumulate" fill="none"/>
    </g>
</svg>
