<svg xmlns="http://www.w3.org/2000/svg" width="18" height="18">
    <g transform="translate(0 -1034.362) translate(-420 -64)" color="#000">
        <g>
            <path d="m 435,1105.3622 -5.5,-3 -5.5,3 0,1.9375 0,5.0625 -1,2.5 c 0,0.3611 0.23397,0.5 0.5,0.5 l 12,0 c 0.25638,0 0.5,-0.1389 0.5,-0.5 l -1,-2.5 0,-5.0625 z" opacity=".3" fill="#fff" stroke="#fff" stroke-width="2" stroke-linecap="round" stroke-linejoin="round" overflow="visible" enable-background="accumulate" transform="translate(0 -2)"/>
            <path d="m 429.5,1102.3622 -5.5,3 11,0 z m -4.5,4 c -0.5,0 -1,0.493 -1,0.9375 l 0,5.0625 -1,2.5 c 0,0.3611 0.23397,0.5 0.5,0.5 l 12,0 c 0.25638,0 0.5,-0.1389 0.5,-0.5 l -1,-2.5 0,-5.0625 c 0,-0.4445 -0.5,-0.9375 -1,-0.9375 z m 1.5,1 0.5,0.5 0,1.5 0,3 -1,0 0,-3 0,-1.5 z m 3,0 0.5,0.5 0,1.5 0,3 -1,0 0,-3 0,-1.5 z m 3,0 0.5,0.5 0,1.5 0,3 -1,0 0,-3 0,-1.5 z" fill="#444" overflow="visible" enable-background="accumulate" transform="translate(0 -2)"/>
        </g>
        <rect y="1098.362" x="420" height="18" width="18" opacity=".5" overflow="visible" enable-background="accumulate" fill="none"/>
    </g>
</svg>
