<svg xmlns="http://www.w3.org/2000/svg" width="12" height="12">
    <g transform="translate(0 -1040.362) translate(-672 -250)" color="#000">
        <path d="m 676,1292.8622 -2,1.5 0,5 1.5,0 0,-1 1,0 0,1 1.5,0 0,-5 z m -1,2 2,0 0,0.5 -2,0 z m 4,0.5 0,5 1.5,0 0,-1 1,0 0,1 1.5,0 0,-5 -2,-1.5 z m 1,0.5 2,0 0,0.5 -2,0 z m -5,1 2,0 0,0.5 -2,0 z m 5,1 2,0 0,0.5 -2,0 z" opacity=".3" fill="#fff" stroke="#fff" stroke-width="2" stroke-linecap="round" stroke-linejoin="round" overflow="visible" enable-background="accumulate"/>
        <rect y="1290.362" x="672" height="12" width="12" opacity=".5" overflow="visible" enable-background="accumulate" fill="none"/>
        <path d="m 676,1292.8622 -2,1.5 0,5 1.5,0 0,-1 1,0 0,1 1.5,0 0,-5 z m -1,2 2,0 0,0.5 -2,0 z m 4,0.5 0,5 1.5,0 0,-1 1,0 0,1 1.5,0 0,-5 -2,-1.5 z m 1,0.5 2,0 0,0.5 -2,0 z m -5,1 2,0 0,0.5 -2,0 z m 5,1 2,0 0,0.5 -2,0 z" fill="#444" overflow="visible" enable-background="accumulate"/>
    </g>
</svg>
