<svg xmlns="http://www.w3.org/2000/svg" width="18" height="18">
    <g transform="translate(0 -1034.362) translate(-654 -256)" color="#000">
        <path d="m 660,1293.3622 -3,2 0,7 2,0 0,-2 2,0 0,2 2,0 0,-7 z m 4,4 0,7 2,0 0,-2 2,0 0,2 2,0 0,-7 -3,-2 z m -6,-1 1,0 0,1 -1,0 z m 3,0 1,0 0,1 -1,0 z m 4,2 1,0 0,1 -1,0 z m 3,0 1,0 0,1 -1,0 z m -10,0 1,0 0,1 -1,0 z m 3,0 1,0 0,1 -1,0 z m 4,2 1,0 0,1 -1,0 z m 3,0 1,0 0,1 -1,0 z" opacity=".3" fill="#fff" stroke="#fff" stroke-width="2" stroke-linecap="round" stroke-linejoin="round" overflow="visible" enable-background="accumulate"/>
        <rect width="18" height="18" x="654" y="1290.362" opacity=".5" overflow="visible" enable-background="accumulate" fill="none"/>
        <path d="m 660,1293.3622 -3,2 0,7 2,0 0,-2 2,0 0,2 2,0 0,-7 z m 4,4 0,7 2,0 0,-2 2,0 0,2 2,0 0,-7 -3,-2 z m -6,-1 1,0 0,1 -1,0 z m 3,0 1,0 0,1 -1,0 z m 4,2 1,0 0,1 -1,0 z m 3,0 1,0 0,1 -1,0 z m -10,0 1,0 0,1 -1,0 z m 3,0 1,0 0,1 -1,0 z m 4,2 1,0 0,1 -1,0 z m 3,0 1,0 0,1 -1,0 z" fill="#444" overflow="visible" enable-background="accumulate"/>
    </g>
</svg>
