<svg xmlns="http://www.w3.org/2000/svg" width="24" height="24">
    <g transform="translate(0 -1028.362) translate(-396 -70)" color="#000">
        <g>
            <path d="m 416,1106.3622 -7.5,-5 -7.5,5 0,2 0,7 -1.75,3 c -0.14834,0.2543 -0.25,0.3567 -0.25,0.5 0,0.5 0.63165,0.5 1,0.5 l 17,0 c 0.35499,0 1,0 1,-0.5 0,-0.1462 -0.0866,-0.2199 -0.25,-0.5 l -1.75,-3 0,-7 z m -12,3 c 0.554,0 0.90892,0.4535 1,1 l 0,6 -2,0 0,-2 0,-4 c 0,-0.554 0.446,-1 1,-1 z m 4.5,0 c 0.554,0 1.00866,0.4461 1,1 l 0,4 0,2 -2,0 0,-2 0,-4 c 0,-0.554 0.446,-1 1,-1 z m 4.5,0 c 0.554,0 1,0.446 1,1 l 0,6 -2,0 0,-2 0,-4 c 0,-0.554 0.446,-1 1,-1 z" opacity=".3" fill="#fff" stroke="#fff" stroke-width="2" stroke-linecap="round" stroke-linejoin="round" overflow="visible" enable-background="accumulate"/>
            <path d="m 408.5,1101.3622 -7.5,5 15,0 z m -6.5,6 c -0.55401,0 -1,0.446 -1,1 l 0,7 -1.75,3 c -0.14834,0.2543 -0.25,0.3567 -0.25,0.5 0,0.5 0.63165,0.5 1,0.5 l 17,0 c 0.35499,0 1,0 1,-0.5 0,-0.1462 -0.0866,-0.2199 -0.25,-0.5 l -1.75,-3 0,-7 c 0,-0.554 -0.44599,-1 -1,-1 z m 2,2 c 0.554,0 0.90892,0.4535 1,1 l 0,6 -2,0 0,-2 0,-4 c 0,-0.554 0.446,-1 1,-1 z m 4.5,0 c 0.554,0 1.00866,0.4461 1,1 l 0,4 0,2 -2,0 0,-2 0,-4 c 0,-0.554 0.446,-1 1,-1 z m 4.5,0 c 0.554,0 1,0.446 1,1 l 0,6 -2,0 0,-2 0,-4 c 0,-0.554 0.446,-1 1,-1 z" fill="#444" overflow="visible" enable-background="accumulate"/>
        </g>
        <rect width="24" height="24" x="396" y="1098.362" opacity=".5" overflow="visible" enable-background="accumulate" fill="none"/>
    </g>
</svg>
