<svg xmlns="http://www.w3.org/2000/svg" width="18" height="18">
    <g transform="translate(0 -1034.362) translate(-654 -280)" color="#000">
        <path d="m 660.5,1318.8622 -3.5,2.5 0,1 1,0 0,4 2,0 0,-2 1,0 0,2 2,0 0,-4 1,0 0,-1 -3.5,-2.5 z m 6,2 -3,2.1563 0,1.3437 0.5,0 0,4 2,0 0,-2 1,0 0,2 2,0 0,-4 1,0 0,-1 -3.5,-2.5 z" opacity=".3" fill="#fff" stroke="#fff" stroke-width="2" stroke-linecap="round" stroke-linejoin="round" overflow="visible" enable-background="accumulate"/>
        <rect y="1314.362" x="654" height="18" width="18" opacity=".5" overflow="visible" enable-background="accumulate" fill="none"/>
        <path transform="translate(-120 1050.362)" d="m 780.5,268.5 -3.5,2.5 0,1 1,0 0,4 2,0 0,-2 1,0 0,2 2,0 0,-4 1,0 0,-1 -3.5,-2.5 z m 6,2 -3,2.15625 0,1.34375 0.5,0 0,4 2,0 0,-2 1,0 0,2 2,0 0,-4 1,0 0,-1 -3.5,-2.5 z" fill="#444" overflow="visible" enable-background="accumulate"/>
    </g>
</svg>
