<svg xmlns="http://www.w3.org/2000/svg" width="24" height="24">
    <g transform="translate(0 -1028.362) translate(-630 -46)" color="#000">
        <path transform="translate(-120 1074.362)" d="m 761,3 -7.5,6.5 c -0.36201,0.3017 -0.5,0.5 -0.5,0.75 0,0.4959 0.5,0.75 1,0.75 l 1,0 0,8 c 0,0.554 0.446,1 1,1 l 13,0 c 0.554,0 1,-0.446 1,-1 l 0,-8 1,0 c 0.5,0 1,-0.2541 1,-0.75 C 772,10 771.86201,9.8017 771.5,9.5 L 764,3 z m -2,9 7,0 0,0.5 -7,0 z m 0,2 7,0 0,0.5 -7,0 z m 0,2 7,0 0,0.5 -7,0 z m 0,2 7,0 0,0.5 -7,0 z" opacity=".3" fill="#fff" stroke="#fff" stroke-width="2" stroke-linejoin="round" overflow="visible" enable-background="accumulate"/>
        <rect width="24" height="24" x="630" y="1074.362" opacity=".5" overflow="visible" enable-background="accumulate" fill="none"/>
        <path d="m 761,3 -7.5,6.5 c -0.36201,0.3017 -0.5,0.5 -0.5,0.75 0,0.4959 0.5,0.75 1,0.75 l 1,0 0,8 c 0,0.554 0.446,1 1,1 l 13,0 c 0.554,0 1,-0.446 1,-1 l 0,-8 1,0 c 0.5,0 1,-0.2541 1,-0.75 C 772,10 771.86201,9.8017 771.5,9.5 L 764,3 z m -2,9 7,0 0,0.5 -7,0 z m 0,2 7,0 0,0.5 -7,0 z m 0,2 7,0 0,0.5 -7,0 z m 0,2 7,0 0,0.5 -7,0 z" transform="translate(-120 1074.362)" fill="#444" overflow="visible" enable-background="accumulate"/>
    </g>
</svg>
