<svg xmlns="http://www.w3.org/2000/svg" width="18" height="18">
    <g transform="translate(0 -1034.362) translate(-342 -232)" color="#000">
        <path d="m 349.518,1268.3622 c -0.20411,0 -0.268,0.1643 -0.268,0.3684 l 0,1.6316 -2.51315,0 c -0.40822,0 -0.73685,0.092 -0.73685,0.5 0,0.4083 0.32863,0.5 0.73685,0.5 l 9.52631,0 c 0.40821,0 0.73684,-0.092 0.73684,-0.5 0,-0.4082 -0.32863,-0.5 -0.73684,-0.5 l -2.51316,0 0,-1.6316 c 0,-0.2041 -0.16389,-0.3684 -0.368,-0.3684 z m 0.482,0.7368 3,0 0,1.2632 -3,0 z m -3.26315,3.2632 c -0.40822,0 -0.78834,0.3343 -0.72122,0.7369 l 1.40542,8.5263 c 0.0664,0.4027 0.32863,0.7368 0.73685,0.7368 l 6.63157,0 c 0.40822,0 0.66972,-0.3342 0.73685,-0.7368 l 1.45805,-8.5263 c 0.0688,-0.4023 -0.313,-0.7369 -0.72121,-0.7369 z" opacity=".3" stroke="#fff" stroke-width="2" stroke-linecap="round" stroke-linejoin="round" overflow="visible" enable-background="accumulate" fill="none"/>
        <path d="m 349.518,1268.3622 c -0.20411,0 -0.268,0.1643 -0.268,0.3684 l 0,1.6316 -2.51315,0 c -0.40822,0 -0.73685,0.092 -0.73685,0.5 0,0.4083 0.32863,0.5 0.73685,0.5 l 9.52631,0 c 0.40821,0 0.73684,-0.092 0.73684,-0.5 0,-0.4082 -0.32863,-0.5 -0.73684,-0.5 l -2.51316,0 0,-1.6316 c 0,-0.2041 -0.16389,-0.3684 -0.368,-0.3684 z m 0.482,0.7368 3,0 0,1.2632 -3,0 z m -3.26315,3.2632 c -0.40822,0 -0.78834,0.3343 -0.72122,0.7369 l 1.40542,8.5263 c 0.0664,0.4027 0.32863,0.7368 0.73685,0.7368 l 6.63157,0 c 0.40822,0 0.66972,-0.3342 0.73685,-0.7368 l 1.45805,-8.5263 c 0.0688,-0.4023 -0.313,-0.7369 -0.72121,-0.7369 z" fill="#444" overflow="visible" enable-background="accumulate"/>
        <rect width="18" height="18" x="342" y="1266.362" opacity=".5" overflow="visible" enable-background="accumulate" fill="none"/>
    </g>
</svg>
