<?xml version="1.0" encoding="UTF-8" standalone="no"?>
<!-- Created with Inkscape (http://www.inkscape.org/) -->

<svg
   xmlns:dc="http://purl.org/dc/elements/1.1/"
   xmlns:cc="http://creativecommons.org/ns#"
   xmlns:rdf="http://www.w3.org/1999/02/22-rdf-syntax-ns#"
   xmlns:svg="http://www.w3.org/2000/svg"
   xmlns="http://www.w3.org/2000/svg"
   xmlns:sodipodi="http://sodipodi.sourceforge.net/DTD/sodipodi-0.dtd"
   xmlns:inkscape="http://www.inkscape.org/namespaces/inkscape"
   width="18"
   height="18"
   id="svg4619"
   version="1.1"
   inkscape:version="0.48.2 r9819"
   sodipodi:docname="embassy-18.svg">
  <defs
     id="defs4621" />
  <sodipodi:namedview
     id="base"
     pagecolor="#ffffff"
     bordercolor="#666666"
     borderopacity="1.0"
     inkscape:pageopacity="0.0"
     inkscape:pageshadow="2"
     inkscape:zoom="11.313708"
     inkscape:cx="9.6985107"
     inkscape:cy="3.6672618"
     inkscape:document-units="px"
     inkscape:current-layer="layer1"
     showgrid="true"
     showguides="true"
     inkscape:guide-bbox="true"
     inkscape:window-width="1008"
     inkscape:window-height="662"
     inkscape:window-x="76"
     inkscape:window-y="40"
     inkscape:window-maximized="0"
     inkscape:snap-bbox="true"
     inkscape:object-paths="true"
     inkscape:snap-nodes="false">
    <inkscape:grid
       type="xygrid"
       id="grid4627"
       empspacing="5"
       visible="true"
       enabled="true"
       snapvisiblegridlinesonly="true" />
    <sodipodi:guide
       orientation="0,1"
       position="7,18"
       id="guide4659" />
    <sodipodi:guide
       orientation="1,0"
       position="18,9"
       id="guide4661" />
    <sodipodi:guide
       orientation="0,1"
       position="16,17"
       id="guide4663" />
    <sodipodi:guide
       orientation="1,0"
       position="17,14"
       id="guide4665" />
    <sodipodi:guide
       orientation="1,0"
       position="0,16"
       id="guide4667" />
    <sodipodi:guide
       orientation="0,1"
       position="8,0"
       id="guide4669" />
    <sodipodi:guide
       orientation="1,0"
       position="2,10"
       id="guide4671" />
    <sodipodi:guide
       orientation="0,1"
       position="12,2"
       id="guide4673" />
  </sodipodi:namedview>
  <metadata
     id="metadata4624">
    <rdf:RDF>
      <cc:Work
         rdf:about="">
        <dc:format>image/svg+xml</dc:format>
        <dc:type
           rdf:resource="http://purl.org/dc/dcmitype/StillImage" />
        <dc:title></dc:title>
      </cc:Work>
    </rdf:RDF>
  </metadata>
  <g
     inkscape:label="Layer 1"
     inkscape:groupmode="layer"
     id="layer1"
     transform="translate(0,-1034.3622)">
    <g
       transform="translate(-342,-232)"
       style="display:inline"
       id="waste-basket-18"
       inkscape:label="waste-basket-18"
       inkscape:export-xdpi="89.996864"
       inkscape:export-ydpi="89.996864">
      <path
         id="path5675"
         d="m 349.518,1268.3622 c -0.20411,0 -0.268,0.1643 -0.268,0.3684 l 0,1.6316 -2.51315,0 c -0.40822,0 -0.73685,0.092 -0.73685,0.5 0,0.4083 0.32863,0.5 0.73685,0.5 l 9.52631,0 c 0.40821,0 0.73684,-0.092 0.73684,-0.5 0,-0.4082 -0.32863,-0.5 -0.73684,-0.5 l -2.51316,0 0,-1.6316 c 0,-0.2041 -0.16389,-0.3684 -0.368,-0.3684 z m 0.482,0.7368 3,0 0,1.2632 -3,0 z m -3.26315,3.2632 c -0.40822,0 -0.78834,0.3343 -0.72122,0.7369 l 1.40542,8.5263 c 0.0664,0.4027 0.32863,0.7368 0.73685,0.7368 l 6.63157,0 c 0.40822,0 0.66972,-0.3342 0.73685,-0.7368 l 1.45805,-8.5263 c 0.0688,-0.4023 -0.313,-0.7369 -0.72121,-0.7369 z"
         style="opacity:0.3;color:#000000;fill:none;stroke:#ffffff;stroke-width:2;stroke-linecap:round;stroke-linejoin:round;stroke-miterlimit:4;stroke-opacity:1;stroke-dasharray:none;stroke-dashoffset:0;marker:none;visibility:visible;display:inline;overflow:visible;enable-background:accumulate"
         inkscape:connector-curvature="0"
         sodipodi:nodetypes="sscsssssscssscccccscssscsss" />
      <path
         sodipodi:nodetypes="sscsssssscssscccccscssscsss"
         inkscape:connector-curvature="0"
         style="color:#000000;fill:#444444;fill-opacity:1;fill-rule:nonzero;stroke:none;stroke-width:2;marker:none;visibility:visible;display:inline;overflow:visible;enable-background:accumulate"
         d="m 349.518,1268.3622 c -0.20411,0 -0.268,0.1643 -0.268,0.3684 l 0,1.6316 -2.51315,0 c -0.40822,0 -0.73685,0.092 -0.73685,0.5 0,0.4083 0.32863,0.5 0.73685,0.5 l 9.52631,0 c 0.40821,0 0.73684,-0.092 0.73684,-0.5 0,-0.4082 -0.32863,-0.5 -0.73684,-0.5 l -2.51316,0 0,-1.6316 c 0,-0.2041 -0.16389,-0.3684 -0.368,-0.3684 z m 0.482,0.7368 3,0 0,1.2632 -3,0 z m -3.26315,3.2632 c -0.40822,0 -0.78834,0.3343 -0.72122,0.7369 l 1.40542,8.5263 c 0.0664,0.4027 0.32863,0.7368 0.73685,0.7368 l 6.63157,0 c 0.40822,0 0.66972,-0.3342 0.73685,-0.7368 l 1.45805,-8.5263 c 0.0688,-0.4023 -0.313,-0.7369 -0.72121,-0.7369 z"
         id="path5652" />
      <rect
         style="opacity:0.5;color:#000000;fill:none;stroke:none;stroke-width:2;marker:none;visibility:visible;display:inline;overflow:visible;enable-background:accumulate"
         id="rect5693"
         width="18.000017"
         height="18.000031"
         x="341.99997"
         y="1266.3622" />
    </g>
  </g>
</svg>
