<svg xmlns="http://www.w3.org/2000/svg" width="12" height="12">
    <g transform="translate(0 -1040.362) translate(-282 -250)" color="#000">
        <rect y="1290.362" x="282" height="12" width="12" opacity=".5" overflow="visible" enable-background="accumulate" fill="none"/>
        <path d="m 288.5,1301.3622 c -1.61437,0 -3.5,-1 -3.5,-3.5 0,-1.75 2.75,-5.5 3.5,-6.5 0.75,1 3.5,4.75 3.5,6.5 0,2.5 -1.88563,3.5 -3.5,3.5 z" opacity=".3" stroke="#fff" stroke-width="2" stroke-linecap="round" stroke-linejoin="round" overflow="visible" enable-background="accumulate" fill="none"/>
        <path d="m 288.5,1301.3622 c -1.61437,0 -3.5,-1 -3.5,-3.5 0,-1.75 2.75,-5.5 3.5,-6.5 0.75,1 3.5,4.75 3.5,6.5 0,2.5 -1.88563,3.5 -3.5,3.5 z" fill="#444" overflow="visible" enable-background="accumulate"/>
    </g>
</svg>
