<svg xmlns="http://www.w3.org/2000/svg" width="18" height="18">
    <g transform="translate(0 -1034.362) translate(-264 -280)" color="#000">
        <path d="m 277,1317.3622 c -1,0 -2.78873,1.8029 -3.09375,3.4063 l -0.9375,4.875 0.53125,-0.2813 2,1 0.90625,-0.375 c 0.13935,-0.7507 0.46178,-2.4691 0.59375,-3.125 0.15329,-0.7618 0.8,-1.5 1.5,-1.5 l 1,0 -1,-1 -0.5,0 -1,0 -1,1 0,-1 c 0,-1 1.00625,-2 1.90625,-2 l 1.09375,0 -1,-1 -1,0 z m -8.5,3 -1,1 1,0 c 0.7,0 1.34671,0.7382 1.5,1.5 0.13324,0.6622 0.45816,2.4257 0.59375,3.1563 l 0.875,0.3437 0.84375,-0.4062 -0.8125,-3.5938 c -0.09,-0.4006 -0.20226,-0.6854 -0.5,-1 l -1,-1 -1,0 -0.5,0 z m 0.5,6 -2,1 0,1.5 2,-1 2.5,1 2,-1 2,1 2.5,-0.8437 2,0.8437 0,-1.5 -2,-1 -2.5,1 -2,-1 -2,1 -2.5,-1 z" opacity=".3" stroke="#fff" stroke-width="2" stroke-linecap="round" stroke-linejoin="round" overflow="visible" enable-background="accumulate" fill="none"/>
        <path d="m 277,1317.3622 c -1,0 -2.78873,1.8029 -3.09375,3.4063 l -0.9375,4.875 0.53125,-0.2813 2,1 0.90625,-0.375 c 0.13935,-0.7507 0.46178,-2.4691 0.59375,-3.125 0.15329,-0.7618 0.8,-1.5 1.5,-1.5 l 1,0 -1,-1 -0.5,0 -1,0 -1,1 0,-1 c 0,-1 1.00625,-2 1.90625,-2 l 1.09375,0 -1,-1 -1,0 z m -8.5,3 -1,1 1,0 c 0.7,0 1.34671,0.7382 1.5,1.5 0.13324,0.6622 0.45816,2.4257 0.59375,3.1563 l 0.875,0.3437 0.84375,-0.4062 -0.8125,-3.5938 c -0.09,-0.4006 -0.20226,-0.6854 -0.5,-1 l -1,-1 -1,0 -0.5,0 z m 0.5,6 -2,1 0,1.5 2,-1 2.5,1 2,-1 2,1 2.5,-0.8437 2,0.8437 0,-1.5 -2,-1 -2.5,1 -2,-1 -2,1 -2.5,-1 z" fill="#444" overflow="visible" enable-background="accumulate"/>
        <rect y="1314.362" x="264" height="18" width="18" opacity=".5" overflow="visible" enable-background="accumulate" fill="none"/>
    </g>
</svg>
