<?xml version="1.0" encoding="UTF-8" standalone="no"?>
<!-- Created with Inkscape (http://www.inkscape.org/) -->

<svg
   xmlns:dc="http://purl.org/dc/elements/1.1/"
   xmlns:cc="http://creativecommons.org/ns#"
   xmlns:rdf="http://www.w3.org/1999/02/22-rdf-syntax-ns#"
   xmlns:svg="http://www.w3.org/2000/svg"
   xmlns="http://www.w3.org/2000/svg"
   xmlns:sodipodi="http://sodipodi.sourceforge.net/DTD/sodipodi-0.dtd"
   xmlns:inkscape="http://www.inkscape.org/namespaces/inkscape"
   width="24"
   height="24"
   id="svg4460"
   version="1.1"
   inkscape:version="0.48.2 r9819"
   sodipodi:docname="water-24.svg">
  <defs
     id="defs4462" />
  <sodipodi:namedview
     id="base"
     pagecolor="#ffffff"
     bordercolor="#666666"
     borderopacity="1.0"
     inkscape:pageopacity="0.0"
     inkscape:pageshadow="2"
     inkscape:zoom="11.313708"
     inkscape:cx="15.622727"
     inkscape:cy="6.9146856"
     inkscape:document-units="px"
     inkscape:current-layer="layer1"
     showgrid="true"
     showguides="true"
     inkscape:guide-bbox="true"
     inkscape:window-width="1220"
     inkscape:window-height="833"
     inkscape:window-x="56"
     inkscape:window-y="20"
     inkscape:window-maximized="0">
    <inkscape:grid
       type="xygrid"
       id="grid4468"
       empspacing="5"
       visible="true"
       enabled="true"
       snapvisiblegridlinesonly="true" />
    <sodipodi:guide
       orientation="1,0"
       position="0,20"
       id="guide4470" />
    <sodipodi:guide
       orientation="0,1"
       position="4,24"
       id="guide4472" />
    <sodipodi:guide
       orientation="1,0"
       position="24,13"
       id="guide4474" />
    <sodipodi:guide
       orientation="0,1"
       position="15,0"
       id="guide4476" />
    <sodipodi:guide
       orientation="1,0"
       position="23,20"
       id="guide4478" />
    <sodipodi:guide
       orientation="0,1"
       position="20,23"
       id="guide4480" />
    <sodipodi:guide
       orientation="1,0"
       position="2,5"
       id="guide4482" />
    <sodipodi:guide
       orientation="0,1"
       position="7,2"
       id="guide4484" />
    <sodipodi:guide
       orientation="1,0"
       position="13,16"
       id="guide4486" />
  </sodipodi:namedview>
  <metadata
     id="metadata4465">
    <rdf:RDF>
      <cc:Work
         rdf:about="">
        <dc:format>image/svg+xml</dc:format>
        <dc:type
           rdf:resource="http://purl.org/dc/dcmitype/StillImage" />
        <dc:title></dc:title>
      </cc:Work>
    </rdf:RDF>
  </metadata>
  <g
     inkscape:label="Layer 1"
     inkscape:groupmode="layer"
     id="layer1"
     transform="translate(0,-1028.3622)">
    <g
       transform="translate(-240,-286)"
       style="display:inline"
       id="wetland-24"
       inkscape:label="#g4830"
       inkscape:export-xdpi="89.996864"
       inkscape:export-ydpi="89.996864">
      <rect
         style="opacity:0.5;color:#000000;fill:none;stroke:none;stroke-width:2;marker:none;visibility:visible;display:inline;overflow:visible;enable-background:accumulate"
         id="rect22609-8-4"
         width="24"
         height="24.000017"
         x="240"
         y="1314.3622" />
      <path
         style="opacity:0.3;color:#000000;fill:none;stroke:#ffffff;stroke-width:2;stroke-linecap:round;stroke-linejoin:round;stroke-miterlimit:4;stroke-opacity:1;stroke-dasharray:none;stroke-dashoffset:0;marker:none;visibility:visible;display:inline;overflow:visible;enable-background:accumulate"
         d="m 257,1318.3622 c -2,0 -3.59749,2 -4,4 l -1.125,5.5625 c 0.18718,-0.039 0.39682,-0.062 0.625,-0.062 1.5,0 2,0.9995 3,1 0.19687,1e-4 0.39306,-0.032 0.59375,-0.094 0.22556,-1.1217 0.7493,-3.6263 0.90625,-4.4063 0.19161,-0.9523 1,-2 2,-2 l 1,0 c 5e-5,-0.5 -0.49995,-1 -1,-1 l -1,0 c -0.83057,0 -1.60124,0.3065 -2.15625,0.75 l 0.15625,-0.75 c 0.1973,-0.9804 1,-2 2,-2 l 1,0 c 0,-0.5 -0.5,-1 -1,-1 l -1,0 z m -11,3 c -0.50005,0 -1.00005,0.5 -1,1 l 1,0 c 1,0 1.80839,1.0477 2,2 0.15208,0.7559 0.66263,3.2025 0.90625,4.4063 0.20069,0.062 0.39688,0.094 0.59375,0.094 0.56577,2e-4 0.98268,-0.3158 1.5,-0.5937 l -1,-4.9063 c -0.20125,-1 -1.50005,-2 -3,-2 l -1,0 z m 0,8 c -0.69406,0 -1.33976,0.4049 -2,0.625 l 0,2.0313 c 0,0 1,-0.6558 2,-0.6563 1,-5e-4 2,1 3.5,1 1.5,0 1.97352,-0.9653 3,-1 1,5e-4 1.5,1 3,1 1.5,0 2.5,-1 3.5,-1 0.70165,0 2,0.6563 2,0.6563 l 0,-2.0313 c -0.6416,-0.2468 -1.34343,-0.625 -2,-0.625 -1.5,0 -2.5,1.0005 -3.5,1 -1,-5e-4 -1.5,-1 -3,-1 -1.5,0 -2,1.0005 -3,1 -1,5e-4 -2,-1 -3.5,-1 z"
         id="path4777"
         inkscape:connector-curvature="0" />
      <path
         inkscape:connector-curvature="0"
         id="path4397"
         d="m 257,1318.3622 c -2,0 -3.59749,2 -4,4 l -1.125,5.5625 c 0.18718,-0.039 0.39682,-0.062 0.625,-0.062 1.5,0 2,0.9995 3,1 0.19687,1e-4 0.39306,-0.032 0.59375,-0.094 0.22556,-1.1217 0.7493,-3.6263 0.90625,-4.4063 0.19161,-0.9523 1,-2 2,-2 l 1,0 c 5e-5,-0.5 -0.49995,-1 -1,-1 l -1,0 c -0.83057,0 -1.60124,0.3065 -2.15625,0.75 l 0.15625,-0.75 c 0.1973,-0.9804 1,-2 2,-2 l 1,0 c 0,-0.5 -0.5,-1 -1,-1 l -1,0 z m -11,3 c -0.50005,0 -1.00005,0.5 -1,1 l 1,0 c 1,0 1.80839,1.0477 2,2 0.15208,0.7559 0.66263,3.2025 0.90625,4.4063 0.20069,0.062 0.39688,0.094 0.59375,0.094 0.56577,2e-4 0.98268,-0.3158 1.5,-0.5937 l -1,-4.9063 c -0.20125,-1 -1.50005,-2 -3,-2 l -1,0 z m 0,8 c -0.69406,0 -1.33976,0.4049 -2,0.625 l 0,2.0313 c 0,0 1,-0.6558 2,-0.6563 1,-5e-4 2,1 3.5,1 1.5,0 1.97352,-0.9653 3,-1 1,5e-4 1.5,1 3,1 1.5,0 2.5,-1 3.5,-1 0.70165,0 2,0.6563 2,0.6563 l 0,-2.0313 c -0.6416,-0.2468 -1.34343,-0.625 -2,-0.625 -1.5,0 -2.5,1.0005 -3.5,1 -1,-5e-4 -1.5,-1 -3,-1 -1.5,0 -2,1.0005 -3,1 -1,5e-4 -2,-1 -3.5,-1 z"
         style="color:#000000;fill:#444444;fill-opacity:1;fill-rule:nonzero;stroke:none;stroke-width:2.79999375;marker:none;visibility:visible;display:inline;overflow:visible;enable-background:accumulate" />
    </g>
  </g>
</svg>
