<svg xmlns="http://www.w3.org/2000/svg" width="24" height="24">
    <g transform="translate(0 -1028.362) translate(-240 -286)" color="#000">
        <rect width="24" height="24" x="240" y="1314.362" opacity=".5" overflow="visible" enable-background="accumulate" fill="none"/>
        <path d="m 257,1318.3622 c -2,0 -3.59749,2 -4,4 l -1.125,5.5625 c 0.18718,-0.039 0.39682,-0.062 0.625,-0.062 1.5,0 2,0.9995 3,1 0.19687,1e-4 0.39306,-0.032 0.59375,-0.094 0.22556,-1.1217 0.7493,-3.6263 0.90625,-4.4063 0.19161,-0.9523 1,-2 2,-2 l 1,0 c 5e-5,-0.5 -0.49995,-1 -1,-1 l -1,0 c -0.83057,0 -1.60124,0.3065 -2.15625,0.75 l 0.15625,-0.75 c 0.1973,-0.9804 1,-2 2,-2 l 1,0 c 0,-0.5 -0.5,-1 -1,-1 l -1,0 z m -11,3 c -0.50005,0 -1.00005,0.5 -1,1 l 1,0 c 1,0 1.80839,1.0477 2,2 0.15208,0.7559 0.66263,3.2025 0.90625,4.4063 0.20069,0.062 0.39688,0.094 0.59375,0.094 0.56577,2e-4 0.98268,-0.3158 1.5,-0.5937 l -1,-4.9063 c -0.20125,-1 -1.50005,-2 -3,-2 l -1,0 z m 0,8 c -0.69406,0 -1.33976,0.4049 -2,0.625 l 0,2.0313 c 0,0 1,-0.6558 2,-0.6563 1,-5e-4 2,1 3.5,1 1.5,0 1.97352,-0.9653 3,-1 1,5e-4 1.5,1 3,1 1.5,0 2.5,-1 3.5,-1 0.70165,0 2,0.6563 2,0.6563 l 0,-2.0313 c -0.6416,-0.2468 -1.34343,-0.625 -2,-0.625 -1.5,0 -2.5,1.0005 -3.5,1 -1,-5e-4 -1.5,-1 -3,-1 -1.5,0 -2,1.0005 -3,1 -1,5e-4 -2,-1 -3.5,-1 z" opacity=".3" stroke="#fff" stroke-width="2" stroke-linecap="round" stroke-linejoin="round" overflow="visible" enable-background="accumulate" fill="none"/>
        <path d="m 257,1318.3622 c -2,0 -3.59749,2 -4,4 l -1.125,5.5625 c 0.18718,-0.039 0.39682,-0.062 0.625,-0.062 1.5,0 2,0.9995 3,1 0.19687,1e-4 0.39306,-0.032 0.59375,-0.094 0.22556,-1.1217 0.7493,-3.6263 0.90625,-4.4063 0.19161,-0.9523 1,-2 2,-2 l 1,0 c 5e-5,-0.5 -0.49995,-1 -1,-1 l -1,0 c -0.83057,0 -1.60124,0.3065 -2.15625,0.75 l 0.15625,-0.75 c 0.1973,-0.9804 1,-2 2,-2 l 1,0 c 0,-0.5 -0.5,-1 -1,-1 l -1,0 z m -11,3 c -0.50005,0 -1.00005,0.5 -1,1 l 1,0 c 1,0 1.80839,1.0477 2,2 0.15208,0.7559 0.66263,3.2025 0.90625,4.4063 0.20069,0.062 0.39688,0.094 0.59375,0.094 0.56577,2e-4 0.98268,-0.3158 1.5,-0.5937 l -1,-4.9063 c -0.20125,-1 -1.50005,-2 -3,-2 l -1,0 z m 0,8 c -0.69406,0 -1.33976,0.4049 -2,0.625 l 0,2.0313 c 0,0 1,-0.6558 2,-0.6563 1,-5e-4 2,1 3.5,1 1.5,0 1.97352,-0.9653 3,-1 1,5e-4 1.5,1 3,1 1.5,0 2.5,-1 3.5,-1 0.70165,0 2,0.6563 2,0.6563 l 0,-2.0313 c -0.6416,-0.2468 -1.34343,-0.625 -2,-0.625 -1.5,0 -2.5,1.0005 -3.5,1 -1,-5e-4 -1.5,-1 -3,-1 -1.5,0 -2,1.0005 -3,1 -1,5e-4 -2,-1 -3.5,-1 z" fill="#444" overflow="visible" enable-background="accumulate"/>
    </g>
</svg>
