<svg xmlns="http://www.w3.org/2000/svg" width="12" height="12">
    <g transform="translate(0 -1040.362) translate(-204 -130)">
        <path d="m 212.5,1171.3622 c -1,1.5 -0.89211,3.0026 -2,4 -1.05832,0.9528 -3.5,0.6257 -3.5,2 l 0,0.5 c 0,0.5 0.5,0.9758 0.5,1.5 l 0,0.5 c 0,0.75 -0.25,0.75 -0.5,1.5 l 0.5,0 1,-1.5 0,1.5 0.5,0 0,-3 1,0 0,3 0.5,0 0,-2.5 1,0 0.5,2.5 0.5,0 -0.5,-4 c 0,-0.466 0,-1 0,-1.5 l 1,-3.5 1,0 c 0,-0.1667 0,-0.8333 0,-1 z" opacity=".3" color="#000" fill="#444" stroke="#fff" stroke-width="2" stroke-linecap="round" stroke-linejoin="round" overflow="visible" enable-background="accumulate"/>
        <path d="m 212.5,1171.3622 c -1,1.5 -0.89211,3.0026 -2,4 -1.05832,0.9528 -3.5,0.6257 -3.5,2 l 0,0.5 c 0,0.5 0.5,0.9758 0.5,1.5 l 0,0.5 c 0,0.75 -0.25,0.75 -0.5,1.5 l 0.5,0 1,-1.5 0,1.5 0.5,0 0,-3 1,0 0,3 0.5,0 0,-2.5 1,0 0.5,2.5 0.5,0 -0.5,-4 c 0,-0.466 0,-1 0,-1.5 l 1,-3.5 1,0 c 0,-0.1667 0,-0.8333 0,-1 z" color="#000" fill="#444" overflow="visible" enable-background="accumulate"/>
        <rect width="12" height="12" x="204" y="1170.362" opacity=".5" color="#000" overflow="visible" enable-background="accumulate" fill="none"/>
    </g>
</svg>
