<?xml version="1.0" encoding="UTF-8"?>
<svg width="1024" height="1024" version="1.1" viewBox="0 0 1024 1024" xmlns="http://www.w3.org/2000/svg">
 <path d="m511.9 261.97c-142.05 0-270.66 56.258-365.21 147.83-19.847 19.221-51.57 18.753-70.635-1.0939-19.065-19.847-18.753-51.57 1.0939-70.635 112.36-109.08 265.82-176.12 434.75-176.12 168.93 0 322.39 67.041 434.9 176.12 19.846 19.221 20.315 50.945 1.0939 70.635-19.222 19.69-50.945 20.315-70.635 1.0939-94.701-91.575-223.31-147.83-365.36-147.83zm-75.011 525.07c0-41.412 33.598-75.01 75.011-75.01 41.412 0 75.011 33.598 75.011 75.01s-33.598 75.011-75.011 75.011c-41.412 0-75.011-33.598-75.011-75.011zm-112.52-165.34c-18.284 20.784-49.851 22.659-70.635 4.3756-20.784-18.284-22.659-49.851-4.3756-70.635 64.071-72.51 157.99-118.45 262.54-118.45 104.55 0 198.47 45.944 262.54 118.45 18.284 20.784 16.252 52.351-4.3756 70.635-20.628 18.284-52.351 16.252-70.635-4.3756-45.944-52.039-112.83-84.699-187.53-84.699-74.698 0-141.58 32.661-187.53 84.699z"/>
</svg>
