<?xml version="1.0" encoding="UTF-8"?>
<svg width="1024" height="1024" version="1.1" viewBox="0 0 1024 1024" xmlns="http://www.w3.org/2000/svg">
 <path d="m262.09 152.48c-29.99 0-54.992 18.893-64.535 45.409l-42.666 121.51h-41.529a51.36 51.36 0 0 0-51.36 51.36 51.36 51.36 0 0 0 51.36 51.36h5.4168l-10.7 30.562c-3.1808 9.4372-5.0154 19.289-5.0154 29.625v321.8c0 37.301 30.431 67.411 68.144 67.411 37.715 0 68.144-30.11 68.144-67.411v-22.47h545.3v22.47c0 36.852 30.431 67.411 68.144 67.411 37.26 0 68.144-30.11 68.144-67.411v-321.8c0-9.8871-1.8352-20.188-5.0154-29.625l-10.7-30.562h5.4167a51.36 51.36 0 0 0 51.36-51.36 51.36 51.36 0 0 0-51.36-51.36h-41.529l-42.666-121.51c-9.0876-26.514-34.544-45.409-64.535-45.409h-499.83zm32.702 67.411h434.43c19.539 0 36.774 12.586 43.135 30.562l57.711 171.67h-636.11l57.711-171.67c6.3617-17.976 23.596-30.562 43.135-30.562zm-32.702 292.11c37.715 0 68.144 30.11 68.144 67.411 0 37.301-30.431 67.411-68.144 67.411-37.715 0-68.144-30.11-68.144-67.411 0-37.301 30.431-67.411 68.144-67.411zm499.83 0c37.715 0 68.144 30.11 68.144 67.411 0 37.301-30.431 67.411-68.144 67.411-37.715 0-68.144-30.11-68.144-67.411 0-37.301 30.431-67.411 68.144-67.411z" />
</svg>
