<?xml version="1.0" encoding="UTF-8"?>
<svg width="28" height="28" version="1.1" viewBox="0 0 28 28" xmlns="http://www.w3.org/2000/svg">
 <path d="m0.59963 7.7919a0.59986 0.60011 0 0 0-0.59959 0.59959v11.217a0.59986 0.60011 0 0 0 0.59959 0.59959h1.1699a0.59986 0.60011 0 0 0 0.59959-0.59959v-5.162l1.4824 5.3241a0.59986 0.60011 0 0 0 0.57811 0.43749h1.0957a0.59986 0.60011 0 0 0 0.57616-0.43554l1.5019-5.2655v5.1014a0.59986 0.60011 0 0 0 0.5996 0.59959h1.1699a0.59986 0.60011 0 0 0 0.47655-0.25585 0.59986 0.60011 0 0 0 0.4785 0.25585h1.2929a0.59986 0.60011 0 0 0 0.5742-0.42772l0.88279-2.9687h2.953l0.93748 2.9765a0.59986 0.60011 0 0 0 0.57225 0.41991h1.3925a0.59986 0.60011 0 0 0 0.02734-2e-3 0.59986 0.60011 0 0 0 0.01172 2e-3h1.4589a0.59986 0.60011 0 0 0 0.51561-0.29491l2.2402-3.789 2.1933 3.7851a0.59986 0.60011 0 0 0 0.51952 0.29882h1.5a0.59986 0.60011 0 0 0 0.51756-0.90427l-3.2987-5.619 3.0409-4.9803a0.59986 0.60011 0 0 0-0.5117-0.91209h-1.3164a0.59986 0.60011 0 0 0-0.50975 0.28124l-1.8574 2.9745c-0.07044 0.11201-0.13749 0.2228-0.20312 0.33202-0.07681-0.13777-0.14364-0.26029-0.23242-0.41405l-1.6757-2.8769a0.59986 0.60011 0 0 0-0.51757-0.29687h-1.4433a0.59986 0.60011 0 0 0-0.51756 0.90232l2.955 5.0624-2.7245 4.4784-3.3671-10.035a0.59986 0.60011 0 0 0-0.56834-0.40819h-1.3086a0.59986 0.60011 0 0 0-0.57225 0.41991l-3.3163 10.529v-10.349a0.59986 0.60011 0 0 0-0.59959-0.59959h-1.6367a0.59986 0.60011 0 0 0-0.57811 0.43749l-2.1054 7.4607-2.0488-7.4568a0.59986 0.60011 0 0 0-0.57616-0.4414zm13.937 4.1893c0.0096 0.031 0.01763 0.0585 0.02734 0.08985l0.71873 2.33h-1.4882z"/>
</svg>
