<?xml version="1.0" encoding="iso-8859-1"?>
<svg version="1.1" baseProfile="tiny">
<defs>
</defs>
<path d="M13.526,0v68.009H0V0H13.526z"/>
<path d="M24.574,11.145V0H38.1v11.145H24.574z M38.1,18.765v49.244H24.574V18.765H38.1z"/>
<path d="M62.293,0v24.766h0.19c1.651-2.539,3.889-4.396,6.715-5.572c2.825-1.175,5.763-1.763,8.811-1.763
	c2.477,0,4.92,0.509,7.334,1.524c2.413,1.017,4.587,2.571,6.524,4.667c1.937,2.096,3.508,4.779,4.715,8.049
	c1.206,3.271,1.81,7.16,1.81,11.668c0,4.51-0.604,8.398-1.81,11.668c-1.207,3.271-2.778,5.953-4.715,8.049
	c-1.938,2.096-4.112,3.652-6.524,4.667c-2.414,1.016-4.858,1.524-7.334,1.524c-3.62,0-6.858-0.571-9.715-1.715
	c-2.857-1.143-5.017-3.079-6.477-5.81h-0.19v6.286H48.768V0H62.293z M84.201,37.434c-0.445-1.905-1.143-3.587-2.096-5.049
	c-0.952-1.46-2.143-2.619-3.572-3.477c-1.429-0.856-3.16-1.285-5.191-1.285c-1.969,0-3.684,0.429-5.144,1.285
	c-1.461,0.857-2.667,2.017-3.62,3.477c-0.953,1.462-1.652,3.144-2.096,5.049c-0.445,1.905-0.667,3.905-0.667,6.001
	c0,2.032,0.222,4,0.667,5.905c0.444,1.905,1.143,3.588,2.096,5.048c0.953,1.462,2.158,2.62,3.62,3.477
	c1.46,0.857,3.174,1.286,5.144,1.286c2.031,0,3.762-0.429,5.191-1.286c1.429-0.856,2.62-2.015,3.572-3.477
	c0.953-1.46,1.651-3.143,2.096-5.048c0.443-1.905,0.667-3.873,0.667-5.905C84.867,41.339,84.644,39.339,84.201,37.434z"/>
<path d="M134.016,18.765v9.049h-9.906v24.384c0,2.286,0.381,3.81,1.143,4.572c0.762,0.762,2.286,1.143,4.572,1.143
	c0.762,0,1.491-0.031,2.191-0.095c0.698-0.062,1.365-0.158,2-0.286v10.478c-1.143,0.19-2.414,0.317-3.81,0.381
	c-1.397,0.062-2.762,0.096-4.096,0.096c-2.095,0-4.081-0.144-5.953-0.429c-1.874-0.286-3.524-0.841-4.953-1.667
	c-1.429-0.824-2.557-2-3.381-3.524c-0.826-1.524-1.238-3.524-1.238-6.001V27.813h-8.192v-9.049h8.192V4.001h13.525v14.764H134.016z"
	/>
<path d="M154.97,56.198c2.031,1.969,4.953,2.952,8.763,2.952c2.729,0,5.079-0.682,7.048-2.048c1.967-1.364,3.174-2.81,3.62-4.334
	h11.906c-1.905,5.905-4.827,10.13-8.763,12.669c-3.938,2.54-8.701,3.81-14.288,3.81c-3.874,0-7.367-0.619-10.478-1.857
	c-3.112-1.238-5.748-3-7.906-5.286c-2.159-2.286-3.826-5.016-5-8.191c-1.176-3.175-1.762-6.668-1.762-10.478
	c0-3.683,0.603-7.111,1.81-10.287c1.206-3.175,2.92-5.921,5.144-8.239c2.222-2.317,4.873-4.144,7.954-5.477
	c3.079-1.334,6.492-2.001,10.239-2.001c4.191,0,7.842,0.81,10.954,2.429c3.11,1.62,5.667,3.796,7.667,6.525
	c2,2.73,3.444,5.843,4.334,9.334c0.888,3.493,1.206,7.144,0.952,10.954h-35.528C151.827,51.055,152.937,54.23,154.97,56.198z
	 M170.257,30.29c-1.619-1.777-4.081-2.667-7.382-2.667c-2.16,0-3.953,0.366-5.382,1.095c-1.429,0.731-2.572,1.636-3.429,2.715
	c-0.857,1.081-1.461,2.224-1.81,3.429c-0.35,1.207-0.557,2.286-0.619,3.239h22.003C173.003,34.671,171.876,32.068,170.257,30.29z"/>
<path d="M206.547,55.77c0.603,1.047,1.381,1.904,2.333,2.571c0.953,0.667,2.048,1.159,3.286,1.477
	c1.238,0.318,2.524,0.477,3.858,0.477c0.953,0,1.953-0.11,3-0.334c1.047-0.222,2-0.571,2.857-1.048
	c0.857-0.476,1.571-1.11,2.143-1.904c0.571-0.794,0.857-1.794,0.857-3.001c0-2.031-1.35-3.556-4.048-4.572
	c-2.7-1.015-6.462-2.031-11.287-3.048c-1.969-0.443-3.891-0.967-5.763-1.571c-1.874-0.603-3.541-1.396-5-2.381
	c-1.461-0.984-2.636-2.223-3.524-3.715c-0.89-1.491-1.333-3.317-1.333-5.478c0-3.174,0.619-5.777,1.857-7.811
	c1.238-2.031,2.873-3.634,4.905-4.81c2.032-1.175,4.317-2.001,6.858-2.477c2.539-0.477,5.144-0.715,7.811-0.715
	s5.254,0.255,7.763,0.763c2.508,0.509,4.746,1.366,6.715,2.571c1.968,1.207,3.604,2.81,4.906,4.811c1.301,2,2.079,4.524,2.333,7.572
	h-12.859c-0.19-2.604-1.176-4.365-2.953-5.287c-1.779-0.919-3.874-1.381-6.287-1.381c-0.762,0-1.588,0.048-2.477,0.143
	c-0.89,0.096-1.7,0.303-2.429,0.619c-0.731,0.319-1.35,0.779-1.857,1.382c-0.509,0.604-0.762,1.414-0.762,2.429
	c0,1.207,0.444,2.19,1.333,2.953c0.889,0.762,2.048,1.381,3.477,1.857c1.429,0.476,3.063,0.904,4.906,1.285
	c1.841,0.381,3.715,0.795,5.62,1.238c1.967,0.445,3.889,0.985,5.763,1.619c1.872,0.636,3.539,1.477,5,2.524
	c1.46,1.048,2.634,2.35,3.524,3.905c0.888,1.557,1.333,3.477,1.333,5.763c0,3.238-0.652,5.953-1.953,8.144
	c-1.302,2.191-3,3.953-5.096,5.287c-2.095,1.333-4.493,2.271-7.191,2.81c-2.7,0.539-5.446,0.81-8.239,0.81
	c-2.857,0-5.653-0.286-8.382-0.857c-2.731-0.571-5.16-1.523-7.287-2.857c-2.128-1.333-3.874-3.096-5.239-5.286
	c-1.366-2.191-2.112-4.937-2.238-8.239h12.859C205.642,53.468,205.943,54.722,206.547,55.77z"/>
<path d="M257.695,55.77c0.603,1.047,1.381,1.904,2.333,2.571c0.953,0.667,2.048,1.159,3.286,1.477
	c1.238,0.318,2.524,0.477,3.857,0.477c0.953,0,1.953-0.11,3.001-0.334c1.048-0.222,2-0.571,2.857-1.048
	c0.857-0.476,1.571-1.11,2.143-1.904c0.572-0.794,0.857-1.794,0.857-3.001c0-2.031-1.35-3.556-4.048-4.572
	c-2.7-1.015-6.462-2.031-11.287-3.048c-1.969-0.443-3.891-0.967-5.763-1.571c-1.874-0.603-3.541-1.396-5.001-2.381
	c-1.461-0.984-2.635-2.223-3.524-3.715c-0.89-1.491-1.333-3.317-1.333-5.478c0-3.174,0.619-5.777,1.857-7.811
	c1.238-2.031,2.872-3.634,4.905-4.81c2.031-1.175,4.317-2.001,6.858-2.477c2.539-0.477,5.144-0.715,7.811-0.715
	s5.253,0.255,7.763,0.763c2.508,0.509,4.746,1.366,6.715,2.571c1.968,1.207,3.604,2.81,4.905,4.811c1.301,2,2.079,4.524,2.334,7.572
	h-12.858c-0.191-2.604-1.176-4.365-2.953-5.287c-1.778-0.919-3.874-1.381-6.287-1.381c-0.762,0-1.588,0.048-2.476,0.143
	c-0.891,0.096-1.7,0.303-2.43,0.619c-0.73,0.319-1.35,0.779-1.857,1.382c-0.509,0.604-0.762,1.414-0.762,2.429
	c0,1.207,0.443,2.19,1.334,2.953c0.888,0.762,2.048,1.381,3.477,1.857c1.429,0.476,3.062,0.904,4.905,1.285
	c1.841,0.381,3.715,0.795,5.619,1.238c1.968,0.445,3.89,0.985,5.763,1.619c1.873,0.636,3.54,1.477,5.001,2.524
	c1.46,1.048,2.635,2.35,3.524,3.905c0.889,1.557,1.333,3.477,1.333,5.763c0,3.238-0.651,5.953-1.952,8.144
	c-1.303,2.191-3,3.953-5.096,5.287c-2.096,1.333-4.493,2.271-7.191,2.81c-2.7,0.539-5.446,0.81-8.239,0.81
	c-2.857,0-5.652-0.286-8.382-0.857c-2.731-0.571-5.16-1.523-7.287-2.857c-2.128-1.333-3.874-3.096-5.239-5.286
	c-1.366-2.191-2.112-4.937-2.238-8.239h12.859C256.79,53.468,257.091,54.722,257.695,55.77z"/>
<path d="M297.175,16.336c1.016-3.271,2.539-6.128,4.573-8.573c2.031-2.443,4.586-4.349,7.668-5.715
	C312.494,0.684,316.035,0,320.035,0c3.049,0,5.953,0.477,8.717,1.429c2.762,0.953,5.189,2.319,7.285,4.096
	c2.096,1.778,3.764,3.97,5.002,6.572c1.238,2.604,1.857,5.524,1.857,8.764c0,3.366-0.541,6.255-1.619,8.667
	c-1.082,2.414-2.51,4.558-4.287,6.43c-1.779,1.874-3.795,3.572-6.049,5.096c-2.254,1.524-4.523,3.033-6.811,4.524
	c-2.285,1.493-4.51,3.096-6.666,4.811c-2.16,1.714-4.064,3.715-5.717,6.001h31.529v11.62h-48.959c0-3.872,0.556-7.239,1.667-10.097
	c1.11-2.857,2.619-5.413,4.525-7.668c1.904-2.253,4.143-4.333,6.715-6.238s5.287-3.842,8.145-5.811
	c1.459-1.015,3.014-2.048,4.666-3.096c1.65-1.048,3.158-2.205,4.525-3.477c1.365-1.27,2.508-2.698,3.428-4.286
	c0.92-1.587,1.383-3.396,1.383-5.43c0-3.238-0.939-5.762-2.811-7.572c-1.873-1.81-4.271-2.714-7.191-2.714
	c-1.969,0-3.637,0.461-5,1.381c-1.367,0.921-2.463,2.128-3.287,3.619c-0.826,1.493-1.414,3.144-1.762,4.953
	c-0.35,1.81-0.523,3.604-0.523,5.382h-12.955C295.714,23.146,296.158,19.606,297.175,16.336z"/>
</svg>
