<svg xmlns="http://www.w3.org/2000/svg" viewBox="0 0 80 80">
	<path d="M0 0h80v80H0z" fill="none" />
	<g fill="none">
		<path fill="#f2c94c" fill-rule="evenodd" d="m32.48 41.008l-3.407 7.62A.63.63 0 0 1 28.5 49h-6a4 4 0 1 0 0 8h6c3.403 0 6.488-2 7.877-5.106l1.368-3.062l-1.209-.436a6.37 6.37 0 0 1-4.056-7.388" clip-rule="evenodd" />
		<path fill="#f2c94c" d="m29.073 48.629l-.456-.204zm3.407-7.621l.488.11l-.944-.314zm3.897 10.886l-.457-.204zm1.368-3.062l.457.204l.22-.491l-.507-.183zm-1.209-.436l.17-.47zm-7.006.437l3.407-7.621l-.913-.408l-3.407 7.62zm-1.03.667c.445 0 .848-.261 1.03-.667l-.913-.408a.13.13 0 0 1-.117.075zm-6 0h6v-1h-6zM19 53a3.5 3.5 0 0 1 3.5-3.5v-1A4.5 4.5 0 0 0 18 53zm3.5 3.5A3.5 3.5 0 0 1 19 53h-1a4.5 4.5 0 0 0 4.5 4.5zm6 0h-6v1h6zm7.42-4.81a8.13 8.13 0 0 1-7.42 4.81v1c3.6 0 6.864-2.116 8.333-5.402zm1.369-3.062L35.92 51.69l.913.408l1.369-3.062zm.626-.266l-1.21-.436l-.339.94l1.21.437zm-1.21-.436a5.87 5.87 0 0 1-3.737-6.808l-.975-.22c-.747 3.303 1.05 6.77 4.373 7.969z" />
		<path fill="#f2c94c" fill-rule="evenodd" d="M38.338 24.838a10 10 0 0 1 6.325 0l.978.326a10 10 0 0 1 6.539 7.061l.852 3.41a.48.48 0 0 0 .469.365h3a4 4 0 1 1 0 8h-3a8.48 8.48 0 0 1-7.48-4.478l-1.367 3.298l1.51.544a10 10 0 0 1 6.264 12.007l-2.065 7.67a4 4 0 1 1-7.725-2.08l2.065-7.67a2 2 0 0 0-1.253-2.401l-5.454-1.967l-1.461-.527a6.37 6.37 0 0 1-3.63-8.643l2.522-5.512l-4.661 1.554a4 4 0 0 1-2.53-7.59z" clip-rule="evenodd" />
		<path fill="#f2c94c" d="m44.663 24.838l.158-.475zm-6.325 0l-.158-.475zm7.303.326l-.158.474zm6.539 7.061l-.485.121zm.852 3.41l-.484.121zm-7.01 3.887l.44-.236l-.498-.931l-.404.975zm-1.368 3.298l-.462-.192l-.2.484l.493.178zm1.51.544l.17-.47zm6.264 12.007l-.483-.13zm-2.065 7.67l-.483-.13zm-4.902 2.822l.13-.483zm-2.823-4.903l.483.13zm2.065-7.669l-.483-.13zM43.45 50.89l.17-.47zm-5.454-1.967l-.17.47zm-1.461-.527l.17-.47zm-3.63-8.643l.454.208zm2.522-5.512l.455.208l.479-1.046l-1.092.364zm-4.661 1.554l-.159-.474zm-5.06-2.53l-.474.158zm2.53-5.06l.158.475zm16.585-3.841a10.5 10.5 0 0 0-6.64 0l.315.948a9.5 9.5 0 0 1 6.009 0zm.978.326l-.978-.327l-.316.95l.978.325zm6.866 7.414A10.5 10.5 0 0 0 45.8 24.69l-.316.948a9.5 9.5 0 0 1 6.212 6.708zm.853 3.41l-.853-3.41l-.97.242l.852 3.41zM53.5 35.5q.013.001.017.013l-.97.243a.98.98 0 0 0 .953.744zm3 0h-3v1h3zM61 40a4.5 4.5 0 0 0-4.5-4.5v1A3.5 3.5 0 0 1 60 40zm-4.5 4.5A4.5 4.5 0 0 0 61 40h-1a3.5 3.5 0 0 1-3.5 3.5zm-3 0h3v-1h-3zm-7.92-4.742A8.98 8.98 0 0 0 53.5 44.5v-1a7.98 7.98 0 0 1-7.038-4.214zm-.465 3.253l1.368-3.298l-.924-.383l-1.368 3.298zm1.218-.117l-1.51-.544l-.34.94l1.51.545zm6.577 12.607a10.5 10.5 0 0 0-6.577-12.607l-.34.94a9.5 9.5 0 0 1 5.951 11.407zm-2.065 7.67l2.065-7.67l-.966-.26l-2.065 7.67zm-5.515 3.174a4.5 4.5 0 0 0 5.515-3.175l-.966-.26a3.5 3.5 0 0 1-4.29 2.47zm-3.176-5.515a4.5 4.5 0 0 0 3.176 5.515l.26-.965a3.5 3.5 0 0 1-2.47-4.29zm2.065-7.669l-2.065 7.67l.966.26l2.065-7.67zm-.94-1.8a1.5 1.5 0 0 1 .94 1.8l.966.26a2.5 2.5 0 0 0-1.566-3.001zm-5.453-1.967l5.454 1.966l.339-.94l-5.454-1.967zm-1.462-.528l1.462.528l.339-.941l-1.461-.527zm-3.916-9.321a6.87 6.87 0 0 0 3.916 9.321l.34-.94a5.87 5.87 0 0 1-3.346-7.965zm2.524-5.512l-2.523 5.512l.909.416l2.523-5.512zm-4.05 2.236l4.662-1.554l-.316-.948l-4.662 1.553zm-5.691-2.846a4.5 4.5 0 0 0 5.692 2.846l-.317-.948a3.5 3.5 0 0 1-4.427-2.214zm2.846-5.692a4.5 4.5 0 0 0-2.846 5.692l.948-.316a3.5 3.5 0 0 1 2.214-4.427zm10.102-3.368l-10.102 3.368l.316.949l10.102-3.368z" />
		<path fill="#f2994a" stroke="#f2994a" stroke-linecap="round" stroke-linejoin="round" stroke-width="4" d="M46.155 24.87a5.406 5.406 0 1 0 4.691-9.74a5.406 5.406 0 0 0-4.691 9.74" />
	</g>
</svg>
