<?xml version="1.0" encoding="UTF-8" standalone="no"?>
<!-- Created with Inkscape (http://www.inkscape.org/) -->

<svg
   xmlns:dc="http://purl.org/dc/elements/1.1/"
   xmlns:cc="http://creativecommons.org/ns#"
   xmlns:rdf="http://www.w3.org/1999/02/22-rdf-syntax-ns#"
   xmlns:svg="http://www.w3.org/2000/svg"
   xmlns="http://www.w3.org/2000/svg"
   xmlns:sodipodi="http://sodipodi.sourceforge.net/DTD/sodipodi-0.dtd"
   xmlns:inkscape="http://www.inkscape.org/namespaces/inkscape"
   version="1.0"
   width="24"
   height="24"
   id="symbol-bakery"
   inkscape:version="0.48.2 r9819"
   sodipodi:docname="bakery.svg">
  <title
     id="title2987">Bakery Map Icon</title>
  <metadata
     id="metadata8">
    <rdf:RDF>
      <cc:Work
         rdf:about="">
        <dc:format>image/svg+xml</dc:format>
        <dc:type
           rdf:resource="http://purl.org/dc/dcmitype/StillImage" />
        <dc:title>Bakery Map Icon</dc:title>
        <dc:creator>
          <cc:Agent>
            <dc:title>Yury Melnichek</dc:title>
          </cc:Agent>
        </dc:creator>
      </cc:Work>
    </rdf:RDF>
  </metadata>
  <sodipodi:namedview
     pagecolor="#ffffff"
     bordercolor="#666666"
     borderopacity="1"
     objecttolerance="10"
     gridtolerance="10"
     guidetolerance="10"
     inkscape:pageopacity="0"
     inkscape:pageshadow="2"
     inkscape:window-width="1106"
     inkscape:window-height="693"
     id="namedview6"
     showgrid="true"
     inkscape:zoom="19.010213"
     inkscape:cx="11.86441"
     inkscape:cy="11.966105"
     inkscape:window-x="0"
     inkscape:window-y="0"
     inkscape:window-maximized="0"
     inkscape:current-layer="symbol-bakery">
    <inkscape:grid
       type="xygrid"
       id="grid2989"
       empspacing="2"
       visible="true"
       enabled="true"
       snapvisiblegridlinesonly="true" />
  </sodipodi:namedview>
  <defs
     id="defs4" />
  <path
     style="fill:#505050;fill-opacity:1;stroke:none"
     d="M 10.959668,8.1379675 C 9.4392592,8.5453598 8.1497631,8.9507594 7.0458496,9.348434 c 0.046302,0.00278 0.094323,0.010583 0.1369238,0.027992 C 7.6939082,9.5856156 7.590676,11.007704 6.9631193,12.541112 6.335556,14.074544 5.4298997,15.142189 4.9187641,14.933003 4.4076282,14.723819 4.5108613,13.301726 5.1384179,11.768319 5.5931962,10.657088 6.1962029,9.7914838 6.6917156,9.475676 1.6597705,11.351511 0.90615395,13.118478 1.3697601,14.84868 c 0.5717674,2.133864 3.2009778,3.283406 11.6604599,1.016694 8.713537,-2.334785 10.161676,-4.576848 9.589908,-6.7107129 -0.406113,-1.515637 -1.76144,-2.570209 -5.608834,-2.217641 0.294918,0.4517372 0.15158,1.6952321 -0.388923,3.0159259 -0.627557,1.533407 -1.533213,2.601052 -2.044348,2.391867 -0.511137,-0.209185 -0.407904,-1.631278 0.219653,-3.1646845 0.400668,-0.9790163 0.910224,-1.7529336 1.366266,-2.1454706 -1.420483,0.1869807 -3.12694,0.5466894 -5.204274,1.1033096 z m 0.847352,-0.097638 c 0.07269,-0.00786 0.141483,0.01588 0.205376,0.042027 0.511135,0.2091854 0.407902,1.6312771 -0.219654,3.1646852 -0.627557,1.533407 -1.533213,2.601052 -2.0443484,2.391866 -0.5111363,-0.209184 -0.407903,-1.631277 0.2196534,-3.164684 0.470667,-1.1500558 1.100908,-2.0534561 1.60558,-2.3390043 0.08411,-0.047591 0.160703,-0.087035 0.233393,-0.09489 z"
     id="path2984"
     inkscape:connector-curvature="0" />
</svg>
