<?xml version="1.0" encoding="UTF-8" standalone="no"?>
<svg
   xmlns:dc="http://purl.org/dc/elements/1.1/"
   xmlns:cc="http://creativecommons.org/ns#"
   xmlns:rdf="http://www.w3.org/1999/02/22-rdf-syntax-ns#"
   xmlns:svg="http://www.w3.org/2000/svg"
   xmlns="http://www.w3.org/2000/svg"
   xmlns:sodipodi="http://sodipodi.sourceforge.net/DTD/sodipodi-0.dtd"
   xmlns:inkscape="http://www.inkscape.org/namespaces/inkscape"
   version="1.0"
   width="24"
   height="24"
   id="symbol-bicycle-rental"
   inkscape:version="0.48.2 r9819"
   sodipodi:docname="bicycle_rental.svg">
  <metadata
     id="metadata17">
    <rdf:RDF>
      <cc:Work
         rdf:about="">
        <dc:format>image/svg+xml</dc:format>
        <dc:type
           rdf:resource="http://purl.org/dc/dcmitype/StillImage" />
      </cc:Work>
    </rdf:RDF>
  </metadata>
  <sodipodi:namedview
     pagecolor="#ffffff"
     bordercolor="#666666"
     borderopacity="1"
     objecttolerance="10"
     gridtolerance="10"
     guidetolerance="10"
     inkscape:pageopacity="0"
     inkscape:pageshadow="2"
     inkscape:window-width="959"
     inkscape:window-height="711"
     id="namedview15"
     showgrid="true"
     inkscape:zoom="5.2015913"
     inkscape:cx="16.050767"
     inkscape:cy="2.3147699"
     inkscape:window-x="0"
     inkscape:window-y="0"
     inkscape:window-maximized="0"
     inkscape:current-layer="symbol-bicycle-rental">
    <inkscape:grid
       type="xygrid"
       id="grid2994"
       empspacing="2"
       visible="true"
       enabled="true"
       snapvisiblegridlinesonly="false" />
  </sodipodi:namedview>
  <defs
     id="defs2477" />
  <rect
     style="fill:#505050;fill-opacity:1;stroke:none"
     id="rect2996"
     width="3"
     height="19"
     x="20"
     y="4" />
  <rect
     style="fill:#505050;fill-opacity:1;stroke:none"
     id="rect2998"
     width="23"
     height="1"
     x="0"
     y="22" />
  <path
     style="font-size:medium;font-style:normal;font-variant:normal;font-weight:normal;font-stretch:normal;text-indent:0;text-align:start;text-decoration:none;line-height:normal;letter-spacing:normal;word-spacing:normal;text-transform:none;direction:ltr;block-progression:tb;writing-mode:lr-tb;text-anchor:start;baseline-shift:baseline;color:#000000;fill:#505050;fill-opacity:1;stroke:none;stroke-width:0.94285715000000003;marker:none;visibility:visible;display:inline;overflow:visible;enable-background:accumulate;font-family:Sans;-inkscape-font-specification:Sans"
     d="m 14.4375,10.4375 c -0.553649,-0.01823 -1.090535,0.03358 -1.625,0.125 C 11.743569,10.745351 10.735791,11.133884 9.75,11.75 9.4720262,11.847716 9.3354337,12.223194 9.4856462,12.476677 9.6358588,12.730161 10.030804,12.790653 10.25,12.59375 10.989815,12.131368 11.732521,11.813977 12.5,11.625 l 0,1.40625 -4.8125,0 -0.15625,-0.4375 0.46875,0 c 0.2641563,0.0037 0.507121,-0.235817 0.507121,-0.5 0,-0.264183 -0.2429647,-0.503736 -0.507121,-0.5 L 6,11.5625 c -0.041448,-0.0052 -0.083552,-0.0052 -0.125,0 -0.2618101,0.03271 -0.4702528,0.300695 -0.4375267,0.562503 C 5.4701993,12.386812 5.7381934,12.59524 6,12.5625 l 0.5,0 c 0.0018,0.04622 0.015068,0.0809 0.03125,0.125 L 6.6875,13.125 c -0.035221,0.02691 -0.066839,0.05853 -0.09375,0.09375 L 5.6875,14.375 C 5.169879,14.133942 4.6072784,13.96875 4,13.96875 c -2.2302388,0 -4.0625,1.832261 -4.0625,4.0625 0,2.230238 1.8322612,4.0625 4.0625,4.0625 1.9166115,0 3.5222643,-1.36345 3.9375,-3.15625 l 0.1875,0.03125 c 0.1650688,0.325123 0.4854106,0.5625 0.875,0.5625 0.5522847,0 1,-0.447715 1,-1 0,-0.211944 -0.075023,-0.40075 -0.1875,-0.5625 l 1.0625,-2.0625 1.90625,-1.53125 0.09375,0.25 c -1.141784,0.716515 -1.9375,1.962632 -1.9375,3.40625 0,2.230238 1.832261,4.0625 4.0625,4.0625 0.721809,0 1.444875,-0.03852 2.079202,-0.09375 l -0.0167,-0.46875 c 0,-0.02191 2.29e-4,-0.04072 0,-0.0625 1.02882,-0.621265 1.771616,-1.664506 1.9375,-2.90625 0.294601,-0.02032 0.634923,-0.03125 1,-0.03125 l 0,-1 c -0.357303,0 -0.694288,-0.01014 -1,0 -0.250563,-1.99202 -1.941506,-3.5625 -4,-3.5625 -0.41817,0 -0.80766,0.100266 -1.1875,0.21875 L 13.5,13.40625 l 0,-1.9375 c 0.769683,-0.06836 1.557959,-0.02058 2.375,0.1875 0.253618,0.06545 0.543925,-0.105757 0.609375,-0.359375 C 16.549825,11.043257 16.378618,10.75295 16.125,10.6875 15.56156,10.544007 14.991149,10.455733 14.4375,10.4375 z M 8,14.03125 l 3.5625,0 -1.375,1.09375 -0.09375,0.09375 L 10.0625,15.3125 9.09375,17.25 z m -0.9375,0.25 L 8.25,17.875 C 8.225879,17.90265 8.208502,17.93855 8.1875,17.96875 L 8.0625,17.9375 c -0.02812,-1.212827 -0.6269771,-2.275746 -1.5,-3 z M 4,15.09375 c 0.364637,0 0.7093211,0.06764 1.03125,0.1875 L 3.125,17.75 c -0.2265064,0.280021 -0.014949,0.780066 0.34375,0.8125 l 3.375,0.28125 C 6.4916435,20.080882 5.3529054,21 4,21 2.3642454,21 1.03125,19.667004 1.03125,18.03125 c 0,-1.635755 1.3329954,-2.9375 2.96875,-2.9375 z m 11,0 c 1.506407,0 2.720136,1.108215 2.90625,2.5625 -0.483627,0.08398 -0.898859,0.216983 -1.21875,0.46875 -0.535389,0.421369 -0.700856,1.073019 -0.71875,1.65625 C 15.95822,20.124675 15.96995,20.468115 16,20.8125 15.688186,20.923949 15.351006,21 15,21 c -1.635755,0 -2.9375,-1.332996 -2.9375,-2.96875 0,-0.997191 0.465908,-1.872035 1.21875,-2.40625 l 1.25,3.09375 c 0.09817,0.245437 0.410813,0.379425 0.65625,0.28125 0.245437,-0.09818 0.379425,-0.410813 0.28125,-0.65625 l -1.25,-3.15625 C 14.469063,15.118938 14.727374,15.09375 15,15.09375 z m -9.09375,0.6875 c 0.5945518,0.50219 0.9781493,1.233789 1.03125,2.0625 L 4.46875,17.625 z m 11.96875,2.9375 c -0.139293,0.583918 -0.447081,1.109208 -0.875,1.5 -0.0088,-0.13702 -0.03489,-0.28759 -0.03125,-0.40625 0.01398,-0.455714 0.102175,-0.684872 0.34375,-0.875 0.09741,-0.07666 0.299111,-0.155057 0.5625,-0.21875 z"
     id="path3000"
     inkscape:connector-curvature="0"
     sodipodi:nodetypes="sscsccccccscccsccccccsssccssccccsscccccccsccccscscccccccccccccsccccsssscsccssccsccsccccccscc" />
</svg>
