<?xml version="1.0" encoding="UTF-8" standalone="no"?>
<!-- Created with Inkscape (http://www.inkscape.org/) -->
<svg
   xmlns:svg="http://www.w3.org/2000/svg"
   xmlns="http://www.w3.org/2000/svg"
   version="1.0"
   width="38"
   height="38"
   viewBox="0 0 300 300"
   id="symbol-diving-borderless">
  <defs
     id="defs2474" />
  <path
     d="M 249.86451,143.66087 C 249.86755,152.59011 242.62982,159.83031 233.70057,159.83031 C 224.77133,159.83031 217.5336,152.59011 217.53664,143.66087 C 217.5336,134.73162 224.77133,127.49143 233.70057,127.49143 C 242.62982,127.49143 249.86755,134.73162 249.86451,143.66087 L 249.86451,143.66087 z"
     id="path2387"
     style="fill:#000000;fill-opacity:1;fill-rule:evenodd;stroke:#000000;stroke-width:1px;stroke-linecap:butt;stroke-linejoin:miter;stroke-opacity:1" />
  <path
     d="M 208.51188,169.98162 L 160.96472,206.20804"
     id="path2383"
     style="fill:none;fill-opacity:1;fill-rule:evenodd;stroke:#000000;stroke-width:31.57894707;stroke-linecap:round;stroke-linejoin:miter;stroke-miterlimit:4;stroke-dasharray:none;stroke-opacity:1" />
  <path
     d="M 192.66282,146.20803 L 164.92698,167.71747"
     id="path3155"
     style="fill:none;fill-opacity:1;fill-rule:evenodd;stroke:#000000;stroke-width:15.78947353;stroke-linecap:round;stroke-linejoin:miter;stroke-miterlimit:4;stroke-dasharray:none;stroke-opacity:1" />
  <path
     d="M 150.77603,215.26463 L 124.75129,235.09301 L 95.870386,213.56652"
     id="path3157"
     style="fill:none;fill-opacity:1;fill-rule:evenodd;stroke:#000000;stroke-width:19.7368412;stroke-linecap:round;stroke-linejoin:round;stroke-miterlimit:4;stroke-dasharray:none;stroke-opacity:1" />
  <path
     d="M 241.5651,213.80305 L 210.14302,204.68689 L 210.25716,168.66629"
     id="path3159"
     style="fill:none;fill-opacity:1;fill-rule:evenodd;stroke:#000000;stroke-width:15.78947353;stroke-linecap:round;stroke-linejoin:round;stroke-miterlimit:4;stroke-dasharray:none;stroke-opacity:1" />
  <path
     d="M 87.280534,199.69532 L 54.082856,231.4"
     id="path3161"
     style="fill:none;fill-opacity:1;fill-rule:evenodd;stroke:#000000;stroke-width:7.89473677;stroke-linecap:round;stroke-linejoin:miter;stroke-miterlimit:4;stroke-dasharray:none;stroke-opacity:1" />
  <path
     d="M 15.709913,98.718935 C 15.709913,98.718935 37.503993,78.272129 49.282433,78.272129 C 61.060873,78.272129 71.076514,98.718935 82.854953,98.718935 C 94.633393,98.718935 104.64903,78.272128 116.42748,78.272129 C 128.20592,78.272129 138.22156,98.718935 150.00001,98.718935 C 161.77844,98.718935 171.79407,78.272129 183.57252,78.272129 C 195.35097,78.272129 205.3666,98.718935 217.14504,98.718935 C 228.92348,98.718935 238.93913,78.272129 250.71756,78.272129 C 262.496,78.272129 284.29009,98.718935 284.29009,98.718935"
     id="path3265"
     style="fill:none;fill-rule:evenodd;stroke:#000000;stroke-width:15.63035202;stroke-linecap:butt;stroke-linejoin:miter;stroke-miterlimit:4;stroke-dasharray:none;stroke-opacity:1" />
</svg>
