<?xml version="1.0" encoding="UTF-8" standalone="no"?>
<!-- Created with Inkscape (http://www.inkscape.org/) -->
<svg
   xmlns:svg="http://www.w3.org/2000/svg"
   xmlns="http://www.w3.org/2000/svg"
   version="1.0"
   width="40"
   height="40"
   id="symbol-firebrigade">
  <path
     d="M 32.424287,14.005435 C 32.424541,13.030855 32.983727,12.240992 33.673429,12.240992 C 34.363132,12.240992 34.922317,13.030855 34.922572,14.005435"
     id="path3172"
     style="fill:#0000ff;fill-opacity:1;stroke:none;stroke-width:20;stroke-miterlimit:4;stroke-dasharray:none;stroke-opacity:1" />
  <circle
     cx="748"
     cy="412"
     r="77"
     transform="matrix(-3.86691e-2,0,0,3.86691e-2,39.397834,10.122231)"
     id="circle10"
     style="fill:#000000;stroke:none" />
  <defs
     id="defs13" />
  <path
     d="M 27.960236,13.479197 L 34.9098,13.958933 C 36.088422,14.048181 35.728697,13.728279 37.03177,17.186598 C 38.298188,20.430829 38.084641,19.301609 38.070996,21.012418 L 38.070996,24.840656 C 38.060525,25.841697 37.910633,26.088083 36.823922,26.096192 C 36.666699,21.043222 29.431192,21.025395 29.287075,26.125192 L 14.242368,26.134868 C 14.249632,24.820349 13.693743,23.818711 12.804365,23.092091 L 27.960236,23.080006 L 27.960236,19.138177 L 29.567421,19.138177 L 29.567421,15.064628 L 27.960236,15.064628 L 27.960236,13.479197 z M 30.909967,15.061001 L 30.970384,19.139384 L 36.098876,19.739961 C 37.008253,19.858286 37.06094,19.618993 36.728454,18.809486 L 35.738765,16.170323 C 35.490232,15.352256 35.484602,15.348722 34.779295,15.301476 L 30.909967,15.061001 z M 8.1362786,23.098132 C 7.2147363,23.837026 6.6941776,24.887834 6.7031092,26.138486 L 4.5098468,26.140908 L 2.0120603,25.256347 L 2.019315,23.099338 L 8.1362786,23.098132 z"
     id="path4"
     style="fill:#d40000;fill-rule:evenodd;stroke:none" />
  <path
     d="M 27.986825,13.470736 L 27.986825,15.064628 L 23.538664,15.064628 L 23.538664,19.138177 L 27.986825,19.138177 L 27.986825,23.182718 L 2.0531478,23.182718 L 2.0531478,13.470736 L 21.855352,13.470736 L 21.855352,22.287286 L 22.561064,22.287286 L 22.561064,13.470736 L 27.986825,13.470736 z"
     id="rect6"
     style="fill:#d40000;stroke:none" />
  <circle
     cx="164"
     cy="412"
     r="77"
     transform="matrix(-3.86691e-2,0,0,3.86691e-2,39.397834,10.122231)"
     id="circle8"
     style="fill:#000000;stroke:none" />
  <rect
     width="8.635375"
     height="7.8750281"
     x="2.9879844"
     y="14.467077"
     id="rect3160"
     style="fill:#333333;fill-opacity:1;stroke:none;stroke-width:20;stroke-miterlimit:4;stroke-dasharray:none;stroke-opacity:1" />
  <rect
     width="8.635375"
     height="7.8750281"
     x="2.9879844"
     y="14.467077"
     id="rect3162"
     style="fill:#808080;fill-opacity:1;stroke:none;stroke-width:20;stroke-miterlimit:4;stroke-dasharray:none;stroke-opacity:1" />
  <rect
     width="8.635375"
     height="7.8750281"
     x="12.166475"
     y="14.412751"
     id="rect3166"
     style="fill:#808080;fill-opacity:1;stroke:none;stroke-width:20;stroke-miterlimit:4;stroke-dasharray:none;stroke-opacity:1" />
  <path
     d="M 33.727741,11.990645 L 33.727741,10.420954"
     id="path3174"
     style="fill:none;fill-opacity:1;fill-rule:evenodd;stroke:#0000ff;stroke-width:0.41625309;stroke-linecap:butt;stroke-linejoin:miter;stroke-miterlimit:4;stroke-dasharray:none;stroke-opacity:1" />
  <path
     d="M 34.42317,12.153583 L 35.313359,10.860724"
     id="path5118"
     style="fill:none;fill-opacity:1;fill-rule:evenodd;stroke:#0000ff;stroke-width:0.41625309;stroke-linecap:butt;stroke-linejoin:miter;stroke-miterlimit:4;stroke-dasharray:none;stroke-opacity:1" />
  <path
     d="M 33.032319,12.09927 L 32.14212,10.806412"
     id="path5120"
     style="fill:none;fill-opacity:1;fill-rule:evenodd;stroke:#0000ff;stroke-width:0.41625309;stroke-linecap:butt;stroke-linejoin:miter;stroke-miterlimit:4;stroke-dasharray:none;stroke-opacity:1" />
</svg>
