<?xml version="1.0" encoding="UTF-8" standalone="no"?>
<!-- Created with Inkscape (http://www.inkscape.org/) -->

<svg
   xmlns:dc="http://purl.org/dc/elements/1.1/"
   xmlns:cc="http://creativecommons.org/ns#"
   xmlns:rdf="http://www.w3.org/1999/02/22-rdf-syntax-ns#"
   xmlns:svg="http://www.w3.org/2000/svg"
   xmlns="http://www.w3.org/2000/svg"
   xmlns:sodipodi="http://sodipodi.sourceforge.net/DTD/sodipodi-0.dtd"
   xmlns:inkscape="http://www.inkscape.org/namespaces/inkscape"
   version="1.0"
   width="24"
   height="24"
   id="symbol-fountain"
   inkscape:version="0.48.2 r9819"
   sodipodi:docname="fountain.svg">
  <title
     id="title3793">Fontain Map Icon</title>
  <metadata
     id="metadata15">
    <rdf:RDF>
      <cc:Work
         rdf:about="">
        <dc:format>image/svg+xml</dc:format>
        <dc:type
           rdf:resource="http://purl.org/dc/dcmitype/StillImage" />
        <dc:title>Fontain Map Icon</dc:title>
        <dc:creator>
          <cc:Agent>
            <dc:title>Yury Melnichek</dc:title>
          </cc:Agent>
        </dc:creator>
        <cc:license
           rdf:resource="http://creativecommons.org/licenses/by-sa/3.0/" />
        <dc:source>mapsforhumans.com</dc:source>
      </cc:Work>
      <cc:License
         rdf:about="http://creativecommons.org/licenses/by-sa/3.0/">
        <cc:permits
           rdf:resource="http://creativecommons.org/ns#Reproduction" />
        <cc:permits
           rdf:resource="http://creativecommons.org/ns#Distribution" />
        <cc:requires
           rdf:resource="http://creativecommons.org/ns#Notice" />
        <cc:requires
           rdf:resource="http://creativecommons.org/ns#Attribution" />
        <cc:permits
           rdf:resource="http://creativecommons.org/ns#DerivativeWorks" />
        <cc:requires
           rdf:resource="http://creativecommons.org/ns#ShareAlike" />
      </cc:License>
    </rdf:RDF>
  </metadata>
  <sodipodi:namedview
     pagecolor="#ffffff"
     bordercolor="#666666"
     borderopacity="1"
     objecttolerance="10"
     gridtolerance="10"
     guidetolerance="10"
     inkscape:pageopacity="0"
     inkscape:pageshadow="2"
     inkscape:window-width="954"
     inkscape:window-height="715"
     id="namedview13"
     showgrid="true"
     inkscape:zoom="59.020365"
     inkscape:cx="10.188923"
     inkscape:cy="17.70163"
     inkscape:window-x="0"
     inkscape:window-y="0"
     inkscape:window-maximized="0"
     inkscape:current-layer="symbol-fountain">
    <inkscape:grid
       type="xygrid"
       id="grid2992"
       empspacing="2"
       visible="true"
       enabled="true"
       snapvisiblegridlinesonly="true" />
  </sodipodi:namedview>
  <defs
     id="defs4" />
  <path
     style="fill:#666666;fill-opacity:1;stroke:none"
     d="M 2.3125,13.96875 C 3.3359946,15.57196 6.7842055,16.770079 11,16.9375 L 11,20 c -2.1751852,0.179862 -3.9425821,0.950853 -4.65625,1.96875 l 11.3125,0 C 16.942582,20.950853 15.175185,20.179862 13,20 l 0,-3.0625 c 4.215794,-0.167421 7.664005,-1.36554 8.6875,-2.96875 l -19.375,0 z"
     id="path2994"
     inkscape:connector-curvature="0" />
  <path
     style="fill:#0000ff;fill-opacity:1;stroke:none"
     d="m 11.200837,13.02345 c 0.333395,-1.317805 -1.185445,-1.164101 -1.5706543,-2.382908 -0.4102838,-1.298141 1.4292853,-0.6510476 1.8399953,0.648446 0.152524,0.497253 0.392188,0.965414 -0.269341,1.734462 z"
     id="path3009"
     inkscape:connector-curvature="0"
     sodipodi:nodetypes="cccc" />
  <path
     sodipodi:nodetypes="cccc"
     inkscape:connector-curvature="0"
     id="path3779"
     d="M 11.191984,10.131575 C 10.35981,8.45608 9.612405,9.2948682 8.4470001,8.0467458 7.2057362,6.7173808 8.757443,6.6692499 10,8 c 0.472822,0.511229 0.972794,0.9507861 1.191984,2.131575 z"
     style="fill:#0000ff;fill-opacity:1;stroke:none" />
  <path
     style="fill:#0000ff;fill-opacity:1;stroke:none"
     d="M 8.1012699,6.4420982 C 5.6570561,5.9582206 6.8398826,6.990305 5,7 3.0403563,7.0103267 3.0253687,5.9272864 4.9870542,5.9169491 5.7405085,5.9160494 6.3916072,5.8518731 8.1012699,6.4420982 z"
     id="path3781"
     inkscape:connector-curvature="0"
     sodipodi:nodetypes="cccc" />
  <path
     sodipodi:nodetypes="cccc"
     inkscape:connector-curvature="0"
     id="path3783"
     d="m 12.657263,13.02345 c -0.333395,-1.317805 1.185445,-1.164101 1.570654,-2.382908 0.410284,-1.298141 -1.429285,-0.6510476 -1.839995,0.648446 -0.152524,0.497253 -0.392188,0.965414 0.269341,1.734462 z"
     style="fill:#0000ff;fill-opacity:1;stroke:none" />
  <path
     style="fill:#0000ff;fill-opacity:1;stroke:none"
     d="M 12.666116,10.131575 C 13.49829,8.45608 14.245695,9.2948682 15.4111,8.0467458 16.652364,6.7173808 15.100657,6.6692499 13.8581,8 13.385278,8.511229 12.885306,8.9507861 12.666116,10.131575 z"
     id="path3785"
     inkscape:connector-curvature="0"
     sodipodi:nodetypes="cccc" />
  <path
     sodipodi:nodetypes="cccc"
     inkscape:connector-curvature="0"
     id="path3787"
     d="M 15.860472,6.7307405 C 18.249588,6.0233172 17.167077,7.1601755 19,7 20.95223,6.829399 20.867185,5.7495989 18.91292,5.9203781 c -0.750321,0.068651 -1.404564,0.064848 -3.052448,0.8103624 z"
     style="fill:#0000ff;fill-opacity:1;stroke:none" />
  <path
     style="fill:#0000ff;fill-opacity:1;stroke:none"
     d="M 12,9 C 11,6 10.612405,6.2948682 9.4470001,5.0467458 8.2057362,3.7173808 9.5541233,3.398157 10.79668,4.7289071 11.269502,5.2401361 12,7.480345 12,9 z"
     id="path3789"
     inkscape:connector-curvature="0"
     sodipodi:nodetypes="cccc" />
  <path
     sodipodi:nodetypes="cccc"
     inkscape:connector-curvature="0"
     id="path3791"
     d="M 12,9 C 13,6 13.387595,6.2948682 14.553,5.0467458 15.794264,3.7173808 14.242557,3.3303838 13,4.6611339 12.527178,5.1723629 12,7 12,9 z"
     style="fill:#0000ff;fill-opacity:1;stroke:none" />
</svg>
