<?xml version="1.0" encoding="UTF-8" standalone="no"?>
<!-- Created with Inkscape (http://www.inkscape.org/) -->
<svg
   xmlns:svg="http://www.w3.org/2000/svg"
   xmlns="http://www.w3.org/2000/svg"
   version="1.0"
   width="16"
   height="16"
   id="symbol-power-wind">
  <rect
     width="0.77532399"
     height="8.1394444"
     x="8.3448029"
     y="7.860559"
     id="rect2385"
     style="fill:#000000" />
  <path
     d="M 9.4685289,7.5398227 C 9.5951548,7.3769778 10.64679,8.1902804 11.817421,9.3563852 C 12.988052,10.52249 13.834385,11.599816 13.707759,11.762661 C 13.581133,11.925506 12.529499,11.112204 11.358868,9.9460989 C 10.188236,8.7799942 9.341903,7.7026676 9.4685289,7.5398227 z"
     id="path2387"
     style="fill:#000000" />
  <path
     d="M 9.0179241,5.7934416 C 8.8242005,5.7429518 9.0001786,4.4242539 9.4109824,2.8480475 C 9.8217862,1.2718412 10.311853,0.03500359 10.505576,0.085493431 C 10.6993,0.13598327 10.523322,1.4546811 10.112518,3.0308874 C 9.7017142,4.6070939 9.2116477,5.8439315 9.0179241,5.7934416 z"
     id="path2393"
     style="fill:#000000" />
  <path
     d="M 7.7057548,7.0801563 C 7.7567258,7.273754 6.5211097,7.7668916 4.9459289,8.1816099 C 3.3707482,8.5963282 2.0524917,8.7755817 2.0015207,8.5819841 C 1.9505497,8.3883865 3.1861658,7.8952488 4.7613465,7.4805306 C 6.3365273,7.0658123 7.6547838,6.8865587 7.7057548,7.0801563 z"
     id="path2395"
     style="fill:#000000" />
  <path
     d="M 9.7448924,6.787931 C 9.7450023,7.3521951 9.2876067,7.8096797 8.7233428,7.8096797 C 8.1590787,7.8096797 7.7016831,7.3521951 7.701793,6.787931 C 7.7016831,6.2236669 8.1590787,5.7661823 8.7233428,5.7661823 C 9.2876067,5.7661823 9.7450023,6.2236669 9.7448924,6.787931 L 9.7448924,6.787931 z"
     id="path2397"
     style="fill:#000000" />
</svg>
