<?xml version="1.0" encoding="UTF-8" standalone="no"?>
<!-- Created with Inkscape (http://www.inkscape.org/) -->
<svg
   xmlns:svg="http://www.w3.org/2000/svg"
   xmlns="http://www.w3.org/2000/svg"
   version="1.0"
   width="32.619999"
   height="32.619999"
   viewBox="0 0 600 600"
   id="symbol-railway-crossing-small">
  <defs
     id="defs10" />
  <g
     transform="matrix(0.5,0,0,0.5,179.75,219.84375)"
     id="g3">
    <path
       d="M 1.5,4.5 L 67.5,6 L 257.5,97.4 L 456,0 L 519,4.5 L 504,52.5 L 319.5,139.5 L 495,220.5 L 510,271.5 L 451.5,277.5 L 258,178.5 C 258,178.5 69,274.5 64.5,277.5 C 60,280.5 0,279 0,279 L 6,228 L 178.5,142.5 L 12,63 L 1.5,4.5 z"
       id="path5"
       style="fill:#ff0000" />
    <path
       d="M 49.5,21 L 33,49.5 L 219,141 L 36,237 L 52.5,262.5 L 258,156 L 454.5,261 L 475.5,228 L 286.5,136.5 L 475.5,49.5 L 454.5,19.5 L 257.8,116.2 L 49.5,21 z"
       id="path7"
       style="fill:#ffffff" />
  </g>
</svg>
