<?xml version="1.0" encoding="UTF-8" standalone="no"?>
<svg
   xmlns:dc="http://purl.org/dc/elements/1.1/"
   xmlns:cc="http://creativecommons.org/ns#"
   xmlns:rdf="http://www.w3.org/1999/02/22-rdf-syntax-ns#"
   xmlns:svg="http://www.w3.org/2000/svg"
   xmlns="http://www.w3.org/2000/svg"
   xmlns:sodipodi="http://sodipodi.sourceforge.net/DTD/sodipodi-0.dtd"
   xmlns:inkscape="http://www.inkscape.org/namespaces/inkscape"
   version="1.1"
   width="24"
   id="symbol-supermarket"
   viewBox="0 0 38.626611 38.626611"
   height="24"
   inkscape:version="0.48.2 r9819"
   sodipodi:docname="supermarket.svg">
  <metadata
     id="metadata35">
    <rdf:RDF>
      <cc:Work
         rdf:about="">
        <dc:format>image/svg+xml</dc:format>
        <dc:type
           rdf:resource="http://purl.org/dc/dcmitype/StillImage" />
      </cc:Work>
    </rdf:RDF>
  </metadata>
  <defs
     id="defs33" />
  <sodipodi:namedview
     pagecolor="#ffffff"
     bordercolor="#666666"
     borderopacity="1"
     objecttolerance="10"
     gridtolerance="10"
     guidetolerance="10"
     inkscape:pageopacity="0"
     inkscape:pageshadow="2"
     inkscape:window-width="1025"
     inkscape:window-height="749"
     id="namedview31"
     showgrid="true"
     inkscape:zoom="15.33316"
     inkscape:cx="1.4984643"
     inkscape:cy="11.843158"
     inkscape:window-x="0"
     inkscape:window-y="0"
     inkscape:window-maximized="0"
     inkscape:current-layer="symbol-supermarket">
    <inkscape:grid
       type="xygrid"
       id="grid3012"
       empspacing="2"
       visible="true"
       enabled="true"
       snapvisiblegridlinesonly="true" />
  </sodipodi:namedview>
  <path
     style="fill:#505050;fill-opacity:1;stroke:none"
     d="m 7.4436697,1.6094425 -4.2247855,0 c -1.1618445,0.082504 -1.6094421,0.540388 -1.6094421,1.7157589 0,1.0073373 0.5141533,1.4862134 1.6094421,1.5031254 l 1.7168339,-1e-7 c 0.534088,1e-7 0.8018467,0.2634093 0.8714825,0.7933188 L 9.4538062,28.978387 C 9.6669683,29.773918 10.080335,30.5794 11.188865,30.5794 l 19.390535,0 c 1.034227,0 1.609442,-0.556661 1.609442,-1.609442 0,-0.920663 -0.514494,-1.609442 -1.415076,-1.609442 l -18.30059,0 -0.50295,-3.218884 17.278115,0 c 1.411146,0.208141 1.445555,-0.348826 1.800506,-1.42463 1.373998,-4.14029 2.838517,-8.313734 4.056809,-11.867386 0.02055,-2.2220062 -0.173155,-2.1629918 -1.307372,-2.802405 l -1.156786,-1e-7 -23.1860257,0 L 8.5158889,2.7241044 C 8.3348035,2.0482847 8.0471154,1.6094425 7.4436697,1.6094425 z m 2.5147533,9.6566525 4.526556,0 0,3.218884 -4.023605,0 z m 7.74544,0 4.828326,0 0,3.218884 -4.828326,0 z m 8.047211,0 5.783932,0 -1.106491,3.218884 -4.677441,0 z m -14.78675,6.437768 3.520655,0 0,3.218885 -3.017704,0 z m 6.739539,0 4.828326,0 0,3.218885 -4.828326,0 z m 8.047211,0 3.570949,0 -1.106491,3.218885 -2.464458,0 z"
     id="rect3022"
     inkscape:connector-curvature="0"
     sodipodi:nodetypes="ccccccccccccccccccccccccccccccccccccccccccccccccccc" />
  <path
     sodipodi:type="arc"
     style="fill:#505050;fill-opacity:1;stroke:none"
     id="path3034"
     sodipodi:cx="7.5"
     sodipodi:cy="21.5"
     sodipodi:rx="1.5"
     sodipodi:ry="1.5"
     d="m 9,21.5 a 1.5,1.5 0 1 1 -3,0 1.5,1.5 0 1 1 3,0 z"
     transform="scale(1.6094421,1.6094421)" />
  <path
     sodipodi:type="arc"
     style="fill:#505050;fill-opacity:1;stroke:none"
     id="path3036"
     sodipodi:cx="18.5"
     sodipodi:cy="21.5"
     sodipodi:rx="1.5"
     sodipodi:ry="1.5"
     d="m 20,21.5 a 1.5,1.5 0 1 1 -3,0 1.5,1.5 0 1 1 3,0 z"
     transform="scale(1.6094421,1.6094421)" />
</svg>
