<?xml version="1.0" encoding="UTF-8"?>
<svg xmlns:xs="http://www.w3.org/2001/XMLSchema" xmlns:xlink="http://www.w3.org/1999/xlink" xmlns:inkscape="http://www.inkscape.org/namespaces/inkscape" xmlns:rdf="http://www.w3.org/1999/02/22-rdf-syntax-ns#" xmlns="http://www.w3.org/2000/svg" xmlns:svg="http://www.w3.org/2000/svg" xmlns:xi="http://www.w3.org/2001/XInclude" xmlns:cc="http://web.resource.org/cc/" xmlns:dc="http://purl.org/dc/elements/1.1/" version="1.1" baseProfile="full" width="37.28" id="symbol-tennis" viewBox="0 0 300 300" height="37.28">
   <svg:path d="M 133.48356,82.980553 C 138.35306,72.173033 171.2655,58.800363 192.51384,60.653723 C 213.73985,62.505073 237.71405,63.665993 258.04302,67.164113 C 278.41938,70.670383 273.81866,89.251073 253.94604,86.309203 C 234.07342,83.367333 223.5886,81.516293 212.70243,81.368303 C 201.25474,81.212673 176.06421,83.336283 176.06421,83.336283 C 176.06421,83.336283 209.33859,133.59333 206.51429,141.4943 C 203.49726,149.93472 167.79803,153.18438 164.35398,151.01567 C 159.7332,148.10599 145.81537,122.15035 145.81537,122.15035 C 145.81537,122.15035 145.48073,139.84659 138.26094,148.15246 C 131.2924,156.16936 113.30665,166.08736 93.570228,177.10527 C 74.172798,187.93395 68.917428,170.73223 86.575458,160.96204 C 104.57891,151.00072 110.2885,150.74159 119.77793,136.51374 C 128.44132,123.52437 128.20621,94.692963 133.48356,82.980553 z "/>
   <svg:path transform="matrix(9.1042659,1.3880946,-1.3880946,9.1042659,-4261.6122,-3496.328)" d="M 533.25 308.01843 A 1.96875 2.03125 0 1 1  529.3125,308.01843 A 1.96875 2.03125 0 1 1  533.25 308.01843 z"/>
   <svg:path style="fill:none;stroke:#000000;stroke-width:1;stroke-linejoin:miter;stroke-miterlimit:4" d="M 523.25 317.36218 A 2.21875 3.4375 0 1 1  518.8125,317.36218 A 2.21875 3.4375 0 1 1  523.25 317.36218 z" transform="matrix(8.5738824,-3.3619914,3.3619914,8.5738824,-5484.0276,-867.36526)"/>
   <svg:path style="fill:none;stroke:#000000;stroke-width:11;stroke-linecap:butt;stroke-linejoin:miter;stroke-miterlimit:4" d="M 62.035328,130.7928 L 83.309188,176.55851 L 83.309188,176.55851"/>
   <svg:path d="M 167.88902,179.26882 C 174.63629,196.08176 185.51796,222.30373 191.27971,235.00091 C 197.81276,249.42148 216.58336,244.48335 209.90891,229.13702 C 203.29399,213.92749 192.40258,190.93014 185.66274,173.99209 C 179.80977,159.28237 161.65625,163.73783 167.88902,179.26882 z "/>
   <svg:path d="M 193.27277,162.52913 C 189.19197,155.01532 206.63644,152.75805 209.97627,158.98654 C 213.27965,165.14706 256.36141,243.72038 263.82444,258.19246 C 271.28994,272.66912 252.41266,278.68635 246.02367,265.48633 C 239.98905,253.01845 197.45908,170.23721 193.27277,162.52913 z "/>
   <svg:rect style="fill:none;stroke:#000000;stroke-width:15;stroke-linejoin:round;" width="269.39795" height="269.39795" x="14.29852" y="16.102072" ry="21.770645"/>
</svg>