<?xml version="1.0" encoding="UTF-8" standalone="no"?>
<!-- Created with Inkscape (http://www.inkscape.org/) -->
<svg
   xmlns:svg="http://www.w3.org/2000/svg"
   xmlns="http://www.w3.org/2000/svg"
   version="1.0"
   width="16"
   height="16"
   id="symbol-wastewater">
  <g
     transform="translate(-1.1460296e-7,-1036.3622)"
     id="layer1">
    <g
       transform="matrix(0.9999576,0,0,0.9999576,-0.615215,4.4596691e-2)"
       id="g2760">
      <path
         d="M 8.6704377,1052.3616 C 5.8778813,1052.3193 3.3066465,1050.1394 4.1696694,1047.0975 C 5.0326922,1044.0555 6.8683983,1040.2805 8.6211777,1036.9851 C 9.0313355,1036.1543 9.53177,1036.0713 9.318092,1037.4336 C 9.1044137,1038.7958 10.298606,1040.8968 11.256236,1042.3766 C 12.213866,1043.8565 13.80443,1045.7732 13.846869,1048.0104 C 13.889309,1050.2476 11.462995,1052.4039 8.6704377,1052.3616 z"
         id="path2603"
         style="fill:#000000" />
      <path
         d="M 9.6438828,1050.3924 C 9.4359603,1050.0465 9.2141656,1049.7088 9.0135619,1049.3587 C 9.2136016,1049.0096 9.4375807,1048.6714 9.6512715,1048.3306 C 9.6308149,1048.5611 9.648804,1048.7751 9.936814,1048.6837 C 10.31748,1048.6722 10.699108,1048.6719 11.07896,1048.647 C 11.225994,1048.6439 11.525845,1048.3854 11.318921,1048.6512 C 11.078092,1049.0354 10.869818,1049.4412 10.606099,1049.8104 C 10.409069,1050.0158 10.099526,1049.9245 9.8473925,1049.9566 C 9.5277272,1049.8467 9.7163629,1050.3186 9.6438828,1050.3924 L 9.6438828,1050.3924 z M 7.5254031,1049.9577 C 7.1628333,1049.9198 6.8729582,1049.5419 6.9735956,1049.1825 C 7.0741064,1049.0003 7.1431242,1048.6595 7.4168193,1048.7244 C 7.8604287,1048.7226 8.3041836,1048.7086 8.747659,1048.713 C 8.7547033,1049.1269 8.7719401,1049.5481 8.7597116,1049.9576 C 8.3482939,1049.9542 7.936435,1049.9877 7.5254031,1049.9577 z M 6.9185133,1049.4368 C 6.6863522,1049.0139 6.4072876,1048.6183 6.1829117,1048.1912 C 6.0777707,1047.8876 6.3946782,1047.6552 6.4988228,1047.3947 C 6.5295422,1047.2536 6.1353125,1047.2081 6.1517738,1047.1206 C 6.5606882,1047.1175 6.971196,1047.1007 7.3792443,1047.1126 C 7.5915702,1047.4394 7.7775267,1047.7889 7.9814949,1048.1235 C 7.9672692,1048.1912 7.7504369,1047.9777 7.6430629,1047.9647 C 7.4099019,1048.3397 7.1835601,1048.7208 6.9690877,1049.1069 C 6.9209486,1049.2054 6.9202675,1049.3546 6.9185133,1049.4368 z M 10.630053,1048.6337 C 10.370581,1048.2352 10.128749,1047.8249 9.8757102,1047.4219 C 10.225018,1047.184 10.598349,1046.9816 10.963393,1046.7686 C 11.171569,1047.0896 11.387342,1047.4087 11.569405,1047.7451 C 11.736631,1048.1308 11.428955,1048.6048 11.013329,1048.6247 C 10.88606,1048.6333 10.757397,1048.6436 10.630053,1048.6337 z M 8.0725342,1047.1824 C 7.7143741,1046.9858 7.3550494,1046.7913 6.9981965,1046.5923 C 7.2239693,1046.2156 7.4404512,1045.8318 7.6874018,1045.4692 C 7.8850491,1045.2826 8.1839612,1045.3736 8.4293013,1045.3424 C 8.759802,1045.3338 9.0905317,1045.3305 9.4210768,1045.3292 C 9.0993871,1045.466 8.9577282,1045.7979 8.7836146,1046.0755 C 8.5568213,1046.447 8.3438692,1046.828 8.1128665,1047.1961 L 8.097372,1047.1955 L 8.0725342,1047.1824 L 8.0725342,1047.1824 z M 9.0161492,1046.8649 C 9.1493331,1046.7534 9.5217402,1046.695 9.2769701,1046.483 C 9.1623566,1046.286 9.0360785,1046.0957 8.9239647,1045.8972 C 9.0591669,1045.613 9.2992568,1045.3341 9.6380055,1045.3235 C 9.9002,1045.2962 10.176533,1045.4291 10.288577,1045.6739 C 10.392336,1045.8664 10.514889,1046.1097 10.728996,1045.8811 C 10.83994,1045.8097 11.026359,1045.6956 10.865811,1045.8954 C 10.673622,1046.209 10.488426,1046.5273 10.294621,1046.84 C 9.8685211,1046.8485 9.4421871,1046.8594 9.0161492,1046.8649 z"
         id="path2530"
         style="fill:#ffffff" />
    </g>
  </g>
</svg>
