<svg height="24" viewBox="0 0 24 24" width="24" xmlns="http://www.w3.org/2000/svg"><g fill="none" fill-rule="evenodd"><rect fill="#fff" height="24" opacity=".6" rx="2.5" width="24"/><rect fill="#9d231c" height="22" rx="2" width="22" x="1" y="1"/><path d="m9.98815609 5c-.55199428 0-1.3650411.27503853-1.7986638.60127953l-.39473019.29697977c-.4413803.33207751-.7971528 1.05785273-.79475001 1.59643433l.03779211 8.47101817c.01530791.4998463.51358532.9996926 1.01186274.9996926h8.96899346c.4982774 0 .9890867-.3290061.9812469-.9996926l-.0377921-8.47101817c-.002452-.54960882-.3700068-1.27019334-.8036295-1.59643433l-.3947301-.29697977c-.4413803-.33207751-1.256897-.60127953-1.7986638-.60127953zm-.60899364 2.73138011c.37576655-.40121583 1.12061815-.72646552 1.68426525-.72646552h2.9529805c.5544275 0 1.3052256.33549393 1.6782516.7507908l.3121379.34750889v2.83344302c0 .5576723-.4577073 1.009755-.9994741 1.009755h-4.9769357c-.55199426 0-.99947405-.4408636-.99947405-1.009755v-2.83344302zm.64830625 6.84203919c0 .4140867-.33463316.7497694-.74741614.7497694-.41278297 0-.74741612-.3356827-.74741612-.7497694 0-.4140866.33463315-.7497694.74741612-.7497694.41278298 0 .74741614.3356828.74741614.7497694zm-.06913537 4.3919851h5.08333337l-1.0416667-2h1.875l3.125 6h-1.875l-1.0416667-2h-7.16666664l-1.04166666 2h-1.875l3.125-6h1.875zm5.79932557-5.1417545c.412783 0 .7474162.3356828.7474162.7497694 0 .4140867-.3346332.7497694-.7474162.7497694-.4127829 0-.7474161-.3356827-.7474161-.7497694 0-.4140866.3346332-.7497694.7474161-.7497694z" fill="#fff"/></g></svg>