<?xml version="1.0" encoding="UTF-8" standalone="no"?>
<svg width="17px" height="17px" viewBox="0 0 17 17" version="1.1" xmlns="http://www.w3.org/2000/svg" xmlns:xlink="http://www.w3.org/1999/xlink">
    <!-- Generator: Sketch 3.8.3 (29802) - http://www.bohemiancoding.com/sketch -->
    <title>airport-s</title>
    <desc>Created with Sketch.</desc>
    <defs>
        <rect id="path-1" x="0" y="0" width="15" height="15" rx="1"></rect>
        <mask id="mask-2" maskContentUnits="userSpaceOnUse" maskUnits="objectBoundingBox" x="-1" y="-1" width="17" height="17">
            <rect x="-1" y="-1" width="17" height="17" fill="white"></rect>
            <use xlink:href="#path-1" fill="black"></use>
        </mask>
    </defs>
    <g id="POI-Clear" stroke="none" stroke-width="1" fill="none" fill-rule="evenodd">
        <g id="airport-s" transform="translate(1.000000, 1.000000)">
            <g id="Rectangle-211">
                <use fill="#3C3E38" fill-rule="evenodd" xlink:href="#path-1"></use>
                <use fill="#0D4D7F" fill-rule="evenodd" xlink:href="#path-1"></use>
                <use stroke-opacity="0.8" stroke="#FFFFFF" mask="url(#mask-2)" stroke-width="2" xlink:href="#path-1"></use>
            </g>
            <path d="M12,7.62344009 L12,8.17459045 L9,8.17459024 L9,9.62143248 L10,10.6396234 L10,11.0682745 L6,11.0682745 L6,10.6396234 L7,9.62143248 L7,8.17459024 L4,8.17459045 L4,7.62344009 L7,6.24546774 L7,4.31634503 C7,3.88769397 7.55369837,3.06827451 7.99809837,3.06827451 C8.44253837,3.06827451 9,3.88769397 9,4.31634503 L9,6.24546774 L12,7.62344009 Z" id="path7712-0-5" fill="#FFFFFF"></path>
        </g>
    </g>
</svg>