<?xml version="1.0" encoding="UTF-8" standalone="no"?>
<svg width="27px" height="27px" viewBox="0 0 27 27" version="1.1" xmlns="http://www.w3.org/2000/svg" xmlns:xlink="http://www.w3.org/1999/xlink" xmlns:sketch="http://www.bohemiancoding.com/sketch/ns">
    <!-- Generator: Sketch 3.3.3 (12072) - http://www.bohemiancoding.com/sketch -->
    <title>airport-l</title>
    <desc>Created with Sketch.</desc>
    <defs></defs>
    <g id="Icons" stroke="none" stroke-width="1" fill="none" fill-rule="evenodd" sketch:type="MSPage">
        <g id="transport" sketch:type="MSLayerGroup">
            <g id="airport-l" sketch:type="MSShapeGroup">
                <circle id="Oval-1-Copy-45" fill="#FFFFFF" cx="13.5" cy="13.5" r="13.5"></circle>
                <circle id="Oval-1-Copy-44" fill="#3C3E38" cx="13.5" cy="13.5" r="12.5"></circle>
                <g id="g6678" transform="translate(5.000000, 4.000000)" fill="#FFFFFF">
                    <g id="g14771">
                        <path d="M17,10.8622 L17,11.3622 L10,10.3622 L10,14.362 L12,16.3622 C12,16.8622 11.5,17.3622 11,17.3622 L6,17.3622 C5.5,17.3622 5,16.8622 5,16.3622 L7,14.362 L7,10.362 L0,11.362 L0,10.8622 C0,10.3622 0.3056731,10.2243 0.5,10.1122 L7,6.362 L7,4.362 C7,3.362 7.5,0.362 8.5,0.362 C9.5,0.362 10,3.362 10,4.362 L10,6.362 L16.5,10.1122 C16.77841,10.2728 17,10.3533 17,10.8622 L17,10.8622 Z" id="path7712"></path>
                    </g>
                </g>
            </g>
        </g>
    </g>
</svg>