<?xml version="1.0" encoding="UTF-8" standalone="no"?>
<svg width="27px" height="27px" viewBox="0 0 27 27" version="1.1" xmlns="http://www.w3.org/2000/svg" xmlns:xlink="http://www.w3.org/1999/xlink" xmlns:sketch="http://www.bohemiancoding.com/sketch/ns">
    <!-- Generator: Sketch 3.3.3 (12072) - http://www.bohemiancoding.com/sketch -->
    <title>alcohol-l</title>
    <desc>Created with Sketch.</desc>
    <defs></defs>
    <g id="POI" stroke="none" stroke-width="1" fill="none" fill-rule="evenodd" sketch:type="MSPage">
        <g id="alcohol-l" sketch:type="MSLayerGroup">
            <circle id="Oval-1-Copy-39" fill="#FFFFFF" sketch:type="MSShapeGroup" cx="13.5" cy="13.5" r="13.5"></circle>
            <circle id="Oval-1-Copy-38" fill="#7A7A6E" sketch:type="MSShapeGroup" cx="13.5" cy="13.5" r="12.5"></circle>
            <path d="M9,4 C8.44599,4 8.5,4.6273 8.5,5 L8.5,7.5 C8.5,8 8.00236,8.7488 7.5,9 C6.5,9.5 6,10 6,11 L6,20 C6,20.554 6.44599,21 7,21 L12,21 C12.55401,21 13,20.554 13,20 L13,11 C13,10 12.5,9.5 11.5,9 C11.00136,8.7507 10.5,8 10.5,7.5 L10.5,5 C10.5,4.5 10.554,4 10,4 L9,4 Z M15,11 L15,14 C15,15 16,16 17,16 L18,16 L18,18.5 C18,19 17,20 16,20 C15,20 15,21 15,21 L22,21 C22,21 22,20 21,20 C20,20 19,19 19,18.5 L19,16 L20,16 C21,16 22,15 22,14 L22,11 L15,11 Z" id="rect7216-copy-2" fill="#FFFFFF" sketch:type="MSShapeGroup"></path>
        </g>
    </g>
</svg>