<svg width="16" height="16" viewBox="0 0 16 16">
  <g fill="none" fill-rule="evenodd">
    <circle cx="8" cy="8" r="8" fill="#FFF" opacity=".6"/>
    <circle cx="8" cy="8" r="7" fill="#717065"/>
    <path fill="#FFF" d="M8,5 C5.11111111,5 4,8 4,8 C4,8 5.11111111,11 8,11 C10.8888889,11 12,8 12,8 C12,8 10.8888889,5 8,5 L8,5 Z M7.11111111,7.5 L8,7.5 L8.44444444,7.5 L9.33333333,7.5 L9.77777778,7.5 L10.2222222,7.5 C10.3453333,7.5 10.4444444,7.6115 10.4444444,7.75 C10.4444444,7.8885 10.3453333,8 10.2222222,8 L9.77777778,8 L9.33333333,8 L8.44444444,8 L8,8 L7.11111111,8 L6.66666667,8 L6,8 C5.87688889,8 5.77777778,7.8885 5.77777778,7.75 C5.77777778,7.6115 5.87688889,7.5 6,7.5 L6.66666667,7.5 L7.11111111,7.5 Z"/>
  </g>
</svg>
