<svg version="1.1" viewBox="0 0 24 24" xmlns="http://www.w3.org/2000/svg">
 <title>america-football-m</title>
 <g fill="none" fill-rule="evenodd">
  <g id="america-football-m" fill-rule="nonzero">
   <g id="Group" transform="translate(6 9.6071)" fill="#717065">
    <path id="Path" d="m-3 2.3929c0.56652 1.4062 1.4545 2.6518 2.5714 3.6402v-7.2804c-1.117 0.98839-2.0049 2.2339-2.5714 3.6402z"/>
    <path d="m15 2.3929c-0.56652-1.4063-1.4545-2.6518-2.5714-3.6402v7.2804c1.117-0.98839 2.0049-2.2339 2.5714-3.6402z"/>
    <path id="Shape" transform="translate(-6 -9.6071)" d="m12 5.935c-1.8924 0-3.6562 0.53839-5.1429 1.4665v9.1969c1.4866 0.92812 3.2504 1.4665 5.1429 1.4665s3.6562-0.53839 5.1429-1.4665v-9.1969c-1.4866-0.92812-3.2504-1.4665-5.1429-1.4665zm3.8571 5.4241v2.5714h-1.2857v-1.2857h-1.9286v1.2857h-1.2857v-1.2857h-1.9286v1.2857h-1.2857v-3.8571h1.2857v1.2857h1.9286v-1.2857h1.2857v1.2857h1.9286v-1.2857h1.2857z"/>
   </g>
  </g>
 </g>
</svg>
