<?xml version="1.0" encoding="UTF-8"?>
<svg width="24px" height="24px" viewBox="0 0 24 24" version="1.1" xmlns="http://www.w3.org/2000/svg" xmlns:xlink="http://www.w3.org/1999/xlink">
    <title>america-football-m</title>
    <g id="Page-1" stroke="none" stroke-width="1" fill="none" fill-rule="evenodd">
        <g id="america-football-m" fill-rule="nonzero">
            <circle id="Oval" fill="#FFFFFF" opacity="0.6" cx="12" cy="12" r="12"></circle>
            <circle id="Oval" fill="#717065" cx="12" cy="12" r="11"></circle>
            <g id="Group" transform="translate(6.000000, 9.607143)" fill="#FFFFFF">
                <path d="M0,2.4375 C0.377678571,3.375 0.969642857,4.20535714 1.71428571,4.86428571 L1.71428571,0.0107142857 C0.969642857,0.669642857 0.377678571,1.5 0,2.4375 Z" id="Path"></path>
                <path d="M12,2.4375 C11.6223214,1.5 11.0303571,0.669642857 10.2857143,0.0107142857 L10.2857143,4.86428571 C11.0303571,4.20535714 11.6223214,3.375 12,2.4375 Z" id="Path"></path>
            </g>
            <path d="M12,8 C10.7383929,8 9.5625,8.35892857 8.57142857,8.97767857 L8.57142857,11.0482143 L8.57142857,11.6160714 L8.57142857,12.4732143 L8.57142857,13.2098214 L8.57142857,15.1089286 C9.5625,15.7276786 10.7383929,16.0866071 12,16.0866071 C13.2616071,16.0866071 14.4375,15.7276786 15.4285714,15.1089286 L15.4285714,13.2098214 L15.4285714,12.4732143 L15.4285714,11.6160714 L15.4285714,11.0482143 L15.4285714,8.97767857 C14.4375,8.35892857 13.2616071,8 12,8 Z M14.5714286,11.6160714 L14.5714286,12.4732143 L14.5714286,13.3303571 L13.7142857,13.3303571 L13.7142857,12.4732143 L12.4285714,12.4732143 L12.4285714,13.3303571 L11.5714286,13.3303571 L11.5714286,12.4732143 L10.2857143,12.4732143 L10.2857143,13.3303571 L9.42857143,13.3303571 L9.42857143,12.4732143 L9.42857143,11.6160714 L9.42857143,10.7589286 L10.2857143,10.7589286 L10.2857143,11.6160714 L11.5714286,11.6160714 L11.5714286,10.7589286 L12.4285714,10.7589286 L12.4285714,11.6160714 L13.7142857,11.6160714 L13.7142857,10.7589286 L14.5714286,10.7589286 L14.5714286,11.6160714 Z" id="Shape" fill="#FFFFFF"></path>
        </g>
    </g>
</svg>