<svg width="24" height="24" viewBox="0 0 24 24">
  <g fill="none" fill-rule="evenodd">
    <circle cx="12" cy="12" r="12" fill="#FFF" opacity=".6"/>
    <circle cx="12" cy="12" r="11" fill="#664E42"/>
    <path fill="#FFF" d="M6,6 L18,6 L18,6.92307692 L6,6.92307692 L6,6 Z M6.92307692,6.92307692 L17.0769231,6.92307692 L17.0769231,18 L6.92307692,18 L6.92307692,6.92307692 Z M10.6153846,15.2307692 L10.6153846,18 L13.3846154,18 L13.3846154,15.2307692 L10.6153846,15.2307692 Z M7.84615385,12.4615385 L7.84615385,14.3076923 L9.69230769,14.3076923 L9.69230769,12.4615385 L7.84615385,12.4615385 Z M7.84615385,9.69230769 L7.84615385,11.5384615 L9.69230769,11.5384615 L9.69230769,9.69230769 L7.84615385,9.69230769 Z M7.84615385,6.92307692 L7.84615385,8.76923077 L9.69230769,8.76923077 L9.69230769,6.92307692 L7.84615385,6.92307692 Z M11.0769231,12.4615385 L11.0769231,14.3076923 L12.9230769,14.3076923 L12.9230769,12.4615385 L11.0769231,12.4615385 Z M11.0769231,9.69230769 L11.0769231,11.5384615 L12.9230769,11.5384615 L12.9230769,9.69230769 L11.0769231,9.69230769 Z M11.0769231,6.92307692 L11.0769231,8.76923077 L12.9230769,8.76923077 L12.9230769,6.92307692 L11.0769231,6.92307692 Z M14.3076923,12.4615385 L14.3076923,14.3076923 L16.1538462,14.3076923 L16.1538462,12.4615385 L14.3076923,12.4615385 Z M14.3076923,9.69230769 L14.3076923,11.5384615 L16.1538462,11.5384615 L16.1538462,9.69230769 L14.3076923,9.69230769 Z M14.3076923,6.92307692 L14.3076923,8.76923077 L16.1538462,8.76923077 L16.1538462,6.92307692 L14.3076923,6.92307692 Z"/>
  </g>
</svg>
