<?xml version="1.0" encoding="UTF-8" standalone="no"?>
<svg width="17px" height="17px" viewBox="0 0 17 17" version="1.1" xmlns="http://www.w3.org/2000/svg" xmlns:xlink="http://www.w3.org/1999/xlink">
    <!-- Generator: Sketch 3.8.3 (29802) - http://www.bohemiancoding.com/sketch -->
    <title>apartment-s</title>
    <desc>Created with Sketch.</desc>
    <defs></defs>
    <g id="POI-Clear" stroke="none" stroke-width="1" fill="none" fill-rule="evenodd">
        <g id="apartment-s">
            <path d="M8.5,17 C3.812,17 0,13.188 0,8.5 C0,3.812 3.812,0 8.5,0 C13.188,0 17,3.812 17,8.5 C17,13.188 13.188,17 8.5,17 L8.5,17 Z" id="Shape" fill-opacity="0.6" fill="#FFFFFF"></path>
            <ellipse id="Oval" fill="#5D4037" cx="8.5" cy="8.5" rx="7.5" ry="7.5"></ellipse>
            <path d="M12,5 L13,5 L13,4 L4,4 L4,5 L5,5 L5,13 L12,13 L12,5 Z M8,9 L9,9 L9,10 L8,10 L8,9 Z M8,7 L9,7 L9,8 L8,8 L8,7 Z M8,5 L9,5 L9,6 L8,6 L8,5 Z M10,9 L11,9 L11,10 L10,10 L10,9 Z M10,7 L11,7 L11,8 L10,8 L10,7 Z M10,5 L11,5 L11,6 L10,6 L10,5 Z M6,9 L7,9 L7,10 L6,10 L6,9 Z M8,11 L9,11 L9,13 L8,13 L8,11 Z M6,7 L7,7 L7,8 L6,8 L6,7 Z M6,5 L7,5 L7,6 L6,6 L6,5 Z" id="Combined-Shape" fill="#FFFFFF"></path>
        </g>
    </g>
</svg>