<?xml version="1.0" encoding="UTF-8" standalone="no"?>
<svg width="23px" height="23px" viewBox="0 0 23 23" version="1.1" xmlns="http://www.w3.org/2000/svg" xmlns:xlink="http://www.w3.org/1999/xlink">
    <!-- Generator: Sketch 3.8.3 (29802) - http://www.bohemiancoding.com/sketch -->
    <title>apartment-m</title>
    <desc>Created with Sketch.</desc>
    <defs></defs>
    <g id="POI-Clear" stroke="none" stroke-width="1" fill="none" fill-rule="evenodd">
        <g id="apartment-m">
            <g id="Shape-+-Shape-+-Shape">
                <path d="M11.5,23 C5.159,23 0,17.841 0,11.5 C0,5.159 5.159,0 11.5,0 C17.841,0 23,5.159 23,11.5 C23,17.841 17.841,23 11.5,23 L11.5,23 Z" id="Shape" fill-opacity="0.6" fill="#FFFFFF"></path>
                <path d="M22,11.5 C22,17.299 17.299,22 11.5,22 C5.701,22 1,17.299 1,11.5 C1,5.701 5.701,1 11.5,1 C17.299,1 22,5.701 22,11.5 L22,11.5 Z" id="Shape" fill="#5D4037"></path>
                <path d="M5,5 L18,5 L18,6 L5,6 L5,5 Z M6,6 L17,6 L17,18 L6,18 L6,6 Z M10,15 L13,15 L13,18 L10,18 L10,15 Z M7,12 L9,12 L9,14 L7,14 L7,12 Z M7,9 L9,9 L9,11 L7,11 L7,9 Z M7,6 L9,6 L9,8 L7,8 L7,6 Z M10.5,12 L12.5,12 L12.5,14 L10.5,14 L10.5,12 Z M10.5,9 L12.5,9 L12.5,11 L10.5,11 L10.5,9 Z M10.5,6 L12.5,6 L12.5,8 L10.5,8 L10.5,6 Z M14,12 L16,12 L16,14 L14,14 L14,12 Z M14,9 L16,9 L16,11 L14,11 L14,9 Z M14,6 L16,6 L16,8 L14,8 L14,6 Z" id="Combined-Shape" fill="#FFFFFF"></path>
            </g>
        </g>
    </g>
</svg>