<?xml version="1.0" encoding="UTF-8" standalone="no"?>
<svg
   width="24"
   height="24"
   viewBox="0 0 24 24"
   version="1.1"
   id="svg10"
   sodipodi:docname="archaeological-site-m.svg"
   xmlns:inkscape="http://www.inkscape.org/namespaces/inkscape"
   xmlns:sodipodi="http://sodipodi.sourceforge.net/DTD/sodipodi-0.dtd"
   xmlns="http://www.w3.org/2000/svg"
   xmlns:svg="http://www.w3.org/2000/svg">
  <defs
     id="defs14" />
  <sodipodi:namedview
     id="namedview12"
     pagecolor="#ffffff"
     bordercolor="#000000"
     borderopacity="0.25"
     inkscape:showpageshadow="2"
     inkscape:pageopacity="0.0"
     inkscape:pagecheckerboard="0"
     inkscape:deskcolor="#d1d1d1"
     showgrid="false" />
  <title
     id="title2">wayside_shrine-m</title>
  <g
     id="g294"
     transform="matrix(1.1428571,0,0,1.1428571,2.8814913,2.8582606)">
    <path
       d="M 3.4786951,0.12402198 V 1.2490219 h 1.125 c 0.6737275,0 0.9462806,1.1734545 1.0546875,2.1445313 C 4.564577,2.5426624 3.5068038,2.2385645 2.5997888,2.4091782 1.4406946,2.6272094 0.66619523,3.6951146 0.66619523,4.9052719 c 0,0.947156 0.35113097,1.7762131 0.94921867,2.6367187 0.5226986,0.7520386 1.2598243,1.6200648 2.1796874,2.6718754 0.4122555,1.528881 1.1711857,2.928998 1.9335939,3.691406 v 0.84375 l -1.1250001,0.562501 v 0.5625 h 6.7499999 v -0.5625 l -1.125001,-0.562501 v -0.84375 c 0.762409,-0.762408 1.52134,-2.162525 1.933595,-3.691406 0.919863,-1.0518106 1.656989,-1.9198368 2.179688,-2.6718754 0.598088,-0.8605056 0.949219,-1.6895627 0.949219,-2.6367187 0,-1.2101573 -0.7745,-2.2780625 -1.933594,-2.4960937 -0.907014,-0.1706137 -1.964788,0.1334842 -3.058594,0.984375 0.108404,-0.9710768 0.380959,-2.1445313 1.054687,-2.1445313 h 1.125 V 0.12402198 Z M 2.7755702,3.5341782 C 3.3491364,3.4262873 4.3060246,3.6480802 5.4122889,4.6591781 4.1579037,4.8148542 3.4786951,5.9172806 3.4786951,7.9990219 c 0,0.035096 -5.431e-4,0.070242 0,0.1054684 C 3.0956062,7.6593865 2.7769057,7.2651699 2.5294764,6.9091782 2.0025642,6.1510771 1.7911952,5.5946409 1.7911952,4.9052719 c 0,-0.7878647 0.349791,-1.2517255 0.984375,-1.3710937 z m 9.8437508,0 c 0.211625,-0.030504 0.403853,-0.029842 0.5625,0 0.634584,0.1193682 0.984374,0.583229 0.984374,1.3710937 0,0.689369 -0.211369,1.2458052 -0.738281,2.0039063 -0.247429,0.3559917 -0.566129,0.7502083 -0.949219,1.1953124 5.44e-4,-0.035226 0,-0.070374 0,-0.1054684 0,-2.0817413 -0.679208,-3.1841677 -1.933594,-3.3398437 0.800277,-0.7314326 1.520739,-1.0452215 2.07422,-1.1250003 z"
       id="archaeological-site"
       style="fill:#7f5933;fill-opacity:1;stroke-width:1.125" />
  </g>
</svg>
