<svg height="24" viewBox="0 0 24 24" width="24"><g fill="none" fill-rule="evenodd"><circle cx="12" cy="12" fill="#fff" opacity=".6" r="12"/><circle cx="12" cy="12" fill="#717065" r="11"/><path d="m17 11.0676c0-1.61-.7263636-3.04733333-1.8581818-3.98906667l-.3236364-2.07853333h-1.4545454l.1854545 1.18813333c-.4881818-.16426666-1.0072727-.2548-1.5481818-.2548-.5418182 0-1.0609091.09146667-1.55.2548l.1854545-1.18813333h-1.45454542l-.32363636 2.07946667c-1.13181818.94266666-1.85818182 2.37906666-1.85818182 3.98813333 0 1.0248.29727273 1.9777333.80363636 2.7804l-.80363636 5.152h1.45454545l.59272728-3.8005333c.71272727.5385333 1.56818177.8904 2.49818177.9772v1.89h.909091v-1.89c.93-.0868 1.7854545-.4377334 2.4981818-.9762667l.5927272 3.7996h1.4545455l-.8027273-5.1529333c.5054546-.8017334.8027273-1.7546667.8027273-2.7794667zm-4.9990909 3.2657333c-1.7554546 0-3.18272728-1.4644-3.18272728-3.2657333 0-1.80226667 1.42727268-3.2676 3.18272728-3.2676 1.7545454 0 3.1809091 1.46533333 3.1809091 3.2676 0 1.8013333-1.4263637 3.2657333-3.1809091 3.2657333zm0-4.66666663c-.7536364 0-1.3645455.62720003-1.3645455 1.40000003 0 .7737333.6109091 1.4018666 1.3645455 1.4018666s1.3627273-.6281333 1.3627273-1.4018666c0-.7728-.6090909-1.40000003-1.3627273-1.40000003z" fill="#fff"/></g></svg>