<?xml version="1.0" encoding="UTF-8"?>
<svg version="1.1" viewBox="0 0 24 24" xmlns="http://www.w3.org/2000/svg" xmlns:cc="http://creativecommons.org/ns#" xmlns:dc="http://purl.org/dc/elements/1.1/" xmlns:rdf="http://www.w3.org/1999/02/22-rdf-syntax-ns#">
 <g transform="scale(.5)">
  <circle class="cls-1" cx="24" cy="24" r="5" fill="#C15746"/>
  <path class="cls-1" d="m46 22h-8.1714l1.5854-1.5859a1.9998 1.9998 0 0 0-2.8281-2.8281l-5 5a1.9821 1.9821 0 0 0-0.3161 0.42724c-0.02106 0.03711-0.04 0.07349-0.05866 0.11158a1.9901 1.9901 0 0 0-0.16907 0.47485l-0.0038 0.01269a2.0036 2.0036 0 0 0-0.02612 0.51514c0.0026 0.04126 0.0066 0.0813 0.01178 0.12256a1.9877 1.9877 0 0 0 0.12738 0.51172l1e-3 0.0039 0.0086 0.01438a1.9895 1.9895 0 0 0 0.25958 0.43164c0.02869 0.03735 0.05719 0.073 0.08832 0.10815 0.02716 0.03052 0.04767 0.06495 0.077 0.09424l5 5a1.9998 1.9998 0 0 0 2.8281-2.8281l-1.5858-1.5859h8.1719a2 2 0 0 0 0-4z" fill="#C15746"/>
  <path class="cls-1" d="m16.988 24.127a2.0036 2.0036 0 0 0-0.02612-0.51514l-0.0038-0.01269a1.9901 1.9901 0 0 0-0.16907-0.47485c-0.01862-0.03809-0.0376-0.07447-0.05866-0.11158a1.9821 1.9821 0 0 0-0.3161-0.42724l-5-5a1.9998 1.9998 0 0 0-2.8281 2.8281l1.5854 1.5859h-8.1714a2 2 0 0 0 0 4h8.1719l-1.5859 1.5859a1.9998 1.9998 0 1 0 2.8281 2.8281l5-5c0.02936-0.02929 0.04987-0.06372 0.077-0.09424 0.03113-0.03515 0.05963-0.0708 0.08832-0.10815a1.9895 1.9895 0 0 0 0.25962-0.43167l0.0087-0.01441 1e-3 -0.0039a1.9877 1.9877 0 0 0 0.1273-0.51169c0.0052-0.04126 0.0092-0.0813 0.01179-0.12256z" fill="#C15746"/>
  <path class="cls-1" d="m22.586 16.414a1.9961 1.9961 0 0 0 0.31036 0.25366 1.9473 1.9473 0 0 0 0.28021 0.14844c0.02259 0.01026 0.043 0.02539 0.06586 0.03467a1.9767 1.9767 0 0 0 0.31549 0.09473c0.01929 0.0044 0.03742 0.01294 0.05683 0.01684a2.0057 2.0057 0 0 0 0.38531 0.0376h4.9e-4c0.0087 0 0.01733-0.0024 0.026-0.0024a2.0124 2.0124 0 0 0 0.3587-0.03516c0.01593-0.0032 0.03107-0.0105 0.047-0.01391a1.9972 1.9972 0 0 0 0.32971-0.09986l0.0032-1e-3 0.0097-0.0059a1.987 1.987 0 0 0 0.43829-0.26343c0.03644-0.02808 0.07111-0.05591 0.10535-0.08618 0.03107-0.02735 0.06586-0.04834 0.09558-0.07813l5-5a1.9998 1.9998 0 0 0-2.8281-2.8281l-1.5859 1.586v-8.1719a2 2 0 0 0-4 0v8.1719l-1.5859-1.5859a1.9998 1.9998 0 0 0-2.8281 2.8281z" fill="#C15746"/>
  <path class="cls-1" d="m25.414 31.586c-0.02972-0.02979-0.06451-0.05078-0.09564-0.07813-0.03418-0.03027-0.06885-0.0581-0.10516-0.08593a1.9838 1.9838 0 0 0-0.43921-0.26417l-0.0089-0.0054-0.0024-4.8e-4a1.9829 1.9829 0 0 0-0.50971-0.12769c-0.04358-0.0056-0.08587-0.0095-0.12958-0.01245a2.0145 2.0145 0 0 0-0.50836 0.02588c-0.0093 0.0017-0.01788 0.0059-0.02722 0.0078a1.9933 1.9933 0 0 0-0.46 0.16406c-0.0401 0.01953-0.07843 0.03931-0.11725 0.06153a1.9789 1.9789 0 0 0-0.42468 0.31494l-5 5a1.9998 1.9998 0 0 0 2.8281 2.8281l1.5859-1.5859v8.1719a2 2 0 0 0 4 0v-8.1719l1.5859 1.5859a1.9998 1.9998 0 0 0 2.8281-2.8281z" fill="#C15746"/>
 </g>
</svg>
