<svg xmlns:xlink="http://www.w3.org/1999/xlink" width="27" height="27" viewBox="0 0 27 27">
  <defs>
    <polygon id="atm-tinkoff-gerb-l-a" points="26.495 .134 26.495 23.76 0 23.76 0 .134 26.495 .134"/>
  </defs>
  <g fill="none" fill-rule="evenodd" transform="translate(0 1)">
    <g transform="translate(0 .947)">
      <mask id="atm-tinkoff-gerb-l-b" fill="#fff">
        <use xlink:href="#atm-tinkoff-gerb-l-a"/>
      </mask>
      <path fill="#FFF" d="M24.427872,12.981924 C26.244432,11.299284 25.179552,9.260244 25.179552,9.260244 C26.213112,7.997724 26.025192,6.282684 26.025192,6.282684 C26.025192,6.282684 25.210872,6.768684 23.425632,5.829084 C21.640392,4.890564 20.512872,5.311764 20.512872,5.311764 C20.075472,4.825764 19.886472,3.919644 19.886472,3.919644 C18.069912,3.692844 17.006112,5.344164 17.006112,5.344164 C16.848432,4.502844 16.096752,4.049244 16.096752,4.049244 L17.130312,1.783404 L15.565392,1.654884 L15.158232,0.651564 L14.248872,1.039284 L13.372992,0.134244 L12.380472,1.030644 L11.337192,0.651564 L10.930032,1.654884 L9.364032,1.783404 L10.397592,4.049244 C10.397592,4.049244 9.677232,4.535244 9.489312,5.344164 C9.489312,5.344164 8.424432,3.692844 6.607872,3.919644 C6.607872,3.919644 6.419952,4.825764 5.981472,5.311764 C5.981472,5.311764 4.853952,4.890564 3.069792,5.829084 C1.283472,6.768684 0.469152,6.282684 0.469152,6.282684 C0.469152,6.282684 0.282312,7.997724 1.315872,9.260244 C1.315872,9.260244 0.249912,11.299284 2.067552,12.981924 C2.067552,12.981924 1.502712,14.147244 0.000432,14.050044 C0.000432,14.050044 0.407592,17.189604 3.037392,17.382924 C3.037392,17.382924 3.538512,21.461004 8.267832,21.720204 C8.267832,21.720204 9.667512,23.623164 12.902112,23.753844 L12.903192,23.759244 C13.021992,23.762484 13.132152,23.758164 13.246632,23.757084 C13.362192,23.758164 13.472352,23.762484 13.592232,23.759244 L13.592232,23.753844 C16.826832,23.623164 18.227592,21.720204 18.227592,21.720204 C22.955832,21.461004 23.458032,17.382924 23.458032,17.382924 C26.087832,17.189604 26.494992,14.050044 26.494992,14.050044 C24.991632,14.147244 24.427872,12.981924 24.427872,12.981924" mask="url(#atm-tinkoff-gerb-l-b)"/>
    </g>
    <path fill="#FCDB2E" d="M10.891044,18.915012 C10.656684,18.771372 10.547604,18.529452 10.535724,18.146052 L10.535724,12.547332 L15.976764,12.547332 L15.976764,18.168732 C15.961644,18.652572 15.768324,18.826452 15.623604,18.915012 L13.256244,20.091132 L10.891044,18.915012 Z"/>
    <path fill="#231F1F" d="M11.550168 3.444768L11.883888 2.796768 12.647448 3.125088 13.352688 2.397168 14.057928 3.125088 14.821488 2.796768 15.156288 3.444768 15.861528 3.516048 15.394968 4.206168C14.859288 3.913488 14.051448 3.745008 13.354848 3.745008 12.658248 3.745008 11.854728 3.922128 11.320128 4.214808L10.853568 3.524688 11.550168 3.444768zM20.829312 14.52276L20.075472 15.34896C20.067912 15.35652 19.247112 16.27776 19.185552 17.4312 19.102392 18.95832 19.004112 19.67328 18.714672 20.2932 19.682352 20.1474 21.352032 19.4832 21.717072 16.68816L21.792672 16.1136 22.290552 16.40952C22.290552 16.40952 22.476312 16.51104 22.747392 16.51104 23.045472 16.51104 23.331672 16.39332 23.603832 16.16112 22.779792 15.7194 21.799152 14.71824 21.916872 12.94164L21.938472 12.61548 22.263552 12.58632C22.270032 12.58524 23.022792 12.50532 23.413752 12.0096 23.569272 11.81196 23.647032 11.57436 23.652432 11.28816 20.785032 10.97604 19.396152 8.6346 18.940392 7.66908 18.661752 7.8516 18.290232 8.16588 18.170352 8.60652 18.051552 9.03852 18.196272 9.53316 18.598032 10.07748 19.749312 11.64024 20.438352 12.89952 18.726552 14.54436 18.998712 14.6664 19.387512 14.7744 19.726632 14.715L20.829312 14.52276zM18.214632 21.09672C18.074232 21.09672 17.993232 21.08808 17.993232 21.08808L17.354952 21.02112 17.715672 20.49192C18.182232 19.81044 18.312912 19.41732 18.421992 17.39016 18.465192 16.59636 18.781632 15.91272 19.062432 15.45156 18.385272 15.31764 17.871192 14.93532 17.845272 14.91588L17.458632 14.62428 17.832312 14.3154C19.584072 12.87252 19.116432 12.07008 17.981352 10.53108 17.432712 9.78588 17.249112 9.06876 17.433792 8.39916 17.739432 7.30512 18.929592 6.80076 18.980352 6.77916L19.351872 6.6258 19.486872 7.0038C19.536552 7.14096 20.743992 10.38636 24.029352 10.5516L24.344712 10.56672 24.388992 10.87992C24.478632 11.51604 24.351192 12.05712 24.009912 12.48696 23.617872 12.9816 23.037912 13.19544 22.671792 13.28508 22.705272 15.18156 24.342552 15.6438 24.359832 15.64812L24.914952 15.79824 24.562872 16.25184C23.906232 17.09748 23.213952 17.2746 22.747392 17.2746 22.621032 17.2746 22.505472 17.26272 22.401792 17.24328 22.124232 18.70992 21.470832 19.78452 20.453472 20.44116 19.573272 21.0114 18.673632 21.09672 18.214632 21.09672L18.214632 21.09672zM21.240684 7.638732C22.425444 8.057772 22.553964 8.909892 23.346684 9.050292 23.873724 9.143172 24.449364 9.143172 24.711804 8.333172 23.382324 8.482212 22.939524 7.590132 22.098204 7.479972 21.608964 7.416252 21.332484 7.583652 21.240684 7.638732M4.697892 16.132176L4.775652 16.688376C5.140692 19.483416 6.809292 20.147616 7.779132 20.294496 7.489692 19.673496 7.390332 18.958536 7.307172 17.431416 7.244532 16.268256 6.425892 15.357816 6.417252 15.348096L5.663412 14.522976 6.765012 14.715216C7.104132 14.774616 7.494012 14.666616 7.766172 14.543496 6.055452 12.898656 6.744492 11.639376 7.895772 10.077696 8.298612 9.532296 8.442252 9.035496 8.321292 8.603496 8.200332 8.167176 7.828812 7.851816 7.552332 7.670376 7.096572 8.635896 5.706612 10.976256 2.840292 11.288376 2.844612 11.575656 2.924532 11.814336 3.081132 12.013056 3.471012 12.504456 4.221612 12.585456 4.228092 12.585456L4.554252 12.615696 4.575852 12.940776C4.692492 14.718456 3.712932 15.719616 2.887812 16.160256 3.161052 16.393536 3.448332 16.511256 3.744252 16.511256L3.745332 16.511256C4.017492 16.511256 4.204332 16.408656 4.206492 16.407576L4.697892 16.132176zM8.277012 21.096936C7.820172 21.096936 6.919452 21.011616 6.038172 20.441376 5.022972 19.784736 4.368492 18.710136 4.090932 17.242416 3.988332 17.261856 3.871692 17.274816 3.745332 17.274816L3.744252 17.274816C3.279852 17.274816 2.586492 17.097696 1.929852 16.252056L1.577772 15.797376 2.132892 15.648336C2.202012 15.628896 3.789612 15.164496 3.820932 13.285296 3.455892 13.195656 2.874852 12.981816 2.482812 12.487176 2.141532 12.057336 2.015172 11.516256 2.104812 10.880136L2.148012 10.566936 2.463372 10.551816C5.760612 10.386576 6.993972 7.037496 7.005852 7.004016L7.140852 6.624936 7.511292 6.779376C7.562052 6.799896 8.754372 7.305336 9.057852 8.399376 9.243612 9.068976 9.060012 9.786096 8.510292 10.531296 7.376292 12.069216 6.908652 12.871656 8.660412 14.315616L9.035172 14.624496 8.647452 14.916096C8.621532 14.935536 8.106372 15.317856 7.430292 15.451776 7.711092 15.911856 8.027532 16.596576 8.070732 17.390376 8.180892 19.417536 8.310492 19.810656 8.777052 20.492136L9.138852 21.020256 8.500572 21.088296C8.500572 21.088296 8.418492 21.096936 8.277012 21.096936L8.277012 21.096936zM5.252688 7.638732C5.160888 7.583652 4.883328 7.416252 4.394088 7.479972 3.552768 7.590132 3.111048 8.482212 1.780488 8.333172 2.044008 9.143172 2.619648 9.143172 3.145608 9.050292 3.938328 8.909892 4.066848 8.057772 5.252688 7.638732M15.976656 18.1683C15.961536 18.65322 15.768216 18.82602 15.623496 18.91458L13.256136 20.0907 10.890936 18.91458C10.656576 18.77202 10.547496 18.52902 10.535616 18.14562L10.535616 12.54798 15.976656 12.54798 15.976656 18.1683zM9.801216 11.81466L9.801216 18.1683C9.821736 18.8217 10.067976 19.2861 10.539936 19.56042L12.613536 20.59182 13.255056 20.91042 13.899816 20.59182 15.974496 19.56042C16.446456 19.2861 16.691616 18.8217 16.711056 18.1683L16.711056 11.81466 9.801216 11.81466zM16.45974 22.108032L16.62282 21.447072C13.50702 23.423472 10.39122 21.740832 10.05642 21.547512L10.22922 22.246272 9.57042 22.372632C9.82206 22.519512 11.36106 23.357592 13.37742 23.357592 14.53302 23.357592 15.84306 23.082192 17.15742 22.243032L16.45974 22.108032zM14.687892 9.777672C14.317452 10.270152 13.765572 10.449432 13.356252 10.449432 12.935052 10.449432 12.469572 10.290672 12.106692 9.810072 11.830212 9.445032 11.617452 9.144792 11.362572 8.927712L12.392892 8.290512 12.009492 6.144552C12.009492 6.144552 13.449132 5.403672 14.733252 6.242832L14.308812 8.348832 15.408252 8.944992C15.177132 9.132912 14.949252 9.428832 14.687892 9.777672L14.687892 9.777672zM15.027012 7.940592L15.505452 6.156432C15.505452 5.560272 14.485932 5.019192 13.338972 5.019192 12.219012 5.019192 11.200572 5.560272 11.200572 6.156432L11.668212 7.940592 10.134612 8.826192C10.495332 9.057312 10.846332 9.422352 11.095812 9.715032 11.151972 9.773352 11.202732 9.834912 11.252412 9.896472L11.252412 9.895392 11.254572 9.898632C11.340972 10.006632 11.418732 10.115712 11.484612 10.215072 11.799972 10.593072 12.436092 11.169792 13.384332 11.169792 14.704092 11.169792 15.137172 10.240992 15.429852 9.895392L15.430932 9.893232C15.684732 9.562752 15.995772 9.241992 16.566012 8.816472L15.027012 7.940592z"/>
    <polygon fill="#231F1F" points="14.812 14.971 14.812 14.229 11.682 14.229 11.682 14.971 12.878 14.971 12.878 17.956 13.619 17.956 13.619 14.971"/>
  </g>
</svg>
