<svg width="24" height="24" viewBox="0 0 24 24">
  <g fill="none" fill-rule="evenodd">
    <circle cx="12" cy="12" r="12" fill="#FFF" opacity=".6"/>
    <circle cx="12" cy="12" r="11" fill="#717065"/>
    <path fill="#FFF" d="M14.7233998,14.009025 C14.8847845,14.1419452 15.0943533,14.2222222 15.3233998,14.2222222 C15.8333794,14.2222222 16.2467996,13.8242531 16.2467996,13.3333333 C16.2467996,12.8424136 15.8333794,12.4444444 15.3233998,12.4444444 C15.0943533,12.4444444 14.8847845,12.5247214 14.7233998,12.6576417 C14.5620151,12.5247214 14.3524463,12.4444444 14.1233998,12.4444444 C13.6134202,12.4444444 13.2,12.8424136 13.2,13.3333333 C13.2,13.8242531 13.6134202,14.2222222 14.1233998,14.2222222 C14.3524463,14.2222222 14.5620151,14.1419452 14.7233998,14.009025 Z M16.5044548,16 L7.49554521,15.9999999 C6.67955446,15.9999999 6,15.3313853 6,14.5066074 L6,11.1111111 L18,11.1111111 L18,14.5066075 C18,15.320221 17.3304216,16 16.5044548,16 Z M7.10742188,8 L16.8925781,8 C17.4996527,8 18,8.49746139 18,9.11111111 L18,10.2222222 L6,10.2222222 L6,9.11111111 C6,8.49318314 6.49580966,8 7.10742188,8 Z M7.38461538,13.3333333 L7.38461538,14.2222222 L9.23076923,14.2222222 L9.23076923,13.3333333 L7.38461538,13.3333333 Z"/>
  </g>
</svg>
