<?xml version="1.0" encoding="UTF-8" standalone="no"?>
<svg width="17px" height="17px" viewBox="0 0 17 17" version="1.1" xmlns="http://www.w3.org/2000/svg" xmlns:xlink="http://www.w3.org/1999/xlink" xmlns:sketch="http://www.bohemiancoding.com/sketch/ns">
    <!-- Generator: Sketch 3.4.2 (15857) - http://www.bohemiancoding.com/sketch -->
    <title>atm-s</title>
    <desc>Created with Sketch.</desc>
    <defs></defs>
    <g id="POI" stroke="none" stroke-width="1" fill="none" fill-rule="evenodd" sketch:type="MSPage">
        <g id="atm-s" sketch:type="MSLayerGroup">
            <circle id="Oval-1-Copy-43" fill="#FFFFFF" sketch:type="MSShapeGroup" cx="8.5" cy="8.5" r="8.5"></circle>
            <circle id="Oval-1-Copy-42" fill="#717065" sketch:type="MSShapeGroup" cx="8.5" cy="8.5" r="7.5"></circle>
            <path d="M4.5,5 C4.223,5 4,5.223 4,5.5 L4,10.5 C4,10.777 4.223,11 4.5,11 L12.5,11 C12.777,11 13,10.777 13,10.5 L13,5.5 C13,5.223 12.777,5 12.5,5 L4.5,5 Z M4.5,6 L12.5,6 L12.5,7 L4.5,7 L4.5,6 Z M4.5,9 L6,9 L6,10 L4.5,10 L4.5,9 Z M9,9.5 L12,9.5 L12,10 L9,10 L9,9.5 Z" id="rect10401-7-copy" fill="#FFFFFF" sketch:type="MSShapeGroup"></path>
        </g>
    </g>
</svg>