<svg xmlns:xlink="http://www.w3.org/1999/xlink" width="17" height="17" viewBox="0 0 17 17">
  <defs>
    <polygon id="atm-tinkoff-gerb-s-a" points="16.682 .085 16.682 14.96 0 14.96 0 .085 16.682 .085"/>
  </defs>
  <g fill="none" fill-rule="evenodd" transform="translate(0 1)">
    <g transform="translate(0 .596)">
      <mask id="atm-tinkoff-gerb-s-b" fill="#fff">
        <use xlink:href="#atm-tinkoff-gerb-s-a"/>
      </mask>
      <path fill="#FFF" d="M15.380512,8.173804 C16.524272,7.114364 15.853792,5.830524 15.853792,5.830524 C16.504552,5.035604 16.386232,3.955764 16.386232,3.955764 C16.386232,3.955764 15.873512,4.261764 14.749472,3.670164 C13.625432,3.079244 12.915512,3.344444 12.915512,3.344444 C12.640112,3.038444 12.521112,2.467924 12.521112,2.467924 C11.377352,2.325124 10.707552,3.364844 10.707552,3.364844 C10.608272,2.835124 10.134992,2.549524 10.134992,2.549524 L10.785752,1.122884 L9.800432,1.041964 L9.544072,0.410244 L8.971512,0.654364 L8.420032,0.084524 L7.795112,0.648924 L7.138232,0.410244 L6.881872,1.041964 L5.895872,1.122884 L6.546632,2.549524 C6.546632,2.549524 6.093072,2.855524 5.974752,3.364844 C5.974752,3.364844 5.304272,2.325124 4.160512,2.467924 C4.160512,2.467924 4.042192,3.038444 3.766112,3.344444 C3.766112,3.344444 3.056192,3.079244 1.932832,3.670164 C0.808112,4.261764 0.295392,3.955764 0.295392,3.955764 C0.295392,3.955764 0.177752,5.035604 0.828512,5.830524 C0.828512,5.830524 0.157352,7.114364 1.301792,8.173804 C1.301792,8.173804 0.946152,8.907524 0.000272,8.846324 C0.000272,8.846324 0.256632,10.823084 1.912432,10.944804 C1.912432,10.944804 2.227952,13.512484 5.205672,13.675684 C5.205672,13.675684 6.086952,14.873844 8.123552,14.956124 L8.124232,14.959524 C8.199032,14.961564 8.268392,14.958844 8.340472,14.958164 C8.413232,14.958844 8.482592,14.961564 8.558072,14.959524 L8.558072,14.956124 C10.594672,14.873844 11.476632,13.675684 11.476632,13.675684 C14.453672,13.512484 14.769872,10.944804 14.769872,10.944804 C16.425672,10.823084 16.682032,8.846324 16.682032,8.846324 C15.735472,8.907524 15.380512,8.173804 15.380512,8.173804" mask="url(#atm-tinkoff-gerb-s-b)"/>
    </g>
    <path fill="#FCDB2E" d="M6.857324,11.909452 C6.709764,11.819012 6.641084,11.666692 6.633604,11.425292 L6.633604,7.900172 L10.059444,7.900172 L10.059444,11.439572 C10.049924,11.744212 9.928204,11.853692 9.837084,11.909452 L8.346524,12.649972 L6.857324,11.909452 Z"/>
    <path fill="#231F1F" d="M7.272328 2.168928L7.482448 1.760928 7.963208 1.967648 8.407248 1.509328 8.851288 1.967648 9.332048 1.760928 9.542848 2.168928 9.986888 2.213808 9.693128 2.648328C9.355848 2.464048 8.847208 2.357968 8.408608 2.357968 7.970008 2.357968 7.464088 2.469488 7.127488 2.653768L6.833728 2.219248 7.272328 2.168928zM13.114752 9.14396L12.640112 9.66416C12.635352 9.66892 12.118552 10.24896 12.079792 10.9752 12.027432 11.93672 11.965552 12.38688 11.783312 12.7772 12.392592 12.6854 13.443872 12.2672 13.673712 10.50736L13.721312 10.1456 14.034792 10.33192C14.034792 10.33192 14.151752 10.39584 14.322432 10.39584 14.510112 10.39584 14.690312 10.32172 14.861672 10.17552 14.342832 9.8974 13.725392 9.26704 13.799512 8.14844L13.813112 7.94308 14.017792 7.92472C14.021872 7.92404 14.495832 7.87372 14.741992 7.5616 14.839912 7.43716 14.888872 7.28756 14.892272 7.10736 13.086872 6.91084 12.212392 5.4366 11.925432 4.82868 11.749992 4.9436 11.516072 5.14148 11.440592 5.41892 11.365792 5.69092 11.456912 6.00236 11.709872 6.34508 12.434752 7.32904 12.868592 8.12192 11.790792 9.15756 11.962152 9.2344 12.206952 9.3024 12.420472 9.265L13.114752 9.14396zM11.468472 13.28312C11.380072 13.28312 11.329072 13.27768 11.329072 13.27768L10.927192 13.23552 11.154312 12.90232C11.448072 12.47324 11.530352 12.22572 11.599032 10.94936 11.626232 10.44956 11.825472 10.01912 12.002272 9.72876 11.575912 9.64444 11.252232 9.40372 11.235912 9.39148L10.992472 9.20788 11.227752 9.0134C12.330712 8.10492 12.036272 7.59968 11.321592 6.63068 10.976152 6.16148 10.860552 5.70996 10.976832 5.28836 11.169272 4.59952 11.918632 4.28196 11.950592 4.26836L12.184512 4.1718 12.269512 4.4098C12.300792 4.49616 13.061032 6.53956 15.129592 6.6436L15.328152 6.65312 15.356032 6.85032C15.412472 7.25084 15.332232 7.59152 15.117352 7.86216 14.870512 8.1736 14.505352 8.30824 14.274832 8.36468 14.295912 9.55876 15.326792 9.8498 15.337672 9.85252L15.687192 9.94704 15.465512 10.23264C15.052072 10.76508 14.616192 10.8766 14.322432 10.8766 14.242872 10.8766 14.170112 10.86912 14.104832 10.85688 13.930072 11.78032 13.518672 12.45692 12.878112 12.87036 12.323912 13.2294 11.757472 13.28312 11.468472 13.28312L11.468472 13.28312zM13.373764 4.809572C14.119724 5.073412 14.200644 5.609932 14.699764 5.698332 15.031604 5.756812 15.394044 5.756812 15.559284 5.246812 14.722204 5.340652 14.443404 4.778972 13.913684 4.709612 13.605644 4.669492 13.431564 4.774892 13.373764 4.809572M2.957932 10.157296L3.006892 10.507496C3.236732 12.267336 4.287332 12.685536 4.897972 12.778016 4.715732 12.387016 4.653172 11.936856 4.600812 10.975336 4.561372 10.242976 4.045932 9.669736 4.040492 9.663616L3.565852 9.144096 4.259452 9.265136C4.472972 9.302536 4.718452 9.234536 4.889812 9.157016 3.812692 8.121376 4.246532 7.328496 4.971412 6.345216 5.225052 6.001816 5.315492 5.689016 5.239332 5.417016 5.163172 5.142296 4.929252 4.943736 4.755172 4.829496 4.468212 5.437416 3.593052 6.910976 1.788332 7.107496 1.791052 7.288376 1.841372 7.438656 1.939972 7.563776 2.185452 7.873176 2.658052 7.924176 2.662132 7.924176L2.867492 7.943216 2.881092 8.147896C2.954532 9.267176 2.337772 9.897536 1.818252 10.174976 1.990292 10.321856 2.171172 10.395976 2.357492 10.395976L2.358172 10.395976C2.529532 10.395976 2.647172 10.331376 2.648532 10.330696L2.957932 10.157296zM5.211452 13.283256C4.923812 13.283256 4.356692 13.229536 3.801812 12.870496 3.162612 12.457056 2.750532 11.780456 2.575772 10.856336 2.511172 10.868576 2.437732 10.876736 2.358172 10.876736L2.357492 10.876736C2.065092 10.876736 1.628532 10.765216 1.215092 10.232776L.993412 9.946496 1.342932 9.852656C1.386452 9.840416 2.386052 9.548016 2.405772 8.364816 2.175932 8.308376 1.810092 8.173736 1.563252 7.862296 1.348372 7.591656 1.268812 7.250976 1.325252 6.850456L1.352452 6.653256 1.551012 6.643736C3.627052 6.539696 4.403612 4.431016 4.411092 4.409936L4.496092 4.171256 4.729332 4.268496C4.761292 4.281416 5.512012 4.599656 5.703092 5.288496 5.820052 5.710096 5.704452 6.161616 5.358332 6.630816 4.644332 7.599136 4.349892 8.104376 5.452852 9.013536L5.688812 9.208016 5.444692 9.391616C5.428372 9.403856 5.104012 9.644576 4.678332 9.728896 4.855132 10.018576 5.054372 10.449696 5.081572 10.949496 5.150932 12.225856 5.232532 12.473376 5.526292 12.902456L5.754092 13.234976 5.352212 13.277816C5.352212 13.277816 5.300532 13.283256 5.211452 13.283256L5.211452 13.283256zM3.307248 4.809572C3.249448 4.774892 3.074688 4.669492 2.766648 4.709612 2.236928 4.778972 1.958808 5.340652 1.121048 5.246812 1.286968 5.756812 1.649408 5.756812 1.980568 5.698332 2.479688 5.609932 2.560608 5.073412 3.307248 4.809572M10.059376 11.4393C10.049856 11.74462 9.928136 11.85342 9.837016 11.90918L8.346456 12.6497 6.857256 11.90918C6.709696 11.81942 6.641016 11.66642 6.633536 11.42502L6.633536 7.90058 10.059376 7.90058 10.059376 11.4393zM6.171136 7.43886L6.171136 11.4393C6.184056 11.8507 6.339096 12.1431 6.636256 12.31582L7.941856 12.96522 8.345776 13.16582 8.751736 12.96522 10.058016 12.31582C10.355176 12.1431 10.509536 11.8507 10.521776 11.4393L10.521776 7.43886 6.171136 7.43886zM10.36354 13.919872L10.46622 13.503712C8.50442 14.748112 6.54262 13.688672 6.33182 13.566952L6.44062 14.006912 6.02582 14.086472C6.18426 14.178952 7.15326 14.706632 8.42282 14.706632 9.15042 14.706632 9.97526 14.533232 10.80282 14.004872L10.36354 13.919872zM9.247932 6.156312C9.014692 6.466392 8.667212 6.579272 8.409492 6.579272 8.144292 6.579272 7.851212 6.479312 7.622732 6.176712 7.448652 5.946872 7.314692 5.757832 7.154212 5.621152L7.802932 5.219952 7.561532 3.868792C7.561532 3.868792 8.467972 3.402312 9.276492 3.930672L9.009252 5.256672 9.701492 5.632032C9.555972 5.750352 9.412492 5.936672 9.247932 6.156312L9.247932 6.156312zM9.461452 4.999632L9.762692 3.876272C9.762692 3.500912 9.120772 3.160232 8.398612 3.160232 7.693452 3.160232 7.052212 3.500912 7.052212 3.876272L7.346652 4.999632 6.381052 5.557232C6.608172 5.702752 6.829172 5.932592 6.986252 6.116872 7.021612 6.153592 7.053572 6.192352 7.084852 6.231112L7.084852 6.230432 7.086212 6.232472C7.140612 6.300472 7.189572 6.369152 7.231052 6.431712 7.429612 6.669712 7.830132 7.032832 8.427172 7.032832 9.258132 7.032832 9.530812 6.448032 9.715092 6.230432L9.715772 6.229072C9.875572 6.020992 10.071412 5.819032 10.430452 5.551112L9.461452 4.999632z"/>
    <polygon fill="#231F1F" points="9.326 9.426 9.326 8.959 7.356 8.959 7.356 9.426 8.108 9.426 8.108 11.306 8.575 11.306 8.575 9.426"/>
  </g>
</svg>
