<svg xmlns:xlink="http://www.w3.org/1999/xlink" width="23" height="23" viewBox="0 0 23 23">
  <defs>
    <polygon id="atm-tinkoff-gerb-m-a" points="22.569 .114 22.569 20.24 0 20.24 0 .114 22.569 .114"/>
  </defs>
  <g fill="none" fill-rule="evenodd">
    <g transform="translate(0 .806)">
      <mask id="atm-tinkoff-gerb-m-b" fill="#fff">
        <use xlink:href="#atm-tinkoff-gerb-m-a"/>
      </mask>
      <path fill="#FFF" d="M20.808928,11.058676 C22.356368,9.625316 21.449248,7.888356 21.449248,7.888356 C22.329688,6.812876 22.169608,5.351916 22.169608,5.351916 C22.169608,5.351916 21.475928,5.765916 19.955168,4.965516 C18.434408,4.166036 17.473928,4.524836 17.473928,4.524836 C17.101328,4.110836 16.940328,3.338956 16.940328,3.338956 C15.392888,3.145756 14.486688,4.552436 14.486688,4.552436 C14.352368,3.835756 13.712048,3.449356 13.712048,3.449356 L14.592488,1.519196 L13.259408,1.409716 L12.912568,0.555036 L12.137928,0.885316 L11.391808,0.114356 L10.546328,0.877956 L9.657608,0.555036 L9.310768,1.409716 L7.976768,1.519196 L8.857208,3.449356 C8.857208,3.449356 8.243568,3.863356 8.083488,4.552436 C8.083488,4.552436 7.176368,3.145756 5.628928,3.338956 C5.628928,3.338956 5.468848,4.110836 5.095328,4.524836 C5.095328,4.524836 4.134848,4.166036 2.615008,4.965516 C1.093328,5.765916 0.399648,5.351916 0.399648,5.351916 C0.399648,5.351916 0.240488,6.812876 1.120928,7.888356 C1.120928,7.888356 0.212888,9.625316 1.761248,11.058676 C1.761248,11.058676 1.280088,12.051356 0.000368,11.968556 C0.000368,11.968556 0.347208,14.642996 2.587408,14.807676 C2.587408,14.807676 3.014288,18.281596 7.042968,18.502396 C7.042968,18.502396 8.235288,20.123436 10.990688,20.234756 L10.991608,20.239356 C11.092808,20.242116 11.186648,20.238436 11.284168,20.237516 C11.382608,20.238436 11.476448,20.242116 11.578568,20.239356 L11.578568,20.234756 C14.333968,20.123436 15.527208,18.502396 15.527208,18.502396 C19.554968,18.281596 19.982768,14.807676 19.982768,14.807676 C22.222968,14.642996 22.569808,11.968556 22.569808,11.968556 C21.289168,12.051356 20.808928,11.058676 20.808928,11.058676" mask="url(#atm-tinkoff-gerb-m-b)"/>
    </g>
    <path fill="#FCDB2E" d="M9.277556,16.112788 C9.077916,15.990428 8.984996,15.784348 8.974876,15.457748 L8.974876,10.688468 L13.609836,10.688468 L13.609836,15.477068 C13.596956,15.889228 13.432276,16.037348 13.308996,16.112788 L11.292356,17.114668 L9.277556,16.112788 Z"/>
    <path fill="#231F1F" d="M9.839032 2.934432L10.123312 2.382432 10.773752 2.662112 11.374512 2.042032 11.975272 2.662112 12.625712 2.382432 12.910912 2.934432 13.511672 2.995152 13.114232 3.583032C12.657912 3.333712 11.969752 3.190192 11.376352 3.190192 10.782952 3.190192 10.098472 3.341072 9.643072 3.590392L9.245632 3.002512 9.839032 2.934432zM17.743488 12.37124L17.101328 13.07504C17.094888 13.08148 16.395688 13.86624 16.343248 14.8488 16.272408 16.14968 16.188688 16.75872 15.942128 17.2868 16.766448 17.1626 18.188768 16.5968 18.499728 14.21584L18.564128 13.7264 18.988248 13.97848C18.988248 13.97848 19.146488 14.06496 19.377408 14.06496 19.631328 14.06496 19.875128 13.96468 20.106968 13.76688 19.405008 13.3906 18.569648 12.53776 18.669928 11.02436L18.688328 10.74652 18.965248 10.72168C18.970768 10.72076 19.612008 10.65268 19.945048 10.2304 20.077528 10.06204 20.143768 9.85964 20.148368 9.61584 17.705768 9.34996 16.522648 7.3554 16.134408 6.53292 15.897048 6.6884 15.580568 6.95612 15.478448 7.33148 15.377248 7.69948 15.500528 8.12084 15.842768 8.58452 16.823488 9.91576 17.410448 10.98848 15.952248 12.38964 16.184088 12.4936 16.515288 12.5856 16.804168 12.535L17.743488 12.37124zM15.516168 17.97128C15.396568 17.97128 15.327568 17.96392 15.327568 17.96392L14.783848 17.90688 15.091128 17.45608C15.488568 16.87556 15.599888 16.54068 15.692808 14.81384 15.729608 14.13764 15.999168 13.55528 16.238368 13.16244 15.661528 13.04836 15.223608 12.72268 15.201528 12.70612L14.872168 12.45772 15.190488 12.1946C16.682728 10.96548 16.284368 10.28192 15.317448 8.97092 14.850088 8.33612 14.693688 7.72524 14.851008 7.15484 15.111368 6.22288 16.125208 5.79324 16.168448 5.77484L16.484928 5.6442 16.599928 5.9662C16.642248 6.08304 17.670808 8.84764 20.469448 8.9884L20.738088 9.00128 20.775808 9.26808C20.852168 9.80996 20.743608 10.27088 20.452888 10.63704 20.118928 11.0584 19.624888 11.24056 19.313008 11.31692 19.341528 12.93244 20.736248 13.3262 20.750968 13.32988L21.223848 13.45776 20.923928 13.84416C20.364568 14.56452 19.774848 14.7154 19.377408 14.7154 19.269768 14.7154 19.171328 14.70528 19.083008 14.68872 18.846568 15.93808 18.289968 16.85348 17.423328 17.41284 16.673528 17.8986 15.907168 17.97128 15.516168 17.97128L15.516168 17.97128zM18.093916 6.507068C19.103156 6.864028 19.212636 7.589908 19.887916 7.709508 20.336876 7.788628 20.827236 7.788628 21.050796 7.098628 19.918276 7.225588 19.541076 6.465668 18.824396 6.371828 18.407636 6.317548 18.172116 6.460148 18.093916 6.507068M4.001908 13.742224L4.068148 14.216024C4.379108 16.596984 5.800508 17.162784 6.626668 17.287904 6.380108 16.758904 6.295468 16.149864 6.224628 14.848984 6.171268 13.858144 5.473908 13.082584 5.466548 13.074304L4.824388 12.371424 5.762788 12.535184C6.051668 12.585784 6.383788 12.493784 6.615628 12.388904 5.158348 10.987744 5.745308 9.915024 6.726028 8.584704 7.069188 8.120104 7.191548 7.696904 7.088508 7.328904 6.985468 6.957224 6.668988 6.688584 6.433468 6.534024 6.045228 7.356504 4.861188 9.350144 2.419508 9.616024 2.423188 9.860744 2.491268 10.064064 2.624668 10.233344 2.956788 10.651944 3.596188 10.720944 3.601708 10.720944L3.879548 10.746704 3.897948 11.023624C3.997308 12.537944 3.162868 13.390784 2.459988 13.766144 2.692748 13.964864 2.937468 14.065144 3.189548 14.065144L3.190468 14.065144C3.422308 14.065144 3.581468 13.977744 3.583308 13.976824L4.001908 13.742224zM7.050788 17.971464C6.661628 17.971464 5.894348 17.898784 5.143628 17.413024 4.278828 16.853664 3.721308 15.938264 3.484868 14.687984 3.397468 14.704544 3.298108 14.715584 3.190468 14.715584L3.189548 14.715584C2.793948 14.715584 2.203308 14.564704 1.643948 13.844344L1.344028 13.457024 1.816908 13.330064C1.875788 13.313504 3.228188 12.917904 3.254868 11.317104 2.943908 11.240744 2.448948 11.058584 2.114988 10.637224 1.824268 10.271064 1.716628 9.810144 1.792988 9.268264L1.829788 9.001464 2.098428 8.988584C4.907188 8.847824 5.957828 5.994904 5.967948 5.966384L6.082948 5.643464 6.398508 5.775024C6.441748 5.792504 7.457428 6.223064 7.715948 7.155024 7.874188 7.725424 7.717788 8.336304 7.249508 8.971104 6.283508 10.281184 5.885148 10.964744 7.377388 12.194784L7.696628 12.457904 7.366348 12.706304C7.344268 12.722864 6.905428 13.048544 6.329508 13.162624 6.568708 13.554544 6.838268 14.137824 6.875068 14.814024 6.968908 16.540864 7.079308 16.875744 7.476748 17.456264L7.784948 17.906144 7.241228 17.964104C7.241228 17.964104 7.171308 17.971464 7.050788 17.971464L7.050788 17.971464zM4.474512 6.507068C4.396312 6.460148 4.159872 6.317548 3.743112 6.371828 3.026432 6.465668 2.650152 7.225588 1.516712 7.098628 1.741192 7.788628 2.231552 7.788628 2.679592 7.709508 3.354872 7.589908 3.464352 6.864028 4.474512 6.507068M13.609744 15.4767C13.596864 15.88978 13.432184 16.03698 13.308904 16.11242L11.292264 17.1143 9.277464 16.11242C9.077824 15.99098 8.984904 15.78398 8.974784 15.45738L8.974784 10.68902 13.609744 10.68902 13.609744 15.4767zM8.349184 10.06434L8.349184 15.4767C8.366664 16.0333 8.576424 16.4289 8.978464 16.66258L10.744864 17.54118 11.291344 17.81258 11.840584 17.54118 13.607904 16.66258C14.009944 16.4289 14.218784 16.0333 14.235344 15.4767L14.235344 10.06434 8.349184 10.06434zM14.02126 18.832768L14.16018 18.269728C11.50598 19.953328 8.85178 18.519968 8.56658 18.355288L8.71378 18.950528 8.15258 19.058168C8.36694 19.183288 9.67794 19.897208 11.39558 19.897208 12.37998 19.897208 13.49594 19.662608 14.61558 18.947768L14.02126 18.832768zM12.511908 8.329128C12.196348 8.748648 11.726228 8.901368 11.377548 8.901368 11.018748 8.901368 10.622228 8.766128 10.313108 8.356728 10.077588 8.045768 9.896348 7.790008 9.679228 7.605088L10.556908 7.062288 10.230308 5.234248C10.230308 5.234248 11.456668 4.603128 12.550548 5.317968L12.188988 7.111968 13.125548 7.619808C12.928668 7.779888 12.734548 8.031968 12.511908 8.329128L12.511908 8.329128zM12.800788 6.764208L13.208348 5.244368C13.208348 4.736528 12.339868 4.275608 11.362828 4.275608 10.408788 4.275608 9.541228 4.736528 9.541228 5.244368L9.939588 6.764208 8.633188 7.518608C8.940468 7.715488 9.239468 8.026448 9.451988 8.275768 9.499828 8.325448 9.543068 8.377888 9.585388 8.430328L9.585388 8.429408 9.587228 8.432168C9.660828 8.524168 9.727068 8.617088 9.783188 8.701728 10.051828 9.023728 10.593708 9.515008 11.401468 9.515008 12.525708 9.515008 12.894628 8.723808 13.143948 8.429408L13.144868 8.427568C13.361068 8.146048 13.626028 7.872808 14.111788 7.510328L12.800788 6.764208z"/>
    <polygon fill="#231F1F" points="12.618 12.753 12.618 12.121 9.952 12.121 9.952 12.753 10.97 12.753 10.97 15.296 11.601 15.296 11.601 12.753"/>
  </g>
</svg>
