<?xml version="1.0" encoding="UTF-8" standalone="no"?>
<svg width="27px" height="27px" viewBox="0 0 27 27" version="1.1" xmlns="http://www.w3.org/2000/svg" xmlns:xlink="http://www.w3.org/1999/xlink">
    <!-- Generator: Sketch 3.8.3 (29802) - http://www.bohemiancoding.com/sketch -->
    <title>atm-l</title>
    <desc>Created with Sketch.</desc>
    <defs>
        <path d="M19.4998737,16.1328674 C19.3528155,16.0482507 19.1820914,16 19,16 C18.4438648,16 18,16.4477153 18,17 C18,17.5561352 18.4477153,18 19,18 C19.1827551,18 19.3533863,17.9516518 19.5001263,17.8671326 C19.6471845,17.9517493 19.8179086,18 20,18 C20.5561352,18 21,17.5522847 21,17 C21,16.4438648 20.5522847,16 20,16 C19.8172449,16 19.6466137,16.0483482 19.4998737,16.1328674 Z M6,9 C5.446,9 5,9.446 5,10 L5,19 C5,19.554 5.446,20 6,20 L21,20 C21.554,20 22,19.554 22,19 L22,10 C22,9.446 21.554,9 21,9 L6,9 Z M5.5,11 L21,11 L21,13 L5.5,13 L5.5,11 Z M6,17 L13,17 L13,18 L6,18 L6,17 Z" id="path-1"></path>
    </defs>
    <g id="POI-Clear" stroke="none" stroke-width="1" fill="none" fill-rule="evenodd">
        <g id="atm-l">
            <circle id="Oval-1-Copy-39" fill-opacity="0.6" fill="#FFFFFF" cx="13.5" cy="13.5" r="13.5"></circle>
            <path d="M13.5,26 C20.4035594,26 26,20.4035594 26,13.5 C26,6.59644063 20.4035594,1 13.5,1 C6.59644063,1 1,6.59644063 1,13.5 C1,20.4035594 6.59644063,26 13.5,26 Z" id="Oval-1-Copy-38" fill="#717065"></path>
            <g id="Combined-Shape" fill="#FFFFFF">
                <use xlink:href="#path-1"></use>
                <use xlink:href="#path-1"></use>
            </g>
        </g>
    </g>
</svg>