<?xml version="1.0" encoding="UTF-8" standalone="no"?>
<svg width="17px" height="17px" viewBox="0 0 17 17" version="1.1" xmlns="http://www.w3.org/2000/svg" xmlns:xlink="http://www.w3.org/1999/xlink">
    <!-- Generator: Sketch 3.8.3 (29802) - http://www.bohemiancoding.com/sketch -->
    <title>australian-football-s</title>
    <desc>Created with Sketch.</desc>
    <defs>
        <path d="M10.8052458,4.00124584 C9.08424584,4.07024584 7.38724584,4.76224584 6.07424584,6.07424584 C4.76224584,7.38724584 4.07024584,9.08524584 4.00124584,10.8052458 C3.95724584,11.9132458 5.08624584,13.0422458 6.19424584,12.9982458 C7.91524584,12.9292458 9.61224584,12.2372458 10.9252458,10.9252458 C12.2372458,9.61224584 12.9292458,7.91424584 12.9982458,6.19424584 C13.0422458,5.08624584 11.9132458,3.95724584 10.8052458,4.00124584 L10.8052458,4.00124584 Z M5.86224584,10.1462458 L7.50824584,8.50024584 L6.71324584,7.70524584 L7.70324584,6.71524584 L8.49824584,7.51024584 L10.1442458,5.86424584 L11.1342458,6.85424584 L9.48824584,8.50024584 L10.2832458,9.29524584 L9.29324584,10.2852458 L8.49824584,9.49024584 L6.85224584,11.1362458 L5.86224584,10.1462458 L5.86224584,10.1462458 Z" id="path-1"></path>
    </defs>
    <g id="POI-Clear" stroke="none" stroke-width="1" fill="none" fill-rule="evenodd">
        <g id="australian-football-s">
            <path d="M8.5,17 C3.812,17 0,13.188 0,8.5 C0,3.812 3.812,0 8.5,0 C13.188,0 17,3.812 17,8.5 C17,13.188 13.188,17 8.5,17 L8.5,17 Z" id="Shape" fill-opacity="0.6" fill="#FFFFFF"></path>
            <ellipse id="Oval" fill="#717065" cx="8.5" cy="8.5" rx="7.5" ry="7.5"></ellipse>
            <g id="Shape" fill="#FFFFFF">
                <use xlink:href="#path-1"></use>
                <use xlink:href="#path-1"></use>
            </g>
        </g>
    </g>
</svg>