<svg width="24" height="24" viewBox="0 0 24 24">
  <g fill="none" fill-rule="evenodd">
    <circle cx="12" cy="12" r="12" fill="#FFF" opacity=".6"/>
    <circle cx="12" cy="12" r="11" fill="#717065"/>
    <path fill="#FFF" d="M15.0742337,6.00161346 C12.7808119,6.09309354 10.5154761,7.01672141 8.76692259,8.76607741 C7.01596167,10.5162359 6.09393872,12.7807692 6.00165618,15.0733885 C5.94307682,16.5515141 7.44848593,18.0569232 8.92661151,17.9983438 C11.2192308,17.9060613 13.4845666,16.9832359 15.2339226,15.2330774 C16.984081,13.4837214 17.9069065,11.2191881 17.9983865,8.92576633 C18.0561634,7.44764076 16.5523592,5.94383656 15.0742337,6.00161346 L15.0742337,6.00161346 Z M10.2627022,12.820892 L9.40006107,11.9574484 C9.21228616,11.770476 9.21228616,11.4647399 9.40006107,11.276965 L9.63518093,11.0418451 C9.72585856,10.9511675 9.84702955,10.9006127 9.97542265,10.9006127 C10.1038157,10.9006127 10.2249867,10.950365 10.3156644,11.0418451 L11.179108,11.9044863 L11.867616,11.2159783 L11.0049748,10.3525347 C10.9142972,10.261857 10.8637424,10.140686 10.8637424,10.0122929 C10.8637424,9.88389985 10.9134947,9.76272886 11.0049748,9.67205123 L11.2400947,9.43693136 C11.3307723,9.34625374 11.4519433,9.29569895 11.5803364,9.29569895 C11.7087295,9.29569895 11.8299005,9.34545128 11.9205781,9.43693136 L12.7840217,10.2995725 L13.6474653,9.43693136 C13.738143,9.34625374 13.859314,9.29569895 13.9877071,9.29569895 C14.1161002,9.29569895 14.2372711,9.34545128 14.3279488,9.43693136 L14.5630686,9.67205123 C14.7508435,9.85902368 14.7508435,10.1647598 14.5630686,10.3525347 L13.7004275,11.2159783 L14.5630686,12.0794219 C14.7508435,12.2663943 14.7508435,12.5721304 14.5630686,12.7599053 L14.3279488,12.9950252 C14.2372711,13.0857028 14.1161002,13.1362576 13.9877071,13.1362576 C13.859314,13.1362576 13.738143,13.0865053 13.6474653,12.9950252 L12.7840217,12.132384 L12.0955137,12.820892 L12.9581549,13.6843356 C13.1459298,13.8713081 13.1459298,14.1770442 12.9581549,14.3648191 L12.723035,14.5999389 C12.6323574,14.6906166 12.5111864,14.7411713 12.3827933,14.7411713 C12.2544002,14.7411713 12.1332292,14.691419 12.0425516,14.5999389 L11.179108,13.7372978 L10.3156644,14.5999389 C10.2249867,14.6906166 10.1038157,14.7411713 9.97542265,14.7411713 C9.84702955,14.7411713 9.72585856,14.691419 9.63518093,14.5999389 L9.40006107,14.3648191 C9.21228616,14.1778466 9.21228616,13.8721105 9.40006107,13.6843356 L10.2627022,12.820892 L10.2627022,12.820892 Z"/>
  </g>
</svg>
