<svg width="16" height="16" viewBox="0 0 16 16">
  <g fill="none" fill-rule="evenodd">
    <circle cx="8" cy="8" r="8" fill="#FFF" opacity=".6"/>
    <circle cx="8" cy="8" r="7" fill="#717065"/>
    <path fill="#FFF" d="M10.0494491,4.00110748 C8.5195849,4.06244428 7.01105526,4.67759013 5.84387822,5.84387822 C4.67759013,7.01105526 4.06244428,8.52047384 4.00110748,10.0494491 C3.96199416,11.0343936 4.9656064,12.0380058 5.95055092,11.9988925 C7.4804151,11.9375557 8.98894474,11.3224099 10.1561218,10.1561218 C11.3224099,8.98894474 11.9375557,7.47952616 11.9988925,5.95055092 C12.0380058,4.9656064 11.0343936,3.96199416 10.0494491,4.00110748 L10.0494491,4.00110748 Z M5.65542314,9.46363822 L7.11861689,8.00044447 L6.41191031,7.29373789 L7.29196001,6.41368818 L7.99866659,7.12039477 L9.46186034,5.65720101 L10.34191,6.53725072 L8.8787163,8.00044447 L9.58542288,8.70715105 L8.70537317,9.58720075 L7.99866659,8.88049417 L6.53547284,10.3436879 L5.65542314,9.46363822 L5.65542314,9.46363822 Z"/>
  </g>
</svg>
