<svg version="1.1" viewBox="0 0 24 24" xml:space="preserve" xmlns="http://www.w3.org/2000/svg">
<g transform="matrix(.84005 0 0 .84005 -30.981 -1.1458)" fill="#717065"><path d="m54.633 4.9941c-0.63366-0.00271-1.2975 0.089825-1.9785 0.28906-0.37703 0.1103-0.67179 0.21016-0.89453 0.30469-0.35711 0.15322-0.66043 0.33892-0.91992 0.47852-0.50752 0.29262-0.66844 0.43639-0.80664 0.53125-0.22008 0.15106-0.49996 0.39261-0.85156 0.72852-2.754 2.6311-3.3918 6.7647-1.4121 9.1543 0.08238 0.09944 0.14844 0.19649 0.14844 0.21484 0 0.01836-0.66626 0.70121-1.4824 1.5176l-1.4844 1.4844-0.17969-0.08984c-0.44992-0.22778-0.51682-0.18634-1.9492 1.2441-0.57055 0.57351-1.129 1.1393-1.7168 1.7402-0.49623 0.51618-0.9043 1.0116-0.9043 1.1758 0 0.31862 0.5329 0.98688 0.86328 1.082 0.19315 0.05563 0.33057 0.0511 0.49219-0.01563 0.16382-0.06764 3.828-3.6954 3.9336-3.8945 0.09273-0.17492 0.07992-0.49051-0.02734-0.66406l-0.08984-0.14453 1.498-1.4961 1.4961-1.4961 0.28906 0.2168c3.9647 2.9827 10.486-0.39139 11.346-5.8691 0.5793-3.6919-1.9474-6.4776-5.3691-6.4922zm-0.21484 1.4629c0.09331-0.0029 0.18539-0.0023 0.27734 0 2.1503 0.052538 3.9034 1.4933 3.9062 3.9961 0.0041 3.6011-3.5896 6.9082-7.0879 6.5234-3.8903-0.42792-4.67-5.3532-1.3574-8.5723 1.3216-1.2843 2.8621-1.9045 4.2617-1.9473z" stroke-width=".038977"/><path d="m59.336 18.35c-0.16204-0.09052-0.34102-0.0894-0.55664 0.0039-0.42282 0.18297-0.95002 0.77095-1.8926 1.627-1.8246 1.657-1.8506 1.6838-2.1816 1.8281-1.4777 0.64466-2.1192 1.7339-1.6562 3.0039 0.49051 1.3457 1.7598 1.8039 3.1738 1.1953l0.47852-0.20508 2.4824-0.19336c1.8068-0.13958 2.4393-0.18043 2.707-0.24414 0.29682-0.07063 0.33065-0.28438 0.33008-0.2832l0.12891-0.25976-1.373-3.209c-0.80945-1.8959-1.1545-2.9921-1.6406-3.2637zm-0.47461 1.4492c0.07646 0.15536 0.1824 0.3887 0.35938 0.79883l0.38086 0.88477-1.6582 0.7168-1.6562 0.71289-0.10742-0.25-0.13477-0.3125 1.418-1.2871c0.75068-0.68216 1.2596-1.1386 1.3984-1.2637zm1.2266 2.8086 0.37891 0.88086c0.14357 0.33271 0.25641 0.60261 0.32812 0.78906 0.0019 0.0049 4e-3 0.0089 0.0059 0.01367-0.23363 0.01817-0.86052 0.0678-1.8594 0.14648l-1.9297 0.15234-0.13281-0.30469-0.10742-0.24805 1.6582-0.71484zm-5.0898 0.4043 0.4082 0.94726 0.4082 0.94531-0.11719 0.05078c-0.17594 0.07593-0.38507 0.13533-0.50195 0.14453-1.2078 0.09558-1.5025-1.521-0.35547-2.0195z" stroke-width=".048325"/></g>
</svg>
