<svg height="24" viewBox="0 0 24 24" width="24"><g fill="none" fill-rule="evenodd"><circle cx="12" cy="12" fill="#fff" opacity=".6" r="12"/><circle cx="12" cy="12" fill="#8c5f93" r="11"/><path d="m11.4615385 8c-1.0769231 0-1.61538465.57142857-1.61538465 1.71428571l1.07692305 4.57142859.5384616.5714286h1.076923l.5384616-.5714286 1.0769231-4.57142859c0-1.14285714-.5384616-1.71428571-1.6153847-1.71428571zm-2.69230773 1.71428571-2.15384615 1.14285719 1.61538461 4h1.07692308l.53846154-.5714286zm6.46153843 0-1.076923 4.57142859.5384615.5714286h1.0769231l1.6153846-4zm-9.15384612 2.28571429-.53846154.5714286-.53846154 1.7142857v1.7142857h.53846154l1.61538461-1.1428571zm11.84615382 0-1.0769231 2.8571429 1.0769231 1.1428571h1.0769231v-1.7142857l-.5384615-1.7142857z" fill="#fff"/></g></svg>