<?xml version="1.0" encoding="UTF-8" standalone="no"?>
<svg width="17px" height="17px" viewBox="0 0 17 17" version="1.1" xmlns="http://www.w3.org/2000/svg" xmlns:xlink="http://www.w3.org/1999/xlink">
    <!-- Generator: Sketch 3.8.3 (29802) - http://www.bohemiancoding.com/sketch -->
    <title>bakery-s</title>
    <desc>Created with Sketch.</desc>
    <defs>
        <ellipse id="path-1" cx="8.5" cy="8.5" rx="7.5" ry="7.5"></ellipse>
    </defs>
    <g id="POI-Clear" stroke="none" stroke-width="1" fill="none" fill-rule="evenodd">
        <g id="bakery-s">
            <path d="M8.5,17 C3.812,17 0,13.188 0,8.5 C0,3.812 3.812,0 8.5,0 C13.188,0 17,3.812 17,8.5 C17,13.188 13.188,17 8.5,17 L8.5,17 Z" id="Shape" fill-opacity="0.6" fill="#FFFFFF"></path>
            <g id="Oval">
                <use fill="#2D7970" xlink:href="#path-1"></use>
                <use fill="#825089" xlink:href="#path-1"></use>
            </g>
            <path d="M9,6 L8,6 L7,6.5 L8,10.5 L9,10.5 L10,6.5 L9,6 L9,6 Z M5.5,7.5 L4,10 L4,10.5 L4.5,11 L5,11 L6,10.5 L7,10.5 L6,7 L5.5,7.5 L5.5,7.5 Z M11.5,7.5 L11,7 L10,10.5 L11,10.5 L12,11 L12.5,11 L13,10.5 L13,9.5 L11.5,7.5 L11.5,7.5 Z" id="Shape" fill="#FFFFFF"></path>
        </g>
    </g>
</svg>