<?xml version="1.0" encoding="UTF-8" standalone="no"?>
<svg width="23px" height="23px" viewBox="0 0 23 23" version="1.1" xmlns="http://www.w3.org/2000/svg" xmlns:xlink="http://www.w3.org/1999/xlink">
    <!-- Generator: Sketch 3.8.3 (29802) - http://www.bohemiancoding.com/sketch -->
    <title>bank-m</title>
    <desc>Created with Sketch.</desc>
    <defs>
        <path d="M17.0365553,16 L16.5,8 L6.5,8 L6.04839683,16 L6.00334852,16 C5.44921444,16 5,16.4438648 5,17 L5,18 L18,18 L18,17 C18,16.4477153 17.5521239,16 17.0365553,16 Z M11.5,4 C11.5,4 5.00541667,6.86921429 5.00344697,7.23654762 L5,8 L18,8 L18,7.24107143 C17.9945833,6.86921429 11.5,4 11.5,4 Z" id="path-1"></path>
    </defs>
    <g id="POI-Clear" stroke="none" stroke-width="1" fill="none" fill-rule="evenodd">
        <g id="bank-2-m">
            <ellipse id="Oval-1-Copy-41" fill-opacity="0.6" fill="#FFFFFF" cx="11.5" cy="11.5" rx="11.5" ry="11.5"></ellipse>
            <ellipse id="Oval-1-Copy-40" fill="#717065" cx="11.5" cy="11.5" rx="10.5" ry="10.5"></ellipse>
            <g id="Combined-Shape" fill="#FFFFFF">
                <use xlink:href="#path-1"></use>
                <use xlink:href="#path-1"></use>
            </g>
            <g id="Group-10" transform="translate(9.000000, 8.000000)" fill="#717065">
                <path d="M4.91544879,4 L5,4 L5,1.99895656 C5,1.44266033 4.55237094,1 4.00019251,1 L1.50016487,1 C0.674322248,1 0,1.67157288 0,2.5 C0,3.26934284 0.571264795,3.89544943 1.30999794,3.98815918 L0,3.98815918 L0,4.99407959 C0,5.55350732 0.447629061,6 0.999807492,6 L3.49983513,6 C4.32567775,6 5,5.32842712 5,4.5 C5,4.32431533 4.97021363,4.15609997 4.91544879,4 Z M3.25,3 L5,3 L5,4 L4.91544879,4 C4.710174,3.41489114 4.15395881,3 3.5,3 L3.25,3 Z M1,2.5 C1,2.22385763 1.21505737,2 1.49047852,2 L5,2 L5,3 L1.49047852,3 C1.21959471,3 1,2.76806641 1,2.5 Z M4,4.5 C4,4.77614237 3.78494263,5 3.50952148,5 L0,5 L0,4 L3.50952148,4 C3.78040529,4 4,4.23193359 4,4.5 Z M2,0 L3,0 L3,1 L2,1 L2,0 Z M2,2 L3,2 L3,3 L2,3 L2,2 Z M2,4 L3,4 L3,5 L2,5 L2,4 Z M2,6 L3,6 L3,7 L2,7 L2,6 Z" id="Combined-Shape"></path>
            </g>
        </g>
    </g>
</svg>