<?xml version="1.0" encoding="UTF-8"?>
<svg width="28px" height="28px" viewBox="0 0 28 28" version="1.1" xmlns="http://www.w3.org/2000/svg" xmlns:xlink="http://www.w3.org/1999/xlink">
    <title>banknote-l</title>
    <g id="Page-1" stroke="none" stroke-width="1" fill="none" fill-rule="evenodd">
        <g id="banknote-l" fill-rule="nonzero">
            <circle id="Oval" fill="#FFFFFF" opacity="0.6" cx="14" cy="14" r="14"></circle>
            <circle id="Oval" fill="#717065" cx="14" cy="14" r="13"></circle>
            <path d="M21.3333333,10.3333333 L20.3773333,10.3333333 L18.5713333,7.32333333 C18.4753333,7.16466667 18.318,7.052 18.136,7.014 C17.9553333,6.97666667 17.764,7.01666667 17.6126667,7.124 L13.12,10.3333333 L15.414,10.3333333 L17.8,8.62933333 L18.8226667,10.3333333 L16,10.3333333 L16,11.6666667 L20.6666667,11.6666667 L20.6666667,17 L12.6666667,17 L12.6666667,15.6666667 L11.3333333,15.6666667 L11.3333333,17.6666667 C11.3333333,18.0353333 11.632,18.3333333 12,18.3333333 L16.588,18.3333333 L16.4386667,18.632 C16.3253333,18.8593333 16.0973333,19 15.8433333,19 L11.6093333,19 L10,17.3906667 L10,13.9433333 L11.6093333,12.3333333 L14,12.3333333 L14,13 C14,13.3673333 13.7013333,13.6666667 13.3333333,13.6666667 L12,13.6666667 L12,15 L13.3333333,15 C14.436,15 15.3333333,14.1026667 15.3333333,13 L15.3333333,11.6666667 C15.3333333,11.2986667 15.0353333,11 14.6666667,11 L11.3333333,11 C11.1566667,11 10.9866667,11.0693333 10.862,11.196 L9.64,12.4173333 C9.54666667,12.3686667 9.446,12.3333333 9.33333333,12.3333333 L6.66666667,12.3333333 C6.29866667,12.3333333 6,12.632 6,13 L6,18.3333333 C6,18.702 6.29866667,19 6.66666667,19 L9.33333333,19 C9.446,19 9.54666667,18.9653333 9.64,18.916 L10.862,20.1386667 C10.9866667,20.2626667 11.1566667,20.3333333 11.3333333,20.3333333 L15.8433333,20.3333333 C16.606,20.3333333 17.2913333,19.91 17.632,19.2273333 L18.0786667,18.3333333 L21.3333333,18.3333333 C21.702,18.3333333 22,18.0353333 22,17.6666667 L22,11 C22,10.632 21.702,10.3333333 21.3333333,10.3333333 Z M8.66666667,17.6666667 L7.33333333,17.6666667 L7.33333333,13.6666667 L8.66666667,13.6666667 L8.66666667,17.6666667 Z" id="Shape" fill="#FFFFFF"></path>
        </g>
    </g>
</svg>