<svg height="28" viewBox="0 0 28 28" width="28"><g fill="none" fill-rule="evenodd"><circle cx="14" cy="14" fill="#fff" opacity=".6" r="14"/><circle cx="14" cy="14" fill="#717065" r="13"/><path d="m17.574247 6c-.6427347 0-1.2754268.26333898-1.7574778.68468134.482051.3370739.9590807.73734915 1.2804481 1.15869151l.2259615-.23700508h.6527774v3.02839823c0 .4213424-.0702991.8426848-.1506409 1.2640271 1.4461532-.1685369 2.5608963-1.432564 2.5608963-2.94939654 0-1.60110099-1.2854695-2.94939656-2.8119646-2.94939656zm-4.0170922.84268473c-2.0085461 0-3.61538304 1.68536947-3.61538304 3.79208127 0 2.1067119 1.60683694 3.7920813 3.61538304 3.7920813s3.615383-1.6853694 3.615383-3.7920813c0-2.1067118-1.6068369-3.79208127-3.615383-3.79208127zm-.2510683 2.02771014h.9038458v3.44974063h-.1004273-1.1047004v-2.2647152h-.8034185zm3.8915581 5.55645243c-.3954329.0592509-.838568.3054732-1.3808754.6846814-.4820511.3370739-1.4511746.9216864-1.5315165.9216864.0803419.0842685.4770298.0790017.4770298.0790017h.0753204c.8837603 0 1.5315164.763683 1.5315164 1.6063678v.1580033c0 .9269532-.7280979 1.6063678-1.5315164 1.6063678h-1.6821573c-1.4461533 0-2.8119646-1.5273661-2.8119646-1.5273661s1.6871787.6846814 2.8119646.6846814h1.6068369c.482051 0 .8034184-.4213424.8034184-.8426848 0-.4213423-.3263887-.8426847-.728098-.8426847-1.526495-.1685369-2.159187-.8426847-2.159187-.8426847s-1.3758541-1.0902234-1.8579052-1.3430288c-1.68717875-1.0112217-4.8205107 1.0796898-4.8205107 1.0796898l2.0838666 4.8191033s1.06452944-.668881 2.5106827-.0790017c.9641021.4213424 1.5214736.7426159 2.4855758 1.0796898 1.3658113.5056109 1.8528838.4371427 2.7366441-.237005.8034184-.5898794 4.659827-3.7920813 5.2222199-4.2134237.8034184-.7584163 1.2051276-1.3640959.8034184-1.8697068-.1606837-.1685369-.4217947-.3370738-.9038457-.4213423-.4820511-.0842685-3.0429474-.4160756-3.3643148-.5003441-.1205127-.0210671-.2447919-.0197508-.3766024 0z" fill="#fff" fill-rule="nonzero"/></g></svg>