<svg height="24" viewBox="0 0 24 24" width="24"><g fill="none" fill-rule="evenodd"><circle cx="12" cy="12" fill="#fff" opacity=".6" r="12"/><circle cx="12" cy="12" fill="#717065" r="11"/><path d="m15.1274661 5c-.5623929 0-1.1159984.23042161-1.5377931.59909618.4217947.29493965.8391957.64518049 1.1203922 1.01385506l.1977162-.20737944h.5711803v2.64984847c0 .36867457-.0615117.73734914-.1318108 1.10602373 1.265384-.1474698 2.2407842-1.25349356 2.2407842-2.58072201 0-1.40096337-1.1247858-2.58072199-2.460469-2.58072199zm-3.5149557.73734914c-1.75747782 0-3.16346011 1.47469828-3.16346011 3.31807113 0 1.84337283 1.40598229 3.31807113 3.16346011 3.31807113 1.7574779 0 3.1634602-1.4746983 3.1634602-3.31807113 0-1.84337285-1.4059823-3.31807113-3.1634602-3.31807113zm-.2196847 1.77424637h.790865v3.01852309h-.0878739-.9666128v-1.98162586h-.7029911zm3.4051133 4.86189589c-.3460038.0518445-.733747.2672891-1.208266.5990962-.4217947.2949396-1.2697777.8064756-1.3400768.8064756.0702991.0737349.4174009.0691265.4174009.0691265h.0659055c.7732902 0 1.3400768.6682226 1.3400768 1.4055718v.1382529c0 .8110841-.6370857 1.4055718-1.3400768 1.4055718h-1.4718877c-1.2653841 0-2.46046904-1.3364453-2.46046904-1.3364453s1.47628144.5990962 2.46046904.5990962h1.4059822c.4217947 0 .7029912-.3686746.7029912-.7373491 0-.3686746-.2855902-.7373492-.6370857-.7373492-1.3356832-.1474698-1.8892887-.7373491-1.8892887-.7373491s-1.20387236-.9539455-1.62566705-1.1751502c-1.4762814-.884819-4.21794685.9447286-4.21794685.9447286l1.82338327 4.2167154s.93146327-.5852709 2.19684732-.0691265c.84358937.3686746 1.33128951.6497889 2.17487881.9447286 1.195085.4424095 1.6212734.3824998 2.3945636-.2073795.7029912-.5161444 4.0773486-3.3180711 4.5694424-3.6867457.7029912-.6636142 1.0544868-1.1935839.7029912-1.6359934-.1405982-.1474698-.3690704-.2949396-.7908651-.3686745-.4217946-.073735-2.6625789-.3640662-2.9437754-.4378011-.1054486-.0184337-.2141929-.017282-.3295271 0z" fill="#fff" fill-rule="nonzero"/></g></svg>