<svg width="16" height="16" viewBox="0 0 16 16">
  <g fill="none" fill-rule="evenodd">
    <circle cx="8" cy="8" r="8" fill="#FFF" opacity=".6"/>
    <circle cx="8" cy="8" r="7" fill="#717065"/>
    <path fill="#FFF" d="M4,5.77777778 L8,4 L12,5.77777778 L12,6.66666667 L11.1111111,6.66666667 L11.1111111,11.1111111 L12,11.1111111 L12,12 L4,12 L4,11.1111111 L4.88888889,11.1111111 L4.88888889,6.66666667 L4,6.66666667 L4,5.77777778 Z M9.33333333,8.74139888 C9.33333333,8.12735081 8.73362963,7.62979417 7.99881481,7.62979417 C7.75466667,7.62979417 7.55318519,7.46394195 7.55318519,7.25860112 C7.55318519,7.05326028 7.7522963,6.88740807 7.99881481,6.88740807 C8.24533333,6.88740807 8.44444444,7.05523471 8.44444444,7.25860112 L9.33333333,7.25860112 C9.33333333,6.77683992 8.96118519,6.37010711 8.44444444,6.21610149 L8.44444444,5.77777778 L7.55555556,5.77777778 L7.55555556,6.21610149 C7.03881481,6.37010711 6.66666667,6.77683992 6.66666667,7.25860112 C6.66666667,7.87264919 7.26637037,8.37020583 8.00118519,8.37020583 C8.2477037,8.37020583 8.44681481,8.53605805 8.44681481,8.74139888 C8.44681481,8.94673972 8.2477037,9.11259193 8.00118519,9.11259193 C7.75466667,9.11259193 7.55555556,8.94476529 7.55555556,8.74139888 L6.66666667,8.74139888 C6.66666667,9.22316008 7.03881481,9.62989289 7.55555556,9.78389851 L7.55555556,10.2222222 L8.44444444,10.2222222 L8.44444444,9.78389851 C8.96118519,9.62989289 9.33333333,9.22316008 9.33333333,8.74139888 Z"/>
  </g>
</svg>
