<?xml version="1.0" encoding="UTF-8"?>
<svg width="24px" height="24px" viewBox="0 0 24 24" version="1.1" xmlns="http://www.w3.org/2000/svg" xmlns:xlink="http://www.w3.org/1999/xlink">
    <title>banknote-m</title>
    <g id="Page-1" stroke="none" stroke-width="1" fill="none" fill-rule="evenodd">
        <g id="banknote-m" fill-rule="nonzero">
            <circle id="Oval" fill="#FFFFFF" opacity="0.6" cx="12" cy="12" r="12"></circle>
            <circle id="Oval" fill="#717065" cx="12" cy="12" r="11.1428571"></circle>
            <path d="M18.2857143,8.85714286 L17.4662857,8.85714286 L15.9182857,6.27714286 C15.836,6.14114286 15.7011429,6.04457143 15.5451429,6.012 C15.3902857,5.98 15.2262857,6.01428571 15.0965714,6.10628571 L11.2457143,8.85714286 L13.212,8.85714286 L15.2571429,7.39657143 L16.1337143,8.85714286 L13.7142857,8.85714286 L13.7142857,10 L17.7142857,10 L17.7142857,14.5714286 L10.8571429,14.5714286 L10.8571429,13.4285714 L9.71428571,13.4285714 L9.71428571,15.1428571 C9.71428571,15.4588571 9.97028571,15.7142857 10.2857143,15.7142857 L14.2182857,15.7142857 L14.0902857,15.9702857 C13.9931429,16.1651429 13.7977143,16.2857143 13.58,16.2857143 L9.95085714,16.2857143 L8.57142857,14.9062857 L8.57142857,11.9514286 L9.95085714,10.5714286 L12,10.5714286 L12,11.1428571 C12,11.4577143 11.744,11.7142857 11.4285714,11.7142857 L10.2857143,11.7142857 L10.2857143,12.8571429 L11.4285714,12.8571429 C12.3737143,12.8571429 13.1428571,12.088 13.1428571,11.1428571 L13.1428571,10 C13.1428571,9.68457143 12.8874286,9.42857143 12.5714286,9.42857143 L9.71428571,9.42857143 C9.56285714,9.42857143 9.41714286,9.488 9.31028571,9.59657143 L8.26285714,10.6434286 C8.18285714,10.6017143 8.09657143,10.5714286 8,10.5714286 L5.71428571,10.5714286 C5.39885714,10.5714286 5.14285714,10.8274286 5.14285714,11.1428571 L5.14285714,15.7142857 C5.14285714,16.0302857 5.39885714,16.2857143 5.71428571,16.2857143 L8,16.2857143 C8.09657143,16.2857143 8.18285714,16.256 8.26285714,16.2137143 L9.31028571,17.2617143 C9.41714286,17.368 9.56285714,17.4285714 9.71428571,17.4285714 L13.58,17.4285714 C14.2337143,17.4285714 14.8211429,17.0657143 15.1131429,16.4805714 L15.496,15.7142857 L18.2857143,15.7142857 C18.6017143,15.7142857 18.8571429,15.4588571 18.8571429,15.1428571 L18.8571429,9.42857143 C18.8571429,9.11314286 18.6017143,8.85714286 18.2857143,8.85714286 Z M7.42857143,15.1428571 L6.28571429,15.1428571 L6.28571429,11.7142857 L7.42857143,11.7142857 L7.42857143,15.1428571 Z" id="Shape" fill="#FFFFFF"></path>
        </g>
    </g>
</svg>