<svg version="1.1" viewBox="0 0 28 28" xmlns="http://www.w3.org/2000/svg">
 <title>banknote-l</title>
 <g fill="none" fill-rule="evenodd">
  <g id="banknote-l" fill-rule="nonzero">
   <circle id="Oval" cx="14" cy="14" r="14" fill="#fff" opacity=".6"/>
   <circle id="Oval" cx="14" cy="14" r="13" fill="#717065"/>
   <path id="Shape" d="m21.333 10.333h-0.956l-1.806-3.01c-0.096-0.15867-0.25333-0.27133-0.43533-0.30933-0.18067-0.037333-0.372 0.0026667-0.52333 0.11l-4.4927 3.2093h2.294l2.386-1.704 1.0227 1.704h-2.8227v1.3333h4.6667v5.3333h-8v-1.3333h-1.3333v2c0 0.36867 0.29867 0.66667 0.66667 0.66667h4.588l-0.14933 0.29867c-0.11333 0.22733-0.34133 0.368-0.59533 0.368h-4.234l-1.6093-1.6093v-3.4473l1.6093-1.61h2.3907v0.66667c0 0.36733-0.29867 0.66667-0.66667 0.66667h-1.3333v1.3333h1.3333c1.1027 0 2-0.89733 2-2v-1.3333c0-0.368-0.298-0.66667-0.66667-0.66667h-3.3333c-0.17667 0-0.34667 0.069333-0.47133 0.196l-1.222 1.2213c-0.093333-0.048667-0.194-0.084-0.30667-0.084h-2.6667c-0.368 0-0.66667 0.29867-0.66667 0.66667v5.3333c0 0.36867 0.29867 0.66667 0.66667 0.66667h2.6667c0.11267 0 0.21333-0.034667 0.30667-0.084l1.222 1.2227c0.12467 0.124 0.29467 0.19467 0.47133 0.19467h4.51c0.76267 0 1.448-0.42333 1.7887-1.106l0.44667-0.894h3.2547c0.36867 0 0.66667-0.298 0.66667-0.66667v-6.6667c0-0.368-0.298-0.66667-0.66667-0.66667zm-12.667 7.3333h-1.3333v-4h1.3333v4z" fill="#fff"/>
  </g>
 </g>
</svg>
