<?xml version="1.0" encoding="UTF-8"?>
<svg width="27px" height="27px" viewBox="0 0 27 27" version="1.1" xmlns="http://www.w3.org/2000/svg" xmlns:xlink="http://www.w3.org/1999/xlink">
    <!-- Generator: Sketch 39.1 (31720) - http://www.bohemiancoding.com/sketch -->
    <title>bank-l</title>
    <desc>Created with Sketch.</desc>
    <defs></defs>
    <g id="POI-Clear" stroke="none" stroke-width="1" fill="none" fill-rule="evenodd">
        <g id="Artboard-1" transform="translate(-497.000000, -100.000000)">
            <g id="bank-l" transform="translate(497.000000, 100.000000)">
                <circle id="Oval-1-Copy-39" fill-opacity="0.6" fill="#FFFFFF" cx="13.5" cy="13.5" r="13.5"></circle>
                <path d="M13.5,26 C20.4035594,26 26,20.4035594 26,13.5 C26,6.59644063 20.4035594,1 13.5,1 C6.59644063,1 1,6.59644063 1,13.5 C1,20.4035594 6.59644063,26 13.5,26 Z" id="Oval-1-Copy-38" fill="#717065"></path>
                <path d="M6,8.5 L6,10 L8,10 L8,18 L6,18 L6,20 L21,20 L21,18 L19,18 L19,10 L21,10 L21,8.5 L13.5,5 L6,8.5 Z M16,15.0013327 C16,15.9768992 15.3022222,16.8005331 14.3333333,17.1123945 L14.3333333,18 L12.6666667,18 L12.6666667,17.1123945 C11.6977778,16.8005331 11,15.9768992 11,15.0013327 L12.6666667,15.0013327 C12.6666667,15.4131497 13.04,15.7529987 13.5022222,15.7529987 C13.9644444,15.7529987 14.3377778,15.4171479 14.3377778,15.0013327 C14.3377778,14.5855175 13.9644444,14.2496668 13.5022222,14.2496668 C12.1244444,14.2496668 11,13.2421146 11,11.9986673 C11,11.0231008 11.6977778,10.1994669 12.6666667,9.88760551 L12.6666667,9 L14.3333333,9 L14.3333333,9.88760551 C15.3022222,10.1994669 16,11.0231008 16,11.9986673 L14.3333333,11.9986673 C14.3333333,11.5868503 13.96,11.2470013 13.4977778,11.2470013 C13.0355556,11.2470013 12.6622222,11.5828521 12.6622222,11.9986673 C12.6622222,12.4144825 13.04,12.7503332 13.4977778,12.7503332 C14.8755556,12.7503332 16,13.7578854 16,15.0013327 Z" id="Combined-Shape" fill="#FFFFFF"></path>
            </g>
        </g>
    </g>
</svg>