<?xml version="1.0" encoding="UTF-8"?>
<svg width="23px" height="23px" viewBox="0 0 23 23" version="1.1" xmlns="http://www.w3.org/2000/svg" xmlns:xlink="http://www.w3.org/1999/xlink">
    <!-- Generator: Sketch 39.1 (31720) - http://www.bohemiancoding.com/sketch -->
    <title>bank-m</title>
    <desc>Created with Sketch.</desc>
    <defs></defs>
    <g id="POI-Clear" stroke="none" stroke-width="1" fill="none" fill-rule="evenodd">
        <g id="Artboard-1" transform="translate(-534.000000, -102.000000)">
            <g id="bank-2-m" transform="translate(534.000000, 102.000000)">
                <ellipse id="Oval-1-Copy-41" fill-opacity="0.6" fill="#FFFFFF" cx="11.5" cy="11.5" rx="11.5" ry="11.5"></ellipse>
                <ellipse id="Oval-1-Copy-40" fill="#717065" cx="11.5" cy="11.5" rx="10.5" ry="10.5"></ellipse>
                <path d="M5,7 L5,8 L6,8 L6,15.5 L5,15.5 L5,17 L18,17 L18,15.5 L17,15.5 L17,8 L18,8 L18,7 L11.5,4 L5,7 Z M14,12.334518 C14,13.2016881 13.3022222,13.9338072 12.3333333,14.2110173 L12.3333333,15 L10.6666667,15 L10.6666667,14.2110173 C9.69777778,13.9338072 9,13.2016881 9,12.334518 L10.6666667,12.334518 C10.6666667,12.7005775 11.04,13.0026655 11.5022222,13.0026655 C11.9644444,13.0026655 12.3377778,12.7041315 12.3377778,12.334518 C12.3377778,11.9649045 11.9644444,11.6663705 11.5022222,11.6663705 C10.1244444,11.6663705 9,10.7707685 9,9.66548201 C9,8.79831186 9.69777778,8.0661928 10.6666667,7.78898267 L10.6666667,7 L12.3333333,7 L12.3333333,7.78898267 C13.3022222,8.0661928 14,8.79831186 14,9.66548201 L12.3333333,9.66548201 C12.3333333,9.29942248 11.96,8.99733452 11.4977778,8.99733452 C11.0355556,8.99733452 10.6622222,9.2958685 10.6622222,9.66548201 C10.6622222,10.0350955 11.04,10.3336295 11.4977778,10.3336295 C12.8755556,10.3336295 14,11.2292315 14,12.334518 Z" id="Combined-Shape" fill="#FFFFFF"></path>
            </g>
        </g>
    </g>
</svg>