<?xml version="1.0" encoding="UTF-8"?>
<svg width="27px" height="27px" viewBox="0 0 27 27" version="1.1" xmlns="http://www.w3.org/2000/svg" xmlns:xlink="http://www.w3.org/1999/xlink">
    <!-- Generator: Sketch 39.1 (31720) - http://www.bohemiancoding.com/sketch -->
    <title>bar-l</title>
    <desc>Created with Sketch.</desc>
    <defs>
        <circle id="path-1" cx="13.5" cy="13.5" r="12.5"></circle>
    </defs>
    <g id="POI-Clear" stroke="none" stroke-width="1" fill="none" fill-rule="evenodd">
        <g id="Artboard-1" transform="translate(-137.000000, -433.000000)">
            <g id="bar-l" transform="translate(137.000000, 433.000000)">
                <circle id="Oval-1-Copy-39" fill-opacity="0.6" fill="#FFFFFF" cx="13.5" cy="13.5" r="13.5"></circle>
                <g id="Oval-1-Copy-38">
                    <use fill="#AB842F" xlink:href="#path-1"></use>
                    <use fill="#BB9342" xlink:href="#path-1"></use>
                </g>
                <path d="M7,7 C6.5,7 6,7.0006 6,7.25 C6,7.5006 6.34281,7.7979 6.5,8 L13,14.8125 L13,21 L10,22 C9.5,22.1667 9,22.5 9,23 L18,23 C18,22.5 17.5,22.1667 17,22 L14,21 L14,14.8125 L20.5,8 C20.65719,7.7979 21,7.5006 21,7.25 C21,7.0006 20.5,7 20,7 L7,7 Z" id="path15601-4" fill="#FFFFFF"></path>
            </g>
        </g>
    </g>
</svg>