<svg width="24" height="24" viewBox="0 0 24 24">
  <g fill="none" fill-rule="evenodd">
    <circle cx="12" cy="12" r="12" fill="#FFF" opacity=".6"/>
    <circle cx="12" cy="12" r="11" fill="#BB9342"/>
    <path fill="#FFF" fill-rule="nonzero" d="M7.4296875,6 C7.1171875,6.69473684 7,7.50789474 7,8.32894737 C7,11.3003179 8.91937494,13.7835051 11.375,14.1513158 L11.375,16.7368421 L8.875,17.4868421 L8.875,18 L15.125,18 L15.125,17.4868421 L12.625,16.7368421 L12.625,14.1513158 C15.080625,13.7835051 17,11.3003179 17,8.32894737 C17,7.50789474 16.8828125,6.69473684 16.5703125,6 L7.4296875,6 Z M8.3671875,7.26315789 L15.6328125,7.26315789 C15.6953125,7.64210526 15.75,7.95 15.75,8.32894737 C15.75,8.3946228 15.7522581,8.46126676 15.75,8.52631579 L9.5,8.52631579 C9.5,10.6203884 10.2099414,12.0306202 11.0820312,12.7894737 C9.45867206,12.2815295 8.25,10.4684211 8.25,8.32894737 C8.25,7.95 8.3046875,7.64210526 8.3671875,7.26315789 Z"/>
  </g>
</svg>
