<svg width="16" height="16" viewBox="0 0 16 16">
  <g fill="none" fill-rule="evenodd">
    <circle cx="8" cy="8" r="8" fill="#FFF" opacity=".6"/>
    <circle cx="8" cy="8" r="7" fill="#717065"/>
    <path fill="#FFF" d="M4,4 L4,5.33333333 C5.33333333,7.11111111 8.07768,8.52213333 9.77777778,10.2222222 L10.6666667,11.1111111 L10.6666667,12 L11.5555556,12 L12,11.5555556 L12,10.6666667 L11.1111111,10.6666667 L10.2222222,9.77777778 C8.63616889,8.19173333 7.11111111,5.33333333 5.33333333,4 L4,4 Z M5.77777778,8.88888889 C5.28686222,8.88888889 4.88888889,9.28684444 4.88888889,9.77777778 C4.88888889,10.2687111 5.28686222,10.6666667 5.77777778,10.6666667 C6.26869333,10.6666667 6.66666667,10.2687111 6.66666667,9.77777778 C6.66666667,9.28684444 6.26869333,8.88888889 5.77777778,8.88888889 L5.77777778,8.88888889 Z"/>
  </g>
</svg>
