<?xml version="1.0" encoding="UTF-8" standalone="no"?>
<svg width="17px" height="17px" viewBox="0 0 17 17" version="1.1" xmlns="http://www.w3.org/2000/svg" xmlns:xlink="http://www.w3.org/1999/xlink" xmlns:sketch="http://www.bohemiancoding.com/sketch/ns">
    <!-- Generator: Sketch 3.4.2 (15857) - http://www.bohemiancoding.com/sketch -->
    <title>baseball-s</title>
    <desc>Created with Sketch.</desc>
    <defs></defs>
    <g id="POI" stroke="none" stroke-width="1" fill="none" fill-rule="evenodd" sketch:type="MSPage">
        <g id="baseball-s" sketch:type="MSLayerGroup">
            <circle id="Oval-1-Copy-43" fill="#FFFFFF" sketch:type="MSShapeGroup" cx="8.5" cy="8.5" r="8.5"></circle>
            <circle id="Oval-1-Copy-42" fill="#717065" sketch:type="MSShapeGroup" cx="8.5" cy="8.5" r="7.5"></circle>
            <path d="M4,4 L4,5.5 C5.5,7.5 8.58739,9.0874 10.5,11 L11.5,12 L11.5,13 L12.5,13 L13,12.5 L13,11.5 L12,11.5 L11,10.5 C9.21569,8.7157 7.5,5.5 5.5,4 L4,4 Z M6,9.5 C5.44772,9.5 5,9.9477 5,10.5 C5,11.0523 5.44772,11.5 6,11.5 C6.55228,11.5 7,11.0523 7,10.5 C7,9.9477 6.55228,9.5 6,9.5 L6,9.5 Z" id="path20839-copy" fill="#FFFFFF" sketch:type="MSShapeGroup"></path>
        </g>
    </g>
</svg>