<?xml version="1.0" encoding="UTF-8" standalone="no"?>
<svg width="17px" height="17px" viewBox="0 0 17 17" version="1.1" xmlns="http://www.w3.org/2000/svg" xmlns:xlink="http://www.w3.org/1999/xlink">
    <!-- Generator: Sketch 3.8.3 (29802) - http://www.bohemiancoding.com/sketch -->
    <title>baseball-s</title>
    <desc>Created with Sketch.</desc>
    <defs>
        <path d="M4,4 L4,5.5 C5.5,7.5 8.58739,9.0874 10.5,11 L11.5,12 L11.5,13 L12.5,13 L13,12.5 L13,11.5 L12,11.5 L11,10.5 C9.21569,8.7157 7.5,5.5 5.5,4 L4,4 Z M6,9.5 C5.44772,9.5 5,9.9477 5,10.5 C5,11.0523 5.44772,11.5 6,11.5 C6.55228,11.5 7,11.0523 7,10.5 C7,9.9477 6.55228,9.5 6,9.5 L6,9.5 Z" id="path-1"></path>
    </defs>
    <g id="POI-Clear" stroke="none" stroke-width="1" fill="none" fill-rule="evenodd">
        <g id="baseball-s">
            <circle id="Oval-1-Copy-43" fill-opacity="0.6" fill="#FFFFFF" cx="8.5" cy="8.5" r="8.5"></circle>
            <circle id="Oval-1-Copy-42" fill="#717065" cx="8.5" cy="8.5" r="7.5"></circle>
            <g id="path20839-copy" fill="#FFFFFF">
                <use xlink:href="#path-1"></use>
                <use xlink:href="#path-1"></use>
            </g>
        </g>
    </g>
</svg>