<svg width="16" height="16" viewBox="0 0 16 16">
  <g fill="none" fill-rule="evenodd">
    <circle cx="8" cy="8" r="8" fill="#FFF" opacity=".6"/>
    <circle cx="8" cy="8" r="7" fill="#717065"/>
    <path fill="#FFF" d="M6,4 L4,6 L4,9.5 C4,9.72222222 4.22222222,10 4.44444444,10 L5.77777778,10 L6.66666667,11.1111111 L7.55555556,12 L8.44444444,12 L9.33333333,11.1111111 L10.2222222,10 L11.5555556,10 C11.7777778,10 12,9.72222222 12,9.5 L12,6 L10,4 L6,4 Z M10.503418,6 L10.503418,8.54748535 L5.49627686,8.54748535 L5.49627686,6 L10.503418,6 Z M6.5,7.5 L9.5,7.5 L9.5,7 L6.5,7 L6.5,7.5 Z M7.55555556,9.33333333 L7.55555556,10.2222222 L8.44444444,10.2222222 L8.44444444,9.33333333 L9.33333333,9.33333333 L9.33333333,10.2222222 L8.44444444,11.1111111 L7.55555556,11.1111111 L6.66666667,10.2222222 L6.66666667,9.33333333 L7.55555556,9.33333333 Z"/>
  </g>
</svg>
