<svg width="24" height="24" viewBox="0 0 24 24">
  <g fill="none" fill-rule="evenodd">
    <circle cx="12" cy="12" r="12" fill="#FFF" opacity=".6"/>
    <circle cx="12" cy="12" r="11" fill="#717065"/>
    <path fill="#FFF" d="M8.76923077,6 L6,7.84615385 L6,14.3076923 C6,14.7692308 6.46153846,15.2307692 6.92307692,15.2307692 L9.23076923,15.2307692 L11.0769231,18 L12,18 L12.9230769,18 L14.7692308,15.2307692 L17.0769231,15.2307692 C17.5384615,15.2307692 18,14.7692308 18,14.3076923 L18,8.30769231 L15.2307692,6 L8.76923077,6 L8.76923077,6 Z M8.76923077,8.76923077 L15.2307692,8.76923077 L15.2307692,13.3846154 L8.76923077,13.3846154 L8.76923077,8.76923077 L8.76923077,8.76923077 Z M9.69230769,9.69230769 L9.69230769,12.4615385 L14.3076923,12.4615385 L14.3076923,9.69230769 L9.69230769,9.69230769 L9.69230769,9.69230769 Z M10.1538462,15.2307692 L11.5384615,15.2307692 L11.5384615,16.1538462 L12.4615385,16.1538462 L12.4615385,15.2307692 L13.8461538,15.2307692 L13.2115385,16.1538462 L12.4615385,16.1538462 L12.4615385,17.0769231 L11.5384615,17.0769231 L11.5384615,16.1538462 L10.7884615,16.1538462 L10.1538462,15.2307692 L10.1538462,15.2307692 Z"/>
  </g>
</svg>
