<?xml version="1.0" encoding="UTF-8" standalone="no"?>
<svg width="27px" height="27px" viewBox="0 0 27 27" version="1.1" xmlns="http://www.w3.org/2000/svg" xmlns:xlink="http://www.w3.org/1999/xlink">
    <!-- Generator: Sketch 3.8.3 (29802) - http://www.bohemiancoding.com/sketch -->
    <title>basketball-l</title>
    <desc>Created with Sketch.</desc>
    <defs>
        <path d="M9.5,6 L5,10 L5,18 C5,18.5 5.5,19 6,19 L9.5625,19 L11.5,22.5 C11.77778,23 12,23 12.5,23 L14.5,23 C15,23 15.22222,23 15.5,22.5 L17.4375,19 L21,19 C21.5,19 22,18.5 22,18 L22,10 L17.5,6 L9.5,6 L9.5,6 Z M9,10 L18,10 L18,16 L9,16 L9,10 L9,10 Z M10,11 L10,15 L17,15 L17,11 L10,11 L10,11 Z M10.5625,19 L12,19 L12,20 L13,20 L13,19 L14,19 L14,20 L15,20 L15,19 L16.4375,19 L15.875,20 L15,20 L15,21 L15.34375,21 L15,21.625 L15,21 L14,21 L14,22 L13,22 L13,21 L12,21 L12,21.625 L11.65625,21 L12,21 L12,20 L11.125,20 L10.5625,19 L10.5625,19 Z M13,21 L14,21 L14,20 L13,20 L13,21 L13,21 Z" id="path-1"></path>
    </defs>
    <g id="POI-Clear" stroke="none" stroke-width="1" fill="none" fill-rule="evenodd">
        <g id="basketball-l">
            <ellipse id="Oval-1-Copy-39" fill-opacity="0.6" fill="#FFFFFF" cx="13.5" cy="13.5" rx="13.5" ry="13.5"></ellipse>
            <ellipse id="Oval-1-Copy-38" fill="#717065" cx="13.5" cy="13.5" rx="12.5" ry="12.5"></ellipse>
            <g id="rect5769-7-copy" fill="#FFFFFF">
                <use xlink:href="#path-1"></use>
                <use xlink:href="#path-1"></use>
            </g>
        </g>
    </g>
</svg>