<svg version="1.1" viewBox="0 0 24 24" xmlns="http://www.w3.org/2000/svg">
 <title>bbq-m</title>
 <g fill="none" fill-rule="evenodd">
  <g id="bbq-m" fill-rule="nonzero">
   <circle id="Oval" cx="12" cy="12" r="12" fill="#fff" opacity=".6"/>
   <circle id="Oval" cx="12" cy="12" r="11" fill="#717065"/>
   <g id="Group" transform="translate(7 5)" fill="#fff">
    <path id="Shape" d="m8.4 14c1.162 0 2.1-0.938 2.1-2.1s-0.938-2.1-2.1-2.1c-0.91 0-1.68 0.588-1.974 1.4h-3.528l1.393-2.142c0.203 0.028 0.406 0.042 0.609 0.042s0.406-0.014 0.609-0.042l0.714 1.099c0.294-0.371 0.672-0.665 1.12-0.847l-0.42-0.651c1.694-0.77 2.877-2.471 2.877-4.459h-9.8c0 1.988 1.183 3.689 2.884 4.459l-2.765 4.256c-0.21 0.322-0.119 0.756 0.203 0.966s0.756 0.119 0.966-0.203l0.7-1.085h4.438c0.294 0.819 1.064 1.407 1.974 1.407zm0-2.8c0.385 0 0.7 0.315 0.7 0.7s-0.315 0.7-0.7 0.7-0.7-0.315-0.7-0.7 0.315-0.7 0.7-0.7z"/>
    <path id="Path" d="m3.087 3.5h0.7c0.105-0.805 0.161-1.148-0.623-2.072-0.294-0.35-0.476-0.539-0.322-1.428h-0.693c-0.147 0.777 0.021 1.435 0.623 2.072 0.154 0.168 0.553 0.469 0.315 1.428z"/>
    <path id="Path" d="m4.823 3.5h0.7c0.105-0.805 0.161-1.148-0.623-2.072-0.294-0.35-0.476-0.546-0.322-1.428h-0.693c-0.147 0.777 0.021 1.435 0.623 2.072 0.161 0.168 0.56 0.469 0.315 1.428z"/>
    <path id="Path" d="m6.587 3.5h0.7c0.105-0.805 0.161-1.148-0.623-2.072-0.294-0.35-0.476-0.539-0.322-1.428h-0.693c-0.147 0.777 0.021 1.435 0.623 2.072 0.154 0.168 0.553 0.469 0.315 1.428z"/>
   </g>
  </g>
 </g>
</svg>
