<?xml version="1.0" encoding="UTF-8" standalone="no"?>
<svg width="17px" height="17px" viewBox="0 0 17 17" version="1.1" xmlns="http://www.w3.org/2000/svg" xmlns:xlink="http://www.w3.org/1999/xlink">
    <!-- Generator: Sketch 3.8.3 (29802) - http://www.bohemiancoding.com/sketch -->
    <title>bbq-s</title>
    <desc>Created with Sketch.</desc>
    <defs>
        <path d="M11.956,8.685 L5,8.685 C5,9.564 5.515,10.338 6.303,10.851 L5.228,13.482 L6.228,13.482 L7.134,11.265 C7.548,11.404 8.001,11.482 8.478,11.482 C8.955,11.482 9.408,11.404 9.822,11.265 L10.728,13.482 L11.728,13.482 L10.653,10.851 C11.441,10.338 11.956,9.564 11.956,8.685 L11.956,8.685 Z M9.198,7.454 C10.912,6.482 9.186,4.918 9.498,4 C8.35,5.152 9.776,6.851 9.198,7.454 L9.198,7.454 Z M7.297,7.454 C9.011,6.779 7.285,5.691 7.597,5.053 C6.45,5.854 7.876,7.035 7.297,7.454 L7.297,7.454 Z" id="path-1"></path>
    </defs>
    <g id="POI-Clear" stroke="none" stroke-width="1" fill="none" fill-rule="evenodd">
        <g id="bbq-s">
            <path d="M8.5,17 C3.813,17 0,13.188 0,8.5 C0,3.812 3.813,0 8.5,0 C13.187,0 17,3.812 17,8.5 C17,13.188 13.187,17 8.5,17 L8.5,17 Z" id="Shape" fill-opacity="0.6" fill="#FFFFFF"></path>
            <ellipse id="Oval" fill="#717065" cx="8.5" cy="8.5" rx="7.5" ry="7.5"></ellipse>
            <g id="Shape" fill="#FFFFFF">
                <use xlink:href="#path-1"></use>
                <use xlink:href="#path-1"></use>
            </g>
        </g>
    </g>
</svg>