<?xml version="1.0" encoding="UTF-8"?>
<svg width="24px" height="24px" viewBox="0 0 24 24" version="1.1" xmlns="http://www.w3.org/2000/svg" xmlns:xlink="http://www.w3.org/1999/xlink">
    <title>bbq-m</title>
    <g id="Page-1" stroke="none" stroke-width="1" fill="none" fill-rule="evenodd">
        <g id="bbq-m" fill-rule="nonzero">
            <circle id="Oval" fill="#FFFFFF" opacity="0.6" cx="12" cy="12" r="12"></circle>
            <circle id="Oval" fill="#717065" cx="12" cy="12" r="11"></circle>
            <g id="Group" transform="translate(7.000000, 5.000000)" fill="#FFFFFF">
                <path d="M8.4,14 C9.562,14 10.5,13.062 10.5,11.9 C10.5,10.738 9.562,9.8 8.4,9.8 C7.49,9.8 6.72,10.388 6.426,11.2 L2.898,11.2 L4.291,9.058 C4.494,9.086 4.697,9.1 4.9,9.1 C5.103,9.1 5.306,9.086 5.509,9.058 L6.223,10.157 C6.517,9.786 6.895,9.492 7.343,9.31 L6.923,8.659 C8.617,7.889 9.8,6.188 9.8,4.2 L0,4.2 C0,6.188 1.183,7.889 2.884,8.659 L0.119,12.915 C-0.091,13.237 0,13.671 0.322,13.881 L0.322,13.881 C0.644,14.091 1.078,14 1.288,13.678 L1.988,12.593 L6.426,12.593 C6.72,13.412 7.49,14 8.4,14 Z M8.4,11.2 C8.785,11.2 9.1,11.515 9.1,11.9 C9.1,12.285 8.785,12.6 8.4,12.6 C8.015,12.6 7.7,12.285 7.7,11.9 C7.7,11.515 8.015,11.2 8.4,11.2 Z" id="Shape"></path>
                <path d="M3.087,3.5 L3.787,3.5 C3.892,2.695 3.948,2.352 3.164,1.428 C2.87,1.078 2.688,0.889 2.842,0 L2.149,0 C2.002,0.777 2.17,1.435 2.772,2.072 C2.926,2.24 3.325,2.541 3.087,3.5 Z" id="Path"></path>
                <path d="M4.823,3.5 L5.523,3.5 C5.628,2.695 5.684,2.352 4.9,1.428 C4.606,1.078 4.424,0.882 4.578,0 L3.885,0 C3.738,0.777 3.906,1.435 4.508,2.072 C4.669,2.24 5.068,2.541 4.823,3.5 Z" id="Path"></path>
                <path d="M6.587,3.5 L7.287,3.5 C7.392,2.695 7.448,2.352 6.664,1.428 C6.37,1.078 6.188,0.889 6.342,0 L5.649,0 C5.502,0.777 5.67,1.435 6.272,2.072 C6.426,2.24 6.825,2.541 6.587,3.5 Z" id="Path"></path>
            </g>
        </g>
    </g>
</svg>