<svg width="16" height="16" viewBox="0 0 16 16">
  <g fill="none" fill-rule="evenodd">
    <circle cx="8" cy="8" r="8" fill="#FFF" opacity=".6"/>
    <circle cx="8" cy="8" r="7" fill="#717065"/>
    <path fill="#FFF" d="M5,6.95275258 C5,7.69436828 5.44422082,8.34739506 6.12392179,8.78021514 L5.19666475,11 L6.05922944,11 L6.84071305,9.12950854 C7.19781484,9.24678338 7.58855664,9.31259228 8,9.31259228 C8.41144336,9.31259228 8.80218516,9.24678338 9.15928695,9.12950854 L9.94077056,11 L10.8033353,11 L9.87607821,8.78021514 C10.5557792,8.34739506 11,7.69436828 11,6.95275258 L5,6.95275258 Z M8.87981599,3 C7.88959172,3.97194685 9.11960897,5.4053997 8.62104658,5.91415313 C10.0994825,5.09407298 8.6106958,3.77452014 8.87981599,3 Z M7.24008051,3.88842016 C6.2507188,4.56422696 7.48073606,5.56064121 6.9813111,5.91415313 C8.45974698,5.34465303 6.97096032,4.42670323 7.24008051,3.88842016 Z"/>
  </g>
</svg>
