<svg width="28" height="28" viewBox="0 0 28 28">
  <g fill="none" fill-rule="evenodd">
    <circle cx="14" cy="14" r="14" fill="#FFF" opacity=".6"/>
    <circle cx="14" cy="14" r="13" fill="#717065"/>
    <path fill="#FFF" d="M17.1111111,22.0526316 L18,23 L10,23 L10.8888889,22.0526316 L10.8888889,7.84210526 L17.1111111,7.84210526 L17.1111111,22.0526316 Z M11.7777778,8.78947368 L11.7777778,22.0526316 L16.2222222,22.0526316 L16.2222222,8.78947368 L11.7777778,8.78947368 Z M14,5 L17.1111111,7.84210526 L10.8888889,7.84210526 L14,5 Z M11.7777778,10.6842105 L14,9.73684211 L16.2222222,10.6842105 L16.2222222,12.5789474 L14,11.6315789 L11.7777778,12.5789474 L11.7777778,10.6842105 Z M11.7777778,14.4736842 L14,13.5263158 L16.2222222,14.4736842 L16.2222222,16.3684211 L14,15.4210526 L11.7777778,16.3684211 L11.7777778,14.4736842 Z M11.7777778,18.2631579 L14,17.3157895 L16.2222222,18.2631579 L16.2222222,20.1578947 L14,19.2105263 L11.7777778,20.1578947 L11.7777778,18.2631579 Z M11.7777778,22.0526316 L14,21.1052632 L16.2222222,22.0526316 L11.7777778,22.0526316 Z"/>
  </g>
</svg>
