<?xml version="1.0" encoding="UTF-8" standalone="no"?>
<svg width="23px" height="24px" viewBox="0 0 23 24" version="1.1" xmlns="http://www.w3.org/2000/svg" xmlns:xlink="http://www.w3.org/1999/xlink" xmlns:sketch="http://www.bohemiancoding.com/sketch/ns">
    <!-- Generator: Sketch 3.4.2 (15857) - http://www.bohemiancoding.com/sketch -->
    <title>bcontrol-m</title>
    <desc>Created with Sketch.</desc>
    <defs></defs>
    <g id="POI" stroke="none" stroke-width="1" fill="none" fill-rule="evenodd" sketch:type="MSPage">
        <ellipse id="Oval-1-Copy-41" fill="#FFFFFF" sketch:type="MSShapeGroup" cx="11.5" cy="11.519" rx="11.5" ry="11.5"></ellipse>
        <ellipse id="Oval-1-Copy-40" fill="#717065" sketch:type="MSShapeGroup" cx="11.5" cy="11.519" rx="10.5" ry="10.5"></ellipse>
        <g id="Rectangle-22-+-Group" sketch:type="MSLayerGroup" transform="translate(3.000000, 4.019000)">
            <path d="M10,1 L10,0 L7,0 L7,4 L2.81231689,4 L2,4 L0.983093262,5 L2,6 L7,6 L7,15 L10,15 L10,9 L14,9 L15.0058594,8 L14,7 L10,7 L10,3 L14,3 L15.0452881,2 L14,1 L10,1 Z" id="Rectangle-22" fill="#FFFFFF" sketch:type="MSShapeGroup"></path>
            <g id="Group" transform="translate(7.000000, 1.000000)" stroke-linecap="square" sketch:type="MSShapeGroup">
                <path d="M1.5,0.5 L1.5,12.5" id="Line" stroke="#807D54"></path>
                <path d="M0.5,8.5 L2.5,8.5" id="Line-Copy" stroke="#FFFFFF"></path>
                <path d="M0.5,5.5 L2.5,5.5" id="Line-Copy-2" stroke="#FFFFFF"></path>
                <path d="M0.5,2.5 L2.5,2.5" id="Line-Copy-3" stroke="#FFFFFF"></path>
                <path d="M0.5,2.5 L2.5,2.5" id="Line-Copy-4" stroke="#FFFFFF"></path>
            </g>
        </g>
    </g>
</svg>