<?xml version="1.0" encoding="UTF-8" standalone="no"?>
<svg width="27px" height="27px" viewBox="0 0 27 27" version="1.1" xmlns="http://www.w3.org/2000/svg" xmlns:xlink="http://www.w3.org/1999/xlink">
    <!-- Generator: Sketch 3.8.3 (29802) - http://www.bohemiancoding.com/sketch -->
    <title>bcontrol-l</title>
    <desc>Created with Sketch.</desc>
    <defs></defs>
    <g id="POI-Clear" stroke="none" stroke-width="1" fill="none" fill-rule="evenodd">
        <g id="bcontrol-l">
            <circle id="Oval-1-Copy-39" fill-opacity="0.6" fill="#FFFFFF" cx="13.5" cy="13.5" r="13.5"></circle>
            <ellipse id="Oval-1-Copy-38" fill="#717065" cx="13.5" cy="13.5" rx="12.5" ry="12.5"></ellipse>
            <path d="M10,7 L17,7 L17,23 L10,23 L10,7 Z M11,8 L16,8 L16,22 L11,22 L11,8 Z M13.5,4 L17,7 L10,7 L13.5,4 Z M11,10 L13.5,9 L16,10 L16,12 L13.5,11 L11,12 L11,10 Z M11,14 L13.5,13 L16,14 L16,16 L13.5,15 L11,16 L11,14 Z M11,18 L13.5,17 L16,18 L16,20 L13.5,19 L11,20 L11,18 Z M11,22 L13.5,21 L16,22 L11,22 Z" id="Combined-Shape" fill="#FFFFFF"></path>
            <polygon id="Rectangle-408" fill="#FFFFFF" points="10 22 17 22 18 23 9 23"></polygon>
        </g>
    </g>
</svg>