<svg version="1.1" viewBox="0 0 24 24" xmlns="http://www.w3.org/2000/svg">
 <title>bcontrol-m</title>
 <g fill="none" fill-rule="evenodd">
  <g id="bcontrol-m" fill-rule="nonzero">
   <circle id="Oval" cx="12" cy="12" r="12" fill="#fff" opacity=".6"/>
   <circle id="Oval" cx="12" cy="12" r="11" fill="#717065"/>
   <path id="Shape" d="m10.286 17.133v0.93333h3.4286v-11.2h-3.4286v10.267 0.93333l1.7143-0.93333 1.7143 0.93333v-1.8667l-1.7143-0.93333-1.7143 0.93333v0.93333zm4.5714 0.93333 1.1429 0.93333h-8l1.1429-0.93333v-11.2l2.8571-1.8667 2.8571 1.8667v11.2zm-4.5714-9.3333 1.7143-0.93333 1.7143 0.93333v1.8667l-1.7143-0.93333-1.7143 0.93333v-1.8667zm0 3.7333 1.7143-0.93333 1.7143 0.93333v1.8667l-1.7143-0.93333-1.7143 0.93333v-1.8667z" fill="#fff"/>
  </g>
 </g>
</svg>
