<?xml version="1.0" encoding="UTF-8" standalone="no"?>
<svg width="23px" height="23px" viewBox="0 0 23 23" version="1.1" xmlns="http://www.w3.org/2000/svg" xmlns:xlink="http://www.w3.org/1999/xlink">
    <!-- Generator: Sketch 3.8.3 (29802) - http://www.bohemiancoding.com/sketch -->
    <title>bcontrol-m</title>
    <desc>Created with Sketch.</desc>
    <defs></defs>
    <g id="POI-Clear" stroke="none" stroke-width="1" fill="none" fill-rule="evenodd">
        <g id="bcontrol-m">
            <ellipse id="Oval-1-Copy-41" fill-opacity="0.6" fill="#FFFFFF" cx="11.5" cy="11.5" rx="11.5" ry="11.5"></ellipse>
            <ellipse id="Oval-1-Copy-40" fill="#717065" cx="11.5" cy="11.5" rx="10.5" ry="10.5"></ellipse>
            <path d="M14,18 L15,19 L8,19 L9,18 L9,6 L14,6 L14,18 Z M11.5,4 L14,6 L9,6 L11.5,4 Z M10,6 L13,6 L13,18 L10,18 L10,6 Z M10,8 L11.5,7 L13,8 L13,10 L11.5,9 L10,10 L10,8 Z M10,12 L11.5,11 L13,12 L13,14 L11.5,13 L10,14 L10,12 Z M10,16 L11.5,15 L13,16 L13,18 L11.5,17 L10,18 L10,16 Z" id="Combined-Shape" fill="#FFFFFF"></path>
        </g>
    </g>
</svg>