<svg height="24" viewBox="0 0 24 24" width="24"><g fill="none" fill-rule="evenodd"><circle cx="12" cy="12" fill="#fff" opacity=".6" r="12"/><circle cx="12" cy="12" fill="#8c5f93" r="11"/><path d="m12.4545455 9.66666667v8.40000003c0 .5152.4072727.9333333.9090909.9333333h2.7272727c.5027273 0 .9090909-.4181333.9090909-.9333333v-8.40000003zm-2.72727277 0h.90909087v-.93333334h-.90909087v-.93333333h.90909087v-.93333333h-.90909087v-.93333334h.90909087v-.93333333h-2.72727269v.93333333h.90909091v.93333334h-.90909091v.93333333h.90909091v.93333333h-.90909091v.93333334h.90909091v3.73333333h-1.81818182v4.6666667c0 .5152.40636364.9333333.90909091.9333333h2.72727269c.5018182 0 .9090909-.4181333.9090909-.9333333v-4.6666667h-1.81818177z" fill="#fff"/></g></svg>