<svg version="1.1" viewBox="0 0 24 24" xmlns="http://www.w3.org/2000/svg">
 <title>beauty-m</title>
 <g fill="none" fill-rule="evenodd">
  <g id="beauty-m" fill-rule="nonzero">
   <circle id="Oval" cx="12" cy="12" r="12" fill="#fff" opacity=".6"/>
   <circle id="Oval" cx="12" cy="12" r="11" fill="#8C5F93"/>
   <path id="Shape" d="m14.6 12.7v-6.9998c0-0.25199-0.1358-0.48439-0.35489-0.60898-0.21909-0.1246-0.48859-0.1218-0.70488 0.0083998l-3.4999 2.0999c-0.21139 0.1267-0.34019 0.35489-0.34019 0.60058v4.8999h-0.69998v4.8999c0 0.77208 0.62788 1.4 1.4 1.4h3.4999c0.77208 0 1.4-0.62788 1.4-1.4v-4.8999h-0.69998zm-4.1999 1.4h3.4999v1.4h-3.4999v-1.4zm0.69998-5.9036 2.0999-1.26v5.7636h-2.0999v-4.5037zm-0.69998 9.4035v-0.69998h3.5006v0.69998h-3.5006z" fill="#fff"/>
  </g>
 </g>
</svg>
