<svg width="28" height="28" viewBox="0 0 28 28">
  <g fill="none" fill-rule="evenodd">
    <circle cx="14" cy="14" r="14" fill="#FFF" opacity=".6"/>
    <circle cx="14" cy="14" r="13" fill="#8C5F93"/>
    <path fill="#FFF" d="M14.5454545,9.55555556 L14.5454545,21.1111111 C14.5454545,21.6017778 15.0341818,22 15.6363636,22 L18.9090909,22 C19.5123636,22 20,21.6017778 20,21.1111111 L20,9.55555556 L14.5454545,9.55555556 L14.5454545,9.55555556 Z M11.2727273,10.4444444 L12.3636364,10.4444444 L12.3636364,9.55555556 L11.2727273,9.55555556 L11.2727273,8.66666667 L12.3636364,8.66666667 L12.3636364,7.77777778 L11.2727273,7.77777778 L11.2727273,6.88888889 L12.3636364,6.88888889 L12.3636364,6 L9.09090909,6 L9.09090909,6.88888889 L10.1818182,6.88888889 L10.1818182,7.77777778 L9.09090909,7.77777778 L9.09090909,8.66666667 L10.1818182,8.66666667 L10.1818182,9.55555556 L9.09090909,9.55555556 L9.09090909,10.4444444 L10.1818182,10.4444444 L10.1818182,15.7777778 L8,15.7777778 L8,21.1111111 C8,21.6017778 8.48763636,22 9.09090909,22 L12.3636364,22 C12.9658182,22 13.4545455,21.6017778 13.4545455,21.1111111 L13.4545455,15.7777778 L11.2727273,15.7777778 L11.2727273,10.4444444 L11.2727273,10.4444444 Z"/>
  </g>
</svg>
