<?xml version="1.0" encoding="UTF-8"?>
<svg width="24px" height="24px" viewBox="0 0 24 24" version="1.1" xmlns="http://www.w3.org/2000/svg" xmlns:xlink="http://www.w3.org/1999/xlink">
    <title>beauty-m</title>
    <g id="Page-1" stroke="none" stroke-width="1" fill="none" fill-rule="evenodd">
        <g id="beauty-m" fill-rule="nonzero">
            <circle id="Oval" fill="#FFFFFF" opacity="0.6" cx="12" cy="12" r="12"></circle>
            <circle id="Oval" fill="#8C5F93" cx="12" cy="12" r="11"></circle>
            <path d="M14.5998415,12.7001783 L14.5998415,5.70037634 C14.5998415,5.44838347 14.4640454,5.21599004 14.2449516,5.09139357 C14.0258578,4.96679709 13.7563654,4.96959701 13.5400715,5.09979333 L10.0401706,7.19973391 C9.82877655,7.32643032 9.69998019,7.55462387 9.69998019,7.80031691 L9.69998019,12.7001783 L9,12.7001783 L9,17.6000396 C9,18.3721178 9.62788223,19 10.3999604,19 L13.8998614,19 C14.6719395,19 15.2998217,18.3721178 15.2998217,17.6000396 L15.2998217,12.7001783 L14.5998415,12.7001783 Z M10.3999604,14.1001386 L13.8998614,14.1001386 L13.8998614,14.1001386 L13.8998614,15.500099 L10.3999604,15.500099 L10.3999604,14.1001386 Z M11.0999406,8.1965057 L13.1998812,6.93654136 L13.1998812,12.7001783 L11.0999406,12.7001783 L11.0999406,8.1965057 Z M10.3999604,17.6000396 L10.3999604,16.9000594 L13.9005613,16.9000594 L13.9005613,17.6000396 L10.3999604,17.6000396 Z" id="Shape" fill="#FFFFFF"></path>
        </g>
    </g>
</svg>