<svg width="16" height="16" viewBox="0 0 16 16">
  <g fill="none" fill-rule="evenodd">
    <circle cx="8" cy="8" r="8" fill="#FFF" opacity=".6"/>
    <circle cx="8" cy="8" r="7" fill="#BB9342"/>
    <path fill="#FFF" fill-rule="nonzero" d="M7.67333333,4 C7.16527124,4 6.77355471,4.27703804 6.47166667,4.6375 C6.28313875,4.5075064 6.07353161,4.4 5.80666667,4.4 C5.08844445,4.4 4.5,5.0304762 4.5,5.8 C4.5,5.8777224 4.5258322,6.03634248 4.58166667,6.1625 C4.53673201,6.22844888 4.5,6.30174496 4.5,6.4 L4.5,10.4 C4.5,11.28 5.172,12 5.99333333,12 L9.35333333,12 C10.1746667,12 10.8466667,11.28 10.8466667,10.4 L10.8466667,9.9375 C11.4905024,9.7596852 12.5,9.1454996 12.5,8.4 L12.5,7.2 C12.5,6.99111112 12.4307582,6.7758122 12.29,6.625 C12.1492418,6.4741878 11.9482962,6.4 11.7533333,6.4 L10.8466667,6.4 C10.8466667,6.30174496 10.8099348,6.22844888 10.765,6.1625 C10.8208342,6.03634248 10.8466667,5.8777224 10.8466667,5.8 C10.8466667,5.0304762 10.2582224,4.4 9.54,4.4 C9.27313499,4.4 9.06352811,4.5075064 8.875,4.6375 C8.57311184,4.27703804 8.18139557,4 7.67333333,4 Z M7.67333333,4.8 C8.05377792,4.8 8.33308203,5.0188516 8.50166667,5.35 C8.55845481,5.46138691 8.66120752,5.53729188 8.77856736,5.55455068 C8.89592721,5.57180948 9.01396796,5.52837414 9.09666667,5.4375 C9.24813509,5.27521236 9.36577765,5.2 9.54,5.2 C9.86711093,5.2 10.1,5.4495238 10.1,5.8 C10.1,5.84 10.0981162,5.83278716 10.1,5.825 C10.0680046,5.87761888 10.048021,5.93756951 10.0416667,6 L9.35333333,6 L5.305,6 C5.29864562,5.93756951 5.27866207,5.87761888 5.24666667,5.825 C5.24855066,5.83278716 5.24666667,5.84 5.24666667,5.8 C5.24666667,5.4495238 5.47955555,5.2 5.80666667,5.2 C5.9808889,5.2 6.09853154,5.27521236 6.25,5.4375 C6.33269871,5.52837414 6.45073946,5.57180948 6.5680993,5.55455068 C6.68545915,5.53729188 6.78821186,5.46138691 6.845,5.35 C7.01358464,5.0188516 7.2928889,4.8 7.67333333,4.8 Z M10.8466667,7.2 L11.7533333,7.2 L11.7533333,8.4 C11.7533333,8.7240432 11.0762413,8.9711044 10.8466667,9.1 L10.8466667,7.2 Z"/>
  </g>
</svg>
