<?xml version="1.0" encoding="utf-8"?>
<!-- Generator: Adobe Illustrator 16.0.4, SVG Export Plug-In . SVG Version: 6.00 Build 0)  -->
<!DOCTYPE svg PUBLIC "-//W3C//DTD SVG 1.1//EN" "http://www.w3.org/Graphics/SVG/1.1/DTD/svg11.dtd">
<svg version="1.1" xmlns="http://www.w3.org/2000/svg" xmlns:xlink="http://www.w3.org/1999/xlink" x="0px" y="0px" width="27px"
	 height="27px" viewBox="0 0 27 27" enable-background="new 0 0 27 27" xml:space="preserve">
<g id="Layer_2">
	<path opacity="0.8" fill="#FFFFFF" d="M13.5,27C6.056,27,0,20.944,0,13.5S6.056,0,13.5,0S27,6.056,27,13.5S20.944,27,13.5,27z"/>
	<path fill="#7F7D54" d="M26,13.5C26,20.403,20.403,26,13.5,26S1,20.403,1,13.5S6.597,1,13.5,1S26,6.597,26,13.5z"/>
</g>
<g id="Layer_1">
	<path fill="#FFFFFF" d="M15.777,5.778c-0.444,0-0.855,0.134-1.204,0.358c-0.342-1.477-1.659-2.581-3.24-2.581
		C9.493,3.556,8,5.048,8,6.889V8h10C18,6.773,17.005,5.778,15.777,5.778z M19,10H8v11c0,0.553,0.447,1,1,1h8c0.553,0,1-0.447,1-1
		v-1.65l3.9-1.69V13C21.9,11.346,20.654,10,19,10z M20,16.341l-2,0.857V12h1c0.552,0,1,0.449,1,1V16.341z"/>
</g>
</svg>
