<svg version="1.1" viewBox="0 0 24 24" xmlns="http://www.w3.org/2000/svg">
 <title>beer-m</title>
 <g fill="none" fill-rule="evenodd">
  <g id="beer-m" fill-rule="nonzero">
   <circle id="Oval" cx="12" cy="12" r="12" fill="#fff" opacity=".6"/>
   <circle id="Oval" cx="12" cy="12" r="11" fill="#BB9342"/>
   <path id="Shape" d="m16.116 10.413h-0.9863c0.22129-0.37302 0.35406-0.80295 0.35406-1.2645 0-1.3973-1.1317-2.529-2.529-2.529-0.21496 0-0.41728 0.031612-0.6196 0.082192-0.51844-0.42993-1.176-0.70179-1.9094-0.70179-1.1949 0-2.2192 0.70179-2.6997 1.7134-0.99895 0.33509-1.726 1.2708-1.726 2.3836 0 1.176 0.80927 2.156 1.8967 2.4405v5.4626h6.9547v-1.2645h1.2645c0.69547 0 1.2645-0.56902 1.2645-1.2645v-3.7935c0-0.69547-0.56902-1.2645-1.2645-1.2645zm-7.5869 0.94837c-0.69547 0-1.2645-0.56902-1.2645-1.2645 0-0.53741 0.34773-1.0116 0.86617-1.1886l0.5058-0.17071 0.22761-0.48051c0.29715-0.61328 0.89146-0.99262 1.5616-0.99262 0.49947 0 0.87882 0.22129 1.1001 0.41096l0.49315 0.41096s0.40464-0.20232 0.9294-0.20232c0.69547 0 1.2645 0.56902 1.2645 1.2645h-1.8967c-2.0991 0-2.4278 2.2129-3.7871 2.2129zm7.5869 4.1096h-1.2645v-3.7935h1.2645v3.7935z" fill="#fff"/>
  </g>
 </g>
</svg>
