<svg version="1.1" viewBox="0 0 20 20" xml:space="preserve" xmlns="http://www.w3.org/2000/svg"><title>bike-parking-m</title><g fill="none" fill-rule="evenodd"><g id="bike-parking-m" fill-rule="nonzero"><rect id="Rectangle" width="20" height="20" rx="2.5" fill="#fff" opacity=".6"/><rect x="1" y="1" width="18" height="18" rx="2" fill="#2e89b0"/><path id="Shape" d="m13.605 11.3-0.99167-2.73c-0.16917-0.46083-0.60667-0.77-1.0967-0.77h-1.5167v1.1667h1.5167l0.85167 2.3333h-2.8058l-0.21-0.58333h0.6475v-1.1667h-2.9167v1.1667h1.0208l1.0617 2.9167h-0.39083c-0.25667-1.3008-1.3475-2.2633-2.7125-2.3275-1.6333-0.081666-3.0625 1.2775-3.0625 2.9108 0 1.6333 1.2833 2.9167 2.9167 2.9167 1.435 0 2.5958-0.98583 2.8583-2.3333h2.45c0.25667 1.3008 1.3475 2.2633 2.7125 2.3275 1.6333 0.075833 3.0625-1.2775 3.0625-2.9167 0-1.6333-1.2833-2.9167-2.9167-2.9167h-0.47833zm-6.0433 3.5c-0.23333 0.6825-0.86917 1.1667-1.645 1.1667-0.98 0-1.75-0.77-1.75-1.75s0.77-1.75 1.75-1.75c0.77583 0 1.4117 0.48417 1.645 1.1667h-1.645v1.1667zm3.6633-1.1667h-0.81667l-0.42583-1.1667h1.7675c-0.25667 0.33833-0.44333 0.72917-0.525 1.1667zm2.8583 2.3333c-0.98 0-1.75-0.77-1.75-1.75 0-0.5425 0.23917-1.0092 0.6125-1.33l0.56 1.54 1.0967-0.39667-0.56583-1.5575c0.0175 0 0.035-0.0058 0.0525-0.0058 0.98 0 1.75 0.77 1.75 1.75s-0.77583 1.75-1.7558 1.75z" fill="#fff"/><path d="m9.0974 3.7509c-0.324-0.90257-1.1803-1.5429-2.1831-1.5429-1.2806 0-2.3143 1.0337-2.3143 2.3143 0 1.2729 1.0337 2.3143 2.3143 2.3143 1.0029 0 1.8591-0.648 2.1831-1.5429h3.9883v1.5429h1.5429v-1.5429h0.77142v-1.5429zm-2.1831 1.5429c-0.42429 0-0.77143-0.34714-0.77143-0.77143 0-0.42429 0.34714-0.77143 0.77143-0.77143 0.42429 0 0.77143 0.34714 0.77143 0.77143 0 0.42429-0.34714 0.77143-0.77143 0.77143z" fill="#fff" stroke-width=".77142"/></g></g></svg>
