<?xml version="1.0" encoding="UTF-8"?>
<svg version="1.1" viewBox="0 0 20 20" xmlns="http://www.w3.org/2000/svg">
	<title>bike-parking-m</title>
	<g>
		<rect id="Rectangle" width="20" height="20" rx="2.5" fill="#fff" opacity=".6"/>
		<rect x="1" y="1" width="18" height="18" rx="2" fill="#2f6499"/>
		<path d="m9.0974 3.7509c-0.324-0.90257-1.1803-1.5429-2.1831-1.5429-1.2806 0-2.3143 1.0337-2.3143 2.3143 0 1.2729 1.0337 2.3143 2.3143 2.3143 1.0029 0 1.8591-0.648 2.1831-1.5429h3.9883v1.5429h1.5429v-1.5429h0.77142v-1.5429zm-2.1831 1.5429c-0.42429 0-0.77143-0.34714-0.77143-0.77143s0.34714-0.77143 0.77143-0.77143 0.77143 0.34714 0.77143 0.77143-0.34714 0.77143-0.77143 0.77143z" fill="#fff"/>
		<path d="m9.9998 7.3147c-0.63102-0.00937-0.63102 0.94574 0 0.93675h1.4v1.1855l-2.6158 2.1863-0.90966-2.4352h0.2589c0.63102 0.00937 0.63102-0.94573 0-0.93675h-1.8667c-0.63102-0.00937-0.63102 0.94573 0 0.93675h0.6088l0.83132 2.2248c-0.43661-0.21789-0.92129-0.35129-1.4401-0.35129-1.7986 0-3.2667 1.4734-3.2667 3.2786 0 1.8052 1.468 3.2786 3.2667 3.2786 1.7986 0 3.2667-1.4734 3.2667-3.2786 0-0.62753-0.18694-1.2094-0.49401-1.7089l2.6322-2.201 0.43204 1.0869c-0.97305 0.56889-1.6369 1.6157-1.6369 2.823 0 1.8052 1.468 3.2786 3.2667 3.2786s3.2667-1.4734 3.2667-3.2786c0-1.8052-1.468-3.2786-3.2667-3.2786-0.26422 0-0.51743 0.04065-0.76388 0.10061l-0.63615-1.5973v-1.782c0-0.25864-0.20898-0.46838-0.46666-0.46838zm-3.7332 4.6838c0.5528 0 1.0524 0.1985 1.451 0.51774l-1.75 1.4637c-0.47684 0.40027 0.11928 1.1189 0.59789 0.72084l1.75-1.4637c0.17565 0.32955 0.28438 0.7015 0.28438 1.1033 0 1.2989-1.0392 2.3419-2.3333 2.3419-1.2941 0-2.3333-1.043-2.3333-2.3419 0-1.2989 1.039-2.3419 2.3333-2.3419zm7.4665 0c1.2941 0 2.3333 1.043 2.3333 2.3419 0 1.2989-1.0392 2.3419-2.3333 2.3419s-2.3333-1.043-2.3333-2.3419c0-0.82153 0.41701-1.5382 1.05-1.9558l0.84951 2.1297c0.2296 0.58369 1.1017 0.23428 0.86776-0.34763l-0.84759-2.126c0.13459-0.02398 0.27197-0.04206 0.41374-0.04206z" fill="#fff"/>
	</g>
</svg>
