<?xml version="1.0" encoding="UTF-8" standalone="no"?>
<svg
   width="24"
   height="24"
   viewBox="0 0 24 24"
   version="1.1"
   id="svg479"
   sodipodi:docname="bike-parking-m.svg"
   xml:space="preserve"
   inkscape:export-filename="updated/night/bicycle_repair_station.svg"
   inkscape:export-xdpi="96"
   inkscape:export-ydpi="96"
   inkscape:version="1.2 (dc2aedaf03, 2022-05-15)"
   xmlns:inkscape="http://www.inkscape.org/namespaces/inkscape"
   xmlns:sodipodi="http://sodipodi.sourceforge.net/DTD/sodipodi-0.dtd"
   xmlns="http://www.w3.org/2000/svg"
   xmlns:svg="http://www.w3.org/2000/svg"><defs
     id="defs483" /><sodipodi:namedview
     id="namedview481"
     pagecolor="#ffffff"
     bordercolor="#000000"
     borderopacity="0.25"
     inkscape:showpageshadow="2"
     inkscape:pageopacity="0.0"
     inkscape:pagecheckerboard="0"
     inkscape:deskcolor="#d1d1d1"
     showgrid="false"
     inkscape:zoom="32.291667"
     inkscape:cx="11.086452"
     inkscape:cy="12.030968"
     inkscape:window-width="1920"
     inkscape:window-height="1011"
     inkscape:window-x="0"
     inkscape:window-y="0"
     inkscape:window-maximized="1"
     inkscape:current-layer="svg479" /><title
     id="title467">america-football-m</title><g
     id="Page-1"
     stroke="none"
     stroke-width="1"
     fill="none"
     fill-rule="evenodd"
     inkscape:label="Page-1"
     transform="matrix(1.4285714,0,0,1.3415497,-5.1428572,-3.3229517)"><g
       id="america-football-m"
       fill-rule="nonzero"
       inkscape:label="bicycle_repair_station"
       style="opacity:1"
       transform="matrix(0.99000003,0,0,0.98999999,0.18999991,0.04116851)"><path
         id="path302"
         style="fill:#717065;fill-opacity:1;stroke:none"
         d="m 7.7441411,4.1168448 c -0.710264,3.935e-4 -1.370112,0.4117084 -1.744141,1 h 2.369141 l 0.623047,1 -0.623047,0.9999998 h -2.367188 c 0.373676,0.587738 1.032594,0.998973 1.742188,1 0.758235,0 1.412115,-0.404234 1.767578,-1 h 4.6660149 c 0.355422,0.595923 1.011175,1.000001 1.769532,1 1.133689,0 2.052734,-0.895431 2.052734,-1.9999998 0,-1.1045685 -0.919045,-2.0000002 -2.052734,-2 -0.758357,-3e-7 -1.41411,0.4040774 -1.769532,1 H 9.5117191 c -0.355463,-0.5957654 -1.009343,-0.9999999 -1.767578,-1 z m 7.5781249,1 h 1.25 l 0.623046,1 -0.623046,0.9999998 h -1.25 L 14.699219,6.1168448 Z m 0.282734,8.0747992 -0.991667,-2.73 C 14.444167,10.000811 14.006667,9.6916443 13.516667,9.6916443 H 12 v 1.1666667 h 1.516667 l 0.851666,2.333333 H 11.5625 l -0.21,-0.583333 H 12 V 11.441644 H 9.0833335 v 1.166667 h 1.0208335 l 1.061667,2.916666 H 10.775 c -0.256666,-1.300833 -1.3474998,-2.263333 -2.7124998,-2.3275 -1.6333335,-0.08167 -3.0625001,1.2775 -3.0625001,2.910834 0,1.633333 1.2833333,2.916666 2.9166668,2.916666 1.435,0 2.5958331,-0.985833 2.8583331,-2.333333 h 2.45 c 0.256667,1.300833 1.3475,2.263333 2.7125,2.3275 C 17.570833,19.094974 19,17.741644 19,16.102477 19,14.469144 17.716667,13.185811 16.083333,13.185811 H 15.605 Z m -6.0433331,3.5 c -0.2333334,0.6825 -0.8691667,1.166667 -1.645,1.166667 -0.9800001,0 -1.75,-0.77 -1.75,-1.75 0,-0.98 0.7699999,-1.75 1.75,-1.75 0.7758333,0 1.4116666,0.484166 1.645,1.166666 h -1.645 v 1.166667 z M 13.225,15.524977 H 12.408333 L 11.9825,14.358311 H 13.75 c -0.256667,0.338333 -0.443333,0.729166 -0.525,1.166666 z m 2.858333,2.333334 c -0.98,0 -1.75,-0.77 -1.75,-1.75 0,-0.5425 0.239167,-1.009167 0.6125,-1.33 l 0.56,1.54 1.096667,-0.396667 -0.565833,-1.5575 c 0.0175,0 0.035,-0.0058 0.0525,-0.0058 0.98,0 1.75,0.77 1.75,1.75 0,0.98 -0.775834,1.75 -1.755834,1.75 z" /></g></g></svg>
