<svg width="28" height="28" viewBox="0 0 28 28">
  <g fill="none" fill-rule="evenodd">
    <circle cx="14" cy="14" r="14" fill="#FFF" opacity=".6"/>
    <circle cx="14" cy="14" r="13" fill="#717065"/>
    <path fill="#FFF" d="M16.25,6.00306896 C15.7180147,6.07398674 15.6463937,6.99022585 16.1611842,7.14036626 L18.2631579,7.9568539 L18.2631579,9.7355839 L11.6315789,9.7355839 L11.6315789,8.80245517 L12.9342105,8.80245517 C13.2470221,8.80245517 13.5263158,8.52736881 13.5263158,8.21924971 C13.5263158,7.9111306 13.2470221,7.63165854 12.9342105,7.63604425 L9.26315789,7.63604425 C9.20442105,7.62671296 9.14429158,7.62671296 9.08552632,7.63604425 C8.77548105,7.68176755 8.53573053,8.00136415 8.58223684,8.30677718 C8.62875263,8.6120969 8.95312211,8.84827179 9.26315789,8.80245517 L10.6842105,8.80245517 L10.6842105,9.7355839 L9.67763158,12.6516112 C9.39372421,12.5844259 9.09419474,12.5349701 8.78947368,12.5349701 C6.69660421,12.5349701 5,14.2061104 5,16.2674851 C5,18.3288597 6.69660421,20 8.78947368,20 C10.8823432,20 12.5789474,18.3288597 12.5789474,16.2674851 C12.5789474,15.9871732 12.5200116,15.7136732 12.4605263,15.4509974 L13.5263158,15.4509974 C13.7144063,15.4416661 13.8965947,15.343501 14,15.1886016 L17.1973684,10.6687126 L17.3157895,10.6687126 L18.2631579,10.6687126 L18.9144737,12.564177 C16.9611042,12.7140375 15.4210526,14.305022 15.4210526,16.2674851 C15.4210526,18.3288597 17.1176568,20 19.2105263,20 C21.3033958,20 23,18.3288597 23,16.2674851 C23,14.5615391 21.8337042,13.1553141 20.2467105,12.7099317 L19.2105263,9.7355839 L19.2105263,7.54861008 C19.2105263,7.45072488 19.1704526,7.35171992 19.1217579,7.25700735 C19.1179684,7.24767607 19.1255474,7.23461226 19.1217579,7.22808036 C19.1076421,7.19822024 19.0811158,7.16836012 19.0625474,7.14036626 C19.0322316,7.09837547 19.0108211,7.06011719 18.9737789,7.02372517 C18.9577684,7.00879511 18.9320947,7.00786198 18.9145684,6.99479818 C18.8972316,6.98080125 18.8735474,6.97800186 18.8553579,6.96587119 C18.8246632,6.94814174 18.8006947,6.91921475 18.7665895,6.90801721 L18.7370316,6.87909021 L18.3225579,6.73333551 L16.5758474,6.03348895 C16.5142589,6.01016074 16.4344147,6.00736135 16.3686105,6.00456196 C16.3240842,6.00456196 16.2939579,5.99429755 16.2501895,6.00456196 L16.25,6.00306896 Z M11.6315789,10.6687126 L15.8059211,10.6687126 L13.2302632,14.2845865 L11.9868421,14.2845865 C11.6934705,13.8235276 11.3245179,13.4439308 10.8618421,13.1473825 L11.6315789,10.6687126 L11.6315789,10.6687126 Z M8.78947368,13.9346632 C10.0975147,13.9346632 11.1578947,14.9791142 11.1578947,16.2674851 C11.1578947,17.5558559 10.0975147,18.6003069 8.78947368,18.6003069 C7.48143263,18.6003069 6.42105263,17.5558559 6.42105263,16.2674851 C6.42105263,14.9791142 7.48143263,13.9346632 8.78947368,13.9346632 L8.78947368,13.9346632 Z M19.2105263,13.9346632 C20.5185674,13.9346632 21.5789474,14.9791142 21.5789474,16.2674851 C21.5789474,17.5558559 20.5185674,18.6003069 19.2105263,18.6003069 C17.9024853,18.6003069 16.8421053,17.5558559 16.8421053,16.2674851 C16.8421053,16.106427 16.8697684,15.9527407 16.9013158,15.8009207 C17.1221663,14.7379004 18.0659916,13.9346632 19.2105263,13.9346632 L19.2105263,13.9346632 Z"/>
  </g>
</svg>
