<svg width="28" height="28" viewBox="0 0 28 28">
  <g fill="none" fill-rule="evenodd">
    <circle cx="14" cy="14" r="14" fill="#FFF" opacity=".6"/>
    <circle cx="14" cy="14" r="13" fill="#717065"/>
    <path fill="#FFF" fill-rule="nonzero" d="M12,8 C8.66666667,8 6,10.6666667 6,14 C6,17.3333333 8.66666667,20 12,20 C15.3333333,20 18,17.3333333 18,14 C18,10.6666667 15.3333333,8 12,8 Z M15.6041667,8.20833333 C17.4708333,9.475 18.6666667,11.6 18.6666667,14 C18.6666667,16.4 17.4708333,18.525 15.6041667,19.7916667 C18.1375,19.0583333 20,16.8 20,14 C20,11.2 18.1375,8.94166667 15.6041667,8.20833333 Z M17.6041667,8.20833333 C19.4708333,9.475 20.6666667,11.6 20.6666667,14 C20.6666667,16.4 19.4708333,18.525 17.6041667,19.7916667 C20.1375,19.0583333 22,16.8 22,14 C22,11.2 20.1375,8.94166667 17.6041667,8.20833333 Z M12.6666667,11.3333333 L12.6666667,16.6666667 L11.3333333,16.6666667 L11.3333333,13.3333333 L10,13.3333333 L10,12.3333333 C11.3333333,12.2 12.6666667,11.3333333 12.6666667,11.3333333 Z"/>
  </g>
</svg>
