<svg height="24" viewBox="0 0 24 24" width="24"><g fill="none" fill-rule="evenodd"><circle cx="12" cy="12" fill="#fff" opacity=".6" r="12"/><circle cx="12" cy="12" fill="#717065" r="11"/><path d="m10.25 7c-2.91666667 0-5.25 2.22222222-5.25 5 0 2.7777778 2.33333333 5 5.25 5 2.9166667 0 5.25-2.2222222 5.25-5 0-2.77777778-2.3333333-5-5.25-5zm3.1536458.17361111c1.6333334 1.05555556 2.6796875 2.82638889 2.6796875 4.82638889s-1.0463541 3.7708333-2.6796875 4.8263889c2.2166667-.6111111 3.8463542-2.4930556 3.8463542-4.8263889 0-2.33333333-1.6296875-4.21527778-3.8463542-4.82638889zm1.75 0c1.6333334 1.05555556 2.6796875 2.82638889 2.6796875 4.82638889s-1.0463541 3.7708333-2.6796875 4.8263889c2.2166667-.6111111 3.8463542-2.4930556 3.8463542-4.8263889 0-2.33333333-1.6296875-4.21527778-3.8463542-4.82638889zm-4.3203125 2.60416667v4.44444442h-1.16666663v-2.7777778h-1.16666667v-.8333333c1.16666667-.1111111 2.3333333-.83333332 2.3333333-.83333332z" fill="#fff" fill-rule="nonzero"/></g></svg>