<?xml version="1.0" encoding="UTF-8" standalone="no"?>
<svg width="17px" height="17px" viewBox="0 0 17 17" version="1.1" xmlns="http://www.w3.org/2000/svg" xmlns:xlink="http://www.w3.org/1999/xlink">
    <!-- Generator: Sketch 3.8.3 (29802) - http://www.bohemiancoding.com/sketch -->
    <title>book-shop-s</title>
    <desc>Created with Sketch.</desc>
    <defs>
        <ellipse id="path-1" cx="8.5" cy="8.5" rx="7.5" ry="7.5"></ellipse>
    </defs>
    <g id="POI-Clear" stroke="none" stroke-width="1" fill="none" fill-rule="evenodd">
        <g id="book-shop-s">
            <path d="M8.5,17 C3.812,17 0,13.187 0,8.5 C0,3.813 3.812,0 8.5,0 C13.188,0 17,3.813 17,8.5 C17,13.187 13.188,17 8.5,17 L8.5,17 Z" id="Shape" fill-opacity="0.6" fill="#FFFFFF"></path>
            <g id="Oval">
                <use fill="#2D7970" xlink:href="#path-1"></use>
                <use fill="#825089" xlink:href="#path-1"></use>
            </g>
            <path d="M12.516,5.01498114 L9,5.89298114 L9,11.3929811 L12.516,10.5149811 C12.784,10.4479811 13,10.1689811 13,9.89298114 L13,5.39298114 C13,5.11698114 12.783,4.94698114 12.516,5.01498114 L12.516,5.01498114 Z M4.484,10.5149811 L8,11.3929811 L8,5.89298114 L4.484,5.01498114 C4.217,4.94698114 4,5.11698114 4,5.39298114 L4,9.89298114 C4,10.1689811 4.217,10.4469811 4.484,10.5149811 L4.484,10.5149811 Z M4,13.3929811 L13,13.3929811 L13,12.3929811 L4,12.3929811 L4,13.3929811 L4,13.3929811 Z" id="Shape" fill="#FFFFFF"></path>
        </g>
    </g>
</svg>