<?xml version="1.0" encoding="UTF-8" standalone="no"?>
<svg width="27px" height="27px" viewBox="0 0 27 27" version="1.1" xmlns="http://www.w3.org/2000/svg" xmlns:xlink="http://www.w3.org/1999/xlink">
    <!-- Generator: Sketch 3.7.2 (28276) - http://www.bohemiancoding.com/sketch -->
    <title>bookmaker-l</title>
    <desc>Created with Sketch.</desc>
    <defs></defs>
    <g id="POI" stroke="none" stroke-width="1" fill="none" fill-rule="evenodd">
        <g id="bank-l">
            <circle id="Oval-1-Copy-39" fill="#FFFFFF" cx="13.5" cy="13.5" r="13.5"></circle>
            <circle id="Oval-1-Copy-38" fill="#717065" cx="13.5" cy="13.5" r="12.5"></circle>
            <rect id="Rectangle-150" fill="#FFFFFF" x="7" y="7" width="13" height="13" rx="2"></rect>
        </g>
        <path d="M13.999939,9.5429192 L13.999939,8.5 L12.999939,8.5 L12.999939,9.51120106 C12.1839915,9.56165681 11.5514485,9.7825733 11.1022949,10.173955 C10.5866673,10.6232606 10.3288574,11.1874564 10.3288574,11.8665595 C10.3288574,12.610829 10.5956191,13.1578761 11.1291504,13.507717 C11.4442561,13.7169357 12.0135864,13.9107172 12.8371582,14.0890675 L12.999939,14.1240494 L12.999939,16.1791338 C12.5840408,16.1204224 12.2755507,15.9742166 12.0744629,15.7405145 C11.9276523,15.5690238 11.8291832,15.3100768 11.7790527,14.9636656 L10.1999512,14.9636656 C10.1999512,15.7525227 10.4953584,16.3724522 11.0861816,16.8234727 C11.573988,17.1958525 12.2119025,17.4145044 12.999939,17.4794324 L12.999939,18.5 L13.999939,18.5 L13.999939,17.4813452 C14.7804475,17.4183206 15.4017198,17.1956013 15.8637695,16.8131833 C16.416995,16.3553032 16.6936035,15.7799606 16.6936035,15.0871383 C16.6936035,14.411465 16.4572778,13.8952858 15.9846191,13.5385852 C15.6802556,13.3087877 15.2290883,13.1252954 14.6311035,12.9881029 L13.999939,12.8429133 L13.999939,10.9183449 C14.0788439,10.943386 14.1531644,10.9730695 14.2229004,11.0073955 C14.6096211,11.1994651 14.8173013,11.5235776 14.8459473,11.9797428 L16.435791,11.9797428 C16.407145,11.1737366 16.0983102,10.5589517 15.5092773,10.1353698 C15.0733369,9.82187875 14.570227,9.62439609 13.999939,9.5429192 Z M13.999939,14.3444083 L13.999939,16.1758666 C14.1523606,16.1553077 14.2875531,16.1250886 14.4055176,16.085209 C14.867434,15.9274376 15.0983887,15.6341929 15.0983887,15.2054662 C15.0983887,14.9550899 14.9838065,14.7613083 14.7546387,14.6241158 C14.5794495,14.5218598 14.3278846,14.4286245 13.999939,14.3444083 Z M12.999939,12.6108495 L12.999939,10.828331 C12.6938307,10.8560047 12.4408416,10.9345563 12.2409668,11.0639871 C11.9867338,11.2286182 11.8596191,11.4584122 11.8596191,11.7533762 C11.8596191,12.0243315 11.9849434,12.2266874 12.2355957,12.3604502 C12.3676765,12.4335468 12.6224557,12.5170127 12.999939,12.6108495 Z" id="Rectangle-11-Copy" fill="#717065"></path>
    </g>
</svg>