<svg version="1.1" viewBox="0 0 24 24" xmlns="http://www.w3.org/2000/svg">
 <title>bowls-m</title>
 <g fill="none" fill-rule="evenodd">
  <g id="bowls-m" fill-rule="nonzero">
   <g id="Group" transform="translate(6 5)" fill="#fff">
    <g transform="matrix(1.2857 0 0 1.2857 -1.8253 -2)" fill="#717065">
     <path id="Shape" d="m7.9124 5.4783c-0.91974 0-1.7695 0.29522-2.4664 0.79313-0.32809-0.73957-0.57704-1.2369-0.57704-2.0105v-2.4348c0-1.0068-0.8193-1.8261-1.8261-1.8261s-1.8261 0.8193-1.8261 1.8261v2.4348c0 0.71765-0.21609 1.2003-0.49 1.8115-0.34087 0.76087-0.72739 1.6234-0.72739 3.0581 0 2.6229 1.3385 4.8696 2.4348 4.8696h1.2174c0.60139 0 1.0926-0.56548 1.4231-1.0914 0.75417 0.67565 1.747 1.0914 2.8377 1.0914 2.3496 0 4.2609-1.9113 4.2609-4.2609 0-2.3496-1.9119-4.2609-4.2609-4.2609zm-5.4783-3.6522c0-0.33539 0.2733-0.6087 0.6087-0.6087s0.6087 0.2733 0.6087 0.6087v1.8261h-1.2174zm1.1638 10.957h-1.1127c-0.32443-0.18139-1.2691-1.5564-1.2691-3.6522 0-1.1748 0.30191-1.8474 0.62087-2.5602 0.22887-0.51009 0.46261-1.0323 0.55574-1.7007h1.3002c0.092522 0.66835 0.32687 1.1912 0.55513 1.7007 0.08887 0.19783 0.17652 0.40478 0.2593 0.61843-0.53504 0.71217-0.85583 1.5936-0.85583 2.5504 0 0.79009 0.21974 1.5272 0.59591 2.1621-0.29096 0.58009-0.55757 0.82478-0.64948 0.88139zm4.3144 0c-1.6782 0-3.0435-1.3653-3.0435-3.0435 0-1.6782 1.3653-3.0435 3.0435-3.0435s3.0435 1.3653 3.0435 3.0435c0 1.6782-1.3659 3.0435-3.0435 3.0435z"/>
     <circle cx="7.9124" cy="9.7391" r="1"/>
     <circle cx="9.1298" cy="8.5217" r="1"/>
     <circle cx="6.695" cy="8.5217" r="1"/>
    </g>
   </g>
  </g>
 </g>
</svg>
