<?xml version="1.0" encoding="UTF-8" standalone="no"?>
<svg
   width="24px"
   height="24px"
   viewBox="0 0 24 24"
   version="1.1"
   id="svg2021"
   sodipodi:docname="bowls-m.svg"
   inkscape:version="1.2 (dc2aedaf03, 2022-05-15)"
   xmlns:inkscape="http://www.inkscape.org/namespaces/inkscape"
   xmlns:sodipodi="http://sodipodi.sourceforge.net/DTD/sodipodi-0.dtd"
   xmlns="http://www.w3.org/2000/svg"
   xmlns:svg="http://www.w3.org/2000/svg">
  <defs
     id="defs2025" />
  <sodipodi:namedview
     id="namedview2023"
     pagecolor="#ffffff"
     bordercolor="#000000"
     borderopacity="0.25"
     inkscape:showpageshadow="2"
     inkscape:pageopacity="0.0"
     inkscape:pagecheckerboard="0"
     inkscape:deskcolor="#d1d1d1"
     showgrid="false"
     inkscape:zoom="31.5"
     inkscape:cx="12.047619"
     inkscape:cy="11.968254"
     inkscape:window-width="1920"
     inkscape:window-height="1003"
     inkscape:window-x="0"
     inkscape:window-y="0"
     inkscape:window-maximized="1"
     inkscape:current-layer="svg2021" />
  <title
     id="title2006">bowls-m</title>
  <g
     id="Page-1"
     stroke="none"
     stroke-width="1"
     fill="none"
     fill-rule="evenodd">
    <g
       id="bowls-m"
       fill-rule="nonzero">
      <g
         id="Group"
         transform="translate(6.000000, 5.000000)"
         fill="#FFFFFF">
        <g
           id="g2565"
           transform="matrix(1.2857143,0,0,1.2857143,-1.8253042,-2)">
          <path
             d="M 7.9124348,5.4782609 C 6.9926956,5.4782609 6.1429565,5.7734783 5.446,6.2713913 5.117913,5.5318261 4.8689565,5.0345217 4.8689565,4.2608696 V 3.6521739 1.826087 C 4.8689565,0.81930435 4.0496522,0 3.0428696,0 2.036087,0 1.2167826,0.81930435 1.2167826,1.826087 v 1.8260869 0.6086957 c 0,0.7176521 -0.216087,1.2003478 -0.48999999,1.8114782 C 0.38591304,6.8332174 -6.0869565e-4,7.6957391 -6.0869565e-4,9.1304348 -6.0869565e-4,11.753304 1.337913,14 2.4341739,14 H 3.6515652 C 4.2529565,14 4.7441739,13.434522 5.0746956,12.908609 5.8288696,13.584261 6.8216522,14 7.9124348,14 10.262,14 12.173304,12.088696 12.173304,9.7391304 c 0,-2.3495652 -1.911913,-4.2608695 -4.2608692,-4.2608695 z M 2.4341739,1.826087 c 0,-0.3353914 0.2733044,-0.6086957 0.6086957,-0.6086957 0.3353913,0 0.6086956,0.2733043 0.6086956,0.6086957 V 3.6521739 H 2.4341739 Z M 3.598,12.782609 H 2.4853043 C 2.1608696,12.601217 1.2161739,11.226174 1.2161739,9.1304348 1.2161739,7.9556522 1.518087,7.2830435 1.8370435,6.5702609 2.065913,6.0601739 2.2996522,5.537913 2.3927826,4.8695652 H 3.6929565 C 3.7854785,5.537913 4.0198261,6.0607826 4.248087,6.5702609 4.336957,6.768087 4.4246087,6.9750435 4.5073913,7.1886956 3.9723478,7.9008696 3.6515652,8.7822609 3.6515652,9.7391304 c 0,0.7900866 0.2197392,1.5272176 0.5959131,2.1620866 C 3.9565217,12.481304 3.689913,12.726 3.598,12.782609 Z m 4.3144348,0 c -1.6781739,0 -3.0434783,-1.365305 -3.0434783,-3.0434786 0,-1.6781739 1.3653044,-3.0434782 3.0434783,-3.0434782 1.6781739,0 3.0434782,1.3653043 3.0434782,3.0434782 0,1.6781736 -1.365913,3.0434786 -3.0434782,3.0434786 z"
             id="Shape"
             style="fill:#717065;fill-opacity:1" />
          <circle
             id="circle2012"
             cx="7.9124346"
             cy="9.73913"
             r="1"
             style="fill:#717065;fill-opacity:1" />
          <circle
             id="circle2014"
             cx="9.1298265"
             cy="8.521739"
             r="1"
             style="fill:#717065;fill-opacity:1" />
          <circle
             id="circle2016"
             cx="6.6950436"
             cy="8.521739"
             r="1"
             style="fill:#717065;fill-opacity:1;stroke:none;stroke-opacity:1" />
        </g>
      </g>
    </g>
  </g>
</svg>
