<?xml version="1.0" encoding="UTF-8" standalone="no"?>
<svg width="17px" height="17px" viewBox="0 0 17 17" version="1.1" xmlns="http://www.w3.org/2000/svg" xmlns:xlink="http://www.w3.org/1999/xlink" xmlns:sketch="http://www.bohemiancoding.com/sketch/ns">
    <!-- Generator: Sketch 3.5.2 (25235) - http://www.bohemiancoding.com/sketch -->
    <title>bowls-s</title>
    <desc>Created with Sketch.</desc>
    <defs></defs>
    <g id="POI" stroke="none" stroke-width="1" fill="none" fill-rule="evenodd" sketch:type="MSPage">
        <path d="M8.5,17 C3.812,17 0,13.188 0,8.5 C0,3.812 3.812,0 8.5,0 C13.188,0 17,3.812 17,8.5 C17,13.188 13.188,17 8.5,17 L8.5,17 Z" id="Shape" fill="#FFFFFF" sketch:type="MSShapeGroup"></path>
        <ellipse id="Oval" fill="#717065" sketch:type="MSShapeGroup" cx="8.5" cy="8.5" rx="7.5" ry="7.5"></ellipse>
        <path d="M13,9.983 C13,11.522 11.898,12.858 11.852,12.915 C11.832,12.938 11.804,12.951 11.774,12.951 L10.279,12.951 C10.249,12.951 10.22,12.938 10.201,12.915 C10.194,12.906 10.158,12.86 10.11,12.798 C10.781,12.054 11.201,11.078 11.201,10 C11.201,8.969 10.813,8.035 10.193,7.304 C10.241,7.177 10.275,7.048 10.275,6.911 C10.275,6.528 10.195,6.148 10.125,5.813 C10.023,5.333 9.936,4.918 10.092,4.629 C10.209,4.324 10.51,4 11.006,4 C11.014,4 11.02,4.003 11.027,4.004 C11.035,4.003 11.041,4 11.048,4 C11.544,4 11.845,4.324 11.962,4.629 C12.118,4.918 12.03,5.332 11.929,5.813 C11.859,6.148 11.779,6.528 11.779,6.911 C11.779,7.303 12.006,7.636 12.267,8.022 C12.609,8.53 13,9.105 13,9.983 L13,9.983 Z M10,10 C10,11.658 8.658,13.001 7,13.001 C5.344,13.001 4,11.658 4,10 C4,8.344 5.344,7.001 7,7.001 C8.658,7.001 10,8.344 10,10 L10,10 Z M9,9.001 L8,9.001 L8,8.001 L7,8.001 L7,9.001 L8,9.001 L8,10.001 L9,10.001 L9,9.001 L9,9.001 Z" id="Shape" fill="#FFFFFF" sketch:type="MSShapeGroup"></path>
    </g>
</svg>