<?xml version="1.0" encoding="UTF-8" standalone="no"?>
<svg width="17px" height="17px" viewBox="0 0 17 17" version="1.1" xmlns="http://www.w3.org/2000/svg" xmlns:xlink="http://www.w3.org/1999/xlink">
    <!-- Generator: Sketch 3.8.3 (29802) - http://www.bohemiancoding.com/sketch -->
    <title>bowls-s</title>
    <desc>Created with Sketch.</desc>
    <defs>
        <path d="M13,9.9823353 C13,11.5211643 11.898,12.8570159 11.852,12.9140096 C11.832,12.937007 11.804,12.9500056 11.774,12.9500056 L10.279,12.9500056 C10.249,12.9500056 10.22,12.937007 10.201,12.9140096 C10.194,12.9050106 10.158,12.8590157 10.11,12.7970226 C10.781,12.0531052 11.201,11.0772136 11.201,9.99933341 C11.201,8.96844795 10.813,8.03455172 10.193,7.30363293 C10.241,7.17664704 10.275,7.04766137 10.275,6.91067659 C10.275,6.52771914 10.195,6.14776136 10.125,5.81279858 C10.023,5.33285191 9.936,4.91789801 10.092,4.62893012 C10.209,4.323964 10.51,4 11.006,4 C11.014,4 11.02,4.00299967 11.027,4.00399956 C11.035,4.00299967 11.041,4 11.048,4 C11.544,4 11.845,4.323964 11.962,4.62893012 C12.118,4.91789801 12.03,5.33185202 11.929,5.81279858 C11.859,6.14776136 11.779,6.52771914 11.779,6.91067659 C11.779,7.30263304 12.006,7.63559604 12.267,8.02155316 C12.609,8.52949672 13,9.10443284 13,9.9823353 L13,9.9823353 Z M10,9.99933341 C10,11.6571492 8.658,13 7,13 C5.344,13 4,11.6571492 4,9.99933341 C4,8.34351739 5.344,7.00066659 7,7.00066659 C8.658,7.00066659 10,8.34351739 10,9.99933341 L10,9.99933341 Z M9,9.0004444 L8,9.0004444 L8,8.00055549 L7,8.00055549 L7,9.0004444 L8,9.0004444 L8,10.0003333 L9,10.0003333 L9,9.0004444 Z M7,9.99933341 L8,9.99933341 L8,10.9992223 L7,10.9992223 L7,9.99933341 Z" id="path-1"></path>
    </defs>
    <g id="POI-Clear" stroke="none" stroke-width="1" fill="none" fill-rule="evenodd">
        <g id="bowls-s">
            <path d="M8.5,17 C3.812,17 0,13.188 0,8.5 C0,3.812 3.812,0 8.5,0 C13.188,0 17,3.812 17,8.5 C17,13.188 13.188,17 8.5,17 L8.5,17 Z" id="Shape" fill-opacity="0.6" fill="#FFFFFF"></path>
            <path d="M8.5,16 C12.6421356,16 16,12.6421356 16,8.5 C16,4.35786438 12.6421356,1 8.5,1 C4.35786438,1 1,4.35786438 1,8.5 C1,12.6421356 4.35786438,16 8.5,16 Z" id="Oval" fill="#717065"></path>
            <g id="Shape" fill="#FFFFFF">
                <use xlink:href="#path-1"></use>
                <use xlink:href="#path-1"></use>
            </g>
        </g>
    </g>
</svg>