<?xml version="1.0" encoding="UTF-8"?>
<svg width="16px" height="16px" viewBox="0 0 16 16" version="1.1" xmlns="http://www.w3.org/2000/svg" xmlns:xlink="http://www.w3.org/1999/xlink">
    <title>buddhist-s</title>
    <g id="Page-1" stroke="none" stroke-width="1" fill="none" fill-rule="evenodd">
        <g id="buddhist-s" fill-rule="nonzero">
            <circle id="Oval" fill="#FFFFFF" opacity="0.6" cx="8" cy="8" r="8"></circle>
            <circle id="Oval" fill="#7F5933" cx="8" cy="8" r="7.33333333"></circle>
            <path d="M7.53333333,3.33333333 L7.53333333,3.8 C6.726,3.89333333 5.98866667,4.22 5.38666667,4.70533333 L5.032,4.35066667 L4.36933333,5.01333333 L4.73333333,5.36333333 C4.22,5.984 3.898,6.74 3.8,7.53333333 L3.33333333,7.53333333 L3.33333333,8.46666667 L3.8,8.46666667 C3.898,9.25066667 4.22,9.988 4.73333333,10.5946667 L4.36933333,10.9493333 L5.032,11.612 L5.382,11.2666667 C5.998,11.766 6.74,12.0926667 7.53333333,12.2 L7.53333333,12.6666667 L8.46666667,12.6666667 L8.46666667,12.2 C9.25533333,12.0926667 10.002,11.766 10.6133333,11.2666667 L10.968,11.612 L11.6306667,10.9493333 L11.2666667,10.5993333 C11.78,9.99266667 12.102,9.25066667 12.2,8.46666667 L12.6666667,8.46666667 L12.6666667,7.53333333 L12.2,7.53333333 C12.102,6.74 11.78,5.98866667 11.2666667,5.368 L11.6306667,5.01333333 L10.968,4.35066667 L10.618,4.70533333 C10.002,4.206 9.25533333,3.89333333 8.46666667,3.8 L8.46666667,3.33333333 L7.53333333,3.33333333 M7.53333333,4.73333333 L7.53333333,6.13333333 L7.06666667,6.36666667 L6.04466667,5.36333333 C6.46933333,5.046 6.978,4.81266667 7.53333333,4.73333333 M8.46666667,4.73333333 C9.008,4.81733333 9.52133333,5.032 9.96,5.36333333 L8.93333333,6.36666667 L8.46666667,6.13333333 L8.46666667,4.73333333 M5.38666667,6.02133333 L6.36666667,7.06666667 L6.13333333,7.53333333 L4.73333333,7.53333333 C4.808,6.992 5.06,6.46 5.382,6.01666667 L5.38666667,6.02133333 M10.6133333,6.02133333 C10.954,6.46466667 11.178,6.98266667 11.2666667,7.53333333 L9.86666667,7.53333333 L9.63333333,7.06666667 L10.618,6.02133333 L10.6133333,6.02133333 M8,7.06666667 C8.52266667,7.06666667 8.93333333,7.47733333 8.93333333,8 C8.93333333,8.52266667 8.52266667,8.93333333 8,8.93333333 C7.47733333,8.93333333 7.06666667,8.52266667 7.06666667,8 C7.06666667,7.47733333 7.47733333,7.06666667 8,7.06666667 M4.73333333,8.46666667 L6.13333333,8.46666667 L6.39933333,8.93333333 L5.382,9.93666667 C5.046,9.512 4.822,9.008 4.73333333,8.46666667 L4.73333333,8.46666667 M9.86666667,8.46666667 L11.2666667,8.46666667 C11.178,9.00333333 10.954,9.512 10.618,9.94133333 L9.63333333,8.93333333 L9.86666667,8.46666667 M7.06666667,9.63333333 L7.53333333,9.86666667 L7.53333333,11.2666667 C6.98733333,11.1733333 6.474,10.9446667 6.04,10.5993333 L7.06666667,9.63333333 M8.93333333,9.63333333 L9.95533333,10.5993333 C9.53066667,10.9166667 9.022,11.1873333 8.46666667,11.2666667 L8.46666667,9.86666667 L8.93333333,9.63333333 Z" id="Shape" fill="#FFFFFF"></path>
        </g>
    </g>
</svg>