<?xml version="1.0" encoding="UTF-8"?>
<svg width="24px" height="24px" viewBox="0 0 24 24" version="1.1" xmlns="http://www.w3.org/2000/svg" xmlns:xlink="http://www.w3.org/1999/xlink">
    <title>buddhist-m</title>
    <g id="Page-1" stroke="none" stroke-width="1" fill="none" fill-rule="evenodd">
        <g id="buddhist-m" fill-rule="nonzero">
            <circle id="Oval" fill="#FFFFFF" opacity="0.6" cx="12" cy="12" r="12"></circle>
            <circle id="Oval" fill="#7F5933" cx="12" cy="12" r="11"></circle>
            <path d="M11.3,5 L11.3,5.7 C10.089,5.84 8.983,6.33 8.08,7.058 L7.548,6.526 L6.554,7.52 L7.1,8.045 C6.33,8.976 5.847,10.11 5.7,11.3 L5,11.3 L5,12.7 L5.7,12.7 C5.847,13.876 6.33,14.982 7.1,15.892 L6.554,16.424 L7.548,17.418 L8.073,16.9 C8.997,17.649 10.11,18.139 11.3,18.3 L11.3,19 L12.7,19 L12.7,18.3 C13.883,18.139 15.003,17.649 15.92,16.9 L16.452,17.418 L17.446,16.424 L16.9,15.899 C17.67,14.989 18.153,13.876 18.3,12.7 L19,12.7 L19,11.3 L18.3,11.3 C18.153,10.11 17.67,8.983 16.9,8.052 L17.446,7.52 L16.452,6.526 L15.927,7.058 C15.003,6.309 13.883,5.84 12.7,5.7 L12.7,5 L11.3,5 M11.3,7.1 L11.3,9.2 L10.6,9.55 L9.067,8.045 C9.704,7.569 10.467,7.219 11.3,7.1 M12.7,7.1 C13.512,7.226 14.282,7.548 14.94,8.045 L13.4,9.55 L12.7,9.2 L12.7,7.1 M8.08,9.032 L9.55,10.6 L9.2,11.3 L7.1,11.3 C7.212,10.488 7.59,9.69 8.073,9.025 L8.08,9.032 M15.92,9.032 C16.431,9.697 16.767,10.474 16.9,11.3 L14.8,11.3 L14.45,10.6 L15.927,9.032 L15.92,9.032 M12,10.6 C12.784,10.6 13.4,11.216 13.4,12 C13.4,12.784 12.784,13.4 12,13.4 C11.216,13.4 10.6,12.784 10.6,12 C10.6,11.216 11.216,10.6 12,10.6 M7.1,12.7 L9.2,12.7 L9.599,13.4 L8.073,14.905 C7.569,14.268 7.233,13.512 7.1,12.7 L7.1,12.7 M14.8,12.7 L16.9,12.7 C16.767,13.505 16.431,14.268 15.927,14.912 L14.45,13.4 L14.8,12.7 M10.6,14.45 L11.3,14.8 L11.3,16.9 C10.481,16.76 9.711,16.417 9.06,15.899 L10.6,14.45 M13.4,14.45 L14.933,15.899 C14.296,16.375 13.533,16.781 12.7,16.9 L12.7,14.8 L13.4,14.45 Z" id="Shape" fill="#FFFFFF"></path>
        </g>
    </g>
</svg>