<?xml version="1.0" encoding="utf-8"?>
<!-- Generator: Adobe Illustrator 21.0.2, SVG Export Plug-In . SVG Version: 6.00 Build 0)  -->
<svg version="1.1" id="Слой_1" xmlns="http://www.w3.org/2000/svg" xmlns:xlink="http://www.w3.org/1999/xlink" x="0px" y="0px"
	 viewBox="0 0 32.4 32.4" enable-background="new 0 0 32.4 32.4" xml:space="preserve">
<title>buddhist-l</title>
<desc>Created with Sketch.</desc>
<g id="POI-Clear">
	<g id="Artboard-1" transform="translate(-317.000000, -1026.000000)">
		<g id="buddhist-l" transform="translate(317.000000, 1026.000000)">
			<circle id="Oval-1-Copy-39" fill="#FFFFFF" fill-opacity="0.6" cx="16.2" cy="16.2" r="16.2"/>
			<circle id="Oval-1-Copy-38" fill="#7F5933" cx="16.2" cy="16.2" r="15"/>
			<path id="Combined-Shape" fill="#FFFFFF" d="M16.8,7.2c4.5,0.3,8.1,3.9,8.4,8.4h1.2v1.2h-1.2c-0.3,4.5-3.9,8.1-8.4,8.4v1.2h-1.2
				v-1.2c-4.5-0.3-8.1-3.9-8.4-8.4H6v-1.2h1.2c0.3-4.5,3.9-8.1,8.4-8.4V6h1.2V7.2z M15.6,8.4c-1.7,0.1-3.3,0.8-4.5,1.9l3.9,3.9
				c0.2-0.1,0.4-0.2,0.6-0.3V8.4z M16.8,8.4c1.7,0.1,3.3,0.8,4.5,1.9l-3.9,3.9c-0.2-0.1-0.4-0.2-0.6-0.3V8.4z M16.8,24
				c1.7-0.1,3.3-0.8,4.5-1.9l-3.9-3.9c-0.2,0.1-0.4,0.2-0.6,0.3V24z M15.6,24c-1.7-0.1-3.3-0.8-4.5-1.9l3.9-3.9
				c0.2,0.1,0.4,0.2,0.6,0.3V24z M18.5,15.6H24c-0.1-1.7-0.8-3.3-1.9-4.5L18.3,15C18.4,15.2,18.5,15.4,18.5,15.6z M18.5,16.8H24
				c-0.1,1.7-0.8,3.3-1.9,4.5l-3.9-3.9C18.4,17.2,18.5,17,18.5,16.8z M14.1,17.4l-3.9,3.9c-1-1.2-1.7-2.8-1.9-4.5h5.5
				C13.9,17,14,17.2,14.1,17.4z M13.9,15.6H8.4c0.1-1.7,0.8-3.3,1.9-4.5l3.9,3.9C14,15.2,13.9,15.4,13.9,15.6z M15.6,16.2
				c0-0.3,0.3-0.6,0.6-0.6c0.3,0,0.6,0.3,0.6,0.6c0,0.3-0.3,0.6-0.6,0.6C15.9,16.8,15.6,16.5,15.6,16.2z"/>
		</g>
	</g>
</g>
</svg>
