<svg version="1.1" viewBox="0 0 24 24" xmlns="http://www.w3.org/2000/svg">
 <title>buddhist-m</title>
 <g fill="none" fill-rule="evenodd">
  <g id="buddhist-m" fill-rule="nonzero">
   <circle id="Oval" cx="12" cy="12" r="12" fill="#fff" opacity=".6"/>
   <circle id="Oval" cx="12" cy="12" r="11" fill="#7F5933"/>
   <path id="Shape" d="m11.3 5v0.7c-1.211 0.14-2.317 0.63-3.22 1.358l-0.532-0.532-0.994 0.994 0.546 0.525c-0.77 0.931-1.253 2.065-1.4 3.255h-0.7v1.4h0.7c0.147 1.176 0.63 2.282 1.4 3.192l-0.546 0.532 0.994 0.994 0.525-0.518c0.924 0.749 2.037 1.239 3.227 1.4v0.7h1.4v-0.7c1.183-0.161 2.303-0.651 3.22-1.4l0.532 0.518 0.994-0.994-0.546-0.525c0.77-0.91 1.253-2.023 1.4-3.199h0.7v-1.4h-0.7c-0.147-1.19-0.63-2.317-1.4-3.248l0.546-0.532-0.994-0.994-0.525 0.532c-0.924-0.749-2.044-1.218-3.227-1.358v-0.7h-1.4m0 2.1v2.1l-0.7 0.35-1.533-1.505c0.637-0.476 1.4-0.826 2.233-0.945m1.4 0c0.812 0.126 1.582 0.448 2.24 0.945l-1.54 1.505-0.7-0.35v-2.1m-4.62 1.932 1.47 1.568-0.35 0.7h-2.1c0.112-0.812 0.49-1.61 0.973-2.275l7e-3 7e-3m7.84 0c0.511 0.665 0.847 1.442 0.98 2.268h-2.1l-0.35-0.7 1.477-1.568h-7e-3m-3.92 1.568c0.784 0 1.4 0.616 1.4 1.4s-0.616 1.4-1.4 1.4-1.4-0.616-1.4-1.4 0.616-1.4 1.4-1.4m-4.9 2.1h2.1l0.399 0.7-1.526 1.505c-0.504-0.637-0.84-1.393-0.973-2.205m7.7 0h2.1c-0.133 0.805-0.469 1.568-0.973 2.212l-1.477-1.512 0.35-0.7m-4.2 1.75 0.7 0.35v2.1c-0.819-0.14-1.589-0.483-2.24-1.001l1.54-1.449m2.8 0 1.533 1.449c-0.637 0.476-1.4 0.882-2.233 1.001v-2.1l0.7-0.35z" fill="#fff"/>
  </g>
 </g>
</svg>
