<svg version="1.1" viewBox="0 0 16 16" xmlns="http://www.w3.org/2000/svg">
 <title>buddhist-s</title>
 <g fill="none" fill-rule="evenodd">
  <g id="buddhist-s" fill-rule="nonzero">
   <circle id="Oval" cx="8" cy="8" r="8" fill="#fff" opacity=".6"/>
   <circle id="Oval" cx="8" cy="8" r="7.3333" fill="#7F5933"/>
   <path id="Shape" d="m7.5333 3.3333v0.46667c-0.80733 0.093333-1.5447 0.42-2.1467 0.90533l-0.35467-0.35467-0.66267 0.66267 0.364 0.35c-0.51333 0.62067-0.83533 1.3767-0.93333 2.17h-0.46667v0.93333h0.46667c0.098 0.784 0.42 1.5213 0.93333 2.128l-0.364 0.35467 0.66267 0.66267 0.35-0.34533c0.616 0.49933 1.358 0.826 2.1513 0.93333v0.46667h0.93333v-0.46667c0.78867-0.10733 1.5353-0.434 2.1467-0.93333l0.35467 0.34533 0.66267-0.66267-0.364-0.35c0.51333-0.60667 0.83533-1.3487 0.93333-2.1327h0.46667v-0.93333h-0.46667c-0.098-0.79333-0.42-1.5447-0.93333-2.1653l0.364-0.35467-0.66267-0.66267-0.35 0.35467c-0.616-0.49933-1.3627-0.812-2.1513-0.90533v-0.46667h-0.93333m0 1.4v1.4l-0.46667 0.23333-1.022-1.0033c0.42467-0.31733 0.93333-0.55067 1.4887-0.63m0.93333 0c0.54133 0.084 1.0547 0.29867 1.4933 0.63l-1.0267 1.0033-0.46667-0.23333v-1.4m-3.08 1.288 0.98 1.0453-0.23333 0.46667h-1.4c0.074667-0.54133 0.32667-1.0733 0.64867-1.5167l0.0046667 0.0046667m5.2267 0c0.34067 0.44333 0.56467 0.96133 0.65333 1.512h-1.4l-0.23333-0.46667 0.98467-1.0453h-0.0046667m-2.6133 1.0453c0.52267 0 0.93333 0.41067 0.93333 0.93333s-0.41067 0.93333-0.93333 0.93333-0.93333-0.41067-0.93333-0.93333 0.41067-0.93333 0.93333-0.93333m-3.2667 1.4h1.4l0.266 0.46667-1.0173 1.0033c-0.336-0.42467-0.56-0.92867-0.64867-1.47m5.1333 0h1.4c-0.088667 0.53667-0.31267 1.0453-0.64867 1.4747l-0.98467-1.008 0.23333-0.46667m-2.8 1.1667 0.46667 0.23333v1.4c-0.546-0.093333-1.0593-0.322-1.4933-0.66733l1.0267-0.966m1.8667 0 1.022 0.966c-0.42467 0.31733-0.93333 0.588-1.4887 0.66733v-1.4l0.46667-0.23333z" fill="#fff"/>
  </g>
 </g>
</svg>
