<?xml version="1.0" encoding="UTF-8" standalone="no"?>
<svg width="23px" height="23px" viewBox="0 0 23 23" version="1.1" xmlns="http://www.w3.org/2000/svg" xmlns:xlink="http://www.w3.org/1999/xlink">
    <!-- Generator: Sketch 3.8.3 (29802) - http://www.bohemiancoding.com/sketch -->
    <title>buddhist-m</title>
    <desc>Created with Sketch.</desc>
    <defs></defs>
    <g id="POI-Clear" stroke="none" stroke-width="1" fill="none" fill-rule="evenodd">
        <g id="buddhist-m">
            <ellipse id="Oval-1-Copy-41" fill-opacity="0.6" fill="#FFFFFF" cx="11.5" cy="11.5" rx="11.5" ry="11.5"></ellipse>
            <ellipse id="Oval-1-Copy-40" fill="#8C4D16" cx="11.5" cy="11.5" rx="10.5" ry="10.5"></ellipse>
            <path d="M11.7071068,11 L11.2928932,11 L11,11.2928932 L11,11.7071068 L11.2928932,12 L11.7071068,12 L12,11.7071068 L12,11.2928932 L11.7071068,11 Z M12,10.2928932 L12,6.02247543 C13.1428751,6.12570756 14.1849399,6.57931132 15.0184299,7.27446332 L12,10.2928932 Z M15.7254729,7.98163388 C16.4209019,8.81574479 16.8742429,9.85822064 16.9774956,11 L12.7071068,11 L15.7254729,7.98163388 Z M10.2928932,12 L6.02250443,12 C6.12575708,13.1417794 6.57909808,14.1842552 7.2745271,15.0183661 L10.2928932,12 Z M7.9815701,15.7255367 C8.81506007,16.4206887 9.85712491,16.8742924 11,16.9775246 L11,12.7071068 L7.9815701,15.7255367 Z M12.7071068,12 L16.9775246,12 C16.8742924,13.1428751 16.4206887,14.1849399 15.7255367,15.0184299 L12.7071068,12 Z M15.0183661,15.7254729 C14.1842552,16.4209019 13.1417794,16.8742429 12,16.9774956 L12,12.7071068 L15.0183661,15.7254729 Z M7.27446332,7.9815701 C6.57931132,8.81506007 6.12570756,9.85712491 6.02247543,11 L10.2928932,11 L7.27446332,7.9815701 Z M7.98163388,7.2745271 C8.81574479,6.57909808 9.85822064,6.12575708 11,6.02250443 L11,10.2928932 L7.98163388,7.2745271 Z M5.01899069,11 C5.26230288,7.80910849 7.81465417,5.2622012 11,5.01901598 L11,4 L12,4 L12,5.01899069 C15.1908915,5.26230288 17.7377988,7.81465417 17.980984,11 L19,11 L19,12 L17.9810093,12 C17.7376971,15.1908915 15.1853458,17.7377988 12,17.980984 L12,19 L11,19 L11,17.9810093 C7.80910849,17.7376971 5.2622012,15.1853458 5.01901598,12 L4,12 L4,11 L5.01899069,11 Z" id="Combined-Shape" fill="#FFFFFF"></path>
        </g>
    </g>
</svg>