<svg width="16" height="16" viewBox="0 0 16 16">
  <g fill="none" fill-rule="evenodd">
    <circle cx="8" cy="8" r="8" fill="#FFF" opacity=".6"/>
    <circle cx="8" cy="8" r="7" fill="#7F5933"/>
    <path fill="#FFF" d="M11.1954591,5.44736521 C11.6665595,6.03615718 11.9784513,6.75749517 12.0658512,7.54545455 L13,7.54545455 L13,8.45454545 L12.065882,8.45454545 C11.9784977,9.24321143 11.6664481,9.96430795 11.1955164,10.5526921 L11.2141217,10.5712974 L10.5712974,11.2141217 L10.5526348,11.1954591 C9.96384282,11.6665595 9.24250483,11.9784513 8.45454545,12.0658512 L8.45454545,13 L7.54545455,13 L7.54545455,12.065882 C6.75678857,11.9784977 6.03569205,11.6664481 5.44730791,11.1955164 L5.42870261,11.2141217 L4.78587827,10.5712974 L4.80454086,10.5526348 C4.33344046,9.96384282 4.0215487,9.24250483 3.93414881,8.45454545 L3,8.45454545 L3,7.54545455 L3.93411798,7.54545455 C4.02150235,6.75678857 4.33355186,6.03569205 4.80448357,5.44730791 L4.78587827,5.42870261 L5.42870261,4.78587827 L5.44736521,4.80454086 C6.03615718,4.33344046 6.75749517,4.0215487 7.54545455,3.93414881 L7.54545455,3 L8.45454545,3 L8.45454545,3.93411798 C9.24321143,4.02150235 9.96430795,4.33355186 10.5526921,4.80448357 L10.5712974,4.78587827 L11.2141217,5.42870261 L11.1954591,5.44736521 Z M8.18827889,7.54545455 L7.81172111,7.54545455 L7.54545455,7.81172111 L7.54545455,8.18827889 L7.81172111,8.45454545 L8.18827889,8.45454545 L8.45454545,8.18827889 L8.45454545,7.81172111 L8.18827889,7.54545455 Z M8.45454545,6.9026302 L9.90493063,5.45224502 C9.48858073,5.14020991 8.99333442,4.92772103 8.45454545,4.8504795 L8.45454545,6.9026302 Z M10.547699,6.09512531 L9.0973698,7.54545455 L11.1494836,7.54545455 C11.0722308,7.0070969 10.8598266,6.51172848 10.547699,6.09512531 Z M6.9026302,8.45454545 L4.85051641,8.45454545 C4.9277692,8.9929031 5.14017337,9.48827152 5.45230096,9.90487469 L6.9026302,8.45454545 Z M6.09506937,10.547755 C6.51141927,10.8597901 7.00666558,11.072279 7.54545455,11.1495205 L7.54545455,9.0973698 L6.09506937,10.547755 Z M9.0973698,8.45454545 L10.547755,9.90493063 C10.8597901,9.48858073 11.072279,8.99333442 11.1495205,8.45454545 L9.0973698,8.45454545 Z M9.90487469,10.547699 L8.45454545,9.0973698 L8.45454545,11.1494836 C8.9929031,11.0722308 9.48827152,10.8598266 9.90487469,10.547699 Z M5.45224502,6.09506937 C5.14020991,6.51141927 4.92772103,7.00666558 4.8504795,7.54545455 L6.9026302,7.54545455 L5.45224502,6.09506937 Z M6.09512531,5.45230096 L7.54545455,6.9026302 L7.54545455,4.85051641 C7.0070969,4.9277692 6.51172848,5.14017337 6.09512531,5.45230096 Z"/>
  </g>
</svg>
