<svg height="24" viewBox="0 0 24 24" width="24"><g fill="none" fill-rule="evenodd"><rect fill="#fff" height="24" opacity=".6" rx="2.5" width="24"/><rect fill="#2f6499" height="22" rx="2" width="22" x="1" y="1"/><path d="m7.99079514 6c-1.09258276 0-1.99079514.89112225-1.99079514 1.99037724v2.97345036l-.12261963.0657453c-.48215389.2585176-.87738037.9220754-.87738037 1.4792119v3.4824304c0 .5586967.44715386 1.0087848.99874609 1.0087848h7.03669831c-.0233584-.1633015-.0354444-.3302393-.0354444-.5 0-1.9329966 1.5670034-3.5 3.5-3.5s3.5 1.5670034 3.5 3.5c0 .1697607-.012086.3366985-.0354444.5h3.0354444v-5h-.9970707c-.5539025 0-1.0029293-.4433532-1.0029293-1.0093689v-1.9812622c0-.55745905.4378814-1.0093689 1.0029293-1.0093689h.9970707v-2zm6.00920486 3.0093689c0-.55745905.4437166-1.0093689.9998075-1.0093689h3.000385c.5521784 0 .9998075.44335318.9998075 1.0093689v1.9812622c0 .5574591-.4437166 1.0093689-.9998075 1.0093689h-3.000385c-.5521784 0-.9998075-.4433532-.9998075-1.0093689zm-6-.01233876c0-.55064454.44335318-.99703014 1.0093689-.99703014h1.9812622c.5574591 0 1.0093689.45303631 1.0093689.99703014v7.00296986h-4zm8.5 10.00296986c1.3807119 0 2.5-1.1192881 2.5-2.5s-1.1192881-2.5-2.5-2.5-2.5 1.1192881-2.5 2.5 1.1192881 2.5 2.5 2.5z" fill="#fff"/></g></svg>