<svg width="28" height="28" viewBox="0 0 28 28">
  <g fill="none" fill-rule="evenodd">
    <rect width="28" height="28" fill="#FFF" opacity=".6" rx="3.5"/>
    <rect width="26" height="26" x="1" y="1" fill="#2F6499" rx="3"/>
    <path fill="#FFF" d="M16.0354444,20 L6.99874609,20 C6.44715386,20 6,19.5439162 6,19.0008247 L6,15.1868445 C6,14.6350152 6.39522648,13.9757597 6.87738037,13.7172421 L7,13.6514969 L7,7.99036657 C7,6.89111747 7.89821238,6 8.99079514,6 L27,6 L27,8 L26.0029293,8 C25.4378814,8 25,8.44762906 25,8.99980749 L25,12.0001925 C25,12.5562834 25.4490268,13 26.0029293,13 L27,13 L27,20 L22.9645556,20 C22.987914,19.8366985 23,19.6697607 23,19.5 C23,17.5670034 21.4329966,16 19.5,16 C17.5670034,16 16,17.5670034 16,19.5 C16,19.6697607 16.012086,19.8366985 16.0354444,20 Z M16,8.99980749 L16,12.0001925 C16,12.5562834 16.4490268,13 17.0029293,13 L21.9970707,13 C22.5621186,13 23,12.5523709 23,12.0001925 L23,8.99980749 C23,8.44371665 22.5509732,8 21.9970707,8 L17.0029293,8 C16.4378814,8 16,8.44762906 16,8.99980749 Z M9,8.99539757 L9,18 L14,18 L14,8.99539757 C14,8.4556644 13.5523709,8 13.0001925,8 L9.99980749,8 C9.44371665,8 9,8.44565467 9,8.99539757 Z M19.5,22 C18.1192881,22 17,20.8807119 17,19.5 C17,18.1192881 18.1192881,17 19.5,17 C20.8807119,17 22,18.1192881 22,19.5 C22,20.8807119 20.8807119,22 19.5,22 Z"/>
  </g>
</svg>
