<svg width="16" height="16" viewBox="0 0 16 16">
  <g fill="none" fill-rule="evenodd">
    <rect width="16" height="16" fill="#FFF" opacity=".6" rx="1.5"/>
    <rect width="14" height="14" x="1" y="1" fill="#2F6499" rx="1"/>
    <path fill="#FFF" d="M8.05000906,12 L3,12 L3,6.65149687 L3,4.99668948 C3,3.89394833 3.90195036,3 5.0085302,3 L15,3 L15,5 L14.0093689,5 C13.4433532,5 13,5.44724809 13,5.99895656 L13,7.00104344 C13,7.55733967 13.4519098,8 14.0093689,8 L15,8 L15,12 L12.9499909,12 C12.9827849,11.838445 13,11.6712329 13,11.5 C13,10.1192881 11.8807119,9 10.5,9 C9.11928813,9 8,10.1192881 8,11.5 C8,11.6712329 8.01721513,11.838445 8.05000906,12 Z M8,5.99895656 L8,7.00104344 C8,7.55733967 8.45190985,8 9.0093689,8 L10.9906311,8 C11.5566468,8 12,7.55275191 12,7.00104344 L12,5.99895656 C12,5.44266033 11.5480902,5 10.9906311,5 L9.0093689,5 C8.44335318,5 8,5.44724809 8,5.99895656 Z M4,5.49100518 L4,11 L7,11 L7,5.49100518 C7,5.22788048 6.7782068,5 6.50461102,5 L4.49538898,5 C4.2157526,5 4,5.21983051 4,5.49100518 Z M10.5,13 C9.67157288,13 9,12.3284271 9,11.5 C9,10.6715729 9.67157288,10 10.5,10 C11.3284271,10 12,10.6715729 12,11.5 C12,12.3284271 11.3284271,13 10.5,13 Z"/>
  </g>
</svg>
