<?xml version="1.0" encoding="UTF-8" standalone="no"?>
<svg width="17px" height="17px" viewBox="0 0 17 17" version="1.1" xmlns="http://www.w3.org/2000/svg" xmlns:xlink="http://www.w3.org/1999/xlink">
    <!-- Generator: Sketch 3.8.3 (29802) - http://www.bohemiancoding.com/sketch -->
    <title>butcher-s</title>
    <desc>Created with Sketch.</desc>
    <defs>
        <ellipse id="path-1" cx="8.5" cy="8.5" rx="7.5" ry="7.5"></ellipse>
    </defs>
    <g id="POI-Clear" stroke="none" stroke-width="1" fill="none" fill-rule="evenodd">
        <g id="butcher-s">
            <path d="M8.5,17 C3.812,17 0,13.187 0,8.5 C0,3.813 3.812,0 8.5,0 C13.188,0 17,3.813 17,8.5 C17,13.187 13.188,17 8.5,17 L8.5,17 Z" id="Shape" fill-opacity="0.6" fill="#FFFFFF"></path>
            <g id="Oval">
                <use fill="#2D7970" xlink:href="#path-1"></use>
                <use fill="#825089" xlink:href="#path-1"></use>
            </g>
            <path d="M13.43275,6.318 L11.11475,4 L6.51875,8.596 L8.83675,10.914 C9.85975,10.539 10.82275,9.948 11.64575,9.126 C12.46675,8.304 13.05775,7.342 13.43275,6.318 L13.43275,6.318 Z M6.41775,10.192 L5.19975,11.884 C4.95175,12.216 4.51175,12.246 4.21975,11.954 C3.92675,11.661 3.92675,11.185 4.21975,10.893 L5.66975,9.443 L6.41775,10.192 L6.41775,10.192 Z" id="Shape" fill="#FFFFFF"></path>
        </g>
    </g>
</svg>