<svg width="28" height="28" viewBox="0 0 28 28">
  <g fill="none" fill-rule="evenodd">
    <rect width="28" height="28" fill="#FFF" opacity=".6" rx="3.5"/>
    <rect width="26" height="26" x="1" y="1" fill="#2F6499" rx="3"/>
    <path fill="#FFF" d="M13.7108116,7.32229711 L14.6126744,9 L16.4619459,8.99771849 L15.357121,6.91071975 L19,6 L19,4 L7,7 L7,9 L13.7108116,7.32229711 Z M13.5375581,11 L14.6126744,9 L16.4619459,9.00228151 L15.4043846,11 L16.9970707,11 C17.5621186,11 18.374141,11.2494273 18.8356673,11.5571115 L20.1643327,12.4428885 C20.6321411,12.7547607 21,13.4456547 21,13.9953976 L21,23 C21,23.5 20.5,24 20,24 L17.5,24 L15,24 L11.5,24 L9,24 C8.5,24 8,23.5 8,23 L8,13.9953976 C8,13.4556644 8.37414097,12.7505727 8.83566725,12.4428885 L10.1643327,11.5571115 C10.6321411,11.2452393 11.4490268,11 12.0029293,11 L13.5375581,11 Z M11.1052949,13.4473525 L10.8947051,13.5526475 C10.4047298,13.7976351 10,14.4519098 10,15.0093689 L10,16.9906311 C10,17.5566468 10.446616,18 10.9975446,18 L18.0024554,18 C18.5536886,18 19,17.5480902 19,16.9906311 L19,15.0093689 C19,14.4433532 18.5994269,13.7997135 18.1052949,13.5526475 L17.8947051,13.4473525 C17.4047298,13.2023649 16.5523709,13 16.0001925,13 L12.9998075,13 C12.4437166,13 11.5994269,13.2002865 11.1052949,13.4473525 Z M14,13 L14,18 L15,18 L15,13 L14,13 Z"/>
  </g>
</svg>
