<?xml version="1.0" encoding="UTF-8"?>
<svg width="24px" height="24px" viewBox="0 0 24 24" version="1.1" xmlns="http://www.w3.org/2000/svg" xmlns:xlink="http://www.w3.org/1999/xlink">
    <title>cable-car-m</title>
    <g id="Page-1" stroke="none" stroke-width="1" fill="none" fill-rule="evenodd">
        <g id="cable-car-m" fill-rule="nonzero">
            <rect id="Rectangle" fill="#FFFFFF" opacity="0.6" x="0" y="0" width="24" height="24" rx="2.5"></rect>
            <rect id="Rectangle" fill="#2F6499" x="1" y="1" width="22" height="22" rx="2"></rect>
            <path d="M16.8,15.458 L16.8,9.55 C16.8,7.597 14.973,7.17 12.593,7.107 L13.125,6.05 L15.4,6.05 L15.4,5 L8.4,5 L8.4,6.05 L11.725,6.05 L11.193,7.114 C9.002,7.177 7,7.611 7,9.55 L7,15.458 C7,16.473 7.833,17.32 8.813,17.537 L7.7,18.65 L7.7,19 L9.261,19 L10.661,17.6 L13.3,17.6 L14.7,19 L16.1,19 L16.1,18.65 L15.05,17.6 L14.994,17.6 C16.177,17.6 16.8,16.641 16.8,15.458 Z M11.9,16.55 C11.319,16.55 10.85,16.081 10.85,15.5 C10.85,14.919 11.319,14.45 11.9,14.45 C12.481,14.45 12.95,14.919 12.95,15.5 C12.95,16.081 12.481,16.55 11.9,16.55 Z M15.4,13.4 L8.4,13.4 L8.4,9.9 L15.4,9.9 L15.4,13.4 Z" id="Shape" fill="#FFFFFF"></path>
        </g>
    </g>
</svg>