<svg height="24" viewBox="0 0 24 24" width="24"><g fill="none" fill-rule="evenodd"><rect fill="#fff" height="24" opacity=".6" rx="2.5" width="24"/><rect fill="#2f6499" height="22" rx="2" width="22" x="1" y="1"/><path d="m14.1357593 5.11336598-1.6357593 2.88663402h2.4649353c.5525178 0 1.3573535.27005134 1.7987565.60317655l.3947506.29791673c.4428845.33424326.8014742 1.05429277.8042416 1.61077282l.0372233 7.4852873c.0078402.6728025-.4829944 1.0028466-.9812975 1.0028466h-8.96945581c-.4983031 0-.9966062-.5014233-1.0119149-1.0028466l-.03722336-7.4852873c-.00273996-.55098195.35281723-1.2776476.79422029-1.61077282l.39475053-.29791673c.44288451-.33424325 1.24673379-.60317655 1.79875653-.60317655h1.01225692l1.4037789-2.47725682-5.4037789 1.27725685v-1.19999999l11-2.60000004v1.19999999zm-2.1355015 4.89787412h-.9371876c-.5636763 0-1.30856623.3262758-1.68435216.7287575l-.34826654.3730073v2.8624817c0 .5505869.44750285.9928415.9995256.9928415h1.9702807zm1.0000515 0v4.957088h2.00686c.5525178 0 .9995256-.4445103.9995256-.9928415v-2.8624817l-.3230368-.360759c-.3621624-.4044534-1.1129992-.7410058-1.6674552-.7410058z" fill="#fff"/></g></svg>