<?xml version="1.0" encoding="UTF-8" standalone="no"?>
<svg width="28px" height="27px" viewBox="0 0 28 27" version="1.1" xmlns="http://www.w3.org/2000/svg" xmlns:xlink="http://www.w3.org/1999/xlink">
    <!-- Generator: Sketch 3.8.3 (29802) - http://www.bohemiancoding.com/sketch -->
    <title>cafe-l</title>
    <desc>Created with Sketch.</desc>
    <defs></defs>
    <g id="POI-Clear" stroke="none" stroke-width="1" fill="none" fill-rule="evenodd">
        <g id="cafe-l" transform="translate(0.500000, 0.000000)">
            <circle id="Oval-1" fill-opacity="0.6" fill="#FFFFFF" cx="13.5" cy="13.5" r="13.5"></circle>
            <circle id="Oval-1" fill="#AB842F" cx="13.5" cy="13.5" r="12.5"></circle>
            <path d="M8,7 C7.44599,7 7,7.446 7,8 L7,17 C7,17.554 7.44599,18 8,18 L19,18 C19.55401,18 20,17.554 20,17 L20,16 L20.5,16 C21,16 21,15.5 21,15.5 L21,15 L22,15 C23,15 24,14 24,13 L24,12 L24,10 C24,9.5 23.5,9 23,9 L20,9 L20,8 C20,7.446 19.55401,7 19,7 L8,7 Z M20,10 L22.5,10 C23,10 23,10.5 23,10.5 L23,13 C23,13.5 22.5,14 22,14 L21,14 L20,14 L20,10 Z M5,19 L6,20 L7,21 L20,21 L21,20 L22,19 L5,19 Z" id="rect9826-2-1" fill="#FFFFFF"></path>
        </g>
    </g>
</svg>