<?xml version="1.0" encoding="UTF-8"?>
<svg width="18px" height="17px" viewBox="0 0 18 17" version="1.1" xmlns="http://www.w3.org/2000/svg" xmlns:xlink="http://www.w3.org/1999/xlink">
    <!-- Generator: Sketch 39.1 (31720) - http://www.bohemiancoding.com/sketch -->
    <title>cafe-s</title>
    <desc>Created with Sketch.</desc>
    <defs>
        <circle id="path-1" cx="8.5" cy="8.5" r="7.5"></circle>
    </defs>
    <g id="POI-Clear" stroke="none" stroke-width="1" fill="none" fill-rule="evenodd">
        <g id="Artboard-1" transform="translate(-208.000000, -550.000000)">
            <g id="cafe-s" transform="translate(208.500000, 550.000000)">
                <circle id="Oval-1" fill-opacity="0.6" fill="#FFFFFF" cx="8.5" cy="8.5" r="8.5"></circle>
                <g id="Oval-1">
                    <use fill="#AB842F" xlink:href="#path-1"></use>
                    <use fill="#BB9342" xlink:href="#path-1"></use>
                </g>
                <path d="M11,5.5 L11,5 L5,5 L5,8.19935069 C5,9.49127197 5.60968015,9.99907255 6.5,9.99907255 L9.5,9.99907255 C10.0395508,9.99907255 11,9.6383667 11,9 L12,9 C12.5522847,9 13,8.54243612 13,8.00640249 L13,6.49359751 C13,5.94484876 12.5561352,5.5 12,5.5 L11,5.5 Z M11,8.25 L11,6.25 L12.25,6.25 L12.25,8.25 L11,8.25 Z M5,12 L11,12 L12,11 L4,11 L5,12 Z" id="Shape" fill="#FFFFFF"></path>
            </g>
        </g>
    </g>
</svg>