<?xml version="1.0" encoding="UTF-8"?>
<svg width="24px" height="24px" viewBox="0 0 24 24" version="1.1" xmlns="http://www.w3.org/2000/svg" xmlns:xlink="http://www.w3.org/1999/xlink">
    <title>cafe-m</title>
    <g id="Page-1" stroke="none" stroke-width="1" fill="none" fill-rule="evenodd">
        <g id="cafe-m" fill-rule="nonzero">
            <circle id="Oval" fill="#FFFFFF" opacity="0.6" cx="12" cy="12" r="12"></circle>
            <circle id="Oval" fill="#BB9342" cx="12" cy="12" r="11"></circle>
            <path d="M15.8888889,7 L7,7 L7,12.5555556 C7,13.7833333 7.99444444,14.7777778 9.22222222,14.7777778 L12.5555556,14.7777778 C13.7833333,14.7777778 14.7777778,13.7833333 14.7777778,12.5555556 L14.7777778,10.8888889 L15.8888889,10.8888889 C16.5055556,10.8888889 17,10.3888889 17,9.77777778 L17,8.11111111 C17,7.49444444 16.5055556,7 15.8888889,7 Z M15.8888889,9.77777778 L14.7777778,9.77777778 L14.7777778,8.11111111 L15.8888889,8.11111111 L15.8888889,9.77777778 Z M7,15.8888889 L15.8888889,15.8888889 L15.8888889,17 L7,17 L7,15.8888889 Z" id="Shape" fill="#FFFFFF"></path>
        </g>
    </g>
</svg>