<?xml version="1.0" encoding="utf-8"?>
<!-- Generator: Adobe Illustrator 21.0.2, SVG Export Plug-In . SVG Version: 6.00 Build 0)  -->
<svg version="1.1" id="Слой_1" xmlns="http://www.w3.org/2000/svg" xmlns:xlink="http://www.w3.org/1999/xlink" x="0px" y="0px"
	 viewBox="0 0 32.4 32.4" enable-background="new 0 0 32.4 32.4" xml:space="preserve">
<title>cafe-l</title>
<desc>Created with Sketch.</desc>
<g id="POI-Clear">
	<g id="Artboard-1" transform="translate(-137.000000, -545.000000)">
		<g id="cafe-l" transform="translate(137.500000, 545.000000)">
			<circle id="Oval-1" fill="#FFFFFF" fill-opacity="0.6" cx="15.7" cy="16.2" r="16.2"/>
			<g id="Oval-1_1_">
				<g>
					<circle id="path-1" fill="#AB842F" cx="15.7" cy="16.2" r="15"/>
				</g>
				<g>
					<circle id="path-1_1_" fill="#BB9342" cx="15.7" cy="16.2" r="15"/>
				</g>
			</g>
			<path id="Shape" fill="#FFFFFF" d="M21.1,9.6l0-1.2H7.9v8.4c0,2,1.6,3.6,3.6,3.6h6c2,0,3.6-1.5,3.6-2.4h1.2
				c1.3,0,2.4-1.1,2.4-2.4V12c0-1.3-1.1-2.4-2.4-2.4H21.1z M21.1,16.2v-4.8h1.8v4.8H21.1z M9.1,24h10.8l2.4-2.4H6.7L9.1,24z"/>
		</g>
	</g>
</g>
</svg>
