<svg version="1.1" viewBox="0 0 24 24" xmlns="http://www.w3.org/2000/svg">
 <title>campsite-m</title>
 <g fill="none" fill-rule="evenodd">
  <g id="campsite-m" fill-rule="nonzero">
   <circle id="Oval" cx="12" cy="12" r="12" fill="#fff" opacity=".6"/>
   <circle id="Oval" cx="12" cy="12" r="11" fill="#717065"/>
   <path id="Shape" d="m17.589 17.065-5.0294-8.2295 1.3413-2.1938-1.0493-0.64112-1.0118 1.656-1.0118-1.6566-1.0499 0.64174 1.3413 2.1938-5.0294 8.2295c-0.11556 0.18994-0.12048 0.42721-0.011679 0.62145 0.1088 0.19363 0.31411 0.31349 0.53663 0.31349h10.45c0.22252 0 0.42721-0.11986 0.53601-0.31411 0.1088-0.19363 0.1045-0.43151-0.011679-0.62084zm-6.6712-0.29444v-0.92204c0-0.50835 0.41369-0.92204 0.92204-0.92204 0.50835 0 0.92204 0.41369 0.92204 0.92204v0.92204h-1.8441zm3.0735 0v-0.92204c0-1.187-0.96506-2.1514-2.1514-2.1514s-2.1514 0.96445-2.1514 2.1514v0.92204h-1.9775l4.1289-6.7561 4.1283 6.7561h-1.9768z" fill="#fff"/>
  </g>
 </g>
</svg>
