<?xml version="1.0" encoding="UTF-8"?>
<svg version="1.1" viewBox="0 0 24 24" xmlns="http://www.w3.org/2000/svg">
	<title>cannon-m</title>
	<g transform="translate(.00041566 .58395)" fill="#7f5933">
		<ellipse cx="11.493" cy="13.12" rx="1.0525" ry="1.0607"/>
		<path d="m17.293 12.638c0.01044 0.61735 0.02409 1.2722 0.20874 1.8246 0.33567 1.0041 0.95552 1.9565 1.8216 2.6018 0.86605 0.64534 1.935 1.0008 3.0151 1.0032l0.0028-0.88087c-0.88661-0.0019-1.7795-0.2995-2.4904-0.82921-1.3441-1.2032-1.7147-2.2038-1.0302-3.6409z"/>
		<path d="m2.5233 4.5994-0.86524 3.1113 5.3476 1.6856a5.8211 5.8664 0 0 1 4.4863-2.1426 5.8211 5.8664 0 0 1 5.8007 5.3848l1.2207 0.38476c1.1721 0.36946 2.4033-0.35891 2.7324-1.543 0.32915-1.184-0.36088-2.4033-1.545-2.7324z"/>
		<circle cx="21.595" cy="11.6" r=".74395"/>
		<rect x="6.6119" y="12.81" width="9.7621" height=".61954" ry="0"/>
		<rect transform="rotate(90)" x="8.2386" y="-11.803" width="9.7621" height=".61954" ry="0"/>
		<rect transform="rotate(45)" x="12.523" y=".84041" width="9.7621" height=".61954" ry="0"/>
		<rect transform="rotate(135)" x="-3.7309" y="-17.713" width="9.7621" height=".61954" ry="0"/>
		<path d="m11.492 8.0078c-2.7998 0-5.0781 2.2983-5.0781 5.1113 0 2.813 2.2784 5.1133 5.0781 5.1133 2.7998 0 5.0801-2.3003 5.0801-5.1133 0-2.813-2.2803-5.1113-5.0801-5.1113zm0 1.3535c2.0617 0 3.7246 1.6716 3.7246 3.7578 0 2.0862-1.6629 3.7578-3.7246 3.7578-2.0617 0-3.7227-1.6716-3.7227-3.7578 0-2.0862 1.661-3.7578 3.7227-3.7578z"/>
	</g>
</svg>
