<svg version="1.1" viewBox="0 0 24 24" xmlns="http://www.w3.org/2000/svg">
 <title>car-part-m</title>
 <g fill="none" fill-rule="evenodd">
  <g id="car-part-m" fill-rule="nonzero">
   <circle id="Oval" cx="12" cy="12" r="12" fill="#fff" opacity=".6"/>
   <circle id="Oval" cx="12" cy="12" r="11" fill="#717065"/>
   <path id="Shape" d="m12 5c-3.85 0-7 3.15-7 7s3.15 7 7 7 7-3.15 7-7-3.15-7-7-7zm0 1.4c2.87 0 5.25 2.17 5.6 4.9h-2.1c-0.35-0.77-1.82-1.4-3.5-1.4s-3.15 0.63-3.5 1.4h-2.1c0.35-2.73 2.73-4.9 5.6-4.9zm-5.6 6.3h2.1c0.14 0.91 0.84 2.52 2.8 2.8v2.1c-2.52-0.28-4.62-2.38-4.9-4.9zm6.3 4.9v-2.1c1.96-0.28 2.59-1.89 2.8-2.8h2.1c-0.28 2.52-2.38 4.62-4.9 4.9z" fill="#fff"/>
  </g>
 </g>
</svg>
