<?xml version="1.0" encoding="utf-8"?>
<!-- Generator: Adobe Illustrator 21.0.2, SVG Export Plug-In . SVG Version: 6.00 Build 0)  -->
<svg version="1.1" id="Слой_1" xmlns="http://www.w3.org/2000/svg" xmlns:xlink="http://www.w3.org/1999/xlink" x="0px" y="0px"
	 viewBox="0 0 32.4 32.4" enable-background="new 0 0 32.4 32.4" xml:space="preserve">
<title>car-part-l</title>
<desc>Created with Sketch.</desc>
<g id="POI-Clear">
	<g id="Artboard-1" transform="translate(-677.000000, -285.000000)">
		<g id="car-part-l" transform="translate(677.000000, 285.000000)">
			<g id="POI">
				<g>
					<g id="car-repair-l">
						<g id="Layer_2">
							<path id="Shape" fill="#FFFFFF" fill-opacity="0.6" d="M16.2,32.4C7.3,32.4,0,25.1,0,16.2S7.3,0,16.2,0s16.2,7.3,16.2,16.2
								S25.1,32.4,16.2,32.4L16.2,32.4L16.2,32.4z"/>
							<path id="Shape_1_" fill="#717065" d="M31.2,16.2c0,8.3-6.7,15-15,15s-15-6.7-15-15s6.7-15,15-15S31.2,7.9,31.2,16.2
								L31.2,16.2L31.2,16.2z"/>
							<g id="noun_79131_cc" transform="translate(6.000000, 4.000000)">
								<g id="Group">
									<g id="Shape_2_">
										<g id="Combined-Shape">
											<g>
												<path id="path-1" fill="#FFFFFF" d="M1.4,3.2C1.9,2.1,3,1.4,4.2,1.4S6.5,2.1,7,3.2h6.5c0.5-1.1,1.5-1.8,2.8-1.8
													c1.2,0,2.3,0.7,2.8,1.8h-3.4v2.4H19c-0.5,1.1-1.5,1.8-2.8,1.8c-1.2,0-2.3-0.7-2.8-1.8H7C6.5,6.7,5.4,7.4,4.2,7.4
													S1.9,6.7,1.4,5.6h3.4V3.2H1.4z M18,14l-1.8-4.8C16,8.6,15.6,8,14.4,8H6C4.8,8,4.4,8.6,4.2,9.2L2.4,14l-1.2,1.2v6h2.4
													v1.2c0,0.6,0.6,1.2,1.2,1.2H6c0.6,0,1.2-0.6,1.2-1.2v-1.2h6v1.2c0,0.6,0.6,1.2,1.2,1.2h1.2c0.6,0,1.2-0.6,1.2-1.2v-1.2
													h2.4v-6L18,14z M6,18.8H3.6v-2.4H6V18.8z M5.4,14l1.2-3.6h7.2L15,14H5.4z M16.8,18.8h-2.4v-2.4h2.4V18.8z"/>
											</g>
											<g>
												<path id="path-1_1_" fill="#FFFFFF" d="M1.4,3.2C1.9,2.1,3,1.4,4.2,1.4S6.5,2.1,7,3.2h6.5c0.5-1.1,1.5-1.8,2.8-1.8
													c1.2,0,2.3,0.7,2.8,1.8h-3.4v2.4H19c-0.5,1.1-1.5,1.8-2.8,1.8c-1.2,0-2.3-0.7-2.8-1.8H7C6.5,6.7,5.4,7.4,4.2,7.4
													S1.9,6.7,1.4,5.6h3.4V3.2H1.4z M18,14l-1.8-4.8C16,8.6,15.6,8,14.4,8H6C4.8,8,4.4,8.6,4.2,9.2L2.4,14l-1.2,1.2v6h2.4
													v1.2c0,0.6,0.6,1.2,1.2,1.2H6c0.6,0,1.2-0.6,1.2-1.2v-1.2h6v1.2c0,0.6,0.6,1.2,1.2,1.2h1.2c0.6,0,1.2-0.6,1.2-1.2v-1.2
													h2.4v-6L18,14z M6,18.8H3.6v-2.4H6V18.8z M5.4,14l1.2-3.6h7.2L15,14H5.4z M16.8,18.8h-2.4v-2.4h2.4V18.8z"/>
											</g>
										</g>
									</g>
								</g>
							</g>
						</g>
						<g id="Layer_1" transform="translate(6.000000, 10.000000)">
						</g>
					</g>
				</g>
			</g>
		</g>
	</g>
</g>
</svg>
