<svg width="16" height="16" viewBox="0 0 16 16">
  <g fill="none" fill-rule="evenodd">
    <circle cx="8" cy="8" r="8" fill="#FFF" opacity=".6"/>
    <circle cx="8" cy="8" r="7" fill="#717065"/>
    <path fill="#FFF" fill-rule="nonzero" d="M5.1625,4 L5,4.8 L4.925,4.8 C4.405,4.8 4,5.205 4,5.725 L4,7.2 L4,7.6 L4,8.125 C4,8.285 4.115,8.4 4.275,8.4 L5.325,8.4 C5.485,8.4 5.6,8.285 5.6,8.125 L5.6,7.6 L10.4,7.6 L10.4,8.125 C10.4,8.285 10.515,8.4 10.675,8.4 L11.725,8.4 C11.885,8.4 12,8.285 12,8.125 L12,7.6 L12,7.2 L12,5.725 C12,5.205 11.595,4.8 11.075,4.8 L11,4.8 L10.8375,4 L5.1625,4 Z M5.075,5.6 L5.7625,5.6 C5.8825,5.6 6,5.715 6,5.875 L6,6.125 C6,6.285 5.885,6.4 5.725,6.4 L5.075,6.4 C4.915,6.4 4.8,6.285 4.8,6.125 L4.8,5.875 C4.8,5.715 4.915,5.6 5.075,5.6 Z M10.275,5.6 L10.9625,5.6 C11.0825,5.6 11.2,5.715 11.2,5.875 L11.2,6.125 C11.2,6.285 11.085,6.4 10.925,6.4 L10.2375,6.4 C10.1175,6.4 10,6.285 10,6.125 L10,5.875 C10,5.715 10.115,5.6 10.275,5.6 Z M4,9 L4,10 L5,10 L5,11 L6,11 L6,10 L10.00118,10 L10.00118,11 L11,11 L11,10 L12,10 L12,9 L4,9 Z"/>
  </g>
</svg>
