<svg width="28" height="28" viewBox="0 0 28 28">
  <g fill="none" fill-rule="evenodd">
    <circle cx="14" cy="14" r="14" fill="#FFF" opacity=".6"/>
    <circle cx="14" cy="14" r="13" fill="#717065"/>
    <path fill="#FFF" fill-rule="nonzero" d="M9.034375,7 L8.75,8.4 L8.61875,8.4 C7.70875,8.4 7,9.10875 7,10.01875 L7,12.6 L7,13.3 L7,14.21875 C7,14.49875 7.20125,14.7 7.48125,14.7 L9.31875,14.7 C9.59875,14.7 9.8,14.49875 9.8,14.21875 L9.8,13.3 L18.2,13.3 L18.2,14.21875 C18.2,14.49875 18.40125,14.7 18.68125,14.7 L20.51875,14.7 C20.79875,14.7 21,14.49875 21,14.21875 L21,13.3 L21,12.6 L21,10.01875 C21,9.10875 20.29125,8.4 19.38125,8.4 L19.25,8.4 L18.965625,7 L9.034375,7 Z M12.6,8.4 L15.4,8.4 C15.82,8.4 16.1,8.75 16.1,9.1 L16.1,10.5 C16.1,10.92 15.75,11.2 15.4,11.2 L12.6,11.2 C12.25,11.2 11.9,10.85 11.9,10.5 L11.9,9.1 C11.9,8.68 12.25,8.4 12.6,8.4 Z M8.88125,9.8 L10.084375,9.8 C10.294375,9.8 10.5,10.00125 10.5,10.28125 L10.5,10.71875 C10.5,10.99875 10.29875,11.2 10.01875,11.2 L8.88125,11.2 C8.60125,11.2 8.4,10.99875 8.4,10.71875 L8.4,10.28125 C8.4,10.00125 8.60125,9.8 8.88125,9.8 Z M17.98125,9.8 L19.184375,9.8 C19.394375,9.8 19.6,10.00125 19.6,10.28125 L19.6,10.71875 C19.6,10.99875 19.39875,11.2 19.11875,11.2 L17.915625,11.2 C17.705625,11.2 17.5,10.99875 17.5,10.71875 L17.5,10.28125 C17.5,10.00125 17.70125,9.8 17.98125,9.8 Z M7,15.4 L7,16.8 L9.8,16.8 L9.8,18.2 L8.4,18.2 L10.5,21 L12.6,18.2 L11.2,18.2 L11.2,16.8 L16.8,16.8 L16.8,18.2 L15.4,18.2 L17.5,21 L19.6,18.2 L18.2,18.2 L18.2,16.8 L21,16.8 L21,15.4 L7,15.4 Z"/>
  </g>
</svg>
