<?xml version="1.0" encoding="UTF-8" standalone="no"?>
<svg width="27px" height="27px" viewBox="0 0 27 27" version="1.1" xmlns="http://www.w3.org/2000/svg" xmlns:xlink="http://www.w3.org/1999/xlink">
    <!-- Generator: Sketch 3.8.3 (29802) - http://www.bohemiancoding.com/sketch -->
    <title>car-wash-l</title>
    <desc>Created with Sketch.</desc>
    <defs>
        <path d="M20,15 L18.5,11 C18.312,10.5 18,10 17,10 L10,10 C9,10 8.688,10.5 8.5,11 L7,15 L6,16 L6,21 L8,21 L8,22 C8,22.5 8.5,23 9,23 L10,23 C10.5,23 11,22.5 11,22 L11,21 L16,21 L16,22 C16,22.5 16.5,23 17,23 L18,23 C18.5,23 19,22.5 19,22 L19,21 L21,21 L21,16 L20,15 Z M10,19 L8,19 L8,17 L10,17 L10,19 Z M9.5,15 L10.5,12 L16.5,12 L17.5,15 L9.5,15 Z M19,19 L17,19 L17,17 L19,17 L19,19 Z" id="path-1"></path>
    </defs>
    <g id="POI-Clear" stroke="none" stroke-width="1" fill="none" fill-rule="evenodd">
        <g id="car-wash-l">
            <g id="car-part-l">
                <g id="POI">
                    <g id="car-repair-l">
                        <g id="Layer_2">
                            <path d="M13.5,27 C6.056,27 0,20.943 0,13.5 C0,6.057 6.056,0 13.5,0 C20.944,0 27,6.057 27,13.5 C27,20.943 20.944,27 13.5,27 L13.5,27 L13.5,27 Z" id="Shape" fill-opacity="0.6" fill="#FFFFFF"></path>
                            <path d="M26,13.5 C26,20.403 20.403,26 13.5,26 C6.597,26 1,20.403 1,13.5 C1,6.597 6.597,1 13.5,1 C20.403,1 26,6.597 26,13.5 L26,13.5 L26,13.5 Z" id="Shape" fill="#717065"></path>
                            <g id="Combined-Shape" fill="#FFFFFF">
                                <use xlink:href="#path-1"></use>
                                <use xlink:href="#path-1"></use>
                            </g>
                            <path d="M7,6.4 C7,7.28 7.675,8 8.5,8 C9.325,8 10,7.28 10,6.4 C10,5.52 8.5,4 8.5,4 C8.5,4 7,5.52 7,6.4 Z" id="Shape" fill="#FFFFFF"></path>
                            <path d="M13.5,4 C13.5,4 12,5.52 12,6.4 C12,7.28 12.675,8 13.5,8 C14.325,8 15,7.28 15,6.4 C15,5.52 13.5,4 13.5,4 L13.5,4 Z" id="Shape" fill="#FFFFFF"></path>
                            <path d="M18.5,4 C18.5,4 17,5.52 17,6.4 C17,7.28 17.675,8 18.5,8 C19.325,8 20,7.28 20,6.4 C20,5.52 18.5,4 18.5,4 L18.5,4 Z" id="Shape" fill="#FFFFFF"></path>
                            <g id="noun_79131_cc" transform="translate(6.000000, 4.000000)">
                                <g id="Group">
                                    <g id="Shape"></g>
                                </g>
                            </g>
                        </g>
                        <g id="Layer_1" transform="translate(6.000000, 10.000000)"></g>
                    </g>
                </g>
            </g>
        </g>
    </g>
</svg>