<svg width="16" height="16" viewBox="0 0 16 16">
  <g fill="none" fill-rule="evenodd">
    <circle cx="8" cy="8" r="8" fill="#FFF" opacity=".6"/>
    <circle cx="8" cy="8" r="7" fill="#717065"/>
    <path fill="#FFF" fill-rule="nonzero" d="M5.2,4 C4.5418182,4 4,4.52676769 4,5.16666667 L4,6.72222222 L4,7.88888889 C4,8.12222222 4.16,8.27777778 4.4,8.27777778 L4.8,8.27777778 C4.8,7.85 5.16,7.5 5.6,7.5 C6.04,7.5 6.4,7.85 6.4,8.27777778 L9.6,8.27777778 C9.6,7.85 9.96,7.5 10.4,7.5 C10.84,7.5 11.2,7.85 11.2,8.27777778 L11.6,8.27777778 C11.84,8.27777778 12,8.12222222 12,7.88888889 L12,6.88020833 C12,6.56909722 11.7575,6.25555556 11.4375,6.13888889 L10.4,5.71354167 L9.35,4.46180556 C9.34796,4.45932444 9.33956,4.46427111 9.3375,4.46180556 C9.1044556,4.18287309 8.770062,4 8.4,4 L5.2,4 Z M5.2,4.77777778 L8.4,4.77777778 C8.5066668,4.77777778 8.6381352,4.84235161 8.725,4.94791667 L9.2375,6 L4.8,6 L4.8,5.16666667 C4.8,4.95101008 4.9781818,4.77777778 5.2,4.77777778 Z M5.6,9.66666667 C4.94199604,9.66666667 4.4,10.1936076 4.4,10.8333333 C4.4,11.4730591 4.94199604,12 5.6,12 C6.11680728,12 6.55771288,11.6716786 6.725,11.2222222 L7.3125,11.2222222 C7.4509172,11.4543484 7.7041584,11.6111111 8,11.6111111 C8.2958416,11.6111111 8.5490828,11.4543484 8.6875,11.2222222 L9.275,11.2222222 C9.4422872,11.6716786 9.8831928,12 10.4,12 C11.058004,12 11.6,11.4730594 11.6,10.8333333 C11.6,10.1936072 11.058004,9.66666667 10.4,9.66666667 C9.8831928,9.66666667 9.4422872,9.99498806 9.275,10.4444444 L8.6875,10.4444444 C8.5490828,10.2123182 8.2958416,10.0555556 8,10.0555556 C7.7041584,10.0555556 7.4509172,10.2123182 7.3125,10.4444444 L6.725,10.4444444 C6.55771288,9.99498806 6.11680728,9.66666667 5.6,9.66666667 Z"/>
  </g>
</svg>
