<svg height="24" viewBox="0 0 24 24" width="24"><g fill="none" fill-rule="evenodd"><circle cx="12" cy="12" fill="#fff" opacity=".6" r="12"/><circle cx="12" cy="12" fill="#717065" r="11"/><path d="m7.8 6c-.9872727 0-1.8.75252528-1.8 1.66666667v2.22222222 1.66666671c0 .3333333.24.5555555.6.5555555h.6c0-.6111111.54-1.1111111 1.2-1.1111111s1.2.5 1.2 1.1111111h4.8c0-.6111111.54-1.1111111 1.2-1.1111111s1.2.5 1.2 1.1111111h.6c.36 0 .6-.2222222.6-.5555555v-1.4409723c0-.44444441-.36375-.89236108-.84375-1.05902774l-1.55625-.60763889-1.575-1.78819445c-.00306-.00354444-.01566.00352222-.01875 0-.3495666-.39847494-.851157-.65972222-1.40625-.65972222zm0 1.11111111h4.8c.1600002 0 .3572028.09224833.4875.24305556l.76875.86805555h-6.65625v-.55555555c0-.30808084.2672727-.55555556.6-.55555556zm.6 6.55555559c-.98700594 0-1.8.7527727-1.8 1.6666666s.81299406 1.6666667 1.8 1.6666667c.77521092 0 1.43656932-.4690306 1.6875-1.1111111h.88125c.2076258.3316089.5874876.5555555 1.03125.5555555s.8236242-.2239466 1.03125-.5555555h.88125c.2509308.6420805.9122892 1.1111111 1.6875 1.1111111.987006 0 1.8-.7527722 1.8-1.6666667 0-.9138944-.812994-1.6666666-1.8-1.6666666-.7752108 0-1.4365692.4690305-1.6875 1.1111111h-.88125c-.2076258-.3316089-.5874876-.5555556-1.03125-.5555556s-.8236242.2239467-1.03125.5555556h-.88125c-.25093068-.6420806-.91228908-1.1111111-1.6875-1.1111111zm0 1.1111111c.33847746 0 .6.2421505.6.5555555s-.26152254.5555556-.6.5555556-.6-.2421506-.6-.5555556.26152254-.5555555.6-.5555555zm7.2 0c.3384768 0 .6.2421511.6.5555555 0 .3134045-.2615232.5555556-.6.5555556s-.6-.2421511-.6-.5555556c0-.3134044.2615232-.5555555.6-.5555555z" fill="#fff" fill-rule="nonzero"/></g></svg>