<?xml version="1.0" encoding="UTF-8" standalone="no"?>
<svg width="17px" height="17px" viewBox="0 0 17 17" version="1.1" xmlns="http://www.w3.org/2000/svg" xmlns:xlink="http://www.w3.org/1999/xlink">
    <!-- Generator: Sketch 3.8.3 (29802) - http://www.bohemiancoding.com/sketch -->
    <title>car-repair-s</title>
    <desc>Created with Sketch.</desc>
    <defs>
        <path d="M12.452,6.249 L11.66,3.528 C11.561,3.264 11.396,3 10.867,3 L6.131,3 C5.602,3 5.437,3.264 5.338,3.528 L4.546,6.249 L4,6.779 L4,9.955 L5,9.955 L5,10.471 C5,10.735 5.265,10.999 5.529,10.999 L6.472,10.999 C6.736,10.999 7,10.734 7,10.471 L7,9.955 L10,9.955 L10,10.471 C10,10.735 10.264,10.999 10.528,10.999 L11.471,10.999 C11.735,10.999 12,10.734 12,10.471 L12,9.955 L13,9.955 L13,6.779 L12.452,6.249 L12.452,6.249 Z M5.998,8.999 L4.998,8.999 L4.998,7.999 L5.998,7.999 L5.998,8.999 L5.998,8.999 Z M5.865,5.999 L6.394,3.999 L10.602,3.999 L11.131,5.999 L5.865,5.999 L5.865,5.999 Z M11.998,8.999 L10.998,8.999 L10.998,7.999 L11.998,7.999 L11.998,8.999 Z M4,12 L13,12 L13,13 L4,13 L4,12 Z" id="path-1"></path>
    </defs>
    <g id="POI-Clear" stroke="none" stroke-width="1" fill="none" fill-rule="evenodd">
        <g id="car-repair-s">
            <path d="M8.5,17 C3.813,17 0,13.187 0,8.5 C0,3.813 3.813,0 8.5,0 C13.187,0 17,3.813 17,8.5 C17,13.187 13.187,17 8.5,17 L8.5,17 Z" id="Shape" fill-opacity="0.6" fill="#FFFFFF"></path>
            <ellipse id="Oval" fill="#717065" cx="8.5" cy="8.5" rx="7.5" ry="7.5"></ellipse>
            <g id="Combined-Shape" fill="#FFFFFF">
                <use xlink:href="#path-1"></use>
                <use xlink:href="#path-1"></use>
            </g>
        </g>
    </g>
</svg>