<?xml version="1.0" encoding="utf-8"?>
<!-- Generator: Adobe Illustrator 21.0.2, SVG Export Plug-In . SVG Version: 6.00 Build 0)  -->
<svg version="1.1" id="Слой_1" xmlns="http://www.w3.org/2000/svg" xmlns:xlink="http://www.w3.org/1999/xlink" x="0px" y="0px"
	 viewBox="0 0 32.4 32.4" enable-background="new 0 0 32.4 32.4" xml:space="preserve">
<title>car-repair-l</title>
<desc>Created with Sketch.</desc>
<g id="POI-Clear">
	<g id="Artboard-1" transform="translate(-677.000000, -137.000000)">
		<g id="car-repair-l" transform="translate(677.000000, 137.000000)">
			<g id="Layer_2">
				<path id="Shape" fill="#FFFFFF" fill-opacity="0.6" d="M16.2,32.4C7.3,32.4,0,25.1,0,16.2S7.3,0,16.2,0s16.2,7.3,16.2,16.2
					S25.1,32.4,16.2,32.4L16.2,32.4z"/>
				<path id="Shape_1_" fill="#717065" d="M31.2,16.2c0,8.3-6.7,15-15,15s-15-6.7-15-15s6.7-15,15-15S31.2,7.9,31.2,16.2L31.2,16.2z
					"/>
			</g>
			<g id="Layer_1" transform="translate(6.000000, 5.000000)">
				<g id="Shape_2_">
					<g>
						<path id="path-1" fill="#FFFFFF" d="M1.2,20.2h7.2v2.4H12v-2.4h7.2v-2.4h-18V20.2L1.2,20.2z M18,7l-1.8-4.8
							C16,1.6,15.6,1,14.4,1H6C4.8,1,4.4,1.6,4.2,2.2L2.4,7L1.2,8.2v6h2.4v1.2c0,0.6,0.6,1.2,1.2,1.2H6c0.6,0,1.2-0.6,1.2-1.2v-1.2
							h6v1.2c0,0.6,0.6,1.2,1.2,1.2h1.2c0.6,0,1.2-0.6,1.2-1.2v-1.2h2.4v-6L18,7L18,7z M6,11.8H3.6V9.4H6V11.8L6,11.8z M5.4,7
							l1.2-3.6h7.2L15,7H5.4L5.4,7z M16.8,11.8h-2.4V9.4h2.4V11.8L16.8,11.8z"/>
					</g>
					<g>
						<path id="path-1_1_" fill="#FFFFFF" d="M1.2,20.2h7.2v2.4H12v-2.4h7.2v-2.4h-18V20.2L1.2,20.2z M18,7l-1.8-4.8
							C16,1.6,15.6,1,14.4,1H6C4.8,1,4.4,1.6,4.2,2.2L2.4,7L1.2,8.2v6h2.4v1.2c0,0.6,0.6,1.2,1.2,1.2H6c0.6,0,1.2-0.6,1.2-1.2v-1.2
							h6v1.2c0,0.6,0.6,1.2,1.2,1.2h1.2c0.6,0,1.2-0.6,1.2-1.2v-1.2h2.4v-6L18,7L18,7z M6,11.8H3.6V9.4H6V11.8L6,11.8z M5.4,7
							l1.2-3.6h7.2L15,7H5.4L5.4,7z M16.8,11.8h-2.4V9.4h2.4V11.8L16.8,11.8z"/>
					</g>
				</g>
			</g>
		</g>
	</g>
</g>
</svg>
