<?xml version="1.0" encoding="UTF-8" standalone="no"?>
<svg width="27px" height="27px" viewBox="0 0 27 27" version="1.1" xmlns="http://www.w3.org/2000/svg" xmlns:xlink="http://www.w3.org/1999/xlink">
    <!-- Generator: Sketch 3.8.3 (29802) - http://www.bohemiancoding.com/sketch -->
    <title>car-part-l</title>
    <desc>Created with Sketch.</desc>
    <defs>
        <path d="M0.208021843,2 C0.593800154,1.11704761 1.47484048,0.5 2.5,0.5 C3.52515952,0.5 4.40619985,1.11704761 4.79197816,2 L10.2080218,2 C10.5938002,1.11704761 11.4748405,0.5 12.5,0.5 C13.5251595,0.5 14.4061998,1.11704761 14.7919782,2 L12,2 L12,4 L14.7919782,4 C14.4061998,4.88295239 13.5251595,5.5 12.5,5.5 C11.4748405,5.5 10.5938002,4.88295239 10.2080218,4 L4.79197816,4 C4.40619985,4.88295239 3.52515952,5.5 2.5,5.5 C1.47484048,5.5 0.593800154,4.88295239 0.208021843,4 L3,4 L3,2 L0.208021843,2 Z M14,11 L12.5,7 C12.312,6.5 12,6 11,6 L4,6 C3,6 2.688,6.5 2.5,7 L1,11 L0,12 L0,17 L2,17 L2,18 C2,18.5 2.5,19 3,19 L4,19 C4.5,19 5,18.5 5,18 L5,17 L10,17 L10,18 C10,18.5 10.5,19 11,19 L12,19 C12.5,19 13,18.5 13,18 L13,17 L15,17 L15,12 L14,11 Z M4,15 L2,15 L2,13 L4,13 L4,15 Z M3.5,11 L4.5,8 L10.5,8 L11.5,11 L3.5,11 Z M13,15 L11,15 L11,13 L13,13 L13,15 Z" id="path-1"></path>
    </defs>
    <g id="POI-Clear" stroke="none" stroke-width="1" fill="none" fill-rule="evenodd">
        <g id="car-part-l">
            <g id="POI">
                <g>
                    <g id="car-repair-l">
                        <g id="Layer_2">
                            <path d="M13.5,27 C6.056,27 0,20.943 0,13.5 C0,6.057 6.056,0 13.5,0 C20.944,0 27,6.057 27,13.5 C27,20.943 20.944,27 13.5,27 L13.5,27 L13.5,27 Z" id="Shape" fill-opacity="0.6" fill="#FFFFFF"></path>
                            <path d="M26,13.5 C26,20.403 20.403,26 13.5,26 C6.597,26 1,20.403 1,13.5 C1,6.597 6.597,1 13.5,1 C20.403,1 26,6.597 26,13.5 L26,13.5 L26,13.5 Z" id="Shape" fill="#717065"></path>
                            <g id="noun_79131_cc" transform="translate(6.000000, 4.000000)" fill="#FFFFFF">
                                <g id="Group">
                                    <g id="Shape">
                                        <g id="Combined-Shape">
                                            <use xlink:href="#path-1"></use>
                                            <use xlink:href="#path-1"></use>
                                        </g>
                                    </g>
                                </g>
                            </g>
                        </g>
                        <g id="Layer_1" transform="translate(6.000000, 10.000000)"></g>
                    </g>
                </g>
            </g>
        </g>
    </g>
</svg>