<?xml version="1.0" encoding="UTF-8" standalone="no"?>
<svg
   xmlns:svg="http://www.w3.org/2000/svg"
   xmlns="http://www.w3.org/2000/svg"
   xmlns:sodipodi="http://sodipodi.sourceforge.net/DTD/sodipodi-0.dtd"
   xmlns:inkscape="http://www.inkscape.org/namespaces/inkscape"
   inkscape:version="1.1-dev (1:0.92.0+devel+202005110039+9ce7266)"
   sodipodi:docname="car-repair-m.svg"
   id="svg1276"
   version="1.1"
   viewBox="0 0 24 24"
   height="24"
   width="24">
  <defs
     id="defs1280" />
  <title
     id="title1266">car-repair-m</title>
  <g
     transform="scale(1.5)"
     fill-rule="evenodd"
     fill="none"
     stroke-width="1"
     stroke="none"
     id="Page-1">
    <g
       fill-rule="nonzero"
       id="car-repair-m">
      <circle
         r="8"
         cy="8"
         cx="8"
         opacity="0.6"
         fill="#ffffff"
         id="Oval" />
      <circle
         r="7.3333335"
         cy="8"
         cx="8"
         fill="#717065"
         id="circle1269" />
      <g
         fill="#ffffff"
         transform="translate(4,3.333333)"
         id="Group">
        <path
           id="Shape"
           d="m 1.4736842,5.8947368 v -0.491228 h 4.9122807 v 0.491228 c 0,0.2701755 0.2210526,0.4912281 0.4912281,0.4912281 v 0 c 0.2701754,0 0.491228,-0.2210526 0.491228,-0.4912281 V 2.7950877 c 0,0 -0.6582456,-1.9796491 -0.7663157,-2.30385963 -0.024561,-0.0785965 -0.058947,-0.14245614 -0.093333,-0.19649123 -0.00982,-0.009825 -0.014737,-0.0196491 -0.024561,-0.034386 C 6.2975439,0.00491228 6.0322807,0 6.0322807,0 H 1.8273684 c 0,0 -0.2652631,0.00491228 -0.4519298,0.26526316 -0.00982,0.009825 -0.014737,0.0196491 -0.024561,0.0294737 C 1.3164916,0.34877196 1.2821056,0.4126316 1.2575446,0.49122809 1.1494737,0.8154386 0.49122807,2.7950877 0.49122807,2.7950877 v 3.0996491 c 0,0.2701755 0.22105263,0.4912281 0.49122807,0.4912281 v 0 c 0.27017546,0 0.49122806,-0.2210526 0.49122806,-0.4912281 z M 2.4561404,4.1754386 c -0.2701755,0 -0.4912281,-0.2210526 -0.4912281,-0.4912281 0,-0.2701754 0.2210526,-0.491228 0.4912281,-0.491228 0.2701754,0 0.491228,0.2210526 0.491228,0.491228 0,0.2701755 -0.2210526,0.4912281 -0.491228,0.4912281 z m 2.9473684,0 c -0.2701755,0 -0.4912281,-0.2210526 -0.4912281,-0.4912281 0,-0.2701754 0.2210526,-0.491228 0.4912281,-0.491228 0.2701754,0 0.491228,0.2210526 0.491228,0.491228 0,0.2701755 -0.2210526,0.4912281 -0.491228,0.4912281 z M 2.1270175,0.98245614 H 5.7326316 L 5.845614,1.3214035 6.0568421,1.9649123 H 1.802807 Z" />
        <path
           id="Path"
           d="m 0,7.3733333 v 0 C 0,7.6385965 0.22105263,7.8596491 0.48631579,7.8596491 H 3.4385965 v 0.9873684 c 0,0.2701755 0.2210526,0.4863158 0.4863158,0.4863158 h 0.00491 c 0.2701777,0 0.486318,-0.2210526 0.486318,-0.4863158 V 7.8596491 H 7.368421 c 0.2701755,0 0.4863158,-0.2210526 0.4863158,-0.4863158 v 0 c 0,-0.2701754 -0.2210526,-0.4863158 -0.4863158,-0.4863158 H 0.48631579 C 0.22105263,6.8821053 0,7.1031579 0,7.3733333 Z" />
      </g>
    </g>
  </g>
</svg>
