<?xml version="1.0" encoding="UTF-8"?>
<svg width="24px" height="24px" viewBox="0 0 24 24" version="1.1" xmlns="http://www.w3.org/2000/svg" xmlns:xlink="http://www.w3.org/1999/xlink">
    <title>car_sharing-m</title>
    <g id="Page-1" stroke="none" stroke-width="1" fill="none" fill-rule="evenodd">
        <g id="car_sharing-m" fill-rule="nonzero">
            <circle id="Oval" fill="#FFFFFF" opacity="0.6" cx="12" cy="12" r="12"></circle>
            <circle id="Oval" fill="#717065" cx="12" cy="12" r="11"></circle>
            <path d="M9.92978712,8.85537212 C10.7653577,8.85537212 11.4788065,8.31546496 11.7487601,7.56987887 L15.0717601,7.56987887 L15.0717601,8.2126255 C15.0717601,8.56613614 15.3609961,8.85537212 15.7145067,8.85537212 C16.0680174,8.85537212 16.3572534,8.56613614 16.3572534,8.2126255 L16.3572534,7.56987887 L16.3572534,7.56987887 C16.710764,7.56987887 17,7.28064289 17,6.92713224 C17,6.5736216 16.710764,6.28438562 16.3572534,6.28438562 L11.7487601,6.28438562 C11.4402417,5.41667767 10.5403964,4.84463318 9.54413914,5.03745716 C8.79212559,5.18528889 8.1815163,5.80232565 8.03368457,6.5543392 C7.80872325,7.77555779 8.74070586,8.85537212 9.92978712,8.85537212 Z M9.92978712,6.28438562 C10.2832978,6.28438562 10.5725337,6.5736216 10.5725337,6.92713224 C10.5725337,7.28064289 10.2832978,7.56987887 9.92978712,7.56987887 C9.57627647,7.56987887 9.28704049,7.28064289 9.28704049,6.92713224 C9.28704049,6.5736216 9.57627647,6.28438562 9.92978712,6.28438562 Z M15.3224313,10.1408654 L9.67911593,10.1408654 C9.40273488,10.1408654 9.15849117,10.3208344 9.06850664,10.5779331 L8.00154724,13.7980937 L8.00154724,17.8538249 C8.00154724,18.2073355 8.29078322,18.4965715 8.64429387,18.4965715 C8.99780451,18.4965715 9.28704049,18.2073355 9.28704049,17.8538249 L9.28704049,17.2110783 L15.7145067,17.2110783 L15.7145067,17.8538249 C15.7145067,18.2073355 16.0037427,18.4965715 16.3572534,18.4965715 C16.710764,18.4965715 17,18.2073355 17,17.8538249 L17,13.7980937 L15.9330406,10.5779331 C15.8430561,10.3208344 15.5988124,10.1408654 15.3224313,10.1408654 Z M10.5725337,15.6042117 C10.2190231,15.6042117 9.92978712,15.3149757 9.92978712,14.9614651 C9.92978712,14.6079544 10.2190231,14.3187184 10.5725337,14.3187184 C10.9260444,14.3187184 11.2152804,14.6079544 11.2152804,14.9614651 C11.2152804,15.3149757 10.9260444,15.6042117 10.5725337,15.6042117 Z M14.4290135,15.6042117 C14.0755029,15.6042117 13.7862669,15.3149757 13.7862669,14.9614651 C13.7862669,14.6079544 14.0755029,14.3187184 14.4290135,14.3187184 C14.7825241,14.3187184 15.0717601,14.6079544 15.0717601,14.9614651 C15.0717601,15.3149757 14.7825241,15.6042117 14.4290135,15.6042117 Z M9.71768073,12.7118519 L10.1418935,11.4263586 L14.8596537,11.4263586 L15.2838665,12.7118519 L9.71768073,12.7118519 Z" id="Shape" fill="#FFFFFF"></path>
        </g>
    </g>
</svg>