<?xml version="1.0" encoding="utf-8"?>
<!-- Generator: Adobe Illustrator 21.0.2, SVG Export Plug-In . SVG Version: 6.00 Build 0)  -->
<svg version="1.1" id="Слой_1" xmlns="http://www.w3.org/2000/svg" xmlns:xlink="http://www.w3.org/1999/xlink" x="0px" y="0px"
	 viewBox="0 0 32.4 32.4" enable-background="new 0 0 32.4 32.4" xml:space="preserve">
<title>car_sharing-l</title>
<desc>Created with Sketch.</desc>
<g id="POI-Clear">
	<g id="Artboard-1" transform="translate(-677.000000, -211.000000)">
		<g id="car-sharing-l" transform="translate(677.000000, 211.000000)">
			<g id="car-part-l">
				<g id="POI">
					<g id="car-repair-l">
						<g id="Layer_2">
							<path id="Shape" fill="#FFFFFF" fill-opacity="0.6" d="M16.2,32.4C7.3,32.4,0,25.1,0,16.2S7.3,0,16.2,0s16.2,7.3,16.2,16.2
								S25.1,32.4,16.2,32.4L16.2,32.4L16.2,32.4z"/>
							<path id="Shape_1_" fill="#717065" d="M16.2,31.2c-8.3,0-15-6.7-15-15s6.7-15,15-15s15,6.7,15,15S24.5,31.2,16.2,31.2z"/>
							<g id="noun_79131_cc" transform="translate(6.000000, 4.000000)">
								<g id="Group">
									<g id="Shape_2_">
										<g id="Combined-Shape">
											<g>
												<path id="path-1" fill="#FFFFFF" d="M8.2,2.6h7.4l1.2,1.2l-2.4,1.8l-1.2-1.2L12,5.6l-1.2-1.2L9.6,5.6L8.2,4.8
													c-0.4,1.2-1.5,2-2.8,2c-1.7,0-3-1.3-3-3s1.3-3,3-3C6.6,0.8,7.7,1.5,8.2,2.6z M3.6,3.8c0-0.7,0.5-1.2,1.2-1.2
													C5.5,2.6,6,3.1,6,3.8C6,4.5,5.5,5,4.8,5C4.1,5,3.6,4.5,3.6,3.8z M18,14l-1.8-4.8C16,8.6,15.6,8,14.4,8H6
													C4.8,8,4.4,8.6,4.2,9.2L2.4,14l-1.2,1.2v6h2.4v1.2c0,0.6,0.6,1.2,1.2,1.2H6c0.6,0,1.2-0.6,1.2-1.2v-1.2h6v1.2
													c0,0.6,0.6,1.2,1.2,1.2h1.2c0.6,0,1.2-0.6,1.2-1.2v-1.2h2.4v-6L18,14z M6,18.8H3.6v-2.4H6V18.8z M5.4,14l1.2-3.6h7.2
													L15,14H5.4z M16.8,18.8h-2.4v-2.4h2.4V18.8z"/>
											</g>
											<g>
												<path id="path-1_1_" fill="#FFFFFF" d="M8.2,2.6h7.4l1.2,1.2l-2.4,1.8l-1.2-1.2L12,5.6l-1.2-1.2L9.6,5.6L8.2,4.8
													c-0.4,1.2-1.5,2-2.8,2c-1.7,0-3-1.3-3-3s1.3-3,3-3C6.6,0.8,7.7,1.5,8.2,2.6z M3.6,3.8c0-0.7,0.5-1.2,1.2-1.2
													C5.5,2.6,6,3.1,6,3.8C6,4.5,5.5,5,4.8,5C4.1,5,3.6,4.5,3.6,3.8z M18,14l-1.8-4.8C16,8.6,15.6,8,14.4,8H6
													C4.8,8,4.4,8.6,4.2,9.2L2.4,14l-1.2,1.2v6h2.4v1.2c0,0.6,0.6,1.2,1.2,1.2H6c0.6,0,1.2-0.6,1.2-1.2v-1.2h6v1.2
													c0,0.6,0.6,1.2,1.2,1.2h1.2c0.6,0,1.2-0.6,1.2-1.2v-1.2h2.4v-6L18,14z M6,18.8H3.6v-2.4H6V18.8z M5.4,14l1.2-3.6h7.2
													L15,14H5.4z M16.8,18.8h-2.4v-2.4h2.4V18.8z"/>
											</g>
										</g>
									</g>
								</g>
							</g>
						</g>
						<g id="Layer_1" transform="translate(6.000000, 10.000000)">
						</g>
					</g>
				</g>
			</g>
		</g>
	</g>
</g>
</svg>
