<svg height="24" viewBox="0 0 24 24" width="24"><g fill="none" fill-rule="evenodd"><circle cx="12" cy="12" fill="#fff" opacity=".6" r="12"/><circle cx="12" cy="12" fill="#717065" r="11"/><path d="m9.5 4c-1.37857143 0-2.5 1.099-2.5 2.45s1.12142857 2.45 2.5 2.45c1 0 1.8544643-.567 2.2544643-1.4h3.8169643l.7142857-.7v-.7l-.7142857-.7h-.7142857l-.5357143.546875-.5357143-.546875h-.7142857l-.5357143.35-.5357143-.35h-.2455357c-.4-.833-1.2544643-1.4-2.2544643-1.4zm0 1.4c.12142857 0 .25.030625.35714286.065625v1.96875c-.10714286.035-.23571429.065625-.35714286.065625-.59285714 0-1.07142857-.469-1.07142857-1.05s.47857143-1.05 1.07142857-1.05zm-.42410714 4.2c-.4 0-.75.233625-.89285715.590625l-1.07142857 2.625c-.07857143.196-.11160714.380625-.11160714.590625v4.24375c0 .196.15714286.35.35714286.35h1.42857143c.2 0 .35714285-.154.35714285-.35v-1.05h5.71428576v1.05c0 .196.1571428.35.3571428.35h1.4285714c.2 0 .3571429-.154.3571429-.35v-4.24375c0-.21-.0330357-.394625-.1116071-.590625l-1.0714286-2.625c-.1428572-.357-.4928572-.590625-.8928572-.590625zm.46875 1.115625h4.91071424c.1714286 0 .3375.1085.4017858.2625l.9375 2.121875h-7.58928576s.66607143-1.512875.9375-2.121875c.06428572-.154.23035715-.2625.40178572-.2625zm-.75892857 3.084375c.59285714 0 1.07142857.469 1.07142857 1.05s-.47857143 1.05-1.07142857 1.05c-.59285715 0-1.07142858-.469-1.07142858-1.05s.47857143-1.05 1.07142858-1.05zm6.42857141 0c.5928572 0 1.0714286.469 1.0714286 1.05s-.4785714 1.05-1.0714286 1.05c-.5928571 0-1.0714286-.469-1.0714286-1.05s.4785715-1.05 1.0714286-1.05z" fill="#fff" fill-rule="nonzero"/></g></svg>