<?xml version="1.0" encoding="utf-8"?>
<!-- Generator: Adobe Illustrator 21.0.2, SVG Export Plug-In . SVG Version: 6.00 Build 0)  -->
<svg version="1.1" id="Слой_1" xmlns="http://www.w3.org/2000/svg" xmlns:xlink="http://www.w3.org/1999/xlink" x="0px" y="0px"
	 viewBox="0 0 32.4 32.4" enable-background="new 0 0 32.4 32.4" xml:space="preserve">
<title>car_shop-l</title>
<desc>Created with Sketch.</desc>
<g id="POI-Clear">
	<g id="car_shop-l">
		<path id="Shape" fill="#FFFFFF" fill-opacity="0.6" d="M16.2,32.4C7.3,32.4,0,25.1,0,16.2C0,7.3,7.3,0,16.2,0s16.2,7.3,16.2,16.2
			C32.4,25.1,25.1,32.4,16.2,32.4L16.2,32.4z"/>
		<g id="Shape_1_">
			<g>
				<path id="path-1" fill="#2D7970" d="M31.2,16.2c0,8.3-6.7,15-15,15s-15-6.7-15-15s6.7-15,15-15S31.2,7.9,31.2,16.2L31.2,16.2z"
					/>
			</g>
			<g>
				<path id="path-1_1_" fill="#825089" d="M31.2,16.2c0,8.3-6.7,15-15,15s-15-6.7-15-15s6.7-15,15-15S31.2,7.9,31.2,16.2L31.2,16.2
					z"/>
			</g>
		</g>
		<g id="Shape_2_">
			<g>
				<path id="path-2" fill="#FFFFFF" d="M25.2,13.2l-1.8-4.8c-0.2-0.6-0.6-1.2-1.8-1.2H10.8C9.6,7.2,9.3,7.8,9,8.4l-1.8,4.8L6,14.4
					v7.2h2.4v1.2C8.4,23.4,9,24,9.6,24h1.2c0.6,0,1.2-0.6,1.2-1.2v-1.2h8.4v1.2c0,0.6,0.6,1.2,1.2,1.2h1.2c0.6,0,1.2-0.6,1.2-1.2
					v-1.2h2.4v-7.2L25.2,13.2L25.2,13.2z M11.4,9.6H21l1.2,3.6H10.2L11.4,9.6L11.4,9.6z M11,18.6c0,0.5-0.4,0.8-0.8,0.8H9
					c-0.5,0-0.8-0.4-0.8-0.8v-1.2c0-0.5,0.4-0.8,0.8-0.8h1.2c0.5,0,0.8,0.4,0.8,0.8V18.6L11,18.6z M24.2,18.6c0,0.5-0.4,0.8-0.8,0.8
					h-1.2c-0.5,0-0.8-0.4-0.8-0.8v-1.2c0-0.5,0.4-0.8,0.8-0.8h1.2c0.5,0,0.8,0.4,0.8,0.8V18.6L24.2,18.6z"/>
			</g>
			<g>
				<path id="path-2_1_" fill="#FFFFFF" d="M25.2,13.2l-1.8-4.8c-0.2-0.6-0.6-1.2-1.8-1.2H10.8C9.6,7.2,9.3,7.8,9,8.4l-1.8,4.8
					L6,14.4v7.2h2.4v1.2C8.4,23.4,9,24,9.6,24h1.2c0.6,0,1.2-0.6,1.2-1.2v-1.2h8.4v1.2c0,0.6,0.6,1.2,1.2,1.2h1.2
					c0.6,0,1.2-0.6,1.2-1.2v-1.2h2.4v-7.2L25.2,13.2L25.2,13.2z M11.4,9.6H21l1.2,3.6H10.2L11.4,9.6L11.4,9.6z M11,18.6
					c0,0.5-0.4,0.8-0.8,0.8H9c-0.5,0-0.8-0.4-0.8-0.8v-1.2c0-0.5,0.4-0.8,0.8-0.8h1.2c0.5,0,0.8,0.4,0.8,0.8V18.6L11,18.6z
					 M24.2,18.6c0,0.5-0.4,0.8-0.8,0.8h-1.2c-0.5,0-0.8-0.4-0.8-0.8v-1.2c0-0.5,0.4-0.8,0.8-0.8h1.2c0.5,0,0.8,0.4,0.8,0.8V18.6
					L24.2,18.6z"/>
			</g>
		</g>
	</g>
</g>
</svg>
