<?xml version="1.0" encoding="UTF-8"?>
<svg width="24px" height="24px" viewBox="0 0 24 24" version="1.1" xmlns="http://www.w3.org/2000/svg" xmlns:xlink="http://www.w3.org/1999/xlink">
    <title>caravan_shop-m</title>
    <g id="Page-1" stroke="none" stroke-width="1" fill="none" fill-rule="evenodd">
        <g id="caravan_shop-m" fill-rule="nonzero">
            <circle id="Oval" fill="#FFFFFF" opacity="0.6" cx="12" cy="12" r="12"></circle>
            <circle id="Oval" fill="#8C5F93" cx="12" cy="12" r="11"></circle>
            <g id="caravan" transform="translate(5.000000, 7.000000)" fill="#FFFFFF">
                <path d="M4.55174411,1.63611448 L2.91958923,1.63611448 C2.65929293,1.63611448 2.44820875,1.84719865 2.44820875,2.10749495 L2.44820875,3.73964983 C2.44820875,3.99994613 2.65929293,4.2110303 2.91958923,4.2110303 L4.55174411,4.2110303 C4.8120404,4.2110303 5.02312458,3.99994613 5.02312458,3.73964983 L5.02312458,2.10749495 C5.02312458,1.84719865 4.81208754,1.63611448 4.55174411,1.63611448 Z M4.08036364,3.26826936 L3.3909697,3.26826936 L3.3909697,2.57887542 L4.08036364,2.57887542 L4.08036364,3.26826936 Z" id="Shape"></path>
                <path d="M13.5286195,9.10749495 C13.7889158,9.10749495 14,8.89641077 14,8.63611448 C14,8.37581818 13.7889158,8.16473401 13.5286195,8.16473401 L12.0926061,8.16473401 C12.2672054,7.87398653 12.3678451,7.53402694 12.3678451,7.17092256 L12.3678451,4.47816162 C12.3678451,2.01109764 10.3607071,0.00395959596 7.8936431,0.00395959596 L1.93657239,0.00395959596 C0.868754209,0.00395959596 0,0.872760943 0,1.94057912 L0,7.17092256 C0,8.2339798 0.861023569,9.09938721 1.92228956,9.10711785 C2.12658586,9.80659933 2.77327273,10.3192727 3.53785185,10.3192727 C4.30228956,10.3192727 4.94892929,9.80678788 5.153367,9.10749495 L13.5286195,9.10749495 Z M3.53785185,9.37651178 C3.12963636,9.37651178 2.79750168,9.0443771 2.79750168,8.63611448 C2.79750168,8.22789899 3.12963636,7.89576431 3.53785185,7.89576431 C3.94611448,7.89576431 4.27824916,8.22789899 4.27824916,8.63611448 C4.27824916,9.0443771 3.94611448,9.37651178 3.53785185,9.37651178 Z M6.65527946,8.16473401 L6.65527946,4.49390572 C6.65527946,3.88794613 7.14824916,3.39497643 7.75420875,3.39497643 L7.87785185,3.39497643 C8.48381145,3.39497643 8.97678114,3.88794613 8.97678114,4.49390572 L8.97678114,8.16473401 L6.65527946,8.16473401 Z M9.91958923,8.16473401 L9.91958923,4.49390572 C9.91958923,3.36810774 9.00364983,2.45221549 7.87789899,2.45221549 L7.75425589,2.45221549 C6.62845791,2.45221549 5.71256566,3.36815488 5.71256566,4.49390572 L5.71256566,8.16473401 L5.153367,8.16473401 C4.94897643,7.46544108 4.3023367,6.95300337 3.53785185,6.95300337 C2.77364983,6.95300337 2.12724579,7.46511111 1.92261953,8.16402694 C1.38109764,8.15643771 0.942760943,7.71418855 0.942760943,7.17092256 L0.942760943,1.94057912 C0.942760943,1.39255219 1.38859259,0.946720539 1.93657239,0.946720539 L7.8936431,0.946720539 C9.84091582,0.946720539 11.4250842,2.53088889 11.4250842,4.47816162 L11.4250842,7.17092256 C11.4250842,7.71890236 10.9792525,8.16473401 10.4312256,8.16473401 L9.91958923,8.16473401 Z" id="Shape"></path>
            </g>
        </g>
    </g>
</svg>
