<svg version="1.1" viewBox="0 0 24 24" xmlns="http://www.w3.org/2000/svg">
 <title>caravan_shop-m</title>
 <g fill="none" fill-rule="evenodd">
  <g id="caravan_shop-m" fill-rule="nonzero">
   <circle id="Oval" cx="12" cy="12" r="12" fill="#fff" opacity=".6"/>
   <circle id="Oval" cx="12" cy="12" r="11" fill="#8C5F93"/>
   <g id="caravan" transform="translate(5 7)" fill="#fff">
    <path id="Shape" d="m4.5517 1.6361h-1.6322c-0.2603 0-0.47138 0.21108-0.47138 0.47138v1.6322c0 0.2603 0.21108 0.47138 0.47138 0.47138h1.6322c0.2603 0 0.47138-0.21108 0.47138-0.47138v-1.6322c0-0.2603-0.21104-0.47138-0.47138-0.47138zm-0.47138 1.6322h-0.68939v-0.68939h0.68939v0.68939z"/>
    <path id="Shape" d="m13.529 9.1075c0.2603 0 0.47138-0.21108 0.47138-0.47138 0-0.2603-0.21108-0.47138-0.47138-0.47138h-1.436c0.1746-0.29075 0.27524-0.63071 0.27524-0.99381v-2.6928c0-2.4671-2.0071-4.4742-4.4742-4.4742h-5.9571c-1.0678 0-1.9366 0.8688-1.9366 1.9366v5.2303c0 1.0631 0.86102 1.9285 1.9223 1.9362 0.2043 0.69948 0.85098 1.2122 1.6156 1.2122 0.76444 0 1.4111-0.51248 1.6155-1.2118h8.3753zm-9.9908 0.26902c-0.40822 0-0.74035-0.33213-0.74035-0.7404 0-0.40822 0.33213-0.74035 0.74035-0.74035 0.40826 0 0.7404 0.33213 0.7404 0.74035 0 0.40826-0.33213 0.7404-0.7404 0.7404zm3.1174-1.2118v-3.6708c0-0.60596 0.49297-1.0989 1.0989-1.0989h0.12364c0.60596 0 1.0989 0.49297 1.0989 1.0989v3.6708h-2.3215zm3.2643 0v-3.6708c0-1.1258-0.91594-2.0417-2.0417-2.0417h-0.12364c-1.1258 0-2.0417 0.91594-2.0417 2.0417v3.6708h-0.5592c-0.20439-0.69929-0.85103-1.2117-1.6155-1.2117-0.7642 0-1.4106 0.51211-1.6152 1.211-0.54152-0.0075892-0.97986-0.44984-0.97986-0.9931v-5.2303c0-0.54803 0.44583-0.99386 0.99381-0.99386h5.9571c1.9473 0 3.5314 1.5842 3.5314 3.5314v2.6928c0 0.54798-0.44583 0.99381-0.99386 0.99381h-0.51164z"/>
   </g>
  </g>
 </g>
</svg>
