<?xml version="1.0" encoding="UTF-8"?>
<svg version="1.1" viewBox="0 0 24 24" xml:space="preserve" xmlns="http://www.w3.org/2000/svg">
 <g opacity="1">
  <circle cx="12" cy="12" r="12" fill="#fff" opacity=".6"/>
  <circle cx="12" cy="12" r="11" fill="#8C5F93"/>
  <path d="m8.0041 4.7771a1.8905 1.8905 0 0 0-1.3379 0.55472l-1.95 1.95a1.8905 1.8905 0 0 0 3.381e-4 2.6737l1.8869 1.8869 2.0503-0.29964 3.4484-3.4506-2.762-2.7604a1.8905 1.8905 0 0 0-1.3359-0.55505zm0.57393 1.992 1.1497 1.1497-2.2237 2.2237-1.1497-1.1497zm4.0813 1.8978-3.4906 3.4906 2.2642 0.40984 0.62677 1.9912 1.7174-0.13698 0.62748 1.9364 1.7174-0.13698 0.76439 2.0179 1.6879-0.05738 1.7988-1.7988-7.714-7.7155z" fill="#fff"/>
 </g>
</svg>
