<svg height="24" viewBox="0 0 24 24" width="24"><g fill="none" fill-rule="evenodd"><circle cx="12" cy="12" fill="#fff" opacity=".6" r="12"/><circle cx="12" cy="12" fill="#7f5933" r="11"/><path d="m17.2768889 7.41211481-3.7538458-2.21353696c-.6908088-.40875234-1.5739604-.16608447-1.9739974.54069723l-1.71302518 3.03288703h1.94329478c1.7915877 0 3.2508648 1.49014679 3.2508648 3.32168949v1.7540366c.2456209-.1245634.4605392-.3220194.6086342-.5831411l2.1672432-3.83470594c.399134-.7067817.1625432-1.60917401-.5291686-2.01792635zm-.252845 1.92381182c-.2853537.50655764-.9183693.67817827-1.4132232.38660775-.4948539-.29064783-.6637182-.93837728-.3783645-1.44216685.2853537-.50748034.9183693-.68002365 1.4132231-.38753044.4948539.29157052.6637183.93653189.3783646 1.44308954zm-5.2447286 1.28161847h-4.33448648c-.79736491 0-1.44482882.6615699-1.44482882 1.4763065v4.429842c0 .8147366.64746391 1.4763064 1.44482882 1.4763064h4.33538948c.7973649 0 1.4448288-.6615698 1.4448288-1.4763064v-4.429842c-.000903-.8147366-.6483669-1.4763065-1.4457318-1.4763065zm-3.97327928 6.643379c-.59779792 0-1.08362161-.496408-1.08362161-1.1063071 0-.6108218.48582369-1.1072299 1.08362161-1.1072299.59779793 0 1.08362162.4964081 1.08362162 1.1072299 0 .6098991-.48582369 1.1063071-1.08362162 1.1063071zm0-3.6916888c-.59779792 0-1.08362161-.496408-1.08362161-1.1063071 0-.6108218.48582369-1.1072298 1.08362161-1.1072298.59779793 0 1.08362162.496408 1.08362162 1.1072298 0 .6098991-.48582369 1.1063071-1.08362162 1.1063071zm3.61207208 3.6916888c-.5977979 0-1.0836216-.496408-1.0836216-1.1063071 0-.6108218.4858237-1.1072299 1.0836216-1.1072299s1.0836216.4964081 1.0836216 1.1072299c0 .6098991-.4858237 1.1063071-1.0836216 1.1063071zm0-3.6916888c-.5977979 0-1.0836216-.496408-1.0836216-1.1063071 0-.6108218.4858237-1.1072298 1.0836216-1.1072298s1.0836216.496408 1.0836216 1.1072298c0 .6098991-.4858237 1.1063071-1.0836216 1.1063071z" fill="#fff"/></g></svg>