<svg version="1.1" viewBox="0 0 13 13" xmlns="http://www.w3.org/2000/svg">
 <title>cave-s</title>
 <g fill="none" fill-rule="evenodd">
  <g id="cave-s" fill="#262622" fill-rule="nonzero">
   <path id="Path" d="m11.066 7.6001c-1.3437-2.3711-1.1182-5.0067-2.1877-5.0067-0.46246 0-1.1368 0.43642-1.4697 1.1604-0.37512-2.2394-1.0881-3.7538-1.9071-3.7538-0.97933 0-1.8076 2.163-2.0875 5.1455-0.19615-0.25441-0.66577-0.40022-0.89772-0.40022-0.83759 0-1.2349 1.5808-1.5162 4.1279-0.28134 2.5461-1.5563 4.1269-0.71875 4.1269h4.1371c-0.0071588-0.15084-0.011454-0.30569-0.011454-0.46156 0-2.3641 0.84689-4.2807 1.8914-4.2807 1.0438 0 1.8914 1.9166 1.8914 4.2807 0 0.15586-0.0042953 0.31072-0.01217 0.46156h4.4199c1.0717 0.0010053-0.18613-3.0288-1.5313-5.3999z"/>
  </g>
 </g>
</svg>
