<?xml version="1.0" encoding="UTF-8" standalone="no"?>
<svg
   width="24"
   height="24"
   viewBox="0 0 24 24"
   version="1.1"
   id="svg14"
   sodipodi:docname="tomb-m.svg"
   xmlns:inkscape="http://www.inkscape.org/namespaces/inkscape"
   xmlns:sodipodi="http://sodipodi.sourceforge.net/DTD/sodipodi-0.dtd"
   xmlns="http://www.w3.org/2000/svg"
   xmlns:svg="http://www.w3.org/2000/svg">
  <defs
     id="defs18" />
  <sodipodi:namedview
     id="namedview16"
     pagecolor="#ffffff"
     bordercolor="#000000"
     borderopacity="0.25"
     inkscape:showpageshadow="2"
     inkscape:pageopacity="0.0"
     inkscape:pagecheckerboard="0"
     inkscape:deskcolor="#d1d1d1"
     showgrid="false" />
  <title
     id="title2">tomb-m</title>
  <g
     id="Page-1"
     stroke="none"
     stroke-width="1"
     fill="none"
     fill-rule="evenodd">
    <g
       id="tomb-m"
       fill-rule="nonzero">
      <g
         id="tomb"
         transform="translate(6,6)"
         fill="#ffffff">
        <path
           id="Shape"
           d="m 5.6527754,-2.99707 c -3.0904881,0 -5.59368378,2.50612577 -5.59368378,5.596614 V 8.7792607 H 11.940908 V 2.599544 c 0,-3.09052333 -2.5060904,-5.596614 -5.5966138,-5.596614 z M 3.8390037,1.8054694 h 4.3219924 c 0.2912816,0 0.5274296,0.2361481 0.5274296,0.5274296 0,0.2912816 -0.2361129,0.5274296 -0.5274296,0.5274296 H 3.8390037 c -0.2912815,0 -0.5274297,-0.236148 -0.5274297,-0.5274296 0,-0.2912815 0.2361482,-0.5274296 0.5274297,-0.5274296 z m 0,2.1097184 h 4.3219924 c 0.2912816,0 0.5274296,0.2361481 0.5274296,0.5274296 0,0.2912816 -0.2361129,0.5274296 -0.5274296,0.5274296 H 3.8390037 c -0.2912815,0 -0.5274297,-0.236148 -0.5274297,-0.5274296 0,-0.2912815 0.2361482,-0.5274296 0.5274297,-0.5274296 z m 0,2.1097184 h 4.3219924 c 0.2912816,0 0.5274296,0.236148 0.5274296,0.5274296 0,0.2912815 -0.2361129,0.5274296 -0.5274296,0.5274296 H 3.8390037 c -0.2912815,0 -0.5274297,-0.2361481 -0.5274297,-0.5274296 0,-0.2912816 0.2361482,-0.5274296 0.5274297,-0.5274296 z m -5.1951815,3.8092137 c -0.2912814,0 -0.5274296,0.2361481 -0.5274296,0.5274291 v 1.356667 H 13.883607 v -1.356667 c 0,-0.291281 -0.236148,-0.5274291 -0.527429,-0.5274291 z M -2.4725704,12.773075 C -2.763852,12.773075 -3,13.009222 -3,13.300504 v 1.696566 h 18 v -1.696566 c 0,-0.291282 -0.236149,-0.527429 -0.52743,-0.527429 z"
           style="fill:#717065;fill-opacity:1" />
      </g>
    </g>
  </g>
</svg>
