<?xml version="1.0" encoding="UTF-8"?>
<svg width="24px" height="24px" viewBox="0 0 24 24" version="1.1" xmlns="http://www.w3.org/2000/svg" xmlns:xlink="http://www.w3.org/1999/xlink">
    <title>cemetery-m</title>
    <g id="Page-1" stroke="none" stroke-width="1" fill="none" fill-rule="evenodd">
        <g id="cemetery-m" fill-rule="nonzero">
            <circle id="Oval" fill="#FFFFFF" opacity="0.6" cx="12" cy="12" r="12"></circle>
            <circle id="Oval" fill="#717065" cx="12" cy="12" r="11"></circle>
            <g id="tomb" transform="translate(6.000000, 6.000000)" fill="#FFFFFF">
                <path d="M6.22928906,0.0015 L5.7684375,0.0015 C3.70844531,0.0015 2.03847656,1.67146875 2.03847656,3.73146094 L2.03847656,7.85219531 L9.95925,7.85219531 L9.95925,3.73146094 C9.95925,1.67144531 8.28930469,0.0015 6.22928906,0.0015 Z M7.43974219,6.71917969 L4.55798438,6.71917969 C4.36382813,6.71917969 4.20642188,6.56177344 4.20642188,6.36761719 C4.20642188,6.17346094 4.36382813,6.01605469 4.55798438,6.01605469 L7.43974219,6.01605469 C7.63389844,6.01605469 7.79130469,6.17346094 7.79130469,6.36761719 C7.79130469,6.56177344 7.63392188,6.71917969 7.43974219,6.71917969 Z M7.43974219,5.31292969 L4.55798438,5.31292969 C4.36382813,5.31292969 4.20642188,5.15552344 4.20642188,4.96136719 C4.20642188,4.76721094 4.36382813,4.60980469 4.55798438,4.60980469 L7.43974219,4.60980469 C7.63389844,4.60980469 7.79130469,4.76721094 7.79130469,4.96136719 C7.79130469,5.15552344 7.63392188,5.31292969 7.43974219,5.31292969 Z M7.43974219,3.90667969 L4.55798438,3.90667969 C4.36382813,3.90667969 4.20642188,3.74927344 4.20642188,3.55511719 C4.20642188,3.36096094 4.36382813,3.20355469 4.55798438,3.20355469 L7.43974219,3.20355469 C7.63389844,3.20355469 7.79130469,3.36096094 7.79130469,3.55511719 C7.79130469,3.74927344 7.63392188,3.90667969 7.43974219,3.90667969 Z" id="Shape"></path>
                <path d="M11.2543125,9.80988281 L11.2543125,8.90685937 C11.2543125,8.71270313 11.0969063,8.55529687 10.90275,8.55529687 L1.095,8.55529687 C0.90084375,8.55529687 0.7434375,8.71270313 0.7434375,8.90685937 L0.7434375,9.80988281 L11.2543125,9.80988281 Z" id="Path"></path>
                <path d="M11.99775,11.99625 L0,11.99625 L0,10.8645703 C0,10.6704141 0.15740625,10.5130078 0.3515625,10.5130078 L11.6461875,10.5130078 C11.8403438,10.5130078 11.99775,10.6704141 11.99775,10.8645703 L11.99775,11.99625 Z" id="Path"></path>
            </g>
        </g>
    </g>
</svg>