<?xml version="1.0" encoding="UTF-8" standalone="no"?>
<svg
   xmlns:svg="http://www.w3.org/2000/svg"
   xmlns="http://www.w3.org/2000/svg"
   xmlns:sodipodi="http://sodipodi.sourceforge.net/DTD/sodipodi-0.dtd"
   xmlns:inkscape="http://www.inkscape.org/namespaces/inkscape"
   inkscape:version="1.1-dev (1:0.92.0+devel+202005110039+9ce7266)"
   sodipodi:docname="charging-station-m.svg"
   id="svg1782"
   version="1.1"
   viewBox="0 0 24 24"
   height="24"
   width="24">
  <defs
     id="defs1786" />
  <title
     id="title1774">charging-station-m</title>
  <g
     transform="scale(1.5)"
     fill-rule="evenodd"
     fill="none"
     stroke-width="1"
     stroke="none"
     id="Page-1">
    <g
       fill-rule="nonzero"
       id="charging-station-m">
      <circle
         r="8"
         cy="8"
         cx="8"
         opacity="0.6"
         fill="#ffffff"
         id="Oval" />
      <circle
         r="7.3333335"
         cy="8"
         cx="8"
         fill="#717065"
         id="circle1777" />
      <path
         fill="#ffffff"
         id="Shape"
         d="m 11.674396,5.879689 0.0044,-0.00444 -1.417543,-1.4175432 c -0.128868,-0.1288676 -0.3421659,-0.1288676 -0.4710334,0 -0.1288676,0.1288675 -0.1288676,0.3421656 0,0.4710331 L 10.49237,5.6308413 c -0.46659,0.1777484 -0.7820932,0.6532253 -0.7021064,1.2042453 0.071099,0.488808 0.4888084,0.8842981 0.9776164,0.9376226 0.208854,0.022219 0.391046,-0.013331 0.564351,-0.088874 V 10.88775 c 0,0.244403 -0.199967,0.44437 -0.444371,0.44437 -0.244404,0 -0.444371,-0.199967 -0.444371,-0.44437 V 8.8880803 c 0,-0.4888081 -0.399934,-0.8887419 -0.888742,-0.8887419 H 9.110376 V 4.8887419 C 9.110376,4.3999338 8.7104422,4 8.2216342,4 H 5.5554085 C 5.0666005,4 4.6666667,4.3999338 4.6666667,4.8887419 v 6.6655641 c 0,0.244404 0.1999669,0.444371 0.4443709,0.444371 h 3.5549675 c 0.244404,0 0.4443709,-0.199967 0.4443709,-0.444371 V 8.6658948 h 0.6665564 v 2.1596432 c 0,0.582126 0.4177086,1.110927 0.9953906,1.168695 0.666557,0.06666 1.226464,-0.453258 1.226464,-1.106483 V 6.6662256 c 0,-0.3066159 -0.124424,-0.5865696 -0.324391,-0.7865366 z M 10.88786,7.1105965 c -0.244404,0 -0.444371,-0.1999669 -0.444371,-0.4443709 0,-0.244404 0.199967,-0.4443709 0.444371,-0.4443709 0.244404,0 0.444371,0.1999669 0.444371,0.4443709 0,0.244404 -0.199967,0.4443709 -0.444371,0.4443709 z M 6.4441504,9.8301467 V 8.6658948 h -0.519914 c -0.1688609,0 -0.27551,-0.1777484 -0.1955232,-0.3288345 L 6.9151836,6.1152056 C 7.0218326,5.9152387 7.3328923,5.9907818 7.3328923,6.2218547 v 1.3331128 h 0.5065828 c 0.168861,0 0.27551,0.1821921 0.1910795,0.3332782 L 6.8574154,9.9412394 C 6.7463226,10.136763 6.4441504,10.056776 6.4441504,9.8301467 Z" />
    </g>
  </g>
</svg>
