<svg width="28" height="28" viewBox="0 0 28 28">
  <g fill="none" fill-rule="evenodd">
    <circle cx="14" cy="14" r="14" fill="#FFF" opacity=".6"/>
    <circle cx="14" cy="14" r="13" fill="#717065"/>
    <path fill="#FFF" d="M8.8638948,7 L14.4694385,7 C14.9771661,7 15.4,7.42072807 15.4,7.93972244 L15.4,20.0666667 L16.3333333,20.0666667 L16.3333333,21 L7.18229167,21 L7,21 L7,20.0666667 L7.93333333,20.0666667 L7.93333333,7.93972244 C7.93333333,7.41995217 8.34995989,7 8.8638948,7 Z M10.9666667,18.2 L14.4666667,13.1267327 L11.6666667,13.1267327 L12.3666667,9.8 L8.86666667,14.8732673 L11.5966667,14.8732673 L10.9666667,18.2 Z M20.1228819,14.0690141 C20.0614127,13.8323944 19.9999435,13.6352113 19.9999435,13.4183099 L19.9999435,12.5309859 L20.0614127,12.5309859 L20.6761045,11.8211268 C20.6761045,11.8211268 20.9219812,9.55352113 17.4797072,8.2915493 L17.0289332,8.98169014 C17.0289332,8.98169014 18.7090908,10.4802817 18.688601,11.9591549 L19.0983956,12.5309859 L19.0983956,13.4183099 C19.0983956,13.6943662 19.1598647,14.0098592 19.2418236,14.2661972 L20.040923,17.8943662 C20.1228819,18.2690141 20.0614127,18.6239437 19.8360257,18.9197183 C19.590149,19.1957746 19.2418236,19.3732394 18.8525188,19.3732394 C18.1763579,19.3732394 17.643625,18.8605634 17.6026456,18.2098592 L17.9509709,15.3112676 L17.9509709,15.2521127 C17.9509709,14.4042254 17.2133408,13.6549296 16.3322825,13.6549296 L15.4,13.6549296 L15.4,14.5028169 L16.3322825,14.5028169 C16.7420771,14.5028169 17.0699127,14.8183099 17.0699127,15.2126761 L16.7420771,18.1507042 L16.7420771,18.2098592 C16.7420771,19.3535211 17.6846045,20.2605634 18.8730086,20.2605634 C19.5286798,20.2605634 20.1433716,19.984507 20.5531661,19.471831 C20.9629606,18.9394366 21.085899,18.2887324 20.9424709,17.6971831 L20.1228819,14.0690141 L20.1228819,14.0690141 Z"/>
  </g>
</svg>
