<svg version="1.1" viewBox="0 0 24 24" xmlns="http://www.w3.org/2000/svg">
 <title>charging-station-m</title>
 <g transform="scale(1.5)" fill="none" fill-rule="evenodd">
  <g id="charging-station-m" fill-rule="nonzero">
   <circle id="Oval" cx="8" cy="8" r="8" fill="#fff" opacity=".6"/>
   <circle cx="8" cy="8" r="7.3333" fill="#717065"/>
   <path id="Shape" d="m11.674 5.8797 0.0044-0.00444-1.4175-1.4175c-0.12887-0.12887-0.34217-0.12887-0.47103 0-0.12887 0.12887-0.12887 0.34217 0 0.47103l0.70215 0.7021c-0.46659 0.17775-0.78209 0.65323-0.70211 1.2042 0.071099 0.48881 0.48881 0.8843 0.97762 0.93762 0.20885 0.022219 0.39105-0.013331 0.56435-0.088874v3.2039c0 0.2444-0.19997 0.44437-0.44437 0.44437s-0.44437-0.19997-0.44437-0.44437v-1.9997c0-0.48881-0.39993-0.88874-0.88874-0.88874h-0.44437v-3.1106c0-0.48881-0.39993-0.88874-0.88874-0.88874h-2.6662c-0.48881 0-0.88874 0.39993-0.88874 0.88874v6.6656c0 0.2444 0.19997 0.44437 0.44437 0.44437h3.555c0.2444 0 0.44437-0.19997 0.44437-0.44437v-2.8884h0.66656v2.1596c0 0.58213 0.41771 1.1109 0.99539 1.1687 0.66656 0.06666 1.2265-0.45326 1.2265-1.1065v-4.2215c0-0.30662-0.12442-0.58657-0.32439-0.78654zm-0.78654 1.2309c-0.2444 0-0.44437-0.19997-0.44437-0.44437s0.19997-0.44437 0.44437-0.44437 0.44437 0.19997 0.44437 0.44437-0.19997 0.44437-0.44437 0.44437zm-4.4437 2.7196v-1.1643h-0.51991c-0.16886 0-0.27551-0.17775-0.19552-0.32883l1.1865-2.2219c0.10665-0.19997 0.41771-0.12442 0.41771 0.10665v1.3331h0.50658c0.16886 0 0.27551 0.18219 0.19108 0.33328l-1.1731 2.053c-0.11109 0.19552-0.41326 0.11554-0.41326-0.11109z" fill="#fff"/>
  </g>
 </g>
</svg>
