<?xml version="1.0" encoding="UTF-8"?>
<svg version="1.1" viewBox="0 0 24 24" xmlns="http://www.w3.org/2000/svg" xmlns:cc="http://creativecommons.org/ns#" xmlns:dc="http://purl.org/dc/elements/1.1/" xmlns:rdf="http://www.w3.org/1999/02/22-rdf-syntax-ns#">
 <title>cheese-m</title>
 <g fill="none" fill-rule="evenodd">
  <g id="alcohol-m" fill-rule="nonzero">
   <circle id="Oval" cx="12" cy="12" r="12" fill="#fff" opacity=".6"/>
   <circle cx="12" cy="12" r="11" fill="#8C5F93"/>
   <path d="m13.053 5.1621c-1.1318-0.012343-2.2129 0.089844-2.2129 0.089844l-5.127 5.9316 12.574-3.9336s-2.124-1.5543-3.3652-1.8965c-0.49204-0.13566-1.1901-0.184-1.8691-0.19141zm1.8516 1.1484a0.51126 0.9813 71.912 0 1 0.56641 0.54883 0.51126 0.9813 71.912 0 1-1.2129 0.59766 0.51126 0.9813 71.912 0 1-0.56641-0.54883 0.51126 0.9813 71.912 0 1 1.2129-0.59766zm-3.9375 0.76953a0.51126 0.9813 71.912 0 1 0.56836 0.54883 0.51126 0.9813 71.912 0 1-1.2129 0.59766 0.51126 0.9813 71.912 0 1-0.56641-0.54688 0.51126 0.9813 71.912 0 1 1.2109-0.59961zm7.3203 0.97266-12.574 3.7832v7.3594l12.574-3.9336v-7.209zm-1.3008 1.7734a0.78667 1.2141 19.086 0 1 0.61719 0.87305 0.78667 1.2141 19.086 0 1-0.85156 1.4395 0.78667 1.2141 19.086 0 1-0.83398-0.83398 0.78667 1.2141 19.086 0 1 0.84961-1.4395 0.78667 1.2141 19.086 0 1 0.21875-0.039062zm-3.5645 0.66797a0.52909 0.76697 23.373 0 1 0.41992 0.54492 0.52909 0.76697 23.373 0 1-0.57812 0.89844 0.52909 0.76697 23.373 0 1-0.56836-0.51953 0.52909 0.76697 23.373 0 1 0.58008-0.90039 0.52909 0.76697 23.373 0 1 0.14648-0.023437zm-3.5098 1.9395a0.75222 1.3337 13.619 0 1 0.58203 0.97266 0.75222 1.3337 13.619 0 1-0.80273 1.5996 0.75222 1.3337 13.619 0 1-0.78906-0.92578 0.75222 1.3337 13.619 0 1 0.80469-1.6016 0.75222 1.3337 13.619 0 1 0.20508-0.044922zm-2.6484 0.037109a0.52909 0.76697 23.373 0 1 0.41992 0.54492 0.52909 0.76697 23.373 0 1-0.57812 0.90039 0.52909 0.76697 23.373 0 1-0.56836-0.52148 0.52909 0.76697 23.373 0 1 0.57812-0.89844 0.52909 0.76697 23.373 0 1 0.14844-0.025391zm5.6836 0.875a0.85989 1.2083 26.467 0 1 0.6875 0.85352 0.85989 1.2083 26.467 0 1-0.94727 1.4023 0.85989 1.2083 26.467 0 1-0.93164-0.8125 0.85989 1.2083 26.467 0 1 0.94922-1.4043 0.85989 1.2083 26.467 0 1 0.24219-0.039063zm2.9355 0.61328a0.52909 0.76697 23.373 0 1 0.41992 0.54688 0.52909 0.76697 23.373 0 1-0.57812 0.89844 0.52909 0.76697 23.373 0 1-0.56836-0.52148 0.52909 0.76697 23.373 0 1 0.57812-0.89844 0.52909 0.76697 23.373 0 1 0.14844-0.025391zm-8.0449 2.1914a0.52909 0.76697 23.373 0 1 0.41797 0.54492 0.52909 0.76697 23.373 0 1-0.57812 0.89844 0.52909 0.76697 23.373 0 1-0.56836-0.51953 0.52909 0.76697 23.373 0 1 0.58008-0.90039 0.52909 0.76697 23.373 0 1 0.14844-0.023437z" fill="#fff"/>
  </g>
 </g>
</svg>
