<?xml version="1.0" encoding="UTF-8" standalone="no"?>
<svg width="23px" height="23px" viewBox="0 0 23 23" version="1.1" xmlns="http://www.w3.org/2000/svg" xmlns:xlink="http://www.w3.org/1999/xlink">
    <!-- Generator: Sketch 3.8.3 (29802) - http://www.bohemiancoding.com/sketch -->
    <title>chimney-m</title>
    <desc>Created with Sketch.</desc>
    <defs></defs>
    <g id="POI-Clear" stroke="none" stroke-width="1" fill="none" fill-rule="evenodd">
        <g id="chimney-l" transform="translate(8.000000, 5.000000)" fill="#717065">
            <g id="POI">
                <g>
                    <g id="lighthouse-l">
                        <path d="M1,3 L0,3 L0,5 L1,6 L1,7 L0,14 L6,14 L5,7 L5,6 L6,5 L6,3 L5,3 L1,3 Z M3.85326012,1.23403071 C4.04389396,1.1343641 4.24179004,1.10892471 4.44604058,1.16956105 C4.62971477,1.22427314 4.8024956,1.32812157 4.96226491,1.44381848 C5.20706297,1.62084869 5.45216362,1.78463648 5.73085214,1.88116673 C6.07520342,2 6.4470907,2.01568181 6.79446792,1.90103036 C7.11945322,1.79334859 7.40812732,1.57310629 7.62569197,1.2751519 C7.81148432,1.02075809 7.97427956,0.684121909 8,0.346788755 C7.64021645,0.604667406 7.2256635,0.848955155 6.7950731,0.876485444 C6.53332982,0.893212708 6.27915137,0.81794002 6.04343111,0.690394633 C5.87337362,0.597697713 5.71663025,0.478167473 5.55686093,0.364909957 C5.03549251,-0.00204439365 4.36040665,-0.149801891 3.80181925,0.194500957 C3.51617108,0.370485712 3.29346234,0.666349192 3.15971606,1.00437932 C3.04019167,1.30407613 2.96817444,1.67103048 3.01386605,2 C3.2589667,1.70866682 3.52827482,1.40304577 3.85326012,1.23403071 Z" id="Combined-Shape"></path>
                    </g>
                </g>
            </g>
        </g>
    </g>
</svg>