<?xml version="1.0" encoding="UTF-8" standalone="no"?>
<svg width="27px" height="27px" viewBox="0 0 27 27" version="1.1" xmlns="http://www.w3.org/2000/svg" xmlns:xlink="http://www.w3.org/1999/xlink">
    <!-- Generator: Sketch 3.8.3 (29802) - http://www.bohemiancoding.com/sketch -->
    <title>chimney-l</title>
    <desc>Created with Sketch.</desc>
    <defs></defs>
    <g id="POI-Clear" stroke="none" stroke-width="1" fill="none" fill-rule="evenodd">
        <g id="chimney-l" transform="translate(9.000000, 6.000000)" fill="#717065">
            <g id="POI">
                <g>
                    <g id="lighthouse-l">
                        <path d="M1,4 L0,4 L0,6 L1,7 L1,8 L0,17 L8,17 L7,8 L7,7 L8,6 L8,4 L7,4 L1,4 Z M5.3652162,1.85104606 C5.67023034,1.70154614 5.98686407,1.66338707 6.31366493,1.75434157 C6.60754364,1.83640971 6.88399296,1.99218235 7.13962386,2.16572771 C7.53130075,2.43127303 7.92346179,2.67695472 8.36936342,2.82175009 C8.92032547,3 9.51534512,3.02352271 10.0711487,2.85154553 C10.5911252,2.69002289 11.0530037,2.35965943 11.4011072,1.91272785 C11.6983749,1.53113714 11.9588473,1.02618286 12,0.520183132 C11.4243463,0.907001109 10.7610616,1.27343273 10.072117,1.31472817 C9.65332771,1.33981906 9.24664219,1.22691003 8.86948978,1.03559195 C8.5973978,0.896546569 8.34660839,0.71725121 8.09097749,0.547364936 C7.25678802,-0.00306659047 6.17665064,-0.224702837 5.28291079,0.291751435 C4.82587373,0.555728568 4.46953975,0.999523787 4.2555457,1.50656897 C4.06430667,1.95611419 3.94907911,2.50654572 4.02218567,3 C4.41434671,2.56300023 4.84523971,2.10456866 5.3652162,1.85104606 Z" id="Combined-Shape"></path>
                    </g>
                </g>
            </g>
        </g>
    </g>
</svg>