<?xml version="1.0" encoding="UTF-8"?>
<svg width="24px" height="24px" viewBox="0 0 24 24" version="1.1" xmlns="http://www.w3.org/2000/svg" xmlns:xlink="http://www.w3.org/1999/xlink">
    <title>chimney-m</title>
    <g id="Page-1" stroke="none" stroke-width="1" fill="none" fill-rule="evenodd">
        <g id="chimney-m" fill="#FFFFFF" fill-rule="nonzero">
            <circle id="Oval" fill="#FFFFFF" opacity="0.6" cx="12" cy="12" r="12"></circle>
            <circle id="Oval" fill="#717065" cx="12" cy="12" r="11"></circle>
            <g id="chimney" transform="translate(8.000000, 6.000000)">
                <polygon id="Path" points="0.705882353 9.52941176 3.52941176 9.52941176 3.52941176 10.2352941 0.705882353 10.2352941"></polygon>
                <polygon id="Path" points="0.705882353 10.9411765 2.11764706 10.9411765 2.11764706 12 0.705882353 12"></polygon>
                <polygon id="Path" points="0.705882353 7.76470588 2.47058824 7.76470588 2.47058824 8.82352941 0.705882353 8.82352941"></polygon>
                <polygon id="Path" points="2.82352941 10.9411765 5.64705882 10.9411765 5.64705882 12 2.82352941 12"></polygon>
                <polygon id="Path" points="3.17647059 7.76470588 5.64705882 7.76470588 5.64705882 8.82352941 3.17647059 8.82352941"></polygon>
                <polygon id="Path" points="4.23529412 9.52941176 5.64705882 9.52941176 5.64705882 10.2352941 4.23529412 10.2352941"></polygon>
                <polygon id="Path" points="2.47058824 0.352941176 3.17647059 0.352941176 3.17647059 1.05882353 2.47058824 1.05882353"></polygon>
                <polygon id="Path" points="0.705882353 1.41176471 1.41176471 1.41176471 1.41176471 2.11764706 0.705882353 2.11764706"></polygon>
                <polygon id="Path" points="1.05882353 3.17647059 1.76470588 3.17647059 1.76470588 3.88235294 1.05882353 3.88235294"></polygon>
                <polygon id="Path" points="0 5.64705882 0 7.05882353 3.17647059 7.05882353 6.35294118 7.05882353 6.35294118 5.64705882 3.17647059 5.64705882"></polygon>
                <path d="M9.52941176,0.352941176 C9.02324706,0.352941176 8.55272941,0.505270588 8.16094118,0.766423529 C7.84282353,0.303623529 7.30990588,0 6.70588235,0 C5.73127059,0 4.94117647,0.790094118 4.94117647,1.76470588 C4.94117647,1.78929412 4.94204706,1.81367059 4.94303529,1.838 C4.43950588,2.01517647 4.07844706,2.49470588 4.07844706,3.05882353 C4.07844706,3.08338824 4.07927059,3.10778824 4.08063529,3.132 C3.612,3.29675294 3.26687059,3.72341176 3.22105882,4.23642353 C3.20621176,4.23595294 3.19143529,4.23529412 3.17647059,4.23529412 C2.654,4.23529412 2.19816471,4.51931765 1.95404706,4.94117647 L5.66284706,4.94117647 C5.75294118,4.76449412 5.80390588,4.56458824 5.80390588,4.35294118 C5.80390588,4.32837647 5.80308235,4.30397647 5.80171765,4.27976471 C6.15884706,4.15421176 6.44409412,3.87656471 6.57997647,3.52444706 C6.6216,3.52738824 6.66348235,3.52941176 6.70585882,3.52941176 C6.85767059,3.52941176 7.00498824,3.51021176 7.14557647,3.47416471 C7.43117647,4.52294118 8.39014118,5.29411765 9.52941176,5.29411765 C10.8938824,5.29411765 12,4.188 12,2.82352941 C12,1.45905882 10.8938824,0.352941176 9.52941176,0.352941176 Z" id="Path"></path>
            </g>
        </g>
    </g>
</svg>