<svg height="24" viewBox="0 0 24 24" width="24"><g fill="none" fill-rule="evenodd"><circle cx="12" cy="12" fill="#fff" opacity=".2" r="12"/><path d="m9 8h4 1v2l-1 1v1l1 7h-6l1-7v-1l-1-1v-2zm2.8532601-1.76596929c-.3249853.16901506-.5942934.47463611-.8393941.76596929-.0456916-.32896952.0263257-.69592387.1458501-.99562068.1337462-.33803013.356455-.63389361.6421031-.80987836.5585875-.34430285 1.2336733-.19654535 1.7550417.170409.1597693.11325751.3165127.23278775.4865702.32548467.2357203.12754539.4898987.20281808.751642.18609081.4305904-.02753028.8451434-.27181803 1.2049269-.52969669-.0257204.33733316-.1885157.67396934-.374308.92836315-.2175647.29795439-.5062388.51819669-.8312241.62587846-.3473772.11465145-.7192645.09896964-1.0636158-.01986363-.2786885-.09653025-.5237891-.26031804-.7685872-.43734825-.1597693-.11569691-.3325501-.21954534-.5162243-.27425743-.2042506-.06063634-.4021466-.03519695-.5927805.06446966z" fill="#717065"/></g></svg>