<?xml version="1.0" encoding="UTF-8" standalone="no"?>
<svg width="27px" height="27px" viewBox="0 0 27 27" version="1.1" xmlns="http://www.w3.org/2000/svg" xmlns:xlink="http://www.w3.org/1999/xlink" xmlns:sketch="http://www.bohemiancoding.com/sketch/ns">
    <!-- Generator: Sketch 3.3.3 (12072) - http://www.bohemiancoding.com/sketch -->
    <title>cinema-l</title>
    <desc>Created with Sketch.</desc>
    <defs></defs>
    <g id="Page-1" stroke="none" stroke-width="1" fill="none" fill-rule="evenodd" sketch:type="MSPage">
        <g id="POI" sketch:type="MSLayerGroup" transform="translate(0.000000, -444.000000)">
            <g id="cinema-l" transform="translate(0.000000, 444.000000)" sketch:type="MSShapeGroup">
                <circle id="Oval-1-Copy-39" fill="#FFFFFF" cx="13.5" cy="13.5" r="13.5"></circle>
                <circle id="Oval-1-Copy-38" fill="#777871" cx="13.5" cy="13.5" r="12.5"></circle>
            </g>
            <path d="M19,449 L16.75,449.6563 L17.84375,452.625 L20,452 L19,449 Z M15.375,450.0313 L12.4375,450.875 L12.5,451 L13.0625,452.5313 L13.5625,453.8438 L16.5,453 L15.375,450.0313 Z M11.09375,451.25 L8.5,452 L9.625,454.9688 L12.21875,454.2188 L11.5625,452.5313 L11.09375,451.25 Z M7.15625,452.375 L5,453 L6,456 L8.25,455.3438 L7.15625,452.375 Z M6,456 L6,465 C6,465.554 6.44599,466 7,466 L20,466 C20.55401,466 21,465.554 21,465 L21,456 L6,456 Z M8,458 L19,458 L19,461 L8,461 L8,458 Z" id="rect7568-8-4-copy" fill="#FFFFFF" sketch:type="MSShapeGroup"></path>
        </g>
    </g>
</svg>