<svg height="24" viewBox="0 0 24 24" width="24"><g fill="none" fill-rule="evenodd"><circle cx="12" cy="12" fill="#fff" opacity=".6" r="12"/><circle cx="12" cy="12" fill="#717065" r="11"/><path d="m10.7366548 6c-.69183 0-1.25266903.5372583-1.25266903 1.2s.56083903 1.2 1.25266903 1.2c.6918297 0 1.252669-.5372583 1.252669-1.2s-.5608393-1.2-1.252669-1.2zm5.6370107 0c0 2.03714286-.653726 3.06059802-1.3505338 3.6-.6968078.539402-1.4841047.6-1.7811388.6v.6c.3919338 0 1.3192277-.089402 2.1725978-.75.8533702-.66059802 1.5854093-1.88714286 1.5854093-4.05zm-2.4857651.09375s-.2519945.94919736-.4893239 1.63125v.01875l-.0195729.0375c-.0716521.27455808-.287993.48520044-.5676157.6l-3.56227758 1.44375c-.49388343.1971325-.94631022.05671512-1.23309609-.375-.44083834-.72316884-.93950177-1.48125-.93950177-1.48125l-1.07651246.61875s.50651823.7889511.93950178 1.5l.01957295.01875c.59008247.888285 1.75046707 1.2278676 2.75978648.825l.11743772-.0375.58718857 1.81875 2.3879004-1.06875-.2348754-1.85625.7241992-.3c.5797541-.23801922 1.0791869-.71424264 1.272242-1.36875h.019573c.2637382-.75794736.5088968-1.725.5088968-1.725zm-.019573 5.94375c-.2335194-.00621-.4605375.035658-.6850534.13125h-.0195729l-.019573.01875-2.8772242 1.36875c-.8056019.3858648-1.41950838 1.1134098-1.58540924 1.9875l1.23309609.225c.08463295-.4459098.47286185-.9108648.91992885-1.125l1.7811388-.84375v4.2h.6263345v-4.5l.4501779-.225c.1146687-.048822.1942276-.049518.2544484-.01875.0602221.030768.1056614.074685.1174377.1875l.3131673 2.7 1.2330961-.13125-.3131673-2.7c-.0508571-.487185-.3538151-.8970174-.7633452-1.10625-.204765-.1046166-.431961-.1625382-.6654804-.16875zm-5.18683274 3.50625h-.01957295l-.54804271 2.45625h1.3113879l.48932385-2.2125z" fill="#fff" fill-rule="nonzero"/></g></svg>