<?xml version="1.0" encoding="UTF-8" standalone="no"?>
<svg width="23px" height="23px" viewBox="0 0 27 27" version="1.1" xmlns="http://www.w3.org/2000/svg" xmlns:xlink="http://www.w3.org/1999/xlink">
    <!-- Generator: Sketch 3.7.2 (28276) - http://www.bohemiancoding.com/sketch -->
    <title>climbing-l.svg</title>
    <desc>Created with Sketch.</desc>
    <defs></defs>
    <g id="POI" stroke="none" stroke-width="1" fill="none" fill-rule="evenodd">
        <g id="bank-l">
            <circle id="Oval-1-Copy-39" fill="#FFFFFF" cx="13.5" cy="13.5" r="13.5"></circle>
            <circle id="Oval-1-Copy-38" fill="#717065" cx="13.5" cy="13.5" r="12.5"></circle>
            <path d="M8.6350237,7.65448139 C8.94567618,7.19381634 9.58263958,7.0341277 10.0686679,7.30388242 L12.7962646,8.81774902 C12.7962646,8.81774902 13.6010661,8.88408095 13.9851685,8.81774899 C14.6917854,8.69572092 16.0959579,8.32670704 16.0959579,8.32670704 C16.626461,8.19157635 17.2530322,8.47736525 17.5047045,8.98366426 L20.2634232,14.5334868 C20.5109493,15.031445 20.5604497,15.8620632 20.3772787,16.3794225 L19.1351319,19.8878176 L18.7379306,23.065241 C18.6697966,23.610281 18.1663414,23.9827384 17.6225754,23.8985632 L17.8303056,23.9307199 C17.282446,23.8459111 16.9147954,23.3387634 17.008831,22.7997174 L17.6066285,19.372925 L18.4342041,16.8527832 L15.4779053,16.9766846 L16.2283396,18.9506926 C16.4250939,19.4682524 16.1689926,20.0448088 15.6473432,20.2418587 L16.0009114,20.1083004 C15.4832816,20.3038319 14.9244054,20.0337234 14.7564484,19.5167596 L13.7375704,16.3807018 C13.5679022,15.8584713 13.8809251,15.4235864 14.4201984,15.4097823 L16.6707764,15.3521729 C16.6707764,15.3521729 16.0578681,14.0019465 15.7514139,13.3268333 C15.7004462,13.2145523 15.5985107,12.9899902 15.5985107,12.9899902 C15.2173992,13.370495 14.4783728,13.5319601 13.9653704,13.3566213 L11.1912458,12.4084544 C10.6703988,12.2304344 10.4425082,11.6770502 10.6782734,11.180781 L10.5882061,11.3703664 C10.8257462,10.8703612 11.4431594,10.6316263 11.9408675,10.8267966 L14.2680664,11.7393799 C14.2680664,11.7393799 14.5313314,11.2029215 14.6629639,10.9346924 L14.3569336,10.5808105 L12.3988647,10.4650269 L9.09904106,8.74610419 C8.6085213,8.49058582 8.45984571,7.91425199 8.77336253,7.44933941 L8.6350237,7.65448139 Z M14.75,8 C15.7164983,8 16.5,7.21649831 16.5,6.25 C16.5,5.28350169 15.7164983,4.5 14.75,4.5 C13.7835017,4.5 13,5.28350169 13,6.25 C13,7.21649831 13.7835017,8 14.75,8 Z" id="Combined-Shape" fill="#FFFFFF"></path>
            <polyline id="Path-1513" stroke="#FFFFFF" stroke-linecap="round" points="6.80541992 5.78442383 7.24780273 6.53955078 7.90063477 12.2734375 15.0270996 21.8200684"></polyline>
        </g>
    </g>
</svg>
