<?xml version="1.0" encoding="UTF-8" standalone="no"?>
<svg width="23px" height="23px" viewBox="0 0 23 23" version="1.1" xmlns="http://www.w3.org/2000/svg" xmlns:xlink="http://www.w3.org/1999/xlink">
    <!-- Generator: Sketch 3.8.3 (29802) - http://www.bohemiancoding.com/sketch -->
    <title>clothes-m</title>
    <desc>Created with Sketch.</desc>
    <defs>
        <path d="M22,11.5 C22,17.299 17.299,22 11.5,22 C5.701,22 1,17.299 1,11.5 C1,5.701 5.701,1 11.5,1 C17.299,1 22,5.701 22,11.5 L22,11.5 Z" id="path-1"></path>
    </defs>
    <g id="POI-Clear" stroke="none" stroke-width="1" fill="none" fill-rule="evenodd">
        <g id="clothes-m">
            <path d="M11.5,23 C5.159,23 0,17.841 0,11.5 C0,5.159 5.159,0 11.5,0 C17.841,0 23,5.159 23,11.5 C23,17.841 17.841,23 11.5,23 L11.5,23 Z" id="Shape" fill-opacity="0.6" fill="#FFFFFF"></path>
            <g id="Shape">
                <use fill="#2D7970" xlink:href="#path-1"></use>
                <use fill="#825089" xlink:href="#path-1"></use>
            </g>
            <path d="M17.214,9.889 L14.94,9.889 L14.94,18 L8.059,18 L8.059,9.889 L5.785,9.889 L5,7.093 L9.326,6.066 C9.54,6.968 10.301,7.653 11.238,7.763 L11.76,7.763 C12.697,7.653 13.456,6.968 13.671,6.066 L17.999,7.093 L17.214,9.889 L17.214,9.889 Z" id="Shape" fill="#FFFFFF"></path>
        </g>
    </g>
</svg>