<?xml version="1.0" encoding="utf-8"?>
<!-- Generator: Adobe Illustrator 21.0.2, SVG Export Plug-In . SVG Version: 6.00 Build 0)  -->
<svg version="1.1" id="Слой_1" xmlns="http://www.w3.org/2000/svg" xmlns:xlink="http://www.w3.org/1999/xlink" x="0px" y="0px"
	 viewBox="0 0 33.9 33.9" enable-background="new 0 0 33.9 33.9" xml:space="preserve">
<title>college-l</title>
<desc>Created with Sketch.</desc>
<g id="POI-Clear">
	<g id="college-l">
		<circle id="Oval-1-Copy-39" fill="#FFFFFF" fill-opacity="0.6" cx="16.9" cy="16.9" r="16.2"/>
		<circle id="Oval-1-Copy-38" fill="#717065" cx="16.9" cy="16.9" r="15"/>
		<g id="path7442-copy">
			<g>
				<path id="path-1" fill="#FFFFFF" d="M16.9,9.1l-11.4,6l11.4,6l6.6-3.3v4.5c0,2.4,2.4,2.4,2.4,2.4v-1.2c0,0-1.2-0.1-1.2-1.2V17
					l3.6-2L16.9,9.1z M11.5,19.9v2.4c0,0.6,0.4,1.4,1.2,1.8l4.2,1.8l3.6-1.8c0.8-0.4,1.9-1.2,1.8-1.8v-2.4l-5.4,2.6L11.5,19.9z"/>
			</g>
			<g>
				<path id="path-1_1_" fill="#FFFFFF" d="M16.9,9.1l-11.4,6l11.4,6l6.6-3.3v4.5c0,2.4,2.4,2.4,2.4,2.4v-1.2c0,0-1.2-0.1-1.2-1.2
					V17l3.6-2L16.9,9.1z M11.5,19.9v2.4c0,0.6,0.4,1.4,1.2,1.8l4.2,1.8l3.6-1.8c0.8-0.4,1.9-1.2,1.8-1.8v-2.4l-5.4,2.6L11.5,19.9z"
					/>
			</g>
		</g>
	</g>
</g>
</svg>
