<svg version="1.1" viewBox="0 0 24 24" xmlns="http://www.w3.org/2000/svg">
 <title>computer-m</title>
 <g fill="none" fill-rule="evenodd">
  <g id="computer-m" fill-rule="nonzero">
   <circle id="Oval" cx="12" cy="12" r="12" fill="#fff" opacity=".6"/>
   <circle id="Oval" cx="12" cy="12" r="11" fill="#8C5F93"/>
   <path id="Shape" d="m16.667 15.167c0.64167 0 1.1608-0.525 1.1608-1.1667l0.0058333-5.8333c0-0.64167-0.525-1.1667-1.1667-1.1667h-9.3333c-0.64167 0-1.1667 0.525-1.1667 1.1667v5.8333c0 0.64167 0.525 1.1667 1.1667 1.1667h-1.75c-0.32083 0-0.58333 0.2625-0.58333 0.58333s0.2625 0.58333 0.58333 0.58333h12.833c0.32083 0 0.58333-0.2625 0.58333-0.58333s-0.2625-0.58333-0.58333-0.58333h-1.75zm-8.75-7h8.1667c0.32083 0 0.58333 0.2625 0.58333 0.58333v4.6667c0 0.32083-0.2625 0.58333-0.58333 0.58333h-8.1667c-0.32083 0-0.58333-0.2625-0.58333-0.58333v-4.6667c0-0.32083 0.2625-0.58333 0.58333-0.58333z" fill="#fff"/>
  </g>
 </g>
</svg>
