<svg height="24" viewBox="0 0 24 24" width="24"><g fill="none" fill-rule="evenodd"><circle cx="12" cy="12" fill="#fff" opacity=".6" r="12"/><circle cx="12" cy="12" fill="#8c5f93" r="11"/><path d="m18 7.47784615v6.27600005c0 .816-.6618462 1.4778461-1.4778462 1.4778461h-3.4144615l1.2 1.2913846v.7384616c0 .408-.3304615.7393846-.7393846.7393846h-3.1375385c-.4070769 0-.73846151-.3304616-.73846151-.7393846v-.7384616l1.20092311-1.2913846h-3.41538465c-.81692307 0-1.47784615-.6618461-1.47784615-1.4778461v-6.27600005c0-.816.66092308-1.47784615 1.47784615-1.47784615h9.04523075c.8150769 0 1.4769231.66184615 1.4769231 1.47784615zm-1.8461538 5.90676925v-5.53846155h-8.30769235v5.53846155z" fill="#fff"/></g></svg>