<?xml version="1.0" encoding="UTF-8"?>
<svg width="24px" height="24px" viewBox="0 0 24 24" version="1.1" xmlns="http://www.w3.org/2000/svg" xmlns:xlink="http://www.w3.org/1999/xlink">
    <title>computer-m</title>
    <g id="Page-1" stroke="none" stroke-width="1" fill="none" fill-rule="evenodd">
        <g id="computer-m" fill-rule="nonzero">
            <circle id="Oval" fill="#FFFFFF" opacity="0.6" cx="12" cy="12" r="12"></circle>
            <circle id="Oval" fill="#8C5F93" cx="12" cy="12" r="11"></circle>
            <path d="M16.6666667,15.1666667 C17.3083333,15.1666667 17.8275,14.6416667 17.8275,14 L17.8333333,8.16666667 C17.8333333,7.525 17.3083333,7 16.6666667,7 L7.33333333,7 C6.69166667,7 6.16666667,7.525 6.16666667,8.16666667 L6.16666667,14 C6.16666667,14.6416667 6.69166667,15.1666667 7.33333333,15.1666667 L5.58333333,15.1666667 C5.2625,15.1666667 5,15.4291667 5,15.75 C5,16.0708333 5.2625,16.3333333 5.58333333,16.3333333 L18.4166667,16.3333333 C18.7375,16.3333333 19,16.0708333 19,15.75 C19,15.4291667 18.7375,15.1666667 18.4166667,15.1666667 L16.6666667,15.1666667 Z M7.91666667,8.16666667 L16.0833333,8.16666667 C16.4041667,8.16666667 16.6666667,8.42916667 16.6666667,8.75 L16.6666667,13.4166667 C16.6666667,13.7375 16.4041667,14 16.0833333,14 L7.91666667,14 C7.59583333,14 7.33333333,13.7375 7.33333333,13.4166667 L7.33333333,8.75 C7.33333333,8.42916667 7.59583333,8.16666667 7.91666667,8.16666667 Z" id="Shape" fill="#FFFFFF"></path>
        </g>
    </g>
</svg>