<svg width="24" height="24" viewBox="0 0 24 24">
  <g fill="none" fill-rule="evenodd">
    <circle cx="12" cy="12" r="12" fill="#FFF" opacity=".6"/>
    <circle cx="12" cy="12" r="11" fill="#8C5F93"/>
    <path fill="#FFF" d="M6,6 L6,7.84615385 L18,7.84615385 L18,6 L6,6 L6,6 Z M6.92307692,18 L8.76923077,18 L8.76923077,14.3076923 L11.5384615,14.3076923 L11.5384615,18 L12.4615385,18 L12.4615385,14.3076923 L15.2307692,14.3076923 L15.2307692,18 L17.0769231,18 L17.0769231,9.69230769 L6.92307692,9.69230769 L6.92307692,18 L6.92307692,18 Z M8.76923077,11.5384615 L15.2307692,11.5384615 L15.2307692,13.3846154 L8.76923077,13.3846154 L8.76923077,11.5384615 L8.76923077,11.5384615 Z"/>
  </g>
</svg>
