<svg width="28" height="28" viewBox="0 0 28 28">
  <g fill="none" fill-rule="evenodd">
    <circle cx="14" cy="14" r="14" fill="#FFF" opacity=".6"/>
    <circle cx="14" cy="14" r="13" fill="#8C5F93"/>
    <path fill="#FFF" d="M6,7 L6,9 L22,9 L22,7 L6,7 L6,7 Z M6.94117647,21 L10.7058824,21 L10.7058824,16 L13.5294118,16 L13.5294118,21 L14.4705882,21 L14.4705882,16 L17.2941176,16 L17.2941176,21 L21.0588235,21 L21.0588235,11 L6.94117647,11 L6.94117647,21 L6.94117647,21 Z M10.7058824,13 L17.2941176,13 L17.2941176,15 L10.7058824,15 L10.7058824,13 L10.7058824,13 Z"/>
  </g>
</svg>
