<?xml version="1.0" encoding="UTF-8"?>
<svg width="24px" height="24px" viewBox="0 0 24 24" version="1.1" xmlns="http://www.w3.org/2000/svg" xmlns:xlink="http://www.w3.org/1999/xlink">
    <title>convenience-m</title>
    <g id="Page-1" stroke="none" stroke-width="1" fill="none" fill-rule="evenodd">
        <g id="convenience-m" fill-rule="nonzero">
            <circle id="Oval" fill="#FFFFFF" opacity="0.6" cx="12" cy="12" r="12"></circle>
            <circle id="Oval" fill="#8C5F93" cx="12" cy="12" r="11"></circle>
            <path d="M18.9292195,9.42319426 L18.1941778,7.06406038 C18.0401691,6.43402463 17.4941381,6 16.8571019,6 L7.13355013,6 C6.50351438,6 5.95048299,6.44102503 5.80347465,7.06406038 L5.06843294,9.42319426 C4.74641467,10.8022725 5.66346671,11.6003178 5.69846869,11.6423202 L5.69846869,17.2006356 C5.69846869,17.9706793 6.32850445,18.6007151 7.09854814,18.6007151 L16.8991043,18.6007151 C17.669148,18.6007151 18.2991838,17.9706793 18.2991838,17.2006356 L18.2991838,11.6423202 C19.0832282,10.8582757 19.0622271,9.95522445 18.9292195,9.42319426 Z M12.6988659,7.40007945 L14.0709438,7.40007945 L14.4489653,9.86421929 C14.5119688,10.3612475 14.1759498,10.9002781 13.5529144,10.9002781 C13.0838878,10.9002781 12.6988659,10.4872546 12.6988659,9.98322604 L12.6988659,7.40007945 Z M8.10660535,10.1022328 C8.05060217,10.5572586 7.68658151,10.9002781 7.25955728,10.9002781 C6.60852034,10.9002781 6.31450365,10.2212395 6.42651001,9.75221293 L7.13355013,7.40007945 L8.51262839,7.40007945 L8.10660535,10.1022328 Z M10.9487666,15.1005164 L9.89870705,15.1005164 L9.89870705,15.8005562 L10.9487666,15.8005562 C11.1447778,15.8005562 11.2987865,15.9545649 11.2987865,16.150576 L11.2987865,16.150576 C11.2987865,16.3465871 11.1447778,16.5005959 10.9487666,16.5005959 L9.54868718,16.5005959 C9.35267606,16.5005959 9.19866732,16.3465871 9.19866732,16.150576 L9.19866732,14.7504966 C9.19866732,14.5544854 9.35267606,14.4004767 9.54868718,14.4004767 L10.5987468,14.4004767 L10.5987468,13.700437 L9.54868718,13.700437 C9.35267606,13.700437 9.19866732,13.5464282 9.19866732,13.3504171 L9.19866732,13.3504171 C9.19866732,13.154406 9.35267606,13.0003973 9.54868718,13.0003973 L10.9487666,13.0003973 C11.1447778,13.0003973 11.2987865,13.154406 11.2987865,13.3504171 L11.2987865,14.7504966 C11.2987865,14.9465077 11.1447778,15.1005164 10.9487666,15.1005164 Z M11.2987865,9.98322604 C11.2987865,10.4872546 10.9137646,10.9002781 10.3957353,10.9002781 C9.87070546,10.9002781 9.48568361,10.4102503 9.54168679,9.86421929 L9.92670864,7.40007945 L11.2987865,7.40007945 L11.2987865,9.98322604 Z M14.4489653,16.5005959 L14.4489653,16.5005959 C14.2529541,16.5005959 14.0989454,16.3465871 14.0989454,16.150576 L14.0989454,15.1005164 L13.0488858,15.1005164 C12.8528747,15.1005164 12.6988659,14.9465077 12.6988659,14.7504966 L12.6988659,13.3504171 C12.6988659,13.154406 12.8528747,13.0003973 13.0488858,13.0003973 L13.0488858,13.0003973 C13.2448969,13.0003973 13.3989057,13.154406 13.3989057,13.3504171 L13.3989057,14.4004767 L14.0989454,14.4004767 L14.0989454,13.3504171 C14.0989454,13.154406 14.2529541,13.0003973 14.4489653,13.0003973 L14.4489653,13.0003973 C14.6449764,13.0003973 14.7989851,13.154406 14.7989851,13.3504171 L14.7989851,16.150576 C14.7989851,16.3465871 14.6449764,16.5005959 14.4489653,16.5005959 Z M16.7380952,10.9002781 C16.3110709,10.9002781 15.9400499,10.5572586 15.8910471,10.1022328 L15.4850241,7.40007945 L16.8361007,7.39307905 L17.5711424,9.75221293 C17.6831488,10.2212395 17.3961325,10.9002781 16.7380952,10.9002781 Z" id="Shape" fill="#FFFFFF"></path>
        </g>
    </g>
</svg>