<svg width="24" height="24" viewBox="0 0 24 24">
  <g fill="none" fill-rule="evenodd">
    <circle cx="12" cy="12" r="12" fill="#FFF" opacity=".6"/>
    <circle cx="12" cy="12" r="11" fill="#8C5F93"/>
    <path fill="#FFF" d="M7.84615385,5.93333333 L7.84615385,16.2013979 C7.84615385,16.7156766 8.25760175,17.1333333 8.76514846,17.1333333 L17.0769231,17.1333333 L17.0769231,16.2 L10.6080157,16.2 C9.59248283,16.2 8.76923077,15.3660269 8.76923077,14.3307572 L8.76923077,5.93333333 L7.84615385,5.93333333 Z M18,5 L18,15.2666667 L10.6113023,15.2666667 C10.1037556,15.2666667 9.69230769,14.8490099 9.69230769,14.3347312 L9.69230769,5 L18,5 Z M13.3846154,5 L18,5 L18,9.66666667 L13.3846154,9.66666667 L13.3846154,5 L13.3846154,5 Z M14.3076923,5 L18,8.73333333 L14.3076923,8.73333333 L14.3076923,5 L14.3076923,5 Z"/>
  </g>
</svg>
