<?xml version="1.0" encoding="UTF-8" standalone="no"?>
<svg width="23px" height="23px" viewBox="0 0 23 23" version="1.1" xmlns="http://www.w3.org/2000/svg" xmlns:xlink="http://www.w3.org/1999/xlink">
    <!-- Generator: Sketch 3.8.3 (29802) - http://www.bohemiancoding.com/sketch -->
    <title>copyshop-m</title>
    <desc>Created with Sketch.</desc>
    <defs>
        <path d="M11.5,22 C17.2989899,22 22,17.2989899 22,11.5 C22,5.70101013 17.2989899,1 11.5,1 C5.70101013,1 1,5.70101013 1,11.5 C1,17.2989899 5.70101013,22 11.5,22 L11.5,22 Z" id="path-1"></path>
    </defs>
    <g id="POI-Clear" stroke="none" stroke-width="1" fill="none" fill-rule="evenodd">
        <g id="copyshop-m">
            <g id="photo-shop-l">
                <g id="POI">
                    <g id="lighthouse-l">
                        <circle id="Oval-1-Copy-39" fill-opacity="0.6" fill="#FFFFFF" cx="11.5" cy="11.5" r="11.5"></circle>
                        <g id="Oval-1-Copy-38">
                            <use fill="#2D7970" xlink:href="#path-1"></use>
                            <use fill="#825089" xlink:href="#path-1"></use>
                        </g>
                        <path d="M6,6 L6,17.0014977 C6,17.5525106 6.44573523,18 6.9955775,18 L16,18 L16,17 L8.992017,17 C7.8918564,17 7,16.1064574 7,14.9972399 L7,6 L6,6 Z M17,5 L17,16 L8.9955775,16 C8.4457352,16 8,15.5525106 8,15.0014977 L8,5 L17,5 Z M12,5 L17,5 L17,10 L12,10 L12,5 L12,5 Z M13,5 L17,9 L13,9 L13,5 L13,5 Z" id="Combined-Shape" fill="#FFFFFF"></path>
                    </g>
                </g>
            </g>
        </g>
    </g>
</svg>