<svg width="28" height="28" viewBox="0 0 28 28">
  <g fill="none" fill-rule="evenodd">
    <circle cx="14" cy="14" r="14" fill="#FFF" opacity=".6"/>
    <circle cx="14" cy="14" r="13" fill="#8C5F93"/>
    <path fill="#FFF" d="M9.71428571,9.625 L8,9.625 L8,20.1263105 C8,20.6084468 8.38205877,21 8.85335214,21 L17.4285714,21 L17.4285714,19.25 L11.4217289,19.25 C10.4787341,19.25 9.71428571,18.4681502 9.71428571,17.4975849 L9.71428571,9.625 L9.71428571,9.625 Z M10.5714286,7 L20,7 L20,18.375 L11.4247807,18.375 C10.9534873,18.375 10.5714286,17.9834468 10.5714286,17.5013105 L10.5714286,7 L10.5714286,7 Z M15.7142857,7 L20,7 L20,11.375 L15.7142857,11.375 L15.7142857,7 L15.7142857,7 Z M16.5714286,7 L20,10.5 L16.5714286,10.5 L16.5714286,7 L16.5714286,7 Z"/>
  </g>
</svg>
