<?xml version="1.0" encoding="UTF-8" standalone="no"?>
<svg width="23px" height="23px" viewBox="0 0 27 27" version="1.1" xmlns="http://www.w3.org/2000/svg" xmlns:xlink="http://www.w3.org/1999/xlink">
    <!-- Generator: Sketch 3.7.2 (28276) - http://www.bohemiancoding.com/sketch -->
    <title>copyshop-l</title>
    <desc>Created with Sketch.</desc>
    <defs></defs>
    <g id="POI" stroke="none" stroke-width="1" fill="none" fill-rule="evenodd">
        <g id="lighthouse-l">
            <circle id="Oval-1-Copy-39" fill="#FFFFFF" cx="13.5" cy="13.5" r="13.5"></circle>
            <circle id="Oval-1-Copy-38" fill="#717065" cx="13.5" cy="13.5" r="12.5"></circle>
        </g>
        <path d="M9,8 L7,8 L7,20.0014977 C7,20.5525106 7.44573523,21 7.9955775,21 L18,21 L18,19 L10.992017,19 C9.8918564,19 9,18.1064574 9,16.9972399 L9,8 Z M10,5 L21,5 L21,18 L10.9955775,18 C10.4457352,18 10,17.5525106 10,17.0014977 L10,5 Z M16,5 L21,5 L21,10 L16,10 L16,5 Z M17,5 L21,9 L17,9 L17,5 Z" id="Combined-Shape" fill="#FFFFFF"></path>
    </g>
</svg>
