<svg height="24" viewBox="0 0 24 24" width="24"><g fill="none" fill-rule="evenodd"><circle cx="12" cy="12" fill="#fff" opacity=".6" r="12"/><circle cx="12" cy="12" fill="#717065" r="11"/><path d="m16.8505211 7.14780253c-.5228188-.52378086-1.1350314-.90307044-1.7842658-1.14780253l-7.22374806 7.2245635.43071598 1.2453342-2.01181384 2.012944c-.34854584.346779-.34854584.910295 0 1.257074.34673991.3467791.91019226.3467791 1.25693217 0l2.01091087-2.0120409 1.24699948.4307646 7.2237481-7.22366047c-.2456074-.65111379-.6248542-1.26339555-1.1494789-1.7871764zm-8.87888936 2.43558097c.74765792 0 1.35445276-.60686333 1.35445276-1.35550873 0-.74864539-.60679484-1.35550873-1.35445276-1.35550873-.74856089 0-1.35445276.60686334-1.35445276 1.35550873 0 .7486454.60589187 1.35550873 1.35445276 1.35550873z" fill="#fff"/></g></svg>