<svg version="1.1" viewBox="0 0 24 24" xmlns="http://www.w3.org/2000/svg">
 <title>cricket-m</title>
 <g fill="none" fill-rule="evenodd">
  <g id="cricket-m" fill-rule="nonzero">
   <g id="Group" transform="translate(5 5)" fill="#fff">
    <g transform="matrix(1.2875 0 0 1.2875 -2.0248 -1.8243)" fill="#717065">
     <path transform="translate(0,1.4)" d="m9.135 6.167-5.943-5.943c-0.273-0.273-0.714-0.273-0.987 0l-1.981 1.981c-0.273 0.273-0.273 0.714 0 0.987l5.943 5.943c0.273 0.273 0.714 0.273 0.987 0l1.981-1.981c0.273-0.273 0.273-0.714 0-0.987z"/>
     <path transform="translate(0,1.4)" d="m8.638 9.632 2.471 2.471c0.273 0.273 0.721 0.273 0.994 0s0.273-0.721 0-0.994l-2.471-2.471z"/>
     <circle cx="11.55" cy="2.45" r="2.45"/>
    </g>
   </g>
  </g>
 </g>
</svg>
