<?xml version="1.0" encoding="UTF-8" standalone="no"?>
<svg width="17px" height="17px" viewBox="0 0 17 17" version="1.1" xmlns="http://www.w3.org/2000/svg" xmlns:xlink="http://www.w3.org/1999/xlink">
    <!-- Generator: Sketch 3.8.3 (29802) - http://www.bohemiancoding.com/sketch -->
    <title>curling-s</title>
    <desc>Created with Sketch.</desc>
    <defs>
        <path d="M12.877,9 L4.015,9 C4.006,9.082 4,9.465 4,9.549 C4,10.791 5.008,11.799 6.25,11.799 L10.652,11.799 C11.894,11.799 12.902,10.791 12.902,9.549 C12.902,9.463 12.887,9.083 12.877,9 L12.877,9 Z M10.652,7 L7.751,7 C7.475,7 7.251,6.677 7.251,6.4 C7.251,6.123 7.475,5.8 7.751,5.8 L10.402,5.8 C10.678,5.8 10.902,5.676 10.902,5.4 C10.902,5.124 10.678,5 10.402,5 L7.049,5 L4.39,7.9 L12.522,7.9 C12.119,7.298 11.431,7 10.652,7 L10.652,7 Z" id="path-1"></path>
    </defs>
    <g id="POI-Clear" stroke="none" stroke-width="1" fill="none" fill-rule="evenodd">
        <g id="curling-s">
            <path d="M8.5,17 C3.812,17 0,13.188 0,8.5 C0,3.812 3.812,0 8.5,0 C13.188,0 17,3.812 17,8.5 C17,13.188 13.188,17 8.5,17 L8.5,17 Z" id="Shape" fill-opacity="0.6" fill="#FFFFFF"></path>
            <ellipse id="Oval" fill="#717065" cx="8.5" cy="8.5" rx="7.5" ry="7.5"></ellipse>
            <g id="Shape" fill="#FFFFFF">
                <use xlink:href="#path-1"></use>
                <use xlink:href="#path-1"></use>
            </g>
        </g>
    </g>
</svg>