<?xml version="1.0" encoding="UTF-8"?>
<svg width="24px" height="24px" viewBox="0 0 24 24" version="1.1" xmlns="http://www.w3.org/2000/svg" xmlns:xlink="http://www.w3.org/1999/xlink">
    <title>curling-m</title>
    <g id="Page-1" stroke="none" stroke-width="1" fill="none" fill-rule="evenodd">
        <g id="curling-m" fill-rule="nonzero">
            <circle id="Oval" fill="#FFFFFF" opacity="0.6" cx="12" cy="12" r="12"></circle>
            <circle id="Oval" fill="#717065" cx="12" cy="12" r="11"></circle>
            <g id="curling" transform="translate(5.000000, 6.000000)" fill="#FFFFFF">
                <path d="M0.0991212873,7.80665587 C0.0385590284,8.07144216 0,8.34413251 0,8.62696997 C0,8.90980744 0.0385590284,9.18249779 0.0991212873,9.44728408 L13.9009061,9.44728408 C13.9614683,9.18249779 14.0000273,8.90980744 14.0000273,8.62696997 C14.0000273,8.34413251 13.9613615,8.07144216 13.9009061,7.80665587 L0.0991212873,7.80665587 Z" id="Path"></path>
                <path d="M3.30860021,4.96525019 C2.04362886,5.10795066 0.949983559,5.89301688 0.402039359,6.98634177 L13.5980948,6.98634177 C13.0500438,5.89301688 11.9563985,5.10795066 10.6914271,4.96525019 L10.6914271,3.29492831 L4.53907137,3.29492831 C3.85953514,3.29492831 3.30860021,3.84586324 3.30860021,4.52539946 L3.30860021,4.96525019 Z" id="Path"></path>
                <path d="M0.402039359,10.2675982 C1.00851636,11.4777751 2.27530353,12.3183834 3.71875726,12.3183834 L10.2812701,12.3183834 C11.7247238,12.3183834 12.991511,11.4777751 13.597988,10.2675982 L0.402039359,10.2675982 Z" id="Path"></path>
                <path d="M3.30860021,0.423828953 C3.30860021,1.10336518 3.85953514,1.65430011 4.53907137,1.65430011 L8.23048483,1.65430011 C8.68358018,1.65430011 9.05079893,2.02151885 9.05079893,2.47461421 L10.6914271,2.47461421 L10.6914271,2.06445716 C10.6914271,0.93182555 9.77327348,0.0136719017 8.64064188,0.0136719017 L3.71875726,0.0136719017 C3.49220959,0.0136719017 3.30860021,0.197281276 3.30860021,0.423828953 Z" id="Path"></path>
            </g>
        </g>
    </g>
</svg>