<?xml version="1.0" encoding="UTF-8"?>
<svg width="24px" height="24px" viewBox="0 0 24 24" version="1.1" xmlns="http://www.w3.org/2000/svg" xmlns:xlink="http://www.w3.org/1999/xlink">
    <title>dentist-m</title>
    <g id="Page-1" stroke="none" stroke-width="1" fill="none" fill-rule="evenodd">
        <g id="dentist-m" fill-rule="nonzero">
            <circle id="Oval" fill="#FFFFFF" opacity="0.6" cx="12" cy="12" r="12"></circle>
            <circle id="Oval" fill="#717065" cx="12" cy="12" r="11"></circle>
            <path d="M8.5,5 C6.4,5 5,7.1 5,9.2 C5,10.67574 5.7,12.7 6.4,13.4 C7.1,14.1 7.8,19 9.2,19 C12.37849,19 10.6,14.1 12,14.1 C13.4,14.1 11.62151,19 14.8,19 C16.2,19 16.9,14.1 17.6,13.4 C18.3,12.7 19,10.67574 19,9.2 C19,7.1 17.6,5 15.5,5 C13.4,5 13.4,5.7 12,5.7 C10.6,5.7 10.6,5 8.5,5 Z M8.5,6.4 C9.9,6.4 10.6,7.1 12,7.1 C13.4,7.1 14.1,6.4 15.5,6.4 C16.66669,6.4 17.6,7.8 17.6,9.2 C17.6,10.42661 16.99779,12.07721 16.33125,12.74375 C15.73268,13.34232 14.84277,17.55625 14.45,17.55625 C14.30083,17.55625 14.10952,16.81579 14.1,15.91559 C14.08488,14.48654 13.69869,12.7 12,12.7 C10.301303,12.7 9.915099,14.48654 9.9,15.91559 C9.890487,16.81579 9.699184,17.55625 9.55,17.55625 C9.157244,17.55625 8.267292,13.34225 7.66875,12.74375 C7.002217,12.07721 6.4,10.42661 6.4,9.2 C6.4,7.8 7.333331,6.4 8.5,6.4 Z" id="Shape" fill="#FFFFFF"></path>
        </g>
    </g>
</svg>