<?xml version="1.0" encoding="UTF-8" standalone="no"?>
<svg width="23px" height="23px" viewBox="0 0 23 23" version="1.1" xmlns="http://www.w3.org/2000/svg" xmlns:xlink="http://www.w3.org/1999/xlink">
    <!-- Generator: Sketch 3.8.3 (29802) - http://www.bohemiancoding.com/sketch -->
    <title>department_store-m</title>
    <desc>Created with Sketch.</desc>
    <defs>
        <path d="M22,11.5 C22,17.299 17.299,22 11.5,22 C5.701,22 1,17.299 1,11.5 C1,5.701 5.701,1 11.5,1 C17.299,1 22,5.701 22,11.5 L22,11.5 Z" id="path-1"></path>
    </defs>
    <g id="POI-Clear" stroke="none" stroke-width="1" fill="none" fill-rule="evenodd">
        <g id="department_store-m">
            <path d="M11.5,23 C5.159,23 0,17.841 0,11.5 C0,5.159 5.159,0 11.5,0 C17.841,0 23,5.159 23,11.5 C23,17.841 17.841,23 11.5,23 L11.5,23 Z" id="Shape" fill-opacity="0.6" fill="#FFFFFF"></path>
            <g id="Shape">
                <use fill="#2D7970" xlink:href="#path-1"></use>
                <use fill="#825089" xlink:href="#path-1"></use>
            </g>
            <path d="M10,5.414 L10.414,5 L12.586,5 L13,5.414 L13,7 L14,7 L14,4.586 L13.414,4 L9.586,4 L9,4.586 L9,7 L10,7 L10,5.414 L10,5.414 Z M14,9 L14,12.414 L13.414,13 L9.586,13 L9,12.414 L9,9 L6,9 L6,17 C6,18.104 6.896,19 8,19 L15,19 C16.104,19 17,18.104 17,17 L17,9 L14,9 L14,9 Z M10,11.586 L10.414,12 L12.586,12 L13,11.586 L13,9 L10,9 L10,11.586 L10,11.586 Z" id="Shape" fill="#FFFFFF"></path>
        </g>
    </g>
</svg>