<svg width="28" height="28" viewBox="0 0 28 28">
  <g fill="none" fill-rule="evenodd">
    <circle cx="14" cy="14" r="14" fill="#FFF" opacity=".6"/>
    <circle cx="14" cy="14" r="13" fill="#8C5F93"/>
    <path fill="#FFF" d="M12.6153846,7.03284211 L12.9975385,6.68421053 L15.0024615,6.68421053 L15.3846154,7.03284211 L15.3846154,8.36842105 L17.2307692,8.36842105 L17.2307692,6.33557895 L15.7667692,5 L12.2332308,5 L10.7692308,6.33557895 L10.7692308,8.36842105 L12.6153846,8.36842105 L12.6153846,7.03284211 L12.6153846,7.03284211 Z M17.2307692,10.0526316 L17.2307692,12.9275789 L15.7667692,14.2631579 L12.2332308,14.2631579 L10.7692308,12.9275789 L10.7692308,10.0526316 L8,10.0526316 L8,19.3157895 C8,20.2454737 8.82707692,21 9.84615385,21 L18.1538462,21 C19.1729231,21 20,20.2454737 20,19.3157895 L20,10.0526316 L17.2307692,10.0526316 L17.2307692,10.0526316 Z M12.6153846,12.2303158 L12.9975385,12.5789474 L15.0024615,12.5789474 L15.3846154,12.2303158 L15.3846154,10.0526316 L12.6153846,10.0526316 L12.6153846,12.2303158 L12.6153846,12.2303158 Z"/>
  </g>
</svg>
