<?xml version="1.0" encoding="UTF-8"?>
<svg width="24px" height="24px" viewBox="0 0 24 24" version="1.1" xmlns="http://www.w3.org/2000/svg" xmlns:xlink="http://www.w3.org/1999/xlink">
    <title>diving-m</title>
    <g id="Page-1" stroke="none" stroke-width="1" fill="none" fill-rule="evenodd">
        <g id="diving-m" fill-rule="nonzero">
            <circle id="Oval" fill="#FFFFFF" opacity="0.6" cx="12" cy="12" r="12"></circle>
            <circle id="Oval" fill="#717065" cx="12" cy="12" r="11"></circle>
            <path d="M12.2647288,11.0616643 L12.3612578,12.5948298 L11.3502823,12.6586913 L11.2535076,11.1255257 L12.2647288,11.0616643 Z M18.9463537,12.4093861 C18.4293217,12.4626858 18.0680134,11.7680699 18.0680134,10.5235089 C17.6416155,10.138621 15.628998,12.2423639 15.628998,12.2423639 L15.6420159,12.2703647 C15.1866348,12.5891806 14.7224114,12.8939961 14.2584335,13.1990572 C14.4905452,12.5491444 14.7138146,11.8948103 14.9081007,11.2311427 C14.91375,11.2102649 14.9186624,11.190124 14.9225924,11.1699831 L16.6348155,9.62625586 C15.4936609,9.16227801 15.9301292,8.5187513 14.685077,8 C14.3134526,8.11126626 13.9221785,10.3073626 13.8418605,10.7752703 C13.8163159,10.8180084 13.7956838,10.8656588 13.7794728,10.9196954 C13.567502,11.6469789 13.3189336,12.3617356 13.0637335,13.0740362 C11.3824586,12.5791101 9.61767258,12.8397139 7.9359064,13.2653748 C7.05977671,13.4871705 7.05707488,14.5052691 7.56575573,14.9793174 C7.63109089,15.0930398 7.74726956,15.1799896 7.92436222,15.2106922 C8.93828522,15.3860655 9.83627516,15.8087791 10.6726143,16.4012166 C11.2903508,16.8379306 11.8746829,15.8230251 11.2633325,15.3899955 C10.9739911,15.1851477 10.672123,14.9999495 10.361167,14.8324361 C11.2291912,14.7503987 12.0952504,14.8083652 12.9583622,15.1333216 C13.3344078,15.274308 13.7507352,15.0910749 13.9953736,14.7899437 C14.7990451,14.2274718 15.638086,13.7153523 16.4361083,13.14281 C16.4572317,13.1275815 16.4763901,13.1116162 16.4938292,13.0956508 C17.3824855,12.8704165 19.3489263,12.3678761 18.9463537,12.4093861 Z M6.4938662,13.7814243 C6.93205386,12.8839256 7.42108503,12.8858906 8.08720886,12.8873643 C8.37655026,12.8885924 8.70126107,12.8898205 9.04316533,12.8058182 L11.1660666,12.6717092 L11.069292,11.1380524 L8.32079432,11.3114607 C7.8970983,11.3382334 7.57558057,11.703226 7.60235324,12.1266764 C7.60923063,12.2342584 7.63796827,12.3349629 7.68365375,12.4251058 C7.08360194,12.4577734 6.49239248,12.6471471 6.02251973,13.6834216 C5.59759561,13.6949658 5.20484782,13.9653944 5.06042274,14.3917922 C4.96045504,14.686046 5,14.9930721 5.14221449,15.2436054 L5,15.6633715 L5.98985215,15.9991353 L6.06648587,15.7724272 C6.11045201,15.7716903 6.1539269,15.7682516 6.19715618,15.7621111 C6.34993237,15.8972026 6.5820441,15.9011325 6.7385046,15.762848 C6.85099896,15.6638628 6.89422824,15.5157534 6.86770118,15.3784513 C6.94089621,15.2868347 7.00058208,15.1814633 7.04061829,15.0638109 C7.21353539,14.553902 6.97037071,14.0037112 6.4938662,13.7814243 Z" id="Shape" fill="#FFFFFF"></path>
        </g>
    </g>
</svg>