<svg width="28" height="28" viewBox="0 0 28 28">
  <g fill="none" fill-rule="evenodd">
    <circle cx="14" cy="14" r="14" fill="#FFF" opacity=".6"/>
    <circle cx="14" cy="14" r="13" fill="#717065"/>
    <path fill="#FFF" d="M21.994062,14.2568358 C21.9142309,15.1518184 21.0659152,15.8167556 20.1009233,15.7419705 C19.1359314,15.6688112 18.4183283,14.8835675 18.496405,13.9885849 C18.5771134,13.0944151 19.425429,12.4294779 20.3904209,12.5026373 C21.3554128,12.5766095 22.0730159,13.3618531 21.994062,14.2568358 L21.994062,14.2568358 Z M6.10415425,10.1021979 L8.15607796,13.9097353 L15.818991,16.7556339 L18.1060219,19 L21.1220602,19 C21.607188,19 21.9993256,18.7260589 21.9993256,18.3870873 C21.9993256,18.0489285 21.6098198,17.729466 21.1290783,17.6741901 L18.5376364,17.3742368 L16.6550249,14.4429857 L9.72813752,12.1628528 L7.59813718,9.42100308 C7.31565773,9.05683212 6.77789406,8.8983202 6.39891541,9.06821246 C6.01993677,9.23810472 5.8874697,9.70063436 6.10415425,10.1021979 L6.10415425,10.1021979 Z M11.6712803,11.6336668 L16.2146377,13.0618998 C16.8146872,13.2496755 17.4647409,12.9529737 17.6673892,12.3977755 L17.6673892,12.3977755 C17.8709147,11.8425774 17.5498356,11.2402321 16.9515406,11.0516436 L12.407306,9.6234106 L11.6712803,11.6336668 L11.6712803,11.6336668 Z"/>
  </g>
</svg>
