<svg width="16" height="16" viewBox="0 0 16 16">
  <g fill="none" fill-rule="evenodd">
    <circle cx="8" cy="8" r="8" fill="#FFF" opacity=".6"/>
    <circle cx="8" cy="8" r="7" fill="#717065"/>
    <path fill="#FFF" d="M11.8087539,8.19680766 C11.7745402,8.6632083 11.3981889,9.00989625 10.971833,8.97158819 C10.545477,8.93423783 10.227026,8.52434158 10.2612397,8.05794094 C10.297208,7.592498 10.6718047,7.24485235 11.0990379,7.28220271 C11.5262712,7.32146848 11.8438449,7.73040702 11.8087539,8.19680766 L11.8087539,8.19680766 Z M4.05188285,5.7584996 L5.07829533,8.00143655 L8.90935798,9.67837191 L10.0533254,11 L11.5613622,11 C11.8034903,11 12,10.8381484 12,10.6389465 C12,10.4397446 11.8052448,10.2520351 11.5648713,10.2194733 L10.2682579,10.0422985 L9.32781845,8.31460495 L5.86433429,6.97190742 L4.79932169,5.35722267 C4.65808031,5.14173982 4.38963397,5.04884278 4.19926516,5.14940144 C4.00977362,5.24900239 3.94397795,5.52194733 4.05188285,5.7584996 L4.05188285,5.7584996 Z M6.83547841,6.18371907 L9.106745,7.02553871 C9.40677326,7.13567438 9.73224251,6.96137271 9.83312921,6.63383879 L9.83312921,6.63383879 C9.93577046,6.30726257 9.77522902,5.95195531 9.47520076,5.84086193 L7.20305689,5 L6.83547841,6.18371907 L6.83547841,6.18371907 Z"/>
  </g>
</svg>
