<svg height="24" viewBox="0 0 24 24" width="24"><g fill="none" fill-rule="evenodd"><circle cx="12" cy="12" fill="#fff" opacity=".6" r="12"/><circle cx="12" cy="12" fill="#717065" r="11"/><path d="m18.9193938 12.9917489c-.0614143.7133096-.7196984 1.2446338-1.4691444 1.1851913-.7475267-.058528-1.3050531-.6840456-1.2445984-1.3991842.0614143-.7123951.7196984-1.2428047 1.4691443-1.1851913.7475268.058528 1.3050531.6858746 1.2445985 1.3991842zm-13.82780533-3.99910612 1.79540761 3.42662942 6.70566992 2.561513 2.0017212 2.0192148h2.6388941c.4231827 0 .7667187-.2469149.7667187-.5514432s-.3406572-.5916811-.7609611-.6419786l-2.2675298-.2697773-1.6476295-2.6383309-6.06082017-2.0521368-1.86449866-2.46731955c-.24757625-.3273908-.71681961-.47096722-1.04980007-.31733131-.33202087.15272141-.44717261.56973316-.25717223.93096044zm4.67995881 1.10562982 3.97561402 1.2857863c.5249.1691824 1.0949011-.0978515 1.2714671-.5980827.1794448-.5002312-.1017173-1.04161486-.6266174-1.21171176l-3.9765735-1.28487173z" fill="#fff"/></g></svg>