<svg width="24" height="24" viewBox="0 0 24 24">
  <g fill="none" fill-rule="evenodd">
    <circle cx="12" cy="12" r="12" fill="#FFF" opacity=".6"/>
    <circle cx="12" cy="12" r="11" fill="#717065"/>
    <path fill="#FFF" d="M15.01191,12.271339 L15.1168946,11.9913644 L12.7181297,9.7797473 L8.13409793,10.3560585 L7.71945302,7.90900827 L6.8822232,7.90900827 L6.8822232,12.4849559 L6,16.999091 L6.67137186,16.999091 C7.04102338,16.999091 7.45655051,16.6954822 7.59770622,16.3209708 L8.63431848,13.5630397 L13.3815615,14.4484138 L13.9153066,16.3018816 C14.0264667,16.6873012 14.4314071,17 14.8213498,17 L15.1751213,17 L14.7878253,12.8694664 L15.01191,12.271339 L15.01191,12.271339 Z M15.8447287,7.97900191 L15.5280106,7 L14.822232,7 L14.822232,7.66266703 C14.632554,7.86355786 14.2152625,8.29533679 13.8050287,8.71620762 L15.6929863,10.4569585 L15.6938685,10.4542314 L16.8478165,10.4542314 C17.4838994,10.4542314 18,9.96518498 18,9.3625125 L18,8.9998182 L15.8447287,7.97900191 L15.8447287,7.97900191 Z"/>
  </g>
</svg>
