<svg width="28" height="28" viewBox="0 0 28 28">
  <g fill="none" fill-rule="evenodd">
    <circle cx="14" cy="14" r="14" fill="#FFF" opacity=".6"/>
    <circle cx="14" cy="14" r="13" fill="#717065"/>
    <path fill="#FFF" d="M18.6646668,8.371 L18.2345744,7 L17.2934533,7 L17.2934533,8.668 C17.0327628,8.946 16.7184283,9.281 16.4069172,9.611 L18.9234751,12.004 L18.9253573,12 L20.4631492,12 C21.3110993,12 22,11.328 22,10.5 L22,10 L18.6646668,8.371 L18.6646668,8.371 Z M18.0162343,14.499 L18.1555203,14.114 L14.9566496,11.072 L8.56926063,11.879 L8.05917299,9 L6.94112111,9 L6.94112111,15 L6,21 L6.89406505,21 C7.38721252,21 7.94059173,20.582 8.12881595,20.067 L9.6647256,15.485 L15.8573025,17.547 L16.5537321,20.041 C16.7014881,20.57 17.2416917,21 17.7621316,21 L18.2345744,21 L17.7169578,15.32 L18.0162343,14.499 L18.0162343,14.499 Z"/>
  </g>
</svg>
