<?xml version="1.0" encoding="UTF-8"?>
<svg width="24px" height="24px" viewBox="0 0 24 24" version="1.1" xmlns="http://www.w3.org/2000/svg" xmlns:xlink="http://www.w3.org/1999/xlink">
    <title>dog_park-m</title>
    <g id="Page-1" stroke="none" stroke-width="1" fill="none" fill-rule="evenodd">
        <g id="dog_park-m" fill-rule="nonzero">
            <circle id="Oval" fill="#FFFFFF" opacity="0.6" cx="12" cy="12" r="12"></circle>
            <circle id="Oval" fill="#717065" cx="12" cy="12" r="11"></circle>
            <path d="M18.5625,6.74996116 L16.8125,6.74996116 L16.6167187,6.35867209 C16.4685145,6.06224191 16.1655548,5.87498278 15.8341406,5.87496116 L14.3679688,5.87496116 L13.6220313,5.12902366 C13.3461328,4.85339866 12.875,5.04863303 12.875,5.43828147 L12.875,9.53546897 L16.375,10.7853518 L16.375,9.81246116 L17.25,9.81246116 C18.2166016,9.81246116 19,9.02906272 19,8.06246116 L19,7.18746116 C19,6.94574241 18.8042188,6.74996116 18.5625,6.74996116 Z M15.5,8.06246116 C15.2582813,8.06246116 15.0625,7.86667991 15.0625,7.62496116 C15.0625,7.38324241 15.2582813,7.18746116 15.5,7.18746116 C15.7417187,7.18746116 15.9375,7.38324241 15.9375,7.62496116 C15.9375,7.86667991 15.7417187,8.06246116 15.5,8.06246116 Z M7.625,10.2499612 C7.14265625,10.2499612 6.75,9.85730491 6.75,9.37496116 C6.75,8.89179709 6.35816406,8.49996116 5.875,8.49996116 C5.39183594,8.49996116 5,8.89179709 5,9.37496116 C5,10.5141018 5.73363281,11.4763283 6.75,11.838633 L6.75,17.6874612 C6.75,17.9291799 6.94578125,18.1249612 7.1875,18.1249612 L8.9375,18.1249612 C9.17921875,18.1249612 9.375,17.9291799 9.375,17.6874612 L9.375,14.6249612 L13.75,14.6249612 L13.75,17.6874612 C13.75,17.9291799 13.9457812,18.1249612 14.1875,18.1249612 L15.9375,18.1249612 C16.1792187,18.1249612 16.375,17.9291799 16.375,17.6874612 L16.375,11.714219 L12.2748047,10.2499612 L7.625,10.2499612 Z" id="Shape" fill="#FFFFFF"></path>
        </g>
    </g>
</svg>