<svg width="16" height="16" viewBox="0 0 16 16">
  <g fill="none" fill-rule="evenodd">
    <circle cx="8" cy="8" r="8" fill="#FFF" opacity=".6"/>
    <circle cx="8" cy="8" r="7" fill="#717065"/>
    <path fill="#FFF" d="M10.4084523,5.6238254 L10.2025402,5 L9.75295043,5 L9.75295043,5.75841164 C9.62796448,5.88481358 9.47780151,6.03758715 9.32943689,6.18763262 L10.5307407,7.27523492 L10.5325391,7.27341619 L11.2662695,7.27341619 C11.6717995,7.27341619 12,6.96786905 12,6.59139133 L12,6.36404971 L10.4084523,5.6238254 L10.4084523,5.6238254 Z M10.0829493,8.08638982 L8.34393616,6.51409518 L4.86950658,6.85237951 L4.62582893,5.54380115 L4.09171631,5.54380115 L4.09171631,8.27190058 L4,11 L4.42711026,11 C4.66359447,11 4.92795324,10.8099424 5.01697201,10.5753259 L5.75070248,8.49196726 L9.06687648,9.4295241 L9.40047207,10.5635041 C9.47060807,10.8044862 9.72867259,10.9990906 9.97774531,10.9990906 L10.2034394,10.9990906 L9.956165,8.41648985 L10.0829493,8.08638982 L10.0829493,8.08638982 Z"/>
  </g>
</svg>
