<svg height="24" viewBox="0 0 24 24" width="24"><g fill="none" fill-rule="evenodd"><circle cx="12" cy="12" fill="#fff" opacity=".6" r="12"/><circle cx="12" cy="12" fill="#717065" r="11"/><path d="m15.01191 12.271339.1049846-.2799746-2.3987649-2.2116171-4.58403177.5763112-.41464491-2.44705023h-.83722982v4.57594763l-.8822232 4.5141351h.67137186c.36965152 0 .78517865-.3036088.92633436-.6781202l1.03661226-2.7579311 4.74724302.8853741.5337451 1.8534678c.1111601.3854196.5161005.6981184.9060432.6981184h.3537715l-.387296-4.1305336zm.8328187-4.29233709-.3167181-.97900191h-.7057786v.66266703c-.189678.20089083-.6069695.63266976-1.0172033 1.05354059l1.8879576 1.74075088.0008822-.0027271h1.153948c.6360829 0 1.1521835-.48904642 1.1521835-1.0917189v-.3626943z" fill="#fff"/></g></svg>