<?xml version="1.0" encoding="UTF-8" standalone="no"?>
<svg width="17px" height="17px" viewBox="0 0 17 17" version="1.1" xmlns="http://www.w3.org/2000/svg" xmlns:xlink="http://www.w3.org/1999/xlink">
    <!-- Generator: Sketch 3.7.2 (28276) - http://www.bohemiancoding.com/sketch -->
    <title>doityourself-s</title>
    <desc>Created with Sketch.</desc>
    <defs></defs>
    <g id="POI-Clear" stroke="none" stroke-width="1" fill="none" fill-rule="evenodd">
        <g id="doityourself-s">
            <path d="M8.5,17 C3.812,17 0,13.188 0,8.5 C0,3.812 3.812,0 8.5,0 C13.188,0 17,3.812 17,8.5 C17,13.188 13.188,17 8.5,17 L8.5,17 Z" id="Shape" fill-opacity="0.6" fill="#FFFFFF"></path>
            <circle id="Oval" fill="#825089" cx="8.5" cy="8.5" r="7.5"></circle>
            <path d="M9,4 L6,4 L6,7 L11,7 L11,6 C10.172,6 9,4.828 9,4 L9,4 Z M8,12.5 C8,12.776 8.224,13 8.5,13 C8.776,13 9,12.776 9,12.5 L9,8 L8,8 L8,12.5 L8,12.5 Z" id="Shape" fill="#FFFFFF"></path>
        </g>
    </g>
</svg>