<svg version="1.1" viewBox="0 0 24 24" xml:space="preserve" xmlns="http://www.w3.org/2000/svg">
 
  <circle cx="12" cy="12" r="12" fill="#fff" opacity=".6"/>
  <circle cx="12" cy="12" r="11" fill="#717065"/>
  <path d="m17.158 6.5565c-0.14906-0.43974-0.56644-0.75278-1.0584-0.75278h-8.1985c-0.49191 0-0.90184 0.31304-1.0584 0.75278l-1.4683 4.226c-0.052172 0.15652-0.081986 0.32049-0.081986 0.49191v5.3365c0 0.61862 0.49937 1.118 1.118 1.118 0.61862 0 1.118-0.49936 1.118-1.118v-0.37266h8.9439v0.37266c0 0.61116 0.49936 1.118 1.118 1.118 0.61117 0 1.118-0.49936 1.118-1.118v-5.3365c0-0.16397-0.02981-0.3354-0.08198-0.49191z" fill="#fff"/>
  <path d="m10.269 7.8739h1.284v5.0402h3.0433v1.1048h-4.3273z" fill="#717065" stroke="#717065" stroke-width=".5"/>
 
</svg>
