<svg width="24" height="24" version="1.1" viewBox="0 0 255.69 255.69" xmlns="http://www.w3.org/2000/svg">
 <polygon transform="translate(17744 14390)" points="315 545 235 375 315 205 395 375" fill="none" stroke="#fff" stroke-width="40"/>
 <path d="m22.005 254.85h211.66c5.5739 0 11.024-2.2577 14.972-6.2088 3.9405-3.937 6.1948-9.3839 6.1948-14.958v-211.66c0-5.5738-2.2543-11.021-6.1948-14.972-3.9476-3.937-9.398-6.1948-14.972-6.1948h-211.66c-5.5704 0-11.021 2.2578-14.958 6.1948-3.9476 3.9511-6.2089 9.398-6.2089 14.972v211.66c0 7.2566 3.8523 14.111 9.9624 18.006 3.4854 2.2154 7.1684 2.7375 11.204 3.1608" fill="#fff" stroke="#000" stroke-width="1.6933"/>
 <path d="m22.005 249.55c-3.1538 0-5.8067-0.7091-8.3608-2.3284-4.6249-2.9421-7.5142-8.1385-7.5142-13.547v-211.66c0-4.1733 1.6933-8.2691 4.6567-11.232 2.9422-2.9422 7.0485-4.6426 11.218-4.6426h211.66c4.184 0 8.2903 1.6898 11.232 4.6426 2.9528 2.9422 4.6426 7.0485 4.6426 11.232v211.66c0 4.1698-1.7004 8.2761-4.6426 11.218-2.9633 2.9633-7.0556 4.6567-11.232 4.6567h-211.66z" fill="#717065" fill-rule="evenodd"/>
 <path d="m109.25 134.27-35.295 7e-3c-12.238 0-22.162-9.906-22.162-22.151l-0.03881-38.717c0-16.598 13.462-30.06 30.067-30.06h102.21c16.598 0 30.053 13.462 30.053 30.06l0.0494 54.681h15.635c3.3937 0 6.1313 2.7693 6.1313 6.1666l-79.354 0.0141c-0.79376-12.428-11.024-22.288-23.647-22.288-12.633 0-22.856 9.8601-23.65 22.288m80.176-49.216c3.4255 0 6.2018-2.7764 6.2018-6.2089v-10.273c0-3.4325-2.7764-6.2159-6.2018-6.2159h-21.558c-3.4325 0-6.2089 2.7834-6.2089 6.2159v10.273c0 3.4325 2.7764 6.2089 6.2089 6.2089h21.558zm-61.662 0.03528c3.4325 0 6.2089-2.7764 6.2089-6.2018v-10.315c0-3.4325-2.7764-6.2159-6.2089-6.2159h-46.694c-3.4255 0-6.2018 2.7834-6.2018 6.2159v10.315c0 3.4255 2.7764 6.2018 6.2018 6.2018h46.694z" fill="#fff"/>
 <path d="m236.15 153.33-0.0741 62.95c0 4.6038-3.7289 8.3397-8.3397 8.3397h-199.11c-4.6108 0-8.3432-3.7359-8.3432-8.3397l0.01411-62.784h48.934v10.604l-34.72 0.0282c-1.4887 0-2.7234 1.076-2.9563 2.4871v41.836c0 3.1503 2.5506 5.7009 5.6903 5.7009h87.686c3.1468 0 5.5739-2.5506 5.5739-5.7009l7e-3 -41.331c0-1.6616-1.3441-3.0057-3.0057-3.0057l-38.135-0.0141v-10.77h39.702c-8.0821-1.7568-14.146-8.9288-14.146-17.54 0-9.9307 8.0398-17.985 17.971-17.985 9.9272 0 17.974 8.0539 17.974 17.985 0 8.6113-6.0678 15.783-14.15 17.54h99.43zm-103.25-9.7472c4.2968 0 7.7929-3.4996 7.7929-7.7929 0-4.3074-3.496-7.7999-7.7929-7.7999-4.3004 0-7.7929 3.4925-7.7929 7.7999 0 4.2933 3.4925 7.7929 7.7929 7.7929" fill="#fff"/>
 <path d="m75.509 141.15h7.5459v40.598h3.6512s2.7975 0.59267 1.8662 3.6583l-6.8262 8.2691s-0.82903 1.1853-2.3178 1.2065c-1.4817-0.0212-2.3142-1.2065-2.3142-1.2065l-7.1226-8.2691c-0.93839-3.0656 1.8662-3.6583 1.8662-3.6583h3.6512v-40.598z" fill="#fff"/>
</svg>
