<?xml version="1.0" encoding="UTF-8" standalone="no"?>
<svg width="17px" height="17px" viewBox="0 0 17 17" version="1.1" xmlns="http://www.w3.org/2000/svg" xmlns:xlink="http://www.w3.org/1999/xlink">
    <!-- Generator: Sketch 3.8.3 (29802) - http://www.bohemiancoding.com/sketch -->
    <title>electronics-s</title>
    <desc>Created with Sketch.</desc>
    <defs>
        <ellipse id="path-1" cx="8.5" cy="8.5" rx="7.5" ry="7.5"></ellipse>
    </defs>
    <g id="POI-Clear" stroke="none" stroke-width="1" fill="none" fill-rule="evenodd">
        <g id="electronics-s">
            <path d="M8.5,17 C3.812,17 0,13.188 0,8.5 C0,3.812 3.812,0 8.5,0 C13.188,0 17,3.812 17,8.5 C17,13.188 13.188,17 8.5,17 L8.5,17 Z" id="Shape" fill-opacity="0.6" fill="#FFFFFF"></path>
            <g id="Oval">
                <use fill="#2D7970" xlink:href="#path-1"></use>
                <use fill="#825089" xlink:href="#path-1"></use>
            </g>
            <path d="M6,9.947 L6,11 C6,11.523 6.318,11.947 6.711,11.947 L8,11.947 L8,9 L6.711,9 C6.318,9 6,9.423 6,9.947 L6,9.947 Z M10.289,9 L9,9 L9,11.947 L10.289,11.947 C10.682,11.947 11,11.523 11,11 L11,9.947 C11,9.423 10.682,9 10.289,9 L10.289,9 Z M8.5,4 C6.019,4 4,6.019 4,8.5 L4.484,10.734 L4.947,10.631 L4.947,8.262 L4.96,8.262 C5.082,6.414 6.621,4.947 8.5,4.947 C10.379,4.947 11.918,6.415 12.04,8.262 L12.053,8.262 L12.053,10.631 L12.516,10.734 L12.99,8.602 L13,8.5 C13,6.019 10.981,4 8.5,4 L8.5,4 Z" id="Shape" fill="#FFFFFF"></path>
        </g>
    </g>
</svg>