<?xml version="1.0" encoding="UTF-8"?>
<svg version="1.1" viewBox="0 0 24 24" xml:space="preserve" xmlns="http://www.w3.org/2000/svg">
 <g opacity="1">
  <circle cx="12" cy="12" r="12" fill="#fff" opacity=".6"/>
  <circle cx="12" cy="12" r="11" fill="#8C5F93"/>
  <path d="m16.694 14.397v-1.1984h1.8975q0.25966 0 0.42943 0.16978 0.16978 0.16978 0.16978 0.42943 0 0.23968-0.16978 0.41945-0.16978 0.17976-0.42943 0.17976zm0 3.1958v-1.1984h1.8975q0.25966 0 0.42943 0.16978 0.16978 0.16978 0.16978 0.42943 0 0.23968-0.16978 0.41945-0.16978 0.17976-0.42943 0.17976zm-3.0959 0.79894q-0.57924 0-0.9887-0.46938-0.40946-0.46938-0.40946-1.1285h-1.8975v-2.7963h1.8975q0-0.65913 0.40946-1.1285 0.40946-0.46938 0.9887-0.46938h2.4967v5.9921zm-5.6925-2.3968q-1.3382 0-2.2171-0.86885-0.87884-0.86885-0.87884-2.2271t0.87884-2.2271q0.87884-0.86885 2.2171-0.86885h1.2983q0.65913 0 1.0786-0.41945 0.41945-0.41945 0.41945-1.0786 0-0.65913-0.41945-1.0786-0.41945-0.41945-1.0786-0.41945h-2.996q-0.23968 0-0.41945-0.17976-0.17976-0.17976-0.17976-0.41945 0-0.25966 0.17976-0.42943 0.17976-0.16978 0.41945-0.16978h2.996q1.1585 0 1.9275 0.76899t0.76898 1.9275q0 1.1585-0.76898 1.9275-0.76898 0.76898-1.9275 0.76898h-1.2983q-0.83889 0-1.3682 0.51932-0.5293 0.51931-0.5293 1.3782 0 0.85887 0.5293 1.3782 0.5293 0.51931 1.3682 0.51931h1.7976v1.1984z" fill="#fff"/>
 </g>
</svg>
