<?xml version="1.0" encoding="UTF-8" standalone="no"?>
<svg width="27px" height="27px" viewBox="0 0 27 27" version="1.1" xmlns="http://www.w3.org/2000/svg" xmlns:xlink="http://www.w3.org/1999/xlink">
    <!-- Generator: Sketch 3.8.3 (29802) - http://www.bohemiancoding.com/sketch -->
    <title>embassy-l</title>
    <desc>Created with Sketch.</desc>
    <defs>
        <path d="M12,5.16554271 L10,6.16554271 L8,7.16554271 L8,22.1655427 C8,22.6655427 8.5,23.1655427 9,23.1655427 C9.5,23.1655427 10,22.6655427 10,22.1655427 L10,13.1655427 C10,13.1655427 11.000008,12.6655427 12.00008,12.1655427 C14,11.1656427 16.211251,15.0598427 18.00012,14.1654427 C20.0002,13.1654427 21.00012,12.6655427 21.00012,12.6655427 L21.00012,5.66554271 C21.00012,5.66554271 20,6.16554271 18,7.16554271 C16.211131,8.05994271 14.00016,4.16554271 12,5.16554271 L12,5.16554271 Z" id="path-1"></path>
    </defs>
    <g id="POI-Clear" stroke="none" stroke-width="1" fill="none" fill-rule="evenodd">
        <g id="embassy-l">
            <circle id="Oval-1-Copy-39" fill-opacity="0.6" fill="#FFFFFF" cx="13.5" cy="13.5" r="13.5"></circle>
            <circle id="Oval-1-Copy-38" fill="#717065" cx="13.5" cy="13.5" r="12.5"></circle>
            <g id="rect9498-4-copy" fill="#FFFFFF">
                <use xlink:href="#path-1"></use>
                <use xlink:href="#path-1"></use>
            </g>
        </g>
    </g>
</svg>