<svg version="1.1" viewBox="0 0 24 24" xmlns="http://www.w3.org/2000/svg">
 <title>embassy-m</title>
 <g fill="none" fill-rule="evenodd">
  <g id="embassy-m" fill-rule="nonzero">
   <circle id="Oval" cx="12" cy="12" r="12" fill="#fff" opacity=".6"/>
   <circle id="Oval" cx="12" cy="12" r="11" fill="#717065"/>
   <g id="embassy" transform="translate(5 5)" fill="#fff">
    <path id="Shape" d="m13.417 7.5833h-1.1667v-1.4583c0-0.322-0.26133-0.58333-0.58333-0.58333h-9.3333c-0.322 0-0.58333 0.26133-0.58333 0.58333v1.4583h-1.1667c-0.322 0-0.58333 0.26133-0.58333 0.58333v5.25c0 0.322 0.26133 0.58333 0.58333 0.58333h12.833c0.322 0 0.58333-0.26133 0.58333-0.58333v-5.25c0-0.322-0.26133-0.58333-0.58333-0.58333zm-10.5-0.875h8.1667v0.875h-8.1667v-0.875zm9.9167 6.125h-11.667v-4.0833h11.667v4.0833z"/>
    <path id="Path" d="m3.5 9.625c-0.322 0-0.58333 0.26133-0.58333 0.58333v1.1667c0 0.322 0.26133 0.58333 0.58333 0.58333s0.58333-0.26133 0.58333-0.58333v-1.1667c0-0.322-0.26133-0.58333-0.58333-0.58333z"/>
    <path id="Path" d="m5.8333 9.625c-0.322 0-0.58333 0.26133-0.58333 0.58333v1.1667c0 0.322 0.26133 0.58333 0.58333 0.58333s0.58333-0.26133 0.58333-0.58333v-1.1667c0-0.322-0.26133-0.58333-0.58333-0.58333z"/>
    <path id="Path" d="m8.1667 9.625c-0.322 0-0.58333 0.26133-0.58333 0.58333v1.1667c0 0.322 0.26133 0.58333 0.58333 0.58333s0.58333-0.26133 0.58333-0.58333v-1.1667c0-0.322-0.26133-0.58333-0.58333-0.58333z"/>
    <path id="Path" d="m10.5 9.625c-0.322 0-0.58333 0.26133-0.58333 0.58333v1.1667c0 0.322 0.26133 0.58333 0.58333 0.58333s0.58333-0.26133 0.58333-0.58333v-1.1667c0-0.322-0.26133-0.58333-0.58333-0.58333z"/>
    <path id="Shape" d="m10.456 0.35988c-0.090434-0.2179-0.30306-0.35988-0.53904-0.35988h-5.8333c-0.322 0-0.58333 0.26133-0.58333 0.58333v3.5c0 0.322 0.26133 0.58333 0.58333 0.58333h5.8333c0.23598 0 0.44861-0.14199 0.53904-0.35988 0.090434-0.21818 0.040446-0.46869-0.12661-0.63588l-1.3376-1.3376 1.3376-1.3376c0.16677-0.16691 0.21676-0.4177 0.12661-0.63588zm-2.7015 2.3859 0.75423 0.75423h-3.8418v-2.3333h3.8418l-0.75423 0.75423c-0.22772 0.22786-0.22772 0.59701 0 0.82487z"/>
   </g>
  </g>
 </g>
</svg>
