<?xml version="1.0" encoding="UTF-8" standalone="no"?>
<svg width="23px" height="23px" viewBox="0 0 23 23" version="1.1" xmlns="http://www.w3.org/2000/svg" xmlns:xlink="http://www.w3.org/1999/xlink">
    <!-- Generator: Sketch 3.8.3 (29802) - http://www.bohemiancoding.com/sketch -->
    <title>equestrian-m</title>
    <desc>Created with Sketch.</desc>
    <defs>
        <path d="M16.7401761,14 L16,17 L16.9993304,17 C16.9993304,17 18.0056826,13.4541832 17.9998217,13.5 C17.9790688,12.9049206 17.2521674,13.0083414 17.016754,13.0067731 C16.677836,13.0045154 16,13 16,13 C16,13 14.8694676,9.35013626 14.8694676,9.20232343 C14.8694676,8.81801007 15.1800029,8.5039078 15.5633889,8.5039078 C15.7399966,8.5039078 15.8996795,8.57116264 16.0233049,8.67832694 L16.666296,9.64598827 C16.7884497,9.85809968 17.0187756,10 17.2829514,10 C17.6781112,10 18.0033638,9.6762899 18.0033638,9.27645619 L17.9996844,6.79172248 C17.9783443,6.79172248 17.9319848,6.7872881 17.9319848,6.7872881 C17.700923,6.75476927 17.5221077,6.55448289 17.5221077,6.31428703 C17.5221077,6.21229618 17.5508064,6.1191741 17.6037888,6.04231142 L18.6398875,5.60921983 L15,5 C12.94937,5.08764279 12.043726,6.73901797 12.043726,8.88452122 C12.043726,8.96463477 12,10 12,10 L6.03614238,10 C5.68612143,10 5.37488359,10.0149269 5.12728691,10.1350632 C4.87969023,10.2551994 4.83493556,10.6602577 4.75240334,11 C4.50160223,11.9935911 4,14 4,14 L5,14 L6,11 L6,14 L4.99999997,15.0006247 L6.0602796,19 L7,19 L6.27001953,15.9733391 L7,15.0006247 L8,19 L9.07725194,19 L7.94777015,15.0006247 L13.916664,15.0006247 L14,19 L15,19 L15.0863236,14 L16.7401761,14 Z" id="path-1"></path>
    </defs>
    <g id="POI-Clear" stroke="none" stroke-width="1" fill="none" fill-rule="evenodd">
        <g id="equestrian-m">
            <circle id="Oval-1-Copy-38" fill-opacity="0.6" fill="#FFFFFF" cx="11.5" cy="11.5" r="11.5"></circle>
            <circle id="Oval-1-Copy-47" fill="#717065" cx="11.5" cy="11.5" r="10.5"></circle>
            <g id="Shape" fill="#FFFFFF">
                <use xlink:href="#path-1"></use>
                <use xlink:href="#path-1"></use>
            </g>
        </g>
    </g>
</svg>