<svg width="28" height="28" viewBox="0 0 28 28">
  <g fill="none" fill-rule="evenodd" transform="translate(-2087 -801)">
    <g transform="translate(2087 801)">
      <circle cx="14" cy="14" r="14" fill="#FFF" opacity=".6"/>
      <circle cx="14" cy="14" r="13" fill="#8C5F93"/>
    </g>
    <path fill="#FFF" fill-rule="nonzero" d="M2101.7,808 L2101.7,810.1 L2104.5,810.1 L2101.59062,813.009375 C2100.81681,812.497967 2099.89696,812.2 2098.9,812.2 C2096.1938,812.2 2094,814.3938 2094,817.1 C2094,819.8062 2096.1938,822 2098.9,822 C2101.6062,822 2103.8,819.8062 2103.8,817.1 C2103.8,816.103039 2103.50203,815.183185 2102.99062,814.409375 L2105.9,811.5 L2105.9,814.3 L2108,814.3 L2108,810.1 L2108,808 L2105.9,808 L2101.7,808 Z M2098.9,814.3 C2100.4463,814.3 2101.7,815.5537 2101.7,817.1 C2101.7,818.6463 2100.4463,819.9 2098.9,819.9 C2097.3537,819.9 2096.1,818.6463 2096.1,817.1 C2096.1,815.5537 2097.3537,814.3 2098.9,814.3 Z"/>
  </g>
</svg>
