<?xml version="1.0" encoding="UTF-8" standalone="no"?>
<svg
   width="24"
   height="24"
   viewBox="0 0 24 24"
   version="1.1"
   id="svg10"
   sodipodi:docname="excrement-bags-m1.svg"
   inkscape:version="1.2.1 (9c6d41e410, 2022-07-14)"
   xmlns:inkscape="http://www.inkscape.org/namespaces/inkscape"
   xmlns:sodipodi="http://sodipodi.sourceforge.net/DTD/sodipodi-0.dtd"
   xmlns="http://www.w3.org/2000/svg"
   xmlns:svg="http://www.w3.org/2000/svg"
   xmlns:rdf="http://www.w3.org/1999/02/22-rdf-syntax-ns#"
   xmlns:cc="http://creativecommons.org/ns#"
   xmlns:dc="http://purl.org/dc/elements/1.1/">
  <defs
     id="defs14" />
  <sodipodi:namedview
     id="namedview12"
     pagecolor="#ffffff"
     bordercolor="#000000"
     borderopacity="0.25"
     inkscape:showpageshadow="2"
     inkscape:pageopacity="0.0"
     inkscape:pagecheckerboard="0"
     inkscape:deskcolor="#d1d1d1"
     showgrid="false"
     inkscape:zoom="256"
     inkscape:cx="11.107422"
     inkscape:cy="9.515625"
     inkscape:window-width="3840"
     inkscape:window-height="2064"
     inkscape:window-x="0"
     inkscape:window-y="0"
     inkscape:window-maximized="1"
     inkscape:current-layer="svg10" />
  <title
     id="title2">wayside_shrine-m</title>
  <path
     id="rect4577-5"
     d="m 7,7 v 10 l -1,2 h 12.000001 l -1,-2 V 7 Z m 1,1 h 8.000001 V 9 H 8 Z M 7.9998403,9.0005858 15.99781,9.0006086 16.000001,17.5 c 7.1e-5,0.277 -0.223,0.5 -0.5,0.5 H 8.5 C 8.223,18 8,17.777 8,17.5 Z M 12,11 c 0,1 -0.257364,1.562225 -1,2 -0.554,0 -1,0.446 -1,1 0,0.554 0.446,1 1,1 h -1 c -0.554,0 -1,0.446 -1,1 0,0.554 0.446,1 1,1 h 4.000001 c 0.554,0 1,-0.446 1,-1 0,-0.554 -0.446,-1 -1,-1 H 13 c 0.554,0 1.000001,-0.446 1.000001,-1 0,-0.554 -0.446001,-1 -1.000001,-1 3.34e-4,-1 -0.283114,-1.523587 -1,-2 z"
     style="fill:#717065;fill-opacity:1;stroke:none;stroke-width:0.176777;stroke-linecap:square;stroke-miterlimit:4;stroke-dasharray:none;stroke-opacity:1;paint-order:markers stroke fill"
     sodipodi:nodetypes="ccccccccccccccsssscccscsssssscscc" />
  <metadata
     id="metadata580">
    <rdf:RDF>
      <cc:Work
         rdf:about="">
        <dc:title>wayside_shrine-m</dc:title>
      </cc:Work>
    </rdf:RDF>
  </metadata>
</svg>
