<?xml version="1.0" encoding="utf-8"?>
<!-- Generator: Adobe Illustrator 21.0.2, SVG Export Plug-In . SVG Version: 6.00 Build 0)  -->
<svg version="1.1" id="Слой_1" xmlns="http://www.w3.org/2000/svg" xmlns:xlink="http://www.w3.org/1999/xlink" x="0px" y="0px"
	 viewBox="0 0 32.4 32.4" enable-background="new 0 0 32.4 32.4" xml:space="preserve">
<title>fastfood-l</title>
<desc>Created with Sketch.</desc>
<g id="POI-Clear">
	<g id="Artboard-1" transform="translate(-137.000000, -507.000000)">
		<g id="fastfood-l" transform="translate(137.500000, 507.000000)">
			<circle id="Oval-1" fill="#FFFFFF" fill-opacity="0.6" cx="15.7" cy="16.2" r="16.2"/>
			<g id="Oval-1_1_">
				<g>
					<circle id="path-1" fill="#AB842F" cx="15.7" cy="16.2" r="15"/>
				</g>
				<g>
					<circle id="path-1_1_" fill="#BB9342" cx="15.7" cy="16.2" r="15"/>
				</g>
			</g>
			<g id="g16674" transform="translate(4.000000, 7.000000)">
				<path id="rect13326-2-5-2-3" fill="#FFFFFF" d="M9.9,1.4c-3.6,0-8.4,1.8-8.4,4.8v2.4h20.4V6.2c0-3-4.8-4.8-8.4-4.8H9.9z
					 M9.3,2.6c0.3,0,0.6,0.3,0.6,0.6S9.6,3.8,9.3,3.8C9,3.8,8.7,3.5,8.7,3.2S9,2.6,9.3,2.6L9.3,2.6z M14.1,2.6
					c0.3,0,0.6,0.3,0.6,0.6s-0.3,0.6-0.6,0.6c-0.3,0-0.6-0.3-0.6-0.6S13.8,2.6,14.1,2.6L14.1,2.6z M6.9,5c0.3,0,0.6,0.3,0.6,0.6
					S7.2,6.2,6.9,6.2S6.3,5.9,6.3,5.6S6.6,5,6.9,5L6.9,5z M11.7,5c0.3,0,0.6,0.3,0.6,0.6S12,6.2,11.7,6.2s-0.6-0.3-0.6-0.6
					S11.4,5,11.7,5L11.7,5z M16.5,5c0.3,0,0.6,0.3,0.6,0.6s-0.3,0.6-0.6,0.6s-0.6-0.3-0.6-0.6S16.2,5,16.5,5L16.5,5z M1.5,9.8
					c-0.6,0-1.2,0.6-1.2,1.2c0,0.6,0.6,1.2,1.2,1.2h20.4c0.6,0,1.2-0.6,1.2-1.2c0-0.6-0.6-1.2-1.2-1.2H1.5z M1.5,13.4v1.2
					c0,1.2,1.2,2.4,2.4,2.4h15.6c1.2,0,2.4-1.2,2.4-2.4v-1.2H1.5z"/>
			</g>
		</g>
	</g>
</g>
</svg>
