<svg version="1.1" viewBox="0 0 24 24" xmlns="http://www.w3.org/2000/svg">
 <title>fire_station-m</title>
 <g fill="none" fill-rule="evenodd">
  <g id="fire_station-m" fill-rule="nonzero">
   <circle id="Oval" cx="12" cy="12" r="12" fill="#fff" opacity=".6"/>
   <circle id="Oval" cx="12" cy="12" r="11" fill="#717065"/>
   <g id="Group" transform="translate(7 5)" fill="#fff">
    <path id="Shape" d="m10.32 7.5667c-1.0467-2.72-4.7733-2.8667-3.8733-6.82 0.066667-0.29333-0.24667-0.52-0.5-0.36667-2.42 1.4267-4.16 4.2867-2.7 8.0333 0.12 0.30667-0.24 0.59333-0.5 0.39333-1.2067-0.91333-1.3333-2.2267-1.2267-3.1667 0.04-0.34667-0.41333-0.51333-0.60667-0.22667-0.45333 0.69333-0.91333 1.8133-0.91333 3.5 0.25333 3.7333 3.4067 4.88 4.54 5.0267 1.62 0.20667 3.3733-0.093333 4.6333-1.2467 1.3867-1.2867 1.8933-3.34 1.1467-5.1267zm-6.1867 3.3533c0.96-0.23333 1.4533-0.92667 1.5867-1.54 0.22-0.95333-0.64-1.8867-0.06-3.3933 0.22 1.2467 2.18 2.0267 2.18 3.3867 0.053333 1.6867-1.7733 3.1333-3.7067 1.5467z"/>
    <path id="Shape" d="m10.32 7.5667c-1.0467-2.72-4.7733-2.8667-3.8733-6.82 0.066667-0.29333-0.24667-0.52-0.5-0.36667-2.42 1.4267-4.16 4.2867-2.7 8.0333 0.12 0.30667-0.24 0.59333-0.5 0.39333-1.2067-0.91333-1.3333-2.2267-1.2267-3.1667 0.04-0.34667-0.41333-0.51333-0.60667-0.22667-0.45333 0.69333-0.91333 1.8133-0.91333 3.5 0.25333 3.7333 3.4067 4.88 4.54 5.0267 1.62 0.20667 3.3733-0.093333 4.6333-1.2467 1.3867-1.2867 1.8933-3.34 1.1467-5.1267zm-6.1867 3.3533c0.96-0.23333 1.4533-0.92667 1.5867-1.54 0.22-0.95333-0.64-1.8867-0.06-3.3933 0.22 1.2467 2.18 2.0267 2.18 3.3867 0.053333 1.6867-1.7733 3.1333-3.7067 1.5467z"/>
   </g>
  </g>
 </g>
</svg>
