<?xml version="1.0" encoding="UTF-8"?>
<svg width="24px" height="24px" viewBox="0 0 24 24" version="1.1" xmlns="http://www.w3.org/2000/svg" xmlns:xlink="http://www.w3.org/1999/xlink">
    <title>fire_station-m</title>
    <g id="Page-1" stroke="none" stroke-width="1" fill="none" fill-rule="evenodd">
        <g id="fire_station-m" fill-rule="nonzero">
            <circle id="Oval" fill="#FFFFFF" opacity="0.6" cx="12" cy="12" r="12"></circle>
            <circle id="Oval" fill="#717065" cx="12" cy="12" r="11"></circle>
            <g id="Group" transform="translate(7.000000, 5.000000)" fill="#FFFFFF">
                <path d="M10.32,7.56666667 C9.27333333,4.84666667 5.54666667,4.7 6.44666667,0.746666667 C6.51333333,0.453333333 6.2,0.226666667 5.94666667,0.38 C3.52666667,1.80666667 1.78666667,4.66666667 3.24666667,8.41333333 C3.36666667,8.72 3.00666667,9.00666667 2.74666667,8.80666667 C1.54,7.89333333 1.41333333,6.58 1.52,5.64 C1.56,5.29333333 1.10666667,5.12666667 0.913333333,5.41333333 C0.46,6.10666667 0,7.22666667 0,8.91333333 C0.253333333,12.6466667 3.40666667,13.7933333 4.54,13.94 C6.16,14.1466667 7.91333333,13.8466667 9.17333333,12.6933333 C10.56,11.4066667 11.0666667,9.35333333 10.32,7.56666667 Z M4.13333333,10.92 C5.09333333,10.6866667 5.58666667,9.99333333 5.72,9.38 C5.94,8.42666667 5.08,7.49333333 5.66,5.98666667 C5.88,7.23333333 7.84,8.01333333 7.84,9.37333333 C7.89333333,11.06 6.06666667,12.5066667 4.13333333,10.92 Z" id="Shape"></path>
                <path d="M10.32,7.56666667 C9.27333333,4.84666667 5.54666667,4.7 6.44666667,0.746666667 C6.51333333,0.453333333 6.2,0.226666667 5.94666667,0.38 C3.52666667,1.80666667 1.78666667,4.66666667 3.24666667,8.41333333 C3.36666667,8.72 3.00666667,9.00666667 2.74666667,8.80666667 C1.54,7.89333333 1.41333333,6.58 1.52,5.64 C1.56,5.29333333 1.10666667,5.12666667 0.913333333,5.41333333 C0.46,6.10666667 0,7.22666667 0,8.91333333 C0.253333333,12.6466667 3.40666667,13.7933333 4.54,13.94 C6.16,14.1466667 7.91333333,13.8466667 9.17333333,12.6933333 C10.56,11.4066667 11.0666667,9.35333333 10.32,7.56666667 Z M4.13333333,10.92 C5.09333333,10.6866667 5.58666667,9.99333333 5.72,9.38 C5.94,8.42666667 5.08,7.49333333 5.66,5.98666667 C5.88,7.23333333 7.84,8.01333333 7.84,9.37333333 C7.89333333,11.06 6.06666667,12.5066667 4.13333333,10.92 Z" id="Shape"></path>
            </g>
        </g>
    </g>
</svg>