<svg width="16" height="16" viewBox="0 0 16 16">
  <g fill="none" fill-rule="evenodd">
    <circle cx="8" cy="8" r="8" fill="#FFF" opacity=".2"/>
    <path fill="#C15746" fill-rule="nonzero" d="M7.5,2 L7.5,2.5625 C6.8917732,2.7189826 6.56763165,3.1504381 6.40625,3.5 L5.5,3.5 L5.5,4.5 L10.5,4.5 L10.5,3.5 L9.59375,3.5 C9.4323685,3.1504381 9.108227,2.7189826 8.5,2.5625 L8.5,2 L7.5,2 Z M6,5.5 L6,5.953125 C6,6.253125 5.753125,6.5 5.453125,6.5 L5,6.5 L5,9.5 L5.453125,9.5 C5.753125,9.5 6,9.746875 6,10.046875 L6,12.5 L5,12.5 L5,13.5 L11,13.5 L11,12.5 L10,12.5 L10,10.046875 C10,9.746875 10.246875,9.5 10.546875,9.5 L11,9.5 L11,6.5 L10.546875,6.5 C10.246875,6.5 10,6.253125 10,5.953125 L10,5.5 L6,5.5 Z M3,6 L3,7 L2.5,7 L2.5,9 L3,9 L3,10 L4,10 L4,6 L3,6 Z M8,6.5 C8.85,6.5 9.5,7.15 9.5,8 C9.5,8.85 8.85,9.5 8,9.5 C7.15,9.5 6.5,8.85 6.5,8 C6.5,7.15 7.15,6.5 8,6.5 Z M12,6 L12,10 L13,10 L13,9 L13.5,9 L13.5,7 L13,7 L13,6 L12,6 Z M8,7.25 C7.5857865,7.25 7.25,7.5857865 7.25,8 C7.25,8.4142135 7.5857865,8.75 8,8.75 C8.4142135,8.75 8.75,8.4142135 8.75,8 C8.75,7.5857865 8.4142135,7.25 8,7.25 Z"/>
  </g>
</svg>
