<svg height="24" viewBox="0 0 24 24" width="24"><g fill="none" fill-rule="evenodd"><circle cx="12" cy="12" fill="#fff" opacity=".2" r="12"/><path d="m11 3v.80004883c-.6800006 0-1.23125.6725626-1.23125 1h-1.26875v1.19995117h6.9943848v-1.19995117h-1.2631348c0-.55228475-.6732647-1-1.23125-1v-.80004883zm-1.99639893 4v1c0 .55228475-.44466401 1-1.00180053 1h-1.00180054v5h1.00180054c.55327916 0 1.00041856.446003.99896316.9969578 0 0-.0007637.0830422-.0007637.5030422v4.1h-1v1.4h8v-1.4h-1v-4.1-.5030422c0-.5506046.4438648-.9969578 1-.9969578h1v-5h-1c-.5522847 0-1-.44386482-1-1v-1zm-4.50360107 1.5v1.5028076h-1v2.9971924h1v1.5h1.5v-6zm15 0v1.5028076h1v2.9971924h-1v1.5h-1.5v-6zm-7.5.5c1.4166667 0 2.5 1.0833333 2.5 2.5s-1.0833333 2.5-2.5 2.5-2.5-1.0833333-2.5-2.5 1.0833333-2.5 2.5-2.5zm0 1.5c-.5522847 0-1 .4477153-1 1s.4477153 1 1 1 1-.4477153 1-1-.4477153-1-1-1z" fill="#c15746" fill-rule="nonzero"/></g></svg>