<svg width="28" height="28" viewBox="0 0 28 28">
  <g fill="none" fill-rule="evenodd">
    <circle cx="14" cy="14" r="14" fill="#FFF" opacity=".2"/>
    <path fill="#717065" fill-rule="nonzero" d="M7.2,0 L7.2,0.9 C6.22683712,1.15037216 5.70821064,1.84070096 5.45,2.4 L4.8,2.4 L4.8,4 L11.2,4 L11.2,2.4 L10.55,2.4 C10.2917896,1.84070096 9.7731632,1.15037216 8.8,0.9 L8.8,0 L7.2,0 Z M4.8,4.8 L4.8,5.525 C4.8,6.005 4.405,6.4 3.925,6.4 L3.2,6.4 L3.2,11.2 L3.925,11.2 C4.405,11.2 4.8,11.595 4.8,12.075 L4.8,14.4 L4,14.4 L4,16 L12,16 L12,14.4 L11.2,14.4 L11.2,12.075 C11.2,11.595 11.595,11.2 12.075,11.2 L12.8,11.2 L12.8,6.4 L12.075,6.4 C11.595,6.4 11.2,6.005 11.2,5.525 L11.2,4.8 L4.8,4.8 Z M0.8,6.4 L0.8,7.2 L0,7.2 L0,10.4 L0.8,10.4 L0.8,11.2 L2.4,11.2 L2.4,6.4 L0.8,6.4 Z M8,6.4 C9.36,6.4 10.4,7.44 10.4,8.8 C10.4,10.16 9.36,11.2 8,11.2 C6.64,11.2 5.6,10.16 5.6,8.8 C5.6,7.44 6.64,6.4 8,6.4 Z M13.6,6.4 L13.6,11.2 L15.2,11.2 L15.2,10.4 L16,10.4 L16,7.2 L15.2,7.2 L15.2,6.4 L13.6,6.4 Z M8,7.6 C7.3372584,7.6 6.8,8.1372584 6.8,8.8 C6.8,9.4627416 7.3372584,10 8,10 C8.6627416,10 9.2,9.4627416 9.2,8.8 C9.2,8.1372584 8.6627416,7.6 8,7.6 Z" transform="translate(6 6)"/>
  </g>
</svg>
