<svg version="1.1" viewBox="0 0 24 24" xmlns="http://www.w3.org/2000/svg">
 <title>firehydrant-m</title>
 <g fill="none" fill-rule="evenodd">
  <g id="firehydrant-m" fill-rule="nonzero">
   <g id="fire-hydrant" transform="translate(6 5)" fill="#C15746">
    <path id="Shape" d="m5.7422 5.8857c-1.2062 0-2.1875 0.98131-2.1875 2.1875s0.98131 2.1875 2.1875 2.1875 2.1875-0.98131 2.1875-2.1875-0.98131-2.1875-2.1875-2.1875zm0 3.5547c-0.75387 0-1.3672-0.61332-1.3672-1.3672 0-0.75387 0.61332-1.3672 1.3672-1.3672s1.3672 0.61332 1.3672 1.3672c0 0.75387-0.61332 1.3672-1.3672 1.3672z"/>
    <polygon id="Path" points="5.332 7.6631 6.1523 7.6631 6.1523 8.4834 5.332 8.4834"/>
    <path id="Shape" d="m11.484 7.6631h-0.51953v-1.333h-1.7773v-1.5859h0.65458v-0.82031h-0.68764c-0.17522-1.0818-1.0316-1.9382-2.1134-2.1134v-0.51157c0-0.71616-0.58267-1.2988-1.2988-1.2988s-1.2988 0.58267-1.2988 1.2988v0.51157c-1.0818 0.17522-1.9382 1.0316-2.1134 2.1134h-0.68764v0.82031h0.65458v1.5859h-1.7773v1.333h-0.51953v0.82031h0.51953v1.333h1.7773v1.5859c-0.71616 0-1.2988 0.58267-1.2988 1.2988v1.2988h9.4883v-1.2988c0-0.71616-0.58267-1.2988-1.2988-1.2988v-1.5859h1.7773v-1.333h0.51953v-0.82031zm-6.2207-6.3643c0-0.26384 0.21468-0.47852 0.47852-0.47852s0.47852 0.21468 0.47852 0.47852v0.47852h-0.95703v-0.47852zm-0.41016 1.2988h1.7773c0.81613 0 1.5021 0.56612 1.6869 1.3262h-5.1512c0.18482-0.76005 0.87082-1.3262 1.6869-1.3262zm-3.5137 6.3984v-1.8457h0.95703v1.8457h-0.95703zm8.3262 3.7051v0.47852h-7.8477v-0.47852c0-0.26384 0.21468-0.47852 0.47852-0.47852h6.8906c0.26384 0 0.47852 0.21468 0.47852 0.47852zm-1.2988-1.2988h-5.25v-6.6582h5.25v6.6582zm1.7773-2.4063h-0.95703v-1.8457h0.95703v1.8457z"/>
   </g>
  </g>
 </g>
</svg>
