<?xml version="1.0" encoding="UTF-8" standalone="no"?>
<svg width="17px" height="17px" viewBox="0 0 17 17" version="1.1" xmlns="http://www.w3.org/2000/svg" xmlns:xlink="http://www.w3.org/1999/xlink">
    <!-- Generator: Sketch 3.8.3 (29802) - http://www.bohemiancoding.com/sketch -->
    <title>florist-s</title>
    <desc>Created with Sketch.</desc>
    <defs>
        <ellipse id="path-1" cx="8.5" cy="8.5" rx="7.5" ry="7.5"></ellipse>
    </defs>
    <g id="POI-Clear" stroke="none" stroke-width="1" fill="none" fill-rule="evenodd">
        <g id="florist-s">
            <path d="M8.5,17 C3.812,17 0,13.188 0,8.5 C0,3.812 3.812,0 8.5,0 C13.188,0 17,3.812 17,8.5 C17,13.188 13.188,17 8.5,17 L8.5,17 Z" id="Shape" fill-opacity="0.6" fill="#FFFFFF"></path>
            <g id="Oval">
                <use fill="#2D7970" xlink:href="#path-1"></use>
                <use fill="#825089" xlink:href="#path-1"></use>
            </g>
            <path d="M11.6359619,10.383 C10.8969619,10.23 10.0949619,10.439 9.52196189,11.014 C8.94696189,11.587 8.73796189,12.388 8.89196189,13.129 C9.63096189,13.282 10.4319619,13.073 11.0049619,12.498 C11.5809619,11.924 11.7899619,11.123 11.6359619,10.383 L11.6359619,10.383 Z M5.04896189,10.383 C4.89496189,11.123 5.10396189,11.924 5.67996189,12.498 C6.25296189,13.073 7.05396189,13.282 7.79296189,13.129 C7.94796189,12.388 7.73796189,11.587 7.16296189,11.014 C6.58996189,10.439 5.78796189,10.23 5.04896189,10.383 L5.04896189,10.383 Z M9.49096189,9.666 C9.95596189,9.67 10.4129619,9.45 10.6619619,9.018 C10.9129619,8.585 10.8749619,8.08 10.6389619,7.678 C10.8749619,7.277 10.9129619,6.772 10.6629619,6.34 C10.4129619,5.906 9.95596189,5.687 9.48996189,5.69 C9.26096189,5.285 8.84196189,5 8.34296189,5 C7.84396189,5 7.42496189,5.285 7.19496189,5.69 C6.72896189,5.687 6.27296189,5.907 6.02296189,6.339 C5.77296189,6.771 5.81096189,7.276 6.04596189,7.678 C5.81096189,8.08 5.77296189,8.585 6.02296189,9.018 C6.27296189,9.451 6.72896189,9.67 7.19496189,9.666 C7.42496189,10.071 7.84296189,10.357 8.34196189,10.356 C8.84196189,10.358 9.26096189,10.072 9.49096189,9.666 L9.49096189,9.666 Z M8.84296189,8.178 L7.84296189,8.178 L7.84296189,7.178 L8.84296189,7.178 L8.84296189,8.178 L8.84296189,8.178 Z" id="Shape" fill="#FFFFFF"></path>
        </g>
    </g>
</svg>