<svg width="16" height="16" viewBox="0 0 16 16">
  <g fill="none" fill-rule="evenodd">
    <circle cx="8" cy="8" r="8" fill="#FFF" opacity=".6"/>
    <circle cx="8" cy="8" r="7" fill="#8C5F93"/>
    <path fill="#FFF" d="M10.9560546,9.26618185 C10.2927711,9.11650215 9.57294239,9.32096658 9.05865081,9.88348832 C8.54256415,10.4440535 8.35497787,11.2276707 8.49319934,11.9525901 C9.15648289,12.1022698 9.87541405,11.8978053 10.3897056,11.3352836 C10.9066898,10.7737401 11.0942761,9.99012288 10.9560546,9.26618185 L10.9560546,9.26618185 Z M5.04394535,9.26618185 C4.90572388,9.99012288 5.09331016,10.7737401 5.61029437,11.3352836 C6.12458595,11.8978053 6.84351711,12.1022698 7.50680066,11.9525901 C7.64591967,11.2276707 7.45743585,10.4440535 6.94134919,9.88348832 C6.42705761,9.32096658 5.70722891,9.11650215 5.04394535,9.26618185 L5.04394535,9.26618185 Z M9.03082701,8.56474169 C9.44818405,8.56865488 9.85836076,8.35342917 10.0818487,7.93080414 C10.3071318,7.50720081 10.2730252,7.01315997 10.0612053,6.61988389 C10.2730252,6.22758612 10.3071318,5.73354528 10.0827463,5.31092025 C9.85836076,4.88633861 9.44818405,4.6720912 9.02992947,4.6750261 C8.82439235,4.27881513 8.44832224,4 8.00044877,4 C7.5525753,4 7.1765052,4.27881513 6.97007053,4.6750261 C6.55181595,4.6720912 6.14253679,4.88731691 5.91815128,5.30994195 C5.69376578,5.73256698 5.72787237,6.22660782 5.93879475,6.61988389 C5.72787237,7.01315997 5.69376578,7.50720081 5.91815128,7.93080414 C6.14253679,8.35440747 6.55181595,8.56865488 6.97007053,8.56474169 C7.1765052,8.96095266 7.55167776,9.24074609 7.99955123,9.23976779 C8.44832224,9.24172438 8.82439235,8.96193096 9.03082701,8.56474169 L9.03082701,8.56474169 Z M8.44921978,7.10903324 L7.55167776,7.10903324 L7.55167776,6.13073455 L8.44921978,6.13073455 L8.44921978,7.10903324 L8.44921978,7.10903324 Z"/>
  </g>
</svg>
