<?xml version="1.0" encoding="UTF-8" standalone="no"?>
<svg width="23px" height="23px" viewBox="0 0 23 23" version="1.1" xmlns="http://www.w3.org/2000/svg" xmlns:xlink="http://www.w3.org/1999/xlink" xmlns:sketch="http://www.bohemiancoding.com/sketch/ns">
    <!-- Generator: Sketch 3.4.2 (15857) - http://www.bohemiancoding.com/sketch -->
    <title>fountain-m</title>
    <desc>Created with Sketch.</desc>
    <defs></defs>
    <g id="POI" stroke="none" stroke-width="1" fill="none" fill-rule="evenodd" sketch:type="MSPage">
        <g id="fountain-m" sketch:type="MSLayerGroup">
            <ellipse id="Oval-1-Copy-41" fill="#FFFFFF" sketch:type="MSShapeGroup" cx="11.5" cy="11.5" rx="11.5" ry="11.5"></ellipse>
            <ellipse id="Oval-1-Copy-40" fill="#2E89B0" sketch:type="MSShapeGroup" cx="11.5" cy="11.5" rx="10.5" ry="10.5"></ellipse>
            <path d="M11.5391998,8.33242564 L11.5391998,7.13203615 L13.6016537,7.13203615 L13.6016537,7.96551883 C13.6016537,8.53693108 13.9946249,9.05420953 14.5780669,9.18052172 C15.2497269,9.33089336 15.9193819,8.90584284 16.0677486,8.23418283 L17.0100776,4.98415035 L17.038147,4.98415035 L17.038147,8.33242564 C17.038147,9.82812227 15.7823651,11.1785936 14.2886734,11.1785936 C12.7929768,11.1785936 11.5391998,9.82812227 11.5391998,8.33242564 Z" id="Shape" fill="#FFFFFF" sketch:type="MSShapeGroup" transform="translate(14.288673, 8.081372) rotate(-180.000000) translate(-14.288673, -8.081372) "></path>
            <path d="M9.56639951,7.97502891 L9.44580308,7.97502901 L9.44580301,7.12894863 L11.5392754,7.12894852 L11.5392755,8.34394067 C11.5392755,9.8396373 10.2689868,11.1785936 8.7752951,11.1785936 C7.28160343,11.1785936 6.01131471,9.83963741 6.01131471,8.34394078 L6.01131471,4.99566549 L6.03938408,4.99566549 L6.98171306,8.24569797 C7.13007975,8.91735798 7.79973481,9.3424085 8.47139482,9.19203686 C9.0548368,9.06371972 9.44580308,8.54844622 9.44580308,7.97502901 L9.56639951,7.97502891 Z" id="Shape" fill="#FFFFFF" sketch:type="MSShapeGroup" transform="translate(8.775295, 8.087130) rotate(-180.000000) translate(-8.775295, -8.087130) "></path>
            <path d="M11.4360879,10.9897551 C8.39056089,10.9897551 5.9417088,12.9608799 5.9417088,15.5592813 L16.9709675,15.5592813 C16.9709677,12.9608799 14.4856249,10.9897551 11.4360879,10.9897551 Z" id="Shape" fill="#FFFFFF" sketch:type="MSShapeGroup" transform="translate(11.456338, 13.274518) rotate(-180.000000) translate(-11.456338, -13.274518) "></path>
            <path d="M8.07401961,15.221478 L11.5397841,18.0181528 L15.0055485,15.221478 L8.07401961,15.221478 Z" id="Shape" fill="#FFFFFF" sketch:type="MSShapeGroup" transform="translate(11.539784, 16.619815) rotate(-180.000000) translate(-11.539784, -16.619815) "></path>
        </g>
    </g>
</svg>