<?xml version="1.0" encoding="UTF-8" standalone="no"?>
<svg width="27px" height="27px" viewBox="0 0 27 27" version="1.1" xmlns="http://www.w3.org/2000/svg" xmlns:xlink="http://www.w3.org/1999/xlink" xmlns:sketch="http://www.bohemiancoding.com/sketch/ns">
    <!-- Generator: Sketch 3.4.2 (15857) - http://www.bohemiancoding.com/sketch -->
    <title>fountain-l</title>
    <desc>Created with Sketch.</desc>
    <defs></defs>
    <g id="POI" stroke="none" stroke-width="1" fill="none" fill-rule="evenodd" sketch:type="MSPage">
        <g id="fountain-l" sketch:type="MSLayerGroup" transform="translate(0.000000, 0.019000)">
            <circle id="Oval-1-Copy-39" fill="#FFFFFF" sketch:type="MSShapeGroup" cx="13.5" cy="13.5" r="13.5"></circle>
            <circle id="Oval-1-Copy-38" fill="#2E89B0" sketch:type="MSShapeGroup" cx="13.5" cy="13.5" r="12.5"></circle>
            <path d="M13.5723537,11.9381747 C9.91772122,11.9381747 7.06942208,14.6899735 7.06942208,17.8080552 L20.075285,17.8080552 C20.0752852,14.6899735 17.231798,11.9381747 13.5723537,11.9381747 Z" id="Shape" fill="#FFFFFF" sketch:type="MSShapeGroup" transform="translate(13.572354, 14.873115) rotate(-180.000000) translate(-13.572354, -14.873115) "></path>
            <path d="M9.02118359,17.4003778 L13.5139209,20.981 L18.0066582,17.4003778 L9.02118359,17.4003778 Z" id="Shape" fill="#FFFFFF" sketch:type="MSShapeGroup" transform="translate(13.513921, 19.190689) rotate(-180.000000) translate(-13.513921, -19.190689) "></path>
            <path d="M7.02268589,9.04625492 L7.02268589,9.97432002 L9.57363728,9.97432002 L9.57363725,9.56917401 C9.57363725,8.75479182 10.0596847,8.01756162 10.7813165,7.83754029 C11.6120609,7.62322919 12.4403255,8.22901524 12.6238332,9.18627151 L13.7893553,13.8182488 L13.8240729,13.8182488 L13.8240729,9.04625492 C13.8240729,6.9145738 12.2708558,4.9898692 10.4233794,4.9898692 C8.57342316,4.9898692 7.02268589,6.9145738 7.02268589,9.04625492 Z" id="Shape-Copy-11" fill="#FFFFFF" sketch:type="MSShapeGroup"></path>
            <path d="M17.6040647,9.55562015 L17.4549047,9.55562 L17.4549047,9.97556423 L20.0442215,9.97556438 L20.0442215,9.02984358 C20.0442215,6.89816247 18.4730616,4.9898692 16.6255852,4.9898692 C14.7781088,4.9898692 13.2069489,6.89816232 13.2069489,9.02984343 L13.2069489,13.8018373 L13.2416666,13.8018373 L14.4071886,9.16986002 C14.5906963,8.21260375 15.4189609,7.6068177 16.2497054,7.8211288 C16.9713371,8.00400761 17.4549047,8.73838033 17.4549047,9.55562 L17.6040647,9.55562015 Z" id="Shape-Copy-10" fill="#FFFFFF" sketch:type="MSShapeGroup"></path>
        </g>
    </g>
</svg>