<svg width="16" height="16" viewBox="0 0 16 16">
  <g fill="none" fill-rule="evenodd">
    <circle cx="8" cy="8" r="8" fill="#FFF" opacity=".6"/>
    <circle cx="8" cy="8" r="7" fill="#14A0C2" opacity="0"/>
    <path fill="#14A0C2" d="M7.153582,10.6157545 C5.22840413,10.4637363 3.99999988,8.96200214 4,7.01483295 L7.33668958,7.01483295 L6.85080061,5.33596681 C6.74808521,4.87012065 6.26774801,3.91012573 5.76147403,4.02491236 C5.31449977,4.12625406 5.02018539,5.1259884 5.02018539,5.52369587 L5.02018537,6.0247407 L4.00033321,6.0247407 L4.00033323,5.26782812 C4.00033323,4.46228732 4.34684251,3.54032672 5.02158221,3.16847422 C5.21577346,3.06145443 5.43715197,3 5.68528201,3 C6.64318422,3 7.50318221,3.98610502 7.50318221,5.02348185 L7.5182593,7.01483295 L7.52256248,7.01483295 L7.52256248,5.26782812 C7.52256248,4.68181635 7.79999219,4.04144601 8.22782293,3.59513303 C8.55735188,3.25136847 8.97610736,3.02272987 9.42604414,3.02272987 C10.4615264,3.02272987 11.0103396,4.1372793 11.0103396,5.17465613 L11.0103396,6.0072155 L10.0039594,6.0072155 L10.0039595,5.42913329 C10.0039595,5.0328164 9.8262466,4.13937997 9.42604414,4.02622843 C8.77453794,3.84202433 8.29709212,4.87012065 8.19437672,5.33596681 L7.70848775,7.01483295 L11.0125355,7.01483295 C11.0125355,8.95231688 9.74575297,10.448786 7.83361261,10.613386 L9.99542413,12.014833 L4.99542413,12.014833 L7.153582,10.6157545 Z"/>
  </g>
</svg>
