<?xml version="1.0" encoding="UTF-8" standalone="no"?>
<svg width="17px" height="17px" viewBox="0 0 17 17" version="1.1" xmlns="http://www.w3.org/2000/svg" xmlns:xlink="http://www.w3.org/1999/xlink" xmlns:sketch="http://www.bohemiancoding.com/sketch/ns">
    <!-- Generator: Sketch 3.4.2 (15857) - http://www.bohemiancoding.com/sketch -->
    <title>fountain-s</title>
    <desc>Created with Sketch.</desc>
    <defs></defs>
    <g id="POI" stroke="none" stroke-width="1" fill="none" fill-rule="evenodd" sketch:type="MSPage">
        <g id="fountain-s" sketch:type="MSLayerGroup" transform="translate(0.000000, 0.019000)">
            <circle id="Oval-1-Copy-43" fill="#FFFFFF" sketch:type="MSShapeGroup" cx="8.5" cy="8.5" r="8.5"></circle>
            <circle id="Oval-1-Copy-42" fill="#2E89B0" sketch:type="MSShapeGroup" cx="8.5" cy="8.5" r="7.5"></circle>
            <path d="M8.52713835,6.4043468 L8.52713835,5.57178743 L9.53351855,5.57178743 L9.53351853,6.14986964 C9.53351853,6.54618652 9.71123139,7.43962295 10.1114338,7.5527745 C10.76294,7.7369786 11.2403859,6.70888227 11.3431013,6.24303611 L11.9954829,3.98889692 L12.0149155,3.98889692 L12.0149155,6.3111748 C12.0149155,6.89718658 11.7374858,7.53755691 11.3096551,7.98386989 C10.9801261,8.32763446 10.5613706,8.55627305 10.1114338,8.55627305 C9.07595155,8.55627305 8.52713835,7.44172363 8.52713835,6.4043468 Z" id="Shape" fill="#FFFFFF" sketch:type="MSShapeGroup" transform="translate(10.271027, 6.272585) rotate(-180.000000) translate(-10.271027, -6.272585) "></path>
            <path d="M7.50733856,5.53153236 L8.52719072,5.53153236 L8.5271907,6.28844493 C8.5271907,7.09398573 8.18068141,8.01594633 7.50594171,8.38779884 C7.31175047,8.49481862 7.09037196,8.55627305 6.84224192,8.55627305 C5.88433971,8.55627305 5.02434172,7.57016804 5.02434172,6.53279121 L5.00490908,3.96616704 L5.02434172,3.96616704 L5.67672332,6.22030624 C5.77943872,6.6861524 6.25977591,7.64614732 6.7660499,7.53136069 C7.21302416,7.43001899 7.50733854,6.43028466 7.50733854,6.03257719 L7.50733856,5.53153236 Z" id="Shape" fill="#FFFFFF" sketch:type="MSShapeGroup" transform="translate(6.766050, 6.261220) rotate(-180.000000) translate(-6.766050, -6.261220) "></path>
            <path d="M8.53789516,7.981 C6.42945336,7.981 5.00457587,9.53977603 5.00457587,11.5946057 L12.0171114,11.5946057 C12.0171115,9.53977603 10.6491131,7.981 8.53789516,7.981 Z" id="Shape" fill="#FFFFFF" sketch:type="MSShapeGroup" transform="translate(8.510844, 9.787803) rotate(-180.000000) translate(-8.510844, -9.787803) "></path>
            <path d="M6,11.360314 L8.50000006,12.981 L11,11.360314 L6,11.360314 Z" id="Shape" fill="#FFFFFF" sketch:type="MSShapeGroup" transform="translate(8.500000, 12.170657) rotate(-180.000000) translate(-8.500000, -12.170657) "></path>
        </g>
    </g>
</svg>