<?xml version="1.0" encoding="UTF-8" standalone="no"?>
<svg width="23px" height="24px" viewBox="0 0 23 24" version="1.1" xmlns="http://www.w3.org/2000/svg" xmlns:xlink="http://www.w3.org/1999/xlink" xmlns:sketch="http://www.bohemiancoding.com/sketch/ns">
    <!-- Generator: Sketch 3.3.3 (12081) - http://www.bohemiancoding.com/sketch -->
    <title>fountain-m</title>
    <desc>Created with Sketch.</desc>
    <defs></defs>
    <g id="POI" stroke="none" stroke-width="1" fill="none" fill-rule="evenodd" sketch:type="MSPage">
        <g id="fountain-m" sketch:type="MSLayerGroup">
            <ellipse id="Oval-1-Copy-41" fill="#FFFFFF" sketch:type="MSShapeGroup" cx="11.5" cy="11.5" rx="11.5" ry="11.5"></ellipse>
            <ellipse id="Oval-1-Copy-40" fill="#2E89B0" sketch:type="MSShapeGroup" cx="11.5" cy="11.5" rx="10.5" ry="10.5"></ellipse>
            <g id="Group-Copy-3" transform="translate(11.500000, 11.500000) rotate(-180.000000) translate(-11.500000, -11.500000) translate(5.000000, 4.000000)" fill="#FFFFFF" sketch:type="MSShapeGroup">
                <path d="M0.961853028,11.1696817 L0.961853028,9.96929222 L3.02430686,9.96929222 L3.02430684,10.8027749 C3.02430684,11.3741872 3.41727807,11.8914656 4.00072005,12.0177778 C4.67238007,12.1681494 5.34203512,11.7430989 5.49040181,11.0714389 L6.43273079,7.82140643 L6.46080016,7.82140643 L6.46080016,11.1696817 C6.46080016,12.6653783 5.20501827,14.0158497 3.7113266,14.0158497 C2.21562997,14.0158497 0.961853028,12.6653783 0.961853028,11.1696817 Z" id="Shape"></path>
                <path d="M10.0158093,10.8007698 L9.89521288,10.8007699 L9.89521281,9.95468956 L11.9886852,9.95468946 L11.9886853,11.1696816 C11.9886853,12.6653782 10.7183966,14.0043345 9.2247049,14.0043345 C7.73101323,14.0043345 6.46072451,12.6653783 6.46072451,11.1696817 L6.46072451,7.82140643 L6.48879389,7.82140643 L7.43112286,11.0714389 C7.57948955,11.7430989 8.24914461,12.1681494 8.92080462,12.0177778 C9.5042466,11.8894607 9.89521288,11.3741872 9.89521288,10.8007699 L10.0158093,10.8007698 Z" id="Shape"></path>
                <path d="M6.52341142,3.4407187 C3.47788438,3.4407187 1.02903229,5.4118435 1.02903229,8.01024489 L12.058291,8.01024489 C12.0582912,5.4118435 9.57294838,3.4407187 6.52341142,3.4407187 Z" id="Shape"></path>
                <path d="M2.99445152,0.981847245 L6.46021604,3.77852197 L9.92598039,0.981847245 L2.99445152,0.981847245 Z" id="Shape"></path>
            </g>
        </g>
    </g>
</svg>