<svg width="16" height="16" viewBox="0 0 16 16">
  <g fill="none" fill-rule="evenodd">
    <circle cx="8" cy="8" r="8" fill="#FFF" opacity=".6"/>
    <circle cx="8" cy="8" r="7" fill="#717065"/>
    <path fill="#FFF" d="M4.95427873,4 L8.3790546,4 C8.6745241,4 8.88888889,4.22387532 8.88888889,4.50003952 L8.88888889,11.1111111 L9.33333333,11.1111111 L9.33333333,12 L4,12 L4,11.1111111 L4.44444444,11.1111111 L4.44444444,4.50003952 C4.44444444,4.2206192 4.67270503,4 4.95427873,4 Z M4.88888889,5.39357334 L4.88888889,6.16198222 C4.88888889,6.44867622 5.11023249,6.66666667 5.38327365,6.66666667 L7.95005968,6.66666667 C8.21115451,6.66666667 8.44444444,6.44071174 8.44444444,6.16198222 L8.44444444,5.39357334 C8.44444444,5.10687934 8.22310085,4.88888889 7.95005968,4.88888889 L5.38327365,4.88888889 C5.12217882,4.88888889 4.88888889,5.11484381 4.88888889,5.39357334 Z M11.5127121,8.03943662 L11.9680394,10.1126761 C12.0477217,10.4507042 11.9794226,10.8225352 11.7517589,11.1267606 C11.5240953,11.4197183 11.1825999,11.5774648 10.8183381,11.5774648 C10.1581136,11.5774648 9.63448725,11.0591549 9.63448725,10.4056338 L9.63448725,10.371831 L9.81661815,8.69295775 C9.81661815,8.46760563 9.63448725,8.28732394 9.40682363,8.28732394 L8.88888889,8.28732394 L8.88888889,7.8028169 L9.40682363,7.8028169 C9.89630042,7.8028169 10.3060949,8.23098592 10.3060949,8.71549296 L10.3060949,8.74929577 L10.1125809,10.4056338 C10.1353472,10.7774648 10.4313099,11.0704225 10.8069549,11.0704225 C11.0232354,11.0704225 11.2167494,10.9690141 11.3533476,10.8112676 C11.4785626,10.6422535 11.5127121,10.4394366 11.4671794,10.2253521 L11.0232354,8.15211268 C10.9777026,8.0056338 10.9435531,7.82535211 10.9435531,7.66760563 L10.9435531,7.16056338 L10.7158895,6.83380282 C10.7272726,5.98873239 9.79385179,5.13239437 9.79385179,5.13239437 L10.0442818,4.73802817 C11.9566562,5.45915493 11.820058,6.75492958 11.820058,6.75492958 L11.4785626,7.16056338 L11.4444131,7.16056338 L11.4444131,7.66760563 C11.4444131,7.7915493 11.4785626,7.90422535 11.5127121,8.03943662 Z"/>
  </g>
</svg>
