<svg width="28" height="28" viewBox="0 0 28 28">
  <g fill="none" fill-rule="evenodd">
    <circle cx="14" cy="14" r="14" fill="#FFF" opacity=".6"/>
    <circle cx="14" cy="14" r="13" fill="#717065"/>
    <path fill="#FFF" d="M20.1361052,7 C20.6500401,7 21.0666667,7.41995217 21.0666667,7.93972244 L21.0666667,20.0666667 L22,20.0666667 L22,21 L21.8177083,21 L12.6666667,21 L12.6666667,20.0666667 L13.6,20.0666667 L13.6,7.93972244 C13.6,7.42072807 14.0228339,7 14.5305615,7 L20.1361052,7 L20.1361052,7 Z M20.1333333,9.8087443 C20.1333333,9.28844919 19.7124232,8.86666667 19.2086072,8.86666667 L15.4580594,8.86666667 C14.9473473,8.86666667 14.5333333,9.28046296 14.5333333,9.8087443 L14.5333333,11.6579224 C14.5333333,12.1782175 14.9542435,12.6 15.4580594,12.6 L19.2086072,12.6 C19.7193194,12.6 20.1333333,12.1862037 20.1333333,11.6579224 L20.1333333,9.8087443 L20.1333333,9.8087443 Z M8.87711814,14.0690141 C8.93858732,13.8323944 9.0000565,13.6352113 9.0000565,13.4183099 L9.0000565,12.5309859 L8.93858732,12.5309859 L8.32389554,11.8211268 C8.32389554,11.8211268 8.07801883,9.55352113 11.5202928,8.2915493 L11.9710668,8.98169014 C11.9710668,8.98169014 10.2909092,10.4802817 10.311399,11.9591549 L9.90160445,12.5309859 L9.90160445,13.4183099 C9.90160445,13.6943662 9.84013527,14.0098592 9.75817637,14.2661972 L8.95907705,17.8943662 C8.87711814,18.2690141 8.93858732,18.6239437 9.16397431,18.9197183 C9.40985102,19.1957746 9.75817637,19.3732394 10.1474812,19.3732394 C10.8236421,19.3732394 11.356375,18.8605634 11.3973544,18.2098592 L11.0490291,15.3112676 L11.0490291,15.2521127 C11.0490291,14.4042254 11.7866592,13.6549296 12.6677175,13.6549296 L13.6,13.6549296 L13.6,14.5028169 L12.6677175,14.5028169 C12.2579229,14.5028169 11.9300873,14.8183099 11.9300873,15.2126761 L12.2579229,18.1507042 L12.2579229,18.2098592 C12.2579229,19.3535211 11.3153955,20.2605634 10.1269914,20.2605634 C9.4713202,20.2605634 8.85662842,19.984507 8.4468339,19.471831 C8.03703938,18.9394366 7.91410102,18.2887324 8.0575291,17.6971831 L8.87711814,14.0690141 L8.87711814,14.0690141 Z" transform="matrix(-1 0 0 1 30 0)"/>
  </g>
</svg>
