<?xml version="1.0" encoding="UTF-8"?>
<svg width="23px" height="23px" viewBox="0 0 23 23" version="1.1" xmlns="http://www.w3.org/2000/svg" xmlns:xlink="http://www.w3.org/1999/xlink">
    <!-- Generator: Sketch 39.1 (31720) - http://www.bohemiancoding.com/sketch -->
    <title>fuel-m</title>
    <desc>Created with Sketch.</desc>
    <defs></defs>
    <g id="POI-Clear" stroke="none" stroke-width="1" fill="none" fill-rule="evenodd">
        <g id="Artboard-1" transform="translate(-714.000000, -65.000000)">
            <g id="fuel-m" transform="translate(714.000000, 65.000000)">
                <ellipse id="Oval-1-Copy-41" fill-opacity="0.6" fill="#FFFFFF" cx="11.5" cy="11.5" rx="11.5" ry="11.5"></ellipse>
                <ellipse id="Oval-1-Copy-40" fill="#717065" cx="11.5" cy="11.5" rx="10.5" ry="10.5"></ellipse>
                <path d="M8.00292933,5 C7.44902676,5 7,5.45576096 7,6.00247329 L7,17 L6,17 L6,18 L15,18 L15,17 L14,17 L14,6.00247329 C14,5.44882258 13.5621186,5 12.9970707,5 L8.00292933,5 Z M8,8.0093689 C8,7.45190985 8.44371665,7 8.99980749,7 L12.0001925,7 C12.5523709,7 13,7.44335318 13,8.0093689 L13,9.9906311 C13,10.5480902 12.5562834,11 12.0001925,11 L8.99980749,11 C8.44762906,11 8,10.5566468 8,9.9906311 L8,8.0093689 Z M18.2204225,11.5640845 C18.165493,11.3443662 18.1105634,11.1612676 18.1105634,10.9598592 L18.1105634,10.1359155 L18.165493,10.1359155 L18.7147887,9.47676056 C18.7147887,9.47676056 18.934507,7.37112676 15.8584507,6.19929577 L15.4556338,6.84014085 C15.4556338,6.84014085 16.9570423,8.23169014 16.9387324,9.60492958 L17.3049296,10.1359155 L17.3049296,10.9598592 C17.3049296,11.2161972 17.3598592,11.5091549 17.4330986,11.7471831 L18.1471831,15.1161972 C18.2204225,15.4640845 18.165493,15.793662 17.9640845,16.0683099 C17.7443662,16.3246479 17.4330986,16.4894366 17.0852113,16.4894366 C16.4809859,16.4894366 16.0049296,16.0133803 15.9683099,15.4091549 L16.2795775,12.7176056 L16.2795775,12.6626761 C16.2795775,11.8753521 15.6204225,11.1795775 14.8330986,11.1795775 L14,11.1795775 L14,11.9669014 L14.8330986,11.9669014 C15.1992958,11.9669014 15.4922535,12.2598592 15.4922535,12.6260563 L15.1992958,15.3542254 L15.1992958,15.4091549 C15.1992958,16.4711268 16.0415493,17.3133803 17.1035211,17.3133803 C17.6894366,17.3133803 18.2387324,17.0570423 18.6049296,16.5809859 C18.9711268,16.0866197 19.0809859,15.4823944 18.9528169,14.9330986 L18.2204225,11.5640845 Z" id="Combined-Shape" fill="#FFFFFF"></path>
            </g>
        </g>
    </g>
</svg>