<?xml version="1.0" encoding="utf-8"?>
<!-- Generator: Adobe Illustrator 21.0.2, SVG Export Plug-In . SVG Version: 6.00 Build 0)  -->
<svg version="1.1" id="Слой_1" xmlns="http://www.w3.org/2000/svg" xmlns:xlink="http://www.w3.org/1999/xlink" x="0px" y="0px"
	 viewBox="0 0 32.4 32.4" enable-background="new 0 0 32.4 32.4" xml:space="preserve">
<title>fuel-l</title>
<desc>Created with Sketch.</desc>
<g id="POI-Clear">
	<g id="Artboard-1" transform="translate(-677.000000, -63.000000)">
		<g id="fuel-l" transform="translate(677.000000, 63.000000)">
			<circle id="Oval-1-Copy-39" fill="#FFFFFF" fill-opacity="0.6" cx="16.2" cy="16.2" r="16.2"/>
			<circle id="Oval-1-Copy-38" fill="#717065" cx="16.2" cy="16.2" r="15"/>
			
				<g id="noun_379269_cc" transform="translate(13.500000, 13.500000) scale(-1, 1) translate(-13.500000, -13.500000) translate(6.000000, 6.000000)">
				<g id="Group">
				</g>
			</g>
		</g>
		<g id="charging-station-l_1_" transform="translate(677.000000, 69.000000)">
			<g id="POI">
				<g>
					<g id="charging-station-l">
						<path id="Combined-Shape" fill="#FFFFFF" d="M10.8,1.2c-0.7,0-1.2,0.5-1.2,1.2V18H8.4v1.2h0.2h11.8V18h-1.2V2.4
							c0-0.7-0.5-1.2-1.2-1.2H10.8L10.8,1.2z M10.8,4.8c0-0.7,0.5-1.2,1.2-1.2h4.8c0.7,0,1.2,0.5,1.2,1.2v2.4c0,0.7-0.5,1.2-1.2,1.2
							H12c-0.7,0-1.2-0.5-1.2-1.2V4.8L10.8,4.8z M25.3,10.3c-0.1-0.3-0.2-0.6-0.2-0.8V8.3h0.1L26,7.4c0,0,0.3-2.9-4.1-4.5l-0.6,0.9
							c0,0,2.2,1.9,2.1,3.8L24,8.3v1.1c0,0.4,0.1,0.8,0.2,1.1l1,4.7c0.1,0.5,0,0.9-0.3,1.3c-0.3,0.4-0.8,0.6-1.3,0.6
							c-0.9,0-1.6-0.7-1.6-1.5l0.4-3.7v-0.1c0-1.1-0.9-2.1-2.1-2.1h-1.2v1.1h1.2c0.5,0,0.9,0.4,0.9,0.9l-0.4,3.8v0.1
							c0,1.5,1.2,2.6,2.7,2.6c0.8,0,1.6-0.4,2.2-1c0.5-0.7,0.7-1.5,0.5-2.3L25.3,10.3L25.3,10.3z"/>
					</g>
				</g>
			</g>
		</g>
	</g>
</g>
</svg>
