<svg version="1.1" viewBox="0 0 24 24" xmlns="http://www.w3.org/2000/svg">
 <title>fuel-m</title>
 <g fill="none" fill-rule="evenodd">
  <g id="fuel-m" fill-rule="nonzero">
   <circle id="Oval" cx="12" cy="12" r="12" fill="#fff" opacity=".6"/>
   <circle id="Oval" cx="12" cy="12" r="11" fill="#717065"/>
   <path id="Shape" d="m18.264 8.2895 0.0077765-0.0077765-2.4807-2.4807c-0.22552-0.22552-0.59879-0.22552-0.82431 0-0.22552 0.22552-0.22552 0.59879 0 0.82431l1.2287 1.2287c-0.81653 0.31106-1.3687 1.1431-1.2287 2.1074 0.12442 0.85541 0.85541 1.5475 1.7108 1.6408 0.3655 0.038882 0.68433-0.02333 0.98761-0.15553v5.6069c0 0.42771-0.34994 0.77765-0.77765 0.77765s-0.77765-0.34994-0.77765-0.77765v-3.4994c0-0.85541-0.69988-1.5553-1.5553-1.5553h-0.77765v-5.4435c0-0.85541-0.69988-1.5553-1.5553-1.5553h-4.6659c-0.85541 0-1.5553 0.69988-1.5553 1.5553v11.665c0 0.42771 0.34994 0.77765 0.77765 0.77765h6.2212c0.42771 0 0.77765-0.34994 0.77765-0.77765v-5.0547h1.1665v3.7794c0 1.0187 0.73099 1.9441 1.7419 2.0452 1.1665 0.11665 2.1463-0.7932 2.1463-1.9363v-7.3877c0-0.53658-0.21774-1.0265-0.56768-1.3764zm-6.0423 2.1541h-4.6659v-3.1106c0-0.42771 0.34994-0.77765 0.77765-0.77765h3.1106c0.42771 0 0.77765 0.34994 0.77765 0.77765v3.1106zm4.6659 0c-0.42771 0-0.77765-0.34994-0.77765-0.77765 0-0.42771 0.34994-0.77765 0.77765-0.77765s0.77765 0.34994 0.77765 0.77765c0 0.42771-0.34994 0.77765-0.77765 0.77765z" fill="#fff"/>
  </g>
 </g>
</svg>
