<?xml version="1.0" encoding="UTF-8" standalone="no"?>
<svg width="23px" height="23px" viewBox="0 0 23 23" version="1.1" xmlns="http://www.w3.org/2000/svg" xmlns:xlink="http://www.w3.org/1999/xlink">
    <!-- Generator: Sketch 3.8.3 (29802) - http://www.bohemiancoding.com/sketch -->
    <title>funicular-m</title>
    <desc>Created with Sketch.</desc>
    <defs>
        <rect id="path-1" x="0" y="0" width="21" height="21" rx="2"></rect>
        <mask id="mask-2" maskContentUnits="userSpaceOnUse" maskUnits="objectBoundingBox" x="-1" y="-1" width="23" height="23">
            <rect x="-1" y="-1" width="23" height="23" fill="white"></rect>
            <use xlink:href="#path-1" fill="black"></use>
        </mask>
    </defs>
    <g id="POI-Clear" stroke="none" stroke-width="1" fill="none" fill-rule="evenodd">
        <g id="funicular-m" transform="translate(1.000000, 1.000000)">
            <g id="Rectangle-211">
                <use fill="#3C3E38" fill-rule="evenodd" xlink:href="#path-1"></use>
                <use fill="#0D4D7F" fill-rule="evenodd" xlink:href="#path-1"></use>
                <use stroke-opacity="0.8" stroke="#FFFFFF" mask="url(#mask-2)" stroke-width="2" xlink:href="#path-1"></use>
            </g>
            <path d="M3,8.21764909 C3,7.6679062 3.43274403,7.12416288 3.98419189,6.99916803 L17.0158081,4.04533502 C17.5593623,3.9221294 18,4.27791592 18,4.81764909 L18,12.826854 C18,13.3765968 17.567256,13.9203402 17.0158081,14.045335 L3.98419189,16.999168 C3.44063772,17.1223736 3,16.7665871 3,16.226854 L3,8.21764909 Z M4.7,8.91273003 C4.7,8.64184623 4.9157526,8.37190924 5.19538898,8.30666075 L7.20461102,7.83784228 C7.4782068,7.77400327 7.7,7.93730889 7.7,8.21273004 L7.7,11.231773 C7.7,11.5026568 7.4842474,11.7725938 7.20461102,11.8378423 L5.19538898,12.3066608 C4.9217932,12.3704998 4.7,12.2071941 4.7,11.931773 L4.7,8.91273003 Z M13.6,6.71273003 C13.6,6.44184623 13.8157526,6.17190924 14.095389,6.10666075 L16.104611,5.63784228 C16.3782068,5.57400327 16.6,5.73730889 16.6,6.01273004 L16.6,9.031773 C16.6,9.30265681 16.3842474,9.57259379 16.104611,9.63784228 L14.095389,10.1066608 C13.8217932,10.1704998 13.6,10.0071941 13.6,9.731773 L13.6,6.71273003 Z M9.2,7.91273003 C9.2,7.64184623 9.4197113,7.36732369 9.68772278,7.30032082 L11.5122772,6.84418221 C11.7816391,6.77684175 12,6.93730889 12,7.21273004 L12,10.231773 C12,10.5026568 11.7802887,10.7771793 11.5122772,10.8441822 L9.68772278,11.3003208 C9.41836093,11.3676613 9.2,11.2071941 9.2,10.931773 L9.2,7.91273003 Z" id="Rectangle-41-Copy" fill="#FFFFFF"></path>
        </g>
    </g>
</svg>