<svg width="16" height="16" viewBox="0 0 16 16">
  <g fill="none" fill-rule="evenodd">
    <rect width="16" height="16" fill="#FFF" opacity=".6" rx="1.5"/>
    <rect width="14" height="14" x="1" y="1" fill="#2F6499" rx="1"/>
    <path fill="#FFF" d="M3,8.02328441 C3,7.47609285 3.4296875,6.89070957 3.95884204,6.71608857 L12.041158,4.04892431 C12.5707118,3.87417155 13,4.18348162 13,4.72328441 L13,8.74172847 C13,9.28892003 12.5703125,9.87430331 12.041158,10.0489243 L3.95884204,12.7160886 C3.4292882,12.8908413 3,12.5815313 3,12.0417285 L3,8.02328441 Z M4,8.03250644 L4,10.0325064 L6,9.33250645 L6,7.33250645 L4,8.03250644 Z M7,6.93250643 L7,8.93250643 L9,8.23250643 L9,6.23250643 L7,6.93250643 Z M10,6.03250643 L10,8.03250643 L12,7.33250643 L12,5.33250643 L10,6.03250643 Z"/>
  </g>
</svg>
