<svg height="24" viewBox="0 0 24 24" width="24"><g fill="none" fill-rule="evenodd"><rect fill="#fff" height="24" opacity=".6" rx="2.5" width="24"/><rect fill="#2f6499" height="22" rx="2" width="22" x="1" y="1"/><path d="m5 9.19675033c0-.5497429.43274403-1.09348622.98419189-1.21848107l13.03161621-2.95383301c.5435542-.12320561.9841919.2325809.9841919.77231407v8.00920488c0 .5497429-.432744 1.0934862-.9841919 1.218481l-13.03161621 2.9538331c-.54355417.1232056-.98419189-.2325809-.98419189-.7723141zm1.7.69508093v3.01904294c0 .2754212.2217932.4387268.49538898.3748878l2.00922204-.4688185c.27963638-.0652485.49538898-.3351855.49538898-.6060693v-3.01904293c0-.27542114-.2217932-.43872677-.49538898-.37488776l-2.00922204.46881848c-.27963638.06524848-.49538898.33518547-.49538898.60606927zm8.9-2.2v3.01904294c0 .2754212.2217932.4387268.495389.3748878l2.009222-.4688185c.2796364-.0652485.495389-.3351855.495389-.6060693v-3.01904293c0-.27542114-.2217932-.43872677-.495389-.37488776l-2.009222.46881848c-.2796364.06524848-.495389.33518547-.495389.60606927zm-4.4 1.2v3.01904294c0 .2754212.2183609.4358883.4877228.3685479l1.8245544-.4561387c.2680115-.0670028.4877228-.3415254.4877228-.6124092v-3.01904293c0-.27542114-.2183609-.43588829-.4877228-.36854782l-1.8245544.4561386c-.2680115.06700287-.4877228.34152541-.4877228.61240921z" fill="#fff"/></g></svg>