<svg width="28" height="28" viewBox="0 0 28 28">
  <g fill="none" fill-rule="evenodd">
    <circle cx="14" cy="14" r="14" fill="#FFF" opacity=".6"/>
    <circle cx="14" cy="14" r="13" fill="#8C5F93"/>
    <path fill="#FFF" d="M21,15.3662353 C21,16.2754118 20.2621176,17.0124706 19.3529412,17.0124706 L19.3529412,20.9991765 L17.7058824,20.9991765 L17.7058824,19.3521176 L10.2941176,19.3521176 L10.2941176,20.9991765 L8.64705882,20.9991765 L8.64705882,17.0124706 C7.73788235,17.0124706 7,16.2745882 7,15.3662353 C7,14.4562353 7.73788235,13.7183529 8.64705882,13.7183529 C9.55623529,13.7183529 10.2941176,14.4562353 10.2941176,15.3662353 L10.2941176,16.058 L11.9411765,16.058 L11.9411765,15.3662353 C11.9411765,13.8361176 10.8878824,12.5563529 9.47058824,12.1882353 L9.47058824,8.25835294 C10.7923529,7.45952941 12.3430588,7 14.0008235,7 C15.6577647,7 17.2076471,7.46035294 18.5294118,8.25835294 L18.5294118,12.1882353 C17.1121176,12.5563529 16.0588235,13.8361176 16.0588235,15.3662353 L16.0588235,16.058 L17.7058824,16.058 L17.7058824,15.3662353 C17.7058824,14.4562353 18.4437647,13.7183529 19.3529412,13.7183529 C20.2621176,13.7183529 21,14.4562353 21,15.3662353 L21,15.3662353 Z"/>
  </g>
</svg>
