<svg version="1.1" viewBox="0 0 24 24" xmlns="http://www.w3.org/2000/svg">
 <title>furniture-m</title>
 <g fill="none" fill-rule="evenodd">
  <g id="furniture-m" fill-rule="nonzero">
   <circle id="Oval" cx="12" cy="12" r="12" fill="#fff" opacity=".6"/>
   <circle id="Oval" cx="12" cy="12" r="11" fill="#8C5F93"/>
   <path id="Shape" d="m17.727 11.182c-0.7 0-1.2727 0.57273-1.2727 1.2727v1.9091h-8.9091v-1.9091c0-0.7-0.57273-1.2727-1.2727-1.2727s-1.2727 0.57273-1.2727 1.2727v3.1818c0 0.7 0.57273 1.2727 1.2727 1.2727h11.455c0.7 0 1.2727-0.57273 1.2727-1.2727v-3.1818c0-0.7-0.57273-1.2727-1.2727-1.2727zm-1.9091-3.1818h-7.6364c-0.7 0-1.2727 0.57273-1.2727 1.2727v1.3682c0.73818 0.26091 1.2727 0.96091 1.2727 1.7945v1.2918h7.6364v-1.2918c0-0.82727 0.53455-1.5273 1.2727-1.7945v-1.3682c0-0.7-0.57273-1.2727-1.2727-1.2727z" fill="#fff"/>
  </g>
 </g>
</svg>
