<svg height="24" viewBox="0 0 24 24" width="24"><g fill="none" fill-rule="evenodd"><circle cx="12" cy="12" fill="#fff" opacity=".6" r="12"/><circle cx="12" cy="12" fill="#8c5f93" r="11"/><path d="m18 12.8c0 .5216-.3867692.9608-.9230769 1.1264v4.0736h-1.8461539v-1.6h-6.46153843v1.6h-1.84615385v-4.0736c-.53630769-.1656-.92307692-.6048-.92307692-1.1264 0-.6624.62030769-1.2 1.38461538-1.2.76338462 0 1.38369231.5368 1.38461539 1.1984v1.2016h1.10769231v-1.2024c-.00184616-1.0528-.87784616-1.9288-2.03076923-2.1168v-3.6016c1.20738461-.684 2.63907695-1.0792 4.15476925-1.0792 1.5138461 0 2.9455384.3944 4.1529231 1.0792v3.6016c-1.1529231.188-2.0289231 1.0648-2.0307693 2.1176v1.2016h1.1076923v-1.2016c.0009231-.6616.6212308-1.1984 1.3846154-1.1984.7643077 0 1.3846154.5376 1.3846154 1.2z" fill="#fff"/></g></svg>