<?xml version="1.0" encoding="UTF-8" standalone="no"?>
<svg width="17px" height="17px" viewBox="0 0 17 17" version="1.1" xmlns="http://www.w3.org/2000/svg" xmlns:xlink="http://www.w3.org/1999/xlink">
    <!-- Generator: Sketch 3.8.3 (29802) - http://www.bohemiancoding.com/sketch -->
    <title>furniture-s</title>
    <desc>Created with Sketch.</desc>
    <defs>
        <ellipse id="path-1" cx="8.5" cy="8.5" rx="7.5" ry="7.5"></ellipse>
    </defs>
    <g id="POI-Clear" stroke="none" stroke-width="1" fill="none" fill-rule="evenodd">
        <g id="furniture-s">
            <path d="M8.5,17 C3.812,17 0,13.188 0,8.5 C0,3.812 3.812,0 8.5,0 C13.188,0 17,3.812 17,8.5 C17,13.188 13.188,17 8.5,17 L8.5,17 Z" id="Shape" fill-opacity="0.6" fill="#FFFFFF"></path>
            <g id="Oval">
                <use fill="#2D7970" xlink:href="#path-1"></use>
                <use fill="#825089" xlink:href="#path-1"></use>
            </g>
            <path d="M12,8 C11.447,8 11,8.447 11,9 L11,10 L9.8,10 L9.8,9 C9.8,8.148 10.291,7.417 11,7.052 L11,4.809 C10.149,4.296 9.565,4 8.5,4 L8.498,4 L8.496,4 C7.431,4 6.85,4.296 6,4.809 L6,7.052 C6.709,7.417 7.2,8.149 7.2,9 L7.2,10 L6,10 L6,9 C6,8.447 5.553,8 5,8 C4.447,8 4,8.447 4,9 C4,9.553 4.447,10 5,10 L5,13 L6,13 L6,12 L11,12 L11,13 L12,13 L12,10 C12.553,10 13,9.553 13,9 C13,8.447 12.553,8 12,8 L12,8 Z" id="Shape" fill="#FFFFFF"></path>
        </g>
    </g>
</svg>