<svg width="28" height="28" viewBox="0 0 28 28">
  <g fill="none" fill-rule="evenodd">
    <circle cx="14" cy="14" r="14" fill="#FFF" opacity=".6"/>
    <circle cx="14" cy="14" r="13" fill="#7F5933"/>
    <path fill="#FFF" d="M12.5789474,7 C7.84210526,7 5,10.7333333 5,12.6 C5,14.4666667 5.94736842,15.8666667 7.84210526,15.8666667 C9.73684211,15.8666667 10.6842105,16.3333333 10.6842105,17.7333333 C10.6842105,19.6 12.1052632,21 14,21 C20.1578947,21 23,17.7333333 23,14.4666667 C23,8.86666667 18.2631579,7 12.5789474,7 L12.5789474,7 Z M11.3947368,8.86666667 C12.0487432,8.86666667 12.5789474,9.389016 12.5789474,10.0333333 C12.5789474,10.6776507 12.0487432,11.2 11.3947368,11.2 C10.7407305,11.2 10.2105263,10.6776507 10.2105263,10.0333333 C10.2105263,9.389016 10.7407305,8.86666667 11.3947368,8.86666667 L11.3947368,8.86666667 Z M15.1842105,8.86666667 C15.8382074,8.86666667 16.3684211,9.38902533 16.3684211,10.0333333 C16.3684211,10.6776413 15.8382074,11.2 15.1842105,11.2 C14.5302137,11.2 14,10.6776413 14,10.0333333 C14,9.38902533 14.5302137,8.86666667 15.1842105,8.86666667 L15.1842105,8.86666667 Z M18.9736842,10.7333333 C19.6276905,10.7333333 20.1578947,11.2556827 20.1578947,11.9 C20.1578947,12.5443173 19.6276905,13.0666667 18.9736842,13.0666667 C18.3196779,13.0666667 17.7894737,12.5443173 17.7894737,11.9 C17.7894737,11.2556827 18.3196779,10.7333333 18.9736842,10.7333333 L18.9736842,10.7333333 Z M8.07894737,11.6666667 C8.73295368,11.6666667 9.26315789,12.189016 9.26315789,12.8333333 C9.26315789,13.4776507 8.73295368,14 8.07894737,14 C7.42494105,14 6.89473684,13.4776507 6.89473684,12.8333333 C6.89473684,12.189016 7.42494105,11.6666667 8.07894737,11.6666667 L8.07894737,11.6666667 Z M14,16.3333333 C14.7848284,16.3333333 15.4210526,16.960132 15.4210526,17.7333333 C15.4210526,18.5065347 14.7848284,19.1333333 14,19.1333333 C13.2151716,19.1333333 12.5789474,18.5065347 12.5789474,17.7333333 C12.5789474,16.960132 13.2151716,16.3333333 14,16.3333333 L14,16.3333333 Z"/>
  </g>
</svg>
