<svg height="24" viewBox="0 0 24 24" width="24"><g fill="none" fill-rule="evenodd"><circle cx="12" cy="12" fill="#fff" opacity=".6" r="12"/><circle cx="12" cy="12" fill="#7f5933" r="11"/><path d="m10.9333333 6c-4.1481493 0-6.9333333 3.59419826-6.9333333 5.2173913 0 1.5652174 1.066656 2.6086957 2.66666667 2.6086957 1.659264 0 3.2.3478226 3.2 1.5652173 0 1.6231931 1.54073603 2.6086957 3.20000003 2.6086957 4.8 0 6.9333333-2.898553 6.9333333-5.7391304 0-5.73913047-4.9429333-6.2608696-9.0666667-6.2608696zm-1.59999997 1.56521739c.58909867 0 1.06666667.46718609 1.06666667 1.04347826 0 .57629218-.477568 1.04347826-1.06666667 1.04347826-.58909866 0-1.06666666-.46718608-1.06666666-1.04347826 0-.57629217.477568-1.04347826 1.06666666-1.04347826zm3.19999997 0c.589088 0 1.0666667.46719652 1.0666667 1.04347826s-.4775787 1.04347826-1.0666667 1.04347826-1.0666666-.46719652-1.0666666-1.04347826.4775786-1.04347826 1.0666666-1.04347826zm3.2 1.56521739c.580928 0 1.0333334.47517913 1.0333334 1.04347822 0 .5682992-.4524054 1.0108696-1.0333334 1.0108696s-1.0666666-.4425704-1.0666666-1.0108696c0-.56829909.4857386-1.04347822 1.0666666-1.04347822zm-8.5333333 1.04347822c.58910933 0 1.06666667.4671757 1.06666667 1.0434783s-.47755734 1.0434783-1.06666667 1.0434783-1.06666667-.4671757-1.06666667-1.0434783.47755734-1.0434783 1.06666667-1.0434783zm5.6 3.652174c.7363733 0 1.3333333.5839826 1.3333333 1.3043478s-.59696 1.3043478-1.3333333 1.3043478-1.3333333-.5839826-1.3333333-1.3043478.59696-1.3043478 1.3333333-1.3043478z" fill="#fff"/></g></svg>