<svg width="16" height="16" viewBox="0 0 16 16">
  <g fill="none" fill-rule="evenodd">
    <circle cx="8" cy="8" r="8" fill="#FFF" opacity=".6"/>
    <circle cx="8" cy="8" r="7" fill="#7F5933"/>
    <path fill="#FFF" d="M8,4 C5.5,4 4,5.5 4,7 C4,8 4.5,9 6,9 C7,9 7,9.25 7,10 C7,11.5 8.5,12 9.5,12 C12,12 13,9.75 13,8 C13,4.5 10.48528,4 8,4 L8,4 Z M7.375,5 C7.72017,5 8,5.2798 8,5.625 C8,5.9702 7.72017,6.25 7.375,6.25 C7.02983,6.25 6.75,5.9702 6.75,5.625 C6.75,5.2798 7.02983,5 7.375,5 L7.375,5 Z M9.375,5 C9.72017,5 10,5.2798 10,5.625 C10,5.9702 9.72017,6.25 9.375,6.25 C9.02983,6.25 8.75,5.9702 8.75,5.625 C8.75,5.2798 9.02983,5 9.375,5 L9.375,5 Z M5.625,5.75 C5.97017,5.75 6.25,6.0298 6.25,6.375 C6.25,6.7202 5.97017,7 5.625,7 C5.27983,7 5,6.7202 5,6.375 C5,6.0298 5.27983,5.75 5.625,5.75 L5.625,5.75 Z M11.375,6 C11.72017,6 12,6.2798 12,6.625 C12,6.9702 11.72017,7.25 11.375,7.25 C11.02983,7.25 10.75,6.9702 10.75,6.625 C10.75,6.2798 11.02983,6 11.375,6 L11.375,6 Z M9,8.5 C9.55228,8.5 10,8.9477 10,9.5 C10,10.0523 9.55228,10.5 9,10.5 C8.44772,10.5 8,10.0523 8,9.5 C8,8.9477 8.44772,8.5 9,8.5 L9,8.5 Z"/>
  </g>
</svg>
