<svg width="16" height="16" viewBox="0 0 16 16">
  <g fill="none" fill-rule="evenodd">
    <circle cx="8" cy="8" r="8" fill="#FFF" opacity=".6"/>
    <circle cx="8" cy="8" r="7" fill="#8C5F93"/>
    <path fill="#FFF" d="M8.39022435,8.34351739 C9.08087581,8.48039107 9.8285364,8.29463393 10.3659174,7.7835796 C10.9023639,7.27341407 11.0976902,6.56149317 10.9547001,5.90467726 C10.2640487,5.76780358 9.51545353,5.95356072 8.97807248,6.46461504 C8.44162601,6.97478058 8.24629969,7.6849239 8.39022435,8.34351739 L8.39022435,8.34351739 Z M7.1752759,8.3515165 C7.29490159,7.80402178 7.13135084,7.21119876 6.68462364,6.78546828 C6.23789645,6.35973781 5.61453443,6.20508832 5.03790121,6.31885346 C4.91827552,6.86634818 5.08182627,7.4591712 5.52855347,7.88490168 C5.97528067,8.31063215 6.5977081,8.46439285 7.1752759,8.3515165 L7.1752759,8.3515165 Z M7.83415179,5.84423953 C8.15003839,5.64692812 8.35938335,5.30829908 8.35938335,4.92167537 C8.35938335,4.53594045 8.15097296,4.19731141 7.83415179,4 C7.51733062,4.19731141 7.30985481,4.53682924 7.30892023,4.92167537 C7.30892023,5.30918787 7.51733062,5.64781691 7.83415179,5.84423953 L7.83415179,5.84423953 Z M5.50238535,9.82779691 C5.50238535,10.0606599 5.7005154,10.2490834 5.94537424,10.2490834 L6.10612127,10.2490834 L6.45845632,12 L9.2313425,12 L9.58367755,10.2490834 L9.65096701,10.2490834 C9.89582585,10.2490834 10.0939559,10.0606599 10.0939559,9.82779691 L10.0939559,9.40651039 L5.50331992,9.40651039 L5.50331992,9.82779691 L5.50238535,9.82779691 Z"/>
  </g>
</svg>
