<svg version="1.1" viewBox="0 0 24 24" xmlns="http://www.w3.org/2000/svg">
 <title>garden_center-m</title>
 <g fill="none" fill-rule="evenodd">
  <g id="garden_center-m" fill-rule="nonzero">
   <circle id="Oval" cx="12" cy="12" r="12" fill="#fff" opacity=".6"/>
   <circle id="Oval" cx="12" cy="12" r="11" fill="#8C5F93"/>
   <g id="Group" transform="translate(5 5)" fill="#fff">
    <path id="Shape" d="m12.6 0h-11.2c-0.77 0-1.4 0.63-1.4 1.4v11.2c0 0.77 0.63 1.4 1.4 1.4h11.2c0.77 0 1.4-0.63 1.4-1.4v-11.2c0-0.77-0.63-1.4-1.4-1.4zm-8.4 4.354c0-0.602 0.49-1.092 1.092-1.092 0.231 0 0.448 0.07 0.623 0.196l-7e-3 -0.084c0-0.602 0.49-1.092 1.092-1.092s1.092 0.49 1.092 1.092l-7e-3 0.084c0.182-0.126 0.392-0.196 0.623-0.196 0.602 0 1.092 0.49 1.092 1.092 0 0.434-0.259 0.812-0.623 0.98 0.364 0.175 0.623 0.553 0.623 0.987 0 0.602-0.49 1.092-1.092 1.092-0.231 0-0.448-0.077-0.623-0.196l7e-3 0.084c0 0.602-0.49 1.092-1.092 1.092s-1.092-0.49-1.092-1.092l7e-3 -0.084c-0.182 0.126-0.392 0.196-0.623 0.196-0.602 0-1.092-0.49-1.092-1.092 0-0.434 0.259-0.812 0.623-0.98-0.364-0.175-0.623-0.553-0.623-0.987zm2.8 7.546c-1.981 0-3.647-1.379-4.088-3.227-0.126-0.518 0.343-0.98 0.861-0.861 1.848 0.441 3.227 2.107 3.227 4.088 0-1.981 1.379-3.647 3.227-4.088 0.518-0.126 0.98 0.343 0.861 0.861-0.441 1.848-2.107 3.227-4.088 3.227z"/>
    <circle id="Oval" cx="7" cy="5.334" r="1.092"/>
   </g>
  </g>
 </g>
</svg>
