<svg width="16" height="16" viewBox="0 0 16 16">
  <g fill="none" fill-rule="evenodd">
    <circle cx="8" cy="8" r="8" fill="#FFF" opacity=".6"/>
    <circle cx="8" cy="8" r="7" fill="#507F34"/>
    <path fill="#FFF" d="M5,5.22222222 C5,6.18564444 6.2832,7.17063333 7.5,7.40972222 L7.5,11.8888889 C6.92857143,10.7777778 5.71428571,9.66666667 4,10.7777778 C4,10.7777778 5.14285714,13 8,13 C10.8571429,13 12,10.7777778 12,10.7777778 C10.2857143,9.66666667 9.07142857,10.7777778 8.5,11.8888889 L8.5,7.40972222 C9.7168,7.17063333 11,6.18564444 11,5.22222222 L11,3 L9.5,4.38888889 L8,3 L6.5,4.38888889 L5,3 L5,5.22222222 Z"/>
  </g>
</svg>
