<?xml version="1.0" encoding="UTF-8" standalone="no"?>
<svg width="17px" height="17px" viewBox="0 0 17 17" version="1.1" xmlns="http://www.w3.org/2000/svg" xmlns:xlink="http://www.w3.org/1999/xlink">
    <!-- Generator: Sketch 3.8.3 (29802) - http://www.bohemiancoding.com/sketch -->
    <title>garden_center-s</title>
    <desc>Created with Sketch.</desc>
    <defs>
        <ellipse id="path-1" cx="8.5" cy="8.5" rx="7.5" ry="7.5"></ellipse>
    </defs>
    <g id="POI-Clear" stroke="none" stroke-width="1" fill="none" fill-rule="evenodd">
        <g id="garden_center-s">
            <path d="M8.5,17 C3.812,17 0,13.188 0,8.5 C0,3.812 3.812,0 8.5,0 C13.188,0 17,3.812 17,8.5 C17,13.188 13.188,17 8.5,17 L8.5,17 Z" id="Shape" fill-opacity="0.6" fill="#FFFFFF"></path>
            <g id="Oval">
                <use fill="#2D7970" xlink:href="#path-1"></use>
                <use fill="#825089" xlink:href="#path-1"></use>
            </g>
            <path d="M9.62755446,8.887 C10.3665545,9.041 11.1665545,8.832 11.7415545,8.257 C12.3155545,7.683 12.5245545,6.882 12.3715545,6.143 C11.6325545,5.989 10.8315545,6.198 10.2565545,6.773 C9.68255446,7.347 9.47355446,8.146 9.62755446,8.887 L9.62755446,8.887 Z M8.32755446,8.896 C8.45555446,8.28 8.28055446,7.613 7.80255446,7.134 C7.32455446,6.655 6.65755446,6.481 6.04055446,6.609 C5.91255446,7.225 6.08755446,7.892 6.56555446,8.371 C7.04355446,8.85 7.70955446,9.023 8.32755446,8.896 L8.32755446,8.896 Z M9.03255446,6.075 C9.37055446,5.853 9.59455446,5.472 9.59455446,5.037 C9.59455446,4.603 9.37155446,4.222 9.03255446,4 C8.69355446,4.222 8.47155446,4.604 8.47055446,5.037 C8.47055446,5.473 8.69355446,5.854 9.03255446,6.075 L9.03255446,6.075 Z M6.53755446,10.557 C6.53755446,10.819 6.74955446,11.031 7.01155446,11.031 L7.18355446,11.031 L7.56055446,13.001 L10.5275545,13.001 L10.9045545,11.031 L10.9765545,11.031 C11.2385545,11.031 11.4505545,10.819 11.4505545,10.557 L11.4505545,10.083 L6.53855446,10.083 L6.53855446,10.557 L6.53755446,10.557 Z" id="Shape" fill="#FFFFFF"></path>
        </g>
    </g>
</svg>