<svg height="24" viewBox="0 0 24 24" width="24"><g fill="none" fill-rule="evenodd"><circle cx="12" cy="12" fill="#fff" opacity=".6" r="12"/><circle cx="12" cy="12" fill="#8c5f93" r="11"/><path d="m13.0176697 9.4776c.7926908-.776 1.8956003-1.0584 2.9144243-.8504.2130713 1-.0751056 2.0816-.86698 2.8568s-1.8956003 1.0584-2.9152407.8504c-.2130713-1 .075922-2.0816.8677964-2.8568zm-1.8074329 2.7864c.1771513-.8312-.0636765-1.7328-.724116-2.38-.65880687-.6472-1.57966698-.8832-2.43031967-.7096-.17633491.8328.06530923 1.7336.72411607 2.3808.66043956.6472 1.5788506.8824 2.4303196.7088zm-3.2102368 1.896c0 .3536.31189674.64.69697595.64h.39814751l.4983378 3.2h4.35609964l.6220511-3.2h.3981475c.3850792 0 .6969759-.2856.6969759-.64v-.96h-7.6667354zm3.6739323-8.16c-.6759505 0-1.224548.5376-1.224548 1.2s.5485975 1.2 1.224548 1.2c.6759506 0 1.2245481-.5376 1.2245481-1.2s-.5485975-1.2-1.2245481-1.2z" fill="#fff"/></g></svg>