<svg width="28" height="28" viewBox="0 0 28 28">
  <g fill="none" fill-rule="evenodd">
    <circle cx="14" cy="14" r="14" fill="#FFF" opacity=".6"/>
    <circle cx="14" cy="14" r="13" fill="#507F34"/>
    <path fill="#FFF" d="M9.2,7 L9.2,9 C9.2,11.0312 11.3666667,12.0625 13.5,12 L13.5,20 C12.4333333,18 9.2,15 6,16 C6,16 8.66666667,22 14,22 C19.3333333,22 22,16 22,16 C18.8,15 15.5666667,18 14.5,20 L14.5,12 C16.6333333,12.062 18.8,11.0312 18.8,9 L18.8,7 C18.8,6.5596 18.75008,6 18.48,6 C18.2742187,6 18.0260053,6.2256 17.7333333,6.5 L16.1333333,8 L14.5333333,6.3125 C14.3663253,6.1364 14.2699093,6 14,6 C13.73008,6 13.6336747,6.1364 13.4666667,6.3125 L11.8666667,8 L10.2666667,6.5 C9.97399467,6.2256 9.72578133,6 9.52,6 C9.25013333,6 9.2,6.5596 9.2,7 Z"/>
  </g>
</svg>
