<?xml version="1.0" encoding="UTF-8" standalone="no"?>
<svg width="27px" height="27px" viewBox="0 0 27 27" version="1.1" xmlns="http://www.w3.org/2000/svg" xmlns:xlink="http://www.w3.org/1999/xlink">
    <!-- Generator: Sketch 3.8.3 (29802) - http://www.bohemiancoding.com/sketch -->
    <title>gate-l</title>
    <desc>Created with Sketch.</desc>
    <defs>
        <path d="M5,19 L22,19 C22.552,19 23,18.553 23,18 L23,17 L4,17 L4,18 C4,18.553 4.448,19 5,19 L5,19 Z M10,14 L21.5,14 C22.329,14 23,13.328 23,12.5 C23,11.672 22.329,11 21.5,11 L16.883,11 L11.299,6 L9.299,6 L12.383,11 L8.208,11 L5.833,8 L4,8 L5.5,12 L10,14 L10,14 Z" id="path-1"></path>
    </defs>
    <g id="POI-Clear" stroke="none" stroke-width="1" fill="none" fill-rule="evenodd">
        <g id="gate-l">
            <path d="M13.5,27 C6.056,27 0,20.943 0,13.5 C0,6.057 6.056,0 13.5,0 C20.944,0 27,6.057 27,13.5 C27,20.943 20.944,27 13.5,27 L13.5,27 Z" id="Shape" fill-opacity="0.6" fill="#FFFFFF"></path>
            <path d="M26,13.5 C26,20.403 20.403,26 13.5,26 C6.597,26 1,20.403 1,13.5 C1,6.597 6.597,1 13.5,1 C20.403,1 26,6.597 26,13.5 L26,13.5 Z" id="Shape" fill="#717065"></path>
            <g id="Shape" fill="#FFFFFF">
                <use xlink:href="#path-1"></use>
                <use xlink:href="#path-1"></use>
            </g>
        </g>
    </g>
</svg>