<?xml version="1.0" encoding="UTF-8" standalone="no"?>
<svg width="17px" height="17px" viewBox="0 0 17 17" version="1.1" xmlns="http://www.w3.org/2000/svg" xmlns:xlink="http://www.w3.org/1999/xlink">
    <!-- Generator: Sketch 3.8.3 (29802) - http://www.bohemiancoding.com/sketch -->
    <title>gate-s</title>
    <desc>Created with Sketch.</desc>
    <defs>
        <path d="M4,11 L13,11 L13,10 L4,10 L4,11 L4,11 Z M7,9 L12.25,9 C12.664,9 13,8.664 13,8.25 C13,7.836 12.664,7.5 12.25,7.5 L10.441,7.5 L7.649,5 L6.649,5 L8.191,7.5 L6.104,7.5 L4.916,6 L4,6 L4.75,8 L7,9 L7,9 Z" id="path-1"></path>
    </defs>
    <g id="POI-Clear" stroke="none" stroke-width="1" fill="none" fill-rule="evenodd">
        <g id="gate-s">
            <path d="M8.5,17 C3.813,17 0,13.188 0,8.5 C0,3.812 3.813,0 8.5,0 C13.187,0 17,3.812 17,8.5 C17,13.188 13.187,17 8.5,17 L8.5,17 Z" id="Shape" fill-opacity="0.6" fill="#FFFFFF"></path>
            <ellipse id="Oval" fill="#717065" cx="8.5" cy="8.5" rx="7.5" ry="7.5"></ellipse>
            <g id="Shape" fill="#FFFFFF">
                <use xlink:href="#path-1"></use>
                <use xlink:href="#path-1"></use>
            </g>
        </g>
    </g>
</svg>