<?xml version="1.0" encoding="UTF-8"?>
<svg width="24px" height="24px" viewBox="0 0 24 24" version="1.1" xmlns="http://www.w3.org/2000/svg" xmlns:xlink="http://www.w3.org/1999/xlink">
    <title>geyser-m</title>
    <g id="Page-1" stroke="none" stroke-width="1" fill="none" fill-rule="evenodd">
        <g id="geyser-m" fill-rule="nonzero">
            <g id="geyser" transform="translate(5.142857, 5.142857)" fill="#14A0C2">
                <path d="M12.5089286,0 L1.20535714,0 C0.540723214,0 0,0.540723214 0,1.20535714 C0,1.86999107 0.540723214,2.41071429 1.20535714,2.41071429 L1.64750893,2.41071429 C1.83420536,3.32651786 2.64591964,4.01785714 3.61607143,4.01785714 L4.91705357,4.01785714 C5.03828571,4.35985714 5.30978571,4.63133036 5.65178571,4.75258929 L5.65178571,8.67061607 C6.00222321,8.65379464 6.33358929,8.53408929 6.6148125,8.3214375 L6.85714286,8.13819643 L7.09947321,8.3214375 C7.38069643,8.53408929 7.7120625,8.65379464 8.0625,8.67061607 L8.0625,4.75258929 C8.4045,4.63135714 8.67597321,4.35985714 8.79723214,4.01785714 L10.0982143,4.01785714 C11.0683661,4.01785714 11.8800804,3.32651786 12.0667768,2.41071429 L12.5089286,2.41071429 C13.1735625,2.41071429 13.7142857,1.86999107 13.7142857,1.20535714 C13.7142857,0.540723214 13.1735625,0 12.5089286,0 Z" id="Path"></path>
                <path d="M13.3124464,9.47646429 C12.8523214,9.47646429 12.4112679,9.35574107 12.0214286,9.1250625 C11.6315893,9.35574107 11.1905357,9.47646429 10.7303571,9.47646429 C10.2701786,9.47646429 9.829125,9.35574107 9.4393125,9.1250625 C9.04944643,9.35574107 8.60839286,9.47646429 8.14824107,9.47646429 C7.68803571,9.47646429 7.24700893,9.35574107 6.85716964,9.1250625 C6.46733036,9.35574107 6.02627679,9.47646429 5.56609821,9.47646429 C5.10591964,9.47646429 4.66486607,9.35574107 4.27502679,9.1250625 C3.8851875,9.35574107 3.44413393,9.47646429 2.98398214,9.47646429 C2.52377679,9.47646429 2.08275,9.35574107 1.69291071,9.1250625 C1.30304464,9.35574107 0.861991071,9.47646429 0.401839286,9.47646429 L0,9.47646429 L0,11.1527143 L0.401785714,11.1527143 C0.783803571,11.1527143 1.14645536,11.0311875 1.45052679,10.8012589 L1.69285714,10.6180179 L1.9351875,10.8012589 C2.23925893,11.0311875 2.60191071,11.1527143 2.98392857,11.1527143 C3.36594643,11.1527143 3.72859821,11.0311875 4.03264286,10.8012589 L4.27497321,10.6180179 L4.51730357,10.8012589 C4.82140179,11.0311875 5.18405357,11.1527143 5.56604464,11.1527143 C5.94808929,11.1527143 6.31074107,11.0311875 6.61478571,10.8012589 L6.85711607,10.6180179 L7.09944643,10.8012589 C7.40351786,11.0311875 7.76616964,11.1527143 8.1481875,11.1527143 C8.53020536,11.1527143 8.89285714,11.0311875 9.19692857,10.8012589 L9.43925893,10.6180179 L9.68158929,10.8012589 C9.98566071,11.0311875 10.3483125,11.1527143 10.7303036,11.1527143 C11.1123482,11.1527143 11.475,11.0311875 11.7790446,10.8012589 L12.021375,10.6180179 L12.2637054,10.8012589 C12.5678036,11.0311875 12.9304554,11.1527143 13.3124464,11.1527143 L13.7142321,11.1527143 L13.7142321,9.47646429 L13.3124464,9.47646429 Z" id="Path"></path>
                <path d="M13.3125,11.9562857 C12.8523214,11.9562857 12.4112679,11.8355625 12.0214286,11.6048839 C11.6315893,11.8355625 11.1905357,11.9562857 10.7303571,11.9562857 C10.2701786,11.9562857 9.829125,11.8355625 9.4393125,11.6048839 C9.04944643,11.8355625 8.60839286,11.9562857 8.14824107,11.9562857 C7.68803571,11.9562857 7.24700893,11.8355625 6.85716964,11.6048839 C6.46733036,11.8355625 6.02627679,11.9562857 5.56609821,11.9562857 C5.10591964,11.9562857 4.66486607,11.8355625 4.27502679,11.6048839 C3.8851875,11.8355625 3.44413393,11.9562857 2.98398214,11.9562857 C2.52377679,11.9562857 2.08275,11.8355625 1.69291071,11.6048839 C1.30304464,11.8355625 0.861991071,11.9562857 0.401839286,11.9562857 L0,11.9562857 L0,13.7142857 L13.7142857,13.7142857 L13.7142857,11.9562857 L13.3125,11.9562857 Z" id="Path"></path>
            </g>
        </g>
    </g>
</svg>