<svg version="1.1" viewBox="0 0 16 16" xmlns="http://www.w3.org/2000/svg">
 <title>geyser-s</title>
 <g fill="none" fill-rule="evenodd">
  <g id="geyser-s" fill-rule="nonzero">
   <g id="geyser" transform="translate(3.4286 3.4286)" fill="#14A0C2">
    <path id="Path" d="m8.3393 0h-7.5357c-0.44309 0-0.80357 0.36048-0.80357 0.80357 0 0.44309 0.36048 0.80357 0.80357 0.80357h0.29477c0.12446 0.61054 0.66561 1.0714 1.3124 1.0714h0.86732c0.080821 0.228 0.26182 0.40898 0.48982 0.48982v2.612c0.23362-0.011214 0.45454-0.091018 0.64202-0.23279l0.16155-0.12216 0.16155 0.12216c0.18748 0.14177 0.40839 0.22157 0.64202 0.23279v-2.612c0.228-0.080821 0.40898-0.26182 0.48982-0.48982h0.86732c0.64677 0 1.1879-0.46089 1.3124-1.0714h0.29477c0.44309 0 0.80357-0.36048 0.80357-0.80357 0-0.44309-0.36048-0.80357-0.80357-0.80357z"/>
    <path id="Path" d="m8.875 6.3176c-0.30675 0-0.60079-0.080482-0.86068-0.23427-0.25989 0.15379-0.55393 0.23427-0.86071 0.23427-0.30679 0-0.60082-0.080482-0.8607-0.23427-0.25991 0.15379-0.55395 0.23427-0.86071 0.23427-0.3068 0-0.60082-0.080482-0.86071-0.23427-0.25989 0.15379-0.55393 0.23427-0.86071 0.23427-0.30679 0-0.60082-0.080482-0.86071-0.23427-0.25989 0.15379-0.55393 0.23427-0.8607 0.23427-0.3068 0-0.60082-0.080482-0.86071-0.23427-0.25991 0.15379-0.55395 0.23427-0.86071 0.23427h-0.26789v1.1175h0.26786c0.25468 0 0.49645-0.081018 0.69916-0.2343l0.16155-0.12216 0.16155 0.12216c0.20271 0.15329 0.44448 0.2343 0.69916 0.2343 0.25468 0 0.49645-0.081018 0.69914-0.2343l0.16155-0.12216 0.16155 0.12216c0.20273 0.15329 0.4445 0.2343 0.69916 0.2343 0.2547 0 0.49646-0.081018 0.69916-0.2343l0.16155-0.12216 0.16155 0.12216c0.20271 0.15329 0.44448 0.2343 0.69916 0.2343s0.49645-0.081018 0.69916-0.2343l0.16155-0.12216 0.16155 0.12216c0.20271 0.15329 0.44448 0.2343 0.69914 0.2343 0.2547 0 0.49646-0.081018 0.69916-0.2343l0.16155-0.12216 0.16155 0.12216c0.20273 0.15329 0.4445 0.2343 0.69916 0.2343h0.26786v-1.1175h-0.26786z"/>
    <path id="Path" d="m8.875 7.9709c-0.30679 0-0.60082-0.080482-0.86071-0.23427-0.25989 0.15379-0.55393 0.23427-0.86071 0.23427-0.30679 0-0.60082-0.080482-0.8607-0.23427-0.25991 0.15379-0.55395 0.23427-0.86071 0.23427-0.3068 0-0.60082-0.080482-0.86071-0.23427-0.25989 0.15379-0.55393 0.23427-0.86071 0.23427-0.30679 0-0.60082-0.080482-0.86071-0.23427-0.25989 0.15379-0.55393 0.23427-0.8607 0.23427-0.3068 0-0.60082-0.080482-0.86071-0.23427-0.25991 0.15379-0.55395 0.23427-0.86071 0.23427h-0.26789v1.172h9.1429v-1.172h-0.26786z"/>
   </g>
  </g>
 </g>
</svg>
