<?xml version="1.0" encoding="UTF-8"?>
<svg width="24px" height="24px" viewBox="0 0 24 24" version="1.1" xmlns="http://www.w3.org/2000/svg" xmlns:xlink="http://www.w3.org/1999/xlink">
    <title>gift-m</title>
    <g id="Page-1" stroke="none" stroke-width="1" fill="none" fill-rule="evenodd">
        <g id="gift-m" fill-rule="nonzero">
            <circle id="Oval" fill="#FFFFFF" opacity="0.6" cx="12" cy="12" r="12"></circle>
            <circle id="Oval" fill="#8C5F93" cx="12" cy="12" r="11"></circle>
            <path d="M17.6,7.8 L16.074,7.8 C16.151,7.583 16.2,7.345 16.2,7.1 C16.2,5.938 15.262,5 14.1,5 C13.365,5 12.728,5.378 12.35,5.945 L12,6.414 L11.65,5.938 C11.272,5.378 10.635,5 9.9,5 C8.738,5 7.8,5.938 7.8,7.1 C7.8,7.345 7.849,7.583 7.926,7.8 L6.4,7.8 C5.623,7.8 5.007,8.423 5.007,9.2 L5,16.9 C5,17.677 5.623,18.3 6.4,18.3 L17.6,18.3 C18.377,18.3 19,17.677 19,16.9 L19,9.2 C19,8.423 18.377,7.8 17.6,7.8 Z M14.1,6.4 C14.485,6.4 14.8,6.715 14.8,7.1 C14.8,7.485 14.485,7.8 14.1,7.8 C13.715,7.8 13.4,7.485 13.4,7.1 C13.4,6.715 13.715,6.4 14.1,6.4 Z M9.9,6.4 C10.285,6.4 10.6,6.715 10.6,7.1 C10.6,7.485 10.285,7.8 9.9,7.8 C9.515,7.8 9.2,7.485 9.2,7.1 C9.2,6.715 9.515,6.4 9.9,6.4 Z M17.6,16.9 L6.4,16.9 L6.4,15.5 L17.6,15.5 L17.6,16.9 Z M17.6,13.4 L6.4,13.4 L6.4,9.9 C6.4,9.515 6.715,9.2 7.1,9.2 L9.956,9.2 L8.92,10.614 C8.689,10.929 8.759,11.37 9.074,11.594 C9.382,11.818 9.823,11.748 10.047,11.44 L12,8.78 L13.953,11.44 C14.177,11.748 14.618,11.818 14.926,11.594 C15.241,11.37 15.311,10.929 15.08,10.614 L14.044,9.2 L16.9,9.2 C17.285,9.2 17.6,9.515 17.6,9.9 L17.6,13.4 Z" id="Shape" fill="#FFFFFF"></path>
        </g>
    </g>
</svg>