<?xml version="1.0" encoding="UTF-8" standalone="no"?>
<svg width="17px" height="17px" viewBox="0 0 17 17" version="1.1" xmlns="http://www.w3.org/2000/svg" xmlns:xlink="http://www.w3.org/1999/xlink">
    <!-- Generator: Sketch 3.8.3 (29802) - http://www.bohemiancoding.com/sketch -->
    <title>gift-s</title>
    <desc>Created with Sketch.</desc>
    <defs>
        <ellipse id="path-1" cx="8.5" cy="8.5" rx="7.5" ry="7.5"></ellipse>
    </defs>
    <g id="POI-Clear" stroke="none" stroke-width="1" fill="none" fill-rule="evenodd">
        <g id="gift-s">
            <path d="M8.5,17 C3.812,17 0,13.188 0,8.5 C0,3.812 3.812,0 8.5,0 C13.188,0 17,3.812 17,8.5 C17,13.188 13.188,17 8.5,17 L8.5,17 Z" id="Shape" fill-opacity="0.6" fill="#FFFFFF"></path>
            <g id="Oval">
                <use fill="#2D7970" xlink:href="#path-1"></use>
                <use fill="#825089" xlink:href="#path-1"></use>
            </g>
            <path d="M12,6.669 L9,6.669 L9,8.669 L13,8.669 L13,7.669 C13,7.116 12.553,6.669 12,6.669 L12,6.669 Z M4,11.669 C4,12.222 4.447,12.669 5,12.669 L8,12.669 L8,9.669 L4,9.669 L4,11.669 L4,11.669 Z M4,7.669 L4,8.669 L8,8.669 L8,6.669 L5,6.669 C4.447,6.669 4,7.116 4,7.669 L4,7.669 Z M9,12.669 L12,12.669 C12.553,12.669 13,12.222 13,11.669 L13,9.669 L9,9.669 L9,12.669 L9,12.669 Z M6.904,5.669 L10.095,5.669 C10.555,5.669 10.93,5.294 10.93,4.835 C10.93,4.375 10.555,4 10.095,4 C9.872,4 9.662,4.087 9.504,4.245 L8.499,5.241 L7.493,4.244 C7.335,4.087 7.126,4 6.903,4 C6.443,4 6.068,4.375 6.068,4.835 C6.069,5.294 6.444,5.669 6.904,5.669 L6.904,5.669 Z" id="Shape" fill="#FFFFFF"></path>
        </g>
    </g>
</svg>