<svg width="28" height="28" viewBox="0 0 28 28">
  <g fill="none" fill-rule="evenodd">
    <circle cx="14" cy="14" r="14" fill="#FFF" opacity=".6"/>
    <circle cx="14" cy="14" r="13" fill="#717065"/>
    <path fill="#FFF" d="M10.7692308,7.4375 L10.7692308,18.3203125 C8.92307692,18.3745625 8,19.6875 8,20.5625 C8,21 8.46153846,21 8.46153846,21 L19.5384615,21 C19.5384615,21 20,21 20,20.5625 C20,18.375 18.6153846,16.625 17.2307692,16.625 C15.7793877,16.625 14.9756092,19.0577625 13.5384615,19.25 C12.9082677,19.334 12.2993231,18.9478625 11.6923077,18.6484375 L11.6923077,12.25 L18.1538462,9.625 L12.1553415,7.188125 C11.8078308,7.0469875 11.4616492,7 11.2307692,7 C10.9155569,7 10.7692308,7 10.7692308,7.4375 Z"/>
  </g>
</svg>
