<svg version="1.1" viewBox="0 0 24 24" xmlns="http://www.w3.org/2000/svg">
 <title>golf-m</title>
 <g fill="none" fill-rule="evenodd">
  <g id="golf-m" fill-rule="nonzero">
   <g id="golf_course_black_24dp" transform="translate(6 5)" fill="#fff">
    <g transform="matrix(1.392 0 0 1.392 -1.8882 -2.5605)" fill="#717065">
     <circle cx="10.333" cy="11.667" r="1"/>
     <path id="Path" d="m4.6667 10.687v-6.0333l2.8133-1.4333c0.48667-0.24667 0.48667-0.95333-0.0066667-1.1933l-3.1733-1.5533c-0.44667-0.22-0.96667 0.1-0.96667 0.59333v10.267c0 0.36667-0.3 0.66667-0.66667 0.66667-0.36667 0-0.66667-0.3-0.66667-0.66667v-0.48667c-1.1933 0.23333-2 0.66-2 1.1533 0 0.73333 1.7933 1.3333 4 1.3333s4-0.6 4-1.3333c0-0.66-1.44-1.2067-3.3333-1.3133z"/>
    </g>
   </g>
  </g>
 </g>
</svg>
