<svg width="16" height="16" viewBox="0 0 16 16">
  <g fill="none" fill-rule="evenodd">
    <circle cx="8" cy="8" r="8" fill="#FFF" opacity=".6"/>
    <circle cx="8" cy="8" r="7" fill="#8C5F93"/>
    <path fill="#FFF" d="M10.5115102,4 C9.88818619,4 9.34277764,4.347359 9.02302049,4.87108326 C9.34176575,5.39391226 9.8871743,5.74037601 10.5115102,5.74037601 C11.1317986,5.74037601 11.679231,5.39391226 12,4.87108326 C11.679231,4.34556849 11.1328105,4 10.5115102,4 L10.5115102,4 Z M9.98659246,9.79409132 C9.98659246,11.0116383 8.86946623,12 7.49329623,12 C6.11712623,12 5,11.0116383 5,9.79409132 C5,9.11190689 5.35112573,8.50223814 5.90058184,8.09668756 L6.37819378,6.01969561 C6.38325323,5.99552372 6.38831267,5.97045658 6.39640779,5.94717995 L6.4055148,5.90510295 L6.41057425,5.90510295 C6.50063243,5.63384064 6.71616494,5.41271262 6.9954465,5.29006267 L6.9954465,4.05729633 L7.99316974,4.05729633 L7.99316974,5.29006267 C8.2724513,5.41271262 8.48697192,5.63384064 8.5770301,5.90510295 L8.58208955,5.90510295 L8.59119656,5.94717995 C8.59929168,5.97045658 8.60536302,5.99552372 8.60941057,6.01969561 L9.08702251,8.09668756 C9.63546673,8.50134288 9.98659246,9.11190689 9.98659246,9.79409132 L9.98659246,9.79409132 Z"/>
  </g>
</svg>
