<svg height="24" viewBox="0 0 24 24" width="24"><g fill="none" fill-rule="evenodd"><circle cx="12" cy="12" fill="#fff" opacity=".6" r="12"/><circle cx="12" cy="12" fill="#8c5f93" r="11"/><path d="m17 6.80138907c-.3518182.48323762-.9531818.80138908-1.6371818.80138908s-1.2845455-.31815146-1.6355455-.80138908c.351-.48323761.9515455-.80138907 1.6363637-.80138907.684 0 1.2845454.31815146 1.6363636.80138907zm-2.9667273 4.81795113-.7044545-3.39628691c-.0081818-.04087084-.0155455-.08094029-.0253637-.11940697l-.013909-.06891946h-.0081819c-.1718181-.57780152-.6578181-1.02177107-1.2657272-1.14518499v-.88954187h-.6676364v.88874048c-.6079091.12261253-1.0939091.56738347-1.2657273 1.14518499h-.0081818l-.0139091.06891946c-.0106363.03926807-.0171818.07933752-.0253636.11940697l-.70445456 3.3962869c-.81327273.6603446-1.33036364 1.6588754-1.33036364 2.774409 0 1.9914518 1.64863636 3.6070522 3.6818182 3.6070522 2.0331818 0 3.6818182-1.6156004 3.6818182-3.6070522 0-1.1147322-.5170909-2.113263-1.3303637-2.7736076z" fill="#fff"/></g></svg>