<?xml version="1.0" encoding="UTF-8" standalone="no"?>
<svg width="17px" height="17px" viewBox="0 0 27 27" version="1.1" xmlns="http://www.w3.org/2000/svg" xmlns:xlink="http://www.w3.org/1999/xlink">
    <!-- Generator: Sketch 3.7.2 (28276) - http://www.bohemiancoding.com/sketch -->
    <title>gym-l</title>
    <desc>Created with Sketch.</desc>
    <defs></defs>
    <g id="POI" stroke="none" stroke-width="1" fill="none" fill-rule="evenodd">
        <g id="gym-l">
            <path d="M13.5,27 C6.057,27 0,20.943 0,13.5 C0,6.057 6.057,0 13.5,0 C20.943,0 27,6.057 27,13.5 C27,20.943 20.943,27 13.5,27 L13.5,27 Z" id="Shape" fill="#FFFFFF"></path>
            <path d="M26,13.5 C26,20.403 20.403,26 13.5,26 C6.597,26 1,20.403 1,13.5 C1,6.597 6.597,1 13.5,1 C20.403,1 26,6.597 26,13.5 L26,13.5 Z" id="Shape" fill="#717065"></path>
            <path d="M7,8.4912653 C7,7.66766222 7.66579723,7 8.5,7 C9.32842712,7 10,7.66254437 10,8.4912653 L10,18.5087347 C10,19.3323378 9.33420277,20 8.5,20 C7.67157288,20 7,19.3374556 7,18.5087347 L7,8.4912653 Z M4.5,11.0029293 C4.5,10.4490268 4.94386482,10 5.5,10 C6.05228475,10 6.5,10.4378814 6.5,11.0029293 L6.5,15.9970707 C6.5,16.5509732 6.05613518,17 5.5,17 C4.94771525,17 4.5,16.5621186 4.5,15.9970707 L4.5,11.0029293 Z M10.5,12 L16.5,12 L16.5,15 L10.5,15 L10.5,12 Z M20.5,11.0029293 C20.5,10.4490268 20.9438648,10 21.5,10 C22.0522847,10 22.5,10.4378814 22.5,11.0029293 L22.5,15.9970707 C22.5,16.5509732 22.0561352,17 21.5,17 C20.9477153,17 20.5,16.5621186 20.5,15.9970707 L20.5,11.0029293 Z M17,8.4912653 C17,7.66766222 17.6657972,7 18.5,7 C19.3284271,7 20,7.66254437 20,8.4912653 L20,18.5087347 C20,19.3323378 19.3342028,20 18.5,20 C17.6715729,20 17,19.3374556 17,18.5087347 L17,8.4912653 Z" id="Combined-Shape" fill="#FFFFFF"></path>
        </g>
    </g>
</svg>
