<svg width="24" height="24" viewBox="0 0 24 24">
  <g fill="none" fill-rule="evenodd">
    <circle cx="12" cy="12" r="12" fill="#FFF" opacity=".6"/>
    <circle cx="12" cy="12" r="11" fill="#717065"/>
    <path fill="#FFF" d="M8.9375,11.2727273 L15.0625,11.2727273 L15.0625,12.7272727 L8.9375,12.7272727 L8.9375,11.2727273 Z M15.0625,8.87136924 C15.0625,8.3901253 15.4508817,8 15.9375,8 C16.4207492,8 16.8125,8.38585663 16.8125,8.87136924 L16.8125,15.1286308 C16.8125,15.6098747 16.4241183,16 15.9375,16 C15.4542508,16 15.0625,15.6141434 15.0625,15.1286308 L15.0625,8.87136924 Z M7.1875,8.87136924 C7.1875,8.3901253 7.57588172,8 8.0625,8 C8.54574916,8 8.9375,8.38585663 8.9375,8.87136924 L8.9375,15.1286308 C8.9375,15.6098747 8.54911828,16 8.0625,16 C7.57925084,16 7.1875,15.6141434 7.1875,15.1286308 L7.1875,8.87136924 Z M17.25,11.0620804 C17.25,10.575925 17.6383817,10.1818182 18.125,10.1818182 C18.6082492,10.1818182 19,10.5709728 19,11.0620804 L19,12.9379196 C19,13.424075 18.6116183,13.8181818 18.125,13.8181818 C17.6417508,13.8181818 17.25,13.4290272 17.25,12.9379196 L17.25,11.0620804 Z M5,11.0620804 C5,10.575925 5.38838172,10.1818182 5.875,10.1818182 C6.35824916,10.1818182 6.75,10.5709728 6.75,11.0620804 L6.75,12.9379196 C6.75,13.424075 6.36161828,13.8181818 5.875,13.8181818 C5.39175084,13.8181818 5,13.4290272 5,12.9379196 L5,11.0620804 Z" transform="rotate(-45 12 12)"/>
  </g>
</svg>
