<svg version="1.1" viewBox="0 0 24 24" xmlns="http://www.w3.org/2000/svg">
 <title>gym-m</title>
 <g fill="none" fill-rule="evenodd">
  <g id="gym-m" fill-rule="nonzero">
   <path id="Path" d="m20.049 14.686 0.67623-0.67623c0.36629-0.36629 0.36629-0.958 0-1.3243l-0.01878-0.01878c-0.36629-0.36629-0.958-0.36629-1.3243 0l-2.6862 2.6861-8.049-8.049 2.6861-2.6861c0.36629-0.36629 0.36629-0.958 0-1.3243l-0.01878-0.018784c-0.36629-0.36629-0.958-0.36629-1.3243 0l-0.67624 0.67623-0.67623-0.67623c-0.36629-0.36629-0.96739-0.36629-1.3337 0l-1.3431 1.3431-0.67623-0.67623c-0.36629-0.36629-0.97678-0.36629-1.3431 0-0.36629 0.36629-0.36629 0.97678 0 1.3431l0.67623 0.67623-1.3431 1.3431c-0.36629 0.36629-0.36629 0.958 0 1.3243l0.67623 0.67623-0.67623 0.68562c-0.36629 0.36629-0.36629 0.958 0 1.3243l0.018784 0.01878c0.36629 0.36629 0.958 0.36629 1.3243 0l2.6861-2.6861 8.049 8.049-2.6861 2.6861c-0.36629 0.36629-0.36629 0.958 0 1.3243l0.01878 0.01878c0.36629 0.36629 0.958 0.36629 1.3243 0l0.67623-0.67623 0.67623 0.67623c0.36629 0.36629 0.958 0.36629 1.3243 0l1.3431-1.3431 0.67623 0.67623c0.36629 0.36629 0.97678 0.36629 1.3431 0 0.36629-0.36629 0.36629-0.97678 0-1.3431l-0.67623-0.67623 1.3525-1.3431c0.36629-0.36629 0.36629-0.958 0-1.3243z" fill="#717065"/>
  </g>
 </g>
</svg>
