<svg width="24" height="24" viewBox="0 0 24 24">
  <g fill="none" fill-rule="evenodd">
    <circle cx="12" cy="12" r="12" fill="#FFF" opacity=".6"/>
    <circle cx="12" cy="12" r="11" fill="#717065"/>
    <path fill="#FFF" d="M17.6754532,15.2628346 L17.2651132,14.5330547 C16.6059097,13.3568098 15.155472,12.9464918 14.0032907,13.5971389 L12.8368614,16.5250509 L12.9555941,16.820089 L12.9688921,16.7956654 C13.0030871,16.8728442 13.0287334,16.9490461 13.0695774,17.0232941 L13.4799173,17.753074 C14.1476696,18.9449501 15.6285028,19.3542911 16.788283,18.6655431 C17.9480633,17.976795 18.3432054,16.4537337 17.6754532,15.2628346 L17.6754532,15.2628346 Z M16.2772578,17.6387711 C16.1062829,17.7403737 15.9106115,17.7931289 15.7149402,17.7931289 C15.3093495,17.7931289 14.9351043,17.5703848 14.7337338,17.2137989 L14.2493047,16.3501772 C13.9377503,15.7933171 14.1220233,15.0801454 14.6615443,14.7616604 C14.8325193,14.6590809 15.0291405,14.6053488 15.2257618,14.6053488 C15.6294527,14.6053488 16.0036979,14.8290698 16.2060183,15.1856557 L16.6913972,16.0512313 C17.0029516,16.6071145 16.8167789,17.3193093 16.2772578,17.6387711 L16.2772578,17.6387711 Z M14.8800124,5 L12.0000339,10.1328827 L9.12005552,5 L8.41905814,5.41422578 L11.0036298,11.9079965 L10.0414207,13.6196087 C8.88259029,12.9308606 7.40270691,13.3392247 6.73495466,14.5330547 L6.32461473,15.2628346 C5.65686247,16.4547106 6.05200463,17.976795 7.20988514,18.6645661 C8.37061523,19.3533142 9.85144846,18.9439731 10.5192007,17.7520971 L10.9295406,17.0223172 C10.9684849,16.9500231 10.9941312,16.8757751 11.0264265,16.7995731 L11.0444738,16.8191121 L15.5819596,5.41324884 L14.8800124,5 L14.8800124,5 Z M9.73556542,16.3492003 L9.2568355,17.2030525 C9.0573647,17.5586614 8.68691893,17.7784746 8.2860776,17.7784746 C8.09230597,17.7784746 7.89948419,17.7237656 7.72945908,17.6250939 C7.19563723,17.3085628 7.01231406,16.6022297 7.32006901,16.0531852 L7.80069865,15.2003099 C7.99826973,14.8456779 8.37061523,14.6219569 8.77050669,14.6219569 C8.96427833,14.6219569 9.15804996,14.677643 9.32712521,14.7772916 C9.85999721,15.0938226 10.0433204,15.7991788 9.73556542,16.3492003 L9.73556542,16.3492003 Z"/>
  </g>
</svg>
