<?xml version="1.0" encoding="UTF-8" standalone="no"?>
<svg width="17px" height="17px" viewBox="0 0 17 17" version="1.1" xmlns="http://www.w3.org/2000/svg" xmlns:xlink="http://www.w3.org/1999/xlink">
    <!-- Generator: Sketch 3.8.3 (29802) - http://www.bohemiancoding.com/sketch -->
    <title>hairdresser-s</title>
    <desc>Created with Sketch.</desc>
    <defs>
        <path d="M10.87368,4 L9.01977779,7.21 L7.16687552,4 L6.70489989,4.267 L8.36981207,8.336 L7.67384878,9.542 C6.90788918,9.099 5.92894082,9.361 5.48596418,10.128 L5.21497848,10.597 C4.77300179,11.364 5.03398802,12.343 5.80094757,12.785 C6.56790712,13.227 7.54585553,12.965 7.98883217,12.198 L8.25981788,11.728 C8.28481656,11.683 8.30181566,11.633 8.32281455,11.585 L8.33481392,11.597 L11.3336557,4.266 L10.87368,4 L10.87368,4 Z M7.47285938,11.297 L7.15687605,11.845 C7.02488301,12.074 6.77989593,12.215 6.51490991,12.215 C6.38591671,12.215 6.25892341,12.181 6.14592937,12.116 C5.79294799,11.911 5.67295432,11.458 5.87594361,11.104 L6.19192695,10.555 C6.32391998,10.328 6.56990701,10.185 6.83389309,10.185 C6.96288628,10.185 7.09087953,10.22 7.20287362,10.285 C7.55585501,10.489 7.67684862,10.943 7.47285938,11.297 L7.47285938,11.297 Z M12.8245771,10.597 L12.5535914,10.128 C12.1116147,9.361 11.1316664,9.099 10.3657068,9.542 L10.3027101,9.432 L9.56074926,11.246 L9.70474166,11.598 L9.71674103,11.586 C9.73773992,11.634 9.75473903,11.684 9.77973771,11.729 L10.0507234,12.199 C10.4927001,12.966 11.4716485,13.228 12.238608,12.786 C13.0055676,12.344 13.2675537,11.363 12.8245771,10.597 L12.8245771,10.597 Z M11.8956261,12.116 C11.7826321,12.18 11.6556388,12.215 11.5266456,12.215 C11.2616595,12.215 11.0166725,12.073 10.8846794,11.845 L10.5686961,11.297 C10.3647069,10.943 10.4857005,10.489 10.8386819,10.285 C10.9506759,10.221 11.0786692,10.185 11.2076624,10.185 C11.4716485,10.185 11.7176355,10.329 11.8496285,10.555 L12.1656119,11.104 C12.3686012,11.458 12.2486075,11.911 11.8956261,12.116 L11.8956261,12.116 Z" id="path-1"></path>
    </defs>
    <g id="POI-Clear" stroke="none" stroke-width="1" fill="none" fill-rule="evenodd">
        <g id="hairdresser-s">
            <path d="M8.5,17 C3.812,17 0,13.188 0,8.5 C0,3.812 3.812,0 8.5,0 C13.188,0 17,3.812 17,8.5 C17,13.188 13.188,17 8.5,17 L8.5,17 Z" id="Shape" fill-opacity="0.6" fill="#FFFFFF"></path>
            <ellipse id="Oval" fill="#717065" cx="8.5" cy="8.5" rx="7.5" ry="7.5"></ellipse>
            <g id="Shape" fill="#FFFFFF">
                <use xlink:href="#path-1"></use>
                <use xlink:href="#path-1"></use>
            </g>
        </g>
    </g>
</svg>