<svg width="24" height="24" viewBox="0 0 24 24">
  <g fill="none" fill-rule="evenodd">
    <circle cx="12" cy="12" r="12" fill="#FFF" opacity=".6"/>
    <circle cx="12" cy="12" r="11" fill="#8C5F93"/>
    <path fill="#FFF" fill-rule="nonzero" d="M11.4734774,6 L11.4734774,10.8 L10.9076621,10.8 L10.9076621,6.6 L9.77603143,6.6 L9.77603143,13.2 L9.77603143,13.55625 C9.77603143,13.55625 8.18467583,12.4125 7.90176817,12.4125 C7.16620825,12.4125 7,13.25625 7,13.25625 L9.82907662,17.2125 C10.1119843,17.6925 10.6777996,18 11.2436149,18 L13.7367387,18 C14.9815324,18 16,16.92 16,15.6 L16,14.4 L16,12.3 L16,7.8 L14.8683694,7.8 L14.8683694,11.325 L14.302554,11.23125 L14.302554,6.6 L13.1709234,6.6 L13.1709234,11.04375 L12.6051081,10.95 L12.6051081,6 L11.4734774,6 Z"/>
  </g>
</svg>
