<svg version="1.1" viewBox="0 0 24 24" xmlns="http://www.w3.org/2000/svg">
 <title>hand-m</title>
 <g fill="none" fill-rule="evenodd">
  <g id="hand-m" fill-rule="nonzero">
   <circle id="Oval" cx="12" cy="12" r="12" fill="#fff" opacity=".6"/>
   <circle id="Oval" cx="12" cy="12" r="11" fill="#8C5F93"/>
   <path id="Path" d="m16.586 7.3333c-0.48417 0-0.875 0.39083-0.875 0.875v2.9167c0 0.16333-0.12833 0.29167-0.29167 0.29167-0.16333 0-0.29167-0.12833-0.29167-0.29167v-4.6667c0-0.48417-0.39083-0.875-0.875-0.875s-0.875 0.39083-0.875 0.875v4.6667c0 0.16333-0.12833 0.29167-0.29167 0.29167-0.16333 0-0.29167-0.12833-0.29167-0.29167v-5.25c0-0.48417-0.39083-0.875-0.875-0.875-0.48417 0-0.875 0.39083-0.875 0.875v5.2442c0 0.16333-0.12833 0.29167-0.29167 0.29167s-0.29167-0.12833-0.29167-0.29167v-3.4942c0-0.48417-0.39083-0.875-0.875-0.875-0.48417 0-0.875 0.39083-0.875 0.875v6.6558l-2.4033-1.3708c-0.33833-0.1925-0.75833-0.14-1.0383 0.12833-0.35 0.33833-0.36167 0.89833-0.0175 1.2425l3.955 4.0192c0.4375 0.44917 1.0325 0.7 1.6625 0.7h4.2583c1.2892 0 2.3333-1.0442 2.3333-2.3333v-8.4583c0-0.48417-0.39083-0.875-0.875-0.875z" fill="#fff"/>
  </g>
 </g>
</svg>
