<svg width="28" height="28" viewBox="0 0 28 28">
  <g fill="none" fill-rule="evenodd">
    <circle cx="14" cy="14" r="14" fill="#FFF" opacity=".6"/>
    <circle cx="14" cy="14" r="13" fill="#8C5F93"/>
    <path fill="#FFF" fill-rule="nonzero" d="M13.4675835,7 L13.4675835,12.6 L12.7760314,12.6 L12.7760314,7.7 L11.3929273,7.7 L11.3929273,15.4 L11.3929273,15.815625 C11.3929273,15.815625 9.44793713,14.48125 9.1021611,14.48125 C8.20314342,14.48125 8,15.465625 8,15.465625 L11.4577603,20.08125 C11.8035363,20.64125 12.4950884,21 13.1866405,21 L16.2337917,21 C17.7552063,21 19,19.74 19,18.2 L19,16.8 L19,14.35 L19,9.1 L17.6168959,9.1 L17.6168959,13.2125 L16.9253438,13.103125 L16.9253438,7.7 L15.5422397,7.7 L15.5422397,12.884375 L14.8506876,12.775 L14.8506876,7 L13.4675835,7 Z"/>
  </g>
</svg>
