<svg width="16" height="16" viewBox="0 0 16 16">
  <g fill="none" fill-rule="evenodd">
    <circle cx="8" cy="8" r="8" fill="#FFF" opacity=".6"/>
    <circle cx="8" cy="8" r="7" fill="#8C5F93"/>
    <path fill="#FFF" fill-rule="nonzero" d="M7.98231827,4 L7.98231827,7.2 L7.60510806,7.2 L7.60510806,4.4 L6.85068762,4.4 L6.85068762,8.8 L6.85068762,9.0375 C6.85068762,9.0375 5.78978389,8.275 5.60117878,8.275 C5.1108055,8.275 5,8.8375 5,8.8375 L6.88605108,11.475 C7.07465619,11.795 7.4518664,12 7.82907662,12 L9.49115914,12 C10.3210216,12 11,11.28 11,10.4 L11,9.6 L11,8.2 L11,5.2 L10.2455796,5.2 L10.2455796,7.55 L9.86836935,7.4875 L9.86836935,4.4 L9.11394892,4.4 L9.11394892,7.3625 L8.7367387,7.3 L8.7367387,4 L7.98231827,4 Z"/>
  </g>
</svg>
