<?xml version="1.0" encoding="UTF-8" standalone="no"?>
<svg width="17px" height="17px" viewBox="0 0 17 17" version="1.1" xmlns="http://www.w3.org/2000/svg" xmlns:xlink="http://www.w3.org/1999/xlink">
    <!-- Generator: Sketch 3.8.3 (29802) - http://www.bohemiancoding.com/sketch -->
    <title>hardware-s</title>
    <desc>Created with Sketch.</desc>
    <defs>
        <ellipse id="path-1" cx="8.5" cy="8.5" rx="7.5" ry="7.5"></ellipse>
    </defs>
    <g id="POI-Clear" stroke="none" stroke-width="1" fill="none" fill-rule="evenodd">
        <g id="hardware-s">
            <path d="M8.5,17 C3.812,17 0,13.188 0,8.5 C0,3.812 3.812,0 8.5,0 C13.188,0 17,3.812 17,8.5 C17,13.188 13.188,17 8.5,17 L8.5,17 Z" id="Shape" fill-opacity="0.6" fill="#FFFFFF"></path>
            <g id="Oval">
                <use fill="#2D7970" xlink:href="#path-1"></use>
                <use fill="#825089" xlink:href="#path-1"></use>
            </g>
            <path d="M10.091,5 L9,5 L9,7 L11,7 L11,5.909 C11,5.406 10.594,5 10.091,5 L10.091,5 Z M8,5 L6.909,5 C6.406,5 6,5.406 6,5.909 L6,7 L8,7 L8,5 L8,5 Z M6,10.5 C6,11.881 7.119,13 8.5,13 C9.881,13 11,11.881 11,10.5 L11,8 L6,8 L6,10.5 L6,10.5 Z" id="Shape" fill="#FFFFFF"></path>
        </g>
    </g>
</svg>