<?xml version="1.0" encoding="UTF-8" standalone="no"?>
<svg width="27px" height="28px" viewBox="0 0 27 28" version="1.1" xmlns="http://www.w3.org/2000/svg" xmlns:xlink="http://www.w3.org/1999/xlink" xmlns:sketch="http://www.bohemiancoding.com/sketch/ns">
    <!-- Generator: Sketch 3.4.2 (15857) - http://www.bohemiancoding.com/sketch -->
    <title>heliport-l</title>
    <desc>Created with Sketch.</desc>
    <defs></defs>
    <g id="POI" stroke="none" stroke-width="1" fill="none" fill-rule="evenodd" sketch:type="MSPage">
        <circle id="Oval-1-Copy-39" fill="#FFFFFF" sketch:type="MSShapeGroup" cx="13.5" cy="13.519" r="13.5"></circle>
        <ellipse id="Oval-1-Copy-38" fill="#717065" sketch:type="MSShapeGroup" cx="13.5" cy="13.519" rx="12.5" ry="12.5"></ellipse>
        <path d="M20.0526316,19.019 C20.5263158,19.019 21,18.519 21,18.019 L21,15.019 C21,14.019 20.5445432,13.5382 20.0526316,13.019 C20.0526316,13.019 19.4210495,12.3523 19.1052632,12.019 C18.7894768,11.6857 18.1578947,11.019 17.2105263,11.019 L14.009058,11.019 L14.009058,9.019 L18.1578947,9.019 L19.0526316,9.019 C19.5774642,9.019 20,8.573 20,8.019 C20,7.465 19.5774642,7.019 19.0526316,7.019 L18.1578947,7.019 L14.8421053,7.019 L13.8947368,7.019 L9.63157895,7.019 L7.9853363,7.019 C7.46049894,7.019 7.03796788,7.465 7.03796788,8.019 C7.03796788,8.573 7.46049894,9.019 7.9853363,9.019 L9.63157895,9.019 L12.9962654,9.019 L12.9962654,11.019 L10.5789474,11.019 L6.52302632,11.019 C6.19519611,10.4221 5.59541432,10.019 4.89473684,10.019 C4.28049615,10.019 3.73452162,10.3275111 3.38830818,10.8057518 C3.14470488,11.1422524 3,11.5627834 3,12.019 C3,13.1236 3.84830305,14.019 4.89473684,14.019 C5.44140821,14.019 5.91075253,13.7537 6.25657895,13.3628 L9.63157895,17.019 C10.5789474,18.0453 11.2894737,19.019 11.7631579,19.019 L20.0526316,19.019 Z M5.84210526,12.019 C5.84210526,12.5713 5.41795421,13.019 4.89473684,13.019 C4.37151947,13.019 3.94736842,12.5713 3.94736842,12.019 C3.94736842,11.4667 4.37151947,11.019 4.89473684,11.019 C5.41795421,11.019 5.84210526,11.4667 5.84210526,12.019 Z" id="rect9361" fill="#FFFFFF" sketch:type="MSShapeGroup"></path>
    </g>
</svg>