<?xml version="1.0" encoding="UTF-8" standalone="no"?>
<svg width="23px" height="24px" viewBox="0 0 23 24" version="1.1" xmlns="http://www.w3.org/2000/svg" xmlns:xlink="http://www.w3.org/1999/xlink" xmlns:sketch="http://www.bohemiancoding.com/sketch/ns">
    <!-- Generator: Sketch 3.4.2 (15857) - http://www.bohemiancoding.com/sketch -->
    <title>heliport-m</title>
    <desc>Created with Sketch.</desc>
    <defs></defs>
    <g id="POI" stroke="none" stroke-width="1" fill="none" fill-rule="evenodd" sketch:type="MSPage">
        <ellipse id="Oval-1-Copy-41" fill="#FFFFFF" sketch:type="MSShapeGroup" cx="11.5" cy="11.519" rx="11.5" ry="11.5"></ellipse>
        <ellipse id="Oval-1-Copy-40" fill="#717065" sketch:type="MSShapeGroup" cx="11.5" cy="11.519" rx="10.5" ry="10.5"></ellipse>
        <path d="M17.1618468,16.019 C17.5809234,16.019 18,15.5868889 18,15.1547778 L18,12.5622222 C18,11.698 17.5970554,11.2825556 17.1618468,10.8337778 C17.1618468,10.8337778 16.603078,10.2576667 16.3236936,9.96966667 C16.04432,9.68155556 15.4946433,9.02091157 14.6564901,9.02091157 L12.0087546,9.02091164 L11.9996624,7.0273074 L15.011649,7.02730734 C15.4759749,7.02730734 15.9978548,6.99155556 15.9978548,6.51277778 C15.9978548,6.03411112 15.6084122,6.019 15.011649,6.019 L8.10908776,6.019 C7.77718829,6.019 7.11687224,6.03455556 7.11687224,6.51277778 C7.11687224,6.99155556 7.64744507,6.97575178 8.10908776,7.02730734 L10.9228786,7.02730726 L10.9319707,9.02091149 L7.11687214,9.02091157 C6.82684082,8.50502269 6.29619797,8.15668935 5.67630641,8.15668935 C4.75051017,8.15668935 4,8.93046713 4,9.8851338 C4,10.8396894 4.75051017,11.6134671 5.67630641,11.6134671 C6.15994338,11.6134671 6.57518365,11.3842449 6.88114222,11.046356 L9.85795875,14.2905556 C10.7304235,15.1416667 11.3247322,16.019 11.7437981,16.019 L17.1618468,16.019 Z" id="rect9361-7" fill="#FFFFFF" sketch:type="MSShapeGroup"></path>
        <circle id="Oval-410" fill="#717065" sketch:type="MSShapeGroup" cx="5.75" cy="9.769" r="0.75"></circle>
    </g>
</svg>