<svg width="28" height="28" viewBox="0 0 28 28">
  <g fill="none" fill-rule="evenodd">
    <circle cx="14" cy="14" r="14" fill="#FFF" opacity=".6"/>
    <circle cx="14" cy="14" r="13" fill="#717065"/>
    <path fill="#FFF" d="M10.6842105,9.90909091 L15.4210526,9.90909091 L15.4210526,10.8181818 C15.1586316,10.8181818 14.9473684,11.0209091 14.9473684,11.2727273 L14.9473684,11.7272727 L8.72467368,11.7272727 C8.50914737,10.9273636 7.75892632,10.3646364 6.89473684,10.3636364 C5.84827368,10.3636364 5,11.1776364 5,12.1818182 C5,13.186 5.84827368,14 6.89473684,14 C7.24734737,13.9990909 7.59275789,13.9038182 7.89203158,13.7248182 L13.0526316,17.6363636 C14.0070105,18.955 15.7225053,19 16.3684211,19 L22.0526316,19 C22.0526316,19 23,19 23,18.0909091 L23,17.1871818 C23,16.5212727 22.8806316,16.1581818 22.5263158,15.8181818 L18.7368421,12.1818182 C18.7368421,12.1818182 18.1763789,11.7272727 17.5304632,11.7272727 L16.8421053,11.7272727 L16.8421053,11.2727273 C16.8421053,11.0209091 16.6308421,10.8181818 16.3684211,10.8181818 L16.3684211,9.90909091 L21.1052632,9.90909091 C22.0526316,9.90909091 22.0526316,9 21.1052632,9 L10.6842105,9 C9.73684211,9 9.73684211,9.90909091 10.6842105,9.90909091 Z M6.89473684,11.2727273 C7.41796842,11.2727273 7.84210526,11.6797273 7.84210526,12.1818182 C7.84210526,12.6839091 7.41796842,13.0909091 6.89473684,13.0909091 C6.37150526,13.0909091 5.94736842,12.6839091 5.94736842,12.1818182 C5.94736842,11.6797273 6.37150526,11.2727273 6.89473684,11.2727273 L6.89473684,11.2727273 Z M18.2631579,13.0909091 L21.5789474,16.2727273 L17.3157895,16.2727273 C17.3157895,16.2727273 16.3684211,16.2727273 16.3684211,15.3636364 L16.3684211,13.5454545 C16.3684211,13.5454545 16.3684211,12.6363636 17.3157895,12.6363636 C17.7894737,12.6363636 18.0638316,12.9300909 18.2631579,13.0909091 Z"/>
  </g>
</svg>
