<?xml version="1.0" encoding="UTF-8" standalone="no"?>
<svg width="17px" height="17px" viewBox="0 0 17 17" version="1.1" xmlns="http://www.w3.org/2000/svg" xmlns:xlink="http://www.w3.org/1999/xlink">
    <!-- Generator: Sketch 3.8.3 (29802) - http://www.bohemiancoding.com/sketch -->
    <title>heliport-s</title>
    <desc>Created with Sketch.</desc>
    <defs></defs>
    <g id="POI-Clear" stroke="none" stroke-width="1" fill="none" fill-rule="evenodd">
        <g id="heliport-s">
            <circle id="Oval-1-Copy-43" fill-opacity="0.6" fill="#FFFFFF" cx="8.5" cy="8.5" r="8.5"></circle>
            <ellipse id="Oval-1-Copy-42" fill="#717065" cx="8.5" cy="8.5" rx="7.5" ry="7.5"></ellipse>
            <g id="heliport-11" transform="translate(3.000000, 4.000000)" fill="#FFFFFF">
                <g id="svg4764">
                    <path d="M3,0 C2.723,0 2.5,0.223 2.5,0.5 C2.5,0.777 2.7236,0.9824 3,1 L6,1 L6,3 L2.9141,3 L2.9121,3 C2.7004,2.4014 2.1349,2.0009 1.5,2 C0.6716,2 0,2.6716 0,3.5 C0,4.3284 0.6716,5 1.5,5 C1.8794,4.9993 2.2444,4.8548 2.5215,4.5957 L4.5,7.5 C5.1812,8.5 6,8.5 6.5,8.5 L10.0352,8.5 C10.0352,8.5 11,8.4992 11,7.5 L11,6.5 C11,6 10.5,5.5 10.5,5.5 L8.5,3.5 C8.5,3.5 8,3 7.5,3 L7,3 L7,1 L10,1 C10.277,1 10.5,0.777 10.5,0.5 C10.5,0.223 10.277,0 10,0 L3,0 L3,0 Z M1.5,3 C1.7761,3 2,3.2239 2,3.5 C2,3.7761 1.7761,4 1.5,4 C1.2239,4 1,3.7761 1,3.5 C1,3.2239 1.2239,3 1.5,3 L1.5,3 Z M7.75,4 C7.75,4 8,4 8.5,4.5 L10,6 L7.5,6 C7.5,6 7,6 7,5.5 L7,4.5 C7,4.5 7,4 7.5,4 L7.75,4 L7.75,4 Z" id="path10415"></path>
                </g>
            </g>
        </g>
    </g>
</svg>