<?xml version="1.0" encoding="UTF-8" standalone="no"?>
<svg width="17px" height="18px" viewBox="0 0 17 18" version="1.1" xmlns="http://www.w3.org/2000/svg" xmlns:xlink="http://www.w3.org/1999/xlink" xmlns:sketch="http://www.bohemiancoding.com/sketch/ns">
    <!-- Generator: Sketch 3.4.2 (15857) - http://www.bohemiancoding.com/sketch -->
    <title>heliport-s</title>
    <desc>Created with Sketch.</desc>
    <defs></defs>
    <g id="POI" stroke="none" stroke-width="1" fill="none" fill-rule="evenodd" sketch:type="MSPage">
        <circle id="Oval-1-Copy-43" fill="#FFFFFF" sketch:type="MSShapeGroup" cx="8.5" cy="8.519" r="8.5"></circle>
        <circle id="Oval-1-Copy-42" fill="#717065" sketch:type="MSShapeGroup" cx="8.5" cy="8.519" r="7.5"></circle>
        <path d="M12.4983883,12.019 C12.7483883,12.019 12.9983883,11.769207 12.9983883,11.5194141 L12.9983883,10.0206562 C12.9983883,9.52107031 12.7580083,9.28086939 12.4983883,9.02148437 C12.4983883,9.02148437 12.1650483,8.68846039 11.9983883,8.52189844 C11.8317283,8.3554364 11.4983883,8.0223125 10.9983883,8.0223125 L9,8.01651563 L9,6.01817188 L10.5,6.01817188 L11.5,6.01817188 C11.77699,6.01817188 12,5.76764852 12,5.51858594 C12,5.22354054 11.77699,5.019 11.5,5.019 L10.5,5.019 L9,5.019 L8.5,5.019 L6.5,5.019 L6,5.019 L5.5,5.019 C5.223,5.019 5,5.24181533 5,5.51858594 C5,5.79535655 5.223,6.01817188 5.5,6.01817188 L6,6.01817188 L6.5,6.01817188 L8,6.01817188 L8,8.01651563 L7,8.01651563 L4.85938,8.01651563 C4.68635,7.71836274 4.3698,7.51692969 4,7.51692969 C3.44772,7.51692969 3,7.96425894 3,8.51610156 C3,9.06794419 3.44772,9.51527344 4,9.51527344 C4.28852,9.51527344 4.53623,9.38278325 4.71875,9.18744515 L6.5,11.0140313 C7,11.5268063 7.375,12.0132031 7.625,12.0132031 L12.4983883,12.019 Z M4.5,8.51610156 C4.5,8.79207284 4.27614,9.0156875 4,9.0156875 C3.72386,9.0156875 3.5,8.79207284 3.5,8.51610156 C3.5,8.24013029 3.72386,8.01651563 4,8.01651563 C4.27614,8.01651563 4.5,8.24013029 4.5,8.51610156 Z" id="rect9361-1" fill="#FFFFFF" sketch:type="MSShapeGroup"></path>
    </g>
</svg>