<svg version="1.1" viewBox="0 0 24 24" xmlns="http://www.w3.org/2000/svg">
 <title>hindu-m</title>
 <g fill="none" fill-rule="evenodd">
  <g id="hindu-m" fill-rule="nonzero">
   <circle id="Oval" cx="12" cy="12" r="12" fill="#fff" opacity=".6"/>
   <circle id="Oval" cx="12" cy="12" r="11" fill="#7F5933"/>
   <path id="Shape" d="m7.1626 9.4651c1.0585-0.92361 2.3574-0.98596 2.3576-0.98596 1.8494-0.16853 2.2805 0.83854 2.2805 0.83854 0.54695 0.87046 0.1483 1.8548 0.1483 1.8548-0.4032 1.0367-1.2467 1.3899-1.2467 1.3899 0.23634 0.0044709 0.63487 0.2187 0.63487 0.2187 0.12051 0.12307 0.39865 0.13214 0.39865 0.13214 0.68602 0.013661 1.0336-0.76564 1.0336-0.76564 0.70914-1.44 1.2005-1.7362 1.2005-1.7362 0.80653-0.7064 1.7521-0.4831 1.7521-0.4831 1.1078 0.19597 1.7011 1.2942 1.7011 1.2942 0.68135 1.2305 0.57007 2.5474 0.57007 2.5474 0 1.6223-0.87613 2.4472-0.87613 2.4472-0.98716 1.0436-2.1043 0.79756-2.1043 0.79756-1.5249-0.28701-1.6732-1.9595-1.6732-1.9595-0.088042-1.0618 0.14135-1.2897 0.14135-1.2897 0.12745 1.9596 2.0859 1.3945 2.0859 1.3945 1.6338-0.47168 1.6616-2.1054 1.6616-2.1054 0.11811-0.82711-0.30594-1.6406-0.30594-1.6406-0.38931-0.60146-1.0521-0.41468-1.0521-0.41468-0.55162 0.11388-0.95015 0.81569-0.95015 0.81569-0.52383 0.98894-0.91781 1.2807-0.91781 1.2807-0.744 0.6905-1.905 0.32128-1.905 0.32128 0.75082 1.2306 0.52143 2.3516 0.52143 2.3516-0.31983 2.3378-2.6583 2.2307-2.6583 2.2307-2.2062-0.0044709-3.2401-1.9979-3.2401-1.9979-1.095-1.9379-0.61617-3.7123-0.61617-3.7123 0.54682 4.3612 3.366 4.0657 3.366 4.0657 1.2315 0 1.7677-0.68802 1.7677-0.68802 0.89066-1.3046-0.20476-1.9816-0.20476-1.9816-0.79958-0.50124-1.6895-0.027322-1.6895-0.027322l-0.66291-2.0076c0.90152 0.34637 1.759 0.052409 1.759 0.052409 1.1496-0.34637 0.73301-1.1319 0.73301-1.1319-0.14438-0.37928-0.70055-0.49043-0.70055-0.49043-0.9456-0.25981-2.5307 0.90908-2.5307 0.90908l-0.77874-1.5243zm4.0539-2.8225s0.26893 1.6042 2.2805 1.8229c0 0 1.2608 0.095752 2.4196-1.203l1.0243 1.235s-1.029 1.1347-2.8275 1.2213c0 0-1.3118 0.2233-2.4335-1.1986 1.264e-4 0-0.6859-0.84301-0.46345-1.8775zm1.1123 0.52868 1.1218-1.1712 1.1774 1.0938-1.1264 1.1211-1.1728-1.0436z" fill="#fff"/>
  </g>
 </g>
</svg>
