<svg version="1.1" viewBox="0 0 16 16" xmlns="http://www.w3.org/2000/svg">
 <title>hindu-s</title>
 <g fill="none" fill-rule="evenodd">
  <g id="hindu-s" fill-rule="nonzero">
   <circle id="Oval" cx="8" cy="8" r="8" fill="#fff" opacity=".6"/>
   <circle id="Oval" cx="8" cy="8" r="7" fill="#7F5933"/>
   <path id="Shape" d="m4.7751 6.31c0.70569-0.61574 1.5716-0.6573 1.5717-0.6573 1.2329-0.11235 1.5203 0.55903 1.5203 0.55903 0.36463 0.5803 0.098864 1.2365 0.098864 1.2365-0.2688 0.69117-0.83116 0.92663-0.83116 0.92663 0.15756 0.0029806 0.42324 0.1458 0.42324 0.1458 0.080337 0.082049 0.26577 0.088093 0.26577 0.088093 0.45735 0.0091074 0.6891-0.51043 0.6891-0.51043 0.47276-0.96 0.80034-1.1575 0.80034-1.1575 0.53769-0.47093 1.1681-0.32207 1.1681-0.32207 0.73853 0.13065 1.1341 0.8628 1.1341 0.8628 0.45423 0.82033 0.38004 1.6983 0.38004 1.6983 0 1.0815-0.58409 1.6315-0.58409 1.6315-0.65811 0.69572-1.4029 0.5317-1.4029 0.5317-1.0166-0.19134-1.1155-1.3063-1.1155-1.3063-0.058695-0.70789 0.094232-0.85982 0.094232-0.85982 0.084969 1.3064 1.3906 0.9297 1.3906 0.9297 1.0892-0.31445 1.1077-1.4036 1.1077-1.4036 0.078737-0.55141-0.20396-1.0937-0.20396-1.0937-0.25954-0.40097-0.70139-0.27645-0.70139-0.27645-0.36775 0.075922-0.63343 0.54379-0.63343 0.54379-0.34922 0.65929-0.61188 0.85377-0.61188 0.85377-0.496 0.46034-1.27 0.21419-1.27 0.21419 0.50055 0.82041 0.34762 1.5677 0.34762 1.5677-0.21322 1.5585-1.7722 1.4872-1.7722 1.4872-1.4708-0.0029806-2.1601-1.3319-2.1601-1.3319-0.73002-1.2919-0.41078-2.4749-0.41078-2.4749 0.36455 2.9075 2.244 2.7104 2.244 2.7104 0.82097 0 1.1784-0.45868 1.1784-0.45868 0.59377-0.86975-0.13651-1.3211-0.13651-1.3211-0.53305-0.33416-1.1263-0.018215-1.1263-0.018215l-0.44194-1.3384c0.60101 0.23091 1.1726 0.034939 1.1726 0.034939 0.7664-0.23091 0.48868-0.75459 0.48868-0.75459-0.096253-0.25285-0.46703-0.32695-0.46703-0.32695-0.6304-0.17321-1.6872 0.60605-1.6872 0.60605l-0.51916-1.0162zm2.7026-1.8817s0.17928 1.0695 1.5203 1.2153c0 0 0.84051 0.063834 1.6131-0.80203l0.68287 0.82331s-0.68598 0.75649-1.885 0.8142c0 0-0.87453 0.14886-1.6223-0.79905 8.421e-5 0-0.45727-0.56201-0.30897-1.2517zm0.74156 0.35246 0.74788-0.78083 0.78493 0.72917-0.75091 0.74738-0.7819-0.69572z" fill="#fff"/>
  </g>
 </g>
</svg>
