<?xml version="1.0" encoding="UTF-8" standalone="no"?>
<svg width="17px" height="17px" viewBox="0 0 17 17" version="1.1" xmlns="http://www.w3.org/2000/svg" xmlns:xlink="http://www.w3.org/1999/xlink">
    <!-- Generator: Sketch 3.8.3 (29802) - http://www.bohemiancoding.com/sketch -->
    <title>historic-ship-s</title>
    <desc>Created with Sketch.</desc>
    <defs>
        <path d="M12.528,7.85097221 L11.65,7.95597221 C11.502,7.12797221 11.067,6.40097221 10.452,5.88097221 L10.982,5.17197221 C11.247,4.80697221 11.146,4.32897221 10.755,4.10497221 C10.364,3.87897221 9.901,4.02997221 9.716,4.44197221 L9.367,5.25697221 C8.992,5.12097221 8.591,5.04397221 8.17,5.04397221 C7.749,5.04397221 7.348,5.12097221 6.972,5.25697221 L6.623,4.44197221 C6.439,4.02997221 5.976,3.87997221 5.585,4.10397221 C5.194,4.32997221 5.094,4.80697221 5.357,5.17197221 L5.887,5.88197221 C5.273,6.40097221 4.84,7.12697221 4.691,7.95197221 L3.812,7.84897221 C3.363,7.80197221 3,8.12897221 3,8.57997221 C3,9.03097221 3.363,9.35697221 3.812,9.31097221 L4.691,9.20897221 C4.839,10.0329722 5.273,10.7579722 5.884,11.2759722 L5.357,11.9859722 C5.092,12.3519722 5.194,12.8299722 5.585,13.0549722 C5.976,13.2799722 6.442,13.1299722 6.624,12.7179722 L6.975,11.9049722 C7.35,12.0399722 7.75,12.1159722 8.17,12.1159722 C8.59,12.1159722 8.99,12.0399722 9.365,11.9049722 L9.716,12.7169722 C9.899,13.1299722 10.363,13.2799722 10.755,13.0549722 C11.146,12.8289722 11.247,12.3509722 10.983,11.9859722 L10.455,11.2759722 C11.07,10.7559722 11.502,10.0309722 11.65,9.20397221 L12.528,9.30897221 C12.977,9.35597221 13.34,9.02997221 13.34,8.57897221 C13.34,8.12797221 12.978,7.80297221 12.528,7.85097221 L12.528,7.85097221 Z M10.663,8.07297221 L8.632,8.31497221 L9.851,6.68697221 C10.255,7.04497221 10.55,7.52397221 10.663,8.07297221 L10.663,8.07297221 Z M8.171,6.03897221 C8.452,6.03897221 8.719,6.09597221 8.972,6.17997221 L8.171,8.04797221 L7.37,6.18197221 C7.622,6.09597221 7.89,6.03897221 8.171,6.03897221 L8.171,6.03897221 Z M6.491,6.68797221 L7.698,8.30297221 L5.681,8.06697221 C5.795,7.51997221 6.089,7.04397221 6.491,6.68797221 L6.491,6.68797221 Z M5.682,9.09497221 L7.684,8.86197221 L6.488,10.4709722 C6.086,10.1129722 5.794,9.64097221 5.682,9.09497221 L5.682,9.09497221 Z M8.171,11.1229722 C7.892,11.1229722 7.627,11.0669722 7.375,10.9829722 L8.171,9.14097221 L8.967,10.9829722 C8.714,11.0679722 8.45,11.1229722 8.171,11.1229722 L8.171,11.1229722 Z M9.855,10.4719722 L8.647,8.84997221 L10.664,9.08897221 C10.551,9.63697221 10.257,10.1129722 9.855,10.4719722 L9.855,10.4719722 Z" id="path-1"></path>
    </defs>
    <g id="POI-Clear" stroke="none" stroke-width="1" fill="none" fill-rule="evenodd">
        <g id="historic-ship-s">
            <path d="M8.5,17 C3.812,17 0,13.188 0,8.5 C0,3.812 3.812,0 8.5,0 C13.188,0 17,3.812 17,8.5 C17,13.188 13.188,17 8.5,17 L8.5,17 Z" id="Shape" fill-opacity="0.6" fill="#FFFFFF"></path>
            <ellipse id="Oval" fill="#717065" cx="8.5" cy="8.5" rx="7.5" ry="7.5"></ellipse>
            <g id="Shape" fill="#FFFFFF">
                <use xlink:href="#path-1"></use>
                <use xlink:href="#path-1"></use>
            </g>
        </g>
    </g>
</svg>