<?xml version="1.0" encoding="UTF-8"?>
<svg width="24px" height="24px" viewBox="0 0 24 24" version="1.1" xmlns="http://www.w3.org/2000/svg" xmlns:xlink="http://www.w3.org/1999/xlink">
    <title>home-m</title>
    <g id="Page-1" stroke="none" stroke-width="1" fill="none" fill-rule="evenodd">
        <g id="home-m" fill-rule="nonzero">
            <circle id="Oval" fill="#FFFFFF" opacity="0.6" cx="12" cy="12" r="12"></circle>
            <circle id="Oval" fill="#717065" cx="12" cy="12" r="11"></circle>
            <path d="M10.4765828,17.911318 L10.4765828,14.1070005 L13.5200368,14.1070005 L13.5200368,17.911318 C13.5200368,18.3297929 13.8624254,18.6721815 14.2809003,18.6721815 L16.5634908,18.6721815 C16.9819657,18.6721815 17.3243543,18.3297929 17.3243543,17.911318 L17.3243543,12.5852736 L18.6178222,12.5852736 C18.9678194,12.5852736 19.1352094,12.1515814 18.8689072,11.9233223 L12.5080883,6.19402019 C12.2189602,5.9353266 11.7776594,5.9353266 11.4885313,6.19402019 L5.12771244,11.9233223 C4.86901885,12.1515814 5.02880019,12.5852736 5.37879739,12.5852736 L6.67226534,12.5852736 L6.67226534,17.911318 C6.67226534,18.3297929 7.01465391,18.6721815 7.43312883,18.6721815 L9.71571932,18.6721815 C10.1341942,18.6721815 10.4765828,18.3297929 10.4765828,17.911318 Z" id="Path" fill="#FFFFFF"></path>
        </g>
    </g>
</svg>