<svg width="24" height="24" viewBox="0 0 24 24">
  <g fill="none" fill-rule="evenodd">
    <circle cx="12" cy="12" r="12" fill="#FFF" opacity=".6"/>
    <circle cx="12" cy="12" r="11" fill="#C15746"/>
    <path fill="#FFF" d="M13.8461538,10.1538462 L13.8461538,7.00247329 C13.8461538,6.45576096 13.3944363,6 12.8372145,6 L11.1627855,6 C10.6065956,6 10.1538462,6.44882258 10.1538462,7.00247329 L10.1538462,10.1538462 L7.00247329,10.1538462 C6.45576096,10.1538462 6,10.6055637 6,11.1627855 L6,12.8372145 C6,13.3934044 6.44882258,13.8461538 7.00247329,13.8461538 L10.1538462,13.8461538 L10.1538462,16.9975267 C10.1538462,17.544239 10.6055637,18 11.1627855,18 L12.8372145,18 C13.3934044,18 13.8461538,17.5511774 13.8461538,16.9975267 L13.8461538,13.8461538 L16.9975267,13.8461538 C17.544239,13.8461538 18,13.3944363 18,12.8372145 L18,11.1627855 C18,10.6065956 17.5511774,10.1538462 16.9975267,10.1538462 L13.8461538,10.1538462 Z"/>
  </g>
</svg>
