<?xml version="1.0" encoding="UTF-8"?>
<svg width="16px" height="16px" viewBox="0 0 16 16" version="1.1" xmlns="http://www.w3.org/2000/svg" xmlns:xlink="http://www.w3.org/1999/xlink">
    <title>hospital-s</title>
    <g id="Page-1" stroke="none" stroke-width="1" fill="none" fill-rule="evenodd">
        <g id="hospital-s" fill-rule="nonzero">
            <circle id="Oval" fill="#FFFFFF" opacity="0.6" cx="8" cy="8" r="8"></circle>
            <circle id="Oval" fill="#C15746" cx="8" cy="8" r="7.33333333"></circle>
            <path d="M11.6296296,3.33333333 L4.37037037,3.33333333 C3.8,3.33333333 3.33851852,3.8 3.33851852,4.37037037 L3.33333333,11.6296296 C3.33333333,12.2 3.8,12.6666667 4.37037037,12.6666667 L11.6296296,12.6666667 C12.2,12.6666667 12.6666667,12.2 12.6666667,11.6296296 L12.6666667,4.37037037 C12.6666667,3.8 12.2,3.33333333 11.6296296,3.33333333 Z M10.5925926,9.03703704 L9.03703704,9.03703704 L9.03703704,10.5925926 C9.03703704,10.8777778 8.8037037,11.1111111 8.51851852,11.1111111 L7.48148148,11.1111111 C7.1962963,11.1111111 6.96296296,10.8777778 6.96296296,10.5925926 L6.96296296,9.03703704 L5.40740741,9.03703704 C5.12222222,9.03703704 4.88888889,8.8037037 4.88888889,8.51851852 L4.88888889,7.48148148 C4.88888889,7.1962963 5.12222222,6.96296296 5.40740741,6.96296296 L6.96296296,6.96296296 L6.96296296,5.40740741 C6.96296296,5.12222222 7.1962963,4.88888889 7.48148148,4.88888889 L8.51851852,4.88888889 C8.8037037,4.88888889 9.03703704,5.12222222 9.03703704,5.40740741 L9.03703704,6.96296296 L10.5925926,6.96296296 C10.8777778,6.96296296 11.1111111,7.1962963 11.1111111,7.48148148 L11.1111111,8.51851852 C11.1111111,8.8037037 10.8777778,9.03703704 10.5925926,9.03703704 Z" id="Shape" fill="#FFFFFF"></path>
        </g>
    </g>
</svg>