<svg width="16" height="16" viewBox="0 0 16 16">
  <g fill="none" fill-rule="evenodd">
    <circle cx="8" cy="8" r="8" fill="#FFF" opacity=".6"/>
    <circle cx="8" cy="8" r="7" fill="#C15746"/>
    <path fill="#FFF" d="M9.33333333,6.66666667 L9.33333333,4.99703014 C9.33333333,4.45303631 8.88876631,4 8.34036509,4 L7.65963491,4 C7.10701243,4 6.66666667,4.4463856 6.66666667,4.99703014 L6.66666667,6.66666667 L4.99703014,6.66666667 C4.45303631,6.66666667 4,7.11123369 4,7.65963491 L4,8.34036509 C4,8.89298757 4.4463856,9.33333333 4.99703014,9.33333333 L6.66666667,9.33333333 L6.66666667,11.0029699 C6.66666667,11.5469637 7.11123369,12 7.65963491,12 L8.34036509,12 C8.89298757,12 9.33333333,11.5536144 9.33333333,11.0029699 L9.33333333,9.33333333 L11.0029699,9.33333333 C11.5469637,9.33333333 12,8.88876631 12,8.34036509 L12,7.65963491 C12,7.10701243 11.5536144,6.66666667 11.0029699,6.66666667 L9.33333333,6.66666667 Z"/>
  </g>
</svg>
