<?xml version="1.0" encoding="utf-8"?>
<!-- Generator: Adobe Illustrator 21.0.2, SVG Export Plug-In . SVG Version: 6.00 Build 0)  -->
<svg version="1.1" id="Слой_1" xmlns="http://www.w3.org/2000/svg" xmlns:xlink="http://www.w3.org/1999/xlink" x="0px" y="0px"
	 viewBox="0 0 32.4 32.4" enable-background="new 0 0 32.4 32.4" xml:space="preserve">
<title>hospital-l</title>
<desc>Created with Sketch.</desc>
<g id="POI-Clear">
	<g id="Artboard-1" transform="translate(-137.000000, -248.000000)">
		<g id="hospital-l" transform="translate(137.000000, 248.000000)">
			<circle id="Oval-1-Copy-39" fill="#FFFFFF" fill-opacity="0.6" cx="16.2" cy="16.2" r="16.2"/>
			<circle id="Oval-1-Copy-38" fill="#C15746" cx="16.2" cy="16.2" r="15"/>
			<path id="Combined-Shape" fill="#FFFFFF" d="M19.2,13.2V8.4c0-0.7-0.5-1.2-1.2-1.2h-3.6c-0.7,0-1.2,0.5-1.2,1.2v4.8H8.4
				c-0.7,0-1.2,0.5-1.2,1.2V18c0,0.7,0.5,1.2,1.2,1.2h4.8V24c0,0.7,0.5,1.2,1.2,1.2H18c0.7,0,1.2-0.5,1.2-1.2v-4.8H24
				c0.7,0,1.2-0.5,1.2-1.2v-3.6c0-0.7-0.5-1.2-1.2-1.2H19.2z"/>
		</g>
	</g>
</g>
</svg>
