<?xml version="1.0" encoding="UTF-8" standalone="no"?>
<svg width="23px" height="23px" viewBox="0 0 23 23" version="1.1" xmlns="http://www.w3.org/2000/svg" xmlns:xlink="http://www.w3.org/1999/xlink">
    <!-- Generator: Sketch 3.8.3 (29802) - http://www.bohemiancoding.com/sketch -->
    <title>hostel-m</title>
    <desc>Created with Sketch.</desc>
    <defs></defs>
    <g id="POI-Clear" stroke="none" stroke-width="1" fill="none" fill-rule="evenodd">
        <g id="hostel-m">
            <ellipse id="Oval-1-Copy-41" fill-opacity="0.6" fill="#FFFFFF" cx="11.5" cy="11.5" rx="11.5" ry="11.5"></ellipse>
            <ellipse id="Oval-1-Copy-40" fill="#5D4037" cx="11.5" cy="11.5" rx="10.5" ry="10.5"></ellipse>
            <path d="M17,7 L17,9 L6,9 L6,5 L5,5 L5,18 L6,18 L6,17 L11.5,17 L17,17 L17,18 L18,18 L18,7 L17,7 Z M6,11 L17,11 L17,15 L6,15 L6,11 Z M8,14 C8.55228475,14 9,13.5522847 9,13 C9,12.4477153 8.55228475,12 8,12 C7.44771525,12 7,12.4477153 7,13 C7,13.5522847 7.44771525,14 8,14 Z M10,13 C10,12.4477153 10.4509752,12.0501084 10.990778,12.1100864 L15.009222,12.5565802 C15.5564136,12.6173793 16,13.1180725 16,13.6635437 L16,14 L10,14 L10,13 Z M8,8 C8.55228475,8 9,7.55228475 9,7 C9,6.44771525 8.55228475,6 8,6 C7.44771525,6 7,6.44771525 7,7 C7,7.55228475 7.44771525,8 8,8 Z M10,7 C10,6.44771525 10.4509752,6.05010835 10.990778,6.11008644 L15.009222,6.55658023 C15.5564136,6.61737929 16,7.11807251 16,7.6635437 L16,8 L10,8 L10,7 Z" id="Combined-Shape" fill="#FFFFFF"></path>
        </g>
    </g>
</svg>