<?xml version="1.0" encoding="UTF-8" standalone="no"?>
<svg width="27px" height="27px" viewBox="0 0 27 27" version="1.1" xmlns="http://www.w3.org/2000/svg" xmlns:xlink="http://www.w3.org/1999/xlink">
    <!-- Generator: Sketch 3.8.3 (29802) - http://www.bohemiancoding.com/sketch -->
    <title>hostel-l</title>
    <desc>Created with Sketch.</desc>
    <defs></defs>
    <g id="POI-Clear" stroke="none" stroke-width="1" fill="none" fill-rule="evenodd">
        <g id="hostel-l">
            <ellipse id="Oval-1-Copy-39" fill-opacity="0.6" fill="#FFFFFF" cx="13.5" cy="13.5" rx="13.5" ry="13.5"></ellipse>
            <ellipse id="Oval-1-Copy-38" fill="#5D4037" cx="13.5" cy="13.5" rx="12.5" ry="12.5"></ellipse>
            <g id="Group-11" transform="translate(5.000000, 6.000000)" fill="#FFFFFF">
                <path d="M16,2 L16,4 L1,4 L1,0 L0,0 L0,15 L1,15 L1,14 L16,14 L16,15 L17,15 L17,2 L16,2 Z M1,6 L16,6 L16,12 L1,12 L1,6 Z M3.5,11 C4.32842712,11 5,10.3284271 5,9.5 C5,8.67157288 4.32842712,8 3.5,8 C2.67157288,8 2,8.67157288 2,9.5 C2,10.3284271 2.67157288,11 3.5,11 Z M3.5,3 C4.32842712,3 5,2.32842712 5,1.5 C5,0.671572875 4.32842712,0 3.5,0 C2.67157288,0 2,0.671572875 2,1.5 C2,2.32842712 2.67157288,3 3.5,3 Z M6,0.998956561 C6,0.447248087 6.4463114,0.0495901555 6.99754465,0.110838294 L14.0024554,0.889161706 C14.553384,0.950376005 15,1.44386482 15,2 L15,3 L6,3 L6,0.998956561 Z M6,8.99895656 C6,8.44724809 6.4463114,8.04959016 6.99754465,8.11083829 L14.0024554,8.88916171 C14.553384,8.95037601 15,9.44386482 15,10 L15,11 L6,11 L6,8.99895656 Z" id="Combined-Shape"></path>
            </g>
        </g>
    </g>
</svg>