<?xml version="1.0" encoding="UTF-8"?>
<svg xmlns:dc="http://purl.org/dc/elements/1.1/" xmlns:rdf="http://www.w3.org/1999/02/22-rdf-syntax-ns#" xmlns:svg="http://www.w3.org/2000/svg" xmlns="http://www.w3.org/2000/svg" id="svg10" version="1.1" viewBox="0 0 24 24" height="24px" width="24px">
  <defs id="defs14"/>
  <title id="title2">hostel-m</title>
  <g fill-rule="evenodd" fill="none" stroke-width="1" stroke="none" id="Page-1">
    <g fill-rule="nonzero" id="hostel-m">
      <circle r="12" cy="12" cx="12" opacity="0.6" fill="#FFFFFF"/>
      <circle r="11" cy="12" cx="12" fill="#664E42"/>
      <path fill="#FFFFFF" id="Shape" d="M 17.6,6 V 8.8 H 17.114667 C 16.998233,7.9974208 16.310979,7.4015458 15.5,7.4 H 10.6 V 8.8 H 10.0036 C 10.087571,8.6587458 10.132371,8.4976583 10.133333,8.3333333 10.133333,7.8178708 9.7154625,7.4 9.2,7.4 H 7.8 C 7.2845375,7.4 6.8666667,7.8178708 6.8666667,8.3333333 6.8676292,8.4976583 6.9124292,8.6587458 6.9964,8.8 H 6.4 V 6 H 5 v 12.133333 h 1.4 v -1.4 h 11.2 v 1.4 H 19 V 6 Z m -2.1,7 h -4.9 v 1.4 h -0.5964 c 0.08397,-0.141254 0.128771,-0.302342 0.129733,-0.466667 C 10.133333,13.417871 9.7154625,13 9.2,13 H 7.8 C 7.2845375,13 6.8666667,13.417871 6.8666667,13.933333 6.8676292,14.097658 6.9124292,14.258746 6.9964,14.4 H 6.4 V 11.133333 H 17.6 V 14.4 H 17.114667 C 16.998204,13.597421 16.310979,13.001546 15.5,13 Z"/>
    </g>
  </g>
</svg>