<svg version="1.1" viewBox="0 0 24 24" xmlns="http://www.w3.org/2000/svg">
 <title>hostel-m</title>
 <g fill="none" fill-rule="evenodd">
  <g id="hostel-m" fill-rule="nonzero">
   <circle cx="12" cy="12" r="12" fill="#fff" opacity=".6"/>
   <circle cx="12" cy="12" r="11" fill="#664E42"/>
   <path id="Shape" d="m17.6 6v2.8h-0.48533c-0.11643-0.80258-0.80369-1.3985-1.6147-1.4h-4.9v1.4h-0.5964c0.083971-0.14125 0.12877-0.30234 0.12973-0.46667 0-0.51546-0.41787-0.93333-0.93333-0.93333h-1.4c-0.51546 0-0.93333 0.41787-0.93333 0.93333 9.625e-4 0.16432 0.045762 0.32541 0.12973 0.46667h-0.5964v-2.8h-1.4v12.133h1.4v-1.4h11.2v1.4h1.4v-12.133zm-2.1 7h-4.9v1.4h-0.5964c0.08397-0.14125 0.12877-0.30234 0.12973-0.46667 0-0.51546-0.41787-0.93333-0.93333-0.93333h-1.4c-0.51546 0-0.93333 0.41787-0.93333 0.93333 9.625e-4 0.16432 0.045762 0.32541 0.12973 0.46667h-0.5964v-3.2667h11.2v3.2667h-0.48533c-0.11646-0.80258-0.80369-1.3985-1.6147-1.4z" fill="#fff"/>
  </g>
 </g>
</svg>
