<?xml version="1.0" encoding="UTF-8" standalone="no"?>
<svg width="17px" height="17px" viewBox="0 0 17 17" version="1.1" xmlns="http://www.w3.org/2000/svg" xmlns:xlink="http://www.w3.org/1999/xlink">
    <!-- Generator: Sketch 3.8.3 (29802) - http://www.bohemiancoding.com/sketch -->
    <title>hostel-s</title>
    <desc>Created with Sketch.</desc>
    <defs></defs>
    <g id="POI-Clear" stroke="none" stroke-width="1" fill="none" fill-rule="evenodd">
        <g id="hostel-s">
            <circle id="Oval-1-Copy-43" fill-opacity="0.6" fill="#FFFFFF" cx="8.5" cy="8.5" r="8.5"></circle>
            <path d="M8.5,16 C12.6421356,16 16,12.6421356 16,8.5 C16,4.35786438 12.6421356,1 8.5,1 C4.35786438,1 1,4.35786438 1,8.5 C1,12.6421356 4.35786438,16 8.5,16 Z" id="Oval-1-Copy-42" fill="#5D4037"></path>
            <path d="M12,5 L12,6 L5,6 L5,4 L4,4 L4,13 L5,13 L5,12 L10.5,12 L12,12 L12,13 L13,13 L13,5 L12,5 Z M5,7 L12,7 L12,11 L5,11 L5,7 Z M6.75,10 C7.16421356,10 7.5,9.66421356 7.5,9.25 C7.5,8.83578644 7.16421356,8.5 6.75,8.5 C6.33578644,8.5 6,8.83578644 6,9.25 C6,9.66421356 6.33578644,10 6.75,10 Z M8,9.17412429 C8,8.75883947 8.32105255,8.47846923 8.74157321,8.55219189 L10.2584268,8.81811577 C10.6679864,8.88991682 11,9.2809435 11,9.69009146 L11,10 L8,10 L8,9.17412429 Z M6.75,5 C7.16421356,5 7.5,4.66421356 7.5,4.25 C7.5,3.83578644 7.16421356,3.5 6.75,3.5 C6.33578644,3.5 6,3.83578644 6,4.25 C6,4.66421356 6.33578644,5 6.75,5 Z M8,4.17412429 C8,3.75883947 8.32105255,3.47846923 8.74157321,3.55219189 L10.2584268,3.81811577 C10.6679864,3.88991682 11,4.2809435 11,4.69009146 L11,5 L8,5 L8,4.17412429 Z" id="Combined-Shape" fill="#FFFFFF"></path>
        </g>
    </g>
</svg>