<?xml version="1.0" encoding="UTF-8"?>
<svg width="16px" height="16px" viewBox="0 0 16 16" version="1.1" xmlns="http://www.w3.org/2000/svg" xmlns:xlink="http://www.w3.org/1999/xlink">
    <title>hotel-s</title>
    <g id="Page-1" stroke="none" stroke-width="1" fill="none" fill-rule="evenodd">
        <g id="hotel-s" fill-rule="nonzero">
            <circle id="Oval" fill="#FFFFFF" opacity="0.6" cx="8" cy="8" r="8"></circle>
            <circle id="Oval" fill="#664E42" cx="8" cy="8" r="7.33333333"></circle>
            <path d="M5.87878788,8.06060606 C6.5830303,8.06060606 7.15151515,7.49212121 7.15151515,6.78787879 C7.15151515,6.08363636 6.5830303,5.51515152 5.87878788,5.51515152 C5.17454545,5.51515152 4.60606061,6.08363636 4.60606061,6.78787879 C4.60606061,7.49212121 5.17454545,8.06060606 5.87878788,8.06060606 Z M10.969697,5.51515152 L8.42424242,5.51515152 C7.95757576,5.51515152 7.57575758,5.8969697 7.57575758,6.36363636 L7.57575758,8.48484848 L4.18181818,8.48484848 L4.18181818,5.09090909 C4.18181818,4.85757576 3.99090909,4.66666667 3.75757576,4.66666667 C3.52424242,4.66666667 3.33333333,4.85757576 3.33333333,5.09090909 L3.33333333,10.6060606 C3.33333333,10.8393939 3.52424242,11.030303 3.75757576,11.030303 C3.99090909,11.030303 4.18181818,10.8393939 4.18181818,10.6060606 L4.18181818,9.75757576 L11.8181818,9.75757576 L11.8181818,10.6060606 C11.8181818,10.8393939 12.0090909,11.030303 12.2424242,11.030303 C12.4757576,11.030303 12.6666667,10.8393939 12.6666667,10.6060606 L12.6666667,7.21212121 C12.6666667,6.27454545 11.9072727,5.51515152 10.969697,5.51515152 Z" id="Shape" fill="#FFFFFF"></path>
        </g>
    </g>
</svg>