<?xml version="1.0" encoding="utf-8"?>
<!-- Generator: Adobe Illustrator 16.0.4, SVG Export Plug-In . SVG Version: 6.00 Build 0)  -->
<!DOCTYPE svg PUBLIC "-//W3C//DTD SVG 1.1//EN" "http://www.w3.org/Graphics/SVG/1.1/DTD/svg11.dtd">
<svg version="1.1" xmlns="http://www.w3.org/2000/svg" xmlns:xlink="http://www.w3.org/1999/xlink" x="0px" y="0px" width="27px"
	 height="27px" viewBox="0 0 27 27" enable-background="new 0 0 27 27" xml:space="preserve">
<g id="Layer_2">
	<path opacity="0.8" fill="#FFFFFF" d="M13.5,27C6.056,27,0,20.943,0,13.5C0,6.056,6.056,0,13.5,0S27,6.056,27,13.5
		C27,20.943,20.944,27,13.5,27z"/>
	<path fill="#7F7D54" d="M26,13.5C26,20.403,20.403,26,13.5,26S1,20.403,1,13.5S6.597,1,13.5,1S26,6.597,26,13.5z"/>
</g>
<g id="Layer_1">
	<path fill="#FFFFFF" d="M8,16c0,0.553,0.447,1,1,1v5h2v-5h2v3h2v-3h2v5h2v-5c0.553,0,1-0.447,1-1v-5H8V16z M20,6H8
		C7.447,6,7,6.448,7,7v1h14V7C21,6.448,20.553,6,20,6z"/>
</g>
</svg>
