<svg version="1.1" viewBox="0 0 24 24" xmlns="http://www.w3.org/2000/svg">
 <title>ice_cream-m</title>
 <g fill="none" fill-rule="evenodd">
  <g id="ice_cream-m" fill-rule="nonzero">
   <circle id="Oval" cx="12" cy="12" r="12" fill="#fff" opacity=".6"/>
   <circle id="Oval" cx="12" cy="12" r="11" fill="#8C5F93"/>
   <path id="Shape" d="m16.339 8.5227c-0.39664-2.0168-2.1781-3.5227-4.2891-3.5227-2.1109 0-3.8924 1.5059-4.2891 3.5227-1.0353 0.38319-1.7613 1.3781-1.7613 2.5277 0 1.4857 1.2034 2.6891 2.6891 2.6891 0.080672 0 0.15462-0.013445 0.22857-0.013445l2.5748 4.9143c0.25546 0.48403 0.9479 0.47731 1.1966-0.0067227l2.5076-4.9143c0.073949 0.0067227 0.14118 0.020168 0.21513 0.020168 1.4857 0 2.6891-1.2034 2.6891-2.6891 0-1.1496-0.72605-2.1445-1.7613-2.5277zm-4.2555 8.3294-1.8353-3.5025c0.55798 0.24874 1.1697 0.38992 1.8017 0.38992 0.63865 0 1.2639-0.14118 1.8286-0.40336l-1.795 3.516z" fill="#fff"/>
  </g>
 </g>
</svg>
