<svg width="24" height="24" viewBox="0 0 24 24">
  <g fill="none" fill-rule="evenodd">
    <circle cx="12" cy="12" r="12" fill="#FFF" opacity=".6"/>
    <circle cx="12" cy="12" r="11" fill="#8C5F93"/>
    <path fill="#FFF" fill-rule="nonzero" d="M11.9860574,6 C10.7334559,6 9.70674103,6.83842128 9.48267714,7.95 C8.33926533,8.30966976 7.5,9.31764168 7.5,10.5 C7.5,10.7593321 7.54519934,11.0115618 7.62016225,11.25 C7.56496272,11.3853516 7.5480649,11.5425 7.62016225,11.7 L8.40121688,13.44375 C8.46530341,13.68375 8.72565496,13.8 8.98200109,13.8 L15.1303029,13.8 C15.3866491,13.8 15.5829141,13.6275 15.7110871,13.3875 L16.4721147,11.64375 C16.544869,11.4053484 16.4696198,11.1678396 16.3118984,11.00625 C16.4080269,10.7540293 16.4721147,10.4832085 16.4721147,10.2 C16.4721147,9.05443764 15.6157629,8.11428462 14.4694105,7.875 C14.2138283,6.80174604 13.209643,6 11.9860574,6 Z M11.9860574,7.2 C12.5509404,7.2 12.981957,7.46542536 13.1676528,7.89375 C12.8022353,7.9945536 12.4641839,8.16635088 12.1863278,8.4 C11.8050539,8.11089828 11.3374215,7.91497704 10.844516,7.8375 C11.043911,7.44600384 11.4492551,7.2 11.9860574,7.2 Z M10.383894,9 C11.1155488,9 11.7582304,9.4593024 11.9460033,10.1625 L13.1876799,9.88125 C13.1396803,9.7014951 13.069669,9.53772486 12.9874094,9.375 C13.2156677,9.14781834 13.5446335,9 13.9086534,9 C14.6714087,9 15.190384,9.48588234 15.190384,10.2 C15.190384,10.428053 15.1270595,10.6268909 15.0301677,10.8 L8.8418118,10.85625 C8.81027905,10.7422634 8.78173067,10.6208069 8.78173067,10.5 C8.78173067,9.6968421 9.52603392,9 10.383894,9 Z M9.54275826,14.4 L11.0247594,17.64375 C11.1529324,17.88375 11.3491974,18 11.6055436,18 L12.30649,18 C12.5628362,18 12.8231877,17.88375 12.8872742,17.64375 L14.3492483,14.4 L9.54275826,14.4 Z"/>
  </g>
</svg>
