<?xml version="1.0" encoding="UTF-8"?>
<svg version="1.1" viewBox="0 0 24 24" xmlns="http://www.w3.org/2000/svg">
 <circle cx="12" cy="12" r="12" fill="#fff" opacity=".6"/>
 <circle cx="12" cy="12" r="11" fill="#bb9342"/>
 <path d="m12.049 5.3147c-1.902 0-3.5057 1.3566-3.8631 3.1738-0.93283 0.34526-1.5879 1.2414-1.5879 2.2772 0 1.3386 1.0851 2.4218 2.4238 2.4218 0.60736 0.0071 1.0136-0.18667 1.4042-0.3496 0.50275 0.22412 1.0536 0.3496 1.623 0.3496 0.57544 0 1.1396-0.12704 1.6484-0.36327 0.32914 0.16064 0.82873 0.36216 1.3808 0.36327 1.3386 0 2.4238-1.0831 2.4238-2.4218 0-1.0358-0.65506-1.932-1.5879-2.2772-0.35738-1.8172-1.9631-3.1738-3.8651-3.1738zm1.707 8.7282c-0.52703 0.30792-1.109 0.47264-1.705 0.47264-0.58984 0-1.1609-0.16489-1.6816-0.45702-0.37309 0.19579-0.78848 0.34937-1.3437 0.36522l2.3906 4.7831c0.11234 0.22468 0.33902 0.36522 0.59177 0.36522 0.25276 0 0.47944-0.14054 0.59178-0.36522l2.4257-4.8514c-0.48744-0.03354-0.98887-0.14016-1.2695-0.31249z" fill="#fff"/>
</svg>
