<svg height="24" viewBox="0 0 24 24" width="24"><g fill="none" fill-rule="evenodd"><circle cx="12" cy="12" fill="#fff" opacity=".6" r="12"/><circle cx="12" cy="12" fill="#717065" r="11"/><path d="m10.0508302 10.6363636v-.4010695c.3219256-.1604281.5478355-.2272724.8302271-.29679143.2823915-.06951906.5817221-.13101577.8980006-.18449198.3162786-.0534762.6297285-.09893029.9403592-.13636363.3106308-.03743334.5845465-.05614973.8217554-.05614973l.3049813.19251336-1.5249068 6.99465241h1.1860387v.5454545c-.1468436.0962572-.3190999.1871654-.516774.2727273s-.4066407.1604275-.6269061.224599c-.2202655.0641714-.4433514.114973-.6692647.1524064-.2259132.0374333-.4405276.0561497-.6438495.0561497-.4292352 0-.6410249-.0775393-.804812-.2326203s-.2456794-.3235285-.2456794-.5053476c0-.2139048.0169432-.4224589.0508302-.6256685.033887-.2032095.079069-.4278062.1355473-.6737968l1.0674348-5.0534759zm2.6414775-2.22994649c-.6372516 0-1.1538462-.53869482-1.1538462-1.20320855 0-.66451374.5165946-1.20320856 1.1538462-1.20320856s1.1538461.53869482 1.1538461 1.20320856c0 .66451373-.5165945 1.20320855-1.1538461 1.20320855z" fill="#fff"/></g></svg>