<svg width="16" height="16" viewBox="0 0 16 16">
  <g fill="none" fill-rule="evenodd">
    <circle cx="8" cy="8" r="8" fill="#FFF" opacity=".6"/>
    <circle cx="8" cy="8" r="7" fill="#717065"/>
    <path fill="#FFF" d="M7.03524229,7.45923109 L7.03524229,7.1634981 C7.25844405,7.04520466 7.41507489,6.99591632 7.61086637,6.94465568 C7.80665786,6.89339504 8.01419371,6.84804977 8.23348018,6.8086185 C8.45276664,6.76918724 8.67009192,6.73567117 8.88546255,6.70806929 C9.10083319,6.6804674 9.29074808,6.66666667 9.45521292,6.66666667 L9.66666667,6.8086185 L8.60939794,11.0773131 L9.43171806,11.0773131 L9.43171806,11.4795099 C9.32990649,11.5504862 9.21047548,11.6175183 9.07342144,11.6806084 C8.9363674,11.7436984 8.79148388,11.7989013 8.63876652,11.8462188 C8.48604916,11.8935364 8.33137621,11.9309955 8.17474302,11.9585974 C8.01810984,11.9861993 7.86931054,12 7.72834067,12 C7.43073762,12 7.2838968,11.9428255 7.17033774,11.8284749 C7.05677868,11.7141242 7,11.5899176 7,11.4558513 C7,11.2981262 7.01174731,11.1443466 7.03524229,10.9945078 C7.05873727,10.844669 7.09006344,10.6790602 7.12922173,10.4976764 L7.86930984,7.66032953 L7.03524229,7.45923109 Z M8.77777778,5.77777778 C8.286858,5.77777778 7.88888889,5.37980867 7.88888889,4.88888889 C7.88888889,4.39796911 8.286858,4 8.77777778,4 C9.26869756,4 9.66666667,4.39796911 9.66666667,4.88888889 C9.66666667,5.37980867 9.26869756,5.77777778 8.77777778,5.77777778 Z"/>
  </g>
</svg>
