<?xml version="1.0" encoding="UTF-8" standalone="no"?>
<svg
   version="1.1"
   viewBox="0 0 24 24"
   id="svg1"
   width="14"
   height="14"
   xmlns="http://www.w3.org/2000/svg"
   xmlns:svg="http://www.w3.org/2000/svg">
  <defs
     id="defs1" />
  <title
     id="title1">information-m</title>
  <path
     d="m 11.999924,9.0000033 c -0.172068,0 -0.340249,0.01536 -0.502771,0.048821 -0.162538,0.033567 -0.318266,0.083015 -0.46786,0.1465282 -0.149587,0.063483 -0.292787,0.1401326 -0.425966,0.2302222 -0.133225,0.090089 -0.256706,0.1936836 -0.370098,0.3069915 -0.113414,0.113306 -0.217063,0.2366902 -0.3072692,0.3697708 -0.090167,0.133099 -0.1669059,0.276156 -0.2304387,0.425581 C 9.6321011,10.67738 9.5823689,10.832975 9.54886,10.995374 9.51526,11.157753 9.5,11.325782 9.5,11.497703 v 10.004675 c 0,0.171877 0.015332,0.339944 0.04886,0.502331 0.033472,0.16238 0.083024,0.317984 0.1466611,0.467436 0.06341,0.149459 0.1402824,0.292486 0.2304387,0.425576 0.09016,0.133102 0.1938552,0.256474 0.3072692,0.369774 0.113404,0.113309 0.236886,0.21687 0.370098,0.306982 0.133218,0.09012 0.276406,0.166758 0.425966,0.230232 0.149597,0.06335 0.30533,0.113052 0.46786,0.146494 0.162541,0.03347 0.330721,0.0488 0.502771,0.0488 0.172092,0 0.340273,-0.0153 0.50278,-0.04881 0.162554,-0.03347 0.318282,-0.08294 0.467878,-0.146493 0.149587,-0.06335 0.292775,-0.140156 0.425957,-0.230233 0.133216,-0.09009 0.256712,-0.193674 0.370105,-0.306981 0.113403,-0.113313 0.217048,-0.236684 0.307271,-0.369776 0.09016,-0.133086 0.166904,-0.276116 0.230409,-0.425575 0.06341,-0.149451 0.113178,-0.305061 0.146662,-0.467436 0.03366,-0.162409 0.04901,-0.330434 0.04901,-0.50233 V 11.497687 c 0,-0.171936 -0.01531,-0.339968 -0.04901,-0.502329 -0.03348,-0.162399 -0.08301,-0.317997 -0.146662,-0.467455 C 14.240874,10.378451 14.164068,10.23539 14.073915,10.10232 13.983748,9.9692374 13.880047,9.8458572 13.766644,9.7325622 13.653239,9.6192553 13.529742,9.5157015 13.396539,9.4255777 13.26333,9.3354881 13.120138,9.2588306 12.970582,9.1953547 12.820984,9.1318733 12.665248,9.0822914 12.502704,9.0488261 12.340176,9.0152503 12.171998,9 11.999924,9 Z"
     style="fill:#717065;stroke-width:3.5738"
     id="path3" />
  <path
     d="M 9.5000027,0 V 5 H 14.500003 V 0 Z"
     style="fill:#717065;stroke-width:3.57302"
     id="path2" />
</svg>
