<svg width="24px" height="24px" version="1.1" viewBox="0 0 24 24" xmlns="http://www.w3.org/2000/svg">
    <title>jewelry-m</title>
    <g fill="none" fill-rule="evenodd">
        <g id="jewelry-m" fill-rule="nonzero">
            <circle id="Oval" cx="12" cy="12" r="12" fill="#fff" opacity=".6"/>
            <circle cx="12" cy="12" r="11" fill="#8c5f93"/>
            <g id="ring" transform="translate(7,6)" fill="#fff">
                <path d="m9.023896 6.444987c-0.443039-1.075273-1.296987-1.929221-2.37226-2.37226v-1.163636c-6.754e-4 -0.0768312-0.044-0.1468831-0.1124156-0.1818182l0.8991169-1.144312c0.00353-0.00457 0.00519-0.00977 0.00831-0.014545 0.00418-0.00504 0.00805-0.010312 0.011636-0.015792 0.00187-0.00353 0.00249-0.00748 0.00416-0.011221 0.00356-0.0081 0.00662-0.016442 0.00914-0.024935 0.00314-0.00951 0.00558-0.019221 0.00727-0.029091 0.00127-0.0086 0.00205-0.017273 0.00229-0.025974 7.272e-4 -0.0099 7.272e-4 -0.019818 0-0.029714-9.611e-4 -0.00875-0.00257-0.017454-0.00478-0.025974-0.00231-0.00984-0.00538-0.019507-0.00914-0.028883-0.00187-0.00436-0.00229-0.00894-0.00436-0.013091-0.00208-0.00416-0.00519-0.00727-0.00748-0.011429-0.00229-0.00416-0.00374-0.00894-0.00644-0.013091l-0.8311775-1.246753c-0.004935-0.00638961-0.0102078-0.0124935-0.0157922-0.01828571-0.0051428-0.00651948-0.0106234-0.01275325-0.0164156-0.0187013-0.0085974-0.00771429-0.0178441-0.01464935-0.0276363-0.02077922-0.0047792-0.00311688-0.0091429-0.00706494-0.0143377-0.00976624-0.0098182-0.00493506-0.020026-0.00903896-0.0305454-0.01225974-0.0066494-0.00228571-0.0128832-0.0051948-0.0207793-0.00685714-0.0087792-0.00174026-0.0176623-0.00285714-0.0265974-0.00332467-0.0072207-0.00124676-0.0144935-0.002077926-0.0218181-0.00249351h-2.909091c-0.00727 0-0.013922 0.00207792-0.020779 0.0027013-0.00927 5.4545e-4 -0.01852 0.00171428-0.027636 0.00353247-0.00644 0.00166233-0.012468 0.00436363-0.018909 0.00644155-0.010727 0.0033507-0.021143 0.0076104-0.031169 0.01267533-0.00499 0.0027013-0.00914 0.0062338-0.013922 0.0093506-0.00995 0.0060779-0.019351 0.01303896-0.028052 0.02077922-0.00577 0.0057662-0.011117 0.01194805-0.016 0.01849351-0.00579 0.0058182-0.011195 0.012-0.016208 0.0184935l-0.8311691 1.246753c-0.0027 0.00416-0.00395 0.00893-0.00644 0.013091-0.00249 0.00416-0.00561 0.00727-0.00748 0.011429-0.00187 0.00416-0.00249 0.00873-0.00436 0.013091-0.00377 0.00938-0.00683 0.019039-0.00914 0.028883-0.00221 0.00852-0.00382 0.017221-0.00478 0.025974-0.00106 0.00987-0.00143 0.019792-0.00104 0.029714 2.338e-4 0.0087 0.00101 0.017377 0.00229 0.025974 0.00169 0.00987 0.00413 0.019584 0.00727 0.029091 0.00252 0.00849 0.00558 0.016831 0.00914 0.024935 0.00166 0.00374 0.00229 0.00769 0.00416 0.011221 0.00358 0.00548 0.00745 0.010753 0.011636 0.015792 0.00312 0.00478 0.00478 0.00997 0.00831 0.014545l0.8991093 1.144312c-0.0685195 0.0348572-0.1119221 0.1049611-0.1126234 0.1818182v1.163636c-2.228234 0.9180779-3.290338 3.468675-2.37226 5.696935 0.9180779 2.228234 3.468675 3.290338 5.696935 2.37226 2.22826-0.918078 3.290338-3.468701 2.37226-5.696935zm-7.423896 1.714681c-0.2082782-4.508959 7.303153-4.436973 6.74 3.317e-4 -0.5631527 4.437305-6.531722 4.508627-6.74-3.317e-4z"/>
            </g>
        </g>
    </g>
</svg>
