<svg width="16" height="16" viewBox="0 0 16 16">
  <g fill="none" fill-rule="evenodd">
    <circle cx="8" cy="8" r="8" fill="#FFF" opacity=".6"/>
    <circle cx="8" cy="8" r="7" fill="#8C5F93"/>
    <path fill="#FFF" d="M8.62628571,5.27444444 L9.71428571,3.66666667 L9.71428571,3 L6.28571429,3 L6.28571429,3.66666667 L7.37371429,5.27444444 C5.464,5.56888889 4,7.17444444 4,9.11111111 C4,11.2555556 5.79314286,13 8,13 C10.2068571,13 12,11.2555556 12,9.11111111 C12,7.17444444 10.536,5.56888889 8.62628571,5.27444444 L8.62628571,5.27444444 Z M8,12 C6.36114286,12 5.02857143,10.7044444 5.02857143,9.11111111 C5.02857143,7.70666667 6.10514286,6.48222222 7.53371429,6.26222222 L7.98171429,6.19333333 L8.46514286,6.26222222 C9.89371429,6.48222222 10.9702857,7.70777778 10.9702857,9.11111111 C10.9714286,10.7044444 9.63885714,12 8,12 L8,12 Z"/>
  </g>
</svg>
