<svg height="24" viewBox="0 0 24 24" width="24"><g fill="none" fill-rule="evenodd"><circle cx="12" cy="12" fill="#fff" opacity=".6" r="12"/><circle cx="12" cy="12" fill="#8c5f93" r="11"/><path d="m13.0789091 8.315 2.7392727-2.24357143v-1.07142857h-7.63636362v1.07142857l2.61272732 2.26178572c-2.73600005.54857142-4.7945455 2.92392861-4.7945455 5.77392861 0 3.255 2.68690909 5.8928571 6 5.8928571 3.3130909 0 6-2.6378571 6-5.8928571 0-2.8917858-2.1229091-5.29178576-4.9210909-5.7921429zm-1.0789091 9.8528571c-2.28 0-4.13454545-1.8214285-4.13454545-4.0607142 0-2.2392858 1.85454545-4.0607143 4.13454545-4.0607143s4.1345455 1.8214285 4.1345455 4.0607143c0 2.2392857-1.8545455 4.0607142-4.1345455 4.0607142z" fill="#fff"/></g></svg>