<?xml version="1.0" encoding="UTF-8"?>
<svg width="17px" height="17px" viewBox="0 0 17 17" version="1.1" xmlns="http://www.w3.org/2000/svg" xmlns:xlink="http://www.w3.org/1999/xlink">
    <!-- Generator: Sketch 39.1 (31720) - http://www.bohemiancoding.com/sketch -->
    <title>jewish-s</title>
    <desc>Created with Sketch.</desc>
    <defs></defs>
    <g id="POI-Clear" stroke="none" stroke-width="1" fill="none" fill-rule="evenodd">
        <g id="Artboard-1" transform="translate(-387.000000, -1142.000000)">
            <g id="jewish-s" transform="translate(387.000000, 1142.000000)">
                <circle id="Oval-1-Copy-43" fill-opacity="0.6" fill="#FFFFFF" cx="8.5" cy="8.5" r="8.5"></circle>
                <circle id="Oval-1-Copy-42" fill="#7F5933" cx="8.5" cy="8.5" r="7.5"></circle>
                <path d="M11.4796637,8.11139491 L12.9914049,5.54185294 C13.0133142,5.51970172 12.9914049,5.47539927 12.9475863,5.47539927 L10.0336504,5.47539927 C10.0117412,5.47539927 10.0117412,5.47539927 9.98983186,5.45324805 L8.65336504,3.01661342 C8.63145575,2.99446219 8.58763717,2.99446219 8.58763717,3.01661342 L7.16353318,5.45324805 C7.16353318,5.47539927 7.14162389,5.47539927 7.1197146,5.47539927 L4.074323,5.47539927 C4.03050441,5.47539927 4.03050441,5.51970172 4.03050441,5.54185294 L5.52033628,8.24430226 L5.52033628,8.2886047 L4.00859512,10.8581467 C3.98668583,10.8802979 4.00859512,10.9246003 4.05241371,10.9246003 L6.96634955,10.9246003 C6.98825885,10.9246003 6.98825885,10.9246003 7.01016814,10.9467516 L8.34663496,13.3833862 C8.36854425,13.4055374 8.41236283,13.4055374 8.41236283,13.3833862 L9.83646682,10.9467516 C9.83646682,10.9246003 9.85837611,10.9246003 9.8802854,10.9246003 L12.925677,10.9246003 C12.9694956,10.9246003 12.9694956,10.8802979 12.9694956,10.8581467 L11.4796637,8.15569736 L11.4796637,8.11139491 L11.4796637,8.11139491 Z M11.9616682,6.13993599 L11.1948429,7.46900942 C11.1729336,7.49116064 11.1291151,7.49116064 11.1291151,7.46900942 L10.4061084,6.13993599 C10.3841991,6.11778476 10.4061084,6.07348232 10.449927,6.07348232 L11.9616682,6.07348232 C11.9397589,6.07348232 11.9616682,6.11778476 11.9616682,6.13993599 L11.9616682,6.13993599 Z M10.7785664,8.15569736 L9.52973673,10.3043661 C9.52973673,10.3265173 9.50782744,10.3265173 9.48591814,10.3265173 L7.36071681,10.3265173 C7.33880752,10.3265173 7.33880752,10.3265173 7.31689823,10.3043661 L6.22143362,8.2886047 L6.22143362,8.24430226 L7.47026327,6.09563354 C7.47026327,6.07348232 7.49217256,6.07348232 7.51408186,6.07348232 L9.63928319,6.07348232 C9.66119248,6.07348232 9.66119248,6.07348232 9.68310177,6.09563354 L10.7785664,8.11139491 C10.8004757,8.11139491 10.8004757,8.13354614 10.7785664,8.15569736 L10.7785664,8.15569736 Z M8.63145575,4.21277951 L9.28873452,5.4089456 C9.31064381,5.43109682 9.28873452,5.47539927 9.24491593,5.47539927 L7.88653982,5.47539927 C7.84272124,5.47539927 7.82081195,5.43109682 7.84272124,5.4089456 L8.56572788,4.21277951 C8.58763717,4.19062828 8.63145575,4.19062828 8.63145575,4.21277951 L8.63145575,4.21277951 Z M5.06024114,6.07348232 L6.72534734,6.07348232 C6.76916592,6.07348232 6.79107522,6.11778476 6.76916592,6.13993599 L5.91470353,7.60191676 C5.89279424,7.62406799 5.84897566,7.62406799 5.84897566,7.60191676 L5.03833185,6.13993599 C5.01642256,6.11778476 5.03833185,6.07348232 5.06024114,6.07348232 L5.06024114,6.07348232 Z M5.03833185,10.2600636 L5.80515707,8.9309902 C5.82706636,8.90883897 5.87088495,8.90883897 5.87088495,8.9309902 L6.59389159,10.2600636 C6.61580088,10.2822149 6.59389159,10.3265173 6.550073,10.3265173 L5.08215043,10.3265173 C5.06024114,10.3265173 5.03833185,10.2822149 5.03833185,10.2600636 L5.03833185,10.2600636 Z M8.36854425,12.1872201 L7.71126548,10.991054 C7.68935619,10.9689028 7.71126548,10.9246003 7.75508407,10.9246003 L9.11346018,10.9246003 C9.15727876,10.9246003 9.17918805,10.9689028 9.15727876,10.991054 L8.43427212,12.1872201 C8.41236283,12.2093713 8.36854425,12.2093713 8.36854425,12.1872201 L8.36854425,12.1872201 Z M11.1729336,8.79808285 L11.9835774,10.2600636 C12.0054867,10.2822149 11.9835774,10.3265173 11.9397589,10.3265173 L10.2746527,10.3265173 C10.2308341,10.3265173 10.2089248,10.2822149 10.2308341,10.2600636 L11.0852965,8.79808285 C11.1072058,8.77593163 11.1510243,8.77593163 11.1729336,8.79808285 L11.1729336,8.79808285 Z" id="Shape" fill="#FFFFFF"></path>
            </g>
        </g>
    </g>
</svg>