<svg width="16" height="16" viewBox="0 0 16 16">
  <g fill="none" fill-rule="evenodd">
    <circle cx="8" cy="8" r="8" fill="#FFF" opacity=".6"/>
    <circle cx="8" cy="8" r="7" fill="#7F5933"/>
    <path fill="#FFF" d="M10.64859,7.42332268 L11.9923599,5.19968051 C12.0118348,5.18051118 11.9923599,5.14217252 11.95341,5.14217252 L9.36324484,5.14217252 C9.34376991,5.14217252 9.34376991,5.14217252 9.32429499,5.12300319 L8.13632448,3.014377 C8.11684956,2.99520767 8.07789971,2.99520767 8.07789971,3.014377 L6.8120295,5.12300319 C6.8120295,5.14217252 6.79255457,5.14217252 6.77307964,5.14217252 L4.06606489,5.14217252 C4.02711503,5.14217252 4.02711503,5.18051118 4.02711503,5.19968051 L5.35141002,7.53833866 L5.35141002,7.57667732 L4.00764011,9.80031949 C3.98816518,9.81948882 4.00764011,9.85782748 4.04658996,9.85782748 L6.63675516,9.85782748 C6.65623009,9.85782748 6.65623009,9.85782748 6.67570501,9.87699681 L7.86367552,11.985623 C7.88315044,12.0047923 7.92210029,12.0047923 7.92210029,11.985623 L9.1879705,9.87699681 C9.1879705,9.85782748 9.20744543,9.85782748 9.22692036,9.85782748 L11.9339351,9.85782748 C11.972885,9.85782748 11.972885,9.81948882 11.972885,9.80031949 L10.64859,7.46166134 L10.64859,7.42332268 L10.64859,7.42332268 Z M11.0770384,5.7172524 L10.3954159,6.86741214 C10.375941,6.88658147 10.3369912,6.88658147 10.3369912,6.86741214 L9.69431859,5.7172524 C9.67484366,5.69808307 9.69431859,5.65974441 9.73326844,5.65974441 L11.0770384,5.65974441 C11.0575634,5.65974441 11.0770384,5.69808307 11.0770384,5.7172524 L11.0770384,5.7172524 Z M10.0253923,7.46166134 L8.91532154,9.32108626 C8.91532154,9.34025559 8.89584661,9.34025559 8.87637168,9.34025559 L6.98730383,9.34025559 C6.96782891,9.34025559 6.96782891,9.34025559 6.94835398,9.32108626 L5.97460766,7.57667732 L5.97460766,7.53833866 L7.08467846,5.67891374 C7.08467846,5.65974441 7.10415339,5.65974441 7.12362832,5.65974441 L9.01269617,5.65974441 C9.03217109,5.65974441 9.03217109,5.65974441 9.05164602,5.67891374 L10.0253923,7.42332268 C10.0448673,7.42332268 10.0448673,7.44249201 10.0253923,7.46166134 L10.0253923,7.46166134 Z M8.11684956,4.04952077 L8.70109735,5.08466454 C8.72057227,5.10383387 8.70109735,5.14217252 8.66214749,5.14217252 L7.45470206,5.14217252 C7.41575221,5.14217252 7.39627728,5.10383387 7.41575221,5.08466454 L8.05842478,4.04952077 C8.07789971,4.03035144 8.11684956,4.03035144 8.11684956,4.04952077 L8.11684956,4.04952077 Z M4.94243657,5.65974441 L6.42253097,5.65974441 C6.46148082,5.65974441 6.48095575,5.69808307 6.46148082,5.7172524 L5.7019587,6.98242812 C5.68248377,7.00159744 5.64353392,7.00159744 5.64353392,6.98242812 L4.92296164,5.7172524 C4.90348672,5.69808307 4.92296164,5.65974441 4.94243657,5.65974441 L4.94243657,5.65974441 Z M4.92296164,9.2827476 L5.60458406,8.13258786 C5.62405899,8.11341853 5.66300884,8.11341853 5.66300884,8.13258786 L6.30568141,9.2827476 C6.32515634,9.30191693 6.30568141,9.34025559 6.26673156,9.34025559 L4.9619115,9.34025559 C4.94243657,9.34025559 4.92296164,9.30191693 4.92296164,9.2827476 L4.92296164,9.2827476 Z M7.88315044,10.9504792 L7.29890265,9.91533546 C7.27942773,9.89616613 7.29890265,9.85782748 7.33785251,9.85782748 L8.54529794,9.85782748 C8.58424779,9.85782748 8.60372272,9.89616613 8.58424779,9.91533546 L7.94157522,10.9504792 C7.92210029,10.9696486 7.88315044,10.9696486 7.88315044,10.9504792 L7.88315044,10.9504792 Z M10.375941,8.01757188 L11.0965133,9.2827476 C11.1159882,9.30191693 11.0965133,9.34025559 11.0575634,9.34025559 L9.57746903,9.34025559 C9.53851918,9.34025559 9.51904425,9.30191693 9.53851918,9.2827476 L10.2980413,8.01757188 C10.3175162,7.99840256 10.3564661,7.99840256 10.375941,8.01757188 L10.375941,8.01757188 Z"/>
  </g>
</svg>
