<svg version="1.1" viewBox="0 0 24 24" xmlns="http://www.w3.org/2000/svg">
 <title>kindergarten-m</title>
 <g fill="none" fill-rule="evenodd">
  <g id="kindergarten-m" fill-rule="nonzero">
   <circle id="Oval" cx="12" cy="12" r="12" fill="#fff" opacity=".6"/>
   <circle cx="12" cy="12" r="11" fill="#717065"/>
   <g id="rocking-horse" transform="translate(5 5)" fill="#fff">
    <path id="Shape" d="m13.8626 3.04888-1.2195-1.80504.188399-.734152c.02507-.0978633.0081-.20177-.04692-.286562-.05502-.084793-.14298-.142652-.242621-.159578-.971498-.165211-1.8013-.0080664-2.46624.468918-1.24584.89373-1.53759 2.66831-1.64743 3.35502h-3.62742c-.219953 0-.443488.033496-.662949.09893-.186566-.601235-.742137-1.03863-1.39683-1.03863h-.451774c-.817058 0-1.4697.666777-1.4697 1.48386v3.30701c0 .138906.0735273.265508.19868.325691.049848.024008.100324.035738.153562.035738.080527 0 .15884-.026879.224109-.079051l1.04696-.952792c.261488 1.29968.659777 2.56479 1.02137 3.56792-.681543-.248774-1.24972-.573508-1.63775-.941746-.364574-.345707-.933051-.389512-1.35166-.104262-.273246.18632-.445102.482289-.471434.812055-.0260586.326074.0946094.641511.330914.865238.605117.573727 1.39918 1.04382 2.36012 1.39727 1.20332.44223 2.60879.675992 4.06451.675992 1.45548 0 2.86084-.233762 4.06421-.675992.960586-.353145 1.75459-.823184 2.3599-1.39705.236524-.223891.357192-.539356.331133-.86543-.02636-.329766-.19816-.625734-.471324-.812-.181289-.123648-.393203-.189-.612828-.189-.276719 0-.539028.104098-.738828.293262-.384235.36441-.944618.686519-1.61645.934308.55073-1.37189 1.10909-2.78819 1.10909-4.17968 0-1.58561.365039-1.96465.521965-2.05406.224082-.127613.540832.021383.71009.121762.297582.176094.673695.141395.935949-.08657l.371793-.323723c.306004-.266109.36586-.720644.138906-1.05766zm-7.13992 5.32314h.088867c.866004 0 .838934.809266.838934.875547v1.88962c-.578266.04613-1.19271.0458-1.77097-.00082v-1.8888c0-.03675-.024144-.875547.843172-.875547z"/>
    <circle cx="11.372" cy="2.2748" r=".8" fill="#717065"/>
   </g>
  </g>
 </g>
</svg>
