<svg width="28" height="28" viewBox="0 0 28 28">
  <g fill="none" fill-rule="evenodd">
    <circle cx="14" cy="14" r="14" fill="#FFF" opacity=".6"/>
    <circle cx="14" cy="14" r="13" fill="#717065"/>
    <path fill="#FFF" d="M20.5084499,14.4484734 C20.4502733,14.4323063 20.3914906,14.4232528 20.3308899,14.4232528 C20.0315225,14.4232528 19.7660914,14.6392443 19.6867045,14.9477112 C19.5091445,15.6409534 19.2237152,16.2818144 18.8546569,16.8496004 C18.4795386,15.1190817 17.3652198,10.6373834 17.3652198,10.5080471 C17.3652198,10.1717729 17.6209548,9.89693346 17.9366844,9.89693346 C18.0821261,9.89693346 18.2136296,9.95578144 18.3154388,10.0495502 L18.8449608,10.8962539 C18.945558,11.0818514 19.1352382,11.2060141 19.3527947,11.2060141 C19.6782204,11.2060141 19.9460755,10.9227678 19.9460755,10.5729133 L19.9430454,8.39877131 C19.9254712,8.39877131 19.8872928,8.39489122 19.8872928,8.39489122 C19.6970066,8.36643725 19.5497469,8.19118666 19.5497469,7.98101529 C19.5497469,7.89177329 19.5733812,7.81029147 19.6170137,7.74303663 L20.4702715,7.36408148 L17.6329469,7 C15.8731027,7 14.4477743,8.52164072 14.4477743,10.3989561 C14.4477743,10.6084808 14.4641365,11.2215345 14.5011029,11.421359 L8.99492368,11.421359 C8.74888485,11.421359 8.54829654,11.6328237 8.54829654,11.8960229 C8.54829654,12.1585755 8.74888485,12.3706869 8.99492368,12.3706869 L10.2469341,12.3706869 L9.20157205,16.9317289 C8.80645551,16.3432491 8.49920998,15.6765209 8.31255984,14.9490046 C8.23317292,14.6405377 7.96895389,14.4245462 7.66898044,14.4245462 C7.60898575,14.4245462 7.54899106,14.4335997 7.49202641,14.4497667 C7.31992043,14.5002079 7.17629678,14.6191972 7.08781977,14.7847476 C6.99934275,14.9502979 6.97692049,15.1423622 7.02418904,15.325373 C7.88229489,18.6674211 10.7505258,21 13.9999352,21 C17.2499505,21 20.1175755,18.6661278 20.9756813,15.325373 C21.0235559,15.1410689 20.9999216,14.9490046 20.9120506,14.7834542 C20.8235736,14.6179038 20.6799499,14.4995612 20.5084499,14.4484734 Z M13.9999352,19.5727747 C12.6000591,19.5727747 11.289872,19.0386161 10.2596602,18.1352025 C10.6020541,16.262414 12.1431298,14.8481223 13.9999352,14.8481223 C15.8567405,14.8481223 17.3978162,16.2630606 17.7396041,18.1358492 C16.7106043,19.0386161 15.4004173,19.5727747 13.9999352,19.5727747 L13.9999352,19.5727747 Z"/>
  </g>
</svg>
