<?xml version="1.0" encoding="utf-8"?>
<!-- Generator: Adobe Illustrator 16.0.4, SVG Export Plug-In . SVG Version: 6.00 Build 0)  -->
<!DOCTYPE svg PUBLIC "-//W3C//DTD SVG 1.1//EN" "http://www.w3.org/Graphics/SVG/1.1/DTD/svg11.dtd">
<svg version="1.1" xmlns="http://www.w3.org/2000/svg" xmlns:xlink="http://www.w3.org/1999/xlink" x="0px" y="0px" width="23px"
	 height="23px" viewBox="0 0 23 23" enable-background="new 0 0 23 23" xml:space="preserve">
<g id="Layer_2">
	<path fill="#FFFFFF" d="M11.5,23C5.159,23,0,17.841,0,11.5S5.159,0,11.5,0S23,5.159,23,11.5S17.841,23,11.5,23z"/>
	<path fill="#7F7D54" d="M22,11.5C22,17.299,17.299,22,11.5,22S1,17.299,1,11.5S5.701,1,11.5,1S22,5.701,22,11.5z"/>
</g>
<g id="Layer_1">
	<path fill="#FFFFFF" d="M16,5H8C7.45,5,7,5.45,7,6v11c0,0.55,0.45,1,1,1h8c0.55,0,1-0.45,1-1V6C17,5.45,16.55,5,16,5z M8,7h3v1H8V7
		z M12,16.2c-1.765,0-3.2-1.436-3.2-3.2s1.436-3.2,3.2-3.2s3.2,1.436,3.2,3.2S13.765,16.2,12,16.2z M12,14.8
		c0.992,0,1.8-0.807,1.8-1.8h-3.6C10.2,13.993,11.008,14.8,12,14.8z"/>
</g>
</svg>
