<svg version="1.1" viewBox="0 0 24 24" xmlns="http://www.w3.org/2000/svg">
 <title>laundry-m</title>
 <g fill="none" fill-rule="evenodd">
  <g id="laundry-m" fill-rule="nonzero">
   <circle id="Oval" cx="12" cy="12" r="12" fill="#fff" opacity=".6"/>
   <circle id="Oval" cx="12" cy="12" r="11" fill="#717065"/>
   <path id="Shape" d="m9.948 15.052c0.91 0.91 2.394 0.91 3.304 0s0.91-2.394 0-3.304l-3.304 3.304zm5.852-10.045-8.4-7e-3c-0.777 0-1.4 0.623-1.4 1.4v11.2c0 0.777 0.623 1.4 1.4 1.4h8.4c0.777 0 1.4-0.623 1.4-1.4v-11.2c0-0.777-0.623-1.393-1.4-1.393zm-4.9 2.093c0.385 0 0.7 0.315 0.7 0.7s-0.315 0.7-0.7 0.7-0.7-0.315-0.7-0.7 0.315-0.7 0.7-0.7zm-2.1 0c0.385 0 0.7 0.315 0.7 0.7s-0.315 0.7-0.7 0.7-0.7-0.315-0.7-0.7 0.315-0.7 0.7-0.7zm2.8 9.8c-1.932 0-3.5-1.568-3.5-3.5s1.568-3.5 3.5-3.5 3.5 1.568 3.5 3.5-1.568 3.5-3.5 3.5z" fill="#fff"/>
  </g>
 </g>
</svg>
