<svg width="28" height="28" viewBox="0 0 28 28">
  <g fill="none" fill-rule="evenodd">
    <circle cx="14" cy="14" r="14" fill="#FFF" opacity=".6"/>
    <circle cx="14" cy="14" r="13" fill="#717065"/>
    <path fill="#FFF" fill-rule="nonzero" d="M13.9572726,6 C13.7781861,6 13.5907008,6.060025 13.4542207,6.196875 L10.5015244,9.171875 C10.2278641,9.444875 10.2278641,9.88255 10.5015244,10.15625 C10.7751847,10.42995 11.2127961,10.42995 11.4857565,10.15625 L14.4603246,7.203125 C14.7339848,6.929425 14.7339848,6.469875 14.4603246,6.196875 C14.3234944,6.060025 14.1363591,6 13.9572726,6 Z M14.9415047,7.684375 L11.9669366,10.659375 C11.9669366,10.659375 11.944015,11.218675 12.5137322,12.059375 L7.4175972,17.15625 C6.93326752,17.64065 6.85435398,18.3648 7.26449443,18.775 C7.67463488,19.1852 8.39867974,19.12815 8.88300942,18.64375 L14.0010163,13.546875 C14.8737895,14.156575 15.4445567,14.115625 15.4445567,14.115625 L18.4191247,11.1625 C18.4191247,11.1632 18.4714422,10.23045 17.1724308,8.93125 C15.8734194,7.63205 14.9415047,7.684375 14.9415047,7.684375 Z M19.4033568,11.446875 C19.2242703,11.446875 19.037135,11.5069 18.9003049,11.64375 L15.9257368,14.61875 C15.6520765,14.89175 15.6520765,15.329425 15.9257368,15.603125 C16.1986972,15.876125 16.6588803,15.876125 16.9318407,15.603125 L19.884537,12.65 C20.1581972,12.377 20.1581972,11.91745 19.884537,11.64375 C19.7480568,11.5069 19.5824433,11.446875 19.4033568,11.446875 Z M14.7009146,18.6 C13.9275269,18.6 13.3011179,19.2265 13.3011179,20 L21,20 C21,19.2265 20.373591,18.6 19.6002033,18.6 L14.7009146,18.6 Z"/>
  </g>
</svg>
