<svg version="1.1" viewBox="0 0 24 24" xmlns="http://www.w3.org/2000/svg">
 <title>lawyer-m</title>
 <g fill="none" fill-rule="evenodd">
  <g id="lawyer-m" fill-rule="nonzero">
   <circle id="Oval" cx="12" cy="12" r="12" fill="#fff" opacity=".6"/>
   <circle id="Oval" cx="12" cy="12" r="11" fill="#717065"/>
   <path id="Shape" d="m5.6868 17.168h6.8678c0.37773 0 0.68678 0.30905 0.68678 0.68678 0 0.37773-0.30905 0.68678-0.68678 0.68678h-6.8678c-0.37773 0-0.68678-0.30905-0.68678-0.68678 0-0.37773 0.30905-0.68678 0.68678-0.68678zm2.2252-8.8801 1.9436-1.9436 8.7427 8.7427c0.53569 0.53569 0.53569 1.4079 0 1.9436s-1.4079 0.53569-1.9436 0l-8.7427-8.7427zm5.8308-3.8872 1.9436 1.9436c0.53569 0.53569 0.53569 1.4079 0 1.9436l-0.97523 0.97523-3.8803-3.8872 0.96836-0.96836c0.53569-0.54256 1.4079-0.54256 1.9436-0.0068678zm-6.7991 4.8555 3.8872 3.8872-0.96836 0.96836c-0.53569 0.53569-1.4079 0.53569-1.9436 0l-1.9436-1.9436c-0.53569-0.53569-0.53569-1.4079 0-1.9436l0.96836-0.96836z" fill="#fff"/>
  </g>
 </g>
</svg>
