<svg width="24" height="24" viewBox="0 0 24 24">
  <g fill="none" fill-rule="evenodd">
    <circle cx="12" cy="12" r="12" fill="#FFF" opacity=".6"/>
    <circle cx="12" cy="12" r="11" fill="#717065"/>
    <path fill="#FFF" fill-rule="nonzero" d="M11.9633765,5 C11.8098738,5 11.6491722,5.05145 11.5321891,5.16875 L9.00130663,7.71875 C8.76674069,7.95275 8.76674069,8.3279 9.00130663,8.5625 C9.23587257,8.7971 9.61096811,8.7971 9.84493414,8.5625 L12.3945639,6.03125 C12.6291299,5.79665 12.6291299,5.40275 12.3945639,5.16875 C12.277281,5.05145 12.1168792,5 11.9633765,5 Z M12.807004,6.44375 L10.2573742,8.99375 C10.2573742,8.99375 10.2377271,9.47315 10.7260562,10.19375 L6.35794046,14.5625 C5.94280074,14.9777 5.87516056,15.5984 6.22670951,15.95 C6.57825847,16.3016 7.19886835,16.2527 7.61400807,15.8375 L12.0008711,11.46875 C12.7489625,11.99135 13.2381914,11.95625 13.2381914,11.95625 L15.7878212,9.425 C15.7878212,9.4256 15.8326647,8.6261 14.7192264,7.5125 C13.6057881,6.3989 12.807004,6.44375 12.807004,6.44375 Z M16.6314487,9.66875 C16.477946,9.66875 16.3175443,9.7202 16.2002613,9.8375 L13.6506315,12.3875 C13.4160656,12.6215 13.4160656,12.99665 13.6506315,13.23125 C13.8845976,13.46525 14.2790403,13.46525 14.5130063,13.23125 L17.0438888,10.7 C17.2784548,10.466 17.2784548,10.0721 17.0438888,9.8375 C16.9269058,9.7202 16.7849514,9.66875 16.6314487,9.66875 Z M12.600784,15.8 C11.9378802,15.8 11.4009582,16.337 11.4009582,17 L18,17 C18,16.337 17.463078,15.8 16.8001742,15.8 L12.600784,15.8 Z"/>
  </g>
</svg>
