<svg width="16" height="16" viewBox="0 0 16 16">
  <g fill="none" fill-rule="evenodd">
    <circle cx="8" cy="8" r="8" fill="#FFF" opacity=".6"/>
    <circle cx="8" cy="8" r="7" fill="#717065"/>
    <path fill="#FFF" fill-rule="nonzero" d="M7.97558436,3 C7.87324921,3 7.76611477,3.0343 7.68812609,3.1125 L6.00087109,4.8125 C5.8444938,4.9685 5.8444938,5.2186 6.00087109,5.375 C6.15724838,5.5314 6.40731207,5.5314 6.56328942,5.375 L8.26304262,3.6875 C8.41941991,3.5311 8.41941991,3.2685 8.26304262,3.1125 C8.18485397,3.0343 8.0779195,3 7.97558436,3 Z M8.53800269,3.9625 L6.8382495,5.6625 C6.8382495,5.6625 6.8251514,5.9821 7.15070413,6.4625 L4.23862697,9.375 C3.96186716,9.6518 3.9167737,10.0656 4.15113967,10.3 C4.38550564,10.5344 4.79924557,10.5018 5.07600538,10.225 L8.00058073,7.3125 C8.49930831,7.6609 8.82546095,7.6375 8.82546095,7.6375 L10.5252141,5.95 C10.5252141,5.9504 10.5551098,5.4174 9.81281758,4.675 C9.07052537,3.9326 8.53800269,3.9625 8.53800269,3.9625 Z M11.0876325,6.1125 C10.9852973,6.1125 10.8783629,6.1468 10.8001742,6.225 L9.10042103,7.925 C8.94404373,8.081 8.94404373,8.3311 9.10042103,8.4875 C9.25639838,8.6435 9.5193602,8.6435 9.67533755,8.4875 L11.3625926,6.8 C11.5189698,6.644 11.5189698,6.3814 11.3625926,6.225 C11.2846039,6.1468 11.1899676,6.1125 11.0876325,6.1125 Z M8.40052265,10.2 C7.95858682,10.2 7.6006388,10.558 7.6006388,11 L12,11 C12,10.558 11.642052,10.2 11.2001161,10.2 L8.40052265,10.2 Z"/>
  </g>
</svg>
