<svg width="24" height="24" viewBox="0 0 24 24">
  <g fill="none" fill-rule="evenodd">
    <circle cx="12" cy="12" r="12" fill="#FFF" opacity=".2"/>
    <path fill="#717065" fill-rule="nonzero" d="M19.3,8.375 L10.7704724,8.375 C10.4811024,7.57652559 9.71220472,7 8.8,7 C7.63976378,7 6.7,7.92298228 6.7,9.0625 L6.7,16.625 L6,16.625 L6,18 L11.6,18 L11.6,16.625 L10.9,16.625 L10.9,9.75 L19.3,9.75 C19.6858268,9.75 20,9.44143701 20,9.0625 C20,8.6808563 19.6858268,8.375 19.3,8.375 Z M8.8,8.375 C9.18582677,8.375 9.5,8.68356299 9.5,9.0625 C9.5,9.44143701 9.18582677,9.75 8.8,9.75 C8.41417323,9.75 8.1,9.44143701 8.1,9.0625 C8.1,8.68356299 8.41417323,8.375 8.8,8.375 Z"/>
  </g>
</svg>
