<svg width="16" height="16" viewBox="0 0 16 16">
  <g fill="none" fill-rule="evenodd">
    <circle cx="8" cy="8" r="8" fill="#FFF" opacity=".2"/>
    <path fill="#717065" fill-rule="nonzero" d="M12.5,5 L6.40748031,5 C6.2007874,4.41929134 5.6515748,4 5,4 C4.17125984,4 3.5,4.67125984 3.5,5.5 L3.5,11 L3,11 L3,12 L7,12 L7,11 L6.5,11 L6.5,6 L12.5,6 C12.7755906,6 13,5.77559055 13,5.5 C13,5.22244094 12.7755906,5 12.5,5 Z M5,5 C5.27559055,5 5.5,5.22440945 5.5,5.5 C5.5,5.77559055 5.27559055,6 5,6 C4.72440945,6 4.5,5.77559055 4.5,5.5 C4.5,5.22440945 4.72440945,5 5,5 Z"/>
  </g>
</svg>
