<?xml version="1.0" encoding="UTF-8" standalone="no"?>
<svg width="23px" height="23px" viewBox="0 0 23 23" version="1.1" xmlns="http://www.w3.org/2000/svg" xmlns:xlink="http://www.w3.org/1999/xlink" xmlns:sketch="http://www.bohemiancoding.com/sketch/ns">
    <!-- Generator: Sketch 3.4.2 (15857) - http://www.bohemiancoding.com/sketch -->
    <title>lift_gate-m</title>
    <desc>Created with Sketch.</desc>
    <defs></defs>
    <g id="POI" stroke="none" stroke-width="1" fill="none" fill-rule="evenodd" sketch:type="MSPage">
        <g id="lift_gate-m" sketch:type="MSLayerGroup">
            <path d="M11.5,23 C5.159,23 0,17.841 0,11.5 C0,5.159 5.159,0 11.5,0 C17.841,0 23,5.159 23,11.5 C23,17.841 17.841,23 11.5,23 L11.5,23 Z" id="Shape" fill="#FFFFFF" sketch:type="MSShapeGroup"></path>
            <path d="M22,11.5 C22,17.299 17.299,22 11.5,22 C5.701,22 1,17.299 1,11.5 C1,5.701 5.701,1 11.5,1 C17.299,1 22,5.701 22,11.5 L22,11.5 Z" id="Shape" fill="#7F7D54" sketch:type="MSShapeGroup"></path>
            <path d="M19.273,7.758 C19.158,7.33 18.719,7.078 18.293,7.193 L10.883,9.178 L10.883,9.047 C10.176,8.638 9.359,8.4 8.483,8.4 C7.608,8.4 6.79,8.638 6.084,9.047 L6.084,10.465 L5.157,10.713 L5.571,12.258 L6.084,12.121 L6.084,18 L10.884,18 L10.884,10.834 L18.708,8.738 C19.134,8.623 19.387,8.186 19.273,7.758 L19.273,7.758 Z M9,13 L7,13 L7,11 L9,11 L9,13 L9,13 Z" id="Shape" fill="#FFFFFF" sketch:type="MSShapeGroup"></path>
        </g>
    </g>
</svg>