<svg width="24" height="24" viewBox="0 0 24 24">
  <g fill="none" fill-rule="evenodd">
    <circle cx="12" cy="12" r="12" fill="#FFF" opacity=".6"/>
    <circle cx="12" cy="12" r="11" fill="#717065"/>
    <path fill="#FFF" d="M12.6315789,5.93333333 L12,5 L11.3684211,5.93333333 L10.7368421,5.93333333 L9.89473684,6.86666667 L10.7368423,6.86666667 L10.7368423,9.66666667 L9.89473684,9.66666667 L9.89473684,10.6 L10.7368423,11.5333333 L9.05263158,19 L14.9473684,19 L13.2631579,11.5333333 L14.1052632,10.6 L14.1052632,9.66666667 L13.2631579,9.66666667 L13.2631579,6.86666667 L14.1052632,6.86666667 L13.2631579,5.93333333 L12.6315789,5.93333333 Z M12,6.86666667 L12.4210526,7.8 L12.4210526,7.82722982 L12.4210526,9.66666667 L11.5789474,9.66666667 L11.5789474,7.8 L12,6.86666667 Z M14.1052632,7.8 L18.3157895,6.86666667 L14.9473684,8.26666667 L20,11.5333333 L14.1052632,8.73333333 L14.1052632,7.8 Z M9.89473684,7.8 L9.89473684,8.73333333 L4,11.5333333 L9.05263158,8.26666667 L5.68421053,6.86666667 L9.89473684,7.8 Z"/>
  </g>
</svg>
