<?xml version="1.0" encoding="UTF-8" standalone="no"?>
<svg width="21px" height="21px" viewBox="0 0 21 21" version="1.1" xmlns="http://www.w3.org/2000/svg" xmlns:xlink="http://www.w3.org/1999/xlink" xmlns:sketch="http://www.bohemiancoding.com/sketch/ns">
    <!-- Generator: Sketch 3.3.3 (12072) - http://www.bohemiancoding.com/sketch -->
    <title>lightrail-berlin-m</title>
    <desc>Created with Sketch.</desc>
    <defs></defs>
    <g id="Subways" stroke="none" stroke-width="1" fill="none" fill-rule="evenodd" sketch:type="MSPage">
        <g id="lightrail-berlin-m" sketch:type="MSLayerGroup">
            <circle id="Oval-23-Copy" fill="#FFFFFF" sketch:type="MSShapeGroup" cx="10.5" cy="10.5" r="10.5"></circle>
            <g id="Group" transform="translate(1.000000, 1.000000)" sketch:type="MSShapeGroup">
                <path d="M9.49429429,18.9763784 C4.27357357,18.9763784 0.0285855856,14.7313904 0.0285855856,9.51061261 C0.0285855856,4.28989189 4.27357357,0.0448468468 9.49429429,0.0448468468 C14.7150721,0.0448468468 18.9601171,4.28989189 18.9601171,9.51061261 C18.9602312,14.7313904 14.7150721,18.9763784 9.49429429,18.9763784 L9.49429429,18.9763784 Z" id="Shape" fill="#006F35"></path>
                <path d="M7.0978979,5.31691892 C7.0978979,4.4952973 7.85105105,3.7934955 9.16912613,3.7934955 C11.4970541,3.7934955 13.4826396,5.04304505 14.8006577,6.46376577 L14.8006577,3.98178378 C13.2772342,2.8007027 11.3600601,2.0989009 9.22042042,2.0989009 C6.65285285,2.0989009 3.79429429,3.67373273 3.79429429,6.6007027 C3.79429429,12.1809399 12.2672673,10.1782372 12.2672673,13.4133153 C12.2672673,14.2691712 11.1375946,15.0737327 9.73399099,15.0737327 C7.4402973,15.0737327 5.16372072,13.6872462 3.91417117,11.8899489 L3.91417117,14.8682703 C5.23218919,16.0493514 7.6457027,16.9907928 9.73399099,16.9907928 C13.4826396,16.9907928 15.7079219,14.3204655 15.7079219,12.0267718 C15.707979,6.34394595 7.0978979,8.77446246 7.0978979,5.31691892 L7.0978979,5.31691892 Z" id="Shape" fill="#FFFFFF"></path>
            </g>
        </g>
    </g>
</svg>