<svg version="1.1" viewBox="0 0 21 21" xmlns="http://www.w3.org/2000/svg">
 <title>lightrail-berlin-m</title>
 <g fill="none" fill-rule="evenodd">
  <g id="lightrail-berlin-m" fill-rule="nonzero">
   <circle id="Oval" cx="10.5" cy="10.5" r="10.5" fill="#fff" opacity=".6"/>
   <path id="Path" d="m10.494 19.976c-5.2207 0-9.4657-4.245-9.4657-9.4658 0-5.2207 4.245-9.4658 9.4657-9.4658 5.2208 0 9.4658 4.245 9.4658 9.4658 0 5.2208-4.245 9.4658-9.4658 9.4658z" fill="#006F35"/>
   <path id="Path" d="m8.0979 6.3169c0-0.82162 0.75315-1.5234 2.0712-1.5234 2.3279 0 4.3135 1.2495 5.6315 2.6703v-2.482c-1.5234-1.1811-3.4406-1.8829-5.5802-1.8829-2.5676 0-5.4261 1.5748-5.4261 4.5018 0 5.5802 8.473 3.5775 8.473 6.8126 0 0.85586-1.1297 1.6604-2.5333 1.6604-2.2937 0-4.5703-1.3865-5.8198-3.1838v2.9783c1.318 1.1811 3.7315 2.1225 5.8198 2.1225 3.7486 0 5.9739-2.6703 5.9739-4.964 0-5.6828-8.61-3.2523-8.61-6.7099z" fill="#fff"/>
  </g>
 </g>
</svg>
