<svg version="1.1" viewBox="0 0 24 24" xmlns="http://www.w3.org/2000/svg">
 <title>lighthouse-m</title>
 <g fill="none" fill-rule="evenodd">
  <g id="lighthouse-m" fill-rule="nonzero">
   <circle id="Oval" cx="12" cy="12" r="12" fill="#fff" opacity=".6"/>
   <circle id="Oval" cx="12" cy="12" r="11" fill="#717065"/>
   <path id="Shape" d="m8.3705 14.053 0.53851-4.3378h3.4251l0.21438 1.7268-4.178 2.611zm5.508 4.2177h-0.48558c4.87e-5 -0.0027222 3.889e-4 -0.0053958 3.889e-4 -0.008118 0-0.024646-0.0024305-0.048757-0.0070972-0.071993l-0.60603-4.882-4.6562 2.9099c-0.0077778 0.0048611-0.015944 0.0085069-0.023917 0.012688l-0.2466 1.9865c-0.0021875 0.017743-0.002625 0.035438-0.0021875 0.053035h-0.48669c-0.2014 0-0.36458 0.16319-0.36458 0.36458 0 0.2014 0.16319 0.36458 0.36458 0.36458h6.5139c0.2014 0 0.36458-0.16319 0.36458-0.36458 0-0.2014-0.16319-0.36463-0.36453-0.36463zm-1.4583-9.9167h-0.25497l-0.075833-0.58333h-1.2086c-0.035778 0-0.069903-0.019396-0.10092-0.032521s-0.058965-0.03816-0.082396-0.061639c-0.035194-0.035194-0.068396-0.083465-0.07875-0.13412-0.0034513-0.016868-0.013368-0.035875-0.013368-0.053764v-0.001507-0.28355c0-0.017889 0.0099167-0.035389 0.013368-0.052257 0.017257-0.084389 0.079576-0.15385 0.15711-0.18662 0.031014-0.013125 0.069174-0.020368 0.10495-0.020368h1.1084l-0.058236-0.46657c0.13038-0.055562 0.22176-0.18482 0.22176-0.33551 0-0.19158-0.14783-0.3483-0.33556-0.36312-0.16061-0.46142-0.60088-0.77928-1.1087-0.77928h-0.17383c-0.50735 0-0.94719 0.31724-1.1082 0.77778h-0.020174c-0.2014 0-0.36458 0.16319-0.36458 0.36458 0 0.16805 0.1138 0.30912 0.26843 0.35136l-0.23217 1.8604h-0.30362c-0.2014 0-0.36458 0.16319-0.36458 0.36458 0 0.10578 0.045306 0.20076 0.1173 0.26736h4.1404c0.071944-0.066597 0.1173-0.16158 0.1173-0.26736 0-0.2014-0.16324-0.36458-0.36458-0.36458zm4.8198-2.0684c-0.08259-0.069368-0.18769-0.098486-0.29381-0.079625l-4.4702 0.79246c-0.17408 0.030868-0.29998 0.18215-0.29998 0.35899s0.12741 0.32812 0.30149 0.35899l4.4725 0.79246c0.021194 0.003743 0.042583 0.0055903 0.063729 0.0055903 0.084972 0 0.16008-0.029701 0.22619-0.085215 0.082639-0.069271 0.12231-0.17155 0.12231-0.27937v-1.5849c0-0.10782-0.039521-0.2101-0.12221-0.27937z" fill="#fff"/>
  </g>
 </g>
</svg>
