<svg width="26" height="25" viewBox="0 0 26 25">
  <g fill="none" fill-rule="evenodd" transform="translate(-1 -1)">
    <circle cx="13.5" cy="13.5" r="11.876" fill="#FFF" opacity=".6"/>
    <g transform="translate(.504 .504)">
      <path fill="#006F35" d="M12.9895861,23.965039 C6.94663461,23.965039 2.03308764,19.051492 2.03308764,13.0084744 C2.03308764,6.96552296 6.94663461,2.05190994 12.9895861,2.05190994 C19.0326036,2.05190994 23.9462166,6.96552296 23.9462166,13.0084744 C23.9463487,19.051492 19.0326036,23.965039 12.9895861,23.965039 L12.9895861,23.965039 Z"/>
      <path fill="#FFF" d="M10.2157723,8.1543003 C10.2157723,7.20327843 11.0875423,6.39094724 12.613206,6.39094724 C15.307768,6.39094724 17.6060708,7.83729301 19.1316684,9.48176833 L19.1316684,6.60888976 C17.3683154,5.24179581 15.1491983,4.42946463 12.6725788,4.42946463 C9.70063545,4.42946463 6.39187185,6.2523226 6.39187185,9.64027198 C6.39187185,16.0993616 16.1992849,13.7812458 16.1992849,17.5258283 C16.1992849,18.5164761 14.8916959,19.4477511 13.2670335,19.4477511 C10.6120975,19.4477511 7.97697435,17.8429017 6.53062858,15.7625413 L6.53062858,19.2099296 C8.05622617,20.5770235 10.8498529,21.6667361 13.2670335,21.6667361 C17.6060708,21.6667361 20.1818211,18.575849 20.1818211,15.9209129 C20.1818871,9.34307764 10.2157723,12.1563853 10.2157723,8.1543003 L10.2157723,8.1543003 Z"/>
    </g>
  </g>
</svg>
