<svg viewBox="0 0 24 25" xmlns="http://www.w3.org/2000/svg">
 <g>
  <path d="m12 0.7c-6.6 0-12 5.3-12 12s5.4 12 12 12 12-5.4 12-12-5.4-12-12-12z" fill="#FFF" opacity=".6"/>
  <circle cx="12" cy="13" r="10" fill="#FFF"/>
  <path d="m12 3.4c5.1 0 9.3 4.2 9.3 9.3s-4.2 9.3-9.3 9.3-9.3-4.2-9.3-9.3 4.2-9.3 9.3-9.3zm0-1.7c-6.1 0-11 4.9-11 11s4.9 11 11 11 11-4.9 11-11-4.9-11-11-11z" fill="#003364"/>
  <path d="m8.75 15h-1.5v-3.8c0-1.2142 1.0358-2.25 2.25-2.25 1.2142 0 2.25 1.0358 2.25 2.25v1.2c0 0.38579 0.36421 0.75 0.75 0.75s0.75-0.36421 0.75-0.75v-1.2c0-1.2142 1.0358-2.25 2.25-2.25s2.25 1.0358 2.25 2.25v3.8h-1.5v-3.8c0-0.38579-0.36421-0.75-0.75-0.75s-0.75 0.36421-0.75 0.75v1.2c0 1.2142-1.0358 2.25-2.25 2.25s-2.25-1.0358-2.25-2.25v-1.2c0-0.38579-0.36421-0.75-0.75-0.75s-0.75 0.36421-0.75 0.75v3.8z" fill="#003364"/>
 </g>
</svg>
