<?xml version="1.0" encoding="UTF-8" standalone="no"?>
<svg width="17px" height="17px" viewBox="0 0 17 17" version="1.1" xmlns="http://www.w3.org/2000/svg" xmlns:xlink="http://www.w3.org/1999/xlink" xmlns:sketch="http://www.bohemiancoding.com/sketch/ns">
    <!-- Generator: Sketch 3.3.3 (12072) - http://www.bohemiancoding.com/sketch -->
    <title>london-tube-s</title>
    <desc>Created with Sketch.</desc>
    <defs></defs>
    <g id="Icons" stroke="none" stroke-width="1" fill="none" fill-rule="evenodd" sketch:type="MSPage">
        <rect id="Rectangle-330-Copy" fill="#FFFFFF" sketch:type="MSShapeGroup" x="0" y="6" width="17" height="5"></rect>
        <circle id="Oval-203-Copy-2" fill="#FFFFFF" sketch:type="MSShapeGroup" cx="8.5" cy="8.5" r="6.5"></circle>
        <path d="M8.5,14 C11.5375661,14 14,11.5375661 14,8.5 C14,5.46243388 11.5375661,3 8.5,3 C5.46243388,3 3,5.46243388 3,8.5 C3,11.5375661 5.46243388,14 8.5,14 Z M8.5,12 C10.4329966,12 12,10.4329966 12,8.5 C12,6.56700338 10.4329966,5 8.5,5 C6.56700338,5 5,6.56700338 5,8.5 C5,10.4329966 6.56700338,12 8.5,12 Z" id="Oval-203" fill="#E12524" sketch:type="MSShapeGroup"></path>
        <rect id="Rectangle-330" fill="#043A86" sketch:type="MSShapeGroup" x="1" y="7" width="15" height="3"></rect>
    </g>
</svg>