<?xml version="1.0" encoding="UTF-8" standalone="no"?>
<svg width="17px" height="17px" viewBox="0 0 17 17" version="1.1" xmlns="http://www.w3.org/2000/svg" xmlns:xlink="http://www.w3.org/1999/xlink" xmlns:sketch="http://www.bohemiancoding.com/sketch/ns">
    <!-- Generator: Sketch 3.3.3 (12072) - http://www.bohemiancoding.com/sketch -->
    <title>london-tube-s</title>
    <desc>Created with Sketch.</desc>
    <defs></defs>
    <g id="Icons" stroke="none" stroke-width="1" fill="none" fill-rule="evenodd" sketch:type="MSPage">
        <g id="Subways" sketch:type="MSLayerGroup" transform="translate(-149.000000, -91.000000)">
            <rect id="Rectangle-330-Copy" fill="#FFFFFF" sketch:type="MSShapeGroup" x="149" y="97" width="17" height="5"></rect>
            <circle id="Oval-203-Copy-2" fill="#FFFFFF" sketch:type="MSShapeGroup" cx="157.5" cy="99.5" r="6.5"></circle>
            <g id="Oval-203-+-Rectangle-330" transform="translate(150.000000, 94.000000)" sketch:type="MSShapeGroup">
                <path d="M7.5,11 C10.5375661,11 13,8.53756612 13,5.5 C13,2.46243388 10.5375661,0 7.5,0 C4.46243388,0 2,2.46243388 2,5.5 C2,8.53756612 4.46243388,11 7.5,11 Z M7.5,9 C9.43299662,9 11,7.43299662 11,5.5 C11,3.56700338 9.43299662,2 7.5,2 C5.56700338,2 4,3.56700338 4,5.5 C4,7.43299662 5.56700338,9 7.5,9 Z" id="Oval-203" fill="#E12524"></path>
                <rect id="Rectangle-330" fill="#043A86" x="0" y="4" width="15" height="3"></rect>
            </g>
        </g>
    </g>
</svg>