<?xml version="1.0" encoding="UTF-8"?>
<svg version="1.1" viewBox="0 0 24 24" xml:space="preserve" xmlns="http://www.w3.org/2000/svg">
 <circle cx="12" cy="12" r="12" fill="#fff" opacity=".6"/>
 <circle cx="12" cy="12" r="11" fill="#8c5f93"/>
 <path d="m12 3.9193a3.9424 3.9424 0 0 0-3.9423 3.9423 3.9424 3.9424 0 0 0 1.0463 2.6652c-0.34982-0.10167-0.71931-0.1574-1.1019-0.1574-2.1773 0-3.9423 1.7652-3.9423 3.9425 0 2.1773 1.765 3.9423 3.9423 3.9423 1.4688 0 2.7491-0.80382 3.4274-1.995-0.0032 0.06694-0.0081 0.13356-0.01438 0.19963-0.0067 0.07098-0.01495 0.14145-0.0249 0.21135-0.0099 0.0699-0.02167 0.13932-0.03479 0.20805-0.02623 0.13745-0.05862 0.27247-0.09701 0.40471-0.0384 0.13224-0.08277 0.26157-0.13265 0.38788-0.04987 0.12631-0.10528 0.24956-0.16598 0.36924-0.0607 0.11968-0.12664 0.23579-0.19749 0.34812-0.0635 0.10069-0.13227 0.19727-0.20342 0.29153-0.0082 0.0109-0.01527 0.02288-0.02357 0.03365-0.08033 0.10429-0.16523 0.20442-0.2544 0.29994-0.08918 0.09553-0.18263 0.18649-0.27998 0.27256-0.08994 0.07952-0.18393 0.15369-0.28031 0.22455l-3.29e-4 0.0019 5e-4 0.0013c-0.0038 0.0038-0.0086 0.0063-0.01235 0.01007-0.01477 0.01477-0.02801 0.03099-0.03973 0.04835-0.01172 0.01737-0.02173 0.03594-0.03003 0.05544-0.0082 0.01952-0.01477 0.03999-0.01913 0.06121-0.0044 0.02123-0.0066 0.04328-0.0066 0.06583 0 0.02256 0.0026 0.04461 0.0066 0.06583 0.0044 0.02123 0.0109 0.0417 0.01913 0.06121 0.0082 0.01952 0.01831 0.03808 0.03003 0.05544s0.02503 0.03358 0.03973 0.04835c0.01477 0.01477 0.03098 0.02801 0.04835 0.03973 0.01736 0.01172 0.03593 0.02193 0.05545 0.03022 0.01952 0.0082 0.03999 0.01464 0.06121 0.01895 0.02123 0.0044 0.04328 0.0066 0.06583 0.0066h4.1217c0.02256 0 0.04461-0.0026 0.06583-0.0066 0.02123-0.0044 0.0417-0.01071 0.06121-0.01895 0.01952-0.0082 0.03809-0.01844 0.05544-0.03022 0.01736-0.01172 0.03358-0.02496 0.04835-0.03973 0.01477-0.01476 0.0282-0.03098 0.03993-0.04835 0.01172-0.01737 0.02173-0.03593 0.03003-0.05544 0.0082-0.01952 0.01464-0.03999 0.01895-0.06121 0.0044-0.02123 0.0066-0.04328 0.0066-0.06583 0-0.02256-0.0026-0.04461-0.0066-0.06583-0.0044-0.02123-0.01071-0.0417-0.01895-0.06121-0.0082-0.01952-0.01831-0.03808-0.03003-0.05544s-0.02515-0.03358-0.03993-0.04835c-0.0038-0.0038-0.0083-0.0065-0.01223-0.01007l5.07e-4 -0.0013v-0.0019c-0.09648-0.07092-0.19076-0.14511-0.2808-0.22471-0.09735-0.08606-0.1908-0.17703-0.27998-0.27255-0.04771-0.05113-0.09088-0.10686-0.13612-0.16053-0.03928-0.04664-0.08094-0.09093-0.11829-0.13942-0.08034-0.10428-0.15601-0.21285-0.22686-0.32518-0.07085-0.11234-0.13679-0.22844-0.19749-0.34812-0.06071-0.11968-0.1161-0.24293-0.16597-0.36924-0.04987-0.12631-0.09426-0.25564-0.13265-0.38788-0.03841-0.13224-0.07092-0.26726-0.09718-0.40472-0.01311-0.06872-0.02465-0.13814-0.03466-0.20804-0.0099-0.0699-0.01838-0.14036-0.02509-0.21135-0.0063-0.06602-0.01084-0.13259-0.01419-0.19947 0.67831 1.1911 1.9587 1.9948 3.4274 1.9948 2.1773 0 3.9423-1.765 3.9423-3.9423s-1.765-3.9425-3.9423-3.9425c-0.38269 0-0.75224 0.0557-1.1021 0.1574a3.9424 3.9424 0 0 0 1.0465-2.6652 3.9424 3.9424 0 0 0-3.9425-3.9423z" fill="#fff"/>
</svg>
