<?xml version="1.0" encoding="UTF-8"?>
<svg width="24px" height="24px" viewBox="0 0 24 24" version="1.1" xmlns="http://www.w3.org/2000/svg" xmlns:xlink="http://www.w3.org/1999/xlink">
    <title>mail-m</title>
    <g id="Page-1" stroke="none" stroke-width="1" fill="none" fill-rule="evenodd">
        <g id="mail-m" fill-rule="nonzero">
            <circle id="Oval" fill="#FFFFFF" opacity="0.6" cx="12" cy="12" r="12"></circle>
            <circle id="Oval" fill="#717065" cx="12" cy="12" r="11"></circle>
            <path d="M17.6,6 L6.4,6 C5.63,6 5.007,6.63 5.007,7.4 L5,15.8 C5,16.57 5.63,17.2 6.4,17.2 L17.6,17.2 C18.37,17.2 19,16.57 19,15.8 L19,7.4 C19,6.63 18.37,6 17.6,6 Z M17.32,8.975 L12.371,12.069 C12.147,12.209 11.853,12.209 11.629,12.069 L6.68,8.975 C6.505,8.863 6.4,8.674 6.4,8.471 C6.4,8.002 6.911,7.722 7.31,7.967 L12,10.9 L16.69,7.967 C17.089,7.722 17.6,8.002 17.6,8.471 C17.6,8.674 17.495,8.863 17.32,8.975 Z" id="Shape" fill="#FFFFFF"></path>
        </g>
    </g>
</svg>