<svg version="1.1" viewBox="0 0 24 24" xmlns="http://www.w3.org/2000/svg">
 <title>mail-m</title>
 <g fill="none" fill-rule="evenodd">
  <g id="mail-m" fill-rule="nonzero">
   <circle id="Oval" cx="12" cy="12" r="12" fill="#fff" opacity=".6"/>
   <circle id="Oval" cx="12" cy="12" r="11" fill="#717065"/>
   <path id="Shape" d="m17.6 6h-11.2c-0.77 0-1.393 0.63-1.393 1.4l-7e-3 8.4c0 0.77 0.63 1.4 1.4 1.4h11.2c0.77 0 1.4-0.63 1.4-1.4v-8.4c0-0.77-0.63-1.4-1.4-1.4zm-0.28 2.975-4.949 3.094c-0.224 0.14-0.518 0.14-0.742 0l-4.949-3.094c-0.175-0.112-0.28-0.301-0.28-0.504 0-0.469 0.511-0.749 0.91-0.504l4.69 2.933 4.69-2.933c0.399-0.245 0.91 0.035 0.91 0.504 0 0.203-0.105 0.392-0.28 0.504z" fill="#fff"/>
  </g>
 </g>
</svg>
