<svg version="1.1" viewBox="0 0 14 14" xmlns="http://www.w3.org/2000/svg" xmlns:cc="http://creativecommons.org/ns#" xmlns:dc="http://purl.org/dc/elements/1.1/" xmlns:rdf="http://www.w3.org/1999/02/22-rdf-syntax-ns#">
 <metadata>
  <rdf:RDF>
   <cc:Work rdf:about="">
    <dc:format>image/svg+xml</dc:format>
    <dc:type rdf:resource="http://purl.org/dc/dcmitype/StillImage"/>
    <dc:title/>
   </cc:Work>
  </rdf:RDF>
 </metadata>
 <path d="m4.4688 1c-0.034718 0.00224-0.068771 0.017937-0.10352 0.027344-0.023371 0.00664-0.04849 0.00777-0.070312 0.017578-0.0064 0.00284-0.013216 0.0027-0.019531 0.00586l-4.0059 2.002v0.0097656c-0.15861 0.083642-0.26953 0.24505-0.26953 0.4375v9c0 0.0069 0.0036301 0.01268 0.0039062 0.01953 0.0010164 0.02913 0.011287 0.05688 0.017578 0.08594 0.0078135 0.03544 0.012483 0.07137 0.027344 0.10352 0.0023321 0.0051 0.0013892 0.01059 0.0039063 0.01563 0.004814 0.0096 0.016155 0.0123 0.021484 0.02149 0.038308 0.06631 0.088896 0.12162 0.15234 0.16406 0.017387 0.01164 0.032172 0.02389 0.050781 0.0332 0.067593 0.033972 0.14157 0.056633 0.22266 0.056633 0.005593 0 0.010077-0.0037 0.015625-0.0039 0.0055-1.72e-4 0.010118 0.0043 0.015625 0.0039 0.033332-0.0022 0.066217-0.01666 0.099609-0.02539 0.024822-0.0068 0.051123-0.0091 0.074219-0.01953 0.006404-0.0028 0.013216-0.0027 0.019531-0.0059l3.7559-1.877 4.8145 1.8848c0.062651 0.02815 0.13171 0.04492 0.20508 0.04492 0.00346 0 0.00827-0.0019 0.011719-2e-3 0.00422-1.08e-4 0.00751-0.0037 0.011719-0.0039h0.00195c0.0021-1.09e-4 0.00375 0.0021 0.00586 2e-3 0.012444-8.06e-4 0.024582-0.0081 0.037109-0.0098 0.051564-0.0073 0.10131-0.01736 0.14648-0.03906 0.0031-0.0015 0.00668-4.14e-4 0.00977-2e-3l4.0059-2.002v-0.0059c0.1586-0.083487 0.26953-0.2449 0.26953-0.43734v-9c0-0.00692-0.0036-0.012676-0.0039-0.019531-9.83e-4 -0.031791-0.01226-0.062063-0.01953-0.09375-0.0078-0.032675-0.0116-0.065897-0.02539-0.095703-0.0026-0.00568-0.0011-0.01195-0.0039-0.017578-0.0064-0.012713-0.0201-0.017377-0.02734-0.029297-0.03595-0.058913-0.08227-0.10704-0.13867-0.14648-0.02206-0.015579-0.04034-0.031246-0.06445-0.042969-0.06621-0.032253-0.13793-0.054687-0.2168-0.054687-0.0041 0-0.0076 0.00185-0.01172 0.00195-0.0068 1.594e-4 -0.01272-0.004345-0.01953-0.00391-0.04394 0.00283-0.0873 0.020592-0.13086 0.035156-0.01274 0.0044-0.02682 0.0044-0.03906 0.00977-0.0076 0.0033-0.01595 0.00212-0.02344 0.00586l-3.7598 1.8789-4.7676-1.8652-0.0019531-0.0019531c-0.00181-0.00102-0.00404-9.564e-4 -0.00586-0.00195l-0.03125-0.011719c-0.063945-0.02959-0.13365-0.048831-0.20898-0.048831-0.00546 0-0.010208 0.00178-0.015625 0.00195-8.647e-4 2.23e-5 -0.00109 0.00193-0.00195 0.00195-0.0048531 1.769e-4 -0.0088195-0.0042131-0.013675-0.0039zm0.53125 1.2363 4 1.5664v7.9648l-4-1.5664zm-1 0.070312v7.8887l-3 1.498v-7.8887zm9 0v7.8867l-3 1.498v-7.8867z" fill="#717065" style="paint-order:markers stroke fill"/>
</svg>
