<svg version="1.1" viewBox="0 0 24 24" xmlns="http://www.w3.org/2000/svg">
 <title>marketplace-m</title>
 <g fill="none" fill-rule="evenodd">
  <g id="marketplace-m" fill-rule="nonzero">
   <circle id="Oval" cx="12" cy="12" r="12" fill="#fff" opacity=".6"/>
   <circle id="Oval" cx="12" cy="12" r="11" fill="#8C5F93"/>
   <path id="Shape" d="m6.6616 7.5253h10.677c0.41945 0 0.76263-0.34318 0.76263-0.76263s-0.34318-0.76263-0.76263-0.76263h-10.677c-0.41945 0-0.76263 0.34318-0.76263 0.76263s0.34318 0.76263 0.76263 0.76263zm11.561 1.3727c-0.068636-0.35081-0.38131-0.6101-0.74738-0.6101h-10.951c-0.36606 0-0.67874 0.25929-0.74738 0.6101l-0.76263 3.8131c-0.091515 0.47283 0.26692 0.91515 0.74738 0.91515h0.13727v3.8131c0 0.41945 0.34318 0.76263 0.76263 0.76263h6.101c0.41945 0 0.76263-0.34318 0.76263-0.76263v-3.8131h3.0505v3.8131c0 0.41945 0.34318 0.76263 0.76263 0.76263s0.76263-0.34318 0.76263-0.76263v-3.8131h0.13727c0.48046 0 0.83889-0.44232 0.74738-0.91515l-0.76263-3.8131zm-6.223 7.7788h-4.5758v-3.0505h4.5758v3.0505z" fill="#fff"/>
  </g>
 </g>
</svg>
