<?xml version="1.0" encoding="UTF-8" standalone="no"?>
<svg width="17px" height="17px" viewBox="0 0 17 17" version="1.1" xmlns="http://www.w3.org/2000/svg" xmlns:xlink="http://www.w3.org/1999/xlink" xmlns:sketch="http://www.bohemiancoding.com/sketch/ns">
    <!-- Generator: Sketch 3.5.2 (25235) - http://www.bohemiancoding.com/sketch -->
    <title>marketplace-s</title>
    <desc>Created with Sketch.</desc>
    <defs></defs>
    <g id="POI" stroke="none" stroke-width="1" fill="none" fill-rule="evenodd" sketch:type="MSPage">
        <path d="M8.5,17 C3.813,17 0,13.188 0,8.5 C0,3.812 3.813,0 8.5,0 C13.187,0 17,3.812 17,8.5 C17,13.188 13.187,17 8.5,17 L8.5,17 Z" id="Shape" fill="#FFFFFF" sketch:type="MSShapeGroup"></path>
        <circle id="Oval" fill="#717065" sketch:type="MSShapeGroup" cx="8.5" cy="8.5" r="7.5"></circle>
        <path d="M5,13 L12,13 L12,11 L5,11 L5,13 L5,13 Z M11,7 L10.052,7 L10.052,9 L6.948,9 L6.948,7 L6,7 L6,9 L5,9 L5,10 L12,10 L12,9 L11,9 L11,7 L11,7 Z M5,4.018 L5,4.834 C5,5.478 5.522,6 6.167,6 C6.811,6 7.334,5.478 7.334,4.834 C7.334,5.478 7.856,6 8.501,6 C9.146,6 9.668,5.478 9.668,4.834 C9.668,5.478 10.19,6 10.835,6 C11.48,6 12.002,5.478 12.002,4.834 L12.002,4.018 L5,4.018 L5,4.018 Z" id="Shape" fill="#FFFFFF" sketch:type="MSShapeGroup"></path>
    </g>
</svg>