<svg height="24" viewBox="0 0 24 24" width="24"><g fill="none" fill-rule="evenodd"><circle cx="12" cy="12" fill="#fff" opacity=".6" r="12"/><circle cx="12" cy="12" fill="#8c5f93" r="11"/><path d="m6 5v2.02253333c0 .94453334.89454545 1.7108 2.00072727 1.7108 1.104 0 1.99854546-.76626666 1.99854546-1.7108 0 .94453334.89563637 1.7108 2.00072727 1.7108s2.0007273-.76626666 2.0007273-1.7108c0 .94453334.8945454 1.7108 1.9985454 1.7108 1.1061818 0 2.0007273-.76626666 2.0007273-1.7108v-2.02253333zm10.9090909 4.66666667h-2.1818182v2.80000003h-5.45454543v-2.80000003h-2.18181818v2.80000003h-1.09090909v1.8666666h12v-1.8666666h-1.0909091zm-9.81818181 9.33333333h9.81818181v-3.7333333h-9.81818181z" fill="#fff"/></g></svg>