<svg width="28" height="28" viewBox="0 0 28 28">
  <g fill="none" fill-rule="evenodd">
    <circle cx="14" cy="14" r="14" fill="#FFF" opacity=".6"/>
    <circle cx="14" cy="14" r="13" fill="#8C5F93"/>
    <path fill="#FFF" d="M21,18.2 L20.0666667,18.2 L20.0666667,20.0666667 L20.997362,20.0666667 C20.9597798,20.5884116 20.525292,21 19.9931545,21 L8.00684547,21 C7.47546803,21 7.04023462,20.5891176 7.00263542,20.0666667 L7.93333333,20.0666667 L7.93333333,18.2 L7,18.2 L7,9.8 L7.93333333,9.8 L7.93333333,7.93333333 L7.002638,7.93333333 C7.04022021,7.41158837 7.474708,7 8.00684547,7 L19.9931545,7 C20.524532,7 20.9597654,7.41088241 20.9973646,7.93333333 L20.0666667,7.93333333 L20.0666667,9.8 L21,9.8 L21,18.2 Z M8.86666667,7.93333333 L8.86666667,9.8 L10.7333333,9.8 L10.7333333,7.93333333 L8.86666667,7.93333333 Z M11.6666667,7.93333333 L11.6666667,9.8 L13.5333333,9.8 L13.5333333,7.93333333 L11.6666667,7.93333333 Z M14.4666667,7.93333333 L14.4666667,9.8 L16.3333333,9.8 L16.3333333,7.93333333 L14.4666667,7.93333333 Z M17.2666667,7.93333333 L17.2666667,9.8 L19.1333333,9.8 L19.1333333,7.93333333 L17.2666667,7.93333333 Z M8.86666667,18.2 L8.86666667,20.0666667 L10.7333333,20.0666667 L10.7333333,18.2 L8.86666667,18.2 Z M11.6666667,18.2 L11.6666667,20.0666667 L13.5333333,20.0666667 L13.5333333,18.2 L11.6666667,18.2 Z M14.4666667,18.2 L14.4666667,20.0666667 L16.3333333,20.0666667 L16.3333333,18.2 L14.4666667,18.2 Z M17.2666667,18.2 L17.2666667,20.0666667 L19.1333333,20.0666667 L19.1333333,18.2 L17.2666667,18.2 Z M12.1333333,11.5344482 L12.1333333,16.4655518 C12.1333333,16.9154063 12.4238468,17.0633072 12.7822133,16.8124507 L16.15112,14.454216 C16.5080791,14.2043446 16.5094865,13.7966406 16.15112,13.545784 L12.7822133,11.1875493 C12.4252542,10.937678 12.1333333,11.0920047 12.1333333,11.5344482 Z"/>
  </g>
</svg>
