<svg width="24" height="24" viewBox="0 0 24 24">
  <g fill="none" fill-rule="evenodd">
    <circle cx="12" cy="12" r="12" fill="#FFF" opacity=".6"/>
    <circle cx="12" cy="12" r="11" fill="#8C5F93"/>
    <path fill="#FFF" d="M17.9968558,17.0769231 C17.9557925,17.5934577 17.5178514,18 16.9975267,18 L7.00247329,18 C6.47585788,18 6.04408283,17.5876628 6.00317055,17.0769231 L6,17.0769231 L6,15.6923077 L6.92307692,15.6923077 L6.92307692,17.0769231 L6.00317055,17.0769231 C6.0010702,17.0507028 6,17.0242232 6,16.9975267 L6,7.00247329 C6,6.97575074 6.00106175,6.94927238 6.00314422,6.92307692 L6,6.92307692 L6,8.30769231 L6.92307692,8.30769231 L6.92307692,6.92307692 L6.00314422,6.92307692 C6.04420749,6.40654234 6.48214863,6 7.00247329,6 L16.9975267,6 C17.5241421,6 17.9559172,6.41233721 17.9968295,6.92307692 L17.0769231,6.92307692 L17.0769231,8.30769231 L18,8.30769231 L18,6.92307692 L17.9968295,6.92307692 C17.9989298,6.94929719 18,6.97577681 18,7.00247329 L18,16.9975267 C18,17.0242493 17.9989383,17.0507276 17.9968558,17.0769231 L18,17.0769231 L18,15.6923077 L17.0769231,15.6923077 L17.0769231,17.0769231 L17.9968558,17.0769231 Z M7.84615385,6.92307692 L7.84615385,8.30769231 L9.23076923,8.30769231 L9.23076923,6.92307692 L7.84615385,6.92307692 Z M10.1538462,6.92307692 L10.1538462,8.30769231 L11.5384615,8.30769231 L11.5384615,6.92307692 L10.1538462,6.92307692 Z M12.4615385,6.92307692 L12.4615385,8.30769231 L13.8461538,8.30769231 L13.8461538,6.92307692 L12.4615385,6.92307692 Z M14.7692308,6.92307692 L14.7692308,8.30769231 L16.1538462,8.30769231 L16.1538462,6.92307692 L14.7692308,6.92307692 Z M7.84615385,15.6923077 L7.84615385,17.0769231 L9.23076923,17.0769231 L9.23076923,15.6923077 L7.84615385,15.6923077 Z M10.1538462,15.6923077 L10.1538462,17.0769231 L11.5384615,17.0769231 L11.5384615,15.6923077 L10.1538462,15.6923077 Z M12.4615385,15.6923077 L12.4615385,17.0769231 L13.8461538,17.0769231 L13.8461538,15.6923077 L12.4615385,15.6923077 Z M14.7692308,15.6923077 L14.7692308,17.0769231 L16.1538462,17.0769231 L16.1538462,15.6923077 L14.7692308,15.6923077 Z M10.6153846,10.2437961 L10.6153846,13.7546043 C10.6153846,14.185259 10.9117455,14.3533924 11.2773252,14.1077618 L13.7536227,12.4439538 C14.1173696,12.1995546 14.1192024,11.8000773 13.7536227,11.5544467 L11.2773252,9.8906387 C10.9135783,9.64623951 10.6153846,9.80312206 10.6153846,10.2437961 Z"/>
  </g>
</svg>
