<?xml version="1.0" encoding="UTF-8" standalone="no"?>
<svg width="27px" height="27px" viewBox="0 0 27 27" version="1.1" xmlns="http://www.w3.org/2000/svg" xmlns:xlink="http://www.w3.org/1999/xlink">
    <!-- Generator: Sketch 3.8.3 (29802) - http://www.bohemiancoding.com/sketch -->
    <title>military-l</title>
    <desc>Created with Sketch.</desc>
    <defs>
        <path d="M17.1029057,12.3396 L20.0072222,12.3396 C21.3605556,12.3396 22.4583333,14.1457875 22.4583333,16.3761 L20.615822,16.3761 C20.6490971,16.5201634 20.6666667,16.6700577 20.6666667,16.82395 C20.6666667,17.937136 19.6530546,19.4607756 18.519926,19.4607756 L7.8651208,19.4607756 C6.73199224,19.4607756 5.79055556,17.937136 5.79055556,16.82395 C5.79055556,16.670046 5.80809411,16.5201534 5.84131218,16.3761 L4.67944444,16.3761 C4.67944444,14.1457875 5.77722222,12.3396 7.13166667,12.3396 L8.02733294,12.3396 L8.02733294,6.94850297 L15.4141499,6.94850297 L16.2465142,9.6057 L22.9912688,9.6057 L22.9912688,10.981 L16.6773256,10.981 L17.1029057,12.3396 Z" id="path-1"></path>
    </defs>
    <g id="POI-Clear" stroke="none" stroke-width="1" fill="none" fill-rule="evenodd">
        <g id="military-l">
            <circle id="Oval-1-Copy-39" fill-opacity="0.6" fill="#FFFFFF" cx="13.5" cy="13.5" r="13.5"></circle>
            <circle id="Oval-1-Copy-38" fill="#717065" cx="13.5" cy="13.5" r="12.5"></circle>
            <circle id="Oval-1-Copy-38" fill="#717065" cx="13.5" cy="13.5" r="12.5"></circle>
            <g id="Shape" fill="#FFFFFF">
                <use xlink:href="#path-1"></use>
                <use xlink:href="#path-1"></use>
            </g>
        </g>
    </g>
</svg>