<?xml version="1.0" encoding="UTF-8" standalone="no"?>
<svg width="27px" height="28px" viewBox="0 0 27 28" version="1.1" xmlns="http://www.w3.org/2000/svg" xmlns:xlink="http://www.w3.org/1999/xlink" xmlns:sketch="http://www.bohemiancoding.com/sketch/ns">
    <!-- Generator: Sketch 3.3.3 (12081) - http://www.bohemiancoding.com/sketch -->
    <title>millitary-l</title>
    <desc>Created with Sketch.</desc>
    <defs></defs>
    <g id="POI" stroke="none" stroke-width="1" fill="none" fill-rule="evenodd" sketch:type="MSPage">
        <g id="millitary-l" sketch:type="MSLayerGroup" transform="translate(0.000000, 0.019000)">
            <circle id="Oval-1-Copy-39" fill="#FFFFFF" sketch:type="MSShapeGroup" cx="13.5" cy="13.5" r="13.5"></circle>
            <circle id="Oval-1-Copy-38" fill="#7F7D54" sketch:type="MSShapeGroup" cx="13.5" cy="13.5" r="12.5"></circle>
            <g id="Group-Copy" transform="translate(4.000000, 6.000000)" sketch:type="MSShapeGroup">
                <path d="M14.519926,13.4797756 L3.8651208,13.4797756 C2.73199224,13.4797756 1.79055556,11.956136 1.79055556,10.84295 C1.79055556,9.72869669 2.70986579,8.8247 3.84299435,8.8247 L14.6142279,8.8247 C15.7473564,8.82576729 16.6666667,9.72976399 16.6666667,10.84295 C16.6666667,11.956136 15.6530546,13.4797756 14.519926,13.4797756 Z" id="Shape" stroke="#FFFFFF"></path>
                <path d="M18.4583333,10.3951 L18.4583333,10.3951 C18.4583333,8.1647875 17.3605556,6.3586 16.0072222,6.3586 L3.13166667,6.3586 C1.77722222,6.3586 0.679444444,8.1647875 0.679444444,10.3951 L0.679444444,10.3951 L18.4583333,10.3951 L18.4583333,10.3951 Z" id="Shape" fill="#FFFFFF"></path>
                <rect id="Rectangle-path" fill="#FFFFFF" x="9.56833333" y="3.6247" width="9.42293549" height="1.3753"></rect>
                <path d="M13.4502684,7.46750297 L4.02733294,7.46750297 L4.02733294,0.967502973 L11.4141499,0.967502973 L13.4502684,7.46750297 Z" id="Shape" fill="#FFFFFF"></path>
            </g>
        </g>
    </g>
</svg>