<svg width="28" height="28" viewBox="0 0 28 28">
  <g fill="none" fill-rule="evenodd">
    <circle cx="14" cy="14" r="14" fill="#FFF" opacity=".6"/>
    <circle cx="14" cy="14" r="13" fill="#717065"/>
    <path fill="#FFF" d="M16.8550287,13.3086474 L19.3926822,13.3086474 C20.5751604,13.3086474 21.5343464,14.7521801 21.5343464,16.53468 L19.9244477,16.53468 C19.9535219,16.6498177 19.9688734,16.7696156 19.9688734,16.8926086 C19.9688734,17.7822839 19.0832274,19 18.0931536,19 L8.78349227,19 C7.79341851,19 6.97083597,17.7822839 6.97083597,16.8926086 C6.97083597,16.7696062 6.98616032,16.6498097 7.01518469,16.53468 L6,16.53468 C6,14.7521801 6.95918594,13.3086474 8.14263499,13.3086474 L8.92522552,13.3086474 L8.92522552,9 L15.3794744,9 L16.1067547,11.1236726 L22,11.1236726 L22,12.2228334 L16.4831771,12.2228334 L16.8550287,13.3086474 Z"/>
  </g>
</svg>
