<?xml version="1.0" encoding="UTF-8"?>
<svg version="1.1" viewBox="0 0 24 24" xmlns="http://www.w3.org/2000/svg">
	<title>mine-m</title>
	<g fill="none" fill-rule="evenodd">
		<g id="lighthouse-m" fill-rule="nonzero">
			<circle id="Oval" cx="12" cy="12" r="12" fill="#fff" opacity=".6"/>
			<circle cx="12" cy="12" r="11" fill="#717065"/>
			<path d="m5.7595 17.085 1.3497 1.3666 4.9051-4.8838 4.8909 4.9205 1.4221-1.4347-4.9323-4.9148 2.5567-2.5098 2.5256 2.6017 0.36018-3.7884-0.85764-0.87215 0.2239-0.23261-1.3817-1.3775-0.26713 0.28171-1.6405-1.6448-2.129 2.1178 1.6472 1.6551-2.3981 2.4121-2.2711-2.2099 1.8381-1.8308-2.0878-2.0729-1.8191 1.8128-0.19464-0.2148-1.4079 1.4073 0.19381 0.20055-1.7855 1.7692 2.1041 2.0949 1.8021-1.806 2.2164 2.2599z" fill="#fff" fill-rule="evenodd"/>
		</g>
	</g>
</svg>
