<svg width="28" height="28" viewBox="0 0 28 28">
  <g fill="none" fill-rule="evenodd">
    <circle cx="14" cy="14" r="14" fill="#FFF" opacity=".6"/>
    <circle cx="14" cy="14" r="13" fill="#8C5F93"/>
    <path fill="#FFF" d="M18.0909091,5 C17.5881818,5 17.1818182,5.42442105 17.1818182,5.94736842 L17.1818182,6.89473684 L10.8181818,6.89473684 C9.81454545,6.89473684 9,7.74357895 9,8.78947368 L9,21.1052632 C9,22.1511579 9.81454545,23 10.8181818,23 L17.1818182,23 C18.1854545,23 19,22.1511579 19,21.1052632 L19,5.94736842 C19,5.42442105 18.5936364,5 18.0909091,5 L18.0909091,5 Z M13.5454545,21.1052632 L11.7272727,21.1052632 C11.2245455,21.1052632 10.8181818,20.6808421 10.8181818,20.1578947 L10.8181818,19.2105263 L13.5454545,19.2105263 L13.5454545,21.1052632 L13.5454545,21.1052632 Z M13.5454545,18.2631579 L10.8181818,18.2631579 L10.8181818,17.3157895 C10.8181818,16.7928421 11.2245455,16.3684211 11.7272727,16.3684211 L13.5454545,16.3684211 L13.5454545,18.2631579 L13.5454545,18.2631579 Z M17.1818182,20.1578947 C17.1818182,20.6808421 16.7754545,21.1052632 16.2727273,21.1052632 L14.4545455,21.1052632 L14.4545455,19.2105263 L17.1818182,19.2105263 L17.1818182,20.1578947 L17.1818182,20.1578947 Z M17.1818182,18.2631579 L14.4545455,18.2631579 L14.4545455,16.3684211 L16.2727273,16.3684211 C16.7754545,16.3684211 17.1818182,16.7928421 17.1818182,17.3157895 L17.1818182,18.2631579 L17.1818182,18.2631579 Z M17.1818182,14.4736842 L10.8181818,14.4736842 L10.8181818,8.78947368 L17.1818182,8.78947368 L17.1818182,14.4736842 L17.1818182,14.4736842 Z"/>
  </g>
</svg>
