<svg width="16" height="16" viewBox="0 0 16 16">
  <g fill="none" fill-rule="evenodd">
    <circle cx="8" cy="8" r="8" fill="#FFF" opacity=".6"/>
    <circle cx="8" cy="8" r="7" fill="#8C5F93"/>
    <path fill="#FFF" d="M9.62152175,4 C9.41107981,4 9.24224616,4.18846539 9.24224616,4.42138015 L9.24224616,4.88898767 L6.75775102,4.88898767 C6.33926761,4.88898767 6,5.26591844 6,5.73085898 L6,11.1581287 C6,11.6230692 6.33926761,12 6.75775102,12 L9.24224616,12 C9.66072957,12 9.99999718,11.6230692 9.99999718,11.1110123 L9.99999718,4.37337482 C10.0007973,4.18846539 9.83116353,4 9.62152175,4 L9.62152175,4 Z M9.24304632,8.44493833 L6.75855118,8.44493833 L6.75855118,5.63751528 L9.24304632,5.63751528 L9.24304632,8.44493833 L9.24304632,8.44493833 Z"/>
  </g>
</svg>
