<svg height="24" viewBox="0 0 24 24" width="24"><g fill="none" fill-rule="evenodd"><circle cx="12" cy="12" fill="#fff" opacity=".6" r="12"/><circle cx="12" cy="12" fill="#8c5f93" r="11"/><path d="m15.1111111 5c-.4915555 0-.8888889.41813333-.8888889.93333333v.93333334h-4.44444442c-.98133334 0-1.77777778.83626666-1.77777778 1.86666666v8.39999997c0 1.0304.79644444 1.8666667 1.77777778 1.8666667h4.44444442c.9813334 0 1.7777778-.8362667 1.7777778-1.8666667v-11.19999997c0-.5152-.3973333-.93333333-.8888889-.93333333zm-3.5555555 12.1333333h-1.77777782v-.9333333h1.77777782zm0-1.8666666h-1.77777782v-.9333334h1.77777782zm2.6666666 1.8666666h-1.7777778v-.9333333h1.7777778zm0-1.8666666h-1.7777778v-.9333334h1.7777778zm0-2.8h-4.44444442v-3.73333337h4.44444442z" fill="#fff"/></g></svg>