<?xml version="1.0" encoding="UTF-8" standalone="no"?>
<svg width="17px" height="17px" viewBox="0 0 17 17" version="1.1" xmlns="http://www.w3.org/2000/svg" xmlns:xlink="http://www.w3.org/1999/xlink">
    <!-- Generator: Sketch 3.8.3 (29802) - http://www.bohemiancoding.com/sketch -->
    <title>monument-s</title>
    <desc>Created with Sketch.</desc>
    <defs></defs>
    <g id="POI-Clear" stroke="none" stroke-width="1" fill="none" fill-rule="evenodd">
        <g id="monument-s">
            <circle id="Oval-1-Copy-43" fill-opacity="0.6" fill="#FFFFFF" cx="8.5" cy="8.5" r="8.5"></circle>
            <circle id="Oval-1-Copy-42" fill="#8C4D16" cx="8.5" cy="8.5" r="7.5"></circle>
            <path d="M8.5,4 C8.5,4 7,5.5 7,6 L7,10 L6.5,10 C6.22299,10 6.03629,10.2254 6,10.5 L6,12 L5.5,12 C5.223,12 5,12.223 5,12.5 L5,13 L12,13 L12,12.5 C12,12.223 11.77699,12 11.5,12 L11,12 L11,10.5 C11,10.223 10.777,10 10.5,10 L10,10 L10,6 C10,5.5 8.5,4 8.5,4 L8.5,4 Z" id="path11719-7" fill="#FFFFFF"></path>
        </g>
    </g>
</svg>