<?xml version="1.0" encoding="UTF-8" standalone="no"?>
<svg width="21px" height="17px" viewBox="0 0 21 17" version="1.1" xmlns="http://www.w3.org/2000/svg" xmlns:xlink="http://www.w3.org/1999/xlink" xmlns:sketch="http://www.bohemiancoding.com/sketch/ns">
    <!-- Generator: Sketch 3.3.3 (12072) - http://www.bohemiancoding.com/sketch -->
    <title>mosmetro-s</title>
    <desc>Created with Sketch.</desc>
    <defs></defs>
    <g id="Icons" stroke="none" stroke-width="1" fill="none" fill-rule="evenodd" sketch:type="MSPage">
        <g id="Subways" sketch:type="MSLayerGroup" transform="translate(-3.000000, -11.000000)">
            <g id="mosmetro-s" transform="translate(3.502392, 10.000000)" sketch:type="MSShapeGroup">
                <path d="M10.8899994,16.3054708 L10,17.9552619 L10,7.3926004 L10.7718685,5.81325094 C11.3009882,4.73059903 12.3592275,2.56529523 12.3592275,2.56529523 L13.2779667,0.990007698 L14.1912371,2.63609626 L18.1306763,12.7683795 L19.0047851,12.7683793 L20.0047851,12.7683793 L20.0047851,13.7683794 L20.004785,15.8561666 L20.0047849,16.8561667 L19.0047849,16.8561666 L12.9748425,16.8561662 L11.9748425,16.8561662 L11.9748425,15.8561662 L11.9748425,14.7507324 L11.9748425,14.3456421 L10.8899994,16.3054708 L10.8899994,16.3054708 Z M9.11635029,16.3154631 L10,17.9652542 L10,7.4025927 L7.64555756,2.57528753 L6.72681836,1 L5.81354798,2.64608856 L1.87410883,12.7783718 L1.00000004,12.7783716 L0,12.7783716 L3.67033266e-08,13.7783717 L1.13332057e-07,15.8661589 L1.50035383e-07,16.866159 L1.00000017,16.8661589 L7.02994261,16.8661585 L8.02994255,16.8661585 L8.02994255,15.8661585 L8.02994255,14.7607247 L8.02994255,14.3556344 L9.11635029,16.3154631 L9.11635029,16.3154631 Z" id="Shape" fill="#FFFFFF"></path>
                <path d="M10.0054684,15.8358423 L12.6657112,10.6678614 L13.7848416,13.6898233 L12.9748425,13.6898233 L12.9748425,15.8561662 L19.004785,15.8561666 L19.0047851,13.7683793 L17.4669079,13.7683793 L13.2598006,3 L10.0023925,9.74833576 L6.7449845,3 L2.53787719,13.7683793 L1,13.7683793 L1.00000008,15.8561666 L7.02994251,15.8561662 L7.02994251,13.6898233 L6.21994349,13.6898233 L7.33907382,10.6678614 L9.99931669,15.8358423 L9.99931669,15.8477929 L10.0023925,15.8418176 L10.0054684,15.8477929 L10.0054684,15.8358423 Z" id="Rectangle-60-Copy-4" fill="#D73535"></path>
            </g>
        </g>
    </g>
</svg>