<svg width="28" height="28" viewBox="0 0 28 28">
  <g fill="none" fill-rule="evenodd">
    <circle cx="14" cy="14" r="14" fill="#FFF" opacity=".6"/>
    <circle cx="14" cy="14" r="13" fill="#664E42"/>
    <path fill="#FFF" d="M22,14 L22,19 L21,19 L21,16 L6,16 L6,19 L5,19 L5,14 L7,14 L22,14 Z M7,13 C8.104,13 9,12.104 9,11 C9,9.896 8.104,9 7,9 C5.896,9 5,9.896 5,11 C5,12.104 5.896,13 7,13 L7,13 Z M21.02,10.804 L10.981,9.197 C10.44,9.089 10.001,9.448 10.001,10.001 L10.001,13.001 L22.001,13.001 L22.001,12.001 C22,11.447 21.561,10.912 21.02,10.804 L21.02,10.804 Z"/>
  </g>
</svg>
