<svg width="24" height="24" viewBox="0 0 24 24">
  <g fill="none" fill-rule="evenodd">
    <circle cx="12" cy="12" r="12" fill="#FFF" opacity=".6"/>
    <circle cx="12" cy="12" r="11" fill="#664E42"/>
    <path fill="#FFF" d="M18,12 L18,16 L17,16 L17,14 L6,14 L6,16 L5,16 L5,12 L7,12 L18,12 Z M6.5,11 C7.328,11 8,10.328 8,9.5 C8,8.672 7.328,8 6.5,8 C5.672,8 5,8.672 5,9.5 C5,10.328 5.672,11 6.5,11 L6.5,11 Z M17.02,8.804 L9.981,8.197 C9.44,8.089 9.001,8.448 9.001,9.001 L9.001,11.001 L18.001,11.001 L18.001,10.001 C18,9.447 17.561,8.912 17.02,8.804 L17.02,8.804 Z"/>
  </g>
</svg>
