<?xml version="1.0" encoding="UTF-8" standalone="no"?>
<svg width="17px" height="17px" viewBox="0 0 17 17" version="1.1" xmlns="http://www.w3.org/2000/svg" xmlns:xlink="http://www.w3.org/1999/xlink">
    <!-- Generator: Sketch 3.8.3 (29802) - http://www.bohemiancoding.com/sketch -->
    <title>motel-s</title>
    <desc>Created with Sketch.</desc>
    <defs></defs>
    <g id="POI-Clear" stroke="none" stroke-width="1" fill="none" fill-rule="evenodd">
        <g id="motel-s">
            <path d="M8.5,17 C3.812,17 0,13.188 0,8.5 C0,3.812 3.812,0 8.5,0 C13.188,0 17,3.812 17,8.5 C17,13.188 13.188,17 8.5,17 L8.5,17 Z" id="Shape" fill-opacity="0.6" fill="#FFFFFF"></path>
            <ellipse id="Oval" fill="#5D4037" cx="8.5" cy="8.5" rx="7.5" ry="7.5"></ellipse>
            <path d="M5,9 L13,9 L13,11 L12,11 L12,10 L5,10 L5,11 L4,11 L4,9 L5,9 L5,9 L5,9 Z M5,8 C5.553,8 6,7.553 6,7 C6,6.447 5.553,6 5,6 C4.447,6 4,6.447 4,7 C4,7.553 4.447,8 5,8 L5,8 Z M12.51,6.902 L7.49,6.097 C7.219,6.043 7,6.223 7,6.499 L7,7.999 L13,7.999 L13,7.499 C13,7.224 12.78,6.956 12.51,6.902 L12.51,6.902 Z" id="Shape" fill="#FFFFFF"></path>
        </g>
    </g>
</svg>