<?xml version="1.0" encoding="UTF-8" standalone="no"?>
<svg width="27px" height="27px" viewBox="0 0 27 27" version="1.1" xmlns="http://www.w3.org/2000/svg" xmlns:xlink="http://www.w3.org/1999/xlink">
    <!-- Generator: Sketch 3.8.3 (29802) - http://www.bohemiancoding.com/sketch -->
    <title>motorcycle_shop-l</title>
    <desc>Created with Sketch.</desc>
    <defs>
        <path d="M13.5,26 C20.4035594,26 26,20.4035594 26,13.5 C26,6.59644063 20.4035594,1 13.5,1 C6.59644063,1 1,6.59644063 1,13.5 C1,20.4035594 6.59644063,26 13.5,26 L13.5,26 Z" id="path-1"></path>
    </defs>
    <g id="POI-Clear" stroke="none" stroke-width="1" fill="none" fill-rule="evenodd">
        <g id="motorcycle_shop-l">
            <g id="moto-sharing">
                <g id="POI">
                    <g id="lighthouse-l">
                        <circle id="Oval-1-Copy-39" fill-opacity="0.6" fill="#FFFFFF" cx="13.5" cy="13.5" r="13.5"></circle>
                        <g id="Oval-1-Copy-38">
                            <use fill="#2D7970" xlink:href="#path-1"></use>
                            <use fill="#825089" xlink:href="#path-1"></use>
                        </g>
                    </g>
                    <path d="M15.6221202,9 L15.6218262,8.99780273 L16.088501,7.99462891 L14.0395508,6.8503418 L14.0626221,5.9909668 L15.1065024,6.35072656 C16.1503886,6.71048838 17.3409862,7.83146249 17.761614,8.85305776 L19.0770264,12.0478516 L19.0701358,13.0008057 C20.694593,13.0381644 22,14.3699118 22,16 C22,17.6568542 20.6534829,19 19,19 C17.6732743,19 16.5476986,18.136613 16.1518281,16.9435871 L10.9873056,16.277502 C10.846945,17.8042664 9.56011044,19 8,19 C6.34314575,19 5,17.6534829 5,16 C5,14.6920315 5.83914661,13.5795654 7.00601138,13.1690545 L5.51452637,11.0323486 L5.80780555,9.98044117 C5.9560033,9.44889879 6.522141,9.0884335 7.07392819,9.16951362 L12.0489966,9.90055474 C12.6118866,9.98326632 12.9106568,10.4748982 12.7411173,11.0022892 L12.0944824,13.0137939 L15.1273193,13.0450439 L16.0238037,12.0014648 L15.7559494,10 L15.5046844,10 C15.2259549,10 15,9.76806641 15,9.5 C15,9.22385763 15.214035,9 15.5046844,9 L15.6221202,9 Z M7.9359756,14.501324 C7.13198907,14.5346495 6.5,15.19288 6.5,16 C6.5,16.8342028 7.17157288,17.5 8,17.5 C8.80535031,17.5 9.45374287,16.874079 9.4976312,16.0853739 L8.99658203,16.020752 L7.9359756,14.501324 Z M17.5,16 C17.5,15.1715729 18.1657972,14.5 19,14.5 C19.8284271,14.5 20.5,15.1657972 20.5,16 C20.5,16.8284271 19.8342028,17.5 19,17.5 C18.1715729,17.5 17.5,16.8342028 17.5,16 Z" id="Combined-Shape" fill="#FFFFFF"></path>
                </g>
            </g>
        </g>
    </g>
</svg>