<svg width="24" height="24" viewBox="0 0 24 24">
  <g fill="none" fill-rule="evenodd">
    <rect width="24" height="24" fill="#FFF" opacity=".6" rx="3.5"/>
    <rect width="22" height="22" x="1" y="1" fill="#2E89B0" rx="3"/>
    <path fill="#FFF" d="M13.9972896,8.00694379 L13.9970129,8.00474805 L14.4362362,7.00227081 C13.7934283,6.62110663 12.5078125,5.85877827 12.5078125,5.85877827 L12.5295267,5 L13.4194782,5.32565333 C14.4496273,5.7026081 15.6175289,6.84562098 16.016477,7.87440574 L17.248966,11.052679 L17.242481,12.0049271 C18.7713818,12.0402043 20,13.2976701 20,14.8265133 L20,15.177653 C20,16.7363922 18.7326898,18 17.1764706,18 C15.8823017,18 14.7914942,17.1241923 14.4578797,15.939817 L9.64520456,15.2807746 C9.59078166,16.7917438 8.34528226,18 6.82352941,18 C5.26413718,18 4,16.7284379 4,15.177653 L4,14.8265133 C4,13.5979724 4.78725464,12.5527676 5.88273091,12.1650724 L4.48426011,10.0378812 L4.7572,8.99846238 C4.89976781,8.45553087 5.45788183,8.09925975 6.00839361,8.18514857 L10.5778886,8.89806434 C11.1235716,8.9831998 11.4453241,9.48081782 11.2857575,10.0078426 L10.6771599,12.0179506 L13.5315947,12.0491789 L14.3753447,11.0063245 L14.1232465,9.00624941 L13.9063308,9.00624941 C13.6331895,9.00624941 13.4117647,8.77447687 13.4117647,8.5065966 C13.4117647,8.23064598 13.6425781,8.00694379 13.9063308,8.00694379 L13.9972896,8.00694379 Z M6.76322156,13.5043724 C6.00655196,13.5357494 5.41176471,14.1549906 5.41176471,14.9142982 L5.41176471,15.0898681 C5.41176471,15.8652605 6.04383329,16.5010416 6.82352941,16.5010416 C7.60866143,16.5010416 8.23529412,15.8692377 8.23529412,15.0898681 L8.23529412,15.087703 L7.76148897,15.0228207 L6.76322137,13.5043721 Z M15.7647059,14.9142982 L15.7647059,15.0898681 C15.7647059,15.8652605 16.3967745,16.5010416 17.1764706,16.5010416 C17.9616026,16.5010416 18.5882353,15.8692377 18.5882353,15.0898681 L18.5882353,14.9142982 C18.5882353,14.1389058 17.9561667,13.5031247 17.1764706,13.5031247 C16.3913386,13.5031247 15.7647059,14.1349286 15.7647059,14.9142982 Z"/>
  </g>
</svg>
