<svg height="20" viewBox="0 0 20 20" width="20"><g fill="none" fill-rule="evenodd"><rect fill="#fff" height="20" opacity=".6" rx="2.5" width="20"/><rect fill="#2e89b0" height="18" rx="2" width="18" x="1" y="1"/><path d="m11.9807825 6.75620566-.0004114-.00201265.4355631-.9188843c-.6374511-.34938028-1.9123535-1.04814085-1.9123535-1.04814085l.0215332-.78716786.8524164.2883112c1.03672.35064792 2.302762 1.42942689 2.8129952 2.40451828l1.0146991 1.93916141-.0064941.88142674-1.0347217.95302307c.1490749-.030376.3034609-.0463264.4616441-.0463264h.0820275c1.2660132 0 2.2923196 1.016425 2.2923196 2.2899428 0 1.2647006-1.0241198 2.2899429-2.2923196 2.2899429h-.0820275c-1.1386048 0-2.0833221-.8221385-2.2619383-1.9140375l-4.71714985-.682327c.01325851.1001506.02010192.202429.02010192.3064216 0 1.2647006-1.02411981 2.2899429-2.29231959 2.2899429h-.08202749c-1.26601315 0-2.29231959-1.0164251-2.29231959-2.2899429 0-1.2647005 1.0241198-2.2899428 2.29231959-2.2899428h.08202749c.01320036 0 .02637467.0001105.03952202.0003306l-1.93364449-2.71863149.03431216-.06067939c.26382459-.46656105.93119605-.8003103 1.47712022-.72158344l4.53141583.65346831c.54113568.07803633.78924118.5457612.54346368 1.04315038l-.44501957.90060277 1.89731447.02862429.8367187-.95589461-.1875209-.91731891h-.3161613c-.2495597 0-.4518679-.21244588-.4518679-.45798858 0-.2529401.199766-.45798857.4518679-.45798857zm-7.5807825 5.95385144c0 .5094071.40807459.9159772.91146011.9159772h.04374644c.49718628 0 .91146012-.410097.91146012-.9159772 0-.5094071-.4080746-.9159771-.91146012-.9159771h-.04374644c-.49718628 0-.91146011.4100969-.91146011.9159771zm9.3333333 0c0 .5094071.4080746.9159772.9114601.9159772h.0437465c.4971863 0 .9114601-.410097.9114601-.9159772 0-.5094071-.4080746-.9159771-.9114601-.9159771h-.0437465c-.4971862 0-.9114601.4100969-.9114601.9159771z" fill="#fff"/></g></svg>