<?xml version="1.0" encoding="UTF-8"?>
<svg version="1.1" viewBox="0 0 24 24" width="18" height="18" xmlns="http://www.w3.org/2000/svg">
	<path d="m12 24c6.6274 0 12-5.3726 12-12 0-6.6274-5.3726-12-12-12-6.6274 0-12 5.3726-12 12 0 6.6274 5.3726 12 12 12z" fill="#fff" opacity=".6"/>
	<path d="m12 23c6.0751 0 11-4.9249 11-11s-4.9248-11-11-11c-6.0751 0-11 4.9248-11 11s4.9248 11 11 11z" fill="#717065"/>
	<path d="m5.0001 16.197c0 0.46421 0.38683 0.85108 0.85105 0.85108h5.1664v1.7278c0 0.47284 0.38686 0.85108 0.85108 0.85108h0.0086c0.47273 0 0.85108-0.38686 0.85108-0.85108v-1.7278h5.1664c0.47284 0 0.85108-0.38686 0.85108-0.85108 0-0.47285-0.38686-0.85108-0.85108-0.85108h-12.044c-0.46421-0.0085-0.85115 0.37823-0.85115 0.85108z" fill="#fff"/>
	<path d="m17.445 9.0834c-0.1225 0-0.245 0.020417-0.36073 0.034066l-1.402-1.3951h1.0821c0.37426 0 0.68051-0.30625 0.68051-0.68055v-0.25861c0-0.50361-0.53083-0.83708-0.98676-0.60569l-1.5517 0.77583-1.749-1.749c-0.1225-0.1293-0.29948-0.20416-0.47634-0.20416h-2.0416c-0.37438 0-0.68063 0.30625-0.68063 0.68055s0.30625 0.68055 0.68063 0.68055h1.4768c0.18375 0 0.35385 0.074864 0.48311 0.19736l1.1637 1.1637h-2.2799c-0.10885 0-0.21093 0.027218-0.30625 0.074864l-2.1369 1.0684c-0.25861 0.12938-0.57846 0.081666-0.78263-0.12927l-0.81666-0.81666c-0.1293-0.1225-0.30625-0.19736-0.48319-0.19736h-2.4432c-0.3743 0-0.68055 0.30625-0.68055 0.68055 0 0.37431 0.30625 0.68056 0.68055 0.68056h2.0416c-1.715 0-3.0557 1.5788-2.6474 3.362 0.22458 0.98676 1.0208 1.783 2.0076 2.0076 1.783 0.40833 3.362-0.93239 3.362-2.6474l0.95954 0.95957c0.25865 0.25865 0.60573 0.40156 0.96646 0.40156h0.68728c0.49 0 0.93916-0.25865 1.1842-0.68739l1.9804-3.464 0.68739 0.68739c-0.76906 0.61926-1.1978 1.6401-0.93916 2.7562 0.23135 0.97999 1.0276 1.7762 2.0076 2.0008 1.7762 0.40145 3.3551-0.94604 3.3551-2.6541 0-1.5041-1.2179-2.7222-2.7218-2.7222zm-10.889 4.0833c-0.74861 0-1.3611-0.61249-1.3611-1.3611s0.61249-1.3611 1.3611-1.3611c0.74861 0 1.3611 0.61249 1.3611 1.3611s-0.61249 1.3611-1.3611 1.3611zm10.889 0c-0.74864 0-1.3611-0.61249-1.3611-1.3611s0.61249-1.3611 1.3611-1.3611c0.74853 0 1.3611 0.61249 1.3611 1.3611s-0.61249 1.3611-1.3611 1.3611z" fill="#fff"/>
</svg>
