<svg width="16" height="16" viewBox="0 0 16 16">
  <g fill="none" fill-rule="evenodd">
    <circle cx="8" cy="8" r="8" fill="#FFF" opacity=".6"/>
    <circle cx="8" cy="8" r="7" fill="#8C5F93"/>
    <path fill="#FFF" fill-rule="nonzero" d="M10.6363601,4 L8.09673716,6.53962294 C8.10634519,6.88431107 8.14757966,7.25051719 8.39698815,7.37782361 L10.961632,4.8006693 L12,4.8006693 L12,4 L10.6363601,4 Z M7.22100511,5.68891181 C7.15506247,5.6833259 7.08749351,5.69621791 7.02083779,5.72644318 C6.56645796,5.93261552 6.22577317,6.36817962 6.22016849,6.8774053 C6.21736614,7.12080877 6.03701538,7.32778178 5.79481292,7.32778178 C4.93649543,7.32738145 3.66653384,8.18049459 4.0808802,9.47958053 C4.21979632,9.91554496 5.03397692,11.2060237 6.22016849,11.2060237 C7.16936194,11.2060237 7.947012,10.4331777 7.94661167,9.47958053 C7.94661167,9.23978007 8.11965632,9.05222329 8.35945677,9.05422496 C8.74778138,9.05742764 9.0754553,8.79390735 9.18514699,8.44121253 C9.22397945,8.31590778 9.12839955,8.18609927 8.99749012,8.17849291 C8.43501994,8.14606581 8.13476895,7.98893446 7.94661167,7.75313735 C7.65556838,7.38803215 7.60312454,6.94796428 7.59631885,6.08924646 C7.59451734,5.86976298 7.41883288,5.70566957 7.22100511,5.68891181 Z M6.79564955,7.60301185 L7.59631885,8.40368115 L7.1959842,8.8040158 L6.3953149,8.0033465 L6.79564955,7.60301185 Z M5.99498025,8.40368115 L6.79564955,9.20435045 L6.3953149,9.6046851 L5.5946456,8.8040158 L5.99498025,8.40368115 Z"/>
  </g>
</svg>
