<svg width="28" height="28" viewBox="0 0 28 28">
  <g fill="none" fill-rule="evenodd">
    <circle cx="14" cy="14" r="14" fill="#FFF" opacity=".6"/>
    <circle cx="14" cy="14" r="13" fill="#8C5F93"/>
    <path fill="#FFF" fill-rule="nonzero" d="M19.2727202,7 L14.1934743,12.0792459 C14.2126904,12.7686221 14.2951593,13.5010344 14.7939763,13.7556472 L19.923264,8.6013386 L22,8.6013386 L22,7 L19.2727202,7 Z M12.4420102,10.3778236 C12.3101249,10.3666518 12.174987,10.3924358 12.0416756,10.4528864 C11.1329159,10.865231 10.4515463,11.7363592 10.440337,12.7548106 C10.4347323,13.2416175 10.0740308,13.6555636 9.58962584,13.6555636 C7.87299086,13.6547629 5.33306767,15.3609892 6.1617604,17.9591611 C6.43959265,18.8310899 8.06795384,21.4120474 10.440337,21.4120474 C12.3387239,21.4120474 13.894024,19.8663553 13.8932233,17.9591611 C13.8932233,17.4795601 14.2393126,17.1044466 14.7189135,17.1084499 C15.4955628,17.1148553 16.1509106,16.5878147 16.370294,15.8824251 C16.4479589,15.6318156 16.2567991,15.3721985 15.9949802,15.3569858 C14.8700399,15.2921316 14.2695379,14.9778689 13.8932233,14.5062747 C13.3111368,13.7760643 13.2062491,12.8959286 13.1926377,11.1784929 C13.1890347,10.739526 12.8376658,10.4113391 12.4420102,10.3778236 Z M11.5912991,14.2060237 L13.1926377,15.8073623 L12.3919684,16.6080316 L10.7906298,15.006693 L11.5912991,14.2060237 Z M9.98996049,15.8073623 L11.5912991,17.4087009 L10.7906298,18.2093702 L9.18929119,16.6080316 L9.98996049,15.8073623 Z"/>
  </g>
</svg>
