<svg width="28" height="28" viewBox="0 0 28 28">
  <g fill="none" fill-rule="evenodd">
    <circle cx="14" cy="14" r="14" fill="#FFF" opacity=".6"/>
    <circle cx="14" cy="14" r="13" fill="#7F5933"/>
    <path fill="#FFF" fill-rule="nonzero" d="M13.7540032,7.00409761 C11.0285452,7.09604077 8.5219995,8.80355663 7.47122052,11.535582 C6.07018186,15.1782825 7.9002886,19.1756209 11.5429891,20.5766595 C13.4343913,21.2771789 15.3827107,21.1283185 16.9939051,20.3577473 C16.013178,20.4277992 15.0368292,20.3577473 14.1261541,20.0074876 C10.9037652,18.6765009 9.29694901,15.1082306 10.5578838,11.8858417 C11.6787147,9.01371242 14.6909478,7.40689622 17.5630771,7.96731168 C17.2128174,7.75715588 16.9326097,7.60391728 16.5122981,7.46381341 C15.6016229,7.11355375 14.6624892,6.97344989 13.7540032,7.00409761 Z M18.2635964,11.1853223 L17.4317297,12.9366206 L15.5271928,13.1555329 L16.8625577,14.5565716 L16.5779718,16.4392173 L18.2635964,15.5197857 L19.949221,16.4392173 L19.664635,14.5565716 L21,13.1555329 L19.0954631,12.9366206 L18.2635964,11.1853223 Z"/>
  </g>
</svg>
