<svg version="1.1" viewBox="0 0 24 24" xmlns="http://www.w3.org/2000/svg">
 <title>muslim-m</title>
 <g fill="none" fill-rule="evenodd">
  <g id="muslim-m" fill-rule="nonzero">
   <circle id="Oval" cx="12" cy="12" r="12" fill="#fff" opacity=".6"/>
   <circle id="Oval" cx="12" cy="12" r="11" fill="#7F5933"/>
   <path id="Shape" d="m15.477 11.959-1.0329-0.6972h1.3206l0.45715-1.1077 0.45715 1.1077h1.3206l-1.0329 0.6972 0.58845 1.4259-1.3296-0.92308-1.337 0.92308 0.58845-1.4259zm-0.05983-4.6682c-0.57389-0.23685-1.2027-0.36746-1.862-0.36746-2.6946 0-4.8889 2.1931-4.8889 4.8985v0.35691c0 2.7077 2.1888 4.8985 4.8889 4.8985 0.65946 0 1.289-0.13136 1.8637-0.36944-0.99464 0.80809-2.2626 1.2925-3.6414 1.2925-3.191 0-5.7778-2.589-5.7778-5.7715v-0.45693c0-3.1875 2.5933-5.7715 5.7778-5.7715 1.3796 0 2.6462 0.48393 3.6397 1.2905z" fill="#fff"/>
  </g>
 </g>
</svg>
