<svg width="16" height="16" viewBox="0 0 16 16">
  <g fill="none" fill-rule="evenodd">
    <circle cx="8" cy="8" r="8" fill="#FFF" opacity=".6"/>
    <circle cx="8" cy="8" r="7" fill="#7F5933"/>
    <path fill="#FFF" d="M10.7268306,5.39602227 C10.2590777,5.07536468 9.69969425,4.88888889 9.09867337,4.88888889 C7.45605364,4.88888889 6.12444724,6.28178078 6.12444724,8 C6.12444724,9.71821922 7.45605364,11.1111111 9.09867337,11.1111111 C9.69969425,11.1111111 10.2590777,10.9246353 10.7268306,10.6039777 C10.0255109,11.4586111 8.98520024,12 7.82400503,12 C5.71206537,12 4,10.209139 4,8 C4,5.790861 5.71206537,4 7.82400503,4 C8.98520024,4 10.0255109,4.54138889 10.7268306,5.39602227 Z M10.8258861,6.32613178 L12.0276549,7.52790061 L10.7705762,8.78497934 L9.56880738,7.5832105 L10.8258861,6.32613178 Z"/>
  </g>
</svg>
