<?xml version="1.0" encoding="UTF-8" standalone="no"?>
<svg width="19px" height="19px" viewBox="0 0 19 19" version="1.1" xmlns="http://www.w3.org/2000/svg" xmlns:xlink="http://www.w3.org/1999/xlink">
    <!-- Generator: Sketch 3.8.3 (29802) - http://www.bohemiancoding.com/sketch -->
    <title>no-icon-shop</title>
    <desc>Created with Sketch.</desc>
    <defs></defs>
    <g id="POI-Clear" stroke="none" stroke-width="1" fill="none" fill-rule="evenodd">
        <g id="no-icon-shop">
            <g id="no-icon-copy-3" fill="#BD0FE1">
                <circle id="Oval-325" cx="9.5" cy="9.5" r="9.5"></circle>
            </g>
            <path d="M10.8525391,11.5878906 C10.8525391,11.2324201 10.7266451,10.9467784 10.4748535,10.730957 C10.2230619,10.5151356 9.78190419,10.3120127 9.15136719,10.121582 C8.05110127,9.80419763 7.21956662,9.42757379 6.65673828,8.99169922 C6.09390995,8.55582464 5.8125,7.95915092 5.8125,7.20166016 C5.8125,6.44416939 6.1351693,5.82527909 6.78051758,5.3449707 C7.42586586,4.86466231 8.24999499,4.62451172 9.25292969,4.62451172 C10.2685598,4.62451172 11.0958627,4.89428441 11.7348633,5.43383789 C12.3738639,5.97339137 12.6827801,6.63883068 12.6616211,7.43017578 L12.6489258,7.46826172 L10.8525391,7.46826172 C10.8525391,7.04085073 10.7097182,6.69490692 10.4240723,6.43041992 C10.1384263,6.16593292 9.73747003,6.03369141 9.22119141,6.03369141 C8.72607174,6.03369141 8.34310031,6.14371635 8.07226562,6.36376953 C7.80143094,6.58382271 7.66601562,6.86523266 7.66601562,7.20800781 C7.66601562,7.52116042 7.81095233,7.77823793 8.10083008,7.97924805 C8.39070783,8.18025817 8.89110973,8.39290252 9.60205078,8.6171875 C10.6219127,8.90071756 11.3942031,9.27522554 11.9189453,9.74072266 C12.4436875,10.2062198 12.7060547,10.8177045 12.7060547,11.5751953 C12.7060547,12.3665404 12.3939647,12.9907204 11.7697754,13.4477539 C11.1455861,13.9047874 10.3214569,14.1333008 9.29736328,14.1333008 C8.29019679,14.1333008 7.41211312,13.8741074 6.66308594,13.3557129 C5.91405875,12.8373184 5.5501301,12.110519 5.57128906,11.175293 L5.58398438,11.137207 L7.38671875,11.137207 C7.38671875,11.68734 7.55492996,12.0904121 7.89135742,12.3464355 C8.22778489,12.602459 8.69644882,12.7304688 9.29736328,12.7304688 C9.80094653,12.7304688 10.1860338,12.6267914 10.4526367,12.4194336 C10.7192396,12.2120758 10.8525391,11.9348976 10.8525391,11.5878906 L10.8525391,11.5878906 Z" id="S" fill="#FFFFFF"></path>
        </g>
    </g>
</svg>