<?xml version="1.0" encoding="UTF-8"?>
<svg width="24px" height="24px" viewBox="0 0 24 24" version="1.1" xmlns="http://www.w3.org/2000/svg" xmlns:xlink="http://www.w3.org/1999/xlink">
    <title>nparkF-m</title>
    <g id="Page-1" stroke="none" stroke-width="1" fill="none" fill-rule="evenodd">
        <g id="nparkF-m" fill-rule="nonzero">
            <circle id="Oval" fill="#FFFFFF" opacity="0.6" cx="12" cy="12" r="12"></circle>
            <circle id="Oval" fill="#507F34" cx="12" cy="12" r="11"></circle>
            <path d="M15.4973601,11.7263281 L15.5555495,11.7263281 C16.1447169,11.7263281 16.4865795,11.064424 16.1519906,10.5843616 L12.4569652,5.31094947 C12.1660184,4.89635018 11.5550299,4.89635018 11.2640831,5.31094947 L7.59815241,10.5843616 C7.2635635,11.064424 7.61269976,11.7263281 8.20186718,11.7263281 L8.23096187,11.7263281 L6.12159701,14.9703858 C5.80155545,15.4504481 6.1506917,16.0905312 6.73258546,16.0905312 L10.4276108,16.0905312 L10.4276108,17.559813 C10.4276108,18.3526432 11.0749676,19 11.8677978,19 L11.8677978,19 C12.6606281,19 13.3079849,18.3526432 13.3079849,17.559813 L13.3079849,16.0905312 L17.0539259,16.0905312 C17.6358196,16.0905312 17.9849559,15.4431744 17.6576407,14.9631121 L15.4973601,11.7263281 Z" id="Path" fill="#FFFFFF"></path>
        </g>
    </g>
</svg>