<svg version="1.1" viewBox="0 0 24 24" xmlns="http://www.w3.org/2000/svg">
 <title>nparkF-m</title>
 <g fill="none" fill-rule="evenodd">
  <g id="nparkF-m" fill-rule="nonzero">
   <circle id="Oval" cx="12" cy="12" r="12" fill="#fff" opacity=".6"/>
   <circle id="Oval" cx="12" cy="12" r="11" fill="#507F34"/>
   <path id="Path" d="m15.497 11.726h0.058189c0.58917 0 0.93103-0.6619 0.59644-1.142l-3.695-5.2734c-0.29095-0.4146-0.90194-0.4146-1.1929 0l-3.6659 5.2734c-0.33459 0.48006 0.014547 1.142 0.60371 1.142h0.029095l-2.1094 3.2441c-0.32004 0.48006 0.029095 1.1201 0.61099 1.1201h3.695v1.4693c0 0.79283 0.64736 1.4402 1.4402 1.4402 0.79283 0 1.4402-0.64736 1.4402-1.4402v-1.4693h3.7459c0.58189 0 0.93103-0.64736 0.60371-1.1274l-2.1603-3.2368z" fill="#fff"/>
  </g>
 </g>
</svg>
