<?xml version="1.0" encoding="UTF-8" standalone="no"?>
<svg width="17px" height="17px" viewBox="0 0 17 17" version="1.1" xmlns="http://www.w3.org/2000/svg" xmlns:xlink="http://www.w3.org/1999/xlink" xmlns:sketch="http://www.bohemiancoding.com/sketch/ns">
    <!-- Generator: Sketch 3.3.3 (12081) - http://www.bohemiancoding.com/sketch -->
    <title>npark-s</title>
    <desc>Created with Sketch.</desc>
    <defs></defs>
    <g id="POI" stroke="none" stroke-width="1" fill="none" fill-rule="evenodd" sketch:type="MSPage">
        <g id="Natural" sketch:type="MSLayerGroup" transform="translate(-71.000000, -5.000000)">
            <g id="npark-s" transform="translate(71.000000, 5.000000)" sketch:type="MSShapeGroup">
                <circle id="Oval-1-Copy-43" fill="#FFFFFF" cx="8.5" cy="8.5" r="8.5"></circle>
                <circle id="Oval-1-Copy-42" fill="#3A7921" cx="8.5" cy="8.5" r="7.5"></circle>
                <path d="M11.2992835,4.7523635 C11.1953392,4.7523635 11.1021478,4.76515368 11.0082395,4.78170568 C10.3472972,4.9254071 9.85194892,5.53632627 9.85194892,6.27063304 C9.85194892,6.31652722 9.86485235,6.35790721 9.86843664,6.40304902 L4,13.0263745 L8.74476304,13.0263745 C11.0322542,13.0263745 12.7473349,10.7223679 12.7473349,8.32308067 L12.7473349,6.82813439 L13.5925798,6.27063304 L12.7200943,5.97420182 C12.5881926,5.27676086 12.0018035,4.7523635 11.2992835,4.7523635 Z M11.3996435,5.84630003 C11.3996435,5.61081025 11.5802915,5.42121465 11.8039509,5.42121465 C12.0276103,5.42121465 12.2096921,5.61081025 12.2096921,5.84630003 C12.2096921,6.0817898 12.0283272,6.27063304 11.8039509,6.27063304 C11.5795746,6.27063304 11.3996435,6.0817898 11.3996435,5.84630003 Z" id="Shape-Copy-9" fill="#FFFFFF"></path>
                <path d="M9.91622198,6.23752905 C10.8273474,7.19453542 10.8273474,8.74590896 9.91622198,9.70216296 C9.00581341,10.6576646 7.52765399,10.6576646 6.61652856,9.70216296 C5.70540314,8.74590896 5.03686793,4.38378521 5.03686793,4.02240729 C5.35044612,4.02240729 9.00653027,5.28127504 9.91622198,6.23752905 Z" id="Shape-Copy-8" fill="#FFFFFF"></path>
            </g>
        </g>
    </g>
</svg>