<svg width="28" height="28" viewBox="0 0 28 28">
  <g fill="none" fill-rule="evenodd">
    <circle cx="14" cy="14" r="14" fill="#FFF" opacity=".6"/>
    <circle cx="14" cy="14" r="13" fill="#507F34"/>
    <path fill="#FFF" fill-rule="nonzero" d="M16.2222222,7 C14,7 12.2222222,8.77777778 12.2222222,11 C12.2222222,15.9777778 9.82222222,17.4888889 6,16.7777778 C6,16.7777778 8.19064667,19.9149307 12.6388889,20.3055556 C12.3843173,20.595792 12.2777778,20.8888889 12.2777778,20.8888889 L13.9444444,21.5555556 C13.9444444,21.5555556 13.9103733,21.5700622 14.0277778,21.4722222 C14.1451849,21.3743831 14.3629627,21.2222222 14.8888889,21.2222222 C15.9407404,21.2222222 17.0277778,21.9444444 17.0277778,21.9444444 L18.0833333,20.5 C18.0833333,20.5 17.348624,19.9736009 16.2777778,19.6666667 C18.5178293,18.4552604 20.0201449,15.6540951 20.1944444,11.75 L22,10.5555556 L19.9444444,9.58333333 C19.3729493,8.07606498 17.9389796,7 16.2222222,7 Z M17.5555556,9.66666667 C18.0888889,9.66666667 18.4444444,10.0222222 18.4444444,10.5555556 C18.4444444,11.0888889 18.0888889,11.4444444 17.5555556,11.4444444 C17.0222222,11.4444444 16.6666667,11.0888889 16.6666667,10.5555556 C16.6666667,10.0222222 17.0222222,9.66666667 17.5555556,9.66666667 Z"/>
  </g>
</svg>
