<?xml version="1.0" encoding="UTF-8"?>
<svg version="1.1" viewBox="0 0 16 16" xmlns="http://www.w3.org/2000/svg">
  <title>nparkF-outline-s</title>
  <g id="nparkF-outline-s">
    <path
      d="m7.9082 2.1094c-0.54376 0-1.0886 0.2379-1.4219 0.71289l-0.00195 0.00195-2.4434 3.5176c-0.34218 0.49094-0.32305 1.0775-0.11719 1.5879l-0.88281 1.3574c-0.73056 1.0958 0.14268 2.6895 1.4473 2.6895h1.3281c0.15288 1.066 0.99137 1.9395 2.0957 1.9395 1.1044 0 1.9448-0.87335 2.0977-1.9395h1.3594c1.315-1e-6 2.1815-1.6111 1.4355-2.7051l-0.89453-1.3438c0.20449-0.51106 0.22288-1.098-0.11719-1.5859v-0.00195l-2.4648-3.5176c-0.33331-0.47499-0.87617-0.71289-1.4199-0.71289z"
      fill="#fff" fill-opacity=".8" />
    <path
      d="m10.332 7.8176h0.03879c0.39278 0 0.62069-0.44127 0.39763-0.76131l-2.4634-3.5156c-0.19396-0.2764-0.60129-0.2764-0.79525 0l-2.444 3.5156c-0.22306 0.32004 0.0097 0.76131 0.40248 0.76131h0.019396l-1.4062 2.1627c-0.21336 0.32004 0.019396 0.74676 0.40733 0.74676h2.4634v0.97952c0 0.52855 0.43157 0.96012 0.96012 0.96012s0.96012-0.43157 0.96012-0.96012v-0.97952h2.4973c0.38793 0 0.62069-0.43157 0.40248-0.75161l-1.4402-2.1579z"
      fill="#507f34" />
  </g>
</svg>