<?xml version="1.0" encoding="UTF-8" standalone="no"?>
<svg width="17px" height="17px" viewBox="0 0 17 17" version="1.1" xmlns="http://www.w3.org/2000/svg" xmlns:xlink="http://www.w3.org/1999/xlink">
    <!-- Generator: Sketch 3.8.3 (29802) - http://www.bohemiancoding.com/sketch -->
    <title>npark-s</title>
    <desc>Created with Sketch.</desc>
    <defs></defs>
    <g id="POI-Clear" stroke="none" stroke-width="1" fill="none" fill-rule="evenodd">
        <g id="npark-s">
            <circle id="Oval-1-Copy-43" fill-opacity="0.6" fill="#FFFFFF" cx="8.5" cy="8.5" r="8.5"></circle>
            <circle id="Oval-1-Copy-42" fill="#3A7921" cx="8.5" cy="8.5" r="7.5"></circle>
            <g id="Shape-Copy-9-+-Shape-Copy-8" transform="translate(4.000000, 4.000000)" fill="#FFFFFF">
                <path d="M5.85468962,2.17628885 C5.89500813,1.48447113 6.37581839,0.919206056 7.00823949,0.781705676 C7.10214778,0.765153679 7.1953392,0.7523635 7.29928349,0.7523635 C8.00180349,0.7523635 8.58819263,1.27676086 8.72009434,1.97420182 L9.59257984,2.27063304 L8.74733491,2.82813439 L8.74733491,4.32308067 C8.74733491,6.72236787 7.03225417,9.02637449 4.74476304,9.02637449 L0,9.02637449 L2.79531927,5.87147814 C2.73365842,5.81883706 2.67396675,5.76239867 2.61652856,5.70216296 C1.70540314,4.74590896 1.03686793,0.383785214 1.03686793,0.0224072896 C1.3437951,0.0224072896 4.85294225,1.22843998 5.85468962,2.17628885 Z M7.39964349,1.84630003 C7.39964349,1.61081025 7.58029149,1.42121465 7.80395092,1.42121465 C8.02761034,1.42121465 8.20969206,1.61081025 8.20969206,1.84630003 C8.20969206,2.0817898 8.0283272,2.27063304 7.80395092,2.27063304 C7.57957463,2.27063304 7.39964349,2.0817898 7.39964349,1.84630003 Z" id="Combined-Shape"></path>
            </g>
        </g>
    </g>
</svg>