<?xml version="1.0" encoding="UTF-8" standalone="no"?>
<svg width="27px" height="27px" viewBox="0 0 27 27" version="1.1" xmlns="http://www.w3.org/2000/svg" xmlns:xlink="http://www.w3.org/1999/xlink" xmlns:sketch="http://www.bohemiancoding.com/sketch/ns">
    <!-- Generator: Sketch 3.4.2 (15857) - http://www.bohemiancoding.com/sketch -->
    <title>npark-l</title>
    <desc>Created with Sketch.</desc>
    <defs></defs>
    <g id="POI" stroke="none" stroke-width="1" fill="none" fill-rule="evenodd" sketch:type="MSPage">
        <g id="npark-l" sketch:type="MSLayerGroup">
            <circle id="Oval-1-Copy-44" fill="#FFFFFF" sketch:type="MSShapeGroup" cx="13.5" cy="13.5" r="13.5"></circle>
            <circle id="Oval-1-Copy-45" fill="#3A7921" sketch:type="MSShapeGroup" cx="13.5" cy="13.5" r="12.5"></circle>
            <g id="Shape-Copy-7-+-Shape-Copy-6-Copy" transform="translate(5.000000, 6.000000)" fill="#FFFFFF" sketch:type="MSShapeGroup">
                <path d="M13.5582294,1.30575109 C13.3777058,1.30575109 13.215857,1.32691593 13.0527633,1.35430572 C11.904882,1.59209892 11.0445935,2.60303125 11.0445935,3.81814203 C11.0445935,3.89408645 11.0670033,3.96256093 11.0732283,4.03726037 L0.88131168,14.9973583 L9.12170553,14.9973583 C13.0944704,14.9973583 16.0731103,11.1847511 16.0731103,7.21447626 L16.0731103,4.74068003 L17.0482533,3.81814189 L16.0258007,3.32761575 C15.7967224,2.17350951 14.7783202,1.30575109 13.5582294,1.30575109 Z M13.7325281,3.11596736 C13.7325281,2.72628531 14.0462657,2.41254769 14.4347028,2.41254769 C14.8231398,2.41254769 15.1393674,2.72628531 15.1393674,3.11596736 C15.1393674,3.5056494 14.8243848,3.81814203 14.4347028,3.81814203 C14.0450207,3.81814203 13.7325281,3.5056494 13.7325281,3.11596736 Z" id="Shape-Copy-7"></path>
                <path d="M2.04829175,0.0607605348 C2.04829175,0.0607605348 9.49831522,2.18097945 11.0782082,3.76336244 C12.6605912,5.34699043 12.6605912,7.91416095 11.0782082,9.49654395 C9.49707023,11.0776819 6.92989971,11.0776819 5.34751672,9.49654395 C3.76513372,7.91416095 2.04829175,0.0607605348 2.04829175,0.0607605348 L2.04829175,0.0607605348 Z" id="Shape-Copy-6"></path>
            </g>
        </g>
    </g>
</svg>