<?xml version="1.0" encoding="UTF-8" standalone="no"?>
<svg width="17px" height="17px" viewBox="0 0 17 17" version="1.1" xmlns="http://www.w3.org/2000/svg" xmlns:xlink="http://www.w3.org/1999/xlink" xmlns:sketch="http://www.bohemiancoding.com/sketch/ns">
    <!-- Generator: Sketch 3.4.1 (15681) - http://www.bohemiancoding.com/sketch -->
    <title>office-s</title>
    <desc>Created with Sketch.</desc>
    <defs></defs>
    <g id="POI" stroke="none" stroke-width="1" fill="none" fill-rule="evenodd" sketch:type="MSPage">
        <g id="heliport-s-copy" sketch:type="MSLayerGroup" transform="translate(-9.000000, 0.000000)">
            <circle id="Oval-1-Copy-43" fill="#FFFFFF" sketch:type="MSShapeGroup" cx="17.5" cy="8.5" r="8.5"></circle>
            <circle id="Oval-1-Copy-42" fill="#7F7D54" sketch:type="MSShapeGroup" cx="17.5" cy="8.5" r="7.5"></circle>
            <path d="M20,6 L20,4.5 L19.5,4 L15.5,4 L15,4.5 L15,6 L13.5,6 L13,6.5 L13,11.5 L13.5,12 L21.5,12 L22,11.499 L22,6.5 L21.5,6 L20,6 Z M16,5 L19,5 L19,6 L16,6 L16,5 Z M15,7 L16,7 L16,11 L15,11 L15,7 Z M20,11 L19,11 L19,7 L20,7 L20,11 Z" id="path17" fill="#FFFFFF" sketch:type="MSShapeGroup"></path>
        </g>
    </g>
</svg>