<svg width="28" height="28" viewBox="0 0 28 28">
  <g fill="none" fill-rule="evenodd">
    <circle cx="14" cy="14" r="14" fill="#FFF" opacity=".6"/>
    <circle cx="14" cy="14" r="13" fill="#717065"/>
    <path fill="#FFF" fill-rule="nonzero" d="M8.4,8 C8.30909185,8.00030394 8.21842943,8.00946176 8.12929684,8.02734375 C8.1218823,8.02883335 8.11479606,8.03120383 8.10742184,8.0328125 C7.46225573,8.17068592 7.00089504,8.74026703 7,9.4 L7,15 C7.00030393,15.0909082 7.00946175,15.1815707 7.02734375,15.2707033 C7.02883335,15.2781177 7.03120383,15.2852038 7.0328125,15.2925783 C7.17068598,15.9377444 7.74026707,16.399105 8.4,16.4 L19.6,16.4 C19.6909082,16.3996962 19.7815707,16.3905385 19.8707033,16.3726566 C19.8781177,16.371167 19.8852038,16.3687961 19.8925783,16.3671875 C20.5377444,16.229314 20.999105,15.6597329 21,15 L21,9.4 C20.9996962,9.30909186 20.9905385,9.21842944 20.9726566,9.12929684 C20.971167,9.1218823 20.9687961,9.11479606 20.9671875,9.10742184 C20.8293141,8.46225573 20.259733,8.00089504 19.6,8 L8.4,8 Z M9.8,9.4 L18.2,9.4 C18.2,10.1731986 18.8268014,10.8 19.6,10.8 L19.6,13.6 C18.8268014,13.6 18.2,14.2268014 18.2,15 L9.8,15 C9.8,14.2268014 9.17319865,13.6 8.4,13.6 L8.4,10.8 C9.17319865,10.8 9.8,10.1731986 9.8,9.4 Z M14,10.1 C12.840202,10.1 11.9,11.040202 11.9,12.2 C11.9,13.359798 12.840202,14.3 14,14.3 C15.159798,14.3 16.1,13.359798 16.1,12.2 C16.1,11.040202 15.159798,10.1 14,10.1 Z M10.5,11.5 C10.1136,11.5 9.8,11.8129 9.8,12.2 C9.8,12.5871 10.1136,12.9 10.5,12.9 C10.8864,12.9 11.2,12.5871 11.2,12.2 C11.2,11.8129 10.8864,11.5 10.5,11.5 Z M17.5,11.5 C17.1136,11.5 16.8,11.8129 16.8,12.2 C16.8,12.5871 17.1136,12.9 17.5,12.9 C17.8864,12.9 18.2,12.5871 18.2,12.2 C18.2,11.8129 17.8864,11.5 17.5,11.5 Z M7,17.1 L7,17.8 C7,17.8965125 7.0100338,17.9905792 7.02871092,18.0816408 C7.06591158,18.2635512 7.13899256,18.4333159 7.23925783,18.5820316 C7.23948029,18.5823613 7.23903509,18.583069 7.23925783,18.5833987 C7.28947779,18.6575574 7.34703312,18.7267209 7.41015625,18.7898434 C7.47348434,18.8531717 7.54212403,18.9104366 7.61660158,18.9607421 C7.61689376,18.9609402 7.61767636,18.9605447 7.61796875,18.9607421 C7.76668431,19.0610073 7.93644852,19.1340887 8.11835934,19.1712888 C8.20942087,19.1899662 8.3034875,19.2 8.4,19.2 C11.5612,19.2 14.5967717,19.7699092 16.8136717,20.1871092 C17.9901743,20.408067 18.8518351,20.5664259 19.4441408,20.5904296 C19.4958754,20.5965169 19.5479093,20.599712 19.6,20.6 C19.6904512,20.5996077 19.7806516,20.5904504 19.8693362,20.5726566 C19.8786392,20.5708331 19.8874431,20.5678273 19.8966796,20.5658204 C19.9780126,20.548328 20.0576245,20.5236208 20.1345704,20.4919921 C20.1419841,20.4889135 20.1490961,20.4856235 20.1564454,20.4824217 C20.2352033,20.448845 20.310715,20.4081145 20.3820316,20.3607421 C20.384455,20.3591034 20.3864542,20.3569264 20.3888671,20.3552737 C20.4608514,20.3064914 20.5281343,20.2511087 20.5898434,20.1898434 C20.5926077,20.1870798 20.5939391,20.1830597 20.5966796,20.1802737 C20.657337,20.1193697 20.7122564,20.0530087 20.7607421,19.9820316 C20.7616563,19.9806792 20.762567,19.9792855 20.7634763,19.9779296 C20.8127143,19.9041602 20.8548308,19.8258787 20.8892579,19.7441408 C20.9621338,19.5719742 20.9997884,19.3869551 21,19.2 L21,17.1 L19.6,17.1 L19.6,17.8 C18.8977808,17.8009093 18.3048775,18.3218922 18.2136717,19.0181638 C17.8558457,18.9556272 17.4920613,18.8906826 17.0720704,18.8117184 C15.1258625,18.4457549 12.5605812,17.9671341 9.79589842,17.8369138 C9.7962333,17.824311 9.8,17.8126847 9.8,17.8 C9.8,17.5438 9.72555934,17.3065 9.60585934,17.1 L8.4,17.1 L7.19414066,17.1 L7,17.1 Z"/>
  </g>
</svg>
