<?xml version="1.0" encoding="UTF-8" standalone="no"?>
<svg width="17px" height="18px" viewBox="0 0 17 18" version="1.1" xmlns="http://www.w3.org/2000/svg" xmlns:xlink="http://www.w3.org/1999/xlink" xmlns:sketch="http://www.bohemiancoding.com/sketch/ns">
    <!-- Generator: Sketch 3.4.2 (15857) - http://www.bohemiancoding.com/sketch -->
    <title>office-s</title>
    <desc>Created with Sketch.</desc>
    <defs></defs>
    <g id="POI" stroke="none" stroke-width="1" fill="none" fill-rule="evenodd" sketch:type="MSPage">
        <circle id="Oval-1-Copy-43" fill="#FFFFFF" sketch:type="MSShapeGroup" cx="8.5" cy="8.519" r="8.5"></circle>
        <circle id="Oval-1-Copy-42" fill="#717065" sketch:type="MSShapeGroup" cx="8.5" cy="8.519" r="7.5"></circle>
        <path d="M11,6.019 L11,4.519 L10.5,4.019 L6.5,4.019 L6,4.519 L6,6.019 L4.5,6.019 L4,6.519 L4,11.519 L4.5,12.019 L12.5,12.019 L13,11.518 L13,6.519 L12.5,6.019 L11,6.019 Z M7,5.019 L10,5.019 L10,6.019 L7,6.019 L7,5.019 Z M6,7.019 L7,7.019 L7,11.019 L6,11.019 L6,7.019 Z M11,11.019 L10,11.019 L10,7.019 L11,7.019 L11,11.019 Z" id="path17" fill="#FFFFFF" sketch:type="MSShapeGroup"></path>
    </g>
</svg>