<?xml version="1.0" encoding="UTF-8" standalone="no"?>
<svg width="23px" height="24px" viewBox="0 0 23 24" version="1.1" xmlns="http://www.w3.org/2000/svg" xmlns:xlink="http://www.w3.org/1999/xlink" xmlns:sketch="http://www.bohemiancoding.com/sketch/ns">
    <!-- Generator: Sketch 3.4.2 (15857) - http://www.bohemiancoding.com/sketch -->
    <title>office-m</title>
    <desc>Created with Sketch.</desc>
    <defs></defs>
    <g id="POI" stroke="none" stroke-width="1" fill="none" fill-rule="evenodd" sketch:type="MSPage">
        <ellipse id="Oval-1-Copy-41" fill="#FFFFFF" sketch:type="MSShapeGroup" cx="11.5" cy="11.519" rx="11.5" ry="11.5"></ellipse>
        <ellipse id="Oval-1-Copy-40" fill="#717065" sketch:type="MSShapeGroup" cx="11.5" cy="11.519" rx="10.5" ry="10.5"></ellipse>
        <path d="M17,7.019 L14,7.019 L14,6.019 C14,5.466 13.552,5.019 13,5.019 L10,5.019 C9.448,5.019 9,5.466 9,6.019 L9,7.019 L6,7.019 C5.448,7.019 5,7.466 5,8.019 L5,15.019 C5,15.572 5.448,16.019 6,16.019 L17,16.019 C17.552,16.019 18,15.572 18,15.019 L18,8.019 C18,7.466 17.552,7.019 17,7.019 L17,7.019 Z M10,6.019 L13,6.019 L13,7.019 L10,7.019 L10,6.019 Z M8,15.019 L7,15.019 L7,8.019 L8,8.019 L8,15.019 Z M16,15.019 L15,15.019 L15,8.019 L16,8.019 L16,15.019 Z" id="path17" fill="#FFFFFF" sketch:type="MSShapeGroup"></path>
    </g>
</svg>