<?xml version="1.0" encoding="UTF-8" standalone="no"?>
<svg width="27px" height="28px" viewBox="0 0 27 28" version="1.1" xmlns="http://www.w3.org/2000/svg" xmlns:xlink="http://www.w3.org/1999/xlink" xmlns:sketch="http://www.bohemiancoding.com/sketch/ns">
    <!-- Generator: Sketch 3.4.2 (15857) - http://www.bohemiancoding.com/sketch -->
    <title>office-l</title>
    <desc>Created with Sketch.</desc>
    <defs></defs>
    <g id="POI" stroke="none" stroke-width="1" fill="none" fill-rule="evenodd" sketch:type="MSPage">
        <circle id="Oval-1-Copy-39" fill="#FFFFFF" sketch:type="MSShapeGroup" cx="13.5" cy="13.519" r="13.5"></circle>
        <ellipse id="Oval-1-Copy-38" fill="#717065" sketch:type="MSShapeGroup" cx="13.5" cy="13.519" rx="12.5" ry="12.5"></ellipse>
        <path d="M21,8.019 L17,8.019 L17,6.019 C17,5.466 16.552,5.019 16,5.019 L11,5.019 C10.448,5.019 10,5.466 10,6.019 L10,8.019 L6,8.019 C5.448,8.019 5,8.466 5,9.019 L5,19.019 C5,19.572 5.448,20.019 6,20.019 L21,20.019 C21.552,20.019 22,19.572 22,19.019 L22,9.019 C22,8.466 21.552,8.019 21,8.019 L21,8.019 Z M9,19.019 L8,19.019 L8,9.019 L9,9.019 L9,19.019 Z M16,8.019 L11,8.019 L11,6.019 L16,6.019 L16,8.019 Z M19,19.019 L18,19.019 L18,9.019 L19,9.019 L19,19.019 Z" id="path19" fill="#FFFFFF" sketch:type="MSShapeGroup"></path>
    </g>
</svg>