<?xml version="1.0" encoding="UTF-8" standalone="no"?>
<svg width="27px" height="27px" viewBox="0 0 27 27" version="1.1" xmlns="http://www.w3.org/2000/svg" xmlns:xlink="http://www.w3.org/1999/xlink">
    <!-- Generator: Sketch 3.8.3 (29802) - http://www.bohemiancoding.com/sketch -->
    <title>olympic-water-l</title>
    <desc>Created with Sketch.</desc>
    <defs>
        <path d="M25,12.5 C25,19.403 19.403,25 12.5,25 C5.597,25 0,19.403 0,12.5 C0,5.597 5.597,0 12.5,0 C19.403,0 25,5.597 25,12.5 L25,12.5 Z" id="path-1"></path>
        <mask id="mask-2" maskContentUnits="userSpaceOnUse" maskUnits="objectBoundingBox" x="0" y="0" width="25" height="25" fill="white">
            <use xlink:href="#path-1"></use>
        </mask>
        <linearGradient x1="50%" y1="0%" x2="50%" y2="100%" id="linearGradient-3">
            <stop stop-color="#4FC7F3" offset="0%"></stop>
            <stop stop-color="#286EB4" offset="100%"></stop>
        </linearGradient>
        <path d="M20,7 L20,8.50840224 C19.6679114,8.50840224 19.3318218,8.66444385 19.0757535,8.97252601 C18.5276074,9.63270205 17.791411,10.0008002 16.9991998,10.0008002 C16.2069885,10.0008002 15.4707922,9.63270205 14.922646,8.97252601 C14.4145105,8.3563617 13.5862897,8.3563617 13.0781542,8.97252601 C12.530008,9.63270205 11.7938117,10.0008002 11.0016004,10.0008002 C10.2053881,10.0008002 9.47319285,9.63270205 8.92504668,8.97252601 C8.41691118,8.3563617 7.58869032,8.3563617 7.08055481,8.97252601 C6.53240864,9.63270205 5.79621232,10.0008002 5.00400107,10.0008002 L5.00400107,8.4763937 C5.33208856,8.4763937 5.67217925,8.32435316 5.92824753,8.02027207 C6.4763937,7.36009603 7.21259002,7 8.00480128,7 C8.8010136,7 9.53320886,7.36009603 10.081355,8.02027207 C10.5894905,8.63643638 11.4177114,8.63643638 11.9258469,8.02027207 C12.4739931,7.36009603 13.2101894,7 14.0024006,7 C14.798613,7 15.5308082,7.36009603 16.0789544,8.02027207 C16.591091,8.63643638 17.4153107,8.63643638 17.9234463,8.02027207 C18.4715924,7.36009603 19.2037877,7 20,7 Z M20,14.4979995 L20,16.0064017 C19.6679114,16.0064017 19.3318218,16.1624433 19.0757535,16.4705255 C18.5276074,17.1307015 17.791411,17.4987997 16.9991998,17.4987997 C16.2069885,17.4987997 15.4707922,17.1307015 14.922646,16.4705255 C14.4145105,15.8543612 13.5862897,15.8543612 13.0781542,16.4705255 C12.530008,17.1307015 11.7938117,17.4987997 11.0016004,17.4987997 C10.2053881,17.4987997 9.47319285,17.1307015 8.92504668,16.4705255 C8.41691118,15.8543612 7.58869032,15.8543612 7.08055481,16.4705255 C6.53240864,17.1307015 5.79621232,17.4987997 5.00400107,17.4987997 L5.00400107,15.9743932 C5.33208856,15.9743932 5.67217925,15.8223526 5.92824753,15.5182715 C6.4763937,14.8580955 7.21259002,14.4979995 8.00480128,14.4979995 C8.8010136,14.4979995 9.53320886,14.8580955 10.081355,15.5182715 C10.5894905,16.1344358 11.4177114,16.1344358 11.9258469,15.5182715 C12.4739931,14.8580955 13.2101894,14.4979995 14.0024006,14.4979995 C14.798613,14.4979995 15.5308082,14.8580955 16.0789544,15.5182715 C16.591091,16.1344358 17.4153107,16.1344358 17.9234463,15.5182715 C18.4715924,14.8580955 19.2037877,14.4979995 20,14.4979995 Z M20,10.7570019 L20,12.2734062 C19.9559883,12.257402 19.9079755,12.257402 19.8559616,12.257402 C19.523873,12.257402 19.1877834,12.4134436 18.9317151,12.7215257 C18.383569,13.3817018 17.6473726,13.7497999 16.8551614,13.7497999 C16.0629501,13.7497999 15.3267538,13.3817018 14.7786076,12.7215257 C14.2704721,12.1053614 13.4422513,12.1053614 12.9341158,12.7215257 C12.3859696,13.3817018 11.6497733,13.7497999 10.857562,13.7497999 C10.0653508,13.7497999 9.32915444,13.3817018 8.78100827,12.7215257 C8.27287277,12.1053614 7.44465191,12.1053614 6.9365164,12.7215257 C6.45638837,13.2976794 5.83222193,13.6537743 5.14403841,13.7337957 C5.10002667,13.7417978 5.05201387,13.7417978 5,13.7417978 L5,12.2093892 C5.16004268,12.2333956 5.60016004,11.9853294 5.78020806,11.7652707 C6.32835423,11.1050947 7.06455055,10.7449987 7.8567618,10.7449987 C8.64897306,10.7449987 9.38516938,11.1050947 9.93331555,11.7652707 C10.4414511,12.381435 11.2696719,12.381435 11.7778074,11.7652707 C12.3259536,11.1050947 13.0621499,10.7449987 13.8543612,10.7449987 C14.6505735,10.7449987 15.3827687,11.1050947 15.9309149,11.7652707 C16.4430515,12.381435 17.2672713,12.381435 17.7754068,11.7652707 C18.3235529,11.1050947 19.0597493,10.7449987 19.8519605,10.7449987 C19.9079755,10.7530008 19.9519872,10.7530008 20,10.7570019 Z" id="path-4"></path>
    </defs>
    <g id="POI-Clear" stroke="none" stroke-width="1" fill="none" fill-rule="evenodd">
        <g id="Artboard-4" transform="translate(-71.000000, -250.000000)">
            <g id="wayside_shrine-l" transform="translate(72.000000, 251.000000)">
                <use id="Shape" stroke="#2568AA" mask="url(#mask-2)" stroke-width="2" fill="#FFFFFF" xlink:href="#path-1"></use>
                <g id="Combined-Shape">
                    <use fill="url(#linearGradient-3)" xlink:href="#path-4"></use>
                    <use fill-opacity="0.6" fill="#2568AA" xlink:href="#path-4"></use>
                </g>
            </g>
        </g>
    </g>
</svg>