<?xml version="1.0" encoding="UTF-8" standalone="no"?>
<svg width="17px" height="17px" viewBox="0 0 17 17" version="1.1" xmlns="http://www.w3.org/2000/svg" xmlns:xlink="http://www.w3.org/1999/xlink">
    <!-- Generator: Sketch 3.8.3 (29802) - http://www.bohemiancoding.com/sketch -->
    <title>olympic-cable-car-s</title>
    <desc>Created with Sketch.</desc>
    <defs>
        <rect id="path-1" x="0" y="0" width="15" height="15" rx="1"></rect>
        <mask id="mask-2" maskContentUnits="userSpaceOnUse" maskUnits="objectBoundingBox" x="0" y="0" width="15" height="15" fill="white">
            <use xlink:href="#path-1"></use>
        </mask>
        <linearGradient x1="50%" y1="0%" x2="50%" y2="100%" id="linearGradient-3">
            <stop stop-color="#4FC7F3" offset="0%"></stop>
            <stop stop-color="#286EB4" offset="100%"></stop>
        </linearGradient>
        <path d="M8.93798452,3.29457364 L11,3 L11,2 L4,3.00000001 L4,4.00000001 L7.52713179,3.49612404 L6.7,5 L8,5 L8.93798452,3.29457364 Z M7,6.14285714 L6,6.14285714 L5,6.71428571 L5,8.42857143 L7,8.42857143 L7,6.14285714 Z M8,6.14285714 L9,6.14285714 L10,6.71428571 L10,8.42857143 L8,8.42857143 L8,6.14285714 Z M4.69730425,5.61157772 L4.80269575,5.53127943 C4.35937913,5.86904447 4,6.59491021 4,7.15276589 L4,11.4285714 C4,11.7142857 4.25,12 4.5,12 L5.75,12 L8,12 L9.25,12 L10.5,12 C10.75,12 11,11.7142857 11,11.4285714 L11,7.15276589 C11,6.59500869 10.6368918,5.86620331 10.1973042,5.53127943 L10.3026958,5.61157772 C9.8593791,5.27381267 9.0566468,5 8.4906311,5 L6.5093689,5 C5.95190985,5 5.13689184,5.27665383 4.69730425,5.61157772 Z" id="path-4"></path>
    </defs>
    <g id="POI-Clear" stroke="none" stroke-width="1" fill="none" fill-rule="evenodd">
        <g id="Artboard-4" transform="translate(-284.000000, -330.000000)">
            <g id="cable-car-s" transform="translate(285.000000, 331.000000)">
                <use id="Rectangle-211" stroke="#2568AA" mask="url(#mask-2)" stroke-width="2" fill="#FFFFFF" xlink:href="#path-1"></use>
                <g id="Combined-Shape">
                    <use fill="url(#linearGradient-3)" xlink:href="#path-4"></use>
                    <use fill-opacity="0.6" fill="#2568AA" xlink:href="#path-4"></use>
                </g>
            </g>
        </g>
    </g>
</svg>