<?xml version="1.0" encoding="UTF-8" standalone="no"?>
<svg width="17px" height="17px" viewBox="0 0 17 17" version="1.1" xmlns="http://www.w3.org/2000/svg" xmlns:xlink="http://www.w3.org/1999/xlink">
    <!-- Generator: Sketch 3.8.3 (29802) - http://www.bohemiancoding.com/sketch -->
    <title>olympic-stadium-main-s</title>
    <desc>Created with Sketch.</desc>
    <defs>
        <path d="M7.5,15 C11.6421356,15 15,11.6421356 15,7.5 C15,3.35786438 11.6421356,0 7.5,0 C3.35786438,0 0,3.35786438 0,7.5 C0,11.6421356 3.35786438,15 7.5,15 Z" id="path-1"></path>
        <mask id="mask-2" maskContentUnits="userSpaceOnUse" maskUnits="objectBoundingBox" x="0" y="0" width="15" height="15" fill="white">
            <use xlink:href="#path-1"></use>
        </mask>
        <linearGradient x1="50%" y1="0%" x2="50%" y2="100%" id="linearGradient-3">
            <stop stop-color="#A6CE39" offset="0%"></stop>
            <stop stop-color="#009D57" offset="100%"></stop>
        </linearGradient>
        <path d="M5,10.61939 C5.44938571,10.8388082 5.95597474,11.0190757 6.5,11.1227384 L6.5,9.49236391 C6.5,9.22043883 6.71403503,9 7.00468445,9 L7.99531555,9 C8.27404508,9 8.5,9.22083202 8.5,9.49236391 L8.5,11.1227384 C9.04402526,11.0190757 9.55061429,10.8388082 10,10.61939 L10,9.29064941 C10,9.07491318 10.15625,8.82189941 10.3610229,8.71951294 L10.6389771,8.58053589 C10.8383645,8.48084215 11,8.57870388 11,8.79222202 L11,10.0055131 C11.4736222,9.64428751 11.8034056,9.2681041 11.93558,8.97884615 L12,8.97884615 L12,5.97884615 C11.9656127,5.16017064 9.96409301,4.5 7.5,4.5 C5.03590699,4.5 3.03438733,5.16017064 3.00043836,5.97884615 L3,8.97884615 L3.06442003,8.97884615 C3.19659437,9.2681041 3.52637785,9.64428751 4,10.0055131 L4,8.79222202 C4,8.57870388 4.16163548,8.48084215 4.36102295,8.58053589 L4.63897705,8.71951294 C4.84375,8.82189941 5,9.07491318 5,9.29064941 L5,10.61939 Z M7.5,7.5 C9.709139,7.5 11.5,6.94035594 11.5,6.25 C11.5,5.55964406 9.709139,5 7.5,5 C5.290861,5 3.5,5.55964406 3.5,6.25 C3.5,6.94035594 5.290861,7.5 7.5,7.5 Z M6,6 L9,6 L9.7741333,6.81552907 C9.7741333,6.81552907 8.61260621,7 7.5,7 C6.38739379,7 5.27790527,6.81552907 5.27790527,6.81552907 L6,6 Z" id="path-4"></path>
    </defs>
    <g id="POI-Clear" stroke="none" stroke-width="1" fill="none" fill-rule="evenodd">
        <g id="Artboard-4" transform="translate(-141.000000, -333.000000)">
            <g id="wayside_shrine-s" transform="translate(142.000000, 334.000000)">
                <use id="Oval" stroke="#098F4C" mask="url(#mask-2)" stroke-width="2" fill="#FFFFFF" xlink:href="#path-1"></use>
                <g id="Combined-Shape">
                    <use fill="url(#linearGradient-3)" xlink:href="#path-4"></use>
                    <use fill-opacity="0.7" fill="#098F4C" xlink:href="#path-4"></use>
                </g>
            </g>
        </g>
    </g>
</svg>