<?xml version="1.0" encoding="UTF-8" standalone="no"?>
<svg width="17px" height="17px" viewBox="0 0 17 17" version="1.1" xmlns="http://www.w3.org/2000/svg" xmlns:xlink="http://www.w3.org/1999/xlink">
    <!-- Generator: Sketch 3.8.3 (29802) - http://www.bohemiancoding.com/sketch -->
    <title>olympic-stadium-s</title>
    <desc>Created with Sketch.</desc>
    <defs>
        <path d="M7.5,15 C11.6421356,15 15,11.6421356 15,7.5 C15,3.35786438 11.6421356,0 7.5,0 C3.35786438,0 0,3.35786438 0,7.5 C0,11.6421356 3.35786438,15 7.5,15 Z" id="path-1"></path>
        <mask id="mask-2" maskContentUnits="userSpaceOnUse" maskUnits="objectBoundingBox" x="0" y="0" width="15" height="15" fill="white">
            <use xlink:href="#path-1"></use>
        </mask>
        <linearGradient x1="50%" y1="0%" x2="50%" y2="100%" id="linearGradient-3">
            <stop stop-color="#A6CE39" offset="0%"></stop>
            <stop stop-color="#009D57" offset="100%"></stop>
        </linearGradient>
        <path d="M6.5,11.1227384 C4.73937855,10.7872564 3.37084716,9.64944896 3.06442003,8.97884615 L3,8.97884615 L3,5.97884615 C3.03205888,5.21632108 4.77060664,4.59130377 7,4.5091548 L7,4 L8,4 L8,4.5091548 C10.2293934,4.59130377 11.9679411,5.21632108 11.9995616,5.97884615 L12,8.97884615 L11.93558,8.97884615 C11.6291528,9.64944896 10.2606214,10.7872564 8.5,11.1227384 L8.5,9.49236391 C8.5,9.22083202 8.27404508,9 7.99531555,9 L7.00468445,9 C6.71403503,9 6.5,9.22043883 6.5,9.49236391 L6.5,11.1227384 Z M7.5,7.5 C9.709139,7.5 11.5,6.94035594 11.5,6.25 C11.5,5.55964406 9.709139,5 7.5,5 C5.290861,5 3.5,5.55964406 3.5,6.25 C3.5,6.94035594 5.290861,7.5 7.5,7.5 Z M6,3 L9,3 L9,4 L6,4 L6,3 Z M6,6 L9,6 L9.7741333,6.81552907 C9.7741333,6.81552907 8.61260621,7 7.5,7 C6.38739379,7 5.27790527,6.81552907 5.27790527,6.81552907 L6,6 Z" id="path-4"></path>
    </defs>
    <g id="POI-Clear" stroke="none" stroke-width="1" fill="none" fill-rule="evenodd">
        <g id="Artboard-4" transform="translate(-141.000000, -372.000000)">
            <g id="wayside_shrine-s" transform="translate(142.000000, 373.000000)">
                <use id="Oval" stroke="#098F4C" mask="url(#mask-2)" stroke-width="2" fill="#FFFFFF" xlink:href="#path-1"></use>
                <g id="Combined-Shape">
                    <use fill="url(#linearGradient-3)" xlink:href="#path-4"></use>
                    <use fill-opacity="0.7" fill="#098F4C" xlink:href="#path-4"></use>
                </g>
            </g>
        </g>
    </g>
</svg>