<?xml version="1.0" encoding="UTF-8" standalone="no"?>
<svg width="23px" height="23px" viewBox="0 0 23 23" version="1.1" xmlns="http://www.w3.org/2000/svg" xmlns:xlink="http://www.w3.org/1999/xlink">
    <!-- Generator: Sketch 3.8.3 (29802) - http://www.bohemiancoding.com/sketch -->
    <title>olympic-water-m</title>
    <desc>Created with Sketch.</desc>
    <defs>
        <path d="M21,10.5 C21,16.299 16.299,21 10.5,21 C4.701,21 0,16.299 0,10.5 C0,4.701 4.701,0 10.5,0 C16.299,0 21,4.701 21,10.5 L21,10.5 Z" id="path-1"></path>
        <mask id="mask-2" maskContentUnits="userSpaceOnUse" maskUnits="objectBoundingBox" x="0" y="0" width="21" height="21" fill="white">
            <use xlink:href="#path-1"></use>
        </mask>
        <linearGradient x1="50%" y1="0%" x2="50%" y2="100%" id="linearGradient-3">
            <stop stop-color="#4FC7F3" offset="0%"></stop>
            <stop stop-color="#286EB4" offset="100%"></stop>
        </linearGradient>
        <path d="M17,6 L17,7.30728194 C16.7121899,7.30728194 16.4209122,7.442518 16.1989864,7.70952254 C15.7239264,8.28167511 15.0858896,8.60069352 14.3993065,8.60069352 C13.7127234,8.60069352 13.0746866,8.28167511 12.5996266,7.70952254 C12.1592425,7.17551347 11.4414511,7.17551347 11.001067,7.70952254 C10.5260069,8.28167511 9.88797013,8.60069352 9.20138704,8.60069352 C8.51133636,8.60069352 7.87676714,8.28167511 7.40170712,7.70952254 C6.96132302,7.17551347 6.24353161,7.17551347 5.80314751,7.70952254 C5.32808749,8.28167511 4.69005068,8.60069352 4.00346759,8.60069352 L4.00346759,7.27954121 C4.28781008,7.27954121 4.58255535,7.14777274 4.80448119,6.8842358 C5.27954121,6.31208322 5.91757802,6 6.60416111,6 C7.29421179,6 7.92878101,6.31208322 8.40384102,6.8842358 C8.84422513,7.41824487 9.56201654,7.41824487 10.0024006,6.8842358 C10.4774607,6.31208322 11.1154975,6 11.8020806,6 C12.4921312,6 13.1267005,6.31208322 13.6017605,6.8842358 C14.0456122,7.41824487 14.759936,7.41824487 15.2003201,6.8842358 C15.6753801,6.31208322 16.3099493,6 17,6 Z M17,12.4982662 L17,13.8055481 C16.7121899,13.8055481 16.4209122,13.9407842 16.1989864,14.2077887 C15.7239264,14.7799413 15.0858896,15.0989597 14.3993065,15.0989597 C13.7127234,15.0989597 13.0746866,14.7799413 12.5996266,14.2077887 C12.1592425,13.6737797 11.4414511,13.6737797 11.001067,14.2077887 C10.5260069,14.7799413 9.88797013,15.0989597 9.20138704,15.0989597 C8.51133636,15.0989597 7.87676714,14.7799413 7.40170712,14.2077887 C6.96132302,13.6737797 6.24353161,13.6737797 5.80314751,14.2077887 C5.32808749,14.7799413 4.69005068,15.0989597 4.00346759,15.0989597 L4.00346759,13.7778074 C4.28781008,13.7778074 4.58255535,13.6460389 4.80448119,13.382502 C5.27954121,12.8103494 5.91757802,12.4982662 6.60416111,12.4982662 C7.29421179,12.4982662 7.92878101,12.8103494 8.40384102,13.382502 C8.84422513,13.9165111 9.56201654,13.9165111 10.0024006,13.382502 C10.4774607,12.8103494 11.1154975,12.4982662 11.8020806,12.4982662 C12.4921312,12.4982662 13.1267005,12.8103494 13.6017605,13.382502 C14.0456122,13.9165111 14.759936,13.9165111 15.2003201,13.382502 C15.6753801,12.8103494 16.3099493,12.4982662 17,12.4982662 Z M17,9.25606828 L17,10.5702854 C16.9618565,10.556415 16.9202454,10.556415 16.8751667,10.556415 C16.5873566,10.556415 16.296079,10.6916511 16.0741531,10.9586556 C15.5990931,11.5308082 14.9610563,11.8498266 14.2744732,11.8498266 C13.5878901,11.8498266 12.9498533,11.5308082 12.4747933,10.9586556 C12.0344092,10.4246466 11.3166178,10.4246466 10.8762337,10.9586556 C10.4011736,11.5308082 9.76313684,11.8498266 9.07655375,11.8498266 C8.38997066,11.8498266 7.75193385,11.5308082 7.27687383,10.9586556 C6.83648973,10.4246466 6.11869832,10.4246466 5.67831422,10.9586556 C5.26220325,11.4579888 4.721259,11.7666044 4.12483329,11.8359563 C4.08668978,11.8428914 4.04507869,11.8428914 4,11.8428914 L4,10.5148039 C4.13870365,10.5356095 4.5201387,10.3206188 4.67618031,10.1299013 C5.15124033,9.55774873 5.78927714,9.24566551 6.47586023,9.24566551 C7.16244332,9.24566551 7.80048013,9.55774873 8.27554014,10.1299013 C8.71592425,10.6639104 9.43371566,10.6639104 9.87409976,10.1299013 C10.3491598,9.55774873 10.9871966,9.24566551 11.6737797,9.24566551 C12.3638304,9.24566551 12.9983996,9.55774873 13.4734596,10.1299013 C13.9173113,10.6639104 14.6316351,10.6639104 15.0720192,10.1299013 C15.5470792,9.55774873 16.185116,9.24566551 16.8716991,9.24566551 C16.9202454,9.25260069 16.9583889,9.25260069 17,9.25606828 Z" id="path-4"></path>
    </defs>
    <g id="POI-Clear" stroke="none" stroke-width="1" fill="none" fill-rule="evenodd">
        <g id="Artboard-4" transform="translate(-108.000000, -252.000000)">
            <g id="wayside_shrine-m" transform="translate(109.000000, 253.000000)">
                <use id="Shape" stroke="#2568AA" mask="url(#mask-2)" stroke-width="2" fill="#FFFFFF" xlink:href="#path-1"></use>
                <g id="Combined-Shape">
                    <use fill="url(#linearGradient-3)" xlink:href="#path-4"></use>
                    <use fill-opacity="0.6" fill="#2568AA" xlink:href="#path-4"></use>
                </g>
            </g>
        </g>
    </g>
</svg>