<?xml version="1.0" encoding="UTF-8" standalone="no"?>
<svg width="17px" height="17px" viewBox="0 0 17 17" version="1.1" xmlns="http://www.w3.org/2000/svg" xmlns:xlink="http://www.w3.org/1999/xlink">
    <!-- Generator: Sketch 3.8.3 (29802) - http://www.bohemiancoding.com/sketch -->
    <title>olympic-view-s</title>
    <desc>Created with Sketch.</desc>
    <defs>
        <path d="M7.5,15 C11.6421356,15 15,11.6421356 15,7.5 C15,3.35786438 11.6421356,0 7.5,0 C3.35786438,0 0,3.35786438 0,7.5 C0,11.6421356 3.35786438,15 7.5,15 Z" id="path-1"></path>
        <mask id="mask-2" maskContentUnits="userSpaceOnUse" maskUnits="objectBoundingBox" x="0" y="0" width="15" height="15" fill="white">
            <use xlink:href="#path-1"></use>
        </mask>
        <linearGradient x1="50%" y1="0%" x2="50%" y2="100%" id="linearGradient-3">
            <stop stop-color="#FCB131" offset="0%"></stop>
            <stop stop-color="#F34320" offset="100%"></stop>
        </linearGradient>
        <path d="M7.49999845,6.79999995 C7.99705471,6.79999995 8.39999843,6.39705624 8.39999843,5.89999998 C8.39999843,5.40294371 7.99705471,5 7.49999845,5 C7.00294219,5 6.59999847,5.40294371 6.59999847,5.89999998 C6.59999847,6.39705624 7.00294219,6.79999995 7.49999845,6.79999995 Z M1.49999845,6.79999995 C1.99705471,6.79999995 2.39999843,6.39705624 2.39999843,5.89999998 C2.39999843,5.40294371 1.99705471,5 1.49999845,5 C1.00294219,5 0.599998474,5.40294371 0.599998474,5.89999998 C0.599998474,6.39705624 1.00294219,6.79999995 1.49999845,6.79999995 Z M4.49999845,6.79999995 C4.99705471,6.79999995 5.39999843,6.39705624 5.39999843,5.89999998 C5.39999843,5.40294371 4.99705471,5 4.49999845,5 C4.00294219,5 3.59999847,5.40294371 3.59999847,5.89999998 C3.59999847,6.39705624 4.00294219,6.79999995 4.49999845,6.79999995 Z M6.5,8 C6.5,7.44771525 6.94386482,7 7.5,7 C8.05228475,7 8.5,7.44386482 8.5,8 L8.5,9 L6.5,9 L6.5,8 Z M3.5,8 C3.5,7.44771525 3.94386482,7 4.5,7 C5.05228475,7 5.5,7.44386482 5.5,8 L5.5,9 L3.5,9 L3.5,8 Z M0.5,8 C0.5,7.44771525 0.943864822,7 1.5,7 C2.05228475,7 2.5,7.44386482 2.5,8 L2.5,9 L0.5,9 L0.5,8 Z M0,4.00122768 C0,4.27669202 0.222473145,4.5 0.509665847,4.5 L8.49033415,4.5 C8.77181483,4.5 9,4.28295565 9,4.00122768 L9,0.498772323 C9,0.223307975 8.77752686,0 8.49033415,0 L0.509665847,0 C0.228185172,0 0,0.217044353 0,0.498772323 L0,4.00122768 Z M3.80000305,1.30117173 C3.80000305,1.0796107 3.94124603,1.00985565 4.11353912,1.14386139 L5.28646698,2.05613859 C5.45962817,2.19081952 5.45876007,2.40985563 5.28646698,2.54386136 L4.11353912,3.45613857 C3.94037793,3.59081949 3.80000305,3.51628414 3.80000305,3.29882823 L3.80000305,1.30117173 Z" id="path-4"></path>
    </defs>
    <g id="POI-Clear" stroke="none" stroke-width="1" fill="none" fill-rule="evenodd">
        <g id="Artboard-4" transform="translate(-141.000000, -213.000000)">
            <g id="wayside_shrine-s" transform="translate(142.000000, 214.000000)">
                <use id="Oval" stroke="#E74A20" mask="url(#mask-2)" stroke-width="2" fill="#FFFFFF" xlink:href="#path-1"></use>
                <g id="noun_379599_cc" transform="translate(3.000000, 3.000000)">
                    <g id="Group">
                        <g id="Combined-Shape">
                            <g>
                                <use fill="url(#linearGradient-3)" xlink:href="#path-4"></use>
                                <use fill-opacity="0.75" fill="#E74A20" xlink:href="#path-4"></use>
                            </g>
                        </g>
                    </g>
                </g>
            </g>
        </g>
    </g>
</svg>