<?xml version="1.0" encoding="UTF-8" standalone="no"?>
<svg width="27px" height="27px" viewBox="0 0 27 27" version="1.1" xmlns="http://www.w3.org/2000/svg" xmlns:xlink="http://www.w3.org/1999/xlink">
    <!-- Generator: Sketch 3.8.3 (29802) - http://www.bohemiancoding.com/sketch -->
    <title>olympic-subway-l</title>
    <desc>Created with Sketch.</desc>
    <defs>
        <rect id="path-1" x="0" y="0" width="25" height="25" rx="3"></rect>
        <mask id="mask-2" maskContentUnits="userSpaceOnUse" maskUnits="objectBoundingBox" x="0" y="0" width="25" height="25" fill="white">
            <use xlink:href="#path-1"></use>
        </mask>
        <linearGradient x1="50%" y1="0%" x2="50%" y2="100%" id="linearGradient-3">
            <stop stop-color="#4FC7F3" offset="0%"></stop>
            <stop stop-color="#286EB4" offset="100%"></stop>
        </linearGradient>
        <path d="M3,0.3622 L0,2.3622 L0,13.3622 C0,13.8622 0.5,14.3622 1,14.3622 L3.5,14.3622 L7,14.3622 L9.5,14.3622 L12,14.3622 C12.5,14.3622 13,13.8622 13,13.3622 L13,2.3622 L10,0.3622 L3,0.3622 Z M4,2.3622 L9,2.3622 L11,3.3622 L11,6.3622 L2,6.3622 L2,3.3622 L4,2.3622 Z M3,10.3622 C3.554,10.3622 4,10.8082 4,11.3622 C4,11.9162 3.554,12.3622 3,12.3622 C2.446,12.3622 2,11.9162 2,11.3622 C2,10.8082 2.446,10.3622 3,10.3622 L3,10.3622 Z M10,10.3622 C10.554,10.3622 11,10.8082 11,11.3622 C11,11.9162 10.554,12.3622 10,12.3622 C9.446,12.3622 9,11.9162 9,11.3622 C9,10.8082 9.446,10.3622 10,10.3622 L10,10.3622 Z" id="path-4"></path>
    </defs>
    <g id="POI-Clear" stroke="none" stroke-width="1" fill="none" fill-rule="evenodd">
        <g id="Artboard-4" transform="translate(-213.000000, -394.000000)">
            <g id="subway-l" transform="translate(214.000000, 395.000000)">
                <use id="Rectangle-211" stroke="#2568AA" mask="url(#mask-2)" stroke-width="2" fill="#FFFFFF" xlink:href="#path-1"></use>
                <g id="g24855" transform="translate(6.000000, 5.000000)">
                    <g id="path24859">
                        <use fill="url(#linearGradient-3)" xlink:href="#path-4"></use>
                        <use fill-opacity="0.6" fill="#2568AA" xlink:href="#path-4"></use>
                    </g>
                </g>
            </g>
        </g>
    </g>
</svg>