<?xml version="1.0" encoding="UTF-8" standalone="no"?>
<svg width="23px" height="23px" viewBox="0 0 23 23" version="1.1" xmlns="http://www.w3.org/2000/svg" xmlns:xlink="http://www.w3.org/1999/xlink">
    <!-- Generator: Sketch 3.8.3 (29802) - http://www.bohemiancoding.com/sketch -->
    <title>olympic-stadium-m</title>
    <desc>Created with Sketch.</desc>
    <defs>
        <path d="M21,10.5 C21,16.299 16.299,21 10.5,21 C4.701,21 0,16.299 0,10.5 C0,4.701 4.701,0 10.5,0 C16.299,0 21,4.701 21,10.5 L21,10.5 Z" id="path-1"></path>
        <mask id="mask-2" maskContentUnits="userSpaceOnUse" maskUnits="objectBoundingBox" x="0" y="0" width="21" height="21" fill="white">
            <use xlink:href="#path-1"></use>
        </mask>
        <linearGradient x1="50%" y1="0%" x2="50%" y2="100%" id="linearGradient-3">
            <stop stop-color="#A6CE39" offset="0%"></stop>
            <stop stop-color="#009D57" offset="100%"></stop>
        </linearGradient>
        <path d="M6.5,14.2749245 C7.27745398,14.7353078 8.19677531,15.1172736 9.2,15.3026305 L9.2,13.2266817 C9.2,12.9496106 9.42167454,12.725 9.70130615,12.725 L11.2986938,12.725 C11.5755576,12.725 11.8,12.9480835 11.8,13.2266817 L11.8,15.3026305 C12.8032247,15.1172736 13.722546,14.7353078 14.5,14.2749245 L14.5,12.495389 C14.5,12.2217932 14.6839294,11.8773804 14.9098816,11.7267456 L15.5901184,11.2732544 C15.8164898,11.1223402 16,11.2150574 16,11.4904785 L16,13.1425319 C16.4835075,12.6748624 16.8115294,12.2166536 16.9397179,11.8583333 L17,11.8583333 L17,7.525 L16.9427258,7.525 C16.5190192,6.54650414 13.7959999,5.79166667 10.5,5.79166667 C7.20400007,5.79166667 4.4809808,6.54650414 4.05727424,7.525 L4,7.525 L4,11.8583333 L4.06028211,11.8583333 C4.18847057,12.2166536 4.51649252,12.6748624 5,13.1425319 L5,11.4904785 C5,11.2150574 5.18351024,11.1223402 5.40988159,11.2732544 L6.09011841,11.7267456 C6.31607056,11.8773804 6.5,12.2217932 6.5,12.495389 L6.5,14.2749245 Z M10.5,9.69166667 C13.6112041,9.69166667 16.1333333,9.01263187 16.1333333,8.175 C16.1333333,7.33736813 13.6112041,6.65833333 10.5,6.65833333 C7.38879591,6.65833333 4.86666667,7.33736813 4.86666667,8.175 C4.86666667,9.01263187 7.38879591,9.69166667 10.5,9.69166667 Z M8.33333333,7.95833333 L12.6666667,7.95833333 L13.7848592,8.98284505 C13.7848592,8.98284505 12.1070979,9.2145874 10.5,9.2145874 C8.89290214,9.2145874 7.29030762,8.98284505 7.29030762,8.98284505 L8.33333333,7.95833333 Z" id="path-4"></path>
    </defs>
    <g id="POI-Clear" stroke="none" stroke-width="1" fill="none" fill-rule="evenodd">
        <g id="Artboard-4" transform="translate(-108.000000, -330.000000)">
            <g id="wayside_shrine-m" transform="translate(109.000000, 331.000000)">
                <use id="Shape" stroke="#098F4C" mask="url(#mask-2)" stroke-width="2" fill="#FFFFFF" xlink:href="#path-1"></use>
                <g id="Combined-Shape">
                    <use fill="url(#linearGradient-3)" xlink:href="#path-4"></use>
                    <use fill-opacity="0.7" fill="#098F4C" xlink:href="#path-4"></use>
                </g>
            </g>
        </g>
    </g>
</svg>