<?xml version="1.0" encoding="UTF-8" standalone="no"?>
<svg width="23px" height="23px" viewBox="0 0 23 23" version="1.1" xmlns="http://www.w3.org/2000/svg" xmlns:xlink="http://www.w3.org/1999/xlink">
    <!-- Generator: Sketch 3.8.3 (29802) - http://www.bohemiancoding.com/sketch -->
    <title>olympic-view-m</title>
    <desc>Created with Sketch.</desc>
    <defs>
        <path d="M21,10.5 C21,16.299 16.299,21 10.5,21 C4.701,21 0,16.299 0,10.5 C0,4.701 4.701,0 10.5,0 C16.299,0 21,4.701 21,10.5 L21,10.5 Z" id="path-1"></path>
        <mask id="mask-2" maskContentUnits="userSpaceOnUse" maskUnits="objectBoundingBox" x="0" y="0" width="21" height="21" fill="white">
            <use xlink:href="#path-1"></use>
        </mask>
        <linearGradient x1="50%" y1="0%" x2="50%" y2="100%" id="linearGradient-3">
            <stop stop-color="#FCB131" offset="0%"></stop>
            <stop stop-color="#F34320" offset="100%"></stop>
        </linearGradient>
        <path d="M1.95,9.75 C2.66797017,9.75 3.25,9.16797017 3.25,8.45 C3.25,7.73202983 2.66797017,7.15 1.95,7.15 C1.23202983,7.15 0.65,7.73202983 0.65,8.45 C0.65,9.16797017 1.23202983,9.75 1.95,9.75 Z M6.49999995,9.75 C7.2179701,9.75 7.7999999,9.16797017 7.7999999,8.45 C7.7999999,7.73202983 7.2179701,7.15 6.49999995,7.15 C5.7820298,7.15 5.2,7.73202983 5.2,8.45 C5.2,9.16797017 5.7820298,9.75 6.49999995,9.75 Z M11.05,9.75 C11.7679702,9.75 12.35,9.16797017 12.35,8.45 C12.35,7.73202983 11.7679702,7.15 11.05,7.15 C10.3320298,7.15 9.75,7.73202983 9.75,8.45 C9.75,9.16797017 10.3320298,9.75 11.05,9.75 Z M2.99999992,10.5 L0.599999984,10.5 C0.239999994,10.5 -8.8817842e-16,10.75 -8.8817842e-16,11.125 L-8.8817842e-16,13 L3.5999999,13 L3.5999999,11.125 C3.5999999,10.75 3.35999991,10.5 2.99999992,10.5 Z M12.4000014,10.5 L10.0000015,10.5 C9.64000152,10.5 9.40000153,10.75 9.40000153,11.125 L9.40000153,13 L13.0000014,13 L13.0000014,11.125 C13.0000014,10.75 12.7600014,10.5 12.4000014,10.5 Z M7.69999687,10.5 L5.29999693,10.5 C4.93999694,10.5 4.69999695,10.75 4.69999695,11.125 L4.69999695,13 L8.29999685,13 L8.29999685,11.125 C8.29999685,10.75 8.05999686,10.5 7.69999687,10.5 Z M-8.8817842e-16,5.90014648 C-8.8817842e-16,6.23143643 0.271523476,6.5 0.592363715,6.5 L12.4076363,6.5 C12.7347897,6.5 13,6.23714179 13,5.90014648 L13,0.599853516 C13,0.268563567 12.7284765,0 12.4076363,0 L0.592363715,0 C0.265210269,0 -8.8817842e-16,0.262858212 -8.8817842e-16,0.599853516 L-8.8817842e-16,5.90014648 Z M5.5,1.69815903 C5.5,1.47826187 5.63978729,1.40752869 5.81881102,1.54523926 L7.78118888,3.05476074 C7.95726335,3.19020264 7.96021262,3.40752869 7.78118888,3.54523926 L5.81881102,5.05476074 C5.64273656,5.19020264 5.5,5.128125 5.5,4.90184097 L5.5,1.69815903 Z" id="path-4"></path>
    </defs>
    <g id="POI-Clear" stroke="none" stroke-width="1" fill="none" fill-rule="evenodd">
        <g id="Artboard-4" transform="translate(-108.000000, -210.000000)">
            <g id="wayside_shrine-m" transform="translate(109.000000, 211.000000)">
                <use id="Shape" stroke="#E74A20" mask="url(#mask-2)" stroke-width="2" fill="#FFFFFF" xlink:href="#path-1"></use>
                <g id="noun_379599_cc" transform="translate(4.000000, 4.000000)">
                    <g id="Group">
                        <g id="Combined-Shape">
                            <g>
                                <use fill="url(#linearGradient-3)" xlink:href="#path-4"></use>
                                <use fill-opacity="0.75" fill="#E74A20" xlink:href="#path-4"></use>
                            </g>
                        </g>
                    </g>
                </g>
            </g>
        </g>
    </g>
</svg>