<?xml version="1.0" encoding="UTF-8" standalone="no"?>
<svg width="17px" height="17px" viewBox="0 0 17 17" version="1.1" xmlns="http://www.w3.org/2000/svg" xmlns:xlink="http://www.w3.org/1999/xlink">
    <!-- Generator: Sketch 3.8.3 (29802) - http://www.bohemiancoding.com/sketch -->
    <title>olympic-funicular-s</title>
    <desc>Created with Sketch.</desc>
    <defs>
        <rect id="path-1" x="0" y="0" width="15" height="15" rx="1"></rect>
        <mask id="mask-2" maskContentUnits="userSpaceOnUse" maskUnits="objectBoundingBox" x="0" y="0" width="15" height="15" fill="white">
            <use xlink:href="#path-1"></use>
        </mask>
        <linearGradient x1="50%" y1="0%" x2="50%" y2="100%" id="linearGradient-3">
            <stop stop-color="#4FC7F3" offset="0%"></stop>
            <stop stop-color="#286EB4" offset="100%"></stop>
        </linearGradient>
        <path d="M2,6.99077797 C2,6.44358641 2.4296875,5.85820312 2.95884204,5.68358213 L11.041158,3.01641787 C11.5707118,2.8416651 12,3.15097518 12,3.69077796 L12,7.70922203 C12,8.25641359 11.5703125,8.84179687 11.041158,9.01641787 L2.95884204,11.6835821 C2.4292882,11.8583349 2,11.5490248 2,11.009222 L2,6.99077797 Z M3,7 L5,6.3 L5,8.3 L3,9 L3,7 Z M6,5.89999998 L8,5.19999999 L8,7.19999999 L6,7.89999998 L6,5.89999998 Z M9,4.99999998 L11,4.29999999 L11,6.29999999 L9,6.99999998 L9,4.99999998 Z" id="path-4"></path>
    </defs>
    <g id="POI-Clear" stroke="none" stroke-width="1" fill="none" fill-rule="evenodd">
        <g id="Artboard-4" transform="translate(-284.000000, -367.000000)">
            <g id="funicular-s" transform="translate(285.000000, 368.000000)">
                <use id="Rectangle-211" stroke="#2568AA" mask="url(#mask-2)" stroke-width="2" fill="#FFFFFF" xlink:href="#path-1"></use>
                <g id="Rectangle-49">
                    <use fill="url(#linearGradient-3)" xlink:href="#path-4"></use>
                    <use fill-opacity="0.6" fill="#2568AA" xlink:href="#path-4"></use>
                </g>
            </g>
        </g>
    </g>
</svg>