<?xml version="1.0" encoding="UTF-8" standalone="no"?>
<svg width="17px" height="17px" viewBox="0 0 17 17" version="1.1" xmlns="http://www.w3.org/2000/svg" xmlns:xlink="http://www.w3.org/1999/xlink">
    <!-- Generator: Sketch 3.8.3 (29802) - http://www.bohemiancoding.com/sketch -->
    <title>olympic-center-s</title>
    <desc>Created with Sketch.</desc>
    <defs>
        <path d="M7.5,15 C11.6421356,15 15,11.6421356 15,7.5 C15,3.35786438 11.6421356,0 7.5,0 C3.35786438,0 0,3.35786438 0,7.5 C0,11.6421356 3.35786438,15 7.5,15 Z" id="path-1"></path>
        <mask id="mask-2" maskContentUnits="userSpaceOnUse" maskUnits="objectBoundingBox" x="0" y="0" width="15" height="15" fill="white">
            <use xlink:href="#path-1"></use>
        </mask>
        <linearGradient x1="50%" y1="0%" x2="50%" y2="100%" id="linearGradient-3">
            <stop stop-color="#4FC7F3" offset="0%"></stop>
            <stop stop-color="#286EB4" offset="100%"></stop>
        </linearGradient>
        <path d="M10.65,6.5 L10.65,5.6 L11.1,5.6 L11.1,4.7 L7.95,4.7 L7.95,3.8 L9.75,3.8 L9.75,2.45 L7.95,2.45 L7.95,2 L7.05,2 L7.05,4.7 L3.9,4.7 L3.9,5.6 L4.35,5.6 L4.35,6.5 L3,6.5 L3,11 L12,11 L12,6.5 L10.65,6.5 L10.65,6.5 Z M5.25,10.1 L4.35,10.1 L4.35,9.2 L5.25,9.2 L5.25,10.1 L5.25,10.1 Z M5.25,8.3 L4.35,8.3 L4.35,7.4 L5.25,7.4 L5.25,8.3 L5.25,8.3 Z M7.05,10.1 L6.15,10.1 L6.15,9.2 L7.05,9.2 L7.05,10.1 L7.05,10.1 Z M7.05,8.3 L6.15,8.3 L6.15,7.4 L7.05,7.4 L7.05,8.3 L7.05,8.3 Z M8.85,10.1 L7.95,10.1 L7.95,9.2 L8.85,9.2 L8.85,10.1 L8.85,10.1 Z M8.85,8.3 L7.95,8.3 L7.95,7.4 L8.85,7.4 L8.85,8.3 L8.85,8.3 Z M10.65,10.1 L9.75,10.1 L9.75,9.2 L10.65,9.2 L10.65,10.1 L10.65,10.1 Z M10.65,8.3 L9.75,8.3 L9.75,7.4 L10.65,7.4 L10.65,8.3 L10.65,8.3 Z" id="path-4"></path>
    </defs>
    <g id="POI-Clear" stroke="none" stroke-width="1" fill="none" fill-rule="evenodd">
        <g id="Artboard-4" transform="translate(-140.000000, -137.000000)">
            <g id="wayside_shrine-s" transform="translate(141.000000, 138.000000)">
                <use id="Oval" stroke="#2568AA" mask="url(#mask-2)" stroke-width="2" fill="#FFFFFF" xlink:href="#path-1"></use>
                <g id="Shape">
                    <use fill="url(#linearGradient-3)" xlink:href="#path-4"></use>
                    <use fill-opacity="0.6" fill="#2568AA" xlink:href="#path-4"></use>
                </g>
            </g>
        </g>
    </g>
</svg>