<?xml version="1.0" encoding="UTF-8" standalone="no"?>
<svg width="17px" height="17px" viewBox="0 0 17 17" version="1.1" xmlns="http://www.w3.org/2000/svg" xmlns:xlink="http://www.w3.org/1999/xlink">
    <!-- Generator: Sketch 3.8.3 (29802) - http://www.bohemiancoding.com/sketch -->
    <title>olympic-tram-s</title>
    <desc>Created with Sketch.</desc>
    <defs>
        <rect id="path-1" x="0" y="0" width="15" height="15" rx="1"></rect>
        <mask id="mask-2" maskContentUnits="userSpaceOnUse" maskUnits="objectBoundingBox" x="0" y="0" width="15" height="15" fill="white">
            <use xlink:href="#path-1"></use>
        </mask>
        <linearGradient x1="50%" y1="0%" x2="50%" y2="100%" id="linearGradient-3">
            <stop stop-color="#4FC7F3" offset="0%"></stop>
            <stop stop-color="#286EB4" offset="100%"></stop>
        </linearGradient>
        <path d="M9,5.0579843 C9.47176033,5.15576112 9.9815405,5.366888 10.3026958,5.61157772 L10.1973042,5.53127943 C10.6368918,5.86620331 11,6.59500869 11,7.15276589 L11,12.4285714 C11,12.7142857 10.75,13 10.5,13 L9.25,13 L8,13 L5.75,13 L4.5,13 C4.25,13 4,12.7142857 4,12.4285714 L4,7.15276589 C4,6.59491021 4.35937913,5.86904447 4.80269575,5.53127943 L4.69730425,5.61157772 C5.01506149,5.36947696 5.52898734,5.15782327 6,5.05910079 L6,4 L7,4 L7,5 L8,5 L8,4 L9,4 L9,5.0579843 Z M6,6.14285714 L9,6.14285714 L10,6.71428571 L10,8.42857143 L5,8.42857143 L5,6.71428571 L6,6.14285714 Z M5.5,10.7142857 C5.777,10.7142857 6,10.9691429 6,11.2857143 C6,11.6022857 5.777,11.8571429 5.5,11.8571429 C5.223,11.8571429 5,11.6022857 5,11.2857143 C5,10.9691429 5.223,10.7142857 5.5,10.7142857 L5.5,10.7142857 Z M9.5,10.7142857 C9.777,10.7142857 10,10.9691429 10,11.2857143 C10,11.6022857 9.777,11.8571429 9.5,11.8571429 C9.223,11.8571429 9,11.6022857 9,11.2857143 C9,10.9691429 9.223,10.7142857 9.5,10.7142857 Z M4,3.5 C4,3.22385763 4.23290253,3 4.50342274,3 L10.4965773,3 C10.77461,3 11,3.23193359 11,3.5 C11,3.77614237 10.7670975,4 10.4965773,4 L4.50342274,4 C4.22539004,4 4,3.76806641 4,3.5 Z" id="path-4"></path>
    </defs>
    <g id="POI-Clear" stroke="none" stroke-width="1" fill="none" fill-rule="evenodd">
        <g id="Artboard-4" transform="translate(-284.000000, -256.000000)">
            <g id="tram-s" transform="translate(285.000000, 257.000000)">
                <g id="g24875">
                    <use id="Rectangle-211" stroke="#2568AA" mask="url(#mask-2)" stroke-width="2" fill="#FFFFFF" xlink:href="#path-1"></use>
                    <g id="path24879">
                        <use fill="url(#linearGradient-3)" xlink:href="#path-4"></use>
                        <use fill-opacity="0.6" fill="#2568AA" xlink:href="#path-4"></use>
                    </g>
                </g>
            </g>
        </g>
    </g>
</svg>