<?xml version="1.0" encoding="UTF-8" standalone="no"?>
<svg width="27px" height="27px" viewBox="0 0 27 27" version="1.1" xmlns="http://www.w3.org/2000/svg" xmlns:xlink="http://www.w3.org/1999/xlink">
    <!-- Generator: Sketch 3.8.3 (29802) - http://www.bohemiancoding.com/sketch -->
    <title>olympic-stadium-main-l</title>
    <desc>Created with Sketch.</desc>
    <defs>
        <path d="M25,12.5 C25,19.403 19.403,25 12.5,25 C5.597,25 0,19.403 0,12.5 C0,5.597 5.597,0 12.5,0 C19.403,0 25,5.597 25,12.5 L25,12.5 Z" id="path-1"></path>
        <mask id="mask-2" maskContentUnits="userSpaceOnUse" maskUnits="objectBoundingBox" x="0" y="0" width="25" height="25" fill="white">
            <use xlink:href="#path-1"></use>
        </mask>
        <linearGradient x1="50%" y1="0%" x2="50%" y2="100%" id="linearGradient-3">
            <stop stop-color="#A6CE39" offset="0%"></stop>
            <stop stop-color="#009D57" offset="100%"></stop>
        </linearGradient>
        <path d="M14,6.84622133 L14,8.03956761 C17.4233605,8.22283939 20,9.0210716 20,9.97802198 C20,9.98535738 19.9998486,9.99268346 19.9995466,10 L20,15 C19.9609227,15.970208 17.3974334,18.272165 14,18.8318236 L14,16.495389 C14,16.2157526 13.7782068,16 13.504611,16 L11.495389,16 C11.2157526,16 11,16.2217932 11,16.495389 L11,18.8318236 C7.60256661,18.272165 5.03907733,15.970208 5.00044263,15 L5,10 C5.0001514,9.99268346 5,9.98535738 5,9.97802198 C5,9.0210716 7.57663952,8.22283939 11,8.03956761 L11,6.84791523 C10.4120293,6.91799245 10,7 10,7 L10,5 C10,5 11.25,4.75 12.5,4.75 C13.75,4.75 15,5 15,5 L15,7 C15,7 14.5890263,6.91666374 14,6.84622133 Z M13,6.76169435 L13,8.00432588 C12.8347382,8.00145706 12.6680143,8 12.5,8 C12.3319857,8 12.1652618,8.00145706 12,8.00432588 L12,6.76273242 C12.1684039,6.7546696 12.3400054,6.75 12.5115967,6.75 C12.6756852,6.75 12.8393868,6.75427017 13,6.76169435 Z M12.5,12.5 C16.0898509,12.5 19,11.7164983 19,10.75 C19,9.78350169 16.0898509,9 12.5,9 C8.91014913,9 6,9.78350169 6,10.75 C6,11.7164983 8.91014913,12.5 12.5,12.5 Z M10,10.5 L15,10.5 L16.2902222,11.6821289 C16.2902222,11.6821289 14.3543437,11.9495239 12.5,11.9495239 C10.6456563,11.9495239 8.79650879,11.6821289 8.79650879,11.6821289 L10,10.5 Z" id="path-4"></path>
    </defs>
    <g id="POI-Clear" stroke="none" stroke-width="1" fill="none" fill-rule="evenodd">
        <g id="Artboard-4" transform="translate(-71.000000, -367.000000)">
            <g id="wayside_shrine-l" transform="translate(72.000000, 368.000000)">
                <use id="Shape" stroke="#098F4C" mask="url(#mask-2)" stroke-width="2" fill="#FFFFFF" xlink:href="#path-1"></use>
                <g id="Combined-Shape">
                    <use fill="url(#linearGradient-3)" xlink:href="#path-4"></use>
                    <use fill-opacity="0.7" fill="#098F4C" xlink:href="#path-4"></use>
                </g>
            </g>
        </g>
    </g>
</svg>