<svg version="1.1" viewBox="0 0 24 24" xmlns="http://www.w3.org/2000/svg">
 <title>optician-m</title>
 <g fill="none" fill-rule="evenodd">
  <g id="optician-m" fill-rule="nonzero">
   <circle id="Oval" cx="12" cy="12" r="12" fill="#fff" opacity=".6"/>
   <circle id="Oval" cx="12" cy="12" r="11" fill="#8C5F93"/>
   <path id="Shape" d="m18.964 11.679-1.4-4.2c-0.0945-0.2863-0.3619-0.4788-0.6636-0.4788h-2.1v1.4h1.5953l0.9338 2.8h-3.2291c-0.7721 0-1.4 0.6279-1.4 1.4h-1.4c0-0.7721-0.6279-1.4-1.4-1.4h-3.2291l0.9338-2.8h1.5953v-1.4h-2.1c-0.3017 0-0.5684 0.1925-0.6636 0.4788l-1.4 4.2 0.0084 0.0028c-0.0245 0.0693-0.0448 0.1407-0.0448 0.2184v2.8c0 1.1578 0.9422 2.1 2.1 2.1h2.1c1.1578 0 2.1-0.9422 2.1-2.1v-0.7h1.4v0.7c0 1.1578 0.9422 2.1 2.1 2.1h2.1c1.1578 0 2.1-0.9422 2.1-2.1v-2.8c0-0.0777-0.0203-0.1491-0.0441-0.2191l0.0077-0.0021zm-9.0636 3.0212c0 0.3857-0.3136 0.7-0.7 0.7h-2.1c-0.3864 0-0.7-0.3143-0.7-0.7v-2.1h3.5v2.1zm7.7 0c0 0.3857-0.3136 0.7-0.7 0.7h-2.1c-0.3864 0-0.7-0.3143-0.7-0.7v-2.1h3.5v2.1z" fill="#fff"/>
  </g>
 </g>
</svg>
