<svg height="24" viewBox="0 0 24 24" width="24"><g fill="none" fill-rule="evenodd"><circle cx="12" cy="12" fill="#fff" opacity=".6" r="12"/><circle cx="12" cy="12" fill="#8c5f93" r="11"/><path d="m12.7383607 5c-.7845458 0-1.4205465.62680135-1.4205465 1.4s.6360007 1.4 1.4205465 1.4c.7845457 0 1.4205464-.62680135 1.4205464-1.4s-.6360007-1.4-1.4205464-1.4zm-3.10744538 2.865625c-.95886885.10828125-1.83339276.739375-2.15301571 1.684375l-.42172472 1.4c-.21308197.63.20420355 1.32125.84344945 1.53125.71027322.21 1.36283674-.13125 1.57591871-.83125l1.13199795-3.71875c-.319623-.0875-.65700273-.10171875-.97662568-.065625zm1.62031078.175-.4217247 1.334375.0443921.021875-.8434495 2.821875c-.14205464.56.084345 1.115625.5105089 1.465625l2.0864276 1.6625c.0749054.158046.1109802.3312358.1109802.503125v3.15h1.4205464v-3.15c0-.5755554-.1919819-1.1443187-.577097-1.61875l-.022196-.021875-1.3761544-1.575.6880772-2.384375c.0233836.0216544.0434304.042802.0665881.065625l.577097.56875c.4515221.4449914 1.1087855.5864502 1.6425068.48125l1.131998-.21875v7.853125h.7102732v-10.5h-.7102732v1.203125l-1.4205465.284375c-.1765519.0347997-.2384401.0275084-.3551366-.0875l-.0443921-.04375-.5105088-.525c-.5025077-.49523936-1.119966-.8335782-1.7978791-1.00625h-.0221961zm-1.0654098 6.475-1.64250685 4.484375h1.48713455l1.2873702-3.5z" fill="#fff" fill-rule="nonzero"/></g></svg>