<?xml version="1.0" encoding="UTF-8" standalone="no"?>
<svg width="23px" height="23px" viewBox="0 0 23 23" version="1.1" xmlns="http://www.w3.org/2000/svg" xmlns:xlink="http://www.w3.org/1999/xlink">
    <!-- Generator: Sketch 3.8.3 (29802) - http://www.bohemiancoding.com/sketch -->
    <title>outdoor-shop-m</title>
    <desc>Created with Sketch.</desc>
    <defs>
        <path d="M22,11.5 C22,17.299 17.299,22 11.5,22 C5.701,22 1,17.299 1,11.5 C1,5.701 5.701,1 11.5,1 C17.299,1 22,5.701 22,11.5 L22,11.5 Z" id="path-1"></path>
    </defs>
    <g id="POI-Clear" stroke="none" stroke-width="1" fill="none" fill-rule="evenodd">
        <g id="outdoor-shop-m">
            <path d="M11.5,23 C5.159,23 0,17.841 0,11.5 C0,5.159 5.159,0 11.5,0 C17.841,0 23,5.159 23,11.5 C23,17.841 17.841,23 11.5,23 L11.5,23 Z" id="Shape" fill-opacity="0.6" fill="#FFFFFF"></path>
            <g id="Shape">
                <use fill="#2D7970" xlink:href="#path-1"></use>
                <use fill="#825089" xlink:href="#path-1"></use>
            </g>
            <path d="M6.49696781,11.354977 C6.47911846,11.4019017 6.46773192,11.4517532 6.46404123,11.5034227 L6.03595877,17.4965773 C6.01663589,17.7670975 6.22385763,18 6.5,18 C6.76806641,18 7,17.77461 7,17.4965773 L7,11.7142857 L8.68823242,12.920166 C9.13655928,13.2403995 9.86137885,13.2418723 10.3117676,12.920166 L11.7826087,11.8695652 L12.5,14.5 L15,14 L15,13 L12.9684938,8.89715782 C12.7242404,8.40386231 12.1567753,8.24507903 11.6916679,8.54861189 L11.8345661,8.4553554 C11.3897553,8.74564253 11.1358415,9.38482643 11.247683,9.90231103 L9.5,12 L6.86516875,10.4943821 C6.38734924,10.2213424 6,10.453186 6,11 L6.49696781,11.354977 Z M10,18 L12.5,14.5 L15,14 L16.0006714,18 L14.5,18 L13.4244786,16.2225585 L11.5,18 L10,18 Z M10.5,8 C11.3284271,8 12,7.32842712 12,6.5 C12,5.67157288 11.3284271,5 10.5,5 C9.67157288,5 9,5.67157288 9,6.5 C9,7.32842712 9.67157288,8 10.5,8 Z M13,7.5 L15.5828629,13.0981997 C15.8132413,13.5975312 16.3166267,13.6853989 16.7097125,13.2919484 L17.7902875,12.2103709 C18.1822509,11.8180439 18.2251309,11.1563298 17.8751526,10.71875 L15.125824,7.28125 C14.7807303,6.84977754 14.1222168,6.75234222 13.6627194,7.05847454 L13,7.5 Z" id="Combined-Shape" fill="#FFFFFF"></path>
        </g>
    </g>
</svg>