<svg width="28" height="28" viewBox="0 0 28 28">
  <g fill="none" fill-rule="evenodd">
    <circle cx="14" cy="14" r="14" fill="#FFF" opacity=".6"/>
    <circle cx="14" cy="14" r="13" fill="#8C5F93"/>
    <path fill="#FFF" fill-rule="nonzero" d="M14.8860328,6 C13.9445779,6 13.1813771,6.7163444 13.1813771,7.6 C13.1813771,8.4836556 13.9445779,9.2 14.8860328,9.2 C15.8274877,9.2 16.5906885,8.4836556 16.5906885,7.6 C16.5906885,6.7163444 15.8274877,6 14.8860328,6 Z M11.1570984,9.275 C10.0064558,9.39875 8.95702708,10.12 8.57347954,11.2 L8.06740986,12.8 C7.8117115,13.52 8.31245413,14.31 9.07954921,14.55 C9.93187707,14.79 10.7149533,14.4 10.9706517,13.6 L12.3290492,9.35 C11.9455017,9.25 11.5406459,9.23375 11.1570984,9.275 Z M13.1014713,9.475 L12.5954017,11 L12.6486721,11.025 L11.6365328,14.25 C11.4660672,14.89 11.7377467,15.525 12.2491435,15.925 L14.7528566,17.825 C14.8427431,18.005624 14.8860328,18.2035552 14.8860328,18.4 L14.8860328,22 L16.5906885,22 L16.5906885,18.4 C16.5906885,17.7422224 16.3603103,17.0922072 15.8981721,16.55 L15.8715369,16.525 L14.2201517,14.725 L15.0458443,12 C15.0739046,12.0247479 15.0979607,12.0489166 15.12575,12.075 L15.8182664,12.725 C16.3600929,13.2335616 17.148809,13.3952288 17.7892746,13.275 L19.1476721,13.025 L19.1476721,22 L20,22 L20,10 L19.1476721,10 L19.1476721,11.375 L17.4430164,11.7 C17.2311541,11.739771 17.1568882,11.7314382 17.0168525,11.6 L16.963582,11.55 L16.3509713,10.95 C15.7479621,10.3840122 15.0070122,9.9973392 14.1935164,9.8 L14.1668812,9.8 L13.1014713,9.475 Z M11.8229795,16.875 L9.85197134,22 L11.6365328,22 L13.1813771,18 L11.8229795,16.875 Z"/>
  </g>
</svg>
