<svg version="1.1" viewBox="0 0 24 24" xmlns="http://www.w3.org/2000/svg">
 <title>outdoor-shop-m</title>
 <g fill="none" fill-rule="evenodd">
  <g id="outdoor-shop-m" fill-rule="nonzero">
   <circle id="Oval" cx="12" cy="12" r="12" fill="#fff" opacity=".6"/>
   <circle id="Oval" cx="12" cy="12" r="11" fill="#8C5F93"/>
   <path id="Shape" d="m12.738 5c-0.78455 0-1.4205 0.6268-1.4205 1.4s0.636 1.4 1.4205 1.4c0.78455 0 1.4205-0.6268 1.4205-1.4s-0.636-1.4-1.4205-1.4zm-3.1074 2.8656c-0.95887 0.10828-1.8334 0.73938-2.153 1.6844l-0.42172 1.4c-0.21308 0.63 0.2042 1.3212 0.84345 1.5312 0.71027 0.21 1.3628-0.13125 1.5759-0.83125l1.132-3.7188c-0.31962-0.0875-0.657-0.10172-0.97663-0.065625zm1.6203 0.175-0.42172 1.3344 0.044392 0.021875-0.84345 2.8219c-0.14205 0.56 0.084345 1.1156 0.51051 1.4656l2.0864 1.6625c0.074905 0.15805 0.11098 0.33124 0.11098 0.50312v3.15h1.4205v-3.15c0-0.57556-0.19198-1.1443-0.5771-1.6188l-0.022196-0.021875-1.3762-1.575 0.68808-2.3844c0.023384 0.021654 0.04343 0.042802 0.066588 0.065625l0.5771 0.56875c0.45152 0.44499 1.1088 0.58645 1.6425 0.48125l1.132-0.21875v7.8531h0.71027v-10.5h-0.71027v1.2031l-1.4205 0.28438c-0.17655 0.0348-0.23844 0.027508-0.35514-0.0875l-0.044392-0.04375-0.51051-0.525c-0.50251-0.49524-1.12-0.83358-1.7979-1.0062h-0.022196l-0.88784-0.28438zm-1.0654 6.475-1.6425 4.4844h1.4871l1.2874-3.5-1.132-0.98438z" fill="#fff"/>
  </g>
 </g>
</svg>
