<?xml version="1.0" encoding="UTF-8"?>
<svg version="1.1" viewBox="0 0 24 24" xmlns="http://www.w3.org/2000/svg">
	<title>parking_pay-m</title>
	<path d="m0.91699 0.98535a0.77 0.77 0 0 0-0.77148 0.76953v20.461a0.77 0.77 0 0 0 0.77148 0.76953h6.5996a0.77 0.77 0 0 0 0.76953-0.76953v-5.6836c0.73781-0.04265 1.4526-0.13702 2.1348-0.29102-1.8e-4 0.01896-2e-3 0.03766-2e-3 0.05664 4.1e-4 3.5175 3.2012 6.7179 6.7188 6.7168 3.5166-4.1e-4 6.7164-3.2002 6.7168-6.7168 0.0011-3.5175-3.1993-6.7183-6.7168-6.7188-0.32118-9.9e-5 -0.63943 0.027049-0.95312 0.078125a7.7489 7.7489 0 0 0 0.02148-1.0078c0-2.2489-0.69674-4.3644-2.3223-5.7578-1.5888-1.3811-3.7402-1.9062-6.1113-1.9062z" fill="#fff" opacity=".8"/>
	<path d="m2.2354 3.0752v17.82h3.9609v-6.3555h1.3066c2.1144 0 3.7656-0.48998 4.9023-1.4922 1.1611-1.0144 1.7109-2.4917 1.7109-4.3984 0-1.8456-0.51428-3.2527-1.5898-4.1816-1.0878-0.94111-2.6878-1.3926-4.7656-1.3926h-5.5117zm3.9609 3.1172h1.418c0.97778 0 1.6747 0.19578 2.127 0.61133 0.46444 0.42778 0.69531 1.0628 0.69531 1.9551 0 0.86778-0.24441 1.5395-0.80664 2.0039-0.55 0.45222-1.3936 0.7207-2.5059 0.7207h-0.92773z" fill="#2e89b0"/>
	<path d="m16.873 20.486c2.004 0 3.156-1.044 3.156-2.616 0-2.916-3.816-2.136-3.816-3.336 0-0.42 0.432-0.66 1.212-0.66 0.564 0 1.272 0.12 1.836 0.336l0.54-1.56c-0.648-0.312-1.536-0.492-2.304-0.492-1.968 0-3.312 1.08-3.312 2.652 0 2.736 3.792 2.04 3.792 3.288 0 0.396-0.324 0.624-1.104 0.624-0.648 0-1.5-0.144-2.292-0.492l-0.54 1.596c0.792 0.384 1.788 0.66 2.832 0.66zm-0.66 1.476h1.884v-2.124h-1.884zm0-9.108h1.884v-2.22h-1.884z" fill="#2e89b0" stroke-linecap="round" stroke-linejoin="round" aria-label="$"/>
</svg>
