<svg width="28" height="28" viewBox="0 0 28 28">
  <g fill="none" fill-rule="evenodd">
    <circle cx="14" cy="14" r="14" fill="#FFF" opacity=".2"/>
    <path fill="#717065" fill-rule="nonzero" d="M14.0001142,5 C11.2432105,5 9,7.27765894 9,10.0774167 C9,10.4116434 9.03289098,10.7384481 9.09387634,11.0548153 C9.09570362,11.071747 9.09387634,11.0886787 9.09661725,11.1056104 L10.3791371,19.076257 C10.4444622,19.4828493 10.7905027,19.7813571 11.1961582,19.7813571 L16.8040703,19.7813571 C17.2097257,19.7813571 17.5557662,19.4828493 17.6210913,19.076025 L18.9033827,11.1053785 C18.9061237,11.0886787 18.9042964,11.071747 18.9061237,11.0550473 C18.9673374,10.7384481 19,10.4118754 19,10.0774167 C19.0002284,7.27765894 16.7570179,5 14.0001142,5 Z M10.8272767,10.0774167 C10.8272767,10.0609489 10.8295608,10.044713 10.8297892,10.0282452 L10.8297892,9.91621782 C10.9188689,8.21493184 12.304173,6.85575858 13.9998858,6.85575858 C15.6955985,6.85575858 17.0809027,8.21493184 17.1645006,9.91621782 L17.1731801,10.1618432 L15.0213335,10.1618432 C15.0213335,9.58871737 14.5640575,9.12437183 13.9996574,9.12437183 C13.4357141,9.12437183 12.9779813,9.58871737 12.9779813,10.1618432 L10.8297892,10.1618432 L10.8297892,10.1268201 C10.8295608,10.1098884 10.8272767,10.0938845 10.8272767,10.0774167 Z M15.7903885,14.6918795 L13.9471232,12.8198851 C13.723967,12.5932789 13.3626231,12.5932789 13.1396953,12.8198851 C12.9165391,13.0462593 12.9165391,13.4134216 13.1396953,13.6397959 L14.9827322,15.5115584 C14.2070533,15.944128 13.2130148,15.8283896 12.5554236,15.1608639 C11.7573605,14.3504626 11.7580457,13.0365178 12.5554236,12.2268124 C13.3534867,11.4164111 14.6467417,11.4164111 15.4448048,12.2268124 C16.102396,12.89457 16.2168292,13.9037446 15.7903885,14.6918795 Z M13.2340285,17.7221864 C13.2340285,17.2921681 13.5773281,16.9442569 14.0001142,16.9442569 C14.4235856,16.9442569 14.7661999,17.2924001 14.7661999,17.7221864 C14.7661999,18.1519728 14.4233572,18.500116 14.0001142,18.500116 C13.5770997,18.500116 13.2340285,18.1517408 13.2340285,17.7221864 Z M15.7131861,20.5026931 L15.7131861,23 L12.2870423,23 L12.2870423,20.5026931 L15.7131861,20.5026931 Z"/>
  </g>
</svg>
