<svg height="24" viewBox="0 0 24 24" width="24"><g fill="none" fill-rule="evenodd"><circle cx="12" cy="12" fill="#fff" opacity=".6" r="12"/><circle cx="12" cy="12" fill="#507f34" r="11"/><path d="m17 12c0-1-1.1111111-2-1.6666667-2 .3409556-.3437.6789778-1.0028.6789778-1.4999 0-1.0738-1.2345333-2.0001-2.3456444-2.0001 0-1-.5555556-1.5-1.6666667-1.5s-1.6666667.5-1.6666667 1.5c-1.11111108 0-2.34564441.9266-2.34564441 2.0005 0 .4971.33802222 1.1558.67897778 1.4995-.55555556 0-1.66666667 1-1.66666667 2s.55555556 2.056 2.28396667 2.056h.4321l.06166666.944 1.66666667 1.5-.0000444 2.5h1.1111111l.0000444-2.5004 1.6666667-1.4996.0616666-.944.6211334-.012c1.5394666-.044 2.0950222-1.044 2.0950222-2.044zm-6.1111111 2h2.2222222v.5l-1.1111111 1-1.1111111-1z" fill="#fff"/></g></svg>