<?xml version="1.0" encoding="UTF-8" standalone="no"?>
<svg width="9px" height="17px" viewBox="0 0 9 17" version="1.1" xmlns="http://www.w3.org/2000/svg" xmlns:xlink="http://www.w3.org/1999/xlink">
    <!-- Generator: Sketch 3.7.2 (28276) - http://www.bohemiancoding.com/sketch -->
    <title>parking-ticket-l copy</title>
    <desc>Created with Sketch.</desc>
    <defs></defs>
    <g id="Page-6" stroke="none" stroke-width="1" fill="none" fill-rule="evenodd">
        <g id="parking-ticket-l" fill="#717065">
            <g id="POI">
                <g>
                    <path d="M0,2.59949948 C0,1.16383556 1.10357666,0 2.45928955,0 L6.5407104,0 C7.8989386,0 9,1.16510397 9,2.59949948 L9,10.4005005 C9,11.8361644 7.8964233,13 6.5407104,13 L2.45928955,13 C1.10106144,13 0,11.834896 0,10.4005005 L0,2.59949948 L0,2.59949948 Z M3.5490457,4.84841736 L3.99698833,4.54638427 C4.2460071,4.37847902 4.7565947,4.38328425 5.0079151,4.55802165 L5.4541674,4.8682907 C5.9076205,5.18356633 6.5307983,5.07155134 6.8460739,4.61809823 C7.1613495,4.16464512 7.0493345,3.54146735 6.5958814,3.22619172 L6.1496292,2.91592267 C5.2220193,2.27097663 3.81381805,2.25772379 2.87887739,2.88812376 L2.43093476,3.19015685 C1.97301877,3.49891466 1.85210217,4.12042658 2.16085998,4.57834258 C2.46961779,5.03625858 3.09112971,5.15717518 3.5490457,4.84841736 L3.5490457,4.84841736 Z M3,13 L6,13 L6,17 L3,17 L3,13 L3,13 Z" id="Combined-Shape"></path>
                </g>
            </g>
        </g>
    </g>
</svg>