<?xml version="1.0" encoding="UTF-8"?>
<svg version="1.1" viewBox="0 0 15 15" xmlns="http://www.w3.org/2000/svg">
 <path d="m10.795 0.25c-1.0112 0-1.8603 0.65969-2.1426 1.5762-0.60706-0.35302-0.26369-0.1545-1.2715-0.74023-0.27549-0.15996-0.52108-0.21853-0.82031-0.23438-0.43458-0.023011-0.88974 0.15139-1.2148 0.44141l-1.6621 1.4824c-0.72333 0.64518-0.78193 1.7398-0.13867 2.4609 0.18802 0.21076 0.41421 0.36391 0.6582 0.46094-0.39199 0.20465-0.7535 0.45996-1.0723 0.75977l-0.027344 0.025391-0.44141 0.48438-0.023438 0.029297c-0.6392 0.81571-1.0195 1.8411-1.0195 2.9551 0 2.6545 2.1417 4.7988 4.7969 4.7988 1.1139 0 2.1405-0.37972 2.957-1.0195l0.029297-0.023438 0.48438-0.44141 0.025391-0.027344c0.15467-0.16442 0.29752-0.33872 0.42773-0.52344 0.25535 0.17526 0.56052 0.28633 0.90039 0.30078 0.96218 0.04092 1.7465-0.66771 1.8223-1.5977l0.3125-3.8398c0.0408-0.49972-0.13252-0.99435-0.48633-1.3574-0.34998-0.35909-0.84298-0.55301-1.3477-0.52539l-0.22656 0.011719c0.23862-0.34181 0.34964-0.74083 0.33398-1.1387 0.8175-0.3343 1.3906-1.1343 1.3906-2.0762 0-1.2449-1.0012-2.2422-2.2441-2.2422z" fill="#fff" opacity=".8"/>
 <path d="m10.795 1.2505c-0.68662 0-1.2437 0.55565-1.2437 1.2422 0 0.68658 0.55702 1.2437 1.2437 1.2437 0.68654 0 1.2437-0.55707 1.2437-1.2437 0-0.68654-0.55711-1.2422-1.2437-1.2422zm-4.2495 0.60205c-0.19138-0.010185-0.38489 0.05244-0.53467 0.18604l-1.6611 1.4824c-0.30608 0.27301-0.33309 0.74273-0.060059 1.0488 0.27305 0.30606 0.74277 0.33316 1.0488 0.060059l1.2598-1.1235 1.04 0.60498-1.8369 2.0918c-0.76211 0.12429-1.448 0.47657-1.9863 0.98291l0.95947 0.95947c0.43386-0.3945 1.0108-0.63574 1.6421-0.63574 1.3464 0 2.4404 1.0954 2.4404 2.4419 0 0.63125-0.23982 1.2082-0.63428 1.6421l0.95947 0.95947c0.63933-0.67964 1.0312-1.5948 1.0312-2.6016 0-0.5998-0.13912-1.167-0.38672-1.6714l1.002-0.055664-0.24316 2.9912c-0.03334 0.4088 0.27087 0.76643 0.67969 0.7998 0.02047 0.0017 0.04129 0.0029 0.06152 0.0029 0.38278 0 0.70813-0.2944 0.73975-0.68262l0.31201-3.8394c0.01747-0.21397-0.05824-0.42491-0.20801-0.57861-0.14984-0.15374-0.35881-0.23583-0.57275-0.22412l-2.5898 0.14502 1.4253-1.623c0.20301-0.23119 0.26159-0.53907 0.18311-0.81445-0.04142-0.18871-0.15696-0.36052-0.33252-0.47021-0.0054-0.00385-3.4058-1.9805-3.4058-1.9805-0.10414-0.060466-0.21769-0.092004-0.33252-0.098116zm-3.1201 5.7598c-0.50549 0.64507-0.80713 1.4563-0.80713 2.3394 0 2.0976 1.7007 3.7983 3.7983 3.7983 0.88305 0 1.6943-0.30162 2.3394-0.80713l-0.96973-0.97119c-0.3909 0.26588-0.86223 0.42188-1.3696 0.42188-1.3464 0-2.4419-1.0954-2.4419-2.4419 0-0.50744 0.15446-0.97871 0.42041-1.3696l-0.96973-0.96973z" fill="#2e89b0"/>
</svg>
