<svg version="1.1" viewBox="0 0 20 20" xmlns="http://www.w3.org/2000/svg">
    <title>parking-m</title>
    <path transform="matrix(1.35,0,0,1.35,-3.4998084,-4.175)" d="m5.6015625 3.8339844a.46749465.46749465 0 00-.4667969.4667968v12.398438a.46749465.46749465 0 00.4667969.466797h3.9980469a.46749465.46749465 0 00.4667966-.466797v-3.44336c1.279398-.07225 2.457225-.383374 3.337891-1.164062a.46749465.46749465 0 00.002-.0039c1.004949-.88796 1.460937-2.1997966 1.460938-3.6132816 0-1.3600468-.42213-2.640455-1.408204-3.4882813-.964342-.8375427-2.266192-1.1522257-3.7051248-1.1523497z" fill="#ffffff" opacity="0.8"/>
    <path d="m5.1400244 2.7098242v14.580001h3.2400001v-5.194045h1.0688597c1.7309698 0 3.0792958-.399492 4.0146828-1.230114.941852-.830623 1.396424-2.0313184 1.396424-3.5994784 0-1.508301-.424569-2.659716-1.309153-3.417066-.878219-.7641378-2.191051-1.1389896-3.8837884-1.1391354h-4.52709zm3.2400001 2.5515h1.1561291c.8082014 0 1.3700654.1558602 1.7455494.5012604.381818.345546.567292.870426.567292 1.5946146 0 .7176276-.202743 1.2614616-.654578 1.64025-.451849.3720813-1.140981.5923863-2.0509189.5923863h-.7633764v-4.3284789z" fill="#2e89b0"/>
</svg>
