<?xml version="1.0" encoding="UTF-8"?>
<svg version="1.1" viewBox="0 0 24 24" width="18" height="18" xmlns="http://www.w3.org/2000/svg">
 <path d="m2.6641 0.66602c-1.1046 0-2 0.89543-2 2v17.334c0 1.1046 0.89543 2 2 2h4.002c1.1046 0 2-0.89543 2-2v-0.69336l6.1875 4.332a2 2 0 0 0 3.1465-1.6387v-1.334h3.334a2 2 0 0 0 2-2v-2.666a2 2 0 0 0-2-2h-3.334v-1.334a2 2 0 0 0-1.6953-1.9727c0.24398-0.81474 0.35937-1.6898 0.35937-2.6055 0-2.229-0.65384-4.2126-2.3262-5.6035-1.5815-1.3177-3.7223-1.8184-6.0918-1.8184h-5.5684-0.013672zm0.0019531 2h5.582c2.0986 0 3.7138 0.44006 4.8125 1.3555 1.0864 0.9035 1.6055 2.2712 1.6055 4.0664 0 1.8547-0.55572 3.2926-1.7285 4.2793-1.1481 0.9748-2.8156 1.4512-4.9512 1.4512h-1.3184v6.1816h-4.002v-17.334zm4.002 3.0332v5.1465h0.93555c1.1235 0 1.9757-0.2613 2.5313-0.70117 0.56788-0.4517 0.81445-1.1051 0.81445-1.9492 0-0.8679-0.23207-1.4862-0.70117-1.9023-0.4569-0.4042-1.1608-0.59375-2.1484-0.59375h-1.4316zm9.332 6.9688v3.332h5.334v2.666h-5.334v3.334l-6.666-4.666 6.666-4.666z" fill="#fff" opacity=".6"/>
 <path d="m16 12.667-6.6666 4.6663 6.6666 4.667 4e-5 -3.3337h5.3333v-2.6667h-5.3333z" fill="#4e7c90" opacity=".6"/>
 <path d="m2.6664 20h4.0007v-6.1819h1.3197c2.1356 0 3.8034-0.4766 4.9515-1.4514 1.1728-0.9867 1.7281-2.4236 1.7281-4.2783 0-1.7952-0.51944-3.1639-1.6058-4.0674-1.0987-0.91541-2.7148-1.3546-4.8134-1.3546l-5.5805 3e-4zm4.0007-14.301h1.4322c0.9876 0 1.6915 0.19043 2.1484 0.59463 0.4691 0.4161 0.70229 1.0338 0.70229 1.9017 0 0.84408-0.24686 1.4975-0.81474 1.9492-0.55552 0.43987-1.4076 0.70102-2.5311 0.70102h-0.93704z" fill="#4e7c90" opacity=".6"/>
</svg>
