<?xml version="1.0" encoding="UTF-8" standalone="no"?>
<svg width="21px" height="21px" viewBox="0 0 21 21" version="1.1" xmlns="http://www.w3.org/2000/svg" xmlns:xlink="http://www.w3.org/1999/xlink">
    <!-- Generator: Sketch 3.7.2 (28276) - http://www.bohemiancoding.com/sketch -->
    <title>parking-ticket-l</title>
    <desc>Created with Sketch.</desc>
    <defs></defs>
    <g id="POI" stroke="none" stroke-width="1" fill="none" fill-rule="evenodd">
        <path d="M6,4.59949948 C6,3.16383556 7.10357666,2 8.45928955,2 L12.5407104,2 C13.8989386,2 15,3.16510397 15,4.59949948 L15,12.4005005 C15,13.8361644 13.8964233,15 12.5407104,15 L8.45928955,15 C7.10106144,15 6,13.834896 6,12.4005005 L6,4.59949948 Z M9.5490457,6.84841736 L9.99698833,6.54638427 C10.2460071,6.37847902 10.7565947,6.38328425 11.0079151,6.55802165 L11.4541674,6.8682907 C11.9076205,7.18356633 12.5307983,7.07155134 12.8460739,6.61809823 C13.1613495,6.16464512 13.0493345,5.54146735 12.5958814,5.22619172 L12.1496292,4.91592267 C11.2220193,4.27097663 9.81381805,4.25772379 8.87887739,4.88812376 L8.43093476,5.19015685 C7.97301877,5.49891466 7.85210217,6.12042658 8.16085998,6.57834258 C8.46961779,7.03625858 9.09112971,7.15717518 9.5490457,6.84841736 Z M9,15 L12,15 L12,19 L9,19 L9,15 Z" id="Combined-Shape" fill="#717065"></path>
    </g>
</svg>