<svg width="28" height="28" viewBox="0 0 28 28">
  <g fill="none" fill-rule="evenodd">
    <circle cx="15" cy="14" r="14" fill="#FFF" opacity=".6"/>
    <circle cx="15" cy="14" r="13" fill="#507F34"/>
    <path fill="#FFF" d="M22,13.5002001 C22,12.4301001 21.2679314,11.5131001 20.25,11.1565001 C20.6748892,10.7145001 20.9230769,10.1393001 20.9230769,9.50020008 C20.9230769,8.11950008 19.7176898,7.00020008 18.2307692,7.00020008 C18.0188835,7.00020008 17.8227791,7.01920008 17.625,7.06220008 C17.3995925,5.89300008 16.3239315,4.99970008 15,5.00000008 C13.6760685,5.00020008 12.6004075,5.89350008 12.375,7.06270008 C12.1772209,7.01970008 11.9811165,7.00070008 11.7692308,7.00070008 C10.2823102,7.00070008 9.07692308,8.12000008 9.07692308,9.50070008 C9.07692308,10.1398001 9.32511077,10.7150001 9.75,11.1570001 C8.73206862,11.5136001 8,12.4301001 8,13.5002001 C8,14.8809001 9.07692308,16.0007001 10.6923077,16.0007001 L11.2307692,16.0007001 L13.3846154,19.5007001 L13.3846154,23.0002001 L16.6153846,23.0002001 L16.6153846,19.5002001 L18.7692308,16.0007001 L19.5432692,15.9857001 C20.9230769,16.0002001 22,14.8052001 22,13.5002001 L22,13.5002001 Z M13.3846154,16.0002001 L16.6153846,16.0002001 L15.5384615,18.0002001 L14.4615385,18.0002001 L13.3846154,16.0002001 Z"/>
  </g>
</svg>
