<svg version="1.1" viewBox="0 0 12 12" xmlns="http://www.w3.org/2000/svg">
 <title>parking-s</title>
 <g fill="none" fill-rule="evenodd">
  <g id="parking-s" fill-rule="nonzero">
   <rect id="Rectangle" width="12" height="12" rx="1.5" fill="#fff" opacity=".6"/>
   <rect id="Rectangle" x="1" y="1" width="10" height="10" rx="1" fill="#2E89B0"/>
   <path id="Shape" d="m6.0776 6.1354c0.43446 0 0.75955-0.085 0.97526-0.2552 0.21571-0.1732 0.32357-0.4238 0.32357-0.7519 0-0.3312-0.0911-0.5758-0.27344-0.7338-0.17926-0.158-0.46181-0.2369-0.84766-0.237h-0.84257v1.9779h0.66484zm1.9508 0.5879c-0.44662 0.3798-1.0831 0.5697-1.9095 0.5697h-0.70612v2.707h-1.4128v-7h2.2282c0.80816 0 1.4219 0.1747 1.8412 0.5241 0.4223 0.3463 0.63346 0.8644 0.63346 1.554 0 0.717-0.22483 1.2654-0.67448 1.6452z" fill="#fff"/>
  </g>
 </g>
</svg>
