<?xml version="1.0" encoding="UTF-8"?>
<svg width="16px" height="16px" viewBox="0 0 16 16" version="1.1" xmlns="http://www.w3.org/2000/svg" xmlns:xlink="http://www.w3.org/1999/xlink">
    <title>park-s</title>
    <g id="Page-1" stroke="none" stroke-width="1" fill="none" fill-rule="evenodd">
        <g id="park-s" fill-rule="nonzero">
            <circle id="Oval" fill="#FFFFFF" opacity="0.6" cx="8" cy="8" r="8"></circle>
            <circle id="Oval" fill="#507F34" cx="8" cy="8" r="7.33333333"></circle>
            <path d="M7.11111111,12.6666667 L7.11111111,10.4598 C6.86782222,10.5458222 6.60607407,10.5925926 6.33333333,10.5925926 C5.04466963,10.5925926 4,9.54793333 4,8.25925926 C4,7.60312593 4.27081185,7.01025185 4.70675111,6.58633185 C4.58560444,6.30413333 4.51851852,5.99323481 4.51851852,5.66666667 C4.51851852,4.37800296 5.56318815,3.33333333 6.85185185,3.33333333 C7.66214074,3.33333333 8.37593333,3.74635407 8.79427407,4.37335704 C8.83788148,4.37137111 8.8818,4.37037037 8.92592593,4.37037037 C10.5009778,4.37037037 11.7777778,5.64718593 11.7777778,7.22222222 C11.7777778,8.79727407 10.5009778,10.0740741 8.92592593,10.0740741 C8.6562963,10.0740741 8.39537778,10.036637 8.14814815,9.96674074 L8.14814815,12.6666667 L7.11111111,12.6666667 Z" id="Path" fill="#FFFFFF"></path>
        </g>
    </g>
</svg>