<?xml version="1.0" encoding="utf-8"?>
<!-- Generator: Adobe Illustrator 21.0.2, SVG Export Plug-In . SVG Version: 6.00 Build 0)  -->
<svg version="1.1" id="Слой_1" xmlns="http://www.w3.org/2000/svg" xmlns:xlink="http://www.w3.org/1999/xlink" x="0px" y="0px"
	 viewBox="0 0 32.4 32.4" enable-background="new 0 0 32.4 32.4" xml:space="preserve">
<title>park-l</title>
<desc>Created with Sketch.</desc>
<g id="POI-Clear">
	<g id="Artboard-1" transform="translate(-137.000000, -174.000000)">
		<g id="park-l" transform="translate(137.000000, 174.000000)">
			<ellipse id="Oval-1-Copy-39" fill="#FFFFFF" fill-opacity="0.6" cx="16.2" cy="16.2" rx="16.2" ry="16.2"/>
			<ellipse id="Oval-1-Copy-38" fill="#507F34" cx="16.2" cy="16.2" rx="15" ry="15"/>
			<path id="path4390-3" fill="#FFFFFF" d="M24,16.2c0-1.3-0.8-2.4-2-2.8c0.5-0.5,0.8-1.2,0.8-2c0-1.7-1.3-3-3-3
				c-0.2,0-0.5,0-0.7,0.1C18.9,7.1,17.7,6,16.2,6c-1.5,0-2.7,1.1-2.9,2.5c-0.2-0.1-0.4-0.1-0.7-0.1c-1.7,0-3,1.3-3,3
				c0,0.8,0.3,1.5,0.8,2c-1.1,0.4-2,1.5-2,2.8c0,1.7,1.2,3,3,3H12l2.4,4.2v4.2H18v-4.2l2.4-4.2l0.9,0C22.8,19.2,24,17.8,24,16.2
				L24,16.2z M14.4,19.2H18l-1.2,2.4h-1.2L14.4,19.2z"/>
		</g>
	</g>
</g>
</svg>
