<svg width="32" height="32" viewBox="0 0 32 32">
  <g fill="none" fill-rule="evenodd">
    <circle cx="16" cy="16" r="16" fill="#fff" fill-opacity=".4"/>
    <path fill="#00873f" d="m17.8514956 1.11277292v15.47465618l-.0014427.002645c-.0064923.6703856-.5520823 1.2114071-1.2239107 1.2114071h-1.8450034c-.0918534 0-.1659133.0743003-.1659133.1659132v12.9667212c.4554199.0430413.9163702.0639608 1.3852554.0639608 8.2836395 0 14.9995191-6.7149178 14.9995191-15 0-7.65581421-5.7369914-13.97398291-13.1485044-14.88530348m-.3048956 23.06771188c-1.0368376 0-1.8750601-.8382226-1.8750601-1.8738579 0-1.0353948.8382225-1.8748196 1.8750601-1.8748196 1.0349139 0 1.8743387.8394248 1.8743387 1.8748196 0 1.0356353-.8394248 1.8738579-1.8743387 1.8738579m4.3959796 0c-1.0337117 0-1.8731365-.8382226-1.8731365-1.8738579 0-1.0353948.8394248-1.8748196 1.8731365-1.8748196 1.0351544 0 1.8765028.8394248 1.8765028 1.8748196 0 1.0356353-.8413484 1.8738579-1.8765028 1.8738579m4.3964605 0c-1.0361162 0-1.8757815-.8382226-1.8757815-1.8738579 0-1.0353948.8396653-1.8748196 1.8757815-1.8748196 1.0337117 0 1.8738579.8394248 1.8738579 1.8748196 0 1.0356353-.8401462 1.8738579-1.8738579 1.8738579zm-10.3385592-23.1804848.049774.00216409-.0016832 14.83937671c-.0040877.0880062-.0762239.1562951-.1656728.1562951h-1.8918919l-.0014427.0021641c-.6448976.0247668-1.1623545.5489564-1.17582 1.1977013h-.0014427v13.4601327c-6.75146674-1.4607579-11.8123016-7.4680196-11.8123016-14.6599981 0-8.28267768 6.71587958-14.9978359 15.0004809-14.9978359z"/>
  </g>
</svg>
