<svg height="32" viewBox="0 0 32 32" width="32" xmlns:xlink="http://www.w3.org/1999/xlink"><defs><rect id="a" height="26" rx="13" width="26" x="3" y="3"/><mask id="b" fill="#fff"><use fill="none" xlink:href="#a"/></mask></defs><g fill="none" fill-rule="evenodd"><rect fill="#fff" fill-opacity=".6" height="28" rx="14" width="28" x="2" y="2"/><use fill="#fff" xlink:href="#a"/><path d="m21.5535113 28.6798558-26.5532636-26.69264594 2.4869828-2.4869828 26.6229548 26.62295474zm9.0003716-1.0000413-26.55326365-26.69264592 2.4869828-2.4869828 26.62295475 26.62295482zm8.0003302-1.5000619-26.5532636-26.69264595 2.4869828-2.4869828 26.6229548 26.62295475zm7.5003097-3.0001238-26.5532637-26.692646 2.4869828-2.4869828 26.6229548 26.6229548zm-30.5012592 9.0003715-26.5532636-26.69264595 2.4869828-2.4869828 26.6229548 26.62295475z" fill="#d91935" mask="url(#b)"/><path d="m3 12h26v8h-26z" fill="#fff" mask="url(#b)"/><path d="m7.35093224 17.9446536v-3.8891617h2.64459603v.9000455h-1.64450508v.6890404h1.47788389v.86124h-1.47788389v1.4388358zm5.78696986-1.8446688c-.1276944.1852964-.295407.3297257-.502774.4334092l.8 1.4113081h-1.1277854l-.661149-1.2057602h-.3554343v1.2057602h-.9946339v-3.8891617h1.5279673c.522298 0 .9109595.131575 1.1665908.3944823.1073216.1074428.1907534.2359861.2501744.3858724.0590571.1502501.0887676.3251175.0887676.525451v.0275276c0 .2888586-.0639078.5260573-.1917235.7111111zm-.8138245-.6610277v-.0110353c0-.1667425-.0492345-.2918903-.1473397-.3752009s-.2306503-.124784-.3972715-.124784h-.488707v1.0165833h.4942853c.1703805 0 .3028043-.0454752.3973928-.1361831.0943459-.0907079.1416401-.2137941.1416401-.36938zm1.3561195 2.5057087v-3.8891618h1.0002122v3.8891618zm4.7232135-1.922292c0 .2852206-.0435349.5465515-.1306048.7833864-.0873124.2369562-.2151281.439715-.3838108.6081552-.1681977.1686828-.3756859.2991663-.6218584.3919357-.2464151.0924057-.5267849.138851-.8418372.138851h-1.2610581v-3.8891617h1.277793c.3111717 0 .588995.0454752.8334697.1361831.2444748.0907079.4500228.2193725.6167652.3859936.1666212.1666212.2932242.3667122.3805366.6000304.0870699.2333181.1306048.4927088.1306048.7778081zm-1.0224041.005457v-.0500833c0-.3517963-.0851296-.6110657-.2556313-.7778081-.1702592-.1666212-.3943611-.2499318-.6720631-.2499318h-.2889798v2.1001061h.2889798c.277702 0 .5018039-.0833106.6720631-.2500531.1705017-.1666212.2556313-.423829.2556313-.7722298zm2.1951918-1.9945429h1.0112475l1.3722601 3.9113536h-1.0501743l-.2276186-.6999545h-1.2222525l-.2224042.6999545h-1.0277399zm.1335152 2.4111565h.7220252l-.3610126-1.1389419zm3.8805518-2.3889283h1.0888585l-1.2500227 2.4224345v1.4667273h-.9998484v-1.455692l-1.2503865-2.4334698h1.1058359l.6499925 1.4057299zm3.3861331 3.6197302c-.1239352.1057451-.2730939.186024-.4472336.2414431-.1741398.0557829-.3645294.0833106-.5721389.0833106-.2888586 0-.5678945-.0452327-.8362589-.1358193-.2687282-.0908292-.517326-.2363499-.7472487-.4363196l.5334546-.7278459c.1592239.1297559.3279066.2352584.5055631.3166287.1777778.0816129.3611338.1223587.5500682.1223587.133394 0 .2339245-.0257087.3026831-.0777323.0685159-.0517811.1027133-.1204184.1027133-.2056693v-.0055783c0-.0368652-.0084887-.0720327-.024981-.105745-.0166137-.0332272-.0462029-.0654843-.0887677-.0968925-.042686-.0315295-.1010156-.0641504-.1749886-.0971351-.0743368-.0334697-.1685615-.070335-.2832803-.1113233-.1852963-.0626952-.3537365-.1286646-.5056844-.1971806-.1519478-.0686372-.2834015-.1487949-.3944823-.2416856-.1112021-.0925269-.1970593-.2019099-.2580567-.3277853-.0613612-.1258754-.0917993-.277702-.0917993-.4554798v-.0168561c0-.1776565.0323783-.3396696.0970138-.4859179.064878-.1463695.1575261-.2723662.2779445-.37799.1201758-.1055025.2666667-.1877217.4387449-.2471426.1723207-.0591784.3640442-.0888889.5750492-.0888889.2630287 0 .5090799.0371078.7391239.1110808.2295589.0742155.4462634.1943914.6498711.3612551l-.5056844.7444596c-.1332727-.1036835-.2777019-.1890556-.4332878-.2555101-.1553434-.0668182-.3129908-.1001667-.4720934-.1001667-.1149613 0-.2028801.0241322-.26412.0722753-.06124.0481431-.0914355.109383-.0914355.1831135v.0056996c0 .0446263.0092163.0831893.0276489.1166591.0186751.0333484.0509322.0666969.0973776.1000454.0460815.033106.1091405.068516.1889343.1055025.0795514.0369865.1804457.0777323.3024405.1221161.1852964.059421.3519176.1241777.5003487.194634.1481886.070335.2739427.1527967.3776262.2472639.1036835.0943459.1832348.2028801.2390177.3249962.0554192.1222374.0831893.2667879.0831893.4335304v.0110353c0 .1888131-.03541.3591936-.1055025.5110202-.0704562.1519478-.1675913.2804911-.2917689.3862361zm-21.8175656-1.1383113v.4811884h1.49668031v.5007124h-1.49668031v.4810672h-.45062907v-1.462968zm.35882977-1.6655814h.92914962c.13630438.1835987.24192815.4200698.24192815.7147492 0 .5315143-.37544339.9348491-.98469001.9348491h-.03892679c-.58414431 0-.99038957-.4006669-.99038957-.9376383 0-.278187.08343186-.4811884.23647112-.6703653l.38114295.2781871c-.09179931.1029559-.1614067.2142792-.1614067.3812642 0 .247749.21706836.436562.53963923.436562h.02789146c.35616189 0 .55370623-.1918447.55370623-.4422616 0-.0972563-.02243444-.1696529-.05845081-.2251933h-.28946491v.3086252h-.38659997zm-.80954373-.3150159v-.5008337h1.94730938v.5008337z" fill="#000" mask="url(#b)"/></g></svg>