<?xml version="1.0" encoding="UTF-8"?>
<svg width="32px" height="32px" viewBox="0 0 32 32" version="1.1" xmlns="http://www.w3.org/2000/svg" xmlns:xlink="http://www.w3.org/1999/xlink">
    <!-- Generator: Sketch 52.1 (67048) - http://www.bohemiancoding.com/sketch -->
    <title>partner2-l</title>
    <desc>Created with Sketch.</desc>
    <g id="Brands" stroke="none" stroke-width="1" fill="none" fill-rule="evenodd">
        <g id="-Brand-/-Icons-/-Sixt">
            <circle id="background" fill-opacity="0.6" fill="#FFFFFF" cx="16" cy="16" r="16"></circle>
            <circle id="Circle" fill="#FFFFFF" cx="16" cy="16" r="15"></circle>
            <g id="Group-2" transform="translate(4.000000, 11.000000)">
                <path d="M19.5136475,9.18204899 C19.5122342,9.18997705 19.5041311,9.19251028 19.4985248,9.18688088 C19.4866999,9.1744493 17.0521344,5.8095726 17.0521344,5.8095726 C17.0521344,5.8095726 17.0464811,5.79850146 17.0522758,5.79038574 C17.1381595,5.67099567 18.1124662,4.31262279 18.1170831,4.30586752 C18.1218413,4.29751725 18.1291436,4.29648519 18.1291436,4.29648519 L19.5063453,4.29540623 C19.5063453,4.29540623 19.515108,4.29554696 19.5151551,4.30469473 C19.5176049,4.55750145 19.5146369,9.14630233 19.5146369,9.14630233 C19.5146369,9.14630233 19.5153906,9.17252593 19.5136475,9.18204899 Z M16.5014516,2.04134978 C16.5014516,2.04134978 15.1825736,4.02636808 15.1806891,4.02871366 C15.1781451,4.0320913 15.1712198,4.0377207 15.1615149,4.02557059 C15.0598489,3.89811171 14.472702,3.15756487 14.472702,3.15756487 C13.7577895,3.71510948 12.9419178,4.08444467 12.0573579,4.34513254 C12.0573579,4.34513254 13.1241439,5.7308549 13.1272061,5.73470165 C13.1321528,5.74267663 13.1254159,5.75135528 13.1225421,5.75557732 C12.9588778,5.99796967 10.8192284,9.16014126 10.8166373,9.16370654 C10.8133866,9.16858535 10.7955315,9.17238519 10.7957199,9.15648215 C10.7947306,6.68475579 10.7957199,4.61379539 10.7957199,4.61379539 C10.0495256,4.72056624 9.35623723,4.75969053 8.66238347,4.75983127 C8.43719194,4.75987818 8.21011595,4.7595498 7.98355819,4.75115262 C7.98355819,4.75115262 7.98459464,6.56789894 7.98459464,6.57334069 C7.98459464,6.57878244 7.9684355,6.58619447 7.96334749,6.57366907 C7.86172863,6.32231661 7.71681458,6.110323 7.58151121,5.96780549 C6.68644552,5.02225487 3.56636496,4.66516362 3.12818369,4.17038676 C3.04427864,4.08242747 2.99966433,3.92536736 2.99966433,3.80442921 C2.99966433,3.39761164 3.25510126,3.13917552 3.93420921,3.11398398 C4.4401835,3.09526624 4.83869714,3.3316539 4.94069289,4.27861187 L7.69556742,4.2755157 C7.68981986,4.17301381 7.6689496,4.00980828 7.65915047,3.91274814 C7.51739287,2.51665832 6.79263416,1.66666667 4.1070602,1.66666667 C2.45340997,1.66666667 1.31958471,1.95864459 0.685609295,2.58505546 C0.286671653,2.97925381 0.0818321546,3.50522689 0.0818321546,4.1762038 C0.0818321546,4.62697756 0.189528358,5.18147291 0.553085489,5.55531162 C0.955556472,5.97123004 1.8179741,6.2686028 2.68260596,6.52206629 C3.76093422,6.8382037 4.84397359,7.08256633 5.05606822,7.36323855 C5.13064525,7.46217516 5.18562402,7.59770283 5.18562402,7.74064254 C5.18562402,8.36724105 4.56140062,8.55160372 3.95178169,8.55160372 C3.57889654,8.55160372 3.31464982,8.44581802 3.12818369,8.23692057 C2.95104557,8.02802313 2.85140539,7.70498971 2.84203026,7.26519327 L0,7.26312916 C0.0325067281,8.11884402 0.132712251,8.77326113 0.669167486,9.24322174 C1.20703606,9.71440206 2.18332146,10 3.88559045,10 C6.33033196,10 7.56134762,9.33737336 7.96485504,8.28059529 C7.9680115,8.27238576 7.98421775,8.27585722 7.98355819,8.29021217 L7.98459464,9.79213461 L13.4470912,9.79110255 C13.4470912,9.79110255 14.993375,7.58058009 14.9956363,7.57776539 C14.9979448,7.57490378 15.0070843,7.57194835 15.0130675,7.58076774 C15.1373468,7.76536496 16.4998969,9.79213461 16.4998969,9.79213461 L22.3084252,9.78486331 L22.3104981,4.2868214 C22.3104981,4.2868214 22.3103568,4.2775329 22.3200146,4.27757981 C22.4860345,4.27837731 24,4.2775329 24,4.2775329 L24,2.04134978 L16.5014516,2.04134978 Z" id="Fill-1" fill="#0A0B09"></path>
                <path d="M13.9830973,2.73797989 C12.7003816,3.66296906 10.8959831,4.19255975 8.60948696,4.16569139 C8.4099576,4.16334851 8.20679527,4.15776548 8.00103799,4.15013866 L8,1.77410888 C10.0758792,1.93561809 11.4902305,1.53528461 12.3355292,0.875988068 C12.6658921,0.618271212 12.9096303,0.32097463 13.0747645,0.00224318347 L16,0 C15.6239657,1.11466279 14.9432823,2.04558393 13.9830973,2.73797989" id="Fill-2" fill="#E5732D"></path>
            </g>
        </g>
    </g>
</svg>