<svg height="32" viewBox="0 0 32 32" width="32" xmlns="http://www.w3.org/2000/svg"><g fill="none" fill-rule="evenodd" transform="translate(1 3)"><path d="m26.4380687 14.0454545h4.0619313v7h-7.5900685l-14.36836487 5.2296572-1.90343953-5.2296572h-7.1381271v-7h4.59033546l-2.73119184-7.50388787 19.73354508-7.18242301z" fill="#fff" fill-opacity=".6" stroke="#fff" stroke-opacity=".6"/><path d="m4.817128 2.817128h20v20h-20z" fill="#1f2599" transform="matrix(.93969262 -.34202014 .34202014 .93969262 -3.490134 5.840724)"/><path d="m0 14.545455h30v6h-30z" fill="#dc353d"/><g fill="#fff"><path d="m2.5234375 16.4634766h.87011719c.75234375 0 1.19707031.4693359 1.19707031 1.2673828 0 .7998047-.44296875 1.2691406-1.19707031 1.2691406h-.87011719zm.31640625.2847656v1.9669922h.53261719c.56601562 0 .89472656-.3621094.89472656-.9808594 0-.6205078-.33222656-.9861328-.89472656-.9861328zm2.89464844.590625c-.30234375 0-.51328125.2214844-.53613282.5572265h1.04414063c-.00703125-.3357421-.20742188-.5572265-.50800781-.5572265zm.49921875 1.1707031h.30234375c-.09140625.3251953-.38320313.5238281-.79804688.5238281-.52558594 0-.85429687-.3796875-.85429687-.9791015 0-.5958985.33398437-.9826172.85429687-.9826172.51152344 0 .82265625.3638672.82265625.9527344v.1160156h-1.36230469v.0140625c.01582032.374414.225.6117187.54667969.6117187.24433594 0 .40957031-.0896484.48867188-.2566406zm.63761718-.8859375c0-.3146484.30410157-.5519531.70664063-.5519531.39726562 0 .67324219.196875.71367187.5080078h-.29882812c-.04042969-.1511719-.18808594-.2513672-.41660156-.2513672-.225 0-.40078125.1142578-.40078125.2830078 0 .1300782.10546875.2109375.32871093.2654297l.29179688.0703125c.35683594.0861328.52910156.2408203.52910156.5132813 0 .3392578-.32871094.5730468-.759375.5730468-.421875 0-.71191406-.2021484-.7453125-.5167968h.31113281c.05097657.1599609.20214844.261914.44472657.261914.25488281 0 .43769531-.121289.43769531-.2953125 0-.1300781-.0984375-.2179687-.30058594-.2671875l-.32519531-.0791015c-.35507813-.0861329-.51679688-.2390625-.51679688-.5132813zm1.81535157 1.3763672v-1.8949219h.30234375v1.8949219zm.15117187-2.2798828c-.11601562 0-.2109375-.0949219-.2109375-.2109375s.09492188-.2109375.2109375-.2109375c.11601563 0 .2109375.0949219.2109375.2109375s-.09492187.2109375-.2109375.2109375zm1.93664064 1.3042969c0-.413086-.2126953-.6802735-.5625-.6802735-.35156251 0-.54843751.2671875-.54843751.6802735 0 .4130859.196875.6802734.54843751.6802734.3515625 0 .5625-.2671875.5625-.6802734zm-.5484375 1.7033203c-.45703126 0-.74882814-.2056641-.79453126-.5185547h.31992187c.03339844.1546875.20214844.2548828.47460939.2548828.3392578 0 .5414062-.1669922.5414062-.4464844v-.3726562h-.028125c-.1195312.2091797-.3339843.3269531-.5941406.3269531-.49042968 0-.79453124-.3796875-.79453124-.9474609 0-.5677735.30761719-.9527344.79453124-.9527344.2654297 0 .4992188.1300781.6082031.3339844h.028125v-.300586h.2882813v1.9283203c0 .4236328-.3269531.694336-.84375.694336zm1.2932812-.7277344v-1.8949219h.2882813v.2988281h.028125c.0949219-.2091796.2794922-.3322265.5695312-.3322265.4253907 0 .6626953.2513672.6626953.7013672v1.2269531h-.3023437v-1.153125c0-.3410156-.1441406-.5027344-.4464844-.5027344-.3023437 0-.4974609.2021485-.4974609.534375v1.1214844zm2.7364453-1.6611328c-.3023437 0-.5132812.2214844-.5361328.5572265h1.0441407c-.0070313-.3357421-.2074219-.5572265-.5080079-.5572265zm.4992188 1.1707031h.3023437c-.0914062.3251953-.3832031.5238281-.7980468.5238281-.525586 0-.8542969-.3796875-.8542969-.9791015 0-.5958985.3339844-.9826172.8542969-.9826172.5115234 0 .8226562.3638672.8226562.9527344v.1160156h-1.3623047v.0140625c.0158203.374414.225.6117187.5466797.6117187.244336 0 .4095703-.0896484.4886719-.2566406zm.6815625.4904297v-1.8949219h.2882812v.28125h.028125c.05625-.1845703.2742188-.3146484.525586-.3146484.0492187 0 .1125.0035156.1511719.0087891v.3023437c-.0246094-.0070313-.1335938-.0175781-.1933594-.0175781-.2882813 0-.497461.1933594-.497461.4605468v1.1742188zm3.2527734-2.5962891c.7207032 0 1.1601563.5132813 1.1601563 1.3271485 0 .8103515-.4359375 1.3289062-1.1601563 1.3289062-.7277343 0-1.1654297-.5167968-1.1654297-1.3289062 0-.815625.4482422-1.3271485 1.1654297-1.3271485zm0 .2917969c-.5167968 0-.8402343.4007813-.8402343 1.0353516 0 .6292968.3128906 1.0371094.8402343 1.0371094.5203125 0 .834961-.4078126.834961-1.0371094 0-.6345703-.3164063-1.0353516-.834961-1.0353516zm3.0827344.4095703v1.8949219h-.2882812v-.2970703h-.028125c-.0949219.2109375-.2970704.3304687-.5871094.3304687-.4253906 0-.646875-.253125-.646875-.7013672v-1.2269531h.3023437v1.153125c0 .3410156.1265625.4992188.4289063.4992188.3339844 0 .5167969-.1986328.5167969-.5308594v-1.1214844zm.5760938-.4904297h.3023437v.4904297h.421875v.253125h-.421875v1.0722656c0 .2232422.084375.3181641.28125.3181641.0544922 0 .084375-.0017578.140625-.0070312v.2548828c-.0597656.0105469-.1177734.0175781-.1775391.0175781-.3902343 0-.5466796-.1441406-.5466796-.50625v-1.1496094h-.3058594v-.253125h.3058594zm1.0788281 2.3853516v-2.6472656h.3023437v2.6472656zm1.5253125-1.6611328c-.3023438 0-.5132813.2214844-.5361328.5572265h1.0441406c-.0070313-.3357421-.2074219-.5572265-.5080078-.5572265zm.4992187 1.1707031h.3023438c-.0914063.3251953-.3832031.5238281-.7980469.5238281-.5255859 0-.8542969-.3796875-.8542969-.9791015 0-.5958985.3339844-.9826172.8542969-.9826172.5115234 0 .8226563.3638672.8226563.9527344v.1160156h-1.3623047v.0140625c.0158203.374414.225.6117187.5466797.6117187.2443359 0 .4095703-.0896484.4886718-.2566406zm.808125-1.8949219h.3023438v.4904297h.421875v.253125h-.421875v1.0722656c0 .2232422.084375.3181641.28125.3181641.0544922 0 .084375-.0017578.140625-.0070312v.2548828c-.0597656.0105469-.1177735.0175781-.1775391.0175781-.3902344 0-.5466797-.1441406-.5466797-.50625v-1.1496094h-.3058593v-.253125h.3058593zm.9821485 1.0089844c0-.3146484.3041015-.5519531.7066406-.5519531.3972656 0 .6732422.196875.7136719.5080078h-.2988282c-.0404296-.1511719-.1880859-.2513672-.4166015-.2513672-.225 0-.4007813.1142578-.4007813.2830078 0 .1300782.1054688.2109375.328711.2654297l.2917968.0703125c.356836.0861328.5291016.2408203.5291016.5132813 0 .3392578-.3287109.5730468-.759375.5730468-.421875 0-.7119141-.2021484-.7453125-.5167968h.3111328c.0509766.1599609.2021485.261914.4447266.261914.2548828 0 .4376953-.121289.4376953-.2953125 0-.1300781-.0984375-.2179687-.3005859-.2671875l-.3251954-.0791015c-.3550781-.0861329-.5167968-.2390625-.5167968-.5132813z"/><path d="m5.07157678 7.10566672h-.2953125v-2.53652344h.36738281l.86835937 2.09882813h.028125l.86835938-2.09882813h.36738281v2.53652344h-.2953125v-1.93710938h-.02109375l-.79980469 1.91953125h-.2671875l-.79980468-1.91953125h-.02109375zm4.38046875-1.31484375h-.30585938c-.04921875-.18808594-.21621094-.34101563-.48867187-.34101563-.34101563 0-.55546875.27246094-.55546875.70136719 0 .43769531.21796875.71542969.55546875.71542969.25488281 0 .43242187-.11777344.48867187-.33222656h.30585938c-.05449219.34804687-.3375.6046875-.79277344.6046875-.53085938 0-.87011719-.38496094-.87011719-.98789063 0-.590625.3375-.97382812.86835938-.97382812.46054687 0 .74179687.27597656.79453125.61347656zm2.13398437 1.31484375-.2548828-.72597656h-1.0089844l-.2548828.72597656h-.33222656l.93515626-2.53652344h.3128906l.9351563 2.53652344zm-.7734375-2.12695313-.3972656 1.13203125h.8226562l-.3972656-1.13203125zm1.5117188 2.12695313v-1.89492188h.2882812v.28125h.028125c.05625-.18457031.2742188-.31464843.5255859-.31464843.0492188 0 .1125.00351562.1511719.00878906v.30234375c-.0246094-.00703125-.1335937-.01757813-.1933594-.01757813-.2882812 0-.4974609.19335938-.4974609.46054688v1.17421875zm1.4976562-2.38535156h.3023438v.49042968h.421875v.253125h-.421875v1.07226563c0 .22324219.084375.31816406.28125.31816406.0544921 0 .084375-.00175781.140625-.00703125v.25488281c-.0597657.01054688-.1177735.01757813-.1775391.01757813-.3902344 0-.5466797-.14414063-.5466797-.50625v-1.14960938h-.3058594v-.253125h.3058594zm1.1988281 2.38535156v-2.64726563h.3023438v1.05117188h.028125c.0949219-.20917969.2935547-.33222656.5835937-.33222656.4007813 0 .6539063.25664062.6539063.70136718v1.22695313h-.3023438v-1.153125c0-.33574219-.1511718-.50273438-.4376953-.50273438-.3392578 0-.5255859.21445313-.5255859.534375v1.12148438zm3.6527344-1.89492188v1.89492188h-.2882812v-.29707031h-.028125c-.0949219.2109375-.2970704.33046875-.5871094.33046875-.4253906 0-.646875-.253125-.646875-.70136719v-1.22695313h.3023437v1.153125c0 .34101563.1265625.49921875.4289063.49921875.3339844 0 .5167969-.19863281.5167969-.53085937v-1.12148438zm.5695313 1.89492188v-1.89492188h.2882812v.28125h.028125c.05625-.18457031.2742188-.31464843.5255859-.31464843.0492188 0 .1125.00351562.1511719.00878906v.30234375c-.0246094-.00703125-.1335937-.01757813-.1933594-.01757813-.2882812 0-.4974609.19335938-.4974609.46054688v1.17421875zm-12.33808599 3.01914058c0 .6257813-.42890625 1.040625-1.07753906 1.040625-.70136719 0-1.14960937-.5167968-1.14960937-1.32890621 0-.8015625.45527343-1.32714843 1.14960937-1.32714843.5625 0 .9703125.31289062 1.06171875.815625h-.32167969c-.10898437-.34277344-.36386718-.52382813-.74003906-.52382813-.50273437 0-.82441406.40429688-.82441406 1.03535156 0 .63984371.31640625 1.03710941.82617187 1.03710941.45351563 0 .76113282-.2900391.76113282-.7189453v-.0615235h-.71367188v-.27773436h1.02832031zm.53789063.9808594v-2.64726561h.30234375v2.64726561zm1.6453125-1.66113279c-.30234375 0-.51328125.22148437-.53613281.55722659h1.04414062c-.00703125-.33574222-.20742187-.55722659-.50800781-.55722659zm.49921875 1.17070309h.30234375c-.09140625.3251953-.38320313.5238282-.79804688.5238282-.52558593 0-.85429687-.3796875-.85429687-.9791016 0-.59589844.33398437-.98261719.85429687-.98261719.51152344 0 .82265625.36386718.82265625.95273439v.1160156h-1.36230468v.0140625c.01582031.3744141.225.6117188.54667968.6117188.24433594 0 .40957032-.0896485.48867188-.2566407zm.80156251.4904297v-1.89492186h.2882812v.29882813h.028125c.0949219-.20917969.2794922-.33222656.5695313-.33222656.4253906 0 .6626953.25136718.6626953.70136718v1.22695311h-.3023437v-1.15312498c0-.34101563-.1441407-.50273438-.4464844-.50273438-.3023438 0-.497461.20214844-.497461.534375v1.12148436z" transform="matrix(.93969262 -.34202014 .34202014 .93969262 -1.920582 4.73167)"/></g></g></svg>