<svg height="32" viewBox="0 0 32 32" width="32"><g fill="none" fill-rule="evenodd"><circle cx="16" cy="16" fill="#fff" fill-opacity=".6" r="16"/><circle cx="16" cy="16" fill="#ad142b" r="15"/><path d="m25.2823186 17.7830742c.5696967-.0017135 1.2841937-.1604798 1.8480389-.347857l-.3370592 1.4484882c-.7072554.1405329-1.5015074.2605695-2.4343849.2643519-2.9154038.0127699-4.169952-1.4849873-4.1740901-3.0393845-.0067244-2.0810319 2.230132-4.1578934 5.8330383-4.1077839.7642832.0103452 1.4921967.1472573 1.9821384.3070582l-.476493 1.7083464h-.2416248c-.2979415-.389561-.7505112-.6848839-1.6434304-.6848839-1.8259584 0-2.9557178.9993454-2.9522263 2.3315795.0034592 1.2058289 1.0436034 2.1244171 2.5960931 2.1200851zm-10.5344099-5.7162994-.1138294.4527637s.6908971.0755846.4788853.7644449l-1.5709171 5.7100599 3.1406057.0053342.1181292-.4908146s-.5872189-.1422463-.4346273-.6836554c.0122202-.0499478.4610075-1.69493.4610075-1.69493l1.4398564-.0023924c.7167601.0037825.9538912.3754011.9538912.3754011l.4174608-1.6956089h-2.4257208l.3607885-1.3318786 2.1073799-.0024246c.3878153 0 .6593765.2600522.6593765.4496601h.2385213l.46479-1.8559594zm-2.381689 5.9078793c-.1854698-.1990802-1.8020351-2.7187482-1.8020351-2.7187482l2.9555238-2.365169c.4977006-.4155534.8512475-.371457.8512475-.371457l.1157368-.4556733-3.6762602.0029419-.1129566.4527637c.2498687.0168756.5989542.2402347.3131037.50491-.035497.0332339-2.9529375 2.2610059-2.9529375 2.2610059l.62772673-2.2744224c.12986446-.4393149.60170211-.4914935.60170211-.4914935l.11502558-.4543154-3.50983197.0017457-.11263326.4537982c.16723646.0420274.6461541.1341319.47943489.7642833-1.17123713 4.2345125-1.03548885 3.81314-1.11456489 4.0456158-.32047459 1.2228661-.83608532 1.1607303-1.02346257 1.1734678l-.12103872.4901357h3.67018241l.123819-.4961812s-.58330707-.1171269-.47151436-.5364304c.1102086-.4153917.57105448-2.0820341.57105448-2.0820341.63513 1.0218784.78406841 1.1476048 1.54974177 2.2020383.7661583 1.0544658 1.5860793.9149997 3.7564678.9156786l.1205538-.4880666c-.4632382.0022306-.7682274-.3354751-.9540528-.5341998z" fill="#fff" fill-rule="nonzero"/></g></svg>