<svg height="32" viewBox="0 0 32 32" width="32" xmlns="http://www.w3.org/2000/svg"><g fill="none" fill-rule="evenodd"><circle cx="16" cy="16" fill="#fff" fill-opacity=".6" r="16"/><circle cx="16" cy="16" fill="#fff" r="15"/><path d="m1.17675342 13.6901422c.1891797-1.2239794.52632966-2.3990936.99259849-3.5064914l19.59433589 19.6690517c-1.2315339.5129917-2.5461263.866542-3.9179988 1.0348725l.2642486-.2642487zm.08706736 5.1254077c1.13959428 6.0007483 5.85375998 10.735637 11.84362702 11.9057961zm11.57854472-17.48261056 17.8080266 17.90150386c-.2530804 1.151543-.6384696 2.253496-1.1394206 3.289112l-20.0345267-20.03452668c1.0586195-.51207837 2.1865556-.90340403 3.3659207-1.15608918zm4.7265035-.25187884 13.3500705 13.3500705c-.7307731-7.03129966-6.3187708-12.61929743-13.3500705-13.3500705zm-11.12816107 3.35900517 21.06899137 21.17958593c-.7436776.8888419-1.5883974 1.6902462-2.5164955 2.3865488l-20.99940417-20.99940422c.7120292-.94906005 1.5339613-1.81093288 2.4469083-2.56673051z" fill="#d91935"/><path d="m1.53923272 20c-.35146742-1.2734363-.53923272-2.6147907-.53923272-4s.1877653-2.7265637.53923272-4h28.92153458c.3514674 1.2734363.5392327 2.6147907.5392327 4s-.1877653 2.7265637-.5392327 4z" fill="#fff"/><path d="m5.30119227 18.430817v-4.8614521h3.2622097v1.1250568h-2.02855951v.8613006h1.82302594v1.0765499h-1.82302594v1.7985448zm7.13844723-2.3058359c-.1575159.2316204-.3643958.412157-.6201908.5417614l.9868304 1.7641352h-1.3911661l-.8155525-1.5072003h-.4384417v1.5072003h-1.22691871v-4.8614522h1.88480571c.6442744 0 1.1237032.1644687 1.4390341.4931029.1323852.1343035.2353016.2949826.3085996.4823405.0728492.1878126.1094982.4063968.1094982.6568137v.0344096c0 .3610732-.0788327.6575716-.2364982.8888889zm-1.0038834-.8262847v-.0137942c0-.208428-.0607327-.3648628-.1817492-.469001-.1210164-.1041383-.2845159-.15598-.4900494-.15598h-.6028387v1.2707291h.6097197c.2101708 0 .3735206-.056844.4901991-.1702289.1163792-.1133849.1747185-.2672427.1747185-.461725zm1.6728248 3.1321358v-4.8614522h1.2337998v4.8614522zm5.8262635-2.4028649c0 .3565257-.053702.6831893-.161106.9792329-.1077032.2961953-.2653687.5496438-.4734453.7601941-.2074782.2108534-.4634228.3739578-.767086.4899196-.3039623.1155071-.6498092.1735638-1.0384381.1735638h-1.5555631v-4.8614522h1.5762062c.3838422 0 .7265477.056844 1.0281166.1702289s.5551201.2742155.7608033.482492c.2055336.2082765.3617032.4583902.4694064.7500379.107404.2916477.161106.615886.161106.9722601zm-1.2611744.0068212v-.0626042c0-.4397453-.1050106-.763832-.3153309-.9722601-.2100212-.2082765-.4864594-.3124147-.8290154-.3124147h-.3564676v2.6251326h.3564676c.342556 0 .6189942-.1041382.8290154-.3125663.2103203-.2082765.3153309-.5297863.3153309-.9652873zm2.7078525-2.4931787h1.2474123l1.692735 4.8891921h-1.29543l-.2807762-.8749432h-1.5076949l-.274344.8749432h-1.2677562zm.1646961 3.0139458h.8906455l-.4453228-1.4236775zm4.7868081-2.9861604h1.3431484l-1.5419505 3.028043v1.8334092h-1.2333511v-1.819615l-1.5423993-3.0418372h1.3640907l.8017904 1.7571623zm4.1769238 4.5246627c-.1528787.1321813-.3368716.2325299-.5516796.3018039-.214808.0697286-.4496608.1041382-.705755.1041382-.356318 0-.7005195-.0565409-1.0315572-.1697741-.3314864-.1135365-.6381413-.2954374-.9217597-.5453995l.6580365-.9098075c.1964088.162195.4044853.2940731.6236314.395786.2192956.1020161.4454723.1529483.67853.1529483.1645465 0 .2885548-.0321358.373371-.0971654.0845171-.0647263.1267009-.1505229.1267009-.2570865v-.0069729c0-.0460815-.0104712-.0900409-.0308151-.1321813-.0204935-.041534-.0569929-.0818554-.1094982-.1211156-.0526549-.0394119-.1246066-.080188-.2158552-.1214189-.0916973-.0418372-.2079269-.0879187-.349437-.1391541-.22857-.078369-.4363474-.1608307-.6237809-.2464757-.1874334-.0857966-.3495866-.1859936-.4866089-.302107-.137172-.1156586-.2430801-.2523875-.3183228-.4097317-.0756914-.1573443-.1132379-.3471275-.1132379-.5693497v-.0210702c0-.2220706.0399399-.4245869.1196702-.6073973.0800294-.1829619.1943145-.3404578.3428551-.4724875.1482415-.1318781.3289435-.2346521.5412085-.3089283.2125642-.073973.4490624-.1111111.7093451-.1111111.3244559 0 .6279694.0463847.9117374.138851.2831696.0927694.5504829.2429892.8016407.4515689l-.6237809.9305745c-.1643969-.1296044-.3425559-.2363195-.534477-.3193876-.1916219-.0835228-.386086-.1252084-.5823451-.1252084-.1418092 0-.2502603.0301652-.3258022.0903441-.0755418.0601788-.1127891.1367288-.1127891.2288919v.0071244c0 .055783.0113686.1039867.034106.1458239.0230365.0416856.0628268.0833712.1201189.1250568.0568434.0413825.134629.085645.2330578.1318782.0981295.0462331.2225865.0971653.3730718.1526451.2285701.0742762.4341037.1552221.6171991.2432924.1827962.0879188.3379187.1909959.4658162.3090799.1278976.1179324.2260271.2536001.2948375.4062453.0683616.1527967.1026172.3334849.1026172.5419129v.0137942c0 .2360164-.0436796.448992-.1301413.6387752-.0869105.1899348-.2067303.3506139-.3599082.4827952zm-26.91279619-1.4228892v.6014855h1.84621203v.6258906h-1.84621203v.6013339h-.55586809v-1.82871zm.44263016-2.0819766h1.14614135c.16813664.2294982.29842757.5250871.29842757.8934364 0 .6643929-.46312368 1.1685614-1.21465255 1.1685614h-.04801767c-.7205642 0-1.22168317-.5008337-1.22168317-1.1720479 0-.3477338.10291637-.6014855.29169612-.8379566l.4701543.3477338c-.11323793.1286949-.1991013.267849-.1991013.4765803 0 .3096862.26776208.5457026.6656655.5457026h.03440518c.43933923 0 .68301768-.239806.68301768-.5528271 0-.1215704-.02767373-.2120661-.0721013-.2814916h-.35706596v.3857814h-.47688575zm-.99860296-.3937699v-.6260422h2.40208012v.6260422z" fill="#000"/></g></svg>