<svg height="32" viewBox="0 0 32 32" width="32"><g fill="none" fill-rule="evenodd"><circle cx="16" cy="16" fill="#fff" fill-opacity=".6" r="16"/><circle cx="16" cy="16" fill="#fff" r="15"/><path d="m27.0381671 18.8507512c-.155188.3097427-.4393828.7480698-.6984518 1.0056608h-20.73037955c-.15561034-.206284-.51729352-.670159-.67227044-1.0056608zm-1.5491146 2.0654158c-.2578022.3612609-.6471448.695707-1.0582348.9283835h-16.98960835c-.33529065-.2326765-.67058131-.5671226-.98032401-.9283835zm-2.3489349 1.9097632c-1.8331193 1.3683997-3.8476081 2.0643179-5.3705624 2.1686211 0-.5673337 0-1.3413737.1539212-2.1686211zm5.8341842-10.7401114c.1534989 1.6779312-.3882869 3.717968-1.4207625 5.7831304h-7.6420089c.2852504-.4896341.646089-.9551983 1.0595016-1.4203402 2.219717-2.6065259 5.6277312-4.2086579 8.0032698-4.3627902zm-14.8191926 12.908627c-1.472703-.1040922-3.4848692-.8000103-5.34564792-2.1686212h5.26647032c.1040921.8272474.1040921 1.6012874.0791776 2.1686212zm1.8322114.1548502c-.5930928-.5679672-1.1097529-1.3426406-1.6523833-2.3233869h3.2796409c-.5166601.9807463-1.0858941 1.7554197-1.6272576 2.3233869zm-3.8982606-7.2804313h-7.66819028c-1.03310906-2.0651624-1.54829118-4.1051991-1.39394769-5.7831304 2.34935715.1541324 5.78249702 1.7562643 8.00390317 4.3627902.3859643.4651419.7740401.9307061 1.0582348 1.4203402zm7.2035129 0h-6.6101667c-.1030364-.5939374-.1030364-1.1619045-.1030364-1.8331193 0-3.6134536 1.6006539-7.35760299 3.4080142-9.0357454 1.7822345 1.67814241 3.4084364 5.4222918 3.4084364 9.0357454 0 .6712148-.0515182 1.2391819-.1032475 1.8331193z" fill="#005db8"/></g></svg>