<svg width="28" height="28" viewBox="0 0 28 28">
  <g fill="none" fill-rule="evenodd">
    <circle cx="14" cy="14" r="14" fill="#FFF" opacity=".6"/>
    <circle cx="14" cy="14" r="13" fill="#8C5F93"/>
    <path fill="#FFF" d="M18.741417,7.54253456 C18.0188311,6.81915515 16.8461361,6.81915515 16.1235503,7.54253456 C15.4499943,8.21608087 15.4122172,9.27542943 15.9949477,10.0028276 C14.4002755,12.3618474 12.2132277,14.4114219 9.99242177,15.9851737 C9.26581711,15.4120964 8.21288327,15.453088 7.54254234,16.1234193 C6.81915255,16.8467987 6.81915255,18.0186729 7.54254234,18.7420521 C7.87208639,19.0715916 8.29647496,19.243595 8.72809736,19.2725301 C8.75703294,19.7033427 8.92823509,20.1277251 9.25858306,20.4580684 C9.98116894,21.1806439 11.1538639,21.1806439 11.8764498,20.4580684 C12.5475944,19.7869332 12.5877829,18.7332108 12.0122863,18.0058128 C13.6230337,15.7802162 16.083362,13.3118856 17.9898955,12.0001579 C18.7165002,12.5885063 19.7814903,12.5531411 20.4574576,11.8763798 C21.1808475,11.1538043 21.1808475,9.98192985 20.4574576,9.25855064 C20.1279136,8.92901132 19.7035251,8.75700771 19.2719026,8.72887626 C19.2437708,8.29645634 19.0717649,7.87207387 18.741417,7.54253456 L18.741417,7.54253456 L18.741417,7.54253456 Z"/>
  </g>
</svg>
