<svg width="16" height="16" viewBox="0 0 16 16">
  <g fill="none" fill-rule="evenodd">
    <circle cx="8" cy="8" r="8" fill="#FFF" opacity=".6"/>
    <circle cx="8" cy="8" r="7" fill="#8C5F93"/>
    <path fill="#FFF" d="M10.7093811,4.3100242 C10.2964749,3.8966586 9.62636348,3.8966586 9.21345729,4.3100242 C8.82856817,4.69491333 8.80698123,5.30026405 9.13997009,5.7159261 C8.22872886,7.0639568 6.97898726,8.23515905 5.7099553,9.13445867 C5.29475264,8.80698123 4.69307615,8.83040534 4.3100242,9.21345729 C3.8966586,9.62682289 3.8966586,10.2964749 4.3100242,10.7098404 C4.49833508,10.8981514 4.74084283,10.9964404 4.9874842,11.0129751 C5.00401882,11.2591572 5.10184862,11.5016649 5.29061889,11.6904352 C5.70352511,12.1033414 6.37363654,12.1033414 6.78654272,11.6904352 C7.17005392,11.3069239 7.19301878,10.7047881 6.86416358,10.2891262 C7.78459067,9.01733841 9.19049259,7.60684353 10.2799403,6.85727408 C10.6951429,7.19347803 11.3037088,7.17326902 11.6899758,6.78654272 C12.1033414,6.37363654 12.1033414,5.70398438 11.6899758,5.29061889 C11.5016649,5.10230801 11.2591572,5.00401882 11.0125158,4.98794347 C10.9964404,4.74084283 10.8981514,4.49833508 10.7093811,4.3100242 L10.7093811,4.3100242 L10.7093811,4.3100242 Z"/>
  </g>
</svg>
