<svg height="24" viewBox="0 0 24 24" width="24"><g fill="none" fill-rule="evenodd"><circle cx="12" cy="12" fill="#fff" opacity=".6" r="12"/><circle cx="12" cy="12" fill="#8c5f93" r="11"/><path d="m16.0640717 6.46503629c-.6193594-.62004839-1.6245265-.62004839-2.2438858 0-.5773336.57733371-.609714 1.48535979-.1102308 2.10885286-1.3668618 2.02204605-3.2414742 3.77884945-5.14502215 5.12779885-.622804-.4912161-1.52531872-.45608-2.09989666.1184979-.62004839.6200484-.62004839 1.6245264 0 2.2445747.28246633.2824665.64622796.4299001 1.01619001.454702.02480193.3692732.17154664.7330348.45470204 1.0161902.61935932.6193593 1.62452646.6193593 2.24388576 0 .5752668-.575267.6097141-1.4784706.1164313-2.1019635 1.3806406-1.9076817 3.4894935-4.023424 5.123665-5.1477782.622804.5043059 1.5356527.4739924 2.1150533-.106097.6200484-.6193593.6200484-1.62383754 0-2.24388576-.2824663-.28246633-.6462279-.42990011-1.01619-.45401313-.024113-.37065096-.1715466-.73441259-.454702-1.01687892z" fill="#fff"/></g></svg>