<svg width="28" height="28" viewBox="0 0 28 28">
  <g fill="none" fill-rule="evenodd">
    <circle cx="14" cy="14" r="14" fill="#FFF" opacity=".2"/>
    <path fill="#717065" d="M16.4680755,7 C15.6073414,7 15.3264924,7.28085755 14.7466072,7.86073414 L7.86073414,14.7466072 C7.43036707,15.1769743 7,15.6073414 7,16.4680755 L7,17.7591767 C7,18.6199109 7.43036707,19.0502779 7.86073414,19.480645 L8.34489709,19.964808 L11.3574666,16.9522385 L10.8733036,16.4680755 C10.4428591,16.0377085 10.8733036,15.6073414 10.8733036,15.6073414 L15.6073414,10.8733036 C15.6073414,10.8733036 16.0377085,10.4429366 16.4680755,10.8733036 L16.9522385,11.3574666 L19.964808,8.34489709 C19.964808,8.34489709 19.6420327,8.02212179 19.480645,7.86073414 C19.0502779,7.43036707 18.6199109,7 17.7591767,7 L16.4680755,7 L16.4680755,7 Z M20.2875833,8.66767239 L17.2750138,11.6802419 L17.7591767,12.1644048 C18.0634979,12.4686743 18.7459654,12.4687604 19.0502779,12.1644048 L20.7717462,10.4429366 C21.0760932,10.1384949 21.076076,9.45610486 20.7717462,9.15183535 L20.2875833,8.66767239 Z M11.6802419,17.2750138 L8.66767239,20.2875833 L9.15183535,20.7717462 C9.45620815,21.0761879 10.138581,21.0759297 10.4429366,20.7717462 L12.1644048,19.0502779 C12.4688637,18.7459223 12.4686916,18.0633602 12.1644048,17.7591767 L11.6802419,17.2750138 Z"/>
  </g>
</svg>
