<svg height="24" viewBox="0 0 24 24" width="24"><g fill="none" fill-rule="evenodd"><circle cx="12" cy="12" fill="#fff" opacity=".6" r="12"/><circle cx="12" cy="12" fill="#8c5f93" r="11"/><path d="m10.3846154 7c-.5966154 0-.81006155.5045-1.07692309 1l-.53846154 1h-2.15384615c-.89492308 0-1.61538462.669-1.61538462 1.5v5c0 .831.72046154 1.5 1.61538462 1.5h10.76923078c.8949231 0 1.6153846-.669 1.6153846-1.5v-5c0-.831-.7204615-1.5-1.6153846-1.5h-2.1538462l-.5384615-1c-.2692308-.5-.4803077-1-1.0769231-1zm-3.76923078 3c.29733846 0 .53846153.2239.53846153.5s-.24112307.5-.53846153.5c-.29733847 0-.53846154-.2239-.53846154-.5s.24112307-.5.53846154-.5zm5.38461538 0c1.7843538 0 3.2307692 1.3431 3.2307692 3s-1.4464154 3-3.2307692 3-3.23076923-1.3431-3.23076923-3 1.44641543-3 3.23076923-3zm0 1.5c-.8921231 0-1.6153846.6716-1.6153846 1.5 0 .8284.7232615 1.5 1.6153846 1.5.8921231 0 1.6153846-.6716 1.6153846-1.5 0-.8284-.7232615-1.5-1.6153846-1.5z" fill="#fff"/></g></svg>