<svg width="16" height="16" viewBox="0 0 16 16">
  <g fill="none" fill-rule="evenodd">
    <circle cx="8" cy="8" r="8" fill="#FFF" opacity=".6"/>
    <circle cx="8" cy="8" r="7" fill="#8C5F93"/>
    <path fill="#FFF" d="M7.27272727,5 C7.27272727,5 6.90909091,5 6.76363636,5.375 L6.54545455,5.75 L4.72727273,5.75 C4.29090909,5.75 4,6.05 4,6.5 L4,10.25 C4,10.7 4.29090909,11 4.72727273,11 L11.2727273,11 C11.7090909,11 12,10.7 12,10.25 L12,6.5 C12,6.05 11.7090909,5.75 11.2727273,5.75 L9.45454545,5.75 L9.23636364,5.375 C9.09090909,5 8.72727273,5 8.72727273,5 L7.27272727,5 L7.27272727,5 Z M8,6.5 C9.01818182,6.5 9.81818182,7.325 9.81818182,8.375 C9.81818182,9.425 9.01818182,10.25 8,10.25 C6.98181818,10.25 6.18181818,9.425 6.18181818,8.375 C6.18181818,7.325 6.98181818,6.5 8,6.5 L8,6.5 Z M8,7.625 C7.56363636,7.625 7.27272727,7.925 7.27272727,8.375 C7.27272727,8.825 7.56363636,9.125 8,9.125 C8.43636364,9.125 8.72727273,8.825 8.72727273,8.375 C8.72727273,7.925 8.43636364,7.625 8,7.625 L8,7.625 Z"/>
  </g>
</svg>
