<svg width="28" height="28" viewBox="0 0 28 28">
  <g fill="none" fill-rule="evenodd">
    <circle cx="14" cy="14" r="14" fill="#FFF" opacity=".6"/>
    <circle cx="14" cy="14" r="13" fill="#8C5F93"/>
    <path fill="#FFF" d="M11.6470588,8 C11.1256471,8 10.9391059,8.43242857 10.7058824,8.85714286 L10.2352941,9.71428571 L7.41176471,9.71428571 C6.62964706,9.71428571 6,10.2877143 6,11 L6,18.7142857 C6,19.4265714 6.62964706,20 7.41176471,20 L20.5882353,20 C21.3703529,20 22,19.4265714 22,18.7142857 L22,11 C22,10.2877143 21.3703529,9.71428571 20.5882353,9.71428571 L17.7647059,9.71428571 L17.2941176,8.85714286 C17.0588235,8.42857143 16.8743529,8 16.3529412,8 L12.5882353,8 L11.6470588,8 Z M8.82352941,11.4285714 C9.34324706,11.4285714 9.76470588,11.8124 9.76470588,12.2857143 C9.76470588,12.7590286 9.34324706,13.1428571 8.82352941,13.1428571 C8.30381176,13.1428571 7.88235294,12.7590286 7.88235294,12.2857143 C7.88235294,11.8124 8.30381176,11.4285714 8.82352941,11.4285714 L8.82352941,11.4285714 Z M14,11.4285714 C16.0792471,11.4285714 17.7647059,12.9635429 17.7647059,14.8571429 C17.7647059,16.7507429 16.0792471,18.2857143 14,18.2857143 C11.9207529,18.2857143 10.2352941,16.7507429 10.2352941,14.8571429 C10.2352941,12.9635429 11.9207529,11.4285714 14,11.4285714 L14,11.4285714 Z M14,12.7142857 C12.700549,12.7142857 11.6470588,13.6737143 11.6470588,14.8571429 L11.6470588,14.8571429 C11.6470588,16.0405714 12.700549,17 14,17 L14,17 C15.299451,17 16.3529412,16.0405714 16.3529412,14.8571429 L16.3529412,14.8571429 C16.3529412,13.6737143 15.299451,12.7142857 14,12.7142857 L14,12.7142857 L14,12.7142857 Z"/>
  </g>
</svg>
