<?xml version="1.0" encoding="UTF-8" standalone="no"?>
<svg width="17px" height="17px" viewBox="0 0 17 17" version="1.1" xmlns="http://www.w3.org/2000/svg" xmlns:xlink="http://www.w3.org/1999/xlink">
    <!-- Generator: Sketch 3.8.3 (29802) - http://www.bohemiancoding.com/sketch -->
    <title>photo-shop-s</title>
    <desc>Created with Sketch.</desc>
    <defs>
        <path d="M8.5,16 C12.6421356,16 16,12.6421356 16,8.5 C16,4.35786438 12.6421356,1 8.5,1 C4.35786438,1 1,4.35786438 1,8.5 C1,12.6421356 4.35786438,16 8.5,16 L8.5,16 Z" id="path-1"></path>
    </defs>
    <g id="POI-Clear" stroke="none" stroke-width="1" fill="none" fill-rule="evenodd">
        <g id="photo-shop-l">
            <g id="POI">
                <g>
                    <g id="lighthouse-l">
                        <circle id="Oval-1-Copy-39" fill-opacity="0.6" fill="#FFFFFF" cx="8.5" cy="8.5" r="8.5"></circle>
                        <g id="Oval-1-Copy-38">
                            <use fill="#2D7970" xlink:href="#path-1"></use>
                            <use fill="#825089" xlink:href="#path-1"></use>
                        </g>
                        <g id="attraction-11" transform="translate(3.000000, 4.000000)" fill="#FFFFFF">
                            <g id="attraction-11.svg">
                                <path d="M4.5,0.5 C4.5,0.5 4,0.5 3.8,1 L3.5,1.5 L1,1.5 C0.4,1.5 0,1.9 0,2.5 L0,7.5 C0,8.1 0.4,8.5 1,8.5 L10,8.5 C10.6,8.5 11,8.1 11,7.5 L11,2.5 C11,1.9 10.6,1.5 10,1.5 L7.5,1.5 L7.2,1 C7,0.5 6.5,0.5 6.5,0.5 L4.5,0.5 L4.5,0.5 Z M5.5,2.5 C6.9,2.5 8,3.6 8,5 C8,6.4 6.9,7.5 5.5,7.5 C4.1,7.5 3,6.4 3,5 C3,3.6 4.1,2.5 5.5,2.5 L5.5,2.5 Z M5.5,4 C4.9,4 4.5,4.4 4.5,5 C4.5,5.6 4.9,6 5.5,6 C6.1,6 6.5,5.6 6.5,5 C6.5,4.4 6.1,4 5.5,4 L5.5,4 Z" id="Shape"></path>
                            </g>
                        </g>
                    </g>
                </g>
            </g>
        </g>
    </g>
</svg>