<?xml version="1.0" encoding="UTF-8" standalone="no"?>
<svg width="27px" height="27px" viewBox="0 0 27 27" version="1.1" xmlns="http://www.w3.org/2000/svg" xmlns:xlink="http://www.w3.org/1999/xlink">
    <!-- Generator: Sketch 3.8.3 (29802) - http://www.bohemiancoding.com/sketch -->
    <title>photo-shop-l</title>
    <desc>Created with Sketch.</desc>
    <defs>
        <path d="M13.5,26 C20.4035594,26 26,20.4035594 26,13.5 C26,6.59644063 20.4035594,1 13.5,1 C6.59644063,1 1,6.59644063 1,13.5 C1,20.4035594 6.59644063,26 13.5,26 L13.5,26 Z" id="path-1"></path>
    </defs>
    <g id="POI-Clear" stroke="none" stroke-width="1" fill="none" fill-rule="evenodd">
        <g id="photo-shop-l">
            <g id="POI">
                <g>
                    <g id="lighthouse-l">
                        <circle id="Oval-1-Copy-39" fill-opacity="0.6" fill="#FFFFFF" cx="13.5" cy="13.5" r="13.5"></circle>
                        <g id="Oval-1-Copy-38">
                            <use fill="#2D7970" xlink:href="#path-1"></use>
                            <use fill="#825089" xlink:href="#path-1"></use>
                        </g>
                    </g>
                    <g id="Group" transform="translate(5.000000, 6.000000)" fill="#FFFFFF">
                        <path d="M6,0 C5.446,0 5.2478,0.5045 5,1 L4.5,2 L1.5,2 C0.669,2 0,2.669 0,3.5 L0,12.5 C0,13.331 0.669,14 1.5,14 L15.5,14 C16.331,14 17,13.331 17,12.5 L17,3.5 C17,2.669 16.331,2 15.5,2 L12.5,2 L12,1 C11.75,0.5 11.554,0 11,0 L7,0 L6,0 Z M3,4 C3.5522,4 4,4.4478 4,5 C4,5.5522 3.5522,6 3,6 C2.4478,6 2,5.5522 2,5 C2,4.4478 2.4478,4 3,4 L3,4 Z M8.5,4 C10.7092,4 12.5,5.7908 12.5,8 C12.5,10.2092 10.7092,12 8.5,12 C6.2908,12 4.5,10.2092 4.5,8 C4.5,5.7908 6.2908,4 8.5,4 L8.5,4 Z M8.5,5.5 C7.11933333,5.5 6,6.61933333 6,8 L6,8 C6,9.38066667 7.11933333,10.5 8.5,10.5 L8.5,10.5 C9.88066667,10.5 11,9.38066667 11,8 L11,8 C11,6.61933333 9.88066667,5.5 8.5,5.5 L8.5,5.5 L8.5,5.5 Z" id="Shape"></path>
                    </g>
                </g>
            </g>
        </g>
    </g>
</svg>