<?xml version="1.0" encoding="UTF-8" standalone="no"?>
<svg width="23px" height="23px" viewBox="0 0 23 23" version="1.1" xmlns="http://www.w3.org/2000/svg" xmlns:xlink="http://www.w3.org/1999/xlink">
    <!-- Generator: Sketch 3.8.3 (29802) - http://www.bohemiancoding.com/sketch -->
    <title>picnic-m</title>
    <desc>Created with Sketch.</desc>
    <defs>
        <path d="M7.99634865,8 L6,8 L6,6 L17,6 L17,8 L15.016006,8 L15.9188947,12 L19,12 L19,13 L16.1446168,13 L17.036593,16.9516549 L15.036593,16.9516549 L14.1446168,13 L8.88726607,13 L8,17 L6,17 L6.88726607,13 L4,13 L4,12 L7.10908258,12 L7.99634865,8 Z M9.99634865,8 L13.016006,8 L13.9188947,12 L9.10908258,12 L9.99634865,8 Z" id="path-1"></path>
    </defs>
    <g id="POI-Clear" stroke="none" stroke-width="1" fill="none" fill-rule="evenodd">
        <g id="picnic-m">
            <ellipse id="Oval-1-Copy-41" fill-opacity="0.6" fill="#FFFFFF" cx="11.5" cy="11.5" rx="11.5" ry="11.5"></ellipse>
            <ellipse id="Oval-1-Copy-40" fill="#717065" cx="11.5" cy="11.5" rx="10.5" ry="10.5"></ellipse>
            <g id="Rectangle-22" fill="#FFFFFF">
                <use xlink:href="#path-1"></use>
                <use xlink:href="#path-1"></use>
            </g>
        </g>
    </g>
</svg>