<?xml version="1.0" encoding="UTF-8" standalone="no"?>
<svg width="17px" height="17px" viewBox="0 0 17 17" version="1.1" xmlns="http://www.w3.org/2000/svg" xmlns:xlink="http://www.w3.org/1999/xlink">
    <!-- Generator: Sketch 3.8.3 (29802) - http://www.bohemiancoding.com/sketch -->
    <title>picnic-s</title>
    <desc>Created with Sketch.</desc>
    <defs>
        <path d="M5.97313072,6 L5,6 L5,5 L12,5 L12,6 L11.0358761,6 L11.3579373,8.00427246 L13,8.00427246 L13,9 L11.517938,9 L12,12 L11.0196533,12.0109253 L10.5202651,9 L6.5203832,9 L5.9880981,12.0187378 L5.00775144,12.0078125 L5.49106876,9 L4,9 L4,8.00427246 L5.65106955,8.00427246 L5.97313072,6 Z M7.04936432,6 L10.0226889,6 L10.355115,8.00427246 L6.69595689,8.00427246 L7.04936432,6 Z" id="path-1"></path>
    </defs>
    <g id="POI-Clear" stroke="none" stroke-width="1" fill="none" fill-rule="evenodd">
        <g id="picnic-s">
            <circle id="Oval-1-Copy-43" fill-opacity="0.6" fill="#FFFFFF" cx="8.5" cy="8.5" r="8.5"></circle>
            <circle id="Oval-1-Copy-42" fill="#717065" cx="8.5" cy="8.5" r="7.5"></circle>
            <g id="Rectangle-22-Copy-2" fill="#FFFFFF">
                <use xlink:href="#path-1"></use>
                <use xlink:href="#path-1"></use>
            </g>
        </g>
    </g>
</svg>