<svg width="16" height="16" viewBox="0 0 16 16">
  <g fill="none" fill-rule="evenodd">
    <circle cx="8" cy="8" r="8" fill="#FFF" opacity=".6"/>
    <circle cx="8" cy="8" r="7" fill="#717065"/>
    <path fill="#FFF" d="M7.57137959,3 C7.09800575,3 6.71425306,3.40293 6.71425306,3.9 C6.71425306,4.39707 7.09800575,4.8 7.57137959,4.8 C8.04475344,4.8 8.42850613,4.39707 8.42850613,3.9 C8.42850613,3.40293 8.04475344,3 7.57137959,3 L7.57137959,3 Z M5.34820765,4.09692 C5.16080551,4.09692 5,4.21653 5,4.4625 C5,4.70838 5.07294147,5.02869 5.10714082,5.22192 L5.34820765,6.12192 C5.47549951,6.61107 5.74839146,6.6 6.09819337,6.6 L6.87496429,6.6 C7.1531447,7.09203 7.05598084,7.64814 7.14281633,8.4 L6.71425306,8.4 C6.24573913,8.4 5.46899392,8.68179 5.93748214,9.66567 L6.63389745,11.15625 C6.80219425,11.50968 6.97217101,11.54793 7.14281633,11.55 C7.44717339,11.55 7.7008657,11.22834 7.57137959,10.90317 L7.03567551,9.55317 C6.93464601,9.29946 7.16631017,9.3 7.27674235,9.3 L8.42850613,9.3 C8.42850613,9.3 8.81985296,10.38288 9.47312909,11.26875 C9.71428164,11.59581 9.96911393,12 10.3034704,12 C10.5377231,12 10.9450039,11.66349 10.517752,11.12817 C9.71764157,10.12548 9.28563266,8.89194 9.28563266,8.4 C9.28563266,7.82787 9.12950706,7.28247 8.99099541,6.6 L9.68741072,6.6 C9.91604922,7.08123 10.3034704,7.8375 10.3034704,7.8375 C10.5624426,8.30847 10.9998857,8.27292 10.9998857,7.8375 C10.9998857,7.7772 11.0050285,7.64472 10.9463153,7.5 L10.3034704,5.95317 C10.2603569,5.84643 10.1979153,5.7 9.84812194,5.7 L6.17854898,5.7 L5.83034133,4.4625 C5.76005695,4.21653 5.5356098,4.09692 5.34820765,4.09692 L5.34820765,4.09692 Z"/>
  </g>
</svg>
