<svg height="24" viewBox="0 0 24 24" width="24"><g fill="none" fill-rule="evenodd"><circle cx="12" cy="12" fill="#fff" opacity=".6" r="12"/><circle cx="12" cy="12" fill="#717065" r="11"/><path d="m11.6852977 5c-.862534 0-1.5617507.65972308-1.5617507 1.47366154s.6992167 1.47366154 1.5617507 1.47366154c.8625339 0 1.5617507-.65972308 1.5617507-1.47366154s-.6992168-1.47366154-1.5617507-1.47366154zm-4.49003607 2.94732308.39044338 1.47376923c.19521598.73683079.66152025.73683079 1.24452043.73683079h1.29332156c.4636451.7368307.2457176 1.9346923.3904434 3.0607231h-.70767364c-.78087534 0-2.02537294.7368307-1.24452043 2.2104923l1.17131871 2.2106c.78085256 1.4736615 1.95217126.3684153 1.56175066-.3684154l-1.1713187-2.2106c-.19521597-.3684154.2063891-.3684154.3904434-.3684154h1.9271429s.9243571 1.8228 2.0131727 3.1497846c.4019361.4897846.8471495 1.1579077 1.4044138 1.1579077.3904319 0 1.0595189-.5693692.3474171-1.3712462-1.3335289-1.5016615-2.1782132-3.0498461-2.1782132-3.7866769 0-.8570154-.1595624-2.6619384-.390432-3.6841538h1.1713188c.381062.7206769 1.0499093 1.8420769 1.0499093 1.8420769.4316207.7054923 1.1412802.6521846 1.1412802 0 0-.0893846-.0114128-.2818308-.1089923-.4987231l-1.1061516-2.44859998c-.072243-.15981538-.1978866-.36841538-.7808753-.36841538h-6.05178675l-.58565935-1.84218462c-.23425918-.73683077-1.3665347-.73683077-1.3665347 0 0 .36841539.13833458.81576923.19521598 1.10524616z" fill="#fff"/></g></svg>