<svg version="1.1" viewBox="0 0 16 16" xmlns="http://www.w3.org/2000/svg">
 <title>place-of-worship-s</title>
 <g fill="none" fill-rule="evenodd">
  <g id="place-of-worship-s" fill-rule="nonzero">
   <circle id="Oval" cx="8" cy="8" r="8" fill="#fff" opacity=".6"/>
   <circle id="Oval" cx="8" cy="8" r="7.3333" fill="#7F5933"/>
   <path id="Shape" d="m12.384 9.3455-1.5839-0.67885v2.8h1.6333c0.12892 0 0.23333-0.10442 0.23333-0.23333v-1.4589c0-0.18665-0.11122-0.35534-0.28277-0.4289zm-9.0506 0.4289v1.4589c0 0.12892 0.10442 0.23333 0.23333 0.23333h1.6333v-2.8l-1.5839 0.67885c-0.17155 0.073552-0.28277 0.24225-0.28277 0.4289zm6.7734-2.177-0.70671-0.42408v-1.6766c0-0.12381-0.049146-0.24238-0.13679-0.33002l-1.0983-1.0983c-0.091146-0.091146-0.23888-0.091146-0.32988 0l-1.0983 1.0983c-0.0875 0.0875-0.13679 0.20621-0.13679 0.33002v1.6766l-0.70671 0.42408c-0.14059 0.084318-0.22662 0.23623-0.22662 0.40017v3.4691h1.4v-1.4c0-0.51552 0.41796-0.93333 0.93333-0.93333s0.93333 0.41781 0.93333 0.93333v1.4h1.4v-3.4691c0-0.16392-0.086042-0.31588-0.22662-0.40017z" fill="#fff"/>
  </g>
 </g>
</svg>
