<?xml version="1.0" encoding="UTF-8"?>
<svg width="24px" height="24px" viewBox="0 0 24 24" version="1.1" xmlns="http://www.w3.org/2000/svg" xmlns:xlink="http://www.w3.org/1999/xlink">
    <title>place-of-worship-m</title>
    <g id="Page-1" stroke="none" stroke-width="1" fill="none" fill-rule="evenodd">
        <g id="place-of-worship-m" fill-rule="nonzero">
            <circle id="Oval" fill="#FFFFFF" opacity="0.6" cx="12" cy="12" r="12"></circle>
            <circle id="Oval" fill="#7F5933" cx="12" cy="12" r="11"></circle>
            <path d="M18.5758437,14.0182266 L16.2,12.9999453 L16.2,17.1999453 L18.65,17.1999453 C18.843375,17.1999453 19,17.0433203 19,16.8499453 L19,14.6615703 C19,14.3815956 18.8331639,14.1285541 18.5758437,14.0182266 L18.5758437,14.0182266 Z M5,14.6615703 L5,16.8499453 C5,17.0433203 5.156625,17.1999453 5.35,17.1999453 L7.8,17.1999453 L7.8,12.9999453 L5.42415625,14.0182266 C5.16683611,14.1285541 5,14.3815956 5,14.6615703 Z M15.1600625,11.3960703 L14.1,10.7599453 L14.1,8.24497656 C14.1,8.05925781 14.0262813,7.88141406 13.8948125,7.74994531 L12.2474063,6.10253906 C12.1106875,5.96582031 11.8890938,5.96582031 11.7525937,6.10253906 L10.1051875,7.74994531 C9.9739375,7.88119531 9.9,8.05925781 9.9,8.24497656 L9.9,10.7599453 L8.8399375,11.3960703 C8.62905009,11.5225472 8.5,11.750414 8.5,11.9963203 L8.5,17.1999453 L10.6,17.1999453 L10.6,15.0999453 C10.6,14.3266641 11.2269375,13.6999453 12,13.6999453 C12.7730625,13.6999453 13.4,14.3266641 13.4,15.0999453 L13.4,17.1999453 L15.5,17.1999453 L15.5,11.9963203 C15.5,11.7504453 15.3709375,11.5225078 15.1600625,11.3960703 Z" id="Shape" fill="#FFFFFF"></path>
        </g>
    </g>
</svg>