<?xml version="1.0" encoding="UTF-8"?>
<svg width="16px" height="16px" viewBox="0 0 16 16" version="1.1" xmlns="http://www.w3.org/2000/svg" xmlns:xlink="http://www.w3.org/1999/xlink">
    <title>place-of-worship-s</title>
    <g id="Page-1" stroke="none" stroke-width="1" fill="none" fill-rule="evenodd">
        <g id="place-of-worship-s" fill-rule="nonzero">
            <circle id="Oval" fill="#FFFFFF" opacity="0.6" cx="8" cy="8" r="8"></circle>
            <circle id="Oval" fill="#7F5933" cx="8" cy="8" r="7.33333333"></circle>
            <path d="M12.3838958,9.34548438 L10.8,8.66663021 L10.8,11.4666302 L12.4333333,11.4666302 C12.56225,11.4666302 12.6666667,11.3622135 12.6666667,11.2332969 L12.6666667,9.77438021 C12.6666667,9.58773043 12.5554426,9.41903605 12.3838958,9.34548438 L12.3838958,9.34548438 Z M3.33333333,9.77438021 L3.33333333,11.2332969 C3.33333333,11.3622135 3.43775,11.4666302 3.56666667,11.4666302 L5.2,11.4666302 L5.2,8.66663021 L3.61610417,9.34548438 C3.44455741,9.41903605 3.33333333,9.58773043 3.33333333,9.77438021 Z M10.1067083,7.59738021 L9.4,7.17329688 L9.4,5.49665104 C9.4,5.37283854 9.35085417,5.25427604 9.26320833,5.16663021 L8.1649375,4.06835938 C8.07379167,3.97721354 7.9260625,3.97721354 7.8350625,4.06835938 L6.73679167,5.16663021 C6.64929167,5.25413021 6.6,5.37283854 6.6,5.49665104 L6.6,7.17329688 L5.89329167,7.59738021 C5.75270006,7.6816981 5.66666667,7.83360937 5.66666667,7.99754688 L5.66666667,11.4666302 L7.06666667,11.4666302 L7.06666667,10.0666302 C7.06666667,9.55110938 7.484625,9.13329688 8,9.13329688 C8.515375,9.13329688 8.93333333,9.55110938 8.93333333,10.0666302 L8.93333333,11.4666302 L10.3333333,11.4666302 L10.3333333,7.99754688 C10.3333333,7.83363021 10.2472917,7.68167188 10.1067083,7.59738021 Z" id="Shape" fill="#FFFFFF"></path>
        </g>
    </g>
</svg>