<?xml version="1.0" encoding="UTF-8" standalone="no"?>
<svg width="17px" height="17px" viewBox="0 0 17 17" version="1.1" xmlns="http://www.w3.org/2000/svg" xmlns:xlink="http://www.w3.org/1999/xlink">
    <!-- Generator: Sketch 3.8.3 (29802) - http://www.bohemiancoding.com/sketch -->
    <title>police-s</title>
    <desc>Created with Sketch.</desc>
    <defs>
        <path d="M7.5,3.5 L8,4.5 L11,4.5 L11.5,3.5 L7.5,3.5 L7.5,3.5 Z M8,5 L8,6 C8,6.8284 8.6716,7.5 9.5,7.5 C10.3284,7.5 11,6.8284 11,6 L11,5 L8,5 L8,5 Z M4.75,6 C4,6 4,6.75 4,6.75 L4,9.75 C4.0006,10.256 4.4918,10.6163 4.9746,10.4648 L7,9.8262 L7,13 L11,8 L8,8 C8,8 7.8055,8 7.5762,8.0723 L5.5,8.7266 L5.5,6.75 C5.5,6.75 5.5,6 4.75,6 L4.75,6 Z M11.7715,8.3887 L8,13 L12,13 L12,9 C12,8.7648 11.9064,8.5591 11.7715,8.3887 L11.7715,8.3887 Z" id="path-1"></path>
    </defs>
    <g id="POI-Clear" stroke="none" stroke-width="1" fill="none" fill-rule="evenodd">
        <g id="police-s">
            <circle id="Oval-1-Copy-43" fill-opacity="0.6" fill="#FFFFFF" cx="8.5" cy="8.5" r="8.5"></circle>
            <circle id="Oval-1-Copy-42" fill="#717065" cx="8.5" cy="8.5" r="7.5"></circle>
            <g id="Shape" fill="#FFFFFF">
                <use xlink:href="#path-1"></use>
                <use xlink:href="#path-1"></use>
            </g>
        </g>
    </g>
</svg>