<?xml version="1.0" encoding="UTF-8" standalone="no"?>
<svg width="23px" height="23px" viewBox="0 0 23 23" version="1.1" xmlns="http://www.w3.org/2000/svg" xmlns:xlink="http://www.w3.org/1999/xlink">
    <!-- Generator: Sketch 3.8.3 (29802) - http://www.bohemiancoding.com/sketch -->
    <title>police-m</title>
    <desc>Created with Sketch.</desc>
    <defs>
        <path d="M4.5,0 L5,1 L10,1 L10.5,0 L4.5,0 L4.5,0 Z M5,1.5 L5,2.75 C5,2.75 5,5.5 7.5,5.5 C10,5.5 10,2.75 10,2.75 L10,1.5 L5,1.5 L5,1.5 Z M0.9844,2.9863 C0.4329,2.9949 -0.0076,3.4485 1.08801856e-14,4 L1.08801856e-14,8 C-0.0001,8.6398 0.5922,9.1152 1.2168,8.9766 L4,8.3574 L4,13 L9.8789,6.0703 C9.7391,6.0294 9.5947,6 9.4414,6 L5.5,6 L2,6.7539 L2,4 C2.0077,3.4362 1.5481,2.9775 0.9844,2.9863 L0.9844,2.9863 Z M10.748,6.7109 L5.4121,13 L11,13 L11,7.5586 C11,7.2451 10.9061,6.9548 10.748,6.7109 L10.748,6.7109 Z" id="path-1"></path>
    </defs>
    <g id="POI-Clear" stroke="none" stroke-width="1" fill="none" fill-rule="evenodd">
        <g id="police-m">
            <ellipse id="Oval-1-Copy-41" fill-opacity="0.6" fill="#FFFFFF" cx="11.5" cy="11.5" rx="11.5" ry="11.5"></ellipse>
            <ellipse id="Oval-1-Copy-40" fill="#717065" cx="11.5" cy="11.5" rx="10.5" ry="10.5"></ellipse>
            <g id="police-15" transform="translate(5.000000, 5.000000)" fill="#FFFFFF">
                <g id="police-15.svg">
                    <g id="Shape">
                        <use xlink:href="#path-1"></use>
                        <use xlink:href="#path-1"></use>
                    </g>
                </g>
            </g>
        </g>
    </g>
</svg>