<svg height="24" viewBox="0 0 24 24" width="24"><g fill="none" fill-rule="evenodd"><circle cx="12" cy="12" fill="#fff" opacity=".6" r="12"/><circle cx="12" cy="12" fill="#717065" r="11"/><path d="m12.035661 19.8697883c.0000015.0547616.0000015.098429.0000015.1302117-.0034956-.0228706-.0155167-.0502246-.0356625-.0814028-.0201458.0311782-.0321669.0585322-.0356625.0814028 0-.0317827 0-.0754501.0000015-.1302117-.244363-.3029831-1.0900222-.8714075-2.27203131-1.2697883-1.38461538-.4666667-2.30774865-1.4-2.76923077-1.8666667-.46153846-.4666666-.92307692-1.4-.92307692-2.3333333s.92307692-2.7825114.92307692-3.7333333c0-.93333337-.4226295-1.8648467-.92307692-2.80000003l1.84615385-1.86666667c.67991407.53326 1.38461538.93333333 2.30769235.93333333.9230769 0 1.3846153-.18667806 1.8461538-.46666666.4615385.2799886.9230769.46666666 1.8461538.46666666.923077 0 1.6277783-.40007333 2.3076924-.93333333l1.8461538 1.86666667c-.5004474.93515333-.9230769 1.86666666-.9230769 2.80000003 0 .9508219.9230769 2.8.9230769 3.7333333s-.4615385 1.8666667-.9230769 2.3333333c-.4614821.4666667-1.3846154 1.4-2.7692308 1.8666667-1.1820091.3983808-2.0276683.9668052-2.2720313 1.2697883zm-2.0344955-3.6031216 1.9988345-1.1177719 1.9988345 1.1177719-.3834499-2.3655173 1.6153846-1.6723254-2.2354312-.3465959-.995338-2.14889477-.995338 2.14889477-2.23543123.3465959 1.61538463 1.6723254z" fill="#fff"/></g></svg>