<?xml version="1.0" encoding="UTF-8"?>
<svg version="1.1" viewBox="0 0 24 24" xmlns="http://www.w3.org/2000/svg">
 <path d="m12.996 3c-0.23038-1.78e-5 -0.44299 0.12382-0.55664 0.32422-2.3639 4.1598-4.0202 6.791-5.2285 8.9199-5.092e-4 8.97e-4 -0.00144 3e-3 -0.00195 0.0039-0.035086 0.05135-0.02924 0.04302-0.037109 0.05664-0.016749 0.02898-0.041195 0.07424-0.085937 0.1543-0.1275 0.22815-0.29484 0.52895-0.13086 0.96289 0.08199 0.21697 0.27802 0.40446 0.4707 0.49219 0.19269 0.08773 0.37695 0.10907 0.57031 0.10938l2.4375 0.0039-0.85742 6.2461c-0.052498 0.38382 0.24542 0.72588 0.63281 0.72658h0.92969c0.1035-3.64e-4 0.20538-0.02583 0.29688-0.07422 0.09218-0.04799 0.17128-0.11771 0.23047-0.20312 0 0 1.5971-2.3245 5.2637-8.7363 0.0091-0.01526 0.01758-0.0309 0.02539-0.04687l0.05664-0.12305c0.14162-0.28323 0.14702-0.62363-0.05078-0.93164-0.1978-0.30801-0.58731-0.46944-0.95898-0.46875l-2.3242 0.0039 0.88086-6.6973c0.049892-0.38235-0.24722-0.72165-0.63281-0.72265z" fill="#727065"/>
</svg>
