<svg width="24" height="24" viewBox="0 0 24 24">
  <g fill="none" fill-rule="evenodd">
    <circle cx="12" cy="12" r="12" fill="#FFF" opacity=".6"/>
    <circle cx="12" cy="12" r="11" fill="#717065"/>
    <path fill="#FFF" d="M12.4615385,7.83516484 L18,11 L6,11 L11.5384615,7.83516484 L11.5384615,5 L12.4615385,5 L12.4615385,7.83516484 Z M6,11 L18,11 L18,11.8571429 L6,11.8571429 L6,11 Z M6.92307692,11.8571429 L8.30769231,11.8571429 L8.30769231,16.1428571 L6.92307692,16.1428571 L6.92307692,11.8571429 Z M6,16.1428571 L18,16.1428571 L18,17 L6,17 L6,16.1428571 Z M12.4615385,5.42857143 L14.3076923,5 L16.1538462,5.42857143 L16.1538462,7.14285714 L14.3076923,6.71428571 L12.4615385,7.14285714 L12.4615385,5.42857143 Z M9.69230769,11.8571429 L11.0769231,11.8571429 L11.0769231,16.1428571 L9.69230769,16.1428571 L9.69230769,11.8571429 Z M12.9230769,11.8571429 L14.3076923,11.8571429 L14.3076923,16.1428571 L12.9230769,16.1428571 L12.9230769,11.8571429 Z M15.6923077,11.8571429 L17.0769231,11.8571429 L17.0769231,16.1428571 L15.6923077,16.1428571 L15.6923077,11.8571429 Z M12,10.1428571 C12.2549007,10.1428571 12.4615385,9.95097918 12.4615385,9.71428571 C12.4615385,9.47759225 12.2549007,9.28571429 12,9.28571429 C11.7450993,9.28571429 11.5384615,9.47759225 11.5384615,9.71428571 C11.5384615,9.95097918 11.7450993,10.1428571 12,10.1428571 Z"/>
  </g>
</svg>
