<svg version="1.1" viewBox="0 0 24 24" xmlns="http://www.w3.org/2000/svg">
 <title>public-building-m</title>
 <g fill="none" fill-rule="evenodd">
  <g id="public-building-m" fill-rule="nonzero">
   <circle id="Oval" cx="12" cy="12" r="12" fill="#fff" opacity=".6"/>
   <circle id="Oval" cx="12" cy="12" r="11" fill="#717065"/>
   <path id="Shape" d="m15.692 16.143v-4.2857h-1.3846v4.2857h1.3846zm1.3846 0h0.92308v0.85714h-12v-0.85714h0.92308v-4.2857h-0.92308v-0.85714l5.5385-3.1648v-2.8352h0.92308v0.42857l1.8462-0.42857 1.8462 0.42857v1.7143l-1.8462-0.42857-1.8462 0.42857v0.69231l5.5385 3.1648v0.85714h-0.92308v4.2857zm-4.1538 0v-4.2857h-1.8462v4.2857h1.8462zm-3.2308 0v-4.2857h-1.3846v4.2857h1.3846zm2.3077-6c0.2549 0 0.46154-0.19188 0.46154-0.42857 0-0.23669-0.20664-0.42857-0.46154-0.42857s-0.46154 0.19188-0.46154 0.42857c0 0.23669 0.20664 0.42857 0.46154 0.42857z" fill="#fff"/>
  </g>
 </g>
</svg>
