<?xml version="1.0" encoding="UTF-8" standalone="no"?>
<svg width="23px" height="23px" viewBox="0 0 23 23" version="1.1" xmlns="http://www.w3.org/2000/svg" xmlns:xlink="http://www.w3.org/1999/xlink">
    <!-- Generator: Sketch 3.8.3 (29802) - http://www.bohemiancoding.com/sketch -->
    <title>public-building-m</title>
    <desc>Created with Sketch.</desc>
    <defs></defs>
    <g id="POI-Clear" stroke="none" stroke-width="1" fill="none" fill-rule="evenodd">
        <g id="public-building-m">
            <ellipse id="Oval-1-Copy-41" fill-opacity="0.6" fill="#FFFFFF" cx="11.5" cy="11.5" rx="11.5" ry="11.5"></ellipse>
            <ellipse id="Oval-1-Copy-40" fill="#717065" cx="11.5" cy="11.5" rx="10.5" ry="10.5"></ellipse>
            <path d="M12,6.30769231 L18,10 L5,10 L11,6.30769231 L11,3 L12,3 L12,6.30769231 Z M5,10 L18,10 L18,11 L5,11 L5,10 Z M6,11 L7.5,11 L7.5,16 L6,16 L6,11 Z M5,16 L18,16 L18,17 L5,17 L5,16 Z M12,3.5 L14,3 L16,3.5 L16,5.5 L14,5 L12,5.5 L12,3.5 Z M9,11 L10.5,11 L10.5,16 L9,16 L9,11 Z M12.5,11 L14,11 L14,16 L12.5,16 L12.5,11 Z M15.5,11 L17,11 L17,16 L15.5,16 L15.5,11 Z M11.5,9 C11.7761424,9 12,8.77614237 12,8.5 C12,8.22385763 11.7761424,8 11.5,8 C11.2238576,8 11,8.22385763 11,8.5 C11,8.77614237 11.2238576,9 11.5,9 Z" id="Combined-Shape" fill="#FFFFFF"></path>
        </g>
    </g>
</svg>