<?xml version="1.0" encoding="UTF-8" standalone="no"?>
<svg width="27px" height="27px" viewBox="0 0 27 27" version="1.1" xmlns="http://www.w3.org/2000/svg" xmlns:xlink="http://www.w3.org/1999/xlink">
    <!-- Generator: Sketch 3.8.3 (29802) - http://www.bohemiancoding.com/sketch -->
    <title>public-building-l</title>
    <desc>Created with Sketch.</desc>
    <defs></defs>
    <g id="POI-Clear" stroke="none" stroke-width="1" fill="none" fill-rule="evenodd">
        <g id="public-building-l">
            <circle id="Oval-1-Copy-39" fill-opacity="0.6" fill="#FFFFFF" cx="13.5" cy="13.5" r="13.5"></circle>
            <circle id="Oval-1-Copy-38" fill="#717065" cx="13.5" cy="13.5" r="12.5"></circle>
            <path d="M18,14 L16.3333333,14 L16.3333333,18 L18,18 L18,14 Z M20,14 L21,14 L21,12 L6,12 L6,14 L7,14 L7,18 L6,18 L6,20 L21,20 L21,18 L20,18 L20,14 Z M14.3333333,14 L12.6666667,14 L12.6666667,18 L14.3333333,18 L14.3333333,14 Z M10.6666667,14 L9,14 L9,18 L10.6666667,18 L10.6666667,14 Z M14,8.26666667 L21,12 L6,12 L13,8.26666667 L13,4 L14,4 L14,8.26666667 Z M13.5,12 C14.0522847,12 14.5,11.5522847 14.5,11 C14.5,10.4477153 14.0522847,10 13.5,10 C12.9477153,10 12.5,10.4477153 12.5,11 C12.5,11.5522847 12.9477153,12 13.5,12 Z M14,5 L16,4.5 L18,5 L18,7 L16,6.5 L14,7 L14,5 Z" id="Combined-Shape" fill="#FFFFFF"></path>
        </g>
    </g>
</svg>