<?xml version="1.0" encoding="utf-8"?>
<!-- Generator: Adobe Illustrator 21.0.2, SVG Export Plug-In . SVG Version: 6.00 Build 0)  -->
<svg version="1.1" id="Слой_1" xmlns="http://www.w3.org/2000/svg" xmlns:xlink="http://www.w3.org/1999/xlink" x="0px" y="0px"
	 viewBox="0 0 34.3 21.3" style="enable-background:new 0 0 34.3 21.3;" xml:space="preserve">
<style type="text/css">
	.st0{fill:#D60B0B;}
	.st1{fill:#EDEDED;}
</style>
<title>railway-crossing</title>
<desc>Created with Sketch.</desc>
<path id="Shape" class="st0" d="M33.2,18L33.2,18l1,2.7L31.3,21l-3.6,0.3H27L26.7,21L3.4,7.8L2.8,7.4L2.6,6.9L1.1,3.4L0,0.9l2.8-0.3
	l3.6-0.3h0.8l0.6,0.3l23.7,13.6l0,0l0.3,0.6L33.2,18z M1,18L1,18l1.5-3.3L2.9,14L26.6,0.3L27.2,0h0.8l3.6,0.3l2.8,0.3l-1,2.7
	l-1.5,3.4l-0.3,0.8l-0.6,0.3L7.8,21l-0.6,0.3H6.5L2.8,21L0,20.7L1,18z"/>
<path id="Rectangle-27-Copy" class="st1" d="M21.5,10.8l8.2,4.8l1.5,3.3l-3.6,0.3L17.1,13L6.6,19.2L3,18.9l1.5-3.3l8.2-4.8L4.5,6
	L3.3,2.7l3.6-0.3l10.5,6.1l10.5-6.1l3.6,0.3L30,6L21.5,10.8z"/>
</svg>
