<svg version="1.1" viewBox="0 0 17 10" xmlns="http://www.w3.org/2000/svg">
 <title>railway-crossing-m</title>
 <g fill="none" fill-rule="evenodd">
  <g id="railway-crossing-m" fill-rule="nonzero">
   <path id="Shape" d="m15.916 8.3604 0.51559 1.219-3.2924 0.40852-11.279-6.5118-1.2924-3.0556 3.2924-0.40852 11.279 6.5118 0.77683 1.8366zm-14.832 0 0.77683-1.8366 11.279-6.5118 3.2924 0.40852-1.2924 3.0556-11.279 6.5118-3.2924-0.40852 0.51559-1.219z" fill="#C81E17"/>
   <polygon id="Path" points="13.401 8.6958 14.636 8.5426 14.151 7.3968 10 5 14.151 2.6032 14.636 1.4574 13.401 1.3042 8.5 4.134 3.5986 1.3042 2.364 1.4574 2.8486 2.6032 7 5 2.8486 7.3968 2.364 8.5426 3.5986 8.6958 8.5 5.866" fill="#fff" stroke="#C81E17" stroke-width=".5"/>
  </g>
 </g>
</svg>
