<?xml version="1.0" encoding="UTF-8"?>
<svg width="20px" height="12px" viewBox="0 0 20 12" version="1.1" xmlns="http://www.w3.org/2000/svg" xmlns:xlink="http://www.w3.org/1999/xlink">
    <title>railway-crossing-l</title>
    <g id="Page-1" stroke="none" stroke-width="1" fill="none" fill-rule="evenodd">
        <g id="railway-crossing-l" fill-rule="nonzero">
            <path d="M18.7249329,10.0325318 L19.3315093,11.4953004 L17.7862655,11.6908679 L15.8495477,11.9359807 L15.4580737,11.985526 L15.1164476,11.7843433 L2.53061127,4.37257863 L2.18898509,4.1713959 L2.0353143,3.80081634 L1.27506711,1.9674682 L0.66849072,0.50469962 L2.21373455,0.3091321 L4.15045233,0.06401927 L4.54192627,0.01447396 L4.88355245,0.21565669 L17.4693887,7.62742138 L17.8110149,7.82860411 L17.9646857,8.19918367 L18.7249329,10.0325318 Z M1.27506711,10.0325318 L2.03531428,8.19918367 L2.18898508,7.82860411 L2.53061126,7.62742138 L15.1164476,0.21565669 L15.4580737,0.01447396 L15.8495477,0.06401927 L17.7862654,0.3091321 L19.3315093,0.50469962 L18.7249329,1.9674682 L17.9646857,3.80081634 L17.8110149,4.1713959 L17.4693887,4.37257863 L4.88355244,11.7843433 L4.54192625,11.985526 L4.15045231,11.9359807 L2.21373455,11.6908679 L0.66849073,11.4953004 L1.27506711,10.0325318 Z" id="Shape" fill="#C81E17"></path>
            <polygon id="Path" stroke="#C81E17" stroke-width="0.5" fill="#FFFFFF" points="15.7446084 10.4136821 17.287157 10.2073074 16.6946084 8.7682338 11.8999434 6.00003267 16.6941707 3.23208427 17.2867193 1.79301064 15.7441707 1.586636 9.99994342 4.90306716 4.25626704 1.58695405 2.71371841 1.7933287 3.30626704 3.23240232 8.09994342 6.00003267 3.3058293 8.76791574 2.71328068 10.2069894 4.2558293 10.413364 9.99994342 7.09699818"></polygon>
        </g>
    </g>
</svg>