<svg version="1.1" viewBox="0 0 20 12" xmlns="http://www.w3.org/2000/svg">
 <title>railway-crossing-l</title>
 <g fill="none" fill-rule="evenodd">
  <g id="railway-crossing-l" fill-rule="nonzero">
   <path id="Shape" d="m18.725 10.033 0.60658 1.4628-3.8734 0.49023-13.269-7.8141-1.5205-3.6667 3.8734-0.49023 13.269 7.8141 0.91392 2.2039zm-17.45 0 0.91392-2.2039 13.269-7.8141 3.8734 0.49023-1.5205 3.6667-13.269 7.8141-3.8734-0.49023 0.60658-1.4628z" fill="#C81E17"/>
   <polygon id="Path" points="15.745 10.414 17.287 10.207 16.695 8.7682 11.9 6 16.694 3.2321 17.287 1.793 15.744 1.5866 9.9999 4.9031 4.2563 1.587 2.7137 1.7933 3.3063 3.2324 8.0999 6 3.3058 8.7679 2.7133 10.207 4.2558 10.413 9.9999 7.097" fill="#fff" stroke="#C81E17" stroke-width=".5"/>
  </g>
 </g>
</svg>
