<?xml version="1.0" encoding="utf-8"?>
<!-- Generator: Adobe Illustrator 21.0.2, SVG Export Plug-In . SVG Version: 6.00 Build 0)  -->
<svg version="1.1" id="Слой_1" xmlns="http://www.w3.org/2000/svg" xmlns:xlink="http://www.w3.org/1999/xlink" x="0px" y="0px"
	 viewBox="0 0 19.6 12.2" enable-background="new 0 0 19.6 12.2" xml:space="preserve">
<title>railway-crossing</title>
<desc>Created with Sketch.</desc>
<path id="Shape" fill="#D60B0B" d="M18.7,10.3L18.7,10.3l0.6,1.5l-1.6,0.2l-2,0.2l-0.4,0L15.1,12L2.2,4.6L1.9,4.4L1.7,4.1L0.9,2.2
	L0.3,0.8l1.6-0.2l2-0.2l0.4,0l0.3,0.2l13.2,7.6l0,0L18,8.5L18.7,10.3z M0.9,10.3L0.9,10.3l0.8-1.8l0.2-0.4l13.2-7.6l0.3-0.2l0.4,0
	l2,0.2l1.6,0.2l-0.6,1.5L18,4.1l-0.2,0.4l-0.3,0.2L4.6,12l-0.3,0.2l-0.4,0l-2-0.2l-1.6-0.2L0.9,10.3z"/>
<path id="Rectangle-27-Copy" fill="#EDEDED" d="M12.2,6.3l4.6,2.7l0.8,1.8l-2,0.2L9.8,7.6L4,11l-2-0.2l0.8-1.8l4.6-2.7L2.8,3.6
	L2.1,1.8l2-0.2l5.8,3.4l5.8-3.4l2,0.2l-0.8,1.8L12.2,6.3z"/>
</svg>
