<?xml version="1.0" encoding="UTF-8" standalone="no"?>
<svg width="23px" height="23px" viewBox="0 0 23 23" version="1.1" xmlns="http://www.w3.org/2000/svg" xmlns:xlink="http://www.w3.org/1999/xlink">
    <!-- Generator: Sketch 3.8.3 (29802) - http://www.bohemiancoding.com/sketch -->
    <title>recycling-m</title>
    <desc>Created with Sketch.</desc>
    <defs></defs>
    <g id="POI-Clear" stroke="none" stroke-width="1" fill="none" fill-rule="evenodd">
        <g id="recycling-m" fill="#717065">
            <path d="M9.518,5 C9.31389,5 9.25,5.1643 9.25,5.3684 L9.25,7 L6.73685,7 C6.32863,7 6,7.092 6,7.5 C6,7.9083 6.32863,8 6.73685,8 L16.26316,8 C16.67137,8 17,7.908 17,7.5 C17,7.0918 16.67137,7 16.26316,7 L13.75,7 L13.75,5.3684 C13.75,5.1643 13.58611,5 13.382,5 L9.518,5 Z M10,5.7368 L13,5.7368 L13,7 L10,7 L10,5.7368 Z M6.73685,9 C6.32863,9 5.94851,9.3343 6.01563,9.7369 L6.01563,18.2631998 C6.08203,18.6658998 6.34426,18.9999998 6.75248,18.9999998 L16.2475204,18.9999998 C16.6557404,18.9999998 16.9172404,18.6657998 16.9843704,18.2631998 L16.98437,9.7369 C17.05317,9.3346 16.67137,9 16.26316,9 L6.73685,9 Z" id="path5652-copy"></path>
        </g>
    </g>
</svg>