<svg height="24" viewBox="0 0 24 24" width="24"><g fill="none" fill-rule="evenodd"><circle cx="12" cy="12" fill="#fff" opacity=".6" r="12"/><circle cx="12" cy="12" fill="#717065" r="11"/><path d="m15.2307692 9.69230769h-6.46153843c-.50981539 0-.92307692-.41326154-.92307692-.92307692v-2.30769231c0-.25486154.20667692-.46153846.46153846-.46153846s.46153846.20667692.46153846.46153846v1.38461539h.92307692v-.92307693c0-.50981538.41326151-.92307692.92307691-.92307692s.9230769.41326154.9230769.92307692v.92307693h.923077v-.92307693c0-.50981538.4132615-.92307692.9230769-.92307692s.9230769.41326154.9230769.92307692v.92307693h.9230769v-1.38461539c0-.25486154.206677-.46153846.4615385-.46153846s.4615385.20667692.4615385.46153846v2.30769231c0 .50981538-.4132616.92307692-.923077.92307692zm2.3076923 8.30769231h-11.07692304c-.25486154 0-.46153846-.2066769-.46153846-.4615385 0-.2548615.20667692-.4615384.46153846-.4615384h.46153846c.50981539 0 .92307693-.4132616.92307693-.9230769 0 0 .92307692-3.6923077.92307692-4.6153847 0-.5098153.41326154-.9230769.92307692-.9230769h4.61538461c.5098154 0 .9230769.4132616.9230769.9230769 0 .923077.923077 4.6153847.923077 4.6153847 0 .5098153.4132615.9230769.9230769.9230769h.4615384c.2513539-.0000923.4565539.2010461.4615385.4523077 0 .2640923-.2066769.4707692-.4615385.4707692zm-4.1538461-3.2307692c0-.764677-.6199385-1.3846154-1.3846154-1.3846154s-1.3846154.6199384-1.3846154 1.3846154v2.3076923h2.7692308v-3.2307693z" fill="#fff"/></g></svg>