<svg version="1.1" viewBox="0 0 16 16" xmlns="http://www.w3.org/2000/svg">
 <title>remains-s</title>
 <g fill="none" fill-rule="evenodd">
  <g id="remains-s" fill-rule="nonzero">
   <path id="Shape" d="m12.159 2.4993v1.8562c0.01486 0.47771-0.38213 0.87641-0.88664 0.89045h-6.5043c-0.50462 0.0070154-0.91973-0.37475-0.92716-0.85271-9.87e-5 -0.0084-9.87e-5 -0.0168 0-0.0252v-1.8687c0-0.23892 0.20465-0.43268 0.45696-0.43268 0.25233 0 0.45696 0.19376 0.45696 0.43268v0.86537h1.2186v-0.62708c0-0.34627 0.29657-0.62708 0.66227-0.62708 0.3657 0 0.66227 0.28081 0.66227 0.62708v0.62708h1.3245v-0.62708c0-0.34627 0.29657-0.62708 0.66227-0.62708 0.3657 0 0.66227 0.28081 0.66227 0.62708v0.62708h1.3245v-0.86537c-0.04252-0.23202 0.12177-0.45275 0.36677-0.49301 0.24504-0.0402 0.47816 0.1152 0.52067 0.34728 0.0088 0.04824 0.0088 0.09756 1e-6 0.14573zm1.8411 11.062c0 0.24243-0.20756 0.43896-0.46359 0.43896h-11.073c-0.25603-1.24e-4 -0.46345-0.19678-0.46332-0.43921 2.646e-4 -0.2423 0.20755-0.43858 0.46332-0.43871h0.46359c0.49723 0.01404 0.91234-0.35618 0.92718-0.82699 5.292e-4 -0.01692 5.292e-4 -0.03396 0-0.05088 0 0 0.92717-4.0133 0.92717-4.8787-0.00741-0.47094 0.38981-0.85835 0.8873-0.86537 0.00888-1.251e-4 0.017685-1.251e-4 0.026595 0h4.6094c0.49723-0.014039 0.91234 0.35618 0.92717 0.82699 5.32e-4 0.01692 5.32e-4 0.03396 0 0.05088 0 0.87791 0.92718 4.8787 0.92718 4.8787-0.01486 0.47081 0.37616 0.86387 0.8734 0.87791 0.01782 5.05e-4 0.03592 5.05e-4 0.05374 0h0.45035c0.25604 0 0.46359 0.19653 0.46359 0.43896v-0.01248zm-4.7153-2.6714c0-0.69268-0.59299-1.2542-1.3245-1.2542-0.73154 0-1.3245 0.56149-1.3245 1.2542v2.5083h2.6491z" fill="#7f5933"/>
  </g>
 </g>
</svg>
