<?xml version="1.0" encoding="UTF-8" standalone="no"?>
<svg width="17px" height="17px" viewBox="0 0 17 17" version="1.1" xmlns="http://www.w3.org/2000/svg" xmlns:xlink="http://www.w3.org/1999/xlink">
    <!-- Generator: Sketch 3.8.3 (29802) - http://www.bohemiancoding.com/sketch -->
    <title>remains-s</title>
    <desc>Created with Sketch.</desc>
    <defs></defs>
    <g id="POI-Clear" stroke="none" stroke-width="1" fill="none" fill-rule="evenodd">
        <g id="fort-s">
            <circle id="Oval-1-Copy-43" fill-opacity="0.6" fill="#FFFFFF" cx="8.5" cy="8.5" r="8.5"></circle>
            <circle id="Oval-1-Copy-42" fill="#717065" cx="8.5" cy="8.5" r="7.5"></circle>
            <g id="castle-11" transform="translate(4.000000, 3.000000)" fill="#FFFFFF">
                <g id="Layer_1">
                    <path d="M7.66980005,0.398159276 L7.66980005,1.87815928 C7.68100005,2.25905928 7.38130005,2.57695928 7.00040005,2.58815928 L6.99980005,2.58815928 L2.08980005,2.58815928 C1.70880005,2.59375928 1.39540005,2.28935928 1.38980005,1.90825928 C1.38970005,1.90155928 1.38970005,1.89485928 1.38980005,1.88815928 L1.38980005,0.398159276 C1.38980005,0.207659276 1.54430005,0.053159276 1.73480005,0.053159276 C1.92530005,0.053159276 2.07980005,0.207659276 2.07980005,0.398159276 L2.07980005,1.08815928 L2.99980005,1.08815928 L2.99980005,0.588159276 L2.99980005,0.588159276 C2.99980005,0.312059276 3.22370005,0.088159276 3.49980005,0.088159276 C3.77590005,0.088159276 3.99980005,0.312059276 3.99980005,0.588159276 L3.99980005,0.588159276 L3.99980005,1.08815928 L4.99980005,1.08815928 L4.99980005,0.588159276 L4.99980005,0.588159276 C4.99980005,0.312059276 5.22370005,0.088159276 5.49980005,0.088159276 C5.77590005,0.088159276 5.99980005,0.312059276 5.99980005,0.588159276 L5.99980005,0.588159276 L5.99980005,1.08815928 L6.99980005,1.08815928 L6.99980005,0.398159276 C6.96770005,0.213159276 7.09170005,0.037159276 7.27670005,0.00505927598 C7.46170005,-0.027040724 7.63770005,0.096959276 7.66980005,0.281959276 C7.67650005,0.320459276 7.67650005,0.359759276 7.66980005,0.398159276 L7.66980005,0.398159276 Z M9.05980005,9.21815928 C9.05980005,9.41145928 8.90310005,9.56815928 8.70980005,9.56815928 L8.70980005,9.56815928 L0.349800048,9.56815928 C0.156500048,9.56805928 -9.99521339e-05,9.41125928 4.7866057e-08,9.21795928 C0.000200047866,9.02475928 0.156700048,8.86825928 0.349800048,8.86815928 L0.699800048,8.86815928 C1.07520005,8.87935928 1.38860005,8.58415928 1.39980005,8.20875928 C1.40020005,8.19525928 1.40020005,8.18165928 1.39980005,8.16815928 C1.39980005,8.16815928 2.09980005,4.96815928 2.09980005,4.27815928 C2.09420005,3.90265928 2.39410005,3.59375928 2.76970005,3.58815928 C2.77640005,3.58805928 2.78310005,3.58805928 2.78980005,3.58815928 L6.26980005,3.58815928 C6.64520005,3.57695928 6.95860005,3.87215928 6.96980005,4.24755928 C6.97020005,4.26105928 6.97020005,4.27465928 6.96980005,4.28815928 C6.96980005,4.98815928 7.66980005,8.17815928 7.66980005,8.17815928 C7.65860005,8.55355928 7.95380005,8.86695928 8.32920005,8.87815928 C8.34270005,8.87855928 8.35630005,8.87855928 8.36980005,8.87815928 L8.70980005,8.87815928 C8.90310005,8.87815928 9.05980005,9.03485928 9.05980005,9.22815928 L9.05980005,9.22815928 L9.05980005,9.21815928 L9.05980005,9.21815928 Z M5.49980005,7.08815928 C5.49980005,6.53585928 5.05210005,6.08815928 4.49980005,6.08815928 C3.94750005,6.08815928 3.49980005,6.53585928 3.49980005,7.08815928 L3.49980005,9.08815928 L5.49980005,9.08815928 L5.49980005,7.08815928 L5.49980005,7.08815928 Z" id="Shape"></path>
                </g>
            </g>
        </g>
    </g>
</svg>