<svg height="24" viewBox="0 0 24 24" width="24"><g fill="none" fill-rule="evenodd"><circle cx="12" cy="12" fill="#fff" opacity=".6" r="12"/><circle cx="12" cy="12" fill="#bb9342" r="11"/><path d="m10.75 9.55v-2.94779089c0-.33259091-.2650928-.60220911-.5957127-.60220911h-.0585746c-.32900306 0-.5957127.27856255-.5957127.60220911v2.94779089h-1.25v-2.94779089c0-.33259091-.26509285-.60220911-.59571266-.60220911h-.05857468c-.32900302 0-.59571266.27856255-.59571266.60220911v2.94779089c0 1.378 1.25 2.45 2.4375 2.45l-.16221292 5.1908133c-.01396567.4469015.32885153.8091867.76778852.8091867h.1638488c.4380036 0 .7781856-.3573589.7593595-.8091867l-.2162839-5.1908133c1.25 0 2.75-1.072 2.5-2.45v-2.94779089c0-.33259091-.2650928-.60220911-.5957127-.60220911h-.0585746c-.3290031 0-.5957127.27856255-.5957127.60220911v2.94779089zm3.25 3.25h1.5v4.4549668c0 .4114705.3328986.7450332.75.7450332.4142136 0 .75-.3334731.75-.7506537v-11.2493463c-2.094 0-3.05 1.456-3 2.6z" fill="#fff"/></g></svg>