<?xml version="1.0" encoding="UTF-8"?>
<svg width="27px" height="27px" viewBox="0 0 27 27" version="1.1" xmlns="http://www.w3.org/2000/svg" xmlns:xlink="http://www.w3.org/1999/xlink">
    <!-- Generator: Sketch 39.1 (31720) - http://www.bohemiancoding.com/sketch -->
    <title>restaurant-l</title>
    <desc>Created with Sketch.</desc>
    <defs>
        <ellipse id="path-1" cx="13.5" cy="13.5" rx="12.5" ry="12.5"></ellipse>
    </defs>
    <g id="POI-Clear" stroke="none" stroke-width="1" fill="none" fill-rule="evenodd">
        <g id="Artboard-1" transform="translate(-137.000000, -396.000000)">
            <g id="restaurant-l" transform="translate(137.000000, 396.000000)">
                <ellipse id="Oval-1-Copy-39" fill-opacity="0.6" fill="#FFFFFF" cx="13.5" cy="13.5" rx="13.5" ry="13.5"></ellipse>
                <g id="Oval-1-Copy-38">
                    <use fill="#AB842F" xlink:href="#path-1"></use>
                    <use fill="#BB9342" xlink:href="#path-1"></use>
                </g>
                <path d="M11.5,11 L11.5,6.75939238 C11.5,6.33999155 11.1671014,6 10.75,6 L10.75,6 C10.3357864,6 10,6.32806396 10,6.75939238 L10,11 L8.5,11 L8.5,6.75939238 C8.5,6.33999155 8.16710138,6 7.75,6 L7.75,6 C7.33578644,6 7,6.32806396 7,6.75939238 L7,11 C7,12.84 8.5,14 10,14 L9.7858189,19.9970707 C9.76603667,20.5509732 10.1938648,21 10.75,21 L10.75,21 C11.3022847,21 11.7343614,20.5621186 11.7141811,19.9970707 L11.5,14 C13,14 14.5,12.84 14.5,11 L14.5,6.75939238 C14.5,6.33999155 14.1671014,6 13.75,6 L13.75,6 C13.3357864,6 13,6.32806396 13,6.75939238 L13,11 L11.5,11 Z M16,15 L18,15 L18,20.009222 C18,20.5564136 18.4438648,21 19,21 L19,21 C19.5522847,21 20,20.5510798 20,19.992516 L20,6 C17.68,6 16,7.68 16,9 L16,15 Z" id="Shape" fill="#FFFFFF"></path>
            </g>
        </g>
    </g>
</svg>