<svg width="16" height="16" viewBox="0 0 16 16">
  <g fill="none" fill-rule="evenodd">
    <circle cx="8" cy="8" r="8" fill="#FFF" opacity=".6"/>
    <circle cx="8" cy="8" r="7" fill="#BB9342"/>
    <path fill="#FFF" d="M7,7 L7,4.49538898 C7,4.2217932 6.76806641,4 6.5,4 L6.5,4 C6.22385763,4 6,4.2157526 6,4.49538898 L6,7 L5,7 L5,4.49538898 C5,4.2217932 4.76806641,4 4.5,4 L4.5,4 C4.22385763,4 4,4.2157526 4,4.49538898 L4,7 C4,7.9954834 5,9 6,9 L5.81308556,11.2429733 C5.77824437,11.6610676 6.08289862,12 6.5,12 L6.5,12 C6.91421356,12 7.22132182,11.6558619 7.18691444,11.2429733 L7,9 C8,9 9,8.00115967 9,7 L9,4.49538898 C9,4.2217932 8.76806641,4 8.5,4 L8.5,4 C8.22385763,4 8,4.2157526 8,4.49538898 L8,7 L7,7 Z M10,9.5 L11,9.5 L11,11.4940877 C11,11.7734953 11.2319336,12 11.5,12 L11.5,12 C11.7761424,12 12,11.7692032 12,11.4995642 L12,4 C10.858,4 10,4 10,5.98388672 L10,9.5 Z"/>
  </g>
</svg>
