<svg height="24" viewBox="0 0 24 24" width="24"><g fill="none" fill-rule="evenodd"><circle cx="12" cy="12" fill="#fff" opacity=".6" r="12"/><circle cx="12" cy="12" fill="#717065" r="11"/><path d="m12 5-.28125.1630094-5.7 3.40282132.5625 1.14106583 5.41875-3.23981191 5.41875 3.23981191.5625-1.14106583-5.7-3.40282132zm-2.625 4.6661442-.75 1.0188088s.17337534.1567074.2625.4278997c.08912466.2711922.13880172.6177384-.35625 1.2633228-.70494828.9193059-.75462534 1.8849854-.54375 2.5266458.21087534.6416605.6375.9984326.6375.9984326l.75-1.0188088s-.17337534-.1567074-.2625-.4278996c-.08912466-.2711923-.13880172-.6177385.35625-1.2633229.7049483-.9193059.7546253-1.8849854.54375-2.5266458-.21087534-.6416604-.6375-.9984326-.6375-.9984326zm3 0-.75 1.0188088s.1733754.1567074.2625.4278997c.0891246.2711922.1388016.6177384-.35625 1.2633228-.7049484.9193059-.7546253 1.8849854-.54375 2.5266458.2108754.6416605.6375.9984326.6375.9984326l.75-1.0188088s-.1733754-.1567074-.2625-.4278996c-.0891246-.2711923-.1388016-.6177385.35625-1.2633229.7049484-.9193059.7546254-1.8849854.54375-2.5266458s-.6375-.9984326-.6375-.9984326zm3 0-.75 1.0188088s.1733754.1567074.2625.4278997c.0891246.2711922.1388016.6177384-.35625 1.2633228-.7049484.9193059-.7546254 1.8849854-.54375 2.5266458.2108754.6416605.6375.9984326.6375.9984326l.75-1.0188088s-.1733754-.1567074-.2625-.4278996c-.0891246-.2711923-.1388016-.6177385.35625-1.2633229.7049484-.9193059.7546254-1.8849854.54375-2.5266458s-.6375-.9984326-.6375-.9984326zm-9.375 7.0297806v1.3040752h12v-1.3040752z" fill="#fff" fill-rule="nonzero"/></g></svg>