<svg version="1.1" viewBox="0 0 24 24" xmlns="http://www.w3.org/2000/svg">
 <title>sauna-m</title>
 <g fill="none" fill-rule="evenodd">
  <g id="sauna-m" fill-rule="nonzero">
   <circle id="Oval" cx="12" cy="12" r="12" fill="#fff" opacity=".6"/>
   <circle id="Oval" cx="12" cy="12" r="11" fill="#717065"/>
   <g id="sauna" transform="translate(5 6)" fill="#fff">
    <path id="Path" d="m3.9846 2.7558c0.086598 0.14005 0.23641 0.21711 0.38984 0.21711 0.082141 0 0.16535-0.022121 0.24032-0.068496 0.21506-0.133 0.28164-0.41513 0.14861-0.63019-0.099832-0.16144-0.051434-0.38801 0.040141-0.74195 0.09841-0.3803 0.22086-0.85362-0.035711-1.2865-0.1289-0.21749-0.40964-0.28932-0.62729-0.16043-0.21749 0.12893-0.28932 0.40977-0.1604 0.62729 0.062398 0.10527-0.0013945 0.3518-0.063055 0.59024-0.10918 0.42208-0.24508 0.94735 0.067539 1.4529z"/>
    <path id="Path" d="m5.4504 2.7558c0.086625 0.14005 0.23647 0.21714 0.38987 0.21714 0.082141 0 0.16532-0.022094 0.24032-0.068496 0.21506-0.13295 0.28164-0.41511 0.14864-0.63016-0.099832-0.16146-0.051461-0.38801 0.040113-0.74197 0.09841-0.38032 0.22083-0.85359-0.035684-1.2864-0.12893-0.21755-0.40983-0.28932-0.62729-0.16043-0.21755 0.12893-0.28935 0.40977-0.16045 0.62727 0.062426 0.10527-0.0013672 0.35183-0.063055 0.59024-0.10913 0.42205-0.24503 0.94732 0.067539 1.4529z"/>
    <path id="Shape" d="m13.916 3.935c-0.14615-0.20634-0.43189-0.25506-0.63826-0.10894-0.094992 0.06732-2.2768 1.6601-3.0724 6.2156h-1.1915l0.19269-1.2648c0.5049-0.01102 0.91232-0.42484 0.91232-0.93231v-0.94104c0-0.35861-0.20349-0.67039-0.50099-0.82649l0.27549-1.8084c0.02007-0.13196-0.018402-0.26611-0.10536-0.36734-0.08698-0.1012-0.21377-0.15947-0.34727-0.15947h-8.7623c-0.13346 0-0.26026 0.058242-0.34727 0.15947-0.08698 0.10125-0.12545 0.2354-0.10536 0.36734l0.27552 1.8085c-0.2975 0.15611-0.50099 0.46791-0.50099 0.82646v0.94104c0 0.50745 0.40742 0.92127 0.9123 0.93231l0.33827 2.2203c0.019797 0.98399 0.82644 1.7784 1.8151 1.7784h0.15971 6.289e-4 7.1094e-4 3.6651 7.1094e-4 6.2891e-4 0.15969c0.24582 0 0.48038-0.049219 0.69439-0.13814 0.15742 0.02584 0.31847 0.039402 0.48212 0.039402 1.2767 0 2.3992-0.81337 2.7969-2.0252 0.010172-0.02893 0.017527-0.059144 0.021766-0.090398 0.10981-0.72286 0.25668-1.3667 0.42353-1.9365 0.36816-1.2572 0.83382-2.1538 1.2143-2.7424 0.074375-0.11504 0.14757-0.2217 0.21875-0.3203 0.49995-0.69262 0.89947-0.98681 0.90215-0.98883 0.20634-0.14615 0.25512-0.43192 0.10896-0.63826zm-5.9241 0.7225h0.91591l-0.20005 1.3131h-0.82559l0.10973-1.3131zm-2.4745 0h1.5557l-0.10973 1.3131h-1.4459v-1.3131zm-0.91569 0v1.3131h-1.4459l-0.10973-1.3131h1.5556zm-2.4746 0 0.10976 1.3131h-0.82562l-0.20005-1.3131h0.91591zm0.038992 6.3025c0-0.023078-0.0017773-0.046129-0.0052227-0.068961l-0.322-2.1137h0.6326l0.25195 3.0145c-0.32676-0.135-0.55732-0.457-0.55732-0.83191zm-1.2329-3.0983c-0.0095156 0-0.017254-0.0076836-0.017254-0.017145v-0.94104c0-0.0094883 0.0077656-0.017172 0.017254-0.017172h8.2527c0.0095156 0 0.017227 0.0077109 0.017227 0.017172v0.94104c0 0.0094609-0.0077109 0.017145-0.017227 0.017145h-8.2527zm7.347 0.91566-0.19261 1.2643h-0.54562l0.10566-1.2643h0.63257zm-3.6785 3.0825h-0.9537l-0.25761-3.0825h1.2113v3.0825zm0.91569-3.0825h1.2114l-0.10566 1.2643h-0.75835c-0.13437 0-0.26078 0.0595-0.34735 0.1607v-1.425h-2.734e-5zm0 3.0825v-0.98238c0.15862 0.37729 0.39028 0.70932 0.67504 0.98238h-0.67504zm2.7123-0.098711c-0.65056 0-1.243-0.30644-1.6182-0.80377h3.2364c-0.37521 0.49733-0.96759 0.80377-1.6182 0.80377z"/>
   </g>
  </g>
 </g>
</svg>
