<svg width="24" height="24" viewBox="0 0 24 24">
  <g fill="none" fill-rule="evenodd">
    <circle cx="12" cy="12" r="12" fill="#FFF" opacity=".6"/>
    <circle cx="12" cy="12" r="11" fill="#717065"/>
    <path fill="#FFF" fill-rule="nonzero" d="M12,5 L11.71875,5.1630094 L6.01875,8.56583072 L6.58125,9.70689655 L12,6.46708464 L17.41875,9.70689655 L17.98125,8.56583072 L12.28125,5.1630094 L12,5 Z M9.375,9.6661442 L8.625,10.684953 C8.625,10.684953 8.79837534,10.8416604 8.8875,11.1128527 C8.97662466,11.3840449 9.02630172,11.7305911 8.53125,12.3761755 C7.82630172,13.2954814 7.77662466,14.2611609 7.9875,14.9028213 C8.19837534,15.5444818 8.625,15.9012539 8.625,15.9012539 L9.375,14.8824451 C9.375,14.8824451 9.20162466,14.7257377 9.1125,14.4545455 C9.02337534,14.1833532 8.97369828,13.836807 9.46875,13.1912226 C10.1736983,12.2719167 10.2233753,11.3062372 10.0125,10.6645768 C9.80162466,10.0229164 9.375,9.6661442 9.375,9.6661442 Z M12.375,9.6661442 L11.625,10.684953 C11.625,10.684953 11.7983754,10.8416604 11.8875,11.1128527 C11.9766246,11.3840449 12.0263016,11.7305911 11.53125,12.3761755 C10.8263016,13.2954814 10.7766247,14.2611609 10.9875,14.9028213 C11.1983754,15.5444818 11.625,15.9012539 11.625,15.9012539 L12.375,14.8824451 C12.375,14.8824451 12.2016246,14.7257377 12.1125,14.4545455 C12.0233754,14.1833532 11.9736984,13.836807 12.46875,13.1912226 C13.1736984,12.2719167 13.2233754,11.3062372 13.0125,10.6645768 C12.8016246,10.0229164 12.375,9.6661442 12.375,9.6661442 Z M15.375,9.6661442 L14.625,10.684953 C14.625,10.684953 14.7983754,10.8416604 14.8875,11.1128527 C14.9766246,11.3840449 15.0263016,11.7305911 14.53125,12.3761755 C13.8263016,13.2954814 13.7766246,14.2611609 13.9875,14.9028213 C14.1983754,15.5444818 14.625,15.9012539 14.625,15.9012539 L15.375,14.8824451 C15.375,14.8824451 15.2016246,14.7257377 15.1125,14.4545455 C15.0233754,14.1833532 14.9736984,13.836807 15.46875,13.1912226 C16.1736984,12.2719167 16.2233754,11.3062372 16.0125,10.6645768 C15.8016246,10.0229164 15.375,9.6661442 15.375,9.6661442 Z M6,16.6959248 L6,18 L18,18 L18,16.6959248 L6,16.6959248 Z"/>
  </g>
</svg>
