<?xml version="1.0" encoding="UTF-8"?>
<svg width="24px" height="24px" viewBox="0 0 24 24" version="1.1" xmlns="http://www.w3.org/2000/svg" xmlns:xlink="http://www.w3.org/1999/xlink">
    <title>sauna-m</title>
    <g id="Page-1" stroke="none" stroke-width="1" fill="none" fill-rule="evenodd">
        <g id="sauna-m" fill-rule="nonzero">
            <circle id="Oval" fill="#FFFFFF" opacity="0.6" cx="12" cy="12" r="12"></circle>
            <circle id="Oval" fill="#717065" cx="12" cy="12" r="11"></circle>
            <g id="sauna" transform="translate(5.000000, 6.000000)" fill="#FFFFFF">
                <path d="M3.98461328,2.75575781 C4.07121094,2.8958125 4.22102734,2.97286719 4.37445313,2.97286719 C4.45659375,2.97286719 4.53980078,2.95074609 4.61477734,2.90437109 C4.82983594,2.77137109 4.89641797,2.48923828 4.76339063,2.27417969 C4.66355859,2.11274219 4.71195703,1.88617188 4.80353125,1.53223438 C4.90194141,1.1519375 5.02438672,0.678617188 4.76782031,0.245765625 C4.63892188,0.0282734375 4.35818359,-0.0435585937 4.14052734,0.0853398438 C3.92303516,0.214265625 3.85120312,0.495113281 3.98012891,0.712632813 C4.04252734,0.81790625 3.97873437,1.0644375 3.91707422,1.302875 C3.80789062,1.72495313 3.67199219,2.25022656 3.98461328,2.75575781 Z" id="Path"></path>
                <path d="M5.45040234,2.75575781 C5.53702734,2.8958125 5.68687109,2.97289453 5.84026953,2.97289453 C5.92241016,2.97289453 6.00558984,2.95080078 6.08059375,2.90439844 C6.29565234,2.77145312 6.36223437,2.48929297 6.22923437,2.27423437 C6.12940234,2.11276953 6.17777344,1.88622656 6.26934766,1.53226172 C6.36775781,1.1519375 6.49017578,0.678671875 6.23366406,0.245820312 C6.10473828,0.0282734375 5.82383594,-0.0435039063 5.60637109,0.0853945312 C5.38882422,0.214320312 5.31701953,0.495167969 5.44591797,0.712660156 C5.50834375,0.817933594 5.44455078,1.06449219 5.38286328,1.30290234 C5.27373438,1.72495313 5.13783594,2.25022656 5.45040234,2.75575781 Z" id="Path"></path>
                <path d="M13.9157266,3.93498437 C13.7695742,3.72864844 13.483832,3.67992187 13.2774687,3.82604687 C13.1824766,3.89336719 11.0007187,5.48619531 10.205043,10.0416641 L9.01351172,10.0416641 L9.20620312,8.77685156 C9.71110547,8.76583203 10.1185273,8.35201172 10.1185273,7.84453906 L10.1185273,6.90350391 C10.1185273,6.54489062 9.91503516,6.23311719 9.61753516,6.07701172 L9.89302344,4.26857812 C9.91309375,4.13661719 9.87462109,4.00246875 9.78766797,3.90124219 C9.7006875,3.80004297 9.57389453,3.74177344 9.44040234,3.74177344 L0.678097656,3.74177344 C0.544632812,3.74177344 0.417839844,3.80001562 0.330832031,3.90124219 C0.243851562,4.00249609 0.205378906,4.13664453 0.225476562,4.26857812 L0.500992187,6.07703906 C0.203492187,6.23314453 0,6.54494531 0,6.90350391 L0,7.84453906 C0,8.35198437 0.407421875,8.76580469 0.912296875,8.77685156 L1.25056641,10.9971367 C1.27036328,11.9811289 2.07700391,12.7755195 3.06567187,12.7755195 L3.22538672,12.7755195 C3.22560547,12.7755195 3.22582422,12.7755195 3.22601562,12.7755195 C3.22626172,12.7755195 3.22650781,12.7755195 3.22672656,12.7755195 L6.89182812,12.7755195 C6.89207422,12.7755195 6.89232031,12.7755195 6.89253906,12.7755195 C6.89275781,12.7755195 6.89297656,12.7755195 6.89316797,12.7755195 L7.05285547,12.7755195 C7.29867578,12.7755195 7.53323047,12.7263008 7.74725,12.6373789 C7.90466797,12.6632187 8.06572266,12.6767812 8.229375,12.6767812 C9.50610937,12.6767812 10.6285703,11.8634141 11.0262305,10.6516211 C11.0364023,10.6226914 11.0437578,10.5924766 11.0479961,10.5612227 C11.1578086,9.83836328 11.3046719,9.19455469 11.4715234,8.62476563 C11.8396797,7.36755469 12.3053437,6.47095312 12.6858594,5.88237891 C12.7602344,5.76734375 12.8334336,5.66067578 12.9046094,5.56207422 C13.4045625,4.86945703 13.804082,4.57526563 13.8067617,4.57324219 C14.0130977,4.42708984 14.0618789,4.14132031 13.9157266,3.93498437 Z M7.99162109,4.65748828 L8.90752734,4.65748828 L8.70748047,5.97061719 L7.88189062,5.97061719 L7.99162109,4.65748828 Z M5.51709375,4.65748828 L7.07276172,4.65748828 L6.96303125,5.97061719 L5.51709375,5.97061719 L5.51709375,4.65748828 Z M4.60140625,4.65748828 L4.60140625,5.97061719 L3.15549609,5.97061719 L3.04576562,4.65748828 L4.60140625,4.65748828 Z M2.12685156,4.65748828 L2.23660938,5.97061719 L1.41099219,5.97061719 L1.21094531,4.65748828 L2.12685156,4.65748828 Z M2.16584375,10.9600312 C2.16584375,10.9369531 2.16406641,10.9139023 2.16062109,10.8910703 L1.83862109,8.77739844 L2.47121875,8.77739844 L2.72316406,11.7919375 C2.39640625,11.6569414 2.16584375,11.3349414 2.16584375,10.9600312 Z M0.932914062,7.86171094 C0.923398437,7.86171094 0.915660156,7.85402734 0.915660156,7.84456641 L0.915660156,6.90353125 C0.915660156,6.89404297 0.923425781,6.88635937 0.932914062,6.88635937 L9.18561328,6.88635937 C9.19512891,6.88635937 9.20283984,6.89407031 9.20283984,6.90353125 L9.20283984,7.84456641 C9.20283984,7.85402734 9.19512891,7.86171094 9.18561328,7.86171094 L0.932914062,7.86171094 Z M8.27990625,8.77737109 L8.08729688,10.0416641 L7.54167969,10.0416641 L7.64733594,8.77737109 L8.27990625,8.77737109 Z M4.60140625,11.859832 L3.64771094,11.859832 L3.39010547,8.77737109 L4.60140625,8.77737109 L4.60140625,11.859832 Z M5.51709375,8.77737109 L6.72847656,8.77737109 L6.62282031,10.0416641 L5.86446875,10.0416641 C5.73010156,10.0416641 5.60369141,10.1011641 5.51712109,10.2023633 L5.51712109,8.77737109 L5.51709375,8.77737109 Z M5.51709375,11.859832 L5.51709375,10.8774531 C5.67571484,11.2547422 5.90737109,11.5867773 6.19212891,11.859832 L5.51709375,11.859832 Z M8.229375,11.7611211 C7.5788125,11.7611211 6.98641016,11.4546797 6.61114453,10.9573516 L9.84755078,10.9573516 C9.47233984,11.4546797 8.87996484,11.7611211 8.229375,11.7611211 Z" id="Shape"></path>
            </g>
        </g>
    </g>
</svg>