<svg height="24" viewBox="0 0 24 24" width="24"><g fill="none" fill-rule="evenodd"><circle cx="12" cy="12" fill="#fff" opacity=".6" r="12"/><circle cx="12" cy="12" fill="#717065" r="11"/><path d="m13.1666394 6c-.6443338 0-1.1666627.51655152-1.1666627 1.15384096 0 .63728943.5223289 1.15384095 1.1666627 1.15384095.6443339 0 1.1666628-.51655152 1.1666628-1.15384095 0-.63728944-.5223289-1.15384096-1.1666628-1.15384096zm-5.30831559.92307277c-.64433386 0-1.16666278.51655152-1.16666278 1.15384095 0 .63728944.52232892 1.15384096 1.16666278 1.15384096.64433385 0 1.16666277-.51655152 1.16666277-1.15384096 0-.63728943-.52232892-1.15384095-1.16666277-1.15384095zm6.24164589 1.84614553c-.2608752 0-.6904871.09313804-1.0499965.34615228l-2.2749924 1.61537732c-.617258.4343981-.0508665 1.184487.5249982.8076887l1.487495-.9807648s.40752.3287062.612498.9807648l-.0291199 1.7019616-1.5166616 4.0095511c-.1756621.4632903.1549608.754612.4958317.7499967.2235232 0 .4446292-.1480609.5541648-.4038444l1.895827-4.2115195s.3499988 1.8460533 1.7499942 1.8461456c.8412945.0000923 1.5166616 0 1.9833267 0s.4666651-.4615364.4666651-.4615364 0-.4615364-.4666651-.4615364c-.3499988 0-1.5166616-.0000923-1.8666605 0 0 0-.4666651 0-.4666651-.9230728 0-.6495663-.7282029-2.306205-.9333302-2.7692183v-.4615364l2.3333256 1.2692251c.6344779.4184289 1.198648-.322337.5833314-.7787965l-2.4499919-1.41350132c-.4824944-.26806033-1.0100779-.46153638-1.6333279-.46153638zm-6.64997787.92307276c-.34999883 0-.51553428.16375311-.69999766.34615234l-1.48749504 1.4711933c-.19151937.1894146-.26249913.3588907-.26249913.6057204 0 .3461523.52045293.5236592.81666394.2307682l1.28332906-1.2692251c.29381235 0 .69999767.0359999.69999767.4615364v1.9615296l-1.0499965 2.7692183c-.2908257.7669812.80098399 1.0029186 1.0499965.3461523l1.0499965-2.7692183s.34999883.4615364 1.0499965.4615364h2.04165983c.6999977 0 .6999977-.9230728 0-.9230728h-1.8083273s-.46666509 0-.46666509-.4615364v-.6923045c0-1.3846092-.46666511-2.53845014-1.16666278-2.53845014z" fill="#fff"/></g></svg>