<svg height="24" viewBox="0 0 24 24" width="24"><g fill="none" fill-rule="evenodd"><circle cx="12" cy="12" fill="#fff" opacity=".6" r="12"/><circle cx="12" cy="12" fill="#8c5f93" r="11"/><path d="m14.625 9.34287729c-.3047332-.72229028-2.7578148-2.22055342-2.7578148-2.22055342-.409861-.26477745-.6473532-.08474215-.5303721.39560597l.5198692 2.13468762c-2.02874721.65128474-3.6849593 1.27716004-4.51970675 2.16320074l-2.33697555-1.5747094v4.4911578l2.33697555-1.5747094c.58420497.620103 1.5707647.6545003 2.80578985 1.3817349-.41701841.150564-.63707251.5954629-.49090998 1.0455928l.32128916.9894581c.15290302.4708881.55777642.5642387.89894372.2140133l1.3308071-1.3661404c.4976957.1318476 1.0154792.2082823 1.5471046.2082823 3.8659933 0 5.25-3.1438105 5.25-3.1438105s-.9219773-2.5479144-4.375-3.07620753zm.875 3.59292621c.4832491 0 .875-.402152.875-.8982316 0-.4960795-.3917509-.8982315-.875-.8982315s-.875.402152-.875.8982315c0 .4960796.3917509.8982316.875.8982316z" fill="#fff"/></g></svg>