<svg version="1.1" viewBox="0 0 24 24" xmlns="http://www.w3.org/2000/svg">
 <title>seafood-shop-m</title>
 <g fill="none" fill-rule="evenodd">
  <g id="seafood-shop-m" fill-rule="nonzero">
   <circle id="Oval" cx="12" cy="12" r="12" fill="#fff" opacity=".6"/>
   <circle id="Oval" cx="12" cy="12" r="11" fill="#8C5F93"/>
   <path id="Shape" d="m12.95 8c-2.1868 0-4.0964 1.3312-5.1593 2.4702l-2.1226-1.6054c-0.29483-0.22312-0.735 0.014583-0.65965 0.35632l0.58771 2.6678-0.58795 2.668c-0.075347 0.34174 0.36483 0.5792 0.65965 0.35632l2.1226-1.6054c1.0629 1.1387 2.9728 2.4699 5.1596 2.4699 3.341 0 6.0496-3.1111 6.0496-3.8889s-2.7086-3.8889-6.0496-3.8889zm2.125 4.4722c-0.32205 0-0.58333-0.26128-0.58333-0.58333 0-0.32229 0.26128-0.58333 0.58333-0.58333 0.32229 0 0.58333 0.26104 0.58333 0.58333 0 0.32205-0.26128 0.58333-0.58333 0.58333z" fill="#fff"/>
  </g>
 </g>
</svg>
