<?xml version="1.0" encoding="UTF-8"?>
<svg width="24px" height="24px" viewBox="0 0 24 24" version="1.1" xmlns="http://www.w3.org/2000/svg" xmlns:xlink="http://www.w3.org/1999/xlink">
    <title>seafood-shop-m</title>
    <g id="Page-1" stroke="none" stroke-width="1" fill="none" fill-rule="evenodd">
        <g id="seafood-shop-m" fill-rule="nonzero">
            <circle id="Oval" fill="#FFFFFF" opacity="0.6" cx="12" cy="12" r="12"></circle>
            <circle id="Oval" fill="#8C5F93" cx="12" cy="12" r="11"></circle>
            <path d="M12.9503604,8 C10.7635943,8 8.85391094,9.33121238 7.79103131,10.4701682 L5.66843175,8.86478979 C5.373606,8.64166527 4.93343335,8.87937309 5.00878041,9.22110846 L5.59648746,11.8888804 L5.00853735,14.5568955 C4.9331903,14.8986308 5.37336295,15.1360956 5.6681887,14.9132141 L7.79078825,13.3078357 C8.85366789,14.4465485 10.7635943,15.7777609 12.9503604,15.7777609 C16.2913948,15.7777609 19,12.6666565 19,11.8888804 C19,11.1111043 16.2913948,8 12.9503604,8 Z M15.0753905,12.4722125 C14.7533426,12.4722125 14.4920584,12.2109283 14.4920584,11.8888804 C14.4920584,11.5665895 14.7533426,11.3055484 15.0753905,11.3055484 C15.3976814,11.3055484 15.6587225,11.5665895 15.6587225,11.8888804 C15.6587225,12.2109283 15.3974384,12.4722125 15.0753905,12.4722125 Z" id="Shape" fill="#FFFFFF"></path>
        </g>
    </g>
</svg>