<svg version="1.1" viewBox="0 0 24 24" xml:space="preserve" xmlns="http://www.w3.org/2000/svg">
    <title>second_hand-shop-m</title>
    <g id="second_hand-shop-m">
        <circle id="Oval" cx="12" cy="12" r="12" fill="#ffffff" opacity=".6"/>
        <circle cx="12" cy="12" r="11" fill="#8c5f93"/>
        <path d="m12 5c-1.839998 0-3.3339844 1.4939862-3.3339844 3.3339844h-1.3320312c-.7333326 0-1.328125.5986986-1.328125 1.3320312l-.0058594 8.0000004c0 .733332.6006518 1.333984 1.3339844 1.333984h9.3320316c.733332 0 1.333984-.600652 1.333984-1.333984v-8.0000004c0-.7333326-.600652-1.3320312-1.333984-1.3320312h-1.332032c0-1.8399982-1.493986-3.3339844-3.333984-3.3339844zm0 1.3339844c1.106666 0 2 .8933345 2 2h-4c0-1.1066655.893334-2 2-2zm-.484375 3.3886718a.18577062.18577062 0 01.207031.1777344l.033203.9531254a.18577062.18577062 0 01-.158203.189453c-.535439.080958-1.050497.326793-1.46289.742187-.9613436.968299-1.0084224 2.49241-.1699222 3.53711l.9082032-.914063a.18577062.18577062 0 01.316406.130859l.005859 2.673829a.18577062.18577062 0 01-.195312.185547l-2.5253906-.136719a.18577062.18577062 0 01-.1230469-.316407l.6835937-.691406c-1.3460354-1.562312-1.2980939-3.920618.171875-5.40039.6464946-.651302 1.4640458-1.0283588 2.3085938-1.1308598zm1.488281.2109376 2.525391.1386722a.18577062.18577062 0 01.121094.316406l-.683594.689453c1.347186 1.561439 1.301894 3.921274-.167969 5.402344a.18577062.18577062 0 00-.001953 0c-.647126.650972-1.46625 1.026439-2.310547 1.128906a.18577062.18577062 0 01-.207031-.177734l-.03125-.951172a.18577062.18577062 0 01.158203-.189453c.535048-.080899 1.048897-.328669 1.460938-.744141a.18577062.18577062 0 00.001953 0c.961335-.967471 1.008557-2.489742.169921-3.535156l-.908203.914062a.18577062.18577062 0 01-.316406-.130859l-.005859-2.675781a.18577062.18577062 0 01.195312-.1855472z" fill="#ffffff"/>
    </g>
</svg>
