<svg width="28" height="28" viewBox="0 0 28 28">
  <g fill="none" fill-rule="evenodd">
    <circle cx="14" cy="14" r="14" fill="#FFF" opacity=".6"/>
    <circle cx="14" cy="14" r="13" fill="#7F5933"/>
    <path fill="#FFF" d="M11.6108597,9.8 L11.5384615,11.6666667 L16.4615385,11.6666667 L16.3891403,9.8 L11.6108597,9.8 Z M9.72850679,9.8 L7.88235294,9.8 L7.88235294,9.01167745 C6.5747899,8.5020663 6,7.93333333 6,7.93333333 L6,7 C6,7 10.7196691,7.93333333 12.6089154,7.93333333 L15.4184283,7.93333333 C17.29856,7.93333333 22,7 22,7 L22,7.93333333 C22,7.93333333 21.4305701,8.51207685 20.1176471,9.02505959 L20.1176471,9.8 L18.2714932,9.8 L18.3438914,11.6666667 L20.1176471,11.6666667 L20.1176471,12.6 L18.3800905,12.6 L18.4524887,14.4666667 L19.1764706,14.4666667 L19.1764706,15.4 L18.4886878,15.4 L18.7058824,21 L16.8235294,21 L16.4977376,12.6 L11.5022624,12.6 L11.1764706,21 L9.29411765,21 L9.51131222,15.4 L8.82352941,15.4 L8.82352941,14.4666667 L9.54751131,14.4666667 L9.6199095,12.6 L7.88235294,12.6 L7.88235294,11.6666667 L9.6561086,11.6666667 L9.72850679,9.8 Z M13.5294118,9.8 L13.5294118,11.6666667 L14.4705882,11.6666667 L14.4705882,9.8 L13.5294118,9.8 Z"/>
  </g>
</svg>
