<svg height="24" viewBox="0 0 24 24" width="24"><g fill="none" fill-rule="evenodd"><circle cx="12" cy="12" fill="#fff" opacity=".6" r="12"/><circle cx="12" cy="12" fill="#7f5933" r="11"/><path d="m16.8951627 7.38461538h.1817604v.92307693h-1.8251748l.062937 1.38461538h2.6853147v.92307691h-2.6433566l.3356643 7.3846154h-1.3846154v-7.3846154h-4.61538461v7.3846154h-1.38461538l.33566433-7.3846154h-2.64335664v-.92307691h2.68531469l.06293706-1.38461538h-1.82517483v-.92307693h.21488836c-.88208243-.23076923-1.13796528-.46153846-1.13796528-.46153846v-.92307692s1.85764724.46153846 6.0261982.46153846c4.1685509 0 5.9738018-.46153846 5.9738018-.46153846v.92307692s-.2393188.23076923-1.1048373.46153846zm-7.20285501.92307693v1.38461538h1.84615381v-1.38461538zm4.61538461 0h-1.8461538v1.38461538h1.8461538z" fill="#fff"/></g></svg>