<?xml version="1.0" encoding="UTF-8" standalone="no"?>
<svg width="17px" height="17px" viewBox="0 0 17 17" version="1.1" xmlns="http://www.w3.org/2000/svg" xmlns:xlink="http://www.w3.org/1999/xlink">
    <!-- Generator: Sketch 3.8.3 (29802) - http://www.bohemiancoding.com/sketch -->
    <title>shinto-s</title>
    <desc>Created with Sketch.</desc>
    <defs></defs>
    <g id="POI-Clear" stroke="none" stroke-width="1" fill="none" fill-rule="evenodd">
        <g id="shinto-s">
            <circle id="Oval-1-Copy-43" fill-opacity="0.6" fill="#FFFFFF" cx="8.5" cy="8.5" r="8.5"></circle>
            <circle id="Oval-1-Copy-42" fill="#8C4D16" cx="8.5" cy="8.5" r="7.5"></circle>
            <path d="M8,5.5 L7,5.5 L7,7 L10,7 L10,5.5 L9,5.5 L9,7 L8,7 L8,5.5 Z M7,8 L7,13 L6,13 L6,8 L5,8 L5,7 L6,7 L6,5.5 L5,5.5 L5,5 L12,5 L12,5.5 L11,5.5 L11,7 L12,7 L12,8 L11,8 L11,13 L10,13 L10,8 L7,8 Z M4,4 C4,4 6.97680664,4.5 8.49023438,4.5 C10.0036621,4.5 13,4 13,4 L13,5 L4,5 L4,4 Z" id="Combined-Shape" fill="#FFFFFF"></path>
        </g>
    </g>
</svg>