<svg width="24" height="24" viewBox="0 0 24 24">
  <g fill="none" fill-rule="evenodd">
    <rect width="24" height="24" fill="#FFF" opacity=".6" rx="2.5"/>
    <rect width="22" height="22" x="1" y="1" fill="#2F6499" rx="2"/>
    <path fill="#FFF" d="M11,5 C10.5,5 10,5.5 10,6 L8.82354,6 C8.3673,6 7.9706,6.5438 7.9706,7 L8,10.5 L6,11.5 L8,15 L8,16.5 L10.5,17.5 L12.5,16.5 L14.5,17.5 L17,16.5 L17,15 L19,11.5 L17,10.5 L17,7 C17,6.5438 16.63271,6 16.17647,6 L15,6 C15,5.5 14.5,5 14,5 L11,5 Z M9,7 L16,7 L16,10.0441 L12.5,8 L9,10.0441 L9,7 Z M8,18 L6,19 L6,20.5 L8,19.5 L10.5,20.5 L12.5,19.5 L14.5,20.5 L17,19.6466 L19,20.5 L19,19 L17,18 L14.5,19 L12.5,18 L10.5,19 L8,18 Z"/>
  </g>
</svg>
