<?xml version="1.0" encoding="UTF-8" standalone="no"?>
<svg width="17px" height="17px" viewBox="0 0 17 17" version="1.1" xmlns="http://www.w3.org/2000/svg" xmlns:xlink="http://www.w3.org/1999/xlink">
    <!-- Generator: Sketch 3.8.3 (29802) - http://www.bohemiancoding.com/sketch -->
    <title>ship-s</title>
    <desc>Created with Sketch.</desc>
    <defs>
        <rect id="path-1" x="0" y="0" width="15" height="15" rx="1"></rect>
        <mask id="mask-2" maskContentUnits="userSpaceOnUse" maskUnits="objectBoundingBox" x="-1" y="-1" width="17" height="17">
            <rect x="-1" y="-1" width="17" height="17" fill="white"></rect>
            <use xlink:href="#path-1" fill="black"></use>
        </mask>
    </defs>
    <g id="POI-Clear" stroke="none" stroke-width="1" fill="none" fill-rule="evenodd">
        <g id="ship-s" transform="translate(1.000000, 1.000000)">
            <g id="Rectangle-211">
                <use fill="#3C3E38" fill-rule="evenodd" xlink:href="#path-1"></use>
                <use fill="#0D4D7F" fill-rule="evenodd" xlink:href="#path-1"></use>
                <use stroke-opacity="0.8" stroke="#FFFFFF" mask="url(#mask-2)" stroke-width="2" xlink:href="#path-1"></use>
            </g>
            <path d="M4.5,2.5 C4.223,2.5 4,2.723 4,3 L4,6.5 L3,7 L4,9 L4,10 L6,10.5 L7.5,10 L9,10.5 L11,10 L11,9 L12,7 L11,6.5313 L11,3 C11,2.723 10.777,2.5 10.5,2.5 L9.5,2.5 L5.5,2.5 L4.5,2.5 Z M5,3.5 L10,3.5 L10,6.0625 L7.5,4.5 L5,6 L5,3.5 Z M4.5,10.9995 L3,11.4683 L3,12.4995 L3.15625,12.4375 L4.5,12 L6,12.5 L7.5,12 L9,12.5 L10.5,12 L12,12.5 L12,11.4688 L10.5,11 L9,11.4688 L7.5,11 L6,11.4688 L4.5,10.9995 Z" id="path30937-copy" fill="#FFFFFF"></path>
        </g>
    </g>
</svg>