<?xml version="1.0" encoding="UTF-8" standalone="no"?>
<svg width="17px" height="17px" viewBox="0 0 17 17" version="1.1" xmlns="http://www.w3.org/2000/svg" xmlns:xlink="http://www.w3.org/1999/xlink">
    <!-- Generator: Sketch 3.8.3 (29802) - http://www.bohemiancoding.com/sketch -->
    <title>shoes-s</title>
    <desc>Created with Sketch.</desc>
    <defs>
        <circle id="path-1" cx="8.5" cy="8.5" r="7.5"></circle>
    </defs>
    <g id="POI-Clear" stroke="none" stroke-width="1" fill="none" fill-rule="evenodd">
        <g id="shoes-s">
            <path d="M8.5,17 C3.812,17 0,13.188 0,8.5 C0,3.812 3.812,0 8.5,0 C13.188,0 17,3.812 17,8.5 C17,13.188 13.188,17 8.5,17 L8.5,17 Z" id="Shape" fill-opacity="0.6" fill="#FFFFFF"></path>
            <g id="Oval">
                <use fill="#2D7970" xlink:href="#path-1"></use>
                <use fill="#825089" xlink:href="#path-1"></use>
            </g>
            <path d="M4,12.868 L5.986,12.868 L5.986,10.782 L7.13,10.782 L8.173,12.868 L9.216,12.868 L12.779,11.55 C12.779,11.55 12.83,10.572 11.55,10.572 C8.915,10.572 7.861,8.652 7.973,7.847 C8.085,7.042 8.694,4 8.694,4 L4,5.043 L4,12.868 L4,12.868 Z" id="Shape" fill="#FFFFFF"></path>
        </g>
    </g>
</svg>