<?xml version="1.0" encoding="utf-8"?>
<!-- Generator: Adobe Illustrator 21.0.2, SVG Export Plug-In . SVG Version: 6.00 Build 0)  -->
<svg version="1.1" id="Слой_1" xmlns="http://www.w3.org/2000/svg" xmlns:xlink="http://www.w3.org/1999/xlink" x="0px" y="0px"
	 viewBox="0 0 32.4 32.4" enable-background="new 0 0 32.4 32.4" xml:space="preserve">
<title>shop-l</title>
<desc>Created with Sketch.</desc>
<g id="POI-Clear">
	<g id="shop-l">
		<circle id="Oval-1-Copy-39" fill="#FFFFFF" fill-opacity="0.6" cx="16.2" cy="16.2" r="16.2"/>
		<g id="Oval-1-Copy-38">
			<g>
				<circle id="path-1" fill="#2D7970" cx="16.2" cy="16.2" r="15"/>
			</g>
			<g>
				<circle id="path-1_1_" fill="#825089" cx="16.2" cy="16.2" r="15"/>
			</g>
		</g>
		<path id="rect13131-6-copy" fill="#FFFFFF" d="M14.4,4.8c-1.2,0-2.3,1.2-2.4,2.4l-0.4,3.6h-2c-0.6,0-1.2,0.6-1.2,1.2L7.2,24
			c0,0.6,0.6,1.2,1.2,1.2H24c0.6,0,1.2-0.6,1.2-1.2L24,12c0-0.6-0.6-1.2-1.2-1.2h-2l-0.4-3.6C20.3,6,19.2,4.8,18,4.8H14.4z M14.4,6
			H18c0.6,0,1.1,0.6,1.2,1.2l0.4,3.6h-6.8l0.4-3.6C13.3,6.6,13.8,6,14.4,6L14.4,6z"/>
	</g>
</g>
</svg>
