<svg width="16" height="16" viewBox="0 0 16 16">
  <g fill="none" fill-rule="evenodd">
    <circle cx="8" cy="8" r="8" fill="#FFF" opacity=".6"/>
    <circle cx="8" cy="8" r="7" fill="#8C5F93"/>
    <path fill="#FFF" d="M6.81944889,4 C6.37500444,4 5.99664889,4.47585882 5.93056,4.94117647 L5.77777778,6.35294118 L4.88888889,6.35294118 C4.66666667,6.35294118 4.44444444,6.58823529 4.44444444,6.82352941 L4,11.5294118 C4,11.7647059 4.22222222,12 4.44444444,12 L11.5555556,12 C11.7777778,12 12,11.7647059 12,11.5294118 L11.5555556,6.82352941 C11.5555556,6.58823529 11.3333333,6.35294118 11.1111111,6.35294118 L10.2222222,6.35294118 L10.0694489,4.94117647 C10.0188711,4.47369412 9.62500444,4 9.18056,4 L6.81944889,4 Z M6.81944889,4.47058824 L9.18056,4.47058824 C9.40278222,4.47058824 9.59647111,4.67755294 9.62500444,4.94117647 L9.77777778,6.35294118 L6.22222222,6.35294118 L6.37500444,4.94117647 C6.40033778,4.70748235 6.59722667,4.47058824 6.81944889,4.47058824 L6.81944889,4.47058824 Z"/>
  </g>
</svg>
