<?xml version="1.0" encoding="UTF-8"?>
<svg width="16px" height="16px" viewBox="0 0 16 16" version="1.1" xmlns="http://www.w3.org/2000/svg" xmlns:xlink="http://www.w3.org/1999/xlink">
    <title>shop-s</title>
    <g id="Page-1" stroke="none" stroke-width="1" fill="none" fill-rule="evenodd">
        <g id="shop-s" fill-rule="nonzero">
            <circle id="Oval" fill="#FFFFFF" opacity="0.6" cx="8" cy="8" r="8"></circle>
            <circle id="Oval" fill="#8C5F93" cx="8" cy="8" r="7.33333333"></circle>
            <path d="M11.1111111,5.55555556 L10.2222222,5.55555556 C10.2222222,4.32888889 9.22666667,3.33333333 8,3.33333333 C6.77333333,3.33333333 5.77777778,4.32888889 5.77777778,5.55555556 L4.88888889,5.55555556 C4.4,5.55555556 4.00444444,5.95555556 4.00444444,6.44444444 L4,11.7777778 C4,12.2666667 4.4,12.6666667 4.88888889,12.6666667 L11.1111111,12.6666667 C11.6,12.6666667 12,12.2666667 12,11.7777778 L12,6.44444444 C12,5.95555556 11.6,5.55555556 11.1111111,5.55555556 Z M8,4.22222222 C8.73777778,4.22222222 9.33333333,4.81777778 9.33333333,5.55555556 L6.66666667,5.55555556 C6.66666667,4.81777778 7.26222222,4.22222222 8,4.22222222 Z M8,8.66666667 C6.77333333,8.66666667 5.77777778,7.67111111 5.77777778,6.44444444 L6.66666667,6.44444444 C6.66666667,7.18222222 7.26222222,7.77777778 8,7.77777778 C8.73777778,7.77777778 9.33333333,7.18222222 9.33333333,6.44444444 L10.2222222,6.44444444 C10.2222222,7.67111111 9.22666667,8.66666667 8,8.66666667 Z" id="Shape" fill="#FFFFFF"></path>
        </g>
    </g>
</svg>