<?xml version="1.0" encoding="UTF-8"?>
<svg width="24px" height="24px" viewBox="0 0 24 24" version="1.1" xmlns="http://www.w3.org/2000/svg" xmlns:xlink="http://www.w3.org/1999/xlink">
    <title>shop-m</title>
    <g id="Page-1" stroke="none" stroke-width="1" fill="none" fill-rule="evenodd">
        <g id="shop-m" fill-rule="nonzero">
            <circle id="Oval" fill="#FFFFFF" opacity="0.6" cx="12" cy="12" r="12"></circle>
            <circle id="Oval" fill="#8C5F93" cx="12" cy="12" r="11"></circle>
            <path d="M16.6666667,8.33333333 L15.3333333,8.33333333 C15.3333333,6.49333333 13.84,5 12,5 C10.16,5 8.66666667,6.49333333 8.66666667,8.33333333 L7.33333333,8.33333333 C6.6,8.33333333 6.00666667,8.93333333 6.00666667,9.66666667 L6,17.6666667 C6,18.4 6.6,19 7.33333333,19 L16.6666667,19 C17.4,19 18,18.4 18,17.6666667 L18,9.66666667 C18,8.93333333 17.4,8.33333333 16.6666667,8.33333333 Z M12,6.33333333 C13.1066667,6.33333333 14,7.22666667 14,8.33333333 L10,8.33333333 C10,7.22666667 10.8933333,6.33333333 12,6.33333333 Z M12,13 C10.16,13 8.66666667,11.5066667 8.66666667,9.66666667 L10,9.66666667 C10,10.7733333 10.8933333,11.6666667 12,11.6666667 C13.1066667,11.6666667 14,10.7733333 14,9.66666667 L15.3333333,9.66666667 C15.3333333,11.5066667 13.84,13 12,13 Z" id="Shape" fill="#FFFFFF"></path>
        </g>
    </g>
</svg>