<svg height="24" viewBox="0 0 24 24" width="24"><g fill="none" fill-rule="evenodd"><circle cx="12" cy="12" fill="#fff" opacity=".6" r="12"/><circle cx="12" cy="12" fill="#8c5f93" r="11"/><path d="m10.8597323 5c-.7058861 0-1.49053845.7502-1.62896307 1.5l-.46153846 2.5h-.92307692c-.35293847 0-.92307693.6177-.92307693 1l-.92307692 8.2353c0 .3823.46153846.7647.92307692.7647h10.15384618c.4615384 0 .9230769-.3824.9230769-.7647l-.9230769-8.2353c0-.3823-.5701385-1-.9230769-1h-.923077l-.4615384-2.5c-.1384246-.7498-.9230677-1.5-1.6289539-1.5zm0 .7647h2.2805446c.3529477 0 .8538739.3604.9230769.7353l.4615385 2.5h-5.04978461l.46154769-2.5c.06923082-.3749.57012922-.7353.92307692-.7353z" fill="#fff"/></g></svg>