<svg width="28" height="28" viewBox="0 0 28 28">
  <g fill="none" fill-rule="evenodd">
    <circle cx="14" cy="14" r="14" fill="#FFF" opacity=".6"/>
    <circle cx="14" cy="14" r="13" fill="#8C5F93"/>
    <path fill="#FFF" d="M12.6,6 C11.6666667,6 10.839584,6.94729412 10.7333333,7.88235294 L10.4125,10.7058824 L8.86666667,10.7058824 C8.4,10.7058824 7.93333333,11.1764706 7.93333333,11.6470588 L7,21.0588235 C7,21.5294118 7.46666667,22 7.93333333,22 L20.0666667,22 C20.5333333,22 21,21.5294118 21,21.0588235 L20.0666667,11.6470588 C20.0666667,11.1764706 19.6,10.7058824 19.1333333,10.7058824 L17.5875,10.7058824 L17.2666667,7.88235294 C17.160416,6.94729412 16.3333333,6 15.4,6 L12.6,6 Z M12.6,6.94117647 L15.4,6.94117647 C15.8666667,6.94117647 16.280208,7.41487059 16.3333333,7.88235294 L16.6541667,10.7058824 L11.3458333,10.7058824 L11.6666667,7.88235294 C11.7197733,7.41487059 12.1333333,6.94117647 12.6,6.94117647 L12.6,6.94117647 Z"/>
  </g>
</svg>
