<?xml version="1.0" encoding="UTF-8" standalone="no"?>
<svg width="17px" height="17px" viewBox="0 0 17 17" version="1.1" xmlns="http://www.w3.org/2000/svg" xmlns:xlink="http://www.w3.org/1999/xlink">
    <!-- Generator: Sketch 3.8.3 (29802) - http://www.bohemiancoding.com/sketch -->
    <title>shop-bicycle-s</title>
    <desc>Created with Sketch.</desc>
    <defs>
        <ellipse id="path-1" cx="8.5" cy="8.5" rx="7.5" ry="7.5"></ellipse>
    </defs>
    <g id="POI-Clear" stroke="none" stroke-width="1" fill="none" fill-rule="evenodd">
        <g id="shop-bicycle-s" transform="translate(0.000000, -1.000000)">
            <path d="M8.5,17 C3.812,17 0,13.188 0,8.5 C0,3.812 3.812,0 8.5,0 C13.188,0 17,3.812 17,8.5 C17,13.188 13.188,17 8.5,17 L8.5,17 Z" id="Shape" fill-opacity="0.6" fill="#FFFFFF"></path>
            <g id="Oval">
                <use fill="#2D7970" xlink:href="#path-1"></use>
                <use fill="#825089" xlink:href="#path-1"></use>
            </g>
            <path d="M12,8 L11.5,8 L11,7 L11,6 L10,5 L9,5 L9,6 L10,6 L10,7 L8,7 L8,6 L7,6 L7,7 L6,8 L5,8 L4,10 L5,12 L7,12 L8,10 L9.5,8 L10.5,8 L9,10 L10,12 L12,12 L13,10 L12,8 L12,8 Z M8,9 L7,9 L7,11 L5,11 L5,9 L7,9 L7,8 L8,8 L8,9 L8,9 Z M12,11 L10,11 L10,9 L12,9 L12,11 L12,11 Z" id="Shape" fill="#FFFFFF"></path>
        </g>
    </g>
</svg>