<svg width="28" height="28" viewBox="0 0 28 28">
  <g fill="none" fill-rule="evenodd">
    <circle cx="14" cy="14" r="14" fill="#FFF" opacity=".2"/>
    <path fill="#717065" fill-rule="nonzero" d="M13.4,6 L13.4,7.675 C11.3686137,8.01609544 9.75435152,9.61563136 9.4,11.6 L19,11.6 C18.6456488,9.61563136 17.0313864,8.01609544 15,7.675 L15,6 L13.4,6 Z M8.6,12.4 L8.6,14 L19.8,14 L19.8,12.4 L8.6,12.4 Z M11,15.6 C10.5581722,15.6 10.2,15.958172 10.2,16.4 C10.2,16.841828 10.5581722,17.2 11,17.2 C11.4418278,17.2 11.8,16.841828 11.8,16.4 C11.8,15.958172 11.4418278,15.6 11,15.6 Z M14.2,15.6 C13.758172,15.6 13.4,15.958172 13.4,16.4 C13.4,16.841828 13.758172,17.2 14.2,17.2 C14.641828,17.2 15,16.841828 15,16.4 C15,15.958172 14.641828,15.6 14.2,15.6 Z M17.4,15.6 C16.958172,15.6 16.6,15.958172 16.6,16.4 C16.6,16.841828 16.958172,17.2 17.4,17.2 C17.841828,17.2 18.2,16.841828 18.2,16.4 C18.2,15.958172 17.841828,15.6 17.4,15.6 Z M9.4,18 C8.95817224,18 8.6,18.358172 8.6,18.8 C8.6,19.241828 8.95817224,19.6 9.4,19.6 C9.84182776,19.6 10.2,19.241828 10.2,18.8 C10.2,18.358172 9.84182776,18 9.4,18 Z M12.6,18 C12.1581722,18 11.8,18.358172 11.8,18.8 C11.8,19.241828 12.1581722,19.6 12.6,19.6 C13.041828,19.6 13.4,19.241828 13.4,18.8 C13.4,18.358172 13.041828,18 12.6,18 Z M15.8,18 C15.358172,18 15,18.358172 15,18.8 C15,19.241828 15.358172,19.6 15.8,19.6 C16.241828,19.6 16.6,19.241828 16.6,18.8 C16.6,18.358172 16.241828,18 15.8,18 Z M19,18 C18.558172,18 18.2,18.358172 18.2,18.8 C18.2,19.241828 18.558172,19.6 19,19.6 C19.441828,19.6 19.8,19.241828 19.8,18.8 C19.8,18.358172 19.441828,18 19,18 Z M7.8,20.4 C7.35817224,20.4 7,20.758172 7,21.2 C7,21.641828 7.35817224,22 7.8,22 C8.24182776,22 8.6,21.641828 8.6,21.2 C8.6,20.758172 8.24182776,20.4 7.8,20.4 Z M11,20.4 C10.5581722,20.4 10.2,20.758172 10.2,21.2 C10.2,21.641828 10.5581722,22 11,22 C11.4418278,22 11.8,21.641828 11.8,21.2 C11.8,20.758172 11.4418278,20.4 11,20.4 Z M14.2,20.4 C13.758172,20.4 13.4,20.758172 13.4,21.2 C13.4,21.641828 13.758172,22 14.2,22 C14.641828,22 15,21.641828 15,21.2 C15,20.758172 14.641828,20.4 14.2,20.4 Z M17.4,20.4 C16.958172,20.4 16.6,20.758172 16.6,21.2 C16.6,21.641828 16.958172,22 17.4,22 C17.841828,22 18.2,21.641828 18.2,21.2 C18.2,20.758172 17.841828,20.4 17.4,20.4 Z M20.6,20.4 C20.158172,20.4 19.8,20.758172 19.8,21.2 C19.8,21.641828 20.158172,22 20.6,22 C21.041828,22 21.4,21.641828 21.4,21.2 C21.4,20.758172 21.041828,20.4 20.6,20.4 Z"/>
  </g>
</svg>
