<svg width="24" height="24" viewBox="0 0 24 24">
  <g fill="none" fill-rule="evenodd">
    <circle cx="12" cy="12" r="12" fill="#FFF" opacity=".2"/>
    <path fill="#717065" fill-rule="nonzero" d="M11.6,5 L11.6,6.465625 C9.82253697,6.76408351 8.41005758,8.16367744 8.1,9.9 L16.5,9.9 C16.1899427,8.16367744 14.7774631,6.76408351 13,6.465625 L13,5 L11.6,5 Z M7.4,10.6 L7.4,12 L17.2,12 L17.2,10.6 L7.4,10.6 Z M9.5,13.4 C9.11340071,13.4 8.8,13.7134005 8.8,14.1 C8.8,14.4865995 9.11340071,14.8 9.5,14.8 C9.88659929,14.8 10.2,14.4865995 10.2,14.1 C10.2,13.7134005 9.88659929,13.4 9.5,13.4 Z M12.3,13.4 C11.9134005,13.4 11.6,13.7134005 11.6,14.1 C11.6,14.4865995 11.9134005,14.8 12.3,14.8 C12.6865995,14.8 13,14.4865995 13,14.1 C13,13.7134005 12.6865995,13.4 12.3,13.4 Z M15.1,13.4 C14.7134005,13.4 14.4,13.7134005 14.4,14.1 C14.4,14.4865995 14.7134005,14.8 15.1,14.8 C15.4865995,14.8 15.8,14.4865995 15.8,14.1 C15.8,13.7134005 15.4865995,13.4 15.1,13.4 Z M8.1,15.5 C7.71340071,15.5 7.4,15.8134005 7.4,16.2 C7.4,16.5865995 7.71340071,16.9 8.1,16.9 C8.48659929,16.9 8.8,16.5865995 8.8,16.2 C8.8,15.8134005 8.48659929,15.5 8.1,15.5 Z M10.9,15.5 C10.5134007,15.5 10.2,15.8134005 10.2,16.2 C10.2,16.5865995 10.5134007,16.9 10.9,16.9 C11.2865995,16.9 11.6,16.5865995 11.6,16.2 C11.6,15.8134005 11.2865995,15.5 10.9,15.5 Z M13.7,15.5 C13.3134005,15.5 13,15.8134005 13,16.2 C13,16.5865995 13.3134005,16.9 13.7,16.9 C14.0865995,16.9 14.4,16.5865995 14.4,16.2 C14.4,15.8134005 14.0865995,15.5 13.7,15.5 Z M16.5,15.5 C16.1134005,15.5 15.8,15.8134005 15.8,16.2 C15.8,16.5865995 16.1134005,16.9 16.5,16.9 C16.8865995,16.9 17.2,16.5865995 17.2,16.2 C17.2,15.8134005 16.8865995,15.5 16.5,15.5 Z M6.7,17.6 C6.31340071,17.6 6,17.9134005 6,18.3 C6,18.6865995 6.31340071,19 6.7,19 C7.08659929,19 7.4,18.6865995 7.4,18.3 C7.4,17.9134005 7.08659929,17.6 6.7,17.6 Z M9.5,17.6 C9.11340071,17.6 8.8,17.9134005 8.8,18.3 C8.8,18.6865995 9.11340071,19 9.5,19 C9.88659929,19 10.2,18.6865995 10.2,18.3 C10.2,17.9134005 9.88659929,17.6 9.5,17.6 Z M12.3,17.6 C11.9134005,17.6 11.6,17.9134005 11.6,18.3 C11.6,18.6865995 11.9134005,19 12.3,19 C12.6865995,19 13,18.6865995 13,18.3 C13,17.9134005 12.6865995,17.6 12.3,17.6 Z M15.1,17.6 C14.7134005,17.6 14.4,17.9134005 14.4,18.3 C14.4,18.6865995 14.7134005,19 15.1,19 C15.4865995,19 15.8,18.6865995 15.8,18.3 C15.8,17.9134005 15.4865995,17.6 15.1,17.6 Z M17.9,17.6 C17.5134005,17.6 17.2,17.9134005 17.2,18.3 C17.2,18.6865995 17.5134005,19 17.9,19 C18.2865995,19 18.6,18.6865995 18.6,18.3 C18.6,17.9134005 18.2865995,17.6 17.9,17.6 Z"/>
  </g>
</svg>
