<svg width="16" height="16" viewBox="0 0 16 16">
  <g fill="none" fill-rule="evenodd">
    <circle cx="8" cy="8" r="8" fill="#FFF" opacity=".2"/>
    <path fill="#717065" fill-rule="nonzero" d="M7.2,4 L7.2,4.8375 C6.18430684,5.00804772 5.37717576,5.80781568 5.2,6.8 L10,6.8 C9.8228244,5.80781568 9.0156932,5.00804772 8,4.8375 L8,4 L7.2,4 Z M4.8,7.2 L4.8,8 L10.4,8 L10.4,7.2 L4.8,7.2 Z M6,8.8 C5.77908612,8.8 5.6,8.979086 5.6,9.2 C5.6,9.420914 5.77908612,9.6 6,9.6 C6.22091388,9.6 6.4,9.420914 6.4,9.2 C6.4,8.979086 6.22091388,8.8 6,8.8 Z M7.6,8.8 C7.379086,8.8 7.2,8.979086 7.2,9.2 C7.2,9.420914 7.379086,9.6 7.6,9.6 C7.820914,9.6 8,9.420914 8,9.2 C8,8.979086 7.820914,8.8 7.6,8.8 Z M9.2,8.8 C8.979086,8.8 8.8,8.979086 8.8,9.2 C8.8,9.420914 8.979086,9.6 9.2,9.6 C9.420914,9.6 9.6,9.420914 9.6,9.2 C9.6,8.979086 9.420914,8.8 9.2,8.8 Z M5.2,10 C4.97908612,10 4.8,10.179086 4.8,10.4 C4.8,10.620914 4.97908612,10.8 5.2,10.8 C5.42091388,10.8 5.6,10.620914 5.6,10.4 C5.6,10.179086 5.42091388,10 5.2,10 Z M6.8,10 C6.57908612,10 6.4,10.179086 6.4,10.4 C6.4,10.620914 6.57908612,10.8 6.8,10.8 C7.020914,10.8 7.2,10.620914 7.2,10.4 C7.2,10.179086 7.020914,10 6.8,10 Z M8.4,10 C8.179086,10 8,10.179086 8,10.4 C8,10.620914 8.179086,10.8 8.4,10.8 C8.620914,10.8 8.8,10.620914 8.8,10.4 C8.8,10.179086 8.620914,10 8.4,10 Z M10,10 C9.779086,10 9.6,10.179086 9.6,10.4 C9.6,10.620914 9.779086,10.8 10,10.8 C10.220914,10.8 10.4,10.620914 10.4,10.4 C10.4,10.179086 10.220914,10 10,10 Z M4.4,11.2 C4.17908612,11.2 4,11.379086 4,11.6 C4,11.820914 4.17908612,12 4.4,12 C4.62091388,12 4.8,11.820914 4.8,11.6 C4.8,11.379086 4.62091388,11.2 4.4,11.2 Z M6,11.2 C5.77908612,11.2 5.6,11.379086 5.6,11.6 C5.6,11.820914 5.77908612,12 6,12 C6.22091388,12 6.4,11.820914 6.4,11.6 C6.4,11.379086 6.22091388,11.2 6,11.2 Z M7.6,11.2 C7.379086,11.2 7.2,11.379086 7.2,11.6 C7.2,11.820914 7.379086,12 7.6,12 C7.820914,12 8,11.820914 8,11.6 C8,11.379086 7.820914,11.2 7.6,11.2 Z M9.2,11.2 C8.979086,11.2 8.8,11.379086 8.8,11.6 C8.8,11.820914 8.979086,12 9.2,12 C9.420914,12 9.6,11.820914 9.6,11.6 C9.6,11.379086 9.420914,11.2 9.2,11.2 Z M10.8,11.2 C10.579086,11.2 10.4,11.379086 10.4,11.6 C10.4,11.820914 10.579086,12 10.8,12 C11.020914,12 11.2,11.820914 11.2,11.6 C11.2,11.379086 11.020914,11.2 10.8,11.2 Z"/>
  </g>
</svg>
