<svg enable-background="new 0 0 24 24" fill="#000000" version="1.1" viewBox="0 0 24 24" xmlns="http://www.w3.org/2000/svg">
 <path d="m13.588 4.5652c0-0.86087 0.95294-1.5652 2.1176-1.5652s2.1176 0.70435 2.1176 1.5652-0.95294 1.5652-2.1176 1.5652-2.1176-0.70435-2.1176-1.5652zm-6.0882 15.261c-0.43412 0-0.79412 0.26609-0.79412 0.58696 0 0.32087 0.36 0.58696 0.79412 0.58696s0.79412-0.26609 0.79412-0.58696c0-0.32087-0.36-0.58696-0.79412-0.58696zm9 0c-0.43412 0-0.79412 0.26609-0.79412 0.58696 0 0.32087 0.36 0.58696 0.79412 0.58696s0.79412-0.26609 0.79412-0.58696c0-0.32087-0.36-0.58696-0.79412-0.58696zm3.6953-2.7391c-0.25412 0-0.47647 0.08609-0.62471 0.23478-0.58235 0.5713-1.5035 0.93913-2.5412 0.93913h-0.26471v-4.6957l-4.5741-2.0896 1.9059-2.2617c1.2176 1.44 3.3882 2.3948 5.8447 2.3948v-1.5652c-1.9588 0-3.6424-0.87652-4.3729-2.1287l-0.55059-0.94696c-0.20118-0.33652-0.78353-0.83739-1.7471-0.83739h-6.0353l-2.6471 3.1304 1.8 0.82957 2.0118-2.3948h2.4882l-2.5412 3.0052c-0.32824 0.3913-0.41294 0.8687-0.22235 1.307l1.4188 3.2478-3.3035 2.9426c-0.74118-0.12522-1.3765-0.44609-1.8106-0.87652-0.14824-0.1487-0.38118-0.23478-0.63529-0.23478-0.46588 0-0.79412 0.28174-0.79412 0.58696 0 0.11739 0.052941 0.24261 0.15882 0.35217 0.86824 0.86087 2.2553 1.4087 3.8118 1.4087h10.059c1.5565 0 2.9435-0.54783 3.8118-1.4087 0.10588-0.10956 0.15882-0.23478 0.15882-0.35217 0-0.30522-0.33882-0.58696-0.80471-0.58696zm-5.5482 1.1739h-5.7176l3.0706-2.7391-1.0588-2.5826 3.7059 1.7217z" fill="#717065" stroke-width=".9103"/>
</svg>
