<?xml version="1.0" encoding="UTF-8"?>
<svg width="24px" height="24px" viewBox="0 0 24 24" version="1.1" xmlns="http://www.w3.org/2000/svg" xmlns:xlink="http://www.w3.org/1999/xlink">
    <title>skiing-m</title>
    <g id="Page-1" stroke="none" stroke-width="1" fill="none" fill-rule="evenodd">
        <g id="skiing-m" fill-rule="nonzero">
            <circle id="Oval" fill="#FFFFFF" opacity="0.6" cx="12" cy="12" r="12"></circle>
            <circle id="Oval" fill="#717065" cx="12" cy="12" r="11"></circle>
            <path d="M16.2682927,6.36585366 C16.2682927,7.11707317 15.6536585,7.73170732 14.902439,7.73170732 C14.1512195,7.73170732 13.5365854,7.11707317 13.5365854,6.36585366 C13.5365854,5.61463415 14.1512195,5 14.902439,5 C15.6536585,5 16.2682927,5.61463415 16.2682927,6.36585366 Z M14.4107317,17.5658537 L14.9297561,17.7502439 C15.3531707,17.8936585 15.7970732,17.9756098 16.2682927,17.9756098 C16.8419512,17.9756098 17.395122,17.8526829 17.8936585,17.6341463 L18.6585366,18.4058537 C17.9414634,18.7814634 17.1287805,19 16.2682927,19 C15.6809756,19 15.1209756,18.9043902 14.595122,18.72 L5,15.2234146 L5.34146341,14.2604878 L10.0536585,15.9746341 L11.2282927,12.942439 L8.7902439,10.395122 C8.18243902,9.75317073 8.33268293,8.70829268 9.09756098,8.26439024 L11.4741463,6.89170732 C12.2253659,6.45463415 13.195122,6.82341463 13.4614634,7.6497561 L13.6868293,8.38731707 C13.9873171,9.35707317 14.697561,10.142439 15.6195122,10.5317073 L15.9746341,9.43902439 L16.9512195,9.75317073 L16.1863415,12.1092683 C14.5131707,11.8360976 13.1268293,10.6956098 12.5121951,9.15902439 L10.7843902,10.1492683 L12.8536585,12.5121951 L11.337561,16.4458537 L13.4478049,17.2107317 L14.8819512,12.8126829 L14.8819512,12.8126829 L14.8819512,12.8126829 C15.1960976,12.9356098 15.5239024,13.0243902 15.8653659,13.0926829 L14.4107317,17.5658537 Z" id="Shape" fill="#FFFFFF"></path>
        </g>
    </g>
</svg>