<?xml version="1.0" encoding="UTF-8" standalone="no"?>
<svg width="17px" height="17px" viewBox="0 0 17 17" version="1.1" xmlns="http://www.w3.org/2000/svg" xmlns:xlink="http://www.w3.org/1999/xlink">
    <!-- Generator: Sketch 3.8.3 (29802) - http://www.bohemiancoding.com/sketch -->
    <title>skiing-s</title>
    <desc>Created with Sketch.</desc>
    <defs>
        <path d="M8,5 C7.5,5 7,6 7,6.5 L7,8.5 L5.375,9.2813 L4,8.5 L4,9 L11,13 L11,12.5 L6.3125,9.8125 L8,9.1875 L8,7 L8.5,7 L9,7 L10,8.5 L10,10 L11,11 L12,11 L12,10 L11,10 L11,8.5 L10.5,6 L9,5 L8,5 L8,5 Z M12.5,6.5 C11.94773,6.5 11.5,6.9477 11.5,7.5 C11.5,8.0523 11.94773,8.5 12.5,8.5 C12.68732,8.5 12.85013,8.433 13,8.3438 L13,6.6563 C12.85013,6.5663 12.68732,6.5 12.5,6.5 L12.5,6.5 Z" id="path-1"></path>
    </defs>
    <g id="POI-Clear" stroke="none" stroke-width="1" fill="none" fill-rule="evenodd">
        <g id="skiing-s">
            <circle id="Oval-1-Copy-43" fill-opacity="0.6" fill="#FFFFFF" cx="8.5" cy="8.5" r="8.5"></circle>
            <circle id="Oval-1-Copy-42" fill="#717065" cx="8.5" cy="8.5" r="7.5"></circle>
            <g id="rect10364-5-copy" fill="#FFFFFF">
                <use xlink:href="#path-1"></use>
                <use xlink:href="#path-1"></use>
            </g>
        </g>
    </g>
</svg>