<?xml version="1.0" encoding="UTF-8"?>
<svg width="24px" height="24px" viewBox="0 0 24 24" version="1.1" xmlns="http://www.w3.org/2000/svg" xmlns:xlink="http://www.w3.org/1999/xlink">
    <title>soccer-m</title>
    <g id="Page-1" stroke="none" stroke-width="1" fill="none" fill-rule="evenodd">
        <g id="soccer-m" fill-rule="nonzero">
            <circle id="Oval" fill="#FFFFFF" opacity="0.6" cx="12" cy="12" r="12"></circle>
            <circle id="Oval" fill="#717065" cx="12" cy="12" r="11"></circle>
            <path d="M12,5 C8.136,5 5,8.136 5,12 C5,15.864 8.136,19 12,19 C15.864,19 19,15.864 19,12 C19,8.136 15.864,5 12,5 Z M12.7,7.31 L13.645,6.645 C14.919,7.037 16.004,7.877 16.711,8.983 L16.438,9.921 L15.493,10.243 L12.7,8.29 L12.7,7.31 Z M10.355,6.645 L11.3,7.31 L11.3,8.29 L8.507,10.243 L7.562,9.921 L7.289,8.983 C7.996,7.884 9.081,7.044 10.355,6.645 Z M8.556,15.577 L7.758,15.647 C6.911,14.667 6.4,13.393 6.4,12 C6.4,11.916 6.407,11.839 6.414,11.755 L7.114,11.244 L8.08,11.58 L9.102,14.618 L8.556,15.577 Z M13.75,17.313 C13.197,17.495 12.609,17.6 12,17.6 C11.391,17.6 10.803,17.495 10.25,17.313 L9.767,16.27 L10.215,15.5 L13.792,15.5 L14.24,16.277 L13.75,17.313 Z M13.589,14.1 L10.411,14.1 L9.466,11.286 L12,9.508 L14.541,11.286 L13.589,14.1 Z M16.242,15.647 L15.444,15.577 L14.891,14.618 L15.913,11.58 L16.886,11.251 L17.586,11.762 C17.593,11.839 17.6,11.916 17.6,12 C17.6,13.393 17.089,14.667 16.242,15.647 Z" id="Shape" fill="#FFFFFF"></path>
        </g>
    </g>
</svg>