<svg width="16" height="16" viewBox="0 0 16 16">
  <g fill="none" fill-rule="evenodd">
    <circle cx="8" cy="8" r="8" fill="#FFF" opacity=".6"/>
    <circle cx="8" cy="8" r="7" fill="#717065"/>
    <path fill="#FFF" fill-rule="nonzero" d="M8,4 C5.8,4 4,5.8 4,8 C4,10.2 5.8,12 8,12 C10.2,12 12,10.2 12,8 C12,5.8 10.2,4 8,4 Z M6.825,5.025 L8,5.525 L9.175,5.025 C9.665256,5.22085268 10.1004436,5.52853684 10.4375,5.925 C10.439562,5.92742556 10.4354448,5.93506828 10.4375,5.9375 L10.3625,7.2375 L11.1875,8.1875 C11.1552096,8.7342156 10.987572,9.2473416 10.7125,9.6875 L9.4375,10 L8.8,11.0875 C8.5427072,11.1547588 8.2776112,11.2 8,11.2 C7.7223888,11.2 7.4572928,11.1547588 7.2,11.0875 L6.5625,10 L5.2875,9.6875 C5.01242788,9.2473416 4.8447904,8.7342156 4.8125,8.1875 L5.6375,7.2375 L5.5625,5.925 C5.89955648,5.52853684 6.3347442,5.22085268 6.825,5.025 Z M8,6.475 L6.4,7.6375 L7.0375,9.525 L8.9625,9.525 L9.6,7.6375 L8,6.475 Z"/>
  </g>
</svg>
