<svg width="28" height="28" viewBox="0 0 28 28">
  <g fill="none" fill-rule="evenodd">
    <circle cx="14" cy="14" r="14" fill="#FFF" opacity=".6"/>
    <circle cx="14" cy="14" r="13" fill="#717065"/>
    <path fill="#FFF" fill-rule="nonzero" d="M8,0 C3.6,0 0,3.6 0,8 C0,12.4 3.6,16 8,16 C12.4,16 16,12.4 16,8 C16,3.6 12.4,0 8,0 Z M5.65,2.05 L8,3.05 L10.35,2.05 C11.330512,2.44170536 12.2008872,3.05707368 12.875,3.85 C12.879124,3.85485112 12.8708896,3.87013656 12.875,3.875 L12.725,6.475 L14.375,8.375 C14.3104192,9.4684312 13.975144,10.4946832 13.425,11.375 L10.875,12 L9.6,14.175 C9.0854144,14.3095176 8.5552224,14.4 8,14.4 C7.4447776,14.4 6.9145856,14.3095176 6.4,14.175 L5.125,12 L2.575,11.375 C2.02485576,10.4946832 1.6895808,9.4684312 1.625,8.375 L3.275,6.475 L3.125,3.85 C3.79911296,3.05707368 4.6694884,2.44170536 5.65,2.05 Z M8,4.95 L4.8,7.275 L6.075,11.05 L9.925,11.05 L11.2,7.275 L8,4.95 Z" transform="translate(6 6)"/>
  </g>
</svg>
