<svg version="1.1" viewBox="0 0 24 24" xmlns="http://www.w3.org/2000/svg">
 <title>soccer-m</title>
 <g fill="none" fill-rule="evenodd">
  <path id="Shape" d="m12 3c-4.968 0-9 4.032-9 9s4.032 9 9 9 9-4.032 9-9-4.032-9-9-9zm0.9 2.97 1.215-0.855c1.638 0.504 3.033 1.584 3.942 3.006l-0.351 1.206-1.215 0.414-3.591-2.511zm-3.015-0.855 1.215 0.855v1.26l-3.591 2.511-1.215-0.414-0.351-1.206c0.909-1.413 2.304-2.493 3.942-3.006zm-2.313 11.484-1.026 0.09c-1.089-1.26-1.746-2.898-1.746-4.689 0-0.108 9e-3 -0.207 0.018-0.315l0.9-0.657 1.242 0.432 1.314 3.906zm6.678 2.232c-0.711 0.234-1.467 0.369-2.25 0.369s-1.539-0.135-2.25-0.369l-0.621-1.341 0.576-0.99h4.599l0.576 0.999zm-0.207-4.131h-4.086l-1.215-3.618 3.258-2.286 3.267 2.286zm3.411 1.989-1.026-0.09-0.711-1.233 1.314-3.906 1.251-0.423 0.9 0.657c9e-3 0.099 0.018 0.198 0.018 0.306 0 1.791-0.657 3.429-1.746 4.689z" fill="#717065"/>
 </g>
</svg>
