<?xml version="1.0" encoding="utf-8"?>
<!-- Generator: Adobe Illustrator 21.0.2, SVG Export Plug-In . SVG Version: 6.00 Build 0)  -->
<svg version="1.1" id="Слой_1" xmlns="http://www.w3.org/2000/svg" xmlns:xlink="http://www.w3.org/1999/xlink" x="0px" y="0px"
	 viewBox="0 0 26 24.5" style="enable-background:new 0 0 26 24.5;" xml:space="preserve">
<style type="text/css">
	.st0{display:none;fill:#4A4A4A;}
	.st1{display:none;}
	.st2{display:inline;fill:#4A4A4A;}
	.st3{fill:#4A4A4A;}
	.st4{fill:#FFED03;}
</style>
<title>speedcam-l</title>
<desc>Created with Sketch.</desc>
<path class="st0" d="M-91.3,7.7c-1.5,0-2.6,1.2-2.6,2.6s1.2,2.6,2.6,2.6c1.5,0,2.6-1.2,2.6-2.6C-88.6,8.9-89.8,7.7-91.3,7.7z
	 M-84.2,5.6h-2.7l-0.2-2.3c0-0.2-0.2-0.4-0.4-0.4H-95c-0.2,0-0.4,0.2-0.4,0.4l-0.2,2.3h-0.5V5.1c0-0.2-0.2-0.3-0.3-0.3h-1.5
	c-0.2,0-0.3,0.1-0.3,0.3v0.5l0,0c-0.4,0-0.8,0.3-0.8,0.8v8.2c0,0.4,0.3,0.8,0.8,0.8h14.1c0.4,0,0.8-0.3,0.8-0.8V6.4
	C-83.4,5.9-83.8,5.6-84.2,5.6z M-97.2,8.8c-0.5,0-1-0.4-1-0.9s0.4-0.9,1-0.9c0.5,0,1,0.4,1,0.9S-96.6,8.8-97.2,8.8z M-93.3,3.9h4
	c0.2,0,0.4,0.2,0.4,0.4c0,0.2-0.2,0.4-0.4,0.4h-4c-0.2,0-0.4-0.2-0.4-0.4C-93.7,4.1-93.5,3.9-93.3,3.9z M-91.3,14.1
	c-2.1,0-3.8-1.7-3.8-3.8s1.7-3.8,3.8-3.8c2.1,0,3.8,1.7,3.8,3.8C-87.4,12.4-89.1,14.1-91.3,14.1z"/>
<g transform="translate(0,-952.36218)" class="st1">
	<path class="st2" d="M10.7,958.1l-1,1.9H5.9c-0.7,0-1.3,0.6-1.3,1.3v8.3c0,0.7,0.6,1.3,1.3,1.3H20c0.7,0,1.3-0.6,1.3-1.3v-8.3
		c0-0.7-0.6-1.3-1.3-1.3h-3.8l-1-1.9H10.7z M12.9,962.1c1.9,0,3.4,1.5,3.4,3.4s-1.5,3.4-3.4,3.4s-3.4-1.5-3.4-3.4
		S11,962.1,12.9,962.1z"/>
</g>
<g>
	<path id="Rectangle-346-Copy-3" class="st3" d="M2.5,0h21C24.9,0,26,1.1,26,2.3v19.9c0,1.3-1.1,2.3-2.5,2.3h-21
		c-1.4,0-2.5-1.1-2.5-2.3V2.3C0,1.1,1.1,0,2.5,0z"/>
	<path id="Rectangle-346" class="st4" d="M3.7,1.2h18.5c1.4,0,2.5,1.1,2.5,2.3v17.6c0,1.3-1.1,2.3-2.5,2.3H3.7
		c-1.4,0-2.5-1.1-2.5-2.3V3.5C1.2,2.2,2.3,1.2,3.7,1.2z"/>
	<path class="st3" d="M12.9,10.4c-2.8,0-5.1,2.2-5.1,4.9s2.3,4.9,5.1,4.9S18,18,18,15.3C18.1,12.6,15.8,10.4,12.9,10.4z M12.9,18
		c-1.6,0-2.9-1.2-2.9-2.7s1.3-2.7,2.9-2.7s2.9,1.2,2.9,2.7C15.8,16.8,14.5,18,12.9,18z"/>
	<path class="st3" d="M20.4,7.2h-7.8c0-0.9-0.7-1.6-1.6-1.6H8.3c-0.9,0-1.6,0.7-1.6,1.6H5.5c-0.9,0-1.6,0.7-1.6,1.5v7.1
		c0,0.8,0.7,1.5,1.6,1.5h2.2c-0.3-0.6-0.4-1.3-0.4-2.1c0-3,2.6-5.4,5.7-5.4s5.7,2.4,5.7,5.4c0,0.7-0.2,1.4-0.4,2.1h2.2
		c0.9,0,1.6-0.7,1.6-1.5V8.7C22,7.9,21.3,7.2,20.4,7.2z"/>
</g>
</svg>
