<svg version="1.1" viewBox="0 0 20 20" xmlns="http://www.w3.org/2000/svg">
 <title>speedcam-m</title>
 <g fill="none" fill-rule="evenodd">
  <g id="speedcam-m" fill-rule="nonzero">
   <rect id="Rectangle" width="20" height="20" rx="3" fill="#fff" opacity=".6"/>
   <rect id="Rectangle" x="1" y="1" width="18" height="18" rx="2" fill="#000"/>
   <path id="Shape" d="m14 10v2c0 1.1046-0.89543 2-2 2h-4c-1.1046 0-2-0.89543-2-2v-2h-2v-2c0-2.2091 1.7909-4 4-4h4c2.2091 0 4 1.7909 4 4v2h-2zm0 0h1v-2c0-1.6569-1.3431-3-3-3h-4c-1.6569 0-3 1.3431-3 3v2h1v-2c0-1.1046 0.89543-2 2-2h4c1.1046 0 2 0.89543 2 2v2zm-4-1.9999c-1.1045 0-1.9999 0.89538-1.9999 1.9999 0 1.1045 0.89538 1.9999 1.9999 1.9999h1.091e-4c1.1045 0 1.9999-0.89538 1.9999-1.9999 0-1.1045-0.89538-1.9999-1.9999-1.9999h-1.091e-4zm-2.5 3.9999c-0.27614 0-0.5 0.22386-0.5 0.5s0.22386 0.5 0.5 0.5 0.5-0.22386 0.5-0.5-0.22386-0.5-0.5-0.5zm1.5 2h2v2h-2v-2z" fill="#fff"/>
  </g>
 </g>
</svg>
