<svg version="1.1" viewBox="0 0 32 32" xmlns="http://www.w3.org/2000/svg">
 <title>speedcam-alert-l</title>
 <g fill="none" fill-rule="evenodd">
  <g id="speedcam-alert-l" fill-rule="nonzero">
   <rect id="Rectangle" width="32" height="32" rx="4.8" fill="#fff" opacity=".6"/>
   <rect id="Rectangle" x="2" y="2" width="28" height="28" rx="3.2" fill="#F51E30"/>
   <path id="Shape" d="m22.4 16v3.2c0 1.7673-1.4327 3.2-3.2 3.2h-6.4c-1.7673 0-3.2-1.4327-3.2-3.2v-3.2h-3.2v-3.2c0-3.5346 2.8654-6.4 6.4-6.4h6.4c3.5346 0 6.4 2.8654 6.4 6.4v3.2h-3.2zm0 0h1.6v-3.2c0-2.651-2.149-4.8-4.8-4.8h-6.4c-2.651 0-4.8 2.149-4.8 4.8v3.2h1.6v-3.2c0-1.7673 1.4327-3.2 3.2-3.2h6.4c1.7673 0 3.2 1.4327 3.2 3.2v3.2zm-6.4-3.1998c-1.7672 0-3.1998 1.4326-3.1998 3.1998 0 1.7672 1.4326 3.1998 3.1998 3.1998h1.746e-4c1.7672 0 3.1998-1.4326 3.1998-3.1998 0-1.7672-1.4326-3.1998-3.1998-3.1998h-1.746e-4zm-4 6.3998c-0.44183 0-0.8 0.35817-0.8 0.8s0.35817 0.8 0.8 0.8 0.8-0.35817 0.8-0.8-0.35817-0.8-0.8-0.8zm2.4 3.2h3.2v3.2h-3.2v-3.2z" fill="#fff"/>
  </g>
 </g>
</svg>
