<?xml version="1.0" encoding="utf-8"?>
<!-- Generator: Adobe Illustrator 21.0.2, SVG Export Plug-In . SVG Version: 6.00 Build 0)  -->
<svg version="1.1" id="Слой_1" xmlns="http://www.w3.org/2000/svg" xmlns:xlink="http://www.w3.org/1999/xlink" x="0px" y="0px"
	 viewBox="0 0 17 17" enable-background="new 0 0 17 17" xml:space="preserve">
<title>speedcam-m</title>
<desc>Created with Sketch.</desc>
<path id="Rectangle-346-Copy-4" fill="#4A4A4A" d="M2,0h13c1.1,0,2,0.9,2,2v13c0,1.1-0.9,2-2,2H2c-1.1,0-2-0.9-2-2V2
	C0,0.9,0.9,0,2,0z"/>
<path id="Rectangle-346-Copy" fill="#FFFFFF" d="M3,1h11c1.1,0,2,0.9,2,2v11c0,1.1-0.9,2-2,2H3c-1.1,0-2-0.9-2-2V3C1,1.9,1.9,1,3,1z
	"/>
<polygon id="Shape_2_" fill="#020202" points="3.3,5.3 10.5,5.3 10.5,4.5 12.9,4.5 12.9,5.3 13.7,5.3 13.7,11.7 3.3,11.7 "/>
<circle id="Oval_4_" fill="#FFFFFF" cx="8.9" cy="8.5" r="2.4"/>
<circle id="Oval_1_" cx="8.9" cy="8.5" r="1.6"/>
</svg>
