<?xml version="1.0" encoding="UTF-8"?>
<svg width="24px" height="24px" viewBox="0 0 24 24" version="1.1" xmlns="http://www.w3.org/2000/svg" xmlns:xlink="http://www.w3.org/1999/xlink">
    <title>sports-m</title>
    <g id="Page-1" stroke="none" stroke-width="1" fill="none" fill-rule="evenodd">
        <g id="sports-m" fill-rule="nonzero">
            <circle id="Oval" fill="#FFFFFF" opacity="0.6" cx="12" cy="12" r="12"></circle>
            <circle id="Oval" fill="#8C5F93" cx="12" cy="12" r="11"></circle>
            <path d="M17.4444444,6.55555556 L15.8888889,6.55555556 L15.8888889,5 L8.11111111,5 L8.11111111,6.55555556 L6.55555556,6.55555556 C5.7,6.55555556 5,7.25555556 5,8.11111111 L5,8.88888889 C5,10.8722222 6.49333333,12.49 8.41444444,12.7311111 C8.90444444,13.8977778 9.95444444,14.7766667 11.2222222,15.0333333 L11.2222222,17.4444444 L8.11111111,17.4444444 L8.11111111,19 L15.8888889,19 L15.8888889,17.4444444 L12.7777778,17.4444444 L12.7777778,15.0333333 C14.0455556,14.7766667 15.0955556,13.8977778 15.5855556,12.7311111 C17.5066667,12.49 19,10.8722222 19,8.88888889 L19,8.11111111 C19,7.25555556 18.3,6.55555556 17.4444444,6.55555556 Z M6.55555556,8.88888889 L6.55555556,8.11111111 L8.11111111,8.11111111 L8.11111111,11.0822222 C7.20888889,10.7555556 6.55555556,9.9 6.55555556,8.88888889 Z M17.4444444,8.88888889 C17.4444444,9.9 16.7911111,10.7555556 15.8888889,11.0822222 L15.8888889,8.11111111 L17.4444444,8.11111111 L17.4444444,8.88888889 Z" id="Shape" fill="#FFFFFF"></path>
        </g>
    </g>
</svg>