<?xml version="1.0" encoding="UTF-8" standalone="no"?>
<svg width="17px" height="17px" viewBox="0 0 17 17" version="1.1" xmlns="http://www.w3.org/2000/svg" xmlns:xlink="http://www.w3.org/1999/xlink">
    <!-- Generator: Sketch 3.8.3 (29802) - http://www.bohemiancoding.com/sketch -->
    <title>sports-s</title>
    <desc>Created with Sketch.</desc>
    <defs>
        <ellipse id="path-1" cx="8.5" cy="8.5" rx="7.5" ry="7.5"></ellipse>
    </defs>
    <g id="POI-Clear" stroke="none" stroke-width="1" fill="none" fill-rule="evenodd">
        <g id="sports-s">
            <path d="M8.5,17 C3.812,17 0,13.188 0,8.5 C0,3.812 3.812,0 8.5,0 C13.188,0 17,3.812 17,8.5 C17,13.188 13.188,17 8.5,17 L8.5,17 Z" id="Shape" fill-opacity="0.6" fill="#FFFFFF"></path>
            <g id="Oval">
                <use fill="#2D7970" xlink:href="#path-1"></use>
                <use fill="#825089" xlink:href="#path-1"></use>
            </g>
            <path d="M10.901,4.033 L10.901,4 L6.1,4 L6.1,4.033 L4,4.033 L4,7.2 C4,8.063 4.703,8.766 5.566,8.766 L6.099,8.766 L6.099,8.799 C6.099,9.389 6.548,10.028 7.101,10.231 L7.916,10.641 L7.699,11.907 L6.098,12.334 L6.098,12.867 L10.899,12.867 L10.899,12.333 L9.298,11.906 L9.08,10.639 L9.896,10.23 C10.449,10.028 10.898,9.388 10.898,8.798 L10.898,8.765 L11.431,8.765 C12.294,8.765 12.947,8.062 12.947,7.199 L12.947,4.033 L10.901,4.033 L10.901,4.033 Z M5.516,7.933 C5.204,7.933 4.95,7.679 4.95,7.367 L4.95,4.933 L6.1,4.933 L6.1,7.933 L5.516,7.933 L5.516,7.933 Z M12.001,7.367 C12.001,7.679 11.747,7.933 11.435,7.933 L10.902,7.933 L10.902,4.933 L12.002,4.933 L12.002,7.367 L12.001,7.367 Z" id="Shape" fill="#FFFFFF"></path>
        </g>
    </g>
</svg>