<?xml version="1.0" encoding="UTF-8"?>
<svg width="24px" height="24px" viewBox="0 0 24 24" version="1.1" xmlns="http://www.w3.org/2000/svg" xmlns:xlink="http://www.w3.org/1999/xlink">
    <title>stadium-m</title>
    <g id="Page-1" stroke="none" stroke-width="1" fill="none" fill-rule="evenodd">
        <g id="stadium-m" fill-rule="nonzero">
            <circle id="Oval" fill="#FFFFFF" opacity="0.6" cx="12" cy="12" r="12"></circle>
            <circle id="Oval" fill="#7F5933" cx="12" cy="12" r="11"></circle>
            <path d="M7.1,6 L8.5,6 L10.6,7.4 L8.5,8.8 L8.5,9.734122 C9.529609,9.585218 10.72502,9.5 12,9.5 C13.27498,9.5 14.47037,9.585218 15.5,9.734122 L15.5,6 L16.9,6 L19,7.4 L16.9,8.8 L16.9,10.000248 C18.19598,10.317859 19,10.760455 19,11.25 C19,12.21649 15.86596,13 12,13 C8.134005,13 5,12.21649 5,11.25 C5,10.760455 5.804048,10.317859 7.1,10.000248 L7.1,6 Z M12,10.550007 C9.680403,10.550007 8.5,10.670106 8.5,11.25 C8.5,11.82988 9.680403,11.95 12,11.95 C14.31959,11.95 15.5,11.82988 15.5,11.25 C15.5,10.670106 14.31959,10.550007 12,10.550007 Z M12,14.225 C14.66581,14.225 17.04154,13.75936 18.58035,13.03311 L17.6,18.6 L14.1,18.6 L14.1,17.2 C14.1,16.42678 13.47322,15.8 12.7,15.8 L11.3,15.8 C10.526794,15.8 9.9,16.42678 9.9,17.2 L9.9,18.6 L6.4,18.6 L5.41965,13.03311 C6.958467,13.75936 9.334218,14.225 12,14.225 Z" id="Shape" fill-opacity="0.862745" fill="#FFFFFF"></path>
        </g>
    </g>
</svg>