<svg version="1.1" viewBox="0 0 24 24" xmlns="http://www.w3.org/2000/svg">
 <title>stadium-m</title>
 <g fill="none" fill-rule="evenodd">
  <g id="stadium-m" fill-rule="nonzero">
   <circle id="Oval" cx="12" cy="12" r="12" fill="#fff" opacity=".6"/>
   <circle id="Oval" cx="12" cy="12" r="11" fill="#7F5933"/>
   <path id="Shape" d="m7.1 6h1.4l2.1 1.4-2.1 1.4v0.93412c1.0296-0.1489 2.225-0.23412 3.5-0.23412s2.4704 0.085218 3.5 0.23412v-3.7341h1.4l2.1 1.4-2.1 1.4v1.2002c1.296 0.31761 2.1 0.76021 2.1 1.2498 0 0.96649-3.134 1.75-7 1.75-3.866 0-7-0.78351-7-1.75 0-0.48954 0.80405-0.93214 2.1-1.2498v-4.0002zm4.9 4.55c-2.3196 0-3.5 0.1201-3.5 0.69999 0 0.57988 1.1804 0.7 3.5 0.7 2.3196 0 3.5-0.12012 3.5-0.7 0-0.57989-1.1804-0.69999-3.5-0.69999zm0 3.675c2.6658 0 5.0415-0.46564 6.5804-1.1919l-0.98035 5.5669h-3.5v-1.4c0-0.77322-0.62678-1.4-1.4-1.4h-1.4c-0.77321 0-1.4 0.62678-1.4 1.4v1.4h-3.5l-0.98035-5.5669c1.5388 0.72625 3.9146 1.1919 6.5804 1.1919z" fill="#fff" fill-opacity=".86274"/>
  </g>
 </g>
</svg>
