<svg width="28" height="28" viewBox="0 0 28 28">
  <g fill="none" fill-rule="evenodd">
    <circle cx="14" cy="14" r="14" fill="#FFF" opacity=".6"/>
    <circle cx="14" cy="14" r="13" fill="#8C5F93"/>
    <path fill="#FFF" fill-rule="nonzero" d="M10.6666667,7 L8,10.5 L8,21 L13.3333333,21 L13.3333333,10.5 L10.6666667,7 Z M16,7 C15.2633333,7 14.6666667,7.6265 14.6666667,8.4 L14.6666667,19.6 C14.6666667,20.3735 15.2633333,21 16,21 L18.6666667,21 C19.4033333,21 20,20.3735 20,19.6 L20,18.9 L18.6666667,18.9 L18.6666667,17.5 L20,17.5 L20,16.1 L17.3333333,16.1 L17.3333333,14.7 L20,14.7 L20,13.3 L18.6666667,13.3 L18.6666667,11.9 L20,11.9 L20,10.5 L17.3333333,10.5 L17.3333333,9.1 L20,9.1 L20,8.4 C20,7.6265 19.4033333,7 18.6666667,7 L16,7 Z M9.66666667,10.5 L11.6666667,10.5 L12,10.959375 L12,19.6 L9.33333333,19.6 L9.33333333,10.959375 L9.66666667,10.5 Z"/>
  </g>
</svg>
