<svg height="24" viewBox="0 0 24 24" width="24"><g fill="none" fill-rule="evenodd"><circle cx="12" cy="12" fill="#fff" opacity=".6" r="12"/><circle cx="12" cy="12" fill="#8c5f93" r="11"/><path d="m9.22222222 6-2.22222222 3v9h4.4444444v-9zm4.44444448 0c-.6138889 0-1.1111111.537-1.1111111 1.2v9.6c0 .663.4972222 1.2 1.1111111 1.2h2.2222222c.6138889 0 1.1111111-.537 1.1111111-1.2v-.6h-1.1111111v-1.2h1.1111111v-1.2h-2.2222222v-1.2h2.2222222v-1.2h-1.1111111v-1.2h1.1111111v-1.2h-2.2222222v-1.2h2.2222222v-.6c0-.663-.4972222-1.2-1.1111111-1.2zm-5.27777781 3h1.66666671l.2777777.39375v7.40625h-2.22222219v-7.40625z" fill="#fff" fill-rule="nonzero"/></g></svg>