<svg width="19" height="19" viewBox="0 0 19 19">
  <g fill="none">
    <circle cx="9.7" cy="9.9" r="9" fill="#FFF" opacity=".6"/>
    <circle cx="9.7" cy="9.9" r="8" fill="#20287D"/>
    <path fill="#FFF" d="M12.7,8.06054362 C12.5253632,7.83295692 12.2459208,7.7 11.9,7.7 L11.4,7.7 C11.1140069,7.7 10.8734538,7.79088006 10.7,7.95098097 L10.7,13 C10.7,13.5 10.3,13.9 9.8,13.9 L9.6,13.9 C9.1,13.9 8.7,13.5 8.7,13 L8.7,8.06054362 C8.52536322,7.83295692 8.24592084,7.7 7.9,7.7 L7.5,7.7 C7.15407916,7.7 6.87463678,7.83295692 6.7,8.06054362 L6.7,13 C6.7,13.5 6.3,13.9 5.8,13.9 L5.6,13.9 C5.1,13.9 4.7,13.5 4.7,13 L4.7,7.9 L5.12638596,7.9 C5.45348765,6.90287198 6.38089765,6.2 7.5,6.2 L8,6.2 C8.68712875,6.2 9.30199027,6.46497985 9.75,6.900355 C10.1980097,6.46497985 10.8128712,6.2 11.5,6.2 L12,6.2 C13.1191024,6.2 14.0465123,6.90287198 14.373614,7.9 L14.7,7.9 L14.7,13 C14.7,13.5 14.3,13.9 13.8,13.9 L13.6,13.9 C13.1,13.9 12.7,13.5 12.7,13 L12.7,8.06054362 Z"/>
  </g>
</svg>
