<svg viewBox="0 0 18 18" xmlns="http://www.w3.org/2000/svg">
 <g>
  <path d="m9 0c-5 0-9 4-9 9s4 9 9 9 9-4 9-9-4-9-9-9z" fill="#FFF" opacity=".6"/>
  <path d="m9 1c-4.4 0-8 3.6-8 8s3.6 8 8 8 8-3.6 8-8-3.6-8-8-8z" fill="#FFF"/>
  <path d="m15.534 5.9106s-8.3532 1.8953-7.932 5.1242c0.28078 2.3164 8.3532 2.3164 8.3532 2.3164-7.1599 0.49136-11.512 0.35097-12.074-0.91253-0.56156-1.2635 1.8953-3.5799 3.7203-4.6329 3.2992-1.8953 7.932-1.8953 7.932-1.8953zm-4.8435-1.2106c-6.5281 2.3164-8.1426 6.5281-8.1426 6.5281-0.56156-0.28078-0.77214-0.98273-0.42117-1.4741 2.5972-4.2117 8.5638-5.054 8.5638-5.054z" fill="#C41F38"/>
 </g>
</svg>
