<svg viewBox="0 0 18 18" xmlns="http://www.w3.org/2000/svg">
 <g>
  <rect width="18" height="18" fill="#FFF" opacity=".6"/>
  <rect x="1" y="1" width="16" height="16" fill="#1E88E5"/>
  <path d="m11.1 5.9c-0.9 0.5-1.6 1-2.1 1.5-0.5-0.5-1.2-1-2.1-1.5-5.3-3-4.1 2.4-2.4 6.5l1.5-0.4s-2.7-5.6-0.3-5.6c1.1 0 2.1 0.6 2.8 1.4-2.3 2.3-1.5 4 0.3 4 4.1 0 1.4-3.2 0.8-4 0.7-0.7 1.7-1.4 2.8-1.4 2.3 0-0.4 5.6-0.4 5.6l1.5 0.4c1.8-4.2 3-9.5-2.4-6.5zm-1.1 4.6c-0.4 0.6-1.9 0.6-1.9-0.4 0-0.8 0.9-1.7 0.9-1.7 1 0.7 1.2 1.8 1 2.1z" fill="#FFF"/>
 </g>
</svg>
