<svg viewBox="0 0 18 18" xmlns="http://www.w3.org/2000/svg">
 <g>
  <path d="m9 0c-5 0-9 4-9 9s4 9 9 9 9-4 9-9-4-9-9-9z" fill="#FFF" opacity=".6"/>
  <path d="m9 1c-4.4 0-8 3.6-8 8s3.6 8 8 8 8-3.6 8-8-3.6-8-8-8z" fill="#FFF"/>
  <path d="m2 10.779c0-1.0146 3.122-3.7463 5.6195-4.6049 1.4829-0.46829 5.6195 0.1561 5.6195 0.1561s-4.0585 0.39024-5.0732 0.93659c-2.1073 0.93659-3.122 1.9512-3.122 1.9512s6.7902-2.5756 12.956-1.561c0 0-8.1951 0.46829-12.956 3.278-0.46829 0.3122-1.0146 0.54634-1.561 0.62439-0.62439 0.1561-1.4829 0.078049-1.4829-0.78049z" fill="#F50000"/>
 </g>
</svg>
