<?xml version="1.0" encoding="UTF-8" standalone="no"?>
<svg width="17px" height="17px" viewBox="0 0 17 17" version="1.1" xmlns="http://www.w3.org/2000/svg" xmlns:xlink="http://www.w3.org/1999/xlink" xmlns:sketch="http://www.bohemiancoding.com/sketch/ns">
    <!-- Generator: Sketch 3.3.3 (12072) - http://www.bohemiancoding.com/sketch -->
    <title>subway-entrance</title>
    <desc>Created with Sketch.</desc>
    <defs></defs>
    <g id="Icons" stroke="none" stroke-width="1" fill="none" fill-rule="evenodd" sketch:type="MSPage">
        <g id="transport" sketch:type="MSLayerGroup" transform="translate(-69.000000, -222.000000)">
            <g id="subway-entrance" transform="translate(69.000000, 222.000000)" sketch:type="MSShapeGroup">
                <path d="M11.4710849,11.1306766 L10.7651611,11.1306766 L10.7651611,12.5425241 L15.0023924,12.5425241 L15.0023923,11.1306763 L14.2947798,11.1306763 L11.1133389,4 L9.00119622,8.30290857 L6.88905358,4 L3.70761263,11.1306763 L3.00000017,11.1306763 L3,12.5425241 L7.23723132,12.5425241 L7.23723132,11.1306766 L6.53130758,11.1306766 L7.47724281,9.00350756 L8.99890464,12.5338082 L10.5251496,9.00350756 L11.4710849,11.1306766 Z M9.61509429,8.36215084 L9.61142209,9.40983497 L11.4430419,9.40033734 L9.91679686,12.930638 L9.00119627,14.0092896 L8.08057871,12.9296333 L6.55891688,9.39933263 L8.39097036,9.40983497 L7.44503513,11.537004 L6.53130758,11.1306766 L6.53130758,10.1306766 L7.23723132,10.1306766 L8.23723132,10.1306766 L8.23723132,11.1306766 L8.23723132,12.5425241 L8.23723132,13.5425241 L7.23723132,13.5425241 L3,13.5425241 L1.99999988,13.5425241 L2,12.542524 L2.00000017,11.1306762 L2.00000028,10.1306763 L3.00000017,10.1306763 L3.70761263,10.1306763 L3.70761263,11.1306763 L2.79438435,10.723228 L5.9758253,3.59255171 L6.84584381,1.64254842 L7.78673723,3.55935947 L9.89887987,7.86226804 L8.10351258,7.86226804 L10.2156552,3.55935947 L11.1565486,1.64254842 L12.0265671,3.59255171 L15.2080081,10.723228 L14.2947798,11.1306763 L14.2947798,10.1306763 L15.0023923,10.1306763 L16.0023922,10.1306763 L16.0023923,11.1306762 L16.0023924,12.542524 L16.0023926,13.5425241 L15.0023924,13.5425241 L10.7651611,13.5425241 L9.76516113,13.5425241 L9.76516113,12.5425241 L9.76516113,11.1306766 L9.76516113,10.1306766 L10.7651611,10.1306766 L11.4710849,10.1306766 L11.4710849,11.1306766 L10.5573573,11.537004 L9.61509429,8.36215084 Z" id="Shape" fill="#FFFFFF"></path>
                <path d="M10.5251496,9.00350756 L11.4710849,11.1306766 L10.7651611,11.1306766 L10.7651611,12.5425241 L15.0023924,12.5425241 L15.0023923,11.1306763 L14.2947798,11.1306763 L11.1133389,4 L9.00119622,8.30290857 L6.88905358,4 L3.70761263,11.1306763 L3.00000017,11.1306763 L3,12.5425241 L7.23723132,12.5425241 L7.23723132,11.1306766 L6.53130758,11.1306766 L7.47724281,9.00350756 L8.99890464,12.5338082 L10.5251496,9.00350756 Z" id="Rectangle-60-Copy-10" fill="#F03838"></path>
            </g>
        </g>
    </g>
</svg>