<svg viewBox="0 0 25 25" xmlns="http://www.w3.org/2000/svg">
 <g>
  <circle cx="12.3" cy="12.4" r="12" fill="#FFF" opacity=".6"/>
  <path d="m1.4 14.3c-0.2-0.6-0.2-1.2-0.2-1.8 0-6.1 4.9-11 11-11 4.4 0 8.1 2.5 9.9 6.1l-8.4 8.4c-0.3 0.3-0.4 0.6-0.4 1 0 0.7 0.5 1.4 1.4 1.4 0.4 0 0.7-0.1 1-0.4l7.4-7.4c0.2 0.6 0.2 1.2 0.2 1.8 0 6.1-4.9 11-11 11-4.4 0-8.1-2.5-9.9-6.1l8.5-8.5c0.9-0.8 0.3-2.4-1.1-2.3-0.4 0-0.7 0.1-1 0.4l-7.4 7.4zm16.5-5.4c0.9-0.9 0.3-2.5-1-2.5-0.4 0-0.7 0.1-1 0.4l-9.2 9.2c-0.9 0.9-0.3 2.4 1 2.4 0.4 0 0.7-0.1 1-0.4l9.2-9.1z" fill="#F5007F"/>
 </g>
</svg>
