<svg viewBox="0 0 28 19" xmlns="http://www.w3.org/2000/svg">
 <g fill="none">
  <path d="m27.1 9.3-8.2-6.2c-0.1 0-0.1-0.1-0.2-0.1 0-0.1 0.1-0.2 0.1-0.4 0-0.3-0.1-0.5-0.3-0.7l-0.6-0.6c-0.2-0.2-0.5-0.3-0.7-0.3s-0.5 0.1-0.7 0.3l-1 1v-1.1c0-0.6-0.4-1-1-1h-0.8c-0.6 0-1 0.4-1 1v1.2l-1-1c-0.2-0.2-0.5-0.3-0.7-0.3-0.3 0-0.5 0.1-0.7 0.3l-0.7 0.6c-0.2 0.2-0.3 0.4-0.3 0.7 0 0.1 0 0.2 0.1 0.4-0.1 0-0.1 0.1-0.2 0.1l-8.3 6.1c-0.3 0.2-0.4 0.5-0.4 0.8s0.2 0.6 0.5 0.8l12.5 7.9c0.2 0.1 0.3 0.2 0.5 0.2s0.4-0.1 0.5-0.2l12.5-7.8c0.3-0.2 0.5-0.5 0.5-0.8 0-0.4-0.1-0.7-0.4-0.9z" fill="#FFF" opacity=".6"/>
  <rect transform="rotate(135 11.47 3.364)" x="10.97" y="2.114" width="1" height="2.5" fill="#E0111C"/>
  <rect transform="rotate(45 16.618 3.308)" x="16.118" y="2.058" width="1" height="2.5" fill="#E0111C"/>
  <rect x="13.6" y="1.2" width="1" height="2.5" fill="#E0111C"/>
  <g transform="translate(1 4)">
   <polygon points="24 6.1 13 13 2 6.1 8.8 1 13 3.8 17.2 1" fill="#FFF"/>
   <path d="m13 14-12.5-7.9 8.2-6.1 4.3 2.8 4.3-2.8 8.2 6.2-12.5 7.8zm-9.5-8 9.5 6 9.5-6-5.3-4-4.2 2.8-4.2-2.8-5.3 4z" fill="#E0111C"/>
  </g>
 </g>
</svg>
