<svg width="17" height="11" viewBox="0 0 17 11">
  <g fill="none">
    <path fill="#FFF" d="M15.9,0.9 C15.7,0.3 15.1,0 14.5,0 L9.8,0 C9,0 8.2,0.4 7.8,1.1 L6.2,3.4 L5.8,4 L4.9,4 C4.1,4 3.4,4.4 3,5.1 L0.7,8.5 C0.4,9 0.3,9.6 0.6,10.1 C0.9,10.7 1.4,11 2,11 L6.8,11 C7.6,11 8.3,10.6 8.8,9.9 L10.4,7.5 L10.7,7 L11.6,7 C12.4,7 13.2,6.6 13.6,5.9 L15.9,2.5 C16.2,2 16.2,1.4 15.9,0.9 Z" opacity=".6"/>
    <path fill="#C41F38" d="M9.5,7 L8,9.4 C7.7,9.8 7.3,10 6.8,10 L2,10 C1.5,10 1.2,9.4 1.5,9 L3.8,5.6 C4,5.2 4.5,5 4.9,5 L6.3,5 L7,4 L8.6,1.6 C8.9,1.2 9.3,1 9.8,1 L14.6,1 C15,1 15.3,1.6 15,2 L12.7,5.4 C12.5,5.8 12.1,6 11.6,6 L10.2,6 L5,6 C4.7,6 4.5,6.2 4.5,6.4 C4.4,6.7 4.6,6.9 4.8,7 C5.2,7.1 6.2,7.5 6.7,8.2 C6.8,8.3 7,8.4 7.1,8.4 C7.2,8.4 7.3,8.3 7.4,8.3 C7.6,8.1 7.7,7.8 7.5,7.6 C7.3,7.4 7.1,7.2 6.9,7 L9.5,7 Z M12.1,4.6 C12.1,4.3 12,4.1 11.7,4 C11.4,3.8 10.4,3.4 9.9,2.8 C9.7,2.6 9.4,2.6 9.2,2.8 C9,3 9,3.3 9.2,3.5 C9.3,3.7 9.5,3.9 9.6,4 L7,4 L6.4,5 L11.6,5 C11.8,5 12,4.8 12.1,4.6 Z"/>
  </g>
</svg>
