<svg width="28" height="28" viewBox="0 0 28 28">
  <g fill="none">
    <rect width="28" height="28" fill="#FFF" opacity=".6"/>
    <rect width="26" height="26" x="1" y="1" fill="#FFF"/>
    <path fill="#6A1B9A" d="M12.8312317,17.5636008 C12.7414042,18.6800565 12.5404677,19.9131292 12.2,21.275 C12.2,21.275 10.325,27.125 7.4,25.475 C7.4,25.475 9.425,25.25 10.625,21.95 C11.7494578,18.8015182 12.0497106,15.9527474 11.4508669,13.1041209 C8.94162461,13.235489 7.25,12.5 7.25,12.5 C8.50470591,12.7214187 9.83204328,12.724943 11.3034875,12.5105729 C11.3023432,12.5070668 11.3011809,12.5035427 11.3,12.5 C11.6,12.425 11.975,12.35 12.275,12.275 L12.2806751,12.2920254 C12.3041695,12.2863503 12.3272995,12.2806751 12.35,12.275 C12.95,12.125 13.475,11.9 14.075,11.675 C14.075,11.9 14.075,12.2 14.15,12.575 C13.625,12.725 13.1,12.875 12.575,12.95 C12.5511518,12.9547696 12.5273036,12.959236 12.5034746,12.9634375 C12.7599597,13.9579688 12.9079427,15.1149543 12.885505,16.4609305 C17.387094,14.8060256 20,16.25 20,16.25 C18.8878318,16.1291122 17.9081627,16.1329293 17.0182793,16.2338135 C17.3779642,17.2628509 17.856047,18.2840705 18.5,19.25 C18.3618844,19.1809422 17.0792132,18.4760202 16.1156995,16.3741032 C14.9065666,16.6143902 13.8553976,17.0391358 12.8312317,17.5636008 Z M16.3722682,10.377383 C17.6030734,9.53212626 18.725698,8.43966526 19.7,7.1 C21.8,4.25 20.9,2.45 20.9,2.45 C23.9,3.95 20,8.75 20,8.75 C18.7390528,10.0709923 17.4781056,11.0074071 16.2941317,11.6362176 C16.2755499,12.4848447 16.3258203,13.3800587 16.475,14.3 C16.1,14.3 15.8,14.375 15.5,14.45 C15.125,12.875 15.05,10.7 15.5,8 C15.5,8 17,2 20,3.5 C20,3.5 18.05,3.875 17,7.25 C16.737782,8.11157342 16.4942737,9.17895392 16.3722682,10.377383 Z M10.325,17.3 C8.75,17.75 3.875,22.475 6.575,24.5 C6.575,24.5 5.975,22.625 8.525,20.15 C8.975,19.7 9.575,19.25 10.175,18.8 C10.25,18.275 10.325,17.75 10.325,17.3 Z M11.075,11.45 C10.7,10.325 10.175,9.2 9.5,8 C9.65,8.075 11.075,8.975 11.975,11.225 L11.075,11.45 Z M8,8 C5,8.75 6.5,11.75 6.5,11.75 C6.5,11.75 5,11 5,9.5 C5,7.25 8,8 8,8 Z M20.75,15.5 C22.25,16.25 23.75,18.5 22.25,20 C20.375,21.875 18.5,20 18.5,20 C18.5,20 19.85,20.6 20.75,20 C23,18.5 20.75,15.5 20.75,15.5 Z"/>
    <path fill="#8BC34A" d="M18.875,6.5 C18.6678932,6.5 18.5,6.33210678 18.5,6.125 C18.5,5.91789322 18.6678932,5.75 18.875,5.75 C19.0821068,5.75 19.25,5.91789322 19.25,6.125 C19.25,6.33210678 19.0821068,6.5 18.875,6.5 Z M13.625,14.75 C13.4178932,14.75 13.25,14.5821068 13.25,14.375 C13.25,14.1678932 13.4178932,14 13.625,14 C13.8321068,14 14,14.1678932 14,14.375 C14,14.5821068 13.8321068,14.75 13.625,14.75 Z M19.625,18.5 C19.4178932,18.5 19.25,18.3321068 19.25,18.125 C19.25,17.9178932 19.4178932,17.75 19.625,17.75 C19.8321068,17.75 20,17.9178932 20,18.125 C20,18.3321068 19.8321068,18.5 19.625,18.5 Z M8.375,22.25 C8.16789322,22.25 8,22.0821068 8,21.875 C8,21.6678932 8.16789322,21.5 8.375,21.5 C8.58210678,21.5 8.75,21.6678932 8.75,21.875 C8.75,22.0821068 8.58210678,22.25 8.375,22.25 Z M8.375,11 C8.16789322,11 8,10.8321068 8,10.625 C8,10.4178932 8.16789322,10.25 8.375,10.25 C8.58210678,10.25 8.75,10.4178932 8.75,10.625 C8.75,10.8321068 8.58210678,11 8.375,11 Z"/>
  </g>
</svg>
