<svg width="30" height="30" viewBox="0 0 30 30">
  <g fill="none">
    <circle cx="15" cy="15" r="15" fill="#FFF" opacity=".6"/>
    <circle cx="15" cy="15" r="14" fill="#20287D"/>
    <polygon fill="#FF8E03" points="27 10 18 10 18 12 20 12 20 13 20 14 22 15 22 17 24 16 24 15 25 14 25 13 26 13 26 12 27 12"/>
    <path fill="#FFF" d="M13,10 L15,10 L15,20 L13,20 L13,10 Z M9,10 L11,10 L11,20 L9,20 L9,10 Z M5,10 L7,10 L7,20 L5,20 L5,10 Z M3,10 L3,20 L1.9,20 C1.3,18.5 1,16.8 1,15 C1,13.2 1.3,11.5 1.9,10 L3,10 Z M29,15 C29,16.8 29,17.800415 28.1,20 L27,20 L27,13.6 L23,19.4 L19,13.6 L19,20 L17,20 L17,10 L19,10 L19,10.1 L21.8,14 L22,14.3 L22.5,15 L23,15.7 L23.5,15 L24,14.3 L24.2,14 L27,10.1 L27,10 L28.1,10 C28.6060791,11.2723389 29,13.2 29,15 Z"/>
  </g>
</svg>
