<svg viewBox="0 0 20 20" xmlns="http://www.w3.org/2000/svg">
 <g fill="none">
  <rect transform="rotate(-45 9.93 10)" x="3.879" y="3.95" width="12.1" height="12.1" fill="#F3F3ED"/>
  <polygon points="19.2 9.3 17 7.1 17 4 17 3 16 3 12.9 3 10.7 0.8 10 0.1 9.3 0.8 7.1 3 4 3 3 3 3 4 3 7.1 0.8 9.3 0.1 10 0.8 10.7 3 12.9 3 16 3 17 4 17 7.1 17 9.3 19.2 10 19.9 10.7 19.2 12.9 17 16 17 17 17 17 16 17 12.9 19.2 10.7 19.9 10" fill="#FFF" opacity=".6"/>
  <path d="m4 7.3732v-3.3732h3.3732l2.556-2.556 2.556 2.556h3.5148v3.5148l2.4851 2.4851-2.4851 2.4851v3.515h-3.515l-2.5558 2.5558-2.5558-2.5558h-3.3734v-3.3734l-2.6267-2.6267 2.6267-2.6267z" fill="#FFC400"/>
  <g transform="translate(3 3)">
   <circle cx="7" cy="7" r="6" fill="#5C6BC0"/>
   <path d="m7 1.4c3.1 0 5.6 2.5 5.6 5.6s-2.5 5.6-5.6 5.6-5.6-2.5-5.6-5.6 2.5-5.6 5.6-5.6zm0-0.5c-3.3 0-6.1 2.7-6.1 6.1s2.7 6.1 6.1 6.1 6.1-2.7 6.1-6.1-2.8-6.1-6.1-6.1z" fill="#FFF"/>
  </g>
  <path d="m8.0375 12c-0.5125-0.5-0.8375-1.2-0.8375-2 0-1.6 1.3-2.8 2.8-2.8s2.8 1.2 2.8 2.8c0 0.8-0.325 1.5-0.8375 2h3.0375v1h-10v-1h3.0375z" fill="#C6CDF7"/>
  <path d="m14 10h-2c0-1.1-0.9-2-2-2s-2 0.9-2 2h-2c0-2.2 1.8-4 4-4s4 1.8 4 4z" fill="#FFF"/>
 </g>
</svg>
