<svg width="29" height="29" viewBox="0 0 29 29">
  <g fill="none">
    <circle cx="14.5" cy="14.5" r="14.5" fill="#FFF" opacity=".6"/>
    <g transform="translate(1 1)">
      <circle cx="13.5" cy="13.5" r="13.5" fill="#FFEA00"/>
      <path fill="#D50000" d="M13.5,1 C20.4,1 26,6.6 26,13.5 C26,20.4 20.4,26 13.5,26 C6.6,26 1,20.4 1,13.5 C1,6.6 6.6,1 13.5,1 Z M13.5,0 C6,0 0,6 0,13.5 C0,21 6,27 13.5,27 C21,27 27,21 27,13.5 C27,6 21,0 13.5,0 Z"/>
    </g>
    <g fill="#D50000" transform="translate(4 6)">
      <path d="M17.5,0 L20.5,14 L16.5,14 L14.7,5.6 L13.4,8.3 L11.4,4.2 L13.5,0 L17.5,0 Z M3.5,0 L7.5,0 L6.1,6.5 L4.5,14 L0.5,14 L3.5,0 Z M14,15.5 L8.5,12.4 L9.7,11.8 L8,9 L9.3,3 L12,8.8 L12.6,10 L13.9,9.2 L14,15.5 Z"/>
    </g>
  </g>
</svg>
