<svg width="24" height="24" viewBox="0 0 24 24">
  <g fill="none">
    <circle cx="12" cy="12" r="12" fill="#FFF" opacity=".6"/>
    <g fill="#01579B" transform="translate(1 1)">
      <path d="M3.7,18.5 C1.7,16.5 0.5,13.9 0.5,11 C0.5,5.2 5.2,0.5 11,0.5 C16.8,0.5 21.5,5.2 21.5,11 C21.5,13.9 20.4,16.5 18.3,18.5 L3.7,18.5 Z"/>
      <path d="M11,1 C16.5,1 21,5.5 21,11 C21,13.7 20,16.1 18.1,18 L3.9,18 C2,16.1 1,13.7 1,11 C1,5.5 5.5,1 11,1 Z M11,0 C4.9,0 0,4.9 0,11 C0,14.2 1.3,17 3.5,19 L18.6,19 C20.7,17 22.1,14.2 22.1,11 C22,4.9 17.1,0 11,0 Z"/>
    </g>
    <g transform="translate(4 3)">
      <path fill="#F50000" d="M5.9,8.5 C5.1,10.4 3.1,11.6 1,11.6 L0.5,11.6 L5.2,1.3 L8,6.9 L10.8,1.3 L15.5,11.6 L15,11.6 C12.9,11.6 11,10.4 10.1,8.6 L7.9,13.7 L5.9,8.5 Z"/>
      <path fill="#FFEA00" d="M10.8,2 L15,11.3 C12.9,11.3 11,10.1 10.3,8.2 L10.2,7.8 L8,13 L5.9,7.6 L5.7,8.2 C5,10.1 3.1,11.3 1,11.3 L5.2,2 L8,7.5 L10.8,2 Z M10.8,0.6 L10.2,1.7 L8,6.2 L5.7,1.7 L5.2,0.6 L4.7,1.8 L0.5,11.1 L0.1,11.9 L1,11.9 C3,11.9 4.9,10.9 5.9,9.2 L7.4,13.1 L7.9,14.5 L8.5,13.1 L10.2,9.2 C11.2,10.8 13,11.8 15,11.8 L15.9,11.8 L15.5,11 L11.3,1.7 L10.8,0.6 Z"/>
    </g>
    <path fill="#FFEA00" d="M19.5,20 C17.5,21.9 14.9,23 12,23 C9.1,23 6.4,21.9 4.5,20 L19.5,20 Z"/>
  </g>
</svg>
