<svg width="28" height="24" viewBox="0 0 28 24">
  <g fill="none">
    <path fill="#FFF" d="M28,11.3 C28,2.9 11.9,1.1 11.2,1 L9.5,0.9 L10.1,2.4 L10.8,4.2 C8.5,4.5 6.1,5.6 3.9,7.3 C1.5,9.3 0,11.7 0,13.8 C0,22.1 16.1,23.9 16.8,24 L16.9,24 L17,24 L17.3,24 L18.6,24 L18.2,22.7 L17.3,19.8 C19,19.6 28,18.2 28,11.3 Z M11.7,5.2 C11.8,5.2 12,5.2 12.1,5.2 C12.2,5.2 12.3,5.2 12.3,5.2 C12.1,5.1 11.9,5.2 11.7,5.2 Z" opacity=".6"/>
    <ellipse cx="14.5" cy="12" fill="#FFF" rx="10.5" ry="7"/>
    <path fill="#1A237E" d="M13,18.8240278 L13,15.6 L15.5,17.3 L17.2,23 L16.8047797,22.7647498 L16.9,23 C16.9,23 1,21.3 0.9,13.7 C0.9,7 11,6.2 11,6.2 C0.1,9.5 5.1,15.4 5.1,15.4 C7.67885503,17.978855 10.8986306,18.6726496 13,18.8240278 Z M5.9,12.2 C11.7,11.4 15.9,8 16,8 L18.5,8 C14.3,12.2 10.1,13 10.1,13 L5.9,12.2 Z M11.7,14.2 C15.1,13.4 18.5,10 18.5,10 L21,10 C17.6,14.2 15.1,15 15.1,15 L11.7,14.2 Z M21.1,12 L22.8,12 C22.8,12.1 22,14.6 20.3,15 L17.8,15 C17.8,15.5 19.5,14.6 21.1,12 Z"/>
    <path fill="#8E24AA" d="M11.1,2 L12.8,6.2 C12.8,6.2 18.7,5.4 22.9,9.6 C22.9,9.6 27.9,15.5 17,18.8 C17,18.8 27.1,18 27.1,11.3 C27,3.7 11.1,2 11.1,2 Z"/>
  </g>
</svg>
