<svg viewBox="0 0 30 29" xmlns="http://www.w3.org/2000/svg">
 <g>
  <path d="m15 0c-7.9 0-14.3 6.4-14.3 14.3s6.4 14.4 14.3 14.4 14.3-6.4 14.3-14.3-6.4-14.4-14.3-14.4z" fill="#FFF" opacity=".6"/>
  <circle cx="15" cy="14.3" r="13.3" fill="#FFF"/>
  <path d="m24.7 10.6c0.7 0 1.4 0.4 1.9 1.2 0.2 0.5 0.1 0.9 0 1.4l-1.1 3.7h-1.8l1-3.6h-1.1l0.6-2.7h0.5zm-3.3 0c0.9 0 1.6 0.4 2 1.2 0.2 0.5 0.1 0.9 0 1.4l-1.1 3.7h-1.9l1-3.6h-1.1l0.6-2.7h0.5zm-3.1 0c0.8 0 1.4 0.4 2 1.2 0.2 0.5 0.1 0.9 0 1.4l-1.1 3.7h-1.9l1-3.6h-1.1l0.6-2.7h0.5zm-7.8 2.7 0.6-1.6 5.8-0.3-0.5 1.6-1.7 0.1-1.2 4.7h-2.3l1.2-4.6-1.9 0.1zm-1.8-0.9c0.6 0 1.1 0.4 1 1.1v0.7s0 1.8-1.7 1.8h-0.8l2 2.7h-2.2l-1.8-2.3-0.6 2.3h-1.9l1-3.6h5.1c0.1-0.3 0.3-0.5 0.3-0.7s-0.3-0.2-0.3-0.2h-3.2s-0.7 0-0.9 0.3c-0.8-0.6-0.4-1.8 0.5-2 0.1 0 0.4-0.1 0.4-0.1h3.1z" fill="#0D47A1"/>
 </g>
</svg>
