<svg viewBox="0 0 27 16" xmlns="http://www.w3.org/2000/svg">
 <g>
  <polygon points="26.6 6.2 19.6 0.2 19.3 0 19 0 14 0 13 0 8 0 7.7 0 7.4 0.2 0.4 6.2 0 6.5 0 7 0 9 0 9.5 0.4 9.8 7.4 15.8 7.7 16 8 16 13 16 14 16 19 16 19.3 16 19.6 15.8 26.6 9.8 27 9.5 27 9 27 7 27 6.5" fill="#FFF" opacity=".6"/>
  <polygon points="19 1 14 1 13 1 8 1 1 7 1 9 8 15 13 15 14 15 19 15 26 9 26 7" fill="#FFF"/>
  <path transform="translate(1 1)" d="m17 11 3-3h5l-7 6h-5-1-5l-7-6h5l3 3h3v-3h1 1 1v3h3zm-9-8-3 3h-5l7-6h5 1 5l7 6h-5l-3-3h-3v3h-1-1-1v-3h-3z" fill="#FF6F00"/>
 </g>
</svg>
