<svg width="29" height="29" viewBox="0 0 29 29">
  <g fill="none">
    <path fill="#FFF" d="M14.5,0.5 C6.8,0.5 0.5,6.8 0.5,14.5 C0.5,22.2 6.8,28.5 14.5,28.5 C22.2,28.5 28.5,22.2 28.5,14.5 C28.5,6.8 22.2,0.5 14.5,0.5 Z" opacity=".6"/>
    <path fill="#1E88E5" d="M14.5,27.7 C7.2,27.7 1.3,21.8 1.3,14.5 C1.3,7.2 7.2,1.3 14.5,1.3 C21.8,1.3 27.7,7.2 27.7,14.5 C27.7,21.8 21.8,27.7 14.5,27.7 Z"/>
    <path fill="#FFF" d="M20.5356763,18.5947379 C22.4014958,17.7927798 24.2,17.5 24.2,17.5 L19.9,21.1 L19.5857143,21 L15.6,21 L17.7912621,12.7087379 L13.4,17.1 L11.7,13.7 L11.1984223,12.6816453 L9,21 L4.7,21 L8.4,7 L12.7,7 L12.7264404,7 L15.020324,10.7728723 L19.3,7 L23.6,7 L20.5356764,18.5947379 Z"/>
  </g>
</svg>
