<svg width="28" height="28" viewBox="0 0 28 28">
  <g fill="none">
    <circle cx="14" cy="14" r="13" fill="#C41F38"/>
    <path fill="#FFF" d="M14,1.1 C21.1,1.1 26.9,6.9 26.9,14 C26.9,21.1 21.1,26.9 14,26.9 C6.9,26.9 1.1,21.1 1.1,14 C1.1,6.9 6.9,1.1 14,1.1 Z M14,0 C6.3,0 0,6.3 0,14 C0,21.7 6.3,28 14,28 C21.7,28 28,21.7 28,14 C28,6.3 21.7,0 14,0 Z" opacity=".6"/>
    <circle cx="14" cy="14" r="13" fill="#1E88E5"/>
    <g fill="#FFF" transform="translate(4 8)">
      <path d="M3.6,8.2 C3.9,8.2 4.1,8.1 4.3,7.9 C4.5,7.7 4.6,7.5 4.7,7.2 L6.8,7.2 C6.7,8 6.3,8.7 5.7,9.2 C5.1,9.7 4.3,9.9 3.4,9.9 C2.3,9.9 1.5,9.6 1,8.9 C0.5,8.2 0.3,7.3 0.5,6.2 L0.5,6 C0.7,4.9 1.1,4 1.8,3.3 C2.5,2.6 3.4,2.3 4.5,2.3 C5.4,2.3 6.1,2.6 6.6,3.1 C7.1,3.6 7.3,4.3 7.1,5.2 L5,5.2 C5.1,4.8 5,4.6 4.9,4.3 C4.8,4.1 4.6,4 4.2,4 C3.8,4 3.4,4.2 3.2,4.5 C3,5 2.8,5.5 2.7,6.1 L2.7,6.3 C2.6,6.9 2.6,7.4 2.7,7.8 C2.9,8 3.1,8.2 3.6,8.2 Z M11.3,0.6 L11,2.5 L12.2,2.5 L12,4.1 L10.8,4.1 L10.3,7.5 C10.3,7.8 10.3,8 10.4,8.1 C10.5,8.2 10.6,8.3 10.8,8.3 C10.9,8.3 11,8.3 11.1,8.3 C11.2,8.3 11.3,8.3 11.4,8.2 L11.3,9.9 C11.1,10 10.9,10 10.7,10 C10.5,10 10.3,10 10,10 C9.3,10 8.7,9.8 8.4,9.4 C8.1,9 8,8.4 8.1,7.5 L8.6,4.1 L7.6,4.1 L7.8,2.5 L8.8,2.5 L9,0.6 L11.3,0.6 Z M16.4,9.8 C16.3,9.6 16.3,9.5 16.3,9.3 C16.3,9.1 16.2,8.9 16.2,8.7 C15.9,9.1 15.7,9.4 15.3,9.6 C14.9,9.8 14.6,9.9 14.1,9.9 C13.4,9.9 12.8,9.7 12.4,9.3 C12,8.9 11.9,8.4 12,7.7 C12.1,6.9 12.5,6.4 13.1,6 C13.7,5.6 14.6,5.4 15.7,5.4 L16.6,5.4 L16.7,4.9 C16.7,4.6 16.7,4.3 16.6,4.2 C16.5,4 16.3,4 16,4 C15.7,4 15.5,4.1 15.4,4.2 C15.3,4.3 15.2,4.5 15.1,4.8 L12.9,4.8 C13,4.1 13.3,3.5 14,3.1 C14.6,2.7 15.5,2.4 16.4,2.4 C17.3,2.4 18,2.6 18.5,3.1 C19,3.6 19.2,4.2 19.1,5 L18.7,7.8 C18.6,8.2 18.6,8.6 18.6,8.9 C18.6,9.2 18.7,9.6 18.7,9.9 L16.4,9.8 Z M15,8.3 C15.3,8.3 15.5,8.2 15.8,8.1 C16.1,8 16.2,7.8 16.3,7.6 L16.4,6.6 L15.5,6.6 C15.2,6.6 14.9,6.7 14.7,6.9 C14.5,7.1 14.4,7.3 14.3,7.6 C14.3,7.8 14.3,8 14.4,8.1 C14.6,8.2 14.8,8.3 15,8.3 Z"/>
    </g>
  </g>
</svg>
