<?xml version="1.0" encoding="UTF-8" standalone="no"?>
<svg width="19px" height="10px" viewBox="0 0 19 10" version="1.1" xmlns="http://www.w3.org/2000/svg" xmlns:xlink="http://www.w3.org/1999/xlink" xmlns:sketch="http://www.bohemiancoding.com/sketch/ns">
    <!-- Generator: Sketch 3.3.3 (12072) - http://www.bohemiancoding.com/sketch -->
    <title>subway-minsk-m</title>
    <desc>Created with Sketch.</desc>
    <defs></defs>
    <g id="Subways" stroke="none" stroke-width="1" fill="none" fill-rule="evenodd" sketch:type="MSPage">
        <g id="subway-minsk-m" sketch:type="MSLayerGroup">
            <path d="M1,0 L6.66666667,0 L7.09771316,0 L7.39367982,0.313376467 L9.5,2.5 L11.6063202,0.313376467 L11.9022868,0 L12.3333333,0 L18,0 L19,0 L19,1 L19,8 L19,9 L18,9 L12.3333333,9 L11.3333333,9 L9.5,10 L7.66666651,9 L6.66666667,9 L1,9 L0,9 L0,8 L0,1 L0,0 L1,0 Z" id="Shape" fill="#FFFFFF" sketch:type="MSShapeGroup"></path>
            <path d="M1,1 L6.66666667,1 L9.5,4 L12.3333333,1 L18,1 L18,8 L13,8 L13,6 L9.5,9 L6,6 L6,8 L1,8 L1,1 Z" id="Rectangle-400-Copy-4" fill="#C81D17" sketch:type="MSShapeGroup"></path>
        </g>
    </g>
</svg>