<svg viewBox="0 0 29 23" xmlns="http://www.w3.org/2000/svg">
 <g fill="none">
  <ellipse cx="14.5" cy="11.5" rx="14.5" ry="11.5" fill="#FFF" opacity=".6"/>
  <g transform="translate(1 1)">
   <path d="m13.5 20.5c-7.2 0-13-4.5-13-10s5.8-10 13-10 13 4.5 13 10-5.8 10-13 10z" fill="#FFF"/>
   <path d="m13.5 0.9c6.9 0 12.6 4.3 12.6 9.6s-5.6 9.6-12.6 9.6-12.6-4.3-12.6-9.6 5.7-9.6 12.6-9.6zm0-0.9c-7.5 0-13.5 4.7-13.5 10.5s6 10.5 13.5 10.5 13.5-4.7 13.5-10.5-6-10.5-13.5-10.5z" fill="#D50000"/>
  </g>
  <path d="m20.8 5.3 3.2 6.4-3.2 6.3-3.1-6.3 3.1-6.4zm-12.6 0 3.1 6.4-3.1 6.3-3.2-6.3 3.2-6.4zm6.3 0 3.2 6.4-3.2 6.3-3.2-6.3 3.2-6.4z" fill="#D50000"/>
 </g>
</svg>
