<svg width="23" height="16" viewBox="0 0 23 16">
  <g fill="none">
    <path fill="#FFF" d="M22.6,7.6 L15.9,2.6 C15.9,2.6 15.9,2.6 15.8,2.6 C15.9,2.3 15.8,2 15.5,1.7 L15,1.2 C15,1 14.7,0.9 14.5,0.9 C14.2,0.9 14,1 13.8,1.2 L13.3,1.7 L13.3,1.2 C13.3,0.6 12.9,0.2 12.3,0.2 L11.6,0.2 C11,0.2 10.6,0.6 10.6,1.2 L10.6,1.7 L10.1,1.2 C9.9,1 9.6,0.9 9.4,0.9 C9.1,0.9 8.9,1 8.7,1.2 L8.2,1.7 C7.9,2 7.9,2.3 7.9,2.6 C7.9,2.6 7.9,2.6 7.8,2.6 L1.1,7.6 C0.9,7.8 0.8,8.1 0.8,8.5 C0.8,8.8 1,9.1 1.3,9.3 L11.4,15.7 C11.6,15.8 11.7,15.9 11.9,15.9 C12.1,15.9 12.3,15.8 12.4,15.7 L22.5,9.3 C22.8,9.1 23,8.8 23,8.5 C23,8.1 22.9,7.8 22.6,7.6 Z" opacity=".6"/>
    <g transform="translate(1 3)">
      <polygon fill="#FFF" points="19.8 5.4 10.9 11 2 5.4 7.5 1.3 10.9 3.6 14.3 1.3"/>
      <path fill="#E0111C" d="M10.9,11.8 L0.8,5.4 L7.5,0.4 L11,2.7 L14.5,0.4 L21.2,5.4 L10.9,11.8 Z M3.2,5.3 L10.9,10.2 L18.6,5.3 L14.3,2.1 L10.9,4.4 L7.5,2.1 L3.2,5.3 Z"/>
    </g>
    <rect width="1" height="2.1" x="9.219" y="1.915" fill="#E0111C" transform="rotate(135 9.72 2.965)"/>
    <rect width="1" height="2.1" x="13.526" y="1.977" fill="#E0111C" transform="rotate(45 14.026 3.027)"/>
    <rect width="1" height="2.1" x="11.6" y="1.2" fill="#E0111C"/>
  </g>
</svg>
