<svg width="24" height="24" viewBox="0 0 24 24">
  <g fill="none">
    <path fill="#FFF" d="M12,24 C5.4,24 0,18.6 0,12 C0,5.4 5.4,0 12,0 C18.6,0 24,5.4 24,12 C24,18.6 18.6,24 12,24 Z" opacity=".6"/>
    <circle cx="12" cy="12" r="11" fill="#FFF"/>
    <path fill="#880E4F" d="M19.2,6 L19.2,18 C19.2,18.6 18.7,19.1 18,19.1 C17.8,19.1 17.6,19.1 17.4,19 C17.1,18.8 16.8,18.4 16.8,18 L16.8,10.5 L13,17.5 C12.6,18.2 11.4,18.2 11,17.5 L8,12 L7.2,10.4 L7.2,18 C7.2,18.6 6.7,19.1 6,19.1 C5.3,19.1 4.8,18.6 4.8,18 L4.8,6 C4.8,5.5 5.2,5 5.7,4.9 C6.2,4.8 6.8,5 7,5.5 L9.5,10 L12,14.6 L14.5,10 L17,5.5 C17.3,5 17.8,4.8 18.3,4.9 C18.8,5 19.2,5.5 19.2,6 Z M14.1,5.7 L12.5,8.7 C12.3,9.1 11.7,9.1 11.5,8.7 L9.9,5.7 C9.7,5.4 9.9,5 10.3,5 L13.7,5 C14.1,5 14.3,5.4 14.1,5.7 Z"/>
    <rect width="2" height="2" x="6" y="9" fill="#880E4F"/>
    <rect width="1" height="2" x="16" y="9" fill="#880E4F"/>
  </g>
</svg>
