<svg version="1.1" viewBox="0 0 18 18" xmlns="http://www.w3.org/2000/svg">
    <circle cx="9" cy="9" r="9" fill="#ffffff" opacity=".6"/>
    <path d="m17.210817 9.0000005c0 4.5345955-3.67617 8.2109685-8.2110706 8.2109685-4.5346977 0-8.2105634-3.676373-8.2105634-8.2109692 0-4.5349003 3.6758657-8.2109689 8.2105634-8.2109689 4.5349006 0 8.2110706 3.6760686 8.2110706 8.2109689" fill="#f6cd19"/>
    <path d="m4.4497677 6.4469454c-.7506399 0-1.2362146.4252823-1.2362146 1.0820414 0 .3001144.084984.5304284.2588413.7043875.1588361.1535579.3835454.2491394.6874145.2942021l.4130145.057993c.1633016.024666.2268691.059586.2814722.1103263.060693.056632.093353.1450741.093353.2574271 0 .1994324-.1078416.3212469-.2319671.3946262-.067696.033697-.1462877.053032-.2362103.055162h-.632252c-.1364063-.0031144-.2490664-.0443208-.3323919-.1173988l-1.2616742-1.2616736c-.2332303-.2042042-.539446-.2659138-.8189569-.2659138h-.55162891c-.0306506.2017679-.051051.4075298-.0664784.6138638h.69448661c.1423942.00159.2600708.044096.3451216.1216414l1.2630888 1.2645038c.01289.012891.222326.2574262.7425775.2574262h.6082062c.2925019 0 .613292-.066959.8500744-.2956164.2317077-.1894871.3649237-.4604362.3649237-.7850108 0-.3279222-.0928167-.5831622-.2772289-.7581358-.1583285-.1471648-.3673517-.2316712-.6775134-.2743999l-.4045278-.0579916c-.1205734-.0164413-.2285299-.0624585-.2956165-.1244702-.0762211-.0712479-.0876949-.1650595-.0876949-.2149938 0-.2415528.1867491-.3917981.4879794-.3917981.2171944 0 .4677411.025875.6746847.2234805l.0282883.0282868.4837364-.4766621-.0311177-.0297034c-.2942267-.2843819-.644159-.4115998-1.1357896-.4115998zm4.1046853.0594061v3.5106225h.688829v-.176804c.1583281.1434091.3380402.205093.5841604.205093.2520066 0 .4912396-.08843.6407386-.2376251.267027-.267331.267327-.723333.267327-1.0891133 0-.3637486-3e-4-.8160217-.267327-1.0834556-.149499-.1492953-.388732-.2376248-.6407386-.2376248-.2375943 0-.4168827.058913-.5657732.1909486v-1.0820412zm3.285728.2347959-.710046.2149938v.5403135h-.212164v.5601159h.212164v1.200854c0 .3777555.238036.7581364.769452.7581364h.63791l-.04951-.066481c-.107679-.1413791-.190287-.314304-.246108-.5148546l-.0085-.031118h-.219238c-.120876 0-.173975-.056197-.173975-.1838769v-1.1626635h.492223l.0085-.029706c.05044-.1731465.122744-.3299575.21358-.4653484l.04385-.065061h-.758136zm1.811889.6251798c-.699589 0-1.134376.5073058-1.134376 1.3224948 0 1.2525216.849502 1.326739 1.241873 1.326739h3.386153c.02497-.2022751.04532-.4059129.05516-.6124497h-3.492236c-.290269-.0063-.476084-.1861986-.492222-.4752495h1.57002v-.3210771c0-.7534818-.44524-1.2404575-1.134375-1.2404575zm-7.663399.1173977v1.5869942c0 .3323893.079769.5549169.2673278.7425769.1529496.1526448.3674075.231967.6209362.231967.2184123 0 .4272463-.073152.5855752-.205093v.176804h.6930721v-2.5332491h-.7086306v1.5007135c0 .3859787-.2892537.4158428-.3776538.4158428-.087385 0-.3719959-.029866-.3719959-.4158428v-1.5007135zm7.663399.486565c.177307 0 .312381.083674.380482.2347961.03177.074395.04494.1307677.05092.2121644h-.864218c.0063-.081397.02007-.137168.05092-.2107501.06881-.1524419.204893-.2362104.381897-.2362104zm-4.0070894.072137c.3213259 0 .3818974.2375501.3818974.6760988 0 .4414944-.060571.6817573-.3818974.6817573-.3213259 0-.3833114-.2402629-.3833114-.6817573 0-.4385487.061983-.6760988.3833114-.6760988zm1.6817614 2.7878481c-.242214.01147-.383312.198533-.383312.437059 0 .239421.150682.431402.407357.431402.20329 1e-6.346044-.132419.364924-.339464h-.176805c-.0139.109307-.07658.185291-.188119.185291-.163809 0-.226309-.138996-.226309-.277229 0-.145032.0625-.284301.226309-.284301.09074 0 .169475.06317.181048.145686h.176803c-.02192-.191821-.175367-.298445-.357851-.298445-.008 0-.01623-.00037-.02404 0zm-8.1584508.01839v.830273h.4016991c.1498032 0 .2927876-.07198.2927876-.240454 0-.103522-.050359-.181623-.1513443-.210751.07206-.03491.1117402-.09137.1117402-.172561 0-.154576-.1065764-.206508-.264499-.206508zm4.8274602 0-.3154187.830273h.1852912l.065061-.185291h.3097606l.063649.185291h.1895345l-.311175-.830276zm.5671876 0v.137201h.165489v-.137201zm3.275827 0v.137201h.164074v-.137201zm1.427163 0v.302688c-.03847-.05887-.108792-.08911-.179633-.08911-.176496 0-.265913.149801-.265913.311175 0 .165738.08849.321076.270157.321076.07652 0 .14289-.02688.181048-.09194h.0028v.07638h.157002v-.830273zm1.400289 0v.302688h-.0014c-.03847-.05887-.107378-.08911-.178219-.08911-.176496 0-.267328.149801-.267328.311175 0 .165738.08849.321076.270157.321076.07653 0 .144094-.02688.182462-.09194h.0028v.07638h.155587v-.830273zm-11.315465.142854h.1711464c.064753 0 .1258845.0157.1258845.09477 0 .06942-.048003.09901-.1117402.09901h-.1852907zm4.7355219.06224h.00282l.1032579.3041h-.2135795zm-3.1442847.0085c-.1731975.0082-.2899587.142412-.2899587.316833 0 .186036.1175465.315419.3069319.315419.1357972 0 .2347859-.06038.2814723-.202264h-.1456867c-.010454.03725-.063752.07921-.1301278.07921-.091749 0-.14243-.04822-.1471011-.152759h.4328165c.011469-.185021-.087068-.356438-.2913732-.356438-.0057 0-.011386-.000264-.016973 1e-6zm.7482352 0c-.065783.0038-.1307209.03593-.169732.09901h-.00424v-.083469h-.1570054v.601133h.1654887v-.315418c0-.121997.037884-.171147.1272989-.171147.076525 0 .1060826.04825.1060826.147101v.339464h.1654886v-.369167c0-.148484-.044162-.247526-.2192371-.247526-.00437 0-.00976-.000254-.014144 0zm.6435671 0c-.1782278.0075-.2927877.131203-.2927877.316833 0 .190806.1230079.315419.3111753.315419.1894868 0 .3111753-.124613.3111753-.315419 0-.191618-.1216885-.316833-.3111753-.316833-.00588 0-.012639-.000243-.018388 0zm.6704412 0c-.1209363.0049-.2376247.04869-.2376247.192363 0 .105957.094537.138923.189534.159831.1186451.02587.1881196.04342.1881196.09335 0 .05805-.061413.07638-.1089113.07638-.065057 0-.1249721-.02837-.1258846-.100425h-.157002c.0069.159035.1424272.210751.2814721.210751.1371167 0 .2743997-.0502.2743997-.207922 0-.111643-.09342-.147608-.1895336-.169732-.094084-.02212-.1881197-.03005-.1881197-.08911 0-.04891.05469-.05516.091938-.05516.058866 0 .1084837.01669.1131547.08062h.157002c-.013093-.147878-.1333703-.190949-.2644988-.190949-.00807 0-.015983-.000326-.024045 0zm2.2022723 0c-.074951.006-.1486421.05632-.1768037.127299h-.00282v-.11174h-.1570065v.601134h.1654889v-.270172c0-.105654.041989-.193777.1626603-.193777.019582 0 .044487.0022.059405.0056v-.152759c-.010146-.0037-.024999-.0056-.036774-.0056-.005 0-.00915-.000401-.014143 0zm.367753 0c-.1730191.0082-.2899591.142412-.2899591.316833 0 .186036.1175469.315419.3069319.315419.1358985 0 .2333694-.06038.2800579-.202264h-.1442723c-.010457.03725-.06375.07921-.1301275.07921-.091648 0-.1437357-.04822-.1485154-.152759h.4342307c.011674-.185021-.086764-.356437-.2913734-.356437-.00572 0-.011392-.000264-.016975 0zm.6393238 0c-.120831.0049-.2376253.04869-.2376253.192363 0 .105957.09585.138923.1909483.159831.118646.02587.186706.04342.186706.09335 0 .05805-.0601.07638-.107497.07638-.06526 0-.126285-.02837-.127299-.100425h-.1555881c.00681.159035.1417171.210751.2814721.210751.136711 0 .2744-.0502.2744-.207922 0-.111643-.09483-.147608-.190949-.169732-.09439-.02212-.186704-.03005-.186704-.08911 0-.04891.05489-.05516.09194-.05516.05917 0 .108375.01669.113154.08062h.155588c-.01279-.147878-.133472-.190949-.264499-.190949-.0081 0-.01599-.000326-.02404 0zm3.603976 0c-.12628.0056-.248486.05603-.257427.20085h.165488c.0059-.06485.04609-.09052.108911-.09052.05805 0 .106083.0098.106083.08062 0 .06708-.09421.06388-.195192.07921-.102406.0139-.203678.04626-.203678.182461 0 .123214.0898.179634.203678.179634.07328 0 .149992-.01915.202264-.07355.0013.01978.0072.03932.01273.05799h.166904c-.01516-.02416-.02122-.07967-.02122-.134371v-.31259c0-.143714-.143527-.169732-.263085-.169732-.0084 0-.01704-.000376-.02546 0zm-9.8373831.01556v.369166c0 .148789.045475.247526.2206516.247526.069726 0 .1419595-.03162.1838763-.09901h.00283v.08345h.1570009v-.601151h-.1654887v.315419c0 .121995-.037681.171145-.1272989.171145-.076424 0-.1060825-.04835-.1060825-.147101v-.339464zm4.5827631 0v.601134h.165489v-.601134zm3.275827 0v.601134h.164074v-.601134zm.306932 0v.369166c0 .148789.04396.247526.219237.247526.06962 0 .142062-.03162.183877-.09901h.0028v.08345h.157003v-.601144h-.165465v.315418c0 .121996-.03788.171147-.127299.171147-.07663 0-.106083-.04835-.106083-.147101v-.339464zm-7.2107797.108911c.00598-.000607.01325 0 .019802 0 .079976 0 .1151067.04346.1301279.127299h-.2673279c.00219-.04357.027691-.118209.117398-.127299zm1.3960455 0c.00637-.000724.014251 0 .021216 0 .1129616 0 .1456867.09584.1456867.192362 0 .09561-.032725.190949-.1456867.190949-.1114386 0-.1456866-.09534-.1456866-.190949 0-.09049.028957-.18145.1244706-.192362zm3.2362229 0c.00594-.000607.011862 0 .018387 0 .080284 0 .1164207.04346.1315418.127299h-.2687415c.0021-.04357.029431-.118209.1188127-.127299zm3.5445693 0c.0062-.000703.01162 0 .01839 0 .106669 0 .141444.0928.141444.190948-1e-6.09855-.03233.192363-.141444.192363-.102205 0-.145687-.09808-.145687-.192363 0-.09277.03391-.180406.1273-.190948zm1.398875 0c.0062-.000703.01303 0 .0198 0 .106872 0 .141443.0928.141443.190948 0 .09855-.03233.192363-.141443.192363-.102712 0-.145687-.09808-.145687-.192363 0-.09277.0325-.180406.125885-.190948zm-11.159878.123037h.199435c.077845 0 .1315423.03275.1315423.117397 0 .08597-.063624.110326-.1357856.110326h-.1951917zm10.589861.07496v.06224c0 .03603-.0038.1372-.132957.1372-.05318 0-.100424-.01487-.100424-.07638 0-.06069.04665-.07744.0976-.0877.05125-.0094.107875-.01091.135785-.03536z" fill="#181817"/>
</svg>
