<svg viewBox="0 0 28 18" xmlns="http://www.w3.org/2000/svg">
 <g fill="none">
  <path d="m27.2 0.4-0.1-0.1c-0.2-0.2-0.5-0.3-0.8-0.3h-7c-0.3 0-0.5 0.1-0.7 0.3l-0.6 0.7c-1.2-0.6-2.6-1-4-1-1.5 0-3 0.4-4.3 1.1l-0.7-0.8c-0.2-0.2-0.5-0.3-0.7-0.3h-7c-0.3 0-0.5 0.1-0.7 0.3l-0.2 0.1c-0.2 0.2-0.3 0.5-0.3 0.7 0 0.3 0.1 0.5 0.3 0.7l1.9 1.9c0.2 0.2 0.4 0.3 0.7 0.3 0 0.3 0.1 0.5 0.3 0.7l2 2c-0.2 0.8-0.3 1.5-0.3 2.3 0 5 4 9 9 9s9-4 9-9c0-0.9-0.1-1.7-0.4-2.6l1.7-1.7c0.2-0.2 0.3-0.4 0.3-0.7 0.3 0 0.5-0.1 0.7-0.3l1.9-1.9c0.2-0.2 0.3-0.4 0.3-0.7 0-0.2-0.1-0.5-0.3-0.7z" fill="#FFF" opacity=".6"/>
  <g transform="translate(6 1)">
   <circle cx="8" cy="8" r="8" fill="#FFF"/>
   <path d="m14.3 12.2c-1.3 2.1-3.7 3.4-6.3 3.4-2.8 0-5.2-1.5-6.5-3.7-0.5-0.8-0.8-1.7-1-2.6-0.1-0.5-0.1-0.9-0.1-1.3 0-4.2 3.4-7.6 7.6-7.6s7.6 3.4 7.6 7.6c0 0.5-0.1 1.1-0.2 1.6-0.2 0.9-0.5 1.8-1.1 2.6z" fill="#BDBDBD"/>
  </g>
  <circle cx="14" cy="9" r="5" fill="#0D47A1"/>
  <path d="m10.15 10.15-6.1503-6.1503h3v-1h-4l-1.9-1.9 0.2-0.1h7l5.52 5.52 5.58-5.52h6.9l0.2 0.1-1.9 1.9h-4v1h3l-6.1188 6.1812 0.018782 0.018782-3.6 3.7-0.050254-0.050254-0.049746 0.050254-3.7-3.7 0.05027-0.04973z" fill="#616161"/>
  <path d="m10.151 10.151-3.1508-3.1508h6.4 7.2l-3.127 3.173 0.027007 0.027007-3.6 3.7-0.050365-0.050365-0.049635 0.050365-3.7-3.7 0.050769-0.049231z" fill="#E0111C"/>
  <path d="m21.4 10.6c-0.2 0.9-0.6 1.8-1.1 2.6l-4.8-4.7-1.7 1.6-1.8-1.6-4.6 4.4c-0.5-0.8-0.8-1.7-1-2.6l5.6-5.3 1.8 1.6 1.7-1.6 5.9 5.6z" fill="#FFE103"/>
 </g>
</svg>
