<svg width="25" height="15" viewBox="0 0 25 15">
  <g fill="none">
    <path fill="#FFF" d="M23.1,3 L18.9,3 L19.9,1.6 L21,0 L19.1,0 L13.8,0 C12.3,0 11,0.7 10.1,1.9 L7.2,6 C6.7,6.6 6,7 5.2,7 L3.9,7 L3.4,7 L3.1,7.4 L1.1,10.4 L0,12 L1.9,12 L6.1,12 L5.1,13.4 L4,15 L5.9,15 L11.2,15 C12.7,15 14,14.3 14.9,13.1 L17.9,9 C18.4,8.4 19.1,8 19.9,8 L21.1,8 L21.6,8 L21.9,7.6 L23.9,4.6 L25,3 L23.1,3 Z" opacity=".6"/>
    <path fill="#0D47A1" d="M1.9,11 L3.9,8 L5.1,8 C6.3,8 7.3,7.5 8,6.5 L10.8,2.5 C11.5,1.5 12.6,1 13.7,1 L19,1 L17,4 L15.8,4 C14.7,4 13.6,4.5 13.1,5.4 L10.1,9.5 C9.4,10.5 8.3,11 7.2,11 L1.9,11 Z M5.9,14 L8,11.1 L9,11.1 C10.2,11.1 11.2,10.5 11.9,9.6 L14.9,5.5 C15.6,4.5 16.7,4 17.8,4 L23.1,4 L21.1,7 L19.9,7 C18.7,7 17.7,7.5 17.1,8.4 L14.1,12.5 C13.4,13.5 12.3,14 11.2,14 L5.9,14 Z"/>
  </g>
</svg>
