<svg width="24" height="24" viewBox="0 0 24 24">
  <g fill="none">
    <path fill="#FFF" d="M12,0 C5.4,0 0,5.4 0,12 C0,18.6 5.4,24 12,24 C18.6,24 24,18.6 24,12 C24,5.4 18.6,0 12,0 Z" opacity=".6"/>
    <path fill="#FFF" d="M12,1 C5.9,1 1,5.9 1,12 C1,18.1 5.9,23 12,23 C18.1,23 23,18.1 23,12 C23,5.9 18.1,1 12,1 Z"/>
    <path fill="#C41F38" d="M21.1305944,7.22916588 C21.1305944,7.22916588 9.21396858,9.90276782 9.90146622,14.4860854 C10.359798,17.7707964 21.818092,17.7707964 21.818092,17.7707964 C11.5056274,18.458294 5.39453723,18.3055168 4.55426234,16.4721897 C3.71398744,14.6388627 7.3042529,11.3541517 9.90146622,9.90276782 C14.4847838,7.22916588 21.1305944,7.22916588 21.1305944,7.22916588 Z M14.1792293,7 C4.93620547,10.284711 2.56815804,16.3958011 2.64454667,16.3958011 C1.8806604,16.013858 1.57510589,15.0971944 2.03343765,14.3333082 C5.70009174,8.29860666 14.1792293,7 14.1792293,7 Z"/>
  </g>
</svg>
