<svg viewBox="0 0 29 18" xmlns="http://www.w3.org/2000/svg">
 <g>
  <path d="m21.7 3h-0.1l0.8-1.5 0.6-1.5h-1.6-5.7c-1.7 0-3.3 0.9-4.2 2.3l-3.5 5.3c-0.6 0.9-1.6 1.4-2.7 1.4h-1.7-0.6l-0.3 0.5-2 4-0.7 1.5h1.6 5.7 0.1l-0.8 1.5-0.6 1.5h1.6 5.7c1.7 0 3.3-0.9 4.2-2.3l3.5-5.3c0.6-0.9 1.6-1.4 2.7-1.4h1.8 0.5l0.3-0.5 2-4 0.7-1.5h-1.6-5.7z" fill="#FFF" opacity=".6"/>
  <path d="m19.725 4.5495c0.61303-0.35125 1.3297-0.54949 2.0747-0.54949h5.7l-2 4h-1.8c-1.4 0-2.7 0.7-3.6 1.9l-3.5 5.3c-0.7 1.1-2 1.8-3.4 1.8h-5.7l1.737-3.4741c-0.5815 0.30408-1.2471 0.47407-1.937 0.47407h-5.7l2-4h1.7c1.4 0 2.7-0.7 3.5-1.8l3.6-5.4c0.7-1.1 2-1.8 3.4-1.8h5.7l-1.7747 3.5495zm-0.63414 0.45051h-1.3911c-1.4 0-2.7 0.7-3.5 1.9l-3.5 5.3c-0.18965 0.29801-0.42333 0.56667-0.69111 0.8h1.2911c1.4 0 2.7-0.7 3.6-1.9l3.5-5.3c0.18965-0.29801 0.42333-0.56667 0.69111-0.8z" fill="#0D47A1"/>
 </g>
</svg>
