<svg width="16" height="16" viewBox="0 0 16 16">
  <g fill="none" fill-rule="evenodd">
    <rect width="16" height="16" fill="#FFF" opacity=".6" rx="1.5"/>
    <rect width="14" height="14" x="1" y="1" fill="#2F6499" rx="1"/>
    <path fill="#FFF" d="M6.5,4 L5,5.14285714 L5,11.4285714 C5,11.7142857 5.25,12 5.5,12 L6.75,12 L9,12 L10.25,12 L11.5,12 C11.75,12 12,11.7142857 12,11.4285714 L12,5.14285714 L10.5,4 L6.5,4 Z M7,5.14285714 L10,5.14285714 L11,5.71428571 L11,7.42857143 L6,7.42857143 L6,5.71428571 L7,5.14285714 Z M6.5,9.71428571 C6.777,9.71428571 7,9.96914286 7,10.2857143 C7,10.6022857 6.777,10.8571429 6.5,10.8571429 C6.223,10.8571429 6,10.6022857 6,10.2857143 C6,9.96914286 6.223,9.71428571 6.5,9.71428571 L6.5,9.71428571 Z M10.5,9.71428571 C10.777,9.71428571 11,9.96914286 11,10.2857143 C11,10.6022857 10.777,10.8571429 10.5,10.8571429 C10.223,10.8571429 10,10.6022857 10,10.2857143 C10,9.96914286 10.223,9.71428571 10.5,9.71428571 L10.5,9.71428571 Z"/>
  </g>
</svg>
