<?xml version="1.0" encoding="UTF-8" standalone="no"?>
<svg width="23px" height="15px" viewBox="0 0 23 15" version="1.1" xmlns="http://www.w3.org/2000/svg" xmlns:xlink="http://www.w3.org/1999/xlink" xmlns:sketch="http://www.bohemiancoding.com/sketch/ns">
    <!-- Generator: Sketch 3.3.3 (12072) - http://www.bohemiancoding.com/sketch -->
    <title>subway-kiev-m</title>
    <desc>Created with Sketch.</desc>
    <defs></defs>
    <g id="Subways" stroke="none" stroke-width="1" fill="none" fill-rule="evenodd" sketch:type="MSPage">
        <g id="subway-kiev-m" sketch:type="MSLayerGroup">
            <path d="M8.67909918,1.44664471 L8.67909918,1.44664471 L12.3329453,6.94664471 L10.6670547,6.94664471 L14.3209008,1.44664471 L15.2494071,0.0489983499 L16.0368819,1.53069428 L21.8830358,12.5306943 L22.6639255,14 L21,14 L16.9076923,14 L16.3067039,14 L16.0246566,13.4693057 L13.8323489,9.34430572 L15.504083,9.4897803 L12.2886984,13.6147803 L11.5,14.6265973 L10.7113016,13.6147803 L7.49591698,9.4897803 L9.16765115,9.34430572 L6.97534344,13.4693057 L6.69329613,14 L6.09230769,14 L2,14 L0.336074494,14 L1.11696424,12.5306943 L6.96311809,1.53069428 L7.75059285,0.0489983499 L8.67909918,1.44664471 Z" id="Shape" fill="#FFFFFF" sketch:type="MSShapeGroup"></path>
            <path d="M7.84615385,2 L11.5,7.5 L15.1538462,2 L21,13 L16.9076923,13 L14.7153846,8.875 L11.5,13 L8.28461539,8.875 L6.09230769,13 L2,13 L7.84615385,2 Z" id="Rectangle-403" fill="#00923F" sketch:type="MSShapeGroup"></path>
        </g>
    </g>
</svg>