<?xml version="1.0" encoding="UTF-8" standalone="no"?>
<svg width="22px" height="19px" viewBox="0 0 22 19" version="1.1" xmlns="http://www.w3.org/2000/svg" xmlns:xlink="http://www.w3.org/1999/xlink">
    <!-- Generator: Sketch 3.8.3 (29802) - http://www.bohemiancoding.com/sketch -->
    <title>subway-moscow-m</title>
    <desc>Created with Sketch.</desc>
    <defs></defs>
    <g id="POI-Clear" stroke="none" stroke-width="1" fill="none" fill-rule="evenodd">
        <g id="subway-moscow-m" transform="translate(0.000000, -1.000000)">
            <path d="M11,19.0210339 L11,8.1499939 L13.7203656,2.5600347 L14.714791,0.5303093 L15.5479603,2.63137952 L19.9924927,13.785091 L21,13.785091 L22,13.785091 L22,14.7850911 L21.9999999,17.0699997 L21.9999999,18.0699998 L20.9999999,18.0699997 L14.3018444,18.0699993 L13.3018445,18.0699993 L13.3018445,17.0699993 L13.3018445,14.699118 L11.8808374,17.4670062 L11,19.0210339 Z M11,19 L11,8.1499939 L8.27963446,2.5600347 L7.28520902,0.5303093 L6.4520397,2.63137952 L2.00750736,13.785091 L1.00000004,13.785091 L-3.55271368e-15,13.785091 L3.72533044e-08,14.7850911 L1.22373709e-07,17.0699997 L1.59627017e-07,18.0699998 L1.00000018,18.0699997 L7.6981556,18.0699993 L8.69815555,18.0699993 L8.69815555,17.0699993 L8.69815555,14.699118 L10.1191627,17.4670062 L11,19 Z" id="Shape" fill="#FFFFFF"></path>
            <path d="M11.0034167,16.9870613 L13.9584565,11.3918334 L15.2016042,14.699118 L14.3018445,14.699118 L14.3018445,17.0699993 L20.9999999,17.0699997 L21,14.785091 L19.2917017,14.785091 L14.6183804,3 L11,10.3854894 L7.38161965,3 L2.70829831,14.785091 L1,14.785091 L1.00000009,17 L7.69815551,17 L7.69815551,14.699118 L6.79839578,14.699118 L8.04154346,11.3918334 L10.9965833,16.9870613 L10.9965833,17 L11,16.9935307 L11.0034167,17 L11.0034167,16.9870613 Z" id="Rectangle-60-Copy-11" fill="#D83535"></path>
        </g>
    </g>
</svg>