<svg width="28" height="19" viewBox="0 0 28 19">
  <g fill="none">
    <path fill="#FFF" d="M26.8,1.1 C26.5,0.4 25.8,0 25,0 L16.2,0 C15.1,0 14.1,0.5 13.5,1.5 L9.5,7.5 L9.3,7.8 C9.3,7.9 9.2,7.9 9.2,8 L8.2,8 C7.1,8 6.1,8.5 5.5,9.5 L1.3,15.8 C0.9,16.4 0.8,17.2 1.2,17.9 C1.5,18.6 2.2,19 3,19 L11.8,19 C12.9,19 13.9,18.4 14.5,17.5 L18.5,11.5 L18.7,11.1 C18.7,11 18.8,11 18.8,10.9 L19.7,10.9 C20.8,10.9 21.8,10.3 22.4,9.4 L26.6,3.1 C27.2,2.6 27.2,1.8 26.8,1.1 Z" opacity=".6"/>
    <path fill="#C41F38" d="M10,9 L19.5,9 C19.8,9 20,8.8 20,8.6 C20,8.3 19.9,8.1 19.7,8 C19.6,8 16.8,7.1 15.9,5.2 C15.7,5 15.4,4.9 15.2,5 C15,5.2 14.9,5.5 15,5.7 C15.5,6.7 16.4,7.5 17.3,8 L10.3,8 L14.3,2 C14.7,1.4 15.4,1 16.2,1 L25,1 C25.9,1 26.4,1.9 25.9,2.6 L21.7,9 C21.3,9.6 20.6,10 19.8,10 L18.1,10 L8.5,10 C8.3,10 8,10.1 8,10.4 C8,10.7 8.1,10.9 8.3,11 C8.4,11 11.2,11.9 12.1,13.7 C12.2,13.9 12.4,14 12.6,14 C12.7,14 12.7,14 12.8,14 C13,13.8 13.1,13.5 13,13.3 C12.5,12.3 11.6,11.5 10.7,11 L17.7,11 L13.7,17 C13.3,17.6 12.6,18 11.8,18 L3,18 C2.2,18 1.7,17.1 2.1,16.4 L6.3,10 C6.7,9.4 7.4,9 8.2,9 L10,9 Z"/>
  </g>
</svg>
