<svg width="36" height="24" viewBox="0 0 36 24">
  <g fill="none">
    <path fill="#FFF" d="M34.1,15.8 L33.5,15.8 C33.4,15.5 33.4,15.3 33.3,15 L33.3,14.9 L33.3,14.8 C33.2,14.4 33,13.9 32.8,13.5 C32.8,13.4 32.7,13.3 32.7,13.2 C32.5,12.7 32.3,12.3 32.1,11.9 L32,11.9 C31.8,11.5 31.6,11.1 31.3,10.8 L31.3,10.7 L31.2,10.5 C30.9,10.1 30.7,9.8 30.4,9.4 L30.3,9.2 L30.2,9.1 C29.9,8.7 29.6,8.4 29.3,8.1 L29.2,8 C28.9,7.7 28.6,7.4 28.2,7.1 C28.1,7.2 28,7.1 27.9,7 C27.5,6.7 27.2,6.4 26.8,6.2 L26.7,6.1 L26.6,6.1 C26.3,5.9 25.9,5.7 25.5,5.4 L25.4,5.4 C25.3,5.4 25.3,5.3 25.2,5.3 C24.8,5.1 24.4,4.9 24,4.7 L23.8,4.6 L23,2.4 L22.4,1 L21.3,2.1 L19.9,3.5 C19.7,3.5 19.5,3.4 19.3,3.4 C19.2,3.4 19.2,3.4 19.1,3.4 L19,3.4 C18.5,3.4 18.1,3.3 17.6,3.3 C17.5,3.3 17.5,3.3 17.4,3.3 C16.9,3.3 16.4,3.3 15.8,3.4 C15.7,3.4 15.6,3.4 15.5,3.4 C15.1,3.4 14.7,3.5 14.3,3.6 L12.8,1.8 L11.7,0.5 L11.1,2.1 L10.1,5 C5.7,7 2.5,11 1.5,15.8 L1.1,15.8 L0.1,15.8 L0.1,16.8 L0.1,18.8 L0.1,19.8 L1,19.8 C1,19.8 1,19.9 1,19.9 C1,20.3 1,20.6 1,20.9 L1.1,21.8 L2,21.8 L15.8,21.8 L16,22.1 L16.9,23.6 L17.8,22.1 L18,21.8 L33,21.8 L33.9,21.8 L34,20.9 C34,20.6 34,20.2 34,19.8 L34.1,19.8 L35.1,19.8 L35.1,18.8 L35.1,16.8 L35.1,15.8 L34.1,15.8 Z" opacity=".6"/>
    <g transform="translate(1 2)">
      <g transform="translate(0 2)">
        <g transform="translate(1)">
          <path fill="#FFF" d="M0.1,16.8 C2.08166817e-16,16.2 0.1,15.6 0.1,14.9 C0.3,9 3.8,3.7 9.3,1.5 C20.4,-2.9 31,5.2 31,15.8 C31,16.1 31,16.5 31,16.8 L0.1,16.8 Z"/>
          <path fill="#20287D" d="M15.5,1.3 C23.5,1.3 30,7.8 30,15.8 L1,15.8 C1,15.5 1,15.3 1,15 C1.1,9.4 4.5,4.5 9.5,2.5 C11.5,1.7 13.5,1.3 15.5,1.3 Z M15.5,0.3 C13.2,0.3 10.9,0.8 8.5,1.9 C3.4,4.2 0.2,9.3 0,14.9 C0,15.6 0,16.2 0,16.8 L31,16.8 C31,16.5 31,16.1 31,15.8 C31,7.3 24.1,0.3 15.5,0.3 Z"/>
        </g>
        <rect width="33" height="2" x=".1" y="12.8" fill="#20287D"/>
      </g>
      <g transform="translate(6)">
        <polygon fill="#D50000" points="18.4 14.8 15.4 14.8 14.2 8.8 9.9 19.5 5.8 9 4.7 14.8 1.6 14.8 5.3 1.1 10 10.6 14.8 1.3"/>
        <path fill="#FFF" d="M10,10.6 L14.8,2.2 L18.4,14.8 L15.4,14.8 L14.2,8.8 L9.9,18.4 L5.8,9 L4.6,14.8 L1.6,14.8 L5.3,2 L10,10.6 Z M0.7,14.6 L0.4,15.8 L1.6,15.8 L4.6,15.8 L5.4,15.8 L5.6,15 L6,12.9 L9.8,19.6 L13.9,12.6 L14.4,15 L14.6,15.8 L15.4,15.8 L18.4,15.8 L19.6,15.8 L19.3,14.6 L15.1,0.8 L10,7.8 L5.1,0.5 L0.7,14.6 Z"/>
      </g>
    </g>
  </g>
</svg>
