<svg width="25" height="26" viewBox="0 0 25 26">
  <g fill="none">
    <path fill="#FFF" d="M16.6,2 C15.9,1.3 15,0.9 13.9,0.9 C12.9,0.9 12,1.3 11.4,1.9 L1.1,11.9 L0.4,12.6 L1.1,13.3 L3,15.4 L3,16 L3,17 L4,17 L4.1,17 L5,18.5 L5.3,19 L5.9,19 L6.7,19 L12.4,25 L13.1,25.7 L13.8,25 L24,15 C24.7,14.4 25,13.5 25,12.6 L25,12.3 C25,11.5 24.7,10.7 24.1,10 L16.6,2 Z" opacity=".6"/>
    <path fill="#FFF" d="M23.4,10.7 L15.9,2.6 C15,1.6 13.1,1.5 12.1,2.5 L1.8,12.5 L4,15 L4,16 L4.6,16 L5.8,18 L7,18 L13,24.3 L23.3,14.3 C23.8,13.8 24,13.3 24,12.6 L24,12.3 C24,11.7 23.8,11.2 23.4,10.7 Z"/>
    <path fill="#FFF" stroke="#0FA9E7" d="M3,12.5 L7.1,12.5 L13.5,6.3 L19.9,12.5 L13.5,18.7 L13.5,23.1 L22.9,13.9 C23.3,13.5 23.5,13.1 23.5,12.6 L23.5,12.3 C23.5,11.8 23.3,11.4 23,11 L15.5,3 C15.1,2.6 14.5,2.3 13.9,2.3 C13.3,2.3 12.8,2.5 12.4,2.9 L2.1,12.9"/>
    <path fill="#232E7C" d="M16 14.9L16 14.4C16 13.5 15.4 12.6 14.5 12.3 13.5 12 12.6 12.4 12.1 13.1L9.4 13.1 13.9 8.7 18.2 12.9 16 14.9zM11.7 14L3.4 14 5.8 18 11.8 18C13 18 14 16.9 13.8 15.7 13.7 14.7 12.7 14 11.7 14zM13.4 16L12 16 12 14 12.5 14 13.4 16z"/>
    <rect width="4" height="1" x="12" y="12" fill="#232E7C"/>
    <rect width="5" height="1" x="4" y="15" fill="#9CA4D9"/>
  </g>
</svg>
