<svg width="24" height="24" viewBox="0 0 24 24">
  <g fill="none">
    <path fill="#FFF" d="M12,0 C5.4,0 0,5.4 0,12 C0,18.6 5.4,24 12,24 C18.6,24 24,18.6 24,12 C24,5.4 18.6,0 12,0 Z" opacity=".6"/>
    <circle cx="12" cy="12" r="10" fill="#FFF"/>
    <path fill="#1A237E" d="M12,2.7 C17.1,2.7 21.3,6.9 21.3,12 C21.3,17.1 17.1,21.3 12,21.3 C6.9,21.3 2.7,17.1 2.7,12 C2.7,6.9 6.9,2.7 12,2.7 Z M12,1 C5.9,1 1,5.9 1,12 C1,18.1 5.9,23 12,23 C18.1,23 23,18.1 23,12 C23,5.9 18.1,1 12,1 Z"/>
    <path fill="#1A237E" d="M10,12.975 C9.875,12.875 9.8,12.7 9.8,12.5 C9.8,12.3 9.875,12.125 10,12.025 L10,9.5 C10,9.5 10.1,8.8 10.5,9 L13.5,9 C13.9,8.8 14.2,9.1 14.2,9.5 C14.2,9.9 13.9,10.2 13.5,10 L11,10 L11,12 L12.5,12 C12.9,11.8 13.2,12.1 13.2,12.5 C13.2,12.9 12.9,13.2 12.5,13 L11,13 L11,14 L13.5,14 C13.9,13.8 14.2,14.1 14.2,14.5 C14.2,14.9 13.9,15.2 13.5,15 L10.5,15 C10.1,15.2 10,14.5 10,14.5 L10,12.975 Z M6.14570947,13 L6,13 L6,14.5 C6.2,14.9 5.9,15.2 5.5,15.2 C5.1,15.2 4.8,14.9 5,14.5 L5,9.5 C4.8,9.1 5.1,8.8 5.5,8.8 C5.7,8.8 5.875,8.875 5.975,9 L6.8,9 C7.8,9 8.8,9.7 8.9,10.7 C9.14731327,11.6892531 8.51114866,12.6105463 7.60777638,12.9036341 L8.4,14.2 C8.6,14.5 8.5,14.9 8.2,15.1 C8.1,15.1 8,15.2 7.9,15.2 C7.7,15.2 7.5,15.1 7.3,14.9 L6.2,13.1 C6.17846734,13.067701 6.16041209,13.0342429 6.14570947,13 Z M16.1457095,13 L16,13 L16,14.5 C16.2,14.9 15.9,15.2 15.5,15.2 C15.1,15.2 14.8,14.9 15,14.5 L15,9.5 C14.8,9.1 15.1,8.8 15.5,8.8 C15.7,8.8 15.875,8.875 15.975,9 L16.8,9 C17.8,9 18.8,9.7 18.9,10.7 C19.1473133,11.6892531 18.5111487,12.6105463 17.6077764,12.9036341 L18.4,14.2 C18.6,14.5 18.5,14.9 18.2,15.1 C18.1,15.1 18,15.2 17.9,15.2 C17.7,15.2 17.5,15.1 17.3,14.9 L16.2,13.1 C16.1784673,13.067701 16.1604121,13.0342429 16.1457095,13 Z M16,12 L17,12 C17.5,11.9 17.9,11.5 17.9,11 C17.9,10.5 17.5,10.1 17,10 L16,10 L16,12 Z M6,12 L7,12 C7.5,11.9 7.9,11.5 7.9,11 C7.9,10.5 7.5,10.1 7,10 L6,10 L6,12 Z"/>
  </g>
</svg>
