<svg width="28" height="29" viewBox="0 0 28 29">
  <g fill="none">
    <path fill="#FFF" d="M14,0.3 C6.3,0.3 0,6.6 0,14.3 C0,22 6.3,28.3 14,28.3 C21.7,28.3 28,22 28,14.3 C28,6.6 21.7,0.3 14,0.3 Z" opacity=".6"/>
    <circle cx="14" cy="14.3" r="12" fill="#FFF"/>
    <path fill="#2E7D32" d="M14,3.3 C20.1,3.3 25,8.2 25,14.3 C25,20.4 20.1,25.3 14,25.3 C7.9,25.3 3,20.4 3,14.3 C3,8.2 7.9,3.3 14,3.3 Z M14,1.3 C6.8,1.3 1,7.1 1,14.3 C1,21.5 6.8,27.3 14,27.3 C21.2,27.3 27,21.5 27,14.3 C27,7.1 21.2,1.3 14,1.3 Z"/>
    <path fill="#0D47A1" d="M8.11111111,11.3 L7,11.3 L7,9.3 L9,9.3 L14,18.3 L12,18.3 L8.11111111,11.3 Z M12.1111111,11.3 L11,11.3 L11,9.3 L13,9.3 L18,18.3 L16,18.3 L12.1111111,11.3 Z M16.1111111,11.3 L15,11.3 L15,9.3 L17,9.3 L22,18.3 L20,18.3 L16.1111111,11.3 Z M7.5,16.3 C6.67157288,16.3 6,15.6284271 6,14.8 C6,13.9715729 6.67157288,13.3 7.5,13.3 C8.32842712,13.3 9,13.9715729 9,14.8 C9,15.6284271 8.32842712,16.3 7.5,16.3 Z"/>
  </g>
</svg>
