<svg width="24" height="24" viewBox="0 0 24 24">
  <g fill="none">
    <circle cx="12" cy="12" r="12" fill="#FFF" opacity=".6"/>
    <circle cx="12" cy="12" r="11" fill="#1565C0"/>
    <path fill="#FFF" d="M9.59642393,9.73884255 C9.887053,8.89652389 10.2780587,8.09653186 10.7564683,7.35262667 C9.35891458,5.74595537 7.396319,4.59340828 5.122847,4.18418332 L5.477153,2.21581668 C8.07042536,2.6826057 10.3342003,3.9586763 12.0031897,5.74878361 C13.6262284,4.00410583 15.8074853,2.73946968 18.2960457,2.22101958 L18.7039543,4.17898042 C16.5136463,4.63529457 14.6148747,5.78133019 13.2504102,7.35283372 C13.7271238,8.09524682 14.116409,8.89416695 14.4057175,9.73562891 C15.9091644,7.48052594 18.4759082,6 21.4,6 L22,6 L22,8 L21.4,8 C17.8522847,8 15,10.8522847 15,14.4 L15,23 L13,23 L13,14.4 L13,13.3 C13,11.8316329 12.6434037,10.4338586 12.002931,9.18942055 C11.3593596,10.4354195 11,11.8328785 11,13.3 L11,23 L9,23 L9,14.4 C9,10.8522847 6.14771525,8 2.6,8 L2,8 L2,6 L2.6,6 C5.52548059,6 8.09327365,7.4819326 9.59642393,9.73884255 Z"/>
  </g>
</svg>
