<svg width="24" height="24" viewBox="0 0 24 24">
  <g fill="none">
    <rect width="24" height="24" fill="#FFF" opacity=".6"/>
    <rect width="22" height="22" x="1" y="1" fill="#FFF"/>
    <path fill="#00BFA5" d="M15.3,7 L10.3,14.8 C10,15.2 9.7,15.3 9.5,15.4 C9.3,15.4 8.9,15.5 8.5,15.2 C8.1,15 8,14.6 8,14.4 C8,14.2 7.9,13.8 8.2,13.4 L12.2,7 L14.7,3 L8.3,3 L8,3.4 L3.5,10.5 C2.5,12 2.2,13.9 2.6,15.6 C3,17.4 4.1,18.9 5.6,19.9 C6.7,20.6 8,21 9.2,21 C9.7,21 10.2,20.9 10.7,20.8 C12.5,20.4 14,19.3 15,17.8 L21.8,7 L15.3,7 Z"/>
  </g>
</svg>
