<svg viewBox="0 0 18 19" xmlns="http://www.w3.org/2000/svg">
 <g fill="none">
  <path d="m18 8.9c0-0.5-0.1-1.1-0.3-1.7 0-0.2-0.1-0.4-0.2-0.5-1.1-3.7-4.6-6.2-8.5-6.2s-7.4 2.5-8.6 6.2c0 0.2-0.1 0.3-0.1 0.5-0.2 0.7-0.3 1.2-0.3 1.7v0.5c0 3.8 2.4 7.2 6 8.5l0.1 0.1c0.1 0 0.3 0.1 0.4 0.1 0.8 0.2 1.6 0.3 2.4 0.3s1.7-0.1 2.4-0.3c0.1 0 0.3-0.1 0.4-0.1l0.2-0.1c3.6-1.3 6-4.7 6-8.5 0.1-0.1 0.1-0.3 0.1-0.5z" fill="#FFF" opacity=".6"/>
  <g transform="translate(1 1)">
   <path d="m16 8.5c0 3.5-2.2 6.4-5.3 7.5-0.2 0.1-0.3 0.1-0.5 0.1-0.7 0.2-1.4 0.3-2.2 0.3s-1.5-0.1-2.2-0.3c-0.2 0-0.3-0.1-0.5-0.1-3.1-1.1-5.3-4.1-5.3-7.5v-0.5c0-0.5 0.1-1 0.2-1.5 0-0.2 0.1-0.3 0.1-0.5 1-3.2 4-5.5 7.6-5.5s6.6 2.3 7.6 5.5c0 0.1 0.1 0.3 0.1 0.5 0.3 0.5 0.4 1 0.4 1.5v0.5z" fill="#F50000"/>
   <path d="m10.2 16.1c-0.7 0.2-1.4 0.3-2.2 0.3s-1.5-0.1-2.2-0.3l1.2-8.1h2l1.2 8.1zm5.8-8.1h-7v-2h6.6c0 0.1 0.1 0.3 0.1 0.5 0.2 0.5 0.3 1 0.3 1.5zm-9-2v2h-7c0-0.5 0.1-1 0.2-1.5 0-0.2 0.1-0.3 0.1-0.5h6.7z" fill="#FFF"/>
  </g>
 </g>
</svg>
