<svg width="30" height="30" viewBox="0 0 30 30">
  <g fill="none">
    <path fill="#FFF" d="M15,0.5 C7,0.5 0.5,7 0.5,15 C0.5,23 7,29.5 15,29.5 C23,29.5 29.5,23 29.5,15 C29.5,7 23,0.5 15,0.5 Z" opacity=".6"/>
    <path fill="#FFF" d="M15,1.5 C7.6,1.5 1.5,7.6 1.5,15 C1.5,22.4 7.6,28.5 15,28.5 C22.4,28.5 28.5,22.4 28.5,15 C28.5,7.6 22.4,1.5 15,1.5 Z"/>
    <circle cx="15" cy="15" r="10.5" fill="#0D47A1"/>
    <path fill="#FFF" d="M17,16.0300712 L20.5150356,12.5150356 L22.4849644,14.4849644 L15,21.9699288 L7.51503561,14.4849644 L9.48496439,12.5150356 L13,16.0300712 L13,4 L17,4 L17,16.0300712 Z M15.0300712,18 L14.9699288,18 L15,18.0300712 L15.0300712,18 Z"/>
  </g>
</svg>
