<svg width="30" height="30" viewBox="0 0 30 30">
  <g fill="none">
    <polygon fill="#FFF" points="25 10.6 25 5 19.4 5 15 .7 10.7 5 5 5 5 10.7 .7 15 5 19.4 5 25 10.6 25 15 29.4 19.4 25 25 25 25 19.4 29.4 15" opacity=".6"/>
    <polygon fill="#212121" points="24 19.6 28.2 15.4 24 11.2 24 6 18.8 6 15.3 2.4 11.7 6 6 6 6 11.7 2.3 15.4 6 19.1 6 24 10.9 24 15.3 28.4 19.6 24 24 24"/>
    <path fill="#D50000" d="M12.5,18.5 L12,18 L12,23 L7,23 L7,13 L12,13 L15,16 L18,13 L23,13 L23,23 L18,23 L18,18 L15,21 L12.5,18.5 Z"/>
    <path fill="#BDBDBD" d="M20,11 L22,11 L22,8 L20,8 L20,11 Z M19,11 L19,8 L19,7 L22,7 L23,7 L23,11 L23,12 L18,12 L17,12 L17,10 L13,10 L13,11 L13,12 L7,12 L7,11 L10,11 L10,10 L8,10 L7,10 L7,8 L7,7 L11,7 L11,8 L11,11 L12,11 L12,7 L13,7 L13,9 L17,9 L17,7 L18,7 L18,11 L19,11 Z M8,9 L10,9 L10,8 L8,8 L8,9 Z M16,6 L17,6 L17,7 L16,7 L16,6 Z M13,6 L14,6 L14,7 L13,7 L13,6 Z"/>
  </g>
</svg>
