<svg width="18" height="18" viewBox="0 0 18 18">
  <g fill="none">
    <polygon fill="#FFF" points="18 0 0 0 0 18 18 18" opacity=".6"/>
    <rect width="16" height="16" x="1" y="1" fill="#F8F9FA"/>
    <g transform="translate(3 2)">
      <polygon fill="#F50000" points="10.3 0 6.1 6 2.2 0 0 0 0 9 2 9 2 4.2 5.2 9 7.1 9 10 4.2 10 9 12 9 12 0"/>
      <path fill="#1A237E" d="M5.5,10 L7.4,10 L10,10.5652174 L10,10 L12,10 L12,11 L10,11 L9.2,11 L6.26027397,10.2054795 L3.4,11 L2,11 L0,11 L0,10 L2,10 L2,10.6956522 L5.2,10 L5.5,10 Z M12,13 L10,13 L10,12 L12,12 L12,13 Z M0,12 L2,12 L2,13 L0,13 L0,12 Z M4,12 L8,12 L8,13 L4,13 L4,12 Z"/>
    </g>
  </g>
</svg>
