<svg width="18" height="18" viewBox="0 0 18 18">
  <g fill="none">
    <path fill="#FFF" d="M9,0 C4,0 0,4 0,9 C0,14 4,18 9,18 C14,18 18,14 18,9 C18,4 14,0 9,0 Z" opacity=".6"/>
    <circle cx="9" cy="9" r="7" fill="#FFF"/>
    <path fill="#1A237E" d="M9,2.2 C12.7,2.2 15.8,5.2 15.8,9 C15.8,12.7 12.8,15.8 9,15.8 C5.2,15.8 2.2,12.8 2.2,9 C2.2,5.3 5.3,2.2 9,2.2 Z M9,1 C4.6,1 1,4.6 1,9 C1,13.4 4.6,17 9,17 C13.4,17 17,13.4 17,9 C17,4.6 13.4,1 9,1 Z"/>
    <path fill="#1A237E" d="M9,8 L9.5,8 C9.8,8 10,8.2 10,8.5 C10,8.8 9.8,9 9.5,9 L9,9 L9,10 L9.5,10 C9.8,10 10,10.2 10,10.5 C10,10.8 9.8,11 9.5,11 L8.5,11 C8.2,11 8,10.8 8,10.5 L8,6.5 C8,6.2 8.2,6 8.5,6 L9.5,6 C9.8,6 10,6.2 10,6.5 C10,6.8 9.8,7 9.5,7 L9,7 L9,8 Z M5.4,9 L5,9 L5,10.5 C5,10.8 4.8,11 4.5,11 C4.2,11 4,10.8 4,10.5 L4,6.5 C4,6.2 4.2,6 4.5,6 L5.5,6 C6.3,6 7,6.7 7,7.5 C7,7.9946497 6.73238308,8.45106841 6.33898135,8.72742403 L7.3,10.3 C7.4,10.5 7.4,10.8 7.1,11 C7.1,11 7,11 6.9,11 C6.7,11 6.6,10.9 6.5,10.8 L5.4,9 Z M12.4,9 L12,9 L12,10.5 C12,10.8 11.8,11 11.5,11 C11.2,11 11,10.8 11,10.5 L11,6.5 C11,6.2 11.2,6 11.5,6 L12.5,6 C13.3,6 14,6.7 14,7.5 C14,7.96526301 13.7632363,8.39670264 13.4077347,8.6762931 L14.4,10.3 C14.5,10.5 14.5,10.8 14.2,11 C14.1,11 14,11 13.9,11 C13.7,11 13.6,10.9 13.5,10.8 L12.4,9 Z M12,8 L12.5,8 C12.8,8 13,7.8 13,7.5 C13,7.2 12.8,7 12.5,7 L12,7 L12,8 Z M5,8 L5.5,8 C5.8,8 6,7.8 6,7.5 C6,7.2 5.8,7 5.5,7 L5,7 L5,8 Z"/>
  </g>
</svg>
