<svg width="35" height="19" viewBox="0 0 35 19">
  <g fill="none">
    <polygon fill="#FFF" points="34 0 1 0 0 0 0 1 0 18 0 19 1 19 34 19 35 19 35 18 35 1 35 0" opacity=".6"/>
    <rect width="33" height="17" x="1" y="1" fill="#FFF"/>
    <path fill="#212121" d="M10,11 L7,11 L6,14 L4,14 L7,5 L9,5 L7.66666667,9 L10.6666667,9 L12,5 L14,5 L11,14 L9,14 L10,11 Z M17.3333333,7 L14,7 L15,5 L23,5 L22,7 L19.3333333,7 L17,14 L15,14 L17.3333333,7 Z M24.5,9.5 L23,14 L21,14 L24,5 L26,5 L26.6666667,11 L30,5 L32,5 L33,5 L31,14 L29,14 L30.3333333,8 L27,14 L25,14 L24.5,9.5 Z"/>
    <path fill="#E0111C" d="M23,4 L2,4 L3,2 L24,2 L23,4 Z M30,17 L13,17 L14,16 L31,16 L30,17 Z"/>
  </g>
</svg>
