<svg viewBox="0 0 23 17" xmlns="http://www.w3.org/2000/svg">
 <g>
  <path d="m3.7517 5h-3.7517v7h3.7517c1.334 2.9485 4.3016 5 7.7483 5 3.4467 0 6.4143-2.0515 7.7483-5h3.7517v-7h-3.7517c-1.334-2.9485-4.3016-5-7.7483-5-3.4467 0-6.4143 2.0515-7.7483 5z" fill="#FFF" opacity=".6"/>
  <path d="m11.5 16c-4.1421 0-7.5-3.3579-7.5-7.5 0-4.1421 3.3579-7.5 7.5-7.5 4.1421 0 7.5 3.3579 7.5 7.5 0 4.1421-3.3579 7.5-7.5 7.5zm0-3c2.4853 0 4.5-2.0147 4.5-4.5 0-2.4853-2.0147-4.5-4.5-4.5-2.4853 0-4.5 2.0147-4.5 4.5 0 2.4853 2.0147 4.5 4.5 4.5z" fill="#E12524"/>
  <rect x="1" y="6" width="21" height="5" fill="#043A86"/>
 </g>
</svg>
