<svg viewBox="0 0 18 18" xmlns="http://www.w3.org/2000/svg">
 <g>
  <polygon points="18 0 0 0 0 18 18 18" fill="#FFF" opacity=".6"/>
  <rect x="1" y="1" width="16" height="16" fill="#FFA000"/>
  <path d="m11 13h1l0.63082 0.75698c1.4189-1.1123 2.3692-2.8051 2.3692-4.757 0-3.3-2.7-6-6-6s-6 2.7-6 6c0 1.9519 0.95033 3.6446 2.3692 4.757l0.63082-0.75698h1l-1-1h6l-1 1zm-0.2 0h-3.6l-1.8 3h-1.9l1.2372-1.4847c-1.6531-1.2239-2.7372-3.2341-2.7372-5.5153 0-3.9 3.1-7 7-7s7 3.1 7 7c0 2.1893-1.0873 4.1974-2.7443 5.5068l1.2443 1.4932h-1.9l-1.8-3zm-4.8-7h1l2 3 2-3h1v5h-1v-3l-2 3-2-3v3h-1v-5z" fill="#212121"/>
 </g>
</svg>
