<svg width="34" height="19" viewBox="0 0 34 19">
  <g fill="none">
    <polygon fill="#FFF" points="32.1 14.9 24.5 2.1 23.9 1.1 23.4 .2 22.5 .9 21.7 1.7 17.2 6 12.6 1.7 11.8 .9 10.9 .2 10.4 1.1 9.8 2.1 2.2 14.9 1.4 16.2 .6 17.8 2.1 17.8 3.7 17.8 9.6 17.8 10.2 17.8 10.7 17.8 10.8 17.3 19.1 18.5 19.2 18.5 19.2 18.8 19.3 18.8 19.4 18.8 24.3 18.8 25.2 18.8 26 18.8 26 17.8 30.6 17.8 32.2 17.8 33.8 17.8 32.9 16.2" opacity=".6"/>
    <path fill="#FFD54F" d="M31.4,15.3 L23.7,2.6 L23.1,1.6 L22.3,2.4 L17.1,7.2 L12,2.4 L11.2,1.6 L10.6,2.6 L3,15.3 L2.2,16.8 L3.8,16.8 L9.7,16.8 L10.2,16.8 L10.4,16.4 L19.3,17.6 L19.4,17.8 L19.5,17.8 L24.4,17.8 L25,17.8 L25,16.8 L30.5,16.8 L32.1,16.8 L31.4,15.3 Z M11.4,11.7 L11.8,11.1 L12.3,11.6 L11.4,11.7 Z"/>
    <polygon fill="#D50000" points="30.5 15.8 24.3 15.8 21 8.9 16.2 13.9 11.5 8.8 8.2 15.8 1.9 15.8 10 2.2 16.2 8 22.4 2.2"/>
    <path fill="#0E61BF" d="M24,14.8 L24,16.8 L19.5,16.8 L11.3,15.7 L11.8,14.6 L12,14.3 L19.8,11.8 L21,11.8 C22.7,11.8 24,13.2 24,14.8 Z"/>
    <polygon fill="#FFF" points="20 12.1 20 15 10.9 15.3 11 14"/>
  </g>
</svg>
