<?xml version="1.0" encoding="UTF-8" standalone="no"?>
<svg width="13px" height="13px" viewBox="0 0 13 13" version="1.1" xmlns="http://www.w3.org/2000/svg" xmlns:xlink="http://www.w3.org/1999/xlink">
    <!-- Generator: Sketch 3.8.3 (29802) - http://www.bohemiancoding.com/sketch -->
    <title>subway-berlin-s</title>
    <desc>Created with Sketch.</desc>
    <defs></defs>
    <g id="POI-Clear" stroke="none" stroke-width="1" fill="none" fill-rule="evenodd">
        <g id="subway-berlin-s">
            <rect id="rect2438-copy-4" fill-opacity="0.6" fill="#FFFFFF" x="0" y="0" width="13" height="13" rx="1"></rect>
            <rect id="rect2438-copy-3" fill="#33597F" x="1" y="1" width="11" height="11" rx="1"></rect>
            <path d="M8.70650908,10.394899 C8.95875865,10.23456 9.31452773,9.90255795 9.46919653,9.68316242 C9.69523348,9.36253231 9.8593852,8.97730039 9.94720273,8.56137588 C9.98121882,8.40026812 9.98537472,8.1172051 9.99233451,5.48735671 L10,3 L8,3 L8,5.24288413 L8,8.15429015 C8,8.15429015 7.78179413,8.61253866 7.69907519,8.75840306 C7.59527806,8.94143611 7.40377262,9.11560111 7.20396601,9.20868142 C6.65425547,9.46476506 5.84988456,9.37256095 5.46861357,9.00976005 C5.27443722,8.82499048 5.06467908,8.52746557 5,8.15429015 C4.99501288,8.06307786 5.06297094,6.99015841 5,5.29947107 L5,3 L3,3 L3,5.33379239 C3,8.08578069 3.00554407,8.31809285 3.07951633,8.66575688 C3.26220873,9.52439707 3.82515683,10.2077942 4.68699613,10.6171746 C5.31868613,10.9172326 6.1364518,11.0521628 6.89584559,10.9816317 C7.57244582,10.9187902 8.20455266,10.7139604 8.70650908,10.394899 Z" id="path2440-copy" fill="#FFFFFF"></path>
        </g>
    </g>
</svg>