<svg width="24" height="24" viewBox="0 0 24 24">
  <g fill="none">
    <circle cx="12" cy="12" r="12" fill="#FFF" opacity=".6"/>
    <g transform="translate(1 1)">
      <path fill="#FFF" d="M11,21.5 C5.2,21.5 0.5,16.8 0.5,11 C0.5,5.2 5.2,0.5 11,0.5 C16.8,0.5 21.5,5.2 21.5,11 C21.5,16.8 16.8,21.5 11,21.5 Z"/>
      <path fill="#2E7D32" d="M11,1 C16.5,1 21,5.5 21,11 C21,16.5 16.5,21 11,21 C5.5,21 1,16.5 1,11 C1,5.5 5.5,1 11,1 Z M11,0 C4.9,0 0,4.9 0,11 C0,17.1 4.9,22 11,22 C17.1,22 22,17.1 22,11 C22,4.9 17.1,0 11,0 Z"/>
    </g>
    <g transform="translate(4 4)">
      <polygon fill="#2E7D32" points="16 12 11.2 .8 8.1 5.7 4.8 .8 0 12 4 12 5.7 7.5 7.9 10.7 10.4 7.6 12 12"/>
      <g fill="#FFF" transform="translate(2 3)">
        <rect width="1" height="11.4" x="7.911" y=".217" transform="rotate(-26.565 8.41 5.917)"/>
        <rect width="11.6" height="1" x="-2.21" y="5.301" transform="rotate(-63.435 3.59 5.8)"/>
      </g>
    </g>
  </g>
</svg>
