<svg viewBox="0 0 24 24" xmlns="http://www.w3.org/2000/svg">
 <g fill="none">
  <rect width="24" height="24" fill="#FFF" opacity=".6"/>
  <g transform="translate(1 1)">
   <rect x=".5" y=".5" width="21" height="21" fill="#FFF"/>
   <path d="m21 1v20h-20v-20h20zm1-1h-22v22h22v-22z" fill="#757575"/>
  </g>
  <path d="m9 21v-12.9c0-2.8 2.3-5.1 5.1-5.1h3.9c1.7 0 3 1.3 3 3h-6.9c-1.1 0-2.1 1-2.1 2.1v9.9c0 1.7-1.3 3-3 3zm4 0v-10.8c0-1.7 1.5-3.2 3.3-3.2h1.7c1.7 0 3 1.3 3 3h-4.8c-0.1 0-0.3 0.1-0.3 0.3v7.7c0.1 1.7-1.2 3-2.9 3z" fill="#D50000"/>
  <path d="m8 10h-5c0-1.7 1.3-3 3-3h2v3zm2.1-7c-1 0.7-1.7 1.8-2 3h-5.1c0-1.7 1.3-3 3-3h4.1z" fill="#757575"/>
 </g>
</svg>
