<svg width="18" height="18" viewBox="0 0 18 18">
  <g fill="none">
    <path fill="#FFF" d="M9,0.5 C4.3,0.5 0.5,4.3 0.5,9 C0.5,13.7 4.3,17.5 9,17.5 C13.7,17.5 17.5,13.7 17.5,9 C17.5,4.3 13.7,0.5 9,0.5 Z" opacity=".6"/>
    <path fill="#FFF" d="M9,1.5 C4.9,1.5 1.5,4.9 1.5,9 C1.5,13.1 4.9,16.5 9,16.5 C13.1,16.5 16.5,13.1 16.5,9 C16.5,4.9 13.1,1.5 9,1.5 Z"/>
    <circle cx="9" cy="9" r="6" fill="#0D47A1"/>
    <path fill="#FFF" d="M10,10.4 L12,8 L13.2,9.2 L9,13.4 L4.8,9.2 L6,8 L8,10.4 L8,3 L10,3 L10,10.4 Z"/>
  </g>
</svg>
