<svg width="23" height="23" viewBox="0 0 23 23">
  <g fill="none">
    <path fill="#FFF" d="M11.5,0 C5.2,0 0,5.1 0,11.5 C0,17.8 5.2,23 11.5,23 C17.9,23 23,17.8 23,11.5 C23,5.1 17.9,0 11.5,0 Z" opacity=".6"/>
    <path fill="#FFF" d="M22,11.5 C22,17.3 17.3,22 11.5,22 C5.7,22 1,17.3 1,11.5 C1,5.7 5.7,1 11.5,1 C17.3,1 22,5.7 22,11.5 Z"/>
    <path fill="#00C853" d="M17,11.2 L17,16 L14,16 L14,14.5 L17,11.2 Z M9,14.5 L9,16 L6,16 L6,11.2 L9,14.5 Z M17,6 L17,9 L11.5,14.5 L6,9 L6,6 L11.5,10.7 L17,6 Z"/>
    <path fill="#448AFF" d="M11.5,2.5 C16.5,2.5 20.5,6.5 20.5,11.5 C20.5,16.5 16.5,20.5 11.5,20.5 C6.5,20.5 2.5,16.5 2.5,11.5 C2.5,6.5 6.5,2.5 11.5,2.5 Z M11.5,2 C6.3,2 2,6.3 2,11.5 C2,16.7 6.3,21 11.5,21 C16.7,21 21,16.7 21,11.5 C21,6.3 16.7,2 11.5,2 Z"/>
  </g>
</svg>
