<svg width="24" height="24" viewBox="0 0 24 24">
  <g fill="none">
    <g fill="#FFF">
      <circle cx="12" cy="12" r="12" opacity=".6"/>
      <circle cx="12" cy="12" r="11"/>
    </g>
    <path fill="#0D47A1" d="M3.46666667,5 L4.3,5 C4.7,4.8 5,4.9 5.3,5 L8,6.3 C9.3,6.9 10.8,7.2 12.3,7 L12.6,7 L16,6.4 L12.1,6.5 C11.3,6.4 10.4,6.2 9.6,5.9 L5.4,4.2 C5,4.1 4.5,4 4.1,4.1 L3.67857143,4.20535714 L4.8,0 L8.1,0 L10.3,6 L12.4,0 L15.7,0 L19,12 L14.6,12 L13.2,6.9 L11.4,12 L9.2,12 L7.3,6.9 L5.9,12 L1.6,12 L3.46666667,5 Z M2.025,5 L3,5 L3,6 L0.4,6 L2.025,5 Z M18,6 L20.6,6 L18,7.6 L18,6 Z" transform="translate(2 5)"/>
  </g>
</svg>
