<svg width="25" height="24" viewBox="0 0 25 24">
  <g fill="none">
    <g fill="#FFF">
      <path d="M12.4,0 C5.9,0 0.6,5.3 0.6,11.8 C0.6,18.3 5.9,23.6 12.4,23.6 C18.9,23.6 24.2,18.3 24.2,11.8 C24.2,5.3 18.9,0 12.4,0 Z" opacity=".6"/>
      <circle cx="12.4" cy="11.8" r="10.8"/>
    </g>
    <g transform="translate(4 5)">
      <path fill="#1E5DE5" d="M0,12.4 L0.5,10.9 C0.5,10.9 5.6,9.9 5.6,8.3 L6.6,7.3 C6.7,7.3 9.8,10.9 0,12.4 Z M6.2,6.9 L5.1,7.9 L3.6,6.9 L6.2,6.9 Z"/>
      <path fill="#F5007F" d="M3.6,6.7 C3.6,6.7 3.6,4.1 8.2,3.1 L7.2,5.2 L3.6,6.7 Z"/>
      <polygon fill="#2E7D32" points="8.9 3 8.9 4.5 15.9 1.5 15.9 0"/>
      <polygon fill="#F4511E" points="9.3 8.8 10.8 8.2 11.9 3.6 10.3 4.6"/>
    </g>
  </g>
</svg>
