<svg viewBox="0 0 24 24" xmlns="http://www.w3.org/2000/svg">
 <g fill-rule="evenodd">
  <rect width="24" height="24" rx="12" fill="#fff" opacity=".6"/>
  <rect x="1" y="1" width="22" height="22" rx="11" fill="#3c3e38"/>
  <path d="m7.9923 6-1.9923 1.5039 0.042215 9.4935c0.015302 0.50129 0.51338 1.0026 1.0115 1.0026h9.9654c0.49808 0 0.98869-0.32996 0.98085-1.0026l-0.042215-9.4935-1.9923-1.5039zm1.6122 2.0107h4.9846l1.4185 1.1015v3.8543h-7.9731v-3.8543zm0.42616 7.5904c0 0.41528-0.3345 0.75194-0.74712 0.75194-0.41262 0-0.74712-0.33665-0.74712-0.75194s0.3345-0.75194 0.74712-0.75194c0.41262 0 0.74712 0.33665 0.74712 0.75194zm6.475 0c0 0.41528-0.3345 0.75194-0.74712 0.75194s-0.74712-0.33665-0.74712-0.75194 0.3345-0.75194 0.74712-0.75194 0.74712 0.33665 0.74712 0.75194zm-5.5038-7.5904h1.9962v5.0129h-1.9962z" fill="#fff"/>
 </g>
</svg>
