<svg width="26" height="26" viewBox="0 0 26 26">
  <g fill="none">
    <rect width="16" height="16" x="5" y="5" fill="#F3F3ED" transform="rotate(-90 13 13)"/>
    <polygon fill="#FFF" points="24.7 12.3 22 9.6 22 5 22 4 21 4 16.4 4 13.7 1.3 13 .6 12.3 1.3 9.6 4 5 4 4 4 4 5 4 9.6 1.3 12.3 .6 13 1.3 13.7 4 16.4 4 21 4 22 5 22 9.6 22 12.3 24.7 13 25.4 13.7 24.7 16.4 22 21 22 22 22 22 21 22 16.4 24.7 13.7 25.4 13" opacity=".6"/>
    <path fill="#FFC400" d="M5,16.03096 L1.96904,13 L5,9.96904 L5,5 L9.96904,5 L12.9998,1.96924 L16.03056,5 L21,5 L21,9.96944 L24.03056,13 L21,16.03056 L21,21 L16.03056,21 L12.9998,24.03076 L9.96904,21 L5,21 L5,16.03096 Z"/>
    <g transform="translate(5 5)">
      <circle cx="8" cy="8" r="8" fill="#5C6BC0"/>
      <path fill="#FFF" d="M8,0.5 C12.1,0.5 15.5,3.9 15.5,8 C15.5,12.1 12.1,15.5 8,15.5 C3.9,15.5 0.5,12.1 0.5,8 C0.5,3.9 3.9,0.5 8,0.5 Z M8,0 C3.6,0 0,3.6 0,8 C0,12.4 3.6,16 8,16 C12.4,16 16,12.4 16,8 C16,3.6 12.4,0 8,0 Z"/>
    </g>
    <path fill="#C6CDF7" d="M7,17 L19,17 L19,18 L7,18 L7,17 Z M13,15.8 C10.9,15.8 9.2,14.1 9.2,12 C9.2,9.9 10.9,8.2 13,8.2 C15.1,8.2 16.8,9.9 16.8,12 C16.8,14.1 15.1,15.8 13,15.8 Z"/>
    <path fill="#FFF" d="M19,13 L17,13 C17,10.8 15.2,9 13,9 C10.8,9 9,10.8 9,13 L7,13 C7,9.7 9.7,7 13,7 C16.3,7 19,9.7 19,13 Z"/>
  </g>
</svg>
