<svg width="29" height="23" viewBox="0 0 29 23">
  <g fill="none">
    <ellipse cx="14.5" cy="11.5" fill="#FFF" opacity=".6" rx="14.5" ry="11.5"/>
    <g transform="translate(1 1)">
      <path fill="#FFF" d="M13.5,20.5 C6.3,20.5 0.5,16 0.5,10.5 C0.5,5 6.3,0.5 13.5,0.5 C20.7,0.5 26.5,5 26.5,10.5 C26.5,16 20.7,20.5 13.5,20.5 Z"/>
      <path fill="#20287D" d="M13.5,1 C20.4,1 26,5.3 26,10.5 C26,15.7 20.4,20 13.5,20 C6.6,20 1,15.7 1,10.5 C1,5.3 6.6,1 13.5,1 Z M13.5,0 C6,0 0,4.7 0,10.5 C0,16.3 6,21 13.5,21 C21,21 27,16.3 27,10.5 C27,4.7 21,0 13.5,0 Z"/>
    </g>
    <path fill="#20287D" d="M20.3,8.5 C20.3,12.6 15.3,16 11.2,16 L11.7,16 L15.2,7 L10.6,7 L6.7,17 L9,17 L11.3,17 L11.2,17 C15.3,17 20.2,14 21.2,10 L25.4,10 L27.1,7 L20,7 L20.3,8.5 Z"/>
  </g>
</svg>
