<svg width="21" height="22" viewBox="0 0 21 22">
  <g fill="none" transform="translate(-1)">
    <path fill="#FFF" d="M21.1,5.3 L20.1,4.3 L16.4,0.3 C16.2,0.1 15.9,0 15.6,0 L10.2,0 C9.8,0 9.4,0.2 9.3,0.6 C9.1,1 9.2,1.4 9.4,1.7 L11.6,4 L2,4 C1.4,4 1,4.4 1,5 L1,9 C1,9.2 1.1,9.4 1.2,9.5 C1.1,9.6 1,9.8 1,10 L1,13 C1,13.6 1.4,14 2,14 L1.1,15.5 C0.9,15.9 1,16.3 1.2,16.7 L2.2,17.7 L5.9,21.7 C6.1,21.9 6.4,22 6.7,22 L12.2,22 C12.6,22 13,21.8 13.1,21.4 C13.3,21 13.2,20.6 12.9,20.3 L10.7,18 L20,18 C20.6,18 21,17.6 21,17 L21,14 C21,13.8 20.9,13.6 20.8,13.5 C20.9,13.4 21,13.2 21,13 L21,10 C21,9.4 20.6,9 20,9 L19.9,9 L21.2,6.5 C21.4,6.1 21.3,5.7 21.1,5.3 Z" opacity=".6"/>
    <polygon fill="#0D47A1" points="2.4 16 4 13 20 13 20 17 3.4 17"/>
    <polygon fill="#0D47A1" points="2 16 3.6 13 4.7 13 8.4 17 12.1 21 6.7 21 3 17"/>
    <polygon fill="#F50000" points="19.6 6 18 9 2 9 2 5 18.6 5"/>
    <polygon fill="#F50000" points="20.3 6 18.7 9 17.6 9 13.9 5 10.2 1 15.6 1 19.4 5"/>
    <rect width="18" height="2" x="2" y="10" fill="#0D47A1"/>
  </g>
</svg>
