<svg viewBox="0 0 16 16" xmlns="http://www.w3.org/2000/svg">
 <g>
  <rect width="16" height="16" rx="8" fill="#FFF" opacity=".6"/>
  <rect x="1" y="1" width="14" height="14" rx="7" fill="#3C3E38"/>
  <path d="m5.5 4-1.5 1.1429v6.2857c0 0.28571 0.25 0.57143 0.5 0.57143h1.25 3.25 1.25 1.25c0.25 0 0.5-0.28571 0.5-0.57143v-6.2857l-1.5-1.1429h-5zm0.5 1.1429h4l1 0.57143v1.7143h-6v-1.7143l1-0.57143zm0 5.1429c0 0.31657-0.223 0.57143-0.5 0.57143s-0.5-0.25486-0.5-0.57143c0-0.31657 0.223-0.57143 0.5-0.57143s0.5 0.25486 0.5 0.57143zm5 0c0 0.31657-0.223 0.57143-0.5 0.57143s-0.5-0.25486-0.5-0.57143c0-0.31657 0.223-0.57143 0.5-0.57143s0.5 0.25486 0.5 0.57143z" fill="#FFF"/>
 </g>
</svg>
