<?xml version="1.0" encoding="UTF-8" standalone="no"?>
<svg width="23px" height="23px" viewBox="0 0 23 23" version="1.1" xmlns="http://www.w3.org/2000/svg" xmlns:xlink="http://www.w3.org/1999/xlink" xmlns:sketch="http://www.bohemiancoding.com/sketch/ns">
    <!-- Generator: Sketch 3.3.3 (12072) - http://www.bohemiancoding.com/sketch -->
    <title>subway-newyork-m</title>
    <desc>Created with Sketch.</desc>
    <defs></defs>
    <g id="Subways" stroke="none" stroke-width="1" fill="none" fill-rule="evenodd" sketch:type="MSPage">
        <g id="subway-newyork-m" sketch:type="MSLayerGroup">
            <circle id="Oval-1-Copy-41" fill="#FFFFFF" sketch:type="MSShapeGroup" cx="11.5" cy="11.5" r="11.5"></circle>
            <circle id="Oval-1-Copy-40" fill="#3C3E38" sketch:type="MSShapeGroup" cx="11.5" cy="11.5" r="10.5"></circle>
            <path d="M7.99230773,5 L6,6.50387445 L6.04221484,15.997417 C6.05751659,16.4987085 6.55559352,17 7.05367046,17 L16.0190552,17 C16.5171322,17 17.007744,16.6700426 16.9999074,15.997417 L16.9576925,6.50387445 L14.9653848,5 L7.99230773,5 Z M9.60451305,7.01071141 L13.5891285,7.01071141 L15.0075996,8.11218662 L15.0075996,11.9664965 L8.03452257,11.9664965 L8.03452257,8.11218662 L9.60451305,7.01071141 Z M9.03067643,14.601099 C9.03067643,15.0163829 8.69617793,15.3530362 8.28356104,15.3530362 C7.87094414,15.3530362 7.53644564,15.0163829 7.53644564,14.601099 C7.53644564,14.1858151 7.87094414,13.8491618 8.28356104,13.8491618 C8.69617793,13.8491618 9.03067643,14.1858151 9.03067643,14.601099 Z M14.7585612,13.8491618 C15.1711781,13.8491618 15.5056766,14.1858151 15.5056766,14.601099 C15.5056766,15.0163829 15.1711781,15.3530362 14.7585612,15.3530362 C14.3459443,15.3530362 14.0114458,15.0163829 14.0114458,14.601099 C14.0114458,14.1858151 14.3459443,13.8491618 14.7585612,13.8491618 Z M11.0019231,7.01071141 L11.9980769,7.01071141 L11.9980769,12.0236262 L11.0019231,12.0236262 L11.0019231,7.01071141 Z" id="path24869" fill="#FFFFFF" sketch:type="MSShapeGroup"></path>
        </g>
    </g>
</svg>