<svg width="25" height="24" viewBox="0 0 25 24">
  <g fill="none" fill-rule="evenodd">
    <path fill="#FFF" fill-rule="nonzero" d="M12,0 C6.7,0 1.9,3.6 0.5,8.7 C0.3,9.1 0.3,9.5 0.2,9.8 C0.1,10.1 0.1,10.5 0.1,10.9 C0,11.3 0,11.7 0,12 C0,18.6 5.4,24 12,24 C17,24 21.4,21 23.2,16.4 C23.3,16 23.5,15.7 23.6,15.3 C23.7,15 23.8,14.6 23.9,14.2 C24,13.9 24,13.5 24,13.1 C24,12.7 24.1,12.4 24.1,12 C24,5.4 18.6,0 12,0 Z" opacity=".6"/>
    <g transform="translate(1 1)">
      <path fill="#1A237E" fill-rule="nonzero" d="M16.4671959,15 L21.3,15 C21.4,14.7 21.5,14.3 21.6,14 L16.8,14 L10.2,14 L11.2,10 L10,10 L9,10 L0,10 C0,9.7 0.1,9.3 0.1,9 C0.2,8.7 0.2,8.3 0.3,8 C1.7,3.4 6,0 11,0 C17.1,0 22,4.9 22,11 C22,11.3 22,11.7 22,12 L17.1333333,12 L17.4,10 C17.7,7.4 15.6,5 12.9,5 L11.3,5 L9.1,5 L8.1,5 L7.35,8 L0.4,8 C0.3,8.3 0.3,8.7 0.2,9 L9,9 L10.4,9 L13.9,9 C14.3,9 14.5,9.3 14.4,9.7 L13.6,13 L16,13 L21.9,13 C21.8,13.3 21.8,13.7 21.7,14 C21.6,14.3 21.5,14.7 21.4,15 C19.8,19.1 15.8,22 11.1,22 C4.9,22 0,17.1 0,11 L6.55342466,11 L5,17.3 C4.9,17.7 5.2,18 5.5,18 L11.8,18 C13.8364806,18 15.6569585,16.7759842 16.4671959,15 Z"/>
    </g>
  </g>
</svg>
