<svg viewBox="0 0 23 15" xmlns="http://www.w3.org/2000/svg">
 <g>
  <polygon points="8.679 1.447 8.679 1.447 12.333 6.947 10.667 6.947 14.321 1.447 15.249 0.049 16.037 1.531 21.883 12.531 22.664 14 21 14 16.908 14 16.307 14 16.025 13.469 13.832 9.344 15.504 9.49 12.289 13.615 11.5 14.627 10.711 13.615 7.496 9.49 9.168 9.344 6.975 13.469 6.693 14 6.092 14 2 14 0.336 14 1.117 12.531 6.963 1.531 7.751 0.049" fill="#FFF" opacity=".6"/>
  <polygon points="7.846 2 11.5 7.5 15.154 2 21 13 16.908 13 14.715 8.875 11.5 13 8.285 8.875 6.092 13 2 13" fill="#00923F"/>
 </g>
</svg>
