<svg viewBox="0 0 24 24" xmlns="http://www.w3.org/2000/svg">
 <g>
  <path d="m12 0c-6.6 0-12 5.4-12 12s5.4 12 12 12 12-5.4 12-12-5.4-12-12-12z" fill="#FFF" opacity=".6"/>
  <circle cx="12" cy="12" r="10" fill="#FFF"/>
  <path d="m12 2.7c5.1 0 9.3 4.2 9.3 9.3s-4.2 9.3-9.3 9.3-9.3-4.2-9.3-9.3 4.2-9.3 9.3-9.3zm0-1.7c-6.1 0-11 4.9-11 11s4.9 11 11 11 11-4.9 11-11-4.9-11-11-11z" fill="#1A237E"/>
  <path d="m10 12.975c-0.125-0.1-0.2-0.275-0.2-0.475s0.075-0.375 0.2-0.475v-2.525s0.1-0.7 0.5-0.5h3c0.4-0.2 0.7 0.1 0.7 0.5s-0.3 0.7-0.7 0.5h-2.5v2h1.5c0.4-0.2 0.7 0.1 0.7 0.5s-0.3 0.7-0.7 0.5h-1.5v1h2.5c0.4-0.2 0.7 0.1 0.7 0.5s-0.3 0.7-0.7 0.5h-3c-0.4 0.2-0.5-0.5-0.5-0.5v-1.525zm-3.8543 0.025h-0.14571v1.5c0.2 0.4-0.1 0.7-0.5 0.7s-0.7-0.3-0.5-0.7v-5c-0.2-0.4 0.1-0.7 0.5-0.7 0.2 0 0.375 0.075 0.475 0.2h0.825c1 0 2 0.7 2.1 1.7 0.24731 0.98925-0.38885 1.9105-1.2922 2.2036l0.79222 1.2964c0.2 0.3 0.1 0.7-0.2 0.9-0.1 0-0.2 0.1-0.3 0.1-0.2 0-0.4-0.1-0.6-0.3l-1.1-1.8c-0.021533-0.032299-0.039588-0.065757-0.054291-0.1zm10 0h-0.14571v1.5c0.2 0.4-0.1 0.7-0.5 0.7s-0.7-0.3-0.5-0.7v-5c-0.2-0.4 0.1-0.7 0.5-0.7 0.2 0 0.375 0.075 0.475 0.2h0.825c1 0 2 0.7 2.1 1.7 0.24731 0.98925-0.38885 1.9105-1.2922 2.2036l0.79222 1.2964c0.2 0.3 0.1 0.7-0.2 0.9-0.1 0-0.2 0.1-0.3 0.1-0.2 0-0.4-0.1-0.6-0.3l-1.1-1.8c-0.021533-0.032299-0.039588-0.065757-0.05429-0.1zm-0.14571-1h1c0.5-0.1 0.9-0.5 0.9-1s-0.4-0.9-0.9-1h-1v2zm-10 0h1c0.5-0.1 0.9-0.5 0.9-1s-0.4-0.9-0.9-1h-1v2z" fill="#1A237E"/>
 </g>
</svg>
