<svg width="24" height="24" viewBox="0 0 24 24">
  <g fill="none">
    <circle cx="12" cy="12" r="12" fill="#FFF" opacity=".6"/>
    <circle cx="12" cy="12" r="11" fill="#FFF"/>
    <path fill="#283593" d="M12,2.5 C17.2,2.5 21.5,6.8 21.5,12 C21.5,17.2 17.2,21.5 12,21.5 C6.8,21.5 2.5,17.2 2.5,12 C2.5,6.8 6.8,2.5 12,2.5 Z M12,1 C5.9,1 1,5.9 1,12 C1,18.1 5.9,23 12,23 C18.1,23 23,18.1 23,12 C23,5.9 18.1,1 12,1 Z"/>
    <path fill="#283593" d="M13,9 L13,18 L11,18 L11,9 L7,9 L7,7 L17,7 L17,9 L13,9 Z"/>
  </g>
</svg>
