<svg width="19" height="18" viewBox="0 0 19 18">
  <g fill="none">
    <circle cx="9.2" cy="9" r="9" fill="#FFF" opacity=".6"/>
    <circle cx="9.2" cy="9" r="8" fill="#FF8F00"/>
    <circle cx="9.2" cy="9" r="7" fill="#212121"/>
    <circle cx="9.3" cy="9.1" r="4.3" fill="#FFF"/>
    <path fill="#FF8F00" d="M11.2,6.8 L11.2,8.2 L8.1,8.2 C7.98659932,8.2 7.9,8.28659932 7.9,8.4 C7.9,8.44667971 7.95488744,8.51376436 7.97814531,8.52304782 L9.86977494,9.02090025 C10.5643361,9.19454053 11,9.84803643 11,10.5 C11,11.3865993 10.2865993,12.1 9.4,12.1 L7.2,12.1 L7.2,10.7 L9.4,10.7 C9.51340068,10.7 9.6,10.6134007 9.6,10.5 C9.6,10.4519636 9.55566393,10.3854595 9.52185469,10.3769522 L7.57864056,9.86407831 C6.97011256,9.66123564 6.5,9.08665362 6.5,8.4 C6.5,7.51340068 7.21340068,6.8 8.1,6.8 L11.2,6.8 Z"/>
  </g>
</svg>
