<svg width="26" height="23" viewBox="0 0 26 23">
  <g fill="none">
    <polygon fill="#FFF" points="13.887 20.441 12.997 22.17 12.109 20.441 10.04 16 10.04 17 10.04 19.997 10.04 20.997 9.04 20.997 1.002 20.997 .002 20.997 .002 19.997 .002 17 .002 16 1.002 16 2.386 16 7.731 2.491 8.571 .371 9.561 2.425 12.997 9.625 16.444 2.425 17.434 .373 18.274 2.491 23.683 16 25.002 16 26.002 16 26.002 17 26.002 19.997 26.002 20.997 25.002 20.997 16.965 20.997 15.965 20.997 15.965 19.997 15.965 17 15.965 16" opacity=".6"/>
    <polygon fill="#D73535" points="16.553 13.081 18.044 17 16.965 17 16.965 19.997 25.002 19.997 25.002 17 22.952 17 17.344 2.86 12.999 11.863 8.66 2.86 3.052 17 1.002 17 1.002 19.997 9.04 19.997 9.04 17 7.96 17 9.452 13.081 12.998 19.984"/>
  </g>
</svg>
