<?xml version="1.0" encoding="UTF-8" standalone="no"?>
<svg width="14px" height="14px" viewBox="0 0 14 14" version="1.1" xmlns="http://www.w3.org/2000/svg" xmlns:xlink="http://www.w3.org/1999/xlink" xmlns:sketch="http://www.bohemiancoding.com/sketch/ns">
    <!-- Generator: Sketch 3.3.3 (12072) - http://www.bohemiancoding.com/sketch -->
    <title>subway-moscow-s</title>
    <desc>Created with Sketch.</desc>
    <defs></defs>
    <g id="Subways" stroke="none" stroke-width="1" fill="none" fill-rule="evenodd" sketch:type="MSPage">
        <g id="subway-moscow-s" sketch:type="MSLayerGroup" transform="translate(-1.900000, -1.400000)">
            <path d="M10.4334494,8.92375208 L11.3711432,11.0320781 L10.6713698,11.0320781 L10.6713698,12.431419 L14.8716843,12.431419 L14.8716841,11.0320778 L14.1702367,11.0320778 L11.016514,3.96456693 L8.92277341,8.22935918 L6.82903279,3.96456693 L3.6753101,11.0320778 L2.9738627,11.0320778 L2.97386254,12.431419 L7.17417703,12.431419 L7.17417703,11.0320781 L6.47440364,11.0320781 L7.41209742,8.92375208 L8.92050179,12.4227804 L10.4334494,8.92375208 L10.4334494,8.92375208 Z M9.52768269,9.32648013 L9.52768269,9.32648013 L11.3433445,9.31706663 L9.83039689,12.8160949 L8.91913325,14.923595 L8.01017677,12.8150991 L6.50177239,9.31607083 L8.31786413,9.32648013 L7.38017035,11.4348061 L6.47440364,11.0320781 L6.47440364,10.0409363 L7.17417703,10.0409363 L8.16546454,10.0409363 L8.16546454,11.0320781 L8.16546454,12.431419 L8.16546454,13.4225608 L7.17417703,13.4225608 L2.97386254,13.4225608 L1.98257491,13.4225608 L1.98257502,12.4314189 L1.98257519,11.0320776 L1.9825753,10.040936 L2.9738627,10.040936 L3.6753101,10.040936 L3.6753101,11.0320778 L2.77003831,10.6282388 L5.923761,3.56072793 L6.78619948,1.62799829 L7.71889537,3.52782971 L9.812636,7.79262197 L8.03291083,7.79262197 L10.1266514,3.52782971 L11.0593473,1.62799829 L11.9217858,3.56072793 L15.0755085,10.6282388 L14.1702367,11.0320778 L14.1702367,10.040936 L14.8716841,10.040936 L15.8629715,10.040936 L15.8629716,11.0320776 L15.8629718,12.4314189 L15.8629719,13.4225608 L14.8716843,13.4225608 L10.6713698,13.4225608 L9.68008228,13.4225608 L9.68008228,12.431419 L9.68008228,11.0320781 L9.68008228,10.0409363 L10.6713698,10.0409363 L11.3711432,10.0409363 L11.3711432,11.0320781 L10.4653765,11.4348061 L9.52768269,9.32648013 Z" id="Shape" fill="#FFFFFF" sketch:type="MSShapeGroup"></path>
            <path d="M10.4334494,8.92375208 L11.3711432,11.0320781 L10.6713698,11.0320781 L10.6713698,12.431419 L14.8716843,12.431419 L14.8716841,11.0320778 L14.1702367,11.0320778 L11.016514,3.96456693 L8.92277341,8.22935918 L6.82903279,3.96456693 L3.6753101,11.0320778 L2.9738627,11.0320778 L2.97386254,12.431419 L7.17417703,12.431419 L7.17417703,11.0320781 L6.47440364,11.0320781 L7.41209742,8.92375208 L8.92050179,12.4227804 L10.4334494,8.92375208 Z" id="Rectangle-60-Copy-10" fill="#D73535" sketch:type="MSShapeGroup"></path>
        </g>
    </g>
</svg>