<svg width="18" height="18" viewBox="0 0 18 18">
  <g fill="none">
    <path fill="#FFF" d="M9,0 C4,0 0,4 0,9 C0,14 4,18 9,18 C14,18 18,14 18,9 C18,4 14,0 9,0 Z" opacity=".6"/>
    <path fill="#1E88E5" d="M9,17 C4.6,17 1,13.4 1,9 C1,4.6 4.6,1 9,1 C13.4,1 17,4.6 17,9 C17,13.4 13.4,17 9,17 Z"/>
    <path fill="#FFF" d="M12.5,13 L10,13 L11.2505819,8.23587851 L8.7,10.7 L7.42283156,8.18970341 L6.1,13 L3.6,13 L5.7,5 L8.3,5 L8.26982544,5.10972569 L9.6,7.2 L12.0714462,5.10877627 L12.1,5 L14.7,5 L12.9397772,11.4008102 C14.5056161,10.7 16.1,10.7 16.1,10.7 L12.5,13 Z"/>
  </g>
</svg>
