<svg viewBox="0 0 26 26" xmlns="http://www.w3.org/2000/svg">
 <g>
  <circle cx="13" cy="13" r="13" fill="#FFF" opacity=".6"/>
  <circle cx="13" cy="13" r="12" fill="#20287D"/>
  <path d="m23 11-1 1v1h-0.33333l0.33333 1h-2l-0.75-3h-1.25v-2h6v2h-1z" fill="#FF8E03"/>
  <path d="m13 9h2v8h-2v-8zm-4 0h2v8h-2v-8zm-4 0h2v8h-2v-8zm-2 0v8h-1.3c-0.5-1.2-0.7-2.6-0.7-4s0.2-2.8 0.7-4h1.3zm22 4c0 1.4-0.2 2.8-0.7 4h-1.3v-4.9l-2 4.5-2-4.5v4.9h-2v-8h2v0.1l0.9 1.9 0.1 0.3 0.3 0.8 0.7 1.4 0.7-1.4 0.3-0.8 0.1-0.3 0.9-1.9v-0.1h1.3c0.5 1.3 0.7 2.6 0.7 4z" fill="#FFF"/>
 </g>
</svg>
