<svg viewBox="0 0 22 17" xmlns="http://www.w3.org/2000/svg">
 <g>
  <path d="m21.3 9.3c-0.4-5.2-4.9-9.2-10.3-9.2-5.3 0-9.8 3.9-10.2 9-0.1 0.1-0.2 0.2-0.2 0.4-0.2 0.7 0 1.5 0.7 1.9l8.2 4.8 0.7 0.4c0.2 0.1 0.5 0.2 0.8 0.2s0.6-0.1 0.8-0.2l0.7-0.4 8.2-4.8 0.2-0.2c0.6-0.4 0.8-1.3 0.4-1.9zm-10.3 6.6c-0.1 0-0.3 0-0.3-0.1 0.1 0 0.2 0.1 0.3 0.1z" fill="#FFF" opacity=".6"/>
  <path d="m19.186 9.5395c-0.24751-4.1812-3.8446-7.4395-8.1864-7.4395-4.3526 0-7.9567 3.2745-8.1882 7.4706l2.3409 0.78029c-0.099903-0.43419-0.15269-0.88638-0.15269-1.3509 0-3.3137 2.6863-6 6-6s6 2.6863 6 6c0 0.45577-0.050818 0.89967-0.1471 1.3263l2.3335-0.78688zm-17.473-0.021572c0.25854-4.6776 4.2583-8.4179 9.2867-8.4179 5.0708 0 9.0955 3.8036 9.2924 8.5364 0.043695 0.05162 0.079545 0.10763 0.10755 0.16365 0.2 0.2 0.1 0.6-0.1 0.8l-8.2 4.8-0.7 0.4c-0.2 0.1-0.5 0.1-0.7 0l-0.7-0.4-8.2-4.8c-0.3-0.2-0.4-0.5-0.3-0.8 0.042569-0.12771 0.12138-0.21917 0.21329-0.28211z" fill="#80D8FF"/>
  <path d="m11 9.5-1.2-1.6-1.1 2.1h-3.3l4.4-5.7 1.2 3.1 1.2-3.1 4.4 5.7h-3.3l-1.1-2.1-1.2 1.6z" fill="#F50000"/>
  <path d="m19.4 10.3-8.4 2.7-8.4-2.8c-0.1 0-0.2 0.1-0.1 0.2l8.3 4.9c0.2 0.1 0.4 0.1 0.5 0l8.3-4.9s-0.1-0.2-0.2-0.1z" fill="#1A237E"/>
  <path d="m11 11.8-4-1.2 4 0.6 4-0.6-4 1.2z" fill="#FFEA00"/>
 </g>
</svg>
