<svg width="24" height="24" viewBox="0 0 24 24">
  <g fill="none">
    <rect width="24" height="24" fill="#FFF" opacity=".6"/>
    <rect width="22" height="22" x="1" y="1" fill="#304FFE"/>
    <path fill="#FFF" d="M22,5.5 C12,14.7 20.3,13 20.4,13 C20.4,16.4 17.9,17.2 17.9,17.2 C14.4,12.4 12.7,19.6 12.2,22.2 C12.2,22.4 11.9,22.4 11.9,22.2 C11.4,19.6 9.7,12.4 6.2,17.2 C6.2,17.2 3.7,16.3 3.7,13 C3.7,13 12,14.7 2,5.5 C2,5.5 12.8,9.7 9.5,3.8 C9.5,3.8 9.5,3 12,3 C14.5,3 14.5,3.8 14.5,3.8 C11.2,9.7 22,5.5 22,5.5 Z M8.2,9 C11.2,11.3 12,15.2 12,15.2 C12.8,10.5 15.1,9 15.1,9 L8.2,9 Z"/>
  </g>
</svg>
