<svg viewBox="0 0 29 19" xmlns="http://www.w3.org/2000/svg">
 <g>
  <path d="m28.9 1.2c-0.3-0.7-1-1.2-1.7-1.2h-7.3c-1.4 0-2.7 0.7-3.6 1.8l-3.3 4.2h-4.6c-0.5 0-1 0.2-1.3 0.6l-2.8 3c-0.5 0.6-0.7 1.4-0.4 2.2 0 0.1 0.1 0.2 0.2 0.3-0.3 0.1-0.5 0.3-0.7 0.5l-2.8 3c-0.6 0.6-0.7 1.4-0.5 2.2 0.3 0.7 1 1.2 1.7 1.2h7.3c1.4 0 2.7-0.7 3.6-1.8l3.3-4.2h4.5c0.5 0 1-0.2 1.3-0.6l2.8-3c0.5-0.6 0.7-1.4 0.4-2.2 0-0.1-0.1-0.2-0.2-0.3 0.3-0.1 0.5-0.3 0.7-0.5l2.8-3c0.7-0.6 0.8-1.4 0.6-2.2z" fill="#FFF" opacity=".6"/>
  <path d="m11.593 11h-5.9929l2.8-3h5.55l3.85-4.9c0.4-0.7 1.2-1.1 2-1.1h7.3l-2.8 3h-3.2c-0.8 0-1.6 0.4-2.2 1.1l-1.4929 1.9h5.9929l-2.8 3h-5.55l-3.85 4.9c-0.4 0.7-1.2 1.1-2 1.1h-7.3l2.8-3h3.2c0.8 0 1.6-0.4 2.2-1.1l1.4929-1.9z" fill="#0D47A1"/>
 </g>
</svg>
