<svg viewBox="0 0 25 24" xmlns="http://www.w3.org/2000/svg">
 <g fill="none">
  <g fill="#FFF">
   <path d="m12.4 0c-6.5 0-11.8 5.3-11.8 11.8s5.3 11.8 11.8 11.8 11.8-5.3 11.8-11.8-5.3-11.8-11.8-11.8z" opacity=".6"/>
   <circle cx="12.4" cy="11.8" r="10.8"/>
  </g>
  <g transform="translate(4 5)">
   <path d="m0 12.4 0.5-1.5s5.1-1 5.1-2.6l1-1c0.1 0 3.2 3.6-6.6 5.1zm6.2-5.5-1.1 1-1.5-1h2.6z" fill="#1E5DE5"/>
   <path d="m3.6 6.7s0-2.6 4.6-3.6l-1 2.1-3.6 1.5z" fill="#F5007F"/>
   <polygon points="8.9 3 8.9 4.5 15.9 1.5 15.9 0" fill="#2E7D32"/>
   <polygon points="9.3 8.8 10.8 8.2 11.9 3.6 10.3 4.6" fill="#F4511E"/>
  </g>
 </g>
</svg>
