<svg width="28" height="28" viewBox="0 0 28 28">
  <g fill="none">
    <path fill="#FFF" d="M14,0.7 C11.4,0.7 8.8,1.5 6.6,2.9 L4,2.9 L2.9,2.9 L2.9,4 L2.9,6.6 C1.5,8.8 0.7,11.4 0.7,14 C0.7,16.6 1.5,19.2 2.9,21.4 L2.9,24 L2.9,25.1 L4,25.1 L6.6,25.1 C8.8,26.6 11.3,27.3 14,27.3 C16.7,27.3 19.2,26.5 21.4,25.1 L24,25.1 L25.1,25.1 L25.1,24 L25.1,21.4 C26.6,19.2 27.3,16.7 27.3,14 C27.3,11.3 26.5,8.8 25.1,6.6 L25.1,4 L25.1,2.9 L24,2.9 L21.4,2.9 C19.2,1.5 16.6,0.7 14,0.7 Z" opacity=".6"/>
    <circle cx="14" cy="14" r="12" fill="#0D47A1"/>
    <rect width="20" height="20" x="4" y="4" fill="#D50000"/>
    <rect width="16" height="16" x="6" y="6" fill="#0D47A1"/>
    <path fill="#FFF" d="M3,-1.77635684e-15 L7,7.4 L11,-1.77635684e-15 L14,-1.77635684e-15 L14,14 L11,14 L11,5.61818182 L7,12.6 L3,5.61818182 L3,14 L0,14 L0,-1.77635684e-15 L3,-1.77635684e-15 Z" transform="translate(7 7)"/>
  </g>
</svg>
