<svg viewBox="0 0 24 13" xmlns="http://www.w3.org/2000/svg">
 <g>
  <path d="m22.9 4.5 0.8-2 0.3-0.7-0.6-0.5c-1.1-0.8-2.5-1.3-3.9-1.3-1 0-1.8 0.3-2.5 0.7l0.2-0.7h-1.4-0.7-1.1-2.6-0.9-0.2-0.7-0.7-0.1-1.8-1.1-1.9-0.7-0.3-0.6l-1.5 12h1.1 1 1 0.7 0.9 1.8 0.7l0.2-0.6 0.8-2 0.5-1.2-0.3 2.8-0.2 1h1.1 2.6 0.9l0.1-0.9 0.9-7.1h0.5 0.1c0 1 0.3 1.7 0.7 2.3l-0.3 0.8-0.8 2-0.3 0.6 0.5 0.5c1.2 1.2 2.8 1.9 4.4 1.9 2.6 0 4.3-1.6 4.3-4 0-1.3-0.5-2.2-1.1-2.8l0.2-0.8zm-13.3 3.5h-1.4-0.9l0.2-0.6 0.8-2 0.6-1.4h0.1 1.1l-0.5 4z" fill="#FFF" opacity=".6"/>
  <path d="m11.24 3h-2.34l0.7-2h6.3l-0.7 2h-1.36l-1.04 8h-2.6l1.04-8zm-7.24-2h4.9l-0.7 2h-2.54l-0.24 2h1.98l-0.8 2h-1.42l-0.24 2h3.26l-0.8 2h-3.4-2l1.3-10h0.7zm15.4 2.1c-0.5 0-0.8 0.2-0.8 0.7 0 1.6 4.3 0.7 4.3 4.2 0 2-1.5 3-3.3 3-1.4 0-2.8-0.6-3.7-1.6l0.8-2c0.8 0.9 2.1 1.5 2.9 1.5 0.6 0 1-0.3 1-0.8 0-1.7-4.3-0.7-4.3-4.1 0-1.8 1.3-3 3.2-3 1.2 0 2.4 0.4 3.2 1.1l-0.8 2c-0.8-0.6-1.9-1-2.5-1z" fill="#003364"/>
 </g>
</svg>
