<svg width="28" height="28" viewBox="0 0 28 28">
  <g fill="none">
    <g fill="#FFF">
      <circle cx="14" cy="14" r="14" opacity=".6"/>
      <circle cx="14" cy="14" r="13"/>
    </g>
    <path fill="#0D47A1" d="M3.1,6 L4.6,6 C5,6 5.4,6.1 5.8,6.4 L8.9,7.9 C10.4,8.7 12.2,9.1 13.9,9.1 L14.3,9.1 L18.3,8.1 L13.8,8.3 C12.8,8.2 11.8,7.9 10.9,7.5 L6,5.4 C5.5,5.2 5,5.1 4.5,5.2 L3.21089109,5.44554455 L4.3,0 L9.3,0 L11.8,7.5 L14.3,0 L19.3,0 L20.9,8 L23,8 L21.1470588,9.23529412 L22.3,15 L17.3,15 L16.1,9.4 L13.3,15 L10.3,15 L7.4,9.4 L6.3,15 L1.3,15 L2.7,8 L-6.66133815e-16,8 L3,6 L3,6.5 L3.1,6 Z" transform="translate(2 6)"/>
  </g>
</svg>
