<svg viewBox="0 0 29 20" xmlns="http://www.w3.org/2000/svg">
 <g>
  <path d="m28.2 8.7-2.1-2.1c-0.3-0.3-0.6-0.4-1-0.4h-0.4c0-0.1 0.1-0.1 0.1-0.2s0.1-0.2 0.1-0.2v-0.3-2c0-0.8-0.7-1.4-1.4-1.4-0.5 0-0.9 0.2-1.1 0.5l-2.5-2.2c-0.3-0.2-0.6-0.4-1-0.4s-0.8 0.2-1 0.4l-3.3 3.3-3.3-3.3c-0.3-0.2-0.7-0.4-1-0.4h-0.1c-0.4 0-0.7 0.2-1 0.5l-1.8 1.9c-0.2-0.2-0.5-0.3-0.9-0.3-0.8 0-1.4 0.6-1.4 1.4v2 0.2 0.1 0.1s0 0.1 0.1 0.3l0.1 0.1v0.1l0.1 0.1-0.4 0.1c-0.3-0.2-0.6-0.4-0.9-0.4-0.4 0-0.7 0.1-1 0.4l-2.1 2.1c-0.6 0.6-0.6 1.5 0 2l8.2 8.3c0.3 0.3 0.6 0.4 1 0.4 0.3 0 0.7-0.1 1.1-0.5l2.3-2.4c0.3 0.2 0.6 0.3 0.9 0.3 0.8 0 1.4-0.7 1.4-1.4v-2-0.2-0.1-0.1c0-0.1 0-0.2-0.1-0.3l-0.2-0.2s0-0.1-0.1-0.1v-0.1l-0.2-0.2h-0.1c-0.1 0-0.2-0.1-0.3-0.1s-0.2-0.1-0.3-0.1h-0.3-2c-0.2 0-0.4 0.1-0.6 0.1 0-0.7 0.3-1.4 0.8-1.9l1.8-1.7 1.8 1.7c0.5 0.5 0.8 1.2 0.8 1.9v6c0 0.6 0.4 1.1 0.9 1.2 0.2 0.2 0.5 0.3 0.9 0.3s0.8-0.2 1-0.4l8.3-8.3c0.7-0.6 0.7-1.5 0.2-2.1zm-17.9-7.7v0 0z" fill="#FFF" opacity=".6"/>
  <path d="m27.5 9.4-2.1-2.1c-0.2-0.2-0.5-0.2-0.6 0-0.2 0.2-0.2 0.5 0 0.6l1.7 1.7-6.6 6.6v-4.2c0-1.5-0.6-2.9-1.7-3.9l-2.2-2c-0.2-0.2-0.4-0.3-0.6-0.4l3.5-3.5 3.4 2.9h-0.8c-0.2 0-0.4 0.2-0.4 0.4s0.2 0.4 0.4 0.4h2 0.1 0.1 0.1s0.1 0 0.1-0.1v-0.1-0.1-0.1-0.1-2c0-0.2-0.2-0.4-0.4-0.4s-0.4 0.2-0.4 0.4v1l-3.9-3.4c-0.2 0-0.5 0-0.6 0.2l-4 4-4-4c-0.1-0.1-0.2-0.2-0.3-0.1-0.1 0-0.2 0.1-0.3 0.1l-3 3.2v-0.9c0-0.2-0.2-0.4-0.4-0.4s-0.5 0.2-0.5 0.4v2 0.1 0.1s0 0.1 0.1 0.1c0 0 0.1 0 0.1 0.1h0.1 0.1 2c0.2 0 0.4-0.2 0.4-0.4s-0.2-0.4-0.4-0.4h-1l2.7-2.9 3.4 3.4c-0.3 0.1-0.5 0.3-0.7 0.5l-2.2 2.1c-1.1 1-1.7 2.4-1.7 3.9v4.2l-6.4-6.5 1.8-1.8c0.2-0.2 0.2-0.5 0-0.6-0.2-0.2-0.5-0.2-0.6 0l-2.1 2c-0.2 0.2-0.2 0.5 0 0.6l8.3 8.3c0.1 0.1 0.2 0.1 0.3 0.1s0.2-0.1 0.3-0.1l3.5-3.7v0.9c0 0.2 0.2 0.4 0.4 0.4s0.4-0.2 0.4-0.4v-2-0.1-0.1s0-0.1-0.1-0.1c0 0-0.1 0-0.1-0.1h-0.1-0.1-2c-0.2 0-0.4 0.2-0.4 0.4s0.2 0.4 0.4 0.4h1l-2.6 2.7v-4.6c0-1 0.4-1.9 1.1-2.6l2.2-2.1 0.1-0.1c0.1-0.2 0.3-0.2 0.4 0 0 0 0 0.1 0.1 0.1l2.2 2.1c0.7 0.7 1.1 1.6 1.1 2.6v6c0 0.2 0.4 0.3 0.5 0.3 0.1 0.1 0.2 0.1 0.3 0.1s0.2 0 0.3-0.1l8.3-8.3c0.1-0.1 0.1-0.4 0-0.6z" fill="#C41F38"/>
 </g>
</svg>
