<?xml version="1.0" encoding="UTF-8" standalone="no"?>
<svg width="19px" height="11px" viewBox="0 0 19 11" version="1.1" xmlns="http://www.w3.org/2000/svg" xmlns:xlink="http://www.w3.org/1999/xlink">
    <!-- Generator: Sketch 3.8.3 (29802) - http://www.bohemiancoding.com/sketch -->
    <title>subway-kiev-s</title>
    <desc>Created with Sketch.</desc>
    <defs></defs>
    <g id="POI-Clear" stroke="none" stroke-width="1" fill="none" fill-rule="evenodd">
        <g id="subway-kiev-s">
            <polygon id="Shape" fill="#FFFFFF" points="7.45726375 0.460333885 10.3418791 4.96033389 8.65812086 4.96033389 11.5427362 0.460333885 12.4000909 0 13.2744328 0.543683352 17.8898175 9.54368335 18.6366465 11 17 11 13.7692308 11 13.1582253 11 12.8794133 10.4563166 11.1486441 7.08131665 12.8376411 7.22609233 10.2991796 10.6010923 9.49999976 10.9999998 8.70082042 10.6010923 6.16235888 7.22609233 7.85135593 7.08131665 6.12058669 10.4563166 5.84177471 11 5.23076923 11 2 11 0.363353487 11 1.11018254 9.54368335 5.72556715 0.543683352 6.57494664 0"></polygon>
            <polygon id="Rectangle-403" fill="#00923F" points="6.61538462 1 9.5 5.5 12.3846154 1 17 10 13.7692308 10 12.0384615 6.625 9.5 10 6.96153847 6.625 5.23076923 10 2 10"></polygon>
        </g>
    </g>
</svg>