<svg viewBox="0 0 19 20" xmlns="http://www.w3.org/2000/svg">
 <g fill="none">
  <path d="m18.3 7.5-5.3-5.8c-0.5-0.6-1.3-0.9-2.2-0.9-0.8 0-1.6 0.3-2.1 0.8l-7.2 7.2-0.8 0.7 0.6 0.5h-1.2l1 1.6 2 3 0.4 0.4h0.5 2l3.2 3.9 0.7 0.8 0.8-0.8 7.5-7.4c0.5-0.5 0.8-1.3 0.8-2v-0.1c0-0.7-0.3-1.4-0.7-1.9z" fill="#FFF" opacity=".6"/>
  <path d="m17.5 8.1-5.3-5.8c-0.7-0.8-2.1-0.8-2.9-0.1l-7.1 7.3 1.7 1.5h-1.9l2 3h2.5l3.5 4.3 7.5-7.4c0.4-0.3 0.5-0.8 0.5-1.3v-0.2c0-0.5-0.2-0.9-0.5-1.3z" fill="#FFF"/>
  <path d="m3 9.5h3l4.5-4.4 4.5 4.4-4.5 4.4v3.2l6.6-6.5c0.3-0.3 0.4-0.6 0.4-0.9v-0.3c0-0.3-0.1-0.6-0.3-0.9l-5.3-5.8c-0.3-0.3-0.7-0.5-1.1-0.5s-0.8 0.2-1 0.4l-7.3 7.2" fill="#FFF" stroke="#0FA9E7"/>
  <rect x="7" y="9" width="1" height="1" fill="#FFF"/>
  <rect x="8" y="8" width="1" height="1" fill="#FFF"/>
  <rect x="9" y="7" width="1" height="1" fill="#FFF"/>
  <rect x="10" y="6" width="1" height="1" fill="#FFF"/>
  <rect x="11" y="7" width="1" height="1" fill="#FFF"/>
  <rect x="12" y="8" width="1" height="1" fill="#FFF"/>
  <rect x="13" y="9" width="1" height="1" fill="#FFF"/>
  <g transform="translate(7 6)">
   <rect transform="rotate(-45 3.43 3.5)" x="1.179" y="1.25" width="4.5" height="4.5" fill="#232E7C"/>
   <path d="m3.5 0.7 2.8 2.8-2.8 2.8-2.8-2.8 2.8-2.8zm0-0.7-3.5 3.5 3.5 3.5 3.5-3.5-3.5-3.5z" fill="#FFF"/>
  </g>
  <rect x="8" y="10" width="4" height="1" fill="#FFF"/>
  <rect x="10" y="11" width="1" height="1" fill="#FFF"/>
  <rect x="11" y="11" width="1" height="1" fill="#FFF"/>
  <rect x="11" y="10" width="1" height="1" fill="#232E7C"/>
  <path d="m9.5 14h-5.5l-2-3h7.5c0.8 0 1.5 0.7 1.5 1.5s-0.7 1.5-1.5 1.5z" fill="#232E7C"/>
  <rect x="8" y="12" width="1" height="1" fill="#FFF"/>
 </g>
</svg>
