<svg viewBox="0 0 24 26" xmlns="http://www.w3.org/2000/svg">
 <g>
  <path d="m19.8 0h-15.6c-2.3 0-4.2 1.9-4.2 4.2v15.6c0 2.3 1.9 4.2 4.2 4.2h4.3c0.7 1.2 2 2 3.5 2s2.7-0.8 3.5-2h4.3c2.3 0 4.2-1.9 4.2-4.2v-15.6c0-2.3-1.9-4.2-4.2-4.2z" fill="#FFF" opacity=".6"/>
  <path d="m19.8 23h-15.6c-1.8 0-3.2-1.4-3.2-3.2v-15.6c0-1.8 1.4-3.2 3.2-3.2h15.6c1.8 0 3.2 1.4 3.2 3.2v15.6c0 1.8-1.4 3.2-3.2 3.2z" fill="#1E88E5"/>
  <path d="m11 9c0-0.8-0.7-1.5-1.5-1.5s-1.5 0.7-1.5 1.5v7h-3v-7c0-2.5 2-4.5 4.5-4.5 1.1565 0 2.206 0.42799 3 1.1355 0.79401-0.7075 1.8435-1.1355 3-1.1355 2.5 0 4.5 2 4.5 4.5v7h-3v-7c0-0.8-0.7-1.5-1.5-1.5s-1.5 0.7-1.5 1.5v7h-3v-7z" fill="#FFF"/>
  <circle cx="12" cy="22" r="3" fill="#FF8F00"/>
 </g>
</svg>
