<svg width="33" height="33" viewBox="0 0 33 33">
  <g fill="none">
    <path fill="#FFF" d="M16.5,0 C7.4,0 0,7.4 0,16.5 C0,25.6 7.4,33 16.5,33 C25.6,33 33,25.6 33,16.5 C33,7.4 25.6,0 16.5,0 Z" opacity=".6"/>
    <path fill="#FFF" d="M32,16.5 C32,25 25,32 16.5,32 C8,32 1,25 1,16.5 C1,8 8,1 16.5,1 C25,1 32,8 32,16.5 Z"/>
    <path fill="#00C853" d="M25,16.3 L25,24 L20,24 L20,21.5 L25,16.3 Z M13,21.5 L13,24 L8,24 L8,16.3 L13,21.5 Z M25,8 L25,13.3 L16.5,22.2 L8,13.3 L8,8 L16.5,15.6 L25,8 Z"/>
    <path fill="#448AFF" d="M16.5,3.8 C23.5,3.8 29.2,9.5 29.2,16.5 C29.2,23.5 23.5,29.2 16.5,29.2 C9.5,29.2 3.8,23.5 3.8,16.5 C3.8,9.5 9.5,3.8 16.5,3.8 Z M16.5,3 C9,3 3,9 3,16.5 C3,24 9,30 16.5,30 C24,30 30,24 30,16.5 C30,9 24,3 16.5,3 Z"/>
  </g>
</svg>
