<svg width="23" height="24" viewBox="0 0 23 24">
  <g fill="none">
    <path fill="#FFF" d="M22,19.9 L20.5,15.9 C21.4,14.3 22,12.5 22,10.5 C21.9,4.7 17.2,0 11.5,0 C5.8,0 1.1,4.7 1.1,10.5 C1.1,12.2 1.5,13.7 2.2,15.1 L0.4,19.9 C-4.16333634e-16,20.8 0.2,21.9 0.7,22.7 C1.2,23.5 2.1,24 3.1,24 L7.9,24 C8.5,24 9,23.8 9.5,23.5 C10,23.8 10.5,24 11.1,24 C11.7,24 12.2,23.8 12.7,23.5 C13.2,23.8 13.7,24 14.3,24 L19.1,24 C20.1,24 21,23.5 21.6,22.7 C22.2,21.9 22.3,20.8 22,19.9 Z" opacity=".6"/>
    <path fill="#448AFF" d="M19.2835694,15.9480715 L20.9,20.3 C21.2,21 21,21.6 20.7,22.2 C20.4,22.8 19.8,23.1 19.1,23.1 L14.3,23.1 C13.7,23.1 13.1,22.8 12.7,22.3 C12.3,22.8 11.7,23.1 11.1,23.1 C10.5,23.1 9.9,22.8 9.5,22.3 C9.1,22.8 8.5,23.1 7.9,23.1 L3.1,23.1 C2.5,23.1 1.9,22.8 1.5,22.2 C1.1,21.6 1.1,20.9 1.3,20.3 L3.24259794,15.2006804 C2.45182141,13.8145597 2,12.2100441 2,10.5 C2,5.25329488 6.25329488,1 11.5,1 C16.7467051,1 21,5.25329488 21,10.5 C21,12.5269421 20.365203,14.4056194 19.2835694,15.9480715 Z"/>
    <path fill="#FFF" d="M15.2,9.5 C14.9,9.5 14.6,9.6 14.4,9.9 L11.2,14.1 L7.9,9.9 C7.7,9.6 7.4,9.5 7.1,9.5 C7.1,9.5 7,9.5 7,9.5 C6.6,9.6 6.3,9.8 6.2,10.1 L2.2,20.6 C2.1,20.9 2.1,21.3 2.3,21.5 C2.5,21.7 2.8,22 3.1,22 L7.9,22 C8.3,22 8.7,21.7 8.9,21.3 L9.3,19.8 L10.3,21.6 C10.5,21.9 10.8,22.1 11.2,22.1 C11.6,22.1 11.9,21.9 12.1,21.6 L13.1,19.8 L13.5,21.3 C13.6,21.7 14,22 14.5,22 L19.3,22 C19.6,22 19.9,21.8 20.1,21.6 C20.3,21.3 20.3,21 20.2,20.7 L16.2,10.2 C16.1,9.9 15.8,9.6 15.4,9.6 C15.3,9.5 15.2,9.5 15.2,9.5 Z"/>
    <polygon fill="#D50000" points="15.2 10.5 11.1 15.7 7.1 10.5 3.1 21 7.9 21 9 17.1 11.1 21 13.3 17.1 14.4 21 19.2 21"/>
    <path fill="#FFF" d="M14,7 L14,8 L14,9 L13,9 L13,8 L10,8 L10,9 L10,10 L9,10 L9,9 L9,8 L9,7 L9,6 L9,5 L8,5 L8,4 L9,4 L10,4 L10,5 L10,6 L11,6 L13,6 L14,7 Z M12,9 L13,9 L13,10 L12,10 L12,9 Z M12,4 L11,4 L10,4 L10,3 L11,3 L12,3 L12,4 Z"/>
  </g>
</svg>
