<svg width="28" height="29" viewBox="0 0 28 29">
  <g fill="none">
    <path fill="#FFF" d="M27,17 L22.6,17 C23.8,15.3 24.5,13.3 24.5,11.1 C24.5,5.4 19.8,0.8 14,0.8 C8.2,0.8 3.5,5.4 3.5,11.1 C3.5,13.3 4.2,15.3 5.4,17 L1,17 C0.6,17 0.2,17.3 0.1,17.7 C1.38777878e-17,18.1 0.1,18.5 0.4,18.8 L13.4,28.6 C13.4,28.6 13.4,28.6 13.5,28.6 C13.5,28.6 13.6,28.6 13.6,28.7 C13.6,28.7 13.6,28.7 13.6,28.7 C13.7,28.8 13.9,28.8 14,28.8 C14,28.8 14,28.8 14,28.8 C14,28.8 14,28.8 14,28.8 C14.1,28.8 14.3,28.8 14.4,28.7 C14.4,28.7 14.4,28.7 14.4,28.7 C14.4,28.7 14.5,28.7 14.5,28.6 C14.5,28.6 14.5,28.6 14.6,28.6 L27.6,18.8 C27.9,18.6 28,18.3 28,18 C28,17.4 27.6,17 27,17 Z" opacity=".6"/>
    <path fill="#154499" d="M14,20.25 C8.89136606,20.25 4.75,16.1086339 4.75,11 C4.75,5.89136606 8.89136606,1.75 14,1.75 C19.1086339,1.75 23.25,5.89136606 23.25,11 C23.25,16.1086339 19.1086339,20.25 14,20.25 Z M14,18.75 C18.2802068,18.75 21.75,15.2802068 21.75,11 C21.75,6.71979319 18.2802068,3.25 14,3.25 C9.71979319,3.25 6.25,6.71979319 6.25,11 C6.25,15.2802068 9.71979319,18.75 14,18.75 Z"/>
    <path fill="#FF0002" d="M14,27.8 L1,18 L5.6,18 L14,24.3 L22.4,18 L27,18 L14,27.8 Z"/>
    <path fill="#FF3739" d="M12.1730039,12.0138596 L10.8,16 L8.8,16 L11.4666667,8 L10,8 L10,6 L15,6 L15,8 L13.5555556,8 L13.0101674,9.583385 L15.8,16 L13.8,16 L12.1730039,12.0138596 Z M19,15.6 L17,16.6 L17,6.8 L19,5.8 L19,15.6 Z"/>
  </g>
</svg>
