<svg viewBox="0 0 26 26" xmlns="http://www.w3.org/2000/svg">
 <g>
  <rect width="26" height="26" fill="#FFF" opacity=".6"/>
  <rect x="1" y="1" width="24" height="24" fill="#FFF"/>
  <path d="m22.1 24h-0.3c-1 0-1.9-0.8-1.9-1.9v-0.3c0-1 0.8-1.9 1.9-1.9h0.3c1 0 1.9 0.8 1.9 1.9v0.3c0 1.1-0.8 1.9-1.9 1.9zm-6 0h-0.3c-1 0-1.9-0.8-1.9-1.9v-0.3c0-1 0.8-1.9 1.9-1.9h0.3c1 0 1.9 0.8 1.9 1.9v0.3c0 1.1-0.8 1.9-1.9 1.9zm-6 0h-0.2c-1 0-1.9-0.8-1.9-1.9v-0.3c0-1 0.8-1.9 1.9-1.9h0.3c1 0 1.9 0.8 1.9 1.9v0.3c-0.1 1.1-0.9 1.9-2 1.9zm-6 0h-0.2c-1 0-1.9-0.8-1.9-1.9v-0.3c0-1 0.8-1.9 1.9-1.9h0.3c1 0 1.9 0.8 1.9 1.9v0.3c-0.1 1.1-0.9 1.9-2 1.9zm18-6h-0.3c-1 0-1.9-0.8-1.9-1.9v-0.3c0-1 0.8-1.9 1.9-1.9h0.3c1 0 1.9 0.8 1.9 1.9v0.3c0 1.1-0.8 1.9-1.9 1.9zm-6 0h-0.3c-1 0-1.9-0.8-1.9-1.9v-0.3c0-1 0.8-1.9 1.9-1.9h0.3c1 0 1.9 0.8 1.9 1.9v0.3c0 1.1-0.8 1.9-1.9 1.9zm-6 0h-0.2c-1 0-1.9-0.8-1.9-1.9v-0.3c0-1 0.8-1.9 1.9-1.9h0.3c1 0 1.9 0.8 1.9 1.9v0.3c-0.1 1.1-0.9 1.9-2 1.9zm-6 0h-0.2c-1 0-1.9-0.8-1.9-1.9v-0.3c0-1 0.8-1.9 1.9-1.9h0.3c1 0 1.9 0.8 1.9 1.9v0.3c-0.1 1.1-0.9 1.9-2 1.9zm18-6h-0.3c-1 0-1.9-0.8-1.9-1.9v-0.2c0-1 0.8-1.9 1.9-1.9h0.3c1 0 1.9 0.8 1.9 1.9v0.3c0 1-0.8 1.8-1.9 1.8zm-6 0h-0.3c-1 0-1.9-0.8-1.9-1.9v-0.2c0-1 0.8-1.9 1.9-1.9h0.3c1 0 1.9 0.8 1.9 1.9v0.3c0 1-0.8 1.8-1.9 1.8zm-6 0h-0.2c-1 0-1.9-0.8-1.9-1.9v-0.2c0-1.1 0.8-1.9 1.9-1.9h0.3c1 0 1.9 0.8 1.9 1.9v0.3c-0.1 1-0.9 1.8-2 1.8zm-6 0h-0.2c-1 0-1.9-0.8-1.9-1.9v-0.2c0-1.1 0.8-1.9 1.9-1.9h0.3c1 0 1.8 0.8 1.8 1.9v0.3c0 1-0.8 1.8-1.9 1.8zm18-6h-0.3c-1 0-1.9-0.8-1.9-1.9v-0.2c0-1 0.8-1.9 1.9-1.9h0.3c1 0 1.9 0.8 1.9 1.9v0.3c0 1-0.8 1.8-1.9 1.8zm-6 0h-0.3c-1 0-1.9-0.8-1.9-1.9v-0.2c0-1 0.8-1.9 1.9-1.9h0.3c1 0 1.9 0.8 1.9 1.9v0.3c0 1-0.8 1.8-1.9 1.8zm-6 0h-0.2c-1.1 0-1.9-0.8-1.9-1.9v-0.2c0-1.1 0.8-1.9 1.9-1.9h0.3c1 0 1.9 0.8 1.9 1.9v0.3c-0.1 1-0.9 1.8-2 1.8zm-6 0h-0.2c-1.1 0-1.9-0.8-1.9-1.9v-0.2c0-1.1 0.8-1.9 1.9-1.9h0.3c1 0 1.8 0.8 1.8 1.9v0.3c0 1-0.8 1.8-1.9 1.8z" fill="#FFA300"/>
 </g>
</svg>
