<svg width="17" height="13" viewBox="0 0 17 13">
  <g fill="none" fill-rule="evenodd">
    <rect width="17" height="5" y="4" fill="#FFF" opacity=".6"/>
    <circle cx="8.5" cy="6.5" r="6.5" fill="#FFF" opacity=".6"/>
    <path fill="#E12524" d="M8.5,12 C5.46243388,12 3,9.53756612 3,6.5 C3,3.46243388 5.46243388,1 8.5,1 C11.5375661,1 14,3.46243388 14,6.5 C14,9.53756612 11.5375661,12 8.5,12 Z M8.5,10 C10.4329966,10 12,8.43299662 12,6.5 C12,4.56700338 10.4329966,3 8.5,3 C6.56700338,3 5,4.56700338 5,6.5 C5,8.43299662 6.56700338,10 8.5,10 Z"/>
    <rect width="15" height="3" x="1" y="5" fill="#043A86"/>
  </g>
</svg>
