<svg viewBox="0 0 21 22" xmlns="http://www.w3.org/2000/svg">
 <g transform="translate(-1)">
  <path d="m21.1 5.3-1-1-3.7-4c-0.2-0.2-0.5-0.3-0.8-0.3h-5.4c-0.4 0-0.8 0.2-0.9 0.6-0.2 0.4-0.1 0.8 0.1 1.1l2.2 2.3h-9.6c-0.6 0-1 0.4-1 1v4c0 0.2 0.1 0.4 0.2 0.5-0.1 0.1-0.2 0.3-0.2 0.5v3c0 0.6 0.4 1 1 1l-0.9 1.5c-0.2 0.4-0.1 0.8 0.1 1.2l1 1 3.7 4c0.2 0.2 0.5 0.3 0.8 0.3h5.5c0.4 0 0.8-0.2 0.9-0.6 0.2-0.4 0.1-0.8-0.2-1.1l-2.2-2.3h9.3c0.6 0 1-0.4 1-1v-3c0-0.2-0.1-0.4-0.2-0.5 0.1-0.1 0.2-0.3 0.2-0.5v-3c0-0.6-0.4-1-1-1h-0.1l1.3-2.5c0.2-0.4 0.1-0.8-0.1-1.2z" fill="#FFF" opacity=".6"/>
  <polygon points="2.4 16 4 13 20 13 20 17 3.4 17" fill="#0D47A1"/>
  <polygon points="2 16 3.6 13 4.7 13 8.4 17 12.1 21 6.7 21 3 17" fill="#0D47A1"/>
  <polygon points="19.6 6 18 9 2 9 2 5 18.6 5" fill="#F50000"/>
  <polygon points="20.3 6 18.7 9 17.6 9 13.9 5 10.2 1 15.6 1 19.4 5" fill="#F50000"/>
  <rect x="2" y="10" width="18" height="2" fill="#0D47A1"/>
 </g>
</svg>
