<svg width="18" height="18" viewBox="0 0 18 18">
  <g fill="none">
    <rect width="18" height="18" fill="#FFF" opacity=".6"/>
    <rect width="16" height="16" x="1" y="1" fill="#FFF"/>
    <path fill="#00BFA5" d="M11.5,6 L8.6,10 C8.4,10.3 8.2,10.4 8.1,10.4 C8,10.4 7.7,10.5 7.5,10.3 C7.2,10.1 7.1,9.9 7.1,9.8 C7.1,9.7 7,9.4 7.2,9.2 L9.5,5.6 L11.1,3 L6.9,3 L6.8,3.1 L4.2,7.2 C3.6,8.2 3.4,9.4 3.6,10.5 C3.8,11.6 4.5,12.6 5.5,13.3 C6.3,13.8 7.1,14 7.9,14 C8.8,14 9.7,13.7 10.6,13 C11,12.7 11.4,12.2 11.7,11.8 L15.7,6 L11.5,6 Z"/>
  </g>
</svg>
