<svg viewBox="0 0 24 24" xmlns="http://www.w3.org/2000/svg">
 <g fill="none">
  <circle cx="12" cy="12" r="12" fill="#FFF" opacity=".6"/>
  <g transform="translate(1 1)">
   <path d="m11 21.3c-5.7 0-10.2-4.6-10.2-10.3s4.5-10.2 10.2-10.2 10.3 4.6 10.3 10.3c0 5.6-4.6 10.2-10.3 10.2z" fill="#FFF"/>
   <path d="m11 1.5c5.2 0 9.5 4.3 9.5 9.5s-4.3 9.5-9.5 9.5-9.5-4.3-9.5-9.5 4.3-9.5 9.5-9.5zm0-1.5c-6.1 0-11 4.9-11 11s4.9 11 11 11 11-4.9 11-11-4.9-11-11-11z" fill="#212121"/>
  </g>
  <path d="m14 10v9h-4v-9h-5v-3h14v3h-5z" fill="#212121"/>
 </g>
</svg>
