<svg width="24" height="28" viewBox="0 0 24 28">
  <g fill="none">
    <path fill="#FFF" d="M24,12 C24,11.4 23.6,11 23,11 L22.1,11 L23.8,7.8 C24,7.4 23.9,7 23.7,6.6 L22.5,5.3 L17.8,0.3 C17.7,0.1 17.4,0 17.2,0 L10.4,0 C9.9,0 9.6,0.2 9.4,0.6 C9.2,1 9.3,1.4 9.6,1.7 L12.7,5 L1,5 C0.4,5 0,5.4 0,6 L0,11 C0,11.2 0.1,11.4 0.2,11.5 C0.1,11.6 0,11.8 0,12 L0,16 C0,16.6 0.4,17 1,17 L1.9,17 L0.2,20.2 C-5.55111512e-17,20.6 0.1,21 0.3,21.4 L1.5,22.7 L6.2,27.7 C6.3,27.9 6.6,28 6.8,28 L13.6,28 C14,28 14.4,27.8 14.5,27.4 C14.7,27 14.6,26.6 14.3,26.3 L11.3,23 L23,23 C23.6,23 24,22.6 24,22 L24,17 C24,16.8 23.9,16.6 23.8,16.5 C23.9,16.4 24,16.2 24,16 L24,12 Z" opacity=".6"/>
    <polygon fill="#0D47A1" points="1 20.7 3 17 23 17 23 22 2.2 22"/>
    <polygon fill="#0D47A1" points="1 20.7 3 17 4.4 17 9 22 13.7 27 6.8 27 2.2 22"/>
    <polygon fill="#F50000" points="23 7.3 21 11 1 11 1 6 21.8 6"/>
    <polygon fill="#F50000" points="23 7.3 21 11 19.6 11 15 6 10.3 1 17.2 1 21.8 6"/>
    <rect width="22" height="2" x="1" y="13" fill="#0D47A1"/>
  </g>
</svg>
