<svg width="23" height="17" viewBox="0 0 23 17">
  <g fill="none">
    <path fill="#FFF" d="M14.5,0 C11.5,0 8.8,1.6 7.3,4 L1,4 C0.6,4 0.2,4.3 0.1,4.7 C0,5.1 0.1,5.6 0.4,5.8 C1.7,6.8 3.1,7.5 4.7,8.1 C4.4,8.2 4.1,8.4 4.1,8.7 C4,9.1 4.1,9.6 4.4,9.8 L6,11 C6.2,11.1 6.3,11.2 6.5,11.3 C7.7,14.6 10.8,17 14.5,17 C19.2,17 23,13.2 23,8.5 C23,3.8 19.2,0 14.5,0 Z" opacity=".6"/>
    <path fill="#212121" d="M22,8.5 C22,12.6 18.6,16 14.5,16 C12.1,16 9.9,14.8 8.5,13 L11.3,13 C12.2,13.6 13.3,14 14.4,14 C17.4,14 19.9,11.5 19.9,8.5 C19.9,5.5 17.4,3 14.4,3 C13.2,3 12.1,3.4 11.3,4 L8.5,4 C9.8,2.2 12,1 14.5,1 C18.6,1 22,4.4 22,8.5 Z"/>
    <path fill="#CE000C" d="M1,5 L13,5 C14.7,5 16,6.3 16,8 L15,9 L14,8 L10,8 C6.8,8 3.6,6.9 1,5 Z M5,9 L11,9 C12.7,9 14,10.3 14,12 L13,13 L12,12 C10.1,12 8.2,11.4 6.6,10.2 L5,9 Z"/>
  </g>
</svg>
