<svg viewBox="0 0 18 18" xmlns="http://www.w3.org/2000/svg">
 <g>
  <rect width="18" height="18" fill="#FFF" opacity=".6"/>
  <rect x="1" y="1" width="16" height="16" fill="#FFF"/>
  <path d="m8.204 10.082c1.351-0.90796 4.0627-3.2227 4.0627-7.1746h2.3593s-1.3355 7.0114-6.4882 7.585l-0.68029 4.2113h-0.99815l1.9056-11.796h0.99815l-1.159 7.1746zm-2.6521 4.6217h-1.5426l1.9963-11.796h1.4519l-1.9056 11.796z" fill="#8BC34A"/>
  <path d="m15.352 14.704s-0.72593-2.1778-3.6296-3.6296c-1.8148-0.90741-4.537-0.90741-4.537-0.90741h-4.0833l-0.4537 0.90741h4.1741c0.90741 0 1.7241 0.090741 2.5407 0.4537 1.0889 0.54444 2.2685 1.8148 2.2685 3.1759h3.7204z" fill="#1E88E5"/>
 </g>
</svg>
