<svg viewBox="0 0 24 24" xmlns="http://www.w3.org/2000/svg">
 <g>
  <path d="m12 0c-6.6 0-12 5.4-12 12s5.4 12 12 12 12-5.4 12-12-5.4-12-12-12z" fill="#FFF" opacity=".6"/>
  <path d="m12 1c-6.1 0-11 4.9-11 11s4.9 11 11 11 11-4.9 11-11-4.9-11-11-11z" fill="#FFF"/>
  <path d="m2 14.533c0-1.4221 4.3498-5.1863 7.6958-6.2738 2.0913-0.6692 7.6958 0.1673 7.6958 0.1673s-5.6046 0.58555-7.0266 1.2548c-2.7605 1.4221-4.1825 2.7605-4.1825 2.7605s9.4525-3.5133 17.817-2.0913c0 0-11.293 0.6692-17.734 4.4335-0.6692 0.41825-1.3384 0.6692-2.0913 0.8365-1.0038 0.1673-2.1749 0.08365-2.1749-1.0875z" fill="#F50000"/>
 </g>
</svg>
