<svg width="28" height="28" viewBox="0 0 28 28">
  <g fill="none">
    <circle cx="14" cy="14" r="14" fill="#FFF" opacity=".6"/>
    <g transform="translate(1 1)">
      <path fill="#FFF" d="M13,25.5 C6.1,25.5 0.5,19.9 0.5,13 C0.5,6.1 6.1,0.5 13,0.5 C19.9,0.5 25.5,6.1 25.5,13 C25.5,19.9 19.9,25.5 13,25.5 Z"/>
      <path fill="#2E7D32" d="M13,1 C19.6,1 25,6.4 25,13 C25,19.6 19.6,25 13,25 C6.4,25 1,19.6 1,13 C1,6.4 6.4,1 13,1 Z M13,0 C5.8,0 0,5.8 0,13 C0,20.2 5.8,26 13,26 C20.2,26 26,20.2 26,13 C26,5.8 20.2,0 13,0 Z"/>
    </g>
    <polygon fill="#2E7D32" points="24 20 18 6 14.1 12.5 10 6 4 20 9 20 11.3 13.8 13.9 17.5 16.7 13.9 19 20"/>
    <polygon fill="#FFF" points="18.7 21.2 19.6 20.8 14.4 7.4 13.6 7.8"/>
    <polygon fill="#FFF" points="9.4 21.2 8.6 20.8 13.7 7.4 14.6 7.8"/>
  </g>
</svg>
