<svg width="31" height="21" viewBox="0 0 31 21">
  <g fill="none">
    <path fill="#FFF" d="M8,0 L7,0 L7,5 C7,5 7.2,5.4 6,6.1 L6,0 L0,0 L0,21 L6,21 L6,20 L6,19.9 C7.2,20.6 8.6,21 10,21 C12.1,21 14,20.2 15.5,18.8 C17,20.2 18.9,21 21,21 C22.4,21 23.8,20.6 25,19.9 L25,20 L25,21 L31,21 L31,0 L8,0 Z M10,16 C8.3,16 7,14.7 7,13 C7,11.3 8.3,10 10,10 C11.7,10 13,11.3 13,13 C13,14.7 11.7,16 10,16 Z M21,16 C19.3,16 18,14.7 18,13 C18,11.3 19.3,10 21,10 C22.7,10 24,11.3 24,13 C24,14.7 22.7,16 21,16 Z" opacity=".6"/>
    <path fill="#1E88E5" d="M26,6 L26,8.1 C24.7,6.8 23,6 21,6 C17.1,6 14,9.1 14,13 C14,16.9 17.1,20 21,20 C23,20 24.7,19.2 26,17.9 L26,20 L30,20 L30,6 L26,6 Z M21,17 C18.8,17 17,15.2 17,13 C17,10.8 18.8,9 21,9 C23.2,9 25,10.8 25,13 C25,15.2 23.2,17 21,17 Z"/>
    <path fill="#000" d="M10,6 C8,6 6.3,6.8 5,8.1 L5,1 L1,1 L1,20 L5,20 L5,17.9 C6.3,19.2 8,20 10,20 C13.9,20 17,16.9 17,13 C17,9.1 13.9,6 10,6 Z M10,17 C7.8,17 6,15.2 6,13 C6,10.8 7.8,9 10,9 C12.2,9 14,10.8 14,13 C14,15.2 12.2,17 10,17 Z M8,1 L30,1 L30,4 L8,4 L8,1 Z"/>
  </g>
</svg>
