<svg viewBox="0 0 17 17" xmlns="http://www.w3.org/2000/svg">
<path d="M17 .702A.702.702 0 0 0 16.298 0H.702A.702.702 0 0 0 0 .702v15.746c0 .388.314.702.702.702h15.596a.702.702 0 0 0 .702-.702z"/><path d="M320 33c0-6.627-5.373-12-12-12H31c-6.627 0-12 5.373-12 12v277c0 6.627 5.373 12 12 12h277c6.627 0 12-5.373 12-12z" style="fill:#f9d42b" transform="scale(.05015)"/><path d="M12.436 9.227a.775.775 0 0 0-.752-.602H8.776a.602.602 0 0 0-.602.602v2.908c0 .333.27.602.602.602h3.71a.607.607 0 0 0 .467-.258.639.639 0 0 0 .116-.485z"/><path d="m4.936 3.66-3.482 8.1v3.334c0 .332.27.602.602.602h12.988c.332 0 .602-.27.602-.602v-.802L12.913 1.504H5.867L5.198 3.06H11.942l2.15 9.986c0 .246-.165.444-.42.444H8.274c-.3 0-.544-.24-.551-.539v-.464a.551.551 0 0 0-.552-.551H2.939c-.137 0-.165-.097-.16-.237a.843.843 0 0 1 .077-.317l2.837-6.266h4.988V3.66H6.37"/></svg>