<svg width="18" height="18" viewBox="0 0 18 18">
  <g fill="none">
    <path fill="#FFF" d="M9,0 C4,0 0,4 0,9 C0,14 4,18 9,18 C14,18 18,14 18,9 C18,4 14,0 9,0 Z" opacity=".6"/>
    <circle cx="9" cy="9" r="6" fill="#FFF"/>
    <path fill="#0D47A1" d="M12.5877334,9 L15.2,9 L17.1,9 C17.1,9.7 17,10.4 16.8,11 C15.9,14.5 12.7,17 9,17 C4.6,17 1,13.4 1,9 C1,4.6 4.6,1 8.9,1 C12.7,1 15.8,3.5 16.7,7 L14.8,7 C14,4.5 11.7,2.8 9,2.8 C5.6,2.8 2.9,5.6 2.9,9 C2.9,12.4 5.7,15.2 9.1,15.2 C11.8,15.2 14.1,13.4 14.9,11 L12.1788728,11 C12.0539828,11.3227602 11.896248,11.656566 11.7,12 L6,12 L6,6 L11.7,6 C11.7,6 12.6260222,7.15752777 12.5877334,9 Z M9,10 C9.6,10 10,9.6 10,9 C10,8.4 9.6,8 9,8 L8,8 L8,10 L9,10 Z"/>
  </g>
</svg>
