<svg viewBox="0 0 24 24" xmlns="http://www.w3.org/2000/svg">
 <g>
  <path d="m12 24c-6.6 0-12-5.4-12-12s5.4-12 12-12 12 5.4 12 12-5.4 12-12 12z" fill="#FFF" opacity=".6"/>
  <circle cx="12" cy="12" r="11" fill="#D50000"/>
  <path d="m20 10.4c-0.1-0.8-0.7-1.4-1.5-1.4h-1c-0.7 0-1.2 0.4-1.4 1h-0.1-1.1c-0.2-0.6-0.8-1-1.4-1h-1c-0.7 0-1.2 0.4-1.4 1h-0.1v-1h-2v9h2v-6.1c0-0.5 0.4-0.9 0.9-0.9h1.1c0.5 0 0.9 0.4 0.9 0.9v6.1h2v-6.1c0-0.5 0.4-0.9 0.9-0.9h1.1c0.5 0 0.9 0.4 0.9 0.9v6.1h2v-5.8c0.2-0.8-0.2-1.5-0.8-1.8z" fill="#FFF"/>
 </g>
</svg>
