<svg width="18" height="18" viewBox="0 0 18 18">
  <g fill="none">
    <rect width="18" height="18" fill="#FFF" opacity=".6"/>
    <rect width="16" height="16" x="1" y="1" fill="#212121"/>
    <path fill="#FFF" d="M14.1,14.8 C14,14.8 14,14.9 13.9,15 L11.1,15 L11,14.6 L9.8,11.1 L11.2,12.3 L12.6,13.5 L14.1,14.8 Z M8.5,11.1 L7.3,14.7 L7.2,15 L4.1,15 C4.1,15 4.1,15 4,14.9 L5.5,13.6 L7.1,12.3 L8.5,11.1 Z M9,3 C12.9,3 16,6.1 16,10 C16,11.3 15.6,12.6 14.9,13.7 L14.6,13.4 L13.4,12.4 C13.8,11.7 14,10.9 14,10 C14,7.2 11.8,5 9,5 C6.2,5 4,7.2 4,10 C4,11 4.3,11.8 4.7,12.6 L3.5,13.6 L3.2,13.9 C2.4,12.8 2,11.5 2,10 C2,6.1 5.1,3 9,3 Z"/>
  </g>
</svg>
