<svg viewBox="0 0 18 18" xmlns="http://www.w3.org/2000/svg">
 <g>
  <circle cx="9" cy="9" r="8" fill="#C41F38"/>
  <path d="m9 1.2c4.3 0 7.8 3.5 7.8 7.8s-3.5 7.8-7.8 7.8-7.8-3.5-7.8-7.8 3.5-7.8 7.8-7.8zm0-1.2c-5 0-9 4-9 9s4 9 9 9 9-4 9-9-4-9-9-9z" fill="#FFF" opacity=".6"/>
  <circle cx="9" cy="9" r="8" fill="#1E88E5"/>
  <g transform="translate(2 5)" fill="#FFF">
   <path d="m3 5.4c0.2 0 0.3-0.1 0.5-0.2 0.1-0.1 0.2-0.3 0.2-0.5h1.3c-0.1 0.5-0.3 0.9-0.7 1.3-0.4 0.3-0.9 0.5-1.5 0.5-0.7 0-1.2-0.2-1.5-0.7-0.3-0.4-0.4-1-0.3-1.7v-0.1c0.1-0.7 0.4-1.3 0.8-1.7s1-0.6 1.7-0.6c0.6 0 1 0.2 1.3 0.5s0.4 0.8 0.3 1.3h-1.3c0-0.2 0-0.4-0.1-0.5 0-0.2-0.2-0.2-0.4-0.2-0.3 0-0.5 0.1-0.6 0.3l-0.3 0.9v0.1c-0.1 0.4-0.1 0.7 0 0.9 0.1 0.3 0.3 0.4 0.6 0.4zm4.9-4.8-0.2 1.1h0.7l-0.2 1h-0.7l-0.3 2.2v0.4c0.1 0.1 0.1 0.1 0.3 0.1h0.2 0.2l-0.1 1.1c-0.1 0-0.3 0.1-0.4 0.1h-0.4c-0.5 0-0.8-0.1-1-0.4s-0.3-0.7-0.2-1.2l0.3-2.1h-0.7l0.1-1h0.6l0.2-1.2h1.6v-0.1zm3.2 5.8c0-0.1-0.1-0.2-0.1-0.3v-0.4c-0.2 0.2-0.3 0.4-0.6 0.6-0.2 0.1-0.5 0.2-0.8 0.2-0.5 0-0.8-0.1-1.1-0.4-0.2-0.3-0.3-0.6-0.3-1 0.2-0.5 0.5-0.9 0.8-1.1 0.4-0.2 0.9-0.4 1.6-0.4h0.6l0.1-0.3c0-0.2 0-0.4-0.1-0.5s-0.2-0.2-0.4-0.2-0.3 0-0.4 0.1-0.2 0.2-0.2 0.4h-1.4c0-0.4 0.3-0.8 0.7-1.1s0.9-0.4 1.5-0.4 1 0.1 1.3 0.4 0.4 0.7 0.4 1.2l-0.3 1.8c0 0.3-0.1 0.5 0 0.7 0 0.2 0 0.4 0.1 0.6l-1.4 0.1zm-0.9-0.9c0.2 0 0.3 0 0.5-0.1s0.3-0.2 0.3-0.3l0.1-0.6h-0.6c-0.2 0-0.4 0.1-0.5 0.2s-0.2 0.3-0.2 0.4 0 0.2 0.1 0.3c0.1 0 0.2 0.1 0.3 0.1z"/>
  </g>
 </g>
</svg>
