<svg width="24" height="24" viewBox="0 0 24 24">
  <g fill="none">
    <rect width="24" height="24" fill="#FFF" opacity=".6"/>
    <rect width="22" height="22" x="1" y="1" fill="#212121"/>
    <path fill="#FFF" d="M18.3,18.5 C18.1,18.7 17.9,18.9 17.7,19 L14.8,19 L14.6,18.5 L13,14 L16.7,17.2 L18.3,18.5 Z M11.4,14 L9.9,18.7 L9.7,19 L6.4,19 C6.3,18.9 6.1,18.8 6,18.6 L7.5,17.3 L11.4,14 Z M12,3 C17,3 21,7 21,12 C21,14.1 20.3,16 19.1,17.5 L18.7,17.2 L17.6,16.2 C18.5,15 19,13.6 19,12 C19,8.1 15.9,5 12,5 C8.1,5 5,8.1 5,12 C5,13.7 5.6,15.2 6.5,16.4 L5.4,17.3 L5,17.7 C3.8,16.1 3,14.2 3,12 C3,7 7,3 12,3 Z"/>
  </g>
</svg>
