<?xml version="1.0" encoding="UTF-8" standalone="no"?>
<svg width="23px" height="15px" viewBox="0 0 23 15" version="1.1" xmlns="http://www.w3.org/2000/svg" xmlns:xlink="http://www.w3.org/1999/xlink">
    <!-- Generator: Sketch 3.8.3 (29802) - http://www.bohemiancoding.com/sketch -->
    <title>subway-kiev-m</title>
    <desc>Created with Sketch.</desc>
    <defs></defs>
    <g id="POI-Clear" stroke="none" stroke-width="1" fill="none" fill-rule="evenodd">
        <g id="subway-kiev-m">
            <polygon id="Shape" fill-opacity="0.6" fill="#FFFFFF" points="8.67909918 1.44664471 8.67909918 1.44664471 12.3329453 6.94664471 10.6670547 6.94664471 14.3209008 1.44664471 15.2494071 0.0489983499 16.0368819 1.53069428 21.8830358 12.5306943 22.6639255 14 21 14 16.9076923 14 16.3067039 14 16.0246566 13.4693057 13.8323489 9.34430572 15.504083 9.4897803 12.2886984 13.6147803 11.5 14.6265973 10.7113016 13.6147803 7.49591698 9.4897803 9.16765115 9.34430572 6.97534344 13.4693057 6.69329613 14 6.09230769 14 2 14 0.336074494 14 1.11696424 12.5306943 6.96311809 1.53069428 7.75059285 0.0489983499"></polygon>
            <polygon id="Rectangle-403" fill="#00923F" points="7.84615385 2 11.5 7.5 15.1538462 2 21 13 16.9076923 13 14.7153846 8.875 11.5 13 8.28461539 8.875 6.09230769 13 2 13"></polygon>
        </g>
    </g>
</svg>