<svg viewBox="0 0 28 24" xmlns="http://www.w3.org/2000/svg">
 <g>
  <path d="m28 11.3c0-8.4-16.1-10.2-16.8-10.3l-1.7-0.1 0.6 1.5 0.7 1.8c-2.3 0.3-4.7 1.4-6.9 3.1-2.4 2-3.9 4.4-3.9 6.5 0 8.3 16.1 10.1 16.8 10.2h0.1 0.1 0.3 1.3l-0.4-1.3-0.9-2.9c1.7-0.2 10.7-1.6 10.7-8.5zm-16.3-6.1h0.4 0.2c-0.2-0.1-0.4 0-0.6 0z" fill="#FFF" opacity=".6"/>
  <ellipse cx="14.5" cy="12" rx="10.5" ry="7" fill="#FFF"/>
  <path d="m13 18.824v-3.224l2.5 1.7 1.7 5.7-0.39522-0.23525 0.09522 0.23525s-15.9-1.7-16-9.3c0-6.7 10.1-7.5 10.1-7.5-10.9 3.3-5.9 9.2-5.9 9.2 2.5789 2.5789 5.7986 3.2726 7.9 3.424zm-7.1-6.624c5.8-0.8 10-4.2 10.1-4.2h2.5c-4.2 4.2-8.4 5-8.4 5l-4.2-0.8zm5.8 2c3.4-0.8 6.8-4.2 6.8-4.2h2.5c-3.4 4.2-5.9 5-5.9 5l-3.4-0.8zm9.4-2.2h1.7c0 0.1-0.8 2.6-2.5 3h-2.5c0 0.5 1.7-0.4 3.3-3z" fill="#1A237E"/>
  <path d="m11.1 2 1.7 4.2s5.9-0.8 10.1 3.4c0 0 5 5.9-5.9 9.2 0 0 10.1-0.8 10.1-7.5-0.1-7.6-16-9.3-16-9.3z" fill="#8E24AA"/>
 </g>
</svg>
