<svg width="25" height="15" viewBox="0 0 25 15">
  <g fill="none">
    <polygon fill="#FFF" points="24 0 1 0 0 0 0 1 0 14 0 15 1 15 24 15 25 15 25 14 25 1 25 0" opacity=".6"/>
    <rect width="23" height="13" x="1" y="1" fill="#FFF"/>
    <path fill="#212121" d="M13.2666667,6 L11,6 L12,5 L17,5 L16,6 L14.5666667,6 L12.9,11 L11.6,11 L13.2666667,6 Z M8.9,8 L7.2,8 L6.2,11 L4.9,11 L6.9,5 L8.2,5 L7.53333333,7 L9.23333333,7 L9.9,5 L11.3,5 L9.3,11 L7.9,11 L8.9,8 Z M17.3,5 L18.5,5 L19.1,8.5 L21,5 L21.6,5 L22.9,5 L21.6,11 L20.2,11 L21.0702703,7.27027027 L21,7.4 L19,11 L18.2,11 L17.6857143,7.57142857 L16.6,11 L15.3,11 L17.3,5 Z"/>
    <path fill="#E0111C" d="M21,13 L10,13 L11,12 L22,12 L21,13 Z M18,4 L2,4 L3,2 L19,2 L18,4 Z"/>
  </g>
</svg>
