<svg viewBox="0 0 18 18" xmlns="http://www.w3.org/2000/svg">
 <g fill="none">
  <circle cx="9" cy="9" r="9" fill="#FFF" opacity=".6"/>
  <g transform="translate(1 1)">
   <circle cx="8" cy="8" r="7.5" fill="#FFF"/>
   <path d="m8 1c3.9 0 7 3.1 7 7s-3.1 7-7 7-7-3.1-7-7 3.1-7 7-7zm0-1c-4.4 0-8 3.6-8 8s3.6 8 8 8 8-3.6 8-8-3.6-8-8-8z" fill="#2E7D32"/>
  </g>
  <g transform="translate(3 4)">
   <polygon points="12 9 8.4 0.6 6 4.5 3.6 0.6 0 9 3 9 4.3 5.5 6 7.8 7.7 5.6 9 9" fill="#2E7D32"/>
   <polygon points="6.2 1.7 8.9 10 9.4 10 6.7 1.5" fill="#FFF"/>
   <polygon points="5.4 2.7 2.8 10 2.2 10 5 2.5" fill="#FFF"/>
  </g>
 </g>
</svg>
