<svg width="24" height="24" viewBox="0 0 24 24">
  <g fill="none">
    <rect width="24" height="24" fill="#FFF" opacity=".6" rx="12"/>
    <rect width="22" height="22" x="1" y="1" fill="#3C3E38" rx="11"/>
    <path fill="#FFF" d="M7.99230772,6 L6,7.50387445 L6.04221484,16.997417 C6.05751659,17.4987085 6.55559352,18 7.05367046,18 L17.0190552,18 C17.5171322,18 18.007744,17.6700426 17.9999074,16.997417 L17.9576925,7.50387445 L15.9653848,6 L7.99230772,6 Z M9.60451305,8.01071141 L14.5891285,8.01071141 L16.0075996,9.11218662 L16.0075996,12.9664965 L8.03452257,12.9664965 L8.03452257,9.11218662 L9.60451305,8.01071141 Z M10.0306764,15.601099 C10.0306764,16.0163829 9.69617793,16.3530362 9.28356104,16.3530362 C8.87094414,16.3530362 8.53644564,16.0163829 8.53644564,15.601099 C8.53644564,15.1858151 8.87094414,14.8491618 9.28356104,14.8491618 C9.69617793,14.8491618 10.0306764,15.1858151 10.0306764,15.601099 Z M16.5056766,15.601099 C16.5056766,16.0163829 16.1711781,16.3530362 15.7585612,16.3530362 C15.3459443,16.3530362 15.0114458,16.0163829 15.0114458,15.601099 C15.0114458,15.1858151 15.3459443,14.8491618 15.7585612,14.8491618 C16.1711781,14.8491618 16.5056766,15.1858151 16.5056766,15.601099 Z M11.0019231,8.01071141 L12.9980769,8.01071141 L12.9980769,13.0236262 L11.0019231,13.0236262 L11.0019231,8.01071141 Z"/>
  </g>
</svg>
