<svg viewBox="0 0 30 18" xmlns="http://www.w3.org/2000/svg">
 <g>
  <polygon points="20.7 0.6 15.3 6.3 9.9 0.6 0.9 16.8 10.2 16.8 17.4 17.8 17.5 17.8 17.5 17.8 17.6 17.8 17.7 17.8 22.2 17.8 23.2 17.8 24.2 17.8 24.2 16.8 26.4 16.8 28.1 16.8 29.7 16.8" fill="#FFF" opacity=".6"/>
  <path d="m27.3 14.3-6-10.5-0.7-1.3-1 1.2-4.3 4.3-4.3-4.4-1-1.2-0.6 1.4-6 10.5-0.8 1.5h1.7 4.9 0.6v-0.1l7.8 1.1h0.1 0.1 4.5 1v-1h3.2 1.7l-0.9-1.5zm-23.3 0.2 6-10.5-6 10.5z" fill="#FFD54F"/>
  <polygon points="20.2 4.2 15.1 9.4 10.1 4.2 4 14.8 8.9 14.8 10.9 9.9 15.1 12.8 19.3 9.9 21.4 14.8 26.2 14.8" fill="#D50000"/>
  <path d="m22.2 13.3v2.4h-4.5l-8.2-1.1 0.7-1.4 7.8-2.5h1.7c1.3 0.1 2.5 1.2 2.5 2.6z" fill="#0E61BF"/>
  <polygon points="18.2 10.8 18.2 13.3 10.1 13.7 10.3 13.2 18.1 10.8" fill="#FFF"/>
 </g>
</svg>
