<svg viewBox="0 0 25 19" xmlns="http://www.w3.org/2000/svg">
 <g fill="none">
  <path d="m23.7 2.6c-0.6-1.1-1.5-2-2.7-2.3-0.5-0.2-1-0.2-1.4-0.2h-8.6-2.3c-2 0-3.8 1.3-4.4 3.2l-0.6 1.4-2.7 8.2c-0.4 1.2-0.3 2.4 0.3 3.6 0.6 1.1 1.5 2 2.7 2.3 0.5 0.2 1 0.2 1.4 0.2h9.8c2.7 0 5.1-1.7 5.9-4.3l2.9-8.6c0.4-1.2 0.3-2.4-0.3-3.5z" fill="#FFF" opacity=".6"/>
  <g transform="translate(1 1)">
   <path d="m14.2 17h-9.8c-2.5 0-4.3-2.4-3.5-4.8l3.2-9.7c0.6-1.5 2-2.5 3.6-2.5h10.9c2.5 0 4.3 2.4 3.5 4.8l-2.9 8.6c-0.7 2.2-2.7 3.6-5 3.6z" fill="#FFF"/>
   <path d="m18.6 0h-8.6l-1 1.6h9.6c0.7 0 1.3 0.3 1.7 0.9 0.4 0.5 0.5 1.2 0.3 1.9l-2.9 8.6c-0.5 1.5-1.9 2.5-3.5 2.5h-9.8c-0.7 0-1.3-0.3-1.7-0.9-0.4-0.5-0.5-1.2-0.3-1.9l3-8.7h-1.7l-2.7 8.2c-0.8 2.4 1 4.8 3.5 4.8h9.8c2.3 0 4.3-1.4 5-3.6l2.7-8.6c0.8-2.4-0.9-4.8-3.4-4.8z" fill="#FF6F00"/>
  </g>
  <path d="m14.105 8-1.2051 5.6c-0.1 0.2-0.3 0.4-0.5 0.4h-1.4c-0.3 0-0.6-0.3-0.5-0.7l1.1405-5.3h-2.7405c-0.5 0-0.9-0.5-0.8-1l0.4-1.5c0.2-0.3 0.5-0.5 0.8-0.5h8.5c0.5 0 0.9 0.5 0.7 1l-0.4 1.5c-0.1 0.3-0.4 0.5-0.7 0.5h-3.2949z" fill="#616161"/>
 </g>
</svg>
