<svg viewBox="0 0 18 18" xmlns="http://www.w3.org/2000/svg">
 <g>
  <g fill="#FFF">
   <circle cx="9" cy="9" r="9" opacity=".6"/>
   <circle cx="9" cy="9" r="8"/>
  </g>
  <path transform="translate(1 4)" d="m3.8325 3.1558 1.3675-3.1558h1l1.8063 4.278-3.7063-1.278-0.46753 0.15584zm4.3406 1.1797 1.9269-4.3355h0.9l2.1959 5.0676 2.7041 0.93243h-2.3l1.3 3h-2.9l-1.9-4.5-0.1032 0.46441-1.8237-0.62886zm1.8158 0.66445-0.88889 4h-1.9l-0.96266-4.332 0.96266 0.33195h2.7889zm-3.8461-0.36455-1.8428 4.3645h-3l1.768-4.08-2.668-0.92h3 0.066667 0.83333l1.8428 0.63545z" fill="#0D47A1"/>
 </g>
</svg>
