<svg width="18" height="18" viewBox="0 0 18 18">
  <g fill="none">
    <rect width="18" height="18" fill="#FFF" opacity=".6"/>
    <g transform="translate(1 1)">
      <rect width="15" height="15" x=".5" y=".5" fill="#FFF"/>
      <path fill="#757575" d="M15,1 L15,15 L1,15 L1,1 L15,1 Z M16,0 L0,0 L0,16 L16,16 L16,0 Z"/>
    </g>
    <path fill="#D50000" d="M7,15 L7,7.5 C7,5 9,3 11.5,3 L13,3 C14.1,3 15,3.9 15,5 L11.5,5 C10.1,5 9,6.1 9,7.5 L9,13 C9,14.1 8.1,15 7,15 Z M10,15 L10,7.6 C10,6.7 10.7,6 11.6,6 L13,6 C14.1,6 15,6.9 15,8 L12,8 L12,13 C12,14.1 11.1,15 10,15 Z"/>
    <path fill="#757575" d="M6,8 L3,8 C3,6.9 3.9,6 5,6 L6,6 L6,8 Z M7.7,3 C7,3.5 6.5,4.2 6.3,5 L3,5 C3,3.9 3.9,3 5,3 L7.7,3 Z"/>
  </g>
</svg>
