<svg width="24" height="24" viewBox="0 0 24 24">
  <g fill="none">
    <polygon fill="#FFF" points="24 0 0 0 0 24 24 24" opacity=".6"/>
    <rect width="22" height="22" x="1" y="1" fill="#FFA000"/>
    <path fill="#212121" d="M8.98959371,15.9895937 C7.89666213,15.8805591 7.1059368,14.9287584 7.2,13.8 L7.9,7.9 C8,7.4 8.4,7 8.9,7 L9,7 L9,6 L15,6 L15,7 L15.1,7 C15.6,7 16,7.4 16,7.9 L16.7,13.8 C16.7873526,14.8482307 16.1116581,15.7438521 15.1394954,15.9536311 C15.4197576,15.8779512 15.6854516,15.7145484 15.9,15.5 C16.2,15.1 16.3,14.7 16.3,14.3 L15.6,8.4 C15.6,8.2 15.4,8 15.1,8 L15,8 L8.9,8 C8.6,8 8.4,8.2 8.4,8.4 L7.7,14.3 C7.7,14.8 7.8,15.2 8.1,15.5 C8.34494897,15.744949 8.65656462,15.9232313 8.98041382,15.9804138 L8,15 L16,15 L15,16 L16,16 L18.1995984,18.5379981 C19.918298,16.8950129 21,14.548916 21,12 C21,7 17,3 12,3 C7,3 3,7 3,12 C3,14.5316853 4.14454113,16.8181117 5.84227278,18.4896852 L8,16 L9,16 L8.98959371,15.9895937 Z M9.2,16 L6.2,22 L2.8,22 L5.15160049,19.2866148 C3.23035118,17.4800119 2,14.8937999 2,12 C2,6.5 6.5,2 12,2 C17.5,2 22,6.5 22,12 C22,14.8625207 20.8029182,17.485625 18.8718184,19.3136366 L21.2,22 L17.8,22 L17.1164559,20.6329119 C17.0778076,20.6555431 17.0389883,20.6779066 17,20.7 L17,20.4 L14.8,16 L9.2,16 Z M9,9 L10,9 L12,12 L14,9 L15,9 L15,14 L14,14 L14,11.1 L12,14 L10,11.1 L10,14 L9,14 L9,9 Z"/>
  </g>
</svg>
