<svg viewBox="0 0 25 15" xmlns="http://www.w3.org/2000/svg">
 <g>
  <path d="m23.1 3h-4.2l1-1.4 1.1-1.6h-1.9-5.3c-1.5 0-2.8 0.7-3.7 1.9l-2.9 4.1c-0.5 0.6-1.2 1-2 1h-1.3-0.5l-0.3 0.4-2 3-1.1 1.6h1.9 4.2l-1 1.4-1.1 1.6h1.9 5.3c1.5 0 2.8-0.7 3.7-1.9l3-4.1c0.5-0.6 1.2-1 2-1h1.2 0.5l0.3-0.4 2-3 1.1-1.6h-1.9z" fill="#FFF" opacity=".6"/>
  <path d="m1.9 11 2-3h1.2c1.2 0 2.2-0.5 2.9-1.5l2.8-4c0.7-1 1.8-1.5 2.9-1.5h5.3l-2 3h-1.2c-1.1 0-2.2 0.5-2.7 1.4l-3 4.1c-0.7 1-1.8 1.5-2.9 1.5h-5.3zm4 3 2.1-2.9h1c1.2 0 2.2-0.6 2.9-1.5l3-4.1c0.7-1 1.8-1.5 2.9-1.5h5.3l-2 3h-1.2c-1.2 0-2.2 0.5-2.8 1.4l-3 4.1c-0.7 1-1.8 1.5-2.9 1.5h-5.3z" fill="#0D47A1"/>
 </g>
</svg>
