<svg viewBox="0 0 18 18" xmlns="http://www.w3.org/2000/svg">
 <g fill="none">
  <polygon points="18 0 0 0 0 18 18 18" fill="#FFF" opacity=".6"/>
  <rect x="1" y="1" width="16" height="16" fill="#F8F9FA"/>
  <g transform="translate(3 2)">
   <polygon points="10.3 0 6.1 6 2.2 0 0 0 0 9 2 9 2 4.2 5.2 9 7.1 9 10 4.2 10 9 12 9 12 0" fill="#F50000"/>
   <path d="m5.5 10h1.9l2.6 0.56522v-0.56522h2v1h-2-0.8l-2.9397-0.79452-2.8603 0.79452h-1.4-2v-1h2v0.69565l3.2-0.69565h0.3zm6.5 3h-2v-1h2v1zm-12-1h2v1h-2v-1zm4 0h4v1h-4v-1z" fill="#1A237E"/>
  </g>
 </g>
</svg>
