<svg width="33" height="33" viewBox="0 0 33 33">
  <g fill="none">
    <rect width="33" height="33" fill="#FFF" opacity=".6"/>
    <rect width="31" height="31" x="1" y="1" fill="#FFEA00"/>
    <path fill="#212121" d="M21.6487805,26 L20.9536585,25 L11.5463415,25 L10.8512195,26 L21.6487805,26 Z M22.3439024,27 L10.1560976,27 L9.6,27.8 C9.5,27.9 9.3,28 9.2,28 L7.5,28 C7.3,28 7.2,27.8 7.3,27.6 L10.6322327,22.7867749 C9.12420056,22.2649913 8,20.8386346 8,19.1 L8,15.3 C8,12.9 8.3,10.5 9.1,8.2 C9.5,7.2 9.9,6.1 10.5,5.3 C11.1,4.5 12.1,4 13.1,4 L16,4 L17,4 L19.9,4 C21,4 22,4.5 22.5,5.3 C23.1,6.1 23.5,7.1 23.9,8.2 C24.7,10.5 25,12.9 25,15.3 L25,19.1 C25,20.9197342 23.723484,22.5142009 21.9512654,22.9073834 L25.2,27.6 C25.3,27.8 25.2,28 25,28 L23.3,28 C23.1,28 23,27.9 22.9,27.8 L22.3439024,27 Z M20.2585366,24 L19.5634146,23 L17,23 L16,23 L12.9365854,23 L12.2414634,24 L20.2585366,24 Z M20,5 L13,5 C10.7,5 10.2,10.7 10,13.5 C10,14.3 10.6,15 11.4,15 L21.5,15 C22.3,15 23,14.3 22.9,13.5 C22.9,10.7 22.3,5 20,5 Z M20.5,21 C21.3284271,21 22,20.3284271 22,19.5 C22,18.6715729 21.3284271,18 20.5,18 C19.6715729,18 19,18.6715729 19,19.5 C19,20.3284271 19.6715729,21 20.5,21 Z M12.5,21 C13.3284271,21 14,20.3284271 14,19.5 C14,18.6715729 13.3284271,18 12.5,18 C11.6715729,18 11,18.6715729 11,19.5 C11,20.3284271 11.6715729,21 12.5,21 Z"/>
    <polygon fill="#616161" points="18.8 6 18.4 6.5 16.5 9.3 14.6 6.5 14.3 6 12 6 12 14 14.6 14 14.6 9.7 16.5 12.5 18.4 9.7 18.4 14 21 14 21 6"/>
  </g>
</svg>
