<svg width="32" height="26" viewBox="0 0 32 26">
  <g fill="none">
    <path fill="#FFF" d="M31.8,14.1 L31.7,13.9 C31.3,13.3 30.7,13 30,13 C29.9,13 29.7,13 29.5,13.1 C29,6.2 23.1,0.7 16,0.7 C8.9,0.7 3,6.2 2.5,13 L2.4,13 L2.3,13 L2,13 C1.3,13 0.7,13.3 0.3,13.9 L0.3,14 L0.3,14.1 C-0.3,15 0.1,16.1 1,16.7 L14.7,25.3 L15,25.5 C15.3,25.7 15.6,25.8 15.9,25.8 C16.3,25.8 16.7,25.6 17,25.4 L17.2,25.3 L31,16.6 C31.9,16 32.2,15 31.8,14.1 Z" opacity=".6"/>
    <path fill="#80D8FF" d="M3.51174234,14.4333969 C3.50391411,14.2561142 3.5,14.0780571 3.5,13.9 C3.5,7.2 9.1,1.7 16,1.7 C22.9,1.7 28.5,7.2 28.5,14 C28.5,14.1711586 28.4954226,14.3468945 28.4862678,14.5252492 L29.7,14.1 C29.8,14 29.9,14 30,14 C30.4,14 30.7,14.2 30.9,14.5 C31.1,15 30.9,15.5 30.5,15.8 L16.8,24.4 L16.5,24.6 C16.4,24.7 16.2,24.8 16,24.8 C15.9,24.8 15.7,24.7 15.5,24.6 L15.2,24.4 L1.5,15.8 C1,15.5 0.9,14.9 1.1,14.5 C1.3,14.2 1.6,14 2,14 L2.3,14 L3.51174234,14.4333969 Z M27.388907,14.909726 C27.4,14.6101817 27.4,14.3050908 27.4,14 C27.4,7.8 22.2,2.7 15.9,2.7 C9.6,2.7 4.5,7.8 4.5,14 C4.5,14.2662487 4.51107631,14.5324974 4.53322892,14.7987461 L7.45898903,15.8451859 C7.16123635,14.9509294 7,13.9942941 7,13 C7,8.02943725 11.0294373,4 16,4 C20.9705627,4 25,8.02943725 25,13 C25,14.0205481 24.8301364,15.0014225 24.5171397,15.9158927 L27.388907,14.909726 Z"/>
    <path fill="#F50000" d="M16,14 L14,11.1 L12,15 L8,15 L14,6.2 L16,10.1 L18,6.2 L24,15 L20,15 L18,11.1 L16,14 Z"/>
    <polygon fill="#1A237E" points="27.9 15.7 16 19.9 4.1 15.7 2 15 4.3 16.4 16 23.8 27.8 16.4 30 15"/>
    <path fill="#FFEA00" d="M16,17.9 L10,15.9 L16,16.9 L22,15.9 L16,17.9 Z"/>
  </g>
</svg>
