<svg width="29" height="23" viewBox="0 0 29 23">
  <g fill="none">
    <path fill="#FFF" d="M28,6 L24,6 C22,2.6 18.4,0.5 14.5,0.5 C10.6,0.5 6.9,2.6 5,6 L1,6 L0,6 L0,7 L0,9 L0,10 L1,10 L3.6,10 C3.5,10.5 3.5,11 3.5,11.5 C3.5,12 3.5,12.5 3.6,13 L1,13 L0,13 L0,14 L0,16 L0,17 L1,17 L5,17 C7,20.4 10.6,22.5 14.5,22.5 C18.4,22.5 22.1,20.4 24,17 L26,17 L28,17 L29,17 L29,16 L29,14 L29,9 L29,8 L29,7 L29,6 L28,6 Z" opacity=".6"/>
    <circle cx="14.5" cy="11.5" r="9.5" fill="#FFF"/>
    <path fill="#C41F38" d="M28,9 L28,14 L28,16 L23.4234574,16 C21.7694695,19.255775 18.3840931,21.5 14.5,21.5 C10.6159069,21.5 7.23053051,19.255775 5.57654654,16.0000008 L1,16 L1,14 L4.81843473,14 C4.61064284,13.2002498 4.5,12.3624186 4.5,11.5 C4.5,10.6375814 4.61064284,9.79975017 4.81843473,9 L1,9 L1,7 L5.57654257,7 C7.23053051,3.74422498 10.6159069,1.5 14.5,1.5 C18.3840931,1.5 21.7694695,3.74422498 23.4234535,6.99999915 L28,7 L28,9 Z M26,9 L24.1815653,9 C24.3893572,9.79975017 24.5,10.6375814 24.5,11.5 C24.5,12.3624186 24.3893572,13.2002498 24.1815653,14 L26,14 L26,9 Z M23.1534521,14 C23.3792383,13.2073485 23.5,12.3687694 23.5,11.5 C23.5,10.6312306 23.3792383,9.79265152 23.1534521,9 L5.84654787,9 C5.62076166,9.79265152 5.5,10.6312306 5.5,11.5 C5.5,12.3687694 5.62076166,13.2073485 5.84654787,14 L23.1534521,14 Z M22.3099184,16 L6.69008163,16 C8.23776789,18.6975023 11.1435717,20.5 14.5,20.5 C17.8564283,20.5 20.7622321,18.6975023 22.3099184,16 Z M22.3099184,7 C20.7622321,4.30249771 17.8564283,2.5 14.5,2.5 C11.1435717,2.5 8.23776789,4.30249771 6.69008163,7 L22.3099184,7 Z"/>
  </g>
</svg>
