<svg viewBox="0 0 19 19" xmlns="http://www.w3.org/2000/svg">
 <g>
  <rect width="19" height="19" rx="1" fill="#FFF" opacity=".6"/>
  <rect x="1" y="1" width="17" height="17" rx="1" fill="#33597F"/>
  <path d="m12.967 15.212c0.39639-0.26479 0.95546-0.81307 1.1985-1.1754 0.3552-0.5295 0.61315-1.1657 0.75115-1.8526 0.053454-0.26606 0.059984-0.73352 0.070921-5.0765l0.012046-4.1077h-3v3.704c0 2.8792 0.024228 4.5907 0 4.808-0.043403 0.38924-0.48575 0.75677-0.61574 0.99765-0.16311 0.30227-0.46405 0.58989-0.77803 0.7436-0.86383 0.4229-2.1278 0.27064-2.727-0.3285-0.30513-0.30513-0.63475-0.79648-0.87925-1.4127v-4.7145-3.7974h-3v3.8541c0 4.5447 0.0087121 4.9284 0.12495 5.5025 0.28709 1.418 1.1717 2.5466 2.526 3.2226 0.99266 0.49552 2.2777 0.71835 3.471 0.60188 1.0632-0.10378 2.0565-0.44204 2.8453-0.96895z" fill="#FFF"/>
 </g>
</svg>
