<svg viewBox="0 0 18 18" xmlns="http://www.w3.org/2000/svg">
 <g>
  <rect width="18" height="18" fill="#FFF" opacity=".6"/>
  <rect x="1" y="1" width="16" height="16" fill="#FFF"/>
  <path d="m8.3898 10.934c-0.04513 0.63591-0.14549 1.3455-0.32317 2.1323 0 0-1.0667 3.2667-2.6667 2.3333 0 0 1.1333-0.13333 1.8-2 0.66667-1.7333 0.8-3.3333 0.46667-5-1.4 0.13333-2.4-0.33333-2.4-0.33333 0.66667 0.13333 1.4667 0.13333 2.3333 0 0.13333 0 0.33333-0.066667 0.53333-0.066667 0.33333-0.066667 0.66667-0.2 0.93333-0.33333 0 0.13333 0 0.33333 0.066667 0.46667-0.33333 0.066667-0.6 0.2-0.86667 0.2-0.0084694 0.0028232-0.016939 0.0055268-0.025408 0.0081158 0.0073198 0.019517 0.01565 0.039034 0.025408 0.058551 0.098768 0.52676 0.16502 1.1673 0.15058 1.9298 2.5191-0.92259 3.9828-0.12976 3.9828-0.12976-0.64282-0.066499-1.2046-0.059296-1.7147 0.0044544 0.19063 0.57629 0.44458 1.1526 0.84799 1.7289-0.061877-0.061877-0.81294-0.46835-1.347-1.6459-0.65149 0.13598-1.2256 0.36604-1.7965 0.64689zm2.0123-4.0808c0.6366-0.45295 1.278-1.0591 1.7979-1.7869 1.2-1.6 0.66667-2.6 0.66667-2.6 1.6667 0.86667-0.46667 3.5333-0.46667 3.5333-0.69219 0.74544-1.3844 1.2357-2.0426 1.6067-0.0078178 0.46887 0.022476 0.96089 0.10927 1.46-0.2 0-0.4 0.066667-0.53333 0.066667-0.2-0.93333-0.26667-2.0667 0-3.6-0.066667 0.066667 0.8-3.2667 2.4667-2.4667 0 0-1.1333 0.2-1.6667 2.0667-0.13192 0.46171-0.26384 1.0539-0.33119 1.7202zm-3.4688 3.9465c-0.86667 0.26667-3.6 2.8667-2.0667 4 0 0-0.4-1.0667 1.0667-2.4667 0.26667-0.26667 0.6-0.46667 0.93333-0.73333 0-0.26667 0.066667-0.53333 0.066667-0.8zm0.46667-3.2667c-0.2-0.66667-0.53333-1.2667-0.86667-1.9333 0.066667 0.066667 0.86667 0.53333 1.4 1.8l-0.53333 0.13333zm-1.7333-1.9333c-1.6667 0.4-0.8 2.1333-0.8 2.1333s-0.86667-0.4-0.86667-1.2667c0-1.2667 1.6667-0.86667 1.6667-0.86667zm7.1333 4.2c0.86667 0.4 1.6667 1.6667 0.8 2.5333-1.0667 1.0667-2.0667 0-2.0667 0s0.8 0.33333 1.2667 0c1.2667-0.86667 0-2.5333 0-2.5333z" fill="#6A1B9A"/>
  <path d="m11.667 4.6667c-0.18409 0-0.33333-0.14924-0.33333-0.33333 0-0.18409 0.14924-0.33333 0.33333-0.33333s0.33333 0.14924 0.33333 0.33333c0 0.18409-0.14924 0.33333-0.33333 0.33333zm-2.6667 4.6667c-0.18409 0-0.33333-0.14924-0.33333-0.33333s0.14924-0.33333 0.33333-0.33333 0.33333 0.14924 0.33333 0.33333-0.14924 0.33333-0.33333 0.33333zm3.3333 2c-0.18409 0-0.33333-0.14924-0.33333-0.33333s0.14924-0.33333 0.33333-0.33333 0.33333 0.14924 0.33333 0.33333-0.14924 0.33333-0.33333 0.33333zm-6.6667 2.6667c-0.18409 0-0.33333-0.14924-0.33333-0.33333s0.14924-0.33333 0.33333-0.33333c0.18409 0 0.33333 0.14924 0.33333 0.33333s-0.14924 0.33333-0.33333 0.33333zm0-6.6667c-0.18409 0-0.33333-0.14924-0.33333-0.33333s0.14924-0.33333 0.33333-0.33333c0.18409 0 0.33333 0.14924 0.33333 0.33333s-0.14924 0.33333-0.33333 0.33333z" fill="#8BC34A"/>
 </g>
</svg>
