<svg width="26" height="30" viewBox="0 0 26 30">
  <g fill="none">
    <path fill="#FFF" d="M21.8,0 L4.2,0 C1.9,0 0,1.9 0,4.2 L0,21.8 C0,24.1 1.9,26 4.2,26 L8.1,26 C8.6,28.3 10.6,30 13,30 C15.4,30 17.4,28.3 17.9,26 L21.8,26 C24.1,26 26,24.1 26,21.8 L26,4.2 C26,1.9 24.1,0 21.8,0 Z" opacity=".6"/>
    <path fill="#1E88E5" d="M21.8,25 L4.2,25 C2.4,25 1,23.6 1,21.8 L1,4.2 C1,2.4 2.4,1 4.2,1 L21.8,1 C23.6,1 25,2.4 25,4.2 L25,21.8 C25,23.6 23.6,25 21.8,25 Z"/>
    <path fill="#FFF" d="M11,9.5 C11,8.7 10.3,8 9.5,8 C8.7,8 8,8.7 8,9.5 L8,18 L4,18 L4,9.5 C4,6.5 6.5,4 9.5,4 C10.8203535,4 12.0438551,4.48425926 13,5.28227287 C13.9561449,4.48425926 15.1796465,4 16.5,4 C19.5,4 22,6.5 22,9.5 L22,18 L18,18 L18,9.5 C18,8.7 17.3,8 16.5,8 C15.7,8 15,8.7 15,9.5 L15,18 L11,18 L11,9.5 Z"/>
    <circle cx="13" cy="25" r="4" fill="#FF8F00"/>
  </g>
</svg>
