<svg viewBox="0 0 24 17" xmlns="http://www.w3.org/2000/svg">
 <g>
  <path d="m22.8 7.5-1.6-1.6c-0.3-0.3-0.6-0.4-1-0.4h-0.3v-0.1-2c0-0.7-0.6-1.4-1.4-1.4-0.3 0-0.7 0.1-0.9 0.3l-1.3-1.4c-0.2-0.3-0.6-0.4-1-0.4h-0.1-0.1c-0.1 0-0.5 0.1-0.8 0.4l-2.5 2.5-2.3-2.4c-0.3-0.3-0.6-0.4-1-0.4s-0.7 0.2-1 0.5l-1.2 1.3c-0.2-0.1-0.5-0.3-0.8-0.3-0.7 0-1.4 0.6-1.4 1.4v2 0.1c-0.1 0-0.3-0.1-0.5-0.1-0.4 0-0.7 0.1-1 0.4l-1.6 1.6c-0.5 0.6-0.5 1.4 0 2l6.5 6.5c0.3 0.3 0.6 0.4 1 0.4s0.8-0.2 1-0.4l2.1-2.4c0.2 0.2 0.5 0.3 0.9 0.3 0.6 0 1.2-0.4 1.3-1v1.7c0 0.3 0.1 0.5 0.2 0.7 0 0.3 0.2 0.5 0.4 0.7 0.3 0.3 0.6 0.4 1 0.4s0.7-0.1 1-0.4l6.5-6.5c0.4-0.6 0.4-1.4-0.1-2z" fill="#FFF" opacity=".6"/>
  <path d="m22.1 8.3-1.6-1.6c-0.1-0.1-0.4-0.1-0.5 0s-0.1 0.4 0 0.5l1.4 1.4-5.1 5.1v-0.1-3.2c0-1.1-0.5-2.3-1.3-3l-1.7-1.6c-0.2-0.2-0.4-0.3-0.7-0.4l2.8-2.8 2.4 2.6h-1.2c-0.2 0-0.4 0.2-0.4 0.4s0.2 0.4 0.4 0.4h2c0.1 0 0.2 0 0.2-0.1 0.1-0.1 0.1-0.1 0.1-0.2v-2c0-0.2-0.2-0.4-0.4-0.4s-0.4 0.2-0.4 0.4v1.1l-2.6-2.8c-0.1-0.1-0.2-0.1-0.3-0.1s-0.2 0-0.3 0.1l-3.2 3.2-2.9-3.4c-0.1-0.1-0.2-0.2-0.3-0.2s-0.2 0-0.3 0.1l-2.3 2.8v-1c0-0.2-0.2-0.4-0.4-0.4s-0.4 0.2-0.4 0.4v2c0 0.1 0 0.2 0.1 0.2s0.1 0.1 0.2 0.1h2c0.2 0 0.4-0.2 0.4-0.4s-0.1-0.3-0.3-0.3h-1.2l2.3-2.6 2.8 2.8c-0.2 0.1-0.3 0.2-0.5 0.3l-1.8 1.7c-0.8 0.8-1.3 1.9-1.3 3v3.5l-5.3-5.3 1.4-1.4c0.1-0.1 0.1-0.3 0-0.5-0.1-0.1-0.4-0.1-0.5 0l-1.6 1.7c-0.1 0.1-0.1 0.4 0 0.5l6.5 6.5c0.1 0.1 0.2 0.1 0.3 0.1s0.2 0 0.3-0.1l3.4-3.8v1.1c0 0.2 0.2 0.4 0.4 0.4s0.4-0.2 0.4-0.4v-2c0-0.1 0-0.2-0.1-0.2s-0.1-0.1-0.2-0.1h-2c-0.2 0-0.4 0.2-0.4 0.4s0.2 0.4 0.4 0.4h1.2l-2.5 2.8v-3.4c0-0.8 0.3-1.5 0.9-2.1l1.8-1.7c0.1-0.1 0.2-0.2 0.4 0.1l1.7 1.6c0.6 0.5 0.9 1.3 0.9 2.1v4.2c0 0.2 0.2 0.7 0.3 0.8s0.2 0.1 0.3 0.1 0.2 0 0.3-0.1l6.5-6.5c-0.4-0.4-0.4-0.6-0.5-0.7z" fill="#C41F38"/>
 </g>
</svg>
