<svg viewBox="0 0 18 18" xmlns="http://www.w3.org/2000/svg">
 <g>
  <path d="m9 18c-5 0-9-4-9-9s4-9 9-9 9 4 9 9-4 9-9 9z" fill="#FFF" opacity=".6"/>
  <circle cx="9" cy="9" r="8" fill="#FFF"/>
  <path d="m13.8 13c0 0.4-0.3 0.8-0.8 0.8s-0.8-0.3-0.8-0.8v-5.1l-2.6 4.8c-0.3 0.5-1.1 0.5-1.3 0l-2.5-4.8v5.1c0 0.4-0.3 0.8-0.8 0.8s-0.7-0.4-0.7-0.8h-0.3v-8h0.3c0-0.3 0.2-0.6 0.6-0.7 0.3-0.1 0.7 0.1 0.8 0.4l1.3 2.3 2 3.8 2-3.8 1.3-2.4c0.2-0.3 0.5-0.5 0.8-0.4 0.4 0.2 0.7 0.5 0.7 0.8h0.2v8h-0.2zm-3.3-9-1.5 2.8-1.5-2.8h3z" fill="#880E4F"/>
 </g>
</svg>
