<svg viewBox="0 0 18 18" xmlns="http://www.w3.org/2000/svg">
 <g>
  <path d="m9 0c-5 0-9 4-9 9s4 9 9 9 9-4 9-9-4-9-9-9z" fill="#FFF" opacity=".6"/>
  <circle cx="9" cy="9" r="7.5" fill="#FFF"/>
  <path d="m9 2c3.9 0 7 3.1 7 7s-3.1 7-7 7-7-3.1-7-7 3.1-7 7-7zm0-1c-4.4 0-8 3.6-8 8s3.6 8 8 8 8-3.6 8-8-3.6-8-8-8z" fill="#212121"/>
  <path d="m9.9 10.9-0.7 0.6-0.8-0.6-1.4-1.1v-1.3l2.2 1.7 3.8-3.2v1 0.4 4.6h-1v-3.8l-2.1 1.7zm-3.9-4.6818v6.7818h-1v-8h1.1l0.2 0.2 2.6 2.1 0.2 0.1 2.8-2.4h1.1v0.4l-3.2 2.7-0.8 0.6-0.7-0.6-2.3-1.8818z" fill="#212121"/>
 </g>
</svg>
