<svg width="23" height="17" viewBox="0 0 23 17">
  <g fill="none">
    <path fill="#FFF" d="M3.75173932,5 L0,5 L0,12 L3.75173932,12 C5.08572869,14.9485251 8.05329052,17 11.5,17 C14.9467095,17 17.9142713,14.9485251 19.2482607,12 L23,12 L23,5 L19.2482607,5 C17.9142713,2.05147494 14.9467095,0 11.5,0 C8.05329052,0 5.08572869,2.05147494 3.75173932,5 Z" opacity=".6"/>
    <path fill="#E12524" d="M11.5,16 C7.35786438,16 4,12.6421356 4,8.5 C4,4.35786438 7.35786438,1 11.5,1 C15.6421356,1 19,4.35786438 19,8.5 C19,12.6421356 15.6421356,16 11.5,16 Z M11.5,13 C13.9852814,13 16,10.9852814 16,8.5 C16,6.01471863 13.9852814,4 11.5,4 C9.01471863,4 7,6.01471863 7,8.5 C7,10.9852814 9.01471863,13 11.5,13 Z"/>
    <rect width="21" height="5" x="1" y="6" fill="#043A86"/>
  </g>
</svg>
