<svg viewBox="0 0 24 24" xmlns="http://www.w3.org/2000/svg">
 <g>
  <path d="m12 0c-6.6 0-12 5.4-12 12s5.4 12 12 12 12-5.4 12-12-5.4-12-12-12z" fill="#FFF" opacity=".6"/>
  <path d="m12 1c-6.1 0-11 4.9-11 11s4.9 11 11 11 11-4.9 11-11-4.9-11-11-11z" fill="#E0111C"/>
  <path d="m12.603 11h-0.603v-2h8v2h-3v6h-2v-5.5495-0.45053h-2.397zm1.7491 1.8704c-0.92409 1.4097-2.5181 2.3296-4.3521 2.3296-2.9 0-5.2-2.3-5.2-5.2s2.3-5.2 5.2-5.2c1.91 0 3.5597 0.99765 4.4635 2.5073l-2.7082 0.54164c-0.48655-0.40234-1.1019-0.64895-1.7553-0.64895-1.5 0-2.8 1.3-2.8 2.8s1.3 2.8 2.8 2.8c0.56276 0 1.0974-0.18298 1.5457-0.49085l2.8063 0.56127z" fill="#FFF"/>
 </g>
</svg>
