<svg width="18" height="18" viewBox="0 0 18 18">
  <g fill="none">
    <rect width="18" height="18" fill="#FFF" opacity=".6"/>
    <rect width="16" height="16" x="1" y="1" fill="#FFF"/>
    <path fill="#6A1B9A" d="M8.38983754,10.9343636 C8.34470793,11.5702725 8.24434312,12.2798138 8.06666667,13.0666667 C8.06666667,13.0666667 7,16.3333333 5.4,15.4 C5.4,15.4 6.53333333,15.2666667 7.2,13.4 C7.86666667,11.6666667 8,10.0666667 7.66666667,8.4 C6.26666667,8.53333333 5.26666667,8.06666667 5.26666667,8.06666667 C5.93333333,8.2 6.73333333,8.2 7.6,8.06666667 C7.73333333,8.06666667 7.93333333,8 8.13333333,8 C8.46666667,7.93333333 8.8,7.8 9.06666667,7.66666667 C9.06666667,7.8 9.06666667,8 9.13333333,8.13333333 C8.8,8.2 8.53333333,8.33333333 8.26666667,8.33333333 C8.25819722,8.33615648 8.24972778,8.33886008 8.24125833,8.34144918 C8.24857814,8.36096612 8.2569082,8.38048306 8.26666667,8.4 C8.36543509,8.92676492 8.43168617,9.56734051 8.41724463,10.329756 C10.936308,9.40716683 12.4,10.2 12.4,10.2 C11.7571784,10.1335012 11.1954285,10.1407039 10.6853438,10.2044544 C10.8759743,10.7807473 11.1299282,11.3570403 11.5333333,11.9333333 C11.4714559,11.8714559 10.7203914,11.4649849 10.1863488,10.2874691 C9.53485838,10.4234526 8.96074338,10.6535053 8.38983754,10.9343636 Z M10.4021448,6.85353623 C11.0387483,6.40058192 11.6801736,5.79442369 12.2,5.06666667 C13.4,3.46666667 12.8666667,2.46666667 12.8666667,2.46666667 C14.5333333,3.33333333 12.4,6 12.4,6 C11.7078095,6.74543592 11.015619,7.23571508 10.3573933,7.60669679 C10.3495755,8.07556236 10.3798695,8.56758307 10.4666667,9.06666667 C10.2666667,9.06666667 10.0666667,9.13333333 9.93333333,9.13333333 C9.73333333,8.2 9.66666667,7.06666667 9.93333333,5.53333333 C9.86666667,5.6 10.7333333,2.26666667 12.4,3.06666667 C12.4,3.06666667 11.2666667,3.26666667 10.7333333,5.13333333 C10.6014149,5.59504776 10.4694965,6.18728069 10.4021448,6.85353623 Z M6.93333333,10.8 C6.06666667,11.0666667 3.33333333,13.6666667 4.86666667,14.8 C4.86666667,14.8 4.46666667,13.7333333 5.93333333,12.3333333 C6.2,12.0666667 6.53333333,11.8666667 6.86666667,11.6 C6.86666667,11.3333333 6.93333333,11.0666667 6.93333333,10.8 Z M7.4,7.53333333 C7.2,6.86666667 6.86666667,6.26666667 6.53333333,5.6 C6.6,5.66666667 7.4,6.13333333 7.93333333,7.4 L7.4,7.53333333 Z M5.66666667,5.6 C4,6 4.86666667,7.73333333 4.86666667,7.73333333 C4.86666667,7.73333333 4,7.33333333 4,6.46666667 C4,5.2 5.66666667,5.6 5.66666667,5.6 Z M12.8,9.8 C13.6666667,10.2 14.4666667,11.4666667 13.6,12.3333333 C12.5333333,13.4 11.5333333,12.3333333 11.5333333,12.3333333 C11.5333333,12.3333333 12.3333333,12.6666667 12.8,12.3333333 C14.0666667,11.4666667 12.8,9.8 12.8,9.8 Z"/>
    <path fill="#8BC34A" d="M11.6666667,4.66666667 C11.4825718,4.66666667 11.3333333,4.51742825 11.3333333,4.33333333 C11.3333333,4.14923842 11.4825718,4 11.6666667,4 C11.8507616,4 12,4.14923842 12,4.33333333 C12,4.51742825 11.8507616,4.66666667 11.6666667,4.66666667 Z M9,9.33333333 C8.81590508,9.33333333 8.66666667,9.18409492 8.66666667,9 C8.66666667,8.81590508 8.81590508,8.66666667 9,8.66666667 C9.18409492,8.66666667 9.33333333,8.81590508 9.33333333,9 C9.33333333,9.18409492 9.18409492,9.33333333 9,9.33333333 Z M12.3333333,11.3333333 C12.1492384,11.3333333 12,11.1840949 12,11 C12,10.8159051 12.1492384,10.6666667 12.3333333,10.6666667 C12.5174282,10.6666667 12.6666667,10.8159051 12.6666667,11 C12.6666667,11.1840949 12.5174282,11.3333333 12.3333333,11.3333333 Z M5.66666667,14 C5.48257175,14 5.33333333,13.8507616 5.33333333,13.6666667 C5.33333333,13.4825718 5.48257175,13.3333333 5.66666667,13.3333333 C5.85076158,13.3333333 6,13.4825718 6,13.6666667 C6,13.8507616 5.85076158,14 5.66666667,14 Z M5.66666667,7.33333333 C5.48257175,7.33333333 5.33333333,7.18409492 5.33333333,7 C5.33333333,6.81590508 5.48257175,6.66666667 5.66666667,6.66666667 C5.85076158,6.66666667 6,6.81590508 6,7 C6,7.18409492 5.85076158,7.33333333 5.66666667,7.33333333 Z"/>
  </g>
</svg>
