<svg viewBox="0 0 24 24" xmlns="http://www.w3.org/2000/svg">
 <g fill="none">
  <circle cx="12" cy="12" r="12" fill="#FFF" opacity=".6"/>
  <g transform="translate(1 1)" fill="#01579B">
   <path d="m3.7 18.5c-2-2-3.2-4.6-3.2-7.5 0-5.8 4.7-10.5 10.5-10.5s10.5 4.7 10.5 10.5c0 2.9-1.1 5.5-3.2 7.5h-14.6z"/>
   <path d="m11 1c5.5 0 10 4.5 10 10 0 2.7-1 5.1-2.9 7h-14.2c-1.9-1.9-2.9-4.3-2.9-7 0-5.5 4.5-10 10-10zm0-1c-6.1 0-11 4.9-11 11 0 3.2 1.3 6 3.5 8h15.1c2.1-2 3.5-4.8 3.5-8-0.1-6.1-5-11-11.1-11z"/>
  </g>
  <g transform="translate(4 3)">
   <path d="m5.9 8.5c-0.8 1.9-2.8 3.1-4.9 3.1h-0.5l4.7-10.3 2.8 5.6 2.8-5.6 4.7 10.3h-0.5c-2.1 0-4-1.2-4.9-3l-2.2 5.1-2-5.2z" fill="#F50000"/>
   <path d="m10.8 2 4.2 9.3c-2.1 0-4-1.2-4.7-3.1l-0.1-0.4-2.2 5.2-2.1-5.4-0.2 0.6c-0.7 1.9-2.6 3.1-4.7 3.1l4.2-9.3 2.8 5.5 2.8-5.5zm0-1.4-0.6 1.1-2.2 4.5-2.3-4.5-0.5-1.1-0.5 1.2-4.2 9.3-0.4 0.8h0.9c2 0 3.9-1 4.9-2.7l1.5 3.9 0.5 1.4 0.6-1.4 1.7-3.9c1 1.6 2.8 2.6 4.8 2.6h0.9l-0.4-0.8-4.2-9.3-0.5-1.1z" fill="#FFEA00"/>
  </g>
  <path d="m19.5 20c-2 1.9-4.6 3-7.5 3s-5.6-1.1-7.5-3h15z" fill="#FFEA00"/>
 </g>
</svg>
