<svg width="21" height="26" viewBox="0 0 21 26">
  <g fill="none">
    <path fill="#FFF" d="M21,10.4 C21,7.5 19.9,5 18,3.1 L17.5,2.7 C15.6,1 13.2,0 10.5,0 C7.8,0 5.3,1 3.5,2.7 L3,3.1 C1.1,5 0,7.6 0,10.4 C0,12.4 0.6,14.3 1.6,15.9 L0.3,15.9 L11,25.3 L20.4,15.9 L19.4,15.9 C20.4,14.3 21,12.5 21,10.4 Z" opacity=".6"/>
    <circle cx="10.5" cy="10.4" r="9.5" fill="#20287D"/>
    <path fill="#E0111C" d="M15,16.9 L18,16.9 L11,23.9 L3,16.9 L6,16.9 L6,9.9 L15,9.9 L15,16.9 Z"/>
    <polygon fill="#FFF" points="10.5 9.9 4 4.4 4 16.9 7 16.9 7 9.8 10.5 13 14 9.8 14 16.9 17 16.9 17 4.4"/>
  </g>
</svg>
