<svg width="28" height="24" viewBox="0 0 28 24">
  <g fill="none">
    <path fill="#FFF" d="M27.8,16.6 L24,1.5 C23.8,0.8 23.2,0.2 22.5,0.1 C22.4,0.1 22.3,0.1 22.2,0.1 L22.1,0.1 L20.2,0.1 L18.2,0.1 L16.4,0.1 L11.7,0.1 L9.9,0.1 L7.9,0.1 L6,0.1 L5.9,0.1 C5.8,0 5.7,0 5.6,0 C4.9,0.2 4.3,0.7 4.1,1.5 L0.3,16.6 C0.2,17.2 0.3,17.8 0.7,18.3 C1,18.7 1.6,19 2.2,19 L4.7,19 L6.9,23.4 C7.1,23.8 7.5,24 7.8,24 L20.2,24 C20.6,24 20.9,23.8 21.1,23.5 L23.4,19 L25.9,19 C26.5,19 27.1,18.7 27.4,18.2 C27.8,17.8 28,17.1 27.8,16.6 Z" opacity=".6"/>
    <path fill="#212121" d="M5.33246753,18 L2.2,18 C1.9,18 1.6,17.9 1.4,17.6 C1.2,17.4 1.1,17.1 1.2,16.8 L5.1,1.7 C5.19158247,1.33367012 5.5347854,1.05121373 5.89916856,1.00625765 L5.9,1 L22.2,1 L22.2008198,1.00625621 C22.5652073,1.05120771 22.9084166,1.33366621 23,1.7 L26.7,16.8 C26.7,17.1 26.7,17.4 26.5,17.6 C26.3,17.9 26,18 25.7,18 L22.8333333,18 L20.3,23 L7.8,23 L5.33246753,18 Z"/>
    <polygon fill="#FFEA00" points="22.1 2 20.2 2 18.2 2 16.4 2 14 11.3 11.7 2 9.9 2 7.9 2 6 2 2.2 17 6 17 8.9 6 11.7 17 12.6 17 15.5 17 16.4 17 19.2 6 22.1 17 25.9 17"/>
  </g>
</svg>
