<?xml version="1.0" encoding="UTF-8" standalone="no"?>
<svg width="23px" height="12px" viewBox="0 0 23 12" version="1.1" xmlns="http://www.w3.org/2000/svg" xmlns:xlink="http://www.w3.org/1999/xlink" xmlns:sketch="http://www.bohemiancoding.com/sketch/ns">
    <!-- Generator: Sketch 3.3.3 (12072) - http://www.bohemiancoding.com/sketch -->
    <title>subway-minsk-l</title>
    <desc>Created with Sketch.</desc>
    <defs></defs>
    <g id="Subways" stroke="none" stroke-width="1" fill="none" fill-rule="evenodd" sketch:type="MSPage">
        <g id="subway-minsk-l" sketch:type="MSLayerGroup">
            <path d="M1,0 L8,0 L8.45001184,0 L8.74845381,0.336813078 L12.2484538,4.28681307 L10.7515462,4.28681307 L14.2515462,0.336813078 L14.5499882,0 L15,0 L22,0 L23,0 L23,1 L23,10 L23,11 L22,11 L14,11 L14,10 L11.5,12 L9,10 L9,11 L1,11 L0,11 L0,10 L0,1 L0,0 L1,0 Z" id="Shape" fill="#FFFFFF" sketch:type="MSShapeGroup"></path>
            <path d="M1,1 L8,1 L11.5,4.94999999 L15,1 L22,1 L22,10 L15,10 L15,7.42857143 L11.5,11 L8,7.42857143 L8,10 L1,10 L1,1 Z" id="Rectangle-400-Copy-5" fill="#C81D17" sketch:type="MSShapeGroup"></path>
        </g>
    </g>
</svg>