<svg viewBox="0 0 18 18" xmlns="http://www.w3.org/2000/svg">
 <g>
  <path d="m9 0c-5 0-9 4-9 9s4 9 9 9 9-4 9-9-4-9-9-9z" fill="#FFF" opacity=".6"/>
  <circle cx="9" cy="9" r="7" fill="#FFF"/>
  <path d="m9 2.2c3.7 0 6.8 3 6.8 6.8 0 3.7-3 6.8-6.8 6.8s-6.8-3-6.8-6.8c0-3.7 3.1-6.8 6.8-6.8zm0-1.2c-4.4 0-8 3.6-8 8s3.6 8 8 8 8-3.6 8-8-3.6-8-8-8z" fill="#1A237E"/>
  <path d="m9 8h0.5c0.3 0 0.5 0.2 0.5 0.5s-0.2 0.5-0.5 0.5h-0.5v1h0.5c0.3 0 0.5 0.2 0.5 0.5s-0.2 0.5-0.5 0.5h-1c-0.3 0-0.5-0.2-0.5-0.5v-4c0-0.3 0.2-0.5 0.5-0.5h1c0.3 0 0.5 0.2 0.5 0.5s-0.2 0.5-0.5 0.5h-0.5v1zm-3.6 1h-0.4v1.5c0 0.3-0.2 0.5-0.5 0.5s-0.5-0.2-0.5-0.5v-4c0-0.3 0.2-0.5 0.5-0.5h1c0.8 0 1.5 0.7 1.5 1.5 0 0.49465-0.26762 0.95107-0.66102 1.2274l0.96102 1.5726c0.1 0.2 0.1 0.5-0.2 0.7h-0.2c-0.2 0-0.3-0.1-0.4-0.2l-1.1-1.8zm7 0h-0.4v1.5c0 0.3-0.2 0.5-0.5 0.5s-0.5-0.2-0.5-0.5v-4c0-0.3 0.2-0.5 0.5-0.5h1c0.8 0 1.5 0.7 1.5 1.5 0 0.46526-0.23676 0.8967-0.59227 1.1763l0.99227 1.6237c0.1 0.2 0.1 0.5-0.2 0.7h-0.3c-0.2 0-0.3-0.1-0.4-0.2l-1.1-1.8zm-0.4-1h0.5c0.3 0 0.5-0.2 0.5-0.5s-0.2-0.5-0.5-0.5h-0.5v1zm-7 0h0.5c0.3 0 0.5-0.2 0.5-0.5s-0.2-0.5-0.5-0.5h-0.5v1z" fill="#1A237E"/>
 </g>
</svg>
