<svg width="16" height="18" viewBox="0 0 16 18">
  <g fill="none">
    <path fill="#FFF" d="M16,8 C16,7.4 15.6,7 15,7 L14.8,7 L15.7,5.2 C15.9,4.8 15.8,4.4 15.6,4 L14.9,3.2 L12.1,0.2 C11.9,0.1 11.7,0 11.4,0 L7.3,0 C6.9,0 6.5,0.2 6.4,0.6 C6.2,1 6.3,1.4 6.6,1.7 L7.8,3 L1,3 C0.4,3 0,3.4 0,4 L0,7 C0,7.2 0.1,7.4 0.2,7.5 C0.1,7.6 0,7.8 0,8 L0,10 C0,10.6 0.4,11 1,11 L1.1,11 L0.2,12.8 C0,13.1 0,13.6 0.3,13.9 L1,14.7 L3.8,17.7 C4,17.9 4.3,18 4.6,18 L8.7,18 C9.1,18 9.5,17.8 9.6,17.4 C9.8,17 9.7,16.6 9.4,16.3 L8.2,15 L15,15 C15.6,15 16,14.6 16,14 L16,11 C16,10.8 15.9,10.6 15.8,10.5 C15.9,10.4 16,10.2 16,10 L16,8 Z" opacity=".6"/>
    <polygon fill="#0D47A1" points="1.8 13.2 3 11 15 11 15 14 2.5 14"/>
    <polygon fill="#0D47A1" points="1.1 13.2 2.3 11 3.1 11 5.9 14 8.7 17 4.6 17 1.8 14"/>
    <polygon fill="#F50000" points="14.2 4.8 13 7 1 7 1 4 13.5 4"/>
    <polygon fill="#F50000" points="14.9 4.8 13.7 7 12.9 7 10.1 4 7.3 1 11.4 1 14.2 4"/>
    <rect width="14" height="2" x="1" y="8" fill="#0D47A1"/>
  </g>
</svg>
