<svg viewBox="0 0 23 18" xmlns="http://www.w3.org/2000/svg">
 <g>
  <ellipse cx="11.5" cy="9" rx="11.5" ry="9" fill="#FFF" opacity=".6"/>
  <path d="m11.5 16.6c-5.6 0-10.1-3.4-10.1-7.6s4.5-7.6 10.1-7.6 10.1 3.4 10.1 7.6-4.5 7.6-10.1 7.6z" fill="#FFF"/>
  <path d="m11.5 1.8c5.3 0 9.7 3.2 9.7 7.2s-4.3 7.2-9.7 7.2-9.7-3.2-9.7-7.2 4.4-7.2 9.7-7.2zm0-0.8c-5.8 0-10.5 3.6-10.5 8s4.7 8 10.5 8 10.5-3.6 10.5-8-4.7-8-10.5-8z" fill="#D50000"/>
  <path d="m16.5 4 2.5 5-2.5 5-2.5-5 2.5-5zm-10 0 2.5 5-2.5 5-2.5-5 2.5-5zm5 0 2.5 5-2.5 5-2.5-5 2.5-5z" fill="#D50000"/>
 </g>
</svg>
