<svg width="24" height="24" viewBox="0 0 24 24">
  <g fill="none">
    <circle cx="12" cy="12" r="12" fill="#FFF" opacity=".6"/>
    <g transform="translate(1 1)">
      <path fill="#FFF" d="M11,21.3 C5.3,21.3 0.8,16.7 0.8,11 C0.8,5.3 5.3,0.8 11,0.8 C16.7,0.8 21.3,5.4 21.3,11.1 C21.3,16.7 16.7,21.3 11,21.3 Z"/>
      <path fill="#212121" d="M11,1.5 C16.2,1.5 20.5,5.8 20.5,11 C20.5,16.2 16.2,20.5 11,20.5 C5.8,20.5 1.5,16.2 1.5,11 C1.5,5.8 5.8,1.5 11,1.5 Z M11,0 C4.9,0 0,4.9 0,11 C0,17.1 4.9,22 11,22 C17.1,22 22,17.1 22,11 C22,4.9 17.1,0 11,0 Z"/>
    </g>
    <path fill="#212121" d="M14,10 L14,19 L10,19 L10,10 L5,10 L5,7 L19,7 L19,10 L14,10 Z"/>
  </g>
</svg>
