<svg width="29" height="28" viewBox="0 0 29 28">
  <g fill="none">
    <path fill="#FFF" d="M14.4,0 C6.7,0 0.4,6.3 0.4,14 C0.4,21.7 6.7,28 14.4,28 C22.1,28 28.4,21.7 28.4,14 C28.4,6.3 22.1,0 14.4,0 Z" opacity=".6"/>
    <path fill="#FFF" d="M14,1 C6.8,1 1,6.8 1,14 C1,21.2 6.8,27 14,27 C21.2,27 27,21.2 27,14 C27,6.8 21.2,1 14,1 Z"/>
    <path fill="#C41F38" d="M25.205298,8 C25.205298,8 10.9006623,11.1788079 11.6953642,16.7417219 C12.2516556,20.7152318 26,20.7152318 26,20.7152318 C13.6821192,21.5099338 6.37086093,21.3509934 5.33774834,19.1258278 C4.30463576,16.9006623 8.59602649,12.9271523 11.6953642,11.1788079 C17.2582781,8 25.205298,8 25.205298,8 Z M15.6688742,8.79470199 C4.54304636,12.7682119 2.95364238,19.9205298 2.95364238,19.9205298 C2,19.4437086 1.7615894,18.3311258 2.2384106,17.4569536 C6.68874172,10.1456954 15.6688742,8.79470199 15.6688742,8.79470199 Z"/>
  </g>
</svg>
