<svg width="24" height="24" viewBox="0 0 24 24">
  <g fill="none">
    <path fill="#FFF" d="M12.3,0.3 C5.9,0.3 0.7,5.6 0.7,12 C0.7,18.4 5.9,23.7 12.4,23.7 C18.8,23.7 24,18.5 24,12 C24,5.6 18.8,0.3 12.3,0.3 Z" opacity=".6"/>
    <circle cx="12.3" cy="12" r="10.7" fill="#FFF"/>
    <path fill="#0D47A1" d="M21.9,9 C22,9.4 22,9.7 21.9,9.9 L21.2,13.3 L19.8,13.3 L20.6,9.8 L19.7,9.8 L20.2,8.1 L20.7,8.1 C21.2,8.1 21.6,8.5 21.9,9 Z M18.2,8.2 C18.8,8.2 19.2,8.5 19.5,9 C19.6,9.4 19.6,9.7 19.5,10 L18.8,13.4 L17.4,13.4 L18.2,9.9 L17.3,9.9 L17.7,8.2 L18.2,8.2 Z M15.8,8.2 C16.4,8.2 16.8,8.5 17.1,9 C17.2,9.4 17.2,9.7 17.1,10 L16.4,13.4 L14.9,13.4 L15.7,9.9 L14.8,9.9 L15.3,8.2 L15.8,8.2 Z M8.5,10.9 C8.5,10.9 8.8,12.3 7.3,12.6 L6.9,12.6 L8.4,15.2 L6.7,15.2 L5.3,12.7 L4.8,15.2 L3,15.2 L3.7,11.7 L5.4,11.7 L6,11.7 L7.2,11.7 L7.5,11.7 C7.5,11.7 7.5,10.9 7.5,10.8 L7.3,10.8 L4.2,10.8 L4.6,10 C4.9,9.3 5.5,9 6.1,9 L7.5,9 C8.1,9 8.5,9.5 8.5,10 L8.5,10.9 Z M9.4,10.4 L9.4,9 L13.7,8.2 L13.7,9.7 L12.3,9.9 L11.6,14.3 L10.4,14.3 L11,10.2 L9.4,10.4 Z"/>
  </g>
</svg>
