<svg viewBox="0 0 24 24" xmlns="http://www.w3.org/2000/svg">
 <g>
  <rect width="24" height="24" fill="#FFF" opacity=".6"/>
  <rect x="1" y="1" width="22" height="22" fill="#FFF"/>
  <path d="m10.546 13.81c0.92967-0.35271 1.7635-0.54011 2.4912-0.62287-1.981e-4 -5.741e-4 -3.961e-4 -0.0011483-5.942e-4 -0.0017226 0.0052884 0 0.010577 0 0.015865-4e-7 0.24976-0.027959 0.48696-0.043591 0.71119-0.049364 0.03034-0.0071508 0.059643-0.015338 0.087761-0.02471 0.0023424 0.007613 0.0046941 0.015226 0.0070551 0.022839 1.6638-0.022786 2.5855 0.49568 2.5855 0.49568-0.90565-0.092887-1.7021-0.091136-2.4236-0.013004 0.28724 0.79646 0.67535 1.6017 1.1643 2.4574-0.13472-0.067358-1.1882-0.62473-1.9351-2.3405-1.0181 0.20048-1.8926 0.56137-2.7433 1.0188-0.069464 0.91927-0.23211 1.9265-0.50683 3.0253 0 0-1.5556 4.8889-4 3.4815 0 0 1.7037-0.14815 2.6667-2.963 0.96296-2.5926 1.1852-4.963 0.66667-7.3333-0.010549-0.021098-0.019595-0.043698-0.027568-0.067372-2.0207 0.12215-3.4539-0.45115-3.4539-0.45115 1.0172 0.21797 2.1769 0.22214 3.3393 0.012518-0.0019471-0.0042279-0.0039483-0.0084018-0.0060066-0.012518 0.2963-0.074074 0.51852-0.14815 0.81481-0.22222 0.0019479 0.0058437 0.0038958 0.011636 0.0058423 0.01738 0.022338-0.0057934 0.045058-0.011587 0.068232-0.01738 0.44444-0.14815 0.96296-0.2963 1.4074-0.51852 0.074074 0.2963 0.074074 0.59259 0.074074 0.81481-0.44444 0.14815-0.88889 0.22222-1.2593 0.2963-0.046397 0.011599-0.092795 0.021382-0.13919 0.029633 0.25265 0.84186 0.39714 1.8274 0.3893 2.9653zm2.8716-5.178c0.9986-0.68996 1.9593-1.5793 2.7302-2.7059 1.7778-2.3704 1.037-3.8519 1.037-3.8519 2.4444 1.3333-0.81481 5.2593-0.81481 5.2593-0.99504 1.0536-2.0363 1.8296-3.0142 2.3648-0.010377 0.73335 0.045927 1.5088 0.19943 2.3019-0.2963 0-0.59259 0.074074-0.81481 0.074074-0.2963-1.3333-0.37037-3.1111 0-5.3333 0 0 1.1852-4.963 3.7037-3.7037 0 0-1.6296 0.2963-2.5185 3.1111-0.21412 0.67805-0.41105 1.528-0.50795 2.4837zm-5.0476 5.8126c-1.2593 0.37037-5.3333 4.2963-3.1111 5.9259 0 0-0.51852-1.5556 1.6296-3.6296 0.37037-0.37037 0.81481-0.74074 1.3333-1.1111 0.074074-0.37037 0.14815-0.81481 0.14815-1.1852zm0.66667-4.8148c-0.2963-0.96296-0.74074-1.9259-1.3333-2.8889 0.14815 0.074074 1.2593 0.81481 2.0741 2.6667l-0.74074 0.22222zm-2.5185-2.8889c-2.5185 0.66667-1.2593 3.1111-1.2593 3.1111s-1.2593-0.59259-1.2593-1.8519c0-1.8519 2.5185-1.2593 2.5185-1.2593zm10.519 6.2222c1.2593 0.66667 2.5185 2.5185 1.2593 3.7037-1.5556 1.5556-3.1111 0-3.1111 0s1.1111 0.51852 1.8519 0c1.8519-1.1852 0-3.7037 0-3.7037z" fill="#6A1B9A"/>
  <path d="m15.481 5.7037c-0.20455 0-0.37037-0.16582-0.37037-0.37037 0-0.20455 0.16582-0.37037 0.37037-0.37037s0.37037 0.16582 0.37037 0.37037c0 0.20455-0.16582 0.37037-0.37037 0.37037zm-4.4444 6.6667c-0.20455 0-0.37037-0.16582-0.37037-0.37037s0.16582-0.37037 0.37037-0.37037 0.37037 0.16582 0.37037 0.37037-0.16582 0.37037-0.37037 0.37037zm5.1852 2.963c-0.20455 0-0.37037-0.16582-0.37037-0.37037s0.16582-0.37037 0.37037-0.37037 0.37037 0.16582 0.37037 0.37037-0.16582 0.37037-0.37037 0.37037zm-8.8889 3.7037c-0.20455 0-0.37037-0.16582-0.37037-0.37037s0.16582-0.37037 0.37037-0.37037c0.20455 0 0.37037 0.16582 0.37037 0.37037s-0.16582 0.37037-0.37037 0.37037zm-0.74074-9.6296c-0.20455 0-0.37037-0.16582-0.37037-0.37037 0-0.20455 0.16582-0.37037 0.37037-0.37037 0.20455 0 0.37037 0.16582 0.37037 0.37037 0 0.20455-0.16582 0.37037-0.37037 0.37037z" fill="#8BC34A"/>
 </g>
</svg>
