<svg viewBox="0 0 19 14" xmlns="http://www.w3.org/2000/svg">
 <g fill="none">
  <path d="m17.9 2.6c-0.5-1.6-1.9-2.6-3.4-2.6h-4.5-3.2c-1.5 0-2.9 1-3.4 2.5l-0.2 0.5-0.2 0.7-1.9 5.5c-0.2 0.7-0.2 1.4 0 2.2 0.5 1.6 1.9 2.6 3.4 2.6h6.8c0.9 0 1.8-0.3 2.6-0.8 0.5-0.3 0.9-0.7 1.2-1.1s0.5-0.8 0.7-1.3l1-2.9 1-3.1c0.3-0.7 0.3-1.5 0.1-2.2z" fill="#FFF" opacity=".6"/>
  <g transform="translate(1 1)">
   <path d="m10.4 12h-6.9c-1.8 0-3-1.7-2.5-3.4l2.3-6.8c0.4-1.1 1.4-1.8 2.5-1.8h7.6c1.8 0 3 1.7 2.5 3.4l-2 6c-0.5 1.6-1.9 2.6-3.5 2.6z" fill="#FFF"/>
   <path d="m13.5 0h-4.5l-1 1.1h5.5c0.5 0 0.9 0.2 1.2 0.6s0.3 0.9 0.2 1.3l-2 6c-0.4 1.1-1.3 1.8-2.5 1.8h-6.9c-0.5 0-0.9-0.2-1.2-0.6-0.2-0.3-0.3-0.8-0.1-1.3l2-5.9h-1.3l-1.8 5.6c-0.6 1.7 0.7 3.4 2.4 3.4h6.8c1.6 0 3-1 3.5-2.6l2-6c0.7-1.6-0.6-3.4-2.3-3.4z" fill="#FF6F00"/>
  </g>
  <path d="m10.779 6-0.97872 4.6c0 0.2-0.2 0.4-0.5 0.4h-1c-0.3 0-0.5-0.3-0.5-0.6l0.97778-4.4h-2.0778c-0.2 0-0.4-0.2-0.4-0.5l0.4-1.2c0.1-0.2 0.2-0.3 0.4-0.3h6.4c0.2 0 0.4 0.2 0.4 0.5l-0.4 1.2c0 0.2-0.2 0.3-0.4 0.3h-2.3213z" fill="#616161"/>
 </g>
</svg>
