<svg viewBox="0 0 18 18" xmlns="http://www.w3.org/2000/svg">
 <g>
  <rect width="18" height="18" fill="#FFF" opacity=".6"/>
  <rect x="1" y="1" width="16" height="16" fill="#212121"/>
  <path d="m14.1 14.8c-0.1 0-0.1 0.1-0.2 0.2h-2.8l-0.1-0.4-1.2-3.5 2.8 2.4 1.5 1.3zm-5.6-3.7-1.3 3.9h-3.1l-0.1-0.1 1.5-1.3 1.6-1.3 1.4-1.2zm0.5-8.1c3.9 0 7 3.1 7 7 0 1.3-0.4 2.6-1.1 3.7l-0.3-0.3-1.2-1c0.4-0.7 0.6-1.5 0.6-2.4 0-2.8-2.2-5-5-5s-5 2.2-5 5c0 1 0.3 1.8 0.7 2.6l-1.2 1-0.3 0.3c-0.8-1.1-1.2-2.4-1.2-3.9 0-3.9 3.1-7 7-7z" fill="#FFF"/>
 </g>
</svg>
