<svg width="28" height="28" viewBox="0 0 28 28">
  <g fill="none" fill-rule="evenodd">
    <rect width="28" height="28" fill="#FFF" opacity=".6" rx="14"/>
    <rect width="26" height="26" x="1" y="1" fill="#3C3E38" rx="13"/>
    <path fill="#FFF" d="M11,6 L8,8 L8,19 C8,19.5 8.5,20 9,20 L11.5,20 L15,20 L17.5,20 L20,20 C20.5,20 21,19.5 21,19 L21,8 L18,6 L11,6 Z M12,8 L14,8 L14,13 L10,13 L10,9 L12,8 Z M17,8 L15,8 L15,13 L19,13 L19,9 L17,8 Z M20,17.75 C20,18.1655 19.6655,18.5 19.25,18.5 C18.8345,18.5 18.5,18.1655 18.5,17.75 C18.5,17.3345 18.8345,17 19.25,17 C19.6655,17 20,17.3345 20,17.75 Z M9.75,17 C10.1655,17 10.5,17.3345 10.5,17.75 C10.5,18.1655 10.1655,18.5 9.75,18.5 C9.3345,18.5 9,18.1655 9,17.75 C9,17.3345 9.3345,17 9.75,17 L9.75,17 Z"/>
  </g>
</svg>
