<svg width="28" height="23" viewBox="0 0 28 23">
  <g fill="none">
    <path fill="#FFF" d="M14,0 C6.6,0 0.5,6.1 0.5,13.5 C0.5,16.6 1.6,19.7 3.6,22.1 L4,22.6 C4.2,22.9 4.5,23 4.8,23 L5.5,23 L22.5,23 L23.2,23 C23.5,23 23.8,22.9 24,22.6 L24.4,22.1 C26.4,19.7 27.5,16.6 27.5,13.5 C27.5,6.1 21.4,0 14,0 Z" opacity=".6"/>
    <g transform="translate(1 1)">
      <path fill="#FFF" d="M24,12 C24,14.7 23.1,17.1 21.5,19 L4.5,19 C2.9,17.1 2,14.7 2,12 C2,5.9 6.9,1 13,1 C19.1,1 24,5.9 24,12 Z"/>
      <path fill="#E0111C" d="M13,1 C19.1,1 24,5.9 24,12 C24,14.7 23.1,17.1 21.5,19 L4.5,19 C2.9,17.1 2,14.7 2,12 C2,5.9 6.9,1 13,1 Z M13,0 C6.1,0 0.5,5.6 0.5,12.5 C0.5,15.4 1.5,18.2 3.4,20.5 L3.8,21 L4.5,21 L21.5,21 L22.2,21 L22.6,20.5 C24.4,18.3 25.5,15.4 25.5,12.5 C25.5,5.6 19.9,0 13,0 Z"/>
    </g>
    <path fill="#E0111C" d="M18.7811594,17 L16.9,11.1 L13.7,15.9 L10.4,11.1 L9.37391304,17 L10,17 L10,18 L6,18 L6,17 L7.208,17 L9.6,5.5 L13.7,11.9 L17.7,5.5 L20.828,17 L22,17 L22,18 L18,18 L18,17 L18.7811594,17 Z"/>
  </g>
</svg>
