<svg width="19" height="19" viewBox="0 0 19 19">
  <g fill="none">
    <rect width="19" height="19" fill="#FFF" opacity=".6" rx="1"/>
    <rect width="17" height="17" x="1" y="1" fill="#33597F" rx="1"/>
    <path fill="#FFF" d="M12.9673714,15.2121547 C13.3637636,14.947366 13.9228293,14.3990881 14.1658803,14.0367719 C14.5210812,13.5072738 14.7790339,12.8710904 14.9170329,12.1842204 C14.9704867,11.9181623 14.9770174,11.4507037 14.9879542,7.10769434 L15,3 L12,3 L12,6.7039651 C12,9.58313946 12.0242275,11.2946753 12,11.511947 C11.9565973,11.9011846 11.5142479,12.2687121 11.384261,12.5095969 C11.2211512,12.8118631 10.9202141,13.0994843 10.6062323,13.2531999 C9.74240145,13.676104 8.47839002,13.5238354 7.8792499,12.9246953 C7.57411564,12.6195613 7.24449569,12.1282199 7,11.511947 C7,10.4474487 7,7.92156982 7,6.79741445 L7,3 L4,3 L4,6.8540937 C4,11.3988085 4.0087121,11.7824556 4.12495423,12.3565983 C4.4120423,13.7745821 5.29667501,14.9031642 6.65099391,15.5792271 C7.64364963,16.0747518 8.92870998,16.2975795 10.1220431,16.1811024 C11.185272,16.0773241 12.1785828,15.7390621 12.9673714,15.2121547 Z"/>
  </g>
</svg>
