<?xml version="1.0" encoding="UTF-8" standalone="no"?>
<svg width="27px" height="21px" viewBox="0 0 27 21" version="1.1" xmlns="http://www.w3.org/2000/svg" xmlns:xlink="http://www.w3.org/1999/xlink" xmlns:sketch="http://www.bohemiancoding.com/sketch/ns">
    <!-- Generator: Sketch 3.3.3 (12072) - http://www.bohemiancoding.com/sketch -->
    <title>subway-london-l</title>
    <desc>Created with Sketch.</desc>
    <defs></defs>
    <g id="Subways" stroke="none" stroke-width="1" fill="none" fill-rule="evenodd" sketch:type="MSPage">
        <g id="subway-london-l" sketch:type="MSLayerGroup">
            <rect id="Rectangle-326-Copy" fill="#FFFFFF" sketch:type="MSShapeGroup" x="0" y="7" width="27" height="7"></rect>
            <path d="M13.5,21 C19.2989899,21 24,16.2989899 24,10.5 C24,4.70101013 19.2989899,0 13.5,0 C7.70101013,0 3,4.70101013 3,10.5 C3,16.2989899 7.70101013,21 13.5,21 Z M13.5,15 C15.9852814,15 18,12.9852814 18,10.5 C18,8.01471863 15.9852814,6 13.5,6 C11.0147186,6 9,8.01471863 9,10.5 C9,12.9852814 11.0147186,15 13.5,15 Z" id="Oval-198" fill="#FFFFFF" sketch:type="MSShapeGroup"></path>
            <path d="M13.5,20 C18.7467051,20 23,15.7467051 23,10.5 C23,5.25329488 18.7467051,1 13.5,1 C8.25329488,1 4,5.25329488 4,10.5 C4,15.7467051 8.25329488,20 13.5,20 Z M13.5,16 C16.5375661,16 19,13.5375661 19,10.5 C19,7.46243388 16.5375661,5 13.5,5 C10.4624339,5 8,7.46243388 8,10.5 C8,13.5375661 10.4624339,16 13.5,16 Z" id="Oval-196" fill="#E12524" sketch:type="MSShapeGroup"></path>
            <rect id="Rectangle-326" fill="#043A86" sketch:type="MSShapeGroup" x="1" y="8" width="25" height="5"></rect>
        </g>
    </g>
</svg>