<svg viewBox="0 0 24 24" xmlns="http://www.w3.org/2000/svg">
 <g fill="none">
  <circle cx="12" cy="12" r="12" fill="#FFF" opacity=".6"/>
  <g transform="translate(1 1)">
   <path d="m11 21.5c-5.8 0-10.5-4.7-10.5-10.5s4.7-10.5 10.5-10.5 10.5 4.7 10.5 10.5-4.7 10.5-10.5 10.5z" fill="#FFF"/>
   <path d="m11 1c5.5 0 10 4.5 10 10s-4.5 10-10 10-10-4.5-10-10 4.5-10 10-10zm0-1c-6.1 0-11 4.9-11 11s4.9 11 11 11 11-4.9 11-11-4.9-11-11-11z" fill="#2E7D32"/>
  </g>
  <g transform="translate(4 4)">
   <polygon points="16 12 11.2 0.8 8.1 5.7 4.8 0.8 0 12 4 12 5.7 7.5 7.9 10.7 10.4 7.6 12 12" fill="#2E7D32"/>
   <g transform="translate(2 3)" fill="#FFF">
    <rect transform="rotate(-26.565 8.41 5.917)" x="7.911" y=".217" width="1" height="11.4"/>
    <rect transform="rotate(-63.435 3.59 5.8)" x="-2.21" y="5.301" width="11.6" height="1"/>
   </g>
  </g>
 </g>
</svg>
