<?xml version="1.0" encoding="UTF-8" standalone="no"?>
<svg width="17px" height="17px" viewBox="0 0 17 17" version="1.1" xmlns="http://www.w3.org/2000/svg" xmlns:xlink="http://www.w3.org/1999/xlink">
    <!-- Generator: Sketch 3.8.3 (29802) - http://www.bohemiancoding.com/sketch -->
    <title>subway-s</title>
    <desc>Created with Sketch.</desc>
    <defs>
        <rect id="path-1" x="0" y="0" width="15" height="15" rx="1"></rect>
        <mask id="mask-2" maskContentUnits="userSpaceOnUse" maskUnits="objectBoundingBox" x="-1" y="-1" width="17" height="17">
            <rect x="-1" y="-1" width="17" height="17" fill="white"></rect>
            <use xlink:href="#path-1" fill="black"></use>
        </mask>
    </defs>
    <g id="POI-Clear" stroke="none" stroke-width="1" fill="none" fill-rule="evenodd">
        <g id="subway-s" transform="translate(1.000000, 1.000000)">
            <g id="g24875">
                <g id="Rectangle-211">
                    <use fill="#3C3E38" fill-rule="evenodd" xlink:href="#path-1"></use>
                    <use fill="#0D4D7F" fill-rule="evenodd" xlink:href="#path-1"></use>
                    <use stroke-opacity="0.8" stroke="#FFFFFF" mask="url(#mask-2)" stroke-width="2" xlink:href="#path-1"></use>
                </g>
                <path d="M5.5,3 L4,4.14285714 L4,10.4285714 C4,10.7142857 4.25,11 4.5,11 L5.75,11 L8,11 L9.25,11 L10.5,11 C10.75,11 11,10.7142857 11,10.4285714 L11,4.14285714 L9.5,3 L5.5,3 Z M6,4.14285714 L9,4.14285714 L10,4.71428571 L10,6.42857143 L5,6.42857143 L5,4.71428571 L6,4.14285714 Z M5.5,8.71428571 C5.777,8.71428571 6,8.96914286 6,9.28571429 C6,9.60228571 5.777,9.85714286 5.5,9.85714286 C5.223,9.85714286 5,9.60228571 5,9.28571429 C5,8.96914286 5.223,8.71428571 5.5,8.71428571 L5.5,8.71428571 Z M9.5,8.71428571 C9.777,8.71428571 10,8.96914286 10,9.28571429 C10,9.60228571 9.777,9.85714286 9.5,9.85714286 C9.223,9.85714286 9,9.60228571 9,9.28571429 C9,8.96914286 9.223,8.71428571 9.5,8.71428571 L9.5,8.71428571 Z" id="path24879" fill="#FFFFFF"></path>
            </g>
        </g>
    </g>
</svg>