<svg height="24" viewBox="0 0 24 24" width="24"><g fill="none" fill-rule="evenodd"><rect fill="#fff" height="24" opacity=".6" rx="12" width="24"/><rect fill="#3c3e38" height="22" rx="11" width="22" x="1" y="1"/><path d="m7.99230773 6-1.99230773 1.50387445.04221484 9.49354255c.01530175.5012915.51337868 1.002583 1.01145562 1.002583h9.96538474c.498077 0 .9886888-.3299574.9808522-1.002583l-.0422149-9.49354255-1.9923077-1.50387445zm1.61220532 2.01071141h4.98461545l1.4184711 1.10147521v3.85430988h-7.97307703v-3.85430988zm.42616335 7.59038759c0 .4152839-.33449847.7519372-.74711536.7519372-.4126169 0-.7471154-.3366533-.7471154-.7519372s.3344985-.7519372.7471154-.7519372c.41261689 0 .74711536.3366533.74711536.7519372zm6.4750002 0c0 .4152839-.3344985.7519372-.7471154.7519372s-.7471154-.3366533-.7471154-.7519372.3344985-.7519372.7471154-.7519372.7471154.3366533.7471154.7519372zm-5.5037535-7.59038759h1.9961538v5.01291479h-1.9961538z" fill="#fff"/></g></svg>