<svg width="32" height="32" viewBox="0 0 32 32">
  <g fill="none">
    <path fill="#FFF" d="M16,0.8 C13.2,0.8 10.5,1.6 8.2,3 L4,3 L2.9,3 L2.9,4 L2.9,8.2 C1.5,10.6 0.7,13.3 0.7,16 C0.7,18.7 1.5,21.5 2.9,23.8 L2.9,28 L2.9,29.1 L4,29.1 L8.2,29.1 C10.6,30.5 13.3,31.3 16,31.3 C18.7,31.3 21.5,30.5 23.8,29.1 L28,29.1 L29.1,29.1 L29.1,28 L29.1,23.8 C30.5,21.4 31.3,18.7 31.3,16 C31.3,13.3 30.5,10.5 29.1,8.2 L29.1,4 L29.1,2.9 L28,2.9 L23.8,2.9 C21.5,1.5 18.8,0.8 16,0.8 Z" opacity=".6"/>
    <circle cx="16" cy="16" r="14" fill="#0D47A1"/>
    <rect width="24" height="24" x="4" y="4" fill="#D50000"/>
    <rect width="20" height="20" x="6" y="6" fill="#0D47A1"/>
    <path fill="#FFF" d="M4,0.446153846 L9,9.1 L14,0.446153846 L14,-3.55271368e-15 L18,-3.55271368e-15 L18,18 L14,18 L14,7.19411765 L9,15.9 L4,7.19411765 L4,18 L0,18 L0,-3.55271368e-15 L4,-3.55271368e-15 L4,0.446153846 Z" transform="translate(7 7)"/>
  </g>
</svg>
