<svg viewBox="0 0 18 19" xmlns="http://www.w3.org/2000/svg">
 <g transform="translate(-1)">
  <path d="m18 12h-1.5c0.8-1.1 1.2-2.5 1.2-3.9 0-4-3.5-7.3-7.7-7.3s-7.7 3.3-7.7 7.3c0 1.4 0.4 2.8 1.2 3.9h-1.5c-0.5 0-0.9 0.3-1 0.7s0 0.9 0.4 1.1l8 4.9s0.1 0 0.1 0.1h0.1 0.3 0.3 0.1s0.1 0 0.1-0.1l7.9-4.8c0.3-0.2 0.5-0.5 0.5-0.8 0.2-0.7-0.3-1.1-0.8-1.1z" fill="#FFF" opacity=".6"/>
  <path d="m10 13.85c-3.2309 0-5.85-2.6191-5.85-5.85 0-3.2309 2.6191-5.85 5.85-5.85 3.2309 0 5.85 2.6191 5.85 5.85 0 3.2309-2.6191 5.85-5.85 5.85zm0-0.7c2.8443 0 5.15-2.3057 5.15-5.15 0-2.8443-2.3057-5.15-5.15-5.15-2.8443 0-5.15 2.3057-5.15 5.15 0 2.8443 2.3057 5.15 5.15 5.15z" fill="#154499"/>
  <path d="m10 17.9-8-4.9h2.9l5.1 3.1 5.1-3.1h2.9l-8 4.9z" fill="#FF0002"/>
  <path d="m13 10.3-1 0.5v-5l1-0.5v5zm-1.7 0.7h-1.2l-1.6-2.5-1.3 2.5h-1.4l2.2-4v-1h-1v-1h3v1h-1v1l0.1 0.3 2.2 3.7z" fill="#FF3739"/>
 </g>
</svg>
