<svg width="29" height="28" viewBox="0 0 29 28">
  <g fill="none">
    <path fill="#FFF" d="M28,12.9 L27.8,11.6 C27.8,11.5 27.8,11.5 27.8,11.4 C27.7,11.1 27.7,10.9 27.6,10.7 C27.6,10.5 27.5,10.3 27.5,10.1 C27.4,9.9 27.4,9.7 27.3,9.4 C27.2,9.2 27.2,9 27.1,8.8 C27,8.6 26.9,8.4 26.9,8.2 C26.8,8 26.7,7.8 26.6,7.6 L26.5,7.5 C26.4,7.4 26.4,7.2 26.3,7.1 C26.1,7 26,6.7 25.8,6.5 L25.7,6.4 C25.6,6.3 25.6,6.2 25.5,6.1 C25.3,5.8 25.1,5.5 24.8,5.2 C24.8,5.2 24.7,5.1 24.7,5.1 C24.4,4.8 24.1,4.4 23.8,4.1 C23.8,4.1 23.7,4 23.7,4 C23.4,3.7 23.2,3.5 22.9,3.3 C22.8,3.2 22.8,3.2 22.7,3.1 L22.7,3 C22.5,2.8 22.2,2.6 22,2.5 C21.9,2.4 21.8,2.4 21.7,2.3 L21.6,2.2 C21.4,2 21.1,1.9 20.9,1.8 C20.8,1.7 20.6,1.7 20.5,1.6 C20.3,1.5 20,1.4 19.8,1.2 C19.7,1.1 19.5,1.1 19.3,1 C19,0.9 18.8,0.8 18.5,0.7 L18.4,0.7 C18.3,0.7 18.1,0.6 18,0.6 C17.7,0.5 17.5,0.5 17.2,0.4 L17.1,0.4 C17,0.4 16.9,0.3 16.8,0.3 C16.5,0.2 16.2,0.2 15.9,0.2 L15.8,0.2 C15.7,0.2 15.6,0.2 15.5,0.2 C14.9,0 14.4,0 14,0 C6.3,0 0,6.3 0,14 C0,14.5 0,15 0.1,15.6 C0.1,15.7 0.1,15.8 0.2,16 L0.2,16.1 C0.3,16.5 0.3,16.9 0.4,17.2 C0.4,17.3 0.4,17.4 0.4,17.4 L0.6,18.2 L1.3,19.7 C1.4,19.9 1.5,20.2 1.6,20.4 L1.6,20.5 C1.6,20.5 1.6,20.6 1.7,20.6 C1.9,20.9 2.1,21.3 2.3,21.6 C2.3,21.7 2.4,21.7 2.4,21.8 L2.4,21.9 C2.6,22.2 2.8,22.4 2.9,22.6 L3,22.7 C3.1,22.8 3.1,22.8 3.2,22.9 C3.5,23.2 3.7,23.5 4,23.8 L4.2,24 C4.5,24.3 4.7,24.5 5,24.7 C5.1,24.8 5.2,24.9 5.3,24.9 C5.5,25.1 5.8,25.3 6,25.5 L6.1,25.6 C6.2,25.6 6.2,25.7 6.3,25.7 C6.6,25.9 7,26.1 7.3,26.3 C7.4,26.3 7.4,26.4 7.5,26.4 L7.6,26.4 C7.9,26.5 8.2,26.7 8.5,26.8 C8.6,26.9 8.7,26.9 8.9,26.9 C9.2,27 9.5,27.1 9.8,27.2 L9.9,27.2 C10,27.2 10,27.2 10.1,27.3 C10.5,27.4 10.9,27.5 11.3,27.6 C11.4,27.6 11.5,27.6 11.5,27.6 L11.6,27.6 C11.9,27.7 12.2,27.7 12.5,27.7 L12.6,27.7 C12.7,27.7 12.8,27.7 12.9,27.7 C13.4,27.7 13.8,27.8 14.2,27.8 C14.6,27.8 15.1,27.8 15.5,27.7 C15.6,27.7 15.7,27.7 15.8,27.7 L15.9,27.7 C16.2,27.7 16.5,27.6 16.8,27.6 C16.9,27.6 17.1,27.5 17.2,27.5 C17.5,27.4 17.8,27.4 18,27.3 C18.2,27.3 18.3,27.2 18.5,27.2 C18.8,27.1 19,27 19.3,26.9 L19.4,26.9 C19.5,26.9 19.6,26.8 19.7,26.8 C20,26.7 20.3,26.5 20.7,26.3 C20.8,26.3 20.8,26.2 20.9,26.2 C21.3,26 21.6,25.8 22,25.5 C22.1,25.5 22.1,25.4 22.2,25.4 L22.3,25.4 C22.6,25.2 22.8,25 23.1,24.8 C23.2,24.7 23.3,24.7 23.3,24.6 L23.4,24.5 C23.6,24.3 23.8,24.1 24,23.9 C24.1,23.8 24.2,23.7 24.3,23.6 C24.5,23.4 24.7,23.2 24.9,23 L25,22.9 C25.1,22.8 25.1,22.7 25.2,22.6 C25.4,22.4 25.6,22.1 25.7,21.9 L25.8,21.8 C25.8,21.7 25.9,21.7 25.9,21.6 C26.1,21.2 26.4,20.9 26.6,20.5 C26.6,20.4 26.7,20.4 26.7,20.3 C26.9,19.9 27,19.6 27.2,19.3 C27.2,19.2 27.3,19.1 27.3,19 L27.3,18.9 C27.4,18.7 27.5,18.4 27.6,18.2 C27.7,18 27.7,17.8 27.8,17.7 L27.8,17.6 C27.8,17.5 27.9,17.4 27.9,17.4 C27.9,17.3 27.9,17.3 27.9,17.2 C28,16.8 28.1,16.4 28.1,16 L28.1,15.9 C28.1,15.8 28.1,15.7 28.2,15.5 C28,15 28,14.5 28,14 C28,13.6 28,13.3 28,12.9 Z" opacity=".6"/>
    <path fill="#F50000" d="M6.23157895,14 L8.6,11.5 L11.3,8.6 L14,11.5 L16.7,8.6 L19.4,11.5 L21.7684211,14 L23.7,14 L26.9,14 C26.9,15.1 26.8,16.2 26.5,17.2 C25.1,22.8 20,26.9 14,26.9 C8.8,26.9 4.3,23.8 2.3,19.4 L6,19.4 C7.7,22 10.7,23.7 14,23.7 C18.2,23.7 21.8,21 23.1,17.2 L19.4,17.2 L16.7,14.4 L14,17.2 L11.3,14.4 L8.6,17.2 L3.2,17.2 L1.5,17.2 C1.2,16.2 1.1,15.1 1.1,14 C1.1,6.9 6.9,1.1 14,1.1 C20.4,1.1 25.7,5.7 26.8,11.8 L23.5,11.8 C22.5,7.5 18.6,4.3 14,4.3 C8.7,4.3 4.3,8.7 4.3,14 L6.23157895,14 Z"/>
  </g>
</svg>
