<svg viewBox="0 0 24 24" xmlns="http://www.w3.org/2000/svg">
 <g>
  <rect width="24" height="24" fill="#FFF" opacity=".6"/>
  <rect x="1" y="1" width="22" height="22" fill="#FFF"/>
  <path d="m17.9 8.1c-0.2-1.3-0.8-2.4-1.7-3.3-1-1.1-2.5-1.8-4.2-1.8-3 0-5.5 2.2-5.9 5.1-2.9 0.4-5.1 2.9-5.1 5.9 0 2 1 3.8 2.6 4.9 0.8 0.6 2 0.3 2.6-0.5l2.9-4.2 2.9 3.5 2.9-3.5 2.9 4.2c0.6 0.8 1.8 1.1 2.6 0.5 1.6-1.1 2.6-2.9 2.6-4.9 0-3-2.2-5.5-5.1-5.9zm1.9 9.9-4.7-6.6-3.1 4.2-3.1-4.2-4.6 6.6v0.1c-0.8-0.7-1.5-1.6-1.7-2.7-0.5-2.6 1.3-4.9 3.7-5.3l1.1-0.2 0.2-1.1c0.3-2.2 2.2-3.8 4.4-3.8 1.2 0 2.3 0.5 3.2 1.3 0.7 0.7 1.1 1.5 1.3 2.5l0.2 1.1 0.9 0.1c1.9 0.3 3.6 1.7 3.9 3.6 0.2 1.8-0.5 3.4-1.7 4.4z" fill="#304FFE"/>
 </g>
</svg>
