<svg viewBox="0 0 31 15" xmlns="http://www.w3.org/2000/svg">
 <g>
  <path d="m28.5 6.5 0.4-1.1 1-2.6 0.3-0.7-0.6-0.5c-1.3-1-3.1-1.6-4.8-1.6-1.6 0-3 0.5-3.9 1.5l0.1-0.2 0.3-1.3h-1.3-1.2-1.1-3.4-0.9-1-0.6-0.8-2.8-1.2-3-0.4-0.6-0.2l-0.1 0.9-1.6 13-0.2 1.1h1.1 1 1 1.4 0.9 2.7 0.7l0.2-0.7 1-3 0.4-1.3h-1.3-1.3l0.2-0.7 1-3 0.5-1.3h0.3 0.3 1.8l-1.1 8.9-0.1 1.1h1.1 3.4 0.9l0.1-0.9 1.1-9.1h1 0.4c0 1.2 0.4 2.1 1 2.8l-0.5 1.2-1.1 2.6-0.3 0.6 0.5 0.5c1.5 1.5 3.5 2.3 5.6 2.3 3.1 0 5.2-2 5.2-4.9 0-1.8-0.7-2.9-1.5-3.6zm-15.8 7.5 1.1-9-1.1 9zm12.1-3.7c-0.7 0-1.9-0.5-2.8-1.4 0.6 0.3 1.3 0.5 1.8 0.7s1.2 0.4 1.3 0.6c0 0.1-0.1 0.1-0.3 0.1zm1-5.1c-0.3-0.1-0.9-0.3-1.2-0.5 0.5 0 1.4 0.4 2.3 0.9-0.4-0.2-0.8-0.3-1.1-0.4z" fill="#FFF" opacity=".6"/>
  <path d="m13.931 4h-2.9308l0.8-3h8.2l-0.8 3h-1.8692l-1.2308 10h-3.4l1.2308-10zm-9.9308-3h7l-1 3h-3.3692l-0.24615 2h2.6154l-1 3h-1.9846l-0.24615 2h4.2308l-1 3h-5-2l1.6-13h0.4zm20.6 2.7c-0.7 0-1.1 0.3-1.1 0.9 0 2.1 5.6 0.9 5.6 5.5 0 2.6-1.9 3.9-4.2 3.9-1.8 0-3.6-0.8-4.9-2l1-2.6c1.1 1.1 2.7 1.9 3.8 1.9 0.8 0 1.3-0.4 1.3-1 0-2.2-5.6-0.9-5.6-5.4 0-2.4 1.7-3.9 4.2-3.9 1.5 0 3.1 0.6 4.2 1.4l-1 2.6c-1.1-0.7-2.5-1.3-3.3-1.3z" fill="#003364"/>
 </g>
</svg>
