<svg width="13" height="13" viewBox="0 0 13 13">
  <g fill="none">
    <rect width="13" height="13" fill="#FFF" opacity=".6" rx="1"/>
    <rect width="11" height="11" x="1" y="1" fill="#33597F" rx="1"/>
    <path fill="#FFF" d="M8.70650908,10.394899 C8.95875865,10.23456 9.31452773,9.90255794 9.46919653,9.68316241 C9.69523348,9.3625323 9.8593852,8.97730038 9.94720273,8.56137587 C9.98121882,8.40026811 9.98537472,8.11720509 9.99233451,5.48735671 L10,3 L8,3 L8,5.24288413 L8,8.15429014 C8,8.15429014 7.78179413,8.61253865 7.69907519,8.75840305 C7.59527806,8.9414361 7.40377262,9.1156011 7.20396601,9.20868141 C6.65425547,9.46476505 5.84988456,9.37256094 5.46861357,9.00976004 C5.27443722,8.82499047 5.06467908,8.52746556 5,8.15429014 C4.99501288,8.06307785 5.06297094,6.9901584 5,5.29947107 L5,3 L3,3 L3,5.33379239 C3,8.08578068 3.00554407,8.31809284 3.07951633,8.66575687 C3.26220873,9.52439706 3.82515683,10.2077942 4.68699613,10.6171746 C5.31868613,10.9172326 6.1364518,11.0521628 6.89584559,10.9816317 C7.57244582,10.9187902 8.20455266,10.7139604 8.70650908,10.394899 Z"/>
  </g>
</svg>
