<svg width="35" height="16" viewBox="0 0 35 16">
  <g fill="none">
    <polygon fill="#FFF" points="33 5 27.1 5 26.9 4.6 26 2.8 26 2 26 1 25.1 1 24.9 .6 24.6 0 24 0 16 0 15 0 14.6 0 14.3 .3 13.6 1 9.6 5 4 5 3.4 5 3.1 5.6 1.1 9.6 .4 11 2 11 7.9 11 8.1 11.4 9 13.2 9 14 9 15 9.9 15 10.1 15.4 10.4 16 11 16 19 16 20 16 20.4 16 20.7 15.7 21.4 15 25.4 11 31 11 31.6 11 31.9 10.4 33.9 6.4 34.6 5" opacity=".6"/>
    <path fill="#1A237E" d="M19,13.7 L20.8,11.8 L20.1,11.2 L18.3,13 L10,13 L9,11 L17.5819702,11 L17.5907295,11.0092705 L19.4,9.2 L21,6 L33,6 L31,10 L25,10 L20,15 L11,15 L10.5,14 L18.7,14 L19,13.7 Z M16,2.3 L14.2,4.2 L14.9,4.8 L16.7,3 L25,3 L26,5 L17.4,5 L15.6,6.8 L14,10 L2,10 L4,6 L10,6 L15,1 L24,1 L24.5,2 L16.3,2 L16,2.3 Z"/>
  </g>
</svg>
