<svg viewBox="0 0 18 18" xmlns="http://www.w3.org/2000/svg">
 <g fill="none" fill-rule="evenodd">
  <path d="m9 0c-3.7 0-7 2.2-8.3 5.6-0.2 0.4-0.3 0.7-0.4 1.1s-0.2 0.8-0.2 1.2c-0.1 0.4-0.1 0.7-0.1 1.1 0 5 4 9 9 9 3.7 0 7-2.2 8.3-5.6 0.1-0.3 0.3-0.7 0.4-1.1 0.1-0.3 0.2-0.7 0.2-1.1 0.1-0.5 0.1-0.8 0.1-1.2 0-5-4-9-9-9z" fill="#FFF" fill-rule="nonzero" opacity=".6"/>
  <g transform="translate(1 1)">
   <path d="m12.3 10h-5.8l0.8-3h-0.3-6.9c0-0.3 0.1-0.7 0.2-1h6.7 0.7 2.7c0.2 0 0.4 0.2 0.4 0.5l-0.7 2.5h2.3 3.5c0 0.3-0.1 0.7-0.2 1h-3.4zm-0.3 0.82171v0.17829h3.4c-1.2 2.9-4.1 5-7.4 5-4.4 0-8-3.6-8-8h4.9455l-1.1455 4.5c-0.1 0.3 0.1 0.5 0.3 0.5h4.4c1.4964 0 2.8546-0.89846 3.5-2.1783zm0.52-2.8217 0.18-1.5c0.2-1.8-1.2-3.5-3.1-3.5h-1.2-1.6-0.8l-0.46667 2h-4.9333c1.2-2.9 4-5 7.4-5 4.4 0 8 3.6 8 8h-3.48z" fill="#1A237E" fill-rule="nonzero"/>
  </g>
 </g>
</svg>
