<svg viewBox="0 0 24 23" xmlns="http://www.w3.org/2000/svg">
 <g>
  <path d="m23 10.9-0.1-0.9-0.3-1.2c0-0.1-0.1-0.2-0.1-0.3v-0.1-0.1c0-0.1-0.1-0.2-0.1-0.3-0.1-0.2-0.2-0.5-0.3-0.7v-0.1c0-0.1 0-0.1-0.1-0.2-0.1-0.3-0.3-0.6-0.4-0.9 0-0.1-0.1-0.1-0.1-0.2v-0.1c-0.1-0.2-0.3-0.5-0.4-0.7-0.1 0-0.1-0.1-0.2-0.2l-0.1-0.1c-0.1-0.2-0.3-0.4-0.4-0.5l-0.3-0.3c-0.1-0.2-0.3-0.3-0.4-0.5l-1.1-1.1c-0.1 0-0.3-0.2-0.6-0.4h-0.1c-0.3-0.2-0.6-0.4-0.9-0.5-0.1 0-0.1-0.1-0.2-0.1h-0.1c-0.2-0.1-0.4-0.2-0.7-0.3-0.1 0-0.2-0.1-0.3-0.1h-0.1c-0.2-0.1-0.4-0.2-0.6-0.2-0.1 0-0.3-0.1-0.4-0.1-0.2-0.1-0.4-0.1-0.7-0.2-0.2 0-0.3-0.1-0.4-0.1-0.2 0-0.5-0.1-0.7-0.1h-0.1-0.2c-0.3-0.3-0.7-0.3-1-0.3-0.4 0-0.8 0-1.2 0.1h-0.3-0.1-0.1c-0.2 0-0.5 0.1-0.7 0.1-0.1 0-0.2 0-0.3 0.1h-0.1-0.1c-0.2 0-0.4 0.1-0.6 0.1 0 0.1-0.1 0.2-0.2 0.2h-0.1-0.1c-0.2 0.2-0.4 0.2-0.5 0.3-0.1 0-0.2 0.1-0.3 0.1l-0.1 0.1h-0.1c-0.2 0.1-0.4 0.2-0.5 0.3-0.1 0-0.2 0.1-0.3 0.1l-0.1 0.1h-0.1c-0.1 0.1-0.3 0.2-0.5 0.3 0 0.1-0.1 0.1-0.2 0.2l-0.1 0.1c-0.2 0.1-0.4 0.2-0.5 0.4-0.1 0-0.2 0.1-0.3 0.2h-0.1c-0.1 0.2-0.3 0.3-0.5 0.5 0 0.1-0.1 0.1-0.2 0.2v0.1c-0.2 0.2-0.4 0.3-0.5 0.5-0.1 0.1-0.1 0.2-0.2 0.2l-0.1 0.1c-0.1 0.2-0.2 0.4-0.4 0.6 0 0.1-0.1 0.2-0.1 0.2v0.1c-0.2 0.2-0.3 0.4-0.4 0.6-0.1 0.1-0.1 0.2-0.2 0.3v0.1l-0.3 0.6c-0.1 0.1-0.1 0.2-0.2 0.3-0.1 0.3-0.2 0.5-0.2 0.7 0 0.1-0.1 0.3-0.1 0.4-0.1 0.3-0.2 0.5-0.2 0.7 0 0.1-0.1 0.3-0.1 0.4 0 0.2-0.1 0.4-0.1 0.7v0.5 0.1 0.3 0.5c0 0.4 0 0.8 0.1 1.3v0.3 0.1c0 0.3 0.1 0.6 0.2 0.8v0.2l0.1 0.8h-0.1l0.7 1.4s0 0.1 0.1 0.1l0.3 0.6c0 0.1 0.1 0.1 0.1 0.2l0.1 0.1c0.1 0.3 0.3 0.6 0.5 0.8 0.1 0.1 0.2 0.3 0.3 0.4l0.3 0.3c0.1 0.2 0.3 0.3 0.4 0.5l0.3 0.3c0.2 0.2 0.4 0.4 0.7 0.6 0.1 0.1 0.2 0.1 0.2 0.2 0.2 0.1 0.3 0.3 0.5 0.4h0.1c0 0.1 0.1 0.1 0.2 0.2 0.3 0.2 0.5 0.3 0.8 0.5l0.1 0.1h0.1c0.2 0.1 0.5 0.2 0.7 0.3 0.1 0 0.2 0.1 0.3 0.1 0.2 0.1 0.5 0.2 0.7 0.3h0.1c0.1 0 0.1 0 0.2 0.1 0.3 0.1 0.6 0.2 1 0.2h0.2 0.1c0.3 0 0.5 0.1 0.8 0.1h0.3c0.4 0 0.7 0.1 1 0.1s0.7 0 1.1-0.1h0.2 0.1c0.2 0 0.5-0.1 0.7-0.1 0.1 0 0.2 0 0.3-0.1 0.3-0.1 0.5-0.1 0.7-0.2 0.1 0 0.3-0.1 0.4-0.1 0.2-0.1 0.4-0.1 0.6-0.2h0.1c0.1 0 0.2-0.1 0.3-0.1 0.2-0.1 0.5-0.2 0.7-0.3h0.1c0.1 0 0.1-0.1 0.2-0.1 0.3-0.2 0.6-0.4 0.9-0.5 0 0 0.1 0 0.1-0.1 0.3-0.2 0.5-0.4 0.7-0.5l1.1-1.1c0.2-0.2 0.3-0.3 0.4-0.5l0.3-0.3c0.1-0.2 0.3-0.4 0.4-0.5l0.3-0.3c0.1-0.2 0.3-0.4 0.4-0.7v-0.1c0-0.1 0.1-0.1 0.1-0.2 0.2-0.3 0.3-0.6 0.4-0.9 0-0.1 0.1-0.1 0.1-0.2v-0.1c0.1-0.2 0.2-0.5 0.3-0.7 0-0.1 0.1-0.2 0.1-0.3v-0.1-0.1c0-0.1 0.1-0.2 0.1-0.3v-0.2c0.1-0.3 0.1-0.6 0.2-0.8v-0.1-0.3c0.1-0.5 0.1-0.9 0.1-1.3-0.1-0.1-0.1-0.3-0.1-0.5z" fill="#FFF" opacity=".6"/>
  <path d="m4.9163 11 1.7837-1.9 2.3-2.4 2.2 2.4 2.3-2.4 2.3 2.4 1.7837 1.9h1.8163 2.6v0.5c0 0.9-0.1 1.7-0.3 2.5-1.1 4.6-5.3 8-10.2 8-4.2 0-7.8-2.5-9.5-6h3c1.5 2.1 3.8 3.4 6.5 3.4 3.5 0 6.5-2.3 7.5-5.4h-3.2l-2.2-2.3-0.1 0.1-2.3 2.4-2.2-2.4-0.2-0.1-2.1 2.3h-0.7-4.7c-0.2-0.8-0.3-1.6-0.3-2.5v-0.5c0.3-5.6 4.9-10 10.5-10 4.9 0 9.1 3.4 10.2 8h-2.7c-1.1-3.1-4-5.4-7.5-5.4-4.2 0-7.6 3.3-7.9 7.4h1.3163z" fill="#F50000"/>
 </g>
</svg>
