<svg viewBox="0 0 25 25" xmlns="http://www.w3.org/2000/svg">
 <g>
  <circle cx="12.6" cy="12.4" r="12" fill="#FFF" opacity=".6"/>
  <circle cx="12.6" cy="12.4" r="11" fill="#FF8F00"/>
  <circle cx="12.6" cy="12.3" r="8.6" fill="#212121"/>
  <circle cx="12.6" cy="12.4" r="5" fill="#FFF"/>
  <path d="m13.5 13.65c0.13056 0 0.25-0.11944 0.25-0.25 0-0.15308-0.071806-0.25753-0.188-0.284l-2.4777-0.72679c-0.81638-0.32655-1.3343-1.0328-1.3343-1.8892 0-1.0694 0.88056-1.95 1.95-1.95h2.9v1.7h-2.9c-0.13056 0-0.25 0.11944-0.25 0.25 0 0.13453 0.07263 0.23357 0.188 0.284l2.3287 0.68251c0.90438 0.18088 1.4833 1.0229 1.4833 1.9335 0 1.0694-0.88056 1.95-1.95 1.95h-3.75v-1.85h1.7v0.15h2.05z" fill="#FF8F00"/>
 </g>
</svg>
