<?xml version="1.0" encoding="UTF-8" standalone="no"?>
<svg width="25px" height="25px" viewBox="0 0 25 25" version="1.1" xmlns="http://www.w3.org/2000/svg" xmlns:xlink="http://www.w3.org/1999/xlink" xmlns:sketch="http://www.bohemiancoding.com/sketch/ns">
    <!-- Generator: Sketch 3.3.3 (12072) - http://www.bohemiancoding.com/sketch -->
    <title>subway-paris-l</title>
    <desc>Created with Sketch.</desc>
    <defs></defs>
    <g id="Subways" stroke="none" stroke-width="1" fill="none" fill-rule="evenodd" sketch:type="MSPage">
        <g id="subway-paris-l" sketch:type="MSLayerGroup">
            <circle id="Oval-373" fill="#14489E" sketch:type="MSShapeGroup" cx="12.5" cy="12.5" r="12.5"></circle>
            <circle id="Oval-373-Copy" fill="#FFFFFF" sketch:type="MSShapeGroup" cx="12.5" cy="12.5" r="11.5"></circle>
            <path d="M19,18.0711264 L19,7.26890274 C19,6.65013066 18.6420368,6 17.5634855,6 C16.7482197,6 16.4203275,6.34058907 16.0614451,7.02214054 L12.5329599,13.9862974 L12.5007879,13.9862974 L8.94006505,7.02214054 C8.58065738,6.34058907 8.25447227,6 7.43717108,6 C6.35947333,6 6,6.65013066 6,7.26890274 L6,18.0711264 C6,18.6609042 6.49059081,19 7.07776341,19 C7.60000101,19 8.18809281,18.6609042 8.18809281,18.0711264 L8.18809281,10.023854 L8.22124971,10.023854 L11.4548026,16.2763451 C11.6834867,16.7098278 11.9780907,16.9584566 12.5007879,16.9584566 C13.0225659,16.9584566 13.3171699,16.7098278 13.5462479,16.2763451 L16.7792755,10.023854 L16.8124981,10.023854 L16.8124981,18.0711264 C16.8124981,18.6609042 17.399605,19 17.9223679,19 C18.5113789,19 19,18.6609042 19,18.0711264 L19,18.0711264 Z" id="path3-copy" fill="#14489E" sketch:type="MSShapeGroup"></path>
        </g>
    </g>
</svg>