<svg width="34" height="23" viewBox="0 0 34 23">
  <g fill="none">
    <path fill="#FFF" d="M33,9.9 L30.6,7.5 C30.3,7.2 29.9,7.1 29.5,7.1 C29.2,7.1 28.9,7.2 28.7,7.4 C28.9,7.1 29,6.8 29,6.5 L29,4.5 C29,3.7 28.3,3 27.5,3 C27.1,3 26.8,3.1 26.5,3.4 L23.6,0.5 C23.2,0.1 22.9,0 22.5,0 C22.1,0 21.7,0.2 21.4,0.4 L17,4.8 L12.6,0.4 C12.3,0.1 11.9,0 11.5,0 C11.1,0 10.7,0.2 10.4,0.4 L7.5,3.4 C7.2,3.1 6.9,3 6.5,3 C5.7,3 5,3.7 5,4.5 L5,6.5 C5,6.7 5,6.9 5.1,7.1 C5.2,7.2 5.2,7.3 5.3,7.4 C5,7.2 4.7,7.1 4.4,7.1 C4,7.1 3.6,7.3 3.3,7.6 L0.9,10 C0.6,10.3 0.5,10.7 0.5,11.1 C0.5,11.5 0.7,11.9 0.9,12.2 L10.4,21.7 C10.7,22 11.1,22.1 11.5,22.1 C11.9,22.1 12.3,21.9 12.6,21.7 L15.5,18.8 C15.8,19 16.1,19.2 16.5,19.2 C17.3,19.2 18,18.5 18,17.7 L18,15.7 C18,15.5 18,15.3 17.9,15.1 C17.7,14.7 17.5,14.4 17.1,14.3 C16.9,14 16.8,14 16.7,14 C16.6,14 16.6,14 16.5,14 L14.5,14 C14.3,14 14.2,14 14,14.1 L14,13.7 C14,12.8 14.4,12 15,11.4 L17,9.5 L19,11.4 C19.6,12 20,12.8 20,13.7 L20,20 C20,21.1 20.9,22 22,22 C22.1,22 22.1,22 22.2,22 C22.3,22 22.4,22 22.5,22 C22.9,22 23.3,21.8 23.6,21.6 L33.1,12.1 C33.6,11.5 33.6,10.5 33,9.9 Z M6.5,7 C6.4,7 6.4,7 6.3,7 C6.4,7 6.4,7 6.5,7 Z" opacity=".6"/>
    <path fill="#C41F38" d="M32.3,10.6 L30,8.3 C29.8,8.1 29.5,8.1 29.3,8.3 C29,8.5 29,8.8 29.2,9 L31.2,11 L23,19.3 L23,13.7 C23,12 22.3,10.4 21.1,9.3 L18.7,7 C18.5,6.8 18.3,6.7 18.1,6.6 L22.4,2.3 L26.2,6 L25.5,6 C25.2,6 25,6.2 25,6.5 C25,6.8 25.2,7 25.5,7 L27.5,7 C27.8,7 28,6.8 28,6.5 L28,4.5 C28,4.2 27.8,4 27.5,4 C27.2,4 27,4.2 27,4.5 L27,5.3 L22.8,1.1 C22.6,0.9 22.3,0.9 22.1,1.1 L17,6.3 L11.9,1.2 C11.7,1 11.4,1 11.2,1.2 L7,5.3 L7,4.5 C7,4.2 6.8,4 6.5,4 C6.2,4 6,4.2 6,4.5 L6,6.5 C6,6.6 6,6.6 6,6.7 C6.1,6.8 6.2,6.9 6.3,7 C6.4,7 6.4,7 6.5,7 L8.5,7 C8.8,7 9,6.8 9,6.5 C9,6.2 8.8,6 8.5,6 L7.7,6 L11.5,2.2 L15.8,6.5 C15.6,6.6 15.4,6.7 15.3,6.9 L12.9,9.2 C11.7,10.4 11,12 11,13.7 L11,19 C11,19.1 11,19.2 11.1,19.3 L2.7,11 L4.7,9 C4.9,8.8 4.9,8.5 4.7,8.3 C4.5,8.1 4.2,8.1 4,8.3 L1.6,10.7 C1.4,10.9 1.4,11.2 1.6,11.4 L11.1,20.9 C11.2,21 11.3,21.1 11.5,21.1 C11.7,21.1 11.8,21 11.9,20.9 L16,16.8 L16,17.6 C16,17.9 16.2,18.1 16.5,18.1 C16.8,18.1 17,17.9 17,17.6 L17,15.6 C17,15.5 17,15.5 17,15.4 C16.9,15.3 16.8,15.2 16.7,15.1 L16.6,15.1 C16.6,15.1 16.6,15.1 16.5,15.1 L14.5,15.1 C14.2,15.1 14,15.3 14,15.6 C14,15.9 14.2,16.1 14.5,16.1 L15.3,16.1 L13,18.3 L13,13.7 C13,12.6 13.5,11.5 14.3,10.7 L16.7,8.4 L16.8,8.3 C16.9,8.1 17.1,8.1 17.2,8.3 L17.3,8.4 L19.7,10.7 C20.5,11.5 21,12.6 21,13.7 L21,20 C21,20.6 21.4,21 22,21 C22.1,21 22.2,21 22.3,20.9 C22.4,20.9 22.5,21 22.5,21 C22.6,21 22.8,20.9 22.9,20.8 L32.4,11.3 C32.5,11.2 32.5,10.8 32.3,10.6 Z"/>
  </g>
</svg>
