<svg viewBox="0 0 29 19" xmlns="http://www.w3.org/2000/svg">
 <g>
  <path d="m8 0v4 0.2c-0.7 0.1-1.4 0.3-2 0.7v-4.9h-6v19h6v-0.9c1.1 0.6 2.3 0.9 3.5 0.9 1.9 0 3.6-0.7 5-1.9 1.4 1.2 3.1 1.9 5 1.9 1.2 0 2.4-0.3 3.5-0.9v0.9h6v-19h-21zm4.1 12.4c-0.4 1.1-1.4 1.8-2.6 1.8-1.5 0-2.7-1.2-2.7-2.7s1.2-2.7 2.7-2.7c1.2 0 2.2 0.8 2.6 1.8 0 0.3-0.1 0.6-0.1 0.9s0 0.6 0.1 0.9zm7.4 1.8c-1.2 0-2.2-0.8-2.6-1.8 0-0.3 0.1-0.6 0.1-0.9s0-0.6-0.1-0.9c0.4-1.1 1.4-1.8 2.6-1.8 1.5 0 2.7 1.2 2.7 2.7s-1.2 2.7-2.7 2.7z" fill="#FFF" opacity=".6"/>
  <path d="m24 5v1.8c-1.2-1.1-2.8-1.8-4.5-1.8-3.6 0-6.5 2.9-6.5 6.5s2.9 6.5 6.5 6.5c1.7 0 3.3-0.7 4.5-1.8v1.8h4v-13h-4zm-4.5 10.2c-2 0-3.7-1.7-3.7-3.7s1.7-3.7 3.7-3.7 3.7 1.7 3.7 3.7-1.7 3.7-3.7 3.7z" fill="#1E88E5"/>
  <path d="m9.5 5c-1.7 0-3.3 0.7-4.5 1.8v-5.8h-4v17h4v-1.8c1.2 1.1 2.8 1.8 4.5 1.8 3.6 0 6.5-2.9 6.5-6.5s-2.9-6.5-6.5-6.5zm0 10.2c-2 0-3.7-1.7-3.7-3.7s1.7-3.7 3.7-3.7 3.7 1.7 3.7 3.7-1.7 3.7-3.7 3.7zm-0.5-14.2h19v3h-19v-3z"/>
 </g>
</svg>
