<svg width="18" height="18" viewBox="0 0 18 18">
  <g fill="none">
    <g fill="#FFF">
      <circle cx="9" cy="9" r="9" opacity=".6"/>
      <circle cx="9" cy="9" r="8"/>
    </g>
    <path fill="#0D47A1" d="M3.83246753,3.15584416 L5.2,0 L6.2,0 L8.00627803,4.27802691 L4.3,3 L3.83246753,3.15584416 Z M8.1730897,4.33554817 L10.1,0 L11,0 L13.1959459,5.06756757 L15.9,6 L13.6,6 L14.9,9 L12,9 L10.1,4.5 L9.99679715,4.96441281 L8.1730897,4.33554817 Z M9.98888889,5 L9.1,9 L7.2,9 L6.2373444,4.66804979 L7.2,5 L9.98888889,5 Z M6.14280936,4.63545151 L4.3,9 L1.3,9 L3.068,4.92 L0.4,4 L3.4,4 L3.46666667,4 L4.3,4 L6.14280936,4.63545151 Z" transform="translate(1 4)"/>
  </g>
</svg>
