<svg width="19" height="19" viewBox="0 0 19 19">
  <g fill="none">
    <rect width="19" height="19" fill="#FFF" opacity=".6"/>
    <rect width="17" height="17" x="1" y="1" fill="#FFF"/>
    <path fill="#FFA300" d="M15.5,17 C14.7,17 14,16.3 14,15.5 C14,14.7 14.7,14 15.5,14 C16.3,14 17,14.7 17,15.5 C17,16.3 16.3,17 15.5,17 Z M11.5,17 C10.7,17 10,16.3 10,15.5 C10,14.7 10.7,14 11.5,14 C12.3,14 13,14.7 13,15.5 C13,16.3 12.3,17 11.5,17 Z M7.5,17 C6.7,17 6,16.3 6,15.5 C6,14.7 6.7,14 7.5,14 C8.3,14 9,14.7 9,15.5 C9,16.3 8.3,17 7.5,17 Z M3.5,17 C2.7,17 2,16.3 2,15.5 C2,14.7 2.7,14 3.5,14 C4.3,14 5,14.7 5,15.5 C5,16.3 4.3,17 3.5,17 Z M15.5,13 C14.7,13 14,12.3 14,11.5 C14,10.7 14.7,10 15.5,10 C16.3,10 17,10.7 17,11.5 C17,12.3 16.3,13 15.5,13 Z M11.5,13 C10.7,13 10,12.3 10,11.5 C10,10.7 10.7,10 11.5,10 C12.3,10 13,10.7 13,11.5 C13,12.3 12.3,13 11.5,13 Z M7.5,13 C6.7,13 6,12.3 6,11.5 C6,10.7 6.7,10 7.5,10 C8.3,10 9,10.7 9,11.5 C9,12.3 8.3,13 7.5,13 Z M3.5,13 C2.7,13 2,12.3 2,11.5 C2,10.7 2.7,10 3.5,10 C4.3,10 5,10.7 5,11.5 C5,12.3 4.3,13 3.5,13 Z M15.5,9 C14.7,9 14,8.3 14,7.5 C14,6.7 14.7,6 15.5,6 C16.3,6 17,6.7 17,7.5 C17,8.3 16.3,9 15.5,9 Z M11.5,9 C10.7,9 10,8.3 10,7.5 C10,6.7 10.7,6 11.5,6 C12.3,6 13,6.7 13,7.5 C13,8.3 12.3,9 11.5,9 Z M7.5,9 C6.7,9 6,8.3 6,7.5 C6,6.7 6.7,6 7.5,6 C8.3,6 9,6.7 9,7.5 C9,8.3 8.3,9 7.5,9 Z M3.5,9 C2.7,9 2,8.3 2,7.5 C2,6.7 2.7,6 3.5,6 C4.3,6 5,6.7 5,7.5 C5,8.3 4.3,9 3.5,9 Z M15.5,5 C14.7,5 14,4.3 14,3.5 C14,2.7 14.7,2 15.5,2 C16.3,2 17,2.7 17,3.5 C17,4.3 16.3,5 15.5,5 Z M11.5,5 C10.7,5 10,4.3 10,3.5 C10,2.7 10.7,2 11.5,2 C12.3,2 13,2.7 13,3.5 C13,4.3 12.3,5 11.5,5 Z M7.5,5 C6.7,5 6,4.3 6,3.5 C6,2.7 6.7,2 7.5,2 C8.3,2 9,2.7 9,3.5 C9,4.3 8.3,5 7.5,5 Z M3.5,5 C2.7,5 2,4.3 2,3.5 C2,2.7 2.7,2 3.5,2 C4.3,2 5,2.7 5,3.5 C5,4.3 4.3,5 3.5,5 Z"/>
  </g>
</svg>
