<svg width="28" height="28" viewBox="0 0 28 28">
  <g fill="none" fill-rule="evenodd">
    <path fill="#FFF" fill-rule="nonzero" d="M14,0 C7.9,0 2.5,3.9 0.7,9.7 C0.6,10 0.5,10.4 0.4,10.8 C0.3,11.2 0.3,11.5 0.2,11.9 C0.2,12.2 0.1,12.6 0.1,13 C0,13.3 0,13.7 0,14 C0,21.7 6.3,28 14,28 C20.1,28 25.5,24.1 27.3,18.3 C27.4,18 27.5,17.6 27.6,17.2 C27.7,16.8 27.7,16.5 27.8,16.1 C27.9,15.7 27.9,15.3 27.9,15 C27.9,14.7 27.9,14.4 27.9,13.9 C28,6.3 21.7,0 14,0 Z" opacity=".6"/>
    <g transform="translate(1 1)">
      <path fill="#1A237E" fill-rule="nonzero" d="M25.9,15 C25.8,15.3 25.8,15.7 25.7,16 C25.6,16.3 25.5,16.7 25.4,17 C23.7,22.2 18.8,26 13,26 C5.8,26 0,20.2 0,13 C0,12.7 0,12.3 0,12 L7.25,12 L5.2,20.2 C5.1,20.6 5.4,21 5.8,21 L13.3,21 C16.3,21 18.9,18.9 19.6,16 L11.5,16 L12.8,11 L11.5,11 L10,11 L0.1,11 C0.2,10.7 0.2,10.3 0.3,10 C0.4,9.7 0.5,9.3 0.6,9 C2.3,3.8 7.2,0 13,0 C20.2,0 26,5.8 26,13 C26,13.3 26,13.7 26,14 L19.825,14 L20.2,11 C20.7,7.8 18.2,5 15,5 L13,5 L10.2,5 L9,5 L7.96,9 L0.7,9 C0.6,9.3 0.5,9.7 0.4,10 L10,10 L11.7,10 L16.1,10 C16.5,10 16.8,10.4 16.7,10.8 L15.7,15 L18,15 L25.9,15 Z"/>
      <path fill="#FFF" fill-rule="nonzero" d="M25.7,16 C25.6,16.3 25.5,16.7 25.4,17 L18,17 L18,16 L25.7,16 Z"/>
    </g>
  </g>
</svg>
