<svg viewBox="0 0 23 14" xmlns="http://www.w3.org/2000/svg">
 <g fill="none">
  <path d="m21.2 0h-5.2c-0.3 0-0.5 0.1-0.7 0.3l-0.7 0.7c-1.1-0.7-2.3-1-3.6-1-1.2 0-2.4 0.3-3.5 1l-0.7-0.7c-0.2-0.2-0.4-0.3-0.7-0.3h-5.1c-0.4 0-0.8 0.2-0.9 0.6-0.1 0.4-0.1 0.8 0.2 1.1l2 2c0.2 0.2 0.4 0.3 0.7 0.3 0 0.3 0.1 0.5 0.3 0.7l0.9 0.9c-0.1 0.4-0.2 0.9-0.2 1.4 0 3.9 3.1 7 7 7s7-3.1 7-7c0-0.4 0-0.9-0.1-1.3l1-1c0.2-0.2 0.3-0.4 0.3-0.7 0.3 0 0.5-0.1 0.7-0.3l2-2c0.1-0.1 0.3-0.4 0.3-0.7 0-0.6-0.5-1-1-1z" fill="#FFF" opacity=".6"/>
  <g transform="translate(5 1)">
   <circle cx="6" cy="6" r="6" fill="#FFF"/>
   <path d="m10.7 9.1c-1 1.5-2.7 2.5-4.7 2.5-1.9 0-3.6-0.9-4.6-2.4-0.4-0.5-0.7-1.2-0.8-1.8-0.1-0.5-0.2-0.9-0.2-1.4 0-3.1 2.5-5.6 5.6-5.6s5.6 2.5 5.6 5.6c0 0.4 0 0.8-0.1 1.2-0.2 0.7-0.5 1.3-0.8 1.9z" fill="#BDBDBD"/>
  </g>
  <circle cx="11" cy="7" r="4" fill="#0D47A1"/>
  <path d="m8.9365 8.0635-0.73651-0.86349-0.5 0.5-3.7-3.7h1v-1h-2l-2-2h5.1l4.95 4.95 4.95-4.95h5.2l-2 2h-2v1h1l-3.6 3.5-3.5 3.1-2.6-2.1 0.43651-0.43651z" fill="#616161"/>
  <polygon points="16.2 6 14.2 8 13.9 8.2 13.6 8.5 11.1 10.6 8.5 8.5 8.2 8.2 8 8 6 6" fill="#E0111C"/>
  <path d="m16.5 8.2c-0.1 0.7-0.4 1.3-0.8 1.9l-3.3-3.1-1.3 1.2-1.3-1.3-3.4 3.3c-0.4-0.5-0.7-1.2-0.8-1.8l4.2-4 1.3 1.2 1.3-1.2 4.1 3.8z" fill="#FFE103"/>
 </g>
</svg>
