<svg viewBox="0 0 18 18" xmlns="http://www.w3.org/2000/svg">
 <g transform="translate(-1)">
  <path d="m10 0c-3.9 0-7 3.1-7 7 0 0.6 0.1 1.1 0.2 1.7l-2 5.2c-0.4 0.9-0.2 2 0.3 2.8 0.6 0.8 1.5 1.3 2.5 1.3h3.6c0.4 0 0.8-0.1 1.2-0.3 0.4 0.2 0.8 0.3 1.2 0.3s0.8-0.1 1.2-0.3c0.4 0.2 0.8 0.3 1.2 0.3h3.6c1 0 1.9-0.5 2.5-1.3s0.7-1.9 0.3-2.8l-2-5.2c0.1-0.6 0.2-1.1 0.2-1.7 0-3.9-3.1-7-7-7z" fill="#FFF" opacity=".6"/>
  <path d="m4.2484 8.7141c-0.16163-0.54313-0.24842-1.1185-0.24842-1.7141 0-3.3137 2.6863-6 6-6s6 2.6863 6 6c0 0.59563-0.086791 1.171-0.24842 1.7141l2.1484 5.5859c0.2 0.6 0 1.2-0.3 1.8s-0.9 0.9-1.6 0.9h-3.6c-0.4 0-0.9-0.1-1.2-0.4-0.3 0.3-0.8 0.4-1.2 0.4s-0.9-0.1-1.2-0.4c-0.3 0.3-0.8 0.4-1.2 0.4h-3.6c-0.7 0-1.3-0.2-1.7-0.8s-0.4-1.3-0.2-1.9l2.1484-5.5859z" fill="#448AFF"/>
  <path d="m13 6.6c-0.2 0-0.5 0.1-0.6 0.3l-2.4 3.1-2.4-3c-0.1-0.3-0.4-0.4-0.6-0.4h-0.1c-0.3 0-0.5 0.2-0.6 0.5l-3 7.8c-0.1 0.2-0.1 0.5 0.1 0.7 0.1 0.3 0.3 0.4 0.6 0.4h3.6c0.4 0 0.7-0.2 0.8-0.6l0.3-1 0.7 1.2c0 0.2 0.3 0.4 0.6 0.4s0.6-0.2 0.7-0.4l0.7-1.2 0.3 1c0.1 0.4 0.4 0.6 0.8 0.6h3.5c0.3 0 0.5-0.1 0.7-0.3 0.1-0.2 0.2-0.5 0.1-0.7l-3-7.8c-0.1-0.3-0.3-0.5-0.6-0.5-0.1-0.1-0.2-0.1-0.2-0.1z" fill="#FFF"/>
  <polygon points="16 15 13 7.2 10 11.1 7 7.2 4 15 7.6 15 8.4 12.1 10 15 11.6 12.1 12.4 15" fill="#D50000"/>
  <path d="m11 5 1 1v1h-1v-1h-1v1h-1v-1h-1v-1-1h-1v-1h1 1v1 1h1 1zm-2-3h1v1h-1v-1z" fill="#FFF"/>
 </g>
</svg>
