<svg width="17" height="17" viewBox="0 0 17 17">
  <g fill="none">
    <circle cx="8.5" cy="8.5" r="8.5" fill="#FFF" opacity=".6"/>
    <circle cx="8.5" cy="8.5" r="7.5" fill="#37627D"/>
    <path fill="#FFF" d="M9.90297335,4 L8.50549991,8.706565 L7.1865966,4 C7.1865966,4 5.72569648,4.25950031 4.76769327,5.13240207 C3.74686128,6.06031215 2.86739106,7.4836905 3.01658408,9.74061478 C3.13437878,11.5257047 4.6222691,13.0434467 4.6222691,13.0434467 L7.28067985,13.0355724 C7.28067985,13.0355724 5.28982287,11.8717266 4.76370462,10.0394387 C4.13549647,7.87687807 4.7557289,7.20442326 5.50957316,6.4888156 C5.81582766,6.221436 6.26341235,6.15851621 6.42830453,6.732594 C6.99368899,8.56488182 8.49763202,12.9805269 8.49763202,12.9805269 C8.50549991,12.9805534 9.97593993,8.59505327 10.5491557,6.76276545 C10.7219163,6.18868767 11.1695061,6.25161253 11.4678921,6.51898705 C12.2217364,7.23459979 12.9776349,7.87687807 12.3494217,10.0394653 C11.8233091,11.8717531 9.83245208,13.035599 9.83245208,13.035599 L12.3808628,13.0434783 C12.3808628,13.0434783 13.876616,11.5178886 13.9865479,9.7406413 C14.1200417,7.4836905 13.2405399,6.06031215 12.2118716,5.13240207 C11.2538735,4.267348 9.90297335,4 9.90297335,4 Z"/>
  </g>
</svg>
