<svg width="24" height="26" viewBox="0 0 24 26">
  <g fill="none">
    <path fill="#FFF" d="M19.8,0 L4.2,0 C1.9,0 0,1.9 0,4.2 L0,19.8 C0,22.1 1.9,24 4.2,24 L8.5,24 C9.2,25.2 10.5,26 12,26 C13.5,26 14.7,25.2 15.5,24 L19.8,24 C22.1,24 24,22.1 24,19.8 L24,4.2 C24,1.9 22.1,0 19.8,0 Z" opacity=".6"/>
    <path fill="#1E88E5" d="M19.8,23 L4.2,23 C2.4,23 1,21.6 1,19.8 L1,4.2 C1,2.4 2.4,1 4.2,1 L19.8,1 C21.6,1 23,2.4 23,4.2 L23,19.8 C23,21.6 21.6,23 19.8,23 Z"/>
    <path fill="#FFF" d="M11,9 C11,8.2 10.3,7.5 9.5,7.5 C8.7,7.5 8,8.2 8,9 L8,16 L5,16 L5,9 C5,6.5 7,4.5 9.5,4.5 C10.6564961,4.5 11.7059935,4.9279946 12.5,5.63549158 C13.2940065,4.9279946 14.3435039,4.5 15.5,4.5 C18,4.5 20,6.5 20,9 L20,16 L17,16 L17,9 C17,8.2 16.3,7.5 15.5,7.5 C14.7,7.5 14,8.2 14,9 L14,16 L11,16 L11,9 Z"/>
    <circle cx="12" cy="22" r="3" fill="#FF8F00"/>
  </g>
</svg>
