<svg width="20" height="20" viewBox="0 0 20 20">
  <g fill="none">
    <g fill="#FFF">
      <path d="M10.2,0 C4.9,0 0.6,4.3 0.6,9.6 C0.6,14.9 4.9,19.2 10.2,19.2 C15.5,19.2 19.8,14.9 19.8,9.6 C19.8,4.3 15.5,0 10.2,0 Z" opacity=".6"/>
      <circle cx="10.2" cy="9.6" r="8.6"/>
    </g>
    <g transform="translate(4 4)">
      <path fill="#1E5DE5" d="M0,10.2 L0.4,9 C0.4,9 4.3,8.2 4.3,7 L5.1,6.2 C5.1,6.3 7.5,9 0,10.2 Z M4.7,5.9 L3.9,6.7 L2.7,5.9 L4.7,5.9 Z"/>
      <path fill="#F5007F" d="M2.7,5.6 C2.7,5.6 2.7,3.6 6.2,2.9 L5.5,4.5 L2.7,5.6 Z"/>
      <polygon fill="#2E7D32" points="6.9 2.8 6.9 4 12 1.8 12 .7"/>
      <polygon fill="#F4511E" points="7 7.2 8.2 6.8 9 3.3 7.8 4.1"/>
    </g>
  </g>
</svg>
