<svg width="28" height="28" viewBox="0 0 28 28">
  <g fill="none">
    <path fill="#FFF" d="M26.2,17.2 L17.3,26.1 C15.5,27.9 12.6,27.9 10.9,26.1 L2,17.2 C0.2,15.4 0.2,12.5 2,10.8 L10.9,1.9 C12.7,0.1 15.6,0.1 17.3,1.9 L26.2,10.8 C27.9,12.6 27.9,15.4 26.2,17.2 Z" opacity=".6"/>
    <g transform="translate(2 2)">
      <path fill="#FFF" d="M12,23.5 C11.1,23.5 10.2,23.1 9.5,22.5 L1.6,14.6 C0.2,13.2 0.2,11 1.6,9.6 L9.5,1.7 C10.2,1 11.1,0.7 12,0.7 C12.9,0.7 13.8,1.1 14.5,1.7 L22.4,9.6 C23.1,10.3 23.4,11.2 23.4,12.1 C23.4,13 23,13.9 22.4,14.6 L14.5,22.5 C13.8,23.1 12.9,23.5 12,23.5 Z"/>
      <path fill="#055880" d="M12,1 C12.8,1 13.6,1.3 14.2,1.9 L22.1,9.8 C23.3,11 23.3,12.9 22.1,14.1 L14.2,22 C13.6,22.7 12.8,23 12,23 C11.2,23 10.4,22.7 9.8,22.1 L1.9,14.2 C0.7,13 0.7,11.1 1.9,9.9 L9.8,2 C10.4,1.3 11.2,1 12,1 Z M12,0 C11,0 9.9,0.4 9.1,1.2 L1.2,9.1 C-0.4,10.7 -0.4,13.2 1.2,14.8 L9.1,22.7 C9.9,23.6 11,24 12,24 C13,24 14.1,23.6 14.9,22.8 L22.8,14.9 C24.4,13.3 24.4,10.8 22.8,9.2 L14.9,1.3 C14.1,0.4 13,0 12,0 Z"/>
    </g>
    <rect width="1" height="2" x="11" y="11" fill="#055880"/>
    <rect width="1" height="2" x="15" y="12" fill="#055880"/>
    <rect width="1" height="2" x="16" y="11" fill="#055880"/>
    <rect width="4" height="1" x="18" y="14" fill="#055880"/>
    <rect width="10" height="2" x="10" y="17" fill="#055880"/>
    <rect width="1" height="1" x="16" y="16" fill="#055880"/>
    <rect width="1" height="2" x="8" y="17" fill="#055880"/>
    <rect width="1" height="1" x="14" y="10" fill="#055880"/>
    <rect width="1" height="1" x="21" y="13" fill="#055880"/>
    <polygon fill="#055880" points="14 13 14 15 15 15 15 14 16 14 16 13"/>
    <polygon fill="#055880" points="10 12 10 14 11 14 11 13 12 13 12 12"/>
    <polygon fill="#055880" points="9 13 9 15 10 15 10 14 11 14 11 13"/>
    <polygon fill="#055880" points="5 13 5 14 4 14 4 15 6 15 6 13"/>
    <polygon fill="#055880" points="6 12 6 13 5 13 5 14 7 14 7 12"/>
    <polygon fill="#055880" points="7 11 7 12 6 12 6 13 8 13 8 11"/>
    <polygon fill="#055880" points="8 10 8 11 7 11 7 12 9 12 9 10"/>
    <polygon fill="#055880" points="14 9 14 10 13 10 13 11 15 11 15 9"/>
    <rect width="1" height="1" x="12" y="10" fill="#055880"/>
    <rect width="1" height="1" x="13" y="9" fill="#055880"/>
    <rect width="1" height="1" x="15" y="10" fill="#055880"/>
    <polygon fill="#055880" points="9 9 9 10 8 10 8 11 10 11 10 9"/>
    <rect width="3" height="1" x="18" y="13" fill="#055880"/>
    <rect width="1" height="1" x="4" y="13" fill="#055880"/>
    <rect width="1" height="1" x="5" y="12" fill="#055880"/>
    <rect width="1" height="1" x="6" y="11" fill="#055880"/>
    <rect width="1" height="1" x="7" y="10" fill="#055880"/>
    <rect width="1" height="1" x="8" y="9" fill="#055880"/>
    <rect width="1" height="1" x="10" y="14" fill="#055880"/>
    <rect width="1" height="1" x="11" y="13" fill="#055880"/>
    <rect width="1" height="1" x="12" y="12" fill="#055880"/>
    <rect width="2" height="1" x="12" y="11" fill="#055880"/>
    <rect width="1" height="1" x="17" y="11" fill="#055880"/>
    <rect width="1" height="1" x="15" y="14" fill="#055880"/>
    <rect width="1" height="1" x="16" y="13" fill="#055880"/>
    <rect width="1" height="1" x="17" y="12" fill="#055880"/>
    <rect width="1" height="1" x="10" y="10" fill="#055880"/>
    <rect width="1" height="1" x="10" y="11" fill="#055880"/>
    <rect width="1" height="1" x="15" y="11" fill="#055880"/>
    <rect width="1" height="1" x="15" y="10" fill="#055880"/>
    <rect width="2" height="1" x="17" y="10" fill="#055880"/>
    <rect width="1" height="1" x="19" y="9" fill="#055880"/>
    <rect width="1" height="1" x="18" y="9" fill="#055880"/>
    <rect width="1" height="1" x="19" y="10" fill="#055880"/>
    <rect width="1" height="1" x="20" y="11" fill="#055880"/>
    <rect width="1" height="1" x="22" y="12" fill="#055880"/>
    <rect width="1" height="1" x="21" y="11" fill="#055880"/>
    <rect width="1" height="1" x="21" y="12" fill="#055880"/>
    <rect width="1" height="2" x="22" y="13" fill="#055880"/>
    <g fill="#055880" transform="translate(18 10)">
      <rect width="1" height="1" x="2"/>
      <rect width="1" height="1" y="1"/>
    </g>
  </g>
</svg>
