<svg width="21" height="21" viewBox="0 0 21 21">
  <g fill="none">
    <path fill="#FFF" d="M10.5,0 C4.7,0 0,4.7 0,10.5 C0,16.3 4.7,21 10.5,21 C16.3,21 21,16.3 21,10.5 C21,4.7 16.3,0 10.5,0 Z" opacity=".6"/>
    <path fill="#616161" d="M10,18 L10.0100098,20 C9.31000977,20 8.6,19.9 8,19.7 C4,18.6 1,14.9 1,10.5 C1,5.3 5.3,1 10.5,1 C15.7,1 20,5.3 20,10.4 C20,14.8 17,18.5 13,19.6 L13,19.7 C12.4,19.9 11.7,20 11,20 L11,12 L11,10 L16,10 L16,12 L13,12 L13,17.5 C15.9,16.5 18,13.8 18,10.5 C18,6.4 14.6,3 10.5,3 C6.4,3 3,6.4 3,10.6 C3,13.8 5.1,16.6 8,17.6 L8,12 L5,12 L5,10 L10,10 L10,12 L10,18 Z M5,7 L16,7 L16,9 L5,9 L5,7 Z"/>
  </g>
</svg>
