<svg width="33" height="24" viewBox="0 0 33 24">
  <g fill="none">
    <path fill="#FFF" d="M21,0 C16.2,0 12,2.9 10.1,7 L1,7 C0.6,7 0.2,7.2 0.1,7.6 C-1.42247325e-15,8 -1.42247325e-15,8.4 0.3,8.7 C2.4,10.8 5.2,12 8.2,12 L6,12 C5.6,12 5.2,12.2 5.1,12.6 C5,13 5,13.4 5.3,13.7 C6.6,15 8.2,16 9.9,16.5 C11.7,20.9 16,24 21,24 C27.6,24 33,18.6 33,12 C33,5.4 27.6,0 21,0 Z" opacity=".6"/>
    <path fill="#212121" d="M21,1 C16.7,1 13,3.4 11.2,7 L13.5,7 C15.1,4.6 17.9,3 21,3 C26,3 30,7 30,12 C30,17 26,21 21,21 C17.9,21 15.1,19.4 13.5,17 L11.2,17 C13,20.6 16.7,23 21,23 C27.1,23 32,18.1 32,12 C32,5.9 27.1,1 21,1 Z"/>
    <path fill="#CE000C" d="M6,13 L16,13 C17.7,13 19,14.3 19,16 L17,18 L16,16 L13.2,16 C10.5,16 7.9,14.9 6,13 Z M1,8 L19,8 C20.7,8 22,9.3 22,11 L20,13 L19,11 L8.2,11 C5.5,11 2.9,9.9 1,8 Z"/>
  </g>
</svg>
