<svg width="23" height="18" viewBox="0 0 23 18">
  <g fill="none">
    <ellipse cx="11.5" cy="9" fill="#FFF" opacity=".6" rx="11.5" ry="9"/>
    <path fill="#FFF" d="M11.5,16.6 C5.9,16.6 1.4,13.2 1.4,9 C1.4,4.8 5.9,1.4 11.5,1.4 C17.1,1.4 21.6,4.8 21.6,9 C21.6,13.2 17.1,16.6 11.5,16.6 Z"/>
    <path fill="#D50000" d="M11.5,1.8 C16.8,1.8 21.2,5 21.2,9 C21.2,13 16.9,16.2 11.5,16.2 C6.1,16.2 1.8,13 1.8,9 C1.8,5 6.2,1.8 11.5,1.8 Z M11.5,1 C5.7,1 1,4.6 1,9 C1,13.4 5.7,17 11.5,17 C17.3,17 22,13.4 22,9 C22,4.6 17.3,1 11.5,1 Z"/>
    <path fill="#D50000" d="M16.5,4 L19,9 L16.5,14 L14,9 L16.5,4 Z M6.5,4 L9,9 L6.5,14 L4,9 L6.5,4 Z M11.5,4 L14,9 L11.5,14 L9,9 L11.5,4 Z"/>
  </g>
</svg>
