<svg width="24" height="24" viewBox="0 0 24 24">
  <g fill="none">
    <path fill="#FFF" d="M12,0 C5.4,0 0,5.4 0,12 C0,18.6 5.4,24 12,24 C18.6,24 24,18.6 24,12 C24,5.4 18.6,0 12,0 Z" opacity=".6"/>
    <circle cx="12" cy="12" r="9" fill="#FFF"/>
    <path fill="#0D47A1" d="M16.3537754,13 L20.5,13 L23,13 C22.9,13.7 22.8,14.3 22.6,15 C21.3,19.6 17,23 12,23 C5.9,23 1,18.1 1,12 C1,5.9 5.9,1 12,1 C17.7,1 22.5,5.4 23,11 L20.4,11 C19.9,6.8 16.3,3.5 12,3.5 C7.3,3.5 3.5,7.3 3.5,12 C3.5,16.7 7.3,20.5 12,20.5 C15.6,20.5 18.7,18.2 19.9,15 L16,15 L16,14.9739786 C15.830738,15.6229517 15.601803,16.299817 15.3,17 L7,17 L7,7 L15.3,7 C15.3,7 16.7086728,9.3665703 16.3537754,13 Z M11,14 C12.1,14 13,13.1 13,12 C13,10.9 12.1,10 11,10 L10,10 L10,14 L11,14 Z"/>
  </g>
</svg>
