<svg width="26" height="10" viewBox="0 0 26 10">
  <g fill="none">
    <path fill="#FFF" d="M23.5,0 L19.4,0 L18.5,0 L18,0 L17.3,0 L13.1,0 L13,0 L12.6,0 L11,0 L5.8,0 L5.3,0 L5,0.4 L0.6,6.5 C0.2,7 0.1,7.7 0.2,8.4 C0.5,9.4 1.3,10 2.3,10 L8,10 L9,10 L10.8,10 L12,10 L12.8,10 L13,10 L16.5,10 L17,10 L17.3,9.6 L19.4,7 L20.5,7 L21,7 L21.3,6.5 L24.4,1.5 L25.3,0 L23.5,0 Z" opacity=".6"/>
    <path fill="#2E7D32" d="M18.6,1 L23.5,1 L20.4,6 L18.9,6 L16.5,9 L12.8,9 L18.6,1 Z M5.8,1 L11,1 L8.5,4 L6.7,4 L6.2,5 L8,5 L8,9 L2.4,9 C1.8,9 1.4,8.6 1.2,8.1 C1.1,7.8 1.2,7.4 1.4,7.1 L5.8,1 Z M8,3 L8.7,2 L6,2 L2.5,7 L6,7 L6,6 L4.7,6 L6.4,3 L8,3 Z M13.2,1 L17.4,1 L14.3,5 L12,5 L12,9 L9,9 L9,5 L10.1,5 L13.2,1 Z"/>
  </g>
</svg>
