<svg viewBox="0 0 17 11" xmlns="http://www.w3.org/2000/svg">
 <g>
  <path d="m15.9 0.9c-0.2-0.6-0.8-0.9-1.4-0.9h-4.7c-0.8 0-1.6 0.4-2 1.1l-1.6 2.3-0.4 0.6h-0.9c-0.8 0-1.5 0.4-1.9 1.1l-2.3 3.4c-0.3 0.5-0.4 1.1-0.1 1.6 0.3 0.6 0.8 0.9 1.4 0.9h4.8c0.8 0 1.5-0.4 2-1.1l1.6-2.4 0.3-0.5h0.9c0.8 0 1.6-0.4 2-1.1l2.3-3.4c0.3-0.5 0.3-1.1 0-1.6z" fill="#FFF" opacity=".6"/>
  <path d="m9.5 7-1.5 2.4c-0.3 0.4-0.7 0.6-1.2 0.6h-4.8c-0.5 0-0.8-0.6-0.5-1l2.3-3.4c0.2-0.4 0.7-0.6 1.1-0.6h1.4l0.7-1 1.6-2.4c0.3-0.4 0.7-0.6 1.2-0.6h4.8c0.4 0 0.7 0.6 0.4 1l-2.3 3.4c-0.2 0.4-0.6 0.6-1.1 0.6h-1.4-5.2c-0.3 0-0.5 0.2-0.5 0.4-0.1 0.3 0.1 0.5 0.3 0.6 0.4 0.1 1.4 0.5 1.9 1.2 0.1 0.1 0.3 0.2 0.4 0.2s0.2-0.1 0.3-0.1c0.2-0.2 0.3-0.5 0.1-0.7l-0.6-0.6h2.6zm2.6-2.4c0-0.3-0.1-0.5-0.4-0.6-0.3-0.2-1.3-0.6-1.8-1.2-0.2-0.2-0.5-0.2-0.7 0s-0.2 0.5 0 0.7c0.1 0.2 0.3 0.4 0.4 0.5h-2.6l-0.6 1h5.2c0.2 0 0.4-0.2 0.5-0.4z" fill="#C41F38"/>
 </g>
</svg>
