<svg width="24" height="24" viewBox="0 0 24 24">
  <g fill="none">
    <path fill="#FFF" d="M12,0 C5.4,0 0,5.4 0,12 C0,18.6 5.4,24 12,24 C18.6,24 24,18.6 24,12 C24,5.4 18.6,0 12,0 Z" opacity=".6"/>
    <path fill="#FFF" d="M12,1 C5.9,1 1,5.9 1,12 C1,18.1 5.9,23 12,23 C18.1,23 23,18.1 23,12 C23,5.9 18.1,1 12,1 Z"/>
    <path fill="#F50000" d="M2,14.5332506 C2,13.1111973 6.34980989,9.34693878 9.69581749,8.2594863 C11.7870722,7.59028478 17.391635,8.42678668 17.391635,8.42678668 C17.391635,8.42678668 11.7870722,9.01233802 10.365019,9.68153954 C7.60456274,11.1035928 6.18250951,12.4419958 6.18250951,12.4419958 C6.18250951,12.4419958 15.634981,8.92868782 24,10.3507411 C24,10.3507411 12.7072243,11.0199426 6.2661597,14.7842011 C5.59695817,15.2024521 4.92775665,15.4534027 4.17490494,15.620703 C3.17110266,15.7880034 2,15.7043532 2,14.5332506 Z"/>
  </g>
</svg>
