<svg viewBox="0 0 23 16" xmlns="http://www.w3.org/2000/svg">
 <g fill="none">
  <path d="m22.6 7.6-6.7-5h-0.1c0.1-0.3 0-0.6-0.3-0.9l-0.5-0.5c0-0.2-0.3-0.3-0.5-0.3-0.3 0-0.5 0.1-0.7 0.3l-0.5 0.5v-0.5c0-0.6-0.4-1-1-1h-0.7c-0.6 0-1 0.4-1 1v0.5l-0.5-0.5c-0.2-0.2-0.5-0.3-0.7-0.3-0.3 0-0.5 0.1-0.7 0.3l-0.5 0.5c-0.3 0.3-0.3 0.6-0.3 0.9h-0.1l-6.7 5c-0.2 0.2-0.3 0.5-0.3 0.9 0 0.3 0.2 0.6 0.5 0.8l10.1 6.4c0.2 0.1 0.3 0.2 0.5 0.2s0.4-0.1 0.5-0.2l10.1-6.4c0.3-0.2 0.5-0.5 0.5-0.8 0-0.4-0.1-0.7-0.4-0.9z" fill="#FFF" opacity=".6"/>
  <g transform="translate(1 3)">
   <polygon points="19.8 5.4 10.9 11 2 5.4 7.5 1.3 10.9 3.6 14.3 1.3" fill="#FFF"/>
   <path d="m10.9 11.8-10.1-6.4 6.7-5 3.5 2.3 3.5-2.3 6.7 5-10.3 6.4zm-7.7-6.5 7.7 4.9 7.7-4.9-4.3-3.2-3.4 2.3-3.4-2.3-4.3 3.2z" fill="#E0111C"/>
  </g>
  <rect transform="rotate(135 9.72 2.965)" x="9.219" y="1.915" width="1" height="2.1" fill="#E0111C"/>
  <rect transform="rotate(45 14.026 3.027)" x="13.526" y="1.977" width="1" height="2.1" fill="#E0111C"/>
  <rect x="11.6" y="1.2" width="1" height="2.1" fill="#E0111C"/>
 </g>
</svg>
