<svg width="24" height="24" viewBox="0 0 24 24">
  <g fill="none">
    <rect width="24" height="24" fill="#FFF" opacity=".6"/>
    <rect width="22" height="22" x="1" y="1" fill="#00A38D"/>
    <path fill="#FFF" d="M4.62892069,7.29184259 C6.10458508,6.16373338 8,5.3 8,5.3 L8,6.1 L10.4,3.6 L6.3,2.8 L7.2,3.7 C-2.33533772,9.52715083 2.47240621,10.7551613 3.72911286,10.9628553 C3.77868324,10.9832814 3.82956771,11.0032711 3.88173154,11.0228505 C3.88313234,11.0107415 3.88465304,10.9986161 3.8862946,10.9864754 C3.95861575,10.9961883 4,11 4,11 C3.963329,10.9802541 3.92770128,10.9603755 3.89310045,10.9403686 C3.89525117,10.9269285 3.89755059,10.9134718 3.9,10.9 L4.62892069,7.29184259 Z M5.09399831,4.98970838 L5.9,1 L11.8376314,1 C12.4323887,0.823731608 13.0259441,0.654553521 13.6,0.5 C16.7,-0.1 19.4,0.6 19,2.4 C18.6167794,4.36400546 17.0862306,5.77729339 15.595489,6.71680772 C16.4427666,7.36193098 17,8.37872486 17,9.5 L17,9.6 C17,11.4 15.4,13 13.5,13 L13.1,13 L5.6,13 C5.48782455,13 5.37876893,12.9896006 5.27357551,12.9697561 C2.57688727,12.8577321 -8.8817842e-16,12.3587135 -8.8817842e-16,10.3 C-8.8817842e-16,7.4002455 3.14606591,5.7398503 5.09399831,4.98970838 Z M15.1,1.6 C20.1,4.1 11,7.4 11,7.3 L11,6.5 L8.5,9 L12.6,9.8 L11.8,9 C22.5,2.4 15.1,1.6 15.1,1.6 Z" transform="translate(3 5)"/>
  </g>
</svg>
