<svg width="32" height="32" viewBox="0 0 32 32">
  <g fill="none">
    <path fill="#FFF" d="M29.9,19.9 L20,29.8 C17.8,32 14.3,32 12.1,29.8 L2.2,19.9 C-8.8817842e-16,17.7 -8.8817842e-16,14.2 2.2,12 L12.1,2.1 C14.3,-0.1 17.8,-0.1 20,2.1 L29.9,12 C32,14.2 32,17.8 29.9,19.9 Z" opacity=".6"/>
    <g transform="translate(1 2)">
      <path fill="#FFF" d="M15,27.5 C13.8,27.5 12.6,27 11.8,26.2 L2.8,17.2 C1,15.4 1,12.5 2.8,10.8 L11.8,1.8 C12.7,0.9 13.8,0.5 15,0.5 C16.2,0.5 17.4,1 18.2,1.8 L27.2,10.8 C29,12.6 29,15.5 27.2,17.2 L18.2,26.2 C17.4,27 16.2,27.5 15,27.5 Z"/>
      <path fill="#055880" d="M15,1 C16.1,1 17.1,1.4 17.9,2.2 L26.9,11.2 C28.5,12.8 28.5,15.3 26.9,16.9 L17.9,25.9 C17.1,26.6 16.1,27 15,27 C13.9,27 12.9,26.6 12.1,25.8 L3.1,16.8 C1.5,15.2 1.5,12.7 3.1,11.1 L12.1,2.1 C12.9,1.4 13.9,1 15,1 Z M15,0 C13.7,0 12.4,0.5 11.4,1.5 L2.4,10.5 C0.4,12.5 0.4,15.7 2.4,17.6 L11.4,26.6 C12.4,27.6 13.7,28.1 15,28.1 C16.3,28.1 17.6,27.6 18.6,26.6 L27.6,17.6 C29.6,15.6 29.6,12.4 27.6,10.5 L18.6,1.5 C17.6,0.5 16.3,0 15,0 Z"/>
    </g>
    <rect width="12" height="2" x="11" y="19" fill="#055880"/>
    <rect width="1" height="2" x="19" y="18" fill="#055880"/>
    <rect width="1" height="2" x="9" y="19" fill="#055880"/>
    <polygon fill="#055880" points="26 15 26 14 25 14 25 13 24 13 24 12 23 12 23 11 22 11 22 10 20 10 20 11 19 11 19 12 18 12 18 11 17 11 17 10 16 10 15 10 15 11 14 11 14 12 13 12 13 11 12 11 12 10 10 10 10 11 9 11 9 12 8 12 8 13 7 13 7 14 6 14 6 15 5 15 5 17 7 17 7 16 8 16 8 15 9 15 9 14 10 14 10 13 11 13 11 12 12 12 12 14 11 14 11 15 10 15 10 17 12 17 12 16 13 16 13 15 14 15 14 14 15 14 15 13 16 13 16 12 17 12 17 13 17 14 16 14 16 15 15 15 15 17 17 17 17 16 18 16 18 15 19 15 19 14 20 14 20 13 21 13 22 13 22 14 23 14 23 15 20 15 20 17 27 17 27 15"/>
  </g>
</svg>
