<svg width="26" height="26" viewBox="0 0 26 26">
  <g fill="none">
    <rect width="26" height="26" fill="#FFF" opacity=".6"/>
    <rect width="24" height="24" x="1" y="1" fill="#FFF"/>
    <path fill="#FFA300" d="M22.1,24 L21.8,24 C20.8,24 19.9,23.2 19.9,22.1 L19.9,21.8 C19.9,20.8 20.7,19.9 21.8,19.9 L22.1,19.9 C23.1,19.9 24,20.7 24,21.8 L24,22.1 C24,23.2 23.2,24 22.1,24 Z M16.1,24 L15.8,24 C14.8,24 13.9,23.2 13.9,22.1 L13.9,21.8 C13.9,20.8 14.7,19.9 15.8,19.9 L16.1,19.9 C17.1,19.9 18,20.7 18,21.8 L18,22.1 C18,23.2 17.2,24 16.1,24 Z M10.1,24 L9.9,24 C8.9,24 8,23.2 8,22.1 L8,21.8 C8,20.8 8.8,19.9 9.9,19.9 L10.2,19.9 C11.2,19.9 12.1,20.7 12.1,21.8 L12.1,22.1 C12,23.2 11.2,24 10.1,24 Z M4.1,24 L3.9,24 C2.9,24 2,23.2 2,22.1 L2,21.8 C2,20.8 2.8,19.9 3.9,19.9 L4.2,19.9 C5.2,19.9 6.1,20.7 6.1,21.8 L6.1,22.1 C6,23.2 5.2,24 4.1,24 Z M22.1,18 L21.8,18 C20.8,18 19.9,17.2 19.9,16.1 L19.9,15.8 C19.9,14.8 20.7,13.9 21.8,13.9 L22.1,13.9 C23.1,13.9 24,14.7 24,15.8 L24,16.1 C24,17.2 23.2,18 22.1,18 Z M16.1,18 L15.8,18 C14.8,18 13.9,17.2 13.9,16.1 L13.9,15.8 C13.9,14.8 14.7,13.9 15.8,13.9 L16.1,13.9 C17.1,13.9 18,14.7 18,15.8 L18,16.1 C18,17.2 17.2,18 16.1,18 Z M10.1,18 L9.9,18 C8.9,18 8,17.2 8,16.1 L8,15.8 C8,14.8 8.8,13.9 9.9,13.9 L10.2,13.9 C11.2,13.9 12.1,14.7 12.1,15.8 L12.1,16.1 C12,17.2 11.2,18 10.1,18 Z M4.1,18 L3.9,18 C2.9,18 2,17.2 2,16.1 L2,15.8 C2,14.8 2.8,13.9 3.9,13.9 L4.2,13.9 C5.2,13.9 6.1,14.7 6.1,15.8 L6.1,16.1 C6,17.2 5.2,18 4.1,18 Z M22.1,12 L21.8,12 C20.8,12 19.9,11.2 19.9,10.1 L19.9,9.9 C19.9,8.9 20.7,8 21.8,8 L22.1,8 C23.1,8 24,8.8 24,9.9 L24,10.2 C24,11.2 23.2,12 22.1,12 Z M16.1,12 L15.8,12 C14.8,12 13.9,11.2 13.9,10.1 L13.9,9.9 C13.9,8.9 14.7,8 15.8,8 L16.1,8 C17.1,8 18,8.8 18,9.9 L18,10.2 C18,11.2 17.2,12 16.1,12 Z M10.1,12 L9.9,12 C8.9,12 8,11.2 8,10.1 L8,9.9 C8,8.8 8.8,8 9.9,8 L10.2,8 C11.2,8 12.1,8.8 12.1,9.9 L12.1,10.2 C12,11.2 11.2,12 10.1,12 Z M4.1,12 L3.9,12 C2.9,12 2,11.2 2,10.1 L2,9.9 C2,8.8 2.8,8 3.9,8 L4.2,8 C5.2,8 6,8.8 6,9.9 L6,10.2 C6,11.2 5.2,12 4.1,12 Z M22.1,6 L21.8,6 C20.8,6 19.9,5.2 19.9,4.1 L19.9,3.9 C19.9,2.9 20.7,2 21.8,2 L22.1,2 C23.1,2 24,2.8 24,3.9 L24,4.2 C24,5.2 23.2,6 22.1,6 Z M16.1,6 L15.8,6 C14.8,6 13.9,5.2 13.9,4.1 L13.9,3.9 C13.9,2.9 14.7,2 15.8,2 L16.1,2 C17.1,2 18,2.8 18,3.9 L18,4.2 C18,5.2 17.2,6 16.1,6 Z M10.1,6 L9.9,6 C8.8,6 8,5.2 8,4.1 L8,3.9 C8,2.8 8.8,2 9.9,2 L10.2,2 C11.2,2 12.1,2.8 12.1,3.9 L12.1,4.2 C12,5.2 11.2,6 10.1,6 Z M4.1,6 L3.9,6 C2.8,6 2,5.2 2,4.1 L2,3.9 C2,2.8 2.8,2 3.9,2 L4.2,2 C5.2,2 6,2.8 6,3.9 L6,4.2 C6,5.2 5.2,6 4.1,6 Z"/>
  </g>
</svg>
