<svg width="24" height="24" viewBox="0 0 24 24">
  <g fill="none">
    <path fill="#FFF" d="M12,24 C5.4,24 0,18.6 0,12 C0,5.4 5.4,0 12,0 C18.6,0 24,5.4 24,12 C24,18.6 18.6,24 12,24 Z" opacity=".6"/>
    <circle cx="12" cy="12" r="11" fill="#D50000"/>
    <path fill="#FFF" d="M20,10.4 C19.9,9.6 19.3,9 18.5,9 L17.5,9 C16.8,9 16.3,9.4 16.1,10 L16,10 L14.9,10 C14.7,9.4 14.1,9 13.5,9 L12.5,9 C11.8,9 11.3,9.4 11.1,10 L11,10 L11,9 L9,9 L9,18 L11,18 L11,11.9 C11,11.4 11.4,11 11.9,11 L13,11 C13.5,11 13.9,11.4 13.9,11.9 L13.9,18 L15.9,18 L15.9,11.9 C15.9,11.4 16.3,11 16.8,11 L17.9,11 C18.4,11 18.8,11.4 18.8,11.9 L18.8,18 L20.8,18 L20.8,12.2 C21,11.4 20.6,10.7 20,10.4 Z"/>
  </g>
</svg>
