<svg width="27" height="21" viewBox="0 0 27 21">
  <g fill="none" fill-rule="evenodd">
    <rect width="27" height="7" y="7" fill="#FFF" opacity=".6"/>
    <path fill="#FFF" d="M13.5,21 C7.70101013,21 3,16.2989899 3,10.5 C3,4.70101013 7.70101013,0 13.5,0 C19.2989899,0 24,4.70101013 24,10.5 C24,16.2989899 19.2989899,21 13.5,21 Z M13.5,15 C15.9852814,15 18,12.9852814 18,10.5 C18,8.01471863 15.9852814,6 13.5,6 C11.0147186,6 9,8.01471863 9,10.5 C9,12.9852814 11.0147186,15 13.5,15 Z" opacity=".6"/>
    <path fill="#E12524" d="M13.5,20 C8.25329488,20 4,15.7467051 4,10.5 C4,5.25329488 8.25329488,1 13.5,1 C18.7467051,1 23,5.25329488 23,10.5 C23,15.7467051 18.7467051,20 13.5,20 Z M13.5,16 C16.5375661,16 19,13.5375661 19,10.5 C19,7.46243388 16.5375661,5 13.5,5 C10.4624339,5 8,7.46243388 8,10.5 C8,13.5375661 10.4624339,16 13.5,16 Z"/>
    <rect width="25" height="5" x="1" y="8" fill="#043A86"/>
  </g>
</svg>
