<svg height="24" viewBox="0 0 24 24" width="24"><g fill="none" fill-rule="evenodd"><rect fill="#fff" height="24" opacity=".6" rx="2.5" width="24"/><rect fill="#2f6499" height="22" rx="2" width="22" x="1" y="1"/><path d="m8 6-2 1.5.04237783 9.4690843c.01536083.5.51536083 1 1.01536083 1h10.00000004c.5 0 .992506-.3291073.9846391-1l-.0423778-9.4690843-2-1.5zm1.61843002 2.00553119h4.99999998l1.4239478 1.09863746v3.84438005h-7.99999997v-3.84438005zm-.57605219 7.57083241c0 .414214-.33579.75-.75.75s-.75-.335786-.75-.75.33579-.75.75-.75.75.335786.75.75zm7.49999997 0c0 .414214-.33579.75-.75.75s-.75-.335786-.75-.75.33579-.75.75-.75.75.335786.75.75z" fill="#fff"/></g></svg>