<svg width="27" height="20" viewBox="0 0 27 20">
  <g fill="none">
    <path fill="#FFF" d="M26,6 L24,6 L22.6,6 C21.1,2.7 17.7,0.5 14,0.5 C10.3,0.5 6.9,2.7 5.4,6 L1,6 L0,6 L0,7 L0,9 L0,10 L1,10 L4.5,10 C4.5,10.3 4.5,10.7 4.6,11 L1,11 L0,11 L0,12 L0,14 L0,15 L1,15 L5.9,15 C7.6,17.8 10.7,19.5 14,19.5 C17.3,19.5 20.3,17.8 22.1,15 L24,15 L26,15 L27,15 L27,14 L27,12 L27,9 L27,7 L27,6 L26,6 Z" opacity=".6"/>
    <circle cx="14" cy="10" r="8" fill="#FFF"/>
    <path fill="#C41F38" d="M26,9 L26,12 L26,14 L21.5043151,14 C20.0751809,16.6794405 17.253183,18.5 14,18.5 C10.746817,18.5 7.92481906,16.6794405 6.49568486,14 L1,14 L1,12 L5.73589191,12 C5.58167677,11.3587701 5.5,10.6890573 5.5,10 C5.5,9.66164154 5.51969436,9.32794753 5.55800107,9 L1,9 L1,7 L6.04304526,7 C7.25377465,3.7836907 10.3564503,1.5 14,1.5 C17.6435497,1.5 20.7462253,3.7836907 21.9569547,7 L26,7 L26,9 Z M24,9 L22.4419989,9 C22.4803056,9.32794753 22.5,9.66164154 22.5,10 C22.5,10.6890573 22.4183232,11.3587701 22.2641081,12 L24,12 L24,9 Z M21.2233187,12 C21.4034673,11.361819 21.5,10.6908467 21.5,10 C21.5,9.661385 21.4768088,9.32754467 21.4319473,9 L6.56805265,9 C6.52319122,9.32754467 6.5,9.661385 6.5,10 C6.5,10.6908467 6.59653272,11.361819 6.77668129,12 L21.2233187,12 Z M20.3232579,14 L7.67674206,14 C9.01635921,16.0940008 11.3634444,17.5 14,17.5 C16.6365556,17.5 18.9836408,16.0940008 20.3232579,14 Z M20.8617591,7 C19.6904468,4.36589316 17.0373007,2.5 14,2.5 C10.9626993,2.5 8.30955315,4.36589316 7.13824092,7 L20.8617591,7 Z"/>
  </g>
</svg>
