<?xml version="1.0" encoding="UTF-8" standalone="no"?>
<svg width="17px" height="17px" viewBox="0 0 17 17" version="1.1" xmlns="http://www.w3.org/2000/svg" xmlns:xlink="http://www.w3.org/1999/xlink">
    <!-- Generator: Sketch 3.8.3 (29802) - http://www.bohemiancoding.com/sketch -->
    <title>sweets-s</title>
    <desc>Created with Sketch.</desc>
    <defs>
        <ellipse id="path-1" cx="8.5" cy="8.5" rx="7.5" ry="7.5"></ellipse>
    </defs>
    <g id="POI-Clear" stroke="none" stroke-width="1" fill="none" fill-rule="evenodd">
        <g id="sweets-s">
            <path d="M8.5,17 C3.812,17 0,13.188 0,8.5 C0,3.812 3.812,0 8.5,0 C13.188,0 17,3.812 17,8.5 C17,13.188 13.188,17 8.5,17 L8.5,17 Z" id="Shape" fill-opacity="0.6" fill="#FFFFFF"></path>
            <g id="Oval">
                <use fill="#2D7970" xlink:href="#path-1"></use>
                <use fill="#825089" xlink:href="#path-1"></use>
            </g>
            <path d="M6.59775,10.51575 L6.48075,10.39675 C5.83975,9.75575 5.83975,8.71875 6.48075,8.07875 L8.07875,6.48075 C8.71975,5.83975 9.75775,5.83975 10.39775,6.48075 L10.51575,6.59775 C11.15675,7.23875 11.15675,8.27575 10.51575,8.91675 L8.91775,10.51575 C8.27775,11.15675 7.23875,11.15575 6.59775,10.51575 L6.59775,10.51575 Z" id="Shape" fill="#FFFFFF"></path>
            <path d="M10.675,7.25335901 L13.092,6.53935901 C13.339,6.46735901 13.294,6.31035901 12.993,6.19035901 L11.611,5.64035901 L11.061,4.25935901 C10.941,3.95635901 10.786,3.91335901 10.712,4.15935901 L10,6.57835901 L10.675,7.25335901 L10.675,7.25335901 Z" id="Shape" fill="#FFFFFF"></path>
            <path d="M6.57703842,10 L4.15903842,10.713 C3.91303842,10.787 3.95703842,10.943 4.25903842,11.063 L5.64003842,11.613 L6.19003842,12.995 C6.31003842,13.297 6.46603842,13.341 6.53903842,13.094 L7.25203842,10.675 L6.57703842,10 L6.57703842,10 Z" id="Shape" fill="#FFFFFF"></path>
        </g>
    </g>
</svg>