<svg width="16" height="16" viewBox="0 0 16 16">
  <g fill="none" fill-rule="evenodd">
    <circle cx="8" cy="8" r="8" fill="#FFF" opacity=".6"/>
    <circle cx="8" cy="8" r="7" fill="#8C5F93"/>
    <path fill="#FFF" d="M5.94051041,9.27190085 C5.60232079,8.72526154 5.67053632,7.99985834 6.145157,7.52609693 L7.5269814,6.14461905 C8.00136856,5.67035085 8.72721301,5.60198618 9.27355206,5.93952502 L9.80400838,4.13776655 C9.86799774,3.92509849 10.0020295,3.96227217 10.1057961,4.22421698 L10.5813927,5.41809742 L11.7764373,5.89357479 C12.0367184,5.99731531 12.0756308,6.13304248 11.8620447,6.19528679 L9.96218893,6.75637776 C10.1481337,7.25934047 10.0388397,7.84612015 9.63430685,8.25055154 L8.25248245,9.63289392 C7.84829127,10.0376151 7.26006082,10.1462872 6.75628022,9.95992064 L6.19556023,11.8618021 C6.13243559,12.0753347 5.99753909,12.0372965 5.89377255,11.7762162 L5.41817592,10.5814713 L4.22399601,10.1059939 C3.96285022,10.0022534 3.92480249,9.86739071 4.13752389,9.8034174 L5.94051041,9.27190085 Z"/>
  </g>
</svg>
