<?xml version="1.0" encoding="UTF-8"?>
<svg version="1.1" viewBox="0 0 24 24" xml:space="preserve" xmlns="http://www.w3.org/2000/svg">
 <g opacity="1">
  <circle id="Oval" cx="12" cy="12" r="12" fill="#fff" opacity=".6"/>
  <circle cx="12" cy="12" r="11" fill="#8C5F93"/>
  <path d="m15.272 4.8672c-0.10049 0-0.19896 0.038791-0.27148 0.11133-0.53584 0.53581-0.83008 1.248-0.83008 2.0058 0 0.20881 0.02274 0.41409 0.06641 0.61328 0.33276 1.1422 1.0033 1.8734 2.1562 2.1582 0.19916 0.043669 0.40448 0.06641 0.61328 0.06641 0.75779 0 1.47-0.29619 2.0058-0.83203 0.09114-0.091141 0.13155-0.22142 0.10547-0.34766-0.02611-0.12621-0.11454-0.22981-0.23437-0.27734l-1.1719-0.46484-0.21875-1.1015c-0.03017-0.15207-0.14871-0.27062-0.30078-0.30078l-1.0996-0.21875-0.46484-1.1699c-0.0475-0.11981-0.15308-0.20826-0.27929-0.23437-0.02578-0.00537-0.05038-0.00777-0.07617-0.00777zm-3.3398 3.0429c-1.0196 0.019048-2.0344 0.4172-2.8105 1.1933-1.1241 1.1241-1.4537 2.7454-0.99027 4.1621 1.2894 0.43385 2.1113 1.3082 2.5839 2.5957 0.41892 0.13924 0.85582 0.21094 1.2929 0.21094 1.0456 0 2.0926-0.39932 2.8886-1.1953 1.1177-1.1177 1.4481-2.7259 0.9961-4.1367-1.314-0.43339-2.1481-1.3207-2.6231-2.6309-0.36882-0.11913-0.75082-0.18544-1.1348-0.19727-0.06796-0.00213-0.13515-0.00324-0.20313-0.00194zm-4.9414 6.2617c-0.75779 0-1.47 0.29424-2.0058 0.83008-0.09114 0.09114-0.1296 0.22142-0.10352 0.34766 0.02611 0.12621 0.11259 0.23176 0.23242 0.27929l1.1719 0.46484 0.21875 1.0996c0.03016 0.15207 0.14871 0.27062 0.30078 0.30078l1.1015 0.21875 0.46289 1.1719c0.0475 0.11981 0.15308 0.20826 0.27929 0.23437 0.02578 0.0054 0.05232 0.0078 0.07813 0.0078 0.10049 0 0.19701-0.04074 0.26953-0.11328 0.53584-0.53581 0.83203-1.248 0.83203-2.0058 0-0.20881-0.02274-0.41409-0.06641-0.61328-0.33276-1.1422-1.0053-1.8734-2.1582-2.1582-0.19916-0.04367-0.40448-0.06446-0.61328-0.06446z" fill="#fff" />
 </g>
</svg>
