<svg width="24" height="24" viewBox="0 0 24 24">
  <g fill="none" fill-rule="evenodd">
    <circle cx="12" cy="12" r="12" fill="#FFF" opacity=".6"/>
    <circle cx="12" cy="12" r="11" fill="#717065"/>
    <path fill="#FFF" d="M14.0769231,6 C13.97148,6 13.7876954,6.0512 13.7019231,6.10026667 L11.0480769,7.60032 C10.6931262,7.79445333 10.5543692,8.40256 10.7884615,8.76693333 L11.5961538,10.0336 L8.16346154,12.3336533 L10.0096154,13.20032 L12,12.2669867 L13.9903846,13.20032 L14.7692308,12.2669867 L12.375,8.56693333 L14.3942308,7.36693333 C14.7955477,7.13504 14.7819785,6.73738667 14.7403846,6.50026667 C14.7009692,6.27552 14.4434031,6.00032 14.0769231,6.00032 L14.0769231,6 Z M15.6923077,8.53333333 C14.9276031,8.53333333 14.3076923,9.24970667 14.3076923,10.1333333 C14.3076923,11.01696 14.9276031,11.7333333 15.6923077,11.7333333 C16.4570123,11.7333333 17.0769231,11.01696 17.0769231,10.1333333 C17.0769231,9.24970667 16.4570123,8.53333333 15.6923077,8.53333333 L15.6923077,8.53333333 Z M12,13.3333333 L10.1538462,14.4 L7.84615385,13.4 L6,14.4 L6,16 L7.84615385,14.9333333 L10.1538462,16 L12,14.8666667 L13.8461538,16 L15.6923077,14.8666667 L18,16 L18,14.4 L15.6923077,13.3333333 L13.8461538,14.4 L12,13.3333333 L12,13.3333333 Z"/>
  </g>
</svg>
