<svg height="24" viewBox="0 0 24 24" width="24"><g fill="none" fill-rule="evenodd"><circle cx="12" cy="12" fill="#fff" opacity=".6" r="12"/><circle cx="12" cy="12" fill="#717065" r="11"/><path d="m14.0769231 6c-.1054431 0-.2892277.0512-.375.10026667l-2.6538462 1.50005333c-.3549507.19413333-.4937077.80224-.2596154 1.16661333l.8076923 1.26666667-3.43269226 2.3000533 1.84615386.8666667 1.9903846-.9333333 1.9903846.9333333.7788462-.9333333-2.3942308-3.70005337 2.0192308-1.2c.4013169-.23189333.3877477-.62954666.3461538-.86666666-.0394154-.22474667-.2969815-.49994667-.6634615-.49994667zm1.6153846 2.53333333c-.7647046 0-1.3846154.71637334-1.3846154 1.59999997 0 .8836267.6199108 1.6 1.3846154 1.6s1.3846154-.7163733 1.3846154-1.6c0-.88362663-.6199108-1.59999997-1.3846154-1.59999997zm-3.6923077 4.79999997-1.8461538 1.0666667-2.30769235-1-1.84615385 1v1.6l1.84615385-1.0666667 2.30769235 1.0666667 1.8461538-1.1333333 1.8461538 1.1333333 1.8461539-1.1333333 2.3076923 1.1333333v-1.6l-2.3076923-1.0666667-1.8461539 1.0666667z" fill="#fff"/></g></svg>