<?xml version="1.0" encoding="UTF-8" standalone="no"?>
<svg width="27px" height="27px" viewBox="0 0 27 27" version="1.1" xmlns="http://www.w3.org/2000/svg" xmlns:xlink="http://www.w3.org/1999/xlink">
    <!-- Generator: Sketch 3.8.3 (29802) - http://www.bohemiancoding.com/sketch -->
    <title>taoist-l</title>
    <desc>Created with Sketch.</desc>
    <defs></defs>
    <g id="POI-Clear" stroke="none" stroke-width="1" fill="none" fill-rule="evenodd">
        <g id="taoist-l">
            <circle id="Oval-1-Copy-39" fill-opacity="0.6" fill="#FFFFFF" cx="13.5" cy="13.5" r="13.5"></circle>
            <circle id="taoist" fill="#8C4D16" cx="13.5" cy="13.5" r="12.5"></circle>
            <g id="noun_65883_cc" transform="translate(13.500000, 13.500000) rotate(-90.000000) translate(-13.500000, -13.500000) translate(5.000000, 5.000000)" fill="#FFFFFF">
                <g id="Group">
                    <g transform="translate(-0.000000, 0.000000)" id="Combined-Shape">
                        <path d="M14.51324,2.48676 C12.85523,0.82892 10.85093,0 8.5,0 C6.14907,0 4.14477,0.82892 2.48676,2.48676 C0.82875,4.1446 7.10542736e-15,6.14907 7.10542736e-15,8.5 C7.10542736e-15,10.85093 0.82892,12.85523 2.48676,14.51324 C4.14477,16.17108 6.14907,17 8.5,17 C10.85093,17 12.85523,16.17108 14.51324,14.51324 C16.17108,12.85523 17,10.85093 17,8.5 C17,6.14907 16.17108,4.14477 14.51324,2.48676 L14.51324,2.48676 Z M5.32984,9.29815 C5.10765,9.52425 4.84364,9.63713 4.5373,9.63713 C4.22331,9.63713 3.95522,9.52612 3.7332,9.30393 C3.51101,9.08208 3.4,8.81399 3.4,8.5 C3.4,8.18601 3.51101,7.91809 3.73303,7.69607 C3.95505,7.47388 4.22314,7.36287 4.53713,7.36287 C4.85112,7.36287 5.11717,7.47388 5.33545,7.69607 C5.55373,7.91809 5.66287,8.18618 5.66287,8.5 C5.66287,8.80634 5.55186,9.07239 5.32984,9.29815 Z M12.47443,7.36287 C12.16027,7.36287 11.89235,7.47388 11.67033,7.69607 C11.44831,7.91809 11.3373,8.18618 11.3373,8.5 C11.3373,8.81382 11.44831,9.08208 11.67033,9.30393 C11.89252,9.52612 12.16044,9.63713 12.47443,9.63713 C12.78077,9.63713 13.04478,9.52612 13.26697,9.30393 C13.48899,9.08208 13.6,8.81399 13.6,8.5 C13.6,8.18601 13.49086,7.91809 13.27258,7.69607 C13.05447,7.47388 12.78842,7.36287 12.47443,7.36287 Z M12.47443,12.46287 C11.39459,12.46287 10.47761,12.09907 9.72332,11.37164 C8.96886,10.64421 8.56511,9.73284 8.51139,8.63787 L8.5,8.36213 C8.4388,7.26716 8.03284,6.35392 7.28246,5.62258 C6.53208,4.89124 5.61697,4.52557 4.5373,4.52557 C3.40391,4.52557 2.50036,4.86251 1.82648,5.53639 C1.15243,6.21044 0.73134,7.19814 0.56287,8.5 C0.69309,6.15672 1.49515,4.24813 2.96922,2.77389 C4.44329,1.29982 6.28694,0.56287 8.5,0.56287 C10.65951,0.56287 12.5222,1.33246 14.08824,2.87181 C15.65411,4.41099 16.43713,6.24495 16.43713,8.37386 C16.43713,9.5302 16.05616,10.50073 15.29405,11.28562 C14.53228,12.07034 13.59235,12.46287 12.47443,12.46287 L12.47443,12.46287 Z"></path>
                        <path d="M8.5,17 C13.1944204,17 17,13.1944204 17,8.5 C17,3.80557963 13.1944204,0 8.5,0 C3.80557963,0 7.10542736e-15,3.80557963 7.10542736e-15,8.5 C7.10542736e-15,13.1944204 3.80557963,17 8.5,17 Z M8.5,16 C12.6421356,16 16,12.6421356 16,8.5 C16,4.35786438 12.6421356,1 8.5,1 C4.35786438,1 1,4.35786438 1,8.5 C1,12.6421356 4.35786438,16 8.5,16 Z"></path>
                    </g>
                </g>
            </g>
        </g>
    </g>
</svg>