<svg version="1.1" viewBox="0 0 16 16" xmlns="http://www.w3.org/2000/svg">
 <title>taoist-s</title>
 <g fill="none" fill-rule="evenodd">
  <g id="taoist-s" fill-rule="nonzero">
   <circle id="Oval" cx="8" cy="8" r="8" fill="#fff" opacity=".6"/>
   <circle id="Oval" cx="8" cy="8" r="7" fill="#7F5933"/>
   <path id="Shape" d="m7.8375 4c-1 0-1.9175 0.405-2.6375 1.125-0.76 0.76-1.2 1.755-1.2 2.875 0 2.2 1.715 4 3.875 4h0.125c2.2 0 4-1.8 4-4s-1.8-4-4-4h-0.1625zm0.0375 0.8c0.88 0 2.125 0.48 2.125 1.6 0 1.04-0.8 1.52-1.8 1.6-0.8 0.04-1.5625 0.445-1.9625 1.125-0.32 0.56-0.2825 1.0725-0.1625 1.5125-0.76-0.6-1.275-1.5575-1.275-2.6375 0-0.88 0.3225-1.725 0.9625-2.325 0.56-0.56 1.2725-0.875 2.1125-0.875zm0.125 0.8c-0.44183 0-0.8 0.35817-0.8 0.8s0.35817 0.8 0.8 0.8 0.8-0.35817 0.8-0.8-0.35817-0.8-0.8-0.8zm0 3.6c0.44 0 0.8 0.36 0.8 0.8s-0.36 0.8-0.8 0.8-0.8-0.36-0.8-0.8 0.36-0.8 0.8-0.8z" fill="#fff"/>
  </g>
 </g>
</svg>
