<?xml version="1.0" encoding="UTF-8" standalone="no"?>
<svg width="17px" height="17px" viewBox="0 0 17 17" version="1.1" xmlns="http://www.w3.org/2000/svg" xmlns:xlink="http://www.w3.org/1999/xlink">
    <!-- Generator: Sketch 3.8.3 (29802) - http://www.bohemiancoding.com/sketch -->
    <title>taoist-s</title>
    <desc>Created with Sketch.</desc>
    <defs></defs>
    <g id="POI-Clear" stroke="none" stroke-width="1" fill="none" fill-rule="evenodd">
        <g id="taoist-s">
            <circle id="Oval-1-Copy-43" fill-opacity="0.6" fill="#FFFFFF" cx="8.5" cy="8.5" r="8.5"></circle>
            <circle id="Oval-1-Copy-42" fill="#8C4D16" cx="8.5" cy="8.5" r="7.5"></circle>
            <path d="M11.68348,5.31652 C10.80571,4.43884 9.74461,4 8.5,4 C7.25539,4 6.19429,4.43884 5.31652,5.31652 C4.43875,6.1942 4,7.25539 4,8.5 C4,9.74461 4.43884,10.80571 5.31652,11.68348 C6.19429,12.56116 7.25539,13 8.5,13 C9.74461,13 10.80571,12.56116 11.68348,11.68348 C12.56116,10.80571 13,9.74461 13,8.5 C13,7.25539 12.56116,6.19429 11.68348,5.31652 L11.68348,5.31652 Z M6.82168,8.92255 C6.70405,9.04225 6.56428,9.10201 6.4021,9.10201 C6.23587,9.10201 6.09394,9.04324 5.9764,8.92561 C5.85877,8.80816 5.8,8.66623 5.8,8.5 C5.8,8.33377 5.85877,8.19193 5.97631,8.07439 C6.09385,7.95676 6.23578,7.89799 6.40201,7.89799 C6.56824,7.89799 6.70909,7.95676 6.82465,8.07439 C6.94021,8.19193 6.99799,8.33386 6.99799,8.5 C6.99799,8.66218 6.93922,8.80303 6.82168,8.92255 Z M10.60411,7.89799 C10.43779,7.89799 10.29595,7.95676 10.17841,8.07439 C10.06087,8.19193 10.0021,8.33386 10.0021,8.5 C10.0021,8.66614 10.06087,8.80816 10.17841,8.92561 C10.29604,9.04324 10.43788,9.10201 10.60411,9.10201 C10.76629,9.10201 10.90606,9.04324 11.02369,8.92561 C11.14123,8.80816 11.2,8.66623 11.2,8.5 C11.2,8.33377 11.14222,8.19193 11.02666,8.07439 C10.91119,7.95676 10.77034,7.89799 10.60411,7.89799 Z M10.60411,10.59799 C10.03243,10.59799 9.54697,10.40539 9.14764,10.02028 C8.74822,9.63517 8.53447,9.15268 8.50603,8.57299 L8.5,8.42701 C8.4676,7.84732 8.25268,7.36384 7.85542,6.97666 C7.45816,6.58948 6.97369,6.39589 6.4021,6.39589 C5.80207,6.39589 5.32372,6.57427 4.96696,6.93103 C4.61011,7.28788 4.38718,7.81078 4.29799,8.5 C4.36693,7.25944 4.79155,6.24901 5.57194,5.46853 C6.35233,4.68814 7.32838,4.29799 8.5,4.29799 C9.64327,4.29799 10.6294,4.70542 11.45848,5.52037 C12.28747,6.33523 12.70201,7.30615 12.70201,8.43322 C12.70201,9.0454 12.50032,9.55921 12.09685,9.97474 C11.69356,10.39018 11.19595,10.59799 10.60411,10.59799 L10.60411,10.59799 Z" id="Combined-Shape" fill="#FFFFFF" transform="translate(8.500000, 8.500000) rotate(-90.000000) translate(-8.500000, -8.500000) "></path>
            <path d="M8.5,13 C10.9852814,13 13,10.9852814 13,8.5 C13,6.01471863 10.9852814,4 8.5,4 C6.01471863,4 4,6.01471863 4,8.5 C4,10.9852814 6.01471863,13 8.5,13 Z M8.5,12 C10.4329966,12 12,10.4329966 12,8.5 C12,6.56700338 10.4329966,5 8.5,5 C6.56700338,5 5,6.56700338 5,8.5 C5,10.4329966 6.56700338,12 8.5,12 Z" id="Combined-Shape" fill="#FFFFFF"></path>
        </g>
    </g>
</svg>