<svg width="24" height="24" viewBox="0 0 24 24">
  <g fill="none" fill-rule="evenodd">
    <circle cx="12" cy="12" r="12" fill="#FFF" opacity=".6"/>
    <circle cx="12" cy="12" r="11" fill="#717065"/>
    <path fill="#FFF" d="M17.4505714,10.194 C17.3751429,9.53475 16.6997143,9 15.942,9 L8.05714286,9 C7.29942857,9 6.624,9.53475 6.54857143,10.194 L6,15 L18,15 L17.4505714,10.194 L17.4505714,10.194 Z M9.42857143,13.5 L7.71428571,13.5 L7.71428571,12 L9.42857143,12 L9.42857143,13.5 L9.42857143,13.5 Z M11.1428571,12 L9.42857143,12 L9.42857143,10.5 L11.1428571,10.5 L11.1428571,12 L11.1428571,12 Z M12.8571429,13.5 L11.1428571,13.5 L11.1428571,12 L12.8571429,12 L12.8571429,13.5 L12.8571429,13.5 Z M14.5714286,12 L12.8571429,12 L12.8571429,10.5 L14.5714286,10.5 L14.5714286,12 L14.5714286,12 Z M16.2857143,13.5 L14.5714286,13.5 L14.5714286,12 L16.2857143,12 L16.2857143,13.5 L16.2857143,13.5 Z"/>
  </g>
</svg>
