<svg width="16" height="16" viewBox="0 0 16 16">
  <g fill="none" fill-rule="evenodd">
    <circle cx="8" cy="8" r="8" fill="#FFF" opacity=".6"/>
    <circle cx="8" cy="8" r="7" fill="#717065"/>
    <path fill="#FFF" d="M4,6.66657778 C4,8.13937778 5.1939062,9.33324444 6.66667556,9.33324444 L8.88890519,9.33324444 L11.5555541,12 L12,12 L11.9999733,11.5556444 L9.33332444,8.88888889 L9.33332444,6.66666667 C9.33332444,5.19386667 8.13940935,4 6.66665778,4 C5.1939062,3.99991111 4,5.19377778 4,6.66657778 L4,6.66657778 Z M8.44443259,7.11111111 L8.44443259,8.44444444 L7.11109481,8.44444444 L8.44443259,7.11111111 Z M4.66666889,9.77777778 C4.29847211,9.77777778 4,10.0762667 4,10.4444444 C4,10.8126222 4.29847211,11.1111111 4.66666889,11.1111111 C5.03485678,11.1111111 5.33333778,10.8126222 5.33333778,10.4444444 C5.33333778,10.0762667 5.03485678,9.77777778 4.66666889,9.77777778 L4.66666889,9.77777778 Z"/>
  </g>
</svg>
