<?xml version="1.0" encoding="UTF-8" standalone="no"?>
<svg width="17px" height="17px" viewBox="0 0 17 17" version="1.1" xmlns="http://www.w3.org/2000/svg" xmlns:xlink="http://www.w3.org/1999/xlink">
    <!-- Generator: Sketch 3.8.3 (29802) - http://www.bohemiancoding.com/sketch -->
    <title>tennis-s</title>
    <desc>Created with Sketch.</desc>
    <defs>
        <path d="M4.00003,6.9999 C4.00003,8.6568 5.34317,9.9999 7.00003,9.9999 L9.50003,9.9999 L12.5,13 L13,13 L12.99997,12.5001 L10,9.5 L10,7 C10,5.3431 8.65685,4 7.00001,4 C5.34317,3.9999 4.00003,5.343 4.00003,6.9999 L4.00003,6.9999 Z M9,7.5 L9,9 L7.5,9 L9,7.5 Z M4.75003,10.5 C4.33581,10.5 4.00003,10.8358 4.00003,11.25 C4.00003,11.6642 4.33581,12 4.75003,12 C5.16424,12 5.50003,11.6642 5.50003,11.25 C5.50003,10.8358 5.16424,10.5 4.75003,10.5 L4.75003,10.5 Z" id="path-1"></path>
    </defs>
    <g id="POI-Clear" stroke="none" stroke-width="1" fill="none" fill-rule="evenodd">
        <g id="tennis-s">
            <circle id="Oval-1-Copy-43" fill-opacity="0.6" fill="#FFFFFF" cx="8.5" cy="8.5" r="8.5"></circle>
            <circle id="Oval-1-Copy-42" fill="#717065" cx="8.5" cy="8.5" r="7.5"></circle>
            <g id="path11507-3-copy" fill="#FFFFFF">
                <use xlink:href="#path-1"></use>
                <use xlink:href="#path-1"></use>
            </g>
        </g>
    </g>
</svg>