<?xml version="1.0" encoding="UTF-8" standalone="no"?>
<svg width="23px" height="23px" viewBox="0 0 23 23" version="1.1" xmlns="http://www.w3.org/2000/svg" xmlns:xlink="http://www.w3.org/1999/xlink" xmlns:sketch="http://www.bohemiancoding.com/sketch/ns">
    <!-- Generator: Sketch 3.3.3 (12072) - http://www.bohemiancoding.com/sketch -->
    <title>tennis-m</title>
    <desc>Created with Sketch.</desc>
    <defs></defs>
    <g id="POI" stroke="none" stroke-width="1" fill="none" fill-rule="evenodd" sketch:type="MSPage">
        <g sketch:type="MSLayerGroup" transform="translate(-323.000000, -1046.000000)" id="tennis-m">
            <g transform="translate(323.000000, 1046.000000)" sketch:type="MSShapeGroup">
                <ellipse id="Oval-1-Copy-41" fill="#FFFFFF" cx="11.5" cy="11.5" rx="11.5" ry="11.5"></ellipse>
                <ellipse id="Oval-1-Copy-40" fill="#777871" cx="11.5" cy="11.5" rx="10.5" ry="10.5"></ellipse>
                <path d="M9.5,5 C6.96598,5 5,6.966 5,9.5 C5,12.034 7.14246,13.9984 9.67648,14 L13,14 L17,18 L18,18 L18,17 L14,13 L14,9.6764 C14,7.1424 12.03401,5 9.5,5 L9.5,5 Z M13,10.7058 L13,13 L10.5,13 L13,10.7058 Z M6.14706,14 C5.51355,14 5,14.5135 5,15.147 C5,15.7805 5.51355,16.2941 6.14706,16.2941 C6.78056,16.2941 7.29412,15.7805 7.29412,15.147 C7.29412,14.5135 6.78056,14 6.14706,14 L6.14706,14 Z" id="path11507-7-copy" fill="#FFFFFF"></path>
            </g>
        </g>
    </g>
</svg>