<svg version="1.1" viewBox="0 0 24 24" xmlns="http://www.w3.org/2000/svg">
 <title>theatre-m</title>
 <g fill="none" fill-rule="evenodd">
  <g id="theatre-m" fill-rule="nonzero">
   <circle id="Oval" cx="12" cy="12" r="12" fill="#fff" opacity=".6"/>
   <circle id="Oval" cx="12" cy="12" r="11" fill="#7F5933"/>
   <g id="Group" transform="translate(5 5)" fill="#fff">
    <path id="Shape" d="m0 9.45c0 2.128 1.722 3.85 3.85 3.85s3.85-1.722 3.85-3.85v-4.55h-7.7v4.55zm3.85 1.4c-0.966 0-1.75-0.469-1.75-1.05h3.5c0 0.581-0.784 1.05-1.75 1.05zm1.75-3.85c0.385 0 0.7 0.315 0.7 0.7s-0.315 0.7-0.7 0.7-0.7-0.315-0.7-0.7 0.315-0.7 0.7-0.7zm-3.5 0c0.385 0 0.7 0.315 0.7 0.7s-0.315 0.7-0.7 0.7-0.7-0.315-0.7-0.7 0.315-0.7 0.7-0.7z"/>
    <path id="Shape" d="m6.3 0v4.2h2.1v1.75c0-0.581 0.784-1.05 1.75-1.05s1.75 0.469 1.75 1.05h-3.5v1.75 0.273c0.525 0.266 1.12 0.427 1.75 0.427 2.128 0 3.85-1.722 3.85-3.85v-4.55h-7.7zm2.1 3.556c-0.385 0-0.7-0.315-0.7-0.7s0.315-0.7 0.7-0.7 0.7 0.315 0.7 0.7c0 0.392-0.315 0.7-0.7 0.7zm3.5 0c-0.385 0-0.7-0.315-0.7-0.7s0.315-0.7 0.7-0.7 0.7 0.315 0.7 0.7c0 0.392-0.315 0.7-0.7 0.7z"/>
   </g>
  </g>
 </g>
</svg>
