<svg height="24" viewBox="0 0 24 24" width="24"><g fill="none" fill-rule="evenodd" transform="translate(-2044 -1068)"><circle cx="2056" cy="1080" fill="#fff" opacity=".6" r="12"/><circle cx="2056" cy="1080" fill="#717065" r="11"/><path d="m2056 1073v1.14286h2.4l-.6-.57143.6-.57143zm0 1.71429 4.2 4v1.14285s.1464.57143.9.57143.9-.57143.9-.57143v-1.14285zm0 0 .6 4v1.14285s.2976.57143 1.2.57143 1.2-.57143 1.2-.57143v-1.14285zm0 0-3 4v1.14285s.2976.57143 1.2.57143 1.2-.57143 1.2-.57143v-1.14285zm0 0-6 4v1.14285s.1464.57143.9.57143.9-.57143.9-.57143v-1.14285zm-3.6 5.71428s-.5952.57143-1.5.57143c-.129 0-.24645-.01457-.35625-.03571l-.54375 4.03571h4.2l.6-2.28571h2.4l.6 2.28571h4.2l-.54375-4.03571c-.1098.02114-.22725.03571-.35625.03571-1.0422 0-1.5-.57143-1.5-.57143s-.6888.57143-1.8.57143c-.9582 0-1.8-.57143-1.8-.57143s-.8466.57143-1.8.57143c-1.0956 0-1.8-.57143-1.8-.57143z" fill="#fff" fill-rule="nonzero"/></g></svg>