<svg version="1.1" viewBox="0 0 16 16" xmlns="http://www.w3.org/2000/svg">
 <title>theme_park-s</title>
 <g fill="none" fill-rule="evenodd">
  <g id="theme_park-s" fill-rule="nonzero">
   <circle id="Oval" cx="8" cy="8" r="8" fill="#fff" opacity=".6"/>
   <circle id="Oval" cx="8" cy="8" r="7" fill="#717065"/>
   <path id="Shape" d="m8 3v0.7619h1.6l-0.4-0.38095 0.4-0.38095h-1.6zm0 1.1429 2.8 2.6667v0.7619s0.0976 0.38095 0.6 0.38095 0.6-0.38095 0.6-0.38095v-0.7619l-4-2.6667zm0 0 0.4 2.6667v0.7619s0.1984 0.38095 0.8 0.38095 0.8-0.38095 0.8-0.38095v-0.7619l-2-2.6667zm0 0-2 2.6667v0.7619s0.1984 0.38095 0.8 0.38095 0.8-0.38095 0.8-0.38095v-0.7619l0.4-2.6667zm0 0-4 2.6667v0.7619s0.0976 0.38095 0.6 0.38095 0.6-0.38095 0.6-0.38095v-0.7619l2.8-2.6667zm-2.4 3.8095s-0.3968 0.38095-1 0.38095c-0.086 0-0.1643-0.0097143-0.2375-0.02381l-0.3625 2.6905h2.8l0.4-1.5238h1.6l0.4 1.5238h2.8l-0.3625-2.6905c-0.0732 0.014095-0.1515 0.02381-0.2375 0.02381-0.6948 0-1-0.38095-1-0.38095s-0.4592 0.38095-1.2 0.38095c-0.6388 0-1.2-0.38095-1.2-0.38095s-0.5644 0.38095-1.2 0.38095c-0.7304 0-1.2-0.38095-1.2-0.38095z" fill="#fff"/>
  </g>
 </g>
</svg>
