<svg height="24" viewBox="0 0 24 24" width="24"><g fill="none" fill-rule="evenodd"><circle cx="12" cy="12" fill="#fff" opacity=".6" r="12"/><circle cx="12" cy="12" fill="#8c5f93" r="11"/><path d="m6 10.6666667v-1.66963656c0-.55064454.45576096-.99703014 1.00247329-.99703014h9.99505341c.5536507 0 1.0024733.45303631 1.0024733.99703014v1.66963656c-.764702 0-1.3846154.5969536-1.3846154 1.3333333s.6199134 1.3333333 1.3846154 1.3333333v1.6696366c0 .5506445-.455761.9970301-1.0024733.9970301h-9.99505341c-.55365071 0-1.00247329-.4530363-1.00247329-.9970301v-1.6696366c.76470196 0 1.38461538-.5969536 1.38461538-1.3333333s-.61991342-1.3333333-1.38461538-1.3333333zm7.1636017 1.8071633 1.0872966-.8553904c.111256-.1073139.049798-.294333-.1039685-.31642l-1.3804975-.0367316c-.0534417-.0076824-.099596-.0408129-.1234018-.088588l-.4746599-1.29544951c-.0344943-.06890178-.1012964-.10347271-.1683415-.10347271s-.1338472.03457093-.1683415.10347271l-.4746599 1.29544951c-.0238058.0477751-.0699601.0809056-.1234018.088588l-1.38049749.0367316c-.15400939.022087-.21522447.2091061-.10396847.31642l1.08729656.8553904c.0386239.0372118.0563568.0907487.0471259.1433253l-.3787076 1.2997709c-.0208908.1197979.0755472.2172687.1848599.2172687.0289071 0 .0587859-.0067222.0874501-.0216069l1.1465684-.7485566c.0238058-.0124839.0500409-.0187259.0762759-.0187259.0262351 0 .0524701.006242.076276.0187259l1.1465683.7485566c.0289071.0148847.058543.0216069.0874502.0216069.1093126 0 .2057507-.0974708.1848598-.2172687l-.3787076-1.2997709c-.0092308-.0525766.0085021-.1061135.0471259-.1433253z" fill="#fff"/></g></svg>