<?xml version="1.0" encoding="UTF-8" standalone="no"?>
<svg width="27px" height="27px" viewBox="0 0 27 27" version="1.1" xmlns="http://www.w3.org/2000/svg" xmlns:xlink="http://www.w3.org/1999/xlink">
    <!-- Generator: Sketch 3.8.3 (29802) - http://www.bohemiancoding.com/sketch -->
    <title>tire-repair-l</title>
    <desc>Created with Sketch.</desc>
    <defs></defs>
    <g id="POI-Clear" stroke="none" stroke-width="1" fill="none" fill-rule="evenodd">
        <g id="tire-repair-l">
            <path d="M13.5,27 C6.056,27 0,20.943 0,13.5 C0,6.057 6.056,0 13.5,0 C20.944,0 27,6.057 27,13.5 C27,20.943 20.944,27 13.5,27 L13.5,27 Z" id="Shape" fill-opacity="0.6" fill="#FFFFFF"></path>
            <path d="M26,13.5 C26,20.403 20.403,26 13.5,26 C6.597,26 1,20.403 1,13.5 C1,6.597 6.597,1 13.5,1 C20.403,1 26,6.597 26,13.5 L26,13.5 Z" id="Shape" fill="#717065"></path>
            <g id="Group-12" transform="translate(5.000000, 5.000000)" fill="#FFFFFF">
                <circle id="Oval" cx="8.5" cy="8.5" r="1"></circle>
                <path d="M14.4410785,13.7643138 C14.4786784,13.8345337 14.5,13.9147769 14.5,14 C14.5,14.2761424 14.2761424,14.5 14,14.5 C13.7238576,14.5 13.5,14.2761424 13.5,14 C13.5,13.9147769 13.5213216,13.8345337 13.5589215,13.7643138 L14,12 L14.4410785,13.7643138 Z M13.9135802,16.9135802 C15.5704345,16.9135802 16.9135802,15.5704345 16.9135802,13.9135802 C16.9135802,12.256726 15.5704345,10.9135802 13.9135802,10.9135802 C12.256726,10.9135802 10.9135802,12.256726 10.9135802,13.9135802 C10.9135802,15.5704345 12.256726,16.9135802 13.9135802,16.9135802 Z" id="Combined-Shape" transform="translate(13.913580, 13.913580) rotate(-45.000000) translate(-13.913580, -13.913580) "></path>
                <path d="M11.2647537,11.0813475 C10.6820639,10.5185307 10.4131569,9.79487482 10.6407407,9.12962963 C10.9765432,8.12222222 12.2777778,7.63950617 13.6209877,8.01728395 C13.5580247,7.15679012 13.2851852,6.3382716 12.8444444,5.64567901 C11.962963,6.73703704 10.6197531,7.11481481 9.78024691,6.50617284 C8.91975309,5.87654321 8.87777778,4.49135802 9.63333333,3.31604938 C9.2345679,3.21111111 8.81481481,3.14814815 8.39506173,3.14814815 C7.97530864,3.14814815 7.55555556,3.21111111 7.15679012,3.29506173 C7.91234568,4.47037037 7.87037037,5.85555556 7.00987654,6.48518519 C6.14938272,7.11481481 4.80617284,6.71604938 3.94567901,5.62469136 C3.50493827,6.31728395 3.23209877,7.13580247 3.1691358,7.9962963 C4.51234568,7.63950617 5.8345679,8.12222222 6.14938272,9.10864198 C6.48518519,10.1160494 5.68765432,11.2703704 4.38641975,11.7740741 C4.93209877,12.4037037 5.62469136,12.9283951 6.40123457,13.2432099 C6.46419753,11.8580247 7.32469136,10.745679 8.39506173,10.745679 C9.27572125,10.745679 10.0001004,11.4986664 10.2759684,12.537072 C10.4950068,11.9799265 10.8354621,11.4838248 11.2647537,11.0813475 Z M8.5,10 C7.675,10 7,9.325 7,8.5 C7,7.675 7.675,7 8.5,7 C9.325,7 10,7.675 10,8.5 C10,9.325 9.325,10 8.5,10 L8.5,10 Z" id="Combined-Shape"></path>
                <path d="M10.9865602,16.6305192 C10.2000638,16.8707546 9.36512535,17 8.5,17 C3.80557963,17 0,13.1944204 0,8.5 C0,3.80557963 3.80557963,0 8.5,0 C13.1944204,0 17,3.80557963 17,8.5 C17,9.36512535 16.8707546,10.2000638 16.6305192,10.9865602 C15.9996641,10.4354129 15.1941765,10.0791528 14.3079554,10.0116784 C14.4333,9.5287345 14.5,9.02215656 14.5,8.5 C14.5,5.1862915 11.8137085,2.5 8.5,2.5 C5.1862915,2.5 2.5,5.1862915 2.5,8.5 C2.5,11.8137085 5.1862915,14.5 8.5,14.5 C9.02215656,14.5 9.5287345,14.4333 10.0116784,14.3079554 C10.0791528,15.1941765 10.4354129,15.9996641 10.9865602,16.6305192 Z" id="Combined-Shape"></path>
            </g>
        </g>
    </g>
</svg>