<svg width="24" height="24" viewBox="0 0 24 24">
  <g fill="none" fill-rule="evenodd">
    <circle cx="12" cy="12" r="12" fill="#FFF" opacity=".6"/>
    <circle cx="12" cy="12" r="11" fill="#717065"/>
    <path fill="#FFF" fill-rule="nonzero" d="M12,5 C8.1339,5 5,7.98466667 5,11.6666667 C5,14.6013333 6.509375,15.1255 6.509375,16.0208333 C6.509375,16.4268333 4.823075,17 9.571875,17 L14.428125,17 C19.176925,17 17.490625,16.4268333 17.490625,16.0208333 C17.489925,15.1255 19,14.6013333 19,11.6666667 C19,7.98466667 15.8661,5 12,5 Z M12,7 C14.7062,7 16.9,9.08933333 16.9,11.6666667 C16.9,14.244 14.7062,16.3333333 12,16.3333333 C9.2938,16.3333333 7.1,14.244 7.1,11.6666667 C7.1,9.08933333 9.2938,7 12,7 Z M12,7.66666667 C11.8404,7.66666667 11.67345,7.67083333 11.51875,7.6875 L11.3,9.79166667 C11.0634,9.873 10.83205,9.9945 10.64375,10.1458333 L8.63125,9.29166667 C8.44435,9.53233333 8.2774,9.78516667 8.15,10.0625 L9.94375,11.3125 C9.92205,11.4285 9.9,11.5453333 9.9,11.6666667 C9.9,11.788 9.92205,11.9055 9.94375,12.0208333 L8.15,13.2708333 C8.2774,13.5481667 8.44435,13.8016667 8.63125,14.0416667 L10.64375,13.1875 C10.83205,13.3388333 11.0634,13.4603333 11.3,13.5416667 L11.51875,15.6458333 C11.67275,15.6631667 11.8404,15.6666667 12,15.6666667 C12.1596,15.6666667 12.32655,15.6625 12.48125,15.6458333 L12.7,13.5416667 C12.9366,13.4603333 13.16795,13.3388333 13.35625,13.1875 L15.36875,14.0416667 C15.55565,13.801 15.7226,13.5481667 15.85,13.2708333 L14.05625,12.0208333 C14.07725,11.9048333 14.1,11.788 14.1,11.6666667 C14.1,11.5453333 14.07795,11.4278333 14.05625,11.3125 L15.85,10.0625 C15.7226,9.78516667 15.55565,9.53166667 15.36875,9.29166667 L13.35625,10.1458333 C13.16795,9.9945 12.9366,9.873 12.7,9.79166667 L12.48125,7.6875 C12.32725,7.67016667 12.1596,7.66666667 12,7.66666667 Z M12,10.6666667 C12.5796,10.6666667 13.05,11.1146667 13.05,11.6666667 C13.05,12.2186667 12.5796,12.6666667 12,12.6666667 C11.4204,12.6666667 10.95,12.2186667 10.95,11.6666667 C10.95,11.1146667 11.4204,10.6666667 12,10.6666667 Z"/>
  </g>
</svg>
