<svg width="28" height="28" viewBox="0 0 28 28">
  <g fill="none" fill-rule="evenodd">
    <circle cx="14" cy="14" r="14" fill="#FFF" opacity=".6"/>
    <circle cx="14" cy="14" r="13" fill="#7F5933"/>
    <path fill="#FFF" d="M9.84817106,9.2 C10.7449112,9.2 11.463919,8.488 11.463919,7.6 C11.463919,6.712 10.7449112,6 9.84817106,6 C8.95143095,6 8.23242312,6.712 8.23242312,7.6 C8.23242312,8.488 8.95143095,9.2 9.84817106,9.2 L9.84817106,9.2 Z M17.2616028,9.2 C16.3648627,9.2 15.6458549,8.488 15.6458549,7.6 C15.6458549,6.712 16.3648627,6 17.2616028,6 C18.1583429,6 18.8773507,6.712 18.8773507,7.6 C18.8773507,8.488 18.1583429,9.2 17.2616028,9.2 Z M7,12.2741069 C7,11.1654283 7.8893597,10.2666667 9.00548299,10.2666667 L10.3803435,10.2666667 C11.4879412,10.2666667 12.3858265,11.1565592 12.3858265,12.2741069 L12.3858265,16.6666667 L7,16.6666667 L7,12.2741069 Z M15.6153846,11.3333333 C15.6153846,11.3333333 15.8846154,10.2666667 17.2307692,10.2666667 C18.5769231,10.2666667 18.8461538,11.3333333 18.8461538,11.3333333 L21,17.7333333 L13.4615385,17.7333333 L15.6153846,11.3333333 Z M16.1538462,17.7333333 L18.3076923,17.7333333 L18.3076923,22 L16.1538462,22 L16.1538462,17.7333333 Z M8.61538462,16.6666667 L10.7692308,16.6666667 L10.7692308,22 L8.61538462,22 L8.61538462,16.6666667 Z"/>
  </g>
</svg>
