<svg width="24" height="24" viewBox="0 0 24 24">
  <g fill="none" fill-rule="evenodd">
    <circle cx="12" cy="12" r="12" fill="#FFF" opacity=".6"/>
    <circle cx="12" cy="12" r="11" fill="#7F5933"/>
    <path fill="#FFF" d="M8.18181818,7.69230769 C8.93863636,7.69230769 9.54545455,7.09326923 9.54545455,6.34615385 C9.54545455,5.59903846 8.93863636,5 8.18181818,5 C7.425,5 6.81818182,5.59903846 6.81818182,6.34615385 C6.81818182,7.09326923 7.425,7.69230769 8.18181818,7.69230769 L8.18181818,7.69230769 Z M16.231128,6.34615385 C16.231128,7.09326923 15.6014096,7.69230769 14.8160304,7.69230769 C14.0306512,7.69230769 13.4009328,7.09326923 13.4009328,6.34615385 C13.4009328,5.59903846 14.0306512,5 14.8160304,5 C15.6014096,5 16.231128,5.59903846 16.231128,6.34615385 Z M6,9.73068481 C6,8.90230431 6.66274244,8.23076923 7.50171609,8.23076923 L8.86192027,8.23076923 C9.69129517,8.23076923 10.3636364,8.90184721 10.3636364,9.73068481 L10.3636364,13.6153846 L6,13.6153846 L6,9.73068481 Z M7.09090909,13.6153846 L9.27272727,13.6153846 L9.27272727,19 L7.09090909,19 L7.09090909,13.6153846 Z M13.3636364,9.30769231 C13.3636364,9.30769231 13.6363636,8.23076923 14.7272727,8.23076923 C15.8181818,8.23076923 16.0909091,9.30769231 16.0909091,9.30769231 L18,15.2307692 L11.4545455,15.2307692 L13.3636364,9.30769231 Z M13.6363636,15.2307692 L15.8181818,15.2307692 L15.8181818,19 L13.6363636,19 L13.6363636,15.2307692 Z"/>
  </g>
</svg>
