<?xml version="1.0" encoding="UTF-8" standalone="no"?>
<svg width="23px" height="23px" viewBox="0 0 23 23" version="1.1" xmlns="http://www.w3.org/2000/svg" xmlns:xlink="http://www.w3.org/1999/xlink">
    <!-- Generator: Sketch 3.8.3 (29802) - http://www.bohemiancoding.com/sketch -->
    <title>toilets-m</title>
    <desc>Created with Sketch.</desc>
    <defs></defs>
    <g id="POI-Clear" stroke="none" stroke-width="1" fill="none" fill-rule="evenodd">
        <g id="toilets-m">
            <ellipse id="Oval-1-Copy-41" fill-opacity="0.6" fill="#FFFFFF" cx="11.5" cy="11.5" rx="11.5" ry="11.5"></ellipse>
            <ellipse id="Oval-1-Copy-40" fill="#8C4D16" cx="11.5" cy="11.5" rx="10.5" ry="10.5"></ellipse>
            <path d="M14.618776,10.4258298 C14.8293202,9.91450813 15.1688123,9.90997267 15.381224,10.4258298 L18.118776,17.0741702 C18.3293202,17.5854919 18.0629214,17.91377 17.5154537,17.8126657 C17.5154537,17.8126657 16.1101982,17.5055542 15,17.5 C13.907786,17.5055542 12.474107,17.8154923 12.474107,17.8154923 C11.9361226,17.9173931 11.6688123,17.5900273 11.881224,17.0741702 L14.618776,10.4258298 Z M7.61877596,17.464781 C7.82932018,17.9761027 8.16881227,17.9806382 8.38122404,17.464781 L11.118776,10.8164407 C11.3293202,10.305119 11.0629214,9.97684083 10.5154537,10.0779452 C10.5154537,10.0779452 9.11019825,10.3850566 8,10.3906108 C6.90778603,10.3850566 5.47410701,10.0751185 5.47410701,10.0751185 C4.93612256,9.97321774 4.66881227,10.3005835 4.88122404,10.8164407 L7.61877596,17.464781 Z M8.00001,5 C6.89544,5 6.00001,5.8954 6.00001,7 C6.00001,8.1046 6.89544,9 8.00001,9 C9.10458,9 10.00001,8.1046 10.00001,7 C10.00001,5.8954 9.10458,5 8.00001,5 Z M15,5 C13.89543,5 13,5.8954 13,7 C13,8.1046 13.89543,9 15,9 C16.10457,9 17,8.1046 17,7 C17,5.8954 16.10457,5 15,5 Z" id="Combined-Shape" fill="#FFFFFF"></path>
        </g>
    </g>
</svg>