<svg height="24" viewBox="0 0 24 24" width="24"><g fill="none" fill-rule="evenodd"><circle cx="12" cy="12" fill="#fff" opacity=".6" r="12"/><circle cx="12" cy="12" fill="#7f5933" r="11"/><path d="m8.18181818 7.69230769c.75681818 0 1.36363637-.59903846 1.36363637-1.34615384 0-.74711539-.60681819-1.34615385-1.36363637-1.34615385s-1.36363636.59903846-1.36363636 1.34615385c0 .74711538.60681818 1.34615384 1.36363636 1.34615384zm7.63636362 7.53846151v3.7692308h-2.1818182v-3.7692308h-2.1818181l1.9090909-5.92307689s.2727272-1.07692308 1.3636363-1.07692308 1.3636364 1.07692308 1.3636364 1.07692308l1.9090909 5.92307689zm-6.54545453-1.6153846v5.3846154h-2.18181818v-5.3846154h-1.09090909v-3.88469979c0-.8283805.66274244-1.49991558 1.50171609-1.49991558h1.36020418c.8293749 0 1.50171613.67107798 1.50171613 1.49991558v3.88469979zm6.95840073-7.26923075c0 .74711538-.6297184 1.34615384-1.4150976 1.34615384s-1.4150976-.59903846-1.4150976-1.34615384c0-.74711539.6297184-1.34615385 1.4150976-1.34615385s1.4150976.59903846 1.4150976 1.34615385z" fill="#fff"/></g></svg>