<?xml version="1.0" encoding="utf-8"?>
<!-- Generator: Adobe Illustrator 21.0.2, SVG Export Plug-In . SVG Version: 6.00 Build 0)  -->
<svg version="1.1" id="Слой_1" xmlns="http://www.w3.org/2000/svg" xmlns:xlink="http://www.w3.org/1999/xlink" x="0px" y="0px"
	 viewBox="0 0 32.4 32.4" enable-background="new 0 0 32.4 32.4" xml:space="preserve">
<title>toll_booth-l</title>
<desc>Created with Sketch.</desc>
<g id="POI-Clear">
	<g id="Artboard-1" transform="translate(-677.000000, -248.000000)">
		<g id="toll_booth-l" transform="translate(677.000000, 248.000000)">
			<path id="Shape" fill="#FFFFFF" fill-opacity="0.6" d="M16.2,32.4C7.3,32.4,0,25.1,0,16.2S7.3,0,16.2,0s16.2,7.3,16.2,16.2
				S25.1,32.4,16.2,32.4L16.2,32.4z"/>
			<path id="Shape_1_" fill="#717065" d="M31.2,16.2c0,8.3-6.7,15-15,15s-15-6.7-15-15s6.7-15,15-15S31.2,7.9,31.2,16.2L31.2,16.2z"
				/>
			<g id="Shape_2_">
				<g>
					<path id="path-1" fill="#FFFFFF" d="M25.8,7.4c-0.2-0.6-0.8-1-1.5-0.8l-11.1,3V9.4c-1.1-0.6-2.3-1-3.6-1S7.1,8.8,6,9.4v2.1
						l-1.4,0.4l0.6,2.3L6,14v8.8h7.2V12.1l11.7-3.1C25.6,8.7,26,8.1,25.8,7.4L25.8,7.4z M8.4,14.6C7.6,14.6,7,14,7,13.2
						c0-0.8,0.6-1.4,1.4-1.4s1.4,0.6,1.4,1.4C9.8,14,9.2,14.6,8.4,14.6L8.4,14.6z"/>
				</g>
				<g>
					<path id="path-1_1_" fill="#FFFFFF" d="M25.8,7.4c-0.2-0.6-0.8-1-1.5-0.8l-11.1,3V9.4c-1.1-0.6-2.3-1-3.6-1S7.1,8.8,6,9.4v2.1
						l-1.4,0.4l0.6,2.3L6,14v8.8h7.2V12.1l11.7-3.1C25.6,8.7,26,8.1,25.8,7.4L25.8,7.4z M8.4,14.6C7.6,14.6,7,14,7,13.2
						c0-0.8,0.6-1.4,1.4-1.4s1.4,0.6,1.4,1.4C9.8,14,9.2,14.6,8.4,14.6L8.4,14.6z"/>
				</g>
			</g>
			<path id="Combined-Shape" fill="#FFFFFF" d="M22.6,14.5v-1.3h-1.2v1.2c-1,0.1-1.7,0.3-2.3,0.8c-0.6,0.5-0.9,1.2-0.9,2
				c0,0.9,0.3,1.5,1,2c0.4,0.3,1.1,0.5,2,0.7l0.2,0v2.5c-0.5-0.1-0.9-0.2-1.1-0.5c-0.2-0.2-0.3-0.5-0.4-0.9H18
				c0,0.9,0.4,1.7,1.1,2.2c0.6,0.4,1.4,0.7,2.3,0.8v1.2h1.2V24c0.9-0.1,1.7-0.3,2.2-0.8c0.7-0.5,1-1.2,1-2.1c0-0.8-0.3-1.4-0.9-1.9
				c-0.4-0.3-0.9-0.5-1.6-0.7l-0.8-0.2v-2.3c0.1,0,0.2,0.1,0.3,0.1c0.5,0.2,0.7,0.6,0.7,1.2h1.9c0-1-0.4-1.7-1.1-2.2
				C23.8,14.8,23.2,14.5,22.6,14.5z M22.6,20.2v2.2c0.2,0,0.3-0.1,0.5-0.1c0.6-0.2,0.8-0.5,0.8-1.1c0-0.3-0.1-0.5-0.4-0.7
				C23.3,20.4,23,20.3,22.6,20.2z M21.4,18.1V16c-0.4,0-0.7,0.1-0.9,0.3c-0.3,0.2-0.5,0.5-0.5,0.8c0,0.3,0.2,0.6,0.5,0.7
				C20.6,17.9,20.9,18,21.4,18.1z"/>
		</g>
	</g>
</g>
</svg>
