<?xml version="1.0" encoding="UTF-8" standalone="no"?>
<svg width="17px" height="17px" viewBox="0 0 17 17" version="1.1" xmlns="http://www.w3.org/2000/svg" xmlns:xlink="http://www.w3.org/1999/xlink" xmlns:sketch="http://www.bohemiancoding.com/sketch/ns">
    <!-- Generator: Sketch 3.5.2 (25235) - http://www.bohemiancoding.com/sketch -->
    <title>toll_booth-s</title>
    <desc>Created with Sketch.</desc>
    <defs></defs>
    <g id="POI" stroke="none" stroke-width="1" fill="none" fill-rule="evenodd" sketch:type="MSPage">
        <path d="M8.5,17 C3.813,17 0,13.188 0,8.5 C0,3.812 3.813,0 8.5,0 C13.187,0 17,3.812 17,8.5 C17,13.188 13.187,17 8.5,17 L8.5,17 Z" id="Shape" fill="#FFFFFF" sketch:type="MSShapeGroup"></path>
        <circle id="Oval" fill="#717065" sketch:type="MSShapeGroup" cx="8.5" cy="8.5" r="7.5"></circle>
        <path d="M4,11.98 L5,11.98 L5,8 L4,8 L4,11.98 L4,11.98 Z M4.03,5 L4.03,5.98 L4,5.98 L4,7 L13,7 L13,5 L4.03,5 L4.03,5 Z M12,12 L13,12 L13,8 L12,8 L12,12 L12,12 Z M8,12 L9,12 L9,8 L8,8 L8,12 L8,12 Z" id="Shape" fill="#FFFFFF" sketch:type="MSShapeGroup"></path>
    </g>
</svg>