<?xml version="1.0" encoding="UTF-8" standalone="no"?>
<svg width="27px" height="27px" viewBox="0 0 27 27" version="1.1" xmlns="http://www.w3.org/2000/svg" xmlns:xlink="http://www.w3.org/1999/xlink">
    <!-- Generator: Sketch 3.8.3 (29802) - http://www.bohemiancoding.com/sketch -->
    <title>toll_booth-l</title>
    <desc>Created with Sketch.</desc>
    <defs>
        <path d="M21.487,6.198 C21.343,5.664 20.796,5.348 20.261,5.491 L10.999,7.972 L10.999,7.809 C10.116,7.297 9.093,6.999 7.999,6.999 C6.905,6.999 5.882,7.297 4.999,7.809 L4.999,9.58 L3.84,9.891 L4.358,11.823 L5,11.651 L5,19 L11,19 L11,10.043 L20.779,7.423 C21.313,7.28 21.63,6.732 21.487,6.198 L21.487,6.198 Z M7,12.201 C6.338,12.201 5.8,11.662 5.8,11 C5.8,10.338 6.338,9.8 7,9.8 C7.662,9.8 8.2,10.338 8.2,11 C8.2,11.662 7.662,12.201 7,12.201 L7,12.201 Z" id="path-1"></path>
    </defs>
    <g id="POI-Clear" stroke="none" stroke-width="1" fill="none" fill-rule="evenodd">
        <g id="toll_booth-l">
            <path d="M13.5,27 C6.056,27 0,20.943 0,13.5 C0,6.057 6.056,0 13.5,0 C20.944,0 27,6.057 27,13.5 C27,20.943 20.944,27 13.5,27 L13.5,27 Z" id="Shape" fill-opacity="0.6" fill="#FFFFFF"></path>
            <path d="M26,13.5 C26,20.403 20.403,26 13.5,26 C6.597,26 1,20.403 1,13.5 C1,6.597 6.597,1 13.5,1 C20.403,1 26,6.597 26,13.5 L26,13.5 Z" id="Shape" fill="#717065"></path>
            <g id="Shape" fill="#FFFFFF">
                <use xlink:href="#path-1"></use>
                <use xlink:href="#path-1"></use>
            </g>
            <path d="M18.7999878,12.0429192 L18.7999878,11 L17.7999878,11 L17.7999878,12.0112011 C16.9840403,12.0616568 16.3514973,12.2825733 15.9023438,12.673955 C15.3867162,13.1232606 15.1289062,13.6874564 15.1289062,14.3665595 C15.1289062,15.110829 15.3956679,15.6578761 15.9291992,16.007717 C16.244305,16.2169357 16.8136352,16.4107172 17.637207,16.5890675 L17.7999878,16.6240494 L17.7999878,18.6791338 C17.3840896,18.6204224 17.0755995,18.4742166 16.8745117,18.2405145 C16.7277011,18.0690238 16.629232,17.8100768 16.5791016,17.4636656 L15,17.4636656 C15,18.2525227 15.2954072,18.8724522 15.8862305,19.3234727 C16.3740368,19.6958525 17.0119513,19.9145044 17.7999878,19.9794324 L17.7999878,21 L18.7999878,21 L18.7999878,19.9813452 C19.5804963,19.9183206 20.2017686,19.6956013 20.6638184,19.3131833 C21.2170438,18.8553032 21.4936523,18.2799606 21.4936523,17.5871383 C21.4936523,16.911465 21.2573266,16.3952858 20.784668,16.0385852 C20.4803045,15.8087877 20.0291371,15.6252954 19.4311523,15.4881029 L18.7999878,15.3429133 L18.7999878,13.4183449 C18.8788928,13.443386 18.9532132,13.4730695 19.0229492,13.5073955 C19.4096699,13.6994651 19.6173501,14.0235776 19.6459961,14.4797428 L21.2358398,14.4797428 C21.2071939,13.6737366 20.8983591,13.0589517 20.3093262,12.6353698 C19.8733857,12.3218788 19.3702758,12.1243961 18.7999878,12.0429192 Z M18.7999878,16.8444083 L18.7999878,18.6758666 C18.9524095,18.6553077 19.087602,18.6250886 19.2055664,18.585209 C19.6674828,18.4274376 19.8984375,18.1341929 19.8984375,17.7054662 C19.8984375,17.4550899 19.7838553,17.2613083 19.5546875,17.1241158 C19.3794983,17.0218598 19.1279334,16.9286245 18.7999878,16.8444083 Z M17.7999878,15.1108495 L17.7999878,13.328331 C17.4938795,13.3560047 17.2408904,13.4345563 17.0410156,13.5639871 C16.7867826,13.7286182 16.659668,13.9584122 16.659668,14.2533762 C16.659668,14.5243315 16.7849922,14.7266874 17.0356445,14.8604502 C17.1677254,14.9335468 17.4225046,15.0170127 17.7999878,15.1108495 Z" id="Combined-Shape" fill="#FFFFFF"></path>
        </g>
    </g>
</svg>