<svg width="24" height="24" viewBox="0 0 24 24">
  <g fill="none" fill-rule="evenodd">
    <circle cx="12" cy="12" r="12" fill="#FFF" opacity=".6"/>
    <circle cx="12" cy="12" r="11" fill="#7F5933"/>
    <path fill="#FFF" d="M6,19 L6,10.9276 C6,7.65906667 8.62964387,5 11.8610876,5 L12.1389124,5 C15.3703561,5 18,7.65906667 18,10.9276 L18,19 L6,19 L6,19 Z M16.1530651,18.0666667 L16.1530651,10.9276 C16.1530651,8.68946667 14.3522806,6.86666667 12.1379894,6.86666667 L11.8601646,6.86666667 C9.6467964,6.86666667 7.84508884,8.68853333 7.84508884,10.9276 L7.84508884,18.0666667 L16.1530651,18.0666667 L16.1530651,18.0666667 Z M14.3070533,17.1333333 L14.3070533,10.9276 C14.3070533,9.718 13.3342051,8.73333333 12.1379894,8.73333333 L11.8601646,8.73333333 C10.6639489,8.73333333 9.69110068,9.718 9.69110068,10.9276 L9.69110068,17.1333333 L14.3070533,17.1333333 L14.3070533,17.1333333 Z"/>
  </g>
</svg>
