<svg width="28" height="28" viewBox="0 0 28 28">
  <g fill="none" fill-rule="evenodd">
    <circle cx="14" cy="14" r="14" fill="#FFF" opacity=".6"/>
    <circle cx="14" cy="14" r="13" fill="#7F5933"/>
    <path fill="#FFF" d="M7,21 L7,11.1903158 C7,7.77726316 10.0779281,5 13.860476,5 L14.139524,5 C17.9220719,5 21,7.77726316 21,11.1903158 L21,21 L7,21 L7,21 Z M19.1325245,20.1111111 L19.1325245,11.5342222 C19.1325245,8.912 16.8926738,6.77777778 14.1385908,6.77777778 L13.8595427,6.77777778 C11.1063929,6.77777778 8.86560896,8.91111111 8.86560896,11.5342222 L8.86560896,20.1111111 L19.1325245,20.1111111 L19.1325245,20.1111111 Z M14.1385908,8.55555556 L13.8595427,8.55555556 C12.1311246,8.55555556 10.7321512,9.888 10.7321512,11.5342222 L10.7321512,19.2222222 L17.265049,19.2222222 L17.265049,11.5342222 C17.2659823,9.888 15.8660756,8.55555556 14.1385908,8.55555556 L14.1385908,8.55555556 Z"/>
  </g>
</svg>
