<?xml version="1.0" encoding="UTF-8" standalone="no"?>
<svg
   width="24"
   height="24"
   viewBox="0 0 24 24"
   version="1.1"
   id="svg14"
   sodipodi:docname="tomb-m.svg"
   inkscape:version="1.2.1 (9c6d41e410, 2022-07-14)"
   xmlns:inkscape="http://www.inkscape.org/namespaces/inkscape"
   xmlns:sodipodi="http://sodipodi.sourceforge.net/DTD/sodipodi-0.dtd"
   xmlns="http://www.w3.org/2000/svg"
   xmlns:svg="http://www.w3.org/2000/svg">
  <defs
     id="defs18" />
  <sodipodi:namedview
     id="namedview16"
     pagecolor="#ffffff"
     bordercolor="#000000"
     borderopacity="0.25"
     inkscape:showpageshadow="2"
     inkscape:pageopacity="0.0"
     inkscape:pagecheckerboard="0"
     inkscape:deskcolor="#d1d1d1"
     showgrid="false"
     inkscape:zoom="42.791667"
     inkscape:cx="12.070107"
     inkscape:cy="12.035053"
     inkscape:window-width="1920"
     inkscape:window-height="2072"
     inkscape:window-x="26"
     inkscape:window-y="23"
     inkscape:window-maximized="0"
     inkscape:current-layer="svg14" />
  <title
     id="title2">tomb-m</title>
  <g
     id="Page-1"
     stroke="none"
     stroke-width="1"
     fill="none"
     fill-rule="evenodd"
     transform="matrix(0.9375,0,0,0.9375,1.25,1.25)">
    <g
       id="tomb-m"
       fill-rule="nonzero">
      <g
         id="tomb"
         transform="translate(6,6)"
         fill="#ffffff">
        <path
           id="Shape"
           d="M 5.691356,-2 C 2.9442553,-2 0.71919254,0.22766735 0.71919254,2.974768 V 8.4678495 H 11.280808 V 2.974768 C 11.280808,0.22763615 9.0531716,-2 6.3060392,-2 Z M 4.0791144,2.268924 h 3.8417711 c 0.2589169,0 0.4688262,0.2099093 0.4688262,0.4688262 0,0.258917 -0.2098781,0.4688264 -0.4688262,0.4688264 H 4.0791144 c -0.2589168,0 -0.4688264,-0.2099094 -0.4688264,-0.4688264 0,-0.2589169 0.2099096,-0.4688262 0.4688264,-0.4688262 z m 0,1.8753052 h 3.8417711 c 0.2589169,0 0.4688262,0.2099093 0.4688262,0.4688262 0,0.258917 -0.2098781,0.4688264 -0.4688262,0.4688264 H 4.0791144 c -0.2589168,0 -0.4688264,-0.2099094 -0.4688264,-0.4688264 0,-0.2589169 0.2099096,-0.4688262 0.4688264,-0.4688262 z m 0,1.8753052 h 3.8417711 c 0.2589169,0 0.4688262,0.2099094 0.4688262,0.4688264 0,0.2589168 -0.2098781,0.4688262 -0.4688262,0.4688262 H 4.0791144 c -0.2589168,0 -0.4688264,-0.2099094 -0.4688264,-0.4688262 0,-0.258917 0.2099096,-0.4688264 0.4688264,-0.4688264 z m -4.61793912,3.3859677 c -0.2589168,0 -0.46882628,0.2099097 -0.46882628,0.4688264 V 11.080254 H 13.007651 V 9.8743285 c 0,-0.2589167 -0.20991,-0.4688264 -0.468827,-0.4688264 z M -1.5311736,12.017907 C -1.7900906,12.017907 -2,12.227816 -2,12.486732 v 1.50806 h 16 v -1.50806 c 0,-0.258916 -0.209911,-0.468825 -0.468826,-0.468825 z"
           style="fill:#7f5933;stroke-width:0.888888" />
      </g>
    </g>
  </g>
</svg>
