<?xml version="1.0" encoding="UTF-8" standalone="no"?>
<svg width="27px" height="27px" viewBox="0 0 27 27" version="1.1" xmlns="http://www.w3.org/2000/svg" xmlns:xlink="http://www.w3.org/1999/xlink">
    <!-- Generator: Sketch 3.7.2 (28276) - http://www.bohemiancoding.com/sketch -->
    <title>tourist-office-l</title>
    <desc>Created with Sketch.</desc>
    <defs></defs>
    <g id="POI" stroke="none" stroke-width="1" fill="none" fill-rule="evenodd">
        <g id="tourist-office-l">
            <path d="M13.5,27 C6.057,27 0,20.943 0,13.5 C0,6.057 6.057,0 13.5,0 C20.943,0 27,6.057 27,13.5 C27,20.943 20.943,27 13.5,27 L13.5,27 Z" id="Shape" fill="#FFFFFF"></path>
            <path d="M26,13.5 C26,20.403 20.403,26 13.5,26 C6.597,26 1,20.403 1,13.5 C1,6.597 6.597,1 13.5,1 C20.403,1 26,6.597 26,13.5 L26,13.5 Z" id="Shape" fill="#717065"></path>
        </g>
        <path d="M21.8030273,9.22238199 C20.7084403,6.13511622 16.7254662,6.94018393 16.7254662,6.94018393 C14.3022351,2.6447888 9.655026,4.32283421 9.655026,4.32283421 C13.1403023,5.16185692 14.2691713,7.61171877 14.2691713,7.61171877 C7.7637746,5.69897923 7,11.6048616 7,11.6048616 C9.78275682,9.64286097 12.3239736,9.98399434 13.3515628,10.245958 L13.0740006,10.4970139 C13.0740006,10.4970139 8.82581981,12.9804789 7.33220454,20.2283754 C7.33220454,20.2283754 7.51509976,20.9634219 8.65197364,20.9986084 C9.78797742,21.033619 9.78797742,20.396391 9.78797742,20.396391 C9.78797742,20.396391 11.4470859,13.4496912 14.1691097,11.0001812 L14.3829805,10.7450789 C16.44773,12.4576071 15.5863301,17.2081399 15.5863301,17.2081399 C19.6585765,14.9262937 17.0235628,9.14444383 17.0235628,9.14444383 C21.1013779,9.90570432 21.4375849,14.2890658 21.4375849,14.2890658 C21.4375849,14.2890658 22.8988324,12.308944 21.8030273,9.22238199 L21.8030273,9.22238199 Z" id="Shape" fill="#FFFFFF"></path>
    </g>
</svg>