<svg width="16" height="16" viewBox="0 0 16 16">
  <g fill="none" fill-rule="evenodd">
    <circle cx="8" cy="8" r="8" fill="#FFF" opacity=".6"/>
    <circle cx="8" cy="8" r="7" fill="#8C5F93"/>
    <path fill="#FFF" d="M9.86666667,9.71428571 C9.27786667,9.71428571 8.8,10.2257143 8.8,10.8571429 C8.8,11.488 9.27786667,12 9.86666667,12 C10.4554667,12 10.9333333,11.488 10.9333333,10.8571429 C10.9333333,10.2257143 10.4554667,9.71428571 9.86666667,9.71428571 L9.86666667,9.71428571 Z M6.13333333,9.71428571 C5.544,9.71428571 5.06666667,10.2257143 5.06666667,10.8571429 C5.06666667,11.488 5.544,12 6.13333333,12 C6.72213333,12 7.2,11.488 7.2,10.8571429 C7.2,10.2257143 6.72213333,9.71428571 6.13333333,9.71428571 L6.13333333,9.71428571 Z M11.1989333,7.42857143 L9.3824,7.42857143 C9.6368,7.11771429 9.8016,6.72285714 9.84586667,6.284 C9.85333333,6.284 9.8592,6.28628571 9.86666667,6.28628571 C10.4554667,6.28628571 10.9333333,5.77428571 10.9333333,5.14342857 C10.9333333,4.51257143 10.4554667,4 9.86666667,4 C9.552,4 9.272,4.14914286 9.07733333,4.38114286 C8.7728,4.14285714 8.40213333,4 8,4 C7.59786667,4 7.22773333,4.14285714 6.92266667,4.38114286 C6.72746667,4.14914286 6.448,4 6.13333333,4 C5.544,4 5.06666667,4.512 5.06666667,5.14342857 C5.06666667,5.77428571 5.544,6.28628571 6.13333333,6.28628571 C6.1408,6.28628571 6.14666667,6.284 6.15413333,6.284 C6.1984,6.72285714 6.36373333,7.11771429 6.6176,7.42857143 L4.80053333,7.42857143 C4.35893333,7.42857143 4,7.81257143 4,8.28571429 C4,8.73885714 4.32906667,9.10514286 4.744,9.13657143 C5.1184,8.78914286 5.6,8.57142857 6.13333333,8.57142857 C6.9424,8.57142857 7.63786667,9.06114286 8,9.77371429 C8.36213333,9.06171429 9.0576,8.57142857 9.86666667,8.57142857 C10.4,8.57142857 10.8816,8.78914286 11.256,9.13657143 C11.6704,9.10457143 12,8.73885714 12,8.28571429 C12,7.81257143 11.6410667,7.42857143 11.1989333,7.42857143 L11.1989333,7.42857143 Z M8,7.54285714 C7.49173333,7.54285714 7.09333333,7.24171429 7.09333333,6.85714286 C7.09333333,6.47257143 7.49173333,6.17142857 8,6.17142857 C8.50826667,6.17142857 8.90666667,6.47257143 8.90666667,6.85714286 C8.90666667,7.24171429 8.50826667,7.54285714 8,7.54285714 L8,7.54285714 Z"/>
  </g>
</svg>
