<svg version="1.1" viewBox="0 0 24 24" xmlns="http://www.w3.org/2000/svg">
 <title>toys-m</title>
 <g fill="none" fill-rule="evenodd">
  <g id="toys-m" fill-rule="nonzero">
   <circle id="Oval" cx="12" cy="12" r="12" fill="#fff" opacity=".6"/>
   <circle id="Oval" cx="12" cy="12" r="11" fill="#8C5F93"/>
   <path id="Shape" d="m14.8 14c-0.8832 0-1.6 0.716-1.6 1.6 0 0.8832 0.7168 1.6 1.6 1.6s1.6-0.7168 1.6-1.6c0-0.884-0.7168-1.6-1.6-1.6zm-5.6 0c-0.884 0-1.6 0.716-1.6 1.6 0 0.8832 0.716 1.6 1.6 1.6 0.8832 0 1.6-0.7168 1.6-1.6 0-0.884-0.7168-1.6-1.6-1.6zm7.5984-3.2h-2.7248c0.3816-0.4352 0.6288-0.988 0.6952-1.6024 0.0112 0 0.02 0.0032 0.0312 0.0032 0.8832 0 1.6-0.7168 1.6-1.6s-0.7168-1.6008-1.6-1.6008c-0.472 0-0.892 0.2088-1.184 0.5336-0.4568-0.3336-1.0128-0.5336-1.616-0.5336s-1.1584 0.2-1.616 0.5336c-0.2928-0.3248-0.712-0.5336-1.184-0.5336-0.884 0-1.6 0.7168-1.6 1.6008 0 0.8832 0.716 1.6 1.6 1.6 0.0112 0 0.02-0.0032 0.0312-0.0032 0.0664 0.6144 0.3144 1.1672 0.6952 1.6024h-2.7256c-0.6624 0-1.2008 0.5376-1.2008 1.2 0 0.6344 0.4936 1.1472 1.116 1.1912 0.5616-0.4864 1.284-0.7912 2.084-0.7912 1.2136 0 2.2568 0.6856 2.8 1.6832 0.5432-0.9968 1.5864-1.6832 2.8-1.6832 0.8 0 1.5224 0.3048 2.084 0.7912 0.6216-0.0448 1.116-0.5568 1.116-1.1912 0-0.6624-0.5384-1.2-1.2016-1.2zm-4.7984 0.16c-0.7624 0-1.36-0.4216-1.36-0.96s0.5976-0.96 1.36-0.96 1.36 0.4216 1.36 0.96-0.5976 0.96-1.36 0.96z" fill="#fff"/>
  </g>
 </g>
</svg>
