<?xml version="1.0" encoding="UTF-8"?>
<svg width="16px" height="16px" viewBox="0 0 16 16" version="1.1" xmlns="http://www.w3.org/2000/svg" xmlns:xlink="http://www.w3.org/1999/xlink">
    <title>train-s</title>
    <g id="Page-1" stroke="none" stroke-width="1" fill="none" fill-rule="evenodd">
        <g id="train-s" fill-rule="nonzero">
            <rect id="Rectangle" fill="#FFFFFF" opacity="0.6" x="0" y="0" width="16" height="16" rx="2.5"></rect>
            <rect id="Rectangle" fill="#2F6499" x="0.666666667" y="0.666666667" width="14.6666667" height="14.6666667" rx="2"></rect>
            <path d="M7.92982456,3.33333333 C5.96491228,3.33333333 4,3.57894737 4,5.29824561 L4,9.96491228 C4,10.9129825 4.77122807,11.6842105 5.71929825,11.6842105 L4.98245614,12.4210526 L4.98245614,12.6666667 L6.07789474,12.6666667 L7.06035088,11.6842105 L8.9122807,11.6842105 L9.89473684,12.6666667 L10.877193,12.6666667 L10.877193,12.4210526 L10.1403509,11.6842105 C11.0884211,11.6842105 11.8596491,10.9129825 11.8596491,9.96491228 L11.8596491,5.29824561 C11.8596491,3.57894737 10.1010526,3.33333333 7.92982456,3.33333333 Z M5.71929825,10.7017544 C5.31157895,10.7017544 4.98245614,10.3726316 4.98245614,9.96491228 C4.98245614,9.55719298 5.31157895,9.22807018 5.71929825,9.22807018 C6.12701754,9.22807018 6.45614035,9.55719298 6.45614035,9.96491228 C6.45614035,10.3726316 6.12701754,10.7017544 5.71929825,10.7017544 Z M7.43859649,7.26315789 L4.98245614,7.26315789 L4.98245614,5.29824561 L7.43859649,5.29824561 L7.43859649,7.26315789 Z M8.42105263,7.26315789 L8.42105263,5.29824561 L10.877193,5.29824561 L10.877193,7.26315789 L8.42105263,7.26315789 Z M10.1403509,10.7017544 C9.73263158,10.7017544 9.40350877,10.3726316 9.40350877,9.96491228 C9.40350877,9.55719298 9.73263158,9.22807018 10.1403509,9.22807018 C10.5480702,9.22807018 10.877193,9.55719298 10.877193,9.96491228 C10.877193,10.3726316 10.5480702,10.7017544 10.1403509,10.7017544 Z" id="Shape" fill="#FFFFFF"></path>
        </g>
    </g>
</svg>