<svg width="28" height="28" viewBox="0 0 28 28">
  <g fill="none" fill-rule="evenodd">
    <rect width="28" height="28" fill="#FFF" opacity=".6" rx="3.5"/>
    <rect width="26" height="26" x="1" y="1" fill="#2F6499" rx="3"/>
    <path fill="#FFF" d="M11.4631148,24 L13,21 L11.125,21 L8.00000001,27 L9.875,27.1 L10.4385246,26 L18.5614754,26 L19.125,27.1 L21,27 L17.875,21 L16,21 L17.5368852,24 L11.4631148,24 Z M12.0029293,7 L16.9970707,7 C17.5621186,7 18.374141,7.24942732 18.8356673,7.5571115 L20.1643327,8.4428885 C20.6321411,8.75476074 21,9.44573523 21,9.9955775 L21,20 C21,20.5 20.5,21 20,21 L17.5,21 L15,21 L11.5,21 L9,21 C8.5,21 8,20.5 8,20 L8,9.9955775 C8,9.44483697 8.37414097,8.75057268 8.83566725,8.4428885 L10.1643327,7.5571115 C10.6321411,7.24523926 11.4490268,7 12.0029293,7 Z M11.1052949,9.44735253 L10.8947051,9.55264747 C10.4047298,9.79763508 10,10.4519098 10,11.0093689 L10,12.9906311 C10,13.5566468 10.446616,14 10.9975446,14 L18.0024554,14 C18.5536886,14 19,13.5480902 19,12.9906311 L19,11.0093689 C19,10.4433532 18.5994269,9.79971345 18.1052949,9.55264747 L17.8947051,9.44735253 C17.4047298,9.20236492 16.5523709,9 16.0001925,9 L12.9998075,9 C12.4437166,9 11.5994269,9.20028655 11.1052949,9.44735253 Z M11,17 C10.446,17 10,17.446 10,18 C10,18.554 10.446,19 11,19 C11.554,19 12,18.554 12,18 C12,17.446 11.554,17 11,17 Z M18,17 C17.446,17 17,17.446 17,18 C17,18.554 17.446,19 18,19 C18.554,19 19,18.554 19,18 C19,17.446 18.554,17 18,17 Z"/>
  </g>
</svg>
