<?xml version="1.0" encoding="UTF-8"?>
<svg width="24px" height="24px" viewBox="0 0 24 24" version="1.1" xmlns="http://www.w3.org/2000/svg" xmlns:xlink="http://www.w3.org/1999/xlink">
    <title>train-m</title>
    <g id="Page-1" stroke="none" stroke-width="1" fill="none" fill-rule="evenodd">
        <g id="train-m" fill-rule="nonzero">
            <rect id="Rectangle" fill="#FFFFFF" opacity="0.6" x="0" y="0" width="24" height="24" rx="2.5"></rect>
            <rect id="Rectangle" fill="#2F6499" x="1" y="1" width="22" height="22" rx="2"></rect>
            <path d="M11.8947368,5 C8.94736842,5 6,5.36842105 6,7.94736842 L6,14.9473684 C6,16.3694737 7.15684211,17.5263158 8.57894737,17.5263158 L7.47368421,18.6315789 L7.47368421,19 L9.11684211,19 L10.5905263,17.5263158 L13.3684211,17.5263158 L14.8421053,19 L16.3157895,19 L16.3157895,18.6315789 L15.2105263,17.5263158 C16.6326316,17.5263158 17.7894737,16.3694737 17.7894737,14.9473684 L17.7894737,7.94736842 C17.7894737,5.36842105 15.1515789,5 11.8947368,5 Z M8.57894737,16.0526316 C7.96736842,16.0526316 7.47368421,15.5589474 7.47368421,14.9473684 C7.47368421,14.3357895 7.96736842,13.8421053 8.57894737,13.8421053 C9.19052632,13.8421053 9.68421053,14.3357895 9.68421053,14.9473684 C9.68421053,15.5589474 9.19052632,16.0526316 8.57894737,16.0526316 Z M11.1578947,10.8947368 L7.47368421,10.8947368 L7.47368421,7.94736842 L11.1578947,7.94736842 L11.1578947,10.8947368 Z M12.6315789,10.8947368 L12.6315789,7.94736842 L16.3157895,7.94736842 L16.3157895,10.8947368 L12.6315789,10.8947368 Z M15.2105263,16.0526316 C14.5989474,16.0526316 14.1052632,15.5589474 14.1052632,14.9473684 C14.1052632,14.3357895 14.5989474,13.8421053 15.2105263,13.8421053 C15.8221053,13.8421053 16.3157895,14.3357895 16.3157895,14.9473684 C16.3157895,15.5589474 15.8221053,16.0526316 15.2105263,16.0526316 Z" id="Shape" fill="#FFFFFF"></path>
        </g>
    </g>
</svg>