<?xml version="1.0" encoding="UTF-8" standalone="no"?>
<svg width="27px" height="27px" viewBox="0 0 27 27" version="1.1" xmlns="http://www.w3.org/2000/svg" xmlns:xlink="http://www.w3.org/1999/xlink" xmlns:sketch="http://www.bohemiancoding.com/sketch/ns">
    <!-- Generator: Sketch 3.3.3 (12072) - http://www.bohemiancoding.com/sketch -->
    <title>train-l</title>
    <desc>Created with Sketch.</desc>
    <defs></defs>
    <g id="Icons" stroke="none" stroke-width="1" fill="none" fill-rule="evenodd" sketch:type="MSPage">
        <g id="transport" sketch:type="MSLayerGroup" transform="translate(0.000000, -182.000000)">
            <g id="train-l" transform="translate(0.000000, 182.000000)" sketch:type="MSShapeGroup">
                <circle id="Oval-1-Copy-39" fill="#FFFFFF" cx="13.5" cy="13.5" r="13.5"></circle>
                <circle id="Oval-1-Copy-38" fill="#3C3E38" cx="13.5" cy="13.5" r="12.5"></circle>
                <g id="g24855" transform="translate(7.000000, 4.000000)" fill="#FFFFFF">
                    <path d="M4.00292933,0 C3.44902676,0 2.63214111,0.245239258 2.16433275,0.557111502 L0.835667253,1.4428885 C0.374140973,1.75057268 0,2.44483697 0,2.9955775 L0,13 C0,13.5 0.5,14 1,14 L3.5,14 L7,14 L9.5,14 L12,14 C12.5,14 13,13.5 13,13 L13,2.9955775 C13,2.44573523 12.6321411,1.75476074 12.1643327,1.4428885 L10.8356673,0.557111502 C10.374141,0.249427315 9.56211865,0 8.99707067,0 L4.00292933,0 Z M3.10529494,2.44735253 C3.5994269,2.20028655 4.44371665,2 4.99980749,2 L8.00019251,2 C8.55237094,2 9.40472984,2.20236492 9.89470506,2.44735253 L10.1052949,2.55264747 C10.5994269,2.79971345 11,3.44335318 11,4.0093689 L11,5.9906311 C11,6.54809015 10.5536886,7 10.0024554,7 L2.99754465,7 C2.44661595,7 2,6.55664682 2,5.9906311 L2,4.0093689 C2,3.45190985 2.40472984,2.79763508 2.89470506,2.55264747 L3.10529494,2.44735253 Z M3,10 C3.554,10 4,10.446 4,11 C4,11.554 3.554,12 3,12 C2.446,12 2,11.554 2,11 C2,10.446 2.446,10 3,10 L3,10 Z M10,10 C10.554,10 11,10.446 11,11 C11,11.554 10.554,12 10,12 C9.446,12 9,11.554 9,11 C9,10.446 9.446,10 10,10 L10,10 Z" id="path24859"></path>
                    <rect id="Rectangle-308" transform="translate(10.000000, 16.500000) rotate(-35.000000) translate(-10.000000, -16.500000) " x="9" y="14" width="2" height="5" rx="0.5"></rect>
                    <rect id="Rectangle-308-Copy" transform="translate(3.000000, 16.500000) scale(-1, 1) rotate(-35.000000) translate(-3.000000, -16.500000) " x="2" y="14" width="2" height="5" rx="0.5"></rect>
                </g>
            </g>
        </g>
    </g>
</svg>