<svg width="28" height="28" viewBox="0 0 28 28">
  <g fill="none" fill-rule="evenodd">
    <rect width="28" height="28" fill="#FFF" opacity=".6" rx="3.5"/>
    <rect width="26" height="26" x="1" y="1" fill="#2F6499" rx="3"/>
    <path fill="#FFF" d="M12.0029293,9 C11.4490268,9 10.6321411,9.24523926 10.1643327,9.5571115 L8.83566725,10.4428885 C8.37414097,10.7505727 8,11.444837 8,11.9955775 L8,22 C8,22.5 8.5,23 9,23 L11.5,23 L15,23 L17.5,23 L20,23 C20.5,23 21,22.5 21,22 L21,11.9955775 C21,11.4457352 20.6321411,10.7547607 20.1643327,10.4428885 L18.8356673,9.5571115 C18.374141,9.24942732 17.5621186,9 16.9970707,9 L12.0029293,9 Z M11.1052949,11.4473525 C11.5994269,11.2002865 12.4437166,11 12.9998075,11 L16.0001925,11 C16.5523709,11 17.4047298,11.2023649 17.8947051,11.4473525 L18.1052949,11.5526475 C18.5994269,11.7997135 19,12.4433532 19,13.0093689 L19,14.9906311 C19,15.5480902 18.5536886,16 18.0024554,16 L10.9975446,16 C10.446616,16 10,15.5566468 10,14.9906311 L10,13.0093689 C10,12.4519098 10.4047298,11.7976351 10.8947051,11.5526475 L11.1052949,11.4473525 Z M11,19 C11.554,19 12,19.446 12,20 C12,20.554 11.554,21 11,21 C10.446,21 10,20.554 10,20 C10,19.446 10.446,19 11,19 L11,19 Z M18,19 C18.554,19 19,19.446 19,20 C19,20.554 18.554,21 18,21 C17.446,21 17,20.554 17,20 C17,19.446 17.446,19 18,19 Z M9,6 C9,5.44771525 9.44483697,5 9.9955775,5 L19.0044225,5 C19.5542648,5 20,5.44386482 20,6 C20,6.55228475 19.555163,7 19.0044225,7 L9.9955775,7 C9.44573523,7 9,6.55613518 9,6 Z M16,7 L17,7 L17,9 L16,9 L16,7 Z M12,7 L13,7 L13,9 L12,9 L12,7 Z"/>
  </g>
</svg>
