<?xml version="1.0" encoding="utf-8"?>
<!-- Generator: Adobe Illustrator 21.1.0, SVG Export Plug-In . SVG Version: 6.00 Build 0)  -->
<svg version="1.1" id="Layer_1" xmlns="http://www.w3.org/2000/svg" xmlns:xlink="http://www.w3.org/1999/xlink" x="0px" y="0px"
	 viewBox="0 0 24 24" style="enable-background:new 0 0 24 24;" xml:space="preserve">
<style type="text/css">
	.st0{fill:#FFFFFF;}
</style>
<g>
	<path class="st0" d="M18.3,6.3c-0.1-1.5-1.3-2.6-2.7-2.6H8.5C7,3.6,5.8,4.8,5.7,6.3l-0.4,9.6c0,0,0,0.1,0,0.1
		c0,1.5,1.2,2.7,2.7,2.7h2.1V18c0-0.6,0.5-1.1,1.1-1.1h1.9c0.6,0,1.1,0.5,1.1,1.1v0.7H16c0,0,0.1,0,0.1,0c1.5-0.1,2.7-1.3,2.6-2.9
		L18.3,6.3z M13.8,14.2c0,0.3-0.2,0.5-0.5,0.5H11c-0.3,0-0.5-0.2-0.5-0.5V14c0-0.3,0.2-0.5,0.5-0.5h2.3c0.3,0,0.5,0.2,0.5,0.5V14.2z
		 M15.3,12.1C15.3,12.1,15.2,12.1,15.3,12.1l-6.5,0c-0.8,0-1.4-0.6-1.4-1.4c0,0,0,0,0-0.1l0.2-3.6c0-0.8,0.6-1.4,1.4-1.4h6.1
		c0.7,0,1.3,0.6,1.4,1.4l0.2,3.6C16.6,11.4,16,12.1,15.3,12.1z"/>
	<path class="st0" d="M12.7,17.7h-0.9c-0.5,0-0.9,0.4-0.9,0.9v1.2c0,0.5,0.4,0.9,0.9,0.9h0.9c0.5,0,0.9-0.4,0.9-0.9v-1.2
		C13.5,18.1,13.2,17.7,12.7,17.7z"/>
</g>
</svg>
