<svg version="1.1" viewBox="0 0 12 16" xmlns="http://www.w3.org/2000/svg">
 <title>transit_train-m</title>
 <g fill="none" fill-rule="evenodd">
  <g id="transit_train-m" fill="#fff" fill-rule="nonzero">
   <path id="train-m-a" d="m3.0333 14 0.66667-1h-1.7l-2 3h0.62963c0.66871 0 1.2932-0.3342 1.6641-0.8906l0.072934-0.1094h7.2667l0.072934 0.1094c0.37093 0.5564 0.99539 0.8906 1.6641 0.8906h0.62963l-2-3h-1.7l0.66667 1h-5.9333zm0.3535-14h5.2263c1.612 0 2.9358 1.2739 2.9978 2.8847l0.30917 8.0384c0.042452 1.1038-0.8179 2.0329-1.9217 2.0754-0.02561 9.851e-4 -0.051237 0.0014777-0.076866 0.0014777h-7.8432c-1.1046 0-2-0.89543-2-2 0-0.025629 4.9264e-4 -0.051256 0.0014777-0.076866l0.30917-8.0384c0.061954-1.6108 1.3858-2.8847 2.9978-2.8847zm-0.46364 2.5c-0.52136 0-0.95524 0.40055-0.99682 0.92025l-0.24 3c-0.0021223 0.026529-0.0031847 0.053132-0.0031847 0.079745 0 0.55228 0.44772 1 1 1h6.6336c0.026614 0 0.053216-0.0010624 0.079745-0.0031847 0.55053-0.044042 0.96111-0.52603 0.91707-1.0766l-0.24-3c-0.041576-0.5197-0.47545-0.92025-0.99682-0.92025h-6.1536zm0.076805 8.5c0.55228 0 1-0.44772 1-1 0-0.55228-0.44772-1-1-1s-1 0.44772-1 1c0 0.55228 0.44772 1 1 1zm6 0c0.55228 0 1-0.44772 1-1 0-0.55228-0.44772-1-1-1s-1 0.44772-1 1c0 0.55228 0.44772 1 1 1zm-4.75-10c-0.13807 0-0.25 0.11193-0.25 0.25s0.11193 0.25 0.25 0.25h3.5c0.13807 0 0.25-0.11193 0.25-0.25s-0.11193-0.25-0.25-0.25h-3.5z"/>
  </g>
 </g>
</svg>
