<?xml version="1.0" encoding="UTF-8"?>
<svg width="10px" height="12px" viewBox="0 0 10 12" version="1.1" xmlns="http://www.w3.org/2000/svg" xmlns:xlink="http://www.w3.org/1999/xlink">
    <title>transit_monorail-s</title>
    <g id="Page-1" stroke="none" stroke-width="1" fill="none" fill-rule="evenodd">
        <g id="transit_monorail-s" fill="#FFFFFF" fill-rule="nonzero">
            <path d="M9.2,2.2 C9.2,1.2 8.4,0.5 7.4,0.5 L2.6,0.5 C1.6,0.5 0.8,1.3 0.8,2.2 L0.5,8.6 C0.5,8.6 0.5,8.7 0.5,8.7 C0.5,9.7 1.3,10.5 2.3,10.5 L3.7,10.5 L3.7,10 C3.7,9.6 4,9.3 4.4,9.3 L5.7,9.3 C6.1,9.3 6.4,9.6 6.4,10 L6.4,10.4 L7.6,10.4 C7.6,10.4 7.7,10.4 7.7,10.4 C8.7,10.4 9.5,9.5 9.4,8.5 L9.2,2.2 Z M6.2,7.5 C6.2,7.7 6.1,7.9 5.9,7.9 L4.3,7.9 C4.2,7.8 4,7.6 4,7.5 L4,7.3 C4,7.1 4.2,7 4.3,7 L5.9,7 C6.1,7 6.2,7.2 6.2,7.4 L6.2,7.5 L6.2,7.5 Z M7.2,6.1 C7.2,6.1 7.2,6.1 7.2,6.1 L2.9,6.1 C2.4,6.1 2,5.7 2,5.1 C2,5.1 2,5.1 2,5.1 L2,2.7 C2,2.2 2.4,1.8 2.9,1.8 L7,1.8 C7.5,1.8 7.9,2.2 7.9,2.7 L8,5.1 C8.1,5.6 7.7,6.1 7.2,6.1 Z" id="Shape"></path>
            <path d="M5.5,9.8 L4.9,9.8 C4.6,9.8 4.3,10.1 4.3,10.4 L4.3,11.2 C4.3,11.5 4.6,11.8 4.9,11.8 L5.5,11.8 C5.8,11.8 6.1,11.5 6.1,11.2 L6.1,10.4 C6,10 5.8,9.8 5.5,9.8 Z" id="Path"></path>
        </g>
    </g>
</svg>