<svg xmlns:xlink="http://www.w3.org/1999/xlink" width="16" height="16" viewBox="0 0 16 16">
  <defs>
    <path id="train-s-a" d="M2.62666651,11.6 L3.15999985,10.8 L1.8,10.8 L0.2,13.2 L0.703705834,13.2 C1.23867093,13.2 1.73824106,12.9326382 2.0349863,12.4875203 L2.09333318,12.4 L7.90666682,12.4 L7.9650137,12.4875203 C8.26175894,12.9326382 8.76132907,13.2 9.29629417,13.2 L9.8,13.2 L8.2,10.8 L6.84000015,10.8 L7.37333349,11.6 L2.62666651,11.6 L2.62666651,11.6 Z M2.9094668,0.4 L7.0905332,0.4 C8.38012773,0.4 9.43919688,1.41911877 9.48876002,2.70776051 L9.73609642,9.138507 C9.77005807,10.0215097 9.08177427,10.7648562 8.19877154,10.7988179 C8.17828334,10.7996059 8.15778189,10.8 8.13727854,10.8 L1.86272146,10.8 C0.979065856,10.8 0.262721456,10.0836556 0.262721456,9.2 C0.262721456,9.17949665 0.263115569,9.1589952 0.263903577,9.138507 L0.511239981,2.70776051 C0.560803124,1.41911877 1.61987227,0.4 2.9094668,0.4 Z M2.5385559,2.4 C2.12146732,2.4 1.77436451,2.72044354 1.74110368,3.13620381 L1.54910364,5.53620381 C1.54740579,5.55742683 1.54655586,5.57870917 1.54655586,5.6 C1.54655586,6.0418278 1.90472806,6.4 2.34655586,6.4 L7.65344384,6.4 C7.67473465,6.4 7.69601696,6.39915007 7.71723996,6.39745223 C8.15766067,6.3622186 8.48612969,5.97662459 8.45089607,5.53620388 L8.25889625,3.13620388 C8.22563546,2.72044358 7.87853264,2.4 7.46144403,2.4 L2.5385559,2.4 Z M2.6,9.2 C3.0418278,9.2 3.4,8.8418278 3.4,8.4 C3.4,7.9581722 3.0418278,7.6 2.6,7.6 C2.1581722,7.6 1.8,7.9581722 1.8,8.4 C1.8,8.8418278 2.1581722,9.2 2.6,9.2 Z M7.4,9.2 C7.8418278,9.2 8.2,8.8418278 8.2,8.4 C8.2,7.9581722 7.8418278,7.6 7.4,7.6 C6.9581722,7.6 6.6,7.9581722 6.6,8.4 C6.6,8.8418278 6.9581722,9.2 7.4,9.2 Z M3.6,1.2 C3.48954305,1.2 3.4,1.28954305 3.4,1.4 C3.4,1.51045695 3.48954305,1.6 3.6,1.6 L6.4,1.6 C6.51045695,1.6 6.6,1.51045695 6.6,1.4 C6.6,1.28954305 6.51045695,1.2 6.4,1.2 L3.6,1.2 Z"/>
  </defs>
  <g fill="none" fill-rule="evenodd" transform="translate(3 2)">
    <use fill="#FFF" xlink:href="#train-s-a"/>
  </g>
</svg>
