<svg version="1.1" viewBox="0 0 12 16" xmlns="http://www.w3.org/2000/svg">
 <title>transit_light_rail-m</title>
 <g fill="none" fill-rule="evenodd">
  <g id="transit_light_rail-m" fill="#fff" fill-rule="nonzero">
   <path id="Shape" d="m10.8 5.5c-0.1-1.2-1-2-2.1-2h-1.8v-0.9c0.4 0 0.9 0.1 1.4 0.2 0.4 0.1 0.8-0.2 1-0.7 0.1-0.5-0.2-0.9-0.7-1.1-0.9-0.2-1.8-0.3-2.6-0.3h-0.1c-1.5 0-2.6 0.3-2.7 0.3-0.4 0.2-0.6 0.7-0.5 1.2s0.6 0.8 1.1 0.7c0.2 0 0.7-0.2 1.3-0.2v0.9h-1.9c-1.1-0.1-2 0.8-2 1.9l-0.3 7.4v0.1c0 1.2 0.9 2.1 2.1 2.1h6.2 0.1c1.2-0.1 2.1-1.1 2-2.2l-0.5-7.4zm-8.4 3.7 0.1-2.9c0-0.7 0.5-1.2 1.1-1.2h4.8c0.6 0 1 0.5 1.1 1.2l0.1 2.9c0 0.7-0.4 1.2-1 1.2h-0.1-5c-0.6 0-1.1-0.5-1.1-1.2zm0.7 4.5c-0.5 0-0.9-0.4-0.9-0.9s0.4-0.9 0.9-0.9 0.9 0.3 0.9 0.8-0.4 1-0.9 1zm5.8 0c-0.5 0-0.9-0.4-0.9-0.9s0.4-0.9 0.9-0.9 0.9 0.4 0.9 0.9c0 0.4-0.4 0.9-0.9 0.9z"/>
  </g>
 </g>
</svg>
