<svg xmlns:xlink="http://www.w3.org/1999/xlink" width="24" height="24" viewBox="0 0 24 24">
  <defs>
    <path id="subway-l-a" d="M5.89338715,4.2 L12.1066128,4.2 C13.3897204,4.2 14.4458744,5.20923753 14.5041373,6.49102161 L14.8859555,14.8910216 C14.9461426,16.2151378 13.9215256,17.3373374 12.5974094,17.3975245 C12.5611067,17.3991746 12.5247712,17.4 12.488431,17.4 L5.51156897,17.4 C4.18608557,17.4 3.11156897,16.3254834 3.11156897,15 C3.11156897,14.9636598 3.11239435,14.9273243 3.11404447,14.8910216 L3.49586265,6.49102161 C3.55412557,5.20923753 4.61027959,4.2 5.89338715,4.2 Z M6.30785142,6 C5.66582957,6 5.13754106,6.5053305 5.10903486,7.14671919 L4.97570133,10.1467192 C4.97491247,10.1644685 4.9745179,10.1822332 4.9745179,10.2 C4.9745179,10.8627417 5.5117762,11.4 6.1745179,11.4 L11.8254817,11.4 C11.8432485,11.4 11.8610131,11.3996054 11.8787623,11.3988166 C12.5408505,11.3693905 13.0537243,10.8088074 13.0242982,10.1467193 L12.890965,7.14671931 C12.8624589,6.50533057 12.3341704,6 11.6921485,6 L6.30785142,6 Z M5.64000013,15.72 C6.1701935,15.72 6.60000014,15.2901934 6.60000014,14.76 C6.60000014,14.2298066 6.1701935,13.8 5.64000013,13.8 C5.10980676,13.8 4.68000011,14.2298066 4.68000011,14.76 C4.68000011,15.2901934 5.10980676,15.72 5.64000013,15.72 Z M12.36,15.72 C12.8901934,15.72 13.32,15.2901934 13.32,14.76 C13.32,14.2298066 12.8901934,13.8 12.36,13.8 C11.8298066,13.8 11.4,14.2298066 11.4,14.76 C11.4,15.2901934 11.8298066,15.72 12.36,15.72 Z M17.4,16.2 C16.7372583,16.2 16.2,15.6627417 16.2,15 L16.2,6.84 C16.2,4.05648486 13.9435151,1.8 11.16,1.8 L6.84,1.8 C4.05648486,1.8 1.8,4.05648486 1.8,6.84 L1.8,15 C1.8,15.6627417 1.2627417,16.2 0.6,16.2 L0.6,6.6 C0.6,3.2862915 3.2862915,0.6 6.6,0.6 L11.4,0.6 C14.7137085,0.6 17.4,3.2862915 17.4,6.6 L17.4,16.2 Z"/>
  </defs>
  <g fill="none" fill-rule="evenodd" transform="translate(3 3)">
    <use fill="#FFF" xlink:href="#subway-l-a"/>
  </g>
</svg>
