<svg version="1.1" viewBox="0 0 12 12" xmlns="http://www.w3.org/2000/svg">
 <title>transit_subway-s</title>
 <g fill="none" fill-rule="evenodd">
  <g id="transit_subway-s" fill="#fff" fill-rule="nonzero">
   <path id="subway-s-a" d="m3.9289 2.8h4.1422c0.85541 0 1.5595 0.67283 1.5983 1.5273l0.25455 5.6c0.040125 0.88274-0.64295 1.6309-1.5257 1.671-0.024202 0.0011-0.048425 0.0016503-0.072652 0.0016503h-4.6512c-0.88366 0-1.6-0.71634-1.6-1.6 0-0.024227 5.5026e-4 -0.04845 0.0016503-0.072652l0.25455-5.6c0.038842-0.85452 0.74294-1.5273 1.5983-1.5273zm0.27631 1.2c-0.42801 0-0.78021 0.33689-0.79921 0.76448l-0.088889 2c-5.259e-4 0.011833-7.8895e-4 0.023676-7.8895e-4 0.035521 0 0.44183 0.35817 0.8 0.8 0.8h3.7673c0.011845 0 0.023688-2.6305e-4 0.03552-7.8895e-4 0.44139-0.019617 0.78331-0.39334 0.76369-0.83473l-0.088889-2c-0.019004-0.42759-0.3712-0.76448-0.79921-0.76448h-3.5895zm-0.44523 6.48c0.35346 0 0.64-0.28654 0.64-0.64 0-0.35346-0.28654-0.64-0.64-0.64-0.35346 0-0.64 0.28654-0.64 0.64 0 0.35346 0.28654 0.64 0.64 0.64zm4.48 0c0.35346 0 0.64-0.28654 0.64-0.64 0-0.35346-0.28654-0.64-0.64-0.64-0.35346 0-0.64 0.28654-0.64 0.64 0 0.35346 0.28654 0.64 0.64 0.64zm3.36 0.32c-0.44183 0-0.8-0.35817-0.8-0.8v-5.44c0-1.8557-1.5043-3.36-3.36-3.36h-2.88c-1.8557 0-3.36 1.5043-3.36 3.36v5.44c0 0.44183-0.35817 0.8-0.8 0.8v-6.4c0-2.2091 1.7909-4 4-4h3.2c2.2091 0 4 1.7909 4 4v6.4z"/>
  </g>
 </g>
</svg>
