<svg xmlns:xlink="http://www.w3.org/1999/xlink" width="20" height="20" viewBox="0 0 20 20">
  <defs>
    <path id="subway-m-a" d="M4.41115596,3 L9.58884404,3 L9.58884404,3 C10.6581003,3 11.5382287,3.84103128 11.5867811,4.90918468 L11.9049629,11.9091847 L11.9049629,11.9091847 C11.9551189,13.0126149 11.1012714,13.9477812 9.99784118,13.9979371 C9.96758893,13.9993122 9.93730935,14 9.90702586,14 L4.09297414,14 L4.09297414,14 C2.98840464,14 2.09297414,13.1045695 2.09297414,12 C2.09297414,11.9697165 2.09366196,11.9394369 2.09503706,11.9091847 L2.41321888,4.90918468 L2.41321888,4.90918468 C2.46177131,3.84103128 3.34189966,3 4.41115596,3 Z M4.75654285,4.5 L4.75654285,4.5 C4.22152464,4.5 3.78128422,4.92110875 3.75752905,5.45559932 L3.75752905,5.45559932 L3.64641778,7.95559932 C3.6457604,7.97039042 3.64543158,7.9851943 3.64543158,8 C3.64543158,8.55228475 4.09314683,9 4.64543158,9 L9.35456805,9 C9.36937372,9 9.38417756,8.99967119 9.39896862,8.99901381 C9.95070871,8.97449205 10.3781036,8.50733952 10.3535819,7.95559943 L10.3535819,7.95559943 L10.2424709,5.45559943 C10.2187157,4.92110881 9.7784753,4.5 9.24345705,4.5 L4.75654285,4.5 Z M4.20000011,12.6 C4.64182791,12.6 5.00000012,12.2418278 5.00000012,11.8 C5.00000012,11.3581722 4.64182791,11 4.20000011,11 C3.7581723,11 3.4000001,11.3581722 3.4000001,11.8 C3.4000001,12.2418278 3.7581723,12.6 4.20000011,12.6 Z M9.80000001,12.6 C10.2418278,12.6 10.6,12.2418278 10.6,11.8 C10.6,11.3581722 10.2418278,11 9.80000001,11 C9.35817221,11 9,11.3581722 9,11.8 C9,12.2418278 9.35817221,12.6 9.80000001,12.6 Z M14,13 C13.4477153,13 13,12.5522847 13,12 L13,5.2 C13,2.88040405 11.1195959,1 8.8,1 L5.2,1 C2.88040405,1 1,2.88040405 1,5.2 L1,12 C1,12.5522847 0.55228475,13 6.123234e-17,13 L0,13 L0,5 C-4.4408921e-16,2.23857625 2.23857625,4.4408921e-16 5,0 L9,0 C11.7614237,-4.4408921e-16 14,2.23857625 14,5 L14,13 Z"/>
  </defs>
  <g fill="none" fill-rule="evenodd" transform="translate(3 3)">
    <use fill="#FFF" xlink:href="#subway-m-a"/>
  </g>
</svg>
