<?xml version="1.0" encoding="UTF-8"?>
<svg width="12px" height="15px" viewBox="0 0 12 15" version="1.1" xmlns="http://www.w3.org/2000/svg" xmlns:xlink="http://www.w3.org/1999/xlink">
    <title>transit_monorail-m</title>
    <g id="Page-1" stroke="none" stroke-width="1" fill="none" fill-rule="evenodd">
        <g id="transit_monorail-m" fill="#FFFFFF" fill-rule="nonzero">
            <path d="M11.2,2.2 C11.2,1 10.2,0 8.9,0 L3.1,0 C1.8,0 0.8,1 0.8,2.2 L0.4,10.2 C0.4,10.2 0.4,10.3 0.4,10.3 C0.4,11.6 1.4,12.6 2.7,12.6 L4.5,12.6 L4.5,12 C4.5,11.5 4.9,11.1 5.4,11.1 L7,11.1 C7.5,11.1 7.9,11.5 7.9,12 L7.9,12.5 L9.4,12.5 C9.4,12.5 9.5,12.5 9.5,12.5 C10.8,12.4 11.7,11.4 11.7,10.1 L11.2,2.2 Z M7.5,8.8 C7.5,9 7.3,9.2 7.1,9.2 L5.2,9.2 C5,9.2 4.8,9 4.8,8.8 L4.8,8.6 C4.8,8.4 5,8.2 5.2,8.2 L7.1,8.2 C7.3,8.2 7.5,8.4 7.5,8.6 L7.5,8.8 Z M8.7,7.1 C8.7,7.1 8.7,7.1 8.7,7.1 L3.3,7.1 C2.7,7.1 2.2,6.6 2.2,5.9 C2.2,5.9 2.2,5.9 2.2,5.8 L2.3,2.8 C2.3,2.2 2.8,1.7 3.4,1.7 L8.5,1.7 C9.1,1.7 9.6,2.2 9.6,2.8 L9.7,5.8 C9.8,6.5 9.4,7.1 8.7,7.1 Z" id="Shape"></path>
            <path d="M6.6,11.7 L5.8,11.7 C5.4,11.7 5.1,12 5.1,12.4 L5.1,13.4 C5.1,13.8 5.4,14.1 5.8,14.1 L6.5,14.1 C6.9,14.1 7.2,13.8 7.2,13.4 L7.2,12.4 C7.3,12 7,11.7 6.6,11.7 Z" id="Path"></path>
        </g>
    </g>
</svg>