<?xml version="1.0" encoding="UTF-8" standalone="no"?>
<svg width="23px" height="23px" viewBox="0 0 23 23" version="1.1" xmlns="http://www.w3.org/2000/svg" xmlns:xlink="http://www.w3.org/1999/xlink">
    <!-- Generator: Sketch 3.8.3 (29802) - http://www.bohemiancoding.com/sketch -->
    <title>travel_agency_shop-m</title>
    <desc>Created with Sketch.</desc>
    <defs>
        <path d="M22,11.5 C22,17.299 17.299,22 11.5,22 C5.701,22 1,17.299 1,11.5 C1,5.701 5.701,1 11.5,1 C17.299,1 22,5.701 22,11.5 L22,11.5 Z" id="path-1"></path>
        <path d="M17.6785129,8.99358623 C16.8149633,6.63273593 13.6726861,7.24837595 13.6726861,7.24837595 C11.7609329,3.96366202 8.09462258,5.24687322 8.09462258,5.24687322 C10.8442523,5.88847882 11.7348479,7.76190259 11.7348479,7.76190259 C6.60256266,6.29921941 6,10.8154824 6,10.8154824 C8.19539292,9.31512898 10.2002283,9.57599568 11.0109215,9.77632083 L10.7919451,9.96830475 C10.7919451,9.96830475 7.44043915,11.867425 6.26208524,17.4099341 C6.26208524,17.4099341 6.40637628,17.9720285 7.30328716,17.9989359 C8.19951159,18.0257087 8.19951159,17.5384167 8.19951159,17.5384167 C8.19951159,17.5384167 9.50842762,12.2262345 11.6559066,10.3530797 L11.8246351,10.1580015 C13.4535724,11.4675819 12.7739905,15.1003423 12.7739905,15.1003423 C15.986697,13.3554011 13.9078627,8.93398646 13.9078627,8.93398646 C17.1249625,9.51612684 17.3902054,12.8681092 17.3902054,12.8681092 C17.3902054,12.8681092 18.5430235,11.3538984 17.6785129,8.99358623 L17.6785129,8.99358623 L17.6785129,8.99358623 Z" id="path-2"></path>
    </defs>
    <g id="POI-Clear" stroke="none" stroke-width="1" fill="none" fill-rule="evenodd">
        <g id="travel_agency_shop-m">
            <path d="M11.5,23 C5.159,23 0,17.841 0,11.5 C0,5.159 5.159,0 11.5,0 C17.841,0 23,5.159 23,11.5 C23,17.841 17.841,23 11.5,23 L11.5,23 Z" id="Shape" fill-opacity="0.6" fill="#FFFFFF"></path>
            <g id="Shape">
                <use fill="#2D7970" xlink:href="#path-1"></use>
                <use fill="#825089" xlink:href="#path-1"></use>
            </g>
            <g id="Shape" fill="#FFFFFF">
                <use xlink:href="#path-2"></use>
                <use xlink:href="#path-2"></use>
            </g>
        </g>
    </g>
</svg>