<svg width="28" height="28" viewBox="0 0 28 28">
  <g fill="none" fill-rule="evenodd">
    <circle cx="14" cy="14" r="14" fill="#FFF" opacity=".6"/>
    <circle cx="14" cy="14" r="13" fill="#8C5F93"/>
    <path fill="#FFF" fill-rule="nonzero" d="M16.5375,7.00166955 C15.6114,7.04716413 14.9345,7.78487614 14.7,9.10141912 C12.4691,6.54252431 9.8,7.87306562 9.8,10.5012522 C10.6505,9.74114282 12.69695,9.3262673 13.60625,10.2606559 C11.63295,10.0394822 7.9114,12.4659178 11.025,15.4006678 C11.025,13.3829135 12.5368982,12.0034843 13.978125,11.5073822 C13.9069938,14.3009408 12.9112893,16.1180004 11.59375,17.587907 C11.40755,17.7950822 11.167275,17.9924587 10.959375,18.2003339 L10.71875,18.4409302 C10.88045,18.451429 11.0285,18.484675 11.2,18.484675 C12.4292,18.484675 13.46345,18.0510767 14.48125,17.6535241 C14.56035,17.4267512 14.6356,17.1908793 14.7,16.9536076 C15.1049437,15.4610524 15.3722114,13.6084105 15.4,11.5511269 C16.8104846,12.2232498 17.15,14.177675 17.15,15.4006678 C21.2772,11.7841991 16.78005,9.96039167 15.79375,10.2606559 C16.31665,9.86240336 17.5707,9.38068581 18.9,10.5012522 C19.0827,10.6559337 19.4229,10.9953932 19.6,11.2011687 C19.6,8.72976345 17.3579,7.82792101 15.925,8.79520564 C16.1462,8.19887676 16.7398,7.4314183 17.5,7.43911738 C17.2067,7.14725219 16.9582,6.98137197 16.5375,7.00166955 Z M7,18.2003339 C7,18.2003339 8.0689,21 11.2,21 C14.7623,21 14.753025,19.4470602 17.128125,19.4470602 C19.395425,19.4477601 21,20.3000835 21,20.3000835 C20.5905,19.0850284 19.0162,18.2003339 17.15,18.2003339 C16.401,18.2108327 15.6401,18.375313 15.05,18.6377817 C13.846,19.0738297 12.6546,19.6876565 11.2,19.6876565 C8.5008,19.6883564 7,18.2003339 7,18.2003339 Z"/>
  </g>
</svg>
