<svg width="24" height="24" viewBox="0 0 24 24">
  <g fill="none" fill-rule="evenodd">
    <circle cx="12" cy="12" r="12" fill="#FFF" opacity=".6"/>
    <circle cx="12" cy="12" r="11" fill="#8C5F93"/>
    <path fill="#FFF" fill-rule="nonzero" d="M14.175,6.00143104 C13.3812,6.04042639 12.801,6.67275098 12.6,7.80121639 C10.6878,5.60787798 8.4,6.74834196 8.4,9.00107328 C9.129,8.34955099 10.8831,7.9939434 11.6625,8.79484788 C9.9711,8.60527049 6.7812,10.6850724 9.45,13.2005724 C9.45,11.4710687 10.7459128,10.2887008 11.98125,9.86347043 C11.9202804,12.2579492 11.0668194,13.8154289 9.9375,15.0753488 C9.7779,15.2529276 9.57195,15.4221075 9.39375,15.6002862 L9.1875,15.8065116 C9.3261,15.8155105 9.453,15.8440071 9.6,15.8440071 C10.6536,15.8440071 11.5401,15.4723515 12.4125,15.1315921 C12.4803,14.9372153 12.5448,14.7350394 12.6,14.5316637 C12.9470946,13.2523306 13.1761812,11.6643518 13.2,9.90096595 C14.4089868,10.4770712 14.7,12.1522928 14.7,13.2005724 C18.2376,10.1007421 14.3829,8.53747858 13.5375,8.79484788 C13.9857,8.45348859 15.0606,8.04058784 16.2,9.00107328 C16.3566,9.13365747 16.6482,9.42462277 16.8,9.60100173 C16.8,7.48265438 14.8782,6.70964658 13.65,7.53874769 C13.8396,7.02760865 14.3484,6.36978711 15,6.37638632 C14.7486,6.12621616 14.5356,5.98403312 14.175,6.00143104 Z M6,15.6002862 C6,15.6002862 6.9162,18 9.6,18 C12.6534,18 12.64545,16.6689088 14.68125,16.6689088 C16.62465,16.6695087 18,17.4000716 18,17.4000716 C17.649,16.3585958 16.2996,15.6002862 14.7,15.6002862 C14.058,15.6092851 13.4058,15.7502683 12.9,15.9752415 C11.868,16.3489969 10.8468,16.8751342 9.6,16.8751342 C7.2864,16.8757341 6,15.6002862 6,15.6002862 Z"/>
  </g>
</svg>
