<svg height="24" viewBox="0 0 24 24" width="24"><g fill="none" fill-rule="evenodd"><circle cx="12" cy="12" fill="#fff" opacity=".6" r="12"/><circle cx="12" cy="12" fill="#8c5f93" r="11"/><path d="m14.175 6.00143104c-.7938.03899535-1.374.67131994-1.575 1.79978535-1.9122-2.19333841-4.2-1.05287443-4.2 1.19985689.729-.65152229 2.4831-1.00712988 3.2625-.2062254-1.6914-.18957739-4.8813 1.89022452-2.2125 4.40572452 0-1.7295037 1.2959128-2.9118716 2.53125-3.33710197-.0609696 2.39447877-.9144306 3.95195847-2.04375 5.21187837-.1596.1775788-.36555.3467587-.54375.5249374l-.20625.2062254c.1386.0089989.2655.0374955.4125.0374955 1.0536 0 1.9401-.3716556 2.8125-.712415.0678-.1943768.1323-.3965527.1875-.5999284.3470946-1.2793331.5761812-2.8673119.6-4.63069775 1.2089868.57610525 1.5 2.25132685 1.5 3.29960645 3.5376-3.0998303-.3171-4.66309382-1.1625-4.40572452.4482-.34135929 1.5231-.75426004 2.6625.2062254.1566.13258419.4482.42354949.6.59992845 0-2.11834735-1.9218-2.89135515-3.15-2.06225404.1896-.51113904.6984-1.16896058 1.35-1.16236137-.2514-.25017016-.4644-.3923532-.825-.37495528zm-8.175 9.59885516s.9162 2.3997138 3.6 2.3997138c3.0534 0 3.04545-1.3310912 5.08125-1.3310912 1.9434.0005999 3.31875.7311628 3.31875.7311628-.351-1.0414758-1.7004-1.7997854-3.3-1.7997854-.642.0089989-1.2942.1499821-1.8.3749553-1.032.3737554-2.0532.8998927-3.3.8998927-2.3136.0005999-3.6-1.274848-3.6-1.274848z" fill="#fff" fill-rule="nonzero"/></g></svg>