<?xml version="1.0" encoding="UTF-8" standalone="no"?>
<svg width="27px" height="27px" viewBox="0 0 27 27" version="1.1" xmlns="http://www.w3.org/2000/svg" xmlns:xlink="http://www.w3.org/1999/xlink">
    <!-- Generator: Sketch 3.8.3 (29802) - http://www.bohemiancoding.com/sketch -->
    <title>travel_agency_shop-l</title>
    <desc>Created with Sketch.</desc>
    <defs>
        <path d="M26,13.5 C26,20.403 20.403,26 13.5,26 C6.597,26 1,20.403 1,13.5 C1,6.597 6.597,1 13.5,1 C20.403,1 26,6.597 26,13.5 L26,13.5 L26,13.5 Z" id="path-1"></path>
        <path d="M21.5981411,10.222382 C20.5187041,7.13511622 16.5908576,7.94018393 16.5908576,7.94018393 C14.2011661,3.6447888 9.61827823,5.32283421 9.61827823,5.32283421 C13.0553154,6.16185692 14.1685599,8.61171877 14.1685599,8.61171877 C7.75320332,6.69897923 7,12.6048616 7,12.6048616 C9.74424115,10.642861 12.2502854,10.9839943 13.2636519,11.245958 L12.9899314,11.4970139 C12.9899314,11.4970139 8.80054894,13.9804789 7.32760655,21.2283754 C7.32760655,21.2283754 7.50797035,21.9634219 8.62910895,21.9986084 C9.74938949,22.033619 9.74938949,21.396391 9.74938949,21.396391 C9.74938949,21.396391 11.3855345,14.4496912 14.0698833,12.0001812 L14.2807939,11.7450789 C16.3169655,13.4576071 15.4674881,18.2081399 15.4674881,18.2081399 C19.4833713,15.9262937 16.8848283,10.1444438 16.8848283,10.1444438 C20.9062031,10.9057043 21.2377567,15.2890658 21.2377567,15.2890658 C21.2377567,15.2890658 22.6787793,13.308944 21.5981411,10.222382 L21.5981411,10.222382 L21.5981411,10.222382 Z" id="path-2"></path>
    </defs>
    <g id="POI-Clear" stroke="none" stroke-width="1" fill="none" fill-rule="evenodd">
        <g id="travel_agency_shop-l">
            <g id="tourist-office-l">
                <g id="POI">
                    <g id="tourist-office-l">
                        <path d="M13.5,27 C6.057,27 0,20.943 0,13.5 C0,6.057 6.057,0 13.5,0 C20.943,0 27,6.057 27,13.5 C27,20.943 20.943,27 13.5,27 L13.5,27 L13.5,27 Z" id="Shape" fill-opacity="0.6" fill="#FFFFFF"></path>
                        <g id="Shape">
                            <use fill="#2D7970" xlink:href="#path-1"></use>
                            <use fill="#825089" xlink:href="#path-1"></use>
                        </g>
                    </g>
                    <g id="Shape" fill="#FFFFFF">
                        <use xlink:href="#path-2"></use>
                        <use xlink:href="#path-2"></use>
                    </g>
                </g>
            </g>
        </g>
    </g>
</svg>