<?xml version="1.0" encoding="UTF-8" standalone="no"?>
<svg width="27px" height="27px" viewBox="0 0 27 27" version="1.1" xmlns="http://www.w3.org/2000/svg" xmlns:xlink="http://www.w3.org/1999/xlink" xmlns:sketch="http://www.bohemiancoding.com/sketch/ns">
    <!-- Generator: Sketch 3.4.2 (15857) - http://www.bohemiancoding.com/sketch -->
    <title>vending-l</title>
    <desc>Created with Sketch.</desc>
    <defs></defs>
    <g id="POI" stroke="none" stroke-width="1" fill="none" fill-rule="evenodd" sketch:type="MSPage">
        <g id="beverages-m" sketch:type="MSLayerGroup" transform="translate(-3.000000, -21.000000)">
            <path d="M11.5,23 C5.159,23 0,17.841 0,11.5 C0,5.159 5.159,0 11.5,0 C17.841,0 23,5.159 23,11.5 C23,17.841 17.841,23 11.5,23 L11.5,23 Z" id="Shape" fill="#FFFFFF" sketch:type="MSShapeGroup"></path>
            <path d="M22,11.5 C22,17.299 17.299,22 11.5,22 C5.701,22 1,17.299 1,11.5 C1,5.701 5.701,1 11.5,1 C17.299,1 22,5.701 22,11.5 L22,11.5 Z" id="Shape" fill="#7F7D54" sketch:type="MSShapeGroup"></path>
        </g>
        <g id="vending-l" sketch:type="MSLayerGroup">
            <path d="M13.5,27 C6.056,27 0,20.943 0,13.5 C0,6.057 6.056,0 13.5,0 C20.944,0 27,6.057 27,13.5 C27,20.943 20.944,27 13.5,27 L13.5,27 Z" id="Shape" fill="#FFFFFF" sketch:type="MSShapeGroup"></path>
            <path d="M26,13.5 C26,20.403 20.403,26 13.5,26 C6.597,26 1,20.403 1,13.5 C1,6.597 6.597,1 13.5,1 C20.403,1 26,6.597 26,13.5 L26,13.5 Z" id="Shape" fill="#7F7D54" sketch:type="MSShapeGroup"></path>
            <path d="M19,5 L8,5 C7.448,5 7,5.447 7,6 L7,21 C7,21.553 7.448,22 8,22 L19,22 C19.552,22 20,21.553 20,21 L20,6 C20,5.447 19.552,5 19,5 L19,5 Z M16,20 L9,20 L9,18 L16,18 L16,20 L16,20 Z M16,17 L9,17 L9,7 L16,7 L16,17 L16,17 Z M19,9 L17,9 L17,7 L19,7 L19,9 L19,9 Z" id="Shape" fill="#FFFFFF" sketch:type="MSShapeGroup"></path>
        </g>
    </g>
</svg>