<?xml version="1.0" encoding="UTF-8"?>
<svg width="24px" height="24px" viewBox="0 0 24 24" version="1.1" xmlns="http://www.w3.org/2000/svg" xmlns:xlink="http://www.w3.org/1999/xlink">
    <!-- Generator: Sketch 47 (45396) - http://www.bohemiancoding.com/sketch -->
    <title>vending-m</title>
    <desc>Created with Sketch.</desc>
    <defs></defs>
    <g id="Icons" stroke="none" stroke-width="1" fill="none" fill-rule="evenodd">
        <g id="Icons-Light" transform="translate(-1678.000000, -1368.000000)">
            <g id="vending-m" transform="translate(1678.000000, 1368.000000)">
                <circle id="border" fill="#717065" cx="12" cy="12" r="12"></circle>
                <path d="M16.0909091,5 L7.90909091,5 C7.40727273,5 7,5.4172 7,5.93333333 L7,18.0666667 C7,18.5828 7.40727273,19 7.90909091,19 L16.0909091,19 C16.5927273,19 17,18.5828 17,18.0666667 L17,5.93333333 C17,5.4172 16.5927273,5 16.0909091,5 L16.0909091,5 Z M14.2727273,17.1333333 L8.81818182,17.1333333 L8.81818182,15.2666667 L14.2727273,15.2666667 L14.2727273,17.1333333 L14.2727273,17.1333333 Z M14.2727273,14.3333333 L8.81818182,14.3333333 L8.81818182,6.86666667 L14.2727273,6.86666667 L14.2727273,14.3333333 L14.2727273,14.3333333 Z M16.0909091,8.73333333 L15.1818182,8.73333333 L15.1818182,6.86666667 L16.0909091,6.86666667 L16.0909091,8.73333333 L16.0909091,8.73333333 Z" id="icon" fill="#FFFFFF"></path>
            </g>
        </g>
    </g>
</svg>