<?xml version="1.0" encoding="UTF-8" standalone="no"?>
<svg width="23px" height="23px" viewBox="0 0 23 23" version="1.1" xmlns="http://www.w3.org/2000/svg" xmlns:xlink="http://www.w3.org/1999/xlink">
    <!-- Generator: Sketch 3.8.3 (29802) - http://www.bohemiancoding.com/sketch -->
    <title>vending-m</title>
    <desc>Created with Sketch.</desc>
    <defs></defs>
    <g id="POI-Clear" stroke="none" stroke-width="1" fill="none" fill-rule="evenodd">
        <g id="vending-m" fill="#717065">
            <path d="M16,4 L7,4 C6.448,4 6,4.447 6,5 L6,18 C6,18.553 6.448,19 7,19 L16,19 C16.552,19 17,18.553 17,18 L17,5 C17,4.447 16.552,4 16,4 L16,4 Z M14,17 L8,17 L8,15 L14,15 L14,17 L14,17 Z M14,14 L8,14 L8,6 L14,6 L14,14 L14,14 Z M16,8 L15,8 L15,6 L16,6 L16,8 L16,8 Z" id="Shape"></path>
        </g>
    </g>
</svg>