<?xml version="1.0" encoding="UTF-8" standalone="no"?>
<svg width="27px" height="27px" viewBox="0 0 27 27" version="1.1" xmlns="http://www.w3.org/2000/svg" xmlns:xlink="http://www.w3.org/1999/xlink">
    <!-- Generator: Sketch 3.8.3 (29802) - http://www.bohemiancoding.com/sketch -->
    <title>veterinary-l</title>
    <desc>Created with Sketch.</desc>
    <defs></defs>
    <g id="POI-Clear" stroke="none" stroke-width="1" fill="none" fill-rule="evenodd">
        <g id="veterinary-l">
            <g id="POI">
                <g>
                    <g id="hospital-l">
                        <circle id="Oval-1-Copy-39" fill-opacity="0.6" fill="#FFFFFF" cx="13.5" cy="13.5" r="13.5"></circle>
                        <circle id="Oval-1-Copy-38" fill="#C15746" cx="13.5" cy="13.5" r="12.5"></circle>
                        <path d="M18.3291762,12.8638632 C17.8922842,13.1334268 17.5636523,13.4740155 17.341997,13.8860448 C17.2333089,14.1124117 17.1669834,14.3242413 17.1430207,14.5219489 C17.1104998,14.7678374 17.1387416,15.0058342 17.2268903,15.23677 C17.3561179,15.5254397 17.5550942,15.7335311 17.824675,15.8606289 C17.9954095,15.9466068 18.1913905,16.0051714 18.4130458,16.0367382 C18.7249893,16.0641514 19.0626072,16.0138938 19.4241878,15.8876268 C19.6672384,15.7821273 19.8965961,15.6479686 20.1122607,15.4855659 C20.3998136,15.2571222 20.616334,15.0033421 20.7613942,14.7242254 L20.8606684,14.5157187 C20.9150124,14.4031582 20.953524,14.2631846 20.9753472,14.0970437 C21.0237006,13.8216653 21.0010216,13.566639 20.9064543,13.3323804 C20.7874964,13.057002 20.6005015,12.8484952 20.3446137,12.7081062 C20.183721,12.6142366 19.9975819,12.556918 19.7861963,12.5353197 C19.4579924,12.4962766 19.1237978,12.5373965 18.7836125,12.6582639 C18.6282826,12.7172439 18.4763759,12.785777 18.3291762,12.8638632 L18.3291762,12.8638632 L18.3291762,12.8638632 Z M18.667222,8.12677216 C18.4558364,8.05242413 18.2465904,8.02584159 18.0390559,8.04785525 C17.7651961,8.06114652 17.4900525,8.13674061 17.2123415,8.27339146 C16.9265002,8.41004231 16.6505008,8.60650387 16.3851991,8.86236079 C16.1652554,9.08706629 15.9786883,9.34458461 15.8233585,9.63574646 C15.7484749,9.7898421 15.6975541,9.91195562 15.6693123,10.0016717 C15.6055543,10.1852573 15.5619079,10.3754886 15.5396567,10.5731962 C15.5097033,10.8485747 15.5439358,11.1197996 15.6419263,11.3872864 C15.7608842,11.701708 15.9714139,11.9384587 16.2730877,12.0967078 C16.4438222,12.1826857 16.631673,12.2370969 16.8345004,12.2607719 C17.0843976,12.2798781 17.3591132,12.2433271 17.6586475,12.1490422 C17.9325073,12.0514345 18.2012323,11.9002463 18.4648225,11.6950623 C18.8293984,11.4117922 19.1109606,11.0732802 19.3099369,10.6786957 C19.4306064,10.4577283 19.5093411,10.2342689 19.5457131,10.0074866 C19.6081874,9.71466336 19.6150339,9.43845419 19.5666805,9.17844376 C19.4845226,8.7589381 19.2680021,8.44617795 18.917975,8.24099399 L18.9059936,8.2235492 L18.6916127,8.12677216 L18.667222,8.12677216 L18.667222,8.12677216 L18.667222,8.12677216 Z M9.47922348,12.9930377 C9.19552177,13.0727854 8.921234,13.1782848 8.65550435,13.3095361 C8.27766331,13.5068283 7.96871515,13.7294571 7.72908777,13.9774223 C7.5681951,14.1356715 7.4201396,14.3300563 7.2853492,14.559746 C7.17837269,14.7495619 7.10348913,14.9377164 7.05898691,15.1258709 C6.93403834,15.6492146 7.00763818,16.1530368 7.27935852,16.6373374 C7.44453025,16.9035781 7.66875302,17.1191458 7.95245472,17.2848713 L8.10350555,17.3642036 L8.63196952,17.5660647 C8.81725283,17.6125842 9.12791262,17.6744716 9.56480469,17.7504811 L10.4398725,17.9170373 L10.8716297,18.0549342 C11.1048385,18.1604336 11.2738614,18.2443348 11.3786984,18.3066376 C11.5858049,18.4299972 11.8104556,18.5849235 12.0517946,18.7722473 C12.2289477,18.9130517 12.4886867,19.1252966 12.8301557,19.4081514 C13.0398297,19.5664006 13.206713,19.6731461 13.3316616,19.7275572 L13.3765917,19.7483248 L13.3945638,19.7657696 L13.6179307,19.8683616 L13.639326,19.8683616 L13.7206282,19.9036665 L13.9825067,19.9647233 C14.2302643,20.0095813 14.4861521,20.0116581 14.7497422,19.9709536 C15.1138902,19.9044972 15.4305407,19.7719999 15.7005494,19.5726309 C15.9881023,19.3500021 16.2067623,19.0588403 16.3552457,18.6991453 C16.4421106,18.5001917 16.5024453,18.2663484 16.5366778,17.9988617 C16.5687708,17.6844401 16.5555057,17.3766642 16.4968826,17.0759492 C16.4331246,16.7166696 16.3270039,16.3706813 16.1802321,16.0383996 C16.0535719,15.774651 15.953014,15.4909655 15.8785583,15.186097 C15.8058143,14.8774904 15.7506144,14.5813443 15.7125308,14.2980741 L15.6004194,13.5014288 C15.5460753,13.2181586 15.479322,12.9718548 15.3980198,12.7629327 C15.2491085,12.4132062 15.0321602,12.1253671 14.7463189,11.8985849 C14.5614635,11.7598573 14.3487942,11.635667 14.1095948,11.5264294 C13.9123301,11.4479278 13.7035119,11.4001623 13.4818566,11.3827175 C13.2259688,11.3731644 12.9401275,11.4188532 12.6243329,11.5206144 C12.4112357,11.6028542 12.2032733,11.6925702 12.000018,11.7897626 C11.8125951,11.8819708 11.5421585,12.027344 11.1882802,12.2262977 C10.8224205,12.4294049 10.5121887,12.5876541 10.2584404,12.7010452 C10.0008409,12.8314658 9.74152988,12.9282428 9.47922348,12.9930377 L9.47922348,12.9930377 L9.47922348,12.9930377 Z M11.785637,7.48214565 C11.7231628,7.65950101 11.6696745,7.84225595 11.6251723,8.02999511 C11.5669771,8.40298133 11.5678329,8.73941655 11.6281676,9.04054685 C11.676521,9.3317087 11.7843533,9.59919547 11.9512367,9.84342252 C12.0984364,10.0465297 12.2636081,10.193149 12.4493193,10.2832804 C12.6662677,10.4041479 12.9041834,10.4589744 13.161355,10.4473445 C13.370601,10.4357147 13.584982,10.375904 13.8044977,10.2687431 C14.1181529,10.0951259 14.3778918,9.85671379 14.5828588,9.55350673 C14.6752865,9.43430067 14.7630073,9.28975813 14.8455931,9.11987911 L14.978244,8.73318627 C15.0488485,8.51844922 15.0937787,8.28875949 15.1113228,8.04494779 C15.1211646,7.65991636 15.060402,7.29980606 14.9268953,6.96378619 C14.8383187,6.74655702 14.7108027,6.55632574 14.5434915,6.39226165 C14.3419477,6.19123122 14.1100227,6.06911769 13.8460046,6.02633642 C13.5926843,5.9735867 13.3312337,6.00016924 13.0616529,6.10525333 C12.8344348,6.19496939 12.6256166,6.33078954 12.43691,6.51229842 C12.2054129,6.73118899 12.0154226,6.99784506 11.8660834,7.31226663 L11.785637,7.48214565 L11.785637,7.48214565 L11.785637,7.48214565 Z M9.53399545,7.83021074 C9.26655418,7.76416975 9.00082452,7.784522 8.7372344,7.8920982 C8.5177186,7.98596778 8.32130973,8.13341779 8.14843569,8.33444822 C8.07398004,8.42457964 8.00166392,8.52675626 7.93105942,8.64222415 L7.90067809,8.67462162 L7.7740179,8.93837023 L7.71368315,9.1373239 C7.63109728,9.40688743 7.5968648,9.67562026 7.6109857,9.94310703 C7.62125544,10.2475601 7.67645532,10.5183697 7.77744115,10.7547051 C7.89211997,11.0417134 8.0500173,11.2772181 8.25113314,11.4608037 C8.41801649,11.6057616 8.60501143,11.710015 8.81254587,11.7743946 C9.0983871,11.8508194 9.38294462,11.8300518 9.66664632,11.7129225 C9.88787375,11.6232064 10.087278,11.4720182 10.2644311,11.2589426 C10.3709797,11.1376598 10.4728213,10.9769185 10.5686723,10.7758881 L10.6773604,10.4946947 C10.7458254,10.2795423 10.7809137,10.0776811 10.7830532,9.88828055 C10.8031648,9.48372758 10.7368393,9.10534178 10.5840769,8.75146177 C10.4711097,8.50931147 10.319203,8.30703498 10.1283569,8.145463 C9.94735269,7.9797375 9.7496601,7.87589947 9.53399545,7.83021074 L9.53399545,7.83021074 L9.53399545,7.83021074 Z" id="Shape" fill="#FFFFFF"></path>
                    </g>
                </g>
            </g>
        </g>
    </g>
</svg>