<svg width="16" height="16" viewBox="0 0 16 16">
  <g fill="none" fill-rule="evenodd">
    <circle cx="8" cy="8" r="8" fill="#FFF" opacity=".6"/>
    <circle cx="8" cy="8" r="7" fill="#C15746"/>
    <path fill="#FFF" d="M10.7830418,7.91248348 C10.5021827,8.08577437 10.2909193,8.30472425 10.1484266,8.56960022 C10.0785557,8.7151218 10.0359179,8.85129797 10.0205133,8.97839572 C9.99960701,9.13646689 10.0177624,9.28946484 10.0744295,9.43792357 C10.1575044,9.62349694 10.2854177,9.75726999 10.4587196,9.83897572 C10.5684775,9.89424722 10.6944653,9.93189589 10.836958,9.95218884 C11.0374931,9.96981161 11.2545332,9.93750315 11.4869779,9.85633151 C11.6432247,9.7885104 11.7906689,9.70226552 11.9293104,9.59786379 C12.1141659,9.45100712 12.2533576,9.28786277 12.3466105,9.10843061 L12.4104297,8.97439059 C12.4453651,8.90203027 12.4701226,8.81204724 12.4841518,8.70524237 C12.5152361,8.5282134 12.5006567,8.36426792 12.4398635,8.21367311 C12.3633905,8.03664414 12.2431795,7.90260405 12.0786802,7.81235398 C11.9752492,7.75200924 11.8555884,7.71516157 11.7196976,7.70127695 C11.5087094,7.67617781 11.29387,7.70261203 11.0751795,7.7803125 C10.9753245,7.81822822 10.8776702,7.86228521 10.7830418,7.91248348 L10.7830418,7.91248348 L10.7830418,7.91248348 Z M11.000357,4.86721067 C10.8644662,4.81941551 10.729951,4.80232674 10.5965359,4.81647837 C10.4204832,4.82502276 10.2436052,4.87361896 10.0650767,4.96146594 C9.88132155,5.04931291 9.70389336,5.17560963 9.53334227,5.34008908 C9.39194989,5.48454261 9.2720139,5.6500901 9.17215903,5.83726558 C9.12401957,5.93632706 9.09128477,6.01482861 9.07312933,6.07250323 C9.03214204,6.19052255 9.00408364,6.3128141 8.9897793,6.43991184 C8.97052354,6.61694088 8.99253015,6.79129974 9.05552404,6.96325554 C9.13199698,7.16538371 9.2673375,7.31758059 9.46127066,7.41931215 C9.57102855,7.47458366 9.69178978,7.50956229 9.82217882,7.52478193 C9.98282702,7.53706449 10.1594299,7.51356742 10.3519877,7.4529557 C10.5280404,7.39020789 10.7007922,7.29301548 10.870243,7.16111148 C11.1046132,6.97900927 11.2856175,6.76139441 11.4135309,6.50773295 C11.4911041,6.36568248 11.5417193,6.22203 11.5651013,6.07624138 C11.6052633,5.88799787 11.6096646,5.71043483 11.5785803,5.54328527 C11.5257645,5.27360306 11.3865728,5.07254297 11.1615553,4.94063899 L11.153853,4.92942448 L11.0160367,4.86721067 L11.000357,4.86721067 L11.000357,4.86721067 L11.000357,4.86721067 Z M5.09378652,7.99552423 C4.91140685,8.04679061 4.735079,8.11461165 4.56425279,8.19898749 C4.32135498,8.32581819 4.12274545,8.4689367 3.96869928,8.6283429 C3.86526828,8.73007453 3.77008974,8.85503619 3.68343877,9.00269385 C3.61466816,9.12471836 3.56652873,9.24567482 3.53792016,9.36663129 C3.45759608,9.70306652 3.50491026,10.0269522 3.67958762,10.3382883 C3.78576945,10.5094431 3.92991265,10.6480223 4.11229232,10.7545601 L4.20939642,10.8055595 L4.54912326,10.9353273 C4.66823396,10.9652327 4.86794383,11.0050174 5.14880301,11.0538807 L5.7113466,11.1609525 L5.9889048,11.2496005 C6.13882475,11.3174216 6.24748233,11.3713581 6.31487754,11.4114099 C6.44801743,11.4907125 6.59243574,11.590308 6.74758224,11.7107304 C6.86146637,11.8012475 7.02844145,11.9376907 7.24795723,12.1195259 C7.38274766,12.2212575 7.49002978,12.2898796 7.57035388,12.3248582 L7.59923752,12.3382088 L7.61079101,12.3494233 L7.75438402,12.4153753 L7.76813814,12.4153753 L7.82040384,12.4380713 L7.9887543,12.4773221 C8.14802704,12.5061594 8.31252634,12.5074945 8.48197712,12.4813273 C8.71607227,12.4386053 8.9196333,12.3534285 9.09321032,12.2252627 C9.27806576,12.0821442 9.4186329,11.8949688 9.51408651,11.6637363 C9.56992824,11.5358375 9.60871483,11.3855097 9.63072144,11.2135539 C9.65135265,11.0114258 9.64282509,10.8135698 9.60513881,10.6202531 C9.56415152,10.3892876 9.49593107,10.1668665 9.40157777,9.95325688 C9.32015336,9.78370421 9.25550899,9.60133496 9.20764462,9.40534807 C9.16088062,9.20695811 9.12539497,9.01657847 9.10091265,8.8344762 L9.02884104,8.32234708 C8.99390554,8.14024481 8.95099271,7.98190665 8.89872701,7.84759959 C8.80299832,7.62277541 8.66353155,7.43773599 8.47977643,7.29194743 C8.36094082,7.2027654 8.22422484,7.12292878 8.07045379,7.05270461 C7.94364077,7.0022393 7.8094005,6.9715329 7.66690781,6.96031839 C7.50240851,6.95417711 7.31865339,6.98354848 7.11564257,7.0489664 C6.97865152,7.10183484 6.8449614,7.15950941 6.71429728,7.22199024 C6.59381113,7.28126694 6.41995903,7.37472114 6.19246584,7.50261995 C5.95727032,7.63318886 5.75783559,7.73492049 5.59471168,7.80781477 C5.429112,7.89165658 5.26241206,7.95387037 5.09378652,7.99552423 L5.09378652,7.99552423 L5.09378652,7.99552423 Z M6.57648092,4.45280792 C6.53631894,4.56682208 6.5019336,4.6843074 6.47332505,4.80499686 C6.43591385,5.04477371 6.436464,5.26105349 6.4752506,5.45463726 C6.50633492,5.64181273 6.57565569,5.81376851 6.68293787,5.97077162 C6.77756625,6.10134052 6.88374806,6.19559578 7.00313383,6.2535374 C7.14260066,6.33123793 7.29554647,6.36648354 7.46087107,6.35900718 C7.59538635,6.35153088 7.73320271,6.31308114 7.87431994,6.24419199 C8.07595543,6.13258093 8.24293044,5.97931601 8.37469494,5.78439718 C8.43411274,5.70776471 8.49050469,5.61484451 8.54359556,5.50563657 L8.62887114,5.25704832 C8.67425974,5.11900307 8.70314344,4.97134539 8.71442179,4.81460929 C8.72074867,4.56708909 8.68168699,4.33558961 8.59586126,4.11957684 C8.53891916,3.97992951 8.45694459,3.85763798 8.34938739,3.7521682 C8.21982352,3.62293436 8.07072887,3.5444328 7.90100295,3.51693056 C7.73815419,3.48302002 7.5700788,3.5001088 7.39677686,3.56766286 C7.25070808,3.62533747 7.11646781,3.71265042 6.99515642,3.8293347 C6.84633686,3.97005006 6.72420024,4.14147182 6.62819647,4.34359998 L6.57648092,4.45280792 L6.57648092,4.45280792 L6.57648092,4.45280792 Z M5.12899707,4.67656405 C4.95707054,4.63410912 4.78624433,4.64719271 4.61679354,4.71634884 C4.47567624,4.77669357 4.3494134,4.87148286 4.23828009,5.00071671 C4.19041574,5.05865834 4.1439268,5.12434331 4.0985382,5.19857267 L4.07900734,5.21939961 L3.99758293,5.38895229 L3.95879631,5.51685108 C3.90570539,5.69014192 3.8836988,5.86289874 3.89277652,6.03485452 C3.8993785,6.23057435 3.93486413,6.40466623 3.9997836,6.55659613 C4.07350569,6.74110147 4.17501112,6.89249735 4.30429987,7.01051666 C4.41158203,7.10370388 4.53179306,7.17072393 4.66520806,7.21211081 C4.84896313,7.26124104 5.03189297,7.24789044 5.21427263,7.17259303 C5.35649027,7.1149184 5.48467871,7.01772598 5.59856285,6.88074881 C5.66705838,6.8027813 5.73252798,6.6994476 5.79414648,6.57021378 L5.8640174,6.38944659 C5.90803061,6.25113433 5.93058738,6.12136642 5.93196277,5.99960892 C5.94489165,5.73953916 5.90225383,5.49629114 5.80404943,5.26879685 C5.73142766,5.1131288 5.63377335,4.98309391 5.51108658,4.87922621 C5.39472673,4.77268839 5.26763863,4.70593537 5.12899707,4.67656405 L5.12899707,4.67656405 L5.12899707,4.67656405 Z"/>
  </g>
</svg>
