<svg width="28" height="28" viewBox="0 0 28 28">
  <g fill="none" fill-rule="evenodd">
    <circle cx="14" cy="14" r="14" fill="#FFF" opacity=".6"/>
    <circle cx="14" cy="14" r="13" fill="#7F5933"/>
    <path fill="#FFF" fill-rule="nonzero" d="M11.4545455,8 C10.5604621,8 9.83404138,8.63059506 9.68181818,9.45588235 C9.28522829,9.54602056 8.91265898,9.79173355 8.68181818,10.1838235 L6.29545455,15.0588235 L6.31818182,15.0588235 C6.12045884,15.4930132 6,15.9675334 6,16.4705882 C6,18.4114675 7.63666975,20 9.63636364,20 C11.2036237,20 12.5373503,19.0181854 13.0454545,17.6617647 C13.3348218,17.8004056 13.6580269,17.8823529 14,17.8823529 C14.3419731,17.8823529 14.6651782,17.8004056 14.9545455,17.6617647 C15.4626495,19.0181854 16.796376,20 18.3636364,20 C20.3633302,20 22,18.4114675 22,16.4705882 C22,15.9675334 21.8795411,15.4930132 21.6818182,15.0588235 L21.7045455,15.0588235 L19.3181818,10.1838235 C19.0873411,9.79173355 18.7147716,9.54602056 18.3181818,9.45588235 C18.1659585,8.63059506 17.4395382,8 16.5454545,8 C15.6668196,8 14.9422662,8.60761802 14.7727273,9.41176471 L13.2272727,9.41176471 C13.0577338,8.60761802 12.3331803,8 11.4545455,8 Z M9.63636364,14.3529412 C10.8499628,14.3529412 11.8181818,15.2926831 11.8181818,16.4705882 C11.8181818,17.6484934 10.8499628,18.5882353 9.63636364,18.5882353 C8.42276444,18.5882353 7.45454545,17.6484934 7.45454545,16.4705882 C7.45454545,15.2926831 8.42276444,14.3529412 9.63636364,14.3529412 Z M18.3636364,14.3529412 C19.5772356,14.3529412 20.5454545,15.2926831 20.5454545,16.4705882 C20.5454545,17.6484934 19.5772356,18.5882353 18.3636364,18.5882353 C17.1500371,18.5882353 16.1818182,17.6484934 16.1818182,16.4705882 C16.1818182,15.2926831 17.1500371,14.3529412 18.3636364,14.3529412 Z M14,15.0588235 C14.4033055,15.0588235 14.7272727,15.3732624 14.7272727,15.7647059 C14.7272727,16.1561494 14.4033055,16.4705882 14,16.4705882 C13.5966945,16.4705882 13.2727273,16.1561494 13.2727273,15.7647059 C13.2727273,15.3732624 13.5966945,15.0588235 14,15.0588235 Z"/>
  </g>
</svg>
