<?xml version="1.0" encoding="UTF-8" standalone="no"?>
<svg width="17px" height="17px" viewBox="0 0 17 17" version="1.1" xmlns="http://www.w3.org/2000/svg" xmlns:xlink="http://www.w3.org/1999/xlink" xmlns:sketch="http://www.bohemiancoding.com/sketch/ns">
    <!-- Generator: Sketch 3.5.2 (25235) - http://www.bohemiancoding.com/sketch -->
    <title>viewpoint-s</title>
    <desc>Created with Sketch.</desc>
    <defs></defs>
    <g id="POI" stroke="none" stroke-width="1" fill="none" fill-rule="evenodd" sketch:type="MSPage">
        <circle id="Oval" fill="#FFFFFF" sketch:type="MSShapeGroup" cx="8.5" cy="8.5" r="8.5"></circle>
        <circle id="Oval" fill="#8C4D16" sketch:type="MSShapeGroup" cx="8.5" cy="8.5" r="7.5"></circle>
        <path d="M13,8.5 C12.3,10.5 10.6,12 8.5,12 C6.4,12 4.7,10.5 4,8.5 C4.7,6.5 6.4,5 8.5,5 C10.6,5 12.3,6.5 13,8.5 L13,8.5 Z M11.1,8.5 C11.1,8.3 11.1,8.1 11,7.9 L10.9,7.5 L10.8,7.9 C10.6,8.5 10.1,8.9 9.5,8.9 C8.7,8.9 8.1,8.3 8.1,7.5 C8.1,6.9 8.5,6.3 9.1,6.2 L9.5,6.1 L9.1,6 C8.9,6 8.7,5.9 8.5,5.9 C7.1,5.9 5.9,7.1 5.9,8.5 C5.9,9.9 7.1,11.1 8.5,11.1 C9.9,11.1 11.1,9.9 11.1,8.5 L11.1,8.5 Z" id="Shape" fill="#FFFFFF" sketch:type="MSShapeGroup"></path>
    </g>
</svg>