<?xml version="1.0" encoding="UTF-8" standalone="no"?>
<svg width="27px" height="27px" viewBox="0 0 27 27" version="1.1" xmlns="http://www.w3.org/2000/svg" xmlns:xlink="http://www.w3.org/1999/xlink" xmlns:sketch="http://www.bohemiancoding.com/sketch/ns">
    <!-- Generator: Sketch 3.5.2 (25235) - http://www.bohemiancoding.com/sketch -->
    <title>viewpoint-l</title>
    <desc>Created with Sketch.</desc>
    <defs></defs>
    <g id="POI" stroke="none" stroke-width="1" fill="none" fill-rule="evenodd" sketch:type="MSPage">
        <path d="M13.5,27 C6.1,27 0,20.9 0,13.5 C0,6.1 6.1,0 13.5,0 C20.9,0 27,6.1 27,13.5 C27,20.9 20.9,27 13.5,27 L13.5,27 Z" id="Shape" fill="#FFFFFF" sketch:type="MSShapeGroup"></path>
        <circle id="Oval" fill="#8C4D16" sketch:type="MSShapeGroup" cx="13.5" cy="13.5" r="12.5"></circle>
        <path d="M13.5,7 C9.1,7 5.4,9.7 4,13.5 C5.4,17.3 9.1,20 13.5,20 C17.9,20 21.6,17.3 23,13.5 C21.6,9.7 17.9,7 13.5,7 L13.5,7 Z M13.5,18.1 C11,18.1 8.9,16 8.9,13.5 C8.9,11 11,8.9 13.5,8.9 C13.9,8.9 14.2,9 14.7,9.1 L15,9.2 L14.7,9.3 C13.8,9.6 13.1,10.5 13.1,11.5 C13.1,12.8 14.2,13.9 15.5,13.9 C16.5,13.9 17.4,13.3 17.7,12.3 L17.8,12 L17.9,12.3 C18,12.7 18.1,13.1 18.1,13.5 C18.1,16 16,18.1 13.5,18.1 L13.5,18.1 Z" id="Shape" fill="#FFFFFF" sketch:type="MSShapeGroup"></path>
    </g>
</svg>