<?xml version="1.0" encoding="UTF-8" standalone="no"?>
<svg width="17px" height="17px" viewBox="0 0 17 17" version="1.1" xmlns="http://www.w3.org/2000/svg" xmlns:xlink="http://www.w3.org/1999/xlink">
    <!-- Generator: Sketch 3.8.3 (29802) - http://www.bohemiancoding.com/sketch -->
    <title>viewpoint-s</title>
    <desc>Created with Sketch.</desc>
    <defs></defs>
    <g id="POI-Clear" stroke="none" stroke-width="1" fill="none" fill-rule="evenodd">
        <g id="viewpoint-s">
            <circle id="Oval" fill-opacity="0.6" fill="#FFFFFF" cx="8.5" cy="8.5" r="8.5"></circle>
            <circle id="Oval" fill="#8C4D16" cx="8.5" cy="8.5" r="7.5"></circle>
            <path d="M9.5,6 L7.5,6 L7.5,8 L9.5,8 C9.5,8.55628335 9.95205466,9 10.5096923,9 L13.5012817,9 L11.5,4 L9.5,4 L9.5,6 Z M3.5,11.5 L6.5,11.5 L6.5,12 C6.5,12.2761424 6.2842474,12.5 6.00461102,12.5 L3.99538898,12.5 C3.7217932,12.5 3.5,12.2680664 3.5,12 L3.5,11.5 Z M10.5,11.5 L13.5,11.5 L13.5,12 C13.5,12.2761424 13.2842474,12.5 13.004611,12.5 L10.995389,12.5 C10.7217932,12.5 10.5,12.2680664 10.5,12 L10.5,11.5 Z M5.5,4 L7.5,4 L7.5,8.00019251 C7.5,8.55237094 7.05450407,9 6.49310279,9 L5.08325195,9 L3.50085449,9 L5.5,4 Z M10.5,9 L13.5,9 L13.5,11 L10.5,11 L10.5,9 Z M3.5,9 L6.5,9 L6.5,11 L3.5,11 L3.5,9 Z" id="Combined-Shape" fill="#FFFFFF"></path>
        </g>
    </g>
</svg>