<?xml version="1.0" encoding="UTF-8"?>
<svg width="9px" height="8px" viewBox="0 0 9 8" version="1.1" xmlns="http://www.w3.org/2000/svg" xmlns:xlink="http://www.w3.org/1999/xlink">
    <title>volcano-s</title>
    <g id="Page-1" stroke="none" stroke-width="1" fill="none" fill-rule="evenodd">
        <g id="volcano-s" fill="#262622" fill-rule="nonzero">
            <g id="volcano">
                <path d="M7.192125,3.43005236 C7.07057227,3.51093194 6.91648242,3.57336126 6.70997461,3.57336126 C6.33749414,3.57336126 6.13529297,3.37030366 5.98767188,3.22205236 C5.86132031,3.0951623 5.78504883,3.01855497 5.60510156,3.01855497 C5.42513672,3.01855497 5.34888281,3.09514136 5.22251367,3.22205236 C5.074875,3.37032461 4.87269141,3.57336126 4.50021094,3.57336126 C4.12773047,3.57336126 3.9255293,3.37030366 3.77789063,3.2220733 C3.65152148,3.0951623 3.57525,3.01855497 3.39526758,3.01855497 C3.21530273,3.01855497 3.13904883,3.09514136 3.01267969,3.22205236 C2.86504102,3.37032461 2.66283984,3.57336126 2.29035938,3.57336126 C2.08372852,3.57336126 1.92956836,3.51084817 1.80798047,3.4299267 L0,7.9826178 L9,7.9826178 L7.192125,3.43005236 Z" id="Path"></path>
                <path d="M5.83692187,0.017382199 L3.1630957,0.017382199 L2.03426367,2.86 C2.10406641,2.91465969 2.17641797,2.9453822 2.29030664,2.9453822 C2.47027148,2.9453822 2.54654297,2.86879581 2.67289453,2.74188482 C2.8205332,2.59361257 3.02273437,2.39057592 3.39519727,2.39057592 C3.76769531,2.39057592 3.96989648,2.59363351 4.11753516,2.74188482 C4.2439043,2.86877487 4.32017578,2.9453822 4.50014062,2.9453822 C4.68010547,2.9453822 4.75635938,2.86879581 4.88272852,2.74188482 C5.03036719,2.59361257 5.23255078,2.39057592 5.60503125,2.39057592 C5.97751172,2.39057592 6.17969531,2.59363351 6.32731641,2.74188482 C6.45366797,2.86877487 6.52993945,2.9453822 6.7099043,2.9453822 C6.82366992,2.9453822 6.89598633,2.91472251 6.96571875,2.8601466 L5.83692187,0.017382199 Z" id="Path"></path>
            </g>
        </g>
    </g>
</svg>