<?xml version="1.0" encoding="UTF-8"?>
<svg version="1.1" viewBox="0 0 9 8" xmlns="http://www.w3.org/2000/svg">
 <path d="m3.1641 0.017578-1.1289 2.8418c0.069803 0.05466 0.14197 0.085938 0.25586 0.085938 0.17996 0 0.25646-0.076211 0.38281-0.20312 0.14764-0.14827 0.34824-0.35156 0.7207-0.35156 0.3725 0 0.57502 0.20331 0.72266 0.35156 0.12637 0.12689 0.20284 0.20312 0.38281 0.20312 0.17996 0 0.25644-0.076211 0.38281-0.20312 0.14764-0.14827 0.35018-0.35156 0.72266-0.35156 0.37248 0 0.57503 0.20331 0.72266 0.35156 0.12635 0.12689 0.20089 0.20312 0.38086 0.20312 0.11377 0 0.18613-0.031362 0.25586-0.085938l-1.127-2.8418h-0.0019531-2.6719zm0.23047 3.002c-0.17996 0-0.25644 0.076211-0.38281 0.20312-0.14764 0.14827-0.34822 0.35156-0.7207 0.35156-0.20663 0-0.36083-0.063614-0.48242-0.14453l-1.8086 4.5527h9l-1.8086-4.5527c-0.12155 0.08088-0.27591 0.14453-0.48242 0.14453-0.37248 0-0.57308-0.20331-0.7207-0.35156-0.12635-0.12689-0.20286-0.20312-0.38281-0.20312-0.17996 0-0.25644 0.076211-0.38281 0.20312-0.14764 0.14827-0.35018 0.35156-0.72266 0.35156-0.37248 0-0.57502-0.20333-0.72266-0.35156-0.12637-0.12691-0.20283-0.20312-0.38281-0.20312z" fill="#717065"/>
</svg>
