<?xml version="1.0" encoding="UTF-8" standalone="no"?>
<svg width="27px" height="27px" viewBox="0 0 27 27" version="1.1" xmlns="http://www.w3.org/2000/svg" xmlns:xlink="http://www.w3.org/1999/xlink">
    <!-- Generator: Sketch 3.8.3 (29802) - http://www.bohemiancoding.com/sketch -->
    <title>volcano-l</title>
    <desc>Created with Sketch.</desc>
    <defs></defs>
    <g id="POI-Clear" stroke="none" stroke-width="1" fill="none" fill-rule="evenodd">
        <g id="volcano-l" fill="#262622">
            <path d="M13.4999998,11.1570941 C12.902949,11.1570941 11.7512537,10.5975741 11.7512537,10.5975741 L7.08552632,17.96875 C7.02524737,18.0748312 7,18.1938375 7,18.3125 C7,18.828125 7.34210526,19.0001375 7.68421053,19 L19.3157895,19 C19.6578947,19.0001375 20,18.828125 20,18.3125 C20,18.1938375 19.9747868,18.0748312 19.9144737,17.96875 L15.3358539,10.5975741 C15.3358539,10.5975741 14.0978158,11.1570941 13.4999998,11.1570941 Z M14.3652162,8.85104606 C14.6702303,8.70154614 14.9868641,8.66338707 15.3136649,8.75434157 C15.6075436,8.83640971 15.883993,8.99218235 16.1396239,9.16572771 C16.5313008,9.43127303 16.9234618,9.67695472 17.3693634,9.82175009 C17.9203255,10 18.5153451,10.0235227 19.0711487,9.85154553 C19.5911252,9.69002289 20.0530037,9.35965943 20.4011072,8.91272785 C20.6983749,8.53113714 20.9588473,8.02618286 21,7.52018313 C20.4243463,7.90700111 19.7610616,8.27343273 19.072117,8.31472817 C18.6533277,8.33981906 18.2466422,8.22691003 17.8694898,8.03559195 C17.5973978,7.89654657 17.3466084,7.71725121 17.0909775,7.54736494 C16.256788,6.99693341 15.1766506,6.77529716 14.2829108,7.29175144 C13.8258737,7.55572857 13.4695397,7.99952379 13.2555457,8.50656897 C13.0643067,8.95611419 12.9490791,9.50654572 13.0221857,10 C13.4143467,9.56300023 13.8452397,9.10456866 14.3652162,8.85104606 Z" id="Combined-Shape"></path>
        </g>
    </g>
</svg>