<svg height="27" viewBox="0 0 27 27" width="27"><path d="m13.4999998 11.1570941c.597816 0 1.8358541-.55952 1.8358541-.55952l4.5786198 7.3711759c.0603131.1060812.0855263.2250875.0855263.34375 0 .515625-.3421053.6876375-.6842105.6875h-11.63157897c-.34210527.0001375-.68421053-.171875-.68421053-.6875 0-.1186625.02524737-.2376688.08552632-.34375l4.66572738-7.3711759s1.1516953.55952 1.7487461.55952zm.8652164-2.30604804c-.5199765.2535226-.9508695.71195417-1.3430305 1.14895394-.0731066-.49345428.042121-1.04388581.23336-1.49343103.213994-.50704518.570328-.9508404 1.0273651-1.21481753.8937398-.51645428 1.9738772-.29481803 2.8080667.2556135.2556309.16988627.5064203.34918163.7785123.48822701.3771524.19131808.7838379.30422711 1.2026272.27913622.6889446-.04129544 1.3522293-.40772706 1.927883-.79454504-.0411527.50599973-.3016251 1.01095401-.5988928 1.39254472-.3481035.44693158-.809982.77729504-1.3299585.93881768-.5558036.17197717-1.1508232.14845447-1.7017853-.02979544-.4459016-.14479537-.8380626-.39047706-1.2297395-.65602238-.2556309-.17354536-.5320803-.329318-.825959-.41138614-.3268008-.0909545-.6434346-.05279543-.9484487.09670449z" fill="#262622" fill-rule="evenodd"/></svg>