<?xml version="1.0" encoding="UTF-8"?>
<svg width="14px" height="12px" viewBox="0 0 14 12" version="1.1" xmlns="http://www.w3.org/2000/svg" xmlns:xlink="http://www.w3.org/1999/xlink">
    <title>volcano-l</title>
    <g id="Page-1" stroke="none" stroke-width="1" fill="none" fill-rule="evenodd">
        <g id="volcano-l" fill="#262622" fill-rule="nonzero">
            <g id="volcano">
                <path d="M11.18775,5.14507853 C10.998668,5.26639791 10.7589727,5.36004188 10.4377383,5.36004188 C9.85832422,5.36004188 9.54378906,5.0554555 9.31415625,4.83307853 C9.11760938,4.64274346 8.99896484,4.52783246 8.71904688,4.52783246 C8.43910156,4.52783246 8.32048437,4.64271204 8.12391016,4.83307853 C7.89425,5.05548691 7.57974219,5.36004188 7.00032813,5.36004188 C6.42091406,5.36004188 6.10637891,5.0554555 5.87671875,4.83310995 C5.68014453,4.64274346 5.5615,4.52783246 5.28152734,4.52783246 C5.00158203,4.52783246 4.88296484,4.64271204 4.68639063,4.83307853 C4.45673047,5.05548691 4.14219531,5.36004188 3.56278125,5.36004188 C3.24135547,5.36004188 3.00155078,5.26627225 2.81241406,5.14489005 L0,11.9739267 L14,11.9739267 L11.18775,5.14507853 Z" id="Path"></path>
                <path d="M9.07965625,0.0260732984 L4.92037109,0.0260732984 L3.16441016,4.29 C3.27299219,4.37198953 3.38553906,4.4180733 3.56269922,4.4180733 C3.84264453,4.4180733 3.96128906,4.30319372 4.15783594,4.11282723 C4.38749609,3.89041885 4.70203125,3.58586387 5.28141797,3.58586387 C5.86085937,3.58586387 6.17539453,3.89045026 6.40505469,4.11282723 C6.60162891,4.3031623 6.72027344,4.4180733 7.00021875,4.4180733 C7.28016406,4.4180733 7.39878125,4.30319372 7.59535547,4.11282723 C7.82501562,3.89041885 8.13952344,3.58586387 8.7189375,3.58586387 C9.29835156,3.58586387 9.61285937,3.89045026 9.84249219,4.11282723 C10.0390391,4.3031623 10.1576836,4.4180733 10.4376289,4.4180733 C10.6145977,4.4180733 10.7270898,4.37208377 10.8355625,4.2902199 L9.07965625,0.0260732984 Z" id="Path"></path>
            </g>
        </g>
    </g>
</svg>