<svg enable-background="new 0 0 24 24" fill="#000000" version="1.1" viewBox="0 0 24 24" xmlns="http://www.w3.org/2000/svg">
 <g fill="#717065">
  <g fill="#717065">
   <path d="m12 3c-4.968 0-9 4.032-9 9s4.032 9 9 9 9-4.032 9-9-4.032-9-9-9zm0.9 1.863c2.763 0.342 5.013 2.268 5.886 4.824l-5.886-3.402zm-4.5 0.909c1.062-0.621 2.997-0.954 2.7-0.918v6.615l-2.7 1.557zm-3.033 9.018c-0.36-0.864-0.567-1.8-0.567-2.79 0-1.818 0.684-3.474 1.8-4.743v6.822zm0.909 1.557 5.724-3.312 2.7 1.557-6.282 3.627c-0.837-0.477-1.566-1.107-2.142-1.872zm4.302 2.709m1.422 0.144c-0.486 0-0.963-0.054-1.422-0.144l5.922-3.42 1.224 0.702c-1.314 1.737-3.384 2.862-5.724 2.862zm0.9-7.722v-3.114l6.3 3.645c0 0.99-0.207 1.926-0.567 2.781z" fill="#717065" stroke-width=".9"/>
  </g>
 </g>
</svg>
