<svg width="28" height="28" viewBox="0 0 28 28">
  <g fill="none" fill-rule="evenodd">
    <circle cx="14" cy="14" r="14" fill="#FFF" opacity=".2"/>
    <path fill="#717065" fill-rule="nonzero" d="M12.5714286,7 L11.8571429,7.73684211 L9,7.73684211 L9,9.21052632 L19,9.21052632 L19,7.73684211 L16.1428571,7.73684211 L15.4285714,7 L12.5714286,7 Z M9.71428571,9.94736842 L9.71428571,19.5263158 C9.71428571,20.3368421 10.3571429,21 11.1428571,21 L16.8571429,21 C17.6428571,21 18.2857143,20.3368421 18.2857143,19.5263158 L18.2857143,9.94736842 L9.71428571,9.94736842 Z M11.8571429,12.1578947 L13.2857143,12.1578947 L13.2857143,18.7894737 L11.8571429,18.7894737 L11.8571429,12.1578947 Z M14.7142857,12.1578947 L16.1428571,12.1578947 L16.1428571,18.7894737 L14.7142857,18.7894737 L14.7142857,12.1578947 Z"/>
  </g>
</svg>
