<?xml version="1.0" encoding="UTF-8" standalone="no"?>
<svg width="23px" height="23px" viewBox="0 0 23 23" version="1.1" xmlns="http://www.w3.org/2000/svg" xmlns:xlink="http://www.w3.org/1999/xlink">
    <!-- Generator: Sketch 3.8.3 (29802) - http://www.bohemiancoding.com/sketch -->
    <title>waste-basket-m</title>
    <desc>Created with Sketch.</desc>
    <defs></defs>
    <g id="POI-Clear" stroke="none" stroke-width="1" fill="none" fill-rule="evenodd">
        <g id="waste-basket-m" fill="#717065">
            <path d="M6.73685,9 C6.32863,9 5.94851,9.3343 6.01563,9.7369 L7.42105,18.2632 C7.48745,18.6659 7.74968,19 8.1579,19 L14.78947,19 C15.19769,19 15.45919,18.6658 15.52632,18.2632 L16.98437,9.7369 C17.05317,9.3346 16.67137,9 16.26316,9 L6.73685,9 Z" id="path5652-copy"></path>
            <path d="M8.71882061,4.37239349 C8.51471061,4.37239349 8.45082061,4.53669349 8.45082061,4.74079349 L8.45082061,6.37239349 L5.93767061,6.37239349 C5.52945061,6.37239349 5.20082061,6.46439349 5.20082061,6.87239349 C5.20082061,7.28069349 5.52945061,7.37239349 5.93767061,7.37239349 L15.4639806,7.37239349 C15.8721906,7.37239349 16.2008206,7.28039349 16.2008206,6.87239349 C16.2008206,6.46419349 15.8721906,6.37239349 15.4639806,6.37239349 L12.9508206,6.37239349 L12.9508206,4.74079349 C12.9508206,4.53669349 12.7869306,4.37239349 12.5828206,4.37239349 L8.71882061,4.37239349 Z M9.20082061,5.10919349 L12.2008206,5.10919349 L12.2008206,6.37239349 L9.20082061,6.37239349 L9.20082061,5.10919349 Z" id="Combined-Shape" transform="translate(10.700821, 5.872393) rotate(-15.000000) translate(-10.700821, -5.872393) "></path>
        </g>
    </g>
</svg>