<svg height="24" viewBox="0 0 24 24" width="24"><g fill="none" fill-rule="evenodd"><circle cx="12" cy="12" fill="#fff" opacity=".6" r="12"/><g fill="#14a0c2"><circle cx="12" cy="12" opacity="0" r="11"/><path d="m7.53367864 15c1.15025898 0 1.9170983.5114818 2.68393766.5112262.7668393.0002556 1.1502589-.5112262 2.3005179-.5112262s1.5336787.5109706 2.300518.5112262 1.5336786-.5112262 2.6839376-.5112262c.5034837 0 1.0416745.1933458 1.5336786.3195164v1.0384538s-.9956258-.3355178-1.5336786-.3355178c-.7668393 0-1.5336787.5112262-2.6839376.5112262-1.150259 0-1.5336787-.5109706-2.300518-.5112262-.7871452.0177396-1.150259.5112262-2.3005179.5112262-1.15025902 0-1.91709834-.5114818-2.68393766-.5112262s-1.53367864.3355178-1.53367864.3355178v-1.0384538c.50629799-.1125209 1.00144614-.3195164 1.53367864-.3195164zm-1.53367864 2.3195164c.50629799-.1125209 1.00144615-.3195164 1.53367864-.3195164 1.15025898 0 1.9170983.5114818 2.68393766.5112262.7668393.0002556 1.1502589-.5112262 2.3005179-.5112262s1.5336787.5109706 2.300518.5112262 1.5336786-.5112262 2.6839376-.5112262c.5034837 0 1.0416745.1933458 1.5336786.3195164v1.0384538s-.9956258-.3355178-1.5336786-.3355178c-.7668393 0-1.5336787.5112262-2.6839376.5112262-1.150259 0-1.5336787-.5109706-2.300518-.5112262-.7871452.0177396-1.150259.5112262-2.3005179.5112262-1.15025902 0-1.91709834-.5114818-2.68393766-.5112262s-1.53367864.3355178-1.53367864.3355178zm5.9106217-12.3195164c.0843907.35195672.2396373.69616254.2396373 1.06614781 0 .79961086-.3836114 1.33268477-.3834197 1.86575868-.0001917.53307391.3834197.79961086.3834197 1.59922172 0 .79961089-.383228 1.06614779-.3834197 1.59922169s.3834197 1.0661478.3834197 1.8657587c0 .3500003-.1450093.7241276-.2396373 1.0661478h-.7788404s.2516384-.6921165.2516384-1.0661478c0-.5330739-.3834197-1.0661478-.3834197-1.8657587 0-.7996108.3832279-1.0661478.3834197-1.59922169-.0133047-.5471897-.3834197-.79961086-.3834197-1.59922172s.3836114-1.33268477.3834197-1.86575868c-.0001918-.5330739-.2516384-1.06614781-.2516384-1.06614781zm-2.00000001 0c.08439067.35195672.23963731.69616254.23963731 1.06614781 0 .79961086-.38361139 1.33268477-.38341968 1.86575868-.00019171.53307391.38341968.79961086.38341968 1.59922172 0 .79961089-.38322797 1.06614779-.38341968 1.59922169s.38341968 1.0661478.38341968 1.8657587c0 .3500003-.1450093.7241276-.23963731 1.0661478h-.77884035s.25163832-.6921165.25163832-1.0661478c0-.5330739-.38341966-1.0661478-.38341966-1.8657587 0-.7996108.38322795-1.0661478.38341966-1.59922169-.01330466-.5471897-.38341966-.79961086-.38341966-1.59922172s.38361137-1.33268477.38341966-1.86575868c-.00019171-.5330739-.25163832-1.06614781-.25163832-1.06614781zm4.00000001 0c.0843907.35195672.2396373.69616254.2396373 1.06614781 0 .79961086-.3836114 1.33268477-.3834197 1.86575868-.0001917.53307391.3834197.79961086.3834197 1.59922172 0 .79961089-.383228 1.06614779-.3834197 1.59922169s.3834197 1.0661478.3834197 1.8657587c0 .3500003-.1450093.7241276-.2396373 1.0661478h-.7788404s.2516384-.6921165.2516384-1.0661478c0-.5330739-.3834197-1.0661478-.3834197-1.8657587 0-.7996108.3832279-1.0661478.3834197-1.59922169-.0133047-.5471897-.3834197-.79961086-.3834197-1.59922172s.3836114-1.33268477.3834197-1.86575868c-.0001918-.5330739-.2516384-1.06614781-.2516384-1.06614781zm2.0020268 0c.0843906.35195672.2396373.69616254.2396373 1.06614781 0 .79961086-.3836114 1.33268477-.3834197 1.86575868-.0001917.53307391.3834197.79961086.3834197 1.59922172 0 .79961089-.383228 1.06614779-.3834197 1.59922169s.3834197 1.0661478.3834197 1.8657587c0 .3500003-.1450093.7241276-.2396373 1.0661478h-.7788404s.2516383-.6921165.2516383-1.0661478c0-.5330739-.3834196-1.0661478-.3834196-1.8657587 0-.7996108.3832279-1.0661478.3834196-1.59922169-.0133046-.5471897-.3834196-.79961086-.3834196-1.59922172s.3836114-1.33268477.3834196-1.86575868c-.0001917-.5330739-.2516383-1.06614781-.2516383-1.06614781z"/></g></g></svg>