<?xml version="1.0" encoding="UTF-8"?>
<svg width="24px" height="24px" viewBox="0 0 24 24" version="1.1" xmlns="http://www.w3.org/2000/svg" xmlns:xlink="http://www.w3.org/1999/xlink">
    <title>waterfall-m</title>
    <g id="Page-1" stroke="none" stroke-width="1" fill="none" fill-rule="evenodd">
        <g id="waterfall-m" fill-rule="nonzero">
            <g id="Group" transform="translate(1.000000, 1.000000)" fill="#14A0C2">
                <circle id="Oval" opacity="0" cx="11" cy="11" r="11"></circle>
                <path d="M6.53367864,14 C7.68393762,14 8.45077694,14.5114818 9.2176163,14.5112262 C9.9844556,14.5114818 10.3678752,14 11.5181342,14 C12.6683932,14 13.0518129,14.5109706 13.8186522,14.5112262 C14.5854915,14.5114818 15.3523308,14 16.5025898,14 C17.0060735,14 17.5442643,14.1933458 18.0362684,14.3195164 L18.0362684,15.3579702 C18.0362684,15.3579702 17.0406426,15.0224524 16.5025898,15.0224524 C15.7357505,15.0224524 14.9689111,15.5336786 13.8186522,15.5336786 C12.6683932,15.5336786 12.2849735,15.022708 11.5181342,15.0224524 C10.730989,15.040192 10.3678752,15.5336786 9.2176163,15.5336786 C8.06735728,15.5336786 7.30051796,15.0221968 6.53367864,15.0224524 C5.76683932,15.022708 5,15.3579702 5,15.3579702 L5,14.3195164 C5.50629799,14.2069955 6.00144614,14 6.53367864,14 L6.53367864,14 Z M5,16.3195164 C5.50629799,16.2069955 6.00144615,16 6.53367864,16 C7.68393762,16 8.45077694,16.5114818 9.2176163,16.5112262 C9.9844556,16.5114818 10.3678752,16 11.5181342,16 C12.6683932,16 13.0518129,16.5109706 13.8186522,16.5112262 C14.5854915,16.5114818 15.3523308,16 16.5025898,16 C17.0060735,16 17.5442643,16.1933458 18.0362684,16.3195164 L18.0362684,17.3579702 C18.0362684,17.3579702 17.0406426,17.0224524 16.5025898,17.0224524 C15.7357505,17.0224524 14.9689111,17.5336786 13.8186522,17.5336786 C12.6683932,17.5336786 12.2849735,17.022708 11.5181342,17.0224524 C10.730989,17.040192 10.3678752,17.5336786 9.2176163,17.5336786 C8.06735728,17.5336786 7.30051796,17.0221968 6.53367864,17.0224524 C5.76683932,17.022708 5,17.3579702 5,17.3579702 L5,16.3195164 Z M10.9106217,4 C10.9950124,4.35195672 11.150259,4.69616254 11.150259,5.06614781 C11.150259,5.86575867 10.7666476,6.39883258 10.7668393,6.93190649 C10.7666476,7.4649804 11.150259,7.73151735 11.150259,8.53112821 C11.150259,9.3307391 10.767031,9.597276 10.7668393,10.1303499 C10.7666476,10.6634238 11.150259,11.1964977 11.150259,11.9961086 C11.150259,12.3461089 11.0052497,12.7202362 10.9106217,13.0622564 L10.1317813,13.0622564 C10.1317813,13.0622564 10.3834197,12.3701399 10.3834197,11.9961086 C10.3834197,11.4630347 10,10.9299608 10,10.1303499 C10,9.3307391 10.3832279,9.0642021 10.3834197,8.53112821 C10.370115,7.98393851 10,7.73151735 10,6.93190649 C10,6.13229563 10.3836114,5.59922172 10.3834197,5.06614781 C10.3832279,4.53307391 10.1317813,4 10.1317813,4 L10.9106217,4 Z M8.91062169,4 C8.99501236,4.35195672 9.150259,4.69616254 9.150259,5.06614781 C9.150259,5.86575867 8.76664761,6.39883258 8.76683932,6.93190649 C8.76664761,7.4649804 9.150259,7.73151735 9.150259,8.53112821 C9.150259,9.3307391 8.76703103,9.597276 8.76683932,10.1303499 C8.76664761,10.6634238 9.150259,11.1964977 9.150259,11.9961086 C9.150259,12.3461089 9.0052497,12.7202362 8.91062169,13.0622564 L8.13178134,13.0622564 C8.13178134,13.0622564 8.38341966,12.3701399 8.38341966,11.9961086 C8.38341966,11.4630347 8,10.9299608 8,10.1303499 C8,9.3307391 8.38322795,9.0642021 8.38341966,8.53112821 C8.370115,7.98393851 8,7.73151735 8,6.93190649 C8,6.13229563 8.38361137,5.59922172 8.38341966,5.06614781 C8.38322795,4.53307391 8.13178134,4 8.13178134,4 L8.91062169,4 Z M12.9106217,4 C12.9950124,4.35195672 13.150259,4.69616254 13.150259,5.06614781 C13.150259,5.86575867 12.7666476,6.39883258 12.7668393,6.93190649 C12.7666476,7.4649804 13.150259,7.73151735 13.150259,8.53112821 C13.150259,9.3307391 12.767031,9.597276 12.7668393,10.1303499 C12.7666476,10.6634238 13.150259,11.1964977 13.150259,11.9961086 C13.150259,12.3461089 13.0052497,12.7202362 12.9106217,13.0622564 L12.1317813,13.0622564 C12.1317813,13.0622564 12.3834197,12.3701399 12.3834197,11.9961086 C12.3834197,11.4630347 12,10.9299608 12,10.1303499 C12,9.3307391 12.3832279,9.0642021 12.3834197,8.53112821 C12.370115,7.98393851 12,7.73151735 12,6.93190649 C12,6.13229563 12.3836114,5.59922172 12.3834197,5.06614781 C12.3832279,4.53307391 12.1317813,4 12.1317813,4 L12.9106217,4 Z M14.9126485,4 C14.9970391,4.35195672 15.1522858,4.69616254 15.1522858,5.06614781 C15.1522858,5.86575867 14.7686744,6.39883258 14.7688661,6.93190649 C14.7686744,7.4649804 15.1522858,7.73151735 15.1522858,8.53112821 C15.1522858,9.3307391 14.7690578,9.597276 14.7688661,10.1303499 C14.7686744,10.6634238 15.1522858,11.1964977 15.1522858,11.9961086 C15.1522858,12.3461089 15.0072765,12.7202362 14.9126485,13.0622564 L14.1338081,13.0622564 C14.1338081,13.0622564 14.3854464,12.3701399 14.3854464,11.9961086 C14.3854464,11.4630347 14.0020268,10.9299608 14.0020268,10.1303499 C14.0020268,9.3307391 14.3852547,9.0642021 14.3854464,8.53112821 C14.3721418,7.98393851 14.0020268,7.73151735 14.0020268,6.93190649 C14.0020268,6.13229563 14.3856382,5.59922172 14.3854464,5.06614781 C14.3852547,4.53307391 14.1338081,4 14.1338081,4 L14.9126485,4 Z" id="Shape"></path>
            </g>
        </g>
    </g>
</svg>