<?xml version="1.0" encoding="UTF-8" standalone="no"?>
<svg width="17px" height="16px" viewBox="0 0 17 16" version="1.1" xmlns="http://www.w3.org/2000/svg" xmlns:xlink="http://www.w3.org/1999/xlink" xmlns:sketch="http://www.bohemiancoding.com/sketch/ns">
    <!-- Generator: Sketch 3.3.3 (12072) - http://www.bohemiancoding.com/sketch -->
    <title>waterfall-s</title>
    <desc>Created with Sketch.</desc>
    <defs></defs>
    <g id="POI" stroke="none" stroke-width="1" fill="none" fill-rule="evenodd" sketch:type="MSPage">
        <g id="waterfall-s" sketch:type="MSLayerGroup" transform="translate(0.000000, -0.500000)">
            <circle id="Oval-1-Copy-38" opacity="0.5" fill="#FFFFFF" sketch:type="MSShapeGroup" cx="8.5" cy="8.5" r="7.87037037"></circle>
            <path d="M4.40740741,10.7037037 C3.97040667,10.7037037 3.56385481,10.8736617 3.14814815,10.9660494 L3.14814815,11.8186938 C3.14814815,11.8186938 3.77777778,11.5434198 4.40740741,11.5432099 C5.03703704,11.543 5.66666667,11.962963 6.61111111,11.962963 C7.55555556,11.962963 7.85369778,11.5577753 8.5,11.5432099 C9.12962963,11.5434198 9.44444444,11.962963 10.3888889,11.962963 C11.3333333,11.962963 11.962963,11.5432099 12.5925926,11.5432099 C13.0343722,11.5432099 13.8518519,11.8186938 13.8518519,11.8186938 L13.8518519,10.9660494 C13.4478815,10.8624543 13.0059885,10.7037037 12.5925926,10.7037037 C11.6481481,10.7037037 11.0185185,11.1236667 10.3888889,11.1234568 C9.75925926,11.1232469 9.44444444,10.7037037 8.5,10.7037037 C7.55555556,10.7037037 7.24074074,11.1236667 6.61111111,11.1234568 C5.98148148,11.1236667 5.35185185,10.7037037 4.40740741,10.7037037 L4.40740741,10.7037037 Z" id="path4758-copy" fill="#4793C7" sketch:type="MSShapeGroup"></path>
            <path d="M4.40740741,12.5925926 C3.97040667,12.5925926 3.56385481,12.7625506 3.14814815,12.8549383 L3.14814815,13.7075827 C3.14814815,13.7075827 3.77777778,13.4323086 4.40740741,13.4320988 C5.03703704,13.4318889 5.66666667,13.8518519 6.61111111,13.8518519 C7.55555556,13.8518519 7.85369778,13.4466642 8.5,13.4320988 C9.12962963,13.4323086 9.44444444,13.8518519 10.3888889,13.8518519 C11.3333333,13.8518519 11.962963,13.4320988 12.5925926,13.4320988 C13.0343722,13.4320988 13.8518519,13.7075827 13.8518519,13.7075827 L13.8518519,12.8549383 C13.4478815,12.7513432 13.0059885,12.5925926 12.5925926,12.5925926 C11.6481481,12.5925926 11.0185185,13.0125556 10.3888889,13.0123457 C9.75925926,13.0121358 9.44444444,12.5925926 8.5,12.5925926 C7.55555556,12.5925926 7.24074074,13.0125556 6.61111111,13.0123457 C5.98148148,13.0125556 5.35185185,12.5925926 4.40740741,12.5925926 L4.40740741,12.5925926 Z" id="path4758-copy-6" fill="#4793C7" sketch:type="MSShapeGroup"></path>
            <path d="M8.30324074,2.51851852 L7.66375741,2.51851852 C7.66375741,2.51851852 7.87021296,2.95621012 7.87037037,3.39390171 C7.87052778,3.83159331 7.55555556,4.26928491 7.55555556,4.92582231 C7.55555556,5.5823597 7.8594463,5.78961543 7.87037037,6.2388971 C7.87021296,6.6765887 7.55555556,6.89543449 7.55555556,7.55197189 C7.55555556,8.20850929 7.87037037,8.64620088 7.87037037,9.08389248 C7.87037037,9.39099879 7.66375741,9.95927568 7.66375741,9.95927568 L8.30324074,9.95927568 C8.38093704,9.67845275 8.5,9.37126765 8.5,9.08389248 C8.5,8.42735509 8.18502778,7.98966349 8.18518519,7.55197189 C8.18534259,7.11428029 8.5,6.89543449 8.5,6.2388971 C8.5,5.5823597 8.18502778,5.3635139 8.18518519,4.92582231 C8.18502778,4.48813071 8.5,4.05043911 8.5,3.39390171 C8.5,3.09011748 8.37253148,2.80750002 8.30324074,2.51851852 Z" id="path4758-copy-2" fill="#4793C7" sketch:type="MSShapeGroup"></path>
            <path d="M7.04398148,2.51851852 L6.40449815,2.51851852 C6.40449815,2.51851852 6.6109537,2.95621012 6.61111111,3.39390171 C6.61126852,3.83159331 6.2962963,4.26928491 6.2962963,4.92582231 C6.2962963,5.5823597 6.60018704,5.78961543 6.61111111,6.2388971 C6.6109537,6.6765887 6.2962963,6.89543449 6.2962963,7.55197189 C6.2962963,8.20850929 6.61111111,8.64620088 6.61111111,9.08389248 C6.61111111,9.39099879 6.40449815,9.95927568 6.40449815,9.95927568 L7.04398148,9.95927568 C7.12167778,9.67845275 7.24074074,9.37126765 7.24074074,9.08389248 C7.24074074,8.42735509 6.92576852,7.98966349 6.92592593,7.55197189 C6.92608333,7.11428029 7.24074074,6.89543449 7.24074074,6.2388971 C7.24074074,5.5823597 6.92576852,5.3635139 6.92592593,4.92582231 C6.92576852,4.48813071 7.24074074,4.05043911 7.24074074,3.39390171 C7.24074074,3.09011748 7.11327222,2.80750002 7.04398148,2.51851852 Z" id="path4758-copy-5" fill="#4793C7" sketch:type="MSShapeGroup"></path>
            <path d="M9.5625,2.51851852 L8.92301667,2.51851852 C8.92301667,2.51851852 9.12947222,2.95621012 9.12962963,3.39390171 C9.12978704,3.83159331 8.81481481,4.26928491 8.81481481,4.92582231 C8.81481481,5.5823597 9.11870556,5.78961543 9.12962963,6.2388971 C9.12947222,6.6765887 8.81481481,6.89543449 8.81481481,7.55197189 C8.81481481,8.20850929 9.12962963,8.64620088 9.12962963,9.08389248 C9.12962963,9.39099879 8.92301667,9.95927568 8.92301667,9.95927568 L9.5625,9.95927568 C9.6401963,9.67845275 9.75925926,9.37126765 9.75925926,9.08389248 C9.75925926,8.42735509 9.44428704,7.98966349 9.44444444,7.55197189 C9.44460185,7.11428029 9.75925926,6.89543449 9.75925926,6.2388971 C9.75925926,5.5823597 9.44428704,5.3635139 9.44444444,4.92582231 C9.44428704,4.48813071 9.75925926,4.05043911 9.75925926,3.39390171 C9.75925926,3.09011748 9.63179074,2.80750002 9.5625,2.51851852 Z" id="path4758-copy-3" fill="#4793C7" sketch:type="MSShapeGroup"></path>
            <path d="M10.8217593,2.51851852 L10.1822759,2.51851852 C10.1822759,2.51851852 10.3887315,2.95621012 10.3888889,3.39390171 C10.3890463,3.83159331 10.0740741,4.26928491 10.0740741,4.92582231 C10.0740741,5.5823597 10.3779648,5.78961543 10.3888889,6.2388971 C10.3887315,6.6765887 10.0740741,6.89543449 10.0740741,7.55197189 C10.0740741,8.20850929 10.3888889,8.64620088 10.3888889,9.08389248 C10.3888889,9.39099879 10.1822759,9.95927568 10.1822759,9.95927568 L10.8217593,9.95927568 C10.8994556,9.67845275 11.0185185,9.37126765 11.0185185,9.08389248 C11.0185185,8.42735509 10.7035463,7.98966349 10.7037037,7.55197189 C10.7038611,7.11428029 11.0185185,6.89543449 11.0185185,6.2388971 C11.0185185,5.5823597 10.7035463,5.3635139 10.7037037,4.92582231 C10.7035463,4.48813071 11.0185185,4.05043911 11.0185185,3.39390171 C11.0185185,3.09011748 10.89105,2.80750002 10.8217593,2.51851852 Z" id="path4758-copy-4" fill="#4793C7" sketch:type="MSShapeGroup"></path>
        </g>
    </g>
</svg>