<?xml version="1.0" encoding="UTF-8" standalone="no"?>
<svg width="17px" height="17px" viewBox="0 0 17 17" version="1.1" xmlns="http://www.w3.org/2000/svg" xmlns:xlink="http://www.w3.org/1999/xlink">
    <!-- Generator: Sketch 3.8.3 (29802) - http://www.bohemiancoding.com/sketch -->
    <title>wayside_shrine-s</title>
    <desc>Created with Sketch.</desc>
    <defs>
        <path d="M9.104,4 L5,8.104 L5.707,8.811 L9.103,5.415 L12.499,8.811 L13.206,8.104 L9.104,4 L9.104,4 Z M10.241,12.97 L11.604,12.97 L11.604,9.41 L9.125,6.931 L6.604,9.451 L6.604,12.97 L7.967,12.97 L10.241,12.97 L10.241,12.97 Z" id="path-1"></path>
    </defs>
    <g id="POI-Clear" stroke="none" stroke-width="1" fill="none" fill-rule="evenodd">
        <g id="wayside_shrine-s">
            <path d="M8.5,17 C3.812,17 0,13.188 0,8.5 C0,3.812 3.812,0 8.5,0 C13.188,0 17,3.812 17,8.5 C17,13.188 13.188,17 8.5,17 L8.5,17 Z" id="Shape" fill-opacity="0.6" fill="#FFFFFF"></path>
            <ellipse id="Oval" fill="#8C4D16" cx="8.5" cy="8.5" rx="7.5" ry="7.5"></ellipse>
            <g id="Shape" fill="#FFFFFF">
                <use xlink:href="#path-1"></use>
                <use xlink:href="#path-1"></use>
            </g>
        </g>
    </g>
</svg>