<?xml version="1.0" encoding="UTF-8" standalone="no"?>
<svg width="23px" height="23px" viewBox="0 0 23 23" version="1.1" xmlns="http://www.w3.org/2000/svg" xmlns:xlink="http://www.w3.org/1999/xlink">
    <!-- Generator: Sketch 3.8.3 (29802) - http://www.bohemiancoding.com/sketch -->
    <title>wayside_shrine-m</title>
    <desc>Created with Sketch.</desc>
    <defs>
        <path d="M11.545,4 L4.979,10.565 L6.111,11.696 L11.546,6.262 L16.98,11.696 L18.112,10.565 L11.545,4 L11.545,4 Z M16,12.735 L16,19 L14,19 L14,15.5 C14,14.119 12.881,13 11.5,13 C10.119,13 9,14.119 9,15.5 L9,19 L7,19 L7,12.807 L11.537,8.371 L16,12.735 L16,12.735 Z" id="path-1"></path>
    </defs>
    <g id="POI-Clear" stroke="none" stroke-width="1" fill="none" fill-rule="evenodd">
        <g id="wayside_shrine-m">
            <path d="M11.5,23 C5.159,23 0,17.841 0,11.5 C0,5.159 5.159,0 11.5,0 C17.841,0 23,5.159 23,11.5 C23,17.841 17.841,23 11.5,23 L11.5,23 Z" id="Shape" fill-opacity="0.6" fill="#FFFFFF"></path>
            <path d="M22,11.5 C22,17.299 17.299,22 11.5,22 C5.701,22 1,17.299 1,11.5 C1,5.701 5.701,1 11.5,1 C17.299,1 22,5.701 22,11.5 L22,11.5 Z" id="Shape" fill="#8C4D16"></path>
            <g id="Shape" fill="#FFFFFF">
                <use xlink:href="#path-1"></use>
                <use xlink:href="#path-1"></use>
            </g>
        </g>
    </g>
</svg>