<svg xmlns:xlink="http://www.w3.org/1999/xlink" width="28" height="28" viewBox="0 0 28 28">
  <defs>
    <path id="wfc_city-a" d="M13.0000477,1.08333333 C6.42915,1.08333333 1.08333333,6.42915 1.08333333,13 C1.08333333,19.5708977 6.42915,24.9166667 13.0000477,24.9166667 C19.5709453,24.9166667 24.9166667,19.5708977 24.9166667,13 C24.9166667,6.42915 19.5709453,1.08333333 13.0000477,1.08333333 Z M22.535097,12.5607517 C22.5253253,12.4300497 22.5165547,12.2992523 22.507927,12.1685027 C22.487907,11.8662483 22.467172,11.553698 22.4323277,11.2421963 C22.414548,11.0823223 22.4352353,10.960534 22.503637,10.821538 C22.6078363,10.610041 22.8618043,10.0399 23.058048,9.59769633 C23.42041,10.66624 23.617035,11.8106213 23.617035,13 C23.617035,14.2406203 23.4024397,15.4319057 23.009571,16.539536 C22.7240477,16.0641087 22.3910007,15.506218 22.2395637,15.2532033 C22.260251,15.1418063 22.281558,15.0303617 22.3029603,14.918917 C22.4474857,14.1647827 22.597016,13.384813 22.535097,12.5607517 Z M22.3897613,8.049626 C22.1500457,8.64674633 21.739731,9.633351 21.6029753,9.962537 C21.3065363,9.77310967 21.022872,9.594312 20.717424,9.436869 C20.03417,9.08456467 19.313879,8.89723467 18.5746643,8.87907367 C18.051618,7.49216433 17.3359983,6.29925833 16.395964,5.24849433 C16.395964,5.24849433 17.12698,4.124991 17.582149,3.42381433 C19.63663,4.41080033 21.3261273,6.04014233 22.3897613,8.049626 Z M15.5034533,20.163013 C15.442297,20.254676 15.351492,20.3376637 15.1034823,20.388667 C14.4609833,20.520799 13.780065,20.579 13.0794127,20.579 L13.0793173,20.579 C12.497641,20.579 11.902332,20.544108 11.2604527,20.4543517 C10.4376307,19.4893877 9.74608267,18.3939123 9.148724,17.0997623 C9.86963467,15.953951 10.535109,14.9125773 11.1790857,13.9184413 C12.711712,13.857428 14.12827,13.8097613 15.5048357,13.770484 C16.2253173,14.8849307 16.9342637,16.007576 17.54454,16.975686 C17.5137473,17.0326 17.4833837,17.089371 17.4534013,17.1452363 C17.317027,17.3994427 17.1880887,17.6396827 17.045184,17.8597597 C16.7205263,18.3598783 16.379519,18.864287 16.0496657,19.3520123 C15.86715,19.6219487 15.6845867,19.891885 15.5034533,20.163013 Z M11.1877133,5.907915 C12.065066,5.80199967 12.7845943,5.752617 13.4523567,5.752617 C14.0681147,5.752617 14.6315347,5.79475433 15.1744103,5.88136467 C15.2929097,5.90028833 15.417415,5.967117 15.4647957,6.01826333 C16.33619,6.958822 16.9999007,8.06883567 17.4929647,9.41046167 C17.1087237,10.029175 16.7136147,10.654943 16.331185,11.2607387 C16.0560053,11.6965073 15.7808733,12.132276 15.507362,12.568998 C15.5062657,12.5707617 15.5053123,12.5723823 15.5043113,12.5739553 C15.5006887,12.5741937 15.496494,12.574432 15.4918227,12.574575 C14.0620133,12.6152823 12.5979793,12.6661903 11.13957,12.7256783 C10.5404953,11.7207697 9.83393233,10.5377783 9.11645367,9.35083067 C9.09490833,9.31522367 9.086376,9.288864 9.082944,9.27375367 L9.08742467,9.26259967 C9.615333,7.94633233 10.219222,6.91701833 10.9880377,6.02322067 C11.0623977,5.93670567 11.111685,5.91711467 11.1877133,5.907915 Z M8.634782,3.322332 C9.10877933,4.001296 9.81915567,5.022745 10.018593,5.31522767 C9.162309,6.33901233 8.489637,7.493785 8.01649767,8.75228033 C6.9082,8.89313533 5.92116633,9.315176 4.82187767,9.90614733 C4.62525267,9.577724 4.05067867,8.591596 3.67006033,7.936799 C4.77483067,5.90915433 6.52128967,4.27938333 8.634782,3.322332 Z M3.979417,15.3606917 C3.783364,15.6692857 3.369236,16.2881897 3.06602833,16.7459327 C2.625064,15.5804827 2.382965,14.318031 2.382965,13 C2.382965,11.711141 2.614053,10.4752397 3.036618,9.331335 C3.40403267,9.892181 3.85548367,10.582871 4.01707367,10.839985 C4.01664467,10.8458003 4.01592967,10.852283 4.01483333,10.859004 C3.72911933,12.5926407 3.71767933,14.026311 3.979417,15.3606917 Z M3.624062,17.976543 C3.93461033,17.523376 4.63712167,16.5110313 4.77301933,16.2941003 C5.61657633,16.8014167 6.44549967,17.1713577 7.30278467,17.4234667 L7.367802,17.4426763 C7.57438933,17.5038803 7.80647833,17.5727587 8.056776,17.6054103 C8.05739567,17.6067927 8.05801533,17.6081273 8.058635,17.6095097 C8.635497,18.8642393 9.35955367,20.0355523 10.211929,21.093228 C10.0058183,21.40554 9.38400667,22.276267 8.983702,22.827246 C6.683261,21.883732 4.78512667,20.1552433 3.624062,17.976543 Z M17.2269847,22.7382523 C16.972826,22.2618717 16.4484927,21.2454277 16.3501563,21.0122423 C17.237376,19.9448903 17.9277323,18.752318 18.6136557,17.5228993 C18.6268593,17.499209 18.6594633,17.4672247 18.678101,17.4562613 C19.561126,17.1501937 20.5452997,16.8084237 21.454875,16.2147353 C21.6505467,16.4990193 22.106955,17.35435 22.3887603,17.952376 C21.2643037,20.0755447 19.4409583,21.7735743 17.2269847,22.7382523 Z"/>
  </defs>
  <g fill="none" fill-rule="evenodd">
    <circle cx="14" cy="14" r="14" fill="#FFF"/>
    <g transform="translate(1 1)">
      <polygon fill="#FF2727" fill-opacity=".25" points="0 0 26 0 26 26 0 26" opacity="0"/>
      <path d="M12.6262078,1.08333333 C12.8769456,1.08333333 13.1276833,1.08333333 13.3786694,1.08333333 C13.4173972,1.08879456 13.456125,1.09599345 13.4951011,1.09922054 C13.8203154,1.12627845 14.146771,1.14291038 14.4707441,1.1806425 C15.6345645,1.31642851 16.7509682,1.6287115 17.8216929,2.10284546 C21.8084234,3.8683118 24.583172,7.7209605 24.8870364,12.1606913 C24.9759117,13.4584779 24.8664312,14.7376466 24.5372448,15.9949704 C23.2604682,20.8711031 19.1148544,24.390865 14.098113,24.8637578 C12.718807,24.9938344 11.3573754,24.8836168 10.016549,24.53807 C5.07031208,23.2636178 1.48625155,18.9559494 1.11908208,13.8489557 C1.1079106,13.6918213 1.09524958,13.5346868 1.08333333,13.3775524 C1.08333333,13.1268323 1.08333333,12.8761123 1.08333333,12.625144 C1.08854669,12.5898942 1.09698737,12.5546445 1.0984769,12.5193947 C1.11808906,11.96508 1.17866334,11.4152336 1.2792067,10.8698554 C1.70173707,8.57663577 2.69972304,6.56690356 4.29873488,4.87218495 C6.43224019,2.61098798 9.06076641,1.36086305 12.1642048,1.11858308 C12.3181231,1.10641944 12.4722896,1.0950005 12.6262078,1.08333333 Z M13.4864121,15.7842166 C13.9377401,15.7611305 14.3885716,15.7328314 14.8401478,15.7179372 C15.0039963,15.712476 15.1251448,15.6501683 15.2204748,15.5250565 C15.418086,15.2656481 15.6164419,15.0069845 15.811074,14.7455902 C16.2184608,14.1987226 16.5225734,13.5900438 16.8358715,12.9888122 C17.0195803,12.6365629 17.1687817,12.2659441 17.3231965,11.899297 C17.4130649,11.6860609 17.3917149,11.4800236 17.2859582,11.2635604 C16.9009143,10.4751575 16.5114019,9.68948526 16.0600739,8.93658039 C15.884061,8.64291523 15.7008486,8.35322186 15.5166433,8.06452145 C15.4957898,8.03175407 15.4488696,7.99873846 15.4118796,7.99575961 C15.017402,7.96348871 14.622428,7.94139556 14.2279505,7.90862819 C13.0231679,7.80883664 11.8226057,7.8540159 10.6250225,8.00866797 C10.5562558,8.01760452 10.5217483,8.04664833 10.4907164,8.10275005 C10.3137105,8.42545902 10.1426626,8.75164333 9.95349216,9.06715341 C9.60022499,9.65646965 9.31150418,10.2773121 9.04289203,10.9078358 C8.94880331,11.1285191 8.87507151,11.3578907 8.79414031,11.5840352 C8.75988109,11.6793585 8.77576942,11.7617734 8.83584718,11.8513872 C9.66377833,13.0863696 10.4879856,14.3235862 11.3097104,15.5625404 C11.3571271,15.6342811 11.4109985,15.6630767 11.491185,15.6727579 C12.1540264,15.7526905 12.8186056,15.7886849 13.4864121,15.7842166 Z M13.2875597,16.4214427 C12.5085348,16.3829659 11.9651042,16.3576457 11.4216735,16.3273607 C11.3432249,16.3228924 11.2958081,16.3474679 11.2501291,16.4092791 C11.07784,16.6426225 10.9043096,16.8752212 10.7243246,17.1026069 C10.1759288,17.7954383 9.62356098,18.485539 9.07442045,19.1776256 C8.99249622,19.2808925 8.91901268,19.3903653 8.83981927,19.4958663 C8.80431877,19.5432797 8.80382226,19.5857284 8.82939255,19.6408371 C9.23553808,20.5141373 9.6982858,21.3566559 10.2037334,22.1763367 C10.2958361,22.3257758 10.4135091,22.4233332 10.5835639,22.4436887 C10.9559467,22.4883715 11.3288261,22.5454662 11.7029467,22.5593675 C12.6567432,22.5946172 13.6095467,22.5544027 14.5551508,22.4201061 C14.8927779,22.3721963 15.2266812,22.2890367 15.5568606,22.2011605 C15.6598865,22.1736061 15.7658915,22.095163 15.8341617,22.010514 C16.0119124,21.7905754 16.1839533,21.5631897 16.3321617,21.3226474 C16.6673062,20.7787586 16.9840798,20.2236992 17.3135145,19.6763351 C17.4366491,19.4720355 17.4294497,19.286602 17.2968814,19.0875154 C16.6941178,18.1814479 16.0700041,17.2907711 15.4017011,16.4313723 C15.351057,16.3660857 15.2979304,16.3494538 15.217744,16.3526809 C14.4963143,16.3812282 13.7746364,16.4045626 13.2875597,16.4214427 Z M8.0369619,5.04719252 C7.244283,5.04396543 6.46947848,5.17677258 5.70559718,5.37858981 C5.65520137,5.39199464 5.59859918,5.42128669 5.56707077,5.46100472 C5.22224428,5.8944277 4.87071489,6.3233824 4.5425215,6.76921726 C3.97128625,7.54471176 3.50829027,8.38226567 3.15601612,9.28014134 C3.04554255,9.56164286 3.03784664,9.84091024 3.1644568,10.1157093 C3.46484561,10.7675815 3.77243382,11.4159783 4.07257438,12.0680987 C4.114033,12.1584572 4.16517357,12.1629254 4.24933209,12.1430664 C4.68849556,12.040296 5.12939683,11.9442281 5.56880856,11.8426988 C6.36967988,11.6575135 7.17948839,11.5296711 7.99848234,11.4651293 C8.11640357,11.4559446 8.16357206,11.4154818 8.20155511,11.3067537 C8.4033866,10.7281117 8.62209944,10.1561721 8.9244743,9.61997871 C9.20276839,9.12648222 9.46840147,8.62529035 9.75737054,8.13824803 C9.92692885,7.85252647 9.92717711,7.58318859 9.80155997,7.28455867 C9.48031772,6.52147606 9.06275245,5.81350222 8.59727392,5.1320898 C8.56773155,5.08889644 8.49673056,5.05588083 8.44236267,5.05141256 C8.30780834,5.03949715 8.17201274,5.04719252 8.0369619,5.04719252 Z M17.3326302,5.02907116 C16.8562284,5.75640755 16.4562893,6.52271725 16.1357918,7.33122736 C16.0496472,7.54818708 16.0536193,7.74181247 16.1802295,7.94884269 C16.537717,8.53344241 16.882047,9.12623398 17.2286112,9.71753612 C17.5419093,10.2522401 17.8368365,10.7968735 18.0590249,11.377005 C18.0860847,11.4477527 18.1220818,11.4842436 18.194324,11.4964073 C18.655334,11.5748504 19.1148544,11.6617336 19.5771056,11.7324813 C20.085284,11.8104279 20.5956967,11.8722391 21.1046199,11.9454692 C21.2113696,11.96086 21.2831154,11.9166737 21.3436897,11.8419541 C21.4223866,11.744645 21.4958701,11.6431158 21.5740705,11.5450619 C21.8821552,11.1583076 22.1999219,10.7790004 22.4955939,10.3828131 C22.6177354,10.2189762 22.7013974,10.0238614 22.7858042,9.83544901 C22.8183257,9.76271537 22.8312349,9.6594485 22.8059129,9.58646663 C22.6641592,9.17588151 22.5368042,8.75635984 22.3491233,8.36687493 C22.122218,7.8962163 21.8501303,7.44591316 21.5782909,6.99858887 C21.2491044,6.4571825 20.8789559,5.94506818 20.4450058,5.47887783 C20.0760985,5.08244226 19.608634,4.94814568 19.0949939,4.92158425 C18.8546829,4.90942061 17.3872463,4.94566331 17.3326302,5.02907116 Z M21.7587724,17.534044 C21.7121004,17.5774856 21.6731243,17.6129836 21.6351413,17.6494745 C21.050252,18.2109881 20.3782251,18.6394464 19.6307287,18.949247 C19.2081983,19.1245028 18.7864127,19.3089434 18.3306161,19.3804358 C18.1702433,19.4055078 18.0927876,19.4891639 18.0324616,19.6261911 C17.6007458,20.6077229 17.0677419,21.5289329 16.3897569,22.3632597 C16.3482982,22.4141484 16.3172663,22.473229 16.279035,22.5268483 C16.2395625,22.5824536 16.2497409,22.6239093 16.2981507,22.6720674 C16.5253042,22.897219 16.754692,23.1208811 16.9719153,23.3554657 C17.0737,23.465435 17.1732503,23.4857905 17.302343,23.4237311 C17.7797378,23.193863 18.275007,22.9957693 18.7322931,22.731148 C20.443268,21.7406796 21.7473527,20.3349097 22.7890315,18.6719655 C22.8759209,18.5334489 22.9392259,18.3795415 23.0067514,18.2298542 C23.0166816,18.2080093 22.9963246,18.1509146 22.9747264,18.1399922 C22.5723047,17.9359408 22.167897,17.7368542 21.7587724,17.534044 Z M9.77276236,22.7162537 C9.76233565,22.6941605 9.7576188,22.6817487 9.75091591,22.6703297 C9.18464576,21.737949 8.63401569,20.79688 8.17871563,19.8039293 C8.12161693,19.679314 8.03522412,19.6336383 7.91035174,19.612538 C7.07720724,19.4712908 6.29594808,19.1845763 5.55937486,18.771757 C5.13634797,18.5346901 4.7614826,18.2345707 4.41243576,17.9009393 C4.3451586,17.8366457 4.28532909,17.8274609 4.20414964,17.8711508 C3.91393929,18.027044 3.62000512,18.1754902 3.33053954,18.3328728 C3.10661333,18.4545093 3.10338602,18.4619564 3.23843685,18.686115 C3.71483861,19.4770003 4.26075183,20.2155074 4.91341479,20.8711031 C5.41340079,21.3732879 5.98860812,21.7836247 6.56009163,22.1981817 C7.14498092,22.6224198 7.744269,23.0243166 8.40686217,23.3207124 C8.54489207,23.3822754 8.68863184,23.4311782 8.82939255,23.486287 C8.8867395,23.5088766 8.92099872,23.4882729 8.96394687,23.4438383 C9.10346631,23.2998605 9.2481991,23.1605991 9.39690397,23.0263025 C9.51581822,22.9188156 9.64416616,22.8212582 9.77276236,22.7162537 Z M24.3719068,12.8805806 C24.3810922,12.8798358 24.3364063,11.8717427 24.2810454,11.3712955 C24.2485239,11.0781268 24.1723096,10.7891782 24.1070185,10.5002295 C24.0720145,10.3463221 23.5288321,10.223941 23.3915469,10.2063161 C23.3307244,10.1986207 23.2949757,10.2142597 23.2646885,10.268872 C23.146519,10.4821082 23.0201571,10.690876 22.9037254,10.9051052 C22.7351602,11.2158987 22.0328462,12.0755458 21.8938232,12.2254813 C21.8682529,12.2530357 21.8481443,12.3091374 21.8578262,12.3428978 C22.072567,13.0972921 22.1907365,13.8658359 22.2448561,14.6487775 C22.2808531,15.1685872 22.239891,15.6831839 22.2130794,16.1990218 C22.2006667,16.4353441 22.1549877,16.6699287 22.1291692,16.9057544 C22.1261901,16.9335571 22.1440645,16.9807222 22.1659109,16.9916447 C22.5191781,17.1688864 22.871204,17.3488587 23.2306776,17.513192 C23.4446736,17.6109977 23.4153794,17.6174519 23.5114542,17.4094287 C23.8195389,16.7431588 24.0583604,16.054051 24.157166,15.3222463 C24.2663983,14.5117503 24.3609836,13.7000131 24.3719068,12.8805806 Z M2.55399723,10.3234843 C2.37997032,10.3708977 2.22332128,10.4096228 2.06989956,10.4582773 C2.03911591,10.4679586 2.00684273,10.511152 1.9981538,10.5449123 C1.97357653,10.6402356 1.96290156,10.7392824 1.9432894,10.8360951 C1.77646189,11.6560241 1.69428942,12.4838968 1.7099295,13.3214507 C1.72234226,13.9867276 1.82089958,14.6410821 1.95694343,15.2902237 C2.11359248,16.0391567 2.30971409,16.7769191 2.62872205,17.4762046 C2.68557249,17.6008199 2.75806301,17.7184846 2.82558843,17.8438446 C2.87101914,17.8222479 2.90056151,17.8093396 2.92935911,17.7944453 C3.23123745,17.6397933 3.53212277,17.4826588 3.8357389,17.3314821 C3.90351257,17.2977217 3.92734508,17.2587484 3.91021547,17.1860148 C3.8667708,17.0000848 3.83201507,16.8119206 3.78385356,16.62748 C3.61280572,15.9721326 3.48470603,15.3110756 3.47552058,14.6301597 C3.46732816,14.0314104 3.52194431,13.4381224 3.60933014,12.8470685 C3.62894231,12.7140131 3.61851559,12.5936178 3.55173493,12.4759532 C3.44647472,12.2902714 3.33600115,12.1063273 3.24563625,11.9134466 C3.09767615,11.5976883 2.96312182,11.2752275 2.82434716,10.9552492 C2.73398226,10.747226 2.64585166,10.5384581 2.55399723,10.3234843 Z M12.6939815,1.71062994 C12.6530194,1.71062994 12.6204979,1.70963699 12.588473,1.71087817 C12.3712497,1.71956649 12.1540264,1.72626891 11.9370513,1.73818432 C11.3613475,1.76921403 10.7995459,1.88092098 10.2509019,2.05220498 C9.55206348,2.27065413 8.87929185,2.55786512 8.2176917,2.8694034 C7.43047441,3.24027048 6.64573968,3.61734351 5.96254133,4.16843115 C5.82475968,4.27964163 5.69442569,4.4020228 5.57153936,4.52961696 C5.52139181,4.58174688 5.49979361,4.66143117 5.46528613,4.72845534 C5.47372681,4.73912956 5.48216749,4.75005202 5.49035991,4.76072624 C5.71180356,4.73292362 5.93424023,4.71132694 6.15444261,4.67632543 C6.90243557,4.55717135 7.64447041,4.3908521 8.4083517,4.40276751 C8.565249,4.40524989 8.70079635,4.3526235 8.82268966,4.24637778 C9.42396379,3.72309276 10.0877982,3.29736515 10.8300813,3.00320351 C11.4298659,2.76564005 12.0353604,2.54272262 12.6376275,2.31161335 C12.6669217,2.30044265 12.7123524,2.27239179 12.7121041,2.25253278 C12.7111111,2.07529108 12.7014291,1.89804938 12.6939815,1.71062994 Z M19.873274,4.37595784 C19.8918932,4.27343568 19.9152292,4.18357365 19.9219321,4.09247042 C19.9249111,4.05175944 19.9067885,3.99193416 19.8767496,3.96884806 C19.599945,3.75610837 19.3293469,3.53269446 19.0364057,3.34378559 C17.9408554,2.63730117 16.7378107,2.19196279 15.4689783,1.91617073 C14.7969514,1.77020698 14.1179734,1.68233084 13.4283204,1.69995572 C13.3742008,1.70144514 13.3203294,1.70814756 13.2555348,1.71360879 C13.2555348,1.91120598 13.2555348,2.09539833 13.2555348,2.28877548 C13.288801,2.30069089 13.3317491,2.31508867 13.3742008,2.3317206 C14.0338149,2.58790188 14.6986423,2.83216775 15.3515536,3.10448448 C15.8761168,3.32318187 16.38504,3.58780323 16.7879582,3.99640244 C16.989045,4.20045381 17.1960898,4.26276146 17.4587438,4.22229872 C17.4716531,4.22031282 17.4850589,4.22006458 17.4982164,4.21931987 C18.0890638,4.1885384 18.6784217,4.19648201 19.2648005,4.28708876 C19.4626599,4.31712552 19.6615123,4.34492813 19.873274,4.37595784 Z"/>
      <mask id="wfc_city-b" fill="#fff">
        <use xlink:href="#wfc_city-a"/>
      </mask>
      <g fill="#1E2226" mask="url(#wfc_city-b)">
        <polygon points="0 0 26 0 26 26 0 26"/>
      </g>
    </g>
  </g>
</svg>
