<svg width="36" height="36" viewBox="0 0 36 36">
  <g fill="none" fill-rule="evenodd">
    <path fill="#FFF" fill-rule="nonzero" d="M12.9391,28.7895 L5.1221,28.7895 C4.06045571,28.7895 3.27078127,27.9584067 3.19776227,27 L3,27 C1.34314575,27 3.33066907e-16,25.6568542 0,24 L0,4 C-1.66533454e-16,2.34314575 1.34314575,1 3,1 L33,1 C34.6568542,1 36,2.34314575 36,4 L36,24 C36,25.5460608 34.8304799,26.8189656 33.3278641,26.9822899 C33.2635342,27.9480538 32.4709428,28.7895 31.402,28.7895 L23.585,28.7895 C23.5229482,28.7895 23.4618282,28.7866613 23.4017285,28.7811244 C23.6675548,29.137141 23.8949651,29.5233683 24.0779337,29.9347364 C24.644843,31.211317 23.7184188,32.6576 22.317,32.6576 L14.5,32.6576 C13.0992193,32.6576 12.1733024,31.2109894 12.740046,29.9347823 C12.9334214,29.4992758 13.1767274,29.0919258 13.4628023,28.7187608 C13.2978993,28.7647116 13.1225702,28.7895 12.9391,28.7895 Z"/>
    <rect width="34" height="24" x="1" y="2" fill="#526CA0" rx="2"/>
    <rect width="30" height="20" x="3" y="4" fill="#12B700" rx="1"/>
    <path fill="#FFF" d="M25,14.0005166 C25,17.8670751 21.8662731,21 18.0010332,21 C14.1337269,21 11,17.8670751 11,14.0005166 C11,10.1339582 14.1337269,7 18.0010332,7 C21.8662731,7 25,10.1339582 25,14.0005166"/>
    <path fill="#9D231C" d="M15.3999996,16.7952921 L15.3999996,11.1838987 C15.3999996,10.4643444 16.1372743,10.0103847 16.7362538,10.3607436 L21.5379681,13.1654985 C22.15401,13.5252756 22.15401,14.4539151 21.5379681,14.8136923 L16.7362538,17.619389 C16.1372743,17.9697479 15.3999996,17.5148464 15.3999996,16.7952921"/>
    <g transform="translate(4 15)">
      <path fill="#FFF" d="M7.5957,4.4399 L2.4657,4.4399 C2.1517,4.4399 1.8967,4.6949 1.8967,5.0089 C1.8967,5.3239 2.1517,5.5789 2.4657,5.5789 L7.5957,5.5789 C7.9097,5.5789 8.1647,5.3239 8.1647,5.0089 C8.1647,4.6949 7.9097,4.4399 7.5957,4.4399"/>
      <path fill="#FFF" d="M6.1006,7.9101 C6.1006,7.6611 6.2156,7.4291 6.4126,7.2751 C7.1196,6.7201 7.5926,5.7621 7.5926,4.6581 C7.5926,2.9281 6.4466,1.5251 5.0316,1.5251 C3.6166,1.5251 2.4686,2.9281 2.4686,4.6581 C2.4686,5.7621 2.9426,6.7201 3.6506,7.2751 C3.8456,7.4291 3.9606,7.6611 3.9606,7.9101 C3.9606,8.2631 3.7306,8.5691 3.3966,8.6811 L6.6656,8.6811 C6.3306,8.5691 6.1006,8.2631 6.1006,7.9101"/>
      <path fill="#9D231C" d="M1.1221,12.7895 L8.9391,12.7895 C9.6151,12.7895 10.0601,12.0895 9.7861,11.4725 C9.1981,10.1505 8.0601,9.1435 6.6661,8.6805 L3.3961,8.6805 C2.0011,9.1435 0.8631,10.1505 0.2751,11.4725 C0.0011,12.0895 0.4471,12.7895 1.1221,12.7895"/>
      <path fill="#FFF" d="M5.0312,10.3178 C5.9352,10.3178 6.6682,9.5848 6.6682,8.6808 L5.0312,8.1238 L3.3932,8.6808 C3.3932,9.5848 4.1272,10.3178 5.0312,10.3178"/>
      <path fill="#232744" d="M7.5605,4.1571 C7.5605,4.1571 8.2175,2.0251 6.7885,2.1031 C6.9065,-0.1659 3.5095,0.4251 2.8675,1.6971 C1.4505,0.7131 0.3095,2.4051 1.4635,3.3491 C1.7915,3.6181 2.1585,3.8011 2.5505,3.9091 C2.5015,4.1511 2.4685,4.3981 2.4685,4.6571 C2.4685,5.1601 2.5785,5.6261 2.7515,6.0451 L7.3105,6.0451 C7.4845,5.6261 7.5925,5.1601 7.5925,4.6571 C7.5925,4.4871 7.5735,4.3231 7.5515,4.1591 C7.5525,4.1591 7.5605,4.1571 7.5605,4.1571"/>
      <path fill="#FFF" d="M26.0586,4.4399 L20.9286,4.4399 C20.6146,4.4399 20.3596,4.6949 20.3596,5.0089 C20.3596,5.3239 20.6146,5.5789 20.9286,5.5789 L26.0586,5.5789 C26.3726,5.5789 26.6286,5.3239 26.6286,5.0089 C26.6286,4.6949 26.3726,4.4399 26.0586,4.4399"/>
      <path fill="#FFF" d="M24.5645,7.9101 C24.5645,7.6611 24.6795,7.4291 24.8755,7.2751 C25.5825,6.7201 26.0555,5.7621 26.0555,4.6581 C26.0555,2.9281 24.9095,1.5251 23.4945,1.5251 C22.0795,1.5251 20.9325,2.9281 20.9325,4.6581 C20.9325,5.7621 21.4065,6.7201 22.1135,7.2751 C22.3085,7.4291 22.4235,7.6611 22.4235,7.9101 C22.4235,8.2631 22.1945,8.5691 21.8595,8.6811 L25.1285,8.6811 C24.7935,8.5691 24.5645,8.2631 24.5645,7.9101"/>
      <path fill="#9D231C" d="M19.585,12.7895 L27.402,12.7895 C28.078,12.7895 28.523,12.0895 28.249,11.4725 C27.661,10.1505 26.523,9.1435 25.129,8.6805 L21.859,8.6805 C20.464,9.1435 19.327,10.1505 18.739,11.4725 C18.465,12.0895 18.91,12.7895 19.585,12.7895"/>
      <path fill="#232744" d="M26.0234,4.1571 C26.0234,4.1571 26.6804,2.0251 25.2514,2.1031 C25.3694,-0.1659 21.9724,0.4251 21.3304,1.6971 C19.9144,0.7131 18.7724,2.4051 19.9264,3.3491 C20.2554,3.6181 20.6224,3.8011 21.0134,3.9091 C20.9654,4.1511 20.9324,4.3981 20.9324,4.6571 C20.9324,5.1601 21.0414,5.6261 21.2144,6.0451 L25.7734,6.0451 C25.9474,5.6261 26.0554,5.1601 26.0554,4.6571 C26.0554,4.4871 26.0364,4.3231 26.0144,4.1591 C26.0154,4.1591 26.0234,4.1571 26.0234,4.1571"/>
      <path fill="#FFF" d="M16.9736,8.308 L11.8436,8.308 C11.5296,8.308 11.2746,8.563 11.2746,8.878 C11.2746,9.192 11.5296,9.447 11.8436,9.447 L16.9736,9.447 C17.2876,9.447 17.5426,9.192 17.5426,8.878 C17.5426,8.563 17.2876,8.308 16.9736,8.308"/>
      <path fill="#FFF" d="M15.4795,11.7782 C15.4795,11.5292 15.5945,11.2972 15.7905,11.1432 C16.4975,10.5892 16.9705,9.6302 16.9705,8.5262 C16.9705,6.7962 15.8245,5.3932 14.4095,5.3932 C12.9945,5.3932 11.8475,6.7962 11.8475,8.5262 C11.8475,9.6302 12.3215,10.5892 13.0285,11.1432 C13.2235,11.2972 13.3385,11.5292 13.3385,11.7782 C13.3385,12.1312 13.1095,12.4382 12.7745,12.5492 L16.0435,12.5492 C15.7085,12.4382 15.4795,12.1312 15.4795,11.7782"/>
      <path fill="#9D231C" d="M10.5,16.6576 L18.317,16.6576 C18.993,16.6576 19.438,15.9576 19.164,15.3406 C18.576,14.0186 17.438,13.0116 16.044,12.5486 L12.774,12.5486 C11.379,13.0116 10.241,14.0186 9.654,15.3406 C9.38,15.9576 9.825,16.6576 10.5,16.6576"/>
      <path fill="#FFF" d="M14.4092,14.1859 C15.3132,14.1859 16.0462,13.4529 16.0462,12.5489 L14.4092,11.9919 L12.7712,12.5489 C12.7712,13.4529 13.5052,14.1859 14.4092,14.1859"/>
      <path fill="#232744" d="M16.9385,8.0258 C16.9385,8.0258 17.5955,5.8928 16.1665,5.9718 C16.2845,3.7028 12.8875,4.2928 12.2455,5.5658 C10.8295,4.5818 9.6875,6.2738 10.8415,7.2178 C11.1705,7.4868 11.5375,7.6698 11.9285,7.7778 C11.8805,8.0188 11.8475,8.2668 11.8475,8.5258 C11.8475,9.0288 11.9565,9.4948 12.1295,9.9128 L16.6885,9.9128 C16.8625,9.4948 16.9705,9.0288 16.9705,8.5258 C16.9705,8.3558 16.9515,8.1908 16.9295,8.0278 C16.9305,8.0268 16.9385,8.0258 16.9385,8.0258"/>
    </g>
  </g>
</svg>
