<svg xmlns:xlink="http://www.w3.org/1999/xlink" width="36" height="36" viewBox="0 0 36 36">
  <defs>
    <path id="ic_wfc_stadium-a" d="M4.15205631,8.95776608 L0.498718262,0 L31.497467,0 L27.8506034,8.94943885 C26.94044,11.8119889 21.9812574,14 16,14 C10.0245438,14 5.06918074,11.8162311 4.15205631,8.95776608 Z"/>
    <linearGradient id="ic_wfc_stadium-d" x1="50%" x2="50%" y1="0%" y2="100%">
      <stop offset="0%" stop-color="#FFF"/>
      <stop offset="100%" stop-color="#FFF" stop-opacity="0"/>
    </linearGradient>
    <ellipse id="ic_wfc_stadium-c" cx="18" cy="18" rx="16" ry="8"/>
    <ellipse id="ic_wfc_stadium-e" cx="18" cy="16" rx="12" ry="5"/>
    <polygon id="ic_wfc_stadium-g" points="28 22 8 22 12 16 24 16"/>
  </defs>
  <g fill="none" fill-rule="evenodd">
    <path fill="#FFF" fill-rule="nonzero" d="M20,9 L20,11 L16,11 L16,9 L13,9 C11.8954305,9 11,8.1045695 11,7 L11,3 C11,1.8954305 11.8954305,1 13,1 L23,1 C24.1045695,1 25,1.8954305 25,3 L25,7 C25,8.1045695 24.1045695,9 23,9 L20,9 Z M1.02466294,18.5 C1.00824174,18.3339284 1,18.1671961 1,18 C1,12.84101 8.68202003,9 18,9 C27.31798,9 35,12.84101 35,18 C35,18.1671961 34.9917583,18.3339284 34.9753371,18.5 C34.9917583,18.6660716 35,18.8328039 35,19 C35,19.844883 34.7898002,20.6713918 34.4220492,21.3772311 L30.8035915,30.2524466 C29.7169637,33.6699938 24.306103,36 18,36 C11.7009251,36 6.29452135,33.6750595 5.22610407,30.3354067 L1.56458988,21.3575932 C1.44332539,21.1109556 1.34110497,20.860485 1.25840526,20.6068469 L1.01090865,20 C1.03338547,19.6705067 1,19.3367125 1,19 C1,18.8328039 1.00824174,18.6660716 1.02466294,18.5 Z"/>
    <g transform="translate(2 21)">
      <mask id="ic_wfc_stadium-b" fill="#fff">
        <use xlink:href="#ic_wfc_stadium-a"/>
      </mask>
      <use fill="#526CA0" xlink:href="#ic_wfc_stadium-a"/>
      <path fill="#232744" d="M13,15.554 C13.932,15.716 14.891,15.811 15.875,15.811 C16.858,15.811 17.817,15.717 18.748,15.554 L18.748,10.53 C18.748,9.685 18.063,9 17.218,9 L14.53,9 C13.685,9 13,9.685 13,10.53 L13,15.554 Z" mask="url(#ic_wfc_stadium-b)"/>
    </g>
    <ellipse cx="18" cy="19" fill="#D8B656" rx="16" ry="8"/>
    <use fill="#526CA0" xlink:href="#ic_wfc_stadium-c"/>
    <use fill="url(#ic_wfc_stadium-d)" fill-opacity=".5" style="mix-blend-mode:overlay" xlink:href="#ic_wfc_stadium-c"/>
    <mask id="ic_wfc_stadium-f" fill="#fff">
      <use xlink:href="#ic_wfc_stadium-e"/>
    </mask>
    <use fill="#9D231C" xlink:href="#ic_wfc_stadium-e"/>
    <g mask="url(#ic_wfc_stadium-f)">
      <use fill="#12B700" xlink:href="#ic_wfc_stadium-g"/>
      <path stroke="#FFF" d="M28.9342585,22.5 L7.06574145,22.5 L11.7324081,15.5 L24.2675919,15.5 L28.9342585,22.5 Z"/>
    </g>
    <path fill="#232744" d="M19,8 L19,10 L17,10 L17,8 L13,8 C12.4477153,8 12,7.55228475 12,7 L12,3 C12,2.44771525 12.4477153,2 13,2 L23,2 C23.5522847,2 24,2.44771525 24,3 L24,7 C24,7.55228475 23.5522847,8 23,8 L19,8 Z"/>
  </g>
</svg>
