<svg width="16" height="16" viewBox="0 0 16 16">
  <g fill="none" fill-rule="evenodd">
    <circle cx="8" cy="8" r="8" fill="#FFF" opacity=".6"/>
    <circle cx="8" cy="8" r="7" fill="#717065"/>
    <path fill="#FFF" d="M9.3014994,10.7704092 L9.32069558,12 L6.67802079,12 L6.70087339,10.7695123 C6.87546726,10.6717549 7.03452137,10.5408138 7.16249593,10.3739985 L7.99890113,9.26548334 L8.83713454,10.3739985 C8.96602321,10.5417107 9.12507732,10.6726518 9.3014994,10.7704092 L9.3014994,10.7704092 Z M10.8856417,9.17759136 L10.2786766,9.77310434 C10.1104815,9.93812601 9.86001697,9.91929201 9.71833084,9.73184892 L7.99981524,7.45652299 L6.28129963,9.73364264 C6.13961351,9.92018887 5.889149,9.93902286 5.72186796,9.7740012 L5.11581698,9.17759136 C4.94762183,9.01346655 4.96681802,8.76683091 5.15695166,8.62871495 L7.47694772,6.94262399 L5.15603755,5.25563618 C4.96590391,5.11752022 4.94670773,4.87178143 5.11398877,4.70765662 L5.72186796,4.11214364 C5.889149,3.94801883 6.13961351,3.96595597 6.28129963,4.15339906 L8.00072934,6.42962185 L9.71924495,4.15339906 C9.86001697,3.96595597 10.1113956,3.94801883 10.2786766,4.11214364 L10.8847276,4.70765662 C11.0529227,4.87267829 11.0337266,5.11841707 10.8435929,5.25742989 L8.52359686,6.94352085 L10.8435929,8.62871495 C11.0337266,8.76683091 11.0538369,9.0125697 10.8856417,9.17759136 L10.8856417,9.17759136 Z"/>
  </g>
</svg>
