<svg height="24" viewBox="0 0 24 24" width="24"><g fill="none" fill-rule="evenodd"><circle cx="12" cy="12" fill="#fff" opacity=".6" r="12"/><circle cx="12" cy="12" fill="#717065" r="11"/><path d="m12.00032 12.9674395-2.76718902 3.3822531-.24053176 2.6503074h6.01436788l-.234089-2.7692255zm5.6868581.1327458-4.6388268-2.9489855 4.6388268-2.95082916c.3811999-.24336736.4177092-.67294762.081609-.96148543l-1.2133968-1.04260787c-.3350264-.28761597-.8354184-.25535136-1.1189022.07190399l-3.4350942 3.98329675-3.43938949-3.98329675c-.28241006-.32725535-.78280203-.35951996-1.11782841-.07190399l-1.21554444 1.04260787c-.33502639.28761597-.2974433.71811807.08375659.95964173l4.64204825 2.95082916-4.64097444 2.9517511c-.3811999.2424455-.41770918.6720257-.08160899.9605635l1.21232303 1.0426079c.33502638.287616.83541835.2553514 1.11997602-.0700603l3.43616798-3.9842186 3.4361681 3.9814531c.2834838.3281772.782802.3595199 1.1189022.0709821l1.2155444-1.0407642c.3361002-.2885378.2974433-.7190399-.0837566-.9614854z" fill="#fff"/></g></svg>