<?xml version="1.0" encoding="UTF-8" standalone="no"?>
<svg width="17px" height="17px" viewBox="0 0 17 17" version="1.1" xmlns="http://www.w3.org/2000/svg" xmlns:xlink="http://www.w3.org/1999/xlink">
    <!-- Generator: Sketch 3.8.3 (29802) - http://www.bohemiancoding.com/sketch -->
    <title>windmill-s</title>
    <desc>Created with Sketch.</desc>
    <defs>
        <path d="M9.70569999,11.5490407 L9.72669999,12.9200407 L6.83569999,12.9200407 L6.86069999,11.5480407 C7.05169999,11.4390407 7.22569999,11.2930407 7.36569999,11.1070407 L8.28069999,9.87104073 L9.19769999,11.1070407 C9.33869999,11.2940407 9.51269999,11.4400407 9.70569999,11.5490407 L9.70569999,11.5490407 Z M11.4387,9.77304073 L10.7747,10.4370407 C10.5907,10.6210407 10.3167,10.6000407 10.1617,10.3910407 L8.28169999,7.85404073 L6.40169999,10.3930407 C6.24669999,10.6010407 5.97269999,10.6220407 5.78969999,10.4380407 L5.12669999,9.77304073 C4.94269999,9.59004073 4.96369999,9.31504073 5.17169999,9.16104073 L7.70969999,7.28104073 L5.17069999,5.40004073 C4.96269999,5.24604073 4.94169999,4.97204073 5.12469999,4.78904073 L5.78969999,4.12504073 C5.97269999,3.94204073 6.24669999,3.96204073 6.40169999,4.17104073 L8.28269999,6.70904073 L10.1627,4.17104073 C10.3167,3.96204073 10.5917,3.94204073 10.7747,4.12504073 L11.4377,4.78904073 C11.6217,4.97304073 11.6007,5.24704073 11.3927,5.40204073 L8.85469999,7.28204073 L11.3927,9.16104073 C11.6007,9.31504073 11.6227,9.58904073 11.4387,9.77304073 L11.4387,9.77304073 Z" id="path-1"></path>
    </defs>
    <g id="POI-Clear" stroke="none" stroke-width="1" fill="none" fill-rule="evenodd">
        <g id="windmill-s">
            <path d="M8.5,17 C3.812,17 0,13.188 0,8.5 C0,3.812 3.812,0 8.5,0 C13.188,0 17,3.812 17,8.5 C17,13.188 13.188,17 8.5,17 L8.5,17 Z" id="Shape" fill-opacity="0.6" fill="#FFFFFF"></path>
            <ellipse id="Oval" fill="#717065" cx="8.5" cy="8.5" rx="7.5" ry="7.5"></ellipse>
            <g id="Shape" fill="#FFFFFF">
                <use xlink:href="#path-1"></use>
                <use xlink:href="#path-1"></use>
            </g>
        </g>
    </g>
</svg>