<?xml version="1.0" encoding="UTF-8"?>
<svg version="1.1" viewBox="0 0 24 24" xmlns="http://www.w3.org/2000/svg">
 <circle cx="12" cy="12" r="12" fill="#fff" opacity=".6"/>
 <circle cx="12" cy="12" r="11" fill="#8c5f93"/>
 <path d="m12.544 9.2833c-0.14094-3.0446-3.3356-5.1946-5.6898-5.3238" fill="none" stroke="#fff" stroke-linecap="square" stroke-linejoin="round"/>
 <path d="m10.81 5.7883c0.27497 0.00493 1.0276 0.1875 1.5493 0.23249 0.51054 0.044027 1.3677 0.11931 1.8714 0.062461 0.04979-0.00562 0.09853-0.012486 0.14599-0.020784 0.52158-0.09119 1.1027-0.31436 1.5455-0.65513 0.45118-0.34724 0.94016-1.2404 1.1433-1.4823-0.24036-0.23562-0.81883-1.0388-1.4475-1.2824-0.59851-0.2319-1.3732-0.24339-2.0895-0.028804-0.06305 0.018885-0.12689 0.040584-0.19125 0.064925-0.77971 0.29492-1.4971 0.90979-1.9381 1.5083-0.42192 0.57249-0.51479 1.2881-0.58902 1.6013z" fill="#fff"/>
 <circle cx="12" cy="18.5" r="3.5" fill="#8c5f93"/>
 <circle cx="12" cy="18.5" r="2.5" fill="#fff"/>
 <circle cx="9.3333" cy="14.5" r="3.5" fill="#8c5f93"/>
 <circle cx="9.3333" cy="14.5" r="2.5" fill="#fff"/>
 <circle cx="14.667" cy="14.5" r="3.5" fill="#8c5f93"/>
 <circle cx="14.667" cy="14.5" r="2.5" fill="#fff"/>
 <circle cx="7.333" cy="10.5" r="3.5" fill="#8c5f93"/>
 <circle cx="7.333" cy="10.5" r="2.5" fill="#fff"/>
 <circle cx="16.667" cy="10.5" r="3.5" fill="#8c5f93"/>
 <circle cx="16.667" cy="10.5" r="2.5" fill="#fff"/>
 <circle cx="12" cy="10.5" r="3.5" fill="#8c5f93"/>
 <circle cx="12" cy="10.5" r="2.5" fill="#fff"/>
</svg>
