<?xml version="1.0" encoding="UTF-8"?>
<svg width="16px" height="16px" viewBox="0 0 16 16" version="1.1" xmlns="http://www.w3.org/2000/svg" xmlns:xlink="http://www.w3.org/1999/xlink">
    <title>zoo-s</title>
    <g id="Page-1" stroke="none" stroke-width="1" fill="none" fill-rule="evenodd">
        <g id="zoo-s" fill-rule="nonzero">
            <circle id="Oval" fill="#FFFFFF" opacity="0.6" cx="8" cy="8" r="8"></circle>
            <circle id="Oval" fill="#7F5933" cx="8" cy="8" r="7.33333333"></circle>
            <path d="M9.85185187,3.33333333 C8.8642,4.76923077 8.72384447,5.96827692 7.6296296,6.92307693 C6.58437778,7.8350872 4.66666667,7.52198973 4.66666667,8.8376308 L4.66666667,9.3162154 C4.66666667,9.7948718 5.16049629,10.2502667 5.16049629,10.7521128 L5.16049629,11.2307692 C5.16049629,11.9487179 4.91357778,11.9487179 4.66666667,12.6666667 L5.16049629,12.6666667 L6.14814815,11.2307692 L6.14814815,12.6666667 L6.88888887,12.6666667 L6.88888887,9.7948718 L7.6296296,9.7948718 L7.6296296,12.6666667 L8.3703704,12.6666667 L8.3703704,10.5128205 L9.11111113,12.6666667 L9.60494073,12.6666667 L8.84876293,9.6602564 C9.13987407,9.48809233 9.11111113,9.16982567 9.11111113,8.8376308 L9.11111113,7.40173333 L10.2222222,4.76923077 L11.3333333,5.12820513 C11.3333333,5.09446154 11.3329481,4.79651282 11.3333333,4.76923077 C11.3333333,4.76923077 11.1529555,4.59441025 11.0864222,4.52993846 L9.85185187,3.33333333 Z" id="Path" fill="#FFFFFF"></path>
        </g>
    </g>
</svg>