<?xml version="1.0" encoding="UTF-8"?>
<svg width="19" height="19" version="1.1" viewBox="0 0 19 19" xml:space="preserve" xmlns="http://www.w3.org/2000/svg">
 <path d="m7.4068 4.5659c-0.73525 0-1.3326 0.51856-1.4578 1.1973-0.32614 0.074115-0.6325 0.27618-0.82238 0.59862l-1.9624 4.0088h0.01869c-0.1626 0.35708-0.26165 0.7473-0.26165 1.161 0 1.5962 1.3459 2.9024 2.9903 2.9024 1.2888 0 2.3857-0.80752 2.8035-1.9229 0.23797 0.11392 0.50377 0.18135 0.78502 0.18135 0.28118 0 0.54705-0.06743 0.78495-0.18135 0.41783 1.1154 1.5146 1.9229 2.8035 1.9229 1.6444 0 2.9903-1.3065 2.9903-2.9024 0-0.4137-0.09907-0.80392-0.2616-1.161h0.01868l-1.9625-4.0088c-0.18983-0.32244-0.4962-0.5245-0.82238-0.59862-0.12518-0.67868-0.72255-1.1973-1.4578-1.1973-0.72255 0-1.3184 0.49968-1.4578 1.161h-1.2709c-0.13942-0.66129-0.7353-1.161-1.4578-1.161zm-1.4951 5.2243c0.99802 0 1.7942 0.7728 1.7942 1.7414 0 0.96855-0.7962 1.7414-1.7942 1.7414s-1.7942-0.7728-1.7942-1.7414c0-0.96862 0.7962-1.7414 1.7942-1.7414zm7.1768 0c0.99802 0 1.7942 0.7728 1.7942 1.7414 0 0.96855-0.79612 1.7414-1.7942 1.7414-0.99795 0-1.7942-0.7728-1.7942-1.7414 0-0.96862 0.7962-1.7414 1.7942-1.7414zm-3.5884 0.58042c0.33165 0 0.59805 0.2586 0.59805 0.58058 0 0.32182-0.2664 0.58042-0.59805 0.58042s-0.59805-0.2586-0.59805-0.58042c0-0.32198 0.2664-0.58058 0.59805-0.58058z" fill="#fff"/>
</svg>
