<?xml version="1.0" encoding="UTF-8" standalone="no"?>
<!-- Created with Inkscape (http://www.inkscape.org/) -->
<svg
   xmlns:svg="http://www.w3.org/2000/svg"
   xmlns="http://www.w3.org/2000/svg"
   version="1.0"
   width="38"
   height="38"
   viewBox="0 0 300 300"
   id="symbol-bowls">
  <defs
     id="defs2474" />
  <rect
     width="269.52087"
     height="258.24777"
     ry="20.869576"
     x="15.289689"
     y="20.638819"
     id="rect2471"
     style="fill:none;stroke:#000000;stroke-width:14.68965149;stroke-linejoin:round;stroke-miterlimit:4" />
  <path
     d="M 133.81685,208.8622 L 126.35503,240.31878 C 124.99394,245.51199 126.77374,249.59331 131.69442,252.56277 C 135.1066,254.53982 138.69086,254.81182 142.44721,253.37876 C 146.2033,251.94563 148.57756,249.32335 149.57,245.51188 L 158.56393,207.50471 C 159.4585,203.4602 158.48415,199.99258 155.64087,197.10185 L 134.75661,175.03208 L 162.66048,153.398 L 166.54511,167.06433 C 166.79653,168.31994 167.48101,169.46325 168.5985,170.49427 L 195.76983,191.98059 C 196.45337,192.64098 197.12373,193.10574 197.78094,193.37488 C 200.08277,194.31797 202.42725,194.22395 204.81434,193.09278 C 207.20108,191.96165 208.86684,190.24692 209.81164,187.94863 C 211.49695,183.8478 210.63576,180.33295 207.2281,177.40406 L 183.83954,158.62581 L 173.64264,125.97234 C 172.19694,121.54832 169.09517,117.88193 164.33727,114.97315 C 156.00428,110.02673 148.06788,110.41718 140.5281,116.14448 L 102.21218,145.59669 C 99.720069,147.45414 97.815921,150.2193 96.499761,153.89217 L 77.106834,203.17152 L 45.125616,232.63017 C 43.86149,233.83809 42.947508,234.8999 42.383669,235.81558 C 40.605024,238.73157 40.130919,241.74913 40.961422,244.86825 C 41.79188,247.98732 43.667492,250.43472 46.588322,252.2105 C 51.508856,255.17988 55.947032,254.88907 59.902852,251.33808 L 95.031256,219.14089 C 96.295295,217.93294 97.263831,216.5103 97.936863,214.87295 L 110.13221,184.4956 L 133.81685,208.8622 z M 175.35877,116.89965 C 179.79714,118.7181 184.31645,118.70038 188.91668,116.8465 C 193.5166,114.99285 196.76021,111.77017 198.64755,107.17852 C 200.4687,102.74732 200.41134,98.21769 198.47553,93.589598 C 196.53933,88.961767 193.35205,85.738614 188.9137,83.920118 C 184.30948,82.034104 179.73058,82.07567 175.17695,84.044796 C 170.62302,86.014182 167.43547,89.214488 165.6143,93.645672 C 163.72698,98.237322 163.72826,102.78934 165.61814,107.3017 C 167.5077,111.81428 170.75459,115.01359 175.35877,116.89965 L 175.35877,116.89965 z"
     id="path4705"
     style="font-size:40px;font-style:normal;font-variant:normal;font-weight:normal;font-stretch:normal;text-align:start;line-height:125%;writing-mode:lr-tb;text-anchor:start;fill:#000000;fill-opacity:1;stroke:none;stroke-width:1px;stroke-linecap:butt;stroke-linejoin:miter;stroke-opacity:1;display:inline;font-family:NPSPICT3;-inkscape-font-specification:NPSPICT3" />
  <path
     d="M 251.32076,232.92453 A 17.264151,17.264151 0 1 1 216.79246,232.92453 A 17.264151,17.264151 0 1 1 251.32076,232.92453 z"
     transform="matrix(0.9362719,0,0,0.9362719,11.519755,17.674025)"
     id="path2387"
     style="fill:#000000;fill-opacity:1;fill-rule:evenodd;stroke:none;stroke-width:1px;stroke-linecap:butt;stroke-linejoin:miter;stroke-opacity:1" />
</svg>
