<?xml version="1.0" encoding="UTF-8" standalone="no"?>
<!-- Created with Inkscape (http://www.inkscape.org/) -->

<svg
   xmlns:dc="http://purl.org/dc/elements/1.1/"
   xmlns:cc="http://creativecommons.org/ns#"
   xmlns:rdf="http://www.w3.org/1999/02/22-rdf-syntax-ns#"
   xmlns:svg="http://www.w3.org/2000/svg"
   xmlns="http://www.w3.org/2000/svg"
   xmlns:sodipodi="http://sodipodi.sourceforge.net/DTD/sodipodi-0.dtd"
   xmlns:inkscape="http://www.inkscape.org/namespaces/inkscape"
   width="24"
   height="24"
   id="svg3882"
   version="1.1"
   inkscape:version="0.48.2 r9819"
   sodipodi:docname="memorial.svg">
  <defs
     id="defs3884" />
  <sodipodi:namedview
     id="base"
     pagecolor="#ffffff"
     bordercolor="#666666"
     borderopacity="1.0"
     inkscape:pageopacity="0.0"
     inkscape:pageshadow="2"
     inkscape:zoom="11.2"
     inkscape:cx="11.3506"
     inkscape:cy="16.781288"
     inkscape:document-units="px"
     inkscape:current-layer="layer1"
     showgrid="true"
     inkscape:window-width="1146"
     inkscape:window-height="690"
     inkscape:window-x="20"
     inkscape:window-y="20"
     inkscape:window-maximized="0">
    <inkscape:grid
       type="xygrid"
       id="grid3890"
       empspacing="5"
       visible="true"
       enabled="true"
       snapvisiblegridlinesonly="true" />
  </sodipodi:namedview>
  <metadata
     id="metadata3887">
    <rdf:RDF>
      <cc:Work
         rdf:about="">
        <dc:format>image/svg+xml</dc:format>
        <dc:type
           rdf:resource="http://purl.org/dc/dcmitype/StillImage" />
        <dc:title></dc:title>
      </cc:Work>
    </rdf:RDF>
  </metadata>
  <g
     inkscape:label="Layer 1"
     inkscape:groupmode="layer"
     id="layer1"
     transform="translate(0,-1028.3622)">
    <path
       style="fill:#4d4d4d;fill-opacity:1;fill-rule:evenodd;stroke:none"
       d="M 6 3 L 5 4 L 5 6 L 5 10 L 6 10 L 6 24 L 19 24 L 19 10 L 20 10 L 20 6 L 20 4 L 19 3 L 18 4 L 18 6 L 17 6 L 17 4 L 16 3 L 15 4 L 15 6 L 14 6 L 14 4 L 12.5 3 L 11 4 L 11 6 L 10 6 L 10 4 L 9 3 L 8 4 L 8 6 L 7 6 L 7 4 L 6 3 z M 10 10 C 10.552285 10 11 10.4477 11 11 L 11 14 L 9 14 L 9 11 C 9 10.4477 9.4477152 10 10 10 z M 15 10 C 15.552285 10 16 10.4477 16 11 L 16 14 L 14 14 L 14 11 C 14 10.4477 14.447715 10 15 10 z "
       transform="translate(0,1028.3622)"
       id="rect4465" />
  </g>
</svg>
