<?xml version="1.0" encoding="UTF-8" standalone="no"?>
<!-- Created with Inkscape (http://www.inkscape.org/) -->

<svg
   xmlns:dc="http://purl.org/dc/elements/1.1/"
   xmlns:cc="http://creativecommons.org/ns#"
   xmlns:rdf="http://www.w3.org/1999/02/22-rdf-syntax-ns#"
   xmlns:svg="http://www.w3.org/2000/svg"
   xmlns="http://www.w3.org/2000/svg"
   xmlns:sodipodi="http://sodipodi.sourceforge.net/DTD/sodipodi-0.dtd"
   xmlns:inkscape="http://www.inkscape.org/namespaces/inkscape"
   version="1.0"
   width="24"
   height="24"
   id="symbol-playground"
   inkscape:version="0.48.2 r9819"
   sodipodi:docname="playground.svg">
  <title
     id="title3792">Playground Map Icon</title>
  <metadata
     id="metadata17">
    <rdf:RDF>
      <cc:Work
         rdf:about="">
        <dc:format>image/svg+xml</dc:format>
        <dc:type
           rdf:resource="http://purl.org/dc/dcmitype/StillImage" />
        <dc:title>Playground Map Icon</dc:title>
        <dc:creator>
          <cc:Agent>
            <dc:title>Yury Melnichek</dc:title>
          </cc:Agent>
        </dc:creator>
      </cc:Work>
    </rdf:RDF>
  </metadata>
  <sodipodi:namedview
     pagecolor="#ffffff"
     bordercolor="#666666"
     borderopacity="1"
     objecttolerance="10"
     gridtolerance="10"
     guidetolerance="10"
     inkscape:pageopacity="0"
     inkscape:pageshadow="2"
     inkscape:window-width="924"
     inkscape:window-height="651"
     id="namedview15"
     showgrid="true"
     inkscape:zoom="17.02075"
     inkscape:cx="18.645217"
     inkscape:cy="13.242113"
     inkscape:window-x="0"
     inkscape:window-y="0"
     inkscape:window-maximized="0"
     inkscape:current-layer="symbol-playground">
    <inkscape:grid
       type="xygrid"
       id="grid2994"
       empspacing="2"
       visible="true"
       enabled="true"
       snapvisiblegridlinesonly="true" />
  </sodipodi:namedview>
  <defs
     id="defs4" />
  <path
     style="fill:#505050;fill-opacity:1;stroke:none"
     d="m 20.184986,7.9991413 c -0.8002,-0.2144127 -1.622705,0.2604607 -1.837118,1.0606597 -0.214412,0.800199 0.260461,1.622705 1.06066,1.837118 0.800199,0.214412 1.622705,-0.260461 1.837118,-1.06066 0.214412,-0.8002 -0.260461,-1.622705 -1.06066,-1.8371177 z m -0.776458,2.8977777 -0.482963,-0.12941 c -0.535122,-0.143386 -1.081359,0.171984 -1.224744,0.707107 l -0.517638,1.931852 -0.965926,-0.258819 c -0.533467,-0.142942 -1.081803,0.17364 -1.224745,0.707106 l -0.776457,2.897778 c -0.142942,0.533466 0.17364,1.081803 0.707106,1.224745 0.533467,0.142942 1.081803,-0.173641 1.224745,-0.707107 l 0.517638,-1.931852 c -0.143385,0.535123 0.171984,1.081359 0.707107,1.224745 l 0.965926,0.258819 c 0.535123,0.143386 1.081359,-0.171984 1.224745,-0.707107 l 1.035276,-3.863703 c 0.143386,-0.535123 -0.171984,-1.081359 -0.707107,-1.224745 l -0.482963,-0.129409 z"
     id="path2996"
     inkscape:connector-curvature="0"
     inkscape:transform-center-x="-6.3864785"
     inkscape:transform-center-y="-0.9351855" />
  <rect
     style="fill:#505050;fill-opacity:1;stroke:none"
     id="rect3014"
     width="20"
     height="2"
     x="4.5675287"
     y="9.5023184"
     rx="1"
     ry="1"
     transform="matrix(0.96592583,0.25881905,-0.25881905,0.96592583,0,0)" />
  <path
     id="path3017"
     d="M 7.1449869,4.5050842 C 7.9451859,4.7194968 8.4200598,5.5420023 8.205647,6.3422015 7.9912344,7.1424005 7.1687288,7.6172743 6.3685297,7.4028616 5.5683307,7.188449 5.0934569,6.3659434 5.3078696,5.5657443 5.5222823,4.7655452 6.3447878,4.2906715 7.1449869,4.5050842 z M 6.3685297,7.4028616 6.8514927,7.5322712 C 7.3866156,7.6756569 7.7019852,8.221893 7.5585994,8.757016 l -0.5176381,1.931852 0.9659259,0.258819 c 0.5334663,0.142942 0.8500486,0.691278 0.7071068,1.224745 L 7.9375368,15.070209 C 7.7945949,15.603675 7.2462583,15.920258 6.7127919,15.777316 6.1793256,15.634374 5.8627433,15.086037 6.0056852,14.552571 l 0.5176381,-1.931852 c -0.1433858,0.535123 -0.689622,0.850493 -1.2247449,0.707107 L 4.3326526,13.069007 C 3.7975297,12.925621 3.48216,12.379385 3.6255458,11.844262 L 4.660822,7.9805589 C 4.8042077,7.445436 5.3504439,7.1300664 5.8855668,7.2734521 l 0.4829629,0.1294095 z"
     style="fill:#505050;fill-opacity:1;stroke:none"
     inkscape:connector-curvature="0"
     inkscape:transform-center-x="5.1833137"
     inkscape:transform-center-y="-3.782195" />
  <path
     style="fill:#505050;fill-opacity:1;stroke:none"
     d="m 12,16 2,4 -4,0 z"
     id="rect3021"
     inkscape:connector-curvature="0"
     sodipodi:nodetypes="cccc" />
</svg>
