<?xml version="1.0" encoding="UTF-8"?>
<svg xmlns:xs="http://www.w3.org/2001/XMLSchema" xmlns:xlink="http://www.w3.org/1999/xlink" xmlns:inkscape="http://www.inkscape.org/namespaces/inkscape" xmlns:rdf="http://www.w3.org/1999/02/22-rdf-syntax-ns#" xmlns="http://www.w3.org/2000/svg" xmlns:svg="http://www.w3.org/2000/svg" xmlns:xi="http://www.w3.org/2001/XInclude" xmlns:cc="http://web.resource.org/cc/" xmlns:dc="http://purl.org/dc/elements/1.1/" version="1.1" baseProfile="full" width="37.28" id="symbol-soccer" viewBox="0 0 300 300" height="37.28">
   <svg:path d="M 138.74616,143.61379 C 138.74616,143.61379 109.59709,168.6577 103.30914,173.40498 C 96.920194,178.22857 93.459587,180.19396 88.308187,174.28928 C 83.233587,168.47274 87.546897,165.90133 92.356387,160.5422 C 97.062964,155.29765 126.64868,128.8279 126.64868,128.8279 L 138.74616,143.61379 z "/>
   <svg:path d="M 145.803,151.21693 C 145.803,151.21693 64.746317,251.03849 59.902387,257.44445 C 54.992242,263.93797 56.955466,267.71456 60.932697,270.81067 C 64.818957,273.83606 70.258397,273.0927 74.393827,267.92604 C 78.458207,262.84803 158.70289,162.55321 158.70289,162.55321 L 145.803,151.21693 z "/>
   <svg:path style="fill:#000000;" d="M 176.96875 238.12976 A 0.61328125 0.78710938 0 1 1  175.74219,238.12976 A 0.61328125 0.78710938 0 1 1  176.96875 238.12976 z" transform="matrix(26.974199,0,0,21.22496,-4619.7504,-4799.1711)"/>
   <svg:path style="fill:#000000;fill-opacity:1;" d="M 162.86792,73.810661 C 182.71632,70.206361 198.86902,68.638661 217.39881,82.508331 L 248.37776,110.06685 C 257.17341,120.77778 257.34762,132.42219 244.07772,139.38463 C 231.42942,146.02091 214.53612,152.724 206.12774,155.37896 C 197.79751,158.00932 193.98122,157.90533 192.86968,152.41453 C 191.76298,146.94765 197.65499,143.56834 203.09835,141.17606 C 208.75019,138.6923 214.2445,137.26621 225.77066,129.97037 C 237.41308,122.6009 233.81653,120.39175 225.24946,113.12886 C 216.61776,105.81117 206.01633,103.64514 199.61271,112.6079 C 190.62693,124.62333 177.01478,146.15042 174.20421,149.64565 C 171.43883,153.08459 168.57247,155.66717 164.30853,153.59661 C 160.0802,151.54333 138.13481,133.95528 135.0829,129.17072 C 132.16792,124.60099 131.91007,123.44358 135.63621,118.30903 C 139.3184,113.23493 147.23184,103.71485 147.23184,103.71485 C 156.94231,91.555571 161.23218,90.026241 143.97429,95.733951 C 126.83389,101.40288 95.624614,111.92225 71.429977,120.33004 C 63.786057,122.48298 60.352877,124.17668 58.269727,117.8216 C 56.135218,111.30982 58.274147,110.46013 65.371177,107.46276 C 72.468207,104.46538 154.37407,75.266611 162.86792,73.810661 z "/>
   <svg:path d="M 179.09375 229.38562 A 0.703125 0.6484375 0 1 1  177.6875,229.38562 A 0.703125 0.6484375 0 1 1  179.09375 229.38562 z" transform="matrix(25.017727,0,0,27.127655,-4257.7972,-6173.3124)"/>
   <svg:rect style="fill:none;fill-opacity:1;stroke:#000000;stroke-width:15;stroke-linejoin:round;" width="269.39795" height="269.39795" x="15.301026" y="17.663221" ry="21.770645"/>
</svg>