<svg xmlns="http://www.w3.org/2000/svg" width="18" height="18" viewBox="102.0 776.3622 18.0 18.0">
    <rect height="18" transform="translate(0 1028.362)" width="18" x="102" y="-252" opacity=".3" fill="none"/>
    <path d="m 108,787.36219 c 0,0 0,10e-6 0,2.00001 2,-1 3.95873,-2.01644 5,-2.00001 3.99692,-0.0235 6,1.00001 6,1.00001 0,0 2e-5,2 -1,2 -4.02502,-0.0277 -6,2 -7,3 -2,-1 -4,-1 -6,0 0,0 -2,-3 -1,-6 z" transform="matrix(-.999 .032 -.032 -.999 247.67 1571.768)" opacity=".3" stroke="#fff" stroke-width="2" stroke-linejoin="round" fill="none"/>
    <path d="m 108,787.36219 c 0,0 0,10e-6 0,2.00001 2,-1 3.95873,-2.01644 5,-2.00001 3.99692,-0.0235 6,1.00001 6,1.00001 0,0 2e-5,2 -1,2 -4.02502,-0.0277 -6,2 -7,3 -2,-1 -4,-1 -6,0 0,0 -2,-3 -1,-6 z" transform="matrix(-.999 .032 -.032 -.999 247.67 1571.768)" fill="#747474"/>
    <rect height="18" transform="translate(0 1028.362)" width="18" x="102" y="-252" opacity=".3" fill="none"/>
</svg>
