<svg xmlns="http://www.w3.org/2000/svg" width="12" height="12" viewBox="0 0 18 18">
    <g font-size="14" font-weight="600" font-family="FreeSans" style="line-height:125%;-inkscape-font-specification:Saab" letter-spacing="0" word-spacing="0">
        <path d="m 6.1242598,6.2079802 0,7.7929598 -2.1042,0 0,-10.0018798 3.142272,0 1.851696,7.9575998 1.7955842,-7.9575998 3.170328,0 0,10.0018798 -2.1042,0 0,-7.7929598 -1.809612,7.7929598 -2.1042002,0 -1.837668,-7.7929598" style="-inkscape-font-specification:FreeSans Semi-Bold" stroke="#fff" stroke-width="3" stroke-linejoin="round" stroke-opacity=".502" fill="none"/>
        <path style="-inkscape-font-specification:FreeSans Semi-Bold" d="m 6.1183048,5.8530843 0,7.9519997 -2.1,0 0,-10.2059997 3.136,0 1.848,8.1199997 1.7920002,-8.1199997 3.164,0 0,10.2059997 -2.1,0 0,-7.9519997 -1.806,7.9519997 -2.1000002,0 -1.834,-7.9519997" fill="#444" transform="matrix(1.002 0 0 .98 -.004 .476)"/>
    </g>
</svg>
