Argentina_Pampas
1
	-62.88408	-34.38642
	-62.89065	-34.3863
	-62.95753	-34.38617
	-62.97281	-34.38613
	-62.97794	-34.38613
	-62.99818	-34.38606
	-63.27699	-34.38656
	-63.38563	-34.38684
	-63.38731	-34.39297
	-63.39275	-34.4132
	-63.39264	-34.52922
	-63.38751	-34.67703
	-63.38713	-34.68138
	-63.38708	-34.68278
	-63.38556	-34.81868
	-63.3856	-34.99913
	-63.38573	-35.00864
	-63.38588	-35.01396
	-63.38588	-35.02491
	-63.38576	-35.02504
	-63.38577	-35.2736
	-63.38569	-35.33185
	-63.38558	-35.544
	-63.3856	-35.55157
	-63.38559	-35.55879
	-63.38554	-35.56049
	-63.3856	-35.56342
	-63.38559	-35.56557
	-63.38562	-35.59142
	-63.38587	-35.76929
	-63.38556	-35.77033
	-63.38555	-35.77242
	-63.38547	-35.84581
	-63.38541	-35.8728
	-63.38557	-35.88427
	-63.38537	-35.8928
	-63.38542	-35.91242
	-63.38542	-35.95238
	-63.38539	-35.98428
	-63.38555	-36.06352
	-63.38566	-36.08575
	-63.38549	-36.13173
	-63.3855	-36.14105
	-63.38538	-36.17659
	-63.38554	-36.17679
	-63.38561	-36.17696
	-63.38569	-36.18109
	-63.38563	-36.20674
	-63.38565	-36.22418
	-63.38558	-36.24927
	-63.38555	-36.27743
	-63.3854	-36.37189
	-63.38548	-36.37705
	-63.38552	-36.38614
	-63.38559	-36.3952
	-63.38551	-36.39977
	-63.38547	-36.40042
	-63.38545	-36.41053
	-63.38497	-36.4668
	-63.38497	-36.50862
	-63.38534	-36.5247
	-63.3852	-36.5552
	-63.38525	-36.61767
	-63.38512	-36.66624
	-63.38515	-36.67176
	-63.38339	-36.67214
	-63.38259	-36.67339
	-63.38232	-36.67393
	-63.38221	-36.6742
	-63.38208	-36.67459
	-63.38195	-36.67519
	-63.38191	-36.67545
	-63.38189	-36.67589
	-63.3819	-36.67631
	-63.38198	-36.67679
	-63.38207	-36.67717
	-63.38241	-36.67807
	-63.38266	-36.67853
	-63.38305	-36.67906
	-63.38331	-36.67936
	-63.38353	-36.67956
	-63.38415	-36.67994
	-63.38429	-36.68042
	-63.38427	-36.68079
	-63.38423	-36.68091
	-63.38365	-36.68228
	-63.38343	-36.68285
	-63.38331	-36.68328
	-63.38321	-36.68392
	-63.3831	-36.68484
	-63.38487	-36.68706
	-63.38509	-36.68688
	-63.38507	-36.71598
	-63.38513	-36.72786
	-63.3851	-36.74325
	-63.38513	-36.80394
	-63.38523	-36.80834
	-63.38527	-36.83007
	-63.38515	-36.8801
	-63.38515	-36.8947
	-63.38522	-36.89844
	-63.38515	-36.90857
	-63.38527	-36.91374
	-63.38519	-36.92051
	-63.38536	-36.92098
	-63.38545	-36.97552
	-63.38545	-37.00708
	-63.38538	-37.03459
	-63.38542	-37.06249
	-63.38535	-37.09812
	-63.38578	-37.12437
	-63.3855	-37.16488
	-63.38543	-37.16625
	-63.38569	-37.19269
	-63.38531	-37.2594
	-63.38541	-37.61689
	-63.38535	-37.65785
	-63.38533	-37.65831
	-63.38539	-37.71013
	-63.38558	-37.80839
	-63.38563	-37.85875
	-63.38571	-37.96355
	-63.38565	-38.06024
	-63.38558	-38.0671
	-63.38556	-38.07609
	-63.38557	-38.07622
	-63.38552	-38.07645
	-63.38554	-38.07694
	-63.38558	-38.08346
	-63.38553	-38.09185
	-63.38551	-38.09254
	-63.38546	-38.10501
	-63.38556	-38.1061
	-63.38543	-38.10737
	-63.38547	-38.11564
	-63.38547	-38.13114
	-63.38543	-38.16304
	-63.38536	-38.19347
	-63.38536	-38.22217
	-63.38531	-38.23633
	-63.38531	-38.24758
	-63.38521	-38.25891
	-63.38523	-38.26207
	-63.38532	-38.26257
	-63.38535	-38.26488
	-63.38531	-38.277
	-63.38538	-38.27947
	-63.38531	-38.28076
	-63.38525	-38.29312
	-63.38531	-38.29764
	-63.38516	-38.30992
	-63.38514	-38.317
	-63.385	-38.31967
	-63.38517	-38.32034
	-63.38511	-38.32303
	-63.38513	-38.33159
	-63.38509	-38.33878
	-63.38514	-38.34235
	-63.38508	-38.35013
	-63.38499	-38.3545
	-63.38505	-38.35597
	-63.38499	-38.36938
	-63.38509	-38.37055
	-63.3852	-38.37093
	-63.38505	-38.38306
	-63.38514	-38.38759
	-63.38462	-38.41553
	-63.38441	-38.82994
	-63.38403	-38.92825
	-63.38366	-39.0606
	-63.38269	-39.29358
	-63.38233	-39.32864
	-63.38803	-39.32925
	-63.39419	-39.3285
	-63.40423	-39.32892
	-63.41212	-39.32733
	-63.41538	-39.3264
	-63.42036	-39.32666
	-63.42812	-39.32841
	-63.43272	-39.33065
	-63.43765	-39.32705
	-63.44302	-39.3248
	-63.45004	-39.32122
	-63.45356	-39.32055
	-63.45452	-39.32746
	-63.45744	-39.32852
	-63.46173	-39.32733
	-63.46712	-39.32284
	-63.47123	-39.32126
	-63.4749	-39.31791
	-63.47754	-39.3145
	-63.48057	-39.3109
	-63.486	-39.30899
	-63.48977	-39.30848
	-63.49532	-39.30935
	-63.49878	-39.31161
	-63.50531	-39.31378
	-63.5088	-39.31387
	-63.51192	-39.3127
	-63.51331	-39.31086
	-63.51383	-39.30815
	-63.51545	-39.30677
	-63.52065	-39.30462
	-63.52397	-39.3044
	-63.52659	-39.30332
	-63.52824	-39.30161
	-63.53071	-39.30083
	-63.5324	-39.30065
	-63.53504	-39.29872
	-63.53682	-39.29791
	-63.54036	-39.2975
	-63.5418	-39.29545
	-63.5416	-39.29246
	-63.5397	-39.28893
	-63.53851	-39.28638
	-63.53834	-39.28293
	-63.53778	-39.2806
	-63.54037	-39.27808
	-63.54397	-39.27413
	-63.54894	-39.26807
	-63.551	-39.26611
	-63.55578	-39.2632
	-63.55802	-39.2614
	-63.5597	-39.26127
	-63.56058	-39.26244
	-63.56115	-39.2646
	-63.56212	-39.26639
	-63.56339	-39.26677
	-63.56534	-39.26614
	-63.56715	-39.26473
	-63.5672	-39.26088
	-63.56734	-39.25855
	-63.57067	-39.25733
	-63.57383	-39.25718
	-63.57819	-39.25923
	-63.5812	-39.25903
	-63.58459	-39.25735
	-63.58657	-39.25641
	-63.58996	-39.25352
	-63.59035	-39.25003
	-63.59073	-39.24825
	-63.5927	-39.24613
	-63.59499	-39.24544
	-63.59681	-39.24701
	-63.59972	-39.24998
	-63.60219	-39.25163
	-63.60494	-39.25233
	-63.6078	-39.25282
	-63.61162	-39.2532
	-63.61446	-39.25285
	-63.61689	-39.25079
	-63.61729	-39.24784
	-63.61634	-39.24331
	-63.61538	-39.2391
	-63.61665	-39.23675
	-63.61886	-39.23565
	-63.62081	-39.2372
	-63.621	-39.24028
	-63.62173	-39.24345
	-63.62392	-39.2475
	-63.62639	-39.24912
	-63.63137	-39.24817
	-63.63415	-39.24666
	-63.63629	-39.24458
	-63.63622	-39.24223
	-63.63556	-39.24094
	-63.63558	-39.2381
	-63.63438	-39.23365
	-63.63349	-39.22931
	-63.63349	-39.22769
	-63.63542	-39.22702
	-63.63761	-39.22744
	-63.64038	-39.22879
	-63.64527	-39.22928
	-63.64963	-39.22921
	-63.65322	-39.22878
	-63.65528	-39.2285
	-63.65662	-39.22805
	-63.65893	-39.22642
	-63.65952	-39.22527
	-63.65887	-39.224
	-63.65788	-39.223
	-63.65685	-39.22171
	-63.65612	-39.22034
	-63.65828	-39.21904
	-63.66163	-39.21958
	-63.66575	-39.22199
	-63.66946	-39.22317
	-63.67183	-39.22314
	-63.67408	-39.22186
	-63.6755	-39.22
	-63.67621	-39.21843
	-63.67597	-39.21648
	-63.67445	-39.21501
	-63.67305	-39.21415
	-63.67127	-39.21363
	-63.67017	-39.21218
	-63.66922	-39.21046
	-63.66883	-39.20785
	-63.66886	-39.20578
	-63.66982	-39.20473
	-63.67165	-39.20387
	-63.67265	-39.20352
	-63.6743	-39.20389
	-63.67616	-39.20461
	-63.67856	-39.20478
	-63.68042	-39.20558
	-63.68647	-39.20583
	-63.68893	-39.20625
	-63.69113	-39.20653
	-63.69307	-39.20629
	-63.69519	-39.20493
	-63.69713	-39.20398
	-63.69956	-39.20331
	-63.70309	-39.20142
	-63.70552	-39.20028
	-63.71029	-39.19902
	-63.71452	-39.19817
	-63.71652	-39.19612
	-63.7225	-39.18889
	-63.7248	-39.18674
	-63.7292	-39.18551
	-63.73306	-39.18584
	-63.73454	-39.18708
	-63.73729	-39.18763
	-63.73971	-39.18903
	-63.74095	-39.18927
	-63.74274	-39.18894
	-63.74393	-39.18801
	-63.74354	-39.18671
	-63.74193	-39.1855
	-63.73857	-39.18265
	-63.73757	-39.18115
	-63.73735	-39.17859
	-63.73792	-39.17689
	-63.74239	-39.17049
	-63.74396	-39.1661
	-63.74558	-39.1628
	-63.74857	-39.16079
	-63.75652	-39.1584
	-63.7594	-39.1576
	-63.76102	-39.15677
	-63.76241	-39.15553
	-63.76369	-39.15426
	-63.76392	-39.15291
	-63.7634	-39.15142
	-63.76131	-39.14962
	-63.76082	-39.14712
	-63.76161	-39.1439
	-63.76216	-39.14206
	-63.76125	-39.13869
	-63.75955	-39.13741
	-63.75612	-39.13606
	-63.75589	-39.13521
	-63.75681	-39.13152
	-63.75757	-39.12868
	-63.75866	-39.12738
	-63.76189	-39.12715
	-63.76353	-39.12789
	-63.76589	-39.12965
	-63.76831	-39.13035
	-63.77048	-39.13001
	-63.77456	-39.12966
	-63.77724	-39.12888
	-63.77903	-39.12688
	-63.78181	-39.12227
	-63.78341	-39.11727
	-63.78564	-39.11392
	-63.78665	-39.11192
	-63.78862	-39.10917
	-63.79068	-39.108
	-63.79442	-39.10768
	-63.79669	-39.10781
	-63.79834	-39.1086
	-63.79847	-39.1102
	-63.79771	-39.11233
	-63.79386	-39.11478
	-63.79189	-39.11634
	-63.79148	-39.11929
	-63.79154	-39.1215
	-63.7946	-39.12325
	-63.79974	-39.1243
	-63.81112	-39.12421
	-63.8207	-39.12772
	-63.82413	-39.12918
	-63.82678	-39.13171
	-63.82953	-39.13408
	-63.83201	-39.13629
	-63.83439	-39.13657
	-63.83676	-39.13559
	-63.83695	-39.13387
	-63.83629	-39.13071
	-63.83487	-39.12738
	-63.83316	-39.12515
	-63.83179	-39.12374
	-63.83275	-39.12078
	-63.83462	-39.11905
	-63.8382	-39.11681
	-63.84019	-39.11349
	-63.84061	-39.11071
	-63.84202	-39.10873
	-63.84457	-39.10807
	-63.84651	-39.10928
	-63.84984	-39.11066
	-63.85402	-39.11132
	-63.85924	-39.11
	-63.86133	-39.10719
	-63.86198	-39.10476
	-63.86409	-39.10114
	-63.86663	-39.09858
	-63.8696	-39.09656
	-63.87329	-39.09592
	-63.87709	-39.09758
	-63.87891	-39.09867
	-63.87952	-39.1004
	-63.87935	-39.10202
	-63.87857	-39.10281
	-63.87696	-39.10296
	-63.87276	-39.10187
	-63.86993	-39.10295
	-63.86869	-39.1051
	-63.86889	-39.10631
	-63.87045	-39.10756
	-63.87374	-39.10792
	-63.87685	-39.10737
	-63.87962	-39.10553
	-63.8829	-39.10416
	-63.88563	-39.10423
	-63.88856	-39.10486
	-63.891	-39.10632
	-63.89341	-39.10779
	-63.89552	-39.10799
	-63.89877	-39.10711
	-63.90145	-39.10538
	-63.90229	-39.104
	-63.90273	-39.10078
	-63.90423	-39.09815
	-63.90503	-39.09517
	-63.90578	-39.09319
	-63.91195	-39.08726
	-63.91371	-39.08628
	-63.91693	-39.08668
	-63.91877	-39.0881
	-63.9207	-39.08907
	-63.92277	-39.0911
	-63.92573	-39.093
	-63.93006	-39.09466
	-63.93611	-39.0921
	-63.9362	-39.08721
	-63.93357	-39.08556
	-63.92749	-39.07942
	-63.9261	-39.07491
	-63.92674	-39.07239
	-63.92928	-39.06584
	-63.93573	-39.05936
	-63.94201	-39.05793
	-63.94903	-39.05768
	-63.95266	-39.0548
	-63.95453	-39.05462
	-63.95737	-39.05369
	-63.95978	-39.05128
	-63.95797	-39.04921
	-63.95836	-39.04624
	-63.96124	-39.0442
	-63.96633	-39.0431
	-63.97718	-39.03973
	-63.98257	-39.03778
	-63.9858	-39.03906
	-63.98717	-39.0391
	-63.99007	-39.03614
	-63.99464	-39.03614
	-63.99889	-39.03526
	-64.00217	-39.03121
	-64.00212	-39.02699
	-64.00163	-39.02507
	-63.9997	-39.02377
	-63.99212	-39.01846
	-63.98948	-39.01408
	-63.99072	-39.0114
	-63.99464	-39.01065
	-64.00223	-39.01332
	-64.00926	-39.01673
	-64.01099	-39.01807
	-64.0133	-39.01795
	-64.02076	-39.01623
	-64.01818	-39.01011
	-64.0101	-39.00944
	-64.0084	-39.00723
	-64.01004	-39.00266
	-64.0171	-39.00008
	-64.02379	-39.0002
	-64.02907	-39.00231
	-64.03735	-39.00147
	-64.04573	-38.99923
	-64.04871	-38.99938
	-64.05651	-39.00472
	-64.05786	-39.0096
	-64.05997	-39.01051
	-64.06317	-39.01004
	-64.06576	-39.00694
	-64.0664	-39.00336
	-64.06544	-38.99856
	-64.06259	-38.99453
	-64.06243	-38.99288
	-64.06457	-38.99147
	-64.06689	-38.99107
	-64.07213	-38.99014
	-64.07705	-38.99045
	-64.08345	-38.98992
	-64.08927	-38.98817
	-64.09661	-38.98396
	-64.09952	-38.98216
	-64.10084	-38.98049
	-64.10247	-38.97832
	-64.10846	-38.97618
	-64.11048	-38.97573
	-64.11503	-38.97463
	-64.12689	-38.96826
	-64.1309	-38.96943
	-64.13406	-38.96996
	-64.13584	-38.96908
	-64.13878	-38.96388
	-64.14122	-38.96288
	-64.14504	-38.96259
	-64.14739	-38.96412
	-64.1507	-38.96371
	-64.15383	-38.96249
	-64.16106	-38.95845
	-64.16492	-38.95727
	-64.18185	-38.94871
	-64.18698	-38.94849
	-64.18965	-38.9456
	-64.19721	-38.94298
	-64.20245	-38.94217
	-64.20577	-38.94046
	-64.20738	-38.93717
	-64.2098	-38.9337
	-64.21481	-38.9315
	-64.22646	-38.9273
	-64.2313	-38.92375
	-64.23498	-38.92447
	-64.23725	-38.92458
	-64.25215	-38.92054
	-64.25593	-38.91925
	-64.25882	-38.91658
	-64.26301	-38.9148
	-64.26731	-38.9163
	-64.2786	-38.91372
	-64.28293	-38.91113
	-64.28857	-38.90903
	-64.29149	-38.90568
	-64.29182	-38.90265
	-64.29075	-38.90072
	-64.29203	-38.89848
	-64.29532	-38.89728
	-64.30049	-38.89971
	-64.30261	-38.90003
	-64.31336	-38.90536
	-64.31737	-38.90641
	-64.32176	-38.90702
	-64.32841	-38.90599
	-64.33156	-38.9042
	-64.33386	-38.9002
	-64.33599	-38.8967
	-64.34419	-38.89318
	-64.344	-38.88918
	-64.34557	-38.88535
	-64.34776	-38.88382
	-64.35001	-38.88345
	-64.35074	-38.88399
	-64.35085	-38.88652
	-64.35162	-38.88884
	-64.35293	-38.89026
	-64.35617	-38.89125
	-64.3585	-38.89097
	-64.36054	-38.88589
	-64.36488	-38.88289
	-64.36692	-38.88263
	-64.36768	-38.88779
	-64.37089	-38.89102
	-64.37358	-38.89194
	-64.3775	-38.89223
	-64.37951	-38.8913
	-64.37986	-38.88999
	-64.37891	-38.88769
	-64.38005	-38.88655
	-64.38346	-38.88599
	-64.38733	-38.88797
	-64.39066	-38.88854
	-64.39412	-38.88811
	-64.3979	-38.88574
	-64.39758	-38.88436
	-64.39284	-38.87929
	-64.39148	-38.87695
	-64.39353	-38.87425
	-64.39749	-38.87308
	-64.40054	-38.87347
	-64.40709	-38.88245
	-64.41292	-38.88384
	-64.41438	-38.88242
	-64.41394	-38.88027
	-64.41507	-38.87658
	-64.41984	-38.87218
	-64.42407	-38.87181
	-64.42683	-38.87491
	-64.42658	-38.87774
	-64.42804	-38.87924
	-64.43037	-38.87933
	-64.43255	-38.87854
	-64.439	-38.87318
	-64.44101	-38.87068
	-64.44345	-38.86969
	-64.44534	-38.86831
	-64.45079	-38.86713
	-64.45507	-38.867
	-64.45706	-38.86945
	-64.46052	-38.86936
	-64.46766	-38.86341
	-64.47518	-38.86032
	-64.47693	-38.8605
	-64.47816	-38.86321
	-64.48128	-38.8652
	-64.48575	-38.86511
	-64.49056	-38.86519
	-64.49748	-38.86689
	-64.50254	-38.86786
	-64.50802	-38.86761
	-64.51193	-38.86892
	-64.51901	-38.8674
	-64.52236	-38.86121
	-64.52526	-38.86037
	-64.52857	-38.8606
	-64.53283	-38.85892
	-64.53597	-38.85864
	-64.53757	-38.86045
	-64.53626	-38.86482
	-64.53863	-38.86608
	-64.54269	-38.86508
	-64.54616	-38.86031
	-64.55113	-38.85915
	-64.55431	-38.86104
	-64.55755	-38.86164
	-64.56205	-38.86115
	-64.56515	-38.86029
	-64.57034	-38.85604
	-64.57371	-38.85501
	-64.57981	-38.85597
	-64.58847	-38.85932
	-64.59234	-38.85988
	-64.59708	-38.85908
	-64.6016	-38.85667
	-64.60242	-38.84931
	-64.60512	-38.84791
	-64.61076	-38.84953
	-64.61584	-38.8509
	-64.62172	-38.85274
	-64.62799	-38.85312
	-64.62981	-38.85265
	-64.63041	-38.85119
	-64.63025	-38.84974
	-64.63223	-38.8462
	-64.63561	-38.84516
	-64.63983	-38.84665
	-64.6423	-38.84662
	-64.6445	-38.84602
	-64.65061	-38.84075
	-64.6507	-38.83917
	-64.65126	-38.83868
	-64.65275	-38.83812
	-64.65424	-38.83868
	-64.65605	-38.8379
	-64.66159	-38.83681
	-64.6652	-38.83568
	-64.67019	-38.83401
	-64.67245	-38.83382
	-64.67593	-38.83669
	-64.67975	-38.83864
	-64.68201	-38.83864
	-64.68389	-38.83898
	-64.68604	-38.84011
	-64.68938	-38.84243
	-64.69132	-38.84331
	-64.69374	-38.84329
	-64.69557	-38.84175
	-64.69928	-38.83816
	-64.70328	-38.83756
	-64.70818	-38.83786
	-64.71232	-38.83899
	-64.71922	-38.84157
	-64.7232	-38.8413
	-64.72781	-38.84125
	-64.73751	-38.84102
	-64.74376	-38.83725
	-64.74737	-38.83643
	-64.75397	-38.83449
	-64.75976	-38.83287
	-64.76399	-38.8308
	-64.76713	-38.83006
	-64.77111	-38.83001
	-64.77388	-38.82976
	-64.7774	-38.82918
	-64.78184	-38.82765
	-64.78565	-38.82582
	-64.78861	-38.82356
	-64.79132	-38.82225
	-64.7947	-38.82137
	-64.7988	-38.8214
	-64.80141	-38.82052
	-64.80405	-38.81856
	-64.8055	-38.8167
	-64.80795	-38.81625
	-64.81021	-38.81663
	-64.81437	-38.81849
	-64.8165	-38.82043
	-64.81871	-38.82085
	-64.82062	-38.82208
	-64.82426	-38.82437
	-64.82875	-38.82591
	-64.83367	-38.82613
	-64.84655	-38.8269
	-64.84945	-38.8265
	-64.85184	-38.82559
	-64.85605	-38.82472
	-64.85838	-38.82343
	-64.86489	-38.82013
	-64.86745	-38.81825
	-64.87083	-38.81706
	-64.87464	-38.81569
	-64.87541	-38.8152
	-64.87673	-38.81465
	-64.87905	-38.81538
	-64.88125	-38.81586
	-64.88453	-38.8196
	-64.88708	-38.82168
	-64.88888	-38.8249
	-64.89133	-38.82711
	-64.8953	-38.82756
	-64.89904	-38.82625
	-64.90281	-38.82701
	-64.90684	-38.82778
	-64.90832	-38.82999
	-64.91096	-38.8325
	-64.91448	-38.83328
	-64.92533	-38.83351
	-64.9317	-38.83076
	-64.93485	-38.83015
	-64.93872	-38.82995
	-64.94588	-38.82724
	-64.94867	-38.8266
	-64.95347	-38.82491
	-64.95628	-38.82355
	-64.95732	-38.8232
	-64.95842	-38.82312
	-64.96069	-38.82274
	-64.96698	-38.82129
	-64.97312	-38.82089
	-64.97939	-38.82099
	-64.9825	-38.82064
	-64.9848	-38.81966
	-64.98966	-38.81818
	-64.99305	-38.81898
	-64.99711	-38.81878
	-64.99917	-38.81981
	-65.00333	-38.81958
	-65.00462	-38.8189
	-65.00556	-38.81805
	-65.00894	-38.81742
	-65.01436	-38.81624
	-65.01896	-38.81398
	-65.02248	-38.81504
	-65.02602	-38.81692
	-65.02838	-38.81755
	-65.03086	-38.81798
	-65.03353	-38.81757
	-65.03737	-38.81629
	-65.04272	-38.81544
	-65.04581	-38.81469
	-65.0491	-38.81243
	-65.05162	-38.8123
	-65.05558	-38.81371
	-65.05955	-38.8116
	-65.06422	-38.81082
	-65.06851	-38.81175
	-65.07324	-38.81015
	-65.07856	-38.80936
	-65.08355	-38.80874
	-65.08911	-38.80842
	-65.08992	-38.80698
	-65.09169	-38.80346
	-65.09419	-38.80129
	-65.09778	-38.8007
	-65.10156	-38.80098
	-65.10571	-38.80126
	-65.10898	-38.8001
	-65.11317	-38.80016
	-65.1155	-38.80111
	-65.11611	-38.80277
	-65.11687	-38.80465
	-65.11909	-38.80604
	-65.12219	-38.80553
	-65.12614	-38.80513
	-65.12904	-38.80607
	-65.13005	-38.80767
	-65.13013	-38.81197
	-65.13217	-38.81489
	-65.13542	-38.81695
	-65.13713	-38.8179
	-65.14001	-38.81852
	-65.14201	-38.81814
	-65.14378	-38.81717
	-65.14763	-38.81453
	-65.15223	-38.81273
	-65.15546	-38.80954
	-65.15601	-38.80657
	-65.15667	-38.8053
	-65.15978	-38.80345
	-65.16719	-38.80222
	-65.16969	-38.80272
	-65.17069	-38.80467
	-65.17263	-38.80725
	-65.17553	-38.80881
	-65.17988	-38.80973
	-65.18379	-38.81001
	-65.18907	-38.80957
	-65.19169	-38.81045
	-65.19306	-38.8123
	-65.19152	-38.81472
	-65.19007	-38.81823
	-65.18899	-38.82319
	-65.18645	-38.82624
	-65.18587	-38.82863
	-65.18596	-38.83099
	-65.18699	-38.83265
	-65.18921	-38.83504
	-65.19127	-38.83642
	-65.19331	-38.83607
	-65.1967	-38.83263
	-65.20072	-38.83223
	-65.20454	-38.83175
	-65.20675	-38.83173
	-65.20905	-38.8338
	-65.21162	-38.83674
	-65.21511	-38.83808
	-65.21651	-38.8381
	-65.21788	-38.8372
	-65.21992	-38.83415
	-65.22295	-38.83376
	-65.23346	-38.83308
	-65.2397	-38.83138
	-65.24551	-38.83138
	-65.24982	-38.83062
	-65.25272	-38.83144
	-65.25501	-38.83194
	-65.25691	-38.83106
	-65.25808	-38.82868
	-65.26227	-38.82491
	-65.2667	-38.82202
	-65.27062	-38.82196
	-65.28005	-38.8224
	-65.28628	-38.82525
	-65.29353	-38.82788
	-65.30565	-38.83012
	-65.308	-38.8303
	-65.31259	-38.83168
	-65.31411	-38.83381
	-65.31797	-38.83385
	-65.32058	-38.83473
	-65.32587	-38.83705
	-65.32751	-38.83797
	-65.33445	-38.84118
	-65.33529	-38.84287
	-65.33676	-38.84494
	-65.33936	-38.84634
	-65.34408	-38.84709
	-65.3507	-38.8475
	-65.35462	-38.84823
	-65.35846	-38.84848
	-65.36042	-38.8496
	-65.36326	-38.85225
	-65.36576	-38.85323
	-65.36729	-38.85479
	-65.37032	-38.85574
	-65.37525	-38.85604
	-65.37863	-38.85455
	-65.38155	-38.85129
	-65.38386	-38.84792
	-65.38474	-38.84457
	-65.38652	-38.83834
	-65.38792	-38.83503
	-65.38925	-38.83128
	-65.39184	-38.83046
	-65.3948	-38.83001
	-65.39737	-38.8289
	-65.40147	-38.82818
	-65.4035	-38.82895
	-65.40744	-38.82932
	-65.40927	-38.82857
	-65.41097	-38.82705
	-65.41218	-38.82476
	-65.41569	-38.82238
	-65.42025	-38.82156
	-65.42866	-38.82032
	-65.43014	-38.81751
	-65.43311	-38.81611
	-65.43933	-38.81603
	-65.44668	-38.81598
	-65.44942	-38.8153
	-65.45187	-38.81565
	-65.4548	-38.81585
	-65.45722	-38.81508
	-65.45947	-38.81251
	-65.46009	-38.80877
	-65.46218	-38.80629
	-65.46608	-38.80573
	-65.46988	-38.80593
	-65.47205	-38.80741
	-65.47564	-38.80687
	-65.48098	-38.80502
	-65.48563	-38.80252
	-65.49011	-38.80242
	-65.49981	-38.79906
	-65.50581	-38.79629
	-65.50713	-38.79418
	-65.50874	-38.78999
	-65.51113	-38.78765
	-65.51606	-38.78627
	-65.51777	-38.78474
	-65.51864	-38.78232
	-65.52202	-38.77964
	-65.52595	-38.77892
	-65.53187	-38.78134
	-65.53455	-38.78191
	-65.54029	-38.78023
	-65.54453	-38.78046
	-65.54923	-38.78227
	-65.55351	-38.78266
	-65.55743	-38.78288
	-65.56153	-38.78109
	-65.56547	-38.78396
	-65.56809	-38.78505
	-65.57181	-38.7839
	-65.5733	-38.78161
	-65.57273	-38.77861
	-65.57472	-38.77684
	-65.57937	-38.77502
	-65.58263	-38.77459
	-65.5877	-38.77495
	-65.58979	-38.77599
	-65.59151	-38.77644
	-65.6007	-38.77644
	-65.60287	-38.77769
	-65.60381	-38.77894
	-65.60386	-38.78136
	-65.60506	-38.78272
	-65.60745	-38.78372
	-65.60794	-38.78488
	-65.61175	-38.78533
	-65.61638	-38.78486
	-65.62013	-38.78535
	-65.62345	-38.78698
	-65.62465	-38.78866
	-65.62468	-38.79006
	-65.62302	-38.79173
	-65.61877	-38.79216
	-65.6142	-38.79311
	-65.61047	-38.79561
	-65.60944	-38.79547
	-65.60805	-38.79746
	-65.60862	-38.79907
	-65.60958	-38.80013
	-65.612	-38.80111
	-65.61323	-38.80266
	-65.61323	-38.80637
	-65.61481	-38.80819
	-65.61774	-38.80855
	-65.62118	-38.80753
	-65.62403	-38.80355
	-65.62761	-38.80226
	-65.63172	-38.80279
	-65.63286	-38.80498
	-65.62711	-38.81063
	-65.62816	-38.81498
	-65.62943	-38.81614
	-65.63108	-38.81734
	-65.634	-38.81742
	-65.6373	-38.81576
	-65.63847	-38.81162
	-65.64176	-38.80897
	-65.6465	-38.80932
	-65.6496	-38.81214
	-65.6496	-38.81472
	-65.64627	-38.8196
	-65.64791	-38.82466
	-65.65185	-38.82736
	-65.66076	-38.82789
	-65.66515	-38.82657
	-65.67423	-38.83197
	-65.68362	-38.83147
	-65.69124	-38.83457
	-65.69334	-38.83376
	-65.69631	-38.83229
	-65.6974	-38.8215
	-65.69893	-38.8179
	-65.70002	-38.81679
	-65.70362	-38.8161
	-65.70645	-38.8174
	-65.70771	-38.82169
	-65.71087	-38.82458
	-65.71264	-38.82543
	-65.71536	-38.82028
	-65.71737	-38.81859
	-65.71989	-38.81807
	-65.72731	-38.81829
	-65.73314	-38.81689
	-65.74193	-38.81779
	-65.74728	-38.81111
	-65.74987	-38.8102
	-65.75193	-38.81231
	-65.75241	-38.81484
	-65.75353	-38.8162
	-65.76107	-38.81475
	-65.7658	-38.81268
	-65.77547	-38.81259
	-65.78366	-38.80846
	-65.78679	-38.80228
	-65.78707	-38.79992
	-65.78515	-38.79787
	-65.78726	-38.7953
	-65.79024	-38.79626
	-65.7923	-38.79942
	-65.79859	-38.80364
	-65.80126	-38.80741
	-65.80833	-38.80563
	-65.81031	-38.80328
	-65.81022	-38.80206
	-65.80907	-38.80106
	-65.80537	-38.79934
	-65.80333	-38.79612
	-65.80452	-38.79379
	-65.80878	-38.79286
	-65.81473	-38.79115
	-65.81723	-38.7892
	-65.81871	-38.78874
	-65.82048	-38.78919
	-65.8204	-38.79035
	-65.81687	-38.79277
	-65.81785	-38.79582
	-65.81965	-38.79917
	-65.82332	-38.79939
	-65.82735	-38.79722
	-65.82887	-38.79434
	-65.8295	-38.78976
	-65.8344	-38.78685
	-65.83973	-38.78651
	-65.84354	-38.78759
	-65.84449	-38.78753
	-65.84888	-38.79058
	-65.85056	-38.79362
	-65.85342	-38.79599
	-65.85627	-38.79851
	-65.86186	-38.79984
	-65.86332	-38.80001
	-65.86455	-38.79953
	-65.86077	-38.79619
	-65.8605	-38.79341
	-65.86478	-38.78948
	-65.86657	-38.78903
	-65.86939	-38.78917
	-65.87309	-38.79248
	-65.87522	-38.79302
	-65.8804	-38.79209
	-65.88249	-38.78973
	-65.88189	-38.78705
	-65.87925	-38.7841
	-65.87505	-38.78251
	-65.8739	-38.77956
	-65.87632	-38.77757
	-65.88062	-38.77744
	-65.88521	-38.77648
	-65.89367	-38.77817
	-65.90247	-38.78287
	-65.90583	-38.78407
	-65.91229	-38.78403
	-65.91293	-38.78049
	-65.91093	-38.77711
	-65.90981	-38.77241
	-65.91103	-38.76907
	-65.91137	-38.76599
	-65.9135	-38.76512
	-65.91752	-38.76945
	-65.9214	-38.77105
	-65.9229	-38.772
	-65.92569	-38.7749
	-65.92776	-38.77519
	-65.92926	-38.77426
	-65.92872	-38.77246
	-65.92538	-38.77145
	-65.92269	-38.76911
	-65.92293	-38.76548
	-65.92538	-38.76429
	-65.92912	-38.76431
	-65.93525	-38.76895
	-65.94045	-38.77015
	-65.94613	-38.76829
	-65.94967	-38.7637
	-65.95066	-38.75957
	-65.9446	-38.75384
	-65.94416	-38.7515
	-65.94685	-38.74869
	-65.95157	-38.74723
	-65.9609	-38.74651
	-65.97048	-38.74679
	-65.9775	-38.74527
	-65.98077	-38.74431
	-65.98743	-38.74692
	-65.99323	-38.74747
	-66.00048	-38.7465
	-66.00575	-38.74533
	-66.00884	-38.74536
	-66.01346	-38.74444
	-66.01679	-38.74212
	-66.01884	-38.74101
	-66.01934	-38.7429
	-66.01938	-38.74702
	-66.02119	-38.74918
	-66.02591	-38.75122
	-66.03246	-38.75117
	-66.03399	-38.75003
	-66.03288	-38.74803
	-66.03072	-38.7429
	-66.03061	-38.73933
	-66.03214	-38.73965
	-66.0346	-38.74439
	-66.03982	-38.74887
	-66.04596	-38.74804
	-66.04857	-38.74475
	-66.05323	-38.7429
	-66.05513	-38.74322
	-66.05678	-38.74453
	-66.05699	-38.74947
	-66.05903	-38.75118
	-66.06358	-38.75173
	-66.06643	-38.74912
	-66.06934	-38.74751
	-66.07631	-38.74356
	-66.07668	-38.74044
	-66.07638	-38.73348
	-66.08191	-38.72666
	-66.08458	-38.72509
	-66.08704	-38.72575
	-66.09071	-38.73039
	-66.09713	-38.73045
	-66.10012	-38.72968
	-66.10256	-38.72784
	-66.10596	-38.72754
	-66.11013	-38.73031
	-66.11056	-38.73223
	-66.10868	-38.73451
	-66.10941	-38.73577
	-66.11091	-38.73606
	-66.11458	-38.73622
	-66.11612	-38.73802
	-66.11592	-38.74054
	-66.11662	-38.7424
	-66.11821	-38.74301
	-66.11977	-38.74318
	-66.12216	-38.73963
	-66.11959	-38.73528
	-66.12009	-38.73394
	-66.12512	-38.73337
	-66.12943	-38.73808
	-66.13252	-38.73946
	-66.13453	-38.73878
	-66.14092	-38.73583
	-66.14536	-38.7347
	-66.14847	-38.73152
	-66.15422	-38.72892
	-66.15724	-38.7296
	-66.15987	-38.73205
	-66.1632	-38.7376
	-66.16931	-38.74005
	-66.17562	-38.74499
	-66.17741	-38.74507
	-66.17872	-38.74393
	-66.17424	-38.73977
	-66.17497	-38.73585
	-66.18091	-38.73088
	-66.18338	-38.73133
	-66.18713	-38.73324
	-66.19046	-38.73577
	-66.19429	-38.73702
	-66.19772	-38.73697
	-66.2003	-38.73636
	-66.20209	-38.73344
	-66.2047	-38.73155
	-66.20804	-38.73165
	-66.21222	-38.73518
	-66.21486	-38.73949
	-66.21835	-38.74121
	-66.22822	-38.73628
	-66.24778	-38.73572
	-66.2495	-38.73743
	-66.25508	-38.74417
	-66.26245	-38.74462
	-66.26854	-38.74484
	-66.2702	-38.74405
	-66.27272	-38.74442
	-66.27626	-38.74772
	-66.28473	-38.75452
	-66.28903	-38.75599
	-66.29164	-38.75521
	-66.29171	-38.75259
	-66.29076	-38.7503
	-66.29086	-38.74675
	-66.29451	-38.74422
	-66.30023	-38.74344
	-66.30658	-38.74302
	-66.3101	-38.74332
	-66.31359	-38.74513
	-66.31438	-38.74802
	-66.31117	-38.75261
	-66.30988	-38.75764
	-66.31318	-38.76163
	-66.31636	-38.76114
	-66.31853	-38.75935
	-66.31872	-38.758
	-66.31818	-38.75165
	-66.32105	-38.74842
	-66.32435	-38.74824
	-66.3272	-38.74973
	-66.33371	-38.75574
	-66.34135	-38.75792
	-66.34689	-38.7564
	-66.35286	-38.74753
	-66.35623	-38.74547
	-66.36623	-38.74441
	-66.37034	-38.74537
	-66.37336	-38.74549
	-66.3816	-38.7422
	-66.38711	-38.73936
	-66.38909	-38.73894
	-66.39456	-38.7401
	-66.39896	-38.7422
	-66.40104	-38.74333
	-66.40431	-38.74414
	-66.4066	-38.74265
	-66.40742	-38.73916
	-66.40466	-38.73519
	-66.40509	-38.73243
	-66.40647	-38.73108
	-66.40905	-38.73045
	-66.41063	-38.73159
	-66.41167	-38.73543
	-66.41318	-38.74069
	-66.41608	-38.74345
	-66.41902	-38.74453
	-66.42835	-38.74482
	-66.43159	-38.74563
	-66.4429	-38.74579
	-66.44518	-38.74509
	-66.44686	-38.74414
	-66.44735	-38.74254
	-66.44587	-38.7383
	-66.44711	-38.73625
	-66.45782	-38.73628
	-66.46	-38.73654
	-66.46116	-38.73609
	-66.46153	-38.73539
	-66.46253	-38.7325
	-66.46553	-38.73225
	-66.46971	-38.73638
	-66.47283	-38.73806
	-66.47545	-38.73757
	-66.4767	-38.73593
	-66.47532	-38.73414
	-66.47427	-38.72969
	-66.4757	-38.72737
	-66.47937	-38.72713
	-66.48158	-38.72894
	-66.48514	-38.73029
	-66.48863	-38.72884
	-66.4901	-38.72642
	-66.49303	-38.72144
	-66.49752	-38.71824
	-66.50447	-38.7183
	-66.51109	-38.71822
	-66.51585	-38.71747
	-66.51725	-38.71673
	-66.52449	-38.71523
	-66.52777	-38.71709
	-66.53469	-38.72078
	-66.5378	-38.7209
	-66.53903	-38.7205
	-66.542	-38.71804
	-66.5431	-38.71144
	-66.54559	-38.70764
	-66.55142	-38.70107
	-66.55482	-38.69749
	-66.55821	-38.69654
	-66.56294	-38.69925
	-66.56761	-38.70079
	-66.57255	-38.70176
	-66.57468	-38.70161
	-66.57818	-38.70017
	-66.58211	-38.69838
	-66.58296	-38.69672
	-66.57788	-38.69344
	-66.57796	-38.69178
	-66.57967	-38.69072
	-66.58673	-38.69074
	-66.58996	-38.68901
	-66.59583	-38.68405
	-66.59832	-38.68335
	-66.60586	-38.67975
	-66.60752	-38.67804
	-66.6073	-38.67572
	-66.60428	-38.67516
	-66.59655	-38.67522
	-66.59383	-38.67236
	-66.59261	-38.66823
	-66.59711	-38.66146
	-66.59814	-38.65934
	-66.59801	-38.65376
	-66.59738	-38.64936
	-66.59403	-38.64613
	-66.58713	-38.64041
	-66.58367	-38.63644
	-66.58212	-38.63075
	-66.57792	-38.62293
	-66.57991	-38.6205
	-66.58736	-38.61741
	-66.59052	-38.61518
	-66.59121	-38.61178
	-66.59427	-38.6047
	-66.59787	-38.60116
	-66.6003	-38.59824
	-66.59895	-38.5959
	-66.59575	-38.59194
	-66.59565	-38.59108
	-66.59515	-38.58952
	-66.59675	-38.58635
	-66.59826	-38.58569
	-66.60156	-38.58496
	-66.60502	-38.5827
	-66.60518	-38.58015
	-66.60404	-38.5764
	-66.60331	-38.57374
	-66.60476	-38.57025
	-66.60884	-38.56553
	-66.6098	-38.5629
	-66.60853	-38.56066
	-66.60938	-38.55787
	-66.61125	-38.55755
	-66.61233	-38.55821
	-66.61493	-38.55853
	-66.61655	-38.55857
	-66.62013	-38.55746
	-66.63239	-38.55712
	-66.63503	-38.55536
	-66.63445	-38.55201
	-66.63301	-38.54536
	-66.63358	-38.54399
	-66.63746	-38.54116
	-66.6441	-38.53803
	-66.64473	-38.53763
	-66.64999	-38.53507
	-66.65288	-38.53468
	-66.6546	-38.53484
	-66.65913	-38.53867
	-66.66589	-38.53732
	-66.67053	-38.53582
	-66.67724	-38.53313
	-66.68537	-38.53127
	-66.69237	-38.52887
	-66.69657	-38.52965
	-66.69983	-38.52949
	-66.7054	-38.52939
	-66.70916	-38.53077
	-66.71112	-38.53249
	-66.71252	-38.53184
	-66.71406	-38.52999
	-66.71252	-38.52569
	-66.71252	-38.5236
	-66.71499	-38.52056
	-66.71782	-38.51977
	-66.73271	-38.5197
	-66.74097	-38.5185
	-66.74487	-38.51777
	-66.74674	-38.5169
	-66.74777	-38.51342
	-66.75533	-38.50704
	-66.76627	-38.50366
	-66.77427	-38.49365
	-66.78133	-38.48389
	-66.78639	-38.48007
	-66.79013	-38.47958
	-66.79427	-38.48004
	-66.79656	-38.48072
	-66.80121	-38.48237
	-66.80625	-38.4834
	-66.80974	-38.4846
	-66.81247	-38.4847
	-66.81932	-38.48314
	-66.82545	-38.47964
	-66.82975	-38.47837
	-66.83389	-38.47574
	-66.83797	-38.47603
	-66.84585	-38.47696
	-66.84927	-38.47602
	-66.85197	-38.47576
	-66.85593	-38.47464
	-66.85947	-38.47178
	-66.86404	-38.46764
	-66.86862	-38.46484
	-66.87504	-38.46245
	-66.88037	-38.46128
	-66.88438	-38.46164
	-66.88701	-38.46352
	-66.89178	-38.46192
	-66.89425	-38.4587
	-66.89527	-38.45082
	-66.89523	-38.44536
	-66.89699	-38.44371
	-66.89974	-38.44296
	-66.90509	-38.44322
	-66.91635	-38.4486
	-66.9195	-38.44906
	-66.92309	-38.44814
	-66.9264	-38.44823
	-66.92959	-38.44969
	-66.93527	-38.45114
	-66.94078	-38.45105
	-66.94298	-38.45176
	-66.95112	-38.45287
	-66.95461	-38.45008
	-66.96108	-38.44568
	-66.96699	-38.44347
	-66.97132	-38.44247
	-66.97697	-38.44654
	-66.9826	-38.44764
	-66.99476	-38.44623
	-66.99738	-38.44355
	-66.99913	-38.43879
	-67.0035	-38.4353
	-67.00435	-38.43068
	-67.00751	-38.42387
	-67.01388	-38.42194
	-67.02532	-38.41708
	-67.03137	-38.41519
	-67.0339	-38.41499
	-67.03869	-38.41482
	-67.04477	-38.41454
	-67.04586	-38.41474
	-67.05258	-38.41417
	-67.05705	-38.41175
	-67.06118	-38.40835
	-67.06462	-38.40696
	-67.07058	-38.40193
	-67.07516	-38.40102
	-67.08027	-38.40003
	-67.0884	-38.40013
	-67.09053	-38.399
	-67.09425	-38.38993
	-67.0985	-38.38491
	-67.10213	-38.38065
	-67.10582	-38.37551
	-67.1129	-38.36878
	-67.11531	-38.36118
	-67.11859	-38.35505
	-67.12744	-38.35336
	-67.13372	-38.35363
	-67.13871	-38.3607
	-67.14018	-38.36156
	-67.14568	-38.36048
	-67.15223	-38.35695
	-67.15575	-38.35479
	-67.15784	-38.35251
	-67.15687	-38.34998
	-67.15158	-38.3438
	-67.14888	-38.33925
	-67.15107	-38.32549
	-67.15405	-38.31938
	-67.15604	-38.31281
	-67.15809	-38.30722
	-67.15752	-38.30303
	-67.15302	-38.29597
	-67.15248	-38.29232
	-67.15446	-38.29012
	-67.15816	-38.28463
	-67.16386	-38.28152
	-67.16658	-38.2814
	-67.16942	-38.28065
	-67.17255	-38.2792
	-67.17255	-38.27128
	-67.17369	-38.26057
	-67.17758	-38.26178
	-67.18156	-38.26114
	-67.18933	-38.25924
	-67.19286	-38.25779
	-67.19646	-38.25392
	-67.19567	-38.24979
	-67.19437	-38.24481
	-67.19354	-38.2353
	-67.19016	-38.23049
	-67.18695	-38.22813
	-67.18363	-38.22344
	-67.19507	-38.21602
	-67.21295	-38.20119
	-67.27664	-38.2197
	-67.31687	-38.24477
	-67.36508	-38.25235
	-67.43702	-38.25385
	-67.59571	-38.23341
	-67.6557	-38.20131
	-67.67478	-38.15418
	-67.68069	-38.14289
	-67.68498	-38.13632
	-67.68772	-38.13292
	-67.69052	-38.13075
	-67.69812	-38.12562
	-67.70679	-38.12338
	-67.71655	-38.12288
	-67.72793	-38.11496
	-67.72896	-38.11364
	-67.72928	-38.11186
	-67.7274	-38.11003
	-67.72523	-38.10865
	-67.72437	-38.10722
	-67.72543	-38.10477
	-67.73043	-38.10149
	-67.73351	-38.09515
	-67.73269	-38.09416
	-67.72854	-38.09478
	-67.72662	-38.09411
	-67.72461	-38.09243
	-67.72624	-38.08931
	-67.72761	-38.08783
	-67.72765	-38.08645
	-67.72935	-38.08302
	-67.72832	-38.07731
	-67.73153	-38.07602
	-67.73414	-38.07707
	-67.739	-38.0767
	-67.74749	-38.07283
	-67.74604	-38.06946
	-67.74506	-38.06824
	-67.74392	-38.0642
	-67.74447	-38.06191
	-67.74679	-38.05721
	-67.75162	-38.05498
	-67.75516	-38.05563
	-67.75642	-38.05779
	-67.75649	-38.06005
	-67.75484	-38.06473
	-67.75638	-38.06668
	-67.76188	-38.06872
	-67.76581	-38.06664
	-67.76475	-38.06355
	-67.76596	-38.06037
	-67.7734	-38.05682
	-67.77949	-38.05493
	-67.78329	-38.05178
	-67.78669	-38.05995
	-67.79509	-38.06015
	-67.79532	-38.06622
	-67.80095	-38.06612
	-67.80629	-38.06507
	-67.80833	-38.06666
	-67.80786	-38.06916
	-67.80986	-38.07256
	-67.81261	-38.0699
	-67.81405	-38.06529
	-67.81833	-38.06168
	-67.82207	-38.06344
	-67.8264	-38.06366
	-67.83009	-38.06165
	-67.8328	-38.05739
	-67.83594	-38.05574
	-67.83931	-38.05667
	-67.84127	-38.05976
	-67.84582	-38.06658
	-67.84913	-38.06626
	-67.85136	-38.06379
	-67.84934	-38.05689
	-67.84403	-38.05395
	-67.84506	-38.05141
	-67.86216	-38.04436
	-67.86573	-38.03974
	-67.87248	-38.03569
	-67.88142	-38.0257
	-67.88418	-38.01409
	-67.89585	-38.0134
	-67.88858	-38.00003
	-67.89955	-37.99779
	-67.89905	-37.98978
	-67.90574	-37.9862
	-67.89888	-37.97782
	-67.89005	-37.96851
	-67.88587	-37.96194
	-67.88225	-37.95464
	-67.87485	-37.95335
	-67.87073	-37.94893
	-67.87319	-37.94124
	-67.86116	-37.93588
	-67.85447	-37.93011
	-67.85192	-37.92609
	-67.84608	-37.92726
	-67.84362	-37.92637
	-67.84408	-37.92367
	-67.84794	-37.92096
	-67.84698	-37.91762
	-67.83874	-37.9158
	-67.83852	-37.9156
	-67.8354	-37.91297
	-67.8295	-37.91191
	-67.82113	-37.90764
	-67.81825	-37.90314
	-67.81049	-37.90468
	-67.8066	-37.90238
	-67.80565	-37.89853
	-67.7973	-37.90092
	-67.78887	-37.89287
	-67.78283	-37.89726
	-67.77969	-37.89679
	-67.77829	-37.89521
	-67.77913	-37.89422
	-67.7819	-37.89076
	-67.78213	-37.89045
	-67.78075	-37.88733
	-67.77254	-37.88582
	-67.77216	-37.88183
	-67.76028	-37.87713
	-67.74461	-37.8624
	-67.7366	-37.85587
	-67.73222	-37.85194
	-67.72989	-37.85077
	-67.72944	-37.84862
	-67.72361	-37.80437
	-67.72775	-37.78792
	-67.73578	-37.79165
	-67.73932	-37.78985
	-67.74019	-37.78825
	-67.74069	-37.78536
	-67.74111	-37.78483
	-67.74027	-37.78261
	-67.73699	-37.78227
	-67.73613	-37.78118
	-67.73845	-37.77885
	-67.73971	-37.76933
	-67.7604	-37.74371
	-67.7573	-37.74045
	-67.76486	-37.72386
	-67.76607	-37.7221
	-67.76371	-37.719
	-67.76577	-37.70562
	-67.76661	-37.69968
	-67.77052	-37.67057
	-67.78071	-37.66129
	-67.78721	-37.6514
	-67.80304	-37.64777
	-67.81849	-37.63928
	-67.83493	-37.62437
	-67.87004	-37.61331
	-67.88191	-37.61529
	-67.88666	-37.6192
	-67.91423	-37.61358
	-67.93731	-37.60608
	-67.9541	-37.60219
	-67.97063	-37.60716
	-67.98522	-37.607
	-68.00809	-37.60219
	-68.06527	-37.6009
	-68.08674	-37.59239
	-68.10448	-37.59498
	-68.13948	-37.58592
	-68.16034	-37.58279
	-68.18406	-37.58629
	-68.22221	-37.58696
	-68.23855	-37.58496
	-68.24176	-37.57902
	-68.24543	-37.577
	-68.25164	-37.57403
	-68.25494	-37.57111
	-68.25001	-36.9697
	-68.2498	-36.79964
	-68.24979	-36.76405
	-68.25	-36.28749
	-68.28334	-36.28751
	-68.28333	-36.00001
	-67.86875	-36.00001
	-67.45418	-36.00005
	-67.03954	-36.00004
	-66.63778	-36.00063
	-66.2395	-36.0001
	-66.04673	-36.00004
	-66.02689	-35.99999
	-65.46868	-36.00001
	-65.08334	-36.0
	-65.08351	-35.80249
	-65.08334	-35.69505
	-65.08871	-35.35431
	-65.09165	-34.99347
	-65.09145	-34.93201
	-65.09299	-34.74341
	-65.12322	-33.93442
	-65.12556	-33.8644
	-65.12807	-33.59792
	-65.13958	-33.18265
	-65.08217	-33.14742
	-65.07084	-33.14068
	-65.05924	-33.10002
	-65.05237	-33.08326
	-65.04482	-33.06182
	-65.02876	-33.04975
	-65.01604	-33.02168
	-64.99883	-33.00299
	-65.02292	-32.97554
	-65.01665	-32.96473
	-65.01235	-32.96172
	-65.00506	-32.95526
	-64.99501	-32.94975
	-64.99042	-32.94086
	-64.99267	-32.92757
	-64.97966	-32.90727
	-64.98221	-32.88395
	-64.97725	-32.80603
	-64.95803	-32.77036
	-64.94074	-32.70385
	-64.93098	-32.60616
	-64.90241	-32.60519
	-64.89436	-32.59984
	-64.89169	-32.59378
	-64.88723	-32.59019
	-64.87803	-32.57941
	-64.87309	-32.57469
	-64.87517	-32.56492
	-64.8767	-32.56178
	-64.87976	-32.55925
	-64.88423	-32.55756
	-64.88529	-32.55448
	-64.88583	-32.55099
	-64.88763	-32.54903
	-64.88709	-32.54796
	-64.88529	-32.54527
	-64.8845	-32.5406
	-64.88123	-32.53538
	-64.88376	-32.5278
	-64.88776	-32.5269
	-64.89549	-32.52527
	-64.90042	-32.52049
	-64.90274	-32.50982
	-64.89929	-32.50611
	-64.89729	-32.50105
	-64.89516	-32.49504
	-64.89536	-32.48543
	-64.89795	-32.48155
	-64.90035	-32.47988
	-64.90286	-32.47858
	-64.90514	-32.47749
	-64.90762	-32.47599
	-64.91488	-32.47385
	-64.91788	-32.46907
	-64.91961	-32.46671
	-64.91994	-32.46452
	-64.92041	-32.45743
	-64.91988	-32.45288
	-64.92161	-32.43871
	-64.92137	-32.43655
	-64.9223	-32.43491
	-64.92359	-32.42864
	-64.92644	-32.42551
	-64.92691	-32.42223
	-64.92899	-32.41872
	-64.92972	-32.41713
	-64.92858	-32.41576
	-64.92786	-32.41381
	-64.92166	-32.40731
	-64.91923	-32.40137
	-64.91942	-32.39495
	-64.91991	-32.39193
	-64.91978	-32.38791
	-64.92066	-32.38663
	-64.92129	-32.38292
	-64.92138	-32.37875
	-64.92115	-32.37728
	-64.92074	-32.37551
	-64.92056	-32.37228
	-64.91997	-32.3692
	-64.92173	-32.36501
	-64.92506	-32.36242
	-64.92759	-32.3578
	-64.9276	-32.35444
	-64.92612	-32.35279
	-64.92519	-32.35071
	-64.92546	-32.34744
	-64.92233	-32.34294
	-64.92219	-32.33714
	-64.92299	-32.3332
	-64.92306	-32.32875
	-64.92219	-32.32425
	-64.92259	-32.32037
	-64.92499	-32.31913
	-64.92779	-32.31665
	-64.92866	-32.31192
	-64.93059	-32.3113
	-64.93285	-32.3091
	-64.93772	-32.30783
	-64.94173	-32.30496
	-64.94812	-32.30429
	-64.95102	-32.30775
	-64.95632	-32.31044
	-64.95672	-32.31251
	-64.95924	-32.31619
	-64.96126	-32.31673
	-64.96889	-32.31804
	-64.97703	-32.32151
	-64.98008	-32.32025
	-64.98195	-32.3199
	-64.9819	-32.31844
	-64.98348	-32.3189
	-64.98366	-32.31818
	-64.98463	-32.31806
	-64.98562	-32.31703
	-64.9863	-32.31775
	-64.98772	-32.31671
	-64.98856	-32.31691
	-64.98946	-32.31637
	-64.99012	-32.31645
	-64.99047	-32.3153
	-64.99099	-32.31566
	-64.99215	-32.31508
	-64.99259	-32.31556
	-64.99495	-32.31424
	-64.99561	-32.31444
	-64.99733	-32.3139
	-64.99808	-32.31468
	-64.99971	-32.31516
	-65.00161	-32.31589
	-65.00305	-32.31659
	-65.0064	-32.31689
	-65.00911	-32.31653
	-65.01158	-32.31641
	-65.01464	-32.3157
	-65.01818	-32.31564
	-65.02138	-32.31548
	-65.02498	-32.31568
	-65.02689	-32.31574
	-65.02834	-32.31648
	-65.03181	-32.31689
	-65.03526	-32.31692
	-65.03733	-32.31757
	-65.03954	-32.31661
	-65.04199	-32.3155
	-65.04505	-32.31494
	-65.04741	-32.31593
	-65.04967	-32.31506
	-65.05504	-32.31422
	-65.05531	-32.31432
	-65.0569	-32.31581
	-65.05753	-32.31513
	-65.05801	-32.3153
	-65.05919	-32.31498
	-65.06602	-32.31665
	-65.06701	-32.31761
	-65.06946	-32.31625
	-65.07398	-32.31566
	-65.07645	-32.31526
	-65.08354	-32.31535
	-65.08536	-32.31535
	-65.0866	-32.3162
	-65.08821	-32.31623
	-65.08926	-32.3163
	-65.09115	-32.31646
	-65.09182	-32.31616
	-65.09213	-32.31617
	-65.09517	-32.3164
	-65.09859	-32.31676
	-65.09915	-32.31674
	-65.10142	-32.31634
	-65.10263	-32.31564
	-65.10291	-32.31529
	-65.10279	-32.31416
	-65.20997	-32.318
	-65.20961	-32.31724
	-65.20934	-32.31653
	-65.20931	-32.31601
	-65.20959	-32.31515
	-65.20984	-32.31456
	-65.20965	-32.31347
	-65.20946	-32.3126
	-65.20978	-32.31222
	-65.21008	-32.31191
	-65.21006	-32.31113
	-65.20972	-32.3106
	-65.20946	-32.30995
	-65.20944	-32.30941
	-65.20974	-32.30903
	-65.20974	-32.30861
	-65.20944	-32.30848
	-65.2089	-32.30801
	-65.20819	-32.30754
	-65.20785	-32.30689
	-65.20811	-32.30632
	-65.20836	-32.30601
	-65.20826	-32.30549
	-65.20783	-32.305
	-65.20774	-32.30418
	-65.208	-32.30357
	-65.20819	-32.30282
	-65.20841	-32.30219
	-65.20894	-32.30183
	-65.20959	-32.30134
	-65.20991	-32.30061
	-65.21049	-32.30043
	-65.21124	-32.30039
	-65.21186	-32.29996
	-65.21238	-32.29956
	-65.21248	-32.29822
	-65.21304	-32.2976
	-65.21323	-32.29635
	-65.21336	-32.2953
	-65.21349	-32.29448
	-65.21321	-32.2933
	-65.21302	-32.29288
	-65.21308	-32.29218
	-65.2136	-32.29143
	-65.21418	-32.2912
	-65.21451	-32.29081
	-65.21448	-32.29013
	-65.21476	-32.28964
	-65.21551	-32.28887
	-65.21615	-32.28886
	-65.21643	-32.28828
	-65.21645	-32.28789
	-65.21727	-32.28768
	-65.21823	-32.28762
	-65.21879	-32.28708
	-65.21864	-32.28652
	-65.21884	-32.28566
	-65.21843	-32.28468
	-65.21849	-32.28291
	-65.21869	-32.28207
	-65.21873	-32.28131
	-65.21918	-32.27973
	-65.21867	-32.27874
	-65.21851	-32.27806
	-65.21778	-32.27761
	-65.21697	-32.27725
	-65.21671	-32.27672
	-65.21682	-32.27632
	-65.21673	-32.27558
	-65.21643	-32.27521
	-65.216	-32.27442
	-65.21573	-32.27399
	-65.21518	-32.27398
	-65.21517	-32.27324
	-65.21476	-32.27286
	-65.21424	-32.27229
	-65.21394	-32.2711
	-65.21435	-32.27033
	-65.21467	-32.26944
	-65.21469	-32.26876
	-65.21487	-32.26768
	-65.21469	-32.2671
	-65.21463	-32.2664
	-65.21431	-32.26553
	-65.21386	-32.26491
	-65.21253	-32.26331
	-65.2118	-32.26311
	-65.2103	-32.26259
	-65.2084	-32.26198
	-65.20809	-32.26113
	-65.20819	-32.26025
	-65.20901	-32.25957
	-65.20997	-32.25928
	-65.211	-32.25941
	-65.21208	-32.25939
	-65.213	-32.25869
	-65.21227	-32.25823
	-65.21133	-32.25667
	-65.21045	-32.25604
	-65.20993	-32.25527
	-65.2092	-32.25446
	-65.20884	-32.25348
	-65.20914	-32.25266
	-65.20982	-32.25223
	-65.21049	-32.25177
	-65.21047	-32.25099
	-65.20979	-32.2501
	-65.20916	-32.24948
	-65.20856	-32.24907
	-65.20869	-32.24861
	-65.20972	-32.24849
	-65.21081	-32.24809
	-65.21165	-32.24774
	-65.21276	-32.247
	-65.21244	-32.24606
	-65.21212	-32.24437
	-65.21197	-32.24373
	-65.21193	-32.24295
	-65.21225	-32.24164
	-65.21278	-32.24086
	-65.21278	-32.24012
	-65.21255	-32.23923
	-65.21289	-32.23821
	-65.21386	-32.23789
	-65.21463	-32.23771
	-65.21377	-32.23674
	-65.21285	-32.23696
	-65.21113	-32.23647
	-65.21064	-32.23518
	-65.21107	-32.23458
	-65.21197	-32.23368
	-65.21242	-32.2329
	-65.21384	-32.23199
	-65.21478	-32.23177
	-65.21579	-32.23177
	-65.21637	-32.23148
	-65.21675	-32.2309
	-65.21624	-32.23028
	-65.21474	-32.22936
	-65.21487	-32.22838
	-65.21542	-32.22741
	-65.21669	-32.22663
	-65.21738	-32.22573
	-65.2183	-32.22415
	-65.21907	-32.22333
	-65.21997	-32.22208
	-65.21997	-32.22099
	-65.22042	-32.21974
	-65.2207	-32.21883
	-65.22128	-32.21865
	-65.22235	-32.21892
	-65.22364	-32.21921
	-65.22406	-32.21851
	-65.22437	-32.21776
	-65.22589	-32.21761
	-65.22637	-32.21719
	-65.22711	-32.21617
	-65.22748	-32.2156
	-65.22867	-32.21532
	-65.22912	-32.21468
	-65.22915	-32.21378
	-65.23019	-32.21229
	-65.23108	-32.21136
	-65.2321	-32.21067
	-65.23224	-32.20951
	-65.23132	-32.2081
	-65.23124	-32.20778
	-65.23137	-32.20763
	-65.23144	-32.2075
	-65.23133	-32.20741
	-65.23112	-32.2073
	-65.23114	-32.20698
	-65.23128	-32.2068
	-65.23126	-32.20661
	-65.23202	-32.2057
	-65.23213	-32.2055
	-65.23209	-32.20522
	-65.23157	-32.2048
	-65.23123	-32.20428
	-65.23117	-32.20378
	-65.23139	-32.20332
	-65.23168	-32.20308
	-65.232	-32.20303
	-65.23243	-32.20287
	-65.23266	-32.20261
	-65.23291	-32.20156
	-65.23279	-32.20141
	-65.23225	-32.20106
	-65.23152	-32.20094
	-65.23107	-32.20084
	-65.23006	-32.20042
	-65.22955	-32.20017
	-65.22937	-32.20013
	-65.22914	-32.19999
	-65.22884	-32.1997
	-65.22885	-32.19948
	-65.229	-32.19925
	-65.22941	-32.19876
	-65.22951	-32.19767
	-65.22974	-32.19599
	-65.22931	-32.19555
	-65.22861	-32.1954
	-65.22784	-32.19431
	-65.22787	-32.19368
	-65.22774	-32.19188
	-65.22727	-32.19025
	-65.22714	-32.18951
	-65.22725	-32.18918
	-65.22876	-32.18877
	-65.22989	-32.18789
	-65.23	-32.18692
	-65.22926	-32.18435
	-65.22924	-32.18282
	-65.22881	-32.18175
	-65.22841	-32.18083
	-65.2271	-32.17995
	-65.22567	-32.17953
	-65.22524	-32.17879
	-65.22596	-32.17832
	-65.22633	-32.17717
	-65.22635	-32.17572
	-65.22624	-32.17492
	-65.22509	-32.1739
	-65.22582	-32.17265
	-65.22617	-32.17245
	-65.22636	-32.17232
	-65.22652	-32.17207
	-65.22672	-32.17168
	-65.22679	-32.17136
	-65.22679	-32.17085
	-65.22682	-32.17061
	-65.22678	-32.17054
	-65.22669	-32.17051
	-65.2266	-32.17032
	-65.2264	-32.16999
	-65.2263	-32.1699
	-65.22611	-32.16982
	-65.2257	-32.16904
	-65.22558	-32.16894
	-65.22522	-32.1687
	-65.2251	-32.16853
	-65.22492	-32.16839
	-65.22484	-32.16827
	-65.22487	-32.16805
	-65.22505	-32.1675
	-65.22503	-32.16735
	-65.22506	-32.16722
	-65.22533	-32.16697
	-65.22566	-32.16677
	-65.22596	-32.16667
	-65.22621	-32.16668
	-65.2268	-32.16688
	-65.22708	-32.16702
	-65.22734	-32.16709
	-65.22776	-32.16723
	-65.22804	-32.16737
	-65.22813	-32.16745
	-65.22819	-32.16763
	-65.2283	-32.1677
	-65.22841	-32.16772
	-65.22854	-32.16765
	-65.22863	-32.16755
	-65.22871	-32.16753
	-65.22897	-32.16762
	-65.22925	-32.16768
	-65.22955	-32.1677
	-65.22982	-32.16763
	-65.23039	-32.16715
	-65.23052	-32.16692
	-65.23036	-32.16678
	-65.23025	-32.16661
	-65.23019	-32.16645
	-65.23019	-32.16629
	-65.22999	-32.16613
	-65.22991	-32.16599
	-65.22987	-32.1658
	-65.22978	-32.16563
	-65.22967	-32.16554
	-65.22947	-32.16548
	-65.22927	-32.1655
	-65.22871	-32.16539
	-65.22834	-32.16529
	-65.22817	-32.16515
	-65.22805	-32.16491
	-65.22797	-32.16422
	-65.228	-32.16402
	-65.22799	-32.16383
	-65.22789	-32.1637
	-65.22784	-32.16359
	-65.22788	-32.16345
	-65.22805	-32.16335
	-65.22819	-32.1632
	-65.2283	-32.163
	-65.22851	-32.16295
	-65.2287	-32.16299
	-65.22907	-32.16313
	-65.22943	-32.16324
	-65.22988	-32.16363
	-65.23007	-32.16376
	-65.23033	-32.16374
	-65.23057	-32.16363
	-65.23083	-32.16356
	-65.23112	-32.16362
	-65.23137	-32.16359
	-65.23149	-32.1635
	-65.23166	-32.16331
	-65.23181	-32.16302
	-65.23179	-32.16272
	-65.23168	-32.16259
	-65.23156	-32.16236
	-65.23153	-32.16205
	-65.2314	-32.16179
	-65.23146	-32.16146
	-65.23134	-32.1612
	-65.23137	-32.1611
	-65.23156	-32.16095
	-65.23178	-32.16074
	-65.23188	-32.16053
	-65.23191	-32.16035
	-65.23197	-32.16019
	-65.23199	-32.16006
	-65.23195	-32.15988
	-65.23188	-32.15968
	-65.23189	-32.1595
	-65.23211	-32.15929
	-65.23225	-32.15892
	-65.23224	-32.15876
	-65.23213	-32.15851
	-65.23217	-32.15826
	-65.23206	-32.15814
	-65.23201	-32.15798
	-65.23208	-32.15788
	-65.23224	-32.15779
	-65.2324	-32.15776
	-65.23252	-32.15761
	-65.23252	-32.15741
	-65.23255	-32.15714
	-65.23265	-32.15685
	-65.23317	-32.1563
	-65.23348	-32.15625
	-65.23361	-32.15612
	-65.23382	-32.15567
	-65.23412	-32.15533
	-65.23427	-32.15502
	-65.23427	-32.15469
	-65.23411	-32.15425
	-65.23362	-32.15393
	-65.23304	-32.15329
	-65.23257	-32.15294
	-65.23224	-32.15257
	-65.2322	-32.1523
	-65.23155	-32.15112
	-65.23122	-32.15081
	-65.23106	-32.15025
	-65.23089	-32.14984
	-65.23096	-32.14953
	-65.23101	-32.14909
	-65.23112	-32.14881
	-65.23107	-32.14852
	-65.23111	-32.1482
	-65.23148	-32.14795
	-65.23154	-32.1476
	-65.23196	-32.14718
	-65.23213	-32.14708
	-65.23248	-32.14692
	-65.23277	-32.1466
	-65.23326	-32.14589
	-65.23382	-32.14525
	-65.23436	-32.14458
	-65.23465	-32.14405
	-65.23495	-32.1434
	-65.23497	-32.14284
	-65.23512	-32.14247
	-65.23537	-32.14218
	-65.23563	-32.14202
	-65.23572	-32.14184
	-65.23574	-32.14163
	-65.23586	-32.14153
	-65.23603	-32.14132
	-65.2361	-32.14105
	-65.23607	-32.14086
	-65.23601	-32.14069
	-65.23575	-32.14049
	-65.23559	-32.14032
	-65.23551	-32.14001
	-65.23553	-32.13964
	-65.23566	-32.13923
	-65.23629	-32.13822
	-65.23624	-32.1377
	-65.23632	-32.13735
	-65.23642	-32.13703
	-65.2364	-32.13682
	-65.23627	-32.13665
	-65.23655	-32.13565
	-65.23668	-32.13513
	-65.23695	-32.13471
	-65.23746	-32.13423
	-65.23797	-32.13388
	-65.23817	-32.13378
	-65.23828	-32.13369
	-65.23826	-32.13357
	-65.23814	-32.13348
	-65.23805	-32.13338
	-65.23807	-32.13329
	-65.2382	-32.13324
	-65.23816	-32.13305
	-65.23821	-32.13269
	-65.23835	-32.13231
	-65.23831	-32.13209
	-65.23813	-32.13179
	-65.23783	-32.13147
	-65.23752	-32.13129
	-65.23731	-32.13125
	-65.23686	-32.1313
	-65.23617	-32.13141
	-65.23604	-32.13152
	-65.23588	-32.13176
	-65.23572	-32.13185
	-65.23549	-32.13181
	-65.23539	-32.13168
	-65.23522	-32.13168
	-65.23509	-32.13176
	-65.23491	-32.13164
	-65.235	-32.1313
	-65.23471	-32.1307
	-65.23438	-32.13037
	-65.23427	-32.13019
	-65.23441	-32.1299
	-65.23457	-32.12951
	-65.2352	-32.12876
	-65.23577	-32.12814
	-65.23612	-32.12781
	-65.23647	-32.12758
	-65.23679	-32.12748
	-65.237	-32.12759
	-65.23707	-32.12779
	-65.23704	-32.12812
	-65.23696	-32.1283
	-65.23695	-32.12847
	-65.23732	-32.12885
	-65.23749	-32.12895
	-65.23783	-32.12895
	-65.23835	-32.1288
	-65.23856	-32.12887
	-65.23873	-32.12882
	-65.23894	-32.12855
	-65.23896	-32.12824
	-65.2389	-32.12808
	-65.23895	-32.1279
	-65.23912	-32.12777
	-65.23913	-32.12758
	-65.239	-32.12709
	-65.23908	-32.12688
	-65.239	-32.12659
	-65.23885	-32.12638
	-65.23887	-32.12611
	-65.23881	-32.12583
	-65.23861	-32.12563
	-65.23842	-32.12537
	-65.23826	-32.12506
	-65.2383	-32.12482
	-65.23847	-32.12455
	-65.23864	-32.12437
	-65.23891	-32.12429
	-65.23926	-32.12423
	-65.23998	-32.12442
	-65.24031	-32.12453
	-65.2408	-32.12455
	-65.24146	-32.12452
	-65.24176	-32.12449
	-65.2419	-32.12434
	-65.24194	-32.12406
	-65.24195	-32.12364
	-65.24179	-32.12326
	-65.24159	-32.12301
	-65.24148	-32.1228
	-65.24155	-32.12252
	-65.24168	-32.12213
	-65.24203	-32.12165
	-65.24229	-32.12117
	-65.24242	-32.12097
	-65.24237	-32.12072
	-65.24236	-32.12045
	-65.24248	-32.12007
	-65.24255	-32.11969
	-65.24255	-32.11937
	-65.24249	-32.11909
	-65.24236	-32.11879
	-65.24225	-32.1184
	-65.24198	-32.11806
	-65.24164	-32.11782
	-65.2413	-32.11778
	-65.24112	-32.11785
	-65.24077	-32.11788
	-65.24064	-32.11801
	-65.24048	-32.11807
	-65.2398	-32.11809
	-65.23889	-32.11828
	-65.23855	-32.1183
	-65.2383	-32.11826
	-65.23804	-32.1182
	-65.23795	-32.1181
	-65.23777	-32.11807
	-65.23766	-32.11817
	-65.23746	-32.11828
	-65.23718	-32.11831
	-65.23667	-32.1183
	-65.23636	-32.11854
	-65.23575	-32.11844
	-65.23532	-32.11826
	-65.23511	-32.118
	-65.23502	-32.11765
	-65.23502	-32.11743
	-65.23508	-32.11719
	-65.23502	-32.11708
	-65.23497	-32.11693
	-65.2348	-32.11669
	-65.23482	-32.11651
	-65.23489	-32.11631
	-65.23465	-32.11605
	-65.23465	-32.11591
	-65.23475	-32.11584
	-65.23493	-32.11586
	-65.23505	-32.1159
	-65.23527	-32.11579
	-65.23543	-32.11575
	-65.23553	-32.1158
	-65.23567	-32.11591
	-65.23575	-32.11591
	-65.23601	-32.11571
	-65.2362	-32.11574
	-65.23643	-32.11573
	-65.23679	-32.11558
	-65.23679	-32.1155
	-65.23683	-32.1154
	-65.2371	-32.11529
	-65.23736	-32.11508
	-65.23759	-32.11495
	-65.23771	-32.11479
	-65.23791	-32.1146
	-65.23824	-32.11444
	-65.23833	-32.11423
	-65.23834	-32.11383
	-65.23843	-32.11376
	-65.23856	-32.11375
	-65.23872	-32.11382
	-65.23896	-32.11384
	-65.23919	-32.11379
	-65.23934	-32.11361
	-65.23936	-32.11323
	-65.23946	-32.11296
	-65.23964	-32.11273
	-65.23983	-32.11258
	-65.2398	-32.11235
	-65.23985	-32.1122
	-65.2397	-32.11197
	-65.23962	-32.11179
	-65.2394	-32.11168
	-65.23919	-32.11168
	-65.23899	-32.11175
	-65.23881	-32.11172
	-65.23816	-32.11149
	-65.23795	-32.11153
	-65.23741	-32.1116
	-65.23702	-32.11155
	-65.23655	-32.11144
	-65.23558	-32.11106
	-65.23528	-32.11104
	-65.23512	-32.11096
	-65.23512	-32.11086
	-65.23527	-32.11066
	-65.2356	-32.11033
	-65.23598	-32.11003
	-65.23629	-32.11
	-65.23667	-32.10983
	-65.23697	-32.10957
	-65.23717	-32.10942
	-65.23732	-32.1094
	-65.23755	-32.10931
	-65.23788	-32.10905
	-65.23798	-32.1088
	-65.23805	-32.10841
	-65.23794	-32.1081
	-65.23771	-32.10787
	-65.23741	-32.10777
	-65.2372	-32.10766
	-65.23718	-32.10757
	-65.23727	-32.10747
	-65.23752	-32.1074
	-65.23771	-32.10724
	-65.23779	-32.10702
	-65.23795	-32.10682
	-65.23788	-32.10658
	-65.23794	-32.10621
	-65.23826	-32.10557
	-65.23847	-32.10536
	-65.23877	-32.10496
	-65.2389	-32.10468
	-65.23925	-32.10448
	-65.23961	-32.10436
	-65.23984	-32.10432
	-65.24007	-32.10418
	-65.24047	-32.10378
	-65.24078	-32.10307
	-65.24088	-32.10276
	-65.24073	-32.10227
	-65.24078	-32.10195
	-65.24078	-32.10167
	-65.24089	-32.10131
	-65.24108	-32.10093
	-65.24104	-32.10072
	-65.24109	-32.10025
	-65.2411	-32.09981
	-65.24097	-32.0994
	-65.24103	-32.0991
	-65.24113	-32.09893
	-65.24137	-32.09891
	-65.24159	-32.09893
	-65.24177	-32.09902
	-65.24197	-32.09901
	-65.24229	-32.09914
	-65.24257	-32.09929
	-65.24281	-32.09931
	-65.24306	-32.09919
	-65.24336	-32.0989
	-65.24353	-32.09862
	-65.24348	-32.09829
	-65.24337	-32.09799
	-65.24309	-32.09764
	-65.24282	-32.09737
	-65.24267	-32.09711
	-65.24262	-32.09677
	-65.24254	-32.09659
	-65.24236	-32.09641
	-65.24236	-32.09625
	-65.24282	-32.09558
	-65.24317	-32.09535
	-65.24352	-32.09519
	-65.24387	-32.09501
	-65.24399	-32.09475
	-65.24402	-32.09443
	-65.24409	-32.09404
	-65.2441	-32.09378
	-65.24384	-32.09291
	-65.24392	-32.09267
	-65.24405	-32.09267
	-65.24418	-32.09256
	-65.24438	-32.09229
	-65.24443	-32.09186
	-65.24469	-32.09112
	-65.2448	-32.09058
	-65.24511	-32.08974
	-65.24539	-32.08926
	-65.24579	-32.08894
	-65.24619	-32.08881
	-65.2468	-32.08876
	-65.24738	-32.08883
	-65.24774	-32.08899
	-65.24792	-32.08928
	-65.24799	-32.08954
	-65.24802	-32.08981
	-65.2484	-32.08982
	-65.24934	-32.08945
	-65.25035	-32.08909
	-65.25096	-32.08913
	-65.25148	-32.08928
	-65.25256	-32.08972
	-65.25344	-32.08999
	-65.25383	-32.09007
	-65.25418	-32.08992
	-65.25458	-32.08951
	-65.25496	-32.08863
	-65.25522	-32.08709
	-65.25552	-32.08665
	-65.25607	-32.08614
	-65.25698	-32.08574
	-65.25775	-32.08515
	-65.2584	-32.0847
	-65.25898	-32.08402
	-65.2594	-32.0831
	-65.25984	-32.08264
	-65.26054	-32.08223
	-65.26095	-32.08203
	-65.26143	-32.08145
	-65.26177	-32.08101
	-65.26194	-32.07996
	-65.26237	-32.07912
	-65.26274	-32.07862
	-65.26371	-32.07778
	-65.26424	-32.07754
	-65.26494	-32.07737
	-65.26537	-32.07734
	-65.26561	-32.07746
	-65.26592	-32.07767
	-65.26636	-32.0776
	-65.26692	-32.07721
	-65.26774	-32.07629
	-65.26824	-32.07564
	-65.26892	-32.075
	-65.26948	-32.07454
	-65.27157	-32.07382
	-65.27221	-32.0734
	-65.27287	-32.07287
	-65.2734	-32.07242
	-65.27411	-32.07219
	-65.27503	-32.07247
	-65.27574	-32.07272
	-65.27662	-32.07234
	-65.27802	-32.07103
	-65.27961	-32.07
	-65.27986	-32.06965
	-65.28	-32.06927
	-65.2808	-32.06899
	-65.28156	-32.06894
	-65.28207	-32.06868
	-65.28269	-32.06757
	-65.28426	-32.06608
	-65.28482	-32.06557
	-65.28559	-32.06532
	-65.2863	-32.06487
	-65.28677	-32.0643
	-65.28737	-32.06401
	-65.28819	-32.06408
	-65.28911	-32.06407
	-65.28986	-32.06376
	-65.29067	-32.06356
	-65.29132	-32.06357
	-65.29203	-32.0637
	-65.29273	-32.06367
	-65.2931	-32.06348
	-65.29355	-32.06223
	-65.29368	-32.06163
	-65.29321	-32.06057
	-65.29319	-32.05999
	-65.29472	-32.05776
	-65.3232	-32.03678
	-65.34973	-32.02498
	-65.34972	-32.02421
	-65.35046	-32.02262
	-65.3509	-32.02227
	-65.35123	-32.02205
	-65.35301	-32.02111
	-65.35351	-32.02091
	-65.3541	-32.02076
	-65.35587	-32.0199
	-65.35613	-32.0198
	-65.35675	-32.0196
	-65.35969	-32.01894
	-65.36015	-32.01885
	-65.36149	-32.01974
	-65.42443	-31.99112
	-65.4729	-31.96888
	-65.61652	-31.9037
	-65.62767	-31.89875
	-65.76973	-31.88891
	-65.77004	-31.74393
	-65.77109	-31.33545
	-65.77249	-31.26682
	-65.7705	-31.02801
	-65.64131	-30.75333
	-65.59009	-30.63987
	-65.49312	-30.37213
	-65.41323	-30.11868
	-65.14502	-30.06172
	-64.9355	-29.89155
	-64.9896	-29.59965
	-64.82493	-29.57346
	-64.53729	-29.52591
	-64.4759	-29.51918
	-64.33298	-29.50215
	-63.98224	-29.5445
	-63.9801	-29.54477
	-63.97847	-29.54742
	-63.96534	-29.5764
	-63.96271	-29.61489
	-63.89473	-29.61489
	-63.86311	-29.56723
	-63.8452	-29.56678
	-63.80568	-29.57182
	-63.78302	-29.57823
	-63.78196	-29.59702
	-63.80352	-29.60427
	-63.77376	-29.64041
	-63.76459	-29.64427
	-63.72372	-29.65914
	-63.71168	-29.66057
	-63.7115	-29.66121
	-63.71134	-29.66159
	-63.70991	-29.66216
	-63.70741	-29.66228
	-63.70582	-29.66252
	-63.70492	-29.66248
	-63.70347	-29.66252
	-63.7025	-29.66231
	-63.70128	-29.66143
	-63.69985	-29.66153
	-63.69862	-29.66134
	-63.69743	-29.66137
	-63.69663	-29.66149
	-63.69541	-29.66206
	-63.69366	-29.66223
	-63.69221	-29.6618
	-63.69118	-29.66145
	-63.69002	-29.66092
	-63.68962	-29.66131
	-63.68883	-29.66216
	-63.68798	-29.66224
	-63.68637	-29.66276
	-63.68514	-29.66384
	-63.6845	-29.66425
	-63.68321	-29.66417
	-63.68162	-29.66349
	-63.6808	-29.66323
	-63.67859	-29.66369
	-63.6776	-29.6648
	-63.67657	-29.66541
	-63.6758	-29.6648
	-63.67451	-29.66482
	-63.6724	-29.66414
	-63.67138	-29.66345
	-63.67073	-29.6626
	-63.67062	-29.66196
	-63.67068	-29.66133
	-63.6701	-29.66051
	-63.669	-29.66041
	-63.66698	-29.66066
	-63.6661	-29.6604
	-63.66543	-29.66029
	-63.66443	-29.6604
	-63.6635	-29.66041
	-63.66304	-29.66082
	-63.66228	-29.6611
	-63.66094	-29.66096
	-63.6604	-29.66107
	-63.65975	-29.66169
	-63.65953	-29.6623
	-63.65874	-29.66252
	-63.65835	-29.66248
	-63.6579	-29.66216
	-63.65728	-29.66159
	-63.65652	-29.66163
	-63.65645	-29.66195
	-63.65517	-29.66267
	-63.65426	-29.66271
	-63.65382	-29.66229
	-63.65331	-29.66186
	-63.65245	-29.66226
	-63.65159	-29.66251
	-63.64993	-29.66267
	-63.64925	-29.66216
	-63.64874	-29.66166
	-63.64752	-29.66118
	-63.64679	-29.66101
	-63.64623	-29.66044
	-63.64582	-29.6595
	-63.64521	-29.65914
	-63.64436	-29.65951
	-63.64352	-29.66113
	-63.6426	-29.6619
	-63.64136	-29.66276
	-63.64031	-29.66273
	-63.63986	-29.66216
	-63.63966	-29.66152
	-63.64014	-29.66114
	-63.64163	-29.66094
	-63.64177	-29.66056
	-63.64131	-29.65985
	-63.64113	-29.65946
	-63.64023	-29.6588
	-63.63972	-29.65797
	-63.63862	-29.65723
	-63.63822	-29.65698
	-63.6382	-29.65675
	-63.63857	-29.65634
	-63.63855	-29.65591
	-63.63773	-29.65591
	-63.63734	-29.65594
	-63.63685	-29.65615
	-63.63604	-29.65669
	-63.63506	-29.65686
	-63.6343	-29.65663
	-63.63403	-29.65658
	-63.63356	-29.6567
	-63.63308	-29.65689
	-63.63237	-29.65743
	-63.63229	-29.65794
	-63.63252	-29.65902
	-63.6323	-29.6598
	-63.63152	-29.66039
	-63.63131	-29.66021
	-63.6313	-29.65988
	-63.6309	-29.65961
	-63.63022	-29.65925
	-63.62942	-29.65874
	-63.62893	-29.65806
	-63.62869	-29.65736
	-63.62824	-29.65591
	-63.62808	-29.65529
	-63.6279	-29.65505
	-63.62769	-29.65502
	-63.62703	-29.65548
	-63.62656	-29.6557
	-63.62554	-29.65591
	-63.62418	-29.65577
	-63.62368	-29.65579
	-63.62253	-29.65633
	-63.62137	-29.6565
	-63.61924	-29.65677
	-63.61836	-29.65668
	-63.61662	-29.65636
	-63.61503	-29.65617
	-63.61413	-29.65618
	-63.61271	-29.65652
	-63.61109	-29.65693
	-63.61059	-29.65748
	-63.60982	-29.65791
	-63.60949	-29.65835
	-63.60931	-29.65904
	-63.60942	-29.65962
	-63.60954	-29.66007
	-63.60947	-29.66054
	-63.60906	-29.66091
	-63.60889	-29.66092
	-63.6086	-29.66081
	-63.60822	-29.6607
	-63.60772	-29.66066
	-63.60734	-29.66074
	-63.60698	-29.66102
	-63.60638	-29.66167
	-63.6059	-29.66187
	-63.60553	-29.66173
	-63.60521	-29.6615
	-63.60468	-29.66142
	-63.60384	-29.6608
	-63.60315	-29.66077
	-63.60209	-29.66055
	-63.6014	-29.65946
	-63.59958	-29.65925
	-63.59876	-29.65906
	-63.59838	-29.65928
	-63.59803	-29.6592
	-63.59785	-29.65926
	-63.59756	-29.65911
	-63.59602	-29.65861
	-63.59516	-29.65882
	-63.59407	-29.65894
	-63.59311	-29.65902
	-63.59284	-29.65876
	-63.59293	-29.65839
	-63.59236	-29.65809
	-63.59188	-29.65828
	-63.59164	-29.65886
	-63.59129	-29.65909
	-63.59097	-29.65917
	-63.59064	-29.65886
	-63.58988	-29.65838
	-63.58892	-29.65807
	-63.58807	-29.65783
	-63.58742	-29.65802
	-63.58685	-29.65794
	-63.58606	-29.65764
	-63.5857	-29.65776
	-63.58492	-29.65781
	-63.58402	-29.65803
	-63.58229	-29.65808
	-63.58139	-29.65842
	-63.58118	-29.6589
	-63.57973	-29.65951
	-63.57914	-29.65973
	-63.57812	-29.66065
	-63.57679	-29.6613
	-63.57494	-29.66113
	-63.57386	-29.66139
	-63.57226	-29.66215
	-63.57089	-29.66316
	-63.56986	-29.66402
	-63.56896	-29.66425
	-63.56705	-29.66393
	-63.56461	-29.66292
	-63.56378	-29.66264
	-63.56282	-29.6626
	-63.56219	-29.66275
	-63.56175	-29.66325
	-63.56126	-29.66367
	-63.55994	-29.66387
	-63.55799	-29.66342
	-63.55697	-29.66337
	-63.55616	-29.66347
	-63.55526	-29.66402
	-63.55444	-29.66408
	-63.55284	-29.66337
	-63.55205	-29.66295
	-63.55104	-29.66314
	-63.5506	-29.66301
	-63.55018	-29.66253
	-63.5494	-29.66227
	-63.54687	-29.6619
	-63.54609	-29.66185
	-63.54398	-29.66064
	-63.54272	-29.66032
	-63.54065	-29.66008
	-63.53769	-29.66115
	-63.53746	-29.66122
	-63.53342	-29.66093
	-63.53272	-29.6606
	-63.53242	-29.66001
	-63.53196	-29.65856
	-63.5314	-29.65797
	-63.52973	-29.65762
	-63.52883	-29.65765
	-63.52676	-29.65846
	-63.52569	-29.65901
	-63.52513	-29.65952
	-63.52505	-29.66012
	-63.52517	-29.6603
	-63.52571	-29.66078
	-63.52575	-29.66128
	-63.52559	-29.66132
	-63.52384	-29.66129
	-63.52187	-29.66071
	-63.52103	-29.66056
	-63.52037	-29.66091
	-63.52002	-29.6615
	-63.51952	-29.66229
	-63.51764	-29.66314
	-63.51643	-29.66332
	-63.51582	-29.66323
	-63.51452	-29.66351
	-63.51331	-29.66381
	-63.51278	-29.66359
	-63.51094	-29.66351
	-63.51026	-29.66321
	-63.50991	-29.66232
	-63.50954	-29.66201
	-63.50873	-29.66214
	-63.50769	-29.66273
	-63.50728	-29.66268
	-63.50713	-29.66217
	-63.50651	-29.66181
	-63.50598	-29.66207
	-63.50571	-29.66246
	-63.50528	-29.66286
	-63.5047	-29.66285
	-63.50401	-29.66271
	-63.50359	-29.66285
	-63.50325	-29.66311
	-63.50131	-29.66339
	-63.49987	-29.66401
	-63.49858	-29.66431
	-63.47821	-29.66442
	-63.46537	-29.66447
	-63.46773	-29.67392
	-63.47865	-29.71819
	-63.48031	-29.72556
	-63.4597	-29.72557
	-63.45966	-29.7569
	-63.34146	-29.7666
	-63.25274	-29.77545
	-62.80654	-29.81597
	-62.8047	-29.81937
	-62.80477	-29.82132
	-62.80654	-29.82279
	-62.80864	-29.82438
	-62.8079	-29.82662
	-62.80613	-29.83081
	-62.80525	-29.8344
	-62.80627	-29.83587
	-62.80715	-29.83735
	-62.80667	-29.84035
	-62.80599	-29.84112
	-62.8062	-29.84295
	-62.80871	-29.84418
	-62.8119	-29.84619
	-62.81313	-29.84896
	-62.81313	-29.85132
	-62.81496	-29.85355
	-62.81557	-29.85444
	-62.81523	-29.85538
	-62.81381	-29.85833
	-62.81265	-29.86015
	-62.81313	-29.86186
	-62.81157	-29.86363
	-62.81089	-29.86516
	-62.8098	-29.86887
	-62.81041	-29.87052
	-62.8117	-29.87153
	-62.8136	-29.87318
	-62.8153	-29.87559
	-62.81768	-29.87883
	-62.81911	-29.88136
	-62.82013	-29.88384
	-62.81911	-29.8862
	-62.81836	-29.88843
	-62.82074	-29.89079
	-62.82135	-29.89373
	-62.82108	-29.89586
	-62.82026	-29.89968
	-62.81883	-29.90451
	-62.81517	-29.90487
	-62.81258	-29.90434
	-62.80993	-29.9044
	-62.80892	-29.90569
	-62.80606	-29.90652
	-62.80389	-29.90817
	-62.79886	-29.91117
	-62.8009	-29.91576
	-62.80001	-29.91994
	-62.79838	-29.92407
	-62.79621	-29.92542
	-62.79329	-29.92707
	-62.79	-29.93035
	-62.79	-29.93371
	-62.78952	-29.93559
	-62.78687	-29.93977
	-62.78572	-29.94278
	-62.78545	-29.94578
	-62.78721	-29.94819
	-62.78789	-29.94967
	-62.7902	-29.9519
	-62.79211	-29.95396
	-62.79285	-29.9585
	-62.79163	-29.9595
	-62.79075	-29.96073
	-62.78674	-29.96397
	-62.78348	-29.96426
	-62.7813	-29.96332
	-62.77702	-29.96468
	-62.77179	-29.96556
	-62.76969	-29.96668
	-62.76568	-29.96609
	-62.75888	-29.96574
	-62.75447	-29.96609
	-62.75134	-29.96733
	-62.74937	-29.96986
	-62.74713	-29.9715
	-62.74162	-29.97321
	-62.73732	-29.97563
	-62.7385	-29.97987
	-62.73646	-29.98062
	-62.73624	-29.98121
	-62.73669	-29.98143
	-62.73666	-29.98161
	-62.73695	-29.98196
	-62.73636	-29.98284
	-62.73535	-29.98282
	-62.73476	-29.98196
	-62.73424	-29.98188
	-62.73394	-29.98166
	-62.733	-29.98275
	-62.73179	-29.98334
	-62.73029	-29.98473
	-62.72995	-29.98563
	-62.72987	-29.98712
	-62.72933	-29.98778
	-62.72722	-29.98905
	-62.7263	-29.99032
	-62.72473	-29.99073
	-62.72364	-29.9906
	-62.72282	-29.9904
	-62.72258	-29.98972
	-62.72203	-29.98965
	-62.72069	-29.98997
	-62.72007	-29.99036
	-62.71975	-29.99099
	-62.71922	-29.99146
	-62.71562	-29.99043
	-62.71533	-29.98976
	-62.71458	-29.98927
	-62.71337	-29.98901
	-62.71185	-29.98871
	-62.71034	-29.98871
	-62.70912	-29.98907
	-62.70721	-29.98944
	-62.70567	-29.98946
	-62.70289	-29.98868
	-62.70128	-29.98907
	-62.69813	-29.99053
	-62.69718	-29.99152
	-62.69674	-29.99247
	-62.69594	-29.99286
	-62.69396	-29.99255
	-62.69274	-29.99357
	-62.69204	-29.9944
	-62.69214	-29.99516
	-62.69177	-29.99548
	-62.69063	-29.99563
	-62.68936	-29.99614
	-62.68862	-29.99595
	-62.68767	-29.99651
	-62.68683	-29.9963
	-62.68579	-29.99599
	-62.6848	-29.99559
	-62.68422	-29.99548
	-62.68331	-29.99587
	-62.68229	-29.99571
	-62.68174	-29.99587
	-62.68135	-29.9967
	-62.68065	-29.99716
	-62.67951	-29.99718
	-62.67844	-29.99771
	-62.67698	-29.99776
	-62.67601	-29.99825
	-62.67526	-29.99812
	-62.67497	-29.99739
	-62.67452	-29.99698
	-62.6742	-29.99688
	-62.67293	-29.99778
	-62.67204	-29.99804
	-62.67015	-29.99815
	-62.66987	-29.99842
	-62.66985	-29.99897
	-62.66943	-29.99897
	-62.66887	-29.99856
	-62.66832	-29.99825
	-62.66824	-29.99751
	-62.66808	-29.99719
	-62.66762	-29.99691
	-62.66648	-29.99729
	-62.66587	-29.9978
	-62.66547	-29.99799
	-62.66468	-29.99782
	-62.66378	-29.99799
	-62.6631	-29.99775
	-62.66274	-29.9977
	-62.66234	-29.99774
	-62.66208	-29.99827
	-62.66236	-29.99935
	-62.66212	-30.00024
	-62.66142	-30.001
	-62.66095	-30.00138
	-62.66083	-30.0017
	-62.66133	-30.00385
	-62.66099	-30.00461
	-62.66	-30.00548
	-62.65931	-30.00634
	-62.65944	-30.00714
	-62.65908	-30.00835
	-62.65891	-30.00877
	-62.65905	-30.00899
	-62.6591	-30.00933
	-62.65864	-30.00987
	-62.65902	-30.01093
	-62.65894	-30.01155
	-62.65891	-30.01207
	-62.65914	-30.01358
	-62.65966	-30.01495
	-62.66006	-30.01534
	-62.66058	-30.01563
	-62.66068	-30.01616
	-62.66053	-30.01683
	-62.66071	-30.0182
	-62.66089	-30.0185
	-62.66322	-30.01945
	-62.66381	-30.0203
	-62.66432	-30.0207
	-62.66466	-30.02124
	-62.6651	-30.02167
	-62.66572	-30.02174
	-62.66617	-30.02196
	-62.66638	-30.02232
	-62.66582	-30.02285
	-62.66556	-30.0233
	-62.66578	-30.02347
	-62.66624	-30.02357
	-62.66689	-30.0236
	-62.66722	-30.02381
	-62.66731	-30.02417
	-62.66721	-30.0258
	-62.66828	-30.02626
	-62.66905	-30.02678
	-62.67032	-30.02732
	-62.67107	-30.0279
	-62.67148	-30.02838
	-62.67152	-30.02906
	-62.67168	-30.02938
	-62.67253	-30.02974
	-62.67299	-30.03024
	-62.67372	-30.03194
	-62.6748	-30.03272
	-62.67526	-30.03411
	-62.67586	-30.0347
	-62.67596	-30.03519
	-62.67571	-30.03559
	-62.67417	-30.03588
	-62.67355	-30.0362
	-62.67322	-30.03647
	-62.67299	-30.03815
	-62.67253	-30.03887
	-62.67178	-30.03927
	-62.6716	-30.03989
	-62.67068	-30.04089
	-62.67031	-30.0411
	-62.67011	-30.04155
	-62.66938	-30.04188
	-62.66911	-30.04204
	-62.66849	-30.04263
	-62.66774	-30.04264
	-62.6672	-30.04372
	-62.66603	-30.04466
	-62.66541	-30.04519
	-62.66536	-30.04549
	-62.66507	-30.04572
	-62.66519	-30.04597
	-62.66558	-30.04642
	-62.66576	-30.04692
	-62.66569	-30.04748
	-62.6655	-30.04829
	-62.665	-30.04874
	-62.66468	-30.04875
	-62.66385	-30.04859
	-62.66329	-30.04865
	-62.66288	-30.04889
	-62.6627	-30.04927
	-62.66257	-30.04986
	-62.66233	-30.05014
	-62.66216	-30.05024
	-62.66162	-30.0502
	-62.66107	-30.05054
	-62.66057	-30.05106
	-62.66027	-30.05204
	-62.66005	-30.05239
	-62.65971	-30.05288
	-62.65825	-30.0543
	-62.65697	-30.05521
	-62.65582	-30.05554
	-62.65296	-30.05473
	-62.65255	-30.05454
	-62.65187	-30.05191
	-62.65171	-30.04881
	-62.6512	-30.04794
	-62.65066	-30.04742
	-62.65001	-30.04713
	-62.64889	-30.04672
	-62.64782	-30.0466
	-62.64702	-30.04641
	-62.64569	-30.04668
	-62.64506	-30.04716
	-62.64438	-30.04812
	-62.64366	-30.04929
	-62.64215	-30.0504
	-62.64155	-30.05102
	-62.64059	-30.05099
	-62.6399	-30.05025
	-62.63887	-30.04978
	-62.63794	-30.04912
	-62.6372	-30.04782
	-62.63674	-30.04639
	-62.6355	-30.0456
	-62.63407	-30.04502
	-62.63316	-30.0441
	-62.63206	-30.04372
	-62.63183	-30.04369
	-62.63127	-30.04391
	-62.63081	-30.04431
	-62.62991	-30.04527
	-62.62667	-30.04607
	-62.62528	-30.04665
	-62.62461	-30.04695
	-62.62414	-30.04742
	-62.62398	-30.04812
	-62.62409	-30.04873
	-62.62377	-30.04953
	-62.62291	-30.05011
	-62.62244	-30.05016
	-62.62184	-30.05002
	-62.62116	-30.05008
	-62.62079	-30.05051
	-62.62065	-30.05153
	-62.6201	-30.05242
	-62.61952	-30.05277
	-62.61887	-30.05289
	-62.61835	-30.05266
	-62.61768	-30.05221
	-62.61557	-30.05174
	-62.61571	-30.0523
	-62.61577	-30.05291
	-62.61565	-30.05331
	-62.61509	-30.05362
	-62.61474	-30.05359
	-62.61384	-30.0531
	-62.61353	-30.05279
	-62.6132	-30.0528
	-62.61275	-30.05351
	-62.61214	-30.05361
	-62.6116	-30.05377
	-62.61131	-30.05432
	-62.61087	-30.05454
	-62.6104	-30.05511
	-62.61004	-30.05527
	-62.60973	-30.05509
	-62.60931	-30.05529
	-62.60906	-30.05554
	-62.60903	-30.05574
	-62.60973	-30.05656
	-62.60952	-30.05716
	-62.60957	-30.05746
	-62.60999	-30.05806
	-62.60993	-30.05842
	-62.61004	-30.05863
	-62.60977	-30.05911
	-62.60991	-30.05947
	-62.60999	-30.05973
	-62.60986	-30.06004
	-62.60952	-30.06043
	-62.60933	-30.06078
	-62.60926	-30.06103
	-62.60906	-30.06113
	-62.60901	-30.06079
	-62.60864	-30.06073
	-62.60818	-30.06058
	-62.60767	-30.06057
	-62.60738	-30.06036
	-62.60732	-30.06005
	-62.60703	-30.06002
	-62.60683	-30.06013
	-62.60671	-30.06034
	-62.60637	-30.06044
	-62.60591	-30.06028
	-62.60549	-30.05993
	-62.60527	-30.05978
	-62.60475	-30.05966
	-62.60454	-30.05959
	-62.6044	-30.05965
	-62.60427	-30.05996
	-62.60406	-30.05993
	-62.6039	-30.05975
	-62.60359	-30.05982
	-62.60336	-30.06001
	-62.603	-30.05998
	-62.60282	-30.05977
	-62.60252	-30.05972
	-62.6023	-30.05978
	-62.60218	-30.05993
	-62.60157	-30.06024
	-62.60121	-30.06035
	-62.60062	-30.06038
	-62.59987	-30.06086
	-62.59949	-30.06083
	-62.5986	-30.061
	-62.59827	-30.06095
	-62.59781	-30.06117
	-62.59695	-30.06076
	-62.59648	-30.06086
	-62.5959	-30.06064
	-62.59534	-30.06075
	-62.59466	-30.0607
	-62.59392	-30.06093
	-62.59316	-30.06138
	-62.5921	-30.06173
	-62.59113	-30.06245
	-62.59028	-30.06216
	-62.58998	-30.06238
	-62.5899	-30.06264
	-62.58989	-30.06346
	-62.58974	-30.06382
	-62.58937	-30.06396
	-62.58828	-30.06359
	-62.58757	-30.06278
	-62.58545	-30.06243
	-62.58437	-30.0629
	-62.58434	-30.06339
	-62.58437	-30.06376
	-62.58422	-30.06392
	-62.58377	-30.0639
	-62.58335	-30.06331
	-62.58297	-30.06296
	-62.58086	-30.06254
	-62.57983	-30.06194
	-62.57966	-30.06099
	-62.57749	-30.05937
	-62.57645	-30.05842
	-62.57568	-30.05817
	-62.57419	-30.05808
	-62.57295	-30.05825
	-62.5714	-30.05923
	-62.55657	-30.06323
	-62.55901	-30.06934
	-62.5605	-30.07152
	-62.56221	-30.07425
	-62.56261	-30.07697
	-62.56072	-30.08059
	-62.56204	-30.08327
	-62.56298	-30.08631
	-62.56488	-30.08859
	-62.56411	-30.08946
	-62.56334	-30.08995
	-62.56427	-30.09143
	-62.56468	-30.09332
	-62.56407	-30.0943
	-62.56322	-30.09682
	-62.56168	-30.09819
	-62.56083	-30.10053
	-62.56042	-30.10211
	-62.56144	-30.10295
	-62.56249	-30.10362
	-62.56342	-30.10491
	-62.56379	-30.10586
	-62.56375	-30.10849
	-62.56383	-30.10996
	-62.56476	-30.11535
	-62.56642	-30.11591
	-62.56698	-30.11773
	-62.56731	-30.12173
	-62.56889	-30.12414
	-62.57014	-30.12589
	-62.57051	-30.12817
	-62.5703	-30.12929
	-62.57111	-30.13013
	-62.57186	-30.13032
	-62.57255	-30.13158
	-62.57309	-30.13186
	-62.57444	-30.13173
	-62.57513	-30.13225
	-62.5753	-30.13339
	-62.57481	-30.13436
	-62.57527	-30.1351
	-62.57604	-30.13614
	-62.5765	-30.13745
	-62.57742	-30.13834
	-62.57894	-30.13812
	-62.58022	-30.13936
	-62.58057	-30.14028
	-62.58062	-30.14099
	-62.582	-30.14127
	-62.58223	-30.14174
	-62.58392	-30.14384
	-62.58377	-30.14498
	-62.58443	-30.14577
	-62.58472	-30.14654
	-62.58397	-30.14738
	-62.58352	-30.14887
	-62.58363	-30.14929
	-62.58509	-30.14996
	-62.58592	-30.15038
	-62.58707	-30.1508
	-62.58953	-30.15199
	-62.59042	-30.15357
	-62.59274	-30.15508
	-62.59337	-30.15639
	-62.59334	-30.15736
	-62.59251	-30.1579
	-62.59231	-30.15927
	-62.59308	-30.16189
	-62.59477	-30.16338
	-62.59586	-30.16414
	-62.59589	-30.16469
	-62.59563	-30.16538
	-62.59583	-30.16622
	-62.59551	-30.16714
	-62.59477	-30.16761
	-62.5942	-30.1684
	-62.59265	-30.16956
	-62.59185	-30.1707
	-62.59156	-30.17162
	-62.59255	-30.17406
	-62.59174	-30.17658
	-62.59231	-30.17914
	-62.59259	-30.18103
	-62.59389	-30.18159
	-62.59534	-30.18173
	-62.59538	-30.18278
	-62.5949	-30.18386
	-62.59437	-30.18519
	-62.59559	-30.18561
	-62.59733	-30.18656
	-62.59749	-30.18852
	-62.59761	-30.18953
	-62.59858	-30.19006
	-62.59968	-30.19076
	-62.60057	-30.1916
	-62.60093	-30.19258
	-62.60057	-30.19321
	-62.59984	-30.19387
	-62.59927	-30.19496
	-62.59741	-30.19639
	-62.59692	-30.19835
	-62.59858	-30.2014
	-62.59858	-30.20462
	-62.59798	-30.20654
	-62.59721	-30.20773
	-62.59915	-30.21088
	-62.59935	-30.21224
	-62.59802	-30.21291
	-62.59704	-30.21546
	-62.59704	-30.21781
	-62.59518	-30.22204
	-62.59267	-30.22337
	-62.59166	-30.22428
	-62.5902	-30.22813
	-62.58947	-30.23012
	-62.59	-30.23163
	-62.5919	-30.23513
	-62.58996	-30.23691
	-62.5904	-30.24083
	-62.5921	-30.24303
	-62.59129	-30.24457
	-62.59105	-30.2467
	-62.59194	-30.24807
	-62.59358	-30.25547
	-62.58951	-30.26314
	-62.58711	-30.27036
	-62.58347	-30.26918
	-62.58146	-30.26907
	-62.57736	-30.27031
	-62.57364	-30.27241
	-62.57313	-30.27738
	-62.57396	-30.2787
	-62.5702	-30.28021
	-62.56829	-30.28022
	-62.56535	-30.28162
	-62.56222	-30.28213
	-62.55906	-30.28513
	-62.54667	-30.29716
	-62.54302	-30.30185
	-62.53274	-30.30891
	-62.52885	-30.31275
	-62.52262	-30.32051
	-62.52009	-30.34167
	-62.37017	-30.34348
	-62.19137	-30.34431
	-62.17137	-30.34518
	-62.15628	-30.41281
	-62.16319	-30.44083
	-62.1622	-30.45172
	-62.02279	-30.57983
	-61.98278	-30.61663
	-61.95249	-30.6435
	-61.91411	-30.68064
	-61.84394	-30.74325
	-61.84401	-30.74513
	-61.84307	-30.74617
	-61.84422	-30.75062
	-61.84465	-30.75236
	-61.84942	-30.76668
	-61.86775	-30.82313
	-61.90436	-30.93607
	-61.91763	-30.97682
	-61.94044	-31.04666
	-61.97004	-31.13731
	-61.98269	-31.17645
	-61.99063	-31.20093
	-62.00447	-31.24322
	-62.02531	-31.30595
	-62.03354	-31.33194
	-62.05429	-31.39528
	-62.07859	-31.46906
	-62.09086	-31.5052
	-62.09124	-31.50626
	-62.1136	-31.57526
	-62.12861	-31.621
	-62.14688	-31.61798
	-62.24153	-31.69979
	-62.21809	-31.74069
	-62.21811	-31.78829
	-62.21921	-31.79546
	-62.22616	-31.83747
	-62.22371	-31.88337
	-62.22291	-31.88517
	-62.18925	-31.92207
	-62.1887	-31.92297
	-62.17577	-31.96621
	-62.16807	-31.98548
	-62.15849	-32.00902
	-62.18087	-32.05712
	-62.18078	-32.06011
	-62.18087	-32.06378
	-62.18835	-32.08735
	-62.19656	-32.11148
	-62.19666	-32.11328
	-62.19625	-32.11497
	-62.19373	-32.12206
	-62.18125	-32.15511
	-62.17985	-32.15778
	-62.17818	-32.16012
	-62.14418	-32.19462
	-62.12762	-32.20927
	-62.1205	-32.21321
	-62.07878	-32.23754
	-62.06839	-32.24331
	-62.06708	-32.24359
	-62.04883	-32.2543
	-62.04102	-32.25909
	-62.03609	-32.26528
	-62.03486	-32.27014
	-62.02625	-32.30475
	-62.0116	-32.34749
	-62.01061	-32.34829
	-62.00862	-32.35053
	-62.00528	-32.35562
	-61.99545	-32.37374
	-61.98715	-32.38465
	-61.9863	-32.38636
	-61.98511	-32.39123
	-61.98437	-32.39306
	-61.9832	-32.39464
	-61.97721	-32.40083
	-61.9729	-32.40432
	-61.97213	-32.40533
	-61.966	-32.41522
	-61.96464	-32.41663
	-61.95892	-32.42053
	-61.95784	-32.42146
	-61.957	-32.42289
	-61.95586	-32.42555
	-61.95506	-32.42695
	-61.95016	-32.4323
	-61.94783	-32.43404
	-61.94417	-32.43881
	-61.92825	-32.46483
	-61.9218	-32.48206
	-61.9214	-32.48311
	-61.92079	-32.4845
	-61.91492	-32.49389
	-61.91413	-32.49563
	-61.91332	-32.49807
	-61.91297	-32.50021
	-61.91418	-32.50063
	-61.91498	-32.50083
	-61.91544	-32.50073
	-61.91606	-32.50083
	-61.91643	-32.50078
	-61.91693	-32.50144
	-61.91765	-32.5025
	-61.91767	-32.50335
	-61.91802	-32.5035
	-61.91823	-32.50356
	-61.91873	-32.50411
	-61.91942	-32.50416
	-61.91996	-32.50455
	-61.92067	-32.50479
	-61.92054	-32.50534
	-61.92067	-32.50608
	-61.92047	-32.50675
	-61.92008	-32.50713
	-61.92009	-32.50764
	-61.91968	-32.50872
	-61.91964	-32.50923
	-61.91909	-32.50958
	-61.91889	-32.51001
	-61.91865	-32.51033
	-61.9189	-32.51089
	-61.91884	-32.51129
	-61.91852	-32.51174
	-61.91857	-32.51241
	-61.91839	-32.51336
	-61.91823	-32.51368
	-61.91781	-32.51419
	-61.91767	-32.51446
	-61.91756	-32.5149
	-61.91742	-32.51519
	-61.91672	-32.51577
	-61.91639	-32.51579
	-61.91612	-32.51593
	-61.91606	-32.51606
	-61.91609	-32.51666
	-61.91615	-32.51685
	-61.91612	-32.51727
	-61.91597	-32.5176
	-61.91586	-32.51779
	-61.91568	-32.51797
	-61.91561	-32.51832
	-61.91516	-32.51855
	-61.91495	-32.51879
	-61.91494	-32.51891
	-61.91502	-32.5191
	-61.91505	-32.51931
	-61.91499	-32.51944
	-61.91462	-32.51954
	-61.91447	-32.51974
	-61.91474	-32.52052
	-61.91476	-32.52071
	-61.91468	-32.52101
	-61.91477	-32.52128
	-61.91511	-32.52161
	-61.91527	-32.52188
	-61.9153	-32.5221
	-61.91522	-32.52239
	-61.91447	-32.52313
	-61.91398	-32.52338
	-61.91366	-32.52343
	-61.91345	-32.52354
	-61.91343	-32.52432
	-61.91327	-32.52497
	-61.91291	-32.52557
	-61.91269	-32.52599
	-61.91242	-32.52614
	-61.91217	-32.52625
	-61.91204	-32.52653
	-61.91211	-32.52668
	-61.9124	-32.52693
	-61.9127	-32.52711
	-61.91297	-32.52749
	-61.91336	-32.52765
	-61.91423	-32.52788
	-61.91494	-32.52838
	-61.91512	-32.52872
	-61.91562	-32.52925
	-61.91608	-32.5296
	-61.91662	-32.53007
	-61.91721	-32.53044
	-61.91768	-32.53084
	-61.91808	-32.5309
	-61.9188	-32.53191
	-61.91979	-32.532
	-61.92015	-32.53249
	-61.92057	-32.53258
	-61.92091	-32.53253
	-61.92104	-32.53265
	-61.92136	-32.53287
	-61.92202	-32.53305
	-61.92256	-32.53331
	-61.92289	-32.53336
	-61.92344	-32.53384
	-61.92358	-32.5339
	-61.92429	-32.53404
	-61.92446	-32.53403
	-61.92571	-32.53439
	-61.92616	-32.53501
	-61.92676	-32.53523
	-61.92755	-32.53556
	-61.92799	-32.53563
	-61.92831	-32.53571
	-61.92881	-32.53594
	-61.92891	-32.53603
	-61.92913	-32.53612
	-61.92938	-32.5363
	-61.92962	-32.5366
	-61.92991	-32.53708
	-61.92993	-32.53735
	-61.93011	-32.5377
	-61.93029	-32.53787
	-61.93056	-32.53803
	-61.93077	-32.53818
	-61.93086	-32.53828
	-61.93091	-32.53838
	-61.93079	-32.53886
	-61.93066	-32.5392
	-61.93087	-32.53971
	-61.93056	-32.54079
	-61.93053	-32.54132
	-61.93009	-32.54192
	-61.93003	-32.5421
	-61.93025	-32.54239
	-61.93043	-32.54303
	-61.93061	-32.54332
	-61.93066	-32.5435
	-61.93056	-32.54388
	-61.9306	-32.54431
	-61.93055	-32.54453
	-61.93024	-32.54479
	-61.92962	-32.54542
	-61.92962	-32.54558
	-61.92977	-32.54596
	-61.92985	-32.54627
	-61.92975	-32.54648
	-61.92924	-32.54686
	-61.92897	-32.54739
	-61.92864	-32.54832
	-61.9283	-32.54864
	-61.92777	-32.54891
	-61.92752	-32.54915
	-61.92729	-32.54929
	-61.92688	-32.54937
	-61.92622	-32.54928
	-61.92575	-32.54914
	-61.92539	-32.54921
	-61.92521	-32.54942
	-61.92518	-32.54955
	-61.92529	-32.54972
	-61.92525	-32.54993
	-61.92506	-32.55015
	-61.9249	-32.55038
	-61.92474	-32.55077
	-61.92453	-32.55116
	-61.92419	-32.55141
	-61.92357	-32.55159
	-61.92331	-32.55178
	-61.92308	-32.55189
	-61.92255	-32.55194
	-61.92232	-32.55191
	-61.92208	-32.55182
	-61.92186	-32.55176
	-61.92147	-32.55176
	-61.92104	-32.55193
	-61.92034	-32.55237
	-61.91977	-32.5528
	-61.91949	-32.55292
	-61.9187	-32.55291
	-61.91787	-32.55278
	-61.91761	-32.55283
	-61.91651	-32.55287
	-61.91584	-32.55284
	-61.91427	-32.55302
	-61.91405	-32.5531
	-61.91339	-32.55321
	-61.91262	-32.55342
	-61.91236	-32.55342
	-61.91166	-32.55317
	-61.91154	-32.55309
	-61.91138	-32.55281
	-61.91128	-32.55269
	-61.91117	-32.55264
	-61.91076	-32.55293
	-61.91014	-32.5528
	-61.90958	-32.55276
	-61.90919	-32.5527
	-61.90893	-32.55273
	-61.9086	-32.55269
	-61.90826	-32.55252
	-61.90803	-32.55231
	-61.90769	-32.55213
	-61.90712	-32.55217
	-61.90668	-32.55222
	-61.90643	-32.55228
	-61.90629	-32.55221
	-61.90597	-32.55231
	-61.90556	-32.55246
	-61.90529	-32.55247
	-61.90495	-32.55258
	-61.90512	-32.553
	-61.90535	-32.55341
	-61.90575	-32.55519
	-61.90537	-32.55683
	-61.90476	-32.55766
	-61.90441	-32.55876
	-61.90397	-32.5592
	-61.90394	-32.55997
	-61.90426	-32.56103
	-61.90397	-32.56231
	-61.90339	-32.56313
	-61.90331	-32.56367
	-61.90295	-32.56513
	-61.90292	-32.56693
	-61.90268	-32.56793
	-61.90255	-32.5688
	-61.90476	-32.56983
	-61.90497	-32.57013
	-61.90621	-32.57093
	-61.90761	-32.57143
	-61.9081	-32.57204
	-61.90866	-32.57289
	-61.90903	-32.57307
	-61.91006	-32.57293
	-61.91106	-32.57313
	-61.91181	-32.57335
	-61.91249	-32.57359
	-61.91315	-32.57374
	-61.91359	-32.57393
	-61.914	-32.57427
	-61.91446	-32.5743
	-61.915	-32.57445
	-61.91543	-32.57504
	-61.91563	-32.57561
	-61.91585	-32.57597
	-61.91737	-32.5772
	-61.91796	-32.57783
	-61.91862	-32.57811
	-61.91905	-32.57836
	-61.91994	-32.57915
	-61.92061	-32.57946
	-61.92124	-32.57978
	-61.92155	-32.58009
	-61.92165	-32.5807
	-61.92248	-32.58101
	-61.92341	-32.58152
	-61.92389	-32.58186
	-61.92457	-32.58215
	-61.92548	-32.58261
	-61.92599	-32.58296
	-61.92624	-32.58343
	-61.9264	-32.58392
	-61.92626	-32.58424
	-61.92594	-32.58455
	-61.92577	-32.58465
	-61.92483	-32.58485
	-61.9245	-32.58498
	-61.92437	-32.58522
	-61.92443	-32.58549
	-61.92499	-32.58627
	-61.925	-32.58653
	-61.92458	-32.58699
	-61.92411	-32.58825
	-61.92364	-32.58892
	-61.92316	-32.58937
	-61.9219	-32.58997
	-61.92114	-32.591
	-61.92119	-32.59134
	-61.92146	-32.59166
	-61.92224	-32.59194
	-61.92269	-32.59225
	-61.92259	-32.59287
	-61.92205	-32.59353
	-61.92051	-32.59424
	-61.91923	-32.59387
	-61.91805	-32.59401
	-61.9172	-32.59439
	-61.91643	-32.59437
	-61.91517	-32.59472
	-61.91171	-32.59581
	-61.9105	-32.5957
	-61.90791	-32.59557
	-61.90666	-32.59514
	-61.90477	-32.59471
	-61.90407	-32.5941
	-61.9035	-32.59353
	-61.90209	-32.5931
	-61.90069	-32.59238
	-61.8989	-32.59222
	-61.89779	-32.59177
	-61.89665	-32.59194
	-61.89588	-32.5918
	-61.8955	-32.59127
	-61.89503	-32.59073
	-61.89375	-32.59035
	-61.89342	-32.59045
	-61.89233	-32.59036
	-61.89168	-32.59063
	-61.89143	-32.59121
	-61.89104	-32.59164
	-61.89064	-32.59226
	-61.8908	-32.59264
	-61.89154	-32.59308
	-61.89178	-32.59397
	-61.89085	-32.59473
	-61.8905	-32.59554
	-61.89119	-32.59671
	-61.89115	-32.59761
	-61.8903	-32.59884
	-61.89024	-32.59919
	-61.89093	-32.60027
	-61.89116	-32.60114
	-61.89092	-32.60196
	-61.89087	-32.60248
	-61.89031	-32.60371
	-61.89066	-32.60503
	-61.89052	-32.60555
	-61.8903	-32.60582
	-61.88995	-32.60614
	-61.88986	-32.60648
	-61.88998	-32.6068
	-61.89011	-32.60728
	-61.89008	-32.6076
	-61.88998	-32.60814
	-61.8901	-32.60891
	-61.89027	-32.60915
	-61.89029	-32.60933
	-61.89007	-32.60957
	-61.88997	-32.60965
	-61.88971	-32.60999
	-61.88947	-32.61071
	-61.8895	-32.61089
	-61.88975	-32.61115
	-61.89006	-32.61139
	-61.8903	-32.61165
	-61.89045	-32.61188
	-61.89046	-32.61211
	-61.89044	-32.61237
	-61.89024	-32.61296
	-61.89007	-32.61361
	-61.89011	-32.61375
	-61.89029	-32.61422
	-61.89055	-32.61455
	-61.89062	-32.61459
	-61.89075	-32.61463
	-61.89113	-32.61461
	-61.8916	-32.61455
	-61.89198	-32.61418
	-61.89242	-32.61388
	-61.89271	-32.61378
	-61.89326	-32.61393
	-61.89398	-32.61396
	-61.89449	-32.61407
	-61.89498	-32.61426
	-61.89558	-32.61475
	-61.89573	-32.61493
	-61.89613	-32.61509
	-61.89631	-32.61527
	-61.89646	-32.61551
	-61.89635	-32.61586
	-61.89634	-32.61629
	-61.89682	-32.61719
	-61.89738	-32.61764
	-61.89813	-32.6177
	-61.89888	-32.61783
	-61.89919	-32.61807
	-61.89943	-32.61837
	-61.89958	-32.61863
	-61.89975	-32.61907
	-61.89992	-32.61927
	-61.90024	-32.61942
	-61.90113	-32.61926
	-61.90154	-32.61922
	-61.90177	-32.61928
	-61.90231	-32.61981
	-61.90234	-32.62048
	-61.90245	-32.62069
	-61.90267	-32.62082
	-61.90325	-32.62103
	-61.90413	-32.62129
	-61.90501	-32.62168
	-61.90571	-32.6221
	-61.90583	-32.62229
	-61.90577	-32.62315
	-61.90582	-32.62339
	-61.90622	-32.62372
	-61.90669	-32.62405
	-61.90678	-32.62429
	-61.90674	-32.62457
	-61.90704	-32.62502
	-61.90745	-32.62544
	-61.90788	-32.6255
	-61.90852	-32.62553
	-61.90878	-32.62545
	-61.90952	-32.62526
	-61.91024	-32.62513
	-61.91065	-32.62523
	-61.91105	-32.62539
	-61.91135	-32.62568
	-61.91154	-32.62594
	-61.91199	-32.62623
	-61.91243	-32.62661
	-61.91275	-32.62672
	-61.91304	-32.62685
	-61.91332	-32.6272
	-61.91294	-32.62784
	-61.91248	-32.62843
	-61.91242	-32.62865
	-61.91242	-32.62881
	-61.91251	-32.62896
	-61.9128	-32.62904
	-61.91304	-32.62908
	-61.91432	-32.62896
	-61.91557	-32.62898
	-61.91607	-32.62912
	-61.91643	-32.62932
	-61.91675	-32.62952
	-61.91701	-32.62987
	-61.91722	-32.63064
	-61.91733	-32.63088
	-61.9175	-32.63104
	-61.91754	-32.63184
	-61.91764	-32.63203
	-61.9177	-32.63224
	-61.91789	-32.63248
	-61.91817	-32.63255
	-61.91858	-32.63261
	-61.9188	-32.63257
	-61.919	-32.63262
	-61.91933	-32.63258
	-61.91956	-32.63261
	-61.91984	-32.63288
	-61.92001	-32.63344
	-61.9205	-32.63409
	-61.92081	-32.6343
	-61.92105	-32.63435
	-61.9215	-32.63453
	-61.92228	-32.63498
	-61.92269	-32.63558
	-61.92297	-32.63596
	-61.92321	-32.63614
	-61.9234	-32.63623
	-61.92378	-32.6366
	-61.92444	-32.63689
	-61.92518	-32.63761
	-61.92527	-32.63779
	-61.92522	-32.638
	-61.92507	-32.63834
	-61.92521	-32.63844
	-61.92545	-32.63851
	-61.92581	-32.63866
	-61.92632	-32.63895
	-61.92683	-32.63892
	-61.9271	-32.63899
	-61.92771	-32.639
	-61.92797	-32.63904
	-61.92859	-32.63958
	-61.92858	-32.63988
	-61.92881	-32.63998
	-61.92902	-32.63995
	-61.92969	-32.64015
	-61.93024	-32.64014
	-61.93048	-32.64036
	-61.93128	-32.64078
	-61.93143	-32.64129
	-61.93176	-32.64148
	-61.93203	-32.64175
	-61.93225	-32.64204
	-61.93256	-32.64217
	-61.93284	-32.64237
	-61.93296	-32.64278
	-61.93326	-32.643
	-61.9339	-32.64364
	-61.93406	-32.64369
	-61.9344	-32.64366
	-61.93471	-32.64369
	-61.93506	-32.64366
	-61.93574	-32.64354
	-61.93663	-32.64362
	-61.9371	-32.64383
	-61.93739	-32.64403
	-61.93739	-32.64429
	-61.93747	-32.64451
	-61.93781	-32.64484
	-61.93809	-32.64507
	-61.93839	-32.64542
	-61.93878	-32.64617
	-61.93944	-32.64641
	-61.94062	-32.64672
	-61.94079	-32.64687
	-61.9413	-32.64705
	-61.94162	-32.64728
	-61.94185	-32.64753
	-61.94222	-32.64784
	-61.94253	-32.64806
	-61.94281	-32.64821
	-61.9433	-32.64843
	-61.94345	-32.64861
	-61.9434	-32.64895
	-61.94344	-32.64913
	-61.94372	-32.64958
	-61.9438	-32.65021
	-61.94396	-32.65037
	-61.94411	-32.65046
	-61.94428	-32.6505
	-61.94478	-32.65051
	-61.94508	-32.65054
	-61.94541	-32.65063
	-61.94554	-32.65073
	-61.94569	-32.65082
	-61.94601	-32.65095
	-61.94629	-32.65111
	-61.94635	-32.65133
	-61.9462	-32.65154
	-61.94611	-32.65175
	-61.94606	-32.65201
	-61.94605	-32.65226
	-61.94598	-32.65238
	-61.94584	-32.65253
	-61.94559	-32.65257
	-61.94535	-32.65259
	-61.94521	-32.65263
	-61.94498	-32.65272
	-61.94476	-32.65288
	-61.94461	-32.65328
	-61.94447	-32.65344
	-61.94436	-32.65363
	-61.94442	-32.65451
	-61.94406	-32.65547
	-61.9438	-32.65561
	-61.94366	-32.65574
	-61.94366	-32.6559
	-61.94372	-32.65612
	-61.94383	-32.65634
	-61.94389	-32.65678
	-61.94368	-32.65798
	-61.94357	-32.65852
	-61.94355	-32.65891
	-61.94357	-32.65935
	-61.94364	-32.65959
	-61.94376	-32.65984
	-61.94389	-32.66003
	-61.94419	-32.66053
	-61.94435	-32.66103
	-61.94436	-32.66131
	-61.94433	-32.66161
	-61.94438	-32.66182
	-61.94444	-32.66192
	-61.94454	-32.66204
	-61.9447	-32.66215
	-61.94483	-32.6623
	-61.94488	-32.66247
	-61.94483	-32.66263
	-61.94463	-32.66295
	-61.9445	-32.66326
	-61.94441	-32.66354
	-61.94438	-32.66404
	-61.94441	-32.66443
	-61.94424	-32.66471
	-61.94422	-32.66483
	-61.94441	-32.6654
	-61.94464	-32.66656
	-61.94457	-32.66697
	-61.94448	-32.66717
	-61.94441	-32.66799
	-61.94441	-32.66828
	-61.94446	-32.66855
	-61.9447	-32.669
	-61.94517	-32.67006
	-61.94539	-32.67096
	-61.94542	-32.6715
	-61.94548	-32.67176
	-61.94544	-32.67196
	-61.94515	-32.67242
	-61.94507	-32.67264
	-61.94502	-32.6729
	-61.94509	-32.67308
	-61.9453	-32.67328
	-61.94546	-32.6735
	-61.94557	-32.6737
	-61.94569	-32.67398
	-61.94574	-32.67425
	-61.94571	-32.67474
	-61.94566	-32.67494
	-61.94559	-32.67513
	-61.94564	-32.67539
	-61.94562	-32.67559
	-61.94572	-32.67581
	-61.9459	-32.67593
	-61.94603	-32.67597
	-61.94621	-32.67596
	-61.94641	-32.67599
	-61.94652	-32.67612
	-61.94655	-32.67628
	-61.94643	-32.67679
	-61.94632	-32.67705
	-61.94625	-32.67735
	-61.94642	-32.67752
	-61.94649	-32.67767
	-61.94652	-32.67793
	-61.9466	-32.67822
	-61.94662	-32.67845
	-61.9465	-32.67862
	-61.9462	-32.67883
	-61.94599	-32.67887
	-61.9459	-32.67891
	-61.94563	-32.6793
	-61.94533	-32.67954
	-61.94514	-32.67962
	-61.94493	-32.67962
	-61.94402	-32.67931
	-61.94349	-32.67911
	-61.94274	-32.67888
	-61.94197	-32.67851
	-61.94176	-32.67839
	-61.94138	-32.67808
	-61.94123	-32.67803
	-61.94105	-32.67805
	-61.94014	-32.67823
	-61.9398	-32.67834
	-61.93966	-32.67845
	-61.93956	-32.67862
	-61.93942	-32.67899
	-61.93911	-32.67912
	-61.93865	-32.67925
	-61.93846	-32.67933
	-61.93834	-32.67946
	-61.93835	-32.67961
	-61.93848	-32.68007
	-61.93849	-32.68044
	-61.93843	-32.68056
	-61.93831	-32.68071
	-61.93818	-32.6808
	-61.93792	-32.68083
	-61.93759	-32.68066
	-61.93688	-32.68023
	-61.93636	-32.67973
	-61.9362	-32.67963
	-61.93597	-32.67954
	-61.93568	-32.67957
	-61.93541	-32.67969
	-61.93493	-32.67994
	-61.93482	-32.68008
	-61.93475	-32.68022
	-61.93474	-32.68045
	-61.93468	-32.68094
	-61.93471	-32.68116
	-61.93487	-32.68184
	-61.93491	-32.68214
	-61.9349	-32.68247
	-61.93487	-32.68278
	-61.93478	-32.683
	-61.93389	-32.68401
	-61.93272	-32.68501
	-61.9325	-32.68547
	-61.9329	-32.68589
	-61.9329	-32.68608
	-61.93237	-32.687
	-61.93192	-32.6885
	-61.9317	-32.68872
	-61.93125	-32.68871
	-61.93096	-32.68927
	-61.93044	-32.68981
	-61.92968	-32.69009
	-61.92825	-32.69009
	-61.92707	-32.69069
	-61.92653	-32.69084
	-61.92631	-32.69064
	-61.92585	-32.69041
	-61.92535	-32.69045
	-61.92494	-32.69092
	-61.92439	-32.69142
	-61.92386	-32.69182
	-61.92274	-32.69167
	-61.92252	-32.69179
	-61.92239	-32.69206
	-61.92217	-32.69222
	-61.92085	-32.6918
	-61.91954	-32.69196
	-61.91898	-32.69179
	-61.91595	-32.69228
	-61.91564	-32.6926
	-61.91518	-32.69277
	-61.91368	-32.69277
	-61.91293	-32.69304
	-61.91198	-32.69333
	-61.91156	-32.69385
	-61.91005	-32.69457
	-61.90824	-32.69546
	-61.90734	-32.6957
	-61.90659	-32.69542
	-61.90585	-32.69584
	-61.90533	-32.69596
	-61.90423	-32.69595
	-61.90355	-32.69572
	-61.9031	-32.69539
	-61.90299	-32.69499
	-61.9025	-32.69359
	-61.9022	-32.69343
	-61.90047	-32.69377
	-61.89962	-32.69351
	-61.89878	-32.69335
	-61.89767	-32.69297
	-61.89702	-32.69294
	-61.89655	-32.6932
	-61.89576	-32.69306
	-61.89531	-32.69288
	-61.89509	-32.69246
	-61.89461	-32.6923
	-61.89413	-32.69225
	-61.89361	-32.69223
	-61.89186	-32.69192
	-61.89117	-32.69215
	-61.89053	-32.69203
	-61.8893	-32.6922
	-61.88887	-32.69197
	-61.88808	-32.69222
	-61.8874	-32.69222
	-61.88581	-32.6919
	-61.8854	-32.69185
	-61.88466	-32.69213
	-61.88427	-32.6922
	-61.88287	-32.69286
	-61.88228	-32.69305
	-61.88155	-32.693
	-61.88046	-32.69326
	-61.87966	-32.69365
	-61.87875	-32.69393
	-61.87759	-32.69411
	-61.8771	-32.69417
	-61.87639	-32.69442
	-61.87605	-32.69424
	-61.87573	-32.69425
	-61.87511	-32.69451
	-61.87365	-32.69457
	-61.87201	-32.69449
	-61.87133	-32.69452
	-61.87018	-32.69498
	-61.86941	-32.69511
	-61.86652	-32.6952
	-61.86567	-32.69497
	-61.86446	-32.69478
	-61.86341	-32.69521
	-61.86206	-32.69511
	-61.8609	-32.69479
	-61.85809	-32.69454
	-61.85666	-32.69833
	-61.85454	-32.70131
	-61.85372	-32.7035
	-61.85324	-32.70525
	-61.85067	-32.70922
	-61.84844	-32.71347
	-61.84599	-32.71748
	-61.84357	-32.72057
	-61.84253	-32.72348
	-61.84166	-32.72626
	-61.84137	-32.72789
	-61.84008	-32.73121
	-61.83943	-32.73242
	-61.83855	-32.73343
	-61.83703	-32.73531
	-61.83579	-32.73737
	-61.83527	-32.73831
	-61.83484	-32.73914
	-61.83426	-32.73986
	-61.83337	-32.74056
	-61.83236	-32.7414
	-61.83213	-32.74181
	-61.83171	-32.74304
	-61.83142	-32.7438
	-61.83007	-32.74575
	-61.82996	-32.74597
	-61.82985	-32.7464
	-61.83002	-32.74711
	-61.83039	-32.74793
	-61.83016	-32.74925
	-61.83	-32.75042
	-61.8295	-32.75188
	-61.82858	-32.754
	-61.82786	-32.75507
	-61.82666	-32.75608
	-61.82575	-32.75674
	-61.82495	-32.75722
	-61.82337	-32.75795
	-61.82181	-32.75824
	-61.82026	-32.75833
	-61.81956	-32.7582
	-61.81898	-32.75828
	-61.8182	-32.75855
	-61.8176	-32.75859
	-61.81676	-32.75859
	-61.816	-32.75874
	-61.81495	-32.7589
	-61.81291	-32.75909
	-61.81246	-32.75907
	-61.81215	-32.759
	-61.81137	-32.75896
	-61.81086	-32.75903
	-61.81036	-32.7592
	-61.81001	-32.7595
	-61.80953	-32.76053
	-61.80769	-32.76258
	-61.80623	-32.76376
	-61.8054	-32.76497
	-61.80478	-32.76564
	-61.80414	-32.76609
	-61.80371	-32.76684
	-61.80251	-32.76773
	-61.8015	-32.76835
	-61.80074	-32.76903
	-61.79959	-32.77036
	-61.79846	-32.77148
	-61.79737	-32.7724
	-61.79671	-32.77304
	-61.79596	-32.77364
	-61.79572	-32.77425
	-61.79574	-32.77477
	-61.79654	-32.77549
	-61.79698	-32.77597
	-61.79726	-32.77649
	-61.79749	-32.77688
	-61.79758	-32.77741
	-61.79779	-32.77901
	-61.79772	-32.78039
	-61.79726	-32.78136
	-61.79674	-32.7816
	-61.79619	-32.78167
	-61.79581	-32.78186
	-61.79527	-32.78229
	-61.79492	-32.78297
	-61.79504	-32.78325
	-61.7953	-32.78368
	-61.79557	-32.78424
	-61.79588	-32.78504
	-61.79588	-32.78564
	-61.79583	-32.78611
	-61.79534	-32.78667
	-61.79475	-32.78795
	-61.79335	-32.78967
	-61.79294	-32.79038
	-61.79264	-32.79181
	-61.7926	-32.79292
	-61.79167	-32.79406
	-61.79035	-32.79439
	-61.78913	-32.79426
	-61.78794	-32.79422
	-61.78675	-32.79439
	-61.78637	-32.79476
	-61.78581	-32.79569
	-61.78619	-32.79677
	-61.7865	-32.79771
	-61.78642	-32.79865
	-61.78649	-32.79968
	-61.78644	-32.80063
	-61.78617	-32.80182
	-61.78584	-32.80282
	-61.78526	-32.80343
	-61.78486	-32.80422
	-61.78522	-32.80554
	-61.78539	-32.80687
	-61.78523	-32.80787
	-61.78533	-32.80978
	-61.78538	-32.81223
	-61.78529	-32.81302
	-61.78481	-32.81373
	-61.78452	-32.81444
	-61.78401	-32.81496
	-61.78278	-32.81609
	-61.78224	-32.81796
	-61.7816	-32.81915
	-61.78135	-32.8209
	-61.78016	-32.8223
	-61.77963	-32.82404
	-61.77875	-32.82564
	-61.77915	-32.82666
	-61.77915	-32.82758
	-61.77898	-32.82821
	-61.77777	-32.83001
	-61.7778	-32.83071
	-61.77798	-32.83181
	-61.77881	-32.83303
	-61.77903	-32.83428
	-61.77959	-32.83562
	-61.77984	-32.83727
	-61.7802	-32.83918
	-61.78013	-32.83983
	-61.78104	-32.84199
	-61.7817	-32.84312
	-61.78219	-32.84556
	-61.78229	-32.84761
	-61.78259	-32.84832
	-61.78346	-32.84917
	-61.78376	-32.84997
	-61.78349	-32.85074
	-61.78362	-32.85203
	-61.78446	-32.85397
	-61.78514	-32.85463
	-61.78589	-32.85564
	-61.78597	-32.85647
	-61.78593	-32.85673
	-61.78624	-32.85749
	-61.78653	-32.85787
	-61.78671	-32.85933
	-61.78909	-32.86177
	-61.78936	-32.86245
	-61.78911	-32.86301
	-61.78876	-32.86326
	-61.78877	-32.86352
	-61.78981	-32.86486
	-61.79005	-32.86627
	-61.79033	-32.86723
	-61.79224	-32.87183
	-61.79243	-32.87208
	-61.79267	-32.8725
	-61.79278	-32.87315
	-61.79245	-32.87378
	-61.79233	-32.87515
	-61.79229	-32.8768
	-61.79219	-32.87747
	-61.79169	-32.87811
	-61.79127	-32.87822
	-61.79108	-32.87842
	-61.79087	-32.8789
	-61.79069	-32.87984
	-61.7904	-32.88032
	-61.7899	-32.88079
	-61.78952	-32.88158
	-61.78924	-32.88243
	-61.78848	-32.88402
	-61.78814	-32.88456
	-61.78772	-32.88505
	-61.78626	-32.88754
	-61.78601	-32.88837
	-61.78559	-32.88883
	-61.785	-32.88922
	-61.78433	-32.88923
	-61.78359	-32.89015
	-61.78262	-32.89072
	-61.78117	-32.89141
	-61.7807	-32.89147
	-61.77931	-32.89098
	-61.77794	-32.89094
	-61.77738	-32.89126
	-61.77744	-32.89212
	-61.77818	-32.89266
	-61.77843	-32.89377
	-61.77805	-32.89422
	-61.77778	-32.89591
	-61.77757	-32.89649
	-61.7762	-32.89719
	-61.77542	-32.89789
	-61.77459	-32.89909
	-61.77334	-32.89984
	-61.77239	-32.90039
	-61.7716	-32.90114
	-61.7716	-32.90154
	-61.77237	-32.90204
	-61.77303	-32.90264
	-61.77302	-32.90312
	-61.77282	-32.9037
	-61.77287	-32.90478
	-61.77307	-32.90553
	-61.77282	-32.90667
	-61.77289	-32.90723
	-61.77278	-32.90795
	-61.77236	-32.90907
	-61.77253	-32.91007
	-61.77231	-32.91306
	-61.77291	-32.91464
	-61.77284	-32.9165
	-61.77368	-32.91755
	-61.77425	-32.91905
	-61.77456	-32.91981
	-61.77478	-32.92106
	-61.77482	-32.92173
	-61.77557	-32.92265
	-61.77591	-32.92338
	-61.77603	-32.92401
	-61.77595	-32.92456
	-61.77616	-32.92533
	-61.77675	-32.92675
	-61.77729	-32.92723
	-61.77846	-32.92904
	-61.77869	-32.92944
	-61.7789	-32.92988
	-61.77902	-32.9309
	-61.77931	-32.93145
	-61.78	-32.93257
	-61.78037	-32.9336
	-61.78031	-32.93436
	-61.7805	-32.93464
	-61.78066	-32.93506
	-61.78093	-32.93539
	-61.78154	-32.93603
	-61.78259	-32.93777
	-61.78323	-32.93838
	-61.78378	-32.93895
	-61.7835	-32.94046
	-61.78419	-32.9415
	-61.78423	-32.94173
	-61.78525	-32.94404
	-61.78658	-32.94776
	-61.78661	-32.9487
	-61.78689	-32.94915
	-61.7878	-32.951
	-61.78778	-32.95193
	-61.78803	-32.95259
	-61.78841	-32.95348
	-61.78854	-32.95512
	-61.79005	-32.95664
	-61.79064	-32.95761
	-61.79102	-32.95843
	-61.79067	-32.95923
	-61.79023	-32.95955
	-61.78989	-32.96068
	-61.78914	-32.96156
	-61.78803	-32.96231
	-61.78691	-32.96268
	-61.78661	-32.96349
	-61.7878	-32.96662
	-61.78728	-32.96869
	-61.78722	-32.96922
	-61.78754	-32.97035
	-61.78732	-32.9719
	-61.78782	-32.97268
	-61.78889	-32.97369
	-61.78998	-32.97383
	-61.79092	-32.97424
	-61.79164	-32.97551
	-61.79129	-32.97637
	-61.78974	-32.97749
	-61.7895	-32.97816
	-61.78987	-32.98052
	-61.78945	-32.98279
	-61.78971	-32.98399
	-61.79045	-32.98503
	-61.79087	-32.98638
	-61.79183	-32.98801
	-61.79188	-32.98884
	-61.79138	-32.99015
	-61.79046	-32.99038
	-61.78905	-32.9905
	-61.78817	-32.99081
	-61.78797	-32.99147
	-61.78832	-32.99207
	-61.78936	-32.99334
	-61.78965	-32.99447
	-61.78942	-32.99683
	-61.78816	-33.00039
	-61.78825	-33.00178
	-61.78809	-33.00354
	-61.78753	-33.0052
	-61.78764	-33.00619
	-61.78891	-33.00648
	-61.79164	-33.00707
	-61.79205	-33.00759
	-61.79189	-33.00838
	-61.79217	-33.0095
	-61.79371	-33.01034
	-61.79445	-33.0115
	-61.79366	-33.01289
	-61.79352	-33.01463
	-61.79387	-33.0145
	-61.79436	-33.01413
	-61.79465	-33.01406
	-61.79573	-33.01442
	-61.79591	-33.01441
	-61.79608	-33.01455
	-61.7964	-33.01474
	-61.79669	-33.01513
	-61.797	-33.01525
	-61.79724	-33.01546
	-61.79729	-33.01559
	-61.79738	-33.01568
	-61.79755	-33.01567
	-61.79814	-33.01584
	-61.80026	-33.01688
	-61.80047	-33.01703
	-61.80107	-33.01779
	-61.80133	-33.01838
	-61.80142	-33.01866
	-61.80141	-33.01884
	-61.80167	-33.01904
	-61.80195	-33.01912
	-61.80228	-33.01932
	-61.80265	-33.0196
	-61.80297	-33.01996
	-61.80323	-33.02012
	-61.80346	-33.0205
	-61.80439	-33.02088
	-61.80454	-33.02079
	-61.80476	-33.02079
	-61.80492	-33.02089
	-61.80519	-33.02111
	-61.80867	-33.02376
	-61.80907	-33.02398
	-61.80956	-33.02402
	-61.80979	-33.02401
	-61.80998	-33.02404
	-61.81037	-33.02403
	-61.81026	-33.02589
	-61.8103	-33.02615
	-61.81036	-33.02626
	-61.81117	-33.02725
	-61.81295	-33.02921
	-61.81847	-33.03508
	-61.8244	-33.04134
	-61.83895	-33.05065
	-61.83914	-33.05095
	-61.83967	-33.05104
	-61.84143	-33.05155
	-61.84337	-33.05244
	-61.84822	-33.05617
	-61.84851	-33.05655
	-61.84875	-33.05708
	-61.84905	-33.05729
	-61.85233	-33.06234
	-61.86101	-33.0684
	-61.86845	-33.07635
	-61.87407	-33.08405
	-61.87561	-33.08945
	-61.87648	-33.09069
	-61.87637	-33.09151
	-61.87649	-33.09228
	-61.87791	-33.09359
	-61.87811	-33.09437
	-61.87857	-33.09474
	-61.879	-33.09541
	-61.87944	-33.09579
	-61.87996	-33.09582
	-61.88471	-33.10223
	-61.8861	-33.10314
	-61.88731	-33.10354
	-61.88856	-33.10392
	-61.88966	-33.10454
	-61.88956	-33.10523
	-61.88937	-33.10533
	-61.88896	-33.10548
	-61.88886	-33.10559
	-61.88873	-33.10569
	-61.88863	-33.1059
	-61.8887	-33.10605
	-61.88901	-33.10613
	-61.88922	-33.10609
	-61.88969	-33.10615
	-61.89003	-33.10625
	-61.8901	-33.10633
	-61.89014	-33.10647
	-61.89077	-33.10666
	-61.89096	-33.10687
	-61.89136	-33.1075
	-61.89158	-33.10781
	-61.89216	-33.10809
	-61.89273	-33.10846
	-61.89316	-33.1088
	-61.8938	-33.10899
	-61.89629	-33.11113
	-61.90021	-33.1146
	-61.91648	-33.1211
	-61.91987	-33.12055
	-61.96799	-33.18291
	-62.00963	-33.23649
	-62.20886	-33.50118
	-62.26296	-33.57271
	-62.41128	-33.76875
	-62.42878	-33.79172
	-62.54409	-33.94317
	-62.58222	-33.99326
	-62.75893	-34.22342
	-62.77674	-34.24695
	-62.85438	-34.34714
	-62.88408	-34.38642
END
END
