Argentina_Buenos Aires_North
1
	-62.34001	-34.38591
	-62.2688	-34.38606
	-62.26016	-34.3857
	-62.24523	-34.3857
	-62.24323	-34.3837
	-62.21678	-34.38371
	-62.21282	-34.38373
	-62.20878	-34.38371
	-62.19914	-34.38371
	-62.19821	-34.38376
	-62.19734	-34.38384
	-62.19632	-34.38397
	-62.19096	-34.38494
	-62.18444	-34.3861
	-61.71768	-34.38569
	-61.64894	-34.31867
	-61.58573	-34.26141
	-61.53711	-34.2164
	-61.52929	-34.20912
	-61.48529	-34.16963
	-61.37003	-34.06562
	-61.32812	-34.0278
	-61.31064	-34.01031
	-61.25968	-33.95924
	-60.99706	-33.69584
	-60.99072	-33.6899
	-60.98345	-33.68319
	-60.97537	-33.67595
	-60.97483	-33.67557
	-60.97382	-33.6752
	-60.96891	-33.67508
	-60.96759	-33.67477
	-60.96098	-33.67177
	-60.96007	-33.67108
	-60.95449	-33.66619
	-60.95232	-33.66453
	-60.94775	-33.66097
	-60.94442	-33.65865
	-60.94315	-33.65812
	-60.9405	-33.65657
	-60.93953	-33.65604
	-60.93878	-33.65603
	-60.93852	-33.65617
	-60.93794	-33.65606
	-60.93751	-33.65606
	-60.93731	-33.65559
	-60.93701	-33.65504
	-60.93652	-33.65447
	-60.93596	-33.65431
	-60.93547	-33.65423
	-60.93509	-33.65408
	-60.93487	-33.6539
	-60.93447	-33.65388
	-60.93419	-33.65379
	-60.93413	-33.65355
	-60.93382	-33.6527
	-60.93344	-33.65204
	-60.93315	-33.65194
	-60.93274	-33.65144
	-60.93244	-33.65122
	-60.93222	-33.65094
	-60.93218	-33.65061
	-60.93234	-33.65041
	-60.93254	-33.65012
	-60.93308	-33.64969
	-60.93318	-33.64936
	-60.9329	-33.64856
	-60.93242	-33.647
	-60.93221	-33.64669
	-60.93166	-33.64625
	-60.93118	-33.64592
	-60.92972	-33.64449
	-60.92933	-33.64374
	-60.92889	-33.64318
	-60.92848	-33.64289
	-60.92758	-33.64215
	-60.92751	-33.64155
	-60.92613	-33.64069
	-60.92543	-33.63991
	-60.92471	-33.63949
	-60.92353	-33.6386
	-60.92297	-33.6381
	-60.92273	-33.63772
	-60.92238	-33.63748
	-60.92203	-33.63737
	-60.92181	-33.63697
	-60.9218	-33.63523
	-60.92191	-33.63508
	-60.92209	-33.63497
	-60.92213	-33.63486
	-60.92215	-33.63479
	-60.92207	-33.63449
	-60.92204	-33.6343
	-60.92216	-33.63411
	-60.92215	-33.63389
	-60.92206	-33.63369
	-60.922	-33.63342
	-60.922	-33.63282
	-60.92181	-33.63219
	-60.92184	-33.63129
	-60.92202	-33.63116
	-60.92211	-33.63099
	-60.92217	-33.63082
	-60.92227	-33.63072
	-60.92252	-33.63059
	-60.92265	-33.63047
	-60.92263	-33.63031
	-60.92238	-33.62997
	-60.92241	-33.62981
	-60.92238	-33.62959
	-60.9222	-33.62924
	-60.92183	-33.62783
	-60.92181	-33.62713
	-60.92187	-33.62662
	-60.922	-33.6262
	-60.92218	-33.6259
	-60.92226	-33.62571
	-60.92226	-33.62545
	-60.9222	-33.62529
	-60.92221	-33.62513
	-60.92224	-33.62481
	-60.92235	-33.62441
	-60.92247	-33.62414
	-60.92275	-33.62399
	-60.92283	-33.62375
	-60.92275	-33.62351
	-60.92254	-33.62322
	-60.92227	-33.62297
	-60.92226	-33.62284
	-60.92235	-33.62252
	-60.92244	-33.62208
	-60.92244	-33.62131
	-60.92255	-33.62107
	-60.92277	-33.62088
	-60.92303	-33.6209
	-60.92318	-33.62081
	-60.92319	-33.62056
	-60.92307	-33.62013
	-60.92321	-33.61887
	-60.92341	-33.61841
	-60.92354	-33.6183
	-60.92349	-33.61649
	-60.92331	-33.61502
	-60.9234	-33.61463
	-60.92352	-33.6144
	-60.9235	-33.61427
	-60.92339	-33.61404
	-60.92324	-33.61389
	-60.92315	-33.61363
	-60.92315	-33.61316
	-60.92299	-33.61187
	-60.92279	-33.61146
	-60.92264	-33.61091
	-60.92256	-33.61036
	-60.92257	-33.61001
	-60.92267	-33.60966
	-60.92259	-33.60943
	-60.9224	-33.60918
	-60.92243	-33.609
	-60.92265	-33.60846
	-60.9225	-33.60818
	-60.92248	-33.60789
	-60.92243	-33.60772
	-60.92225	-33.60754
	-60.92213	-33.60733
	-60.9223	-33.60649
	-60.92228	-33.60639
	-60.92224	-33.60627
	-60.92204	-33.60608
	-60.92179	-33.606
	-60.92155	-33.60573
	-60.92155	-33.6055
	-60.9216	-33.60518
	-60.92153	-33.60493
	-60.92138	-33.60463
	-60.92147	-33.60437
	-60.9217	-33.60414
	-60.92199	-33.6038
	-60.92202	-33.60363
	-60.92176	-33.60345
	-60.9215	-33.60333
	-60.92136	-33.60316
	-60.9214	-33.60297
	-60.92132	-33.60263
	-60.92134	-33.60236
	-60.92131	-33.60206
	-60.92115	-33.60157
	-60.92112	-33.60121
	-60.92105	-33.60107
	-60.92096	-33.60078
	-60.92101	-33.60057
	-60.92091	-33.6001
	-60.92077	-33.59983
	-60.92062	-33.59968
	-60.92043	-33.59889
	-60.92048	-33.59858
	-60.92046	-33.59806
	-60.9203	-33.59784
	-60.92021	-33.59759
	-60.92025	-33.59733
	-60.9204	-33.59706
	-60.92036	-33.59681
	-60.92007	-33.59667
	-60.91994	-33.59654
	-60.91987	-33.59639
	-60.91985	-33.59583
	-60.91971	-33.59547
	-60.9196	-33.59505
	-60.91942	-33.59467
	-60.91943	-33.59445
	-60.91961	-33.59432
	-60.91977	-33.59415
	-60.91974	-33.59378
	-60.91985	-33.59349
	-60.92001	-33.5932
	-60.91995	-33.593
	-60.91983	-33.59293
	-60.91922	-33.59295
	-60.91911	-33.59288
	-60.91905	-33.59273
	-60.91885	-33.59206
	-60.91896	-33.59195
	-60.91902	-33.59186
	-60.91904	-33.59176
	-60.91891	-33.59139
	-60.91896	-33.59118
	-60.91909	-33.59094
	-60.91911	-33.59068
	-60.91827	-33.58973
	-60.9183	-33.58869
	-60.91821	-33.58851
	-60.91788	-33.58813
	-60.91762	-33.58793
	-60.91727	-33.58773
	-60.91691	-33.58759
	-60.91657	-33.58766
	-60.91638	-33.58766
	-60.9162	-33.5875
	-60.9161	-33.58709
	-60.91545	-33.58615
	-60.91493	-33.58567
	-60.9146	-33.58549
	-60.91419	-33.58533
	-60.91385	-33.585
	-60.91394	-33.58477
	-60.91425	-33.58441
	-60.91445	-33.58422
	-60.91441	-33.58397
	-60.9142	-33.58387
	-60.91397	-33.58384
	-60.91369	-33.5836
	-60.91351	-33.58337
	-60.91356	-33.58308
	-60.91348	-33.58295
	-60.91319	-33.58288
	-60.91303	-33.58281
	-60.91279	-33.58262
	-60.91259	-33.58257
	-60.91234	-33.58258
	-60.91213	-33.58254
	-60.912	-33.58246
	-60.91189	-33.58236
	-60.9118	-33.5821
	-60.91166	-33.58192
	-60.91148	-33.58177
	-60.91133	-33.58156
	-60.91123	-33.58133
	-60.91111	-33.58083
	-60.91088	-33.58052
	-60.91065	-33.58026
	-60.91049	-33.58018
	-60.91029	-33.58018
	-60.91008	-33.58012
	-60.91001	-33.58
	-60.91	-33.57983
	-60.90995	-33.57961
	-60.90992	-33.57956
	-60.90973	-33.57943
	-60.90954	-33.57918
	-60.90944	-33.57895
	-60.90936	-33.57885
	-60.90914	-33.57877
	-60.90887	-33.57875
	-60.90869	-33.57866
	-60.90862	-33.57853
	-60.90859	-33.57824
	-60.90854	-33.5781
	-60.90806	-33.57781
	-60.90799	-33.57748
	-60.90778	-33.57674
	-60.90741	-33.5763
	-60.90706	-33.57568
	-60.90652	-33.57548
	-60.90613	-33.57539
	-60.90576	-33.57526
	-60.90547	-33.57504
	-60.9052	-33.57469
	-60.90463	-33.57412
	-60.90456	-33.57395
	-60.90455	-33.57345
	-60.90445	-33.57328
	-60.9041	-33.57308
	-60.90372	-33.57292
	-60.9026	-33.57267
	-60.90244	-33.5726
	-60.9023	-33.57234
	-60.90223	-33.57191
	-60.90208	-33.57175
	-60.90167	-33.57158
	-60.90133	-33.57147
	-60.90064	-33.57136
	-60.90052	-33.57129
	-60.90045	-33.57089
	-60.89995	-33.57024
	-60.89964	-33.57015
	-60.89937	-33.57014
	-60.89909	-33.56986
	-60.89885	-33.56955
	-60.89837	-33.56923
	-60.89832	-33.56903
	-60.89832	-33.56883
	-60.89816	-33.56872
	-60.89796	-33.56865
	-60.89783	-33.5684
	-60.89771	-33.56827
	-60.89751	-33.56823
	-60.89724	-33.56823
	-60.89696	-33.5681
	-60.89662	-33.56773
	-60.89629	-33.56763
	-60.89611	-33.56756
	-60.89596	-33.56747
	-60.89588	-33.56728
	-60.89589	-33.56697
	-60.8958	-33.56676
	-60.89538	-33.56629
	-60.8948	-33.56594
	-60.89433	-33.56536
	-60.8942	-33.56524
	-60.89323	-33.56507
	-60.893	-33.56497
	-60.89269	-33.56473
	-60.89243	-33.56466
	-60.89209	-33.56441
	-60.89194	-33.56417
	-60.89187	-33.56397
	-60.89174	-33.56384
	-60.89145	-33.56376
	-60.89112	-33.5637
	-60.89085	-33.5636
	-60.89074	-33.56341
	-60.89028	-33.56314
	-60.88998	-33.56264
	-60.88963	-33.56235
	-60.88942	-33.56207
	-60.88935	-33.56181
	-60.88927	-33.56162
	-60.88906	-33.56147
	-60.88867	-33.56111
	-60.88835	-33.56109
	-60.88804	-33.56099
	-60.8868	-33.56081
	-60.88638	-33.56069
	-60.8851	-33.55953
	-60.88506	-33.55924
	-60.88492	-33.55899
	-60.88478	-33.55882
	-60.88441	-33.55865
	-60.88405	-33.55854
	-60.88375	-33.55839
	-60.88332	-33.55774
	-60.88302	-33.5575
	-60.88273	-33.55736
	-60.88252	-33.5572
	-60.88228	-33.55675
	-60.88216	-33.55666
	-60.88153	-33.55658
	-60.88133	-33.55651
	-60.88096	-33.55616
	-60.88052	-33.55578
	-60.88005	-33.55554
	-60.87963	-33.55538
	-60.87928	-33.55511
	-60.87901	-33.55468
	-60.87844	-33.55452
	-60.87817	-33.55434
	-60.87755	-33.55403
	-60.8772	-33.55378
	-60.87652	-33.55352
	-60.87616	-33.55322
	-60.87536	-33.55316
	-60.87509	-33.55311
	-60.87477	-33.55256
	-60.87448	-33.55232
	-60.87413	-33.55218
	-60.87319	-33.55206
	-60.87298	-33.55197
	-60.87284	-33.55181
	-60.87274	-33.55158
	-60.87257	-33.55147
	-60.87218	-33.55143
	-60.87184	-33.55144
	-60.87156	-33.5514
	-60.87122	-33.55112
	-60.8701	-33.55053
	-60.86986	-33.55045
	-60.86959	-33.5504
	-60.86919	-33.55039
	-60.86911	-33.55036
	-60.869	-33.5503
	-60.86888	-33.55015
	-60.86879	-33.54982
	-60.86865	-33.54954
	-60.86834	-33.54928
	-60.86788	-33.549
	-60.86716	-33.54831
	-60.86666	-33.54832
	-60.86616	-33.5481
	-60.86564	-33.54803
	-60.86525	-33.54784
	-60.86478	-33.54778
	-60.86441	-33.54763
	-60.86419	-33.54756
	-60.86377	-33.5471
	-60.8636	-33.54702
	-60.86296	-33.54688
	-60.86264	-33.54698
	-60.86249	-33.54699
	-60.86238	-33.54696
	-60.8622	-33.54687
	-60.86205	-33.5467
	-60.86175	-33.54657
	-60.86152	-33.54641
	-60.86133	-33.54636
	-60.86112	-33.54641
	-60.86081	-33.54646
	-60.86049	-33.54641
	-60.86017	-33.54628
	-60.85959	-33.54632
	-60.85938	-33.54636
	-60.85917	-33.54636
	-60.85855	-33.5462
	-60.85815	-33.54606
	-60.85791	-33.54607
	-60.85763	-33.54612
	-60.85708	-33.54611
	-60.85582	-33.54594
	-60.85541	-33.54593
	-60.85493	-33.54588
	-60.85459	-33.5458
	-60.85417	-33.54582
	-60.85384	-33.54591
	-60.85352	-33.54593
	-60.85281	-33.54591
	-60.85252	-33.54586
	-60.852	-33.54552
	-60.85169	-33.54548
	-60.85113	-33.54567
	-60.85068	-33.5456
	-60.84919	-33.54555
	-60.84878	-33.54548
	-60.84852	-33.54534
	-60.84833	-33.54516
	-60.84815	-33.54492
	-60.84795	-33.54474
	-60.84765	-33.54467
	-60.84744	-33.54468
	-60.84712	-33.54487
	-60.84675	-33.54505
	-60.84623	-33.54518
	-60.84597	-33.54536
	-60.84572	-33.54567
	-60.8455	-33.54579
	-60.84497	-33.54593
	-60.84447	-33.54603
	-60.84416	-33.54593
	-60.84379	-33.54574
	-60.84347	-33.54553
	-60.84331	-33.54551
	-60.8431	-33.54554
	-60.84273	-33.54587
	-60.84252	-33.54597
	-60.84227	-33.54592
	-60.84188	-33.54566
	-60.84169	-33.54532
	-60.84127	-33.54516
	-60.84077	-33.54505
	-60.84037	-33.54489
	-60.83972	-33.54453
	-60.8392	-33.54434
	-60.8383	-33.54424
	-60.83802	-33.54431
	-60.83787	-33.54453
	-60.83754	-33.5447
	-60.83723	-33.54474
	-60.83683	-33.54458
	-60.83637	-33.54437
	-60.83614	-33.5443
	-60.83572	-33.54418
	-60.83469	-33.544
	-60.83202	-33.54407
	-60.8315	-33.544
	-60.83111	-33.54368
	-60.83055	-33.54371
	-60.83019	-33.5437
	-60.82996	-33.54358
	-60.82975	-33.54318
	-60.82971	-33.54273
	-60.82958	-33.54239
	-60.8292	-33.54213
	-60.82876	-33.54234
	-60.82847	-33.54258
	-60.82824	-33.54293
	-60.82809	-33.54333
	-60.82798	-33.54372
	-60.82778	-33.54394
	-60.8272	-33.54411
	-60.8267	-33.54423
	-60.82621	-33.54415
	-60.82565	-33.54393
	-60.82509	-33.54384
	-60.8247	-33.54381
	-60.82403	-33.5433
	-60.82374	-33.54299
	-60.82346	-33.54258
	-60.82288	-33.54235
	-60.82119	-33.54131
	-60.82081	-33.541
	-60.82073	-33.54095
	-60.82052	-33.54071
	-60.8194	-33.54023
	-60.8182	-33.54033
	-60.81806	-33.54053
	-60.81805	-33.54062
	-60.81805	-33.54069
	-60.81816	-33.54094
	-60.81814	-33.54131
	-60.81802	-33.54166
	-60.81788	-33.54199
	-60.81796	-33.54264
	-60.81803	-33.54278
	-60.81822	-33.54285
	-60.81835	-33.54292
	-60.81843	-33.54312
	-60.81838	-33.54339
	-60.81824	-33.54367
	-60.81801	-33.54387
	-60.81774	-33.54407
	-60.81743	-33.54414
	-60.817	-33.54412
	-60.81657	-33.54415
	-60.81632	-33.54407
	-60.81599	-33.54392
	-60.81562	-33.54384
	-60.8152	-33.54387
	-60.81488	-33.54397
	-60.81476	-33.54416
	-60.81467	-33.54445
	-60.81454	-33.54476
	-60.81417	-33.5452
	-60.81362	-33.54541
	-60.81312	-33.54551
	-60.81266	-33.54572
	-60.81241	-33.54596
	-60.81245	-33.54617
	-60.81259	-33.54638
	-60.81267	-33.5466
	-60.8126	-33.54686
	-60.81223	-33.54722
	-60.81192	-33.54739
	-60.81161	-33.54737
	-60.8113	-33.54729
	-60.81093	-33.54732
	-60.8107	-33.54744
	-60.81046	-33.54769
	-60.81026	-33.54821
	-60.80967	-33.5488
	-60.80963	-33.549
	-60.8097	-33.54925
	-60.80966	-33.54949
	-60.80946	-33.54967
	-60.80914	-33.54987
	-60.80892	-33.55053
	-60.80877	-33.55086
	-60.80828	-33.55134
	-60.80718	-33.55271
	-60.80704	-33.55385
	-60.80715	-33.55391
	-60.80729	-33.55393
	-60.80789	-33.55386
	-60.80851	-33.55393
	-60.80882	-33.55387
	-60.80915	-33.55386
	-60.80926	-33.55396
	-60.80938	-33.55423
	-60.80953	-33.55437
	-60.80982	-33.55451
	-60.8101	-33.55457
	-60.81036	-33.55444
	-60.81058	-33.55439
	-60.81076	-33.55446
	-60.81085	-33.55464
	-60.81061	-33.55496
	-60.81013	-33.55537
	-60.80972	-33.5559
	-60.80912	-33.55592
	-60.80848	-33.55638
	-60.80797	-33.55662
	-60.80761	-33.55689
	-60.80716	-33.55727
	-60.80656	-33.55764
	-60.80595	-33.55804
	-60.80564	-33.5582
	-60.80548	-33.55836
	-60.80546	-33.55856
	-60.80542	-33.55871
	-60.80515	-33.55892
	-60.80494	-33.55914
	-60.80471	-33.55931
	-60.80447	-33.55942
	-60.80427	-33.55965
	-60.80419	-33.55981
	-60.80403	-33.55987
	-60.80388	-33.55989
	-60.80375	-33.55984
	-60.80362	-33.55956
	-60.80348	-33.55946
	-60.80329	-33.55944
	-60.8031	-33.55963
	-60.80301	-33.56005
	-60.8029	-33.56018
	-60.80255	-33.56042
	-60.80243	-33.56068
	-60.80248	-33.56099
	-60.80262	-33.56119
	-60.80265	-33.56136
	-60.80254	-33.56155
	-60.80259	-33.56189
	-60.80254	-33.56205
	-60.80238	-33.56218
	-60.8023	-33.56219
	-60.80217	-33.56219
	-60.80199	-33.56204
	-60.8018	-33.56203
	-60.8017	-33.56209
	-60.80166	-33.56212
	-60.80156	-33.56246
	-60.80133	-33.56296
	-60.80112	-33.56317
	-60.80076	-33.5633
	-60.80061	-33.56356
	-60.80049	-33.56364
	-60.80009	-33.56365
	-60.79957	-33.56386
	-60.79905	-33.5642
	-60.79874	-33.56444
	-60.79862	-33.56464
	-60.7988	-33.56542
	-60.79869	-33.5658
	-60.79851	-33.56601
	-60.79807	-33.56621
	-60.79774	-33.56625
	-60.79745	-33.5662
	-60.79694	-33.56601
	-60.79669	-33.56613
	-60.79649	-33.5663
	-60.7963	-33.5666
	-60.79625	-33.56719
	-60.79636	-33.56741
	-60.79641	-33.56763
	-60.79611	-33.56803
	-60.79573	-33.5683
	-60.79532	-33.56839
	-60.79489	-33.56837
	-60.79458	-33.56841
	-60.79427	-33.56865
	-60.79397	-33.56891
	-60.79363	-33.56927
	-60.79349	-33.56946
	-60.79337	-33.56976
	-60.79318	-33.56996
	-60.79247	-33.57015
	-60.79174	-33.57039
	-60.79106	-33.5705
	-60.79064	-33.57052
	-60.79025	-33.57065
	-60.79014	-33.57073
	-60.79	-33.57085
	-60.78985	-33.57132
	-60.7895	-33.57167
	-60.78917	-33.57182
	-60.78903	-33.57187
	-60.78887	-33.57203
	-60.78878	-33.57229
	-60.78881	-33.57248
	-60.78876	-33.57273
	-60.78826	-33.57363
	-60.78791	-33.57395
	-60.78756	-33.57412
	-60.78702	-33.57451
	-60.7863	-33.57524
	-60.78581	-33.57546
	-60.78529	-33.57564
	-60.78473	-33.57588
	-60.78426	-33.57618
	-60.78354	-33.57681
	-60.78313	-33.57699
	-60.78258	-33.57718
	-60.78225	-33.57743
	-60.78212	-33.57772
	-60.78212	-33.57799
	-60.78227	-33.57813
	-60.78237	-33.57833
	-60.78189	-33.57902
	-60.78164	-33.57904
	-60.78128	-33.57885
	-60.78015	-33.57851
	-60.77983	-33.57851
	-60.77965	-33.57862
	-60.77937	-33.57861
	-60.77922	-33.57858
	-60.77894	-33.57864
	-60.77808	-33.57901
	-60.7777	-33.57923
	-60.77687	-33.57938
	-60.7764	-33.5795
	-60.77589	-33.57953
	-60.77532	-33.57943
	-60.77492	-33.57932
	-60.7747	-33.57932
	-60.77457	-33.5795
	-60.77445	-33.57974
	-60.77435	-33.58012
	-60.77417	-33.58021
	-60.7738	-33.58008
	-60.77324	-33.58025
	-60.77268	-33.58027
	-60.77216	-33.58019
	-60.7718	-33.58029
	-60.77173	-33.58031
	-60.7714	-33.58048
	-60.77122	-33.58088
	-60.7707	-33.58099
	-60.77	-33.58107
	-60.7696	-33.58114
	-60.7692	-33.58132
	-60.76911	-33.58152
	-60.76786	-33.58197
	-60.7671	-33.58204
	-60.76688	-33.5819
	-60.76654	-33.5818
	-60.76624	-33.58179
	-60.76602	-33.58184
	-60.76586	-33.58199
	-60.76586	-33.58224
	-60.76593	-33.5825
	-60.76583	-33.58276
	-60.76554	-33.58298
	-60.76526	-33.58308
	-60.7652	-33.58308
	-60.76501	-33.58307
	-60.76469	-33.58296
	-60.76386	-33.58323
	-60.76304	-33.58384
	-60.76188	-33.58443
	-60.76143	-33.58439
	-60.76134	-33.58439
	-60.76104	-33.58443
	-60.76079	-33.58467
	-60.76058	-33.58503
	-60.76036	-33.58514
	-60.75993	-33.58504
	-60.75947	-33.58503
	-60.75888	-33.58489
	-60.75858	-33.58497
	-60.75836	-33.58505
	-60.75799	-33.58537
	-60.75773	-33.58568
	-60.75737	-33.58592
	-60.75587	-33.58652
	-60.75551	-33.5868
	-60.75548	-33.58701
	-60.75587	-33.58729
	-60.75594	-33.58743
	-60.75594	-33.58759
	-60.75578	-33.58782
	-60.75556	-33.58793
	-60.75527	-33.58793
	-60.75489	-33.58786
	-60.75347	-33.58723
	-60.75299	-33.58718
	-60.75241	-33.58728
	-60.75178	-33.58758
	-60.75132	-33.58754
	-60.75072	-33.58742
	-60.75036	-33.58746
	-60.74962	-33.58748
	-60.74892	-33.58744
	-60.74861	-33.58751
	-60.74707	-33.58834
	-60.74638	-33.5884
	-60.74538	-33.58807
	-60.74456	-33.58791
	-60.74416	-33.58763
	-60.7438	-33.58722
	-60.74344	-33.58709
	-60.74313	-33.58712
	-60.74221	-33.58773
	-60.74183	-33.58782
	-60.74109	-33.58772
	-60.74042	-33.58752
	-60.73714	-33.587
	-60.73579	-33.58694
	-60.73513	-33.58661
	-60.73441	-33.58651
	-60.73264	-33.587
	-60.73171	-33.58677
	-60.73092	-33.58689
	-60.73021	-33.58686
	-60.7289	-33.58719
	-60.72808	-33.58727
	-60.72762	-33.58718
	-60.72719	-33.58702
	-60.72689	-33.58684
	-60.72665	-33.5868
	-60.72641	-33.5868
	-60.72616	-33.58698
	-60.72508	-33.58704
	-60.72487	-33.5871
	-60.72446	-33.58729
	-60.72425	-33.5873
	-60.72386	-33.58723
	-60.72356	-33.58727
	-60.72334	-33.58755
	-60.72297	-33.58772
	-60.72237	-33.58787
	-60.72133	-33.58835
	-60.72092	-33.58847
	-60.72062	-33.58843
	-60.71978	-33.58774
	-60.71953	-33.58745
	-60.71913	-33.58727
	-60.71871	-33.58728
	-60.71823	-33.58742
	-60.71654	-33.58772
	-60.71611	-33.58766
	-60.71552	-33.58752
	-60.71421	-33.58751
	-60.71325	-33.58765
	-60.71248	-33.58791
	-60.71192	-33.58817
	-60.71134	-33.58874
	-60.711	-33.58877
	-60.7107	-33.58864
	-60.71049	-33.58836
	-60.7104	-33.58804
	-60.71031	-33.58762
	-60.71007	-33.58732
	-60.7097	-33.58707
	-60.70945	-33.58696
	-60.70929	-33.58697
	-60.7088	-33.58715
	-60.70856	-33.58711
	-60.70818	-33.58699
	-60.70782	-33.58695
	-60.70716	-33.58692
	-60.70539	-33.58626
	-60.70495	-33.58606
	-60.70402	-33.58585
	-60.70372	-33.58572
	-60.70215	-33.58529
	-60.70149	-33.58506
	-60.70055	-33.58496
	-60.69968	-33.5849
	-60.69886	-33.58501
	-60.69804	-33.58527
	-60.69688	-33.58513
	-60.69583	-33.58489
	-60.695	-33.58481
	-60.69424	-33.58484
	-60.69353	-33.58479
	-60.69344	-33.58478
	-60.69296	-33.58457
	-60.69273	-33.58426
	-60.69245	-33.58406
	-60.69211	-33.58413
	-60.69168	-33.58436
	-60.69139	-33.58439
	-60.69114	-33.58433
	-60.69065	-33.58437
	-60.68951	-33.58469
	-60.68803	-33.58457
	-60.68775	-33.58462
	-60.68749	-33.58475
	-60.68701	-33.58507
	-60.68663	-33.58519
	-60.68599	-33.58523
	-60.68487	-33.58544
	-60.6846	-33.58547
	-60.68398	-33.58546
	-60.68378	-33.58551
	-60.68366	-33.5857
	-60.6836	-33.58604
	-60.68334	-33.58634
	-60.6831	-33.58653
	-60.68193	-33.58687
	-60.68163	-33.58706
	-60.6813	-33.58718
	-60.68084	-33.58713
	-60.68036	-33.58712
	-60.6801	-33.58715
	-60.6797	-33.58728
	-60.67842	-33.58759
	-60.67779	-33.5879
	-60.67695	-33.58803
	-60.67637	-33.58844
	-60.67598	-33.58869
	-60.67558	-33.58881
	-60.67496	-33.58881
	-60.67434	-33.58869
	-60.67386	-33.58883
	-60.67344	-33.58911
	-60.67306	-33.58961
	-60.67264	-33.58992
	-60.67195	-33.59003
	-60.67132	-33.59021
	-60.67048	-33.59079
	-60.66974	-33.59116
	-60.66901	-33.59142
	-60.66817	-33.59155
	-60.66733	-33.59163
	-60.66657	-33.5918
	-60.66603	-33.59212
	-60.66463	-33.59238
	-60.66425	-33.59265
	-60.66402	-33.59333
	-60.66368	-33.59366
	-60.6632	-33.59404
	-60.66279	-33.59429
	-60.66222	-33.59455
	-60.66137	-33.59511
	-60.66065	-33.59582
	-60.66045	-33.59605
	-60.66036	-33.59625
	-60.66031	-33.59674
	-60.65985	-33.5977
	-60.65979	-33.59788
	-60.65976	-33.59823
	-60.65969	-33.59838
	-60.65951	-33.59857
	-60.65925	-33.59902
	-60.65916	-33.59943
	-60.65888	-33.59996
	-60.65854	-33.60039
	-60.65838	-33.60053
	-60.65812	-33.6006
	-60.65791	-33.60047
	-60.65757	-33.60039
	-60.65722	-33.60047
	-60.65702	-33.6007
	-60.65689	-33.60169
	-60.65642	-33.60271
	-60.65633	-33.60313
	-60.65638	-33.60335
	-60.65647	-33.60359
	-60.65639	-33.60386
	-60.65617	-33.60406
	-60.65508	-33.60489
	-60.6544	-33.60531
	-60.65285	-33.60653
	-60.65285	-33.60677
	-60.65281	-33.60697
	-60.65259	-33.60721
	-60.65208	-33.60745
	-60.65157	-33.60745
	-60.65097	-33.60724
	-60.65022	-33.60679
	-60.64988	-33.60675
	-60.64957	-33.60702
	-60.64941	-33.60706
	-60.64909	-33.60705
	-60.64859	-33.60724
	-60.64815	-33.60754
	-60.64773	-33.60791
	-60.64695	-33.60881
	-60.64637	-33.60939
	-60.64599	-33.61001
	-60.64471	-33.61089
	-60.64398	-33.61142
	-60.64352	-33.61206
	-60.64339	-33.61236
	-60.64348	-33.61256
	-60.64377	-33.6127
	-60.64341	-33.61307
	-60.64293	-33.61338
	-60.64239	-33.61354
	-60.64178	-33.61383
	-60.64121	-33.61463
	-60.6407	-33.61547
	-60.64024	-33.61596
	-60.63965	-33.61648
	-60.63836	-33.61585
	-60.63806	-33.61584
	-60.6378	-33.61606
	-60.63748	-33.61651
	-60.63716	-33.61682
	-60.63689	-33.61689
	-60.63662	-33.6169
	-60.63616	-33.617
	-60.63562	-33.61728
	-60.635	-33.61785
	-60.63461	-33.61827
	-60.63452	-33.61865
	-60.63428	-33.61887
	-60.6339	-33.61904
	-60.63349	-33.61911
	-60.63311	-33.61909
	-60.63215	-33.61929
	-60.63179	-33.61951
	-60.63177	-33.61985
	-60.63186	-33.62038
	-60.63181	-33.62062
	-60.63159	-33.62079
	-60.63078	-33.62154
	-60.63035	-33.6218
	-60.62978	-33.6225
	-60.6295	-33.62267
	-60.62916	-33.62264
	-60.62892	-33.62267
	-60.62867	-33.62283
	-60.62867	-33.62334
	-60.62846	-33.62356
	-60.62794	-33.62375
	-60.62747	-33.62396
	-60.62702	-33.62427
	-60.62679	-33.62453
	-60.62595	-33.62502
	-60.62564	-33.62532
	-60.62477	-33.62577
	-60.62397	-33.62597
	-60.62331	-33.62605
	-60.62242	-33.62593
	-60.62111	-33.62591
	-60.62068	-33.62612
	-60.62044	-33.62649
	-60.6204	-33.62695
	-60.62043	-33.62722
	-60.62027	-33.62794
	-60.62	-33.62862
	-60.61975	-33.62883
	-60.61946	-33.62893
	-60.61913	-33.62893
	-60.61888	-33.62885
	-60.61825	-33.62853
	-60.61813	-33.6284
	-60.61794	-33.62818
	-60.61791	-33.62784
	-60.61802	-33.62733
	-60.61825	-33.6269
	-60.6182	-33.62644
	-60.61769	-33.62564
	-60.61735	-33.62548
	-60.61697	-33.6254
	-60.61661	-33.62542
	-60.61587	-33.62561
	-60.6153	-33.62572
	-60.6149	-33.62583
	-60.61463	-33.6262
	-60.61441	-33.62655
	-60.61392	-33.62683
	-60.61301	-33.6266
	-60.61195	-33.62678
	-60.61083	-33.62711
	-60.61053	-33.62749
	-60.61028	-33.62817
	-60.60955	-33.62875
	-60.60816	-33.62963
	-60.60709	-33.62995
	-60.6062	-33.63037
	-60.60541	-33.63046
	-60.60517	-33.63029
	-60.60515	-33.63006
	-60.60482	-33.62994
	-60.60453	-33.62989
	-60.6041	-33.62963
	-60.6036	-33.62946
	-60.60318	-33.62921
	-60.60274	-33.62826
	-60.60229	-33.62779
	-60.60152	-33.62745
	-60.60029	-33.62806
	-60.59995	-33.62835
	-60.59984	-33.62868
	-60.59933	-33.62907
	-60.59805	-33.62968
	-60.5959	-33.63041
	-60.59534	-33.63082
	-60.59479	-33.63113
	-60.59427	-33.63112
	-60.59342	-33.6309
	-60.59293	-33.63085
	-60.59211	-33.63136
	-60.59163	-33.63145
	-60.59083	-33.63178
	-60.59006	-33.63227
	-60.58975	-33.6323
	-60.58934	-33.63217
	-60.58841	-33.6317
	-60.58765	-33.63117
	-60.58732	-33.63102
	-60.58693	-33.63103
	-60.58654	-33.6313
	-60.58633	-33.63159
	-60.58662	-33.63242
	-60.58737	-33.63357
	-60.58733	-33.63397
	-60.58667	-33.63435
	-60.58599	-33.63434
	-60.58553	-33.63425
	-60.58509	-33.63439
	-60.58489	-33.63462
	-60.58476	-33.63496
	-60.58449	-33.63517
	-60.58399	-33.63511
	-60.58375	-33.63485
	-60.58368	-33.63449
	-60.58314	-33.63438
	-60.58242	-33.63443
	-60.58174	-33.63487
	-60.5814	-33.63512
	-60.58129	-33.63564
	-60.58114	-33.63595
	-60.58084	-33.63608
	-60.58051	-33.6361
	-60.58018	-33.63608
	-60.57989	-33.63597
	-60.57913	-33.63607
	-60.57842	-33.6367
	-60.57685	-33.63766
	-60.57636	-33.63791
	-60.57563	-33.63783
	-60.57495	-33.6378
	-60.57452	-33.63779
	-60.57392	-33.63783
	-60.57364	-33.63777
	-60.57328	-33.63724
	-60.57298	-33.63702
	-60.57268	-33.63696
	-60.57143	-33.63721
	-60.57073	-33.63737
	-60.57047	-33.63767
	-60.57039	-33.63802
	-60.57054	-33.63838
	-60.57052	-33.63882
	-60.57036	-33.63931
	-60.57024	-33.63943
	-60.56994	-33.63978
	-60.56935	-33.64024
	-60.56852	-33.64048
	-60.56805	-33.6408
	-60.56694	-33.64132
	-60.56634	-33.64148
	-60.5656	-33.64215
	-60.56355	-33.64366
	-60.56268	-33.64409
	-60.56236	-33.64453
	-60.56198	-33.64489
	-60.56112	-33.64538
	-60.56	-33.64555
	-60.55936	-33.64567
	-60.55884	-33.64562
	-60.55762	-33.64621
	-60.55739	-33.64647
	-60.55709	-33.64661
	-60.55609	-33.64654
	-60.55571	-33.64642
	-60.55366	-33.64653
	-60.5524	-33.6461
	-60.5515	-33.64626
	-60.55058	-33.64664
	-60.54972	-33.64677
	-60.5488	-33.64675
	-60.54817	-33.64663
	-60.54773	-33.64646
	-60.54672	-33.64682
	-60.54624	-33.64682
	-60.54513	-33.64672
	-60.54445	-33.64671
	-60.544	-33.64677
	-60.54363	-33.64683
	-60.5422	-33.64714
	-60.54176	-33.64735
	-60.54114	-33.64731
	-60.54053	-33.64696
	-60.53985	-33.64699
	-60.5378	-33.64734
	-60.53715	-33.64748
	-60.53673	-33.64769
	-60.53632	-33.648
	-60.53586	-33.64822
	-60.5354	-33.64827
	-60.53503	-33.64811
	-60.53443	-33.64793
	-60.53379	-33.64826
	-60.53278	-33.64856
	-60.53174	-33.64868
	-60.53109	-33.64857
	-60.53078	-33.64835
	-60.53002	-33.64832
	-60.52938	-33.64849
	-60.52832	-33.64893
	-60.5271	-33.64888
	-60.52646	-33.64839
	-60.52551	-33.64805
	-60.52511	-33.64808
	-60.52401	-33.64867
	-60.52335	-33.64876
	-60.52307	-33.64854
	-60.52286	-33.64825
	-60.52281	-33.6476
	-60.52279	-33.64687
	-60.52284	-33.64641
	-60.52268	-33.64614
	-60.52193	-33.64554
	-60.52129	-33.64533
	-60.52085	-33.64502
	-60.5202	-33.64472
	-60.5197	-33.64476
	-60.51885	-33.64429
	-60.51768	-33.64454
	-60.51696	-33.64481
	-60.51596	-33.64462
	-60.51405	-33.64453
	-60.5134	-33.64468
	-60.51309	-33.64477
	-60.51251	-33.64464
	-60.51203	-33.6448
	-60.51002	-33.64607
	-60.50959	-33.64614
	-60.50865	-33.64583
	-60.50816	-33.64578
	-60.50766	-33.64582
	-60.50686	-33.64596
	-60.50612	-33.646
	-60.50494	-33.64585
	-60.50385	-33.64576
	-60.50347	-33.64594
	-60.50245	-33.64568
	-60.50115	-33.6448
	-60.50048	-33.64455
	-60.49949	-33.64448
	-60.49832	-33.6446
	-60.49717	-33.64426
	-60.49607	-33.64388
	-60.49522	-33.64342
	-60.49461	-33.64286
	-60.49332	-33.64288
	-60.492	-33.64305
	-60.49111	-33.64332
	-60.49027	-33.64343
	-60.48965	-33.64316
	-60.48911	-33.64259
	-60.48886	-33.64241
	-60.48773	-33.64226
	-60.48685	-33.6416
	-60.48418	-33.64134
	-60.48205	-33.64005
	-60.48031	-33.63887
	-60.478	-33.63808
	-60.4768	-33.63753
	-60.47616	-33.63755
	-60.47534	-33.63769
	-60.47451	-33.638
	-60.47302	-33.63802
	-60.47177	-33.6372
	-60.4714	-33.63715
	-60.47053	-33.63724
	-60.46957	-33.63754
	-60.46919	-33.63772
	-60.46881	-33.6378
	-60.46828	-33.63761
	-60.46799	-33.63736
	-60.4679	-33.637
	-60.46816	-33.63622
	-60.46805	-33.63574
	-60.46779	-33.63547
	-60.46663	-33.63547
	-60.46552	-33.63551
	-60.46495	-33.63523
	-60.4639	-33.63491
	-60.46252	-33.63386
	-60.46236	-33.63321
	-60.46214	-33.63281
	-60.46204	-33.63253
	-60.46211	-33.63237
	-60.46217	-33.6323
	-60.46221	-33.63217
	-60.46202	-33.63182
	-60.46156	-33.63142
	-60.46132	-33.63139
	-60.46112	-33.63137
	-60.46025	-33.63156
	-60.45981	-33.63155
	-60.45942	-33.6312
	-60.4592	-33.63071
	-60.45896	-33.63006
	-60.45872	-33.6295
	-60.45796	-33.62859
	-60.45761	-33.62795
	-60.45749	-33.62737
	-60.45752	-33.62687
	-60.45812	-33.62598
	-60.45859	-33.62503
	-60.45852	-33.62466
	-60.45828	-33.62432
	-60.45775	-33.62392
	-60.45702	-33.62345
	-60.45693	-33.62303
	-60.45723	-33.62261
	-60.45847	-33.622
	-60.45894	-33.62171
	-60.45897	-33.6213
	-60.45852	-33.61941
	-60.45831	-33.61911
	-60.45791	-33.61842
	-60.45786	-33.6178
	-60.45836	-33.61618
	-60.45817	-33.61517
	-60.4591	-33.61323
	-60.45902	-33.61282
	-60.45902	-33.61242
	-60.45953	-33.6117
	-60.46048	-33.61024
	-60.4606	-33.60945
	-60.46047	-33.60863
	-60.45997	-33.60823
	-60.45918	-33.60814
	-60.45879	-33.60786
	-60.45856	-33.60747
	-60.4586	-33.60711
	-60.45894	-33.60687
	-60.45909	-33.60663
	-60.45911	-33.60635
	-60.45881	-33.60576
	-60.45834	-33.60535
	-60.45745	-33.60472
	-60.45716	-33.60399
	-60.45683	-33.60353
	-60.45691	-33.60309
	-60.4568	-33.60286
	-60.45649	-33.60123
	-60.45677	-33.60065
	-60.45664	-33.60036
	-60.45675	-33.59956
	-60.45707	-33.59878
	-60.45743	-33.59841
	-60.45796	-33.59775
	-60.45811	-33.59715
	-60.45785	-33.59648
	-60.45761	-33.59613
	-60.45747	-33.59584
	-60.45731	-33.59567
	-60.45729	-33.59388
	-60.45722	-33.5929
	-60.45676	-33.59221
	-60.45635	-33.5917
	-60.45639	-33.59141
	-60.45645	-33.59106
	-60.45679	-33.59058
	-60.45725	-33.59023
	-60.45798	-33.58917
	-60.4586	-33.58851
	-60.45847	-33.58766
	-60.45835	-33.58738
	-60.45805	-33.58695
	-60.45771	-33.58592
	-60.45763	-33.5851
	-60.45769	-33.58445
	-60.45729	-33.58371
	-60.45727	-33.58316
	-60.45738	-33.58272
	-60.45744	-33.58233
	-60.45702	-33.58209
	-60.45654	-33.58189
	-60.45621	-33.58165
	-60.4561	-33.58139
	-60.45534	-33.58088
	-60.4548	-33.58066
	-60.45427	-33.58058
	-60.45388	-33.58027
	-60.45354	-33.57969
	-60.45308	-33.57952
	-60.45231	-33.57942
	-60.45161	-33.57949
	-60.45111	-33.5794
	-60.45083	-33.57921
	-60.4497	-33.57906
	-60.44916	-33.57905
	-60.44884	-33.57879
	-60.4486	-33.57836
	-60.44845	-33.57766
	-60.44805	-33.5768
	-60.44629	-33.57535
	-60.44616	-33.57502
	-60.44599	-33.57371
	-60.44587	-33.57316
	-60.44544	-33.57227
	-60.44515	-33.57192
	-60.44455	-33.57163
	-60.44424	-33.57169
	-60.44388	-33.57139
	-60.44336	-33.57089
	-60.44338	-33.57055
	-60.44276	-33.57014
	-60.44211	-33.56947
	-60.44186	-33.56893
	-60.44172	-33.5684
	-60.44101	-33.56757
	-60.4406	-33.56728
	-60.44018	-33.5671
	-60.43869	-33.56652
	-60.43761	-33.56605
	-60.43711	-33.5656
	-60.43687	-33.5653
	-60.43657	-33.56516
	-60.43575	-33.56517
	-60.43472	-33.56506
	-60.4342	-33.56489
	-60.43323	-33.56487
	-60.4325	-33.56476
	-60.43178	-33.56473
	-60.43114	-33.56482
	-60.43031	-33.56522
	-60.4298	-33.56524
	-60.42907	-33.56513
	-60.42682	-33.56512
	-60.42615	-33.56499
	-60.42472	-33.56436
	-60.42424	-33.56412
	-60.42376	-33.5638
	-60.42346	-33.5634
	-60.42332	-33.56249
	-60.42282	-33.56214
	-60.42227	-33.56188
	-60.42179	-33.56153
	-60.42129	-33.56127
	-60.42091	-33.56088
	-60.42076	-33.56038
	-60.42045	-33.55983
	-60.4195	-33.55914
	-60.41849	-33.55855
	-60.41851	-33.55773
	-60.41862	-33.55714
	-60.41839	-33.55528
	-60.41813	-33.55482
	-60.41819	-33.55448
	-60.4186	-33.55372
	-60.41873	-33.55331
	-60.41863	-33.55306
	-60.41832	-33.55287
	-60.41795	-33.55289
	-60.41745	-33.55262
	-60.41716	-33.55221
	-60.41699	-33.55173
	-60.41707	-33.55112
	-60.4174	-33.55054
	-60.41781	-33.54988
	-60.41792	-33.5494
	-60.41776	-33.54893
	-60.41724	-33.5486
	-60.41669	-33.54838
	-60.41604	-33.54801
	-60.41515	-33.54723
	-60.41466	-33.54662
	-60.41456	-33.54605
	-60.414	-33.54532
	-60.41377	-33.54479
	-60.41407	-33.54436
	-60.41472	-33.54414
	-60.41564	-33.5438
	-60.41612	-33.54299
	-60.41661	-33.54245
	-60.41722	-33.54195
	-60.41736	-33.54072
	-60.41793	-33.54022
	-60.41844	-33.5398
	-60.41877	-33.53941
	-60.41888	-33.53915
	-60.41895	-33.53878
	-60.4189	-33.53824
	-60.41897	-33.53773
	-60.41935	-33.53721
	-60.42001	-33.53669
	-60.42119	-33.53549
	-60.42141	-33.53515
	-60.42144	-33.5346
	-60.42135	-33.53428
	-60.42112	-33.53388
	-60.4211	-33.53343
	-60.42127	-33.53294
	-60.42122	-33.5324
	-60.42131	-33.53183
	-60.42336	-33.52979
	-60.42343	-33.5297
	-60.42375	-33.52927
	-60.42392	-33.52884
	-60.42391	-33.52839
	-60.42358	-33.52796
	-60.42302	-33.52779
	-60.4217	-33.52704
	-60.42102	-33.52674
	-60.42062	-33.52621
	-60.42051	-33.52549
	-60.42071	-33.5246
	-60.42077	-33.52349
	-60.42141	-33.52246
	-60.42186	-33.52178
	-60.42199	-33.52143
	-60.42195	-33.52099
	-60.4214	-33.5207
	-60.42089	-33.52052
	-60.42038	-33.52008
	-60.42009	-33.51945
	-60.42001	-33.51906
	-60.4201	-33.51865
	-60.42012	-33.51789
	-60.42034	-33.51712
	-60.42064	-33.51674
	-60.42108	-33.51661
	-60.42147	-33.51642
	-60.42168	-33.51631
	-60.42223	-33.51593
	-60.42248	-33.51526
	-60.42192	-33.51387
	-60.42176	-33.5128
	-60.4214	-33.51232
	-60.42166	-33.51164
	-60.42215	-33.51089
	-60.42207	-33.51035
	-60.42181	-33.50955
	-60.42114	-33.50891
	-60.42117	-33.50822
	-60.42131	-33.50741
	-60.42116	-33.50649
	-60.42098	-33.5061
	-60.42119	-33.50484
	-60.42101	-33.50453
	-60.41979	-33.5038
	-60.41929	-33.50357
	-60.41897	-33.50318
	-60.41842	-33.50216
	-60.41834	-33.50181
	-60.41845	-33.50152
	-60.41878	-33.50127
	-60.41904	-33.5009
	-60.41916	-33.50046
	-60.41902	-33.50023
	-60.41862	-33.49974
	-60.41707	-33.49901
	-60.41658	-33.49858
	-60.41634	-33.49809
	-60.41627	-33.49773
	-60.41658	-33.49729
	-60.41703	-33.49696
	-60.41738	-33.49663
	-60.41741	-33.49609
	-60.41728	-33.49591
	-60.4176	-33.49479
	-60.41769	-33.4942
	-60.41755	-33.49362
	-60.41722	-33.49328
	-60.41677	-33.49297
	-60.41656	-33.49261
	-60.41666	-33.49159
	-60.41693	-33.49092
	-60.41691	-33.48974
	-60.417	-33.48907
	-60.4169	-33.48852
	-60.41666	-33.48823
	-60.41636	-33.48776
	-60.4159	-33.48673
	-60.41553	-33.48595
	-60.41532	-33.48563
	-60.41484	-33.4854
	-60.41417	-33.48519
	-60.4137	-33.48488
	-60.41338	-33.48452
	-60.4133	-33.48406
	-60.41354	-33.48149
	-60.41343	-33.48097
	-60.41313	-33.48036
	-60.41257	-33.47972
	-60.41241	-33.47944
	-60.41185	-33.47909
	-60.41153	-33.47878
	-60.41138	-33.47842
	-60.41116	-33.47748
	-60.41098	-33.47646
	-60.41104	-33.4755
	-60.41155	-33.47481
	-60.41187	-33.47376
	-60.4121	-33.47253
	-60.41194	-33.47175
	-60.41173	-33.47116
	-60.41144	-33.47078
	-60.41122	-33.47032
	-60.41068	-33.46978
	-60.41047	-33.46937
	-60.41019	-33.46773
	-60.40826	-33.46572
	-60.40751	-33.46535
	-60.40373	-33.46251
	-60.40245	-33.46189
	-60.40165	-33.46102
	-60.40013	-33.45993
	-60.39807	-33.45747
	-60.3977	-33.45675
	-60.39513	-33.45518
	-60.39476	-33.45409
	-60.39356	-33.45297
	-60.3932	-33.45218
	-60.39269	-33.45125
	-60.39224	-33.45089
	-60.39175	-33.45063
	-60.39083	-33.45024
	-60.3904	-33.44996
	-60.39006	-33.44962
	-60.38981	-33.44885
	-60.38948	-33.44822
	-60.38909	-33.44793
	-60.38869	-33.44778
	-60.38816	-33.44783
	-60.38773	-33.4479
	-60.38736	-33.44769
	-60.387	-33.44716
	-60.38647	-33.44678
	-60.38593	-33.44659
	-60.3857	-33.44657
	-60.38549	-33.44647
	-60.38514	-33.44623
	-60.38489	-33.44594
	-60.38472	-33.44569
	-60.38465	-33.44521
	-60.38445	-33.44487
	-60.38405	-33.44466
	-60.38298	-33.44444
	-60.38246	-33.44386
	-60.38197	-33.44366
	-60.38088	-33.44353
	-60.38044	-33.44331
	-60.38003	-33.44271
	-60.37978	-33.44201
	-60.37943	-33.44185
	-60.37711	-33.44175
	-60.37667	-33.44152
	-60.375	-33.4403
	-60.37441	-33.43996
	-60.37375	-33.43961
	-60.37253	-33.43939
	-60.37206	-33.43845
	-60.37166	-33.438
	-60.37091	-33.43788
	-60.37054	-33.43768
	-60.3701	-33.43708
	-60.36934	-33.43623
	-60.3682	-33.43533
	-60.367	-33.43484
	-60.35899	-33.43057
	-60.3576	-33.43063
	-60.35549	-33.42921
	-60.35468	-33.42853
	-60.35367	-33.4288
	-60.35246	-33.42777
	-60.35146	-33.42766
	-60.34794	-33.42542
	-60.34711	-33.42525
	-60.34533	-33.42386
	-60.34446	-33.42248
	-60.34387	-33.42146
	-60.3418	-33.41816
	-60.34056	-33.41603
	-60.33882	-33.41641
	-60.33835	-33.41594
	-60.33796	-33.41493
	-60.33768	-33.41362
	-60.33661	-33.41321
	-60.33491	-33.40944
	-60.33416	-33.4087
	-60.33352	-33.40748
	-60.33347	-33.40672
	-60.33404	-33.40572
	-60.33395	-33.40448
	-60.33438	-33.40365
	-60.33448	-33.40291
	-60.33424	-33.40174
	-60.33423	-33.40112
	-60.33427	-33.40076
	-60.33474	-33.39993
	-60.33481	-33.39915
	-60.33458	-33.39871
	-60.33426	-33.39832
	-60.33432	-33.39797
	-60.33468	-33.3975
	-60.33477	-33.39694
	-60.33461	-33.39662
	-60.33408	-33.39662
	-60.33339	-33.39704
	-60.33255	-33.39714
	-60.33216	-33.39702
	-60.33184	-33.39648
	-60.3316	-33.3958
	-60.33069	-33.39505
	-60.33016	-33.3943
	-60.33	-33.39356
	-60.33021	-33.39293
	-60.33076	-33.3924
	-60.33079	-33.3918
	-60.33053	-33.39144
	-60.33003	-33.39133
	-60.3295	-33.39142
	-60.32901	-33.39137
	-60.32903	-33.39096
	-60.32941	-33.3898
	-60.32923	-33.38952
	-60.32853	-33.3894
	-60.32814	-33.38921
	-60.32739	-33.38709
	-60.32707	-33.38655
	-60.3266	-33.38611
	-60.32621	-33.38525
	-60.32589	-33.38474
	-60.32534	-33.38403
	-60.32489	-33.38316
	-60.32492	-33.3828
	-60.3251	-33.3826
	-60.32536	-33.38246
	-60.32596	-33.38237
	-60.32616	-33.38219
	-60.32622	-33.3813
	-60.32604	-33.3808
	-60.32562	-33.3805
	-60.32516	-33.37893
	-60.3247	-33.3781
	-60.324	-33.37762
	-60.32329	-33.37735
	-60.32295	-33.37692
	-60.32243	-33.37513
	-60.32174	-33.37387
	-60.32172	-33.37346
	-60.32283	-33.37255
	-60.32309	-33.37229
	-60.32327	-33.37204
	-60.32331	-33.37197
	-60.3238	-33.37057
	-60.32609	-33.36843
	-60.32683	-33.36769
	-60.32675	-33.36675
	-60.32643	-33.36656
	-60.32577	-33.36666
	-60.32542	-33.36648
	-60.32528	-33.36596
	-60.32518	-33.36508
	-60.3251	-33.36461
	-60.32491	-33.36429
	-60.32432	-33.36356
	-60.32471	-33.36293
	-60.32466	-33.36252
	-60.3247	-33.36179
	-60.32517	-33.36136
	-60.32532	-33.36068
	-60.32462	-33.3603
	-60.32415	-33.36009
	-60.3239	-33.35968
	-60.32398	-33.35911
	-60.32459	-33.35891
	-60.32557	-33.35874
	-60.32609	-33.35896
	-60.32638	-33.35925
	-60.32671	-33.35943
	-60.32706	-33.35899
	-60.32692	-33.35862
	-60.32643	-33.35804
	-60.32585	-33.35761
	-60.32589	-33.35725
	-60.32573	-33.3565
	-60.32526	-33.35596
	-60.32466	-33.35569
	-60.32392	-33.35591
	-60.32329	-33.35581
	-60.32271	-33.35539
	-60.32241	-33.35479
	-60.32178	-33.35443
	-60.32182	-33.35375
	-60.32222	-33.35278
	-60.32286	-33.3523
	-60.32386	-33.35158
	-60.32408	-33.35105
	-60.32394	-33.35073
	-60.32369	-33.35047
	-60.32313	-33.35019
	-60.32123	-33.34874
	-60.32086	-33.3482
	-60.3198	-33.34719
	-60.31946	-33.34651
	-60.31645	-33.34395
	-60.316	-33.34314
	-60.3153	-33.34137
	-60.31427	-33.33982
	-60.31318	-33.33847
	-60.31125	-33.33715
	-60.31047	-33.3363
	-60.31003	-33.33534
	-60.30907	-33.33475
	-60.30737	-33.33363
	-60.30673	-33.33328
	-60.30548	-33.33207
	-60.30417	-33.33109
	-60.3025	-33.32946
	-60.30089	-33.32833
	-60.29854	-33.3275
	-60.29643	-33.32627
	-60.29541	-33.32587
	-60.29233	-33.32372
	-60.29092	-33.32334
	-60.28954	-33.322
	-60.28908	-33.32125
	-60.28858	-33.31981
	-60.28806	-33.31934
	-60.28742	-33.31834
	-60.287	-33.31797
	-60.28663	-33.31748
	-60.28488	-33.31637
	-60.28457	-33.31585
	-60.28437	-33.31489
	-60.28375	-33.31427
	-60.28292	-33.3137
	-60.28283	-33.3133
	-60.28321	-33.31233
	-60.28367	-33.31138
	-60.28373	-33.31098
	-60.28417	-33.31035
	-60.28438	-33.30943
	-60.28424	-33.30869
	-60.28384	-33.30802
	-60.28378	-33.30724
	-60.28381	-33.30632
	-60.28277	-33.30622
	-60.28177	-33.3059
	-60.28139	-33.305
	-60.28042	-33.30353
	-60.28002	-33.30198
	-60.28037	-33.30102
	-60.2803	-33.29972
	-60.27826	-33.29843
	-60.27711	-33.29728
	-60.27607	-33.29329
	-60.27621	-33.29058
	-60.27522	-33.2897
	-60.27502	-33.28954
	-60.27373	-33.28883
	-60.27131	-33.28795
	-60.27068	-33.28734
	-60.27035	-33.28652
	-60.26962	-33.28592
	-60.26922	-33.28518
	-60.26828	-33.28443
	-60.26748	-33.28364
	-60.26568	-33.28253
	-60.26494	-33.28189
	-60.2646	-33.28118
	-60.26468	-33.2806
	-60.26544	-33.28013
	-60.26663	-33.28013
	-60.26764	-33.27983
	-60.26856	-33.27757
	-60.26815	-33.27629
	-60.26683	-33.27623
	-60.26547	-33.27698
	-60.26503	-33.27665
	-60.26478	-33.27601
	-60.26595	-33.27531
	-60.26613	-33.2745
	-60.26554	-33.27373
	-60.2661	-33.27233
	-60.26524	-33.27096
	-60.26575	-33.27001
	-60.26786	-33.26901
	-60.26916	-33.26932
	-60.26969	-33.27045
	-60.27089	-33.26995
	-60.27095	-33.26808
	-60.2703	-33.26705
	-60.26913	-33.26658
	-60.2689	-33.26583
	-60.27002	-33.26568
	-60.27127	-33.26632
	-60.27212	-33.26635
	-60.27267	-33.26615
	-60.27323	-33.26484
	-60.27291	-33.26392
	-60.27202	-33.26361
	-60.27107	-33.26385
	-60.26746	-33.26572
	-60.26532	-33.26875
	-60.26164	-33.27037
	-60.25398	-33.27515
	-60.25202	-33.27577
	-60.26022	-33.26161
	-60.22118	-33.28238
	-60.19612	-33.29788
	-60.18273	-33.31681
	-60.17278	-33.33747
	-60.17037	-33.3475
	-60.16282	-33.35467
	-60.1357	-33.36184
	-60.11274	-33.37044
	-60.10697	-33.3744
	-60.10223	-33.37799
	-60.09708	-33.38327
	-60.08339	-33.39939
	-60.0779	-33.40747
	-60.07381	-33.4143
	-60.06995	-33.41963
	-60.06447	-33.4261
	-60.05454	-33.43641
	-60.04894	-33.44189
	-60.04117	-33.44811
	-60.02806	-33.45482
	-60.00798	-33.46444
	-59.99631	-33.47017
	-59.98682	-33.4711
	-59.97763	-33.47124
	-59.96934	-33.4705
	-59.96205	-33.47013
	-59.95621	-33.47031
	-59.94747	-33.47096
	-59.93984	-33.47212
	-59.9343	-33.47414
	-59.92929	-33.47655
	-59.92595	-33.47906
	-59.92425	-33.48146
	-59.91837	-33.48993
	-59.9102	-33.49897
	-59.90514	-33.5037
	-59.89792	-33.50921
	-59.8482	-33.52267
	-59.83717	-33.5265
	-59.83146	-33.52879
	-59.82499	-33.53185
	-59.81915	-33.53581
	-59.81448	-33.54027
	-59.81181	-33.54356
	-59.80922	-33.54789
	-59.80763	-33.55209
	-59.80669	-33.55594
	-59.80613	-33.56012
	-59.80619	-33.56592
	-59.80822	-33.57183
	-59.80889	-33.57634
	-59.81003	-33.58358
	-59.80986	-33.58569
	-59.80928	-33.58788
	-59.80862	-33.58951
	-59.80758	-33.59106
	-59.80595	-33.59281
	-59.80394	-33.59434
	-59.7974	-33.59801
	-59.78948	-33.60237
	-59.77633	-33.60849
	-59.77144	-33.60955
	-59.76738	-33.60972
	-59.75849	-33.60907
	-59.74605	-33.60691
	-59.72679	-33.60335
	-59.71874	-33.60291
	-59.71079	-33.60363
	-59.70373	-33.60615
	-59.68191	-33.6126
	-59.67067	-33.61615
	-59.66132	-33.61998
	-59.65442	-33.62427
	-59.64879	-33.62949
	-59.64282	-33.63545
	-59.63908	-33.63978
	-59.6368	-33.64302
	-59.63545	-33.64548
	-59.63262	-33.65391
	-59.63127	-33.66288
	-59.63046	-33.67271
	-59.62888	-33.6775
	-59.62643	-33.6811
	-59.62318	-33.68393
	-59.6169	-33.68763
	-59.61359	-33.68921
	-59.6109	-33.68978
	-59.60856	-33.69025
	-59.60545	-33.69048
	-59.60162	-33.69046
	-59.59575	-33.6902
	-59.59103	-33.68889
	-59.58584	-33.68558
	-59.58274	-33.68268
	-59.57989	-33.67958
	-59.57339	-33.67087
	-59.56205	-33.65741
	-59.55468	-33.64975
	-59.54437	-33.64133
	-59.53654	-33.63582
	-59.52986	-33.63274
	-59.52377	-33.63098
	-59.51839	-33.63039
	-59.51354	-33.63066
	-59.50833	-33.63173
	-59.5032	-33.63359
	-59.49804	-33.63633
	-59.49202	-33.64004
	-59.48289	-33.6471
	-59.47892	-33.65469
	-59.47171	-33.67498
	-59.46931	-33.70012
	-59.45283	-33.72097
	-59.43085	-33.73239
	-59.39755	-33.73667
	-59.33026	-33.73068
	-59.27773	-33.72525
	-59.26307	-33.72358
	-59.25691	-33.72337
	-59.25167	-33.72453
	-59.24689	-33.72624
	-59.24038	-33.73027
	-59.23785	-33.7326
	-59.23593	-33.73474
	-59.23483	-33.73664
	-59.2342	-33.73877
	-59.23476	-33.74122
	-59.23619	-33.74452
	-59.24557	-33.76
	-59.24888	-33.7666
	-59.25051	-33.77166
	-59.25277	-33.7789
	-59.25373	-33.78464
	-59.25396	-33.78984
	-59.25366	-33.79418
	-59.25285	-33.79717
	-59.25182	-33.79943
	-59.25042	-33.80182
	-59.24804	-33.80461
	-59.23654	-33.81172
	-59.23014	-33.81423
	-59.221	-33.81511
	-59.21332	-33.81381
	-59.20504	-33.81124
	-59.19328	-33.80859
	-59.18018	-33.80638
	-59.17543	-33.806
	-59.17213	-33.80626
	-59.16993	-33.80908
	-59.1663	-33.8133
	-59.15105	-33.83597
	-59.13285	-33.84766
	-59.11877	-33.84937
	-59.10264	-33.84624
	-59.07552	-33.8374
	-59.0556	-33.83483
	-59.04256	-33.83511
	-59.03741	-33.83996
	-59.02848	-33.84652
	-59.01921	-33.84795
	-59.00925	-33.8451
	-58.99998	-33.84082
	-58.99415	-33.84139
	-58.98968	-33.8451
	-58.98797	-33.85393
	-58.98042	-33.86876
	-58.97287	-33.87269
	-58.96496	-33.87411
	-58.93819	-33.87332
	-58.92139	-33.87994
	-59.02473	-34.02023
	-59.07143	-34.13681
	-59.02817	-34.18057
	-58.97703	-34.24673
	-59.05083	-34.40691
	-59.08104	-34.46694
	-59.05014	-34.50599
	-59.05083	-34.60891
	-59.05838	-34.68969
	-59.00207	-34.77884
	-58.94508	-34.85889
	-58.83316	-34.97656
	-58.76381	-35.0907
	-58.54134	-35.10924
	-58.35869	-35.0744
	-58.25912	-35.05698
	-58.06343	-35.06654
	-57.93434	-35.1244
	-57.67273	-34.89832
	-57.57079	-34.77255
	-57.53408	-34.78277
	-57.3341	-34.86608
	-56.99998	-35.18441
	-56.73249	-35.17757
	-55.86878	-35.63219
	-55.70226	-35.78473
	-54.80416	-36.35997
	-56.27095	-37.86917
	-56.94067	-37.50648
	-57.2506	-37.29046
	-57.58684	-37.28038
	-57.86557	-37.36021
	-58.12189	-37.29667
	-58.27393	-37.09715
	-58.56923	-36.94541
	-58.89085	-36.66996
	-59.21929	-36.51973
	-59.45612	-36.30718
	-59.79152	-36.33027
	-60.00789	-36.08728
	-60.19988	-36.0865
	-60.5293	-35.87593
	-60.92986	-35.75264
	-60.98054	-35.6244
	-60.91622	-35.55703
	-61.19008	-35.33313
	-61.34121	-35.01397
	-61.32459	-34.69815
	-61.32399	-34.69825
	-61.32268	-34.69802
	-61.32248	-34.69791
	-61.32152	-34.69666
	-61.32118	-34.69528
	-61.32159	-34.69354
	-61.32171	-34.6934
	-61.32292	-34.6927
	-61.3243	-34.69247
	-61.32269	-34.66201
	-61.87822	-34.57298
	-62.34001	-34.38591
END
END
