Australia_South Australia
1
	129.0	-31.90256
	129.0	-31.64173
	128.9973	-31.64303
	128.9947	-31.64221
	128.9954	-31.63955
	128.9973	-31.63833
	128.9991	-31.63745
	129.0	-31.63776
	129.0	-29.09965
	129.0001	-28.97889
	129.0016	-28.16985
	129.0015	-27.97166
	129.0011	-27.68314
	129.0011	-27.61102
	129.0003	-27.03399
	129.0003	-26.96186
	129.0001	-26.81761
	129.0	-26.69223
	129.0	-26.05322
	128.9998	-25.99857
	132.9402	-25.99863
	137.7683	-25.99997
	137.988	-26.00001
	137.9881	-26.00017
	137.9881	-26.00047
	137.9882	-26.00074
	137.9882	-26.00091
	137.9885	-26.00173
	137.9886	-26.00183
	137.9887	-26.00218
	137.9888	-26.00222
	137.989	-26.00271
	137.9892	-26.00307
	137.9893	-26.00335
	137.9894	-26.00374
	137.9896	-26.00419
	137.9896	-26.00436
	137.9897	-26.00452
	137.9898	-26.00486
	137.9898	-26.00501
	137.9899	-26.00504
	137.9899	-26.0054
	137.99	-26.00562
	137.9904	-26.00543
	137.993	-26.00661
	137.9933	-26.0064
	137.9937	-26.00609
	137.9952	-26.00442
	137.9952	-26.00438
	137.9975	-26.00185
	137.9986	-26.00102
	137.9995	-26.0
	138.0	-26.0
	138.1893	-25.99999
	138.3785	-25.99995
	139.2302	-25.99982
	139.4939	-26.00022
	140.791	-26.00002
	141.0001	-26.00102
	141.0	-26.06927
	141.0	-28.88217
	141.0004	-29.00037
	141.0	-29.11319
	141.0	-29.22643
	141.0	-29.33967
	141.0	-29.45291
	141.0	-29.56615
	141.0	-29.67939
	141.0014	-32.07788
	141.0017	-32.31003
	141.0017	-32.40104
	141.0018	-32.49205
	141.0019	-32.58307
	141.0019	-32.67408
	141.002	-32.76509
	141.0021	-32.8561
	141.0021	-32.94712
	141.0016	-32.98716
	141.0022	-33.03813
	141.0023	-33.12914
	141.0024	-33.22015
	141.0024	-33.31705
	141.0024	-33.38586
	141.0025	-33.41439
	141.0025	-33.44291
	141.0025	-33.47144
	141.0025	-33.49997
	141.0026	-33.52849
	141.0026	-33.55702
	141.0026	-33.58555
	141.0026	-33.61407
	141.0027	-33.6426
	141.0027	-33.67113
	141.0027	-33.69965
	141.0027	-33.72818
	141.0027	-33.75671
	141.0028	-33.78524
	141.0028	-33.81376
	141.0028	-33.84229
	141.0028	-33.87082
	141.0028	-33.88461
	141.0029	-33.89934
	141.0029	-33.93832
	141.0029	-33.94876
	141.0029	-33.95921
	141.0029	-33.96966
	141.0029	-33.9801
	141.0029	-33.99055
	141.0029	-34.001
	141.0029	-34.01145
	141.003	-34.02188
	141.0028	-34.02178
	141.0024	-34.02156
	141.0022	-34.02128
	141.0019	-34.02107
	141.0016	-34.02076
	141.0013	-34.02052
	141.001	-34.02029
	141.0007	-34.0201
	141.0003	-34.01995
	141.0	-34.01982
	140.9996	-34.01968
	140.9993	-34.01955
	140.9989	-34.01952
	140.9985	-34.01957
	140.9981	-34.01968
	140.9977	-34.01984
	140.9974	-34.02002
	140.997	-34.02025
	140.9966	-34.02056
	140.9962	-34.02074
	140.9957	-34.02131
	140.9953	-34.02192
	140.995	-34.02224
	140.9948	-34.02252
	140.9947	-34.02286
	140.9944	-34.02363
	140.9943	-34.02396
	140.9942	-34.0243
	140.9941	-34.02499
	140.9941	-34.02638
	140.9941	-34.02673
	140.9942	-34.02707
	140.9943	-34.02741
	140.9944	-34.02777
	140.9946	-34.02811
	140.9946	-34.02846
	140.9947	-34.0288
	140.9947	-34.02917
	140.9946	-34.02954
	140.9944	-34.02989
	140.9942	-34.03019
	140.994	-34.03049
	140.9939	-34.03081
	140.9937	-34.03111
	140.9934	-34.03138
	140.9931	-34.0316
	140.9927	-34.03177
	140.9923	-34.03192
	140.9919	-34.03197
	140.9911	-34.03197
	140.9907	-34.03192
	140.9903	-34.03189
	140.99	-34.03177
	140.9896	-34.0316
	140.9893	-34.03138
	140.989	-34.03116
	140.9887	-34.03098
	140.9884	-34.03076
	140.988	-34.03053
	140.9878	-34.03028
	140.9875	-34.03002
	140.9873	-34.02972
	140.9871	-34.02942
	140.9869	-34.02912
	140.9867	-34.02882
	140.9865	-34.02853
	140.9862	-34.02824
	140.9858	-34.02762
	140.9857	-34.02729
	140.9855	-34.02662
	140.9854	-34.02626
	140.9853	-34.02594
	140.9853	-34.02561
	140.9853	-34.02521
	140.9854	-34.02489
	140.9854	-34.02455
	140.9853	-34.02422
	140.9855	-34.02336
	140.9855	-34.02302
	140.9855	-34.02269
	140.9857	-34.02239
	140.9858	-34.02205
	140.9857	-34.02172
	140.9857	-34.0214
	140.9857	-34.02106
	140.9855	-34.02074
	140.9853	-34.02044
	140.9851	-34.02017
	140.9848	-34.0199
	140.9845	-34.01968
	140.9843	-34.01943
	140.984	-34.01916
	140.9837	-34.01891
	140.9833	-34.01871
	140.983	-34.01851
	140.9826	-34.01837
	140.9819	-34.01806
	140.9816	-34.01784
	140.9813	-34.01765
	140.981	-34.01742
	140.9808	-34.01712
	140.9807	-34.01676
	140.9805	-34.01648
	140.9804	-34.01547
	140.9805	-34.01514
	140.9805	-34.0148
	140.9807	-34.0145
	140.9809	-34.0142
	140.9811	-34.01389
	140.9814	-34.01366
	140.9817	-34.01351
	140.9821	-34.01331
	140.9825	-34.01314
	140.9828	-34.01297
	140.9836	-34.01272
	140.984	-34.01262
	140.9845	-34.01257
	140.9849	-34.01253
	140.9853	-34.01238
	140.9857	-34.01221
	140.9861	-34.01211
	140.9863	-34.01183
	140.9866	-34.01156
	140.9868	-34.01127
	140.9869	-34.01092
	140.9869	-34.0106
	140.9868	-34.01027
	140.9866	-34.00997
	140.9863	-34.00971
	140.9859	-34.00958
	140.9851	-34.00919
	140.9847	-34.00916
	140.9843	-34.00916
	140.9835	-34.00924
	140.9831	-34.00928
	140.9826	-34.00936
	140.9822	-34.00939
	140.9818	-34.00936
	140.9814	-34.00924
	140.981	-34.00924
	140.9806	-34.00928
	140.9802	-34.00933
	140.9798	-34.00934
	140.979	-34.00944
	140.9786	-34.00955
	140.9779	-34.00965
	140.9775	-34.00976
	140.9771	-34.00981
	140.9762	-34.00981
	140.9758	-34.00968
	140.9755	-34.00948
	140.9752	-34.00921
	140.9752	-34.00886
	140.9752	-34.00835
	140.9753	-34.00803
	140.9756	-34.00744
	140.9761	-34.00715
	140.9767	-34.00696
	140.9773	-34.00673
	140.978	-34.00661
	140.9785	-34.00644
	140.9791	-34.00628
	140.9796	-34.00592
	140.9802	-34.00561
	140.9806	-34.00523
	140.9808	-34.0048
	140.981	-34.00433
	140.9811	-34.00388
	140.9811	-34.00165
	140.981	-34.00101
	140.9809	-34.00053
	140.9807	-34.00006
	140.9804	-33.99958
	140.9802	-33.9992
	140.9798	-33.99884
	140.9794	-33.99849
	140.979	-33.99826
	140.9787	-33.99806
	140.9782	-33.99785
	140.9777	-33.99761
	140.9772	-33.99744
	140.9767	-33.99723
	140.976	-33.99718
	140.9749	-33.99728
	140.9745	-33.99725
	140.9742	-33.99725
	140.9738	-33.99733
	140.9732	-33.99737
	140.9726	-33.99766
	140.972	-33.9978
	140.9708	-33.99782
	140.97	-33.99767
	140.9695	-33.99747
	140.9691	-33.99711
	140.9688	-33.99683
	140.9684	-33.99642
	140.9683	-33.99619
	140.9682	-33.99588
	140.968	-33.9954
	140.968	-33.99493
	140.9678	-33.99443
	140.9677	-33.99395
	140.9676	-33.99348
	140.9676	-33.993
	140.9675	-33.99253
	140.9675	-33.99208
	140.9674	-33.9916
	140.9674	-33.99013
	140.9675	-33.98966
	140.9677	-33.98918
	140.968	-33.98868
	140.9681	-33.98823
	140.9685	-33.98749
	140.9688	-33.9869
	140.969	-33.98645
	140.9692	-33.98595
	140.9694	-33.9855
	140.9694	-33.98481
	140.9694	-33.98434
	140.9693	-33.98386
	140.9691	-33.98341
	140.9688	-33.98301
	140.9685	-33.98255
	140.9682	-33.98217
	140.9672	-33.98165
	140.9668	-33.98138
	140.9664	-33.9812
	140.9659	-33.98101
	140.9653	-33.98084
	140.9651	-33.98076
	140.964	-33.98064
	140.9639	-33.98061
	140.9638	-33.98159
	140.963	-34.09575
	140.9617	-34.09579
	140.9631	-34.27421
	140.9641	-34.44369
	140.9645	-34.5413
	140.9647	-34.59902
	140.9646	-34.62692
	140.9646	-34.63738
	140.9646	-34.6878
	140.9654	-34.86959
	140.9656	-35.00782
	140.9655	-35.0847
	140.9658	-35.23735
	140.9661	-35.39143
	140.966	-35.41587
	140.9662	-35.51274
	140.9662	-35.54144
	140.9662	-35.57352
	140.9663	-35.59696
	140.9663	-35.63359
	140.9663	-35.64859
	140.9655	-35.68076
	140.9635	-35.74847
	140.9635	-35.86036
	140.9639	-35.99607
	140.9657	-36.17579
	140.9665	-36.25712
	140.9674	-36.37392
	140.9674	-36.37428
	140.9678	-36.44937
	140.9675	-36.44992
	140.968	-36.48726
	140.9682	-36.55133
	140.9685	-36.55134
	140.9687	-36.60365
	140.9689	-36.665
	140.9689	-36.69028
	140.9669	-36.69231
	140.967	-36.69289
	140.9669	-36.69388
	140.9668	-36.69477
	140.9668	-36.69499
	140.9668	-36.69632
	140.9668	-36.70157
	140.9668	-36.70579
	140.9685	-36.70777
	140.9687	-36.7078
	140.9689	-36.70778
	140.9689	-36.71143
	140.9689	-36.71203
	140.9669	-36.71396
	140.9668	-36.71713
	140.9669	-36.71761
	140.967	-36.71816
	140.9671	-36.71835
	140.9672	-36.71885
	140.9674	-36.71919
	140.9677	-36.71966
	140.9678	-36.71988
	140.969	-36.7215
	140.9691	-36.73425
	140.9693	-36.79305
	140.9699	-36.84378
	140.97	-36.84368
	140.972	-36.84568
	140.972	-36.8458
	140.9719	-36.84623
	140.9719	-36.84636
	140.9719	-36.84648
	140.9719	-36.84665
	140.9719	-36.84693
	140.9719	-36.84707
	140.9719	-36.84789
	140.9718	-36.84902
	140.97	-36.85062
	140.9703	-36.8797
	140.9708	-36.92736
	140.9716	-37.00556
	140.9714	-37.00567
	140.971	-37.00599
	140.9706	-37.00635
	140.9704	-37.00669
	140.97	-37.00727
	140.9698	-37.00779
	140.9697	-37.00817
	140.9697	-37.00819
	140.9696	-37.00836
	140.9696	-37.00892
	140.9696	-37.00944
	140.9696	-37.01305
	140.9696	-37.01306
	140.9696	-37.01732
	140.9696	-37.01896
	140.9696	-37.01921
	140.9697	-37.01945
	140.9697	-37.01966
	140.9698	-37.01993
	140.9699	-37.02022
	140.97	-37.02053
	140.9702	-37.02089
	140.9704	-37.02118
	140.9704	-37.02126
	140.9707	-37.02158
	140.971	-37.02191
	140.9712	-37.02212
	140.9714	-37.02223
	140.9716	-37.02243
	140.9718	-37.02251
	140.9719	-37.03593
	140.972	-37.06687
	140.972	-37.06706
	140.9716	-37.16036
	140.9724	-37.16022
	140.9725	-37.1603
	140.9734	-37.16192
	140.9734	-37.16556
	140.9735	-37.16822
	140.9735	-37.16838
	140.9734	-37.17007
	140.9734	-37.17153
	140.9735	-37.17206
	140.9735	-37.17245
	140.9735	-37.17341
	140.9734	-37.17383
	140.9733	-37.1743
	140.9733	-37.17445
	140.9732	-37.17464
	140.9733	-37.17605
	140.9733	-37.17647
	140.9732	-37.17682
	140.9733	-37.17705
	140.9735	-37.17789
	140.9735	-37.17827
	140.9735	-37.17835
	140.9734	-37.17996
	140.9734	-37.18019
	140.9733	-37.18087
	140.9734	-37.18154
	140.9734	-37.18185
	140.9733	-37.18267
	140.9733	-37.18309
	140.9732	-37.18344
	140.9732	-37.18392
	140.9732	-37.18398
	140.9733	-37.18584
	140.9733	-37.18601
	140.9732	-37.18956
	140.9734	-37.19029
	140.9734	-37.19086
	140.9734	-37.19108
	140.9737	-37.19116
	140.9747	-37.19191
	140.9748	-37.19211
	140.9747	-37.19453
	140.9744	-37.19498
	140.9737	-37.19546
	140.9737	-37.1961
	140.9738	-37.19962
	140.9735	-37.19997
	140.9735	-37.19999
	140.9735	-37.2
	140.9734	-37.20371
	140.9734	-37.20414
	140.9734	-37.20428
	140.9732	-37.2048
	140.9731	-37.2049
	140.9716	-37.20536
	140.972	-37.24157
	140.9721	-37.2515
	140.9738	-37.25265
	140.9738	-37.253
	140.9739	-37.25322
	140.9739	-37.25363
	140.9739	-37.25386
	140.9739	-37.25431
	140.9739	-37.25488
	140.9739	-37.2552
	140.9739	-37.25563
	140.974	-37.25571
	140.974	-37.2562
	140.974	-37.25633
	140.974	-37.25665
	140.974	-37.25675
	140.974	-37.25707
	140.974	-37.25752
	140.974	-37.25779
	140.9739	-37.2582
	140.9741	-37.25868
	140.9741	-37.25942
	140.9741	-37.25957
	140.974	-37.25989
	140.974	-37.26032
	140.9739	-37.2605
	140.9739	-37.26065
	140.9739	-37.26135
	140.974	-37.26218
	140.974	-37.26231
	140.974	-37.26272
	140.9741	-37.26326
	140.9741	-37.26347
	140.974	-37.26429
	140.9741	-37.26468
	140.9741	-37.26476
	140.9741	-37.26545
	140.9741	-37.26547
	140.9741	-37.26667
	140.9742	-37.26809
	140.9742	-37.26811
	140.9742	-37.26904
	140.9743	-37.26943
	140.9743	-37.26952
	140.9743	-37.26988
	140.9743	-37.27015
	140.9743	-37.27028
	140.9743	-37.27045
	140.9743	-37.27049
	140.9742	-37.27062
	140.9742	-37.27073
	140.9742	-37.27111
	140.9742	-37.27206
	140.9742	-37.27212
	140.9742	-37.27225
	140.9743	-37.27392
	140.9743	-37.27452
	140.9743	-37.27458
	140.9743	-37.27491
	140.9743	-37.27575
	140.9743	-37.27578
	140.9743	-37.27614
	140.9743	-37.27646
	140.9744	-37.27727
	140.9744	-37.27736
	140.9744	-37.27799
	140.9744	-37.2791
	140.9744	-37.27913
	140.9744	-37.27992
	140.9744	-37.28049
	140.9744	-37.28064
	140.9744	-37.28075
	140.9745	-37.28135
	140.9745	-37.28147
	140.9744	-37.28171
	140.9747	-37.28258
	140.9747	-37.28273
	140.9746	-37.28295
	140.9746	-37.28329
	140.9747	-37.28358
	140.9747	-37.28377
	140.9744	-37.28446
	140.9745	-37.28455
	140.9745	-37.28465
	140.9745	-37.2848
	140.9744	-37.28567
	140.9745	-37.28603
	140.9745	-37.28624
	140.9744	-37.28681
	140.9745	-37.28705
	140.9746	-37.28751
	140.9746	-37.28776
	140.9745	-37.28826
	140.9745	-37.28836
	140.9745	-37.28856
	140.9746	-37.28902
	140.9746	-37.28927
	140.9745	-37.28981
	140.9745	-37.28987
	140.9745	-37.29029
	140.9745	-37.29032
	140.9745	-37.29104
	140.9745	-37.29124
	140.9745	-37.29131
	140.9745	-37.29162
	140.9745	-37.29193
	140.9745	-37.29203
	140.9745	-37.29249
	140.9745	-37.29269
	140.9745	-37.29272
	140.9746	-37.29288
	140.9746	-37.2931
	140.9746	-37.29318
	140.9746	-37.29338
	140.9746	-37.29365
	140.9746	-37.29384
	140.9747	-37.29417
	140.9748	-37.29497
	140.9748	-37.29526
	140.9748	-37.29533
	140.9748	-37.29544
	140.9748	-37.29546
	140.9748	-37.29582
	140.9747	-37.29612
	140.9747	-37.29621
	140.9747	-37.29643
	140.9746	-37.29704
	140.9746	-37.29718
	140.9737	-37.29825
	140.9737	-37.29829
	140.9736	-37.29834
	140.9726	-37.29813
	140.9731	-37.34088
	140.9727	-37.34061
	140.9712	-37.34301
	140.9712	-37.34305
	140.9713	-37.35829
	140.9733	-37.36027
	140.9737	-37.49533
	140.9737	-37.51883
	140.9732	-37.61139
	140.9731	-37.61449
	140.9727	-37.65098
	140.9725	-37.66765
	140.9714	-37.76644
	140.9703	-37.81742
	140.9703	-37.81763
	140.9699	-37.84075
	140.9697	-37.8481
	140.9692	-37.87599
	140.9683	-37.92915
	140.9673	-37.93011
	140.9668	-37.93103
	140.9663	-37.93293
	140.9662	-37.93338
	140.966	-37.93917
	140.9658	-37.94832
	140.9657	-37.9499
	140.9657	-37.95008
	140.9658	-37.9509
	140.966	-37.95168
	140.9661	-37.95184
	140.9662	-37.95223
	140.9664	-37.95251
	140.9662	-37.95273
	140.966	-37.95312
	140.9658	-37.95355
	140.9656	-37.95435
	140.9655	-37.96485
	140.9655	-37.96488
	140.9655	-37.96594
	140.9654	-37.9665
	140.9653	-37.96677
	140.9652	-37.97136
	140.9653	-37.97177
	140.9653	-37.97203
	140.9654	-37.97242
	140.9659	-37.97358
	140.9659	-37.97359
	140.966	-37.97388
	140.9662	-37.97412
	140.9663	-37.97427
	140.9671	-37.97504
	140.9672	-37.9751
	140.9675	-37.97516
	140.9671	-37.99394
	140.9664	-38.03808
	140.966	-38.05657
	140.966	-38.05978
	140.9637	-38.27235
	140.6978	-39.33361
	129.6239	-37.27355
	129.0	-31.90256
END
END
