Belarus_Minsk Region
1
	26.28479	54.94812
	26.29028	54.94812
	26.31226	54.97009
	26.33423	54.95911
	26.35071	54.9646
	26.35137	54.97739
	26.34621	54.97733
	26.34615	54.97472
	26.34352	54.97362
	26.32874	54.98108
	26.34521	54.99206
	26.36169	54.99208
	26.37268	54.98657
	26.38367	54.98657
	26.39465	54.98108
	26.41113	54.98108
	26.42761	54.9646
	26.45045	54.96917
	26.45507	54.97007
	26.45747	54.96652
	26.46057	54.95911
	26.48804	54.95361
	26.51001	54.9646
	26.54416	54.95031
	26.55516	54.94537
	26.56772	54.94036
	26.58429	54.94938
	26.59399	54.95372
	26.60351	54.95814
	26.60735	54.96391
	26.61138	54.96437
	26.61149	54.96439
	26.61362	54.96568
	26.6142	54.96735
	26.60203	54.97409
	26.5901	54.97999
	26.594	54.98287
	26.60197	54.98047
	26.60812	54.98047
	26.61238	54.98231
	26.61699	54.98339
	26.6222	54.98017
	26.62956	54.97806
	26.6319	54.98224
	26.63592	54.98461
	26.64183	54.98689
	26.64461	54.98882
	26.64834	54.98983
	26.64934	54.98845
	26.64869	54.98689
	26.65597	54.98081
	26.66134	54.98102
	26.664	54.97813
	26.66809	54.98047
	26.67664	54.97416
	26.6824	54.97644
	26.6904	54.97874
	26.70327	54.97033
	26.70625	54.96398
	26.71255	54.96209
	26.71346	54.96137
	26.7134	54.95942
	26.71533	54.95936
	26.7187	54.95763
	26.72302	54.95887
	26.72866	54.95777
	26.74064	54.95874
	26.74068	54.96448
	26.74077	54.96965
	26.74193	54.97117
	26.74608	54.97206
	26.74899	54.97223
	26.75207	54.97026
	26.7555	54.97225
	26.75764	54.97375
	26.76081	54.97464
	26.76334	54.97245
	26.7707	54.97026
	26.77425	54.96869
	26.77933	54.96901
	26.78487	54.96763
	26.79413	54.96983
	26.79523	54.97324
	26.79563	54.9755
	26.79788	54.97749
	26.80003	54.97731
	26.80312	54.97621
	26.80588	54.9748
	26.80663	54.97307
	26.80894	54.96981
	26.81468	54.96795
	26.82071	54.97162
	26.82512	54.97209
	26.82494	54.97471
	26.82333	54.97698
	26.82364	54.97992
	26.82354	54.98225
	26.82415	54.98713
	26.80591	54.98728
	26.80523	54.99003
	26.79793	54.99263
	26.79726	54.99298
	26.79769	54.99418
	26.79944	54.99548
	26.79974	54.99744
	26.80115	55.00854
	26.81315	55.01753
	26.83417	55.01513
	26.83411	55.00854
	26.85058	54.99756
	26.87256	55.01953
	26.87324	55.02043
	26.87605	55.01943
	26.87886	55.01879
	26.8873	55.01949
	26.8928	55.02047
	26.89856	55.02266
	26.90003	55.02289
	26.90091	55.02191
	26.90116	55.0208
	26.90323	55.01871
	26.90378	55.01508
	26.90989	55.01584
	26.91044	55.01447
	26.91073	55.01264
	26.91527	55.01166
	26.91703	55.00921
	26.91829	55.009
	26.91936	55.00841
	26.92003	55.0077
	26.92094	55.0052
	26.93252	55.00503
	26.93343	55.00465
	26.93388	55.00202
	26.93453	55.0013
	26.93658	54.9998
	26.93676	54.99838
	26.93692	54.99773
	26.93752	54.99711
	26.93974	54.99566
	26.94171	54.99581
	26.94341	54.99557
	26.95161	54.99085
	26.95789	54.98955
	26.96163	54.99009
	26.9629	54.98902
	26.96045	54.98657
	26.95872	54.97702
	26.95902	54.97462
	26.95981	54.97396
	26.96058	54.97396
	26.9607	54.97395
	26.96065	54.97425
	26.96143	54.9742
	26.96172	54.97114
	26.96268	54.96955
	26.96401	54.96814
	26.96544	54.96806
	26.96668	54.96737
	26.96807	54.96712
	26.96964	54.96706
	26.97194	54.96737
	26.97555	54.96702
	26.97573	54.96706
	26.97912	54.96796
	26.98259	54.96924
	26.99102	54.9694
	26.99667	54.9711
	26.99984	54.97137
	27.00279	54.97231
	27.00492	54.97619
	27.00837	54.97824
	27.00989	54.98108
	27.0758	54.98108
	27.0758	54.98657
	27.05933	54.99206
	27.05933	54.99756
	27.10876	54.99756
	27.13074	55.00854
	27.15271	54.99206
	27.15805	55.00006
	27.15812	55.00094
	27.15918	55.00139
	27.16072	55.00149
	27.16236	55.00162
	27.16324	55.00204
	27.16356	55.00247
	27.16329	55.00379
	27.16276	55.00444
	27.16288	55.00467
	27.16492	55.0047
	27.16556	55.00491
	27.16654	55.00591
	27.16724	55.00752
	27.16765	55.00745
	27.17155	55.00397
	27.17504	55.00022
	27.18017	54.99756
	27.18423	54.99974
	27.18633	55.00212
	27.1872	55.00431
	27.18884	55.00608
	27.19611	55.0055
	27.20101	55.00516
	27.20212	55.00222
	27.20326	55.00013
	27.20764	54.99206
	27.25708	54.99756
	27.26734	54.99203
	27.26761	54.98959
	27.26977	54.98711
	27.275	54.98208
	27.26893	54.98124
	27.26505	54.97967
	27.26364	54.97565
	27.26323	54.97006
	27.264	54.96454
	27.26807	54.95911
	27.27061	54.95612
	27.27374	54.95988
	27.27711	54.96164
	27.28464	54.95911
	27.28515	54.95445
	27.28512	54.9482
	27.28515	54.94636
	27.29074	54.94646
	27.29781	54.94634
	27.30752	54.94232
	27.31057	54.94118
	27.31588	54.94052
	27.31372	54.93351
	27.30652	54.92615
	27.30375	54.90746
	27.30431	54.90436
	27.3068	54.90328
	27.31071	54.90266
	27.32266	54.90218
	27.32724	54.90193
	27.3346	54.89872
	27.33885	54.89639
	27.3403	54.89413
	27.34103	54.89181
	27.34861	54.88651
	27.35002	54.88035
	27.35199	54.87654
	27.35388	54.87375
	27.35554	54.87342
	27.35857	54.87314
	27.36285	54.87295
	27.36829	54.87137
	27.38142	54.86559
	27.3944	54.86008
	27.40501	54.8558
	27.41288	54.85919
	27.41611	54.85946
	27.42019	54.86121
	27.42567	54.86525
	27.42919	54.86004
	27.43013	54.85757
	27.43679	54.85732
	27.44112	54.85829
	27.44262	54.85701
	27.4535	54.85857
	27.45585	54.85449
	27.46405	54.85597
	27.4621	54.85199
	27.47839	54.84517
	27.49413	54.83781
	27.49114	54.83572
	27.49066	54.82471
	27.4916	54.81883
	27.48994	54.81744
	27.48324	54.81662
	27.47775	54.81635
	27.47629	54.8147
	27.47755	54.81134
	27.47936	54.80995
	27.48176	54.80941
	27.49365	54.80894
	27.49811	54.80839
	27.50604	54.81099
	27.50605	54.81226
	27.51133	54.81423
	27.51893	54.81445
	27.52624	54.81628
	27.53823	54.81242
	27.53895	54.81167
	27.54512	54.81175
	27.55349	54.81017
	27.55169	54.80499
	27.55317	54.80019
	27.54974	54.79723
	27.54407	54.79476
	27.54388	54.79339
	27.54358	54.79277
	27.54145	54.79151
	27.54132	54.79044
	27.53923	54.78842
	27.54292	54.77636
	27.5338	54.77221
	27.52704	54.77001
	27.53119	54.76808
	27.57447	54.76931
	27.58629	54.76945
	27.59359	54.76984
	27.60239	54.76922
	27.60725	54.76825
	27.6114	54.76701
	27.61598	54.76617
	27.6172	54.7679
	27.61938	54.76943
	27.62256	54.76825
	27.62484	54.76744
	27.63151	54.77131
	27.63251	54.77184
	27.64181	54.76788
	27.65251	54.76423
	27.65133	54.75985
	27.65465	54.75872
	27.66285	54.7587
	27.66634	54.7564
	27.66839	54.75474
	27.68482	54.74984
	27.69463	54.74824
	27.69578	54.74413
	27.6998	54.74254
	27.69377	54.72583
	27.694	54.7198
	27.70035	54.72064
	27.70137	54.69987
	27.69912	54.68041
	27.71537	54.67319
	27.72217	54.67104
	27.72082	54.66947
	27.68555	54.66248
	27.6877	54.65312
	27.69598	54.65055
	27.71575	54.64082
	27.72916	54.64065
	27.74317	54.63385
	27.75172	54.62888
	27.74871	54.6221
	27.75146	54.61853
	27.76141	54.61414
	27.7719	54.61304
	27.78038	54.61378
	27.79347	54.61746
	27.80421	54.62095
	27.81963	54.62025
	27.82577	54.6212
	27.83711	54.62359
	27.87206	54.64854
	27.9056	54.62389
	27.92873	54.61781
	27.97119	54.59656
	27.97119	54.59106
	27.98767	54.58557
	28.00964	54.59106
	28.00659	54.60234
	28.01514	54.61304
	28.03162	54.61304
	28.03162	54.61853
	28.06458	54.62402
	28.09753	54.62402
	28.09753	54.63501
	28.125	54.6405
	28.11401	54.65149
	28.125	54.66248
	28.13049	54.66248
	28.13049	54.65698
	28.2074	54.67346
	28.21838	54.66797
	28.2019	54.66248
	28.24036	54.6405
	28.24036	54.62952
	28.25134	54.62952
	28.25683	54.63501
	28.26782	54.61853
	28.27332	54.61304
	28.2843	54.61853
	28.2843	54.61304
	28.29529	54.60754
	28.32275	54.59656
	28.37768	54.5581
	28.39417	54.5581
	28.42712	54.57458
	28.43811	54.60205
	28.4491	54.66248
	28.45459	54.66797
	28.54248	54.66797
	28.54797	54.65698
	28.57544	54.66797
	28.58093	54.66248
	28.6029	54.67346
	28.6084	54.66248
	28.61938	54.66797
	28.63586	54.66248
	28.64136	54.65149
	28.67432	54.62402
	28.67981	54.60754
	28.66333	54.59656
	28.67448	54.58168
	28.67896	54.58209
	28.68048	54.58158
	28.68342	54.57891
	28.68746	54.57518
	28.68824	54.57458
	28.70727	54.57458
	28.72925	54.58008
	28.74023	54.57458
	28.76221	54.58557
	28.78418	54.58008
	28.78967	54.58008
	28.78967	54.57458
	28.81164	54.56909
	28.83911	54.5636
	28.86108	54.57458
	28.87756	54.58008
	28.87756	54.59106
	28.86108	54.60754
	28.88855	54.60754
	28.89954	54.61853
	28.93799	54.60205
	28.96545	54.60205
	28.98743	54.59106
	28.99706	54.58617
	29.0042	54.59158
	29.00595	54.59065
	29.00372	54.58772
	29.0059	54.58425
	29.0099	54.58357
	29.01494	54.5836
	29.01954	54.5858
	29.02016	54.58752
	29.03206	54.59365
	29.02744	54.59903
	29.02588	54.60754
	29.02553	54.61299
	29.02856	54.61745
	29.03635	54.62043
	29.04403	54.62091
	29.04454	54.62047
	29.04763	54.61978
	29.05752	54.61943
	29.06785	54.62078
	29.07062	54.6233
	29.07476	54.62567
	29.07717	54.62611
	29.0895	54.63303
	29.0895	54.63307
	29.09172	54.63441
	29.0938	54.63801
	29.09453	54.63874
	29.09474	54.63886
	29.09544	54.63911
	29.0956	54.63916
	29.09614	54.6393
	29.09656	54.63936
	29.09721	54.63938
	29.09854	54.63812
	29.10278	54.6405
	29.12336	54.63249
	29.16001	54.62902
	29.1719	54.63853
	29.20167	54.64077
	29.20217	54.6399
	29.21508	54.64121
	29.20456	54.63037
	29.21129	54.6264
	29.21956	54.62397
	29.22409	54.62595
	29.2278	54.6245
	29.22994	54.62551
	29.23096	54.62459
	29.21297	54.61516
	29.20949	54.61363
	29.21477	54.60934
	29.21974	54.60713
	29.22346	54.59559
	29.22562	54.59103
	29.2182	54.58735
	29.20658	54.58269
	29.21023	54.58075
	29.21787	54.57975
	29.22102	54.57927
	29.22528	54.57956
	29.22758	54.57564
	29.2449	54.57905
	29.24863	54.57773
	29.24984	54.57488
	29.25244	54.57251
	29.25602	54.57063
	29.26874	54.57612
	29.27606	54.57073
	29.27344	54.56626
	29.27982	54.55708
	29.28255	54.55599
	29.28689	54.56689
	29.30603	54.57458
	29.31185	54.57628
	29.31119	54.57873
	29.31742	54.58339
	29.31777	54.58492
	29.32324	54.58815
	29.33268	54.58798
	29.35158	54.57915
	29.35506	54.58242
	29.35583	54.58588
	29.36994	54.59488
	29.38566	54.60308
	29.38709	54.60274
	29.36866	54.58954
	29.36785	54.58897
	29.37674	54.58556
	29.39217	54.58232
	29.39694	54.58522
	29.40307	54.58328
	29.41484	54.59744
	29.41414	54.60068
	29.41991	54.6007
	29.4262	54.60261
	29.42736	54.60645
	29.42244	54.614
	29.43232	54.61962
	29.4502	54.61917
	29.45867	54.62148
	29.46284	54.62199
	29.47288	54.6151
	29.4695	54.60516
	29.48469	54.60516
	29.49057	54.58955
	29.48393	54.58782
	29.48305	54.58659
	29.47735	54.58614
	29.47458	54.57913
	29.46983	54.58063
	29.46084	54.57707
	29.45953	54.57581
	29.45668	54.57303
	29.46473	54.57089
	29.45911	54.56614
	29.45452	54.56224
	29.46187	54.55773
	29.4611	54.55482
	29.46269	54.55208
	29.4585	54.544
	29.4509	54.54144
	29.44751	54.53939
	29.44632	54.53071
	29.43951	54.52191
	29.44044	54.52032
	29.44865	54.51556
	29.45123	54.51341
	29.4447	54.51039
	29.45079	54.50532
	29.44885	54.50317
	29.44631	54.49931
	29.439	54.49581
	29.43237	54.48669
	29.42139	54.4812
	29.42139	54.47571
	29.40157	54.46654
	29.40566	54.46152
	29.4104	54.45923
	29.41442	54.46202
	29.42011	54.46177
	29.41939	54.4558
	29.41589	54.45374
	29.43884	54.4333
	29.42247	54.4322
	29.4236	54.41684
	29.42014	54.40983
	29.42805	54.40211
	29.42736	54.39925
	29.43826	54.40126
	29.44483	54.39129
	29.44002	54.38569
	29.43125	54.38631
	29.42628	54.39118
	29.41888	54.38943
	29.40845	54.37496
	29.37195	54.36584
	29.36586	54.36515
	29.34984	54.3671
	29.34598	54.3656
	29.34684	54.36288
	29.34664	54.35864
	29.35108	54.36011
	29.35626	54.35936
	29.36171	54.36001
	29.36862	54.3583
	29.36853	54.35572
	29.36031	54.34564
	29.36776	54.33724
	29.37087	54.33548
	29.36966	54.33296
	29.37744	54.3219
	29.39941	54.3219
	29.4104	54.31641
	29.39392	54.31641
	29.38293	54.31091
	29.38293	54.29993
	29.37744	54.29443
	29.37195	54.28345
	29.37744	54.27795
	29.36096	54.26697
	29.35544	54.2758
	29.34448	54.26147
	29.3335	54.245
	29.36096	54.23401
	29.39941	54.245
	29.39941	54.22852
	29.43237	54.22852
	29.43237	54.22302
	29.44336	54.21753
	29.44336	54.21204
	29.45984	54.21204
	29.44336	54.20654
	29.45434	54.20105
	29.44336	54.19556
	29.44885	54.19006
	29.42688	54.17908
	29.42688	54.17358
	29.43787	54.16809
	29.42688	54.14062
	29.40491	54.12964
	29.41589	54.12414
	29.42757	54.12074
	29.43237	54.10217
	29.42139	54.09668
	29.42688	54.06921
	29.41589	54.05273
	29.42688	54.04175
	29.40491	54.04724
	29.34448	54.02527
	29.328	54.01428
	29.328	54.00879
	29.35547	53.9978
	29.36096	53.98132
	29.34998	53.96484
	29.37195	53.95386
	29.37195	53.92639
	29.38293	53.9154
	29.39392	53.90991
	29.39264	53.90799
	29.39278	53.90796
	29.39297	53.9079
	29.39379	53.9074
	29.39392	53.90727
	29.39422	53.9069
	29.39437	53.90664
	29.39451	53.90482
	29.39445	53.90468
	29.39393	53.90397
	29.39384	53.90389
	29.39323	53.90352
	29.39306	53.90346
	29.39272	53.90336
	29.39208	53.90324
	29.39065	53.903
	29.39036	53.90291
	29.38964	53.90247
	29.3893	53.9023
	29.38871	53.90209
	29.38293	53.89343
	29.37195	53.88794
	29.38293	53.88245
	29.38843	53.87695
	29.39392	53.88245
	29.39392	53.87695
	29.38843	53.87146
	29.36645	53.86047
	29.38843	53.85498
	29.39941	53.86597
	29.42139	53.86597
	29.37744	53.8385
	29.35547	53.83301
	29.36645	53.82751
	29.41589	53.83301
	29.42139	53.81653
	29.45434	53.81653
	29.45984	53.81103
	29.4928	53.80554
	29.4873	53.78906
	29.47632	53.78357
	29.38843	53.78357
	29.38293	53.77258
	29.42139	53.7616
	29.4104	53.7616
	29.39941	53.75061
	29.38843	53.7561
	29.39392	53.72864
	29.38843	53.72314
	29.36645	53.72314
	29.33899	53.74512
	29.32251	53.74512
	29.31702	53.73962
	29.31702	53.71216
	29.30054	53.69568
	29.25659	53.68469
	29.24561	53.67371
	29.20715	53.66821
	29.19617	53.65723
	29.17419	53.65723
	29.15222	53.6792
	29.14673	53.6792
	29.14124	53.67371
	29.13025	53.67371
	29.12475	53.68469
	29.10278	53.68469
	29.09729	53.66272
	29.10828	53.64624
	29.0918	53.63525
	29.06982	53.64075
	29.06433	53.63525
	29.07532	53.62427
	29.06982	53.60229
	29.08081	53.60229
	29.0863	53.59131
	29.06982	53.58032
	29.05884	53.58032
	29.05334	53.58581
	29.03686	53.58032
	29.02039	53.58581
	28.99841	53.58581
	28.99292	53.59131
	28.97713	53.58405
	28.97095	53.58032
	28.95447	53.58032
	28.95124	53.57494
	28.97644	53.56384
	28.95447	53.56384
	28.95996	53.54736
	28.96545	53.54187
	28.95996	53.53638
	28.97095	53.52539
	28.96647	53.5204
	28.95551	53.52029
	28.95747	53.52816
	28.91601	53.53088
	28.90503	53.55286
	28.87207	53.57483
	28.83911	53.58032
	28.83362	53.58032
	28.82328	53.59287
	28.81832	53.59169
	28.81474	53.60328
	28.77869	53.5968
	28.77869	53.58032
	28.70727	53.58032
	28.61938	53.61328
	28.62488	53.60229
	28.61389	53.5968
	28.6084	53.58581
	28.61938	53.57483
	28.58642	53.57483
	28.58642	53.55835
	28.53149	53.55835
	28.49854	53.54187
	28.49854	53.53638
	28.53214	53.52785
	28.54356	53.52765
	28.54809	53.52763
	28.54797	53.53088
	28.54439	53.53388
	28.53822	53.53584
	28.53822	53.53812
	28.53493	53.54061
	28.53699	53.54187
	28.53936	53.5426
	28.54379	53.53958
	28.54421	53.53666
	28.55059	53.53476
	28.55158	53.53288
	28.56648	53.53572
	28.57011	53.53008
	28.56808	53.52528
	28.56039	53.52162
	28.54267	53.52441
	28.52346	53.52157
	28.52568	53.51703
	28.51518	53.50982
	28.50952	53.5144
	28.49854	53.53088
	28.48755	53.53088
	28.49304	53.52539
	28.49304	53.5199
	28.47656	53.5144
	28.47107	53.5199
	28.4658	53.51563
	28.43056	53.49105
	28.41665	53.49355
	28.41082	53.4894
	28.41193	53.48843
	28.41014	53.48298
	28.40722	53.48226
	28.40112	53.47804
	28.3918	53.48078
	28.37894	53.48119
	28.37971	53.48466
	28.37766	53.48807
	28.37193	53.49024
	28.36282	53.48743
	28.3617	53.48525
	28.36122	53.4851
	28.36006	53.4851
	28.35914	53.48443
	28.35817	53.48271
	28.3575	53.48164
	28.35681	53.48098
	28.35387	53.47928
	28.35366	53.47918
	28.34993	53.47755
	28.34823	53.47702
	28.34781	53.47534
	28.34711	53.47483
	28.34557	53.47278
	28.34539	53.47259
	28.35571	53.47046
	28.38318	53.46496
	28.40515	53.45398
	28.40515	53.40454
	28.38888	53.39641
	28.38318	53.39355
	28.38318	53.38257
	28.37114	53.38504
	28.37019	53.38529
	28.36894	53.38418
	28.36191	53.37805
	28.36032	53.37638
	28.35542	53.37133
	28.35571	53.3606
	28.36121	53.3551
	28.40515	53.34412
	28.43262	53.32214
	28.43811	53.30017
	28.42712	53.2782
	28.32825	53.27271
	28.32825	53.25623
	28.27881	53.25623
	28.23262	53.25626
	28.22937	53.25623
	28.15383	53.26919
	28.14206	53.27171
	28.14003	53.27391
	28.13906	53.27551
	28.14078	53.2778
	28.13933	53.2781
	28.10852	53.26721
	28.08655	53.27271
	28.09204	53.25073
	28.11951	53.23975
	28.11401	53.22327
	28.11951	53.21777
	28.13049	53.21777
	28.16124	53.2065
	28.17993	53.20679
	28.18542	53.18481
	28.21838	53.1958
	28.22937	53.18481
	28.24036	53.18481
	28.24585	53.1958
	28.26782	53.1958
	28.27881	53.18481
	28.27332	53.17932
	28.2843	53.17383
	28.2843	53.18481
	28.30627	53.1958
	28.30627	53.20679
	28.31726	53.1958
	28.33923	53.1958
	28.35022	53.19031
	28.33923	53.17932
	28.34628	53.1595
	28.34051	53.15486
	28.3414	53.14547
	28.35571	53.14636
	28.36104	53.1462
	28.3667	53.14636
	28.37219	53.14636
	28.37325	53.15082
	28.38073	53.15179
	28.37826	53.15347
	28.37768	53.15735
	28.37253	53.15653
	28.37123	53.16424
	28.37431	53.16438
	28.37528	53.16469
	28.37918	53.16715
	28.39742	53.15827
	28.39092	53.15795
	28.39196	53.15043
	28.40545	53.15133
	28.40603	53.14867
	28.4161	53.14923
	28.42594	53.14962
	28.42956	53.1547
	28.44415	53.15465
	28.45152	53.15316
	28.47496	53.1593
	28.47942	53.15827
	28.48737	53.159
	28.4922	53.1612
	28.499	53.1557
	28.50952	53.14636
	28.50403	53.12988
	28.52051	53.12988
	28.526	53.1134
	28.54248	53.10791
	28.53017	53.10839
	28.51696	53.09881
	28.53699	53.06946
	28.526	53.05298
	28.53699	53.04199
	28.53699	53.02002
	28.56995	52.99805
	28.54248	52.97058
	28.526	52.97607
	28.53149	52.97058
	28.49304	52.98706
	28.47107	52.97058
	28.45459	52.97607
	28.4436	52.97058
	28.43262	52.9541
	28.46008	52.91565
	28.47107	52.91565
	28.47656	52.88818
	28.45459	52.86621
	28.42163	52.86072
	28.41614	52.85522
	28.41614	52.84973
	28.42712	52.84973
	28.4491	52.82227
	28.42712	52.77832
	28.37219	52.75635
	28.36654	52.7263
	28.41614	52.71789
	28.4491	52.70691
	28.46824	52.69113
	28.46486	52.68874
	28.47202	52.68459
	28.4704	52.68357
	28.46849	52.68032
	28.46742	52.67902
	28.46616	52.67525
	28.45306	52.65898
	28.43843	52.65966
	28.44553	52.6531
	28.43594	52.64846
	28.43262	52.55859
	28.43262	52.54211
	28.41064	52.52563
	28.38318	52.52014
	28.34473	52.48718
	28.26233	52.48169
	28.2019	52.4762
	28.19641	52.49267
	28.13599	52.48718
	28.11951	52.52563
	28.01514	52.50915
	27.99316	52.51465
	27.97119	52.50915
	27.97119	52.50366
	27.96851	52.50248
	27.97739	52.47048
	27.97261	52.46872
	27.95457	52.46061
	27.95438	52.45535
	27.95407	52.43442
	27.92449	52.43343
	27.90527	52.42126
	27.8833	52.42676
	27.87781	52.42126
	27.8009	52.44324
	27.78992	52.43774
	27.74597	52.43225
	27.72949	52.43225
	27.69653	52.43774
	27.66357	52.45422
	27.65808	52.4707
	27.64709	52.48169
	27.61963	52.48169
	27.63611	52.52014
	27.63061	52.53113
	27.61414	52.52563
	27.61414	52.54211
	27.60315	52.53662
	27.59766	52.54761
	27.57019	52.53113
	27.54272	52.54761
	27.53723	52.53662
	27.50427	52.52563
	27.46582	52.53662
	27.46033	52.52563
	27.3999	52.53113
	27.38342	52.50366
	27.37244	52.49817
	27.36694	52.49267
	27.36145	52.49267
	27.34497	52.48718
	27.36694	52.44873
	27.34497	52.43225
	27.3175	52.41577
	27.30652	52.40478
	27.27905	52.39929
	27.27344	52.38807
	27.22961	52.39929
	27.22961	52.42126
	27.1637	52.42126
	27.18017	52.44873
	27.1582	52.4707
	27.04834	52.52014
	27.05383	52.52014
	27.05933	52.52563
	27.04285	52.52563
	27.04285	52.53113
	27.05383	52.53113
	27.05933	52.55859
	27.03735	52.55859
	27.03735	52.59705
	27.08679	52.60254
	27.0813	52.61353
	27.08679	52.61902
	27.05383	52.64099
	27.05933	52.65198
	27.03186	52.65747
	27.01538	52.65747
	27.01774	52.67366
	27.05933	52.67395
	27.05383	52.7124
	27.03735	52.71789
	27.02637	52.71789
	27.03735	52.74536
	27.00989	52.78381
	27.00439	52.77832
	26.95496	52.73987
	26.92749	52.75085
	26.90002	52.75635
	26.87992	52.76642
	26.87409	52.76933
	26.87392	52.77027
	26.87088	52.7724
	26.87048	52.77261
	26.86722	52.77392
	26.86632	52.77406
	26.86173	52.77371
	26.8512	52.77259
	26.83218	52.77061
	26.8304	52.76834
	26.8305	52.76762
	26.83047	52.76744
	26.83052	52.76733
	26.80664	52.76733
	26.7627	52.7948
	26.7572	52.82227
	26.74621	52.83325
	26.75171	52.84973
	26.74072	52.85522
	26.73523	52.84973
	26.70776	52.84973
	26.71326	52.83875
	26.6748	52.84973
	26.66842	52.85884
	26.66042	52.85935
	26.65489	52.85895
	26.62537	52.86621
	26.62537	52.8717
	26.58691	52.89368
	26.55945	52.84424
	26.52649	52.83325
	26.51001	52.86072
	26.48088	52.83423
	26.48105	52.83361
	26.48111	52.83329
	26.48115	52.83281
	26.48015	52.83087
	26.47488	52.82787
	26.47411	52.82808
	26.44958	52.80579
	26.44409	52.80579
	26.44409	52.81677
	26.4112	52.83292
	26.38367	52.84973
	26.38916	52.86621
	26.41113	52.8772
	26.42761	52.88818
	26.46057	52.91016
	26.46057	52.91565
	26.44958	52.91565
	26.4386	52.92114
	26.43036	52.93041
	26.41113	52.94861
	26.41113	52.9541
	26.38916	52.98157
	26.39465	52.99255
	26.41113	52.99255
	26.42212	53.00354
	26.46057	53.00354
	26.45508	53.04199
	26.47705	53.05847
	26.521	53.04749
	26.53198	53.05298
	26.51001	53.08594
	26.48804	53.08594
	26.48254	53.09143
	26.47156	53.1189
	26.41113	53.1189
	26.37817	53.12988
	26.37817	53.14636
	26.36169	53.15735
	26.33423	53.15735
	26.33972	53.16833
	26.32324	53.17932
	26.31226	53.17932
	26.29028	53.18481
	26.2738	53.21228
	26.30676	53.21777
	26.30676	53.22876
	26.32324	53.23975
	26.34521	53.23975
	26.34521	53.26172
	26.38916	53.26172
	26.40564	53.32214
	26.38367	53.32214
	26.37268	53.3606
	26.36169	53.36609
	26.37268	53.37158
	26.39465	53.36609
	26.41662	53.38806
	26.42761	53.38257
	26.4386	53.38806
	26.44409	53.38257
	26.46057	53.39355
	26.50452	53.38806
	26.521	53.38806
	26.52649	53.39905
	26.58142	53.40454
	26.58142	53.41553
	26.55945	53.43201
	26.55395	53.46496
	26.55395	53.50342
	26.53198	53.5144
	26.52649	53.5144
	26.5155	53.50342
	26.49902	53.50891
	26.548	53.53517
	26.54902	53.53573
	26.54297	53.54736
	26.53748	53.55286
	26.54297	53.55835
	26.521	53.55835
	26.51001	53.56934
	26.48254	53.57483
	26.49353	53.58032
	26.45508	53.60229
	26.44409	53.62427
	26.40015	53.64624
	26.40015	53.65723
	26.38367	53.66821
	26.36169	53.66821
	26.36719	53.69568
	26.31323	53.70403
	26.3071	53.70682
	26.30676	53.71765
	26.26282	53.7616
	26.2738	53.77258
	26.25732	53.78357
	26.2793	53.79456
	26.26282	53.81103
	26.24084	53.80005
	26.22436	53.81103
	26.23535	53.81103
	26.22986	53.82202
	26.22986	53.82751
	26.26282	53.82751
	26.23535	53.86597
	26.26831	53.86597
	26.2738	53.87695
	26.28513	53.87833
	26.29292	53.86787
	26.29578	53.86597
	26.35071	53.89343
	26.36169	53.88794
	26.38367	53.89892
	26.3562	53.92639
	26.36169	53.92639
	26.36719	53.9209
	26.37817	53.9209
	26.41113	53.93188
	26.4386	53.95386
	26.40015	53.9978
	26.40015	54.0033
	26.37268	53.99231
	26.34967	53.98277
	26.33972	53.98132
	26.31411	53.97454
	26.3016	53.97583
	26.32169	54.00108
	26.32874	54.02527
	26.32324	54.05823
	26.28479	54.05273
	26.25686	54.04085
	26.24637	54.0381
	26.24084	54.04175
	26.23535	54.03076
	26.22436	54.03625
	26.22436	54.03076
	26.21338	54.03076
	26.20239	54.02527
	26.18591	54.02527
	26.16943	54.03076
	26.16943	54.04175
	26.14746	54.05823
	26.15295	54.06921
	26.13647	54.08569
	26.14197	54.09668
	26.12549	54.10767
	26.13098	54.12964
	26.14197	54.15161
	26.10901	54.14062
	26.08704	54.14612
	26.08154	54.13513
	26.10352	54.11865
	26.09802	54.11316
	26.04848	54.1224
	26.04309	54.12414
	26.00464	54.14612
	26.01013	54.1571
	26.01562	54.1626
	26.0376	54.17358
	26.05408	54.20654
	26.06506	54.20105
	26.05957	54.19006
	26.07056	54.19006
	26.08154	54.18457
	26.09253	54.19006
	26.10352	54.18457
	26.11999	54.20105
	26.13098	54.20105
	26.14746	54.21204
	26.15845	54.21204
	26.16394	54.21753
	26.20239	54.2395
	26.21887	54.22852
	26.23535	54.2395
	26.25732	54.22852
	26.26125	54.21773
	26.26462	54.22084
	26.27057	54.2231
	26.29387	54.21748
	26.30887	54.21024
	26.31824	54.20925
	26.32874	54.21753
	26.35071	54.21204
	26.3607	54.22065
	26.36036	54.22412
	26.37118	54.22863
	26.36575	54.23508
	26.37357	54.23918
	26.3815	54.23416
	26.38636	54.23787
	26.38552	54.2391
	26.3787	54.24061
	26.37817	54.245
	26.40015	54.26697
	26.41113	54.26697
	26.41113	54.27795
	26.42212	54.27795
	26.42761	54.29443
	26.44409	54.29443
	26.44958	54.29993
	26.46606	54.29443
	26.49353	54.30542
	26.49353	54.3219
	26.48804	54.3219
	26.50021	54.33466
	26.50865	54.34695
	26.52642	54.37343
	26.54068	54.37118
	26.54349	54.37607
	26.53874	54.37698
	26.53927	54.38026
	26.53283	54.3803
	26.5363	54.39113
	26.55114	54.3911
	26.55471	54.39988
	26.55876	54.40628
	26.56507	54.40826
	26.58729	54.40517
	26.5911	54.4061
	26.59671	54.4067
	26.59673	54.40671
	26.59827	54.40608
	26.59934	54.40653
	26.60065	54.40692
	26.60107	54.4071
	26.60148	54.40733
	26.60172	54.40749
	26.60387	54.40916
	26.60423	54.40952
	26.60435	54.40959
	26.60454	54.4099
	26.60553	54.41014
	26.60611	54.41045
	26.60691	54.41124
	26.60705	54.41149
	26.60721	54.41238
	26.6082	54.41319
	26.60891	54.4145
	26.60892	54.41458
	26.6083	54.41551
	26.6274	54.41997
	26.62785	54.4209
	26.62875	54.423
	26.62911	54.42417
	26.62945	54.42482
	26.63179	54.4278
	26.63208	54.4281
	26.63401	54.42971
	26.63604	54.43232
	26.63677	54.4329
	26.63956	54.4342
	26.64002	54.43435
	26.6406	54.43447
	26.64669	54.44302
	26.64859	54.4456
	26.63921	54.44786
	26.63334	54.44842
	26.63012	54.44974
	26.63276	54.45361
	26.6328	54.45487
	26.63515	54.45716
	26.63795	54.45592
	26.64	54.45692
	26.63343	54.46161
	26.65273	54.47814
	26.64766	54.48025
	26.65511	54.49111
	26.64894	54.49503
	26.64094	54.49945
	26.64555	54.50288
	26.64794	54.50714
	26.64287	54.51662
	26.64669	54.51992
	26.64119	54.52233
	26.63504	54.51829
	26.63202	54.51941
	26.62921	54.51771
	26.62621	54.5192
	26.62789	54.52021
	26.62508	54.52159
	26.63282	54.52909
	26.61693	54.53275
	26.62074	54.53725
	26.61971	54.54086
	26.61706	54.54593
	26.61855	54.5466
	26.6189	54.5468
	26.61909	54.54694
	26.62947	54.5517
	26.6274	54.55486
	26.6246	54.55693
	26.6252	54.55838
	26.62535	54.55922
	26.62533	54.55964
	26.6342	54.55716
	26.63855	54.55474
	26.63871	54.55807
	26.64601	54.55798
	26.65101	54.55786
	26.65347	54.55625
	26.66126	54.55243
	26.66242	54.55082
	26.66484	54.55082
	26.66686	54.56499
	26.66168	54.56596
	26.66095	54.57076
	26.66121	54.57765
	26.66629	54.57857
	26.6655	54.58425
	26.65901	54.58534
	26.66384	54.58954
	26.67923	54.58388
	26.68678	54.58435
	26.69288	54.58099
	26.69588	54.58489
	26.69839	54.5912
	26.69855	54.59303
	26.68796	54.5969
	26.67324	54.60047
	26.66362	54.59974
	26.66513	54.60949
	26.66788	54.61445
	26.67062	54.63213
	26.66454	54.63194
	26.66657	54.63797
	26.67246	54.63945
	26.67383	54.64316
	26.67847	54.64304
	26.682	54.64653
	26.6752	54.64774
	26.66532	54.64335
	26.65446	54.64255
	26.64008	54.643
	26.63734	54.64862
	26.62829	54.65035
	26.6187	54.65126
	26.60196	54.64077
	26.59617	54.64584
	26.59176	54.64626
	26.59251	54.64902
	26.59176	54.65176
	26.58616	54.65205
	26.58374	54.65508
	26.5787	54.65773
	26.57528	54.65725
	26.5588	54.6957
	26.54781	54.70119
	26.53682	54.71767
	26.5533	54.73965
	26.54846	54.75586
	26.52649	54.75586
	26.51439	54.75888
	26.51082	54.76048
	26.50899	54.76162
	26.50685	54.763
	26.50082	54.76786
	26.50011	54.76849
	26.49946	54.7694
	26.49887	54.77031
	26.49813	54.77122
	26.49785	54.77149
	26.49717	54.77204
	26.49667	54.77353
	26.49651	54.77388
	26.49586	54.77501
	26.49565	54.77531
	26.49492	54.77616
	26.49294	54.77865
	26.49224	54.77967
	26.49092	54.78174
	26.49032	54.78283
	26.49017	54.78305
	26.48934	54.78415
	26.48886	54.78461
	26.48756	54.78549
	26.48581	54.78644
	26.48404	54.7875
	26.4834	54.78821
	26.47821	54.79382
	26.47766	54.79424
	26.47267	54.79683
	26.47093	54.798
	26.46754	54.80173
	26.46733	54.80194
	26.46494	54.80389
	26.45882	54.8086
	26.45865	54.80872
	26.45673	54.80992
	26.4536	54.81293
	26.44912	54.81729
	26.44905	54.81737
	26.44806	54.81823
	26.44424	54.82147
	26.44409	54.82178
	26.44388	54.82178
	26.44363	54.82197
	26.44285	54.82249
	26.44255	54.82266
	26.43839	54.82448
	26.43667	54.82521
	26.43615	54.82558
	26.43529	54.8263
	26.43527	54.82633
	26.43307	54.82812
	26.43208	54.82888
	26.43083	54.8301
	26.42933	54.83159
	26.42541	54.83502
	26.42515	54.8353
	26.42438	54.83633
	26.42394	54.83686
	26.42375	54.83705
	26.42352	54.83725
	26.42328	54.83744
	26.42302	54.83761
	26.42278	54.83774
	26.42201	54.83811
	26.41935	54.83716
	26.4203	54.83449
	26.42095	54.83419
	26.42097	54.83417
	26.42122	54.83388
	26.422	54.83284
	26.42243	54.83234
	26.39266	54.82992
	26.37817	54.82178
	26.36169	54.82727
	26.35215	54.82033
	26.34038	54.81947
	26.33758	54.82229
	26.34983	54.82628
	26.33373	54.84044
	26.33674	54.84278
	26.34181	54.85171
	26.33967	54.8517
	26.33521	54.8497
	26.33497	54.85239
	26.33169	54.85415
	26.33423	54.86023
	26.34622	54.86216
	26.34876	54.86617
	26.34523	54.86976
	26.34763	54.87204
	26.35013	54.87772
	26.3479	54.88067
	26.36523	54.8868
	26.2793	54.93164
	26.28479	54.94812
END
END
