Belarus_Homiel Region
1
	27.27344	52.38807
	27.27905	52.39929
	27.30652	52.40478
	27.3175	52.41577
	27.34497	52.43225
	27.36694	52.44873
	27.34497	52.48718
	27.36145	52.49267
	27.36694	52.49267
	27.37244	52.49817
	27.38342	52.50366
	27.3999	52.53113
	27.46033	52.52563
	27.46582	52.53662
	27.50427	52.52563
	27.53723	52.53662
	27.54272	52.54761
	27.57019	52.53113
	27.59766	52.54761
	27.60315	52.53662
	27.61414	52.54211
	27.61414	52.52563
	27.63061	52.53113
	27.63611	52.52014
	27.61963	52.48169
	27.64709	52.48169
	27.65808	52.4707
	27.66357	52.45422
	27.69653	52.43774
	27.72949	52.43225
	27.74597	52.43225
	27.78992	52.43774
	27.8009	52.44324
	27.87781	52.42126
	27.8833	52.42676
	27.90527	52.42126
	27.92449	52.43343
	27.95407	52.43442
	27.95438	52.45535
	27.95457	52.46061
	27.97261	52.46872
	27.97739	52.47048
	27.96851	52.50248
	27.97119	52.50366
	27.97119	52.50915
	27.99316	52.51465
	28.01514	52.50915
	28.11951	52.52563
	28.13599	52.48718
	28.19641	52.49267
	28.2019	52.4762
	28.26233	52.48169
	28.34473	52.48718
	28.38318	52.52014
	28.41064	52.52563
	28.43262	52.54211
	28.43262	52.55859
	28.43594	52.64846
	28.44553	52.6531
	28.43843	52.65966
	28.45306	52.65898
	28.46616	52.67525
	28.46742	52.67902
	28.46849	52.68032
	28.48295	52.67421
	28.49179	52.68595
	28.50941	52.69181
	28.5196	52.68156
	28.52454	52.68343
	28.52494	52.6863
	28.54172	52.68528
	28.5414	52.68829
	28.55286	52.68895
	28.57691	52.68354
	28.59368	52.68442
	28.59741	52.69043
	28.60304	52.6924
	28.61003	52.68888
	28.61555	52.68871
	28.61938	52.69043
	28.62723	52.69846
	28.63965	52.69797
	28.64203	52.69917
	28.65018	52.69939
	28.65967	52.69563
	28.66852	52.69612
	28.66981	52.69446
	28.67793	52.69451
	28.69071	52.68765
	28.70366	52.69627
	28.71352	52.69937
	28.71974	52.69919
	28.73068	52.69597
	28.72915	52.69251
	28.74816	52.68848
	28.77319	52.7124
	28.78418	52.7124
	28.78418	52.71789
	28.83911	52.71789
	28.83911	52.73438
	28.81714	52.73438
	28.81714	52.74536
	28.80066	52.74536
	28.80066	52.75635
	28.80615	52.76733
	28.85559	52.76184
	28.87756	52.77832
	28.89954	52.77283
	28.94348	52.80579
	28.98193	52.84424
	28.97644	52.86072
	28.97644	52.86621
	29.06982	52.8717
	29.10278	52.8772
	29.10828	52.8717
	29.11377	52.8772
	29.13025	52.8772
	29.13025	52.88818
	29.11926	52.89368
	29.12475	52.89917
	29.11926	52.90466
	29.11926	52.92114
	29.1687	52.97058
	29.20715	52.98706
	29.20166	52.97607
	29.24013	52.96508
	29.25659	52.97058
	29.27856	52.9541
	29.34448	52.94861
	29.34998	52.94311
	29.37195	52.94311
	29.37195	52.93762
	29.37744	52.94311
	29.38843	52.94861
	29.39941	52.94861
	29.39941	52.93762
	29.41589	52.93762
	29.42688	52.92663
	29.43237	52.92663
	29.47083	52.93762
	29.52026	52.96509
	29.55871	52.96509
	29.5697	52.95959
	29.60266	52.96509
	29.62463	52.95959
	29.63013	52.96509
	29.64661	52.9541
	29.6521	52.9541
	29.65759	52.95959
	29.66858	52.94861
	29.69604	52.94861
	29.70154	52.9541
	29.71802	52.9541
	29.72351	52.95959
	29.71802	52.97058
	29.73999	52.98157
	29.7231	52.98947
	29.71524	52.98534
	29.67407	53.00354
	29.66308	53.02551
	29.6521	53.02551
	29.66858	53.04199
	29.67957	53.04199
	29.67957	53.05298
	29.69055	53.05847
	29.67957	53.07495
	29.65759	53.06946
	29.63562	53.08044
	29.62844	53.09347
	29.64641	53.09811
	29.64515	53.10314
	29.65556	53.10492
	29.6562	53.11055
	29.64225	53.12409
	29.64729	53.12608
	29.65278	53.13198
	29.65823	53.13025
	29.65902	53.13828
	29.68833	53.14511
	29.68665	53.14975
	29.69736	53.15132
	29.69866	53.15065
	29.69708	53.14014
	29.72351	53.12439
	29.73288	53.12759
	29.75242	53.13089
	29.75751	53.13096
	29.77815	53.13791
	29.77711	53.13913
	29.76196	53.14087
	29.75647	53.14636
	29.77844	53.16284
	29.76746	53.16284
	29.76746	53.17383
	29.77844	53.17932
	29.75647	53.17932
	29.7527	53.18686
	29.75346	53.1869
	29.75349	53.18691
	29.75605	53.1871
	29.75629	53.18713
	29.757	53.18727
	29.75811	53.18791
	29.75841	53.18825
	29.75951	53.18908
	29.7601	53.18979
	29.76036	53.19031
	29.77844	53.19031
	29.78393	53.1958
	29.79492	53.1958
	29.77844	53.23975
	29.77295	53.24524
	29.77295	53.25623
	29.75647	53.27271
	29.75647	53.31116
	29.80042	53.33862
	29.85535	53.3551
	29.86084	53.32214
	29.88281	53.32764
	29.8938	53.32764
	29.8883	53.33862
	29.90479	53.34412
	29.92126	53.32764
	29.89929	53.31116
	29.92126	53.31116
	29.93225	53.30017
	29.93774	53.30566
	29.94204	53.30616
	29.94873	53.30566
	29.96521	53.33313
	30.06767	53.31686
	30.06837	53.3162
	30.06904	53.3158
	30.07076	53.31516
	30.0713	53.31413
	30.07245	53.31315
	30.07565	53.3121
	30.08145	53.31001
	30.08855	53.30627
	30.08877	53.30617
	30.09283	53.30465
	30.09323	53.30454
	30.09345	53.30451
	30.09705	53.30017
	30.12451	53.28369
	30.14648	53.23425
	30.16296	53.22327
	30.19043	53.23425
	30.20142	53.22876
	30.21789	53.23425
	30.23438	53.22876
	30.26733	53.25623
	30.27283	53.25073
	30.27283	53.24524
	30.28381	53.25073
	30.31677	53.24524
	30.33325	53.25623
	30.35522	53.26172
	30.36072	53.25623
	30.38269	53.25623
	30.38783	53.26164
	30.38269	53.27271
	30.40466	53.28369
	30.41576	53.28777
	30.43213	53.2782
	30.45959	53.2782
	30.47058	53.29468
	30.49255	53.29468
	30.50903	53.31665
	30.54199	53.31116
	30.54749	53.31665
	30.55847	53.33313
	30.56396	53.33313
	30.56946	53.34961
	30.58044	53.34412
	30.58044	53.33313
	30.56396	53.32214
	30.5814	53.31342
	30.58594	53.31116
	30.57495	53.30566
	30.67383	53.29468
	30.65735	53.27271
	30.66833	53.27271
	30.68481	53.25623
	30.68481	53.26172
	30.70467	53.26068
	30.71137	53.26226
	30.7238	53.26264
	30.72097	53.2738
	30.72029	53.27791
	30.72327	53.2782
	30.73093	53.27801
	30.73585	53.27878
	30.75943	53.28037
	30.75867	53.28656
	30.78918	53.28918
	30.83313	53.28369
	30.84961	53.28918
	30.84961	53.30017
	30.86609	53.30566
	30.91003	53.31116
	30.91553	53.30566
	31.00342	53.31116
	31.0144	53.30566
	31.0199	53.30017
	31.00891	53.29468
	31.00329	53.28782
	30.97595	53.27271
	30.99243	53.25623
	31.00891	53.26172
	31.0199	53.25623
	31.03638	53.26172
	31.04187	53.25073
	31.03088	53.23975
	31.06384	53.22327
	31.06384	53.20129
	31.06933	53.20129
	31.09131	53.20679
	31.0968	53.1958
	31.11328	53.19031
	31.12427	53.19031
	31.12427	53.16833
	31.10229	53.15735
	31.11877	53.14087
	31.20667	53.14636
	31.21216	53.14087
	31.21765	53.1189
	31.23413	53.12439
	31.24512	53.1189
	31.25061	53.12439
	31.2561	53.1134
	31.33301	53.1134
	31.3385	53.09692
	31.36057	53.09255
	31.34163	53.09172
	31.33478	53.09123
	31.3352	53.08783
	31.33582	53.0837
	31.33635	53.08067
	31.32864	53.0682
	31.32752	53.06643
	31.33061	53.04181
	31.30688	53.03655
	31.29953	53.03747
	31.29284	53.03847
	31.27653	53.04053
	31.26349	53.04276
	31.2543	53.03976
	31.2434	53.03435
	31.24091	53.0298
	31.24091	53.0268
	31.24821	53.02525
	31.25679	53.02465
	31.27087	53.0177
	31.27627	53.01358
	31.28039	53.01341
	31.28263	53.01092
	31.28838	53.0092
	31.28966	53.00586
	31.29696	53.00526
	31.29953	53.00551
	31.30271	53.00586
	31.30846	53.00225
	31.31095	53.00165
	31.31387	52.99736
	31.32056	52.9947
	31.3276	52.9911
	31.33936	52.98963
	31.34779	52.9879
	31.35534	52.98408
	31.35878	52.97726
	31.35883	52.97613
	31.3591	52.9723
	31.36202	52.9656
	31.36545	52.96286
	31.37249	52.96036
	31.37335	52.95908
	31.37507	52.95642
	31.37824	52.95299
	31.37601	52.9462
	31.37378	52.93831
	31.37335	52.93719
	31.37189	52.93358
	31.37335	52.93058
	31.37507	52.92715
	31.38331	52.92475
	31.38811	52.91942
	31.38974	52.91582
	31.39386	52.91582
	31.39352	52.91127
	31.39798	52.90947
	31.40785	52.91041
	31.41266	52.90758
	31.41463	52.90526
	31.41618	52.90355
	31.42219	52.89925
	31.42713	52.89715
	31.42947	52.89273
	31.43	52.89167
	31.43209	52.88811
	31.43493	52.88634
	31.4376	52.88484
	31.43832	52.88401
	31.43846	52.88309
	31.43849	52.88209
	31.43942	52.88132
	31.44077	52.88089
	31.44528	52.88084
	31.44927	52.87905
	31.45334	52.87809
	31.45546	52.87643
	31.45745	52.87543
	31.4593	52.87574
	31.47034	52.86964
	31.47128	52.86638
	31.47703	52.86587
	31.48081	52.86054
	31.49394	52.85892
	31.51497	52.85797
	31.52089	52.85857
	31.53342	52.86003
	31.53823	52.85643
	31.536	52.85025
	31.53823	52.84338
	31.53626	52.83943
	31.52578	52.83583
	31.52089	52.83256
	31.51943	52.83153
	31.52089	52.82999
	31.52836	52.82226
	31.53694	52.81583
	31.54965	52.80948
	31.55797	52.8081
	31.56175	52.80681
	31.56398	52.80115
	31.56492	52.79772
	31.57548	52.7966
	31.58183	52.79394
	31.58698	52.79377
	31.59076	52.78699
	31.59333	52.77755
	31.59496	52.77
	31.59471	52.76974
	31.58793	52.7621
	31.58887	52.75798
	31.59471	52.7572
	31.59617	52.75703
	31.59683	52.75599
	31.59843	52.75464
	31.60063	52.74605
	31.596	52.73906
	31.59285	52.73448
	31.58618	52.73187
	31.57507	52.72759
	31.57454	52.72399
	31.57136	52.7166
	31.56561	52.71266
	31.56432	52.70888
	31.55891	52.70622
	31.55316	52.70742
	31.54613	52.70476
	31.53248	52.70176
	31.52089	52.70107
	31.51686	52.70081
	31.50312	52.6985
	31.49995	52.69343
	31.5057	52.68906
	31.51428	52.68648
	31.51686	52.68227
	31.51523	52.67704
	31.52089	52.67387
	31.5299	52.66872
	31.54072	52.66193
	31.54201	52.65739
	31.55376	52.65236
	31.55734	52.64994
	31.56018	52.64731
	31.55946	52.64494
	31.55867	52.64254
	31.56401	52.63854
	31.56651	52.63837
	31.56765	52.63751
	31.56974	52.6351
	31.56867	52.63198
	31.56704	52.6281
	31.56418	52.62145
	31.5644	52.61825
	31.56505	52.6176
	31.56545	52.61342
	31.56623	52.6106
	31.56679	52.61023
	31.56788	52.61001
	31.56805	52.60948
	31.56695	52.60737
	31.56692	52.60281
	31.56489	52.60065
	31.56511	52.5963
	31.56419	52.59425
	31.57681	52.59482
	31.57972	52.59441
	31.58697	52.58941
	31.58989	52.58584
	31.59337	52.5828
	31.61706	52.5763
	31.63042	52.56276
	31.63354	52.56371
	31.63914	52.5633
	31.64406	52.56221
	31.64396	52.56378
	31.64714	52.56564
	31.6544	52.56199
	31.66197	52.56233
	31.66839	52.56233
	31.67177	52.56188
	31.67362	52.56114
	31.66843	52.55986
	31.66567	52.55642
	31.65953	52.55241
	31.65584	52.54881
	31.65589	52.54838
	31.65217	52.54507
	31.64703	52.54292
	31.63925	52.54117
	31.63127	52.54194
	31.62741	52.54915
	31.62363	52.55327
	31.62011	52.55293
	31.61024	52.54915
	31.61307	52.54632
	31.6105	52.54349
	31.61273	52.5386
	31.60767	52.53688
	31.60286	52.53799
	31.59522	52.53216
	31.5972	52.52872
	31.59144	52.52572
	31.59016	52.52083
	31.59428	52.51628
	31.58629	52.51782
	31.58029	52.51516
	31.57711	52.51688
	31.57642	52.52006
	31.56973	52.52022
	31.56527	52.51834
	31.56209	52.521
	31.55763	52.51765
	31.5608	52.50761
	31.56784	52.50709
	31.57196	52.50212
	31.57265	52.49877
	31.5796	52.49534
	31.58818	52.50237
	31.59471	52.50443
	31.59591	52.50477
	31.60509	52.50443
	31.61179	52.49911
	31.61531	52.49594
	31.61531	52.4931
	31.62361	52.49264
	31.62358	52.49243
	31.62358	52.49217
	31.62369	52.49153
	31.62379	52.49122
	31.62393	52.49037
	31.61625	52.48289
	31.60732	52.46684
	31.60063	52.46255
	31.59471	52.46186
	31.59205	52.4616
	31.58501	52.46117
	31.5796	52.45929
	31.58441	52.45534
	31.59471	52.45405
	31.60604	52.45405
	31.61084	52.45345
	31.6091	52.44633
	31.60988	52.44081
	31.60021	52.44013
	31.59666	52.43986
	31.5978	52.435
	31.59836	52.43233
	31.6003	52.43224
	31.60249	52.42328
	31.59877	52.42245
	31.59337	52.42121
	31.59409	52.4149
	31.59785	52.41504
	31.60901	52.41561
	31.60899	52.4164
	31.61141	52.41664
	31.61133	52.41773
	31.62164	52.41834
	31.62328	52.41016
	31.62612	52.4029
	31.6287	52.39989
	31.63256	52.39818
	31.62775	52.38839
	31.62767	52.38805
	31.62363	52.35723
	31.62329	52.35423
	31.62071	52.34101
	31.62518	52.3344
	31.62106	52.33217
	31.61565	52.32822
	31.61153	52.32633
	31.60672	52.32951
	31.60286	52.32857
	31.5984	52.32839
	31.59556	52.32728
	31.58818	52.32728
	31.58475	52.32857
	31.58183	52.32822
	31.58535	52.31972
	31.59144	52.31483
	31.59471	52.31286
	31.60132	52.309
	31.61084	52.30144
	31.62071	52.295
	31.62681	52.29011
	31.62964	52.29784
	31.64114	52.29123
	31.64749	52.28685
	31.64912	52.28007
	31.66028	52.2763
	31.66843	52.27672
	31.67556	52.27707
	31.68354	52.27767
	31.69976	52.27166
	31.70835	52.26617
	31.71221	52.266
	31.71247	52.26368
	31.70457	52.25973
	31.70234	52.25724
	31.69659	52.25673
	31.69848	52.2472
	31.69882	52.24574
	31.70328	52.23991
	31.71023	52.23827
	31.708	52.23595
	31.70328	52.23561
	31.7074	52.22068
	31.70869	52.21681
	31.70929	52.21484
	31.70363	52.21355
	31.70234	52.20901
	31.6959	52.20334
	31.68672	52.20317
	31.68732	52.19424
	31.70835	52.18635
	31.7189	52.19089
	31.73195	52.19261
	31.73736	52.19278
	31.74225	52.1896
	31.74405	52.18841
	31.75487	52.18978
	31.76156	52.19029
	31.76731	52.18651
	31.77306	52.18729
	31.77529	52.18823
	31.77652	52.18767
	31.78104	52.18557
	31.78233	52.1624
	31.7825	52.16094
	31.78456	52.14746
	31.78551	52.14017
	31.78422	52.13528
	31.7928	52.12601
	31.78174	52.11196
	31.777	52.11282
	31.77528	52.11219
	31.77143	52.11185
	31.76474	52.10901
	31.75581	52.10412
	31.74851	52.10352
	31.74405	52.10274
	31.74225	52.10223
	31.72903	52.09803
	31.72139	52.09674
	31.71856	52.10335
	31.71187	52.10789
	31.69787	52.10773
	31.6832	52.11262
	31.66981	52.1145
	31.66843	52.11494
	31.6644	52.11639
	31.65925	52.11768
	31.65256	52.11502
	31.62586	52.11562
	31.61496	52.11468
	31.60698	52.11262
	31.60003	52.11613
	31.59471	52.1151
	31.59333	52.11485
	31.58218	52.11785
	31.56323	52.12048
	31.55371	52.12073
	31.55022	52.12057
	31.54744	52.12081
	31.53551	52.12445
	31.52735	52.1245
	31.52089	52.12549
	31.5172	52.1254
	31.51259	52.12281
	31.50221	52.11965
	31.49042	52.11751
	31.48873	52.11623
	31.48135	52.11717
	31.47637	52.1197
	31.47259	52.12034
	31.46581	52.12065
	31.4641	52.1215
	31.46195	52.12403
	31.45989	52.12861
	31.45569	52.13088
	31.45406	52.13772
	31.45409	52.13864
	31.45348	52.13882
	31.45322	52.13902
	31.45317	52.13921
	31.45319	52.13951
	31.45297	52.13986
	31.45235	52.14013
	31.45213	52.14033
	31.45165	52.14042
	31.45117	52.14035
	31.45084	52.14021
	31.45076	52.14031
	31.4507	52.14054
	31.45047	52.14062
	31.45029	52.14057
	31.45009	52.14038
	31.44963	52.14026
	31.44924	52.1401
	31.4489	52.13994
	31.44872	52.13976
	31.4484	52.13971
	31.44819	52.1398
	31.44775	52.13995
	31.44676	52.14011
	31.44593	52.13994
	31.43961	52.14094
	31.43892	52.1418
	31.43755	52.14231
	31.43549	52.14197
	31.43412	52.14111
	31.43309	52.14163
	31.43223	52.14266
	31.42983	52.14334
	31.42897	52.14283
	31.42656	52.14077
	31.42124	52.14077
	31.42056	52.13991
	31.42021	52.1394
	31.41678	52.14008
	31.41317	52.1418
	31.40648	52.1418
	31.40236	52.14249
	31.40167	52.14231
	31.40219	52.14128
	31.40099	52.14043
	31.39893	52.14025
	31.39652	52.13974
	31.39532	52.13871
	31.39395	52.13871
	31.39378	52.13785
	31.39223	52.13682
	31.39	52.13528
	31.38863	52.13425
	31.38725	52.13425
	31.38554	52.13356
	31.37987	52.13427
	31.38468	52.13041
	31.38991	52.12552
	31.38974	52.12252
	31.38562	52.11985
	31.38082	52.12002
	31.37601	52.11719
	31.37472	52.1165
	31.37172	52.11505
	31.3615	52.1123
	31.35009	52.11032
	31.34056	52.10895
	31.33078	52.10689
	31.32777	52.10526
	31.32528	52.10123
	31.3246	52.09642
	31.32056	52.09033
	31.31109	52.08686
	31.32134	52.08291
	31.29752	52.05162
	31.2633	52.04457
	31.253	52.04223
	31.23775	52.04691
	31.2329	52.0491
	31.21855	52.05108
	31.21864	52.05506
	31.21755	52.05718
	31.21633	52.05788
	31.21369	52.0594
	31.21212	52.06196
	31.21182	52.06339
	31.21237	52.06487
	31.2143	52.0666
	31.21456	52.06744
	31.2143	52.06796
	31.21575	52.07106
	31.21293	52.07197
	31.2076	52.0731
	31.20397	52.07376
	31.19934	52.07455
	31.19547	52.07478
	31.19385	52.07507
	31.19222	52.07543
	31.19066	52.07517
	31.18836	52.0754
	31.18637	52.0754
	31.18459	52.07543
	31.1839	52.07531
	31.18312	52.07549
	31.18263	52.07507
	31.18197	52.07548
	31.18156	52.07575
	31.18115	52.07561
	31.18153	52.07526
	31.1814	52.07491
	31.18076	52.07497
	31.18019	52.07507
	31.17945	52.07488
	31.17903	52.07486
	31.17885	52.07504
	31.17926	52.07533
	31.17913	52.07575
	31.17872	52.076
	31.17804	52.07587
	31.17744	52.07566
	31.1761	52.07548
	31.17488	52.07581
	31.17423	52.07573
	31.17367	52.07599
	31.17332	52.07641
	31.17314	52.07641
	31.17242	52.07584
	31.16847	52.07711
	31.16185	52.07827
	31.15751	52.08059
	31.15694	52.0824
	31.15484	52.08384
	31.15655	52.08577
	31.15469	52.08609
	31.15318	52.08537
	31.14933	52.08711
	31.15079	52.08886
	31.14744	52.09038
	31.14603	52.09266
	31.14485	52.09522
	31.14477	52.09857
	31.14222	52.10162
	31.13984	52.1031
	31.13745	52.10278
	31.13594	52.10329
	31.12855	52.10053
	31.12616	52.09788
	31.11929	52.09762
	31.10908	52.09307
	31.1043	52.09172
	31.09972	52.09024
	31.09036	52.09119
	31.08084	52.09144
	31.07629	52.09153
	31.06625	52.09119
	31.0617	52.08904
	31.04693	52.08724
	31.03191	52.08535
	31.02556	52.08372
	31.01852	52.08303
	31.0096	52.08114
	31.00711	52.08106
	30.99818	52.08054
	30.99209	52.079
	30.99165	52.0776
	30.97816	52.07849
	30.96357	52.08162
	30.96284	52.08272
	30.96311	52.08412
	30.9652	52.09017
	30.9586	52.09085
	30.95673	52.08987
	30.95728	52.088
	30.94933	52.08948
	30.95021	52.08559
	30.95136	52.08425
	30.95183	52.08358
	30.95214	52.08255
	30.95229	52.08181
	30.95249	52.08101
	30.95254	52.07923
	30.95298	52.07664
	30.95275	52.0759
	30.95211	52.0752
	30.95126	52.07449
	30.9497	52.07381
	30.94745	52.07345
	30.946	52.07343
	30.94459	52.07374
	30.94251	52.07448
	30.94111	52.07516
	30.93947	52.07571
	30.93772	52.07588
	30.9364	52.07577
	30.93496	52.07534
	30.93336	52.07436
	30.93248	52.07281
	30.93215	52.07154
	30.93301	52.06984
	30.93456	52.0658
	30.93703	52.06331
	30.94085	52.06199
	30.94314	52.0614
	30.94507	52.06021
	30.94699	52.05784
	30.94855	52.05531
	30.94835	52.05293
	30.94733	52.05067
	30.94609	52.04905
	30.9448	52.04743
	30.943	52.04561
	30.93769	52.04403
	30.93514	52.04264
	30.93397	52.04137
	30.9334	52.04015
	30.93336	52.03911
	30.93363	52.0376
	30.93516	52.03515
	30.93627	52.03321
	30.93771	52.03149
	30.93886	52.03058
	30.94201	52.02902
	30.94445	52.02778
	30.94542	52.02627
	30.94508	52.02498
	30.94258	52.0224
	30.9399	52.02105
	30.93886	52.01966
	30.93907	52.01766
	30.94018	52.01569
	30.94028	52.01411
	30.9393	52.01297
	30.93757	52.01247
	30.9349	52.01273
	30.92992	52.01447
	30.92748	52.01543
	30.92497	52.01565
	30.92334	52.01525
	30.92177	52.01456
	30.91941	52.01166
	30.91757	52.01006
	30.91509	52.00948
	30.91185	52.00918
	30.90992	52.00906
	30.90753	52.00695
	30.90419	52.00476
	30.90099	52.00412
	30.89684	52.00343
	30.89478	52.00227
	30.89362	52.00024
	30.8924	51.9982
	30.8928	51.99609
	30.89446	51.99447
	30.89711	51.99373
	30.9022	51.9938
	30.90839	51.99262
	30.91034	51.99146
	30.91117	51.9886
	30.91022	51.9865
	30.90686	51.98488
	30.90152	51.98417
	30.8921	51.98605
	30.88882	51.98631
	30.88559	51.98507
	30.88427	51.98353
	30.88404	51.9811
	30.89038	51.97499
	30.89121	51.97294
	30.89104	51.97074
	30.89001	51.96938
	30.88786	51.96836
	30.88297	51.96736
	30.87716	51.96678
	30.87222	51.96703
	30.87041	51.96756
	30.86792	51.96904
	30.8649	51.97143
	30.86354	51.9722
	30.8618	51.97257
	30.85895	51.97211
	30.85671	51.97103
	30.85402	51.96856
	30.85288	51.96675
	30.85099	51.9631
	30.84875	51.96156
	30.84477	51.96128
	30.84229	51.96168
	30.84016	51.96234
	30.83802	51.96221
	30.83628	51.96138
	30.8355	51.96011
	30.83579	51.95869
	30.8366	51.95587
	30.83643	51.95371
	30.83498	51.95271
	30.83153	51.95179
	30.82923	51.95228
	30.82654	51.95371
	30.82398	51.95536
	30.82163	51.95582
	30.81945	51.95563
	30.81714	51.95453
	30.81564	51.95227
	30.81352	51.95086
	30.80876	51.94863
	30.80665	51.948
	30.80622	51.94684
	30.80649	51.94545
	30.80992	51.94021
	30.81325	51.93553
	30.81557	51.93285
	30.82363	51.92552
	30.82516	51.92255
	30.82494	51.92072
	30.82406	51.9191
	30.82125	51.91698
	30.81747	51.9153
	30.80909	51.90984
	30.80568	51.90722
	30.80428	51.90553
	30.80395	51.90412
	30.80395	51.90145
	30.80258	51.89906
	30.79966	51.89759
	30.79351	51.89716
	30.78658	51.8983
	30.77869	51.90016
	30.76675	51.90162
	30.76084	51.90318
	30.7563	51.90396
	30.75283	51.90404
	30.74983	51.90344
	30.74743	51.90243
	30.7461	51.90056
	30.74366	51.89749
	30.73778	51.89327
	30.73262	51.88933
	30.7291	51.88659
	30.72717	51.88443
	30.72483	51.87881
	30.72146	51.87339
	30.71382	51.87068
	30.70865	51.86817
	30.70438	51.86396
	30.70092	51.85843
	30.6994	51.85307
	30.69916	51.84314
	30.69463	51.83434
	30.69263	51.82863
	30.69056	51.8252
	30.68496	51.82358
	30.67586	51.82263
	30.66726	51.82155
	30.66318	51.81968
	30.66109	51.81758
	30.66046	51.81492
	30.66256	51.81267
	30.66423	51.81033
	30.66738	51.80726
	30.67122	51.8026
	30.6723	51.79932
	30.6719	51.79465
	30.67061	51.79069
	30.66512	51.78567
	30.66217	51.78456
	30.65681	51.78426
	30.65069	51.78449
	30.64488	51.78511
	30.63952	51.78469
	30.63614	51.78333
	30.63382	51.78176
	30.633	51.77948
	30.63252	51.77766
	30.63177	51.77627
	30.63078	51.7755
	30.62849	51.77304
	30.62688	51.77215
	30.6216	51.77126
	30.61659	51.76978
	30.61317	51.76717
	30.61231	51.76454
	30.61223	51.76321
	30.61292	51.76191
	30.61495	51.76033
	30.61949	51.75906
	30.62308	51.75964
	30.62746	51.76102
	30.6334	51.76394
	30.63785	51.76487
	30.64156	51.76492
	30.64673	51.76401
	30.64978	51.76278
	30.65127	51.7604
	30.65056	51.7527
	30.64443	51.74631
	30.63283	51.7381
	30.62883	51.73503
	30.62553	51.73181
	30.62505	51.72863
	30.62702	51.71951
	30.62782	51.71667
	30.62785	51.71556
	30.62754	51.7146
	30.62672	51.71363
	30.62559	51.71264
	30.61842	51.70901
	30.61597	51.70822
	30.61339	51.70773
	30.6085	51.70745
	30.60586	51.70749
	30.60252	51.70795
	30.59952	51.70865
	30.59259	51.70998
	30.58247	51.71125
	30.57885	51.71138
	30.57643	51.71127
	30.5744	51.71088
	30.56932	51.70947
	30.56669	51.70806
	30.5637	51.7062
	30.56176	51.7045
	30.56057	51.70255
	30.56025	51.701
	30.56054	51.69974
	30.5615	51.69791
	30.56271	51.69629
	30.56516	51.69349
	30.56887	51.68981
	30.57508	51.6845
	30.57723	51.68215
	30.57833	51.68056
	30.579	51.67849
	30.57901	51.67622
	30.5774	51.67005
	30.57673	51.66823
	30.57424	51.66502
	30.57348	51.6628
	30.57354	51.66023
	30.57467	51.65811
	30.57924	51.6535
	30.58038	51.65103
	30.58085	51.64814
	30.57969	51.64604
	30.5772	51.64384
	30.5729	51.64243
	30.56865	51.6426
	30.55849	51.64389
	30.55291	51.64375
	30.54876	51.64294
	30.54643	51.64085
	30.54581	51.6388
	30.54657	51.63656
	30.54846	51.63434
	30.55136	51.63284
	30.55622	51.63051
	30.55797	51.62885
	30.55896	51.62664
	30.55882	51.62449
	30.55726	51.62278
	30.5539	51.62183
	30.54953	51.62149
	30.54235	51.62244
	30.53879	51.62256
	30.53645	51.6224
	30.53376	51.62114
	30.53143	51.61964
	30.5305	51.61759
	30.53087	51.61594
	30.53129	51.61496
	30.53458	51.61205
	30.53582	51.61005
	30.5361	51.60762
	30.53525	51.60597
	30.53395	51.60438
	30.5323	51.60312
	30.52966	51.60232
	30.52594	51.60229
	30.5198	51.60374
	30.51678	51.60428
	30.51454	51.60417
	30.51149	51.60373
	30.50899	51.60272
	30.50699	51.60104
	30.50621	51.59875
	30.50672	51.59716
	30.50765	51.59606
	30.51078	51.5935
	30.51463	51.59217
	30.5178	51.59117
	30.52713	51.5895
	30.53296	51.58834
	30.54096	51.58491
	30.54768	51.58248
	30.55138	51.5811
	30.55397	51.57899
	30.55534	51.57687
	30.55532	51.57472
	30.55389	51.5731
	30.55199	51.5724
	30.54932	51.5724
	30.54355	51.57327
	30.53833	51.57422
	30.53511	51.57454
	30.5332	51.57415
	30.53167	51.57343
	30.5293	51.57177
	30.52811	51.57019
	30.52784	51.56767
	30.52835	51.56506
	30.52993	51.56178
	30.53376	51.55882
	30.53958	51.55467
	30.54215	51.55221
	30.54389	51.54966
	30.54545	51.54269
	30.5474	51.54103
	30.55031	51.54031
	30.55306	51.5405
	30.55579	51.54225
	30.55841	51.54495
	30.56255	51.54776
	30.56764	51.55076
	30.57077	51.55203
	30.57344	51.55238
	30.57623	51.55236
	30.57875	51.55162
	30.58159	51.54945
	30.58412	51.54652
	30.58669	51.54268
	30.58717	51.54062
	30.58693	51.5395
	30.58574	51.53782
	30.58265	51.53547
	30.57352	51.52423
	30.56926	51.51808
	30.56831	51.51315
	30.57012	51.51012
	30.57626	51.50664
	30.58031	51.50419
	30.58311	51.50185
	30.58585	51.49895
	30.58855	51.49523
	30.58872	51.48469
	30.59062	51.47959
	30.59316	51.47677
	30.59919	51.47299
	30.60112	51.47558
	30.60645	51.4738
	30.61328	51.47226
	30.61651	51.47199
	30.6191	51.47161
	30.62063	51.47084
	30.62176	51.47008
	30.62255	51.46908
	30.62308	51.46765
	30.62323	51.46484
	30.62261	51.46278
	30.62231	51.46099
	30.61846	51.45962
	30.61706	51.45939
	30.61241	51.45744
	30.61172	51.45771
	30.61149	51.45821
	30.61083	51.45857
	30.60943	51.45864
	30.60788	51.45835
	30.6057	51.45826
	30.60386	51.45855
	30.60263	51.45901
	30.59946	51.45771
	30.59745	51.45724
	30.59517	51.4568
	30.59321	51.4564
	30.59161	51.45599
	30.58705	51.45405
	30.58296	51.45198
	30.5801	51.44975
	30.57926	51.44829
	30.5794	51.44656
	30.58045	51.44483
	30.58107	51.44359
	30.58266	51.44107
	30.58285	51.44025
	30.58352	51.43849
	30.58472	51.43503
	30.58572	51.43278
	30.58612	51.4305
	30.58642	51.42988
	30.58728	51.42846
	30.58806	51.42747
	30.58854	51.42693
	30.58949	51.42612
	30.59024	51.42551
	30.59135	51.42493
	30.59286	51.42432
	30.59426	51.42393
	30.5958	51.42372
	30.5981	51.42364
	30.59939	51.42365
	30.60023	51.42376
	30.60154	51.42413
	30.60322	51.42511
	30.60449	51.42605
	30.60657	51.42862
	30.60786	51.42915
	30.60923	51.42998
	30.60969	51.43052
	30.61105	51.43076
	30.61296	51.43106
	30.61431	51.43113
	30.61579	51.43103
	30.61691	51.43078
	30.61831	51.43054
	30.61982	51.43006
	30.6208	51.42908
	30.62152	51.42888
	30.62184	51.42844
	30.62232	51.42771
	30.62279	51.42713
	30.62264	51.42675
	30.62251	51.42626
	30.62281	51.42615
	30.62294	51.42599
	30.62282	51.42584
	30.62257	51.42575
	30.62231	51.42522
	30.62202	51.42476
	30.62175	51.42408
	30.62176	51.42352
	30.62223	51.42262
	30.62296	51.4219
	30.62375	51.42129
	30.62523	51.42084
	30.62617	51.42047
	30.62649	51.42019
	30.62756	51.41965
	30.62807	51.41872
	30.62857	51.41802
	30.62884	51.41721
	30.6291	51.41599
	30.62961	51.41467
	30.63029	51.41332
	30.63157	51.41071
	30.63161	51.40985
	30.63175	51.40858
	30.6319	51.40824
	30.63204	51.40761
	30.63277	51.40659
	30.63683	51.40131
	30.63978	51.39735
	30.64025	51.39574
	30.64462	51.39025
	30.65031	51.38442
	30.6544	51.37901
	30.6557	51.37618
	30.65523	51.37499
	30.65451	51.37342
	30.65327	51.37226
	30.65179	51.37077
	30.65008	51.36993
	30.64745	51.36967
	30.64437	51.3691
	30.64087	51.36767
	30.63893	51.36593
	30.63663	51.36481
	30.63534	51.36332
	30.63469	51.36105
	30.63496	51.35892
	30.63808	51.35631
	30.64435	51.35371
	30.64911	51.35177
	30.65108	51.35049
	30.65418	51.34755
	30.65605	51.34512
	30.65655	51.34254
	30.65155	51.33542
	30.64832	51.33326
	30.64709	51.33315
	30.6433	51.33301
	30.63841	51.33311
	30.63138	51.33321
	30.62854	51.3337
	30.62557	51.3336
	30.62213	51.33259
	30.6198	51.33134
	30.61808	51.32797
	30.61237	51.32283
	30.60559	51.31989
	30.60196	51.31805
	30.59745	51.31512
	30.5936	51.31184
	30.59572	51.30917
	30.60039	51.30829
	30.60302	51.30824
	30.60635	51.30858
	30.60886	51.30907
	30.61036	51.30911
	30.61199	51.30895
	30.61305	51.3086
	30.61387	51.30787
	30.61419	51.30694
	30.61416	51.306
	30.613	51.30479
	30.61121	51.30396
	30.60965	51.30345
	30.60811	51.3035
	30.6066	51.30396
	30.60528	51.30491
	30.60386	51.30533
	30.60221	51.30536
	30.60096	51.30498
	30.59995	51.30434
	30.59949	51.30345
	30.59985	51.30266
	30.60166	51.30162
	30.60297	51.30078
	30.60523	51.30035
	30.60759	51.30052
	30.61082	51.30059
	30.61241	51.30088
	30.61414	51.30163
	30.61571	51.30253
	30.61671	51.30406
	30.61755	51.30541
	30.61839	51.30583
	30.62096	51.30603
	30.62249	51.30468
	30.62208	51.30417
	30.62116	51.30331
	30.61982	51.30236
	30.61922	51.30213
	30.61869	51.30184
	30.61829	51.30151
	30.61903	51.30056
	30.61771	51.29968
	30.61699	51.29894
	30.61652	51.29812
	30.61654	51.29743
	30.61676	51.29684
	30.61772	51.2955
	30.61835	51.29437
	30.61887	51.29241
	30.61898	51.29168
	30.61895	51.29092
	30.61878	51.28949
	30.61841	51.2887
	30.61799	51.28805
	30.61678	51.28694
	30.61676	51.28676
	30.61631	51.2862
	30.61513	51.28489
	30.61349	51.28358
	30.61165	51.28241
	30.60953	51.28109
	30.60822	51.28068
	30.60709	51.28021
	30.60619	51.28003
	30.60503	51.27995
	30.60299	51.28012
	30.60089	51.28027
	30.59781	51.28078
	30.59621	51.28091
	30.59553	51.28098
	30.5943	51.28096
	30.59261	51.28064
	30.58838	51.27918
	30.58394	51.27686
	30.58154	51.27595
	30.57994	51.27558
	30.57863	51.27507
	30.57686	51.27406
	30.57456	51.27226
	30.57264	51.26779
	30.57177	51.26595
	30.57239	51.26371
	30.57214	51.26326
	30.57111	51.26177
	30.57026	51.26041
	30.56955	51.25946
	30.56745	51.2576
	30.53984	51.26708
	30.50249	51.28084
	30.49358	51.27931
	30.49058	51.27897
	30.46765	51.27533
	30.46269	51.27495
	30.45858	51.27525
	30.45544	51.27685
	30.4544	51.28139
	30.45627	51.2827
	30.46022	51.28482
	30.46483	51.28934
	30.46652	51.29142
	30.46644	51.29292
	30.46389	51.2946
	30.46113	51.29607
	30.4594	51.29811
	30.45937	51.30054
	30.46201	51.30378
	30.46257	51.30648
	30.44953	51.30749
	30.44358	51.30848
	30.44102	51.30839
	30.4317	51.30609
	30.42397	51.30558
	30.41685	51.30789
	30.39756	51.31271
	30.39335	51.31847
	30.39153	51.32146
	30.38646	51.32349
	30.35016	51.35047
	30.34244	51.35167
	30.33857	51.35382
	30.32418	51.36051
	30.34304	51.36952
	30.36269	51.37965
	30.36089	51.38806
	30.35823	51.39682
	30.35316	51.41338
	30.35093	51.41836
	30.34887	51.42349
	30.34409	51.42449
	30.34158	51.42445
	30.33836	51.42531
	30.33655	51.42512
	30.33432	51.42615
	30.33306	51.42738
	30.33155	51.42767
	30.33061	51.42926
	30.32903	51.4305
	30.32722	51.4306
	30.3265	51.43128
	30.32608	51.43238
	30.32499	51.43299
	30.32238	51.43367
	30.32198	51.43472
	30.32121	51.43621
	30.31921	51.43951
	30.31638	51.44098
	30.3118	51.44274
	30.31107	51.44324
	30.30923	51.44687
	30.30544	51.44923
	30.30486	51.45033
	30.2987	51.4562
	30.29443	51.45774
	30.29367	51.45886
	30.29136	51.46023
	30.28858	51.4632
	30.28754	51.46401
	30.28381	51.4639
	30.27378	51.46798
	30.26064	51.47635
	30.25298	51.48111
	30.24663	51.48553
	30.23977	51.4877
	30.23314	51.48895
	30.2124	51.49314
	30.21261	51.49359
	30.19812	51.50218
	30.18017	51.51252
	30.17447	51.51097
	30.16851	51.50901
	30.16395	51.489
	30.15935	51.48951
	30.14792	51.49321
	30.13838	51.49848
	30.13633	51.49952
	30.13489	51.5002
	30.1339	51.50091
	30.13357	51.50323
	30.1331	51.50476
	30.13088	51.50565
	30.12798	51.50606
	30.12556	51.50602
	30.12097	51.50461
	30.12651	51.49053
	30.11995	51.48766
	30.11739	51.48738
	30.11332	51.48799
	30.11088	51.48825
	30.10941	51.48916
	30.10705	51.49041
	30.09799	51.49284
	30.09147	51.49448
	30.07756	51.49749
	30.0707	51.49921
	30.06523	51.4999
	30.05932	51.49878
	30.04881	51.5011
	30.0416	51.50325
	30.03293	51.5035
	30.02855	51.50419
	30.02812	51.50728
	30.02634	51.50758
	30.01812	51.50604
	30.01697	51.50513
	30.01697	51.50282
	30.02066	51.49938
	30.02109	51.49655
	30.01739	51.49561
	30.01628	51.49183
	30.01491	51.4902
	30.00813	51.48934
	30.00401	51.48616
	29.99851	51.48479
	29.99114	51.48249
	29.98979	51.48353
	29.98692	51.48534
	29.98507	51.48626
	29.98187	51.48659
	29.98137	51.48665
	29.97694	51.48572
	29.97345	51.48328
	29.9726	51.48123
	29.97197	51.47711
	29.97179	51.47476
	29.97026	51.47295
	29.9662	51.4715
	29.95876	51.47129
	29.94963	51.47441
	29.94824	51.47728
	29.9479	51.47922
	29.94831	51.48123
	29.94976	51.48397
	29.94478	51.48651
	29.93663	51.48883
	29.93234	51.49209
	29.92659	51.49209
	29.92298	51.48814
	29.91526	51.48668
	29.91299	51.48794
	29.91114	51.48762
	29.90839	51.48685
	29.90685	51.48531
	29.90024	51.48548
	29.89363	51.48531
	29.89268	51.48368
	29.89388	51.48024
	29.88951	51.47861
	29.88564	51.47844
	29.88633	51.47561
	29.89157	51.47389
	29.88951	51.46917
	29.88908	51.46496
	29.88908	51.46273
	29.88358	51.46067
	29.87878	51.45784
	29.87972	51.45355
	29.8829	51.44986
	29.88135	51.44625
	29.87655	51.44608
	29.86582	51.44908
	29.85835	51.4502
	29.85217	51.44986
	29.84994	51.45544
	29.84651	51.45835
	29.83689	51.45501
	29.82774	51.45229
	29.81715	51.44977
	29.81552	51.45518
	29.81346	51.45999
	29.80574	51.4593
	29.79441	51.4581
	29.79527	51.45166
	29.79775	51.44651
	29.79733	51.44171
	29.78617	51.44668
	29.77887	51.4484
	29.77046	51.44926
	29.7648	51.45123
	29.75544	51.45432
	29.75278	51.45552
	29.74926	51.45707
	29.74428	51.45741
	29.74634	51.46488
	29.74111	51.46986
	29.73819	51.47467
	29.73475	51.48127
	29.73518	51.48668
	29.73338	51.48994
	29.73175	51.49243
	29.74205	51.49329
	29.74231	51.49355
	29.74371	51.49772
	29.74634	51.50204
	29.74454	51.50625
	29.73948	51.50934
	29.73948	51.512
	29.74523	51.51312
	29.74634	51.51535
	29.74402	51.51878
	29.74291	51.52144
	29.74042	51.53105
	29.73767	51.53157
	29.72969	51.52925
	29.72265	51.53037
	29.71673	51.52994
	29.71107	51.52754
	29.70969	51.52307
	29.70222	51.51918
	29.70197	51.51904
	29.69493	51.51715
	29.69175	51.51766
	29.68695	51.51509
	29.67896	51.51277
	29.67673	51.51217
	29.67416	51.50985
	29.67467	51.50565
	29.67278	51.50299
	29.66781	51.5023
	29.66489	51.50325
	29.66214	51.50496
	29.65897	51.50582
	29.65459	51.50634
	29.65373	51.50513
	29.65167	51.50299
	29.64643	51.49921
	29.64326	51.49895
	29.64163	51.4999
	29.64025	51.50273
	29.63888	51.50419
	29.63365	51.50634
	29.63116	51.5035
	29.62965	51.50129
	29.62935	51.50084
	29.62798	51.49801
	29.62455	51.4944
	29.61596	51.49277
	29.61159	51.49372
	29.60884	51.49372
	29.60867	51.48668
	29.60678	51.48316
	29.60979	51.47938
	29.6091	51.47467
	29.60592	51.47158
	29.60524	51.47132
	29.59519	51.46677
	29.58541	51.46393
	29.57932	51.46239
	29.57605	51.46393
	29.57271	51.46685
	29.56653	51.46986
	29.55648	51.47492
	29.54215	51.48273
	29.5388	51.48247
	29.53803	51.4793
	29.53478	51.47435
	29.53623	51.47029
	29.53554	51.46273
	29.53142	51.45981
	29.52765	51.45716
	29.52172	51.45243
	29.52052	51.44737
	29.51915	51.44368
	29.52353	51.43887
	29.52353	51.43535
	29.52258	51.43226
	29.52215	51.42995
	29.52215	51.42668
	29.52327	51.42377
	29.52078	51.42239
	29.51735	51.42454
	29.51511	51.42411
	29.51417	51.42076
	29.51194	51.41673
	29.51005	51.41381
	29.50635	51.41049
	29.50542	51.4072
	29.50393	51.40457
	29.50236	51.40214
	29.50007	51.40022
	29.49569	51.39677
	29.49254	51.39733
	29.4807	51.39999
	29.47005	51.40291
	29.4643	51.40394
	29.45769	51.40651
	29.4516	51.40892
	29.44199	51.41106
	29.43091	51.41355
	29.42156	51.4151
	29.41426	51.41364
	29.40147	51.40909
	29.39581	51.40823
	29.39032	51.40445
	29.38388	51.40248
	29.38285	51.40222
	29.37787	51.39853
	29.37306	51.39261
	29.3692	51.38943
	29.36328	51.38926
	29.36053	51.38763
	29.35916	51.38549
	29.35624	51.38454
	29.3444	51.38411
	29.34028	51.38574
	29.33118	51.37965
	29.3262	51.37767
	29.32457	51.3824
	29.32182	51.38617
	29.32047	51.39495
	29.3229	51.3991
	29.32452	51.40683
	29.32474	51.40995
	29.32345	51.41132
	29.32208	51.41741
	29.31659	51.42145
	29.31573	51.43372
	29.31255	51.43922
	29.31006	51.44222
	29.30792	51.44488
	29.30723	51.44763
	29.30775	51.4502
	29.30912	51.45423
	29.30431	51.45621
	29.29496	51.45947
	29.28886	51.46016
	29.28157	51.45861
	29.27539	51.45878
	29.27178	51.46582
	29.27067	51.472
	29.27135	51.47698
	29.26286	51.48085
	29.25857	51.48428
	29.25539	51.49054
	29.25101	51.49561
	29.25101	51.50342
	29.25333	51.51166
	29.25556	51.51878
	29.25513	51.52384
	29.26655	51.53105
	29.26423	51.53723
	29.26148	51.54513
	29.26269	51.54908
	29.26449	51.55148
	29.25762	51.5635
	29.25745	51.56796
	29.25427	51.57011
	29.25144	51.5703
	29.25041	51.57036
	29.24106	51.56985
	29.22329	51.56899
	29.21917	51.56848
	29.20888	51.57358
	29.20868	51.57735
	29.20297	51.5805
	29.20215	51.58236
	29.20489	51.5843
	29.20557	51.59029
	29.20567	51.59129
	29.20405	51.59733
	29.20374	51.60023
	29.19531	51.6047
	29.18484	51.60865
	29.18046	51.61131
	29.18252	51.61388
	29.18533	51.61665
	29.18733	51.6186
	29.18887	51.62195
	29.18501	51.62349
	29.17728	51.6247
	29.17482	51.62539
	29.16613	51.62779
	29.16252	51.63002
	29.16209	51.63036
	29.16226	51.63233
	29.16252	51.63242
	29.16776	51.63491
	29.16844	51.63706
	29.17093	51.64324
	29.17728	51.64693
	29.17823	51.65002
	29.17617	51.65122
	29.17299	51.65122
	29.17162	51.65267
	29.16999	51.65379
	29.16707	51.65414
	29.16475	51.65379
	29.16364	51.65267
	29.16209	51.65173
	29.16046	51.65096
	29.15909	51.65164
	29.15754	51.65259
	29.15617	51.65225
	29.15342	51.65105
	29.15136	51.65096
	29.1499	51.65259
	29.14678	51.65208
	29.14527	51.65182
	29.14214	51.65072
	29.14115	51.65036
	29.14078	51.65048
	29.136	51.6519
	29.13162	51.65293
	29.12647	51.6562
	29.1227	51.65817
	29.12096	51.65739
	29.11986	51.65688
	29.11541	51.65378
	29.11188	51.6507
	29.10562	51.64624
	29.09918	51.64092
	29.10132	51.63946
	29.09823	51.6356
	29.09746	51.63328
	29.09712	51.63088
	29.09429	51.62993
	29.08712	51.63005
	29.0827	51.6301
	29.07772	51.63002
	29.07394	51.62779
	29.06811	51.62598
	29.06794	51.62375
	29.06699	51.62169
	29.06184	51.61886
	29.05575	51.6138
	29.05386	51.61113
	29.04777	51.60564
	29.04305	51.60264
	29.03678	51.59594
	29.03506	51.59225
	29.02708	51.58822
	29.02313	51.58547
	29.01841	51.58264
	29.01498	51.58075
	29.00545	51.57569
	29.00167	51.57328
	28.9888	51.57328
	28.98253	51.5732
	28.97841	51.57577
	28.97498	51.57835
	28.97387	51.58298
	28.97266	51.58831
	28.97017	51.59131
	28.96357	51.59071
	28.95292	51.58916
	28.94237	51.5871
	28.94198	51.58708
	28.93172	51.58633
	28.92769	51.58641
	28.92142	51.58847
	28.91404	51.58882
	28.90537	51.58882
	28.8919	51.58676
	28.88658	51.58496
	28.88486	51.58298
	28.88658	51.58187
	28.88658	51.57938
	28.88374	51.57826
	28.87937	51.57569
	28.87404	51.57431
	28.87422	51.57208
	28.87221	51.57049
	28.87121	51.56968
	28.86744	51.56933
	28.86495	51.56899
	28.85774	51.5659
	28.85181	51.56427
	28.84426	51.56153
	28.83971	51.56007
	28.83456	51.5605
	28.82701	51.55998
	28.82375	51.55878
	28.82178	51.55673
	28.82014	51.555
	28.81714	51.55148
	28.81336	51.54822
	28.81319	51.54702
	28.81276	51.54324
	28.80933	51.54041
	28.80678	51.53876
	28.80538	51.53784
	28.79766	51.53182
	28.79362	51.5247
	28.79002	51.51861
	28.7873	51.51441
	28.78675	51.51354
	28.78581	51.50942
	28.78186	51.50522
	28.77903	51.50076
	28.77654	51.49792
	28.77182	51.49449
	28.76667	51.49054
	28.76641	51.4884
	28.76573	51.48402
	28.77105	51.48059
	28.7756	51.47776
	28.77791	51.47441
	28.77903	51.46797
	28.78015	51.4635
	28.78203	51.45844
	28.78512	51.45329
	28.78418	51.45217
	28.78358	51.45132
	28.77714	51.4508
	28.77542	51.44892
	28.77431	51.4387
	28.77242	51.43553
	28.77199	51.42935
	28.76761	51.42394
	28.76289	51.42119
	28.76066	51.41827
	28.7574	51.41587
	28.7544	51.41733
	28.75457	51.42583
	28.74787	51.42651
	28.74624	51.42832
	28.74521	51.43054
	28.738	51.43578
	28.74015	51.44437
	28.73783	51.45149
	28.73809	51.45217
	28.73998	51.45801
	28.74066	51.46239
	28.74204	51.46505
	28.73998	51.46694
	28.73594	51.46514
	28.73088	51.46256
	28.7287	51.46203
	28.72496	51.4611
	28.72496	51.45569
	28.72384	51.45261
	28.71981	51.45055
	28.71586	51.44857
	28.7071	51.44454
	28.70298	51.44231
	28.69895	51.44231
	28.68779	51.44471
	28.68384	51.45681
	28.67947	51.46694
	28.67088	51.48994
	28.66505	51.50084
	28.66127	51.5102
	28.6599	51.51612
	28.65801	51.52118
	28.65835	51.52582
	28.66024	51.52865
	28.65664	51.53869
	28.65303	51.54745
	28.64608	51.55406
	28.64488	51.55509
	28.64608	51.5556
	28.65114	51.55801
	28.65564	51.55906
	28.65706	51.55938
	28.65818	51.56075
	28.65535	51.56238
	28.65097	51.56195
	28.64608	51.56041
	28.64571	51.5603
	28.64393	51.55972
	28.63998	51.55749
	28.63715	51.55904
	28.63578	51.56256
	28.64393	51.56556
	28.64608	51.56599
	28.6502	51.56693
	28.66101	51.56693
	28.66273	51.56813
	28.65878	51.57019
	28.6586	51.57024
	28.65518	51.57105
	28.65114	51.56925
	28.64342	51.56899
	28.6375	51.56981
	28.63715	51.56985
	28.63526	51.57397
	28.60625	51.57397
	28.58419	51.57354
	28.57226	51.5732
	28.56471	51.57294
	28.56425	51.57296
	28.55896	51.57311
	28.55973	51.58316
	28.53089	51.58316
	28.52712	51.58453
	28.52583	51.58719
	28.52334	51.58856
	28.52111	51.59096
	28.51819	51.59182
	28.50394	51.59156
	28.49906	51.5918
	28.49822	51.59183
	28.49107	51.59217
	28.47879	51.59354
	28.47154	51.59346
	28.46849	51.59174
	28.45919	51.58752
	28.45201	51.5835
	28.44197	51.57714
	28.43322	51.57114
	28.42584	51.56659
	28.42472	51.56599
	28.41442	51.5611
	28.39734	51.55097
	28.38429	51.54702
	28.3758	51.54659
	28.37048	51.54376
	28.36739	51.54109
	28.35949	51.53938
	28.35563	51.54118
	28.35277	51.5448
	28.35906	51.55165
	28.36172	51.55792
	28.35683	51.56427
	28.35357	51.56993
	28.35091	51.57268
	28.34558	51.57809
	28.3382	51.58187
	28.33254	51.58427
	28.33022	51.58805
	28.32799	51.59037
	28.32267	51.59465
	28.31855	51.598
	28.30919	51.60573
	28.30044	51.61251
	28.29443	51.61697
	28.28851	51.62229
	28.28679	51.62341
	28.27786	51.62341
	28.27718	51.62324
	28.27014	51.62169
	28.26267	51.61955
	28.26288	51.61968
	28.26027	51.62289
	28.25795	51.62796
	28.26344	51.63963
	28.26499	51.6501
	28.26516	51.65053
	28.26825	51.6598
	28.26954	51.66478
	28.27143	51.66899
	28.27443	51.67199
	28.2728	51.67671
	28.26842	51.67963
	28.26439	51.68143
	28.25701	51.67894
	28.24542	51.67473
	28.23939	51.67132
	28.2274	51.66606
	28.21452	51.66091
	28.20336	51.65576
	28.19993	51.65414
	28.18834	51.65105
	28.17796	51.64581
	28.17375	51.64392
	28.1741	51.63259
	28.17452	51.62967
	28.1747	51.62864
	28.17075	51.62324
	28.16234	51.61646
	28.15839	51.61268
	28.15573	51.60899
	28.15195	51.6059
	28.14646	51.60641
	28.13942	51.60822
	28.13547	51.60882
	28.13161	51.60521
	28.12955	51.60358
	28.125	51.60006
	28.122	51.59508
	28.12062	51.58968
	28.11951	51.58625
	28.11728	51.58307
	28.10946	51.5811
	28.10243	51.57869
	28.0935	51.57654
	28.0844	51.57492
	28.07702	51.57989
	28.06964	51.5744
	28.0586	51.56951
	28.05745	51.56899
	28.05582	51.56839
	28.05101	51.56642
	28.04269	51.56633
	28.03797	51.56736
	28.0275	51.5659
	28.01617	51.56367
	28.00664	51.56298
	27.99067	51.56281
	27.98201	51.56195
	27.97102	51.56084
	27.95789	51.55938
	27.94579	51.55818
	27.94407	51.55929
	27.94458	51.56221
	27.96072	51.57208
	27.96227	51.57714
	27.9681	51.57981
	27.97497	51.58487
	27.9772	51.58822
	27.97986	51.59243
	27.98029	51.5956
	27.97368	51.59646
	27.96759	51.59629
	27.96587	51.5944
	27.95978	51.59337
	27.95918	51.59243
	27.95849	51.59131
	27.95591	51.58822
	27.95222	51.58384
	27.95051	51.5811
	27.93986	51.57912
	27.93042	51.57766
	27.92639	51.5786
	27.92493	51.58169
	27.92699	51.58822
	27.92776	51.59071
	27.92999	51.59552
	27.92776	51.59912
	27.92682	51.60753
	27.92244	51.61174
	27.92089	51.61525
	27.91806	51.61723
	27.91334	51.61817
	27.90819	51.61834
	27.89832	51.61869
	27.89472	51.62066
	27.89231	51.62324
	27.88828	51.62487
	27.88184	51.62504
	27.87513	51.62612
	27.87074	51.62451
	27.86575	51.6242
	27.86019	51.62233
	27.85242	51.6201
	27.84752	51.6177
	27.84803	51.6153
	27.84711	51.61273
	27.84625	51.61198
	27.84703	51.61081
	27.8474	51.60831
	27.84577	51.60694
	27.84536	51.60661
	27.84313	51.6053
	27.83953	51.60186
	27.83446	51.59843
	27.83369	51.59792
	27.83446	51.59045
	27.83463	51.58899
	27.83456	51.58864
	27.83403	51.58547
	27.83249	51.5811
	27.82966	51.57869
	27.8312	51.57646
	27.83403	51.57534
	27.83249	51.57294
	27.83343	51.57191
	27.83446	51.57122
	27.83747	51.56916
	27.83875	51.5653
	27.84313	51.56264
	27.84485	51.55998
	27.8439	51.55654
	27.84562	51.55414
	27.84451	51.55183
	27.8494	51.55036
	27.85266	51.54762
	27.85429	51.54547
	27.85111	51.54161
	27.83901	51.5356
	27.83798	51.53557
	27.83446	51.53543
	27.82547	51.53383
	27.81128	51.53167
	27.80533	51.53107
	27.7961	51.5223
	27.7906	51.51449
	27.78734	51.50942
	27.78324	51.50471
	27.78305	51.50445
	27.77996	51.50076
	27.77507	51.49775
	27.77164	51.49483
	27.76975	51.49269
	27.76958	51.48934
	27.76975	51.48325
	27.76837	51.47776
	27.76365	51.47449
	27.76065	51.47415
	27.7591	51.47406
	27.74966	51.47586
	27.7459	51.47663
	27.74202	51.47741
	27.73026	51.48685
	27.72254	51.49234
	27.71018	51.49775
	27.70331	51.49887
	27.69765	51.4981
	27.69353	51.50024
	27.68692	51.50659
	27.684	51.50942
	27.67756	51.51312
	27.67241	51.51483
	27.66881	51.51784
	27.68435	51.52075
	27.684	51.52762
	27.68194	51.52994
	27.68366	51.54109
	27.68516	51.54189
	27.68692	51.54281
	27.69387	51.54659
	27.7058	51.55492
	27.71868	51.55947
	27.72417	51.5623
	27.72683	51.56668
	27.7276	51.57019
	27.72975	51.5768
	27.73001	51.57792
	27.73104	51.58195
	27.7337	51.59002
	27.73464	51.59371
	27.73104	51.59483
	27.7276	51.60461
	27.70546	51.6071
	27.69937	51.60607
	27.69447	51.60667
	27.69044	51.60942
	27.68838	51.61294
	27.68692	51.61294
	27.67602	51.61268
	27.66975	51.61225
	27.66066	51.61483
	27.6531	51.61757
	27.65061	51.61628
	27.64546	51.61191
	27.63885	51.61036
	27.63715	51.6094
	27.63585	51.60865
	27.62898	51.60659
	27.62143	51.6071
	27.60873	51.61431
	27.59963	51.61903
	27.58804	51.62487
	27.57508	51.62864
	27.5683	51.6301
	27.56221	51.63259
	27.5556	51.63619
	27.5526	51.63251
	27.55011	51.6289
	27.54341	51.62246
	27.53929	51.62547
	27.53225	51.6307
	27.53007	51.63226
	27.52633	51.63491
	27.5241	51.63628
	27.52032	51.63542
	27.52624	51.64124
	27.49329	51.6687
	27.49878	51.69067
	27.49329	51.70166
	27.49878	51.72913
	27.50977	51.73462
	27.53174	51.73462
	27.5592	51.7511
	27.5592	51.76208
	27.54272	51.77307
	27.5647	51.81152
	27.53174	51.828
	27.53174	51.83899
	27.50427	51.85547
	27.53174	51.87744
	27.54272	51.89941
	27.54272	51.92139
	27.52075	51.94336
	27.52075	51.94885
	27.53723	51.96533
	27.60864	51.99829
	27.61963	52.00928
	27.60864	52.02026
	27.61963	52.02576
	27.61753	52.02995
	27.61713	52.02996
	27.61551	52.03021
	27.61528	52.03026
	27.61376	52.03069
	27.6119	52.03086
	27.60914	52.0312
	27.60585	52.03162
	27.60306	52.03173
	27.59856	52.03204
	27.59632	52.03214
	27.59602	52.03218
	27.59444	52.0325
	27.59414	52.03258
	27.59386	52.03269
	27.58667	52.03125
	27.58118	52.03674
	27.57568	52.04773
	27.57019	52.05322
	27.57568	52.05871
	27.54822	52.05871
	27.52624	52.0697
	27.53174	52.08618
	27.52075	52.11914
	27.53723	52.14661
	27.53174	52.15759
	27.54822	52.16858
	27.52624	52.18506
	27.53723	52.20154
	27.5592	52.20154
	27.55371	52.23999
	27.53189	52.24545
	27.53174	52.24548
	27.53174	52.26196
	27.52075	52.26746
	27.49329	52.26746
	27.49274	52.26786
	27.47131	52.28393
	27.41089	52.28943
	27.3998	52.29316
	27.37793	52.30042
	27.37244	52.32239
	27.26807	52.32239
	27.27356	52.33337
	27.25159	52.36084
	27.26807	52.37732
	27.27344	52.38807
END
END
