Belarus_Maglieu Region
1
	29.39941	54.245
	29.42139	54.25049
	29.43787	54.2395
	29.45434	54.25049
	29.46533	54.25049
	29.46533	54.25598
	29.47083	54.26147
	29.4873	54.25598
	29.50378	54.27246
	29.50378	54.28894
	29.52026	54.28894
	29.52576	54.30542
	29.54224	54.31091
	29.5697	54.30542
	29.5697	54.31091
	29.56033	54.32497
	29.5611	54.326
	29.56134	54.32702
	29.56342	54.328
	29.56399	54.32841
	29.56529	54.32975
	29.56567	54.3303
	29.56736	54.33393
	29.5668	54.33548
	29.5752	54.34387
	29.61914	54.34936
	29.61914	54.34387
	29.65759	54.33288
	29.69055	54.31091
	29.71252	54.3219
	29.74548	54.3219
	29.76746	54.31641
	29.77252	54.32147
	29.77235	54.32157
	29.77165	54.32231
	29.77112	54.32337
	29.77108	54.32364
	29.77152	54.32523
	29.77235	54.32624
	29.77285	54.32667
	29.77639	54.32879
	29.77844	54.33288
	29.8114	54.3219
	29.83887	54.33838
	29.86633	54.32739
	29.88281	54.33838
	29.88281	54.34936
	29.89929	54.34936
	29.90479	54.33838
	29.89588	54.33089
	29.91577	54.31091
	29.90479	54.30542
	29.93774	54.28894
	29.94873	54.28894
	29.9502	54.29321
	29.96521	54.29443
	29.9762	54.29443
	29.97966	54.29229
	29.97869	54.29068
	29.9762	54.28894
	29.9762	54.27795
	30.00915	54.27795
	30.00915	54.27246
	30.02563	54.27795
	30.00366	54.30542
	30.00366	54.31641
	30.02563	54.31641
	30.04211	54.30542
	30.0531	54.31091
	30.0531	54.31641
	30.07507	54.31641
	30.07507	54.3219
	30.04761	54.32739
	30.03662	54.34387
	30.04211	54.34936
	30.0531	54.34387
	30.06958	54.34387
	30.08057	54.33838
	30.08057	54.33721
	30.08109	54.33691
	30.08164	54.33668
	30.08242	54.33562
	30.08257	54.33572
	30.08349	54.33434
	30.08459	54.33273
	30.0849	54.33235
	30.08507	54.33153
	30.08603	54.3307
	30.08711	54.33005
	30.08924	54.32882
	30.09027	54.32815
	30.0914	54.32747
	30.09155	54.32739
	30.09434	54.32888
	30.09384	54.32966
	30.09381	54.33174
	30.09389	54.33188
	30.0951	54.3328
	30.09543	54.33289
	30.09547	54.33303
	30.09626	54.33413
	30.09639	54.33422
	30.09712	54.33494
	30.09731	54.33504
	30.09805	54.33527
	30.09794	54.33543
	30.0978	54.33569
	30.09758	54.33648
	30.09754	54.33709
	30.09763	54.33783
	30.09775	54.3382
	30.09795	54.33865
	30.09814	54.33894
	30.09831	54.3393
	30.09911	54.33996
	30.09861	54.34241
	30.10713	54.34555
	30.1129	54.35322
	30.09155	54.36584
	30.08606	54.37134
	30.09705	54.38232
	30.14099	54.38232
	30.15747	54.37134
	30.17944	54.34936
	30.18023	54.33362
	30.18457	54.33363
	30.18503	54.33487
	30.2124	54.33838
	30.21789	54.34936
	30.20691	54.36035
	30.21789	54.36584
	30.24536	54.35486
	30.26995	54.35526
	30.27762	54.35064
	30.28931	54.34936
	30.30029	54.38232
	30.32227	54.38782
	30.32776	54.38232
	30.31677	54.36584
	30.32227	54.35486
	30.31545	54.34018
	30.30464	54.33428
	30.29667	54.33081
	30.28904	54.33063
	30.28523	54.32917
	30.28261	54.32675
	30.28333	54.32132
	30.27303	54.31266
	30.27368	54.3083
	30.26733	54.29443
	30.2948	54.28894
	30.30579	54.29443
	30.33874	54.28345
	30.35522	54.31091
	30.3717	54.31641
	30.38818	54.31641
	30.39917	54.31091
	30.41016	54.31641
	30.41016	54.33288
	30.42114	54.33838
	30.42664	54.33288
	30.43762	54.33288
	30.43935	54.31621
	30.44706	54.29996
	30.46509	54.29993
	30.47058	54.27246
	30.49805	54.28345
	30.50354	54.26697
	30.52551	54.26147
	30.51453	54.26147
	30.52002	54.25598
	30.52551	54.25598
	30.53101	54.25049
	30.5365	54.25598
	30.53101	54.26147
	30.52551	54.27246
	30.56396	54.27246
	30.53101	54.28345
	30.54749	54.28894
	30.56946	54.30542
	30.55298	54.31091
	30.56396	54.31641
	30.58044	54.33838
	30.60242	54.33838
	30.60791	54.34936
	30.59143	54.36035
	30.56946	54.36584
	30.56946	54.37134
	30.60242	54.37683
	30.60791	54.37683
	30.63909	54.38709
	30.65307	54.38253
	30.69031	54.39331
	30.67383	54.41528
	30.68481	54.41528
	30.68481	54.42627
	30.70679	54.42627
	30.72327	54.42078
	30.73975	54.42078
	30.74524	54.41528
	30.78369	54.41528
	30.7782	54.3988
	30.78918	54.3988
	30.82764	54.4043
	30.86609	54.39331
	30.89355	54.4043
	30.88806	54.40979
	30.89355	54.42078
	30.90454	54.42627
	30.90454	54.43726
	30.92651	54.44824
	30.94849	54.42627
	30.97595	54.42627
	30.98694	54.42078
	31.00891	54.42627
	31.0199	54.3988
	31.03088	54.3988
	31.03638	54.4043
	31.05835	54.42078
	31.06384	54.43176
	31.1011	54.43708
	31.10229	54.43726
	31.11328	54.44824
	31.12976	54.44824
	31.14624	54.45374
	31.12976	54.46472
	31.14075	54.47021
	31.15723	54.47021
	31.16821	54.46472
	31.20451	54.47006
	31.20461	54.46953
	31.20495	54.46678
	31.21182	54.46815
	31.21422	54.46892
	31.21945	54.47004
	31.22418	54.46867
	31.22519	54.46818
	31.22744	54.46712
	31.23259	54.46627
	31.23387	54.46171
	31.23499	54.45365
	31.23628	54.44996
	31.2378	54.44021
	31.23589	54.43645
	31.23525	54.43477
	31.23542	54.43434
	31.23842	54.43279
	31.24452	54.43228
	31.24838	54.42979
	31.25095	54.42618
	31.25336	54.42
	31.25422	54.41502
	31.25679	54.40927
	31.26074	54.40507
	31.26417	54.40327
	31.2677	54.4019
	31.26946	54.40118
	31.26898	54.39863
	31.26546	54.39494
	31.25876	54.39185
	31.25662	54.38679
	31.25293	54.3837
	31.2501	54.38087
	31.24924	54.37803
	31.25422	54.37666
	31.26246	54.37846
	31.26829	54.37829
	31.27241	54.37726
	31.27713	54.37434
	31.28383	54.37434
	31.28709	54.37228
	31.29052	54.36936
	31.29953	54.36833
	31.30117	54.36816
	31.30374	54.36481
	31.30829	54.35984
	31.31086	54.35821
	31.31172	54.35554
	31.31026	54.35125
	31.30915	54.34885
	31.30898	54.34516
	31.31395	54.34439
	31.31713	54.34284
	31.31867	54.34044
	31.3185	54.33761
	31.31455	54.33615
	31.29953	54.32859
	31.29095	54.32327
	31.2858	54.31967
	31.2858	54.31658
	31.28906	54.31477
	31.29953	54.31392
	31.29962	54.31392
	31.30657	54.31469
	31.31258	54.31623
	31.31756	54.31529
	31.32022	54.31194
	31.31756	54.30928
	31.31112	54.30568
	31.31155	54.30336
	31.31756	54.29813
	31.32039	54.29589
	31.31936	54.29366
	31.31044	54.2825
	31.30941	54.27718
	31.30941	54.27701
	31.30898	54.26988
	31.31155	54.25881
	31.31198	54.25246
	31.31352	54.24851
	31.31782	54.24414
	31.32451	54.24362
	31.32794	54.24491
	31.33249	54.24808
	31.33644	54.24877
	31.33919	54.24705
	31.34168	54.24457
	31.34614	54.24251
	31.35223	54.24182
	31.35738	54.23847
	31.36108	54.23813
	31.38288	54.23246
	31.3827	54.22671
	31.38434	54.22414
	31.38485	54.22328
	31.38863	54.22414
	31.39326	54.22517
	31.39627	54.22457
	31.39669	54.22216
	31.40124	54.22182
	31.40408	54.22311
	31.40588	54.22414
	31.4106	54.22233
	31.4106	54.21839
	31.40648	54.21676
	31.40236	54.2171
	31.39541	54.21993
	31.38914	54.22156
	31.38416	54.21933
	31.38159	54.21598
	31.37901	54.21306
	31.38047	54.21006
	31.38416	54.2092
	31.39043	54.21152
	31.40039	54.21135
	31.41232	54.21058
	31.42442	54.20903
	31.43223	54.20826
	31.43721	54.20654
	31.44219	54.20302
	31.44478	54.19807
	31.44486	54.19807
	31.44515	54.19803
	31.44564	54.19813
	31.446	54.19806
	31.44634	54.19805
	31.44674	54.19795
	31.44714	54.19806
	31.44761	54.19803
	31.44778	54.19817
	31.44791	54.19823
	31.44798	54.19825
	31.44841	54.19829
	31.449	54.19844
	31.44954	54.1987
	31.44987	54.19872
	31.45023	54.19869
	31.45053	54.1987
	31.4508	54.19847
	31.45083	54.19775
	31.45098	54.19749
	31.4513	54.19719
	31.45154	54.19719
	31.45188	54.19739
	31.45221	54.19732
	31.45242	54.19708
	31.45263	54.19699
	31.453	54.197
	31.45316	54.197
	31.45325	54.19699
	31.45357	54.19694
	31.45408	54.19677
	31.45454	54.1969
	31.45482	54.19673
	31.45497	54.19661
	31.45518	54.19657
	31.45562	54.19655
	31.45602	54.19662
	31.45636	54.19654
	31.45648	54.19649
	31.45662	54.19652
	31.4567	54.19666
	31.45698	54.1965
	31.45719	54.19649
	31.45754	54.1963
	31.45781	54.19624
	31.45809	54.19604
	31.4584	54.19602
	31.45849	54.19599
	31.45871	54.19594
	31.45896	54.1956
	31.45921	54.19558
	31.45941	54.19552
	31.45955	54.19541
	31.45973	54.19546
	31.45986	54.19553
	31.45996	54.19552
	31.45999	54.19506
	31.46012	54.19494
	31.46031	54.19486
	31.46048	54.19477
	31.46064	54.19456
	31.46106	54.19448
	31.46169	54.1944
	31.45796	54.193
	31.45888	54.1919
	31.46178	54.18913
	31.46421	54.18696
	31.47266	54.18666
	31.47327	54.18621
	31.47422	54.18585
	31.47487	54.18527
	31.47533	54.18471
	31.47582	54.18444
	31.47606	54.1837
	31.47693	54.18308
	31.47742	54.18234
	31.47766	54.18109
	31.47788	54.18035
	31.47876	54.17973
	31.48021	54.17996
	31.48118	54.18077
	31.48223	54.18076
	31.48239	54.18139
	31.48394	54.18176
	31.48418	54.1824
	31.48497	54.18297
	31.48841	54.1837
	31.48817	54.18426
	31.48867	54.18489
	31.4893	54.18528
	31.4902	54.18554
	31.49101	54.18523
	31.49304	54.18305
	31.49514	54.18191
	31.49943	54.17831
	31.49815	54.17504
	31.49514	54.17126
	31.49446	54.16698
	31.49274	54.16492
	31.49248	54.16148
	31.49514	54.1589
	31.5033	54.15719
	31.51368	54.15745
	31.52063	54.15616
	31.52089	54.15599
	31.52493	54.15272
	31.5293	54.15144
	31.53445	54.15298
	31.539	54.15393
	31.54724	54.15221
	31.55325	54.15084
	31.55677	54.14801
	31.5572	54.14432
	31.55866	54.13968
	31.56346	54.13711
	31.57059	54.13599
	31.576	54.13814
	31.58338	54.13805
	31.58853	54.13633
	31.59419	54.1329
	31.59471	54.13299
	31.60406	54.13444
	31.61144	54.13582
	31.61754	54.13608
	31.6238	54.1347
	31.63024	54.13376
	31.64103	54.13549
	31.65228	54.14253
	31.6537	54.14211
	31.65481	54.14184
	31.65487	54.14103
	31.65396	54.14061
	31.65229	54.14043
	31.65215	54.13992
	31.65325	54.13897
	31.65388	54.13835
	31.65354	54.13798
	31.65263	54.13813
	31.65134	54.13863
	31.65006	54.13869
	31.64931	54.13856
	31.64881	54.13779
	31.6497	54.13702
	31.64996	54.13647
	31.6485	54.13677
	31.64798	54.13657
	31.64786	54.13605
	31.64957	54.13516
	31.65207	54.13352
	31.6538	54.13316
	31.65563	54.13343
	31.65728	54.1329
	31.65985	54.13221
	31.66337	54.12929
	31.66397	54.12749
	31.66843	54.12475
	31.66964	54.12406
	31.67247	54.12114
	31.67461	54.11839
	31.67393	54.11316
	31.67393	54.11015
	31.67264	54.10861
	31.67264	54.10638
	31.67736	54.10372
	31.68431	54.10509
	31.69255	54.10792
	31.7256	54.10887
	31.72731	54.10397
	31.73126	54.10329
	31.73513	54.10423
	31.73993	54.10638
	31.74225	54.10835
	31.74491	54.1105
	31.74851	54.1111
	31.75461	54.11136
	31.75873	54.11384
	31.76345	54.11342
	31.76929	54.11384
	31.77298	54.11316
	31.77383	54.1105
	31.77212	54.10741
	31.77083	54.102
	31.76929	54.09642
	31.768	54.09016
	31.76414	54.08552
	31.75633	54.08449
	31.75118	54.08192
	31.75092	54.07934
	31.7553	54.07814
	31.77555	54.07814
	31.77924	54.08037
	31.78165	54.08037
	31.78405	54.07951
	31.78637	54.07797
	31.79049	54.07891
	31.80674	54.0924
	31.87169	54.07933
	31.88208	54.06053
	31.88824	54.0589
	31.88474	54.05717
	31.89909	54.0525
	31.89794	54.05188
	31.89545	54.05167
	31.895	54.05155
	31.89318	54.0511
	31.89284	54.05017
	31.89319	54.04921
	31.89549	54.0482
	31.89596	54.04746
	31.89594	54.04683
	31.89451	54.0459
	31.89164	54.04672
	31.89026	54.04673
	31.88932	54.04654
	31.88799	54.0396
	31.88696	54.03599
	31.8861	54.03213
	31.88344	54.03025
	31.87889	54.0287
	31.87675	54.02613
	31.87546	54.02347
	31.87117	54.02089
	31.86833	54.01883
	31.86773	54.016
	31.86318	54.01359
	31.86095	54.01205
	31.85992	54.00844
	31.85469	54.0069
	31.85383	54.00441
	31.85752	54.00287
	31.87397	53.99631
	31.89094	53.99399
	31.89175	53.96617
	31.89137	53.96604
	31.89099	53.96611
	31.89017	53.96579
	31.88995	53.96579
	31.89014	53.96604
	31.89001	53.96617
	31.88973	53.96617
	31.8892	53.96577
	31.88915	53.96606
	31.88884	53.966
	31.88845	53.9656
	31.88799	53.9655
	31.88749	53.96521
	31.88697	53.96554
	31.88671	53.96544
	31.88654	53.96536
	31.88615	53.96543
	31.88609	53.96527
	31.88527	53.96504
	31.88457	53.96482
	31.88416	53.96488
	31.88358	53.96482
	31.88323	53.96524
	31.88305	53.96522
	31.88282	53.96506
	31.88153	53.96507
	31.88107	53.96497
	31.87913	53.96525
	31.879	53.96535
	31.8788	53.96548
	31.87835	53.96547
	31.87759	53.96509
	31.87755	53.96508
	31.87613	53.96495
	31.87496	53.9647
	31.87409	53.96464
	31.87408	53.96487
	31.87367	53.9646
	31.87318	53.96441
	31.87301	53.96411
	31.87313	53.96384
	31.87283	53.96381
	31.87268	53.96366
	31.87238	53.96363
	31.87203	53.96342
	31.87192	53.96361
	31.87149	53.96361
	31.8714	53.96337
	31.87154	53.9631
	31.87131	53.96272
	31.87159	53.96255
	31.8715	53.96218
	31.87093	53.9621
	31.87087	53.96222
	31.87	53.96224
	31.86994	53.96225
	31.86978	53.96186
	31.86922	53.9616
	31.86849	53.96164
	31.86763	53.96132
	31.8671	53.96135
	31.86682	53.9609
	31.86683	53.95934
	31.8658	53.95859
	31.86465	53.95831
	31.86184	53.95819
	31.85926	53.9583
	31.85718	53.95846
	31.85565	53.95815
	31.85533	53.95741
	31.8559	53.95665
	31.85656	53.95607
	31.85766	53.95566
	31.85855	53.95525
	31.85858	53.9547
	31.85808	53.95431
	31.85695	53.95394
	31.85542	53.95335
	31.85468	53.95294
	31.85186	53.95095
	31.85123	53.95096
	31.84978	53.9511
	31.84911	53.95121
	31.84856	53.9514
	31.84751	53.95143
	31.84675	53.95107
	31.84597	53.95053
	31.84512	53.95048
	31.84477	53.95019
	31.84454	53.94941
	31.84508	53.94871
	31.84614	53.94846
	31.84691	53.94888
	31.84705	53.94931
	31.84786	53.94985
	31.84947	53.94975
	31.85048	53.94929
	31.85111	53.94919
	31.85141	53.94859
	31.85098	53.94572
	31.85084	53.9435
	31.84846	53.94183
	31.84879	53.94081
	31.85001	53.94056
	31.85185	53.9409
	31.85307	53.94044
	31.85438	53.93951
	31.85436	53.93891
	31.85368	53.93843
	31.85186	53.938
	31.84978	53.93757
	31.84934	53.93683
	31.85198	53.9359
	31.85362	53.93492
	31.85534	53.93417
	31.85529	53.93335
	31.8544	53.93244
	31.85313	53.93159
	31.85201	53.93127
	31.85068	53.93103
	31.85156	53.92944
	31.85499	53.92584
	31.85542	53.92517
	31.85548	53.92446
	31.85499	53.92397
	31.85244	53.92204
	31.85192	53.92107
	31.85393	53.91966
	31.85702	53.91784
	31.85683	53.9171
	31.85519	53.91609
	31.85434	53.91585
	31.85465	53.915
	31.85427	53.91449
	31.85336	53.91462
	31.85213	53.91441
	31.85074	53.91434
	31.84829	53.9149
	31.8465	53.91633
	31.84531	53.91658
	31.84518	53.91708
	31.84482	53.91772
	31.84333	53.91781
	31.84192	53.91753
	31.84126	53.91744
	31.84077	53.91702
	31.84053	53.91607
	31.84102	53.91523
	31.84134	53.91479
	31.84134	53.91435
	31.841	53.91376
	31.84078	53.91338
	31.83787	53.91205
	31.8377	53.91129
	31.83912	53.91084
	31.842	53.91136
	31.84256	53.91092
	31.84387	53.91069
	31.84589	53.90808
	31.84542	53.90683
	31.84391	53.90574
	31.84155	53.90428
	31.83733	53.90487
	31.83577	53.90504
	31.83098	53.90559
	31.83142	53.90299
	31.83032	53.90137
	31.82751	53.90021
	31.82598	53.89773
	31.82687	53.89584
	31.82677	53.89381
	31.82722	53.89177
	31.82965	53.89043
	31.8298	53.88578
	31.83137	53.88389
	31.83024	53.88253
	31.8248	53.88144
	31.82189	53.88076
	31.81891	53.87985
	31.8152	53.87908
	31.81157	53.87819
	31.81013	53.8775
	31.80904	53.87722
	31.80745	53.87735
	31.80562	53.87731
	31.80378	53.87758
	31.80265	53.87763
	31.80046	53.87733
	31.79958	53.87684
	31.79964	53.87638
	31.79869	53.8758
	31.79894	53.87504
	31.79947	53.87493
	31.80289	53.87491
	31.80372	53.87423
	31.8043	53.87352
	31.80825	53.87215
	31.80972	53.87017
	31.81122	53.86992
	31.81264	53.87028
	31.81332	53.87087
	31.81375	53.87193
	31.81643	53.87288
	31.81814	53.87295
	31.81913	53.87186
	31.81531	53.8693
	31.81584	53.86745
	31.81889	53.86716
	31.81855	53.86574
	31.8176	53.86463
	31.82639	53.86454
	31.83682	53.86605
	31.83834	53.8655
	31.83294	53.85859
	31.82765	53.85778
	31.82497	53.85821
	31.82185	53.86033
	31.8194	53.86141
	31.81406	53.85898
	31.81377	53.85687
	31.81189	53.85333
	31.81133	53.85341
	31.80588	53.85412
	31.7954	53.85534
	31.78955	53.85558
	31.78671	53.8519
	31.78791	53.84949
	31.78672	53.84764
	31.78415	53.8456
	31.78136	53.845
	31.78136	53.8425
	31.78178	53.84076
	31.78275	53.84068
	31.78371	53.84083
	31.78517	53.84187
	31.78879	53.84254
	31.7893	53.84079
	31.79088	53.84018
	31.7915	53.84021
	31.79289	53.8403
	31.79429	53.83951
	31.79455	53.83818
	31.79248	53.83631
	31.79058	53.8358
	31.78995	53.8339
	31.78884	53.83393
	31.78849	53.83413
	31.78748	53.83467
	31.7854	53.83475
	31.78442	53.83425
	31.78489	53.83258
	31.78241	53.83168
	31.77905	53.83253
	31.77849	53.83499
	31.77657	53.83605
	31.76909	53.83566
	31.76417	53.83274
	31.76131	53.83221
	31.75821	53.83276
	31.75655	53.8326
	31.75612	53.83119
	31.75804	53.83034
	31.75984	53.82872
	31.76239	53.82754
	31.76467	53.82657
	31.76434	53.82516
	31.76096	53.82456
	31.76114	53.82346
	31.76173	53.82253
	31.76326	53.8217
	31.76506	53.8215
	31.76634	53.82184
	31.76756	53.8231
	31.76856	53.82357
	31.76982	53.82368
	31.77083	53.82321
	31.77163	53.82272
	31.77292	53.81912
	31.77223	53.8183
	31.7712	53.81762
	31.77099	53.81699
	31.77178	53.81378
	31.77267	53.81221
	31.77431	53.81124
	31.77384	53.81051
	31.77233	53.80964
	31.7718	53.80849
	31.77215	53.80692
	31.77136	53.80564
	31.7697	53.80556
	31.76985	53.80633
	31.77034	53.8076
	31.76941	53.80836
	31.76853	53.80846
	31.76769	53.80834
	31.76692	53.80743
	31.767	53.8063
	31.76772	53.80564
	31.76841	53.80523
	31.76985	53.80391
	31.77029	53.80218
	31.76954	53.8014
	31.76814	53.80088
	31.76689	53.80125
	31.7655	53.8021
	31.7646	53.80216
	31.76383	53.80201
	31.76346	53.8015
	31.76351	53.80092
	31.76358	53.80056
	31.76349	53.80001
	31.76387	53.79978
	31.76471	53.79993
	31.76558	53.80028
	31.76601	53.80015
	31.76652	53.79998
	31.76723	53.7993
	31.76723	53.79846
	31.767	53.79764
	31.7664	53.79744
	31.76573	53.79744
	31.76416	53.79785
	31.76282	53.79814
	31.76145	53.79828
	31.76074	53.79745
	31.76078	53.79675
	31.76125	53.79612
	31.76284	53.79534
	31.76423	53.79448
	31.76647	53.79305
	31.76742	53.79282
	31.76826	53.79253
	31.76889	53.79208
	31.77006	53.79196
	31.77196	53.79241
	31.77214	53.7927
	31.7719	53.79304
	31.77105	53.79325
	31.76975	53.79314
	31.76836	53.79385
	31.76801	53.79432
	31.76855	53.7949
	31.76887	53.79552
	31.77085	53.79563
	31.77188	53.79576
	31.77212	53.79602
	31.773	53.79607
	31.77407	53.79572
	31.77704	53.79546
	31.77728	53.79504
	31.77819	53.79506
	31.7786	53.79548
	31.77889	53.79606
	31.77941	53.79632
	31.77955	53.79662
	31.77928	53.79696
	31.77871	53.79714
	31.77642	53.79732
	31.77612	53.79765
	31.77759	53.79815
	31.77763	53.79857
	31.77687	53.79889
	31.77686	53.79948
	31.77743	53.79965
	31.77811	53.7996
	31.779	53.79939
	31.77979	53.7998
	31.77985	53.80041
	31.77923	53.80064
	31.77811	53.80031
	31.77717	53.80046
	31.77708	53.8009
	31.77829	53.80129
	31.77901	53.80204
	31.77905	53.80272
	31.77845	53.80316
	31.77731	53.80333
	31.7757	53.80301
	31.77557	53.8035
	31.7763	53.80383
	31.77758	53.80377
	31.77872	53.80419
	31.77886	53.80477
	31.77929	53.80526
	31.77982	53.80523
	31.77998	53.805
	31.77947	53.80459
	31.77943	53.80411
	31.78002	53.80366
	31.78078	53.80336
	31.78339	53.80303
	31.78516	53.80338
	31.78571	53.80313
	31.78539	53.80201
	31.78547	53.80174
	31.78576	53.80167
	31.78612	53.80174
	31.78685	53.80179
	31.78735	53.80189
	31.78802	53.80217
	31.78821	53.80224
	31.78871	53.80285
	31.78773	53.80434
	31.78892	53.80628
	31.78954	53.80677
	31.79082	53.80672
	31.79237	53.80629
	31.79507	53.80672
	31.79768	53.80628
	31.79969	53.80727
	31.8042	53.80729
	31.80562	53.8068
	31.8068	53.80582
	31.80954	53.80645
	31.81138	53.80656
	31.81224	53.80591
	31.81135	53.80424
	31.81128	53.80339
	31.81084	53.80273
	31.80954	53.80187
	31.80832	53.80199
	31.80766	53.80246
	31.80756	53.80247
	31.80694	53.80251
	31.80633	53.80215
	31.80655	53.80173
	31.8069	53.8017
	31.80751	53.80163
	31.80803	53.80122
	31.80829	53.8004
	31.80935	53.8
	31.81097	53.79993
	31.81266	53.80018
	31.81334	53.80053
	31.8136	53.80114
	31.81446	53.80121
	31.81456	53.8
	31.8154	53.79965
	31.81654	53.79964
	31.81766	53.79983
	31.81857	53.80013
	31.81957	53.80022
	31.82041	53.8008
	31.81977	53.80121
	31.81867	53.80138
	31.81845	53.80187
	31.81872	53.8022
	31.81997	53.80224
	31.82159	53.8022
	31.82491	53.80104
	31.82756	53.79912
	31.83056	53.79725
	31.83277	53.79537
	31.83403	53.79473
	31.83526	53.79437
	31.83678	53.79459
	31.8374	53.7955
	31.8375	53.79655
	31.83805	53.79693
	31.83875	53.79668
	31.83795	53.79578
	31.83795	53.79472
	31.8395	53.79494
	31.83998	53.79455
	31.83892	53.79371
	31.83953	53.79326
	31.84109	53.79354
	31.84265	53.79353
	31.84363	53.79302
	31.84415	53.79113
	31.84511	53.79032
	31.84594	53.79027
	31.8468	53.78996
	31.84738	53.79043
	31.847	53.79146
	31.8472	53.79253
	31.8485	53.79294
	31.84937	53.79284
	31.85034	53.79254
	31.85207	53.79149
	31.8527	53.79078
	31.85285	53.7899
	31.85392	53.78855
	31.85482	53.78753
	31.85524	53.78656
	31.85583	53.78615
	31.85748	53.78679
	31.85877	53.78696
	31.85999	53.7873
	31.8601	53.78734
	31.86072	53.78682
	31.86038	53.7856
	31.86076	53.78412
	31.86187	53.78351
	31.86481	53.78348
	31.86624	53.78309
	31.86696	53.78257
	31.86796	53.7823
	31.8686	53.78258
	31.86895	53.78299
	31.86917	53.78378
	31.86888	53.78465
	31.87036	53.78459
	31.87138	53.78494
	31.87198	53.78549
	31.87259	53.78649
	31.87333	53.78662
	31.87387	53.78622
	31.87382	53.78523
	31.87472	53.78412
	31.87575	53.78367
	31.87713	53.78378
	31.87858	53.78413
	31.88074	53.78359
	31.88307	53.78378
	31.88495	53.78325
	31.88624	53.78229
	31.88772	53.78145
	31.88755	53.78048
	31.88698	53.77906
	31.88781	53.7782
	31.889	53.77788
	31.89101	53.77796
	31.89386	53.77762
	31.89478	53.77691
	31.89546	53.77589
	31.89668	53.77508
	31.89812	53.77443
	31.89892	53.77475
	31.89946	53.77519
	31.90029	53.77656
	31.90136	53.778
	31.90223	53.77938
	31.90226	53.78023
	31.90126	53.78081
	31.90065	53.78143
	31.90128	53.78191
	31.90305	53.78254
	31.90319	53.7826
	31.90338	53.78309
	31.90331	53.78379
	31.90382	53.78484
	31.90474	53.78597
	31.90608	53.78693
	31.90712	53.78691
	31.908	53.7866
	31.90809	53.78595
	31.90946	53.78553
	31.91063	53.78586
	31.91111	53.78663
	31.91321	53.78667
	31.91478	53.78584
	31.91739	53.78604
	31.91774	53.78677
	31.91793	53.78768
	31.91855	53.78854
	31.92055	53.7889
	31.92378	53.78855
	31.92419	53.78806
	31.92391	53.78764
	31.92398	53.78717
	31.92445	53.78678
	31.92507	53.78656
	31.9256	53.78695
	31.92484	53.7878
	31.92533	53.78864
	31.92595	53.78887
	31.92641	53.78923
	31.9274	53.78937
	31.93046	53.78843
	31.93218	53.78737
	31.93639	53.78727
	31.93797	53.78649
	31.93963	53.78637
	31.93976	53.78497
	31.94123	53.78427
	31.94213	53.78441
	31.94232	53.78445
	31.94307	53.78543
	31.94432	53.78618
	31.9456	53.78599
	31.94634	53.78557
	31.94556	53.78483
	31.94468	53.78464
	31.94412	53.78406
	31.94471	53.7832
	31.94571	53.78323
	31.94841	53.78389
	31.94917	53.78391
	31.94959	53.78342
	31.95023	53.78332
	31.95048	53.78367
	31.95043	53.78441
	31.95148	53.78526
	31.95202	53.78631
	31.95224	53.78783
	31.95134	53.78851
	31.9518	53.78905
	31.95197	53.78963
	31.95272	53.78961
	31.95308	53.78902
	31.95402	53.78875
	31.95514	53.78899
	31.95565	53.78961
	31.95649	53.78973
	31.95708	53.78961
	31.95742	53.78904
	31.95857	53.78881
	31.95979	53.78895
	31.96097	53.7896
	31.96205	53.78971
	31.96343	53.79035
	31.96446	53.79027
	31.96481	53.78949
	31.96533	53.78877
	31.96675	53.7885
	31.96806	53.78858
	31.9685	53.78999
	31.96874	53.79248
	31.97235	53.79281
	31.9752	53.79329
	31.97682	53.79415
	31.97755	53.79536
	31.97772	53.79668
	31.97957	53.79714
	31.98032	53.79918
	31.98226	53.80038
	31.98361	53.80256
	31.98523	53.80197
	31.98969	53.80413
	31.99306	53.80336
	32.00134	53.80466
	32.00237	53.80378
	32.01025	53.80361
	32.0109	53.80099
	32.01733	53.80116
	32.02317	53.80271
	32.03236	53.80022
	32.03733	53.79962
	32.04833	53.7985
	32.04964	53.79888
	32.04891	53.80115
	32.04283	53.80568
	32.04899	53.80648
	32.04932	53.80653
	32.05364	53.80606
	32.06411	53.80417
	32.06909	53.80494
	32.07493	53.80443
	32.0805	53.80348
	32.08497	53.80631
	32.089	53.80812
	32.09235	53.8058
	32.09544	53.80812
	32.10011	53.81459
	32.12189	53.81556
	32.12684	53.81849
	32.13279	53.81478
	32.13281	53.81408
	32.13291	53.8131
	32.13509	53.81309
	32.14098	53.81278
	32.13956	53.8076
	32.14093	53.80537
	32.14496	53.80614
	32.15067	53.80544
	32.14917	53.80228
	32.15278	53.8015
	32.17502	53.79957
	32.17632	53.79562
	32.17742	53.79272
	32.18017	53.79464
	32.18645	53.79857
	32.18951	53.79777
	32.18909	53.79739
	32.18909	53.7969
	32.18971	53.79622
	32.1904	53.79574
	32.19119	53.79557
	32.19208	53.79569
	32.19271	53.79605
	32.19342	53.79632
	32.19454	53.79612
	32.19497	53.79581
	32.19564	53.79567
	32.19631	53.79546
	32.19704	53.79528
	32.19755	53.79438
	32.19975	53.79438
	32.20036	53.79523
	32.20181	53.79696
	32.20353	53.79742
	32.20531	53.79877
	32.20805	53.79957
	32.22047	53.78509
	32.22351	53.78388
	32.22423	53.78168
	32.21907	53.7818
	32.21608	53.77951
	32.2198	53.77028
	32.2297	53.76598
	32.24647	53.76589
	32.25677	53.76562
	32.26142	53.77258
	32.28484	53.77593
	32.28699	53.77369
	32.2907	53.76997
	32.28641	53.76881
	32.26842	53.76273
	32.27236	53.7585
	32.28359	53.76255
	32.28691	53.7612
	32.28817	53.76175
	32.29528	53.75973
	32.30554	53.76084
	32.31147	53.75952
	32.31442	53.76078
	32.31617	53.76012
	32.31962	53.75884
	32.32394	53.75583
	32.33394	53.75173
	32.33805	53.75043
	32.34387	53.75057
	32.34925	53.74478
	32.34848	53.74369
	32.35112	53.74062
	32.35632	53.73921
	32.35407	53.72935
	32.35804	53.72059
	32.36917	53.7174
	32.37241	53.71818
	32.38975	53.72739
	32.39512	53.72984
	32.41307	53.73151
	32.41421	53.72829
	32.42297	53.7289
	32.43359	53.73258
	32.43965	53.73319
	32.44617	53.73657
	32.46068	53.73765
	32.46013	53.72946
	32.45876	53.72692
	32.46254	53.721
	32.47086	53.71988
	32.48116	53.71902
	32.49164	53.71233
	32.49876	53.70691
	32.49934	53.70479
	32.50056	53.70127
	32.50137	53.6993
	32.5001	53.69778
	32.50034	53.69652
	32.49828	53.69512
	32.5002	53.69305
	32.50034	53.69204
	32.49953	53.6912
	32.49954	53.69015
	32.49997	53.68916
	32.50076	53.68891
	32.50092	53.68795
	32.50092	53.687
	32.50013	53.68677
	32.49879	53.68509
	32.49695	53.68388
	32.49895	53.68113
	32.48934	53.67726
	32.48726	53.68061
	32.48598	53.68232
	32.48503	53.68208
	32.48475	53.68106
	32.48302	53.68041
	32.48016	53.6803
	32.47916	53.67943
	32.47676	53.67897
	32.47324	53.67774
	32.47222	53.6784
	32.46744	53.67628
	32.46602	53.67458
	32.46396	53.6729
	32.45913	53.67069
	32.45654	53.67032
	32.45463	53.66816
	32.4525	53.6689
	32.44666	53.66916
	32.44344	53.66989
	32.44213	53.67137
	32.43885	53.67207
	32.43729	53.67247
	32.43565	53.67214
	32.43649	53.67149
	32.43604	53.67085
	32.43315	53.67042
	32.42976	53.67128
	32.42902	53.67131
	32.42836	53.67077
	32.4273	53.67067
	32.42581	53.66434
	32.41868	53.66469
	32.415	53.66496
	32.41437	53.65526
	32.4139	53.65066
	32.41678	53.6509
	32.41957	53.64946
	32.42106	53.64766
	32.41922	53.64497
	32.41689	53.64092
	32.41953	53.63973
	32.41836	53.63498
	32.43213	53.63091
	32.4308	53.63325
	32.42985	53.63386
	32.42934	53.63907
	32.43278	53.63886
	32.43386	53.64032
	32.43005	53.64147
	32.43143	53.64335
	32.42896	53.64488
	32.43063	53.64725
	32.42955	53.64999
	32.43004	53.65131
	32.43191	53.65195
	32.43374	53.64993
	32.43768	53.64316
	32.44276	53.64076
	32.4498	53.63735
	32.44012	53.63075
	32.44109	53.62798
	32.44056	53.6227
	32.43816	53.6192
	32.43815	53.61426
	32.43486	53.61226
	32.43236	53.61084
	32.4258	53.60744
	32.42984	53.59775
	32.43456	53.59431
	32.44263	53.59363
	32.4464	53.58873
	32.44804	53.58555
	32.45523	53.58243
	32.45709	53.57959
	32.45635	53.57797
	32.45769	53.57671
	32.45916	53.57502
	32.4617	53.57374
	32.46776	53.57153
	32.47425	53.57024
	32.4784	53.56881
	32.48181	53.56737
	32.4819	53.56583
	32.48065	53.56401
	32.47553	53.55931
	32.47528	53.55405
	32.47755	53.54959
	32.47804	53.54955
	32.47887	53.54941
	32.48027	53.54911
	32.48131	53.54887
	32.48254	53.54907
	32.48607	53.54933
	32.48842	53.54928
	32.49225	53.54899
	32.49424	53.54931
	32.50703	53.54545
	32.50737	53.54534
	32.51093	53.54487
	32.51234	53.54498
	32.51281	53.54366
	32.51332	53.54353
	32.51482	53.54312
	32.51637	53.54288
	32.51688	53.54319
	32.51668	53.54346
	32.51701	53.54353
	32.51747	53.54344
	32.51745	53.5431
	32.51776	53.54314
	32.51829	53.54348
	32.51856	53.54345
	32.51858	53.54332
	32.51839	53.54306
	32.51869	53.54292
	32.51925	53.54302
	32.51951	53.54293
	32.51941	53.54283
	32.51924	53.54279
	32.51936	53.54263
	32.52018	53.54257
	32.52028	53.54268
	32.52043	53.5427
	32.52059	53.54265
	32.52053	53.54252
	32.52049	53.5422
	32.52077	53.54204
	32.52152	53.542
	32.52174	53.54169
	32.52199	53.54173
	32.52217	53.54185
	32.52247	53.54186
	32.52269	53.54172
	32.5224	53.54133
	32.52234	53.54112
	32.52258	53.54106
	32.52307	53.5412
	32.52348	53.54107
	32.52349	53.54082
	32.52315	53.54073
	32.52313	53.54061
	32.52312	53.54054
	32.52353	53.54036
	32.5236	53.54027
	32.52328	53.53977
	32.524	53.5395
	32.52413	53.53933
	32.5237	53.53925
	32.52399	53.53912
	32.52428	53.53917
	32.52448	53.53905
	32.52418	53.53878
	32.52425	53.53853
	32.52445	53.53844
	32.52524	53.53837
	32.52545	53.53824
	32.52529	53.53796
	32.52551	53.53758
	32.52549	53.53748
	32.52519	53.53737
	32.52507	53.5372
	32.52534	53.53713
	32.52605	53.53712
	32.52646	53.53681
	32.52637	53.53639
	32.52675	53.53604
	32.52652	53.53597
	32.52635	53.53597
	32.52633	53.53598
	32.52624	53.5359
	32.52631	53.53579
	32.52647	53.53574
	32.52693	53.53581
	32.52709	53.53571
	32.52655	53.53518
	32.52669	53.53494
	32.52703	53.53485
	32.52838	53.53469
	32.52824	53.53433
	32.5289	53.53427
	32.53012	53.53402
	32.53056	53.53361
	32.53242	53.53367
	32.53396	53.53275
	32.53811	53.53189
	32.54108	53.5311
	32.54125	53.53083
	32.54402	53.52947
	32.54413	53.52925
	32.54709	53.52851
	32.54813	53.52786
	32.54822	53.52774
	32.54839	53.52772
	32.54861	53.52716
	32.54942	53.52728
	32.54958	53.52685
	32.54994	53.52713
	32.55048	53.52705
	32.55117	53.52719
	32.5513	53.52703
	32.55094	53.52672
	32.55176	53.52634
	32.55075	53.52613
	32.55067	53.52573
	32.55101	53.5255
	32.55104	53.52523
	32.55068	53.52497
	32.5493	53.52478
	32.54868	53.52425
	32.54764	53.52379
	32.54745	53.52351
	32.54726	53.52327
	32.54701	53.52301
	32.54673	53.52276
	32.54535	53.52174
	32.54476	53.52135
	32.54436	53.52062
	32.54382	53.52043
	32.54564	53.51903
	32.54615	53.51874
	32.54653	53.51862
	32.54719	53.51849
	32.54771	53.51844
	32.54871	53.51841
	32.5509	53.51839
	32.55298	53.51824
	32.55324	53.5182
	32.5539	53.51807
	32.556	53.51854
	32.55808	53.51862
	32.56061	53.51863
	32.56633	53.51831
	32.56768	53.51926
	32.5724	53.51872
	32.57858	53.51707
	32.58289	53.51555
	32.58819	53.51801
	32.6033	53.51287
	32.60357	53.50602
	32.60362	53.50431
	32.60519	53.50303
	32.6041	53.49964
	32.60293	53.49738
	32.60303	53.4956
	32.60339	53.49336
	32.60649	53.49397
	32.60984	53.49145
	32.60424	53.47881
	32.6051	53.47878
	32.61746	53.47878
	32.6251	53.475
	32.62733	53.4769
	32.62759	53.47715
	32.63396	53.48063
	32.63699	53.48624
	32.63626	53.48986
	32.63842	53.50252
	32.64707	53.50412
	32.65407	53.49505
	32.67319	53.4892
	32.68026	53.48478
	32.68705	53.48139
	32.67638	53.47995
	32.67411	53.47746
	32.67084	53.47796
	32.66694	53.4772
	32.66176	53.47906
	32.66038	53.47896
	32.65899	53.47351
	32.65591	53.46986
	32.67514	53.46368
	32.68407	53.46256
	32.68922	53.46385
	32.69651	53.46333
	32.69702	53.46328
	32.70141	53.46282
	32.7099	53.46196
	32.72613	53.46007
	32.72661	53.46006
	32.73831	53.4599
	32.74114	53.46162
	32.75711	53.45818
	32.75325	53.45484
	32.75325	53.44874
	32.74879	53.44522
	32.75041	53.44085
	32.75291	53.43484
	32.75513	53.43252
	32.75642	53.43124
	32.76251	53.42686
	32.76278	53.42428
	32.75934	53.42256
	32.75487	53.42239
	32.75007	53.42686
	32.74595	53.4248
	32.73926	53.42256
	32.73926	53.41913
	32.74372	53.41724
	32.74269	53.41424
	32.73986	53.41123
	32.73986	53.4084
	32.74338	53.40446
	32.74784	53.40034
	32.75291	53.39913
	32.75548	53.39707
	32.75136	53.39707
	32.74913	53.39561
	32.74269	53.3963
	32.7408	53.3969
	32.73891	53.39613
	32.73762	53.39467
	32.74269	53.39029
	32.74209	53.38729
	32.72999	53.38068
	32.72518	53.37725
	32.72295	53.37407
	32.72613	53.36857
	32.72821	53.36406
	32.72938	53.36145
	32.73316	53.35519
	32.73926	53.34806
	32.7335	53.33253
	32.72389	53.33141
	32.71694	53.33141
	32.7093	53.33313
	32.70192	53.33107
	32.70141	53.33107
	32.69428	53.33141
	32.68793	53.3339
	32.68759	53.33819
	32.6857	53.3418
	32.67995	53.34103
	32.67231	53.33725
	32.66244	53.33253
	32.62673	53.33047
	32.62321	53.33485
	32.62073	53.33974
	32.61652	53.34034
	32.613	53.33914
	32.61017	53.33373
	32.6124	53.3303
	32.61523	53.32446
	32.61558	53.32051
	32.6118	53.31691
	32.60991	53.31605
	32.60794	53.31519
	32.59878	53.31474
	32.59333	53.3117
	32.59241	53.30828
	32.59289	53.30356
	32.58871	53.30104
	32.58705	53.2965
	32.58681	53.29258
	32.58331	53.29052
	32.58069	53.29193
	32.57878	53.29301
	32.57332	53.29794
	32.57078	53.29707
	32.5585	53.30112
	32.55386	53.30146
	32.54841	53.30225
	32.54218	53.30298
	32.53962	53.30068
	32.53687	53.29803
	32.52193	53.29656
	32.52254	53.30669
	32.51584	53.30712
	32.51103	53.30524
	32.50279	53.30463
	32.49421	53.3048
	32.48846	53.30352
	32.48588	53.2988
	32.49421	53.29785
	32.51009	53.29468
	32.50949	53.28163
	32.50056	53.27519
	32.50048	53.27511
	32.49927	53.27202
	32.49893	53.26884
	32.49646	53.26526
	32.49493	53.26259
	32.49468	53.26098
	32.49376	53.25983
	32.49382	53.25755
	32.49342	53.25617
	32.49257	53.25366
	32.49034	53.25153
	32.48732	53.25023
	32.48738	53.24952
	32.48618	53.24881
	32.48511	53.24757
	32.48389	53.2458
	32.48217	53.24316
	32.48112	53.24228
	32.47892	53.24025
	32.47881	53.23984
	32.47709	53.23855
	32.47578	53.23787
	32.47335	53.23675
	32.47124	53.2356
	32.46989	53.23436
	32.46929	53.23258
	32.46939	53.23087
	32.46677	53.22848
	32.46322	53.22583
	32.45966	53.22344
	32.45505	53.22084
	32.45409	53.21857
	32.45322	53.21709
	32.45366	53.2146
	32.45128	53.21304
	32.44935	53.20925
	32.44831	53.20825
	32.44682	53.20799
	32.44076	53.20791
	32.43572	53.20747
	32.43321	53.20605
	32.43118	53.20418
	32.43124	53.198
	32.4265	53.19593
	32.42252	53.19395
	32.41435	53.1861
	32.40168	53.18828
	32.39372	53.18958
	32.38604	53.19091
	32.37757	53.18904
	32.36893	53.18735
	32.35774	53.18512
	32.34511	53.17622
	32.33889	53.17179
	32.34413	53.15883
	32.33939	53.15535
	32.33377	53.1511
	32.33262	53.14434
	32.32601	53.14194
	32.32315	53.14016
	32.3106	53.13462
	32.30769	53.13165
	32.30222	53.12766
	32.28829	53.1265
	32.27998	53.12705
	32.27559	53.12699
	32.27423	53.12698
	32.27169	53.12671
	32.26647	53.12748
	32.26153	53.12846
	32.25914	53.13034
	32.25473	53.13144
	32.24889	53.1306
	32.24524	53.12917
	32.24383	53.12799
	32.24252	53.12739
	32.24215	53.12712
	32.2412	53.12498
	32.24125	53.1237
	32.24096	53.12233
	32.2396	53.12086
	32.23565	53.1187
	32.23517	53.11657
	32.23713	53.11387
	32.23612	53.11147
	32.23678	53.11072
	32.23707	53.10848
	32.23438	53.10544
	32.2341	53.10355
	32.23635	53.10222
	32.23607	53.09917
	32.2351	53.09897
	32.21911	53.10384
	32.2121	53.10441
	32.20271	53.10788
	32.19777	53.10762
	32.18757	53.10886
	32.18501	53.1078
	32.17692	53.10467
	32.17554	53.10169
	32.17421	53.09955
	32.17166	53.09709
	32.17301	53.09235
	32.17316	53.08876
	32.16772	53.08695
	32.16031	53.08591
	32.15126	53.08319
	32.14285	53.08316
	32.1369	53.08207
	32.13073	53.0816
	32.12076	53.07967
	32.1114	53.07813
	32.10906	53.07777
	32.1029	53.07698
	32.09475	53.07619
	32.08133	53.07736
	32.07736	53.07832
	32.06838	53.07936
	32.06371	53.08125
	32.05631	53.08545
	32.05199	53.08518
	32.05106	53.08491
	32.04986	53.08448
	32.04527	53.08533
	32.04438	53.08554
	32.04155	53.08637
	32.03679	53.08717
	32.03207	53.08852
	32.02812	53.08914
	32.01804	53.09085
	32.01745	53.09507
	32.01906	53.10012
	32.0058	53.09679
	31.99259	53.09329
	31.99258	53.08534
	31.98644	53.08493
	31.97907	53.08536
	31.97098	53.08544
	31.96535	53.08499
	31.96244	53.08496
	31.96007	53.08495
	31.95349	53.08542
	31.94426	53.08486
	31.93467	53.08306
	31.92804	53.08488
	31.92136	53.08635
	31.91348	53.08887
	31.92254	53.10499
	31.91743	53.10654
	31.89741	53.11179
	31.88709	53.11452
	31.88629	53.11347
	31.88021	53.11491
	31.87602	53.10971
	31.87421	53.11019
	31.86968	53.10708
	31.86727	53.10774
	31.86443	53.10798
	31.85717	53.10926
	31.8512	53.10972
	31.84798	53.11009
	31.83095	53.11038
	31.82844	53.11159
	31.82605	53.113
	31.82537	53.11501
	31.82304	53.1178
	31.82055	53.11993
	31.81793	53.12258
	31.81467	53.12442
	31.81301	53.12426
	31.81102	53.12415
	31.80982	53.12557
	31.80845	53.1282
	31.80823	53.1323
	31.80658	53.13339
	31.80534	53.13462
	31.80124	53.13717
	31.8001	53.13878
	31.79883	53.14017
	31.79771	53.14156
	31.79576	53.14583
	31.79794	53.14966
	31.79437	53.15369
	31.79304	53.1564
	31.79284	53.15882
	31.79115	53.16322
	31.79127	53.17041
	31.79233	53.17135
	31.79239	53.17308
	31.79038	53.17525
	31.79063	53.17715
	31.7864	53.17973
	31.77392	53.18036
	31.77004	53.18142
	31.76721	53.18319
	31.76615	53.18421
	31.75808	53.1881
	31.75272	53.19447
	31.75137	53.19531
	31.75039	53.19535
	31.74746	53.19729
	31.74546	53.19955
	31.74384	53.1989
	31.7425	53.19908
	31.74133	53.19911
	31.74061	53.19882
	31.73967	53.19899
	31.73868	53.19883
	31.73822	53.19837
	31.7381	53.19778
	31.73655	53.19669
	31.73538	53.19504
	31.73409	53.19538
	31.73253	53.19476
	31.73195	53.1946
	31.73012	53.19366
	31.72862	53.19372
	31.72756	53.19464
	31.72679	53.19453
	31.72568	53.19518
	31.72464	53.19525
	31.71962	53.1997
	31.71051	53.20434
	31.7069	53.20616
	31.69667	53.20818
	31.68603	53.21048
	31.67958	53.21145
	31.67572	53.21211
	31.67078	53.21196
	31.66987	53.21163
	31.66686	53.21182
	31.66665	53.21243
	31.6625	53.21514
	31.66218	53.21558
	31.66095	53.21635
	31.66155	53.2172
	31.66131	53.21787
	31.65962	53.21847
	31.65851	53.21796
	31.65803	53.21827
	31.65724	53.21836
	31.65721	53.21875
	31.65501	53.21875
	31.65453	53.21935
	31.65311	53.21977
	31.65094	53.21931
	31.64796	53.21933
	31.64746	53.2196
	31.64624	53.22023
	31.64421	53.22027
	31.6341	53.2267
	31.62835	53.23108
	31.62011	53.22369
	31.61496	53.21674
	31.60895	53.21314
	31.60037	53.20996
	31.59471	53.20576
	31.59428	53.20541
	31.59239	53.20112
	31.58664	53.19597
	31.57771	53.19357
	31.56655	53.19374
	31.56401	53.19228
	31.54334	53.19082
	31.53849	53.19881
	31.53214	53.20009
	31.52089	53.19794
	31.51969	53.19769
	31.51179	53.19992
	31.50029	53.20447
	31.48304	53.20464
	31.47223	53.20636
	31.46587	53.20953
	31.45918	53.21048
	31.45377	53.20842
	31.44038	53.20996
	31.42665	53.20953
	31.41618	53.21048
	31.4088	53.21202
	31.40184	53.21185
	31.40528	53.20618
	31.40725	53.20275
	31.40502	53.19769
	31.4136	53.19331
	31.4142	53.19013
	31.41841	53.18764
	31.41644	53.18318
	31.41523	53.17924
	31.41489	53.17829
	31.41232	53.1752
	31.39858	53.17091
	31.39352	53.16507
	31.39738	53.16112
	31.39446	53.15615
	31.38425	53.15297
	31.37507	53.14773
	31.37335	53.14653
	31.36897	53.14353
	31.36356	53.14396
	31.36391	53.13881
	31.36648	53.13392
	31.36597	53.13351
	31.3666	53.13222
	31.36602	53.1298
	31.36475	53.12866
	31.36553	53.12673
	31.36725	53.1251
	31.36995	53.12591
	31.37601	53.12653
	31.38392	53.12314
	31.38588	53.12113
	31.39501	53.11576
	31.39689	53.11246
	31.39879	53.10969
	31.38917	53.10785
	31.3912	53.09649
	31.38365	53.09658
	31.37335	53.09624
	31.36066	53.09585
	31.36057	53.09255
	31.3385	53.09692
	31.33301	53.1134
	31.2561	53.1134
	31.25061	53.12439
	31.24512	53.1189
	31.23413	53.12439
	31.21765	53.1189
	31.21216	53.14087
	31.20667	53.14636
	31.11877	53.14087
	31.10229	53.15735
	31.12427	53.16833
	31.12427	53.19031
	31.11328	53.19031
	31.0968	53.1958
	31.09131	53.20679
	31.06933	53.20129
	31.06384	53.20129
	31.06384	53.22327
	31.03088	53.23975
	31.04187	53.25073
	31.03638	53.26172
	31.0199	53.25623
	31.00891	53.26172
	30.99243	53.25623
	30.97595	53.27271
	31.00329	53.28782
	31.00891	53.29468
	31.0199	53.30017
	31.0144	53.30566
	31.00342	53.31116
	30.91553	53.30566
	30.91003	53.31116
	30.86609	53.30566
	30.84961	53.30017
	30.84961	53.28918
	30.83313	53.28369
	30.78918	53.28918
	30.75867	53.28656
	30.75943	53.28037
	30.73585	53.27878
	30.73093	53.27801
	30.72327	53.2782
	30.72029	53.27791
	30.72097	53.2738
	30.7238	53.26264
	30.71137	53.26226
	30.70467	53.26068
	30.68481	53.26172
	30.68481	53.25623
	30.66833	53.27271
	30.65735	53.27271
	30.67383	53.29468
	30.57495	53.30566
	30.58594	53.31116
	30.56396	53.32214
	30.58044	53.33313
	30.58044	53.34412
	30.56946	53.34961
	30.56396	53.33313
	30.55847	53.33313
	30.54749	53.31665
	30.54199	53.31116
	30.50903	53.31665
	30.49255	53.29468
	30.47058	53.29468
	30.45959	53.2782
	30.43213	53.2782
	30.41576	53.28777
	30.40466	53.28369
	30.38269	53.27271
	30.38783	53.26164
	30.38269	53.25623
	30.36072	53.25623
	30.35522	53.26172
	30.33325	53.25623
	30.31677	53.24524
	30.28381	53.25073
	30.27283	53.24524
	30.27283	53.25073
	30.26733	53.25623
	30.23438	53.22876
	30.21789	53.23425
	30.20142	53.22876
	30.19043	53.23425
	30.16296	53.22327
	30.14648	53.23425
	30.12451	53.28369
	30.09705	53.30017
	30.09345	53.30451
	30.09323	53.30454
	30.09283	53.30465
	30.08877	53.30617
	30.08855	53.30627
	30.08145	53.31001
	30.07565	53.3121
	30.07245	53.31315
	30.0713	53.31413
	30.07076	53.31516
	30.06904	53.3158
	30.06837	53.3162
	30.06767	53.31686
	29.96521	53.33313
	29.94873	53.30566
	29.94204	53.30616
	29.93774	53.30566
	29.93225	53.30017
	29.92126	53.31116
	29.89929	53.31116
	29.92126	53.32764
	29.90479	53.34412
	29.8883	53.33862
	29.8938	53.32764
	29.88281	53.32764
	29.86084	53.32214
	29.85535	53.3551
	29.80042	53.33862
	29.75647	53.31116
	29.75647	53.27271
	29.77295	53.25623
	29.77295	53.24524
	29.77844	53.23975
	29.79492	53.1958
	29.78393	53.1958
	29.77844	53.19031
	29.76036	53.19031
	29.7601	53.18979
	29.75951	53.18908
	29.75841	53.18825
	29.75811	53.18791
	29.757	53.18727
	29.75629	53.18713
	29.75605	53.1871
	29.75349	53.18691
	29.75346	53.1869
	29.7527	53.18686
	29.75647	53.17932
	29.77844	53.17932
	29.76746	53.17383
	29.76746	53.16284
	29.77844	53.16284
	29.75647	53.14636
	29.76196	53.14087
	29.77711	53.13913
	29.77815	53.13791
	29.75751	53.13096
	29.75242	53.13089
	29.73288	53.12759
	29.72351	53.12439
	29.69708	53.14014
	29.69866	53.15065
	29.69736	53.15132
	29.68665	53.14975
	29.68833	53.14511
	29.65902	53.13828
	29.65823	53.13025
	29.65278	53.13198
	29.64729	53.12608
	29.64225	53.12409
	29.6562	53.11055
	29.65556	53.10492
	29.64515	53.10314
	29.64641	53.09811
	29.62844	53.09347
	29.63562	53.08044
	29.65759	53.06946
	29.67957	53.07495
	29.69055	53.05847
	29.67957	53.05298
	29.67957	53.04199
	29.66858	53.04199
	29.6521	53.02551
	29.66308	53.02551
	29.67407	53.00354
	29.71524	52.98534
	29.7231	52.98947
	29.73999	52.98157
	29.71802	52.97058
	29.72351	52.95959
	29.71802	52.9541
	29.70154	52.9541
	29.69604	52.94861
	29.66858	52.94861
	29.65759	52.95959
	29.6521	52.9541
	29.64661	52.9541
	29.63013	52.96509
	29.62463	52.95959
	29.60266	52.96509
	29.5697	52.95959
	29.55871	52.96509
	29.52026	52.96509
	29.47083	52.93762
	29.43237	52.92663
	29.42688	52.92663
	29.41589	52.93762
	29.39941	52.93762
	29.39941	52.94861
	29.38843	52.94861
	29.37744	52.94311
	29.37195	52.93762
	29.37195	52.94311
	29.34998	52.94311
	29.34448	52.94861
	29.27856	52.9541
	29.25659	52.97058
	29.24013	52.96508
	29.20166	52.97607
	29.20715	52.98706
	29.1687	52.97058
	29.11926	52.92114
	29.11926	52.90466
	29.12475	52.89917
	29.11926	52.89368
	29.13025	52.88818
	29.13025	52.8772
	29.11377	52.8772
	29.10828	52.8717
	29.10278	52.8772
	29.06982	52.8717
	28.97644	52.86621
	28.97644	52.86072
	28.98193	52.84424
	28.94348	52.80579
	28.89954	52.77283
	28.87756	52.77832
	28.85559	52.76184
	28.80615	52.76733
	28.80066	52.75635
	28.80066	52.74536
	28.81714	52.74536
	28.81714	52.73438
	28.83911	52.73438
	28.83911	52.71789
	28.78418	52.71789
	28.78418	52.7124
	28.77319	52.7124
	28.74816	52.68848
	28.72915	52.69251
	28.73068	52.69597
	28.71974	52.69919
	28.71352	52.69937
	28.70366	52.69627
	28.69071	52.68765
	28.67793	52.69451
	28.66981	52.69446
	28.66852	52.69612
	28.65967	52.69563
	28.65018	52.69939
	28.64203	52.69917
	28.63965	52.69797
	28.62723	52.69846
	28.61938	52.69043
	28.61555	52.68871
	28.61003	52.68888
	28.60304	52.6924
	28.59741	52.69043
	28.59368	52.68442
	28.57691	52.68354
	28.55286	52.68895
	28.5414	52.68829
	28.54172	52.68528
	28.52494	52.6863
	28.52454	52.68343
	28.5196	52.68156
	28.50941	52.69181
	28.49179	52.68595
	28.48295	52.67421
	28.46849	52.68032
	28.4704	52.68357
	28.47202	52.68459
	28.46486	52.68874
	28.46824	52.69113
	28.4491	52.70691
	28.41614	52.71789
	28.36654	52.7263
	28.37219	52.75635
	28.42712	52.77832
	28.4491	52.82227
	28.42712	52.84973
	28.41614	52.84973
	28.41614	52.85522
	28.42163	52.86072
	28.45459	52.86621
	28.47656	52.88818
	28.47107	52.91565
	28.46008	52.91565
	28.43262	52.9541
	28.4436	52.97058
	28.45459	52.97607
	28.47107	52.97058
	28.49304	52.98706
	28.53149	52.97058
	28.526	52.97607
	28.54248	52.97058
	28.56995	52.99805
	28.53699	53.02002
	28.53699	53.04199
	28.526	53.05298
	28.53699	53.06946
	28.51696	53.09881
	28.53017	53.10839
	28.54248	53.10791
	28.526	53.1134
	28.52051	53.12988
	28.50403	53.12988
	28.50952	53.14636
	28.499	53.1557
	28.4922	53.1612
	28.48737	53.159
	28.47942	53.15827
	28.47496	53.1593
	28.45152	53.15316
	28.44415	53.15465
	28.42956	53.1547
	28.42594	53.14962
	28.4161	53.14923
	28.40603	53.14867
	28.40545	53.15133
	28.39196	53.15043
	28.39092	53.15795
	28.39742	53.15827
	28.37918	53.16715
	28.37528	53.16469
	28.37431	53.16438
	28.37123	53.16424
	28.37253	53.15653
	28.37768	53.15735
	28.37826	53.15347
	28.38073	53.15179
	28.37325	53.15082
	28.37219	53.14636
	28.3667	53.14636
	28.36104	53.1462
	28.35571	53.14636
	28.3414	53.14547
	28.34051	53.15486
	28.34628	53.1595
	28.33923	53.17932
	28.35022	53.19031
	28.33923	53.1958
	28.31726	53.1958
	28.30627	53.20679
	28.30627	53.1958
	28.2843	53.18481
	28.2843	53.17383
	28.27332	53.17932
	28.27881	53.18481
	28.26782	53.1958
	28.24585	53.1958
	28.24036	53.18481
	28.22937	53.18481
	28.21838	53.1958
	28.18542	53.18481
	28.17993	53.20679
	28.16124	53.2065
	28.13049	53.21777
	28.11951	53.21777
	28.11401	53.22327
	28.11951	53.23975
	28.09204	53.25073
	28.08655	53.27271
	28.10852	53.26721
	28.13933	53.2781
	28.14078	53.2778
	28.13906	53.27551
	28.14003	53.27391
	28.14206	53.27171
	28.15383	53.26919
	28.22937	53.25623
	28.23262	53.25626
	28.27881	53.25623
	28.32825	53.25623
	28.32825	53.27271
	28.42712	53.2782
	28.43811	53.30017
	28.43262	53.32214
	28.40515	53.34412
	28.36121	53.3551
	28.35571	53.3606
	28.35542	53.37133
	28.36032	53.37638
	28.36191	53.37805
	28.36894	53.38418
	28.37019	53.38529
	28.37114	53.38504
	28.38318	53.38257
	28.38318	53.39355
	28.38888	53.39641
	28.40515	53.40454
	28.40515	53.45398
	28.38318	53.46496
	28.35571	53.47046
	28.34539	53.47259
	28.34557	53.47278
	28.34711	53.47483
	28.34781	53.47534
	28.34823	53.47702
	28.34993	53.47755
	28.35366	53.47918
	28.35387	53.47928
	28.35681	53.48098
	28.3575	53.48164
	28.35817	53.48271
	28.35914	53.48443
	28.36006	53.4851
	28.36122	53.4851
	28.3617	53.48525
	28.36282	53.48743
	28.37193	53.49024
	28.37766	53.48807
	28.37971	53.48466
	28.37894	53.48119
	28.3918	53.48078
	28.40112	53.47804
	28.40722	53.48226
	28.41014	53.48298
	28.41193	53.48843
	28.41082	53.4894
	28.41665	53.49355
	28.43056	53.49105
	28.4658	53.51563
	28.47107	53.5199
	28.47656	53.5144
	28.49304	53.5199
	28.49304	53.52539
	28.48755	53.53088
	28.49854	53.53088
	28.50952	53.5144
	28.51518	53.50982
	28.52568	53.51703
	28.52346	53.52157
	28.54267	53.52441
	28.56039	53.52162
	28.56808	53.52528
	28.57011	53.53008
	28.56648	53.53572
	28.55158	53.53288
	28.55059	53.53476
	28.54421	53.53666
	28.54379	53.53958
	28.53936	53.5426
	28.53699	53.54187
	28.53493	53.54061
	28.53822	53.53812
	28.53822	53.53584
	28.54439	53.53388
	28.54797	53.53088
	28.54809	53.52763
	28.54356	53.52765
	28.53214	53.52785
	28.49854	53.53638
	28.49854	53.54187
	28.53149	53.55835
	28.58642	53.55835
	28.58642	53.57483
	28.61938	53.57483
	28.6084	53.58581
	28.61389	53.5968
	28.62488	53.60229
	28.61938	53.61328
	28.70727	53.58032
	28.77869	53.58032
	28.77869	53.5968
	28.81474	53.60328
	28.81832	53.59169
	28.82328	53.59287
	28.83362	53.58032
	28.83911	53.58032
	28.87207	53.57483
	28.90503	53.55286
	28.91601	53.53088
	28.95747	53.52816
	28.95551	53.52029
	28.96647	53.5204
	28.97095	53.52539
	28.95996	53.53638
	28.96545	53.54187
	28.95996	53.54736
	28.95447	53.56384
	28.97644	53.56384
	28.95124	53.57494
	28.95447	53.58032
	28.97095	53.58032
	28.97713	53.58405
	28.99292	53.59131
	28.99841	53.58581
	29.02039	53.58581
	29.03686	53.58032
	29.05334	53.58581
	29.05884	53.58032
	29.06982	53.58032
	29.0863	53.59131
	29.08081	53.60229
	29.06982	53.60229
	29.07532	53.62427
	29.06433	53.63525
	29.06982	53.64075
	29.0918	53.63525
	29.10828	53.64624
	29.09729	53.66272
	29.10278	53.68469
	29.12475	53.68469
	29.13025	53.67371
	29.14124	53.67371
	29.14673	53.6792
	29.15222	53.6792
	29.17419	53.65723
	29.19617	53.65723
	29.20715	53.66821
	29.24561	53.67371
	29.25659	53.68469
	29.30054	53.69568
	29.31702	53.71216
	29.31702	53.73962
	29.32251	53.74512
	29.33899	53.74512
	29.36645	53.72314
	29.38843	53.72314
	29.39392	53.72864
	29.38843	53.7561
	29.39941	53.75061
	29.4104	53.7616
	29.42139	53.7616
	29.38293	53.77258
	29.38843	53.78357
	29.47632	53.78357
	29.4873	53.78906
	29.4928	53.80554
	29.45984	53.81103
	29.45434	53.81653
	29.42139	53.81653
	29.41589	53.83301
	29.36645	53.82751
	29.35547	53.83301
	29.37744	53.8385
	29.42139	53.86597
	29.39941	53.86597
	29.38843	53.85498
	29.36645	53.86047
	29.38843	53.87146
	29.39392	53.87695
	29.39392	53.88245
	29.38843	53.87695
	29.38293	53.88245
	29.37195	53.88794
	29.38293	53.89343
	29.38871	53.90209
	29.3893	53.9023
	29.38964	53.90247
	29.39036	53.90291
	29.39065	53.903
	29.39208	53.90324
	29.39272	53.90336
	29.39306	53.90346
	29.39323	53.90352
	29.39384	53.90389
	29.39393	53.90397
	29.39445	53.90468
	29.39451	53.90482
	29.39437	53.90664
	29.39422	53.9069
	29.39392	53.90727
	29.39379	53.9074
	29.39297	53.9079
	29.39278	53.90796
	29.39264	53.90799
	29.39392	53.90991
	29.38293	53.9154
	29.37195	53.92639
	29.37195	53.95386
	29.34998	53.96484
	29.36096	53.98132
	29.35547	53.9978
	29.328	54.00879
	29.328	54.01428
	29.34448	54.02527
	29.40491	54.04724
	29.42688	54.04175
	29.41589	54.05273
	29.42688	54.06921
	29.42139	54.09668
	29.43237	54.10217
	29.42757	54.12074
	29.41589	54.12414
	29.40491	54.12964
	29.42688	54.14062
	29.43787	54.16809
	29.42688	54.17358
	29.42688	54.17908
	29.44885	54.19006
	29.44336	54.19556
	29.45434	54.20105
	29.44336	54.20654
	29.45984	54.21204
	29.44336	54.21204
	29.44336	54.21753
	29.43237	54.22302
	29.43237	54.22852
	29.39941	54.22852
	29.39941	54.245
END
END
