Brazil_Goias_North
1
	-53.15624	-17.18967
	-53.15616	-17.18955
	-53.15511	-17.18701
	-53.15517	-17.18639
	-53.1555	-17.186
	-53.15612	-17.18396
	-53.15706	-17.18155
	-53.15721	-17.17903
	-53.15759	-17.17757
	-53.15706	-17.17455
	-53.15691	-17.17134
	-53.1566	-17.17061
	-53.15605	-17.17021
	-53.15538	-17.17004
	-53.15389	-17.17023
	-53.15268	-17.1699
	-53.15055	-17.16839
	-53.14983	-17.1682
	-53.14767	-17.16809
	-53.14661	-17.16845
	-53.14572	-17.16927
	-53.14482	-17.17068
	-53.14381	-17.17129
	-53.14301	-17.17149
	-53.14218	-17.17145
	-53.14171	-17.17118
	-53.14142	-17.17043
	-53.14134	-17.16919
	-53.14047	-17.16738
	-53.14042	-17.16675
	-53.14108	-17.16365
	-53.14016	-17.16313
	-53.13974	-17.16276
	-53.1394	-17.16203
	-53.13909	-17.16149
	-53.13847	-17.16105
	-53.13582	-17.16163
	-53.13516	-17.16154
	-53.13482	-17.1614
	-53.13404	-17.15977
	-53.13355	-17.15768
	-53.13297	-17.15628
	-53.13113	-17.15533
	-53.1299	-17.15498
	-53.12795	-17.15488
	-53.12751	-17.1546
	-53.12727	-17.15386
	-53.12735	-17.15291
	-53.12787	-17.15199
	-53.1301	-17.14981
	-53.13031	-17.14931
	-53.13	-17.14749
	-53.13102	-17.1462
	-53.13123	-17.14512
	-53.13103	-17.14445
	-53.13041	-17.14397
	-53.1299	-17.14387
	-53.12876	-17.14482
	-53.12689	-17.14476
	-53.12631	-17.14459
	-53.12582	-17.14266
	-53.12561	-17.1422
	-53.12507	-17.14176
	-53.12449	-17.14158
	-53.12341	-17.14073
	-53.12337	-17.14035
	-53.12381	-17.13929
	-53.12403	-17.13825
	-53.12365	-17.13705
	-53.12231	-17.13538
	-53.12084	-17.13465
	-53.1194	-17.13466
	-53.11835	-17.13427
	-53.11824	-17.13387
	-53.11949	-17.13174
	-53.11963	-17.13106
	-53.11845	-17.13034
	-53.11752	-17.1293
	-53.117	-17.1283
	-53.11449	-17.12686
	-53.11411	-17.12644
	-53.11426	-17.12574
	-53.11675	-17.12347
	-53.11737	-17.12205
	-53.11757	-17.11967
	-53.11727	-17.11887
	-53.1152	-17.11808
	-53.11451	-17.1174
	-53.11418	-17.11672
	-53.115	-17.116
	-53.11619	-17.11595
	-53.1168	-17.11572
	-53.117	-17.11519
	-53.11807	-17.11328
	-53.11672	-17.1127
	-53.11339	-17.11345
	-53.11282	-17.11325
	-53.11249	-17.11282
	-53.11232	-17.11194
	-53.11262	-17.11051
	-53.11179	-17.10861
	-53.11095	-17.10802
	-53.10997	-17.10792
	-53.10831	-17.10806
	-53.10702	-17.10747
	-53.10497	-17.10721
	-53.10365	-17.10755
	-53.10306	-17.10812
	-53.10215	-17.11003
	-53.10153	-17.11059
	-53.10092	-17.11067
	-53.09986	-17.10957
	-53.09848	-17.10908
	-53.09772	-17.10855
	-53.09717	-17.10687
	-53.09748	-17.10577
	-53.0977	-17.10556
	-53.09956	-17.10515
	-53.10102	-17.10424
	-53.1015	-17.10354
	-53.10135	-17.10212
	-53.10021	-17.10104
	-53.09922	-17.10108
	-53.09816	-17.10148
	-53.09697	-17.1023
	-53.09553	-17.10246
	-53.0949	-17.10186
	-53.09319	-17.09861
	-53.09246	-17.09847
	-53.09081	-17.09929
	-53.08843	-17.10096
	-53.08753	-17.10084
	-53.08636	-17.09979
	-53.08628	-17.09901
	-53.08684	-17.09743
	-53.09024	-17.0948
	-53.09095	-17.09364
	-53.09077	-17.09258
	-53.08935	-17.09212
	-53.0882	-17.09234
	-53.08582	-17.09496
	-53.08463	-17.09527
	-53.08385	-17.09508
	-53.08293	-17.09384
	-53.08285	-17.09276
	-53.08337	-17.09094
	-53.08554	-17.08851
	-53.0878	-17.08739
	-53.08903	-17.08643
	-53.08918	-17.08517
	-53.08813	-17.08443
	-53.08609	-17.08427
	-53.08456	-17.08675
	-53.08247	-17.08843
	-53.08128	-17.08891
	-53.07877	-17.08863
	-53.07824	-17.08783
	-53.07875	-17.08648
	-53.07933	-17.08552
	-53.07958	-17.083
	-53.08042	-17.08151
	-53.08073	-17.07981
	-53.07998	-17.07941
	-53.07883	-17.07931
	-53.07707	-17.07967
	-53.07557	-17.08051
	-53.07423	-17.08169
	-53.0711	-17.08584
	-53.06989	-17.08572
	-53.06937	-17.08374
	-53.06949	-17.08159
	-53.07004	-17.08007
	-53.07242	-17.07833
	-53.07261	-17.07741
	-53.07192	-17.07663
	-53.07112	-17.07637
	-53.06989	-17.07663
	-53.06818	-17.07819
	-53.06717	-17.07817
	-53.06649	-17.07775
	-53.06642	-17.07394
	-53.06605	-17.07354
	-53.06555	-17.07354
	-53.06473	-17.07394
	-53.06373	-17.0749
	-53.06271	-17.07745
	-53.06172	-17.07815
	-53.05986	-17.07747
	-53.05888	-17.07647
	-53.05867	-17.07524
	-53.05926	-17.0744
	-53.06043	-17.0738
	-53.06158	-17.07218
	-53.06143	-17.07098
	-53.06005	-17.07037
	-53.05893	-17.07041
	-53.05711	-17.07112
	-53.05565	-17.07104
	-53.05521	-17.07027
	-53.05514	-17.06939
	-53.05567	-17.06877
	-53.05713	-17.06827
	-53.05778	-17.06744
	-53.05751	-17.06638
	-53.05594	-17.0649
	-53.05507	-17.06488
	-53.05444	-17.06429
	-53.05444	-17.06167
	-53.05492	-17.06077
	-53.05724	-17.05897
	-53.05841	-17.05766
	-53.05945	-17.05716
	-53.06092	-17.05716
	-53.06403	-17.05861
	-53.06509	-17.05869
	-53.06545	-17.05832
	-53.06574	-17.05241
	-53.06444	-17.05175
	-53.06144	-17.05272
	-53.05989	-17.05274
	-53.05914	-17.05135
	-53.05885	-17.05029
	-53.05941	-17.04853
	-53.06098	-17.0463
	-53.06275	-17.04588
	-53.06386	-17.04648
	-53.06411	-17.04723
	-53.06697	-17.04777
	-53.06823	-17.04853
	-53.07002	-17.05111
	-53.07134	-17.05049
	-53.07134	-17.04939
	-53.07046	-17.04661
	-53.06954	-17.04469
	-53.06941	-17.04386
	-53.06943	-17.04229
	-53.06925	-17.04184
	-53.06906	-17.04156
	-53.06828	-17.04122
	-53.06693	-17.04052
	-53.06614	-17.0403
	-53.06556	-17.03987
	-53.06521	-17.03907
	-53.06492	-17.03797
	-53.06478	-17.03675
	-53.0652	-17.0353
	-53.06554	-17.03473
	-53.06694	-17.03381
	-53.06741	-17.03325
	-53.06801	-17.03181
	-53.068	-17.03134
	-53.06794	-17.03089
	-53.06757	-17.03057
	-53.06656	-17.03051
	-53.06588	-17.03074
	-53.06518	-17.03108
	-53.06453	-17.03161
	-53.06414	-17.03178
	-53.06379	-17.03172
	-53.06309	-17.03127
	-53.06092	-17.03074
	-53.05965	-17.02862
	-53.05931	-17.02763
	-53.05931	-17.02699
	-53.05954	-17.02653
	-53.06004	-17.02629
	-53.06134	-17.02507
	-53.06208	-17.02466
	-53.06225	-17.02423
	-53.06219	-17.02379
	-53.06169	-17.02311
	-53.05989	-17.02081
	-53.05953	-17.02058
	-53.0592	-17.0205
	-53.05847	-17.02059
	-53.05819	-17.02079
	-53.05791	-17.02124
	-53.05664	-17.02172
	-53.05486	-17.02146
	-53.05375	-17.01926
	-53.05369	-17.01863
	-53.05385	-17.01816
	-53.05411	-17.01786
	-53.05466	-17.01766
	-53.0562	-17.01745
	-53.05962	-17.01721
	-53.06016	-17.01724
	-53.0613	-17.01747
	-53.0622	-17.0175
	-53.06321	-17.01728
	-53.06378	-17.01635
	-53.0634	-17.01333
	-53.06314	-17.01306
	-53.06273	-17.01287
	-53.06064	-17.01231
	-53.05971	-17.0124
	-53.05936	-17.01261
	-53.05894	-17.01334
	-53.05761	-17.01503
	-53.0569	-17.01539
	-53.05598	-17.01539
	-53.05444	-17.01468
	-53.05419	-17.01438
	-53.05409	-17.01401
	-53.05421	-17.01317
	-53.05421	-17.012
	-53.05426	-17.01158
	-53.05437	-17.01123
	-53.05473	-17.01089
	-53.05582	-17.01064
	-53.05658	-17.01017
	-53.05668	-17.00979
	-53.05663	-17.00941
	-53.05539	-17.00815
	-53.05367	-17.00607
	-53.05221	-17.00488
	-53.0518	-17.00447
	-53.05168	-17.00408
	-53.05175	-17.00372
	-53.05192	-17.00348
	-53.05223	-17.00334
	-53.05285	-17.00335
	-53.05447	-17.00359
	-53.05496	-17.00359
	-53.05567	-17.0033
	-53.05575	-17.00311
	-53.0557	-17.00285
	-53.055	-17.00184
	-53.05475	-17.00092
	-53.05476	-17.00003
	-53.05499	-16.99917
	-53.05586	-16.99776
	-53.05591	-16.99687
	-53.05553	-16.99638
	-53.05378	-16.99522
	-53.0527	-16.99498
	-53.05171	-16.99434
	-53.05115	-16.99379
	-53.05103	-16.99346
	-53.05112	-16.99308
	-53.05162	-16.99287
	-53.05408	-16.99047
	-53.05471	-16.98966
	-53.05523	-16.9885
	-53.05541	-16.98663
	-53.05533	-16.98619
	-53.05342	-16.98245
	-53.05331	-16.97947
	-53.05406	-16.97649
	-53.05482	-16.97374
	-53.05475	-16.97224
	-53.05429	-16.9708
	-53.05404	-16.96894
	-53.0545	-16.96755
	-53.05588	-16.96597
	-53.05611	-16.96495
	-53.05588	-16.96315
	-53.05452	-16.96159
	-53.05388	-16.96143
	-53.05333	-16.96173
	-53.05162	-16.96477
	-53.05173	-16.96649
	-53.05191	-16.96751
	-53.05143	-16.96808
	-53.05049	-16.96822
	-53.04932	-16.9679
	-53.04856	-16.96611
	-53.0463	-16.96425
	-53.04627	-16.96066
	-53.04467	-16.9553
	-53.0466	-16.95284
	-53.04682	-16.95115
	-53.04717	-16.94951
	-53.04702	-16.94933
	-53.04633	-16.94916
	-53.04555	-16.94838
	-53.04474	-16.94816
	-53.04278	-16.94696
	-53.04098	-16.94725
	-53.04027	-16.94706
	-53.03845	-16.94528
	-53.03649	-16.94486
	-53.03503	-16.94321
	-53.03486	-16.94235
	-53.03696	-16.93964
	-53.03674	-16.93791
	-53.03611	-16.93631
	-53.03482	-16.93491
	-53.03321	-16.93366
	-53.03277	-16.9329
	-53.03283	-16.93188
	-53.03321	-16.9312
	-53.03469	-16.93068
	-53.03561	-16.93084
	-53.03634	-16.93182
	-53.03703	-16.9324
	-53.03841	-16.93252
	-53.03929	-16.93198
	-53.03939	-16.931
	-53.03912	-16.93038
	-53.03747	-16.9291
	-53.03712	-16.92748
	-53.03584	-16.92508
	-53.03446	-16.92401
	-53.03463	-16.92253
	-53.03411	-16.92185
	-53.03419	-16.92007
	-53.03597	-16.91861
	-53.03607	-16.91779
	-53.03941	-16.91342
	-53.03941	-16.91274
	-53.0386	-16.91212
	-53.03643	-16.91168
	-53.03407	-16.91098
	-53.03334	-16.90956
	-53.03269	-16.90892
	-53.03206	-16.90878
	-53.03127	-16.90956
	-53.03112	-16.91048
	-53.03077	-16.91092
	-53.03056	-16.91166
	-53.02985	-16.91222
	-53.029	-16.912
	-53.02839	-16.9113
	-53.02822	-16.90942
	-53.02937	-16.90856
	-53.02953	-16.90752
	-53.0316	-16.90468
	-53.03119	-16.90382
	-53.03008	-16.9032
	-53.0288	-16.90314
	-53.02772	-16.90344
	-53.02692	-16.90424
	-53.02611	-16.90462
	-53.025	-16.90446
	-53.02304	-16.90338
	-53.02112	-16.90256
	-53.02112	-16.90161
	-53.02028	-16.90089
	-53.01974	-16.90083
	-53.0189	-16.90033
	-53.01936	-16.89885
	-53.0193	-16.89757
	-53.01984	-16.89659
	-53.01972	-16.89429
	-53.01769	-16.88995
	-53.01788	-16.888
	-53.01717	-16.88634
	-53.01692	-16.88452
	-53.01529	-16.88358
	-53.01362	-16.8845
	-53.01243	-16.8845
	-53.01172	-16.88348
	-53.01184	-16.88276
	-53.01249	-16.8821
	-53.0131	-16.88186
	-53.0141	-16.88192
	-53.01527	-16.88104
	-53.01583	-16.88012
	-53.01694	-16.87882
	-53.01719	-16.87812
	-53.01652	-16.87668
	-53.01575	-16.87618
	-53.01492	-16.87698
	-53.01404	-16.87706
	-53.01339	-16.87646
	-53.01299	-16.8755
	-53.01327	-16.87274
	-53.01327	-16.86992
	-53.01408	-16.868
	-53.0137	-16.8655
	-53.01387	-16.86442
	-53.01421	-16.86329
	-53.01436	-16.86212
	-53.01415	-16.86148
	-53.01372	-16.86126
	-53.01295	-16.8609
	-53.01255	-16.86031
	-53.01222	-16.85938
	-53.01189	-16.85881
	-53.01031	-16.85871
	-53.00934	-16.85895
	-53.00796	-16.85983
	-53.00703	-16.86164
	-53.00668	-16.86471
	-53.00622	-16.86526
	-53.00544	-16.86546
	-53.00399	-16.86482
	-53.00349	-16.86406
	-53.00203	-16.86042
	-53.00146	-16.8604
	-52.99922	-16.86191
	-52.99801	-16.86318
	-52.99786	-16.86399
	-52.9981	-16.86544
	-52.99788	-16.86646
	-52.9972	-16.86626
	-52.9934	-16.86445
	-52.99235	-16.86332
	-52.99184	-16.86307
	-52.99098	-16.86312
	-52.99031	-16.86358
	-52.98931	-16.86681
	-52.98879	-16.86718
	-52.98817	-16.86726
	-52.9861	-16.86629
	-52.98528	-16.86615
	-52.98376	-16.86639
	-52.98229	-16.86637
	-52.98154	-16.86618
	-52.98006	-16.86513
	-52.97658	-16.86363
	-52.97587	-16.86377
	-52.97441	-16.86561
	-52.97352	-16.86724
	-52.9729	-16.86919
	-52.97255	-16.86948
	-52.97197	-16.86965
	-52.97107	-16.86957
	-52.96361	-16.86719
	-52.96283	-16.86667
	-52.96264	-16.86588
	-52.96273	-16.86509
	-52.96375	-16.86335
	-52.96582	-16.86078
	-52.96644	-16.85964
	-52.96648	-16.85906
	-52.9661	-16.85872
	-52.9655	-16.8586
	-52.96423	-16.85845
	-52.96273	-16.85859
	-52.96115	-16.85924
	-52.95861	-16.86068
	-52.95634	-16.86144
	-52.9559	-16.8615
	-52.95562	-16.86136
	-52.95536	-16.86065
	-52.95433	-16.85962
	-52.95406	-16.8588
	-52.95406	-16.8577
	-52.95513	-16.85682
	-52.95609	-16.85455
	-52.95897	-16.85318
	-52.95892	-16.8525
	-52.95838	-16.85171
	-52.95684	-16.85031
	-52.95595	-16.85017
	-52.95523	-16.8506
	-52.95086	-16.8521
	-52.94999	-16.85284
	-52.94955	-16.85378
	-52.9495	-16.85434
	-52.94984	-16.85613
	-52.95014	-16.8566
	-52.95163	-16.85774
	-52.95232	-16.85873
	-52.95232	-16.85934
	-52.95189	-16.85979
	-52.95114	-16.86017
	-52.95015	-16.8601
	-52.94944	-16.85968
	-52.94767	-16.85787
	-52.94547	-16.85613
	-52.94489	-16.85517
	-52.9448	-16.85408
	-52.94504	-16.85319
	-52.94557	-16.85226
	-52.9473	-16.85041
	-52.94819	-16.84853
	-52.94829	-16.84741
	-52.94779	-16.84545
	-52.94793	-16.84491
	-52.94842	-16.84454
	-52.95045	-16.84425
	-52.95279	-16.84311
	-52.95313	-16.84251
	-52.95302	-16.84139
	-52.95285	-16.84109
	-52.95202	-16.84051
	-52.95093	-16.84029
	-52.94953	-16.84041
	-52.94669	-16.84115
	-52.94427	-16.84253
	-52.94287	-16.84273
	-52.94153	-16.84257
	-52.94095	-16.84223
	-52.93974	-16.84089
	-52.93903	-16.84097
	-52.93732	-16.84165
	-52.93656	-16.84155
	-52.93619	-16.84119
	-52.93592	-16.84059
	-52.93554	-16.83995
	-52.9347	-16.83957
	-52.93397	-16.83977
	-52.93222	-16.84155
	-52.92994	-16.84167
	-52.92819	-16.84145
	-52.927	-16.841
	-52.92668	-16.84039
	-52.92702	-16.83929
	-52.92891	-16.83762
	-52.93021	-16.83754
	-52.93139	-16.83688
	-52.93194	-16.8361
	-52.932	-16.835
	-52.93142	-16.83278
	-52.92946	-16.8301
	-52.92902	-16.82919
	-52.92892	-16.82809
	-52.92905	-16.82715
	-52.92948	-16.8266
	-52.93009	-16.82626
	-52.93155	-16.82613
	-52.93343	-16.82572
	-52.93434	-16.82499
	-52.93507	-16.82399
	-52.93596	-16.8217
	-52.93831	-16.81816
	-52.9394	-16.81667
	-52.94052	-16.81446
	-52.94123	-16.81414
	-52.9443	-16.81387
	-52.94485	-16.81316
	-52.94473	-16.81244
	-52.94425	-16.81186
	-52.94121	-16.81049
	-52.93987	-16.81047
	-52.93909	-16.81106
	-52.93693	-16.81105
	-52.93613	-16.81064
	-52.9355	-16.80998
	-52.93399	-16.80669
	-52.93347	-16.80512
	-52.93336	-16.80329
	-52.93286	-16.80301
	-52.93225	-16.80308
	-52.93089	-16.80351
	-52.92779	-16.8042
	-52.92633	-16.80524
	-52.92619	-16.8056
	-52.92609	-16.8068
	-52.9255	-16.80846
	-52.92576	-16.81006
	-52.92625	-16.81175
	-52.92658	-16.81394
	-52.92701	-16.81497
	-52.92831	-16.81626
	-52.92826	-16.81677
	-52.92813	-16.81742
	-52.9271	-16.81867
	-52.92578	-16.81863
	-52.92366	-16.81846
	-52.92011	-16.81649
	-52.91892	-16.81462
	-52.91747	-16.81337
	-52.91571	-16.81292
	-52.91464	-16.81286
	-52.91144	-16.81139
	-52.90857	-16.81086
	-52.90763	-16.80989
	-52.90721	-16.80814
	-52.90704	-16.80659
	-52.90749	-16.8058
	-52.90767	-16.80484
	-52.90742	-16.80379
	-52.90758	-16.80179
	-52.90724	-16.79895
	-52.90671	-16.79823
	-52.90476	-16.79725
	-52.90308	-16.79688
	-52.89895	-16.79445
	-52.89695	-16.79427
	-52.8944	-16.7944
	-52.8929	-16.79416
	-52.89259	-16.79349
	-52.89275	-16.79262
	-52.89136	-16.79088
	-52.88968	-16.78978
	-52.88916	-16.78901
	-52.8893	-16.78799
	-52.88997	-16.78727
	-52.89094	-16.78698
	-52.89368	-16.78673
	-52.89425	-16.78597
	-52.894	-16.785
	-52.8935	-16.78421
	-52.89246	-16.78351
	-52.8906	-16.78345
	-52.88982	-16.78315
	-52.88932	-16.78232
	-52.88961	-16.7813
	-52.88928	-16.7803
	-52.88877	-16.78011
	-52.88675	-16.78004
	-52.88582	-16.77901
	-52.88543	-16.77745
	-52.8847	-16.77645
	-52.88335	-16.77597
	-52.88009	-16.77566
	-52.8791	-16.77664
	-52.87801	-16.77977
	-52.87689	-16.77999
	-52.87598	-16.78059
	-52.87493	-16.78096
	-52.87046	-16.78065
	-52.86828	-16.7811
	-52.86661	-16.7812
	-52.86598	-16.78037
	-52.8661	-16.77682
	-52.86505	-16.77621
	-52.86345	-16.77627
	-52.86258	-16.77566
	-52.86319	-16.77318
	-52.86317	-16.76969
	-52.86255	-16.76901
	-52.86008	-16.7685
	-52.85914	-16.76867
	-52.85725	-16.771
	-52.8571	-16.77204
	-52.8567	-16.77281
	-52.85553	-16.77335
	-52.85424	-16.77349
	-52.85392	-16.77327
	-52.85402	-16.77249
	-52.85289	-16.77024
	-52.85246	-16.76884
	-52.85154	-16.76749
	-52.84899	-16.76612
	-52.84837	-16.76603
	-52.8475	-16.76633
	-52.84618	-16.76639
	-52.84467	-16.76707
	-52.84331	-16.7682
	-52.84009	-16.7708
	-52.838	-16.77181
	-52.83661	-16.7717
	-52.8346	-16.77168
	-52.8326	-16.77216
	-52.8316	-16.77209
	-52.83006	-16.77124
	-52.82954	-16.77063
	-52.82935	-16.77018
	-52.82956	-16.7693
	-52.82994	-16.7688
	-52.83003	-16.76756
	-52.83053	-16.76581
	-52.83063	-16.76353
	-52.83119	-16.76226
	-52.8311	-16.76166
	-52.83001	-16.7597
	-52.82849	-16.75826
	-52.82716	-16.75785
	-52.8258	-16.7578
	-52.82294	-16.75817
	-52.82231	-16.75801
	-52.82198	-16.75763
	-52.81882	-16.75252
	-52.81698	-16.74886
	-52.81472	-16.74763
	-52.81213	-16.74685
	-52.80946	-16.74441
	-52.8088	-16.74303
	-52.80775	-16.74199
	-52.80636	-16.74154
	-52.80522	-16.74168
	-52.80393	-16.74249
	-52.80307	-16.74405
	-52.80283	-16.74631
	-52.80222	-16.74787
	-52.80145	-16.74863
	-52.80058	-16.74898
	-52.79948	-16.74867
	-52.79792	-16.74772
	-52.79665	-16.74666
	-52.79571	-16.74557
	-52.79538	-16.74427
	-52.79501	-16.74256
	-52.79446	-16.74136
	-52.79356	-16.74055
	-52.79297	-16.74023
	-52.79255	-16.74015
	-52.79119	-16.74066
	-52.78987	-16.74191
	-52.78856	-16.74286
	-52.78735	-16.74296
	-52.78652	-16.74259
	-52.78604	-16.7415
	-52.78829	-16.73495
	-52.78873	-16.73244
	-52.78932	-16.72561
	-52.78922	-16.72423
	-52.78818	-16.71946
	-52.78682	-16.71631
	-52.78555	-16.71407
	-52.7838	-16.71307
	-52.78273	-16.71212
	-52.78066	-16.70953
	-52.77921	-16.70848
	-52.77768	-16.70781
	-52.77299	-16.70701
	-52.76873	-16.7067
	-52.76279	-16.70705
	-52.76154	-16.70684
	-52.761	-16.706
	-52.76005	-16.70476
	-52.75978	-16.70342
	-52.76024	-16.7026
	-52.76101	-16.70207
	-52.7624	-16.70177
	-52.76369	-16.69951
	-52.76428	-16.69733
	-52.76439	-16.6955
	-52.7634	-16.68976
	-52.76353	-16.68839
	-52.76292	-16.68483
	-52.76261	-16.68175
	-52.7613	-16.67888
	-52.75792	-16.67659
	-52.75608	-16.67513
	-52.75527	-16.67397
	-52.755	-16.6727
	-52.7554	-16.67168
	-52.75586	-16.67127
	-52.75884	-16.67115
	-52.76871	-16.67279
	-52.77012	-16.67247
	-52.77103	-16.67175
	-52.77148	-16.67065
	-52.77137	-16.66969
	-52.76943	-16.66745
	-52.76253	-16.66403
	-52.76086	-16.66368
	-52.75667	-16.66342
	-52.75353	-16.66264
	-52.75246	-16.66197
	-52.75182	-16.66129
	-52.75134	-16.6588
	-52.75024	-16.65711
	-52.74891	-16.65595
	-52.74739	-16.65558
	-52.74571	-16.65597
	-52.74362	-16.65745
	-52.74228	-16.6581
	-52.74115	-16.65808
	-52.74042	-16.65755
	-52.74014	-16.6566
	-52.74121	-16.65192
	-52.74183	-16.65079
	-52.74479	-16.64799
	-52.74588	-16.64618
	-52.74751	-16.64269
	-52.74834	-16.63906
	-52.74768	-16.63314
	-52.74663	-16.63108
	-52.74562	-16.6302
	-52.74408	-16.62969
	-52.7427	-16.62957
	-52.73967	-16.63017
	-52.7352	-16.6323
	-52.7336	-16.63374
	-52.73117	-16.63649
	-52.72968	-16.63881
	-52.7286	-16.64181
	-52.72757	-16.64519
	-52.72695	-16.64595
	-52.7243	-16.64714
	-52.72224	-16.64721
	-52.72035	-16.64619
	-52.71632	-16.64186
	-52.71536	-16.64031
	-52.715	-16.639
	-52.71476	-16.63829
	-52.71494	-16.63749
	-52.7182	-16.63172
	-52.72272	-16.62421
	-52.72371	-16.62196
	-52.7254	-16.61511
	-52.72628	-16.61431
	-52.73114	-16.61357
	-52.73764	-16.61359
	-52.73882	-16.61334
	-52.74005	-16.61239
	-52.74134	-16.61056
	-52.74165	-16.60912
	-52.74137	-16.60649
	-52.74058	-16.60477
	-52.73832	-16.60211
	-52.73643	-16.60096
	-52.73211	-16.59987
	-52.73106	-16.59925
	-52.73081	-16.59835
	-52.73095	-16.59728
	-52.73167	-16.5965
	-52.73358	-16.59546
	-52.73972	-16.59235
	-52.74035	-16.59145
	-52.74031	-16.59046
	-52.74	-16.58986
	-52.73837	-16.58979
	-52.73612	-16.58911
	-52.7349	-16.58794
	-52.73386	-16.58629
	-52.73323	-16.58599
	-52.73229	-16.58578
	-52.73038	-16.58587
	-52.72773	-16.58641
	-52.72532	-16.58736
	-52.72365	-16.5886
	-52.72212	-16.58925
	-52.71895	-16.59167
	-52.71669	-16.59229
	-52.71375	-16.59351
	-52.71097	-16.59545
	-52.70975	-16.59717
	-52.70917	-16.59887
	-52.70813	-16.60001
	-52.70686	-16.60011
	-52.70527	-16.59961
	-52.70379	-16.59857
	-52.70312	-16.59702
	-52.70332	-16.59555
	-52.70442	-16.59368
	-52.70616	-16.58835
	-52.70764	-16.57936
	-52.70778	-16.57577
	-52.70729	-16.57378
	-52.70587	-16.57181
	-52.70477	-16.57128
	-52.70337	-16.57126
	-52.7019	-16.57153
	-52.70016	-16.57241
	-52.69738	-16.57642
	-52.69653	-16.57923
	-52.69569	-16.58016
	-52.69475	-16.58234
	-52.69374	-16.58257
	-52.69148	-16.58361
	-52.68964	-16.58497
	-52.6878	-16.58559
	-52.68104	-16.5858
	-52.67859	-16.58523
	-52.67659	-16.58553
	-52.6749	-16.5853
	-52.67273	-16.58467
	-52.67119	-16.58368
	-52.6703	-16.58273
	-52.67011	-16.58191
	-52.6702	-16.58066
	-52.67007	-16.57928
	-52.67297	-16.57177
	-52.67324	-16.57061
	-52.67296	-16.56928
	-52.67196	-16.56906
	-52.66861	-16.56985
	-52.6668	-16.5709
	-52.66528	-16.57136
	-52.66211	-16.57278
	-52.66105	-16.57275
	-52.66035	-16.57239
	-52.65969	-16.5708
	-52.65982	-16.5699
	-52.66082	-16.56783
	-52.66222	-16.56589
	-52.66368	-16.56471
	-52.666	-16.56345
	-52.66971	-16.5601
	-52.67052	-16.55843
	-52.67053	-16.55741
	-52.66982	-16.5543
	-52.66825	-16.55107
	-52.66665	-16.55036
	-52.66574	-16.55032
	-52.66466	-16.55063
	-52.663	-16.55135
	-52.65882	-16.55495
	-52.65731	-16.55751
	-52.65583	-16.55879
	-52.65483	-16.56036
	-52.65355	-16.56136
	-52.65205	-16.56194
	-52.6507	-16.56203
	-52.64978	-16.5615
	-52.64922	-16.56046
	-52.64897	-16.5593
	-52.65083	-16.55065
	-52.65038	-16.54882
	-52.64941	-16.5479
	-52.64743	-16.54662
	-52.64591	-16.54633
	-52.6444	-16.54687
	-52.64362	-16.54758
	-52.64275	-16.54901
	-52.64086	-16.55135
	-52.64023	-16.55169
	-52.63964	-16.55185
	-52.63897	-16.55173
	-52.63821	-16.55172
	-52.63721	-16.55211
	-52.63639	-16.55212
	-52.63585	-16.55185
	-52.6355	-16.55097
	-52.63544	-16.55056
	-52.6356	-16.54934
	-52.63533	-16.54815
	-52.63541	-16.54605
	-52.63494	-16.54443
	-52.63494	-16.5433
	-52.63545	-16.54127
	-52.63511	-16.53984
	-52.63427	-16.5385
	-52.63341	-16.53794
	-52.63171	-16.53778
	-52.62942	-16.53819
	-52.62831	-16.53775
	-52.62737	-16.53661
	-52.626	-16.533
	-52.62552	-16.53087
	-52.62649	-16.52855
	-52.6263	-16.52615
	-52.62568	-16.52389
	-52.62565	-16.52244
	-52.626	-16.521
	-52.62813	-16.51859
	-52.62923	-16.51796
	-52.63107	-16.51723
	-52.63192	-16.51644
	-52.63235	-16.51632
	-52.63283	-16.51581
	-52.63414	-16.51417
	-52.63527	-16.51185
	-52.63575	-16.51013
	-52.63637	-16.50941
	-52.63655	-16.50867
	-52.63674	-16.50647
	-52.63744	-16.5052
	-52.63761	-16.50442
	-52.63729	-16.50277
	-52.63624	-16.50199
	-52.63528	-16.50093
	-52.63355	-16.50024
	-52.63256	-16.50016
	-52.63125	-16.50036
	-52.62978	-16.50083
	-52.6265	-16.50326
	-52.62563	-16.50363
	-52.62481	-16.50369
	-52.62395	-16.50386
	-52.62234	-16.50445
	-52.62076	-16.50534
	-52.62022	-16.50545
	-52.6189	-16.50505
	-52.61776	-16.50486
	-52.61605	-16.50424
	-52.61446	-16.50359
	-52.61331	-16.50246
	-52.61247	-16.5013
	-52.60983	-16.49663
	-52.60877	-16.49466
	-52.60687	-16.48847
	-52.60642	-16.48747
	-52.60616	-16.48659
	-52.60623	-16.48551
	-52.60679	-16.48398
	-52.60772	-16.48215
	-52.60801	-16.48113
	-52.60772	-16.48032
	-52.60695	-16.47941
	-52.6064	-16.47819
	-52.6065	-16.47689
	-52.60699	-16.47606
	-52.60828	-16.47496
	-52.60899	-16.47476
	-52.6105	-16.47404
	-52.61232	-16.47246
	-52.61332	-16.47103
	-52.61341	-16.47006
	-52.61282	-16.46825
	-52.61153	-16.46734
	-52.61011	-16.46692
	-52.60808	-16.46699
	-52.60672	-16.46671
	-52.60528	-16.46577
	-52.60466	-16.46442
	-52.60496	-16.46345
	-52.60672	-16.46111
	-52.60837	-16.45966
	-52.61008	-16.45868
	-52.612	-16.458
	-52.6136	-16.45795
	-52.61493	-16.45827
	-52.61623	-16.45928
	-52.6171	-16.46074
	-52.61832	-16.46414
	-52.61891	-16.46495
	-52.61993	-16.46551
	-52.62102	-16.46523
	-52.62151	-16.46426
	-52.62208	-16.46286
	-52.6225	-16.45855
	-52.62239	-16.4573
	-52.62156	-16.45604
	-52.62071	-16.45532
	-52.61921	-16.45454
	-52.61815	-16.45371
	-52.6171	-16.45254
	-52.61669	-16.4513
	-52.61687	-16.45019
	-52.61726	-16.4494
	-52.61814	-16.44869
	-52.61893	-16.44682
	-52.61992	-16.44615
	-52.62096	-16.44562
	-52.62245	-16.44557
	-52.62422	-16.44522
	-52.62553	-16.44427
	-52.62771	-16.44172
	-52.62927	-16.44078
	-52.63169	-16.43985
	-52.6339	-16.43852
	-52.63496	-16.4382
	-52.63778	-16.43812
	-52.63852	-16.4378
	-52.63885	-16.43719
	-52.63868	-16.43516
	-52.63878	-16.43405
	-52.63928	-16.43278
	-52.64012	-16.43181
	-52.64281	-16.42998
	-52.64396	-16.42899
	-52.64501	-16.42734
	-52.64517	-16.42594
	-52.64501	-16.4243
	-52.64446	-16.42257
	-52.6435	-16.42121
	-52.64225	-16.4203
	-52.64108	-16.41863
	-52.64088	-16.4175
	-52.641	-16.416
	-52.64131	-16.41501
	-52.64218	-16.41367
	-52.64347	-16.41234
	-52.6445	-16.41169
	-52.64806	-16.41043
	-52.64906	-16.40956
	-52.65116	-16.40853
	-52.65212	-16.40833
	-52.65352	-16.40841
	-52.65669	-16.40937
	-52.6636	-16.41043
	-52.66673	-16.41151
	-52.67268	-16.41241
	-52.67444	-16.41238
	-52.676	-16.412
	-52.67793	-16.4105
	-52.67898	-16.4093
	-52.67966	-16.40758
	-52.68064	-16.40584
	-52.68215	-16.4042
	-52.68413	-16.40259
	-52.68603	-16.40136
	-52.68763	-16.39878
	-52.68899	-16.39529
	-52.68902	-16.39433
	-52.68851	-16.39404
	-52.68801	-16.39309
	-52.68833	-16.39135
	-52.68795	-16.39059
	-52.68629	-16.38941
	-52.68469	-16.38898
	-52.68237	-16.38894
	-52.68073	-16.38851
	-52.6802	-16.38775
	-52.67908	-16.38449
	-52.67791	-16.38237
	-52.67746	-16.38101
	-52.67758	-16.37989
	-52.67824	-16.37869
	-52.67898	-16.37797
	-52.6802	-16.37757
	-52.68172	-16.37659
	-52.68297	-16.37536
	-52.68495	-16.37241
	-52.68632	-16.37141
	-52.68895	-16.37
	-52.69098	-16.36936
	-52.692	-16.36869
	-52.69264	-16.36786
	-52.69278	-16.36716
	-52.69234	-16.36541
	-52.69048	-16.36071
	-52.69024	-16.35892
	-52.69038	-16.35683
	-52.69119	-16.35623
	-52.69252	-16.35444
	-52.69316	-16.35318
	-52.69345	-16.35239
	-52.69359	-16.35091
	-52.69251	-16.34873
	-52.68835	-16.34749
	-52.68539	-16.34655
	-52.68407	-16.34579
	-52.68302	-16.34505
	-52.68251	-16.34422
	-52.68244	-16.34334
	-52.6827	-16.34246
	-52.68345	-16.34108
	-52.68437	-16.33969
	-52.68489	-16.33827
	-52.68501	-16.33653
	-52.68485	-16.33389
	-52.68505	-16.33249
	-52.68593	-16.3294
	-52.68595	-16.32787
	-52.68583	-16.327
	-52.68505	-16.32627
	-52.68422	-16.32515
	-52.68288	-16.32342
	-52.68277	-16.32296
	-52.68244	-16.32225
	-52.6824	-16.32134
	-52.68278	-16.32043
	-52.68321	-16.31978
	-52.68382	-16.31916
	-52.68623	-16.31714
	-52.68662	-16.31634
	-52.68668	-16.31523
	-52.68629	-16.31438
	-52.68469	-16.31147
	-52.68428	-16.30875
	-52.684	-16.30614
	-52.68334	-16.30416
	-52.6827	-16.30239
	-52.68165	-16.30202
	-52.67787	-16.30196
	-52.67704	-16.30125
	-52.67591	-16.29786
	-52.67459	-16.29492
	-52.67359	-16.29317
	-52.67272	-16.29281
	-52.67011	-16.29222
	-52.66962	-16.29168
	-52.6695	-16.29114
	-52.66741	-16.28772
	-52.66559	-16.28631
	-52.66402	-16.28472
	-52.66224	-16.28344
	-52.66016	-16.28129
	-52.65821	-16.28014
	-52.65685	-16.27969
	-52.65512	-16.27937
	-52.65347	-16.2795
	-52.65228	-16.2807
	-52.65195	-16.28149
	-52.64966	-16.28424
	-52.64829	-16.285
	-52.647	-16.285
	-52.64434	-16.28448
	-52.64258	-16.28432
	-52.63952	-16.28361
	-52.63701	-16.28317
	-52.63558	-16.28335
	-52.63473	-16.2838
	-52.63245	-16.28529
	-52.63124	-16.2862
	-52.62827	-16.28696
	-52.62529	-16.28694
	-52.62316	-16.28641
	-52.61888	-16.28349
	-52.61656	-16.27935
	-52.61532	-16.27836
	-52.61118	-16.27194
	-52.60753	-16.27077
	-52.59275	-16.27051
	-52.5894	-16.26975
	-52.58725	-16.2682
	-52.58659	-16.26663
	-52.58545	-16.26044
	-52.58176	-16.25282
	-52.58	-16.251
	-52.57744	-16.24943
	-52.57626	-16.24943
	-52.57377	-16.25047
	-52.57191	-16.25167
	-52.56978	-16.25436
	-52.56784	-16.25978
	-52.56343	-16.26476
	-52.56076	-16.26571
	-52.5586	-16.26593
	-52.55521	-16.26566
	-52.55283	-16.26509
	-52.55034	-16.264
	-52.54703	-16.26142
	-52.54642	-16.26068
	-52.54582	-16.25951
	-52.54582	-16.25859
	-52.54627	-16.25808
	-52.54732	-16.25763
	-52.54907	-16.25706
	-52.55173	-16.25507
	-52.55445	-16.25259
	-52.55614	-16.25014
	-52.55949	-16.24264
	-52.56048	-16.24085
	-52.5617	-16.23942
	-52.56814	-16.2349
	-52.569	-16.23376
	-52.57018	-16.23099
	-52.57016	-16.22997
	-52.56938	-16.22779
	-52.56748	-16.22498
	-52.56634	-16.22427
	-52.56329	-16.22412
	-52.55222	-16.22553
	-52.54962	-16.22524
	-52.548	-16.225
	-52.54673	-16.22438
	-52.54517	-16.22239
	-52.54511	-16.22157
	-52.54561	-16.2206
	-52.54684	-16.21896
	-52.54677	-16.21607
	-52.54701	-16.21306
	-52.54859	-16.20851
	-52.5488	-16.20285
	-52.55023	-16.19262
	-52.55061	-16.18882
	-52.55029	-16.18616
	-52.54992	-16.18525
	-52.54941	-16.18457
	-52.54551	-16.18271
	-52.54407	-16.18152
	-52.54363	-16.17997
	-52.5438	-16.17887
	-52.54479	-16.17721
	-52.54684	-16.16952
	-52.54753	-16.1687
	-52.54903	-16.16802
	-52.54916	-16.16532
	-52.54825	-16.16373
	-52.54696	-16.16307
	-52.5458	-16.16293
	-52.54462	-16.16315
	-52.53931	-16.16072
	-52.53657	-16.16017
	-52.5319	-16.15818
	-52.52722	-16.15591
	-52.52573	-16.15456
	-52.52526	-16.15336
	-52.52499	-16.15171
	-52.52522	-16.14932
	-52.52661	-16.14411
	-52.52663	-16.14243
	-52.52598	-16.14092
	-52.525	-16.14
	-52.52404	-16.13978
	-52.52248	-16.13989
	-52.52081	-16.13935
	-52.51877	-16.13781
	-52.51822	-16.13657
	-52.51661	-16.13445
	-52.51564	-16.13364
	-52.51431	-16.13322
	-52.51281	-16.13379
	-52.5111	-16.13571
	-52.50866	-16.13695
	-52.5021	-16.14201
	-52.50009	-16.1423
	-52.49847	-16.14219
	-52.4952	-16.14049
	-52.49187	-16.13821
	-52.49113	-16.13732
	-52.49111	-16.13519
	-52.49059	-16.13326
	-52.48942	-16.13132
	-52.48802	-16.13021
	-52.48602	-16.12957
	-52.48259	-16.12956
	-52.481	-16.12931
	-52.47978	-16.12848
	-52.47787	-16.12671
	-52.4767	-16.12618
	-52.47557	-16.1263
	-52.47349	-16.12692
	-52.47212	-16.12679
	-52.46943	-16.12637
	-52.46725	-16.12654
	-52.46351	-16.12786
	-52.46125	-16.1278
	-52.45941	-16.12715
	-52.45364	-16.12247
	-52.44913	-16.11665
	-52.44395	-16.11274
	-52.43756	-16.10892
	-52.43126	-16.10685
	-52.42724	-16.1063
	-52.42565	-16.10575
	-52.42422	-16.1043
	-52.42049	-16.10198
	-52.41614	-16.10077
	-52.40994	-16.1
	-52.40735	-16.09877
	-52.40343	-16.09573
	-52.3995	-16.09358
	-52.3974	-16.09289
	-52.39454	-16.09283
	-52.39227	-16.09338
	-52.38136	-16.09871
	-52.37648	-16.09895
	-52.37418	-16.09863
	-52.37234	-16.09771
	-52.37116	-16.09644
	-52.37045	-16.09452
	-52.37051	-16.09138
	-52.37018	-16.08854
	-52.36918	-16.08577
	-52.36773	-16.08379
	-52.36657	-16.08285
	-52.36155	-16.0817
	-52.35905	-16.08103
	-52.35762	-16.08117
	-52.35656	-16.08197
	-52.35466	-16.08403
	-52.35307	-16.08466
	-52.35077	-16.08423
	-52.34895	-16.08334
	-52.34689	-16.08185
	-52.34434	-16.07956
	-52.33875	-16.07629
	-52.33583	-16.07562
	-52.33143	-16.07366
	-52.32967	-16.07211
	-52.32835	-16.07054
	-52.328	-16.06892
	-52.32785	-16.06332
	-52.32705	-16.05864
	-52.3263	-16.05512
	-52.32588	-16.05101
	-52.32545	-16.04953
	-52.3248	-16.04889
	-52.3232	-16.04784
	-52.32181	-16.04709
	-52.32113	-16.04645
	-52.32092	-16.04543
	-52.32113	-16.04489
	-52.3219	-16.04353
	-52.32393	-16.04023
	-52.32423	-16.03885
	-52.32354	-16.03653
	-52.32176	-16.03425
	-52.3213	-16.03276
	-52.31983	-16.0305
	-52.31622	-16.02796
	-52.3155	-16.02666
	-52.315	-16.02209
	-52.31366	-16.01624
	-52.31334	-16.01197
	-52.31191	-16.00975
	-52.311	-16.00745
	-52.30947	-16.00555
	-52.30353	-16.00126
	-52.29872	-15.99728
	-52.29546	-15.99319
	-52.29419	-15.99105
	-52.29352	-15.98928
	-52.28929	-15.98199
	-52.28895	-15.97914
	-52.28999	-15.9752
	-52.29048	-15.97196
	-52.29071	-15.96802
	-52.29038	-15.9658
	-52.28964	-15.96467
	-52.28894	-15.9638
	-52.28797	-15.96338
	-52.28679	-15.96303
	-52.2858	-15.9625
	-52.28507	-15.96168
	-52.28434	-15.96071
	-52.28353	-15.9598
	-52.28222	-15.9584
	-52.28003	-15.95672
	-52.27823	-15.95553
	-52.27664	-15.95405
	-52.27524	-15.9531
	-52.27295	-15.95163
	-52.27012	-15.95014
	-52.26685	-15.94777
	-52.26565	-15.94652
	-52.26512	-15.94557
	-52.26492	-15.94462
	-52.26492	-15.94392
	-52.26497	-15.94342
	-52.26531	-15.94298
	-52.26561	-15.94242
	-52.26585	-15.94097
	-52.26552	-15.93977
	-52.26529	-15.93848
	-52.26497	-15.93744
	-52.26473	-15.93647
	-52.26424	-15.93577
	-52.26359	-15.93513
	-52.2616	-15.93455
	-52.26068	-15.93418
	-52.25956	-15.93362
	-52.25827	-15.93267
	-52.25731	-15.93166
	-52.25681	-15.93094
	-52.25656	-15.9299
	-52.25636	-15.92864
	-52.25623	-15.92748
	-52.25628	-15.92622
	-52.25623	-15.92433
	-52.25628	-15.92202
	-52.25604	-15.91993
	-52.25598	-15.91902
	-52.25546	-15.9175
	-52.25394	-15.91356
	-52.25301	-15.91091
	-52.25239	-15.90898
	-52.25214	-15.9071
	-52.25209	-15.90582
	-52.25229	-15.90422
	-52.25297	-15.90202
	-52.25359	-15.90044
	-52.25443	-15.89874
	-52.25477	-15.89626
	-52.25477	-15.89516
	-52.25462	-15.89454
	-52.25421	-15.89346
	-52.25336	-15.8927
	-52.25267	-15.89221
	-52.25183	-15.89167
	-52.24879	-15.89058
	-52.24645	-15.89018
	-52.24186	-15.88983
	-52.2399	-15.88979
	-52.23064	-15.89026
	-52.2248	-15.8906
	-52.22137	-15.89117
	-52.21767	-15.89192
	-52.21591	-15.89177
	-52.21414	-15.89123
	-52.21032	-15.89013
	-52.20677	-15.88903
	-52.20437	-15.88705
	-52.20098	-15.88393
	-52.19866	-15.88236
	-52.19594	-15.88127
	-52.19443	-15.88092
	-52.19322	-15.88078
	-52.19218	-15.88077
	-52.19076	-15.88109
	-52.18909	-15.88143
	-52.186	-15.88267
	-52.17879	-15.88696
	-52.17588	-15.88795
	-52.1733	-15.88845
	-52.15622	-15.88837
	-52.15176	-15.8887
	-52.14635	-15.89018
	-52.13978	-15.89228
	-52.13511	-15.89439
	-52.13219	-15.8953
	-52.12961	-15.89571
	-52.12832	-15.89538
	-52.12421	-15.89357
	-52.12112	-15.89159
	-52.11803	-15.88804
	-52.11412	-15.88501
	-52.11085	-15.88286
	-52.10905	-15.88286
	-52.1073	-15.88341
	-52.10498	-15.88482
	-52.10326	-15.88696
	-52.10172	-15.88837
	-52.09991	-15.88936
	-52.09857	-15.88965
	-52.09749	-15.88916
	-52.09686	-15.88847
	-52.0958	-15.88605
	-52.09433	-15.88411
	-52.09313	-15.88308
	-52.09221	-15.88244
	-52.09134	-15.88225
	-52.08996	-15.88199
	-52.08365	-15.88146
	-52.07949	-15.88127
	-52.07429	-15.88129
	-52.0679	-15.88325
	-52.06318	-15.88597
	-52.05794	-15.88771
	-52.05163	-15.88773
	-52.0455	-15.88861
	-52.04228	-15.88707
	-52.03837	-15.88597
	-52.03305	-15.88771
	-52.02825	-15.88828
	-52.02241	-15.88771
	-52.01412	-15.88707
	-52.01103	-15.88658
	-52.0094	-15.88591
	-52.00765	-15.88482
	-52.00653	-15.88234
	-52.0061	-15.88011
	-52.00502	-15.87914
	-52.00417	-15.87848
	-52.00266	-15.87808
	-52.00125	-15.87766
	-51.99751	-15.87425
	-51.99552	-15.87233
	-51.99441	-15.87023
	-51.99245	-15.86327
	-51.99121	-15.85801
	-51.98782	-15.85048
	-51.98689	-15.84878
	-51.98587	-15.84697
	-51.98396	-15.84503
	-51.98086	-15.84264
	-51.97627	-15.83972
	-51.9731	-15.83836
	-51.97049	-15.83773
	-51.96666	-15.8377
	-51.96343	-15.83898
	-51.95872	-15.84007
	-51.95584	-15.83976
	-51.9543	-15.83869
	-51.95306	-15.83537
	-51.95306	-15.83305
	-51.95555	-15.82818
	-51.95672	-15.82425
	-51.95648	-15.8193
	-51.95399	-15.81438
	-51.9505	-15.81076
	-51.948	-15.81
	-51.94369	-15.81
	-51.91623	-15.81217
	-51.9126	-15.8131
	-51.90777	-15.81571
	-51.89338	-15.83018
	-51.89	-15.832
	-51.88602	-15.83169
	-51.88275	-15.82885
	-51.87983	-15.82582
	-51.87855	-15.81126
	-51.87761	-15.80632
	-51.87615	-15.8014
	-51.8738	-15.7984
	-51.86169	-15.79109
	-51.85925	-15.78791
	-51.84881	-15.76781
	-51.83602	-15.74535
	-51.83046	-15.73941
	-51.82522	-15.73291
	-51.82134	-15.73008
	-51.81653	-15.7292
	-51.81025	-15.72776
	-51.8058	-15.72589
	-51.803	-15.723
	-51.80284	-15.72028
	-51.80524	-15.71684
	-51.80573	-15.71383
	-51.80567	-15.71023
	-51.80105	-15.70144
	-51.78505	-15.6783
	-51.77471	-15.66195
	-51.769	-15.656
	-51.75811	-15.63629
	-51.75622	-15.63084
	-51.75382	-15.61293
	-51.7613	-15.59714
	-51.76995	-15.5734
	-51.7786	-15.55861
	-51.77971	-15.55435
	-51.78042	-15.54457
	-51.77827	-15.53843
	-51.77548	-15.53379
	-51.77177	-15.53104
	-51.76384	-15.52966
	-51.76026	-15.5311
	-51.75772	-15.53411
	-51.75629	-15.53737
	-51.75609	-15.54188
	-51.75766	-15.55209
	-51.75609	-15.55635
	-51.7533	-15.55898
	-51.74588	-15.56124
	-51.74009	-15.56005
	-51.73542	-15.55677
	-51.73344	-15.55429
	-51.72659	-15.54875
	-51.72493	-15.54423
	-51.72558	-15.54171
	-51.7282	-15.53838
	-51.73395	-15.53329
	-51.7357	-15.53063
	-51.73726	-15.52584
	-51.73786	-15.51791
	-51.73726	-15.51299
	-51.73583	-15.50923
	-51.73248	-15.50431
	-51.72778	-15.50094
	-51.72052	-15.49961
	-51.71205	-15.49934
	-51.70723	-15.49823
	-51.704	-15.496
	-51.70046	-15.49061
	-51.69872	-15.48582
	-51.69886	-15.48208
	-51.69997	-15.47293
	-51.70579	-15.4658
	-51.70777	-15.46105
	-51.708	-15.456
	-51.70475	-15.44739
	-51.70329	-15.44344
	-51.69699	-15.43996
	-51.69427	-15.4375
	-51.692	-15.433
	-51.69103	-15.42947
	-51.691	-15.426
	-51.69263	-15.42289
	-51.69721	-15.41619
	-51.6978	-15.41411
	-51.697	-15.41
	-51.69321	-15.4001
	-51.68505	-15.3882
	-51.67336	-15.38085
	-51.6714	-15.37579
	-51.671	-15.371
	-51.6724	-15.35849
	-51.67712	-15.34757
	-51.68201	-15.34286
	-51.68916	-15.33667
	-51.69181	-15.32938
	-51.69146	-15.3227
	-51.68939	-15.31603
	-51.68731	-15.31195
	-51.685	-15.30334
	-51.68477	-15.30006
	-51.68344	-15.29478
	-51.67817	-15.28822
	-51.66158	-15.279
	-51.64686	-15.26839
	-51.64567	-15.26323
	-51.64579	-15.25944
	-51.64734	-15.25544
	-51.65097	-15.25327
	-51.65674	-15.25299
	-51.665	-15.25561
	-51.66816	-15.25516
	-51.67087	-15.25377
	-51.67231	-15.25082
	-51.6725	-15.24772
	-51.66914	-15.23402
	-51.66142	-15.2215
	-51.6587	-15.21521
	-51.65108	-15.20617
	-51.64936	-15.20035
	-51.64947	-15.19472
	-51.65017	-15.19066
	-51.65177	-15.17928
	-51.6512	-15.17697
	-51.64976	-15.1743
	-51.64653	-15.17246
	-51.64082	-15.1709
	-51.62412	-15.16422
	-51.60527	-15.16166
	-51.59655	-15.15608
	-51.59074	-15.14744
	-51.588	-15.138
	-51.58366	-15.13003
	-51.57174	-15.11463
	-51.56142	-15.10824
	-51.55068	-15.1042
	-51.54806	-15.1012
	-51.54003	-15.08931
	-51.53723	-15.07384
	-51.53505	-15.0672
	-51.53085	-15.06288
	-51.522	-15.058
	-51.51255	-15.05693
	-51.49547	-15.05671
	-51.4866	-15.05188
	-51.47879	-15.05028
	-51.47017	-15.05095
	-51.45764	-15.04555
	-51.44964	-15.03888
	-51.44134	-15.03147
	-51.43514	-15.01844
	-51.427	-15.008
	-51.4198	-15.00541
	-51.398	-15.003
	-51.38856	-15.00416
	-51.38129	-15.00413
	-51.37341	-15.00864
	-51.3697	-15.00967
	-51.36579	-15.00934
	-51.36231	-15.00688
	-51.35816	-15.00132
	-51.34771	-14.9895
	-51.34349	-14.984
	-51.33932	-14.98107
	-51.338	-14.97834
	-51.337	-14.973
	-51.33327	-14.97053
	-51.32831	-14.96959
	-51.323	-14.971
	-51.31414	-14.9783
	-51.30637	-14.98177
	-51.30218	-14.98728
	-51.30076	-14.99448
	-51.29919	-15.00296
	-51.30048	-15.0142
	-51.30043	-15.01713
	-51.29869	-15.02189
	-51.29436	-15.03121
	-51.29	-15.034
	-51.28489	-15.03792
	-51.2796	-15.03903
	-51.271	-15.037
	-51.26148	-15.03499
	-51.25173	-15.03366
	-51.2434	-15.03112
	-51.2388	-15.02864
	-51.22786	-15.02766
	-51.21967	-15.02406
	-51.21498	-15.01962
	-51.21093	-15.01189
	-51.2015	-15.00407
	-51.1567	-14.98497
	-51.14792	-14.9755
	-51.14672	-14.97084
	-51.14787	-14.96302
	-51.14815	-14.95986
	-51.15095	-14.9544
	-51.14953	-14.94862
	-51.14603	-14.94453
	-51.13969	-14.94151
	-51.1338	-14.9404
	-51.128	-14.93911
	-51.11761	-14.93387
	-51.11126	-14.92769
	-51.10432	-14.9252
	-51.09066	-14.92427
	-51.0869	-14.92108
	-51.084	-14.916
	-51.08324	-14.91081
	-51.08397	-14.90512
	-51.08632	-14.89988
	-51.08995	-14.89672
	-51.09184	-14.89339
	-51.0917	-14.88699
	-51.09248	-14.88072
	-51.09234	-14.86547
	-51.09225	-14.85756
	-51.09	-14.848
	-51.089	-14.84
	-51.08365	-14.83044
	-51.07799	-14.81928
	-51.06856	-14.80883
	-51.05941	-14.80278
	-51.05127	-14.80007
	-51.04465	-14.79447
	-51.04248	-14.78986
	-51.042	-14.784
	-51.04469	-14.77497
	-51.05357	-14.76434
	-51.05651	-14.75824
	-51.05715	-14.75099
	-51.0549	-14.74584
	-51.05228	-14.73823
	-51.049	-14.735
	-51.03931	-14.72293
	-51.036	-14.717
	-51.03222	-14.7086
	-51.02887	-14.70349
	-51.026	-14.697
	-51.02753	-14.68654
	-51.031	-14.68
	-51.03177	-14.67528
	-51.02868	-14.6658
	-51.02556	-14.66336
	-51.019	-14.661
	-51.01512	-14.65704
	-51.01268	-14.65308
	-51.01052	-14.64587
	-51.00293	-14.6339
	-50.99883	-14.6262
	-50.99451	-14.61788
	-50.99244	-14.60964
	-50.99189	-14.59941
	-50.9975	-14.58263
	-50.99755	-14.57777
	-50.99557	-14.57145
	-50.98844	-14.56433
	-50.9723	-14.53787
	-50.962	-14.527
	-50.96112	-14.52407
	-50.96213	-14.5186
	-50.97046	-14.51343
	-50.97368	-14.50733
	-50.97474	-14.50266
	-50.97363	-14.49802
	-50.968	-14.482
	-50.96848	-14.47705
	-50.97138	-14.47099
	-50.975	-14.467
	-50.98301	-14.46186
	-50.987	-14.457
	-50.98932	-14.45064
	-50.98895	-14.44458
	-50.98541	-14.44057
	-50.98444	-14.43568
	-50.98531	-14.43042
	-50.98761	-14.42628
	-50.99589	-14.41968
	-50.99824	-14.41603
	-50.99819	-14.41384
	-50.99729	-14.41197
	-50.99515	-14.404
	-50.99299	-14.39896
	-50.99142	-14.39224
	-50.98922	-14.38756
	-50.98683	-14.38551
	-50.98558	-14.37744
	-50.98494	-14.37196
	-50.98692	-14.36359
	-50.9877	-14.3598
	-50.98503	-14.35624
	-50.98144	-14.35245
	-50.9745	-14.3426
	-50.96719	-14.33275
	-50.96571	-14.32651
	-50.9665	-14.32028
	-50.97045	-14.31422
	-50.97652	-14.30535
	-50.9791	-14.30031
	-50.9785	-14.29416
	-50.975	-14.29
	-50.97004	-14.28034
	-50.96052	-14.24967
	-50.95826	-14.23737
	-50.95527	-14.23345
	-50.94451	-14.22409
	-50.93913	-14.21682
	-50.937	-14.21
	-50.92687	-14.18468
	-50.91357	-14.16932
	-50.91	-14.149
	-50.91145	-14.14258
	-50.91568	-14.13504
	-50.92066	-14.12685
	-50.92121	-14.12347
	-50.91978	-14.11776
	-50.91825	-14.11426
	-50.91298	-14.11205
	-50.90866	-14.11089
	-50.90319	-14.11164
	-50.89945	-14.11297
	-50.8991	-14.11726
	-50.89815	-14.12404
	-50.89565	-14.12782
	-50.89233	-14.13094
	-50.88628	-14.13094
	-50.88163	-14.12839
	-50.87789	-14.12596
	-50.86914	-14.12656
	-50.86553	-14.12561
	-50.86088	-14.12199
	-50.85724	-14.12051
	-50.84787	-14.11306
	-50.84267	-14.10474
	-50.833	-14.089
	-50.831	-14.072
	-50.83726	-14.06496
	-50.84126	-14.05006
	-50.8538	-14.02818
	-50.85313	-14.01688
	-50.8485	-14.00724
	-50.849	-14.0
	-50.85731	-13.99014
	-50.863	-13.985
	-50.865	-13.975
	-50.8677	-13.96663
	-50.862	-13.956
	-50.845	-13.941
	-50.841	-13.927
	-50.83995	-13.91446
	-50.845	-13.903
	-50.841	-13.891
	-50.841	-13.86
	-50.856	-13.831
	-50.853	-13.811
	-50.857	-13.791
	-50.853	-13.765
	-50.87	-13.739
	-50.871	-13.733
	-50.865	-13.723
	-50.856	-13.715
	-50.834	-13.711
	-50.823	-13.713
	-50.804	-13.691
	-50.80261	-13.68381
	-50.787	-13.648
	-50.781	-13.619
	-50.768	-13.597
	-50.763	-13.53
	-50.745	-13.507
	-50.715	-13.491
	-50.697	-13.476
	-50.684	-13.444
	-50.665	-13.442
	-50.663	-13.419
	-50.66725	-13.40951
	-50.669	-13.399
	-50.665	-13.376
	-50.646	-13.361
	-50.64072	-13.35248
	-50.63662	-13.34549
	-50.624	-13.334
	-50.612	-13.316
	-50.60719	-13.30725
	-50.60537	-13.27729
	-50.59548	-13.26545
	-50.59002	-13.24722
	-50.58446	-13.21799
	-50.586	-13.212
	-50.59337	-13.20406
	-50.603	-13.196
	-50.60468	-13.18721
	-50.60332	-13.17898
	-50.594	-13.169
	-50.59369	-13.16036
	-50.59759	-13.152
	-50.599	-13.143
	-50.59805	-13.13331
	-50.5933	-13.12254
	-50.59148	-13.11216
	-50.59506	-13.09587
	-50.601	-13.089
	-50.60521	-13.08517
	-50.60729	-13.07313
	-50.611	-13.064
	-50.60852	-13.05691
	-50.6039	-13.05361
	-50.59812	-13.05178
	-50.58816	-13.0533
	-50.576	-13.051
	-50.5708	-13.04506
	-50.569	-13.039
	-50.572	-13.032
	-50.587	-13.024
	-50.5933	-13.0085
	-50.593	-13.002
	-50.58582	-12.99747
	-50.578	-12.997
	-50.565	-13.003
	-50.556	-13.002
	-50.54146	-12.986
	-50.53795	-12.97934
	-50.525	-12.976
	-50.52475	-12.96305
	-50.52728	-12.93776
	-50.51505	-12.91722
	-50.51245	-12.90574
	-50.51286	-12.89886
	-50.51219	-12.89224
	-50.51045	-12.88786
	-50.50742	-12.88352
	-50.5018	-12.88108
	-50.49822	-12.87708
	-50.49829	-12.87169
	-50.50063	-12.86672
	-50.5044	-12.86412
	-50.51068	-12.86145
	-50.495	-12.842
	-50.491	-12.828
	-50.494	-12.819
	-50.491	-12.814
	-50.484	-12.812
	-50.493	-12.785
	-50.484	-12.776
	-50.475	-12.772
	-50.477	-12.76
	-50.468	-12.755
	-50.471	-12.752
	-50.483	-12.752
	-50.486	-12.748
	-50.482	-12.739
	-50.468	-12.736
	-50.466	-12.731
	-50.468	-12.721
	-50.478	-12.716
	-50.478	-12.71
	-50.464	-12.703
	-50.461	-12.694
	-50.439	-12.698
	-50.432	-12.69
	-50.436	-12.678
	-50.432	-12.669
	-50.437	-12.661
	-50.427	-12.653
	-50.432	-12.65
	-50.438	-12.658
	-50.44	-12.653
	-50.427	-12.642
	-50.418	-12.651
	-50.413	-12.65
	-50.411	-12.646
	-50.418	-12.624
	-50.407	-12.614
	-50.392	-12.613
	-50.391	-12.606
	-50.398	-12.602
	-50.387	-12.59
	-50.382	-12.577
	-50.37	-12.575
	-50.366	-12.571
	-50.369	-12.56
	-50.366	-12.554
	-50.358	-12.553
	-50.366	-12.548
	-50.359	-12.541
	-50.346	-12.543
	-50.346	-12.533
	-50.331	-12.535
	-50.334	-12.52
	-50.33	-12.515
	-50.314	-12.521
	-50.312	-12.516
	-50.318	-12.509
	-50.325	-12.508
	-50.307	-12.494
	-50.289	-12.488
	-50.281	-12.479
	-50.274	-12.481
	-50.263	-12.478
	-50.253	-12.462
	-50.23	-12.455
	-50.222	-12.446
	-50.207	-12.448
	-50.208	-12.442
	-50.215	-12.441
	-50.212	-12.437
	-50.198	-12.432
	-50.184	-12.431
	-50.187	-12.423
	-50.198	-12.419
	-50.196	-12.413
	-50.189	-12.413
	-50.188	-12.42
	-50.185	-12.423
	-50.175	-12.423
	-50.171	-12.42
	-50.172	-12.408
	-50.1469	-12.39829
	-50.158	-12.412
	-50.159	-12.431
	-50.164	-12.437
	-50.179	-12.439
	-50.184	-12.455
	-50.196	-12.458
	-50.205	-12.465
	-50.205	-12.477
	-50.214	-12.482
	-50.217	-12.488
	-50.219	-12.517
	-50.229	-12.533
	-50.223	-12.543
	-50.213	-12.548
	-50.212	-12.561
	-50.206	-12.562
	-50.206	-12.554
	-50.203	-12.553
	-50.197	-12.555
	-50.193	-12.564
	-50.204	-12.564
	-50.208	-12.573
	-50.227	-12.586
	-50.231	-12.585
	-50.235	-12.577
	-50.238	-12.579
	-50.245	-12.597
	-50.237	-12.624
	-50.248	-12.631
	-50.255	-12.625
	-50.257	-12.635
	-50.262	-12.637
	-50.259	-12.645
	-50.269	-12.654
	-50.264	-12.663
	-50.27	-12.677
	-50.266	-12.682
	-50.272	-12.683
	-50.278	-12.678
	-50.281	-12.689
	-50.286	-12.682
	-50.29	-12.683
	-50.292	-12.688
	-50.29411	-12.68756
	-50.29542	-12.68427
	-50.295	-12.676
	-50.3	-12.682
	-50.29656	-12.69101
	-50.2961	-12.69277
	-50.29613	-12.69436
	-50.29336	-12.6952
	-50.295	-12.705
	-50.299	-12.706
	-50.297	-12.711
	-50.284	-12.718
	-50.288	-12.735
	-50.298	-12.739
	-50.296	-12.742
	-50.302	-12.745
	-50.295	-12.753
	-50.306	-12.767
	-50.304	-12.786
	-50.309	-12.789
	-50.311	-12.798
	-50.305	-12.805
	-50.307	-12.819
	-50.304	-12.822
	-50.301	-12.82
	-50.302	-12.824
	-50.295	-12.829
	-50.292	-12.839
	-50.287	-12.837
	-50.284	-12.843
	-50.283	-12.84
	-50.275	-12.844
	-50.271	-12.841
	-50.262	-12.844
	-50.263	-12.847
	-50.251	-12.849
	-50.25	-12.853
	-50.242	-12.852
	-50.236	-12.857
	-50.231	-12.854
	-50.231	-12.858
	-50.225	-12.861
	-50.225	-12.874
	-50.213	-12.878
	-50.211	-12.876
	-50.204	-12.885
	-50.2	-12.884
	-50.195	-12.89
	-50.183	-12.896
	-50.181	-12.892
	-50.176	-12.892
	-50.173	-12.897
	-50.16	-12.893
	-50.149	-12.903
	-50.127	-12.905
	-50.109	-12.911
	-50.103	-12.908
	-50.078	-12.906
	-50.071	-12.918
	-50.05	-12.922
	-50.044	-12.933
	-50.038	-12.935
	-50.018	-12.929
	-50.003	-12.933
	-49.989	-12.946
	-49.979	-12.939
	-49.952	-12.959
	-49.939	-12.956
	-49.911	-12.966
	-49.909	-12.974
	-49.897	-12.98
	-49.797	-13.036
	-49.608	-13.143
	-49.529	-13.187
	-49.431	-13.241
	-49.369	-13.274
	-49.34	-13.253
	-49.339	-13.234
	-49.348	-13.213
	-49.344	-13.203
	-49.348	-13.189
	-49.344	-13.177
	-49.354	-13.153
	-49.352	-13.144
	-49.342	-13.127
	-49.344	-13.117
	-49.354	-13.11
	-49.354	-13.103
	-49.337	-13.066
	-49.322	-13.052
	-49.3	-13.023
	-49.283	-12.991
	-49.278	-12.989
	-49.275	-12.98
	-49.279	-12.976
	-49.279	-12.969
	-49.267	-12.944
	-49.263	-12.94
	-49.257	-12.941
	-49.257	-12.935
	-49.252	-12.931
	-49.246	-12.916
	-49.249	-12.902
	-49.235	-12.893
	-49.237	-12.884
	-49.231	-12.883
	-49.228	-12.877
	-49.222	-12.876
	-49.211	-12.878
	-49.208	-12.873
	-49.196	-12.867
	-49.193	-12.857
	-49.161	-12.834
	-49.151	-12.821
	-49.145	-12.82
	-49.141	-12.81
	-49.136	-12.8
	-49.121	-12.79
	-49.106	-12.836
	-49.096	-12.836
	-49.083	-12.845
	-49.067	-12.847
	-49.072	-12.852
	-49.07	-12.859
	-49.073	-12.869
	-49.085	-12.879
	-49.08	-12.884
	-49.087	-12.888
	-49.087	-12.891
	-49.082	-12.892
	-49.085	-12.894
	-49.077	-12.904
	-49.053	-12.908
	-49.05	-12.913
	-49.033	-12.903
	-49.023	-12.907
	-49.02	-12.912
	-49.009	-12.916
	-49.004	-12.932
	-48.98	-12.948
	-48.975	-12.957
	-48.879	-12.817
	-48.875	-12.814
	-48.868	-12.815
	-48.874	-12.807
	-48.869	-12.804
	-48.862	-12.805
	-48.862	-12.809
	-48.857	-12.805
	-48.846	-12.809
	-48.847	-12.818
	-48.842	-12.83
	-48.845	-12.84
	-48.842	-12.844
	-48.831	-12.844
	-48.831	-12.841
	-48.825	-12.845
	-48.82	-12.844
	-48.818	-12.853
	-48.811	-12.86
	-48.814	-12.864
	-48.805	-12.866
	-48.806	-12.87
	-48.799	-12.873
	-48.8	-12.876
	-48.794	-12.876
	-48.791	-12.884
	-48.786	-12.885
	-48.786	-12.88
	-48.771	-12.894
	-48.762	-12.905
	-48.754	-12.908
	-48.748	-12.917
	-48.736	-12.921
	-48.733	-12.93
	-48.739	-12.946
	-48.737	-12.949
	-48.73	-12.961
	-48.734	-12.975
	-48.73	-12.989
	-48.725	-12.991
	-48.717	-13.002
	-48.712	-12.999
	-48.708	-13.005
	-48.701	-12.998
	-48.693	-12.997
	-48.69	-13.003
	-48.686	-13.002
	-48.683	-12.993
	-48.675	-12.994
	-48.668	-13.003
	-48.664	-13.001
	-48.657	-13.005
	-48.656	-13.012
	-48.647	-13.01
	-48.64	-13.014
	-48.636	-13.021
	-48.639	-13.026
	-48.637	-13.034
	-48.627	-13.052
	-48.619	-13.052
	-48.61	-13.06
	-48.604	-13.058
	-48.601	-13.06
	-48.602	-13.078
	-48.596	-13.078
	-48.596	-13.088
	-48.588	-13.099
	-48.594	-13.101
	-48.596	-13.107
	-48.585	-13.106
	-48.581	-13.114
	-48.582	-13.118
	-48.577	-13.123
	-48.578	-13.127
	-48.581	-13.128
	-48.582	-13.141
	-48.589	-13.145
	-48.59	-13.15
	-48.596	-13.152
	-48.592	-13.158
	-48.586	-13.159
	-48.587	-13.167
	-48.578	-13.172
	-48.583	-13.18
	-48.577	-13.187
	-48.58	-13.191
	-48.579	-13.207
	-48.583	-13.21
	-48.583	-13.222
	-48.593	-13.235
	-48.6	-13.238
	-48.597	-13.246
	-48.587	-13.254
	-48.591	-13.256
	-48.589	-13.263
	-48.598	-13.284
	-48.6	-13.292
	-48.597	-13.302
	-48.589	-13.308
	-48.586	-13.317
	-48.578	-13.314
	-48.567	-13.311
	-48.553	-13.302
	-48.553	-13.28
	-48.559	-13.274
	-48.555	-13.263
	-48.555	-13.238
	-48.549	-13.23
	-48.553	-13.225
	-48.554	-13.205
	-48.547	-13.195
	-48.53	-13.192
	-48.53	-13.184
	-48.521	-13.166
	-48.522	-13.141
	-48.508	-13.128
	-48.506	-13.133
	-48.495	-13.136
	-48.488	-13.142
	-48.48	-13.141
	-48.479	-13.133
	-48.475	-13.134
	-48.469	-13.149
	-48.468	-13.162
	-48.472	-13.166
	-48.472	-13.173
	-48.477	-13.178
	-48.475	-13.191
	-48.477	-13.197
	-48.472	-13.202
	-48.471	-13.211
	-48.475	-13.216
	-48.472	-13.223
	-48.475	-13.235
	-48.47	-13.236
	-48.468	-13.244
	-48.457	-13.248
	-48.46	-13.249
	-48.461	-13.258
	-48.456	-13.259
	-48.461	-13.263
	-48.461	-13.274
	-48.457	-13.282
	-48.446	-13.283
	-48.441	-13.292
	-48.435	-13.288
	-48.436	-13.284
	-48.43	-13.28
	-48.432	-13.275
	-48.429	-13.271
	-48.416	-13.274
	-48.407	-13.267
	-48.401	-13.27
	-48.3916	-13.26812
	-48.3917	-13.26724
	-48.39169	-13.26672
	-48.39156	-13.26597
	-48.39151	-13.2647
	-48.39146	-13.26414
	-48.39139	-13.26361
	-48.39125	-13.26295
	-48.39112	-13.26257
	-48.39091	-13.26211
	-48.39058	-13.2616
	-48.39022	-13.26119
	-48.38962	-13.26074
	-48.38916	-13.26051
	-48.38847	-13.2603
	-48.38799	-13.26025
	-48.38579	-13.26203
	-48.3867	-13.26316
	-48.385	-13.266
	-48.379	-13.255
	-48.374	-13.255
	-48.371	-13.249
	-48.358	-13.243
	-48.35	-13.241
	-48.342	-13.249
	-48.336	-13.247
	-48.343	-13.241
	-48.34	-13.236
	-48.342	-13.228
	-48.328	-13.232
	-48.317	-13.23
	-48.316	-13.234
	-48.306	-13.234
	-48.31	-13.232
	-48.306	-13.228
	-48.309	-13.226
	-48.292	-13.219
	-48.293	-13.215
	-48.288	-13.215
	-48.287	-13.204
	-48.285	-13.205
	-48.28	-13.199
	-48.276	-13.199
	-48.28	-13.206
	-48.268	-13.202
	-48.265	-13.205
	-48.262	-13.197
	-48.25	-13.197
	-48.247	-13.192
	-48.242	-13.187
	-48.245	-13.184
	-48.238	-13.18
	-48.231	-13.168
	-48.225	-13.173
	-48.216	-13.168
	-48.211	-13.174
	-48.193	-13.172
	-48.196	-13.163
	-48.186	-13.156
	-48.19	-13.154
	-48.183	-13.155
	-48.173	-13.148
	-48.165	-13.157
	-48.162	-13.154
	-48.158	-13.157
	-48.146	-13.152
	-48.145	-13.154
	-48.155	-13.166
	-48.155	-13.174
	-48.163	-13.183
	-48.165	-13.197
	-48.162	-13.207
	-48.153	-13.219
	-48.168	-13.24
	-48.168	-13.243
	-48.156	-13.25
	-48.153	-13.279
	-48.169	-13.299
	-48.165	-13.305
	-48.16	-13.302
	-48.157	-13.31
	-48.156	-13.303
	-48.15	-13.307
	-48.121	-13.297
	-48.118	-13.29
	-48.113	-13.292
	-48.106	-13.287
	-48.097	-13.291
	-48.093	-13.286
	-48.083	-13.288
	-48.078	-13.282
	-48.08	-13.279
	-48.078	-13.277
	-48.077	-13.266
	-48.072	-13.267
	-48.079	-13.243
	-48.076	-13.238
	-48.071	-13.24
	-48.062	-13.235
	-48.058	-13.24
	-48.055	-13.239
	-48.056	-13.248
	-48.051	-13.251
	-48.052	-13.255
	-48.033	-13.254
	-48.029	-13.264
	-48.034	-13.265
	-48.032	-13.274
	-48.029	-13.271
	-48.022	-13.279
	-47.999	-13.274
	-47.986	-13.276
	-47.978	-13.294
	-47.972	-13.3
	-47.971	-13.311
	-47.966	-13.315
	-47.956	-13.308
	-47.951	-13.31
	-47.948	-13.305
	-47.943	-13.307
	-47.935	-13.29
	-47.929	-13.294
	-47.924	-13.291
	-47.92	-13.298
	-47.908	-13.299
	-47.903	-13.302
	-47.902	-13.311
	-47.893	-13.307
	-47.888	-13.318
	-47.883	-13.32
	-47.87	-13.319
	-47.866	-13.315
	-47.861	-13.314
	-47.844	-13.318
	-47.824	-13.311
	-47.817	-13.317
	-47.815	-13.318
	-47.801	-13.328
	-47.8	-13.333
	-47.77	-13.366
	-47.679	-13.467
	-47.675	-13.449
	-47.667	-13.436
	-47.662	-13.433
	-47.656	-13.427
	-47.654	-13.415
	-47.643	-13.403
	-47.638	-13.391
	-47.633	-13.39
	-47.627	-13.384
	-47.622	-13.367
	-47.637	-13.364
	-47.65	-13.351
	-47.649	-13.342
	-47.656	-13.322
	-47.654	-13.315
	-47.662	-13.303
	-47.657	-13.299
	-47.659	-13.295
	-47.656	-13.276
	-47.649	-13.274
	-47.64	-13.263
	-47.648	-13.25
	-47.646	-13.242
	-47.657	-13.234
	-47.653	-13.229
	-47.654	-13.22
	-47.666	-13.218
	-47.665	-13.214
	-47.668	-13.209
	-47.661	-13.207
	-47.665	-13.203
	-47.66	-13.198
	-47.665	-13.196
	-47.657	-13.192
	-47.655	-13.177
	-47.67	-13.168
	-47.659	-13.159
	-47.654	-13.158
	-47.651	-13.15
	-47.644	-13.149
	-47.643	-13.145
	-47.649	-13.139
	-47.645	-13.138
	-47.65	-13.133
	-47.645	-13.128
	-47.646	-13.12
	-47.636	-13.114
	-47.634	-13.103
	-47.627	-13.11
	-47.618	-13.104
	-47.592	-13.116
	-47.571	-13.116
	-47.561	-13.124
	-47.568	-13.149
	-47.563	-13.184
	-47.541	-13.192
	-47.533	-13.183
	-47.523	-13.182
	-47.509	-13.189
	-47.484	-13.182
	-47.478	-13.187
	-47.487	-13.208
	-47.485	-13.222
	-47.461	-13.227
	-47.443	-13.222
	-47.435	-13.227
	-47.431	-13.238
	-47.448	-13.24
	-47.455	-13.249
	-47.434	-13.268
	-47.437	-13.279
	-47.432	-13.288
	-47.425	-13.289
	-47.416	-13.27
	-47.397	-13.261
	-47.392	-13.262
	-47.393	-13.245
	-47.388	-13.24
	-47.383	-13.241
	-47.379	-13.231
	-47.371	-13.228
	-47.368	-13.236
	-47.352	-13.248
	-47.337	-13.246
	-47.323	-13.258
	-47.309	-13.249
	-47.294	-13.248
	-47.293	-13.256
	-47.285	-13.256
	-47.289	-13.262
	-47.282	-13.264
	-47.275	-13.25
	-47.267	-13.248
	-47.267	-13.238
	-47.252	-13.235
	-47.248	-13.23
	-47.251	-13.212
	-47.232	-13.204
	-47.232	-13.199
	-47.225	-13.193
	-47.217	-13.196
	-47.211	-13.192
	-47.196	-13.193
	-47.182	-13.188
	-47.175	-13.195
	-47.184	-13.203
	-47.183	-13.205
	-47.172	-13.206
	-47.167	-13.211
	-47.162	-13.205
	-47.153	-13.209
	-47.135	-13.203
	-47.133	-13.189
	-47.14	-13.187
	-47.132	-13.178
	-47.118	-13.177
	-47.109	-13.171
	-47.108	-13.181
	-47.105	-13.181
	-47.102	-13.174
	-47.097	-13.171
	-47.09	-13.174
	-47.087	-13.182
	-47.08	-13.178
	-47.084	-13.17
	-47.08	-13.166
	-47.08	-13.162
	-47.077	-13.161
	-47.072	-13.16
	-47.069	-13.155
	-47.062	-13.161
	-47.051	-13.155
	-47.047	-13.157
	-47.041	-13.148
	-47.035	-13.15
	-47.035	-13.148
	-47.022	-13.142
	-47.019	-13.145
	-47.009	-13.14
	-47.005	-13.132
	-47.005	-13.125
	-47.001	-13.121
	-46.992	-13.124
	-46.987	-13.121
	-46.988	-13.128
	-46.978	-13.131
	-46.978	-13.121
	-46.963	-13.112
	-46.954	-13.111
	-46.946	-13.099
	-46.929	-13.092
	-46.928	-13.083
	-46.91	-13.069
	-46.902	-13.067
	-46.892	-13.053
	-46.879	-13.048
	-46.88	-13.059
	-46.876	-13.062
	-46.871	-13.06
	-46.871	-13.063
	-46.868	-13.068
	-46.854	-13.067
	-46.855	-13.055
	-46.848	-13.05
	-46.847	-13.053
	-46.844	-13.049
	-46.847	-13.045
	-46.84	-13.034
	-46.834	-13.033
	-46.829	-13.018
	-46.818	-13.014
	-46.823	-13.008
	-46.819	-13.002
	-46.75	-12.969
	-46.707	-12.969
	-46.636	-12.97
	-46.55	-12.97
	-46.454	-12.971
	-46.446	-12.936
	-46.437	-12.935
	-46.432	-12.93
	-46.417	-12.823
	-46.411	-12.828
	-46.411	-12.84
	-46.406	-12.838
	-46.408	-12.845
	-46.397	-12.851
	-46.383	-12.849
	-46.376	-12.853
	-46.376	-12.85
	-46.374	-12.859
	-46.366	-12.864
	-46.369	-12.877
	-46.364	-12.882
	-46.367	-12.887
	-46.362	-12.89
	-46.368	-12.903
	-46.36	-12.908
	-46.365	-12.913
	-46.364	-12.931
	-46.366	-12.939
	-46.372	-12.944
	-46.371	-12.958
	-46.377	-12.963
	-46.368	-12.972
	-46.373	-12.984
	-46.364	-12.991
	-46.338	-12.982
	-46.335	-12.983
	-46.334	-12.98
	-46.311	-12.98
	-46.29	-12.972
	-46.287	-12.974
	-46.28	-12.968
	-46.277	-12.971
	-46.223	-12.957
	-46.194	-12.956
	-46.187	-12.949
	-46.179	-12.947
	-46.177	-12.939
	-46.161	-12.934
	-46.149	-12.937
	-46.1332	-12.92917
	-46.12729	-12.92784
	-46.12301	-12.92604
	-46.1216	-12.92593
	-46.12	-12.925
	-46.11718	-12.92185
	-46.11452	-12.91725
	-46.11222	-12.9215
	-46.11185	-12.92599
	-46.113	-12.933
	-46.11489	-12.9367
	-46.11921	-12.94193
	-46.122	-12.947
	-46.12245	-12.95017
	-46.12181	-12.95289
	-46.122	-12.957
	-46.125	-12.961
	-46.138	-12.965
	-46.14857	-12.97079
	-46.154	-12.976
	-46.15563	-12.97654
	-46.15908	-12.97637
	-46.16327	-12.97562
	-46.166	-12.976
	-46.16846	-12.97758
	-46.174	-12.983
	-46.191	-12.989
	-46.19399	-12.99157
	-46.197	-12.996
	-46.20013	-12.99699
	-46.208	-12.998
	-46.20989	-12.99937
	-46.21135	-13.00182
	-46.21423	-13.00357
	-46.22	-13.004
	-46.22554	-13.00052
	-46.22804	-12.99817
	-46.232	-12.995
	-46.23554	-12.99554
	-46.24	-12.999
	-46.2421	-12.99887
	-46.245	-12.997
	-46.2497	-12.99981
	-46.253	-13.006
	-46.25893	-13.00792
	-46.26828	-13.01179
	-46.273	-13.015
	-46.27444	-13.01674
	-46.27485	-13.02055
	-46.27437	-13.02393
	-46.275	-13.028
	-46.28002	-13.03163
	-46.281	-13.034
	-46.28053	-13.03531
	-46.279	-13.037
	-46.27933	-13.03913
	-46.28049	-13.04271
	-46.28399	-13.04676
	-46.28738	-13.04996
	-46.291	-13.053
	-46.29165	-13.05416
	-46.29223	-13.05874
	-46.29349	-13.06104
	-46.29607	-13.06366
	-46.29849	-13.06577
	-46.29959	-13.06904
	-46.30053	-13.07271
	-46.30143	-13.07574
	-46.30501	-13.07876
	-46.308	-13.08082
	-46.31045	-13.08505
	-46.31205	-13.08801
	-46.31439	-13.09094
	-46.31738	-13.09242
	-46.3212	-13.09506
	-46.322	-13.098
	-46.32165	-13.10062
	-46.31708	-13.10414
	-46.314	-13.108
	-46.31321	-13.11407
	-46.31184	-13.1179
	-46.30993	-13.12166
	-46.308	-13.124
	-46.30242	-13.12408
	-46.30088	-13.1244
	-46.298	-13.126
	-46.29534	-13.12916
	-46.29302	-13.13468
	-46.29208	-13.13827
	-46.29141	-13.14272
	-46.29193	-13.14609
	-46.29328	-13.15023
	-46.29545	-13.15158
	-46.30072	-13.15307
	-46.30448	-13.15359
	-46.30828	-13.15493
	-46.30944	-13.15764
	-46.30851	-13.16026
	-46.30519	-13.16337
	-46.304	-13.167
	-46.30521	-13.16918
	-46.30811	-13.17202
	-46.31371	-13.17549
	-46.314	-13.178
	-46.31235	-13.18015
	-46.30999	-13.18161
	-46.3056	-13.18115
	-46.303	-13.182
	-46.30163	-13.18503
	-46.30049	-13.19295
	-46.30319	-13.19703
	-46.30289	-13.19968
	-46.304	-13.205
	-46.30864	-13.20799
	-46.312	-13.211
	-46.31167	-13.21441
	-46.31233	-13.21848
	-46.314	-13.225
	-46.32017	-13.23323
	-46.321	-13.239
	-46.32319	-13.24171
	-46.32946	-13.24582
	-46.331	-13.249
	-46.33113	-13.2505
	-46.33	-13.252
	-46.32581	-13.25274
	-46.32165	-13.25167
	-46.316	-13.252
	-46.30804	-13.25175
	-46.302	-13.252
	-46.30017	-13.25303
	-46.298	-13.255
	-46.29843	-13.25821
	-46.3003	-13.26115
	-46.30145	-13.26602
	-46.30045	-13.26992
	-46.29817	-13.27677
	-46.299	-13.281
	-46.30658	-13.28989
	-46.31371	-13.29766
	-46.31592	-13.30148
	-46.31564	-13.30426
	-46.31242	-13.30691
	-46.30847	-13.30822
	-46.30585	-13.3087
	-46.30283	-13.31025
	-46.29864	-13.31324
	-46.2954	-13.31372
	-46.28897	-13.31441
	-46.28751	-13.31664
	-46.28744	-13.32011
	-46.28781	-13.32597
	-46.28575	-13.32984
	-46.28304	-13.33458
	-46.28223	-13.33829
	-46.28199	-13.34124
	-46.28079	-13.34558
	-46.27927	-13.34739
	-46.27676	-13.34648
	-46.27352	-13.34535
	-46.271	-13.345
	-46.26918	-13.34662
	-46.266	-13.348
	-46.26384	-13.34746
	-46.2633	-13.34679
	-46.25543	-13.34226
	-46.24785	-13.33858
	-46.24298	-13.3371
	-46.23901	-13.3366
	-46.23749	-13.33568
	-46.23376	-13.33188
	-46.22891	-13.3266
	-46.22307	-13.3204
	-46.218	-13.317
	-46.21262	-13.31737
	-46.20919	-13.31902
	-46.205	-13.32
	-46.19919	-13.31718
	-46.19496	-13.31562
	-46.19073	-13.31593
	-46.18599	-13.31495
	-46.17962	-13.31385
	-46.172	-13.312
	-46.16582	-13.30873
	-46.15782	-13.30428
	-46.1543	-13.30321
	-46.15213	-13.3019
	-46.14827	-13.29952
	-46.14144	-13.29517
	-46.1385	-13.294
	-46.13419	-13.29265
	-46.129	-13.29
	-46.12439	-13.28365
	-46.122	-13.282
	-46.11612	-13.28337
	-46.112	-13.284
	-46.10979	-13.28091
	-46.10834	-13.27945
	-46.10552	-13.27939
	-46.09838	-13.27673
	-46.09595	-13.27504
	-46.09161	-13.27188
	-46.0893	-13.27051
	-46.08638	-13.27118
	-46.08282	-13.27038
	-46.079	-13.269
	-46.07214	-13.26408
	-46.06697	-13.26209
	-46.063	-13.261
	-46.06044	-13.26297
	-46.05542	-13.2636
	-46.052	-13.264
	-46.05054	-13.2679
	-46.049	-13.271
	-46.04498	-13.27095
	-46.042	-13.272
	-46.04142	-13.27391
	-46.041	-13.277
	-46.041	-13.28
	-46.04118	-13.28381
	-46.04239	-13.28866
	-46.04498	-13.29402
	-46.04573	-13.29814
	-46.04578	-13.30215
	-46.04655	-13.30497
	-46.048	-13.309
	-46.04929	-13.31035
	-46.05322	-13.31326
	-46.05668	-13.31543
	-46.061	-13.318
	-46.06296	-13.31894
	-46.06676	-13.3214
	-46.07112	-13.32303
	-46.07801	-13.32599
	-46.083	-13.33
	-46.08745	-13.33136
	-46.09105	-13.3314
	-46.095	-13.332
	-46.09766	-13.33537
	-46.09894	-13.33908
	-46.10487	-13.34975
	-46.10798	-13.35297
	-46.112	-13.358
	-46.11369	-13.35915
	-46.12124	-13.36251
	-46.12609	-13.36441
	-46.12933	-13.36729
	-46.13098	-13.36957
	-46.134	-13.375
	-46.13646	-13.37646
	-46.13894	-13.37702
	-46.14242	-13.37739
	-46.154	-13.383
	-46.16431	-13.38405
	-46.17	-13.384
	-46.18403	-13.38915
	-46.1913	-13.39071
	-46.19826	-13.39377
	-46.20739	-13.39852
	-46.21409	-13.40075
	-46.21593	-13.40626
	-46.218	-13.41
	-46.22089	-13.41253
	-46.22733	-13.41664
	-46.23251	-13.42123
	-46.24014	-13.42714
	-46.243	-13.43
	-46.24372	-13.43285
	-46.24377	-13.43519
	-46.242	-13.437
	-46.23786	-13.43624
	-46.23203	-13.43444
	-46.22896	-13.43438
	-46.22572	-13.43471
	-46.22452	-13.43634
	-46.22254	-13.44035
	-46.22177	-13.44352
	-46.22252	-13.44673
	-46.222	-13.448
	-46.21902	-13.45011
	-46.2178	-13.45381
	-46.21531	-13.45775
	-46.21079	-13.45953
	-46.20772	-13.46222
	-46.206	-13.465
	-46.20699	-13.46775
	-46.209	-13.472
	-46.21282	-13.47451
	-46.2186	-13.47551
	-46.22501	-13.47655
	-46.22832	-13.47847
	-46.23	-13.481
	-46.22866	-13.48482
	-46.22662	-13.48592
	-46.22207	-13.48621
	-46.22057	-13.48707
	-46.21986	-13.48982
	-46.22151	-13.49371
	-46.222	-13.497
	-46.22104	-13.49869
	-46.2187	-13.5009
	-46.22139	-13.50597
	-46.226	-13.513
	-46.23091	-13.5168
	-46.23583	-13.51974
	-46.23909	-13.52264
	-46.24087	-13.52511
	-46.24087	-13.52917
	-46.2401	-13.53139
	-46.23883	-13.5333
	-46.23662	-13.53633
	-46.2343	-13.54031
	-46.23617	-13.54761
	-46.238	-13.554
	-46.23767	-13.55631
	-46.23619	-13.56036
	-46.23533	-13.56209
	-46.23402	-13.56439
	-46.23289	-13.56608
	-46.23005	-13.56822
	-46.228	-13.569
	-46.22057	-13.56837
	-46.21842	-13.56973
	-46.21561	-13.57217
	-46.21224	-13.57198
	-46.20885	-13.57127
	-46.20491	-13.57031
	-46.20179	-13.56975
	-46.19821	-13.56973
	-46.19519	-13.56916
	-46.19068	-13.56836
	-46.1866	-13.56772
	-46.18416	-13.56762
	-46.18165	-13.56906
	-46.17317	-13.57646
	-46.16936	-13.58021
	-46.16459	-13.58452
	-46.16356	-13.58637
	-46.162	-13.59
	-46.16205	-13.59211
	-46.16291	-13.59344
	-46.16671	-13.59786
	-46.17012	-13.60124
	-46.1727	-13.60456
	-46.17581	-13.60708
	-46.17896	-13.60921
	-46.181	-13.61098
	-46.18748	-13.61713
	-46.193	-13.621
	-46.19941	-13.62454
	-46.20418	-13.62654
	-46.20915	-13.6286
	-46.213	-13.63
	-46.21544	-13.63211
	-46.21639	-13.63355
	-46.21862	-13.63701
	-46.22145	-13.64043
	-46.2243	-13.64376
	-46.22912	-13.64799
	-46.23071	-13.64897
	-46.23423	-13.65132
	-46.23923	-13.65551
	-46.243	-13.659
	-46.24408	-13.66201
	-46.24546	-13.66664
	-46.24755	-13.6697
	-46.25083	-13.67291
	-46.25175	-13.67489
	-46.25253	-13.67831
	-46.25334	-13.68209
	-46.25606	-13.68429
	-46.25819	-13.68529
	-46.26105	-13.68737
	-46.2615	-13.68898
	-46.26056	-13.69031
	-46.25753	-13.69277
	-46.25476	-13.69411
	-46.25058	-13.69555
	-46.24316	-13.69855
	-46.23835	-13.7007
	-46.23638	-13.70364
	-46.23562	-13.70509
	-46.23557	-13.70721
	-46.23539	-13.70814
	-46.23554	-13.70995
	-46.23607	-13.71279
	-46.23709	-13.71562
	-46.2383	-13.71723
	-46.24038	-13.7188
	-46.24308	-13.72014
	-46.25108	-13.72455
	-46.26074	-13.73095
	-46.264	-13.733
	-46.26666	-13.73616
	-46.26645	-13.73853
	-46.2669	-13.74062
	-46.26342	-13.74285
	-46.26115	-13.7449
	-46.25789	-13.74704
	-46.25501	-13.74847
	-46.25063	-13.74793
	-46.24511	-13.74551
	-46.24185	-13.74472
	-46.23719	-13.74507
	-46.23343	-13.74881
	-46.2319	-13.75178
	-46.2293	-13.75576
	-46.22812	-13.75894
	-46.22453	-13.76497
	-46.22372	-13.76715
	-46.22389	-13.77041
	-46.227	-13.774
	-46.22885	-13.77469
	-46.23279	-13.77549
	-46.23985	-13.77753
	-46.25009	-13.78108
	-46.257	-13.78266
	-46.26691	-13.78439
	-46.273	-13.787
	-46.27717	-13.78922
	-46.28095	-13.79308
	-46.282	-13.796
	-46.27869	-13.799
	-46.27453	-13.80069
	-46.27095	-13.80137
	-46.267	-13.80329
	-46.26372	-13.80592
	-46.262	-13.808
	-46.26258	-13.81054
	-46.26356	-13.8119
	-46.26773	-13.81681
	-46.271	-13.821
	-46.27142	-13.8224
	-46.27105	-13.82556
	-46.269	-13.828
	-46.2679	-13.82875
	-46.265	-13.8289
	-46.25769	-13.82838
	-46.25288	-13.82942
	-46.24936	-13.83042
	-46.24498	-13.8329
	-46.24013	-13.8378
	-46.23818	-13.83882
	-46.23539	-13.84109
	-46.23346	-13.84505
	-46.23371	-13.84848
	-46.23513	-13.85298
	-46.23721	-13.8599
	-46.24052	-13.86313
	-46.243	-13.868
	-46.24483	-13.87082
	-46.24762	-13.87775
	-46.24872	-13.87923
	-46.37054	-13.91274
	-46.50238	-14.28035
	-46.8045	-14.72973
	-47.08466	-14.97397
	-47.38678	-15.33452
	-48.14209	-15.45633
	-48.43872	-15.6918
	-48.68317	-16.06429
	-48.95233	-16.08276
	-49.1748	-16.16456
	-49.39728	-16.20149
	-49.5813	-16.29905
	-49.63898	-16.54406
	-49.61975	-16.78351
	-50.11688	-17.11717
	-50.6662	-17.45285
	-51.16333	-17.69636
	-51.63025	-17.81407
	-51.76758	-17.58119
	-52.26746	-17.38209
	-52.49268	-17.28509
	-52.89368	-17.25886
	-53.15624	-17.18967
END
END
