Brazil_Rio Grande do Norte
1
	-38.563	-6.356
	-38.563	-6.352
	-38.577	-6.347
	-38.581	-6.331
	-38.581	-6.316
	-38.566	-6.302
	-38.57	-6.3
	-38.57	-6.293
	-38.571	-6.284
	-38.578	-6.28
	-38.563	-6.268
	-38.554	-6.263
	-38.545	-6.245
	-38.538	-6.246
	-38.529	-6.239
	-38.523	-6.228
	-38.519	-6.223
	-38.529	-6.213
	-38.526	-6.198
	-38.527	-6.193
	-38.512	-6.192
	-38.501	-6.191
	-38.5	-6.179
	-38.473	-6.152
	-38.472	-6.148
	-38.476	-6.144
	-38.473	-6.136
	-38.457	-6.108
	-38.44	-6.096
	-38.447	-6.085
	-38.431	-6.075
	-38.427	-6.069
	-38.413	-6.058
	-38.405	-6.057
	-38.401	-6.053
	-38.395	-6.055
	-38.382	-6.052
	-38.385	-6.064
	-38.378	-6.066
	-38.379	-6.073
	-38.371	-6.084
	-38.365	-6.088
	-38.35	-6.083
	-38.347	-6.08
	-38.346	-6.067
	-38.339	-6.077
	-38.336	-6.08
	-38.32	-6.077
	-38.304	-6.087
	-38.29	-6.073
	-38.277	-6.07
	-38.275	-6.065
	-38.274	-6.063
	-38.27	-6.062
	-38.265	-6.054
	-38.259	-6.053
	-38.26	-6.049
	-38.252	-6.043
	-38.252	-6.01
	-38.244	-5.999
	-38.23	-5.986
	-38.218	-5.977
	-38.206	-5.964
	-38.192	-5.959
	-38.183	-5.95
	-38.175	-5.953
	-38.164	-5.946
	-38.163	-5.939
	-38.165	-5.932
	-38.16	-5.925
	-38.159	-5.924
	-38.146	-5.916
	-38.142	-5.901
	-38.125	-5.887
	-38.116	-5.848
	-38.119	-5.832
	-38.111	-5.818
	-38.10702	-5.813789
	-38.10739	-5.813738
	-38.10699	-5.810937
	-38.10659	-5.810631
	-38.10603	-5.810136
	-38.10564	-5.809839
	-38.10486	-5.809325
	-38.1044	-5.809064
	-38.10401	-5.808868
	-38.10401	-5.808879
	-38.10336	-5.808632
	-38.10327	-5.808616
	-38.10278	-5.808597
	-38.10239	-5.808647
	-38.10219	-5.808691
	-38.09416	-5.800194
	-38.09427	-5.799752
	-38.09434	-5.799342
	-38.09431	-5.798753
	-38.09423	-5.798435
	-38.09383	-5.797283
	-38.0935	-5.79626
	-38.09258	-5.795129
	-38.09249	-5.795081
	-38.09138	-5.794832
	-38.091	-5.794858
	-38.09074	-5.794894
	-38.09042	-5.794958
	-38.09031	-5.795007
	-38.09002	-5.794911
	-38.08989	-5.794889
	-38.08941	-5.794871
	-38.08915	-5.794901
	-38.076	-5.781
	-38.058	-5.754
	-38.047	-5.73
	-38.075	-5.723
	-38.087	-5.73
	-38.09	-5.72
	-38.082	-5.698
	-38.083	-5.672
	-38.079	-5.666
	-38.053	-5.646
	-38.034	-5.637
	-38.014	-5.594
	-37.998	-5.585
	-37.999	-5.575
	-37.997	-5.568
	-37.99	-5.555
	-37.948	-5.534
	-37.932	-5.503
	-37.917	-5.505
	-37.902	-5.5
	-37.902	-5.497
	-37.901	-5.495
	-37.9	-5.491
	-37.892	-5.48
	-37.889	-5.449
	-37.881	-5.436
	-37.871	-5.42
	-37.86	-5.406
	-37.859	-5.395
	-37.863	-5.374
	-37.847	-5.34
	-37.835	-5.335
	-37.812	-5.316
	-37.787	-5.297
	-37.783	-5.294
	-37.782	-5.286
	-37.792	-5.268
	-37.79	-5.255
	-37.783	-5.242
	-37.783	-5.229
	-37.7859	-5.223661
	-37.788	-5.219
	-37.79	-5.211
	-37.776	-5.187
	-37.765	-5.139
	-37.74	-5.11
	-37.733	-5.1
	-37.731	-5.084
	-37.724	-5.069
	-37.71	-5.061
	-37.677	-5.054
	-37.677	-5.052
	-37.66	-4.998
	-37.651	-4.965
	-37.64	-4.926
	-37.59213	-4.914685
	-37.53914	-4.902236
	-37.46695	-4.884896
	-37.465	-4.885
	-37.446	-4.881
	-37.357	-4.858
	-37.35323	-4.856939
	-37.35336	-4.856594
	-37.35333	-4.856366
	-37.35316	-4.855807
	-37.35296	-4.855367
	-37.35026	-4.854417
	-37.34933	-4.854872
	-37.34903	-4.855757
	-37.34415	-4.854382
	-37.34281	-4.853702
	-37.34211	-4.853496
	-37.34172	-4.853456
	-37.34109	-4.853521
	-37.25462	-4.829175
	-37.07874	-4.713553
	-28.66083	1.566726
	-28.38098	-6.135112
	-34.77082	-6.478295
	-34.96801	-6.487597
	-34.96859	-6.487979
	-34.96879	-6.488886
	-34.96861	-6.48954
	-34.96826	-6.490271
	-34.96852	-6.490724
	-34.96899	-6.490769
	-34.96951	-6.490271
	-34.96972	-6.489263
	-34.97035	-6.488599
	-34.97013	-6.488067
	-34.96987	-6.48768
	-34.96948	-6.48726
	-34.9697	-6.486815
	-34.97017	-6.486911
	-34.97081	-6.486575
	-34.97095	-6.486202
	-34.97024	-6.485925
	-34.97013	-6.485676
	-34.97061	-6.485385
	-34.97102	-6.485537
	-34.97148	-6.485221
	-34.97158	-6.485614
	-34.972	-6.485791
	-34.97226	-6.486143
	-34.97262	-6.48605
	-34.97271	-6.485604
	-34.97294	-6.485542
	-34.97343	-6.485791
	-34.97334	-6.485583
	-34.973	-6.485262
	-34.97331	-6.484951
	-34.97461	-6.485044
	-34.97438	-6.485376
	-34.97459	-6.485697
	-34.97439	-6.485884
	-34.97395	-6.485658
	-34.97383	-6.485866
	-34.97387	-6.486099
	-34.97399	-6.486342
	-34.97466	-6.486705
	-34.97489	-6.486557
	-34.97492	-6.486274
	-34.97509	-6.486215
	-34.97554	-6.486489
	-34.97566	-6.486899
	-34.97578	-6.486988
	-34.97604	-6.486945
	-34.97617	-6.487002
	-34.97618	-6.487356
	-34.97626	-6.487474
	-34.97639	-6.487428
	-34.97639	-6.487242
	-34.97649	-6.487153
	-34.97662	-6.487228
	-34.97669	-6.487477
	-34.97684	-6.487606
	-34.97719	-6.487599
	-34.9772	-6.48736
	-34.97729	-6.48721
	-34.97781	-6.487128
	-34.978	-6.487228
	-34.97812	-6.487403
	-34.97816	-6.487588
	-34.97831	-6.487716
	-34.97848	-6.48771
	-34.97871	-6.487617
	-34.97884	-6.487431
	-34.97897	-6.4875
	-34.979	-6.487717
	-34.97877	-6.48796
	-34.97852	-6.487935
	-34.9784	-6.488045
	-34.97843	-6.488152
	-34.97871	-6.48829
	-34.97892	-6.488336
	-34.97913	-6.48815
	-34.97923	-6.488125
	-34.9793	-6.488239
	-34.97926	-6.48839
	-34.97899	-6.488696
	-34.97895	-6.488818
	-34.97905	-6.48887
	-34.9793	-6.488819
	-34.97947	-6.488847
	-34.97951	-6.488927
	-34.97938	-6.489122
	-34.97911	-6.489253
	-34.97881	-6.489199
	-34.97858	-6.489259
	-34.97854	-6.489359
	-34.97864	-6.489453
	-34.97878	-6.489519
	-34.97901	-6.489464
	-34.97908	-6.48955
	-34.97885	-6.48999
	-34.97889	-6.490106
	-34.97907	-6.49006
	-34.97912	-6.489846
	-34.97924	-6.489806
	-34.97942	-6.49031
	-34.97941	-6.490631
	-34.97959	-6.490707
	-34.97969	-6.490689
	-34.97969	-6.490471
	-34.97958	-6.49023
	-34.98012	-6.490234
	-34.9801	-6.490725
	-34.97997	-6.490899
	-34.98093	-6.49131
	-34.98124	-6.491573
	-34.98161	-6.491496
	-34.98741	-6.497009
	-35.00046	-6.499841
	-35.0125	-6.503531
	-35.02051	-6.504729
	-35.0276	-6.506455
	-35.03069	-6.510036
	-35.03413	-6.516702
	-35.04767	-6.522422
	-35.057	-6.527
	-35.067	-6.524
	-35.07367	-6.513417
	-35.08517	-6.50583
	-35.095	-6.497
	-35.101	-6.5
	-35.10226	-6.505326
	-35.10726	-6.506156
	-35.11121	-6.505843
	-35.123	-6.529
	-35.132	-6.535
	-35.145	-6.552
	-35.157	-6.551
	-35.17	-6.558
	-35.194	-6.55
	-35.199	-6.55
	-35.207	-6.543
	-35.218	-6.518
	-35.223	-6.516
	-35.224	-6.521
	-35.232	-6.531
	-35.253	-6.534
	-35.273	-6.543
	-35.274	-6.543
	-35.302	-6.544
	-35.33	-6.544
	-35.341	-6.538
	-35.364	-6.512
	-35.379	-6.503
	-35.40218	-6.49146
	-35.40444	-6.490414
	-35.4065	-6.489677
	-35.40925	-6.488785
	-35.41458	-6.487444
	-35.41951	-6.487853
	-35.42662	-6.48833
	-35.4351	-6.488384
	-35.442	-6.486
	-35.44158	-6.485092
	-35.44136	-6.48403
	-35.44113	-6.481986
	-35.44118	-6.481152
	-35.44149	-6.479919
	-35.44173	-6.477735
	-35.44454	-6.480636
	-35.44476	-6.486344
	-35.44558	-6.486818
	-35.44957	-6.485954
	-35.45051	-6.485666
	-35.45262	-6.482431
	-35.45318	-6.479891
	-35.45671	-6.477266
	-35.45886	-6.476487
	-35.46016	-6.477045
	-35.46252	-6.480365
	-35.46304	-6.482584
	-35.46447	-6.48316
	-35.47129	-6.481703
	-35.47477	-6.484719
	-35.47549	-6.486592
	-35.47691	-6.486592
	-35.48103	-6.485287
	-35.48397	-6.484776
	-35.48571	-6.481029
	-35.48685	-6.480092
	-35.48951	-6.47978
	-35.49097	-6.479156
	-35.49228	-6.479439
	-35.4938	-6.483413
	-35.49514	-6.482959
	-35.49971	-6.477935
	-35.50294	-6.477424
	-35.50717	-6.47856
	-35.51091	-6.476431
	-35.51351	-6.477708
	-35.51459	-6.478701
	-35.51625	-6.479127
	-35.52011	-6.478389
	-35.52054	-6.477197
	-35.52071	-6.476346
	-35.52322	-6.47657
	-35.52505	-6.476621
	-35.527	-6.479
	-35.533	-6.483
	-35.538	-6.48
	-35.54	-6.483
	-35.546	-6.481
	-35.552	-6.49
	-35.558	-6.492
	-35.564	-6.491
	-35.564	-6.487
	-35.581	-6.485
	-35.591	-6.477
	-35.592	-6.471
	-35.6	-6.46
	-35.617	-6.462
	-35.62	-6.457
	-35.636	-6.454
	-35.657	-6.445
	-35.663	-6.446
	-35.665	-6.45
	-35.671	-6.451
	-35.682	-6.448
	-35.698	-6.462
	-35.711	-6.471
	-35.722	-6.471
	-35.726	-6.469
	-35.741	-6.476
	-35.743	-6.473
	-35.75	-6.478
	-35.773	-6.482
	-35.78	-6.483
	-35.782	-6.483
	-35.817	-6.485
	-35.853	-6.487
	-35.87	-6.488
	-35.944	-6.493
	-35.965	-6.484
	-35.972	-6.487
	-35.977	-6.489
	-36.005	-6.481
	-36.007	-6.474
	-36.012	-6.474
	-36.008	-6.465
	-36.013	-6.455
	-36.036	-6.444
	-36.051	-6.432
	-36.061	-6.41
	-36.067	-6.415
	-36.073	-6.414
	-36.072	-6.41
	-36.08	-6.405
	-36.086	-6.415
	-36.096	-6.42
	-36.098	-6.42
	-36.103	-6.421
	-36.107	-6.426
	-36.11	-6.429
	-36.143	-6.425
	-36.174	-6.43
	-36.20367	-6.433083
	-36.20437	-6.43305
	-36.22641	-6.434983
	-36.24911	-6.437988
	-36.251	-6.404
	-36.262	-6.402
	-36.269	-6.401
	-36.283	-6.397
	-36.295	-6.394
	-36.299	-6.382
	-36.296	-6.37
	-36.278	-6.349
	-36.279	-6.317
	-36.28	-6.308
	-36.287	-6.301
	-36.295	-6.292
	-36.307	-6.281
	-36.343	-6.302
	-36.344	-6.302
	-36.362	-6.31
	-36.394	-6.294
	-36.43	-6.362
	-36.448	-6.362
	-36.5	-6.358
	-36.504	-6.386
	-36.507	-6.4
	-36.531	-6.452
	-36.53	-6.471
	-36.528	-6.479
	-36.526	-6.501
	-36.519	-6.502
	-36.482	-6.519
	-36.479	-6.539
	-36.469	-6.549
	-36.462	-6.55
	-36.449	-6.554
	-36.444	-6.558
	-36.441	-6.599
	-36.436	-6.625
	-36.438	-6.629
	-36.449	-6.624
	-36.46	-6.634
	-36.473	-6.614
	-36.502	-6.601
	-36.508	-6.595
	-36.513	-6.594
	-36.522	-6.597
	-36.523	-6.602
	-36.52	-6.61
	-36.541	-6.666
	-36.547	-6.695
	-36.557	-6.706
	-36.559	-6.709
	-36.544	-6.731
	-36.533	-6.733
	-36.525	-6.736
	-36.52	-6.745
	-36.504	-6.754
	-36.501	-6.777
	-36.505	-6.808
	-36.51	-6.818
	-36.529	-6.825
	-36.543	-6.842
	-36.56	-6.84
	-36.569	-6.848
	-36.574	-6.857
	-36.566	-6.866
	-36.568	-6.874
	-36.609	-6.936
	-36.616	-6.934
	-36.637	-6.933
	-36.655	-6.928
	-36.687	-6.926
	-36.694	-6.934
	-36.699	-6.948
	-36.712	-6.98
	-36.718	-6.982
	-36.731	-6.976
	-36.737	-6.972
	-36.755	-6.954
	-36.766	-6.935
	-36.76	-6.914
	-36.756	-6.896
	-36.745	-6.879
	-36.73	-6.836
	-36.76	-6.838
	-36.769	-6.838
	-36.772	-6.787
	-36.789	-6.772
	-36.835	-6.731
	-36.874	-6.743
	-36.91	-6.757
	-36.931	-6.768
	-36.957	-6.79
	-36.959	-6.783
	-36.952	-6.775
	-36.964	-6.774
	-36.972	-6.765
	-36.971	-6.74
	-36.977	-6.721
	-36.99	-6.709
	-37.003	-6.709
	-37.01	-6.714
	-37.012	-6.716
	-37.035	-6.734
	-37.059	-6.749
	-37.075	-6.754
	-37.12	-6.767
	-37.129	-6.766
	-37.152	-6.798
	-37.19	-6.825
	-37.214	-6.824
	-37.234	-6.824
	-37.252	-6.813
	-37.255	-6.811
	-37.255	-6.798
	-37.26	-6.787
	-37.257	-6.78
	-37.274	-6.766
	-37.269	-6.762
	-37.264	-6.732
	-37.28	-6.724
	-37.29	-6.713
	-37.283	-6.694
	-37.298	-6.691
	-37.314	-6.689
	-37.342	-6.701
	-37.4	-6.699
	-37.407	-6.697
	-37.427	-6.7
	-37.456	-6.705
	-37.484	-6.71
	-37.471	-6.68
	-37.475	-6.672
	-37.466	-6.66
	-37.47428	-6.646423
	-37.477	-6.642
	-37.474	-6.618
	-37.476	-6.608
	-37.48	-6.605
	-37.48	-6.594
	-37.474	-6.564
	-37.48	-6.559
	-37.483	-6.55
	-37.474	-6.538
	-37.464	-6.532
	-37.445	-6.533
	-37.436	-6.533
	-37.415	-6.531
	-37.397	-6.514
	-37.391	-6.452
	-37.381	-6.437
	-37.381	-6.436
	-37.386	-6.426
	-37.397	-6.416
	-37.396	-6.401
	-37.388	-6.391
	-37.388	-6.379
	-37.38201	-6.373009
	-37.377	-6.369
	-37.378	-6.35
	-37.377	-6.344
	-37.363	-6.322
	-37.334	-6.308
	-37.328	-6.303
	-37.318	-6.279
	-37.306	-6.278
	-37.287	-6.282
	-37.274	-6.281
	-37.27	-6.251
	-37.251	-6.226
	-37.234	-6.213
	-37.201	-6.205
	-37.194	-6.198
	-37.193	-6.183
	-37.174	-6.18
	-37.165	-6.17
	-37.157	-6.152
	-37.166	-6.154
	-37.175	-6.142
	-37.167	-6.11
	-37.172	-6.098
	-37.17	-6.083
	-37.175	-6.055
	-37.174	-6.048
	-37.194	-6.048
	-37.204	-6.038
	-37.222	-6.042
	-37.232	-6.027
	-37.25	-6.026
	-37.256	-6.028
	-37.263	-6.046
	-37.272	-6.055
	-37.287	-6.058
	-37.295	-6.05
	-37.3	-6.05
	-37.309	-6.057
	-37.328	-6.064
	-37.335	-6.067
	-37.354	-6.086
	-37.371	-6.082
	-37.378	-6.085
	-37.382	-6.085
	-37.392	-6.108
	-37.407	-6.112
	-37.426	-6.109
	-37.445	-6.112
	-37.454	-6.12
	-37.459	-6.145
	-37.474	-6.148
	-37.483	-6.151
	-37.489	-6.144
	-37.503	-6.144
	-37.503	-6.152
	-37.522	-6.151
	-37.536	-6.152
	-37.54	-6.166
	-37.56	-6.164
	-37.569	-6.155
	-37.573	-6.158
	-37.585	-6.162
	-37.6	-6.174
	-37.616	-6.176
	-37.638	-6.179
	-37.646	-6.189
	-37.68022	-6.188932
	-37.698	-6.186
	-37.709	-6.177
	-37.716	-6.179
	-37.742	-6.189
	-37.753	-6.198
	-37.753	-6.214
	-37.764	-6.219
	-37.775	-6.231
	-37.762	-6.235
	-37.763	-6.241
	-37.776	-6.245
	-37.76	-6.254
	-37.77	-6.265
	-37.771	-6.273
	-37.757	-6.287
	-37.757	-6.29
	-37.771	-6.291
	-37.794	-6.289
	-37.81	-6.291
	-37.824	-6.306
	-37.814	-6.312
	-37.814	-6.315
	-37.822	-6.317
	-37.833	-6.321
	-37.843	-6.333
	-37.834	-6.342
	-37.844	-6.354
	-37.84	-6.361
	-37.854	-6.366
	-37.859	-6.374
	-37.888	-6.364
	-37.888	-6.387
	-37.884	-6.391
	-37.886	-6.397
	-37.89	-6.4
	-37.901	-6.399
	-37.919	-6.411
	-37.928	-6.421
	-37.945	-6.422
	-37.955	-6.408
	-37.955	-6.398
	-37.968	-6.405
	-37.968	-6.418
	-37.97944	-6.426432
	-37.98037	-6.427845
	-37.98293	-6.427874
	-37.989	-6.428
	-38.013	-6.427
	-38.014	-6.43
	-38.008	-6.432
	-38.02	-6.446
	-38.013	-6.468
	-38.021	-6.468
	-38.026	-6.474
	-38.034	-6.475
	-38.041	-6.471
	-38.036	-6.46
	-38.044	-6.452
	-38.043	-6.443
	-38.046	-6.441
	-38.051	-6.442
	-38.054	-6.453
	-38.059	-6.453
	-38.062	-6.459
	-38.066	-6.46
	-38.071	-6.464
	-38.083	-6.485
	-38.095	-6.493
	-38.098	-6.509
	-38.117	-6.522
	-38.12	-6.522
	-38.135	-6.518
	-38.148	-6.491
	-38.161	-6.499
	-38.173	-6.499
	-38.192	-6.498
	-38.2	-6.488
	-38.227	-6.484
	-38.229	-6.483
	-38.239	-6.48
	-38.253	-6.485
	-38.256	-6.483
	-38.261	-6.485
	-38.269	-6.494
	-38.288	-6.505
	-38.294	-6.489
	-38.297	-6.487
	-38.309	-6.489
	-38.312	-6.488
	-38.316	-6.482
	-38.318	-6.473
	-38.328	-6.46
	-38.332	-6.458
	-38.339	-6.46
	-38.343	-6.456
	-38.355	-6.457
	-38.361	-6.462
	-38.363	-6.453
	-38.3725	-6.454899
	-38.37249	-6.454591
	-38.3728	-6.454267
	-38.37291	-6.454132
	-38.37228	-6.452459
	-38.37214	-6.452038
	-38.37208	-6.451781
	-38.37199	-6.451167
	-38.37198	-6.450689
	-38.37201	-6.450372
	-38.37299	-6.444244
	-38.37326	-6.442923
	-38.37333	-6.442664
	-38.3734	-6.442483
	-38.37365	-6.44193
	-38.3738	-6.441668
	-38.37435	-6.440845
	-38.37342	-6.439731
	-38.37316	-6.439329
	-38.37296	-6.438886
	-38.37283	-6.438275
	-38.37287	-6.437732
	-38.37297	-6.43734
	-38.37307	-6.437082
	-38.37315	-6.436908
	-38.37338	-6.436536
	-38.3735	-6.43638
	-38.37383	-6.436044
	-38.37421	-6.435773
	-38.37466	-6.435564
	-38.37507	-6.435458
	-38.3755	-6.435415
	-38.37592	-6.435438
	-38.37606	-6.435459
	-38.37707	-6.434874
	-38.37714	-6.43439
	-38.37725	-6.434033
	-38.37737	-6.433723
	-38.37769	-6.433225
	-38.37788	-6.433009
	-38.37941	-6.431537
	-38.37974	-6.431274
	-38.38	-6.431112
	-38.38027	-6.430966
	-38.38062	-6.430829
	-38.38075	-6.430133
	-38.38076	-6.429999
	-38.38031	-6.429159
	-38.38033	-6.429192
	-38.38162	-6.429528
	-38.38287	-6.430006
	-38.38292	-6.429867
	-38.38307	-6.429904
	-38.3834	-6.428611
	-38.38388	-6.427364
	-38.38378	-6.427147
	-38.38569	-6.424391
	-38.38601	-6.423903
	-38.38621	-6.423552
	-38.38661	-6.422666
	-38.38698	-6.421742
	-38.38732	-6.420726
	-38.38771	-6.4198
	-38.38785	-6.419413
	-38.38796	-6.419041
	-38.391	-6.416
	-38.401	-6.409
	-38.403	-6.409
	-38.406	-6.41
	-38.426	-6.414
	-38.438	-6.409
	-38.441	-6.404
	-38.448	-6.403
	-38.448	-6.394
	-38.452	-6.392
	-38.465	-6.396
	-38.486	-6.398
	-38.483	-6.381
	-38.49	-6.366
	-38.476	-6.345
	-38.458	-6.33
	-38.475	-6.333
	-38.481	-6.337
	-38.485	-6.34
	-38.494	-6.344
	-38.505	-6.356
	-38.516	-6.346
	-38.534	-6.342
	-38.545	-6.344
	-38.549	-6.35
	-38.545	-6.353
	-38.563	-6.356
END
END
