Canada_Nova Scotia_Sydney
1
	-63.30918	46.02956
	-62.5	45.86127
	-61.75524	46.5033
	-59.95677	48.02283
	-58.27347	45.83021
	-58.33237	43.56336
	-60.96168	43.25501
	-62.07318	44.87949
	-62.0953	44.90067
	-62.1272	44.9288
	-62.14707	44.94629
	-62.15476	44.95623
	-62.16357	44.97059
	-62.16578	44.97604
	-62.1664	44.97688
	-62.16646	44.97707
	-62.16646	44.97711
	-62.16631	44.97722
	-62.16648	44.97725
	-62.16666	44.97905
	-62.17052	44.98039
	-62.17033	44.98143
	-62.17371	44.98381
	-62.17522	44.98674
	-62.17616	44.98843
	-62.18457	44.99256
	-62.19515	44.99748
	-62.20695	45.00378
	-62.22876	45.01558
	-62.23957	45.02155
	-62.2605	45.0328
	-62.27436	45.04032
	-62.29792	45.05313
	-62.3147	45.0621
	-62.33485	45.07314
	-62.33462	45.07435
	-62.3359	45.07574
	-62.33809	45.07555
	-62.34129	45.07544
	-62.34253	45.07732
	-62.34281	45.0807
	-62.34438	45.08251
	-62.34594	45.08477
	-62.34783	45.08568
	-62.34783	45.08635
	-62.34792	45.08642
	-62.34842	45.08774
	-62.34921	45.08873
	-62.35264	45.08968
	-62.35609	45.08989
	-62.36015	45.09174
	-62.36302	45.09166
	-62.36552	45.09313
	-62.37042	45.09377
	-62.37532	45.09454
	-62.37717	45.09501
	-62.37854	45.09485
	-62.38012	45.09531
	-62.38138	45.09667
	-62.38296	45.0969
	-62.38613	45.09782
	-62.38897	45.09918
	-62.39119	45.10009
	-62.39466	45.10214
	-62.39846	45.10396
	-62.40414	45.10781
	-62.40571	45.10917
	-62.40853	45.11021
	-62.41173	45.11145
	-62.41267	45.11213
	-62.41361	45.11371
	-62.41455	45.11462
	-62.42468	45.12034
	-62.43003	45.12392
	-62.43415	45.12575
	-62.44141	45.13051
	-62.44806	45.13392
	-62.45249	45.13574
	-62.45722	45.13958
	-62.46323	45.14366
	-62.46829	45.14594
	-62.47052	45.1464
	-62.47178	45.14708
	-62.47305	45.14709
	-62.47333	45.14729
	-62.48056	45.15209
	-62.48088	45.15242
	-62.48818	45.15625
	-62.5007	45.16289
	-62.53674	45.18196
	-62.56127	45.19502
	-62.59925	45.21588
	-62.63643	45.2372
	-62.64022	45.2394
	-62.64361	45.24135
	-62.65203	45.24614
	-62.65608	45.24848
	-62.65844	45.24986
	-62.66246	45.25163
	-62.66894	45.25452
	-62.67063	45.25531
	-62.68086	45.26029
	-62.69054	45.26487
	-62.70045	45.26932
	-62.70734	45.27238
	-62.71229	45.27494
	-62.71456	45.2761
	-62.71558	45.27664
	-62.7404	45.29429
	-62.75759	45.30649
	-62.7914	45.33076
	-62.81016	45.3442
	-62.82407	45.35435
	-62.86104	45.38127
	-62.88519	45.3996
	-62.91973	45.42441
	-62.93954	45.43861
	-62.94681	45.44391
	-62.95063	45.44663
	-62.95088	45.44683
	-62.95593	45.45033
	-62.98334	45.46953
	-62.99916	45.48022
	-63.00193	45.48282
	-63.00859	45.48618
	-63.01	45.48774
	-63.014	45.49495
	-63.01714	45.5023
	-63.03895	45.54165
	-63.05875	45.57815
	-63.07731	45.61209
	-63.08661	45.62869
	-63.10443	45.66216
	-63.12554	45.70035
	-63.14369	45.73343
	-63.16081	45.76346
	-63.18753	45.80991
	-63.18755	45.8099
	-63.20627	45.84385
	-63.23521	45.89622
	-63.28602	45.9879
	-63.30918	46.02956
END
END
