Canada_Ontario_Kingston
1
	-77.17775	45.86193
	-77.15536	45.85524
	-77.15485	45.85508
	-77.1533	45.85456
	-77.15174	45.85398
	-77.15016	45.85335
	-77.14874	45.85274
	-77.14581	45.85138
	-77.14447	45.85069
	-77.14311	45.84994
	-77.14024	45.84841
	-77.13603	45.84628
	-77.13309	45.845
	-77.13163	45.84435
	-77.13015	45.84381
	-77.12864	45.84332
	-77.12711	45.84292
	-77.12647	45.84277
	-77.12555	45.8426
	-77.12219	45.84215
	-77.11893	45.84159
	-77.11246	45.84042
	-77.11081	45.84014
	-77.10749	45.83976
	-77.10586	45.83959
	-77.10419	45.83944
	-77.10084	45.83921
	-77.09748	45.83905
	-77.09582	45.83891
	-77.09415	45.83872
	-77.09251	45.83848
	-77.0909	45.83812
	-77.08936	45.83764
	-77.08782	45.83706
	-77.08641	45.83646
	-77.08357	45.83519
	-77.08216	45.83459
	-77.0792	45.83341
	-77.07774	45.83288
	-77.07627	45.83238
	-77.07469	45.83192
	-77.07305	45.8315
	-77.07167	45.83106
	-77.07081	45.83065
	-77.07023	45.83033
	-77.06899	45.82954
	-77.06783	45.82866
	-77.06684	45.82778
	-77.06581	45.82684
	-77.0639	45.82491
	-77.06207	45.82292
	-77.06039	45.82092
	-77.05925	45.81917
	-77.05433	45.8121
	-77.05375	45.81157
	-77.05293	45.81098
	-77.05164	45.8101
	-77.05026	45.80941
	-77.0481	45.80864
	-77.04649	45.80812
	-77.04498	45.80774
	-77.04404	45.80752
	-77.04275	45.80731
	-77.04219	45.80725
	-77.04153	45.80723
	-77.03976	45.80724
	-77.03886	45.80726
	-77.03707	45.80733
	-77.03535	45.80742
	-77.03471	45.80748
	-77.03232	45.80777
	-77.03143	45.8079
	-77.02982	45.80816
	-77.02818	45.80841
	-77.02721	45.80854
	-77.02651	45.80862
	-77.02551	45.8087
	-77.02493	45.80872
	-77.02394	45.8087
	-77.0222	45.80848
	-77.02148	45.80837
	-77.02054	45.80818
	-77.01903	45.80771
	-77.01704	45.80704
	-77.01609	45.80658
	-77.01552	45.80634
	-77.014	45.80565
	-77.01244	45.80489
	-77.01092	45.80409
	-77.00975	45.80341
	-77.00851	45.80263
	-77.00742	45.80177
	-77.00635	45.80084
	-77.00527	45.79993
	-77.00423	45.79897
	-77.00214	45.79715
	-77.00115	45.79623
	-77.00007	45.79529
	-76.99903	45.79434
	-76.99796	45.79344
	-76.99692	45.79254
	-76.99596	45.79164
	-76.99488	45.7907
	-76.99384	45.78974
	-76.99316	45.78927
	-76.99279	45.78907
	-76.99226	45.78882
	-76.99138	45.78837
	-76.9894	45.78751
	-76.98842	45.7872
	-76.98787	45.78705
	-76.98679	45.78681
	-76.98626	45.78672
	-76.98508	45.78656
	-76.98413	45.78648
	-76.98295	45.78642
	-76.98204	45.78639
	-76.98054	45.78641
	-76.97943	45.78645
	-76.97657	45.78658
	-76.96462	45.78702
	-76.95805	45.78728
	-76.94541	45.78779
	-76.94415	45.78785
	-76.94289	45.78789
	-76.94175	45.78795
	-76.94077	45.78805
	-76.93964	45.7882
	-76.93874	45.7884
	-76.93782	45.78878
	-76.93644	45.78952
	-76.93493	45.79035
	-76.93367	45.79111
	-76.93237	45.79185
	-76.93118	45.79259
	-76.9303	45.79308
	-76.92991	45.79338
	-76.92963	45.79362
	-76.92828	45.7944
	-76.92675	45.79538
	-76.92493	45.79644
	-76.92368	45.79728
	-76.92242	45.79801
	-76.92101	45.79874
	-76.92015	45.79912
	-76.91762	45.80071
	-76.91634	45.80156
	-76.91496	45.8025
	-76.91384	45.8033
	-76.91317	45.8038
	-76.91266	45.80435
	-76.91241	45.8047
	-76.91222	45.80518
	-76.91187	45.80622
	-76.91173	45.80688
	-76.91161	45.80757
	-76.91157	45.80814
	-76.91159	45.8085
	-76.91168	45.80905
	-76.91179	45.80951
	-76.91233	45.81104
	-76.91283	45.81217
	-76.91347	45.8137
	-76.91388	45.81454
	-76.91444	45.81591
	-76.91525	45.81751
	-76.91676	45.8208
	-76.91764	45.82268
	-76.91861	45.82486
	-76.9196	45.82702
	-76.92082	45.82961
	-76.92217	45.8326
	-76.92663	45.8423
	-76.92728	45.84382
	-76.92816	45.8457
	-76.92839	45.84624
	-76.92866	45.84695
	-76.92873	45.84724
	-76.92879	45.8476
	-76.92871	45.84816
	-76.9286	45.84845
	-76.92844	45.84869
	-76.92818	45.84894
	-76.92741	45.84938
	-76.92709	45.84953
	-76.92664	45.84968
	-76.92622	45.84977
	-76.92568	45.84985
	-76.92522	45.8499
	-76.9241	45.84997
	-76.92334	45.84999
	-76.92277	45.84998
	-76.92149	45.84993
	-76.91987	45.84973
	-76.91916	45.84962
	-76.91772	45.84929
	-76.9174	45.84918
	-76.91663	45.84901
	-76.91497	45.8486
	-76.91436	45.84842
	-76.91239	45.848
	-76.91174	45.84784
	-76.91042	45.84756
	-76.90969	45.84742
	-76.90911	45.84735
	-76.90805	45.84734
	-76.9072	45.84745
	-76.90675	45.84755
	-76.90631	45.84768
	-76.90582	45.84787
	-76.90494	45.84824
	-76.90452	45.84839
	-76.90401	45.84859
	-76.9035	45.84884
	-76.90291	45.8491
	-76.90254	45.8493
	-76.90214	45.84956
	-76.90182	45.84978
	-76.90144	45.85008
	-76.90125	45.8503
	-76.90112	45.85049
	-76.90103	45.85077
	-76.90107	45.85096
	-76.90116	45.85119
	-76.90134	45.85148
	-76.9019	45.85209
	-76.90228	45.85268
	-76.90256	45.85318
	-76.90265	45.85347
	-76.90273	45.8538
	-76.90285	45.85486
	-76.90286	45.85528
	-76.9029	45.85574
	-76.90294	45.85595
	-76.90295	45.85622
	-76.90301	45.85646
	-76.90322	45.85673
	-76.90351	45.85691
	-76.90467	45.85736
	-76.90533	45.85757
	-76.90599	45.85781
	-76.90668	45.85809
	-76.90698	45.85828
	-76.90718	45.85847
	-76.90737	45.85868
	-76.90755	45.85893
	-76.9077	45.85919
	-76.90789	45.85964
	-76.90841	45.86106
	-76.90862	45.86148
	-76.9089	45.86193
	-76.90914	45.86219
	-76.90957	45.86261
	-76.90998	45.86297
	-76.91049	45.86334
	-76.91116	45.86374
	-76.91178	45.86408
	-76.91244	45.86439
	-76.91312	45.86465
	-76.91391	45.86497
	-76.91554	45.86552
	-76.9165	45.86591
	-76.9174	45.8663
	-76.91826	45.86671
	-76.91898	45.8672
	-76.91959	45.86757
	-76.9202	45.86809
	-76.92132	45.869
	-76.92181	45.8695
	-76.92205	45.86977
	-76.92284	45.87073
	-76.92319	45.87125
	-76.92357	45.87223
	-76.92366	45.87275
	-76.92371	45.87395
	-76.92365	45.87438
	-76.9236	45.87494
	-76.92347	45.8754
	-76.92342	45.87595
	-76.92342	45.87621
	-76.92349	45.87639
	-76.92373	45.87685
	-76.92408	45.87747
	-76.92451	45.87798
	-76.92495	45.8786
	-76.9253	45.87918
	-76.92586	45.8803
	-76.92634	45.88157
	-76.92649	45.88223
	-76.92667	45.88321
	-76.92671	45.88371
	-76.9267	45.8841
	-76.92674	45.88436
	-76.92696	45.88485
	-76.92708	45.88505
	-76.92731	45.88525
	-76.92762	45.88544
	-76.9287	45.88599
	-76.92904	45.88626
	-76.92944	45.88663
	-76.9298	45.88701
	-76.93001	45.88732
	-76.93025	45.88769
	-76.93043	45.88813
	-76.9305	45.88858
	-76.93054	45.88905
	-76.93052	45.88958
	-76.93037	45.89029
	-76.93016	45.89079
	-76.92975	45.89148
	-76.92945	45.89188
	-76.92913	45.89223
	-76.92866	45.89261
	-76.9282	45.89293
	-76.92773	45.89329
	-76.92722	45.89354
	-76.92658	45.89378
	-76.92599	45.89404
	-76.92538	45.89429
	-76.92481	45.89449
	-76.92402	45.89472
	-76.92336	45.89489
	-76.92271	45.89504
	-76.92138	45.89537
	-76.92063	45.89553
	-76.91972	45.89569
	-76.91902	45.89579
	-76.91812	45.89587
	-76.91641	45.89605
	-76.91052	45.89658
	-76.90871	45.89684
	-76.90775	45.897
	-76.90577	45.89728
	-76.90347	45.89753
	-76.9025	45.89762
	-76.90135	45.89776
	-76.89914	45.898
	-76.89457	45.89857
	-76.89378	45.89864
	-76.89323	45.89866
	-76.89265	45.89865
	-76.89197	45.89862
	-76.8908	45.8985
	-76.88918	45.89822
	-76.88765	45.89785
	-76.88679	45.89761
	-76.88615	45.8974
	-76.88539	45.89711
	-76.8847	45.89682
	-76.88367	45.89645
	-76.88282	45.89607
	-76.88203	45.8957
	-76.88121	45.89537
	-76.87966	45.89466
	-76.87667	45.89353
	-76.87591	45.89336
	-76.87532	45.89319
	-76.87371	45.89285
	-76.87297	45.89271
	-76.87215	45.89259
	-76.87058	45.89242
	-76.86994	45.89236
	-76.8686	45.89227
	-76.8682	45.89225
	-76.86766	45.89225
	-76.86677	45.8923
	-76.86604	45.89237
	-76.86537	45.89245
	-76.86472	45.89254
	-76.86335	45.89282
	-76.85876	45.89358
	-76.85792	45.89376
	-76.85744	45.89388
	-76.85675	45.89399
	-76.85564	45.89421
	-76.85503	45.8943
	-76.85451	45.89435
	-76.85394	45.89444
	-76.85325	45.89452
	-76.85277	45.89452
	-76.85168	45.89459
	-76.85114	45.89458
	-76.85052	45.89455
	-76.84992	45.89449
	-76.84935	45.8944
	-76.84811	45.89414
	-76.84765	45.894
	-76.84685	45.8938
	-76.84624	45.89356
	-76.84554	45.89334
	-76.84503	45.89315
	-76.84431	45.89278
	-76.84335	45.8924
	-76.84236	45.89196
	-76.84121	45.89149
	-76.83493	45.88904
	-76.83204	45.88788
	-76.82734	45.88596
	-76.82192	45.88384
	-76.81547	45.88123
	-76.81207	45.8799
	-76.80881	45.87855
	-76.80691	45.87782
	-76.80569	45.87729
	-76.80402	45.87664
	-76.80364	45.87651
	-76.80344	45.87646
	-76.80311	45.87641
	-76.80268	45.87636
	-76.80205	45.87626
	-76.80074	45.87608
	-76.80028	45.87603
	-76.79551	45.87564
	-76.79454	45.87558
	-76.79369	45.8755
	-76.79214	45.8754
	-76.78956	45.87529
	-76.7887	45.87523
	-76.78626	45.8749
	-76.7847	45.87458
	-76.78405	45.87446
	-76.78364	45.87435
	-76.78261	45.87399
	-76.78213	45.87375
	-76.78159	45.87352
	-76.78098	45.87323
	-76.78022	45.8728
	-76.77916	45.87211
	-76.77875	45.8718
	-76.77837	45.87146
	-76.77803	45.87113
	-76.77776	45.87083
	-76.77748	45.87045
	-76.77707	45.86972
	-76.77665	45.86863
	-76.77631	45.86752
	-76.7762	45.86708
	-76.77605	45.86625
	-76.7759	45.86484
	-76.77589	45.86443
	-76.77576	45.8633
	-76.77568	45.86286
	-76.77557	45.86238
	-76.77544	45.86197
	-76.77536	45.86177
	-76.7751	45.86134
	-76.77484	45.86079
	-76.77458	45.86029
	-76.7743	45.85983
	-76.77397	45.85937
	-76.77345	45.85879
	-76.77303	45.85828
	-76.77257	45.85776
	-76.77208	45.85728
	-76.77111	45.8564
	-76.77052	45.8559
	-76.76977	45.85541
	-76.76907	45.85492
	-76.76823	45.8544
	-76.76776	45.85403
	-76.76736	45.85375
	-76.76659	45.85332
	-76.76608	45.85294
	-76.76571	45.85262
	-76.76541	45.85233
	-76.76491	45.85175
	-76.76468	45.85144
	-76.76453	45.85113
	-76.76441	45.85067
	-76.76436	45.85033
	-76.76436	45.84996
	-76.76442	45.84945
	-76.76453	45.849
	-76.76472	45.84856
	-76.76518	45.84778
	-76.7654	45.84737
	-76.7656	45.84691
	-76.76576	45.84652
	-76.76601	45.84571
	-76.76612	45.84528
	-76.76623	45.84459
	-76.76624	45.84427
	-76.76622	45.84393
	-76.76622	45.84358
	-76.76624	45.84299
	-76.76628	45.84263
	-76.76634	45.84231
	-76.76644	45.84195
	-76.76662	45.84144
	-76.76723	45.84021
	-76.76806	45.83894
	-76.76882	45.83755
	-76.76938	45.83669
	-76.76969	45.83617
	-76.7699	45.83575
	-76.77017	45.83533
	-76.77069	45.83432
	-76.77098	45.83361
	-76.7711	45.83266
	-76.77109	45.83218
	-76.77103	45.83173
	-76.77095	45.83142
	-76.77077	45.83098
	-76.77048	45.83038
	-76.7699	45.8295
	-76.76969	45.82914
	-76.76932	45.82843
	-76.76907	45.82801
	-76.76889	45.82757
	-76.76874	45.82705
	-76.7686	45.82642
	-76.76853	45.82585
	-76.7685	45.8253
	-76.76856	45.82414
	-76.76856	45.8236
	-76.76847	45.82232
	-76.76823	45.8211
	-76.76808	45.82052
	-76.76797	45.82017
	-76.76785	45.81964
	-76.76727	45.81819
	-76.76708	45.81782
	-76.76685	45.81742
	-76.7666	45.81691
	-76.76626	45.81642
	-76.76606	45.81608
	-76.76581	45.81561
	-76.76562	45.81495
	-76.7655	45.81436
	-76.76539	45.81314
	-76.76528	45.81073
	-76.7653	45.80997
	-76.76537	45.80912
	-76.76546	45.80857
	-76.76559	45.80798
	-76.76598	45.80685
	-76.76629	45.80628
	-76.7668	45.80545
	-76.76731	45.80491
	-76.76805	45.80417
	-76.76849	45.80368
	-76.77024	45.80217
	-76.77081	45.80176
	-76.77126	45.80129
	-76.77173	45.80087
	-76.77215	45.80052
	-76.77263	45.79998
	-76.774	45.79835
	-76.77438	45.79779
	-76.77537	45.79647
	-76.77572	45.79597
	-76.77612	45.79532
	-76.77657	45.79473
	-76.77739	45.79349
	-76.778	45.79251
	-76.77831	45.79195
	-76.7785	45.79159
	-76.77879	45.79096
	-76.77921	45.78987
	-76.77981	45.78818
	-76.78005	45.78746
	-76.7802	45.78694
	-76.78048	45.78581
	-76.78068	45.78463
	-76.78075	45.78365
	-76.78074	45.78323
	-76.78069	45.78279
	-76.78062	45.7824
	-76.78028	45.78132
	-76.78001	45.7807
	-76.77978	45.78025
	-76.77929	45.77964
	-76.77876	45.77915
	-76.77834	45.77871
	-76.77795	45.77822
	-76.77759	45.77785
	-76.77721	45.7774
	-76.77678	45.7768
	-76.7761	45.77569
	-76.77541	45.77439
	-76.77511	45.77366
	-76.77486	45.7731
	-76.77438	45.77178
	-76.77428	45.77142
	-76.77418	45.77063
	-76.77409	45.76962
	-76.77403	45.76852
	-76.77396	45.76803
	-76.77391	45.76752
	-76.77358	45.76603
	-76.77314	45.76494
	-76.77264	45.76406
	-76.77238	45.76369
	-76.77169	45.76237
	-76.77145	45.76179
	-76.7713	45.76139
	-76.7708	45.75972
	-76.77071	45.75924
	-76.7706	45.75877
	-76.77057	45.75843
	-76.7705	45.75808
	-76.77034	45.75771
	-76.77013	45.75736
	-76.7698	45.75701
	-76.76945	45.75675
	-76.76903	45.7565
	-76.76826	45.75611
	-76.76803	45.75579
	-76.76791	45.7555
	-76.76789	45.75512
	-76.76795	45.75473
	-76.76811	45.75436
	-76.76839	45.75387
	-76.7687	45.7535
	-76.76892	45.75316
	-76.76996	45.75188
	-76.77032	45.75153
	-76.77055	45.75127
	-76.77083	45.75089
	-76.771	45.75047
	-76.77106	45.75023
	-76.7711	45.74989
	-76.77103	45.74948
	-76.7708	45.74919
	-76.77041	45.74895
	-76.76982	45.74871
	-76.76914	45.74848
	-76.76833	45.74826
	-76.76759	45.7481
	-76.76703	45.7479
	-76.76644	45.74767
	-76.76606	45.74728
	-76.76581	45.74696
	-76.76567	45.74669
	-76.76559	45.74634
	-76.76558	45.74591
	-76.76568	45.74542
	-76.76588	45.74511
	-76.7662	45.74469
	-76.76698	45.7439
	-76.76738	45.74356
	-76.76778	45.74329
	-76.76833	45.74287
	-76.76878	45.74245
	-76.76919	45.74203
	-76.76947	45.74158
	-76.76959	45.74119
	-76.76964	45.74093
	-76.76964	45.7405
	-76.76949	45.73956
	-76.76935	45.73904
	-76.76929	45.73865
	-76.76905	45.7378
	-76.76891	45.73743
	-76.76873	45.73666
	-76.76867	45.73633
	-76.76872	45.73592
	-76.7689	45.73567
	-76.769	45.73539
	-76.76895	45.73505
	-76.76885	45.73474
	-76.76881	45.73436
	-76.76868	45.73407
	-76.76837	45.7337
	-76.76807	45.73345
	-76.76766	45.73319
	-76.76726	45.73296
	-76.76601	45.7324
	-76.76494	45.73198
	-76.7644	45.73174
	-76.76403	45.73152
	-76.76365	45.73125
	-76.76354	45.73109
	-76.76353	45.73097
	-76.76355	45.73084
	-76.76352	45.73076
	-76.76318	45.73061
	-76.763	45.73047
	-76.76229	45.73017
	-76.76201	45.7301
	-76.76179	45.73001
	-76.76158	45.72989
	-76.76105	45.7295
	-76.76051	45.72926
	-76.75992	45.72897
	-76.75927	45.72872
	-76.7587	45.72852
	-76.75815	45.72824
	-76.757	45.72771
	-76.75661	45.72749
	-76.75628	45.72726
	-76.75594	45.72706
	-76.75583	45.72696
	-76.75533	45.72668
	-76.75482	45.72643
	-76.75361	45.72577
	-76.75296	45.72547
	-76.75221	45.72518
	-76.75211	45.72513
	-76.75143	45.72488
	-76.75093	45.72473
	-76.7504	45.72458
	-76.74976	45.72443
	-76.74889	45.72425
	-76.74769	45.7241
	-76.74625	45.72395
	-76.74328	45.72369
	-76.7398	45.72346
	-76.73802	45.72331
	-76.7363	45.72315
	-76.73444	45.72294
	-76.73433	45.72285
	-76.73425	45.72282
	-76.73388	45.72277
	-76.7336	45.7227
	-76.73349	45.72266
	-76.7331	45.72257
	-76.73278	45.72247
	-76.73245	45.72235
	-76.73218	45.72221
	-76.73212	45.72216
	-76.73197	45.72208
	-76.73172	45.7219
	-76.73159	45.72178
	-76.731	45.72143
	-76.73036	45.7211
	-76.73	45.72093
	-76.72985	45.72088
	-76.72972	45.72082
	-76.72958	45.72079
	-76.72944	45.72073
	-76.72926	45.7207
	-76.72913	45.72065
	-76.72897	45.72063
	-76.7284	45.72052
	-76.72829	45.72052
	-76.72814	45.7205
	-76.72799	45.7205
	-76.72782	45.72052
	-76.72672	45.7204
	-76.72629	45.72031
	-76.72584	45.72024
	-76.72501	45.72007
	-76.72462	45.71994
	-76.72404	45.71981
	-76.72382	45.71975
	-76.72361	45.71968
	-76.72326	45.71959
	-76.72293	45.71949
	-76.72283	45.71945
	-76.72231	45.71936
	-76.72209	45.71935
	-76.72118	45.71923
	-76.72096	45.71923
	-76.72079	45.71921
	-76.72059	45.71921
	-76.72038	45.71923
	-76.72001	45.71922
	-76.71982	45.71924
	-76.71971	45.71923
	-76.71942	45.71928
	-76.71851	45.7194
	-76.7178	45.71954
	-76.71723	45.71968
	-76.71641	45.71991
	-76.71536	45.72025
	-76.71506	45.7204
	-76.71423	45.72071
	-76.71314	45.72116
	-76.71255	45.72137
	-76.71233	45.72142
	-76.71164	45.72164
	-76.71143	45.72169
	-76.71088	45.72178
	-76.71073	45.72179
	-76.7106	45.72182
	-76.71043	45.72184
	-76.70971	45.72189
	-76.70937	45.72185
	-76.70919	45.7218
	-76.70889	45.72176
	-76.70829	45.72175
	-76.70808	45.72173
	-76.70775	45.72173
	-76.70748	45.72171
	-76.70732	45.72172
	-76.70695	45.72171
	-76.7067	45.72173
	-76.70617	45.72175
	-76.70585	45.72179
	-76.70558	45.72181
	-76.7048	45.72184
	-76.70438	45.72176
	-76.70403	45.72158
	-76.70391	45.72145
	-76.70368	45.7211
	-76.70361	45.72096
	-76.7036	45.72081
	-76.70361	45.72058
	-76.70367	45.72014
	-76.70371	45.72
	-76.70409	45.71917
	-76.70417	45.71869
	-76.70418	45.71849
	-76.70409	45.71817
	-76.70405	45.71792
	-76.7039	45.71748
	-76.70373	45.71723
	-76.70343	45.7167
	-76.70261	45.71564
	-76.70238	45.71538
	-76.70187	45.7149
	-76.70164	45.71465
	-76.70137	45.71439
	-76.70128	45.71428
	-76.70095	45.714
	-76.7007	45.71375
	-76.7003	45.71346
	-76.69992	45.71313
	-76.69972	45.713
	-76.69885	45.71236
	-76.69839	45.71207
	-76.69788	45.7118
	-76.69777	45.71178
	-76.69764	45.71173
	-76.69751	45.71165
	-76.69725	45.71154
	-76.69695	45.71145
	-76.69656	45.71131
	-76.69606	45.71118
	-76.69545	45.711
	-76.69529	45.71098
	-76.69516	45.71093
	-76.69453	45.71083
	-76.69404	45.71073
	-76.69357	45.71065
	-76.69337	45.71063
	-76.69273	45.71052
	-76.69225	45.71037
	-76.69211	45.7103
	-76.69202	45.71024
	-76.69193	45.7101
	-76.69189	45.71002
	-76.69186	45.70991
	-76.6918	45.7098
	-76.69177	45.70966
	-76.69178	45.7095
	-76.69184	45.7091
	-76.69217	45.70805
	-76.69239	45.70765
	-76.69247	45.70747
	-76.69288	45.70678
	-76.69306	45.7065
	-76.69338	45.70605
	-76.6935	45.70582
	-76.69437	45.70483
	-76.69475	45.70442
	-76.69537	45.70376
	-76.69568	45.70347
	-76.69582	45.70327
	-76.69601	45.70269
	-76.69598	45.70255
	-76.69597	45.70238
	-76.69598	45.70218
	-76.69579	45.70158
	-76.69566	45.70123
	-76.69537	45.70071
	-76.69501	45.70016
	-76.6943	45.69902
	-76.69426	45.69892
	-76.6941	45.69864
	-76.69395	45.69844
	-76.69363	45.69783
	-76.6934	45.69748
	-76.69313	45.69694
	-76.69273	45.69633
	-76.69258	45.69601
	-76.69202	45.69527
	-76.69137	45.69453
	-76.69102	45.69416
	-76.69074	45.69391
	-76.69061	45.69376
	-76.69053	45.69364
	-76.69019	45.69325
	-76.6899	45.69287
	-76.68967	45.69263
	-76.68925	45.69215
	-76.68898	45.69176
	-76.6889	45.69162
	-76.68878	45.69148
	-76.68866	45.69131
	-76.68842	45.69094
	-76.68777	45.6901
	-76.68739	45.68954
	-76.68719	45.68929
	-76.68706	45.68909
	-76.68698	45.6889
	-76.68672	45.68843
	-76.68667	45.68826
	-76.68661	45.68814
	-76.68655	45.68787
	-76.68646	45.68701
	-76.68648	45.68685
	-76.68652	45.68671
	-76.6867	45.68623
	-76.68671	45.68615
	-76.68685	45.68583
	-76.68693	45.68568
	-76.68703	45.68555
	-76.68712	45.68539
	-76.68731	45.68512
	-76.68759	45.68467
	-76.68798	45.68397
	-76.68814	45.68352
	-76.6882	45.68339
	-76.68833	45.683
	-76.68838	45.68283
	-76.68851	45.68217
	-76.68867	45.6818
	-76.68872	45.68127
	-76.68893	45.68082
	-76.68921	45.68041
	-76.68999	45.67939
	-76.69065	45.67885
	-76.69089	45.67869
	-76.69121	45.67852
	-76.69199	45.67835
	-76.69269	45.67831
	-76.69338	45.67832
	-76.69477	45.67831
	-76.69569	45.67828
	-76.69668	45.6782
	-76.69753	45.67815
	-76.69997	45.67783
	-76.70064	45.67766
	-76.70168	45.67735
	-76.70245	45.6771
	-76.70306	45.67683
	-76.70366	45.67648
	-76.70414	45.67607
	-76.70457	45.6756
	-76.70502	45.67505
	-76.7056	45.67442
	-76.70612	45.67394
	-76.70647	45.67354
	-76.7076	45.67252
	-76.70885	45.67144
	-76.71006	45.67023
	-76.71055	45.66979
	-76.71069	45.66951
	-76.71088	45.66926
	-76.71127	45.66869
	-76.71233	45.66689
	-76.71256	45.66631
	-76.71277	45.66572
	-76.7129	45.66521
	-76.71294	45.66467
	-76.71294	45.66404
	-76.71284	45.66359
	-76.71265	45.66293
	-76.71228	45.6623
	-76.71201	45.66203
	-76.71149	45.66154
	-76.71094	45.66108
	-76.70962	45.66003
	-76.70888	45.65947
	-76.7083	45.65912
	-76.70801	45.65886
	-76.70745	45.65846
	-76.70679	45.65795
	-76.70597	45.65727
	-76.70525	45.65674
	-76.70458	45.6562
	-76.70376	45.65559
	-76.70304	45.6551
	-76.70244	45.65477
	-76.70229	45.65462
	-76.70178	45.65418
	-76.70042	45.65318
	-76.69966	45.6526
	-76.69881	45.652
	-76.69798	45.65137
	-76.69714	45.65077
	-76.69625	45.65007
	-76.69572	45.6497
	-76.6953	45.64944
	-76.69482	45.649
	-76.69423	45.64856
	-76.69346	45.64804
	-76.69279	45.64748
	-76.69139	45.64647
	-76.69086	45.64604
	-76.69026	45.64552
	-76.68972	45.64497
	-76.68909	45.64437
	-76.68855	45.64378
	-76.68823	45.64332
	-76.68792	45.64286
	-76.68768	45.64244
	-76.68726	45.64183
	-76.687	45.64117
	-76.68659	45.64053
	-76.68603	45.63946
	-76.68575	45.63905
	-76.68546	45.63856
	-76.68517	45.63812
	-76.68461	45.63717
	-76.68386	45.63613
	-76.68304	45.63509
	-76.68207	45.63419
	-76.68092	45.63329
	-76.68022	45.63284
	-76.67969	45.63254
	-76.679	45.63212
	-76.67841	45.63174
	-76.67722	45.63094
	-76.67658	45.6305
	-76.67491	45.6292
	-76.6739	45.62836
	-76.67284	45.62745
	-76.67189	45.62661
	-76.67094	45.62562
	-76.67053	45.62512
	-76.67023	45.62466
	-76.66997	45.62405
	-76.66983	45.62351
	-76.66975	45.62296
	-76.66972	45.62239
	-76.66979	45.6212
	-76.66994	45.62007
	-76.67018	45.61893
	-76.67271	45.6109
	-76.67294	45.6097
	-76.67307	45.60857
	-76.67308	45.60799
	-76.67306	45.6074
	-76.67298	45.60681
	-76.67287	45.60622
	-76.67252	45.60507
	-76.67232	45.60449
	-76.67151	45.60168
	-76.67139	45.60109
	-76.67132	45.60047
	-76.6713	45.59991
	-76.67132	45.5993
	-76.67139	45.59872
	-76.67149	45.59816
	-76.67175	45.59697
	-76.67191	45.59637
	-76.67209	45.59584
	-76.67252	45.5947
	-76.67297	45.59362
	-76.67309	45.59329
	-76.6733	45.593
	-76.67351	45.59256
	-76.67352	45.59246
	-76.67362	45.59213
	-76.67371	45.59192
	-76.67376	45.59176
	-76.67397	45.59134
	-76.67409	45.59105
	-76.67413	45.59089
	-76.67424	45.5906
	-76.67436	45.59034
	-76.67437	45.5901
	-76.67456	45.58932
	-76.67474	45.58885
	-76.67482	45.58853
	-76.6749	45.58784
	-76.67497	45.58756
	-76.675	45.58737
	-76.67501	45.58724
	-76.675	45.58688
	-76.67503	45.5868
	-76.67504	45.58657
	-76.67506	45.58646
	-76.67495	45.58593
	-76.67487	45.58527
	-76.67479	45.58497
	-76.67471	45.58478
	-76.67447	45.58437
	-76.6743	45.58406
	-76.67428	45.584
	-76.67423	45.58396
	-76.67422	45.58388
	-76.67406	45.5836
	-76.67399	45.5835
	-76.67382	45.58332
	-76.67343	45.58282
	-76.67329	45.58266
	-76.67314	45.58242
	-76.67288	45.58194
	-76.67284	45.58183
	-76.67269	45.58158
	-76.67245	45.58112
	-76.67219	45.58058
	-76.67186	45.57981
	-76.67167	45.57944
	-76.67145	45.57892
	-76.67121	45.57848
	-76.66566	45.57067
	-76.6654	45.57034
	-76.66512	45.56984
	-76.66498	45.56964
	-76.6647	45.56899
	-76.66451	45.56862
	-76.66428	45.56823
	-76.66414	45.56792
	-76.66397	45.56765
	-76.66392	45.5675
	-76.66378	45.56724
	-76.6636	45.56685
	-76.66312	45.56604
	-76.66299	45.56585
	-76.6628	45.56548
	-76.66247	45.56492
	-76.66187	45.56401
	-76.66144	45.56332
	-76.66125	45.56294
	-76.66077	45.5621
	-76.66048	45.56163
	-76.66038	45.5614
	-76.65973	45.56029
	-76.65957	45.56006
	-76.65944	45.55983
	-76.65924	45.5596
	-76.65908	45.55944
	-76.65863	45.55902
	-76.65841	45.55884
	-76.65782	45.55844
	-76.65709	45.55807
	-76.65678	45.55793
	-76.65643	45.5578
	-76.65601	45.55767
	-76.65559	45.55751
	-76.65515	45.5574
	-76.6547	45.55727
	-76.65418	45.55709
	-76.65335	45.55683
	-76.65294	45.55666
	-76.65255	45.55647
	-76.65214	45.55631
	-76.65141	45.55592
	-76.65104	45.5557
	-76.65054	45.55537
	-76.65025	45.5552
	-76.64996	45.55505
	-76.64959	45.55483
	-76.64906	45.55439
	-76.64867	45.55412
	-76.64825	45.55392
	-76.6479	45.55378
	-76.64753	45.55358
	-76.64665	45.55324
	-76.64613	45.55302
	-76.64478	45.55254
	-76.64437	45.55235
	-76.64391	45.55219
	-76.64332	45.55191
	-76.64236	45.55139
	-76.64152	45.55088
	-76.64113	45.55057
	-76.64021	45.54969
	-76.63917	45.54878
	-76.63882	45.54842
	-76.63848	45.54814
	-76.63813	45.54789
	-76.63763	45.54758
	-76.63707	45.54721
	-76.63565	45.54634
	-76.63433	45.54558
	-76.63248	45.54472
	-76.63123	45.54421
	-76.62979	45.54355
	-76.62848	45.54286
	-76.62717	45.54221
	-76.62643	45.54186
	-76.6255	45.54149
	-76.62305	45.5406
	-76.62232	45.54032
	-76.62192	45.54012
	-76.62086	45.53956
	-76.62041	45.53928
	-76.61939	45.53857
	-76.61906	45.53837
	-76.61881	45.5382
	-76.61833	45.53792
	-76.61773	45.53762
	-76.61641	45.53706
	-76.61558	45.53661
	-76.61478	45.53614
	-76.61361	45.53542
	-76.61298	45.535
	-76.61236	45.53463
	-76.61136	45.53411
	-76.61021	45.53355
	-76.60915	45.53297
	-76.60741	45.53207
	-76.60047	45.53136
	-76.59692	45.53097
	-76.57586	45.52796
	-76.57269	45.52742
	-76.56747	45.52652
	-76.56267	45.52567
	-76.55441	45.52419
	-76.549	45.5232
	-76.54762	45.52289
	-76.54033	45.52113
	-76.53612	45.52004
	-76.53126	45.51892
	-76.5295	45.51857
	-76.52778	45.51825
	-76.519	45.51696
	-76.51782	45.51686
	-76.51606	45.51673
	-76.51491	45.51675
	-76.51412	45.51673
	-76.51283	45.51677
	-76.51083	45.51686
	-76.50914	45.51701
	-76.50766	45.5172
	-76.50456	45.51772
	-76.50356	45.51783
	-76.50256	45.51791
	-76.50187	45.51789
	-76.50097	45.51781
	-76.49979	45.51751
	-76.49892	45.51724
	-76.49824	45.51696
	-76.49758	45.51658
	-76.49686	45.51614
	-76.49535	45.51502
	-76.49204	45.51266
	-76.48338	45.50655
	-76.48288	45.50623
	-76.48236	45.50592
	-76.48188	45.50554
	-76.48109	45.50504
	-76.48002	45.5046
	-76.47917	45.5043
	-76.47832	45.50407
	-76.47583	45.50328
	-76.47446	45.50286
	-76.47369	45.50267
	-76.47267	45.50248
	-76.47164	45.50243
	-76.466	45.5023
	-76.4635	45.50223
	-76.46145	45.50204
	-76.46002	45.50185
	-76.45884	45.50165
	-76.45747	45.5014
	-76.45575	45.501
	-76.4528	45.50013
	-76.4492	45.49885
	-76.44645	45.49782
	-76.44332	45.49662
	-76.44125	45.49578
	-76.4385	45.49462
	-76.43624	45.49362
	-76.43206	45.49173
	-76.43066	45.49103
	-76.42846	45.48987
	-76.42687	45.48897
	-76.42332	45.48701
	-76.42148	45.48606
	-76.41981	45.48516
	-76.41839	45.48434
	-76.41727	45.4836
	-76.41585	45.48259
	-76.41452	45.48162
	-76.41336	45.48071
	-76.41215	45.47982
	-76.40997	45.47818
	-76.40815	45.47699
	-76.40699	45.47626
	-76.39792	45.47041
	-76.39707	45.46997
	-76.39514	45.46901
	-76.39432	45.46863
	-76.39073	45.46703
	-76.38917	45.46638
	-76.38602	45.46511
	-76.38356	45.46415
	-76.37852	45.46221
	-76.37721	45.46174
	-76.37561	45.46113
	-76.37415	45.46066
	-76.37258	45.46013
	-76.37034	45.45947
	-76.36817	45.45885
	-76.36617	45.4584
	-76.36414	45.45788
	-76.36186	45.45753
	-76.36005	45.45729
	-76.3579	45.4571
	-76.35523	45.45697
	-76.35177	45.45692
	-76.34868	45.45701
	-76.34533	45.45715
	-76.34257	45.45721
	-76.33498	45.45711
	-76.32575	45.45678
	-76.32212	45.45687
	-76.31977	45.45705
	-76.31517	45.45769
	-76.31274	45.45827
	-76.31023	45.4592
	-76.3086	45.45986
	-76.30322	45.4622
	-76.30215	45.46265
	-76.29899	45.46375
	-76.29729	45.46427
	-76.29588	45.46467
	-76.29466	45.46498
	-76.29218	45.4655
	-76.29096	45.46573
	-76.28975	45.46592
	-76.28715	45.46628
	-76.28603	45.46637
	-76.28512	45.46642
	-76.28333	45.46658
	-76.28159	45.46667
	-76.28052	45.46671
	-76.27883	45.46672
	-76.277	45.46678
	-76.27555	45.46699
	-76.2743	45.46724
	-76.27293	45.46745
	-76.27042	45.46765
	-76.26549	45.46796
	-76.26164	45.46817
	-76.2596	45.4682
	-76.25823	45.46816
	-76.2572	45.4681
	-76.2539	45.46796
	-76.25067	45.46785
	-76.24905	45.46786
	-76.24694	45.46796
	-76.24578	45.46807
	-76.24463	45.46825
	-76.24355	45.46848
	-76.24258	45.4688
	-76.24145	45.4694
	-76.24085	45.4699
	-76.24015	45.47092
	-76.23953	45.47217
	-76.23911	45.47332
	-76.23872	45.47514
	-76.23449	45.50538
	-76.23417	45.50665
	-76.23392	45.50723
	-76.23328	45.50818
	-76.23234	45.50889
	-76.2306	45.51004
	-76.22918	45.51079
	-76.22781	45.51143
	-76.22639	45.51196
	-76.22497	45.51245
	-76.22343	45.51296
	-76.22039	45.51387
	-76.21892	45.51443
	-76.21721	45.515
	-76.21342	45.51603
	-76.21184	45.51639
	-76.21022	45.51674
	-76.20771	45.51722
	-76.20459	45.51764
	-76.20052	45.51784
	-76.1972	45.51794
	-76.19219	45.51799
	-76.1885	45.51772
	-76.18672	45.51767
	-76.18466	45.51771
	-76.18316	45.51778
	-76.18146	45.5177
	-76.1787	45.51724
	-76.17678	45.51675
	-76.17502	45.51646
	-76.17255	45.51609
	-76.1709	45.51598
	-76.16924	45.51589
	-76.16681	45.51591
	-76.16102	45.51621
	-76.15192	45.5167
	-76.15107	45.51678
	-76.14944	45.51699
	-76.14779	45.51725
	-76.1462	45.51752
	-76.14461	45.51781
	-76.143	45.51814
	-76.14136	45.51846
	-76.13971	45.51866
	-76.13806	45.51874
	-76.13642	45.51872
	-76.13479	45.51855
	-76.13312	45.51843
	-76.13146	45.51834
	-76.11984	45.51753
	-76.11482	45.51728
	-76.11319	45.51727
	-76.11155	45.51723
	-76.10831	45.51728
	-76.10658	45.51733
	-76.10162	45.51737
	-76.09825	45.51731
	-76.09656	45.51725
	-76.09492	45.51714
	-76.0932	45.51698
	-76.09158	45.51675
	-76.08999	45.51637
	-76.08843	45.51591
	-76.08789	45.51569
	-76.08133	45.51041
	-76.04273	45.49625
	-76.02341	45.49024
	-76.01432	45.48659
	-76.01423	45.48658
	-76.01372	45.48646
	-76.01363	45.48645
	-76.01312	45.48633
	-76.01295	45.4863
	-76.01286	45.48627
	-76.01244	45.48619
	-76.01227	45.48614
	-76.01218	45.48613
	-76.01201	45.48608
	-76.01175	45.48603
	-76.01167	45.486
	-76.01141	45.48595
	-76.01133	45.48592
	-76.01124	45.48591
	-76.00919	45.48543
	-76.00877	45.48532
	-76.00869	45.48531
	-76.00861	45.48528
	-76.00818	45.48519
	-76.0081	45.48516
	-76.00801	45.48515
	-76.00759	45.48504
	-76.00751	45.48501
	-76.00742	45.485
	-76.00726	45.48495
	-76.00716	45.48494
	-76.00709	45.48491
	-76.00607	45.48466
	-76.006	45.48463
	-76.00581	45.4846
	-76.00565	45.48454
	-76.00557	45.48453
	-76.0054	45.48448
	-76.00531	45.48447
	-76.00514	45.48441
	-76.00481	45.48434
	-76.00465	45.48428
	-76.00422	45.48418
	-76.00388	45.48408
	-76.00347	45.48398
	-76.0033	45.48392
	-76.00322	45.48391
	-76.00288	45.48381
	-76.00279	45.4838
	-76.00272	45.48377
	-76.00172	45.4835
	-76.00155	45.48344
	-76.00147	45.48343
	-76.00121	45.48336
	-76.00114	45.48333
	-76.00071	45.48322
	-76.00039	45.48312
	-76.00013	45.48306
	-75.99996	45.483
	-75.99955	45.48289
	-75.99938	45.48283
	-75.99931	45.48282
	-75.99897	45.48271
	-75.99889	45.4827
	-75.99873	45.48264
	-75.99815	45.48248
	-75.99782	45.48237
	-75.99765	45.48233
	-75.99707	45.48215
	-75.9969	45.48211
	-75.99612	45.48185
	-75.99596	45.48178
	-75.99587	45.48176
	-75.99572	45.4817
	-75.99555	45.48166
	-75.99548	45.48162
	-75.99515	45.48151
	-75.99506	45.48149
	-75.99491	45.48143
	-75.99482	45.48142
	-75.99465	45.48137
	-75.99425	45.48123
	-75.99416	45.48122
	-75.99384	45.48111
	-75.99342	45.481
	-75.99334	45.48097
	-75.99274	45.48081
	-75.99267	45.4808
	-75.9925	45.48074
	-75.99242	45.48073
	-75.99225	45.48068
	-75.99216	45.48067
	-75.99191	45.48059
	-75.99182	45.48058
	-75.99165	45.48053
	-75.99156	45.48052
	-75.99139	45.48047
	-75.99131	45.48046
	-75.99055	45.48028
	-75.99011	45.4802
	-75.98994	45.48015
	-75.98925	45.48003
	-75.989	45.47997
	-75.9883	45.47985
	-75.98812	45.47983
	-75.98795	45.47979
	-75.98787	45.47979
	-75.98769	45.47975
	-75.98725	45.47968
	-75.98716	45.47968
	-75.98691	45.47963
	-75.98646	45.47958
	-75.98637	45.47956
	-75.98629	45.47956
	-75.98593	45.4795
	-75.98584	45.4795
	-75.98557	45.47947
	-75.98548	45.47945
	-75.98514	45.47942
	-75.98505	45.4794
	-75.98495	45.4794
	-75.98452	45.47935
	-75.98443	45.47935
	-75.98407	45.47931
	-75.98389	45.47931
	-75.98365	45.47927
	-75.98348	45.47926
	-75.98322	45.47921
	-75.98312	45.47921
	-75.98243	45.47909
	-75.98225	45.47907
	-75.98209	45.47903
	-75.98199	45.47902
	-75.9813	45.47889
	-75.98104	45.47882
	-75.98079	45.47878
	-75.97961	45.47849
	-75.9791	45.47835
	-75.97894	45.47829
	-75.97886	45.47828
	-75.97843	45.47816
	-75.97804	45.47802
	-75.97794	45.478
	-75.97779	45.47794
	-75.9777	45.47792
	-75.97739	45.4778
	-75.9773	45.47778
	-75.97715	45.47771
	-75.97698	45.47767
	-75.97604	45.47729
	-75.97596	45.47727
	-75.97551	45.47706
	-75.97543	45.47704
	-75.97536	45.477
	-75.97512	45.4769
	-75.97461	45.47666
	-75.97409	45.4764
	-75.97403	45.47636
	-75.97373	45.47622
	-75.97338	45.47602
	-75.9733	45.47599
	-75.97324	45.47594
	-75.97275	45.47567
	-75.97269	45.47562
	-75.97262	45.47559
	-75.97256	45.47554
	-75.97241	45.47546
	-75.97195	45.47517
	-75.97189	45.47511
	-75.97182	45.47508
	-75.97163	45.47494
	-75.97117	45.47464
	-75.97112	45.47459
	-75.97092	45.47446
	-75.9705	45.47414
	-75.97044	45.47408
	-75.97031	45.474
	-75.97026	45.47394
	-75.97015	45.47385
	-75.97008	45.47381
	-75.97003	45.47375
	-75.96996	45.47371
	-75.96974	45.47351
	-75.96956	45.47337
	-75.96941	45.47322
	-75.96896	45.47282
	-75.96876	45.47261
	-75.96854	45.47241
	-75.96851	45.47235
	-75.96819	45.47204
	-75.9676	45.47134
	-75.96754	45.47129
	-75.96745	45.47118
	-75.96742	45.47112
	-75.96724	45.47091
	-75.96696	45.47051
	-75.96678	45.47029
	-75.96672	45.47017
	-75.96648	45.46983
	-75.96645	45.46976
	-75.96628	45.46961
	-75.96556	45.46888
	-75.96545	45.46879
	-75.96535	45.46868
	-75.96529	45.46864
	-75.96525	45.46858
	-75.96503	45.46838
	-75.96499	45.46832
	-75.96472	45.46807
	-75.96457	45.46791
	-75.96446	45.46782
	-75.96442	45.46776
	-75.96424	45.46761
	-75.96311	45.46646
	-75.95895	45.46271
	-75.95319	45.4578
	-75.94505	45.44921
	-75.93825	45.44055
	-75.9332	45.43407
	-75.92741	45.42786
	-75.92109	45.42181
	-75.90773	45.41063
	-75.90279	45.40696
	-75.89403	45.40119
	-75.88852	45.39768
	-75.86867	45.38441
	-75.85528	45.37996
	-75.84512	45.37739
	-75.83778	45.37405
	-75.82973	45.37315
	-75.82938	45.37309
	-75.82929	45.37309
	-75.82886	45.373
	-75.82877	45.373
	-75.8278	45.37286
	-75.82727	45.3728
	-75.82718	45.37278
	-75.827	45.37277
	-75.82693	45.37275
	-75.82684	45.37275
	-75.82657	45.37271
	-75.82648	45.37271
	-75.82621	45.37267
	-75.82612	45.37267
	-75.82568	45.37262
	-75.8247	45.37255
	-75.82443	45.37252
	-75.82425	45.37252
	-75.82373	45.37247
	-75.82346	45.37247
	-75.8231	45.37244
	-75.82283	45.37244
	-75.8223	45.37241
	-75.82194	45.37241
	-75.82158	45.37239
	-75.82015	45.37238
	-75.82006	45.37239
	-75.81845	45.37241
	-75.81837	45.37243
	-75.81818	45.37242
	-75.81809	45.37244
	-75.81747	45.37246
	-75.81604	45.37255
	-75.81543	45.37261
	-75.81533	45.37261
	-75.81471	45.37268
	-75.81454	45.37268
	-75.81445	45.3727
	-75.81436	45.3727
	-75.81418	45.37273
	-75.81409	45.37273
	-75.814	45.37275
	-75.81382	45.37276
	-75.81366	45.37279
	-75.81312	45.37285
	-75.81251	45.37294
	-75.81242	45.37294
	-75.81145	45.3731
	-75.81138	45.3731
	-75.81058	45.37325
	-75.81033	45.37328
	-75.80972	45.37341
	-75.80964	45.37341
	-75.8093	45.37349
	-75.80903	45.37353
	-75.80792	45.37378
	-75.80783	45.37379
	-75.80776	45.37382
	-75.80707	45.37398
	-75.80683	45.37405
	-75.80665	45.37408
	-75.80632	45.37418
	-75.80531	45.37444
	-75.80515	45.3745
	-75.80474	45.37461
	-75.80424	45.37477
	-75.80408	45.37481
	-75.80392	45.37487
	-75.80375	45.37491
	-75.80319	45.37511
	-75.80302	45.37515
	-75.80247	45.37535
	-75.80238	45.37537
	-75.8023	45.37541
	-75.80183	45.37558
	-75.80174	45.3756
	-75.80159	45.37567
	-75.8015	45.37569
	-75.80134	45.37575
	-75.80127	45.37579
	-75.80119	45.37581
	-75.8008	45.37596
	-75.80073	45.376
	-75.80056	45.37605
	-75.80041	45.37612
	-75.79971	45.3764
	-75.79964	45.37644
	-75.79956	45.37646
	-75.79941	45.37654
	-75.79933	45.37656
	-75.7991	45.37667
	-75.79849	45.37693
	-75.79843	45.37697
	-75.7982	45.37708
	-75.79805	45.37714
	-75.79738	45.37746
	-75.79716	45.37758
	-75.79692	45.37774
	-75.79684	45.37776
	-75.79652	45.37789
	-75.79645	45.37793
	-75.79637	45.37795
	-75.79622	45.37802
	-75.79614	45.37804
	-75.79591	45.37815
	-75.79583	45.37817
	-75.79545	45.37834
	-75.79537	45.37836
	-75.79522	45.37844
	-75.79423	45.37886
	-75.79385	45.37904
	-75.79369	45.3791
	-75.79347	45.37921
	-75.7934	45.37923
	-75.79325	45.37931
	-75.79295	45.37944
	-75.79281	45.37952
	-75.7925	45.37965
	-75.7922	45.37979
	-75.79206	45.37987
	-75.79153	45.38011
	-75.79082	45.38048
	-75.79066	45.38055
	-75.7906	45.38059
	-75.79029	45.38073
	-75.79008	45.38084
	-75.79002	45.38089
	-75.78994	45.38092
	-75.7895	45.38115
	-75.78937	45.38123
	-75.78929	45.38126
	-75.78908	45.38137
	-75.7888	45.38153
	-75.78872	45.38156
	-75.78824	45.38184
	-75.78816	45.38187
	-75.78809	45.38192
	-75.78795	45.38199
	-75.78789	45.38204
	-75.78781	45.38207
	-75.78705	45.3825
	-75.78699	45.38255
	-75.78691	45.38258
	-75.78615	45.38303
	-75.78609	45.38308
	-75.78588	45.38319
	-75.78582	45.38324
	-75.78574	45.38327
	-75.78568	45.38332
	-75.78534	45.38352
	-75.78528	45.38357
	-75.78513	45.38365
	-75.78494	45.38378
	-75.78487	45.38381
	-75.78461	45.38399
	-75.7844	45.38411
	-75.78434	45.38416
	-75.78427	45.38419
	-75.78415	45.38429
	-75.78394	45.38441
	-75.78362	45.38462
	-75.78253	45.38537
	-75.78233	45.38549
	-75.78182	45.38586
	-75.78175	45.38589
	-75.78171	45.38594
	-75.78133	45.38622
	-75.78107	45.38639
	-75.78071	45.38667
	-75.78021	45.38703
	-75.78004	45.38718
	-75.77985	45.38731
	-75.77949	45.3876
	-75.77937	45.38768
	-75.77932	45.38774
	-75.77913	45.38787
	-75.77879	45.38816
	-75.77872	45.3882
	-75.77866	45.38826
	-75.77859	45.3883
	-75.77855	45.38835
	-75.77848	45.38839
	-75.77844	45.38845
	-75.77825	45.38858
	-75.77803	45.38878
	-75.7779	45.38887
	-75.77785	45.38893
	-75.77767	45.38907
	-75.77763	45.38912
	-75.77756	45.38916
	-75.77751	45.38922
	-75.77744	45.38926
	-75.7774	45.38932
	-75.77722	45.38945
	-75.77701	45.38966
	-75.77694	45.3897
	-75.77689	45.38976
	-75.7766	45.39
	-75.77535	45.39115
	-75.77489	45.39161
	-75.77477	45.39171
	-75.77462	45.39187
	-75.77435	45.39212
	-75.77425	45.39222
	-75.77421	45.39228
	-75.7739	45.39258
	-75.77315	45.39337
	-75.77299	45.39352
	-75.77296	45.39358
	-75.77286	45.39369
	-75.7728	45.39373
	-75.77262	45.39395
	-75.77251	45.39405
	-75.77209	45.39454
	-75.77193	45.3947
	-75.77158	45.39513
	-75.77152	45.39518
	-75.77135	45.3954
	-75.77129	45.39545
	-75.77058	45.39632
	-75.77055	45.39638
	-75.77049	45.39643
	-75.7704	45.39654
	-75.77037	45.3966
	-75.77016	45.39687
	-75.77001	45.39704
	-75.76944	45.39782
	-75.76926	45.39804
	-75.76899	45.39844
	-75.76886	45.3986
	-75.76858	45.399
	-75.76833	45.3994
	-75.76817	45.39962
	-75.76772	45.40031
	-75.76769	45.40038
	-75.76742	45.40077
	-75.7674	45.40084
	-75.76724	45.40106
	-75.76722	45.40113
	-75.76714	45.40124
	-75.76669	45.40199
	-75.76667	45.40206
	-75.76655	45.40223
	-75.76653	45.40229
	-75.76649	45.40234
	-75.76647	45.40241
	-75.76632	45.40266
	-75.76627	45.40278
	-75.76553	45.40401
	-75.76545	45.40418
	-75.7653	45.40442
	-75.76507	45.40469
	-75.76492	45.40484
	-75.76485	45.40488
	-75.76481	45.40494
	-75.7645	45.40517
	-75.76424	45.40534
	-75.76414	45.40538
	-75.76357	45.40578
	-75.76334	45.40598
	-75.76321	45.40607
	-75.76268	45.40657
	-75.76246	45.40685
	-75.76235	45.40696
	-75.7621	45.40729
	-75.76178	45.40781
	-75.76176	45.40787
	-75.76172	45.40792
	-75.7616	45.40816
	-75.76157	45.40826
	-75.76148	45.40837
	-75.76133	45.4086
	-75.76084	45.4092
	-75.76063	45.4094
	-75.76054	45.40952
	-75.76048	45.40956
	-75.76017	45.40987
	-75.75983	45.41017
	-75.75971	45.41026
	-75.75961	45.41036
	-75.75923	45.41063
	-75.75906	45.41077
	-75.75898	45.41081
	-75.7586	45.41108
	-75.75852	45.41111
	-75.75834	45.41124
	-75.75826	45.41127
	-75.75792	45.41148
	-75.75784	45.41151
	-75.75756	45.41167
	-75.75689	45.41199
	-75.75681	45.41201
	-75.75666	45.41209
	-75.75658	45.41211
	-75.75635	45.41222
	-75.7562	45.41227
	-75.75613	45.41231
	-75.75604	45.41233
	-75.75581	45.41242
	-75.75507	45.41267
	-75.755	45.41268
	-75.75432	45.41287
	-75.75407	45.41292
	-75.75381	45.41299
	-75.75287	45.41317
	-75.75278	45.41317
	-75.75269	45.41319
	-75.75242	45.41322
	-75.75234	45.41324
	-75.75147	45.41333
	-75.75111	45.4133
	-75.75058	45.41329
	-75.75031	45.41327
	-75.74879	45.41327
	-75.74852	45.41328
	-75.74834	45.4133
	-75.74789	45.41331
	-75.74781	45.41333
	-75.74754	45.41333
	-75.74745	45.41335
	-75.74726	45.41336
	-75.73745	45.41529
	-75.73465	45.41616
	-75.73341	45.41608
	-75.73206	45.41655
	-75.72997	45.41721
	-75.72487	45.41724
	-75.72397	45.41771
	-75.72365	45.41885
	-75.72383	45.42042
	-75.72364	45.42153
	-75.72266	45.42203
	-75.72096	45.42207
	-75.71922	45.42173
	-75.71778	45.42154
	-75.71384	45.42249
	-75.70953	45.4233
	-75.70641	45.42548
	-75.70432	45.42698
	-75.70285	45.43715
	-75.70281	45.43724
	-75.69911	45.44326
	-75.69821	45.4446
	-75.69553	45.44875
	-75.6939	45.45069
	-75.6923	45.45263
	-75.69063	45.45438
	-75.69032	45.45467
	-75.68876	45.45587
	-75.68696	45.45706
	-75.68545	45.45789
	-75.6837	45.45871
	-75.6816	45.45947
	-75.67918	45.46
	-75.67616	45.46054
	-75.65827	45.46283
	-75.65054	45.46398
	-75.63936	45.46561
	-75.63921	45.46565
	-75.63652	45.46614
	-75.63485	45.4665
	-75.63293	45.46696
	-75.63016	45.46771
	-75.62786	45.46849
	-75.62708	45.46881
	-75.62601	45.46928
	-75.62447	45.46993
	-75.62333	45.47037
	-75.62092	45.47115
	-75.61925	45.47149
	-75.6165	45.47186
	-75.61481	45.472
	-75.61256	45.47205
	-75.60821	45.4721
	-75.59811	45.47219
	-75.59502	45.47228
	-75.58897	45.4726
	-75.58626	45.47284
	-75.58375	45.47309
	-75.58166	45.47333
	-75.57984	45.47361
	-75.57814	45.47393
	-75.57671	45.47427
	-75.57568	45.47454
	-75.57464	45.47491
	-75.57337	45.47527
	-75.57204	45.47569
	-75.5706	45.4762
	-75.56904	45.47695
	-75.56731	45.47789
	-75.566	45.47887
	-75.56458	45.47981
	-75.56291	45.48085
	-75.56114	45.48189
	-75.55978	45.48263
	-75.55829	45.48339
	-75.55662	45.48406
	-75.55463	45.48467
	-75.55213	45.48529
	-75.54971	45.48581
	-75.54758	45.4865
	-75.54513	45.48767
	-75.54318	45.48878
	-75.54128	45.48982
	-75.5385	45.4913
	-75.53772	45.49176
	-75.53456	45.49337
	-75.53069	45.49488
	-75.52585	45.4967
	-75.52332	45.49768
	-75.52099	45.49856
	-75.51537	45.50062
	-75.51306	45.50127
	-75.51161	45.50177
	-75.49437	45.5081
	-75.49235	45.50896
	-75.47861	45.51344
	-75.47243	45.51454
	-75.47055	45.51476
	-75.47028	45.51478
	-75.47021	45.5148
	-75.46994	45.51484
	-75.46976	45.51485
	-75.46932	45.51492
	-75.46906	45.51498
	-75.46898	45.51498
	-75.46829	45.51512
	-75.46803	45.51518
	-75.46795	45.51521
	-75.46786	45.51522
	-75.4676	45.51529
	-75.46744	45.51532
	-75.46719	45.5154
	-75.46693	45.51546
	-75.46677	45.51552
	-75.46669	45.51553
	-75.46645	45.51562
	-75.46603	45.51574
	-75.46547	45.51594
	-75.46538	45.51596
	-75.46491	45.51613
	-75.46474	45.51618
	-75.46435	45.51633
	-75.46426	45.51635
	-75.4638	45.51654
	-75.46363	45.51659
	-75.46333	45.51672
	-75.46274	45.51694
	-75.46266	45.51698
	-75.46242	45.51706
	-75.46234	45.5171
	-75.46217	45.51715
	-75.46162	45.51736
	-75.46113	45.51751
	-75.46098	45.51757
	-75.46088	45.51759
	-75.4604	45.51775
	-75.46014	45.51782
	-75.46007	45.51785
	-75.45981	45.51791
	-75.45957	45.51799
	-75.45922	45.51808
	-75.45914	45.51809
	-75.45889	45.51817
	-75.45873	45.5182
	-75.45796	45.5184
	-75.45634	45.51874
	-75.45615	45.51876
	-75.45599	45.5188
	-75.45556	45.51888
	-75.45538	45.5189
	-75.45485	45.51899
	-75.45458	45.51902
	-75.45397	45.51912
	-75.45388	45.51912
	-75.45335	45.51918
	-75.45327	45.5192
	-75.45318	45.5192
	-75.45309	45.51922
	-75.45291	45.51923
	-75.45248	45.51928
	-75.45214	45.51934
	-75.45187	45.51937
	-75.45178	45.51939
	-75.45169	45.51939
	-75.45118	45.51949
	-75.45091	45.51952
	-75.45074	45.51956
	-75.45031	45.51963
	-75.44961	45.51976
	-75.44919	45.51986
	-75.4491	45.51987
	-75.44833	45.52004
	-75.44815	45.52007
	-75.44782	45.52016
	-75.44775	45.52016
	-75.44763	45.52025
	-75.4474	45.52032
	-75.44595	45.52058
	-75.44579	45.52063
	-75.44553	45.52068
	-75.44535	45.5207
	-75.44508	45.5207
	-75.44474	45.52066
	-75.44434	45.52064
	-75.44407	45.52061
	-75.4438	45.5206
	-75.44344	45.52056
	-75.44273	45.52051
	-75.44247	45.52048
	-75.4422	45.52047
	-75.44193	45.52044
	-75.44157	45.52042
	-75.44148	45.5204
	-75.44131	45.5204
	-75.44086	45.52036
	-75.44069	45.52036
	-75.44006	45.5203
	-75.43971	45.52029
	-75.43925	45.52025
	-75.4388	45.52023
	-75.43819	45.52018
	-75.438	45.52018
	-75.43739	45.52013
	-75.43712	45.52013
	-75.43631	45.52007
	-75.43622	45.52008
	-75.43541	45.52002
	-75.43514	45.52002
	-75.43435	45.51997
	-75.43408	45.51997
	-75.43388	45.51995
	-75.43372	45.51995
	-75.43327	45.51992
	-75.43301	45.51992
	-75.43211	45.51987
	-75.43175	45.51987
	-75.43076	45.51982
	-75.43058	45.51983
	-75.42969	45.51979
	-75.42924	45.51979
	-75.42825	45.51975
	-75.42799	45.51976
	-75.42789	45.51974
	-75.42763	45.51975
	-75.42727	45.51973
	-75.4269	45.51973
	-75.42601	45.51965
	-75.42574	45.51965
	-75.42538	45.51963
	-75.42431	45.51963
	-75.42412	45.51964
	-75.42323	45.5197
	-75.42226	45.51981
	-75.42155	45.51992
	-75.42139	45.51996
	-75.42113	45.52
	-75.4207	45.5201
	-75.42052	45.52013
	-75.42019	45.52023
	-75.4201	45.52024
	-75.41985	45.52032
	-75.4196	45.52038
	-75.41945	45.52044
	-75.41911	45.52053
	-75.41879	45.52065
	-75.41871	45.52067
	-75.41856	45.52074
	-75.41831	45.52082
	-75.41731	45.52124
	-75.41717	45.52132
	-75.41673	45.52153
	-75.41666	45.52158
	-75.41657	45.52161
	-75.41645	45.52171
	-75.41637	45.52174
	-75.41631	45.52179
	-75.41602	45.52194
	-75.41596	45.52199
	-75.41567	45.52213
	-75.4156	45.52218
	-75.41508	45.52242
	-75.41438	45.52271
	-75.41397	45.52284
	-75.41382	45.5229
	-75.41299	45.52313
	-75.41221	45.5233
	-75.41213	45.5233
	-75.41161	45.5234
	-75.41143	45.52341
	-75.41134	45.52343
	-75.41125	45.52343
	-75.41116	45.52345
	-75.41098	45.52346
	-75.41089	45.52348
	-75.4108	45.52348
	-75.41054	45.52351
	-75.40992	45.52354
	-75.40929	45.52354
	-75.4092	45.52353
	-75.40884	45.52353
	-75.40839	45.5235
	-75.40804	45.52346
	-75.40784	45.52345
	-75.40775	45.52343
	-75.40741	45.5234
	-75.40732	45.52338
	-75.40705	45.52337
	-75.40678	45.52334
	-75.4057	45.52329
	-75.40454	45.5233
	-75.404	45.52333
	-75.40373	45.52333
	-75.40364	45.52335
	-75.40347	45.52335
	-75.40337	45.52337
	-75.40336	45.52336
	-75.40318	45.52333
	-75.40301	45.52331
	-75.40283	45.52331
	-75.4026	45.52334
	-75.40251	45.52334
	-75.40243	45.52333
	-75.40179	45.52332
	-75.4009	45.52328
	-75.40072	45.52329
	-75.40063	45.52328
	-75.40054	45.52329
	-75.40045	45.52327
	-75.40036	45.52328
	-75.39964	45.52327
	-75.39956	45.52326
	-75.39713	45.52327
	-75.39705	45.52328
	-75.3966	45.52328
	-75.39615	45.5233
	-75.39579	45.5233
	-75.3949	45.52334
	-75.39471	45.52334
	-75.39301	45.52343
	-75.39285	45.52345
	-75.39249	45.52346
	-75.3924	45.52348
	-75.39222	45.52348
	-75.39169	45.52355
	-75.39152	45.52359
	-75.39143	45.52359
	-75.39101	45.52369
	-75.39082	45.52372
	-75.39059	45.5238
	-75.39042	45.52384
	-75.39017	45.52392
	-75.3897	45.5241
	-75.38924	45.5243
	-75.38888	45.52449
	-75.38841	45.52478
	-75.38797	45.52511
	-75.3879	45.52515
	-75.38778	45.52525
	-75.38704	45.52571
	-75.38683	45.52581
	-75.38676	45.52586
	-75.38654	45.52597
	-75.38646	45.526
	-75.38625	45.52612
	-75.38602	45.52621
	-75.38596	45.52625
	-75.38541	45.52647
	-75.38509	45.52658
	-75.38484	45.52669
	-75.38476	45.52671
	-75.38439	45.52689
	-75.38412	45.52705
	-75.38405	45.52708
	-75.38391	45.52718
	-75.38384	45.52721
	-75.38148	45.52802
	-75.38034	45.52843
	-75.37917	45.52879
	-75.37796	45.52909
	-75.37671	45.52927
	-75.37544	45.52942
	-75.37419	45.52959
	-75.37295	45.52982
	-75.37172	45.53008
	-75.37051	45.53037
	-75.36562	45.53143
	-75.36196	45.53227
	-75.35832	45.53313
	-75.35471	45.53403
	-75.3523	45.53465
	-75.3487	45.53561
	-75.34394	45.53694
	-75.34276	45.53728
	-75.34158	45.53764
	-75.34039	45.53798
	-75.33779	45.53877
	-75.33428	45.53986
	-75.33195	45.5406
	-75.32848	45.54175
	-75.32617	45.54254
	-75.32159	45.54415
	-75.3198	45.54481
	-75.31931	45.54495
	-75.31861	45.54523
	-75.31844	45.54533
	-75.3178	45.54558
	-75.31719	45.54589
	-75.31687	45.54602
	-75.31635	45.5463
	-75.31611	45.54639
	-75.31604	45.54645
	-75.31594	45.54651
	-75.31548	45.5467
	-75.31496	45.54697
	-75.31479	45.54703
	-75.31465	45.5471
	-75.31422	45.54725
	-75.31344	45.54763
	-75.31319	45.54773
	-75.3129	45.54789
	-75.31285	45.5479
	-75.31268	45.548
	-75.31238	45.54811
	-75.3123	45.54816
	-75.31136	45.54862
	-75.31079	45.54893
	-75.31066	45.54898
	-75.31029	45.54917
	-75.30997	45.54934
	-75.3095	45.54962
	-75.30937	45.54966
	-75.30928	45.54972
	-75.3092	45.54975
	-75.30917	45.54978
	-75.30907	45.54982
	-75.30884	45.54995
	-75.30878	45.55
	-75.30865	45.55005
	-75.30854	45.55011
	-75.3083	45.55027
	-75.30785	45.55051
	-75.30769	45.55063
	-75.30759	45.55067
	-75.30736	45.55083
	-75.30689	45.55108
	-75.30634	45.55149
	-75.30611	45.55164
	-75.30592	45.55181
	-75.30575	45.55192
	-75.30563	45.55202
	-75.30552	45.55214
	-75.30497	45.55256
	-75.30482	45.55273
	-75.30448	45.55302
	-75.3044	45.55313
	-75.30433	45.5532
	-75.30425	45.55325
	-75.30421	45.55332
	-75.30399	45.55351
	-75.30352	45.55404
	-75.30337	45.55424
	-75.30321	45.55439
	-75.30302	45.55465
	-75.3029	45.55478
	-75.30269	45.5551
	-75.30214	45.55579
	-75.30206	45.55593
	-75.30187	45.5562
	-75.30157	45.5567
	-75.30135	45.55696
	-75.30119	45.55719
	-75.30109	45.55728
	-75.30106	45.55734
	-75.301	45.55741
	-75.3009	45.55749
	-75.30084	45.55758
	-75.30073	45.55769
	-75.30068	45.55776
	-75.30016	45.55821
	-75.29995	45.55836
	-75.29976	45.55853
	-75.29959	45.55862
	-75.29951	45.5587
	-75.29941	45.55874
	-75.29928	45.55884
	-75.29892	45.55907
	-75.29878	45.55914
	-75.29846	45.55936
	-75.29829	45.55944
	-75.29799	45.55963
	-75.29779	45.55974
	-75.2971	45.56008
	-75.28777	45.56435
	-75.27393	45.5708
	-75.25596	45.57922
	-75.25454	45.57994
	-75.25342	45.58055
	-75.25243	45.58105
	-75.25106	45.58167
	-75.25046	45.58201
	-75.24995	45.58222
	-75.24859	45.58285
	-75.24804	45.58313
	-75.24758	45.58332
	-75.24723	45.58345
	-75.24686	45.58363
	-75.24648	45.58379
	-75.24564	45.58411
	-75.24541	45.58426
	-75.24387	45.58492
	-75.24305	45.58522
	-75.24227	45.58548
	-75.24152	45.58569
	-75.24077	45.58588
	-75.23967	45.5861
	-75.23854	45.58628
	-75.23743	45.58649
	-75.2354	45.58683
	-75.23386	45.58702
	-75.23277	45.58719
	-75.23216	45.58724
	-75.23111	45.58727
	-75.22948	45.58735
	-75.22724	45.58743
	-75.22485	45.58747
	-75.22325	45.58751
	-75.2196	45.5875
	-75.2175	45.58741
	-75.21529	45.58735
	-75.21373	45.58729
	-75.2131	45.58723
	-75.21223	45.58717
	-75.21121	45.58712
	-75.20885	45.58713
	-75.20776	45.58707
	-75.20666	45.58705
	-75.20544	45.58691
	-75.20467	45.58671
	-75.20286	45.58635
	-75.20187	45.58619
	-75.19949	45.58567
	-75.19833	45.58537
	-75.19761	45.58517
	-75.1953	45.58447
	-75.19346	45.5838
	-75.1926	45.58351
	-75.19188	45.58315
	-75.19183	45.58311
	-75.1917	45.58304
	-75.19161	45.58301
	-75.19131	45.58286
	-75.19092	45.5826
	-75.19076	45.58254
	-75.19037	45.58234
	-75.19025	45.58229
	-75.19007	45.58218
	-75.18981	45.58205
	-75.18966	45.58199
	-75.18951	45.58188
	-75.18915	45.58171
	-75.18903	45.58168
	-75.18855	45.58143
	-75.18834	45.58135
	-75.18813	45.58124
	-75.18745	45.58099
	-75.18722	45.58089
	-75.1869	45.58072
	-75.18633	45.58047
	-75.18595	45.58033
	-75.18578	45.58028
	-75.18507	45.57997
	-75.18274	45.57912
	-75.18243	45.57902
	-75.18187	45.57879
	-75.18169	45.57875
	-75.18127	45.57861
	-75.18079	45.57843
	-75.18035	45.57829
	-75.18027	45.57828
	-75.18015	45.57824
	-75.17978	45.57815
	-75.17963	45.5781
	-75.17951	45.57809
	-75.17899	45.57798
	-75.17863	45.57785
	-75.17838	45.5778
	-75.17814	45.57772
	-75.17789	45.57766
	-75.17752	45.57758
	-75.17739	45.57757
	-75.1772	45.57753
	-75.17709	45.57752
	-75.17645	45.57741
	-75.17616	45.57734
	-75.17575	45.57726
	-75.17516	45.57719
	-75.17477	45.57711
	-75.17456	45.57708
	-75.17436	45.57707
	-75.1736	45.57698
	-75.173	45.57694
	-75.17268	45.5769
	-75.17248	45.57689
	-75.17145	45.5769
	-75.17113	45.57692
	-75.17068	45.57692
	-75.1704	45.57695
	-75.17014	45.57698
	-75.16951	45.57708
	-75.16927	45.5771
	-75.16895	45.57718
	-75.16872	45.57721
	-75.1685	45.57726
	-75.16751	45.57738
	-75.16736	45.57743
	-75.16721	45.57746
	-75.16711	45.5775
	-75.16674	45.57758
	-75.16636	45.57769
	-75.16591	45.57775
	-75.16552	45.57785
	-75.1651	45.57793
	-75.16444	45.57803
	-75.16382	45.57816
	-75.16351	45.57824
	-75.16337	45.57826
	-75.16325	45.57831
	-75.16276	45.57836
	-75.16261	45.5784
	-75.16225	45.57845
	-75.1621	45.57849
	-75.16196	45.57851
	-75.16165	45.57858
	-75.16135	45.57862
	-75.16072	45.57868
	-75.16057	45.57871
	-75.16045	45.57871
	-75.16032	45.57873
	-75.15931	45.57874
	-75.15921	45.57875
	-75.15887	45.57872
	-75.15876	45.57874
	-75.15858	45.57873
	-75.15814	45.57869
	-75.15794	45.57869
	-75.15784	45.57867
	-75.15745	45.57867
	-75.15691	45.57863
	-75.15678	45.57864
	-75.15665	45.57863
	-75.15656	45.57861
	-75.15609	45.57859
	-75.15592	45.5786
	-75.15524	45.57854
	-75.15507	45.57854
	-75.15481	45.57852
	-75.1545	45.57848
	-75.15396	45.57845
	-75.15389	45.57843
	-75.15362	45.57842
	-75.15335	45.57839
	-75.15262	45.57837
	-75.15245	45.57835
	-75.15219	45.5783
	-75.15173	45.57826
	-75.15126	45.57827
	-75.15115	45.57824
	-75.15068	45.57822
	-75.1504	45.57822
	-75.15007	45.57818
	-75.14954	45.57816
	-75.14898	45.57805
	-75.14883	45.57801
	-75.14822	45.578
	-75.14794	45.57798
	-75.1474	45.57793
	-75.14708	45.57788
	-75.14655	45.57782
	-75.14638	45.57778
	-75.14623	45.57776
	-75.14612	45.57772
	-75.14542	45.5776
	-75.14516	45.57757
	-75.14505	45.57754
	-75.14414	45.57742
	-75.14367	45.57734
	-75.14349	45.57733
	-75.14337	45.57729
	-75.14259	45.5772
	-75.14218	45.57717
	-75.14182	45.57713
	-75.1414	45.57705
	-75.14128	45.57704
	-75.14103	45.57699
	-75.14085	45.57694
	-75.14015	45.57683
	-75.13992	45.57678
	-75.13919	45.57671
	-75.13891	45.57664
	-75.13812	45.57658
	-75.13762	45.57649
	-75.13747	45.57648
	-75.13706	45.57642
	-75.13663	45.5764
	-75.13622	45.57634
	-75.13602	45.5763
	-75.13544	45.57625
	-75.13504	45.57618
	-75.13445	45.57617
	-75.13391	45.57612
	-75.13354	45.57611
	-75.13301	45.57613
	-75.13269	45.57613
	-75.13245	45.57615
	-75.13229	45.57615
	-75.13204	45.57617
	-75.13194	45.57619
	-75.13142	45.57619
	-75.13078	45.57623
	-75.13055	45.57622
	-75.1301	45.57625
	-75.12974	45.57631
	-75.12952	45.57632
	-75.12922	45.57636
	-75.12852	45.57647
	-75.12826	45.57653
	-75.12797	45.57654
	-75.12748	45.5766
	-75.12737	45.57659
	-75.12721	45.5766
	-75.12714	45.57662
	-75.12675	45.57662
	-75.12663	45.57663
	-75.12652	45.57666
	-75.12641	45.57665
	-75.12634	45.57666
	-75.12608	45.57666
	-75.12595	45.57668
	-75.12529	45.57671
	-75.1248	45.57676
	-75.12469	45.57676
	-75.1246	45.57679
	-75.12425	45.57681
	-75.12401	45.57679
	-75.12376	45.57683
	-75.12347	45.57685
	-75.12331	45.57689
	-75.12283	45.57695
	-75.12225	45.57699
	-75.12207	45.57703
	-75.1219	45.57705
	-75.12141	45.57707
	-75.12126	45.5771
	-75.12107	45.57712
	-75.12074	45.57714
	-75.12029	45.57722
	-75.1199	45.57724
	-75.11954	45.57733
	-75.11905	45.57737
	-75.11873	45.57743
	-75.11843	45.57747
	-75.1183	45.57747
	-75.11817	45.57751
	-75.11756	45.57764
	-75.11733	45.57767
	-75.1167	45.57778
	-75.11605	45.57796
	-75.11573	45.57801
	-75.11558	45.57806
	-75.11542	45.57808
	-75.11514	45.57814
	-75.11473	45.57828
	-75.11456	45.57831
	-75.11443	45.57837
	-75.11422	45.57844
	-75.11392	45.5785
	-75.11368	45.57858
	-75.11298	45.57884
	-75.11285	45.57885
	-75.11255	45.57895
	-75.11224	45.57901
	-75.11204	45.57908
	-75.11196	45.57912
	-75.11166	45.57919
	-75.11153	45.5792
	-75.11143	45.57925
	-75.11124	45.57932
	-75.11085	45.57943
	-75.1105	45.57951
	-75.1103	45.57959
	-75.11019	45.57962
	-75.11003	45.57969
	-75.10987	45.57972
	-75.10939	45.5799
	-75.10896	45.58003
	-75.10868	45.58014
	-75.10854	45.58017
	-75.10819	45.58028
	-75.10803	45.58035
	-75.1077	45.58044
	-75.10754	45.58051
	-75.10732	45.58058
	-75.10715	45.58062
	-75.1069	45.58072
	-75.1068	45.58074
	-75.10564	45.58112
	-75.10539	45.58119
	-75.10524	45.58126
	-75.10507	45.5813
	-75.10474	45.5814
	-75.10457	45.58147
	-75.10445	45.5815
	-75.10439	45.58153
	-75.10421	45.58158
	-75.10383	45.58171
	-75.10356	45.58178
	-75.1032	45.5819
	-75.10307	45.58193
	-75.10281	45.58202
	-75.10266	45.5821
	-75.10255	45.58214
	-75.10236	45.58217
	-75.10223	45.58221
	-75.10215	45.58222
	-75.10181	45.58239
	-75.10156	45.5825
	-75.10107	45.58266
	-75.10085	45.58276
	-75.10074	45.58279
	-75.10042	45.58293
	-75.10025	45.58298
	-75.10013	45.58304
	-75.09996	45.5831
	-75.09955	45.58329
	-75.09945	45.58331
	-75.09923	45.58341
	-75.09905	45.58346
	-75.09891	45.58354
	-75.09856	45.58366
	-75.09827	45.58382
	-75.09796	45.58395
	-75.09789	45.58396
	-75.09782	45.584
	-75.09712	45.5843
	-75.09702	45.58432
	-75.09694	45.58437
	-75.09683	45.58442
	-75.09678	45.58443
	-75.09672	45.58447
	-75.09649	45.58458
	-75.09634	45.58463
	-75.096	45.58479
	-75.09591	45.58485
	-75.09555	45.58502
	-75.09502	45.58524
	-75.09449	45.58548
	-75.09406	45.58566
	-75.09395	45.58569
	-75.09361	45.58588
	-75.09331	45.58599
	-75.09322	45.58605
	-75.09295	45.58618
	-75.09271	45.58627
	-75.09249	45.58639
	-75.09235	45.58644
	-75.09222	45.58651
	-75.09181	45.58667
	-75.09168	45.58671
	-75.09111	45.58697
	-75.09072	45.58717
	-75.09034	45.58731
	-75.08934	45.58776
	-75.08912	45.58784
	-75.08889	45.58797
	-75.08868	45.58806
	-75.08772	45.58854
	-75.08717	45.58879
	-75.08684	45.58897
	-75.08666	45.58903
	-75.08644	45.58914
	-75.08616	45.58926
	-75.08606	45.58932
	-75.08562	45.58947
	-75.08523	45.58963
	-75.08504	45.58967
	-75.08468	45.58981
	-75.08453	45.58984
	-75.08437	45.5899
	-75.08417	45.58992
	-75.08384	45.59
	-75.08366	45.59006
	-75.08342	45.5901
	-75.0832	45.59016
	-75.08293	45.59021
	-75.0826	45.59029
	-75.08246	45.5903
	-75.08221	45.59036
	-75.0821	45.59037
	-75.08155	45.59047
	-75.08129	45.5905
	-75.08087	45.59058
	-75.08074	45.59058
	-75.08029	45.59063
	-75.08003	45.59064
	-75.07972	45.59068
	-75.07948	45.59069
	-75.07924	45.59073
	-75.07854	45.59077
	-75.07797	45.59083
	-75.0775	45.59084
	-75.07691	45.59087
	-75.07673	45.59089
	-75.07622	45.59091
	-75.07614	45.59089
	-75.07607	45.59089
	-75.07546	45.59093
	-75.07531	45.59093
	-75.07515	45.59095
	-75.07471	45.59095
	-75.07396	45.59098
	-75.07309	45.59098
	-75.07194	45.59103
	-75.07149	45.59102
	-75.07115	45.59104
	-75.07079	45.59102
	-75.07049	45.59104
	-75.0703	45.59104
	-75.07008	45.59106
	-75.06985	45.59105
	-75.06929	45.59107
	-75.06873	45.59107
	-75.06813	45.59111
	-75.06778	45.5911
	-75.06733	45.59111
	-75.06708	45.59113
	-75.06655	45.59115
	-75.0664	45.59114
	-75.06618	45.59115
	-75.06568	45.59114
	-75.06536	45.59117
	-75.0648	45.59117
	-75.06469	45.59116
	-75.06448	45.59118
	-75.06401	45.59119
	-75.06371	45.59122
	-75.06297	45.59122
	-75.06005	45.59131
	-75.0586	45.59132
	-75.05736	45.59136
	-75.05626	45.59137
	-75.05357	45.59146
	-75.05267	45.59152
	-75.05118	45.59156
	-75.05018	45.59164
	-75.04886	45.5917
	-75.04642	45.59194
	-75.04558	45.59205
	-75.04465	45.59221
	-75.04379	45.5924
	-75.04177	45.59281
	-75.0409	45.59302
	-75.04017	45.59315
	-75.03853	45.59354
	-75.03785	45.59367
	-75.03646	45.59397
	-75.03568	45.59417
	-75.03477	45.59437
	-75.03288	45.59476
	-75.03152	45.59512
	-75.02979	45.59547
	-75.02837	45.5958
	-75.02702	45.59613
	-75.02474	45.59662
	-75.02359	45.59688
	-75.02236	45.59719
	-75.01954	45.59797
	-75.01875	45.59821
	-75.018	45.59836
	-75.0172	45.59856
	-75.01671	45.5987
	-75.01604	45.59892
	-75.01434	45.59952
	-75.0139	45.59966
	-75.01364	45.59977
	-75.01305	45.59998
	-75.01144	45.60049
	-75.01127	45.60059
	-75.01082	45.60075
	-75.01009	45.60105
	-75.00993	45.60114
	-75.00976	45.6012
	-75.00936	45.6014
	-75.00913	45.6015
	-75.00808	45.60188
	-75.00778	45.60202
	-75.0071	45.6023
	-75.00659	45.60249
	-75.00639	45.60255
	-75.00555	45.6029
	-75.00539	45.60299
	-75.00496	45.60319
	-75.00432	45.60354
	-75.00392	45.60367
	-75.00358	45.60385
	-75.0032	45.604
	-75.00286	45.60416
	-75.00243	45.60432
	-75.00143	45.60479
	-75.001	45.60502
	-75.00076	45.60513
	-75.00053	45.60521
	-75.00013	45.6054
	-74.9996	45.60555
	-74.977	45.61754
	-74.97285	45.61999
	-74.96943	45.62231
	-74.96699	45.6243
	-74.96445	45.6269
	-74.95753	45.6352
	-74.95409	45.63832
	-74.9513	45.64022
	-74.9486	45.64172
	-74.94469	45.64308
	-74.93993	45.64445
	-74.93543	45.64521
	-74.93304	45.64532
	-74.92958	45.64536
	-74.9284	45.64539
	-74.92818	45.64541
	-74.92704	45.64537
	-74.92662	45.64539
	-74.92581	45.64537
	-74.92497	45.6453
	-74.92436	45.6453
	-74.92399	45.64526
	-74.92351	45.64526
	-74.92105	45.64513
	-74.92007	45.64504
	-74.91965	45.64504
	-74.91919	45.64499
	-74.91784	45.64496
	-74.91669	45.64487
	-74.9162	45.64487
	-74.91561	45.6448
	-74.9147	45.64478
	-74.91327	45.64466
	-74.91208	45.64463
	-74.91093	45.64454
	-74.90955	45.64448
	-74.90864	45.6444
	-74.90811	45.6444
	-74.90659	45.64428
	-74.90559	45.64426
	-74.90517	45.64422
	-74.90402	45.6442
	-74.90339	45.64415
	-74.90194	45.64411
	-74.90089	45.64404
	-74.90009	45.64396
	-74.89939	45.64398
	-74.89857	45.64393
	-74.89811	45.64388
	-74.89722	45.64386
	-74.89678	45.64378
	-74.89613	45.64376
	-74.89268	45.64349
	-74.89249	45.6435
	-74.89207	45.64345
	-74.89127	45.64341
	-74.89017	45.64328
	-74.88947	45.64326
	-74.88872	45.64315
	-74.88851	45.64318
	-74.8876	45.64309
	-74.88535	45.64293
	-74.88466	45.64287
	-74.8839	45.64276
	-74.88332	45.64272
	-74.88178	45.64245
	-74.88155	45.64239
	-74.87978	45.64215
	-74.87822	45.64187
	-74.87798	45.64186
	-74.87447	45.64132
	-74.87402	45.64128
	-74.87373	45.6412
	-74.8731	45.64113
	-74.87289	45.64107
	-74.8692	45.64069
	-74.86719	45.64045
	-74.86555	45.64031
	-74.86355	45.64008
	-74.85847	45.6396
	-74.85738	45.63944
	-74.85544	45.63925
	-74.85355	45.63903
	-74.85059	45.63857
	-74.84861	45.63829
	-74.84708	45.63808
	-74.84524	45.63786
	-74.84401	45.63781
	-74.8429	45.63781
	-74.84209	45.63779
	-74.83893	45.63764
	-74.83722	45.63758
	-74.83402	45.63753
	-74.83269	45.63747
	-74.83149	45.63747
	-74.82637	45.63768
	-74.82508	45.63768
	-74.82205	45.63771
	-74.82062	45.63774
	-74.81907	45.63779
	-74.81294	45.6384
	-74.81151	45.63857
	-74.80948	45.63874
	-74.80713	45.63897
	-74.80538	45.63895
	-74.80188	45.63901
	-74.79813	45.63911
	-74.79574	45.63913
	-74.79371	45.63907
	-74.78936	45.63884
	-74.78645	45.63862
	-74.78256	45.63829
	-74.77955	45.63799
	-74.77548	45.63743
	-74.77273	45.63696
	-74.77016	45.6366
	-74.76742	45.63615
	-74.76393	45.6355
	-74.76041	45.63488
	-74.75719	45.63426
	-74.75427	45.63364
	-74.75211	45.63315
	-74.74737	45.63211
	-74.74632	45.63194
	-74.7439	45.63133
	-74.74217	45.63095
	-74.74083	45.63063
	-74.73938	45.63033
	-74.73587	45.62966
	-74.73422	45.62939
	-74.7312	45.62875
	-74.7301	45.62853
	-74.72837	45.62839
	-74.72665	45.62829
	-74.72514	45.62817
	-74.72389	45.62815
	-74.72257	45.6282
	-74.72154	45.62832
	-74.72075	45.62837
	-74.71952	45.62842
	-74.71754	45.62854
	-74.71572	45.62873
	-74.71342	45.62893
	-74.71236	45.62904
	-74.7101	45.62931
	-74.70508	45.62979
	-74.70113	45.63021
	-74.69888	45.63049
	-74.6972	45.63058
	-74.69111	45.6311
	-74.6869	45.63151
	-74.68451	45.63181
	-74.68047	45.63219
	-74.67885	45.63232
	-74.67768	45.63249
	-74.67626	45.63261
	-74.66914	45.63345
	-74.66666	45.63383
	-74.66383	45.63423
	-74.66145	45.63449
	-74.65826	45.63499
	-74.6564	45.63538
	-74.65424	45.63601
	-74.65277	45.63668
	-74.65099	45.63733
	-74.64963	45.63755
	-74.64793	45.63792
	-74.64489	45.63837
	-74.64275	45.63848
	-74.64107	45.63848
	-74.63956	45.63824
	-74.63828	45.63813
	-74.63654	45.63789
	-74.6349	45.63766
	-74.63308	45.63724
	-74.62985	45.63615
	-74.62688	45.63496
	-74.62562	45.63443
	-74.6245	45.63379
	-74.62331	45.633
	-74.62171	45.63177
	-74.62096	45.63106
	-74.6203	45.63024
	-74.61954	45.62941
	-74.61768	45.62759
	-74.61711	45.62707
	-74.61648	45.6264
	-74.61594	45.62592
	-74.61552	45.62559
	-74.61358	45.62429
	-74.61195	45.62334
	-74.61044	45.6226
	-74.60899	45.62186
	-74.60729	45.62107
	-74.60533	45.62027
	-74.60437	45.61992
	-74.601	45.61864
	-74.59973	45.6182
	-74.59849	45.61783
	-74.59681	45.61731
	-74.59507	45.61672
	-74.59322	45.61599
	-74.59153	45.61541
	-74.58906	45.61444
	-74.58626	45.61358
	-74.58363	45.61275
	-74.58075	45.61191
	-74.57851	45.61112
	-74.57544	45.61024
	-74.57224	45.60924
	-74.56995	45.60843
	-74.56789	45.6076
	-74.5638	45.60619
	-74.56199	45.60553
	-74.55962	45.60469
	-74.55701	45.60371
	-74.5508	45.60126
	-74.54952	45.60071
	-74.54893	45.60048
	-74.54723	45.5997
	-74.54587	45.59911
	-74.54501	45.59885
	-74.54424	45.59855
	-74.54382	45.59835
	-74.54342	45.59811
	-74.54143	45.59717
	-74.54071	45.5969
	-74.53992	45.59658
	-74.53786	45.59571
	-74.53316	45.59395
	-74.52853	45.59242
	-74.52708	45.59202
	-74.52614	45.5918
	-74.52531	45.59166
	-74.52432	45.59154
	-74.52335	45.59145
	-74.52005	45.59146
	-74.51894	45.59151
	-74.51793	45.59154
	-74.51499	45.59161
	-74.5141	45.59166
	-74.51194	45.59183
	-74.51088	45.59188
	-74.50964	45.59196
	-74.50851	45.59211
	-74.50518	45.59243
	-74.50434	45.59253
	-74.50334	45.59272
	-74.50251	45.59286
	-74.50187	45.593
	-74.50094	45.59313
	-74.50008	45.59322
	-74.49907	45.59343
	-74.49806	45.5936
	-74.49593	45.59403
	-74.49452	45.59437
	-74.49225	45.59483
	-74.4912	45.59503
	-74.49005	45.59518
	-74.4893	45.59526
	-74.48772	45.59547
	-74.48674	45.59562
	-74.48563	45.5957
	-74.48489	45.5957
	-74.4843	45.59572
	-74.48316	45.59566
	-74.48186	45.59556
	-74.48011	45.59535
	-74.47961	45.59528
	-74.47803	45.5951
	-74.47731	45.59496
	-74.47659	45.59479
	-74.47508	45.59437
	-74.47455	45.59425
	-74.47324	45.59385
	-74.47241	45.59357
	-74.47141	45.59327
	-74.47041	45.59295
	-74.46957	45.59266
	-74.46662	45.59151
	-74.46569	45.5911
	-74.46407	45.59031
	-74.4632	45.58985
	-74.46159	45.58894
	-74.4607	45.58841
	-74.45992	45.58792
	-74.45747	45.58619
	-74.45689	45.58574
	-74.45621	45.58527
	-74.45565	45.58484
	-74.4551	45.58445
	-74.45409	45.58369
	-74.45319	45.58295
	-74.45283	45.58262
	-74.45238	45.58227
	-74.44984	45.58011
	-74.44936	45.57972
	-74.4482	45.57885
	-74.44767	45.57852
	-74.447	45.57813
	-74.44632	45.57776
	-74.44497	45.57707
	-74.44421	45.5767
	-74.44275	45.57607
	-74.44117	45.57545
	-74.43941	45.57481
	-74.43776	45.57433
	-74.43703	45.5741
	-74.43611	45.57389
	-74.43481	45.57351
	-74.43327	45.57313
	-74.43235	45.57294
	-74.43135	45.57276
	-74.43053	45.57268
	-74.4296	45.57267
	-74.42847	45.57271
	-74.42793	45.57274
	-74.42634	45.57287
	-74.42524	45.57294
	-74.4247	45.57299
	-74.4243	45.57297
	-74.4238	45.573
	-74.42336	45.57297
	-74.42287	45.57299
	-74.42065	45.57292
	-74.41984	45.57291
	-74.4187	45.57286
	-74.41818	45.57281
	-74.41531	45.5726
	-74.41209	45.57233
	-74.41036	45.57216
	-74.40871	45.57198
	-74.40707	45.57179
	-74.4054	45.57158
	-74.40215	45.5711
	-74.39978	45.5707
	-74.39886	45.57054
	-74.39728	45.57029
	-74.394	45.56971
	-74.39233	45.56944
	-74.38838	45.56874
	-74.3873	45.56849
	-74.38656	45.5683
	-74.38583	45.56807
	-74.38523	45.56785
	-74.38453	45.56757
	-74.38391	45.56728
	-74.38251	45.56651
	-74.38114	45.56552
	-74.38168	45.56374
	-74.38316	45.55867
	-74.38541	45.55107
	-74.38673	45.5463
	-74.38883	45.53915
	-74.38901	45.53859
	-74.38906	45.53837
	-74.39055	45.53362
	-74.39342	45.52437
	-74.39583	45.52324
	-74.39634	45.52184
	-74.39677	45.52041
	-74.39685	45.51984
	-74.39685	45.51965
	-74.39639	45.51838
	-74.39624	45.5182
	-74.39592	45.51789
	-74.39546	45.51754
	-74.39641	45.5148
	-74.39655	45.51416
	-74.39664	45.51394
	-74.39747	45.51145
	-74.39973	45.5041
	-74.40378	45.49226
	-74.4047	45.48935
	-74.40524	45.48772
	-74.40614	45.4849
	-74.40654	45.4836
	-74.40738	45.48103
	-74.40742	45.48085
	-74.4104	45.47213
	-74.41143	45.46922
	-74.41149	45.46901
	-74.41386	45.46219
	-74.4152	45.45839
	-74.42051	45.44318
	-74.4243	45.43218
	-74.42561	45.42865
	-74.42704	45.42408
	-74.43124	45.41291
	-74.43142	45.41246
	-74.43543	45.40161
	-74.43712	45.39717
	-74.43853	45.39342
	-74.43874	45.39281
	-74.4417	45.38499
	-74.44308	45.38124
	-74.4436	45.3799
	-74.44387	45.37916
	-74.44434	45.37773
	-74.45821	45.34011
	-74.46219	45.32923
	-74.46464	45.32265
	-74.46594	45.3191
	-74.4664	45.31789
	-74.46641	45.31783
	-74.46822	45.313
	-74.46821	45.31299
	-74.46822	45.31295
	-74.46943	45.30973
	-74.47153	45.30402
	-74.47201	45.30277
	-74.47138	45.30231
	-74.47137	45.30229
	-74.46539	45.2978
	-74.46169	45.295
	-74.46135	45.29476
	-74.46117	45.29461
	-74.45965	45.29348
	-74.45547	45.29031
	-74.45392	45.2892
	-74.45026	45.28641
	-74.44306	45.28102
	-74.44093	45.27945
	-74.43384	45.27415
	-74.434	45.27192
	-74.4336	45.2715
	-74.43333	45.27128
	-74.42936	45.26821
	-74.42876	45.26774
	-74.42854	45.26755
	-74.4276	45.2668
	-74.42717	45.26651
	-74.42672	45.26626
	-74.42635	45.26611
	-74.4258	45.26596
	-74.42533	45.26588
	-74.42264	45.26553
	-74.4138	45.25872
	-74.41077	45.25642
	-74.39425	45.24371
	-74.39224	45.24222
	-74.38826	45.23921
	-74.38741	45.23855
	-74.38721	45.23841
	-74.37817	45.23141
	-74.37772	45.23109
	-74.37653	45.23019
	-74.37637	45.23005
	-74.37299	45.22747
	-74.35961	45.21743
	-74.35568	45.21453
	-74.3552	45.21416
	-74.34826	45.20901
	-74.3482	45.20898
	-74.34381	45.20576
	-74.34337	45.20546
	-74.33385	45.19854
	-74.32011	45.18816
	-74.37692	45.15395
	-74.41938	45.14111
	-74.44231	45.13033
	-74.49339	45.06657
	-74.50947	45.07829
	-74.53101	45.06345
	-74.53081	45.05206
	-74.56557	45.04131
	-74.56569	45.04716
	-74.574	45.04362
	-74.59608	45.04169
	-74.6536	45.01917
	-74.65797	45.01682
	-74.6685	45.00428
	-74.67053	45.00628
	-74.67328	45.00083
	-74.67897	45.0001
	-74.6794	45.00004
	-74.6797	45.0
	-74.68356	44.9995
	-74.68602	45.0
	-74.68676	45.00015
	-74.68746	45.00029
	-74.70228	45.00331
	-74.72181	44.99844
	-74.72615	44.99466
	-74.72758	44.9934
	-74.73094	44.99047
	-74.73955	44.9906
	-74.7445	44.99067
	-74.76033	44.995
	-74.76314	45.00572
	-74.79289	45.00442
	-74.79983	45.01081
	-74.80147	45.01456
	-74.81325	45.01356
	-74.81708	45.01158
	-74.82653	45.01586
	-74.83478	45.01464
	-74.84189	45.01128
	-74.84611	45.01031
	-74.85617	45.0045
	-74.86261	45.00456
	-74.86636	45.00047
	-74.87719	45.00144
	-74.88844	44.99997
	-74.90106	44.99256
	-74.90806	44.98353
	-74.94725	44.98486
	-74.97256	44.98347
	-74.99281	44.9775
	-74.99933	44.97175
	-74.99944	44.96614
	-75.00289	44.96244
	-75.00503	44.95842
	-75.02669	44.94664
	-75.04339	44.94076
	-75.05994	44.93447
	-75.06467	44.9295
	-75.09642	44.92706
	-75.10478	44.91964
	-75.11758	44.92108
	-75.13467	44.91506
	-75.14	44.89694
	-75.16497	44.89356
	-75.18889	44.88319
	-75.19417	44.88267
	-75.20289	44.87783
	-75.21839	44.87778
	-75.22825	44.86833
	-75.24103	44.86714
	-75.25608	44.85733
	-75.26831	44.85492
	-75.28486	44.84831
	-75.30742	44.83664
	-75.30189	44.82647
	-75.33356	44.80625
	-75.34442	44.80903
	-75.3573	44.79802
	-75.36958	44.78775
	-75.36994	44.78297
	-75.38786	44.77958
	-75.39653	44.7735
	-75.41372	44.77217
	-75.42364	44.75608
	-75.47611	44.72078
	-75.50492	44.70536
	-75.62003	44.61872
	-75.66133	44.59272
	-75.69933	44.56572
	-75.72028	44.54797
	-75.72331	44.54619
	-75.72586	44.54383
	-75.76692	44.51528
	-75.80758	44.47169
	-75.82139	44.43206
	-75.86164	44.40223
	-75.86992	44.39617
	-75.91283	44.36781
	-75.92167	44.36875
	-75.92953	44.35931
	-75.94083	44.35467
	-75.94972	44.34897
	-75.97019	44.34253
	-75.97292	44.34303
	-75.97503	44.346
	-75.97844	44.3465
	-75.98022	44.34603
	-75.98194	44.34747
	-75.98608	44.34689
	-75.98808	44.34719
	-75.99031	44.34714
	-75.99067	44.34708
	-75.99242	44.34733
	-76.00111	44.34786
	-76.008	44.34419
	-76.0455	44.33181
	-76.09697	44.29972
	-76.11183	44.29808
	-76.11819	44.29492
	-76.12944	44.29514
	-76.13117	44.29639
	-76.16181	44.28072
	-76.16431	44.23983
	-76.19172	44.22142
	-76.20683	44.215
	-76.24547	44.20386
	-76.28667	44.20381
	-76.31272	44.19906
	-76.35286	44.13433
	-76.43894	44.09406
	-76.50114	44.01383
	-76.6122	43.87031
	-76.79669	43.63114
	-76.91574	43.63114
	-77.03202	43.63114
	-77.15107	43.63114
	-77.26735	43.63114
	-77.37181	43.63114
	-77.3864	43.63114
	-77.50268	43.63114
	-77.62172	43.63114
	-77.74077	43.63114
	-77.85982	43.63114
	-77.9761	43.63114
	-78.09515	43.63114
	-78.2142	43.63114
	-78.33048	43.63114
	-78.43297	43.89901
	-78.50318	44.07237
	-78.50293	44.07288
	-78.50222	44.07356
	-78.50165	44.0755
	-78.50175	44.07588
	-78.50281	44.07718
	-78.50308	44.07732
	-78.50495	44.07726
	-78.50512	44.07716
	-78.57728	44.25536
	-78.54444	44.27216
	-78.5499	44.31807
	-78.49042	44.4327
	-78.49337	44.46997
	-78.51616	44.56383
	-78.53528	44.58217
	-78.57118	44.65844
	-78.63456	44.79287
	-78.49377	44.96915
	-78.4768	44.97768
	-78.47605	44.97677
	-78.476	44.97676
	-78.47576	44.97675
	-78.47558	44.97673
	-78.4754	44.97673
	-78.4752	44.97674
	-78.47518	44.97675
	-78.47491	44.97678
	-78.47478	44.9768
	-78.47446	44.97689
	-78.47405	44.97707
	-78.47363	44.97707
	-78.47343	44.97709
	-78.47316	44.97714
	-78.47292	44.97721
	-78.47243	44.97716
	-78.47209	44.97716
	-78.47181	44.97719
	-78.47149	44.97686
	-78.47121	44.97663
	-78.47091	44.97647
	-78.47092	44.97646
	-78.47065	44.97634
	-78.47051	44.97628
	-78.4702	44.9762
	-78.46959	44.97607
	-78.46959	44.97608
	-78.46933	44.97604
	-78.46912	44.97603
	-78.46899	44.97603
	-78.46846	44.97609
	-78.46798	44.97619
	-78.46754	44.97632
	-78.46738	44.97641
	-78.46707	44.97655
	-78.46639	44.97712
	-78.4659	44.97769
	-78.46561	44.97815
	-78.46554	44.9783
	-78.46536	44.97885
	-78.46521	44.97907
	-78.46487	44.97963
	-78.4644	44.97978
	-78.46401	44.98005
	-78.46373	44.98028
	-78.46363	44.98038
	-78.46331	44.9808
	-78.46308	44.98125
	-78.46301	44.98145
	-78.46291	44.98186
	-78.4627	44.98329
	-78.46271	44.9835
	-78.46256	44.98357
	-78.46197	44.98362
	-78.46166	44.98367
	-78.46146	44.98372
	-78.46098	44.9839
	-78.46058	44.98412
	-78.46037	44.98433
	-78.46002	44.98453
	-78.45985	44.98461
	-78.45923	44.9854
	-78.45913	44.98532
	-78.45883	44.9857
	-78.4587	44.9859
	-78.45843	44.9861
	-78.45827	44.98625
	-78.458	44.98659
	-78.45785	44.98661
	-78.45739	44.98673
	-78.45676	44.98699
	-78.45676	44.987
	-78.45607	44.98724
	-78.45594	44.98734
	-78.45524	44.98853
	-78.33319	45.0499
	-78.32657	45.20758
	-77.79266	45.36357
	-77.61707	45.42605
	-77.55842	45.4311
	-77.55818	45.43106
	-77.55793	45.43111
	-77.55782	45.43115
	-77.55521	45.43138
	-77.55462	45.43136
	-77.55444	45.43134
	-77.55404	45.43138
	-77.55396	45.43121
	-77.55374	45.43087
	-77.55335	45.4304
	-77.55225	45.42976
	-77.55202	45.42971
	-77.55092	45.42979
	-77.55066	45.42988
	-77.55055	45.42989
	-77.55018	45.42984
	-77.54969	45.42975
	-77.54912	45.42971
	-77.54871	45.4297
	-77.54849	45.42971
	-77.54803	45.42975
	-77.54751	45.42982
	-77.54708	45.42986
	-77.54669	45.42991
	-77.54607	45.43008
	-77.54545	45.43037
	-77.54476	45.43228
	-77.48362	45.43755
	-77.34315	45.48927
	-77.33153	45.49171
	-77.33159	45.49214
	-77.3306	45.49342
	-77.33003	45.49393
	-77.32939	45.4943
	-77.3288	45.49453
	-77.32681	45.49496
	-77.32621	45.495
	-77.32473	45.49487
	-77.32441	45.49529
	-77.32161	45.4957
	-77.32135	45.49385
	-77.245	45.50986
	-77.24494	45.50998
	-77.24475	45.51028
	-77.24456	45.51054
	-77.24418	45.51095
	-77.24378	45.5113
	-77.24329	45.51164
	-77.24299	45.51194
	-77.24271	45.51219
	-77.24245	45.51237
	-77.24206	45.51259
	-77.24074	45.51313
	-77.24053	45.51321
	-77.2402	45.5133
	-77.23974	45.51338
	-77.23942	45.5134
	-77.23892	45.51336
	-77.2386	45.51329
	-77.23832	45.51321
	-77.23756	45.51294
	-77.2372	45.51277
	-77.23652	45.51236
	-77.23571	45.51219
	-77.23544	45.51212
	-77.235	45.51196
	-77.22225	45.51463
	-77.22194	45.51484
	-77.22161	45.51501
	-77.2211	45.51522
	-77.22085	45.51563
	-77.22052	45.51629
	-77.22033	45.51654
	-77.21925	45.51776
	-77.21877	45.51824
	-77.21819	45.51872
	-77.21796	45.51906
	-77.21772	45.51935
	-77.21725	45.51981
	-77.21696	45.52004
	-77.21635	45.52046
	-77.21576	45.52107
	-77.21545	45.52134
	-77.21443	45.52205
	-77.21421	45.52223
	-77.21414	45.52243
	-77.21377	45.52304
	-77.2134	45.52346
	-77.21318	45.52368
	-77.21235	45.52437
	-77.21189	45.5247
	-77.21184	45.52484
	-77.21158	45.52529
	-77.2114	45.52554
	-77.21118	45.5258
	-77.21092	45.52604
	-77.21066	45.52625
	-77.21037	45.52645
	-77.20964	45.52686
	-77.20952	45.52695
	-77.20671	45.52666
	-77.207	45.52385
	-77.20726	45.52363
	-77.20757	45.52343
	-77.20824	45.52306
	-77.20832	45.52287
	-77.20853	45.52247
	-77.20868	45.52226
	-77.20901	45.52188
	-77.20923	45.52169
	-77.20985	45.52124
	-77.2105	45.52071
	-77.21076	45.52016
	-77.21089	45.51995
	-77.21132	45.51944
	-77.2115	45.51928
	-77.21209	45.51881
	-77.213	45.51817
	-77.2136	45.51755
	-77.21393	45.51726
	-77.21458	45.51683
	-77.21478	45.51663
	-77.21501	45.5163
	-77.21516	45.51612
	-77.17107	45.52537
	-77.15937	45.61633
	-77.20502	45.77821
	-77.17775	45.86193
END
END
