Canada_Ontario_Northeastern_S
1
	-79.67376	45.91515
	-81.13571	45.43683
	-81.57554	45.91673
	-81.54261	46.06144
	-81.53136	46.11089
	-81.65796	46.41533
	-81.62887	46.68762
	-81.76008	46.99427
	-81.75932	46.99484
	-81.75902	46.99463
	-81.75856	46.99529
	-81.75828	46.9958
	-81.75818	46.99609
	-81.75812	46.99721
	-81.75822	46.99766
	-81.75875	46.99862
	-81.75912	46.99899
	-81.75921	46.99905
	-81.75923	46.99919
	-81.75973	47.00028
	-81.75996	47.00054
	-81.76093	47.00113
	-81.76134	47.00124
	-81.76167	47.00125
	-81.76172	47.00182
	-81.76194	47.0022
	-81.76279	47.00299
	-81.76331	47.00324
	-81.76363	47.00337
	-81.76402	47.00348
	-82.13225	47.86407
	-81.26326	48.19147
	-81.22259	48.09058
	-81.1007	47.72597
	-80.98642	47.46087
	-80.9011	47.19856
	-80.70563	47.19619
	-80.69485	47.08627
	-80.58927	47.01323
	-80.50577	46.92795
	-80.44005	46.85984
	-80.40371	46.71772
	-80.39914	46.6401
	-80.35419	46.60714
	-80.38847	46.57494
	-80.36181	46.47037
	-80.29477	46.39686
	-80.31229	46.33667
	-80.22514	46.3313
	-79.82579	46.27279
	-79.82427	46.20824
	-79.82846	46.08183
	-79.73247	45.94136
	-79.67376	45.91515
END
END
