Canada_Nunavut_South
1
	-102.0006	64.23366
	-102.00061912308708	64.2336600068422
	-102.0006191	64.2336722
	-102.9799046	64.3367197
	-103.180661	64.3569439
	-103.38151	64.3768733
	-103.5826465	64.3965271
	-103.7818416	64.4156924
	-103.9764444	64.4341296
	-104.15912	64.4511798
	-104.3501562	64.4687456
	-104.5465257	64.48652
	-104.749265	64.5045722
	-105.0	64.5264798
	-107.0317709	64.6871393
	-107.2374929	64.7017515
	-107.2999754	64.7061301
	-107.485171	64.7189442
	-107.6914686	64.7329323
	-107.8973767	64.7465933
	-108.1024199	64.7598997
	-108.3093005	64.7730249
	-108.5100111	64.7854716
	-108.7168893	64.7980046
	-108.7962993	64.8027357
	-108.9660954	64.8127043
	-109.1554841	64.8235856
	-109.3344286	64.8336372
	-109.4501176	64.8932986
	-109.5536866	64.9464094
	-109.6300455	64.9853864
	-109.758704	65.0507149
	-109.8881249	65.1159983
	-110.0219717	65.183061
	-110.1571154	65.2503104
	-110.2903622	65.316164
	-110.4103192	65.3750684
	-110.5100243	65.4237559
	-110.6006605	65.4678015
	-110.6678591	65.5003267
	-111.97619600951299	65.50032585360061
	-112.5012946	65.5003203
	-112.65673	65.5570597
	-112.8090276	65.6122613
	-112.9608944	65.6669227
	-113.1218545	65.7244418
	-113.281331	65.7810126
	-113.3916035	65.8198879
	-113.5131772	65.8625195
	-113.6619573	65.9143689
	-113.8199938	65.9690578
	-113.9637867	66.0184744
	-114.1120087	66.0690736
	-114.2781766	66.1253919
	-114.3775986	66.1588841
	-114.5415162	66.213771
	-114.6895644	66.2629913
	-114.73022745540283	66.27642483438824
	-114.8540442	66.3172851
	-115.0065254	66.3672548
	-115.1744927	66.4218978
	-115.3407353	66.4755684
	-115.4939499	66.5246733
	-115.6299244	66.5679658
	-115.7865903	66.6175141
	-115.918244	66.6588788
	-116.0697941	66.7061879
	-116.1617339	66.7347296
	-116.3341993	66.7879476
	-116.4971433	66.8378442
	-116.6747734	66.8918173
	-116.8439079	66.9428042
	-117.0033036	66.9904966
	-117.1780773	67.0423933
	-117.3365366	67.0890896
	-117.4986186	67.1365054
	-117.6566843	67.1824101
	-117.8280949	67.2318179
	-117.9970614	67.2801448
	-118.1759526	67.3309056
	-118.360653	67.3828822
	-118.5373692	67.4322038
	-118.7098429	67.4799591
	-118.8952181	67.5308693
	-119.0767345	67.5803037
	-119.2436774	67.6254092
	-119.4271789	67.6745931
	-119.581519	67.7156428
	-119.7123158	67.7502963
	-119.7708513	67.7656052
	-119.9403431	67.8099666
	-120.0	67.8254989
	-120.0639037	67.8420899
	-120.2483233	67.889699
	-120.4256656	67.9351034
	-120.6126874	67.9825881
	-120.68279396893628	68.00028335430065
	-120.6828	68.00028
	-120.683	69.55818
	-118.6837	69.60491
	-117.0228	69.22635
	-114.6549	69.10111
	-114.0299	68.89288
	-113.1321	68.31489
	-111.7677	68.38309
	-111.1251	68.3279
	-108.5108	68.70826
	-106.3102	69.03192
	-105.342	68.86751
	-104.0216	68.63142
	-99.66439	68.08936
	-99.77002	69.53016
	-97.68814	70.15575
	-96.14452	69.68565
	-95.22333	69.61205
	-94.50132	69.35903
	-93.88512	69.40543
	-93.52411	69.49283
	-92.33528	69.74859
	-91.19002	70.11593
	-91.25012	71.50545
	-90.58114	72.84143
	-88.04604	73.99161
	-73.7406	74.26032
	-57.50387	67.01166
	-62.25029	60.68429
	-65.36476	60.89032
	-68.8287	59.84743
	-69.01861	61.55364
	-73.46765	62.65105
	-74.69455	62.38345
	-78.56446	62.89957
	-79.41136	60.93124
	-85.31587	59.08493
	-94.826	59.99914
	-102.0005	59.99923
	-102.0006	64.23366
END
END
