Canada_Ontario_Toronto
1
	-80.75999	43.90073
	-80.58587	43.92596
	-80.42269	43.90798
	-80.422	43.90488
	-80.422	43.90478
	-80.41962	43.90294
	-80.41761	43.90332
	-80.41727	43.90341
	-80.41667	43.9037
	-80.41631	43.90396
	-80.41596	43.90428
	-80.41537	43.90495
	-80.41342	43.9065
	-80.41319	43.90671
	-80.413	43.90691
	-80.38687	43.90403
	-80.01462	44.0161
	-79.87298	44.07668
	-79.75592	44.12124
	-79.60315	44.17164
	-79.51829	44.17248
	-79.51126	44.23457
	-79.51327	44.28562
	-79.50566	44.36936
	-79.23028	44.51434
	-79.06142	44.55092
	-79.03411	44.5751
	-79.00017	44.58336
	-78.95051	44.57687
	-78.87684	44.57275
	-78.81145	44.60104
	-78.7947	44.60504
	-78.7944	44.60566
	-78.79408	44.60604
	-78.79373	44.60641
	-78.79352	44.60667
	-78.79303	44.60718
	-78.79272	44.60742
	-78.79242	44.6076
	-78.79231	44.60765
	-78.79181	44.60782
	-78.79113	44.60796
	-78.78981	44.60829
	-78.78738	44.60684
	-78.78741	44.60678
	-78.57118	44.65844
	-78.53528	44.58217
	-78.51616	44.56383
	-78.49337	44.46997
	-78.49042	44.4327
	-78.5499	44.31807
	-78.54444	44.27216
	-78.57728	44.25536
	-78.50512	44.07716
	-78.50495	44.07726
	-78.50308	44.07732
	-78.50281	44.07718
	-78.50175	44.07588
	-78.50165	44.0755
	-78.50222	44.07356
	-78.50293	44.07288
	-78.50318	44.07237
	-78.43297	43.89901
	-78.33048	43.63114
	-78.44952	43.63114
	-78.56857	43.63114
	-78.68762	43.63114
	-78.69039	43.63114
	-79.20067	43.45047
	-79.78331	43.29129
	-79.8035	43.28404
	-79.84418	43.29033
	-79.88383	43.28064
	-79.89905	43.27872
	-79.93548	43.28788
	-79.96318	43.29235
	-80.02186	43.28233
	-80.02178	43.28174
	-80.02178	43.28165
	-80.0224	43.28023
	-80.02248	43.28016
	-80.02373	43.27961
	-80.02385	43.2796
	-80.02482	43.27979
	-80.02492	43.27983
	-80.02588	43.28078
	-80.02593	43.28088
	-80.02612	43.2816
	-80.08534	43.27149
	-80.15842	43.27479
	-80.51408	43.2084
	-80.5609	43.30729
	-80.77278	43.5852
	-80.75999	43.90073
END
END
