Chile_Central
1
	-70.31925	-32.27334
	-70.31896	-32.27322
	-70.31825	-32.27324
	-70.31735	-32.273
	-70.31623	-32.27301
	-70.31474	-32.27299
	-70.31426	-32.27315
	-70.31369	-32.27309
	-70.31298	-32.27316
	-70.31147	-32.27358
	-70.31114	-32.27387
	-70.31087	-32.27414
	-70.3106	-32.27414
	-70.3102	-32.27435
	-70.30932	-32.27489
	-70.30876	-32.27492
	-70.30831	-32.27464
	-70.30748	-32.27438
	-70.30692	-32.27436
	-70.30595	-32.27435
	-70.30519	-32.27452
	-70.30482	-32.27468
	-70.30382	-32.27484
	-70.3035	-32.27502
	-70.3024	-32.27516
	-70.30135	-32.27563
	-70.3009	-32.2759
	-70.3	-32.27629
	-70.29901	-32.27654
	-70.29845	-32.27676
	-70.297	-32.27742
	-70.29632	-32.27862
	-70.29593	-32.28007
	-70.29498	-32.28127
	-70.29413	-32.28185
	-70.29297	-32.28232
	-70.29314	-32.28355
	-70.29314	-32.28537
	-70.29249	-32.28681
	-70.29146	-32.28779
	-70.28752	-32.29016
	-70.28481	-32.29157
	-70.28361	-32.29204
	-70.28197	-32.29187
	-70.28014	-32.29157
	-70.27665	-32.29243
	-70.2737	-32.29277
	-70.27177	-32.29335
	-70.27014	-32.29331
	-70.26807	-32.292
	-70.26498	-32.29084
	-70.26284	-32.29132
	-70.26181	-32.29222
	-70.26172	-32.29447
	-70.26034	-32.29809
	-70.25815	-32.30326
	-70.25705	-32.30401
	-70.25409	-32.30445
	-70.25091	-32.30496
	-70.24911	-32.30532
	-70.24821	-32.30779
	-70.24649	-32.31014
	-70.24541	-32.31202
	-70.24392	-32.31377
	-70.24314	-32.31475
	-70.24164	-32.3162
	-70.23992	-32.31714
	-70.23722	-32.31761
	-70.23426	-32.3179
	-70.23164	-32.31914
	-70.22961	-32.32058
	-70.22782	-32.32149
	-70.22568	-32.32216
	-70.22456	-32.32324
	-70.22206	-32.32522
	-70.22	-32.32943
	-70.21811	-32.33335
	-70.21863	-32.33596
	-70.22093	-32.34078
	-70.21966	-32.34335
	-70.22172	-32.34683
	-70.2276	-32.36031
	-70.22773	-32.36264
	-70.22721	-32.36699
	-70.22584	-32.37149
	-70.22326	-32.37453
	-70.2212	-32.37844
	-70.21846	-32.38178
	-70.21983	-32.38381
	-70.2212	-32.38772
	-70.22412	-32.39019
	-70.22755	-32.39004
	-70.23116	-32.3912
	-70.23205	-32.39257
	-70.23288	-32.39569
	-70.23445	-32.3978
	-70.237	-32.40164
	-70.2382	-32.40468
	-70.23785	-32.40729
	-70.23614	-32.4099
	-70.23545	-32.41352
	-70.23785	-32.41787
	-70.23579	-32.42236
	-70.23597	-32.42569
	-70.23597	-32.42903
	-70.2327	-32.43062
	-70.22979	-32.43018
	-70.22652	-32.43062
	-70.22326	-32.42975
	-70.22071	-32.42912
	-70.21826	-32.4287
	-70.21688	-32.42985
	-70.2164	-32.43163
	-70.21468	-32.43453
	-70.21382	-32.43728
	-70.2121	-32.43917
	-70.20884	-32.44134
	-70.20541	-32.44149
	-70.2006	-32.44134
	-70.19786	-32.4438
	-70.19528	-32.44743
	-70.19288	-32.44945
	-70.18824	-32.4496
	-70.18309	-32.45003
	-70.17829	-32.45206
	-70.17503	-32.45221
	-70.17091	-32.45322
	-70.16593	-32.45496
	-70.1637	-32.45728
	-70.16146	-32.4593
	-70.15359	-32.46247
	-70.15185	-32.46336
	-70.14825	-32.46597
	-70.14911	-32.46843
	-70.14842	-32.47176
	-70.14533	-32.47451
	-70.14481	-32.47871
	-70.14224	-32.48175
	-70.14087	-32.48537
	-70.13657	-32.48667
	-70.13589	-32.49058
	-70.13898	-32.49406
	-70.14155	-32.49811
	-70.13915	-32.50159
	-70.13709	-32.50463
	-70.13657	-32.50796
	-70.13417	-32.51071
	-70.13434	-32.51491
	-70.13108	-32.51881
	-70.13022	-32.52446
	-70.12765	-32.52895
	-70.12473	-32.53416
	-70.1237	-32.53821
	-70.12614	-32.54079
	-70.1278	-32.54583
	-70.12856	-32.54618
	-70.12879	-32.54732
	-70.12765	-32.55297
	-70.12542	-32.55658
	-70.12645	-32.56049
	-70.12797	-32.56475
	-70.12745	-32.56599
	-70.12715	-32.56905
	-70.12622	-32.57223
	-70.12594	-32.5763
	-70.12627	-32.57655
	-70.13005	-32.57655
	-70.13503	-32.57756
	-70.13925	-32.57802
	-70.13978	-32.57824
	-70.14013	-32.57845
	-70.14038	-32.57896
	-70.14464	-32.5806
	-70.14596	-32.58078
	-70.14678	-32.58071
	-70.1485	-32.57886
	-70.15006	-32.57867
	-70.15083	-32.57894
	-70.15185	-32.58031
	-70.15165	-32.58132
	-70.15214	-32.58232
	-70.15597	-32.58696
	-70.15717	-32.59087
	-70.15872	-32.59232
	-70.16232	-32.59636
	-70.16318	-32.59998
	-70.16335	-32.60403
	-70.16524	-32.60909
	-70.16644	-32.61343
	-70.16833	-32.61834
	-70.17176	-32.62051
	-70.17142	-32.62442
	-70.16988	-32.62659
	-70.16421	-32.62716
	-70.15992	-32.6289
	-70.15597	-32.63092
	-70.15323	-32.63454
	-70.15168	-32.63757
	-70.15168	-32.64133
	-70.15186	-32.64483
	-70.14928	-32.64726
	-70.14705	-32.64971
	-70.14567	-32.65246
	-70.14842	-32.6555
	-70.14928	-32.65752
	-70.14722	-32.65969
	-70.14653	-32.66301
	-70.14619	-32.6685
	-70.14636	-32.67313
	-70.14481	-32.67659
	-70.14258	-32.68021
	-70.1431	-32.68382
	-70.14334	-32.68684
	-70.14293	-32.69191
	-70.1441	-32.69624
	-70.14555	-32.6998
	-70.14548	-32.70226
	-70.14582	-32.70415
	-70.14679	-32.70571
	-70.1461	-32.70767
	-70.14473	-32.71021
	-70.14478	-32.71376
	-70.14458	-32.71671
	-70.14482	-32.71947
	-70.14582	-32.72327
	-70.14687	-32.72588
	-70.14754	-32.72657
	-70.14771	-32.72755
	-70.14756	-32.72883
	-70.14719	-32.72966
	-70.14621	-32.72901
	-70.1446	-32.72885
	-70.14275	-32.72926
	-70.14108	-32.73015
	-70.13787	-32.73236
	-70.13743	-32.73405
	-70.13719	-32.73568
	-70.13641	-32.73737
	-70.13743	-32.73836
	-70.1376	-32.7395
	-70.13633	-32.74066
	-70.13578	-32.74194
	-70.13483	-32.74246
	-70.13388	-32.74329
	-70.13288	-32.74404
	-70.13229	-32.74517
	-70.13171	-32.74702
	-70.13147	-32.74895
	-70.13217	-32.75043
	-70.13133	-32.75212
	-70.13212	-32.75383
	-70.13188	-32.75534
	-70.13106	-32.75673
	-70.12871	-32.75838
	-70.12847	-32.75951
	-70.12756	-32.76094
	-70.12575	-32.7621
	-70.12349	-32.76307
	-70.1212	-32.76354
	-70.11857	-32.76572
	-70.11622	-32.76699
	-70.11559	-32.76706
	-70.11526	-32.76834
	-70.11425	-32.77041
	-70.11321	-32.77146
	-70.11179	-32.77402
	-70.11119	-32.77542
	-70.11145	-32.77705
	-70.11143	-32.77879
	-70.11127	-32.78105
	-70.11076	-32.78286
	-70.10966	-32.78467
	-70.10875	-32.78595
	-70.10811	-32.78659
	-70.10842	-32.78846
	-70.10817	-32.7905
	-70.10722	-32.79163
	-70.10684	-32.79302
	-70.10691	-32.79491
	-70.10726	-32.79635
	-70.1076	-32.79821
	-70.10806	-32.79962
	-70.10776	-32.80025
	-70.10725	-32.80089
	-70.10636	-32.80135
	-70.10367	-32.80083
	-70.10256	-32.80053
	-70.10237	-32.8001
	-70.10109	-32.80013
	-70.09812	-32.8009
	-70.09564	-32.80134
	-70.09294	-32.80116
	-70.09136	-32.80195
	-70.09036	-32.80307
	-70.08868	-32.80472
	-70.08728	-32.80521
	-70.08632	-32.80663
	-70.08563	-32.80829
	-70.08451	-32.8106
	-70.08377	-32.81267
	-70.0828	-32.81467
	-70.08234	-32.81608
	-70.08278	-32.81737
	-70.08037	-32.81992
	-70.07935	-32.82275
	-70.07831	-32.82369
	-70.07704	-32.82424
	-70.07615	-32.82307
	-70.07427	-32.82335
	-70.07242	-32.82402
	-70.07115	-32.82503
	-70.06967	-32.82529
	-70.06778	-32.82516
	-70.06615	-32.82568
	-70.06461	-32.82729
	-70.06266	-32.82852
	-70.06049	-32.82956
	-70.05753	-32.83017
	-70.05589	-32.83093
	-70.05484	-32.83301
	-70.05432	-32.83654
	-70.05441	-32.83799
	-70.05398	-32.84022
	-70.05424	-32.84557
	-70.05415	-32.85399
	-70.05466	-32.85774
	-70.05278	-32.86107
	-70.0521	-32.86172
	-70.04755	-32.86345
	-70.0418	-32.8708
	-70.04005	-32.87194
	-70.03867	-32.8731
	-70.03745	-32.87333
	-70.03421	-32.87432
	-70.03307	-32.87513
	-70.02789	-32.87584
	-70.0169	-32.87973
	-70.00772	-32.88132
	-70.00076	-32.88348
	-69.99578	-32.88881
	-69.99312	-32.89321
	-69.99295	-32.89552
	-69.99312	-32.89753
	-69.99221	-32.90792
	-69.99204	-32.91181
	-69.99512	-32.91483
	-69.99924	-32.91656
	-70.00233	-32.92002
	-70.00388	-32.92334
	-70.00439	-32.92432
	-70.00645	-32.92924
	-70.00594	-32.93299
	-70.00388	-32.93731
	-70.00216	-32.94221
	-70.00216	-32.94624
	-70.00611	-32.95172
	-70.00519	-32.95433
	-70.00398	-32.95605
	-70.00009	-32.95861
	-69.99662	-32.96137
	-69.9918	-32.96343
	-69.98687	-32.96391
	-69.99018	-32.96827
	-69.99117	-32.97287
	-69.98529	-32.97315
	-69.98137	-32.97687
	-69.9805	-32.98154
	-69.98068	-32.98751
	-69.98334	-32.99095
	-69.98459	-32.99655
	-69.98568	-32.99678
	-69.98802	-32.99792
	-69.9945	-32.99625
	-69.99997	-32.9951
	-70.00392	-32.99724
	-70.00762	-32.99982
	-70.00903	-33.0031
	-70.00988	-33.00553
	-70.01404	-33.00801
	-70.02177	-33.00786
	-70.02662	-33.00969
	-70.02885	-33.01732
	-70.03383	-33.02121
	-70.04172	-33.02308
	-70.0479	-33.02524
	-70.05271	-33.02783
	-70.05941	-33.02869
	-70.0625	-33.02826
	-70.06534	-33.02751
	-70.06978	-33.02733
	-70.0739	-33.02852
	-70.07826	-33.03002
	-70.08221	-33.03182
	-70.08531	-33.03465
	-70.08574	-33.03688
	-70.08651	-33.03796
	-70.08583	-33.03919
	-70.08617	-33.04063
	-70.08514	-33.04264
	-70.08591	-33.04458
	-70.08745	-33.04652
	-70.08849	-33.04904
	-70.08995	-33.05135
	-70.09141	-33.05343
	-70.08797	-33.05465
	-70.0842	-33.05638
	-70.08154	-33.0584
	-70.07965	-33.06055
	-70.0781	-33.0625
	-70.07596	-33.06343
	-70.07304	-33.06415
	-70.07244	-33.06631
	-70.07364	-33.06803
	-70.07433	-33.07127
	-70.07467	-33.07508
	-70.07261	-33.0804
	-70.07124	-33.08371
	-70.07038	-33.08681
	-70.07021	-33.08868
	-70.07175	-33.09011
	-70.07312	-33.09177
	-70.07424	-33.09321
	-70.07553	-33.09479
	-70.07673	-33.09716
	-70.07802	-33.09946
	-70.07879	-33.10234
	-70.07733	-33.10421
	-70.07467	-33.10536
	-70.07476	-33.10708
	-70.07647	-33.11003
	-70.07794	-33.11251
	-70.07896	-33.11593
	-70.07639	-33.11787
	-70.07433	-33.1188
	-70.07407	-33.12132
	-70.07312	-33.12268
	-70.07081	-33.12405
	-70.06591	-33.1262
	-70.06077	-33.12922
	-70.05519	-33.13167
	-70.05218	-33.13404
	-70.04945	-33.13872
	-70.0534	-33.14433
	-70.05786	-33.15008
	-70.06147	-33.16028
	-70.06061	-33.16546
	-70.05786	-33.17264
	-70.05855	-33.17781
	-70.06232	-33.18413
	-70.0637	-33.1916
	-70.06867	-33.1995
	-70.06593	-33.20654
	-70.06147	-33.21329
	-70.05958	-33.21674
	-70.05666	-33.22191
	-70.05443	-33.22579
	-70.04756	-33.2278
	-70.04155	-33.22909
	-70.03537	-33.23024
	-70.0273	-33.23354
	-70.02816	-33.23799
	-70.02902	-33.24503
	-70.02988	-33.24991
	-70.03297	-33.2545
	-70.0352	-33.25953
	-70.03726	-33.26455
	-70.03726	-33.27043
	-70.03211	-33.27302
	-70.0273	-33.27503
	-70.02044	-33.27847
	-70.0146	-33.28134
	-70.00979	-33.28507
	-70.00791	-33.2878
	-70.00808	-33.2921
	-70.00979	-33.29784
	-70.01031	-33.3033
	-70.00877	-33.30846
	-70.00774	-33.31334
	-70.00619	-33.31879
	-70.00379	-33.32238
	-70.00018	-33.32166
	-69.99658	-33.32022
	-69.99126	-33.32051
	-69.98387	-33.3142
	-69.9801	-33.31205
	-69.97289	-33.30832
	-69.96997	-33.30573
	-69.96688	-33.2987
	-69.96448	-33.29354
	-69.96121	-33.28852
	-69.95778	-33.28593
	-69.95023	-33.28249
	-69.94542	-33.28062
	-69.93976	-33.27876
	-69.93547	-33.27531
	-69.92946	-33.27273
	-69.92568	-33.26771
	-69.91658	-33.26555
	-69.90989	-33.26857
	-69.90251	-33.27474
	-69.89547	-33.27574
	-69.88757	-33.27618
	-69.88311	-33.27589
	-69.87899	-33.27517
	-69.87418	-33.2756
	-69.87023	-33.27761
	-69.86543	-33.28034
	-69.86182	-33.28177
	-69.85736	-33.28005
	-69.85324	-33.27747
	-69.84895	-33.27646
	-69.84431	-33.27402
	-69.83916	-33.27244
	-69.83401	-33.27345
	-69.83144	-33.27546
	-69.82921	-33.27818
	-69.8244	-33.2812
	-69.82114	-33.28421
	-69.81685	-33.28809
	-69.81153	-33.28952
	-69.80706	-33.28938
	-69.80088	-33.2878
	-69.79711	-33.29383
	-69.79488	-33.30014
	-69.79264	-33.30559
	-69.78835	-33.3109
	-69.78389	-33.31649
	-69.78046	-33.32209
	-69.77822	-33.32869
	-69.77599	-33.33385
	-69.77359	-33.34217
	-69.77101	-33.34833
	-69.77051	-33.35647
	-69.7705	-33.36109
	-69.77204	-33.36726
	-69.77805	-33.37772
	-69.78543	-33.38633
	-69.78852	-33.38962
	-69.79642	-33.39321
	-69.80107	-33.39467
	-69.80545	-33.39553
	-69.80708	-33.39618
	-69.80579	-33.39797
	-69.80442	-33.40019
	-69.80261	-33.40248
	-69.80123	-33.40324
	-69.80015	-33.40445
	-69.79918	-33.407
	-69.7983	-33.4085
	-69.79779	-33.41098
	-69.79721	-33.4143
	-69.79712	-33.41609
	-69.79695	-33.4181
	-69.79618	-33.41982
	-69.79549	-33.42168
	-69.79575	-33.42333
	-69.79652	-33.42426
	-69.8014	-33.42416
	-69.805	-33.42487
	-69.81084	-33.42702
	-69.8141	-33.42774
	-69.81788	-33.42946
	-69.81994	-33.43247
	-69.81788	-33.43691
	-69.81496	-33.4402
	-69.81496	-33.44421
	-69.81668	-33.44736
	-69.81924	-33.45132
	-69.8215	-33.45477
	-69.82044	-33.4576
	-69.82128	-33.46086
	-69.81917	-33.46301
	-69.81591	-33.46842
	-69.81904	-33.47059
	-69.82271	-33.47283
	-69.8247	-33.47373
	-69.82663	-33.47744
	-69.82852	-33.48546
	-69.82996	-33.49417
	-69.83031	-33.5049
	-69.83195	-33.51151
	-69.83513	-33.5152
	-69.83776	-33.51763
	-69.83848	-33.51824
	-69.84569	-33.5201
	-69.84912	-33.52153
	-69.85444	-33.5251
	-69.85719	-33.52768
	-69.85856	-33.53083
	-69.86251	-33.5334
	-69.86783	-33.53612
	-69.87092	-33.53999
	-69.8715	-33.54311
	-69.87178	-33.54871
	-69.87384	-33.55429
	-69.87384	-33.55773
	-69.87144	-33.56145
	-69.86938	-33.56545
	-69.86886	-33.56917
	-69.86835	-33.57317
	-69.86697	-33.57689
	-69.86526	-33.58161
	-69.86577	-33.58619
	-69.86646	-33.59162
	-69.86724	-33.59577
	-69.87092	-33.59691
	-69.8735	-33.59934
	-69.87504	-33.60392
	-69.87544	-33.60804
	-69.87813	-33.61221
	-69.88002	-33.61579
	-69.88059	-33.61848
	-69.87744	-33.62122
	-69.87487	-33.62393
	-69.87525	-33.6274
	-69.87658	-33.63079
	-69.87519	-33.6329
	-69.87477	-33.63328
	-69.874	-33.63461
	-69.87418	-33.63708
	-69.87521	-33.64151
	-69.87891	-33.64637
	-69.8759	-33.64823
	-69.87229	-33.65137
	-69.87161	-33.65352
	-69.87401	-33.65595
	-69.87779	-33.65752
	-69.88002	-33.65938
	-69.88088	-33.6628
	-69.88105	-33.66766
	-69.88139	-33.67238
	-69.88259	-33.67681
	-69.88483	-33.68152
	-69.88483	-33.68395
	-69.88368	-33.68536
	-69.88053	-33.68752
	-69.87729	-33.68943
	-69.87385	-33.69314
	-69.87231	-33.696
	-69.87042	-33.699
	-69.8687	-33.70242
	-69.86819	-33.70985
	-69.86398	-33.71665
	-69.87006	-33.72351
	-69.87401	-33.72736
	-69.87624	-33.7315
	-69.87765	-33.73456
	-69.88277	-33.73907
	-69.88774	-33.74378
	-69.89118	-33.75091
	-69.89427	-33.7542
	-69.89667	-33.75648
	-69.89787	-33.76033
	-69.90086	-33.76574
	-69.90325	-33.76916
	-69.90395	-33.77396
	-69.90034	-33.78588
	-69.89459	-33.79508
	-69.89725	-33.83159
	-69.89579	-33.83658
	-69.89846	-33.84007
	-69.89906	-33.84506
	-69.8984	-33.84896
	-69.89236	-33.84863
	-69.88627	-33.85083
	-69.88326	-33.85027
	-69.88198	-33.85204
	-69.88455	-33.85454
	-69.88189	-33.85682
	-69.87727	-33.85946
	-69.87331	-33.86095
	-69.87161	-33.86417
	-69.86987	-33.86779
	-69.86953	-33.87499
	-69.86852	-33.87899
	-69.86704	-33.88133
	-69.86404	-33.88212
	-69.86043	-33.88468
	-69.85623	-33.88618
	-69.85666	-33.88931
	-69.85528	-33.89252
	-69.85667	-33.89395
	-69.85942	-33.8958
	-69.8626	-33.8988
	-69.86423	-33.90079
	-69.86989	-33.9045
	-69.87314	-33.90705
	-69.8747	-33.9119
	-69.87588	-33.91403
	-69.87727	-33.91461
	-69.88191	-33.91532
	-69.88678	-33.91788
	-69.89032	-33.92045
	-69.89152	-33.92373
	-69.89193	-33.92721
	-69.89221	-33.93113
	-69.89375	-33.93541
	-69.89085	-33.93959
	-69.89579	-33.94572
	-69.90094	-33.94957
	-69.90112	-33.95541
	-69.90508	-33.96118
	-69.90627	-33.96473
	-69.90258	-33.96908
	-69.89528	-33.97292
	-69.88721	-33.97484
	-69.8812	-33.97071
	-69.87571	-33.96502
	-69.8685	-33.96338
	-69.86181	-33.96253
	-69.85274	-33.96223
	-69.85434	-33.96879
	-69.85331	-33.97263
	-69.85187	-33.97542
	-69.84964	-33.9777
	-69.84746	-33.98066
	-69.8437	-33.98753
	-69.84124	-33.9917
	-69.84109	-33.99629
	-69.84231	-33.99928
	-69.84025	-34.00387
	-69.83974	-34.00714
	-69.83453	-34.00848
	-69.83003	-34.00957
	-69.82504	-34.00995
	-69.82359	-34.01105
	-69.82221	-34.01417
	-69.82337	-34.01868
	-69.82543	-34.02181
	-69.82955	-34.02551
	-69.83298	-34.02921
	-69.83788	-34.03292
	-69.84225	-34.03561
	-69.84552	-34.0396
	-69.84706	-34.04401
	-69.84723	-34.04799
	-69.84843	-34.05055
	-69.85169	-34.05325
	-69.8529	-34.05581
	-69.85255	-34.05837
	-69.85101	-34.06164
	-69.85076	-34.06435
	-69.84809	-34.06761
	-69.84517	-34.06946
	-69.84174	-34.07074
	-69.83728	-34.07088
	-69.83367	-34.07117
	-69.83257	-34.07135
	-69.83195	-34.07259
	-69.83316	-34.07728
	-69.83316	-34.08098
	-69.83367	-34.08596
	-69.83659	-34.08979
	-69.83934	-34.09321
	-69.842	-34.09548
	-69.84758	-34.09733
	-69.85162	-34.09875
	-69.85601	-34.10087
	-69.85986	-34.10415
	-69.85893	-34.1057
	-69.85704	-34.10954
	-69.85601	-34.11394
	-69.85773	-34.11721
	-69.86168	-34.1202
	-69.8658	-34.12205
	-69.87033	-34.12533
	-69.87266	-34.12929
	-69.87352	-34.13256
	-69.87129	-34.1381
	-69.86889	-34.14038
	-69.86425	-34.14194
	-69.86013	-34.14364
	-69.85653	-34.14592
	-69.85103	-34.14961
	-69.84434	-34.15288
	-69.83867	-34.157
	-69.83541	-34.16325
	-69.83387	-34.16552
	-69.83043	-34.16864
	-69.82597	-34.17006
	-69.82202	-34.17362
	-69.81619	-34.17717
	-69.81395	-34.17972
	-69.81241	-34.18299
	-69.80966	-34.18654
	-69.80571	-34.19023
	-69.80159	-34.19293
	-69.79541	-34.19634
	-69.79164	-34.20074
	-69.79095	-34.20414
	-69.79078	-34.20855
	-69.79353	-34.21422
	-69.79713	-34.22388
	-69.79713	-34.23197
	-69.79473	-34.23835
	-69.79507	-34.24304
	-69.80005	-34.24488
	-69.8052	-34.24715
	-69.80983	-34.24772
	-69.81516	-34.24743
	-69.81962	-34.24786
	-69.8234	-34.25013
	-69.8258	-34.25339
	-69.82922	-34.25578
	-69.83524	-34.25623
	-69.84039	-34.25666
	-69.84537	-34.25722
	-69.85189	-34.25595
	-69.85377	-34.25649
	-69.85807	-34.26049
	-69.86837	-34.2656
	-69.8761	-34.26588
	-69.88382	-34.26446
	-69.88914	-34.26446
	-69.89446	-34.26375
	-69.89704	-34.26418
	-69.89996	-34.26645
	-69.89996	-34.27099
	-69.8991	-34.27709
	-69.9003	-34.28276
	-69.90373	-34.28886
	-69.90801	-34.28997
	-69.91575	-34.28914
	-69.92176	-34.28631
	-69.92674	-34.28375
	-69.93154	-34.28134
	-69.93669	-34.28006
	-69.93978	-34.27936
	-69.94081	-34.27666
	-69.9415	-34.27255
	-69.94356	-34.27155
	-69.94648	-34.26886
	-69.94854	-34.26545
	-69.95197	-34.26177
	-69.95712	-34.25808
	-69.96124	-34.25467
	-69.96725	-34.25084
	-69.97084	-34.25011
	-69.97497	-34.25098
	-69.97909	-34.2524
	-69.98253	-34.25467
	-69.98579	-34.25864
	-69.98869	-34.26046
	-69.98991	-34.26091
	-69.99643	-34.2602
	-70.00141	-34.2612
	-70.00493	-34.26333
	-70.00566	-34.26448
	-70.00726	-34.26523
	-70.00953	-34.26633
	-70.01074	-34.26743
	-70.01181	-34.26955
	-70.01242	-34.2711
	-70.01283	-34.27288
	-70.01328	-34.27371
	-70.01287	-34.27452
	-70.01333	-34.27507
	-70.01455	-34.2754
	-70.01609	-34.27631
	-70.01761	-34.27664
	-70.01907	-34.27687
	-70.01965	-34.27705
	-70.01971	-34.2775
	-70.01941	-34.27866
	-70.01866	-34.28032
	-70.01846	-34.28101
	-70.0187	-34.28138
	-70.0195	-34.28159
	-70.021	-34.28165
	-70.02301	-34.28243
	-70.0239	-34.28333
	-70.02438	-34.28511
	-70.0251	-34.28615
	-70.02809	-34.28787
	-70.03094	-34.28805
	-70.03064	-34.28993
	-70.0314	-34.29113
	-70.03155	-34.29256
	-70.03121	-34.29416
	-70.03052	-34.29597
	-70.02791	-34.3
	-70.02498	-34.30382
	-70.02241	-34.30878
	-70.02017	-34.31559
	-70.01949	-34.31942
	-70.01794	-34.32495
	-70.0164	-34.33005
	-70.01502	-34.33487
	-70.01451	-34.3387
	-70.01657	-34.34281
	-70.01846	-34.34706
	-70.01657	-34.35202
	-70.01708	-34.35613
	-70.01842	-34.36265
	-70.02069	-34.36619
	-70.02035	-34.372
	-70.02017	-34.37795
	-70.01691	-34.3805
	-70.01468	-34.38518
	-70.01245	-34.38929
	-70.00969	-34.39364
	-70.01037	-34.39987
	-70.01346	-34.40653
	-70.01123	-34.41021
	-70.01089	-34.41389
	-70.01518	-34.41304
	-70.01842	-34.41394
	-70.02256	-34.41602
	-70.026	-34.42012
	-70.03046	-34.42395
	-70.03544	-34.4231
	-70.03887	-34.4238
	-70.04196	-34.42579
	-70.04574	-34.42947
	-70.0478	-34.43499
	-70.0514	-34.44108
	-70.05518	-34.44901
	-70.0617	-34.44985
	-70.06651	-34.45311
	-70.07114	-34.45877
	-70.0732	-34.46217
	-70.07681	-34.46585
	-70.0787	-34.46641
	-70.08007	-34.4691
	-70.08093	-34.47109
	-70.08385	-34.47296
	-70.08951	-34.47547
	-70.09255	-34.4775
	-70.09552	-34.47816
	-70.09912	-34.48142
	-70.10341	-34.48212
	-70.10822	-34.48014
	-70.1144	-34.47632
	-70.11955	-34.47604
	-70.1235	-34.4783
	-70.12728	-34.48226
	-70.13054	-34.48623
	-70.13157	-34.48849
	-70.13037	-34.49118
	-70.12865	-34.49415
	-70.1301	-34.49762
	-70.13157	-34.50292
	-70.13466	-34.50773
	-70.13466	-34.51127
	-70.13684	-34.51398
	-70.14067	-34.5165
	-70.14221	-34.52089
	-70.1453	-34.524
	-70.14633	-34.52555
	-70.14599	-34.5298
	-70.14667	-34.53291
	-70.15217	-34.54083
	-70.15697	-34.54719
	-70.16153	-34.54991
	-70.1659	-34.55341
	-70.16882	-34.55737
	-70.16916	-34.56246
	-70.17122	-34.56472
	-70.17397	-34.56641
	-70.17534	-34.57108
	-70.17397	-34.57504
	-70.17305	-34.5781
	-70.17671	-34.5797
	-70.18341	-34.58479
	-70.18856	-34.58437
	-70.19113	-34.58394
	-70.19234	-34.58535
	-70.19045	-34.58889
	-70.19663	-34.59171
	-70.19863	-34.59591
	-70.19983	-34.60198
	-70.2043	-34.60241
	-70.20756	-34.60452
	-70.21151	-34.60636
	-70.21477	-34.60862
	-70.21683	-34.61145
	-70.21683	-34.61597
	-70.21648	-34.61865
	-70.21665	-34.62007
	-70.217	-34.62388
	-70.22026	-34.62953
	-70.22198	-34.63504
	-70.22301	-34.63984
	-70.22163	-34.64549
	-70.21974	-34.64817
	-70.21854	-34.65142
	-70.21871	-34.65467
	-70.21889	-34.65693
	-70.21768	-34.65919
	-70.21562	-34.6606
	-70.21494	-34.66243
	-70.21494	-34.66512
	-70.2146	-34.6678
	-70.21305	-34.66978
	-70.2146	-34.67331
	-70.21425	-34.67768
	-70.21442	-34.68079
	-70.21597	-34.68333
	-70.21871	-34.68305
	-70.22129	-34.68149
	-70.22352	-34.68149
	-70.22627	-34.68361
	-70.22936	-34.68432
	-70.23193	-34.68629
	-70.23434	-34.68827
	-70.23725	-34.68869
	-70.24034	-34.68954
	-70.2424	-34.69053
	-70.24429	-34.69123
	-70.24704	-34.69349
	-70.24755	-34.69631
	-70.24858	-34.70041
	-70.25116	-34.70252
	-70.25408	-34.70633
	-70.25288	-34.71099
	-70.25682	-34.71932
	-70.26112	-34.72002
	-70.26335	-34.72129
	-70.26438	-34.72355
	-70.26215	-34.72679
	-70.26129	-34.72933
	-70.26249	-34.73173
	-70.26644	-34.73427
	-70.27107	-34.73596
	-70.27485	-34.73667
	-70.27777	-34.73667
	-70.27983	-34.73681
	-70.28463	-34.73667
	-70.28961	-34.73879
	-70.29407	-34.73879
	-70.29596	-34.7402
	-70.29991	-34.74302
	-70.30334	-34.74527
	-70.30641	-34.74864
	-70.30712	-34.75063
	-70.30729	-34.75317
	-70.30798	-34.75557
	-70.30815	-34.7591
	-70.30884	-34.7622
	-70.30884	-34.76516
	-70.30916	-34.7681
	-70.30695	-34.7701
	-70.30369	-34.77137
	-70.30025	-34.77207
	-70.29768	-34.77419
	-70.29528	-34.77715
	-70.29116	-34.77912
	-70.28652	-34.77983
	-70.28262	-34.78029
	-70.28068	-34.78208
	-70.2792	-34.78567
	-70.27691	-34.788
	-70.27347	-34.78969
	-70.26935	-34.79181
	-70.26249	-34.79209
	-70.257	-34.79265
	-70.25185	-34.79392
	-70.24979	-34.7959
	-70.24876	-34.79815
	-70.25047	-34.80111
	-70.25219	-34.80365
	-70.25459	-34.80591
	-70.25837	-34.80746
	-70.25768	-34.80957
	-70.25665	-34.81323
	-70.25648	-34.8169
	-70.25682	-34.82042
	-70.25888	-34.82324
	-70.26026	-34.82662
	-70.26264	-34.82942
	-70.26283	-34.83141
	-70.26352	-34.83367
	-70.26592	-34.83578
	-70.26901	-34.83705
	-70.2709	-34.84015
	-70.27279	-34.84283
	-70.2733	-34.84592
	-70.27603	-34.84915
	-70.27946	-34.85267
	-70.27912	-34.85577
	-70.27672	-34.85858
	-70.27672	-34.86168
	-70.28101	-34.86816
	-70.28375	-34.87112
	-70.28667	-34.87563
	-70.28839	-34.8807
	-70.28976	-34.8852
	-70.29062	-34.88858
	-70.2944	-34.89407
	-70.29869	-34.89689
	-70.30075	-34.89914
	-70.30195	-34.90322
	-70.30401	-34.90505
	-70.30659	-34.90717
	-70.30865	-34.91026
	-70.30985	-34.91378
	-70.31208	-34.91603
	-70.31259	-34.91871
	-70.31345	-34.92124
	-70.31534	-34.92237
	-70.31637	-34.92476
	-70.31757	-34.9287
	-70.31963	-34.93138
	-70.32324	-34.93152
	-70.32667	-34.93278
	-70.32942	-34.93574
	-70.33148	-34.93757
	-70.33216	-34.94024
	-70.33079	-34.94277
	-70.33045	-34.94503
	-70.33062	-34.9477
	-70.3301	-34.95023
	-70.33062	-34.95347
	-70.33045	-34.95572
	-70.32925	-34.95896
	-70.32976	-34.96233
	-70.33062	-34.96641
	-70.33028	-34.96993
	-70.3301	-34.97274
	-70.32907	-34.97527
	-70.32942	-34.97724
	-70.3301	-34.97977
	-70.33096	-34.98273
	-70.33182	-34.98596
	-70.33337	-34.98849
	-70.3344	-34.99159
	-70.338	-34.99229
	-70.34281	-34.99384
	-70.34916	-34.99482
	-70.35499	-34.99623
	-70.35671	-35.00129
	-70.35877	-35.00396
	-70.36547	-35.00523
	-70.36426	-35.00917
	-70.36615	-35.01591
	-70.36581	-35.01816
	-70.36392	-35.01971
	-70.36135	-35.02126
	-70.36066	-35.02463
	-70.36083	-35.02688
	-70.36014	-35.02871
	-70.36083	-35.03419
	-70.36426	-35.03644
	-70.36787	-35.03812
	-70.37044	-35.04051
	-70.37302	-35.04361
	-70.37542	-35.04613
	-70.37594	-35.04937
	-70.37594	-35.05288
	-70.37508	-35.05611
	-70.3725	-35.05934
	-70.37182	-35.06286
	-70.37113	-35.06707
	-70.37182	-35.07115
	-70.37182	-35.0762
	-70.37416	-35.08104
	-70.37319	-35.08632
	-70.37147	-35.09081
	-70.3713	-35.09292
	-70.36866	-35.09326
	-70.36626	-35.09256
	-70.3622	-35.09587
	-70.35854	-35.09747
	-70.35768	-35.09916
	-70.36008	-35.1
	-70.36186	-35.10135
	-70.36426	-35.10584
	-70.36815	-35.10843
	-70.37021	-35.11194
	-70.36941	-35.11581
	-70.36838	-35.12031
	-70.36787	-35.12564
	-70.36454	-35.12851
	-70.36197	-35.13328
	-70.36203	-35.13645
	-70.36358	-35.13968
	-70.36632	-35.14417
	-70.36993	-35.1481
	-70.37147	-35.15077
	-70.37096	-35.15344
	-70.37182	-35.15638
	-70.37456	-35.15975
	-70.37577	-35.16256
	-70.37645	-35.1655
	-70.37542	-35.16999
	-70.37611	-35.17266
	-70.37971	-35.1735
	-70.38435	-35.17168
	-70.38795	-35.17084
	-70.39029	-35.17219
	-70.39404	-35.17409
	-70.39939	-35.17609
	-70.40042	-35.17889
	-70.40416	-35.18069
	-70.40866	-35.17931
	-70.41542	-35.18304
	-70.41954	-35.18332
	-70.42239	-35.1838
	-70.42514	-35.18479
	-70.42606	-35.18819
	-70.42943	-35.18843
	-70.43115	-35.19096
	-70.43286	-35.19078
	-70.43716	-35.19208
	-70.44039	-35.19401
	-70.4427	-35.19373
	-70.44368	-35.19461
	-70.44728	-35.19461
	-70.44952	-35.19559
	-70.45158	-35.19489
	-70.45261	-35.19306
	-70.45432	-35.18913
	-70.45552	-35.19026
	-70.45793	-35.19222
	-70.4605	-35.19503
	-70.4617	-35.19811
	-70.46342	-35.19881
	-70.46582	-35.19867
	-70.46788	-35.19938
	-70.47068	-35.20292
	-70.47452	-35.20336
	-70.478	-35.20385
	-70.48253	-35.20309
	-70.48358	-35.20308
	-70.48467	-35.20288
	-70.48572	-35.20221
	-70.48624	-35.20202
	-70.48661	-35.20197
	-70.48686	-35.20211
	-70.48696	-35.20227
	-70.48901	-35.2034
	-70.48986	-35.20314
	-70.49122	-35.20289
	-70.49259	-35.20296
	-70.49549	-35.2033
	-70.49755	-35.20242
	-70.49956	-35.20221
	-70.50122	-35.20244
	-70.50287	-35.20242
	-70.51189	-35.2024
	-70.51475	-35.2033
	-70.51766	-35.20497
	-70.52032	-35.2054
	-70.52556	-35.20541
	-70.52848	-35.20232
	-70.52951	-35.19811
	-70.53672	-35.19938
	-70.54245	-35.20254
	-70.54983	-35.2097
	-70.55515	-35.21657
	-70.55979	-35.22036
	-70.56614	-35.22358
	-70.56762	-35.22378
	-70.56631	-35.22765
	-70.56391	-35.23424
	-70.56476	-35.24251
	-70.5682	-35.24728
	-70.57209	-35.2499
	-70.57277	-35.25028
	-70.57146	-35.25134
	-70.57122	-35.25364
	-70.57266	-35.25611
	-70.57592	-35.25779
	-70.58016	-35.25733
	-70.57999	-35.25856
	-70.57792	-35.26079
	-70.57929	-35.26388
	-70.58073	-35.26592
	-70.58222	-35.27317
	-70.58084	-35.27481
	-70.58101	-35.27677
	-70.58358	-35.27831
	-70.5829	-35.27999
	-70.57929	-35.28476
	-70.57672	-35.2877
	-70.57106	-35.29205
	-70.56882	-35.29611
	-70.56693	-35.29933
	-70.56504	-35.30031
	-70.56178	-35.30027
	-70.55869	-35.29933
	-70.5544	-35.30045
	-70.54994	-35.30115
	-70.54899	-35.30167
	-70.54755	-35.30229
	-70.5441	-35.30521
	-70.54015	-35.30675
	-70.53415	-35.30731
	-70.5314	-35.30857
	-70.52676	-35.30843
	-70.52248	-35.30862
	-70.51561	-35.30988
	-70.51199	-35.31049
	-70.50994	-35.31264
	-70.50702	-35.31502
	-70.50582	-35.31782
	-70.50513	-35.31978
	-70.50325	-35.32132
	-70.50033	-35.32244
	-70.49655	-35.323
	-70.49466	-35.3223
	-70.4926	-35.32188
	-70.49003	-35.32118
	-70.48642	-35.31852
	-70.48248	-35.31572
	-70.48007	-35.31488
	-70.47544	-35.31418
	-70.47235	-35.31404
	-70.46943	-35.31306
	-70.46754	-35.31278
	-70.46582	-35.31432
	-70.46411	-35.31712
	-70.46222	-35.31936
	-70.45964	-35.32034
	-70.45724	-35.3195
	-70.45364	-35.31698
	-70.45055	-35.31558
	-70.44608	-35.3153
	-70.43922	-35.31618
	-70.43441	-35.31753
	-70.43201	-35.31842
	-70.43411	-35.32046
	-70.43578	-35.3209
	-70.43681	-35.32216
	-70.43644	-35.32367
	-70.43664	-35.32664
	-70.43664	-35.32986
	-70.43596	-35.33169
	-70.43424	-35.33463
	-70.43218	-35.33715
	-70.4296	-35.34009
	-70.42875	-35.34233
	-70.42926	-35.34429
	-70.42806	-35.34779
	-70.42617	-35.34808
	-70.42016	-35.34947
	-70.41925	-35.35163
	-70.41862	-35.35441
	-70.4212	-35.35833
	-70.42274	-35.36085
	-70.42463	-35.36249
	-70.42514	-35.36529
	-70.42377	-35.36795
	-70.42239	-35.36991
	-70.42308	-35.37131
	-70.42514	-35.37257
	-70.42742	-35.37392
	-70.42875	-35.37621
	-70.43098	-35.37887
	-70.43235	-35.37873
	-70.43441	-35.37899
	-70.43681	-35.37985
	-70.44042	-35.38251
	-70.44609	-35.38577
	-70.44832	-35.38773
	-70.44866	-35.39006
	-70.44849	-35.39202
	-70.45055	-35.39384
	-70.45192	-35.3944
	-70.45295	-35.39524
	-70.45347	-35.39668
	-70.45072	-35.40004
	-70.45004	-35.40214
	-70.44695	-35.4076
	-70.44334	-35.41011
	-70.44042	-35.41193
	-70.43957	-35.41445
	-70.44111	-35.41683
	-70.44505	-35.41819
	-70.44849	-35.41945
	-70.45089	-35.4207
	-70.45175	-35.42168
	-70.45209	-35.42378
	-70.45329	-35.42532
	-70.45329	-35.42714
	-70.45175	-35.4284
	-70.44797	-35.4298
	-70.44643	-35.43203
	-70.44538	-35.43328
	-70.44059	-35.43441
	-70.43664	-35.43539
	-70.43356	-35.43599
	-70.43424	-35.44057
	-70.43321	-35.44378
	-70.43287	-35.44602
	-70.43441	-35.4477
	-70.43853	-35.4484
	-70.43991	-35.4525
	-70.43991	-35.45599
	-70.43922	-35.46061
	-70.43733	-35.46536
	-70.43356	-35.46871
	-70.43064	-35.47347
	-70.42824	-35.47808
	-70.4248	-35.48311
	-70.42086	-35.48633
	-70.41382	-35.49122
	-70.40695	-35.49457
	-70.40163	-35.49695
	-70.39768	-35.49989
	-70.39631	-35.50198
	-70.39648	-35.5038
	-70.39785	-35.50617
	-70.39871	-35.50799
	-70.39751	-35.50995
	-70.39425	-35.5119
	-70.39253	-35.51484
	-70.39236	-35.51679
	-70.39493	-35.51861
	-70.39734	-35.52182
	-70.40043	-35.52462
	-70.40575	-35.5249
	-70.4097	-35.5256
	-70.41176	-35.52755
	-70.41262	-35.52993
	-70.41159	-35.53216
	-70.40935	-35.5344
	-70.4085	-35.53691
	-70.40816	-35.5392
	-70.40918	-35.54138
	-70.41004	-35.54459
	-70.4097	-35.54739
	-70.4085	-35.55032
	-70.40729	-35.55353
	-70.40884	-35.55619
	-70.40884	-35.55954
	-70.40747	-35.56135
	-70.40523	-35.56247
	-70.40369	-35.56345
	-70.40352	-35.56652
	-70.40146	-35.56959
	-70.3994	-35.57294
	-70.39854	-35.57587
	-70.39854	-35.57964
	-70.39837	-35.58313
	-70.39768	-35.58648
	-70.39631	-35.59011
	-70.39459	-35.59333
	-70.3915	-35.59668
	-70.38875	-35.59961
	-70.38755	-35.6017
	-70.38669	-35.60421
	-70.38652	-35.60686
	-70.38755	-35.60868
	-70.39081	-35.6091
	-70.39287	-35.61091
	-70.39425	-35.61356
	-70.39614	-35.6158
	-70.39717	-35.61859
	-70.39734	-35.62166
	-70.40008	-35.62431
	-70.40214	-35.62668
	-70.4042	-35.62766
	-70.40695	-35.62808
	-70.41107	-35.62877
	-70.41485	-35.62933
	-70.41784	-35.62983
	-70.41896	-35.63041
	-70.42034	-35.63226
	-70.42068	-35.63449
	-70.42206	-35.63742
	-70.42377	-35.63882
	-70.42377	-35.64007
	-70.42154	-35.64133
	-70.41897	-35.643
	-70.41656	-35.6444
	-70.41553	-35.64496
	-70.41382	-35.6451
	-70.41227	-35.64551
	-70.41056	-35.64607
	-70.40884	-35.649
	-70.40832	-35.65137
	-70.40918	-35.65472
	-70.40781	-35.65709
	-70.40575	-35.65918
	-70.40352	-35.66462
	-70.40403	-35.66727
	-70.40609	-35.66937
	-70.40626	-35.67257
	-70.40523	-35.67606
	-70.40232	-35.67927
	-70.40008	-35.68205
	-70.3994	-35.68596
	-70.39717	-35.68763
	-70.39408	-35.68847
	-70.39081	-35.68903
	-70.38875	-35.69014
	-70.38652	-35.69265
	-70.38429	-35.69502
	-70.38172	-35.69725
	-70.37708	-35.6992
	-70.37588	-35.70046
	-70.37588	-35.70352
	-70.37382	-35.70687
	-70.37296	-35.70938
	-70.37107	-35.71231
	-70.3709	-35.71509
	-70.37107	-35.71844
	-70.36936	-35.72192
	-70.36918	-35.72583
	-70.36867	-35.72875
	-70.36901	-35.7314
	-70.37039	-35.7346
	-70.3697	-35.73725
	-70.36627	-35.73948
	-70.36283	-35.74255
	-70.36129	-35.74561
	-70.35825	-35.74894
	-70.36134	-35.75214
	-70.3658	-35.75409
	-70.36992	-35.75493
	-70.37439	-35.75771
	-70.37404	-35.76287
	-70.37713	-35.76705
	-70.37799	-35.77081
	-70.3773	-35.77513
	-70.37627	-35.78
	-70.37679	-35.78362
	-70.37936	-35.78724
	-70.3749	-35.78933
	-70.36975	-35.79016
	-70.3658	-35.79239
	-70.36185	-35.79504
	-70.35979	-35.79768
	-70.35842	-35.80019
	-70.35585	-35.80075
	-70.35155	-35.80033
	-70.34812	-35.79991
	-70.34486	-35.7988
	-70.34143	-35.79768
	-70.33816	-35.79671
	-70.3361	-35.79685
	-70.33301	-35.79852
	-70.33044	-35.8013
	-70.32821	-35.80506
	-70.32598	-35.80729
	-70.32409	-35.80966
	-70.32284	-35.81057
	-70.32092	-35.81061
	-70.31784	-35.81098
	-70.31378	-35.81204
	-70.31232	-35.81185
	-70.3104	-35.81192
	-70.30838	-35.81256
	-70.30761	-35.81288
	-70.30768	-35.81326
	-70.30842	-35.81338
	-70.3093	-35.81324
	-70.30997	-35.81365
	-70.31141	-35.81349
	-70.31208	-35.81331
	-70.31292	-35.81359
	-70.31388	-35.81487
	-70.31551	-35.81884
	-70.31825	-35.81982
	-70.32478	-35.81996
	-70.32718	-35.8233
	-70.3301	-35.82692
	-70.33473	-35.83026
	-70.33834	-35.83276
	-70.34108	-35.83415
	-70.34606	-35.8368
	-70.35035	-35.83819
	-70.35361	-35.8393
	-70.35739	-35.84056
	-70.35997	-35.84097
	-70.36443	-35.84056
	-70.36941	-35.84181
	-70.37267	-35.84473
	-70.37696	-35.84821
	-70.37902	-35.85127
	-70.38039	-35.856
	-70.37988	-35.86157
	-70.37954	-35.86574
	-70.38245	-35.86741
	-70.38606	-35.8688
	-70.38898	-35.86894
	-70.39258	-35.86866
	-70.39584	-35.8681
	-70.39928	-35.86671
	-70.4039	-35.86659
	-70.40666	-35.86727
	-70.41112	-35.87075
	-70.41679	-35.87297
	-70.42091	-35.87422
	-70.42176	-35.87659
	-70.42091	-35.88076
	-70.42039	-35.88438
	-70.42211	-35.88716
	-70.42331	-35.8905
	-70.42314	-35.89495
	-70.42331	-35.89815
	-70.42554	-35.90134
	-70.42571	-35.90607
	-70.42537	-35.91191
	-70.42314	-35.91553
	-70.41902	-35.91692
	-70.41387	-35.91761
	-70.41112	-35.91914
	-70.41026	-35.9222
	-70.40803	-35.92276
	-70.40065	-35.92276
	-70.39601	-35.92248
	-70.39155	-35.92276
	-70.38674	-35.92331
	-70.38383	-35.92234
	-70.37851	-35.92262
	-70.37353	-35.92248
	-70.36735	-35.92359
	-70.36924	-35.92693
	-70.37233	-35.92901
	-70.37851	-35.93221
	-70.38417	-35.93666
	-70.38777	-35.94263
	-70.39035	-35.94624
	-70.39104	-35.94791
	-70.39413	-35.95027
	-70.3979	-35.9518
	-70.40202	-35.95333
	-70.40683	-35.95528
	-70.41112	-35.95667
	-70.4161	-35.95875
	-70.41764	-35.96042
	-70.41679	-35.96348
	-70.4149	-35.965
	-70.41043	-35.96542
	-70.4046	-35.96695
	-70.40168	-35.97139
	-70.39876	-35.97598
	-70.39436	-35.98485
	-70.39189	-35.98779
	-70.38537	-35.99279
	-70.38177	-35.99626
	-70.38125	-35.9989
	-70.38228	-36.00209
	-70.38177	-36.00931
	-70.38237	-36.01384
	-70.38151	-36.01939
	-70.37662	-36.02875
	-70.37507	-36.03569
	-70.3737	-36.04027
	-70.37524	-36.04402
	-70.38142	-36.04596
	-70.38503	-36.04721
	-70.38777	-36.05221
	-70.39158	-36.05452
	-70.39822	-36.05225
	-70.39985	-36.05112
	-70.40271	-36.05165
	-70.40338	-36.05126
	-70.40416	-36.05132
	-70.40521	-36.05193
	-70.40666	-36.05318
	-70.4094	-36.05526
	-70.41129	-36.05873
	-70.41267	-36.06317
	-70.4137	-36.06484
	-70.4161	-36.06983
	-70.41799	-36.074
	-70.41696	-36.0801
	-70.41919	-36.08287
	-70.42022	-36.08815
	-70.41661	-36.10035
	-70.4149	-36.10576
	-70.4149	-36.10978
	-70.4173	-36.11353
	-70.4197	-36.1181
	-70.42142	-36.12296
	-70.4215	-36.12664
	-70.41919	-36.12975
	-70.41799	-36.13613
	-70.4197	-36.14167
	-70.42297	-36.14736
	-70.42159	-36.15263
	-70.42451	-36.15581
	-70.42477	-36.15603
	-70.43738	-36.16482
	-70.44322	-36.16773
	-70.44751	-36.17161
	-70.45129	-36.17217
	-70.45592	-36.17161
	-70.46193	-36.17258
	-70.46811	-36.1723
	-70.47275	-36.17286
	-70.47738	-36.17314
	-70.48082	-36.17286
	-70.48391	-36.1705
	-70.48888	-36.16967
	-70.49403	-36.17078
	-70.49815	-36.17092
	-70.50038	-36.17009
	-70.50416	-36.16884
	-70.50656	-36.16676
	-70.50777	-36.16399
	-70.50742	-36.15983
	-70.51068	-36.15609
	-70.51309	-36.15415
	-70.51738	-36.15165
	-70.52236	-36.14791
	-70.52425	-36.14666
	-70.52819	-36.14445
	-70.53128	-36.14278
	-70.53455	-36.14154
	-70.53849	-36.14264
	-70.54467	-36.14223
	-70.54828	-36.14057
	-70.5524	-36.1389
	-70.55858	-36.13807
	-70.56098	-36.13724
	-70.56407	-36.13405
	-70.5675	-36.13266
	-70.57008	-36.13308
	-70.57162	-36.13544
	-70.57471	-36.13682
	-70.5778	-36.13849
	-70.58021	-36.14098
	-70.58227	-36.14389
	-70.5833	-36.14722
	-70.58107	-36.15138
	-70.57935	-36.1547
	-70.57592	-36.15664
	-70.57231	-36.15761
	-70.57334	-36.1608
	-70.57437	-36.16413
	-70.5718	-36.16967
	-70.57128	-36.1748
	-70.57489	-36.17674
	-70.57901	-36.17965
	-70.58313	-36.18284
	-70.58656	-36.18976
	-70.59102	-36.18893
	-70.59566	-36.1899
	-70.5996	-36.1917
	-70.60184	-36.19461
	-70.60647	-36.20209
	-70.60681	-36.20625
	-70.61111	-36.20652
	-70.61299	-36.20846
	-70.61471	-36.20985
	-70.61775	-36.21054
	-70.62244	-36.21123
	-70.62707	-36.21207
	-70.63188	-36.21622
	-70.63325	-36.21705
	-70.63303	-36.21851
	-70.62862	-36.22051
	-70.6257	-36.22342
	-70.62535	-36.22675
	-70.62656	-36.23021
	-70.62947	-36.23478
	-70.63222	-36.23865
	-70.636	-36.24128
	-70.63737	-36.24225
	-70.6396	-36.24295
	-70.64355	-36.24225
	-70.6487	-36.24128
	-70.65368	-36.24073
	-70.65986	-36.24115
	-70.66466	-36.24239
	-70.6681	-36.24475
	-70.67067	-36.24738
	-70.67496	-36.24904
	-70.67874	-36.25153
	-70.68056	-36.25611
	-70.68561	-36.25651
	-70.69144	-36.2579
	-70.69179	-36.26053
	-70.69453	-36.26371
	-70.70106	-36.26897
	-70.70501	-36.27229
	-70.70535	-36.2734
	-70.70586	-36.27561
	-70.70466	-36.2781
	-70.70243	-36.27976
	-70.69968	-36.27976
	-70.69539	-36.27935
	-70.68956	-36.28129
	-70.68629	-36.28308
	-70.68492	-36.28516
	-70.68458	-36.28862
	-70.68698	-36.29222
	-70.6875	-36.29623
	-70.6887	-36.29941
	-70.68784	-36.30066
	-70.68492	-36.30232
	-70.68475	-36.30467
	-70.68612	-36.30799
	-70.68767	-36.31062
	-70.69179	-36.31186
	-70.69505	-36.3149
	-70.69877	-36.31823
	-70.70289	-36.32085
	-70.70221	-36.3239
	-70.70358	-36.32722
	-70.70444	-36.33067
	-70.70547	-36.33399
	-70.70822	-36.33717
	-70.71268	-36.33939
	-70.71234	-36.34229
	-70.71131	-36.34575
	-70.70993	-36.34948
	-70.70701	-36.35072
	-70.70341	-36.35183
	-70.70324	-36.35473
	-70.70341	-36.35874
	-70.70066	-36.36012
	-70.69774	-36.36054
	-70.69431	-36.35999
	-70.69242	-36.3622
	-70.69019	-36.36524
	-70.68865	-36.36842
	-70.68539	-36.36939
	-70.68247	-36.37201
	-70.68058	-36.37478
	-70.68006	-36.37837
	-70.68024	-36.38238
	-70.68006	-36.38583
	-70.67938	-36.38943
	-70.68058	-36.39233
	-70.68298	-36.39509
	-70.68607	-36.39813
	-70.6883	-36.4009
	-70.68899	-36.40435
	-70.69156	-36.40753
	-70.69483	-36.40849
	-70.70032	-36.40946
	-70.70361	-36.41417
	-70.70806	-36.41778
	-70.71113	-36.4241
	-70.71285	-36.42687
	-70.71577	-36.42797
	-70.71903	-36.42714
	-70.72349	-36.42714
	-70.72796	-36.42756
	-70.73276	-36.42921
	-70.73671	-36.42935
	-70.73929	-36.42977
	-70.7398	-36.42797
	-70.73997	-36.42618
	-70.73894	-36.42341
	-70.7362	-36.41927
	-70.73534	-36.41637
	-70.73603	-36.41443
	-70.73809	-36.41167
	-70.74049	-36.40753
	-70.74358	-36.40601
	-70.74701	-36.40573
	-70.75027	-36.4067
	-70.75371	-36.40697
	-70.75594	-36.40932
	-70.75868	-36.41402
	-70.76023	-36.41761
	-70.76246	-36.42051
	-70.76538	-36.42341
	-70.76881	-36.42576
	-70.7731	-36.42825
	-70.7774	-36.42852
	-70.78255	-36.42852
	-70.78735	-36.4288
	-70.78993	-36.42797
	-70.7913	-36.42673
	-70.79267	-36.42341
	-70.79353	-36.42065
	-70.79594	-36.4183
	-70.8016	-36.41057
	-70.8052	-36.40739
	-70.80744	-36.40421
	-70.81585	-36.39634
	-70.81877	-36.39606
	-70.82237	-36.3991
	-70.82443	-36.402
	-70.82769	-36.40311
	-70.83181	-36.40587
	-70.83336	-36.40822
	-70.83404	-36.41126
	-70.83645	-36.41402
	-70.84074	-36.41485
	-70.84589	-36.41595
	-70.85087	-36.41623
	-70.85499	-36.41526
	-70.85756	-36.41333
	-70.86117	-36.41167
	-70.86563	-36.41167
	-70.86923	-36.4107
	-70.87044	-36.40822
	-70.87129	-36.40545
	-70.86992	-36.40228
	-70.8664	-36.39702
	-70.87258	-36.39702
	-70.87825	-36.39674
	-70.88391	-36.39605
	-70.88563	-36.39716
	-70.88855	-36.3995
	-70.89009	-36.40337
	-70.89043	-36.4089
	-70.88992	-36.41235
	-70.8882	-36.41498
	-70.88837	-36.41719
	-70.8894	-36.42037
	-70.89112	-36.42313
	-70.89198	-36.42575
	-70.89095	-36.42879
	-70.89026	-36.43155
	-70.887	-36.43625
	-70.88734	-36.43887
	-70.88923	-36.44177
	-70.89232	-36.44481
	-70.89318	-36.44757
	-70.89455	-36.45061
	-70.89387	-36.45337
	-70.89164	-36.45655
	-70.88855	-36.45972
	-70.88769	-36.4629
	-70.8894	-36.46566
	-70.89129	-36.46828
	-70.89576	-36.47146
	-70.90039	-36.47325
	-70.90485	-36.47408
	-70.91103	-36.47353
	-70.91584	-36.47242
	-70.92065	-36.47256
	-70.92528	-36.4738
	-70.92871	-36.47518
	-70.92751	-36.48015
	-70.92854	-36.48416
	-70.93215	-36.48623
	-70.93592	-36.48926
	-70.94125	-36.4905
	-70.94485	-36.49106
	-70.94949	-36.49506
	-70.95223	-36.49713
	-70.95292	-36.50072
	-70.95481	-36.50292
	-70.95824	-36.50458
	-70.9627	-36.5032
	-70.96734	-36.50251
	-70.97266	-36.50334
	-70.97523	-36.50099
	-70.97695	-36.49644
	-70.97953	-36.49299
	-70.98365	-36.49258
	-70.98759	-36.49354
	-70.99103	-36.49299
	-70.99436	-36.48847
	-70.99824	-36.4865
	-71.0027	-36.48733
	-71.00734	-36.48733
	-71.01034	-36.48665
	-71.01195	-36.484
	-71.01274	-36.48168
	-71.01429	-36.47795
	-71.0175	-36.47583
	-71.01927	-36.47381
	-71.02253	-36.47216
	-71.02579	-36.4716
	-71.03025	-36.47174
	-71.03538	-36.47314
	-71.03727	-36.47093
	-71.03984	-36.46942
	-71.04465	-36.46817
	-71.04877	-36.4679
	-71.05203	-36.46707
	-71.05443	-36.46541
	-71.05735	-36.46431
	-71.0605	-36.46421
	-71.05975	-36.46279
	-71.05975	-36.45906
	-71.0601	-36.45658
	-71.0617	-36.45316
	-71.06479	-36.4504
	-71.06703	-36.44888
	-71.06902	-36.4476
	-71.06713	-36.44567
	-71.06404	-36.44222
	-71.06284	-36.44014
	-71.06319	-36.43738
	-71.06136	-36.43535
	-71.0605	-36.43272
	-71.06078	-36.42979
	-71.06113	-36.42799
	-71.06078	-36.42606
	-71.05924	-36.42274
	-71.05941	-36.42053
	-71.0613	-36.41929
	-71.06284	-36.41542
	-71.06422	-36.41045
	-71.06376	-36.40841
	-71.06222	-36.40675
	-71.06222	-36.40482
	-71.06256	-36.40192
	-71.06353	-36.39939
	-71.06456	-36.39746
	-71.06404	-36.39566
	-71.0625	-36.39304
	-71.06164	-36.39041
	-71.06164	-36.38682
	-71.0637	-36.38295
	-71.06456	-36.38198
	-71.06645	-36.38019
	-71.06885	-36.37963
	-71.07194	-36.37936
	-71.07366	-36.37811
	-71.07537	-36.37576
	-71.07761	-36.373
	-71.08024	-36.37124
	-71.08265	-36.37041
	-71.08574	-36.36944
	-71.08859	-36.36871
	-71.09175	-36.36903
	-71.09501	-36.36958
	-71.09724	-36.3693
	-71.10153	-36.36695
	-71.10679	-36.36554
	-71.10936	-36.36401
	-71.11125	-36.36263
	-71.114	-36.36111
	-71.11606	-36.3618
	-71.1176	-36.36374
	-71.12018	-36.36554
	-71.12739	-36.36913
	-71.12996	-36.37065
	-71.13408	-36.37341
	-71.13717	-36.37521
	-71.13923	-36.37659
	-71.14095	-36.37991
	-71.14318	-36.3824
	-71.14473	-36.38406
	-71.14507	-36.38875
	-71.14713	-36.39138
	-71.1485	-36.39276
	-71.14919	-36.39497
	-71.15073	-36.39774
	-71.15297	-36.4005
	-71.15537	-36.4034
	-71.15829	-36.40451
	-71.16035	-36.40326
	-71.16275	-36.40133
	-71.1655	-36.40091
	-71.16859	-36.40133
	-71.16996	-36.40354
	-71.17305	-36.40395
	-71.177	-36.40409
	-71.18095	-36.40409
	-71.18232	-36.40589
	-71.18438	-36.40851
	-71.18592	-36.4092
	-71.18798	-36.40934
	-71.19004	-36.41155
	-71.19245	-36.41293
	-71.19348	-36.41528
	-71.19502	-36.41708
	-71.1964	-36.4186
	-71.19657	-36.41956
	-71.19657	-36.42164
	-71.19708	-36.42454
	-71.19708	-36.42744
	-71.1976	-36.42965
	-71.19725	-36.43255
	-71.19691	-36.43642
	-71.19794	-36.43932
	-71.2024	-36.44277
	-71.20429	-36.44429
	-71.20704	-36.44663
	-71.20824	-36.44815
	-71.21167	-36.44843
	-71.21545	-36.44898
	-71.21957	-36.45064
	-71.22163	-36.45216
	-71.22403	-36.4545
	-71.22523	-36.45727
	-71.22506	-36.4603
	-71.22506	-36.46251
	-71.22781	-36.46403
	-71.23107	-36.46445
	-71.23365	-36.46555
	-71.23674	-36.465
	-71.2412	-36.46279
	-71.24395	-36.46044
	-71.24704	-36.45906
	-71.24756	-36.45798
	-71.24915	-36.45553
	-71.25121	-36.45359
	-71.25362	-36.45138
	-71.25469	-36.45098
	-71.25692	-36.44918
	-71.26104	-36.44642
	-71.26396	-36.44476
	-71.2658	-36.44075
	-71.26804	-36.44047
	-71.27151	-36.44131
	-71.27336	-36.44462
	-71.27666	-36.44615
	-71.28027	-36.44794
	-71.28246	-36.45097
	-71.28383	-36.4529
	-71.2852	-36.45649
	-71.28726	-36.45939
	-71.2907	-36.46105
	-71.29173	-36.46284
	-71.294	-36.46382
	-71.29434	-36.46796
	-71.29589	-36.47113
	-71.29499	-36.47499
	-71.29585	-36.47761
	-71.29791	-36.47927
	-71.30271	-36.48175
	-71.30632	-36.48493
	-71.30872	-36.48879
	-71.30906	-36.49238
	-71.30906	-36.49583
	-71.30924	-36.49887
	-71.31009	-36.50287
	-71.31147	-36.50728
	-71.31301	-36.5117
	-71.31439	-36.51446
	-71.31593	-36.51874
	-71.31765	-36.52287
	-71.31919	-36.52674
	-71.32056	-36.53101
	-71.32245	-36.53474
	-71.32589	-36.53791
	-71.32898	-36.54081
	-71.33069	-36.5426
	-71.33378	-36.5437
	-71.33653	-36.54398
	-71.3391	-36.54329
	-71.34134	-36.54094
	-71.34391	-36.53708
	-71.34546	-36.53419
	-71.34614	-36.53129
	-71.34631	-36.52853
	-71.34666	-36.52646
	-71.34631	-36.52301
	-71.34666	-36.51984
	-71.3494	-36.51708
	-71.35301	-36.5128
	-71.35627	-36.51253
	-71.36073	-36.51267
	-71.36503	-36.51322
	-71.36838	-36.51293
	-71.37181	-36.51224
	-71.37335	-36.51183
	-71.3773	-36.51183
	-71.37988	-36.51169
	-71.38262	-36.51141
	-71.38468	-36.51141
	-71.38829	-36.51072
	-71.39172	-36.51086
	-71.39516	-36.5099
	-71.39859	-36.50865
	-71.40202	-36.50727
	-71.40528	-36.5052
	-71.40837	-36.5041
	-71.40957	-36.50162
	-71.41095	-36.49858
	-71.41301	-36.49679
	-71.41507	-36.49458
	-71.41593	-36.49196
	-71.41696	-36.48961
	-71.41781	-36.48795
	-71.41816	-36.48602
	-71.41799	-36.48368
	-71.41936	-36.48133
	-71.42142	-36.4794
	-71.42382	-36.4776
	-71.42485	-36.47539
	-71.42537	-36.47263
	-71.42726	-36.47015
	-71.42897	-36.46877
	-71.43069	-36.46684
	-71.4312	-36.46518
	-71.4312	-36.46297
	-71.43292	-36.46118
	-71.43275	-36.4598
	-71.43155	-36.4569
	-71.43241	-36.45496
	-71.43412	-36.45372
	-71.4367	-36.45331
	-71.43773	-36.45248
	-71.43738	-36.45054
	-71.43721	-36.44903
	-71.43807	-36.44751
	-71.43773	-36.44626
	-71.43721	-36.44461
	-71.43824	-36.44295
	-71.43859	-36.44129
	-71.43721	-36.43867
	-71.43756	-36.43577
	-71.43841	-36.43287
	-71.4403	-36.43149
	-71.44219	-36.4308
	-71.44442	-36.43135
	-71.44665	-36.43121
	-71.44786	-36.43011
	-71.44837	-36.4279
	-71.44923	-36.42527
	-71.45146	-36.4243
	-71.45369	-36.42265
	-71.45681	-36.42108
	-71.45955	-36.41929
	-71.46299	-36.41708
	-71.46522	-36.41349
	-71.46711	-36.41224
	-71.46934	-36.41211
	-71.47208	-36.41293
	-71.47483	-36.41252
	-71.47844	-36.41307
	-71.48238	-36.41404
	-71.48788	-36.41473
	-71.4945	-36.41548
	-71.4969	-36.41583
	-71.49982	-36.41541
	-71.50171	-36.41569
	-71.50367	-36.41556
	-71.50463	-36.41521
	-71.50557	-36.41438
	-71.50617	-36.41279
	-71.5066	-36.41175
	-71.50755	-36.41148
	-71.50926	-36.41044
	-71.51071	-36.40907
	-71.51191	-36.40768
	-71.51431	-36.40658
	-71.51586	-36.40547
	-71.51785	-36.40533
	-71.51948	-36.40616
	-71.52068	-36.4081
	-71.52154	-36.40885
	-71.52325	-36.40927
	-71.52523	-36.40858
	-71.52772	-36.40719
	-71.53046	-36.40733
	-71.53338	-36.40671
	-71.53604	-36.40609
	-71.53862	-36.40664
	-71.54126	-36.40741
	-71.54487	-36.40686
	-71.54694	-36.40588
	-71.54823	-36.40415
	-71.54926	-36.40333
	-71.55038	-36.40284
	-71.55227	-36.40312
	-71.55312	-36.40388
	-71.55654	-36.40368
	-71.55802	-36.40367
	-71.56214	-36.40374
	-71.5666	-36.4034
	-71.56935	-36.40367
	-71.57192	-36.40409
	-71.57457	-36.40326
	-71.57628	-36.40105
	-71.57645	-36.39898
	-71.57903	-36.39608
	-71.5805	-36.39421
	-71.58274	-36.392
	-71.58454	-36.39089
	-71.58806	-36.39103
	-71.59029	-36.39055
	-71.59552	-36.38861
	-71.5981	-36.38737
	-71.60031	-36.38668
	-71.60376	-36.38626
	-71.60667	-36.38516
	-71.60855	-36.38378
	-71.60976	-36.38212
	-71.61199	-36.38115
	-71.61456	-36.37991
	-71.61662	-36.37839
	-71.61861	-36.37686
	-71.62059	-36.37638
	-71.62213	-36.37693
	-71.62332	-36.37687
	-71.62505	-36.37534
	-71.62606	-36.37411
	-71.62762	-36.37203
	-71.629	-36.37064
	-71.63071	-36.37002
	-71.63277	-36.36968
	-71.63621	-36.36871
	-71.63758	-36.3685
	-71.63998	-36.36781
	-71.64101	-36.36767
	-71.64368	-36.36643
	-71.64513	-36.36643
	-71.64677	-36.36594
	-71.64908	-36.36643
	-71.65303	-36.36581
	-71.65466	-36.3656
	-71.65603	-36.36498
	-71.65749	-36.36429
	-71.65981	-36.36283
	-71.66187	-36.36242
	-71.66427	-36.36242
	-71.66797	-36.36145
	-71.67011	-36.36055
	-71.67191	-36.36069
	-71.67337	-36.36055
	-71.67517	-36.35889
	-71.67681	-36.35848
	-71.67794	-36.35736
	-71.67861	-36.35537
	-71.68041	-36.35475
	-71.68135	-36.35412
	-71.68187	-36.35357
	-71.68333	-36.35336
	-71.68487	-36.35267
	-71.68728	-36.35094
	-71.68874	-36.35094
	-71.69045	-36.35143
	-71.69217	-36.35129
	-71.69341	-36.35018
	-71.6932	-36.34956
	-71.69397	-36.34901
	-71.69492	-36.34887
	-71.69715	-36.34929
	-71.69775	-36.34977
	-71.70054	-36.34942
	-71.7011	-36.34832
	-71.70256	-36.34797
	-71.7053	-36.34783
	-71.70796	-36.34707
	-71.71097	-36.34673
	-71.712	-36.3468
	-71.7132	-36.34631
	-71.71346	-36.34555
	-71.71277	-36.34472
	-71.71292	-36.34381
	-71.71341	-36.3432
	-71.71582	-36.34085
	-71.71788	-36.33849
	-71.72028	-36.33559
	-71.72354	-36.33255
	-71.72663	-36.3302
	-71.72762	-36.32972
	-71.72925	-36.32924
	-71.73054	-36.32799
	-71.73096	-36.32702
	-71.73086	-36.32619
	-71.73217	-36.32522
	-71.73388	-36.32502
	-71.73508	-36.32481
	-71.73611	-36.32543
	-71.73757	-36.3264
	-71.73843	-36.32675
	-71.73997	-36.32675
	-71.73995	-36.32664
	-71.73994	-36.32619
	-71.73997	-36.32592
	-71.74046	-36.32336
	-71.74054	-36.32303
	-71.74085	-36.32244
	-71.74089	-36.32239
	-71.74118	-36.32208
	-71.74152	-36.32183
	-71.74171	-36.32173
	-71.74387	-36.32064
	-71.74421	-36.32048
	-71.74562	-36.32002
	-71.74603	-36.3199
	-71.7463	-36.31973
	-71.74664	-36.3196
	-71.74687	-36.31955
	-71.74766	-36.31942
	-71.7495	-36.31907
	-71.75141	-36.31816
	-71.75171	-36.31803
	-71.75269	-36.31767
	-71.75372	-36.31732
	-71.75433	-36.31706
	-71.75533	-36.31667
	-71.75616	-36.31641
	-71.75711	-36.31616
	-71.75746	-36.31611
	-71.75778	-36.31609
	-71.75823	-36.31611
	-71.75867	-36.31604
	-71.75906	-36.31601
	-71.75928	-36.31601
	-71.76005	-36.31605
	-71.76085	-36.31592
	-71.76138	-36.31591
	-71.76152	-36.31485
	-71.76229	-36.31312
	-71.76289	-36.31215
	-71.76392	-36.31119
	-71.76495	-36.31091
	-71.76624	-36.31084
	-71.76701	-36.31022
	-71.76761	-36.30883
	-71.7677	-36.30766
	-71.76753	-36.30655
	-71.7671	-36.30572
	-71.7671	-36.30489
	-71.76804	-36.30378
	-71.76916	-36.30261
	-71.77028	-36.30171
	-71.77139	-36.30157
	-71.77311	-36.30129
	-71.77422	-36.30088
	-71.77465	-36.30005
	-71.77482	-36.29936
	-71.77431	-36.29874
	-71.77379	-36.29804
	-71.77414	-36.29721
	-71.77482	-36.29666
	-71.7756	-36.29652
	-71.77646	-36.29694
	-71.77714	-36.29673
	-71.77852	-36.2959
	-71.77937	-36.29555
	-71.77955	-36.29493
	-71.78032	-36.29389
	-71.781	-36.29355
	-71.78212	-36.29341
	-71.78375	-36.29389
	-71.78487	-36.29389
	-71.78581	-36.29348
	-71.78641	-36.29251
	-71.78753	-36.2914
	-71.7883	-36.29071
	-71.78881	-36.29036
	-71.78984	-36.28877
	-71.7901	-36.28753
	-71.79062	-36.28663
	-71.79148	-36.28614
	-71.79225	-36.28573
	-71.79319	-36.28476
	-71.79379	-36.28393
	-71.79362	-36.28296
	-71.79319	-36.28199
	-71.79293	-36.28096
	-71.79285	-36.27999
	-71.79362	-36.27916
	-71.79517	-36.27833
	-71.7962	-36.27805
	-71.79663	-36.2775
	-71.79688	-36.27673
	-71.79663	-36.27577
	-71.79663	-36.27514
	-71.79748	-36.27452
	-71.79808	-36.27397
	-71.79886	-36.27355
	-71.79989	-36.27334
	-71.80092	-36.27369
	-71.80212	-36.27383
	-71.80298	-36.27334
	-71.80349	-36.27251
	-71.80384	-36.27168
	-71.80375	-36.27071
	-71.80255	-36.26968
	-71.80263	-36.26871
	-71.80341	-36.26802
	-71.80452	-36.26712
	-71.80521	-36.2658
	-71.80555	-36.26511
	-71.80538	-36.26414
	-71.80444	-36.26359
	-71.80469	-36.26276
	-71.80547	-36.26213
	-71.80662	-36.26189
	-71.808	-36.26155
	-71.80899	-36.26137
	-71.80993	-36.26075
	-71.8107	-36.25999
	-71.81113	-36.25923
	-71.81079	-36.25867
	-71.81053	-36.25784
	-71.81113	-36.25708
	-71.81156	-36.25632
	-71.81174	-36.25571
	-71.81215	-36.25549
	-71.81245	-36.25521
	-71.81276	-36.2548
	-71.81308	-36.25452
	-71.81343	-36.25433
	-71.81404	-36.25425
	-71.81565	-36.2542
	-71.81636	-36.25408
	-71.81715	-36.25405
	-71.81777	-36.25418
	-71.81806	-36.25419
	-71.81869	-36.25438
	-71.81933	-36.25471
	-71.82001	-36.25518
	-71.82161	-36.2557
	-71.82195	-36.25586
	-71.82221	-36.25591
	-71.82358	-36.2559
	-71.82438	-36.2556
	-71.82476	-36.25539
	-71.82514	-36.25497
	-71.82593	-36.25435
	-71.82694	-36.25346
	-71.82755	-36.25297
	-71.82829	-36.25254
	-71.83134	-36.25144
	-71.83243	-36.25115
	-71.83387	-36.25103
	-71.8351	-36.25102
	-71.83671	-36.25121
	-71.83772	-36.25168
	-71.83824	-36.25206
	-71.83847	-36.25237
	-71.8385	-36.25276
	-71.8386	-36.253
	-71.83853	-36.25364
	-71.83856	-36.25408
	-71.83933	-36.25483
	-71.83963	-36.25503
	-71.84085	-36.25562
	-71.84152	-36.2558
	-71.84262	-36.25582
	-71.84289	-36.25576
	-71.84405	-36.25532
	-71.84642	-36.25522
	-71.84751	-36.25495
	-71.84778	-36.25475
	-71.84834	-36.25458
	-71.84861	-36.25444
	-71.84912	-36.25397
	-71.84923	-36.25368
	-71.84917	-36.25315
	-71.84902	-36.25283
	-71.84777	-36.25178
	-71.84678	-36.25082
	-71.84655	-36.25043
	-71.84645	-36.25013
	-71.8464	-36.24942
	-71.84691	-36.24862
	-71.84696	-36.24844
	-71.84694	-36.24742
	-71.84699	-36.2471
	-71.84762	-36.2465
	-71.84791	-36.24638
	-71.84852	-36.24629
	-71.84938	-36.24629
	-71.84974	-36.24634
	-71.8506	-36.24666
	-71.85118	-36.24681
	-71.85314	-36.24686
	-71.85548	-36.24684
	-71.85596	-36.2467
	-71.85652	-36.2466
	-71.85785	-36.24642
	-71.85917	-36.24633
	-71.85965	-36.2462
	-71.86009	-36.24614
	-71.86137	-36.24604
	-71.86292	-36.24581
	-71.86397	-36.24581
	-71.86448	-36.24585
	-71.86529	-36.24616
	-71.86716	-36.24739
	-71.86743	-36.24759
	-71.86761	-36.24782
	-71.86769	-36.248
	-71.86775	-36.24899
	-71.86777	-36.24985
	-71.86769	-36.2504
	-71.86776	-36.25084
	-71.86808	-36.25184
	-71.86811	-36.25219
	-71.86843	-36.25261
	-71.86877	-36.25352
	-71.86936	-36.25444
	-71.87005	-36.25506
	-71.87055	-36.25545
	-71.87147	-36.25599
	-71.87204	-36.25638
	-71.87229	-36.25667
	-71.87276	-36.25699
	-71.87355	-36.25763
	-71.87413	-36.25799
	-71.87517	-36.25851
	-71.87613	-36.25882
	-71.87676	-36.25885
	-71.87731	-36.25897
	-71.87834	-36.25897
	-71.87942	-36.25925
	-71.87967	-36.25926
	-71.88082	-36.25952
	-71.88181	-36.26019
	-71.88593	-36.26199
	-71.88885	-36.26282
	-71.89125	-36.26282
	-71.89314	-36.26213
	-71.89589	-36.26213
	-71.89692	-36.26282
	-71.8976	-36.26517
	-71.89949	-36.26628
	-71.90687	-36.26725
	-71.90842	-36.26822
	-71.91014	-36.26822
	-71.91237	-36.26642
	-71.9146	-36.26573
	-71.91666	-36.26351
	-71.91838	-36.26102
	-71.92026	-36.26005
	-71.92318	-36.25881
	-71.92799	-36.25853
	-71.93448	-36.2572
	-71.94035	-36.25839
	-71.94292	-36.25839
	-71.94533	-36.25784
	-71.94807	-36.25631
	-71.95151	-36.25645
	-71.95391	-36.25479
	-71.95425	-36.25285
	-71.9546	-36.25175
	-71.95614	-36.25091
	-71.95803	-36.25147
	-71.95992	-36.25313
	-71.96349	-36.25235
	-71.96438	-36.25382
	-71.96524	-36.25631
	-71.96524	-36.25936
	-71.96696	-36.25991
	-71.9697	-36.26005
	-71.97314	-36.25977
	-71.97811	-36.25548
	-71.98035	-36.25327
	-71.98052	-36.25161
	-71.98052	-36.24302
	-71.97966	-36.24109
	-71.98052	-36.2397
	-71.98326	-36.24039
	-71.98653	-36.24164
	-71.98979	-36.24261
	-71.9915	-36.24233
	-71.99219	-36.24109
	-71.99133	-36.23873
	-71.99185	-36.23707
	-71.99219	-36.23485
	-71.99253	-36.23278
	-71.99373	-36.23084
	-71.99528	-36.22973
	-71.99751	-36.2289
	-71.99871	-36.22752
	-71.99923	-36.22682
	-71.99957	-36.22475
	-71.9994	-36.22336
	-71.99906	-36.22128
	-71.99953	-36.21718
	-71.997	-36.21574
	-71.99476	-36.2145
	-71.99065	-36.21339
	-71.98962	-36.21117
	-71.99013	-36.20951
	-71.99168	-36.20827
	-71.99356	-36.20813
	-71.99545	-36.20896
	-71.99734	-36.20924
	-71.99854	-36.20688
	-72.00125	-36.20513
	-72.00314	-36.20416
	-72.00795	-36.20638
	-72.00966	-36.20666
	-72.01001	-36.20458
	-72.01138	-36.20306
	-72.01258	-36.20084
	-72.01227	-36.19871
	-72.01107	-36.19594
	-72.0109	-36.19441
	-72.0109	-36.19289
	-72.01176	-36.19192
	-72.01296	-36.19123
	-72.01433	-36.19123
	-72.01519	-36.19178
	-72.01828	-36.19109
	-72.0212	-36.18901
	-72.02257	-36.18652
	-72.02481	-36.18264
	-72.02532	-36.18084
	-72.02378	-36.17903
	-72.02257	-36.17626
	-72.02309	-36.17474
	-72.02532	-36.17391
	-72.02772	-36.17405
	-72.02961	-36.17585
	-72.03373	-36.17709
	-72.03596	-36.1764
	-72.03802	-36.17335
	-72.04043	-36.17197
	-72.04403	-36.17044
	-72.04558	-36.16906
	-72.04609	-36.16753
	-72.04832	-36.16629
	-72.05055	-36.16351
	-72.05519	-36.15963
	-72.05776	-36.15811
	-72.05965	-36.15672
	-72.06223	-36.15755
	-72.06635	-36.15755
	-72.06961	-36.15714
	-72.07236	-36.15631
	-72.07304	-36.15534
	-72.07304	-36.15187
	-72.07133	-36.15007
	-72.07201	-36.14771
	-72.0727	-36.1466
	-72.0751	-36.14577
	-72.07751	-36.14397
	-72.07871	-36.14258
	-72.07888	-36.14092
	-72.07871	-36.13981
	-72.07785	-36.13898
	-72.07699	-36.13856
	-72.07596	-36.13898
	-72.0739	-36.1387
	-72.07253	-36.13773
	-72.07218	-36.13621
	-72.0739	-36.13385
	-72.07596	-36.13136
	-72.07768	-36.1308
	-72.08042	-36.13066
	-72.0854	-36.13052
	-72.08763	-36.13066
	-72.08952	-36.13163
	-72.09175	-36.13427
	-72.09296	-36.13607
	-72.09502	-36.13787
	-72.09656	-36.13912
	-72.09896	-36.14009
	-72.10085	-36.13953
	-72.10205	-36.13912
	-72.10205	-36.13773
	-72.10171	-36.13649
	-72.10085	-36.13565
	-72.09948	-36.13454
	-72.09896	-36.13288
	-72.09845	-36.13025
	-72.09828	-36.12761
	-72.09892	-36.12651
	-72.1009	-36.12568
	-72.10278	-36.12561
	-72.10257	-36.12664
	-72.10257	-36.13108
	-72.10308	-36.13357
	-72.10371	-36.13436
	-72.1036	-36.13829
	-72.10291	-36.14258
	-72.10205	-36.14453
	-72.10044	-36.14497
	-72.0983	-36.14517
	-72.09735	-36.14739
	-72.09744	-36.14836
	-72.09881	-36.14996
	-72.09879	-36.15118
	-72.09879	-36.15298
	-72.09914	-36.15492
	-72.09879	-36.15658
	-72.10051	-36.15797
	-72.10087	-36.15924
	-72.10087	-36.16132
	-72.10122	-36.1625
	-72.1036	-36.16296
	-72.10456	-36.16499
	-72.10497	-36.16684
	-72.10549	-36.16836
	-72.1072	-36.16989
	-72.10875	-36.17086
	-72.10961	-36.17224
	-72.11061	-36.17292
	-72.11177	-36.17317
	-72.11306	-36.17421
	-72.11315	-36.17511
	-72.11338	-36.1764
	-72.11493	-36.17862
	-72.11682	-36.17987
	-72.11853	-36.1807
	-72.11905	-36.18167
	-72.11939	-36.1825
	-72.12059	-36.18361
	-72.12059	-36.18458
	-72.12162	-36.18652
	-72.12265	-36.18735
	-72.1237	-36.18723
	-72.12448	-36.18751
	-72.12473	-36.18883
	-72.12746	-36.19012
	-72.12883	-36.1904
	-72.13038	-36.19164
	-72.13074	-36.19271
	-72.13014	-36.19485
	-72.12952	-36.19621
	-72.12849	-36.19746
	-72.12797	-36.19843
	-72.1278	-36.19995
	-72.12815	-36.20134
	-72.13003	-36.20189
	-72.13055	-36.20286
	-72.13089	-36.20356
	-72.13089	-36.20466
	-72.13124	-36.20591
	-72.13141	-36.20716
	-72.13175	-36.21007
	-72.13141	-36.21131
	-72.13089	-36.21284
	-72.13057	-36.21404
	-72.12885	-36.21452
	-72.12963	-36.21632
	-72.12988	-36.21715
	-72.12946	-36.21819
	-72.13066	-36.21951
	-72.13177	-36.22089
	-72.13246	-36.22249
	-72.13237	-36.2238
	-72.13366	-36.22442
	-72.13435	-36.22657
	-72.1345	-36.22724
	-72.1345	-36.22862
	-72.13398	-36.22945
	-72.13306	-36.23003
	-72.13203	-36.23135
	-72.13255	-36.23218
	-72.13381	-36.23389
	-72.13501	-36.23638
	-72.13639	-36.23749
	-72.13675	-36.23896
	-72.13701	-36.24014
	-72.13795	-36.24146
	-72.13896	-36.24275
	-72.13896	-36.24441
	-72.13827	-36.24635
	-72.13692	-36.24748
	-72.13787	-36.24921
	-72.13804	-36.24976
	-72.13941	-36.25039
	-72.14061	-36.25101
	-72.14181	-36.25177
	-72.14345	-36.25177
	-72.1449	-36.25219
	-72.14593	-36.25225
	-72.14705	-36.25253
	-72.14799	-36.25219
	-72.15057	-36.25225
	-72.15134	-36.25142
	-72.15229	-36.24962
	-72.15309	-36.24755
	-72.15223	-36.24215
	-72.15601	-36.2407
	-72.15446	-36.23537
	-72.16948	-36.2326
	-72.1712	-36.23135
	-72.17944	-36.22949
	-72.1815	-36.22845
	-72.18399	-36.22782
	-72.18648	-36.22589
	-72.18631	-36.2245
	-72.18562	-36.22291
	-72.18699	-36.22173
	-72.18982	-36.22069
	-72.19103	-36.21979
	-72.19291	-36.21931
	-72.19489	-36.2182
	-72.20124	-36.21702
	-72.20339	-36.21709
	-72.20802	-36.21633
	-72.20888	-36.21591
	-72.21065	-36.21501
	-72.21082	-36.21432
	-72.21032	-36.21114
	-72.21549	-36.21087
	-72.21591	-36.2155
	-72.22315	-36.21509
	-72.2205	-36.20813
	-72.22942	-36.20757
	-72.23719	-36.20745
	-72.23966	-36.20968
	-72.24215	-36.21265
	-72.24716	-36.21889
	-72.25506	-36.23523
	-72.27016	-36.25503
	-72.27068	-36.25586
	-72.2748	-36.25946
	-72.27737	-36.26154
	-72.27768	-36.25938
	-72.27863	-36.25841
	-72.28149	-36.25794
	-72.28189	-36.25717
	-72.28215	-36.25634
	-72.28395	-36.25601
	-72.28447	-36.25516
	-72.28575	-36.25494
	-72.28713	-36.25516
	-72.28853	-36.25448
	-72.29042	-36.25489
	-72.29168	-36.25502
	-72.29459	-36.25392
	-72.29625	-36.25198
	-72.29785	-36.25032
	-72.29949	-36.24928
	-72.30137	-36.2472
	-72.3024	-36.2463
	-72.30266	-36.24457
	-72.30352	-36.24333
	-72.30515	-36.24166
	-72.30627	-36.24118
	-72.307	-36.23992
	-72.30798	-36.23869
	-72.30936	-36.23765
	-72.31039	-36.23571
	-72.31142	-36.23516
	-72.31262	-36.23405
	-72.31339	-36.23329
	-72.31348	-36.23266
	-72.31514	-36.23274
	-72.31685	-36.23288
	-72.31857	-36.23315
	-72.3208	-36.2326
	-72.323	-36.23239
	-72.32421	-36.23273
	-72.32566	-36.23287
	-72.32721	-36.23259
	-72.32921	-36.23302
	-72.33076	-36.23315
	-72.33296	-36.23349
	-72.33373	-36.23349
	-72.33442	-36.23391
	-72.33691	-36.23426
	-72.3388	-36.2353
	-72.34017	-36.23536
	-72.34266	-36.23668
	-72.34342	-36.23647
	-72.34549	-36.2373
	-72.34601	-36.2382
	-72.34747	-36.23889
	-72.34789	-36.23979
	-72.34832	-36.24111
	-72.34884	-36.24215
	-72.35013	-36.24423
	-72.35107	-36.24499
	-72.35219	-36.24547
	-72.35356	-36.2472
	-72.35442	-36.24734
	-72.35648	-36.24755
	-72.35751	-36.24824
	-72.35785	-36.24956
	-72.35914	-36.25039
	-72.36163	-36.25177
	-72.36309	-36.2517
	-72.3642	-36.25177
	-72.36472	-36.25239
	-72.36489	-36.2535
	-72.36575	-36.25412
	-72.36798	-36.25488
	-72.3697	-36.25544
	-72.37081	-36.25599
	-72.37218	-36.2562
	-72.37373	-36.25544
	-72.37459	-36.25461
	-72.37613	-36.25371
	-72.37725	-36.2535
	-72.37845	-36.2535
	-72.37914	-36.25405
	-72.37982	-36.25364
	-72.37999	-36.25267
	-72.37982	-36.25184
	-72.37982	-36.25135
	-72.38085	-36.25087
	-72.38274	-36.25059
	-72.38427	-36.24962
	-72.38736	-36.24865
	-72.38858	-36.24831
	-72.38901	-36.24741
	-72.38875	-36.24644
	-72.38789	-36.24603
	-72.3866	-36.24554
	-72.38635	-36.2445
	-72.38676	-36.24367
	-72.38695	-36.24312
	-72.38742	-36.24247
	-72.38892	-36.24187
	-72.38935	-36.24104
	-72.38908	-36.24021
	-72.39063	-36.23785
	-72.392	-36.23619
	-72.39167	-36.23502
	-72.39072	-36.23433
	-72.39072	-36.23377
	-72.39184	-36.23329
	-72.39313	-36.23308
	-72.39399	-36.23273
	-72.39467	-36.23204
	-72.39639	-36.23218
	-72.39896	-36.23176
	-72.39938	-36.23148
	-72.40017	-36.23052
	-72.40068	-36.22893
	-72.40154	-36.22851
	-72.40274	-36.22837
	-72.40368	-36.2283
	-72.40463	-36.22754
	-72.40549	-36.22574
	-72.4066	-36.22546
	-72.4124	-36.22296
	-72.41222	-36.20795
	-72.37021	-36.21438
	-72.36566	-36.21667
	-72.33772	-36.20504
	-72.3363	-36.18045
	-72.33869	-36.1743
	-72.34456	-36.17364
	-72.35251	-36.16709
	-72.35888	-36.15755
	-72.3709	-36.1639
	-72.37363	-36.1697
	-72.3776	-36.16962
	-72.37931	-36.16971
	-72.38077	-36.1704
	-72.38187	-36.17067
	-72.38308	-36.17165
	-72.38429	-36.17227
	-72.38489	-36.17331
	-72.386	-36.17386
	-72.38806	-36.17449
	-72.38995	-36.17518
	-72.39286	-36.17511
	-72.3951	-36.17518
	-72.39768	-36.17449
	-72.39922	-36.17421
	-72.39991	-36.17449
	-72.40051	-36.1758
	-72.40197	-36.17587
	-72.40437	-36.17553
	-72.40626	-36.17497
	-72.40745	-36.17428
	-72.40918	-36.17359
	-72.41098	-36.17338
	-72.41244	-36.17338
	-72.41407	-36.17241
	-72.41596	-36.17116
	-72.41793	-36.17047
	-72.41931	-36.16971
	-72.42085	-36.16922
	-72.42145	-36.16797
	-72.42197	-36.16576
	-72.4217	-36.16444
	-72.42221	-36.16319
	-72.42358	-36.16236
	-72.42513	-36.16028
	-72.42547	-36.15945
	-72.42616	-36.15792
	-72.42685	-36.15737
	-72.42823	-36.15751
	-72.43021	-36.15786
	-72.43149	-36.15709
	-72.43235	-36.15661
	-72.43398	-36.15703
	-72.43561	-36.15716
	-72.43793	-36.15689
	-72.43999	-36.15612
	-72.44257	-36.15585
	-72.44505	-36.15474
	-72.44686	-36.15328
	-72.44763	-36.15204
	-72.44943	-36.15148
	-72.45141	-36.15044
	-72.45338	-36.14996
	-72.45621	-36.14996
	-72.45862	-36.14961
	-72.45998	-36.14933
	-72.4641	-36.14877
	-72.46701	-36.1478
	-72.46925	-36.14822
	-72.4708	-36.15086
	-72.47295	-36.15224
	-72.47594	-36.15279
	-72.47904	-36.15238
	-72.47995	-36.15189
	-72.48085	-36.15072
	-72.48188	-36.14989
	-72.48694	-36.14843
	-72.4884	-36.14718
	-72.48945	-36.14689
	-72.49149	-36.14684
	-72.49312	-36.14649
	-72.49484	-36.14559
	-72.49672	-36.14504
	-72.49973	-36.14427
	-72.50136	-36.14289
	-72.50169	-36.14143
	-72.50093	-36.14053
	-72.49818	-36.13942
	-72.49767	-36.13817
	-72.49801	-36.13734
	-72.49818	-36.13616
	-72.49715	-36.13526
	-72.49519	-36.13579
	-72.49329	-36.13596
	-72.4926	-36.13526
	-72.49226	-36.13401
	-72.49363	-36.13235
	-72.49475	-36.13089
	-72.49441	-36.12972
	-72.49312	-36.12854
	-72.49139	-36.12812
	-72.48977	-36.12778
	-72.48883	-36.12646
	-72.4884	-36.12535
	-72.48874	-36.12403
	-72.49003	-36.12278
	-72.49156	-36.12022
	-72.49173	-36.11758
	-72.49259	-36.11508
	-72.49259	-36.11134
	-72.49311	-36.10926
	-72.49278	-36.10781
	-72.49303	-36.1067
	-72.49569	-36.10489
	-72.4987	-36.1033
	-72.49964	-36.10157
	-72.50067	-36.10032
	-72.50042	-36.09817
	-72.4993	-36.09727
	-72.49793	-36.09588
	-72.49715	-36.09428
	-72.4974	-36.09289
	-72.49912	-36.09012
	-72.49963	-36.08832
	-72.50119	-36.08693
	-72.5011	-36.08568
	-72.50016	-36.08485
	-72.4981	-36.08506
	-72.49518	-36.08554
	-72.49243	-36.08568
	-72.49106	-36.08457
	-72.49053	-36.08221
	-72.48796	-36.08027
	-72.48693	-36.07722
	-72.48814	-36.07646
	-72.48866	-36.07576
	-72.48943	-36.07535
	-72.4908	-36.07486
	-72.49123	-36.07361
	-72.49209	-36.07229
	-72.49311	-36.07208
	-72.49534	-36.0725
	-72.49604	-36.07299
	-72.4968	-36.07259
	-72.49775	-36.07292
	-72.49887	-36.07313
	-72.50042	-36.07292
	-72.50093	-36.07306
	-72.50187	-36.07382
	-72.50256	-36.07465
	-72.50272	-36.07569
	-72.50478	-36.07597
	-72.5077	-36.07597
	-72.50873	-36.07708
	-72.50942	-36.07847
	-72.51062	-36.07971
	-72.5125	-36.08041
	-72.51456	-36.08082
	-72.51731	-36.08082
	-72.51903	-36.07999
	-72.51971	-36.0786
	-72.52023	-36.07749
	-72.52177	-36.07597
	-72.52332	-36.07583
	-72.52401	-36.07444
	-72.52504	-36.07333
	-72.52641	-36.07194
	-72.52778	-36.0707
	-72.52754	-36.07014
	-72.52895	-36.07005
	-72.53001	-36.06945
	-72.5319	-36.06945
	-72.53432	-36.06994
	-72.53578	-36.06973
	-72.53732	-36.07001
	-72.5386	-36.0707
	-72.53904	-36.07146
	-72.53904	-36.07264
	-72.53955	-36.0732
	-72.54049	-36.07416
	-72.54118	-36.07604
	-72.54196	-36.07604
	-72.54299	-36.07576
	-72.54393	-36.07562
	-72.54512	-36.07583
	-72.54632	-36.07666
	-72.54735	-36.07749
	-72.54924	-36.07819
	-72.5592	-36.07597
	-72.56625	-36.07533
	-72.57036	-36.07386
	-72.57677	-36.07468
	-72.58046	-36.07543
	-72.58202	-36.07624
	-72.5823	-36.07798
	-72.58359	-36.07743
	-72.58401	-36.07625
	-72.58529	-36.07569
	-72.58718	-36.07569
	-72.58975	-36.0743
	-72.59044	-36.07305
	-72.59113	-36.07208
	-72.59095	-36.07083
	-72.58992	-36.06959
	-72.58822	-36.06862
	-72.58719	-36.06785
	-72.58769	-36.06709
	-72.58769	-36.06598
	-72.58821	-36.06528
	-72.58882	-36.06466
	-72.59019	-36.06459
	-72.59078	-36.06528
	-72.59181	-36.06542
	-72.59301	-36.06528
	-72.5926	-36.06452
	-72.592	-36.06348
	-72.59225	-36.06251
	-72.59371	-36.0621
	-72.59525	-36.06098
	-72.59765	-36.06071
	-72.59919	-36.05973
	-72.60091	-36.05973
	-72.60228	-36.05932
	-72.60194	-36.05821
	-72.60194	-36.0571
	-72.60469	-36.05626
	-72.60675	-36.05557
	-72.60864	-36.05515
	-72.61035	-36.05474
	-72.61258	-36.05321
	-72.6143	-36.0528
	-72.61584	-36.05307
	-72.61773	-36.0546
	-72.61928	-36.05502
	-72.62031	-36.05446
	-72.62048	-36.05321
	-72.62117	-36.05155
	-72.62117	-36.05057
	-72.62237	-36.04946
	-72.6234	-36.04835
	-72.62391	-36.0471
	-72.62357	-36.0453
	-72.62288	-36.04405
	-72.62271	-36.04294
	-72.62271	-36.04211
	-72.62151	-36.04086
	-72.62082	-36.03989
	-72.62117	-36.03864
	-72.62099	-36.03739
	-72.61998	-36.0367
	-72.62031	-36.03558
	-72.62099	-36.03489
	-72.62178	-36.03503
	-72.62272	-36.0351
	-72.62393	-36.03475
	-72.6241	-36.03392
	-72.62393	-36.03295
	-72.62341	-36.03226
	-72.62384	-36.0317
	-72.62632	-36.0317
	-72.62717	-36.03201
	-72.62762	-36.03288
	-72.62899	-36.03267
	-72.62968	-36.03211
	-72.63079	-36.03198
	-72.63208	-36.03149
	-72.63328	-36.03094
	-72.63268	-36.03031
	-72.63259	-36.02955
	-72.63268	-36.02872
	-72.63199	-36.02865
	-72.63174	-36.02899
	-72.63105	-36.02948
	-72.63011	-36.02941
	-72.62968	-36.02878
	-72.62993	-36.02816
	-72.63026	-36.02712
	-72.62992	-36.02545
	-72.63122	-36.0249
	-72.63284	-36.02365
	-72.63387	-36.02184
	-72.63474	-36.02108
	-72.63594	-36.02052
	-72.63774	-36.02059
	-72.63988	-36.02045
	-72.64125	-36.01948
	-72.64194	-36.01823
	-72.64297	-36.01726
	-72.64412	-36.01606
	-72.64658	-36.01651
	-72.65531	-36.04674
	-72.65663	-36.04525
	-72.65679	-36.04312
	-72.65656	-36.04245
	-72.65658	-36.04071
	-72.65696	-36.04011
	-72.65823	-36.0393
	-72.65904	-36.03844
	-72.66005	-36.03649
	-72.66292	-36.03427
	-72.66335	-36.03361
	-72.66421	-36.03284
	-72.66485	-36.03191
	-72.66743	-36.03031
	-72.67065	-36.02916
	-72.67378	-36.02878
	-72.67597	-36.02798
	-72.67704	-36.02705
	-72.67781	-36.0259
	-72.67875	-36.02361
	-72.67828	-36.02358
	-72.67846	-36.02076
	-72.67933	-36.01999
	-72.67959	-36.0198
	-72.68011	-36.01953
	-72.68046	-36.01944
	-72.68066	-36.01927
	-72.68104	-36.019
	-72.68151	-36.01873
	-72.68251	-36.01803
	-72.68288	-36.01781
	-72.68328	-36.01764
	-72.68368	-36.01754
	-72.68401	-36.01751
	-72.68426	-36.01751
	-72.68436	-36.01748
	-72.68472	-36.0173
	-72.68511	-36.01713
	-72.68576	-36.0169
	-72.68588	-36.01683
	-72.68613	-36.01672
	-72.68643	-36.01662
	-72.68687	-36.01654
	-72.68718	-36.01651
	-72.68794	-36.01648
	-72.68838	-36.01648
	-72.68864	-36.01644
	-72.68902	-36.01642
	-72.68962	-36.01645
	-72.69026	-36.01651
	-72.69084	-36.01659
	-72.69104	-36.01663
	-72.69135	-36.01672
	-72.69174	-36.01687
	-72.69212	-36.01712
	-72.69241	-36.01739
	-72.69279	-36.0175
	-72.69337	-36.01772
	-72.69384	-36.01799
	-72.6943	-36.01844
	-72.69452	-36.01889
	-72.69461	-36.019
	-72.6948	-36.01909
	-72.69536	-36.01942
	-72.69573	-36.01976
	-72.69579	-36.01983
	-72.69625	-36.01995
	-72.69631	-36.01993
	-72.69685	-36.01963
	-72.69715	-36.0195
	-72.69754	-36.01924
	-72.69806	-36.01896
	-72.69845	-36.01855
	-72.69877	-36.01827
	-72.69921	-36.01795
	-72.69952	-36.01778
	-72.69986	-36.01766
	-72.70008	-36.01742
	-72.70029	-36.01728
	-72.70053	-36.01695
	-72.70076	-36.01674
	-72.70117	-36.01641
	-72.70161	-36.01617
	-72.70199	-36.01605
	-72.70219	-36.01601
	-72.70303	-36.01589
	-72.70352	-36.01561
	-72.70381	-36.0155
	-72.70397	-36.01546
	-72.70399	-36.01553
	-72.70633	-36.01593
	-72.70665	-36.01631
	-72.70692	-36.01677
	-72.70704	-36.01757
	-72.70737	-36.01793
	-72.70769	-36.01856
	-72.70779	-36.01902
	-72.70781	-36.01926
	-72.7078	-36.01939
	-72.70804	-36.01962
	-72.70832	-36.01983
	-72.70881	-36.02014
	-72.70912	-36.02041
	-72.70919	-36.02048
	-72.70942	-36.02078
	-72.70967	-36.0212
	-72.70981	-36.02132
	-72.71014	-36.02144
	-72.71028	-36.02145
	-72.71067	-36.02189
	-72.71077	-36.02184
	-72.71266	-36.02142
	-72.71472	-36.02156
	-72.71695	-36.02295
	-72.71791	-36.024
	-72.71901	-36.02337
	-72.7209	-36.02281
	-72.72159	-36.02184
	-72.72073	-36.02017
	-72.72107	-36.01892
	-72.72399	-36.01767
	-72.72657	-36.0167
	-72.72897	-36.01629
	-72.73154	-36.01573
	-72.73267	-36.01393
	-72.73463	-36.01323
	-72.73601	-36.0117
	-72.73772	-36.01018
	-72.73893	-36.0099
	-72.74047	-36.0099
	-72.7427	-36.00823
	-72.74442	-36.00768
	-72.74648	-36.00754
	-72.74952	-36.00787
	-72.75209	-36.00676
	-72.75293	-36.00664
	-72.75439	-36.00671
	-72.75885	-36.00546
	-72.76074	-36.00574
	-72.76188	-36.00523
	-72.76342	-36.00561
	-72.76512	-36.00553
	-72.76583	-36.00745
	-72.76617	-36.00898
	-72.76771	-36.01037
	-72.76992	-36.01136
	-72.77155	-36.01087
	-72.7725	-36.01163
	-72.77305	-36.01194
	-72.77336	-36.01182
	-72.77378	-36.01163
	-72.77429	-36.01156
	-72.7747	-36.01139
	-72.77489	-36.01141
	-72.77506	-36.01135
	-72.7754	-36.01116
	-72.77557	-36.01115
	-72.77575	-36.01125
	-72.7758	-36.01139
	-72.77583	-36.01245
	-72.77611	-36.01275
	-72.77647	-36.01329
	-72.77703	-36.01384
	-72.77775	-36.01419
	-72.77815	-36.01436
	-72.77838	-36.01429
	-72.77867	-36.01412
	-72.77892	-36.01317
	-74.69378	-35.42487
	-74.53129	-31.97253
	-71.54164	-32.17797
	-71.53385	-32.17833
	-71.5311	-32.17949
	-71.5272	-32.17985
	-71.52424	-32.18058
	-71.52215	-32.18135
	-71.51928	-32.18134
	-71.51679	-32.18032
	-71.5152	-32.17908
	-71.51393	-32.1785
	-71.51269	-32.17846
	-71.51175	-32.17863
	-71.5105	-32.1797
	-71.50919	-32.18046
	-71.50744	-32.18111
	-71.50564	-32.18122
	-71.50301	-32.18098
	-71.50037	-32.17927
	-71.49975	-32.17645
	-71.498	-32.17494
	-71.49774	-32.17338
	-71.49598	-32.17072
	-71.49468	-32.16825
	-71.49503	-32.16389
	-71.49489	-32.16257
	-71.4939	-32.16145
	-71.49253	-32.15912
	-71.49086	-32.15897
	-71.48918	-32.15973
	-71.48465	-32.15868
	-71.48231	-32.15765
	-71.47972	-32.15616
	-71.47811	-32.15506
	-71.47606	-32.15628
	-71.47485	-32.15942
	-71.47313	-32.16145
	-71.4709	-32.16247
	-71.46849	-32.16479
	-71.46678	-32.16625
	-71.46146	-32.16726
	-71.45785	-32.1677
	-71.45545	-32.16901
	-71.45322	-32.17075
	-71.44635	-32.17046
	-71.44412	-32.17206
	-71.44309	-32.17322
	-71.43983	-32.17395
	-71.43742	-32.17525
	-71.43416	-32.17772
	-71.43416	-32.17947
	-71.43279	-32.18136
	-71.43056	-32.18295
	-71.42781	-32.18397
	-71.42524	-32.18426
	-71.42318	-32.18557
	-71.41957	-32.18659
	-71.41785	-32.18673
	-71.41562	-32.18673
	-71.41322	-32.18688
	-71.41099	-32.18833
	-71.40961	-32.18964
	-71.40532	-32.1892
	-71.4024	-32.1892
	-71.39897	-32.19022
	-71.3964	-32.18964
	-71.39468	-32.18993
	-71.39108	-32.18978
	-71.38764	-32.18935
	-71.3861	-32.19051
	-71.38387	-32.19312
	-71.38095	-32.19385
	-71.37803	-32.19443
	-71.37477	-32.19632
	-71.37236	-32.19835
	-71.37065	-32.19937
	-71.36773	-32.19937
	-71.36412	-32.20111
	-71.36069	-32.19966
	-71.35897	-32.1985
	-71.35623	-32.19806
	-71.35417	-32.19835
	-71.35142	-32.19821
	-71.34747	-32.19937
	-71.34438	-32.19966
	-71.3425	-32.20126
	-71.34061	-32.20271
	-71.3382	-32.20271
	-71.33529	-32.20169
	-71.33185	-32.20111
	-71.32893	-32.19966
	-71.32499	-32.19893
	-71.32258	-32.19719
	-71.32035	-32.19545
	-71.31812	-32.19385
	-71.31606	-32.19269
	-71.31348	-32.19138
	-71.31091	-32.19094
	-71.30885	-32.19109
	-71.3061	-32.19182
	-71.30164	-32.19196
	-71.29512	-32.19225
	-71.29117	-32.19225
	-71.28945	-32.19124
	-71.28636	-32.19022
	-71.2843	-32.18906
	-71.28465	-32.18688
	-71.28533	-32.1847
	-71.28465	-32.1831
	-71.28327	-32.18165
	-71.2807	-32.18078
	-71.27847	-32.1799
	-71.27641	-32.1799
	-71.27383	-32.17918
	-71.27194	-32.17787
	-71.2704	-32.17598
	-71.26851	-32.1738
	-71.26696	-32.17249
	-71.26319	-32.1709
	-71.26096	-32.17119
	-71.25821	-32.17278
	-71.25546	-32.17235
	-71.25409	-32.17104
	-71.25289	-32.16813
	-71.25169	-32.16595
	-71.2498	-32.16363
	-71.2498	-32.15796
	-71.24877	-32.15549
	-71.24654	-32.15331
	-71.24585	-32.1507
	-71.24448	-32.14866
	-71.24242	-32.14648
	-71.2419	-32.14459
	-71.24018	-32.14241
	-71.23744	-32.14096
	-71.23538	-32.13965
	-71.23332	-32.13805
	-71.23057	-32.13747
	-71.22684	-32.1361
	-71.22656	-32.13428
	-71.22588	-32.13283
	-71.22465	-32.13128
	-71.22342	-32.12918
	-71.2226	-32.12793
	-71.22177	-32.12733
	-71.22062	-32.12739
	-71.21935	-32.12797
	-71.21874	-32.12851
	-71.21726	-32.12798
	-71.21584	-32.12786
	-71.21429	-32.12804
	-71.21246	-32.12785
	-71.21098	-32.12825
	-71.21032	-32.12996
	-71.20957	-32.13086
	-71.20757	-32.13137
	-71.20517	-32.13311
	-71.20293	-32.13442
	-71.20242	-32.13602
	-71.20259	-32.1379
	-71.20122	-32.14067
	-71.19899	-32.14256
	-71.19693	-32.14459
	-71.19487	-32.14735
	-71.19298	-32.15084
	-71.19178	-32.15346
	-71.19092	-32.1568
	-71.1904	-32.15898
	-71.18886	-32.16072
	-71.18783	-32.16305
	-71.18748	-32.16508
	-71.18525	-32.16726
	-71.18319	-32.16944
	-71.18182	-32.17119
	-71.17942	-32.1709
	-71.17633	-32.17002
	-71.17307	-32.16872
	-71.17083	-32.16828
	-71.16826	-32.16828
	-71.16603	-32.16755
	-71.16345	-32.16566
	-71.16088	-32.16407
	-71.15744	-32.16261
	-71.15332	-32.16058
	-71.14903	-32.15665
	-71.14663	-32.15462
	-71.14405	-32.15215
	-71.14028	-32.15244
	-71.13599	-32.152
	-71.13427	-32.15157
	-71.1329	-32.14808
	-71.13169	-32.14663
	-71.13118	-32.14372
	-71.13101	-32.1411
	-71.13049	-32.13921
	-71.1274	-32.13878
	-71.125	-32.13863
	-71.1226	-32.13732
	-71.12157	-32.1334
	-71.11934	-32.13151
	-71.11573	-32.13049
	-71.11161	-32.12846
	-71.10921	-32.12584
	-71.10612	-32.12424
	-71.10406	-32.12119
	-71.10234	-32.11784
	-71.10028	-32.11523
	-71.09702	-32.11377
	-71.09462	-32.11072
	-71.09118	-32.10694
	-71.08861	-32.10476
	-71.08449	-32.10229
	-71.08191	-32.09996
	-71.07831	-32.09894
	-71.07522	-32.09836
	-71.07333	-32.09676
	-71.07058	-32.09618
	-71.06749	-32.09501
	-71.06509	-32.09283
	-71.0632	-32.09007
	-71.06183	-32.08774
	-71.05925	-32.08556
	-71.05616	-32.08338
	-71.05136	-32.08033
	-71.0493	-32.0796
	-71.04724	-32.07785
	-71.04518	-32.07654
	-71.04277	-32.07596
	-71.04054	-32.07494
	-71.03831	-32.07553
	-71.03659	-32.07742
	-71.03488	-32.07625
	-71.03179	-32.07494
	-71.0299	-32.07436
	-71.0299	-32.07131
	-71.03179	-32.06912
	-71.03385	-32.06709
	-71.03522	-32.06476
	-71.03694	-32.06156
	-71.03883	-32.05894
	-71.04003	-32.05763
	-71.04003	-32.05472
	-71.04123	-32.05312
	-71.04243	-32.04978
	-71.04312	-32.04643
	-71.04295	-32.04366
	-71.04209	-32.04061
	-71.04209	-32.03712
	-71.04174	-32.03464
	-71.04003	-32.03304
	-71.03762	-32.03275
	-71.03522	-32.03333
	-71.03247	-32.03275
	-71.02921	-32.03275
	-71.02612	-32.03348
	-71.02269	-32.03537
	-71.02046	-32.03552
	-71.01788	-32.03464
	-71.01325	-32.0345
	-71.01033	-32.03508
	-71.00776	-32.03726
	-71.00449	-32.03915
	-71.00192	-32.0409
	-70.99917	-32.04177
	-70.99522	-32.0425
	-70.99231	-32.04308
	-70.98733	-32.04599
	-70.98424	-32.04468
	-70.98012	-32.04439
	-70.9758	-32.04338
	-70.9739	-32.04309
	-70.97274	-32.04352
	-70.97205	-32.04439
	-70.9693	-32.04541
	-70.96524	-32.0472
	-70.96056	-32.04709
	-70.95663	-32.04716
	-70.95191	-32.04829
	-70.9515	-32.0493
	-70.95197	-32.05283
	-70.95197	-32.05501
	-70.95162	-32.05632
	-70.94991	-32.05763
	-70.94819	-32.05807
	-70.94493	-32.05792
	-70.94276	-32.05856
	-70.94132	-32.06083
	-70.93961	-32.06287
	-70.93961	-32.06505
	-70.93995	-32.06825
	-70.93995	-32.07102
	-70.93909	-32.07407
	-70.93823	-32.07625
	-70.93652	-32.07713
	-70.93343	-32.07858
	-70.93034	-32.0796
	-70.92828	-32.07785
	-70.92673	-32.07422
	-70.92398	-32.07043
	-70.92072	-32.06782
	-70.91935	-32.06622
	-70.91677	-32.06462
	-70.9142	-32.06287
	-70.91248	-32.06258
	-70.90768	-32.06549
	-70.90493	-32.06622
	-70.90098	-32.06636
	-70.89738	-32.06607
	-70.89463	-32.06331
	-70.8924	-32.06214
	-70.88862	-32.06171
	-70.88742	-32.06127
	-70.8845	-32.06141
	-70.8821	-32.06418
	-70.87935	-32.06418
	-70.87506	-32.06287
	-70.8718	-32.05952
	-70.86991	-32.05763
	-70.86785	-32.05749
	-70.86322	-32.05589
	-70.86047	-32.05327
	-70.85738	-32.05225
	-70.85412	-32.05167
	-70.85034	-32.05239
	-70.84571	-32.05123
	-70.84142	-32.05079
	-70.83747	-32.0505
	-70.83455	-32.05181
	-70.83026	-32.05007
	-70.82425	-32.04541
	-70.8191	-32.04148
	-70.81292	-32.03741
	-70.80811	-32.03581
	-70.80399	-32.03508
	-70.80039	-32.03406
	-70.79799	-32.03435
	-70.79369	-32.03508
	-70.78923	-32.03683
	-70.78563	-32.03712
	-70.77996	-32.03683
	-70.77533	-32.03843
	-70.77224	-32.04003
	-70.76812	-32.03784
	-70.76365	-32.03522
	-70.75936	-32.03362
	-70.75627	-32.03231
	-70.75387	-32.02969
	-70.75129	-32.02853
	-70.74769	-32.0278
	-70.74477	-32.02649
	-70.74288	-32.02489
	-70.74185	-32.0214
	-70.74014	-32.02023
	-70.7367	-32.02169
	-70.73241	-32.02387
	-70.73018	-32.0262
	-70.72709	-32.0278
	-70.72314	-32.02882
	-70.71833	-32.02955
	-70.71439	-32.02999
	-70.70992	-32.03042
	-70.70649	-32.03086
	-70.7034	-32.03202
	-70.69997	-32.03493
	-70.69876	-32.03799
	-70.69653	-32.04163
	-70.69344	-32.04716
	-70.69121	-32.05138
	-70.69207	-32.05385
	-70.69224	-32.05632
	-70.69138	-32.05938
	-70.69087	-32.062
	-70.68692	-32.06025
	-70.68349	-32.05967
	-70.6804	-32.06011
	-70.67628	-32.06171
	-70.67302	-32.06229
	-70.66975	-32.06171
	-70.66821	-32.06098
	-70.6646	-32.05923
	-70.66186	-32.0572
	-70.65997	-32.05589
	-70.65654	-32.0556
	-70.65602	-32.05763
	-70.65516	-32.06025
	-70.65448	-32.06331
	-70.65293	-32.06505
	-70.65053	-32.06782
	-70.64864	-32.07058
	-70.64572	-32.07407
	-70.64538	-32.07771
	-70.6495	-32.08091
	-70.65104	-32.0828
	-70.65242	-32.08702
	-70.6543	-32.09152
	-70.65602	-32.09589
	-70.65671	-32.09821
	-70.65602	-32.10069
	-70.65568	-32.10258
	-70.65499	-32.1033
	-70.65259	-32.10519
	-70.65156	-32.10708
	-70.65293	-32.10897
	-70.65293	-32.1113
	-70.65242	-32.11377
	-70.65242	-32.11624
	-70.6543	-32.12002
	-70.65379	-32.12497
	-70.65276	-32.1286
	-70.65293	-32.13107
	-70.65276	-32.1334
	-70.65139	-32.135
	-70.64778	-32.13703
	-70.64452	-32.13892
	-70.64195	-32.13965
	-70.6392	-32.14052
	-70.63611	-32.14256
	-70.63199	-32.14328
	-70.6289	-32.14474
	-70.62547	-32.14677
	-70.62186	-32.14604
	-70.61877	-32.14561
	-70.61602	-32.14546
	-70.61345	-32.14721
	-70.61259	-32.14953
	-70.60847	-32.15389
	-70.60555	-32.15709
	-70.60143	-32.15927
	-70.59851	-32.15956
	-70.59628	-32.1616
	-70.59319	-32.16348
	-70.59148	-32.16319
	-70.5889	-32.16305
	-70.58633	-32.16407
	-70.58324	-32.16465
	-70.58032	-32.16552
	-70.57671	-32.16494
	-70.57156	-32.16537
	-70.56916	-32.16537
	-70.5671	-32.16566
	-70.56401	-32.16552
	-70.56144	-32.16697
	-70.5592	-32.16828
	-70.55594	-32.16944
	-70.55371	-32.17133
	-70.55199	-32.17177
	-70.54856	-32.17206
	-70.54616	-32.17322
	-70.54375	-32.17467
	-70.54221	-32.17307
	-70.53912	-32.17249
	-70.53603	-32.17177
	-70.53346	-32.17017
	-70.53157	-32.1677
	-70.53037	-32.16436
	-70.53019	-32.16247
	-70.5326	-32.16116
	-70.53569	-32.15956
	-70.53603	-32.15651
	-70.53689	-32.15229
	-70.53654	-32.1507
	-70.53466	-32.14968
	-70.53277	-32.14852
	-70.5314	-32.14779
	-70.52934	-32.14982
	-70.52728	-32.14982
	-70.52384	-32.15099
	-70.52075	-32.15258
	-70.51818	-32.15317
	-70.51577	-32.15462
	-70.51217	-32.15549
	-70.50771	-32.15694
	-70.50479	-32.15724
	-70.50256	-32.15782
	-70.50135	-32.15942
	-70.50032	-32.16189
	-70.50032	-32.16421
	-70.5017	-32.16712
	-70.50273	-32.16944
	-70.50135	-32.1709
	-70.49895	-32.17119
	-70.49655	-32.17162
	-70.49311	-32.17249
	-70.4902	-32.17206
	-70.48796	-32.17104
	-70.4859	-32.17002
	-70.48367	-32.16959
	-70.4811	-32.16988
	-70.47852	-32.17133
	-70.47561	-32.17148
	-70.47372	-32.17278
	-70.47269	-32.17395
	-70.46994	-32.17293
	-70.46719	-32.17177
	-70.4641	-32.17119
	-70.4605	-32.17119
	-70.45638	-32.17162
	-70.45432	-32.17613
	-70.45277	-32.17903
	-70.44865	-32.18194
	-70.44659	-32.18426
	-70.44488	-32.18644
	-70.44642	-32.19094
	-70.44831	-32.194
	-70.45071	-32.19632
	-70.45174	-32.19821
	-70.45157	-32.20111
	-70.45226	-32.20445
	-70.45346	-32.20838
	-70.45555	-32.21115
	-70.45621	-32.21419
	-70.45501	-32.21753
	-70.45209	-32.21912
	-70.44917	-32.21927
	-70.44711	-32.21985
	-70.44436	-32.22087
	-70.44213	-32.22217
	-70.43853	-32.22421
	-70.43475	-32.22551
	-70.43252	-32.22653
	-70.4332	-32.22914
	-70.43355	-32.23103
	-70.43355	-32.23553
	-70.43303	-32.23713
	-70.43286	-32.23945
	-70.43406	-32.2412
	-70.43544	-32.24294
	-70.43509	-32.24512
	-70.43544	-32.24802
	-70.43595	-32.25136
	-70.43629	-32.25412
	-70.43801	-32.25629
	-70.43629	-32.25818
	-70.43629	-32.26138
	-70.43698	-32.26326
	-70.43698	-32.26631
	-70.43801	-32.26849
	-70.43698	-32.27037
	-70.43629	-32.27125
	-70.4332	-32.27125
	-70.43029	-32.27154
	-70.42823	-32.27212
	-70.42479	-32.27502
	-70.42239	-32.27647
	-70.42136	-32.27763
	-70.42016	-32.27981
	-70.41707	-32.28082
	-70.41467	-32.2817
	-70.4114	-32.27981
	-70.40883	-32.27879
	-70.40625	-32.27763
	-70.40282	-32.27516
	-70.40128	-32.27371
	-70.39819	-32.27197
	-70.39527	-32.27212
	-70.39235	-32.27081
	-70.39029	-32.26979
	-70.38806	-32.26936
	-70.38428	-32.26675
	-70.38239	-32.26646
	-70.37918	-32.26703
	-70.37463	-32.2679
	-70.37202	-32.267
	-70.3711	-32.26411
	-70.36935	-32.26167
	-70.36742	-32.25916
	-70.36485	-32.25745
	-70.36515	-32.25524
	-70.36437	-32.25426
	-70.36111	-32.25412
	-70.35785	-32.25426
	-70.3551	-32.25426
	-70.35201	-32.25484
	-70.35028	-32.25651
	-70.34912	-32.25897
	-70.34616	-32.26173
	-70.34418	-32.26362
	-70.34405	-32.26641
	-70.34388	-32.26899
	-70.34255	-32.27157
	-70.34023	-32.27171
	-70.33762	-32.27258
	-70.33347	-32.27473
	-70.33072	-32.27604
	-70.32933	-32.27661
	-70.32693	-32.27679
	-70.32504	-32.27621
	-70.32397	-32.27498
	-70.32212	-32.27414
	-70.31925	-32.27334
END
END
