China_Fujian
1
	118.4275	28.29165
	118.4267	28.2865
	118.4249	28.28255
	118.4255	28.28206
	118.4282	28.27966
	118.43	28.27284
	118.4301	28.27238
	118.4312	28.27287
	118.4323	28.27323
	118.4344	28.27301
	118.435	28.27267
	118.4367	28.27164
	118.4372	28.26956
	118.436	28.26839
	118.4348	28.26611
	118.4355	28.26542
	118.4358	28.26504
	118.4418	28.2646
	118.4436	28.26499
	118.4437	28.26496
	118.4447	28.26425
	118.4448	28.2635
	118.4449	28.26292
	118.4441	28.26189
	118.4436	28.26114
	118.4405	28.26039
	118.4394	28.25805
	118.439	28.25598
	118.4391	28.25552
	118.4397	28.2539
	118.442	28.254
	118.4424	28.25392
	118.4428	28.25398
	118.4428	28.25402
	118.4431	28.25416
	118.4438	28.25422
	118.4442	28.25401
	118.4443	28.25352
	118.4445	28.2533
	118.445	28.25257
	118.4453	28.25233
	118.4453	28.2523
	118.4457	28.25157
	118.446	28.25142
	118.4466	28.25123
	118.4479	28.25108
	118.4483	28.25079
	118.4487	28.25044
	118.4494	28.25005
	118.4524	28.24875
	118.459	28.24582
	118.4656	28.24914
	118.4718	28.24765
	118.4743	28.24868
	118.4766	28.24965
	118.4822	28.24458
	118.484	28.24329
	118.4862	28.24162
	118.4884	28.24133
	118.489	28.24302
	118.49	28.24542
	118.4937	28.24905
	118.498	28.25071
	118.498	28.25328
	118.4997	28.25584
	118.496	28.25645
	118.4956	28.2604
	118.493	28.26032
	118.4927	28.26206
	118.4925	28.26278
	118.4913	28.26344
	118.4896	28.26432
	118.4904	28.26766
	118.4915	28.27188
	118.4927	28.27913
	118.4952	28.27925
	118.4965	28.28017
	118.4994	28.28276
	118.5032	28.28201
	118.5051	28.27922
	118.5071	28.27641
	118.5106	28.27309
	118.5184	28.27244
	118.5207	28.27256
	118.5339	28.2748
	118.542	28.27717
	118.5422	28.28034
	118.5421	28.28166
	118.5417	28.2886
	118.5463	28.28721
	118.551	28.28361
	118.5569	28.28563
	118.5631	28.28773
	118.5718	28.28775
	118.573	28.28809
	118.5745	28.28876
	118.5749	28.28896
	118.575	28.28898
	118.5755	28.28923
	118.6034	28.2573
	118.6696	28.28028
	118.6937	28.31008
	118.7194	28.30826
	118.7316	28.27456
	118.7611	28.25558
	118.7679	28.25119
	118.8027	28.24109
	118.8011	28.22609
	118.8008	28.22413
	118.7977	28.22049
	118.7611	28.17785
	118.7917	28.17417
	118.7945	28.16502
	118.8	28.1469
	118.7925	28.12329
	118.7487	28.10039
	118.7188	28.0694
	118.7124	28.0628
	118.7256	28.03805
	118.7229	27.97871
	118.7439	27.95513
	118.7917	27.93729
	118.803	27.92453
	118.8148	27.90572
	118.8196	27.89581
	118.8262	27.88201
	118.8262	27.85835
	118.8284	27.84492
	118.8629	27.74759
	118.8778	27.73173
	118.8914	27.71739
	118.8707	27.70997
	118.8674	27.69843
	118.8948	27.65341
	118.8965	27.65052
	118.9014	27.60439
	118.9043	27.57638
	118.8943	27.54336
	118.8547	27.52568
	118.8767	27.51925
	118.8983	27.47103
	118.9002	27.4697
	118.9114	27.46161
	118.9514	27.46249
	118.9532	27.48169
	118.9812	27.47929
	119.0064	27.50001
	119.0529	27.47409
	119.0858	27.47256
	119.1191	27.48708
	119.1266	27.4761
	119.1194	27.44272
	119.1265	27.43751
	119.2203	27.42369
	119.2612	27.4327
	119.2801	27.46084
	119.3354	27.48696
	119.3342	27.50656
	119.3718	27.53802
	119.4116	27.54268
	119.4335	27.51182
	119.4616	27.52954
	119.4779	27.58069
	119.4915	27.62344
	119.4892	27.66033
	119.5076	27.65518
	119.5333	27.64795
	119.5342	27.65238
	119.5378	27.6709
	119.5511	27.6798
	119.6332	27.67396
	119.6396	27.64667
	119.642	27.63628
	119.6224	27.62284
	119.6251	27.59659
	119.6626	27.57117
	119.6588	27.53683
	119.6874	27.5337
	119.7	27.51083
	119.7019	27.4671
	119.7022	27.45979
	119.7009	27.4583
	119.6808	27.43424
	119.7046	27.40484
	119.7287	27.39356
	119.7347	27.38257
	119.7367	27.3788
	119.7411	27.38099
	119.7424	27.38167
	119.7458	27.38024
	119.7463	27.37604
	119.7403	27.3721
	119.7352	27.36649
	119.7433	27.36283
	119.7434	27.3628
	119.7461	27.35329
	119.751	27.35297
	119.7543	27.3501
	119.7619	27.35073
	119.7645	27.34903
	119.7644	27.34611
	119.764	27.34534
	119.763	27.34329
	119.7655	27.3369
	119.7667	27.3362
	119.7702	27.3342
	119.7726	27.33537
	119.7773	27.33394
	119.7812	27.32804
	119.7733	27.32347
	119.773	27.32416
	119.772	27.32703
	119.7671	27.33069
	119.765	27.32771
	119.7671	27.31538
	119.7639	27.31275
	119.7638	27.31262
	119.7659	27.30877
	119.7681	27.31
	119.7762	27.30675
	119.7855	27.30611
	119.7883	27.31394
	119.8054	27.30789
	119.8079	27.3028
	119.8085	27.30138
	119.8125	27.30009
	119.8161	27.29896
	119.8175	27.30561
	119.8181	27.30564
	119.8217	27.3059
	119.8228	27.30358
	119.8278	27.30442
	119.8298	27.30474
	119.8366	27.30243
	119.8403	27.31
	119.8351	27.31078
	119.8304	27.31593
	119.8312	27.317
	119.8372	27.32527
	119.8417	27.3276
	119.8452	27.32481
	119.8516	27.31807
	119.8546	27.32093
	119.8601	27.31914
	119.8669	27.31885
	119.8676	27.31883
	119.8675	27.31784
	119.8672	27.31609
	119.8617	27.31347
	119.8595	27.31235
	119.8593	27.31226
	119.8603	27.31047
	119.8609	27.30952
	119.8693	27.31068
	119.8692	27.30569
	119.8703	27.30467
	119.8715	27.3036
	119.8741	27.30494
	119.8745	27.30926
	119.875	27.31423
	119.8809	27.31088
	119.8827	27.31705
	119.8873	27.31363
	119.8944	27.31497
	119.8953	27.31935
	119.9005	27.32226
	119.9037	27.32193
	119.9096	27.32129
	119.9107	27.32025
	119.9145	27.3164
	119.915	27.31676
	119.9167	27.3179
	119.9169	27.31965
	119.926	27.31995
	119.9363	27.31878
	119.9367	27.34247
	119.9604	27.36653
	119.9655	27.37166
	119.994	27.38072
	119.9984	27.38215
	120.0178	27.36034
	120.0319	27.3444
	120.0578	27.35469
	120.1039	27.39623
	120.1223	27.40103
	120.1345	27.42222
	120.2436	27.43469
	120.2558	27.43133
	120.2566	27.43109
	120.2739	27.39567
	120.3176	27.40999
	120.3241	27.39843
	120.3329	27.39747
	120.3465	27.39596
	120.3524	27.34696
	120.4225	27.26244
	120.4001	27.24472
	120.4107	27.22659
	120.4094	27.21724
	120.4075	27.20287
	120.4147	27.19448
	120.4184	27.1902
	120.4183	27.18971
	120.4184	27.18936
	120.4178	27.18885
	120.4174	27.18842
	120.4169	27.18662
	120.417	27.18654
	120.417	27.18624
	120.4183	27.18481
	120.4188	27.18459
	120.4199	27.18448
	120.42	27.18444
	120.4208	27.18321
	120.4212	27.18292
	120.4226	27.18269
	120.4227	27.18261
	120.4227	27.18248
	120.4235	27.18145
	120.4238	27.18126
	120.425	27.18134
	120.425	27.1813
	120.4258	27.18119
	120.4261	27.18125
	120.4305	27.1762
	120.4304	27.1761
	120.4301	27.17509
	120.43	27.1749
	120.4307	27.17216
	120.4333	27.17287
	120.4346	27.1714
	120.4392	27.16808
	120.4641	27.14997
	120.4824	27.12961
	120.5057	27.10359
	120.604	27.05375
	120.75	27.03307
	120.8971	26.93478
	121.0337	26.8591
	120.3906	26.52224
	119.794	26.23842
	119.872	25.82942
	120.3161	25.246
	119.3783	25.06511
	118.622	24.40991
	118.4412	24.56804
	118.2124	24.47663
	118.1253	24.38153
	118.215	24.26578
	118.22	24.06975
	118.4885	23.27184
	117.1904	23.56121
	117.1902	23.61761
	117.1899	23.61885
	117.1875	23.62198
	117.1864	23.62556
	117.1866	23.63077
	117.1864	23.63138
	117.1863	23.6319
	117.1828	23.63226
	117.1823	23.63481
	117.1825	23.63555
	117.1818	23.63583
	117.1789	23.63498
	117.1763	23.63855
	117.1754	23.63871
	117.1736	23.6376
	117.1722	23.63862
	117.1708	23.63994
	117.1695	23.64209
	117.1696	23.64293
	117.1648	23.64129
	117.1642	23.64141
	117.163	23.6409
	117.1621	23.64194
	117.1594	23.64117
	117.1588	23.64046
	117.1552	23.64179
	117.1523	23.64336
	117.1492	23.6471
	117.1471	23.65015
	117.145	23.65243
	117.1429	23.65565
	117.1425	23.65621
	117.1415	23.65642
	117.1391	23.65457
	117.1376	23.65417
	117.1369	23.65309
	117.1361	23.65321
	117.1356	23.65517
	117.1352	23.65561
	117.134	23.65567
	117.1327	23.65541
	117.1318	23.65401
	117.1309	23.65386
	117.1254	23.65388
	117.1238	23.65073
	117.122	23.64887
	117.1207	23.64886
	117.1187	23.64721
	117.118	23.64699
	117.1184	23.64783
	117.1177	23.65217
	117.1156	23.65626
	117.113	23.65737
	117.1117	23.65741
	117.1091	23.65872
	117.1072	23.65842
	117.1028	23.66348
	117.1037	23.66543
	117.1039	23.66674
	117.1014	23.66817
	117.099	23.66714
	117.0961	23.66659
	117.0958	23.66782
	117.0922	23.66762
	117.0908	23.66987
	117.0903	23.67146
	117.088	23.67202
	117.0882	23.66957
	117.0881	23.66835
	117.0859	23.66654
	117.0854	23.66815
	117.0847	23.66869
	117.0836	23.67147
	117.0825	23.67237
	117.082	23.67321
	117.0807	23.67645
	117.0788	23.67815
	117.0748	23.68289
	117.0721	23.68822
	117.0715	23.69032
	117.0692	23.69336
	117.0675	23.69373
	117.066	23.69372
	117.0646	23.69295
	117.0636	23.69198
	117.0625	23.6914
	117.0617	23.69121
	117.0594	23.69196
	117.0582	23.69291
	117.0555	23.69365
	117.053	23.69478
	117.0507	23.69667
	117.049	23.69915
	117.0483	23.70085
	117.0483	23.70277
	117.0479	23.70543
	117.0481	23.70811
	117.0491	23.71098
	117.0468	23.71364
	117.0462	23.71573
	117.0474	23.7188
	117.0474	23.7207
	117.0465	23.72165
	117.0451	23.72412
	117.0444	23.72661
	117.0446	23.72755
	117.0461	23.72967
	117.0458	23.73119
	117.0452	23.73214
	117.045	23.73424
	117.0454	23.73539
	117.0458	23.73597
	117.0472	23.73686
	117.0483	23.73806
	117.0483	23.73976
	117.048	23.74016
	117.0484	23.74098
	117.0482	23.7416
	117.0465	23.74254
	117.0444	23.7464
	117.0445	23.74808
	117.0431	23.7504
	117.0429	23.74969
	117.0427	23.74975
	117.0428	23.75147
	117.0427	23.75228
	117.042	23.75284
	117.0415	23.75299
	117.0412	23.7537
	117.0406	23.75401
	117.0396	23.75394
	117.0394	23.75415
	117.0399	23.75485
	117.0399	23.75688
	117.0406	23.7582
	117.0411	23.76102
	117.0409	23.76321
	117.039	23.76456
	117.0377	23.76626
	117.0377	23.76722
	117.0329	23.76691
	117.0373	23.76931
	117.0371	23.77141
	117.0364	23.77275
	117.0354	23.77618
	117.0349	23.77846
	117.0345	23.7796
	117.0345	23.78094
	117.0334	23.78284
	117.0316	23.78531
	117.0309	23.78664
	117.0301	23.79007
	117.0292	23.7916
	117.0269	23.79387
	117.0244	23.79557
	117.0237	23.79774
	117.0238	23.79918
	117.0232	23.80123
	117.0221	23.80301
	117.0211	23.80376
	117.0198	23.80637
	117.019	23.80761
	117.0193	23.80911
	117.0181	23.81066
	117.0164	23.81204
	117.0169	23.81268
	117.0198	23.81338
	117.02	23.81458
	117.022	23.81639
	117.0272	23.81853
	117.0265	23.81903
	117.0245	23.81868
	117.0235	23.82012
	117.0246	23.82021
	117.028	23.82347
	117.0272	23.82553
	117.0273	23.82646
	117.0287	23.82691
	117.0282	23.82853
	117.0293	23.82981
	117.0263	23.83232
	117.0212	23.82988
	117.0196	23.83234
	117.0198	23.83434
	117.0185	23.83526
	117.0188	23.8403
	117.0176	23.84247
	117.0164	23.84286
	117.0139	23.84552
	117.0132	23.84685
	117.013	23.84819
	117.013	23.84971
	117.0107	23.8494
	117.0082	23.85161
	117.0083	23.85238
	117.0079	23.85462
	117.0079	23.85698
	117.0074	23.85841
	117.0065	23.85831
	117.0028	23.85854
	117.0022	23.85886
	117.0025	23.8621
	117.002	23.86327
	117.002	23.86389
	117.0026	23.86459
	117.0031	23.86568
	117.0037	23.86688
	117.0036	23.86723
	117.001	23.86729
	116.9995	23.86658
	116.9988	23.86453
	116.9988	23.86242
	116.9991	23.86219
	116.9997	23.86246
	116.9998	23.86115
	116.9991	23.86
	116.9984	23.85922
	116.9978	23.85765
	116.9964	23.859
	116.9964	23.86006
	116.9943	23.86215
	116.9889	23.8642
	116.9873	23.86451
	116.9863	23.86514
	116.9853	23.86504
	116.9846	23.8653
	116.9838	23.86502
	116.9831	23.86532
	116.9818	23.86466
	116.9812	23.86524
	116.9803	23.86577
	116.9788	23.8629
	116.9782	23.86247
	116.9765	23.85892
	116.9753	23.85876
	116.9743	23.85908
	116.97	23.85827
	116.97	23.85883
	116.967	23.85891
	116.9651	23.85975
	116.9645	23.86098
	116.9635	23.86113
	116.9626	23.86077
	116.9605	23.86117
	116.9586	23.86281
	116.9586	23.86339
	116.9579	23.8637
	116.9576	23.86419
	116.9584	23.86525
	116.9594	23.86607
	116.9596	23.86684
	116.9582	23.86821
	116.9541	23.87088
	116.9562	23.87357
	116.9573	23.87439
	116.959	23.87403
	116.9602	23.87354
	116.9631	23.87354
	116.966	23.87314
	116.9724	23.87265
	116.9709	23.87499
	116.9711	23.87792
	116.9729	23.88349
	116.9754	23.88455
	116.9758	23.88556
	116.9746	23.88716
	116.97	23.8878
	116.9689	23.8892
	116.9686	23.89092
	116.9694	23.89233
	116.9701	23.89412
	116.9684	23.89754
	116.9676	23.89816
	116.9664	23.89879
	116.9625	23.8997
	116.9581	23.90151
	116.9543	23.90343
	116.9535	23.90505
	116.9534	23.90606
	116.9544	23.90757
	116.9554	23.90818
	116.956	23.9107
	116.9557	23.91434
	116.9547	23.91727
	116.9531	23.91878
	116.9517	23.91959
	116.9504	23.92161
	116.9502	23.92323
	116.951	23.92506
	116.9513	23.92499
	116.9534	23.92542
	116.9537	23.92605
	116.9542	23.92658
	116.9552	23.92608
	116.9557	23.92626
	116.9565	23.9252
	116.957	23.9254
	116.9576	23.92518
	116.9587	23.92542
	116.9593	23.92512
	116.9595	23.92548
	116.9599	23.92541
	116.96	23.92572
	116.9605	23.92544
	116.961	23.92556
	116.9627	23.92642
	116.963	23.92613
	116.9633	23.92609
	116.964	23.9268
	116.9642	23.92738
	116.9687	23.9298
	116.9719	23.93426
	116.9721	23.93579
	116.9722	23.93903
	116.9728	23.94036
	116.9755	23.94377
	116.976	23.94662
	116.976	23.95082
	116.9752	23.95311
	116.9748	23.95541
	116.9752	23.95635
	116.9761	23.9573
	116.9773	23.95958
	116.978	23.96205
	116.9744	23.96735
	116.9724	23.96948
	116.9715	23.97179
	116.9687	23.97338
	116.9675	23.97541
	116.9677	23.97601
	116.9704	23.97812
	116.9707	23.98101
	116.9694	23.98154
	116.9689	23.98259
	116.9696	23.98374
	116.969	23.98692
	116.9699	23.9892
	116.9701	23.9913
	116.9708	23.99338
	116.972	23.99538
	116.9741	23.99698
	116.9755	23.99715
	116.9769	23.99789
	116.9772	24.00218
	116.9747	24.00543
	116.9724	24.00716
	116.9672	24.00927
	116.9653	24.01023
	116.9641	24.00938
	116.9623	24.00845
	116.9611	24.01309
	116.9592	24.01466
	116.9573	24.01481
	116.9536	24.01003
	116.9534	24.0067
	116.9501	24.00592
	116.9493	24.00854
	116.95	24.01019
	116.9509	24.01169
	116.9504	24.01572
	116.9507	24.0178
	116.9536	24.01877
	116.9506	24.02307
	116.9483	24.02498
	116.9452	24.02729
	116.9442	24.02919
	116.9417	24.03149
	116.9409	24.03207
	116.94	24.03207
	116.9386	24.0317
	116.9371	24.03246
	116.9359	24.03418
	116.9357	24.03532
	116.9353	24.0359
	116.9355	24.03742
	116.9359	24.03799
	116.9376	24.03858
	116.9393	24.0382
	116.9437	24.03887
	116.9473	24.04041
	116.9474	24.04221
	116.9462	24.04482
	116.9469	24.04775
	116.9478	24.04944
	116.9478	24.0536
	116.9476	24.0547
	116.9479	24.05757
	116.9471	24.05814
	116.9441	24.05853
	116.9404	24.0576
	116.9375	24.05606
	116.9362	24.05591
	116.9338	24.05666
	116.932	24.0579
	116.9308	24.05812
	116.9307	24.05881
	116.9314	24.06087
	116.9312	24.0624
	116.9308	24.06373
	116.9283	24.06546
	116.9258	24.06757
	116.9252	24.06834
	116.9248	24.07024
	116.9255	24.07385
	116.9247	24.08015
	116.9243	24.08206
	116.9239	24.08587
	116.9239	24.08796
	116.9249	24.09425
	116.9233	24.09826
	116.9227	24.09921
	116.9221	24.1015
	116.9221	24.10359
	116.9225	24.10549
	116.9232	24.10721
	116.9238	24.10797
	116.9263	24.11234
	116.9278	24.11729
	116.9292	24.12303
	116.9286	24.12426
	116.9286	24.1252
	116.9303	24.12768
	116.9314	24.12823
	116.9321	24.1282
	116.9312	24.13114
	116.9345	24.13263
	116.9358	24.13383
	116.936	24.1344
	116.936	24.13574
	116.9369	24.13669
	116.9394	24.13744
	116.9406	24.13743
	116.9425	24.1378
	116.9438	24.13894
	116.9444	24.1397
	116.9453	24.14122
	116.9459	24.14293
	116.9478	24.14635
	116.9497	24.14749
	116.9507	24.14787
	116.9518	24.14862
	116.957	24.15451
	116.9589	24.15564
	116.9602	24.1562
	116.9656	24.15618
	116.9683	24.15636
	116.9702	24.15769
	116.9714	24.16015
	116.9719	24.16149
	116.9742	24.1649
	116.9752	24.16585
	116.9765	24.16661
	116.9792	24.16736
	116.9807	24.16754
	116.9821	24.16811
	116.984	24.16924
	116.9857	24.17114
	116.987	24.17456
	116.988	24.17627
	116.989	24.17905
	116.9905	24.182
	116.9922	24.18477
	116.9934	24.18557
	116.993	24.1881
	116.9873	24.18836
	116.9862	24.18931
	116.986	24.19323
	116.9865	24.19399
	116.9844	24.19471
	116.9839	24.19568
	116.9831	24.1959
	116.9824	24.1958
	116.9812	24.19731
	116.9777	24.19921
	116.9767	24.20034
	116.9755	24.2005
	116.9744	24.20298
	116.9746	24.20387
	116.9733	24.2041
	116.969	24.20151
	116.9674	24.20103
	116.9665	24.20231
	116.9652	24.20358
	116.9644	24.20512
	116.9633	24.20603
	116.9619	24.20652
	116.9617	24.20778
	116.9619	24.20933
	116.9617	24.21064
	116.9607	24.21177
	116.958	24.21351
	116.9544	24.21457
	116.9531	24.21519
	116.9522	24.21704
	116.9516	24.21988
	116.9497	24.22028
	116.944	24.21972
	116.9424	24.21973
	116.9414	24.21996
	116.9388	24.21864
	116.9365	24.22019
	116.933	24.22089
	116.9295	24.2221
	116.9286	24.22315
	116.9286	24.22611
	116.9289	24.22934
	116.9306	24.23397
	116.9316	24.23378
	116.9331	24.23377
	116.9335	24.23434
	116.9346	24.24253
	116.9338	24.24597
	116.9323	24.24787
	116.9317	24.24902
	116.9309	24.25093
	116.9307	24.25188
	116.9307	24.25283
	116.9311	24.25474
	116.9324	24.25797
	116.932	24.26026
	116.9318	24.2635
	116.932	24.26577
	116.9318	24.269
	116.9327	24.2707
	116.9344	24.27145
	116.9347	24.27189
	116.9347	24.27244
	116.9343	24.27497
	116.9349	24.27681
	116.9349	24.2775
	116.9345	24.27805
	116.9338	24.27829
	116.9326	24.27804
	116.9317	24.27814
	116.9313	24.27854
	116.9311	24.27929
	116.9313	24.28089
	116.933	24.28255
	116.9336	24.28369
	116.9336	24.28426
	116.9332	24.28579
	116.9328	24.28655
	116.9313	24.2877
	116.9299	24.28847
	116.928	24.28886
	116.925	24.28918
	116.9212	24.28832
	116.9163	24.28622
	116.9148	24.28618
	116.9136	24.28636
	116.912	24.28753
	116.9103	24.28929
	116.9097	24.29071
	116.9097	24.2983
	116.9088	24.30104
	116.9086	24.30208
	116.9086	24.30343
	116.9089	24.30514
	116.9082	24.30781
	116.908	24.30991
	116.9081	24.31219
	116.9083	24.31353
	116.9085	24.31448
	116.9095	24.31657
	116.9104	24.31752
	116.915	24.32398
	116.9144	24.32455
	116.9127	24.32665
	116.9107	24.32799
	116.9088	24.32953
	116.9061	24.33068
	116.9048	24.33222
	116.9046	24.33316
	116.9046	24.33546
	116.9044	24.3366
	116.9045	24.34002
	116.9041	24.34345
	116.9038	24.34476
	116.8994	24.34845
	116.8937	24.35183
	116.8916	24.3537
	116.8912	24.35708
	116.8924	24.36309
	116.8949	24.36685
	116.8982	24.37099
	116.8994	24.37287
	116.8993	24.37376
	116.8967	24.37778
	116.8951	24.38103
	116.8942	24.38218
	116.893	24.38447
	116.8909	24.38583
	116.8864	24.38986
	116.8824	24.39308
	116.8817	24.39469
	116.8807	24.3992
	116.8782	24.3994
	116.8751	24.39846
	116.8687	24.39415
	116.8683	24.39603
	116.8674	24.39791
	116.8662	24.39939
	116.8651	24.40127
	116.8651	24.40441
	116.8654	24.40651
	116.8652	24.40879
	116.8649	24.41023
	116.8607	24.41129
	116.859	24.41279
	116.857	24.41767
	116.8537	24.42368
	116.8509	24.42679
	116.8437	24.42984
	116.8427	24.43099
	116.8408	24.43348
	116.8402	24.435
	116.8393	24.43634
	116.8375	24.44092
	116.8358	24.44283
	116.8344	24.4455
	116.8344	24.44646
	116.8348	24.44779
	116.8356	24.44855
	116.8379	24.44949
	116.839	24.45025
	116.839	24.45102
	116.838	24.45273
	116.8373	24.45445
	116.8369	24.45636
	116.8374	24.45712
	116.8376	24.45731
	116.8397	24.4573
	116.8438	24.45633
	116.8472	24.45575
	116.8489	24.45612
	116.8499	24.45688
	116.8509	24.45821
	116.8541	24.46066
	116.8551	24.46181
	116.856	24.46333
	116.8562	24.46428
	116.8562	24.46523
	116.8556	24.46619
	116.8493	24.47307
	116.8479	24.47574
	116.8473	24.47804
	116.8448	24.48205
	116.8433	24.48377
	116.8413	24.48524
	116.8372	24.48934
	116.8354	24.49209
	116.8331	24.49471
	116.8305	24.49712
	116.829	24.49907
	116.8286	24.49927
	116.8277	24.49908
	116.8225	24.49529
	116.8212	24.49458
	116.8197	24.49322
	116.8154	24.49002
	116.8111	24.48738
	116.8097	24.48671
	116.8089	24.48658
	116.8084	24.48668
	116.808	24.48695
	116.8079	24.48742
	116.8079	24.48827
	116.8086	24.49013
	116.8097	24.49145
	116.8118	24.49284
	116.8122	24.49334
	116.8122	24.49425
	116.812	24.49458
	116.8108	24.49515
	116.8097	24.49591
	116.8003	24.49938
	116.7962	24.50168
	116.7949	24.50264
	116.7939	24.50378
	116.7922	24.50494
	116.7882	24.50934
	116.7866	24.51086
	116.7835	24.51449
	116.7787	24.52119
	116.7772	24.52386
	116.7754	24.52787
	116.7749	24.52921
	116.7747	24.53053
	116.7752	24.53321
	116.7758	24.53434
	116.7764	24.53663
	116.7758	24.53721
	116.7746	24.53759
	116.7677	24.53762
	116.7618	24.54221
	116.7602	24.54393
	116.7589	24.5447
	116.7558	24.54776
	116.7537	24.54949
	116.7516	24.55311
	116.7512	24.55483
	116.7514	24.55788
	116.7519	24.55902
	116.7527	24.56035
	116.7563	24.56339
	116.7598	24.56528
	116.7621	24.56603
	116.7629	24.56645
	116.7631	24.56705
	116.7611	24.57268
	116.7582	24.57869
	116.7557	24.58206
	116.7565	24.58582
	116.7647	24.59372
	116.775	24.60426
	116.777	24.60591
	116.7774	24.60694
	116.7778	24.60866
	116.7787	24.61018
	116.7793	24.61113
	116.781	24.61284
	116.7818	24.61398
	116.7825	24.61664
	116.7829	24.61759
	116.7854	24.6193
	116.7886	24.62081
	116.7907	24.62214
	116.7932	24.6246
	116.7942	24.62689
	116.794	24.6286
	116.7934	24.63032
	116.7924	24.63527
	116.7928	24.63795
	116.7939	24.64003
	116.7956	24.64174
	116.7966	24.64231
	116.7981	24.6423
	116.7998	24.64268
	116.8025	24.64553
	116.8036	24.6461
	116.8061	24.64704
	116.8073	24.6478
	116.8082	24.64931
	116.809	24.65332
	116.8097	24.65521
	116.8105	24.65674
	116.8107	24.6575
	116.8099	24.65864
	116.8093	24.65922
	116.807	24.66266
	116.8064	24.66476
	116.8057	24.66838
	116.8049	24.66971
	116.8028	24.6722
	116.7995	24.67755
	116.7966	24.68119
	116.7945	24.68176
	116.7922	24.68178
	116.7882	24.68084
	116.7872	24.68084
	116.7847	24.68161
	116.7828	24.68201
	116.7807	24.68277
	116.7771	24.68317
	116.775	24.68318
	116.7742	24.68299
	116.7729	24.68242
	116.771	24.68072
	116.7704	24.67958
	116.7645	24.67312
	116.7578	24.66781
	116.7492	24.65736
	116.7483	24.65717
	116.7471	24.65756
	116.7443	24.65967
	116.742	24.66177
	116.7402	24.66387
	116.7385	24.66635
	116.7373	24.66941
	116.7354	24.67018
	116.7333	24.67057
	116.7283	24.67059
	116.7237	24.67003
	116.7193	24.66795
	116.7172	24.6672
	116.7117	24.66931
	116.7103	24.66913
	116.7077	24.66818
	116.7054	24.668
	116.7027	24.66801
	116.7006	24.66649
	116.7002	24.66515
	116.7004	24.66363
	116.6997	24.66192
	116.6991	24.66097
	116.6976	24.65945
	116.6959	24.65862
	116.6935	24.65916
	116.6901	24.66024
	116.6876	24.66166
	116.6856	24.66242
	116.6804	24.66066
	116.6768	24.66164
	116.6716	24.66206
	116.6667	24.66161
	116.6626	24.66161
	116.6587	24.66072
	116.6572	24.66015
	116.6522	24.65884
	116.6505	24.65827
	116.6493	24.6575
	116.6486	24.65674
	116.6481	24.65526
	116.6465	24.6544
	116.6458	24.6543
	116.6446	24.65462
	116.6429	24.65467
	116.6411	24.65367
	116.6403	24.65367
	116.6394	24.65399
	116.638	24.65391
	116.6371	24.65334
	116.6349	24.65112
	116.6343	24.65073
	116.6336	24.65053
	116.6307	24.65074
	116.6302	24.65039
	116.6294	24.64928
	116.6285	24.64719
	116.6283	24.64431
	116.6281	24.64357
	116.6276	24.64312
	116.6271	24.64292
	116.6264	24.64295
	116.6249	24.64405
	116.6197	24.64444
	116.6193	24.64483
	116.6186	24.64502
	116.617	24.64694
	116.6159	24.64865
	116.6134	24.65056
	116.6126	24.65095
	116.6113	24.65076
	116.6092	24.65
	116.6082	24.65001
	116.6067	24.65039
	116.5982	24.65651
	116.5967	24.65728
	116.5942	24.65766
	116.5929	24.65748
	116.5921	24.6571
	116.5908	24.65596
	116.5889	24.6533
	116.5883	24.6512
	116.5885	24.64949
	116.5864	24.64472
	116.5834	24.64073
	116.5811	24.6394
	116.573	24.63676
	116.5713	24.63581
	116.5686	24.63314
	116.5677	24.63201
	116.5673	24.63087
	116.5671	24.62991
	116.5671	24.628
	116.5673	24.62724
	116.5669	24.62572
	116.566	24.62477
	116.5639	24.62401
	116.5579	24.62231
	116.5572	24.62174
	116.5568	24.62022
	116.5564	24.61984
	116.5551	24.61946
	116.5514	24.61889
	116.5497	24.61775
	116.5488	24.61604
	116.5463	24.61585
	116.5415	24.61511
	116.5394	24.61453
	116.5327	24.61189
	116.5256	24.6079
	116.5239	24.60752
	116.5214	24.60771
	116.5205	24.60886
	116.5164	24.61249
	116.5151	24.61382
	116.5122	24.61498
	116.5107	24.61536
	116.5082	24.6167
	116.5059	24.61843
	116.5022	24.62414
	116.5024	24.62472
	116.5032	24.62586
	116.5051	24.62758
	116.5055	24.62815
	116.5051	24.63005
	116.5047	24.63101
	116.5047	24.63215
	116.5049	24.6331
	116.5057	24.63501
	116.5072	24.6371
	116.5081	24.63862
	116.5076	24.64091
	116.5077	24.64339
	116.5079	24.64491
	116.5083	24.64644
	116.5089	24.64796
	116.5121	24.65043
	116.5129	24.65234
	116.5131	24.65329
	116.5131	24.65443
	116.5129	24.6552
	116.5121	24.65672
	116.5115	24.65749
	116.5092	24.65807
	116.5081	24.65883
	116.5077	24.66017
	116.5077	24.66092
	116.5073	24.6615
	116.5069	24.66303
	116.5064	24.66379
	116.5035	24.66608
	116.5014	24.66837
	116.5004	24.6699
	116.4996	24.67161
	116.4983	24.67563
	116.4977	24.68077
	116.4977	24.68344
	116.4971	24.68572
	116.4971	24.68821
	116.4973	24.68934
	116.4986	24.69297
	116.4986	24.69697
	116.4984	24.69849
	116.4969	24.70117
	116.4902	24.70842
	116.4873	24.71205
	116.4854	24.71587
	116.485	24.71797
	116.4838	24.71969
	116.4829	24.72045
	116.4823	24.72141
	116.481	24.72236
	116.4798	24.72312
	116.4785	24.72312
	116.4777	24.72275
	116.4741	24.72009
	116.4729	24.71971
	116.4704	24.72028
	116.4674	24.72162
	116.465	24.72207
	116.4551	24.72132
	116.4502	24.71852
	116.4419	24.7189
	116.4413	24.71717
	116.4408	24.71875
	116.4384	24.72087
	116.4356	24.72532
	116.4339	24.73292
	116.4326	24.73628
	116.431	24.73714
	116.4291	24.73847
	116.4251	24.73791
	116.4243	24.73828
	116.4237	24.73905
	116.4235	24.74268
	116.4224	24.74363
	116.4214	24.7442
	116.4161	24.7444
	116.4134	24.74516
	116.4124	24.74574
	116.4109	24.74765
	116.4101	24.74937
	116.4101	24.75031
	116.4105	24.75203
	116.4114	24.75363
	116.4138	24.75413
	116.4158	24.75425
	116.4154	24.75485
	116.4105	24.75913
	116.4103	24.76026
	116.4111	24.76146
	116.4127	24.76309
	116.4135	24.76359
	116.415	24.76345
	116.4165	24.76356
	116.4166	24.76384
	116.4154	24.76674
	116.4144	24.76786
	116.4142	24.76845
	116.4143	24.76997
	116.4128	24.77159
	116.4094	24.7747
	116.4073	24.77729
	116.4059	24.77797
	116.4024	24.78045
	116.4003	24.78313
	116.3994	24.78465
	116.3986	24.78579
	116.3976	24.78828
	116.3969	24.79339
	116.3961	24.79516
	116.3948	24.79666
	116.3909	24.80405
	116.3892	24.80405
	116.3886	24.80476
	116.3808	24.80421
	116.3753	24.80423
	116.3735	24.80398
	116.3725	24.8042
	116.3721	24.80463
	116.3708	24.8068
	116.3701	24.80871
	116.3701	24.80986
	116.3703	24.81119
	116.3712	24.81386
	116.3714	24.815
	116.3722	24.81729
	116.3725	24.81863
	116.3718	24.82168
	116.372	24.82282
	116.3725	24.82377
	116.3731	24.82453
	116.3756	24.82682
	116.3781	24.82834
	116.3832	24.82948
	116.3863	24.83138
	116.3878	24.83137
	116.3886	24.83118
	116.3907	24.83176
	116.3953	24.83422
	116.3968	24.83479
	116.3985	24.83517
	116.4025	24.83707
	116.4052	24.83859
	116.4075	24.83935
	116.4098	24.84049
	116.4123	24.84239
	116.413	24.84334
	116.413	24.84372
	116.4124	24.84506
	116.4105	24.84678
	116.409	24.84907
	116.4075	24.85055
	116.407	24.85085
	116.406	24.85094
	116.4037	24.85058
	116.4032	24.85065
	116.4027	24.85116
	116.4022	24.85193
	116.402	24.85257
	116.4026	24.85535
	116.4025	24.85594
	116.4021	24.85628
	116.4016	24.85648
	116.4	24.85642
	116.3968	24.85538
	116.3954	24.85538
	116.3926	24.85653
	116.3891	24.85959
	116.388	24.8615
	116.3878	24.86225
	116.3878	24.86321
	116.3899	24.86874
	116.3899	24.86988
	116.3882	24.87185
	116.3866	24.87189
	116.3858	24.87427
	116.386	24.87503
	116.3864	24.8756
	116.3872	24.87617
	116.3881	24.87636
	116.3902	24.87636
	116.391	24.87674
	116.3914	24.87769
	116.3912	24.87845
	116.3912	24.87922
	116.391	24.8796
	116.39	24.88055
	116.3874	24.88056
	116.3864	24.88075
	116.3797	24.88076
	116.377	24.88057
	116.3744	24.8802
	116.3715	24.8781
	116.3709	24.87791
	116.3701	24.87792
	116.3673	24.87466
	116.3661	24.87473
	116.3646	24.87389
	116.3607	24.87408
	116.3591	24.8737
	116.357	24.87256
	116.3523	24.86651
	116.3513	24.86583
	116.3508	24.86464
	116.3492	24.86276
	116.345	24.85944
	116.3451	24.8587
	116.3459	24.85755
	116.3463	24.8566
	116.3465	24.8524
	116.3463	24.85125
	116.345	24.84859
	116.3442	24.84592
	116.3442	24.84249
	116.3444	24.84097
	116.3444	24.83944
	116.3438	24.83734
	116.3421	24.83354
	116.341	24.83181
	116.3393	24.8303
	116.3383	24.82973
	116.3366	24.82935
	116.3354	24.82934
	116.3347	24.82954
	116.3328	24.82916
	116.3316	24.8284
	116.3307	24.82725
	116.3299	24.82497
	116.3293	24.82421
	116.3284	24.82401
	116.328	24.82459
	116.3276	24.82745
	116.3276	24.82939
	116.3234	24.82556
	116.3135	24.82097
	116.3119	24.81888
	116.3091	24.81622
	116.3072	24.81489
	116.3018	24.81184
	116.2989	24.8086
	116.2965	24.80651
	116.2953	24.80574
	116.2924	24.80461
	116.2867	24.80308
	116.2802	24.80233
	116.2768	24.80252
	116.2743	24.80214
	116.2693	24.80176
	116.267	24.80176
	116.2603	24.80272
	116.2539	24.80246
	116.2507	24.7997
	116.2491	24.79883
	116.2474	24.79817
	116.2448	24.79793
	116.2427	24.79843
	116.2405	24.79915
	116.2365	24.8012
	116.2368	24.80336
	116.2275	24.80403
	116.2284	24.8077
	116.2291	24.80903
	116.2318	24.81322
	116.2343	24.81609
	116.2368	24.81817
	116.2395	24.82161
	116.2408	24.82275
	116.2416	24.82314
	116.2427	24.82332
	116.245	24.82408
	116.2454	24.82428
	116.246	24.82504
	116.2463	24.82561
	116.2463	24.82809
	116.2454	24.83076
	116.2439	24.83191
	116.2421	24.83286
	116.2377	24.83344
	116.2362	24.83344
	116.2343	24.83325
	116.2312	24.83248
	116.2297	24.83191
	116.2265	24.82924
	116.2255	24.82886
	116.2247	24.82886
	116.223	24.82981
	116.2224	24.83058
	116.2196	24.83135
	116.2184	24.83192
	116.2173	24.83268
	116.2165	24.83363
	116.2159	24.84545
	116.215	24.84736
	116.2144	24.84832
	116.2138	24.84907
	116.2087	24.85099
	116.2077	24.85251
	116.2062	24.85727
	116.2041	24.859
	116.2033	24.85938
	116.1972	24.86014
	116.1965	24.86043
	116.1962	24.8608
	116.1923	24.86767
	116.19	24.86845
	116.1887	24.87428
	116.1874	24.87392
	116.1852	24.87247
	116.1674	24.86556
	116.1648	24.86579
	116.1632	24.86462
	116.1623	24.86329
	116.1588	24.86001
	116.157	24.85897
	116.1522	24.85901
	116.1508	24.85284
	116.1484	24.84936
	116.1439	24.84783
	116.1397	24.84781
	116.1378	24.84718
	116.136	24.84718
	116.1347	24.84737
	116.1311	24.84965
	116.1236	24.85099
	116.1219	24.85099
	116.1171	24.85156
	116.1158	24.85156
	116.1133	24.85271
	116.112	24.85366
	116.1112	24.85409
	116.1093	24.85333
	116.1081	24.8522
	116.1065	24.85162
	116.1017	24.85244
	116.0997	24.85252
	116.0959	24.85302
	116.0797	24.8556
	116.0789	24.8556
	116.0783	24.85617
	116.0741	24.85602
	116.0732	24.85617
	116.0703	24.85623
	116.069	24.85669
	116.0684	24.85674
	116.0671	24.85653
	116.0664	24.85626
	116.0656	24.85404
	116.064	24.85265
	116.0634	24.8526
	116.0625	24.85365
	116.0611	24.85791
	116.0601	24.8602
	116.0584	24.86169
	116.0582	24.86244
	116.0579	24.86259
	116.0555	24.86238
	116.0531	24.86258
	116.0494	24.86419
	116.0487	24.86433
	116.0474	24.86422
	116.0471	24.8644
	116.0458	24.86715
	116.045	24.86798
	116.0438	24.86876
	116.0428	24.87022
	116.0425	24.87093
	116.0426	24.87192
	116.0441	24.87515
	116.0441	24.87588
	116.0439	24.87654
	116.0434	24.87693
	116.0426	24.87707
	116.0422	24.87693
	116.0414	24.8762
	116.0402	24.87575
	116.0391	24.87441
	116.0383	24.87388
	116.0373	24.87375
	116.0365	24.87385
	116.0358	24.87414
	116.0356	24.87448
	116.0358	24.87547
	116.0364	24.87583
	116.0377	24.87619
	116.0386	24.87782
	116.0385	24.87843
	116.0381	24.87891
	116.0348	24.87981
	116.035	24.88033
	116.0367	24.88108
	116.0366	24.88311
	116.0354	24.88686
	116.0335	24.88967
	116.025	24.89712
	116.0209	24.90198
	116.0186	24.90495
	116.0185	24.905
	115.8813	25.09664
	115.8677	25.12325
	115.8796	25.14193
	115.8586	25.15523
	115.8499	25.17755
	115.8537	25.21807
	115.9229	25.24015
	115.9436	25.27047
	116.007	25.32531
	115.9911	25.3511
	115.9881	25.38173
	116.0003	25.39579
	115.996	25.41568
	116.0154	25.43065
	116.0149	25.44329
	115.9876	25.46395
	116.0133	25.49294
	116.0319	25.54995
	116.0501	25.55577
	116.0551	25.57076
	116.0514	25.59981
	116.0379	25.61105
	116.0437	25.63382
	116.0647	25.64574
	116.0508	25.69052
	116.0629	25.70665
	116.0874	25.70238
	116.1013	25.70857
	116.1219	25.76252
	116.1414	25.76805
	116.1673	25.75431
	116.1725	25.76997
	116.1655	25.79753
	116.1262	25.8363
	116.1253	25.85483
	116.1265	25.85959
	116.1284	25.86304
	116.1485	25.87933
	116.1676	25.88991
	116.1738	25.89515
	116.19	25.90181
	116.2102	25.91034
	116.2308	25.9189
	116.2577	25.91452
	116.2985	25.9268
	116.3359	25.96381
	116.3636	25.96818
	116.3625	25.9776
	116.3557	25.99323
	116.3563	26.00349
	116.3607	26.00987
	116.3645	26.01034
	116.367	26.01158
	116.3687	26.01597
	116.3735	26.01968
	116.3742	26.02479
	116.3779	26.02815
	116.3805	26.03404
	116.3877	26.03574
	116.3914	26.03474
	116.3951	26.03544
	116.3968	26.03829
	116.3977	26.04305
	116.3968	26.04711
	116.3973	26.05132
	116.4022	26.05182
	116.4125	26.05683
	116.4147	26.05717
	116.4159	26.06176
	116.4156	26.06432
	116.4185	26.07198
	116.4201	26.07264
	116.4237	26.07296
	116.4269	26.07483
	116.4294	26.07722
	116.4354	26.08061
	116.4381	26.08011
	116.441	26.08318
	116.4449	26.08471
	116.4473	26.08696
	116.448	26.08787
	116.456	26.09628
	116.4602	26.09745
	116.4624	26.10068
	116.4777	26.1109
	116.4842	26.11784
	116.4865	26.1264
	116.4852	26.13331
	116.4825	26.13833
	116.4788	26.14157
	116.4776	26.14439
	116.4781	26.14625
	116.4793	26.14977
	116.4792	26.15171
	116.4785	26.15313
	116.476	26.15517
	116.4761	26.16049
	116.4763	26.16374
	116.4741	26.17024
	116.4716	26.17115
	116.4707	26.17302
	116.4715	26.17486
	116.4708	26.17647
	116.4655	26.17882
	116.4591	26.17808
	116.4575	26.17508
	116.4547	26.17389
	116.4528	26.17203
	116.4504	26.17227
	116.4439	26.16832
	116.4292	26.16291
	116.4217	26.16198
	116.4196	26.16272
	116.4175	26.16125
	116.4168	26.16178
	116.4165	26.1634
	116.417	26.1648
	116.4183	26.16615
	116.4202	26.16745
	116.4178	26.17113
	116.4161	26.17167
	116.4145	26.1708
	116.4117	26.16648
	116.4111	26.16196
	116.4058	26.16306
	116.4053	26.16537
	116.3988	26.16911
	116.3913	26.16983
	116.3869	26.17426
	116.3878	26.17788
	116.3923	26.17992
	116.3917	26.18268
	116.3947	26.19098
	116.3944	26.19394
	116.3958	26.19715
	116.3938	26.19815
	116.3926	26.20013
	116.3936	26.20366
	116.3909	26.20335
	116.3906	26.20623
	116.3933	26.2084
	116.392	26.20995
	116.3933	26.21282
	116.3904	26.21297
	116.3878	26.21171
	116.3899	26.20874
	116.3855	26.20917
	116.3805	26.21065
	116.3801	26.2126
	116.3836	26.21332
	116.3876	26.21655
	116.3893	26.22146
	116.3869	26.22851
	116.3829	26.23497
	116.3816	26.24137
	116.3853	26.24524
	116.3905	26.24741
	116.3915	26.25124
	116.3895	26.2559
	116.3864	26.25763
	116.3881	26.26367
	116.3933	26.26767
	116.3932	26.2744
	116.3942	26.27672
	116.4172	26.28536
	116.4188	26.288
	116.4183	26.29268
	116.4154	26.29789
	116.4081	26.30136
	116.4225	26.30412
	116.423	26.30538
	116.4323	26.31197
	116.4335	26.32469
	116.4379	26.32981
	116.4413	26.32917
	116.451	26.33625
	116.4574	26.34272
	116.4741	26.35418
	116.4913	26.37016
	116.5007	26.38579
	116.512	26.40168
	116.5219	26.40427
	116.5369	26.40547
	116.5495	26.39091
	116.5629	26.38099
	116.5733	26.37391
	116.5832	26.37138
	116.597	26.37969
	116.6026	26.38616
	116.6044	26.40173
	116.6024	26.43106
	116.6236	26.45709
	116.6322	26.47129
	116.634	26.48186
	116.6269	26.48565
	116.6175	26.49417
	116.5996	26.4955
	116.5922	26.50839
	116.5758	26.52573
	116.5752	26.538
	116.5542	26.55163
	116.5302	26.56578
	116.5424	26.57697
	116.5547	26.60029
	116.5663	26.64395
	116.5662	26.65087
	116.5511	26.6562
	116.5306	26.66859
	116.5046	26.6943
	116.5073	26.71168
	116.5118	26.72504
	116.5475	26.76891
	116.539	26.79846
	116.539	26.80741
	116.554	26.85476
	116.5626	26.85983
	116.5802	26.87261
	116.5876	26.88233
	116.5936	26.8872
	116.5976	26.89227
	116.6053	26.90129
	116.616	26.91445
	116.6211	26.92771
	116.6574	26.96033
	116.708	26.99553
	116.7156	26.99524
	116.7431	26.98764
	116.7595	26.98491
	116.7645	26.99424
	116.7732	26.99983
	116.7895	27.01188
	116.817	27.01776
	116.8387	27.01073
	116.855	27.01159
	116.8813	27.02419
	116.9034	27.03027
	116.9167	27.02834
	116.933	27.01841
	116.9367	27.03056
	116.966	27.06375
	116.9888	27.0796
	117.0087	27.0883
	117.0291	27.09122
	117.0465	27.10446
	117.049	27.10662
	117.0453	27.11949
	117.0422	27.12514
	117.0379	27.13603
	117.0376	27.14447
	117.0428	27.15327
	117.0432	27.15495
	117.0501	27.15938
	117.0525	27.16543
	117.0577	27.17254
	117.0634	27.17936
	117.0755	27.18455
	117.0791	27.1865
	117.0815	27.19158
	117.0813	27.19547
	117.0864	27.20034
	117.0926	27.20964
	117.0963	27.21158
	117.1119	27.21936
	117.129	27.22509
	117.1506	27.24215
	117.156	27.26269
	117.1626	27.27531
	117.1671	27.29507
	117.1408	27.30437
	117.1367	27.30721
	117.1347	27.31526
	117.137	27.31889
	117.1362	27.32662
	117.1267	27.32644
	117.1051	27.328
	117.0988	27.33646
	117.0961	27.34586
	117.1027	27.36404
	117.0946	27.38
	117.0998	27.38814
	117.1032	27.39773
	117.1201	27.40777
	117.1257	27.41278
	117.1225	27.43486
	117.1087	27.45456
	117.1052	27.467
	117.1036	27.47529
	117.0998	27.48208
	117.1089	27.49682
	117.0987	27.51743
	117.0956	27.54678
	117.0979	27.55959
	117.0735	27.57179
	117.0485	27.55047
	117.0272	27.54657
	117.0219	27.54754
	117.0156	27.55796
	117.0154	27.56588
	117.0173	27.58611
	116.9939	27.61066
	117.0029	27.63734
	117.0203	27.66392
	117.0432	27.67471
	117.0494	27.67448
	117.0601	27.66889
	117.0732	27.65903
	117.0742	27.65594
	117.0729	27.64714
	117.0884	27.63253
	117.0927	27.63098
	117.096	27.63158
	117.1043	27.63716
	117.1012	27.64536
	117.1064	27.65047
	117.0993	27.66223
	117.0959	27.67744
	117.1024	27.68601
	117.1276	27.69591
	117.1469	27.69296
	117.1522	27.68859
	117.1632	27.68389
	117.1737	27.68255
	117.1875	27.68775
	117.2006	27.68809
	117.1982	27.69548
	117.1999	27.69985
	117.1989	27.71273
	117.2014	27.71879
	117.2042	27.72033
	117.2087	27.71915
	117.2134	27.71891
	117.2214	27.72211
	117.2477	27.72958
	117.2592	27.74093
	117.2684	27.76087
	117.2737	27.76963
	117.279	27.7711
	117.2895	27.77197
	117.2965	27.77393
	117.2997	27.78004
	117.2918	27.80536
	117.2981	27.83329
	117.2981	27.83423
	117.2982	27.83466
	117.2982	27.83486
	117.2981	27.83518
	117.2979	27.8357
	117.2979	27.83649
	117.2978	27.83671
	117.2976	27.83685
	117.2972	27.83705
	117.2969	27.8371
	117.2965	27.83708
	117.2964	27.83712
	117.2968	27.83768
	117.297	27.83878
	117.2971	27.8395
	117.2969	27.83967
	117.2961	27.84024
	117.2958	27.84047
	117.2955	27.84061
	117.2951	27.84075
	117.2949	27.84085
	117.2949	27.84141
	117.2948	27.84168
	117.2945	27.84188
	117.2942	27.84201
	117.2937	27.84249
	117.2927	27.84283
	117.2923	27.84313
	117.2921	27.84347
	117.2916	27.8441
	117.291	27.84539
	117.2907	27.84586
	117.2904	27.8461
	117.2898	27.8464
	117.2891	27.84706
	117.2887	27.84732
	117.2884	27.84776
	117.2882	27.84788
	117.2879	27.84784
	117.2874	27.84733
	117.2865	27.84711
	117.2849	27.84657
	117.2844	27.84653
	117.2839	27.84587
	117.283	27.84569
	117.2819	27.84616
	117.281	27.84626
	117.2806	27.8461
	117.2782	27.84678
	117.2771	27.84587
	117.2766	27.84682
	117.2765	27.84739
	117.2762	27.84808
	117.2761	27.84861
	117.2758	27.84894
	117.2754	27.84882
	117.2746	27.84889
	117.2741	27.84972
	117.2737	27.85006
	117.2729	27.85002
	117.2725	27.8501
	117.2722	27.85013
	117.2721	27.85027
	117.2719	27.85122
	117.2725	27.85282
	117.2725	27.85361
	117.2723	27.85439
	117.2725	27.8552
	117.2731	27.85587
	117.2738	27.85737
	117.2738	27.85832
	117.2739	27.85933
	117.2737	27.85974
	117.2732	27.86101
	117.2733	27.86158
	117.2741	27.86361
	117.2742	27.86489
	117.2746	27.8654
	117.2748	27.86578
	117.2752	27.86682
	117.2752	27.86734
	117.2757	27.86812
	117.2764	27.86907
	117.2765	27.86969
	117.2763	27.87025
	117.2762	27.87083
	117.2757	27.8717
	117.2755	27.87188
	117.2748	27.87191
	117.2741	27.87215
	117.2738	27.8729
	117.274	27.87397
	117.2743	27.87449
	117.2748	27.87462
	117.2752	27.87457
	117.2759	27.87442
	117.2767	27.87397
	117.2777	27.87364
	117.2786	27.87373
	117.2791	27.87338
	117.2794	27.87293
	117.2792	27.87247
	117.2792	27.87217
	117.2799	27.87163
	117.2808	27.87124
	117.2815	27.87119
	117.2818	27.87133
	117.2822	27.87132
	117.2825	27.87127
	117.2833	27.87168
	117.2855	27.873
	117.2863	27.87391
	117.2868	27.87403
	117.2884	27.87408
	117.2898	27.87397
	117.2902	27.87399
	117.2908	27.87421
	117.2917	27.8742
	117.2928	27.87379
	117.2939	27.87416
	117.295	27.87445
	117.2962	27.87444
	117.2966	27.87512
	117.2972	27.87538
	117.2986	27.87592
	117.2991	27.87644
	117.3001	27.8773
	117.3007	27.87827
	117.3013	27.87852
	117.3027	27.87894
	117.3028	27.87964
	117.3032	27.88024
	117.3033	27.88064
	117.3028	27.88139
	117.3027	27.88224
	117.3022	27.88319
	117.302	27.88376
	117.3017	27.88406
	117.3015	27.88462
	117.3014	27.88476
	117.301	27.88486
	117.3005	27.88489
	117.3011	27.88494
	117.3016	27.88513
	117.302	27.88557
	117.3027	27.88586
	117.3033	27.88629
	117.3037	27.88646
	117.3046	27.8866
	117.3051	27.88683
	117.3062	27.88685
	117.3071	27.88667
	117.3073	27.88723
	117.3074	27.88786
	117.3076	27.88986
	117.308	27.89032
	117.3084	27.89051
	117.3084	27.89118
	117.3087	27.89167
	117.3087	27.89215
	117.3097	27.8932
	117.3098	27.89341
	117.3103	27.89381
	117.3107	27.8945
	117.3109	27.89457
	117.311	27.89476
	117.3113	27.89497
	117.3113	27.89565
	117.3117	27.89628
	117.3117	27.89719
	117.3119	27.89756
	117.3131	27.89806
	117.3134	27.89798
	117.3135	27.89815
	117.3135	27.89841
	117.3136	27.89853
	117.3138	27.89849
	117.314	27.89818
	117.3143	27.89811
	117.3144	27.8979
	117.3148	27.89809
	117.3154	27.89862
	117.3166	27.89913
	117.3175	27.89929
	117.3177	27.89927
	117.3179	27.8991
	117.3183	27.89901
	117.3193	27.89924
	117.3201	27.89906
	117.3203	27.89903
	117.3209	27.89857
	117.3215	27.8979
	117.3225	27.89723
	117.323	27.89677
	117.3234	27.89672
	117.3242	27.89604
	117.3249	27.89558
	117.3258	27.89519
	117.3262	27.89436
	117.3273	27.89398
	117.3283	27.89285
	117.3289	27.89243
	117.3297	27.89192
	117.3299	27.89141
	117.3296	27.89093
	117.3295	27.89035
	117.3293	27.88988
	117.3294	27.88918
	117.3296	27.8889
	117.3298	27.88841
	117.3298	27.88785
	117.3297	27.88722
	117.3304	27.88648
	117.3304	27.88575
	117.3307	27.88501
	117.3306	27.88413
	117.3308	27.88366
	117.3312	27.88246
	117.3316	27.88193
	117.3314	27.88138
	117.3317	27.88103
	117.3319	27.88059
	117.3318	27.88004
	117.3304	27.87955
	117.3301	27.87901
	117.3295	27.8782
	117.3292	27.87744
	117.3289	27.87685
	117.3291	27.87612
	117.3294	27.87577
	117.3299	27.87552
	117.3299	27.87475
	117.3306	27.87326
	117.3307	27.87179
	117.3306	27.8714
	117.3305	27.87083
	117.3294	27.86951
	117.3282	27.86799
	117.3278	27.86729
	117.3276	27.86721
	117.3275	27.86709
	117.3286	27.86549
	117.3296	27.86452
	117.3306	27.8648
	117.331	27.86478
	117.3318	27.86432
	117.3331	27.86354
	117.3339	27.86169
	117.3346	27.86088
	117.3353	27.85929
	117.3355	27.85857
	117.3359	27.85836
	117.3364	27.85838
	117.3368	27.85851
	117.3371	27.8588
	117.3373	27.85931
	117.3376	27.85957
	117.338	27.85954
	117.3384	27.85933
	117.3387	27.85973
	117.339	27.85989
	117.3402	27.86001
	117.3415	27.85972
	117.3424	27.85949
	117.3437	27.85939
	117.3445	27.86124
	117.3455	27.86101
	117.346	27.86067
	117.3464	27.86058
	117.3466	27.86077
	117.347	27.8608
	117.3473	27.86088
	117.3477	27.86116
	117.3481	27.86138
	117.3483	27.86209
	117.3488	27.86286
	117.3488	27.86305
	117.3487	27.86337
	117.3484	27.86414
	117.3484	27.8643
	117.3482	27.86449
	117.3484	27.86466
	117.3485	27.86482
	117.3481	27.86552
	117.3481	27.86578
	117.3482	27.86616
	117.3483	27.86667
	117.3481	27.86723
	117.3481	27.86758
	117.3487	27.86931
	117.3494	27.87011
	117.35	27.87062
	117.3502	27.87208
	117.3506	27.87299
	117.3512	27.87358
	117.3518	27.87363
	117.3522	27.87457
	117.3528	27.87549
	117.3538	27.87603
	117.3559	27.87737
	117.3563	27.87833
	117.3564	27.87869
	117.3564	27.87936
	117.3563	27.88052
	117.3566	27.88091
	117.3567	27.88155
	117.3579	27.88273
	117.3586	27.88346
	117.3587	27.88365
	117.3594	27.88396
	117.3596	27.88414
	117.3599	27.88524
	117.3601	27.8854
	117.3601	27.88571
	117.3606	27.88618
	117.3613	27.88652
	117.3618	27.88699
	117.3633	27.88751
	117.3644	27.88779
	117.3656	27.88788
	117.3659	27.88811
	117.3666	27.8888
	117.3678	27.88903
	117.3697	27.89001
	117.3704	27.89024
	117.3728	27.89177
	117.3735	27.89167
	117.3754	27.89121
	117.3765	27.89082
	117.3774	27.89007
	117.3782	27.88959
	117.3788	27.88934
	117.3794	27.88948
	117.3803	27.8899
	117.3809	27.88982
	117.3814	27.89006
	117.3824	27.89087
	117.3831	27.89107
	117.3836	27.89161
	117.3842	27.89197
	117.3843	27.89234
	117.3847	27.8926
	117.385	27.8926
	117.3856	27.89251
	117.386	27.89273
	117.3864	27.89378
	117.3872	27.89452
	117.3879	27.8947
	117.3884	27.89504
	117.3888	27.89522
	117.3889	27.89571
	117.3893	27.89622
	117.3899	27.89641
	117.3902	27.89639
	117.3918	27.89557
	117.393	27.89557
	117.3938	27.8957
	117.3947	27.89644
	117.3961	27.89667
	117.3985	27.89612
	117.3989	27.89627
	117.3999	27.89735
	117.4001	27.89777
	117.401	27.89788
	117.4017	27.89779
	117.4026	27.8978
	117.404	27.89799
	117.405	27.8979
	117.4064	27.89814
	117.4073	27.89815
	117.4078	27.89918
	117.408	27.89975
	117.4081	27.90026
	117.4079	27.90074
	117.4082	27.90117
	117.4086	27.90142
	117.4092	27.90213
	117.4105	27.90268
	117.4104	27.90346
	117.4107	27.90374
	117.4118	27.90433
	117.412	27.90454
	117.4126	27.90473
	117.4131	27.90535
	117.4135	27.90553
	117.4143	27.90615
	117.4157	27.90703
	117.4153	27.90741
	117.4168	27.90905
	117.4177	27.90944
	117.4184	27.90982
	117.4191	27.91017
	117.4203	27.9114
	117.4203	27.91155
	117.4199	27.91201
	117.4199	27.91213
	117.4203	27.91223
	117.4206	27.91216
	117.4209	27.91267
	117.4213	27.91287
	117.4221	27.91336
	117.4234	27.91362
	117.4243	27.9145
	117.4244	27.91482
	117.4246	27.91577
	117.4252	27.91645
	117.4253	27.9168
	117.426	27.91707
	117.4266	27.91744
	117.4269	27.91886
	117.4268	27.91942
	117.4262	27.92125
	117.4262	27.92166
	117.427	27.92227
	117.4275	27.92248
	117.4285	27.92348
	117.429	27.9237
	117.4294	27.92421
	117.4302	27.92433
	117.4312	27.92475
	117.4321	27.92502
	117.4331	27.92586
	117.4341	27.92622
	117.4346	27.92701
	117.436	27.92745
	117.4366	27.92781
	117.4369	27.92862
	117.4372	27.92889
	117.4375	27.9289
	117.438	27.92934
	117.4379	27.93022
	117.4385	27.93181
	117.4385	27.93276
	117.4383	27.93307
	117.4382	27.93339
	117.4387	27.93381
	117.4389	27.93436
	117.4395	27.93479
	117.4399	27.93521
	117.4406	27.93558
	117.4412	27.9356
	117.4416	27.93576
	117.4419	27.93592
	117.4421	27.93599
	117.4423	27.93577
	117.4425	27.93573
	117.4428	27.93586
	117.4429	27.93613
	117.4426	27.93642
	117.4429	27.93683
	117.4432	27.93689
	117.4435	27.9369
	117.4438	27.93713
	117.444	27.93732
	117.4441	27.93752
	117.4443	27.93756
	117.4448	27.93762
	117.4448	27.93776
	117.4449	27.938
	117.4452	27.93798
	117.4457	27.93826
	117.4461	27.93859
	117.4465	27.93867
	117.4467	27.93882
	117.4467	27.93952
	117.4472	27.93994
	117.4475	27.9404
	117.4477	27.94058
	117.4477	27.94097
	117.4475	27.9413
	117.4473	27.94136
	117.4476	27.94159
	117.4478	27.94208
	117.448	27.94249
	117.4482	27.94321
	117.4488	27.94353
	117.4497	27.94383
	117.4504	27.94434
	117.4514	27.94454
	117.4521	27.94494
	117.4525	27.94495
	117.453	27.94477
	117.4534	27.94494
	117.4538	27.9454
	117.4544	27.94547
	117.4547	27.94562
	117.4552	27.94567
	117.4557	27.94587
	117.4564	27.94635
	117.4565	27.94631
	117.4566	27.94581
	117.4568	27.94527
	117.4577	27.94461
	117.4577	27.9444
	117.4585	27.9436
	117.4594	27.94315
	117.4597	27.94279
	117.459	27.94188
	117.4587	27.94024
	117.459	27.93972
	117.4594	27.93946
	117.4599	27.93909
	117.4605	27.93824
	117.4609	27.93796
	117.461	27.93768
	117.4613	27.93735
	117.462	27.93764
	117.4628	27.93737
	117.4639	27.93759
	117.4652	27.9377
	117.4664	27.93674
	117.4666	27.93625
	117.4665	27.93588
	117.4665	27.93452
	117.4679	27.93443
	117.4685	27.93407
	117.4687	27.9335
	117.4693	27.93358
	117.4698	27.93328
	117.4703	27.93348
	117.4709	27.93343
	117.4716	27.9334
	117.4719	27.93349
	117.4722	27.93453
	117.4731	27.93524
	117.4745	27.9367
	117.4747	27.93749
	117.4754	27.93934
	117.4754	27.93974
	117.4761	27.94094
	117.4771	27.94167
	117.4776	27.94227
	117.478	27.94346
	117.4802	27.94479
	117.4804	27.94488
	117.4807	27.94471
	117.482	27.94466
	117.4826	27.94491
	117.4834	27.94682
	117.4848	27.94768
	117.4854	27.94768
	117.4858	27.94793
	117.4876	27.94813
	117.4883	27.94912
	117.4884	27.94954
	117.4889	27.94973
	117.4891	27.94989
	117.4898	27.94968
	117.4901	27.94989
	117.4906	27.95112
	117.4915	27.95224
	117.4925	27.95281
	117.4932	27.95349
	117.4941	27.95322
	117.4957	27.95383
	117.4961	27.95426
	117.4959	27.95476
	117.4959	27.95529
	117.4963	27.95538
	117.4968	27.95527
	117.4982	27.95632
	117.4995	27.95702
	117.5	27.95722
	117.5027	27.95944
	117.5061	27.97328
	117.5066	27.97699
	117.5115	27.9811
	117.5167	27.98665
	117.5227	27.98692
	117.5324	27.97484
	117.55	27.97146
	117.5562	27.97001
	117.5585	27.96294
	117.5557	27.95185
	117.5581	27.94424
	117.5619	27.9378
	117.5707	27.93834
	117.5787	27.93977
	117.5808	27.9395
	117.5824	27.93646
	117.584	27.92151
	117.5887	27.90493
	117.5909	27.89518
	117.5982	27.88872
	117.5985	27.87682
	117.6228	27.86049
	117.6308	27.85821
	117.6452	27.85618
	117.6473	27.85213
	117.6594	27.84516
	117.6663	27.83508
	117.6719	27.82818
	117.6764	27.82648
	117.6842	27.83132
	117.6886	27.82908
	117.7003	27.83803
	117.7073	27.82657
	117.7126	27.82088
	117.7125	27.82077
	117.7125	27.82031
	117.7123	27.81997
	117.7123	27.81993
	117.7117	27.81898
	117.7115	27.81872
	117.7114	27.81862
	117.7112	27.81823
	117.7111	27.8181
	117.7108	27.81781
	117.7107	27.81759
	117.7112	27.8148
	117.7139	27.8153
	117.7141	27.81543
	117.7144	27.81586
	117.7147	27.81636
	117.7148	27.81646
	117.7152	27.81664
	117.7158	27.81696
	117.716	27.81719
	117.7231	27.80968
	117.7284	27.80423
	117.7374	27.80398
	117.7437	27.81082
	117.7504	27.82057
	117.7513	27.82767
	117.7579	27.83476
	117.7703	27.83958
	117.7772	27.84967
	117.7825	27.86073
	117.7811	27.87884
	117.7842	27.89917
	117.8092	27.92146
	117.8201	27.93035
	117.8518	27.95031
	117.8613	27.93925
	117.8721	27.94709
	117.8826	27.9507
	117.8943	27.94913
	117.9057	27.95481
	117.9181	27.96761
	117.9308	27.97611
	117.9366	27.97861
	117.9488	27.97417
	117.9538	27.96829
	117.967	27.96716
	117.9732	27.96947
	117.9824	27.97862
	117.9926	27.99194
	118.001	27.98528
	118.0112	27.98565
	118.0158	27.98917
	118.0299	27.9912
	118.037	27.9823
	118.0577	27.98439
	118.0641	27.98086
	118.067	27.9738
	118.074	27.96962
	118.0823	27.96831
	118.09	27.96975
	118.0897	27.97838
	118.0876	27.99393
	118.0888	28.00456
	118.0929	28.01036
	118.0987	28.02022
	118.1174	28.01442
	118.124	28.01941
	118.1227	28.03022
	118.1154	28.04385
	118.1217	28.05101
	118.1276	28.05506
	118.1435	28.061
	118.1605	28.06073
	118.1749	28.0556
	118.1917	28.05574
	118.2009	28.0583
	118.209	28.06276
	118.2211	28.06451
	118.2397	28.08219
	118.2501	28.08354
	118.2604	28.08057
	118.2732	28.08624
	118.2853	28.0942
	118.3046	28.09542
	118.3179	28.09407
	118.3337	28.09029
	118.3539	28.11053
	118.3624	28.13252
	118.3589	28.14709
	118.3542	28.1568
	118.3594	28.16678
	118.3583	28.17461
	118.3537	28.18337
	118.3332	28.19739
	118.3184	28.21371
	118.3153	28.2226
	118.315	28.22825
	118.3251	28.23608
	118.3465	28.25508
	118.3475	28.25494
	118.3543	28.256
	118.3607	28.25751
	118.3607	28.26099
	118.3646	28.2649
	118.3658	28.26732
	118.3676	28.26915
	118.3701	28.27039
	118.3706	28.27019
	118.3744	28.2684
	118.3773	28.26784
	118.3788	28.26801
	118.379	28.26865
	118.3821	28.26998
	118.3836	28.26964
	118.386	28.27184
	118.3886	28.27658
	118.3917	28.27833
	118.3937	28.27899
	118.4002	28.28034
	118.4002	28.28244
	118.4027	28.28548
	118.4045	28.28578
	118.4149	28.29123
	118.4176	28.29442
	118.4195	28.29501
	118.4224	28.29573
	118.4264	28.29693
	118.4275	28.29165
END
END
