China_Zhejiang
1
	118.0666	29.21881
	118.0753	29.22166
	118.0786	29.22366
	118.0746	29.23167
	118.0762	29.23562
	118.0771	29.23768
	118.0769	29.23862
	118.0752	29.24524
	118.0697	29.24835
	118.0719	29.25692
	118.0723	29.25927
	118.0732	29.26521
	118.0718	29.27404
	118.0703	29.28892
	118.0704	29.28944
	118.0714	29.29324
	118.0725	29.29426
	118.0856	29.28884
	118.0965	29.28695
	118.1019	29.29026
	118.1059	29.29529
	118.1132	29.29293
	118.1317	29.28656
	118.1385	29.28963
	118.16	29.30171
	118.1604	29.31058
	118.1608	29.31683
	118.1726	29.3235
	118.1778	29.33406
	118.1958	29.34428
	118.2064	29.35061
	118.2102	29.35795
	118.2123	29.37849
	118.2022	29.38036
	118.1956	29.38588
	118.1953	29.39488
	118.2045	29.40762
	118.2404	29.43463
	118.2543	29.43249
	118.3029	29.425
	118.3078	29.43568
	118.3113	29.44336
	118.3052	29.48076
	118.3037	29.48964
	118.3093	29.49315
	118.3168	29.49794
	118.3374	29.48242
	118.3815	29.49011
	118.3973	29.48007
	118.4022	29.50553
	118.4413	29.51254
	118.4436	29.51296
	118.45	29.51419
	118.4833	29.52061
	118.489	29.54219
	118.4955	29.56671
	118.5724	29.6379
	118.5931	29.64516
	118.615	29.65285
	118.6432	29.64875
	118.6911	29.6999
	118.7145	29.71242
	118.7224	29.71664
	118.7432	29.75676
	118.7381	29.78655
	118.7332	29.81499
	118.7471	29.81925
	118.7535	29.82118
	118.7485	29.83928
	118.7558	29.84891
	118.7576	29.84886
	118.7796	29.84822
	118.8342	29.89565
	118.8411	29.90985
	118.835	29.94149
	118.8496	29.94402
	118.8915	29.9513
	118.8942	30.00555
	118.895	30.02213
	118.8656	30.10835
	118.882	30.12648
	118.8942	30.13996
	118.894	30.1417
	118.8921	30.15578
	118.8818	30.16358
	118.86	30.15488
	118.8584	30.15425
	118.8577	30.15398
	118.8477	30.16659
	118.8996	30.1913
	118.921	30.21465
	118.8898	30.23463
	118.8751	30.28599
	118.877	30.30086
	118.8791	30.31693
	118.9528	30.36406
	119.0422	30.31047
	119.0499	30.30901
	119.0531	30.30839
	119.0738	30.32205
	119.0852	30.32962
	119.1204	30.31188
	119.2252	30.29549
	119.242	30.33223
	119.2485	30.34629
	119.2645	30.3475
	119.2832	30.34891
	119.2909	30.35423
	119.2914	30.35374
	119.2916	30.35357
	119.2925	30.35294
	119.2935	30.35166
	119.2936	30.35143
	119.2941	30.35053
	119.2946	30.34987
	119.2949	30.34968
	119.2957	30.34929
	119.296	30.34923
	119.2962	30.3492
	119.2966	30.34917
	119.2988	30.351
	119.2976	30.35235
	119.2977	30.35236
	119.2972	30.35332
	119.2971	30.35342
	119.2969	30.35382
	119.2967	30.35404
	119.2961	30.35485
	119.2962	30.35493
	119.2963	30.35499
	119.2967	30.35655
	119.2967	30.35663
	119.2957	30.35756
	119.3092	30.36686
	119.3228	30.37624
	119.3479	30.35734
	119.3541	30.35677
	119.3638	30.35589
	119.4106	30.38156
	119.4017	30.38425
	119.377	30.39181
	119.3765	30.39229
	119.3459	30.42015
	119.3335	30.48168
	119.323	30.53394
	119.2838	30.51658
	119.2666	30.51209
	119.2389	30.54002
	119.2392	30.55583
	119.2394	30.55665
	119.2413	30.56436
	119.2521	30.57203
	119.2524	30.57223
	119.258	30.57479
	119.2635	30.57735
	119.2635	30.58028
	119.2635	30.58233
	119.2587	30.58764
	119.2565	30.59006
	119.2509	30.59684
	119.2484	30.59976
	119.2472	30.60186
	119.2382	30.61772
	119.2483	30.61683
	119.2516	30.61654
	119.2671	30.61855
	119.3113	30.6243
	119.3199	30.64144
	119.3349	30.66712
	119.3394	30.6698
	119.3432	30.67206
	119.3551	30.67556
	119.3625	30.67773
	119.3805	30.68816
	119.3969	30.68212
	119.41	30.64859
	119.4393	30.6528
	119.4546	30.67982
	119.4604	30.69012
	119.4657	30.69576
	119.4865	30.71786
	119.4852	30.78296
	119.4961	30.79092
	119.5117	30.778
	119.5312	30.7843
	119.5356	30.79048
	119.5703	30.83884
	119.5723	30.85693
	119.5576	30.87949
	119.5555	30.88271
	119.5589	30.9166
	119.5826	30.971
	119.6292	31.0218
	119.6247	31.08783
	119.6444	31.11566
	119.6321	31.13934
	119.6342	31.14456
	119.637	31.15168
	119.6674	31.16729
	119.6929	31.15863
	119.72	31.1731
	119.7797	31.18273
	119.7871	31.17356
	119.7945	31.16428
	119.8251	31.17848
	119.8814	31.16838
	119.9188	31.17493
	119.999	31.02909
	120.0104	31.0251
	120.0486	31.01187
	120.1122	30.96067
	120.1534	30.94064
	120.2292	30.93249
	120.2954	30.93663
	120.3615	30.95046
	120.3505	30.88758
	120.4079	30.89277
	120.4078	30.91207
	120.4077	30.9217
	120.4192	30.92801
	120.4438	30.8741
	120.436	30.85733
	120.4534	30.84132
	120.4508	30.82889
	120.4483	30.8166
	120.4808	30.76653
	120.4817	30.7651
	120.4997	30.7584
	120.5263	30.79467
	120.5297	30.79924
	120.5664	30.83859
	120.5859	30.85945
	120.6046	30.85037
	120.6227	30.85695
	120.646	30.8536
	120.6626	30.8675
	120.6662	30.86797
	120.6678	30.87053
	120.6675	30.87165
	120.6699	30.87368
	120.6781	30.88058
	120.6846	30.87572
	120.6938	30.86881
	120.6966	30.88297
	120.7053	30.88656
	120.7053	30.88895
	120.7052	30.90073
	120.7052	30.90822
	120.7053	30.93288
	120.6785	30.95601
	120.6936	30.96512
	120.7028	30.97069
	120.7225	30.9698
	120.7309	30.96128
	120.7361	30.96029
	120.7371	30.96063
	120.7392	30.9614
	120.7424	30.96259
	120.768	30.99299
	120.7755	31.00186
	120.8211	31.00816
	120.8277	30.99938
	120.8391	30.98408
	120.8448	30.98739
	120.8891	31.01295
	120.8904	31.01321
	120.8914	31.01343
	120.8914	31.01923
	120.8967	31.01948
	120.9064	31.01909
	120.9064	31.01598
	120.9065	31.01484
	120.907	31.01339
	120.9123	31.01468
	120.915	31.01484
	120.9223	31.01275
	120.9226	31.01314
	120.9227	31.01386
	120.9227	31.01418
	120.9236	31.01425
	120.925	31.01383
	120.9261	31.01375
	120.9274	31.01384
	120.9281	31.01379
	120.9285	31.01347
	120.9285	31.01292
	120.9289	31.01272
	120.9298	31.01183
	120.9328	31.01079
	120.9354	31.01047
	120.9368	31.01058
	120.9369	31.01113
	120.9367	31.01204
	120.9301	31.01924
	120.9454	31.01988
	120.9471	31.02643
	120.9444	31.02731
	120.9446	31.02823
	120.9451	31.03006
	120.944	31.03046
	120.9446	31.03248
	120.9451	31.03221
	120.9458	31.0321
	120.9461	31.03178
	120.9462	31.0312
	120.9464	31.03091
	120.9468	31.03098
	120.9472	31.03128
	120.9475	31.0321
	120.9491	31.03177
	120.9495	31.03177
	120.9502	31.03238
	120.9517	31.03175
	120.9529	31.03142
	120.9541	31.03067
	120.955	31.02718
	120.9553	31.02609
	120.9558	31.02528
	120.956	31.02397
	120.9558	31.02327
	120.9592	31.02256
	120.9595	31.02045
	120.9574	31.02025
	120.9579	31.01869
	120.9587	31.01853
	120.9604	31.01852
	120.966	31.01866
	120.9693	31.01854
	120.9743	31.01894
	120.9775	31.01868
	120.9779	31.01734
	120.9782	31.01721
	120.9787	31.0173
	120.9791	31.01719
	120.9793	31.01705
	120.9795	31.01663
	120.9797	31.01641
	120.98	31.01634
	120.9842	31.01661
	120.9849	31.0167
	120.9855	31.01664
	120.9862	31.01643
	120.9859	31.01529
	120.9845	31.01473
	120.9856	31.01198
	120.9869	31.01022
	120.9871	31.00981
	120.9868	31.00965
	120.9869	31.00914
	120.9875	31.00729
	120.9867	31.00698
	120.9872	31.00558
	120.9866	31.00536
	120.9864	31.0047
	120.9868	31.00375
	120.9886	31.00315
	120.9884	30.99908
	120.9859	30.99855
	120.9866	30.99628
	120.9907	30.99696
	120.9913	30.99469
	120.9903	30.99402
	120.9911	30.99265
	120.9917	30.99193
	120.993	30.99188
	120.994	30.98836
	120.9949	30.98329
	120.9958	30.98202
	120.9975	30.98256
	120.9982	30.98084
	120.9984	30.97964
	120.9967	30.97936
	120.9969	30.97775
	120.9967	30.97729
	120.9969	30.97605
	120.9954	30.97585
	120.9953	30.97532
	120.9933	30.97507
	120.9934	30.97453
	120.9916	30.97435
	120.9891	30.97424
	120.9892	30.97306
	120.988	30.97258
	120.9888	30.96956
	120.9895	30.96835
	120.9896	30.96709
	120.9894	30.96669
	120.9899	30.96521
	120.9892	30.96502
	120.9894	30.96364
	120.9904	30.96067
	120.9878	30.9607
	120.9881	30.95749
	120.991	30.95717
	120.9916	30.95237
	120.9936	30.95264
	120.9929	30.94802
	120.9932	30.94658
	120.9921	30.946
	120.9948	30.94218
	120.9969	30.93977
	120.9959	30.93825
	120.996	30.93255
	120.9952	30.91353
	120.9997	30.9127
	121.0001	30.90765
	120.9885	30.90775
	120.9885	30.90255
	120.9883	30.90171
	120.9864	30.8984
	120.9863	30.89781
	120.9891	30.89632
	120.9889	30.8923
	121.0002	30.89126
	121.0013	30.89095
	121.0032	30.89063
	121.005	30.88983
	121.0057	30.88925
	121.004	30.88712
	121.0038	30.8858
	121.0036	30.88461
	121.0049	30.88405
	121.0055	30.88441
	121.0083	30.8836
	121.0142	30.88246
	121.0157	30.87675
	121.0131	30.86851
	121.0101	30.86182
	121.0095	30.85708
	121.0063	30.85235
	121.0021	30.85183
	120.9991	30.84803
	120.9963	30.84843
	120.9942	30.84384
	120.992	30.83962
	120.9893	30.84091
	120.9887	30.84094
	120.9869	30.83914
	120.9839	30.83453
	120.9864	30.83367
	120.9875	30.83314
	120.9855	30.831
	120.9887	30.82947
	120.9859	30.82581
	120.9889	30.82434
	120.9899	30.82366
	120.9959	30.83106
	120.9984	30.82986
	120.9991	30.82864
	120.9996	30.82862
	121.0013	30.83151
	121.0055	30.83573
	121.008	30.83775
	121.0218	30.83224
	121.0294	30.81613
	121.0376	30.81741
	121.0384	30.81896
	121.0389	30.8228
	121.0379	30.82246
	121.0373	30.82388
	121.0369	30.82372
	121.0375	30.82201
	121.0332	30.8207
	121.0325	30.82173
	121.0344	30.82322
	121.0364	30.82623
	121.036	30.82945
	121.0382	30.83054
	121.0388	30.83052
	121.04	30.82892
	121.0406	30.82834
	121.0432	30.82719
	121.0436	30.82732
	121.0438	30.82757
	121.0447	30.82803
	121.0447	30.82908
	121.0434	30.83097
	121.0437	30.83145
	121.043	30.83302
	121.0512	30.83761
	121.0523	30.83799
	121.0568	30.84071
	121.0564	30.84153
	121.056	30.84521
	121.0573	30.84564
	121.0563	30.84746
	121.0613	30.85046
	121.0627	30.85087
	121.0669	30.85069
	121.0672	30.851
	121.076	30.8508
	121.0786	30.8518
	121.0805	30.85303
	121.0855	30.8554
	121.0921	30.85868
	121.0962	30.85388
	121.0969	30.85288
	121.0972	30.8519
	121.0975	30.85202
	121.0996	30.85212
	121.0999	30.85187
	121.1003	30.85196
	121.1003	30.85171
	121.106	30.85351
	121.1059	30.85554
	121.1071	30.85619
	121.1081	30.85552
	121.1083	30.85495
	121.1088	30.85491
	121.1139	30.85194
	121.1153	30.85111
	121.1161	30.8517
	121.1168	30.85171
	121.1173	30.85111
	121.1176	30.85025
	121.119	30.84954
	121.1157	30.8453
	121.1153	30.84377
	121.1156	30.84121
	121.1154	30.84005
	121.115	30.83901
	121.1132	30.83742
	121.1138	30.83698
	121.1147	30.83712
	121.1144	30.83757
	121.1148	30.83766
	121.1146	30.83808
	121.1156	30.83844
	121.117	30.83835
	121.1188	30.83809
	121.1205	30.83831
	121.1215	30.83825
	121.1228	30.83776
	121.1234	30.83764
	121.1243	30.83785
	121.1248	30.83772
	121.1254	30.83727
	121.1258	30.83711
	121.1272	30.83906
	121.1275	30.83794
	121.1283	30.83716
	121.1295	30.83623
	121.1301	30.83536
	121.1288	30.83366
	121.1299	30.83194
	121.1297	30.83044
	121.1317	30.8301
	121.132	30.83037
	121.1313	30.83157
	121.1325	30.83299
	121.133	30.83269
	121.1329	30.83015
	121.1335	30.82883
	121.1335	30.82841
	121.1331	30.82704
	121.1323	30.82689
	121.1296	30.82288
	121.1279	30.82118
	121.127	30.81864
	121.1255	30.81745
	121.1246	30.81329
	121.1235	30.81215
	121.1236	30.80958
	121.1227	30.80558
	121.1225	30.80257
	121.1221	30.80065
	121.1221	30.79816
	121.1219	30.79654
	121.1214	30.79491
	121.1216	30.7938
	121.122	30.79183
	121.122	30.7913
	121.1215	30.7905
	121.1205	30.79022
	121.1205	30.78984
	121.1208	30.7887
	121.121	30.78707
	121.1201	30.78561
	121.1198	30.78538
	121.1195	30.78522
	121.1173	30.78419
	121.1173	30.78417
	121.1166	30.78389
	121.1178	30.78226
	121.1182	30.78111
	121.1224	30.78093
	121.125	30.78021
	121.1278	30.7793
	121.1285	30.77965
	121.1291	30.77939
	121.1306	30.77963
	121.1312	30.77966
	121.1315	30.77958
	121.1319	30.77914
	121.1322	30.77894
	121.1329	30.77888
	121.1336	30.77871
	121.1356	30.77878
	121.1384	30.77871
	121.1384	30.77922
	121.1386	30.78052
	121.1392	30.78165
	121.1405	30.78153
	121.1427	30.78162
	121.1463	30.7812
	121.1475	30.7812
	121.1484	30.78093
	121.1501	30.77981
	121.1508	30.77952
	121.1511	30.77941
	121.1516	30.77939
	121.1529	30.77977
	121.1532	30.77973
	121.1544	30.77905
	121.1562	30.77884
	121.1563	30.77677
	121.1562	30.77532
	121.1565	30.77539
	121.1589	30.77747
	121.161	30.7774
	121.162	30.77771
	121.1646	30.77816
	121.1649	30.7778
	121.1654	30.77773
	121.1657	30.77732
	121.1664	30.77708
	121.1673	30.77682
	121.1677	30.77712
	121.1695	30.77598
	121.1699	30.77543
	121.1698	30.77449
	121.1716	30.77514
	121.1726	30.77558
	121.1728	30.77575
	121.1737	30.77602
	121.1742	30.77608
	121.1748	30.77623
	121.1753	30.77647
	121.1761	30.7765
	121.177	30.77675
	121.1779	30.77728
	121.1783	30.77746
	121.1785	30.77735
	121.1789	30.7772
	121.1804	30.77803
	121.1807	30.77821
	121.1814	30.77903
	121.1816	30.77969
	121.1816	30.78058
	121.1817	30.78106
	121.182	30.78135
	121.1824	30.78161
	121.1829	30.78171
	121.1833	30.78175
	121.1838	30.78148
	121.1847	30.78109
	121.1853	30.78122
	121.1857	30.78253
	121.1863	30.78321
	121.1865	30.78308
	121.1867	30.78213
	121.1871	30.7814
	121.1878	30.78052
	121.1886	30.77933
	121.1893	30.77858
	121.1925	30.77555
	121.1932	30.77585
	121.1936	30.77609
	121.196	30.7759
	121.1964	30.77592
	121.1965	30.77599
	121.196	30.77755
	121.1957	30.77821
	121.1959	30.77869
	121.1954	30.77945
	121.195	30.78042
	121.1949	30.78142
	121.1948	30.78298
	121.1943	30.78378
	121.1955	30.78418
	121.1951	30.78495
	121.195	30.78542
	121.1973	30.78659
	121.1991	30.78772
	121.1993	30.78796
	121.1999	30.78809
	121.2013	30.78829
	121.2048	30.78825
	121.2063	30.78792
	121.2068	30.78788
	121.2075	30.78832
	121.2083	30.78828
	121.2103	30.78832
	121.2121	30.78821
	121.213	30.78792
	121.216	30.78261
	121.2162	30.78221
	121.2167	30.7814
	121.2172	30.78035
	121.2177	30.77921
	121.2184	30.7781
	121.2194	30.77866
	121.2202	30.77933
	121.2204	30.77923
	121.2211	30.77835
	121.2216	30.77721
	121.222	30.77547
	121.2232	30.77523
	121.2235	30.77502
	121.2238	30.77438
	121.222	30.77344
	121.2224	30.773
	121.2236	30.77183
	121.2244	30.77069
	121.2253	30.76858
	121.2263	30.76573
	121.2264	30.76387
	121.2266	30.76202
	121.2273	30.76016
	121.2275	30.75885
	121.2275	30.75834
	121.228	30.75801
	121.2308	30.75681
	121.2322	30.75608
	121.2315	30.75542
	121.2319	30.75521
	121.2326	30.75587
	121.2348	30.75478
	121.234	30.75412
	121.2348	30.75375
	121.2354	30.75456
	121.2401	30.75243
	121.2435	30.75026
	121.2463	30.74912
	121.2515	30.7465
	121.2534	30.74484
	121.2548	30.74273
	121.2573	30.74019
	121.259	30.739
	121.2619	30.73591
	121.2624	30.73627
	121.262	30.73713
	121.2636	30.73754
	121.2641	30.73704
	121.2652	30.73506
	121.2663	30.73538
	121.2668	30.73476
	121.2646	30.73382
	121.2652	30.73195
	121.2661	30.73035
	121.2668	30.72889
	121.2654	30.72824
	121.266	30.7273
	121.268	30.72542
	121.2662	30.72309
	121.2652	30.7223
	121.2646	30.72178
	121.265	30.721
	121.2652	30.72041
	121.2654	30.72009
	121.2654	30.7196
	121.2635	30.71856
	121.262	30.71782
	121.2623	30.71677
	121.2637	30.71475
	121.2627	30.71441
	121.2626	30.71391
	121.2615	30.71347
	121.262	30.71253
	121.2608	30.71207
	121.2619	30.71069
	121.2616	30.70974
	121.2622	30.7082
	121.2632	30.70857
	121.2632	30.70833
	121.2631	30.70658
	121.2635	30.70557
	121.2638	30.70487
	121.2649	30.7049
	121.2653	30.7045
	121.2668	30.70491
	121.2671	30.70426
	121.2671	30.70395
	121.2669	30.70356
	121.2657	30.70304
	121.2661	30.70178
	121.2653	30.70066
	121.2672	30.69911
	121.2681	30.69217
	121.2684	30.69088
	121.5345	30.66144
	121.6219	30.67977
	121.9179	30.7701
	122.0753	30.84411
	122.1697	30.91039
	122.8904	30.88566
	122.8972	30.42722
	122.8979	30.25587
	123.1874	30.16511
	123.1636	30.10425
	123.1544	30.08417
	122.4823	28.80519
	122.4661	28.77921
	122.1073	28.2897
	122.0926	28.27078
	121.3212	27.35827
	121.0337	26.8591
	120.8971	26.93478
	120.75	27.03307
	120.604	27.05375
	120.5057	27.10359
	120.4641	27.14997
	120.4346	27.1714
	120.4333	27.17287
	120.4307	27.17216
	120.43	27.1749
	120.4301	27.17509
	120.4304	27.1761
	120.4305	27.1762
	120.4261	27.18125
	120.4258	27.18119
	120.425	27.1813
	120.425	27.18134
	120.4238	27.18126
	120.4235	27.18145
	120.4227	27.18248
	120.4227	27.18261
	120.4226	27.18269
	120.4212	27.18292
	120.4208	27.18321
	120.42	27.18444
	120.4199	27.18448
	120.4188	27.18459
	120.4183	27.18481
	120.417	27.18624
	120.417	27.18654
	120.4169	27.18662
	120.4174	27.18842
	120.4178	27.18885
	120.4184	27.18936
	120.4183	27.18971
	120.4184	27.1902
	120.4075	27.20287
	120.4107	27.22659
	120.4001	27.24472
	120.4225	27.26244
	120.3524	27.34696
	120.3465	27.39596
	120.3241	27.39843
	120.3176	27.40999
	120.2739	27.39567
	120.2566	27.43109
	120.2436	27.43469
	120.1345	27.42222
	120.1223	27.40103
	120.1039	27.39623
	120.0578	27.35469
	120.0319	27.3444
	119.9984	27.38215
	119.9655	27.37166
	119.9367	27.34247
	119.9363	27.31878
	119.926	27.31995
	119.9169	27.31965
	119.9167	27.3179
	119.9145	27.3164
	119.9096	27.32129
	119.9005	27.32226
	119.8953	27.31935
	119.8944	27.31497
	119.8873	27.31363
	119.8827	27.31705
	119.8809	27.31088
	119.875	27.31423
	119.8741	27.30494
	119.8715	27.3036
	119.8692	27.30569
	119.8693	27.31068
	119.8609	27.30952
	119.8593	27.31226
	119.8617	27.31347
	119.8672	27.31609
	119.8676	27.31883
	119.8601	27.31914
	119.8546	27.32093
	119.8516	27.31807
	119.8452	27.32481
	119.8417	27.3276
	119.8372	27.32527
	119.8304	27.31593
	119.8351	27.31078
	119.8403	27.31
	119.8366	27.30243
	119.8298	27.30474
	119.8228	27.30358
	119.8217	27.3059
	119.8175	27.30561
	119.8161	27.29896
	119.8085	27.30138
	119.8054	27.30789
	119.7883	27.31394
	119.7855	27.30611
	119.7762	27.30675
	119.7681	27.31
	119.7659	27.30877
	119.7638	27.31262
	119.7671	27.31538
	119.765	27.32771
	119.7671	27.33069
	119.772	27.32703
	119.7733	27.32347
	119.7812	27.32804
	119.7773	27.33394
	119.7726	27.33537
	119.7702	27.3342
	119.7655	27.3369
	119.763	27.34329
	119.7644	27.34611
	119.7645	27.34903
	119.7619	27.35073
	119.7543	27.3501
	119.751	27.35297
	119.7461	27.35329
	119.7434	27.3628
	119.7352	27.36649
	119.7403	27.3721
	119.7463	27.37604
	119.7458	27.38024
	119.7424	27.38167
	119.7367	27.3788
	119.7287	27.39356
	119.7046	27.40484
	119.6808	27.43424
	119.7022	27.45979
	119.7	27.51083
	119.6874	27.5337
	119.6588	27.53683
	119.6626	27.57117
	119.6251	27.59659
	119.6224	27.62284
	119.642	27.63628
	119.6332	27.67396
	119.5511	27.6798
	119.5378	27.6709
	119.5333	27.64795
	119.4892	27.66033
	119.4915	27.62344
	119.4616	27.52954
	119.4335	27.51182
	119.4116	27.54268
	119.3718	27.53802
	119.3342	27.50656
	119.3354	27.48696
	119.2801	27.46084
	119.2612	27.4327
	119.2203	27.42369
	119.1265	27.43751
	119.1194	27.44272
	119.1266	27.4761
	119.1191	27.48708
	119.0858	27.47256
	119.0529	27.47409
	119.0064	27.50001
	118.9812	27.47929
	118.9532	27.48169
	118.9514	27.46249
	118.9114	27.46161
	118.8983	27.47103
	118.8767	27.51925
	118.8547	27.52568
	118.8943	27.54336
	118.9043	27.57638
	118.8965	27.65052
	118.8674	27.69843
	118.8707	27.70997
	118.8914	27.71739
	118.8629	27.74759
	118.8284	27.84492
	118.8262	27.85835
	118.8262	27.88201
	118.8148	27.90572
	118.803	27.92453
	118.7917	27.93729
	118.7439	27.95513
	118.7229	27.97871
	118.7256	28.03805
	118.7124	28.0628
	118.7487	28.10039
	118.7925	28.12329
	118.8	28.1469
	118.7917	28.17417
	118.7611	28.17785
	118.8008	28.22413
	118.8027	28.24109
	118.7679	28.25119
	118.7316	28.27456
	118.7194	28.30826
	118.6937	28.31008
	118.6696	28.28028
	118.6034	28.2573
	118.5755	28.28923
	118.5749	28.28896
	118.573	28.28809
	118.5718	28.28775
	118.5631	28.28773
	118.551	28.28361
	118.5463	28.28721
	118.5417	28.2886
	118.5422	28.28034
	118.542	28.27717
	118.5339	28.2748
	118.5207	28.27256
	118.5184	28.27244
	118.5106	28.27309
	118.5071	28.27641
	118.5032	28.28201
	118.4994	28.28276
	118.4965	28.28017
	118.4952	28.27925
	118.4927	28.27913
	118.4915	28.27188
	118.4896	28.26432
	118.4925	28.26278
	118.493	28.26032
	118.4956	28.2604
	118.496	28.25645
	118.4997	28.25584
	118.498	28.25328
	118.498	28.25071
	118.4937	28.24905
	118.49	28.24542
	118.4884	28.24133
	118.4862	28.24162
	118.4822	28.24458
	118.4766	28.24965
	118.4718	28.24765
	118.4656	28.24914
	118.459	28.24582
	118.4494	28.25005
	118.4487	28.25044
	118.4479	28.25108
	118.4466	28.25123
	118.446	28.25142
	118.4457	28.25157
	118.4453	28.2523
	118.445	28.25257
	118.4443	28.25352
	118.4442	28.25401
	118.4438	28.25422
	118.4431	28.25416
	118.4428	28.25398
	118.4424	28.25392
	118.442	28.254
	118.4397	28.2539
	118.439	28.25598
	118.4394	28.25805
	118.4405	28.26039
	118.4436	28.26114
	118.4449	28.26292
	118.4447	28.26425
	118.4436	28.26499
	118.4418	28.2646
	118.4358	28.26504
	118.4348	28.26611
	118.436	28.26839
	118.4372	28.26956
	118.4367	28.27164
	118.4344	28.27301
	118.4323	28.27323
	118.4312	28.27287
	118.4301	28.27238
	118.4282	28.27966
	118.4249	28.28255
	118.4267	28.2865
	118.4275	28.29165
	118.4492	28.29958
	118.4569	28.30542
	118.4645	28.31893
	118.4822	28.33354
	118.4775	28.34193
	118.4742	28.34787
	118.4598	28.36234
	118.4536	28.38063
	118.4533	28.38167
	118.449	28.38723
	118.4361	28.39423
	118.4342	28.3953
	118.4346	28.40754
	118.4357	28.41274
	118.4361	28.41435
	118.4503	28.43187
	118.4594	28.44849
	118.4674	28.47345
	118.4166	28.49694
	118.4314	28.52058
	118.4286	28.52491
	118.4236	28.53294
	118.409	28.59067
	118.4311	28.61869
	118.4123	28.63786
	118.4259	28.65148
	118.4352	28.66509
	118.439	28.67536
	118.4269	28.68206
	118.4006	28.69861
	118.3961	28.70509
	118.3908	28.71452
	118.3872	28.73924
	118.3805	28.78406
	118.371	28.79728
	118.3709	28.79719
	118.3707	28.79707
	118.3704	28.79685
	118.3703	28.79675
	118.3692	28.79613
	118.3692	28.79609
	118.362	28.79221
	118.3618	28.79211
	118.361	28.79178
	118.3585	28.79275
	118.3592	28.79536
	118.36	28.79579
	118.36	28.79583
	118.3679	28.80009
	118.3682	28.80028
	118.3685	28.8005
	118.3685	28.80061
	118.3603	28.81196
	118.2968	28.83606
	118.2812	28.86636
	118.2817	28.87449
	118.2791	28.87953
	118.2775	28.88277
	118.2717	28.90006
	118.2672	28.9175
	118.2507	28.92621
	118.2314	28.91971
	118.2031	28.90847
	118.2025	28.90826
	118.1909	28.90718
	118.188	28.9114
	118.1887	28.91491
	118.1936	28.92025
	118.2029	28.92545
	118.2194	28.94194
	118.1923	28.96745
	118.191	28.96865
	118.183	28.98055
	118.1809	28.98078
	118.1772	28.98116
	118.0965	28.99362
	118.0954	28.9953
	118.0871	29.00837
	118.0823	29.0192
	118.0735	29.02988
	118.0646	29.04559
	118.0606	29.05596
	118.0642	29.05939
	118.0718	29.06679
	118.0687	29.07899
	118.0544	29.08877
	118.0403	29.09832
	118.0487	29.1168
	118.0333	29.13154
	118.039	29.14215
	118.0394	29.1517
	118.0401	29.16178
	118.0283	29.17895
	118.0346	29.21016
	118.0399	29.21411
	118.0455	29.21833
	118.0666	29.21881
END
END
