Denmark_Region of Southern Denmark
1
	10.16938	54.73818
	10.08683	54.76396
	10.05155	54.76608
	9.894307	54.8418
	9.82046	54.83306
	9.740897	54.82344
	9.739948	54.82331
	9.732809	54.825
	9.650332	54.84407
	9.625941	54.84969
	9.604632	54.85452
	9.628013	54.87979
	9.591819	54.88699
	9.584342	54.88609
	9.497759	54.84123
	9.482927	54.83707
	9.462954	54.83166
	9.460112	54.83331
	9.44938	54.83269
	9.437772	54.82801
	9.435137	54.82705
	9.428693	54.82713
	9.421056	54.83148
	9.420409	54.83198
	9.419834	54.83238
	9.41969	54.83245
	9.419493	54.83249
	9.419355	54.83249
	9.419059	54.83241
	9.418782	54.83237
	9.418373	54.83235
	9.418231	54.83227
	9.418167	54.83217
	9.417993	54.83218
	9.417888	54.83227
	9.417735	54.83255
	9.417538	54.83277
	9.417363	54.83288
	9.417158	54.8329
	9.417084	54.83296
	9.417087	54.83305
	9.417035	54.83312
	9.416935	54.83318
	9.416742	54.83321
	9.41661	54.83327
	9.416458	54.83353
	9.416229	54.8338
	9.416244	54.83398
	9.416194	54.83425
	9.416213	54.83449
	9.416185	54.83467
	9.416298	54.83513
	9.41643	54.8355
	9.416467	54.83585
	9.418453	54.83648
	9.418302	54.83668
	9.418069	54.83682
	9.418038	54.83695
	9.41795	54.83708
	9.418087	54.83804
	9.417154	54.83875
	9.416694	54.83845
	9.416224	54.83896
	9.415849	54.83928
	9.415187	54.83973
	9.414981	54.83979
	9.414361	54.84025
	9.413843	54.84051
	9.413734	54.84069
	9.41273	54.84109
	9.411618	54.84178
	9.411191	54.84216
	9.408295	54.84261
	9.407455	54.8424
	9.407051	54.84215
	9.406985	54.84217
	9.404362	54.83945
	9.403652	54.83885
	9.403	54.83969
	9.402667	54.84046
	9.402396	54.84042
	9.399737	54.83981
	9.39781	54.83915
	9.397509	54.83929
	9.397065	54.83927
	9.396506	54.83906
	9.395404	54.8387
	9.393152	54.83857
	9.390698	54.83836
	9.389583	54.83833
	9.388309	54.83841
	9.387841	54.83838
	9.387491	54.83839
	9.386438	54.83863
	9.385956	54.83862
	9.385193	54.83878
	9.384027	54.83899
	9.383186	54.83909
	9.382836	54.83919
	9.381342	54.83798
	9.380885	54.83746
	9.381514	54.83547
	9.381101	54.83539
	9.380672	54.83505
	9.380339	54.83436
	9.379859	54.83386
	9.378889	54.83307
	9.377702	54.83332
	9.377285	54.83351
	9.376974	54.83353
	9.376482	54.8338
	9.37595	54.83381
	9.375805	54.83379
	9.375921	54.83334
	9.37475	54.83332
	9.374744	54.83203
	9.374523	54.83164
	9.374221	54.83128
	9.374638	54.83091
	9.376218	54.8292
	9.376203	54.82913
	9.375696	54.82873
	9.374957	54.8269
	9.375481	54.82597
	9.37487	54.82554
	9.373921	54.82447
	9.374189	54.82345
	9.373234	54.82239
	9.372731	54.82187
	9.373862	54.82113
	9.370938	54.81957
	9.370912	54.81924
	9.370751	54.8192
	9.370709	54.81908
	9.370558	54.81906
	9.370349	54.81913
	9.369914	54.81911
	9.369671	54.81924
	9.369563	54.81927
	9.369174	54.81916
	9.36895	54.8192
	9.368861	54.81926
	9.367838	54.81913
	9.367584	54.81896
	9.36721	54.81894
	9.367064	54.81852
	9.366988	54.81839
	9.366591	54.81842
	9.365908	54.81844
	9.36574	54.81839
	9.365933	54.81821
	9.365941	54.81812
	9.365993	54.81796
	9.365484	54.81787
	9.365085	54.81776
	9.365106	54.81767
	9.364881	54.81752
	9.363902	54.81729
	9.362777	54.81655
	9.363446	54.8153
	9.362752	54.81518
	9.362291	54.81599
	9.361617	54.81599
	9.360864	54.81624
	9.356571	54.81535
	9.354649	54.81423
	9.35403	54.81351
	9.350342	54.81008
	9.346443	54.80669
	9.343252	54.80713
	9.342046	54.80362
	9.34543	54.80214
	9.345186	54.80197
	9.343696	54.80023
	9.33677	54.80229
	9.330417	54.80421
	9.329458	54.80561
	9.322732	54.80632
	9.315239	54.80701
	9.307768	54.80771
	9.300297	54.80839
	9.293521	54.8089
	9.292066	54.80616
	9.292961	54.80542
	9.295559	54.80316
	9.294939	54.80167
	9.293744	54.80209
	9.286385	54.80429
	9.285351	54.80665
	9.284246	54.80966
	9.281241	54.80981
	9.275346	54.8113
	9.273329	54.81179
	9.270495	54.81214
	9.26659	54.81124
	9.265718	54.81087
	9.264525	54.81071
	9.258069	54.81057
	9.257275	54.81047
	9.253373	54.81003
	9.250108	54.80968
	9.249699	54.81037
	9.24832	54.81302
	9.247296	54.8149
	9.246004	54.81721
	9.244433	54.81913
	9.242622	54.82129
	9.241606	54.82254
	9.239889	54.82482
	9.238484	54.82663
	9.237409	54.82841
	9.237407	54.82849
	9.235855	54.83106
	9.235317	54.83519
	9.235405	54.83539
	9.235447	54.83542
	9.238369	54.83866
	9.238738	54.83898
	9.240879	54.84073
	9.242609	54.84199
	9.244899	54.84379
	9.240303	54.84996
	9.239093	54.8502
	9.227511	54.8527
	9.223528	54.85358
	9.213699	54.85648
	9.20842	54.85807
	9.205189	54.859
	9.204458	54.85911
	9.203719	54.8591
	9.201645	54.85901
	9.19593	54.85901
	9.194617	54.8592
	9.191833	54.86027
	9.188188	54.86093
	9.1878	54.8611
	9.187648	54.8612
	9.186255	54.86305
	9.18608	54.86316
	9.18582	54.86327
	9.172724	54.8661
	9.163967	54.86815
	9.161992	54.8686
	9.160295	54.86884
	9.159919	54.86894
	9.155455	54.87062
	9.154883	54.87081
	9.153894	54.87102
	9.153041	54.87122
	9.152485	54.87129
	9.151483	54.87138
	9.150997	54.8715
	9.149344	54.87194
	9.148606	54.87208
	9.143029	54.87301
	9.142355	54.87304
	9.141925	54.87303
	9.137562	54.87361
	9.136521	54.87372
	9.136033	54.87372
	9.130081	54.87318
	9.123826	54.87264
	9.123231	54.87262
	9.122113	54.87268
	9.118608	54.8729
	9.11766	54.87298
	9.115495	54.87329
	9.112004	54.87387
	9.111038	54.87402
	9.11041	54.87402
	9.109725	54.87388
	9.099225	54.87192
	9.098715	54.87192
	9.096234	54.872
	9.095585	54.87199
	9.093697	54.87121
	9.092384	54.87052
	9.091584	54.87029
	9.090602	54.87018
	9.085824	54.87067
	9.079012	54.87163
	9.078712	54.87166
	9.076102	54.87186
	9.071701	54.87117
	9.068212	54.8714
	9.063522	54.87113
	9.062985	54.87121
	9.062612	54.87129
	9.058241	54.87285
	9.057712	54.87294
	9.05727	54.87296
	9.048616	54.87195
	9.048087	54.87198
	9.047679	54.87205
	9.029127	54.87823
	9.028931	54.87845
	9.028965	54.8786
	9.029841	54.88007
	9.029841	54.88023
	9.029685	54.88038
	9.026899	54.88147
	9.01451	54.88652
	8.999961	54.88918
	8.992093	54.89064
	8.983991	54.8922
	8.977551	54.89579
	8.973093	54.89674
	8.967643	54.89792
	8.96682	54.89811
	8.96554	54.89828
	8.964824	54.8986
	8.96346	54.89945
	8.963317	54.8996
	8.963167	54.89964
	8.962941	54.89963
	8.962613	54.89967
	8.961661	54.9
	8.961355	54.90007
	8.960832	54.90016
	8.959528	54.90057
	8.959076	54.90067
	8.958121	54.90077
	8.957869	54.90086
	8.957544	54.90103
	8.957093	54.90122
	8.95664	54.90129
	8.956363	54.90127
	8.955961	54.90102
	8.955759	54.90093
	8.955533	54.90093
	8.955282	54.90114
	8.955108	54.90135
	8.954808	54.9015
	8.954457	54.90157
	8.953953	54.90161
	8.952923	54.90154
	8.952395	54.9017
	8.951768	54.90173
	8.950613	54.90205
	8.948153	54.90252
	8.947878	54.90255
	8.946895	54.90253
	8.945992	54.90248
	8.945289	54.90246
	8.944209	54.90255
	8.943429	54.90252
	8.94255	54.90257
	8.941998	54.90254
	8.941419	54.90254
	8.941169	54.90251
	8.940943	54.90244
	8.940492	54.9024
	8.939938	54.90243
	8.938859	54.90241
	8.938103	54.90249
	8.936295	54.90262
	8.935342	54.90274
	8.934513	54.90278
	8.933936	54.90277
	8.932931	54.90281
	8.925373	54.90338
	8.923965	54.90347
	8.923412	54.90347
	8.92316	54.90344
	8.922884	54.90335
	8.922482	54.9032
	8.921778	54.90283
	8.921151	54.90257
	8.920848	54.90256
	8.920546	54.90259
	8.919843	54.90272
	8.919317	54.90268
	8.919115	54.90269
	8.918789	54.90281
	8.918387	54.90291
	8.918109	54.90291
	8.917934	54.90285
	8.917682	54.9027
	8.917532	54.90265
	8.917257	54.90278
	8.917056	54.90301
	8.91693	54.90307
	8.916729	54.90309
	8.916478	54.903
	8.916024	54.90265
	8.915547	54.90241
	8.915271	54.90235
	8.91502	54.90237
	8.914744	54.90243
	8.914491	54.90241
	8.913537	54.90211
	8.913059	54.90204
	8.912908	54.90217
	8.912883	54.90233
	8.913137	54.90282
	8.913164	54.90309
	8.91301	54.90325
	8.91276	54.90331
	8.912509	54.90332
	8.911855	54.9033
	8.91168	54.90332
	8.910854	54.90376
	8.910502	54.90387
	8.910149	54.90386
	8.903946	54.90388
	8.902967	54.90431
	8.902416	54.90443
	8.901636	54.90447
	8.899998	54.90441
	8.896886	54.90406
	8.894977	54.90405
	8.894626	54.90406
	8.894325	54.90417
	8.893396	54.90463
	8.892619	54.90485
	8.892092	54.90495
	8.89184	54.90495
	8.891362	54.90479
	8.890333	54.9043
	8.889528	54.90407
	8.889024	54.90404
	8.888798	54.904
	8.887037	54.90259
	8.886659	54.90253
	8.883846	54.90227
	8.883014	54.90216
	8.882236	54.90214
	8.881633	54.90216
	8.881232	54.90212
	8.880752	54.902
	8.880277	54.90199
	8.879549	54.9021
	8.87892	54.90218
	8.877967	54.90216
	8.877289	54.90211
	8.877086	54.90203
	8.876684	54.90172
	8.876306	54.90153
	8.875677	54.90134
	8.875025	54.90107
	8.874647	54.90078
	8.87364	54.90014
	8.873449	54.9
	8.873288	54.89987
	8.873162	54.89966
	8.872961	54.89948
	8.872532	54.8993
	8.872306	54.89925
	8.872056	54.89925
	8.870322	54.89963
	8.869217	54.89972
	8.868213	54.89975
	8.867009	54.89985
	8.866179	54.89988
	8.865601	54.89985
	8.86535	54.89974
	8.865099	54.89951
	8.864644	54.89894
	8.864393	54.8988
	8.862934	54.89841
	8.862574	54.8982
	8.86236	54.89785
	8.862101	54.89767
	8.861583	54.89751
	8.860545	54.89729
	8.860238	54.89698
	8.859834	54.89676
	8.859475	54.8968
	8.854767	54.89697
	8.850676	54.89722
	8.850592	54.89768
	8.850359	54.898
	8.850049	54.89834
	8.849632	54.89871
	8.849488	54.89882
	8.848685	54.89939
	8.848418	54.89955
	8.846893	54.90028
	8.845974	54.90077
	8.844749	54.90155
	8.842791	54.90288
	8.841927	54.90359
	8.838827	54.90635
	8.838578	54.90654
	8.838386	54.90666
	8.837988	54.90686
	8.837597	54.90699
	8.837423	54.90703
	8.837059	54.90708
	8.83683	54.90709
	8.836443	54.90708
	8.836027	54.90702
	8.835709	54.90694
	8.835449	54.90685
	8.834173	54.90632
	8.833898	54.90632
	8.833464	54.90647
	8.832988	54.90671
	8.832926	54.90671
	8.832884	54.90667
	8.832786	54.90637
	8.832166	54.9064
	8.831765	54.90639
	8.831537	54.90614
	8.830889	54.90608
	8.829446	54.90568
	8.829019	54.90587
	8.829264	54.9063
	8.824295	54.90682
	8.823994	54.90682
	8.823821	54.90673
	8.822856	54.90573
	8.822159	54.90562
	8.82114	54.90519
	8.819948	54.90461
	8.818532	54.90397
	8.817808	54.904
	8.814213	54.90402
	8.813612	54.90419
	8.812212	54.90467
	8.811962	54.9047
	8.811637	54.90464
	8.81115	54.90581
	8.811001	54.90591
	8.802102	54.90499
	8.801954	54.90488
	8.799185	54.90456
	8.798761	54.90466
	8.798856	54.90251
	8.795392	54.90203
	8.793575	54.90152
	8.793326	54.90152
	8.792853	54.9013
	8.792731	54.90109
	8.790522	54.89979
	8.78948	54.89933
	8.786991	54.89844
	8.786567	54.89837
	8.782331	54.89798
	8.781376	54.89788
	8.78118	54.8978
	8.781117	54.8977
	8.781074	54.89722
	8.778909	54.89604
	8.777567	54.89551
	8.777329	54.89545
	8.777068	54.89542
	8.776698	54.89544
	8.776438	54.89549
	8.776991	54.89265
	8.759563	54.89451
	8.755127	54.89684
	8.750495	54.89718
	8.750327	54.89676
	8.750236	54.89631
	8.750096	54.89575
	8.74974	54.89569
	8.745356	54.89477
	8.738238	54.89322
	8.735045	54.89303
	8.727911	54.89275
	8.724316	54.89377
	8.717569	54.89595
	8.717722	54.89662
	8.717739	54.89691
	8.717242	54.89835
	8.717051	54.89856
	8.716019	54.89919
	8.710993	54.90039
	8.70902	54.90228
	8.708186	54.90276
	8.701719	54.9046
	8.701596	54.90467
	8.700857	54.90522
	8.700305	54.90551
	8.697817	54.90636
	8.697589	54.90655
	8.697191	54.90685
	8.696911	54.90702
	8.69668	54.90714
	8.696447	54.90724
	8.692434	54.9087
	8.687696	54.91068
	8.687217	54.91083
	8.680863	54.91243
	8.680187	54.91254
	8.679515	54.91259
	8.677388	54.91284
	8.676915	54.91284
	8.675906	54.91278
	8.675106	54.91284
	8.674505	54.9129
	8.670511	54.91332
	8.669899	54.91333
	8.66959	54.9133
	8.669589	54.91331
	8.668814	54.9133
	8.668386	54.91327
	8.668108	54.91323
	8.667727	54.91313
	8.659853	54.9107
	8.638899	54.91315
	8.636818	54.9115
	8.623166	54.91269
	8.555431	54.92084
	8.557248	54.99282
	8.519182	54.99264
	8.501565	55.00001
	8.472164	55.02534
	8.477877	55.04663
	8.472381	55.05472
	8.395479	55.06928
	8.388323	55.06842
	8.386344	55.06476
	8.365234	55.06346
	8.346845	55.06529
	8.340622	55.06896
	8.335314	55.07779
	8.329204	55.08362
	8.31865	55.08501
	8.312261	55.08473
	8.305592	55.08279
	8.290037	55.07473
	8.290037	55.06476
	8.044381	55.09916
	7.77988	55.80972
	8.171181	55.81566
	8.172796	55.81586
	8.176019	55.81698
	8.175826	55.81763
	8.17629	55.81849
	8.177487	55.81945
	8.17837	55.81971
	8.178478	55.81975
	8.179878	55.82049
	8.180304	55.82066
	8.180525	55.82073
	8.180731	55.82078
	8.181188	55.82085
	8.181551	55.82086
	8.182021	55.82083
	8.182193	55.82087
	8.184604	55.81939
	8.184292	55.81889
	8.186115	55.81867
	8.186587	55.8185
	8.187313	55.81864
	8.188067	55.81864
	8.188855	55.81822
	8.189676	55.81765
	8.190263	55.81769
	8.190294	55.81799
	8.189778	55.81889
	8.189606	55.81912
	8.189687	55.81918
	8.189746	55.81925
	8.189687	55.81933
	8.189425	55.81948
	8.189234	55.81967
	8.189032	55.81988
	8.188889	55.82013
	8.188739	55.82024
	8.188515	55.82045
	8.187759	55.8213
	8.187579	55.82137
	8.187375	55.82143
	8.187202	55.82141
	8.187045	55.8213
	8.18699	55.8211
	8.187004	55.82093
	8.187116	55.82078
	8.187069	55.8207
	8.18695	55.8207
	8.186185	55.82104
	8.185906	55.8212
	8.185738	55.82139
	8.185079	55.82178
	8.184817	55.82203
	8.184711	55.82223
	8.185508	55.82237
	8.18656	55.82197
	8.185862	55.82278
	8.185701	55.82291
	8.185401	55.82299
	8.184426	55.8235
	8.183966	55.82376
	8.183152	55.82391
	8.182543	55.82412
	8.181899	55.82392
	8.181577	55.82415
	8.18132	55.82428
	8.180942	55.8244
	8.180574	55.82442
	8.180055	55.82447
	8.17969	55.82462
	8.179752	55.82479
	8.179455	55.8252
	8.17935	55.82553
	8.179692	55.82566
	8.179846	55.8253
	8.180142	55.82567
	8.180857	55.82621
	8.181142	55.8267
	8.180948	55.82678
	8.180761	55.82679
	8.180273	55.82634
	8.180032	55.82628
	8.179554	55.82587
	8.179479	55.82645
	8.17965	55.82685
	8.179768	55.82737
	8.17994	55.82784
	8.17994	55.82816
	8.180219	55.82885
	8.180208	55.82937
	8.179977	55.82962
	8.180315	55.83029
	8.180262	55.83067
	8.1811	55.83066
	8.185281	55.83133
	8.191638	55.83216
	8.195712	55.83232
	8.198703	55.83219
	8.204788	55.83242
	8.220178	55.82786
	8.229096	55.82535
	8.226135	55.82122
	8.224275	55.8197
	8.223645	55.81675
	8.224056	55.81437
	8.226313	55.81241
	8.230349	55.81195
	8.234316	55.81179
	8.239651	55.81256
	8.242182	55.81279
	8.261813	55.80434
	8.266464	55.80126
	8.268369	55.80068
	8.268421	55.79928
	8.270991	55.79723
	8.277301	55.79739
	8.278075	55.79797
	8.279195	55.79726
	8.280978	55.79824
	8.281491	55.79897
	8.280882	55.79915
	8.281799	55.80082
	8.283718	55.80087
	8.284048	55.80148
	8.286771	55.80036
	8.286913	55.80074
	8.288513	55.8005
	8.287905	55.79982
	8.292657	55.79782
	8.299304	55.79818
	8.303853	55.7974
	8.30739	55.79799
	8.313239	55.79964
	8.316365	55.79982
	8.315465	55.80046
	8.317645	55.80055
	8.318752	55.80088
	8.321075	55.80095
	8.324264	55.80076
	8.325	55.80044
	8.326722	55.80017
	8.327734	55.80032
	8.327228	55.80238
	8.327557	55.80411
	8.328939	55.80445
	8.346203	55.8186
	8.350781	55.82226
	8.354832	55.82126
	8.359288	55.81691
	8.371957	55.80896
	8.372027	55.80774
	8.373428	55.80765
	8.374157	55.80346
	8.375858	55.8038
	8.381206	55.80247
	8.382462	55.80255
	8.382604	55.8024
	8.380153	55.80156
	8.385298	55.80174
	8.403448	55.80257
	8.413388	55.80088
	8.424045	55.79904
	8.422527	55.79706
	8.418459	55.79795
	8.417428	55.79796
	8.414706	55.7974
	8.415108	55.79561
	8.414535	55.79515
	8.416311	55.79487
	8.419834	55.7951
	8.427884	55.7922
	8.428887	55.79162
	8.4284	55.79118
	8.429116	55.79075
	8.429632	55.79064
	8.430348	55.79099
	8.431517	55.79025
	8.435447	55.78936
	8.436965	55.78846
	8.440059	55.78803
	8.440689	55.78806
	8.440403	55.78762
	8.442625	55.78148
	8.44334	55.78032
	8.443829	55.7796
	8.449312	55.77638
	8.463807	55.77338
	8.468849	55.77306
	8.463349	55.77954
	8.462203	55.78084
	8.474588	55.77785
	8.475667	55.77902
	8.482568	55.77827
	8.482457	55.77791
	8.489762	55.77714
	8.492655	55.77694
	8.494746	55.77669
	8.493314	55.7791
	8.499931	55.77711
	8.499759	55.77992
	8.502538	55.77923
	8.503398	55.78039
	8.504228	55.78017
	8.504744	55.77975
	8.505088	55.77988
	8.503741	55.7812
	8.504515	55.78165
	8.504687	55.78207
	8.504515	55.78229
	8.506492	55.78294
	8.506979	55.7826
	8.508038	55.78268
	8.509426	55.78325
	8.510388	55.78469
	8.511075	55.78511
	8.511791	55.7858
	8.512885	55.78626
	8.51398	55.78753
	8.511891	55.7923
	8.51076	55.79801
	8.50857	55.7985
	8.509563	55.80245
	8.512794	55.81033
	8.518982	55.81271
	8.527261	55.81381
	8.53087	55.81453
	8.532474	55.81522
	8.534412	55.81389
	8.535053	55.81414
	8.535793	55.81356
	8.536846	55.81304
	8.537322	55.8132
	8.537383	55.81345
	8.536259	55.81369
	8.53554	55.81429
	8.534451	55.81532
	8.533649	55.81632
	8.533308	55.81784
	8.540742	55.82188
	8.541516	55.82184
	8.544738	55.82219
	8.546414	55.82236
	8.545182	55.82475
	8.545139	55.82583
	8.54418	55.82976
	8.543478	55.83138
	8.532363	55.84116
	8.556641	55.84734
	8.566625	55.84989
	8.56704	55.84945
	8.568072	55.84866
	8.56853	55.84731
	8.570005	55.84768
	8.572311	55.84611
	8.572397	55.84512
	8.574589	55.84445
	8.577955	55.84227
	8.578859	55.84192
	8.580003	55.84162
	8.579788	55.8413
	8.580633	55.84105
	8.584715	55.84093
	8.585074	55.84112
	8.585231	55.84093
	8.586535	55.84091
	8.58662	55.83964
	8.588425	55.83905
	8.590853	55.83862
	8.59235	55.83783
	8.591175	55.83538
	8.59149	55.83509
	8.592622	55.83494
	8.593997	55.83499
	8.59454	55.83692
	8.595315	55.8367
	8.595343	55.83719
	8.601832	55.83863
	8.60504	55.83978
	8.605055	55.83991
	8.606571	55.84054
	8.608722	55.84101
	8.609137	55.84103
	8.609953	55.84064
	8.61067	55.84047
	8.612474	55.84024
	8.614653	55.84017
	8.615646	55.84225
	8.618748	55.84174
	8.619464	55.84355
	8.626125	55.84244
	8.626655	55.84333
	8.625766	55.84493
	8.633385	55.84481
	8.657264	55.84432
	8.662607	55.84542
	8.663824	55.8452
	8.664411	55.84636
	8.665557	55.8461
	8.676158	55.84834
	8.681113	55.8457
	8.690136	55.84104
	8.692285	55.84015
	8.696353	55.83956
	8.70794	55.83777
	8.707826	55.83754
	8.70933	55.83571
	8.7089	55.83271
	8.70721	55.83273
	8.707253	55.83137
	8.708428	55.83125
	8.707969	55.82972
	8.70933	55.82959
	8.709043	55.82815
	8.707468	55.82818
	8.707095	55.82681
	8.708284	55.82636
	8.706881	55.82467
	8.709373	55.82381
	8.713312	55.82184
	8.715876	55.82118
	8.716406	55.82255
	8.722207	55.82135
	8.722373	55.81767
	8.722357	55.81385
	8.728479	55.81385
	8.744548	55.80641
	8.749619	55.80765
	8.758862	55.80606
	8.759101	55.80618
	8.7587	55.8065
	8.759416	55.80668
	8.759158	55.80697
	8.759187	55.80749
	8.766016	55.80754
	8.782591	55.81066
	8.782792	55.81054
	8.792621	55.8123
	8.80625	55.81509
	8.821838	55.81831
	8.82678	55.81943
	8.827285	55.81988
	8.823474	55.8207
	8.819489	55.82281
	8.819088	55.8235
	8.815048	55.82686
	8.814103	55.82723
	8.813645	55.82791
	8.812814	55.82825
	8.811725	55.82859
	8.810436	55.82925
	8.810494	55.8295
	8.807686	55.83071
	8.806712	55.83142
	8.805022	55.83161
	8.803847	55.83235
	8.802788	55.83232
	8.802558	55.83283
	8.801871	55.83277
	8.801613	55.8332
	8.800983	55.83317
	8.800725	55.83335
	8.801069	55.83362
	8.800696	55.8338
	8.800066	55.83393
	8.799178	55.83439
	8.798347	55.83484
	8.797602	55.83546
	8.796772	55.8357
	8.796227	55.83616
	8.795597	55.83649
	8.795798	55.83669
	8.79511	55.83692
	8.795568	55.83715
	8.795282	55.83732
	8.795282	55.83755
	8.794521	55.83785
	8.79511	55.83797
	8.795253	55.8379
	8.795597	55.83803
	8.795624	55.83824
	8.79728	55.83898
	8.805903	55.84245
	8.806201	55.84261
	8.807036	55.84282
	8.807826	55.84343
	8.817871	55.84597
	8.821988	55.84703
	8.821832	55.84716
	8.822451	55.84724
	8.822613	55.84743
	8.823145	55.84752
	8.822809	55.84769
	8.822907	55.84782
	8.823189	55.84778
	8.823395	55.84785
	8.823199	55.84791
	8.823585	55.84815
	8.824211	55.84912
	8.827393	55.85663
	8.834242	55.87151
	8.839566	55.88179
	8.840856	55.88151
	8.851133	55.87957
	8.851194	55.87972
	8.85259	55.87974
	8.852498	55.87996
	8.855567	55.88024
	8.855552	55.88068
	8.856821	55.88274
	8.862398	55.89105
	8.863313	55.89246
	8.864215	55.8939
	8.865109	55.89539
	8.86808	55.89539
	8.868468	55.89453
	8.869174	55.89411
	8.870064	55.89406
	8.870735	55.89386
	8.874467	55.89333
	8.875797	55.8929
	8.877398	55.89468
	8.879132	55.89373
	8.880356	55.89331
	8.881188	55.89514
	8.881151	55.89578
	8.895014	55.89458
	8.923773	55.89203
	8.924847	55.89197
	8.93057	55.89123
	8.931654	55.89129
	8.931717	55.89094
	8.932836	55.89095
	8.93259	55.8913
	8.938499	55.89184
	8.940567	55.89193
	8.941931	55.89209
	8.943171	55.89218
	8.945425	55.89151
	8.965521	55.88487
	8.966516	55.87609
	8.967498	55.87569
	8.968735	55.87395
	8.968815	55.8726
	8.967007	55.87081
	8.967584	55.86523
	8.96564	55.86161
	8.963887	55.85826
	8.9615	55.85333
	8.959209	55.84919
	8.957793	55.84542
	8.958447	55.84545
	8.958845	55.84401
	8.959288	55.8418
	8.959396	55.8417
	8.959825	55.84177
	8.959798	55.84192
	8.959944	55.84198
	8.9604	55.84205
	8.960921	55.84201
	8.961078	55.84196
	8.961248	55.84199
	8.961393	55.84215
	8.961653	55.84224
	8.961667	55.8423
	8.961344	55.84237
	8.961007	55.84234
	8.960834	55.84241
	8.960932	55.84252
	8.960861	55.84284
	8.960992	55.84289
	8.961127	55.84284
	8.961214	55.84262
	8.96149	55.84263
	8.961507	55.8429
	8.961138	55.84311
	8.9611	55.84322
	8.961279	55.84335
	8.96187	55.84345
	8.962038	55.8433
	8.962125	55.84303
	8.961884	55.84285
	8.962342	55.84253
	8.963666	55.84262
	8.963709	55.84281
	8.96385	55.8429
	8.963964	55.84287
	8.963926	55.84279
	8.963978	55.84268
	8.964154	55.84262
	8.96462	55.84257
	8.96474	55.8427
	8.964436	55.84286
	8.964317	55.84295
	8.96443	55.843
	8.965016	55.84291
	8.965483	55.84285
	8.965582	55.84277
	8.965304	55.84277
	8.965136	55.84271
	8.964944	55.84227
	8.965222	55.84202
	8.965875	55.84193
	8.96647	55.84155
	8.967086	55.84134
	8.967351	55.84149
	8.96774	55.84149
	8.967935	55.84143
	8.968016	55.84124
	8.968215	55.84118
	8.968499	55.84099
	8.968342	55.84081
	8.968483	55.84071
	8.968965	55.84085
	8.969796	55.84098
	8.970322	55.84097
	8.970609	55.84085
	8.970398	55.84072
	8.970636	55.84063
	8.970953	55.84076
	8.971125	55.84077
	8.971369	55.84066
	8.971766	55.8407
	8.971967	55.84057
	8.971837	55.84018
	8.971997	55.84009
	8.971998	55.83994
	8.972331	55.83988
	8.972366	55.84004
	8.972228	55.84026
	8.972349	55.8404
	8.973302	55.84033
	8.974008	55.84013
	8.974646	55.84009
	8.974982	55.83988
	8.974913	55.83975
	8.974399	55.83966
	8.973717	55.83946
	8.973954	55.83925
	8.974821	55.83923
	8.975842	55.83951
	8.976433	55.83929
	8.97664	55.83967
	8.976632	55.83995
	8.977046	55.84001
	8.977376	55.83998
	8.977453	55.83968
	8.977783	55.83959
	8.978258	55.83971
	8.978174	55.83895
	8.980537	55.83895
	8.980765	55.83928
	8.981979	55.83927
	8.982646	55.83933
	8.985508	55.83902
	8.987073	55.83875
	8.987602	55.8385
	8.987959	55.83844
	8.989175	55.83876
	8.990528	55.83878
	8.990894	55.83873
	8.991488	55.83902
	8.991668	55.83902
	8.991745	55.83865
	8.992014	55.83856
	8.992129	55.83897
	8.992382	55.83897
	8.993154	55.83851
	8.992796	55.8381
	8.992666	55.83767
	8.992863	55.8375
	8.993425	55.83755
	8.993625	55.83737
	8.994131	55.83739
	8.994722	55.83726
	8.994691	55.83704
	8.995182	55.83696
	8.995236	55.83666
	8.995581	55.83651
	8.996597	55.83667
	8.996526	55.83695
	8.99667	55.8371
	8.997469	55.83702
	8.997706	55.83696
	8.997445	55.83669
	8.997783	55.83663
	8.997898	55.83647
	8.997714	55.83622
	8.998053	55.8359
	8.997094	55.83536
	8.997898	55.8351
	8.99846	55.83476
	8.998964	55.83482
	8.99901	55.83437
	8.999486	55.83443
	8.999754	55.83433
	8.999785	55.83418
	8.99977	55.83399
	9.000063	55.83387
	9.000238	55.83429
	9.000276	55.83463
	8.999977	55.83466
	8.999961	55.83475
	9.000544	55.83521
	9.000606	55.83534
	9.001043	55.83539
	9.001281	55.83534
	9.001526	55.83514
	9.001695	55.83498
	9.001618	55.83484
	9.001388	55.8349
	9.001304	55.83516
	9.001089	55.83527
	9.000905	55.83507
	9.000782	55.83479
	9.000913	55.83456
	9.001703	55.83444
	9.001649	55.83416
	9.001312	55.83396
	9.000598	55.83395
	9.000432	55.8338
	9.000675	55.83374
	9.000859	55.83351
	9.00112	55.8334
	9.001273	55.83345
	9.001112	55.83366
	9.001273	55.83375
	9.00178	55.83393
	9.002102	55.83397
	9.002171	55.83379
	9.002393	55.83359
	9.002217	55.83347
	9.001687	55.83346
	9.001507	55.83334
	9.001845	55.83325
	9.002056	55.83314
	9.00196	55.83303
	9.001588	55.83298
	9.001327	55.8328
	9.001256	55.83253
	9.001403	55.83224
	9.001565	55.83222
	9.001587	55.83235
	9.001815	55.83254
	9.002205	55.83274
	9.002531	55.83275
	9.002732	55.83291
	9.002336	55.83323
	9.002488	55.83335
	9.00275	55.83327
	9.003364	55.83336
	9.003571	55.83322
	9.00427	55.8332
	9.004745	55.83288
	9.004476	55.83262
	9.005021	55.83253
	9.005067	55.8322
	9.004829	55.83198
	9.005297	55.83168
	9.005627	55.83179
	9.005289	55.83199
	9.005381	55.83227
	9.005819	55.83263
	9.006233	55.83245
	9.007035	55.8328
	9.007764	55.83259
	9.007743	55.83201
	9.009056	55.83212
	9.009225	55.83152
	9.009317	55.83089
	9.008947	55.83093
	9.008887	55.83079
	9.009507	55.83065
	9.010026	55.83077
	9.011056	55.83108
	9.01089	55.83148
	9.01125	55.83152
	9.014629	55.83567
	9.020596	55.83403
	9.024225	55.83637
	9.027074	55.83853
	9.02853	55.83959
	9.030171	55.84065
	9.04635	55.83646
	9.052237	55.84311
	9.058828	55.85067
	9.062712	55.84925
	9.063766	55.84844
	9.064059	55.84784
	9.064437	55.84772
	9.064203	55.84748
	9.065261	55.84718
	9.065478	55.84745
	9.0662	55.84754
	9.070238	55.8446
	9.070926	55.84444
	9.071301	55.84494
	9.069963	55.84559
	9.070464	55.84617
	9.070239	55.84623
	9.070358	55.84638
	9.070566	55.84633
	9.071472	55.84775
	9.072011	55.84953
	9.072312	55.85047
	9.076112	55.85644
	9.07949	55.86088
	9.083402	55.8655
	9.089342	55.87018
	9.092666	55.87373
	9.097027	55.87717
	9.097749	55.87699
	9.101605	55.87527
	9.105107	55.87448
	9.109136	55.87267
	9.111525	55.87209
	9.114103	55.87114
	9.115742	55.87021
	9.117525	55.86932
	9.118219	55.8699
	9.126302	55.87559
	9.134676	55.88171
	9.135051	55.8822
	9.137441	55.88214
	9.137633	55.88343
	9.139273	55.88396
	9.142839	55.88392
	9.143039	55.88451
	9.146955	55.88491
	9.150029	55.88359
	9.150921	55.8854
	9.151563	55.88659
	9.152253	55.88793
	9.154176	55.88998
	9.160483	55.89574
	9.16889	55.89707
	9.170923	55.89924
	9.17179	55.90101
	9.174258	55.90343
	9.179188	55.90657
	9.178851	55.90699
	9.178663	55.90694
	9.178676	55.90678
	9.178488	55.90675
	9.178463	55.90688
	9.1786	55.90713
	9.178301	55.90716
	9.17795	55.90728
	9.177926	55.90745
	9.177663	55.90757
	9.177876	55.90762
	9.178038	55.90755
	9.17845	55.90768
	9.178176	55.90787
	9.178563	55.90793
	9.1786	55.90803
	9.178038	55.90825
	9.178338	55.90837
	9.178388	55.90895
	9.178238	55.90908
	9.17765	55.90902
	9.177255	55.90924
	9.177388	55.90949
	9.177788	55.90958
	9.177938	55.9098
	9.186761	55.91233
	9.187897	55.91248
	9.195513	55.91653
	9.195938	55.91691
	9.195222	55.91859
	9.193604	55.92417
	9.193584	55.92463
	9.195016	55.93045
	9.195511	55.93134
	9.197577	55.93438
	9.202127	55.93512
	9.203237	55.93472
	9.204595	55.93561
	9.204161	55.9357
	9.209993	55.94445
	9.214903	55.9433
	9.217626	55.95391
	9.218279	55.95412
	9.218316	55.9546
	9.218616	55.95471
	9.219529	55.95475
	9.220479	55.95519
	9.221742	55.95542
	9.221941	55.95573
	9.222842	55.95582
	9.223597	55.95613
	9.224505	55.95602
	9.225414	55.95623
	9.226429	55.95652
	9.22731	55.95661
	9.228953	55.95631
	9.229774	55.95611
	9.229967	55.95597
	9.229859	55.95578
	9.229817	55.9555
	9.23003	55.95547
	9.230526	55.95532
	9.231073	55.95533
	9.23143	55.95517
	9.231818	55.95502
	9.231968	55.95513
	9.233318	55.95554
	9.233993	55.95573
	9.234414	55.95567
	9.235382	55.95528
	9.236121	55.95526
	9.236682	55.9552
	9.237624	55.95446
	9.238108	55.9543
	9.238771	55.95467
	9.239841	55.95447
	9.239518	55.95409
	9.239765	55.9537
	9.239714	55.95313
	9.240147	55.9527
	9.241013	55.95266
	9.242262	55.95267
	9.243681	55.95316
	9.244244	55.95316
	9.244844	55.95276
	9.245881	55.95257
	9.24935	55.95333
	9.251348	55.95335
	9.25734	55.95358
	9.263142	55.95047
	9.266864	55.94851
	9.269046	55.9474
	9.276155	55.94374
	9.280766	55.93827
	9.281316	55.93825
	9.281953	55.93835
	9.282781	55.93874
	9.2838	55.93874
	9.284596	55.93842
	9.285233	55.93806
	9.285966	55.93788
	9.287845	55.93778
	9.289915	55.9374
	9.290234	55.93694
	9.290775	55.93676
	9.29224	55.9368
	9.292782	55.93664
	9.293864	55.93571
	9.294884	55.93532
	9.295967	55.93544
	9.297113	55.93605
	9.29826	55.93598
	9.299629	55.93626
	9.301986	55.93639
	9.303133	55.93689
	9.303679	55.93692
	9.308674	55.93797
	9.310988	55.93771
	9.318614	55.93363
	9.326084	55.93328
	9.326585	55.93313
	9.327096	55.93316
	9.333994	55.9317
	9.335527	55.93139
	9.336245	55.93209
	9.338854	55.93324
	9.339507	55.93381
	9.339833	55.93437
	9.340852	55.93477
	9.342054	55.93546
	9.342992	55.93625
	9.344626	55.93682
	9.346842	55.93755
	9.350367	55.93808
	9.354026	55.9368
	9.36958	55.93124
	9.384369	55.9269
	9.385688	55.92648
	9.386406	55.9253
	9.386978	55.92471
	9.38717	55.92265
	9.387745	55.92227
	9.388177	55.92225
	9.388458	55.92234
	9.389204	55.9221
	9.389492	55.92007
	9.38963	55.91976
	9.389565	55.91947
	9.389689	55.91904
	9.39007	55.91854
	9.390107	55.91837
	9.391296	55.91758
	9.391117	55.91751
	9.389382	55.91821
	9.389096	55.91882
	9.388344	55.91982
	9.387775	55.9196
	9.387546	55.91933
	9.386935	55.91907
	9.386383	55.91923
	9.386285	55.9191
	9.387219	55.91736
	9.387299	55.91674
	9.39132	55.915
	9.393211	55.91471
	9.393389	55.91462
	9.393262	55.91449
	9.393661	55.91442
	9.394115	55.91427
	9.393802	55.91347
	9.394332	55.91233
	9.395027	55.91225
	9.395765	55.91134
	9.395409	55.91098
	9.395205	55.91031
	9.395392	55.90968
	9.395138	55.90856
	9.396218	55.90664
	9.397335	55.90589
	9.401244	55.90339
	9.403586	55.90261
	9.408134	55.90015
	9.408325	55.89778
	9.410396	55.89683
	9.411265	55.89552
	9.412338	55.89336
	9.414559	55.8914
	9.419608	55.89021
	9.423191	55.8897
	9.426124	55.88884
	9.429242	55.88686
	9.430395	55.88673
	9.433005	55.88328
	9.434205	55.88274
	9.434532	55.88316
	9.436229	55.8823
	9.435445	55.88169
	9.435623	55.88078
	9.435977	55.8803
	9.437449	55.88011
	9.43851	55.87988
	9.438741	55.8792
	9.441057	55.87615
	9.443174	55.87397
	9.445396	55.87253
	9.445908	55.87289
	9.447359	55.87195
	9.446977	55.87163
	9.447755	55.87118
	9.448259	55.87127
	9.448956	55.8711
	9.44939	55.87065
	9.45059	55.86992
	9.450109	55.86937
	9.454775	55.86691
	9.456074	55.86688
	9.458921	55.86546
	9.460283	55.86177
	9.459874	55.8601
	9.45472	55.85982
	9.449201	55.86047
	9.449321	55.85732
	9.448572	55.85705
	9.446843	55.85688
	9.445792	55.85617
	9.444029	55.85566
	9.44156	55.85412
	9.440189	55.85376
	9.440503	55.85308
	9.44327	55.85283
	9.446497	55.85213
	9.455615	55.84994
	9.454831	55.8462
	9.455361	55.84512
	9.453795	55.845
	9.451339	55.84515
	9.45081	55.84545
	9.447794	55.8433
	9.4474	55.84149
	9.447782	55.84146
	9.447795	55.84125
	9.447346	55.84126
	9.447209	55.84064
	9.446269	55.84059
	9.44562	55.83973
	9.446502	55.83914
	9.447612	55.83891
	9.448808	55.83864
	9.449674	55.83843
	9.45055	55.83821
	9.455491	55.83691
	9.456937	55.83657
	9.458347	55.83628
	9.459933	55.83597
	9.461377	55.83572
	9.462832	55.83549
	9.464047	55.83532
	9.466029	55.83507
	9.46781	55.83489
	9.469435	55.83475
	9.471071	55.83463
	9.472536	55.83456
	9.474149	55.8345
	9.475671	55.83447
	9.477408	55.83447
	9.479459	55.8345
	9.481391	55.83265
	9.483289	55.83268
	9.483668	55.82998
	9.483236	55.82742
	9.485915	55.82835
	9.487081	55.82677
	9.489455	55.82693
	9.49449	55.82769
	9.498368	55.82765
	9.498422	55.82801
	9.498927	55.8284
	9.498954	55.82861
	9.50123	55.8287
	9.501497	55.8284
	9.503043	55.8276
	9.504082	55.82667
	9.504093	55.82582
	9.503587	55.82523
	9.503752	55.82482
	9.504705	55.8244
	9.505316	55.82297
	9.503889	55.81958
	9.507024	55.8162
	9.510022	55.8122
	9.50716	55.81024
	9.506792	55.80899
	9.506654	55.80781
	9.508455	55.80634
	9.508867	55.80488
	9.508044	55.8033
	9.507923	55.80249
	9.508796	55.80222
	9.51099	55.80247
	9.510908	55.80203
	9.511358	55.8015
	9.514194	55.80074
	9.514327	55.80065
	9.514404	55.80047
	9.514449	55.80017
	9.514514	55.7999
	9.513962	55.79939
	9.514603	55.79873
	9.51476	55.79812
	9.514973	55.79746
	9.514739	55.79697
	9.513812	55.7963
	9.514355	55.7956
	9.517046	55.79576
	9.517285	55.79527
	9.517477	55.795
	9.517575	55.79456
	9.518318	55.79236
	9.518474	55.79201
	9.518699	55.79163
	9.519189	55.79089
	9.519534	55.79046
	9.518864	55.78775
	9.520418	55.78747
	9.520283	55.78584
	9.520995	55.78584
	9.521525	55.78583
	9.52139	55.78623
	9.522161	55.78626
	9.522318	55.78567
	9.52288	55.78578
	9.52328	55.78558
	9.524383	55.78614
	9.528951	55.78598
	9.531785	55.78637
	9.539212	55.78419
	9.540889	55.78363
	9.541483	55.78167
	9.540638	55.78029
	9.539029	55.779
	9.537694	55.77848
	9.53673	55.77858
	9.537752	55.77788
	9.538147	55.77796
	9.537964	55.77825
	9.538851	55.7784
	9.539053	55.77811
	9.537835	55.77785
	9.538751	55.77711
	9.538306	55.77698
	9.538513	55.77634
	9.538778	55.77634
	9.539964	55.77596
	9.540311	55.7757
	9.540501	55.77539
	9.538239	55.77454
	9.5392	55.77333
	9.540788	55.77399
	9.542235	55.77419
	9.544786	55.77438
	9.546824	55.77537
	9.548027	55.77622
	9.55273	55.77717
	9.553147	55.77709
	9.553789	55.77715
	9.554332	55.77711
	9.555109	55.77786
	9.555455	55.77801
	9.555617	55.77817
	9.559585	55.77743
	9.563952	55.77553
	9.564566	55.77294
	9.572347	55.77386
	9.572799	55.77429
	9.573896	55.77427
	9.574483	55.77456
	9.573944	55.77576
	9.576248	55.77602
	9.576125	55.77643
	9.576636	55.77649
	9.57672	55.77621
	9.577029	55.7756
	9.577068	55.77555
	9.577763	55.77496
	9.577837	55.77492
	9.578299	55.77475
	9.578665	55.77468
	9.578762	55.77467
	9.579151	55.77466
	9.579666	55.77469
	9.579933	55.77473
	9.580311	55.77482
	9.580692	55.77497
	9.580768	55.77501
	9.581143	55.77527
	9.581296	55.7754
	9.580987	55.77576
	9.582145	55.77707
	9.581202	55.77791
	9.582271	55.77843
	9.583329	55.77897
	9.581662	55.7802
	9.585678	55.78135
	9.585819	55.78017
	9.586012	55.78023
	9.586189	55.7801
	9.586209	55.77977
	9.586	55.77966
	9.586216	55.77928
	9.586532	55.77907
	9.587112	55.77877
	9.589554	55.77739
	9.596506	55.77311
	9.598574	55.77173
	9.595098	55.76946
	9.59127	55.76789
	9.5894	55.76704
	9.589202	55.76619
	9.585968	55.76466
	9.584976	55.76408
	9.586476	55.76297
	9.588327	55.76228
	9.591904	55.7611
	9.592988	55.75848
	9.591833	55.75542
	9.592241	55.75313
	9.592899	55.75241
	9.594153	55.75215
	9.602013	55.75264
	9.602178	55.75203
	9.606715	55.75335
	9.610698	55.75507
	9.614526	55.75565
	9.618486	55.75585
	9.621654	55.75756
	9.624272	55.7584
	9.628694	55.75803
	9.632171	55.75706
	9.634305	55.75742
	9.637825	55.75676
	9.638551	55.75569
	9.642951	55.75484
	9.647967	55.75392
	9.649111	55.757
	9.651895	55.75966
	9.654918	55.75819
	9.654918	55.75773
	9.656945	55.75669
	9.657616	55.75496
	9.659612	55.75494
	9.662092	55.75594
	9.661772	55.75599
	9.662633	55.75681
	9.670782	55.75514
	9.67505	55.75312
	9.679671	55.74994
	9.680661	55.74927
	9.681541	55.7494
	9.682553	55.74704
	9.679203	55.7458
	9.680871	55.7454
	9.681138	55.74496
	9.681856	55.74411
	9.682317	55.74298
	9.682333	55.74278
	9.681614	55.74152
	9.683851	55.73973
	9.682641	55.73741
	9.684753	55.7358
	9.685435	55.73478
	9.685049	55.73371
	9.684641	55.73276
	9.680853	55.73181
	9.680811	55.72914
	9.681698	55.72783
	9.682853	55.72661
	9.681684	55.7259
	9.680487	55.72552
	9.679656	55.7246
	9.680248	55.7231
	9.677418	55.72188
	9.67677	55.72018
	9.676531	55.71815
	9.675812	55.7166
	9.676052	55.71449
	9.674193	55.71303
	9.673944	55.71207
	9.671623	55.70476
	9.678127	55.70203
	9.795302	55.65279
	10.03379	55.68658
	10.67173	55.6746
	10.87527	55.48877
	10.95144	55.23041
	11.06257	55.15557
	10.8453	54.75261
	10.72044	54.6357
	10.16938	54.73818
END
END
