Denmark_Central Denmark Region
1
	11.28908	56.26706
	10.97374	56.02426
	10.73172	55.8389
	10.67173	55.6746
	10.03379	55.68658
	9.795302	55.65279
	9.732169	55.67932
	9.671623	55.70476
	9.673944	55.71207
	9.674193	55.71303
	9.676052	55.71449
	9.675812	55.7166
	9.676531	55.71815
	9.67677	55.72018
	9.677418	55.72188
	9.680248	55.7231
	9.679656	55.7246
	9.680487	55.72552
	9.681684	55.7259
	9.682853	55.72661
	9.681698	55.72783
	9.680811	55.72914
	9.680853	55.73181
	9.684641	55.73276
	9.685049	55.73371
	9.685435	55.73478
	9.684753	55.7358
	9.682641	55.73741
	9.683851	55.73973
	9.681614	55.74152
	9.682333	55.74278
	9.682317	55.74298
	9.681856	55.74411
	9.681138	55.74496
	9.680871	55.7454
	9.679203	55.7458
	9.682553	55.74704
	9.681541	55.7494
	9.680661	55.74927
	9.679671	55.74994
	9.67505	55.75312
	9.670782	55.75514
	9.662633	55.75681
	9.661772	55.75599
	9.662092	55.75594
	9.659612	55.75494
	9.657616	55.75496
	9.656945	55.75669
	9.654918	55.75773
	9.654918	55.75819
	9.651895	55.75966
	9.649111	55.757
	9.647967	55.75392
	9.642951	55.75484
	9.638551	55.75569
	9.637825	55.75676
	9.634305	55.75742
	9.632171	55.75706
	9.628694	55.75803
	9.624272	55.7584
	9.621654	55.75756
	9.618486	55.75585
	9.614526	55.75565
	9.610698	55.75507
	9.606715	55.75335
	9.602178	55.75203
	9.602013	55.75264
	9.594153	55.75215
	9.592899	55.75241
	9.592241	55.75313
	9.591833	55.75542
	9.592988	55.75848
	9.591904	55.7611
	9.588327	55.76228
	9.586476	55.76297
	9.584976	55.76408
	9.585968	55.76466
	9.589202	55.76619
	9.5894	55.76704
	9.59127	55.76789
	9.595098	55.76946
	9.598574	55.77173
	9.596506	55.77311
	9.589554	55.77739
	9.587112	55.77877
	9.586532	55.77907
	9.586216	55.77928
	9.586	55.77966
	9.586209	55.77977
	9.586189	55.7801
	9.586012	55.78023
	9.585819	55.78017
	9.585678	55.78135
	9.581662	55.7802
	9.583329	55.77897
	9.582271	55.77843
	9.581202	55.77791
	9.582145	55.77707
	9.580987	55.77576
	9.581296	55.7754
	9.581143	55.77527
	9.580768	55.77501
	9.580692	55.77497
	9.580311	55.77482
	9.579933	55.77473
	9.579666	55.77469
	9.579151	55.77466
	9.578762	55.77467
	9.578665	55.77468
	9.578299	55.77475
	9.577837	55.77492
	9.577763	55.77496
	9.577068	55.77555
	9.577029	55.7756
	9.57672	55.77621
	9.576636	55.77649
	9.576125	55.77643
	9.576248	55.77602
	9.573944	55.77576
	9.574483	55.77456
	9.573896	55.77427
	9.572799	55.77429
	9.572347	55.77386
	9.564566	55.77294
	9.563952	55.77553
	9.559585	55.77743
	9.555617	55.77817
	9.555455	55.77801
	9.555109	55.77786
	9.554332	55.77711
	9.553789	55.77715
	9.553147	55.77709
	9.55273	55.77717
	9.548027	55.77622
	9.546824	55.77537
	9.544786	55.77438
	9.542235	55.77419
	9.540788	55.77399
	9.5392	55.77333
	9.538239	55.77454
	9.540501	55.77539
	9.540311	55.7757
	9.539964	55.77596
	9.538778	55.77634
	9.538513	55.77634
	9.538306	55.77698
	9.538751	55.77711
	9.537835	55.77785
	9.539053	55.77811
	9.538851	55.7784
	9.537964	55.77825
	9.538147	55.77796
	9.537752	55.77788
	9.53673	55.77858
	9.537694	55.77848
	9.539029	55.779
	9.540638	55.78029
	9.541483	55.78167
	9.540889	55.78363
	9.539212	55.78419
	9.531785	55.78637
	9.528951	55.78598
	9.524383	55.78614
	9.52328	55.78558
	9.52288	55.78578
	9.522318	55.78567
	9.522161	55.78626
	9.52139	55.78623
	9.521525	55.78583
	9.520995	55.78584
	9.520283	55.78584
	9.520418	55.78747
	9.518864	55.78775
	9.519534	55.79046
	9.519189	55.79089
	9.518699	55.79163
	9.518474	55.79201
	9.518318	55.79236
	9.517575	55.79456
	9.517477	55.795
	9.517285	55.79527
	9.517046	55.79576
	9.514355	55.7956
	9.513812	55.7963
	9.514739	55.79697
	9.514973	55.79746
	9.51476	55.79812
	9.514603	55.79873
	9.513962	55.79939
	9.514514	55.7999
	9.514449	55.80017
	9.514404	55.80047
	9.514327	55.80065
	9.514194	55.80074
	9.511358	55.8015
	9.510908	55.80203
	9.51099	55.80247
	9.508796	55.80222
	9.507923	55.80249
	9.508044	55.8033
	9.508867	55.80488
	9.508455	55.80634
	9.506654	55.80781
	9.506792	55.80899
	9.50716	55.81024
	9.510022	55.8122
	9.507024	55.8162
	9.503889	55.81958
	9.505316	55.82297
	9.504705	55.8244
	9.503752	55.82482
	9.503587	55.82523
	9.504093	55.82582
	9.504082	55.82667
	9.503043	55.8276
	9.501497	55.8284
	9.50123	55.8287
	9.498954	55.82861
	9.498927	55.8284
	9.498422	55.82801
	9.498368	55.82765
	9.49449	55.82769
	9.489455	55.82693
	9.487081	55.82677
	9.485915	55.82835
	9.483236	55.82742
	9.483668	55.82998
	9.483289	55.83268
	9.481391	55.83265
	9.479459	55.8345
	9.477408	55.83447
	9.475671	55.83447
	9.474149	55.8345
	9.472536	55.83456
	9.471071	55.83463
	9.469435	55.83475
	9.46781	55.83489
	9.466029	55.83507
	9.464047	55.83532
	9.462832	55.83549
	9.461377	55.83572
	9.459933	55.83597
	9.458347	55.83628
	9.456937	55.83657
	9.455491	55.83691
	9.45055	55.83821
	9.449674	55.83843
	9.448808	55.83864
	9.447612	55.83891
	9.446502	55.83914
	9.44562	55.83973
	9.446269	55.84059
	9.447209	55.84064
	9.447346	55.84126
	9.447795	55.84125
	9.447782	55.84146
	9.4474	55.84149
	9.447794	55.8433
	9.45081	55.84545
	9.451339	55.84515
	9.453795	55.845
	9.455361	55.84512
	9.454831	55.8462
	9.455615	55.84994
	9.446497	55.85213
	9.44327	55.85283
	9.440503	55.85308
	9.440189	55.85376
	9.44156	55.85412
	9.444029	55.85566
	9.445792	55.85617
	9.446843	55.85688
	9.448572	55.85705
	9.449321	55.85732
	9.449201	55.86047
	9.45472	55.85982
	9.459874	55.8601
	9.460283	55.86177
	9.458921	55.86546
	9.456074	55.86688
	9.454775	55.86691
	9.450109	55.86937
	9.45059	55.86992
	9.44939	55.87065
	9.448956	55.8711
	9.448259	55.87127
	9.447755	55.87118
	9.446977	55.87163
	9.447359	55.87195
	9.445908	55.87289
	9.445396	55.87253
	9.443174	55.87397
	9.441057	55.87615
	9.438741	55.8792
	9.43851	55.87988
	9.437449	55.88011
	9.435977	55.8803
	9.435623	55.88078
	9.435445	55.88169
	9.436229	55.8823
	9.434532	55.88316
	9.434205	55.88274
	9.433005	55.88328
	9.430395	55.88673
	9.429242	55.88686
	9.426124	55.88884
	9.423191	55.8897
	9.419608	55.89021
	9.414559	55.8914
	9.412338	55.89336
	9.411265	55.89552
	9.410396	55.89683
	9.408325	55.89778
	9.408134	55.90015
	9.403586	55.90261
	9.401244	55.90339
	9.397335	55.90589
	9.396218	55.90664
	9.395138	55.90856
	9.395392	55.90968
	9.395205	55.91031
	9.395409	55.91098
	9.395765	55.91134
	9.395027	55.91225
	9.394332	55.91233
	9.393802	55.91347
	9.394115	55.91427
	9.393661	55.91442
	9.393262	55.91449
	9.393389	55.91462
	9.393211	55.91471
	9.39132	55.915
	9.387299	55.91674
	9.387219	55.91736
	9.386285	55.9191
	9.386383	55.91923
	9.386935	55.91907
	9.387546	55.91933
	9.387775	55.9196
	9.388344	55.91982
	9.389096	55.91882
	9.389382	55.91821
	9.391117	55.91751
	9.391296	55.91758
	9.390107	55.91837
	9.39007	55.91854
	9.389689	55.91904
	9.389565	55.91947
	9.38963	55.91976
	9.389492	55.92007
	9.389204	55.9221
	9.388458	55.92234
	9.388177	55.92225
	9.387745	55.92227
	9.38717	55.92265
	9.386978	55.92471
	9.386406	55.9253
	9.385688	55.92648
	9.384369	55.9269
	9.36958	55.93124
	9.354026	55.9368
	9.350367	55.93808
	9.346842	55.93755
	9.344626	55.93682
	9.342992	55.93625
	9.342054	55.93546
	9.340852	55.93477
	9.339833	55.93437
	9.339507	55.93381
	9.338854	55.93324
	9.336245	55.93209
	9.335527	55.93139
	9.333994	55.9317
	9.327096	55.93316
	9.326585	55.93313
	9.326084	55.93328
	9.318614	55.93363
	9.310988	55.93771
	9.308674	55.93797
	9.303679	55.93692
	9.303133	55.93689
	9.301986	55.93639
	9.299629	55.93626
	9.29826	55.93598
	9.297113	55.93605
	9.295967	55.93544
	9.294884	55.93532
	9.293864	55.93571
	9.292782	55.93664
	9.29224	55.9368
	9.290775	55.93676
	9.290234	55.93694
	9.289915	55.9374
	9.287845	55.93778
	9.285966	55.93788
	9.285233	55.93806
	9.284596	55.93842
	9.2838	55.93874
	9.282781	55.93874
	9.281953	55.93835
	9.281316	55.93825
	9.280766	55.93827
	9.276155	55.94374
	9.269046	55.9474
	9.266864	55.94851
	9.263142	55.95047
	9.25734	55.95358
	9.251348	55.95335
	9.24935	55.95333
	9.245881	55.95257
	9.244844	55.95276
	9.244244	55.95316
	9.243681	55.95316
	9.242262	55.95267
	9.241013	55.95266
	9.240147	55.9527
	9.239714	55.95313
	9.239765	55.9537
	9.239518	55.95409
	9.239841	55.95447
	9.238771	55.95467
	9.238108	55.9543
	9.237624	55.95446
	9.236682	55.9552
	9.236121	55.95526
	9.235382	55.95528
	9.234414	55.95567
	9.233993	55.95573
	9.233318	55.95554
	9.231968	55.95513
	9.231818	55.95502
	9.23143	55.95517
	9.231073	55.95533
	9.230526	55.95532
	9.23003	55.95547
	9.229817	55.9555
	9.229859	55.95578
	9.229967	55.95597
	9.229774	55.95611
	9.228953	55.95631
	9.22731	55.95661
	9.226429	55.95652
	9.225414	55.95623
	9.224505	55.95602
	9.223597	55.95613
	9.222842	55.95582
	9.221941	55.95573
	9.221742	55.95542
	9.220479	55.95519
	9.219529	55.95475
	9.218616	55.95471
	9.218316	55.9546
	9.218279	55.95412
	9.217626	55.95391
	9.214903	55.9433
	9.209993	55.94445
	9.204161	55.9357
	9.204595	55.93561
	9.203237	55.93472
	9.202127	55.93512
	9.197577	55.93438
	9.195511	55.93134
	9.195016	55.93045
	9.193584	55.92463
	9.193604	55.92417
	9.195222	55.91859
	9.195938	55.91691
	9.195513	55.91653
	9.187897	55.91248
	9.186761	55.91233
	9.177938	55.9098
	9.177788	55.90958
	9.177388	55.90949
	9.177255	55.90924
	9.17765	55.90902
	9.178238	55.90908
	9.178388	55.90895
	9.178338	55.90837
	9.178038	55.90825
	9.1786	55.90803
	9.178563	55.90793
	9.178176	55.90787
	9.17845	55.90768
	9.178038	55.90755
	9.177876	55.90762
	9.177663	55.90757
	9.177926	55.90745
	9.17795	55.90728
	9.178301	55.90716
	9.1786	55.90713
	9.178463	55.90688
	9.178488	55.90675
	9.178676	55.90678
	9.178663	55.90694
	9.178851	55.90699
	9.179188	55.90657
	9.174258	55.90343
	9.17179	55.90101
	9.170923	55.89924
	9.16889	55.89707
	9.160483	55.89574
	9.154176	55.88998
	9.152253	55.88793
	9.151563	55.88659
	9.150921	55.8854
	9.150029	55.88359
	9.146955	55.88491
	9.143039	55.88451
	9.142839	55.88392
	9.139273	55.88396
	9.137633	55.88343
	9.137441	55.88214
	9.135051	55.8822
	9.134676	55.88171
	9.126302	55.87559
	9.118219	55.8699
	9.117525	55.86932
	9.115742	55.87021
	9.114103	55.87114
	9.111525	55.87209
	9.109136	55.87267
	9.105107	55.87448
	9.101605	55.87527
	9.097749	55.87699
	9.097027	55.87717
	9.092666	55.87373
	9.089342	55.87018
	9.083402	55.8655
	9.07949	55.86088
	9.076112	55.85644
	9.072312	55.85047
	9.072011	55.84953
	9.071472	55.84775
	9.070566	55.84633
	9.070358	55.84638
	9.070239	55.84623
	9.070464	55.84617
	9.069963	55.84559
	9.071301	55.84494
	9.070926	55.84444
	9.070238	55.8446
	9.0662	55.84754
	9.065478	55.84745
	9.065261	55.84718
	9.064203	55.84748
	9.064437	55.84772
	9.064059	55.84784
	9.063766	55.84844
	9.062712	55.84925
	9.058828	55.85067
	9.052237	55.84311
	9.04635	55.83646
	9.030171	55.84065
	9.02853	55.83959
	9.027074	55.83853
	9.024225	55.83637
	9.020596	55.83403
	9.014629	55.83567
	9.01125	55.83152
	9.01089	55.83148
	9.011056	55.83108
	9.010026	55.83077
	9.009507	55.83065
	9.008887	55.83079
	9.008947	55.83093
	9.009317	55.83089
	9.009225	55.83152
	9.009056	55.83212
	9.007743	55.83201
	9.007764	55.83259
	9.007035	55.8328
	9.006233	55.83245
	9.005819	55.83263
	9.005381	55.83227
	9.005289	55.83199
	9.005627	55.83179
	9.005297	55.83168
	9.004829	55.83198
	9.005067	55.8322
	9.005021	55.83253
	9.004476	55.83262
	9.004745	55.83288
	9.00427	55.8332
	9.003571	55.83322
	9.003364	55.83336
	9.00275	55.83327
	9.002488	55.83335
	9.002336	55.83323
	9.002732	55.83291
	9.002531	55.83275
	9.002205	55.83274
	9.001815	55.83254
	9.001587	55.83235
	9.001565	55.83222
	9.001403	55.83224
	9.001256	55.83253
	9.001327	55.8328
	9.001588	55.83298
	9.00196	55.83303
	9.002056	55.83314
	9.001845	55.83325
	9.001507	55.83334
	9.001687	55.83346
	9.002217	55.83347
	9.002393	55.83359
	9.002171	55.83379
	9.002102	55.83397
	9.00178	55.83393
	9.001273	55.83375
	9.001112	55.83366
	9.001273	55.83345
	9.00112	55.8334
	9.000859	55.83351
	9.000675	55.83374
	9.000432	55.8338
	9.000598	55.83395
	9.001312	55.83396
	9.001649	55.83416
	9.001703	55.83444
	9.000913	55.83456
	9.000782	55.83479
	9.000905	55.83507
	9.001089	55.83527
	9.001304	55.83516
	9.001388	55.8349
	9.001618	55.83484
	9.001695	55.83498
	9.001526	55.83514
	9.001281	55.83534
	9.001043	55.83539
	9.000606	55.83534
	9.000544	55.83521
	8.999961	55.83475
	8.999977	55.83466
	9.000276	55.83463
	9.000238	55.83429
	9.000063	55.83387
	8.99977	55.83399
	8.999785	55.83418
	8.999754	55.83433
	8.999486	55.83443
	8.99901	55.83437
	8.998964	55.83482
	8.99846	55.83476
	8.997898	55.8351
	8.997094	55.83536
	8.998053	55.8359
	8.997714	55.83622
	8.997898	55.83647
	8.997783	55.83663
	8.997445	55.83669
	8.997706	55.83696
	8.997469	55.83702
	8.99667	55.8371
	8.996526	55.83695
	8.996597	55.83667
	8.995581	55.83651
	8.995236	55.83666
	8.995182	55.83696
	8.994691	55.83704
	8.994722	55.83726
	8.994131	55.83739
	8.993625	55.83737
	8.993425	55.83755
	8.992863	55.8375
	8.992666	55.83767
	8.992796	55.8381
	8.993154	55.83851
	8.992382	55.83897
	8.992129	55.83897
	8.992014	55.83856
	8.991745	55.83865
	8.991668	55.83902
	8.991488	55.83902
	8.990894	55.83873
	8.990528	55.83878
	8.989175	55.83876
	8.987959	55.83844
	8.987602	55.8385
	8.987073	55.83875
	8.985508	55.83902
	8.982646	55.83933
	8.981979	55.83927
	8.980765	55.83928
	8.980537	55.83895
	8.978174	55.83895
	8.978258	55.83971
	8.977783	55.83959
	8.977453	55.83968
	8.977376	55.83998
	8.977046	55.84001
	8.976632	55.83995
	8.97664	55.83967
	8.976433	55.83929
	8.975842	55.83951
	8.974821	55.83923
	8.973954	55.83925
	8.973717	55.83946
	8.974399	55.83966
	8.974913	55.83975
	8.974982	55.83988
	8.974646	55.84009
	8.974008	55.84013
	8.973302	55.84033
	8.972349	55.8404
	8.972228	55.84026
	8.972366	55.84004
	8.972331	55.83988
	8.971998	55.83994
	8.971997	55.84009
	8.971837	55.84018
	8.971967	55.84057
	8.971766	55.8407
	8.971369	55.84066
	8.971125	55.84077
	8.970953	55.84076
	8.970636	55.84063
	8.970398	55.84072
	8.970609	55.84085
	8.970322	55.84097
	8.969796	55.84098
	8.968965	55.84085
	8.968483	55.84071
	8.968342	55.84081
	8.968499	55.84099
	8.968215	55.84118
	8.968016	55.84124
	8.967935	55.84143
	8.96774	55.84149
	8.967351	55.84149
	8.967086	55.84134
	8.96647	55.84155
	8.965875	55.84193
	8.965222	55.84202
	8.964944	55.84227
	8.965136	55.84271
	8.965304	55.84277
	8.965582	55.84277
	8.965483	55.84285
	8.965016	55.84291
	8.96443	55.843
	8.964317	55.84295
	8.964436	55.84286
	8.96474	55.8427
	8.96462	55.84257
	8.964154	55.84262
	8.963978	55.84268
	8.963926	55.84279
	8.963964	55.84287
	8.96385	55.8429
	8.963709	55.84281
	8.963666	55.84262
	8.962342	55.84253
	8.961884	55.84285
	8.962125	55.84303
	8.962038	55.8433
	8.96187	55.84345
	8.961279	55.84335
	8.9611	55.84322
	8.961138	55.84311
	8.961507	55.8429
	8.96149	55.84263
	8.961214	55.84262
	8.961127	55.84284
	8.960992	55.84289
	8.960861	55.84284
	8.960932	55.84252
	8.960834	55.84241
	8.961007	55.84234
	8.961344	55.84237
	8.961667	55.8423
	8.961653	55.84224
	8.961393	55.84215
	8.961248	55.84199
	8.961078	55.84196
	8.960921	55.84201
	8.9604	55.84205
	8.959944	55.84198
	8.959798	55.84192
	8.959825	55.84177
	8.959396	55.8417
	8.959288	55.8418
	8.958845	55.84401
	8.958447	55.84545
	8.957793	55.84542
	8.959209	55.84919
	8.9615	55.85333
	8.963887	55.85826
	8.96564	55.86161
	8.967584	55.86523
	8.967007	55.87081
	8.968815	55.8726
	8.968735	55.87395
	8.967498	55.87569
	8.966516	55.87609
	8.965521	55.88487
	8.945425	55.89151
	8.943171	55.89218
	8.941931	55.89209
	8.940567	55.89193
	8.938499	55.89184
	8.93259	55.8913
	8.932836	55.89095
	8.931717	55.89094
	8.931654	55.89129
	8.93057	55.89123
	8.924847	55.89197
	8.923773	55.89203
	8.895014	55.89458
	8.881151	55.89578
	8.881188	55.89514
	8.880356	55.89331
	8.879132	55.89373
	8.877398	55.89468
	8.875797	55.8929
	8.874467	55.89333
	8.870735	55.89386
	8.870064	55.89406
	8.869174	55.89411
	8.868468	55.89453
	8.86808	55.89539
	8.865109	55.89539
	8.864215	55.8939
	8.863313	55.89246
	8.862398	55.89105
	8.856821	55.88274
	8.855552	55.88068
	8.855567	55.88024
	8.852498	55.87996
	8.85259	55.87974
	8.851194	55.87972
	8.851133	55.87957
	8.840856	55.88151
	8.839566	55.88179
	8.834242	55.87151
	8.827393	55.85663
	8.824211	55.84912
	8.823585	55.84815
	8.823199	55.84791
	8.823395	55.84785
	8.823189	55.84778
	8.822907	55.84782
	8.822809	55.84769
	8.823145	55.84752
	8.822613	55.84743
	8.822451	55.84724
	8.821832	55.84716
	8.821988	55.84703
	8.817871	55.84597
	8.807826	55.84343
	8.807036	55.84282
	8.806201	55.84261
	8.805903	55.84245
	8.79728	55.83898
	8.795624	55.83824
	8.795597	55.83803
	8.795253	55.8379
	8.79511	55.83797
	8.794521	55.83785
	8.795282	55.83755
	8.795282	55.83732
	8.795568	55.83715
	8.79511	55.83692
	8.795798	55.83669
	8.795597	55.83649
	8.796227	55.83616
	8.796772	55.8357
	8.797602	55.83546
	8.798347	55.83484
	8.799178	55.83439
	8.800066	55.83393
	8.800696	55.8338
	8.801069	55.83362
	8.800725	55.83335
	8.800983	55.83317
	8.801613	55.8332
	8.801871	55.83277
	8.802558	55.83283
	8.802788	55.83232
	8.803847	55.83235
	8.805022	55.83161
	8.806712	55.83142
	8.807686	55.83071
	8.810494	55.8295
	8.810436	55.82925
	8.811725	55.82859
	8.812814	55.82825
	8.813645	55.82791
	8.814103	55.82723
	8.815048	55.82686
	8.819088	55.8235
	8.819489	55.82281
	8.823474	55.8207
	8.827285	55.81988
	8.82678	55.81943
	8.821838	55.81831
	8.80625	55.81509
	8.792621	55.8123
	8.782792	55.81054
	8.782591	55.81066
	8.766016	55.80754
	8.759187	55.80749
	8.759158	55.80697
	8.759416	55.80668
	8.7587	55.8065
	8.759101	55.80618
	8.758862	55.80606
	8.749619	55.80765
	8.744548	55.80641
	8.728479	55.81385
	8.722357	55.81385
	8.722373	55.81767
	8.722207	55.82135
	8.716406	55.82255
	8.715876	55.82118
	8.713312	55.82184
	8.709373	55.82381
	8.706881	55.82467
	8.708284	55.82636
	8.707095	55.82681
	8.707468	55.82818
	8.709043	55.82815
	8.70933	55.82959
	8.707969	55.82972
	8.708428	55.83125
	8.707253	55.83137
	8.70721	55.83273
	8.7089	55.83271
	8.70933	55.83571
	8.707826	55.83754
	8.70794	55.83777
	8.696353	55.83956
	8.692285	55.84015
	8.690136	55.84104
	8.681113	55.8457
	8.676158	55.84834
	8.665557	55.8461
	8.664411	55.84636
	8.663824	55.8452
	8.662607	55.84542
	8.657264	55.84432
	8.633385	55.84481
	8.625766	55.84493
	8.626655	55.84333
	8.626125	55.84244
	8.619464	55.84355
	8.618748	55.84174
	8.615646	55.84225
	8.614653	55.84017
	8.612474	55.84024
	8.61067	55.84047
	8.609953	55.84064
	8.609137	55.84103
	8.608722	55.84101
	8.606571	55.84054
	8.605055	55.83991
	8.60504	55.83978
	8.601832	55.83863
	8.595343	55.83719
	8.595315	55.8367
	8.59454	55.83692
	8.593997	55.83499
	8.592622	55.83494
	8.59149	55.83509
	8.591175	55.83538
	8.59235	55.83783
	8.590853	55.83862
	8.588425	55.83905
	8.58662	55.83964
	8.586535	55.84091
	8.585231	55.84093
	8.585074	55.84112
	8.584715	55.84093
	8.580633	55.84105
	8.579788	55.8413
	8.580003	55.84162
	8.578859	55.84192
	8.577955	55.84227
	8.574589	55.84445
	8.572397	55.84512
	8.572311	55.84611
	8.570005	55.84768
	8.56853	55.84731
	8.568072	55.84866
	8.56704	55.84945
	8.566625	55.84989
	8.556641	55.84734
	8.532363	55.84116
	8.543478	55.83138
	8.54418	55.82976
	8.545139	55.82583
	8.545182	55.82475
	8.546414	55.82236
	8.544738	55.82219
	8.541516	55.82184
	8.540742	55.82188
	8.533308	55.81784
	8.533649	55.81632
	8.534451	55.81532
	8.53554	55.81429
	8.536259	55.81369
	8.537383	55.81345
	8.537322	55.8132
	8.536846	55.81304
	8.535793	55.81356
	8.535053	55.81414
	8.534412	55.81389
	8.532474	55.81522
	8.53087	55.81453
	8.527261	55.81381
	8.518982	55.81271
	8.512794	55.81033
	8.509563	55.80245
	8.50857	55.7985
	8.51076	55.79801
	8.511891	55.7923
	8.51398	55.78753
	8.512885	55.78626
	8.511791	55.7858
	8.511075	55.78511
	8.510388	55.78469
	8.509426	55.78325
	8.508038	55.78268
	8.506979	55.7826
	8.506492	55.78294
	8.504515	55.78229
	8.504687	55.78207
	8.504515	55.78165
	8.503741	55.7812
	8.505088	55.77988
	8.504744	55.77975
	8.504228	55.78017
	8.503398	55.78039
	8.502538	55.77923
	8.499759	55.77992
	8.499931	55.77711
	8.493314	55.7791
	8.494746	55.77669
	8.492655	55.77694
	8.489762	55.77714
	8.482457	55.77791
	8.482568	55.77827
	8.475667	55.77902
	8.474588	55.77785
	8.462203	55.78084
	8.463349	55.77954
	8.468849	55.77306
	8.463807	55.77338
	8.449312	55.77638
	8.443829	55.7796
	8.44334	55.78032
	8.442625	55.78148
	8.440403	55.78762
	8.440689	55.78806
	8.440059	55.78803
	8.436965	55.78846
	8.435447	55.78936
	8.431517	55.79025
	8.430348	55.79099
	8.429632	55.79064
	8.429116	55.79075
	8.4284	55.79118
	8.428887	55.79162
	8.427884	55.7922
	8.419834	55.7951
	8.416311	55.79487
	8.414535	55.79515
	8.415108	55.79561
	8.414706	55.7974
	8.417428	55.79796
	8.418459	55.79795
	8.422527	55.79706
	8.424045	55.79904
	8.413388	55.80088
	8.403448	55.80257
	8.385298	55.80174
	8.380153	55.80156
	8.382604	55.8024
	8.382462	55.80255
	8.381206	55.80247
	8.375858	55.8038
	8.374157	55.80346
	8.373428	55.80765
	8.372027	55.80774
	8.371957	55.80896
	8.359288	55.81691
	8.354832	55.82126
	8.350781	55.82226
	8.346203	55.8186
	8.328939	55.80445
	8.327557	55.80411
	8.327228	55.80238
	8.327734	55.80032
	8.326722	55.80017
	8.325	55.80044
	8.324264	55.80076
	8.321075	55.80095
	8.318752	55.80088
	8.317645	55.80055
	8.315465	55.80046
	8.316365	55.79982
	8.313239	55.79964
	8.30739	55.79799
	8.303853	55.7974
	8.299304	55.79818
	8.292657	55.79782
	8.287905	55.79982
	8.288513	55.8005
	8.286913	55.80074
	8.286771	55.80036
	8.284048	55.80148
	8.283718	55.80087
	8.281799	55.80082
	8.280882	55.79915
	8.281491	55.79897
	8.280978	55.79824
	8.279195	55.79726
	8.278075	55.79797
	8.277301	55.79739
	8.270991	55.79723
	8.268421	55.79928
	8.268369	55.80068
	8.266464	55.80126
	8.261813	55.80434
	8.242182	55.81279
	8.239651	55.81256
	8.234316	55.81179
	8.230349	55.81195
	8.226313	55.81241
	8.224056	55.81437
	8.223645	55.81675
	8.224275	55.8197
	8.226135	55.82122
	8.229096	55.82535
	8.220178	55.82786
	8.204788	55.83242
	8.198703	55.83219
	8.195712	55.83232
	8.191638	55.83216
	8.185281	55.83133
	8.1811	55.83066
	8.180262	55.83067
	8.180315	55.83029
	8.179977	55.82962
	8.180208	55.82937
	8.180219	55.82885
	8.17994	55.82816
	8.17994	55.82784
	8.179768	55.82737
	8.17965	55.82685
	8.179479	55.82645
	8.179554	55.82587
	8.180032	55.82628
	8.180273	55.82634
	8.180761	55.82679
	8.180948	55.82678
	8.181142	55.8267
	8.180857	55.82621
	8.180142	55.82567
	8.179846	55.8253
	8.179692	55.82566
	8.17935	55.82553
	8.179455	55.8252
	8.179752	55.82479
	8.17969	55.82462
	8.180055	55.82447
	8.180574	55.82442
	8.180942	55.8244
	8.18132	55.82428
	8.181577	55.82415
	8.181899	55.82392
	8.182543	55.82412
	8.183152	55.82391
	8.183966	55.82376
	8.184426	55.8235
	8.185401	55.82299
	8.185701	55.82291
	8.185862	55.82278
	8.18656	55.82197
	8.185508	55.82237
	8.184711	55.82223
	8.184817	55.82203
	8.185079	55.82178
	8.185738	55.82139
	8.185906	55.8212
	8.186185	55.82104
	8.18695	55.8207
	8.187069	55.8207
	8.187116	55.82078
	8.187004	55.82093
	8.18699	55.8211
	8.187045	55.8213
	8.187202	55.82141
	8.187375	55.82143
	8.187579	55.82137
	8.187759	55.8213
	8.188515	55.82045
	8.188739	55.82024
	8.188889	55.82013
	8.189032	55.81988
	8.189234	55.81967
	8.189425	55.81948
	8.189687	55.81933
	8.189746	55.81925
	8.189687	55.81918
	8.189606	55.81912
	8.189778	55.81889
	8.190294	55.81799
	8.190263	55.81769
	8.189676	55.81765
	8.188855	55.81822
	8.188067	55.81864
	8.187313	55.81864
	8.186587	55.8185
	8.186115	55.81867
	8.184292	55.81889
	8.184604	55.81939
	8.182193	55.82087
	8.182021	55.82083
	8.181551	55.82086
	8.181188	55.82085
	8.180731	55.82078
	8.180525	55.82073
	8.180304	55.82066
	8.179878	55.82049
	8.178478	55.81975
	8.17837	55.81971
	8.177487	55.81945
	8.17629	55.81849
	8.175826	55.81763
	8.176019	55.81698
	8.172796	55.81586
	8.171181	55.81566
	7.77988	55.80972
	7.848463	56.75977
	8.228021	56.7121
	8.237386	56.6966
	8.321529	56.68228
	8.403059	56.66079
	8.402942	56.67068
	8.399902	56.67593
	8.40133	56.67758
	8.433861	56.68087
	8.462225	56.6913
	8.4907	56.68257
	8.514319	56.67426
	8.537717	56.69069
	8.59905	56.69966
	8.629953	56.66765
	8.665271	56.66207
	8.774498	56.67899
	8.85254	56.75505
	8.854413	56.76977
	8.902487	56.78448
	8.933704	56.87022
	9.141608	56.84599
	9.16346	56.75437
	9.195263	56.70627
	9.146409	56.68073
	9.167012	56.66126
	9.264706	56.64788
	9.319609	56.67217
	9.321424	56.67268
	9.322828	56.66964
	9.330943	56.66804
	9.331964	56.6688
	9.3329	56.66898
	9.334963	56.67085
	9.336937	56.67099
	9.336869	56.66967
	9.342619	56.67005
	9.345257	56.67002
	9.346483	56.6705
	9.348797	56.67074
	9.349675	56.67164
	9.350814	56.67171
	9.354188	56.67146
	9.359596	56.66744
	9.363312	56.66307
	9.36457	56.6626
	9.366108	56.66254
	9.365758	56.66335
	9.368204	56.66427
	9.369113	56.66439
	9.375428	56.66417
	9.379665	56.66471
	9.380103	56.66473
	9.381014	56.66291
	9.381125	56.66287
	9.381869	56.66277
	9.382001	56.66278
	9.382062	56.66199
	9.384255	56.66015
	9.391712	56.66089
	9.390747	56.65995
	9.394644	56.65354
	9.397659	56.65181
	9.406743	56.65056
	9.423759	56.64629
	9.418798	56.64134
	9.425419	56.64029
	9.43321	56.63897
	9.439482	56.6381
	9.442347	56.63756
	9.444059	56.63761
	9.447553	56.63721
	9.451397	56.63729
	9.452905	56.63756
	9.455411	56.6369
	9.454856	56.63787
	9.454541	56.63788
	9.454244	56.63805
	9.454262	56.63821
	9.45669	56.63905
	9.457022	56.6393
	9.456555	56.6401
	9.456585	56.64086
	9.455991	56.64126
	9.454996	56.64155
	9.455371	56.64204
	9.45629	56.64188
	9.45662	56.6421
	9.457135	56.64224
	9.457407	56.64257
	9.457377	56.64301
	9.455395	56.6439
	9.456236	56.64428
	9.456184	56.64499
	9.455537	56.64601
	9.455909	56.64651
	9.456028	56.64702
	9.455799	56.64707
	9.455845	56.6475
	9.456341	56.64771
	9.457162	56.64833
	9.457756	56.64847
	9.457459	56.64892
	9.457135	56.64905
	9.45716	56.64963
	9.45835	56.64953
	9.458707	56.64919
	9.459212	56.6495
	9.460374	56.6498
	9.460917	56.64999
	9.460472	56.65052
	9.45919	56.6509
	9.459166	56.65123
	9.46093	56.65137
	9.461633	56.65192
	9.461485	56.6527
	9.461124	56.653
	9.462127	56.65409
	9.461629	56.65444
	9.461979	56.65501
	9.463795	56.65548
	9.463813	56.65584
	9.464459	56.65613
	9.464739	56.65635
	9.465158	56.65638
	9.4657	56.65635
	9.465752	56.65654
	9.465246	56.65711
	9.464128	56.6581
	9.463795	56.65835
	9.464005	56.65854
	9.464582	56.65861
	9.464407	56.659
	9.463988	56.65918
	9.464355	56.65947
	9.464896	56.65968
	9.464896	56.65987
	9.464023	56.66002
	9.463691	56.66039
	9.463603	56.6607
	9.46397	56.66087
	9.464442	56.66097
	9.463551	56.66153
	9.463708	56.66174
	9.463726	56.66195
	9.464145	56.66207
	9.464075	56.66252
	9.464582	56.66263
	9.465298	56.66312
	9.466259	56.6633
	9.466364	56.66346
	9.465857	56.66367
	9.465927	56.66384
	9.466713	56.66402
	9.46722	56.6644
	9.466958	56.66473
	9.467167	56.66499
	9.467377	56.66546
	9.467849	56.66523
	9.468233	56.66521
	9.469351	56.66541
	9.469997	56.66525
	9.470155	56.66556
	9.470749	56.66618
	9.47129	56.66626
	9.471535	56.66648
	9.471273	56.66684
	9.472967	56.66739
	9.47447	56.66739
	9.475099	56.66772
	9.47454	56.66814
	9.475623	56.66857
	9.47571	56.6693
	9.475623	56.66989
	9.476269	56.66997
	9.476479	56.67015
	9.475623	56.67028
	9.475308	56.67048
	9.474645	56.67065
	9.474452	56.6709
	9.475483	56.67149
	9.475867	56.67202
	9.477003	56.67272
	9.477842	56.67255
	9.477702	56.67327
	9.477055	56.67397
	9.4773	56.67429
	9.47723	56.67468
	9.479571	56.67425
	9.48172	56.67443
	9.481545	56.67598
	9.489206	56.67514
	9.489255	56.67534
	9.492368	56.67528
	9.492763	56.67667
	9.494147	56.67665
	9.49545	56.68237
	9.498953	56.68221
	9.498883	56.68185
	9.499468	56.68181
	9.49987	56.68217
	9.503198	56.68201
	9.503364	56.68191
	9.503128	56.68082
	9.504788	56.68072
	9.505329	56.68324
	9.515899	56.68242
	9.51637	56.68016
	9.52281	56.68
	9.525282	56.68067
	9.525728	56.68096
	9.525841	56.68012
	9.525483	56.67995
	9.525317	56.67925
	9.527003	56.67885
	9.527344	56.67981
	9.529003	56.6794
	9.522845	56.67214
	9.521875	56.66898
	9.52457	56.67079
	9.524892	56.66981
	9.52693	56.66979
	9.527029	56.66955
	9.529388	56.6701
	9.529722	56.67056
	9.531241	56.67068
	9.533032	56.67114
	9.53428	56.66669
	9.538307	56.66715
	9.53832	56.66683
	9.538134	56.66628
	9.538282	56.6661
	9.538814	56.66481
	9.538529	56.6646
	9.538554	56.6643
	9.541556	56.66343
	9.537652	56.66104
	9.534329	56.66056
	9.534873	56.65864
	9.535182	56.6585
	9.531488	56.65626
	9.528486	56.65665
	9.527696	56.65585
	9.530525	56.65206
	9.531254	56.65093
	9.536451	56.65395
	9.538801	56.65315
	9.537702	56.65061
	9.543397	56.65026
	9.54772	56.64962
	9.54819	56.64993
	9.568454	56.64848
	9.568314	56.64804
	9.569502	56.64704
	9.570061	56.64489
	9.57062	56.64424
	9.569956	56.64351
	9.568419	56.64301
	9.568017	56.64258
	9.569135	56.64125
	9.571686	56.64006
	9.57083	56.63953
	9.569537	56.63898
	9.569397	56.63858
	9.568778	56.63832
	9.568917	56.63811
	9.568471	56.63543
	9.567999	56.63506
	9.567761	56.6349
	9.567118	56.63454
	9.566856	56.63441
	9.567824	56.63417
	9.567953	56.63472
	9.569886	56.63433
	9.569702	56.63376
	9.576275	56.63222
	9.577258	56.63168
	9.579079	56.6319
	9.587295	56.63052
	9.591654	56.62977
	9.597237	56.62889
	9.599469	56.62923
	9.60389	56.62966
	9.625877	56.63191
	9.64554	56.6318
	9.667958	56.62861
	9.668398	56.62819
	9.66871	56.62794
	9.669187	56.62764
	9.669462	56.6275
	9.6699	56.62731
	9.670221	56.62703
	9.675622	56.62164
	9.675752	56.62146
	9.674788	56.62045
	9.67451	56.62009
	9.674348	56.61981
	9.674093	56.61909
	9.674066	56.61891
	9.674115	56.61809
	9.674179	56.61785
	9.674663	56.617
	9.674943	56.61671
	9.675105	56.61613
	9.674975	56.61585
	9.675668	56.61398
	9.674444	56.61325
	9.672769	56.61319
	9.67179	56.61327
	9.668383	56.61316
	9.667518	56.61347
	9.665513	56.61335
	9.664931	56.61308
	9.664259	56.61188
	9.663542	56.61177
	9.662072	56.61183
	9.660454	56.61168
	9.659395	56.61143
	9.658723	56.61102
	9.657378	56.61118
	9.656308	56.61092
	9.653778	56.61091
	9.65183	56.61017
	9.650839	56.6092
	9.650338	56.60908
	9.647809	56.6089
	9.646636	56.60837
	9.644619	56.60839
	9.644765	56.60803
	9.644391	56.60777
	9.645212	56.60674
	9.645941	56.60627
	9.646191	56.6052
	9.646861	56.60404
	9.642872	56.5906
	9.64077	56.58977
	9.638627	56.58919
	9.637975	56.58914
	9.637918	56.58901
	9.638114	56.58898
	9.638139	56.58896
	9.638547	56.58894
	9.638621	56.58891
	9.638615	56.58886
	9.638537	56.58883
	9.638269	56.58881
	9.638013	56.58883
	9.637909	56.58881
	9.637386	56.5884
	9.63691	56.58813
	9.636741	56.58742
	9.635629	56.58751
	9.635726	56.58697
	9.636685	56.58692
	9.63666	56.58666
	9.63683	56.58627
	9.635807	56.5861
	9.636225	56.58536
	9.636838	56.58482
	9.637248	56.58495
	9.637531	56.58391
	9.63778	56.5833
	9.638586	56.58263
	9.638988	56.58252
	9.639544	56.58207
	9.639423	56.58167
	9.640527	56.58118
	9.641365	56.5806
	9.642606	56.58023
	9.643626	56.57987
	9.644241	56.58021
	9.644733	56.58025
	9.646	56.58085
	9.647664	56.58151
	9.648382	56.58138
	9.649479	56.58081
	9.652221	56.58048
	9.652958	56.58056
	9.653336	56.58089
	9.653696	56.58076
	9.654471	56.58076
	9.655	56.58099
	9.654773	56.58162
	9.655416	56.58248
	9.655927	56.58272
	9.656608	56.58253
	9.657459	56.58282
	9.657742	56.58401
	9.658687	56.5844
	9.659085	56.58481
	9.660125	56.58479
	9.661316	56.58403
	9.662564	56.58447
	9.663244	56.58533
	9.663925	56.58558
	9.664663	56.58602
	9.664927	56.58548
	9.665419	56.58519
	9.666761	56.58531
	9.667575	56.58515
	9.668955	56.58594
	9.669957	56.58616
	9.671413	56.58692
	9.671375	56.58733
	9.672056	56.58763
	9.673606	56.58724
	9.674779	56.58814
	9.675384	56.58927
	9.677445	56.59009
	9.678445	56.58996
	9.679031	56.58969
	9.679636	56.58987
	9.680298	56.58974
	9.681678	56.58995
	9.682019	56.59023
	9.683286	56.58949
	9.683286	56.58905
	9.684344	56.58838
	9.685592	56.58776
	9.686311	56.58785
	9.687029	56.58772
	9.688315	56.58798
	9.688788	56.58738
	9.690055	56.58719
	9.691	56.58767
	9.691813	56.5875
	9.692513	56.5878
	9.69361	56.58746
	9.694858	56.58782
	9.695101	56.58839
	9.694368	56.58866
	9.693813	56.5891
	9.694221	56.58995
	9.695583	56.58998
	9.69659	56.5895
	9.696566	56.58886
	9.69751	56.58877
	9.698928	56.58906
	9.699849	56.58929
	9.701078	56.5891
	9.702118	56.58916
	9.703135	56.58952
	9.703867	56.58885
	9.706444	56.58773
	9.709257	56.58776
	9.710391	56.58738
	9.711265	56.58605
	9.712755	56.5857
	9.712825	56.58521
	9.713913	56.58445
	9.714433	56.58441
	9.715993	56.58341
	9.71552	56.58257
	9.715898	56.58185
	9.718309	56.58138
	9.719987	56.5815
	9.720885	56.58116
	9.722492	56.58124
	9.722445	56.58022
	9.723816	56.57991
	9.725069	56.57899
	9.726298	56.57893
	9.72703	56.57824
	9.72696	56.57699
	9.726865	56.57569
	9.727669	56.57554
	9.729501	56.5738
	9.730771	56.5717
	9.732219	56.57051
	9.737558	56.5689
	9.74134	56.56713
	9.746198	56.56421
	9.750391	56.55861
	9.751544	56.55643
	9.750646	56.55537
	9.751188	56.5553
	9.752943	56.5552
	9.754403	56.55515
	9.754652	56.55521
	9.754921	56.55541
	9.755089	56.55544
	9.755235	56.55537
	9.755648	56.55554
	9.756058	56.55575
	9.756571	56.55575
	9.757667	56.55593
	9.758792	56.55603
	9.759106	56.55599
	9.759634	56.55584
	9.76006	56.55578
	9.760824	56.55572
	9.761538	56.55576
	9.76185	56.55572
	9.762173	56.55576
	9.763267	56.55611
	9.76368	56.55589
	9.763909	56.55584
	9.765965	56.5559
	9.767785	56.55629
	9.767974	56.55707
	9.769369	56.55726
	9.770125	56.55699
	9.77152	56.55724
	9.772961	56.55798
	9.774639	56.55821
	9.775443	56.55798
	9.777023	56.55812
	9.778566	56.55866
	9.779741	56.55867
	9.780285	56.559
	9.781964	56.55935
	9.78221	56.56058
	9.783643	56.56021
	9.785792	56.56073
	9.786361	56.56089
	9.787028	56.56065
	9.78772	56.56063
	9.788238	56.56005
	9.789647	56.56028
	9.789844	56.56093
	9.791228	56.56123
	9.792439	56.56167
	9.793995	56.5619
	9.795354	56.56176
	9.795814	56.56159
	9.797145	56.56097
	9.799716	56.56123
	9.801634	56.56129
	9.804553	56.56048
	9.807238	56.5616
	9.808812	56.56133
	9.809535	56.56153
	9.811368	56.56103
	9.812478	56.56019
	9.814723	56.55974
	9.815184	56.55915
	9.816221	56.5586
	9.817303	56.55711
	9.818131	56.55705
	9.818982	56.55729
	9.820531	56.55692
	9.821409	56.55745
	9.82356	56.55711
	9.824171	56.55669
	9.824145	56.55585
	9.825177	56.55561
	9.825797	56.55507
	9.82732	56.55406
	9.82923	56.55348
	9.829875	56.55312
	9.829514	56.5524
	9.830546	56.55195
	9.830727	56.55141
	9.831424	56.55116
	9.832818	56.55047
	9.835476	56.55157
	9.837541	56.55315
	9.841	56.55305
	9.842523	56.55424
	9.845956	56.55548
	9.847376	56.55501
	9.849079	56.55479
	9.850525	56.55543
	9.852177	56.55568
	9.855119	56.55526
	9.856048	56.55452
	9.856952	56.55489
	9.858604	56.55494
	9.86214	56.55571
	9.863844	56.55547
	9.864282	56.55487
	9.866399	56.55461
	9.867432	56.55511
	9.869626	56.55507
	9.870658	56.55477
	9.875872	56.55506
	9.878789	56.55565
	9.87946	56.55649
	9.881035	56.55746
	9.877111	56.5657
	9.881785	56.56932
	9.885506	56.57207
	9.888463	56.57423
	9.891793	56.5734
	9.89483	56.57245
	9.897317	56.57195
	9.899988	56.57182
	9.903847	56.57361
	9.908093	56.57502
	9.910132	56.57587
	9.912507	56.57617
	9.919283	56.57654
	9.92158	56.5761
	9.9273	56.57707
	9.929904	56.57755
	9.93366	56.57829
	9.939649	56.57936
	9.948889	56.58109
	9.949973	56.58231
	9.951298	56.58383
	9.952155	56.58474
	9.952516	56.58515
	9.952748	56.58537
	9.953006	56.58579
	9.953393	56.58617
	9.954103	56.58695
	9.954916	56.58781
	9.956746	56.5899
	9.958336	56.59157
	9.95896	56.59414
	9.959343	56.5967
	9.960621	56.59686
	9.962841	56.59617
	9.963873	56.59648
	9.964054	56.59634
	9.966377	56.59593
	9.967538	56.59559
	9.968455	56.59525
	9.969526	56.59536
	9.970326	56.59567
	9.971384	56.59577
	9.971875	56.59563
	9.973707	56.59463
	9.974572	56.59396
	9.977954	56.59217
	9.98007	56.59185
	9.984431	56.59233
	9.987592	56.59264
	9.992334	56.59313
	9.994306	56.5933
	9.994577	56.59344
	9.996706	56.59366
	10.00165	56.59372
	10.00489	56.59437
	10.00717	56.59525
	10.0077	56.59527
	10.00831	56.59552
	10.00894	56.59576
	10.00923	56.59622
	10.00925	56.59654
	10.00862	56.59715
	10.00868	56.59744
	10.00911	56.59772
	10.0105	56.5976
	10.01341	56.59782
	10.01872	56.59867
	10.02089	56.59878
	10.02234	56.59941
	10.02338	56.59968
	10.0238	56.60016
	10.02587	56.6007
	10.02765	56.60079
	10.02936	56.60007
	10.03097	56.60013
	10.03266	56.60081
	10.03575	56.60113
	10.0371	56.60102
	10.03881	56.60152
	10.04078	56.60167
	10.04263	56.60169
	10.053	56.604
	10.05673	56.60706
	10.05965	56.60805
	10.06319	56.60823
	10.07106	56.61145
	10.07587	56.61312
	10.07874	56.61478
	10.083	56.61655
	10.08985	56.62042
	10.09511	56.62138
	10.09868	56.6217
	10.10029	56.62204
	10.10121	56.6225
	10.10095	56.62279
	10.10092	56.6232
	10.10135	56.62358
	10.10192	56.62366
	10.10242	56.62346
	10.10243	56.62329
	10.10316	56.62305
	10.10349	56.62263
	10.10437	56.62238
	10.10494	56.62237
	10.10676	56.62287
	10.10849	56.62351
	10.11092	56.6236
	10.11206	56.62451
	10.1136	56.62467
	10.11437	56.62423
	10.11451	56.62397
	10.115	56.62386
	10.11561	56.62376
	10.11597	56.62401
	10.11567	56.62446
	10.11557	56.62481
	10.11607	56.62548
	10.11594	56.62596
	10.117	56.6266
	10.11658	56.62732
	10.11647	56.62794
	10.1169	56.6284
	10.11895	56.62937
	10.11955	56.63004
	10.11966	56.63083
	10.12077	56.63256
	10.12076	56.63297
	10.12124	56.63419
	10.12254	56.63481
	10.12462	56.63665
	10.11924	56.63912
	10.11873	56.64089
	10.12179	56.64382
	10.12335	56.64647
	10.12432	56.64713
	10.12526	56.64736
	10.12632	56.64737
	10.12645	56.64758
	10.13008	56.64776
	10.13314	56.64772
	10.1335	56.64777
	10.13379	56.64811
	10.13465	56.64826
	10.13508	56.6486
	10.13782	56.64718
	10.13847	56.6466
	10.13946	56.6466
	10.14041	56.64645
	10.14107	56.64598
	10.14168	56.64614
	10.14547	56.64785
	10.15271	56.65089
	10.15702	56.65205
	10.15868	56.65208
	10.15767	56.65238
	10.15735	56.65314
	10.15708	56.65484
	10.15697	56.65641
	10.15722	56.65793
	10.15653	56.6591
	10.1557	56.66006
	10.15603	56.66097
	10.15693	56.66161
	10.15757	56.66094
	10.16122	56.66097
	10.16118	56.66137
	10.16366	56.6615
	10.16347	56.66362
	10.16265	56.66359
	10.16268	56.66303
	10.16136	56.663
	10.1611	56.66474
	10.16184	56.66462
	10.16664	56.66493
	10.16674	56.66559
	10.16667	56.66619
	10.16596	56.66682
	10.16616	56.66778
	10.16596	56.66815
	10.16594	56.66865
	10.16655	56.67023
	10.16633	56.67106
	10.16868	56.67137
	10.17225	56.67154
	10.17404	56.67214
	10.17549	56.67232
	10.17635	56.67257
	10.17755	56.67238
	10.17894	56.67242
	10.17904	56.67227
	10.17935	56.67218
	10.17964	56.67234
	10.17991	56.67233
	10.18106	56.67293
	10.1883	56.67517
	10.18839	56.67529
	10.19274	56.6768
	10.19382	56.67744
	10.19518	56.67786
	10.19678	56.67851
	10.1968	56.67861
	10.19614	56.67889
	10.19496	56.67901
	10.1947	56.67931
	10.1939	56.67963
	10.19386	56.67988
	10.19408	56.68003
	10.19392	56.68022
	10.19356	56.68042
	10.19361	56.68094
	10.19305	56.68122
	10.19297	56.68133
	10.19309	56.68166
	10.19296	56.682
	10.1938	56.68234
	10.19438	56.68283
	10.19377	56.6833
	10.19378	56.68371
	10.19406	56.68421
	10.19427	56.68445
	10.24409	56.70046
	10.30122	56.70251
	10.33806	56.70317
	11.66161	56.88664
	11.73228	56.74514
	11.28908	56.26706
END
END
