Ecuador_West
1
	-80.12896	-3.892038
	-80.12927	-3.891171
	-80.12914	-3.89063
	-80.12882	-3.889474
	-80.12832	-3.889062
	-80.12742	-3.888373
	-80.12792	-3.887975
	-80.12821	-3.887889
	-80.12901	-3.887978
	-80.12937	-3.888073
	-80.12977	-3.888275
	-80.13029	-3.88861
	-80.13116	-3.889124
	-80.13132	-3.88923
	-80.13212	-3.889854
	-80.13236	-3.889984
	-80.13267	-3.890093
	-80.13292	-3.890144
	-80.13396	-3.890083
	-80.13417	-3.890007
	-80.13561	-3.889265
	-80.13576	-3.889141
	-80.13589	-3.888972
	-80.13595	-3.888766
	-80.13599	-3.88848
	-80.136	-3.887976
	-80.13611	-3.887794
	-80.13654	-3.887458
	-80.13751	-3.886741
	-80.13913	-3.885796
	-80.14088	-3.88498
	-80.14107	-3.88488
	-80.14122	-3.88478
	-80.14153	-3.884349
	-80.14165	-3.884111
	-80.14181	-3.883987
	-80.14209	-3.883924
	-80.14236	-3.883998
	-80.14263	-3.884129
	-80.14285	-3.884213
	-80.14313	-3.884265
	-80.14336	-3.884212
	-80.14377	-3.884001
	-80.144	-3.883833
	-80.14431	-3.883506
	-80.14457	-3.883282
	-80.14546	-3.88261
	-80.14569	-3.882477
	-80.14694	-3.881937
	-80.14724	-3.881851
	-80.14749	-3.881741
	-80.148	-3.88143
	-80.14825	-3.881239
	-80.14843	-3.881036
	-80.14856	-3.880809
	-80.14913	-3.879661
	-80.14932	-3.879446
	-80.15022	-3.878648
	-80.15041	-3.878526
	-80.15064	-3.878427
	-80.15149	-3.877995
	-80.15207	-3.877593
	-80.15299	-3.876806
	-80.15332	-3.87648
	-80.154	-3.875541
	-80.15417	-3.875268
	-80.15481	-3.874144
	-80.15495	-3.873929
	-80.15515	-3.873749
	-80.15532	-3.873626
	-80.15585	-3.873291
	-80.15768	-3.872442
	-80.15792	-3.872251
	-80.15859	-3.87161
	-80.15895	-3.871008
	-80.15933	-3.870602
	-80.1595	-3.870365
	-80.15959	-3.870079
	-80.15961	-3.86969
	-80.15975	-3.869451
	-80.16031	-3.868773
	-80.16019	-3.868633
	-80.15992	-3.868502
	-80.15966	-3.868428
	-80.15902	-3.868371
	-80.15884	-3.868253
	-80.15866	-3.868077
	-80.15847	-3.867924
	-80.15834	-3.867738
	-80.15824	-3.867541
	-80.15817	-3.867322
	-80.15812	-3.86708
	-80.15808	-3.866529
	-80.15804	-3.865369
	-80.15795	-3.865057
	-80.15784	-3.864803
	-80.15767	-3.86457
	-80.15747	-3.864348
	-80.15717	-3.863769
	-80.15705	-3.862906
	-80.15711	-3.862735
	-80.1573	-3.862613
	-80.1575	-3.862593
	-80.15813	-3.862605
	-80.15837	-3.862552
	-80.1588	-3.862354
	-80.15919	-3.862086
	-80.15958	-3.861668
	-80.1597	-3.861475
	-80.15978	-3.861156
	-80.1598	-3.860926
	-80.15978	-3.860743
	-80.15969	-3.860454
	-80.15904	-3.859398
	-80.15841	-3.858491
	-80.15822	-3.858304
	-80.15804	-3.858255
	-80.15781	-3.858296
	-80.15759	-3.858372
	-80.15737	-3.858506
	-80.15682	-3.859104
	-80.15655	-3.859294
	-80.15632	-3.859313
	-80.15611	-3.859171
	-80.15601	-3.859008
	-80.15591	-3.858743
	-80.15589	-3.858501
	-80.15583	-3.858316
	-80.15567	-3.858153
	-80.1551	-3.857833
	-80.15489	-3.857679
	-80.15475	-3.857401
	-80.15449	-3.856341
	-80.15438	-3.856109
	-80.15414	-3.85599
	-80.15396	-3.855952
	-80.15301	-3.855889
	-80.1524	-3.855625
	-80.1523	-3.855462
	-80.15239	-3.855258
	-80.15261	-3.85517
	-80.15324	-3.855021
	-80.15341	-3.854875
	-80.15356	-3.854671
	-80.15365	-3.854443
	-80.15408	-3.853843
	-80.15414	-3.853638
	-80.15412	-3.853201
	-80.15415	-3.853018
	-80.15411	-3.8528
	-80.15403	-3.852534
	-80.15404	-3.852316
	-80.15414	-3.852066
	-80.15449	-3.851303
	-80.15453	-3.851063
	-80.15378	-3.850189
	-80.15369	-3.850003
	-80.15367	-3.849796
	-80.15367	-3.849487
	-80.15371	-3.849304
	-80.1538	-3.84911
	-80.15415	-3.848509
	-80.15471	-3.847796
	-80.15825	-3.844615
	-80.16035	-3.842703
	-80.16099	-3.842015
	-80.16113	-3.8418
	-80.16124	-3.841595
	-80.16125	-3.841366
	-80.16121	-3.841182
	-80.16114	-3.840997
	-80.16079	-3.840348
	-80.15996	-3.839265
	-80.1603	-3.836899
	-80.16056	-3.835528
	-80.16076	-3.834902
	-80.16106	-3.833592
	-80.16122	-3.832179
	-80.16122	-3.831628
	-80.16117	-3.831318
	-80.16089	-3.830689
	-80.16074	-3.830425
	-80.16104	-3.830297
	-80.16134	-3.830129
	-80.16168	-3.829873
	-80.16183	-3.829705
	-80.16225	-3.828848
	-80.16246	-3.828338
	-80.16263	-3.827844
	-80.16266	-3.82743
	-80.16252	-3.827093
	-80.1621	-3.826684
	-80.16104	-3.825085
	-80.16093	-3.825016
	-80.16053	-3.824958
	-80.16034	-3.824667
	-80.16023	-3.82445
	-80.16008	-3.823905
	-80.16012	-3.823592
	-80.16026	-3.823448
	-80.16046	-3.823195
	-80.16052	-3.822948
	-80.16044	-3.822741
	-80.16027	-3.822597
	-80.16025	-3.822385
	-80.16035	-3.822149
	-80.16036	-3.821943
	-80.16019	-3.821506
	-80.16002	-3.821324
	-80.15999	-3.821228
	-80.16	-3.82088
	-80.16021	-3.820736
	-80.16036	-3.820673
	-80.16059	-3.820481
	-80.161	-3.82007
	-80.16135	-3.819682
	-80.16176	-3.81933
	-80.16199	-3.819072
	-80.16211	-3.81886
	-80.16213	-3.818664
	-80.16204	-3.818595
	-80.16175	-3.818739
	-80.16152	-3.818771
	-80.16117	-3.818485
	-80.16101	-3.818033
	-80.16099	-3.817581
	-80.16107	-3.817084
	-80.16119	-3.816665
	-80.1614	-3.816177
	-80.16174	-3.81516
	-80.1616	-3.81485
	-80.16131	-3.814683
	-80.16103	-3.814591
	-80.16071	-3.814414
	-80.16042	-3.813832
	-80.16038	-3.813527
	-80.1604	-3.813247
	-80.1604	-3.812875
	-80.16009	-3.812264
	-80.16012	-3.811936
	-80.1605	-3.811184
	-80.16047	-3.810736
	-80.16034	-3.810546
	-80.15965	-3.810204
	-80.15944	-3.809754
	-80.15937	-3.809469
	-80.1592	-3.808981
	-80.15925	-3.808899
	-80.15958	-3.808564
	-80.16001	-3.807917
	-80.16049	-3.80716
	-80.16083	-3.806571
	-80.16151	-3.805454
	-80.16172	-3.805027
	-80.16202	-3.804149
	-80.16185	-3.803894
	-80.16155	-3.803864
	-80.16085	-3.803859
	-80.16023	-3.803437
	-80.16011	-3.802971
	-80.16032	-3.802602
	-80.16088	-3.802321
	-80.16185	-3.802004
	-80.16257	-3.801567
	-80.1631	-3.801184
	-80.16405	-3.800244
	-80.16434	-3.800165
	-80.16476	-3.800126
	-80.165	-3.800179
	-80.1654	-3.800168
	-80.16594	-3.799885
	-80.16626	-3.799661
	-80.16642	-3.799265
	-80.16641	-3.799075
	-80.16628	-3.79888
	-80.16617	-3.798623
	-80.16619	-3.798355
	-80.16703	-3.79756
	-80.16771	-3.796865
	-80.16814	-3.796216
	-80.16829	-3.795918
	-80.16863	-3.795556
	-80.16917	-3.795109
	-80.16967	-3.794575
	-80.17024	-3.793884
	-80.17038	-3.793674
	-80.17095	-3.792646
	-80.1711	-3.792342
	-80.1713	-3.792066
	-80.1718	-3.791435
	-80.17209	-3.791234
	-80.17247	-3.791114
	-80.17292	-3.791114
	-80.17323	-3.791399
	-80.17379	-3.792442
	-80.17403	-3.792712
	-80.17471	-3.79304
	-80.17557	-3.793315
	-80.17606	-3.793305
	-80.17615	-3.793264
	-80.17627	-3.792983
	-80.17636	-3.792305
	-80.17647	-3.79211
	-80.17676	-3.791978
	-80.17703	-3.791927
	-80.17732	-3.791749
	-80.17753	-3.791131
	-80.17746	-3.790831
	-80.17789	-3.789953
	-80.17833	-3.789268
	-80.17848	-3.788977
	-80.17958	-3.787292
	-80.1799	-3.786906
	-80.1804	-3.786404
	-80.18102	-3.786056
	-80.18171	-3.785728
	-80.18198	-3.785448
	-80.18202	-3.785161
	-80.18192	-3.784787
	-80.18162	-3.78423
	-80.1816	-3.783948
	-80.18186	-3.78346
	-80.18198	-3.783271
	-80.18208	-3.7828
	-80.18209	-3.782558
	-80.18193	-3.78126
	-80.18202	-3.780491
	-80.18232	-3.779974
	-80.1828	-3.779647
	-80.18367	-3.779229
	-80.18405	-3.778988
	-80.1846	-3.778477
	-80.18509	-3.777788
	-80.1852	-3.777576
	-80.18522	-3.777059
	-80.1852	-3.776961
	-80.18518	-3.776473
	-80.18524	-3.775674
	-80.18533	-3.775468
	-80.1855	-3.775378
	-80.18574	-3.775303
	-80.1864	-3.775455
	-80.18665	-3.775455
	-80.18696	-3.775308
	-80.18775	-3.775039
	-80.18807	-3.774988
	-80.18949	-3.775006
	-80.19065	-3.775272
	-80.19085	-3.775358
	-80.19116	-3.775588
	-80.19141	-3.775875
	-80.19169	-3.776025
	-80.19197	-3.776002
	-80.19234	-3.775687
	-80.19278	-3.775107
	-80.19266	-3.774138
	-80.19264	-3.773722
	-80.19266	-3.772396
	-80.19264	-3.771821
	-80.19267	-3.771534
	-80.19262	-3.771304
	-80.19235	-3.770759
	-80.1919	-3.770166
	-80.19168	-3.769546
	-80.1909	-3.767655
	-80.18983	-3.766011
	-80.1894	-3.765161
	-80.18918	-3.764552
	-80.18894	-3.763983
	-80.18874	-3.763322
	-80.18864	-3.762894
	-80.18879	-3.762365
	-80.18898	-3.761977
	-80.18937	-3.761605
	-80.18982	-3.761221
	-80.19028	-3.760845
	-80.19104	-3.760308
	-80.19139	-3.759981
	-80.19163	-3.759614
	-80.19175	-3.759212
	-80.19169	-3.758643
	-80.19166	-3.757379
	-80.19175	-3.756719
	-80.19224	-3.754456
	-80.19223	-3.754163
	-80.19218	-3.753991
	-80.19208	-3.753928
	-80.1918	-3.75397
	-80.19106	-3.754209
	-80.19083	-3.7543
	-80.19052	-3.75433
	-80.19025	-3.754322
	-80.18987	-3.754185
	-80.18923	-3.753776
	-80.18889	-3.753242
	-80.18883	-3.753048
	-80.18881	-3.752767
	-80.18885	-3.752509
	-80.18891	-3.752342
	-80.18905	-3.752137
	-80.18981	-3.751475
	-80.19014	-3.751226
	-80.19032	-3.751117
	-80.19067	-3.750845
	-80.19083	-3.7507
	-80.19098	-3.750538
	-80.19171	-3.749525
	-80.19179	-3.749361
	-80.19183	-3.7492
	-80.19184	-3.748994
	-80.19183	-3.748743
	-80.19176	-3.748523
	-80.19169	-3.748317
	-80.19158	-3.748133
	-80.19142	-3.747949
	-80.19123	-3.747831
	-80.19101	-3.747742
	-80.19072	-3.747683
	-80.19051	-3.747654
	-80.18869	-3.747679
	-80.1883	-3.747702
	-80.18807	-3.747742
	-80.18788	-3.747805
	-80.18766	-3.747891
	-80.18747	-3.748023
	-80.18696	-3.748416
	-80.18679	-3.748584
	-80.18566	-3.750022
	-80.18551	-3.75019
	-80.18472	-3.751448
	-80.18457	-3.751633
	-80.1842	-3.751933
	-80.18402	-3.752019
	-80.18382	-3.75206
	-80.18363	-3.751997
	-80.18345	-3.751894
	-80.18331	-3.751769
	-80.18318	-3.751623
	-80.1831	-3.751433
	-80.18301	-3.751
	-80.18296	-3.750521
	-80.18301	-3.749898
	-80.18314	-3.749127
	-80.1832	-3.748939
	-80.1834	-3.748508
	-80.18354	-3.748357
	-80.184	-3.748003
	-80.18417	-3.747904
	-80.18453	-3.747759
	-80.18469	-3.747655
	-80.18485	-3.747481
	-80.18494	-3.747271
	-80.18506	-3.7471
	-80.18526	-3.746683
	-80.18528	-3.746475
	-80.18539	-3.74629
	-80.18557	-3.746175
	-80.18575	-3.746088
	-80.18592	-3.746024
	-80.18632	-3.745927
	-80.18745	-3.745517
	-80.18778	-3.745357
	-80.18798	-3.745108
	-80.1883	-3.744783
	-80.18841	-3.744614
	-80.18849	-3.744433
	-80.18854	-3.743991
	-80.18854	-3.743796
	-80.18831	-3.742941
	-80.18818	-3.742817
	-80.18796	-3.742648
	-80.1878	-3.74257
	-80.18762	-3.742454
	-80.18724	-3.742276
	-80.18722	-3.742282
	-80.18695	-3.742214
	-80.18665	-3.742298
	-80.1864	-3.742315
	-80.18557	-3.742515
	-80.18539	-3.742527
	-80.18516	-3.742515
	-80.18498	-3.742412
	-80.18486	-3.742236
	-80.18447	-3.741271
	-80.18365	-3.740511
	-80.18343	-3.740453
	-80.18301	-3.740441
	-80.18281	-3.740504
	-80.18261	-3.740607
	-80.18242	-3.740769
	-80.18154	-3.741697
	-80.18131	-3.741834
	-80.18092	-3.74196
	-80.18061	-3.74183
	-80.18043	-3.741066
	-80.18096	-3.738744
	-80.18163	-3.737947
	-80.1818	-3.737792
	-80.18318	-3.736861
	-80.18399	-3.736172
	-80.18474	-3.734893
	-80.18475	-3.734265
	-80.18469	-3.734084
	-80.18449	-3.733987
	-80.1843	-3.73405
	-80.184	-3.734333
	-80.18382	-3.734454
	-80.18268	-3.735415
	-80.18249	-3.735565
	-80.18231	-3.735675
	-80.18211	-3.735761
	-80.18091	-3.736099
	-80.18047	-3.736138
	-80.18027	-3.736098
	-80.18008	-3.735966
	-80.18	-3.735762
	-80.17993	-3.735387
	-80.18005	-3.734431
	-80.18011	-3.734255
	-80.18031	-3.733858
	-80.18117	-3.732498
	-80.18151	-3.732151
	-80.18164	-3.731995
	-80.18202	-3.731736
	-80.18219	-3.73158
	-80.18247	-3.731254
	-80.18259	-3.731074
	-80.18262	-3.73065
	-80.18261	-3.730431
	-80.18256	-3.730235
	-80.18237	-3.729844
	-80.18221	-3.729661
	-80.18111	-3.729153
	-80.18068	-3.728996
	-80.18049	-3.728819
	-80.18036	-3.728665
	-80.18026	-3.728507
	-80.1802	-3.728322
	-80.18016	-3.728125
	-80.18024	-3.727944
	-80.18043	-3.727811
	-80.18081	-3.727593
	-80.182	-3.727231
	-80.18215	-3.727126
	-80.18231	-3.726987
	-80.18242	-3.726777
	-80.18243	-3.726577
	-80.18239	-3.724576
	-80.18248	-3.7244
	-80.18263	-3.724209
	-80.18281	-3.724071
	-80.18299	-3.723996
	-80.18315	-3.723903
	-80.18367	-3.72355
	-80.18384	-3.723411
	-80.18429	-3.722936
	-80.1846	-3.722503
	-80.18527	-3.721425
	-80.18536	-3.721266
	-80.18564	-3.720671
	-80.18572	-3.720277
	-80.18574	-3.720088
	-80.1856	-3.718625
	-80.18548	-3.718242
	-80.18526	-3.717678
	-80.18501	-3.716884
	-80.18498	-3.716687
	-80.18496	-3.716267
	-80.18501	-3.716091
	-80.18525	-3.71573
	-80.18651	-3.714125
	-80.18666	-3.713956
	-80.18683	-3.713846
	-80.18697	-3.713767
	-80.18735	-3.713598
	-80.18801	-3.71339
	-80.18837	-3.713342
	-80.18943	-3.713317
	-80.18968	-3.713275
	-80.18986	-3.713225
	-80.19012	-3.713123
	-80.19031	-3.712988
	-80.19047	-3.712819
	-80.19066	-3.712664
	-80.19092	-3.712309
	-80.19131	-3.711826
	-80.19141	-3.711668
	-80.19206	-3.710348
	-80.19222	-3.710152
	-80.19249	-3.709867
	-80.19327	-3.709211
	-80.19342	-3.709061
	-80.19367	-3.708804
	-80.19382	-3.708561
	-80.19395	-3.708128
	-80.1941	-3.707253
	-80.19415	-3.706841
	-80.19404	-3.705315
	-80.19405	-3.705126
	-80.19412	-3.704749
	-80.19423	-3.704556
	-80.19479	-3.703906
	-80.1949	-3.703737
	-80.19499	-3.703498
	-80.19502	-3.703068
	-80.1946	-3.700838
	-80.19463	-3.700362
	-80.19466	-3.700179
	-80.19474	-3.699952
	-80.19497	-3.699585
	-80.19547	-3.698646
	-80.19573	-3.698199
	-80.19666	-3.697037
	-80.19685	-3.696688
	-80.19718	-3.696278
	-80.19731	-3.695958
	-80.19749	-3.695628
	-80.19777	-3.694918
	-80.19791	-3.694483
	-80.19811	-3.693705
	-80.19828	-3.693229
	-80.19842	-3.692699
	-80.19844	-3.692349
	-80.19883	-3.691033
	-80.19928	-3.690001
	-80.19942	-3.689393
	-80.19952	-3.688781
	-80.19937	-3.688175
	-80.19895	-3.687623
	-80.19822	-3.686912
	-80.19766	-3.68633
	-80.19751	-3.685923
	-80.19728	-3.685523
	-80.19629	-3.684343
	-80.19502	-3.682569
	-80.19468	-3.681807
	-80.19465	-3.681085
	-80.19467	-3.680126
	-80.19443	-3.679662
	-80.19324	-3.678671
	-80.19259	-3.678078
	-80.19222	-3.677075
	-80.19223	-3.675845
	-80.19244	-3.671387
	-80.1924	-3.669961
	-80.19222	-3.669189
	-80.19207	-3.668323
	-80.19171	-3.667523
	-80.19113	-3.666751
	-80.19074	-3.666484
	-80.19039	-3.666511
	-80.19013	-3.666178
	-80.18969	-3.665765
	-80.18914	-3.664752
	-80.18853	-3.664313
	-80.18724	-3.664033
	-80.18674	-3.663644
	-80.18644	-3.66314
	-80.18642	-3.662408
	-80.18661	-3.661901
	-80.18726	-3.661408
	-80.18796	-3.660636
	-80.18893	-3.659292
	-80.18891	-3.658386
	-80.1883	-3.657577
	-80.18789	-3.656955
	-80.18749	-3.656666
	-80.1872	-3.656356
	-80.1873	-3.655825
	-80.18738	-3.654403
	-80.18721	-3.653573
	-80.18693	-3.65285
	-80.18651	-3.652321
	-80.18628	-3.651792
	-80.18628	-3.651305
	-80.1864	-3.650284
	-80.18627	-3.649443
	-80.18576	-3.648404
	-80.18567	-3.648182
	-80.18568	-3.647696
	-80.18583	-3.646866
	-80.18594	-3.646361
	-80.18593	-3.646248
	-80.18599	-3.645706
	-80.18588	-3.645208
	-80.18593	-3.644706
	-80.1866	-3.64381
	-80.1868	-3.643144
	-80.1865	-3.642504
	-80.18617	-3.641998
	-80.18606	-3.641678
	-80.18614	-3.640759
	-80.18662	-3.639373
	-80.18718	-3.638721
	-80.18736	-3.637855
	-80.18714	-3.637082
	-80.18673	-3.636149
	-80.18662	-3.63563
	-80.18693	-3.635057
	-80.18689	-3.633965
	-80.18696	-3.632592
	-80.1868	-3.631553
	-80.18737	-3.630541
	-80.18798	-3.629395
	-80.18845	-3.628489
	-80.18887	-3.627636
	-80.18989	-3.626232
	-80.19065	-3.625518
	-80.19162	-3.624879
	-80.19411	-3.62348
	-80.19533	-3.623077
	-80.19635	-3.622565
	-80.1972	-3.622183
	-80.19805	-3.621745
	-80.19866	-3.62133
	-80.1989	-3.62106
	-80.19891	-3.620579
	-80.19869	-3.619905
	-80.19829	-3.619296
	-80.19807	-3.618767
	-80.19765	-3.618011
	-80.19722	-3.617325
	-80.19665	-3.616642
	-80.19605	-3.61604
	-80.19351	-3.615407
	-80.19334	-3.615154
	-80.19283	-3.614581
	-80.19113	-3.612742
	-80.19051	-3.611996
	-80.19014	-3.611052
	-80.19029	-3.610585
	-80.1906	-3.610319
	-80.19076	-3.607335
	-80.19042	-3.606456
	-80.19062	-3.604231
	-80.19088	-3.603245
	-80.19086	-3.602259
	-80.19058	-3.601287
	-80.19144	-3.598449
	-80.19167	-3.597376
	-80.19205	-3.596878
	-80.19266	-3.596618
	-80.19279	-3.596091
	-80.19317	-3.595701
	-80.19377	-3.595451
	-80.19413	-3.595148
	-80.19457	-3.595023
	-80.19515	-3.594705
	-80.19561	-3.59474
	-80.1961	-3.595052
	-80.19663	-3.595106
	-80.19742	-3.595001
	-80.1978	-3.594717
	-80.19821	-3.594049
	-80.19813	-3.593886
	-80.1978	-3.593691
	-80.19772	-3.593006
	-80.1978	-3.592774
	-80.19862	-3.591822
	-80.19897	-3.591838
	-80.2003	-3.592271
	-80.20148	-3.592762
	-80.20221	-3.592723
	-80.20542	-3.59384
	-80.20704	-3.593989
	-80.20812	-3.593975
	-80.20875	-3.593994
	-80.21103	-3.592666
	-80.21199	-3.59194
	-80.21239	-3.591411
	-80.21268	-3.590589
	-80.21324	-3.589595
	-80.21376	-3.58855
	-80.21403	-3.58783
	-80.2141	-3.586655
	-80.21403	-3.584261
	-80.21434	-3.58289
	-80.21542	-3.580417
	-80.21616	-3.578524
	-80.21719	-3.576907
	-80.21785	-3.576054
	-80.21807	-3.575401
	-80.21796	-3.574642
	-80.21759	-3.573416
	-80.21711	-3.572604
	-80.21603	-3.571725
	-80.21507	-3.571232
	-80.21456	-3.570578
	-80.21374	-3.570064
	-80.2119	-3.569167
	-80.21129	-3.568407
	-80.21052	-3.566967
	-80.21015	-3.566356
	-80.21025	-3.565437
	-80.21083	-3.56489
	-80.2113	-3.564091
	-80.21186	-3.562612
	-80.21186	-3.561466
	-80.21139	-3.560414
	-80.21135	-3.560107
	-80.21145	-3.559994
	-80.21158	-3.559568
	-80.21134	-3.559163
	-80.211	-3.558725
	-80.21051	-3.558537
	-80.21035	-3.557881
	-80.20995	-3.556386
	-80.20953	-3.554968
	-80.20943	-3.554679
	-80.20868	-3.553335
	-80.20861	-3.553269
	-80.20791	-3.552991
	-80.2078	-3.552997
	-80.20697	-3.553355
	-80.20681	-3.55341
	-80.2067	-3.55342
	-80.20574	-3.553147
	-80.20559	-3.553097
	-80.2055	-3.553035
	-80.20527	-3.552523
	-80.20525	-3.552412
	-80.20544	-3.551432
	-80.20551	-3.551261
	-80.20561	-3.551169
	-80.20683	-3.550458
	-80.2072	-3.550307
	-80.2081	-3.549989
	-80.20817	-3.549927
	-80.20849	-3.549491
	-80.20862	-3.54911
	-80.20878	-3.548527
	-80.20882	-3.54833
	-80.20885	-3.547028
	-80.20884	-3.546753
	-80.20879	-3.546628
	-80.20822	-3.545907
	-80.20811	-3.545723
	-80.20804	-3.545553
	-80.2079	-3.544481
	-80.20793	-3.544238
	-80.20824	-3.543159
	-80.20893	-3.54094
	-80.20899	-3.540864
	-80.21045	-3.539963
	-80.2106	-3.53992
	-80.21074	-3.539936
	-80.21105	-3.540129
	-80.21114	-3.540149
	-80.21121	-3.540127
	-80.21127	-3.540071
	-80.2114	-3.539343
	-80.2114	-3.539218
	-80.21136	-3.539048
	-80.21128	-3.53893
	-80.21066	-3.538418
	-80.21053	-3.538303
	-80.21047	-3.538218
	-80.21043	-3.5381
	-80.2104	-3.537871
	-80.21042	-3.53651
	-80.2104	-3.536402
	-80.21034	-3.536333
	-80.21023	-3.536258
	-80.21011	-3.536254
	-80.20997	-3.53631
	-80.20905	-3.537215
	-80.20839	-3.537566
	-80.20822	-3.537582
	-80.20811	-3.537556
	-80.20769	-3.537225
	-80.20762	-3.537139
	-80.20759	-3.537028
	-80.20761	-3.535428
	-80.20757	-3.535316
	-80.20749	-3.535212
	-80.20682	-3.53473
	-80.20673	-3.534631
	-80.20669	-3.534536
	-80.20685	-3.533644
	-80.2069	-3.533497
	-80.20699	-3.533392
	-80.2071	-3.533339
	-80.20792	-3.533231
	-80.20809	-3.533179
	-80.20834	-3.532897
	-80.20835	-3.532792
	-80.20829	-3.532372
	-80.2082	-3.532247
	-80.20811	-3.532169
	-80.20766	-3.532008
	-80.20758	-3.531962
	-80.20755	-3.531903
	-80.20754	-3.531821
	-80.20767	-3.531638
	-80.20781	-3.531487
	-80.20808	-3.531343
	-80.20821	-3.531293
	-80.20832	-3.531198
	-80.20838	-3.531113
	-80.20844	-3.530798
	-80.2085	-3.53068
	-80.20862	-3.530611
	-80.20874	-3.530585
	-80.20889	-3.530602
	-80.20907	-3.530713
	-80.20924	-3.530959
	-80.20929	-3.531097
	-80.20928	-3.531539
	-80.20936	-3.531769
	-80.20946	-3.531861
	-80.2096	-3.531893
	-80.20971	-3.531861
	-80.21049	-3.531077
	-80.21064	-3.530982
	-80.21077	-3.530972
	-80.21105	-3.531018
	-80.21119	-3.531005
	-80.21135	-3.530883
	-80.21145	-3.530746
	-80.21146	-3.530608
	-80.21129	-3.530159
	-80.21119	-3.529962
	-80.20978	-3.528759
	-80.20973	-3.528624
	-80.20973	-3.528506
	-80.20992	-3.528175
	-80.21001	-3.528077
	-80.21068	-3.527739
	-80.21078	-3.527667
	-80.21083	-3.527559
	-80.21079	-3.526814
	-80.21083	-3.526696
	-80.21092	-3.526608
	-80.21104	-3.526565
	-80.21138	-3.526516
	-80.21164	-3.5265
	-80.21265	-3.526664
	-80.21283	-3.526664
	-80.21412	-3.526319
	-80.21438	-3.526208
	-80.21572	-3.525352
	-80.2158	-3.525218
	-80.21607	-3.524322
	-80.21606	-3.524227
	-80.21598	-3.524132
	-80.21494	-3.523404
	-80.21487	-3.52327
	-80.21484	-3.523168
	-80.21485	-3.523031
	-80.21505	-3.522365
	-80.21501	-3.522263
	-80.21494	-3.522185
	-80.21476	-3.522099
	-80.21459	-3.521994
	-80.21433	-3.521749
	-80.21415	-3.521549
	-80.21399	-3.521453
	-80.21362	-3.521378
	-80.21353	-3.521339
	-80.21344	-3.521267
	-80.21335	-3.521155
	-80.21323	-3.520857
	-80.21314	-3.520811
	-80.21294	-3.520788
	-80.21278	-3.520745
	-80.21141	-3.520017
	-80.21133	-3.519903
	-80.2113	-3.519827
	-80.21118	-3.519087
	-80.2112	-3.518885
	-80.21135	-3.518547
	-80.21147	-3.518379
	-80.21158	-3.518311
	-80.21191	-3.518196
	-80.21203	-3.5182
	-80.21216	-3.518235
	-80.21282	-3.518767
	-80.21292	-3.518771
	-80.213	-3.518748
	-80.21309	-3.518505
	-80.21315	-3.518402
	-80.21426	-3.517671
	-80.2144	-3.517619
	-80.21474	-3.517599
	-80.21482	-3.517566
	-80.21485	-3.517518
	-80.21495	-3.517002
	-80.21472	-3.515065
	-80.21463	-3.514473
	-80.21462	-3.514306
	-80.21465	-3.514149
	-80.2151	-3.513399
	-80.21562	-3.512779
	-80.21573	-3.512745
	-80.21651	-3.512745
	-80.21691	-3.512568
	-80.21709	-3.512397
	-80.21786	-3.511232
	-80.21794	-3.511012
	-80.2179	-3.510871
	-80.21751	-3.510346
	-80.21736	-3.510213
	-80.21692	-3.509992
	-80.2168	-3.5099
	-80.21668	-3.509706
	-80.21632	-3.508751
	-80.2163	-3.508549
	-80.21633	-3.508329
	-80.2167	-3.507244
	-80.21675	-3.50691
	-80.21637	-3.505585
	-80.21626	-3.505479
	-80.21513	-3.504565
	-80.21509	-3.504481
	-80.21509	-3.504344
	-80.21518	-3.503907
	-80.21517	-3.50372
	-80.21503	-3.503366
	-80.21498	-3.502716
	-80.21505	-3.502487
	-80.21516	-3.502308
	-80.21577	-3.501734
	-80.21582	-3.501623
	-80.21583	-3.501464
	-80.21575	-3.501007
	-80.21579	-3.50084
	-80.21588	-3.500634
	-80.216	-3.500463
	-80.2171	-3.499677
	-80.21721	-3.499615
	-80.21838	-3.499264
	-80.21857	-3.499241
	-80.2191	-3.499313
	-80.21925	-3.499363
	-80.21978	-3.499877
	-80.21992	-3.499953
	-80.22006	-3.499983
	-80.22102	-3.49996
	-80.22115	-3.499976
	-80.22124	-3.500071
	-80.22145	-3.500817
	-80.22152	-3.500977
	-80.22179	-3.501285
	-80.2219	-3.501334
	-80.22205	-3.501327
	-80.22218	-3.501251
	-80.2223	-3.50114
	-80.22238	-3.500885
	-80.22246	-3.500741
	-80.22258	-3.500619
	-80.2231	-3.500512
	-80.22323	-3.500537
	-80.22332	-3.500592
	-80.22367	-3.500973
	-80.22371	-3.501079
	-80.22368	-3.501193
	-80.22348	-3.501536
	-80.22346	-3.501654
	-80.22348	-3.501768
	-80.22363	-3.501928
	-80.22378	-3.502038
	-80.22393	-3.502069
	-80.2249	-3.501741
	-80.22509	-3.501532
	-80.22518	-3.501106
	-80.22518	-3.500931
	-80.22508	-3.500581
	-80.22507	-3.500455
	-80.2251	-3.500341
	-80.22534	-3.500113
	-80.22545	-3.500109
	-80.22553	-3.500158
	-80.22579	-3.500432
	-80.22585	-3.500558
	-80.22574	-3.500999
	-80.22577	-3.50111
	-80.22588	-3.501174
	-80.22603	-3.501182
	-80.22631	-3.50098
	-80.2264	-3.500954
	-80.2265	-3.501026
	-80.22658	-3.501403
	-80.2265	-3.501581
	-80.22632	-3.501798
	-80.2263	-3.501897
	-80.22634	-3.501977
	-80.22648	-3.502074
	-80.22667	-3.50205
	-80.2269	-3.501905
	-80.22701	-3.501863
	-80.22713	-3.501882
	-80.22797	-3.502297
	-80.22806	-3.502312
	-80.22817	-3.50227
	-80.22859	-3.50189
	-80.22868	-3.501859
	-80.22929	-3.501909
	-80.2294	-3.501867
	-80.22944	-3.501825
	-80.22944	-3.50176
	-80.22916	-3.501342
	-80.22913	-3.50122
	-80.22916	-3.501091
	-80.22924	-3.500969
	-80.22937	-3.500904
	-80.22968	-3.500946
	-80.22992	-3.50076
	-80.22997	-3.500642
	-80.22996	-3.500562
	-80.22991	-3.500497
	-80.22945	-3.500215
	-80.22939	-3.500139
	-80.22939	-3.500044
	-80.22943	-3.499892
	-80.22954	-3.499782
	-80.22981	-3.499648
	-80.22993	-3.499553
	-80.22997	-3.499473
	-80.22969	-3.498206
	-80.22969	-3.498103
	-80.22973	-3.498054
	-80.23006	-3.498042
	-80.2301	-3.497993
	-80.23019	-3.497631
	-80.23026	-3.497426
	-80.23072	-3.496634
	-80.23072	-3.496524
	-80.23069	-3.496436
	-80.23062	-3.496368
	-80.23023	-3.496181
	-80.23014	-3.496117
	-80.23014	-3.496029
	-80.23072	-3.495196
	-80.23074	-3.495089
	-80.2306	-3.494606
	-80.23065	-3.494534
	-80.2307	-3.494499
	-80.23099	-3.494587
	-80.23112	-3.494556
	-80.23128	-3.494263
	-80.23127	-3.494149
	-80.23101	-3.493841
	-80.23097	-3.493765
	-80.23101	-3.493696
	-80.2321	-3.492642
	-80.23234	-3.492501
	-80.23258	-3.492501
	-80.23285	-3.492589
	-80.23295	-3.4926
	-80.23301	-3.492536
	-80.233	-3.492433
	-80.23284	-3.491782
	-80.23286	-3.491634
	-80.23304	-3.491265
	-80.23304	-3.491131
	-80.23299	-3.491021
	-80.23288	-3.490922
	-80.23251	-3.490766
	-80.23242	-3.490705
	-80.23237	-3.490584
	-80.23234	-3.490412
	-80.23238	-3.490313
	-80.23244	-3.49026
	-80.23276	-3.490142
	-80.23279	-3.490077
	-80.23279	-3.489887
	-80.23282	-3.489819
	-80.23308	-3.489587
	-80.23311	-3.48951
	-80.23311	-3.489229
	-80.23316	-3.489171
	-80.23356	-3.489137
	-80.23377	-3.489141
	-80.23429	-3.489647
	-80.23438	-3.489693
	-80.23446	-3.489655
	-80.23451	-3.489564
	-80.23452	-3.488993
	-80.23456	-3.488867
	-80.23527	-3.488072
	-80.23534	-3.487916
	-80.23535	-3.487802
	-80.23522	-3.487341
	-80.23525	-3.487254
	-80.23533	-3.487181
	-80.23588	-3.487136
	-80.23598	-3.487109
	-80.23604	-3.487048
	-80.23625	-3.486569
	-80.23633	-3.486477
	-80.23643	-3.486432
	-80.23676	-3.486413
	-80.23708	-3.486295
	-80.2373	-3.486348
	-80.2374	-3.486409
	-80.23747	-3.486508
	-80.23745	-3.486862
	-80.2375	-3.486976
	-80.23785	-3.487204
	-80.23816	-3.487212
	-80.23827	-3.487235
	-80.23835	-3.487303
	-80.23869	-3.488384
	-80.23878	-3.488502
	-80.23932	-3.488928
	-80.23947	-3.489004
	-80.23958	-3.489023
	-80.23976	-3.489023
	-80.24042	-3.488734
	-80.24054	-3.488639
	-80.24095	-3.487999
	-80.24096	-3.4879
	-80.24092	-3.487828
	-80.24052	-3.487512
	-80.24041	-3.487379
	-80.24038	-3.487238
	-80.24039	-3.487124
	-80.24065	-3.486656
	-80.24066	-3.486523
	-80.24062	-3.486367
	-80.24063	-3.486283
	-80.24077	-3.486154
	-80.24086	-3.486097
	-80.24111	-3.486127
	-80.24121	-3.486184
	-80.24149	-3.486515
	-80.24179	-3.486698
	-80.24191	-3.486694
	-80.24241	-3.486496
	-80.24259	-3.486466
	-80.24275	-3.486481
	-80.24297	-3.486534
	-80.24307	-3.486538
	-80.24318	-3.486504
	-80.24326	-3.486428
	-80.24333	-3.486318
	-80.24332	-3.48623
	-80.24328	-3.486135
	-80.24313	-3.485887
	-80.24311	-3.485804
	-80.24316	-3.485708
	-80.24328	-3.485636
	-80.24341	-3.485587
	-80.24362	-3.485575
	-80.24371	-3.485594
	-80.24378	-3.485659
	-80.2438	-3.485941
	-80.24384	-3.486078
	-80.24395	-3.48631
	-80.24396	-3.486435
	-80.24389	-3.48674
	-80.24388	-3.48685
	-80.2439	-3.48696
	-80.24411	-3.48741
	-80.24417	-3.487486
	-80.24496	-3.487763
	-80.24514	-3.487779
	-80.24529	-3.487714
	-80.24556	-3.487497
	-80.24563	-3.487402
	-80.24564	-3.48725
	-80.2456	-3.487166
	-80.24554	-3.487113
	-80.24547	-3.487105
	-80.24517	-3.487128
	-80.24508	-3.487094
	-80.24501	-3.487029
	-80.24496	-3.486926
	-80.24496	-3.486823
	-80.245	-3.486724
	-80.24508	-3.486667
	-80.24539	-3.486652
	-80.24546	-3.486584
	-80.24548	-3.486523
	-80.24549	-3.48626
	-80.24553	-3.486169
	-80.24575	-3.485956
	-80.24581	-3.485872
	-80.24582	-3.48575
	-80.2456	-3.485385
	-80.24551	-3.485197
	-80.24545	-3.484903
	-80.24538	-3.484746
	-80.24529	-3.484693
	-80.24466	-3.484648
	-80.24446	-3.484555
	-80.24379	-3.483625
	-80.24382	-3.483368
	-80.24396	-3.482792
	-80.24396	-3.482564
	-80.24386	-3.482373
	-80.2435	-3.482272
	-80.24323	-3.481909
	-80.24311	-3.481283
	-80.2433	-3.480671
	-80.24356	-3.479945
	-80.24396	-3.479709
	-80.24435	-3.479732
	-80.24493	-3.479459
	-80.2451	-3.4792
	-80.24511	-3.479002
	-80.24506	-3.478849
	-80.24494	-3.478677
	-80.24485	-3.478429
	-80.24473	-3.478309
	-80.24452	-3.478251
	-80.24433	-3.478337
	-80.24388	-3.478338
	-80.24346	-3.478126
	-80.24269	-3.478106
	-80.24246	-3.478287
	-80.24172	-3.478134
	-80.2412	-3.477825
	-80.23988	-3.477349
	-80.2396	-3.477131
	-80.23958	-3.477005
	-80.23991	-3.476742
	-80.23988	-3.476524
	-80.23995	-3.476042
	-80.24011	-3.475204
	-80.24034	-3.474599
	-80.24046	-3.474028
	-80.24069	-3.473216
	-80.2407	-3.472923
	-80.24061	-3.472823
	-80.24044	-3.472786
	-80.2402	-3.473032
	-80.23986	-3.473146
	-80.23966	-3.473047
	-80.23948	-3.472847
	-80.23946	-3.47249
	-80.2395	-3.472288
	-80.2397	-3.472097
	-80.23974	-3.471853
	-80.23976	-3.471277
	-80.23983	-3.470746
	-80.2399	-3.470533
	-80.24007	-3.470347
	-80.24024	-3.47029
	-80.24047	-3.470305
	-80.24078	-3.470472
	-80.24111	-3.470746
	-80.24125	-3.470765
	-80.24139	-3.470712
	-80.24147	-3.470549
	-80.24151	-3.470278
	-80.2416	-3.470141
	-80.24192	-3.47008
	-80.24218	-3.470001
	-80.24233	-3.46992
	-80.24238	-3.469753
	-80.24237	-3.46962
	-80.24223	-3.469464
	-80.24212	-3.469121
	-80.24214	-3.468946
	-80.24222	-3.46884
	-80.2424	-3.468748
	-80.24253	-3.468273
	-80.2427	-3.467831
	-80.24276	-3.467423
	-80.2429	-3.467093
	-80.24313	-3.46675
	-80.24318	-3.466575
	-80.24306	-3.466275
	-80.2428	-3.466107
	-80.24271	-3.465932
	-80.24259	-3.465571
	-80.24214	-3.465179
	-80.24198	-3.464916
	-80.24179	-3.464528
	-80.24164	-3.46441
	-80.24086	-3.464182
	-80.24057	-3.464064
	-80.24045	-3.463933
	-80.2404	-3.463599
	-80.24041	-3.463291
	-80.24058	-3.462587
	-80.24083	-3.462271
	-80.24106	-3.462081
	-80.24118	-3.461722
	-80.24076	-3.461068
	-80.23976	-3.460028
	-80.23932	-3.459457
	-80.23868	-3.459126
	-80.23774	-3.458787
	-80.23749	-3.458489
	-80.23737	-3.45778
	-80.23726	-3.45755
	-80.23699	-3.457318
	-80.23635	-3.457149
	-80.23544	-3.456809
	-80.23489	-3.456501
	-80.23341	-3.454986
	-80.23288	-3.454296
	-80.23262	-3.453629
	-80.23235	-3.452797
	-80.23222	-3.452053
	-80.23217	-3.451652
	-80.23193	-3.451463
	-80.23132	-3.451394
	-80.2303	-3.451683
	-80.23012	-3.451663
	-80.22947	-3.451398
	-80.22893	-3.451286
	-80.22848	-3.450835
	-80.22822	-3.450434
	-80.22767	-3.450114
	-80.22749	-3.449766
	-80.22749	-3.449374
	-80.22731	-3.449099
	-80.22685	-3.44888
	-80.22621	-3.448914
	-80.22584	-3.448858
	-80.22565	-3.448672
	-80.2255	-3.448291
	-80.22528	-3.448089
	-80.22475	-3.448072
	-80.22419	-3.447861
	-80.22387	-3.447552
	-80.22366	-3.447187
	-80.22327	-3.446916
	-80.22257	-3.446709
	-80.22215	-3.446435
	-80.22178	-3.446035
	-80.22158	-3.445371
	-80.22108	-3.444367
	-80.22099	-3.443995
	-80.2211	-3.443583
	-80.22174	-3.442258
	-80.22175	-3.441801
	-80.22187	-3.441305
	-80.22186	-3.440019
	-80.22167	-3.43935
	-80.22108	-3.438116
	-80.2261	-3.431515
	-80.22829	-3.427663
	-80.23026	-3.423634
	-80.23289	-3.4212
	-80.24952	-3.412346
	-80.26464	-3.408838
	-80.28112	-3.409788
	-80.29117	-3.406115
	-80.30337	-3.395114
	-80.30694	-3.39347
	-80.46399	-3.392125
	-84.47572	-3.392125
	-93.992	-2.530567
	-93.37618	3.534259
	-86.67577	3.646895
	-81.95465	3.726251
	-80.24269	2.387131
	-79.06967	1.469581
	-78.86869	1.469581
	-78.86725	1.466523
	-78.86612	1.465089
	-78.86485	1.463656
	-78.86349	1.462561
	-78.86181	1.461406
	-78.86031	1.460976
	-78.8592	1.460486
	-78.85772	1.460037
	-78.85563	1.459057
	-78.8543	1.458506
	-78.8532	1.457866
	-78.85234	1.457307
	-78.85092	1.456436
	-78.84967	1.455896
	-78.84879	1.455266
	-78.84801	1.454337
	-78.84745	1.453506
	-78.84664	1.452566
	-78.84535	1.451226
	-78.84477	1.450326
	-78.84403	1.449296
	-78.84283	1.447366
	-78.84158	1.446106
	-78.84074	1.445086
	-78.83986	1.444376
	-78.83897	1.443596
	-78.83812	1.443037
	-78.83636	1.442136
	-78.83537	1.441737
	-78.83402	1.441316
	-78.83189	1.440866
	-78.83077	1.440636
	-78.82903	1.440396
	-78.82736	1.440256
	-78.82617	1.440167
	-78.82517	1.440066
	-78.82395	1.439996
	-78.82282	1.439776
	-78.82167	1.439097
	-78.82058	1.438037
	-78.81979	1.437126
	-78.81921	1.436296
	-78.8181	1.434837
	-78.81705	1.433546
	-78.81433	1.430014
	-78.8124	1.429069
	-78.8106	1.428736
	-78.80809	1.428547
	-78.8061	1.428345
	-78.80399	1.428145
	-78.80199	1.42716
	-78.80052	1.426216
	-78.79937	1.424738
	-78.7986	1.421964
	-78.7961	1.414135
	-78.7957	1.413602
	-78.79509	1.41233
	-78.7946	1.411064
	-78.79441	1.410227
	-78.79411	1.409522
	-78.7938	1.408811
	-78.79347	1.408158
	-78.79282	1.407247
	-78.79216	1.40672
	-78.79205	1.406678
	-78.79131	1.406383
	-78.79029	1.406182
	-78.78929	1.406103
	-78.7883	1.406075
	-78.78781	1.40611
	-78.78713	1.406116
	-78.7862	1.406082
	-78.78544	1.406013
	-78.78465	1.405842
	-78.7842	1.40571
	-78.78375	1.40551
	-78.78322	1.405275
	-78.78269	1.404949
	-78.78212	1.404502
	-78.7818	1.404135
	-78.78159	1.403391
	-78.78155	1.402617
	-78.78145	1.401665
	-78.78143	1.400926
	-78.7808	1.398754
	-78.78057	1.397802
	-78.78006	1.396346
	-78.77986	1.395292
	-78.7798	1.394816
	-78.77979	1.393641
	-78.77964	1.392885
	-78.77945	1.392415
	-78.77932	1.391917
	-78.77871	1.391481
	-78.77814	1.390988
	-78.7766	1.390519
	-78.77532	1.390319
	-78.77425	1.390281
	-78.77309	1.39024
	-78.77187	1.390396
	-78.77042	1.390523
	-78.76945	1.390643
	-78.76773	1.390696
	-78.76685	1.390903
	-78.76622	1.391242
	-78.7654	1.391804
	-78.76457	1.392423
	-78.76352	1.393026
	-78.76244	1.393078
	-78.76103	1.393113
	-78.75877	1.393011
	-78.75682	1.39272
	-78.75494	1.391638
	-78.75347	1.390377
	-78.75233	1.389438
	-78.75164	1.388189
	-78.7507	1.386682
	-78.74973	1.384813
	-78.74874	1.382848
	-78.74816	1.381651
	-78.74689	1.379301
	-78.74661	1.378647
	-78.74635	1.378429
	-78.7458	1.378183
	-78.74543	1.377925
	-78.74497	1.377381
	-78.7445	1.376997
	-78.74417	1.376895
	-78.74392	1.376848
	-78.74385	1.3767
	-78.7438	1.376442
	-78.74367	1.376138
	-78.74348	1.376047
	-78.7432	1.376201
	-78.74271	1.376568
	-78.74235	1.376861
	-78.74185	1.377107
	-78.74119	1.377016
	-78.74033	1.376775
	-78.73952	1.376289
	-78.73901	1.375791
	-78.73878	1.375452
	-78.73827	1.374783
	-78.73748	1.373843
	-78.73592	1.372078
	-78.73501	1.371345
	-78.73391	1.370571
	-78.73319	1.370004
	-78.73273	1.369512
	-78.73223	1.368997
	-78.73185	1.368659
	-78.7316	1.36836
	-78.73132	1.368165
	-78.73061	1.36824
	-78.73015	1.368332
	-78.72995	1.368527
	-78.72987	1.368998
	-78.7298	1.369433
	-78.72951	1.369726
	-78.72899	1.36995
	-78.72831	1.370007
	-78.72794	1.369841
	-78.72774	1.369629
	-78.72779	1.369399
	-78.72817	1.369205
	-78.72842	1.36905
	-78.72858	1.368597
	-78.72852	1.368287
	-78.72825	1.367881
	-78.72794	1.367778
	-78.72771	1.367841
	-78.72719	1.367887
	-78.72682	1.36803
	-78.72646	1.36818
	-78.72632	1.368311
	-78.7263	1.368593
	-78.7261	1.368856
	-78.72583	1.369074
	-78.72536	1.369177
	-78.72485	1.369287
	-78.72436	1.369224
	-78.72386	1.369092
	-78.72345	1.369018
	-78.72171	1.36907
	-78.72113	1.369105
	-78.7206	1.369066
	-78.72025	1.368951
	-78.72002	1.368739
	-78.7199	1.368527
	-78.7198	1.368287
	-78.71968	1.36773
	-78.71944	1.366974
	-78.7191	1.366327
	-78.71854	1.365742
	-78.7182	1.365352
	-78.71796	1.364968
	-78.71787	1.364676
	-78.71784	1.364344
	-78.71785	1.363994
	-78.71767	1.363541
	-78.71714	1.362733
	-78.71689	1.362458
	-78.71612	1.36192
	-78.7154	1.36153
	-78.71518	1.361399
	-78.71508	1.361164
	-78.71501	1.360889
	-78.71463	1.360677
	-78.71427	1.360717
	-78.71408	1.360797
	-78.71399	1.361004
	-78.71387	1.36133
	-78.7137	1.36152
	-78.71359	1.361629
	-78.71342	1.361629
	-78.71311	1.36156
	-78.71221	1.360735
	-78.71118	1.360014
	-78.71044	1.359389
	-78.71	1.359108
	-78.70952	1.358926
	-78.70932	1.358667
	-78.70927	1.358369
	-78.70926	1.357601
	-78.70927	1.356954
	-78.70918	1.356644
	-78.70906	1.356506
	-78.70855	1.356123
	-78.70822	1.355802
	-78.70807	1.355407
	-78.70798	1.355137
	-78.70786	1.354977
	-78.70747	1.354742
	-78.70722	1.354485
	-78.707	1.35406
	-78.70687	1.353476
	-78.70664	1.353143
	-78.70653	1.352896
	-78.70664	1.352421
	-78.70663	1.352111
	-78.70645	1.351767
	-78.70596	1.351573
	-78.70563	1.351458
	-78.70554	1.351217
	-78.70566	1.350966
	-78.70602	1.350725
	-78.70604	1.350426
	-78.70598	1.350242
	-78.70568	1.350094
	-78.70509	1.350008
	-78.7044	1.349808
	-78.70382	1.349619
	-78.70349	1.349408
	-78.7034	1.349126
	-78.7034	1.348691
	-78.70347	1.348073
	-78.70361	1.347671
	-78.70402	1.347401
	-78.70441	1.34716
	-78.70438	1.346804
	-78.70423	1.346604
	-78.70388	1.346432
	-78.70324	1.346025
	-78.70291	1.345777
	-78.70281	1.34546
	-78.70283	1.345023
	-78.70288	1.344351
	-78.70294	1.344084
	-78.70307	1.343753
	-78.7032	1.343474
	-78.70332	1.343187
	-78.70337	1.342865
	-78.70333	1.34241
	-78.70327	1.34218
	-78.70313	1.341915
	-78.70284	1.341232
	-78.70276	1.340671
	-78.70261	1.340206
	-78.70252	1.339726
	-78.70238	1.339389
	-78.7023	1.338734
	-78.70224	1.338447
	-78.7022	1.338074
	-78.70224	1.33773
	-78.70224	1.337519
	-78.70211	1.337369
	-78.70184	1.337284
	-78.70158	1.337375
	-78.70141	1.337576
	-78.70131	1.337995
	-78.70124	1.338493
	-78.7012	1.338855
	-78.70109	1.339188
	-78.70096	1.339532
	-78.70083	1.339653
	-78.70059	1.339661
	-78.70037	1.339614
	-78.70017	1.339465
	-78.69999	1.339276
	-78.69978	1.338891
	-78.69955	1.338381
	-78.69937	1.337951
	-78.69911	1.337228
	-78.69901	1.336804
	-78.699	1.336615
	-78.69898	1.336466
	-78.699	1.336219
	-78.6991	1.335972
	-78.69925	1.335857
	-78.69943	1.335609
	-78.69903	1.335659
	-78.69874	1.335626
	-78.69848	1.335659
	-78.69813	1.335823
	-78.69785	1.336021
	-78.69759	1.336169
	-78.69718	1.336268
	-78.69702	1.336169
	-78.69686	1.336004
	-78.69679	1.33579
	-78.69669	1.335575
	-78.69658	1.335394
	-78.69641	1.335229
	-78.69605	1.3349
	-78.69573	1.334603
	-78.69543	1.334487
	-78.69525	1.334487
	-78.69484	1.334454
	-78.6946	1.334339
	-78.69453	1.33419
	-78.69448	1.333976
	-78.69448	1.333663
	-78.6946	1.332394
	-78.69466	1.331735
	-78.69471	1.331472
	-78.69476	1.331191
	-78.69478	1.330928
	-78.69478	1.330648
	-78.69473	1.330434
	-78.69468	1.330252
	-78.6946	1.330005
	-78.69429	1.329741
	-78.69381	1.329708
	-78.69345	1.329823
	-78.69303	1.330053
	-78.6926	1.33035
	-78.69208	1.330531
	-78.69087	1.330877
	-78.69051	1.331058
	-78.69016	1.331205
	-78.68997	1.331419
	-78.68992	1.3317
	-78.69	1.332194
	-78.69008	1.332737
	-78.6901	1.332968
	-78.69001	1.33366
	-78.68992	1.333891
	-78.68975	1.33399
	-78.68951	1.334006
	-78.68925	1.333924
	-78.68903	1.333841
	-78.68777	1.333263
	-78.68687	1.332884
	-78.68602	1.33267
	-78.68578	1.33262
	-78.68555	1.332686
	-78.68525	1.332818
	-78.68491	1.332834
	-78.68468	1.332768
	-78.68438	1.33257
	-78.68402	1.332224
	-78.68368	1.331943
	-78.68324	1.331729
	-78.68265	1.331597
	-78.68198	1.331548
	-78.68163	1.331448
	-78.68139	1.331217
	-78.68111	1.330475
	-78.68087	1.330113
	-78.68057	1.329849
	-78.6802	1.3297
	-78.67965	1.329206
	-78.6793	1.328942
	-78.67911	1.328745
	-78.67903	1.3283
	-78.67892	1.327756
	-78.67895	1.32736
	-78.67915	1.326932
	-78.67921	1.326735
	-78.67915	1.32657
	-78.67874	1.326174
	-78.67831	1.325993
	-78.67769	1.325926
	-78.67715	1.325992
	-78.67679	1.326041
	-78.67653	1.326223
	-78.67633	1.326304
	-78.67606	1.326156
	-78.67578	1.325777
	-78.67547	1.325272
	-78.67524	1.324928
	-78.67516	1.324797
	-78.67508	1.324662
	-78.67503	1.324521
	-78.67499	1.324374
	-78.67495	1.324223
	-78.67488	1.323764
	-78.67485	1.323612
	-78.67477	1.323311
	-78.67472	1.323159
	-78.67467	1.323016
	-78.67459	1.322887
	-78.67448	1.32278
	-78.67421	1.322598
	-78.67408	1.322501
	-78.674	1.322386
	-78.67395	1.322249
	-78.67393	1.322104
	-78.67391	1.321952
	-78.67391	1.321794
	-78.67392	1.321314
	-78.67392	1.321001
	-78.67394	1.320687
	-78.67394	1.320531
	-78.67394	1.320379
	-78.67392	1.320231
	-78.67386	1.320087
	-78.67378	1.319949
	-78.67368	1.31983
	-78.67356	1.319739
	-78.67342	1.31967
	-78.67328	1.319613
	-78.67298	1.319505
	-78.67285	1.319437
	-78.67272	1.319352
	-78.6726	1.319254
	-78.67249	1.319145
	-78.67239	1.319031
	-78.67219	1.318796
	-78.67209	1.318676
	-78.67191	1.318422
	-78.67182	1.318297
	-78.67172	1.318179
	-78.67162	1.318058
	-78.6715	1.317937
	-78.67138	1.317841
	-78.67125	1.317797
	-78.67109	1.317819
	-78.67093	1.317895
	-78.67083	1.318008
	-78.67079	1.318143
	-78.67079	1.31829
	-78.67079	1.318447
	-78.67083	1.318773
	-78.67084	1.318935
	-78.67084	1.319092
	-78.67082	1.319239
	-78.67076	1.31938
	-78.67067	1.319516
	-78.67056	1.319637
	-78.67044	1.319735
	-78.67031	1.319799
	-78.67016	1.319822
	-78.67	1.319815
	-78.66984	1.319791
	-78.66969	1.319762
	-78.66954	1.319723
	-78.66939	1.319675
	-78.6691	1.319574
	-78.66895	1.319528
	-78.6688	1.31949
	-78.66866	1.319466
	-78.6685	1.319449
	-78.66833	1.319446
	-78.66818	1.319462
	-78.66804	1.319505
	-78.66791	1.319582
	-78.66781	1.319687
	-78.66771	1.319808
	-78.66752	1.320066
	-78.66742	1.320183
	-78.6673	1.320278
	-78.66716	1.320349
	-78.66673	1.320519
	-78.66658	1.320569
	-78.66644	1.320613
	-78.66614	1.320685
	-78.66583	1.320747
	-78.66568	1.320769
	-78.66553	1.320778
	-78.66538	1.320771
	-78.66523	1.320734
	-78.66495	1.320613
	-78.6648	1.320564
	-78.66449	1.320529
	-78.66435	1.320474
	-78.66409	1.320321
	-78.66383	1.320147
	-78.66359	1.319956
	-78.66347	1.319855
	-78.66336	1.319749
	-78.66315	1.319528
	-78.66283	1.31919
	-78.66261	1.318975
	-78.66249	1.318877
	-78.66223	1.318703
	-78.6621	1.318612
	-78.662	1.318505
	-78.66191	1.318381
	-78.66184	1.318248
	-78.66178	1.318107
	-78.66167	1.317814
	-78.66157	1.317518
	-78.66152	1.31737
	-78.6615	1.317217
	-78.66149	1.317062
	-78.6615	1.316909
	-78.66152	1.3166
	-78.66156	1.316293
	-78.6616	1.315985
	-78.66162	1.315832
	-78.66166	1.315682
	-78.66171	1.315537
	-78.66177	1.315395
	-78.66183	1.315256
	-78.66191	1.315119
	-78.66199	1.314986
	-78.66207	1.314856
	-78.66216	1.31473
	-78.66226	1.314615
	-78.66238	1.314506
	-78.66249	1.314395
	-78.66258	1.314274
	-78.66264	1.314138
	-78.66269	1.313988
	-78.66273	1.31383
	-78.66275	1.313672
	-78.66275	1.313519
	-78.66272	1.313378
	-78.66265	1.313246
	-78.66245	1.312988
	-78.66237	1.312856
	-78.66231	1.312717
	-78.66231	1.312565
	-78.66232	1.312407
	-78.66232	1.312251
	-78.66231	1.311922
	-78.66229	1.311759
	-78.66226	1.311607
	-78.66221	1.311477
	-78.66212	1.311373
	-78.66198	1.311292
	-78.66181	1.311239
	-78.66165	1.311222
	-78.66152	1.311251
	-78.66144	1.311367
	-78.66136	1.311526
	-78.66128	1.311664
	-78.66107	1.311911
	-78.66097	1.312029
	-78.66085	1.312131
	-78.66073	1.312207
	-78.66059	1.312248
	-78.66042	1.312259
	-78.66026	1.312244
	-78.66012	1.312206
	-78.66002	1.312099
	-78.65997	1.311935
	-78.65996	1.311781
	-78.65996	1.311621
	-78.65998	1.311461
	-78.66001	1.311311
	-78.66007	1.311179
	-78.66018	1.311068
	-78.66043	1.310868
	-78.66052	1.310751
	-78.66058	1.310612
	-78.66063	1.31046
	-78.66066	1.310301
	-78.66067	1.310143
	-78.66067	1.309992
	-78.66063	1.309849
	-78.66056	1.30971
	-78.66046	1.30958
	-78.66036	1.30946
	-78.66025	1.309354
	-78.66001	1.309165
	-78.65988	1.309077
	-78.65974	1.308999
	-78.65961	1.308917
	-78.6595	1.308811
	-78.65943	1.308679
	-78.65936	1.308541
	-78.6593	1.308396
	-78.65924	1.308247
	-78.65919	1.308095
	-78.65915	1.307943
	-78.65911	1.307791
	-78.65909	1.307642
	-78.65908	1.307498
	-78.65913	1.307359
	-78.65932	1.307086
	-78.65936	1.306944
	-78.65934	1.306762
	-78.65927	1.306605
	-78.65917	1.306561
	-78.65905	1.306612
	-78.65891	1.306707
	-78.65876	1.3068
	-78.65861	1.306852
	-78.65845	1.306875
	-78.65829	1.306871
	-78.65815	1.306828
	-78.658	1.306747
	-78.65786	1.306644
	-78.65774	1.30653
	-78.65769	1.306419
	-78.65774	1.30631
	-78.65785	1.306196
	-78.65813	1.305986
	-78.65826	1.305905
	-78.6584	1.305833
	-78.65854	1.305757
	-78.65865	1.305663
	-78.65875	1.305548
	-78.65885	1.305421
	-78.65893	1.305287
	-78.659	1.305148
	-78.65906	1.305006
	-78.65907	1.304904
	-78.65897	1.304846
	-78.65861	1.305044
	-78.65797	1.305097
	-78.65754	1.304875
	-78.65727	1.304656
	-78.65721	1.304577
	-78.65713	1.304118
	-78.65679	1.303685
	-78.65649	1.303665
	-78.65635	1.303506
	-78.65637	1.303229
	-78.65655	1.303043
	-78.65678	1.302903
	-78.65703	1.302624
	-78.65714	1.302416
	-78.65712	1.302283
	-78.65709	1.302186
	-78.65695	1.302096
	-78.65633	1.30185
	-78.65573	1.301834
	-78.65555	1.301606
	-78.65562	1.301421
	-78.65561	1.30126
	-78.65529	1.300896
	-78.65519	1.300644
	-78.65514	1.300184
	-78.65475	1.299407
	-78.65419	1.298493
	-78.65386	1.2976
	-78.65373	1.296888
	-78.6537	1.296596
	-78.65366	1.29645
	-78.65364	1.296299
	-78.65363	1.296146
	-78.65362	1.295991
	-78.65362	1.295678
	-78.65361	1.295368
	-78.65361	1.294896
	-78.6536	1.294741
	-78.65359	1.294588
	-78.65356	1.294439
	-78.65352	1.294297
	-78.65343	1.294169
	-78.65322	1.293926
	-78.65314	1.293794
	-78.65312	1.293648
	-78.65311	1.293497
	-78.65311	1.293341
	-78.65312	1.293183
	-78.65316	1.292704
	-78.65317	1.292547
	-78.65317	1.292393
	-78.65316	1.292243
	-78.65314	1.292099
	-78.65309	1.291964
	-78.653	1.291843
	-78.65288	1.291734
	-78.65275	1.291635
	-78.6525	1.291449
	-78.65224	1.291276
	-78.65198	1.291113
	-78.65145	1.2908
	-78.65106	1.290551
	-78.65092	1.290478
	-78.65078	1.290417
	-78.65064	1.290376
	-78.65049	1.290356
	-78.65033	1.29035
	-78.65002	1.290347
	-78.64987	1.290333
	-78.64972	1.290302
	-78.64957	1.290255
	-78.64914	1.29009
	-78.64899	1.290047
	-78.64884	1.290039
	-78.64869	1.290054
	-78.64854	1.290035
	-78.6484	1.289973
	-78.64813	1.289815
	-78.64799	1.289759
	-78.64784	1.289733
	-78.64753	1.289709
	-78.64738	1.289678
	-78.64708	1.289607
	-78.64678	1.289525
	-78.64664	1.289476
	-78.6465	1.28942
	-78.64637	1.289337
	-78.64626	1.289219
	-78.64619	1.289085
	-78.64612	1.288945
	-78.64607	1.2888
	-78.64602	1.288652
	-78.64598	1.288501
	-78.64594	1.28835
	-78.64589	1.288034
	-78.64588	1.287871
	-78.64589	1.287718
	-78.64595	1.287585
	-78.64603	1.287471
	-78.64614	1.287369
	-78.6464	1.287179
	-78.64653	1.287081
	-78.64664	1.286973
	-78.64674	1.286853
	-78.64691	1.286598
	-78.64706	1.286333
	-78.64721	1.28606
	-78.64757	1.285373
	-78.64763	1.285233
	-78.64775	1.284948
	-78.64787	1.284666
	-78.64807	1.284247
	-78.64819	1.283964
	-78.64838	1.283538
	-78.64844	1.283394
	-78.64849	1.283248
	-78.64852	1.2831
	-78.64854	1.282949
	-78.64854	1.282796
	-78.64854	1.282641
	-78.64852	1.282329
	-78.64851	1.282174
	-78.64854	1.281711
	-78.6486	1.280788
	-78.64862	1.28048
	-78.64864	1.280171
	-78.64866	1.279708
	-78.64867	1.279399
	-78.64867	1.278936
	-78.64866	1.278627
	-78.64863	1.278163
	-78.64861	1.277843
	-78.6486	1.277683
	-78.64858	1.277526
	-78.64855	1.277373
	-78.64851	1.277226
	-78.64845	1.277087
	-78.64838	1.276957
	-78.64821	1.276711
	-78.64803	1.276472
	-78.64793	1.276357
	-78.64772	1.276129
	-78.6475	1.275907
	-78.64728	1.275688
	-78.64671	1.275148
	-78.64638	1.274823
	-78.64616	1.274616
	-78.64581	1.274317
	-78.64546	1.274015
	-78.64489	1.273495
	-78.64432	1.272973
	-78.6441	1.272767
	-78.64398	1.272669
	-78.64384	1.272579
	-78.64371	1.272487
	-78.64361	1.272381
	-78.64356	1.27225
	-78.64357	1.272095
	-78.64359	1.271932
	-78.64359	1.271774
	-78.64357	1.271619
	-78.64354	1.271464
	-78.64351	1.271312
	-78.64346	1.27117
	-78.64338	1.271038
	-78.64328	1.270917
	-78.64317	1.270805
	-78.64306	1.270703
	-78.64293	1.270612
	-78.64266	1.270445
	-78.64253	1.270359
	-78.64242	1.270264
	-78.64232	1.270153
	-78.64228	1.270006
	-78.64227	1.269839
	-78.64224	1.269685
	-78.64215	1.269569
	-78.64204	1.269476
	-78.64191	1.269394
	-78.64163	1.269238
	-78.6415	1.269152
	-78.64125	1.268973
	-78.64112	1.268886
	-78.64099	1.268807
	-78.64085	1.268738
	-78.64071	1.268678
	-78.64057	1.268627
	-78.64042	1.268585
	-78.64027	1.268555
	-78.63981	1.268507
	-78.6392	1.26843
	-78.63905	1.268412
	-78.6389	1.268377
	-78.63875	1.268321
	-78.63861	1.268256
	-78.63847	1.268172
	-78.63838	1.268063
	-78.63831	1.26793
	-78.63826	1.267781
	-78.63823	1.267624
	-78.63818	1.267314
	-78.63816	1.267158
	-78.63816	1.267
	-78.63816	1.266844
	-78.63818	1.266692
	-78.63822	1.266547
	-78.63827	1.266401
	-78.63835	1.266259
	-78.63843	1.266127
	-78.63853	1.266011
	-78.63864	1.265915
	-78.63877	1.265833
	-78.63905	1.265691
	-78.63919	1.265614
	-78.63932	1.265529
	-78.63954	1.265482
	-78.63981	1.265462
	-78.64022	1.26544
	-78.64028	1.264933
	-78.64	1.264678
	-78.63962	1.264565
	-78.63927	1.264577
	-78.63911	1.264625
	-78.638	1.265833
	-78.63739	1.26676
	-78.63699	1.267133
	-78.63653	1.267736
	-78.63617	1.268062
	-78.63579	1.26826
	-78.63542	1.268219
	-78.63478	1.267879
	-78.63438	1.267506
	-78.63386	1.2671
	-78.63342	1.266464
	-78.63293	1.266189
	-78.63243	1.265869
	-78.63192	1.26556
	-78.63135	1.265478
	-78.63075	1.265519
	-78.63034	1.265359
	-78.63007	1.265091
	-78.63004	1.264851
	-78.63014	1.264462
	-78.6307	1.263956
	-78.63142	1.263268
	-78.6319	1.263028
	-78.63245	1.262722
	-78.6328	1.262552
	-78.63343	1.262403
	-78.63363	1.262132
	-78.63362	1.261907
	-78.63327	1.261639
	-78.63253	1.26136
	-78.63191	1.261171
	-78.63129	1.261126
	-78.63092	1.261088
	-78.63048	1.261079
	-78.62989	1.261285
	-78.62941	1.261601
	-78.62901	1.261844
	-78.62851	1.261893
	-78.62812	1.261829
	-78.62777	1.261573
	-78.62748	1.261376
	-78.62718	1.261183
	-78.62701	1.260709
	-78.62701	1.260023
	-78.62712	1.25955
	-78.62715	1.258758
	-78.62683	1.257557
	-78.62642	1.256331
	-78.62596	1.255111
	-78.62549	1.254453
	-78.62534	1.253952
	-78.62517	1.253719
	-78.62432	1.253637
	-78.62409	1.253579
	-78.62371	1.253297
	-78.62298	1.252299
	-78.62243	1.251832
	-78.62215	1.251482
	-78.62207	1.251059
	-78.62201	1.250923
	-78.62201	1.250552
	-78.62192	1.250333
	-78.62166	1.250112
	-78.62117	1.24981
	-78.62063	1.249507
	-78.62002	1.249085
	-78.61953	1.248815
	-78.61918	1.248514
	-78.61775	1.2477
	-78.61716	1.247301
	-78.61625	1.246948
	-78.6159	1.246615
	-78.61558	1.246306
	-78.61525	1.246187
	-78.61495	1.246242
	-78.61464	1.246448
	-78.61437	1.246794
	-78.614	1.247079
	-78.61359	1.247332
	-78.61307	1.247276
	-78.61249	1.247298
	-78.61197	1.247327
	-78.61153	1.247275
	-78.61106	1.247275
	-78.61083	1.247332
	-78.61071	1.247415
	-78.61061	1.247537
	-78.61048	1.247618
	-78.61034	1.247688
	-78.61019	1.247743
	-78.61005	1.247767
	-78.6099	1.247734
	-78.60974	1.247697
	-78.60959	1.247705
	-78.60943	1.247735
	-78.60928	1.247785
	-78.60917	1.247867
	-78.60912	1.248028
	-78.60915	1.248175
	-78.60922	1.248309
	-78.60931	1.24844
	-78.6094	1.248569
	-78.60949	1.248695
	-78.6096	1.248817
	-78.6097	1.248934
	-78.60981	1.249052
	-78.6099	1.249175
	-78.60996	1.249305
	-78.60997	1.249449
	-78.60995	1.249605
	-78.60991	1.249764
	-78.60988	1.249919
	-78.60986	1.250073
	-78.60984	1.250226
	-78.60982	1.250379
	-78.60982	1.250533
	-78.60983	1.250685
	-78.60985	1.250838
	-78.60988	1.250991
	-78.60991	1.251143
	-78.60994	1.251295
	-78.60996	1.251448
	-78.60998	1.251605
	-78.60999	1.251764
	-78.60997	1.251914
	-78.60991	1.252058
	-78.60984	1.252207
	-78.60974	1.252336
	-78.60962	1.252426
	-78.60949	1.252466
	-78.60934	1.252475
	-78.60918	1.252464
	-78.60902	1.252446
	-78.60886	1.252433
	-78.60871	1.252421
	-78.60855	1.252403
	-78.6084	1.252383
	-78.60825	1.252366
	-78.6081	1.252358
	-78.60794	1.252363
	-78.6078	1.252388
	-78.60765	1.252432
	-78.6075	1.252483
	-78.60735	1.252532
	-78.6072	1.252568
	-78.60705	1.252595
	-78.60688	1.25261
	-78.60674	1.252586
	-78.60662	1.252506
	-78.60652	1.252389
	-78.60643	1.252256
	-78.60634	1.252125
	-78.60623	1.252018
	-78.6061	1.251942
	-78.60596	1.251885
	-78.60581	1.251836
	-78.60566	1.251787
	-78.60552	1.251729
	-78.60537	1.251666
	-78.60522	1.2516
	-78.6051	1.251516
	-78.60501	1.2514
	-78.60496	1.251261
	-78.60493	1.251107
	-78.60491	1.250947
	-78.60487	1.250792
	-78.60482	1.250649
	-78.60473	1.250523
	-78.60463	1.250404
	-78.60453	1.25028
	-78.60447	1.250144
	-78.60442	1.249996
	-78.60439	1.249844
	-78.60438	1.249756
	-78.55861	1.249756
	-78.55808	1.249992
	-78.55731	1.250147
	-78.55663	1.250487
	-78.55583	1.250487
	-78.55389	1.250218
	-78.5514	1.249114
	-78.55059	1.248501
	-78.55017	1.247711
	-78.55015	1.246995
	-78.55069	1.245967
	-78.55087	1.24483
	-78.55087	1.244022
	-78.5506	1.243537
	-78.54995	1.243376
	-78.54882	1.243268
	-78.54774	1.243753
	-78.54645	1.244345
	-78.54575	1.244615
	-78.54483	1.244507
	-78.54419	1.244022
	-78.54386	1.242729
	-78.54343	1.240682
	-78.54311	1.239335
	-78.54268	1.238311
	-78.54193	1.237234
	-78.54139	1.236102
	-78.54128	1.235402
	-78.54155	1.234809
	-78.54252	1.233678
	-78.54397	1.2326
	-78.54597	1.230876
	-78.54704	1.229583
	-78.54731	1.228344
	-78.54731	1.227428
	-78.54699	1.226674
	-78.5464	1.22635
	-78.54554	1.226296
	-78.54457	1.226458
	-78.54327	1.227051
	-78.54225	1.227967
	-78.54106	1.228667
	-78.54004	1.228775
	-78.53918	1.228613
	-78.53853	1.228128
	-78.53762	1.226943
	-78.53659	1.225812
	-78.53557	1.225273
	-78.53341	1.224734
	-78.53196	1.224465
	-78.53099	1.224034
	-78.53013	1.223172
	-78.52959	1.22204
	-78.52926	1.221124
	-78.52894	1.220747
	-78.52856	1.220532
	-78.52786	1.220532
	-78.52517	1.221016
	-78.52312	1.221448
	-78.52221	1.22134
	-78.52129	1.220747
	-78.52091	1.219831
	-78.52097	1.218538
	-78.52178	1.216706
	-78.52188	1.215629
	-78.52156	1.214336
	-78.52107	1.21342
	-78.52021	1.212719
	-78.51897	1.212504
	-78.51811	1.212558
	-78.51709	1.213258
	-78.5165	1.213743
	-78.51579	1.213797
	-78.51499	1.213581
	-78.51439	1.212827
	-78.51402	1.211804
	-78.51429	1.210618
	-78.51547	1.208194
	-78.51601	1.20647
	-78.51539	1.204302
	-78.51491	1.203494
	-78.51448	1.203171
	-78.51362	1.203225
	-78.51275	1.203548
	-78.51205	1.203548
	-78.51162	1.203225
	-78.51135	1.20247
	-78.51202	1.201007
	-78.51229	1.200037
	-78.51245	1.198959
	-78.51239	1.197882
	-78.51229	1.196502
	-78.51245	1.195802
	-78.51282	1.194886
	-78.51411	1.193296
	-78.51615	1.191014
	-78.51701	1.189667
	-78.51706	1.188374
	-78.51669	1.187781
	-78.51577	1.187404
	-78.51713	1.089801
	-78.55348	1.028634
	-78.55132	0.9728626
	-78.54124	0.932203
	-78.50706	0.9052162
	-78.42825	0.8757105
	-78.4073	0.8435428
	-78.49178	0.5382059
	-78.72284	0.3916382
	-78.90198	0.2837464
	-78.90911	0.1497085
	-78.76864	0.0296006
	-78.76152	-0.2564186
	-78.90809	-0.4050244
	-78.9712	-0.5851797
	-78.99257	-0.8050222
	-78.9427	-0.9240989
	-78.84294	-1.079808
	-78.90503	-1.271127
	-78.95186	-1.416641
	-78.89282	-1.503132
	-78.86636	-1.66898
	-78.97527	-1.757495
	-79.02005	-1.858213
	-79.0455	-1.99453
	-79.04448	-2.102355
	-79.03329	-2.22848
	-79.13202	-2.374934
	-79.12998	-2.511204
	-79.06484	-2.695247
	-79.15746	-2.818267
	-79.21039	-2.958553
	-79.32948	-3.116101
	-79.36816	-3.228911
	-79.45061	-3.358982
	-79.42923	-3.455508
	-79.47707	-3.517483
	-79.36206	-3.665799
	-79.3987	-3.722682
	-79.39666	-3.771435
	-79.51881	-3.829325
	-79.61754	-3.755184
	-79.72238	-3.810029
	-79.77226	-3.862839
	-79.8659	-3.834403
	-79.99619	-3.876041
	-80.12896	-3.892038
END
END
