Egypt
1
	25.35412	31.77046
	25.36205	31.75853
	25.37691	31.72177
	25.82892	31.8269
	25.87001	31.83309
	25.91173	31.83295
	26.26248	31.80457
	26.29486	31.79994
	26.69585	31.71675
	27.03839	31.64857
	27.07839	31.63721
	27.11535	31.61989
	27.15056	31.59966
	27.38637	31.56808
	27.4238	31.56027
	27.45922	31.54732
	27.49166	31.52955
	27.52026	31.50747
	27.54423	31.48166
	27.60572	31.40282
	27.61418	31.40228
	27.80575	31.44169
	27.84844	31.44693
	27.89151	31.44534
	27.93351	31.43698
	27.973	31.42215
	28.00862	31.40134
	28.03917	31.37527
	28.0636	31.34483
	28.08109	31.31105
	28.08532	31.30029
	28.43671	31.29206
	28.48991	31.28542
	28.6502	31.24867
	28.67331	31.24222
	28.91593	31.16205
	28.951	31.14741
	28.98273	31.12794
	29.04611	31.08164
	29.30084	31.18098
	29.32827	31.1899
	29.42916	31.21652
	29.47161	31.23503
	29.66025	31.31721
	29.73611	31.37097
	29.90407	31.47764
	29.95716	31.51559
	29.97586	31.52764
	30.08428	31.59032
	30.20939	31.66259
	30.22438	31.67125
	30.25856	31.68756
	30.29546	31.69876
	30.33402	31.70455
	30.37317	31.70475
	30.41182	31.69937
	30.4352	31.69436
	30.46493	31.68615
	30.49903	31.67178
	30.96061	31.79188
	30.99405	31.79827
	31.02823	31.80042
	31.11675	31.80043
	31.16534	31.79607
	31.23882	31.78271
	31.27036	31.77496
	31.35913	31.74705
	31.41214	31.72834
	31.60681	31.65959
	31.66763	31.67788
	31.73146	31.70279
	31.77	31.71762
	31.81719	31.73096
	31.86662	31.73548
	31.90337	31.73549
	31.94848	31.73173
	31.9919	31.72061
	32.032	31.70255
	32.06522	31.68378
	32.08539	31.6725
	32.11281	31.65443
	32.13681	31.6331
	32.23968	31.52679
	32.34645	31.50742
	32.39022	31.49947
	32.42779	31.48974
	32.46293	31.47475
	32.49463	31.45494
	32.52201	31.43085
	32.65417	31.29283
	32.83492	31.33525
	32.94789	31.39265
	32.99591	31.4111
	33.03264	31.42112
	33.06048	31.42712
	33.10223	31.4338
	33.14107	31.43716
	33.18002	31.43492
	33.25684	31.4249
	33.28008	31.42082
	33.4104	31.39164
	33.46717	31.37661
	33.51457	31.3589
	33.58892	31.32219
	33.67907	31.32691
	33.88725	31.38558
	33.97121	31.41798
	34.06897	31.47817
	34.2188	31.32358
	34.21917	31.32295
	34.22099	31.32002
	34.22192	31.31858
	34.22227	31.31796
	34.22383	31.31537
	34.22579	31.31228
	34.22737	31.30974
	34.22925	31.30677
	34.23189	31.30242
	34.23552	31.29662
	34.23566	31.29644
	34.23584	31.2964
	34.23923	31.29617
	34.23964	31.29604
	34.23998	31.29591
	34.24007	31.29578
	34.24219	31.29011
	34.24353	31.28619
	34.24467	31.28345
	34.2457	31.28021
	34.24602	31.27952
	34.24734	31.27599
	34.24765	31.27508
	34.24858	31.27209
	34.25008	31.26798
	34.25114	31.26522
	34.25191	31.26285
	34.25259	31.26094
	34.2555	31.25309
	34.2571	31.24925
	34.26209	31.23526
	34.26291	31.23285
	34.2641	31.22946
	34.26477	31.22768
	34.26561	31.22526
	34.2676	31.22001
	34.26914	31.21604
	34.27148	31.20954
	34.27396	31.20284
	34.27474	31.20058
	34.27566	31.19812
	34.27669	31.19585
	34.27835	31.19141
	34.27962	31.18842
	34.28275	31.17869
	34.28307	31.17752
	34.28391	31.1753
	34.28433	31.17351
	34.28486	31.17164
	34.28635	31.16764
	34.28699	31.16582
	34.28764	31.16391
	34.28842	31.16182
	34.29073	31.15531
	34.29243	31.15065
	34.29319	31.14849
	34.29499	31.1435
	34.29583	31.14126
	34.29665	31.13891
	34.29894	31.13257
	34.30008	31.12956
	34.30233	31.12322
	34.30335	31.12058
	34.30358	31.11964
	34.30565	31.11413
	34.30703	31.11025
	34.30823	31.107
	34.30919	31.10446
	34.30991	31.10231
	34.31298	31.094
	34.31367	31.09204
	34.31391	31.09113
	34.31477	31.08896
	34.31557	31.08641
	34.31669	31.08419
	34.31835	31.07974
	34.31919	31.07724
	34.31974	31.07502
	34.32141	31.07058
	34.32252	31.06808
	34.32419	31.06363
	34.32474	31.06141
	34.32561	31.05885
	34.32644	31.05658
	34.32702	31.05436
	34.3281	31.05216
	34.32896	31.04961
	34.32978	31.04737
	34.33036	31.04515
	34.33118	31.04321
	34.33202	31.0407
	34.33286	31.03849
	34.33398	31.036
	34.33497	31.03399
	34.34091	31.02083
	34.34266	31.0163
	34.34486	31.01052
	34.34626	31.00728
	34.3475	31.00452
	34.35613	30.98058
	34.36291	30.96447
	34.38078	30.91747
	34.39001	30.89466
	34.39359	30.88245
	34.39495	30.87832
	34.39682	30.87611
	34.39722	30.87529
	34.39759	30.8743
	34.39816	30.87246
	34.39919	30.86961
	34.40237	30.86143
	34.40343	30.85831
	34.40821	30.84974
	34.41245	30.843
	34.41897	30.83011
	34.43088	30.80718
	34.44197	30.78684
	34.44802	30.77386
	34.45293	30.76531
	34.4539	30.76227
	34.45661	30.75725
	34.45972	30.75239
	34.46223	30.74641
	34.46905	30.73313
	34.47204	30.72725
	34.47614	30.71955
	34.47868	30.71395
	34.48294	30.70728
	34.48572	30.70149
	34.48626	30.70031
	34.48717	30.69846
	34.48898	30.69507
	34.49073	30.69131
	34.49223	30.68908
	34.49424	30.68534
	34.4964	30.68085
	34.49224	30.67863
	34.4928	30.67613
	34.49363	30.67515
	34.49583	30.67487
	34.49657	30.67304
	34.49774	30.67113
	34.49807	30.66852
	34.49907	30.66613
	34.50074	30.66325
	34.5024	30.65811
	34.5028	30.65543
	34.50392	30.65229
	34.50493	30.64819
	34.50603	30.64283
	34.50685	30.63988
	34.50744	30.63686
	34.50818	30.63481
	34.50998	30.63066
	34.51038	30.62909
	34.51059	30.62397
	34.51203	30.61883
	34.51553	30.607
	34.51897	30.60333
	34.51733	30.5975
	34.51557	30.59391
	34.51613	30.59169
	34.51696	30.58946
	34.51613	30.58784
	34.51746	30.58592
	34.51603	30.58339
	34.51705	30.57835
	34.5168	30.57709
	34.51471	30.57564
	34.51457	30.57493
	34.51672	30.57166
	34.51432	30.56727
	34.51509	30.56555
	34.51648	30.56507
	34.51644	30.56025
	34.51585	30.55337
	34.516	30.55025
	34.51474	30.54917
	34.51474	30.54502
	34.51502	30.54252
	34.51557	30.53807
	34.51557	30.53363
	34.51613	30.5328
	34.51807	30.53057
	34.52002	30.52807
	34.52196	30.52585
	34.52419	30.52363
	34.52613	30.52141
	34.5278	30.51919
	34.53118	30.51492
	34.53214	30.51618
	34.53212	30.51778
	34.53258	30.51865
	34.54373	30.50809
	34.55372	30.49791
	34.55048	30.49441
	34.5492	30.49293
	34.54924	30.4925
	34.55002	30.48922
	34.54858	30.48621
	34.54746	30.48518
	34.54733	30.48314
	34.54624	30.47845
	34.54732	30.47653
	34.54694	30.47437
	34.54873	30.47293
	34.54853	30.46941
	34.5481	30.46885
	34.54697	30.46807
	34.54622	30.4673
	34.54661	30.46473
	34.54626	30.4626
	34.54461	30.46132
	34.54461	30.45756
	34.54497	30.45586
	34.54358	30.45288
	34.54259	30.45272
	34.54181	30.45344
	34.54073	30.45335
	34.53998	30.45395
	34.53936	30.45389
	34.53937	30.45314
	34.54139	30.45151
	34.5421	30.45077
	34.54199	30.44998
	34.54082	30.44882
	34.54059	30.44825
	34.54175	30.44664
	34.54136	30.44505
	34.53905	30.43903
	34.53766	30.43632
	34.53585	30.43102
	34.53625	30.42997
	34.53819	30.42872
	34.54158	30.42783
	34.54225	30.42682
	34.54235	30.41812
	34.54244	30.41372
	34.54268	30.41304
	34.54459	30.41143
	34.54762	30.40962
	34.54696	30.40557
	34.54974	30.40391
	34.55281	30.40314
	34.55536	30.40475
	34.55807	30.40435
	34.5603	30.40072
	34.56368	30.39854
	34.56621	30.39579
	34.56819	30.3939
	34.57096	30.39371
	34.57386	30.39344
	34.57797	30.39242
	34.5807	30.39068
	34.58289	30.38731
	34.58419	30.38474
	34.58696	30.38335
	34.58946	30.38168
	34.59224	30.3803
	34.59502	30.37863
	34.59752	30.37752
	34.60057	30.37585
	34.60307	30.37446
	34.60585	30.3728
	34.60835	30.37141
	34.61113	30.36974
	34.61363	30.36835
	34.61391	30.36807
	34.61446	30.36557
	34.61502	30.36335
	34.6153	30.36113
	34.61613	30.35891
	34.61669	30.35668
	34.61696	30.35418
	34.61863	30.34752
	34.61891	30.34502
	34.61974	30.3428
	34.62096	30.34076
	34.62233	30.33826
	34.62586	30.33086
	34.62749	30.32665
	34.62868	30.323
	34.63143	30.3164
	34.63405	30.30969
	34.63653	30.30365
	34.63803	30.29978
	34.64093	30.29141
	34.64415	30.28292
	34.64537	30.28071
	34.64831	30.27281
	34.64985	30.26874
	34.65093	30.26518
	34.652	30.26279
	34.6527	30.26066
	34.65363	30.25831
	34.65436	30.25609
	34.65502	30.25363
	34.65629	30.25146
	34.65703	30.24932
	34.65807	30.24679
	34.65917	30.24442
	34.66002	30.24224
	34.66057	30.24002
	34.66374	30.23281
	34.66672	30.22453
	34.66895	30.21811
	34.67263	30.20806
	34.67502	30.20203
	34.68593	30.1717
	34.69097	30.16046
	34.69949	30.13721
	34.70516	30.1268
	34.70974	30.12141
	34.71057	30.11891
	34.71169	30.11668
	34.71252	30.11446
	34.71363	30.11252
	34.71446	30.11002
	34.71557	30.1078
	34.71641	30.10557
	34.71807	30.10057
	34.71919	30.09835
	34.72002	30.09613
	34.72113	30.09391
	34.72196	30.09168
	34.72307	30.08946
	34.72474	30.08502
	34.72557	30.08252
	34.7278	30.07807
	34.72863	30.07585
	34.72946	30.07335
	34.73061	30.06194
	34.73665	30.0474
	34.7479	30.01982
	34.75112	30.00875
	34.75598	29.9962
	34.75867	29.98838
	34.76105	29.98163
	34.76332	29.97576
	34.77474	29.94445
	34.77821	29.93409
	34.78122	29.92477
	34.78439	29.91641
	34.78806	29.90701
	34.78933	29.904
	34.79347	29.89322
	34.79678	29.88433
	34.80134	29.87243
	34.8054	29.86255
	34.81111	29.84966
	34.81578	29.83949
	34.8172	29.83565
	34.81782	29.83278
	34.81937	29.83332
	34.81974	29.83467
	34.8203	29.83462
	34.82361	29.83035
	34.82275	29.82645
	34.82429	29.8176
	34.82566	29.81587
	34.8248	29.81329
	34.82601	29.8086
	34.82702	29.80718
	34.83228	29.80619
	34.83319	29.80695
	34.83416	29.80511
	34.83385	29.80264
	34.83007	29.80088
	34.83204	29.79469
	34.8335	29.79333
	34.83813	29.79117
	34.83825	29.78987
	34.83575	29.78826
	34.83662	29.78601
	34.83798	29.78689
	34.83885	29.78605
	34.8366	29.78466
	34.84038	29.78311
	34.84379	29.77919
	34.84767	29.76259
	34.85171	29.73161
	34.85284	29.72109
	34.8555	29.69915
	34.85819	29.68585
	34.86265	29.68034
	34.86295	29.67687
	34.86565	29.67094
	34.86573	29.67039
	34.86671	29.66951
	34.86975	29.67012
	34.87003	29.66936
	34.87035	29.66055
	34.87114	29.6589
	34.87238	29.65719
	34.87485	29.65263
	34.87502	29.651
	34.8757	29.64981
	34.87659	29.64881
	34.88025	29.64869
	34.88022	29.64845
	34.87965	29.64814
	34.87931	29.6471
	34.87923	29.64599
	34.87846	29.64476
	34.87815	29.6279
	34.87447	29.6141
	34.86992	29.60415
	34.86747	29.59908
	34.86702	29.59821
	34.86641	29.59761
	34.87246	29.57867
	34.87609	29.55888
	34.87855	29.54332
	34.8848	29.52743
	34.89522	29.51264
	34.90362	29.49353
	34.90283	29.49096
	34.90271	29.49062
	34.92121	29.45338
	34.90791	29.43198
	34.90846	29.42539
	34.89791	29.39457
	34.89216	29.3837
	34.88444	29.3752
	34.87271	29.34714
	34.85128	29.31248
	34.83064	29.2697
	34.82597	29.24573
	34.81575	29.19302
	34.79403	29.13646
	34.77558	29.10537
	34.76799	29.08203
	34.76252	29.05316
	34.76686	29.00683
	34.76157	28.95266
	34.73356	28.90518
	34.73168	28.8824
	34.73676	28.8416
	34.72282	28.8035
	34.72091	28.7823
	34.713	28.76244
	34.71136	28.7278
	34.68806	28.67231
	34.68014	28.61761
	34.67708	28.57911
	34.66876	28.55057
	34.64885	28.51351
	34.6433	28.48046
	34.62225	28.43202
	34.58264	28.36875
	34.56099	28.31563
	34.5452	28.27709
	34.54548	28.26028
	34.53879	28.23918
	34.53584	28.19318
	34.52278	28.15426
	34.51297	28.12002
	34.50356	28.0964
	34.49524	28.07634
	34.4901	28.06433
	34.47948	28.04745
	34.47343	28.03987
	34.46886	28.03213
	34.46618	28.02496
	34.46348	28.01321
	34.46148	28.00185
	34.46079	27.99129
	34.46298	27.97818
	34.4603	27.95165
	34.45725	27.92731
	34.45717	27.90051
	34.46196	27.87192
	34.46798	27.84168
	34.47707	27.7897
	34.51903	27.71353
	34.45048	27.61107
	34.26534	27.38831
	34.25304	27.37349
	34.21671	27.17724
	34.22758	26.92231
	34.26448	26.87889
	34.27564	26.86373
	34.31373	26.79717
	34.32433	26.77327
	34.49703	26.1934
	34.78201	25.81069
	34.79059	25.79644
	34.79785	25.78161
	34.87192	25.61158
	35.02205	25.48871
	35.04171	25.4686
	35.05308	25.45395
	35.05966	25.44396
	35.38537	24.87072
	35.39371	24.85132
	35.39978	24.83124
	35.40194	24.82102
	35.40448	24.80032
	35.40996	24.71531
	35.5332	24.57986
	35.78814	24.41122
	35.80327	24.39916
	35.82352	24.37884
	35.83523	24.36397
	35.90176	24.27063
	35.91052	24.25723
	35.92143	24.23606
	35.92955	24.21386
	35.98466	24.02702
	36.46665	23.729
	36.48805	23.71397
	36.50724	23.69662
	36.52395	23.67724
	36.53791	23.65611
	36.54891	23.63357
	36.55679	23.60996
	36.56142	23.58563
	36.56272	23.56724
	36.55431	22.95775
	36.75441	22.73628
	36.76923	22.71781
	36.77575	22.70802
	36.7869	22.68748
	36.79149	22.6768
	36.79697	22.66087
	36.84405	22.47847
	36.90783	22.45098
	36.92638	22.44194
	36.9439	22.43128
	36.96021	22.41909
	36.97517	22.4055
	36.98862	22.39063
	37.00045	22.37462
	37.01054	22.35762
	37.01879	22.3398
	37.10183	22.13314
	37.10829	22.11421
	37.11076	22.10455
	37.11411	22.08494
	37.11535	22.06512
	37.11255	22.00522
	37.11182	22.0
	37.10684	22.0
	37.09052	22.0
	34.0785	22.00001
	31.69135	22.0
	31.39888	22.0
	31.4068	22.02018
	31.40937	22.02733
	31.41037	22.031
	31.41099	22.03305
	31.41181	22.03523
	31.41249	22.03655
	31.41293	22.03809
	31.41437	22.04227
	31.41593	22.0465
	31.41786	22.05073
	31.42004	22.0561
	31.42141	22.05902
	31.42234	22.06142
	31.42347	22.06411
	31.42446	22.066
	31.42527	22.06765
	31.42614	22.06983
	31.4273	22.07246
	31.42845	22.07463
	31.42994	22.07818
	31.43236	22.08286
	31.43386	22.08561
	31.43671	22.09035
	31.43795	22.09211
	31.4392	22.09417
	31.44031	22.09635
	31.4415	22.09834
	31.44497	22.10348
	31.44621	22.10514
	31.44745	22.10691
	31.44844	22.10851
	31.45037	22.1113
	31.45111	22.11222
	31.45489	22.11718
	31.45626	22.11924
	31.45867	22.12169
	31.45985	22.12317
	31.46109	22.12454
	31.46542	22.12904
	31.46666	22.1311
	31.4702	22.13521
	31.47249	22.13829
	31.47788	22.1441
	31.48073	22.14735
	31.48265	22.14946
	31.48407	22.15077
	31.48599	22.15317
	31.48798	22.15551
	31.49009	22.15865
	31.49176	22.16042
	31.49344	22.16293
	31.49573	22.16555
	31.49672	22.16675
	31.49979	22.17815
	31.50618	22.18523
	31.49656	22.19384
	31.49443	22.19536
	31.49388	22.19588
	31.49278	22.19663
	31.49106	22.19796
	31.49076	22.19843
	31.49033	22.19883
	31.48972	22.19981
	31.48929	22.20038
	31.48868	22.20153
	31.4885	22.20199
	31.48826	22.20268
	31.48772	22.20463
	31.48754	22.20561
	31.48693	22.20785
	31.48669	22.20836
	31.48627	22.20957
	31.48572	22.21066
	31.48554	22.21124
	31.48414	22.21368
	31.48377	22.2144
	31.48292	22.21532
	31.48151	22.21705
	31.48096	22.21751
	31.4801	22.21792
	31.47946	22.21858
	31.47863	22.21976
	31.47796	22.22063
	31.47728	22.2212
	31.47643	22.22161
	31.47526	22.22242
	31.47379	22.22334
	31.47204	22.22427
	31.47054	22.22485
	31.4698	22.22492
	31.46862	22.22464
	31.46696	22.22402
	31.46603	22.22379
	31.4614	22.22124
	31.45813	22.21925
	31.45466	22.21686
	31.45189	22.21527
	31.44836	22.21335
	31.44453	22.21062
	31.44119	22.20794
	31.43816	22.20561
	31.43513	22.20316
	31.43229	22.20134
	31.42344	22.19337
	31.41875	22.18956
	31.41615	22.18699
	31.40736	22.1789
	31.4047	22.17616
	31.40222	22.17377
	31.40006	22.17126
	31.39746	22.16835
	31.39102	22.16237
	31.38911	22.16031
	31.38719	22.15855
	31.38478	22.15661
	31.38292	22.15484
	31.37859	22.15017
	31.37673	22.148
	31.37475	22.1452
	31.37277	22.14252
	31.37122	22.14052
	31.36836	22.13629
	31.36502	22.13155
	31.36018	22.12355
	31.35758	22.11978
	31.35503	22.11561
	31.35174	22.10927
	31.34944	22.10458
	31.34789	22.10184
	31.34633	22.0984
	31.34472	22.09543
	31.33986	22.08445
	31.33843	22.08085
	31.33456	22.06791
	31.3333	22.06259
	31.33261	22.06007
	31.33161	22.05715
	31.33054	22.05269
	31.32936	22.04914
	31.32841	22.04422
	31.32747	22.04044
	31.32672	22.03803
	31.32478	22.03099
	31.32403	22.02842
	31.32104	22.01955
	31.31503	22.0
	25.0	22.0
	25.0001	22.03326
	24.99999	22.04691
	25.00001	22.06048
	25.00006	22.07441
	24.99997	22.08855
	25.00111	22.13
	25.00078	22.1714
	25.00139	22.19889
	25.00111	22.21278
	25.00111	22.22667
	25.00167	22.24056
	25.00167	22.25444
	25.00139	22.26806
	25.00139	22.29583
	25.00111	22.30972
	25.00111	22.32361
	25.00167	22.33722
	25.00167	22.35111
	25.00139	22.365
	25.00139	22.37889
	25.00111	22.39278
	25.00111	22.40667
	25.00083	22.42056
	25.00139	22.44806
	25.00139	22.46194
	25.00111	22.47583
	25.00111	22.50361
	25.00083	22.5175
	25.00139	22.53111
	25.00139	22.55889
	25.00111	22.57278
	25.00111	22.58667
	25.00083	22.60056
	25.00083	22.61417
	25.00139	22.62806
	25.00139	22.64194
	25.00111	22.65583
	25.00111	22.66972
	25.00083	22.68333
	25.00083	22.71111
	25.00139	22.725
	25.00111	22.73889
	25.00111	22.76639
	25.00083	22.78028
	25.00083	22.79417
	25.00056	22.80806
	25.00111	22.82194
	25.00111	22.84944
	25.00083	22.86333
	25.00083	22.87722
	25.00056	22.89111
	25.00056	22.905
	25.00111	22.91889
	25.00111	22.9325
	25.00083	22.94639
	25.00083	22.97417
	25.00056	22.98806
	25.00056	23.02611
	25.00111	23.04
	25.00083	23.05389
	25.00083	23.08139
	25.00056	23.09528
	25.00056	23.10917
	25.00028	23.12306
	25.00028	23.13694
	25.00083	23.15083
	25.00056	23.17861
	25.00056	23.1925
	25.00028	23.20611
	25.00028	23.23389
	25.0	23.24778
	25.00056	23.26167
	25.00056	23.28944
	25.00028	23.30333
	25.00028	23.31722
	25.0	23.33111
	25.0	23.34472
	24.99972	23.35861
	25.00056	23.3725
	25.00028	23.38639
	25.00028	23.40028
	25.0	23.41417
	25.0	23.44194
	24.99972	23.45556
	25.00028	23.46944
	25.00028	23.48333
	25.0	23.49722
	25.0	23.525
	24.99972	23.53889
	24.99972	23.55278
	24.99944	23.56667
	25.00028	23.58028
	25.0	23.59417
	25.0	23.60806
	24.99972	23.62194
	24.99972	23.64972
	24.99944	23.66361
	24.99944	23.6775
	25.0	23.69111
	25.0	23.705
	24.99972	23.71889
	24.99972	23.73278
	24.99944	23.74667
	24.99944	23.76056
	24.99917	23.77444
	24.99917	23.78833
	24.99972	23.80222
	24.99972	23.81583
	24.99944	23.82972
	24.99944	23.84361
	24.99917	23.8575
	24.99917	23.88528
	24.99889	23.89917
	24.99944	23.91306
	24.99944	23.94083
	24.99917	23.95472
	24.99917	23.96861
	24.99889	23.9825
	24.99889	23.99639
	24.99861	24.01028
	24.99944	24.02389
	24.99917	24.03778
	24.99917	24.05167
	24.99889	24.06556
	24.99889	24.09333
	24.99861	24.10722
	24.99861	24.12111
	24.99917	24.13472
	24.99917	24.14861
	24.99889	24.1625
	24.99889	24.17639
	24.99861	24.19028
	24.99861	24.20417
	24.99833	24.21806
	24.99833	24.23194
	24.99889	24.24583
	24.99889	24.25972
	24.99861	24.27361
	24.99861	24.30139
	24.99833	24.31528
	24.99833	24.32917
	24.99806	24.34306
	24.99889	24.35667
	24.99861	24.37056
	24.99861	24.38444
	24.99833	24.39833
	24.99833	24.41222
	24.99806	24.42611
	24.99806	24.45389
	24.99861	24.46778
	24.99833	24.48167
	24.99833	24.50944
	24.99806	24.52306
	24.99806	24.53694
	24.99778	24.55083
	24.99778	24.56472
	24.99833	24.57861
	24.99806	24.59194
	24.99806	24.62028
	24.99778	24.63417
	24.99778	24.64806
	24.9975	24.66194
	24.9975	24.67583
	24.99806	24.68889
	24.99806	24.70278
	24.99778	24.7175
	24.99778	24.74528
	24.9975	24.75917
	24.9975	24.77278
	24.99722	24.78667
	24.99806	24.80056
	24.99778	24.81444
	24.99778	24.82833
	24.9975	24.84222
	24.9975	24.85611
	24.99722	24.87
	24.99722	24.89778
	24.9975	24.91083
	24.9975	24.95333
	24.99722	24.96722
	24.99722	24.98111
	24.99778	25.01361
	24.9975	25.0275
	24.9975	25.04139
	24.99722	25.05528
	24.99722	25.06917
	24.99694	25.08306
	24.99778	25.09667
	24.9975	25.11056
	24.9975	25.12444
	24.99722	25.13778
	24.99722	25.15167
	24.99778	25.16528
	24.99778	25.18
	24.9975	25.19389
	24.9975	25.20778
	24.99722	25.22167
	24.99806	25.23556
	24.99778	25.24944
	24.99778	25.26333
	24.9975	25.27722
	24.9975	25.30472
	24.99806	25.31861
	24.99778	25.3325
	24.99778	25.36028
	24.9975	25.37417
	24.99806	25.38806
	24.99806	25.40194
	24.99778	25.415
	24.99778	25.42972
	24.99833	25.45722
	24.99833	25.47111
	24.99806	25.485
	24.99778	25.51306
	24.99833	25.54056
	24.99833	25.55444
	24.99806	25.56833
	24.99806	25.58222
	24.99861	25.61
	24.99833	25.62389
	24.99833	25.63778
	24.99861	25.67944
	24.99861	25.69306
	24.99833	25.70694
	24.99833	25.73472
	24.99806	25.74861
	24.99861	25.76194
	24.99861	25.77639
	24.99833	25.78972
	24.99833	25.81806
	24.99889	25.83194
	24.99861	25.845
	24.99861	25.87361
	24.99889	25.90139
	24.99889	25.92889
	24.99861	25.94278
	24.99861	25.95694
	24.99833	25.97083
	24.99917	25.98444
	24.99889	25.99833
	24.99889	26.01222
	24.99917	26.05389
	24.99917	26.06778
	24.99889	26.08167
	24.99889	26.09556
	24.99944	26.12333
	24.99917	26.13722
	24.99917	26.15083
	24.99889	26.165
	24.99889	26.17889
	24.99944	26.20639
	24.99917	26.22028
	24.99917	26.23417
	24.99889	26.24806
	24.99944	26.27583
	24.99944	26.28917
	24.99917	26.30361
	24.99917	26.33139
	24.99972	26.34528
	24.99944	26.35917
	24.99944	26.38694
	24.99917	26.40083
	24.99917	26.41472
	24.99972	26.42833
	24.99972	26.44222
	24.99944	26.45611
	24.99944	26.47
	24.99917	26.48389
	24.99972	26.49722
	24.99972	26.52556
	24.99944	26.53944
	24.99944	26.55333
	25.0	26.56722
	25.0	26.58111
	24.99944	26.60806
	24.99944	26.63667
	25.0	26.65056
	25.0	26.66444
	24.99972	26.67833
	24.99972	26.69194
	24.99944	26.70528
	25.00028	26.71972
	25.0	26.73361
	25.0	26.76139
	24.99972	26.77528
	25.00028	26.78917
	25.00028	26.81694
	25.0	26.83083
	25.0	26.84472
	24.99972	26.85861
	25.00028	26.87167
	25.00028	26.90028
	25.0	26.91417
	25.00056	26.94167
	25.00056	26.95556
	25.00028	26.96944
	25.00028	26.98333
	25.00083	27.01111
	25.00056	27.025
	25.00056	27.03889
	25.00028	27.05278
	25.00028	27.06667
	25.00056	27.09361
	25.00056	27.13611
	25.00028	27.15
	25.00083	27.16361
	25.00083	27.1775
	25.00056	27.19083
	25.00056	27.21944
	25.00111	27.24694
	25.00083	27.26083
	25.00083	27.27472
	25.00056	27.28806
	25.00111	27.31639
	25.00111	27.33028
	25.00083	27.34417
	25.00083	27.35806
	25.00056	27.37194
	25.00111	27.39944
	25.00111	27.41361
	25.00083	27.4275
	25.00083	27.44139
	25.00111	27.48278
	25.00111	27.49667
	25.00083	27.51056
	25.00083	27.52389
	25.00139	27.53833
	25.00139	27.55222
	25.00111	27.56611
	25.00111	27.59389
	25.00139	27.62083
	25.00139	27.64944
	25.00111	27.66333
	25.00167	27.67694
	25.00167	27.70472
	25.00019	27.74891
	25.00167	27.77417
	25.00139	27.80194
	25.00139	27.815
	25.00194	27.82972
	25.00167	27.84278
	25.00167	27.87139
	25.00139	27.88528
	25.00222	27.89889
	25.00194	27.91278
	25.00194	27.92667
	25.00167	27.94056
	25.00167	27.96833
	25.00222	27.98139
	25.00194	27.99611
	25.00194	28.02389
	25.00167	28.03778
	25.0025	28.05167
	25.00222	28.06556
	25.00222	28.07944
	25.00167	28.10639
	25.0025	28.12028
	25.0025	28.125
	25.00222	28.13889
	25.00222	28.15278
	25.00194	28.16667
	25.00194	28.18056
	25.00167	28.19444
	25.00167	28.22222
	25.00139	28.23556
	25.00139	28.25
	25.00111	28.26333
	25.00194	28.27778
	25.00167	28.29167
	25.00167	28.30556
	25.00139	28.31944
	25.00139	28.33333
	25.00111	28.34722
	25.00111	28.375
	25.00083	28.38889
	25.00083	28.40278
	25.00056	28.41667
	25.00028	28.42972
	25.00111	28.44417
	25.00111	28.45806
	25.00083	28.47194
	25.00083	28.48583
	25.00056	28.49972
	25.00056	28.51361
	25.00028	28.5275
	25.00028	28.55528
	25.0	28.56917
	25.0	28.58306
	25.00056	28.59694
	25.00056	28.61083
	25.0	28.63778
	25.0	28.6525
	24.99972	28.66556
	24.99972	28.69417
	24.99944	28.70806
	24.99944	28.73583
	24.99917	28.74972
	25.0	28.76333
	24.99972	28.77722
	24.99972	28.79111
	24.99944	28.805
	24.99944	28.81889
	24.99917	28.83278
	24.99917	28.84667
	24.99889	28.86056
	24.99889	28.87389
	24.99861	28.88833
	24.99861	28.91611
	24.99972	28.92917
	24.99889	28.94361
	24.99944	28.95694
	24.99889	28.97139
	24.99861	28.98556
	24.99833	28.99861
	24.99833	29.0125
	24.99806	29.02639
	24.99806	29.05417
	24.99778	29.06861
	24.99778	29.08194
	24.99833	29.09639
	24.99833	29.12417
	24.99806	29.13806
	24.99806	29.15194
	24.99778	29.16583
	24.99778	29.17972
	24.9975	29.19361
	24.9975	29.2075
	24.99722	29.22139
	24.99722	29.23528
	24.99778	29.24889
	24.99417	29.25639
	24.98722	29.27111
	24.98	29.28583
	24.97361	29.30056
	24.96639	29.31528
	24.95944	29.33
	24.95306	29.34472
	24.94583	29.35917
	24.93861	29.37417
	24.93222	29.38861
	24.92528	29.40333
	24.91806	29.41833
	24.91167	29.43278
	24.90444	29.44694
	24.89722	29.46222
	24.89111	29.47694
	24.88361	29.49111
	24.8775	29.50639
	24.87611	29.51194
	24.87611	29.51833
	24.87639	29.52444
	24.8775	29.53056
	24.87917	29.53722
	24.88028	29.54417
	24.88056	29.54972
	24.88167	29.55722
	24.88194	29.56333
	24.88194	29.56889
	24.88139	29.575
	24.88306	29.57972
	24.88472	29.58583
	24.88583	29.5925
	24.88694	29.59944
	24.88694	29.605
	24.88889	29.61167
	24.89083	29.61778
	24.89083	29.62389
	24.89028	29.62944
	24.88944	29.635
	24.88972	29.64056
	24.88917	29.64694
	24.88833	29.6525
	24.88778	29.65806
	24.88694	29.66389
	24.88444	29.66833
	24.88222	29.67278
	24.87722	29.68167
	24.87389	29.68556
	24.87028	29.68861
	24.86806	29.69389
	24.86472	29.69778
	24.86194	29.70139
	24.85889	29.70611
	24.85528	29.70917
	24.85306	29.71444
	24.84556	29.72778
	24.84306	29.73167
	24.84056	29.73667
	24.83722	29.74056
	24.83472	29.745
	24.83222	29.74889
	24.83	29.75389
	24.82639	29.75722
	24.82389	29.76167
	24.82056	29.76611
	24.81833	29.77056
	24.81722	29.77417
	24.81472	29.77944
	24.8125	29.78444
	24.81278	29.79083
	24.81444	29.79667
	24.81694	29.80194
	24.82	29.80639
	24.825	29.81694
	24.82667	29.82306
	24.82917	29.82806
	24.83083	29.83417
	24.83278	29.84028
	24.83444	29.84611
	24.83556	29.85222
	24.83583	29.85917
	24.83611	29.86528
	24.83528	29.87111
	24.83472	29.87667
	24.83139	29.88667
	24.82889	29.89111
	24.82722	29.89556
	24.82583	29.90139
	24.82417	29.90639
	24.8225	29.91056
	24.82111	29.91639
	24.81861	29.92028
	24.81694	29.92583
	24.81556	29.93083
	24.81389	29.93611
	24.81222	29.94111
	24.80972	29.94556
	24.80833	29.95056
	24.80583	29.955
	24.80333	29.95889
	24.80083	29.96389
	24.78833	29.98611
	24.78694	29.99111
	24.78194	30.0
	24.78028	30.00528
	24.77778	30.00972
	24.77639	30.01472
	24.77306	30.02472
	24.77056	30.02917
	24.76917	30.03417
	24.76667	30.03861
	24.765	30.04361
	24.7625	30.04806
	24.76	30.05278
	24.75833	30.05778
	24.75611	30.06222
	24.75111	30.07111
	24.74944	30.07611
	24.74694	30.08056
	24.74611	30.08472
	24.74444	30.08917
	24.74278	30.095
	24.74028	30.09861
	24.73861	30.10361
	24.73611	30.10806
	24.73389	30.11333
	24.73028	30.11639
	24.72611	30.11972
	24.72278	30.12444
	24.71944	30.12806
	24.71278	30.13583
	24.71028	30.14028
	24.70861	30.14556
	24.70694	30.14972
	24.70639	30.15611
	24.70667	30.16222
	24.70667	30.16861
	24.70778	30.17472
	24.70889	30.18139
	24.71	30.18889
	24.71194	30.195
	24.71417	30.2
	24.71611	30.20611
	24.71778	30.21222
	24.71944	30.21806
	24.72694	30.23389
	24.73	30.23833
	24.73361	30.24139
	24.73694	30.24583
	24.74083	30.25028
	24.74472	30.25389
	24.74778	30.25917
	24.75167	30.26278
	24.75472	30.26722
	24.75722	30.2725
	24.76028	30.27694
	24.76278	30.28139
	24.76472	30.28833
	24.76694	30.29333
	24.77194	30.30389
	24.77361	30.30917
	24.77472	30.31611
	24.77583	30.32361
	24.77833	30.32889
	24.78083	30.33389
	24.78833	30.34139
	24.79306	30.34417
	24.7975	30.34778
	24.80194	30.35
	24.80583	30.35444
	24.81028	30.3575
	24.81417	30.36111
	24.81861	30.36389
	24.82167	30.36833
	24.82556	30.37222
	24.82944	30.37583
	24.83306	30.37889
	24.83778	30.3825
	24.84139	30.38611
	24.84528	30.38972
	24.84889	30.39278
	24.85222	30.39806
	24.85611	30.40167
	24.86	30.40611
	24.86306	30.41056
	24.86611	30.41444
	24.86944	30.41944
	24.8725	30.42333
	24.87639	30.4275
	24.87889	30.43278
	24.88194	30.43722
	24.88694	30.44778
	24.89306	30.45667
	24.89556	30.46194
	24.89944	30.46556
	24.9025	30.47
	24.90472	30.47389
	24.90806	30.47833
	24.91111	30.48278
	24.91417	30.4875
	24.91722	30.49111
	24.91972	30.49722
	24.92306	30.50139
	24.92611	30.50611
	24.92861	30.51111
	24.93028	30.51722
	24.93278	30.52167
	24.93472	30.52861
	24.93556	30.53444
	24.93611	30.54139
	24.93611	30.54778
	24.93667	30.56
	24.93833	30.56611
	24.94028	30.57222
	24.94333	30.57583
	24.94583	30.58167
	24.94889	30.58639
	24.95222	30.59083
	24.95528	30.59528
	24.95778	30.60056
	24.96083	30.605
	24.96333	30.61028
	24.96583	30.61528
	24.96833	30.62056
	24.97139	30.625
	24.97389	30.63028
	24.97694	30.63472
	24.97833	30.64167
	24.97833	30.64778
	24.97944	30.65444
	24.97861	30.65944
	24.97917	30.66639
	24.97833	30.67194
	24.97944	30.67806
	24.98056	30.68556
	24.98167	30.69222
	24.98361	30.69833
	24.98528	30.70444
	24.98722	30.71028
	24.98889	30.71639
	24.99139	30.72167
	24.99444	30.72611
	24.99944	30.73667
	25.00194	30.74167
	25.00444	30.74694
	25.0075	30.75139
	25.0125	30.76194
	25.01417	30.76722
	25.01694	30.77389
	25.01806	30.78056
	25.01917	30.7875
	25.01861	30.79306
	25.01694	30.79806
	25.01528	30.8025
	25.01278	30.8075
	25.00528	30.82083
	25.00306	30.82528
	25.00056	30.83
	24.99806	30.83417
	24.99556	30.83889
	24.99389	30.84389
	24.99139	30.8475
	24.98889	30.85194
	24.98639	30.85722
	24.98389	30.86167
	24.98056	30.86556
	24.97556	30.87444
	24.97389	30.87944
	24.97139	30.88306
	24.96972	30.88833
	24.96833	30.89389
	24.96583	30.89833
	24.96417	30.90361
	24.96167	30.90778
	24.95917	30.9125
	24.95667	30.91667
	24.95528	30.92194
	24.95278	30.92639
	24.94944	30.93639
	24.94889	30.94194
	24.94556	30.95194
	24.94389	30.95639
	24.9425	30.96222
	24.94083	30.96722
	24.93833	30.97083
	24.93694	30.97667
	24.92944	30.99
	24.92583	30.99389
	24.9225	30.99694
	24.91917	31.00167
	24.91667	31.00611
	24.91417	31.00972
	24.91167	31.015
	24.91	31.02
	24.90833	31.02444
	24.90611	31.02944
	24.90444	31.03444
	24.90361	31.03944
	24.90222	31.04528
	24.90139	31.05083
	24.89972	31.05583
	24.89833	31.06083
	24.8975	31.06639
	24.89694	31.07222
	24.89611	31.07778
	24.89444	31.08278
	24.89278	31.08722
	24.89139	31.09278
	24.88972	31.09778
	24.88833	31.10278
	24.88667	31.10806
	24.88333	31.11806
	24.88194	31.12306
	24.87861	31.13306
	24.87694	31.1375
	24.87444	31.1425
	24.87306	31.1475
	24.87056	31.15222
	24.86944	31.15639
	24.86889	31.16194
	24.86917	31.16806
	24.87028	31.175
	24.87194	31.18083
	24.87389	31.18694
	24.87556	31.19306
	24.8775	31.19889
	24.87972	31.20417
	24.88167	31.20944
	24.88278	31.21694
	24.88389	31.22389
	24.88417	31.23
	24.88333	31.23556
	24.8825	31.24056
	24.88194	31.24611
	24.88028	31.25111
	24.87889	31.25694
	24.87639	31.26139
	24.87556	31.26694
	24.87417	31.27194
	24.87333	31.2775
	24.87278	31.28333
	24.87194	31.28889
	24.87139	31.29444
	24.87056	31.3
	24.87083	31.30611
	24.87	31.31194
	24.86944	31.31667
	24.86861	31.3225
	24.86806	31.32861
	24.86722	31.33444
	24.86667	31.34
	24.86667	31.34556
	24.86556	31.3575
	24.86472	31.36222
	24.86667	31.36889
	24.86833	31.375
	24.87167	31.37944
	24.87472	31.38389
	24.87861	31.3875
	24.88222	31.39056
	24.88556	31.395
	24.88944	31.39944
	24.89389	31.40222
	24.89778	31.40611
	24.90306	31.40806
	24.90806	31.40972
	24.91333	31.4125
	24.91861	31.41389
	24.92389	31.41667
	24.92917	31.41889
	24.9326	31.42111
	24.93408	31.42273
	24.93603	31.46213
	24.93931	31.46856
	24.95182	31.47666
	24.9642	31.48489
	24.98114	31.49998
	25.00248	31.51016
	25.01087	31.51435
	25.01848	31.51828
	25.0208	31.52028
	25.02622	31.52373
	25.02836	31.52425
	25.0308	31.52507
	25.03304	31.5256
	25.03612	31.52725
	25.03725	31.52783
	25.03812	31.52835
	25.03862	31.52846
	25.04126	31.53017
	25.04299	31.53258
	25.04933	31.53534
	25.04977	31.5357
	25.05229	31.5375
	25.05344	31.53842
	25.05374	31.53839
	25.06198	31.54419
	25.06359	31.54562
	25.06607	31.54713
	25.06924	31.54884
	25.07355	31.55001
	25.07628	31.55114
	25.07539	31.55447
	25.07455	31.55899
	25.0741	31.56079
	25.07386	31.57041
	25.0727	31.57589
	25.07269	31.57637
	25.07216	31.57826
	25.07393	31.58801
	25.07375	31.59065
	25.07591	31.59919
	25.08318	31.6125
	25.08404	31.61544
	25.08612	31.61848
	25.08961	31.62374
	25.09381	31.62837
	25.10152	31.63586
	25.10658	31.64022
	25.11628	31.65622
	25.13069	31.66553
	25.13283	31.66733
	25.13408	31.67009
	25.13929	31.67146
	25.14101	31.67176
	25.14164	31.67127
	25.14182	31.67125
	25.142	31.67136
	25.14211	31.67136
	25.14339	31.67152
	25.14691	31.67262
	25.35412	31.77046
END
2
	34.61962	26.30806
	34.62025	26.33135
	34.62392	26.35442
	34.63056	26.37694
	34.64008	26.39862
	34.65236	26.41916
	34.66724	26.43827
	34.68482	26.45598
	34.69732	26.46638
	34.7142	26.47817
	34.7327	26.48866
	34.7632	26.50158
	34.80241	26.51147
	34.84297	26.5148
	34.88354	26.51146
	34.92274	26.50157
	34.9484	26.49105
	34.95927	26.48545
	34.97911	26.47367
	34.98758	26.46691
	35.01079	26.45109
	35.02527	26.43854
	35.0378	26.42571
	35.05694	26.40058
	35.07159	26.37314
	35.08141	26.34402
	35.08617	26.3139
	35.08578	26.28348
	35.08023	26.25347
	35.06967	26.22456
	35.0568	26.20098
	35.04103	26.17963
	35.02236	26.16027
	35.00108	26.14321
	34.97756	26.12873
	34.95216	26.11707
	34.92532	26.10842
	34.89747	26.10292
	34.87089	26.10068
	34.84442	26.1013
	34.81822	26.10473
	34.79265	26.11094
	34.76809	26.11983
	34.74487	26.13127
	34.70587	26.15646
	34.68977	26.1688
	34.67505	26.18246
	34.66183	26.1973
	34.65025	26.21321
	34.6404	26.23003
	34.63238	26.24762
	34.62625	26.26581
	34.62201	26.28487
	34.61962	26.30806
END
END
