El Salvador
1
	-90.16027	13.62787
	-90.11323	13.73638
	-90.10938	13.73854
	-90.10507	13.73763
	-90.10422	13.73763
	-90.10328	13.73784
	-90.10172	13.73833
	-90.10126	13.73853
	-90.10085	13.73879
	-90.10019	13.73946
	-90.09906	13.74135
	-90.09878	13.74255
	-90.09882	13.74308
	-90.09901	13.74377
	-90.09923	13.74423
	-90.09563	13.74625
	-90.09535	13.74625
	-90.09174	13.74987
	-90.0898	13.75153
	-90.08952	13.75431
	-90.09051	13.75589
	-90.09057	13.75689
	-90.09064	13.75731
	-90.09082	13.75792
	-90.09135	13.7588
	-90.09156	13.75901
	-90.09287	13.75957
	-90.09328	13.75959
	-90.09355	13.75958
	-90.09442	13.7595
	-90.09499	13.75936
	-90.09576	13.75905
	-90.09595	13.75895
	-90.09785	13.76014
	-90.09869	13.76237
	-90.09785	13.76487
	-90.09674	13.76737
	-90.09591	13.77014
	-90.09674	13.77292
	-90.09841	13.77487
	-90.09975	13.77621
	-90.10008	13.77653
	-90.10202	13.7782
	-90.10232	13.77841
	-90.10234	13.77879
	-90.10248	13.77939
	-90.10299	13.78076
	-90.10342	13.78145
	-90.10367	13.78171
	-90.10392	13.78194
	-90.10425	13.78217
	-90.10437	13.78254
	-90.10466	13.78307
	-90.10495	13.78345
	-90.10577	13.78409
	-90.10617	13.78426
	-90.10675	13.7844
	-90.10733	13.78446
	-90.10798	13.78429
	-90.10813	13.78598
	-90.10813	13.78931
	-90.10785	13.79237
	-90.10841	13.79542
	-90.10758	13.79792
	-90.10619	13.80042
	-90.10535	13.80292
	-90.10397	13.80487
	-90.10313	13.80737
	-90.10241	13.80976
	-90.10507	13.8103
	-90.10623	13.81099
	-90.10629	13.81107
	-90.10672	13.812
	-90.10684	13.81266
	-90.10743	13.81487
	-90.10778	13.81597
	-90.10784	13.8162
	-90.10794	13.81677
	-90.10798	13.81719
	-90.10797	13.81761
	-90.10791	13.81805
	-90.10778	13.81859
	-90.10769	13.81886
	-90.1071	13.82027
	-90.1059	13.82286
	-90.10556	13.82364
	-90.106	13.82587
	-90.10614	13.82671
	-90.10617	13.8271
	-90.10616	13.82758
	-90.10615	13.82777
	-90.10606	13.82848
	-90.1073	13.8307
	-90.1073	13.83403
	-90.10591	13.83598
	-90.10397	13.83792
	-90.10202	13.83931
	-90.10031	13.84102
	-90.09869	13.84292
	-90.0973	13.84487
	-90.09619	13.84737
	-90.09535	13.84987
	-90.09508	13.85292
	-90.09424	13.8557
	-90.09369	13.85848
	-90.09258	13.8607
	-90.09091	13.86264
	-90.08924	13.86431
	-90.0873	13.8657
	-90.08369	13.86931
	-90.08344	13.87054
	-90.08294	13.87051
	-90.08109	13.87156
	-90.08062	13.87243
	-90.08022	13.87327
	-90.08007	13.87444
	-90.08015	13.87489
	-90.08018	13.87529
	-90.08026	13.87574
	-90.0804	13.87618
	-90.08048	13.87632
	-90.08044	13.87667
	-90.07869	13.87792
	-90.07619	13.87903
	-90.07063	13.8807
	-90.06841	13.88209
	-90.06674	13.88375
	-90.06591	13.88653
	-90.0648	13.88875
	-90.0623	13.88959
	-90.05952	13.89042
	-90.05619	13.89098
	-90.05313	13.89125
	-90.05035	13.89209
	-90.0473	13.89237
	-90.04508	13.89375
	-90.04313	13.89542
	-90.04091	13.89681
	-90.03922	13.8985
	-90.03758	13.90042
	-90.03674	13.9032
	-90.03619	13.90598
	-90.03619	13.90959
	-90.03563	13.9157
	-90.03508	13.91848
	-90.03397	13.92098
	-90.03174	13.92237
	-90.03008	13.92403
	-90.02813	13.92542
	-90.02674	13.92764
	-90.02535	13.92959
	-90.0248	13.93237
	-90.02313	13.93459
	-90.0223	13.93709
	-90.01897	13.94042
	-90.01397	13.94264
	-90.01174	13.94403
	-90.00924	13.94542
	-90.0073	13.94681
	-90.00508	13.94848
	-90.00174	13.95181
	-90.00008	13.95375
	-89.99813	13.95514
	-89.99619	13.95681
	-89.99424	13.9582
	-89.99202	13.95959
	-89.99008	13.96098
	-89.98758	13.96209
	-89.98147	13.9632
	-89.97897	13.96403
	-89.97591	13.96487
	-89.97313	13.9657
	-89.97091	13.96653
	-89.96841	13.96764
	-89.96535	13.96848
	-89.96285	13.96959
	-89.96063	13.97098
	-89.95897	13.97264
	-89.9573	13.97459
	-89.95369	13.9782
	-89.95147	13.97959
	-89.94897	13.9807
	-89.94674	13.98181
	-89.94424	13.98264
	-89.94202	13.98403
	-89.93924	13.98848
	-89.93813	13.99042
	-89.93702	13.99292
	-89.93563	13.99487
	-89.93397	13.99681
	-89.93174	13.9982
	-89.9298	13.99959
	-89.9273	14.0007
	-89.92663	14.00241
	-89.92511	14.00435
	-89.92345	14.00674
	-89.92086	14.00743
	-89.92069	14.01101
	-89.91847	14.01307
	-89.91592	14.01132
	-89.91237	14.01104
	-89.90763	14.01344
	-89.90703	14.01641
	-89.90671	14.01791
	-89.90569	14.01982
	-89.90404	14.02235
	-89.90401	14.02315
	-89.90249	14.02675
	-89.89869	14.0282
	-89.89785	14.03042
	-89.8973	14.0332
	-89.89619	14.0357
	-89.89535	14.0382
	-89.89397	14.04014
	-89.8923	14.04237
	-89.89035	14.04375
	-89.88813	14.04514
	-89.88591	14.04625
	-89.88258	14.04653
	-89.88008	14.04737
	-89.87619	14.04737
	-89.87313	14.04709
	-89.8698	14.04737
	-89.86591	14.04737
	-89.8629	14.04791
	-89.86008	14.04848
	-89.85785	14.04987
	-89.85619	14.05181
	-89.8548	14.05375
	-89.85508	14.05737
	-89.85434	14.06019
	-89.85333	14.06
	-89.85	14.05972
	-89.84694	14.06
	-89.84572	14.06022
	-89.84389	14.06056
	-89.84111	14.06167
	-89.83833	14.06222
	-89.83583	14.06333
	-89.83306	14.06444
	-89.83028	14.06528
	-89.8275	14.06583
	-89.82417	14.06639
	-89.82167	14.06722
	-89.81833	14.0675
	-89.81472	14.0675
	-89.80917	14.06639
	-89.80611	14.06583
	-89.80361	14.06472
	-89.79917	14.06194
	-89.79694	14.06083
	-89.79472	14.05944
	-89.79278	14.05806
	-89.79056	14.05667
	-89.78861	14.05528
	-89.78639	14.05389
	-89.785	14.05167
	-89.78333	14.05
	-89.77944	14.04667
	-89.77778	14.045
	-89.77583	14.04333
	-89.77417	14.04167
	-89.76972	14.03889
	-89.76722	14.03806
	-89.765	14.03722
	-89.7625	14.03611
	-89.75889	14.03611
	-89.755	14.03639
	-89.75194	14.03667
	-89.74917	14.0375
	-89.74639	14.03806
	-89.74389	14.03917
	-89.74111	14.04
	-89.73944	14.04167
	-89.73778	14.04361
	-89.73806	14.04667
	-89.74083	14.05056
	-89.74278	14.05278
	-89.74389	14.05472
	-89.745	14.05722
	-89.74639	14.05944
	-89.74694	14.06222
	-89.74778	14.065
	-89.74778	14.06833
	-89.74722	14.07111
	-89.74694	14.07417
	-89.74639	14.07694
	-89.74556	14.07972
	-89.74417	14.08194
	-89.74306	14.08389
	-89.74111	14.08611
	-89.73778	14.08944
	-89.73611	14.09139
	-89.73472	14.09333
	-89.73361	14.09583
	-89.73278	14.09833
	-89.73111	14.10389
	-89.73083	14.10667
	-89.73	14.10917
	-89.72944	14.11194
	-89.72861	14.11444
	-89.72722	14.11694
	-89.72611	14.11889
	-89.725	14.12139
	-89.71944	14.13028
	-89.71833	14.13222
	-89.71667	14.13444
	-89.71528	14.13639
	-89.71444	14.13889
	-89.71306	14.14083
	-89.71167	14.14306
	-89.71028	14.145
	-89.70889	14.14722
	-89.7075	14.14917
	-89.70583	14.15111
	-89.70417	14.15278
	-89.7025	14.15472
	-89.70056	14.15639
	-89.69722	14.15972
	-89.69556	14.16167
	-89.69389	14.16333
	-89.69167	14.16472
	-89.69	14.16639
	-89.68833	14.16833
	-89.68639	14.17
	-89.68444	14.17139
	-89.68056	14.17472
	-89.67833	14.17611
	-89.67639	14.1775
	-89.67444	14.17917
	-89.6725	14.18056
	-89.67028	14.18194
	-89.66639	14.18472
	-89.66417	14.18667
	-89.66222	14.18806
	-89.66	14.18944
	-89.65833	14.19139
	-89.65639	14.19278
	-89.65194	14.19556
	-89.65	14.19694
	-89.64778	14.19833
	-89.64583	14.19972
	-89.64333	14.20083
	-89.64111	14.20222
	-89.63611	14.20444
	-89.63417	14.20583
	-89.63167	14.20694
	-89.62972	14.20833
	-89.62667	14.20917
	-89.62417	14.21028
	-89.62111	14.21056
	-89.61806	14.21111
	-89.61472	14.21083
	-89.61194	14.21
	-89.60917	14.20944
	-89.60639	14.20861
	-89.60389	14.2075
	-89.60139	14.20694
	-89.59833	14.20639
	-89.59556	14.20556
	-89.59194	14.20583
	-89.58889	14.20611
	-89.58528	14.20611
	-89.58194	14.20667
	-89.57944	14.2075
	-89.57639	14.20806
	-89.57361	14.20889
	-89.56861	14.21111
	-89.56611	14.21194
	-89.56417	14.21361
	-89.56167	14.21472
	-89.55944	14.21611
	-89.55556	14.21889
	-89.55361	14.22056
	-89.55139	14.22194
	-89.54917	14.22306
	-89.54667	14.22417
	-89.54333	14.22444
	-89.54028	14.225
	-89.53694	14.225
	-89.53333	14.22528
	-89.53	14.22556
	-89.52389	14.22667
	-89.52222	14.22722
	-89.52109	14.22775
	-89.51709	14.23062
	-89.51379	14.25438
	-89.54146	14.27949
	-89.54306	14.28056
	-89.54333	14.28361
	-89.54333	14.28667
	-89.54167	14.29222
	-89.54139	14.29528
	-89.54167	14.29889
	-89.54194	14.30194
	-89.54333	14.30444
	-89.54472	14.30639
	-89.54639	14.30806
	-89.54833	14.30972
	-89.55083	14.31056
	-89.55361	14.31139
	-89.55611	14.31222
	-89.55778	14.31389
	-89.55972	14.31556
	-89.56167	14.31694
	-89.56389	14.31833
	-89.56667	14.31917
	-89.56917	14.32028
	-89.57222	14.31972
	-89.575	14.31917
	-89.5775	14.31806
	-89.58056	14.3175
	-89.58389	14.31778
	-89.58667	14.31833
	-89.58889	14.31972
	-89.59028	14.32194
	-89.59083	14.325
	-89.59	14.32778
	-89.58972	14.33083
	-89.58861	14.33639
	-89.58778	14.33917
	-89.58722	14.34194
	-89.58611	14.34417
	-89.58444	14.34611
	-89.5825	14.3475
	-89.58028	14.34889
	-89.57778	14.35
	-89.57556	14.35111
	-89.57306	14.35194
	-89.57083	14.35361
	-89.56917	14.35528
	-89.56778	14.35722
	-89.5675	14.36056
	-89.56861	14.36278
	-89.57	14.36472
	-89.57167	14.36667
	-89.57361	14.36833
	-89.57583	14.36944
	-89.5775	14.37111
	-89.57917	14.37333
	-89.58083	14.375
	-89.58278	14.37667
	-89.58361	14.37944
	-89.58361	14.38278
	-89.58333	14.38583
	-89.58222	14.38833
	-89.58139	14.39083
	-89.58028	14.39306
	-89.57944	14.39556
	-89.57833	14.39806
	-89.5775	14.40083
	-89.57694	14.40361
	-89.57583	14.40583
	-89.57528	14.40861
	-89.57417	14.41111
	-89.57306	14.41333
	-89.57083	14.41472
	-89.56889	14.41611
	-89.56583	14.41694
	-89.56333	14.4175
	-89.55972	14.41806
	-89.55722	14.41861
	-89.55417	14.41944
	-89.55167	14.42056
	-89.54528	14.42111
	-89.54222	14.42028
	-89.54	14.41917
	-89.53778	14.41778
	-89.53639	14.41583
	-89.535	14.41361
	-89.53389	14.41139
	-89.53278	14.40889
	-89.53194	14.40611
	-89.53139	14.40306
	-89.53167	14.4
	-89.53333	14.39444
	-89.53361	14.39167
	-89.53361	14.38833
	-89.53306	14.38556
	-89.52917	14.38556
	-89.52667	14.38639
	-89.52417	14.3875
	-89.52194	14.38889
	-89.52028	14.39056
	-89.51861	14.3925
	-89.5175	14.39472
	-89.51667	14.39722
	-89.51556	14.39972
	-89.515	14.4025
	-89.51389	14.40472
	-89.51361	14.40806
	-89.51194	14.41
	-89.50694	14.41222
	-89.505	14.41361
	-89.50278	14.415
	-89.50083	14.41639
	-89.49889	14.41833
	-89.49694	14.41972
	-89.495	14.42139
	-89.49306	14.42278
	-89.48917	14.42611
	-89.48694	14.4275
	-89.485	14.42889
	-89.4825	14.43
	-89.47972	14.43056
	-89.47694	14.43139
	-89.47361	14.43167
	-89.47081	14.43141
	-89.46722	14.43111
	-89.46444	14.43056
	-89.4625	14.42917
	-89.46028	14.42806
	-89.45583	14.42528
	-89.45417	14.42361
	-89.44972	14.42083
	-89.44778	14.41917
	-89.44583	14.41806
	-89.44361	14.41667
	-89.44111	14.41556
	-89.43861	14.41472
	-89.43528	14.41444
	-89.4325	14.415
	-89.42861	14.41833
	-89.42639	14.41972
	-89.42472	14.42139
	-89.42278	14.42278
	-89.42111	14.42472
	-89.41917	14.42639
	-89.41722	14.42778
	-89.41556	14.42944
	-89.41389	14.43139
	-89.41222	14.43306
	-89.41056	14.43528
	-89.40889	14.43694
	-89.4075	14.43889
	-89.40639	14.44111
	-89.405	14.44361
	-89.40389	14.44556
	-89.40222	14.44778
	-89.40028	14.44917
	-89.39806	14.45056
	-89.39583	14.45167
	-89.39278	14.45167
	-89.39028	14.45056
	-89.38861	14.44889
	-89.3875	14.44667
	-89.38611	14.44417
	-89.38556	14.44139
	-89.38417	14.43944
	-89.38222	14.43778
	-89.38	14.43639
	-89.3775	14.43583
	-89.37472	14.43472
	-89.37194	14.43417
	-89.36944	14.43333
	-89.36778	14.43167
	-89.36528	14.43056
	-89.36306	14.42917
	-89.36056	14.42833
	-89.35778	14.42722
	-89.35472	14.42778
	-89.35389	14.42833
	-89.35167	14.42972
	-89.34917	14.43083
	-89.3475	14.43278
	-89.34333	14.43194
	-89.34056	14.43111
	-89.33806	14.43028
	-89.33556	14.42917
	-89.33333	14.42806
	-89.33028	14.4275
	-89.32472	14.42639
	-89.32167	14.42556
	-89.31944	14.42472
	-89.31639	14.42389
	-89.31083	14.42278
	-89.3075	14.4225
	-89.30444	14.42222
	-89.30139	14.42306
	-89.29833	14.42333
	-89.29528	14.42417
	-89.29278	14.42361
	-89.29	14.4225
	-89.28806	14.42111
	-89.28528	14.42028
	-89.28139	14.4175
	-89.27917	14.41611
	-89.27722	14.41444
	-89.27528	14.41333
	-89.27306	14.41194
	-89.27111	14.41028
	-89.26917	14.40889
	-89.26639	14.4075
	-89.26417	14.40611
	-89.26222	14.40472
	-89.26	14.40361
	-89.25556	14.40083
	-89.25306	14.4
	-89.25111	14.39861
	-89.24861	14.3975
	-89.24611	14.39667
	-89.24333	14.39556
	-89.24083	14.395
	-89.23778	14.39444
	-89.235	14.39389
	-89.23222	14.39306
	-89.22917	14.3925
	-89.22639	14.39194
	-89.22306	14.39167
	-89.22	14.39139
	-89.21694	14.39056
	-89.21444	14.39
	-89.21139	14.38944
	-89.20917	14.38806
	-89.20667	14.38722
	-89.20444	14.38611
	-89.2025	14.38444
	-89.20028	14.38306
	-89.19833	14.38167
	-89.19611	14.38056
	-89.19333	14.37944
	-89.19139	14.37806
	-89.18861	14.37722
	-89.18667	14.37583
	-89.18444	14.37444
	-89.18222	14.37361
	-89.17944	14.3725
	-89.17694	14.37139
	-89.17444	14.37056
	-89.17194	14.36944
	-89.16944	14.36861
	-89.16694	14.3675
	-89.16417	14.36694
	-89.16167	14.36611
	-89.15889	14.36528
	-89.15639	14.36444
	-89.15306	14.36417
	-89.15028	14.36361
	-89.14694	14.36333
	-89.14417	14.3625
	-89.14111	14.36222
	-89.13806	14.36167
	-89.13583	14.36056
	-89.13278	14.36
	-89.12722	14.35889
	-89.12444	14.35778
	-89.12194	14.35694
	-89.12	14.35556
	-89.1175	14.35444
	-89.115	14.35361
	-89.11278	14.35222
	-89.11028	14.35111
	-89.10778	14.35028
	-89.105	14.34972
	-89.1025	14.34861
	-89.09972	14.34778
	-89.0975	14.34667
	-89.09444	14.34611
	-89.09194	14.34472
	-89.08972	14.34361
	-89.08722	14.34278
	-89.08444	14.34167
	-89.08167	14.34111
	-89.07917	14.34
	-89.07361	14.33889
	-89.07111	14.33778
	-89.06861	14.33694
	-89.06556	14.33667
	-89.06194	14.33639
	-89.05889	14.33611
	-89.05556	14.33611
	-89.05222	14.33667
	-89.04917	14.33694
	-89.04194	14.33694
	-89.03944	14.33611
	-89.03694	14.335
	-89.03444	14.33417
	-89.03194	14.33306
	-89.02944	14.33222
	-89.02722	14.33083
	-89.02528	14.32944
	-89.02361	14.3275
	-89.02167	14.32528
	-89.02056	14.32333
	-89.01778	14.31889
	-89.01667	14.31667
	-89.01583	14.31389
	-89.015	14.31139
	-89.01417	14.30861
	-89.01361	14.30556
	-89.01306	14.30306
	-89.0125	14.29972
	-89.01194	14.29667
	-89.01194	14.29
	-89.01222	14.28694
	-89.01306	14.28389
	-89.01306	14.28083
	-89.0125	14.27806
	-89.00861	14.27528
	-89.00194	14.27111
	-88.99972	14.27
	-88.99722	14.26889
	-88.995	14.2675
	-88.99306	14.26611
	-88.99083	14.265
	-88.98833	14.26389
	-88.98639	14.2625
	-88.98417	14.26111
	-88.98194	14.26
	-88.98	14.25833
	-88.97861	14.25611
	-88.97722	14.25417
	-88.97611	14.25167
	-88.97333	14.24722
	-88.9725	14.245
	-88.97111	14.2425
	-88.97028	14.24028
	-88.96889	14.23778
	-88.96806	14.23556
	-88.96667	14.23306
	-88.96528	14.23111
	-88.96444	14.22861
	-88.96278	14.22667
	-88.96139	14.22444
	-88.95861	14.22056
	-88.95694	14.21833
	-88.95417	14.21444
	-88.9525	14.2125
	-88.95111	14.21028
	-88.94917	14.20861
	-88.94583	14.20528
	-88.94444	14.20333
	-88.9425	14.20167
	-88.94	14.2
	-88.93556	14.19722
	-88.93361	14.19583
	-88.93139	14.19444
	-88.92917	14.19333
	-88.92784	14.1925
	-88.92781	14.19274
	-88.925	14.1925
	-88.92485	14.19233
	-88.92461	14.19197
	-88.92448	14.19172
	-88.92444	14.19161
	-88.92403	14.19157
	-88.92395	14.19155
	-88.92364	14.19142
	-88.92323	14.19165
	-88.92309	14.19168
	-88.92224	14.19168
	-88.92217	14.19166
	-88.92088	14.19073
	-88.92053	14.18996
	-88.92042	14.18991
	-88.92034	14.18985
	-88.91974	14.18911
	-88.91968	14.18899
	-88.9195	14.18839
	-88.9175	14.1875
	-88.91472	14.18667
	-88.91222	14.18611
	-88.90917	14.18528
	-88.90611	14.185
	-88.90222	14.185
	-88.89889	14.18528
	-88.89528	14.18528
	-88.89222	14.18556
	-88.88889	14.18611
	-88.88583	14.18639
	-88.88222	14.18667
	-88.87611	14.18611
	-88.87306	14.18528
	-88.87056	14.18444
	-88.86806	14.18333
	-88.86667	14.1825
	-88.86694	14.18278
	-88.86528	14.18111
	-88.86333	14.17944
	-88.86	14.17611
	-88.85833	14.17389
	-88.85556	14.17
	-88.85417	14.1675
	-88.85278	14.16556
	-88.85139	14.16333
	-88.84972	14.16139
	-88.84833	14.15944
	-88.84694	14.15722
	-88.84556	14.15528
	-88.84444	14.15278
	-88.84167	14.14889
	-88.84	14.14694
	-88.83861	14.14472
	-88.83722	14.14278
	-88.83556	14.14083
	-88.83444	14.13833
	-88.83306	14.13639
	-88.82972	14.1325
	-88.82694	14.12861
	-88.82556	14.12639
	-88.82361	14.12472
	-88.82222	14.12278
	-88.82028	14.12111
	-88.81694	14.11778
	-88.81028	14.11361
	-88.80833	14.11222
	-88.80556	14.11139
	-88.80333	14.11
	-88.80083	14.10944
	-88.79833	14.10833
	-88.79528	14.10778
	-88.79306	14.10667
	-88.78944	14.10639
	-88.78722	14.10556
	-88.78444	14.105
	-88.78139	14.10417
	-88.77861	14.10361
	-88.77222	14.10306
	-88.76889	14.10306
	-88.76583	14.10389
	-88.76306	14.10472
	-88.76083	14.10556
	-88.75833	14.10667
	-88.75528	14.1075
	-88.7525	14.10833
	-88.74972	14.10889
	-88.74694	14.10972
	-88.74028	14.11028
	-88.73694	14.11
	-88.73444	14.10889
	-88.73194	14.10806
	-88.72972	14.10667
	-88.72778	14.10528
	-88.72583	14.10361
	-88.72444	14.10167
	-88.72111	14.09778
	-88.72	14.09528
	-88.71889	14.09306
	-88.71778	14.09056
	-88.71694	14.08806
	-88.71639	14.08528
	-88.71556	14.0825
	-88.715	14.07944
	-88.71472	14.07639
	-88.71444	14.07306
	-88.71389	14.07
	-88.71306	14.0675
	-88.71278	14.06444
	-88.7125	14.06111
	-88.71167	14.05833
	-88.71056	14.05583
	-88.71056	14.0525
	-88.70917	14.05028
	-88.70861	14.0475
	-88.70694	14.04556
	-88.70556	14.04333
	-88.70417	14.04139
	-88.7025	14.03972
	-88.69806	14.03694
	-88.69556	14.03611
	-88.69333	14.03472
	-88.69083	14.03389
	-88.68861	14.03278
	-88.68583	14.03167
	-88.68333	14.03083
	-88.68083	14.02972
	-88.67833	14.02889
	-88.67639	14.0275
	-88.67389	14.02639
	-88.67139	14.02556
	-88.66944	14.02389
	-88.66611	14.02056
	-88.66417	14.01889
	-88.66278	14.01639
	-88.66083	14.01444
	-88.66028	14.01444
	-88.65694	14.01417
	-88.65389	14.01389
	-88.65111	14.01278
	-88.64611	14.01111
	-88.64	14.01278
	-88.6375	14.01333
	-88.63444	14.01417
	-88.63194	14.015
	-88.62806	14.01472
	-88.62583	14.01361
	-88.62361	14.01222
	-88.62111	14.01139
	-88.61889	14.01
	-88.61722	14.00833
	-88.615	14.00694
	-88.61333	14.00528
	-88.60889	14.0025
	-88.60667	14.00139
	-88.60417	14.00028
	-88.60194	13.99917
	-88.59944	13.99833
	-88.59639	13.99778
	-88.59361	13.99694
	-88.59083	13.99639
	-88.58778	13.99583
	-88.585	13.995
	-88.58167	13.99444
	-88.57917	13.99389
	-88.57694	13.9925
	-88.575	13.99083
	-88.57361	13.98889
	-88.57167	13.98722
	-88.56944	13.98583
	-88.56722	13.98472
	-88.56472	13.98389
	-88.56222	13.98278
	-88.55944	13.98194
	-88.55694	13.98111
	-88.55389	13.98056
	-88.55056	13.98056
	-88.5475	13.98139
	-88.54528	13.9825
	-88.54222	13.98361
	-88.53944	13.98417
	-88.53667	13.985
	-88.53333	13.98528
	-88.53028	13.98583
	-88.52722	13.98611
	-88.52083	13.98556
	-88.51806	13.985
	-88.515	13.98444
	-88.51222	13.98361
	-88.50917	13.98333
	-88.50667	13.9825
	-88.50167	13.98028
	-88.49972	13.97861
	-88.49833	13.97667
	-88.49722	13.97444
	-88.49611	13.97194
	-88.495	13.97028
	-88.49583	13.96944
	-88.49694	13.96861
	-88.4975	13.9675
	-88.49806	13.96472
	-88.49778	13.96167
	-88.49694	13.95889
	-88.49694	13.94861
	-88.49667	13.94528
	-88.49722	13.94222
	-88.4975	13.93917
	-88.49833	13.93639
	-88.49861	13.93333
	-88.49917	13.93056
	-88.5	13.92778
	-88.50056	13.92167
	-88.50056	13.91833
	-88.49889	13.91278
	-88.49833	13.91
	-88.49694	13.90778
	-88.49583	13.90528
	-88.495	13.90278
	-88.49333	13.90083
	-88.49222	13.89861
	-88.49139	13.89583
	-88.49056	13.89333
	-88.48889	13.88778
	-88.48833	13.88528
	-88.48694	13.88278
	-88.48639	13.88
	-88.48556	13.87722
	-88.48556	13.87389
	-88.48611	13.87111
	-88.48694	13.86861
	-88.48861	13.86667
	-88.48889	13.86583
	-88.48694	13.86389
	-88.48417	13.86278
	-88.48167	13.86194
	-88.47917	13.86083
	-88.47694	13.85944
	-88.47472	13.85833
	-88.47306	13.85667
	-88.47083	13.85528
	-88.46861	13.85417
	-88.465	13.85417
	-88.46278	13.85583
	-88.46111	13.8575
	-88.45861	13.85861
	-88.45639	13.85944
	-88.45389	13.86056
	-88.45083	13.86139
	-88.44861	13.8625
	-88.44639	13.86389
	-88.44361	13.86472
	-88.44056	13.86528
	-88.43833	13.86444
	-88.43528	13.86361
	-88.43417	13.86583
	-88.4325	13.86778
	-88.43167	13.87028
	-88.43056	13.87278
	-88.42933	13.87429
	-88.42889	13.87472
	-88.42639	13.87583
	-88.42444	13.87722
	-88.42194	13.87833
	-88.41972	13.87972
	-88.41778	13.88111
	-88.41528	13.88222
	-88.41306	13.88361
	-88.40972	13.88361
	-88.40667	13.88306
	-88.40333	13.88306
	-88.40028	13.88361
	-88.39694	13.88389
	-88.39361	13.88444
	-88.39056	13.88417
	-88.38778	13.88333
	-88.38417	13.88361
	-88.38139	13.88417
	-88.37806	13.88389
	-88.37583	13.88278
	-88.37306	13.88194
	-88.36806	13.87972
	-88.36583	13.87833
	-88.36417	13.87667
	-88.36278	13.87444
	-88.36083	13.87278
	-88.35917	13.87111
	-88.35667	13.87028
	-88.35417	13.87
	-88.35222	13.86778
	-88.34833	13.87167
	-88.34167	13.87861
	-88.32806	13.89222
	-88.31056	13.88528
	-88.30889	13.88611
	-88.30167	13.88889
	-88.29472	13.89167
	-88.28722	13.89417
	-88.28028	13.89722
	-88.27306	13.9
	-88.26309	13.90399
	-88.26312	13.90527
	-88.26316	13.9052
	-88.26313	13.90527
	-88.2625	13.9061
	-88.26234	13.90623
	-88.26177	13.90654
	-88.26126	13.90702
	-88.26084	13.90727
	-88.26064	13.90736
	-88.26046	13.90748
	-88.26018	13.90763
	-88.26004	13.90808
	-88.25998	13.90822
	-88.25968	13.90878
	-88.25962	13.90897
	-88.25958	13.90896
	-88.25956	13.90898
	-88.25959	13.90945
	-88.25953	13.90959
	-88.25942	13.90973
	-88.25934	13.91028
	-88.25921	13.91069
	-88.25902	13.91101
	-88.25893	13.9115
	-88.25888	13.91161
	-88.25867	13.91197
	-88.25853	13.91215
	-88.25839	13.91232
	-88.25803	13.91269
	-88.25777	13.91292
	-88.2572	13.9131
	-88.25611	13.91833
	-88.25472	13.92528
	-88.25306	13.93222
	-88.25222	13.93889
	-88.235	13.94028
	-88.22944	13.94667
	-88.22361	13.95361
	-88.225	13.95612
	-88.23218	13.96047
	-88.23645	13.97216
	-88.23652	13.97709
	-88.23656	13.98422
	-88.23665	13.99208
	-88.23343	13.99755
	-88.22648	13.99896
	-88.21776	13.99485
	-88.21222	13.99349
	-88.19898	13.99052
	-88.19001	13.98869
	-88.18167	13.98701
	-88.174	13.98524
	-88.16687	13.98357
	-88.16078	13.97849
	-88.1575	13.97861
	-88.15028	13.98083
	-88.14306	13.98361
	-88.13611	13.98583
	-88.12889	13.98833
	-88.12194	13.99056
	-88.11667	13.98833
	-88.10972	13.985
	-88.1025	13.98194
	-88.09556	13.97917
	-88.08833	13.97611
	-88.08139	13.97278
	-88.07417	13.96972
	-88.06722	13.96667
	-88.06	13.96389
	-88.05806	13.95167
	-88.05722	13.945
	-88.05639	13.93806
	-88.05639	13.93722
	-88.05389	13.93611
	-88.05139	13.93528
	-88.04861	13.93444
	-88.04611	13.93333
	-88.04417	13.93278
	-88.04222	13.93167
	-88.04056	13.93056
	-88.03722	13.92389
	-88.03417	13.92
	-88.03139	13.91583
	-88.02833	13.91167
	-88.02528	13.90778
	-88.02278	13.90333
	-88.02028	13.89917
	-88.01694	13.89556
	-88.01389	13.89139
	-88.01111	13.88722
	-88.00833	13.88278
	-88.00667	13.87778
	-88.00694	13.87194
	-88.00694	13.87029
	-88.00528	13.87056
	-88.00306	13.87167
	-87.99556	13.875
	-87.99306	13.87583
	-87.99083	13.8775
	-87.98861	13.87861
	-87.98611	13.87944
	-87.98111	13.88167
	-87.97889	13.88278
	-87.97389	13.885
	-87.97111	13.88583
	-87.96889	13.88694
	-87.96667	13.88833
	-87.96472	13.88972
	-87.9625	13.89111
	-87.95861	13.89444
	-87.95667	13.89583
	-87.95333	13.89611
	-87.95	13.89611
	-87.94639	13.89639
	-87.94361	13.89556
	-87.94056	13.895
	-87.93833	13.89389
	-87.93583	13.89306
	-87.93306	13.89194
	-87.93056	13.89111
	-87.92833	13.89
	-87.92583	13.88889
	-87.92389	13.88722
	-87.92167	13.88611
	-87.92	13.88444
	-87.91694	13.88361
	-87.915	13.885
	-87.91361	13.88722
	-87.9125	13.88944
	-87.91111	13.89167
	-87.91	13.89361
	-87.90833	13.89583
	-87.90611	13.89694
	-87.90306	13.8975
	-87.8975	13.89917
	-87.89417	13.89889
	-87.89167	13.89806
	-87.88861	13.89806
	-87.88611	13.89917
	-87.88389	13.90028
	-87.88167	13.90167
	-87.87833	13.90222
	-87.87583	13.90139
	-87.87306	13.90056
	-87.87054	13.90033
	-87.87047	13.90027
	-87.87012	13.90008
	-87.8693	13.89973
	-87.86907	13.89961
	-87.869	13.89954
	-87.86836	13.89908
	-87.86791	13.89888
	-87.86722	13.89865
	-87.86661	13.89862
	-87.86617	13.89846
	-87.86524	13.89835
	-87.8649	13.89839
	-87.86458	13.8985
	-87.8642	13.8985
	-87.86404	13.89852
	-87.86327	13.89881
	-87.86305	13.89885
	-87.86198	13.89885
	-87.86117	13.89904
	-87.8603	13.89927
	-87.86003	13.89936
	-87.85874	13.89991
	-87.85833	13.90001
	-87.85779	13.90029
	-87.85728	13.9004
	-87.857	13.90057
	-87.85601	13.90225
	-87.856	13.90255
	-87.85596	13.90264
	-87.85577	13.9028
	-87.85571	13.90289
	-87.85582	13.90331
	-87.85306	13.90306
	-87.84972	13.90333
	-87.84611	13.90278
	-87.84389	13.90194
	-87.84167	13.90056
	-87.84028	13.89861
	-87.83833	13.89694
	-87.83644	13.8952
	-87.83338	13.89437
	-87.83139	13.89361
	-87.83073	13.89341
	-87.82811	13.8927
	-87.82477	13.8927
	-87.82139	13.89306
	-87.82075	13.89298
	-87.81755	13.89298
	-87.815	13.89389
	-87.81167	13.89417
	-87.80917	13.895
	-87.80611	13.89556
	-87.80333	13.89639
	-87.80056	13.89694
	-87.7975	13.8975
	-87.79028	13.8975
	-87.7875	13.89694
	-87.785	13.89583
	-87.78306	13.89444
	-87.78083	13.89333
	-87.77861	13.89167
	-87.77417	13.88889
	-87.7725	13.88722
	-87.77028	13.88583
	-87.76861	13.88417
	-87.76667	13.8825
	-87.765	13.88083
	-87.76306	13.87917
	-87.76167	13.87694
	-87.76028	13.875
	-87.75861	13.87333
	-87.75694	13.87111
	-87.755	13.86944
	-87.75361	13.8675
	-87.75194	13.86583
	-87.74972	13.86444
	-87.74639	13.86111
	-87.74417	13.85972
	-87.74222	13.85806
	-87.73889	13.85472
	-87.73694	13.8525
	-87.73528	13.85056
	-87.73389	13.84861
	-87.73278	13.84611
	-87.73167	13.84389
	-87.73083	13.84139
	-87.72917	13.83944
	-87.72778	13.83722
	-87.72444	13.83389
	-87.72278	13.83194
	-87.72083	13.83056
	-87.71889	13.82889
	-87.71667	13.8275
	-87.71417	13.82639
	-87.71222	13.82528
	-87.71	13.82389
	-87.7075	13.82278
	-87.70528	13.82139
	-87.70278	13.82056
	-87.70056	13.81944
	-87.6975	13.81889
	-87.69556	13.81833
	-87.69944	13.81417
	-87.7025	13.81
	-87.70472	13.80528
	-87.70472	13.79167
	-87.70583	13.78611
	-87.70667	13.78028
	-87.70972	13.77611
	-87.71278	13.7725
	-87.715	13.76806
	-87.71833	13.76417
	-87.72167	13.76
	-87.72556	13.75667
	-87.72889	13.75333
	-87.73083	13.74861
	-87.73	13.74278
	-87.7275	13.73778
	-87.72528	13.73306
	-87.72444	13.72722
	-87.72278	13.72167
	-87.72389	13.71583
	-87.72694	13.71222
	-87.73083	13.70944
	-87.735	13.70639
	-87.73944	13.70361
	-87.74278	13.69972
	-87.745	13.69583
	-87.74722	13.69111
	-87.74861	13.68528
	-87.74861	13.67861
	-87.74972	13.66639
	-87.74972	13.6625
	-87.74833	13.65722
	-87.74833	13.65389
	-87.74778	13.64722
	-87.74778	13.64389
	-87.75111	13.62639
	-87.75194	13.62056
	-87.75306	13.615
	-87.75528	13.61028
	-87.75722	13.60556
	-87.76028	13.60139
	-87.76316	13.59896
	-87.76659	13.59732
	-87.76842	13.59266
	-87.76778	13.58694
	-87.77056	13.58306
	-87.77361	13.57917
	-87.77583	13.57472
	-87.77778	13.56972
	-87.77722	13.56611
	-87.77722	13.56278
	-87.77611	13.55722
	-87.77583	13.55083
	-87.77528	13.54722
	-87.77611	13.54111
	-87.7775	13.53556
	-87.78028	13.53111
	-87.78333	13.52722
	-87.78278	13.52306
	-87.77722	13.52167
	-87.77361	13.51806
	-87.77111	13.51361
	-87.76806	13.50972
	-87.76306	13.50778
	-87.75806	13.50806
	-87.75528	13.51222
	-87.75333	13.51722
	-87.75056	13.52139
	-87.74639	13.51889
	-87.74361	13.51472
	-87.73972	13.51167
	-87.73389	13.51167
	-87.72806	13.51222
	-87.72278	13.51056
	-87.71833	13.50833
	-87.71472	13.50444
	-87.71278	13.49972
	-87.71583	13.49611
	-87.71667	13.49028
	-87.71417	13.48556
	-87.71139	13.48139
	-87.7125	13.47667
	-87.71361	13.47083
	-87.71194	13.45861
	-87.71306	13.45278
	-87.71556	13.44861
	-87.71944	13.44556
	-87.72472	13.44361
	-87.73111	13.44278
	-87.73694	13.44111
	-87.74222	13.43944
	-87.74778	13.43972
	-87.75111	13.44306
	-87.75417	13.44694
	-87.75806	13.45028
	-87.76139	13.45389
	-87.76528	13.45694
	-87.77111	13.45806
	-87.77379	13.45757
	-87.77405	13.45751
	-87.77722	13.45694
	-87.78222	13.455
	-87.78611	13.45222
	-87.79361	13.45361
	-87.80111	13.45694
	-87.80417	13.45722
	-87.8075	13.45722
	-87.81056	13.45667
	-87.81361	13.45583
	-87.81528	13.45417
	-87.81667	13.45222
	-87.82	13.44889
	-87.82306	13.44806
	-87.82611	13.44778
	-87.82917	13.44722
	-87.83417	13.44556
	-87.83694	13.44111
	-87.83778	13.43833
	-87.83778	13.43583
	-87.84266	13.42206
	-87.8412	13.40531
	-87.79901	13.35861
	-87.73621	13.32699
	-87.71705	13.29679
	-87.69717	13.25266
	-87.6334	13.18892
	-87.57253	13.14406
	-87.54981	13.1249
	-87.73463	13.13282
	-87.82615	13.07519
	-87.8668	13.04184
	-87.91386	13.02621
	-88.14918	13.0408
	-88.34599	13.05018
	-88.40268	13.0283
	-88.80057	13.10852
	-89.33324	13.3428
	-89.55251	13.36258
	-89.72151	13.40212
	-89.84452	13.399
	-89.9087	13.45934
	-89.95148	13.53734
	-90.16027	13.62787
END
END
