Equatorial Guinea
1
	5.844474	-2.065083
	4.982265	-1.7457
	6.037416	-0.0155209
	6.682566	-0.4134602
	7.804042	1.744805
	7.243304	2.034061
	8.60243	4.21842
	9.331992	3.628923
	9.651928	3.194775
	9.535852	2.507348
	9.761857	2.39062
	9.786369	2.370391
	9.797491	2.354743
	9.8	2.351386
	9.801103	2.349166
	9.812204	2.337498
	9.812668	2.338181
	9.813308	2.338684
	9.813869	2.338773
	9.814147	2.339056
	9.814565	2.339519
	9.815418	2.339659
	9.816256	2.339897
	9.816827	2.340438
	9.817635	2.341549
	9.818266	2.342564
	9.818585	2.343661
	9.818741	2.34504
	9.818926	2.345973
	9.818993	2.347137
	9.818255	2.348098
	9.818172	2.348626
	9.819187	2.350166
	9.822532	2.348858
	9.828767	2.342617
	9.837498	2.324816
	9.835752	2.310439
	9.834315	2.298239
	9.831781	2.293477
	9.834014	2.284639
	9.838823	2.279405
	9.841485	2.273142
	9.842301	2.264047
	9.845564	2.252463
	9.848172	2.245693
	9.853434	2.243003
	9.863965	2.240713
	9.865447	2.239203
	9.865911	2.236717
	9.870876	2.23486
	9.880549	2.232881
	9.885769	2.231761
	9.886999	2.230846
	9.887652	2.229023
	9.887345	2.226106
	9.888595	2.22438
	9.889642	2.22302
	9.891705	2.222124
	9.894562	2.221573
	9.897241	2.220369
	9.898858	2.218605
	9.899772	2.216653
	9.900785	2.214627
	9.901508	2.212456
	9.901918	2.210155
	9.902087	2.207681
	9.903978	2.207513
	9.906128	2.207513
	9.905969	2.205922
	9.905416	2.204352
	9.903824	2.202326
	9.904517	2.200053
	9.905271	2.198274
	9.906463	2.197672
	9.90802	2.197551
	9.909902	2.196827
	9.911783	2.197551
	9.912683	2.19991
	9.913375	2.201603
	9.913954	2.203484
	9.915545	2.203629
	9.917428	2.203319
	9.919428	2.203747
	9.9209	2.203918
	9.922119	2.204734
	9.923215	2.206089
	9.925096	2.20551
	9.925965	2.204497
	9.926688	2.202471
	9.927504	2.201931
	9.928414	2.198819
	9.929346	2.198097
	9.931228	2.197663
	9.932477	2.196538
	9.934279	2.194383
	9.935863	2.1975
	9.937542	2.19813
	9.939433	2.198691
	9.940966	2.198077
	9.941594	2.195959
	9.943698	2.195103
	9.945211	2.194078
	9.945397	2.192685
	9.947269	2.191832
	9.948106	2.191184
	9.948813	2.189853
	9.950816	2.189198
	9.953473	2.190395
	9.955299	2.191152
	9.95751	2.192037
	9.959104	2.191328
	9.961419	2.190605
	9.962577	2.189302
	9.964098	2.188097
	9.965616	2.186987
	9.967931	2.186263
	9.969709	2.185367
	9.971694	2.184961
	9.972109	2.18365
	9.971404	2.182067
	9.973864	2.182501
	9.975948	2.181162
	9.977844	2.18033
	9.979481	2.179719
	9.981896	2.178738
	9.983343	2.177291
	9.986185	2.177271
	9.987158	2.178382
	9.988553	2.179896
	9.990181	2.179578
	9.995931	2.177428
	10.00206	2.1743
	10.019	2.170955
	10.0255	2.167403
	10.0316	2.165472
	10.03489	2.162385
	10.0386	2.165486
	10.04371	2.165486
	10.0457	2.173852
	10.06326	2.164384
	10.07285	2.1623
	10.09986	2.163238
	10.10821	2.166886
	10.1153	2.163968
	10.1177	2.156776
	10.12156	2.156568
	10.12959	2.162508
	10.13699	2.166886
	10.14417	2.169268
	10.14511	2.173409
	10.15097	2.170637
	10.15451	2.174285
	10.15733	2.1753
	10.16026	2.173266
	10.16181	2.168345
	10.16314	2.16312
	10.16925	2.161308
	10.17532	2.162578
	10.17915	2.162323
	10.18881	2.173417
	10.40019	2.173981
	10.65603	2.173861
	10.99815	2.173615
	11.00013	2.171187
	11.17104	2.172086
	11.35986	2.171892
	11.35873	2.169239
	11.35848	2.167062
	11.35498	2.159719
	11.34654	1.831413
	11.35331	1.00216
	11.30611	1.002186
	11.2925	1.002255
	10.96444	1.003056
	10.46583	1.002222
	9.850064	1.002721
	9.842078	1.003987
	9.834606	1.004506
	9.82793	1.004112
	9.818164	1.002868
	9.808495	1.002653
	9.803593	1.001291
	9.797937	1.00015
	9.796144	1.000989
	9.793889	1.012222
	9.791944	1.016944
	9.79	1.021944
	9.788056	1.026667
	9.786111	1.031667
	9.783333	1.035833
	9.780833	1.039722
	9.774167	1.046944
	9.770833	1.050278
	9.766667	1.053056
	9.762778	1.056111
	9.758611	1.058889
	9.753889	1.061111
	9.749167	1.063056
	9.743889	1.064722
	9.737778	1.065556
	9.732222	1.066944
	9.713889	1.069444
	9.706944	1.069722
	9.694722	1.068611
	9.689167	1.0675
	9.683056	1.066944
	9.6775	1.065556
	9.672778	1.063611
	9.667778	1.061944
	9.663889	1.059167
	9.659722	1.056389
	9.655556	1.053889
	9.651944	1.050556
	9.647778	1.048056
	9.644167	1.044722
	9.640833	1.041389
	9.636667	1.038611
	9.6325	1.036111
	9.628333	1.033333
	9.623333	1.031389
	9.62	1.029444
	9.613889	1.028889
	9.606944	1.029167
	9.602222	1.028611
	9.597222	1.026667
	9.58927	1.023392
	9.58	1.019722
	9.566225	1.019706
	9.556959	1.02026
	9.547461	1.022618
	9.54739	1.01061
	9.541815	0.9965193
	9.533141	0.9843895
	9.519126	0.9629838
	9.354785	0.8464565
	9.149294	0.7534473
	5.844474	-2.065083
END
END
