Finland_Western Finland_Tampere
1
	19.35414	62.03234
	19.6801	62.98962
	20.27594	63.24328
	20.29225	63.25492
	20.35347	63.29829
	20.401	63.33188
	20.45981	63.36213
	20.51768	63.3918
	20.57268	63.41992
	20.63708	63.45276
	20.69631	63.48287
	20.81751	63.50114
	20.93872	63.51939
	21.05136	63.54881
	21.10151	63.56193
	21.16622	63.57874
	21.22121	63.593
	21.36059	63.62897
	21.3761	63.63302
	22.06848	64.06013
	22.36481	63.99919
	22.44986	63.9879
	22.5284	63.97744
	22.62693	63.96424
	22.7491	63.94761
	22.77075	63.92843
	22.77547	63.92453
	22.77972	63.92047
	22.79745	63.90505
	22.81625	63.88853
	22.81589	63.8884
	22.81556	63.88835
	22.81537	63.88845
	22.81506	63.88855
	22.81478	63.88852
	22.81455	63.88845
	22.8144	63.88833
	22.81423	63.8883
	22.81408	63.88842
	22.8141	63.88856
	22.8138	63.88916
	22.81332	63.88932
	22.81285	63.88988
	22.81249	63.89043
	22.81255	63.89057
	22.81267	63.89065
	22.81234	63.89085
	22.81185	63.89099
	22.81144	63.89098
	22.81058	63.89105
	22.8103	63.89097
	22.80996	63.89075
	22.80983	63.89052
	22.80998	63.89038
	22.80989	63.89019
	22.80978	63.88988
	22.81015	63.88944
	22.81011	63.88926
	22.81044	63.88902
	22.81062	63.88883
	22.81071	63.88862
	22.81084	63.88846
	22.8112	63.88831
	22.81137	63.88787
	22.81126	63.88775
	22.81146	63.8875
	22.81157	63.88746
	22.81142	63.88738
	22.81099	63.88729
	22.81084	63.8874
	22.81026	63.88746
	22.81023	63.88731
	22.81012	63.88695
	22.81026	63.88676
	22.81068	63.88675
	22.8112	63.88684
	22.81113	63.88704
	22.81146	63.88709
	22.81159	63.88698
	22.81202	63.88687
	22.81189	63.8868
	22.81141	63.88672
	22.81189	63.88661
	22.8121	63.88653
	22.81236	63.88646
	22.81257	63.88652
	22.81245	63.8867
	22.81257	63.88675
	22.81285	63.88663
	22.81305	63.88665
	22.8133	63.88671
	22.81341	63.88654
	22.81279	63.88644
	22.81272	63.88636
	22.81311	63.88625
	22.81341	63.88611
	22.81378	63.88603
	22.81416	63.88598
	22.81452	63.8859
	22.81495	63.88605
	22.81521	63.88621
	22.81543	63.88616
	22.81551	63.88602
	22.81562	63.88595
	22.81589	63.88596
	22.81601	63.8859
	22.81609	63.88571
	22.81637	63.88555
	22.81635	63.8854
	22.81648	63.88529
	22.81676	63.88517
	22.81714	63.88514
	22.81752	63.88527
	22.8178	63.88538
	22.81798	63.88529
	22.81795	63.88517
	22.81798	63.88496
	22.81815	63.88488
	22.81845	63.88489
	22.81875	63.88496
	22.8191	63.88498
	22.81901	63.88508
	22.81884	63.88519
	22.81899	63.88527
	22.81899	63.88538
	22.81929	63.88538
	22.82562	63.87867
	22.83004	63.8782
	22.83172	63.87789
	22.83178	63.8773
	22.832	63.87578
	22.83204	63.8756
	22.83252	63.87227
	22.8327	63.87124
	22.83464	63.86918
	22.83505	63.86922
	22.83553	63.86903
	22.83598	63.8689
	22.83611	63.8688
	22.83641	63.86877
	22.83661	63.86876
	22.83676	63.86865
	22.83678	63.8685
	22.83691	63.8683
	22.83706	63.86814
	22.83714	63.86787
	22.83731	63.86749
	22.83727	63.86725
	22.83744	63.86707
	22.83751	63.86686
	22.83768	63.86674
	22.83804	63.86671
	22.83824	63.86661
	22.83899	63.86651
	22.83927	63.86638
	22.83944	63.86623
	22.83967	63.8663
	22.8398	63.86637
	22.83998	63.86635
	22.8401	63.86617
	22.8403	63.86604
	22.84028	63.86592
	22.83998	63.86596
	22.83983	63.86582
	22.84013	63.86575
	22.84017	63.86559
	22.84036	63.86554
	22.84038	63.86546
	22.84023	63.86539
	22.84006	63.86522
	22.83937	63.86513
	22.83929	63.86505
	22.8391	63.86502
	22.83886	63.86509
	22.83871	63.86511
	22.8483	63.85543
	22.86716	63.83708
	22.87079	63.83436
	22.87132	63.83401
	22.87124	63.83379
	22.87132	63.83363
	22.87117	63.83357
	22.8713	63.83341
	22.87165	63.83332
	22.87203	63.83319
	22.87214	63.83305
	22.87227	63.83248
	22.87214	63.83207
	22.87199	63.83194
	22.87167	63.83181
	22.87148	63.8317
	22.87124	63.83164
	22.871	63.83124
	22.87107	63.83058
	22.87145	63.83028
	22.87175	63.83008
	22.8719	63.82993
	22.8719	63.82978
	22.87182	63.82959
	22.87171	63.82943
	22.87154	63.82936
	22.87145	63.82926
	22.8709	63.82914
	22.87126	63.82873
	22.88027	63.81947
	22.87984	63.81933
	22.88062	63.81862
	22.88091	63.81882
	22.88113	63.81861
	22.88105	63.81851
	22.88083	63.81845
	22.88162	63.81807
	22.8868	63.81255
	22.88049	63.80851
	22.87881	63.80752
	22.87781	63.80434
	22.87197	63.8025
	22.8639	63.79079
	22.85989	63.78471
	22.88302	63.78232
	22.88332	63.7821
	22.8833	63.782
	22.88304	63.78199
	22.88311	63.78187
	22.88334	63.78187
	22.88341	63.78165
	22.88338	63.78152
	22.88353	63.78141
	22.88401	63.78133
	22.88426	63.78122
	22.88433	63.78116
	22.88454	63.78118
	22.8849	63.7814
	22.88488	63.78153
	22.88512	63.78153
	22.88531	63.78142
	22.88564	63.78131
	22.88594	63.78125
	22.88607	63.78117
	22.88622	63.78119
	22.88625	63.78127
	22.88643	63.78129
	22.88635	63.78152
	22.8866	63.78166
	22.8867	63.78177
	22.8868	63.78195
	22.91214	63.77942
	22.91903	63.77874
	22.91926	63.77862
	22.91956	63.77851
	22.91984	63.77828
	22.92012	63.77819
	22.92033	63.77822
	22.92041	63.7783
	22.92061	63.77828
	22.9241	63.77896
	22.92734	63.77721
	22.92719	63.77715
	22.92551	63.77657
	22.92154	63.77511
	22.92217	63.77476
	22.9237	63.77395
	22.92797	63.77278
	22.92608	63.77141
	22.9269	63.77031
	22.92725	63.76879
	22.93045	63.76733
	22.9359	63.77116
	22.93458	63.7724
	22.93282	63.77348
	22.93136	63.77387
	22.93137	63.77438
	22.93362	63.77495
	22.93331	63.77531
	22.93218	63.77554
	22.93136	63.77548
	22.93117	63.77606
	22.93056	63.77672
	22.93152	63.7771
	22.93201	63.7783
	22.96292	63.78357
	22.96625	63.77969
	22.98942	63.78359
	22.99044	63.78478
	22.98684	63.7855
	22.98685	63.78565
	22.98862	63.78795
	23.00469	63.79058
	23.01129	63.79171
	23.02976	63.78831
	23.06145	63.77839
	23.07375	63.77386
	23.07442	63.77373
	23.08603	63.76946
	23.09028	63.76786
	23.09015	63.76779
	23.12475	63.75507
	23.15802	63.74373
	23.16631	63.74093
	23.16989	63.74311
	23.17401	63.74255
	23.18113	63.74407
	23.18099	63.74437
	23.18313	63.74464
	23.18641	63.74049
	23.18909	63.73875
	23.18067	63.73803
	23.17609	63.74068
	23.17049	63.74181
	23.16909	63.73996
	23.17387	63.73834
	23.18616	63.7326
	23.19045	63.73287
	23.19503	63.72843
	23.1999	63.7293
	23.20144	63.72847
	23.20574	63.72678
	23.21348	63.72211
	23.2149	63.72304
	23.22411	63.71876
	23.23008	63.71865
	23.23559	63.7171
	23.23442	63.71661
	23.23716	63.7154
	23.23577	63.71402
	23.23998	63.71358
	23.24099	63.71542
	23.23758	63.71559
	23.23901	63.71605
	23.24182	63.71678
	23.2484	63.71692
	23.2483	63.71851
	23.24729	63.71985
	23.24571	63.72036
	23.24565	63.72048
	23.24899	63.72186
	23.24993	63.72145
	23.25997	63.73024
	23.26095	63.73007
	23.26209	63.73188
	23.26332	63.73245
	23.26299	63.73293
	23.26502	63.73691
	23.26559	63.74148
	23.27515	63.74596
	23.27831	63.7443
	23.28085	63.74442
	23.28382	63.74611
	23.28192	63.7491
	23.2854	63.75071
	23.29176	63.75086
	23.29318	63.7497
	23.29599	63.74999
	23.2957	63.7528
	23.29563	63.75287
	23.2942	63.75403
	23.29749	63.75456
	23.30003	63.75457
	23.30151	63.75392
	23.30341	63.75444
	23.30363	63.75497
	23.30294	63.75561
	23.3183	63.75823
	23.32346	63.76221
	23.32631	63.76224
	23.32766	63.75983
	23.33636	63.76128
	23.33729	63.76123
	23.33699	63.75992
	23.33716	63.7599
	23.33779	63.75991
	23.35157	63.75819
	23.36103	63.75704
	23.37321	63.75811
	23.37254	63.75964
	23.36491	63.75897
	23.36361	63.76121
	23.36891	63.76238
	23.37447	63.76003
	23.37701	63.76059
	23.38031	63.75872
	23.39186	63.7593
	23.40482	63.75036
	23.42115	63.75326
	23.43821	63.7415
	23.42706	63.73797
	23.43005	63.73613
	23.43936	63.74071
	23.44434	63.73722
	23.44819	63.73759
	23.45294	63.73993
	23.45786	63.7416
	23.45786	63.74179
	23.45781	63.74223
	23.45576	63.74332
	23.45637	63.74354
	23.45773	63.7428
	23.45604	63.75596
	23.45878	63.75655
	23.45568	63.75869
	23.45533	63.76141
	23.47763	63.77913
	23.48428	63.77682
	23.48751	63.77556
	23.52096	63.76182
	23.53102	63.75774
	23.54946	63.7505
	23.56632	63.74423
	23.58036	63.73908
	23.59783	63.72962
	23.60119	63.72828
	23.61868	63.72148
	23.62256	63.72024
	23.67785	63.70211
	23.68304	63.70044
	23.68634	63.69926
	23.74408	63.67544
	23.70485	63.65654
	23.64987	63.67109
	23.64212	63.66578
	23.64142	63.66604
	23.6359	63.66348
	23.61071	63.65029
	23.59958	63.64808
	23.57397	63.64297
	23.56085	63.6391
	23.56367	63.6382
	23.5631	63.63775
	23.56144	63.63754
	23.56113	63.6381
	23.55889	63.63743
	23.55814	63.63762
	23.55789	63.63925
	23.5574	63.63971
	23.55634	63.64007
	23.55497	63.64036
	23.5535	63.64352
	23.5529	63.64358
	23.55294	63.64376
	23.55286	63.64387
	23.55226	63.64409
	23.55171	63.64446
	23.55011	63.64494
	23.54981	63.64515
	23.54921	63.6452
	23.54872	63.6451
	23.54829	63.64462
	23.5476	63.64439
	23.54774	63.64427
	23.54978	63.64403
	23.55108	63.64373
	23.5514	63.64359
	23.55167	63.64264
	23.55503	63.63732
	23.55583	63.63648
	23.55556	63.63559
	23.55388	63.63603
	23.54952	63.63472
	23.54649	63.63373
	23.54646	63.63398
	23.54672	63.63429
	23.54666	63.63442
	23.5476	63.63505
	23.54767	63.63521
	23.54273	63.63349
	23.53212	63.63407
	23.5246	63.63671
	23.51888	63.6404
	23.51658	63.64199
	23.50383	63.6483
	23.50342	63.64836
	23.50256	63.64835
	23.50115	63.64845
	23.49986	63.64877
	23.49847	63.64937
	23.49668	63.65048
	23.49523	63.65128
	23.49457	63.65158
	23.49321	63.65207
	23.4917	63.65256
	23.49056	63.65277
	23.49009	63.6528
	23.48943	63.65261
	23.48831	63.65205
	23.48745	63.65145
	23.48363	63.65014
	23.48333	63.64994
	23.48308	63.64954
	23.48305	63.64926
	23.48316	63.64895
	23.4836	63.64838
	23.48472	63.64772
	23.4868	63.64692
	23.48727	63.64646
	23.48726	63.64558
	23.48566	63.6446
	23.48521	63.64408
	23.48539	63.64338
	23.48656	63.64185
	23.48708	63.64072
	23.4867	63.64059
	23.48639	63.64072
	23.48618	63.64095
	23.48576	63.64198
	23.48496	63.64302
	23.48449	63.64346
	23.48436	63.64385
	23.48444	63.64418
	23.48495	63.64472
	23.48663	63.64562
	23.48671	63.64609
	23.48659	63.64652
	23.48635	63.64676
	23.48596	63.64696
	23.48421	63.64759
	23.48364	63.64788
	23.48293	63.64841
	23.48253	63.6491
	23.4825	63.64946
	23.48299	63.65019
	23.48344	63.65045
	23.48385	63.65061
	23.48537	63.65105
	23.48718	63.65166
	23.48823	63.65243
	23.48907	63.65283
	23.48992	63.65303
	23.4907	63.65306
	23.49221	63.6527
	23.49366	63.65217
	23.49507	63.65167
	23.49644	63.65101
	23.49693	63.65062
	23.49759	63.65024
	23.498	63.64989
	23.49825	63.64985
	23.49832	63.64976
	23.49862	63.64967
	23.49957	63.64917
	23.49996	63.64904
	23.50073	63.6488
	23.50158	63.64866
	23.50256	63.64871
	23.50297	63.64877
	23.50312	63.64884
	23.50322	63.64901
	23.50317	63.64981
	23.50289	63.6505
	23.50187	63.65237
	23.50168	63.65422
	23.50155	63.65469
	23.50138	63.65495
	23.50036	63.65577
	23.49944	63.65623
	23.49844	63.65651
	23.49759	63.65662
	23.4955	63.6568
	23.49463	63.6568
	23.49231	63.65706
	23.49175	63.65713
	23.49077	63.65732
	23.48795	63.65807
	23.48632	63.65843
	23.48478	63.65868
	23.4817	63.65896
	23.48055	63.65913
	23.47475	63.6604
	23.47339	63.66061
	23.47086	63.66108
	23.4689	63.6616
	23.46873	63.66162
	23.46795	63.66151
	23.46768	63.66075
	23.47344	63.65951
	23.47309	63.65773
	23.47367	63.65759
	23.47507	63.65742
	23.47549	63.65742
	23.47575	63.65724
	23.47669	63.65695
	23.47726	63.65693
	23.47738	63.65684
	23.47741	63.65661
	23.4777	63.65646
	23.47791	63.65624
	23.47831	63.65607
	23.4784	63.6559
	23.47885	63.65581
	23.47888	63.65561
	23.47925	63.65549
	23.47947	63.65534
	23.47947	63.65525
	23.47933	63.65517
	23.47829	63.65516
	23.47867	63.65461
	23.47935	63.6533
	23.47967	63.6529
	23.48063	63.64958
	23.48151	63.64788
	23.48405	63.64605
	23.48322	63.64548
	23.48291	63.64454
	23.48473	63.64287
	23.48403	63.64273
	23.48491	63.63998
	23.45323	63.62906
	23.45633	63.62691
	23.45315	63.62403
	23.45823	63.62291
	23.46058	63.62439
	23.46716	63.62027
	23.4654	63.61766
	23.46459	63.61849
	23.46363	63.61837
	23.46431	63.61706
	23.4648	63.61675
	23.46447	63.61626
	23.4609	63.6151
	23.45403	63.61483
	23.4563	63.61286
	23.45724	63.613
	23.45784	63.61284
	23.46005	63.61256
	23.45772	63.61023
	23.45366	63.61105
	23.45297	63.61161
	23.44938	63.61396
	23.43972	63.61622
	23.43362	63.61759
	23.43015	63.61709
	23.42241	63.61601
	23.42314	63.61568
	23.44174	63.60764
	23.44536	63.60531
	23.44841	63.60479
	23.46662	63.5969
	23.48168	63.59039
	23.47948	63.58938
	23.48221	63.58817
	23.48371	63.58753
	23.48607	63.58849
	23.49096	63.58638
	23.49414	63.58905
	23.49585	63.59057
	23.49689	63.59022
	23.4972	63.59056
	23.49825	63.59037
	23.50547	63.59052
	23.50759	63.59456
	23.52761	63.59037
	23.52836	63.59065
	23.52695	63.59287
	23.5331	63.59633
	23.53639	63.59696
	23.53601	63.59867
	23.5387	63.6002
	23.5407	63.59827
	23.54498	63.60104
	23.54786	63.60013
	23.54831	63.60033
	23.54939	63.59924
	23.55659	63.60413
	23.56365	63.60046
	23.56605	63.59784
	23.56772	63.59339
	23.56953	63.58892
	23.5706	63.58841
	23.57517	63.58648
	23.57701	63.58687
	23.57769	63.58644
	23.57789	63.58636
	23.57838	63.58607
	23.57867	63.58591
	23.57883	63.58543
	23.57956	63.58527
	23.57713	63.58408
	23.57263	63.58449
	23.57167	63.58247
	23.57399	63.58226
	23.57279	63.58014
	23.57555	63.58007
	23.56332	63.57416
	23.56364	63.57453
	23.56369	63.57468
	23.56386	63.57487
	23.56414	63.57506
	23.56461	63.5752
	23.56468	63.57536
	23.56449	63.5757
	23.56441	63.57625
	23.56428	63.57668
	23.56404	63.5769
	23.56388	63.57714
	23.56338	63.57739
	23.56303	63.5774
	23.56272	63.57744
	23.56257	63.57756
	23.56222	63.57762
	23.56181	63.57773
	23.56126	63.57775
	23.56088	63.57784
	23.56009	63.57782
	23.55976	63.5777
	23.5595	63.57766
	23.55943	63.57756
	23.55926	63.57744
	23.55896	63.57742
	23.55882	63.57735
	23.55551	63.57744
	23.556	63.56759
	23.5608	63.56814
	23.56275	63.56842
	23.56637	63.56884
	23.57141	63.56939
	23.57801	63.57017
	23.57797	63.57001
	23.578	63.56981
	23.57797	63.56961
	23.57856	63.56928
	23.5786	63.56883
	23.57893	63.56825
	23.58003	63.56742
	23.58036	63.56702
	23.58096	63.56668
	23.58128	63.56661
	23.58156	63.56647
	23.58158	63.5663
	23.58189	63.56605
	23.58197	63.56589
	23.57487	63.56306
	23.57854	63.56252
	23.58062	63.56256
	23.58206	63.56169
	23.58246	63.56155
	23.58424	63.56049
	23.58704	63.5589
	23.58724	63.55831
	23.58425	63.55757
	23.57885	63.55504
	23.57873	63.55341
	23.57862	63.55341
	23.58014	63.55296
	23.59326	63.5489
	23.61113	63.54333
	23.62078	63.54034
	23.62952	63.53765
	23.63125	63.5371
	23.64155	63.53387
	23.65103	63.53093
	23.65784	63.48763
	23.65741	63.46125
	23.66086	63.46135
	23.66765	63.45139
	23.66015	63.44975
	23.66268	63.44278
	23.66397	63.43948
	23.66429	63.43826
	23.66515	63.43602
	23.66003	63.43483
	23.67147	63.42292
	23.67588	63.41837
	23.68571	63.4081
	23.70993	63.38288
	23.69699	63.38032
	23.69837	63.37894
	23.70414	63.37308
	23.71181	63.36536
	23.71952	63.35754
	23.72963	63.34723
	23.73266	63.34467
	23.74764	63.33235
	23.77075	63.31309
	23.77988	63.30933
	23.79999	63.30099
	23.79918	63.30044
	23.79937	63.30018
	23.80016	63.30006
	23.80089	63.2998
	23.80064	63.2994
	23.80143	63.29674
	23.80079	63.29667
	23.80046	63.29698
	23.79828	63.29691
	23.79827	63.29656
	23.80068	63.2962
	23.80342	63.297
	23.80375	63.2982
	23.80435	63.2992
	23.81544	63.29453
	23.81563	63.29379
	23.81638	63.2937
	23.81722	63.29258
	23.81849	63.29224
	23.81862	63.29242
	23.81664	63.29405
	23.8204	63.29249
	23.67279	63.1283
	23.65219	62.98144
	23.67691	62.87394
	23.6879	62.72579
	23.68515	62.63756
	23.73459	62.52372
	23.66043	62.41709
	23.6618	62.37636
	23.68103	62.3324
	23.74145	62.28517
	23.703	62.24555
	23.70987	62.05887
	23.77853	61.89952
	23.85544	61.85485
	23.80875	61.8231
	23.75519	61.76208
	23.77167	61.73153
	23.73322	61.6801
	23.75107	61.57046
	23.806	61.52728
	23.91449	61.52924
	24.09302	61.49387
	24.23309	61.43614
	24.29215	61.37699
	24.4368	61.26578
	24.43033	61.26341
	24.42602	61.25715
	24.4205	61.25344
	24.41883	61.25291
	24.41853	61.25304
	24.41797	61.25323
	24.42022	61.255
	24.41851	61.25708
	24.41255	61.25694
	24.40311	61.25347
	24.3994	61.24689
	24.38641	61.24967
	24.36101	61.24279
	24.33323	61.23823
	24.31302	61.2349
	24.30283	61.23327
	24.30018	61.23417
	24.29674	61.23531
	24.29575	61.2356
	24.28255	61.24011
	24.27623	61.23457
	24.27496	61.23466
	24.2688	61.23
	24.2735	61.22866
	24.27217	61.22737
	24.27212	61.22722
	24.27189	61.22714
	24.27	61.22524
	24.26845	61.22546
	24.26649	61.22569
	24.26466	61.22417
	24.26195	61.22171
	24.26047	61.22039
	24.25966	61.22007
	24.25989	61.21983
	24.25959	61.21955
	24.25803	61.21827
	24.25946	61.2163
	24.26163	61.21343
	24.26552	61.20821
	24.26977	61.20598
	24.26998	61.20594
	24.2702	61.20596
	24.27035	61.206
	24.27059	61.20595
	24.27072	61.20584
	24.27106	61.20573
	24.27119	61.20559
	24.27122	61.20545
	24.27122	61.20533
	24.27108	61.2053
	24.27162	61.205
	24.29714	61.19149
	24.28164	61.18157
	24.28152	61.18171
	24.28115	61.18177
	24.28094	61.18185
	24.28075	61.18191
	24.28062	61.182
	24.28018	61.18209
	24.27987	61.18211
	24.27964	61.18205
	24.2795	61.18207
	24.27928	61.18207
	24.27926	61.18181
	24.27914	61.18178
	24.27907	61.18173
	24.27884	61.18146
	24.27865	61.18145
	24.27855	61.18141
	24.27877	61.1811
	24.27869	61.18054
	24.27851	61.18052
	24.27834	61.18045
	24.2781	61.18044
	24.2777	61.18049
	24.2774	61.18039
	24.27723	61.18025
	24.27718	61.18014
	24.27706	61.18001
	24.27707	61.17988
	24.27754	61.1796
	24.27761	61.17951
	24.2775	61.17912
	24.27762	61.17902
	24.27784	61.17888
	24.2675	61.17219
	24.23551	61.15142
	24.23189	61.14999
	24.23004	61.1498
	24.20676	61.14751
	24.18237	61.14508
	24.13894	61.14321
	24.13432	61.13827
	24.13458	61.13784
	24.13409	61.13666
	24.13524	61.13432
	24.13535	61.13319
	24.13726	61.13189
	24.13874	61.13166
	24.1403	61.12984
	24.1401	61.12972
	24.14002	61.12965
	24.13984	61.12958
	24.13953	61.12951
	24.13858	61.12901
	24.13845	61.12889
	24.13783	61.12739
	24.13784	61.12705
	24.13818	61.12605
	24.13783	61.125
	24.13783	61.12475
	24.138	61.12394
	24.13806	61.1238
	24.11108	61.12827
	24.11009	61.12816
	24.10992	61.12815
	24.08811	61.12568
	24.08731	61.1256
	24.06375	61.12292
	24.06525	61.12225
	24.06538	61.12187
	24.06632	61.12126
	24.06608	61.12103
	24.06328	61.1195
	24.06152	61.1189
	24.05253	61.12063
	24.05246	61.12079
	24.05218	61.12103
	24.05208	61.12123
	24.05201	61.12151
	24.05184	61.12164
	24.05178	61.1217
	24.0513	61.12186
	24.05012	61.12232
	24.04974	61.12251
	24.04954	61.1227
	24.04922	61.12316
	24.0483	61.12358
	24.04761	61.12395
	24.04643	61.12447
	24.04154	61.12261
	24.03716	61.12484
	24.02924	61.12299
	24.02448	61.12189
	24.02373	61.12059
	24.0263	61.11956
	23.99439	61.11129
	23.98055	61.10769
	23.97067	61.10514
	23.95879	61.10204
	23.95826	61.10191
	23.95519	61.10111
	23.95037	61.0999
	23.94094	61.09743
	23.9353	61.096
	23.93031	61.09471
	23.92355	61.09299
	23.92391	61.09288
	23.92428	61.09281
	23.92465	61.09281
	23.92485	61.09285
	23.92501	61.09293
	23.92519	61.09292
	23.92527	61.09282
	23.92507	61.09253
	23.92516	61.09241
	23.92534	61.09236
	23.92557	61.09227
	23.92577	61.0921
	23.926	61.09201
	23.92609	61.09188
	23.92607	61.09178
	23.92608	61.09164
	23.9261	61.09156
	23.92624	61.09125
	23.92642	61.09121
	23.92671	61.09123
	23.92678	61.09121
	23.92697	61.09119
	23.92713	61.091
	23.92716	61.09083
	23.92729	61.09067
	23.92745	61.09064
	23.9277	61.09066
	23.92798	61.09078
	23.92828	61.09079
	23.92838	61.09069
	23.92828	61.09054
	23.92849	61.09039
	23.92872	61.09033
	23.92882	61.09023
	23.92881	61.09011
	23.92864	61.08999
	23.92864	61.08988
	23.92876	61.08984
	23.92895	61.08987
	23.92909	61.08972
	23.92902	61.08966
	23.92881	61.08966
	23.9287	61.0896
	23.92792	61.08948
	23.9274	61.08949
	23.9273	61.08943
	23.92612	61.08978
	23.9264	61.09018
	23.92517	61.09026
	23.92482	61.08999
	23.92378	61.0902
	23.92052	61.09053
	23.91998	61.09182
	23.91288	61.09014
	23.91298	61.08984
	23.91322	61.08943
	23.90988	61.08818
	23.90826	61.08918
	23.90683	61.08864
	23.90655	61.08833
	23.90656	61.08803
	23.90774	61.08722
	23.90638	61.087
	23.90464	61.08665
	23.90368	61.08644
	23.88995	61.08365
	23.88365	61.08236
	23.8644	61.07844
	23.86218	61.07799
	23.8605	61.07767
	23.84885	61.07523
	23.84922	61.07484
	23.84717	61.07289
	23.84564	61.07294
	23.84415	61.07301
	23.84379	61.07298
	23.84165	61.07483
	23.84226	61.07554
	23.82533	61.08238
	23.80924	61.08005
	23.80872	61.07997
	23.80791	61.07983
	23.80617	61.07958
	23.80454	61.07936
	23.79973	61.07737
	23.79185	61.07455
	23.78995	61.07396
	23.78832	61.07342
	23.78675	61.07395
	23.78651	61.07391
	23.78564	61.07408
	23.78547	61.07384
	23.78418	61.07395
	23.78426	61.07406
	23.78423	61.0742
	23.78402	61.07415
	23.7837	61.0738
	23.78387	61.07369
	23.78395	61.07351
	23.7841	61.07341
	23.7841	61.0734
	23.78435	61.0733
	23.78506	61.0732
	23.78535	61.07313
	23.78576	61.07299
	23.78591	61.07291
	23.78609	61.07275
	23.78619	61.07272
	23.78632	61.0727
	23.78652	61.07271
	23.78662	61.07269
	23.7863	61.0724
	23.77248	61.06537
	23.7568	61.05735
	23.75689	61.05731
	23.76365	61.0564
	23.79755	61.05187
	23.8037	61.051
	23.79566	61.04388
	23.80471	61.036
	23.80149	61.03324
	23.79867	61.03091
	23.79267	61.02519
	23.82306	61.02945
	23.82523	61.02979
	23.82847	61.03022
	23.83226	61.03088
	23.85735	61.03566
	23.86558	61.03729
	23.86824	61.03067
	23.87217	61.02681
	23.87239	61.02665
	23.87402	61.02487
	23.8743	61.02469
	23.87466	61.02459
	23.87494	61.02453
	23.87514	61.02434
	23.87537	61.02407
	23.8758	61.02366
	23.87619	61.02338
	23.87681	61.02313
	23.87745	61.02291
	23.87788	61.02284
	23.87809	61.02262
	23.87835	61.02213
	23.87852	61.022
	23.87839	61.02184
	23.8782	61.02156
	23.87786	61.02137
	23.87743	61.02125
	23.87709	61.0211
	23.87698	61.02095
	23.87711	61.0208
	23.87713	61.02066
	23.87687	61.02057
	23.87653	61.02038
	23.87618	61.02005
	23.87571	61.01954
	23.87539	61.01932
	23.87509	61.01923
	23.87496	61.01908
	23.87498	61.01889
	23.87494	61.01875
	23.87462	61.01862
	23.87421	61.01859
	23.87359	61.0186
	23.87297	61.01849
	23.87232	61.0183
	23.87181	61.01834
	23.87127	61.01824
	23.87087	61.01801
	23.87007	61.01778
	23.86962	61.0177
	23.86911	61.01778
	23.86883	61.0177
	23.86842	61.01766
	23.86827	61.0175
	23.86833	61.01747
	23.86844	61.01739
	23.86889	61.01739
	23.86915	61.01726
	23.86923	61.01703
	23.86908	61.0169
	23.86878	61.01682
	23.8684	61.01682
	23.86824	61.01671
	23.86792	61.01655
	23.867	61.01614
	23.86672	61.01606
	23.86648	61.01587
	23.86627	61.01568
	23.8652	61.01494
	23.86237	61.0155
	23.86081	61.01469
	23.85808	61.01345
	23.85814	61.01328
	23.85803	61.01321
	23.8578	61.01302
	23.8578	61.01282
	23.85806	61.01256
	23.85542	61.0118
	23.85482	61.01296
	23.85466	61.01308
	23.85404	61.0129
	23.85392	61.01289
	23.85364	61.01289
	23.8531	61.01303
	23.85267	61.01304
	23.85219	61.01299
	23.85207	61.01299
	23.85183	61.01301
	23.85046	61.01277
	23.8496	61.01258
	23.84906	61.0124
	23.8484	61.01227
	23.84801	61.01226
	23.84778	61.01223
	23.8476	61.01208
	23.84746	61.01179
	23.84724	61.01173
	23.84711	61.01158
	23.847	61.0114
	23.84692	61.01136
	23.84675	61.01125
	23.84632	61.01105
	23.84618	61.01095
	23.84606	61.01088
	23.84608	61.01072
	23.84574	61.01044
	23.84568	61.01022
	23.84589	61.01009
	23.84598	61.00979
	23.84614	61.00956
	23.84591	61.00937
	23.84608	61.00911
	23.84591	61.00883
	23.84585	61.00855
	23.84572	61.00819
	23.8448	61.00807
	23.84402	61.00787
	23.84389	61.0077
	23.84338	61.00754
	23.84306	61.00735
	23.84283	61.0074
	23.84282	61.00741
	23.84257	61.00741
	23.84254	61.00742
	23.84216	61.00725
	23.84184	61.00717
	23.84162	61.00721
	23.84119	61.00716
	23.84072	61.00702
	23.84042	61.00701
	23.83992	61.00704
	23.83943	61.00696
	23.839	61.00694
	23.83855	61.0069
	23.83806	61.00673
	23.83768	61.00684
	23.83741	61.00694
	23.83647	61.00723
	23.83582	61.00734
	23.83589	61.00752
	23.83574	61.0079
	23.83595	61.00801
	23.83583	61.00821
	23.83591	61.00829
	23.83619	61.00826
	23.8363	61.00841
	23.83645	61.00819
	23.83673	61.00823
	23.83675	61.00838
	23.83653	61.00855
	23.83613	61.00857
	23.83619	61.00874
	23.83662	61.00873
	23.83701	61.00878
	23.83701	61.00901
	23.83666	61.00929
	23.8366	61.00957
	23.83598	61.00977
	23.836	61.00995
	23.83595	61.00998
	23.83572	61.01008
	23.83542	61.01008
	23.83492	61.01013
	23.8345	61.01021
	23.83443	61.0026
	23.81985	61.00113
	23.81538	61.00067
	23.81654	61.00005
	23.83113	60.99211
	23.84527	60.98446
	23.85253	60.98049
	23.85658	60.97154
	23.86488	60.9536
	23.85693	60.94923
	23.83934	60.93973
	23.8296	60.95046
	23.82557	60.95497
	23.8122	60.96974
	23.80748	60.97498
	23.79491	60.98906
	23.78504	60.98884
	23.78399	60.99137
	23.78068	60.99198
	23.77946	60.99225
	23.77868	60.99241
	23.77965	60.99317
	23.77677	60.99571
	23.77587	60.99592
	23.7678	60.99594
	23.76654	60.99708
	23.75328	60.99488
	23.75493	60.99416
	23.75487	60.99346
	23.75469	60.99303
	23.75343	60.9922
	23.74929	60.99382
	23.74575	60.99326
	23.74549	60.99368
	23.73993	60.99277
	23.73869	60.99252
	23.73585	60.99214
	23.73686	60.99807
	23.73759	61.00372
	23.71232	61.00903
	23.6967	61.00604
	23.69481	61.00583
	23.69493	61.0056
	23.69519	61.00539
	23.69494	61.00475
	23.68796	61.00527
	23.68727	61.00513
	23.68719	61.00512
	23.68511	61.00296
	23.67927	61.00415
	23.6754	61.00434
	23.67534	61.00435
	23.67579	61.00595
	23.66457	61.00572
	23.66075	61.0018
	23.65176	61.00312
	23.6499	61.00116
	23.63962	61.00345
	23.63839	61.00223
	23.63067	61.00397
	23.62726	61.00036
	23.62078	61.00177
	23.61853	61.00252
	23.61462	60.99819
	23.60812	60.99136
	23.60589	60.9919
	23.60533	60.99044
	23.60307	60.99068
	23.60245	60.99055
	23.60212	60.99054
	23.60112	60.99044
	23.59977	60.99052
	23.59954	60.99052
	23.5974	60.9904
	23.59712	60.99036
	23.59475	60.98989
	23.5938	60.98962
	23.59339	60.98946
	23.5931	60.9893
	23.59276	60.98916
	23.59209	60.98898
	23.59095	60.98878
	23.59071	60.98872
	23.5903	60.9886
	23.58955	60.98818
	23.58935	60.988
	23.58898	60.98667
	23.58887	60.98657
	23.58648	60.98623
	23.58594	60.98614
	23.58444	60.98659
	23.58382	60.98687
	23.58287	60.9875
	23.58205	60.98795
	23.57995	60.98735
	23.57947	60.98784
	23.57267	60.99058
	23.57565	60.9935
	23.58293	60.99039
	23.58755	60.99574
	23.58218	60.99683
	23.5816	60.99691
	23.57831	60.99757
	23.57265	60.99866
	23.57018	60.99954
	23.56632	61.00106
	23.56608	61.0
	23.56603	60.99915
	23.56589	60.99893
	23.56497	60.99599
	23.5643	60.99618
	23.55469	60.99926
	23.54793	60.99656
	23.54132	60.99949
	23.54035	60.99663
	23.5442	60.99509
	23.53804	60.9915
	23.53675	60.99081
	23.53568	60.99014
	23.5342	60.98929
	23.53212	60.98806
	23.53096	60.98736
	23.52608	60.98887
	23.52621	60.99236
	23.52147	60.9929
	23.5204	60.99125
	23.51624	60.99244
	23.51639	60.99228
	23.51639	60.99214
	23.51617	60.99184
	23.51079	60.99354
	23.51016	60.99339
	23.50937	60.99317
	23.5066	60.99297
	23.49961	60.99075
	23.49261	60.99049
	23.4915	60.99057
	23.49102	60.99061
	23.49089	60.99063
	23.48845	60.9905
	23.48654	60.99047
	23.47907	60.99012
	23.47892	60.99023
	23.47858	60.99028
	23.47433	60.98773
	23.47077	60.98668
	23.47062	60.98676
	23.47021	60.9868
	23.46976	60.9869
	23.46935	60.98736
	23.46912	60.98746
	23.46744	60.98782
	23.46788	60.98445
	23.46806	60.98435
	23.46836	60.98413
	23.46866	60.98373
	23.46637	60.98295
	23.45907	60.98372
	23.45873	60.98387
	23.45427	60.98325
	23.45311	60.9816
	23.46349	60.97848
	23.4639	60.97731
	23.46351	60.97674
	23.46177	60.97707
	23.46143	60.97669
	23.4604	60.97695
	23.45898	60.97727
	23.45779	60.97605
	23.46399	60.97463
	23.46145	60.96926
	23.46602	60.96822
	23.46551	60.96712
	23.47152	60.96577
	23.47214	60.9656
	23.47525	60.96488
	23.47392	60.96355
	23.47402	60.96351
	23.47449	60.96358
	23.47488	60.96359
	23.47583	60.96351
	23.47674	60.9636
	23.47725	60.96359
	23.47747	60.96357
	23.4782	60.96347
	23.47863	60.9634
	23.47948	60.96324
	23.47989	60.96311
	23.48003	60.963
	23.4797	60.96296
	23.47948	60.96295
	23.47937	60.96304
	23.47896	60.96319
	23.47835	60.96332
	23.47763	60.96346
	23.47714	60.96351
	23.47699	60.96351
	23.47653	60.96349
	23.47608	60.96344
	23.47579	60.96344
	23.47527	60.96346
	23.47479	60.96351
	23.4745	60.96351
	23.47415	60.96345
	23.47406	60.96341
	23.47407	60.96321
	23.47434	60.963
	23.47434	60.96286
	23.47404	60.96271
	23.4738	60.96263
	23.47382	60.9625
	23.47349	60.96253
	23.47312	60.9626
	23.47284	60.96273
	23.47274	60.96288
	23.47087	60.9629
	23.47084	60.96282
	23.47063	60.96273
	23.47034	60.96263
	23.47008	60.96261
	23.46989	60.96266
	23.46979	60.96277
	23.46992	60.96301
	23.46914	60.9631
	23.46865	60.9631
	23.46833	60.96314
	23.46799	60.96322
	23.46776	60.96332
	23.46762	60.96337
	23.46657	60.96369
	23.4648	60.96415
	23.46438	60.9643
	23.46393	60.96466
	23.46381	60.9648
	23.46391	60.96512
	23.4641	60.96529
	23.46439	60.96537
	23.46516	60.96538
	23.46537	60.96551
	23.46537	60.96566
	23.46521	60.96576
	23.46486	60.96586
	23.46422	60.96592
	23.46355	60.96593
	23.46298	60.96586
	23.46235	60.96573
	23.4619	60.96559
	23.46157	60.96557
	23.46127	60.9656
	23.46056	60.96588
	23.46008	60.96613
	23.45967	60.9664
	23.45925	60.96661
	23.4588	60.96676
	23.45829	60.96687
	23.45748	60.96698
	23.4569	60.96705
	23.45679	60.96708
	23.45623	60.96724
	23.45535	60.96755
	23.45405	60.96806
	23.45342	60.96835
	23.45311	60.96855
	23.45253	60.96909
	23.45217	60.96932
	23.4518	60.96942
	23.4513	60.9695
	23.45008	60.96976
	23.44961	60.96988
	23.4491	60.96994
	23.44853	60.96998
	23.44809	60.97002
	23.44777	60.97011
	23.44715	60.97041
	23.44638	60.97073
	23.44566	60.97097
	23.44497	60.97114
	23.44425	60.97129
	23.44379	60.97134
	23.4421	60.97134
	23.44181	60.97132
	23.44002	60.97164
	23.43906	60.97182
	23.43866	60.97188
	23.43843	60.97189
	23.4382	60.97187
	23.43816	60.97186
	23.43799	60.97179
	23.43782	60.97162
	23.4377	60.97139
	23.43768	60.97116
	23.4375	60.97057
	23.43731	60.97033
	23.43721	60.97014
	23.43704	60.96994
	23.43684	60.96986
	23.43631	60.9698
	23.43573	60.96968
	23.43527	60.96951
	23.43505	60.96937
	23.43485	60.96915
	23.43454	60.96909
	23.43356	60.96913
	23.43312	60.96918
	23.43273	60.96924
	23.4324	60.96933
	23.43194	60.96943
	23.43157	60.96955
	23.43114	60.96976
	23.43094	60.96987
	23.43035	60.9701
	23.4298	60.97021
	23.42837	60.9704
	23.42744	60.9705
	23.42702	60.97058
	23.42658	60.97078
	23.42629	60.97083
	23.42591	60.97083
	23.42572	60.97082
	23.4254	60.97087
	23.42512	60.97097
	23.42491	60.97107
	23.42426	60.97109
	23.42377	60.97109
	23.42272	60.97107
	23.42245	60.971
	23.42227	60.97085
	23.42212	60.97067
	23.42191	60.97055
	23.42143	60.97042
	23.4209	60.97023
	23.4202	60.97
	23.41953	60.96969
	23.41893	60.96952
	23.41799	60.96937
	23.41762	60.96923
	23.41749	60.96908
	23.41755	60.96884
	23.41782	60.96868
	23.41796	60.96851
	23.41788	60.96824
	23.4177	60.96798
	23.41754	60.96762
	23.41727	60.9672
	23.41704	60.96697
	23.41663	60.96682
	23.41613	60.96675
	23.41563	60.96672
	23.41519	60.96676
	23.41474	60.96687
	23.4143	60.96701
	23.41398	60.96726
	23.41372	60.96743
	23.41288	60.96788
	23.41279	60.96809
	23.41281	60.96826
	23.41264	60.96844
	23.41229	60.96846
	23.41188	60.96842
	23.41178	60.9684
	23.41123	60.96822
	23.41076	60.9685
	23.40567	60.97183
	23.40391	60.97296
	23.39474	60.97903
	23.39265	60.98193
	23.38564	60.99219
	23.37906	61.00174
	23.3787	61.00246
	23.37457	61.00549
	23.36245	61.01452
	23.3576	61.01368
	23.34698	61.01188
	23.34307	61.01114
	23.33979	61.01056
	23.3387	61.01041
	23.33599	61.01001
	23.33415	61.01025
	23.33123	61.01065
	23.32835	61.01107
	23.3276	61.00945
	23.32571	61.00964
	23.32638	61.01135
	23.3246	61.01164
	23.32389	61.01148
	23.32131	61.01176
	23.32054	61.01191
	23.32042	61.01171
	23.31934	61.01201
	23.31851	61.01252
	23.31765	61.01264
	23.31708	61.01273
	23.31502	61.0131
	23.31415	61.0132
	23.31028	61.01378
	23.3102	61.01346
	23.30885	61.01358
	23.30652	61.01399
	23.30456	61.0144
	23.30428	61.01462
	23.29297	61.01628
	23.27316	61.01913
	23.26876	61.02089
	23.26818	61.01987
	23.26	61.01854
	23.26021	61.01846
	23.26052	61.01838
	23.26097	61.01818
	23.26147	61.01791
	23.26177	61.01757
	23.26207	61.01733
	23.26251	61.01717
	23.26295	61.01714
	23.26351	61.01718
	23.26383	61.01714
	23.26447	61.01692
	23.2648	61.01687
	23.26501	61.01687
	23.26557	61.01696
	23.26587	61.01695
	23.266	61.01683
	23.2661	61.0166
	23.2661	61.01624
	23.2663	61.01559
	23.26645	61.01539
	23.26647	61.01508
	23.26692	61.0145
	23.26713	61.01414
	23.26707	61.01387
	23.26695	61.0136
	23.26722	61.01333
	23.26778	61.01303
	23.26818	61.01277
	23.26827	61.01256
	23.26821	61.01198
	23.26786	61.01188
	23.26745	61.01168
	23.26712	61.0109
	23.26694	61.0109
	23.26621	61.00652
	23.25469	61.00663
	23.2134	61.00693
	23.19541	61.00122
	23.19177	61.00172
	23.1903	61.00193
	23.18712	61.00241
	23.16581	61.00536
	23.16504	61.00545
	23.16431	61.00728
	23.16384	61.00812
	23.16029	61.0176
	23.15804	61.02322
	23.14805	61.03142
	23.13659	61.03212
	23.13007	61.03251
	23.1197	61.03308
	23.10885	61.03379
	23.10741	61.03389
	23.08319	61.03251
	23.05535	61.03099
	23.04144	61.02792
	23.04312	61.02733
	23.04393	61.02699
	23.04494	61.02654
	23.04649	61.02631
	23.04722	61.02613
	23.04874	61.02569
	23.04879	61.0255
	23.04856	61.02529
	23.04784	61.02536
	23.04696	61.02549
	23.04616	61.02565
	23.04426	61.02611
	23.04357	61.02632
	23.04231	61.02685
	23.04142	61.02715
	23.0402	61.02766
	23.0163	61.02239
	22.99755	61.03115
	22.99074	61.03431
	22.97254	61.04282
	22.97153	61.04281
	22.9712	61.04277
	22.97093	61.04271
	22.97074	61.04272
	22.97019	61.04282
	22.96978	61.04293
	22.96944	61.04307
	22.96905	61.04319
	22.96851	61.04326
	22.96817	61.04322
	22.96793	61.04308
	22.96765	61.04286
	22.96754	61.04261
	22.96733	61.04251
	22.967	61.04262
	22.9669	61.04283
	22.96662	61.04306
	22.96658	61.04326
	22.96664	61.04348
	22.9666	61.04362
	22.9663	61.04372
	22.96589	61.04381
	22.96537	61.04401
	22.96499	61.044
	22.96467	61.04397
	22.96437	61.04407
	22.96398	61.04426
	22.96359	61.04447
	22.96342	61.04472
	22.96334	61.04493
	22.96308	61.04499
	22.96271	61.04491
	22.96246	61.04492
	22.96235	61.04503
	22.96235	61.04519
	22.96261	61.04531
	22.96267	61.04546
	22.96255	61.04556
	22.96224	61.0456
	22.96177	61.04561
	22.9611	61.04565
	22.96079	61.04571
	22.96048	61.04588
	22.96006	61.04619
	22.95971	61.04628
	22.95945	61.04628
	22.95905	61.04625
	22.95838	61.0461
	22.95776	61.04592
	22.9572	61.04585
	22.95688	61.04578
	22.95661	61.04559
	22.95637	61.04539
	22.95625	61.04522
	22.95595	61.04493
	22.95572	61.04476
	22.95537	61.04468
	22.9551	61.0447
	22.95482	61.0448
	22.95465	61.04488
	22.95377	61.04489
	22.95358	61.04482
	22.95329	61.04476
	22.95308	61.04454
	22.95321	61.04438
	22.95357	61.04421
	22.95385	61.04414
	22.95413	61.04415
	22.95441	61.04409
	22.95454	61.04395
	22.95446	61.04378
	22.95398	61.04346
	22.95368	61.04339
	22.95327	61.04336
	22.95274	61.04339
	22.95224	61.0435
	22.95209	61.04358
	22.95207	61.04372
	22.95222	61.04397
	22.95231	61.04421
	22.95231	61.04442
	22.95214	61.04449
	22.95199	61.04454
	22.95162	61.04462
	22.951	61.04465
	22.9507	61.04449
	22.95061	61.04425
	22.95036	61.04383
	22.95033	61.0438
	22.95018	61.04368
	22.94984	61.04365
	22.94933	61.04377
	22.94879	61.04394
	22.94871	61.04408
	22.94879	61.04423
	22.94922	61.04454
	22.94926	61.0447
	22.94911	61.04479
	22.94879	61.04485
	22.94815	61.04484
	22.94748	61.04473
	22.9466	61.04456
	22.94604	61.04455
	22.94564	61.04463
	22.94508	61.04478
	22.94463	61.04466
	22.94445	61.04462
	22.944	61.04443
	22.94364	61.04441
	22.94329	61.04449
	22.94298	61.0447
	22.9427	61.04497
	22.94241	61.04503
	22.94207	61.04501
	22.94177	61.04484
	22.94138	61.04477
	22.9402	61.04469
	22.93954	61.04469
	22.93917	61.04471
	22.93879	61.04487
	22.93819	61.04487
	22.93763	61.04473
	22.93714	61.0447
	22.93679	61.04478
	22.93652	61.04482
	22.93606	61.04476
	22.93566	61.04481
	22.93546	61.04501
	22.9354	61.04553
	22.93516	61.04569
	22.93456	61.04575
	22.93396	61.04582
	22.93353	61.04576
	22.93318	61.04584
	22.93297	61.04592
	22.93287	61.04613
	22.9327	61.04643
	22.93274	61.04664
	22.93349	61.04719
	22.93364	61.04735
	22.93349	61.04745
	22.93312	61.04747
	22.93301	61.04746
	22.93231	61.04728
	22.93201	61.04726
	22.93162	61.04732
	22.9313	61.04741
	22.93104	61.04753
	22.93085	61.04775
	22.93055	61.04825
	22.93038	61.04838
	22.9302	61.04838
	22.93001	61.04834
	22.9299	61.04833
	22.92971	61.04811
	22.92952	61.04785
	22.92922	61.04774
	22.92896	61.04774
	22.92872	61.04791
	22.9286	61.04814
	22.92875	61.04833
	22.92918	61.04853
	22.92941	61.04883
	22.92969	61.04905
	22.93017	61.04926
	22.93067	61.04938
	22.93207	61.04967
	22.93227	61.04981
	22.93233	61.04994
	22.93214	61.05007
	22.93162	61.05049
	22.93048	61.05042
	22.93012	61.05048
	22.9301	61.05049
	22.92993	61.05059
	22.92984	61.05074
	22.93008	61.05081
	22.93018	61.0508
	22.93048	61.05079
	22.93092	61.05079
	22.93117	61.05086
	22.93145	61.05098
	22.93194	61.05117
	22.93222	61.05135
	22.93221	61.05145
	22.9322	61.05149
	22.93197	61.05163
	22.93173	61.05176
	22.93179	61.0519
	22.93207	61.05207
	22.93231	61.05214
	22.93269	61.05232
	22.93308	61.05259
	22.93319	61.05275
	22.93293	61.05286
	22.93214	61.05288
	22.93173	61.05269
	22.93139	61.05256
	22.93113	61.05249
	22.93083	61.05252
	22.93059	61.0526
	22.93055	61.05275
	22.93068	61.05327
	22.93055	61.0534
	22.93023	61.05353
	22.92971	61.05355
	22.92898	61.0535
	22.92853	61.05353
	22.92836	61.0536
	22.92838	61.05376
	22.92856	61.05392
	22.92894	61.05415
	22.929	61.05436
	22.929	61.05451
	22.9286	61.05465
	22.92808	61.0547
	22.92703	61.05493
	22.9266	61.05496
	22.92628	61.0549
	22.92609	61.05467
	22.92577	61.05444
	22.92471	61.05413
	22.92433	61.05399
	22.92379	61.05357
	22.92304	61.05365
	22.92272	61.05335
	22.9219	61.05334
	22.92017	61.05217
	22.91984	61.05222
	22.91945	61.05223
	22.91918	61.05216
	22.91905	61.05196
	22.91892	61.05183
	22.91888	61.05181
	22.91868	61.05173
	22.91834	61.05176
	22.91782	61.05191
	22.91709	61.05215
	22.91699	61.05219
	22.91648	61.05225
	22.91614	61.05239
	22.9157	61.05265
	22.9153	61.05281
	22.91468	61.05299
	22.91394	61.05319
	22.9136	61.05333
	22.91341	61.05361
	22.91315	61.05385
	22.9127	61.05397
	22.91141	61.05408
	22.91066	61.05421
	22.91008	61.05429
	22.90926	61.05432
	22.90791	61.05458
	22.90729	61.05458
	22.90677	61.05451
	22.90635	61.05454
	22.90605	61.05466
	22.90598	61.05468
	22.90581	61.05489
	22.90572	61.05505
	22.9054	61.05507
	22.90512	61.05497
	22.90467	61.05488
	22.90308	61.05489
	22.90251	61.05495
	22.90214	61.05503
	22.90167	61.05529
	22.90137	61.0554
	22.901	61.05542
	22.90081	61.05533
	22.90053	61.05513
	22.90021	61.05498
	22.90018	61.05498
	22.89987	61.05491
	22.89946	61.05499
	22.89928	61.0551
	22.89903	61.05529
	22.89867	61.05535
	22.89863	61.05534
	22.8983	61.05532
	22.89781	61.05516
	22.89748	61.05507
	22.8971	61.05509
	22.89677	61.05516
	22.89654	61.05533
	22.89628	61.05576
	22.89613	61.05597
	22.89581	61.05613
	22.89471	61.05635
	22.89431	61.05642
	22.89392	61.05638
	22.89354	61.05622
	22.89317	61.05608
	22.8928	61.05606
	22.89244	61.05606
	22.89216	61.05614
	22.89188	61.05626
	22.8918	61.05635
	22.8916	61.05653
	22.8915	61.05673
	22.89145	61.05695
	22.89122	61.05706
	22.89081	61.05709
	22.89036	61.05705
	22.88997	61.05689
	22.88952	61.05681
	22.88918	61.05681
	22.88879	61.05694
	22.88845	61.0571
	22.88804	61.05723
	22.88731	61.05735
	22.88692	61.05749
	22.88667	61.05765
	22.88628	61.05785
	22.88605	61.05805
	22.88574	61.05816
	22.88538	61.05824
	22.88476	61.05835
	22.88418	61.0585
	22.88291	61.0588
	22.88231	61.05902
	22.88203	61.05922
	22.88199	61.05935
	22.88199	61.05937
	22.88222	61.05958
	22.88233	61.05983
	22.88233	61.06014
	22.88218	61.06056
	22.88034	61.06379
	22.87603	61.0721
	22.86984	61.08378
	22.86864	61.08417
	22.86858	61.08504
	22.86776	61.08554
	22.86599	61.08758
	22.86463	61.08726
	22.86476	61.08579
	22.85324	61.09024
	22.82388	61.10143
	22.82358	61.10067
	22.82086	61.09228
	22.8194	61.08805
	22.81981	61.088
	22.81955	61.08745
	22.82017	61.08739
	22.8197	61.08695
	22.8191	61.08709
	22.81631	61.07881
	22.82564	61.0748
	22.82676	61.07426
	22.83689	61.06911
	22.83627	61.06014
	22.82429	61.05208
	22.82704	61.04553
	22.82369	61.04204
	22.80762	61.042
	22.80745	61.04177
	22.80723	61.04158
	22.80741	61.04116
	22.80743	61.04097
	22.80723	61.04086
	22.8068	61.04076
	22.80659	61.04062
	22.80633	61.04041
	22.80588	61.0402
	22.80584	61.03985
	22.80586	61.03942
	22.80612	61.03939
	22.80653	61.03929
	22.80672	61.03934
	22.80631	61.03948
	22.80657	61.03971
	22.80629	61.04023
	22.80663	61.04035
	22.80781	61.04033
	22.81123	61.03757
	22.8106	61.03734
	22.81344	61.035
	22.81485	61.03467
	22.81541	61.03422
	22.8159	61.03262
	22.81792	61.0322
	22.82489	61.02651
	22.8253	61.02392
	22.8253	61.02337
	22.82604	61.02337
	22.82663	61.02338
	22.82595	61.02225
	22.82547	61.02211
	22.82552	61.02109
	22.82592	61.01821
	22.82644	61.01363
	22.82466	61.01048
	22.82388	61.00886
	22.82332	61.0089
	22.82236	61.00705
	22.82284	61.00689
	22.82082	61.00318
	22.81833	60.99847
	22.81826	60.99833
	22.81826	60.99819
	22.81724	60.99652
	22.81609	60.99393
	22.81597	60.99342
	22.81502	60.99347
	22.81431	60.99353
	22.81111	60.9939
	22.80983	60.99413
	22.80869	60.99437
	22.8076	60.99466
	22.80672	60.99496
	22.80532	60.99546
	22.80319	60.99629
	22.8014	60.99696
	22.79996	60.99741
	22.79884	60.99773
	22.79698	60.99817
	22.79592	60.99854
	22.79527	60.99893
	22.79446	60.99945
	22.79279	61.00035
	22.78832	60.99761
	22.78813	60.99748
	22.78788	60.99782
	22.78759	60.99794
	22.78706	60.99818
	22.78627	60.99834
	22.78408	60.99624
	22.77977	60.99421
	22.77477	60.99338
	22.77237	60.99299
	22.77095	60.99274
	22.75563	60.99021
	22.75679	60.98621
	22.75436	60.9854
	22.75048	60.9894
	22.7094	60.98259
	22.70155	60.98694
	22.68466	60.98741
	22.67158	60.98776
	22.66968	60.9878
	22.66642	60.9879
	22.65932	60.98808
	22.64932	60.98839
	22.64906	60.98837
	22.64785	60.98842
	22.62656	60.98897
	22.6209	60.98915
	22.61482	60.98932
	22.61127	60.98939
	22.57914	60.99022
	22.56903	60.98793
	22.54937	60.98354
	22.54549	60.98251
	22.5404	60.98118
	22.53963	60.98077
	22.53883	60.98098
	22.53882	60.98099
	22.53817	60.98056
	22.53858	60.98038
	22.53699	60.97969
	22.53573	60.97994
	22.53457	60.97956
	22.52948	60.97826
	22.52787	60.97782
	22.52242	60.97643
	22.52257	60.97633
	22.52345	60.97646
	22.52408	60.97618
	22.52519	60.97523
	22.52545	60.97538
	22.52569	60.97531
	22.52539	60.97485
	22.52531	60.97486
	22.52485	60.97497
	22.52633	60.97413
	22.53907	60.96657
	22.54045	60.96573
	22.55264	60.95855
	22.55201	60.95663
	22.5536	60.95606
	22.55498	60.95713
	22.55738	60.95571
	22.55753	60.95778
	22.55697	60.95885
	22.55603	60.9596
	22.55575	60.95954
	22.55549	60.96191
	22.55549	60.9624
	22.55326	60.9636
	22.55062	60.96455
	22.55019	60.96439
	22.5495	60.96467
	22.54882	60.9646
	22.54817	60.96574
	22.54577	60.96694
	22.54523	60.9673
	22.54463	60.96809
	22.54219	60.96897
	22.54137	60.96916
	22.54058	60.96957
	22.53959	60.97
	22.53946	60.97047
	22.53865	60.97098
	22.53807	60.97118
	22.5374	60.97134
	22.53729	60.97145
	22.53689	60.97155
	22.53672	60.97166
	22.53532	60.97198
	22.53502	60.97186
	22.53494	60.97188
	22.53481	60.97193
	22.53483	60.97208
	22.53498	60.97218
	22.53461	60.97227
	22.53373	60.97224
	22.53362	60.97228
	22.53294	60.97247
	22.53292	60.97262
	22.53266	60.97269
	22.53242	60.97263
	22.53204	60.97244
	22.53144	60.97262
	22.53096	60.97271
	22.53071	60.97284
	22.53068	60.9729
	22.53062	60.9731
	22.53079	60.97332
	22.53064	60.97346
	22.52978	60.97372
	22.52889	60.97385
	22.52783	60.97405
	22.5273	60.9742
	22.52646	60.97419
	22.52635	60.97431
	22.52652	60.97436
	22.52663	60.97445
	22.52704	60.97442
	22.52719	60.97458
	22.52873	60.97431
	22.52948	60.97435
	22.53015	60.97425
	22.5303	60.97407
	22.53002	60.97391
	22.53038	60.97383
	22.53084	60.97401
	22.53129	60.97377
	22.53094	60.9734
	22.53202	60.97307
	22.53229	60.97327
	22.53255	60.97317
	22.53223	60.97297
	22.5329	60.97309
	22.53332	60.97291
	22.53343	60.97308
	22.53352	60.97303
	22.53373	60.97294
	22.53352	60.9727
	22.53412	60.97253
	22.53435	60.97262
	22.53476	60.97268
	22.53515	60.97263
	22.5353	60.97249
	22.53561	60.9725
	22.53599	60.9725
	22.53665	60.97222
	22.53704	60.97175
	22.53871	60.97142
	22.53918	60.97112
	22.54013	60.97074
	22.54032	60.9702
	22.54107	60.97021
	22.54111	60.96992
	22.54189	60.96938
	22.54292	60.969
	22.54347	60.96915
	22.54392	60.96949
	22.54425	60.96931
	22.54424	60.9693
	22.54395	60.96921
	22.54395	60.96894
	22.54474	60.96856
	22.54532	60.96817
	22.54601	60.96758
	22.54684	60.96762
	22.54845	60.96722
	22.54895	60.96712
	22.55118	60.96699
	22.55188	60.96666
	22.55201	60.96659
	22.55268	60.96653
	22.55369	60.96653
	22.55407	60.96658
	22.55423	60.96671
	22.55427	60.96673
	22.55461	60.9673
	22.55483	60.96735
	22.55549	60.9673
	22.55607	60.9672
	22.55658	60.9672
	22.5568	60.96692
	22.55656	60.96682
	22.55875	60.96565
	22.55927	60.96557
	22.56017	60.96462
	22.56078	60.96457
	22.56206	60.9645
	22.56231	60.96418
	22.56358	60.96418
	22.56455	60.96417
	22.56555	60.96488
	22.56583	60.96503
	22.56656	60.96488
	22.56706	60.96501
	22.56746	60.96465
	22.56817	60.96453
	22.56995	60.96435
	22.57032	60.96425
	22.57171	60.96404
	22.57227	60.96363
	22.57113	60.96237
	22.56952	60.96229
	22.56935	60.96199
	22.56824	60.96219
	22.56937	60.96378
	22.56734	60.9641
	22.56684	60.96409
	22.56682	60.96422
	22.56566	60.96406
	22.56422	60.96385
	22.56405	60.964
	22.56339	60.96361
	22.5633	60.96333
	22.56291	60.96325
	22.56302	60.96302
	22.5624	60.96321
	22.56152	60.96334
	22.56163	60.96357
	22.56143	60.96382
	22.56147	60.96383
	22.56193	60.96404
	22.56165	60.96418
	22.56073	60.96401
	22.5598	60.96421
	22.55959	60.96432
	22.55948	60.96444
	22.55886	60.96522
	22.55689	60.96623
	22.55534	60.96688
	22.55446	60.9665
	22.55448	60.96612
	22.55407	60.96602
	22.55328	60.96617
	22.55319	60.96632
	22.55274	60.96629
	22.55182	60.96627
	22.55152	60.96631
	22.55111	60.96641
	22.55098	60.96664
	22.55051	60.96675
	22.54993	60.96675
	22.54987	60.96674
	22.54981	60.96674
	22.54948	60.96669
	22.54897	60.96688
	22.54847	60.96693
	22.54734	60.96708
	22.54723	60.96684
	22.54749	60.9665
	22.54772	60.96632
	22.54841	60.96595
	22.54901	60.96549
	22.54961	60.96493
	22.55047	60.9646
	22.55079	60.96464
	22.55328	60.96383
	22.5542	60.96327
	22.55457	60.96326
	22.55476	60.96304
	22.5562	60.96245
	22.56019	60.96021
	22.56564	60.95869
	22.56521	60.95823
	22.55961	60.95937
	22.55871	60.95903
	22.55875	60.95835
	22.55845	60.95781
	22.55867	60.95735
	22.55832	60.95577
	22.55828	60.9551
	22.55875	60.95504
	22.55897	60.95483
	22.56083	60.95427
	22.56188	60.95413
	22.56236	60.95413
	22.56229	60.95397
	22.5633	60.95338
	22.56349	60.95312
	22.56259	60.95269
	22.56626	60.95046
	22.56671	60.95024
	22.57094	60.94781
	22.5715	60.94798
	22.57214	60.94763
	22.57175	60.94728
	22.58333	60.94054
	22.58627	60.93878
	22.57282	60.94131
	22.55245	60.94511
	22.51965	60.95111
	22.51954	60.95109
	22.51637	60.95071
	22.51693	60.95041
	22.51686	60.94994
	22.51671	60.94977
	22.51636	60.94956
	22.51772	60.94835
	22.51789	60.94791
	22.51718	60.94816
	22.51701	60.9478
	22.51551	60.94744
	22.51665	60.9467
	22.51641	60.94617
	22.51442	60.94633
	22.51388	60.94703
	22.51405	60.94761
	22.51427	60.94779
	22.51472	60.9477
	22.51352	60.94922
	22.51129	60.94986
	22.51103	60.95006
	22.49671	60.94828
	22.49216	60.94788
	22.48116	60.94632
	22.46524	60.9443
	22.45268	60.94267
	22.45215	60.94309
	22.45068	60.94343
	22.44994	60.94361
	22.44959	60.94371
	22.44882	60.94417
	22.44822	60.94415
	22.44747	60.94445
	22.44726	60.94509
	22.44634	60.94541
	22.44515	60.94584
	22.44522	60.94618
	22.44361	60.94691
	22.44316	60.94664
	22.44376	60.94627
	22.44318	60.94582
	22.44399	60.94545
	22.44517	60.94561
	22.4465	60.94508
	22.4467	60.94453
	22.44693	60.94428
	22.44811	60.9438
	22.44942	60.94325
	22.45041	60.94238
	22.4313	60.93984
	22.4278	60.93901
	22.42134	60.93744
	22.42142	60.93755
	22.42165	60.9378
	22.42189	60.93818
	22.42129	60.93808
	22.42008	60.93784
	22.42018	60.93731
	22.42034	60.93728
	22.42036	60.9372
	22.41468	60.93581
	22.36453	60.9318
	22.32975	60.91996
	22.31999	60.91675
	22.3131	60.91602
	22.30649	60.91696
	22.2899	60.91935
	22.2886	60.91952
	22.27476	60.92153
	22.27109	60.92207
	22.26362	60.92687
	22.24126	60.92381
	22.24017	60.92414
	22.23946	60.92336
	22.23766	60.92254
	22.23399	60.92208
	22.23111	60.92079
	22.22892	60.92023
	22.22884	60.91961
	22.22817	60.91898
	22.22182	60.91611
	22.20391	60.90795
	22.20189	60.90702
	22.20183	60.90646
	22.20152	60.90559
	22.20109	60.90492
	22.20042	60.90428
	22.19759	60.90261
	22.19578	60.90172
	22.19544	60.90159
	22.19235	60.90074
	22.19094	60.90034
	22.20008	60.89754
	22.21152	60.89412
	22.21665	60.89568
	22.21815	60.89525
	22.21502	60.89291
	22.21411	60.8918
	22.21393	60.89156
	22.19927	60.89503
	22.18884	60.89748
	22.17096	60.87717
	22.16685	60.87563
	22.1679	60.87495
	22.16031	60.872
	22.15396	60.87845
	22.15259	60.87929
	22.15164	60.88
	22.15169	60.88076
	22.14759	60.88493
	22.14147	60.89107
	22.13514	60.89764
	22.13369	60.8991
	22.12848	60.90422
	22.11214	60.90371
	22.07686	60.90266
	22.06193	60.9022
	22.06106	60.90219
	22.05911	60.90215
	22.05293	60.90197
	22.03757	60.9016
	22.01174	60.90094
	22.00813	60.89744
	22.0064	60.89792
	22.0009	60.89962
	22.00065	60.89928
	21.9985	60.89767
	21.99807	60.8972
	21.98524	60.901
	21.99556	60.91135
	21.99646	60.91216
	21.99678	60.91255
	21.98438	60.92031
	21.97224	60.92794
	21.97161	60.92831
	21.96951	60.92962
	21.96962	60.92995
	21.96894	60.93079
	21.96806	60.93055
	21.95951	60.9359
	21.9544	60.93911
	21.94861	60.94332
	21.94417	60.94651
	21.95138	60.97694
	21.93353	60.9764
	21.92609	60.97616
	21.92011	60.97876
	21.92062	60.97924
	21.92139	60.97917
	21.9218	60.97923
	21.92205	60.97954
	21.92152	60.97964
	21.92073	60.98003
	21.92006	60.98006
	21.91754	60.97986
	21.90967	60.98328
	21.90295	60.98615
	21.88973	60.98138
	21.88945	60.98184
	21.88928	60.98198
	21.88896	60.98205
	21.88836	60.98212
	21.88773	60.9821
	21.88731	60.98206
	21.88703	60.98206
	21.88668	60.98211
	21.88454	60.98263
	21.88379	60.98256
	21.88291	60.98216
	21.88057	60.98107
	21.87851	60.9822
	21.87705	60.98276
	21.87769	60.98329
	21.87407	60.98633
	21.87215	60.9862
	21.87181	60.98631
	21.87332	60.98777
	21.87286	60.98824
	21.87355	60.98898
	21.87248	60.9895
	21.87198	60.9899
	21.87301	60.99104
	21.87269	60.99136
	21.87241	60.99171
	21.87163	60.99191
	21.87014	60.99263
	21.86721	60.99239
	21.86398	60.99645
	21.85347	61.00337
	21.84782	61.00702
	21.84729	61.00684
	21.84712	61.00695
	21.84752	61.00722
	21.84516	61.00872
	21.8446	61.0087
	21.84439	61.00889
	21.84454	61.00912
	21.8441	61.0094
	21.83461	61.01193
	21.83478	61.01145
	21.83553	61.01101
	21.83478	61.0108
	21.8337	61.01105
	21.83225	61.01107
	21.83317	61.01181
	21.8337	61.01181
	21.83392	61.01216
	21.8209	61.01571
	21.81686	61.01682
	21.81278	61.0179
	21.81208	61.01782
	21.81135	61.01811
	21.81122	61.01817
	21.81077	61.01848
	21.8089	61.01901
	21.80656	61.01915
	21.8057	61.01947
	21.80499	61.02012
	21.8104	61.02379
	21.82519	61.03418
	21.80218	61.03418
	21.78924	61.03412
	21.78061	61.03412
	21.77575	61.03411
	21.77002	61.03217
	21.76963	61.03206
	21.75326	61.02657
	21.7605	61.01927
	21.76307	61.0166
	21.76512	61.01451
	21.76605	61.01367
	21.75536	61.00932
	21.74403	61.00473
	21.73431	61.00087
	21.73277	61.00075
	21.73242	61.0011
	21.73191	61.00106
	21.73124	61.00063
	21.73045	61.00056
	21.72774	61.00105
	21.7237	61.00026
	21.72326	60.9999
	21.72203	60.99975
	21.71522	60.99918
	21.71365	60.99904
	21.71393	60.9992
	21.71421	60.9994
	21.71431	60.99959
	21.71397	60.99981
	21.71373	60.99993
	21.71341	61.00006
	21.71293	61.00022
	21.7119	61.00051
	21.71059	61.00083
	21.70999	61.001
	21.7086	61.00146
	21.70626	61.00216
	21.70614	61.00221
	21.70526	61.00251
	21.70473	61.00265
	21.70426	61.00271
	21.70331	61.00286
	21.70285	61.00295
	21.70244	61.00306
	21.70228	61.00309
	21.70195	61.00323
	21.70177	61.00317
	21.69328	61.00356
	21.69163	61.00312
	21.69161	61.00249
	21.69211	61.00146
	21.69182	61.0014
	21.69159	61.0012
	21.69158	61.00118
	21.69113	61.00127
	21.69105	61.00115
	21.67684	60.99819
	21.6762	60.99808
	21.67602	60.99828
	21.67645	60.99865
	21.67377	60.9991
	21.67298	60.99887
	21.67211	60.99762
	21.67285	60.99736
	21.66808	60.99638
	21.66766	60.9967
	21.66585	60.99659
	21.6656	60.99632
	21.65467	60.99992
	21.65343	61.00644
	21.65291	61.00642
	21.65272	61.00767
	21.65321	61.00774
	21.65217	61.01349
	21.65143	61.01725
	21.65144	61.01733
	21.63838	61.03233
	21.63486	61.03644
	21.63595	61.03695
	21.63653	61.03713
	21.63658	61.03713
	21.63854	61.03736
	21.63778	61.03851
	21.63678	61.03793
	21.63669	61.03739
	21.63455	61.03677
	21.63404	61.03742
	21.62852	61.04366
	21.62158	61.05164
	21.6212	61.05175
	21.62016	61.05061
	21.61576	61.04673
	21.61515	61.04614
	21.61138	61.04282
	21.61145	61.04275
	21.60903	61.04147
	21.60847	61.04115
	21.60803	61.03826
	21.60748	61.03545
	21.6072	61.03378
	21.59169	61.03003
	21.59135	61.02968
	21.59152	61.02933
	21.59115	61.02882
	21.60125	61.01728
	21.60606	61.01181
	21.60698	61.01069
	21.60558	61.01042
	21.60563	61.01019
	21.60595	61.0096
	21.60346	61.00954
	21.60389	61.00782
	21.60344	61.00693
	21.60296	61.0069
	21.60103	61.00891
	21.59972	61.00906
	21.59928	61.00953
	21.56634	61.00924
	21.55051	61.0048
	21.52764	61.00511
	21.48025	60.99948
	21.47994	61.00328
	21.47996	61.00337
	21.48116	61.00337
	21.48184	61.00379
	21.47988	61.00539
	21.47981	61.00612
	21.47689	61.00788
	21.47762	61.00901
	21.47471	61.0092
	21.46585	61.01215
	21.46569	61.01221
	21.46685	61.01344
	21.46324	61.01546
	21.46157	61.01437
	21.46049	61.0152
	21.4548	61.01656
	21.45481	61.01619
	21.45509	61.01587
	21.45482	61.01578
	21.45394	61.0158
	21.45361	61.01597
	21.45347	61.01625
	21.45152	61.01682
	21.44908	61.01752
	21.42718	61.02739
	21.42146	61.04329
	21.42317	61.04344
	21.42337	61.04345
	21.42229	61.04628
	21.42045	61.04613
	21.42033	61.04637
	21.42011	61.04699
	21.41808	61.05242
	21.4171	61.05517
	21.38887	61.06606
	21.38938	61.07019
	21.37832	61.07504
	21.37397	61.07376
	21.37092	61.07451
	21.36305	61.0781
	21.34889	61.08148
	21.34516	61.08602
	21.33985	61.08727
	21.31595	61.10358
	21.27209	61.10266
	21.0903	61.1141
	21.06038	61.11594
	20.93453	61.12371
	19.43844	61.18154
	19.35414	62.03234
END
END
