France_Languedoc-Roussillon_Pyrenees-Orientales
1
	4.069686	42.84963
	4.069686	42.4294
	3.174652	42.43518
	3.174202	42.43518
	3.171632	42.43486
	3.170733	42.43523
	3.170488	42.4354
	3.170029	42.43549
	3.169213	42.43546
	3.168635	42.43553
	3.168009	42.43546
	3.166958	42.43516
	3.16665	42.43514
	3.166492	42.43513
	3.165868	42.43522
	3.165246	42.43557
	3.165195	42.43558
	3.164553	42.43559
	3.164235	42.43586
	3.163723	42.43611
	3.163145	42.43601
	3.162034	42.4356
	3.161243	42.43562
	3.160954	42.43551
	3.160587	42.4354
	3.160108	42.43513
	3.159966	42.43511
	3.159681	42.43498
	3.159355	42.43487
	3.158551	42.43456
	3.157914	42.43439
	3.157344	42.4342
	3.15629	42.43419
	3.155538	42.43436
	3.155061	42.43476
	3.154166	42.43525
	3.153799	42.43553
	3.153484	42.43574
	3.152879	42.43562
	3.152406	42.43544
	3.152289	42.43515
	3.151746	42.43514
	3.151434	42.43519
	3.150709	42.43509
	3.150154	42.43499
	3.14969	42.4347
	3.148951	42.43407
	3.148906	42.43406
	3.148682	42.43407
	3.147815	42.43395
	3.147361	42.43382
	3.14643	42.43358
	3.14631	42.43356
	3.14595	42.43345
	3.145323	42.43333
	3.144767	42.43313
	3.144626	42.43315
	3.143864	42.43362
	3.143726	42.43368
	3.143326	42.43393
	3.142954	42.43385
	3.141565	42.43383
	3.141131	42.43386
	3.140267	42.43386
	3.140062	42.43395
	3.139407	42.43452
	3.139135	42.43464
	3.138767	42.43525
	3.138359	42.43568
	3.137958	42.43569
	3.137879	42.43568
	3.137164	42.43551
	3.136418	42.43538
	3.136116	42.43551
	3.135483	42.43557
	3.134463	42.43576
	3.133117	42.43594
	3.132507	42.43587
	3.132328	42.43562
	3.132142	42.4352
	3.131514	42.43544
	3.131105	42.4354
	3.129859	42.43507
	3.128727	42.43498
	3.12691	42.43481
	3.125368	42.43498
	3.123787	42.43524
	3.122969	42.43571
	3.121743	42.43638
	3.121562	42.43661
	3.121202	42.43712
	3.120763	42.43814
	3.119189	42.43766
	3.118579	42.43738
	3.118244	42.43709
	3.117866	42.43672
	3.115855	42.43595
	3.115721	42.43588
	3.113309	42.43535
	3.112323	42.43537
	3.111034	42.43561
	3.110763	42.43564
	3.110513	42.43564
	3.11028	42.43562
	3.110102	42.43559
	3.109417	42.43524
	3.10901	42.43499
	3.108699	42.43476
	3.108142	42.43426
	3.10786	42.43392
	3.107546	42.43347
	3.107419	42.43299
	3.107131	42.43271
	3.106999	42.43251
	3.106934	42.43221
	3.10709	42.43157
	3.106463	42.43104
	3.106125	42.43084
	3.105497	42.43059
	3.104615	42.43036
	3.104144	42.4301
	3.103651	42.42969
	3.103281	42.4292
	3.102952	42.42907
	3.102806	42.42895
	3.102756	42.42888
	3.102607	42.42847
	3.102564	42.42816
	3.102567	42.4279
	3.102589	42.42771
	3.102821	42.42725
	3.102864	42.42714
	3.102873	42.42706
	3.102846	42.42698
	3.102782	42.42692
	3.102612	42.42684
	3.101902	42.42659
	3.100442	42.42595
	3.098758	42.42532
	3.097684	42.42547
	3.094807	42.42559
	3.093642	42.42547
	3.091772	42.42538
	3.091263	42.42539
	3.090707	42.42557
	3.089935	42.4258
	3.089715	42.42584
	3.089299	42.42587
	3.088808	42.42588
	3.087873	42.42573
	3.085849	42.42581
	3.085285	42.42582
	3.081694	42.42796
	3.080858	42.42812
	3.080736	42.42817
	3.080494	42.42843
	3.080213	42.42884
	3.080027	42.42925
	3.07963	42.42963
	3.079381	42.42983
	3.079029	42.43004
	3.078671	42.43028
	3.078343	42.43075
	3.078181	42.43093
	3.077454	42.43149
	3.07741	42.43154
	3.077369	42.43162
	3.077284	42.43192
	3.07729	42.43219
	3.076754	42.43359
	3.076725	42.4336
	3.076714	42.43473
	3.076598	42.43545
	3.075895	42.43532
	3.075628	42.43526
	3.075444	42.43524
	3.075093	42.43526
	3.074882	42.43526
	3.074556	42.43529
	3.07416	42.43536
	3.073853	42.43534
	3.073313	42.43544
	3.072804	42.43543
	3.07242	42.43547
	3.072271	42.4355
	3.071728	42.43568
	3.071477	42.43573
	3.071091	42.43578
	3.070593	42.43579
	3.069908	42.43573
	3.069933	42.43616
	3.069784	42.43708
	3.06964	42.43739
	3.069637	42.43765
	3.069487	42.43779
	3.069355	42.4378
	3.0689	42.43836
	3.068783	42.43857
	3.068299	42.43952
	3.068131	42.43997
	3.068082	42.44051
	3.068	42.44075
	3.067892	42.44087
	3.067757	42.44097
	3.06767	42.44098
	3.067141	42.44135
	3.067059	42.44148
	3.067049	42.44159
	3.067136	42.44179
	3.067131	42.44254
	3.066549	42.44286
	3.066406	42.44291
	3.06595	42.44316
	3.065374	42.44336
	3.065146	42.4434
	3.06493	42.44351
	3.064749	42.44364
	3.064519	42.44374
	3.064356	42.44388
	3.063961	42.44427
	3.063665	42.44445
	3.063429	42.44438
	3.063122	42.44418
	3.063009	42.44416
	3.062897	42.44416
	3.06253	42.44426
	3.06224	42.44428
	3.061667	42.44453
	3.060873	42.44495
	3.060497	42.4452
	3.059989	42.44542
	3.058329	42.44587
	3.058053	42.44621
	3.0576	42.44714
	3.056921	42.44785
	3.056586	42.44834
	3.056313	42.44862
	3.05567	42.44895
	3.055563	42.44897
	3.055261	42.44906
	3.055142	42.44915
	3.055067	42.44923
	3.054729	42.44945
	3.054583	42.44958
	3.054469	42.44974
	3.054102	42.45015
	3.054027	42.45029
	3.053943	42.45052
	3.053854	42.45093
	3.053704	42.45121
	3.053493	42.45154
	3.0532	42.45181
	3.052858	42.45208
	3.052603	42.45225
	3.052436	42.45239
	3.052302	42.45257
	3.051953	42.45317
	3.046879	42.45734
	3.046753	42.45793
	3.04647	42.45894
	3.046075	42.46047
	3.045959	42.46189
	3.045421	42.46257
	3.045388	42.46289
	3.045299	42.46332
	3.045243	42.46352
	3.045156	42.46369
	3.04497	42.46395
	3.044241	42.46446
	3.043896	42.46482
	3.043767	42.46513
	3.043637	42.46576
	3.043064	42.46746
	3.042309	42.4683
	3.042012	42.46846
	3.041636	42.46859
	3.040748	42.46879
	3.040938	42.46891
	3.041212	42.46903
	3.041429	42.46926
	3.041666	42.46943
	3.041803	42.46966
	3.042027	42.47053
	3.041978	42.47111
	3.042012	42.47131
	3.041874	42.47165
	3.041254	42.47219
	3.041052	42.47235
	3.040953	42.47254
	3.040885	42.47326
	3.041023	42.47377
	3.040551	42.47458
	3.040496	42.47427
	3.0401	42.4739
	3.039713	42.47369
	3.03756	42.47367
	3.036671	42.47357
	3.034711	42.47423
	3.03383	42.47487
	3.031871	42.47503
	3.030554	42.47431
	3.03035	42.47396
	3.029426	42.47384
	3.029246	42.47334
	3.028096	42.47294
	3.027404	42.47254
	3.026631	42.47219
	3.025945	42.47225
	3.025142	42.47216
	3.023052	42.47206
	3.022224	42.47109
	3.021194	42.47094
	3.020961	42.47089
	3.020202	42.47068
	3.018572	42.4702
	3.017366	42.46952
	3.016742	42.46933
	3.015693	42.46861
	3.015244	42.46812
	3.014917	42.46791
	3.013668	42.46689
	3.012875	42.46655
	3.012448	42.46658
	3.012108	42.46682
	3.011924	42.4673
	3.01057	42.46775
	3.009779	42.46809
	3.009289	42.46834
	3.007899	42.46922
	3.007747	42.46928
	3.007331	42.46941
	3.006912	42.46964
	3.005584	42.46965
	3.004865	42.4703
	3.00399	42.47027
	3.003348	42.47038
	3.003216	42.47088
	3.002565	42.47126
	3.00265	42.47189
	3.002083	42.47236
	3.001426	42.47237
	3.00118	42.47258
	3.000139	42.47288
	2.999283	42.47279
	2.998868	42.47282
	2.998315	42.47291
	2.998523	42.47319
	2.997484	42.47331
	2.995397	42.47367
	2.992393	42.47322
	2.989686	42.47402
	2.982398	42.47182
	2.982443	42.46946
	2.982213	42.46938
	2.981675	42.46894
	2.981892	42.46778
	2.981833	42.4676
	2.980707	42.46713
	2.980529	42.46721
	2.97998	42.46733
	2.97791	42.46728
	2.977451	42.4675
	2.977079	42.46757
	2.976322	42.46777
	2.972917	42.46673
	2.970812	42.46614
	2.96926	42.46582
	2.967468	42.46523
	2.966911	42.46604
	2.96631	42.46699
	2.965012	42.46813
	2.961203	42.47274
	2.956461	42.4758
	2.953606	42.47666
	2.951193	42.47771
	2.948942	42.47874
	2.947492	42.48071
	2.94732	42.48134
	2.945296	42.48069
	2.94292	42.4797
	2.940279	42.4787
	2.938408	42.47781
	2.935859	42.47568
	2.935704	42.47547
	2.93391	42.47491
	2.933267	42.47448
	2.931906	42.47459
	2.931248	42.47357
	2.930201	42.47245
	2.93001	42.47194
	2.929951	42.47143
	2.929818	42.47091
	2.928492	42.46926
	2.927637	42.46707
	2.926983	42.46606
	2.925397	42.46473
	2.924866	42.46411
	2.924925	42.46375
	2.925246	42.46331
	2.925454	42.46192
	2.924921	42.46019
	2.924848	42.45916
	2.924597	42.4588
	2.924067	42.45849
	2.923271	42.45847
	2.920721	42.45749
	2.919704	42.45717
	2.919041	42.4568
	2.918352	42.45623
	2.916713	42.45656
	2.914944	42.45673
	2.910896	42.4575
	2.909816	42.45745
	2.904982	42.4571
	2.901165	42.45818
	2.9007	42.45836
	2.899047	42.45999
	2.893074	42.4616
	2.889891	42.46203
	2.889308	42.46193
	2.887648	42.4606
	2.885628	42.46003
	2.883565	42.46048
	2.882393	42.46046
	2.880799	42.46155
	2.880519	42.46187
	2.880416	42.46233
	2.880166	42.46246
	2.878319	42.4644
	2.877464	42.46463
	2.876133	42.46568
	2.874501	42.46642
	2.873987	42.46652
	2.873616	42.46664
	2.870455	42.46744
	2.868122	42.46663
	2.866624	42.46615
	2.865997	42.46573
	2.865753	42.46519
	2.86572	42.4645
	2.865611	42.46446
	2.865262	42.46437
	2.865176	42.46433
	2.865113	42.46432
	2.865016	42.46432
	2.864772	42.46439
	2.864308	42.46437
	2.864105	42.46434
	2.863722	42.46411
	2.863476	42.46361
	2.863412	42.46355
	2.863816	42.46201
	2.863866	42.46191
	2.864132	42.46093
	2.864171	42.46027
	2.86426	42.45962
	2.864157	42.45962
	2.862498	42.45691
	2.861625	42.4552
	2.861526	42.45506
	2.86025	42.45486
	2.85671	42.45412
	2.854147	42.45512
	2.853157	42.45482
	2.852795	42.45493
	2.850879	42.45589
	2.847884	42.45684
	2.846771	42.45756
	2.843537	42.45833
	2.843081	42.45826
	2.842485	42.45829
	2.841916	42.45857
	2.840446	42.45883
	2.840079	42.45884
	2.839711	42.45924
	2.839067	42.45941
	2.838159	42.45865
	2.838278	42.45836
	2.837621	42.45789
	2.837585	42.45773
	2.837733	42.45747
	2.837191	42.45684
	2.836871	42.45677
	2.836156	42.45612
	2.835727	42.45603
	2.835803	42.45539
	2.835998	42.45497
	2.835794	42.45468
	2.835804	42.45443
	2.83502	42.45437
	2.833369	42.45255
	2.832694	42.45266
	2.832541	42.45169
	2.833112	42.45036
	2.833041	42.44985
	2.833819	42.44976
	2.83349	42.44822
	2.832679	42.44684
	2.832497	42.4461
	2.831551	42.44465
	2.830648	42.44388
	2.830251	42.44335
	2.830379	42.44326
	2.83022	42.44281
	2.829732	42.44239
	2.829553	42.4417
	2.826631	42.4388
	2.825335	42.4391
	2.824685	42.43935
	2.824381	42.43901
	2.823693	42.43939
	2.823152	42.43934
	2.822405	42.43957
	2.82193	42.43923
	2.820267	42.43967
	2.81886	42.44046
	2.817271	42.43974
	2.815378	42.43987
	2.813798	42.43722
	2.813776	42.43636
	2.811665	42.43509
	2.810323	42.43488
	2.810067	42.4317
	2.808995	42.43129
	2.806826	42.43149
	2.805616	42.43181
	2.80434	42.43258
	2.803857	42.43229
	2.80346	42.43181
	2.804074	42.4313
	2.8044	42.42969
	2.802869	42.42786
	2.801857	42.42618
	2.801623	42.42509
	2.800988	42.42435
	2.801031	42.4227
	2.802542	42.42149
	2.802669	42.4213
	2.802552	42.42118
	2.802393	42.42119
	2.801604	42.42055
	2.800285	42.41932
	2.800085	42.41923
	2.7999	42.41919
	2.798849	42.41911
	2.793554	42.4184
	2.791692	42.41818
	2.791138	42.41849
	2.790917	42.41858
	2.790695	42.41858
	2.790917	42.41796
	2.790888	42.4178
	2.789912	42.41766
	2.788073	42.41726
	2.78379	42.41744
	2.778565	42.41246
	2.776902	42.4119
	2.776046	42.41264
	2.772743	42.41289
	2.771168	42.41199
	2.770519	42.4116
	2.768202	42.41385
	2.766984	42.41415
	2.765897	42.41538
	2.763505	42.41679
	2.760471	42.41798
	2.75908	42.42019
	2.758033	42.42221
	2.757541	42.42403
	2.754774	42.42545
	2.751828	42.42546
	2.751504	42.42528
	2.750546	42.42506
	2.748546	42.42511
	2.747418	42.4252
	2.746496	42.42511
	2.746099	42.42505
	2.745356	42.42478
	2.744102	42.42485
	2.742565	42.42454
	2.741178	42.42411
	2.738538	42.42354
	2.735483	42.42392
	2.733931	42.42473
	2.732774	42.42382
	2.731678	42.42361
	2.730989	42.42337
	2.730307	42.4229
	2.72899	42.42261
	2.727302	42.4228
	2.724854	42.4229
	2.723546	42.42266
	2.723066	42.42259
	2.721066	42.42214
	2.71972	42.42204
	2.718445	42.42173
	2.717453	42.42131
	2.716538	42.42081
	2.715479	42.41986
	2.713418	42.41905
	2.712271	42.41722
	2.711142	42.41654
	2.709984	42.41567
	2.708396	42.4149
	2.706809	42.41462
	2.706064	42.4143
	2.705095	42.41318
	2.704409	42.41212
	2.702825	42.41112
	2.70098	42.41102
	2.698735	42.41074
	2.697424	42.41029
	2.696592	42.40934
	2.693212	42.4064
	2.691411	42.40624
	2.689359	42.40611
	2.689262	42.40605
	2.686531	42.40712
	2.68597	42.40728
	2.682129	42.40717
	2.681083	42.4069
	2.679635	42.40696
	2.678798	42.40647
	2.67741	42.4062
	2.674137	42.40519
	2.673713	42.40456
	2.672001	42.40371
	2.67124	42.40261
	2.673525	42.40003
	2.673497	42.39909
	2.672613	42.39303
	2.672468	42.39136
	2.672077	42.39027
	2.671827	42.38852
	2.671655	42.38757
	2.671249	42.38684
	2.669656	42.38662
	2.665532	42.3855
	2.660682	42.38652
	2.659273	42.38679
	2.657527	42.38724
	2.654174	42.38837
	2.653349	42.38813
	2.652222	42.38755
	2.651924	42.38705
	2.651596	42.38628
	2.651484	42.38575
	2.652005	42.38455
	2.656619	42.38196
	2.659195	42.37968
	2.660641	42.37822
	2.663272	42.37236
	2.661886	42.37007
	2.660816	42.36687
	2.662643	42.36518
	2.664107	42.36497
	2.663961	42.36396
	2.664181	42.36343
	2.664815	42.36284
	2.66545	42.3626
	2.666524	42.36251
	2.666964	42.36177
	2.667916	42.36181
	2.669527	42.36224
	2.670186	42.36201
	2.671269	42.35986
	2.672544	42.35996
	2.672669	42.35941
	2.673936	42.35907
	2.673507	42.35743
	2.675244	42.35714
	2.674682	42.35536
	2.675931	42.35432
	2.675336	42.35258
	2.675406	42.35214
	2.675869	42.35102
	2.674806	42.34855
	2.674799	42.34781
	2.675731	42.34719
	2.675914	42.34643
	2.675512	42.34231
	2.672682	42.34172
	2.671692	42.34075
	2.669111	42.34061
	2.666819	42.34123
	2.661708	42.3405
	2.660963	42.34118
	2.660046	42.34077
	2.657677	42.34125
	2.654856	42.34214
	2.654796	42.34289
	2.650685	42.34433
	2.647935	42.34359
	2.644517	42.34449
	2.643839	42.34456
	2.642025	42.3445
	2.640096	42.34447
	2.639675	42.3443
	2.638128	42.34359
	2.63607	42.344
	2.635292	42.34392
	2.634382	42.34396
	2.634148	42.3443
	2.633865	42.34432
	2.633468	42.34467
	2.633043	42.34481
	2.63279	42.34496
	2.632574	42.34563
	2.633047	42.34589
	2.63342	42.34612
	2.633368	42.34628
	2.632883	42.34634
	2.632518	42.34647
	2.631649	42.3465
	2.630749	42.34659
	2.63019	42.34638
	2.629314	42.34665
	2.628728	42.34671
	2.628115	42.34607
	2.62747	42.34579
	2.626661	42.34584
	2.625915	42.34563
	2.623984	42.34569
	2.623017	42.34521
	2.622522	42.3452
	2.622104	42.34533
	2.621247	42.34544
	2.620123	42.3458
	2.619578	42.34582
	2.619063	42.34568
	2.618235	42.3456
	2.6178	42.34567
	2.617303	42.3459
	2.616738	42.3459
	2.616375	42.34576
	2.616041	42.34585
	2.615988	42.34615
	2.615118	42.34642
	2.614339	42.34645
	2.613848	42.34644
	2.613362	42.34662
	2.611666	42.34691
	2.611012	42.34688
	2.610315	42.34682
	2.609859	42.34704
	2.609513	42.34746
	2.608878	42.34779
	2.60861	42.34805
	2.608391	42.34841
	2.608133	42.34858
	2.607819	42.34857
	2.607413	42.34835
	2.605817	42.34866
	2.60516	42.34895
	2.604595	42.3491
	2.603756	42.34918
	2.602726	42.34941
	2.600668	42.3492
	2.600436	42.34957
	2.599985	42.35066
	2.599671	42.35129
	2.598412	42.35191
	2.597718	42.3519
	2.596052	42.35155
	2.591871	42.35263
	2.589523	42.35329
	2.588313	42.3539
	2.583069	42.35715
	2.582478	42.35738
	2.581868	42.35736
	2.581776	42.35757
	2.581034	42.35782
	2.58088	42.35764
	2.580373	42.35793
	2.57954	42.35826
	2.579019	42.3581
	2.578327	42.35841
	2.576952	42.35838
	2.575916	42.35817
	2.575267	42.35783
	2.574477	42.35792
	2.57392	42.35759
	2.572763	42.35769
	2.572403	42.35796
	2.571456	42.35825
	2.57139	42.35846
	2.571155	42.3585
	2.570931	42.35847
	2.569984	42.35742
	2.569116	42.35681
	2.568281	42.35654
	2.567506	42.35625
	2.566988	42.35631
	2.566613	42.35638
	2.566009	42.35645
	2.565311	42.35646
	2.563421	42.35676
	2.561906	42.35703
	2.561917	42.35541
	2.556642	42.35369
	2.555472	42.35407
	2.55454	42.35467
	2.554408	42.35371
	2.553953	42.35307
	2.554127	42.35224
	2.554318	42.35189
	2.554483	42.35102
	2.554288	42.35017
	2.554752	42.34925
	2.554571	42.34825
	2.5539	42.34779
	2.553787	42.34589
	2.551856	42.34485
	2.552708	42.34355
	2.551544	42.34109
	2.549659	42.34112
	2.548771	42.33967
	2.543719	42.33884
	2.542016	42.33389
	2.536147	42.33407
	2.535367	42.334
	2.534373	42.33356
	2.533616	42.33307
	2.532811	42.33276
	2.530492	42.33283
	2.526077	42.33341
	2.52506	42.33402
	2.521132	42.33482
	2.519641	42.33573
	2.516849	42.33586
	2.516245	42.336
	2.512613	42.3372
	2.511288	42.33787
	2.510152	42.33969
	2.507407	42.34058
	2.505396	42.34175
	2.503101	42.34173
	2.502628	42.34184
	2.500616	42.34306
	2.499977	42.34331
	2.499078	42.34313
	2.496404	42.34289
	2.493967	42.34208
	2.49321	42.34208
	2.491996	42.3425
	2.491506	42.34247
	2.489779	42.34178
	2.489163	42.34112
	2.488288	42.34103
	2.48684	42.34036
	2.485499	42.34091
	2.483202	42.33985
	2.48122	42.34077
	2.479327	42.34254
	2.4756	42.34608
	2.475728	42.34668
	2.476332	42.34764
	2.475329	42.3478
	2.474783	42.34813
	2.473369	42.34904
	2.472757	42.3497
	2.472624	42.35016
	2.47269	42.35072
	2.472668	42.35118
	2.472444	42.35151
	2.472318	42.35216
	2.472068	42.3531
	2.471903	42.35358
	2.471874	42.35396
	2.47132	42.3545
	2.470755	42.35524
	2.470044	42.35562
	2.468463	42.35683
	2.468178	42.35699
	2.467483	42.35835
	2.467771	42.35901
	2.46749	42.35963
	2.466772	42.3598
	2.466537	42.36032
	2.466134	42.36063
	2.464317	42.36145
	2.463171	42.36202
	2.462028	42.3623
	2.46031	42.36285
	2.459804	42.36286
	2.459431	42.36312
	2.458019	42.36322
	2.457575	42.36335
	2.456875	42.36316
	2.456612	42.36452
	2.456281	42.36702
	2.456304	42.36828
	2.455851	42.36851
	2.455019	42.36989
	2.454532	42.36999
	2.453594	42.36974
	2.449118	42.36939
	2.447813	42.36938
	2.442914	42.37106
	2.439509	42.3732
	2.435477	42.37532
	2.434399	42.377
	2.434195	42.3787
	2.433143	42.38111
	2.433997	42.38204
	2.434499	42.38269
	2.43566	42.38716
	2.435405	42.38911
	2.434513	42.39088
	2.433427	42.3933
	2.431815	42.39384
	2.429235	42.3943
	2.421879	42.39345
	2.420595	42.39341
	2.416792	42.39316
	2.414488	42.39216
	2.40798	42.39314
	2.405436	42.39292
	2.40432	42.39363
	2.403312	42.39326
	2.401985	42.39423
	2.399817	42.39491
	2.395996	42.39514
	2.392667	42.39635
	2.39137	42.39697
	2.389656	42.39798
	2.38928	42.39878
	2.387132	42.40026
	2.384823	42.40055
	2.38189	42.40094
	2.378644	42.40126
	2.375743	42.4009
	2.371791	42.40058
	2.370733	42.40113
	2.368863	42.40141
	2.367414	42.40185
	2.366425	42.40255
	2.36505	42.40274
	2.364229	42.40253
	2.36085	42.40284
	2.35516	42.40494
	2.351349	42.40606
	2.348064	42.407
	2.346933	42.40786
	2.34595	42.40916
	2.345142	42.41102
	2.344708	42.41278
	2.344539	42.41436
	2.344509	42.41545
	2.343919	42.41689
	2.343018	42.41701
	2.340004	42.4162
	2.336607	42.4164
	2.335104	42.41669
	2.332833	42.41614
	2.331546	42.41604
	2.330648	42.41619
	2.329436	42.41683
	2.328612	42.41701
	2.326936	42.41724
	2.325802	42.41734
	2.32406	42.41795
	2.323254	42.41884
	2.322694	42.41912
	2.321508	42.42037
	2.320603	42.42073
	2.320412	42.42132
	2.319731	42.42157
	2.319482	42.42206
	2.319286	42.42334
	2.319101	42.42426
	2.318788	42.42508
	2.314978	42.4275
	2.31227	42.42863
	2.309581	42.42858
	2.307618	42.42898
	2.306481	42.4287
	2.304977	42.42647
	2.301159	42.42434
	2.300171	42.42392
	2.298048	42.4233
	2.297488	42.42318
	2.296489	42.423
	2.292283	42.42317
	2.291114	42.42287
	2.290074	42.42365
	2.289041	42.42448
	2.287933	42.42551
	2.285925	42.42612
	2.285828	42.42743
	2.284238	42.4281
	2.282751	42.42753
	2.2774	42.42821
	2.276388	42.43084
	2.275186	42.4322
	2.274228	42.43225
	2.270867	42.43431
	2.26712	42.43353
	2.265753	42.43455
	2.260568	42.43735
	2.256415	42.43881
	2.251524	42.43655
	2.251123	42.43405
	2.250245	42.43293
	2.248736	42.43188
	2.247364	42.43071
	2.246831	42.42988
	2.246204	42.42886
	2.242935	42.42895
	2.240242	42.42854
	2.238769	42.42803
	2.236714	42.42722
	2.23545	42.42639
	2.234369	42.42614
	2.232862	42.42622
	2.23222	42.42635
	2.231541	42.42659
	2.23085	42.42687
	2.229074	42.42639
	2.227311	42.42624
	2.225578	42.42619
	2.224331	42.4259
	2.223655	42.42576
	2.220124	42.42354
	2.219351	42.42303
	2.217955	42.42295
	2.216503	42.42295
	2.214796	42.42301
	2.214122	42.42231
	2.213206	42.4216
	2.212232	42.42091
	2.209993	42.41999
	2.209541	42.4199
	2.207157	42.41962
	2.206472	42.41743
	2.201579	42.41658
	2.199772	42.41664
	2.199099	42.41695
	2.1976	42.41759
	2.195203	42.41829
	2.193285	42.41846
	2.190883	42.41861
	2.189714	42.41745
	2.187996	42.41775
	2.18695	42.41742
	2.186464	42.41786
	2.185811	42.41825
	2.184198	42.41948
	2.18305	42.4189
	2.182485	42.41867
	2.181667	42.41846
	2.180116	42.419
	2.176497	42.42086
	2.175153	42.42165
	2.173729	42.42234
	2.170433	42.42295
	2.167629	42.4249
	2.166793	42.42355
	2.166075	42.42282
	2.164385	42.42283
	2.161833	42.42259
	2.161268	42.42239
	2.160072	42.42215
	2.158813	42.42224
	2.157991	42.42251
	2.156972	42.42355
	2.154786	42.42201
	2.154089	42.42164
	2.152687	42.42144
	2.150909	42.42126
	2.150077	42.42105
	2.148183	42.42027
	2.147086	42.41875
	2.146568	42.4185
	2.144811	42.41797
	2.143729	42.41706
	2.142971	42.41658
	2.142825	42.41643
	2.142616	42.41628
	2.141729	42.41616
	2.140549	42.41626
	2.139526	42.41623
	2.138158	42.41614
	2.136325	42.41542
	2.133819	42.41469
	2.133559	42.4145
	2.133262	42.41443
	2.132632	42.41454
	2.131322	42.41391
	2.130188	42.41319
	2.128865	42.41272
	2.127863	42.41126
	2.12666	42.41063
	2.126108	42.41028
	2.125398	42.40961
	2.124925	42.40868
	2.124138	42.40771
	2.12326	42.40611
	2.123113	42.40351
	2.122052	42.40187
	2.122018	42.40138
	2.122135	42.40059
	2.122087	42.40041
	2.122079	42.40024
	2.12197	42.40008
	2.121681	42.39939
	2.121582	42.39898
	2.121464	42.3986
	2.121599	42.39815
	2.121574	42.39766
	2.121485	42.39734
	2.121285	42.39709
	2.118157	42.39608
	2.11664	42.39569
	2.115156	42.39494
	2.114842	42.39458
	2.114952	42.3939
	2.114913	42.39343
	2.114679	42.3927
	2.114877	42.39198
	2.114985	42.39109
	2.114612	42.38968
	2.114539	42.38902
	2.115104	42.38768
	2.115118	42.38627
	2.115632	42.3851
	2.115775	42.38461
	2.115867	42.38418
	2.116003	42.38382
	2.116783	42.38327
	2.116389	42.38313
	2.115361	42.38246
	2.114089	42.38196
	2.112183	42.3817
	2.109605	42.38096
	2.108114	42.38063
	2.106684	42.38012
	2.106283	42.38007
	2.105397	42.38014
	2.104805	42.38021
	2.104328	42.38015
	2.102841	42.37955
	2.10054	42.37842
	2.096847	42.37657
	2.092075	42.37504
	2.089628	42.37448
	2.08918	42.37436
	2.08924	42.37341
	2.088462	42.3723
	2.088448	42.37146
	2.08721	42.37047
	2.08681	42.36965
	2.086481	42.36862
	2.086577	42.36716
	2.086437	42.36552
	2.086355	42.36479
	2.086651	42.36408
	2.085908	42.3637
	2.084669	42.36219
	2.084397	42.36199
	2.083135	42.36361
	2.081729	42.36418
	2.080611	42.36479
	2.080167	42.36518
	2.079148	42.36474
	2.07781	42.3651
	2.076752	42.36498
	2.07416	42.36489
	2.072465	42.36507
	2.068672	42.36138
	2.067443	42.36114
	2.066778	42.36188
	2.065558	42.3613
	2.063605	42.35969
	2.062027	42.35887
	2.058518	42.35786
	2.056465	42.35848
	2.050984	42.3582
	2.049506	42.35794
	2.04873	42.35778
	2.046926	42.35761
	2.046456	42.35772
	2.04541	42.35756
	2.039109	42.35702
	2.032902	42.35806
	2.031153	42.35645
	2.027402	42.35528
	2.023345	42.35561
	2.022017	42.35401
	2.019186	42.35155
	2.01868	42.35081
	2.018356	42.35062
	2.0172	42.34897
	2.016033	42.34711
	2.015959	42.34707
	2.015155	42.34737
	2.014444	42.34784
	2.014293	42.34802
	2.014025	42.34815
	2.01371	42.34867
	2.013102	42.34918
	2.01255	42.34987
	2.012289	42.35049
	2.012246	42.35119
	2.012295	42.35166
	2.012431	42.3521
	2.012617	42.3524
	2.012646	42.3526
	2.012623	42.35268
	2.012048	42.35301
	2.011939	42.35302
	2.011569	42.35287
	2.010084	42.35269
	2.008885	42.35278
	2.007666	42.35297
	2.006391	42.35333
	2.006178	42.35368
	2.005671	42.3542
	2.003306	42.35585
	2.003319	42.3559
	2.000966	42.35603
	1.999395	42.35604
	1.9984	42.35594
	1.99443	42.36008
	1.991099	42.35921
	1.988088	42.36151
	1.987951	42.36156
	1.986407	42.36193
	1.985962	42.36266
	1.980718	42.36923
	1.979166	42.3716
	1.975341	42.37224
	1.973878	42.37279
	1.971688	42.37397
	1.970884	42.3751
	1.970312	42.37611
	1.969793	42.37662
	1.969858	42.37685
	1.969704	42.37713
	1.969402	42.37725
	1.969263	42.37753
	1.968965	42.37783
	1.968496	42.37795
	1.968001	42.37827
	1.967695	42.37882
	1.967441	42.37899
	1.96693	42.37957
	1.965949	42.38074
	1.96565	42.38091
	1.965355	42.38115
	1.964929	42.38192
	1.964348	42.38254
	1.964242	42.38337
	1.964481	42.38467
	1.964439	42.38498
	1.964239	42.38557
	1.964293	42.38616
	1.964668	42.3875
	1.964678	42.38789
	1.964506	42.38821
	1.964217	42.3884
	1.963696	42.38868
	1.9627	42.38951
	1.96243	42.38983
	1.961507	42.39019
	1.961305	42.39034
	1.960783	42.39211
	1.960418	42.39281
	1.959965	42.3942
	1.959988	42.39555
	1.959865	42.39594
	1.959965	42.3964
	1.960492	42.3975
	1.960622	42.39826
	1.960959	42.39912
	1.961085	42.39964
	1.961278	42.40114
	1.960954	42.40187
	1.961284	42.40236
	1.96132	42.40266
	1.961242	42.40288
	1.960723	42.40354
	1.960686	42.40376
	1.960771	42.40439
	1.960467	42.40495
	1.959829	42.40577
	1.959519	42.40672
	1.95889	42.40743
	1.958148	42.40803
	1.958017	42.40832
	1.957519	42.40882
	1.956217	42.40907
	1.95562	42.40975
	1.955517	42.40999
	1.955554	42.41011
	1.955417	42.4107
	1.95529	42.41088
	1.955456	42.41105
	1.955276	42.41122
	1.955343	42.41132
	1.955298	42.41139
	1.955938	42.41262
	1.956325	42.41504
	1.956374	42.41684
	1.958598	42.42404
	1.958638	42.42412
	1.952595	42.42683
	1.949417	42.42726
	1.948587	42.42749
	1.947474	42.42792
	1.946546	42.42797
	1.945186	42.42815
	1.943558	42.42872
	1.942466	42.42942
	1.940903	42.42998
	1.94083	42.43126
	1.940612	42.43323
	1.940762	42.43368
	1.940923	42.43428
	1.941203	42.43501
	1.941575	42.43605
	1.941934	42.43714
	1.941988	42.43758
	1.942432	42.43885
	1.942844	42.44021
	1.942974	42.44082
	1.943008	42.44155
	1.942986	42.44446
	1.942544	42.44488
	1.939165	42.44967
	1.937065	42.4535
	1.93705	42.45368
	1.934069	42.45429
	1.933933	42.4543
	1.932729	42.45464
	1.926775	42.45094
	1.926752	42.45094
	1.920749	42.44694
	1.916292	42.44624
	1.911262	42.44761
	1.90927	42.44705
	1.907668	42.44803
	1.906646	42.44857
	1.904645	42.44857
	1.900865	42.4498
	1.898257	42.45003
	1.897801	42.44984
	1.897765	42.44981
	1.897464	42.44975
	1.89745	42.4498
	1.897279	42.44977
	1.89728	42.44975
	1.89662	42.44962
	1.895741	42.44759
	1.891171	42.44772
	1.891034	42.44778
	1.890898	42.44818
	1.890705	42.44857
	1.890457	42.44899
	1.890222	42.44923
	1.890047	42.44953
	1.889986	42.44969
	1.889936	42.44977
	1.889852	42.44985
	1.889796	42.44998
	1.889214	42.44988
	1.8888	42.44976
	1.888364	42.44959
	1.888043	42.44957
	1.887671	42.44951
	1.887051	42.44938
	1.886985	42.44933
	1.886881	42.4493
	1.886744	42.4493
	1.886391	42.44933
	1.885761	42.44945
	1.885276	42.44956
	1.884813	42.44961
	1.884133	42.45048
	1.883066	42.45552
	1.883022	42.45758
	1.883033	42.4579
	1.882848	42.45804
	1.882592	42.45828
	1.882527	42.45836
	1.882154	42.45862
	1.882134	42.45871
	1.8819	42.45888
	1.881682	42.45926
	1.881496	42.45954
	1.880785	42.46007
	1.88069	42.46012
	1.880593	42.46015
	1.880382	42.46027
	1.880069	42.46041
	1.879893	42.46046
	1.879023	42.46081
	1.878842	42.46075
	1.878735	42.46075
	1.878642	42.46078
	1.878554	42.46084
	1.877997	42.4611
	1.876913	42.46154
	1.876668	42.46171
	1.876601	42.4616
	1.876549	42.4616
	1.875017	42.4621
	1.87491	42.4621
	1.874816	42.462
	1.874703	42.46203
	1.873564	42.46258
	1.872511	42.46305
	1.872317	42.46307
	1.872194	42.46301
	1.87206	42.46303
	1.870925	42.46362
	1.870509	42.46388
	1.870025	42.46408
	1.869388	42.46446
	1.869173	42.46474
	1.868753	42.46499
	1.867406	42.46542
	1.867259	42.46544
	1.86708	42.46543
	1.866818	42.46554
	1.866363	42.46569
	1.865797	42.46592
	1.865593	42.46598
	1.865322	42.46611
	1.864475	42.46631
	1.864224	42.46633
	1.863915	42.4663
	1.863776	42.46627
	1.863641	42.46622
	1.863347	42.46608
	1.86318	42.46593
	1.862857	42.46584
	1.862386	42.46599
	1.862211	42.46598
	1.859636	42.46256
	1.853363	42.46504
	1.84747	42.46833
	1.847458	42.46942
	1.846865	42.47062
	1.846094	42.47238
	1.844267	42.47425
	1.838863	42.47899
	1.835296	42.4813
	1.831729	42.48264
	1.827393	42.48464
	1.823474	42.48653
	1.816721	42.48314
	1.804298	42.49036
	1.791942	42.4855
	1.785506	42.48616
	1.775998	42.48802
	1.771859	42.4887
	1.77044	42.4888
	1.768627	42.48857
	1.764886	42.48784
	1.763265	42.48758
	1.761911	42.48758
	1.761123	42.48838
	1.760525	42.48981
	1.75758	42.49092
	1.754631	42.49111
	1.753427	42.49151
	1.750537	42.49368
	1.749026	42.49478
	1.748029	42.49527
	1.747101	42.49539
	1.744355	42.49478
	1.743165	42.49454
	1.742195	42.49456
	1.740999	42.49473
	1.739297	42.49482
	1.738455	42.49464
	1.736627	42.49359
	1.734931	42.49333
	1.7339	42.49308
	1.732015	42.49248
	1.729967	42.49239
	1.730205	42.49384
	1.729598	42.49528
	1.728935	42.49594
	1.729023	42.4969
	1.728853	42.49816
	1.728474	42.49906
	1.727824	42.50052
	1.72681	42.50103
	1.725889	42.50363
	1.72588	42.50418
	1.725673	42.50826
	1.726169	42.51062
	1.726483	42.51263
	1.726066	42.51557
	1.722475	42.51822
	1.723926	42.51846
	1.725748	42.5187
	1.727409	42.51851
	1.728016	42.51961
	1.730232	42.52068
	1.730988	42.5217
	1.73211	42.5229
	1.732248	42.52338
	1.731492	42.52418
	1.731508	42.52491
	1.73302	42.52818
	1.733407	42.53009
	1.733512	42.5322
	1.734266	42.53263
	1.734679	42.5339
	1.734269	42.53498
	1.734432	42.53606
	1.73438	42.53679
	1.73385	42.53734
	1.733876	42.53789
	1.73353	42.53854
	1.734042	42.53946
	1.734527	42.54046
	1.734297	42.54085
	1.734338	42.54156
	1.734643	42.54206
	1.735176	42.54222
	1.73567	42.54337
	1.735349	42.54416
	1.736159	42.54483
	1.735449	42.5488
	1.735667	42.5499
	1.737133	42.55197
	1.738923	42.55516
	1.740124	42.5565
	1.741681	42.55768
	1.743436	42.55906
	1.745454	42.56103
	1.74817	42.56307
	1.749966	42.56366
	1.753207	42.56426
	1.758098	42.56464
	1.76383	42.56539
	1.768362	42.56474
	1.769687	42.56492
	1.769805	42.56497
	1.769994	42.56512
	1.770091	42.5653
	1.770205	42.56546
	1.770635	42.5658
	1.77076	42.56585
	1.771114	42.56585
	1.77123	42.56591
	1.771301	42.56601
	1.771293	42.56609
	1.771224	42.56628
	1.771303	42.56635
	1.772041	42.56625
	1.772207	42.56627
	1.772621	42.56637
	1.77299	42.56635
	1.773393	42.56642
	1.773651	42.56649
	1.773928	42.56669
	1.774348	42.56688
	1.774671	42.56706
	1.774915	42.56725
	1.775112	42.56765
	1.775408	42.56791
	1.775475	42.56795
	1.775582	42.56798
	1.776107	42.56793
	1.776672	42.56814
	1.777052	42.56846
	1.777623	42.56865
	1.777966	42.56881
	1.779053	42.56946
	1.779412	42.56959
	1.780262	42.56994
	1.780694	42.57018
	1.781823	42.57072
	1.78205	42.5709
	1.782211	42.57137
	1.782719	42.5717
	1.784886	42.5724
	1.785125	42.57251
	1.785233	42.57274
	1.785305	42.573
	1.7853	42.57328
	1.785358	42.57339
	1.785539	42.5735
	1.786061	42.57368
	1.786181	42.57376
	1.786384	42.57397
	1.789945	42.57385
	1.799671	42.57324
	1.803218	42.57441
	1.812825	42.57758
	1.814068	42.57798
	1.815527	42.57846
	1.816089	42.57861
	1.816491	42.57937
	1.817875	42.57969
	1.818119	42.57971
	1.820145	42.57983
	1.821376	42.57977
	1.822012	42.5801
	1.823324	42.58068
	1.823511	42.58083
	1.823618	42.58106
	1.824655	42.58139
	1.825913	42.58154
	1.827029	42.58158
	1.830118	42.58137
	1.831243	42.58161
	1.83192	42.58182
	1.832556	42.58235
	1.833647	42.58311
	1.834995	42.58377
	1.836516	42.58434
	1.837396	42.58472
	1.839271	42.58443
	1.8435	42.5831
	1.847476	42.58312
	1.847788	42.58341
	1.84787	42.58364
	1.851536	42.58465
	1.852973	42.58322
	1.853433	42.58229
	1.853739	42.58135
	1.854574	42.58136
	1.855487	42.5815
	1.856491	42.58167
	1.857351	42.58282
	1.858201	42.58316
	1.858721	42.58318
	1.860536	42.584
	1.862336	42.58165
	1.865036	42.57882
	1.865884	42.5791
	1.866186	42.57908
	1.866536	42.57928
	1.868575	42.57982
	1.869466	42.57982
	1.870277	42.58147
	1.871422	42.58172
	1.874777	42.58147
	1.875676	42.58744
	1.878471	42.59061
	1.885406	42.58992
	1.89038	42.59274
	1.892861	42.59513
	1.894921	42.5999
	1.894961	42.60097
	1.894236	42.60321
	1.892752	42.60333
	1.893062	42.60506
	1.896982	42.60674
	1.900832	42.6154
	1.901043	42.61522
	1.901063	42.61487
	1.901472	42.61426
	1.902873	42.61318
	1.903823	42.61204
	1.905013	42.61109
	1.906053	42.60999
	1.906163	42.60961
	1.906423	42.60935
	1.911183	42.60794
	1.912003	42.60786
	1.912333	42.60772
	1.914103	42.60776
	1.917924	42.60846
	1.918564	42.60845
	1.918904	42.60872
	1.922233	42.60963
	1.923204	42.60948
	1.923934	42.60917
	1.924754	42.60909
	1.926513	42.60961
	1.9271	42.60951
	1.927214	42.6095
	1.927614	42.60882
	1.928153	42.60847
	1.928707	42.60742
	1.929094	42.60728
	1.930014	42.6063
	1.932424	42.60515
	1.933664	42.60481
	1.934064	42.6048
	1.936324	42.60583
	1.936964	42.60582
	1.937374	42.6063
	1.937714	42.6063
	1.937994	42.60657
	1.938454	42.60655
	1.938684	42.60698
	1.939824	42.60739
	1.940744	42.60751
	1.941394	42.60775
	1.942224	42.60784
	1.942444	42.60802
	1.942844	42.60806
	1.944015	42.60928
	1.944504	42.61033
	1.944294	42.61151
	1.943646	42.61304
	1.943774	42.61334
	1.944054	42.61352
	1.944536	42.61356
	1.945374	42.61365
	1.947274	42.61493
	1.947924	42.61506
	1.949394	42.6171
	1.949954	42.6175
	1.952544	42.61815
	1.954705	42.61898
	1.956285	42.61872
	1.957435	42.6182
	1.958575	42.61784
	1.959885	42.61759
	1.963335	42.61758
	1.963915	42.61722
	1.964275	42.61719
	1.964525	42.6169
	1.965164	42.61669
	1.965675	42.61669
	1.965925	42.61651
	1.968127	42.61644
	1.968515	42.61643
	1.968586	42.61644
	1.969345	42.61661
	1.969865	42.61693
	1.971085	42.61699
	1.971359	42.61707
	1.971695	42.61717
	1.972365	42.61755
	1.974275	42.61964
	1.974975	42.62027
	1.975555	42.62058
	1.976445	42.62157
	1.977225	42.6231
	1.977165	42.62358
	1.976135	42.62489
	1.976015	42.62534
	1.976115	42.62683
	1.976365	42.62743
	1.976855	42.62779
	1.977225	42.62829
	1.977475	42.62907
	1.978725	42.62989
	1.980045	42.63044
	1.980195	42.63066
	1.979955	42.63143
	1.980295	42.63214
	1.981675	42.63289
	1.982774	42.63381
	1.984195	42.63547
	1.984195	42.63608
	1.984415	42.63663
	1.984995	42.63701
	1.985635	42.63712
	1.986105	42.63861
	1.986165	42.63935
	1.986665	42.64027
	1.986735	42.64122
	1.986975	42.64144
	1.987135	42.64241
	1.987995	42.64374
	1.988465	42.64525
	1.988835	42.64536
	1.988924	42.64563
	1.991307	42.64685
	1.992257	42.64856
	1.993112	42.65022
	1.992903	42.65065
	1.992775	42.65141
	1.992325	42.65229
	1.992415	42.65256
	1.993455	42.65265
	1.994445	42.6537
	1.995365	42.65528
	1.996625	42.65593
	1.997455	42.65676
	1.997185	42.65881
	1.996715	42.65985
	1.997235	42.66051
	1.998405	42.66147
	1.999135	42.6616
	1.999835	42.66158
	2.00182	42.66115
	2.003843	42.66
	2.004185	42.65948
	2.005081	42.6592
	2.005822	42.65901
	2.006993	42.65861
	2.007966	42.65888
	2.009485	42.65911
	2.012551	42.6594
	2.01205	42.6588
	2.011974	42.65812
	2.012353	42.65769
	2.012307	42.65717
	2.012307	42.65659
	2.01261	42.6563
	2.013307	42.6562
	2.013806	42.656
	2.014518	42.65558
	2.015108	42.65525
	2.015729	42.65525
	2.016471	42.655
	2.017746	42.65482
	2.018438	42.65435
	2.018774	42.654
	2.019395	42.6539
	2.019892	42.6538
	2.020786	42.6537
	2.023684	42.65321
	2.025354	42.65288
	2.027735	42.65246
	2.029417	42.6528
	2.030426	42.65311
	2.031861	42.65376
	2.03398	42.65449
	2.036033	42.65525
	2.038165	42.65595
	2.042663	42.65718
	2.045062	42.65948
	2.047108	42.66106
	2.052355	42.66254
	2.0541	42.66108
	2.058324	42.66153
	2.060855	42.66101
	2.061958	42.6616
	2.063452	42.66321
	2.065029	42.66447
	2.066723	42.66454
	2.068196	42.66432
	2.070245	42.66555
	2.070839	42.66679
	2.073709	42.6664
	2.074304	42.66631
	2.076169	42.66528
	2.080846	42.66499
	2.083043	42.66602
	2.084946	42.66758
	2.086032	42.66697
	2.08631	42.66629
	2.086733	42.66588
	2.087997	42.66541
	2.091646	42.66611
	2.094377	42.66545
	2.096205	42.66432
	2.09889	42.66454
	2.099823	42.66449
	2.100604	42.66456
	2.101215	42.6649
	2.1027	42.66557
	2.10483	42.66604
	2.109986	42.66604
	2.111148	42.66648
	2.113565	42.66905
	2.116575	42.66926
	2.122206	42.6713
	2.123348	42.67182
	2.123658	42.67213
	2.124369	42.67252
	2.126968	42.67269
	2.127185	42.67269
	2.128365	42.67265
	2.128738	42.67226
	2.129	42.67219
	2.129439	42.67193
	2.131764	42.67126
	2.133429	42.66873
	2.133499	42.66833
	2.140475	42.66504
	2.140764	42.66461
	2.144539	42.66362
	2.148654	42.66279
	2.149722	42.66244
	2.15067	42.66241
	2.153869	42.66251
	2.156474	42.66342
	2.159669	42.66419
	2.165799	42.66375
	2.168425	42.66232
	2.169948	42.66012
	2.169881	42.65869
	2.170474	42.65719
	2.170908	42.65709
	2.171174	42.65644
	2.172146	42.65583
	2.172482	42.65588
	2.173199	42.65545
	2.174116	42.65498
	2.175537	42.65371
	2.175731	42.6537
	2.176811	42.65233
	2.176265	42.64855
	2.177649	42.64867
	2.178187	42.64923
	2.17829	42.64991
	2.178676	42.65035
	2.178854	42.65067
	2.180324	42.65057
	2.181012	42.65041
	2.181458	42.65052
	2.181708	42.65066
	2.181831	42.65091
	2.182912	42.65139
	2.183995	42.65167
	2.185694	42.65137
	2.187243	42.65149
	2.188749	42.65157
	2.189336	42.6515
	2.189899	42.65135
	2.191244	42.65136
	2.192413	42.65182
	2.191347	42.65459
	2.191288	42.65778
	2.192429	42.65876
	2.221689	42.67351
	2.23499	42.67518
	2.242601	42.67854
	2.24694	42.68173
	2.250774	42.68821
	2.251983	42.68877
	2.255769	42.69479
	2.255814	42.69759
	2.264765	42.70228
	2.265818	42.70479
	2.264699	42.70933
	2.278357	42.70175
	2.289814	42.69988
	2.309172	42.70634
	2.32191	42.70862
	2.33249	42.71375
	2.33671	42.71823
	2.343878	42.72376
	2.344079	42.72377
	2.344094	42.72377
	2.344619	42.72362
	2.345111	42.72347
	2.345767	42.72307
	2.34623	42.72277
	2.346421	42.72264
	2.346513	42.72257
	2.347098	42.72185
	2.34752	42.72146
	2.347734	42.72131
	2.348414	42.72101
	2.348665	42.72095
	2.348831	42.7209
	2.349125	42.72078
	2.349584	42.72066
	2.349827	42.72063
	2.350432	42.72063
	2.351336	42.72078
	2.352365	42.72128
	2.352497	42.7214
	2.352973	42.72206
	2.353074	42.72229
	2.353197	42.72265
	2.353257	42.72291
	2.353286	42.72329
	2.353343	42.72332
	2.353386	42.72334
	2.353963	42.72363
	2.35486	42.72453
	2.354936	42.72469
	2.354955	42.72483
	2.355183	42.72491
	2.355972	42.72519
	2.356506	42.72547
	2.356706	42.72562
	2.35709	42.7264
	2.357309	42.72664
	2.357314	42.72665
	2.357628	42.727
	2.358107	42.72805
	2.358217	42.72824
	2.358479	42.72908
	2.358516	42.72952
	2.358555	42.72984
	2.358527	42.7305
	2.358454	42.73084
	2.358257	42.73138
	2.358039	42.73179
	2.359954	42.73274
	2.358691	42.73527
	2.358229	42.73543
	2.357486	42.73584
	2.353848	42.74879
	2.352401	42.74974
	2.351115	42.75417
	2.350217	42.75751
	2.351628	42.76479
	2.351443	42.76561
	2.350886	42.76708
	2.349307	42.76948
	2.345314	42.77157
	2.343549	42.774
	2.343085	42.77588
	2.343829	42.77906
	2.344644	42.7799
	2.344191	42.78235
	2.342951	42.78822
	2.342409	42.79071
	2.34291	42.80128
	2.333648	42.80162
	2.334172	42.81147
	2.334263	42.8133
	2.334195	42.81349
	2.333785	42.81357
	2.334035	42.81397
	2.334103	42.81424
	2.333944	42.81451
	2.334058	42.81471
	2.334081	42.81496
	2.333898	42.81527
	2.33367	42.81548
	2.333374	42.81574
	2.333237	42.81612
	2.332713	42.81642
	2.332029	42.81755
	2.332052	42.81778
	2.332166	42.81815
	2.332371	42.8186
	2.332394	42.81887
	2.332371	42.81926
	2.332439	42.81966
	2.332394	42.81993
	2.332189	42.82025
	2.329681	42.82266
	2.326422	42.82307
	2.320062	42.82411
	2.319468	42.82412
	2.322978	42.83
	2.328062	42.82881
	2.324095	42.83339
	2.325393	42.83509
	2.326961	42.83663
	2.327242	42.83692
	2.327651	42.83728
	2.330865	42.83798
	2.331891	42.83882
	2.333737	42.83911
	2.334832	42.83914
	2.336336	42.84043
	2.336679	42.84063
	2.337477	42.84099
	2.33905	42.84067
	2.339711	42.84053
	2.340395	42.84058
	2.34101	42.84065
	2.342037	42.84109
	2.342789	42.84127
	2.343997	42.84139
	2.346049	42.84146
	2.348808	42.84186
	2.351499	42.84184
	2.352791	42.84325
	2.353529	42.84444
	2.358271	42.84419
	2.359115	42.84426
	2.363858	42.8454
	2.363949	42.84558
	2.364839	42.84572
	2.365591	42.84575
	2.366936	42.84565
	2.367852	42.84564
	2.368666	42.84584
	2.368982	42.84586
	2.369354	42.84598
	2.36953	42.84607
	2.370007	42.84606
	2.370443	42.84621
	2.371063	42.84626
	2.378567	42.84731
	2.378613	42.84774
	2.379115	42.84819
	2.380118	42.84836
	2.382193	42.84858
	2.396944	42.8457
	2.401219	42.84344
	2.405117	42.84268
	2.409065	42.84192
	2.409267	42.84189
	2.411005	42.84174
	2.417384	42.84123
	2.420141	42.84056
	2.422283	42.84156
	2.429289	42.84046
	2.432533	42.83994
	2.436666	42.83929
	2.436768	42.83927
	2.43853	42.83873
	2.440934	42.83799
	2.442654	42.83745
	2.443531	42.83717
	2.448488	42.83709
	2.453403	42.83701
	2.456202	42.83757
	2.457072	42.83762
	2.457723	42.83771
	2.459944	42.83786
	2.46286	42.83852
	2.467705	42.839
	2.474501	42.83962
	2.476251	42.84176
	2.479257	42.84324
	2.479309	42.84324
	2.481914	42.8445
	2.487673	42.84589
	2.488001	42.84596
	2.493431	42.84674
	2.499834	42.85015
	2.50043	42.85047
	2.500747	42.8506
	2.501654	42.85157
	2.502129	42.85141
	2.503802	42.85126
	2.504865	42.85133
	2.505431	42.85128
	2.505826	42.85119
	2.506289	42.85107
	2.506832	42.85093
	2.507261	42.85086
	2.50768	42.85076
	2.508753	42.85037
	2.511722	42.84853
	2.515187	42.84639
	2.516737	42.84269
	2.519977	42.84456
	2.52502	42.84457
	2.530513	42.84367
	2.535921	42.84469
	2.542957	42.84527
	2.545852	42.84524
	2.551976	42.84399
	2.552569	42.8453
	2.551758	42.84626
	2.551963	42.84665
	2.555547	42.84632
	2.558854	42.84567
	2.559647	42.8455
	2.562698	42.8448
	2.566132	42.84401
	2.568646	42.84341
	2.572664	42.84313
	2.57609	42.84199
	2.576576	42.84194
	2.577436	42.84214
	2.579582	42.84207
	2.583121	42.84083
	2.586199	42.84076
	2.591488	42.83929
	2.594138	42.83817
	2.594262	42.83812
	2.595139	42.83785
	2.596315	42.83749
	2.596891	42.83714
	2.597569	42.83675
	2.598796	42.83723
	2.60053	42.83727
	2.602236	42.83689
	2.604192	42.83608
	2.605425	42.83626
	2.607644	42.83622
	2.607625	42.83606
	2.609475	42.83603
	2.611017	42.83569
	2.614193	42.83628
	2.61781	42.83639
	2.618381	42.83644
	2.621662	42.83667
	2.621819	42.83672
	2.622837	42.83692
	2.624888	42.83729
	2.625269	42.83714
	2.625708	42.83731
	2.626434	42.83746
	2.628335	42.8381
	2.631506	42.83838
	2.634215	42.83826
	2.636465	42.83764
	2.639988	42.83828
	2.650827	42.83766
	2.651048	42.83764
	2.651908	42.83759
	2.651933	42.83759
	2.652006	42.83758
	2.657669	42.83717
	2.657696	42.83717
	2.66044	42.83696
	2.660482	42.83696
	2.666099	42.83665
	2.672831	42.83317
	2.672889	42.83315
	2.67321	42.833
	2.67406	42.83265
	2.675503	42.83205
	2.676141	42.83179
	2.676171	42.83178
	2.680146	42.83072
	2.682387	42.83077
	2.683941	42.83081
	2.684292	42.83093
	2.688405	42.83126
	2.690118	42.83109
	2.692682	42.83085
	2.694065	42.83072
	2.694109	42.83071
	2.695784	42.83056
	2.696055	42.83052
	2.696244	42.83055
	2.696463	42.83057
	2.696689	42.83061
	2.696895	42.83062
	2.696935	42.83063
	2.697189	42.83068
	2.697258	42.83069
	2.697633	42.83072
	2.697808	42.83073
	2.697894	42.83074
	2.697985	42.83075
	2.698099	42.83078
	2.698182	42.8308
	2.698268	42.8308
	2.698517	42.83082
	2.698637	42.83083
	2.698703	42.83083
	2.698792	42.83085
	2.698862	42.83087
	2.698992	42.83091
	2.699397	42.83105
	2.699624	42.83112
	2.699731	42.83115
	2.700093	42.83125
	2.700556	42.83138
	2.700706	42.83141
	2.700789	42.83142
	2.700849	42.83143
	2.700925	42.83143
	2.701142	42.83143
	2.701289	42.83143
	2.701402	42.83145
	2.701564	42.83148
	2.701638	42.83149
	2.701676	42.83149
	2.701713	42.83149
	2.702094	42.8314
	2.7022	42.83137
	2.702277	42.83138
	2.702474	42.83141
	2.702556	42.83143
	2.702702	42.83148
	2.702849	42.83153
	2.702951	42.83158
	2.703076	42.83164
	2.703112	42.83166
	2.703147	42.83167
	2.703211	42.83167
	2.703306	42.83168
	2.703386	42.8317
	2.703459	42.83171
	2.703451	42.83172
	2.703579	42.83182
	2.703648	42.83189
	2.70373	42.83198
	2.703824	42.83206
	2.703918	42.83211
	2.703973	42.83213
	2.704008	42.83214
	2.704198	42.83218
	2.704448	42.83218
	2.704923	42.83219
	2.705118	42.83219
	2.705401	42.83231
	2.705613	42.8324
	2.706069	42.83261
	2.706145	42.83265
	2.706177	42.83268
	2.706258	42.83283
	2.706296	42.83296
	2.706385	42.83316
	2.706409	42.83322
	2.706564	42.83345
	2.706634	42.83354
	2.706738	42.83364
	2.706797	42.8337
	2.706914	42.83378
	2.707088	42.8339
	2.707239	42.834
	2.707287	42.83402
	2.70744	42.83405
	2.707611	42.83409
	2.707678	42.83411
	2.707737	42.83413
	2.707862	42.83419
	2.707896	42.8342
	2.70809	42.83425
	2.708244	42.83428
	2.708389	42.83429
	2.708442	42.8343
	2.708513	42.83431
	2.708555	42.83434
	2.708684	42.8344
	2.709032	42.83459
	2.709065	42.83459
	2.709238	42.83459
	2.709308	42.8346
	2.709358	42.8346
	2.709412	42.83462
	2.709482	42.83464
	2.709533	42.83467
	2.709557	42.83469
	2.709596	42.83473
	2.709633	42.8348
	2.709654	42.83485
	2.709703	42.835
	2.709744	42.83513
	2.70975	42.83518
	2.709754	42.83532
	2.709759	42.83536
	2.709788	42.83545
	2.709817	42.83548
	2.709847	42.83551
	2.709883	42.83552
	2.709936	42.83553
	2.710184	42.83556
	2.710275	42.83557
	2.710385	42.8356
	2.710451	42.83563
	2.710658	42.83571
	2.71078	42.83578
	2.710878	42.83584
	2.711014	42.83593
	2.711068	42.83597
	2.711121	42.83599
	2.71116	42.83601
	2.711206	42.83602
	2.71126	42.83603
	2.711308	42.83604
	2.711343	42.83604
	2.711385	42.83604
	2.711435	42.83603
	2.711563	42.83602
	2.711557	42.83598
	2.713154	42.83502
	2.713764	42.83475
	2.714687	42.83436
	2.714847	42.83431
	2.71487	42.83431
	2.714898	42.8343
	2.715344	42.83421
	2.715688	42.83415
	2.715923	42.8341
	2.716428	42.834
	2.717519	42.83377
	2.718261	42.83383
	2.719675	42.83392
	2.72131	42.83404
	2.722113	42.83409
	2.722165	42.83409
	2.72285	42.83414
	2.72288	42.83415
	2.722894	42.83416
	2.722905	42.83416
	2.722921	42.83416
	2.722958	42.83416
	2.723025	42.83416
	2.723056	42.83416
	2.723087	42.83416
	2.723109	42.83417
	2.723129	42.83417
	2.723145	42.83416
	2.723266	42.83417
	2.723498	42.83418
	2.723532	42.83418
	2.723997	42.83422
	2.724025	42.83422
	2.724678	42.83426
	2.725267	42.8343
	2.725307	42.8343
	2.725508	42.83432
	2.7258	42.83433
	2.725895	42.83434
	2.726926	42.83441
	2.727367	42.83444
	2.727401	42.83444
	2.728122	42.83449
	2.72819	42.83449
	2.72831	42.8345
	2.729042	42.83455
	2.729259	42.83456
	2.72955	42.83458
	2.729847	42.83468
	2.730101	42.83477
	2.730682	42.83505
	2.730837	42.83507
	2.730909	42.83504
	2.731067	42.83497
	2.731202	42.83503
	2.731535	42.83516
	2.731768	42.83532
	2.731925	42.83538
	2.731991	42.83542
	2.732072	42.83546
	2.732281	42.83563
	2.73262	42.8359
	2.732642	42.83592
	2.732704	42.83597
	2.732711	42.83599
	2.732713	42.83599
	2.732991	42.83669
	2.733014	42.83671
	2.733064	42.83668
	2.733111	42.83664
	2.733156	42.8366
	2.733237	42.83649
	2.733276	42.83645
	2.733423	42.83636
	2.733441	42.83635
	2.733453	42.83623
	2.733462	42.8362
	2.733476	42.83616
	2.733492	42.83613
	2.733512	42.83612
	2.733528	42.83611
	2.733548	42.8361
	2.73357	42.8361
	2.733587	42.8361
	2.733686	42.83611
	2.733713	42.83611
	2.733727	42.83609
	2.733761	42.83603
	2.733821	42.83593
	2.733862	42.83587
	2.733923	42.83581
	2.733951	42.83578
	2.733968	42.83577
	2.734037	42.83576
	2.734105	42.83575
	2.734183	42.83572
	2.734228	42.8357
	2.734315	42.8357
	2.734408	42.8357
	2.734586	42.83572
	2.734823	42.83578
	2.734995	42.83582
	2.735152	42.83586
	2.735237	42.83587
	2.735274	42.83587
	2.735321	42.83586
	2.735356	42.83585
	2.735441	42.83582
	2.735581	42.83578
	2.735649	42.83575
	2.735758	42.83569
	2.735833	42.83566
	2.735924	42.83564
	2.735953	42.83564
	2.736036	42.83564
	2.736087	42.83565
	2.736139	42.83565
	2.736181	42.83564
	2.736458	42.83561
	2.736891	42.83556
	2.737063	42.83554
	2.737136	42.83553
	2.737178	42.83553
	2.737224	42.83553
	2.737281	42.83554
	2.737319	42.83555
	2.737368	42.83558
	2.737509	42.83568
	2.73761	42.83575
	2.737734	42.83581
	2.737774	42.83583
	2.737783	42.83583
	2.737803	42.83583
	2.737862	42.83586
	2.737929	42.8359
	2.737982	42.83595
	2.738029	42.83601
	2.738045	42.83606
	2.738147	42.83619
	2.738275	42.83634
	2.738331	42.83639
	2.738404	42.83645
	2.73847	42.83651
	2.738534	42.83658
	2.738558	42.8366
	2.738596	42.83662
	2.738773	42.83669
	2.738982	42.83678
	2.739021	42.8368
	2.739036	42.83682
	2.739038	42.83693
	2.73904	42.83694
	2.739047	42.83696
	2.739062	42.83699
	2.739081	42.83701
	2.73911	42.83704
	2.73915	42.83706
	2.73926	42.83712
	2.739387	42.8372
	2.739496	42.83724
	2.739515	42.83725
	2.739611	42.83735
	2.739689	42.83739
	2.739728	42.83742
	2.739779	42.83747
	2.739847	42.83755
	2.739871	42.83757
	2.739915	42.83761
	2.739944	42.83762
	2.740006	42.83765
	2.740028	42.83766
	2.740066	42.83767
	2.740182	42.83769
	2.740287	42.83771
	2.740388	42.83776
	2.740448	42.83779
	2.740571	42.83782
	2.740732	42.83788
	2.740768	42.83789
	2.740817	42.8379
	2.740842	42.83791
	2.740863	42.83791
	2.740886	42.83791
	2.740901	42.83791
	2.740912	42.8379
	2.740973	42.83783
	2.741011	42.83781
	2.741049	42.83781
	2.741067	42.83782
	2.741091	42.83784
	2.741114	42.83787
	2.74114	42.83793
	2.741155	42.83798
	2.741172	42.83808
	2.741183	42.83818
	2.741183	42.83825
	2.741184	42.83836
	2.741166	42.83856
	2.741148	42.83872
	2.74115	42.83874
	2.741163	42.8388
	2.741173	42.83881
	2.741184	42.83883
	2.7412	42.83884
	2.741221	42.83885
	2.741246	42.83886
	2.741265	42.83887
	2.741325	42.83886
	2.741419	42.83882
	2.741516	42.83879
	2.741571	42.83877
	2.741686	42.83875
	2.741904	42.83876
	2.742098	42.83877
	2.74219	42.83879
	2.742285	42.83881
	2.742373	42.83885
	2.742432	42.83888
	2.742477	42.83892
	2.742519	42.83895
	2.742535	42.83897
	2.742548	42.839
	2.742546	42.83902
	2.74253	42.83903
	2.742508	42.83905
	2.742482	42.83906
	2.742448	42.83906
	2.742374	42.83906
	2.742333	42.83906
	2.742299	42.83906
	2.742269	42.83907
	2.742241	42.83909
	2.742212	42.83911
	2.742164	42.83916
	2.742137	42.83922
	2.742115	42.83927
	2.742109	42.83928
	2.7421	42.83928
	2.742096	42.83931
	2.7421	42.83933
	2.742104	42.83936
	2.742117	42.83939
	2.742135	42.83941
	2.742162	42.83944
	2.742212	42.83947
	2.742271	42.83949
	2.742349	42.83951
	2.74244	42.83952
	2.742574	42.83953
	2.742698	42.83953
	2.742976	42.83953
	2.743077	42.83953
	2.743235	42.83955
	2.743467	42.8396
	2.743565	42.83962
	2.743697	42.83968
	2.743788	42.83975
	2.743861	42.8398
	2.744015	42.83989
	2.744098	42.83996
	2.744168	42.84003
	2.744212	42.84007
	2.744265	42.84016
	2.744288	42.8402
	2.744278	42.84028
	2.744207	42.84038
	2.744161	42.84045
	2.74413	42.84054
	2.744129	42.8406
	2.744141	42.84063
	2.744162	42.84067
	2.7442	42.84072
	2.744248	42.84077
	2.744342	42.84085
	2.744441	42.84092
	2.744632	42.84105
	2.744769	42.84115
	2.744879	42.84124
	2.744972	42.84132
	2.745045	42.84138
	2.745135	42.84146
	2.745241	42.84157
	2.745434	42.84175
	2.745534	42.84183
	2.745627	42.84191
	2.745656	42.84193
	2.745806	42.842
	2.745872	42.84204
	2.745955	42.84209
	2.746002	42.84213
	2.746042	42.84217
	2.746093	42.84223
	2.746171	42.84232
	2.746243	42.84243
	2.746277	42.84249
	2.746288	42.84251
	2.746337	42.84264
	2.746428	42.84288
	2.746489	42.84304
	2.74656	42.8432
	2.74662	42.84331
	2.746735	42.84351
	2.746802	42.84364
	2.746808	42.84365
	2.746812	42.84368
	2.746817	42.84376
	2.746796	42.84385
	2.746791	42.8439
	2.746795	42.84394
	2.746814	42.84399
	2.74684	42.84403
	2.746903	42.84411
	2.74694	42.84415
	2.746974	42.84417
	2.747026	42.84421
	2.747067	42.84424
	2.747145	42.84427
	2.747197	42.84428
	2.747283	42.8443
	2.747406	42.84432
	2.747669	42.84436
	2.747737	42.84437
	2.747805	42.84439
	2.747873	42.84442
	2.74789	42.84444
	2.747938	42.8445
	2.748045	42.84455
	2.748006	42.84458
	2.748196	42.84476
	2.748351	42.84494
	2.748374	42.84497
	2.748699	42.84535
	2.749048	42.84575
	2.74917	42.8459
	2.749285	42.84603
	2.749406	42.84617
	2.749728	42.84655
	2.749842	42.84668
	2.749992	42.84686
	2.750299	42.84722
	2.7508	42.8478
	2.75129	42.84838
	2.751866	42.84906
	2.7519	42.8491
	2.754234	42.85189
	2.759342	42.86267
	2.7632	42.87377
	2.791806	42.89459
	2.804457	42.89819
	2.81069	42.89936
	2.818871	42.90082
	2.828307	42.90719
	2.838803	42.91279
	2.847604	42.91579
	2.856704	42.91539
	2.865191	42.91852
	2.873006	42.91139
	2.877791	42.90984
	2.882016	42.90192
	2.883938	42.90026
	2.906486	42.89518
	2.917159	42.88445
	2.924484	42.88301
	2.940013	42.877
	2.947397	42.87528
	2.947672	42.87525
	2.955189	42.87401
	2.958806	42.87342
	2.962207	42.87273
	2.968558	42.87148
	2.97109	42.87113
	2.976412	42.87037
	2.982243	42.86823
	2.982662	42.86792
	2.984028	42.86693
	2.984628	42.86642
	2.985292	42.8661
	3.011477	42.85361
	3.035507	42.84205
	3.035988	42.84181
	3.036465	42.84159
	3.040433	42.83963
	3.043634	42.83823
	4.069686	42.84963
END
END
