France_Ile-de-France_Yvelines
1
	1.608998	49.07778
	1.609793	49.07695
	1.609773	49.0769
	1.611107	49.07562
	1.610731	49.07529
	1.610129	49.07491
	1.610491	49.07469
	1.610621	49.07452
	1.61077	49.0744
	1.611297	49.0741
	1.611514	49.074
	1.611751	49.07392
	1.613023	49.07317
	1.612531	49.07286
	1.613965	49.0719
	1.614957	49.0712
	1.62006	49.0737
	1.623017	49.0751
	1.629009	49.07804
	1.63	49.07852
	1.630966	49.07884
	1.631977	49.07909
	1.633024	49.07919
	1.634142	49.07925
	1.635609	49.07924
	1.640573	49.07926
	1.640276	49.08025
	1.6402	49.08038
	1.64012	49.08049
	1.640436	49.08052
	1.640814	49.08059
	1.641212	49.0807
	1.641518	49.08077
	1.641784	49.08089
	1.642472	49.08114
	1.642818	49.08126
	1.642883	49.08129
	1.643133	49.08131
	1.643466	49.08137
	1.643672	49.08139
	1.643885	49.08146
	1.644105	49.08154
	1.644301	49.08154
	1.644549	49.0815
	1.644802	49.08149
	1.645101	49.08144
	1.645382	49.08141
	1.645666	49.0814
	1.64592	49.08139
	1.646264	49.08145
	1.646704	49.08153
	1.646863	49.08158
	1.647061	49.08158
	1.64769	49.08144
	1.648489	49.08118
	1.649154	49.08146
	1.650162	49.08176
	1.651273	49.08194
	1.65204	49.08198
	1.652957	49.08191
	1.654317	49.08165
	1.655368	49.0814
	1.656198	49.08134
	1.657503	49.08136
	1.658319	49.08139
	1.658836	49.08136
	1.659729	49.08115
	1.660685	49.08065
	1.66146	49.08028
	1.662376	49.07986
	1.663411	49.07956
	1.664636	49.07927
	1.665785	49.07907
	1.667008	49.07884
	1.667607	49.07866
	1.667756	49.07877
	1.668097	49.07892
	1.668394	49.07896
	1.669096	49.07896
	1.669657	49.07887
	1.669981	49.07881
	1.671487	49.07856
	1.672129	49.07842
	1.6725	49.07833
	1.67296	49.07814
	1.673115	49.07806
	1.674113	49.07759
	1.675122	49.07715
	1.675734	49.07684
	1.6768	49.07644
	1.677618	49.07621
	1.678614	49.076
	1.679349	49.07582
	1.679977	49.07554
	1.6805	49.07527
	1.681103	49.07487
	1.681907	49.07449
	1.682672	49.07415
	1.683417	49.0737
	1.68448	49.07305
	1.685566	49.07254
	1.687204	49.07177
	1.687472	49.0717
	1.688166	49.07151
	1.688477	49.07138
	1.688787	49.07123
	1.690079	49.07057
	1.691785	49.06977
	1.693032	49.06904
	1.69363	49.06865
	1.694248	49.06821
	1.695251	49.06761
	1.695399	49.06725
	1.695431	49.06722
	1.695778	49.06689
	1.696131	49.06669
	1.696209	49.06663
	1.696536	49.06636
	1.69721	49.0658
	1.697512	49.06552
	1.697779	49.06498
	1.697812	49.06447
	1.697448	49.06388
	1.696675	49.0631
	1.69667	49.06303
	1.69662	49.06233
	1.696225	49.0613
	1.695301	49.05935
	1.69415	49.05837
	1.693376	49.05753
	1.69307	49.05692
	1.693193	49.05667
	1.693169	49.05652
	1.694083	49.05621
	1.694803	49.05601
	1.695498	49.05588
	1.698655	49.05479
	1.698599	49.0547
	1.69931	49.05436
	1.700668	49.05377
	1.701792	49.05349
	1.702408	49.05327
	1.70324	49.05285
	1.703293	49.0529
	1.703318	49.05296
	1.703467	49.05313
	1.704927	49.05315
	1.704563	49.05265
	1.705267	49.05233
	1.705245	49.05229
	1.705692	49.05209
	1.705634	49.05196
	1.705792	49.05192
	1.705832	49.05195
	1.70597	49.0519
	1.706179	49.05215
	1.706436	49.0524
	1.706787	49.05173
	1.707183	49.052
	1.70756	49.05217
	1.713947	49.04755
	1.716637	49.04908
	1.722913	49.0448
	1.731636	49.05051
	1.732132	49.05006
	1.733285	49.04949
	1.735518	49.04875
	1.745701	49.04753
	1.746216	49.04817
	1.747791	49.04796
	1.747996	49.0484
	1.749032	49.04821
	1.749004	49.04815
	1.74934	49.04807
	1.751032	49.04802
	1.749445	49.05346
	1.750812	49.05474
	1.75111	49.05501
	1.751179	49.05506
	1.751636	49.05546
	1.75173	49.05541
	1.752698	49.05618
	1.753064	49.05598
	1.753783	49.0566
	1.754353	49.05687
	1.754409	49.05684
	1.755113	49.05709
	1.755765	49.05673
	1.755907	49.05666
	1.756123	49.05656
	1.756388	49.05647
	1.756685	49.05638
	1.75684	49.05634
	1.75708	49.05629
	1.757279	49.05626
	1.75779	49.05621
	1.758198	49.05616
	1.758607	49.05601
	1.75885	49.05594
	1.759328	49.05584
	1.759588	49.0558
	1.760227	49.05575
	1.760447	49.05574
	1.761352	49.05577
	1.761354	49.05577
	1.761391	49.05577
	1.763203	49.05769
	1.762983	49.05789
	1.762919	49.05795
	1.762659	49.05821
	1.761773	49.05903
	1.761265	49.0595
	1.760982	49.05976
	1.760443	49.05975
	1.760046	49.05978
	1.759821	49.05983
	1.759321	49.06
	1.75889	49.0601
	1.758246	49.06018
	1.758218	49.06018
	1.757793	49.06023
	1.757731	49.06024
	1.757646	49.06027
	1.757631	49.06027
	1.75699	49.06063
	1.756243	49.06106
	1.756186	49.06109
	1.7559	49.06124
	1.755833	49.06127
	1.7561	49.0614
	1.756874	49.06165
	1.757188	49.06182
	1.759259	49.06311
	1.759326	49.06305
	1.759576	49.0633
	1.759743	49.06342
	1.759758	49.06341
	1.759749	49.06363
	1.762576	49.06374
	1.763983	49.06243
	1.764493	49.06196
	1.764495	49.06196
	1.7654	49.06112
	1.765435	49.06108
	1.765682	49.06084
	1.766933	49.05973
	1.767311	49.05927
	1.767563	49.05885
	1.767857	49.05837
	1.767909	49.05829
	1.767993	49.05817
	1.768056	49.05806
	1.768383	49.05812
	1.768464	49.05804
	1.769032	49.05755
	1.769934	49.05776
	1.770234	49.05775
	1.771505	49.05541
	1.772102	49.05524
	1.772164	49.05522
	1.772528	49.05512
	1.77256	49.05512
	1.772927	49.05503
	1.773065	49.055
	1.773422	49.05494
	1.773571	49.05492
	1.774024	49.05488
	1.774074	49.05487
	1.775811	49.05476
	1.777233	49.05466
	1.778	49.05461
	1.778144	49.0546
	1.779009	49.05461
	1.779039	49.05461
	1.779683	49.05462
	1.779692	49.05462
	1.780999	49.05465
	1.78114	49.05466
	1.781559	49.05469
	1.781662	49.05471
	1.782255	49.05479
	1.782814	49.05486
	1.783209	49.0549
	1.783625	49.05499
	1.783783	49.05504
	1.783937	49.0551
	1.783984	49.05512
	1.784894	49.05734
	1.785959	49.05742
	1.785886	49.05779
	1.786553	49.05771
	1.78699	49.05772
	1.787863	49.05808
	1.788906	49.05804
	1.789183	49.0577
	1.789238	49.05762
	1.790292	49.05778
	1.790294	49.0578
	1.791025	49.05776
	1.791837	49.0579
	1.794263	49.0587
	1.794002	49.05903
	1.792634	49.06061
	1.797248	49.06235
	1.797205	49.06241
	1.795171	49.06327
	1.795238	49.06331
	1.799907	49.06425
	1.799795	49.06613
	1.79972	49.06659
	1.798641	49.06657
	1.797827	49.06902
	1.797192	49.07144
	1.796736	49.07196
	1.797041	49.07195
	1.799703	49.07275
	1.801634	49.0732
	1.802208	49.07329
	1.804074	49.0737
	1.805853	49.07313
	1.806796	49.07301
	1.807999	49.07318
	1.810714	49.07291
	1.811391	49.07339
	1.811541	49.07351
	1.813167	49.07451
	1.813803	49.07488
	1.814642	49.07529
	1.81513	49.07609
	1.815296	49.07652
	1.817935	49.0765
	1.82347	49.07642
	1.829654	49.07679
	1.829653	49.07693
	1.830347	49.07662
	1.83136	49.07591
	1.831893	49.0759
	1.832576	49.07535
	1.832958	49.07504
	1.834028	49.0746
	1.834585	49.07456
	1.83568	49.07407
	1.836079	49.07351
	1.837612	49.07253
	1.838016	49.07216
	1.838596	49.07162
	1.839106	49.07141
	1.839215	49.07119
	1.839929	49.06973
	1.840512	49.0695
	1.840544	49.06938
	1.841737	49.06502
	1.841536	49.06484
	1.841509	49.06477
	1.841456	49.06453
	1.841969	49.0643
	1.842344	49.06405
	1.842581	49.06387
	1.842873	49.06369
	1.844208	49.06322
	1.844318	49.06311
	1.844491	49.0626
	1.844949	49.062
	1.8452	49.0618
	1.845723	49.06156
	1.846297	49.06126
	1.846422	49.06115
	1.847173	49.06195
	1.848722	49.0618
	1.848937	49.06237
	1.850663	49.06217
	1.851606	49.06281
	1.854356	49.06208
	1.855072	49.06179
	1.855685	49.06138
	1.855522	49.06123
	1.85675	49.06086
	1.858127	49.06014
	1.858847	49.05986
	1.861479	49.05916
	1.862016	49.05903
	1.862408	49.0592
	1.863359	49.05847
	1.86418	49.05778
	1.86441	49.05764
	1.864651	49.05758
	1.8651	49.0575
	1.861203	49.04914
	1.858946	49.04164
	1.857823	49.04052
	1.857692	49.04038
	1.856446	49.03831
	1.855725	49.03755
	1.855737	49.03746
	1.855835	49.03746
	1.85547	49.03648
	1.855163	49.03656
	1.855055	49.03655
	1.855054	49.03591
	1.855108	49.03575
	1.855191	49.03576
	1.855204	49.03502
	1.854933	49.03505
	1.854878	49.03505
	1.854818	49.03492
	1.854789	49.03491
	1.854764	49.03491
	1.85474	49.03492
	1.854677	49.03501
	1.854639	49.03502
	1.854603	49.03502
	1.854194	49.03494
	1.854087	49.03493
	1.853956	49.03494
	1.853207	49.03506
	1.852631	49.03519
	1.852443	49.03521
	1.851853	49.03531
	1.851093	49.03327
	1.851222	49.03323
	1.851549	49.03319
	1.852007	49.0332
	1.852454	49.03315
	1.85322	49.03298
	1.8539	49.03282
	1.854829	49.03255
	1.855145	49.0325
	1.855695	49.03242
	1.856224	49.03237
	1.856664	49.03236
	1.85717	49.03236
	1.857784	49.03238
	1.858199	49.0324
	1.858303	49.03241
	1.858407	49.0324
	1.858706	49.0324
	1.858888	49.03058
	1.859493	49.0293
	1.859654	49.02852
	1.859669	49.02847
	1.859639	49.02806
	1.859818	49.02765
	1.85982	49.02699
	1.859923	49.02696
	1.859813	49.02573
	1.859742	49.02547
	1.85962	49.02547
	1.859521	49.02505
	1.859633	49.02504
	1.85944	49.02432
	1.859362	49.02379
	1.859827	49.02369
	1.860253	49.02363
	1.861711	49.02332
	1.862426	49.02312
	1.862967	49.02296
	1.863382	49.02279
	1.864068	49.02247
	1.864455	49.02229
	1.864572	49.02221
	1.864777	49.02206
	1.864954	49.02195
	1.865212	49.02162
	1.864744	49.02146
	1.86471	49.02146
	1.864618	49.02146
	1.864507	49.02144
	1.863968	49.02128
	1.863813	49.02121
	1.863579	49.02102
	1.863061	49.02076
	1.863047	49.02075
	1.86298	49.02067
	1.863006	49.02057
	1.862919	49.02039
	1.86283	49.02035
	1.862724	49.02022
	1.862637	49.02017
	1.862566	49.02008
	1.862451	49.02
	1.862424	49.01996
	1.862216	49.01986
	1.862159	49.01984
	1.862044	49.01967
	1.861972	49.01954
	1.861735	49.0193
	1.861745	49.01926
	1.861725	49.01922
	1.861712	49.0191
	1.861641	49.01905
	1.861637	49.01893
	1.86169	49.01878
	1.861674	49.0186
	1.861431	49.01842
	1.861331	49.01838
	1.861251	49.01837
	1.861097	49.01834
	1.860836	49.01824
	1.860617	49.01814
	1.860521	49.01805
	1.860423	49.01783
	1.860381	49.01775
	1.860297	49.01762
	1.860286	49.01753
	1.860253	49.01747
	1.860188	49.0174
	1.860167	49.01723
	1.860187	49.01691
	1.860252	49.01665
	1.860262	49.01648
	1.860232	49.01635
	1.860369	49.01573
	1.860393	49.01565
	1.860477	49.0155
	1.860466	49.01543
	1.859959	49.01476
	1.859823	49.01464
	1.859773	49.01455
	1.859682	49.01446
	1.859498	49.01433
	1.859427	49.01427
	1.859196	49.01397
	1.859159	49.01395
	1.859102	49.01395
	1.859089	49.01389
	1.859404	49.01387
	1.861294	49.01401
	1.861471	49.01403
	1.863163	49.01461
	1.864911	49.01543
	1.86582	49.01583
	1.866842	49.01631
	1.866809	49.01633
	1.867673	49.01686
	1.867985	49.01669
	1.868478	49.01756
	1.869079	49.01827
	1.869585	49.0189
	1.869823	49.01914
	1.870548	49.01962
	1.871247	49.0192
	1.872511	49.01857
	1.873566	49.01795
	1.874836	49.01743
	1.875267	49.01724
	1.875413	49.01717
	1.877666	49.01942
	1.878649	49.0199
	1.879524	49.01994
	1.880065	49.01989
	1.881178	49.01966
	1.881738	49.01958
	1.881748	49.02578
	1.881915	49.0266
	1.88217	49.02834
	1.884562	49.03137
	1.883268	49.03371
	1.887244	49.03555
	1.888071	49.03577
	1.890658	49.03624
	1.89419	49.03727
	1.8911	49.03932
	1.895573	49.04045
	1.897126	49.04088
	1.901767	49.04222
	1.900771	49.04341
	1.903286	49.0447
	1.903413	49.04479
	1.906547	49.04609
	1.905717	49.04714
	1.908428	49.0481
	1.909704	49.04744
	1.911851	49.04648
	1.913825	49.04584
	1.91412	49.04578
	1.913233	49.044
	1.913033	49.04325
	1.91282	49.04249
	1.912788	49.04243
	1.91235	49.04151
	1.915769	49.03999
	1.916568	49.03957
	1.918408	49.03803
	1.918097	49.03754
	1.920217	49.03627
	1.922416	49.03507
	1.922568	49.03515
	1.923035	49.03478
	1.92357	49.03503
	1.924156	49.03448
	1.925371	49.03312
	1.927233	49.03182
	1.928193	49.03098
	1.928433	49.03104
	1.928965	49.03119
	1.929578	49.03141
	1.932109	49.03026
	1.93135	49.02844
	1.931399	49.02841
	1.931506	49.02844
	1.932491	49.02758
	1.933207	49.02669
	1.933406	49.02675
	1.934087	49.02606
	1.934532	49.0257
	1.934336	49.0256
	1.934747	49.02524
	1.934926	49.02498
	1.934842	49.02496
	1.9351	49.02461
	1.936576	49.02304
	1.936865	49.02277
	1.937122	49.02249
	1.937623	49.02202
	1.937888	49.02182
	1.938623	49.02209
	1.938924	49.02218
	1.939335	49.02231
	1.940338	49.02293
	1.940569	49.02311
	1.941038	49.0234
	1.941231	49.02347
	1.941569	49.02357
	1.94196	49.02373
	1.942369	49.02391
	1.942522	49.02395
	1.942877	49.02397
	1.943504	49.02394
	1.943735	49.0239
	1.944379	49.02375
	1.944476	49.02374
	1.94539	49.02571
	1.945683	49.02602
	1.946108	49.02634
	1.946789	49.02653
	1.948418	49.02652
	1.948438	49.02647
	1.948714	49.02582
	1.949055	49.02585
	1.949512	49.02427
	1.955113	49.02479
	1.955181	49.02458
	1.955295	49.02413
	1.95556	49.0235
	1.955583	49.02349
	1.955572	49.02349
	1.956359	49.02251
	1.956401	49.02249
	1.956383	49.02249
	1.956766	49.02209
	1.956815	49.02206
	1.958403	49.02238
	1.958391	49.02239
	1.958413	49.02238
	1.959081	49.02257
	1.959245	49.02264
	1.959538	49.02291
	1.959757	49.02308
	1.95999	49.02318
	1.960143	49.02323
	1.960311	49.02325
	1.961115	49.02325
	1.961248	49.02327
	1.961242	49.02328
	1.961391	49.02334
	1.961478	49.02342
	1.961678	49.0237
	1.961666	49.02371
	1.961775	49.02384
	1.961959	49.02398
	1.962253	49.02415
	1.962881	49.02445
	1.962865	49.02445
	1.963262	49.02463
	1.963586	49.02487
	1.964144	49.02546
	1.964181	49.02548
	1.964414	49.02525
	1.964408	49.02524
	1.965161	49.02445
	1.965722	49.02444
	1.96533	49.02426
	1.965166	49.02444
	1.965336	49.02423
	1.966158	49.02335
	1.966193	49.02334
	1.9662	49.02331
	1.966705	49.02277
	1.966851	49.02264
	1.966943	49.02259
	1.968417	49.02202
	1.969086	49.0217
	1.969286	49.02161
	1.971212	49.02096
	1.971318	49.02093
	1.972397	49.02056
	1.972553	49.02047
	1.973761	49.01956
	1.973821	49.01954
	1.979274	49.01887
	1.979459	49.01887
	1.980569	49.01895
	1.980998	49.019
	1.983172	49.01924
	1.983499	49.0193
	1.985932	49.01968
	1.989026	49.02039
	1.988968	49.0205
	1.989613	49.02061
	1.989753	49.02065
	1.989773	49.02064
	1.990897	49.02084
	1.990966	49.02087
	1.991865	49.02101
	1.992155	49.02108
	1.992184	49.02101
	1.99225	49.02094
	1.996546	49.01717
	1.996546	49.01715
	2.004281	49.01033
	2.004448	49.01029
	2.004571	49.01018
	2.004878	49.01009
	2.006063	49.00951
	2.006166	49.00944
	2.007072	49.00855
	2.009471	49.00639
	2.011951	49.00457
	2.01197	49.00454
	2.01189	49.00352
	2.012872	49.00166
	2.013089	49.00151
	2.013671	49.00122
	2.014105	49.00117
	2.014616	49.00105
	2.015876	49.00065
	2.015899	49.00065
	2.015946	49.00062
	2.016004	49.00062
	2.016589	49.00042
	2.016677	49.00041
	2.01773	49.00008
	2.017805	49.00005
	2.01933	48.99959
	2.01934	48.99959
	2.019346	48.99957
	2.020863	48.99911
	2.021447	48.99894
	2.023361	48.99804
	2.023639	48.99792
	2.023665	48.99792
	2.024197	48.99827
	2.02445	48.99845
	2.0247	48.99864
	2.02493	48.99883
	2.025127	48.999
	2.025169	48.99911
	2.025274	48.99923
	2.025481	48.9994
	2.025949	48.99974
	2.026005	48.99982
	2.025996	48.99991
	2.025795	49.00013
	2.025739	49.00024
	2.025741	49.00032
	2.025999	49.00053
	2.026385	49.00079
	2.026762	49.00096
	2.027515	49.00123
	2.028682	49.00168
	2.029071	49.00174
	2.029484	49.00175
	2.030556	49.00169
	2.030681	49.00169
	2.030951	49.00169
	2.032022	49.00169
	2.033387	49.00169
	2.033587	49.00169
	2.034642	49.00169
	2.035898	49.00171
	2.037079	49.00163
	2.038865	49.00151
	2.040612	49.00141
	2.04092	49.00141
	2.041478	49.00138
	2.041599	49.00137
	2.041827	49.00125
	2.041999	49.00115
	2.042535	49.00085
	2.042762	49.00062
	2.043484	49.00079
	2.043955	49.00097
	2.04442	49.00115
	2.045004	49.00139
	2.045659	49.00161
	2.046537	49.00189
	2.04706	49.00206
	2.047413	49.00217
	2.047611	49.00222
	2.048177	49.00234
	2.049007	49.00251
	2.049096	49.00256
	2.049649	49.00293
	2.050716	49.00363
	2.0512	49.00386
	2.052008	49.00414
	2.05307	49.00447
	2.054396	49.00506
	2.055116	49.0052
	2.055288	49.00521
	2.056306	49.00728
	2.056513	49.00735
	2.056733	49.00744
	2.056774	49.00742
	2.055502	49.00522
	2.057954	49.0038
	2.05855	49.00397
	2.058554	49.00397
	2.059976	49.00435
	2.060252	49.00445
	2.061226	49.00487
	2.062251	49.00748
	2.062391	49.00755
	2.063663	49.00812
	2.063778	49.00817
	2.0642	49.00835
	2.065354	49.00757
	2.067122	49.00647
	2.067703	49.00608
	2.068438	49.00544
	2.06916	49.00476
	2.069835	49.00406
	2.070386	49.00345
	2.070754	49.00302
	2.070961	49.00274
	2.071406	49.002
	2.071584	49.00172
	2.072197	49.00178
	2.072769	49.00184
	2.073541	49.00175
	2.074181	49.00194
	2.075295	49.00212
	2.075216	49.00238
	2.075335	49.00339
	2.074822	49.00599
	2.074773	49.00649
	2.078616	49.00745
	2.079778	49.00796
	2.081652	49.00916
	2.082063	49.00913
	2.082431	49.00938
	2.082687	49.00947
	2.084572	49.01468
	2.085618	49.01448
	2.086381	49.01425
	2.087819	49.01387
	2.088341	49.01373
	2.088468	49.01191
	2.088606	49.01179
	2.089408	49.01137
	2.089552	49.01133
	2.089564	49.01133
	2.089632	49.01131
	2.089651	49.01131
	2.089786	49.01127
	2.090322	49.01114
	2.090469	49.0111
	2.090672	49.01105
	2.091276	49.01089
	2.091306	49.01088
	2.091312	49.01088
	2.091836	49.01073
	2.092045	49.01067
	2.092274	49.01079
	2.092397	49.0106
	2.092535	49.01056
	2.093581	49.01032
	2.094217	49.01017
	2.094608	49.01008
	2.095089	49.00996
	2.09523	49.00992
	2.095765	49.00977
	2.095809	49.00976
	2.09656	49.00951
	2.096673	49.00947
	2.097039	49.00938
	2.097097	49.00936
	2.097263	49.00932
	2.097284	49.00932
	2.098238	49.00911
	2.09861	49.00902
	2.098673	49.009
	2.099126	49.00891
	2.099215	49.0089
	2.100295	49.00873
	2.100526	49.00869
	2.101196	49.00858
	2.101471	49.00853
	2.103648	49.00796
	2.104674	49.00768
	2.104746	49.00766
	2.104898	49.00762
	2.104943	49.00761
	2.105137	49.00757
	2.105169	49.00756
	2.105446	49.00751
	2.105479	49.0075
	2.106419	49.00734
	2.107125	49.0072
	2.107363	49.00715
	2.107437	49.00714
	2.107808	49.00708
	2.107834	49.00707
	2.109846	49.00676
	2.11213	49.00843
	2.110682	49.01041
	2.111821	49.01126
	2.113252	49.01217
	2.113796	49.01258
	2.115406	49.01385
	2.116428	49.01456
	2.116905	49.01492
	2.11942	49.01685
	2.1195	49.0169
	2.120075	49.01731
	2.120111	49.01735
	2.120648	49.01785
	2.12105	49.01866
	2.126661	49.01218
	2.127112	49.00967
	2.125805	49.00736
	2.125614	49.00704
	2.125	49.00604
	2.124284	49.00487
	2.123533	49.00364
	2.12093	48.99494
	2.120664	48.99329
	2.121682	48.99337
	2.122662	48.99351
	2.123987	48.99358
	2.123902	48.99284
	2.12377	48.99228
	2.123619	48.99164
	2.124561	48.99103
	2.125685	48.9899
	2.126982	48.98927
	2.127072	48.98923
	2.127437	48.98936
	2.127963	48.98938
	2.129556	48.98912
	2.130297	48.98906
	2.132346	48.98901
	2.140202	48.98856
	2.143903	48.98813
	2.145113	48.98785
	2.149103	48.98681
	2.154281	48.98632
	2.155452	48.98609
	2.156405	48.98573
	2.157699	48.98511
	2.161001	48.98392
	2.163844	48.98264
	2.164935	48.98235
	2.165618	48.98222
	2.166716	48.98161
	2.167257	48.98122
	2.167936	48.98033
	2.168637	48.97971
	2.168909	48.97955
	2.169387	48.97935
	2.170299	48.97878
	2.170764	48.9786
	2.171446	48.97749
	2.171984	48.97706
	2.172264	48.97669
	2.172678	48.97644
	2.173671	48.97563
	2.174147	48.97485
	2.17473	48.97434
	2.175233	48.97369
	2.175749	48.97323
	2.175995	48.97287
	2.17609	48.97264
	2.176119	48.97176
	2.176018	48.97108
	2.176315	48.97039
	2.176678	48.96995
	2.17675	48.96951
	2.176925	48.96932
	2.177301	48.96907
	2.177395	48.9689
	2.177526	48.96848
	2.177545	48.96812
	2.177385	48.96751
	2.177431	48.96733
	2.178321	48.96678
	2.17841	48.96668
	2.178478	48.96638
	2.179024	48.96586
	2.179192	48.96556
	2.179118	48.96528
	2.178575	48.9644
	2.178301	48.96382
	2.178126	48.96383
	2.177846	48.96335
	2.177745	48.96307
	2.178152	48.96082
	2.178247	48.95966
	2.178059	48.95897
	2.177899	48.95862
	2.17691	48.9571
	2.175415	48.95526
	2.174609	48.95448
	2.174001	48.95393
	2.175975	48.95429
	2.176593	48.95404
	2.17687	48.95339
	2.177911	48.95453
	2.178795	48.95417
	2.178888	48.95426
	2.180249	48.9539
	2.181702	48.95359
	2.183501	48.95321
	2.18356	48.95324
	2.183876	48.95318
	2.183993	48.95332
	2.190175	48.95177
	2.189685	48.95043
	2.190945	48.95034
	2.192578	48.95053
	2.192935	48.95053
	2.193655	48.95052
	2.194148	48.95041
	2.197221	48.94999
	2.198093	48.94988
	2.199005	48.94977
	2.200362	48.9497
	2.200609	48.95033
	2.201664	48.95024
	2.204358	48.94999
	2.205441	48.94989
	2.205884	48.94985
	2.206241	48.94617
	2.206096	48.94606
	2.206014	48.94541
	2.205948	48.94527
	2.205925	48.94465
	2.205662	48.94329
	2.205338	48.94218
	2.20525	48.9414
	2.205733	48.94136
	2.206101	48.94069
	2.205742	48.9403
	2.205229	48.94009
	2.204809	48.94007
	2.204686	48.94007
	2.202977	48.93809
	2.202999	48.93776
	2.202382	48.93773
	2.202717	48.93758
	2.20299	48.93741
	2.202832	48.93716
	2.204028	48.93521
	2.20162	48.93373
	2.201475	48.93376
	2.200886	48.93401
	2.20083	48.93404
	2.200414	48.93417
	2.200388	48.93418
	2.199797	48.93437
	2.20009	48.93387
	2.201252	48.93211
	2.201909	48.93134
	2.201752	48.93129
	2.202506	48.93032
	2.202197	48.93022
	2.202794	48.92931
	2.202471	48.92921
	2.203685	48.92757
	2.203104	48.92739
	2.20304	48.92736
	2.204529	48.92525
	2.203965	48.92508
	2.204317	48.9245
	2.204074	48.92454
	2.20447	48.92392
	2.204271	48.92382
	2.204256	48.92382
	2.204015	48.9237
	2.203894	48.92366
	2.203133	48.92338
	2.203114	48.92338
	2.202931	48.92331
	2.202403	48.92311
	2.20169	48.92285
	2.201442	48.92274
	2.201396	48.92272
	2.201283	48.92265
	2.20124	48.92263
	2.201218	48.92261
	2.200498	48.92215
	2.20023	48.92198
	2.198522	48.92091
	2.19816	48.9207
	2.197975	48.91998
	2.199881	48.92084
	2.200408	48.92064
	2.200613	48.92055
	2.200725	48.9205
	2.200943	48.92037
	2.201313	48.92011
	2.201451	48.92002
	2.201528	48.91996
	2.202015	48.91959
	2.202241	48.91939
	2.202304	48.91933
	2.202782	48.91884
	2.202897	48.91871
	2.203015	48.91857
	2.203405	48.91814
	2.203445	48.9181
	2.20423	48.91719
	2.205126	48.91615
	2.205128	48.91615
	2.205395	48.91584
	2.205188	48.91302
	2.202367	48.91323
	2.202101	48.91354
	2.201206	48.91457
	2.200549	48.91533
	2.199918	48.91509
	2.198765	48.91251
	2.198988	48.91241
	2.198178	48.91203
	2.198203	48.91199
	2.199074	48.9107
	2.199086	48.91068
	2.199141	48.9106
	2.199421	48.91018
	2.199709	48.90976
	2.200138	48.90916
	2.200438	48.90873
	2.198577	48.90803
	2.197135	48.9075
	2.195959	48.90688
	2.194886	48.90622
	2.193933	48.90549
	2.193367	48.90523
	2.189985	48.90419
	2.186869	48.90344
	2.183067	48.90272
	2.181634	48.90228
	2.177548	48.90091
	2.176157	48.90025
	2.174419	48.89909
	2.170636	48.89683
	2.169302	48.89583
	2.168354	48.89508
	2.167946	48.89471
	2.167654	48.8944
	2.167589	48.8943
	2.167527	48.89419
	2.167453	48.89404
	2.167361	48.89383
	2.167283	48.89363
	2.167197	48.89336
	2.167085	48.89301
	2.166848	48.89254
	2.166792	48.89242
	2.166726	48.89229
	2.166679	48.8922
	2.16662	48.89211
	2.166555	48.89201
	2.166449	48.89187
	2.166359	48.89174
	2.166212	48.89156
	2.166044	48.89137
	2.165845	48.89117
	2.165721	48.89105
	2.165428	48.89078
	2.16496	48.8904
	2.164816	48.89028
	2.164715	48.8902
	2.164646	48.89014
	2.164434	48.8899
	2.164076	48.88952
	2.164013	48.88945
	2.163969	48.88939
	2.163862	48.88925
	2.163783	48.88915
	2.163653	48.88898
	2.163476	48.88872
	2.163387	48.88858
	2.163259	48.8883
	2.163109	48.8879
	2.162997	48.88748
	2.162979	48.88729
	2.162974	48.88716
	2.162976	48.88702
	2.162996	48.88683
	2.163084	48.88648
	2.163349	48.88571
	2.163376	48.8856
	2.163598	48.88474
	2.163628	48.88432
	2.163636	48.88416
	2.163638	48.88406
	2.163635	48.88393
	2.163618	48.88381
	2.163604	48.88374
	2.163584	48.88364
	2.163553	48.88352
	2.163525	48.88344
	2.163459	48.88328
	2.163385	48.88312
	2.163297	48.88296
	2.16322	48.88283
	2.16315	48.88274
	2.162873	48.88245
	2.162628	48.88225
	2.162489	48.88214
	2.162249	48.882
	2.162028	48.88188
	2.161784	48.88177
	2.161507	48.88166
	2.161401	48.88162
	2.161158	48.88154
	2.160951	48.88146
	2.160505	48.88132
	2.15997	48.88117
	2.158561	48.88072
	2.158303	48.88057
	2.15816	48.88048
	2.158021	48.88037
	2.157843	48.88018
	2.15774	48.88006
	2.157401	48.87959
	2.157113	48.87918
	2.156888	48.87887
	2.156599	48.87847
	2.15624	48.87801
	2.155902	48.87762
	2.155539	48.87707
	2.155143	48.87643
	2.154983	48.8762
	2.154739	48.87584
	2.154528	48.87556
	2.153718	48.87448
	2.152749	48.87313
	2.152486	48.87282
	2.152179	48.87248
	2.151874	48.87217
	2.150339	48.8708
	2.149946	48.87048
	2.149706	48.87029
	2.14931	48.87001
	2.147479	48.87074
	2.146436	48.86811
	2.14646	48.86805
	2.146622	48.86768
	2.149252	48.86664
	2.149932	48.86835
	2.152068	48.86823
	2.152128	48.86823
	2.15217	48.86823
	2.152213	48.86824
	2.152265	48.86825
	2.153072	48.86847
	2.154138	48.86877
	2.154317	48.86882
	2.154286	48.86878
	2.154253	48.86875
	2.154066	48.86858
	2.154016	48.86854
	2.153744	48.86828
	2.153422	48.86799
	2.153171	48.86772
	2.153006	48.8675
	2.152866	48.86729
	2.152749	48.86709
	2.152653	48.8669
	2.152568	48.86671
	2.152524	48.86661
	2.152461	48.86644
	2.152443	48.8664
	2.152348	48.86606
	2.152328	48.86596
	2.152292	48.8658
	2.152209	48.86568
	2.151988	48.86543
	2.151983	48.86542
	2.151738	48.86514
	2.151919	48.86267
	2.153986	48.86264
	2.153954	48.85982
	2.153843	48.85971
	2.153266	48.85931
	2.152037	48.85876
	2.151979	48.85873
	2.151302	48.85867
	2.151014	48.85816
	2.150694	48.8582
	2.150322	48.85803
	2.150397	48.85765
	2.150139	48.857
	2.151241	48.85653
	2.150659	48.85623
	2.152453	48.85477
	2.148423	48.85036
	2.148233	48.85012
	2.146431	48.8474
	2.146412	48.84737
	2.143243	48.8424
	2.143086	48.8421
	2.142458	48.84061
	2.142392	48.84043
	2.141874	48.83878
	2.141938	48.83741
	2.142321	48.8365
	2.142456	48.83623
	2.146319	48.82986
	2.146586	48.82916
	2.148593	48.82827
	2.148951	48.82706
	2.149434	48.82596
	2.15145	48.82138
	2.15153	48.8212
	2.151459	48.82093
	2.152129	48.82047
	2.15218	48.82042
	2.152702	48.81907
	2.152702	48.819
	2.152537	48.8182
	2.152518	48.81816
	2.152512	48.81814
	2.15136	48.81737
	2.151409	48.81725
	2.151448	48.81717
	2.151479	48.8171
	2.151539	48.81704
	2.151582	48.817
	2.151636	48.81697
	2.151725	48.81692
	2.151992	48.81676
	2.153184	48.81612
	2.153335	48.81609
	2.153459	48.81607
	2.153833	48.81611
	2.153991	48.81612
	2.154148	48.81612
	2.154297	48.8161
	2.154395	48.81607
	2.15462	48.81598
	2.154826	48.81588
	2.155567	48.81547
	2.155451	48.8154
	2.155432	48.81531
	2.155405	48.81516
	2.155393	48.81508
	2.155709	48.81504
	2.156402	48.81285
	2.15644	48.81283
	2.156443	48.81283
	2.156513	48.8128
	2.159191	48.81371
	2.159156	48.81381
	2.159433	48.81369
	2.160177	48.81322
	2.160811	48.81296
	2.161414	48.81273
	2.161456	48.81272
	2.161627	48.81265
	2.161888	48.81259
	2.162226	48.81251
	2.162337	48.81249
	2.162394	48.81248
	2.162617	48.81245
	2.162849	48.81242
	2.166539	48.8123
	2.166747	48.81253
	2.167414	48.81285
	2.168305	48.81419
	2.169129	48.81567
	2.169401	48.81594
	2.172133	48.81546
	2.173626	48.81521
	2.174808	48.81512
	2.176725	48.81403
	2.17633	48.81324
	2.176005	48.8129
	2.17587	48.81266
	2.175872	48.812
	2.175931	48.8119
	2.176035	48.81183
	2.176461	48.81174
	2.176589	48.81164
	2.176449	48.81102
	2.176479	48.81093
	2.176812	48.81064
	2.17706	48.81046
	2.177089	48.80814
	2.177273	48.80796
	2.177469	48.80779
	2.177736	48.80759
	2.178082	48.80732
	2.178586	48.80704
	2.178956	48.80674
	2.179147	48.80657
	2.18153	48.80673
	2.181584	48.80667
	2.182063	48.80625
	2.181923	48.8062
	2.183057	48.80528
	2.180348	48.8048
	2.181983	48.80062
	2.185413	48.80107
	2.185684	48.80107
	2.186972	48.80072
	2.186335	48.80017
	2.186861	48.79929
	2.187474	48.79931
	2.187543	48.79931
	2.187793	48.79931
	2.188172	48.79932
	2.188193	48.79932
	2.188293	48.79932
	2.188841	48.79933
	2.190183	48.79936
	2.192272	48.79942
	2.192283	48.79942
	2.192719	48.79943
	2.193817	48.79945
	2.193827	48.79945
	2.194659	48.79947
	2.195105	48.79948
	2.195707	48.7995
	2.19636	48.79952
	2.196367	48.79932
	2.197892	48.79835
	2.198418	48.79865
	2.198559	48.79848
	2.202657	48.7984
	2.203217	48.7979
	2.203692	48.7976
	2.203773	48.79754
	2.204322	48.79729
	2.204684	48.79666
	2.204706	48.79645
	2.20439	48.79586
	2.204999	48.79552
	2.205327	48.79524
	2.205974	48.79495
	2.20696	48.79491
	2.207287	48.79482
	2.209905	48.79385
	2.211562	48.79121
	2.210046	48.78941
	2.211599	48.7884
	2.211465	48.78811
	2.211478	48.78811
	2.219221	48.78535
	2.219835	48.78545
	2.22138	48.7859
	2.223301	48.78592
	2.224446	48.78454
	2.225025	48.78357
	2.226613	48.78158
	2.224738	48.78082
	2.223581	48.78062
	2.223679	48.78041
	2.224008	48.78013
	2.224013	48.77974
	2.224243	48.7792
	2.224247	48.77898
	2.224161	48.77874
	2.224017	48.77844
	2.223985	48.7782
	2.224003	48.77799
	2.22409	48.77779
	2.224554	48.77745
	2.224642	48.77729
	2.22492	48.77669
	2.225002	48.77664
	2.225806	48.77726
	2.225893	48.77728
	2.226979	48.77732
	2.227075	48.77729
	2.22834	48.77632
	2.228375	48.77626
	2.228352	48.77583
	2.22853	48.77572
	2.228465	48.77561
	2.229191	48.77436
	2.229443	48.77392
	2.227637	48.77229
	2.228028	48.77163
	2.228373	48.77117
	2.229217	48.77049
	2.226116	48.77019
	2.224291	48.77019
	2.223781	48.7708
	2.222565	48.77103
	2.220823	48.77091
	2.218151	48.77136
	2.217274	48.77145
	2.215787	48.77152
	2.215696	48.77148
	2.212253	48.77174
	2.209912	48.76917
	2.206216	48.76996
	2.205246	48.76966
	2.204022	48.77066
	2.203077	48.77125
	2.200644	48.7721
	2.201106	48.77573
	2.198428	48.77564
	2.196783	48.77552
	2.194676	48.77551
	2.192035	48.77517
	2.190436	48.77522
	2.189986	48.77472
	2.189493	48.77431
	2.189065	48.77405
	2.188731	48.77387
	2.189047	48.77381
	2.190174	48.77355
	2.190584	48.7734
	2.191229	48.77309
	2.192129	48.77041
	2.190876	48.76999
	2.191632	48.76834
	2.191536	48.76648
	2.19289	48.76461
	2.191624	48.76387
	2.191972	48.76372
	2.192983	48.76354
	2.191991	48.7622
	2.191825	48.76182
	2.191549	48.76157
	2.191389	48.7614
	2.191243	48.76145
	2.191102	48.76112
	2.190661	48.76083
	2.19054	48.76072
	2.190213	48.76032
	2.190154	48.76023
	2.189866	48.75945
	2.189857	48.75938
	2.189873	48.75922
	2.192491	48.75904
	2.192357	48.7571
	2.192624	48.75665
	2.19277	48.75633
	2.192913	48.75573
	2.192923	48.75563
	2.192905	48.75514
	2.192887	48.75503
	2.192401	48.75401
	2.192079	48.75369
	2.191781	48.75345
	2.191599	48.75333
	2.190802	48.75294
	2.190599	48.75325
	2.189331	48.75222
	2.187945	48.75392
	2.1862	48.75395
	2.185418	48.75465
	2.183073	48.7541
	2.182955	48.75417
	2.18256	48.75449
	2.18221	48.75494
	2.181948	48.75564
	2.181938	48.7557
	2.182814	48.75694
	2.18075	48.75881
	2.177032	48.75792
	2.177005	48.75794
	2.174436	48.75729
	2.174322	48.75738
	2.173266	48.75785
	2.172376	48.75676
	2.168038	48.75667
	2.167191	48.75617
	2.166851	48.7559
	2.166901	48.75588
	2.166774	48.75576
	2.166726	48.75578
	2.165525	48.75459
	2.162336	48.75117
	2.161194	48.75014
	2.156341	48.75175
	2.156861	48.75234
	2.153517	48.75324
	2.153288	48.75382
	2.152493	48.75446
	2.151697	48.75469
	2.151191	48.75406
	2.150962	48.75398
	2.150853	48.75378
	2.15065	48.7537
	2.150501	48.75339
	2.150369	48.75332
	2.150358	48.75315
	2.15026	48.75299
	2.148144	48.75156
	2.146755	48.75092
	2.146445	48.75112
	2.144827	48.75017
	2.144233	48.7496
	2.142992	48.749
	2.142182	48.74826
	2.141608	48.74783
	2.141174	48.74705
	2.141129	48.74676
	2.141526	48.74644
	2.141535	48.74589
	2.141203	48.74607
	2.139001	48.74601
	2.138079	48.74633
	2.137854	48.7461
	2.137161	48.74633
	2.136851	48.74598
	2.136775	48.74604
	2.136592	48.74558
	2.13879	48.74326
	2.138769	48.74323
	2.139005	48.74307
	2.140002	48.74212
	2.13913	48.7418
	2.138411	48.74083
	2.137945	48.7408
	2.137591	48.74033
	2.136128	48.73888
	2.135085	48.73729
	2.13454	48.73738
	2.127178	48.73757
	2.126093	48.73768
	2.126021	48.73757
	2.124607	48.73848
	2.124536	48.73829
	2.124264	48.73839
	2.122687	48.73888
	2.121478	48.74117
	2.121423	48.74105
	2.12135	48.74096
	2.12082	48.74052
	2.120721	48.74047
	2.12022	48.74026
	2.120079	48.74023
	2.119547	48.74017
	2.119373	48.74017
	2.118806	48.74026
	2.118654	48.74031
	2.118083	48.7406
	2.117985	48.74067
	2.117519	48.74115
	2.117475	48.74121
	2.11739	48.7414
	2.11664	48.7412
	2.116196	48.74091
	2.116227	48.7396
	2.113913	48.73968
	2.113487	48.73941
	2.112909	48.73863
	2.11204	48.7385
	2.111461	48.73838
	2.111211	48.73831
	2.111063	48.73826
	2.110801	48.73814
	2.110521	48.73794
	2.110351	48.73777
	2.107654	48.73765
	2.107496	48.73885
	2.10489	48.73811
	2.103347	48.73759
	2.103151	48.73768
	2.102868	48.73757
	2.10248	48.7377
	2.102331	48.73765
	2.10229	48.73749
	2.098472	48.73526
	2.098053	48.73483
	2.098026	48.7342
	2.09842	48.73397
	2.102487	48.73269
	2.103332	48.7329
	2.103561	48.73287
	2.10279	48.73209
	2.102136	48.73122
	2.102149	48.73101
	2.102288	48.73077
	2.102464	48.7306
	2.10266	48.73051
	2.103769	48.73019
	2.104116	48.73004
	2.104822	48.72959
	2.106887	48.72879
	2.10756	48.72824
	2.1085	48.72769
	2.10868	48.72754
	2.108971	48.72674
	2.109516	48.72599
	2.109542	48.72577
	2.109638	48.72565
	2.110235	48.72526
	2.110219	48.72521
	2.110382	48.72508
	2.110688	48.72453
	2.111249	48.72407
	2.111723	48.72324
	2.111944	48.7231
	2.112349	48.72296
	2.112495	48.72283
	2.11197	48.72284
	2.111879	48.72278
	2.111763	48.72256
	2.110044	48.72149
	2.109953	48.72135
	2.108379	48.72052
	2.108258	48.72058
	2.10711	48.72015
	2.107169	48.7201
	2.106148	48.71936
	2.106107	48.71929
	2.106229	48.71889
	2.106578	48.71878
	2.10689	48.71844
	2.107606	48.71797
	2.107655	48.71774
	2.107592	48.7177
	2.109833	48.71583
	2.109885	48.71533
	2.110527	48.71481
	2.109321	48.71345
	2.109352	48.71342
	2.109353	48.71338
	2.109335	48.71336
	2.1093	48.71335
	2.109235	48.71335
	2.10239	48.70547
	2.102384	48.70537
	2.102145	48.70506
	2.101888	48.70452
	2.101329	48.70372
	2.101224	48.70374
	2.10072	48.7028
	2.099812	48.70244
	2.099198	48.70249
	2.098703	48.7026
	2.096839	48.70284
	2.096593	48.70188
	2.09641	48.70161
	2.095869	48.70026
	2.098211	48.69972
	2.097361	48.69818
	2.096804	48.69749
	2.097442	48.69425
	2.096525	48.69441
	2.09432	48.69477
	2.094093	48.6965
	2.091126	48.697
	2.090742	48.69881
	2.088932	48.69807
	2.088468	48.69764
	2.08822	48.69686
	2.086801	48.69623
	2.08679	48.69611
	2.086614	48.696
	2.086493	48.69579
	2.086364	48.69567
	2.086115	48.69516
	2.085989	48.69475
	2.085921	48.69424
	2.087058	48.6939
	2.087609	48.69384
	2.087233	48.69289
	2.087632	48.69281
	2.088112	48.69279
	2.084134	48.68885
	2.08167	48.68533
	2.080417	48.68554
	2.080046	48.6846
	2.07939	48.68504
	2.078285	48.68569
	2.077543	48.68634
	2.077111	48.68727
	2.076976	48.68735
	2.07674	48.68745
	2.07488	48.68774
	2.074931	48.68784
	2.074644	48.6879
	2.074554	48.68778
	2.07387	48.68779
	2.072887	48.68801
	2.069743	48.68971
	2.069619	48.68977
	2.068719	48.69005
	2.067369	48.68872
	2.065977	48.68904
	2.065103	48.68926
	2.0643	48.68927
	2.064319	48.68906
	2.064389	48.68887
	2.064655	48.68846
	2.065729	48.68783
	2.065958	48.68763
	2.066305	48.68729
	2.066652	48.68667
	2.064797	48.68625
	2.06424	48.68666
	2.064056	48.68675
	2.063907	48.68665
	2.06375	48.68671
	2.063377	48.68691
	2.062997	48.68707
	2.062659	48.68717
	2.06238	48.68723
	2.062167	48.68729
	2.062062	48.6874
	2.061735	48.68763
	2.061657	48.68773
	2.061618	48.68769
	2.061511	48.68722
	2.061436	48.68705
	2.061352	48.68693
	2.061238	48.68684
	2.06111	48.68677
	2.060611	48.68666
	2.059373	48.68652
	2.058177	48.6864
	2.058214	48.68645
	2.055218	48.68629
	2.055394	48.6866
	2.054939	48.68668
	2.054618	48.6867
	2.054247	48.68679
	2.053842	48.68685
	2.053704	48.68688
	2.053559	48.68689
	2.053262	48.68694
	2.05297	48.68715
	2.052549	48.68689
	2.050593	48.68741
	2.049282	48.68755
	2.047707	48.68748
	2.047748	48.68692
	2.049789	48.6836
	2.050189	48.68292
	2.049909	48.68275
	2.050451	48.68077
	2.047723	48.68002
	2.047476	48.68017
	2.046746	48.68088
	2.046372	48.68152
	2.04416	48.68512
	2.043033	48.68332
	2.042349	48.68333
	2.042431	48.68241
	2.042837	48.68235
	2.043184	48.68227
	2.04336	48.68215
	2.043768	48.68181
	2.042618	48.68005
	2.041973	48.6801
	2.037652	48.6802
	2.037465	48.6796
	2.033688	48.67995
	2.033943	48.67946
	2.033938	48.67912
	2.03373	48.6771
	2.033649	48.67649
	2.033534	48.67531
	2.033472	48.67396
	2.033364	48.67333
	2.033125	48.67284
	2.032706	48.6721
	2.032535	48.67162
	2.032293	48.6704
	2.032067	48.66967
	2.031217	48.66787
	2.029662	48.66533
	2.029261	48.66473
	2.029025	48.66392
	2.028875	48.66374
	2.0288	48.66324
	2.028777	48.66284
	2.028809	48.66254
	2.0288	48.66231
	2.028663	48.66165
	2.028669	48.66111
	2.028409	48.66109
	2.027867	48.66094
	2.027203	48.6605
	2.027145	48.66044
	2.026664	48.65966
	2.026629	48.65956
	2.026559	48.65929
	2.026337	48.65812
	2.026259	48.65753
	2.025578	48.65765
	2.024643	48.65787
	2.024242	48.65792
	2.021844	48.6589
	2.020862	48.65769
	2.016245	48.65927
	2.014815	48.65956
	2.013781	48.65974
	2.012422	48.65992
	2.011347	48.66004
	2.011051	48.65964
	2.011629	48.65941
	2.011314	48.6589
	2.011406	48.65882
	2.011565	48.65848
	2.011633	48.6582
	2.011555	48.65792
	2.011308	48.65746
	2.011123	48.65702
	2.011074	48.65669
	2.011157	48.65637
	2.011258	48.65546
	2.011291	48.65482
	2.011432	48.65432
	2.011554	48.65371
	2.011913	48.65221
	2.011904	48.65173
	2.011836	48.65134
	2.011668	48.65115
	2.010883	48.64989
	2.010024	48.64846
	2.011994	48.64796
	2.013356	48.64784
	2.014555	48.64763
	2.015108	48.64747
	2.01552	48.64732
	2.01595	48.6471
	2.016174	48.64696
	2.016481	48.64668
	2.016677	48.64635
	2.016889	48.64617
	2.017567	48.64579
	2.018033	48.64548
	2.019127	48.64511
	2.017983	48.64348
	2.017609	48.64337
	2.017165	48.64321
	2.016322	48.64302
	2.015809	48.64293
	2.015281	48.64286
	2.014263	48.64278
	2.012405	48.64276
	2.011771	48.64273
	2.011256	48.64269
	2.010551	48.64259
	2.010349	48.64255
	2.009791	48.64241
	2.009717	48.64238
	2.009299	48.64226
	2.009032	48.64221
	2.008004	48.64193
	2.007563	48.64184
	2.007071	48.64179
	2.006397	48.64175
	2.005632	48.64173
	2.003676	48.63969
	2.00572	48.63773
	2.006587	48.63775
	2.007348	48.6378
	2.008099	48.63788
	2.008295	48.63791
	2.008924	48.63804
	2.009504	48.63818
	2.009913	48.63831
	2.010346	48.6384
	2.010813	48.63854
	2.011234	48.63864
	2.011649	48.63871
	2.01254	48.63876
	2.013739	48.63877
	2.014479	48.63879
	2.015655	48.63888
	2.016497	48.63898
	2.017763	48.63924
	2.018235	48.63936
	2.0208	48.64019
	2.020905	48.64022
	2.021126	48.64026
	2.021726	48.64031
	2.023082	48.64033
	2.023883	48.64033
	2.025003	48.64038
	2.025537	48.64037
	2.027465	48.6404
	2.028102	48.64045
	2.028593	48.64052
	2.029007	48.64063
	2.029573	48.64084
	2.030071	48.641
	2.030925	48.64133
	2.031553	48.64154
	2.031908	48.64164
	2.032258	48.64172
	2.032703	48.64184
	2.033172	48.64199
	2.033174	48.64198
	2.033587	48.6419
	2.034248	48.64192
	2.034294	48.64194
	2.034305	48.64211
	2.034329	48.64213
	2.034414	48.64212
	2.034836	48.64202
	2.036132	48.64201
	2.036247	48.642
	2.036462	48.64191
	2.036967	48.64185
	2.037097	48.64178
	2.038054	48.64101
	2.038183	48.64098
	2.037893	48.64061
	2.037774	48.64062
	2.036141	48.63899
	2.035108	48.6374
	2.03497	48.63613
	2.035028	48.63587
	2.035121	48.63563
	2.035636	48.63485
	2.034803	48.6336
	2.035054	48.63239
	2.034793	48.63252
	2.034096	48.63212
	2.034743	48.63179
	2.034603	48.63171
	2.035282	48.6313
	2.03538	48.63083
	2.03602	48.63096
	2.036101	48.63093
	2.036513	48.63085
	2.036428	48.63105
	2.03732	48.63123
	2.038096	48.631
	2.040362	48.63096
	2.04044	48.62868
	2.040562	48.62856
	2.040487	48.62786
	2.040502	48.62775
	2.04039	48.62741
	2.040321	48.62729
	2.040809	48.62724
	2.040881	48.62701
	2.042431	48.62629
	2.041514	48.6258
	2.041753	48.62563
	2.041978	48.62557
	2.042558	48.6253
	2.04293	48.62546
	2.043287	48.62557
	2.0437	48.62528
	2.044194	48.62502
	2.045993	48.62483
	2.046002	48.62454
	2.046069	48.62452
	2.046021	48.62443
	2.046007	48.62427
	2.046073	48.62418
	2.046027	48.62414
	2.046023	48.62406
	2.046075	48.62404
	2.046071	48.62397
	2.046128	48.62389
	2.0461	48.62385
	2.046165	48.62382
	2.046254	48.6237
	2.046203	48.62361
	2.046289	48.62355
	2.046288	48.62348
	2.046244	48.62345
	2.046219	48.62341
	2.046249	48.62338
	2.046214	48.62334
	2.046161	48.62311
	2.046035	48.6231
	2.04604	48.62304
	2.04596	48.62295
	2.045978	48.62291
	2.045914	48.62275
	2.045981	48.62274
	2.045936	48.62268
	2.045948	48.62264
	2.046099	48.62264
	2.045964	48.62258
	2.045975	48.62245
	2.045845	48.62237
	2.045887	48.62232
	2.046153	48.6223
	2.046216	48.62219
	2.04631	48.62212
	2.046344	48.62202
	2.04643	48.62194
	2.046438	48.62155
	2.0465	48.62148
	2.046591	48.62142
	2.046622	48.62122
	2.046845	48.62123
	2.046838	48.62133
	2.049051	48.62141
	2.049044	48.62132
	2.050367	48.62132
	2.050347	48.62121
	2.053642	48.62081
	2.05438	48.62112
	2.054114	48.62061
	2.054062	48.62021
	2.054053	48.61949
	2.054313	48.61947
	2.054331	48.61792
	2.060391	48.6176
	2.060588	48.61804
	2.060945	48.61862
	2.061459	48.61861
	2.061409	48.6184
	2.061426	48.6182
	2.061529	48.61801
	2.061515	48.61781
	2.061412	48.61745
	2.061201	48.61709
	2.061132	48.61641
	2.060904	48.61593
	2.060905	48.61563
	2.06013	48.61504
	2.059242	48.6146
	2.05849	48.61396
	2.05772	48.61354
	2.057011	48.61116
	2.056197	48.61164
	2.05615	48.61178
	2.055756	48.61197
	2.055225	48.61234
	2.054634	48.61261
	2.05419	48.61261
	2.053594	48.61266
	2.053917	48.61155
	2.053924	48.61066
	2.054685	48.60801
	2.054003	48.60786
	2.051671	48.60764
	2.049822	48.60851
	2.048243	48.6079
	2.047083	48.60756
	2.04668	48.60729
	2.038988	48.60578
	2.038203	48.60576
	2.036783	48.60576
	2.035791	48.6057
	2.035074	48.60558
	2.034666	48.60556
	2.033827	48.6056
	2.033313	48.60579
	2.033614	48.60482
	2.033973	48.60424
	2.034323	48.60411
	2.034494	48.60395
	2.034141	48.60302
	2.033632	48.60221
	2.033116	48.60025
	2.033234	48.59995
	2.033191	48.59983
	2.033111	48.59925
	2.032668	48.59809
	2.031551	48.59479
	2.031335	48.59443
	2.031067	48.59409
	2.031388	48.59393
	2.032112	48.59379
	2.032866	48.59369
	2.033516	48.59357
	2.034679	48.59359
	2.035547	48.59368
	2.035585	48.59336
	2.035572	48.59303
	2.035403	48.59253
	2.035468	48.59229
	2.035736	48.5919
	2.035947	48.59148
	2.035931	48.59022
	2.03569	48.58942
	2.03567	48.58911
	2.034688	48.58855
	2.034384	48.58807
	2.033398	48.58796
	2.031449	48.58653
	2.029232	48.58575
	2.030276	48.58461
	2.029161	48.58391
	2.028829	48.58315
	2.022488	48.58003
	2.023501	48.57876
	2.023119	48.57856
	2.022783	48.57875
	2.021676	48.57814
	2.022128	48.57771
	2.021942	48.57736
	2.021839	48.57723
	2.022904	48.57672
	2.023447	48.57633
	2.022048	48.57534
	2.022106	48.57524
	2.01817	48.57035
	2.0179	48.57026
	2.01781	48.57028
	2.017674	48.56999
	2.016246	48.56938
	2.015703	48.56813
	2.017394	48.56775
	2.016955	48.56673
	2.016209	48.56478
	2.016309	48.56443
	2.016309	48.56377
	2.016531	48.56365
	2.01665	48.56273
	2.016542	48.56199
	2.016465	48.56199
	2.016341	48.56118
	2.016543	48.56118
	2.01667	48.56009
	2.016662	48.55999
	2.017072	48.55775
	2.016886	48.55772
	2.016218	48.55745
	2.01613	48.55743
	2.014299	48.55707
	2.013824	48.55703
	2.012496	48.55676
	2.011312	48.55654
	2.01043	48.55642
	2.010273	48.55641
	2.009678	48.55656
	2.00953	48.55657
	2.008727	48.55642
	2.007825	48.55613
	2.007416	48.55607
	2.006712	48.55585
	2.005972	48.55581
	2.005245	48.5556
	2.005139	48.55553
	2.005043	48.55552
	2.004607	48.55537
	2.004528	48.55537
	2.004235	48.55522
	2.003639	48.55559
	2.002853	48.55558
	2.002551	48.55552
	2.002278	48.55554
	2.002075	48.55553
	2.001572	48.55554
	2.001133	48.55553
	2.000793	48.55557
	2.000602	48.55555
	2.000077	48.55544
	1.999983	48.55543
	1.998665	48.55533
	1.998419	48.55532
	1.998132	48.55535
	1.997933	48.55546
	1.9975	48.55587
	1.997129	48.55617
	1.996225	48.55698
	1.995959	48.55716
	1.995722	48.55724
	1.995599	48.55727
	1.995089	48.55728
	1.994203	48.55699
	1.992631	48.55652
	1.991354	48.55627
	1.989813	48.55588
	1.989695	48.55587
	1.989492	48.55592
	1.989325	48.55599
	1.989145	48.55613
	1.988897	48.55635
	1.988686	48.55657
	1.98841	48.55698
	1.988328	48.55701
	1.988187	48.55703
	1.98762	48.55704
	1.987087	48.55709
	1.986494	48.55723
	1.986152	48.55739
	1.985966	48.55752
	1.985426	48.55795
	1.985232	48.55805
	1.98496	48.55815
	1.984698	48.55819
	1.984487	48.5582
	1.984077	48.55819
	1.98377	48.5582
	1.983694	48.55821
	1.983387	48.55829
	1.983223	48.55829
	1.983003	48.55817
	1.982804	48.55811
	1.98268	48.55805
	1.982576	48.55806
	1.98249	48.55787
	1.981513	48.55517
	1.978547	48.5538
	1.97612	48.55523
	1.974265	48.55653
	1.973819	48.55697
	1.973657	48.55727
	1.973529	48.55743
	1.972846	48.55793
	1.97238	48.55847
	1.971871	48.55887
	1.971563	48.55907
	1.970461	48.55924
	1.969911	48.55958
	1.968201	48.56024
	1.964621	48.5607
	1.962221	48.5604
	1.960888	48.56012
	1.959631	48.56003
	1.959297	48.56011
	1.957534	48.55988
	1.956017	48.5598
	1.955237	48.5598
	1.954172	48.55952
	1.953381	48.5595
	1.952656	48.55943
	1.952128	48.56058
	1.949916	48.5614
	1.948896	48.56179
	1.94818	48.56204
	1.947412	48.56236
	1.94609	48.56285
	1.945557	48.56303
	1.945035	48.56318
	1.941209	48.56396
	1.937459	48.56474
	1.935086	48.56321
	1.936339	48.56127
	1.935968	48.56074
	1.936212	48.56014
	1.936322	48.55938
	1.936262	48.55925
	1.936313	48.5588
	1.936594	48.55787
	1.936577	48.5577
	1.936699	48.55731
	1.936654	48.5566
	1.93667	48.55635
	1.936634	48.55572
	1.936665	48.55554
	1.936529	48.55519
	1.936497	48.5543
	1.93638	48.55418
	1.936244	48.55384
	1.935968	48.5534
	1.935892	48.55341
	1.935808	48.55339
	1.935724	48.55334
	1.935716	48.55326
	1.935751	48.5532
	1.935821	48.55316
	1.935468	48.55237
	1.93557	48.55136
	1.935249	48.55101
	1.935087	48.55057
	1.934751	48.54951
	1.934176	48.54846
	1.934178	48.54838
	1.934199	48.54831
	1.934035	48.54782
	1.934247	48.54753
	1.934628	48.54725
	1.934751	48.54718
	1.935004	48.54705
	1.935123	48.54705
	1.935164	48.54703
	1.935556	48.54673
	1.935885	48.54641
	1.936078	48.54626
	1.936209	48.54614
	1.936923	48.54595
	1.93751	48.54578
	1.937802	48.54581
	1.937977	48.54584
	1.938124	48.54582
	1.938198	48.54578
	1.938244	48.54572
	1.938497	48.54547
	1.93882	48.54572
	1.939116	48.54586
	1.939565	48.54588
	1.939638	48.54584
	1.939751	48.5458
	1.939964	48.54557
	1.940114	48.54548
	1.941212	48.54527
	1.941733	48.54479
	1.941506	48.54464
	1.941573	48.54445
	1.941472	48.5442
	1.941252	48.54408
	1.941034	48.54324
	1.94106	48.54317
	1.941366	48.54282
	1.94143	48.54276
	1.941556	48.5427
	1.941893	48.54259
	1.942283	48.54256
	1.943653	48.54234
	1.944111	48.54229
	1.945075	48.54234
	1.946173	48.54226
	1.947083	48.54274
	1.947165	48.54282
	1.947312	48.54322
	1.947454	48.54349
	1.947675	48.54375
	1.947906	48.54397
	1.94807	48.54411
	1.948563	48.54434
	1.948759	48.54441
	1.949083	48.54456
	1.949157	48.54461
	1.949332	48.54477
	1.949741	48.54533
	1.94975	48.54543
	1.949551	48.54582
	1.949534	48.54588
	1.949652	48.54622
	1.949687	48.54621
	1.95052	48.54702
	1.950541	48.5471
	1.950521	48.54722
	1.950631	48.54722
	1.951482	48.54654
	1.951574	48.54644
	1.951411	48.54624
	1.951392	48.54619
	1.951408	48.54603
	1.951316	48.54584
	1.951093	48.54562
	1.950749	48.54519
	1.949962	48.54438
	1.949153	48.54405
	1.948969	48.54394
	1.948821	48.54353
	1.949065	48.54328
	1.949455	48.54282
	1.949491	48.54269
	1.949498	48.54257
	1.949469	48.54237
	1.949327	48.54182
	1.949281	48.5415
	1.949274	48.54109
	1.949317	48.54076
	1.949559	48.54071
	1.9498	48.54064
	1.94996	48.54061
	1.950158	48.54059
	1.950405	48.5406
	1.950908	48.54073
	1.950986	48.54073
	1.951109	48.54068
	1.9514	48.54043
	1.951891	48.54011
	1.952305	48.53995
	1.952473	48.53986
	1.952566	48.53974
	1.952563	48.53968
	1.952537	48.53962
	1.95246	48.53953
	1.952029	48.53919
	1.951803	48.5389
	1.951807	48.53888
	1.952053	48.53873
	1.952859	48.53844
	1.953329	48.53832
	1.953394	48.53832
	1.953699	48.53851
	1.953824	48.53857
	1.953947	48.53859
	1.954104	48.53858
	1.954354	48.53832
	1.954428	48.53778
	1.955366	48.53743
	1.95554	48.53734
	1.956316	48.53728
	1.956538	48.53711
	1.956569	48.53712
	1.957217	48.53656
	1.959212	48.53613
	1.960142	48.53577
	1.960921	48.53518
	1.961765	48.53527
	1.961854	48.53527
	1.962134	48.53525
	1.962498	48.53518
	1.962713	48.53513
	1.963035	48.53503
	1.964009	48.53451
	1.964516	48.53426
	1.965888	48.53381
	1.966542	48.53353
	1.968789	48.53225
	1.969141	48.53206
	1.968786	48.53303
	1.968819	48.53335
	1.968832	48.53369
	1.96923	48.53414
	1.969616	48.53445
	1.969636	48.53457
	1.969614	48.53467
	1.969359	48.53514
	1.9693	48.53516
	1.968617	48.53558
	1.96814	48.53579
	1.967381	48.53619
	1.966874	48.53656
	1.966838	48.5366
	1.966822	48.53671
	1.966906	48.53685
	1.967021	48.53698
	1.967151	48.53708
	1.967454	48.53723
	1.967796	48.53733
	1.968121	48.53741
	1.969139	48.53758
	1.969732	48.53776
	1.970049	48.53787
	1.970389	48.53803
	1.970651	48.53809
	1.971077	48.53815
	1.971294	48.53816
	1.971481	48.53815
	1.971584	48.53813
	1.971778	48.53806
	1.971927	48.53793
	1.972541	48.53779
	1.97303	48.53766
	1.973568	48.53738
	1.974646	48.53664
	1.97617	48.53609
	1.976539	48.53586
	1.976616	48.53562
	1.97664	48.53529
	1.976224	48.53525
	1.975613	48.53517
	1.975813	48.53486
	1.976691	48.53484
	1.976792	48.53495
	1.97732	48.53492
	1.977345	48.53453
	1.977634	48.53381
	1.977644	48.53365
	1.977632	48.53334
	1.977694	48.53312
	1.978268	48.53328
	1.978308	48.53321
	1.977944	48.53191
	1.977872	48.53181
	1.9774	48.53098
	1.977387	48.53096
	1.977338	48.53097
	1.977233	48.53095
	1.976842	48.53075
	1.976867	48.53063
	1.976909	48.53063
	1.976935	48.5304
	1.977087	48.52983
	1.977247	48.52947
	1.97728	48.52928
	1.977275	48.52884
	1.977428	48.52888
	1.977566	48.5289
	1.978109	48.52891
	1.978136	48.52813
	1.978126	48.52804
	1.978273	48.52701
	1.978298	48.52689
	1.978703	48.52603
	1.978548	48.52596
	1.978197	48.52583
	1.977683	48.52556
	1.977423	48.52546
	1.977312	48.52544
	1.976141	48.52531
	1.975047	48.52659
	1.974949	48.5269
	1.974893	48.52694
	1.974846	48.52695
	1.974188	48.52685
	1.972385	48.52652
	1.972025	48.52644
	1.971639	48.52638
	1.970951	48.52631
	1.970305	48.52618
	1.969889	48.52607
	1.969563	48.526
	1.968769	48.52598
	1.968116	48.52593
	1.967603	48.52593
	1.967688	48.52669
	1.968142	48.52674
	1.968379	48.52796
	1.968454	48.52825
	1.96828	48.5283
	1.967192	48.52855
	1.96678	48.5286
	1.966448	48.52861
	1.966067	48.5286
	1.965118	48.52851
	1.964757	48.52851
	1.963157	48.52863
	1.963152	48.52869
	1.963079	48.52857
	1.962746	48.52843
	1.962454	48.52824
	1.962303	48.5281
	1.962087	48.52787
	1.96194	48.52768
	1.96179	48.52742
	1.961702	48.52744
	1.961671	48.52696
	1.961476	48.52683
	1.960601	48.52634
	1.960193	48.52613
	1.959601	48.52587
	1.958575	48.52551
	1.958387	48.52539
	1.957438	48.52497
	1.957253	48.5248
	1.957161	48.52439
	1.957171	48.52407
	1.957203	48.52379
	1.957312	48.52354
	1.957302	48.52343
	1.956704	48.5227
	1.956608	48.52263
	1.956501	48.52257
	1.956053	48.52246
	1.955179	48.52256
	1.954828	48.52263
	1.954586	48.52274
	1.954657	48.52283
	1.954753	48.5229
	1.954743	48.52291
	1.953258	48.52353
	1.952924	48.52333
	1.952825	48.52319
	1.952799	48.52311
	1.953009	48.52296
	1.953216	48.52279
	1.95346	48.52237
	1.953445	48.52228
	1.95327	48.52176
	1.953271	48.52162
	1.953436	48.52146
	1.953395	48.52135
	1.953211	48.52127
	1.95313	48.52122
	1.953224	48.52107
	1.952856	48.52106
	1.952529	48.52055
	1.952074	48.52031
	1.951225	48.51999
	1.950783	48.51998
	1.950463	48.51994
	1.950235	48.51981
	1.950013	48.51972
	1.949543	48.51963
	1.949368	48.51958
	1.949074	48.51957
	1.948466	48.51944
	1.946915	48.51858
	1.946592	48.51832
	1.946117	48.518
	1.945908	48.51792
	1.945794	48.51784
	1.945657	48.51767
	1.945691	48.51725
	1.945653	48.51682
	1.945646	48.51643
	1.945699	48.5163
	1.946414	48.51543
	1.94648	48.51524
	1.946598	48.51516
	1.946857	48.5151
	1.946942	48.51506
	1.946993	48.51497
	1.946992	48.51482
	1.947022	48.5147
	1.94727	48.5146
	1.947281	48.51454
	1.947132	48.5144
	1.947156	48.51434
	1.947347	48.5143
	1.947389	48.51425
	1.947263	48.51411
	1.947257	48.51405
	1.94746	48.51402
	1.947531	48.51398
	1.947557	48.51392
	1.947421	48.51381
	1.947402	48.51366
	1.94732	48.51364
	1.947051	48.51372
	1.946948	48.51372
	1.946872	48.51368
	1.946868	48.5135
	1.946778	48.51345
	1.946682	48.51345
	1.946418	48.51363
	1.946327	48.51365
	1.946076	48.51355
	1.945574	48.51363
	1.945547	48.51349
	1.945376	48.51336
	1.945131	48.51322
	1.944692	48.51307
	1.944296	48.51297
	1.944003	48.51291
	1.944895	48.51239
	1.944575	48.51224
	1.94479	48.51175
	1.945248	48.51122
	1.946062	48.51145
	1.946608	48.51057
	1.945604	48.50987
	1.943379	48.50864
	1.940444	48.50659
	1.939859	48.50572
	1.939419	48.50484
	1.939348	48.50482
	1.938722	48.50388
	1.936905	48.50137
	1.936443	48.50063
	1.934085	48.49594
	1.933428	48.49417
	1.933243	48.49334
	1.933061	48.49232
	1.932915	48.49048
	1.932668	48.4898
	1.93463	48.48916
	1.932731	48.48571
	1.932766	48.48521
	1.933222	48.48365
	1.933312	48.4829
	1.932665	48.48066
	1.930269	48.48116
	1.929834	48.48023
	1.927108	48.48095
	1.926807	48.48039
	1.924902	48.48091
	1.922311	48.47847
	1.921761	48.47803
	1.921233	48.47747
	1.920809	48.47713
	1.917918	48.4754
	1.915044	48.47374
	1.917773	48.47356
	1.917543	48.47274
	1.915946	48.47277
	1.915662	48.47114
	1.915012	48.47127
	1.914578	48.46921
	1.917959	48.46867
	1.916346	48.46485
	1.91557	48.46495
	1.914458	48.46186
	1.915825	48.46167
	1.915976	48.46226
	1.915718	48.46227
	1.916098	48.46316
	1.917738	48.46292
	1.917482	48.46223
	1.918472	48.46219
	1.918023	48.4607
	1.922791	48.46003
	1.922294	48.45865
	1.922071	48.45774
	1.922306	48.45628
	1.922841	48.45495
	1.923016	48.4541
	1.923102	48.45357
	1.923107	48.4534
	1.922955	48.45271
	1.922688	48.45187
	1.922615	48.45159
	1.922542	48.45112
	1.92253	48.45061
	1.92202	48.45066
	1.920981	48.44798
	1.911888	48.44786
	1.911633	48.44542
	1.908842	48.44542
	1.906972	48.44533
	1.906441	48.44565
	1.906613	48.44235
	1.90636	48.43987
	1.904227	48.44002
	1.904245	48.4386
	1.901429	48.43864
	1.901112	48.43928
	1.897963	48.43952
	1.898071	48.43979
	1.896932	48.43996
	1.896699	48.43926
	1.894238	48.43992
	1.89428	48.44019
	1.89222	48.44039
	1.889608	48.43996
	1.888788	48.43977
	1.888306	48.4397
	1.887439	48.43968
	1.886042	48.43984
	1.884854	48.44005
	1.884233	48.44018
	1.881181	48.44076
	1.879757	48.44083
	1.878827	48.44089
	1.878788	48.44071
	1.877021	48.4407
	1.872739	48.44014
	1.872753	48.44
	1.871231	48.4399
	1.871142	48.43991
	1.871124	48.43978
	1.869269	48.4402
	1.869397	48.44115
	1.867352	48.44184
	1.865518	48.44199
	1.864265	48.44207
	1.864325	48.44405
	1.864032	48.44405
	1.864012	48.44458
	1.86104	48.4444
	1.86073	48.44566
	1.857613	48.44555
	1.857468	48.44689
	1.848499	48.44652
	1.84481	48.44615
	1.845657	48.44681
	1.84579	48.44719
	1.846025	48.44763
	1.846011	48.44806
	1.845669	48.44938
	1.844745	48.44942
	1.844361	48.45193
	1.839684	48.45225
	1.839293	48.45629
	1.840048	48.45637
	1.839387	48.45811
	1.837868	48.46053
	1.83657	48.46188
	1.835588	48.46368
	1.835417	48.46366
	1.83658	48.46711
	1.833719	48.4674
	1.832078	48.46741
	1.828781	48.46693
	1.825647	48.46649
	1.822146	48.46592
	1.820222	48.46558
	1.819894	48.46556
	1.815489	48.46577
	1.815119	48.46588
	1.814148	48.46589
	1.811841	48.46617
	1.810061	48.46607
	1.807627	48.46582
	1.804247	48.4659
	1.801281	48.466
	1.801303	48.46607
	1.803229	48.46913
	1.803224	48.46919
	1.801109	48.47163
	1.801125	48.47165
	1.802065	48.47206
	1.802488	48.47222
	1.803419	48.47253
	1.803366	48.47258
	1.801318	48.47382
	1.801326	48.47388
	1.799171	48.47527
	1.799071	48.47532
	1.799036	48.47531
	1.798755	48.47513
	1.79871	48.47514
	1.796826	48.47653
	1.796749	48.47649
	1.796712	48.4765
	1.795202	48.47752
	1.795194	48.47755
	1.79564	48.47787
	1.795656	48.4779
	1.793872	48.47877
	1.79383	48.47876
	1.792531	48.47792
	1.792162	48.47816
	1.794099	48.47941
	1.791235	48.48106
	1.791231	48.48108
	1.791648	48.48141
	1.792046	48.48167
	1.794496	48.48296
	1.794777	48.48313
	1.795019	48.48331
	1.79631	48.48443
	1.794228	48.4854
	1.794229	48.48543
	1.794619	48.48602
	1.794614	48.48603
	1.791316	48.48698
	1.791314	48.487
	1.791956	48.48796
	1.791956	48.48798
	1.789645	48.4889
	1.787019	48.48968
	1.785415	48.49013
	1.785405	48.49017
	1.786455	48.49168
	1.787113	48.49233
	1.787642	48.49273
	1.788116	48.49313
	1.789065	48.49412
	1.789635	48.49513
	1.79047	48.49712
	1.788666	48.49743
	1.78923	48.4991
	1.788967	48.49911
	1.789059	48.50016
	1.78499	48.50029
	1.782931	48.50028
	1.781527	48.50507
	1.781154	48.50499
	1.780462	48.50664
	1.780371	48.50926
	1.778852	48.50905
	1.776643	48.51077
	1.776415	48.51074
	1.776337	48.51107
	1.775816	48.51388
	1.77579	48.51398
	1.775735	48.51399
	1.775767	48.51412
	1.775759	48.51423
	1.775829	48.51453
	1.775875	48.51453
	1.776306	48.51568
	1.777125	48.51652
	1.77729	48.51688
	1.777787	48.51736
	1.778311	48.51772
	1.778359	48.51778
	1.778334	48.5179
	1.778296	48.5179
	1.77815	48.51843
	1.778224	48.51844
	1.778175	48.51866
	1.778076	48.51866
	1.777665	48.52005
	1.777643	48.52006
	1.777012	48.52205
	1.776954	48.52214
	1.776987	48.52232
	1.776398	48.52421
	1.775842	48.52518
	1.775354	48.52728
	1.776366	48.52916
	1.777178	48.5315
	1.777821	48.53296
	1.778568	48.53496
	1.779037	48.5358
	1.781793	48.53953
	1.780185	48.53905
	1.781467	48.54073
	1.782866	48.54284
	1.783546	48.54396
	1.783962	48.54492
	1.783975	48.54552
	1.783854	48.5458
	1.783474	48.54612
	1.783248	48.54638
	1.785085	48.54812
	1.785416	48.54863
	1.785724	48.55036
	1.786535	48.55198
	1.78734	48.5538
	1.786099	48.55356
	1.784939	48.5534
	1.782818	48.55324
	1.777914	48.55264
	1.778414	48.55311
	1.77855	48.55326
	1.778704	48.55353
	1.777351	48.55498
	1.777307	48.55496
	1.776929	48.55561
	1.776302	48.55564
	1.773281	48.55685
	1.771043	48.55752
	1.769976	48.55782
	1.769351	48.55814
	1.768992	48.5583
	1.768497	48.55857
	1.76833	48.55873
	1.768188	48.55902
	1.768153	48.55933
	1.767842	48.55959
	1.767204	48.56028
	1.766654	48.56074
	1.766167	48.5611
	1.765409	48.56191
	1.765053	48.56243
	1.764886	48.56285
	1.764052	48.56351
	1.763279	48.56427
	1.762834	48.56465
	1.762539	48.56506
	1.762524	48.56518
	1.762648	48.56535
	1.763005	48.56576
	1.763177	48.566
	1.763242	48.56615
	1.763243	48.56644
	1.76327	48.56678
	1.763385	48.56719
	1.762033	48.56754
	1.763154	48.56825
	1.761903	48.56893
	1.761721	48.56904
	1.761194	48.56941
	1.760939	48.56962
	1.760544	48.57
	1.760333	48.57024
	1.760035	48.57064
	1.75982	48.57111
	1.759267	48.57142
	1.758894	48.5717
	1.758519	48.57208
	1.757906	48.57278
	1.757383	48.57334
	1.755796	48.5745
	1.75557	48.5747
	1.755149	48.57461
	1.753962	48.5746
	1.753089	48.57461
	1.751462	48.57487
	1.751146	48.57498
	1.750837	48.57506
	1.749179	48.5754
	1.74815	48.57566
	1.745959	48.57609
	1.743488	48.57246
	1.742603	48.57344
	1.736742	48.57234
	1.731883	48.57563
	1.731749	48.57551
	1.731661	48.57539
	1.731459	48.57523
	1.731125	48.57509
	1.730914	48.57503
	1.730618	48.57499
	1.727251	48.57276
	1.727149	48.57261
	1.718129	48.57621
	1.709273	48.57802
	1.709879	48.58054
	1.71001	48.58147
	1.705502	48.58358
	1.70544	48.58363
	1.702701	48.58475
	1.702058	48.585
	1.703825	48.58702
	1.703715	48.58707
	1.703726	48.58711
	1.705335	48.58898
	1.705357	48.58903
	1.705309	48.58911
	1.706591	48.59186
	1.708996	48.59516
	1.709112	48.59526
	1.710548	48.59632
	1.710622	48.59636
	1.710611	48.59614
	1.710636	48.59568
	1.711177	48.59609
	1.711295	48.5962
	1.711822	48.5968
	1.711944	48.59703
	1.712742	48.59738
	1.712817	48.59735
	1.714021	48.59801
	1.714098	48.59807
	1.714009	48.59839
	1.714037	48.59862
	1.714727	48.59915
	1.714711	48.59917
	1.714205	48.59944
	1.713795	48.59972
	1.713675	48.59983
	1.713657	48.59987
	1.713783	48.59983
	1.714398	48.60041
	1.715027	48.60118
	1.715045	48.60122
	1.715063	48.60121
	1.715175	48.60138
	1.716061	48.60253
	1.716291	48.60247
	1.717216	48.6038
	1.718664	48.60579
	1.718048	48.60604
	1.718043	48.60606
	1.718436	48.60664
	1.717971	48.60678
	1.718212	48.6071
	1.718022	48.60729
	1.717863	48.60738
	1.717724	48.60743
	1.717192	48.60757
	1.718509	48.61
	1.716924	48.61023
	1.716744	48.61105
	1.716384	48.61204
	1.716294	48.61208
	1.71571	48.61303
	1.715742	48.61306
	1.71592	48.61313
	1.715903	48.61318
	1.715517	48.61384
	1.715441	48.61384
	1.715364	48.61392
	1.715233	48.61412
	1.715089	48.61418
	1.714911	48.61461
	1.714879	48.61465
	1.714799	48.61466
	1.71475	48.6147
	1.714702	48.6147
	1.713653	48.61449
	1.713434	48.61446
	1.71295	48.61445
	1.712882	48.61443
	1.712685	48.61429
	1.712319	48.61426
	1.712135	48.61418
	1.712004	48.61415
	1.711837	48.61415
	1.711592	48.61408
	1.711518	48.61411
	1.711359	48.61408
	1.711024	48.61396
	1.710912	48.61395
	1.710873	48.61396
	1.710837	48.61406
	1.710806	48.61408
	1.710728	48.61405
	1.710591	48.61393
	1.710517	48.61389
	1.710346	48.61387
	1.710277	48.61393
	1.710252	48.61393
	1.709899	48.61377
	1.709804	48.61376
	1.709599	48.61379
	1.709545	48.61378
	1.709559	48.61365
	1.709513	48.61364
	1.70934	48.61365
	1.709163	48.61364
	1.708817	48.6135
	1.708698	48.61348
	1.708616	48.61344
	1.70849	48.61341
	1.708459	48.61339
	1.7084	48.61327
	1.708356	48.61325
	1.707962	48.61328
	1.707736	48.61335
	1.707661	48.61335
	1.707505	48.61324
	1.707158	48.6132
	1.707021	48.61315
	1.706966	48.61315
	1.70683	48.6132
	1.706747	48.61319
	1.70643	48.61306
	1.706239	48.61303
	1.705558	48.61304
	1.705365	48.61302
	1.704846	48.61285
	1.704728	48.61277
	1.704431	48.61248
	1.70429	48.6123
	1.704161	48.61207
	1.704101	48.61203
	1.703778	48.61197
	1.703586	48.61181
	1.703259	48.61177
	1.703063	48.61177
	1.702869	48.61179
	1.702681	48.61183
	1.702339	48.61196
	1.702125	48.61209
	1.701617	48.61244
	1.701429	48.61255
	1.70124	48.61263
	1.700774	48.61242
	1.700695	48.6124
	1.700452	48.61238
	1.70032	48.61235
	1.699621	48.61226
	1.699433	48.61227
	1.699118	48.61222
	1.698971	48.61221
	1.69811	48.61251
	1.696959	48.61288
	1.69629	48.61313
	1.695868	48.61322
	1.695736	48.61328
	1.695733	48.61331
	1.695824	48.61346
	1.695804	48.61349
	1.695461	48.61359
	1.695285	48.61369
	1.695163	48.61372
	1.694967	48.61374
	1.694494	48.61374
	1.69444	48.61376
	1.694291	48.6139
	1.694022	48.61403
	1.693315	48.61429
	1.692553	48.61463
	1.692386	48.61467
	1.692027	48.6147
	1.691572	48.61468
	1.69109	48.61429
	1.69093	48.61412
	1.690643	48.61352
	1.690537	48.61339
	1.690487	48.61326
	1.690262	48.61289
	1.690223	48.61271
	1.690172	48.61265
	1.689932	48.61249
	1.689768	48.61232
	1.68967	48.61218
	1.689666	48.61207
	1.689582	48.61195
	1.689619	48.61186
	1.689618	48.61181
	1.689553	48.6117
	1.689409	48.61157
	1.689319	48.61152
	1.689175	48.61149
	1.689073	48.61155
	1.688598	48.61166
	1.68831	48.61167
	1.688127	48.61153
	1.688079	48.61152
	1.687905	48.61155
	1.687862	48.61153
	1.687842	48.61141
	1.687779	48.61136
	1.687647	48.61132
	1.687412	48.61136
	1.687303	48.61134
	1.687271	48.61131
	1.687285	48.61104
	1.68446	48.6109
	1.683577	48.61167
	1.683518	48.61372
	1.683343	48.61396
	1.68351	48.61399
	1.683507	48.6141
	1.683066	48.61464
	1.682334	48.61561
	1.682344	48.61563
	1.682422	48.61566
	1.682838	48.61575
	1.683112	48.61584
	1.683123	48.61583
	1.683128	48.61585
	1.68357	48.61604
	1.683866	48.61613
	1.684086	48.61616
	1.684774	48.61616
	1.685274	48.6161
	1.685655	48.61611
	1.685943	48.61615
	1.687266	48.61644
	1.689249	48.61677
	1.690018	48.61685
	1.690482	48.61693
	1.69061	48.61697
	1.690919	48.61713
	1.690917	48.61715
	1.690652	48.61737
	1.68903	48.61813
	1.687028	48.619
	1.686569	48.61916
	1.686528	48.61944
	1.686543	48.61947
	1.686524	48.61949
	1.686516	48.61991
	1.686496	48.61996
	1.685775	48.62032
	1.68564	48.6202
	1.68518	48.61967
	1.684878	48.61984
	1.684514	48.61973
	1.684153	48.61958
	1.684063	48.61953
	1.683364	48.61933
	1.682971	48.61928
	1.682923	48.6193
	1.682439	48.61989
	1.681564	48.61949
	1.681122	48.61924
	1.681107	48.61921
	1.681403	48.61889
	1.681399	48.61885
	1.680931	48.61856
	1.680778	48.61794
	1.680709	48.61783
	1.680274	48.61733
	1.679981	48.61708
	1.679729	48.6169
	1.679204	48.61662
	1.678474	48.61637
	1.677791	48.61586
	1.677588	48.61554
	1.677167	48.61473
	1.676944	48.6144
	1.676555	48.61394
	1.675985	48.61335
	1.673158	48.61326
	1.673147	48.61362
	1.673053	48.61362
	1.673027	48.61364
	1.673025	48.61369
	1.672977	48.61372
	1.672839	48.6137
	1.67279	48.61371
	1.67274	48.6139
	1.672746	48.61397
	1.672865	48.61399
	1.672876	48.61402
	1.67282	48.61412
	1.672896	48.61426
	1.672971	48.6143
	1.673034	48.61441
	1.673094	48.61447
	1.673063	48.6145
	1.672897	48.61451
	1.672801	48.61458
	1.672733	48.61468
	1.672776	48.61479
	1.672749	48.61481
	1.672671	48.61484
	1.672488	48.61487
	1.672471	48.61489
	1.672533	48.61501
	1.672545	48.61509
	1.672602	48.61518
	1.672804	48.61534
	1.67281	48.61539
	1.672682	48.61574
	1.671997	48.61598
	1.671955	48.61598
	1.67183	48.61587
	1.671796	48.61587
	1.670873	48.61624
	1.669687	48.61668
	1.668591	48.61684
	1.667434	48.61707
	1.667333	48.6169
	1.667152	48.61626
	1.667082	48.61593
	1.667083	48.61586
	1.667123	48.61575
	1.667294	48.6155
	1.667034	48.61569
	1.666801	48.61583
	1.666448	48.61602
	1.666019	48.61621
	1.664564	48.6168
	1.663413	48.61735
	1.662836	48.61765
	1.66255	48.61756
	1.661062	48.61841
	1.660723	48.61864
	1.660484	48.61882
	1.659321	48.61985
	1.657433	48.62147
	1.65729	48.62157
	1.656604	48.62198
	1.656169	48.62217
	1.655037	48.62259
	1.655045	48.62263
	1.656928	48.62488
	1.657254	48.62531
	1.657417	48.62558
	1.65757	48.62592
	1.658003	48.62728
	1.657987	48.62732
	1.658029	48.6274
	1.658341	48.62782
	1.658341	48.62786
	1.657672	48.62833
	1.657108	48.62857
	1.656686	48.62895
	1.656642	48.62902
	1.657263	48.62975
	1.656539	48.63003
	1.653447	48.63105
	1.652404	48.63141
	1.649665	48.63241
	1.649312	48.63232
	1.649473	48.63323
	1.649358	48.63379
	1.649346	48.63417
	1.6491	48.63464
	1.649024	48.6349
	1.649093	48.63541
	1.649987	48.63648
	1.65005	48.63662
	1.650166	48.6373
	1.651187	48.63821
	1.650476	48.63844
	1.649705	48.63871
	1.648584	48.63899
	1.647654	48.63937
	1.646087	48.63982
	1.645516	48.64012
	1.645151	48.64042
	1.644526	48.64124
	1.644111	48.64157
	1.643238	48.64197
	1.642212	48.64255
	1.641919	48.64275
	1.640938	48.64372
	1.640389	48.64435
	1.640049	48.64459
	1.638998	48.64503
	1.638476	48.64519
	1.641576	48.64728
	1.641903	48.64749
	1.642437	48.64772
	1.643096	48.64788
	1.643875	48.64816
	1.642835	48.64971
	1.64363	48.64995
	1.64308	48.65131
	1.64126	48.65126
	1.640548	48.65114
	1.638744	48.65072
	1.638369	48.65057
	1.638007	48.65038
	1.63752	48.65008
	1.637183	48.65001
	1.636832	48.64998
	1.636613	48.6499
	1.636341	48.64965
	1.635979	48.64948
	1.635511	48.64931
	1.635254	48.64925
	1.634975	48.64917
	1.633907	48.64899
	1.632429	48.64886
	1.631763	48.64882
	1.631424	48.64885
	1.630753	48.64898
	1.629805	48.64941
	1.628874	48.64979
	1.629062	48.65035
	1.629099	48.65069
	1.62935	48.65108
	1.629959	48.65213
	1.630142	48.65254
	1.630192	48.65269
	1.630272	48.65304
	1.630325	48.6536
	1.630326	48.65381
	1.630259	48.65506
	1.628232	48.65703
	1.62626	48.655
	1.62632	48.65384
	1.625914	48.65313
	1.625501	48.6525
	1.62525	48.65196
	1.625194	48.65176
	1.625144	48.65144
	1.624574	48.65098
	1.624369	48.65079
	1.623857	48.65026
	1.623535	48.65039
	1.6239	48.65082
	1.623982	48.65103
	1.62404	48.65111
	1.62417	48.65123
	1.624138	48.65126
	1.623686	48.65141
	1.623586	48.65142
	1.623565	48.65147
	1.623036	48.65166
	1.622898	48.65158
	1.622428	48.6518
	1.622324	48.65166
	1.622185	48.65126
	1.622837	48.65104
	1.621626	48.64992
	1.621527	48.64992
	1.621242	48.6497
	1.619998	48.65048
	1.620071	48.65053
	1.616048	48.65269
	1.616016	48.6526
	1.615701	48.65288
	1.614152	48.65369
	1.613761	48.65392
	1.612891	48.65447
	1.610111	48.658
	1.608735	48.65912
	1.608078	48.65952
	1.607652	48.65986
	1.607023	48.66042
	1.606283	48.66088
	1.605162	48.66135
	1.60389	48.66207
	1.603356	48.66244
	1.602669	48.66322
	1.602589	48.66361
	1.602544	48.6645
	1.602492	48.66506
	1.602435	48.6651
	1.601611	48.66541
	1.60153	48.66547
	1.601469	48.66569
	1.601529	48.6671
	1.601457	48.66753
	1.601138	48.66824
	1.601136	48.66829
	1.60126	48.66842
	1.602008	48.66891
	1.604912	48.67073
	1.607948	48.67252
	1.607956	48.67255
	1.60765	48.67284
	1.607633	48.67284
	1.60764	48.67285
	1.607437	48.67306
	1.606754	48.67404
	1.606563	48.67423
	1.606098	48.67457
	1.605603	48.67484
	1.605534	48.67486
	1.60498	48.67513
	1.604372	48.67537
	1.60432	48.67541
	1.60512	48.67601
	1.605367	48.67623
	1.605443	48.67633
	1.605852	48.67726
	1.605887	48.67739
	1.605974	48.67804
	1.605963	48.67852
	1.605981	48.67863
	1.606116	48.67908
	1.606442	48.67969
	1.606634	48.67997
	1.606907	48.6803
	1.60721	48.68063
	1.607644	48.68105
	1.608357	48.68168
	1.608431	48.68176
	1.60907	48.68265
	1.609199	48.68288
	1.610196	48.68427
	1.610861	48.68642
	1.611177	48.68825
	1.611783	48.68935
	1.611645	48.68938
	1.610808	48.68943
	1.608602	48.68939
	1.607574	48.6894
	1.605617	48.68933
	1.604813	48.68959
	1.60441	48.68977
	1.602594	48.69072
	1.602462	48.69075
	1.601009	48.69133
	1.5998	48.69172
	1.597656	48.69258
	1.597534	48.69265
	1.597452	48.69279
	1.597085	48.69313
	1.597038	48.69316
	1.597037	48.69318
	1.596172	48.69388
	1.595761	48.69418
	1.594545	48.69497
	1.594406	48.69504
	1.594358	48.69503
	1.593747	48.69452
	1.593372	48.69417
	1.593384	48.69416
	1.593344	48.69415
	1.593003	48.69383
	1.592206	48.69327
	1.591627	48.69291
	1.591422	48.69283
	1.591142	48.69274
	1.591077	48.69274
	1.590548	48.693
	1.589734	48.69351
	1.587833	48.69461
	1.586739	48.6952
	1.582209	48.69615
	1.582471	48.69651
	1.583282	48.69746
	1.5837	48.69782
	1.585264	48.69934
	1.582817	48.7001
	1.58222	48.70037
	1.581779	48.7006
	1.580206	48.70152
	1.579803	48.70174
	1.579378	48.70194
	1.578744	48.70217
	1.578203	48.7023
	1.577645	48.70241
	1.576583	48.70257
	1.576503	48.70259
	1.576597	48.70262
	1.577146	48.70271
	1.578432	48.70297
	1.579718	48.70332
	1.584437	48.70495
	1.585137	48.7051
	1.586626	48.70557
	1.587388	48.70597
	1.588539	48.70653
	1.588854	48.70666
	1.589467	48.70688
	1.59026	48.70712
	1.590306	48.70716
	1.590317	48.70715
	1.590317	48.70716
	1.591218	48.70757
	1.591256	48.70761
	1.592905	48.70813
	1.593033	48.70822
	1.593237	48.70833
	1.59418	48.70863
	1.594688	48.70915
	1.59307	48.70988
	1.593018	48.70986
	1.592188	48.70905
	1.592187	48.70903
	1.592175	48.70904
	1.591897	48.70877
	1.591887	48.70873
	1.591822	48.70873
	1.591592	48.70881
	1.591581	48.7088
	1.591574	48.70882
	1.58822	48.71008
	1.588056	48.70993
	1.587973	48.70994
	1.587075	48.71023
	1.58722	48.71044
	1.587214	48.71049
	1.588362	48.7118
	1.589752	48.71288
	1.591282	48.71411
	1.593425	48.71596
	1.594697	48.71678
	1.594878	48.71762
	1.59448	48.71792
	1.595653	48.71928
	1.595844	48.71953
	1.596504	48.72043
	1.596922	48.72112
	1.601243	48.72066
	1.601827	48.72132
	1.602644	48.72297
	1.603264	48.72399
	1.604002	48.72503
	1.604433	48.7254
	1.605842	48.72637
	1.606494	48.72667
	1.606758	48.72683
	1.607687	48.72762
	1.608316	48.72804
	1.609807	48.72879
	1.610029	48.72895
	1.610848	48.73038
	1.611231	48.73079
	1.612173	48.73173
	1.612315	48.73193
	1.612473	48.73231
	1.61403	48.73435
	1.615271	48.73562
	1.61607	48.73632
	1.616982	48.73611
	1.617479	48.73601
	1.617883	48.73597
	1.618195	48.73597
	1.61972	48.73617
	1.620128	48.73614
	1.620467	48.73609
	1.621562	48.73759
	1.62187	48.7375
	1.622918	48.73858
	1.622659	48.73876
	1.622121	48.73888
	1.623253	48.74
	1.622601	48.74028
	1.623523	48.74131
	1.621751	48.74181
	1.623062	48.74326
	1.623727	48.74407
	1.624378	48.74499
	1.625222	48.74622
	1.626381	48.74768
	1.626636	48.74806
	1.624388	48.7492
	1.621983	48.75037
	1.621771	48.7505
	1.621101	48.75106
	1.620792	48.75129
	1.620357	48.75154
	1.616907	48.75321
	1.615808	48.7542
	1.61391	48.7554
	1.612207	48.75646
	1.611641	48.75678
	1.610291	48.75735
	1.609953	48.75756
	1.609407	48.75812
	1.60913	48.75852
	1.608659	48.76016
	1.608345	48.76064
	1.606394	48.76038
	1.605893	48.76027
	1.605647	48.76024
	1.605709	48.76012
	1.605617	48.7599
	1.605249	48.76026
	1.602335	48.76042
	1.601187	48.76045
	1.599855	48.76046
	1.597691	48.76075
	1.594938	48.76093
	1.59432	48.76103
	1.593711	48.76108
	1.588662	48.76161
	1.587557	48.76163
	1.586309	48.7617
	1.584272	48.76187
	1.583818	48.76188
	1.582667	48.76177
	1.582246	48.76176
	1.581918	48.7618
	1.584773	48.76333
	1.584247	48.76396
	1.581478	48.7655
	1.58201	48.7661
	1.582266	48.76646
	1.582782	48.76746
	1.584167	48.76928
	1.586317	48.77176
	1.587188	48.77308
	1.587847	48.77371
	1.585012	48.77488
	1.585045	48.77492
	1.583043	48.77586
	1.584479	48.77729
	1.581054	48.77755
	1.580344	48.77754
	1.580642	48.77781
	1.580045	48.77831
	1.58105	48.77883
	1.580837	48.77902
	1.580308	48.77923
	1.581358	48.77994
	1.577819	48.7813
	1.577888	48.78132
	1.576841	48.78273
	1.577886	48.78348
	1.578014	48.78344
	1.578354	48.7845
	1.578454	48.78504
	1.57846	48.78542
	1.578427	48.78583
	1.578423	48.78626
	1.578401	48.7866
	1.578359	48.7869
	1.578264	48.78733
	1.578165	48.78768
	1.577899	48.78822
	1.577802	48.78836
	1.577529	48.78868
	1.57737	48.78883
	1.577024	48.78909
	1.576897	48.78917
	1.576897	48.78919
	1.57631	48.78952
	1.576167	48.78965
	1.576032	48.79026
	1.575381	48.79089
	1.581168	48.79366
	1.57778	48.79529
	1.578047	48.79645
	1.578636	48.79632
	1.579149	48.79628
	1.578652	48.7973
	1.57882	48.79735
	1.578287	48.79834
	1.578216	48.79832
	1.577863	48.7986
	1.578986	48.79907
	1.578672	48.79935
	1.580038	48.7999
	1.577993	48.80203
	1.57864	48.80263
	1.578975	48.80302
	1.578108	48.80356
	1.577446	48.8044
	1.577088	48.80505
	1.578963	48.80534
	1.580687	48.8059
	1.581794	48.80526
	1.582045	48.80564
	1.582742	48.80632
	1.583283	48.8067
	1.583363	48.80666
	1.583838	48.80693
	1.583794	48.80696
	1.583962	48.80724
	1.583265	48.80735
	1.581646	48.80824
	1.581189	48.80833
	1.580689	48.80864
	1.580096	48.80889
	1.579562	48.80891
	1.579035	48.80902
	1.57927	48.80939
	1.580467	48.81062
	1.58145	48.8102
	1.582458	48.81086
	1.583103	48.81045
	1.585617	48.81197
	1.587527	48.81305
	1.591242	48.8148
	1.591183	48.81494
	1.590152	48.81803
	1.589439	48.81956
	1.588662	48.82056
	1.586933	48.82306
	1.586463	48.82336
	1.586186	48.82365
	1.585301	48.82493
	1.584324	48.82618
	1.583622	48.82679
	1.581336	48.82808
	1.580793	48.82843
	1.580347	48.82821
	1.580033	48.82801
	1.579842	48.82791
	1.577122	48.82868
	1.577899	48.8314
	1.578025	48.83147
	1.578262	48.83163
	1.578502	48.83176
	1.579259	48.83212
	1.579283	48.83214
	1.582582	48.83366
	1.583497	48.83436
	1.583648	48.8345
	1.583997	48.83504
	1.584288	48.8354
	1.584664	48.83575
	1.584865	48.8363
	1.585015	48.83658
	1.585645	48.83728
	1.585774	48.83737
	1.586659	48.83771
	1.586799	48.83772
	1.58836	48.83796
	1.589496	48.83804
	1.589961	48.83815
	1.591056	48.83873
	1.591641	48.83901
	1.592084	48.83913
	1.592194	48.8408
	1.592249	48.84088
	1.592714	48.84124
	1.591875	48.84143
	1.588645	48.84256
	1.58672	48.84336
	1.586509	48.84348
	1.585121	48.84371
	1.583778	48.844
	1.582801	48.84417
	1.579577	48.84435
	1.578812	48.84444
	1.578799	48.84442
	1.577508	48.8446
	1.577488	48.84471
	1.577439	48.84483
	1.577274	48.84497
	1.577358	48.84588
	1.577408	48.84612
	1.578039	48.84852
	1.578541	48.8493
	1.579808	48.85063
	1.580211	48.85168
	1.58022	48.85183
	1.580871	48.85333
	1.581289	48.85417
	1.582101	48.85549
	1.582757	48.85688
	1.583626	48.85833
	1.583799	48.85877
	1.583889	48.85925
	1.5839	48.85944
	1.584189	48.86038
	1.583927	48.86053
	1.583785	48.86069
	1.583281	48.86061
	1.582705	48.86055
	1.581683	48.86054
	1.580904	48.85921
	1.58063	48.85914
	1.579613	48.85884
	1.579214	48.85876
	1.578884	48.85872
	1.578341	48.85873
	1.57805	48.85876
	1.577519	48.85889
	1.577091	48.85906
	1.576471	48.85933
	1.575448	48.86197
	1.575719	48.86207
	1.574702	48.86278
	1.574422	48.86294
	1.573471	48.86335
	1.571771	48.864
	1.571017	48.86438
	1.570717	48.86456
	1.569746	48.86526
	1.569406	48.86547
	1.568913	48.86568
	1.56824	48.86586
	1.567722	48.86595
	1.56677	48.86607
	1.56568	48.86618
	1.565293	48.86625
	1.564218	48.86653
	1.563767	48.86666
	1.563755	48.86668
	1.560748	48.86756
	1.560309	48.86765
	1.559304	48.86769
	1.559592	48.86715
	1.559805	48.86647
	1.559278	48.86505
	1.558961	48.8638
	1.555731	48.86464
	1.555451	48.86476
	1.555202	48.86496
	1.554611	48.86591
	1.553887	48.86677
	1.55096	48.86852
	1.547608	48.87086
	1.547113	48.87035
	1.546764	48.87045
	1.546574	48.8702
	1.546211	48.87031
	1.546007	48.87003
	1.545543	48.87015
	1.546877	48.87219
	1.546345	48.87228
	1.545955	48.87237
	1.547183	48.8739
	1.546502	48.87414
	1.546954	48.87466
	1.547141	48.87459
	1.548372	48.87598
	1.551347	48.87504
	1.552492	48.87677
	1.552146	48.87687
	1.552669	48.8777
	1.553007	48.87755
	1.553345	48.87743
	1.553988	48.87874
	1.554024	48.87874
	1.554697	48.88012
	1.555793	48.87984
	1.556172	48.88099
	1.556071	48.88102
	1.556657	48.8821
	1.559316	48.88186
	1.559536	48.88186
	1.560438	48.88413
	1.560853	48.88488
	1.560791	48.88489
	1.561287	48.886
	1.561685	48.88656
	1.562152	48.8871
	1.560851	48.8877
	1.561732	48.88864
	1.561868	48.88859
	1.562915	48.89006
	1.56349	48.88992
	1.563524	48.8902
	1.563477	48.89048
	1.561491	48.89087
	1.561501	48.89089
	1.560256	48.8911
	1.560208	48.89096
	1.558372	48.89142
	1.557143	48.89176
	1.55731	48.89206
	1.556137	48.89226
	1.556216	48.89243
	1.555781	48.89251
	1.555966	48.89337
	1.555412	48.89335
	1.553859	48.89346
	1.553564	48.89352
	1.553632	48.89414
	1.553616	48.8952
	1.552779	48.89533
	1.551017	48.89568
	1.551059	48.89579
	1.551029	48.89579
	1.551549	48.89696
	1.549532	48.89752
	1.550149	48.89853
	1.548446	48.89907
	1.548375	48.89897
	1.547473	48.89943
	1.546629	48.9
	1.545644	48.89959
	1.545621	48.90012
	1.545936	48.90143
	1.545373	48.90144
	1.5446	48.90137
	1.543826	48.901
	1.542959	48.90266
	1.542506	48.90251
	1.542282	48.90303
	1.542019	48.90383
	1.540936	48.90368
	1.539958	48.90541
	1.538869	48.9049
	1.538434	48.90568
	1.538403	48.90579
	1.538296	48.90652
	1.538794	48.9065
	1.54048	48.9064
	1.540859	48.90635
	1.541439	48.90636
	1.541562	48.90638
	1.542581	48.90687
	1.542646	48.90693
	1.542956	48.90733
	1.54316	48.90733
	1.543702	48.90741
	1.544142	48.90754
	1.545405	48.90865
	1.545425	48.90869
	1.545729	48.90887
	1.54589	48.90894
	1.545735	48.9093
	1.547327	48.91032
	1.545801	48.9127
	1.545671	48.91273
	1.545215	48.91278
	1.545193	48.91306
	1.544998	48.91324
	1.544717	48.91347
	1.544046	48.91385
	1.542988	48.91437
	1.54271	48.91456
	1.542491	48.91479
	1.54171	48.91582
	1.541085	48.91657
	1.540923	48.91679
	1.54033	48.91666
	1.540489	48.91753
	1.540463	48.91802
	1.540356	48.91851
	1.540219	48.91904
	1.540076	48.91924
	1.539454	48.91989
	1.538395	48.92254
	1.535702	48.92259
	1.53518	48.92262
	1.534565	48.92273
	1.532624	48.9232
	1.532053	48.92339
	1.529	48.92468
	1.528536	48.92438
	1.525306	48.9246
	1.523928	48.92491
	1.523884	48.92479
	1.523062	48.92497
	1.521753	48.92513
	1.519915	48.92523
	1.518743	48.92547
	1.518517	48.92532
	1.518238	48.92538
	1.514343	48.9219
	1.511116	48.92351
	1.509149	48.92532
	1.507389	48.92754
	1.507248	48.9276
	1.50714	48.92815
	1.507327	48.92967
	1.508328	48.93084
	1.508299	48.93088
	1.508432	48.93099
	1.509163	48.93042
	1.509395	48.93099
	1.509737	48.93133
	1.511156	48.93201
	1.511158	48.93247
	1.511253	48.93277
	1.511726	48.93351
	1.511926	48.93399
	1.512057	48.93459
	1.511995	48.93482
	1.501423	48.94102
	1.505461	48.94645
	1.510931	48.95361
	1.510685	48.95351
	1.510113	48.95323
	1.509088	48.95363
	1.508173	48.95388
	1.507141	48.95397
	1.506728	48.95407
	1.50594	48.9544
	1.50534	48.95458
	1.5051	48.95441
	1.505803	48.95371
	1.505436	48.95349
	1.505805	48.95314
	1.505458	48.95233
	1.504759	48.95219
	1.503477	48.95221
	1.502869	48.9521
	1.502339	48.95158
	1.502407	48.95151
	1.502868	48.95134
	1.502667	48.95104
	1.502096	48.95111
	1.501655	48.95127
	1.501545	48.9513
	1.501244	48.95145
	1.500531	48.95195
	1.500671	48.95205
	1.501051	48.95267
	1.494943	48.95678
	1.497136	48.95683
	1.498661	48.95684
	1.498222	48.96018
	1.498698	48.96024
	1.498903	48.96024
	1.49925	48.96022
	1.499812	48.96014
	1.499743	48.96021
	1.499445	48.96041
	1.497166	48.96193
	1.496095	48.96262
	1.495741	48.9628
	1.494116	48.96329
	1.49378	48.96349
	1.494284	48.96388
	1.494479	48.96407
	1.498078	48.9681
	1.498274	48.96835
	1.498049	48.96997
	1.503264	48.97186
	1.503302	48.97189
	1.505364	48.97257
	1.504999	48.97304
	1.508282	48.97434
	1.508734	48.97451
	1.508834	48.97451
	1.511436	48.97545
	1.511751	48.97515
	1.513528	48.97592
	1.515281	48.97659
	1.515319	48.97655
	1.515352	48.97655
	1.515838	48.97669
	1.517211	48.97775
	1.517189	48.97777
	1.518091	48.9784
	1.517432	48.97838
	1.516217	48.97841
	1.515287	48.9785
	1.514121	48.97847
	1.513793	48.97847
	1.513474	48.9785
	1.513381	48.9785
	1.512531	48.9786
	1.512328	48.97861
	1.512267	48.97866
	1.511978	48.97884
	1.511973	48.97889
	1.512016	48.97899
	1.512005	48.97901
	1.511737	48.97931
	1.511053	48.98
	1.51001	48.98158
	1.508871	48.98303
	1.508628	48.98331
	1.507932	48.98391
	1.506034	48.98285
	1.504705	48.98215
	1.504666	48.98215
	1.504468	48.9823
	1.504436	48.98231
	1.504382	48.9823
	1.500404	48.98116
	1.500305	48.98112
	1.499101	48.98048
	1.498984	48.98041
	1.498969	48.98037
	1.498542	48.98008
	1.498143	48.97985
	1.497942	48.97975
	1.497941	48.97973
	1.498455	48.9791
	1.498455	48.97905
	1.498407	48.97907
	1.495755	48.97912
	1.494949	48.97915
	1.494516	48.97915
	1.492837	48.97908
	1.491612	48.9791
	1.491399	48.97912
	1.490123	48.97939
	1.488644	48.9796
	1.488179	48.97964
	1.485455	48.97971
	1.484701	48.97972
	1.48472	48.97947
	1.484617	48.97867
	1.484541	48.97846
	1.483685	48.97739
	1.483277	48.97715
	1.482994	48.97701
	1.480341	48.97593
	1.478714	48.97529
	1.476356	48.97433
	1.476106	48.97425
	1.475376	48.97406
	1.475127	48.97401
	1.474095	48.97388
	1.473211	48.97366
	1.472029	48.97319
	1.470777	48.97262
	1.470521	48.97252
	1.469791	48.9723
	1.469335	48.97222
	1.468263	48.97216
	1.465804	48.9722
	1.465151	48.97215
	1.460781	48.97118
	1.459426	48.9709
	1.458992	48.97076
	1.458739	48.97063
	1.45767	48.96979
	1.457399	48.97013
	1.455565	48.96944
	1.45457	48.97209
	1.454613	48.97219
	1.455198	48.97293
	1.456405	48.97388
	1.456697	48.97407
	1.457266	48.97438
	1.457603	48.97452
	1.458512	48.9748
	1.459924	48.97509
	1.463406	48.97587
	1.464443	48.97609
	1.464704	48.97613
	1.465595	48.9762
	1.468101	48.97616
	1.468867	48.9762
	1.469243	48.97631
	1.469845	48.97659
	1.468665	48.97835
	1.467815	48.97912
	1.467631	48.97937
	1.467442	48.97968
	1.467308	48.97996
	1.466859	48.98103
	1.466755	48.9815
	1.466758	48.98167
	1.466803	48.98202
	1.466805	48.98264
	1.466728	48.98299
	1.466633	48.98322
	1.46651	48.98344
	1.466362	48.98366
	1.466061	48.98403
	1.465798	48.98425
	1.465294	48.98464
	1.465082	48.9848
	1.465048	48.98481
	1.464996	48.98482
	1.462781	48.98494
	1.462463	48.98505
	1.462193	48.98517
	1.461944	48.98531
	1.461643	48.98551
	1.461409	48.98574
	1.461246	48.98593
	1.46108	48.98617
	1.460994	48.98635
	1.460912	48.9867
	1.460885	48.98699
	1.460897	48.98711
	1.460989	48.9874
	1.461065	48.98756
	1.461264	48.9879
	1.461303	48.988
	1.461355	48.98825
	1.461407	48.98894
	1.462751	48.98904
	1.465744	48.98923
	1.469132	48.98947
	1.471625	48.98971
	1.471694	48.98977
	1.471549	48.99039
	1.471283	48.9911
	1.470575	48.99194
	1.469649	48.99277
	1.469086	48.99318
	1.470715	48.99397
	1.472573	48.99615
	1.473171	48.996
	1.47447	48.9956
	1.474687	48.99555
	1.475286	48.99544
	1.476447	48.99531
	1.476558	48.99529
	1.477751	48.99495
	1.47863	48.99468
	1.479392	48.99451
	1.481867	48.99407
	1.482364	48.99396
	1.483016	48.99369
	1.484631	48.99306
	1.485821	48.99266
	1.486018	48.9926
	1.486848	48.99242
	1.487999	48.9921
	1.488307	48.99199
	1.490859	48.99321
	1.48964	48.99576
	1.489137	48.99593
	1.487871	48.99629
	1.486993	48.99649
	1.486044	48.9968
	1.483704	48.99773
	1.483391	48.99782
	1.482614	48.998
	1.480218	48.99843
	1.479584	48.99857
	1.478892	48.99879
	1.478279	48.99896
	1.47785	48.99932
	1.480451	49.00106
	1.479943	49.00209
	1.480224	49.00216
	1.479813	49.00421
	1.480285	49.00427
	1.480314	49.00515
	1.479881	49.00732
	1.477823	49.00807
	1.473872	49.00966
	1.477148	49.01324
	1.477111	49.01329
	1.477747	49.01395
	1.477331	49.01439
	1.476418	49.01556
	1.476316	49.01636
	1.47657	49.01649
	1.476941	49.01681
	1.47429	49.01794
	1.474074	49.01794
	1.471506	49.01861
	1.470124	49.01904
	1.469444	49.01936
	1.465024	49.0218
	1.463089	49.02261
	1.461767	49.02327
	1.461042	49.02368
	1.459692	49.02467
	1.458951	49.02508
	1.457935	49.026
	1.457788	49.02681
	1.457865	49.02776
	1.457808	49.02856
	1.45744	49.03051
	1.457482	49.03116
	1.457615	49.03187
	1.457642	49.03296
	1.45787	49.03373
	1.458148	49.03438
	1.456789	49.03588
	1.456025	49.03663
	1.456163	49.03681
	1.455967	49.0373
	1.454317	49.03841
	1.454044	49.03854
	1.45415	49.0382
	1.449754	49.04267
	1.446244	49.04639
	1.449454	49.04765
	1.450157	49.04802
	1.450096	49.0482
	1.450787	49.04866
	1.451826	49.04961
	1.452915	49.05041
	1.447448	49.05341
	1.447346	49.05358
	1.448297	49.05402
	1.448414	49.05397
	1.448661	49.05403
	1.449004	49.05427
	1.450462	49.055
	1.451314	49.05541
	1.456547	49.05775
	1.457277	49.05779
	1.45738	49.05789
	1.457206	49.05825
	1.457175	49.0585
	1.457277	49.05922
	1.458054	49.06008
	1.459489	49.06141
	1.460078	49.06217
	1.461126	49.06309
	1.461395	49.06359
	1.461832	49.0639
	1.463246	49.06333
	1.464233	49.06228
	1.464501	49.06208
	1.464644	49.06174
	1.464723	49.06086
	1.46487	49.06065
	1.46526	49.06031
	1.465673	49.06019
	1.466278	49.05991
	1.466665	49.05978
	1.466845	49.05978
	1.467371	49.06
	1.467613	49.05984
	1.469308	49.05954
	1.46979	49.05929
	1.470665	49.05852
	1.471037	49.05839
	1.471253	49.05841
	1.47196	49.05822
	1.472544	49.05729
	1.47244	49.05726
	1.472419	49.05717
	1.47262	49.05692
	1.472849	49.05631
	1.472894	49.05624
	1.473212	49.05609
	1.4734	49.05573
	1.47381	49.0553
	1.473777	49.05488
	1.477656	49.05288
	1.478273	49.05241
	1.479374	49.05297
	1.479611	49.05297
	1.480387	49.0528
	1.48062	49.0527
	1.481343	49.05291
	1.481714	49.05307
	1.481912	49.05314
	1.482294	49.05325
	1.48253	49.05329
	1.483018	49.05333
	1.483954	49.05337
	1.48498	49.05347
	1.485963	49.05349
	1.486109	49.05369
	1.48667	49.05423
	1.48719	49.05469
	1.488278	49.05562
	1.488815	49.05606
	1.489243	49.05638
	1.489486	49.05653
	1.489944	49.05678
	1.491731	49.05769
	1.494429	49.05916
	1.495284	49.05961
	1.495572	49.05975
	1.495953	49.05991
	1.496455	49.06022
	1.499213	49.05959
	1.498942	49.0584
	1.500404	49.05851
	1.501997	49.05881
	1.502675	49.05912
	1.502924	49.05926
	1.502936	49.05935
	1.503859	49.0598
	1.504337	49.06022
	1.504717	49.06041
	1.504796	49.06048
	1.504873	49.06056
	1.505123	49.06115
	1.505331	49.06147
	1.505641	49.06176
	1.505775	49.06197
	1.506445	49.06246
	1.506818	49.06286
	1.507546	49.06388
	1.507612	49.06416
	1.5078	49.06453
	1.508153	49.06475
	1.508738	49.06535
	1.509327	49.06562
	1.50928	49.06578
	1.509501	49.06595
	1.5097	49.06628
	1.509888	49.06634
	1.509959	49.06663
	1.509911	49.06758
	1.510079	49.06794
	1.510082	49.06812
	1.510052	49.06826
	1.509923	49.06829
	1.509848	49.06857
	1.509549	49.06897
	1.509535	49.06926
	1.509315	49.06969
	1.509301	49.06993
	1.509658	49.07058
	1.509769	49.07065
	1.509934	49.07103
	1.510096	49.07117
	1.510122	49.07169
	1.510218	49.07198
	1.510983	49.073
	1.511152	49.07334
	1.511312	49.07347
	1.511324	49.07355
	1.511181	49.07367
	1.511223	49.07379
	1.511342	49.07389
	1.511875	49.07407
	1.512359	49.07457
	1.512226	49.07486
	1.511909	49.07528
	1.512292	49.07533
	1.512443	49.0754
	1.51235	49.07555
	1.510228	49.07761
	1.50936	49.07835
	1.507516	49.07978
	1.505624	49.08163
	1.506468	49.08282
	1.507028	49.08311
	1.507227	49.0827
	1.507858	49.08206
	1.508085	49.08151
	1.508715	49.08121
	1.508747	49.08101
	1.508868	49.08081
	1.509718	49.08018
	1.510522	49.07947
	1.512124	49.07852
	1.512919	49.07792
	1.513313	49.07739
	1.514413	49.07991
	1.513555	49.08087
	1.512831	49.08144
	1.512348	49.08175
	1.511937	49.08186
	1.511241	49.08187
	1.510849	49.08196
	1.510136	49.08235
	1.509571	49.08311
	1.509202	49.0834
	1.508777	49.08353
	1.508636	49.08366
	1.508385	49.08372
	1.508061	49.08372
	1.507681	49.08385
	1.507525	49.08405
	1.507212	49.08422
	1.506641	49.08413
	1.50633	49.08469
	1.507911	49.0854
	1.508911	49.08471
	1.509408	49.08424
	1.510447	49.08377
	1.510698	49.08354
	1.511568	49.08341
	1.511692	49.08363
	1.51186	49.08362
	1.511964	49.08379
	1.512571	49.08378
	1.513106	49.08308
	1.514186	49.08243
	1.51477	49.08192
	1.515742	49.08125
	1.516057	49.08088
	1.516402	49.0801
	1.516967	49.07992
	1.517759	49.07927
	1.518024	49.07868
	1.518096	49.07829
	1.518332	49.07798
	1.518392	49.07739
	1.516738	49.07597
	1.517034	49.07561
	1.517177	49.07502
	1.51749	49.07457
	1.517756	49.07431
	1.518502	49.07326
	1.518597	49.07304
	1.519462	49.07232
	1.519989	49.0718
	1.520019	49.07135
	1.519889	49.07105
	1.52029	49.06966
	1.52056	49.06899
	1.520759	49.06872
	1.521182	49.06827
	1.521411	49.06838
	1.521621	49.0685
	1.522668	49.06848
	1.523025	49.06831
	1.523204	49.06829
	1.523437	49.06846
	1.52358	49.06904
	1.523836	49.06914
	1.524012	49.06916
	1.524181	49.06913
	1.525074	49.06877
	1.525426	49.06892
	1.52579	49.06888
	1.52588	49.06896
	1.525875	49.06919
	1.525654	49.06969
	1.525787	49.06982
	1.525908	49.06985
	1.526312	49.06981
	1.52682	49.06983
	1.527221	49.06997
	1.528752	49.07024
	1.529699	49.07051
	1.529903	49.0705
	1.530002	49.07044
	1.530268	49.07018
	1.530815	49.06989
	1.531006	49.06988
	1.531185	49.07
	1.531557	49.07056
	1.531537	49.07071
	1.531362	49.07089
	1.531537	49.07101
	1.531969	49.07102
	1.532146	49.0711
	1.532157	49.0712
	1.53199	49.07138
	1.531943	49.07152
	1.532486	49.07189
	1.532583	49.07189
	1.533294	49.07167
	1.533463	49.07157
	1.53388	49.07115
	1.534007	49.07106
	1.534256	49.07104
	1.534553	49.07117
	1.534845	49.07176
	1.534932	49.0718
	1.536159	49.07182
	1.536329	49.07188
	1.536581	49.07251
	1.536639	49.07254
	1.53708	49.07246
	1.537749	49.07244
	1.537967	49.07238
	1.53821	49.07238
	1.538377	49.07244
	1.538627	49.07263
	1.538677	49.07298
	1.53856	49.07325
	1.538634	49.07337
	1.539052	49.07346
	1.539139	49.07318
	1.539203	49.07313
	1.539381	49.07312
	1.539872	49.07337
	1.540065	49.07342
	1.540293	49.0736
	1.541044	49.07362
	1.541024	49.07372
	1.541109	49.07385
	1.541663	49.07374
	1.542061	49.07356
	1.542488	49.07251
	1.542646	49.07244
	1.545079	49.07214
	1.545358	49.07217
	1.545675	49.07231
	1.546391	49.07228
	1.546747	49.07239
	1.546881	49.07242
	1.547032	49.07254
	1.547182	49.07263
	1.547341	49.07268
	1.547522	49.07266
	1.547641	49.07256
	1.5477	49.07245
	1.547721	49.07233
	1.547755	49.07227
	1.548008	49.07217
	1.54813	49.07214
	1.548182	49.07215
	1.548275	49.07219
	1.548693	49.07246
	1.549099	49.07263
	1.54922	49.07262
	1.54927	49.0726
	1.549458	49.07243
	1.549598	49.07235
	1.549695	49.07234
	1.549794	49.07234
	1.550229	49.07255
	1.550383	49.07256
	1.550473	49.07255
	1.550614	49.07251
	1.550804	49.07239
	1.550936	49.07227
	1.55138	49.07196
	1.551641	49.07171
	1.551929	49.07153
	1.552554	49.07141
	1.552716	49.07131
	1.552754	49.07119
	1.552774	49.07093
	1.55284	49.07057
	1.552872	49.07053
	1.552985	49.07047
	1.553182	49.07042
	1.553855	49.07033
	1.554642	49.07019
	1.554993	49.07017
	1.555767	49.07009
	1.556223	49.07003
	1.556414	49.06996
	1.556728	49.06974
	1.557315	49.06924
	1.557471	49.06918
	1.557716	49.06916
	1.558052	49.06919
	1.558294	49.06926
	1.559278	49.06968
	1.560158	49.06985
	1.560395	49.06992
	1.560961	49.07002
	1.56188	49.07044
	1.562023	49.07057
	1.562099	49.07086
	1.562256	49.07106
	1.562589	49.07116
	1.563663	49.07116
	1.564429	49.07124
	1.564862	49.0714
	1.565139	49.07154
	1.566154	49.07222
	1.566969	49.07288
	1.567251	49.073
	1.567493	49.07301
	1.568678	49.07285
	1.568836	49.07289
	1.56905	49.07303
	1.56947	49.07338
	1.569802	49.07378
	1.570179	49.07447
	1.570424	49.07468
	1.570531	49.07484
	1.570522	49.07505
	1.570407	49.07518
	1.569895	49.07535
	1.569806	49.07558
	1.569858	49.07595
	1.56996	49.07611
	1.570272	49.07628
	1.570691	49.07641
	1.571721	49.07663
	1.571886	49.07675
	1.572397	49.07676
	1.572581	49.07688
	1.572797	49.07748
	1.572844	49.07773
	1.572886	49.07811
	1.572996	49.07822
	1.57346	49.0783
	1.574045	49.0783
	1.574242	49.07829
	1.574546	49.07833
	1.575329	49.07826
	1.575516	49.07827
	1.576047	49.07843
	1.576396	49.07861
	1.576643	49.07872
	1.577075	49.07879
	1.577412	49.07881
	1.577703	49.07876
	1.577942	49.07865
	1.578094	49.0785
	1.578096	49.07827
	1.578187	49.07816
	1.578394	49.07815
	1.578737	49.07819
	1.579712	49.07846
	1.580013	49.07861
	1.580123	49.07873
	1.580131	49.07912
	1.58018	49.07931
	1.580293	49.07948
	1.580487	49.07955
	1.580874	49.07962
	1.581644	49.07965
	1.581942	49.07971
	1.582269	49.07964
	1.582404	49.07968
	1.582435	49.07968
	1.582607	49.07984
	1.582953	49.07996
	1.583549	49.08009
	1.583607	49.08009
	1.583759	49.08012
	1.583885	49.08019
	1.584082	49.08018
	1.584181	49.08015
	1.58523	49.08027
	1.58658	49.08064
	1.586784	49.08072
	1.586991	49.08085
	1.587118	49.08096
	1.587294	49.08104
	1.587504	49.0811
	1.587775	49.08114
	1.588139	49.08114
	1.588408	49.08109
	1.588728	49.08098
	1.588927	49.08096
	1.589341	49.08101
	1.589769	49.08113
	1.590172	49.08131
	1.590513	49.08142
	1.590682	49.08153
	1.590921	49.0818
	1.591079	49.08193
	1.591296	49.08224
	1.591798	49.08257
	1.591868	49.08261
	1.591973	49.08265
	1.59211	49.08266
	1.59213	49.08267
	1.592347	49.08262
	1.592852	49.08231
	1.59308	49.08224
	1.593238	49.08222
	1.593395	49.08225
	1.593817	49.08262
	1.593943	49.08267
	1.594051	49.08268
	1.594324	49.08265
	1.594695	49.08259
	1.595052	49.08245
	1.595285	49.08229
	1.595553	49.08229
	1.59567	49.08241
	1.595651	49.08288
	1.595785	49.08306
	1.596578	49.08332
	1.597334	49.08351
	1.59789	49.08398
	1.598995	49.08395
	1.599833	49.08399
	1.600093	49.08405
	1.600647	49.08437
	1.600897	49.08444
	1.601556	49.08444
	1.601967	49.08434
	1.60217	49.08437
	1.602706	49.08456
	1.602844	49.08454
	1.602964	49.08443
	1.603006	49.08439
	1.603037	49.0842
	1.60326	49.08405
	1.603414	49.084
	1.603574	49.084
	1.603855	49.08413
	1.604162	49.08448
	1.604655	49.08488
	1.605217	49.08511
	1.606937	49.08432
	1.607196	49.08418
	1.607016	49.08402
	1.606732	49.08401
	1.606431	49.08391
	1.60358	49.08326
	1.604177	49.08274
	1.604521	49.08247
	1.604555	49.08228
	1.60623	49.08028
	1.607677	49.07907
	1.608998	49.07778
END
END
