Hong Kong
1
	114.5025	22.25733
	114.5024	22.14847
	114.3092	22.14849
	114.284	22.14847
	114.2552	22.13854
	114.236	22.14847
	113.9395	22.14847
	113.9224	22.13672
	113.8966	22.14254
	113.8332	22.18333
	113.8324	22.18384
	113.8172	22.21734
	113.8346	22.25764
	113.839	22.26772
	113.8474	22.27311
	113.8501	22.28054
	113.8501	22.28068
	113.8502	22.2808
	113.8502	22.28086
	113.8503	22.28109
	113.8503	22.28132
	113.8682	22.33069
	113.8691	22.33334
	113.8691	22.42881
	113.9478	22.47236
	113.9545	22.47757
	113.9927	22.50819
	113.9952	22.51016
	113.996	22.51023
	113.9972	22.51017
	113.9976	22.51011
	113.9981	22.50999
	113.9985	22.50986
	113.9995	22.50936
	114.0001	22.50902
	114.0017	22.50796
	114.0026	22.50725
	114.0034	22.50651
	114.0043	22.50552
	114.0051	22.5046
	114.0076	22.5024
	114.0086	22.50179
	114.0099	22.50114
	114.0112	22.50073
	114.0119	22.50064
	114.0135	22.50088
	114.0167	22.502
	114.0205	22.50383
	114.0245	22.50659
	114.0254	22.50676
	114.0267	22.50672
	114.0319	22.50631
	114.0341	22.50606
	114.0372	22.50566
	114.0408	22.50507
	114.0431	22.50443
	114.0453	22.50407
	114.0466	22.50373
	114.0478	22.50312
	114.0485	22.5028
	114.0495	22.5025
	114.0504	22.50237
	114.0511	22.50234
	114.0518	22.50243
	114.0527	22.50261
	114.0532	22.50281
	114.0548	22.5035
	114.0556	22.50394
	114.0564	22.50465
	114.0568	22.50541
	114.057	22.50587
	114.0571	22.50686
	114.0573	22.50934
	114.0577	22.51046
	114.058	22.51125
	114.0585	22.51202
	114.0595	22.51333
	114.0608	22.51436
	114.0625	22.5155
	114.0644	22.51665
	114.0648	22.51677
	114.0655	22.51694
	114.0667	22.51708
	114.0683	22.51723
	114.0693	22.5174
	114.0715	22.51805
	114.0726	22.51836
	114.0728	22.51846
	114.0739	22.51916
	114.0742	22.51943
	114.0744	22.51977
	114.0746	22.52017
	114.0755	22.52223
	114.0756	22.52268
	114.0764	22.52533
	114.0768	22.52646
	114.0775	22.52868
	114.0776	22.52893
	114.0777	22.52912
	114.0779	22.52958
	114.0781	22.52979
	114.0784	22.53
	114.0796	22.5307
	114.081	22.53114
	114.083	22.53166
	114.0845	22.5321
	114.0852	22.53237
	114.0859	22.53295
	114.0863	22.53342
	114.087	22.53441
	114.0877	22.53534
	114.0881	22.53579
	114.0885	22.53613
	114.089	22.53647
	114.0896	22.53671
	114.0903	22.53684
	114.0918	22.53701
	114.0922	22.53699
	114.0927	22.53688
	114.0934	22.53661
	114.0943	22.536
	114.0953	22.53493
	114.0957	22.5346
	114.0962	22.53434
	114.0967	22.53419
	114.0973	22.53412
	114.0979	22.53414
	114.1027	22.53511
	114.1033	22.53517
	114.1036	22.53518
	114.1039	22.53515
	114.1041	22.5351
	114.1051	22.53478
	114.1054	22.53467
	114.1073	22.53386
	114.1076	22.53369
	114.1079	22.53348
	114.1082	22.53322
	114.1084	22.53292
	114.1086	22.53259
	114.1092	22.53109
	114.1096	22.5306
	114.11	22.53031
	114.1105	22.53
	114.111	22.52977
	114.1115	22.5296
	114.1119	22.52957
	114.1122	22.52958
	114.1125	22.52965
	114.1131	22.52986
	114.1132	22.52994
	114.1148	22.53071
	114.1156	22.53125
	114.1157	22.53141
	114.1159	22.5318
	114.116	22.53222
	114.1161	22.53305
	114.1161	22.5333
	114.1163	22.53365
	114.1164	22.5339
	114.1168	22.5342
	114.1171	22.53434
	114.1174	22.53445
	114.1197	22.53481
	114.12	22.53492
	114.1202	22.53506
	114.1204	22.53532
	114.1204	22.53539
	114.1209	22.53605
	114.1215	22.53693
	114.122	22.53758
	114.1221	22.53777
	114.1223	22.53794
	114.1236	22.53873
	114.125	22.53963
	114.1254	22.53979
	114.126	22.53984
	114.1263	22.53983
	114.1265	22.53981
	114.127	22.5397
	114.127	22.53967
	114.1273	22.53964
	114.1276	22.53965
	114.1283	22.53979
	114.129	22.54026
	114.1295	22.54094
	114.1302	22.54171
	114.1304	22.54184
	114.1308	22.54196
	114.1313	22.542
	114.1315	22.54194
	114.1337	22.54148
	114.134	22.54151
	114.1344	22.54161
	114.1347	22.54173
	114.1349	22.54184
	114.1358	22.54251
	114.136	22.54286
	114.137	22.54332
	114.1375	22.54352
	114.138	22.54358
	114.1383	22.54356
	114.1386	22.54349
	114.1392	22.54328
	114.1398	22.54301
	114.1401	22.54292
	114.1405	22.54288
	114.1412	22.54288
	114.1415	22.54273
	114.1417	22.54246
	114.1418	22.54236
	114.1422	22.54212
	114.1427	22.54205
	114.1431	22.54206
	114.144	22.54205
	114.144	22.54202
	114.1441	22.54195
	114.1443	22.54162
	114.1443	22.54156
	114.1444	22.54127
	114.1445	22.54122
	114.1445	22.5412
	114.1446	22.54116
	114.1454	22.54117
	114.1459	22.54125
	114.1468	22.54149
	114.1473	22.54154
	114.1476	22.54168
	114.1477	22.54175
	114.1483	22.54182
	114.1483	22.54183
	114.1485	22.54189
	114.1485	22.54198
	114.1486	22.5421
	114.1486	22.54244
	114.1485	22.54256
	114.1483	22.54302
	114.1483	22.5433
	114.1484	22.54349
	114.1484	22.54357
	114.1485	22.54388
	114.1487	22.54421
	114.1489	22.54446
	114.1498	22.54544
	114.1499	22.54552
	114.1502	22.54596
	114.1505	22.54624
	114.1506	22.54629
	114.1508	22.54633
	114.1513	22.54631
	114.1513	22.54634
	114.1514	22.54638
	114.1516	22.54651
	114.1518	22.54672
	114.1518	22.54682
	114.1519	22.54694
	114.1519	22.54712
	114.152	22.54722
	114.152	22.54757
	114.1518	22.54785
	114.1517	22.54803
	114.1516	22.54811
	114.1514	22.54813
	114.1507	22.54788
	114.1505	22.54784
	114.1504	22.54783
	114.1503	22.54784
	114.1501	22.54788
	114.1499	22.54798
	114.1499	22.54804
	114.1497	22.54821
	114.1497	22.54828
	114.1496	22.54834
	114.1496	22.5495
	114.1497	22.54975
	114.1497	22.55012
	114.1498	22.55035
	114.1498	22.5504
	114.1499	22.55052
	114.1501	22.55071
	114.1503	22.55084
	114.1509	22.55097
	114.1509	22.55099
	114.1511	22.55106
	114.1512	22.55116
	114.1514	22.55129
	114.1515	22.55143
	114.1515	22.55151
	114.1516	22.5516
	114.1516	22.55177
	114.1517	22.55188
	114.1517	22.5522
	114.1516	22.55256
	114.1516	22.55286
	114.1517	22.55317
	114.1517	22.55332
	114.1519	22.55412
	114.1519	22.55457
	114.1521	22.55478
	114.1523	22.55484
	114.1524	22.55484
	114.1528	22.55475
	114.1532	22.55458
	114.1535	22.55452
	114.1537	22.55446
	114.1544	22.55446
	114.1546	22.55442
	114.1547	22.55437
	114.1548	22.55437
	114.1549	22.5544
	114.1551	22.55468
	114.1551	22.55472
	114.1552	22.55481
	114.1554	22.55498
	114.1555	22.55499
	114.1556	22.55509
	114.1559	22.55519
	114.1561	22.55519
	114.1562	22.55512
	114.1564	22.55502
	114.1564	22.555
	114.1566	22.55503
	114.1567	22.55507
	114.1569	22.55537
	114.157	22.55544
	114.157	22.55586
	114.1571	22.55622
	114.1571	22.55627
	114.1572	22.5564
	114.1575	22.55701
	114.1577	22.55762
	114.158	22.55822
	114.1582	22.55876
	114.1582	22.55879
	114.1584	22.55911
	114.1587	22.55927
	114.159	22.55951
	114.1591	22.55965
	114.1592	22.55983
	114.1592	22.55992
	114.1593	22.56016
	114.1593	22.56019
	114.1595	22.56041
	114.1599	22.5608
	114.1599	22.56091
	114.1601	22.56114
	114.1602	22.56128
	114.1603	22.56135
	114.1603	22.56141
	114.1608	22.5617
	114.1608	22.56173
	114.161	22.56185
	114.1613	22.56193
	114.1615	22.56196
	114.1616	22.56193
	114.1618	22.56183
	114.1618	22.56181
	114.1621	22.5616
	114.1624	22.56133
	114.1624	22.56119
	114.1625	22.56103
	114.1626	22.56073
	114.1628	22.5603
	114.1631	22.55972
	114.1632	22.55934
	114.1635	22.55918
	114.1635	22.55916
	114.1639	22.55912
	114.1645	22.55912
	114.1651	22.55921
	114.1655	22.55951
	114.1657	22.55963
	114.166	22.55994
	114.1661	22.55999
	114.1664	22.56043
	114.1668	22.56086
	114.1669	22.56089
	114.167	22.56103
	114.1671	22.56106
	114.1674	22.56124
	114.1675	22.56126
	114.1679	22.56129
	114.1684	22.56127
	114.1688	22.56123
	114.1688	22.56122
	114.1689	22.5612
	114.1691	22.56107
	114.1692	22.56104
	114.1693	22.56096
	114.1694	22.56094
	114.1695	22.56078
	114.1695	22.56074
	114.1696	22.5606
	114.1697	22.56037
	114.1698	22.56035
	114.1698	22.56024
	114.1702	22.55991
	114.1705	22.55972
	114.1709	22.55964
	114.1721	22.55965
	114.1727	22.55967
	114.1729	22.55962
	114.1729	22.5596
	114.1731	22.55959
	114.1731	22.55958
	114.1744	22.55986
	114.1747	22.55998
	114.1754	22.56003
	114.1758	22.56008
	114.1758	22.56009
	114.176	22.56005
	114.1761	22.56007
	114.1762	22.56004
	114.1763	22.55998
	114.1765	22.56001
	114.1765	22.55995
	114.1768	22.55988
	114.1769	22.55984
	114.1769	22.55981
	114.1771	22.55981
	114.1771	22.55978
	114.1773	22.5597
	114.1774	22.55959
	114.1774	22.55921
	114.1775	22.55914
	114.1775	22.55881
	114.1776	22.55851
	114.1776	22.55819
	114.1777	22.55816
	114.1776	22.55799
	114.1776	22.55693
	114.1777	22.55688
	114.1777	22.55648
	114.1778	22.55635
	114.1778	22.55594
	114.1777	22.55582
	114.1777	22.55564
	114.1779	22.55559
	114.1779	22.55555
	114.1783	22.55542
	114.1784	22.55536
	114.1794	22.55497
	114.1798	22.55483
	114.1803	22.55456
	114.1804	22.55449
	114.1804	22.55445
	114.1805	22.55442
	114.1808	22.55427
	114.181	22.55412
	114.1811	22.55413
	114.1811	22.55417
	114.1812	22.55422
	114.1812	22.55461
	114.1811	22.55464
	114.1812	22.55469
	114.1812	22.55512
	114.1813	22.55516
	114.1815	22.55535
	114.1815	22.55537
	114.1817	22.55544
	114.1818	22.55545
	114.1821	22.55544
	114.1823	22.55539
	114.1825	22.55537
	114.1827	22.55529
	114.1827	22.55527
	114.1829	22.55527
	114.1833	22.55522
	114.1836	22.55521
	114.1839	22.55522
	114.1839	22.55523
	114.1843	22.55522
	114.1844	22.55518
	114.1847	22.55512
	114.1852	22.55504
	114.1858	22.55481
	114.1859	22.55481
	114.186	22.55479
	114.186	22.55477
	114.1861	22.55474
	114.1866	22.55465
	114.1866	22.55464
	114.1867	22.55464
	114.1868	22.55466
	114.1868	22.55469
	114.1869	22.55474
	114.1869	22.55481
	114.187	22.55496
	114.187	22.5551
	114.1871	22.55515
	114.1871	22.55529
	114.1872	22.55537
	114.1872	22.55549
	114.1873	22.55549
	114.1873	22.55558
	114.1874	22.5556
	114.1874	22.55562
	114.1877	22.55567
	114.1878	22.55567
	114.1878	22.55566
	114.1879	22.55564
	114.1881	22.55563
	114.1882	22.55558
	114.1883	22.55549
	114.1883	22.55541
	114.1885	22.55526
	114.1885	22.55507
	114.1886	22.55489
	114.1886	22.55481
	114.1888	22.55457
	114.1888	22.55448
	114.189	22.55437
	114.189	22.55432
	114.1891	22.5543
	114.1891	22.55428
	114.1892	22.55423
	114.1892	22.55421
	114.1893	22.5542
	114.1893	22.55421
	114.1896	22.55428
	114.19	22.55435
	114.1902	22.55437
	114.1905	22.55437
	114.1906	22.55441
	114.1906	22.55448
	114.1907	22.55464
	114.1907	22.55485
	114.1909	22.555
	114.1909	22.55506
	114.191	22.55516
	114.1911	22.55521
	114.1911	22.5553
	114.1912	22.55538
	114.1914	22.55543
	114.1915	22.55547
	114.1916	22.55558
	114.1917	22.55582
	114.192	22.55597
	114.1922	22.55603
	114.1923	22.55603
	114.1924	22.55596
	114.1924	22.5559
	114.1925	22.55579
	114.1927	22.55571
	114.1928	22.55564
	114.1932	22.5555
	114.1932	22.55546
	114.1942	22.55533
	114.1946	22.55535
	114.1946	22.55536
	114.1947	22.55537
	114.1947	22.55539
	114.1948	22.55538
	114.1948	22.55537
	114.195	22.55538
	114.1953	22.55557
	114.1953	22.55569
	114.1954	22.55573
	114.1955	22.55572
	114.1955	22.55571
	114.1957	22.5557
	114.1958	22.5557
	114.1958	22.55571
	114.1959	22.55572
	114.1959	22.55582
	114.196	22.55587
	114.196	22.55637
	114.1961	22.55644
	114.1961	22.5567
	114.196	22.55683
	114.1961	22.55686
	114.1961	22.55697
	114.1963	22.55698
	114.1963	22.55697
	114.1966	22.5569
	114.1967	22.55689
	114.1968	22.55686
	114.1969	22.55686
	114.1969	22.55683
	114.197	22.5568
	114.197	22.55678
	114.1971	22.55676
	114.1971	22.55671
	114.1974	22.55657
	114.1974	22.55654
	114.1976	22.55652
	114.1978	22.55657
	114.198	22.55664
	114.198	22.55671
	114.1981	22.55676
	114.1981	22.5567
	114.199	22.55663
	114.1992	22.55667
	114.1994	22.55678
	114.1995	22.5569
	114.1995	22.55693
	114.1997	22.55705
	114.1998	22.55717
	114.2001	22.55732
	114.2003	22.55745
	114.2005	22.55751
	114.2006	22.55752
	114.2007	22.55752
	114.2007	22.55749
	114.2008	22.55748
	114.201	22.55738
	114.201	22.55729
	114.2011	22.55724
	114.2011	22.5566
	114.2012	22.55656
	114.2012	22.55649
	114.2013	22.55641
	114.2013	22.55635
	114.2014	22.55631
	114.2015	22.55623
	114.2015	22.55609
	114.2016	22.55611
	114.2016	22.55612
	114.2018	22.55614
	114.2019	22.5562
	114.202	22.55621
	114.202	22.55622
	114.2021	22.55621
	114.2021	22.55618
	114.2023	22.55616
	114.2024	22.55614
	114.2024	22.55613
	114.2025	22.55612
	114.2028	22.55613
	114.2029	22.55611
	114.2031	22.55617
	114.2032	22.55616
	114.2033	22.55622
	114.2038	22.55623
	114.2039	22.55626
	114.2041	22.55629
	114.2041	22.55631
	114.2042	22.55634
	114.2045	22.55635
	114.2046	22.55633
	114.2049	22.55632
	114.205	22.55633
	114.2052	22.5564
	114.2054	22.55639
	114.2056	22.55643
	114.2058	22.55643
	114.2058	22.55645
	114.2059	22.55645
	114.2063	22.55655
	114.2071	22.55656
	114.2072	22.55659
	114.2072	22.55663
	114.2085	22.55694
	114.2086	22.55688
	114.209	22.55656
	114.2093	22.55644
	114.2095	22.5564
	114.2099	22.55617
	114.2099	22.55618
	114.2101	22.55613
	114.2101	22.55605
	114.2102	22.55606
	114.2103	22.556
	114.2103	22.55598
	114.2104	22.55594
	114.2106	22.5559
	114.2107	22.55593
	114.2113	22.55649
	114.2114	22.55644
	114.2114	22.5564
	114.2115	22.55638
	114.2115	22.55632
	114.2116	22.55626
	114.2117	22.55608
	114.2118	22.55601
	114.2118	22.55599
	114.2119	22.55596
	114.2119	22.55571
	114.212	22.55565
	114.212	22.55562
	114.2122	22.55559
	114.2122	22.55554
	114.2125	22.55541
	114.2125	22.55533
	114.2127	22.55511
	114.2127	22.55505
	114.2128	22.55504
	114.2128	22.55499
	114.2129	22.55499
	114.2129	22.55498
	114.213	22.55497
	114.2131	22.55494
	114.2131	22.55491
	114.2132	22.55489
	114.2132	22.55487
	114.2134	22.5548
	114.2141	22.55486
	114.2141	22.55487
	114.2144	22.5549
	114.2145	22.5549
	114.2145	22.55489
	114.2148	22.5549
	114.2148	22.55491
	114.2154	22.55505
	114.2156	22.55523
	114.2157	22.55529
	114.2157	22.55532
	114.216	22.55531
	114.2161	22.55529
	114.2161	22.55525
	114.2162	22.55514
	114.2162	22.5551
	114.2164	22.55511
	114.2164	22.55513
	114.2168	22.55524
	114.2168	22.55529
	114.2169	22.55532
	114.2169	22.55576
	114.2171	22.55585
	114.2172	22.55583
	114.2173	22.55583
	114.2173	22.55587
	114.2174	22.55591
	114.2175	22.55592
	114.2177	22.55598
	114.2177	22.55599
	114.2178	22.55601
	114.2179	22.55601
	114.2179	22.55605
	114.218	22.55601
	114.218	22.55597
	114.2181	22.5559
	114.2186	22.5554
	114.2187	22.55536
	114.2188	22.55524
	114.2189	22.55516
	114.219	22.55511
	114.2191	22.55497
	114.2192	22.55491
	114.2192	22.55486
	114.2193	22.55481
	114.2194	22.5546
	114.2194	22.55441
	114.2195	22.55436
	114.2195	22.55415
	114.2196	22.55413
	114.2196	22.55408
	114.2197	22.55406
	114.2197	22.55386
	114.2198	22.55381
	114.2198	22.55375
	114.2199	22.55371
	114.2199	22.55369
	114.22	22.55366
	114.22	22.55363
	114.2201	22.5536
	114.2202	22.55361
	114.2202	22.55365
	114.2204	22.55368
	114.2205	22.55362
	114.2205	22.55353
	114.2207	22.55333
	114.2208	22.55318
	114.2208	22.55301
	114.2209	22.55273
	114.2209	22.55267
	114.2208	22.55261
	114.2208	22.55254
	114.2209	22.55242
	114.2209	22.55226
	114.221	22.55221
	114.221	22.55214
	114.2211	22.55205
	114.2211	22.55196
	114.2212	22.5519
	114.2212	22.55181
	114.2215	22.55162
	114.2217	22.55162
	114.2219	22.55159
	114.2222	22.55147
	114.2226	22.55135
	114.2228	22.55127
	114.2229	22.55122
	114.2229	22.55118
	114.223	22.55112
	114.223	22.5511
	114.2232	22.55098
	114.2233	22.55095
	114.2237	22.551
	114.2241	22.551
	114.2243	22.55096
	114.2243	22.55088
	114.2244	22.55085
	114.2244	22.5506
	114.2245	22.55043
	114.2246	22.55018
	114.2246	22.55014
	114.225	22.54986
	114.2253	22.54954
	114.2253	22.54948
	114.2254	22.54941
	114.2255	22.54938
	114.2257	22.54903
	114.2258	22.54901
	114.2258	22.54895
	114.2259	22.54875
	114.2261	22.5485
	114.2262	22.5484
	114.2263	22.54836
	114.2265	22.5482
	114.2266	22.54815
	114.227	22.54802
	114.2269	22.548
	114.2269	22.54782
	114.2266	22.54708
	114.2266	22.54703
	114.2264	22.54679
	114.2262	22.54649
	114.2261	22.54637
	114.2259	22.54617
	114.2258	22.54603
	114.2257	22.54599
	114.2257	22.54591
	114.2256	22.54575
	114.2254	22.54531
	114.2254	22.54519
	114.2258	22.54457
	114.2259	22.54456
	114.2259	22.54453
	114.226	22.54432
	114.2261	22.54427
	114.2262	22.54418
	114.2261	22.54417
	114.2261	22.5441
	114.2263	22.54377
	114.2263	22.54373
	114.2264	22.5437
	114.2263	22.54367
	114.2336	22.54367
	114.2371	22.55072
	114.2487	22.55573
	114.276	22.5655
	114.3091	22.56667
	114.333	22.56833
	114.434	22.562
	114.4551	22.54497
	114.4549	22.46869
	114.456	22.46626
	114.4571	22.46394
	114.5025	22.36509
	114.5025	22.25733
END
END
