India_Himachal Pradesh
1
	75.87236	32.57602
	75.9076	32.61928
	75.92544	32.65407
	75.89868	32.68083
	75.89645	32.69109
	75.91384	32.74193
	75.9125	32.7571
	75.90002	32.77003
	75.8737	32.81374
	75.82107	32.84273
	75.7952	32.86905
	75.78762	32.89313
	75.80011	32.90384
	75.79833	32.91945
	75.80814	32.9297
	75.82821	32.93416
	75.88084	32.9248
	75.9134	32.90607
	75.93391	32.88421
	75.98743	32.90071
	76.01732	32.91766
	76.02802	32.93729
	76.05032	32.94442
	76.08199	32.96895
	76.09359	33.00463
	76.12837	33.00999
	76.15246	33.02292
	76.2372	33.03273
	76.25504	33.05236
	76.27511	33.10409
	76.29206	33.12015
	76.35584	33.15449
	76.39152	33.18661
	76.46913	33.17992
	76.49589	33.19597
	76.53424	33.19954
	76.54762	33.20935
	76.58197	33.20668
	76.5842	33.19285
	76.59713	33.18794
	76.59981	33.17367
	76.62701	33.16252
	76.6511	33.17189
	76.68544	33.17412
	76.69659	33.1817
	76.73004	33.17947
	76.75993	33.22452
	76.76216	33.23968
	76.75547	33.24949
	76.77821	33.25574
	76.80274	33.23656
	76.80854	33.24236
	76.81746	33.2486
	76.82906	33.24236
	76.813	33.22273
	76.81122	33.2156
	76.8188	33.20579
	76.80319	33.19374
	76.80676	33.18482
	76.79828	33.17323
	76.80364	33.15583
	76.82906	33.13755
	76.82817	33.13175
	76.83753	33.1264
	76.83396	33.1206
	76.84422	33.11212
	76.86875	33.12015
	76.87723	33.11435
	76.88481	33.0974
	76.89418	33.09517
	76.89061	33.0809
	76.91737	33.03362
	76.99854	32.98947
	77.03512	32.99973
	77.06589	32.98546
	77.07481	32.97341
	77.09711	32.97743
	77.10336	32.98724
	77.13636	32.98055
	77.13547	32.96093
	77.14617	32.95646
	77.14885	32.9413
	77.14617	32.91409
	77.15732	32.9132
	77.17382	32.93104
	77.18899	32.91008
	77.22824	32.89536
	77.22467	32.8802
	77.23894	32.86503
	77.24742	32.86503
	77.25812	32.87618
	77.28131	32.85567
	77.30495	32.85388
	77.32145	32.82222
	77.33617	32.81909
	77.35669	32.82534
	77.36249	32.84675
	77.35981	32.85968
	77.38746	32.88555
	77.39728	32.88689
	77.41021	32.87841
	77.42582	32.88376
	77.43608	32.86592
	77.45526	32.86191
	77.48469	32.88644
	77.49451	32.88153
	77.52305	32.88956
	77.54491	32.91186
	77.56944	32.92168
	77.58371	32.94398
	77.61315	32.9413
	77.65329	32.95959
	77.66533	32.9859
	77.6796	32.97787
	77.69521	32.97787
	77.70369	32.96628
	77.71261	32.97163
	77.79021	32.90562
	77.79244	32.89804
	77.78709	32.89179
	77.77282	32.8909
	77.76122	32.86503
	77.80805	32.83604
	77.825	32.84006
	77.84775	32.82846
	77.86113	32.81597
	77.86916	32.80036
	77.86693	32.7901
	77.88075	32.77538
	77.89949	32.77538
	77.9151	32.76602
	77.91197	32.73658
	77.91866	32.73078
	77.9093	32.72142
	77.90305	32.69332
	77.92	32.67949
	77.93873	32.64782
	77.95256	32.64024
	77.95434	32.62597
	77.98244	32.58672
	78.03597	32.59207
	78.04132	32.60545
	78.03463	32.61571
	78.03373	32.63578
	78.0654	32.62419
	78.07878	32.65273
	78.0935	32.6621
	78.1216	32.64247
	78.13587	32.67013
	78.15237	32.67905
	78.17066	32.67726
	78.18404	32.66388
	78.21303	32.66923
	78.2331	32.68351
	78.23667	32.69466
	78.29554	32.71294
	78.29822	32.72498
	78.28752	32.73792
	78.3446	32.76334
	78.37137	32.762
	78.37137	32.73391
	78.37761	32.71919
	78.36334	32.67191
	78.37092	32.63801
	78.38876	32.62329
	78.33167	32.58494
	78.29644	32.57736
	78.29911	32.52919
	78.2786	32.50778
	78.31026	32.47611
	78.38252	32.52963
	78.39504	32.52987
	78.39576	32.5291
	78.39638	32.52869
	78.39724	32.52864
	78.39784	32.52854
	78.3987	32.52794
	78.39937	32.52784
	78.39955	32.52724
	78.39991	32.52709
	78.40088	32.52704
	78.40165	32.52709
	78.40208	32.52698
	78.40296	32.52653
	78.40531	32.52615
	78.40554	32.52615
	78.40611	32.52618
	78.40697	32.52606
	78.40773	32.52549
	78.40853	32.52425
	78.40921	32.5236
	78.40977	32.52325
	78.41044	32.52297
	78.41087	32.52272
	78.41036	32.52195
	78.41173	32.51988
	78.41199	32.51917
	78.41232	32.51775
	78.41273	32.5174
	78.41376	32.51687
	78.41574	32.51627
	78.41654	32.5158
	78.41796	32.51465
	78.41879	32.51409
	78.41973	32.51326
	78.42148	32.51157
	78.42266	32.50945
	78.42334	32.5088
	78.42414	32.50818
	78.4276	32.50492
	78.42804	32.50413
	78.42736	32.503
	78.42671	32.50164
	78.42609	32.5012
	78.42627	32.50008
	78.42674	32.49863
	78.42739	32.49718
	78.4283	32.49544
	78.42955	32.4939
	78.4299	32.49331
	78.43026	32.49251
	78.43108	32.49157
	78.43188	32.4908
	78.43295	32.49029
	78.43386	32.48997
	78.43478	32.48938
	78.43558	32.48867
	78.43617	32.48781
	78.43658	32.48743
	78.43756	32.48698
	78.4385	32.48624
	78.43904	32.48557
	78.43933	32.48483
	78.43951	32.48394
	78.43966	32.48273
	78.43986	32.48214
	78.43998	32.48149
	78.44004	32.48036
	78.44042	32.47983
	78.44101	32.47933
	78.44169	32.47906
	78.44229	32.47868
	78.44305	32.478
	78.44373	32.47752
	78.44507	32.47628
	78.44512	32.47622
	78.44574	32.47578
	78.44651	32.47554
	78.44761	32.4754
	78.44973	32.47531
	78.45065	32.47501
	78.4513	32.47469
	78.45177	32.47419
	78.4521	32.47351
	78.45263	32.47286
	78.45346	32.47218
	78.4544	32.47156
	78.45497	32.47132
	78.45526	32.46904
	78.45514	32.46851
	78.45467	32.46765
	78.45399	32.4668
	78.45346	32.46538
	78.45316	32.46505
	78.4526	32.4647
	78.45204	32.46417
	78.45163	32.46357
	78.45068	32.46065
	78.45142	32.45967
	78.45343	32.45864
	78.45423	32.45799
	78.45603	32.45731
	78.45644	32.4569
	78.4568	32.45663
	78.45748	32.45666
	78.45836	32.45657
	78.46029	32.45592
	78.46105	32.45583
	78.46165	32.45548
	78.46227	32.45494
	78.46283	32.45432
	78.4628	32.45335
	78.4625	32.4524
	78.46241	32.4514
	78.46277	32.44933
	78.46286	32.44844
	78.46303	32.44782
	78.46348	32.44708
	78.46416	32.44661
	78.46504	32.44587
	78.46581	32.44557
	78.46652	32.44516
	78.46705	32.44475
	78.46871	32.44466
	78.46924	32.44445
	78.4698	32.44398
	78.47054	32.44297
	78.47175	32.44212
	78.4722	32.44188
	78.4722	32.44132
	78.47202	32.44082
	78.47155	32.43999
	78.47146	32.43952
	78.47167	32.43887
	78.47193	32.43765
	78.47193	32.43641
	78.47211	32.43535
	78.47202	32.43452
	78.47193	32.43199
	78.47175	32.43091
	78.47175	32.42985
	78.47163	32.42829
	78.47161	32.42728
	78.47146	32.42607
	78.47128	32.42521
	78.47096	32.4243
	78.46998	32.42276
	78.4698	32.42223
	78.46995	32.42157
	78.46995	32.42045
	78.46977	32.41977
	78.46986	32.41865
	78.47116	32.41578
	78.47131	32.41528
	78.47134	32.41445
	78.47282	32.41194
	78.47199	32.41117
	78.4714	32.41031
	78.47107	32.40993
	78.47128	32.40887
	78.4714	32.40783
	78.47134	32.4065
	78.47107	32.40446
	78.47107	32.40381
	78.4706	32.40307
	78.4701	32.40272
	78.47013	32.40204
	78.47051	32.39938
	78.47084	32.39831
	78.47096	32.39764
	78.47093	32.3971
	78.4706	32.39645
	78.47001	32.39565
	78.46838	32.39388
	78.46575	32.39385
	78.46448	32.39353
	78.46321	32.39305
	78.46073	32.39258
	78.4594	32.39208
	78.4583	32.39181
	78.45748	32.39169
	78.45695	32.39104
	78.45659	32.38989
	78.45615	32.38936
	78.45538	32.38865
	78.45446	32.38821
	78.45431	32.38729
	78.45434	32.38646
	78.45476	32.38519
	78.45529	32.3838
	78.45594	32.38262
	78.45736	32.38032
	78.4581	32.37952
	78.45839	32.37929
	78.45937	32.37854
	78.46055	32.37777
	78.46132	32.37721
	78.46224	32.37612
	78.46292	32.3755
	78.46478	32.37455
	78.46516	32.37426
	78.46534	32.37337
	78.46593	32.37269
	78.46626	32.37183
	78.46679	32.36997
	78.46694	32.3692
	78.46714	32.36876
	78.46765	32.36826
	78.46818	32.3674
	78.46877	32.3658
	78.46942	32.36492
	78.46986	32.36471
	78.47155	32.36468
	78.47273	32.36456
	78.47409	32.36465
	78.47583	32.36498
	78.47755	32.36551
	78.48098	32.36648
	78.48257	32.36394
	78.48355	32.36249
	78.48411	32.36146
	78.48523	32.35895
	78.48567	32.35776
	78.48567	32.35611
	78.48482	32.35584
	78.48413	32.35551
	78.48411	32.35491
	78.48307	32.35381
	78.48213	32.35236
	78.48086	32.3515
	78.48016	32.35123
	78.47962	32.34981
	78.4804	32.34894
	78.48201	32.34746
	78.48133	32.34608
	78.48107	32.3443
	78.48104	32.34341
	78.48092	32.3431
	78.48018	32.3425
	78.47963	32.3419
	78.4789	32.34134
	78.47804	32.3404
	78.47794	32.33992
	78.47814	32.33868
	78.47809	32.33783
	78.47775	32.33677
	78.47735	32.33581
	78.47719	32.33503
	78.47679	32.33378
	78.47594	32.33233
	78.47679	32.33128
	78.4777	32.33039
	78.47723	32.32943
	78.47691	32.32845
	78.47702	32.32793
	78.47811	32.32682
	78.47835	32.32626
	78.47854	32.32559
	78.47881	32.32509
	78.47946	32.32467
	78.47995	32.32472
	78.48021	32.32481
	78.48071	32.32477
	78.48138	32.32457
	78.483	32.32439
	78.48376	32.32456
	78.48448	32.32456
	78.48513	32.32426
	78.48592	32.324
	78.48665	32.32393
	78.4875	32.32397
	78.48788	32.32407
	78.48822	32.32417
	78.48875	32.32476
	78.48944	32.32475
	78.49016	32.32464
	78.49059	32.32441
	78.49126	32.32395
	78.49196	32.32388
	78.49247	32.32377
	78.49302	32.32363
	78.49351	32.3234
	78.49395	32.3234
	78.49542	32.32382
	78.49616	32.32408
	78.49675	32.32443
	78.49736	32.32456
	78.49788	32.32359
	78.49826	32.32297
	78.4985	32.32259
	78.49912	32.32174
	78.49959	32.32135
	78.50057	32.32024
	78.50109	32.32001
	78.50138	32.31984
	78.50164	32.3196
	78.50236	32.31924
	78.50228	32.31842
	78.50314	32.31515
	78.50345	32.31192
	78.5038	32.30978
	78.50469	32.30837
	78.5066	32.3067
	78.50765	32.30557
	78.50902	32.30471
	78.50996	32.30419
	78.51038	32.30306
	78.50992	32.3027
	78.50683	32.29934
	78.50551	32.29891
	78.50469	32.29798
	78.50411	32.29696
	78.50321	32.29654
	78.50173	32.2963
	78.50049	32.29595
	78.49963	32.29545
	78.49916	32.29502
	78.49878	32.29383
	78.4988	32.29318
	78.49922	32.29257
	78.49935	32.29218
	78.49891	32.29153
	78.49874	32.29077
	78.49843	32.28972
	78.49696	32.28673
	78.49683	32.28606
	78.49495	32.28424
	78.49303	32.2832
	78.49277	32.28169
	78.49178	32.28007
	78.49089	32.27896
	78.48991	32.278
	78.48909	32.27761
	78.48856	32.27659
	78.48836	32.27564
	78.48955	32.27495
	78.49057	32.27449
	78.49131	32.27392
	78.49241	32.27515
	78.49315	32.27549
	78.49439	32.27573
	78.4956	32.27589
	78.49674	32.27595
	78.49773	32.27573
	78.49854	32.2753
	78.50014	32.27385
	78.50123	32.2732
	78.50175	32.27276
	78.50342	32.27165
	78.50435	32.27112
	78.50528	32.27047
	78.50583	32.26985
	78.50642	32.26933
	78.50763	32.2689
	78.50856	32.26828
	78.50942	32.26778
	78.51134	32.26658
	78.51224	32.26627
	78.51369	32.26602
	78.51471	32.26577
	78.5158	32.26531
	78.51685	32.26469
	78.51709	32.26392
	78.51762	32.26314
	78.51836	32.26249
	78.51898	32.26212
	78.52	32.26206
	78.52019	32.26197
	78.52037	32.26116
	78.52071	32.26042
	78.52102	32.25959
	78.52133	32.25853
	78.5213	32.25674
	78.52152	32.25612
	78.52192	32.25541
	78.52257	32.25442
	78.52368	32.25238
	78.52378	32.25207
	78.52365	32.25055
	78.52375	32.2499
	78.52418	32.24919
	78.52449	32.24848
	78.52505	32.24659
	78.52538	32.24625
	78.52619	32.24582
	78.52715	32.24557
	78.52755	32.24517
	78.52826	32.24471
	78.52903	32.24446
	78.5299	32.24458
	78.53108	32.24433
	78.53179	32.24381
	78.53228	32.24325
	78.53302	32.24146
	78.53358	32.24056
	78.53414	32.23979
	78.53488	32.23908
	78.53569	32.23846
	78.53646	32.23799
	78.53723	32.23738
	78.5376	32.23716
	78.53779	32.23676
	78.53782	32.23521
	78.53807	32.23419
	78.53903	32.2323
	78.53961	32.23134
	78.54003	32.23011
	78.54176	32.22945
	78.54223	32.22884
	78.54274	32.22843
	78.54278	32.22727
	78.54315	32.22648
	78.54319	32.22525
	78.54304	32.22247
	78.54326	32.22188
	78.54573	32.22015
	78.54728	32.21913
	78.54885	32.21795
	78.5504	32.21644
	78.55195	32.21526
	78.55284	32.21492
	78.55362	32.2143
	78.55421	32.21328
	78.55464	32.2131
	78.55498	32.21155
	78.55541	32.21078
	78.55594	32.21038
	78.55648	32.20923
	78.55743	32.2082
	78.55795	32.20743
	78.55876	32.20576
	78.55906	32.20539
	78.55921	32.20389
	78.55955	32.20293
	78.55992	32.20224
	78.56083	32.20271
	78.56127	32.20318
	78.56233	32.20352
	78.56383	32.20374
	78.56501	32.20365
	78.56614	32.20311
	78.56835	32.20234
	78.57081	32.20224
	78.57187	32.20205
	78.57288	32.20205
	78.57371	32.2022
	78.57455	32.20254
	78.57556	32.2033
	78.57605	32.20357
	78.57728	32.2037
	78.57762	32.2035
	78.57836	32.20345
	78.57944	32.20384
	78.58011	32.20389
	78.58087	32.20372
	78.58193	32.20318
	78.58281	32.20288
	78.5849	32.20185
	78.58694	32.20143
	78.58808	32.20104
	78.58894	32.20101
	78.59115	32.20109
	78.59235	32.2007
	78.59353	32.19998
	78.5938	32.19977
	78.59469	32.19905
	78.59575	32.19799
	78.59658	32.19681
	78.5973	32.19553
	78.59781	32.19482
	78.59853	32.19411
	78.59902	32.19391
	78.59895	32.19307
	78.5988	32.19268
	78.59862	32.18997
	78.5987	32.18936
	78.59895	32.1887
	78.59912	32.18788
	78.59934	32.18624
	78.59966	32.18594
	78.60003	32.18547
	78.6002	32.18461
	78.6003	32.18331
	78.6002	32.1811
	78.60013	32.18043
	78.59985	32.17928
	78.59981	32.17823
	78.59981	32.17797
	78.60003	32.17687
	78.60008	32.17632
	78.60008	32.17527
	78.59998	32.17448
	78.59968	32.17392
	78.59786	32.17362
	78.59701	32.17305
	78.59646	32.17261
	78.59619	32.17195
	78.59585	32.17182
	78.59543	32.17148
	78.59481	32.17079
	78.5942	32.17025
	78.59339	32.16932
	78.59144	32.16792
	78.59159	32.16715
	78.59258	32.16575
	78.59314	32.1642
	78.59376	32.16332
	78.59437	32.16221
	78.59513	32.16128
	78.5957	32.16022
	78.59612	32.15911
	78.59675	32.1581
	78.5978	32.15786
	78.60003	32.15708
	78.60043	32.1569
	78.60083	32.15643
	78.60145	32.15606
	78.60216	32.15603
	78.60253	32.15566
	78.60328	32.15541
	78.60362	32.15507
	78.6038	32.15458
	78.60408	32.15421
	78.60507	32.15371
	78.60591	32.15312
	78.60761	32.15167
	78.60835	32.1508
	78.60959	32.15096
	78.61058	32.15124
	78.61132	32.1513
	78.61218	32.15025
	78.6129	32.14919
	78.61345	32.14855
	78.61435	32.14783
	78.61444	32.14781
	78.61577	32.14737
	78.61618	32.14669
	78.61679	32.14582
	78.61853	32.14378
	78.61939	32.14319
	78.62051	32.1422
	78.62264	32.14053
	78.62357	32.13998
	78.62465	32.13951
	78.62546	32.13899
	78.62575	32.13872
	78.62626	32.13828
	78.62682	32.13794
	78.62716	32.1371
	78.62765	32.13639
	78.62833	32.13555
	78.62951	32.1337
	78.62988	32.13252
	78.63084	32.12887
	78.63106	32.12742
	78.63093	32.12655
	78.63068	32.12559
	78.63177	32.12562
	78.6331	32.12547
	78.63443	32.12559
	78.63535	32.12562
	78.63641	32.12541
	78.63811	32.12494
	78.63981	32.12463
	78.64123	32.12423
	78.64278	32.12368
	78.64411	32.12278
	78.64528	32.12179
	78.64729	32.12024
	78.64798	32.11956
	78.64943	32.11916
	78.65141	32.11851
	78.65308	32.11801
	78.65586	32.11656
	78.65673	32.116
	78.658	32.1161
	78.65877	32.11603
	78.65957	32.11573
	78.66022	32.1156
	78.66112	32.1156
	78.66211	32.11582
	78.66279	32.11607
	78.6636	32.11662
	78.66443	32.11681
	78.66644	32.11647
	78.66777	32.11656
	78.66913	32.11678
	78.6708	32.11687
	78.67257	32.11718
	78.67359	32.11715
	78.6751	32.11557
	78.67479	32.11421
	78.6754	32.11363
	78.67662	32.11347
	78.67961	32.11338
	78.68193	32.11348
	78.68283	32.11363
	78.68552	32.10955
	78.68623	32.10785
	78.68648	32.1067
	78.68648	32.10587
	78.68756	32.10448
	78.68824	32.1033
	78.6887	32.10302
	78.6896	32.10203
	78.6905	32.10148
	78.69078	32.1012
	78.69115	32.10052
	78.69158	32.10018
	78.69205	32.09882
	78.69266	32.09653
	78.69177	32.09544
	78.69226	32.0934
	78.69177	32.09306
	78.69133	32.09253
	78.69109	32.09049
	78.69072	32.08957
	78.6905	32.08916
	78.69081	32.08839
	78.69075	32.08811
	78.69053	32.08799
	78.68994	32.08749
	78.68951	32.08728
	78.68923	32.08706
	78.68861	32.08613
	78.68833	32.08601
	78.68731	32.08601
	78.68264	32.0801
	78.68431	32.0792
	78.68484	32.07868
	78.68524	32.07806
	78.68611	32.07515
	78.68654	32.07459
	78.6875	32.0736
	78.69153	32.07049
	78.69444	32.06852
	78.69514	32.06819
	78.69833	32.0681
	78.69913	32.06796
	78.70025	32.06786
	78.7018	32.06721
	78.70386	32.06599
	78.70574	32.06444
	78.70644	32.06289
	78.70658	32.05975
	78.70743	32.05675
	78.70832	32.05605
	78.70907	32.05558
	78.70944	32.05506
	78.70954	32.0545
	78.71001	32.05432
	78.71094	32.05417
	78.71118	32.05295
	78.71094	32.05174
	78.71094	32.05094
	78.71158	32.04956
	78.71238	32.04827
	78.7127	32.04663
	78.71331	32.04586
	78.71423	32.04538
	78.71547	32.04498
	78.71652	32.04482
	78.71676	32.04466
	78.717	32.04394
	78.71736	32.0435
	78.718	32.04325
	78.71824	32.04245
	78.71857	32.04209
	78.71933	32.04157
	78.72025	32.04125
	78.72089	32.04089
	78.72138	32.04044
	78.72194	32.03976
	78.72206	32.03904
	78.72214	32.03811
	78.72206	32.03679
	78.72142	32.03595
	78.7213	32.03526
	78.72122	32.03478
	78.72081	32.03137
	78.72089	32.02981
	78.7217	32.029
	78.7229	32.02796
	78.72459	32.02627
	78.72479	32.02286
	78.72519	32.02145
	78.7268	32.01913
	78.72756	32.01692
	78.72828	32.01636
	78.73005	32.01555
	78.73109	32.01475
	78.73206	32.01427
	78.73374	32.01355
	78.73426	32.01322
	78.73406	32.01166
	78.73366	32.01098
	78.73354	32.01033
	78.7335	32.00965
	78.73362	32.00873
	78.7333	32.00789
	78.73362	32.00724
	78.73374	32.00624
	78.73438	32.00495
	78.73555	32.00395
	78.7382	32.00186
	78.73896	32.00158
	78.7398	32.00142
	78.74189	32.0017
	78.7443	32.0021
	78.74611	32.00214
	78.74731	32.00227
	78.74779	32.00275
	78.7488	32.00323
	78.75	32.00339
	78.75104	32.00319
	78.75249	32.00275
	78.75365	32.00227
	78.75458	32.00202
	78.75838	32.00304
	78.76555	32.00388
	78.76686	32.00357
	78.76754	32.00174
	78.76822	31.99891
	78.76967	31.99693
	78.77156	31.99592
	78.77397	31.99616
	78.77726	31.9952
	78.77806	31.9948
	78.77963	31.99359
	78.77887	31.99271
	78.77766	31.99172
	78.77669	31.99042
	78.77627	31.98951
	78.77564	31.98857
	78.77511	31.98801
	78.77411	31.98624
	78.77391	31.98546
	78.77395	31.98443
	78.77436	31.98323
	78.77494	31.98235
	78.77562	31.98101
	78.77605	31.97592
	78.77457	31.97512
	78.77355	31.97432
	78.77431	31.97267
	78.77668	31.96948
	78.77807	31.96837
	78.77891	31.96712
	78.77912	31.96665
	78.77724	31.96452
	78.77582	31.96323
	78.77496	31.96306
	78.77311	31.96302
	78.77152	31.96314
	78.76781	31.96225
	78.76739	31.96146
	78.76655	31.96115
	78.76582	31.95984
	78.76477	31.95874
	78.76545	31.9568
	78.7643	31.95418
	78.7644	31.95167
	78.76398	31.95104
	78.76372	31.94978
	78.7633	31.94905
	78.7634	31.94769
	78.76791	31.94556
	78.76838	31.94372
	78.76864	31.94148
	78.76807	31.93798
	78.76725	31.93592
	78.76832	31.93529
	78.76892	31.93078
	78.76788	31.92841
	78.76627	31.92639
	78.7656	31.9261
	78.76374	31.92657
	78.76061	31.92594
	78.76001	31.92556
	78.75869	31.9238
	78.75865	31.92342
	78.75897	31.92187
	78.75884	31.92143
	78.75376	31.91473
	78.7513	31.91369
	78.74959	31.91303
	78.74943	31.91255
	78.74943	31.91192
	78.74984	31.91081
	78.74962	31.91022
	78.74991	31.90886
	78.75016	31.908
	78.74918	31.90703
	78.74697	31.90579
	78.74179	31.90241
	78.74495	31.8973
	78.7459	31.89537
	78.74596	31.8949
	78.74577	31.8936
	78.74215	31.88853
	78.74001	31.88727
	78.73945	31.88607
	78.7442	31.87852
	78.74599	31.87645
	78.74696	31.87456
	78.74752	31.87262
	78.74631	31.87087
	78.74535	31.86796
	78.7435	31.86505
	78.74272	31.86076
	78.73004	31.83061
	78.7275	31.82898
	78.72595	31.82822
	78.72396	31.82737
	78.72241	31.82642
	78.72089	31.82534
	78.71796	31.82307
	78.7166	31.82178
	78.71568	31.8208
	78.71534	31.81998
	78.71518	31.81897
	78.71477	31.81846
	78.71379	31.81773
	78.7088	31.81432
	78.70501	31.81104
	78.70346	31.80848
	78.70267	31.80772
	78.7022	31.80709
	78.7021	31.80649
	78.70245	31.80554
	78.70302	31.80472
	78.70419	31.80276
	78.70454	31.80172
	78.7046	31.80077
	78.70441	31.7997
	78.70343	31.7954
	78.70365	31.79414
	78.70406	31.79269
	78.70422	31.79168
	78.7049	31.79036
	78.70555	31.78832
	78.70725	31.7849
	78.70725	31.78412
	78.70668	31.78321
	78.7059	31.78269
	78.70412	31.78108
	78.70434	31.77991
	78.70464	31.77974
	78.70469	31.77935
	78.70456	31.779
	78.70499	31.77839
	78.70538	31.77761
	78.70594	31.77696
	78.70586	31.77466
	78.70599	31.77423
	78.70642	31.77384
	78.70659	31.77327
	78.7072	31.77267
	78.70772	31.77267
	78.70781	31.77241
	78.70816	31.77206
	78.70915	31.77197
	78.70963	31.7711
	78.70998	31.7708
	78.71147	31.77046
	78.71213	31.77026
	78.71259	31.76989
	78.71309	31.76937
	78.71402	31.76904
	78.71505	31.76855
	78.71626	31.76788
	78.71639	31.76719
	78.71676	31.76692
	78.71702	31.76649
	78.71748	31.76593
	78.71811	31.7654
	78.7187	31.76517
	78.71933	31.76342
	78.71953	31.76134
	78.72141	31.76128
	78.72207	31.76118
	78.723	31.76015
	78.72405	31.75999
	78.72547	31.75807
	78.726	31.75566
	78.72617	31.75431
	78.7258	31.75272
	78.72575	31.75265
	78.72544	31.75226
	78.72495	31.75203
	78.72435	31.75193
	78.72478	31.7508
	78.72514	31.75014
	78.72584	31.74912
	78.72627	31.74826
	78.72696	31.74777
	78.72808	31.74645
	78.72944	31.74546
	78.72907	31.7447
	78.72858	31.74417
	78.72723	31.74321
	78.72762	31.74143
	78.72818	31.74067
	78.72848	31.74001
	78.72894	31.73859
	78.7295	31.73727
	78.72997	31.73631
	78.73046	31.73561
	78.73099	31.73528
	78.73119	31.73466
	78.73112	31.73443
	78.73072	31.7339
	78.73	31.7332
	78.73013	31.73294
	78.73063	31.73244
	78.73116	31.73182
	78.73172	31.73079
	78.73274	31.7302
	78.73264	31.72934
	78.73267	31.72865
	78.733	31.72739
	78.73333	31.72696
	78.73399	31.7263
	78.73439	31.72574
	78.73442	31.72488
	78.73432	31.72383
	78.73522	31.72349
	78.73634	31.72316
	78.73693	31.72308
	78.737	31.72306
	78.73746	31.72254
	78.73786	31.72194
	78.73832	31.72105
	78.73885	31.72036
	78.73925	31.72016
	78.7407	31.71973
	78.74103	31.71953
	78.74133	31.7192
	78.74152	31.71907
	78.74285	31.7189
	78.74308	31.71821
	78.74327	31.71732
	78.74327	31.71606
	78.74337	31.71474
	78.74437	31.7126
	78.74476	31.71128
	78.74506	31.70989
	78.74519	31.70844
	78.74516	31.70698
	78.74502	31.70563
	78.74549	31.705
	78.74631	31.70417
	78.74707	31.70285
	78.74753	31.70163
	78.7481	31.70114
	78.74866	31.70044
	78.74998	31.69945
	78.75206	31.69764
	78.75335	31.69605
	78.75364	31.69533
	78.75374	31.6946
	78.75371	31.694
	78.75328	31.69298
	78.75298	31.69176
	78.75302	31.6908
	78.75368	31.68895
	78.75249	31.68756
	78.75163	31.68694
	78.75034	31.68624
	78.74938	31.68542
	78.74886	31.68476
	78.74945	31.68321
	78.74978	31.68251
	78.75014	31.68185
	78.75087	31.68083
	78.75113	31.68017
	78.75219	31.67987
	78.75282	31.67954
	78.75355	31.67904
	78.75421	31.67812
	78.75728	31.67663
	78.75781	31.67627
	78.76035	31.67511
	78.76101	31.67492
	78.7624	31.67482
	78.76349	31.67478
	78.76464	31.67488
	78.76778	31.67465
	78.76791	31.67482
	78.76917	31.67495
	78.77042	31.67535
	78.7724	31.67581
	78.77359	31.6767
	78.77488	31.6767
	78.77518	31.67647
	78.77557	31.67637
	78.77587	31.67657
	78.77696	31.6767
	78.77734	31.67694
	78.77782	31.6771
	78.77901	31.67716
	78.7797	31.67726
	78.78	31.67746
	78.78037	31.67758
	78.78053	31.67762
	78.78112	31.67772
	78.78241	31.67762
	78.7831	31.67762
	78.78403	31.67789
	78.78512	31.67802
	78.78565	31.67779
	78.78624	31.67766
	78.78693	31.67772
	78.78809	31.67792
	78.78875	31.67818
	78.78924	31.67865
	78.79004	31.67967
	78.79582	31.68195
	78.79677	31.68225
	78.7979	31.68218
	78.79806	31.68172
	78.79843	31.68159
	78.79876	31.68155
	78.79882	31.68149
	78.79932	31.68033
	78.79968	31.6801
	78.79984	31.67981
	78.80084	31.67776
	78.80084	31.67746
	78.80074	31.67696
	78.79975	31.67551
	78.79922	31.67373
	78.79846	31.67204
	78.79823	31.67115
	78.79819	31.66957
	78.79806	31.66884
	78.79882	31.66722
	78.79892	31.6663
	78.79889	31.66507
	78.79892	31.66448
	78.79925	31.66359
	78.79955	31.6626
	78.79965	31.6621
	78.79951	31.66154
	78.79922	31.66101
	78.79882	31.66065
	78.79846	31.66015
	78.79839	31.65943
	78.79826	31.65893
	78.79889	31.65708
	78.79985	31.65546
	78.79971	31.6547
	78.79975	31.65404
	78.79961	31.65352
	78.79968	31.65309
	78.79994	31.65253
	78.80054	31.6519
	78.80146	31.65064
	78.8016	31.64992
	78.8016	31.64902
	78.80166	31.64807
	78.80189	31.64757
	78.80249	31.64711
	78.80338	31.64652
	78.80444	31.64493
	78.80516	31.64367
	78.80566	31.64295
	78.80619	31.64242
	78.80688	31.64202
	78.8081	31.63958
	78.80843	31.63912
	78.80913	31.63879
	78.81002	31.63849
	78.81097	31.63822
	78.81193	31.63803
	78.81266	31.6378
	78.81368	31.63776
	78.81454	31.63783
	78.81573	31.63763
	78.81689	31.63766
	78.81755	31.63809
	78.81791	31.63796
	78.81903	31.63724
	78.8195	31.63611
	78.82009	31.63535
	78.82072	31.63515
	78.82098	31.63472
	78.8222	31.63314
	78.8228	31.63274
	78.82346	31.63195
	78.82393	31.63188
	78.82488	31.63185
	78.82484	31.63169
	78.82498	31.63079
	78.82534	31.6304
	78.82617	31.62984
	78.82676	31.62957
	78.82745	31.62937
	78.82759	31.62845
	78.82838	31.62716
	78.82858	31.62644
	78.82835	31.62591
	78.82838	31.62505
	78.82894	31.62492
	78.83039	31.62396
	78.83188	31.62412
	78.83261	31.62412
	78.83373	31.62402
	78.83426	31.62389
	78.83482	31.62363
	78.83538	31.62326
	78.83634	31.62293
	78.8372	31.62277
	78.83839	31.6228
	78.83898	31.62297
	78.83967	31.62293
	78.83997	31.62257
	78.84139	31.62208
	78.84162	31.62191
	78.84195	31.62079
	78.84225	31.62062
	78.84258	31.61957
	78.84288	31.61897
	78.84314	31.61864
	78.84314	31.61758
	78.84327	31.61699
	78.84347	31.61656
	78.84383	31.616
	78.84413	31.61514
	78.84433	31.61425
	78.84473	31.61316
	78.84476	31.61191
	78.84552	31.61134
	78.84618	31.61072
	78.84664	31.60916
	78.84661	31.60685
	78.84615	31.60609
	78.84499	31.60487
	78.84469	31.60424
	78.8443	31.60362
	78.8442	31.60315
	78.84367	31.602
	78.84311	31.6013
	78.84212	31.60058
	78.84156	31.60002
	78.84122	31.59939
	78.84103	31.59837
	78.8407	31.59744
	78.83984	31.59734
	78.83891	31.59731
	78.83802	31.59744
	78.83554	31.59761
	78.83294	31.59797
	78.83277	31.59744
	78.83198	31.59609
	78.83181	31.5948
	78.83138	31.59434
	78.83056	31.59374
	78.83003	31.59325
	78.82924	31.59212
	78.82831	31.59093
	78.82745	31.59011
	78.82716	31.58958
	78.82656	31.5875
	78.82623	31.58697
	78.82511	31.58611
	78.82491	31.58565
	78.82326	31.58509
	78.82313	31.58416
	78.82286	31.58354
	78.8224	31.58294
	78.82224	31.58241
	78.82243	31.58162
	78.8224	31.57865
	78.82148	31.57848
	78.82029	31.57802
	78.8189	31.57756
	78.81732	31.57729
	78.81609	31.57723
	78.8149	31.57726
	78.81372	31.5765
	78.81319	31.57644
	78.81173	31.5768
	78.81081	31.57677
	78.81021	31.5766
	78.80959	31.5767
	78.80908	31.57683
	78.80846	31.577
	78.80774	31.57726
	78.80718	31.57739
	78.80645	31.57723
	78.80671	31.57432
	78.80658	31.57323
	78.80625	31.57211
	78.80483	31.56831
	78.80341	31.56557
	78.80193	31.56504
	78.80133	31.56471
	78.80064	31.56402
	78.80014	31.56369
	78.79872	31.56326
	78.7972	31.56257
	78.79502	31.56191
	78.79241	31.56098
	78.78895	31.55949
	78.78307	31.55623
	78.78228	31.55609
	78.78119	31.55609
	78.78013	31.55586
	78.77944	31.55467
	78.77914	31.55405
	78.77878	31.55246
	78.77739	31.55002
	78.77716	31.54896
	78.77706	31.54685
	78.77686	31.54589
	78.7765	31.54519
	78.77521	31.54358
	78.77193	31.54369
	78.77045	31.54378
	78.7694	31.54391
	78.76847	31.54447
	78.76791	31.54463
	78.76689	31.54519
	78.7656	31.54629
	78.76421	31.54757
	78.76302	31.54813
	78.76164	31.5486
	78.76101	31.54665
	78.76035	31.54529
	78.75956	31.5442
	78.75876	31.54335
	78.75814	31.54245
	78.75691	31.54209
	78.75606	31.54196
	78.7551	31.5417
	78.75477	31.54133
	78.75421	31.5411
	78.75308	31.5408
	78.75203	31.54084
	78.75077	31.54103
	78.74958	31.5411
	78.74846	31.54107
	78.74701	31.5409
	78.74621	31.54097
	78.74555	31.5412
	78.7443	31.54219
	78.74314	31.54103
	78.74258	31.54031
	78.74232	31.53971
	78.74139	31.53889
	78.7406	31.53803
	78.7402	31.53724
	78.73954	31.53684
	78.73849	31.53641
	78.73654	31.53651
	78.73528	31.53648
	78.73429	31.53509
	78.73356	31.53456
	78.7334	31.5342
	78.73297	31.53403
	78.73248	31.53347
	78.73191	31.53304
	78.73092	31.53258
	78.73082	31.53202
	78.73069	31.53063
	78.73053	31.5301
	78.7304	31.52911
	78.73016	31.52891
	78.7295	31.52716
	78.72927	31.52637
	78.72934	31.52568
	78.72911	31.52512
	78.72891	31.52337
	78.72841	31.52178
	78.72798	31.52066
	78.72746	31.5198
	78.72746	31.51934
	78.72726	31.51835
	78.72683	31.51772
	78.72676	31.51736
	78.72633	31.51689
	78.72584	31.51623
	78.72564	31.51544
	78.72435	31.51448
	78.72313	31.51376
	78.72217	31.51336
	78.72178	31.5124
	78.72171	31.51201
	78.72171	31.51118
	78.72145	31.51045
	78.72098	31.50989
	78.72045	31.50887
	78.72029	31.50814
	78.72032	31.50774
	78.72138	31.50401
	78.72184	31.50121
	78.72237	31.50088
	78.7227	31.50055
	78.72333	31.49985
	78.72399	31.49893
	78.72333	31.49675
	78.72366	31.49589
	78.72369	31.49434
	78.72389	31.49374
	78.72442	31.49292
	78.72478	31.49245
	78.72613	31.4913
	78.72729	31.49018
	78.72703	31.48928
	78.72673	31.48849
	78.7262	31.48753
	78.72567	31.48668
	78.72537	31.48628
	78.72508	31.48526
	78.72504	31.48483
	78.72584	31.4838
	78.72679	31.48308
	78.72739	31.48311
	78.72848	31.48331
	78.72947	31.48354
	78.73	31.4838
	78.73142	31.48377
	78.73244	31.48357
	78.7335	31.48354
	78.73426	31.48357
	78.73482	31.48331
	78.73548	31.48317
	78.73601	31.48317
	78.73644	31.48258
	78.73717	31.48199
	78.73769	31.48162
	78.73835	31.48136
	78.73918	31.48116
	78.73991	31.48113
	78.74186	31.48146
	78.74265	31.48185
	78.74327	31.48232
	78.74437	31.48354
	78.74486	31.48367
	78.74549	31.48397
	78.74717	31.48456
	78.74846	31.48489
	78.74912	31.48512
	78.74925	31.48502
	78.74958	31.48423
	78.75183	31.48308
	78.75279	31.48275
	78.75361	31.48261
	78.75754	31.48288
	78.75771	31.48275
	78.75853	31.48182
	78.75919	31.48126
	78.76002	31.48083
	78.76048	31.48043
	78.76091	31.47961
	78.76137	31.47895
	78.76253	31.47773
	78.76253	31.47614
	78.76269	31.47545
	78.76315	31.47492
	78.76372	31.47459
	78.76467	31.47416
	78.76636	31.4736
	78.76778	31.47307
	78.7689	31.47016
	78.76927	31.46904
	78.76983	31.46812
	78.77006	31.46739
	78.77035	31.46696
	78.77092	31.46633
	78.77088	31.46452
	78.77098	31.46429
	78.77178	31.46333
	78.77329	31.46125
	78.77392	31.46022
	78.77419	31.4592
	78.77429	31.45742
	78.77455	31.45576
	78.77485	31.45484
	78.77528	31.45421
	78.77538	31.45411
	78.77613	31.45342
	78.77957	31.45058
	78.78112	31.45061
	78.78195	31.45055
	78.78267	31.45035
	78.78353	31.44995
	78.78469	31.44975
	78.78571	31.44969
	78.7867	31.44933
	78.78779	31.4488
	78.7907	31.44685
	78.79216	31.44602
	78.79367	31.44503
	78.7939	31.44467
	78.79519	31.44424
	78.79635	31.44417
	78.79674	31.44407
	78.79671	31.44378
	78.79674	31.44331
	78.79734	31.44074
	78.7973	31.43971
	78.79684	31.43935
	78.79662	31.43898
	78.79635	31.43836
	78.79611	31.43757
	78.79578	31.43727
	78.79473	31.43648
	78.79407	31.43612
	78.79331	31.43582
	78.7908	31.43512
	78.78971	31.43499
	78.78882	31.43499
	78.78806	31.43417
	78.78736	31.43308
	78.7868	31.43159
	78.78644	31.43043
	78.78621	31.42991
	78.78588	31.42961
	78.78522	31.42944
	78.78416	31.42898
	78.78356	31.42882
	78.78254	31.42865
	78.78162	31.42677
	78.78112	31.42565
	78.78053	31.42518
	78.78	31.42456
	78.77944	31.42373
	78.77934	31.42291
	78.77904	31.42244
	78.77871	31.42109
	78.77845	31.42066
	78.77835	31.42026
	78.77815	31.4201
	78.77719	31.41957
	78.77689	31.41924
	78.77663	31.41904
	78.77594	31.41901
	78.77577	31.41894
	78.77537	31.41792
	78.77465	31.41746
	78.77349	31.4166
	78.7723	31.41521
	78.77227	31.41287
	78.77217	31.41234
	78.77075	31.41115
	78.77006	31.41042
	78.7692	31.40861
	78.7688	31.40758
	78.76874	31.40692
	78.76884	31.4062
	78.76847	31.40573
	78.76818	31.40544
	78.76788	31.40514
	78.76712	31.40448
	78.76689	31.40415
	78.76666	31.40368
	78.76616	31.40332
	78.76527	31.4024
	78.76474	31.40217
	78.76391	31.4019
	78.76216	31.40111
	78.76154	31.40068
	78.76127	31.40025
	78.76091	31.39916
	78.76124	31.3983
	78.76124	31.39705
	78.76117	31.39619
	78.76078	31.39536
	78.76022	31.39447
	78.75959	31.39361
	78.7588	31.39302
	78.7582	31.39266
	78.75744	31.39236
	78.75701	31.39156
	78.75678	31.39054
	78.75685	31.38988
	78.75672	31.38955
	78.75629	31.38912
	78.75569	31.38863
	78.75516	31.38787
	78.75434	31.38721
	78.75401	31.38668
	78.75394	31.38621
	78.75384	31.38595
	78.75345	31.38559
	78.75348	31.38529
	78.75302	31.38493
	78.75358	31.384
	78.75411	31.38347
	78.75427	31.38133
	78.75434	31.37941
	78.755	31.37842
	78.75668	31.3774
	78.75734	31.37651
	78.75754	31.37492
	78.75744	31.37383
	78.75714	31.37284
	78.75664	31.37203
	78.75586	31.37126
	78.75487	31.37049
	78.75414	31.3701
	78.75345	31.36987
	78.75265	31.3698
	78.75156	31.36964
	78.75087	31.36941
	78.75028	31.36891
	78.74981	31.36875
	78.74968	31.36812
	78.74952	31.36779
	78.74955	31.36703
	78.74968	31.36614
	78.74981	31.36561
	78.75024	31.36498
	78.75044	31.36445
	78.75057	31.36366
	78.75074	31.3634
	78.7518	31.36254
	78.75321	31.36184
	78.75374	31.36148
	78.75424	31.36108
	78.75457	31.36062
	78.7547	31.36019
	78.7552	31.35989
	78.75553	31.35834
	78.7587	31.35715
	78.75913	31.35692
	78.75959	31.35656
	78.75995	31.35639
	78.76035	31.35649
	78.76045	31.3561
	78.76081	31.35603
	78.76091	31.3562
	78.76111	31.35636
	78.76131	31.35639
	78.76174	31.356
	78.76263	31.35494
	78.76428	31.35316
	78.76504	31.3526
	78.76679	31.35187
	78.76771	31.35144
	78.76837	31.35088
	78.76953	31.34903
	78.76969	31.3485
	78.76966	31.34811
	78.76923	31.34642
	78.7689	31.34599
	78.76798	31.34536
	78.76712	31.345
	78.76566	31.34454
	78.76434	31.34302
	78.76329	31.34107
	78.76533	31.33945
	78.76616	31.33859
	78.76718	31.33793
	78.7687	31.3376
	78.76993	31.33691
	78.77075	31.33631
	78.77158	31.33562
	78.77204	31.33499
	78.7728	31.33364
	78.77353	31.33349
	78.77359	31.33347
	78.77382	31.33334
	78.77422	31.33215
	78.77402	31.33156
	78.77326	31.33054
	78.77283	31.33027
	78.77267	31.32997
	78.77201	31.32971
	78.77144	31.32954
	78.77062	31.32951
	78.769	31.32925
	78.76884	31.32898
	78.76864	31.32846
	78.76864	31.3273
	78.7685	31.32684
	78.76844	31.32631
	78.76959	31.32423
	78.77029	31.32373
	78.77055	31.32337
	78.77085	31.3232
	78.77164	31.32291
	78.7725	31.32271
	78.77356	31.32258
	78.77419	31.32244
	78.77561	31.32185
	78.77627	31.32126
	78.77782	31.3202
	78.77805	31.3199
	78.77841	31.31878
	78.77907	31.31772
	78.77911	31.31733
	78.77907	31.31667
	78.77917	31.31577
	78.77845	31.31373
	78.77818	31.31234
	78.77973	31.31112
	78.78079	31.31016
	78.78122	31.31006
	78.78185	31.30983
	78.78333	31.3096
	78.78396	31.30933
	78.78455	31.30884
	78.78535	31.30805
	78.78574	31.30778
	78.78693	31.30768
	78.78779	31.30752
	78.78878	31.30715
	78.79083	31.30597
	78.79156	31.30524
	78.79175	31.30484
	78.79195	31.30418
	78.79218	31.30412
	78.79281	31.30405
	78.7936	31.30402
	78.79569	31.30405
	78.80018	31.3058
	78.80077	31.30597
	78.80206	31.30577
	78.80318	31.30573
	78.80546	31.3058
	78.80685	31.306
	78.80721	31.30636
	78.80936	31.30692
	78.81028	31.30702
	78.81137	31.30702
	78.81223	31.30676
	78.81302	31.30643
	78.81428	31.30567
	78.81481	31.30501
	78.81461	31.30379
	78.81487	31.30362
	78.81474	31.30104
	78.81487	31.30104
	78.81636	31.30052
	78.81735	31.29923
	78.81798	31.2987
	78.8188	31.29857
	78.82022	31.29817
	78.8222	31.29731
	78.82343	31.29688
	78.82458	31.29632
	78.82703	31.29556
	78.82808	31.29533
	78.82858	31.29526
	78.82904	31.2952
	78.83	31.29517
	78.83072	31.29507
	78.83191	31.29451
	78.83277	31.29424
	78.83383	31.29418
	78.83604	31.29424
	78.83756	31.29421
	78.83891	31.29398
	78.83898	31.29427
	78.83938	31.29523
	78.8409	31.29553
	78.84166	31.2956
	78.84182	31.29583
	78.84215	31.29609
	78.84291	31.29609
	78.84416	31.29579
	78.84621	31.2955
	78.84813	31.29503
	78.85239	31.29441
	78.85341	31.29441
	78.85397	31.29474
	78.85457	31.2949
	78.85549	31.29497
	78.85569	31.2953
	78.85602	31.2956
	78.85615	31.29761
	78.85668	31.29972
	78.85655	31.30032
	78.85595	31.30101
	78.85424	31.30266
	78.85344	31.30313
	78.85272	31.30329
	78.85199	31.30352
	78.85196	31.30537
	78.85209	31.306
	78.85199	31.30712
	78.85179	31.30739
	78.85166	31.30851
	78.85143	31.30871
	78.8514	31.3089
	78.85255	31.31062
	78.85284	31.31134
	78.85321	31.31195
	78.8539	31.31244
	78.85525	31.31293
	78.85648	31.3135
	78.85815	31.31387
	78.85868	31.3142
	78.8593	31.31436
	78.85917	31.31485
	78.86077	31.3153
	78.86158	31.3153
	78.86252	31.31497
	78.86334	31.31412
	78.86395	31.31338
	78.86415	31.31252
	78.86567	31.31109
	78.86718	31.30877
	78.86824	31.3075
	78.87089	31.30587
	78.87196	31.30554
	78.87322	31.30501
	78.87596	31.3037
	78.87616	31.30321
	78.87698	31.30239
	78.87718	31.30178
	78.87731	31.30109
	78.87788	31.30023
	78.87841	31.29815
	78.87878	31.29762
	78.87919	31.29725
	78.87988	31.29639
	78.88082	31.29386
	78.88147	31.29006
	78.88185	31.28887
	78.88208	31.28775
	78.88235	31.28696
	78.88339	31.28619
	78.88319	31.28507
	78.88329	31.28482
	78.88257	31.28413
	78.88282	31.28369
	78.88313	31.28344
	78.8831	31.283
	78.88291	31.28284
	78.88285	31.28259
	78.88344	31.28184
	78.88376	31.28133
	78.88398	31.28071
	78.88439	31.28027
	78.88448	31.27961
	78.88489	31.27876
	78.88542	31.27807
	78.88611	31.27738
	78.88652	31.27628
	78.88686	31.27594
	78.88793	31.27531
	78.88633	31.27045
	78.88661	31.26998
	78.88699	31.26973
	78.8874	31.2696
	78.88815	31.26828
	78.88909	31.2675
	78.88991	31.26675
	78.89251	31.26471
	78.89402	31.26364
	78.89703	31.2617
	78.89982	31.25959
	78.9013	31.25868
	78.90233	31.25818
	78.90327	31.25793
	78.90619	31.25734
	78.90842	31.25649
	78.90939	31.25577
	78.91005	31.2552
	78.91027	31.25445
	78.91099	31.25391
	78.91287	31.25269
	78.91617	31.25137
	78.91695	31.25071
	78.91707	31.25012
	78.91733	31.25009
	78.91789	31.24987
	78.91827	31.24959
	78.91849	31.24927
	78.91915	31.2488
	78.91921	31.24846
	78.91915	31.24777
	78.91921	31.2472
	78.91955	31.24686
	78.91968	31.24654
	78.91946	31.24595
	78.91924	31.24563
	78.91927	31.24551
	78.92018	31.2451
	78.9209	31.24375
	78.92169	31.24265
	78.92188	31.24225
	78.92203	31.23945
	78.9214	31.23735
	78.92188	31.23591
	78.92178	31.2355
	78.92213	31.23538
	78.92294	31.23459
	78.92347	31.2329
	78.92376	31.23261
	78.92379	31.23221
	78.92363	31.23205
	78.92373	31.23032
	78.92391	31.22916
	78.92385	31.22882
	78.92395	31.22784
	78.92379	31.22684
	78.92385	31.22643
	78.92454	31.22593
	78.92617	31.2253
	78.92646	31.22502
	78.92702	31.2249
	78.92733	31.2243
	78.92774	31.22399
	78.9278	31.22308
	78.92768	31.22261
	78.92784	31.22204
	78.92762	31.22145
	78.92809	31.22082
	78.92859	31.22038
	78.92909	31.21972
	78.93035	31.21878
	78.93075	31.21831
	78.93091	31.21777
	78.93169	31.21724
	78.93235	31.2173
	78.93279	31.21727
	78.93307	31.21696
	78.93392	31.21743
	78.93527	31.21743
	78.93562	31.21784
	78.93605	31.21784
	78.9369	31.21771
	78.93809	31.21746
	78.93819	31.21705
	78.9422	31.21665
	78.94782	31.21705
	78.94854	31.21724
	78.94911	31.21759
	78.94989	31.21696
	78.95008	31.21583
	78.95039	31.21498
	78.95036	31.2136
	78.95014	31.21329
	78.94948	31.21307
	78.94907	31.21266
	78.94904	31.21147
	78.94889	31.21106
	78.94663	31.21009
	78.94644	31.20905
	78.94578	31.20777
	78.94722	31.20617
	78.94732	31.20554
	78.94807	31.20498
	78.94911	31.20212
	78.94911	31.20174
	78.94895	31.2014
	78.94889	31.19989
	78.94955	31.19961
	78.94973	31.19945
	78.95017	31.19927
	78.95064	31.19898
	78.95105	31.19848
	78.95149	31.19804
	78.95209	31.19792
	78.95246	31.19776
	78.95268	31.19751
	78.95287	31.19713
	78.95315	31.19679
	78.95397	31.19625
	78.95391	31.19607
	78.95406	31.19588
	78.95419	31.19588
	78.95466	31.19531
	78.95488	31.19519
	78.9556	31.19509
	78.95579	31.1949
	78.9562	31.19469
	78.95654	31.19443
	78.95726	31.19346
	78.95783	31.19337
	78.95808	31.19321
	78.95814	31.19293
	78.95814	31.19252
	78.95836	31.19224
	78.95961	31.19174
	78.95952	31.1912
	78.95927	31.19061
	78.9583	31.18992
	78.95861	31.18863
	78.9587	31.18725
	78.96263	31.18568
	78.96382	31.1853
	78.96555	31.18483
	78.96645	31.18452
	78.96774	31.18396
	78.96859	31.18364
	78.96874	31.18327
	78.96934	31.1832
	78.97003	31.18302
	78.97025	31.18292
	78.97047	31.18273
	78.97066	31.18273
	78.97088	31.18261
	78.97097	31.18217
	78.97113	31.18189
	78.97169	31.18173
	78.97176	31.18163
	78.97176	31.1812
	78.97317	31.18098
	78.97467	31.18044
	78.97646	31.18041
	78.97662	31.18019
	78.97693	31.17994
	78.97737	31.17985
	78.97775	31.17997
	78.97803	31.17978
	78.97841	31.17941
	78.97935	31.17903
	78.97988	31.17906
	78.98045	31.17925
	78.9817	31.17938
	78.98205	31.178
	78.98283	31.17696
	78.98333	31.17677
	78.98352	31.17649
	78.98525	31.1758
	78.98591	31.17517
	78.98763	31.1742
	78.98779	31.17395
	78.98788	31.17338
	78.98841	31.17266
	78.98848	31.17229
	78.98914	31.17147
	78.98914	31.17078
	78.98892	31.17003
	78.98895	31.16965
	78.98907	31.16956
	78.9892	31.16934
	78.9892	31.1689
	78.98961	31.16814
	78.99008	31.16802
	78.99017	31.16767
	78.99083	31.16689
	78.99074	31.16645
	78.99083	31.16617
	78.9918	31.16586
	78.99227	31.16504
	78.99255	31.1635
	78.99265	31.162
	78.99252	31.1614
	78.99252	31.1604
	78.99202	31.15999
	78.99187	31.15955
	78.99193	31.15876
	78.99171	31.15861
	78.99168	31.1582
	78.99158	31.15782
	78.99108	31.15726
	78.99058	31.15641
	78.99014	31.15519
	78.99014	31.15431
	78.9908	31.15227
	78.99121	31.15145
	78.99161	31.15102
	78.99183	31.1507
	78.99218	31.14992
	78.9923	31.14932
	78.99212	31.14879
	78.99171	31.14832
	78.99139	31.14738
	78.99083	31.14688
	78.99042	31.14634
	78.99026	31.14571
	78.99011	31.1454
	78.98976	31.14505
	78.98961	31.14474
	78.98964	31.14455
	78.98989	31.14396
	78.99026	31.14336
	78.99045	31.14239
	78.99058	31.14201
	78.99092	31.14151
	78.99246	31.13982
	78.99312	31.13957
	78.99394	31.13935
	78.99532	31.13869
	78.99607	31.13819
	78.99673	31.13781
	78.99779	31.13731
	78.99842	31.13709
	79.00049	31.13677
	79.00106	31.13633
	79.00178	31.13555
	79.00263	31.13451
	79.00322	31.13363
	79.00297	31.12968
	79.00462	31.12705
	79.00478	31.12598
	79.00503	31.12508
	79.00486	31.12393
	79.00503	31.12278
	79.00667	31.12023
	79.00683	31.11662
	79.00642	31.11415
	79.00486	31.11432
	79.00281	31.11415
	79.00125	31.11366
	78.99656	31.11169
	78.99667	31.11533
	78.96545	31.11533
	78.94226	31.10507
	78.92041	31.10775
	78.91282	31.11622
	78.9039	31.11533
	78.89677	31.10552
	78.87134	31.1073
	78.81872	31.147
	78.81158	31.1693
	78.79775	31.18268
	78.8031	31.19918
	78.79508	31.20498
	78.74958	31.19427
	78.65994	31.20319
	78.64789	31.19472
	78.63451	31.22193
	78.59526	31.2362
	78.56672	31.23352
	78.53728	31.20676
	78.46993	31.20364
	78.46637	31.22103
	78.44407	31.24423
	78.41953	31.25984
	78.41418	31.25092
	78.39768	31.2478
	78.38118	31.28169
	78.3736	31.27902
	78.36914	31.28794
	78.29822	31.28838
	78.29331	31.26608
	78.26923	31.27143
	78.23266	31.23486
	78.20679	31.23709
	78.2001	31.22594
	78.18761	31.22237
	78.17155	31.23174
	78.14791	31.23174
	78.13498	31.21613
	78.11937	31.2139
	78.0877	31.19071
	78.05381	31.19294
	78.03017	31.18535
	78.01634	31.17153
	78.01411	31.15502
	77.9927	31.16707
	77.96951	31.16528
	77.95479	31.17866
	77.91465	31.15636
	77.88744	31.15458
	77.87852	31.1247
	77.85132	31.11087
	77.84284	31.08143
	77.82456	31.0743
	77.82319	31.07244
	77.82332	31.07215
	77.82337	31.07182
	77.82351	31.07123
	77.82359	31.071
	77.8237	31.07049
	77.82371	31.07036
	77.82211	31.06824
	77.82204	31.06822
	77.82125	31.06848
	77.82123	31.06846
	77.82106	31.06842
	77.82055	31.06871
	77.82047	31.06873
	77.81474	31.06092
	77.80047	31.06225
	77.82143	31.03014
	77.81876	31.01587
	77.82469	31.00915
	77.82427	31.00917
	77.82363	31.0093
	77.82326	31.00934
	77.8228	31.00966
	77.82259	31.00976
	77.82231	31.00996
	77.82201	31.01011
	77.82131	31.01033
	77.82102	31.01036
	77.82084	31.0104
	77.82043	31.01057
	77.82016	31.01065
	77.81991	31.01071
	77.81967	31.01075
	77.81835	31.01024
	77.81821	31.01028
	77.81778	31.01035
	77.81722	31.01037
	77.81719	31.01041
	77.81582	31.01139
	77.81567	31.01141
	77.81441	31.01055
	77.81363	31.01157
	77.81344	31.01168
	77.81287	31.0119
	77.81257	31.01197
	77.81186	31.01246
	77.80875	31.01079
	77.80875	31.01066
	77.80913	31.00984
	77.80928	31.00927
	77.80941	31.00896
	77.81002	31.00832
	77.8101	31.00793
	77.81033	31.00729
	77.81044	31.0071
	77.81064	31.00685
	77.81072	31.00661
	77.81103	31.00604
	77.81126	31.00574
	77.81152	31.0055
	77.80984	31.00516
	77.81341	30.99892
	77.80324	30.98153
	77.80303	30.98142
	77.80256	30.98114
	77.80225	30.98092
	77.80192	30.98063
	77.80148	30.9805
	77.80109	30.97785
	77.79646	30.96993
	77.80449	30.96101
	77.81254	30.96051
	77.81269	30.95956
	77.81285	30.95928
	77.81358	30.95856
	77.81363	30.95853
	77.81395	30.95795
	77.81402	30.95788
	77.8141	30.95768
	77.8146	30.95696
	77.81463	30.95694
	77.81478	30.95665
	77.81488	30.95656
	77.81526	30.95595
	77.81551	30.95573
	77.81672	30.95523
	77.81719	30.9552
	77.81744	30.9552
	77.81697	30.95343
	77.80226	30.95521
	77.7639	30.97707
	77.75409	30.97662
	77.73446	30.95967
	77.73669	30.9396
	77.7465	30.9338
	77.74561	30.92221
	77.7911	30.92622
	77.80092	30.91284
	77.78531	30.89322
	77.78352	30.87225
	77.78932	30.85843
	77.76524	30.86512
	77.75453	30.88251
	77.74472	30.88117
	77.7416	30.86423
	77.73134	30.85084
	77.74427	30.82988
	77.7193	30.80847
	77.70458	30.77904
	77.68808	30.76878
	77.69164	30.74826
	77.70315	30.74431
	77.70321	30.74409
	77.70328	30.74395
	77.70346	30.74373
	77.70352	30.74355
	77.70397	30.74277
	77.70408	30.74265
	77.70422	30.74246
	77.70469	30.74179
	77.70546	30.74115
	77.70558	30.74109
	77.70577	30.74105
	77.70622	30.74062
	77.7066	30.74045
	77.70716	30.7403
	77.70751	30.74025
	77.70777	30.74024
	77.70829	30.74027
	77.70913	30.74029
	77.70941	30.74027
	77.70976	30.74028
	77.71004	30.74031
	77.71028	30.74017
	77.71053	30.74005
	77.71126	30.73987
	77.71144	30.73986
	77.71188	30.73989
	77.71274	30.74005
	77.71346	30.73996
	77.71356	30.73993
	77.71388	30.73989
	77.71403	30.73989
	77.71463	30.73995
	77.71486	30.74002
	77.71551	30.73995
	77.71577	30.73997
	77.72019	30.73845
	77.74115	30.7108
	77.73357	30.68582
	77.76613	30.6653
	77.77906	30.66397
	77.76836	30.65148
	77.77549	30.63765
	77.77148	30.62829
	77.78218	30.61936
	77.75676	30.62026
	77.75453	30.60063
	77.73491	30.60821
	77.72956	30.5984
	77.74383	30.58993
	77.76167	30.56317
	77.77817	30.55737
	77.80315	30.56361
	77.81073	30.53328
	77.79913	30.51143
	77.76747	30.50429
	77.71127	30.47709
	77.67916	30.45166
	77.64691	30.4335
	77.63138	30.4333
	77.61	30.43312
	77.58103	30.43026
	77.56275	30.41688
	77.56315	30.40548
	77.56397	30.406
	77.56452	30.40513
	77.56548	30.40361
	77.56497	30.40132
	77.57479	30.38432
	77.55884	30.39074
	77.5585	30.39059
	77.55837	30.39057
	77.55741	30.39064
	77.55729	30.39068
	77.55699	30.3909
	77.55602	30.39098
	77.55555	30.39109
	77.55505	30.39127
	77.55459	30.39147
	77.55446	30.39155
	77.55377	30.39174
	77.55317	30.39204
	77.55318	30.39173
	77.55124	30.38967
	77.54918	30.39161
	77.54916	30.39201
	77.54911	30.39252
	77.54872	30.39271
	77.54866	30.39277
	77.54809	30.39459
	77.54812	30.39472
	77.54826	30.395
	77.54268	30.39725
	77.50967	30.44899
	77.49272	30.43293
	77.48692	30.41242
	77.43474	30.4035
	77.41646	30.4084
	77.42582	30.42
	77.43965	30.42446
	77.45347	30.44051
	77.45615	30.45835
	77.45035	30.46505
	77.4004	30.41866
	77.3842	30.43714
	77.35669	30.44185
	77.34599	30.46192
	77.32636	30.46326
	77.31075	30.45345
	77.26347	30.46683
	77.25188	30.48422
	77.2269	30.48868
	77.20282	30.48021
	77.19969	30.50652
	77.18542	30.5257
	77.12253	30.54845
	77.11138	30.56718
	77.12387	30.57253
	77.15866	30.60331
	77.16223	30.63854
	77.15286	30.65415
	77.15331	30.68894
	77.11763	30.71793
	77.09979	30.72239
	77.10246	30.73087
	77.07704	30.74469
	77.03378	30.7554
	77.02843	30.74336
	77.01817	30.74023
	77.00479	30.75228
	77.00434	30.76655
	76.98873	30.77725
	76.99988	30.78885
	76.9981	30.81427
	76.98828	30.81516
	76.97892	30.79866
	76.95394	30.81115
	76.94279	30.82899
	76.92763	30.83746
	76.92673	30.85441
	76.9022	30.89723
	76.85225	30.87047
	76.81568	30.89589
	76.80988	30.9066
	76.81434	30.92131
	76.81033	30.93023
	76.76974	30.9066
	76.74878	30.92934
	76.72603	30.93916
	76.71265	30.96324
	76.69436	30.97261
	76.6627	30.97127
	76.61007	31.00427
	76.61363	31.02211
	76.59892	31.05333
	76.60962	31.06047
	76.60471	31.07831
	76.6079	31.08647
	76.6107	31.09007
	76.61127	31.09056
	76.61378	31.09168
	76.61399	31.09179
	76.61458	31.09214
	76.61508	31.09258
	76.6157	31.09331
	76.616	31.09379
	76.61663	31.09525
	76.6168	31.09605
	76.6168	31.09667
	76.61667	31.09738
	76.61648	31.09787
	76.61611	31.09849
	76.615	31.09975
	76.62568	31.11042
	76.62389	31.11801
	76.5891	31.12782
	76.59892	31.15101
	76.59	31.15725
	76.59044	31.18268
	76.6123	31.20275
	76.64795	31.21011
	76.63434	31.21698
	76.63477	31.21779
	76.6356	31.21779
	76.63613	31.21796
	76.63682	31.21734
	76.63778	31.21833
	76.63698	31.21907
	76.63745	31.2204
	76.63841	31.22092
	76.63944	31.22141
	76.63965	31.22193
	76.63203	31.22376
	76.62799	31.22616
	76.62387	31.22487
	76.6218	31.22186
	76.61832	31.22078
	76.61765	31.21956
	76.61498	31.21891
	76.61208	31.21672
	76.60625	31.21678
	76.60091	31.21247
	76.59779	31.21233
	76.59296	31.21132
	76.58926	31.22116
	76.59292	31.22334
	76.59481	31.23298
	76.59611	31.23575
	76.59787	31.23821
	76.59942	31.23998
	76.60213	31.24077
	76.60593	31.24122
	76.60893	31.24231
	76.61037	31.24405
	76.61053	31.24614
	76.61069	31.2489
	76.61061	31.25131
	76.6049	31.2547
	76.60122	31.25877
	76.60005	31.25969
	76.59192	31.26582
	76.59222	31.26806
	76.59073	31.27032
	76.58894	31.27278
	76.58655	31.2741
	76.58299	31.2757
	76.57911	31.27092
	76.57469	31.26884
	76.57164	31.26586
	76.54584	31.25582
	76.53514	31.25538
	76.53737	31.28392
	76.53112	31.28348
	76.528	31.2701
	76.51819	31.26251
	76.51417	31.28303
	76.49097	31.27514
	76.4669	31.31024
	76.43462	31.28562
	76.43425	31.28614
	76.43155	31.28974
	76.43058	31.29099
	76.44816	31.30578
	76.38126	31.38822
	76.38237	31.39043
	76.38271	31.39054
	76.38393	31.39326
	76.38377	31.39362
	76.39018	31.39721
	76.38345	31.40785
	76.38074	31.40779
	76.3801	31.40788
	76.37968	31.40801
	76.37918	31.40824
	76.37503	31.41096
	76.37493	31.41101
	76.3743	31.41332
	76.37323	31.41371
	76.37546	31.42219
	76.36298	31.44136
	76.35673	31.42977
	76.35896	31.4155
	76.35391	31.40842
	76.34607	31.40358
	76.34632	31.40346
	76.34685	31.40205
	76.34715	31.40135
	76.34729	31.40087
	76.34734	31.40061
	76.34737	31.40019
	76.34735	31.39978
	76.34732	31.39951
	76.34725	31.39918
	76.34717	31.39891
	76.34488	31.39751
	76.34326	31.39965
	76.34328	31.40007
	76.3431	31.40046
	76.34256	31.40183
	76.32051	31.39159
	76.31838	31.38115
	76.32953	31.37937
	76.33666	31.35305
	76.32997	31.34547
	76.31793	31.35216
	76.29607	31.34235
	76.30232	31.32629
	76.27734	31.30979
	76.26129	31.30578
	76.25549	31.31514
	76.22337	31.31291
	76.20643	31.30533
	76.17298	31.30667
	76.16629	31.34146
	76.14862	31.34181
	76.14325	31.34626
	76.13417	31.38249
	76.1529	31.39721
	76.15335	31.41416
	76.11544	31.46545
	76.1083	31.49533
	76.04319	31.59212
	76.04408	31.60282
	76.02312	31.61531
	76.0026	31.64653
	76.00483	31.66303
	75.99234	31.68444
	75.97584	31.69514
	75.96603	31.7335
	75.95755	31.74064
	75.95934	31.74956
	75.92187	31.81735
	75.93347	31.81512
	75.95309	31.82404
	75.97138	31.81468
	75.94417	31.85749
	75.89466	31.94982
	75.87772	31.96186
	75.84159	31.97346
	75.83624	31.98148
	75.7952	31.98862
	75.73811	32.0359
	75.71046	32.0359
	75.68994	32.06132
	75.64936	32.07738
	75.59851	32.06623
	75.57889	32.08184
	75.61055	32.09968
	75.63107	32.1193
	75.6556	32.14606
	75.66185	32.16479
	75.65605	32.17684
	75.62037	32.18531
	75.6226	32.23482
	75.68415	32.26228
	75.73444	32.27627
	75.75462	32.28611
	75.75769	32.29163
	75.75755	32.29177
	75.75754	32.29205
	75.75752	32.29216
	75.75739	32.29243
	75.75723	32.29291
	75.75715	32.2933
	75.75713	32.29374
	75.75671	32.29465
	75.7566	32.29494
	75.75644	32.29549
	75.75649	32.29677
	75.75659	32.29704
	75.75737	32.298
	75.75937	32.29931
	75.7622	32.30152
	75.76427	32.30328
	75.76588	32.30442
	75.78123	32.31917
	75.7818	32.31985
	75.78197	32.32003
	75.78495	32.32278
	75.78504	32.32283
	75.84382	32.37933
	75.87192	32.3985
	75.91117	32.40921
	75.92588	32.41188
	75.93481	32.42482
	75.8688	32.4886
	75.85542	32.49975
	75.8514	32.52116
	75.87549	32.57066
	75.87236	32.57602
END
END
