India_Punjab
1
	73.97431	30.1978
	73.97391	30.20007
	73.97394	30.20083
	73.97371	30.20143
	73.97313	30.20531
	73.97234	30.2096
	73.97205	30.21073
	73.9719	30.21149
	73.97153	30.21488
	73.97055	30.22146
	73.96943	30.22518
	73.96888	30.23476
	73.96587	30.24841
	73.96555	30.25701
	73.96369	30.26439
	73.96125	30.27051
	73.95403	30.28244
	73.95042	30.28733
	73.94418	30.29668
	73.94135	30.30116
	73.93867	30.30654
	73.93421	30.31719
	73.93246	30.32079
	73.92633	30.32577
	73.92301	30.32947
	73.91832	30.33336
	73.91487	30.33755
	73.91117	30.34193
	73.91015	30.34261
	73.91012	30.34318
	73.90844	30.34514
	73.90449	30.34966
	73.89796	30.35421
	73.88753	30.35801
	73.88254	30.35985
	73.88431	30.36365
	73.8866	30.36559
	73.88715	30.3659
	73.89058	30.36747
	73.89309	30.36752
	73.89532	30.36945
	73.90118	30.37131
	73.90945	30.37702
	73.91258	30.3805
	73.91517	30.38162
	73.91799	30.38564
	73.92145	30.39647
	73.93298	30.39963
	73.93787	30.40162
	73.94316	30.40717
	73.9466	30.41292
	73.94931	30.41628
	73.95258	30.41867
	73.96517	30.42371
	73.96805	30.43233
	73.97134	30.43694
	73.9749	30.44409
	73.97447	30.44518
	73.97252	30.44497
	73.96509	30.44287
	73.95908	30.44122
	73.95262	30.43964
	73.94852	30.43873
	73.94636	30.4383
	73.93899	30.43804
	73.93749	30.43693
	73.93172	30.43822
	73.9277	30.43909
	73.93833	30.44501
	73.93985	30.44496
	73.9396	30.45106
	73.93978	30.4522
	73.93773	30.45524
	73.93343	30.46278
	73.9358	30.46402
	73.93776	30.46483
	73.94054	30.46536
	73.94254	30.46595
	73.94267	30.46584
	73.94358	30.46587
	73.94537	30.46533
	73.94595	30.46209
	73.94705	30.46137
	73.94924	30.45879
	73.95362	30.45694
	73.95409	30.45678
	73.95817	30.45595
	73.96444	30.45503
	73.96828	30.46037
	73.97029	30.46794
	73.96978	30.46835
	73.96951	30.46932
	73.96955	30.46967
	73.96977	30.47005
	73.97015	30.47044
	73.9708	30.47083
	73.97169	30.47589
	73.97154	30.47805
	73.97124	30.47808
	73.96946	30.48224
	73.96888	30.48366
	73.97741	30.49329
	73.98056	30.49855
	73.98123	30.49931
	73.98487	30.50331
	73.98867	30.50773
	73.99754	30.51241
	74.00866	30.51217
	74.01539	30.51274
	74.02045	30.51356
	74.02011	30.51569
	74.01251	30.52164
	74.01262	30.52414
	74.02033	30.52664
	74.02516	30.52361
	74.02642	30.52414
	74.03387	30.5262
	74.03595	30.52603
	74.04267	30.52556
	74.04655	30.52551
	74.0508	30.52549
	74.05203	30.5234
	74.05386	30.52035
	74.05484	30.51925
	74.05573	30.51819
	74.05658	30.51759
	74.05788	30.51723
	74.05937	30.51726
	74.06096	30.51735
	74.06297	30.51765
	74.06413	30.5179
	74.06605	30.51857
	74.06822	30.51943
	74.07251	30.52188
	74.074	30.52321
	74.07591	30.52645
	74.07765	30.52814
	74.08225	30.5325
	74.08949	30.5443
	74.09021	30.54576
	74.09196	30.54939
	74.09143	30.55008
	74.09069	30.55074
	74.09057	30.55069
	74.09057	30.55083
	74.07784	30.55473
	74.07768	30.55482
	74.07632	30.55515
	74.07654	30.55598
	74.07675	30.55644
	74.07795	30.5562
	74.08827	30.56558
	74.09658	30.573
	74.09941	30.57511
	74.10279	30.57787
	74.103	30.58058
	74.09985	30.58383
	74.10015	30.59185
	74.10033	30.59519
	74.09701	30.60028
	74.10305	30.60236
	74.10405	30.60691
	74.10347	30.61211
	74.09931	30.61245
	74.10456	30.61695
	74.10517	30.61703
	74.11296	30.6104
	74.11704	30.6068
	74.11823	30.60763
	74.12048	30.61148
	74.11978	30.61168
	74.12015	30.61266
	74.12075	30.61262
	74.12585	30.61681
	74.13608	30.62502
	74.13888	30.6262
	74.1402	30.62637
	74.14128	30.62744
	74.14541	30.62862
	74.1474	30.629
	74.1491	30.62975
	74.15398	30.63251
	74.15951	30.64005
	74.17202	30.64901
	74.17369	30.65008
	74.18236	30.65916
	74.18858	30.66031
	74.1946	30.66386
	74.19736	30.66636
	74.20067	30.66927
	74.20388	30.67198
	74.20784	30.67626
	74.20944	30.67859
	74.21054	30.68029
	74.21223	30.68454
	74.21502	30.68806
	74.21582	30.68892
	74.21651	30.68937
	74.21699	30.68951
	74.21982	30.69207
	74.22167	30.69618
	74.22191	30.6975
	74.22783	30.70993
	74.23129	30.71712
	74.23342	30.72164
	74.23774	30.72172
	74.26502	30.72216
	74.27285	30.73184
	74.28206	30.72999
	74.28744	30.7356
	74.28717	30.73647
	74.28232	30.74071
	74.2798	30.74282
	74.27926	30.74353
	74.27823	30.74566
	74.27575	30.75014
	74.27423	30.75413
	74.27236	30.75705
	74.26876	30.76231
	74.26664	30.76545
	74.26544	30.76683
	74.26236	30.77013
	74.26155	30.77199
	74.26378	30.77325
	74.26528	30.77363
	74.26687	30.77411
	74.26842	30.77471
	74.27393	30.77208
	74.2769	30.77295
	74.28358	30.77323
	74.28968	30.77392
	74.29606	30.77527
	74.30264	30.77838
	74.30877	30.79011
	74.30173	30.79107
	74.29963	30.79419
	74.29862	30.79521
	74.2982	30.79712
	74.29815	30.79988
	74.30005	30.80277
	74.30236	30.80258
	74.30298	30.80365
	74.30366	30.80535
	74.3039	30.80792
	74.30435	30.80839
	74.30587	30.80978
	74.30764	30.81211
	74.30849	30.81364
	74.31016	30.81608
	74.31066	30.81722
	74.31211	30.81872
	74.31322	30.81931
	74.31375	30.81956
	74.31821	30.82302
	74.31892	30.82397
	74.3204	30.82559
	74.32125	30.82688
	74.32061	30.83207
	74.32254	30.83685
	74.3237	30.83825
	74.32333	30.83923
	74.32222	30.84071
	74.32149	30.84337
	74.3216	30.84443
	74.32273	30.84561
	74.32398	30.84684
	74.32926	30.84877
	74.33344	30.84974
	74.33547	30.84902
	74.33657	30.84879
	74.33738	30.84827
	74.33858	30.84793
	74.34093	30.84775
	74.34184	30.84832
	74.34214	30.84913
	74.34116	30.85108
	74.34122	30.85235
	74.34489	30.85289
	74.34807	30.85353
	74.35285	30.85181
	74.35365	30.84836
	74.35398	30.84762
	74.35455	30.84721
	74.35714	30.84602
	74.36408	30.846
	74.3683	30.8482
	74.36999	30.85187
	74.36763	30.85571
	74.37256	30.85649
	74.37479	30.85668
	74.37819	30.85707
	74.38341	30.85944
	74.38386	30.86059
	74.38313	30.86139
	74.37658	30.86536
	74.37165	30.86829
	74.36728	30.87065
	74.36259	30.87415
	74.36645	30.88087
	74.36788	30.88491
	74.36878	30.88508
	74.37043	30.88659
	74.37117	30.8877
	74.37164	30.88854
	74.37265	30.8912
	74.37271	30.89209
	74.37314	30.89293
	74.37335	30.89408
	74.37416	30.89426
	74.38401	30.89391
	74.3872	30.89727
	74.38931	30.89942
	74.39376	30.90363
	74.39692	30.90731
	74.39768	30.90813
	74.39834	30.90807
	74.39899	30.90804
	74.40105	30.90822
	74.40719	30.90837
	74.41724	30.90703
	74.42013	30.90679
	74.42305	30.90644
	74.42419	30.90725
	74.42541	30.90933
	74.42595	30.91575
	74.42503	30.92054
	74.42675	30.92406
	74.42835	30.92722
	74.43016	30.93057
	74.43026	30.93117
	74.43016	30.93163
	74.42965	30.9322
	74.42871	30.93233
	74.42617	30.93178
	74.42309	30.93058
	74.42062	30.93067
	74.42067	30.93118
	74.42069	30.93133
	74.42133	30.9323
	74.42457	30.93666
	74.42536	30.9376
	74.42532	30.93781
	74.42553	30.93803
	74.42629	30.93898
	74.42747	30.94007
	74.42776	30.94002
	74.43059	30.94075
	74.43544	30.94058
	74.43563	30.94071
	74.43637	30.94068
	74.43805	30.94061
	74.43809	30.94053
	74.43836	30.94043
	74.43851	30.94048
	74.4386	30.94064
	74.43971	30.94076
	74.44098	30.94155
	74.4414	30.94365
	74.44348	30.94457
	74.4436	30.94864
	74.4434	30.95023
	74.45216	30.95005
	74.4543	30.94992
	74.45533	30.95011
	74.45623	30.95047
	74.45725	30.95111
	74.45436	30.95468
	74.45583	30.95516
	74.45832	30.9552
	74.46051	30.95526
	74.4664	30.95537
	74.47023	30.95443
	74.47379	30.95278
	74.47484	30.95278
	74.47619	30.95208
	74.47616	30.95068
	74.48649	30.95075
	74.49179	30.9518
	74.49808	30.95313
	74.49893	30.95335
	74.49963	30.95391
	74.50193	30.95993
	74.50258	30.96214
	74.50305	30.96299
	74.50348	30.96322
	74.50499	30.96382
	74.50981	30.96616
	74.51152	30.96856
	74.5127	30.97082
	74.51708	30.97597
	74.5224	30.9798
	74.52514	30.98183
	74.52704	30.98366
	74.5289	30.98457
	74.53132	30.98578
	74.5327	30.98621
	74.53483	30.98646
	74.53584	30.98698
	74.5385	30.98706
	74.54067	30.98708
	74.54459	30.98718
	74.54675	30.98756
	74.55141	30.98689
	74.55184	30.98755
	74.55177	30.9881
	74.54697	30.99338
	74.54685	30.99437
	74.54548	30.99544
	74.54424	30.99691
	74.54427	30.99715
	74.54515	30.99754
	74.5458	30.99932
	74.54285	31.00457
	74.54047	31.00855
	74.54139	31.00912
	74.5433	31.00954
	74.54431	31.01109
	74.54418	31.01589
	74.54347	31.01774
	74.54656	31.02595
	74.54687	31.02671
	74.54735	31.02676
	74.55076	31.02931
	74.55096	31.02964
	74.55099	31.02987
	74.5506	31.03051
	74.55062	31.03073
	74.54987	31.03276
	74.54971	31.0329
	74.54962	31.03309
	74.55759	31.03781
	74.55871	31.03706
	74.55888	31.03701
	74.55922	31.03717
	74.55928	31.03791
	74.55939	31.03822
	74.55943	31.03921
	74.56038	31.04189
	74.5605	31.04253
	74.56068	31.04301
	74.56111	31.04467
	74.56128	31.04591
	74.56263	31.04745
	74.56311	31.04813
	74.56326	31.04842
	74.56344	31.04844
	74.56615	31.04987
	74.56851	31.05099
	74.56928	31.05129
	74.57007	31.05154
	74.57124	31.05176
	74.574	31.05185
	74.57822	31.05181
	74.58081	31.05171
	74.58418	31.05147
	74.58577	31.05079
	74.58762	31.04982
	74.58835	31.04926
	74.58917	31.04848
	74.58999	31.04711
	74.59053	31.04465
	74.59576	31.03642
	74.5966	31.03624
	74.60089	31.0386
	74.60636	31.04013
	74.61348	31.04294
	74.61848	31.04266
	74.62668	31.04387
	74.63086	31.04531
	74.63393	31.04532
	74.63576	31.04633
	74.63885	31.04665
	74.64951	31.04769
	74.65948	31.04868
	74.67143	31.05206
	74.68	31.05888
	74.68852	31.06596
	74.69029	31.06833
	74.69127	31.06836
	74.69146	31.06822
	74.69212	31.06848
	74.6936	31.06849
	74.69357	31.06892
	74.69411	31.06889
	74.69553	31.07088
	74.70016	31.07683
	74.70214	31.08181
	74.70151	31.08406
	74.70185	31.08532
	74.70297	31.0888
	74.70397	31.09147
	74.70394	31.09286
	74.70384	31.09535
	74.70371	31.096
	74.70344	31.09666
	74.70335	31.09833
	74.70112	31.10026
	74.69995	31.1022
	74.69975	31.103
	74.70007	31.10594
	74.70011	31.1091
	74.70003	31.1119
	74.69903	31.11344
	74.69608	31.11597
	74.69433	31.11684
	74.69464	31.11714
	74.69342	31.11818
	74.69234	31.11965
	74.69151	31.11999
	74.69169	31.12216
	74.69226	31.12391
	74.69077	31.12713
	74.68953	31.12932
	74.68632	31.12906
	74.68219	31.12853
	74.67322	31.12496
	74.6699	31.12535
	74.66647	31.12627
	74.65961	31.13593
	74.65712	31.13443
	74.65221	31.13048
	74.6508	31.13048
	74.64871	31.1297
	74.6474	31.12896
	74.64548	31.12768
	74.64411	31.1254
	74.64375	31.1249
	74.64218	31.124
	74.64151	31.12342
	74.64086	31.12222
	74.63948	31.12085
	74.6382	31.12006
	74.63692	31.11948
	74.63538	31.12051
	74.63389	31.12181
	74.63428	31.12403
	74.63346	31.12699
	74.63258	31.12831
	74.63263	31.12895
	74.63427	31.13162
	74.63122	31.13437
	74.62745	31.13213
	74.62229	31.13439
	74.61895	31.13292
	74.61792	31.13279
	74.60985	31.1351
	74.60301	31.13532
	74.59979	31.13297
	74.59882	31.13076
	74.59569	31.13068
	74.5957	31.1294
	74.59524	31.12793
	74.59533	31.12583
	74.59975	31.12063
	74.60166	31.11824
	74.60224	31.11744
	74.60238	31.11714
	74.60295	31.11546
	74.60335	31.11477
	74.6036	31.11425
	74.6042	31.11364
	74.60491	31.11319
	74.60555	31.11283
	74.60693	31.11255
	74.60784	31.11174
	74.60818	31.11109
	74.60765	31.10967
	74.60783	31.10884
	74.60811	31.10647
	74.60851	31.10539
	74.60843	31.10435
	74.60875	31.10304
	74.60861	31.10176
	74.60776	31.10046
	74.60821	31.09867
	74.60676	31.09691
	74.60645	31.09661
	74.60596	31.09637
	74.60385	31.09646
	74.60307	31.09609
	74.60238	31.09551
	74.60241	31.09459
	74.6002	31.09455
	74.59905	31.09441
	74.59872	31.09427
	74.59847	31.09404
	74.59798	31.09357
	74.59782	31.09331
	74.59783	31.09249
	74.59819	31.09165
	74.59832	31.09162
	74.59885	31.08963
	74.59849	31.08942
	74.59759	31.09019
	74.59678	31.09044
	74.59641	31.09043
	74.59575	31.09001
	74.59495	31.09003
	74.59365	31.09029
	74.59261	31.0903
	74.59258	31.09173
	74.59239	31.09268
	74.5922	31.09291
	74.59191	31.09343
	74.59118	31.09369
	74.59054	31.09382
	74.58875	31.09377
	74.58767	31.09345
	74.58542	31.09196
	74.58506	31.09098
	74.58523	31.09035
	74.58584	31.08935
	74.58621	31.0889
	74.5863	31.08868
	74.58612	31.08846
	74.58567	31.08831
	74.58456	31.08836
	74.58411	31.08852
	74.5833	31.08853
	74.58158	31.08862
	74.57988	31.08835
	74.5792	31.08811
	74.57864	31.08752
	74.57746	31.08749
	74.57584	31.08706
	74.57416	31.08711
	74.57397	31.08732
	74.57384	31.08736
	74.57358	31.08725
	74.57347	31.08698
	74.57287	31.08679
	74.57069	31.08309
	74.5704	31.08283
	74.5689	31.08314
	74.56501	31.08373
	74.56446	31.08417
	74.56228	31.0847
	74.56085	31.08426
	74.55926	31.08454
	74.55832	31.08539
	74.55695	31.08618
	74.5552	31.08637
	74.55385	31.08676
	74.55261	31.08756
	74.55221	31.0897
	74.55205	31.09407
	74.55227	31.09782
	74.55095	31.10106
	74.55067	31.10215
	74.5514	31.10322
	74.55173	31.1046
	74.55158	31.10694
	74.55158	31.10801
	74.55146	31.11317
	74.55034	31.11471
	74.55015	31.11557
	74.55007	31.123
	74.54525	31.12365
	74.53929	31.12507
	74.53159	31.12805
	74.52697	31.12981
	74.52525	31.13036
	74.51945	31.13122
	74.51466	31.13191
	74.51465	31.1318
	74.51391	31.13171
	74.51324	31.1317
	74.51308	31.13193
	74.51278	31.13252
	74.51332	31.13262
	74.51517	31.13846
	74.51645	31.14192
	74.51668	31.14916
	74.51698	31.15181
	74.51466	31.15817
	74.51426	31.15951
	74.51404	31.15975
	74.51409	31.16032
	74.51418	31.16064
	74.51414	31.16714
	74.51411	31.16858
	74.51356	31.16998
	74.51256	31.17245
	74.51226	31.1729
	74.51191	31.17298
	74.51184	31.1732
	74.51283	31.18054
	74.51989	31.18208
	74.52072	31.18264
	74.52329	31.18945
	74.52333	31.19707
	74.52637	31.2024
	74.52733	31.20589
	74.52748	31.2112
	74.52703	31.21563
	74.52617	31.22041
	74.52444	31.22295
	74.52223	31.22581
	74.52155	31.22629
	74.51967	31.22734
	74.51926	31.22811
	74.52461	31.23427
	74.52915	31.23899
	74.53155	31.24281
	74.53309	31.24557
	74.53331	31.24601
	74.53438	31.24965
	74.53354	31.25285
	74.52846	31.25965
	74.52486	31.26344
	74.52227	31.26902
	74.52439	31.27219
	74.52639	31.27487
	74.52862	31.27776
	74.53157	31.28195
	74.53391	31.28745
	74.53502	31.29047
	74.5363	31.29362
	74.53864	31.29857
	74.54325	31.30291
	74.54321	31.30559
	74.54143	31.30687
	74.53846	31.30802
	74.53823	31.30825
	74.53796	31.30849
	74.5354	31.31072
	74.53547	31.31165
	74.53608	31.31246
	74.53898	31.31819
	74.5389	31.32409
	74.53893	31.32901
	74.54078	31.33055
	74.54372	31.33234
	74.55061	31.33411
	74.54955	31.33655
	74.54793	31.33918
	74.55046	31.34407
	74.55156	31.348
	74.55228	31.34965
	74.55485	31.35617
	74.55306	31.36133
	74.55443	31.36477
	74.56115	31.36747
	74.56869	31.37032
	74.57182	31.37002
	74.57607	31.37239
	74.57932	31.37436
	74.58142	31.37599
	74.58612	31.3798
	74.58681	31.38052
	74.58799	31.384
	74.58897	31.39411
	74.59343	31.40154
	74.59478	31.40424
	74.59572	31.4064
	74.59589	31.4095
	74.59734	31.41277
	74.59697	31.41283
	74.59642	31.41342
	74.59681	31.41408
	74.598	31.41366
	74.60054	31.41408
	74.60379	31.41473
	74.60435	31.41828
	74.6079	31.41989
	74.60879	31.42104
	74.61089	31.42122
	74.61184	31.42124
	74.61292	31.42118
	74.61437	31.42058
	74.61694	31.41909
	74.6173	31.41896
	74.61934	31.41882
	74.62055	31.41929
	74.62111	31.42047
	74.62217	31.42415
	74.62253	31.42563
	74.62358	31.42875
	74.6267	31.42822
	74.63053	31.42215
	74.63053	31.42188
	74.63091	31.42091
	74.6332	31.41784
	74.63416	31.41755
	74.63505	31.41705
	74.63601	31.417
	74.63711	31.41702
	74.63932	31.41533
	74.64419	31.41495
	74.64673	31.41766
	74.64798	31.42073
	74.64811	31.42207
	74.64947	31.42312
	74.65234	31.42425
	74.65346	31.42433
	74.65532	31.42505
	74.65574	31.42545
	74.65537	31.42765
	74.65375	31.42989
	74.65144	31.43217
	74.65069	31.43277
	74.6479	31.43592
	74.64462	31.43824
	74.64107	31.44125
	74.64105	31.44666
	74.64607	31.44866
	74.65114	31.45065
	74.65321	31.45238
	74.65453	31.45436
	74.65212	31.46046
	74.64985	31.46516
	74.6418	31.47272
	74.64094	31.47358
	74.63693	31.47829
	74.63365	31.47958
	74.63554	31.48249
	74.63794	31.48512
	74.63371	31.48697
	74.62958	31.48738
	74.61765	31.48851
	74.61573	31.48983
	74.61526	31.49195
	74.61455	31.49447
	74.61325	31.49685
	74.61238	31.4995
	74.6053	31.50074
	74.594	31.50275
	74.59271	31.49751
	74.58644	31.49853
	74.58574	31.49875
	74.58836	31.50427
	74.5841	31.51263
	74.58507	31.51699
	74.58654	31.51934
	74.58961	31.52005
	74.59357	31.52228
	74.59594	31.52345
	74.60105	31.52248
	74.6041	31.52259
	74.60693	31.52386
	74.6079	31.52418
	74.61	31.52438
	74.61456	31.5261
	74.61488	31.52864
	74.61515	31.53245
	74.61704	31.53923
	74.6171	31.54387
	74.61782	31.54883
	74.62015	31.55289
	74.61719	31.55846
	74.60947	31.5632
	74.61681	31.56697
	74.61759	31.56938
	74.61081	31.57003
	74.60259	31.57409
	74.59322	31.57535
	74.59258	31.57642
	74.59185	31.57643
	74.59103	31.57704
	74.5903	31.57799
	74.58872	31.57932
	74.58593	31.58081
	74.58537	31.58144
	74.58627	31.58289
	74.58695	31.58348
	74.5835	31.58569
	74.58177	31.58642
	74.58105	31.58719
	74.58177	31.58789
	74.58087	31.59075
	74.58091	31.59105
	74.58137	31.59096
	74.58157	31.5917
	74.58134	31.59174
	74.58114	31.59248
	74.58083	31.59256
	74.58108	31.59356
	74.58093	31.59425
	74.57973	31.59449
	74.57941	31.59486
	74.5782	31.59513
	74.57786	31.595
	74.57654	31.59578
	74.57485	31.59776
	74.575	31.59854
	74.57562	31.59842
	74.57708	31.5985
	74.57744	31.59944
	74.57892	31.5997
	74.57837	31.60005
	74.57705	31.60045
	74.57631	31.60045
	74.57619	31.60079
	74.57575	31.60074
	74.57553	31.60316
	74.57538	31.60369
	74.5752	31.60387
	74.57452	31.60398
	74.57422	31.60397
	74.57327	31.60378
	74.57312	31.60433
	74.57301	31.60499
	74.57316	31.60541
	74.57194	31.60567
	74.57105	31.60595
	74.56971	31.60615
	74.56935	31.60618
	74.56921	31.60655
	74.56739	31.60697
	74.56658	31.60702
	74.56422	31.60725
	74.56304	31.60752
	74.562	31.60752
	74.56009	31.60721
	74.5589	31.60731
	74.55733	31.60761
	74.5555	31.60782
	74.55572	31.60875
	74.54459	31.60996
	74.54251	31.61614
	74.55059	31.63194
	74.55027	31.63275
	74.54943	31.63376
	74.55018	31.63825
	74.54989	31.64479
	74.54564	31.64952
	74.54138	31.64945
	74.5397	31.65134
	74.53978	31.65273
	74.54025	31.65269
	74.54178	31.66036
	74.54139	31.66073
	74.53695	31.66475
	74.53204	31.66851
	74.53331	31.67049
	74.53611	31.67257
	74.53711	31.67722
	74.53478	31.67998
	74.53475	31.681
	74.53229	31.68243
	74.5322	31.68256
	74.52822	31.6853
	74.52542	31.68781
	74.517	31.69011
	74.509	31.69419
	74.50846	31.69432
	74.50575	31.69687
	74.50509	31.70366
	74.50325	31.70443
	74.50236	31.70589
	74.47278	31.72057
	74.48973	31.7286
	74.49508	31.74064
	74.55172	31.75313
	74.54414	31.77632
	74.55485	31.79148
	74.54949	31.79817
	74.5602	31.81512
	74.55574	31.82761
	74.58027	31.84367
	74.58339	31.85705
	74.59588	31.86463
	74.599	31.88515
	74.62666	31.88292
	74.6378	31.89674
	74.65074	31.89808
	74.65966	31.91815
	74.68464	31.92306
	74.70114	31.91637
	74.70917	31.91949
	74.70738	31.93554
	74.72478	31.94313
	74.73949	31.93867
	74.74574	31.94179
	74.74574	31.9516
	74.75956	31.94625
	74.80149	31.96186
	74.80907	31.95517
	74.81978	31.97658
	74.81844	31.99754
	74.84565	32.00914
	74.84029	32.02029
	74.86527	32.02385
	74.86215	32.04526
	74.87954	32.05195
	74.89783	32.04972
	74.90879	32.05784
	74.91333	32.0598
	74.91514	32.05865
	74.91774	32.05676
	74.91842	32.05785
	74.91967	32.0609
	74.92663	32.06485
	74.93351	32.06417
	74.9445	32.06145
	74.94685	32.0596
	74.94815	32.05839
	74.9512	32.05763
	74.95247	32.0577
	74.95394	32.05857
	74.96023	32.05744
	74.97173	32.0535
	74.97649	32.04836
	74.97469	32.04068
	74.99238	32.04348
	74.99907	32.03411
	75.01022	32.04526
	75.02405	32.04928
	75.02851	32.04259
	75.05795	32.06221
	75.09229	32.05954
	75.09764	32.07024
	75.11637	32.08273
	75.14447	32.08273
	75.15287	32.07967
	75.1573	32.0725
	75.15872	32.0685
	75.16454	32.06801
	75.16827	32.07144
	75.17168	32.07916
	75.17475	32.08118
	75.18142	32.08186
	75.18506	32.08362
	75.18548	32.09544
	75.18741	32.09939
	75.18902	32.10017
	75.19356	32.1001
	75.19332	32.11525
	75.19532	32.11663
	75.19862	32.11753
	75.20477	32.11553
	75.21212	32.11909
	75.22265	32.11298
	75.22498	32.10527
	75.22345	32.09135
	75.22769	32.08463
	75.2332	32.0843
	75.23909	32.08755
	75.27198	32.11269
	75.27448	32.118
	75.27714	32.13498
	75.28323	32.1379
	75.28332	32.13859
	75.28356	32.13953
	75.28367	32.14084
	75.28542	32.14364
	75.31005	32.15522
	75.31775	32.1709
	75.31689	32.19252
	75.32273	32.20146
	75.33361	32.20456
	75.31976	32.20817
	75.31334	32.21308
	75.31765	32.21805
	75.33373	32.21909
	75.34001	32.21758
	75.34313	32.21885
	75.34646	32.21796
	75.35224	32.22215
	75.35915	32.22704
	75.37691	32.22852
	75.37846	32.23029
	75.37929	32.23062
	75.37929	32.23214
	75.37984	32.23231
	75.37986	32.23242
	75.38051	32.23818
	75.38044	32.23896
	75.37952	32.2408
	75.37705	32.24598
	75.37798	32.25051
	75.37966	32.25272
	75.37809	32.25722
	75.37807	32.2579
	75.37918	32.26146
	75.37916	32.2634
	75.38425	32.27018
	75.3843	32.27096
	75.38407	32.27168
	75.38038	32.27339
	75.37804	32.27644
	75.37692	32.27718
	75.37262	32.27917
	75.37096	32.27973
	75.36847	32.2805
	75.36057	32.28308
	75.3561	32.28666
	75.3503	32.29054
	75.34597	32.29154
	75.33926	32.29318
	75.338	32.29476
	75.33589	32.29516
	75.33008	32.29744
	75.32553	32.29581
	75.32138	32.29715
	75.32139	32.29825
	75.32372	32.30196
	75.33031	32.30669
	75.3321	32.30762
	75.3351	32.3109
	75.33527	32.314
	75.3362	32.31596
	75.33744	32.31897
	75.33771	32.32069
	75.3376	32.32087
	75.33765	32.3218
	75.33424	32.32617
	75.33406	32.3288
	75.33184	32.32713
	75.32696	32.32817
	75.32698	32.32947
	75.32599	32.3329
	75.32593	32.33371
	75.32598	32.33516
	75.32584	32.33586
	75.32571	32.33716
	75.32546	32.33905
	75.3318	32.34454
	75.37863	32.32893
	75.4152	32.32447
	75.466	32.33836
	75.46612	32.33874
	75.46641	32.33945
	75.46656	32.33977
	75.46687	32.34029
	75.46711	32.34061
	75.46767	32.34112
	75.46808	32.34135
	75.4686	32.34156
	75.46885	32.34163
	75.46916	32.34169
	75.46954	32.34174
	75.46989	32.34175
	75.47025	32.34174
	75.47075	32.34168
	75.4727	32.34138
	75.47277	32.34138
	75.47367	32.34177
	75.47434	32.34204
	75.47695	32.34096
	75.47586	32.33835
	75.474	32.33756
	75.47368	32.33746
	75.47294	32.33736
	75.47237	32.3374
	75.47177	32.33748
	75.47101	32.33368
	75.47149	32.33351
	75.47133	32.33306
	75.47191	32.33317
	75.47225	32.33129
	75.47264	32.3307
	75.47269	32.33051
	75.47254	32.32908
	75.47193	32.32785
	75.47179	32.32761
	75.47191	32.3271
	75.47201	32.3262
	75.47172	32.32494
	75.47132	32.32429
	75.46957	32.32334
	75.4691	32.32335
	75.46889	32.32305
	75.46783	32.31778
	75.49013	32.31019
	75.49013	32.28789
	75.49459	32.27674
	75.50128	32.27585
	75.516	32.29815
	75.54064	32.341
	75.57977	32.37478
	75.64605	32.38496
	75.68504	32.40073
	75.71135	32.41813
	75.73304	32.45898
	75.75792	32.45974
	75.77503	32.46516
	75.80132	32.48359
	75.81449	32.49859
	75.82255	32.51281
	75.83802	32.53766
	75.8557	32.55741
	75.85617	32.55719
	75.85637	32.55717
	75.85684	32.55693
	75.85795	32.55674
	75.85876	32.55683
	75.85997	32.55742
	75.86033	32.5578
	75.86036	32.55781
	75.86089	32.55827
	75.86111	32.55835
	75.86156	32.55886
	75.86157	32.55889
	75.86245	32.55993
	75.86256	32.5606
	75.86254	32.56133
	75.86226	32.56264
	75.86184	32.56351
	75.86151	32.5639
	75.87236	32.57602
	75.87549	32.57066
	75.8514	32.52116
	75.85542	32.49975
	75.8688	32.4886
	75.93481	32.42482
	75.92588	32.41188
	75.91117	32.40921
	75.87192	32.3985
	75.84382	32.37933
	75.78504	32.32283
	75.78495	32.32278
	75.78197	32.32003
	75.7818	32.31985
	75.78123	32.31917
	75.76588	32.30442
	75.76427	32.30328
	75.7622	32.30152
	75.75937	32.29931
	75.75737	32.298
	75.75659	32.29704
	75.75649	32.29677
	75.75644	32.29549
	75.7566	32.29494
	75.75671	32.29465
	75.75713	32.29374
	75.75715	32.2933
	75.75723	32.29291
	75.75739	32.29243
	75.75752	32.29216
	75.75754	32.29205
	75.75755	32.29177
	75.75769	32.29163
	75.75462	32.28611
	75.73444	32.27627
	75.68415	32.26228
	75.6226	32.23482
	75.62037	32.18531
	75.65605	32.17684
	75.66185	32.16479
	75.6556	32.14606
	75.63107	32.1193
	75.61055	32.09968
	75.57889	32.08184
	75.59851	32.06623
	75.64936	32.07738
	75.68994	32.06132
	75.71046	32.0359
	75.73811	32.0359
	75.7952	31.98862
	75.83624	31.98148
	75.84159	31.97346
	75.87772	31.96186
	75.89466	31.94982
	75.94417	31.85749
	75.97138	31.81468
	75.95309	31.82404
	75.93347	31.81512
	75.92187	31.81735
	75.95934	31.74956
	75.95755	31.74064
	75.96603	31.7335
	75.97584	31.69514
	75.99234	31.68444
	76.00483	31.66303
	76.0026	31.64653
	76.02312	31.61531
	76.04408	31.60282
	76.04319	31.59212
	76.1083	31.49533
	76.11544	31.46545
	76.15335	31.41416
	76.1529	31.39721
	76.13417	31.38249
	76.14325	31.34626
	76.14862	31.34181
	76.16629	31.34146
	76.17298	31.30667
	76.20643	31.30533
	76.22337	31.31291
	76.25549	31.31514
	76.26129	31.30578
	76.27734	31.30979
	76.30232	31.32629
	76.29607	31.34235
	76.31793	31.35216
	76.32997	31.34547
	76.33666	31.35305
	76.32953	31.37937
	76.31838	31.38115
	76.32051	31.39159
	76.34256	31.40183
	76.3431	31.40046
	76.34328	31.40007
	76.34326	31.39965
	76.34488	31.39751
	76.34717	31.39891
	76.34725	31.39918
	76.34732	31.39951
	76.34735	31.39978
	76.34737	31.40019
	76.34734	31.40061
	76.34729	31.40087
	76.34715	31.40135
	76.34685	31.40205
	76.34632	31.40346
	76.34607	31.40358
	76.35391	31.40842
	76.35896	31.4155
	76.35673	31.42977
	76.36298	31.44136
	76.37546	31.42219
	76.37323	31.41371
	76.3743	31.41332
	76.37493	31.41101
	76.37503	31.41096
	76.37918	31.40824
	76.37968	31.40801
	76.3801	31.40788
	76.38074	31.40779
	76.38345	31.40785
	76.39018	31.39721
	76.38377	31.39362
	76.38393	31.39326
	76.38271	31.39054
	76.38237	31.39043
	76.38126	31.38822
	76.44816	31.30578
	76.43058	31.29099
	76.43155	31.28974
	76.43425	31.28614
	76.43462	31.28562
	76.4669	31.31024
	76.49097	31.27514
	76.51417	31.28303
	76.51819	31.26251
	76.528	31.2701
	76.53112	31.28348
	76.53737	31.28392
	76.53514	31.25538
	76.54584	31.25582
	76.57164	31.26586
	76.57469	31.26884
	76.57911	31.27092
	76.58299	31.2757
	76.58655	31.2741
	76.58894	31.27278
	76.59073	31.27032
	76.59222	31.26806
	76.59192	31.26582
	76.60005	31.25969
	76.60122	31.25877
	76.6049	31.2547
	76.61061	31.25131
	76.61069	31.2489
	76.61053	31.24614
	76.61037	31.24405
	76.60893	31.24231
	76.60593	31.24122
	76.60213	31.24077
	76.59942	31.23998
	76.59787	31.23821
	76.59611	31.23575
	76.59481	31.23298
	76.59292	31.22334
	76.58926	31.22116
	76.59296	31.21132
	76.59779	31.21233
	76.60091	31.21247
	76.60625	31.21678
	76.61208	31.21672
	76.61498	31.21891
	76.61765	31.21956
	76.61832	31.22078
	76.6218	31.22186
	76.62387	31.22487
	76.62799	31.22616
	76.63203	31.22376
	76.63965	31.22193
	76.63944	31.22141
	76.63841	31.22092
	76.63745	31.2204
	76.63698	31.21907
	76.63778	31.21833
	76.63682	31.21734
	76.63613	31.21796
	76.6356	31.21779
	76.63477	31.21779
	76.63434	31.21698
	76.64795	31.21011
	76.6123	31.20275
	76.59044	31.18268
	76.59	31.15725
	76.59892	31.15101
	76.5891	31.12782
	76.62389	31.11801
	76.62568	31.11042
	76.615	31.09975
	76.61611	31.09849
	76.61648	31.09787
	76.61667	31.09738
	76.6168	31.09667
	76.6168	31.09605
	76.61663	31.09525
	76.616	31.09379
	76.6157	31.09331
	76.61508	31.09258
	76.61458	31.09214
	76.61399	31.09179
	76.61378	31.09168
	76.61127	31.09056
	76.6107	31.09007
	76.6079	31.08647
	76.60471	31.07831
	76.60962	31.06047
	76.59892	31.05333
	76.61363	31.02211
	76.61007	31.00427
	76.6627	30.97127
	76.69436	30.97261
	76.71265	30.96324
	76.72603	30.93916
	76.74878	30.92934
	76.76974	30.9066
	76.7626	30.89322
	76.76885	30.87671
	76.80141	30.84237
	76.82772	30.83256
	76.83352	30.80446
	76.8469	30.79242
	76.82811	30.76395
	76.82824	30.76071
	76.82852	30.76027
	76.82988	30.75871
	76.83062	30.75778
	76.83031	30.75497
	76.8275	30.75528
	76.82689	30.75603
	76.82683	30.75612
	76.82541	30.75774
	76.82523	30.75799
	76.82474	30.75876
	76.82408	30.76001
	76.82401	30.76017
	76.82374	30.76082
	76.82361	30.76122
	76.8235	30.76181
	76.82347	30.76206
	76.82334	30.76431
	76.79287	30.76663
	76.79535	30.76941
	76.79693	30.7691
	76.79717	30.77031
	76.79687	30.77044
	76.79798	30.77304
	76.79894	30.77343
	76.80402	30.77912
	76.79599	30.78581
	76.79529	30.78525
	76.79489	30.78561
	76.79317	30.78545
	76.79276	30.78536
	76.79206	30.78515
	76.79181	30.78505
	76.79149	30.7849
	76.7912	30.78473
	76.79056	30.78428
	76.79034	30.78416
	76.79005	30.78406
	76.78983	30.78402
	76.78865	30.78396
	76.78863	30.78395
	76.78574	30.78377
	76.78544	30.78373
	76.78499	30.78363
	76.78472	30.78355
	76.78415	30.78333
	76.78398	30.78326
	76.78332	30.78294
	76.78305	30.78278
	76.78251	30.78241
	76.78232	30.78226
	76.7817	30.7817
	76.78117	30.78111
	76.78092	30.78076
	76.78063	30.78025
	76.77988	30.77872
	76.7792	30.77739
	76.77885	30.77652
	76.77808	30.7745
	76.76923	30.77689
	76.77726	30.78536
	76.75948	30.79911
	76.73801	30.78982
	76.72285	30.77064
	76.70768	30.7702
	76.69073	30.75994
	76.69073	30.74656
	76.70099	30.74522
	76.71288	30.74166
	76.71453	30.73887
	76.71703	30.73598
	76.71759	30.73433
	76.71927	30.73231
	76.73055	30.72447
	76.73386	30.71473
	76.73845	30.70145
	76.74014	30.69763
	76.73966	30.6933
	76.74161	30.69301
	76.74643	30.69507
	76.75111	30.68612
	76.75264	30.68708
	76.75522	30.68667
	76.75625	30.68547
	76.7565	30.68551
	76.75677	30.68562
	76.75719	30.68576
	76.75847	30.68588
	76.75911	30.68589
	76.75933	30.6858
	76.76101	30.68616
	76.7893	30.67074
	76.80268	30.67564
	76.81027	30.68501
	76.81735	30.68739
	76.81749	30.68471
	76.81879	30.68457
	76.81934	30.68391
	76.81894	30.68094
	76.81793	30.68026
	76.81772	30.68031
	76.81857	30.66371
	76.81996	30.66345
	76.82153	30.6611
	76.8348	30.66405
	76.8348	30.65602
	76.84517	30.66366
	76.84904	30.66742
	76.85908	30.66078
	76.85843	30.64085
	76.87271	30.63996
	76.89953	30.61981
	76.90088	30.61276
	76.90338	30.61104
	76.9075	30.60827
	76.90772	30.60811
	76.90821	30.60783
	76.91173	30.60623
	76.91217	30.60596
	76.91229	30.60599
	76.9128	30.60605
	76.91291	30.60605
	76.91344	30.60627
	76.91374	30.60637
	76.91491	30.60666
	76.91746	30.60754
	76.91758	30.6076
	76.91874	30.60845
	76.92	30.60927
	76.92056	30.60953
	76.92077	30.60959
	76.92107	30.60965
	76.92224	30.60978
	76.92263	30.60979
	76.92279	30.60977
	76.92347	30.61054
	76.92628	30.61087
	76.92661	30.60806
	76.92639	30.60779
	76.92603	30.60739
	76.92598	30.60726
	76.92569	30.60676
	76.92551	30.60653
	76.92491	30.606
	76.92475	30.60591
	76.92434	30.60573
	76.9239	30.60561
	76.92315	30.60549
	76.9226	30.60579
	76.92186	30.60571
	76.92105	30.60518
	76.91967	30.60417
	76.91913	30.60389
	76.91601	30.60281
	76.91484	30.60252
	76.91408	30.60221
	76.9136	30.60209
	76.91338	30.60206
	76.91324	30.60206
	76.91302	30.60194
	76.91246	30.60182
	76.91335	30.59974
	76.89864	30.58859
	76.90443	30.58056
	76.89908	30.56406
	76.90577	30.55826
	76.88526	30.54042
	76.92004	30.52481
	76.91246	30.49359
	76.88882	30.48467
	76.89819	30.46772
	76.88882	30.44096
	76.90354	30.4249
	76.90533	30.40483
	76.93119	30.39725
	76.89774	30.36246
	76.88704	30.35845
	76.87634	30.36335
	76.87883	30.37747
	76.878	30.37737
	76.87787	30.37748
	76.87713	30.37942
	76.8773	30.38
	76.87746	30.38034
	76.87778	30.38083
	76.87785	30.38091
	76.87945	30.38101
	76.88035	30.3861
	76.86608	30.39502
	76.86474	30.40885
	76.83976	30.42089
	76.83263	30.43382
	76.80854	30.41197
	76.77063	30.41821
	76.76439	30.4249
	76.76662	30.43605
	76.7577	30.43873
	76.74878	30.42669
	76.72514	30.42044
	76.72648	30.40483
	76.70016	30.39368
	76.70507	30.38075
	76.718	30.37718
	76.71131	30.36514
	76.73049	30.36737
	76.73462	30.36347
	76.73395	30.36334
	76.73448	30.36056
	76.73632	30.3593
	76.73631	30.35787
	76.71533	30.33972
	76.71533	30.33303
	76.67964	30.32143
	76.67666	30.32415
	76.6762	30.32381
	76.67419	30.32192
	76.67295	30.31296
	76.66225	30.29957
	76.6511	30.29913
	76.62612	30.28396
	76.623	30.29155
	76.60962	30.27058
	76.54762	30.26479
	76.54584	30.24338
	76.53246	30.22732
	76.5842	30.25631
	76.61185	30.23089
	76.60427	30.21528
	76.63906	30.20591
	76.64173	30.18941
	76.62255	30.17023
	76.62746	30.15507
	76.623	30.14481
	76.62924	30.13455
	76.62657	30.10556
	76.60115	30.08014
	76.57662	30.07523
	76.58063	30.08683
	76.54491	30.07462
	76.5338	30.08281
	76.50124	30.07657
	76.49098	30.09709
	76.45218	30.10065
	76.4446	30.12295
	76.44638	30.13723
	76.43612	30.13723
	76.42586	30.14748
	76.4223	30.16354
	76.42854	30.1796
	76.42007	30.19788
	76.41025	30.20234
	76.38082	30.18317
	76.40178	30.15774
	76.38438	30.1457
	76.39018	30.12741
	76.36387	30.12741
	76.34291	30.15328
	76.32596	30.14927
	76.3487	30.12786
	76.32284	30.10824
	76.29295	30.11849
	76.28002	30.11359
	76.25103	30.11894
	76.20375	30.15908
	76.21178	30.135
	76.19394	30.14079
	76.19082	30.135
	76.22873	30.10913
	76.25504	30.10467
	76.1984	30.03777
	76.21535	30.02706
	76.19082	30.01636
	76.19884	29.97309
	76.19483	29.96551
	76.20375	29.9441
	76.17877	29.94633
	76.16629	29.92849
	76.1819	29.92314
	76.18457	29.8888
	76.22516	29.88523
	76.23854	29.87586
	76.24211	29.86917
	76.23542	29.85981
	76.21178	29.85312
	76.21133	29.84331
	76.19438	29.84509
	76.18591	29.83126
	76.16673	29.81833
	76.13908	29.81654
	76.11633	29.79647
	76.10646	29.80566
	76.10572	29.80533
	76.1057	29.80524
	76.10558	29.80527
	76.10551	29.80524
	76.10549	29.80529
	76.10312	29.80572
	76.10049	29.80617
	76.1001	29.8062
	76.09936	29.80619
	76.09885	29.80616
	76.09746	29.80662
	76.09743	29.80665
	76.09675	29.80861
	76.09701	29.8093
	76.09718	29.80959
	76.09046	29.81075
	76.07753	29.80584
	76.07683	29.80036
	76.07787	29.80034
	76.07984	29.79833
	76.07981	29.79518
	76.0778	29.79319
	76.07592	29.7932
	76.07441	29.78131
	76.05835	29.77328
	76.0414	29.74875
	76.01776	29.75589
	75.97272	29.73225
	75.93882	29.73359
	75.91384	29.73894
	75.89734	29.75544
	75.8795	29.74697
	75.86389	29.75232
	75.86127	29.75563
	75.86126	29.75652
	75.86112	29.75722
	75.86098	29.75755
	75.86064	29.75821
	75.85967	29.75987
	75.85934	29.76032
	75.85885	29.76082
	75.85681	29.76437
	75.85598	29.76587
	75.85483	29.76788
	75.85427	29.76892
	75.85367	29.76985
	75.85243	29.7707
	75.85205	29.77078
	75.85159	29.77083
	75.85055	29.77084
	75.84968	29.77101
	75.84952	29.771
	75.84919	29.77091
	75.83356	29.79068
	75.8291	29.81253
	75.82018	29.81521
	75.7961	29.80718
	75.77463	29.82318
	75.77375	29.8223
	75.77367	29.8223
	75.77309	29.8224
	75.77301	29.82234
	75.77284	29.82227
	75.77255	29.82218
	75.7722	29.8221
	75.77187	29.82183
	75.77032	29.82063
	75.76641	29.81763
	75.76585	29.81732
	75.7651	29.81718
	75.76016	29.81719
	75.75909	29.81827
	75.74837	29.81208
	75.72607	29.81164
	75.706	29.80852
	75.69753	29.75499
	75.68727	29.75187
	75.65649	29.77596
	75.62527	29.77328
	75.6226	29.75366
	75.61323	29.74652
	75.59271	29.7492
	75.56863	29.74251
	75.56328	29.74429
	75.55659	29.7657
	75.54738	29.76415
	75.54625	29.76527
	75.5436	29.76525
	75.53027	29.77284
	75.52092	29.76638
	75.51913	29.7664
	75.51548	29.7664
	75.51156	29.76642
	75.50952	29.76637
	75.50923	29.76607
	75.50619	29.77417
	75.44674	29.80668
	75.44665	29.80722
	75.44432	29.80883
	75.44275	29.80656
	75.44132	29.80506
	75.44116	29.80443
	75.44004	29.80057
	75.43963	29.79981
	75.43937	29.79951
	75.4374	29.79745
	75.43716	29.79708
	75.43703	29.79679
	75.4368	29.79645
	75.44084	29.79051
	75.43817	29.78814
	75.43478	29.785
	75.43198	29.7825
	75.42814	29.78129
	75.4267	29.78129
	75.42346	29.78126
	75.42147	29.77934
	75.42147	29.77918
	75.40985	29.77551
	75.39736	29.76124
	75.37863	29.71129
	75.36607	29.71264
	75.36609	29.712
	75.36414	29.70992
	75.36141	29.70985
	75.36082	29.71055
	75.35864	29.70973
	75.35826	29.70963
	75.35802	29.70959
	75.3575	29.70976
	75.33537	29.69389
	75.35053	29.6591
	75.33001	29.67248
	75.31753	29.6707
	75.30771	29.63234
	75.28051	29.61004
	75.28051	29.60335
	75.30459	29.58863
	75.2975	29.57491
	75.29751	29.57332
	75.29749	29.56594
	75.2961	29.56456
	75.29612	29.56219
	75.29614	29.56179
	75.29541	29.56016
	75.29534	29.5601
	75.29342	29.55975
	75.29279	29.55997
	75.29012	29.56098
	75.28893	29.56145
	75.22342	29.54626
	75.22832	29.55875
	75.21137	29.58239
	75.22342	29.59889
	75.22119	29.60647
	75.19933	29.62253
	75.18461	29.62253
	75.17346	29.63011
	75.17346	29.64929
	75.16529	29.65633
	75.15785	29.66267
	75.15875	29.66936
	75.19532	29.68765
	75.19755	29.69657
	75.18729	29.71173
	75.19353	29.72511
	75.20602	29.73537
	75.22119	29.73314
	75.231	29.75187
	75.21227	29.78666
	75.19799	29.79603
	75.20112	29.82992
	75.17837	29.83706
	75.15562	29.81967
	75.14893	29.79603
	75.15919	29.78443
	75.1418	29.77685
	75.13154	29.78488
	75.12485	29.80584
	75.09006	29.80673
	75.09318	29.81922
	75.10701	29.82636
	75.10389	29.83795
	75.08114	29.84955
	75.10433	29.87319
	75.10255	29.89683
	75.08471	29.91511
	75.07757	29.91244
	75.06553	29.87899
	75.0517	29.87497
	75.03743	29.88166
	75.01424	29.86471
	75.00576	29.86739
	74.98971	29.85624
	74.96964	29.88077
	74.97008	29.89014
	74.94332	29.90262
	74.91567	29.94901
	74.88534	29.9392
	74.89426	29.95302
	74.88133	29.96819
	74.87196	29.95927
	74.84966	29.95927
	74.82156	29.97309
	74.81665	29.98469
	74.80104	29.99272
	74.77607	29.97443
	74.72388	29.96194
	74.69757	29.97131
	74.6833	29.96105
	74.68107	29.94901
	74.64003	29.9227
	74.64717	29.90485
	74.58562	29.91467
	74.57313	29.92582
	74.55217	29.92939
	74.52452	29.95169
	74.51916	29.94321
	74.442	29.94723
	74.37243	29.9499
	74.27921	29.95525
	74.06914	29.96908
	73.89118	29.96997
	73.8894	29.97755
	73.88092	29.99629
	73.88181	30.01145
	73.89832	30.05382
	73.89839	30.05388
	73.89873	30.0537
	73.89949	30.05323
	73.90135	30.05332
	73.90139	30.0532
	73.90168	30.05329
	73.90175	30.05334
	73.90178	30.05334
	73.90195	30.05347
	73.90264	30.05393
	73.9028	30.05412
	73.90303	30.05446
	73.90335	30.05555
	73.90336	30.05741
	73.91839	30.06809
	73.95808	30.11939
	73.96656	30.12117
	73.96076	30.14302
	73.97431	30.1978
END
END
