India_Chhattisgarh
1
	80.65673	21.33073
	80.69152	21.38827
	80.69776	21.42707
	80.7214	21.44937
	80.73032	21.47212
	80.72185	21.49576
	80.73077	21.53857
	80.71337	21.55552
	80.71962	21.57158
	80.70936	21.58674
	80.70936	21.60414
	80.72229	21.62287
	80.72051	21.64071
	80.71248	21.64606
	80.70757	21.6639
	80.72497	21.69824
	80.71872	21.71207
	80.74281	21.75801
	80.76199	21.75801
	80.7825	21.73972
	80.81105	21.74731
	80.8106	21.76113
	80.83156	21.80484
	80.83692	21.8316
	80.83156	21.84632
	80.84048	21.85256
	80.83959	21.87531
	80.82532	21.88646
	80.82398	21.89806
	80.83647	21.93552
	80.83335	21.94667
	80.82354	21.94712
	80.81863	21.95693
	80.84584	21.96095
	80.86858	22.01134
	80.87661	22.05684
	80.89133	22.06576
	80.89802	22.10144
	80.91095	22.11928
	80.93905	22.11883
	80.95065	22.11303
	80.96537	22.08181
	80.96358	22.05818
	80.98767	22.04836
	80.99926	22.0613
	81.00417	22.07022
	80.99748	22.08092
	81.00373	22.09698
	80.98722	22.1108
	80.97206	22.1117
	80.97161	22.12151
	80.98678	22.13088
	81.01577	22.13266
	81.01889	22.16522
	81.01175	22.18395
	81.02513	22.18886
	81.02558	22.19778
	81.01577	22.22008
	81.01934	22.229
	81.10095	22.44374
	81.0849	22.24684
	81.09694	22.27761
	81.11389	22.29456
	81.10943	22.3298
	81.11567	22.34407
	81.10096	22.38332
	81.10497	22.43283
	81.10988	22.4413
	81.14823	22.45602
	81.17053	22.48813
	81.18704	22.48902
	81.19417	22.46226
	81.21826	22.45156
	81.23297	22.45513
	81.25572	22.47252
	81.26063	22.49348
	81.27535	22.49928
	81.30389	22.48189
	81.31593	22.48991
	81.31459	22.51578
	81.32307	22.52426
	81.34805	22.514
	81.36633	22.51445
	81.37882	22.50508
	81.38596	22.45111
	81.39666	22.4413
	81.41896	22.45423
	81.41762	22.47341
	81.42431	22.47921
	81.4319	22.48055
	81.43591	22.4694
	81.44795	22.46717
	81.45018	22.47252
	81.44349	22.47163
	81.43903	22.47966
	81.44438	22.48724
	81.43814	22.49393
	81.48007	22.49348
	81.493	22.5198
	81.50281	22.52693
	81.51218	22.52337
	81.51887	22.53987
	81.54206	22.53006
	81.55678	22.53229
	81.56258	22.53407
	81.55723	22.547
	81.56302	22.55102
	81.5996	22.53585
	81.61565	22.53898
	81.6219	22.54388
	81.62368	22.5644
	81.63795	22.56217
	81.64866	22.56886
	81.64018	22.5867
	81.64152	22.60766
	81.65669	22.63219
	81.67854	22.64869
	81.70709	22.64959
	81.72175	22.67404
	81.72214	22.67397
	81.72267	22.67385
	81.72333	22.67375
	81.7238	22.67373
	81.72438	22.67377
	81.72485	22.67357
	81.72497	22.67355
	81.72593	22.67361
	81.72607	22.67365
	81.72623	22.67372
	81.72645	22.67367
	81.72752	22.67369
	81.72767	22.67374
	81.72794	22.67387
	81.73697	22.66921
	81.74054	22.64825
	81.74901	22.64602
	81.76507	22.66921
	81.74678	22.7263
	81.74901	22.73299
	81.76239	22.73522
	81.76417	22.74682
	81.78424	22.76644
	81.76105	22.83424
	81.76953	22.85118
	81.76953	22.87348
	81.8565	22.89088
	81.86096	22.894
	81.86007	22.91496
	81.87479	22.91318
	81.91403	22.94841
	81.94035	22.95689
	81.93723	23.00952
	81.91849	23.04118
	81.93812	23.07776
	81.96934	23.07954
	81.98227	23.08623
	82.00234	23.0782
	82.0242	23.07999
	82.06702	23.11701
	82.11608	23.10363
	82.12812	23.1121
	82.13258	23.13173
	82.15087	23.14154
	82.15354	23.15804
	82.13749	23.16518
	82.1415	23.17454
	82.13749	23.18792
	82.14685	23.20933
	82.14239	23.22762
	82.17004	23.26999
	82.18655	23.27757
	82.19012	23.31147
	82.18566	23.32529
	82.158	23.33332
	82.13793	23.36187
	82.11831	23.35428
	82.10805	23.3583
	82.09868	23.39755
	82.05676	23.39353
	82.04561	23.37792
	82.02955	23.38774
	82.01439	23.38774
	82.01751	23.40825
	82.02331	23.41004
	82.01617	23.42342
	81.99967	23.41271
	81.98718	23.4194
	81.97603	23.41316
	81.97068	23.42386
	81.97514	23.43189
	81.97157	23.4475
	81.94749	23.47159
	81.94882	23.49656
	81.90957	23.53492
	81.86988	23.5144
	81.82706	23.51128
	81.81279	23.51752
	81.80476	23.54562
	81.75659	23.55231
	81.74812	23.56525
	81.73608	23.56748
	81.71913	23.55588
	81.69326	23.52332
	81.65446	23.53135
	81.64777	23.50236
	81.62814	23.49032
	81.60718	23.50682
	81.60584	23.55053
	81.57685	23.55499
	81.56971	23.58844
	81.58042	23.59692
	81.60272	23.60004
	81.61342	23.66114
	81.64331	23.66025
	81.64955	23.68344
	81.67319	23.69325
	81.68746	23.72135
	81.6723	23.74008
	81.67809	23.749
	81.67408	23.75391
	81.63974	23.77131
	81.64241	23.80476
	81.62814	23.83419
	81.60584	23.83821
	81.59737	23.86185
	81.61476	23.87255
	81.59692	23.88905
	81.6103	23.90689
	81.62903	23.90779
	81.66159	23.92563
	81.67943	23.90779
	81.68255	23.88994
	81.69727	23.88593
	81.70262	23.86318
	81.72314	23.85917
	81.71913	23.84044
	81.78246	23.81189
	81.8119	23.80966
	81.83152	23.82126
	81.85293	23.82438
	81.8623	23.83464
	81.89396	23.84401
	81.91626	23.873
	81.95061	23.85293
	82.00056	23.86318
	82.01171	23.85248
	82.03267	23.8449
	82.03223	23.82929
	82.04561	23.82081
	82.16246	23.81992
	82.17361	23.8391
	82.20394	23.85293
	82.20662	23.84088
	82.19904	23.83196
	82.22624	23.80699
	82.25523	23.8217
	82.32838	23.80386
	82.36852	23.811
	82.38814	23.80119
	82.45995	23.81145
	82.49162	23.78558
	82.51615	23.78424
	82.54469	23.79405
	82.54068	23.81011
	82.5273	23.82393
	82.58617	23.82304
	82.6058	23.83598
	82.62944	23.8391
	82.64059	23.85783
	82.65218	23.85649
	82.66021	23.87032
	82.64594	23.88861
	82.65664	23.90779
	82.67716	23.91002
	82.70214	23.92473
	82.74808	23.9225
	82.75387	23.93588
	82.77484	23.93856
	82.79669	23.96131
	82.80784	23.96309
	82.82078	23.96487
	82.84887	23.94703
	82.88099	23.91046
	82.92247	23.89262
	82.93897	23.87567
	82.95369	23.87255
	83.03665	23.88325
	83.06118	23.87523
	83.0866	23.87835
	83.12763	23.88994
	83.15449	23.90229
	83.15405	23.90339
	83.15433	23.90435
	83.15472	23.90495
	83.15553	23.90518
	83.15679	23.90543
	83.15774	23.90568
	83.15841	23.90598
	83.15847	23.90627
	83.15843	23.90654
	83.18963	23.92117
	83.21104	23.96041
	83.20836	23.9729
	83.21594	23.98941
	83.2369	24.00145
	83.24181	24.01394
	83.25876	24.01171
	83.27615	24.0233
	83.27749	24.05006
	83.28909	24.07281
	83.31094	24.09288
	83.31496	24.10715
	83.32343	24.10135
	83.32744	24.09957
	83.3832	24.10002
	83.40327	24.08084
	83.42557	24.08396
	83.43137	24.05809
	83.44742	24.04248
	83.50674	24.02821
	83.51655	24.01081
	83.50763	24.00145
	83.50763	23.97959
	83.53885	23.93365
	83.54287	23.89842
	83.57632	23.88459
	83.55759	23.86943
	83.56115	23.86274
	83.64946	23.84802
	83.65615	23.84356
	83.65839	23.82795
	83.67221	23.81992
	83.68202	23.82572
	83.6954	23.82081
	83.6954	23.80743
	83.71101	23.78959
	83.71235	23.7722
	83.7293	23.7548
	83.73465	23.71377
	83.71458	23.68255
	83.75116	23.65311
	83.74313	23.64062
	83.74759	23.6268
	83.76498	23.62145
	83.77479	23.59959
	83.78594	23.59825
	83.80066	23.58309
	83.81092	23.58889
	83.93536	23.56302
	83.92956	23.59379
	83.93803	23.62234
	84.00717	23.63215
	84.00181	23.62055
	84.02411	23.58799
	84.02278	23.54429
	84.00895	23.49968
	83.99735	23.49299
	83.97907	23.46044
	83.9697	23.45553
	83.97951	23.42654
	83.96702	23.37436
	83.98308	23.35964
	84.00672	23.35295
	84.02055	23.37525
	84.04329	23.37391
	84.04998	23.35205
	84.07005	23.3302
	84.0598	23.30835
	84.06381	23.29229
	84.05043	23.241
	84.05846	23.20353
	84.03393	23.16785
	84.02902	23.15403
	84.03348	23.13842
	84.06158	23.10987
	84.08789	23.10942
	84.11242	23.08712
	84.12937	23.08133
	84.1316	23.0675
	84.12358	23.03672
	84.14409	22.98811
	84.14811	22.96402
	84.16773	22.97116
	84.17665	23.02067
	84.19003	23.02379
	84.19806	23.01888
	84.19672	23.00417
	84.21724	22.97651
	84.23731	22.98053
	84.25069	22.97161
	84.2712	22.989
	84.26897	22.97919
	84.27879	22.96135
	84.30689	22.96759
	84.32517	22.97919
	84.37067	22.97518
	84.37914	22.94886
	84.38895	22.9386
	84.38984	22.92388
	84.37067	22.90158
	84.37825	22.88776
	84.36977	22.86456
	84.32963	22.85966
	84.32027	22.8494
	84.31759	22.81729
	84.31001	22.799
	84.29038	22.78696
	84.28548	22.76332
	84.25426	22.76287
	84.22527	22.73522
	84.2324	22.68839
	84.22081	22.66877
	84.19717	22.66386
	84.14989	22.63442
	84.08031	22.63665
	84.0482	22.59428
	84.02144	22.58715
	84.00494	22.56975
	83.99958	22.53942
	84.00271	22.52073
	83.99423	22.52872
	83.97996	22.52203
	83.97595	22.5024
	84.04151	22.46405
	84.04017	22.43283
	84.02411	22.42212
	84.02233	22.41008
	84.00181	22.3802
	84.00404	22.36771
	83.99289	22.36905
	83.96702	22.3579
	83.91573	22.35968
	83.897	22.33961
	83.86087	22.34362
	83.84303	22.32623
	83.82519	22.31954
	83.8194	22.29233
	83.79754	22.28966
	83.75294	22.24282
	83.69317	22.2455
	83.65749	22.22498
	83.6459	22.22454
	83.61914	22.19644
	83.60219	22.15184
	83.55714	22.1001
	83.6004	22.06531
	83.58346	22.05505
	83.54287	22.05951
	83.53261	22.03409
	83.53395	22.02249
	83.54867	22.00688
	83.53529	21.97968
	83.53529	21.96362
	83.55759	21.944
	83.55357	21.9324
	83.58792	21.92616
	83.6004	21.91099
	83.58167	21.89761
	83.58346	21.89092
	83.57141	21.87174
	83.58613	21.84766
	83.57364	21.82982
	83.54867	21.83517
	83.53127	21.83205
	83.5277	21.82313
	83.53618	21.81822
	83.53662	21.79414
	83.5063	21.80038
	83.49113	21.81465
	83.48399	21.79414
	83.46705	21.78254
	83.47775	21.7647
	83.47374	21.74954
	83.48399	21.74151
	83.4782	21.72813
	83.45634	21.69423
	83.43181	21.69378
	83.42111	21.68665
	83.41977	21.67505
	83.44073	21.65498
	83.4831	21.63982
	83.48444	21.62554
	83.46972	21.62688
	83.46303	21.60547
	83.45277	21.60503
	83.4501	21.61707
	83.44118	21.61796
	83.44742	21.64472
	83.44118	21.64918
	83.38052	21.61261
	83.36803	21.597
	83.36223	21.57247
	83.3658	21.54972
	83.33458	21.49576
	83.34216	21.4855
	83.35019	21.44402
	83.37026	21.43599
	83.38141	21.40968
	83.3939	21.39942
	83.39301	21.36507
	83.4046	21.35526
	83.40282	21.34857
	83.3881	21.33876
	83.37472	21.3401
	83.26991	21.37489
	83.2708	21.35928
	83.25474	21.33207
	83.26099	21.32672
	83.2543	21.31958
	83.25876	21.30219
	83.27482	21.29059
	83.26768	21.26874
	83.24226	21.27632
	83.21817	21.26026
	83.21416	21.25089
	83.21906	21.22369
	83.20747	21.20139
	83.21014	21.18801
	83.19364	21.15768
	83.19275	21.13939
	83.18294	21.13226
	83.16153	21.13136
	83.13388	21.10505
	83.09507	21.10416
	83.04066	21.11888
	82.99294	21.15411
	82.98357	21.14831
	82.98	21.15768
	82.96528	21.15589
	82.95592	21.17552
	82.93718	21.16125
	82.90862	21.16268
	82.9024	21.16303
	82.8792	21.1492
	82.86894	21.15991
	82.86359	21.15545
	82.83995	21.16348
	82.8123	21.15857
	82.7958	21.15054
	82.78866	21.13939
	82.75209	21.15991
	82.69411	21.15277
	82.68474	21.15812
	82.63613	21.14965
	82.6339	21.13627
	82.64772	21.12512
	82.63702	21.11174
	82.64505	21.10193
	82.63167	21.08676
	82.62587	21.07695
	82.60937	21.07115
	82.6223	21.03636
	82.60446	21.00603
	82.58216	20.98686
	82.54559	20.93512
	82.48582	20.90345
	82.48181	20.85528
	82.45995	20.83566
	82.45906	20.82406
	82.44122	20.82362
	82.43631	20.82941
	82.41535	20.82629
	82.40554	20.837
	82.40152	20.86242
	82.38279	20.87
	82.35915	20.86643
	82.35915	20.88249
	82.34667	20.88383
	82.34131	20.86822
	82.33418	20.84056
	82.33864	20.79017
	82.33507	20.7585
	82.34577	20.72862
	82.33953	20.72594
	82.34711	20.71434
	82.3431	20.69873
	82.35113	20.67822
	82.3654	20.66394
	82.36807	20.62425
	82.35826	20.61533
	82.35603	20.60329
	82.33864	20.59437
	82.34042	20.56984
	82.32392	20.55378
	82.34221	20.53772
	82.3489	20.523
	82.38056	20.51007
	82.38814	20.45253
	82.39751	20.45209
	82.41	20.4735
	82.41937	20.45744
	82.41758	20.43826
	82.42561	20.43648
	82.42918	20.42577
	82.42427	20.41016
	82.41	20.40258
	82.41045	20.37716
	82.39394	20.33568
	82.42249	20.30981
	82.42918	20.28305
	82.40509	20.26343
	82.41401	20.24157
	82.4042	20.23979
	82.41357	20.20232
	82.40554	20.17913
	82.38324	20.1604
	82.38725	20.1488
	82.37878	20.14479
	82.3926	20.10821
	82.39082	20.0596
	82.39573	20.04889
	82.47066	20.03195
	82.50232	20.01366
	82.5438	20.01232
	82.59822	19.98556
	82.61427	19.9869
	82.63167	20.00028
	82.69812	19.9927
	82.71106	19.98333
	82.7115	19.94453
	82.70035	19.89324
	82.70927	19.87004
	82.7173	19.87094
	82.70258	19.83124
	82.6834	19.82366
	82.64594	19.82544
	82.62275	19.78932
	82.58528	19.77103
	82.57859	19.77594
	82.57948	19.79734
	82.57146	19.8018
	82.57146	19.8161
	82.57146	19.82232
	82.59732	19.86068
	82.59063	19.86603
	82.5777	19.86335
	82.55839	19.88241
	82.55142	19.88305
	82.53927	19.88233
	82.52998	19.88209
	82.52753	19.88087
	82.52303	19.88319
	82.52013	19.88945
	82.51811	19.89102
	82.51442	19.89092
	82.50979	19.88919
	82.50511	19.88989
	82.4943	19.89725
	82.47556	19.90037
	82.45817	19.89457
	82.43944	19.90305
	82.38904	19.88164
	82.36807	19.85443
	82.35603	19.85533
	82.35603	19.84641
	82.33953	19.8299
	82.32659	19.83838
	82.29805	19.88342
	82.26148	19.97173
	82.2307	19.99805
	82.2142	19.99314
	82.20439	19.98021
	82.17852	19.97798
	82.16603	19.99805
	82.13169	20.01277
	82.11608	20.01054
	82.09333	20.03284
	82.08307	20.03284
	82.07638	20.04399
	82.0581	20.04979
	82.0242	20.01009
	82.01483	20.01946
	82.00993	20.04488
	81.99253	20.048
	81.97335	20.07565
	81.94124	20.10242
	81.92206	20.08681
	81.8895	20.0431
	81.87389	20.04622
	81.86007	20.02347
	81.83732	19.94988
	81.84892	19.93873
	81.84981	19.90795
	81.89798	19.87852
	81.96042	19.85488
	81.9573	19.83615
	81.98004	19.79556
	81.98763	19.79155
	82.00324	19.79868
	82.0523	19.79155
	82.05988	19.78307
	82.0572	19.75319
	82.04382	19.73758
	82.04382	19.71394
	82.03758	19.70413
	82.05141	19.62429
	82.04516	19.60154
	82.03401	19.59084
	82.04427	19.56497
	82.04026	19.55204
	82.04605	19.53866
	82.02242	19.50164
	82.05988	19.50342
	82.07103	19.51591
	82.09199	19.50967
	82.0911	19.49406
	82.09913	19.4896
	82.10181	19.47354
	82.0969	19.46105
	82.10716	19.45258
	82.10671	19.44321
	82.1192	19.42403
	82.16737	19.42983
	82.18298	19.41779
	82.16648	19.36605
	82.15087	19.37051
	82.14105	19.3656
	82.14239	19.34821
	82.1803	19.33215
	82.18298	19.31967
	82.17361	19.3161
	82.16871	19.29067
	82.15176	19.26525
	82.15176	19.22377
	82.16112	19.20861
	82.15577	19.19657
	82.17361	19.18452
	82.17094	19.16847
	82.17897	19.15866
	82.1745	19.15286
	82.16425	19.15464
	82.17495	19.14528
	82.16603	19.14304
	82.16826	19.13368
	82.15979	19.12654
	82.17004	19.11272
	82.17629	19.1252
	82.19993	19.11762
	82.19859	19.09398
	82.21197	19.09042
	82.19413	19.06009
	82.2249	19.01459
	82.23962	18.91067
	82.23115	18.90532
	82.21375	18.91201
	82.17272	18.89551
	82.17049	18.87767
	82.158	18.86964
	82.16514	18.83039
	82.15845	18.81166
	82.16202	18.80497
	82.15443	18.79649
	82.16112	18.79114
	82.14551	18.7733
	82.1308	18.77018
	82.12901	18.75769
	82.08486	18.75858
	82.08486	18.73271
	82.07861	18.7122
	82.06122	18.718
	82.05185	18.71175
	82.04962	18.71755
	82.03357	18.71889
	81.9573	18.68321
	81.96042	18.6676
	81.94749	18.65555
	81.94749	18.62879
	81.91537	18.63593
	81.89307	18.65377
	81.88549	18.6502
	81.88817	18.62121
	81.91314	18.61274
	81.92964	18.59623
	81.95462	18.58687
	81.9457	18.57483
	81.94347	18.5552
	81.90868	18.56412
	81.90065	18.55699
	81.89664	18.52844
	81.88281	18.52933
	81.85784	18.51328
	81.84446	18.48161
	81.76194	18.41114
	81.745	18.34513
	81.65802	18.33933
	81.6491	18.33086
	81.65847	18.31123
	81.59335	18.30142
	81.56748	18.27332
	81.52779	18.25905
	81.52556	18.2363
	81.5046	18.18367
	81.52244	18.15736
	81.51173	18.12926
	81.50861	18.09224
	81.49478	18.0579
	81.4814	18.04987
	81.47382	18.02846
	81.47739	17.97003
	81.45464	17.9464
	81.44528	17.92633
	81.4484	17.90313
	81.43725	17.87593
	81.4038	17.88841
	81.39399	17.88529
	81.38952	17.8621
	81.398	17.84694
	81.38462	17.82597
	81.38506	17.80679
	81.25394	17.81215
	81.19194	17.84694
	81.15938	17.85273
	81.08891	17.81081
	81.07375	17.78628
	81.05591	17.78271
	81.03227	17.78985
	81.00417	17.83846
	80.99436	17.91428
	80.98455	17.92276
	80.96225	18.03158
	80.96581	18.04363
	80.94396	18.08109
	80.94931	18.12302
	80.9725	18.14353
	80.97384	18.16806
	80.95422	18.16717
	80.9007	18.13461
	80.86189	18.13283
	80.84807	18.1975
	80.86145	18.19884
	80.86769	18.20731
	80.85922	18.22605
	80.82978	18.23407
	80.81729	18.22515
	80.81774	18.18724
	80.79811	18.16628
	80.76243	18.16316
	80.73478	18.17163
	80.73344	18.21891
	80.7883	18.24968
	80.74459	18.30231
	80.74281	18.32194
	80.71605	18.38304
	80.72675	18.40891
	80.71293	18.40579
	80.69107	18.41917
	80.6991	18.43612
	80.65093	18.47224
	80.63443	18.49856
	80.63264	18.51863
	80.61391	18.52621
	80.59562	18.54896
	80.53185	18.58598
	80.514	18.61318
	80.48858	18.62656
	80.45022	18.62656
	80.38154	18.59356
	80.36682	18.60471
	80.34853	18.58865
	80.33649	18.59044
	80.29635	18.68544
	80.26736	18.718
	80.2406	18.74877
	80.24194	18.75992
	80.24907	18.76527
	80.27673	18.76483
	80.29412	18.7907
	80.3463	18.81121
	80.34853	18.82415
	80.32579	18.87009
	80.26781	18.92896
	80.26781	18.98739
	80.29323	19.02173
	80.28877	19.04626
	80.32222	19.07481
	80.31999	19.08819
	80.33159	19.10112
	80.32088	19.12431
	80.3249	19.14171
	80.34541	19.16312
	80.37306	19.17516
	80.38689	19.18898
	80.37708	19.21753
	80.38332	19.23894
	80.43684	19.26124
	80.47565	19.33483
	80.514	19.34821
	80.5314	19.37408
	80.56797	19.40084
	80.58403	19.3772
	80.58537	19.35312
	80.6041	19.31164
	80.61793	19.30495
	80.66431	19.3268
	80.67903	19.32413
	80.68527	19.31253
	80.68349	19.28711
	80.69375	19.2822
	80.74905	19.28666
	80.77804	19.31833
	80.79945	19.32502
	80.82621	19.34821
	80.84494	19.3607
	80.84271	19.36605
	80.81595	19.37899
	80.78786	19.42671
	80.83513	19.44232
	80.87617	19.44812
	80.89222	19.46551
	80.88553	19.50922
	80.87349	19.52215
	80.84539	19.52929
	80.82755	19.56274
	80.78518	19.56051
	80.76645	19.56854
	80.76422	19.58504
	80.72095	19.60823
	80.65673	19.61225
	80.66476	19.69075
	80.63354	19.7184
	80.58224	19.73802
	80.57065	19.75453
	80.55013	19.76434
	80.53987	19.7746
	80.54255	19.8192
	80.51802	19.82901
	80.47609	19.82812
	80.45959	19.81117
	80.48011	19.79556
	80.47788	19.77237
	80.45245	19.79288
	80.39492	19.79467
	80.3976	19.81608
	80.43149	19.81028
	80.46048	19.82812
	80.4752	19.85711
	80.4975	19.86871
	80.4917	19.89056
	80.48278	19.89903
	80.46138	19.90349
	80.44443	19.89368
	80.40785	19.90572
	80.4025	19.90974
	80.40652	19.93249
	80.42525	19.93739
	80.44353	19.95256
	80.4529	19.94542
	80.4645	19.94631
	80.46985	19.93382
	80.48055	19.92758
	80.50196	19.9249
	80.52025	19.9307
	80.54567	19.98734
	80.53274	20.00385
	80.54612	20.06584
	80.53497	20.08547
	80.54032	20.11
	80.49126	20.14166
	80.48278	20.1381
	80.45112	20.14479
	80.43952	20.12918
	80.39403	20.14389
	80.386	20.16263
	80.39447	20.18181
	80.4141	20.19028
	80.41187	20.20232
	80.39804	20.21258
	80.38288	20.24157
	80.46539	20.27145
	80.49438	20.27502
	80.51088	20.26967
	80.5421	20.30669
	80.61659	20.32587
	80.60231	20.37627
	80.59027	20.38429
	80.58581	20.39544
	80.60365	20.43336
	80.59473	20.44629
	80.60321	20.46235
	80.61347	20.54174
	80.6099	20.55646
	80.61971	20.56716
	80.61302	20.5908
	80.62239	20.60373
	80.58581	20.61399
	80.56753	20.61221
	80.55147	20.59927
	80.51177	20.585
	80.50018	20.58678
	80.48145	20.61711
	80.48501	20.6354
	80.50776	20.65458
	80.57823	20.67866
	80.57778	20.69427
	80.55593	20.72237
	80.55459	20.74735
	80.54567	20.76519
	80.54344	20.79195
	80.55593	20.8196
	80.54969	20.88873
	80.53809	20.9262
	80.54166	20.93378
	80.46539	20.92709
	80.44889	20.94538
	80.43818	20.99221
	80.42391	21.0096
	80.44755	21.03681
	80.4422	21.08052
	80.43328	21.09702
	80.43952	21.11174
	80.44933	21.11174
	80.43863	21.12155
	80.45736	21.17284
	80.47476	21.1715
	80.49572	21.1831
	80.50776	21.18266
	80.52069	21.20362
	80.54166	21.19916
	80.55771	21.20406
	80.63532	21.25
	80.65494	21.2897
	80.67278	21.29817
	80.67278	21.31111
	80.65673	21.33073
END
END
