India_Meghalaya
1
	92.40954	25.02495
	92.40917	25.02583
	92.40639	25.03056
	92.40222	25.03333
	92.39722	25.03583
	92.39167	25.03722
	92.38694	25.03944
	92.37694	25.04389
	92.37222	25.04611
	92.36667	25.0475
	92.36028	25.04833
	92.35417	25.04917
	92.34778	25.04972
	92.34222	25.05139
	92.33806	25.05444
	92.33667	25.05889
	92.33667	25.06528
	92.3375	25.07083
	92.33667	25.07639
	92.3325	25.07944
	92.32694	25.08083
	92.32	25.08083
	92.3125	25.08
	92.30611	25.08083
	92.3	25.08139
	92.29361	25.08222
	92.2875	25.08278
	92.28194	25.08417
	92.27639	25.08583
	92.27	25.08639
	92.26472	25.08806
	92.25833	25.08861
	92.25278	25.09028
	92.24167	25.09306
	92.23667	25.09528
	92.22833	25.10139
	92.22472	25.105
	92.22182	25.10948
	92.21889	25.11417
	92.21667	25.11944
	92.21361	25.12417
	92.21	25.12778
	92.20667	25.13167
	92.20222	25.13472
	92.1975	25.13694
	92.19306	25.14
	92.18694	25.14056
	92.18194	25.13806
	92.17861	25.13417
	92.17222	25.13472
	92.16861	25.13861
	92.16528	25.1425
	92.15889	25.14306
	92.15222	25.14167
	92.14611	25.14222
	92.14111	25.14444
	92.13806	25.14917
	92.13583	25.15444
	92.13306	25.15889
	92.12861	25.16278
	92.12444	25.16556
	92.12028	25.16861
	92.11528	25.17083
	92.10972	25.1725
	92.09861	25.17528
	92.09361	25.1775
	92.0875	25.17833
	92.08194	25.17972
	92.07556	25.18056
	92.06944	25.18111
	92.06361	25.1825
	92.05806	25.18417
	92.04694	25.18694
	92.04083	25.18778
	92.03444	25.18833
	92.03184	25.1835
	92.02135	25.18332
	92.01324	25.18379
	92.00848	25.18269
	92.00306	25.18194
	91.99806	25.17944
	91.99222	25.1775
	91.99112	25.17708
	91.99078	25.17664
	91.9904	25.1763
	91.98992	25.17599
	91.98914	25.17563
	91.988	25.17546
	91.98718	25.17558
	91.98639	25.17528
	91.97972	25.17389
	91.97278	25.17389
	91.96639	25.17444
	91.96414	25.1755
	91.96349	25.17544
	91.9619	25.17591
	91.96155	25.17605
	91.95989	25.1769
	91.95528	25.1775
	91.95144	25.17931
	91.95078	25.17927
	91.95003	25.17938
	91.94794	25.18011
	91.94772	25.18023
	91.94651	25.17988
	91.946	25.1798
	91.94544	25.17978
	91.94265	25.17865
	91.94164	25.17852
	91.94141	25.17855
	91.9413	25.17847
	91.94059	25.17818
	91.93911	25.17787
	91.93866	25.17765
	91.93788	25.17745
	91.93678	25.17739
	91.93606	25.17749
	91.93416	25.1781
	91.93381	25.17825
	91.93284	25.17878
	91.93186	25.18008
	91.93179	25.18038
	91.93104	25.18091
	91.93068	25.18137
	91.93032	25.18213
	91.93021	25.18259
	91.93035	25.18303
	91.91806	25.18167
	91.91194	25.17944
	91.90528	25.17806
	91.89944	25.17611
	91.89194	25.17528
	91.885	25.17444
	91.8775	25.17361
	91.87056	25.17361
	91.86306	25.1725
	91.84917	25.1725
	91.84167	25.17167
	91.835	25.17028
	91.8275	25.16917
	91.81972	25.16833
	91.81222	25.1675
	91.80639	25.16694
	91.79861	25.16611
	91.79111	25.16528
	91.785	25.16583
	91.77861	25.16667
	91.77361	25.16861
	91.76889	25.17111
	91.76389	25.17333
	91.7575	25.17389
	91.7525	25.17111
	91.74944	25.16722
	91.74861	25.16167
	91.74861	25.15556
	91.74694	25.15056
	91.74111	25.14833
	91.73556	25.14972
	91.72722	25.15583
	91.71722	25.16028
	91.71111	25.15944
	91.70694	25.15639
	91.70306	25.15306
	91.69972	25.14917
	91.69722	25.14472
	91.69722	25.13833
	91.69472	25.13417
	91.68806	25.1325
	91.67417	25.1325
	91.6675	25.13222
	91.66056	25.13083
	91.65472	25.12861
	91.64889	25.12667
	91.64222	25.12667
	91.63583	25.12722
	91.63028	25.12861
	91.62528	25.13083
	91.62111	25.13389
	91.61111	25.13833
	91.60556	25.13972
	91.60083	25.14194
	91.59778	25.14667
	91.59861	25.15222
	91.59833	25.15833
	91.5975	25.16528
	91.59528	25.17056
	91.59028	25.17278
	91.58444	25.17083
	91.57861	25.16861
	91.57361	25.16611
	91.56694	25.15833
	91.55861	25.15167
	91.55361	25.14917
	91.54694	25.1475
	91.53306	25.1475
	91.52611	25.14722
	91.51944	25.14722
	91.51167	25.14639
	91.50667	25.14361
	91.50167	25.14111
	91.49583	25.13889
	91.48833	25.13806
	91.48222	25.13861
	91.46613	25.13538
	91.47028	25.14083
	91.46528	25.14306
	91.46091	25.15193
	91.45611	25.14806
	91.45286	25.15296
	91.44444	25.15028
	91.44023	25.151
	91.43684	25.15482
	91.43259	25.15783
	91.42529	25.15808
	91.42272	25.16275
	91.41907	25.16673
	91.41482	25.17191
	91.41025	25.16449
	91.4071	25.16614
	91.3985	25.16637
	91.39001	25.16811
	91.3874	25.17011
	91.38216	25.16906
	91.37622	25.16861
	91.36856	25.17166
	91.3636	25.17898
	91.35422	25.17327
	91.35002	25.1764
	91.34734	25.17512
	91.3442	25.17498
	91.33682	25.17426
	91.3327	25.17772
	91.32815	25.17634
	91.32515	25.17923
	91.32163	25.18298
	91.31714	25.1844
	91.3132	25.18496
	91.31101	25.18481
	91.30455	25.18339
	91.30139	25.18722
	91.29667	25.18917
	91.29222	25.19222
	91.28722	25.19444
	91.2825	25.19667
	91.27806	25.19972
	91.27333	25.20194
	91.26889	25.20472
	91.26333	25.20611
	91.25778	25.20778
	91.25167	25.20694
	91.24583	25.20472
	91.2425	25.20111
	91.23833	25.19778
	91.23333	25.195
	91.22583	25.19417
	91.21889	25.19417
	91.20639	25.19528
	91.20028	25.19611
	91.19333	25.19583
	91.18639	25.19583
	91.17944	25.19556
	91.1725	25.19556
	91.16583	25.19528
	91.15889	25.19528
	91.15194	25.195
	91.145	25.195
	91.13806	25.19472
	91.13111	25.19472
	91.12417	25.19444
	91.11806	25.19528
	91.10556	25.19639
	91.09056	25.19472
	91.08278	25.19389
	91.07611	25.19361
	91.06917	25.19222
	91.06333	25.19
	91.05667	25.18861
	91.05083	25.18639
	91.0375	25.18361
	91.03167	25.18139
	91.025	25.18
	91.01333	25.17556
	91.00639	25.17417
	90.99972	25.17278
	90.98806	25.16833
	90.97639	25.16444
	90.97056	25.16222
	90.96389	25.16056
	90.95639	25.15972
	90.94944	25.15972
	90.94194	25.15861
	90.935	25.15861
	90.9275	25.1575
	90.92056	25.1575
	90.91306	25.15667
	90.90556	25.15556
	90.89861	25.15556
	90.89083	25.15444
	90.87583	25.15278
	90.87	25.15056
	90.8625	25.14972
	90.85556	25.14972
	90.84806	25.14861
	90.84111	25.14861
	90.83417	25.14833
	90.82806	25.14889
	90.82167	25.14972
	90.81611	25.15111
	90.81194	25.15389
	90.80694	25.15611
	90.8025	25.15917
	90.79889	25.16278
	90.79472	25.16583
	90.78972	25.16806
	90.78556	25.17111
	90.78056	25.17306
	90.77611	25.17611
	90.76944	25.17583
	90.76278	25.17444
	90.74611	25.16111
	90.74111	25.15861
	90.73361	25.1575
	90.72611	25.15667
	90.72539	25.15673
	90.72522	25.15568
	90.72445	25.15513
	90.72232	25.15499
	90.72177	25.1553
	90.72086	25.15556
	90.71996	25.15556
	90.71821	25.15788
	90.71804	25.15791
	90.71763	25.15803
	90.71692	25.15833
	90.71633	25.15871
	90.71629	25.15875
	90.71472	25.15944
	90.71	25.16167
	90.70306	25.16139
	90.69556	25.16056
	90.68889	25.15917
	90.6825	25.15972
	90.67694	25.16111
	90.67333	25.16472
	90.66972	25.16861
	90.66611	25.17222
	90.6625	25.17611
	90.65806	25.17889
	90.65306	25.18111
	90.64611	25.18083
	90.64111	25.17833
	90.63639	25.17556
	90.63139	25.17278
	90.62556	25.17083
	90.61889	25.16917
	90.61194	25.1675
	90.60444	25.16667
	90.59778	25.16667
	90.59083	25.16639
	90.58444	25.16694
	90.57833	25.1675
	90.57056	25.16667
	90.565	25.16806
	90.55889	25.16861
	90.55333	25.17
	90.54694	25.17083
	90.54139	25.17194
	90.53583	25.17361
	90.52333	25.17472
	90.51667	25.17306
	90.51	25.17167
	90.50333	25.17
	90.4975	25.16806
	90.49167	25.16583
	90.48389	25.165
	90.47639	25.16389
	90.46972	25.1625
	90.46472	25.15972
	90.46056	25.15639
	90.45667	25.15306
	90.45083	25.15083
	90.44472	25.14889
	90.43833	25.14722
	90.43194	25.14806
	90.42556	25.14861
	90.41889	25.14833
	90.4125	25.14889
	90.40694	25.15028
	90.40083	25.15083
	90.395	25.15222
	90.38889	25.15306
	90.38333	25.15417
	90.37833	25.15639
	90.37278	25.15778
	90.36778	25.16
	90.36222	25.16139
	90.35722	25.16361
	90.35278	25.16639
	90.34861	25.16944
	90.345	25.17306
	90.34139	25.17694
	90.33694	25.17972
	90.33278	25.18278
	90.32778	25.185
	90.32222	25.18639
	90.31722	25.18833
	90.31167	25.18972
	90.30583	25.19111
	90.28917	25.19528
	90.28278	25.19583
	90.27167	25.19861
	90.26528	25.19917
	90.25972	25.20056
	90.25361	25.20111
	90.24722	25.20194
	90.24056	25.20167
	90.23417	25.20222
	90.22861	25.20361
	90.22222	25.20417
	90.21111	25.20694
	90.20472	25.2075
	90.19861	25.20806
	90.19222	25.20889
	90.18611	25.20944
	90.175	25.21222
	90.16917	25.21361
	90.16361	25.21472
	90.1575	25.21556
	90.15167	25.21694
	90.14556	25.21806
	90.13972	25.21944
	90.13361	25.22
	90.12806	25.22139
	90.12167	25.22194
	90.11056	25.22472
	90.10611	25.22778
	90.1025	25.23139
	90.09806	25.23417
	90.09389	25.23722
	90.08944	25.24028
	90.08472	25.24222
	90.08028	25.24528
	90.07528	25.2475
	90.07028	25.24944
	90.06528	25.25167
	90.05972	25.25306
	90.05472	25.25528
	90.05084	25.2626
	90.04726	25.26342
	90.04471	25.26372
	90.03917	25.26083
	90.03361	25.26222
	90.02806	25.26417
	90.02222	25.26556
	90.01722	25.26778
	90.01167	25.26917
	90.00667	25.27139
	90.00194	25.27361
	89.99611	25.27472
	89.99194	25.27778
	89.98694	25.28
	89.9825	25.28278
	89.97833	25.28583
	89.97472	25.28944
	89.97028	25.2925
	89.96611	25.29528
	89.96028	25.29667
	89.94361	25.30083
	89.93722	25.30139
	89.93167	25.30278
	89.92722	25.30556
	89.91722	25.31
	89.90972	25.30889
	89.9056	25.31017
	89.90572	25.30949
	89.90536	25.30897
	89.90533	25.30888
	89.90511	25.30846
	89.90483	25.30783
	89.9045	25.30716
	89.90431	25.30684
	89.90405	25.30649
	89.9037	25.30613
	89.90331	25.30581
	89.9024	25.30518
	89.90178	25.30471
	89.90133	25.30445
	89.90079	25.30423
	89.89967	25.30382
	89.89933	25.3036
	89.89793	25.30235
	89.89715	25.30169
	89.89641	25.301
	89.89611	25.30065
	89.89466	25.29864
	89.89196	25.29825
	89.89083	25.29667
	89.88952	25.29554
	89.88996	25.29351
	89.88962	25.29298
	89.88916	25.29248
	89.88873	25.29214
	89.88843	25.29195
	89.88778	25.29161
	89.88705	25.29138
	89.88645	25.29132
	89.8857	25.29138
	89.88542	25.29146
	89.88405	25.28978
	89.87711	25.28687
	89.87013	25.28756
	89.86526	25.28869
	89.86149	25.28868
	89.85525	25.28914
	89.84913	25.2904
	89.84259	25.293
	89.83778	25.29611
	89.83452	25.29636
	89.83529	25.29783
	89.83692	25.29934
	89.8383	25.30111
	89.84151	25.30846
	89.84147	25.31641
	89.83918	25.32287
	89.83403	25.32986
	89.82806	25.33306
	89.82556	25.33833
	89.82389	25.34444
	89.82232	25.34775
	89.82226	25.35554
	89.82182	25.38542
	89.83966	25.4385
	89.85661	25.46258
	89.85527	25.47596
	89.86419	25.47284
	89.8798	25.48845
	89.87125	25.53704
	89.87213	25.54227
	89.87235	25.54295
	89.87274	25.54367
	89.87572	25.54871
	89.87584	25.54893
	89.87595	25.5492
	89.88649	25.55803
	89.96632	25.57185
	89.97926	25.59059
	90.00201	25.58434
	90.01717	25.60218
	90.01851	25.60843
	90.00468	25.62404
	89.98327	25.62671
	89.9806	25.63742
	89.96466	25.64761
	89.94715	25.65883
	89.93689	25.68648
	89.92128	25.69451
	89.91949	25.69674
	89.9009	25.72338
	89.90118	25.72664
	89.89936	25.72881
	89.89795	25.72762
	89.89273	25.73509
	89.89541	25.74401
	89.92172	25.73911
	89.93332	25.74446
	89.93377	25.75249
	89.95517	25.77434
	89.95205	25.81092
	89.94447	25.8243
	89.96811	25.82608
	90.00156	25.84214
	90.00022	25.84838
	90.00825	25.84704
	90.02208	25.86533
	90.00468	25.87871
	90.02118	25.89298
	90.04215	25.89075
	90.06311	25.91573
	90.07783	25.91751
	90.0921	25.92866
	90.08809	25.93624
	90.10548	25.94204
	90.11083	25.95409
	90.11886	25.96122
	90.13982	25.9581
	90.1532	25.96479
	90.15856	25.9581
	90.17595	25.95721
	90.1824	25.94474
	90.18332	25.94542
	90.18376	25.94558
	90.19379	25.95721
	90.20851	25.96167
	90.21297	25.95409
	90.21835	25.95442
	90.22051	25.95491
	90.22305	25.95544
	90.22463	25.95581
	90.22564	25.95598
	90.22604	25.956
	90.227	25.95596
	90.22782	25.95589
	90.22879	25.95575
	90.22967	25.9556
	90.22998	25.95553
	90.31446	25.97258
	90.31507	25.97316
	90.31526	25.97332
	90.31656	25.97426
	90.31731	25.9746
	90.31802	25.97475
	90.31866	25.97491
	90.31923	25.97514
	90.31982	25.9754
	90.32027	25.97569
	90.32097	25.97625
	90.32165	25.9767
	90.32222	25.97697
	90.32298	25.97718
	90.32378	25.97724
	90.32471	25.97712
	90.3255	25.97696
	90.32594	25.97683
	90.33041	25.98359
	90.33033	25.9837
	90.32998	25.98434
	90.32961	25.98495
	90.32933	25.98623
	90.32943	25.98703
	90.32996	25.98814
	90.33054	25.98877
	90.3313	25.98927
	90.33206	25.98956
	90.33233	25.98964
	90.33394	25.99
	90.3347	25.9901
	90.33919	25.9969
	90.34339	25.99907
	90.34353	25.99926
	90.34432	25.99986
	90.34466	26.0
	90.34482	26.00018
	90.34608	26.00195
	90.34636	26.00249
	90.34682	26.00308
	90.34722	26.00344
	90.34739	26.00368
	90.34755	26.00411
	90.34775	26.00476
	90.35025	26.00608
	90.35157	26.00358
	90.35147	26.00325
	90.36506	26.01028
	90.39628	26.0143
	90.411	26.00582
	90.41724	25.99244
	90.42884	25.98887
	90.45738	25.99958
	90.47745	26.01519
	90.49797	26.00359
	90.5002	26.00136
	90.53454	25.9581
	90.53365	25.93624
	90.51269	25.8961
	90.57156	25.93892
	90.5729	25.94829
	90.5787	25.9581
	90.6291	25.93758
	90.60769	25.91974
	90.60635	25.91216
	90.60814	25.90815
	90.61438	25.89967
	90.62464	25.89878
	90.62731	25.91707
	90.62739	25.9171
	90.62775	25.91954
	90.62942	25.92122
	90.64267	25.92332
	90.67548	25.93669
	90.68619	25.95096
	90.69857	25.95236
	90.69885	25.95254
	90.69905	25.95263
	90.69939	25.95273
	90.70219	25.95336
	90.7054	25.95439
	90.70849	25.95549
	90.70921	25.95573
	90.70985	25.9559
	90.71021	25.95595
	90.71074	25.95597
	90.71256	25.95594
	90.71346	25.95585
	90.71366	25.95585
	90.71418	25.95592
	90.71722	25.95655
	90.71776	25.95658
	90.71873	25.95652
	90.71923	25.95643
	90.71962	25.95631
	90.71976	25.95624
	90.72028	25.95592
	90.7204	25.95581
	90.72075	25.95542
	90.72098	25.95505
	90.72139	25.95423
	90.72258	25.9534
	90.72298	25.95307
	90.72324	25.95282
	90.72564	25.95025
	90.72625	25.94943
	90.72643	25.94912
	90.74729	25.95721
	90.74015	25.94071
	90.74417	25.93268
	90.75264	25.93401
	90.7406	25.91528
	90.74551	25.91216
	90.75889	25.92153
	90.75755	25.91127
	90.77807	25.90815
	90.79189	25.9358
	90.80973	25.9523
	90.824	25.94517
	90.83605	25.9474
	90.83694	25.93803
	90.84318	25.94472
	90.87307	25.94294
	90.88288	25.95186
	90.89626	25.93758
	90.89537	25.93134
	90.91901	25.9135
	90.91588	25.94338
	90.93194	25.93981
	90.94264	25.9474
	90.96048	25.92777
	90.96762	25.88718
	91.02917	25.88808
	91.02649	25.86667
	91.01311	25.8573
	91.00063	25.82207
	91.0207	25.82251
	91.04924	25.84883
	91.06574	25.8466
	91.07868	25.85284
	91.07288	25.83812
	91.04969	25.82876
	91.06307	25.82028
	91.08135	25.8292
	91.1206	25.83143
	91.15272	25.85016
	91.17903	25.84258
	91.19642	25.85909
	91.19865	25.84749
	91.20267	25.84035
	91.18973	25.82073
	91.17992	25.77613
	91.18929	25.76364
	91.19196	25.72974
	91.21605	25.72394
	91.22408	25.7235
	91.2553	25.74803
	91.27581	25.74714
	91.33335	25.83901
	91.34227	25.83589
	91.41898	25.85462
	91.44441	25.8408
	91.46894	25.85909
	91.52558	25.87291
	91.53272	25.88406
	91.52558	25.89031
	91.51354	25.87113
	91.49347	25.86533
	91.47741	25.8689
	91.48321	25.8912
	91.50328	25.89209
	91.50863	25.90993
	91.53138	25.92376
	91.53584	25.93401
	91.52157	25.92465
	91.51666	25.92019
	91.50551	25.91305
	91.5015	25.92063
	91.51978	25.94071
	91.518	25.95275
	91.5238	25.95944
	91.53718	25.96211
	91.53718	25.96836
	91.55145	25.97505
	91.57598	26.03303
	91.58802	26.03035
	91.59694	26.01697
	91.62014	26.02723
	91.62593	26.02411
	91.63218	26.02233
	91.63307	26.00493
	91.6246	25.98575
	91.63798	25.96479
	91.62995	25.94472
	91.61077	25.94472
	91.61121	25.93981
	91.65136	25.9077
	91.6692	25.90547
	91.68659	25.92108
	91.70176	25.93803
	91.7138	25.9474
	91.72004	25.95409
	91.72316	26.03035
	91.73119	26.05934
	91.75929	26.07139
	91.77847	26.09146
	91.79051	26.087
	91.8195	26.11866
	91.83278	26.11371
	91.83294	26.11324
	91.83304	26.11312
	91.83371	26.11266
	91.83375	26.11257
	91.83448	26.11175
	91.83462	26.11166
	91.83517	26.11142
	91.83555	26.11115
	91.83564	26.1111
	91.8357	26.11103
	91.83622	26.11061
	91.83638	26.11052
	91.83677	26.11035
	91.83697	26.11028
	91.83741	26.1102
	91.83761	26.11018
	91.83799	26.11017
	91.83825	26.11012
	91.83861	26.10995
	91.83873	26.10978
	91.83904	26.10944
	91.8393	26.10923
	91.83951	26.10907
	91.84006	26.10878
	91.84024	26.10872
	91.84086	26.10861
	91.84112	26.10861
	91.84126	26.10852
	91.84165	26.10832
	91.842	26.10819
	91.84231	26.1081
	91.84352	26.10786
	91.84385	26.10766
	91.84425	26.10747
	91.84469	26.10732
	91.84499	26.10724
	91.84578	26.1072
	91.84616	26.10695
	91.84707	26.1065
	91.84739	26.10638
	91.8479	26.10625
	91.84832	26.10621
	91.84853	26.10621
	91.84898	26.10625
	91.84924	26.10631
	91.85039	26.10665
	91.85053	26.10666
	91.85078	26.10665
	91.85213	26.1054
	91.85253	26.10507
	91.85291	26.10483
	91.85695	26.10277
	91.8576	26.10249
	91.85803	26.10222
	91.85844	26.102
	91.85916	26.10179
	91.85925	26.10178
	91.85986	26.10133
	91.86026	26.10108
	91.86081	26.10087
	91.86095	26.10084
	91.86168	26.10083
	91.86192	26.10077
	91.8624	26.10071
	91.86257	26.10071
	91.86267	26.10073
	91.86278	26.10057
	91.86317	26.10015
	91.86365	26.09984
	91.86377	26.09978
	91.86402	26.0994
	91.86413	26.09927
	91.86476	26.09878
	91.86494	26.09869
	91.86562	26.0985
	91.86586	26.09847
	91.86615	26.09846
	91.86631	26.09847
	91.86718	26.09881
	91.8674	26.09865
	91.86775	26.09845
	91.8679	26.09838
	91.86872	26.09821
	91.86892	26.09821
	91.86917	26.09822
	91.86948	26.09826
	91.86999	26.09825
	91.87041	26.09829
	91.87084	26.09839
	91.8719	26.09874
	91.87244	26.09882
	91.87284	26.09877
	91.8738	26.09841
	91.87414	26.09825
	91.87466	26.09778
	91.87489	26.09765
	91.87528	26.09747
	91.8755	26.0974
	91.87565	26.09738
	91.86946	26.05667
	91.88328	26.02991
	91.91718	26.02143
	91.91941	26.00002
	91.92565	25.99958
	91.93413	26.01474
	91.94126	26.01385
	91.97828	26.02589
	91.99122	26.04106
	92.00816	26.03927
	92.01753	26.03972
	92.05277	26.03303
	92.09335	26.04864
	92.13305	26.04596
	92.14375	26.05756
	92.1491	26.06157
	92.1781	26.07941
	92.18033	26.06871
	92.21199	26.07094
	92.24098	26.06247
	92.27354	26.06514
	92.29584	26.07897
	92.30164	26.07629
	92.2218	25.99869
	92.19148	25.98531
	92.16561	25.96434
	92.16516	25.95409
	92.15624	25.94294
	92.15981	25.91528
	92.18077	25.90859
	92.19727	25.91796
	92.2004	25.90815
	92.2227	25.91127
	92.22493	25.90146
	92.21288	25.89209
	92.19504	25.88139
	92.18122	25.87157
	92.17988	25.87024
	92.18077	25.8515
	92.15312	25.8127
	92.15089	25.78371
	92.16561	25.73465
	92.14955	25.71458
	92.16159	25.69584
	92.16025	25.69094
	92.16561	25.67845
	92.16031	25.67332
	92.1607	25.6731
	92.17096	25.66685
	92.22894	25.71636
	92.23697	25.70833
	92.27042	25.71101
	92.30833	25.72617
	92.33375	25.72528
	92.36319	25.73643
	92.38504	25.75338
	92.38683	25.74312
	92.41091	25.74312
	92.41627	25.74045
	92.41225	25.73732
	92.41716	25.72974
	92.43321	25.73153
	92.44213	25.72082
	92.42742	25.71056
	92.43232	25.69094
	92.46533	25.68246
	92.5019	25.62315
	92.55765	25.61199
	92.56077	25.57408
	92.57237	25.56026
	92.58753	25.55312
	92.6027	25.55758
	92.6085	25.56561
	92.63035	25.57052
	92.64819	25.59237
	92.66068	25.58167
	92.66068	25.57052
	92.64998	25.55981
	92.63749	25.52859
	92.57549	25.49023
	92.56791	25.48087
	92.56746	25.46749
	92.59824	25.4715
	92.60894	25.41664
	92.62857	25.42512
	92.62946	25.43448
	92.6415	25.41932
	92.65444	25.43537
	92.66023	25.4104
	92.67361	25.41709
	92.71822	25.37516
	92.73695	25.38141
	92.74007	25.36446
	92.76059	25.33547
	92.77263	25.33948
	92.78422	25.33235
	92.78378	25.30781
	92.79225	25.28507
	92.76995	25.26901
	92.77664	25.26054
	92.7646	25.24939
	92.77218	25.23333
	92.8043	25.2195
	92.77976	25.203
	92.74721	25.20791
	92.69413	25.18115
	92.66692	25.17713
	92.65934	25.15929
	92.63793	25.14502
	92.62143	25.11781
	92.58174	25.13209
	92.55765	25.12986
	92.52465	25.14011
	92.52509	25.1254
	92.54293	25.09953
	92.48451	25.108
	92.47469	25.07098
	92.45997	25.05448
	92.4631	25.03709
	92.44659	25.04199
	92.40954	25.02495
END
END
