India_Uttar Pradesh
1
	77.57479	30.38432
	77.56497	30.40132
	77.56548	30.40361
	77.56452	30.40513
	77.57747	30.41242
	77.5846	30.40885
	77.60913	30.41063
	77.62207	30.40483
	77.63411	30.41108
	77.66178	30.3946
	77.67055	30.38902
	77.68048	30.37707
	77.68651	30.38035
	77.71082	30.33882
	77.75141	30.32455
	77.81251	30.29065
	77.86113	30.27148
	77.87406	30.27415
	77.89636	30.26612
	77.9316	30.24695
	77.90305	30.21305
	77.89592	30.18629
	77.86559	30.15507
	77.83838	30.11225
	77.81296	30.0895
	77.81	30.09066
	77.77943	30.06042
	77.77141	30.05251
	77.76905	30.05015
	77.76818	30.04915
	77.76759	30.0484
	77.76644	30.0465
	77.76555	30.04508
	77.76535	30.04481
	77.76446	30.04382
	77.76319	30.04265
	77.77326	30.03286
	77.77237	30.02617
	77.74918	30.01413
	77.74071	29.99406
	77.73	29.98737
	77.74517	29.96774
	77.71751	29.93474
	77.72866	29.92849
	77.73312	29.91333
	77.71127	29.88791
	77.70324	29.88969
	77.70324	29.86784
	77.7135	29.85669
	77.73	29.85312
	77.72911	29.83751
	77.74249	29.82457
	77.74204	29.80941
	77.76479	29.78532
	77.76078	29.75276
	77.76925	29.73448
	77.75899	29.71352
	77.79512	29.70058
	77.78932	29.68586
	77.81118	29.67248
	77.82902	29.66936
	77.87005	29.69389
	77.87406	29.70192
	77.91019	29.6988
	77.90484	29.70237
	77.92	29.71396
	77.94096	29.71441
	77.95211	29.70549
	77.94096	29.70014
	77.94542	29.6872
	77.96237	29.67025
	77.97219	29.6756
	77.9655	29.65553
	77.98311	29.63687
	77.97665	29.61406
	77.96237	29.61004
	77.95167	29.61584
	77.94721	29.59042
	77.97263	29.58328
	77.98378	29.58819
	77.97709	29.5583
	77.98824	29.54582
	77.99404	29.55518
	78.03686	29.55251
	78.04266	29.57213
	78.03641	29.58105
	78.04399	29.59309
	78.05916	29.60157
	78.0819	29.60201
	78.09082	29.62476
	78.13409	29.65866
	78.13899	29.67605
	78.16575	29.67962
	78.18226	29.69166
	78.19341	29.70995
	78.22106	29.71753
	78.23132	29.70415
	78.30313	29.75767
	78.33167	29.79603
	78.38608	29.77373
	78.40797	29.77262
	78.40836	29.77219
	78.40898	29.77162
	78.40945	29.77122
	78.41017	29.77043
	78.41066	29.77007
	78.41112	29.76982
	78.41234	29.76924
	78.41306	29.76893
	78.41353	29.76876
	78.41461	29.76832
	78.41517	29.76818
	78.41527	29.76817
	78.41579	29.76818
	78.41634	29.76831
	78.41735	29.76795
	78.41829	29.76811
	78.43202	29.75812
	78.48777	29.74117
	78.5074	29.69077
	78.51141	29.65063
	78.52747	29.62431
	78.60508	29.56187
	78.63942	29.5476
	78.69339	29.5088
	78.73888	29.50478
	78.78571	29.47624
	78.89588	29.45617
	78.92308	29.45617
	78.90033	29.4468
	78.89632	29.42361
	78.87001	29.39239
	78.86242	29.39462
	78.85663	29.3857
	78.83254	29.38124
	78.83611	29.37142
	78.82897	29.3683
	78.81425	29.37009
	78.81515	29.38525
	78.8089	29.38302
	78.79731	29.35581
	78.79017	29.35225
	78.79775	29.33842
	78.78883	29.3295
	78.78125	29.33218
	78.78259	29.34645
	78.76609	29.3411
	78.75761	29.34957
	78.74156	29.33262
	78.72817	29.33396
	78.72728	29.31746
	78.71435	29.31924
	78.76698	29.28579
	78.7585	29.28668
	78.81381	29.25234
	78.8312	29.26081
	78.84235	29.25412
	78.85261	29.26126
	78.8709	29.24074
	78.87001	29.2287
	78.88294	29.22513
	78.89231	29.21487
	78.88785	29.21041
	78.899	29.20239
	78.88637	29.19553
	78.88687	29.19422
	78.90569	29.18053
	78.9048	29.16314
	78.89498	29.15689
	78.90033	29.15065
	78.91461	29.14887
	78.92353	29.15734
	78.94449	29.14976
	78.96099	29.1618
	78.96679	29.16537
	78.97883	29.15466
	78.98374	29.13727
	78.99266	29.1337
	79.00069	29.11675
	79.02968	29.12523
	79.02789	29.13281
	79.00872	29.13638
	79.01095	29.15734
	79.02879	29.15243
	79.02165	29.16715
	79.027	29.17206
	79.04618	29.15466
	79.07294	29.15199
	79.10059	29.13147
	79.13092	29.12924
	79.14207	29.11987
	79.14386	29.10649
	79.13494	29.08196
	79.13717	29.06948
	79.14386	29.06011
	79.16527	29.05119
	79.15412	29.0329
	79.15813	29.02309
	79.16839	29.01595
	79.18489	29.01818
	79.18311	29.02443
	79.19738	29.0222
	79.20407	29.02889
	79.29907	28.95307
	79.3071	28.95842
	79.3517	28.95262
	79.35973	28.97046
	79.37712	28.93701
	79.40165	28.9321
	79.39585	28.88527
	79.41102	28.85584
	79.43332	28.86163
	79.45963	28.85896
	79.47658	28.86699
	79.50025	28.86332
	79.51596	28.88373
	79.53635	28.89241
	79.55419	28.87858
	79.5475	28.8545
	79.55107	28.84602
	79.57649	28.85048
	79.5921	28.86654
	79.61351	28.86877
	79.6309	28.85896
	79.66614	28.84825
	79.67283	28.85762
	79.68442	28.85717
	79.68799	28.86832
	79.70539	28.87011
	79.71208	28.88081
	79.74062	28.88304
	79.74999	28.8933
	79.77452	28.89196
	79.79147	28.87055
	79.80262	28.87189
	79.80841	28.86297
	79.80797	28.85628
	79.79459	28.85271
	79.79816	28.84602
	79.7937	28.83933
	79.80128	28.82952
	79.79459	28.8148
	79.78611	28.82105
	79.78344	28.80544
	79.80128	28.80454
	79.816	28.81213
	79.81287	28.82997
	79.82447	28.84469
	79.85391	28.84424
	79.8606	28.83398
	79.87532	28.83041
	79.87576	28.81837
	79.84633	28.82149
	79.84053	28.80856
	79.86729	28.79652
	79.90118	28.80231
	79.88914	28.78581
	79.91189	28.76485
	79.92259	28.73274
	79.94088	28.72159
	79.96764	28.71579
	79.98816	28.71713
	80.00288	28.72694
	80.03365	28.76128
	80.04034	28.78314
	80.02562	28.79964
	80.0572	28.83378
	80.06238	28.83813
	80.06264	28.83787
	80.06267	28.8378
	80.06273	28.83773
	80.06277	28.83735
	80.06318	28.83634
	80.06571	28.8331
	80.0665	28.83216
	80.06647	28.83206
	80.06636	28.83143
	80.06617	28.83059
	80.06715	28.82794
	80.0698	28.82891
	80.06989	28.8291
	80.07001	28.82945
	80.0701	28.82979
	80.07028	28.83063
	80.07106	28.82961
	80.07453	28.82562
	80.07571	28.8249
	80.07944	28.82491
	80.08557	28.82558
	80.09589	28.82744
	80.09915	28.82758
	80.10589	28.8278
	80.11616	28.82787
	80.12354	28.82436
	80.12948	28.8204
	80.13249	28.81832
	80.13659	28.81496
	80.14212	28.81016
	80.14559	28.80746
	80.14898	28.80379
	80.15353	28.79883
	80.15781	28.79512
	80.16282	28.79034
	80.1697	28.78371
	80.17169	28.78244
	80.17789	28.77853
	80.19872	28.766
	80.20542	28.76209
	80.21072	28.75829
	80.21746	28.75439
	80.22262	28.75623
	80.22773	28.7566
	80.23463	28.7588
	80.2366	28.75707
	80.23885	28.75658
	80.2444	28.75526
	80.2506	28.75778
	80.25631	28.75402
	80.26355	28.74696
	80.26549	28.74285
	80.26457	28.7378
	80.26191	28.73217
	80.25673	28.72951
	80.26452	28.72296
	80.26781	28.72029
	80.27239	28.71489
	80.27498	28.71134
	80.27733	28.70999
	80.27897	28.70993
	80.28109	28.71012
	80.28706	28.71079
	80.29344	28.71153
	80.2964	28.71029
	80.29906	28.70649
	80.30119	28.70651
	80.30638	28.70523
	80.30811	28.70464
	80.31041	28.70337
	80.31161	28.70277
	80.31263	28.70229
	80.31601	28.70088
	80.32084	28.69449
	80.32161	28.69133
	80.32254	28.68813
	80.32276	28.68727
	80.3224	28.68477
	80.32143	28.68226
	80.32092	28.681
	80.32153	28.68012
	80.3228	28.67716
	80.32357	28.67485
	80.32537	28.6708
	80.32585	28.66652
	80.33495	28.66217
	80.34001	28.65895
	80.34267	28.65722
	80.34545	28.65541
	80.3509	28.65179
	80.35308	28.65016
	80.35631	28.64586
	80.35784	28.64572
	80.36027	28.64609
	80.3607	28.64566
	80.36117	28.64597
	80.36147	28.64613
	80.36186	28.64627
	80.3624	28.64639
	80.36319	28.64661
	80.36376	28.6469
	80.36429	28.64696
	80.36457	28.64695
	80.36457	28.64685
	80.36615	28.6471
	80.36661	28.64431
	80.36645	28.64406
	80.36607	28.6436
	80.36596	28.6435
	80.36536	28.64313
	80.36527	28.64309
	80.36494	28.64303
	80.36476	28.64293
	80.36441	28.6428
	80.36325	28.64248
	80.3631	28.64245
	80.36268	28.64219
	80.36217	28.64192
	80.36188	28.64178
	80.36129	28.64155
	80.36083	28.64087
	80.36035	28.64023
	80.36095	28.63951
	80.36136	28.63852
	80.36137	28.63843
	80.36121	28.63737
	80.36101	28.63698
	80.36072	28.63653
	80.36051	28.63626
	80.36058	28.63607
	80.36309	28.63448
	80.36729	28.63509
	80.36942	28.6348
	80.37119	28.63329
	80.37169	28.63101
	80.37205	28.62976
	80.37202	28.62891
	80.37324	28.62837
	80.37499	28.62951
	80.37513	28.62893
	80.37601	28.62887
	80.37618	28.62907
	80.37665	28.62951
	80.37732	28.63004
	80.37865	28.63117
	80.37959	28.63193
	80.3799	28.63214
	80.38003	28.63221
	80.38058	28.63241
	80.3809	28.63246
	80.38212	28.63258
	80.38232	28.63263
	80.38273	28.6327
	80.38303	28.63272
	80.38305	28.63226
	80.38457	28.63252
	80.38491	28.63041
	80.38501	28.6304
	80.39315	28.63208
	80.4007	28.63399
	80.40445	28.63489
	80.40735	28.63627
	80.41504	28.63945
	80.41796	28.63901
	80.42057	28.6378
	80.4227	28.63772
	80.42537	28.6375
	80.42741	28.63807
	80.43299	28.63744
	80.43473	28.63653
	80.43757	28.63583
	80.43879	28.63472
	80.44019	28.63138
	80.44099	28.62976
	80.4426	28.62869
	80.4462	28.6287
	80.4515	28.629
	80.46054	28.62196
	80.46205	28.62025
	80.46205	28.61888
	80.46035	28.61819
	80.46059	28.61737
	80.4633	28.6171
	80.46342	28.61537
	80.46253	28.61558
	80.4608	28.61416
	80.46212	28.61299
	80.46417	28.60694
	80.46667	28.60083
	80.46917	28.595
	80.47096	28.59249
	80.47214	28.59141
	80.47219	28.59065
	80.47096	28.58985
	80.47124	28.58798
	80.4709	28.58708
	80.47121	28.58509
	80.46958	28.58392
	80.47051	28.58292
	80.47438	28.58319
	80.47738	28.58411
	80.48114	28.58569
	80.48583	28.58139
	80.49104	28.57899
	80.49488	28.57637
	80.49911	28.57261
	80.49862	28.57018
	80.49959	28.5697
	80.50113	28.57062
	80.5034	28.56947
	80.50623	28.56894
	80.50842	28.56661
	80.513	28.55924
	80.5184	28.5507
	80.52272	28.55271
	80.52564	28.55973
	80.53072	28.57246
	80.5298	28.57493
	80.52563	28.5733
	80.52158	28.57682
	80.52111	28.58083
	80.52	28.58722
	80.51959	28.59393
	80.51825	28.60237
	80.51719	28.60782
	80.51552	28.61559
	80.51255	28.62146
	80.51102	28.6269
	80.50992	28.6324
	80.50792	28.64137
	80.50682	28.64671
	80.50602	28.65229
	80.50549	28.65584
	80.50462	28.66027
	80.50359	28.66486
	80.50642	28.67129
	80.51111	28.67415
	80.52226	28.68065
	80.53965	28.69075
	80.55035	28.69171
	80.55308	28.69161
	80.56144	28.68347
	80.56649	28.68069
	80.57037	28.68109
	80.57233	28.68333
	80.57354	28.68628
	80.58099	28.68364
	80.58194	28.68209
	80.58429	28.67993
	80.58656	28.67938
	80.59067	28.6798
	80.5933	28.67896
	80.59045	28.67459
	80.58309	28.67389
	80.5808	28.67129
	80.57944	28.66833
	80.57977	28.665
	80.57833	28.66306
	80.58083	28.65722
	80.585	28.65361
	80.59444	28.64861
	80.59944	28.64611
	80.60417	28.64333
	80.60944	28.64167
	80.61417	28.63917
	80.61972	28.6375
	80.62556	28.63639
	80.63139	28.63556
	80.64444	28.63556
	80.65056	28.63444
	80.65639	28.63361
	80.6625	28.63278
	80.66611	28.62861
	80.66694	28.62222
	80.67056	28.61806
	80.67472	28.61472
	80.67944	28.61194
	80.68472	28.61028
	80.68889	28.60694
	80.68972	28.60056
	80.68972	28.595
	80.69167	28.58806
	80.69528	28.58389
	80.7	28.58139
	80.70472	28.57861
	80.71528	28.57528
	80.72139	28.57444
	80.72722	28.57361
	80.73444	28.57417
	80.74083	28.57417
	80.74694	28.57333
	80.75222	28.57167
	80.75694	28.56889
	80.76056	28.56472
	80.76361	28.55972
	80.76722	28.55528
	80.77028	28.54972
	80.77333	28.54444
	80.77639	28.53944
	80.78	28.53528
	80.78472	28.5325
	80.78944	28.53
	80.79361	28.52667
	80.79833	28.52389
	80.80361	28.52222
	80.80861	28.51972
	80.81333	28.51722
	80.8175	28.51361
	80.82694	28.50861
	80.83111	28.50528
	80.83639	28.50333
	80.84194	28.50167
	80.84778	28.50083
	80.85417	28.50056
	80.86111	28.50278
	80.86694	28.50556
	80.87361	28.5075
	80.88056	28.50833
	80.88722	28.50806
	80.8925	28.50639
	80.89611	28.50222
	80.89917	28.49722
	80.90083	28.49028
	80.90167	28.48417
	80.90083	28.47889
	80.89972	28.47361
	80.89861	28.46861
	80.90111	28.4625
	80.90583	28.46
	80.91056	28.45722
	80.91472	28.45389
	80.91944	28.45139
	80.92472	28.44972
	80.92917	28.44611
	80.93861	28.44111
	80.94389	28.43917
	80.95083	28.44
	80.95667	28.4425
	80.9625	28.44528
	80.96778	28.44361
	80.97139	28.43917
	80.97611	28.43667
	80.98222	28.43583
	80.98833	28.43694
	80.99306	28.44028
	81.0	28.44222
	81.00694	28.44306
	81.01111	28.43972
	81.01472	28.43528
	81.01556	28.42917
	81.01556	28.42333
	81.01444	28.41806
	81.01333	28.41306
	81.01417	28.40667
	81.01889	28.40417
	81.02444	28.40222
	81.03139	28.40306
	81.03722	28.40583
	81.04444	28.40639
	81.04972	28.40472
	81.05444	28.40222
	81.05972	28.40028
	81.065	28.39861
	81.07056	28.39694
	81.07639	28.39583
	81.08222	28.395
	81.08833	28.39417
	81.09417	28.39333
	81.09944	28.39139
	81.10528	28.39056
	81.11083	28.38861
	81.11667	28.38778
	81.12722	28.38444
	81.13333	28.38333
	81.13917	28.3825
	81.14444	28.38083
	81.15028	28.37972
	81.15583	28.37806
	81.16111	28.37639
	81.16694	28.37528
	81.17222	28.37361
	81.17778	28.37194
	81.18306	28.37
	81.18889	28.36917
	81.19361	28.36667
	81.19778	28.36306
	81.20194	28.35972
	81.20556	28.35556
	81.20917	28.35111
	81.2125	28.3475
	81.21472	28.34167
	81.21778	28.33667
	81.22028	28.33056
	81.2225	28.32472
	81.22444	28.31806
	81.22611	28.31111
	81.22861	28.30528
	81.23028	28.29833
	81.23222	28.29167
	81.23283	28.28925
	81.23361	28.28639
	81.23583	28.28028
	81.23778	28.27361
	81.24056	28.26861
	81.24361	28.26333
	81.24667	28.25833
	81.25	28.25389
	81.25417	28.25056
	81.25778	28.24639
	81.26194	28.24306
	81.26611	28.23944
	81.27028	28.23611
	81.27444	28.2325
	81.27806	28.22833
	81.28194	28.225
	81.28556	28.22056
	81.29278	28.21222
	81.29694	28.20861
	81.30528	28.20194
	81.30917	28.19833
	81.31222	28.19333
	81.31111	28.18806
	81.31361	28.18222
	81.31722	28.17778
	81.32	28.17278
	81.31611	28.16917
	81.30972	28.16917
	81.30194	28.16778
	81.29806	28.16389
	81.29806	28.15833
	81.30167	28.15389
	81.30639	28.15139
	81.31167	28.14972
	81.31806	28.14944
	81.32333	28.14778
	81.32139	28.14306
	81.3175	28.13944
	81.31639	28.13417
	81.32	28.13
	81.32639	28.13
	81.33361	28.13056
	81.34028	28.13278
	81.34806	28.13417
	81.35556	28.13583
	81.36222	28.13806
	81.36722	28.14111
	81.37028	28.14528
	81.37222	28.15
	81.37333	28.155
	81.37444	28.16028
	81.37444	28.16611
	81.3775	28.17028
	81.38222	28.17333
	81.38833	28.17444
	81.39417	28.17361
	81.40028	28.17278
	81.40556	28.17083
	81.41139	28.17
	81.41667	28.16833
	81.42194	28.16639
	81.42667	28.16389
	81.43139	28.16111
	81.43611	28.15861
	81.44028	28.15528
	81.44333	28.15
	81.44556	28.14417
	81.44806	28.13833
	81.45139	28.13389
	81.45611	28.13139
	81.46139	28.12972
	81.46639	28.12694
	81.47028	28.12361
	81.47222	28.11667
	81.47306	28.11056
	81.47181	28.10468
	81.47083	28.10028
	81.47083	28.09444
	81.4725	28.0875
	81.47611	28.08333
	81.48028	28.08
	81.48472	28.07722
	81.48972	28.07472
	81.495	28.07306
	81.49972	28.07028
	81.505	28.06861
	81.50972	28.06583
	81.51444	28.06333
	81.51972	28.06167
	81.52444	28.05889
	81.52917	28.05639
	81.53444	28.05444
	81.54389	28.04944
	81.54861	28.04667
	81.55333	28.04417
	81.55861	28.0425
	81.56333	28.03972
	81.56806	28.03722
	81.57333	28.03528
	81.57806	28.03278
	81.58333	28.03083
	81.58806	28.02833
	81.58742	28.02453
	81.59003	28.02344
	81.59202	28.02238
	81.59386	28.02202
	81.5962	28.02124
	81.59854	28.01979
	81.60072	28.01871
	81.60742	28.01532
	81.60979	28.01362
	81.61612	28.01047
	81.61833	28.00925
	81.61896	28.00874
	81.62189	28.00463
	81.62426	28.00151
	81.62661	28.00097
	81.62737	28.00192
	81.63295	27.9992
	81.63664	27.99736
	81.63793	27.99745
	81.63916	27.99728
	81.63993	27.99688
	81.64007	27.99647
	81.64178	27.99468
	81.6375	27.98722
	81.64278	27.98528
	81.64861	27.98444
	81.65444	27.98333
	81.66028	27.9825
	81.66639	27.98139
	81.67222	27.98056
	81.67861	27.98056
	81.68444	27.97944
	81.69056	27.97861
	81.69583	27.97667
	81.70111	27.975
	81.70639	27.97306
	81.71056	27.96972
	81.71528	27.96722
	81.71917	27.96361
	81.72333	27.96028
	81.72694	27.95583
	81.73111	27.9525
	81.735	27.94917
	81.73917	27.94556
	81.74333	27.94222
	81.7475	27.93861
	81.75167	27.93528
	81.75556	27.93194
	81.76	27.92778
	81.76417	27.92417
	81.76832	27.92061
	81.77222	27.91722
	81.78056	27.91056
	81.78528	27.90778
	81.793	27.91344
	81.80314	27.90538
	81.80467	27.90426
	81.80515	27.90345
	81.80846	27.90311
	81.81234	27.90428
	81.81353	27.90446
	81.81549	27.90391
	81.81853	27.90349
	81.82143	27.90338
	81.82424	27.90213
	81.82485	27.90087
	81.83014	27.8993
	81.83382	27.89737
	81.83489	27.89586
	81.83941	27.8915
	81.8415	27.89028
	81.84541	27.88872
	81.8473	27.8873
	81.84821	27.88689
	81.8512	27.88456
	81.85618	27.88081
	81.86017	27.87832
	81.86124	27.87756
	81.86232	27.877
	81.86412	27.87595
	81.86489	27.87569
	81.86676	27.8745
	81.86787	27.87349
	81.86885	27.87286
	81.87155	27.87057
	81.87328	27.86951
	81.87545	27.86764
	81.8776	27.86618
	81.87992	27.8622
	81.88088	27.86087
	81.88315	27.85855
	81.88405	27.858
	81.885	27.85694
	81.88704	27.85667
	81.88949	27.85654
	81.89278	27.856
	81.89834	27.85469
	81.9001	27.85365
	81.90218	27.85389
	81.90359	27.85455
	81.906	27.85509
	81.90784	27.85539
	81.90903	27.85575
	81.91109	27.85621
	81.91294	27.85666
	81.9137	27.85694
	81.91624	27.85721
	81.91903	27.85807
	81.92304	27.85896
	81.92504	27.85945
	81.92583	27.85996
	81.92608	27.86124
	81.92612	27.86341
	81.92593	27.86617
	81.9259	27.87109
	81.92528	27.87553
	81.93	27.87972
	81.93389	27.88361
	81.93694	27.8875
	81.94083	27.89139
	81.94472	27.89472
	81.94861	27.89861
	81.95639	27.90583
	81.96139	27.90889
	81.96611	27.91194
	81.97194	27.91444
	81.97778	27.91722
	81.98444	27.91917
	81.99222	27.92056
	81.99972	27.92222
	82.00556	27.92111
	82.01222	27.92111
	82.01806	27.92
	82.02444	27.92
	82.03111	27.91972
	82.03694	27.91889
	82.04333	27.91861
	82.04917	27.91778
	82.05528	27.91667
	82.06056	27.915
	82.06639	27.91417
	82.07694	27.91028
	82.08111	27.90694
	82.08556	27.90417
	82.09389	27.8975
	82.0975	27.89306
	82.10028	27.88806
	82.1025	27.88194
	82.10556	27.87694
	82.10833	27.87194
	82.1125	27.86833
	82.11722	27.86583
	82.12306	27.86472
	82.12889	27.86389
	82.13583	27.86444
	82.1425	27.86444
	82.14889	27.86417
	82.155	27.8625
	82.16028	27.86083
	82.16556	27.85889
	82.17083	27.85722
	82.175	27.85361
	82.17972	27.85111
	82.18361	27.8475
	82.18833	27.845
	82.1925	27.84139
	82.19722	27.83889
	82.20194	27.83611
	82.20639	27.83361
	82.21056	27.83
	82.21528	27.8275
	82.22	27.82472
	82.22472	27.82222
	82.22944	27.81944
	82.23333	27.81611
	82.2375	27.81278
	82.24167	27.80917
	82.24556	27.80583
	82.24972	27.80222
	82.25389	27.79889
	82.26611	27.78833
	82.27028	27.785
	82.27417	27.78139
	82.27833	27.77806
	82.28306	27.77528
	82.28722	27.77194
	82.29167	27.76917
	82.29583	27.76583
	82.3	27.76222
	82.30472	27.75972
	82.30861	27.75611
	82.31806	27.75111
	82.32333	27.74917
	82.32972	27.74889
	82.33556	27.74806
	82.34139	27.74694
	82.3475	27.74611
	82.35278	27.74417
	82.3575	27.74167
	82.36139	27.73806
	82.36556	27.73472
	82.36944	27.73111
	82.37361	27.72778
	82.37722	27.72333
	82.38056	27.71917
	82.38472	27.71556
	82.38806	27.71139
	82.39167	27.70694
	82.39444	27.70194
	82.39861	27.69833
	82.40194	27.69417
	82.40611	27.69083
	82.41083	27.68806
	82.415	27.68472
	82.41944	27.68194
	82.42417	27.67944
	82.43472	27.67556
	82.44056	27.67472
	82.44583	27.67278
	82.45167	27.67194
	82.45833	27.67167
	82.46472	27.67167
	82.47889	27.67278
	82.48639	27.67444
	82.49417	27.67583
	82.50111	27.67667
	82.51444	27.68056
	82.51895	27.68925
	82.52365	27.68902
	82.52902	27.68787
	82.535	27.68528
	82.54083	27.68417
	82.5475	27.68417
	82.55389	27.68389
	82.56083	27.68472
	82.56806	27.68528
	82.57556	27.68667
	82.58333	27.68833
	82.59028	27.68889
	82.59806	27.69028
	82.60472	27.69222
	82.61139	27.69444
	82.61722	27.69694
	82.63056	27.70083
	82.6375	27.70306
	82.65083	27.70694
	82.65806	27.7075
	82.665	27.70833
	82.67028	27.70639
	82.67611	27.70528
	82.68194	27.70444
	82.68972	27.70583
	82.69556	27.70833
	82.70111	27.71111
	82.70583	27.70833
	82.71	27.705
	82.71278	27.69972
	82.71583	27.69472
	82.71861	27.68944
	82.72083	27.68361
	82.7225	27.67667
	82.72222	27.67111
	82.72111	27.66583
	82.72083	27.66
	82.7225	27.65333
	82.72611	27.64889
	82.72944	27.64472
	82.7325	27.63944
	82.73417	27.63278
	82.73306	27.6275
	82.73278	27.62194
	82.73167	27.61667
	82.73218	27.6147
	82.73306	27.61139
	82.73528	27.60528
	82.73861	27.60111
	82.74139	27.59583
	82.74444	27.59083
	82.74667	27.58472
	82.74722	27.57861
	82.74611	27.57333
	82.74417	27.56861
	82.74306	27.56361
	82.74278	27.55778
	82.74444	27.55111
	82.74722	27.54583
	82.75028	27.54083
	82.7525	27.53417
	82.75472	27.52806
	82.75722	27.52222
	82.75944	27.51639
	82.76222	27.51111
	82.76444	27.50528
	82.7689	27.50074
	82.78492	27.50006
	82.8014	27.49644
	82.81679	27.49891
	82.83248	27.50196
	82.84808	27.49949
	82.85924	27.49884
	82.86694	27.49222
	82.87278	27.49111
	82.87917	27.49111
	82.88556	27.49083
	82.89278	27.49139
	82.90028	27.49278
	82.90694	27.495
	82.91472	27.49639
	82.92056	27.49528
	82.92583	27.49361
	82.92972	27.49
	82.93389	27.48639
	82.93667	27.48139
	82.94	27.47694
	82.94361	27.47278
	82.9475	27.46917
	82.95222	27.46667
	82.9575	27.46472
	82.96278	27.46306
	82.96806	27.46111
	82.97389	27.46
	82.97972	27.45917
	82.99139	27.45694
	82.99778	27.45694
	83.00361	27.45583
	83.00889	27.45389
	83.01472	27.45306
	83.02	27.45111
	83.02583	27.45
	83.03167	27.44917
	83.0375	27.44806
	83.04389	27.44778
	83.05083	27.44861
	83.0575	27.44833
	83.07139	27.44944
	83.07806	27.44944
	83.09083	27.44889
	83.09722	27.44889
	83.10417	27.44944
	83.11083	27.44917
	83.11667	27.44806
	83.12361	27.44889
	83.13056	27.44944
	83.13722	27.44917
	83.14417	27.44972
	83.15056	27.44972
	83.15778	27.45028
	83.17056	27.44972
	83.17639	27.44889
	83.18167	27.44694
	83.18611	27.44444
	83.19028	27.44083
	83.19361	27.43639
	83.19722	27.43222
	83.2	27.42694
	83.20333	27.42278
	83.21128	27.42337
	83.21379	27.42106
	83.21832	27.41663
	83.21955	27.41583
	83.22065	27.41511
	83.22574	27.41161
	83.22528	27.40778
	83.23472	27.40222
	83.23917	27.39972
	83.24333	27.39611
	83.24778	27.39361
	83.25194	27.39
	83.25583	27.38639
	83.26028	27.37472
	83.26194	27.36778
	83.26389	27.36306
	83.26833	27.35139
	83.27111	27.34611
	83.27583	27.34333
	83.28111	27.34167
	83.28611	27.33972
	83.29139	27.33778
	83.29722	27.33694
	83.30157	27.33676
	83.30279	27.33479
	83.30275	27.33467
	83.30318	27.33451
	83.30347	27.33434
	83.3037	27.33423
	83.30425	27.33401
	83.30488	27.3338
	83.30533	27.33372
	83.30566	27.33369
	83.30585	27.33368
	83.30612	27.33369
	83.30633	27.33366
	83.30644	27.33366
	83.30655	27.33356
	83.30691	27.33335
	83.30745	27.33313
	83.30803	27.33299
	83.30967	27.3333
	83.30984	27.33342
	83.30993	27.33353
	83.31034	27.33344
	83.31086	27.33339
	83.31145	27.33327
	83.31465	27.33242
	83.3171	27.33382
	83.31727	27.33443
	83.31738	27.33507
	83.31735	27.33566
	83.32306	27.33611
	83.33056	27.3375
	83.3375	27.33944
	83.34222	27.3425
	83.34722	27.34556
	83.355	27.35278
	83.35889	27.35611
	83.36278	27.35972
	83.36583	27.36389
	83.36972	27.3675
	83.37278	27.37167
	83.37667	27.37528
	83.37889	27.37972
	83.38194	27.38389
	83.38389	27.38861
	83.38694	27.39278
	83.39	27.39667
	83.39222	27.40139
	83.39417	27.40611
	83.39639	27.41083
	83.39667	27.41639
	83.39306	27.42083
	83.39281	27.42496
	83.39141	27.42835
	83.39176	27.42934
	83.39143	27.43002
	83.3896	27.4306
	83.38458	27.43522
	83.38403	27.4368
	83.38463	27.43791
	83.38576	27.43813
	83.38617	27.43871
	83.38621	27.43959
	83.38549	27.44091
	83.38375	27.44126
	83.38383	27.44274
	83.39879	27.44938
	83.40031	27.4546
	83.40154	27.4566
	83.40189	27.45801
	83.40007	27.45946
	83.39974	27.46425
	83.40237	27.46556
	83.40245	27.46625
	83.40144	27.46758
	83.4004	27.46732
	83.39956	27.46598
	83.39806	27.46561
	83.39646	27.4661
	83.39507	27.4669
	83.39554	27.46935
	83.39546	27.46979
	83.39468	27.46959
	83.39371	27.46963
	83.39295	27.46994
	83.38994	27.47125
	83.38874	27.47056
	83.38824	27.47117
	83.38846	27.47289
	83.38877	27.47367
	83.38983	27.47494
	83.3914	27.47523
	83.3921	27.47589
	83.39199	27.47738
	83.39168	27.47821
	83.39067	27.47848
	83.38919	27.47895
	83.3887	27.47941
	83.38892	27.47976
	83.38975	27.47981
	83.39086	27.47969
	83.39729	27.47941
	83.40406	27.47921
	83.40658	27.47857
	83.4079	27.47885
	83.41557	27.47854
	83.42608	27.47794
	83.44121	27.47721
	83.45445	27.47667
	83.46006	27.47638
	83.48874	27.47517
	83.49953	27.47464
	83.52184	27.47372
	83.53083	27.47333
	83.5373	27.47298
	83.54365	27.47267
	83.55312	27.47223
	83.5583	27.47195
	83.56573	27.47162
	83.57521	27.47115
	83.57958	27.47095
	83.58535	27.47073
	83.59198	27.47041
	83.59854	27.47016
	83.61241	27.46956
	83.61426	27.46938
	83.61617	27.46875
	83.62945	27.46305
	83.63567	27.46018
	83.64045	27.45792
	83.65324	27.45192
	83.66071	27.44838
	83.66842	27.44477
	83.67524	27.44161
	83.68051	27.43924
	83.68416	27.43758
	83.69364	27.43334
	83.71162	27.42494
	83.72888	27.41696
	83.73368	27.4148
	83.73843	27.41249
	83.7459	27.40897
	83.7525	27.40583
	83.75736	27.40362
	83.7626	27.40118
	83.76735	27.39894
	83.77222	27.39667
	83.78222	27.39222
	83.79194	27.3875
	83.7972	27.38535
	83.80193	27.38317
	83.80721	27.3807
	83.8112	27.37886
	83.81718	27.37618
	83.82276	27.3735
	83.82943	27.37048
	83.83236	27.3687
	83.83596	27.366
	83.83972	27.36306
	83.84389	27.35944
	83.84861	27.35667
	83.85306	27.35417
	83.85833	27.35222
	83.85894	27.35233
	83.85641	27.34832
	83.85508	27.34029
	83.82876	27.32289
	83.84259	27.32111
	83.85463	27.3113
	83.90815	27.33048
	83.92376	27.31665
	83.92198	27.29658
	83.89789	27.27919
	83.89566	27.26804
	83.90191	27.25198
	83.95454	27.23503
	83.9639	27.22522
	83.96167	27.21362
	83.97639	27.20336
	83.98531	27.18195
	83.95097	27.14092
	83.95231	27.12888
	83.93848	27.11104
	83.94071	27.08963
	83.95498	27.08606
	84.01163	27.10479
	84.02055	27.09543
	84.00538	27.07179
	83.99066	27.06867
	84.02411	27.04458
	84.04062	27.04458
	84.03036	27.01202
	84.04954	26.99062
	84.0366	26.98393
	84.04329	26.98036
	84.04106	26.96787
	84.04686	26.96207
	84.02501	26.94289
	84.03616	26.94111
	84.03839	26.93085
	84.04775	26.93174
	84.04909	26.91479
	84.0424	26.909
	84.05221	26.8916
	84.0763	26.87867
	84.08566	26.88536
	84.09012	26.87733
	84.09994	26.88803
	84.10083	26.90097
	84.13027	26.88536
	84.14097	26.88759
	84.1316	26.85547
	84.15034	26.83942
	84.16907	26.83451
	84.17487	26.83585
	84.18066	26.85726
	84.20921	26.87109
	84.22125	26.87242
	84.24088	26.86261
	84.25203	26.84477
	84.25113	26.8305
	84.24266	26.82202
	84.24846	26.82069
	84.25247	26.80864
	84.24132	26.77564
	84.22482	26.75691
	84.23419	26.73951
	84.24757	26.72925
	84.27879	26.75111
	84.29797	26.75334
	84.31848	26.71632
	84.32562	26.68421
	84.40233	26.67127
	84.40724	26.63827
	84.41437	26.62712
	84.37869	26.62176
	84.37067	26.61552
	84.35104	26.62043
	84.30287	26.6173
	84.29484	26.6066
	84.27923	26.6066
	84.2721	26.59946
	84.20207	26.62444
	84.14855	26.62756
	84.15212	26.63871
	84.10618	26.63737
	84.1044	26.63247
	84.08165	26.64273
	84.08254	26.59946
	84.05712	26.5736
	84.04865	26.5504
	84.04285	26.54104
	84.00048	26.52498
	83.97416	26.53212
	83.96256	26.50848
	83.94562	26.51026
	83.94606	26.51829
	83.93491	26.52453
	83.90235	26.51829
	83.90726	26.50045
	83.90235	26.45005
	83.98174	26.43444
	83.99066	26.44782
	84.00181	26.44381
	84.01118	26.44827
	84.03036	26.41303
	84.05489	26.40188
	84.07184	26.38449
	84.09235	26.39028
	84.1713	26.37378
	84.16728	26.3381
	84.18156	26.31714
	84.16862	26.29305
	84.1713	26.26763
	84.15524	26.25782
	84.15747	26.24399
	84.14543	26.26183
	84.11287	26.26183
	84.11064	26.24176
	84.09235	26.24042
	84.09146	26.23418
	84.07942	26.23195
	84.07942	26.22125
	84.04954	26.22571
	84.02055	26.24176
	84.00538	26.23418
	84.0094	26.22392
	84.02411	26.21991
	84.01921	26.2092
	84.02367	26.20073
	84.00895	26.19939
	84.00226	26.19003
	84.00867	26.17432
	84.02768	26.16282
	84.02724	26.15301
	84.01832	26.14498
	84.0424	26.1316
	84.0424	26.11153
	84.04909	26.09949
	84.09102	26.09636
	84.11599	26.07495
	84.13651	26.04686
	84.16728	26.02545
	84.16639	25.99155
	84.17264	25.99869
	84.19226	25.98932
	84.20163	26.00047
	84.29618	25.94695
	84.35149	25.95944
	84.40813	25.93134
	84.42329	25.89254
	84.4505	25.89031
	84.46656	25.88362
	84.48529	25.88941
	84.5067	25.87247
	84.52855	25.87782
	84.5406	25.86221
	84.52008	25.86132
	84.52632	25.85552
	84.52677	25.83411
	84.54416	25.83009
	84.54684	25.84124
	84.55665	25.83768
	84.62043	25.79397
	84.62088	25.77256
	84.61017	25.77746
	84.60036	25.76052
	84.62222	25.74714
	84.63069	25.7284
	84.59546	25.73911
	84.55576	25.73643
	84.55844	25.7012
	84.55219	25.68425
	84.53123	25.69272
	84.53569	25.72662
	84.53034	25.72484
	84.52454	25.68425
	84.51651	25.67756
	84.50581	25.68246
	84.48841	25.678
	84.4893	25.69094
	84.46656	25.68559
	84.46031	25.69049
	84.46299	25.69852
	84.44872	25.71458
	84.42419	25.7119
	84.42374	25.69495
	84.40189	25.69941
	84.39386	25.72885
	84.38137	25.7342
	84.38851	25.74446
	84.38003	25.74847
	84.36754	25.74178
	84.36933	25.73599
	84.35461	25.74357
	84.33142	25.74446
	84.32428	25.73331
	84.31848	25.67176
	84.28369	25.67711
	84.29261	25.66864
	84.28548	25.6615
	84.21724	25.66418
	84.20296	25.66953
	84.19449	25.70343
	84.14811	25.73108
	84.14454	25.72082
	84.13562	25.71681
	84.1267	25.71859
	84.13696	25.72394
	84.13517	25.73153
	84.12313	25.72394
	84.09458	25.72038
	84.06961	25.6954
	84.07987	25.65258
	84.0763	25.63742
	84.0143	25.61601
	83.94428	25.56739
	83.92109	25.5616
	83.89611	25.52814
	83.87292	25.52056
	83.86667	25.49336
	83.85106	25.47373
	83.82921	25.46169
	83.81003	25.4657
	83.80557	25.45366
	83.83322	25.45009
	83.83857	25.43671
	83.79442	25.43181
	83.80512	25.42467
	83.79932	25.41084
	83.78238	25.3988
	83.76364	25.3988
	83.76186	25.3881
	83.74982	25.39211
	83.75874	25.40059
	83.75339	25.40415
	83.73778	25.40103
	83.73242	25.4104
	83.72707	25.39836
	83.71547	25.39925
	83.7012	25.38587
	83.69451	25.39613
	83.68961	25.38587
	83.67533	25.37828
	83.68916	25.37115
	83.66909	25.36446
	83.66017	25.37115
	83.65883	25.36312
	83.65036	25.36803
	83.64233	25.34127
	83.62984	25.34305
	83.62226	25.32967
	83.60709	25.33235
	83.58792	25.32655
	83.56428	25.30826
	83.56428	25.31584
	83.53484	25.3154
	83.54644	25.31183
	83.52547	25.29934
	83.51789	25.30246
	83.51789	25.2931
	83.50808	25.28641
	83.50273	25.28953
	83.49827	25.28284
	83.4947	25.2873
	83.48622	25.27972
	83.48043	25.28239
	83.46036	25.25206
	83.43984	25.2592
	83.43137	25.24448
	83.41932	25.2534
	83.41932	25.24627
	83.40906	25.24939
	83.3881	25.20702
	83.37963	25.21192
	83.37205	25.20122
	83.34975	25.19899
	83.33907	25.18693
	83.33721	25.18742
	83.33649	25.18469
	83.33672	25.18429
	83.33592	25.18338
	83.33766	25.18267
	83.33945	25.17992
	83.34079	25.17794
	83.34145	25.17711
	83.34218	25.17635
	83.34227	25.17624
	83.34265	25.17558
	83.34314	25.17484
	83.34373	25.17412
	83.34511	25.1727
	83.34622	25.17152
	83.34306	25.15885
	83.35242	25.15171
	83.35733	25.12406
	83.35376	25.11023
	83.33993	25.11246
	83.32789	25.06117
	83.33369	25.05091
	83.32209	25.05582
	83.31585	25.02727
	83.31986	25.01568
	83.34395	25.01033
	83.34573	24.99204
	83.35822	24.91399
	83.35153	24.90328
	83.36	24.89169
	83.3551	24.88544
	83.36446	24.87875
	83.35421	24.87072
	83.36848	24.86314
	83.39033	24.83326
	83.39568	24.81096
	83.38676	24.7842
	83.41932	24.76993
	83.45322	24.73335
	83.47998	24.73781
	83.48873	24.72526
	83.48087	24.7057
	83.49202	24.70525
	83.51254	24.6834
	83.49961	24.66868
	83.49737	24.65173
	83.52414	24.64415
	83.52057	24.62988
	83.54153	24.62453
	83.51745	24.60312
	83.52503	24.58037
	83.517	24.54915
	83.49336	24.54201
	83.49827	24.52685
	83.39301	24.50098
	83.39256	24.48046
	83.38141	24.45549
	83.38989	24.43765
	83.40059	24.4372
	83.40014	24.40866
	83.43003	24.40375
	83.45144	24.36495
	83.44118	24.36093
	83.42646	24.33997
	83.40327	24.33729
	83.37606	24.31455
	83.38052	24.30028
	83.39613	24.29358
	83.40193	24.26593
	83.39345	24.2472
	83.3774	24.2356
	83.37829	24.20081
	83.34885	24.12633
	83.33904	24.11027
	83.32343	24.10135
	83.31496	24.10715
	83.31094	24.09288
	83.28909	24.07281
	83.27749	24.05006
	83.27615	24.0233
	83.25876	24.01171
	83.24181	24.01394
	83.2369	24.00145
	83.21594	23.98941
	83.20836	23.9729
	83.21104	23.96041
	83.18963	23.92117
	83.15843	23.90654
	83.15847	23.90627
	83.15841	23.90598
	83.15774	23.90568
	83.15679	23.90543
	83.15553	23.90518
	83.15472	23.90495
	83.15433	23.90435
	83.15405	23.90339
	83.15449	23.90229
	83.12763	23.88994
	83.0866	23.87835
	83.06118	23.87523
	83.03665	23.88325
	82.95369	23.87255
	82.93897	23.87567
	82.92247	23.89262
	82.88099	23.91046
	82.84887	23.94703
	82.82078	23.96487
	82.80784	23.96309
	82.79892	23.97067
	82.79714	24.00502
	82.75254	24.00858
	82.74183	24.02152
	82.74005	24.03088
	82.75566	24.04382
	82.76636	24.07772
	82.75477	24.07326
	82.74808	24.08039
	82.74139	24.07504
	82.72622	24.08262
	82.70838	24.08084
	82.70124	24.09689
	82.66494	24.12356
	82.66333	24.1241
	82.66051	24.12931
	82.66097	24.12998
	82.66127	24.13073
	82.66131	24.13094
	82.66131	24.13167
	82.66126	24.13193
	82.66107	24.13252
	82.66089	24.13288
	82.66066	24.13324
	82.6586	24.13591
	82.65837	24.13628
	82.67092	24.15844
	82.67939	24.15666
	82.68831	24.14417
	82.72042	24.13882
	82.7231	24.15666
	82.73603	24.16826
	82.72711	24.22312
	82.74986	24.23605
	82.75075	24.26816
	82.76413	24.29225
	82.76056	24.37297
	82.75432	24.37967
	82.74674	24.37253
	82.71864	24.37119
	82.70704	24.38502
	82.71998	24.42962
	82.72578	24.42605
	82.73291	24.43274
	82.72488	24.44478
	82.73068	24.47021
	82.72399	24.47645
	82.73648	24.49964
	82.71552	24.51347
	82.71377	24.53741
	82.71507	24.53799
	82.71522	24.53815
	82.71567	24.53905
	82.71586	24.53992
	82.71623	24.54305
	82.71636	24.54381
	82.71638	24.54442
	82.71612	24.54634
	82.71603	24.54747
	82.7158	24.54958
	82.71617	24.54981
	82.7166	24.55018
	82.71685	24.55047
	82.71732	24.55143
	82.71746	24.55221
	82.71746	24.55297
	82.71732	24.55368
	82.71812	24.55413
	82.72052	24.55543
	82.7207	24.55546
	82.72139	24.55569
	82.72145	24.55573
	82.74139	24.5545
	82.74585	24.54157
	82.80071	24.55272
	82.79624	24.59955
	82.76012	24.59999
	82.7677	24.6107
	82.76279	24.64549
	82.695	24.64415
	82.69589	24.67582
	82.66556	24.6999
	82.58751	24.67359
	82.57413	24.66288
	82.52908	24.65218
	82.51838	24.67849
	82.48671	24.67537
	82.47645	24.6834
	82.44479	24.68028
	82.44836	24.69054
	82.4323	24.70615
	82.42026	24.70525
	82.40152	24.68384
	82.41178	24.65798
	82.40331	24.63612
	82.40554	24.61739
	82.41446	24.60624
	82.40911	24.59776
	82.36094	24.60178
	82.34577	24.61873
	82.32972	24.62363
	82.3092	24.61293
	82.29404	24.61382
	82.29805	24.65664
	82.29181	24.66467
	82.29627	24.67002
	82.28512	24.67002
	82.27843	24.68072
	82.26326	24.68652
	82.25836	24.68206
	82.26683	24.67849
	82.253	24.666
	82.2481	24.67537
	82.23561	24.67626
	82.23516	24.666
	82.22981	24.66957
	82.22847	24.69098
	82.24319	24.70169
	82.24141	24.73826
	82.24944	24.75654
	82.24364	24.77572
	82.23828	24.75431
	82.22089	24.76725
	82.22267	24.75164
	82.20929	24.75967
	82.19948	24.75208
	82.21331	24.74406
	82.21375	24.72845
	82.2026	24.74093
	82.17272	24.7396
	82.19145	24.75298
	82.19547	24.76368
	82.18922	24.78241
	82.20929	24.78152
	82.20483	24.78554
	82.20885	24.79758
	82.18833	24.79802
	82.17897	24.80471
	82.19591	24.82434
	82.16291	24.80516
	82.17317	24.80115
	82.15934	24.79223
	82.13213	24.80427
	82.12634	24.79401
	82.11206	24.79223
	82.10002	24.81007
	82.08173	24.82211
	82.03713	24.83281
	82.0242	24.84441
	82.00502	24.85065
	81.968	24.84396
	81.95908	24.83058
	81.93455	24.85155
	81.92652	24.86091
	81.92831	24.87295
	81.89664	24.89258
	81.91225	24.93094
	81.90422	24.94209
	81.90155	24.98267
	81.89441	24.98758
	81.89964	25.00676
	81.89718	25.00692
	81.89509	25.00704
	81.89449	25.00706
	81.89338	25.00698
	81.89255	25.00694
	81.89213	25.00695
	81.89307	24.99962
	81.88594	24.99293
	81.88148	24.99962
	81.84624	25.0072
	81.82929	25.01925
	81.78915	25.01033
	81.73831	25.03887
	81.73251	25.04868
	81.71645	25.05314
	81.71333	25.04021
	81.7053	25.03798
	81.68211	25.04378
	81.683	25.05671
	81.67586	25.06608
	81.66204	25.06518
	81.65847	25.0799
	81.6219	25.05671
	81.6045	25.06072
	81.60985	25.06474
	81.5938	25.0799
	81.63216	25.1031
	81.62279	25.11112
	81.62502	25.12049
	81.61654	25.12272
	81.60138	25.10042
	81.60227	25.11737
	81.59112	25.12317
	81.59201	25.13655
	81.60985	25.14725
	81.61521	25.14413
	81.61877	25.15974
	81.60985	25.17357
	81.60539	25.16554
	81.58176	25.16821
	81.58577	25.1865
	81.56659	25.19587
	81.5492	25.1865
	81.53403	25.18828
	81.50772	25.18516
	81.50772	25.17624
	81.53002	25.16331
	81.51887	25.15171
	81.52467	25.14368
	81.49523	25.15216
	81.48943	25.13432
	81.47159	25.13521
	81.48185	25.11737
	81.50772	25.10666
	81.49434	25.10176
	81.49478	25.08213
	81.48631	25.08392
	81.48363	25.075
	81.45821	25.08659
	81.45866	25.09284
	81.40068	25.10756
	81.43814	25.11023
	81.43011	25.13342
	81.40023	25.13387
	81.40603	25.12361
	81.39131	25.12317
	81.3864	25.13387
	81.36455	25.13788
	81.34938	25.16732
	81.336	25.16643
	81.32976	25.17267
	81.31281	25.16375
	81.31103	25.14903
	81.32307	25.11826
	81.31683	25.11603
	81.30835	25.12584
	81.30478	25.16732
	81.2691	25.16777
	81.2749	25.15349
	81.26107	25.14413
	81.25795	25.11692
	81.24591	25.10533
	81.25929	25.08749
	81.25305	25.07901
	81.26152	25.06831
	81.23074	25.01791
	81.20175	24.99561
	81.2129	24.98178
	81.19997	24.96706
	81.20621	24.93941
	81.21246	24.9345
	81.19952	24.92692
	81.18436	24.92915
	81.19908	24.93495
	81.16429	24.95993
	81.15225	24.91622
	81.1402	24.91666
	81.13441	24.89392
	81.11657	24.90194
	81.08936	24.92469
	81.07642	24.95234
	81.02647	24.95502
	81.01934	24.94521
	81.00952	24.95413
	81.02112	24.93807
	81.01666	24.93227
	81.00016	24.9403
	80.98098	24.9296
	80.97919	24.93807
	80.97206	24.93941
	80.9511	24.92692
	80.94485	24.96795
	80.93682	24.97241
	80.89713	24.9568
	80.89311	24.95056
	80.90025	24.93941
	80.88464	24.94878
	80.87483	24.94075
	80.84088	24.93542
	80.80351	24.944
	80.80349	24.94416
	80.80327	24.94518
	80.80316	24.94555
	80.80299	24.94595
	80.80281	24.94629
	80.80232	24.94696
	80.80302	24.9568
	80.79774	24.96299
	80.79769	24.96328
	80.79745	24.96384
	80.79726	24.96423
	80.79681	24.96481
	80.79541	24.96609
	80.79511	24.96639
	80.79471	24.96723
	80.79553	24.96853
	80.79563	24.96872
	80.79635	24.97025
	80.79687	24.97124
	80.79738	24.97242
	80.81863	24.97375
	80.82487	24.98624
	80.83647	24.98624
	80.84807	24.99828
	80.8503	25.00319
	80.82666	25.03932
	80.83513	25.03976
	80.84093	25.05136
	80.87081	25.07098
	80.87527	25.07946
	80.86412	25.08838
	80.87304	25.10265
	80.86502	25.12361
	80.87527	25.14457
	80.88821	25.14145
	80.90471	25.16019
	80.88598	25.17713
	80.87795	25.19542
	80.86412	25.18784
	80.83647	25.19274
	80.84227	25.17134
	80.83201	25.14145
	80.83727	25.1289
	80.83722	25.12867
	80.83721	25.12853
	80.83721	25.12829
	80.83725	25.12787
	80.83736	25.1274
	80.83742	25.12725
	80.83747	25.12706
	80.82755	25.11023
	80.81863	25.13075
	80.80971	25.13075
	80.80837	25.14101
	80.79945	25.14636
	80.78206	25.13699
	80.77403	25.1468
	80.7379	25.13476
	80.72318	25.14859
	80.69955	25.13699
	80.70088	25.12807
	80.71739	25.12896
	80.72541	25.12272
	80.72006	25.11737
	80.72051	25.10131
	80.74593	25.09953
	80.75128	25.09105
	80.77581	25.08436
	80.78117	25.06964
	80.77581	25.06162
	80.766	25.06117
	80.73344	25.06251
	80.7272	25.07187
	80.71426	25.06786
	80.67368	25.05403
	80.67189	25.06741
	80.67947	25.08169
	80.66832	25.08659
	80.65628	25.07455
	80.65048	25.08749
	80.63532	25.09774
	80.62016	25.08972
	80.60142	25.10443
	80.61347	25.10666
	80.61926	25.12004
	80.6322	25.12317
	80.62506	25.13788
	80.60856	25.13298
	80.60588	25.14948
	80.59473	25.15528
	80.59072	25.13164
	80.60142	25.12272
	80.5876	25.10889
	80.60677	25.07232
	80.5876	25.0857
	80.56797	25.08526
	80.56262	25.0915
	80.55994	25.075
	80.54344	25.06786
	80.51891	25.08213
	80.50954	25.10087
	80.47431	25.10176
	80.50018	25.08972
	80.49081	25.07812
	80.50196	25.06741
	80.49304	25.05448
	80.49438	25.04511
	80.4703	25.04467
	80.46004	25.06964
	80.45602	25.07366
	80.44576	25.06563
	80.44086	25.08213
	80.42436	25.07143
	80.41008	25.07678
	80.40518	25.06072
	80.39403	25.07187
	80.37931	25.05582
	80.36593	25.0576
	80.36414	25.04779
	80.3802	25.04155
	80.37173	25.03263
	80.38912	25.01479
	80.38199	25.00988
	80.37262	25.00854
	80.36771	25.02549
	80.35879	25.02594
	80.34809	25.01657
	80.33783	25.02103
	80.32579	25.00319
	80.31419	25.00364
	80.26691	25.0304
	80.27762	25.04378
	80.28208	25.0634
	80.31062	25.08213
	80.3133	25.10131
	80.34407	25.12495
	80.35121	25.14502
	80.38689	25.16286
	80.41544	25.16509
	80.42391	25.17401
	80.40161	25.22084
	80.39893	25.24314
	80.39091	25.24582
	80.37797	25.23735
	80.3579	25.25117
	80.34095	25.27838
	80.31196	25.28195
	80.30393	25.28908
	80.31152	25.33413
	80.30259	25.35821
	80.3133	25.37204
	80.30884	25.39167
	80.29546	25.40772
	80.2736	25.42512
	80.25576	25.42868
	80.24506	25.40505
	80.22945	25.41084
	80.21116	25.40415
	80.19377	25.4162
	80.18797	25.38364
	80.15898	25.37784
	80.15898	25.36624
	80.13712	25.35554
	80.12687	25.34082
	80.09609	25.35152
	80.08316	25.35598
	80.07022	25.34305
	80.02072	25.34305
	80.01001	25.32476
	80.01269	25.30157
	79.99128	25.28328
	79.99663	25.26857
	79.94935	25.26544
	79.94266	25.27169
	79.9333	25.26321
	79.93241	25.25028
	79.92081	25.25073
	79.91367	25.23333
	79.90252	25.25697
	79.8936	25.24627
	79.87264	25.25385
	79.86104	25.24314
	79.84722	25.24002
	79.84722	25.23244
	79.86283	25.21906
	79.85168	25.20345
	79.86238	25.17713
	79.8606	25.15617
	79.87219	25.15037
	79.84766	25.13342
	79.84276	25.11648
	79.85569	25.09864
	79.83116	25.09819
	79.81867	25.11023
	79.76917	25.1254
	79.74553	25.14368
	79.71787	25.13387
	79.67639	25.13699
	79.66614	25.12718
	79.63804	25.13119
	79.6202	25.14279
	79.5979	25.13164
	79.6028	25.15483
	79.58987	25.14725
	79.57381	25.15929
	79.56534	25.17758
	79.55017	25.16955
	79.5136	25.12584
	79.51717	25.10176
	79.50022	25.09908
	79.48996	25.08258
	79.46053	25.09641
	79.46288	25.11691
	79.45716	25.11913
	79.43109	25.10756
	79.4351	25.12673
	79.43109	25.13521
	79.41503	25.13922
	79.41503	25.12317
	79.39898	25.11335
	79.38916	25.12049
	79.38024	25.15394
	79.38381	25.17044
	79.40388	25.18962
	79.4079	25.20746
	79.43198	25.203
	79.44268	25.21237
	79.44224	25.22084
	79.42707	25.22486
	79.44179	25.25162
	79.44848	25.25073
	79.45919	25.26946
	79.48416	25.265
	79.49041	25.27035
	79.47614	25.27303
	79.47301	25.28195
	79.4574	25.28373
	79.43109	25.25965
	79.41548	25.2592
	79.40121	25.26232
	79.4021	25.27927
	79.36731	25.29443
	79.36731	25.27258
	79.35839	25.26366
	79.35125	25.2699
	79.34991	25.28864
	79.33647	25.29239
	79.33632	25.2923
	79.33417	25.29131
	79.33551	25.2904
	79.33555	25.29031
	79.33573	25.28957
	79.33666	25.27173
	79.34456	25.26411
	79.34099	25.23065
	79.32895	25.22976
	79.34679	25.21415
	79.33252	25.20077
	79.32538	25.22263
	79.31358	25.22012
	79.31304	25.22175
	79.31282	25.22225
	79.31261	25.22259
	79.31243	25.22284
	79.31215	25.22314
	79.31193	25.22334
	79.31152	25.22362
	79.31077	25.22399
	79.30633	25.22566
	79.30502	25.22617
	79.30346	25.228
	79.30245	25.23049
	79.30211	25.23127
	79.30198	25.23151
	79.30167	25.23201
	79.30049	25.23179
	79.30011	25.23176
	79.29705	25.23178
	79.29506	25.23379
	79.29696	25.23567
	79.29327	25.24002
	79.27365	25.24805
	79.28167	25.22709
	79.279	25.1972
	79.30175	25.17535
	79.31379	25.15082
	79.30085	25.13075
	79.28212	25.13342
	79.27632	25.12004
	79.27008	25.12629
	79.25804	25.12406
	79.25447	25.1303
	79.26205	25.14101
	79.25581	25.15706
	79.24599	25.16197
	79.22503	25.15796
	79.21388	25.14859
	79.22503	25.14011
	79.24332	25.14101
	79.23752	25.13119
	79.23975	25.11781
	79.2228	25.12317
	79.2063	25.1138
	79.20719	25.1245
	79.19604	25.13164
	79.19693	25.14279
	79.18489	25.15126
	79.1666	25.14234
	79.16883	25.13164
	79.17998	25.12896
	79.17909	25.11781
	79.15679	25.11202
	79.13806	25.11826
	79.12914	25.11068
	79.11487	25.11781
	79.12512	25.12941
	79.10773	25.14368
	79.12022	25.1642
	79.09078	25.17624
	79.08409	25.19274
	79.06402	25.17267
	79.05822	25.15082
	79.04306	25.13833
	79.02834	25.14011
	79.02165	25.1468
	79.03592	25.17401
	79.02477	25.1865
	79.0551	25.21727
	79.05644	25.22575
	79.02656	25.23467
	79.02923	25.24939
	79.01184	25.24939
	79.01228	25.27392
	78.99266	25.27793
	78.97705	25.26188
	78.97125	25.24493
	78.99489	25.23378
	78.99311	25.22218
	79.00024	25.21594
	78.99578	25.19587
	78.9824	25.19899
	78.96411	25.2195
	78.9485	25.2204
	78.92442	25.21058
	78.8932	25.17312
	78.87402	25.16331
	78.86733	25.19007
	78.88249	25.21103
	78.86688	25.23244
	78.8758	25.25563
	78.89186	25.24537
	78.90881	25.27436
	78.91818	25.27526
	78.94048	25.26277
	78.9485	25.26589
	78.94761	25.28373
	78.96991	25.28507
	78.95296	25.31183
	78.95431	25.33002
	78.95154	25.33084
	78.94674	25.33231
	78.94197	25.33365
	78.93271	25.33618
	78.92754	25.3319
	78.9234	25.33887
	78.9142	25.34183
	78.91263	25.34231
	78.90792	25.33948
	78.8767	25.34439
	78.8758	25.33413
	78.85663	25.31718
	78.86688	25.31094
	78.87224	25.28819
	78.86242	25.28328
	78.84191	25.22932
	78.80578	25.2708
	78.81158	25.29979
	78.80355	25.30202
	78.79106	25.2931
	78.78348	25.30335
	78.79195	25.31495
	78.8147	25.31094
	78.83343	25.33145
	78.84369	25.33235
	78.83789	25.35197
	78.84491	25.35874
	78.84194	25.35974
	78.84052	25.36008
	78.83656	25.36111
	78.83599	25.36127
	78.83478	25.36156
	78.83424	25.36171
	78.83399	25.36175
	78.83312	25.36164
	78.83261	25.3616
	78.83226	25.3616
	78.83166	25.36167
	78.83093	25.36184
	78.82231	25.36421
	78.81709	25.36528
	78.81654	25.36544
	78.81538	25.36586
	78.81186	25.36707
	78.81062	25.36751
	78.80943	25.3679
	78.80462	25.36954
	78.80196	25.3704
	78.79898	25.37176
	78.79774	25.37228
	78.79682	25.37259
	78.79161	25.37398
	78.78999	25.3742
	78.7891	25.37429
	78.78657	25.3745
	78.78158	25.37498
	78.77228	25.37592
	78.77106	25.37602
	78.76913	25.37621
	78.76742	25.3764
	78.766	25.3767
	78.76582	25.37675
	78.76173	25.37805
	78.7643	25.35821
	78.73576	25.34929
	78.71346	25.35286
	78.70364	25.35866
	78.709	25.37873
	78.69294	25.38765
	78.68714	25.38051
	78.67153	25.38453
	78.6693	25.393
	78.6577	25.3881
	78.65191	25.41307
	78.6529	25.41466
	78.65248	25.41475
	78.65144	25.41501
	78.6507	25.41527
	78.65044	25.41534
	78.65011	25.41548
	78.64947	25.41582
	78.64847	25.41649
	78.64801	25.41685
	78.64777	25.41708
	78.64744	25.41744
	78.64726	25.41768
	78.64699	25.41811
	78.64684	25.41828
	78.6433	25.42151
	78.64307	25.42168
	78.6416	25.42183
	78.64124	25.42191
	78.64085	25.42203
	78.64048	25.42219
	78.63975	25.42259
	78.63885	25.42316
	78.63786	25.42376
	78.6358	25.42473
	78.63532	25.42494
	78.63674	25.41397
	78.62871	25.40638
	78.60329	25.41709
	78.58813	25.39211
	78.56092	25.39568
	78.55691	25.38408
	78.57029	25.38497
	78.57787	25.37695
	78.57608	25.35197
	78.55601	25.3484
	78.5415	25.35921
	78.54132	25.35894
	78.54097	25.35833
	78.54028	25.35617
	78.53983	25.35491
	78.53953	25.35388
	78.53883	25.35122
	78.53854	25.35025
	78.53832	25.34959
	78.53824	25.34926
	78.53804	25.34814
	78.53789	25.34758
	78.53742	25.34615
	78.53676	25.34428
	78.53664	25.34384
	78.53649	25.34344
	78.53635	25.34312
	78.53622	25.34289
	78.53516	25.34128
	78.53473	25.34048
	78.53422	25.33973
	78.53403	25.33949
	78.53377	25.33921
	78.5333	25.33881
	78.53279	25.33848
	78.5322	25.33815
	78.53213	25.33809
	78.5318	25.3365
	78.53168	25.33605
	78.5313	25.33584
	78.53148	25.33502
	78.5413	25.32655
	78.52524	25.30648
	78.50026	25.30425
	78.49223	25.32387
	78.46904	25.30335
	78.46726	25.2931
	78.4405	25.30425
	78.42979	25.29711
	78.4289	25.28061
	78.44451	25.2699
	78.49669	25.29399
	78.50517	25.2815
	78.52078	25.28819
	78.52836	25.27436
	78.55691	25.26946
	78.5685	25.25875
	78.5627	25.22619
	78.59393	25.15751
	78.59705	25.09774
	78.62024	25.0915
	78.64209	25.06162
	78.64432	25.0353
	78.62202	24.96483
	78.64254	24.95279
	78.64031	24.9403
	78.65369	24.94432
	78.66841	24.90239
	78.7643	24.86136
	78.78036	24.81497
	78.77991	24.80694
	78.76475	24.7949
	78.77233	24.70436
	78.74022	24.65976
	78.74958	24.6049
	78.77679	24.5933
	78.79374	24.59821
	78.80177	24.60802
	78.82897	24.60802
	78.83611	24.62542
	78.84458	24.62899
	78.85261	24.62096
	78.86287	24.64103
	78.87313	24.64683
	78.90435	24.60445
	78.91327	24.58126
	78.94449	24.55629
	78.94003	24.53399
	78.94404	24.50945
	78.96634	24.49697
	78.9485	24.48626
	78.93066	24.48448
	78.92353	24.48849
	78.92442	24.4992
	78.91372	24.50098
	78.90078	24.48849
	78.90881	24.46664
	78.93111	24.45995
	78.94449	24.44344
	78.98196	24.44746
	78.98686	24.42337
	78.97437	24.39884
	78.96679	24.3538
	78.90792	24.30117
	78.91193	24.27664
	78.87893	24.25389
	78.87893	24.22312
	78.86287	24.21419
	78.83879	24.21464
	78.82407	24.20126
	78.81336	24.21018
	78.80221	24.18208
	78.78482	24.1852
	78.76073	24.23382
	78.76653	24.25077
	78.76029	24.25835
	78.74602	24.23917
	78.73754	24.24229
	78.73219	24.25389
	78.71836	24.23917
	78.69874	24.23427
	78.6693	24.24497
	78.65458	24.27396
	78.63407	24.28957
	78.62158	24.28645
	78.61712	24.29626
	78.62292	24.30964
	78.60195	24.31812
	78.57831	24.35692
	78.55245	24.36049
	78.50517	24.39394
	78.48956	24.38591
	78.47529	24.36762
	78.4677	24.33952
	78.4405	24.3257
	78.43336	24.31321
	78.4347	24.2976
	78.41151	24.28779
	78.40705	24.27708
	78.38252	24.27396
	78.36155	24.29626
	78.3446	24.3034
	78.32587	24.32971
	78.32676	24.33863
	78.36245	24.37833
	78.36111	24.38591
	78.26075	24.45415
	78.26968	24.476
	78.23979	24.48938
	78.24024	24.50945
	78.21972	24.52283
	78.2166	24.53176
	78.22418	24.54112
	78.25897	24.55807
	78.26968	24.61516
	78.25674	24.64861
	78.26789	24.66957
	78.25094	24.7057
	78.22017	24.74718
	78.23617	24.76609
	78.20902	24.81319
	78.19162	24.8395
	78.16531	24.84798
	78.16531	24.88187
	78.19965	24.89615
	78.21392	24.91577
	78.32766	24.99962
	78.33791	25.02727
	78.32498	25.07232
	78.32766	25.08882
	78.37449	25.10845
	78.39545	25.13075
	78.42489	25.1245
	78.44273	25.12896
	78.4182	25.15349
	78.44184	25.15751
	78.4463	25.16911
	78.4173	25.17267
	78.40348	25.18873
	78.38519	25.19497
	78.38385	25.20612
	78.39768	25.21772
	78.37538	25.22575
	78.36869	25.24181
	78.35442	25.24627
	78.362	25.26544
	78.34505	25.28284
	78.34505	25.298
	78.30803	25.31094
	78.33122	25.33681
	78.3232	25.35509
	78.29421	25.36758
	78.29956	25.38364
	78.31071	25.38497
	78.33256	25.4046
	78.33524	25.43091
	78.34773	25.455
	78.36111	25.44652
	78.37716	25.44831
	78.39367	25.47106
	78.4066	25.47908
	78.42087	25.47775
	78.40928	25.50406
	78.40972	25.51878
	78.41686	25.51789
	78.40883	25.53305
	78.42623	25.5616
	78.43693	25.56427
	78.45522	25.55178
	78.46191	25.56739
	78.48644	25.58211
	78.54174	25.56516
	78.58099	25.56427
	78.60552	25.5888
	78.62113	25.58211
	78.62336	25.57096
	78.64878	25.56561
	78.67688	25.59415
	78.71123	25.60664
	78.74111	25.60397
	78.80533	25.62448
	78.81113	25.67444
	78.78928	25.69986
	78.79106	25.71056
	78.76073	25.72082
	78.74825	25.73286
	78.74557	25.74401
	78.75137	25.75249
	78.76252	25.75204
	78.7759	25.76141
	78.79954	25.79932
	78.8205	25.79932
	78.82228	25.81538
	78.80043	25.8127
	78.79864	25.81805
	78.81113	25.83009
	78.84102	25.82073
	78.84146	25.80512
	78.84949	25.79575
	78.86198	25.79932
	78.86555	25.83455
	78.85306	25.84347
	78.84637	25.83857
	78.84414	25.84526
	78.84681	25.86042
	78.85796	25.87202
	78.88249	25.87024
	78.88116	25.88852
	78.8874	25.89878
	78.87625	25.91573
	78.89409	25.92599
	78.9097	25.94606
	78.92397	25.95275
	78.92933	25.94918
	78.92754	25.95542
	78.93111	25.97639
	78.92442	25.98441
	78.94315	25.99066
	78.95029	26.01965
	78.94449	26.03704
	78.97571	26.05979
	78.9824	26.07362
	78.99712	26.07406
	79.00426	26.09012
	78.9717	26.10885
	78.96902	26.12357
	78.94271	26.13918
	78.96545	26.15568
	78.98642	26.15033
	79.00069	26.15479
	79.00336	26.17308
	78.99177	26.17709
	78.9775	26.19538
	78.99177	26.20385
	79.00247	26.19672
	79.01496	26.19761
	79.01005	26.20474
	79.02076	26.20876
	79.01719	26.23195
	79.05689	26.23284
	79.06268	26.24712
	79.03681	26.26719
	79.04841	26.26585
	79.05332	26.27967
	79.06714	26.2877
	79.07785	26.28726
	79.07606	26.27521
	79.08365	26.27254
	79.0832	26.29395
	79.0939	26.31179
	79.10862	26.30866
	79.12646	26.31625
	79.11576	26.33498
	79.12691	26.33186
	79.12512	26.3381
	79.1336	26.34479
	79.07696	26.3662
	79.09034	26.37958
	79.08052	26.40545
	79.08677	26.41794
	79.10059	26.41169
	79.1171	26.41705
	79.12691	26.4447
	79.10206	26.45436
	79.10198	26.45399
	79.10183	26.45354
	79.10167	26.4532
	79.10147	26.45286
	79.10136	26.45272
	79.09916	26.452
	79.09817	26.45231
	79.09783	26.45238
	79.09732	26.45256
	79.09623	26.45311
	79.09507	26.45373
	79.09469	26.45386
	79.0942	26.45411
	79.09401	26.45424
	79.09316	26.45432
	79.09278	26.4544
	79.0925	26.45449
	79.09198	26.45473
	79.09173	26.45489
	79.09149	26.45604
	79.0832	26.45317
	79.08097	26.44381
	79.04841	26.45585
	79.06447	26.48662
	79.0609	26.50313
	79.05109	26.5009
	79.03949	26.51561
	79.04083	26.52275
	79.03146	26.52498
	79.03325	26.53613
	79.01942	26.54148
	79.02076	26.55174
	78.99801	26.55085
	78.99757	26.55575
	79.00693	26.55798
	78.99801	26.56423
	78.99132	26.58252
	78.97973	26.57404
	78.97794	26.59233
	79.00559	26.61061
	79.00292	26.62667
	78.98731	26.64407
	79.00113	26.67395
	78.99712	26.68108
	78.98374	26.68554
	78.94806	26.6628
	78.9378	26.6628
	78.94806	26.69669
	78.9039	26.7132
	78.88294	26.70428
	78.8651	26.70472
	78.84057	26.72613
	78.83544	26.73632
	78.83252	26.73954
	78.83012	26.74276
	78.82874	26.7466
	78.826	26.74951
	78.82445	26.75349
	78.82222	26.75824
	78.81879	26.76162
	78.81312	26.76438
	78.80574	26.76284
	78.78548	26.75916
	78.77604	26.75886
	78.77055	26.76039
	78.76729	26.76269
	78.7654	26.76637
	78.76403	26.77235
	78.76334	26.77618
	78.76214	26.78108
	78.75802	26.78491
	78.75424	26.78706
	78.75064	26.78782
	78.74703	26.78675
	78.74411	26.7843
	78.74102	26.77848
	78.73811	26.7751
	78.73107	26.77464
	78.72763	26.7771
	78.72592	26.78032
	78.72695	26.78568
	78.72952	26.79043
	78.72849	26.79395
	78.72523	26.79671
	78.71802	26.79564
	78.70995	26.79303
	78.70515	26.79319
	78.69931	26.79334
	78.68867	26.78982
	78.68386	26.78782
	78.6806	26.78476
	78.67837	26.78108
	78.67665	26.77817
	78.67648	26.77449
	78.67665	26.77066
	78.67596	26.76667
	78.67442	26.76422
	78.67184	26.76269
	78.66807	26.76269
	78.66378	26.76346
	78.65914	26.76422
	78.65348	26.76622
	78.64781	26.76836
	78.64318	26.76928
	78.63906	26.76974
	78.63494	26.77112
	78.63065	26.77265
	78.62687	26.77281
	78.62378	26.77097
	78.62138	26.76867
	78.61949	26.76606
	78.61829	26.7633
	78.61794	26.75962
	78.61657	26.75564
	78.61451	26.75319
	78.61176	26.75196
	78.60919	26.75058
	78.60644	26.74981
	78.60284	26.75012
	78.60043	26.75089
	78.59769	26.75135
	78.59443	26.75196
	78.59082	26.75211
	78.58756	26.75119
	78.58447	26.74997
	78.58052	26.74797
	78.5764	26.74782
	78.57297	26.74966
	78.57056	26.75227
	78.56902	26.75533
	78.56679	26.7587
	78.56404	26.76146
	78.55923	26.76254
	78.55374	26.76361
	78.54928	26.76407
	78.54464	26.76407
	78.54087	26.76576
	78.53743	26.76836
	78.53505	26.77162
	78.52576	26.77802
	78.51907	26.78108
	78.51134	26.78123
	78.50413	26.78093
	78.49538	26.782
	78.48628	26.78445
	78.47907	26.78706
	78.47289	26.78752
	78.46635	26.78742
	78.46156	26.78813
	78.45732	26.79056
	78.45491	26.79485
	78.45182	26.80098
	78.44702	26.80879
	78.44255	26.81538
	78.43637	26.82365
	78.43277	26.82564
	78.42676	26.82396
	78.41526	26.82028
	78.40496	26.81829
	78.39964	26.81814
	78.39552	26.82028
	78.39003	26.82534
	78.38448	26.83808
	78.38105	26.84083
	78.37847	26.84772
	78.37561	26.85658
	78.372	26.86409
	78.36445	26.86822
	78.35569	26.86914
	78.34642	26.8673
	78.33321	26.86286
	78.32531	26.8624
	78.3105	26.86335
	78.29951	26.86135
	78.28874	26.85719
	78.28119	26.85367
	78.27604	26.84709
	78.27347	26.84234
	78.27364	26.8356
	78.27433	26.83008
	78.27484	26.82151
	78.27192	26.81553
	78.26694	26.81339
	78.25888	26.81446
	78.25218	26.81752
	78.24669	26.82197
	78.23879	26.82641
	78.23107	26.82917
	78.21974	26.82932
	78.21012	26.82626
	78.21392	26.84834
	78.20456	26.85547
	78.19118	26.88848
	78.205	26.87733
	78.22641	26.88268
	78.22998	26.89383
	78.25273	26.90454
	78.2612	26.93174
	78.23266	26.93353
	78.21571	26.95404
	78.20545	26.93888
	78.19029	26.94691
	78.14613	26.95315
	78.13409	26.95717
	78.10822	26.95003
	78.11535	26.93799
	78.11268	26.92728
	78.09528	26.92907
	78.10153	26.90498
	78.09127	26.91167
	78.08681	26.90186
	78.0605	26.91569
	78.04221	26.91524
	78.04801	26.87465
	78.03775	26.87688
	78.02214	26.86083
	78.01634	26.86395
	78.02794	26.87599
	78.01768	26.88224
	78.02169	26.89472
	78.00653	26.91078
	77.99181	26.91078
	77.97531	26.8974
	77.96282	26.91256
	77.94186	26.89963
	77.92892	26.91301
	77.90974	26.91435
	77.90662	26.92416
	77.89993	26.92461
	77.90305	26.90097
	77.89012	26.88937
	77.87139	26.90543
	77.82143	26.92639
	77.81474	26.92282
	77.79913	26.92817
	77.78887	26.92238
	77.77326	26.9362
	77.7577	26.93724
	77.75716	26.9371
	77.75621	26.93698
	77.75567	26.93624
	77.75542	26.93607
	77.7551	26.93588
	77.75459	26.93565
	77.75415	26.93553
	77.75361	26.93546
	77.75331	26.93546
	77.75205	26.9354
	77.75184	26.93537
	77.74427	26.92327
	77.72911	26.92594
	77.71885	26.91658
	77.71082	26.9032
	77.71974	26.89651
	77.71573	26.88134
	77.69789	26.88001
	77.69387	26.87287
	77.67826	26.87822
	77.66444	26.85993
	77.61627	26.84834
	77.60467	26.83273
	77.60021	26.84254
	77.5565	26.82202
	77.52082	26.82202
	77.5119	26.82782
	77.51348	26.84317
	77.50817	26.84402
	77.50782	26.84404
	77.50608	26.8438
	77.50319	26.84315
	77.50101	26.84255
	77.49615	26.84104
	77.48498	26.80138
	77.48498	26.80072
	77.48504	26.79989
	77.48503	26.79795
	77.48505	26.79765
	77.48533	26.79657
	77.48538	26.79626
	77.48545	26.79552
	77.48547	26.79501
	77.48553	26.7943
	77.48554	26.7934
	77.4855	26.79302
	77.48527	26.79192
	77.48523	26.79156
	77.48494	26.79101
	77.485	26.79098
	77.48482	26.7905
	77.4848	26.79051
	77.4846	26.78996
	77.48453	26.78985
	77.48414	26.78956
	77.48407	26.78865
	77.48404	26.78856
	77.48411	26.78753
	77.4841	26.78721
	77.48408	26.78696
	77.48395	26.78641
	77.4839	26.78628
	77.48341	26.78572
	77.49674	26.7743
	77.49317	26.76716
	77.48023	26.75378
	77.44812	26.74665
	77.46418	26.76939
	77.4508	26.78054
	77.43191	26.77186
	77.43179	26.772
	77.43067	26.77558
	77.43006	26.77745
	77.4392	26.81935
	77.41735	26.84299
	77.42627	26.85324
	77.42225	26.86707
	77.43653	26.86796
	77.44188	26.87778
	77.45437	26.87688
	77.45526	26.88937
	77.48246	26.90364
	77.5184	26.9137
	77.51862	26.91316
	77.51885	26.91269
	77.51922	26.91216
	77.51946	26.91191
	77.52091	26.91131
	77.52115	26.91131
	77.52154	26.91135
	77.52188	26.91136
	77.52205	26.91129
	77.52234	26.9112
	77.52254	26.91116
	77.52295	26.91111
	77.52315	26.91111
	77.52348	26.91113
	77.52372	26.91117
	77.52408	26.91126
	77.52485	26.91118
	77.52517	26.91123
	77.5264	26.9115
	77.52688	26.91152
	77.52696	26.91149
	77.5278	26.91141
	77.52798	26.91143
	77.5282	26.91142
	77.5284	26.91143
	77.52865	26.91146
	77.53001	26.91217
	77.53016	26.91238
	77.53145	26.91266
	77.53186	26.91269
	77.53205	26.91272
	77.53246	26.91282
	77.53306	26.91304
	77.53351	26.91316
	77.53396	26.91325
	77.53408	26.91329
	77.53525	26.91415
	77.53529	26.91422
	77.5356	26.91542
	77.53554	26.91583
	77.53543	26.91628
	77.53555	26.91724
	77.53556	26.91764
	77.53554	26.9179
	77.53555	26.91803
	77.53522	26.91841
	77.5797	26.93085
	77.58728	26.94468
	77.59397	26.93754
	77.64883	26.97367
	77.66533	26.96698
	77.67024	26.97724
	77.69209	26.97902
	77.71439	26.99151
	77.73625	26.98839
	77.73981	26.99775
	77.74784	26.99864
	77.74249	27.00623
	77.75498	27.02273
	77.74383	27.02362
	77.73535	27.03388
	77.72197	27.0263
	77.72242	27.00043
	77.70369	27.00043
	77.68183	27.03299
	77.68451	27.04503
	77.67336	27.05172
	77.65686	27.02273
	77.63411	27.02719
	77.62742	27.01559
	77.61538	27.02719
	77.5904	27.03165
	77.58371	27.03923
	77.55739	27.037
	77.56676	27.06019
	77.56587	27.07803
	77.54624	27.08071
	77.52127	27.06733
	77.52044	27.06769
	77.52195	27.07072
	77.52242	27.07148
	77.52266	27.07177
	77.52343	27.07231
	77.52434	27.07286
	77.52486	27.07326
	77.5253	27.07355
	77.52566	27.07386
	77.52587	27.0741
	77.52617	27.07452
	77.52706	27.07631
	77.52717	27.07657
	77.5277	27.07817
	77.52835	27.07991
	77.5286	27.08067
	77.52869	27.08103
	77.52875	27.08153
	77.52877	27.08191
	77.52874	27.0823
	77.52866	27.08279
	77.52848	27.08334
	77.52836	27.08363
	77.52806	27.08422
	77.52773	27.08475
	77.52727	27.08571
	77.5269	27.08635
	77.52675	27.08657
	77.52596	27.0876
	77.52444	27.0895
	77.52406	27.08986
	77.52377	27.09006
	77.52346	27.09024
	77.52305	27.09044
	77.52256	27.09059
	77.52174	27.09075
	77.51984	27.09105
	77.51504	27.09167
	77.5141	27.09172
	77.5137	27.0917
	77.51332	27.09165
	77.51247	27.09132
	77.51214	27.09109
	77.508	27.09227
	77.5085	27.09269
	77.50949	27.09366
	77.51046	27.09451
	77.51082	27.09485
	77.51299	27.09591
	77.5138	27.09633
	77.51421	27.09661
	77.51663	27.09878
	77.51687	27.09903
	77.51826	27.10078
	77.52017	27.10198
	77.52173	27.103
	77.52281	27.10366
	77.52435	27.10472
	77.5252	27.10528
	77.5293	27.10435
	77.54446	27.1155
	77.59085	27.12308
	77.59709	27.12888
	77.59352	27.14806
	77.59638	27.14944
	77.59691	27.1501
	77.59737	27.15056
	77.59779	27.15119
	77.59934	27.15326
	77.60047	27.15495
	77.60141	27.15626
	77.60298	27.15666
	77.60293	27.15689
	77.60303	27.15691
	77.60365	27.15683
	77.60369	27.15686
	77.60427	27.15705
	77.60432	27.15712
	77.60438	27.15716
	77.60424	27.15753
	77.60424	27.15761
	77.60444	27.15848
	77.60515	27.15994
	77.60531	27.16015
	77.60537	27.16034
	77.6058	27.16132
	77.60579	27.16144
	77.60538	27.16197
	77.60571	27.16223
	77.60554	27.16408
	77.60559	27.16412
	77.6059	27.16449
	77.6064	27.1649
	77.60697	27.16533
	77.60725	27.16558
	77.60762	27.16598
	77.6085	27.16681
	77.60933	27.16653
	77.6101	27.1664
	77.61028	27.16641
	77.61167	27.16705
	77.61178	27.16716
	77.61196	27.16747
	77.61323	27.16803
	77.61356	27.16806
	77.61365	27.16811
	77.61356	27.16828
	77.61361	27.16834
	77.61442	27.16852
	77.61447	27.16858
	77.61503	27.16887
	77.61533	27.1691
	77.61557	27.16932
	77.61587	27.16964
	77.61606	27.16979
	77.61638	27.1701
	77.61644	27.17018
	77.61676	27.17038
	77.61742	27.17087
	77.61933	27.17212
	77.62013	27.1726
	77.62079	27.17288
	77.6209	27.1728
	77.62199	27.17245
	77.62222	27.17244
	77.62321	27.17288
	77.63589	27.16991
	77.65463	27.17571
	77.66533	27.18597
	77.67291	27.20024
	77.63946	27.21719
	77.64437	27.23904
	77.63857	27.24083
	77.63901	27.24707
	77.6234	27.26402
	77.6127	27.26045
	77.60646	27.2725
	77.61404	27.27919
	77.59174	27.30059
	77.61359	27.31487
	77.61397	27.33879
	77.61044	27.33915
	77.60519	27.33973
	77.57434	27.32691
	77.54268	27.34252
	77.53911	27.35322
	77.52216	27.35768
	77.49718	27.38132
	77.47577	27.38757
	77.46641	27.38444
	77.43207	27.39916
	77.42671	27.41656
	77.41512	27.42548
	77.42939	27.46205
	77.39638	27.47766
	77.39192	27.50219
	77.38256	27.51646
	77.35223	27.52003
	77.33528	27.52984
	77.33261	27.53876
	77.34019	27.54679
	77.33037	27.57132
	77.35	27.59362
	77.33528	27.60165
	77.32591	27.59675
	77.3112	27.61191
	77.34242	27.65294
	77.34078	27.69463
	77.33037	27.71092
	77.30228	27.71315
	77.29782	27.71851
	77.29648	27.72966
	77.31253	27.73858
	77.30138	27.75642
	77.30406	27.78808
	77.29559	27.79968
	77.27596	27.80637
	77.28979	27.81797
	77.2889	27.82912
	77.31298	27.83001
	77.32725	27.83759
	77.33452	27.84832
	77.33722	27.85003
	77.34323	27.85372
	77.34788	27.85646
	77.35026	27.8568
	77.35327	27.85482
	77.3545	27.85434
	77.35561	27.85428
	77.36503	27.85428
	77.36708	27.85467
	77.3709	27.85682
	77.38487	27.86505
	77.39572	27.87094
	77.40749	27.87681
	77.40965	27.88018
	77.41319	27.88316
	77.41756	27.88954
	77.4194	27.89125
	77.42197	27.89192
	77.42872	27.89173
	77.43165	27.89062
	77.43281	27.89039
	77.43773	27.89047
	77.45003	27.89049
	77.45275	27.89128
	77.45501	27.89275
	77.46802	27.91401
	77.46864	27.9317
	77.47756	27.94017
	77.48469	27.94374
	77.4954	27.93081
	77.51101	27.9375
	77.51904	27.9317
	77.53599	27.94909
	77.53599	27.9656
	77.51502	27.9656
	77.50977	27.97304
	77.51059	27.97348
	77.51122	27.97402
	77.51141	27.97427
	77.51168	27.97477
	77.53509	27.99325
	77.5016	28.02356
	77.50162	28.0268
	77.50155	28.02734
	77.50148	28.0276
	77.50118	28.02823
	77.50105	28.02841
	77.50048	28.02895
	77.50031	28.02905
	77.49955	28.02933
	77.49933	28.02936
	77.49935	28.03044
	77.49932	28.03078
	77.49922	28.03128
	77.49916	28.03147
	77.49887	28.03204
	77.49868	28.0323
	77.49829	28.03271
	77.49799	28.03294
	77.49695	28.03392
	77.49612	28.03461
	77.49562	28.03491
	77.49538	28.03501
	77.49472	28.03517
	77.4943	28.03519
	77.49409	28.03519
	77.49076	28.03504
	77.48913	28.03559
	77.48772	28.03612
	77.4789	28.04409
	77.48291	28.0606
	77.46998	28.08379
	77.47845	28.10787
	77.48603	28.09717
	77.49228	28.09806
	77.49138	28.11278
	77.49986	28.1275
	77.49852	28.13553
	77.48737	28.14133
	77.4954	28.14579
	77.49629	28.16006
	77.53197	28.17032
	77.54223	28.18147
	77.53777	28.19083
	77.50566	28.19529
	77.50164	28.18726
	77.49228	28.18503
	77.48915	28.2118
	77.51904	28.20198
	77.5235	28.20734
	77.51547	28.22964
	77.54134	28.24792
	77.53866	28.25461
	77.51146	28.25461
	77.4673	28.26978
	77.46462	28.27736
	77.47221	28.28137
	77.49272	28.28048
	77.49585	28.30724
	77.46373	28.33802
	77.49406	28.35809
	77.49228	28.36968
	77.48135	28.38253
	77.48119	28.3823
	77.48104	28.38197
	77.47888	28.38081
	77.47866	28.38106
	77.4784	28.38096
	77.47815	28.3816
	77.47722	28.3826
	77.47719	28.38304
	77.47721	28.38449
	77.47715	28.38469
	77.47666	28.38564
	77.47665	28.38571
	77.47633	28.3857
	77.47507	28.3861
	77.47486	28.38626
	77.47427	28.38876
	77.47447	28.38916
	77.47468	28.38949
	77.47504	28.38995
	77.46685	28.39957
	77.47399	28.40403
	77.47444	28.41339
	77.43608	28.43168
	77.42582	28.45443
	77.41824	28.45576
	77.39772	28.45844
	77.39772	28.47137
	77.37587	28.47628
	77.36427	28.48565
	77.3607	28.49769
	77.34574	28.5153
	77.33692	28.52374
	77.29857	28.55716
	77.29391	28.57422
	77.29289	28.57617
	77.29573	28.58256
	77.30017	28.58687
	77.30154	28.58688
	77.30286	28.58666
	77.30442	28.5858
	77.30886	28.58933
	77.31016	28.59074
	77.31114	28.59195
	77.31113	28.59263
	77.31132	28.59312
	77.31198	28.5938
	77.31266	28.59518
	77.31349	28.59581
	77.31318	28.59634
	77.31338	28.59652
	77.31493	28.59697
	77.31712	28.59685
	77.31831	28.59714
	77.31793	28.59908
	77.32047	28.5999
	77.3207	28.59979
	77.3213	28.59938
	77.32172	28.59896
	77.32284	28.59758
	77.3259	28.59818
	77.32671	28.59875
	77.32712	28.59867
	77.32972	28.60041
	77.33168	28.60114
	77.33362	28.60149
	77.33471	28.60194
	77.3356	28.60169
	77.33675	28.6018
	77.33764	28.60244
	77.33842	28.60323
	77.3387	28.60299
	77.33958	28.60413
	77.34029	28.60461
	77.34079	28.60522
	77.34122	28.60514
	77.34162	28.6065
	77.33993	28.60823
	77.33995	28.60835
	77.34166	28.61001
	77.3419	28.61004
	77.34176	28.61361
	77.34169	28.61363
	77.34166	28.61372
	77.34153	28.61377
	77.34201	28.61876
	77.34194	28.61934
	77.34168	28.62019
	77.34143	28.62077
	77.34104	28.62123
	77.34032	28.62181
	77.34017	28.62203
	77.34042	28.62365
	77.3396	28.6241
	77.3386	28.62493
	77.33651	28.62632
	77.33443	28.62773
	77.33377	28.62888
	77.33229	28.62992
	77.33124	28.63132
	77.32967	28.63184
	77.3288	28.63228
	77.3271	28.63292
	77.32601	28.63317
	77.32431	28.63493
	77.32201	28.63679
	77.31608	28.64123
	77.31644	28.64216
	77.31658	28.64238
	77.31737	28.64343
	77.31721	28.64358
	77.31733	28.64415
	77.31747	28.64498
	77.31832	28.64708
	77.31878	28.64815
	77.3194	28.6495
	77.32036	28.65201
	77.32052	28.65319
	77.32167	28.65398
	77.32172	28.65405
	77.32197	28.6546
	77.32201	28.65472
	77.32209	28.65526
	77.32205	28.6565
	77.32212	28.65816
	77.32198	28.65899
	77.32187	28.65927
	77.32103	28.65963
	77.32084	28.6603
	77.32011	28.6601
	77.32013	28.66258
	77.32254	28.66967
	77.32445	28.67124
	77.32505	28.67388
	77.32524	28.67786
	77.32608	28.67825
	77.33007	28.67862
	77.33295	28.68164
	77.33219	28.68289
	77.33073	28.68839
	77.32861	28.69166
	77.32888	28.69186
	77.32925	28.69222
	77.32943	28.69245
	77.33027	28.69312
	77.33075	28.69368
	77.3308	28.69376
	77.33063	28.69601
	77.32847	28.69667
	77.32836	28.69664
	77.3277	28.69629
	77.32667	28.69546
	77.32629	28.69509
	77.32472	28.69727
	77.32486	28.69727
	77.32498	28.69739
	77.32608	28.69864
	77.32659	28.69988
	77.32659	28.69995
	77.32547	28.70175
	77.32588	28.70243
	77.32543	28.70879
	77.32821	28.71148
	77.33111	28.7132
	77.32811	28.71309
	77.32713	28.71335
	77.32628	28.71311
	77.32453	28.71304
	77.32352	28.71217
	77.3225	28.71146
	77.32139	28.71262
	77.32065	28.71293
	77.31724	28.7141
	77.31582	28.71284
	77.31351	28.71344
	77.30442	28.71183
	77.29903	28.7098
	77.29593	28.70509
	77.29228	28.70589
	77.29126	28.70637
	77.28923	28.70838
	77.28732	28.71233
	77.28634	28.71445
	77.2894	28.71717
	77.28973	28.72093
	77.29087	28.72274
	77.28646	28.72499
	77.28435	28.72799
	77.28004	28.73249
	77.27567	28.73556
	77.27359	28.73596
	77.2626	28.73564
	77.26297	28.73821
	77.26299	28.73865
	77.26158	28.74051
	77.25937	28.73977
	77.25929	28.73966
	77.25893	28.73878
	77.25865	28.7369
	77.25583	28.73854
	77.25527	28.741
	77.25568	28.74114
	77.25583	28.74299
	77.25703	28.74497
	77.25779	28.74695
	77.25892	28.74765
	77.25942	28.74868
	77.25959	28.74974
	77.25957	28.75049
	77.25884	28.7512
	77.25861	28.75258
	77.25526	28.75407
	77.25479	28.7558
	77.25364	28.75556
	77.25213	28.75539
	77.25053	28.75517
	77.24839	28.75545
	77.24675	28.75589
	77.24544	28.75651
	77.24409	28.75726
	77.2425	28.75782
	77.24026	28.75817
	77.23805	28.75905
	77.23868	28.76197
	77.23559	28.77126
	77.23348	28.77118
	77.23288	28.77495
	77.22104	28.77916
	77.22803	28.78457
	77.22443	28.78639
	77.2138	28.78439
	77.20728	28.7867
	77.2033	28.79188
	77.2019	28.79387
	77.20002	28.79696
	77.19928	28.80103
	77.19924	28.80453
	77.20212	28.81357
	77.21872	28.81084
	77.21842	28.81347
	77.21936	28.81749
	77.22077	28.81872
	77.22312	28.81963
	77.22325	28.82058
	77.22321	28.82148
	77.22367	28.82232
	77.22312	28.82311
	77.22152	28.82527
	77.22093	28.8267
	77.22092	28.82858
	77.22143	28.83044
	77.22072	28.83278
	77.22048	28.83306
	77.21479	28.84723
	77.215	28.84809
	77.21549	28.85278
	77.21129	28.85646
	77.20908	28.8573
	77.21095	28.86738
	77.21698	28.87732
	77.22641	28.88921
	77.23184	28.89687
	77.23156	28.90422
	77.22611	28.90907
	77.2171	28.91484
	77.2116	28.92509
	77.20909	28.93582
	77.2029	28.94174
	77.20192	28.9462
	77.19929	28.95759
	77.21397	29.00614
	77.16267	29.04851
	77.15732	29.0775
	77.12209	29.1056
	77.13859	29.13459
	77.12655	29.15422
	77.13235	29.17161
	77.13993	29.18187
	77.13814	29.20105
	77.12521	29.22469
	77.1426	29.23762
	77.1426	29.25145
	77.12967	29.27286
	77.14439	29.29605
	77.14216	29.3014
	77.1542	29.31701
	77.15375	29.3353
	77.14662	29.34511
	77.12387	29.34511
	77.11763	29.35715
	77.11674	29.37678
	77.14662	29.38971
	77.12566	29.41067
	77.12476	29.42227
	77.13948	29.44189
	77.12432	29.45304
	77.11451	29.46197
	77.12343	29.48605
	77.11986	29.4972
	77.09756	29.51192
	77.08507	29.53377
	77.08953	29.54448
	77.1096	29.55295
	77.09488	29.58017
	77.10588	29.59694
	77.11869	29.64486
	77.12922	29.65866
	77.13101	29.66624
	77.11897	29.68586
	77.13235	29.69969
	77.1435	29.70593
	77.12253	29.74295
	77.11317	29.74875
	77.11807	29.77551
	77.15242	29.79335
	77.15375	29.81387
	77.16892	29.82948
	77.16758	29.84643
	77.17375	29.85765
	77.17562	29.8622
	77.17635	29.86392
	77.17636	29.86584
	77.17648	29.87146
	77.17851	29.87341
	77.18229	29.87334
	77.18007	29.90619
	77.21129	29.94054
	77.22958	29.96194
	77.23537	29.98112
	77.26303	30.00209
	77.27329	30.0342
	77.27164	30.04299
	77.27186	30.04366
	77.27226	30.04468
	77.2727	30.04588
	77.27315	30.04702
	77.27362	30.04813
	77.27392	30.04844
	77.27408	30.04865
	77.27429	30.04882
	77.27463	30.04904
	77.275	30.04925
	77.27534	30.04948
	77.27569	30.04979
	77.2768	30.0507
	77.27782	30.05159
	77.28008	30.05349
	77.28011	30.0539
	77.28622	30.05739
	77.33171	30.06453
	77.36829	30.09173
	77.39683	30.09575
	77.41423	30.10734
	77.39817	30.11894
	77.41244	30.12786
	77.41779	30.14124
	77.41155	30.14972
	77.42359	30.16845
	77.44678	30.16845
	77.45615	30.18094
	77.4731	30.18852
	77.49585	30.23357
	77.51993	30.26033
	77.54547	30.27347
	77.55494	30.2869
	77.56863	30.29719
	77.57895	30.30133
	77.58417	30.3055
	77.58486	30.32149
	77.58065	30.32479
	77.57974	30.33025
	77.58819	30.34698
	77.59304	30.35265
	77.59509	30.35887
	77.58909	30.3655
	77.58698	30.37909
	77.57479	30.38432
END
END
