India_Tamil Nadu
1
	76.42363	11.65942
	76.45129	11.65496
	76.47359	11.6844
	76.48518	11.68217
	76.50436	11.69822
	76.52488	11.68618
	76.54049	11.67057
	76.55342	11.61303
	76.56011	11.60991
	76.60784	11.60055
	76.7354	11.60545
	76.7461	11.61036
	76.81657	11.59742
	76.83352	11.58717
	76.83709	11.57468
	76.85091	11.60188
	76.8295	11.62954
	76.82861	11.64425
	76.85359	11.69867
	76.8808	11.72454
	76.88793	11.76602
	76.89953	11.78341
	76.93565	11.77672
	76.94458	11.78118
	76.95974	11.76512
	76.9749	11.79099
	76.97267	11.80125
	77.00434	11.80303
	77.03155	11.78386
	77.02218	11.76468
	77.02753	11.76156
	77.04136	11.77761
	77.05652	11.77717
	77.06188	11.77226
	77.05028	11.75754
	77.07392	11.72944
	77.07169	11.72498
	77.09622	11.7232
	77.10915	11.71294
	77.10291	11.76334
	77.12744	11.76111
	77.13725	11.77181
	77.2269	11.78386
	77.23716	11.78832
	77.24162	11.80259
	77.27819	11.78965
	77.28488	11.79857
	77.32591	11.75888
	77.34554	11.76423
	77.35937	11.77895
	77.38211	11.77627
	77.41244	11.76245
	77.41333	11.7513
	77.41913	11.75085
	77.44099	11.79144
	77.45615	11.83916
	77.4508	11.84451
	77.45258	11.88867
	77.47711	11.87618
	77.48425	11.93238
	77.5235	11.92167
	77.54803	11.93059
	77.57345	11.9239
	77.59129	11.92613
	77.64347	11.94397
	77.6466	11.93862
	77.67484	11.95219
	77.67854	11.9749
	77.69364	12.00812
	77.70877	12.0331
	77.7233	12.05647
	77.72693	12.06164
	77.72963	12.06326
	77.7307	12.06364
	77.73109	12.06382
	77.73342	12.06527
	77.73451	12.06548
	77.73672	12.06577
	77.73717	12.06589
	77.73829	12.06632
	77.7387	12.06653
	77.73998	12.0674
	77.74127	12.06776
	77.74197	12.06812
	77.74225	12.06834
	77.74301	12.06977
	77.74305	12.07065
	77.74383	12.07179
	77.75567	12.0789
	77.75668	12.08141
	77.75748	12.08244
	77.75777	12.08297
	77.75845	12.08481
	77.75854	12.08514
	77.75882	12.08672
	77.76375	12.09893
	77.76756	12.10596
	77.77799	12.11043
	77.77847	12.11629
	77.77369	12.12236
	77.75331	12.13242
	77.74762	12.14166
	77.74765	12.1548
	77.73695	12.16641
	77.73354	12.17757
	77.7233	12.18226
	77.70919	12.18226
	77.69508	12.18619
	77.66181	12.19811
	77.65598	12.19968
	77.64044	12.19658
	77.63749	12.19674
	77.6292	12.20207
	77.62245	12.19952
	77.6183	12.20136
	77.61397	12.20442
	77.60775	12.20612
	77.59666	12.19918
	77.5803	12.19807
	77.57482	12.20094
	77.57036	12.20039
	77.56809	12.19627
	77.56397	12.19641
	77.54995	12.20403
	77.54511	12.20472
	77.53756	12.19911
	77.52818	12.19927
	77.52339	12.19756
	77.51915	12.19466
	77.50213	12.19632
	77.49664	12.19765
	77.49312	12.19716
	77.48741	12.20307
	77.48642	12.20404
	77.4784	12.20498
	77.47207	12.20744
	77.47241	12.21015
	77.48275	12.22869
	77.48229	12.23324
	77.47824	12.24003
	77.4736	12.24333
	77.46624	12.2434
	77.46184	12.24796
	77.45988	12.24892
	77.46998	12.26198
	77.47845	12.26956
	77.51815	12.26956
	77.5235	12.28116
	77.54268	12.28384
	77.54535	12.29276
	77.55606	12.29722
	77.56855	12.32398
	77.60646	12.3601
	77.62028	12.40827
	77.61805	12.44306
	77.62519	12.4774
	77.61716	12.48543
	77.59664	12.46447
	77.57524	12.46848
	77.60646	12.4997
	77.57836	12.50684
	77.56988	12.55813
	77.58148	12.58445
	77.58193	12.60496
	77.59798	12.62102
	77.58906	12.64823
	77.5904	12.65759
	77.62338	12.66613
	77.62546	12.66495
	77.62565	12.66501
	77.62616	12.6647
	77.6262	12.66469
	77.62729	12.66473
	77.62786	12.66499
	77.62796	12.66507
	77.62811	12.66516
	77.6281	12.66517
	77.62823	12.66528
	77.62822	12.66529
	77.62833	12.66539
	77.62834	12.66537
	77.62856	12.66552
	77.62881	12.66563
	77.62897	12.66575
	77.62914	12.66577
	77.6293	12.66584
	77.62944	12.66575
	77.6295	12.66574
	77.63013	12.66592
	77.63083	12.66581
	77.63109	12.66598
	77.63143	12.66594
	77.63297	12.66674
	77.63303	12.66681
	77.63307	12.66691
	77.63324	12.6671
	77.63369	12.66745
	77.63376	12.66758
	77.63401	12.66783
	77.63409	12.668
	77.6345	12.66822
	77.63464	12.66833
	77.63463	12.66834
	77.63467	12.66837
	77.63479	12.66838
	77.63532	12.6685
	77.63543	12.66854
	77.63588	12.66886
	77.6359	12.66883
	77.63617	12.66903
	77.63659	12.6694
	77.63677	12.6695
	77.63689	12.66962
	77.63753	12.66979
	77.63772	12.6698
	77.63834	12.67
	77.65418	12.6741
	77.67024	12.67142
	77.66887	12.65863
	77.67039	12.65678
	77.6706	12.65681
	77.67062	12.65665
	77.67057	12.65656
	77.67063	12.65648
	77.67061	12.65629
	77.67044	12.65631
	77.67042	12.65627
	77.67054	12.65627
	77.67054	12.65598
	77.67052	12.6557
	77.67047	12.65539
	77.67016	12.65544
	77.67014	12.65393
	77.66966	12.65393
	77.66964	12.65386
	77.66986	12.65359
	77.67007	12.6534
	77.67043	12.65303
	77.67048	12.653
	77.67107	12.65238
	77.67124	12.65213
	77.67168	12.65156
	77.67216	12.65081
	77.67273	12.65007
	77.67298	12.64981
	77.67826	12.64912
	77.69566	12.65135
	77.70023	12.66405
	77.69975	12.66473
	77.69989	12.66592
	77.70009	12.66723
	77.70025	12.66807
	77.70027	12.66807
	77.7002	12.66832
	77.70017	12.66833
	77.70018	12.6684
	77.7001	12.66871
	77.70011	12.66894
	77.69941	12.66892
	77.69867	12.66896
	77.69778	12.66921
	77.69765	12.66928
	77.6969	12.67001
	77.69686	12.67008
	77.69659	12.67091
	77.69655	12.67133
	77.69832	12.67353
	77.69905	12.67295
	77.69948	12.67292
	77.69981	12.67293
	77.7005	12.67304
	77.70093	12.67306
	77.70148	12.67305
	77.70188	12.67311
	77.70217	12.67311
	77.70243	12.67314
	77.70255	12.67309
	77.70333	12.67267
	77.70369	12.67365
	77.71105	12.67109
	77.711	12.6709
	77.71093	12.67023
	77.71099	12.66977
	77.71102	12.66964
	77.71239	12.6682
	77.71334	12.66813
	77.71349	12.66816
	77.71424	12.66849
	77.71528	12.66294
	77.73134	12.66384
	77.73048	12.66792
	77.73132	12.66915
	77.73177	12.6689
	77.73185	12.66903
	77.73192	12.67004
	77.732	12.67017
	77.73199	12.67025
	77.73193	12.67024
	77.73196	12.67072
	77.73175	12.67117
	77.73164	12.67133
	77.73163	12.67132
	77.73131	12.67185
	77.73064	12.67228
	77.73038	12.67242
	77.72997	12.67258
	77.73001	12.67275
	77.72926	12.67375
	77.72733	12.68302
	77.73357	12.69149
	77.75007	12.68703
	77.76301	12.71468
	77.76161	12.71513
	77.76182	12.71527
	77.7626	12.71652
	77.76262	12.71652
	77.76273	12.71697
	77.76284	12.71726
	77.76298	12.71773
	77.76304	12.71814
	77.76317	12.71851
	77.76327	12.719
	77.76328	12.71913
	77.76334	12.71936
	77.76362	12.71981
	77.76389	12.72039
	77.76397	12.72066
	77.76411	12.72099
	77.76432	12.72199
	77.7643	12.72253
	77.76412	12.72338
	77.76404	12.72367
	77.76399	12.72381
	77.76351	12.72454
	77.7634	12.72464
	77.76248	12.72516
	77.76195	12.72524
	77.7615	12.72523
	77.76113	12.72519
	77.76096	12.72515
	77.76068	12.72507
	77.76008	12.72477
	77.75997	12.72469
	77.75944	12.7241
	77.75907	12.72352
	77.75893	12.72325
	77.7588	12.72295
	77.75867	12.72251
	77.75844	12.72199
	77.75833	12.7216
	77.75815	12.72153
	77.75762	12.72115
	77.75657	12.72048
	77.75653	12.72043
	77.75628	12.71994
	77.75583	12.71961
	77.75565	12.71943
	77.75551	12.71935
	77.75502	12.719
	77.75475	12.71884
	77.75449	12.71864
	77.75422	12.71839
	77.75395	12.71809
	77.75388	12.71798
	77.75356	12.71778
	77.75351	12.71772
	77.75186	12.71825
	77.75319	12.72494
	77.78308	12.73877
	77.78486	12.74501
	77.77371	12.75126
	77.77148	12.75973
	77.78146	12.76941
	77.78244	12.7707
	77.7829	12.77032
	77.78327	12.77079
	77.78371	12.77142
	77.78513	12.77305
	77.78646	12.7756
	77.78728	12.77684
	77.78786	12.77717
	77.78859	12.77742
	77.78929	12.77754
	77.7911	12.78018
	77.79088	12.78048
	77.79166	12.78157
	77.79197	12.7821
	77.79254	12.7832
	77.79352	12.78563
	77.79402	12.78671
	77.79473	12.78711
	77.79565	12.78747
	77.7964	12.78807
	77.79698	12.78925
	77.79732	12.79111
	77.79792	12.79247
	77.79839	12.79399
	77.79846	12.79452
	77.79912	12.79542
	77.79953	12.79581
	77.79975	12.7959
	77.79996	12.79575
	77.80003	12.79508
	77.8002	12.79462
	77.80045	12.79456
	77.80073	12.79523
	77.80093	12.7959
	77.80129	12.79623
	77.80164	12.79636
	77.80232	12.7964
	77.80276	12.79628
	77.80314	12.79581
	77.80386	12.79482
	77.80436	12.79425
	77.80489	12.79423
	77.80548	12.79439
	77.8062	12.79444
	77.8068	12.79419
	77.80775	12.79322
	77.80796	12.7933
	77.80807	12.79383
	77.80833	12.79422
	77.80872	12.79433
	77.80919	12.7959
	77.80958	12.79587
	77.80941	12.79662
	77.8088	12.79647
	77.80807	12.79759
	77.80796	12.79791
	77.8061	12.79847
	77.80563	12.80169
	77.80524	12.80188
	77.80483	12.8019
	77.80462	12.80262
	77.80449	12.80375
	77.80101	12.80429
	77.80166	12.80783
	77.80348	12.81496
	77.80657	12.81504
	77.80978	12.81503
	77.80876	12.81973
	77.80857	12.82147
	77.8085	12.82276
	77.80893	12.82448
	77.80957	12.82676
	77.81009	12.82789
	77.81099	12.8303
	77.80633	12.83182
	77.80417	12.83272
	77.80194	12.8335
	77.79917	12.83381
	77.7961	12.83444
	77.79571	12.83471
	77.7937	12.8395
	77.79325	12.84042
	77.79271	12.84182
	77.79245	12.84254
	77.79271	12.84341
	77.79349	12.84424
	77.79492	12.84538
	77.79673	12.84485
	77.799	12.85182
	77.80246	12.85056
	77.80665	12.84838
	77.8073	12.84816
	77.80778	12.84794
	77.80854	12.84812
	77.80942	12.84894
	77.80979	12.84919
	77.8106	12.85172
	77.81208	12.85327
	77.81524	12.85569
	77.81582	12.85689
	77.8208	12.85687
	77.82319	12.8566
	77.82573	12.86038
	77.83691	12.85938
	77.83717	12.85975
	77.838	12.86042
	77.83822	12.86052
	77.83841	12.86058
	77.83854	12.8607
	77.83904	12.86099
	77.83929	12.861
	77.83979	12.86142
	77.8401	12.86143
	77.84107	12.86193
	77.84117	12.86195
	77.84154	12.86197
	77.84243	12.86176
	77.84296	12.8615
	77.84317	12.86138
	77.84362	12.86118
	77.84395	12.86098
	77.8443	12.86071
	77.84439	12.86059
	77.84457	12.86047
	77.84488	12.86019
	77.84515	12.86002
	77.84542	12.85982
	77.84578	12.85951
	77.84625	12.85882
	77.8467	12.8585
	77.8589	12.85741
	77.88209	12.8583
	77.88744	12.86677
	77.92446	12.87792
	77.92892	12.87123
	77.91822	12.869
	77.91956	12.86365
	77.93338	12.86187
	77.93427	12.85607
	77.91554	12.84447
	77.91092	12.82096
	77.91152	12.82074
	77.91254	12.82048
	77.91489	12.81983
	77.91607	12.81959
	77.91794	12.81942
	77.91845	12.8193
	77.92073	12.81845
	77.92208	12.81803
	77.92233	12.81797
	77.92401	12.81776
	77.92422	12.81772
	77.92638	12.81721
	77.92977	12.81611
	77.93161	12.81575
	77.93343	12.81552
	77.93399	12.81537
	77.93403	12.81534
	77.94007	12.82931
	77.93338	12.84492
	77.94542	12.84938
	77.94676	12.83823
	77.95791	12.83644
	77.95747	12.82172
	77.97129	12.82262
	77.98155	12.81057
	77.98155	12.79586
	78.00162	12.79541
	78.00564	12.80344
	78.0004	12.81443
	78.00697	12.81994
	78.0092	12.83377
	78.01679	12.83332
	78.015	12.84581
	78.03998	12.83823
	78.04667	12.84224
	78.05158	12.83243
	78.06451	12.8302
	78.06585	12.81905
	78.07611	12.82039
	78.08636	12.80344
	78.11446	12.78694
	78.12071	12.76999
	78.22061	12.75259
	78.2273	12.71513
	78.22017	12.70309
	78.19608	12.69684
	78.19921	12.69015
	78.18984	12.68123
	78.2282	12.67365
	78.2273	12.68926
	78.23266	12.69372
	78.26432	12.69194
	78.29064	12.65313
	78.30892	12.65001
	78.36824	12.61165
	78.39768	12.61344
	78.4182	12.62057
	78.42489	12.61478
	78.45477	12.6121
	78.45968	12.61745
	78.4628	12.63529
	78.45745	12.66205
	78.48867	12.66339
	78.49714	12.67633
	78.48644	12.6906
	78.49313	12.69372
	78.49357	12.70353
	78.50383	12.69327
	78.51052	12.70175
	78.49357	12.71111
	78.47975	12.72985
	78.48421	12.73475
	78.49446	12.73029
	78.50338	12.71334
	78.51097	12.72182
	78.51231	12.70799
	78.52658	12.7013
	78.51855	12.69238
	78.52435	12.67989
	78.54754	12.68569
	78.54531	12.69238
	78.55245	12.69729
	78.54531	12.70755
	78.55378	12.72628
	78.54576	12.72851
	78.55022	12.73877
	78.54576	12.74412
	78.56672	12.75215
	78.56583	12.75884
	78.58188	12.77088
	78.58813	12.80478
	78.59749	12.81102
	78.5917	12.83867
	78.60463	12.85741
	78.62559	12.9194
	78.64655	12.91896
	78.62916	12.9533
	78.63808	12.95419
	78.61355	12.97872
	78.63719	12.99701
	78.65101	13.01797
	78.69383	13.00459
	78.70231	13.05633
	78.74602	13.04562
	78.77768	13.0532
	78.80801	13.07774
	78.8321	13.06971
	78.85841	13.07105
	78.86465	13.08487
	78.87625	13.08621
	78.88339	13.0822
	78.88205	13.01975
	78.91595	13.02288
	78.92442	13.01886
	78.92843	13.02154
	78.91728	13.03269
	78.89365	13.03492
	78.90078	13.05231
	78.90881	13.05053
	78.91416	13.06792
	78.93646	13.07015
	78.94583	13.06346
	78.97973	13.0764
	79.00024	13.05767
	79.02299	13.05633
	79.02566	13.04964
	79.05332	13.03804
	79.05376	13.02823
	79.06893	13.01396
	79.08275	13.01262
	79.10416	13.02421
	79.15278	13.00727
	79.17329	13.01931
	79.17642	13.03849
	79.16928	13.0532
	79.17909	13.05989
	79.1889	13.08443
	79.20764	13.09156
	79.21834	13.10405
	79.22236	13.11609
	79.21477	13.12769
	79.21834	13.13572
	79.23663	13.1268
	79.24733	13.14821
	79.25625	13.13661
	79.27142	13.13795
	79.27365	13.121
	79.2848	13.12278
	79.29862	13.11475
	79.29729	13.09736
	79.30799	13.09691
	79.31691	13.11921
	79.35437	13.12992
	79.34679	13.13482
	79.34768	13.16292
	79.36106	13.15623
	79.37088	13.16872
	79.36909	13.1763
	79.37846	13.18255
	79.42038	13.18433
	79.42172	13.20842
	79.44536	13.21689
	79.44443	13.22061
	79.44591	13.22209
	79.4439	13.22409
	79.44356	13.22409
	79.44224	13.22938
	79.43599	13.22983
	79.42644	13.223
	79.42614	13.22302
	79.42484	13.22305
	79.4244	13.22302
	79.42394	13.22291
	79.42355	13.22275
	79.42283	13.2224
	79.42151	13.22179
	79.41963	13.22094
	79.41894	13.22059
	79.41843	13.22036
	79.41791	13.2203
	79.41737	13.2202
	79.41667	13.22011
	79.4158	13.22003
	79.41481	13.21997
	79.41435	13.21998
	79.4119	13.2201
	79.41139	13.22005
	79.41101	13.21994
	79.41052	13.21974
	79.40879	13.24677
	79.42484	13.28156
	79.42172	13.28647
	79.40522	13.28558
	79.37445	13.30297
	79.41726	13.32215
	79.45473	13.32438
	79.5359	13.311
	79.54884	13.26729
	79.56534	13.24945
	79.58006	13.24544
	79.58853	13.2606
	79.60102	13.26774
	79.62064	13.25882
	79.62956	13.26105
	79.63848	13.27621
	79.66257	13.26818
	79.66837	13.28201
	79.68442	13.25659
	79.67372	13.24722
	79.67327	13.22938
	79.68085	13.22849
	79.69201	13.23875
	79.69602	13.23384
	79.68888	13.20752
	79.69959	13.20262
	79.72278	13.2218
	79.74419	13.19504
	79.78478	13.22358
	79.72189	13.26595
	79.72144	13.2722
	79.74597	13.27978
	79.754	13.30297
	79.77987	13.28201
	79.80039	13.30431
	79.85123	13.30342
	79.85881	13.31368
	79.87041	13.31189
	79.89182	13.32483
	79.91055	13.34356
	79.92572	13.33598
	79.93999	13.35828
	79.93954	13.36898
	79.94802	13.3672
	79.95337	13.37433
	79.95025	13.38192
	79.93553	13.38504
	79.93241	13.40422
	79.96318	13.41804
	79.96184	13.45149
	79.98726	13.46175
	79.99529	13.45952
	80.006	13.48762
	80.03588	13.4845
	80.03276	13.50189
	80.01358	13.50412
	80.00644	13.51527
	79.99822	13.51205
	79.99039	13.50992
	79.9895	13.52687
	80.00778	13.53222
	80.02964	13.52375
	80.04525	13.52196
	80.05104	13.53044
	80.06933	13.53757
	80.07602	13.52687
	80.08673	13.52731
	80.10055	13.50501
	80.12776	13.49877
	80.15229	13.4787
	80.19421	13.47602
	80.21161	13.48227
	80.24105	13.47023
	80.25899	13.44843
	80.25905	13.447
	80.25908	13.44668
	80.2602	13.44104
	80.26044	13.4404
	80.26115	13.43923
	80.26153	13.43876
	80.26194	13.43839
	80.26153	13.43685
	80.2616	13.43559
	80.26163	13.4355
	80.26147	13.43443
	80.26052	13.43393
	80.25946	13.43195
	80.25976	13.42911
	80.25879	13.42802
	80.25837	13.42727
	80.25768	13.42502
	80.25961	13.42243
	80.264	13.42245
	80.26597	13.42204
	80.26781	13.41447
	80.27806	13.40734
	80.27583	13.38905
	80.31196	13.36943
	80.31642	13.37656
	80.31524	13.38587
	80.3151	13.38586
	80.3151	13.38591
	80.31371	13.3861
	80.31366	13.38613
	80.31272	13.38771
	80.31271	13.38778
	80.31243	13.38812
	80.31228	13.3884
	80.31205	13.38905
	80.31194	13.38975
	80.31137	13.39109
	80.31123	13.39154
	80.31116	13.39226
	80.31119	13.39269
	80.31133	13.39386
	80.3114	13.39419
	80.31143	13.39427
	80.31162	13.39523
	80.31101	13.39537
	80.30898	13.39577
	80.30881	13.39579
	80.3071	13.39805
	80.30936	13.39975
	80.30959	13.39972
	80.31187	13.39928
	80.31359	13.39889
	80.31048	13.42343
	80.31407	13.42849
	80.31882	13.43502
	80.32579	13.44391
	80.32655	13.44403
	80.68273	13.45353
	80.03964	10.09642
	79.66744	9.973178
	79.55982	9.923231
	79.37812	9.666501
	79.39594	9.548786
	79.48746	9.423559
	79.4504	9.146681
	79.37485	8.98419
	79.06914	9.022255
	78.73928	8.932569
	78.54484	8.847432
	78.46298	8.350901
	78.36123	8.160452
	78.10363	8.040961
	77.66766	7.858643
	76.92132	8.096045
	77.09087	8.297385
	77.10469	8.301399
	77.10068	8.311657
	77.12209	8.322808
	77.14974	8.321916
	77.15846	8.313588
	77.15855	8.313741
	77.15785	8.315395
	77.1577	8.316042
	77.15765	8.316747
	77.15775	8.317517
	77.15784	8.317792
	77.15832	8.318561
	77.15861	8.31886
	77.1592	8.319267
	77.16061	8.319915
	77.15108	8.330836
	77.15465	8.351352
	77.15292	8.352109
	77.14305	8.362057
	77.13502	8.378559
	77.14082	8.383019
	77.15375	8.377221
	77.17962	8.408888
	77.18854	8.434757
	77.20827	8.439089
	77.22506	8.446017
	77.22287	8.450152
	77.21285	8.456655
	77.20906	8.465773
	77.20904	8.473133
	77.20618	8.478592
	77.20741	8.482675
	77.2103	8.486304
	77.20798	8.494672
	77.19881	8.505697
	77.20785	8.509354
	77.21116	8.515073
	77.21587	8.512577
	77.22358	8.511588
	77.23081	8.507586
	77.23741	8.502049
	77.23934	8.498876
	77.24135	8.499407
	77.24279	8.501489
	77.24522	8.50182
	77.25016	8.504466
	77.2535	8.506007
	77.25645	8.50523
	77.25743	8.506657
	77.26019	8.505605
	77.26191	8.505121
	77.26344	8.507134
	77.26417	8.509455
	77.2645	8.512454
	77.26575	8.513339
	77.26587	8.515025
	77.26574	8.517991
	77.26818	8.520912
	77.26821	8.522746
	77.26907	8.525783
	77.27014	8.529449
	77.27112	8.530806
	77.27409	8.533937
	77.27512	8.536205
	77.27987	8.53907
	77.28003	8.540915
	77.28113	8.544939
	77.2819	8.54807
	77.28169	8.550788
	77.28042	8.551884
	77.27862	8.553957
	77.27726	8.556679
	77.27609	8.558924
	77.27666	8.561635
	77.27802	8.563436
	77.27872	8.565212
	77.27748	8.567491
	77.2749	8.570191
	77.27303	8.575369
	77.2706	8.578382
	77.2672	8.581075
	77.26779	8.585318
	77.2662	8.586789
	77.26211	8.590141
	77.2588	8.590147
	77.25749	8.590741
	77.25784	8.592708
	77.25687	8.595167
	77.25536	8.59793
	77.2533	8.598358
	77.25113	8.599139
	77.24922	8.601286
	77.24631	8.603546
	77.24594	8.606582
	77.24441	8.608362
	77.24404	8.610316
	77.24434	8.611602
	77.2457	8.614158
	77.24568	8.615543
	77.24626	8.616706
	77.24466	8.618764
	77.24343	8.620495
	77.24153	8.621844
	77.23917	8.624676
	77.23856	8.628868
	77.23635	8.630774
	77.23436	8.63061
	77.23229	8.632216
	77.2324	8.634075
	77.23062	8.637144
	77.22585	8.638731
	77.2223	8.642687
	77.21899	8.646279
	77.21561	8.648245
	77.21359	8.650963
	77.21165	8.655547
	77.21158	8.658364
	77.21268	8.660816
	77.20743	8.66385
	77.20338	8.666325
	77.20016	8.669026
	77.20172	8.671374
	77.20345	8.671817
	77.20757	8.6726
	77.20693	8.675561
	77.20727	8.678202
	77.20697	8.682449
	77.20586	8.686452
	77.20037	8.691101
	77.19761	8.695967
	77.19703	8.700285
	77.19607	8.703073
	77.19534	8.707395
	77.19306	8.70996
	77.18968	8.712204
	77.18574	8.713213
	77.18499	8.715247
	77.18308	8.716931
	77.18029	8.720431
	77.17973	8.723636
	77.18224	8.727335
	77.17898	8.730777
	77.17517	8.737033
	77.17827	8.73967
	77.1817	8.741788
	77.18898	8.743771
	77.19607	8.745882
	77.1978	8.748342
	77.19808	8.751489
	77.19824	8.754587
	77.19722	8.75899
	77.19632	8.767774
	77.19846	8.769386
	77.20483	8.768656
	77.20886	8.765904
	77.2171	8.767488
	77.21909	8.769823
	77.21677	8.773735
	77.21899	8.776501
	77.22049	8.780015
	77.22279	8.782913
	77.22565	8.783448
	77.22762	8.784822
	77.2292	8.786788
	77.23117	8.796873
	77.23429	8.806746
	77.2423	8.809486
	77.24573	8.812684
	77.24732	8.817319
	77.24941	8.824918
	77.25397	8.831903
	77.25798	8.837581
	77.2588	8.843789
	77.25828	8.849789
	77.25937	8.854505
	77.25774	8.857411
	77.25846	8.864596
	77.25753	8.867577
	77.2571	8.873484
	77.2559	8.878102
	77.25204	8.879391
	77.24386	8.880586
	77.23812	8.885475
	77.23791	8.890084
	77.23876	8.892954
	77.24071	8.895011
	77.23886	8.897661
	77.23903	8.899238
	77.23991	8.902855
	77.2386	8.903652
	77.23185	8.902397
	77.22634	8.904177
	77.22095	8.903245
	77.22024	8.906784
	77.21998	8.910423
	77.21864	8.914035
	77.21777	8.918999
	77.21519	8.921683
	77.21181	8.92357
	77.20567	8.925656
	77.20117	8.924273
	77.19567	8.923604
	77.19061	8.927474
	77.19202	8.930641
	77.19572	8.932401
	77.19675	8.934618
	77.19572	8.938921
	77.19472	8.940354
	77.19482	8.943194
	77.19539	8.946798
	77.19759	8.951041
	77.19549	8.95456
	77.19325	8.958375
	77.19104	8.959524
	77.19065	8.96531
	77.18819	8.966798
	77.18501	8.970596
	77.18117	8.968812
	77.17767	8.96941
	77.17695	8.974335
	77.17566	8.979045
	77.17565	8.981876
	77.17678	8.984513
	77.17578	8.986217
	77.17434	8.987802
	77.17354	8.99121
	77.17029	8.992376
	77.16687	8.992465
	77.16336	8.995229
	77.16044	8.997166
	77.15879	9.000057
	77.15782	9.002138
	77.15574	9.004122
	77.15421	9.007309
	77.14986	9.010077
	77.15095	9.012518
	77.15111	9.016566
	77.15207	9.020097
	77.15563	9.023305
	77.15794	9.026437
	77.16227	9.03026
	77.16186	9.033316
	77.16025	9.035838
	77.16338	9.038394
	77.16443	9.041288
	77.167	9.044501
	77.16958	9.046768
	77.17427	9.04843
	77.17657	9.046908
	77.18093	9.047285
	77.18495	9.045925
	77.18667	9.043289
	77.19016	9.043848
	77.19256	9.045175
	77.19705	9.047052
	77.19566	9.049214
	77.19559	9.052401
	77.19683	9.057584
	77.20139	9.062004
	77.20461	9.065564
	77.20716	9.069624
	77.20775	9.071128
	77.20815	9.072989
	77.20785	9.077133
	77.20551	9.081875
	77.20648	9.086698
	77.20962	9.090372
	77.21052	9.095313
	77.21199	9.100996
	77.21409	9.099873
	77.21688	9.101254
	77.21853	9.103407
	77.22161	9.106538
	77.22396	9.10711
	77.22697	9.109153
	77.22819	9.114191
	77.23048	9.117415
	77.23477	9.119377
	77.23921	9.121598
	77.24156	9.125106
	77.24693	9.124831
	77.24941	9.12964
	77.25117	9.133551
	77.25287	9.138801
	77.25703	9.142682
	77.25948	9.143796
	77.25982	9.145567
	77.26068	9.148164
	77.2637	9.15113
	77.26714	9.153935
	77.26563	9.156375
	77.26587	9.160545
	77.26491	9.162968
	77.26694	9.16865
	77.26754	9.173585
	77.26578	9.176415
	77.26509	9.181838
	77.26273	9.182723
	77.25548	9.186545
	77.25202	9.188561
	77.25277	9.191451
	77.25441	9.193226
	77.25596	9.196462
	77.25665	9.19958
	77.25968	9.198288
	77.26398	9.198708
	77.26624	9.20022
	77.26968	9.200995
	77.27077	9.201944
	77.27054	9.204888
	77.27893	9.215038
	77.28185	9.216962
	77.28171	9.220244
	77.27918	9.221956
	77.27834	9.223642
	77.27717	9.226832
	77.27514	9.230339
	77.27459	9.232969
	77.2741	9.23549
	77.27818	9.238074
	77.27929	9.241674
	77.27919	9.244182
	77.27779	9.247168
	77.2784	9.250044
	77.27954	9.25206
	77.28185	9.254712
	77.28277	9.257291
	77.28282	9.259685
	77.28162	9.262815
	77.283	9.266288
	77.283	9.269947
	77.28242	9.272527
	77.28271	9.273062
	77.28352	9.273444
	77.28483	9.274121
	77.28734	9.274267
	77.28844	9.274693
	77.28818	9.280717
	77.28511	9.285906
	77.28386	9.289955
	77.28304	9.29098
	77.28328	9.293159
	77.28237	9.298269
	77.28329	9.30039
	77.2852	9.301161
	77.28908	9.302152
	77.2912	9.303988
	77.29447	9.305349
	77.29624	9.30859
	77.29878	9.310415
	77.29974	9.312727
	77.30093	9.316316
	77.30289	9.318897
	77.30225	9.323573
	77.29889	9.327977
	77.30343	9.32774
	77.30063	9.332347
	77.30075	9.335163
	77.30169	9.337405
	77.30328	9.338796
	77.30608	9.338389
	77.3101	9.337176
	77.31449	9.335921
	77.31764	9.336321
	77.32004	9.338307
	77.32288	9.337612
	77.32506	9.336645
	77.32479	9.340878
	77.32495	9.34392
	77.32525	9.346239
	77.3288	9.349891
	77.33071	9.352607
	77.33283	9.356611
	77.33713	9.365067
	77.33729	9.368374
	77.33564	9.372284
	77.33567	9.374616
	77.3338	9.377808
	77.33409	9.380717
	77.33533	9.384486
	77.33764	9.385165
	77.33784	9.388214
	77.34069	9.39018
	77.3393	9.393997
	77.33996	9.395695
	77.34269	9.403259
	77.33879	9.407361
	77.33693	9.409014
	77.33598	9.410945
	77.33661	9.41469
	77.33911	9.420253
	77.34354	9.423653
	77.34526	9.427218
	77.34801	9.434277
	77.34905	9.439482
	77.35194	9.444613
	77.35739	9.447938
	77.35796	9.453426
	77.36661	9.460373
	77.37552	9.457533
	77.37825	9.454807
	77.38648	9.455662
	77.39331	9.459861
	77.39234	9.465495
	77.39152	9.468069
	77.39774	9.471054
	77.39875	9.474482
	77.40126	9.477246
	77.39899	9.480008
	77.39903	9.484417
	77.39772	9.487041
	77.39833	9.492216
	77.3997	9.49683
	77.40505	9.503555
	77.40797	9.505913
	77.41135	9.507045
	77.41194	9.510552
	77.40959	9.512048
	77.40541	9.514594
	77.40283	9.516384
	77.40076	9.519163
	77.40206	9.521677
	77.40207	9.5218
	77.4027	9.524322
	77.40043	9.527913
	77.39316	9.522549
	77.38565	9.519127
	77.37977	9.526303
	77.37643	9.525152
	77.37315	9.526603
	77.37271	9.530656
	77.36543	9.535214
	77.36488	9.541721
	77.3642	9.544897
	77.36511	9.549957
	77.35259	9.561038
	77.3514	9.567494
	77.35301	9.572796
	77.35527	9.573591
	77.35798	9.574611
	77.35943	9.576292
	77.35996	9.578374
	77.35866	9.581185
	77.35873	9.580847
	77.3574	9.584585
	77.35509	9.58652
	77.35591	9.58985
	77.35772	9.593972
	77.3602	9.597835
	77.36238	9.596248
	77.36483	9.595583
	77.36618	9.598677
	77.3551	9.604047
	77.34926	9.594278
	77.34765	9.590678
	77.34503	9.586626
	77.3425	9.581793
	77.34114	9.576649
	77.339	9.573552
	77.33147	9.576897
	77.32426	9.581653
	77.32587	9.583824
	77.32589	9.590406
	77.32474	9.593847
	77.32685	9.596995
	77.32904	9.598173
	77.3306	9.59907
	77.32937	9.599519
	77.32699	9.598654
	77.32498	9.598042
	77.32297	9.598294
	77.32123	9.598823
	77.31783	9.602557
	77.31511	9.600829
	77.31106	9.600854
	77.30639	9.599075
	77.3042	9.59951
	77.30126	9.596348
	77.30004	9.594543
	77.29601	9.590851
	77.2932	9.58894
	77.28966	9.589213
	77.2893	9.585066
	77.28694	9.582237
	77.28112	9.579358
	77.27684	9.574978
	77.27264	9.575575
	77.26987	9.573344
	77.26412	9.573626
	77.26201	9.576804
	77.25967	9.581827
	77.25625	9.583515
	77.25083	9.582936
	77.24772	9.583991
	77.24296	9.584527
	77.23711	9.580892
	77.23049	9.584615
	77.22506	9.5908
	77.22184	9.598607
	77.21614	9.600742
	77.21264	9.60207
	77.21089	9.604013
	77.20977	9.606078
	77.21033	9.610275
	77.20914	9.613567
	77.20703	9.613258
	77.20497	9.613481
	77.20299	9.614558
	77.20262	9.614636
	77.20079	9.614591
	77.19815	9.61418
	77.19726	9.611185
	77.19337	9.610303
	77.19315	9.610062
	77.18914	9.608011
	77.1863	9.607766
	77.18223	9.609731
	77.17789	9.610176
	77.17316	9.611536
	77.16816	9.614947
	77.16937	9.619464
	77.16887	9.622679
	77.16996	9.625162
	77.1733	9.626681
	77.17516	9.626489
	77.17531	9.628933
	77.17406	9.633057
	77.17543	9.636715
	77.17689	9.640249
	77.17729	9.648118
	77.17963	9.656415
	77.18193	9.660277
	77.18748	9.667342
	77.19388	9.673092
	77.19958	9.68434
	77.20553	9.694392
	77.20838	9.70583
	77.20622	9.711786
	77.20817	9.7215
	77.20916	9.722809
	77.20992	9.722807
	77.21055	9.723014
	77.2109	9.723068
	77.2116	9.723129
	77.21176	9.723123
	77.21197	9.723039
	77.21231	9.722932
	77.21281	9.722842
	77.21298	9.722833
	77.21392	9.723008
	77.2141	9.723092
	77.21449	9.723327
	77.21497	9.723694
	77.21581	9.724423
	77.21601	9.724623
	77.21686	9.725586
	77.21735	9.726251
	77.2177	9.726556
	77.2181	9.726943
	77.21885	9.727405
	77.21893	9.727501
	77.21933	9.728167
	77.22348	9.730529
	77.21962	9.737017
	77.21984	9.744157
	77.21993	9.744406
	77.22193	9.744928
	77.22122	9.747665
	77.22115	9.747708
	77.22198	9.749973
	77.23189	9.758258
	77.23003	9.769813
	77.23085	9.777011
	77.23404	9.788401
	77.24021	9.797649
	77.24659	9.798863
	77.24656	9.808411
	77.24122	9.816543
	77.2355	9.816725
	77.23299	9.821871
	77.22567	9.821148
	77.22277	9.82317
	77.22475	9.829195
	77.2271	9.838291
	77.22264	9.844862
	77.22706	9.847838
	77.23051	9.849931
	77.23612	9.84958
	77.23673	9.854599
	77.23646	9.859462
	77.23305	9.86136
	77.23001	9.860899
	77.22194	9.862954
	77.21609	9.871178
	77.21305	9.875486
	77.21379	9.878687
	77.21802	9.884724
	77.22104	9.885329
	77.2174	9.898287
	77.22238	9.907588
	77.22924	9.911984
	77.23697	9.936165
	77.24621	9.945747
	77.24834	9.951771
	77.25583	9.95243
	77.26096	9.953728
	77.26797	9.96115
	77.27231	9.964041
	77.27128	9.972545
	77.27015	9.975622
	77.26568	9.982858
	77.26407	9.986823
	77.26459	9.990069
	77.25924	9.991713
	77.25908	9.994502
	77.26177	9.997811
	77.26515	10.00206
	77.25812	10.00824
	77.25793	10.01474
	77.26186	10.01951
	77.26186	10.01992
	77.26076	10.0199
	77.26052	10.02013
	77.26001	10.02093
	77.25995	10.0211
	77.26066	10.02336
	77.26185	10.02336
	77.26184	10.03015
	77.2562	10.03568
	77.25218	10.03989
	77.24904	10.04524
	77.24472	10.05189
	77.23752	10.05765
	77.23296	10.0601
	77.22944	10.06323
	77.22921	10.06674
	77.22405	10.06889
	77.22133	10.07403
	77.21976	10.07801
	77.2146	10.07998
	77.21136	10.08192
	77.2066	10.08545
	77.20464	10.08742
	77.20252	10.08944
	77.20316	10.09329
	77.20307	10.09764
	77.20301	10.10381
	77.20198	10.10582
	77.20355	10.1088
	77.20426	10.11207
	77.20884	10.11766
	77.21185	10.11781
	77.21599	10.11598
	77.21869	10.1182
	77.22335	10.11868
	77.22615	10.1207
	77.23028	10.1224
	77.23352	10.12555
	77.23526	10.12641
	77.2355	10.12633
	77.2363	10.12586
	77.23683	10.12576
	77.23692	10.12576
	77.23781	10.12591
	77.23791	10.12595
	77.23812	10.1261
	77.23818	10.12603
	77.23859	10.12567
	77.23867	10.12562
	77.2394	10.12533
	77.23958	10.12514
	77.23997	10.1249
	77.23993	10.12468
	77.23998	10.12378
	77.24	10.12371
	77.24111	10.12243
	77.24117	10.1224
	77.24167	10.12225
	77.24177	10.12224
	77.24222	10.12221
	77.24272	10.12225
	77.243	10.12231
	77.24388	10.12256
	77.24424	10.12272
	77.2443	10.12266
	77.24446	10.12244
	77.24454	10.12237
	77.24463	10.12221
	77.24486	10.12188
	77.24513	10.12156
	77.24583	10.12104
	77.24624	10.12083
	77.24736	10.12056
	77.24752	10.12057
	77.24869	10.12104
	77.24894	10.12124
	77.24943	10.12169
	77.25029	10.12194
	77.25147	10.12289
	77.2516	10.12312
	77.25166	10.12376
	77.25298	10.1249
	77.2564	10.12431
	77.26169	10.12306
	77.26769	10.12222
	77.26813	10.1262
	77.27247	10.12874
	77.27474	10.13072
	77.27453	10.13599
	77.27459	10.13869
	77.27281	10.14045
	77.27252	10.14544
	77.27399	10.14876
	77.27393	10.15593
	77.27349	10.16331
	77.27539	10.17559
	77.27557	10.18407
	77.27574	10.1887
	77.27909	10.19518
	77.28054	10.20027
	77.27949	10.204
	77.28042	10.20721
	77.27462	10.22059
	77.25544	10.22549
	77.24652	10.22059
	77.24474	10.24512
	77.25054	10.25359
	77.21441	10.30577
	77.23655	10.35242
	77.22983	10.35272
	77.22186	10.35391
	77.21399	10.3534
	77.20639	10.35368
	77.20428	10.3547
	77.20385	10.35653
	77.20146	10.35783
	77.19735	10.35647
	77.19722	10.3548
	77.19401	10.35491
	77.19089	10.35562
	77.18846	10.35532
	77.17683	10.35777
	77.16927	10.35287
	77.16373	10.34765
	77.15847	10.34414
	77.14943	10.33576
	77.14448	10.33431
	77.13829	10.33141
	77.11964	10.31782
	77.09984	10.31363
	77.09501	10.30903
	77.09399	10.31036
	77.09036	10.31397
	77.08874	10.31196
	77.08513	10.30842
	77.08162	10.30588
	77.0718	10.29931
	77.06496	10.29751
	77.06395	10.29485
	77.06367	10.29383
	77.06317	10.29317
	77.06266	10.2924
	77.06241	10.29167
	77.06141	10.29129
	77.06068	10.29081
	77.05976	10.29007
	77.05892	10.28975
	77.05854	10.28933
	77.05807	10.28804
	77.05754	10.28743
	77.05702	10.28698
	77.05661	10.28686
	77.05613	10.28737
	77.05578	10.28743
	77.05516	10.2871
	77.05432	10.28703
	77.05383	10.28644
	77.0527	10.28572
	77.05225	10.28541
	77.05178	10.28541
	77.05103	10.28515
	77.05033	10.28533
	77.04952	10.28521
	77.04816	10.28488
	77.04703	10.28497
	77.04612	10.2843
	77.04497	10.28398
	77.04431	10.28383
	77.04391	10.2837
	77.04356	10.28366
	77.04341	10.28294
	77.04343	10.28237
	77.04392	10.28228
	77.04505	10.28196
	77.04817	10.27971
	77.0496	10.27811
	77.05137	10.27412
	77.05198	10.27369
	77.05139	10.27267
	77.05121	10.27015
	77.05066	10.26526
	77.04973	10.26172
	77.04484	10.25575
	77.04104	10.25273
	77.03742	10.25263
	77.02917	10.25059
	77.02098	10.24711
	77.01316	10.24117
	77.00629	10.23705
	77.00067	10.23347
	76.99686	10.23067
	76.99357	10.22809
	76.9901	10.22621
	76.98661	10.22277
	76.98277	10.22085
	76.98113	10.22303
	76.97749	10.22464
	76.97434	10.22531
	76.97292	10.22751
	76.97013	10.23007
	76.96608	10.23155
	76.96149	10.2331
	76.95652	10.23342
	76.95128	10.23306
	76.94833	10.23606
	76.944	10.23529
	76.93745	10.23509
	76.93158	10.2342
	76.92717	10.23345
	76.92225	10.23298
	76.91672	10.2332
	76.9131	10.23412
	76.91074	10.23564
	76.91018	10.23814
	76.90756	10.23991
	76.9056	10.23971
	76.90367	10.23936
	76.90423	10.25078
	76.90143	10.25262
	76.9018	10.26001
	76.89736	10.26172
	76.89299	10.26224
	76.8886	10.26723
	76.87271	10.2765
	76.87295	10.28228
	76.87463	10.29262
	76.87357	10.2968
	76.87	10.29619
	76.8643	10.29131
	76.85815	10.29113
	76.85373	10.2848
	76.85162	10.28236
	76.84896	10.28552
	76.84455	10.28769
	76.84464	10.29176
	76.84519	10.29519
	76.8405	10.2999
	76.83532	10.3033
	76.83289	10.30301
	76.83134	10.30352
	76.82971	10.3058
	76.82944	10.30749
	76.83052	10.31361
	76.83048	10.31804
	76.83069	10.3229
	76.82683	10.33031
	76.83932	10.35974
	76.81568	10.3865
	76.82281	10.39408
	76.82148	10.40345
	76.81523	10.40167
	76.8072	10.41505
	76.81746	10.43869
	76.82014	10.49087
	76.83129	10.52477
	76.8246	10.5377
	76.82995	10.58498
	76.80854	10.59434
	76.80497	10.62646
	76.84593	10.62414
	76.84619	10.62492
	76.8466	10.62513
	76.8469	10.62525
	76.84722	10.62535
	76.84746	10.6254
	76.85051	10.62595
	76.85088	10.62598
	76.85114	10.62598
	76.85171	10.62591
	76.85222	10.62578
	76.85271	10.6256
	76.85293	10.62561
	76.85566	10.62588
	76.85587	10.62589
	76.85662	10.62588
	76.85742	10.62585
	76.85787	10.62589
	76.86774	10.62896
	76.86891	10.6294
	76.87167	10.63058
	76.87266	10.63102
	76.87009	10.66392
	76.85537	10.67507
	76.875	10.70674
	76.88392	10.70718
	76.88035	10.72636
	76.8973	10.77096
	76.88838	10.79996
	76.85983	10.79996
	76.8527	10.80843
	76.84021	10.80754
	76.83709	10.81557
	76.84511	10.82672
	76.81746	10.86195
	76.78535	10.87132
	76.77286	10.88158
	76.73272	10.88113
	76.64932	10.92395
	76.66047	10.96052
	76.67786	10.9797
	76.67964	10.99932
	76.7064	11.03144
	76.7568	11.02474
	76.78178	11.02876
	76.79249	11.04259
	76.78981	11.04972
	76.76706	11.03233
	76.75101	11.0466
	76.73718	11.04749
	76.7345	11.06399
	76.74788	11.07514
	76.73406	11.09343
	76.73852	11.12108
	76.72202	11.12242
	76.70997	11.14026
	76.70284	11.1416
	76.70373	11.13179
	76.69659	11.13268
	76.69124	11.14472
	76.68901	11.16524
	76.72112	11.18442
	76.718	11.19824
	76.72648	11.20627
	76.72068	11.21162
	76.69704	11.23125
	76.6792	11.22723
	76.66805	11.21073
	76.623	11.18576
	76.59312	11.19735
	76.52131	11.19022
	76.50615	11.20181
	76.48786	11.2027
	76.466	11.19869
	76.46645	11.1862
	76.45262	11.1804
	76.43791	11.19468
	76.44638	11.23036
	76.51373	11.26202
	76.52176	11.2812
	76.54004	11.29235
	76.53068	11.29592
	76.52845	11.3035
	76.5396	11.3209
	76.53826	11.35167
	76.50927	11.34677
	76.51016	11.36104
	76.44861	11.38155
	76.40802	11.415
	76.41025	11.43374
	76.39063	11.42794
	76.33354	11.45871
	76.32105	11.44489
	76.29786	11.45871
	76.28894	11.45648
	76.27853	11.47384
	76.27823	11.47432
	76.26619	11.46853
	76.25772	11.47343
	76.23988	11.45961
	76.24478	11.49439
	76.23319	11.51848
	76.24255	11.52874
	76.2256	11.56442
	76.24851	11.57879
	76.24926	11.5776
	76.251	11.57871
	76.25118	11.57852
	76.25142	11.57875
	76.25153	11.57888
	76.2518	11.57926
	76.2519	11.5793
	76.25224	11.57949
	76.25251	11.57959
	76.25287	11.57968
	76.25343	11.5797
	76.25368	11.57975
	76.25391	11.57982
	76.25446	11.58005
	76.25488	11.58033
	76.25524	11.58065
	76.25568	11.58099
	76.25594	11.58112
	76.25634	11.58139
	76.25647	11.5815
	76.25672	11.58176
	76.25697	11.58208
	76.25724	11.58247
	76.25695	11.58269
	76.25771	11.58453
	76.25767	11.58454
	76.2711	11.59296
	76.27779	11.5836
	76.29072	11.58048
	76.29786	11.56442
	76.32863	11.5885
	76.33577	11.57825
	76.35004	11.58271
	76.37056	11.59341
	76.37992	11.6224
	76.42497	11.62329
	76.43568	11.63756
	76.42363	11.65942
END
END
