India_Haryana
1
	74.51916	29.94321
	74.52452	29.95169
	74.55217	29.92939
	74.57313	29.92582
	74.58562	29.91467
	74.64717	29.90485
	74.64003	29.9227
	74.68107	29.94901
	74.6833	29.96105
	74.69757	29.97131
	74.72388	29.96194
	74.77607	29.97443
	74.80104	29.99272
	74.81665	29.98469
	74.82156	29.97309
	74.84966	29.95927
	74.87196	29.95927
	74.88133	29.96819
	74.89426	29.95302
	74.88534	29.9392
	74.91567	29.94901
	74.94332	29.90262
	74.97008	29.89014
	74.96964	29.88077
	74.98971	29.85624
	75.00576	29.86739
	75.01424	29.86471
	75.03743	29.88166
	75.0517	29.87497
	75.06553	29.87899
	75.07757	29.91244
	75.08471	29.91511
	75.10255	29.89683
	75.10433	29.87319
	75.08114	29.84955
	75.10389	29.83795
	75.10701	29.82636
	75.09318	29.81922
	75.09006	29.80673
	75.12485	29.80584
	75.13154	29.78488
	75.1418	29.77685
	75.15919	29.78443
	75.14893	29.79603
	75.15562	29.81967
	75.17837	29.83706
	75.20112	29.82992
	75.19799	29.79603
	75.21227	29.78666
	75.231	29.75187
	75.22119	29.73314
	75.20602	29.73537
	75.19353	29.72511
	75.18729	29.71173
	75.19755	29.69657
	75.19532	29.68765
	75.15875	29.66936
	75.15785	29.66267
	75.16529	29.65633
	75.17346	29.64929
	75.17346	29.63011
	75.18461	29.62253
	75.19933	29.62253
	75.22119	29.60647
	75.22342	29.59889
	75.21137	29.58239
	75.22832	29.55875
	75.22342	29.54626
	75.28893	29.56145
	75.29012	29.56098
	75.29279	29.55997
	75.29342	29.55975
	75.29534	29.5601
	75.29541	29.56016
	75.29614	29.56179
	75.29612	29.56219
	75.2961	29.56456
	75.29749	29.56594
	75.29751	29.57332
	75.2975	29.57491
	75.30459	29.58863
	75.28051	29.60335
	75.28051	29.61004
	75.30771	29.63234
	75.31753	29.6707
	75.33001	29.67248
	75.35053	29.6591
	75.33537	29.69389
	75.3575	29.70976
	75.35802	29.70959
	75.35826	29.70963
	75.35864	29.70973
	75.36082	29.71055
	75.36141	29.70985
	75.36414	29.70992
	75.36609	29.712
	75.36607	29.71264
	75.37863	29.71129
	75.39736	29.76124
	75.40985	29.77551
	75.42147	29.77918
	75.42147	29.77934
	75.42346	29.78126
	75.4267	29.78129
	75.42814	29.78129
	75.43198	29.7825
	75.43478	29.785
	75.43817	29.78814
	75.44084	29.79051
	75.4368	29.79645
	75.43703	29.79679
	75.43716	29.79708
	75.4374	29.79745
	75.43937	29.79951
	75.43963	29.79981
	75.44004	29.80057
	75.44116	29.80443
	75.44132	29.80506
	75.44275	29.80656
	75.44432	29.80883
	75.44665	29.80722
	75.44674	29.80668
	75.50619	29.77417
	75.50923	29.76607
	75.50952	29.76637
	75.51156	29.76642
	75.51548	29.7664
	75.51913	29.7664
	75.52092	29.76638
	75.53027	29.77284
	75.5436	29.76525
	75.54625	29.76527
	75.54738	29.76415
	75.55659	29.7657
	75.56328	29.74429
	75.56863	29.74251
	75.59271	29.7492
	75.61323	29.74652
	75.6226	29.75366
	75.62527	29.77328
	75.65649	29.77596
	75.68727	29.75187
	75.69753	29.75499
	75.706	29.80852
	75.72607	29.81164
	75.74837	29.81208
	75.75909	29.81827
	75.76016	29.81719
	75.7651	29.81718
	75.76585	29.81732
	75.76641	29.81763
	75.77032	29.82063
	75.77187	29.82183
	75.7722	29.8221
	75.77255	29.82218
	75.77284	29.82227
	75.77301	29.82234
	75.77309	29.8224
	75.77367	29.8223
	75.77375	29.8223
	75.77463	29.82318
	75.7961	29.80718
	75.82018	29.81521
	75.8291	29.81253
	75.83356	29.79068
	75.84919	29.77091
	75.84952	29.771
	75.84968	29.77101
	75.85055	29.77084
	75.85159	29.77083
	75.85205	29.77078
	75.85243	29.7707
	75.85367	29.76985
	75.85427	29.76892
	75.85483	29.76788
	75.85598	29.76587
	75.85681	29.76437
	75.85885	29.76082
	75.85934	29.76032
	75.85967	29.75987
	75.86064	29.75821
	75.86098	29.75755
	75.86112	29.75722
	75.86126	29.75652
	75.86127	29.75563
	75.86389	29.75232
	75.8795	29.74697
	75.89734	29.75544
	75.91384	29.73894
	75.93882	29.73359
	75.97272	29.73225
	76.01776	29.75589
	76.0414	29.74875
	76.05835	29.77328
	76.07441	29.78131
	76.07592	29.7932
	76.0778	29.79319
	76.07981	29.79518
	76.07984	29.79833
	76.07787	29.80034
	76.07683	29.80036
	76.07753	29.80584
	76.09046	29.81075
	76.09718	29.80959
	76.09701	29.8093
	76.09675	29.80861
	76.09743	29.80665
	76.09746	29.80662
	76.09885	29.80616
	76.09936	29.80619
	76.1001	29.8062
	76.10049	29.80617
	76.10312	29.80572
	76.10549	29.80529
	76.10551	29.80524
	76.10558	29.80527
	76.1057	29.80524
	76.10572	29.80533
	76.10646	29.80566
	76.11633	29.79647
	76.13908	29.81654
	76.16673	29.81833
	76.18591	29.83126
	76.19438	29.84509
	76.21133	29.84331
	76.21178	29.85312
	76.23542	29.85981
	76.24211	29.86917
	76.23854	29.87586
	76.22516	29.88523
	76.18457	29.8888
	76.1819	29.92314
	76.16629	29.92849
	76.17877	29.94633
	76.20375	29.9441
	76.19483	29.96551
	76.19884	29.97309
	76.19082	30.01636
	76.21535	30.02706
	76.1984	30.03777
	76.25504	30.10467
	76.22873	30.10913
	76.19082	30.135
	76.19394	30.14079
	76.21178	30.135
	76.20375	30.15908
	76.25103	30.11894
	76.28002	30.11359
	76.29295	30.11849
	76.32284	30.10824
	76.3487	30.12786
	76.32596	30.14927
	76.34291	30.15328
	76.36387	30.12741
	76.39018	30.12741
	76.38438	30.1457
	76.40178	30.15774
	76.38082	30.18317
	76.41025	30.20234
	76.42007	30.19788
	76.42854	30.1796
	76.4223	30.16354
	76.42586	30.14748
	76.43612	30.13723
	76.44638	30.13723
	76.4446	30.12295
	76.45218	30.10065
	76.49098	30.09709
	76.50124	30.07657
	76.5338	30.08281
	76.54491	30.07462
	76.58063	30.08683
	76.57662	30.07523
	76.60115	30.08014
	76.62657	30.10556
	76.62924	30.13455
	76.623	30.14481
	76.62746	30.15507
	76.62255	30.17023
	76.64173	30.18941
	76.63906	30.20591
	76.60427	30.21528
	76.61185	30.23089
	76.5842	30.25631
	76.53246	30.22732
	76.54584	30.24338
	76.54762	30.26479
	76.60962	30.27058
	76.623	30.29155
	76.62612	30.28396
	76.6511	30.29913
	76.66225	30.29957
	76.67295	30.31296
	76.67419	30.32192
	76.6762	30.32381
	76.67666	30.32415
	76.67964	30.32143
	76.71533	30.33303
	76.71533	30.33972
	76.73631	30.35787
	76.73632	30.3593
	76.73448	30.36056
	76.73395	30.36334
	76.73462	30.36347
	76.73049	30.36737
	76.71131	30.36514
	76.718	30.37718
	76.70507	30.38075
	76.70016	30.39368
	76.72648	30.40483
	76.72514	30.42044
	76.74878	30.42669
	76.7577	30.43873
	76.76662	30.43605
	76.76439	30.4249
	76.77063	30.41821
	76.80854	30.41197
	76.83263	30.43382
	76.83976	30.42089
	76.86474	30.40885
	76.86608	30.39502
	76.88035	30.3861
	76.87945	30.38101
	76.87785	30.38091
	76.87778	30.38083
	76.87746	30.38034
	76.8773	30.38
	76.87713	30.37942
	76.87787	30.37748
	76.878	30.37737
	76.87883	30.37747
	76.87634	30.36335
	76.88704	30.35845
	76.89774	30.36246
	76.93119	30.39725
	76.90533	30.40483
	76.90354	30.4249
	76.88882	30.44096
	76.89819	30.46772
	76.88882	30.48467
	76.91246	30.49359
	76.92004	30.52481
	76.88526	30.54042
	76.90577	30.55826
	76.89908	30.56406
	76.90443	30.58056
	76.89864	30.58859
	76.91335	30.59974
	76.91246	30.60182
	76.91302	30.60194
	76.91324	30.60206
	76.91338	30.60206
	76.9136	30.60209
	76.91408	30.60221
	76.91484	30.60252
	76.91601	30.60281
	76.91913	30.60389
	76.91967	30.60417
	76.92105	30.60518
	76.92186	30.60571
	76.9226	30.60579
	76.92315	30.60549
	76.9239	30.60561
	76.92434	30.60573
	76.92475	30.60591
	76.92491	30.606
	76.92551	30.60653
	76.92569	30.60676
	76.92598	30.60726
	76.92603	30.60739
	76.92639	30.60779
	76.92661	30.60806
	76.92628	30.61087
	76.92347	30.61054
	76.92279	30.60977
	76.92263	30.60979
	76.92224	30.60978
	76.92107	30.60965
	76.92077	30.60959
	76.92056	30.60953
	76.92	30.60927
	76.91874	30.60845
	76.91758	30.6076
	76.91746	30.60754
	76.91491	30.60666
	76.91374	30.60637
	76.91344	30.60627
	76.91291	30.60605
	76.9128	30.60605
	76.91229	30.60599
	76.91217	30.60596
	76.91173	30.60623
	76.90821	30.60783
	76.90772	30.60811
	76.9075	30.60827
	76.90338	30.61104
	76.90088	30.61276
	76.89953	30.61981
	76.87271	30.63996
	76.85843	30.64085
	76.85908	30.66078
	76.84904	30.66742
	76.84517	30.66366
	76.8348	30.65602
	76.8348	30.66405
	76.82153	30.6611
	76.81996	30.66345
	76.81857	30.66371
	76.81772	30.68031
	76.81793	30.68026
	76.81894	30.68094
	76.81934	30.68391
	76.81879	30.68457
	76.81749	30.68471
	76.81735	30.68739
	76.81398	30.6917
	76.82077	30.7161
	76.82689	30.75603
	76.8275	30.75528
	76.83031	30.75497
	76.83062	30.75778
	76.82988	30.75871
	76.82852	30.76027
	76.82824	30.76071
	76.82811	30.76395
	76.8469	30.79242
	76.83352	30.80446
	76.82772	30.83256
	76.80141	30.84237
	76.76885	30.87671
	76.7626	30.89322
	76.76974	30.9066
	76.81033	30.93023
	76.81434	30.92131
	76.80988	30.9066
	76.81568	30.89589
	76.85225	30.87047
	76.9022	30.89723
	76.92673	30.85441
	76.92763	30.83746
	76.94279	30.82899
	76.95394	30.81115
	76.97892	30.79866
	76.98828	30.81516
	76.9981	30.81427
	76.99988	30.78885
	76.98873	30.77725
	77.00434	30.76655
	77.00479	30.75228
	77.01817	30.74023
	77.02843	30.74336
	77.03378	30.7554
	77.07704	30.74469
	77.10246	30.73087
	77.09979	30.72239
	77.11763	30.71793
	77.15331	30.68894
	77.15286	30.65415
	77.16223	30.63854
	77.15866	30.60331
	77.12387	30.57253
	77.11138	30.56718
	77.12253	30.54845
	77.18542	30.5257
	77.19969	30.50652
	77.20282	30.48021
	77.2269	30.48868
	77.25188	30.48422
	77.26347	30.46683
	77.31075	30.45345
	77.32636	30.46326
	77.34599	30.46192
	77.35669	30.44185
	77.3842	30.43714
	77.4004	30.41866
	77.45035	30.46505
	77.45615	30.45835
	77.45347	30.44051
	77.43965	30.42446
	77.42582	30.42
	77.41646	30.4084
	77.43474	30.4035
	77.48692	30.41242
	77.49272	30.43293
	77.50967	30.44899
	77.54268	30.39725
	77.54826	30.395
	77.54812	30.39472
	77.54809	30.39459
	77.54866	30.39277
	77.54872	30.39271
	77.54911	30.39252
	77.54916	30.39201
	77.54918	30.39161
	77.55124	30.38967
	77.55318	30.39173
	77.55317	30.39204
	77.55377	30.39174
	77.55446	30.39155
	77.55459	30.39147
	77.55505	30.39127
	77.55555	30.39109
	77.55602	30.39098
	77.55699	30.3909
	77.55729	30.39068
	77.55741	30.39064
	77.55837	30.39057
	77.5585	30.39059
	77.55884	30.39074
	77.57479	30.38432
	77.58698	30.37909
	77.58909	30.3655
	77.59509	30.35887
	77.59304	30.35265
	77.58819	30.34698
	77.57974	30.33025
	77.58065	30.32479
	77.58486	30.32149
	77.58417	30.3055
	77.57895	30.30133
	77.56863	30.29719
	77.55494	30.2869
	77.54547	30.27347
	77.51993	30.26033
	77.49585	30.23357
	77.4731	30.18852
	77.45615	30.18094
	77.44678	30.16845
	77.42359	30.16845
	77.41155	30.14972
	77.41779	30.14124
	77.41244	30.12786
	77.39817	30.11894
	77.41423	30.10734
	77.39683	30.09575
	77.36829	30.09173
	77.33171	30.06453
	77.28622	30.05739
	77.28011	30.0539
	77.28008	30.05349
	77.27782	30.05159
	77.2768	30.0507
	77.27569	30.04979
	77.27534	30.04948
	77.275	30.04925
	77.27463	30.04904
	77.27429	30.04882
	77.27408	30.04865
	77.27392	30.04844
	77.27362	30.04813
	77.27315	30.04702
	77.2727	30.04588
	77.27226	30.04468
	77.27186	30.04366
	77.27164	30.04299
	77.27329	30.0342
	77.26303	30.00209
	77.23537	29.98112
	77.22958	29.96194
	77.21129	29.94054
	77.18007	29.90619
	77.18229	29.87334
	77.17851	29.87341
	77.17648	29.87146
	77.17636	29.86584
	77.17635	29.86392
	77.17562	29.8622
	77.17375	29.85765
	77.16758	29.84643
	77.16892	29.82948
	77.15375	29.81387
	77.15242	29.79335
	77.11807	29.77551
	77.11317	29.74875
	77.12253	29.74295
	77.1435	29.70593
	77.13235	29.69969
	77.11897	29.68586
	77.13101	29.66624
	77.12922	29.65866
	77.11869	29.64486
	77.10588	29.59694
	77.09488	29.58017
	77.1096	29.55295
	77.08953	29.54448
	77.08507	29.53377
	77.09756	29.51192
	77.11986	29.4972
	77.12343	29.48605
	77.11451	29.46197
	77.12432	29.45304
	77.13948	29.44189
	77.12476	29.42227
	77.12566	29.41067
	77.14662	29.38971
	77.11674	29.37678
	77.11763	29.35715
	77.12387	29.34511
	77.14662	29.34511
	77.15375	29.3353
	77.1542	29.31701
	77.14216	29.3014
	77.14439	29.29605
	77.12967	29.27286
	77.1426	29.25145
	77.1426	29.23762
	77.12521	29.22469
	77.13814	29.20105
	77.13993	29.18187
	77.13235	29.17161
	77.12655	29.15422
	77.13859	29.13459
	77.12209	29.1056
	77.15732	29.0775
	77.16267	29.04851
	77.21397	29.00614
	77.19929	28.95759
	77.20192	28.9462
	77.2029	28.94174
	77.20909	28.93582
	77.2116	28.92509
	77.2171	28.91484
	77.22611	28.90907
	77.23156	28.90422
	77.23184	28.89687
	77.22641	28.88921
	77.21698	28.87732
	77.21095	28.86738
	77.20908	28.8573
	77.20637	28.85707
	77.20484	28.8569
	77.20405	28.85693
	77.2025	28.85765
	77.19921	28.85914
	77.19707	28.85943
	77.19499	28.85925
	77.19042	28.85834
	77.1869	28.85812
	77.18657	28.8573
	77.18648	28.85711
	77.1859	28.85551
	77.18542	28.85409
	77.18509	28.853
	77.18496	28.85268
	77.18473	28.85221
	77.18476	28.85134
	77.18486	28.85098
	77.18493	28.8506
	77.18497	28.85018
	77.18498	28.84987
	77.18479	28.84682
	77.18464	28.84613
	77.18446	28.84572
	77.18412	28.84512
	77.1839	28.84479
	77.18372	28.84457
	77.18361	28.8444
	77.18286	28.84267
	77.18024	28.84162
	77.17919	28.84425
	77.17999	28.84611
	77.18013	28.84639
	77.1804	28.84682
	77.18072	28.84722
	77.18082	28.8474
	77.18098	28.84996
	77.18082	28.85063
	77.18076	28.85104
	77.18073	28.85241
	77.18077	28.85279
	77.18084	28.85316
	77.18095	28.85355
	77.18126	28.85424
	77.18132	28.85434
	77.18162	28.85534
	77.18212	28.85681
	77.18248	28.85781
	77.18215	28.85779
	77.18048	28.85784
	77.17823	28.8586
	77.17519	28.85853
	77.17315	28.8575
	77.17326	28.85645
	77.17315	28.85569
	77.17277	28.85485
	77.17206	28.85005
	77.16997	28.85062
	77.16894	28.85048
	77.16708	28.84883
	77.1663	28.84932
	77.16264	28.84507
	77.15867	28.84034
	77.15765	28.83961
	77.1575	28.83958
	77.15682	28.83903
	77.15551	28.83919
	77.15373	28.83956
	77.15317	28.83963
	77.15267	28.83966
	77.15118	28.83987
	77.14891	28.84003
	77.14831	28.84002
	77.14717	28.83989
	77.14693	28.83991
	77.14624	28.84006
	77.14543	28.84018
	77.14531	28.84023
	77.145	28.84041
	77.14478	28.84052
	77.14449	28.84065
	77.14414	28.84077
	77.1436	28.84089
	77.14317	28.8411
	77.14282	28.84125
	77.14224	28.84137
	77.14225	28.8415
	77.14143	28.84246
	77.14155	28.84334
	77.14194	28.84724
	77.14525	28.85207
	77.14552	28.8537
	77.14453	28.85468
	77.14371	28.85469
	77.1429	28.8553
	77.14233	28.85578
	77.14187	28.8565
	77.14098	28.85918
	77.14103	28.85945
	77.13915	28.85993
	77.13764	28.86017
	77.13577	28.86049
	77.12982	28.86121
	77.12874	28.86133
	77.1247	28.85952
	77.12492	28.85802
	77.1243	28.85755
	77.12288	28.85793
	77.12186	28.85795
	77.11939	28.86076
	77.11705	28.86239
	77.11539	28.86429
	77.10999	28.8699
	77.10795	28.86968
	77.10322	28.87055
	77.09714	28.87069
	77.09328	28.8718
	77.08782	28.87554
	77.0883	28.87668
	77.08762	28.88101
	77.08674	28.8817
	77.08259	28.88345
	77.08214	28.88144
	77.0805	28.87928
	77.07744	28.87702
	77.07934	28.87166
	77.07873	28.87157
	77.07813	28.87097
	77.07778	28.87072
	77.07765	28.87034
	77.07691	28.86974
	77.07545	28.86892
	77.07467	28.86719
	77.07341	28.86771
	77.07264	28.86829
	77.0721	28.86877
	77.07128	28.86869
	77.07042	28.86782
	77.06994	28.8678
	77.06951	28.86751
	77.06929	28.86703
	77.06384	28.86921
	77.06122	28.87072
	77.0583	28.86802
	77.05591	28.86446
	77.05438	28.86242
	77.05371	28.86186
	77.05315	28.86114
	77.05293	28.86088
	77.05266	28.86002
	77.05207	28.85911
	77.05187	28.85805
	77.0518	28.8568
	77.05113	28.85494
	77.05113	28.85455
	77.04991	28.8528
	77.04811	28.85032
	77.04714	28.84938
	77.04663	28.84826
	77.04599	28.8477
	77.04556	28.84704
	77.04548	28.84651
	77.04523	28.84591
	77.04577	28.84561
	77.04545	28.84444
	77.04549	28.8422
	77.04493	28.84018
	77.04463	28.84018
	77.04276	28.83865
	77.04206	28.83773
	77.04198	28.83709
	77.0428	28.835
	77.04222	28.83358
	77.04134	28.83303
	77.04017	28.8318
	77.03862	28.83276
	77.03679	28.83331
	77.03522	28.83416
	77.03369	28.83454
	77.0326	28.83513
	77.03087	28.83574
	77.0282	28.83661
	77.02713	28.83687
	77.02602	28.83779
	77.02338	28.83914
	77.02016	28.83932
	77.01801	28.83996
	77.01488	28.84056
	77.00943	28.84081
	77.00573	28.8402
	76.99916	28.83823
	76.99436	28.83962
	76.99305	28.83877
	76.99049	28.83779
	76.98914	28.83564
	76.98712	28.83438
	76.98658	28.82975
	76.98498	28.82683
	76.98034	28.82149
	76.97714	28.82264
	76.97596	28.82276
	76.97478	28.82505
	76.97334	28.82667
	76.9723	28.82707
	76.97135	28.82764
	76.97026	28.82749
	76.96815	28.82784
	76.96678	28.82751
	76.96583	28.82769
	76.96568	28.82584
	76.96486	28.82535
	76.96449	28.82462
	76.96492	28.82413
	76.96377	28.82273
	76.964	28.82239
	76.96401	28.82205
	76.96483	28.82118
	76.96475	28.82076
	76.96492	28.82014
	76.96474	28.81985
	76.96452	28.81964
	76.96261	28.81622
	76.96224	28.81582
	76.9617	28.8149
	76.96115	28.815
	76.9606	28.8153
	76.95901	28.81533
	76.95711	28.8164
	76.95122	28.81825
	76.94921	28.81608
	76.94829	28.8142
	76.94745	28.8136
	76.94719	28.81242
	76.9454	28.80977
	76.94676	28.80806
	76.94581	28.80472
	76.94345	28.80152
	76.94224	28.7983
	76.94421	28.79824
	76.94668	28.79753
	76.94799	28.79599
	76.94973	28.79472
	76.95403	28.79028
	76.95149	28.78719
	76.95006	28.78321
	76.94831	28.77977
	76.95022	28.77533
	76.95526	28.76942
	76.95565	28.76766
	76.95133	28.76337
	76.95095	28.76301
	76.95046	28.76294
	76.94979	28.76234
	76.94746	28.75944
	76.94674	28.75875
	76.94572	28.75725
	76.94443	28.75389
	76.95054	28.75035
	76.95344	28.74781
	76.95592	28.74588
	76.95652	28.74506
	76.95876	28.74284
	76.95799	28.74174
	76.95672	28.73922
	76.95603	28.73819
	76.95634	28.73743
	76.95844	28.7357
	76.95979	28.73299
	76.95986	28.73197
	76.95965	28.73097
	76.95984	28.72992
	76.95978	28.72954
	76.95587	28.72345
	76.95123	28.71794
	76.94812	28.71246
	76.95167	28.70997
	76.96138	28.70379
	76.96648	28.70009
	76.96802	28.6992
	76.96641	28.69785
	76.96443	28.6952
	76.96348	28.69343
	76.96322	28.69206
	76.96136	28.68955
	76.95958	28.68772
	76.95888	28.68641
	76.95743	28.68396
	76.95676	28.68079
	76.95599	28.67607
	76.95562	28.67157
	76.9545	28.66957
	76.95117	28.67057
	76.94905	28.67134
	76.94513	28.67161
	76.9446	28.67113
	76.94392	28.67082
	76.94188	28.67064
	76.94074	28.66868
	76.93976	28.66841
	76.93854	28.66799
	76.93562	28.66691
	76.93462	28.66653
	76.93408	28.6663
	76.93322	28.66518
	76.93318	28.66439
	76.93257	28.66224
	76.93223	28.66136
	76.93168	28.66062
	76.93119	28.65928
	76.92452	28.64964
	76.92922	28.64578
	76.93076	28.64278
	76.93268	28.64125
	76.93529	28.6389
	76.93678	28.63749
	76.93985	28.63505
	76.94439	28.63306
	76.94325	28.62998
	76.9424	28.62723
	76.93924	28.62317
	76.93721	28.62108
	76.93527	28.61844
	76.93355	28.61905
	76.92779	28.62324
	76.92457	28.62715
	76.92106	28.63076
	76.91913	28.63148
	76.91423	28.63218
	76.90872	28.62705
	76.90653	28.62362
	76.90219	28.6262
	76.89294	28.63137
	76.88936	28.6318
	76.88439	28.62366
	76.87702	28.60973
	76.87419	28.60505
	76.87185	28.603
	76.87043	28.59744
	76.86812	28.59129
	76.86666	28.58873
	76.86538	28.58737
	76.86462	28.58564
	76.85712	28.58537
	76.84602	28.58468
	76.83945	28.58265
	76.83885	28.57334
	76.83891	28.57278
	76.84012	28.57147
	76.84017	28.56963
	76.84238	28.56264
	76.84383	28.56188
	76.84379	28.55654
	76.8455	28.5541
	76.84586	28.55001
	76.86097	28.54547
	76.86409	28.54386
	76.86398	28.54368
	76.86373	28.5431
	76.8637	28.54298
	76.86364	28.5424
	76.86364	28.54227
	76.86389	28.5414
	76.86404	28.54113
	76.86444	28.54054
	76.86448	28.54042
	76.86499	28.5386
	76.86566	28.53573
	76.86623	28.53474
	76.86636	28.53461
	76.86678	28.53431
	76.86803	28.53362
	76.86874	28.53339
	76.86882	28.53338
	76.87002	28.5336
	76.87009	28.53364
	76.87063	28.53413
	76.871	28.53425
	76.87136	28.53439
	76.87246	28.53371
	76.87359	28.53297
	76.87429	28.53102
	76.87429	28.52874
	76.87643	28.52607
	76.87701	28.52481
	76.88714	28.52031
	76.88705	28.51969
	76.88553	28.51698
	76.88359	28.51251
	76.88162	28.50991
	76.88052	28.50558
	76.88156	28.50465
	76.88188	28.50475
	76.88286	28.50399
	76.88433	28.50309
	76.88589	28.50258
	76.88544	28.50138
	76.89195	28.50083
	76.8927	28.50128
	76.89694	28.50675
	76.90235	28.50674
	76.90694	28.51392
	76.91002	28.51223
	76.91195	28.51233
	76.91596	28.51095
	76.91846	28.50939
	76.92094	28.50707
	76.9243	28.508
	76.92759	28.51065
	76.93496	28.51102
	76.93577	28.51052
	76.94333	28.50531
	76.94542	28.5054
	76.9486	28.50536
	76.95	28.50326
	76.95204	28.50339
	76.95259	28.5034
	76.95329	28.50353
	76.95449	28.50399
	76.9547	28.50409
	76.95564	28.50459
	76.95588	28.50474
	76.95789	28.50619
	76.96159	28.50892
	76.96312	28.50997
	76.96466	28.51098
	76.96593	28.51179
	76.96746	28.51235
	76.96911	28.513
	76.96948	28.51319
	76.97012	28.51361
	76.97262	28.51538
	76.97399	28.51625
	76.97486	28.51673
	76.97512	28.5169
	76.97558	28.51726
	76.97599	28.51769
	76.97621	28.518
	76.97637	28.51929
	76.97836	28.52125
	76.98023	28.5198
	76.98121	28.51912
	76.98328	28.51704
	76.99095	28.51357
	76.99453	28.51761
	76.99539	28.51714
	76.99597	28.51803
	76.99681	28.51971
	76.99902	28.51848
	76.99999	28.51797
	77.00272	28.51729
	77.00592	28.51586
	77.01005	28.51473
	77.01255	28.51697
	77.01696	28.52108
	77.01463	28.52435
	77.01096	28.52545
	77.01058	28.52577
	77.0096	28.52664
	77.00848	28.52703
	77.00212	28.53055
	77.00245	28.53144
	77.00251	28.53198
	77.00255	28.53294
	77.00265	28.53309
	77.00312	28.53364
	77.00342	28.53413
	77.00368	28.53472
	77.00321	28.53593
	77.00546	28.5395
	77.00765	28.53977
	77.00863	28.54033
	77.00969	28.53987
	77.01019	28.54027
	77.01221	28.54001
	77.01346	28.54052
	77.01409	28.54
	77.01628	28.53921
	77.01742	28.53769
	77.0197	28.53622
	77.0217	28.53496
	77.02325	28.53356
	77.02459	28.53271
	77.02987	28.53168
	77.03212	28.53108
	77.04171	28.52607
	77.0424	28.5257
	77.04315	28.52524
	77.04336	28.52515
	77.04337	28.52416
	77.04461	28.52308
	77.04657	28.522
	77.04632	28.52164
	77.0461	28.5214
	77.04599	28.52125
	77.04609	28.5187
	77.04721	28.51853
	77.04621	28.51668
	77.04917	28.51608
	77.05435	28.51438
	77.05754	28.51285
	77.05891	28.51261
	77.05897	28.51193
	77.05899	28.51184
	77.05995	28.51059
	77.06007	28.51052
	77.06073	28.51029
	77.06114	28.51025
	77.06145	28.51025
	77.06192	28.5103
	77.06213	28.51033
	77.0633	28.51058
	77.06426	28.51069
	77.06433	28.51069
	77.06522	28.51056
	77.06551	28.51053
	77.06564	28.51053
	77.06576	28.51063
	77.06726	28.51062
	77.06928	28.51261
	77.06819	28.51371
	77.06887	28.51458
	77.07099	28.51705
	77.07137	28.51759
	77.07209	28.51936
	77.07222	28.52015
	77.0723	28.52026
	77.07336	28.51951
	77.07447	28.51893
	77.07501	28.51871
	77.07744	28.51844
	77.07929	28.5182
	77.08041	28.51802
	77.08306	28.51697
	77.08596	28.5161
	77.09259	28.51423
	77.09392	28.51387
	77.09867	28.51141
	77.09575	28.50708
	77.09765	28.50486
	77.10003	28.50387
	77.10231	28.5031
	77.10377	28.50249
	77.1054	28.50134
	77.11248	28.49845
	77.11951	28.49514
	77.11768	28.48698
	77.11508	28.48163
	77.11418	28.47352
	77.11247	28.47318
	77.11646	28.46722
	77.12002	28.46272
	77.12348	28.45971
	77.12426	28.45102
	77.12539	28.45021
	77.12763	28.44309
	77.13069	28.43992
	77.13086	28.43982
	77.13351	28.4413
	77.13454	28.44091
	77.13534	28.44055
	77.13556	28.44055
	77.13595	28.44051
	77.13663	28.44038
	77.13686	28.44032
	77.13796	28.43997
	77.13837	28.43991
	77.13863	28.43991
	77.13943	28.44101
	77.13988	28.44132
	77.14266	28.44079
	77.14231	28.43894
	77.14232	28.43883
	77.14247	28.43879
	77.14238	28.4385
	77.14237	28.43851
	77.14245	28.43787
	77.14341	28.43755
	77.14704	28.43675
	77.1493	28.43656
	77.15032	28.43571
	77.15108	28.43536
	77.15174	28.43479
	77.15204	28.4341
	77.15635	28.43143
	77.15985	28.43025
	77.16155	28.42931
	77.1627	28.42694
	77.16234	28.42444
	77.16367	28.42169
	77.16376	28.41973
	77.16413	28.41484
	77.16823	28.41323
	77.17036	28.41105
	77.1724	28.40545
	77.17423	28.40462
	77.17597	28.40691
	77.17841	28.4104
	77.18349	28.40982
	77.18557	28.40944
	77.22151	28.41336
	77.23117	28.42207
	77.24218	28.42813
	77.24073	28.429
	77.24551	28.43541
	77.24607	28.44985
	77.24237	28.45525
	77.24018	28.45636
	77.23333	28.45506
	77.23163	28.45629
	77.23491	28.47007
	77.24334	28.47875
	77.26252	28.48746
	77.27006	28.48776
	77.27152	28.48962
	77.2748	28.49259
	77.27528	28.49196
	77.27678	28.49173
	77.27712	28.4917
	77.27724	28.49166
	77.27751	28.4916
	77.27773	28.49157
	77.27808	28.49175
	77.2784	28.49154
	77.27849	28.49155
	77.27872	28.49165
	77.27885	28.49162
	77.27897	28.49162
	77.27946	28.49167
	77.27986	28.49179
	77.28003	28.49186
	77.28055	28.4917
	77.28089	28.49164
	77.28182	28.49206
	77.28251	28.4921
	77.2826	28.49221
	77.28269	28.49228
	77.28299	28.49235
	77.28331	28.49245
	77.28417	28.49307
	77.28441	28.49339
	77.28409	28.49491
	77.29074	28.49675
	77.29667	28.49439
	77.30046	28.49407
	77.30045	28.48964
	77.30097	28.48964
	77.30124	28.49012
	77.30562	28.48909
	77.30918	28.48783
	77.31087	28.48646
	77.31077	28.48637
	77.31073	28.48497
	77.31269	28.48291
	77.31391	28.4829
	77.31451	28.48349
	77.31462	28.48339
	77.31986	28.48724
	77.32644	28.48988
	77.33028	28.49527
	77.34574	28.5153
	77.3607	28.49769
	77.36427	28.48565
	77.37587	28.47628
	77.39772	28.47137
	77.39772	28.45844
	77.41824	28.45576
	77.42582	28.45443
	77.43608	28.43168
	77.47444	28.41339
	77.47399	28.40403
	77.46685	28.39957
	77.47504	28.38995
	77.47468	28.38949
	77.47447	28.38916
	77.47427	28.38876
	77.47486	28.38626
	77.47507	28.3861
	77.47633	28.3857
	77.47665	28.38571
	77.47666	28.38564
	77.47715	28.38469
	77.47721	28.38449
	77.47719	28.38304
	77.47722	28.3826
	77.47815	28.3816
	77.4784	28.38096
	77.47866	28.38106
	77.47888	28.38081
	77.48104	28.38197
	77.48119	28.3823
	77.48135	28.38253
	77.49228	28.36968
	77.49406	28.35809
	77.46373	28.33802
	77.49585	28.30724
	77.49272	28.28048
	77.47221	28.28137
	77.46462	28.27736
	77.4673	28.26978
	77.51146	28.25461
	77.53866	28.25461
	77.54134	28.24792
	77.51547	28.22964
	77.5235	28.20734
	77.51904	28.20198
	77.48915	28.2118
	77.49228	28.18503
	77.50164	28.18726
	77.50566	28.19529
	77.53777	28.19083
	77.54223	28.18147
	77.53197	28.17032
	77.49629	28.16006
	77.4954	28.14579
	77.48737	28.14133
	77.49852	28.13553
	77.49986	28.1275
	77.49138	28.11278
	77.49228	28.09806
	77.48603	28.09717
	77.47845	28.10787
	77.46998	28.08379
	77.48291	28.0606
	77.4789	28.04409
	77.48772	28.03612
	77.48913	28.03559
	77.49076	28.03504
	77.49409	28.03519
	77.4943	28.03519
	77.49472	28.03517
	77.49538	28.03501
	77.49562	28.03491
	77.49612	28.03461
	77.49695	28.03392
	77.49799	28.03294
	77.49829	28.03271
	77.49868	28.0323
	77.49887	28.03204
	77.49916	28.03147
	77.49922	28.03128
	77.49932	28.03078
	77.49935	28.03044
	77.49933	28.02936
	77.49955	28.02933
	77.50031	28.02905
	77.50048	28.02895
	77.50105	28.02841
	77.50118	28.02823
	77.50148	28.0276
	77.50155	28.02734
	77.50162	28.0268
	77.5016	28.02356
	77.53509	27.99325
	77.51168	27.97477
	77.51141	27.97427
	77.51122	27.97402
	77.51059	27.97348
	77.50977	27.97304
	77.51502	27.9656
	77.53599	27.9656
	77.53599	27.94909
	77.51904	27.9317
	77.51101	27.9375
	77.4954	27.93081
	77.48469	27.94374
	77.47756	27.94017
	77.46864	27.9317
	77.46802	27.91401
	77.45501	27.89275
	77.45275	27.89128
	77.45003	27.89049
	77.43773	27.89047
	77.43281	27.89039
	77.43165	27.89062
	77.42872	27.89173
	77.42197	27.89192
	77.4194	27.89125
	77.41756	27.88954
	77.41319	27.88316
	77.40965	27.88018
	77.40749	27.87681
	77.39572	27.87094
	77.38487	27.86505
	77.3709	27.85682
	77.36708	27.85467
	77.36503	27.85428
	77.35561	27.85428
	77.3545	27.85434
	77.35327	27.85482
	77.35026	27.8568
	77.34788	27.85646
	77.34323	27.85372
	77.33722	27.85003
	77.33452	27.84832
	77.32725	27.83759
	77.31298	27.83001
	77.2889	27.82912
	77.28979	27.81797
	77.27596	27.80637
	77.26258	27.81618
	77.25277	27.79745
	77.23181	27.78585
	77.2269	27.79611
	77.20683	27.80102
	77.1939	27.82198
	77.18765	27.81485
	77.18899	27.79834
	77.16892	27.78496
	77.16223	27.79076
	77.18052	27.8086
	77.17249	27.81618
	77.15063	27.81574
	77.15152	27.79165
	77.12655	27.77649
	77.11986	27.78942
	77.10112	27.78541
	77.07258	27.80949
	77.03824	27.8202
	77.02397	27.79834
	77.02084	27.77827
	77.03958	27.7747
	77.05028	27.76088
	77.06723	27.76355
	77.07927	27.73858
	77.0534	27.72787
	77.02887	27.74928
	77.01148	27.74661
	77.00345	27.73858
	76.99364	27.7417
	76.97892	27.70602
	76.97044	27.65696
	76.93432	27.67524
	76.92406	27.66053
	76.90533	27.65607
	76.8915	27.6797
	76.89462	27.68952
	76.8808	27.69933
	76.88303	27.70334
	76.90042	27.69442
	76.91469	27.70067
	76.90265	27.71628
	76.88347	27.7243
	76.89373	27.77916
	76.90666	27.80771
	76.90042	27.82109
	76.90399	27.83269
	76.92673	27.83402
	76.92629	27.89424
	76.93833	27.89602
	76.93878	27.91921
	76.91915	27.92501
	76.92495	27.97853
	76.91871	27.99771
	76.94636	28.0713
	76.96197	28.144
	76.9419	28.14891
	76.94145	28.15515
	76.92094	28.16229
	76.88743	28.18893
	76.88697	28.18868
	76.88678	28.18861
	76.88588	28.1882
	76.88529	28.18804
	76.88513	28.18802
	76.88309	28.18915
	76.8835	28.19144
	76.88364	28.19158
	76.88421	28.19196
	76.88572	28.19318
	76.88678	28.19454
	76.88796	28.19595
	76.88907	28.19656
	76.8891	28.19662
	76.88913	28.1966
	76.88921	28.19665
	76.8893	28.19666
	76.88968	28.19637
	76.89997	28.20466
	76.89685	28.20778
	76.86608	28.21135
	76.86385	28.22473
	76.85448	28.22518
	76.83352	28.22473
	76.82518	28.21639
	76.82368	28.2179
	76.8217	28.21792
	76.8213	28.21777
	76.8208	28.2178
	76.82022	28.2178
	76.81821	28.2158
	76.81821	28.21415
	76.80141	28.2118
	76.80542	28.2002
	76.79026	28.19395
	76.79605	28.17032
	76.79159	28.15738
	76.75502	28.14668
	76.73896	28.12884
	76.70997	28.13241
	76.69882	28.1159
	76.69035	28.11501
	76.68232	28.09762
	76.6511	28.09672
	76.64798	28.06773
	76.66002	28.01912
	76.63683	28.01064
	76.59892	28.00975
	76.5677	27.98344
	76.53826	27.9705
	76.53112	27.97942
	76.53826	28.00529
	76.5387	28.03919
	76.52577	28.04543
	76.50525	28.03517
	76.49232	28.04722
	76.46154	28.04454
	76.45352	28.04989
	76.45798	28.06194
	76.48385	28.05837
	76.49767	28.06461
	76.47002	28.08647
	76.45887	28.08513
	76.44861	28.09316
	76.4611	28.11189
	76.49767	28.10654
	76.49812	28.12259
	76.48697	28.12259
	76.48964	28.13374
	76.47002	28.13865
	76.47091	28.15471
	76.43701	28.15203
	76.4272	28.14579
	76.39687	28.14757
	76.39286	28.14088
	76.3768	28.1382
	76.36395	28.14226
	76.35969	28.13969
	76.3556	28.13719
	76.35472	28.13674
	76.35385	28.13639
	76.35294	28.13615
	76.34454	28.13435
	76.34404	28.13417
	76.34322	28.1337
	76.35539	28.12839
	76.33934	28.10966
	76.30836	28.1065
	76.30269	28.09948
	76.32507	28.09226
	76.33755	28.07309
	76.3545	28.07398
	76.34589	28.05267
	76.34618	28.05083
	76.34632	28.05085
	76.34637	28.0504
	76.3464	28.0499
	76.34642	28.04888
	76.34641	28.04815
	76.34639	28.04793
	76.34636	28.04772
	76.34621	28.04718
	76.34614	28.047
	76.34584	28.04653
	76.34565	28.04629
	76.34503	28.04561
	76.34505	28.04477
	76.34502	28.04368
	76.34504	28.04357
	76.34519	28.04331
	76.34455	28.04056
	76.34179	28.04121
	76.34159	28.04153
	76.34148	28.04174
	76.33666	28.02982
	76.31659	28.0209
	76.29697	28.02581
	76.29028	28.02982
	76.29028	28.049
	76.26485	28.06863
	76.24345	28.06907
	76.22052	28.04939
	76.20432	28.05188
	76.20552	28.05487
	76.17744	28.05926
	76.17699	28.049
	76.19349	28.03517
	76.2042	28.04231
	76.21163	28.04054
	76.21141	28.03908
	76.21139	28.03871
	76.21179	28.0375
	76.21183	28.03745
	76.21177	28.03686
	76.21179	28.03628
	76.21249	28.0355
	76.21228	28.03534
	76.21232	28.03529
	76.21273	28.03523
	76.21326	28.03464
	76.21336	28.03461
	76.2135	28.03513
	76.21383	28.03508
	76.21401	28.03161
	76.19572	28.02179
	76.17431	28.02179
	76.15513	27.99905
	76.16093	27.98032
	76.17967	27.97273
	76.16629	27.9152
	76.19884	27.89914
	76.19974	27.88799
	76.18903	27.87639
	76.19305	27.86391
	76.20509	27.85543
	76.20598	27.84785
	76.22337	27.84071
	76.20776	27.82867
	76.19394	27.83135
	76.17298	27.80726
	76.12793	27.83313
	76.12837	27.84696
	76.12213	27.85454
	76.08823	27.86837
	76.0802	27.85097
	76.06013	27.85722
	76.04943	27.84785
	76.00929	27.86257
	76.00527	27.85766
	75.9629	27.8648
	75.97361	27.87729
	75.97539	27.8929
	75.96736	27.89914
	75.97718	27.9094
	75.95577	27.91966
	75.92901	27.91698
	75.92365	27.93304
	75.93837	27.95088
	75.94462	27.94017
	75.96335	27.93705
	75.97316	27.95801
	75.96826	27.96247
	75.98699	27.98478
	75.95532	27.98879
	75.95621	28.00083
	75.97985	28.00128
	75.99056	28.0102
	75.97272	28.01823
	75.97004	28.03116
	75.9803	28.03874
	76.01018	28.03651
	76.00527	28.05435
	76.01687	28.05614
	76.0356	28.07398
	76.03114	28.08379
	76.01553	28.0887
	76.00171	28.0606
	75.97762	28.05212
	75.9745	28.05703
	75.98743	28.07041
	75.98208	28.08022
	75.93614	28.0936
	75.94239	28.10564
	75.97718	28.12705
	75.991	28.12839
	75.99457	28.15069
	76.02758	28.17255
	76.06638	28.16764
	76.06504	28.14445
	76.08779	28.14356
	76.09269	28.15515
	76.07485	28.17255
	76.06549	28.19886
	76.04497	28.20288
	76.053	28.22428
	76.01107	28.24168
	76.0075	28.25327
	76.01866	28.28093
	75.98654	28.29609
	75.96781	28.32419
	75.95488	28.31839
	75.95131	28.33356
	75.95095	28.33606
	75.93117	28.33906
	75.92722	28.34515
	75.92232	28.36879
	75.89734	28.37994
	75.89689	28.3902
	75.88931	28.39377
	75.88307	28.38663
	75.8349	28.39778
	75.82821	28.40893
	75.81795	28.40581
	75.81661	28.41161
	75.80279	28.41428
	75.78762	28.40447
	75.77023	28.40759
	75.77216	28.42265
	75.78495	28.43926
	75.78495	28.45086
	75.73499	28.47271
	75.73633	28.48698
	75.68994	28.49903
	75.67121	28.51687
	75.66408	28.52088
	75.66318	28.53605
	75.62929	28.54586
	75.61814	28.60206
	75.58513	28.60652
	75.5771	28.61677
	75.5557	28.61454
	75.54901	28.64309
	75.53964	28.64889
	75.52893	28.75013
	75.49861	28.7876
	75.51332	28.83666
	75.4879	28.85985
	75.48835	28.89821
	75.46694	28.92631
	75.46872	28.9379
	75.49771	28.94147
	75.50307	28.96154
	75.51645	28.97537
	75.51109	29.01105
	75.5053	29.01506
	75.47363	29.02041
	75.43483	29.0164
	75.44062	29.04138
	75.43037	29.06457
	75.38086	29.07037
	75.38086	29.11051
	75.39602	29.12835
	75.36123	29.14262
	75.36748	29.1502
	75.36882	29.16983
	75.38844	29.17072
	75.40048	29.18901
	75.41077	29.20226
	75.41062	29.2025
	75.39647	29.21354
	75.38621	29.22112
	75.39959	29.2403
	75.39558	29.26215
	75.37952	29.26394
	75.35811	29.25457
	75.35008	29.24743
	75.34518	29.22603
	75.31485	29.23584
	75.32332	29.25189
	75.33504	29.28671
	75.32202	29.28919
	75.31806	29.28365
	75.30496	29.27427
	75.27694	29.2733
	75.27159	29.25457
	75.23501	29.25189
	75.22342	29.23495
	75.21182	29.2345
	75.19532	29.24431
	75.18015	29.2684
	75.16975	29.2584
	75.16098	29.25368
	75.14759	29.24565
	75.1137	29.24297
	75.10835	29.22692
	75.06285	29.23896
	75.06553	29.24654
	75.05081	29.26884
	75.0499	29.28583
	75.04427	29.28643
	75.04345	29.28552
	75.04209	29.28487
	75.04069	29.28478
	75.04035	29.28479
	75.03893	29.28495
	75.03746	29.28517
	75.03601	29.28535
	75.03456	29.28543
	75.03284	29.2854
	75.02947	29.28521
	75.02946	29.28547
	75.02732	29.28646
	75.02757	29.28699
	75.02169	29.28657
	75.01598	29.28395
	75.01029	29.27757
	74.99104	29.27196
	74.98271	29.28069
	74.95313	29.28178
	74.9402	29.30497
	74.95488	29.32766
	74.957	29.3305
	74.93574	29.33797
	74.92727	29.36473
	74.88846	29.38659
	74.87062	29.38525
	74.86393	29.3964
	74.84118	29.40398
	74.80952	29.39863
	74.77607	29.36027
	74.75644	29.35581
	74.73191	29.35358
	74.7114	29.36875
	74.68865	29.36518
	74.65029	29.37232
	74.64182	29.33128
	74.59588	29.32816
	74.59677	29.36206
	74.57269	29.38659
	74.57001	29.40621
	74.55797	29.4187
	74.53121	29.42495
	74.52898	29.44948
	74.53478	29.46509
	74.5428	29.46643
	74.57893	29.45884
	74.61029	29.51133
	74.61461	29.52708
	74.56644	29.56366
	74.57536	29.62744
	74.58607	29.63546
	74.57848	29.65464
	74.60346	29.72154
	74.60525	29.75276
	74.58651	29.76838
	74.57804	29.76704
	74.57135	29.75321
	74.5379	29.75366
	74.52586	29.74117
	74.47189	29.74384
	74.4652	29.78755
	74.49151	29.82636
	74.53255	29.83929
	74.55351	29.86561
	74.53388	29.90262
	74.50489	29.90798
	74.51916	29.94321
END
END
