Italy_Veneto_Verona
1
	10.84152	45.83378
	10.8472	45.83155
	10.85442	45.82781
	10.85678	45.827
	10.85747	45.82679
	10.8597	45.82604
	10.86073	45.82564
	10.86191	45.82512
	10.86324	45.82465
	10.86384	45.82446
	10.86511	45.82399
	10.8661	45.82364
	10.86949	45.82228
	10.87296	45.82094
	10.87385	45.82052
	10.87451	45.82025
	10.87549	45.81978
	10.87626	45.81955
	10.87698	45.81931
	10.88048	45.8182
	10.88101	45.81805
	10.88219	45.81762
	10.88292	45.81734
	10.88331	45.81721
	10.88288	45.8159
	10.88381	45.8154
	10.88476	45.81484
	10.8852	45.81456
	10.88585	45.81419
	10.88712	45.81342
	10.88769	45.81288
	10.88781	45.81219
	10.8878	45.81177
	10.88754	45.81118
	10.88736	45.81085
	10.88701	45.81042
	10.88649	45.81003
	10.88549	45.8094
	10.88266	45.80784
	10.88218	45.80744
	10.88135	45.80668
	10.88108	45.80641
	10.88099	45.80605
	10.88054	45.80578
	10.88009	45.8056
	10.87987	45.80525
	10.87921	45.80491
	10.87906	45.80456
	10.87685	45.80324
	10.87677	45.80314
	10.87674	45.803
	10.87682	45.80152
	10.87685	45.79979
	10.87677	45.79958
	10.87629	45.799
	10.8763	45.79864
	10.87621	45.79832
	10.87576	45.79798
	10.87565	45.79791
	10.8756	45.79735
	10.87564	45.79685
	10.87572	45.79658
	10.87574	45.79646
	10.87565	45.79635
	10.8747	45.79572
	10.87427	45.79552
	10.8742	45.79546
	10.8741	45.79432
	10.87388	45.79333
	10.87365	45.79286
	10.87328	45.79145
	10.87309	45.79045
	10.87305	45.78994
	10.87304	45.78944
	10.87299	45.78894
	10.87288	45.78847
	10.87263	45.78786
	10.87311	45.78779
	10.87336	45.78785
	10.87367	45.78808
	10.874	45.78828
	10.87414	45.78831
	10.8749	45.78825
	10.87656	45.78815
	10.87701	45.78819
	10.87722	45.78788
	10.87713	45.78742
	10.87714	45.78717
	10.87726	45.78696
	10.87797	45.78646
	10.87821	45.78628
	10.8783	45.78619
	10.87836	45.78603
	10.87836	45.78577
	10.87829	45.78541
	10.87829	45.78504
	10.8784	45.7847
	10.87859	45.78448
	10.87908	45.78412
	10.87958	45.7838
	10.87997	45.78349
	10.88019	45.78327
	10.88043	45.78271
	10.88058	45.78226
	10.88063	45.78198
	10.88034	45.78156
	10.8803	45.78144
	10.88036	45.7813
	10.88055	45.78116
	10.881	45.78105
	10.88148	45.78095
	10.882	45.78077
	10.88242	45.78061
	10.88295	45.78029
	10.88351	45.77967
	10.88391	45.77925
	10.88487	45.77815
	10.88501	45.77695
	10.8851	45.77645
	10.88534	45.77597
	10.88548	45.77548
	10.88506	45.77457
	10.88453	45.77364
	10.8842	45.77314
	10.88388	45.77272
	10.88343	45.77232
	10.88309	45.77193
	10.88281	45.77185
	10.88237	45.77186
	10.88162	45.77195
	10.88031	45.77217
	10.87963	45.77236
	10.87777	45.77267
	10.87728	45.77227
	10.87679	45.77158
	10.87585	45.77001
	10.87576	45.76962
	10.87579	45.76892
	10.87586	45.76808
	10.87594	45.7674
	10.87619	45.76587
	10.87653	45.76436
	10.87157	45.76482
	10.8688	45.7652
	10.86835	45.76528
	10.86806	45.7652
	10.8677	45.76493
	10.86731	45.76452
	10.86702	45.76415
	10.8669	45.7639
	10.86682	45.7634
	10.8667	45.76305
	10.86656	45.7628
	10.86627	45.76249
	10.8659	45.762
	10.86567	45.76157
	10.86548	45.76135
	10.86533	45.76121
	10.86521	45.76104
	10.86515	45.76068
	10.86523	45.7601
	10.86518	45.75961
	10.86525	45.75899
	10.86533	45.75878
	10.86508	45.75827
	10.86498	45.75771
	10.86491	45.75705
	10.86476	45.75625
	10.8648	45.75599
	10.86492	45.7559
	10.86497	45.75573
	10.86491	45.75513
	10.86496	45.7548
	10.86465	45.75362
	10.86442	45.75303
	10.86438	45.75268
	10.86442	45.75244
	10.86439	45.75221
	10.86411	45.75184
	10.86407	45.75162
	10.86412	45.75111
	10.86411	45.75076
	10.86385	45.75032
	10.86375	45.75004
	10.86382	45.74958
	10.86382	45.749
	10.86271	45.74357
	10.85868	45.74378
	10.85835	45.74371
	10.85806	45.74345
	10.85777	45.74313
	10.85578	45.7423
	10.85534	45.742
	10.85511	45.74177
	10.8549	45.74145
	10.85461	45.74081
	10.85448	45.74026
	10.85428	45.73981
	10.85364	45.73844
	10.85291	45.73702
	10.85066	45.7361
	10.85029	45.73593
	10.84985	45.73552
	10.84957	45.73469
	10.84927	45.73321
	10.84917	45.73177
	10.84889	45.73094
	10.84852	45.72998
	10.84821	45.72923
	10.84804	45.72859
	10.84777	45.7278
	10.84737	45.72737
	10.84712	45.72717
	10.84651	45.72678
	10.84589	45.72608
	10.84541	45.72573
	10.84498	45.72532
	10.84449	45.7248
	10.84454	45.72407
	10.84473	45.7233
	10.84481	45.72277
	10.84357	45.72093
	10.84335	45.7205
	10.84374	45.71935
	10.84385	45.71889
	10.84392	45.7185
	10.84599	45.71791
	10.85045	45.71778
	10.85366	45.71781
	10.85558	45.7178
	10.85738	45.71777
	10.85834	45.7177
	10.86027	45.7175
	10.86115	45.71743
	10.86201	45.71732
	10.86519	45.71653
	10.86663	45.71641
	10.86791	45.71629
	10.86935	45.71613
	10.87066	45.71595
	10.87303	45.71565
	10.87334	45.71607
	10.87359	45.71672
	10.87396	45.71733
	10.87578	45.71718
	10.87693	45.71711
	10.87799	45.71709
	10.87855	45.71709
	10.87992	45.71722
	10.88104	45.71722
	10.88156	45.71719
	10.88306	45.71681
	10.88503	45.71642
	10.88528	45.71634
	10.88563	45.71615
	10.88626	45.71589
	10.88694	45.7157
	10.88898	45.71518
	10.88966	45.71499
	10.8914	45.71411
	10.89394	45.71253
	10.89393	45.71175
	10.89541	45.70911
	10.8983	45.70904
	10.89977	45.70883
	10.90239	45.70808
	10.90376	45.70779
	10.90468	45.70763
	10.90638	45.70704
	10.90889	45.70612
	10.91007	45.70561
	10.91103	45.7051
	10.9122	45.70426
	10.91364	45.70325
	10.91468	45.70248
	10.91509	45.70302
	10.91545	45.70332
	10.91572	45.70344
	10.91614	45.7037
	10.91669	45.70399
	10.91738	45.70422
	10.91764	45.70408
	10.91738	45.70396
	10.91715	45.70338
	10.91627	45.70217
	10.91634	45.70211
	10.91684	45.70192
	10.91724	45.70175
	10.91749	45.70156
	10.91762	45.70152
	10.91803	45.70122
	10.9184	45.70111
	10.91861	45.70096
	10.91854	45.70083
	10.91838	45.7007
	10.91868	45.70052
	10.91887	45.70046
	10.91969	45.70045
	10.92077	45.70047
	10.92294	45.70056
	10.92328	45.70052
	10.92378	45.70006
	10.92438	45.69976
	10.92471	45.69958
	10.92539	45.69918
	10.92609	45.69908
	10.92607	45.699
	10.92541	45.69826
	10.92496	45.6979
	10.92422	45.69722
	10.92369	45.69682
	10.92313	45.69651
	10.92018	45.69522
	10.91776	45.69424
	10.91602	45.69344
	10.91413	45.69234
	10.91364	45.692
	10.91332	45.69176
	10.9129	45.69137
	10.9125	45.69095
	10.91224	45.69061
	10.91213	45.68986
	10.91206	45.689
	10.91203	45.68847
	10.91208	45.68822
	10.91231	45.68806
	10.91291	45.68768
	10.91338	45.6872
	10.914	45.68664
	10.9146	45.68599
	10.91569	45.68486
	10.91643	45.6842
	10.91723	45.68395
	10.91805	45.68363
	10.91852	45.68313
	10.91907	45.6825
	10.91941	45.68208
	10.91964	45.68149
	10.92025	45.68019
	10.92188	45.67976
	10.92216	45.67974
	10.92307	45.67981
	10.92374	45.67952
	10.92538	45.67859
	10.92668	45.67782
	10.92756	45.67735
	10.92878	45.67749
	10.93045	45.67764
	10.93077	45.67739
	10.93128	45.67705
	10.93234	45.67623
	10.93398	45.67572
	10.93545	45.67445
	10.93626	45.6737
	10.93666	45.67339
	10.93837	45.67327
	10.9404	45.67308
	10.94205	45.673
	10.94299	45.67297
	10.94458	45.67397
	10.94478	45.67507
	10.94552	45.6756
	10.94562	45.67578
	10.94561	45.67602
	10.9452	45.67644
	10.94499	45.67663
	10.94501	45.67689
	10.94582	45.67771
	10.94613	45.67812
	10.94623	45.67862
	10.94621	45.6791
	10.94594	45.67956
	10.94563	45.67993
	10.94673	45.68128
	10.94726	45.68209
	10.94773	45.68263
	10.94848	45.6834
	10.94923	45.68412
	10.94971	45.68455
	10.95008	45.68478
	10.95062	45.6847
	10.95094	45.68453
	10.95141	45.68441
	10.95228	45.68442
	10.95378	45.68465
	10.9557	45.68483
	10.95753	45.6851
	10.9599	45.68523
	10.96019	45.68605
	10.96045	45.68658
	10.96065	45.68686
	10.96091	45.68714
	10.96115	45.68764
	10.96129	45.68778
	10.96177	45.68818
	10.96206	45.68839
	10.96238	45.68875
	10.96278	45.68912
	10.96279	45.68941
	10.96292	45.69033
	10.96303	45.69076
	10.96321	45.69126
	10.96318	45.69171
	10.96319	45.69208
	10.96322	45.69229
	10.96331	45.6927
	10.96337	45.69289
	10.96372	45.69351
	10.96478	45.69481
	10.96531	45.69527
	10.96582	45.69557
	10.9667	45.69584
	10.96794	45.69593
	10.96859	45.69593
	10.96871	45.69628
	10.96948	45.6976
	10.96956	45.69772
	10.97055	45.699
	10.97229	45.70173
	10.9726	45.70131
	10.97268	45.7011
	10.97275	45.70056
	10.97298	45.70007
	10.97325	45.69962
	10.97341	45.699
	10.973	45.69791
	10.97305	45.69776
	10.97332	45.69758
	10.97592	45.69799
	10.97624	45.69593
	10.97663	45.69585
	10.97646	45.6951
	10.97618	45.69427
	10.97605	45.69398
	10.97541	45.69318
	10.9749	45.6928
	10.97447	45.69254
	10.9739	45.69236
	10.97373	45.69233
	10.97327	45.69231
	10.97292	45.69233
	10.97272	45.69229
	10.97253	45.69223
	10.97173	45.69105
	10.97045	45.68923
	10.97017	45.68877
	10.96947	45.68734
	10.96901	45.68593
	10.96852	45.68461
	10.96862	45.68398
	10.96867	45.68348
	10.96862	45.6825
	10.9684	45.67992
	10.96904	45.68069
	10.96933	45.68116
	10.96971	45.68158
	10.97013	45.68198
	10.9707	45.68231
	10.97202	45.68295
	10.9739	45.68344
	10.97547	45.68408
	10.97755	45.68498
	10.97923	45.68559
	10.98068	45.68636
	10.98189	45.68698
	10.98243	45.68742
	10.9831	45.68769
	10.98458	45.68813
	10.98642	45.68872
	10.98712	45.6894
	10.98799	45.69013
	10.99021	45.69084
	10.98919	45.69209
	10.98886	45.69306
	10.9888	45.6936
	10.98879	45.69409
	10.98876	45.69449
	10.98892	45.6949
	10.98978	45.69514
	10.99222	45.69616
	10.99268	45.69634
	10.99477	45.69636
	10.99556	45.69641
	10.99687	45.69679
	10.99772	45.69693
	10.9981	45.69899
	10.99789	45.70186
	10.9978	45.70268
	10.99736	45.70301
	10.99577	45.704
	10.99554	45.70405
	10.99503	45.70409
	10.99443	45.70423
	10.99429	45.70435
	10.99413	45.70465
	10.99381	45.70534
	10.99346	45.70598
	10.99343	45.7063
	10.99328	45.70683
	10.99299	45.70704
	10.9927	45.70737
	10.99267	45.70755
	10.99278	45.7079
	10.99304	45.70817
	10.99499	45.70803
	10.9962	45.70789
	10.99658	45.7073
	10.99679	45.70704
	10.99698	45.70697
	10.99724	45.70703
	10.99906	45.70752
	11.00161	45.70826
	11.00151	45.70917
	11.00149	45.71084
	11.00304	45.71077
	11.00376	45.71068
	11.00441	45.71046
	11.0055	45.71038
	11.00764	45.71033
	11.00802	45.7115
	11.0092	45.71207
	11.0093	45.71222
	11.00972	45.71257
	11.01027	45.71287
	11.01066	45.71312
	11.01117	45.71367
	11.01153	45.71412
	11.01185	45.71455
	11.01199	45.7148
	11.01195	45.71555
	11.01179	45.71633
	11.01155	45.71885
	11.01469	45.71887
	11.01513	45.71891
	11.01542	45.71895
	11.01604	45.71917
	11.0165	45.71931
	11.01711	45.71937
	11.01724	45.71926
	11.01747	45.71883
	11.01765	45.71825
	11.01761	45.71783
	11.01745	45.71702
	11.01728	45.71641
	11.01699	45.71555
	11.01673	45.71446
	11.01634	45.71393
	11.01616	45.71378
	11.01586	45.71356
	11.01562	45.71341
	11.01535	45.71276
	11.01505	45.71193
	11.01516	45.71124
	11.0153	45.71091
	11.01566	45.71017
	11.01594	45.70954
	11.01614	45.70893
	11.01621	45.7084
	11.01622	45.70777
	11.01621	45.70708
	11.01647	45.70615
	11.01655	45.70564
	11.01727	45.70607
	11.01773	45.70623
	11.01797	45.70627
	11.01831	45.70615
	11.01873	45.70585
	11.0222	45.70544
	11.02313	45.7053
	11.02413	45.7052
	11.02448	45.70515
	11.02453	45.70508
	11.02557	45.70472
	11.02628	45.70463
	11.02728	45.7046
	11.02775	45.70463
	11.02873	45.70518
	11.02916	45.70536
	11.02947	45.70544
	11.03015	45.70553
	11.03113	45.70569
	11.03138	45.70574
	11.03246	45.7063
	11.03363	45.70694
	11.03402	45.70712
	11.03411	45.70715
	11.03515	45.70719
	11.03558	45.70718
	11.03571	45.70712
	11.03761	45.70696
	11.038	45.70694
	11.0385	45.70699
	11.03879	45.70698
	11.03951	45.70679
	11.04186	45.70612
	11.04398	45.70807
	11.04493	45.70889
	11.04565	45.70948
	11.04637	45.71011
	11.04672	45.71049
	11.04696	45.71082
	11.04817	45.71194
	11.0492	45.71298
	11.05013	45.71387
	11.05104	45.71467
	11.05216	45.71584
	11.05285	45.71648
	11.05348	45.71662
	11.05419	45.71682
	11.0554	45.7172
	11.05553	45.71728
	11.05564	45.71747
	11.05556	45.71772
	11.05553	45.71787
	11.0557	45.71802
	11.05588	45.71815
	11.05603	45.71824
	11.05623	45.71833
	11.05649	45.71838
	11.05676	45.7183
	11.05695	45.71811
	11.0572	45.7178
	11.05764	45.71765
	11.05781	45.71751
	11.05807	45.71715
	11.05818	45.71666
	11.05821	45.71634
	11.05832	45.71608
	11.0585	45.71589
	11.05883	45.71536
	11.05904	45.71487
	11.05925	45.7145
	11.05959	45.7141
	11.06006	45.71377
	11.06059	45.71348
	11.06118	45.71309
	11.06173	45.71261
	11.06209	45.71218
	11.06249	45.71181
	11.06302	45.71156
	11.06364	45.71134
	11.06394	45.71118
	11.06406	45.71104
	11.06479	45.70921
	11.06496	45.7089
	11.06506	45.70874
	11.06554	45.70839
	11.066	45.70818
	11.06734	45.70803
	11.06796	45.70785
	11.06833	45.70768
	11.06869	45.70745
	11.06909	45.70704
	11.0701	45.70616
	11.07038	45.70602
	11.07069	45.70593
	11.07093	45.70583
	11.07248	45.70374
	11.0734	45.70328
	11.07392	45.70297
	11.07436	45.70287
	11.07462	45.70288
	11.07592	45.70316
	11.0766	45.70332
	11.07709	45.70341
	11.07734	45.70334
	11.07775	45.7031
	11.07875	45.70243
	11.07966	45.70172
	11.08016	45.70137
	11.08065	45.70106
	11.0812	45.70086
	11.08163	45.70061
	11.08196	45.70033
	11.0824	45.69989
	11.08352	45.69912
	11.08393	45.6988
	11.08454	45.69842
	11.08506	45.69818
	11.08539	45.69801
	11.08603	45.6975
	11.08655	45.69743
	11.08667	45.69745
	11.08674	45.69749
	11.08677	45.69756
	11.08655	45.69782
	11.08654	45.69789
	11.0866	45.69792
	11.08681	45.69793
	11.08688	45.69789
	11.08716	45.69757
	11.08721	45.69758
	11.0873	45.69771
	11.08736	45.69776
	11.08747	45.69775
	11.08799	45.69685
	11.08821	45.69651
	11.08836	45.69635
	11.08858	45.6962
	11.08885	45.69608
	11.08895	45.69605
	11.08909	45.69604
	11.09005	45.69606
	11.09033	45.69603
	11.09046	45.696
	11.09085	45.69582
	11.09108	45.6956
	11.09128	45.69547
	11.09152	45.69534
	11.09186	45.69519
	11.09225	45.69513
	11.09242	45.69509
	11.09253	45.69502
	11.09292	45.69469
	11.09324	45.69433
	11.09399	45.69327
	11.09444	45.69247
	11.09453	45.69237
	11.09459	45.69233
	11.09467	45.69234
	11.09521	45.69255
	11.09535	45.69258
	11.09549	45.69257
	11.0958	45.69246
	11.09602	45.69248
	11.09673	45.69279
	11.09695	45.6929
	11.09708	45.69292
	11.09715	45.69292
	11.09778	45.69272
	11.09855	45.69279
	11.09919	45.69292
	11.09931	45.69297
	11.09938	45.69302
	11.0996	45.69363
	11.09969	45.69371
	11.09997	45.69379
	11.10008	45.69384
	11.10014	45.69392
	11.10019	45.69415
	11.10018	45.69455
	11.10025	45.69479
	11.10033	45.69487
	11.10046	45.69493
	11.10059	45.69496
	11.10101	45.69495
	11.10118	45.69496
	11.1013	45.695
	11.10136	45.69503
	11.10165	45.69544
	11.10175	45.69553
	11.10192	45.69561
	11.10209	45.69567
	11.10249	45.69573
	11.10272	45.69572
	11.10301	45.69566
	11.10342	45.69553
	11.10389	45.69534
	11.1042	45.69527
	11.10432	45.69526
	11.10479	45.69535
	11.10543	45.69536
	11.1061	45.69535
	11.10658	45.69529
	11.10703	45.6952
	11.10789	45.69498
	11.10794	45.69496
	11.10811	45.69476
	11.10819	45.69474
	11.1083	45.69475
	11.10865	45.69492
	11.1088	45.69493
	11.10907	45.69478
	11.10916	45.69477
	11.10921	45.69478
	11.10943	45.69493
	11.1095	45.69492
	11.10963	45.69486
	11.11007	45.6945
	11.11056	45.69491
	11.11112	45.69534
	11.11161	45.69562
	11.112	45.69581
	11.11317	45.69627
	11.11333	45.69631
	11.11353	45.69632
	11.11436	45.69626
	11.11509	45.69618
	11.11565	45.69609
	11.11636	45.69595
	11.11686	45.69591
	11.11864	45.69588
	11.11954	45.69579
	11.12016	45.6958
	11.12048	45.69582
	11.12173	45.69593
	11.12217	45.69589
	11.12271	45.69577
	11.12312	45.69564
	11.12283	45.69542
	11.12276	45.6953
	11.12276	45.69501
	11.1228	45.69485
	11.12279	45.69471
	11.1227	45.69463
	11.1227	45.69461
	11.12273	45.69454
	11.12284	45.69445
	11.12295	45.69428
	11.12316	45.69404
	11.12331	45.69391
	11.12349	45.69386
	11.12354	45.69382
	11.12357	45.69375
	11.12362	45.69346
	11.12373	45.69333
	11.12373	45.69315
	11.12377	45.69309
	11.12391	45.69297
	11.12399	45.69285
	11.12344	45.69188
	11.12328	45.69088
	11.12309	45.68985
	11.12297	45.68972
	11.12269	45.6896
	11.12256	45.68949
	11.12259	45.68913
	11.12265	45.689
	11.12341	45.68928
	11.12402	45.68954
	11.12581	45.69056
	11.12652	45.69107
	11.12694	45.6913
	11.12728	45.69134
	11.12797	45.69138
	11.12823	45.69141
	11.12859	45.69151
	11.12956	45.69183
	11.13115	45.69224
	11.1321	45.69284
	11.13608	45.69559
	11.13699	45.69587
	11.13796	45.69642
	11.13826	45.69708
	11.13871	45.69663
	11.13904	45.69621
	11.13928	45.69563
	11.14146	45.69
	11.14121	45.68906
	11.14062	45.68813
	11.14043	45.68773
	11.14469	45.68365
	11.1482	45.68424
	11.14877	45.68437
	11.14924	45.68472
	11.14934	45.68517
	11.15006	45.68555
	11.15196	45.68576
	11.15416	45.68549
	11.15581	45.68525
	11.15759	45.68051
	11.15496	45.67245
	11.1537	45.66941
	11.15181	45.66469
	11.15191	45.66422
	11.15279	45.6623
	11.15385	45.66036
	11.15395	45.65968
	11.15371	45.65902
	11.15136	45.65563
	11.15071	45.65502
	11.15048	45.65483
	11.15015	45.65453
	11.14907	45.65363
	11.14875	45.65319
	11.14863	45.65254
	11.1489	45.65207
	11.14928	45.65164
	11.15003	45.65124
	11.15114	45.65094
	11.15226	45.65066
	11.1535	45.6502
	11.15446	45.64982
	11.15684	45.64822
	11.15727	45.64771
	11.15752	45.64731
	11.15768	45.64656
	11.15783	45.64595
	11.15838	45.64404
	11.15868	45.64338
	11.15997	45.64071
	11.16042	45.64028
	11.16126	45.63987
	11.16205	45.63959
	11.16315	45.63917
	11.16395	45.63875
	11.16432	45.63841
	11.16689	45.63427
	11.16768	45.63205
	11.16711	45.63189
	11.16744	45.63072
	11.16692	45.62976
	11.16692	45.6297
	11.16803	45.62802
	11.16798	45.62797
	11.16819	45.62777
	11.16827	45.62765
	11.16837	45.62762
	11.16841	45.62757
	11.16878	45.6273
	11.16909	45.62714
	11.16928	45.62699
	11.16981	45.62671
	11.17003	45.62663
	11.17052	45.62652
	11.17067	45.6265
	11.17104	45.62651
	11.17129	45.62653
	11.1717	45.62661
	11.1719	45.62667
	11.17232	45.62686
	11.17295	45.62723
	11.17331	45.62782
	11.17407	45.62799
	11.17467	45.62802
	11.17502	45.62798
	11.17576	45.62798
	11.17711	45.62746
	11.17738	45.6272
	11.17797	45.62623
	11.17801	45.62607
	11.17796	45.62564
	11.17862	45.62449
	11.17861	45.62426
	11.17848	45.62389
	11.17852	45.62376
	11.17873	45.62373
	11.1797	45.62337
	11.17977	45.62333
	11.18245	45.62338
	11.18284	45.623
	11.18314	45.62186
	11.18335	45.62191
	11.18345	45.62152
	11.18343	45.62049
	11.18332	45.62011
	11.18257	45.61951
	11.18322	45.61926
	11.18478	45.6191
	11.1857	45.61936
	11.18651	45.61975
	11.1875	45.62042
	11.189	45.62112
	11.18968	45.62134
	11.19056	45.6216
	11.19128	45.6216
	11.19137	45.62157
	11.19152	45.62171
	11.19147	45.62175
	11.19159	45.62191
	11.19171	45.62202
	11.1917	45.62204
	11.19175	45.62206
	11.19217	45.62246
	11.19255	45.62268
	11.19359	45.62318
	11.19383	45.62326
	11.19419	45.62335
	11.19488	45.62345
	11.196	45.62423
	11.19596	45.62428
	11.19614	45.62442
	11.19625	45.62448
	11.19624	45.62449
	11.19628	45.6245
	11.19652	45.62464
	11.1967	45.62472
	11.19727	45.62492
	11.19757	45.625
	11.19801	45.62506
	11.19844	45.62509
	11.19857	45.62515
	11.19865	45.62526
	11.19893	45.62555
	11.19951	45.62605
	11.19988	45.62632
	11.20025	45.62644
	11.20052	45.6268
	11.20143	45.62746
	11.2015	45.62749
	11.2015	45.62748
	11.202	45.62781
	11.20219	45.62787
	11.20255	45.62794
	11.20283	45.62798
	11.20324	45.62798
	11.2034	45.62799
	11.20376	45.62803
	11.2039	45.62807
	11.20432	45.62813
	11.20489	45.62815
	11.20518	45.6282
	11.20566	45.62826
	11.20575	45.62826
	11.20585	45.6284
	11.20557	45.62936
	11.2056	45.62957
	11.20723	45.63017
	11.20737	45.63035
	11.20747	45.63034
	11.20756	45.6303
	11.20884	45.63077
	11.20908	45.63057
	11.20969	45.6303
	11.20987	45.63018
	11.21002	45.63026
	11.21079	45.63047
	11.21161	45.63052
	11.21163	45.63028
	11.21383	45.6299
	11.21334	45.62711
	11.21313	45.62697
	11.21388	45.62673
	11.21478	45.62637
	11.21533	45.6261
	11.21563	45.62555
	11.21561	45.62465
	11.21549	45.6244
	11.21412	45.62073
	11.21423	45.61766
	11.21595	45.61363
	11.21813	45.60953
	11.2193	45.60477
	11.22317	45.60206
	11.22659	45.60195
	11.2278	45.60218
	11.22893	45.60265
	11.2297	45.60289
	11.2307	45.6029
	11.23579	45.60168
	11.23646	45.60145
	11.23686	45.601
	11.23916	45.59123
	11.24463	45.58885
	11.24513	45.58853
	11.24549	45.58801
	11.24562	45.58764
	11.2475	45.5782
	11.2446	45.5614
	11.24484	45.56031
	11.24521	45.55915
	11.24547	45.55849
	11.24749	45.55388
	11.25185	45.54457
	11.25207	45.545
	11.25228	45.54488
	11.25257	45.54586
	11.25262	45.54591
	11.25415	45.5463
	11.25425	45.54629
	11.25577	45.54512
	11.25589	45.54483
	11.25599	45.54474
	11.25623	45.54445
	11.25672	45.5443
	11.25705	45.54415
	11.25755	45.54382
	11.25778	45.54361
	11.25841	45.54255
	11.25841	45.54253
	11.25862	45.54244
	11.25882	45.5423
	11.25926	45.54189
	11.25939	45.54172
	11.25966	45.53971
	11.25964	45.53967
	11.25975	45.53958
	11.25995	45.53933
	11.26023	45.53889
	11.26038	45.53856
	11.26052	45.53812
	11.25986	45.537
	11.26518	45.53299
	11.27186	45.52793
	11.27204	45.52847
	11.27208	45.5285
	11.27321	45.52891
	11.27328	45.52891
	11.27439	45.52863
	11.27444	45.5286
	11.27504	45.52806
	11.27563	45.52725
	11.27549	45.52715
	11.27651	45.52523
	11.27614	45.52504
	11.27776	45.52455
	11.27867	45.52442
	11.27948	45.52441
	11.28003	45.5242
	11.28053	45.52372
	11.28168	45.52131
	11.28184	45.52083
	11.28191	45.52046
	11.28233	45.51522
	11.28259	45.51527
	11.28313	45.51248
	11.28365	45.51245
	11.28369	45.51244
	11.28377	45.51247
	11.28409	45.51254
	11.28439	45.51259
	11.28473	45.51261
	11.28562	45.51247
	11.28581	45.5124
	11.28692	45.51105
	11.29399	45.50706
	11.29724	45.50462
	11.2976	45.50446
	11.30651	45.50253
	11.30684	45.50244
	11.31802	45.5003
	11.31928	45.50012
	11.32124	45.49987
	11.32481	45.4949
	11.32482	45.49243
	11.32494	45.49134
	11.32503	45.48787
	11.32687	45.48663
	11.32804	45.48613
	11.32931	45.48347
	11.32736	45.48165
	11.3242	45.47541
	11.32398	45.47472
	11.3241	45.47392
	11.32461	45.4724
	11.32498	45.47137
	11.32519	45.47085
	11.32585	45.47051
	11.32674	45.47008
	11.32715	45.46959
	11.32937	45.46649
	11.32972	45.46589
	11.33003	45.465
	11.32804	45.46131
	11.3276	45.46115
	11.32709	45.46094
	11.32677	45.46079
	11.32603	45.46062
	11.31964	45.45657
	11.32319	45.45535
	11.3255	45.45509
	11.32943	45.44907
	11.32971	45.44843
	11.3305	45.44627
	11.3308	45.44534
	11.32992	45.44344
	11.32304	45.43896
	11.32188	45.43868
	11.32207	45.43772
	11.32215	45.43717
	11.32161	45.43682
	11.3209	45.4369
	11.32031	45.43691
	11.31919	45.43717
	11.3187	45.43727
	11.31838	45.43729
	11.31804	45.43593
	11.31919	45.43546
	11.31854	45.43434
	11.31875	45.43427
	11.31825	45.43277
	11.31847	45.43279
	11.31891	45.43292
	11.31927	45.43297
	11.31973	45.43299
	11.32001	45.43299
	11.32056	45.43303
	11.32111	45.43297
	11.32115	45.43351
	11.32191	45.43347
	11.32192	45.43255
	11.32274	45.43271
	11.32286	45.43257
	11.32331	45.43272
	11.32431	45.43292
	11.32462	45.43258
	11.3246	45.43241
	11.32313	45.43198
	11.32536	45.42773
	11.32529	45.42762
	11.32511	45.42744
	11.32437	45.42694
	11.32412	45.4268
	11.32385	45.42658
	11.3243	45.42664
	11.32519	45.42684
	11.32594	45.42716
	11.32667	45.42773
	11.32759	45.42879
	11.32888	45.43008
	11.32896	45.4304
	11.32929	45.43126
	11.32982	45.43197
	11.33165	45.43376
	11.33192	45.43373
	11.33323	45.43328
	11.33367	45.43271
	11.33451	45.43173
	11.33588	45.43023
	11.33603	45.42997
	11.3361	45.42959
	11.33544	45.42914
	11.33576	45.42892
	11.33552	45.42869
	11.33563	45.42846
	11.33541	45.42833
	11.33487	45.42786
	11.33522	45.42709
	11.33579	45.42635
	11.33583	45.42597
	11.33745	45.4267
	11.33856	45.42527
	11.33881	45.42577
	11.34135	45.42453
	11.34232	45.42171
	11.34234	45.42049
	11.34224	45.42015
	11.34202	45.41919
	11.34189	45.41883
	11.34174	45.41851
	11.3415	45.41808
	11.34146	45.41797
	11.34134	45.41774
	11.34115	45.41742
	11.34095	45.41714
	11.34081	45.41697
	11.34091	45.41631
	11.34148	45.4163
	11.34166	45.41555
	11.34178	45.41495
	11.34224	45.4134
	11.34227	45.41335
	11.34174	45.41332
	11.34176	45.41296
	11.34152	45.41269
	11.34139	45.41251
	11.34118	45.41218
	11.34101	45.41186
	11.3409	45.4116
	11.34074	45.41102
	11.34069	45.41067
	11.34068	45.4104
	11.3407	45.40999
	11.34074	45.40975
	11.34085	45.4093
	11.34091	45.4091
	11.34105	45.40876
	11.34151	45.40792
	11.34167	45.40758
	11.34189	45.40718
	11.34219	45.40673
	11.34224	45.40643
	11.34236	45.4059
	11.34224	45.40561
	11.34212	45.40525
	11.34199	45.40461
	11.34204	45.4037
	11.34211	45.40347
	11.34229	45.40305
	11.34245	45.4026
	11.34267	45.4019
	11.34272	45.40167
	11.34278	45.40148
	11.34299	45.40099
	11.34309	45.40048
	11.34322	45.40005
	11.34329	45.39987
	11.34345	45.39962
	11.3435	45.39941
	11.34356	45.39927
	11.34347	45.39821
	11.34347	45.3978
	11.34328	45.39743
	11.34212	45.39758
	11.34086	45.39771
	11.33959	45.3978
	11.3388	45.39791
	11.3388	45.39794
	11.33757	45.39806
	11.33736	45.39805
	11.33649	45.39818
	11.33504	45.39845
	11.33479	45.39803
	11.33495	45.398
	11.33488	45.3964
	11.3347	45.39612
	11.33421	45.39507
	11.33414	45.39475
	11.33424	45.39444
	11.33418	45.3941
	11.33438	45.39382
	11.33404	45.39313
	11.33378	45.39276
	11.33349	45.39184
	11.33307	45.39135
	11.33324	45.39096
	11.33325	45.39077
	11.33313	45.39065
	11.33244	45.39052
	11.33233	45.39044
	11.33236	45.39028
	11.33235	45.39008
	11.33179	45.38889
	11.33182	45.38843
	11.33168	45.38814
	11.3314	45.38777
	11.33117	45.38764
	11.33093	45.38742
	11.33088	45.38725
	11.33089	45.38707
	11.33103	45.38694
	11.33122	45.38691
	11.33149	45.38692
	11.33224	45.38674
	11.3336	45.38632
	11.33503	45.38594
	11.33523	45.38603
	11.33534	45.38597
	11.33557	45.38595
	11.33575	45.38587
	11.33608	45.38558
	11.33642	45.38544
	11.33737	45.38487
	11.33745	45.38475
	11.33749	45.38463
	11.33837	45.38423
	11.33903	45.38425
	11.34033	45.3833
	11.34051	45.38311
	11.34055	45.3829
	11.3404	45.38275
	11.34034	45.382
	11.34018	45.38186
	11.34015	45.38168
	11.34003	45.38153
	11.33973	45.38135
	11.33966	45.38127
	11.33973	45.38112
	11.33987	45.38105
	11.33995	45.38097
	11.33994	45.38086
	11.3398	45.38072
	11.33976	45.38059
	11.33986	45.38055
	11.34043	45.38052
	11.34056	45.38047
	11.34067	45.38034
	11.34065	45.38014
	11.34048	45.37994
	11.34048	45.3798
	11.34074	45.37938
	11.34094	45.37924
	11.34096	45.37905
	11.34102	45.37891
	11.34118	45.37882
	11.34128	45.37881
	11.34182	45.37885
	11.34189	45.37872
	11.34198	45.37843
	11.34216	45.37825
	11.34232	45.37803
	11.3426	45.37718
	11.34281	45.37696
	11.34316	45.37678
	11.34356	45.37645
	11.34389	45.37609
	11.34418	45.37598
	11.34582	45.37603
	11.34685	45.37554
	11.34769	45.37512
	11.34901	45.37474
	11.35043	45.37413
	11.35089	45.37392
	11.35112	45.37383
	11.35281	45.37379
	11.35272	45.37369
	11.35231	45.37344
	11.35217	45.37324
	11.35222	45.37266
	11.35257	45.37239
	11.353	45.37218
	11.35321	45.3719
	11.35298	45.36949
	11.35316	45.36917
	11.35314	45.36879
	11.3534	45.36864
	11.3534	45.36838
	11.35299	45.36778
	11.35298	45.36741
	11.35229	45.36632
	11.35235	45.36603
	11.353	45.36573
	11.35347	45.36545
	11.35393	45.36488
	11.35422	45.36389
	11.35406	45.36345
	11.35412	45.36274
	11.35386	45.36225
	11.3538	45.36139
	11.3534	45.36082
	11.35342	45.36056
	11.35342	45.36017
	11.35352	45.3598
	11.35373	45.35945
	11.35437	45.35865
	11.3547	45.35736
	11.35459	45.35683
	11.35461	45.35601
	11.35479	45.35525
	11.35423	45.35415
	11.35434	45.35353
	11.35439	45.35337
	11.35371	45.35329
	11.35231	45.35215
	11.35178	45.35225
	11.3511	45.35226
	11.35061	45.35235
	11.35057	45.35126
	11.35075	45.3507
	11.35076	45.35011
	11.35095	45.34933
	11.35106	45.34911
	11.35131	45.34884
	11.35127	45.34863
	11.35132	45.34855
	11.35195	45.34853
	11.3521	45.34845
	11.35224	45.34807
	11.35243	45.34789
	11.35386	45.34775
	11.35598	45.34775
	11.3583	45.34807
	11.35782	45.34879
	11.35776	45.34927
	11.36154	45.34948
	11.36497	45.3496
	11.36658	45.34953
	11.36687	45.34964
	11.36709	45.34976
	11.36815	45.34974
	11.37042	45.34987
	11.37088	45.34809
	11.37284	45.34825
	11.37274	45.34889
	11.37537	45.3491
	11.37816	45.3493
	11.37972	45.34971
	11.38028	45.34953
	11.38554	45.34928
	11.38661	45.34925
	11.3867	45.34764
	11.38805	45.34767
	11.38828	45.34778
	11.38835	45.34812
	11.39009	45.34814
	11.3918	45.3479
	11.39251	45.34792
	11.39241	45.34713
	11.3924	45.34675
	11.39249	45.34532
	11.39267	45.34461
	11.39294	45.34403
	11.39316	45.34324
	11.39337	45.34274
	11.39366	45.34226
	11.39386	45.34198
	11.39429	45.34148
	11.39447	45.34129
	11.39445	45.34104
	11.39445	45.3407
	11.3946	45.33994
	11.3949	45.33921
	11.39527	45.33841
	11.39543	45.33814
	11.39579	45.33761
	11.39602	45.33706
	11.3963	45.33633
	11.39678	45.33486
	11.39725	45.33259
	11.39722	45.33199
	11.39722	45.33103
	11.39777	45.32965
	11.39811	45.32929
	11.39827	45.32916
	11.39845	45.32865
	11.39864	45.32828
	11.39881	45.32779
	11.39902	45.32736
	11.39926	45.327
	11.40203	45.32641
	11.40261	45.32918
	11.40251	45.32934
	11.40226	45.32999
	11.40212	45.33026
	11.40201	45.33075
	11.40122	45.33191
	11.40126	45.33259
	11.40122	45.33315
	11.40068	45.33578
	11.40009	45.33762
	11.39974	45.33854
	11.39939	45.33937
	11.39915	45.3398
	11.39883	45.34024
	11.39846	45.34108
	11.39849	45.34152
	11.39834	45.34243
	11.39805	45.34313
	11.39767	45.34371
	11.397	45.34446
	11.39694	45.34456
	11.39676	45.34524
	11.39664	45.34556
	11.39645	45.34597
	11.39641	45.34667
	11.40159	45.3453
	11.40137	45.34452
	11.40161	45.3439
	11.40189	45.34399
	11.40204	45.34437
	11.40311	45.34449
	11.40348	45.34333
	11.40622	45.34355
	11.40627	45.34334
	11.40657	45.34336
	11.407	45.34211
	11.40798	45.34227
	11.40818	45.34208
	11.40833	45.34159
	11.40842	45.34114
	11.40892	45.34114
	11.41014	45.34095
	11.41125	45.34068
	11.41258	45.34047
	11.41388	45.34036
	11.41393	45.34025
	11.41709	45.33915
	11.42152	45.33756
	11.42188	45.33737
	11.42478	45.33592
	11.42522	45.33557
	11.42622	45.33487
	11.42673	45.33458
	11.42711	45.33438
	11.42977	45.33529
	11.45173	45.32538
	11.45139	45.32489
	11.45108	45.32422
	11.45109	45.32299
	11.45112	45.3229
	11.45132	45.32262
	11.45105	45.32235
	11.45096	45.32229
	11.45074	45.3221
	11.45046	45.32182
	11.45035	45.32169
	11.4499	45.3211
	11.44967	45.32073
	11.44952	45.32045
	11.44878	45.31945
	11.44837	45.31894
	11.44825	45.31877
	11.44801	45.31839
	11.44787	45.31812
	11.44742	45.31723
	11.44708	45.31649
	11.44268	45.31719
	11.44124	45.31755
	11.43955	45.31781
	11.43858	45.31793
	11.43448	45.31705
	11.43371	45.31632
	11.43243	45.3145
	11.43207	45.3131
	11.43367	45.30864
	11.44138	45.3038
	11.44347	45.30295
	11.45018	45.30057
	11.45425	45.29904
	11.46121	45.2964
	11.46273	45.2958
	11.46364	45.29539
	11.47247	45.29012
	11.47315	45.28884
	11.47803	45.28771
	11.4796	45.28742
	11.48168	45.28706
	11.48359	45.28687
	11.48542	45.28689
	11.48652	45.28695
	11.48786	45.28681
	11.4887	45.28659
	11.48926	45.2862
	11.49211	45.28357
	11.48966	45.27123
	11.48932	45.26992
	11.48799	45.26777
	11.48552	45.26709
	11.48363	45.26359
	11.48124	45.26134
	11.48105	45.26115
	11.48085	45.26088
	11.48057	45.26039
	11.48044	45.26001
	11.48007	45.25848
	11.47918	45.25845
	11.47884	45.25846
	11.47789	45.2588
	11.47733	45.25896
	11.47573	45.25937
	11.47436	45.25987
	11.47376	45.26007
	11.47194	45.26045
	11.47124	45.26058
	11.47082	45.2607
	11.47045	45.26084
	11.46997	45.26111
	11.46976	45.2612
	11.46946	45.26129
	11.4683	45.2614
	11.46773	45.26144
	11.46727	45.2615
	11.46691	45.26158
	11.46577	45.26198
	11.46502	45.26165
	11.46475	45.26215
	11.46429	45.2625
	11.464	45.26265
	11.46362	45.26281
	11.46322	45.26295
	11.46293	45.26303
	11.46267	45.26308
	11.46234	45.26311
	11.46184	45.26311
	11.46043	45.26297
	11.45889	45.26286
	11.45817	45.26274
	11.45775	45.2627
	11.45751	45.26271
	11.45697	45.26276
	11.45653	45.26276
	11.45464	45.26255
	11.45411	45.26259
	11.45266	45.26274
	11.45161	45.26283
	11.45157	45.26235
	11.44975	45.26227
	11.44981	45.26088
	11.44793	45.26047
	11.44752	45.26043
	11.44718	45.26042
	11.44647	45.26032
	11.44617	45.26024
	11.4459	45.26007
	11.44543	45.2597
	11.44523	45.25959
	11.44485	45.25949
	11.44458	45.2594
	11.44369	45.25899
	11.44367	45.25899
	11.44272	45.25847
	11.44242	45.25837
	11.44209	45.25831
	11.44144	45.25833
	11.43941	45.2588
	11.43797	45.25888
	11.43738	45.25888
	11.43717	45.25882
	11.43619	45.25849
	11.43483	45.25795
	11.43447	45.25775
	11.43398	45.25717
	11.43383	45.25695
	11.43364	45.25688
	11.4328	45.25682
	11.43166	45.25663
	11.4311	45.25649
	11.43078	45.25631
	11.43021	45.2558
	11.42964	45.25521
	11.42883	45.25443
	11.42821	45.25385
	11.42809	45.25377
	11.42759	45.25479
	11.42743	45.25484
	11.42695	45.25503
	11.42659	45.25521
	11.42648	45.25529
	11.42637	45.2554
	11.42611	45.25562
	11.42586	45.25579
	11.42565	45.2559
	11.42532	45.25604
	11.42499	45.25614
	11.42478	45.25618
	11.42446	45.25621
	11.42408	45.25621
	11.42397	45.2562
	11.42353	45.25614
	11.42325	45.25606
	11.42286	45.25648
	11.42246	45.25686
	11.42201	45.25722
	11.42123	45.2578
	11.42096	45.25796
	11.42073	45.25806
	11.42037	45.25817
	11.42005	45.25823
	11.41959	45.25849
	11.41907	45.25892
	11.41863	45.25917
	11.41826	45.25931
	11.4177	45.25943
	11.41734	45.25946
	11.41604	45.25947
	11.41541	45.25975
	11.41495	45.25993
	11.41431	45.26011
	11.41369	45.26054
	11.41336	45.26072
	11.41313	45.26083
	11.41254	45.26103
	11.41199	45.26117
	11.41134	45.26173
	11.41069	45.26221
	11.41043	45.26238
	11.40913	45.2631
	11.4088	45.26325
	11.40835	45.26343
	11.40745	45.26438
	11.40708	45.26464
	11.40676	45.2648
	11.40655	45.26487
	11.40615	45.26498
	11.40576	45.26506
	11.40546	45.26514
	11.40524	45.26524
	11.40438	45.26568
	11.40414	45.26582
	11.40404	45.26591
	11.40122	45.26565
	11.40144	45.26326
	11.40123	45.26298
	11.40086	45.26264
	11.40055	45.26191
	11.40007	45.26063
	11.39992	45.26047
	11.39982	45.26043
	11.39876	45.26017
	11.39876	45.26018
	11.39745	45.25997
	11.39604	45.25981
	11.3956	45.25975
	11.39437	45.25948
	11.39359	45.2594
	11.39311	45.25927
	11.39275	45.25912
	11.39274	45.25891
	11.39286	45.2586
	11.3935	45.25764
	11.39359	45.25746
	11.39327	45.25702
	11.393	45.2567
	11.39253	45.25602
	11.39207	45.25513
	11.39105	45.25352
	11.39095	45.25329
	11.39094	45.25311
	11.39099	45.25298
	11.39118	45.25287
	11.39161	45.25272
	11.39222	45.25278
	11.39598	45.25282
	11.39687	45.25281
	11.39877	45.25268
	11.40033	45.25261
	11.40071	45.25266
	11.40095	45.25221
	11.40117	45.25185
	11.40204	45.25109
	11.40253	45.2507
	11.40318	45.25023
	11.40325	45.2501
	11.40371	45.24911
	11.40407	45.24839
	11.40442	45.24731
	11.40448	45.247
	11.4055	45.24458
	11.40573	45.24374
	11.4061	45.24193
	11.40631	45.2407
	11.40638	45.24006
	11.40634	45.23953
	11.40635	45.2391
	11.40623	45.23846
	11.40613	45.2381
	11.40603	45.23789
	11.40573	45.23767
	11.40516	45.23735
	11.40463	45.23708
	11.40404	45.23682
	11.40338	45.23647
	11.40274	45.23604
	11.40257	45.2359
	11.40239	45.23569
	11.40234	45.23561
	11.40222	45.23477
	11.40223	45.23455
	11.40257	45.23411
	11.40266	45.23387
	11.40268	45.23365
	11.40265	45.23347
	11.40259	45.23329
	11.40247	45.23303
	11.402	45.23249
	11.40135	45.23188
	11.40126	45.23173
	11.40116	45.23097
	11.40109	45.23078
	11.40107	45.23064
	11.40115	45.23016
	11.4011	45.22992
	11.40034	45.22815
	11.39992	45.2271
	11.39978	45.22655
	11.39967	45.22585
	11.39969	45.22568
	11.39975	45.22543
	11.39999	45.22497
	11.40039	45.22431
	11.40055	45.22391
	11.40073	45.22335
	11.40109	45.22185
	11.40124	45.22146
	11.40142	45.22116
	11.40163	45.22085
	11.40153	45.22027
	11.40157	45.22014
	11.40162	45.21987
	11.40172	45.21963
	11.40184	45.2194
	11.40212	45.21838
	11.40234	45.21788
	11.40264	45.21698
	11.40267	45.21693
	11.40306	45.21648
	11.40308	45.21644
	11.40311	45.21608
	11.40321	45.21587
	11.40325	45.21575
	11.40324	45.21549
	11.40309	45.21519
	11.40305	45.21503
	11.403	45.21466
	11.40297	45.21457
	11.40276	45.21415
	11.40269	45.21355
	11.40272	45.21348
	11.40306	45.21308
	11.40344	45.21258
	11.40352	45.21245
	11.40375	45.21186
	11.40381	45.2102
	11.4039	45.20917
	11.40468	45.20922
	11.40477	45.20912
	11.40482	45.20829
	11.4046	45.20814
	11.4045	45.20746
	11.40444	45.20598
	11.40451	45.20574
	11.40448	45.20503
	11.40459	45.20485
	11.4045	45.20467
	11.40441	45.20399
	11.40393	45.20395
	11.40375	45.20332
	11.40372	45.2031
	11.40372	45.20309
	11.4042	45.20301
	11.40421	45.20284
	11.40389	45.20063
	11.40343	45.20045
	11.40316	45.20026
	11.40308	45.20009
	11.40342	45.19988
	11.40387	45.19984
	11.40453	45.19975
	11.40497	45.19977
	11.40498	45.19957
	11.40488	45.19923
	11.40475	45.19849
	11.4044	45.19696
	11.40407	45.19569
	11.40414	45.19535
	11.40458	45.1937
	11.40484	45.19317
	11.40517	45.19198
	11.40538	45.19148
	11.40565	45.19124
	11.40567	45.19124
	11.40604	45.19094
	11.40632	45.19088
	11.40652	45.19079
	11.40679	45.19056
	11.40724	45.18996
	11.40837	45.18852
	11.40942	45.18726
	11.40926	45.18726
	11.40913	45.18716
	11.40912	45.18689
	11.4092	45.18638
	11.40859	45.18627
	11.40823	45.18609
	11.40811	45.18616
	11.40765	45.18685
	11.40727	45.18738
	11.40695	45.18779
	11.40669	45.18806
	11.40618	45.18847
	11.40585	45.18864
	11.40571	45.18889
	11.40567	45.18891
	11.40559	45.18894
	11.40494	45.18892
	11.40546	45.18801
	11.40653	45.18648
	11.4056	45.18607
	11.4057	45.18592
	11.40807	45.18346
	11.40824	45.1832
	11.40824	45.18294
	11.40862	45.18227
	11.40882	45.18183
	11.40888	45.18147
	11.40884	45.18018
	11.4087	45.1798
	11.40859	45.17902
	11.40849	45.17773
	11.40833	45.17693
	11.40828	45.17641
	11.4082	45.17598
	11.40818	45.17567
	11.40831	45.17542
	11.40862	45.17532
	11.40928	45.17517
	11.41005	45.17496
	11.41049	45.17473
	11.4101	45.17434
	11.41009	45.17405
	11.41084	45.17247
	11.41123	45.17216
	11.41194	45.17185
	11.41159	45.17137
	11.41135	45.17121
	11.41105	45.17107
	11.41164	45.1709
	11.41215	45.17077
	11.41237	45.17076
	11.41262	45.17082
	11.41274	45.17083
	11.41288	45.17083
	11.41297	45.17081
	11.41309	45.17075
	11.41355	45.17041
	11.41365	45.17035
	11.41377	45.17031
	11.41402	45.17026
	11.41464	45.17021
	11.4149	45.17014
	11.41503	45.17008
	11.41525	45.16986
	11.41567	45.16985
	11.41567	45.16986
	11.41574	45.16976
	11.4161	45.16886
	11.41629	45.16853
	11.41631	45.16845
	11.41638	45.16807
	11.4164	45.16771
	11.4164	45.1676
	11.41633	45.16715
	11.41634	45.16705
	11.4164	45.16698
	11.41652	45.16691
	11.41661	45.16684
	11.41667	45.16676
	11.41681	45.16641
	11.41689	45.16627
	11.41695	45.1662
	11.41701	45.16616
	11.41755	45.16605
	11.41848	45.16576
	11.41872	45.16572
	11.41888	45.16571
	11.41907	45.16572
	11.4204	45.16585
	11.4207	45.16586
	11.42273	45.16578
	11.42261	45.16496
	11.42259	45.16387
	11.42251	45.16337
	11.42214	45.16268
	11.42141	45.16194
	11.42125	45.1618
	11.42102	45.16166
	11.42037	45.1612
	11.41991	45.16063
	11.41963	45.16021
	11.41945	45.15951
	11.41872	45.15832
	11.4185	45.15812
	11.41835	45.15777
	11.41823	45.1576
	11.41816	45.15715
	11.41803	45.157
	11.41778	45.15681
	11.41739	45.1566
	11.41701	45.1563
	11.4166	45.156
	11.41593	45.15573
	11.41574	45.1557
	11.41596	45.15558
	11.417	45.15513
	11.41728	45.15492
	11.41854	45.15595
	11.41902	45.15645
	11.41915	45.15647
	11.4195	45.15622
	11.42121	45.15458
	11.42161	45.15436
	11.42195	45.15394
	11.42285	45.15258
	11.42302	45.1528
	11.42337	45.15252
	11.42395	45.15209
	11.42536	45.15143
	11.42669	45.15084
	11.42767	45.15045
	11.42857	45.15007
	11.42883	45.14997
	11.42897	45.14995
	11.42888	45.14958
	11.42831	45.14795
	11.42632	45.14251
	11.42565	45.14107
	11.42508	45.13993
	11.42327	45.13704
	11.42168	45.13479
	11.42103	45.13382
	11.42071	45.13341
	11.42041	45.13306
	11.41695	45.12906
	11.41572	45.12944
	11.41474	45.12987
	11.41423	45.13006
	11.41217	45.13132
	11.41136	45.13191
	11.41021	45.13153
	11.40969	45.13133
	11.40942	45.13008
	11.40981	45.12656
	11.40971	45.12627
	11.40965	45.12599
	11.40967	45.12544
	11.40973	45.12502
	11.40986	45.12451
	11.41063	45.12255
	11.41119	45.12154
	11.41204	45.12086
	11.41261	45.12044
	11.4131	45.12017
	11.41359	45.11993
	11.41409	45.11985
	11.41454	45.11981
	11.41468	45.11974
	11.4157	45.11943
	11.41604	45.11937
	11.41652	45.11924
	11.4165	45.1191
	11.41658	45.11905
	11.41681	45.11896
	11.41716	45.11886
	11.418	45.11867
	11.41845	45.11855
	11.419	45.11839
	11.41961	45.11815
	11.42013	45.11793
	11.42051	45.11771
	11.42077	45.11751
	11.42165	45.11677
	11.42278	45.11552
	11.4233	45.115
	11.42355	45.11507
	11.42428	45.11395
	11.4248	45.11319
	11.42535	45.11253
	11.42564	45.11221
	11.42579	45.11195
	11.42566	45.11184
	11.42545	45.11217
	11.42524	45.11204
	11.42512	45.11192
	11.42517	45.11187
	11.42507	45.11163
	11.42497	45.1117
	11.42492	45.11163
	11.42504	45.11156
	11.42491	45.11124
	11.42472	45.11109
	11.42469	45.11089
	11.42476	45.11089
	11.42435	45.10992
	11.42513	45.1092
	11.42502	45.10914
	11.42508	45.10904
	11.42539	45.10896
	11.42525	45.10882
	11.42532	45.10874
	11.42547	45.10889
	11.42557	45.10881
	11.42545	45.10864
	11.42551	45.1086
	11.42562	45.10876
	11.42576	45.10863
	11.4257	45.10849
	11.4258	45.10844
	11.42585	45.10855
	11.42605	45.10836
	11.42624	45.10834
	11.42629	45.10873
	11.42685	45.10859
	11.42705	45.1082
	11.42813	45.10644
	11.42859	45.10603
	11.42863	45.10597
	11.42865	45.10582
	11.42883	45.1056
	11.42925	45.10518
	11.42948	45.10502
	11.42978	45.10493
	11.43058	45.1049
	11.43351	45.10431
	11.43365	45.10429
	11.43405	45.1042
	11.43443	45.10416
	11.43465	45.10416
	11.43483	45.10412
	11.43499	45.10402
	11.43599	45.10311
	11.43619	45.10284
	11.43625	45.10272
	11.43628	45.10259
	11.43625	45.1025
	11.43617	45.10209
	11.43614	45.10183
	11.43612	45.10133
	11.43617	45.10093
	11.43606	45.10021
	11.43596	45.1
	11.43595	45.09994
	11.43608	45.09977
	11.43629	45.09959
	11.43655	45.09943
	11.43704	45.09923
	11.43748	45.09909
	11.43819	45.09892
	11.43834	45.09893
	11.43861	45.09902
	11.43871	45.09903
	11.43891	45.09901
	11.43902	45.09896
	11.43908	45.0989
	11.4391	45.09864
	11.43983	45.09831
	11.4408	45.09798
	11.44123	45.09775
	11.44163	45.09746
	11.44179	45.09731
	11.442	45.09707
	11.44206	45.09692
	11.44189	45.09672
	11.44163	45.0965
	11.44132	45.09619
	11.44116	45.09605
	11.44103	45.09597
	11.44089	45.09591
	11.44083	45.09584
	11.44059	45.09519
	11.44059	45.09504
	11.44061	45.09493
	11.44078	45.09462
	11.44101	45.09408
	11.44115	45.0937
	11.4412	45.09242
	11.44133	45.09216
	11.44143	45.0919
	11.44157	45.09171
	11.44175	45.09159
	11.44172	45.09151
	11.44159	45.09144
	11.44161	45.0913
	11.44166	45.09112
	11.4416	45.09095
	11.4413	45.09052
	11.44064	45.08998
	11.44006	45.08956
	11.43995	45.08956
	11.43973	45.0894
	11.43914	45.08893
	11.43879	45.08882
	11.43859	45.08877
	11.43848	45.08869
	11.4384	45.08853
	11.43834	45.0883
	11.43824	45.08775
	11.43823	45.08759
	11.43826	45.08751
	11.43824	45.08726
	11.43828	45.08677
	11.43842	45.08621
	11.43844	45.08599
	11.43868	45.08575
	11.43913	45.08548
	11.4393	45.08542
	11.4394	45.08543
	11.43954	45.08549
	11.43961	45.08549
	11.44028	45.08512
	11.44033	45.08508
	11.4403	45.08503
	11.44029	45.08496
	11.44047	45.08487
	11.4411	45.08463
	11.44162	45.08432
	11.44202	45.08397
	11.44201	45.08391
	11.44211	45.08373
	11.44304	45.0826
	11.44347	45.08222
	11.44384	45.08198
	11.44384	45.08184
	11.44389	45.0817
	11.44397	45.08164
	11.44419	45.08155
	11.44434	45.08145
	11.44442	45.08136
	11.44452	45.08131
	11.44472	45.08123
	11.4448	45.08123
	11.4449	45.08121
	11.44513	45.08107
	11.44542	45.08095
	11.44579	45.08083
	11.44624	45.08073
	11.44639	45.08071
	11.4465	45.08067
	11.44678	45.08019
	11.44684	45.08004
	11.44688	45.07993
	11.44688	45.07972
	11.44676	45.07939
	11.44615	45.0787
	11.44597	45.07855
	11.44586	45.07849
	11.44576	45.07848
	11.44564	45.07844
	11.44551	45.07836
	11.44484	45.07782
	11.44418	45.07725
	11.44414	45.07709
	11.44413	45.0766
	11.44409	45.07635
	11.44401	45.07609
	11.44401	45.07581
	11.44415	45.07515
	11.44425	45.07495
	11.44382	45.07473
	11.44376	45.07459
	11.44366	45.07397
	11.44359	45.07384
	11.44366	45.07373
	11.44384	45.07357
	11.44387	45.07352
	11.44338	45.07322
	11.4431	45.07308
	11.44246	45.0728
	11.44187	45.0725
	11.44135	45.07235
	11.44074	45.07232
	11.44037	45.07224
	11.44018	45.07218
	11.43988	45.07205
	11.43954	45.07181
	11.43944	45.0717
	11.43934	45.07138
	11.43913	45.07083
	11.43897	45.07051
	11.43883	45.0703
	11.43871	45.07006
	11.43847	45.06974
	11.43797	45.06919
	11.43753	45.06846
	11.4374	45.06812
	11.43726	45.06753
	11.43559	45.06768
	11.43264	45.068
	11.43094	45.06808
	11.42976	45.06807
	11.42938	45.06803
	11.42918	45.06799
	11.42889	45.06781
	11.4286	45.06769
	11.42842	45.06765
	11.42816	45.06765
	11.42732	45.06783
	11.42694	45.06779
	11.42635	45.06778
	11.42583	45.0678
	11.42508	45.06789
	11.42421	45.06789
	11.42376	45.06782
	11.42348	45.0678
	11.42297	45.06762
	11.42227	45.06741
	11.42149	45.06713
	11.42115	45.06695
	11.42101	45.06684
	11.42111	45.06507
	11.42077	45.06509
	11.41894	45.06596
	11.41867	45.06587
	11.41791	45.06574
	11.41782	45.06571
	11.41753	45.06593
	11.41728	45.06609
	11.41717	45.06615
	11.41679	45.06632
	11.4167	45.06635
	11.41623	45.06644
	11.4161	45.06645
	11.41545	45.06639
	11.4153	45.06634
	11.41471	45.06609
	11.41447	45.06593
	11.41383	45.06546
	11.41338	45.06505
	11.41301	45.06458
	11.41297	45.06451
	11.41273	45.06362
	11.41254	45.06338
	11.41236	45.06309
	11.41212	45.06264
	11.41186	45.06179
	11.41185	45.06171
	11.41174	45.06158
	11.41158	45.06144
	11.41109	45.06105
	11.41088	45.06093
	11.4103	45.06055
	11.40929	45.0598
	11.40897	45.05966
	11.40831	45.05931
	11.4075	45.05882
	11.40616	45.05822
	11.40586	45.05811
	11.40554	45.05802
	11.40535	45.05795
	11.40506	45.05783
	11.40482	45.05771
	11.40445	45.05746
	11.40411	45.05718
	11.40362	45.05656
	11.40346	45.05622
	11.40327	45.05575
	11.40311	45.05562
	11.4026	45.05512
	11.40219	45.05455
	11.40214	45.05444
	11.40195	45.05341
	11.40195	45.05333
	11.4021	45.05307
	11.40082	45.05312
	11.40055	45.05316
	11.40029	45.05325
	11.40003	45.05359
	11.39958	45.05406
	11.39927	45.05416
	11.39883	45.05427
	11.39829	45.05435
	11.39778	45.05439
	11.3974	45.0544
	11.39712	45.05436
	11.39652	45.05418
	11.39612	45.05415
	11.39567	45.05414
	11.3933	45.05416
	11.39264	45.0542
	11.39207	45.0542
	11.39116	45.05428
	11.39074	45.0544
	11.39031	45.0548
	11.38969	45.05533
	11.389	45.05586
	11.38775	45.05679
	11.38755	45.0569
	11.38735	45.05693
	11.38714	45.05692
	11.38655	45.05681
	11.38584	45.05673
	11.38521	45.05668
	11.38483	45.05669
	11.38446	45.05672
	11.3839	45.05681
	11.38307	45.05699
	11.3821	45.05725
	11.37945	45.05688
	11.37903	45.05685
	11.37873	45.05688
	11.37831	45.05702
	11.37777	45.05716
	11.37723	45.05722
	11.37685	45.05723
	11.3766	45.05718
	11.37576	45.05705
	11.37451	45.05696
	11.37325	45.0568
	11.37272	45.05676
	11.37223	45.05676
	11.37148	45.0568
	11.37098	45.05678
	11.37081	45.05684
	11.36974	45.0576
	11.36508	45.05787
	11.36484	45.05782
	11.36458	45.05769
	11.36426	45.05748
	11.36385	45.05741
	11.36317	45.0572
	11.36289	45.05719
	11.36199	45.05728
	11.36178	45.05731
	11.3617	45.05731
	11.36156	45.0573
	11.36126	45.05724
	11.36067	45.05705
	11.36048	45.05706
	11.36033	45.0571
	11.35987	45.05744
	11.35974	45.05759
	11.35968	45.05769
	11.35963	45.05797
	11.35936	45.05832
	11.3593	45.05845
	11.35928	45.05854
	11.35926	45.0592
	11.35929	45.06043
	11.35904	45.06102
	11.35589	45.06885
	11.3557	45.06921
	11.35547	45.06951
	11.35515	45.06987
	11.35471	45.07022
	11.35459	45.07025
	11.35246	45.06991
	11.35161	45.06989
	11.35077	45.0701
	11.35037	45.07034
	11.35003	45.07067
	11.34981	45.07096
	11.34981	45.07119
	11.34984	45.07159
	11.34992	45.07176
	11.35001	45.07203
	11.34981	45.07205
	11.34898	45.07207
	11.34881	45.07201
	11.34873	45.0719
	11.34846	45.07159
	11.34827	45.07142
	11.34806	45.07129
	11.34782	45.07118
	11.34729	45.07103
	11.34709	45.07099
	11.34679	45.07095
	11.34638	45.07095
	11.34611	45.07098
	11.34582	45.07104
	11.34567	45.07108
	11.34552	45.07115
	11.34528	45.07131
	11.34499	45.07161
	11.34481	45.07188
	11.34465	45.07193
	11.34409	45.07196
	11.3437	45.072
	11.34329	45.07207
	11.3426	45.07221
	11.34183	45.07243
	11.34101	45.07272
	11.34022	45.07305
	11.3404	45.07363
	11.3404	45.0737
	11.33988	45.07505
	11.33984	45.07509
	11.33893	45.07566
	11.33851	45.07576
	11.33797	45.07582
	11.33646	45.07607
	11.33584	45.07608
	11.33553	45.07605
	11.33478	45.07595
	11.33463	45.07594
	11.3345	45.07629
	11.3344	45.0765
	11.33404	45.07703
	11.33394	45.07714
	11.33339	45.07756
	11.33317	45.07767
	11.33281	45.07782
	11.33232	45.07796
	11.33169	45.07816
	11.3313	45.07827
	11.33089	45.07836
	11.33082	45.07841
	11.33076	45.0784
	11.33066	45.07843
	11.33065	45.07838
	11.32926	45.0781
	11.32683	45.07916
	11.32253	45.08093
	11.32129	45.08146
	11.32085	45.08169
	11.32043	45.08198
	11.32006	45.08236
	11.31972	45.08283
	11.31944	45.0833
	11.31875	45.08568
	11.31824	45.08761
	11.31741	45.08854
	11.3169	45.08892
	11.31608	45.08957
	11.31561	45.0899
	11.31514	45.0902
	11.31483	45.09027
	11.31441	45.09028
	11.31424	45.09027
	11.31138	45.08965
	11.31087	45.08959
	11.31037	45.08961
	11.31002	45.08966
	11.30975	45.08971
	11.30847	45.09025
	11.30804	45.09039
	11.30776	45.09045
	11.30742	45.09049
	11.30712	45.09059
	11.30689	45.09077
	11.30657	45.09095
	11.30593	45.09127
	11.30576	45.09144
	11.30511	45.09188
	11.30442	45.09212
	11.30403	45.09215
	11.30374	45.09221
	11.30344	45.09225
	11.30319	45.09224
	11.30297	45.09221
	11.30267	45.09219
	11.30227	45.0922
	11.30121	45.09215
	11.30093	45.09212
	11.3006	45.09216
	11.30023	45.09212
	11.29948	45.09199
	11.29763	45.09186
	11.29666	45.09176
	11.29622	45.09167
	11.29574	45.09152
	11.29514	45.09123
	11.29508	45.09118
	11.2947	45.09102
	11.29435	45.09092
	11.29345	45.0908
	11.29267	45.09074
	11.2915	45.09068
	11.29078	45.09077
	11.29024	45.09106
	11.28959	45.09138
	11.28941	45.09141
	11.28907	45.0914
	11.28831	45.0913
	11.28772	45.0912
	11.28732	45.0911
	11.28694	45.09096
	11.28662	45.0908
	11.28626	45.09054
	11.2861	45.09024
	11.28579	45.09014
	11.28542	45.09011
	11.28507	45.09012
	11.2846	45.09014
	11.2828	45.09033
	11.2822	45.09036
	11.28173	45.09035
	11.28134	45.0904
	11.28069	45.09066
	11.28032	45.09099
	11.27989	45.09151
	11.27936	45.09225
	11.27912	45.09247
	11.27887	45.09264
	11.27856	45.09271
	11.27804	45.09275
	11.27746	45.09271
	11.27691	45.09276
	11.27629	45.09274
	11.27599	45.09266
	11.27568	45.09265
	11.27477	45.09249
	11.2745	45.09246
	11.27413	45.0925
	11.27365	45.09266
	11.27305	45.09297
	11.27286	45.09301
	11.2726	45.09297
	11.27246	45.09282
	11.27236	45.09261
	11.27241	45.09239
	11.27289	45.09179
	11.27158	45.09128
	11.27042	45.09087
	11.26983	45.09077
	11.26956	45.09075
	11.26896	45.09092
	11.26837	45.09105
	11.26748	45.09118
	11.26728	45.09115
	11.26685	45.09122
	11.26658	45.09147
	11.26643	45.09173
	11.26632	45.09204
	11.26617	45.09239
	11.26582	45.09292
	11.26541	45.09315
	11.26461	45.0934
	11.2637	45.09351
	11.2634	45.09357
	11.26292	45.0936
	11.26238	45.09359
	11.2619	45.09349
	11.26172	45.09344
	11.26155	45.09334
	11.26133	45.09316
	11.26124	45.09299
	11.26115	45.09241
	11.26096	45.09212
	11.26058	45.09181
	11.26011	45.09154
	11.25961	45.09141
	11.2592	45.09128
	11.2586	45.09118
	11.25782	45.09106
	11.25753	45.09105
	11.25727	45.09102
	11.25689	45.09092
	11.25634	45.09084
	11.25431	45.09062
	11.25148	45.09021
	11.25059	45.09072
	11.24993	45.09098
	11.24901	45.09161
	11.2483	45.092
	11.24707	45.09263
	11.247	45.09237
	11.24599	45.09238
	11.24575	45.0924
	11.24557	45.09239
	11.24547	45.09236
	11.2454	45.09233
	11.24536	45.09228
	11.24526	45.09192
	11.24516	45.0918
	11.24507	45.09172
	11.24482	45.09158
	11.24453	45.0915
	11.2441	45.09146
	11.24372	45.09144
	11.24358	45.0914
	11.24354	45.09137
	11.24342	45.09124
	11.2434	45.09117
	11.24339	45.0911
	11.24342	45.09079
	11.24339	45.0907
	11.24327	45.09045
	11.24313	45.09021
	11.24311	45.09014
	11.24318	45.08985
	11.24328	45.08964
	11.24332	45.08945
	11.2433	45.08915
	11.24327	45.08902
	11.24307	45.08893
	11.24291	45.08888
	11.24266	45.08887
	11.2424	45.08895
	11.24221	45.08904
	11.24208	45.08908
	11.24191	45.08909
	11.24184	45.08908
	11.24172	45.08903
	11.24159	45.08889
	11.24151	45.08883
	11.24144	45.08871
	11.24123	45.08843
	11.24116	45.08839
	11.24104	45.08836
	11.24087	45.08835
	11.24051	45.08838
	11.24035	45.08836
	11.24008	45.08824
	11.23984	45.08791
	11.23957	45.08769
	11.2394	45.08761
	11.23927	45.0876
	11.23904	45.0876
	11.23841	45.08767
	11.2382	45.0877
	11.23787	45.08778
	11.23761	45.0878
	11.2373	45.08786
	11.23714	45.08787
	11.23687	45.088
	11.2366	45.08816
	11.23638	45.08831
	11.23626	45.08835
	11.23605	45.08839
	11.23585	45.08846
	11.23577	45.08851
	11.23561	45.08869
	11.23521	45.08907
	11.23516	45.08907
	11.23506	45.08904
	11.23501	45.08899
	11.23498	45.08894
	11.23485	45.08852
	11.23477	45.08842
	11.23464	45.08834
	11.23426	45.08822
	11.23378	45.08826
	11.23337	45.08833
	11.23316	45.08839
	11.23278	45.08846
	11.23264	45.08846
	11.23256	45.08843
	11.23247	45.08836
	11.23242	45.08816
	11.23238	45.08769
	11.23229	45.0875
	11.2319	45.08719
	11.23168	45.08708
	11.23134	45.08683
	11.23112	45.08658
	11.23085	45.08619
	11.23075	45.08607
	11.23037	45.08575
	11.23008	45.08556
	11.22983	45.08544
	11.22937	45.08525
	11.2288	45.08489
	11.22861	45.08471
	11.22846	45.08453
	11.22828	45.08436
	11.22784	45.08406
	11.2274	45.08365
	11.22697	45.08317
	11.22676	45.08299
	11.22662	45.08289
	11.2264	45.0829
	11.22602	45.08297
	11.22576	45.08304
	11.22564	45.08304
	11.22515	45.08316
	11.22475	45.08319
	11.22423	45.08328
	11.22384	45.0834
	11.22349	45.08353
	11.22317	45.08366
	11.22301	45.08377
	11.22277	45.08401
	11.22263	45.08458
	11.22256	45.0848
	11.22249	45.08489
	11.22236	45.08498
	11.22192	45.08521
	11.22181	45.0853
	11.22138	45.08584
	11.22116	45.08607
	11.22087	45.08625
	11.22048	45.0864
	11.22022	45.08645
	11.22011	45.08651
	11.22	45.08661
	11.21995	45.08672
	11.21984	45.08687
	11.21984	45.08704
	11.21972	45.0873
	11.21949	45.08754
	11.2192	45.0878
	11.21901	45.08794
	11.21878	45.08808
	11.21825	45.0882
	11.21811	45.08826
	11.21811	45.08831
	11.21799	45.08836
	11.21793	45.08836
	11.21783	45.08838
	11.21772	45.08845
	11.21702	45.08899
	11.21685	45.08919
	11.21676	45.08927
	11.21652	45.08958
	11.21629	45.08984
	11.21619	45.08999
	11.21598	45.09021
	11.2157	45.09046
	11.21568	45.09051
	11.21539	45.09073
	11.2153	45.09084
	11.21517	45.09094
	11.21462	45.0913
	11.21441	45.09146
	11.21426	45.09154
	11.21411	45.0916
	11.21388	45.09161
	11.21359	45.09164
	11.21327	45.09171
	11.21295	45.09183
	11.21232	45.09223
	11.21212	45.09243
	11.21186	45.09263
	11.21174	45.09268
	11.21053	45.09281
	11.21043	45.09286
	11.2104	45.09313
	11.21041	45.09414
	11.2101	45.09488
	11.20979	45.09493
	11.20853	45.0949
	11.20799	45.09522
	11.20745	45.09557
	11.2075	45.09563
	11.20919	45.09703
	11.20918	45.09711
	11.20914	45.09716
	11.20893	45.09761
	11.20877	45.0979
	11.20868	45.09795
	11.20853	45.09797
	11.20836	45.09803
	11.20771	45.09839
	11.2076	45.09843
	11.20743	45.09844
	11.20724	45.09841
	11.20701	45.09843
	11.20678	45.09854
	11.20643	45.09873
	11.20578	45.09901
	11.2057	45.09907
	11.20569	45.09912
	11.20549	45.09929
	11.20504	45.09978
	11.20484	45.10005
	11.2044	45.10077
	11.20406	45.10116
	11.20355	45.10168
	11.20348	45.10189
	11.20336	45.10195
	11.20294	45.10265
	11.20471	45.1036
	11.20524	45.10407
	11.20513	45.10436
	11.205	45.10464
	11.20496	45.10494
	11.20498	45.10539
	11.20592	45.10627
	11.20592	45.107
	11.20599	45.10862
	11.20593	45.10894
	11.20585	45.10919
	11.20582	45.10946
	11.20579	45.10957
	11.20582	45.10969
	11.20451	45.11187
	11.20235	45.11196
	11.19385	45.11117
	11.19023	45.1107
	11.1892	45.11062
	11.1886	45.11081
	11.18186	45.11406
	11.17406	45.11702
	11.17226	45.11741
	11.17034	45.11773
	11.16781	45.11811
	11.16556	45.11838
	11.1619	45.1189
	11.16025	45.11947
	11.14979	45.12577
	11.14866	45.12672
	11.14745	45.12699
	11.14688	45.12693
	11.13975	45.12478
	11.13661	45.1182
	11.1352	45.11682
	11.13494	45.11533
	11.1349	45.11488
	11.13494	45.11409
	11.13508	45.11322
	11.13548	45.11206
	11.13577	45.11144
	11.13583	45.11079
	11.13308	45.10602
	11.13277	45.10584
	11.12841	45.10415
	11.12761	45.10415
	11.11653	45.10547
	11.11537	45.10584
	11.10641	45.10998
	11.10455	45.1126
	11.10356	45.11378
	11.10315	45.11406
	11.102	45.11383
	11.10157	45.11366
	11.10116	45.11338
	11.09807	45.11039
	11.09749	45.10966
	11.09538	45.10778
	11.09437	45.10174
	11.09641	45.09868
	11.09808	45.09527
	11.08886	45.09749
	11.08319	45.0998
	11.0798	45.10037
	11.07394	45.09968
	11.05184	45.11036
	11.04371	45.11261
	11.04072	45.11405
	11.03483	45.11844
	11.03174	45.12164
	11.02971	45.12397
	11.02948	45.12513
	11.02941	45.12766
	11.02994	45.1288
	11.0303	45.12896
	11.03356	45.13009
	11.03729	45.13141
	11.04263	45.13349
	11.04486	45.13521
	11.04476	45.14292
	11.04934	45.14808
	11.04854	45.14895
	11.04654	45.15052
	11.04636	45.15068
	11.04602	45.15102
	11.0458	45.15128
	11.04536	45.15191
	11.04495	45.1526
	11.04461	45.15326
	11.03658	45.15104
	11.03311	45.15451
	11.02264	45.15659
	11.0182	45.15348
	11.01466	45.1512
	11.01331	45.15044
	11.01205	45.1498
	11.01126	45.14958
	10.99553	45.15128
	10.99371	45.15394
	10.99443	45.15401
	10.9952	45.15417
	10.99599	45.1544
	10.9984	45.15814
	10.99874	45.15878
	10.99902	45.15955
	10.99586	45.17466
	10.99715	45.17895
	10.99417	45.17977
	10.99305	45.18036
	10.99402	45.18131
	10.99172	45.18208
	10.99271	45.18354
	10.99683	45.18407
	10.9981	45.18482
	10.99767	45.18647
	10.99576	45.1889
	10.99432	45.19054
	10.99069	45.19624
	10.98852	45.19792
	10.98391	45.20011
	10.96675	45.20685
	10.9659	45.20707
	10.95225	45.20692
	10.94715	45.20655
	10.9452	45.20644
	10.9452	45.21124
	10.94151	45.21186
	10.93874	45.21376
	10.93561	45.21391
	10.93382	45.21389
	10.93463	45.21546
	10.93249	45.21715
	10.93135	45.21798
	10.93066	45.21853
	10.93032	45.22028
	10.93073	45.22173
	10.93095	45.22323
	10.93103	45.22575
	10.93212	45.2267
	10.93229	45.22731
	10.93465	45.22692
	10.93641	45.2327
	10.93633	45.23304
	10.9289	45.23405
	10.92517	45.2339
	10.9197	45.235
	10.90639	45.23718
	10.90292	45.23757
	10.90176	45.23765
	10.90101	45.23787
	10.90146	45.23861
	10.90184	45.24219
	10.90016	45.2422
	10.89764	45.2428
	10.89871	45.2441
	10.89965	45.24597
	10.89976	45.24715
	10.89809	45.2479
	10.89702	45.24712
	10.89622	45.24727
	10.89461	45.24831
	10.89335	45.24813
	10.88993	45.24851
	10.88858	45.24874
	10.88293	45.2478
	10.88174	45.24712
	10.88094	45.24627
	10.88045	45.24611
	10.87976	45.24621
	10.87963	45.24662
	10.88028	45.24732
	10.88036	45.24792
	10.87987	45.25192
	10.87775	45.25262
	10.87618	45.25287
	10.87541	45.25244
	10.87064	45.25331
	10.86805	45.2547
	10.85893	45.25502
	10.85824	45.25532
	10.85678	45.25534
	10.85474	45.2571
	10.85401	45.25798
	10.85359	45.25816
	10.8526	45.2581
	10.8461	45.25657
	10.84378	45.26102
	10.84204	45.26446
	10.84002	45.26597
	10.83962	45.26651
	10.83994	45.2689
	10.84028	45.27056
	10.8402	45.27284
	10.83912	45.2739
	10.83835	45.27355
	10.83614	45.27391
	10.83442	45.27497
	10.83226	45.27778
	10.83228	45.27828
	10.83048	45.27968
	10.83118	45.28019
	10.83045	45.28065
	10.83086	45.2814
	10.82906	45.2822
	10.82998	45.28453
	10.82621	45.28427
	10.82621	45.28549
	10.82339	45.28518
	10.81894	45.28927
	10.8182	45.28906
	10.81745	45.28928
	10.81728	45.2893
	10.8173	45.28946
	10.81727	45.29023
	10.81715	45.29078
	10.81683	45.29165
	10.81673	45.29199
	10.81665	45.29284
	10.81669	45.29307
	10.81648	45.29312
	10.81551	45.29348
	10.81291	45.2944
	10.80922	45.29585
	10.80895	45.29599
	10.80833	45.29635
	10.80831	45.29642
	10.80824	45.2964
	10.80527	45.29833
	10.80257	45.30017
	10.80166	45.30082
	10.8006	45.30151
	10.79898	45.3026
	10.79686	45.30408
	10.79623	45.30449
	10.79552	45.3049
	10.79482	45.30536
	10.79394	45.30599
	10.79304	45.30661
	10.78959	45.30891
	10.78521	45.31193
	10.78196	45.31403
	10.78177	45.31493
	10.76361	45.30392
	10.75348	45.29764
	10.73637	45.2872
	10.73029	45.29156
	10.7303	45.2914
	10.72845	45.28926
	10.72631	45.29111
	10.7263	45.29136
	10.72613	45.29263
	10.72609	45.29311
	10.72608	45.2935
	10.72613	45.29395
	10.72617	45.29413
	10.72623	45.29434
	10.72644	45.2949
	10.72667	45.29533
	10.72687	45.29565
	10.72715	45.29601
	10.72737	45.29734
	10.72751	45.29783
	10.72879	45.30065
	10.73018	45.30299
	10.73049	45.30378
	10.73093	45.30503
	10.73103	45.30619
	10.73103	45.30641
	10.73094	45.30677
	10.73064	45.30771
	10.73056	45.30801
	10.73052	45.30826
	10.7305	45.30854
	10.73049	45.30962
	10.73065	45.3129
	10.73069	45.3133
	10.73079	45.3139
	10.73074	45.3145
	10.73042	45.31491
	10.73014	45.31533
	10.72998	45.31562
	10.72949	45.31673
	10.72941	45.31695
	10.72923	45.3176
	10.72916	45.31798
	10.72915	45.31811
	10.72809	45.31871
	10.72715	45.31903
	10.72573	45.31939
	10.72404	45.31963
	10.72298	45.31975
	10.7223	45.31968
	10.72167	45.319
	10.72091	45.3184
	10.71952	45.31794
	10.7174	45.31753
	10.71206	45.31691
	10.71049	45.31678
	10.70915	45.31682
	10.70809	45.31697
	10.7074	45.31723
	10.71204	45.32177
	10.71276	45.32238
	10.71348	45.32324
	10.7142	45.32461
	10.71556	45.32846
	10.71596	45.32986
	10.7153	45.33291
	10.71478	45.33413
	10.71249	45.33438
	10.71209	45.33519
	10.70895	45.33592
	10.7082	45.33709
	10.70701	45.33846
	10.70582	45.33894
	10.70544	45.33922
	10.70281	45.33874
	10.70249	45.33895
	10.70225	45.33915
	10.70196	45.33942
	10.70177	45.33963
	10.70156	45.33989
	10.70125	45.34044
	10.70118	45.34064
	10.70093	45.34057
	10.70033	45.34045
	10.69964	45.34027
	10.69918	45.34018
	10.69862	45.34017
	10.69788	45.34018
	10.69658	45.34041
	10.69432	45.3404
	10.69343	45.3405
	10.69289	45.34063
	10.69218	45.34073
	10.69167	45.34088
	10.69081	45.34111
	10.69046	45.34131
	10.69028	45.34145
	10.68995	45.34159
	10.68956	45.34183
	10.68942	45.34194
	10.6865	45.34204
	10.68676	45.34394
	10.68626	45.34665
	10.68602	45.34932
	10.68514	45.3515
	10.6854	45.35364
	10.68622	45.35345
	10.68784	45.3535
	10.69019	45.35386
	10.69254	45.35431
	10.69524	45.35486
	10.69628	45.3557
	10.6966	45.35621
	10.6972	45.3565
	10.69964	45.35719
	10.70106	45.35772
	10.70325	45.35865
	10.70392	45.35888
	10.70426	45.35947
	10.70623	45.36097
	10.7073	45.36083
	10.70894	45.36262
	10.71438	45.36757
	10.71445	45.36778
	10.71425	45.36827
	10.71408	45.36836
	10.71186	45.36856
	10.71184	45.36886
	10.70924	45.36883
	10.70845	45.36889
	10.70768	45.36911
	10.70672	45.36945
	10.7058	45.37016
	10.70419	45.3708
	10.70294	45.37196
	10.70254	45.37284
	10.70149	45.37384
	10.70032	45.37461
	10.69979	45.37482
	10.69945	45.37505
	10.6993	45.37556
	10.69942	45.37596
	10.69961	45.37669
	10.69914	45.37733
	10.6974	45.37993
	10.69861	45.38009
	10.70113	45.38068
	10.70346	45.38081
	10.70325	45.38197
	10.70692	45.38224
	10.70709	45.38349
	10.70782	45.38553
	10.70782	45.38761
	10.70951	45.38881
	10.7114	45.39036
	10.71147	45.39097
	10.71184	45.39146
	10.71209	45.39169
	10.71273	45.39217
	10.71285	45.39267
	10.71553	45.39464
	10.71728	45.39656
	10.71807	45.39794
	10.71841	45.39893
	10.71856	45.39966
	10.71723	45.39995
	10.71762	45.40176
	10.71817	45.40216
	10.71885	45.40409
	10.7192	45.40519
	10.71909	45.40573
	10.719	45.40608
	10.71714	45.40665
	10.7162	45.4074
	10.71596	45.40817
	10.71597	45.40886
	10.71612	45.40985
	10.71684	45.41061
	10.71707	45.4119
	10.71654	45.41397
	10.71578	45.4164
	10.71496	45.41729
	10.7142	45.41785
	10.71225	45.41854
	10.70762	45.4194
	10.70384	45.42036
	10.70194	45.4217
	10.7008	45.42296
	10.6995	45.42302
	10.69802	45.42332
	10.69719	45.42362
	10.69726	45.42177
	10.69602	45.42201
	10.69492	45.42256
	10.69417	45.42315
	10.69366	45.42308
	10.69319	45.42341
	10.69275	45.42379
	10.69193	45.42392
	10.69142	45.4241
	10.69073	45.42454
	10.69001	45.42507
	10.68967	45.42457
	10.68949	45.42341
	10.6894	45.42324
	10.68889	45.4226
	10.68676	45.42341
	10.68589	45.424
	10.68369	45.42419
	10.68215	45.42492
	10.68015	45.4242
	10.67726	45.42574
	10.67573	45.42485
	10.67471	45.42535
	10.67081	45.42576
	10.67029	45.42598
	10.67034	45.42582
	10.67044	45.42537
	10.67047	45.42512
	10.67049	45.42459
	10.67039	45.42407
	10.67021	45.42361
	10.6701	45.42339
	10.66968	45.42287
	10.66937	45.42261
	10.66897	45.42237
	10.66864	45.42223
	10.66828	45.42211
	10.66781	45.42199
	10.66752	45.42189
	10.66704	45.4216
	10.66632	45.4212
	10.66605	45.42107
	10.66538	45.42083
	10.66472	45.42062
	10.66442	45.42053
	10.6639	45.4204
	10.6636	45.42034
	10.66296	45.42025
	10.66177	45.42012
	10.66112	45.42008
	10.66049	45.42009
	10.65999	45.42012
	10.659	45.41999
	10.65861	45.41995
	10.6578	45.41991
	10.65666	45.41994
	10.65715	45.41911
	10.6571	45.4183
	10.65418	45.4156
	10.65392	45.41562
	10.65367	45.41567
	10.65343	45.41575
	10.65321	45.41588
	10.65284	45.41614
	10.65242	45.41641
	10.65173	45.4167
	10.65096	45.41692
	10.65049	45.41711
	10.65024	45.41719
	10.64999	45.41723
	10.64947	45.41729
	10.64947	45.41728
	10.6491	45.41709
	10.64865	45.41691
	10.64826	45.4168
	10.64784	45.41671
	10.64784	45.4167
	10.64639	45.4164
	10.64607	45.4163
	10.64584	45.41621
	10.64569	45.41609
	10.64531	45.41573
	10.64515	45.41534
	10.64482	45.41486
	10.64446	45.4145
	10.64416	45.41428
	10.64417	45.41381
	10.64414	45.41362
	10.64404	45.41322
	10.64395	45.41295
	10.64373	45.41252
	10.64359	45.4123
	10.6435	45.4121
	10.64345	45.41185
	10.64336	45.41119
	10.64326	45.41078
	10.64315	45.41049
	10.64273	45.4098
	10.64253	45.40958
	10.6397	45.40949
	10.63963	45.4117
	10.6394	45.41173
	10.63941	45.41185
	10.63939	45.41185
	10.63942	45.41194
	10.63949	45.41244
	10.63962	45.41317
	10.63989	45.41386
	10.64012	45.4143
	10.64008	45.41459
	10.64029	45.41582
	10.64053	45.41624
	10.64067	45.41645
	10.64097	45.41682
	10.64135	45.41719
	10.6417	45.41745
	10.64176	45.41759
	10.64194	45.41792
	10.64228	45.41836
	10.64304	45.4191
	10.64338	45.41938
	10.64366	45.41957
	10.64365	45.41959
	10.64372	45.41977
	10.64386	45.41995
	10.64415	45.42026
	10.64473	45.42067
	10.64494	45.42078
	10.64522	45.4209
	10.64568	45.42116
	10.6463	45.42155
	10.64646	45.4217
	10.64629	45.42206
	10.64613	45.4226
	10.64614	45.4228
	10.64617	45.42298
	10.64665	45.4231
	10.64745	45.42335
	10.64769	45.42344
	10.6479	45.42356
	10.64808	45.42369
	10.64872	45.42408
	10.64895	45.42419
	10.65041	45.42524
	10.65081	45.42554
	10.65096	45.42569
	10.65121	45.42604
	10.6514	45.42639
	10.6517	45.42721
	10.65186	45.42756
	10.65205	45.42792
	10.65208	45.42811
	10.65197	45.42847
	10.65188	45.42865
	10.65176	45.42884
	10.65161	45.429
	10.65048	45.42903
	10.6502	45.42905
	10.6499	45.42909
	10.6498	45.42925
	10.64986	45.42963
	10.64987	45.42984
	10.64985	45.43006
	10.64981	45.43025
	10.64957	45.43033
	10.64873	45.4304
	10.64815	45.43048
	10.64786	45.4305
	10.64735	45.43051
	10.64712	45.43059
	10.64649	45.43094
	10.6453	45.43153
	10.64504	45.43164
	10.6448	45.43172
	10.64462	45.43185
	10.64458	45.43217
	10.64459	45.43247
	10.64469	45.43457
	10.64476	45.43519
	10.64471	45.43595
	10.64473	45.43615
	10.64484	45.43633
	10.64503	45.43646
	10.64548	45.43669
	10.64645	45.43711
	10.64667	45.43723
	10.64767	45.43762
	10.6479	45.43775
	10.64812	45.43791
	10.64828	45.43806
	10.64842	45.43823
	10.6488	45.43876
	10.64904	45.43914
	10.64913	45.43932
	10.64929	45.43973
	10.64939	45.44012
	10.64941	45.4403
	10.6494	45.44049
	10.64936	45.44069
	10.64914	45.44083
	10.64886	45.44085
	10.64855	45.4409
	10.64824	45.44093
	10.64738	45.44096
	10.64555	45.44109
	10.64362	45.44115
	10.64316	45.44219
	10.64285	45.4422
	10.64242	45.44224
	10.6425	45.44091
	10.6425	45.44052
	10.64248	45.44025
	10.6424	45.43978
	10.6423	45.43941
	10.64212	45.43889
	10.63958	45.43764
	10.63834	45.44018
	10.6385	45.44068
	10.63844	45.44156
	10.63842	45.44234
	10.63839	45.44267
	10.63829	45.44266
	10.63802	45.44268
	10.63775	45.44271
	10.6375	45.44277
	10.63722	45.44278
	10.63725	45.44259
	10.63722	45.44241
	10.63715	45.44222
	10.63706	45.44205
	10.63685	45.44194
	10.6366	45.44202
	10.63633	45.44208
	10.63632	45.44202
	10.63538	45.44217
	10.63522	45.44218
	10.63511	45.4421
	10.63508	45.44184
	10.63474	45.44016
	10.6342	45.44019
	10.63379	45.44017
	10.63272	45.44028
	10.63199	45.44007
	10.6317	45.43995
	10.63108	45.43934
	10.62799	45.43974
	10.62767	45.43883
	10.62737	45.43843
	10.62719	45.43838
	10.62591	45.43835
	10.62483	45.43811
	10.62451	45.43799
	10.62414	45.43799
	10.62391	45.43899
	10.62354	45.44019
	10.62401	45.44092
	10.62403	45.44112
	10.62451	45.44106
	10.62468	45.44157
	10.62315	45.44214
	10.62368	45.44294
	10.62379	45.44343
	10.62419	45.44389
	10.62472	45.44395
	10.62628	45.44317
	10.62633	45.44272
	10.62648	45.44258
	10.62679	45.44248
	10.62707	45.44224
	10.62771	45.44213
	10.62932	45.44204
	10.62978	45.44206
	10.63003	45.44212
	10.63073	45.44245
	10.63106	45.44269
	10.63123	45.44302
	10.63141	45.44377
	10.63497	45.44397
	10.63638	45.44387
	10.63831	45.44413
	10.63832	45.44432
	10.63846	45.44432
	10.64036	45.44634
	10.64221	45.44628
	10.64305	45.4462
	10.64309	45.44621
	10.64322	45.44629
	10.64333	45.44634
	10.64313	45.44717
	10.6437	45.4472
	10.64466	45.44742
	10.64517	45.44744
	10.64561	45.44759
	10.64675	45.44785
	10.64762	45.44831
	10.64811	45.44865
	10.64763	45.44914
	10.64696	45.44964
	10.64687	45.44981
	10.64692	45.45022
	10.64715	45.45044
	10.64742	45.45056
	10.64756	45.45073
	10.6475	45.45105
	10.64709	45.45143
	10.64579	45.45236
	10.6452	45.45253
	10.64472	45.45286
	10.64437	45.45326
	10.64413	45.4538
	10.64382	45.45429
	10.64323	45.45474
	10.64304	45.45497
	10.64283	45.45561
	10.64248	45.45623
	10.6425	45.45635
	10.64258	45.4564
	10.64258	45.45654
	10.6431	45.45702
	10.64266	45.46378
	10.63858	45.51992
	10.63859	45.52002
	10.63382	45.53681
	10.63072	45.54671
	10.63022	45.57354
	10.6298	45.59173
	10.62901	45.59689
	10.62741	45.60803
	10.64147	45.61908
	10.66042	45.63629
	10.68123	45.65588
	10.72026	45.69312
	10.73844	45.71322
	10.74732	45.72309
	10.76352	45.74119
	10.76405	45.74164
	10.76921	45.7473
	10.77473	45.75417
	10.78004	45.7609
	10.78433	45.76626
	10.78691	45.76939
	10.78708	45.76971
	10.78735	45.7701
	10.78809	45.77101
	10.78833	45.77126
	10.78852	45.77151
	10.7888	45.77184
	10.78925	45.77245
	10.79008	45.77349
	10.79053	45.77408
	10.79072	45.77436
	10.79129	45.77512
	10.79141	45.77526
	10.79176	45.7758
	10.79215	45.77633
	10.79274	45.77704
	10.79321	45.77768
	10.79346	45.77809
	10.79394	45.7787
	10.79447	45.77947
	10.7949	45.77997
	10.79702	45.78284
	10.79885	45.78526
	10.80096	45.7881
	10.80206	45.78952
	10.8025	45.79016
	10.80345	45.79136
	10.80369	45.79171
	10.80386	45.79192
	10.80408	45.79215
	10.80432	45.79243
	10.80505	45.79334
	10.80622	45.79476
	10.80724	45.79604
	10.80745	45.79628
	10.80787	45.79691
	10.80838	45.79757
	10.80879	45.79797
	10.80921	45.79844
	10.80937	45.7986
	10.80956	45.79882
	10.80992	45.79929
	10.81044	45.79991
	10.81118	45.80077
	10.81156	45.80119
	10.81175	45.80146
	10.81195	45.80169
	10.81214	45.80188
	10.81245	45.80215
	10.81258	45.80228
	10.81375	45.8033
	10.81399	45.80349
	10.81417	45.80367
	10.81445	45.8039
	10.81613	45.80516
	10.81643	45.80541
	10.81697	45.8058
	10.81768	45.80635
	10.8179	45.8065
	10.81886	45.80728
	10.81946	45.80771
	10.81986	45.80796
	10.82058	45.80835
	10.82149	45.80895
	10.8221	45.80929
	10.82236	45.80942
	10.82306	45.80983
	10.82377	45.81032
	10.82519	45.81127
	10.82582	45.81172
	10.8265	45.81216
	10.82688	45.81244
	10.82712	45.81259
	10.828	45.81308
	10.82842	45.81333
	10.82914	45.81372
	10.83273	45.81765
	10.83295	45.81784
	10.83313	45.81802
	10.83327	45.81819
	10.83356	45.81872
	10.83391	45.81926
	10.83403	45.81941
	10.83414	45.81958
	10.83468	45.82054
	10.83505	45.82112
	10.83567	45.82219
	10.83792	45.82657
	10.84152	45.83378
END
END
