Italy_Piemont_Novara
1
	8.349875	45.77237
	8.35043	45.77268
	8.35092	45.77292
	8.351451	45.77307
	8.351541	45.77321
	8.351674	45.77355
	8.351946	45.77373
	8.352143	45.77379
	8.352888	45.77396
	8.353237	45.77399
	8.353436	45.77398
	8.353626	45.77403
	8.353976	45.77407
	8.354206	45.77414
	8.35465	45.77438
	8.354788	45.77441
	8.354998	45.77449
	8.355124	45.77456
	8.355324	45.77471
	8.355654	45.77493
	8.355872	45.77502
	8.356734	45.77529
	8.357896	45.77571
	8.359412	45.77634
	8.360776	45.77686
	8.361314	45.77714
	8.361815	45.77774
	8.362067	45.77784
	8.364048	45.77767
	8.365972	45.77814
	8.367038	45.77809
	8.367258	45.77813
	8.367829	45.77848
	8.367139	45.77966
	8.366966	45.77993
	8.367584	45.78071
	8.367848	45.78126
	8.368031	45.78155
	8.368073	45.7823
	8.368046	45.78323
	8.367937	45.78389
	8.370304	45.78405
	8.372824	45.78414
	8.374779	45.78419
	8.374868	45.78446
	8.374894	45.78494
	8.37501	45.78581
	8.375192	45.78627
	8.375311	45.78664
	8.37554	45.78695
	8.375561	45.78727
	8.375563	45.78766
	8.375504	45.78798
	8.375255	45.78835
	8.375037	45.78861
	8.374783	45.78882
	8.374429	45.78918
	8.374541	45.79013
	8.374921	45.79184
	8.375013	45.79203
	8.374601	45.79287
	8.374587	45.7931
	8.374313	45.7939
	8.374358	45.79456
	8.374325	45.79471
	8.374318	45.79507
	8.374008	45.79464
	8.37398	45.79452
	8.374108	45.79379
	8.373968	45.79373
	8.373746	45.79309
	8.373713	45.79281
	8.373663	45.79275
	8.373629	45.79275
	8.373572	45.79258
	8.373504	45.7925
	8.37259	45.79188
	8.372328	45.79179
	8.372081	45.79173
	8.371894	45.79161
	8.37131	45.79139
	8.371193	45.79136
	8.370287	45.79138
	8.370007	45.79145
	8.369804	45.79151
	8.369678	45.79156
	8.368585	45.79253
	8.36855	45.7926
	8.368341	45.79367
	8.368354	45.79382
	8.368849	45.79377
	8.368911	45.79521
	8.369957	45.79517
	8.369959	45.79527
	8.369995	45.79534
	8.370113	45.79541
	8.37009	45.79553
	8.370145	45.79576
	8.370448	45.79645
	8.370581	45.79664
	8.370736	45.79696
	8.370197	45.79747
	8.3697	45.79798
	8.369335	45.79879
	8.368783	45.79834
	8.3681	45.79781
	8.367174	45.79897
	8.367391	45.79915
	8.367779	45.7992
	8.367955	45.79918
	8.368386	45.7995
	8.368949	45.79957
	8.369105	45.79964
	8.369084	45.79997
	8.369133	45.80012
	8.368783	45.80046
	8.369139	45.80053
	8.369263	45.80052
	8.369528	45.80135
	8.369625	45.80147
	8.369815	45.80157
	8.369784	45.80202
	8.370144	45.8022
	8.370207	45.80196
	8.370191	45.80186
	8.370236	45.80186
	8.370256	45.80178
	8.370322	45.8018
	8.370424	45.80181
	8.370813	45.80173
	8.371092	45.8017
	8.371215	45.8017
	8.371814	45.80178
	8.372262	45.80169
	8.374064	45.80091
	8.374226	45.80098
	8.374363	45.80102
	8.374712	45.80118
	8.374797	45.80123
	8.375781	45.80271
	8.375787	45.80276
	8.375335	45.8043
	8.375206	45.80445
	8.375314	45.80451
	8.375641	45.80484
	8.375503	45.80513
	8.375359	45.80536
	8.375192	45.80554
	8.375172	45.80567
	8.375235	45.80603
	8.375504	45.80625
	8.375769	45.80642
	8.375888	45.80652
	8.376128	45.80679
	8.376281	45.80693
	8.376438	45.80704
	8.37656	45.80721
	8.376588	45.80732
	8.376503	45.80752
	8.376474	45.80803
	8.376397	45.80842
	8.376357	45.80854
	8.376239	45.80865
	8.378091	45.80903
	8.37901	45.80931
	8.37951	45.80939
	8.379867	45.80933
	8.38069	45.80956
	8.380947	45.80971
	8.380914	45.8098
	8.380961	45.80986
	8.381187	45.80998
	8.381395	45.81011
	8.381378	45.8102
	8.38144	45.81047
	8.382013	45.81083
	8.381996	45.81092
	8.382281	45.81184
	8.382302	45.81212
	8.382189	45.8125
	8.382052	45.81271
	8.38174	45.8131
	8.381506	45.81335
	8.381193	45.81358
	8.381002	45.8139
	8.380942	45.81451
	8.380643	45.81489
	8.380394	45.81552
	8.380204	45.81581
	8.380014	45.81599
	8.379986	45.81614
	8.380061	45.81663
	8.38003	45.81698
	8.379836	45.81749
	8.379859	45.81786
	8.380033	45.81846
	8.379935	45.81882
	8.379537	45.81934
	8.379229	45.81966
	8.378187	45.82038
	8.377919	45.82079
	8.377799	45.82104
	8.377767	45.82132
	8.377699	45.82165
	8.377468	45.82205
	8.377273	45.82254
	8.377071	45.82299
	8.376892	45.82334
	8.376307	45.82402
	8.375768	45.82461
	8.375577	45.82492
	8.375402	45.82515
	8.375407	45.82545
	8.375512	45.8263
	8.375506	45.82657
	8.375542	45.82677
	8.375438	45.82709
	8.37535	45.82743
	8.375256	45.82801
	8.375267	45.8283
	8.375716	45.82905
	8.376164	45.82954
	8.376689	45.83045
	8.376652	45.83128
	8.37595	45.8324
	8.37569	45.83358
	8.376234	45.83422
	8.376832	45.83521
	8.377788	45.8365
	8.377318	45.8377
	8.377419	45.83846
	8.378179	45.83914
	8.380877	45.83929
	8.382488	45.8398
	8.383778	45.84014
	8.385245	45.83995
	8.391338	45.83957
	8.392774	45.83949
	8.393386	45.84099
	8.39406	45.84254
	8.395125	45.84459
	8.399266	45.85427
	8.405774	45.84725
	8.405777	45.84716
	8.405917	45.8471
	8.407002	45.84722
	8.407462	45.84706
	8.407946	45.84704
	8.40817	45.84444
	8.408319	45.84345
	8.407538	45.8417
	8.407013	45.84046
	8.407114	45.83916
	8.40726	45.83833
	8.407462	45.83778
	8.407717	45.83723
	8.408117	45.83648
	8.408394	45.83566
	8.408727	45.83394
	8.409066	45.83278
	8.409192	45.83202
	8.409226	45.83126
	8.409604	45.83085
	8.409862	45.8305
	8.41008	45.83034
	8.410381	45.8303
	8.411135	45.83017
	8.413517	45.83014
	8.41554	45.83006
	8.417106	45.82935
	8.417514	45.82989
	8.417508	45.83014
	8.41811	45.83018
	8.419635	45.8302
	8.419964	45.83003
	8.42029	45.82982
	8.420787	45.82981
	8.420741	45.8299
	8.420649	45.82999
	8.420477	45.83005
	8.420283	45.8301
	8.420233	45.83016
	8.420222	45.83027
	8.420235	45.8304
	8.420288	45.83052
	8.4204	45.83071
	8.420411	45.83083
	8.420222	45.83123
	8.420186	45.83225
	8.420122	45.83248
	8.42007	45.83281
	8.420063	45.83303
	8.420112	45.83319
	8.420365	45.83345
	8.42049	45.83364
	8.420744	45.83412
	8.420874	45.83429
	8.420884	45.83439
	8.420871	45.83452
	8.420781	45.83465
	8.420654	45.8351
	8.420576	45.83532
	8.420592	45.83556
	8.420648	45.83568
	8.420662	45.8358
	8.420968	45.83612
	8.421193	45.83638
	8.421734	45.83683
	8.422273	45.83722
	8.422468	45.83738
	8.422976	45.83742
	8.423281	45.83752
	8.424474	45.83813
	8.424678	45.83837
	8.424936	45.83886
	8.425172	45.83919
	8.42556	45.83939
	8.426287	45.83965
	8.427314	45.83983
	8.428421	45.84
	8.429185	45.8401
	8.429557	45.84022
	8.430247	45.84056
	8.430582	45.84092
	8.430804	45.84127
	8.431173	45.8417
	8.43184	45.84211
	8.43275	45.84262
	8.433102	45.84278
	8.433328	45.84286
	8.433752	45.84318
	8.434229	45.84343
	8.434932	45.84377
	8.435739	45.84438
	8.435979	45.84453
	8.436366	45.84465
	8.436717	45.8448
	8.437175	45.84488
	8.437562	45.84508
	8.437852	45.84538
	8.438254	45.84554
	8.438572	45.84636
	8.438756	45.84674
	8.439013	45.84707
	8.439207	45.84741
	8.439578	45.84774
	8.439949	45.84816
	8.440263	45.84842
	8.44046	45.84878
	8.440531	45.84906
	8.440771	45.84934
	8.440988	45.84977
	8.441164	45.85014
	8.441214	45.85033
	8.441445	45.85053
	8.442053	45.85093
	8.4436	45.85199
	8.444077	45.85228
	8.445445	45.85316
	8.446715	45.85452
	8.447596	45.85505
	8.449241	45.85579
	8.450007	45.85626
	8.45068	45.85706
	8.451274	45.85783
	8.45148	45.85832
	8.451633	45.85938
	8.45163	45.85972
	8.45171	45.86017
	8.452214	45.861
	8.452406	45.86138
	8.452375	45.86241
	8.452496	45.86291
	8.452774	45.86366
	8.453095	45.86423
	8.452536	45.86444
	8.452366	45.86453
	8.451975	45.86483
	8.451859	45.86494
	8.4514	45.86561
	8.451357	45.86571
	8.451218	45.86676
	8.451234	45.86687
	8.451387	45.86741
	8.451487	45.86763
	8.45161	45.86819
	8.451686	45.86834
	8.452078	45.86887
	8.452191	45.86898
	8.452534	45.86925
	8.452728	45.86937
	8.453356	45.86962
	8.453727	45.8697
	8.454113	45.87052
	8.454548	45.87112
	8.454664	45.87123
	8.454912	45.87143
	8.45516	45.87159
	8.455161	45.87181
	8.45521	45.87226
	8.45537	45.87277
	8.455427	45.87289
	8.455609	45.87318
	8.455619	45.87328
	8.455553	45.87345
	8.455505	45.87378
	8.455123	45.87402
	8.454834	45.87432
	8.454958	45.87465
	8.455845	45.87555
	8.455877	45.8756
	8.455931	45.87587
	8.456119	45.87618
	8.456804	45.87649
	8.457229	45.8767
	8.457358	45.87679
	8.457507	45.87655
	8.457905	45.87661
	8.457403	45.87633
	8.457148	45.87594
	8.456732	45.87514
	8.457124	45.87493
	8.457119	45.87485
	8.456378	45.87371
	8.457017	45.8733
	8.456976	45.87292
	8.456993	45.87286
	8.458014	45.87165
	8.458053	45.87163
	8.459314	45.87145
	8.459396	45.87146
	8.460379	45.87195
	8.460455	45.87202
	8.460762	45.87239
	8.460857	45.87234
	8.460967	45.87205
	8.46102	45.87196
	8.461319	45.87158
	8.461493	45.8714
	8.461586	45.87112
	8.461669	45.87098
	8.46174	45.87081
	8.461701	45.87028
	8.461709	45.87016
	8.462243	45.86892
	8.462301	45.86885
	8.463593	45.86822
	8.463689	45.86822
	8.465364	45.86889
	8.465435	45.86897
	8.465846	45.86971
	8.465884	45.86984
	8.467988	45.86955
	8.46834	45.86947
	8.469154	45.86895
	8.469909	45.86849
	8.470409	45.86807
	8.470699	45.86792
	8.4713	45.86782
	8.472006	45.86775
	8.472813	45.8676
	8.473651	45.86742
	8.474095	45.86716
	8.474413	45.86717
	8.474751	45.86721
	8.474728	45.86713
	8.474556	45.86699
	8.474242	45.86685
	8.474064	45.86672
	8.473949	45.86659
	8.473692	45.86644
	8.473552	45.86623
	8.473398	45.86595
	8.473273	45.86579
	8.473235	45.86572
	8.473223	45.86545
	8.47329	45.86473
	8.473291	45.86438
	8.473211	45.86406
	8.47322	45.86383
	8.473501	45.8625
	8.473789	45.86202
	8.473925	45.86154
	8.474006	45.86136
	8.473981	45.8613
	8.473895	45.86123
	8.473793	45.86087
	8.473863	45.86062
	8.474011	45.86022
	8.474031	45.85998
	8.473929	45.85981
	8.473848	45.85956
	8.473856	45.85948
	8.473987	45.85932
	8.4741	45.85915
	8.474126	45.85902
	8.474103	45.8588
	8.474105	45.85859
	8.474396	45.8574
	8.474493	45.85728
	8.474614	45.857
	8.474751	45.8568
	8.474801	45.85657
	8.475185	45.85622
	8.475838	45.85598
	8.476236	45.85588
	8.476665	45.85584
	8.47703	45.85578
	8.478143	45.85563
	8.47846	45.85557
	8.478763	45.85547
	8.479161	45.8553
	8.479656	45.85497
	8.479879	45.85485
	8.480198	45.85472
	8.480277	45.85472
	8.48272	45.85431
	8.482854	45.85379
	8.483211	45.85297
	8.48363	45.8524
	8.484178	45.85158
	8.48558	45.85121
	8.48721	45.85033
	8.48798	45.84957
	8.490017	45.84934
	8.491778	45.84965
	8.492061	45.84948
	8.492612	45.8492
	8.492816	45.84908
	8.493742	45.84839
	8.494095	45.84798
	8.494376	45.84781
	8.495113	45.84763
	8.496165	45.84759
	8.497753	45.84765
	8.497996	45.84751
	8.498221	45.84733
	8.498178	45.84679
	8.497991	45.84632
	8.498123	45.84581
	8.49775	45.8449
	8.497217	45.84407
	8.496809	45.84349
	8.496753	45.84267
	8.496989	45.84116
	8.496878	45.83934
	8.496258	45.83758
	8.496106	45.83685
	8.495672	45.83562
	8.495104	45.83516
	8.494984	45.83461
	8.494344	45.83403
	8.493881	45.83314
	8.493892	45.83274
	8.494214	45.83255
	8.49469	45.83224
	8.494769	45.83232
	8.4949	45.83249
	8.496016	45.83237
	8.49646	45.83228
	8.496833	45.83214
	8.496922	45.83199
	8.497132	45.83185
	8.498043	45.83173
	8.498361	45.83181
	8.498393	45.83207
	8.498355	45.83212
	8.498255	45.8324
	8.498255	45.83247
	8.498031	45.83312
	8.498474	45.83335
	8.499297	45.8337
	8.499961	45.83402
	8.501659	45.8343
	8.503675	45.83454
	8.506693	45.83473
	8.509281	45.83498
	8.510183	45.83505
	8.510454	45.83463
	8.511085	45.83472
	8.511741	45.83479
	8.512862	45.83483
	8.51375	45.83488
	8.515062	45.8351
	8.517121	45.83542
	8.517854	45.83561
	8.51865	45.83594
	8.519113	45.83606
	8.519615	45.83604
	8.519989	45.83605
	8.520284	45.83616
	8.520476	45.83633
	8.520836	45.8364
	8.521209	45.83654
	8.521503	45.83673
	8.521772	45.83693
	8.521846	45.8373
	8.52196	45.83755
	8.522189	45.83781
	8.522548	45.83812
	8.52279	45.8384
	8.523034	45.8385
	8.523485	45.83854
	8.523746	45.83859
	8.523956	45.83872
	8.52414	45.83879
	8.52424	45.8391
	8.524342	45.83919
	8.524523	45.83923
	8.524896	45.83925
	8.525415	45.83917
	8.525876	45.83917
	8.526301	45.83919
	8.526571	45.83927
	8.526776	45.83942
	8.527341	45.83967
	8.527559	45.83973
	8.527997	45.83974
	8.528203	45.8398
	8.528408	45.83989
	8.528523	45.83997
	8.52856	45.84022
	8.528544	45.84058
	8.528647	45.8406
	8.528725	45.84057
	8.529088	45.84019
	8.529361	45.84
	8.52967	45.83996
	8.529979	45.83997
	8.530185	45.84003
	8.530351	45.84017
	8.530464	45.84051
	8.530605	45.84063
	8.530786	45.84065
	8.531044	45.84053
	8.531484	45.84027
	8.532078	45.8401
	8.532787	45.84004
	8.533561	45.84004
	8.534512	45.84032
	8.534871	45.84044
	8.534976	45.84027
	8.534682	45.83995
	8.534581	45.83978
	8.534569	45.83965
	8.534673	45.83949
	8.535009	45.83944
	8.535266	45.83947
	8.535421	45.8394
	8.53572	45.83919
	8.535875	45.83914
	8.536106	45.83919
	8.536596	45.83918
	8.536802	45.8392
	8.5372	45.83932
	8.537367	45.83935
	8.537535	45.83935
	8.538194	45.83916
	8.538349	45.8391
	8.538518	45.83891
	8.538621	45.83887
	8.538737	45.83885
	8.538931	45.83884
	8.539214	45.83885
	8.539292	45.83881
	8.539344	45.83874
	8.53955	45.83868
	8.539649	45.83867
	8.53999	45.83867
	8.540317	45.83859
	8.540842	45.83858
	8.541146	45.83853
	8.542479	45.83949
	8.542899	45.84145
	8.542981	45.84336
	8.543085	45.84342
	8.543481	45.84378
	8.543309	45.84398
	8.543477	45.84435
	8.544941	45.84576
	8.544781	45.8462
	8.544792	45.84661
	8.544902	45.847
	8.545099	45.84725
	8.545323	45.84764
	8.545434	45.84795
	8.545526	45.84812
	8.545455	45.84888
	8.545866	45.84891
	8.546107	45.8489
	8.546462	45.84897
	8.546774	45.84901
	8.547028	45.84909
	8.547341	45.84911
	8.547595	45.84915
	8.547951	45.84908
	8.54815	45.849
	8.548449	45.84894
	8.548676	45.84908
	8.548764	45.84925
	8.548946	45.84943
	8.549114	45.84951
	8.549668	45.84963
	8.549919	45.84984
	8.550691	45.85067
	8.551183	45.85155
	8.551313	45.8516
	8.552606	45.85181
	8.552896	45.85265
	8.553322	45.85341
	8.5538	45.85421
	8.554449	45.85463
	8.555169	45.85503
	8.556454	45.85539
	8.557037	45.85585
	8.557404	45.85606
	8.557659	45.85611
	8.558226	45.85631
	8.558709	45.85616
	8.559123	45.85587
	8.559096	45.85568
	8.559185	45.85524
	8.55916	45.85487
	8.559011	45.85392
	8.559001	45.85341
	8.559087	45.85323
	8.559444	45.85299
	8.559404	45.85276
	8.559334	45.85257
	8.559293	45.85237
	8.559308	45.85226
	8.559472	45.85219
	8.560006	45.85214
	8.5603	45.85179
	8.560851	45.85135
	8.560967	45.85084
	8.561236	45.85059
	8.561241	45.84984
	8.561372	45.8493
	8.56153	45.84879
	8.561535	45.84815
	8.561707	45.84777
	8.562146	45.84727
	8.562656	45.84662
	8.562742	45.84633
	8.562968	45.84621
	8.563292	45.84609
	8.563461	45.84594
	8.563448	45.84577
	8.563338	45.84549
	8.563285	45.8451
	8.563287	45.84486
	8.563401	45.8446
	8.563474	45.84432
	8.563462	45.84402
	8.563354	45.84349
	8.563079	45.84275
	8.563015	45.84204
	8.562991	45.84143
	8.563037	45.84093
	8.562955	45.84066
	8.563015	45.8402
	8.562962	45.83971
	8.562895	45.83937
	8.562686	45.83914
	8.562365	45.83901
	8.562128	45.83879
	8.561922	45.83816
	8.561896	45.83802
	8.56184	45.83793
	8.561855	45.83776
	8.561829	45.83756
	8.563676	45.8365
	8.565295	45.83543
	8.566595	45.83509
	8.566636	45.83503
	8.56805	45.83459
	8.56893	45.83411
	8.578086	45.8336
	8.593634	45.82829
	8.593801	45.82825
	8.592033	45.82444
	8.587941	45.81893
	8.581647	45.81366
	8.580083	45.81287
	8.578096	45.8118
	8.574306	45.81079
	8.567141	45.80867
	8.563511	45.80724
	8.558277	45.80356
	8.555564	45.80004
	8.555035	45.79861
	8.554174	45.79691
	8.553784	45.79576
	8.553024	45.79266
	8.552661	45.79127
	8.552402	45.78991
	8.552275	45.7881
	8.552518	45.78675
	8.552553	45.78394
	8.552931	45.78171
	8.553289	45.78031
	8.553999	45.77841
	8.554483	45.77721
	8.554641	45.77684
	8.555256	45.77554
	8.556321	45.77411
	8.557321	45.77286
	8.558706	45.7717
	8.56039	45.77021
	8.56211	45.76885
	8.563611	45.76776
	8.565138	45.76639
	8.566642	45.76486
	8.567975	45.76363
	8.569155	45.76241
	8.570283	45.76116
	8.571241	45.76032
	8.57229	45.75932
	8.573158	45.75842
	8.574324	45.75725
	8.575321	45.75629
	8.57606	45.75546
	8.576411	45.75496
	8.578088	45.75314
	8.582426	45.74917
	8.582911	45.74867
	8.583703	45.74753
	8.584458	45.74628
	8.585381	45.74484
	8.586006	45.74372
	8.586669	45.74273
	8.587528	45.74121
	8.588195	45.73969
	8.588693	45.73828
	8.589242	45.73711
	8.589778	45.73582
	8.590378	45.73463
	8.591029	45.73346
	8.59186	45.73227
	8.593025	45.73099
	8.594551	45.72977
	8.595983	45.72889
	8.597801	45.72805
	8.600135	45.72692
	8.602143	45.72631
	8.604715	45.72601
	8.609034	45.72571
	8.611038	45.72574
	8.613081	45.72572
	8.61519	45.7255
	8.617608	45.72522
	8.619678	45.72493
	8.620901	45.72465
	8.623038	45.72402
	8.624958	45.72326
	8.626413	45.72266
	8.627157	45.72242
	8.628176	45.72222
	8.629372	45.72208
	8.631349	45.72228
	8.633236	45.72263
	8.635341	45.72295
	8.636522	45.72305
	8.637896	45.72313
	8.639077	45.72329
	8.640065	45.7235
	8.641312	45.72347
	8.642868	45.72316
	8.644285	45.72261
	8.645961	45.72176
	8.646877	45.72113
	8.647845	45.72041
	8.648775	45.71956
	8.650717	45.71713
	8.651852	45.71592
	8.653434	45.71397
	8.653864	45.71295
	8.654022	45.71247
	8.654672	45.71109
	8.65469	45.71021
	8.654633	45.70903
	8.654358	45.70788
	8.653365	45.7064
	8.652215	45.70534
	8.651257	45.70452
	8.650428	45.70353
	8.649769	45.70214
	8.649029	45.69926
	8.648485	45.69793
	8.648271	45.69718
	8.647891	45.69643
	8.647448	45.6953
	8.646866	45.69388
	8.646142	45.69268
	8.644386	45.69017
	8.643799	45.68944
	8.643239	45.68881
	8.642511	45.68821
	8.641183	45.68702
	8.640879	45.6863
	8.640514	45.6852
	8.640366	45.68424
	8.640377	45.68384
	8.640347	45.6834
	8.640417	45.68255
	8.64036	45.68189
	8.640411	45.68142
	8.640356	45.68097
	8.640415	45.67991
	8.64062	45.67935
	8.640776	45.67877
	8.640836	45.67837
	8.640757	45.67797
	8.64076	45.67756
	8.640804	45.67718
	8.640799	45.67681
	8.640902	45.67653
	8.641307	45.67631
	8.641792	45.67602
	8.642083	45.67583
	8.64275	45.6757
	8.643424	45.67548
	8.644295	45.6754
	8.645346	45.67537
	8.645851	45.67531
	8.646795	45.67517
	8.647462	45.67505
	8.647975	45.67501
	8.648635	45.67499
	8.650173	45.67478
	8.650955	45.67472
	8.652616	45.67457
	8.654034	45.67451
	8.654914	45.67449
	8.656455	45.67448
	8.657433	45.67445
	8.658242	45.67456
	8.659059	45.67469
	8.659744	45.67475
	8.661463	45.67468
	8.663004	45.6746
	8.66368	45.67455
	8.664194	45.67458
	8.664668	45.67464
	8.665344	45.6747
	8.666871	45.67486
	8.667451	45.67495
	8.668123	45.67512
	8.668662	45.67527
	8.669571	45.67556
	8.67025	45.6757
	8.670905	45.67593
	8.671881	45.67638
	8.67322	45.67709
	8.673778	45.67736
	8.674376	45.67753
	8.675103	45.67764
	8.675714	45.67762
	8.677115	45.67754
	8.677637	45.67754
	8.678159	45.67751
	8.678785	45.67742
	8.679297	45.67725
	8.679726	45.67705
	8.680189	45.67694
	8.680734	45.67684
	8.681009	45.67664
	8.681201	45.6764
	8.681174	45.67619
	8.681292	45.67592
	8.681441	45.6755
	8.681493	45.67509
	8.681382	45.67475
	8.681171	45.6742
	8.680728	45.67283
	8.680632	45.67232
	8.681049	45.67193
	8.681432	45.67172
	8.68242	45.67124
	8.6827	45.67082
	8.682505	45.67027
	8.682163	45.66979
	8.681976	45.66945
	8.681691	45.66911
	8.681057	45.66852
	8.680422	45.66802
	8.675141	45.66697
	8.672373	45.66632
	8.67112	45.66547
	8.670203	45.66423
	8.669787	45.66286
	8.669835	45.66142
	8.670445	45.66024
	8.67135	45.65915
	8.672396	45.65797
	8.673537	45.65693
	8.675737	45.65506
	8.676989	45.65391
	8.680933	45.65099
	8.682029	45.65001
	8.683411	45.6485
	8.684665	45.64688
	8.685997	45.6451
	8.6868	45.64376
	8.688018	45.64167
	8.688554	45.63987
	8.688614	45.63821
	8.688185	45.63699
	8.687101	45.63581
	8.686322	45.6351
	8.685427	45.63451
	8.685056	45.63433
	8.684083	45.63399
	8.682494	45.63359
	8.680301	45.63345
	8.678645	45.63363
	8.677026	45.63413
	8.675675	45.63477
	8.674515	45.63563
	8.673508	45.63676
	8.672962	45.63789
	8.672648	45.63907
	8.67223	45.64024
	8.670875	45.64149
	8.668868	45.64241
	8.667121	45.64282
	8.665658	45.64288
	8.663669	45.64284
	8.661733	45.6426
	8.660364	45.64186
	8.659398	45.64034
	8.65906	45.63891
	8.658939	45.63775
	8.65932	45.63686
	8.660272	45.63581
	8.661228	45.63481
	8.662581	45.63373
	8.663896	45.63265
	8.665199	45.63155
	8.665937	45.63032
	8.665944	45.62925
	8.665529	45.62782
	8.66474	45.62672
	8.663632	45.62546
	8.662908	45.62424
	8.662695	45.62337
	8.66271	45.62306
	8.663088	45.62203
	8.664235	45.62111
	8.666212	45.62075
	8.668431	45.62084
	8.669923	45.62095
	8.673393	45.62115
	8.675802	45.62152
	8.677958	45.6215
	8.680359	45.62101
	8.682133	45.62034
	8.683665	45.61936
	8.684683	45.61858
	8.685624	45.61762
	8.686608	45.61599
	8.687335	45.61448
	8.688187	45.6135
	8.689796	45.61238
	8.691135	45.61153
	8.693864	45.60965
	8.69348	45.60944
	8.692943	45.60921
	8.692111	45.60893
	8.68878	45.60823
	8.688731	45.6078
	8.688991	45.60726
	8.689571	45.6066
	8.690229	45.60591
	8.690719	45.60543
	8.691093	45.60502
	8.691468	45.60455
	8.691855	45.6041
	8.692254	45.60379
	8.692859	45.60345
	8.693636	45.60312
	8.695326	45.60247
	8.699267	45.60171
	8.699135	45.60234
	8.699082	45.6027
	8.698776	45.6033
	8.699829	45.60449
	8.700101	45.60404
	8.700412	45.60345
	8.700864	45.60282
	8.701965	45.60176
	8.702593	45.60083
	8.703148	45.60006
	8.703488	45.59876
	8.703804	45.59719
	8.704324	45.5959
	8.704756	45.59425
	8.704893	45.59256
	8.704811	45.59104
	8.704667	45.58921
	8.704441	45.58831
	8.704136	45.58768
	8.703786	45.58732
	8.703588	45.58714
	8.702975	45.58674
	8.702258	45.58639
	8.701963	45.58622
	8.700865	45.58569
	8.7002	45.58539
	8.699471	45.58501
	8.698986	45.58473
	8.698552	45.58444
	8.698138	45.58406
	8.697402	45.5836
	8.696037	45.58242
	8.69562	45.58203
	8.695412	45.58183
	8.69489	45.58126
	8.694291	45.58051
	8.693834	45.57979
	8.69339	45.57884
	8.693345	45.57778
	8.693502	45.57716
	8.693851	45.57667
	8.694418	45.576
	8.695474	45.57516
	8.696567	45.57438
	8.697738	45.57359
	8.698896	45.57275
	8.701223	45.5714
	8.701506	45.57118
	8.701964	45.57093
	8.702405	45.57091
	8.703367	45.57062
	8.704857	45.56994
	8.705528	45.56915
	8.705816	45.56789
	8.705951	45.56666
	8.706023	45.56516
	8.706132	45.56393
	8.706471	45.56282
	8.706963	45.55937
	8.706879	45.55831
	8.706843	45.55777
	8.706357	45.55515
	8.706096	45.55359
	8.706164	45.55279
	8.706712	45.55095
	8.707221	45.54906
	8.707755	45.54752
	8.709106	45.5439
	8.709454	45.54334
	8.711002	45.54133
	8.711259	45.54104
	8.711673	45.54032
	8.71228	45.53939
	8.712617	45.53856
	8.71289	45.53769
	8.713485	45.53655
	8.71472	45.53547
	8.717738	45.53391
	8.718574	45.53315
	8.718962	45.53239
	8.719222	45.53171
	8.719404	45.53105
	8.718026	45.53015
	8.714923	45.52834
	8.714413	45.52788
	8.714045	45.52719
	8.713764	45.52638
	8.713413	45.52561
	8.712815	45.52487
	8.712561	45.52433
	8.712424	45.52358
	8.712291	45.52203
	8.712565	45.52117
	8.713069	45.52013
	8.713573	45.51935
	8.714012	45.51862
	8.714387	45.51788
	8.715006	45.51695
	8.715816	45.51636
	8.71692	45.51569
	8.718387	45.51486
	8.719295	45.51431
	8.719632	45.51356
	8.719765	45.5126
	8.719732	45.51143
	8.719853	45.51024
	8.719985	45.50947
	8.720404	45.50901
	8.722002	45.50813
	8.722284	45.50791
	8.722836	45.50764
	8.722915	45.50715
	8.72293	45.50675
	8.722727	45.50641
	8.722844	45.50602
	8.723513	45.50531
	8.72449	45.5045
	8.725556	45.50381
	8.726762	45.50313
	8.727892	45.5024
	8.729059	45.5021
	8.731042	45.50217
	8.731953	45.50185
	8.734947	45.50075
	8.736327	45.49991
	8.738535	45.49846
	8.739343	45.49811
	8.740714	45.49781
	8.741904	45.4977
	8.742838	45.4978
	8.744195	45.49784
	8.745667	45.49782
	8.746665	45.49791
	8.748187	45.49809
	8.749235	45.49845
	8.750565	45.49865
	8.751551	45.49856
	8.753151	45.49846
	8.754957	45.4984
	8.756211	45.49831
	8.757082	45.49806
	8.757404	45.49779
	8.758199	45.49742
	8.759142	45.49713
	8.760352	45.49685
	8.761662	45.49567
	8.762641	45.49427
	8.763491	45.49286
	8.765175	45.49113
	8.766946	45.48978
	8.768746	45.48783
	8.770172	45.48653
	8.771749	45.48558
	8.773494	45.4847
	8.775261	45.48437
	8.777359	45.48445
	8.779598	45.48461
	8.781349	45.48505
	8.782622	45.4859
	8.783562	45.48644
	8.783683	45.48652
	8.784644	45.4868
	8.78591	45.48686
	8.786781	45.48667
	8.787487	45.48623
	8.788976	45.4841
	8.789353	45.48319
	8.790037	45.48186
	8.79058	45.48021
	8.790803	45.47874
	8.790925	45.47695
	8.790811	45.47309
	8.790894	45.47147
	8.791205	45.4701
	8.791441	45.46877
	8.79128	45.46737
	8.790197	45.4663
	8.788832	45.46521
	8.788124	45.46416
	8.788111	45.46317
	8.788374	45.46251
	8.78983	45.46172
	8.791252	45.46114
	8.792508	45.46036
	8.79337	45.45921
	8.794127	45.45843
	8.795561	45.45794
	8.79743	45.45766
	8.79862	45.45742
	8.799198	45.45671
	8.799969	45.45582
	8.800303	45.45526
	8.800997	45.45437
	8.802203	45.45308
	8.803538	45.4517
	8.804771	45.45027
	8.805645	45.44908
	8.806683	45.44831
	8.807823	45.4477
	8.808682	45.44713
	8.81007	45.44598
	8.810543	45.44499
	8.810549	45.44342
	8.81104	45.44181
	8.811825	45.44036
	8.811983	45.43897
	8.811513	45.43794
	8.810019	45.43738
	8.808832	45.43672
	8.808017	45.43576
	8.807638	45.43446
	8.808102	45.43333
	8.809063	45.43273
	8.809988	45.43255
	8.81125	45.43257
	8.812591	45.43289
	8.813413	45.43323
	8.815029	45.43394
	8.818006	45.43472
	8.818402	45.43486
	8.819462	45.4352
	8.821277	45.43537
	8.823143	45.43532
	8.82432	45.43512
	8.824948	45.43477
	8.825833	45.43395
	8.826335	45.43259
	8.82584	45.43154
	8.825267	45.43076
	8.824374	45.43011
	8.822868	45.42943
	8.820378	45.4284
	8.820239	45.42812
	8.820752	45.4275
	8.821725	45.42686
	8.822826	45.42631
	8.823889	45.42569
	8.82439	45.42493
	8.824496	45.42374
	8.824309	45.42241
	8.824248	45.42126
	8.824251	45.42032
	8.824278	45.42024
	8.824322	45.41942
	8.82442	45.41921
	8.824413	45.419
	8.824301	45.4188
	8.82394	45.41852
	8.823666	45.41826
	8.823557	45.41798
	8.8235	45.41768
	8.823497	45.41739
	8.823393	45.41633
	8.823407	45.41516
	8.823334	45.41464
	8.823381	45.41393
	8.823493	45.41317
	8.823679	45.41244
	8.82407	45.41174
	8.824211	45.41158
	8.825157	45.41077
	8.826239	45.4097
	8.827104	45.40901
	8.827963	45.40854
	8.828668	45.40825
	8.829229	45.40806
	8.83034	45.40782
	8.830938	45.40772
	8.832847	45.40764
	8.833485	45.40756
	8.834378	45.40752
	8.834977	45.40742
	8.835861	45.40714
	8.837107	45.40664
	8.837345	45.40645
	8.83757	45.4062
	8.838427	45.40495
	8.839566	45.40342
	8.841323	45.4003
	8.841548	45.39985
	8.841698	45.39942
	8.841889	45.39915
	8.842035	45.39903
	8.842192	45.39895
	8.841478	45.39854
	8.840751	45.39789
	8.840664	45.39722
	8.841127	45.39616
	8.841704	45.39519
	8.842896	45.39384
	8.841581	45.39345
	8.840995	45.3931
	8.840063	45.39279
	8.838684	45.39268
	8.836742	45.39266
	8.835555	45.39235
	8.834585	45.3919
	8.833168	45.39137
	8.830973	45.39073
	8.829518	45.39027
	8.826973	45.39027
	8.826732	45.39055
	8.826077	45.39178
	8.824761	45.39182
	8.823713	45.3919
	8.822778	45.39263
	8.822203	45.39285
	8.820978	45.39237
	8.821786	45.39145
	8.817739	45.39041
	8.814163	45.39007
	8.812939	45.38958
	8.811228	45.38911
	8.810535	45.38879
	8.810657	45.38793
	8.810981	45.38665
	8.811535	45.38511
	8.812025	45.38383
	8.811899	45.38327
	8.810841	45.38276
	8.810102	45.38229
	8.808812	45.38206
	8.807063	45.38178
	8.806438	45.38164
	8.806926	45.38092
	8.804056	45.37988
	8.802869	45.37956
	8.801542	45.37918
	8.801182	45.37988
	8.79776	45.37953
	8.795933	45.37954
	8.794735	45.37899
	8.793381	45.37896
	8.792268	45.37945
	8.791423	45.37993
	8.790312	45.38002
	8.789456	45.37991
	8.788405	45.38098
	8.787509	45.38147
	8.78655	45.38173
	8.785945	45.38301
	8.784604	45.38299
	8.784173	45.38216
	8.782434	45.38262
	8.780836	45.38306
	8.779136	45.38327
	8.776947	45.38386
	8.776764	45.38392
	8.774774	45.38487
	8.773327	45.38579
	8.772455	45.38653
	8.771933	45.38623
	8.769053	45.38761
	8.767261	45.38849
	8.76634	45.38877
	8.765432	45.38894
	8.764952	45.38759
	8.764794	45.38571
	8.764302	45.38433
	8.764267	45.38345
	8.76262	45.38328
	8.76105	45.38293
	8.762011	45.38234
	8.762869	45.38184
	8.762973	45.38127
	8.762722	45.38021
	8.763225	45.37906
	8.763714	45.37815
	8.764024	45.3773
	8.760886	45.37648
	8.759737	45.37638
	8.758127	45.37949
	8.756379	45.37911
	8.757797	45.37613
	8.756483	45.37586
	8.75564	45.37574
	8.754848	45.3758
	8.754527	45.37629
	8.755048	45.37689
	8.754842	45.37714
	8.754063	45.37707
	8.752546	45.37658
	8.751156	45.3761
	8.751491	45.3754
	8.749489	45.3747
	8.74829	45.37438
	8.746854	45.37556
	8.745675	45.37649
	8.744332	45.37687
	8.743387	45.37692
	8.742123	45.37679
	8.741676	45.37678
	8.741138	45.37713
	8.740716	45.3772
	8.740473	45.37715
	8.74027	45.3771
	8.740784	45.37637
	8.73947	45.37608
	8.737772	45.37597
	8.736176	45.37574
	8.735564	45.37556
	8.734823	45.37566
	8.733406	45.37557
	8.732717	45.37524
	8.732054	45.37503
	8.731441	45.37505
	8.730826	45.37553
	8.72997	45.37562
	8.728974	45.37551
	8.728081	45.37544
	8.727135	45.37563
	8.726329	45.3759
	8.725611	45.37635
	8.724855	45.37696
	8.724059	45.37772
	8.723596	45.37835
	8.723325	45.37888
	8.722914	45.37945
	8.722568	45.37969
	8.722267	45.37973
	8.722095	45.37974
	8.721	45.37915
	8.719292	45.37838
	8.719076	45.37808
	8.718887	45.37763
	8.718697	45.37723
	8.718469	45.37682
	8.718484	45.37649
	8.718883	45.37592
	8.719472	45.37555
	8.71992	45.37537
	8.720291	45.37517
	8.720447	45.37461
	8.720359	45.37432
	8.720184	45.37362
	8.71988	45.37302
	8.719935	45.37227
	8.720348	45.37144
	8.720442	45.37046
	8.721094	45.3704
	8.72371	45.3708
	8.724452	45.37049
	8.724913	45.37013
	8.726169	45.3692
	8.727229	45.36935
	8.727612	45.36922
	8.727998	45.36856
	8.728396	45.36821
	8.729405	45.36815
	8.730592	45.36823
	8.73117	45.36764
	8.73179	45.36613
	8.732216	45.36523
	8.733021	45.36491
	8.734415	45.36449
	8.73529	45.36317
	8.735818	45.36223
	8.736752	45.36178
	8.738005	45.36147
	8.739694	45.36055
	8.74323	45.35795
	8.74363	45.35704
	8.743214	45.35587
	8.743254	45.35541
	8.744174	45.35538
	8.744903	45.35495
	8.745506	45.35439
	8.745926	45.35447
	8.746131	45.35452
	8.746396	45.35519
	8.74642	45.35583
	8.746697	45.35629
	8.747489	45.35629
	8.749225	45.35634
	8.75082	45.35654
	8.75184	45.35686
	8.753371	45.35704
	8.75609	45.35721
	8.757228	45.3569
	8.757574	45.35651
	8.758597	45.35612
	8.760662	45.3557
	8.760387	45.35545
	8.760133	45.35527
	8.759981	45.35497
	8.759682	45.35481
	8.759566	45.3548
	8.758858	45.35467
	8.75775	45.3545
	8.757506	45.35422
	8.757569	45.35395
	8.757717	45.35361
	8.759016	45.35263
	8.759403	45.35239
	8.759848	45.35216
	8.760192	45.35203
	8.760452	45.35188
	8.761216	45.35148
	8.761867	45.351
	8.76222	45.35081
	8.762433	45.35045
	8.762674	45.35023
	8.762674	45.34993
	8.762512	45.34969
	8.762491	45.34963
	8.762496	45.34926
	8.762544	45.34889
	8.762538	45.34862
	8.762304	45.34839
	8.761524	45.34786
	8.760453	45.3473
	8.759904	45.34683
	8.759763	45.3467
	8.759722	45.34636
	8.759664	45.34612
	8.759476	45.34585
	8.759303	45.34562
	8.75905	45.34541
	8.758714	45.3452
	8.757974	45.34488
	8.757521	45.3447
	8.757129	45.34458
	8.75633	45.34444
	8.755795	45.34446
	8.755372	45.34451
	8.754513	45.34443
	8.75415	45.34438
	8.753788	45.34424
	8.753259	45.34401
	8.752922	45.34386
	8.752457	45.34363
	8.752124	45.34332
	8.751772	45.34311
	8.751427	45.34284
	8.751111	45.34257
	8.750731	45.34228
	8.750285	45.34196
	8.749904	45.34173
	8.749579	45.34163
	8.749167	45.34159
	8.748601	45.34148
	8.748439	45.34131
	8.748256	45.34103
	8.748195	45.34075
	8.748174	45.34046
	8.748075	45.3402
	8.747943	45.33966
	8.747941	45.33938
	8.747806	45.33901
	8.747451	45.33886
	8.747073	45.33891
	8.746735	45.33899
	8.74553	45.33937
	8.745572	45.33955
	8.744021	45.34191
	8.741898	45.34052
	8.741732	45.34059
	8.741541	45.3401
	8.741161	45.33931
	8.741017	45.33891
	8.740965	45.3387
	8.740913	45.33805
	8.740938	45.33776
	8.74101	45.33738
	8.741066	45.33717
	8.741028	45.33676
	8.741019	45.33638
	8.741042	45.33608
	8.741136	45.3356
	8.741276	45.33512
	8.741546	45.33453
	8.741619	45.33442
	8.741786	45.33422
	8.741877	45.33386
	8.742005	45.33348
	8.742213	45.33319
	8.742118	45.3329
	8.742122	45.33206
	8.741153	45.332
	8.739902	45.33225
	8.739607	45.33243
	8.738739	45.3325
	8.737501	45.33262
	8.736022	45.33253
	8.735371	45.33264
	8.735292	45.33307
	8.735086	45.33341
	8.724314	45.33581
	8.725827	45.3343
	8.72654	45.33289
	8.726188	45.33173
	8.725156	45.32873
	8.724086	45.32831
	8.72373	45.32552
	8.724586	45.32515
	8.72431	45.32419
	8.723329	45.32402
	8.723011	45.32375
	8.722673	45.32243
	8.723377	45.32204
	8.723952	45.3217
	8.723993	45.32116
	8.723792	45.32063
	8.723721	45.31915
	8.723277	45.31901
	8.722231	45.31882
	8.720165	45.31872
	8.719968	45.31727
	8.719112	45.3174
	8.718877	45.31593
	8.720473	45.31566
	8.72021	45.31465
	8.719944	45.31436
	8.719269	45.3141
	8.719146	45.31314
	8.718828	45.31301
	8.718471	45.31291
	8.718323	45.31196
	8.718073	45.31083
	8.717706	45.31035
	8.71652	45.31012
	8.71637	45.30954
	8.716671	45.30808
	8.717167	45.30549
	8.716415	45.30532
	8.716121	45.30288
	8.715334	45.3021
	8.71414	45.30162
	8.712382	45.30111
	8.710419	45.30072
	8.710153	45.30039
	8.709862	45.29997
	8.708729	45.29957
	8.708986	45.29917
	8.708936	45.29889
	8.707574	45.29848
	8.707242	45.29856
	8.706984	45.2991
	8.706342	45.29998
	8.70527	45.30026
	8.704771	45.3005
	8.704676	45.30174
	8.704659	45.30261
	8.704263	45.30254
	8.704074	45.3022
	8.703975	45.30154
	8.703916	45.30071
	8.704075	45.29945
	8.704003	45.29866
	8.703968	45.29791
	8.703794	45.29706
	8.703477	45.2966
	8.702753	45.29612
	8.702332	45.29597
	8.701199	45.29563
	8.69934	45.29523
	8.697239	45.29472
	8.695418	45.29423
	8.693649	45.29372
	8.691854	45.29302
	8.690213	45.29235
	8.689803	45.29276
	8.689338	45.29382
	8.688928	45.29403
	8.687246	45.29403
	8.686595	45.29404
	8.685142	45.29388
	8.683026	45.29379
	8.6817	45.29377
	8.680446	45.29372
	8.678947	45.29364
	8.677597	45.29329
	8.67706	45.29313
	8.676159	45.29285
	8.674593	45.29232
	8.673498	45.29215
	8.67059	45.29243
	8.669161	45.29253
	8.668323	45.29247
	8.666613	45.29418
	8.666504	45.29418
	8.665834	45.29406
	8.665697	45.29401
	8.665187	45.29374
	8.66507	45.29366
	8.664809	45.29305
	8.664538	45.29378
	8.663962	45.29405
	8.663591	45.29433
	8.663486	45.29485
	8.663392	45.29563
	8.663436	45.29691
	8.663326	45.29829
	8.663126	45.29966
	8.663337	45.30069
	8.664109	45.30175
	8.663697	45.30226
	8.662393	45.30285
	8.660953	45.30282
	8.659464	45.30229
	8.658977	45.30266
	8.658869	45.30367
	8.659247	45.30435
	8.66068	45.30592
	8.660599	45.30657
	8.660503	45.3077
	8.660868	45.30847
	8.661732	45.30915
	8.663044	45.3093
	8.663195	45.30967
	8.663025	45.31052
	8.662523	45.3112
	8.662025	45.31131
	8.661752	45.31212
	8.661328	45.31268
	8.66079	45.31309
	8.660018	45.31415
	8.659326	45.31472
	8.658484	45.31487
	8.657663	45.31559
	8.656956	45.31653
	8.655811	45.31825
	8.657286	45.31881
	8.658062	45.31928
	8.657712	45.32022
	8.656848	45.32172
	8.655911	45.3228
	8.655093	45.32298
	8.654836	45.32326
	8.654972	45.32392
	8.655323	45.32504
	8.65571	45.32568
	8.656337	45.32619
	8.656117	45.32666
	8.655757	45.32711
	8.655424	45.32739
	8.655042	45.32728
	8.654456	45.32701
	8.653449	45.32695
	8.651202	45.32724
	8.649806	45.32803
	8.648374	45.3286
	8.646275	45.32959
	8.645508	45.3299
	8.645352	45.33027
	8.645387	45.33081
	8.645206	45.3312
	8.644718	45.33172
	8.64308	45.33247
	8.642097	45.33265
	8.641738	45.33293
	8.641493	45.33328
	8.641122	45.33369
	8.639106	45.33463
	8.638731	45.33531
	8.638291	45.33629
	8.638027	45.33759
	8.637032	45.33761
	8.636318	45.33754
	8.635502	45.33728
	8.63419	45.33694
	8.633233	45.33694
	8.632058	45.33705
	8.631813	45.33739
	8.631613	45.33869
	8.631486	45.34067
	8.631341	45.34138
	8.630902	45.34215
	8.630743	45.34301
	8.630633	45.34611
	8.630965	45.34622
	8.632768	45.34643
	8.633758	45.34656
	8.634596	45.34723
	8.634897	45.34808
	8.634727	45.34876
	8.634136	45.34931
	8.633434	45.34928
	8.632606	45.349
	8.631726	45.34889
	8.630259	45.34874
	8.629098	45.34865
	8.628674	45.34905
	8.628835	45.34986
	8.628663	45.35077
	8.627995	45.35139
	8.625669	45.35173
	8.6242	45.3519
	8.623342	45.35236
	8.623081	45.35311
	8.623212	45.35446
	8.622863	45.35525
	8.622284	45.35594
	8.621868	45.35698
	8.621113	45.3573
	8.619967	45.35686
	8.619537	45.35623
	8.6188	45.35568
	8.617998	45.35531
	8.61757	45.35448
	8.617803	45.35392
	8.618534	45.3535
	8.619072	45.35315
	8.619101	45.3526
	8.618694	45.35241
	8.61669	45.35245
	8.61508	45.35262
	8.614082	45.35293
	8.613658	45.35339
	8.613527	45.35379
	8.613465	45.35449
	8.612884	45.35444
	8.612595	45.35389
	8.612071	45.35388
	8.611778	45.35443
	8.611227	45.35414
	8.611191	45.35382
	8.61108	45.35324
	8.610838	45.35309
	8.610674	45.35287
	8.61055	45.35228
	8.610249	45.35159
	8.609663	45.35136
	8.609177	45.35148
	8.608983	45.35178
	8.608992	45.35245
	8.608949	45.35301
	8.608374	45.35308
	8.607456	45.35303
	8.606474	45.35284
	8.605671	45.35265
	8.604524	45.35242
	8.60325	45.35193
	8.602856	45.35172
	8.602476	45.35135
	8.602094	45.35114
	8.60101	45.35107
	8.600284	45.35079
	8.598796	45.35001
	8.598238	45.34951
	8.598521	45.34911
	8.59946	45.34817
	8.600116	45.34739
	8.599966	45.347
	8.599418	45.34691
	8.59865	45.34713
	8.598131	45.34739
	8.598379	45.34724
	8.598934	45.34675
	8.599396	45.34546
	8.599396	45.34537
	8.599049	45.34426
	8.598861	45.34398
	8.598403	45.34309
	8.598177	45.34272
	8.59811	45.34256
	8.597831	45.3421
	8.597459	45.34171
	8.5972	45.34149
	8.594383	45.34175
	8.594599	45.3441
	8.594444	45.34416
	8.594571	45.34446
	8.594654	45.34461
	8.594221	45.34482
	8.593812	45.34505
	8.59352	45.34524
	8.593331	45.34538
	8.592956	45.34567
	8.592648	45.34596
	8.592332	45.34631
	8.592013	45.34658
	8.591742	45.34687
	8.59158	45.34708
	8.591279	45.34762
	8.591022	45.34833
	8.590417	45.34876
	8.58959	45.34923
	8.588905	45.34972
	8.588614	45.34996
	8.588563	45.34999
	8.588392	45.34991
	8.588161	45.34998
	8.588034	45.35001
	8.587473	45.34999
	8.587432	45.35035
	8.58767	45.3505
	8.58719	45.35075
	8.587053	45.35079
	8.586705	45.35085
	8.586637	45.3508
	8.586241	45.35081
	8.585911	45.35095
	8.585517	45.35101
	8.585364	45.35108
	8.584955	45.35131
	8.584654	45.35132
	8.583012	45.35073
	8.581904	45.35039
	8.580898	45.35
	8.580237	45.34791
	8.57938	45.34819
	8.578812	45.34723
	8.577851	45.34777
	8.576969	45.34839
	8.576456	45.34825
	8.57587	45.34807
	8.575016	45.34791
	8.572072	45.34897
	8.570289	45.34839
	8.569148	45.34883
	8.565667	45.35024
	8.565007	45.35134
	8.563677	45.35163
	8.559294	45.35229
	8.558682	45.35376
	8.558096	45.35366
	8.557205	45.3533
	8.553757	45.36152
	8.553195	45.36149
	8.553088	45.36147
	8.551754	45.36132
	8.552523	45.35768
	8.550765	45.35721
	8.551179	45.35655
	8.55085	45.35615
	8.551267	45.35507
	8.550376	45.3548
	8.551071	45.35246
	8.545269	45.35164
	8.545607	45.35089
	8.545264	45.35063
	8.543704	45.35092
	8.542337	45.35102
	8.541495	45.35098
	8.540922	45.35081
	8.540719	45.35061
	8.541812	45.34968
	8.542342	45.34887
	8.542019	45.3478
	8.541704	45.34728
	8.540251	45.34701
	8.539922	45.34662
	8.539798	45.34611
	8.538793	45.34571
	8.538232	45.34571
	8.537702	45.34654
	8.535623	45.34627
	8.535667	45.34563
	8.533867	45.3456
	8.533565	45.34507
	8.531895	45.34483
	8.531693	45.34451
	8.531094	45.34442
	8.53073	45.34372
	8.530515	45.34341
	8.529632	45.34352
	8.52833	45.3437
	8.527003	45.34366
	8.52665	45.34316
	8.526451	45.34255
	8.52637	45.34218
	8.526903	45.34191
	8.526632	45.3407
	8.528292	45.34059
	8.527049	45.33661
	8.528158	45.3368
	8.52928	45.33685
	8.530456	45.33666
	8.531609	45.33615
	8.532547	45.33568
	8.533341	45.33512
	8.533087	45.33352
	8.533141	45.33304
	8.532967	45.3322
	8.532889	45.33092
	8.53344	45.33062
	8.533288	45.32897
	8.534208	45.32879
	8.534417	45.32823
	8.535082	45.32801
	8.53528	45.32725
	8.535679	45.32683
	8.535962	45.32646
	8.535904	45.32568
	8.535151	45.32428
	8.53625	45.32395
	8.536427	45.32254
	8.537232	45.32243
	8.537242	45.32111
	8.537805	45.32095
	8.537733	45.3204
	8.537917	45.31976
	8.538367	45.31935
	8.538107	45.31834
	8.538024	45.31754
	8.537674	45.31671
	8.536969	45.3171
	8.533972	45.3185
	8.531567	45.31938
	8.53116	45.31932
	8.530351	45.3183
	8.529152	45.31673
	8.527989	45.31545
	8.526646	45.3144
	8.524893	45.31353
	8.521613	45.31228
	8.519754	45.3118
	8.517717	45.3115
	8.515969	45.3115
	8.51473	45.31167
	8.514246	45.31214
	8.513543	45.31328
	8.513679	45.31342
	8.513599	45.31345
	8.5135	45.31351
	8.513453	45.31405
	8.513308	45.31447
	8.513009	45.31474
	8.51285	45.31507
	8.512749	45.31537
	8.512757	45.31605
	8.512795	45.31663
	8.512694	45.31688
	8.512281	45.31725
	8.51177	45.31745
	8.510424	45.31783
	8.50793	45.31857
	8.507632	45.31871
	8.50729	45.31901
	8.506919	45.31943
	8.506861	45.31953
	8.506175	45.31885
	8.505218	45.31827
	8.504418	45.31768
	8.503097	45.31674
	8.501132	45.31518
	8.499109	45.31607
	8.498933	45.31592
	8.498418	45.31524
	8.497816	45.31459
	8.497792	45.31454
	8.497746	45.31453
	8.497761	45.31464
	8.49761	45.31466
	8.497413	45.31452
	8.4974	45.31466
	8.497301	45.31465
	8.497314	45.31444
	8.496762	45.31432
	8.496683	45.31446
	8.496597	45.31441
	8.496661	45.3143
	8.49635	45.31423
	8.496241	45.31412
	8.496524	45.31384
	8.495355	45.31296
	8.495641	45.31258
	8.495362	45.31254
	8.494651	45.31231
	8.494079	45.31194
	8.492918	45.3121
	8.491714	45.31246
	8.490961	45.31283
	8.490321	45.3133
	8.489874	45.31426
	8.489425	45.31555
	8.488758	45.31581
	8.488218	45.3161
	8.488018	45.31642
	8.487378	45.3168
	8.486682	45.31719
	8.485661	45.31756
	8.484753	45.31791
	8.48424	45.31832
	8.483629	45.31875
	8.482961	45.31909
	8.482676	45.3193
	8.482447	45.31966
	8.482514	45.32003
	8.48306	45.32067
	8.483185	45.32091
	8.482786	45.32121
	8.482134	45.32145
	8.481638	45.32161
	8.481041	45.32193
	8.480089	45.3225
	8.479484	45.3228
	8.479143	45.32287
	8.478773	45.32299
	8.47833	45.32309
	8.47762	45.32311
	8.477192	45.32304
	8.47706	45.32292
	8.477049	45.32276
	8.476781	45.32247
	8.476369	45.32273
	8.475789	45.32123
	8.475111	45.32122
	8.474869	45.31984
	8.473746	45.32048
	8.472839	45.3208
	8.47234	45.32106
	8.471732	45.32145
	8.470886	45.32197
	8.470562	45.32232
	8.468614	45.32355
	8.464861	45.32582
	8.462897	45.32723
	8.463484	45.32794
	8.463588	45.32829
	8.463574	45.32848
	8.463486	45.32883
	8.463327	45.32886
	8.463144	45.32886
	8.462998	45.32892
	8.462936	45.32909
	8.462677	45.32956
	8.462646	45.3298
	8.462687	45.32992
	8.462743	45.33001
	8.46305	45.3304
	8.463188	45.33078
	8.463228	45.33107
	8.46312	45.33199
	8.463201	45.33242
	8.463608	45.33273
	8.464284	45.33308
	8.464578	45.33339
	8.464985	45.33368
	8.46553	45.33431
	8.46617	45.3355
	8.466293	45.3359
	8.4665	45.33642
	8.466457	45.33651
	8.46651	45.33687
	8.466827	45.33772
	8.466976	45.3385
	8.46728	45.33914
	8.467933	45.33896
	8.468054	45.33966
	8.468348	45.3399
	8.468686	45.34009
	8.469306	45.34027
	8.469659	45.34041
	8.470039	45.34059
	8.470656	45.34111
	8.471035	45.3416
	8.471186	45.34188
	8.471397	45.34208
	8.47172	45.34228
	8.471945	45.34247
	8.472077	45.34253
	8.472208	45.34297
	8.47239	45.34322
	8.472632	45.34304
	8.473086	45.34293
	8.473338	45.34314
	8.473563	45.34329
	8.473719	45.34327
	8.474003	45.34319
	8.473963	45.34286
	8.473742	45.34234
	8.47342	45.342
	8.472998	45.34171
	8.472457	45.34089
	8.474541	45.33997
	8.475293	45.34124
	8.47563	45.34146
	8.476268	45.34141
	8.475865	45.34055
	8.476928	45.34031
	8.477213	45.34004
	8.476945	45.33847
	8.479652	45.33926
	8.481208	45.34088
	8.481656	45.34127
	8.481555	45.34151
	8.481411	45.34175
	8.48141	45.3419
	8.481295	45.3421
	8.481068	45.3422
	8.480877	45.34304
	8.480646	45.34349
	8.480343	45.34417
	8.480384	45.34434
	8.480737	45.34442
	8.481471	45.34453
	8.482318	45.3447
	8.482827	45.34471
	8.483535	45.34464
	8.485062	45.3446
	8.487424	45.34465
	8.488256	45.34489
	8.489092	45.34496
	8.489804	45.34493
	8.490421	45.34472
	8.491156	45.34473
	8.492343	45.34491
	8.493567	45.34559
	8.493977	45.34558
	8.49481	45.34576
	8.495361	45.34586
	8.495742	45.34608
	8.496415	45.34651
	8.496952	45.3467
	8.497559	45.34681
	8.498576	45.34687
	8.498986	45.34686
	8.499295	45.34714
	8.499032	45.34722
	8.499064	45.34749
	8.499271	45.34763
	8.499533	45.34776
	8.499425	45.34853
	8.499348	45.34892
	8.499387	45.34907
	8.499083	45.35112
	8.4987	45.35111
	8.498473	45.35118
	8.498353	45.35111
	8.497912	45.35105
	8.497544	45.35097
	8.497321	45.35096
	8.496755	45.35101
	8.496413	45.35101
	8.496401	45.35119
	8.496318	45.35141
	8.495635	45.35134
	8.49528	45.35134
	8.495225	45.35161
	8.494799	45.35437
	8.495232	45.35451
	8.494604	45.35712
	8.498	45.3574
	8.498246	45.35777
	8.498354	45.35893
	8.498346	45.35925
	8.498252	45.36009
	8.498164	45.36042
	8.498419	45.3618
	8.498335	45.36222
	8.497686	45.36452
	8.497412	45.36532
	8.497272	45.36605
	8.497427	45.3667
	8.497595	45.36787
	8.497675	45.36813
	8.497278	45.36837
	8.496825	45.36908
	8.496886	45.36959
	8.497106	45.36998
	8.497076	45.37039
	8.496874	45.3709
	8.496463	45.37138
	8.495933	45.37173
	8.495391	45.37206
	8.495124	45.37255
	8.496504	45.37274
	8.496143	45.37418
	8.495315	45.374
	8.495065	45.37399
	8.494751	45.37389
	8.494234	45.37426
	8.49359	45.3743
	8.493111	45.37402
	8.491576	45.37378
	8.490974	45.37528
	8.490492	45.37541
	8.489571	45.37527
	8.488418	45.37559
	8.487429	45.37557
	8.486985	45.37587
	8.486	45.3759
	8.484991	45.37552
	8.484806	45.37589
	8.484965	45.37609
	8.485001	45.37655
	8.485223	45.37708
	8.485539	45.37772
	8.486154	45.37907
	8.48634	45.3793
	8.486404	45.37957
	8.486589	45.37977
	8.486693	45.38012
	8.486915	45.38034
	8.486187	45.38067
	8.48601	45.38085
	8.485554	45.38109
	8.484562	45.38139
	8.484015	45.38159
	8.483585	45.38151
	8.482853	45.38123
	8.482002	45.38082
	8.479924	45.37998
	8.474985	45.3794
	8.475015	45.37901
	8.473639	45.37897
	8.473583	45.37921
	8.471445	45.37917
	8.471191	45.38068
	8.470819	45.38334
	8.470702	45.38433
	8.470336	45.38423
	8.46654	45.38348
	8.463568	45.38291
	8.460164	45.38216
	8.458854	45.3819
	8.458732	45.38184
	8.458965	45.38008
	8.459193	45.37887
	8.459373	45.37817
	8.455306	45.37793
	8.455268	45.37839
	8.455213	45.3787
	8.455225	45.37884
	8.455448	45.37889
	8.455566	45.37895
	8.455617	45.37904
	8.455566	45.37954
	8.455526	45.38165
	8.45545	45.38247
	8.453369	45.38213
	8.453388	45.38303
	8.453502	45.38406
	8.453227	45.38413
	8.453174	45.38422
	8.453053	45.38452
	8.452866	45.38507
	8.452799	45.38513
	8.452598	45.38513
	8.452078	45.385
	8.451811	45.38502
	8.451896	45.38592
	8.45188	45.38616
	8.451716	45.38655
	8.45158	45.38675
	8.451217	45.38699
	8.451108	45.38721
	8.45075	45.38832
	8.450549	45.38838
	8.449374	45.38817
	8.449279	45.38831
	8.449332	45.38838
	8.449344	45.38853
	8.449151	45.38914
	8.448929	45.38994
	8.448753	45.39018
	8.448501	45.39002
	8.447519	45.39064
	8.44749	45.39088
	8.445993	45.39227
	8.445714	45.39211
	8.445489	45.3919
	8.445183	45.39171
	8.444823	45.39164
	8.444339	45.39192
	8.444045	45.39189
	8.443271	45.39176
	8.443003	45.39182
	8.442451	45.39221
	8.44234	45.3926
	8.441939	45.39264
	8.44204	45.39327
	8.442137	45.39423
	8.441594	45.39506
	8.440695	45.3954
	8.441014	45.39696
	8.441011	45.39732
	8.440131	45.39836
	8.439384	45.39871
	8.439392	45.3992
	8.439542	45.40011
	8.439675	45.40109
	8.439659	45.40136
	8.43978	45.4016
	8.439954	45.40211
	8.439853	45.40257
	8.439669	45.40307
	8.439279	45.40337
	8.438447	45.40368
	8.438024	45.40378
	8.438022	45.40396
	8.43715	45.40434
	8.436389	45.40616
	8.435038	45.40628
	8.434227	45.40758
	8.434287	45.40853
	8.432566	45.40821
	8.432476	45.40931
	8.433107	45.40937
	8.433579	45.40962
	8.433272	45.41209
	8.429954	45.41205
	8.429058	45.41205
	8.429093	45.41089
	8.427113	45.41027
	8.42619	45.40988
	8.425815	45.40934
	8.425468	45.40923
	8.423997	45.40913
	8.423138	45.40893
	8.421387	45.40861
	8.420297	45.40837
	8.420151	45.40814
	8.418015	45.40821
	8.41555	45.40813
	8.411082	45.40781
	8.410698	45.4062
	8.410733	45.40475
	8.410682	45.40182
	8.410107	45.40005
	8.40997	45.39941
	8.40938	45.39919
	8.408092	45.39909
	8.408288	45.39791
	8.408439	45.39717
	8.407253	45.39711
	8.407419	45.39694
	8.400472	45.39619
	8.400544	45.39903
	8.401197	45.40112
	8.401262	45.40274
	8.401809	45.40518
	8.402008	45.4057
	8.40308	45.40683
	8.403363	45.40721
	8.403787	45.4077
	8.403997	45.40861
	8.404416	45.41019
	8.404649	45.41135
	8.405162	45.41318
	8.405405	45.41538
	8.405688	45.4176
	8.406081	45.41921
	8.406464	45.41971
	8.406001	45.42095
	8.405629	45.42132
	8.405517	45.42222
	8.405354	45.42415
	8.405344	45.42509
	8.405473	45.42639
	8.405869	45.42772
	8.405943	45.42846
	8.405568	45.4291
	8.405461	45.42954
	8.406425	45.43519
	8.406535	45.43641
	8.406409	45.4367
	8.405059	45.43818
	8.404359	45.43879
	8.405807	45.44029
	8.405786	45.44143
	8.405795	45.44285
	8.405774	45.44325
	8.405828	45.44331
	8.405885	45.44376
	8.406146	45.44422
	8.408037	45.44736
	8.408265	45.44764
	8.408409	45.44825
	8.408386	45.44893
	8.408421	45.45034
	8.408356	45.45117
	8.408218	45.4518
	8.407923	45.45229
	8.407525	45.45261
	8.407284	45.45294
	8.40707	45.45331
	8.407015	45.45349
	8.406914	45.45373
	8.406378	45.45361
	8.406181	45.45356
	8.406105	45.45353
	8.405982	45.45335
	8.405888	45.45313
	8.405746	45.45306
	8.40531	45.45306
	8.405115	45.45309
	8.404408	45.45368
	8.404374	45.45402
	8.404254	45.45453
	8.403302	45.45831
	8.403033	45.45944
	8.40289	45.4599
	8.402687	45.45985
	8.402421	45.46038
	8.402427	45.46075
	8.402336	45.46212
	8.402306	45.46498
	8.402339	45.46542
	8.402392	45.46565
	8.402422	45.4664
	8.402409	45.46996
	8.403632	45.47002
	8.405947	45.47011
	8.407215	45.4703
	8.407824	45.47036
	8.411733	45.47139
	8.411215	45.47236
	8.411092	45.47285
	8.411208	45.4734
	8.411213	45.47363
	8.41289	45.47431
	8.414076	45.4751
	8.413809	45.47729
	8.413568	45.47744
	8.412876	45.47778
	8.412031	45.47838
	8.411955	45.4787
	8.411723	45.47932
	8.41173	45.47979
	8.411876	45.47997
	8.411373	45.48043
	8.409559	45.48152
	8.407225	45.48282
	8.406886	45.48306
	8.406528	45.48342
	8.40606	45.48412
	8.405991	45.48433
	8.405368	45.48519
	8.404315	45.48685
	8.403023	45.48848
	8.401455	45.49068
	8.400746	45.49152
	8.401822	45.49317
	8.402823	45.49467
	8.40319	45.49529
	8.403397	45.49573
	8.403534	45.49634
	8.403525	45.49721
	8.403432	45.49788
	8.403628	45.499
	8.403217	45.50048
	8.402903	45.50221
	8.402791	45.50503
	8.402508	45.5066
	8.402531	45.50733
	8.402701	45.50929
	8.4028	45.51009
	8.402842	45.51083
	8.402975	45.5114
	8.403098	45.51219
	8.403166	45.51298
	8.403248	45.51337
	8.403293	45.51406
	8.403316	45.51481
	8.403316	45.51549
	8.403273	45.51604
	8.402973	45.51633
	8.40324	45.5173
	8.40309	45.51981
	8.403173	45.5213
	8.403185	45.52251
	8.403106	45.52407
	8.40314	45.52553
	8.403151	45.52688
	8.403068	45.52998
	8.402811	45.53105
	8.403216	45.53117
	8.401679	45.53442
	8.401051	45.53544
	8.400802	45.53573
	8.400701	45.53598
	8.4005	45.53629
	8.400373	45.53663
	8.398952	45.53852
	8.397837	45.54084
	8.400029	45.54095
	8.399845	45.54595
	8.399857	45.54896
	8.39955	45.54915
	8.399318	45.55391
	8.399309	45.56089
	8.398909	45.56081
	8.398502	45.56144
	8.397831	45.56265
	8.397089	45.56391
	8.395911	45.56578
	8.395062	45.56701
	8.393942	45.5688
	8.393191	45.57023
	8.392635	45.57137
	8.392129	45.57257
	8.391752	45.57375
	8.391472	45.57514
	8.391252	45.57639
	8.391173	45.57768
	8.391196	45.57818
	8.391448	45.57875
	8.392648	45.58075
	8.393236	45.58193
	8.393701	45.58322
	8.39351	45.587
	8.393567	45.58709
	8.394362	45.58758
	8.394306	45.58816
	8.394234	45.5882
	8.394136	45.58865
	8.393342	45.58932
	8.393201	45.59054
	8.393081	45.59233
	8.393122	45.59252
	8.393119	45.59287
	8.392948	45.59494
	8.392772	45.59747
	8.392689	45.5996
	8.39242	45.60389
	8.392219	45.60601
	8.392095	45.60787
	8.3918	45.61038
	8.391434	45.61391
	8.390795	45.61664
	8.390272	45.61823
	8.390043	45.61877
	8.388957	45.6201
	8.38747	45.62139
	8.385726	45.62308
	8.384462	45.62436
	8.371409	45.63579
	8.370022	45.6358
	8.367151	45.63571
	8.365857	45.63563
	8.364365	45.63591
	8.362978	45.63624
	8.361126	45.63678
	8.359455	45.63719
	8.357859	45.63748
	8.355967	45.6377
	8.354522	45.63782
	8.354275	45.63856
	8.353881	45.64051
	8.353541	45.64157
	8.353197	45.6423
	8.352995	45.64267
	8.351659	45.64345
	8.349551	45.64425
	8.347812	45.64496
	8.346982	45.6451
	8.34677	45.64535
	8.346516	45.64673
	8.347182	45.64702
	8.34785	45.64724
	8.349405	45.64791
	8.352279	45.64905
	8.352636	45.64907
	8.353614	45.64946
	8.354145	45.6499
	8.355131	45.65111
	8.354134	45.65186
	8.353427	45.65227
	8.352505	45.6526
	8.351612	45.65279
	8.350718	45.65294
	8.349743	45.65324
	8.349117	45.65361
	8.348207	45.65412
	8.347351	45.65457
	8.346806	45.6549
	8.346275	45.6553
	8.345525	45.65593
	8.345251	45.65631
	8.34507	45.65674
	8.345091	45.65729
	8.344939	45.65756
	8.344501	45.65809
	8.343411	45.65888
	8.34082	45.66099
	8.340573	45.66131
	8.341072	45.66181
	8.339473	45.66263
	8.338075	45.66342
	8.337304	45.6639
	8.337259	45.66408
	8.337411	45.66452
	8.33762	45.66498
	8.337741	45.66564
	8.33778	45.66599
	8.337643	45.66668
	8.336888	45.66759
	8.336411	45.66801
	8.336114	45.66824
	8.334282	45.66939
	8.33395	45.66967
	8.333529	45.67016
	8.333047	45.67092
	8.33271	45.67157
	8.332548	45.67192
	8.332527	45.67253
	8.332604	45.67327
	8.332811	45.67392
	8.33307	45.67445
	8.333068	45.67576
	8.332934	45.67683
	8.332828	45.67727
	8.332637	45.6777
	8.331995	45.67842
	8.331648	45.67871
	8.331228	45.67902
	8.330854	45.67923
	8.330062	45.67954
	8.329208	45.67971
	8.327916	45.67999
	8.326416	45.68027
	8.325424	45.68057
	8.324712	45.6808
	8.322918	45.68179
	8.321897	45.68266
	8.321592	45.68298
	8.320844	45.68386
	8.320639	45.68421
	8.320183	45.68465
	8.319699	45.68556
	8.319361	45.68631
	8.319229	45.68656
	8.319124	45.68689
	8.318956	45.68722
	8.318859	45.68752
	8.318864	45.68772
	8.318481	45.68921
	8.318229	45.68986
	8.317485	45.69099
	8.31715	45.69146
	8.316722	45.6919
	8.315629	45.69278
	8.313861	45.69393
	8.312417	45.69485
	8.31202	45.69509
	8.31157	45.69555
	8.310923	45.69637
	8.310571	45.69701
	8.310568	45.69721
	8.310626	45.6974
	8.310737	45.69805
	8.311207	45.69876
	8.311383	45.69909
	8.311802	45.69949
	8.312345	45.7002
	8.312516	45.70037
	8.313005	45.70064
	8.313203	45.70083
	8.313445	45.70098
	8.313723	45.70106
	8.313861	45.70118
	8.314105	45.70134
	8.314367	45.70154
	8.31446	45.70168
	8.314926	45.70227
	8.315141	45.70263
	8.315446	45.70257
	8.315739	45.70197
	8.316514	45.7007
	8.316943	45.70079
	8.317384	45.701
	8.318159	45.70152
	8.319335	45.7026
	8.320178	45.70383
	8.320846	45.70384
	8.321776	45.70395
	8.322695	45.70381
	8.323328	45.70355
	8.324012	45.70331
	8.324703	45.70302
	8.32542	45.70298
	8.326331	45.70288
	8.326697	45.7028
	8.329271	45.70138
	8.329899	45.70108
	8.330361	45.70135
	8.330959	45.70167
	8.331144	45.70174
	8.331397	45.70189
	8.33147	45.70206
	8.331523	45.70236
	8.331597	45.70251
	8.33171	45.70258
	8.331841	45.7027
	8.332085	45.70282
	8.332251	45.70288
	8.332466	45.70286
	8.332802	45.70287
	8.333289	45.70295
	8.333574	45.70306
	8.333723	45.7032
	8.333957	45.70337
	8.334342	45.70356
	8.334814	45.70384
	8.335239	45.70412
	8.33557	45.70432
	8.335757	45.70445
	8.335981	45.70463
	8.336198	45.70475
	8.336307	45.70479
	8.336406	45.70485
	8.336561	45.70498
	8.33682	45.70511
	8.337209	45.70521
	8.337378	45.70527
	8.337504	45.70533
	8.337815	45.70551
	8.338218	45.70564
	8.338404	45.70577
	8.338603	45.70603
	8.338724	45.70613
	8.339353	45.70597
	8.3395	45.7059
	8.339865	45.70566
	8.34029	45.70525
	8.340658	45.70482
	8.340868	45.70468
	8.341319	45.70455
	8.341842	45.70436
	8.34236	45.70403
	8.343049	45.70378
	8.343458	45.70365
	8.343604	45.70359
	8.343893	45.70341
	8.344287	45.70311
	8.344574	45.70301
	8.344727	45.70294
	8.344837	45.70286
	8.344968	45.70269
	8.34502	45.70256
	8.345146	45.70243
	8.34527	45.70238
	8.345483	45.70232
	8.346095	45.70196
	8.346243	45.70192
	8.346602	45.70193
	8.346767	45.7019
	8.346868	45.70186
	8.346988	45.70183
	8.34705	45.70193
	8.347143	45.70199
	8.347162	45.70206
	8.347274	45.70211
	8.34761	45.7025
	8.348303	45.70302
	8.349764	45.70422
	8.34999	45.70428
	8.350217	45.70432
	8.350451	45.70441
	8.350897	45.70447
	8.351076	45.70451
	8.35116	45.70457
	8.351422	45.70467
	8.351677	45.70473
	8.351875	45.70475
	8.352045	45.70482
	8.352234	45.70484
	8.352537	45.70495
	8.352821	45.70513
	8.353174	45.70526
	8.353418	45.70539
	8.353519	45.7054
	8.353914	45.70555
	8.353986	45.7056
	8.354424	45.7058
	8.354502	45.70586
	8.355018	45.70606
	8.355716	45.70619
	8.357417	45.70654
	8.358462	45.70669
	8.359977	45.70704
	8.360113	45.70703
	8.360357	45.70699
	8.360586	45.70701
	8.360771	45.70707
	8.360977	45.70722
	8.361113	45.70727
	8.361593	45.70725
	8.362017	45.70719
	8.362548	45.70702
	8.362886	45.70697
	8.363	45.70699
	8.363272	45.70707
	8.363535	45.70717
	8.364043	45.70731
	8.364507	45.70741
	8.364701	45.70742
	8.366148	45.70735
	8.3669	45.70736
	8.367546	45.70728
	8.367906	45.70714
	8.368223	45.707
	8.368592	45.70669
	8.369206	45.70625
	8.369578	45.70588
	8.369923	45.70545
	8.370155	45.70498
	8.370447	45.70421
	8.370526	45.7039
	8.370554	45.70353
	8.370608	45.70319
	8.370614	45.70284
	8.370748	45.70266
	8.370862	45.70258
	8.371167	45.70242
	8.371343	45.70222
	8.371624	45.70204
	8.371672	45.70162
	8.371846	45.70146
	8.372241	45.70129
	8.372401	45.70107
	8.372872	45.70067
	8.373082	45.70045
	8.373193	45.70006
	8.373594	45.69952
	8.373638	45.69943
	8.373798	45.69921
	8.373964	45.69906
	8.374118	45.69851
	8.374427	45.69857
	8.374686	45.69852
	8.375219	45.69868
	8.375531	45.69873
	8.375925	45.69885
	8.376283	45.69879
	8.376937	45.69848
	8.377417	45.69822
	8.377731	45.69813
	8.378228	45.69794
	8.379661	45.69752
	8.379884	45.69753
	8.380282	45.69766
	8.380505	45.6977
	8.380733	45.69764
	8.381047	45.69754
	8.381308	45.69733
	8.381479	45.69713
	8.382204	45.69682
	8.382803	45.69659
	8.383309	45.6965
	8.383883	45.69638
	8.384368	45.69638
	8.385076	45.69641
	8.385714	45.69654
	8.386165	45.69681
	8.386591	45.69699
	8.387465	45.69745
	8.387927	45.69762
	8.388388	45.69794
	8.388559	45.6981
	8.388719	45.69842
	8.388784	45.69905
	8.388476	45.69954
	8.38841	45.70016
	8.388541	45.70084
	8.388912	45.70144
	8.389275	45.70182
	8.389798	45.70212
	8.391952	45.7031
	8.391997	45.70348
	8.391544	45.7037
	8.388518	45.70534
	8.387536	45.70599
	8.386548	45.70657
	8.385068	45.70763
	8.384108	45.70826
	8.383192	45.7088
	8.382703	45.70898
	8.381647	45.70924
	8.380878	45.70949
	8.380708	45.70996
	8.380849	45.71018
	8.38103	45.7104
	8.381333	45.71068
	8.381738	45.71101
	8.381796	45.71129
	8.381793	45.71155
	8.381872	45.71179
	8.382074	45.71198
	8.382316	45.71229
	8.382416	45.71245
	8.382434	45.71269
	8.382147	45.71281
	8.382133	45.7131
	8.381829	45.71417
	8.381748	45.71438
	8.381812	45.71444
	8.381651	45.71479
	8.382065	45.71493
	8.382264	45.71509
	8.382598	45.71531
	8.383033	45.71551
	8.383739	45.71578
	8.38436	45.716
	8.384846	45.71612
	8.385046	45.71619
	8.385395	45.71639
	8.385871	45.7167
	8.386452	45.71734
	8.386713	45.71907
	8.386935	45.72041
	8.385867	45.7202
	8.384894	45.72019
	8.384122	45.72033
	8.383666	45.7205
	8.383297	45.72068
	8.382948	45.72089
	8.382916	45.72183
	8.382892	45.72206
	8.382652	45.72222
	8.382196	45.72236
	8.382057	45.72261
	8.381953	45.72326
	8.381637	45.72412
	8.381421	45.72462
	8.380699	45.72561
	8.380207	45.72607
	8.378876	45.72719
	8.37822	45.72776
	8.377781	45.72824
	8.377425	45.72882
	8.377207	45.72947
	8.378696	45.7304
	8.379193	45.73068
	8.379809	45.73154
	8.380428	45.73274
	8.381103	45.73373
	8.380775	45.73402
	8.380036	45.73442
	8.379337	45.73501
	8.378832	45.73548
	8.378758	45.73562
	8.378773	45.73595
	8.378592	45.73645
	8.378568	45.73651
	8.378212	45.7371
	8.378106	45.73741
	8.377961	45.73858
	8.377561	45.73853
	8.377225	45.7383
	8.376955	45.7383
	8.376119	45.73805
	8.375798	45.73771
	8.375409	45.73742
	8.375018	45.73733
	8.374411	45.73722
	8.373152	45.73729
	8.372487	45.73754
	8.372065	45.7378
	8.371046	45.73819
	8.370086	45.73818
	8.369179	45.73825
	8.369151	45.73832
	8.368959	45.73855
	8.368779	45.73893
	8.368636	45.73966
	8.368982	45.74014
	8.369752	45.7414
	8.371546	45.74309
	8.372107	45.74368
	8.372305	45.74409
	8.372249	45.74425
	8.371706	45.74445
	8.370376	45.74486
	8.368584	45.74544
	8.366833	45.74598
	8.366803	45.74627
	8.366477	45.74758
	8.366037	45.74816
	8.365243	45.74904
	8.364147	45.75029
	8.362986	45.75123
	8.361816	45.75202
	8.360499	45.75256
	8.359158	45.75304
	8.357693	45.75353
	8.35694	45.75396
	8.354458	45.75647
	8.353415	45.75769
	8.353025	45.75827
	8.352755	45.75878
	8.352882	45.75915
	8.353392	45.75966
	8.353557	45.75995
	8.353368	45.7606
	8.353333	45.76099
	8.353474	45.76236
	8.35364	45.76289
	8.353796	45.76348
	8.353947	45.76426
	8.35409	45.76461
	8.354518	45.76537
	8.35549	45.76644
	8.355972	45.76685
	8.357167	45.76756
	8.357044	45.76769
	8.355837	45.76839
	8.354989	45.76907
	8.354321	45.76984
	8.352596	45.77137
	8.351933	45.77167
	8.351061	45.77191
	8.350747	45.77205
	8.350503	45.77212
	8.349875	45.77237
END
END
