Italy_Piemont_Biella
1
	7.895786	45.59003
	7.896335	45.59012
	7.897139	45.59035
	7.897735	45.59068
	7.898605	45.59144
	7.899051	45.59153
	7.900143	45.59143
	7.900766	45.59172
	7.900731	45.59217
	7.900556	45.59262
	7.900141	45.59349
	7.899375	45.59465
	7.898764	45.59576
	7.897932	45.59698
	7.897337	45.59791
	7.896793	45.59881
	7.896249	45.59977
	7.895885	45.60067
	7.895828	45.60162
	7.8961	45.60277
	7.896315	45.6036
	7.896573	45.60482
	7.896891	45.60562
	7.897385	45.60632
	7.897274	45.60665
	7.89654	45.60714
	7.895589	45.60792
	7.894923	45.60854
	7.896323	45.60974
	7.896795	45.61051
	7.896831	45.61102
	7.896577	45.61179
	7.897463	45.61253
	7.898119	45.61294
	7.898877	45.61357
	7.899463	45.61443
	7.899947	45.61521
	7.900748	45.61627
	7.901431	45.61674
	7.902456	45.61749
	7.903037	45.61856
	7.903726	45.62007
	7.904418	45.62079
	7.905269	45.62121
	7.90599	45.62173
	7.906547	45.62277
	7.906748	45.62363
	7.907101	45.62396
	7.90853	45.62436
	7.909698	45.62498
	7.910774	45.62575
	7.911567	45.62653
	7.912503	45.62719
	7.912908	45.62815
	7.912893	45.62961
	7.912949	45.63068
	7.913553	45.63128
	7.914297	45.63198
	7.915039	45.63274
	7.915905	45.63309
	7.917775	45.63324
	7.91958	45.63347
	7.921212	45.63397
	7.923033	45.6347
	7.925175	45.63542
	7.927539	45.63589
	7.929715	45.63616
	7.931833	45.63613
	7.933405	45.63576
	7.934258	45.63547
	7.934948	45.63559
	7.936108	45.63569
	7.937052	45.63627
	7.937638	45.63718
	7.938016	45.63822
	7.938371	45.63912
	7.938349	45.6403
	7.938584	45.64147
	7.939192	45.64257
	7.939504	45.6437
	7.939028	45.64446
	7.938175	45.64543
	7.936612	45.646
	7.935146	45.6468
	7.934216	45.6478
	7.933125	45.64852
	7.931351	45.64864
	7.929625	45.64899
	7.928049	45.64953
	7.927195	45.65018
	7.927166	45.65144
	7.927244	45.65338
	7.9268	45.65445
	7.92616	45.65504
	7.925238	45.65557
	7.923857	45.65668
	7.922585	45.65807
	7.921649	45.65936
	7.920855	45.66061
	7.920997	45.66189
	7.921525	45.66315
	7.922002	45.66434
	7.922136	45.66542
	7.921616	45.66642
	7.920797	45.66697
	7.92003	45.66741
	7.917904	45.66851
	7.916583	45.66909
	7.915268	45.66939
	7.913838	45.66967
	7.912624	45.67001
	7.91186	45.67068
	7.911916	45.67176
	7.912012	45.67212
	7.912135	45.67306
	7.912132	45.67388
	7.911855	45.67495
	7.911761	45.67579
	7.911563	45.67673
	7.911463	45.67793
	7.911352	45.67899
	7.911145	45.67977
	7.910349	45.68039
	7.909156	45.68102
	7.906262	45.68193
	7.905208	45.68196
	7.905201	45.683
	7.905155	45.68339
	7.904795	45.68473
	7.904763	45.68567
	7.904805	45.6862
	7.905425	45.68794
	7.905605	45.68862
	7.906151	45.68959
	7.906694	45.69074
	7.906503	45.69128
	7.90646	45.69155
	7.906815	45.69243
	7.907265	45.69305
	7.907792	45.6937
	7.908037	45.69431
	7.908324	45.69539
	7.908607	45.69604
	7.909014	45.6969
	7.909411	45.69764
	7.910067	45.69824
	7.910533	45.69873
	7.911031	45.69954
	7.911477	45.7004
	7.911803	45.70079
	7.912785	45.70114
	7.914163	45.70098
	7.915663	45.70047
	7.91723	45.70046
	7.918431	45.70082
	7.918963	45.7012
	7.919725	45.70167
	7.920298	45.7019
	7.923145	45.70484
	7.923645	45.70554
	7.923778	45.70596
	7.923973	45.7065
	7.924213	45.70742
	7.9248	45.70827
	7.925731	45.70931
	7.926548	45.71026
	7.928556	45.71207
	7.92942	45.71325
	7.92993	45.71412
	7.929997	45.71534
	7.929891	45.71619
	7.929417	45.71679
	7.928868	45.71726
	7.929327	45.71748
	7.930486	45.71799
	7.931436	45.7187
	7.932297	45.71941
	7.932832	45.72028
	7.93349	45.72149
	7.933997	45.72257
	7.93473	45.72322
	7.935749	45.72369
	7.936624	45.72434
	7.937151	45.72424
	7.937502	45.72452
	7.937753	45.72456
	7.93888	45.72441
	7.940195	45.72418
	7.942027	45.72383
	7.943079	45.72347
	7.944161	45.72293
	7.94864	45.72044
	7.949353	45.71986
	7.950264	45.71929
	7.95059	45.71906
	7.951016	45.71892
	7.951652	45.71889
	7.952238	45.7188
	7.954057	45.71876
	7.954875	45.71862
	7.955396	45.71856
	7.956501	45.7186
	7.957039	45.7187
	7.957485	45.71884
	7.959361	45.71932
	7.959849	45.71942
	7.961342	45.71984
	7.963145	45.7203
	7.964479	45.7202
	7.964958	45.72021
	7.967435	45.72021
	7.967685	45.72028
	7.968215	45.72058
	7.968648	45.7207
	7.969111	45.7208
	7.969359	45.72083
	7.970268	45.72088
	7.971353	45.72112
	7.971679	45.72114
	7.972336	45.72092
	7.973009	45.72067
	7.973863	45.72056
	7.975408	45.72049
	7.977561	45.7205
	7.977667	45.72062
	7.977963	45.7207
	7.9798	45.72071
	7.980272	45.72085
	7.980927	45.72076
	7.981376	45.72061
	7.981821	45.72057
	7.982172	45.72062
	7.982535	45.72078
	7.982874	45.72071
	7.983336	45.72082
	7.983635	45.72075
	7.984127	45.72087
	7.984843	45.72126
	7.985362	45.72165
	7.985623	45.72198
	7.985822	45.72198
	7.986235	45.72168
	7.987111	45.72125
	7.989695	45.72023
	7.990239	45.72006
	7.990736	45.71995
	7.991505	45.71994
	7.991876	45.71992
	7.992363	45.71977
	7.992709	45.71976
	7.99322	45.71958
	7.99358	45.71952
	7.994071	45.71955
	7.995103	45.71926
	7.995867	45.71912
	7.996545	45.71904
	7.996747	45.71903
	7.997075	45.71902
	7.998181	45.71902
	7.998652	45.71911
	7.999259	45.71918
	7.999758	45.71927
	8.000463	45.71948
	8.001226	45.71975
	8.003852	45.72181
	8.004002	45.722
	8.005503	45.72321
	8.00598	45.72354
	8.006662	45.72405
	8.00706	45.72452
	8.007242	45.72488
	8.007313	45.72522
	8.007327	45.72572
	8.00744	45.72589
	8.00805	45.72609
	8.008609	45.72631
	8.009165	45.7266
	8.0097	45.7269
	8.009955	45.72701
	8.010624	45.72749
	8.011055	45.72784
	8.011428	45.72818
	8.012014	45.72893
	8.012139	45.72989
	8.01218	45.73073
	8.012361	45.73107
	8.012758	45.73164
	8.012872	45.73202
	8.013022	45.73221
	8.013545	45.73305
	8.013647	45.73331
	8.014068	45.7334
	8.014587	45.73395
	8.015048	45.73413
	8.015881	45.73419
	8.016557	45.73428
	8.016923	45.73437
	8.017352	45.73464
	8.017976	45.73485
	8.01887	45.73506
	8.019713	45.73572
	8.019962	45.73641
	8.020119	45.73657
	8.020353	45.73676
	8.020686	45.73697
	8.020877	45.73731
	8.021049	45.73758
	8.021208	45.73767
	8.021375	45.73768
	8.022349	45.73792
	8.022849	45.7375
	8.023669	45.73708
	8.025094	45.73693
	8.026049	45.73706
	8.027501	45.73701
	8.02925	45.73654
	8.030121	45.73659
	8.031342	45.73642
	8.032396	45.73588
	8.035825	45.7356
	8.037734	45.73598
	8.039061	45.73644
	8.041348	45.73674
	8.041638	45.73676
	8.042568	45.73669
	8.0433	45.73652
	8.043404	45.73653
	8.043597	45.73659
	8.044127	45.7366
	8.044648	45.73659
	8.04484	45.73668
	8.044928	45.73686
	8.045027	45.73691
	8.045155	45.7368
	8.045906	45.73699
	8.04615	45.73719
	8.047062	45.73717
	8.047672	45.73734
	8.048701	45.73754
	8.048844	45.73783
	8.049342	45.73779
	8.049647	45.73768
	8.050274	45.73793
	8.050927	45.73781
	8.051691	45.73783
	8.052969	45.73807
	8.053403	45.73819
	8.053782	45.73833
	8.054026	45.73845
	8.054364	45.73849
	8.054433	45.73856
	8.054457	45.73869
	8.05473	45.73878
	8.054998	45.73901
	8.055285	45.73911
	8.055729	45.73932
	8.05675	45.7397
	8.057249	45.73975
	8.057736	45.73991
	8.058409	45.74034
	8.058633	45.74036
	8.059192	45.74062
	8.06033	45.73968
	8.061069	45.73898
	8.061727	45.73839
	8.06219	45.73787
	8.062578	45.73741
	8.062971	45.73683
	8.063625	45.73547
	8.063717	45.73534
	8.063758	45.7351
	8.063695	45.73451
	8.063707	45.73439
	8.063909	45.73385
	8.063916	45.73361
	8.063899	45.73324
	8.063963	45.73244
	8.064036	45.73224
	8.064248	45.73176
	8.064253	45.73165
	8.064079	45.7315
	8.063893	45.73123
	8.063947	45.73102
	8.06406	45.7308
	8.064252	45.73055
	8.064257	45.73044
	8.064151	45.73019
	8.06413	45.73003
	8.064149	45.7299
	8.064132	45.72967
	8.064058	45.72953
	8.063995	45.72934
	8.063901	45.72918
	8.063879	45.72865
	8.063834	45.72818
	8.063836	45.72767
	8.063819	45.72745
	8.063813	45.72683
	8.063858	45.72653
	8.063851	45.72635
	8.063936	45.72568
	8.064048	45.72514
	8.064357	45.72485
	8.064776	45.72413
	8.064868	45.72382
	8.06491	45.7235
	8.065366	45.72341
	8.065681	45.72342
	8.06593	45.72345
	8.066314	45.72343
	8.066605	45.72338
	8.067181	45.7232
	8.068022	45.72288
	8.069008	45.72271
	8.069279	45.72262
	8.06944	45.7225
	8.06978	45.72213
	8.070022	45.72197
	8.070286	45.72186
	8.070614	45.72178
	8.070834	45.72166
	8.070996	45.72154
	8.071146	45.72136
	8.071801	45.72083
	8.072439	45.72029
	8.072633	45.72015
	8.072713	45.72014
	8.073044	45.72021
	8.073244	45.72021
	8.073481	45.72014
	8.07357	45.72007
	8.073697	45.71994
	8.073768	45.71961
	8.073794	45.71937
	8.073849	45.71926
	8.073964	45.71916
	8.074253	45.71909
	8.074551	45.71908
	8.075118	45.71899
	8.075544	45.71895
	8.076286	45.71895
	8.076521	45.71891
	8.076928	45.71875
	8.076951	45.7189
	8.077027	45.719
	8.077158	45.7193
	8.077348	45.71941
	8.077605	45.7196
	8.07772	45.71979
	8.078108	45.72046
	8.078372	45.72095
	8.07854	45.72153
	8.078561	45.7221
	8.078088	45.72297
	8.077955	45.72351
	8.07793	45.72368
	8.077981	45.72389
	8.078059	45.72411
	8.078059	45.72419
	8.078005	45.72442
	8.077977	45.72493
	8.077933	45.72505
	8.07787	45.72514
	8.077914	45.72545
	8.077976	45.72613
	8.078026	45.72643
	8.078251	45.72696
	8.078323	45.72725
	8.07847	45.72758
	8.078389	45.72778
	8.078334	45.72799
	8.078316	45.7282
	8.078345	45.72842
	8.078512	45.72893
	8.078478	45.72908
	8.078416	45.72924
	8.078423	45.7295
	8.078629	45.72986
	8.079259	45.7308
	8.079189	45.73117
	8.079168	45.73138
	8.079111	45.73149
	8.079086	45.73159
	8.079533	45.73199
	8.080065	45.73292
	8.080436	45.73359
	8.080665	45.73436
	8.081032	45.73508
	8.082318	45.73652
	8.082788	45.73722
	8.083586	45.73856
	8.08396	45.73851
	8.084443	45.73842
	8.085318	45.73833
	8.086246	45.73825
	8.087405	45.73842
	8.087743	45.73859
	8.088282	45.73873
	8.088906	45.73877
	8.08937	45.73876
	8.089859	45.73866
	8.089994	45.73857
	8.090337	45.73848
	8.090686	45.73843
	8.091362	45.73829
	8.091625	45.73818
	8.091891	45.73809
	8.092181	45.738
	8.092343	45.73797
	8.092542	45.73796
	8.09266	45.73798
	8.092906	45.73809
	8.093152	45.73817
	8.093521	45.73821
	8.093659	45.7382
	8.094075	45.73808
	8.094164	45.73802
	8.094307	45.73781
	8.09441	45.73776
	8.094508	45.73773
	8.094597	45.73773
	8.09494	45.73783
	8.09581	45.73771
	8.095862	45.73788
	8.095974	45.73799
	8.096083	45.73818
	8.096125	45.73829
	8.096841	45.73866
	8.097115	45.73897
	8.097369	45.73922
	8.097859	45.73982
	8.098942	45.74095
	8.100544	45.74283
	8.101934	45.7443
	8.10258	45.74494
	8.103774	45.74596
	8.104098	45.74621
	8.104454	45.74645
	8.104855	45.74675
	8.1058	45.74738
	8.106624	45.74799
	8.10817	45.749
	8.109479	45.7497
	8.110005	45.75
	8.111153	45.75053
	8.112074	45.75106
	8.11479	45.75268
	8.115301	45.75296
	8.116557	45.75358
	8.116882	45.75376
	8.118499	45.75475
	8.119945	45.7557
	8.120162	45.75578
	8.12069	45.75603
	8.121171	45.75623
	8.122086	45.75652
	8.122608	45.75677
	8.122979	45.75698
	8.123652	45.75694
	8.124136	45.75695
	8.124354	45.75697
	8.124652	45.75693
	8.125011	45.75695
	8.125338	45.75701
	8.125712	45.75711
	8.12582	45.75715
	8.126382	45.75719
	8.12671	45.75723
	8.127783	45.75756
	8.128172	45.75762
	8.128548	45.75764
	8.128645	45.75755
	8.128799	45.75744
	8.129121	45.75726
	8.129527	45.757
	8.129657	45.75693
	8.130007	45.7568
	8.130274	45.75659
	8.13071	45.75617
	8.130979	45.75595
	8.131201	45.75574
	8.131522	45.7552
	8.131948	45.75494
	8.132452	45.75467
	8.132963	45.75447
	8.133575	45.7543
	8.134093	45.75411
	8.13455	45.7539
	8.13625	45.75307
	8.136991	45.75265
	8.137455	45.75243
	8.137887	45.75253
	8.138025	45.75262
	8.138129	45.75273
	8.138208	45.75284
	8.138246	45.75292
	8.138258	45.75348
	8.138432	45.75348
	8.139431	45.75338
	8.139586	45.75344
	8.140225	45.75362
	8.140331	45.75362
	8.140608	45.75358
	8.141202	45.75358
	8.141679	45.7535
	8.142183	45.75332
	8.14273	45.75324
	8.142955	45.75318
	8.143324	45.75306
	8.144328	45.75268
	8.144509	45.7528
	8.144756	45.75293
	8.145019	45.75311
	8.145329	45.75328
	8.145485	45.75332
	8.145641	45.75332
	8.145843	45.75336
	8.146123	45.75346
	8.146247	45.75354
	8.146357	45.75347
	8.146484	45.75335
	8.147021	45.75295
	8.147164	45.75282
	8.147322	45.75272
	8.147856	45.75253
	8.148013	45.75244
	8.148219	45.75224
	8.148346	45.75214
	8.148556	45.75201
	8.14875	45.752
	8.149154	45.75213
	8.149296	45.75214
	8.149556	45.75191
	8.149685	45.75182
	8.14984	45.75173
	8.150077	45.75162
	8.150271	45.75147
	8.150443	45.75139
	8.15065	45.75132
	8.150824	45.75129
	8.151084	45.75128
	8.15156	45.7513
	8.151713	45.75133
	8.151917	45.75139
	8.152135	45.75151
	8.15239	45.75156
	8.152652	45.75156
	8.152814	45.75152
	8.153309	45.75133
	8.15388	45.75079
	8.154081	45.75046
	8.154238	45.75031
	8.154319	45.75026
	8.154582	45.75015
	8.155086	45.75
	8.155653	45.74995
	8.155812	45.74995
	8.156126	45.75002
	8.156239	45.75006
	8.156426	45.75015
	8.156813	45.75037
	8.156897	45.75044
	8.157026	45.75052
	8.157119	45.75057
	8.157257	45.75061
	8.15753	45.75064
	8.157656	45.75064
	8.157838	45.7506
	8.158075	45.75053
	8.15849	45.75039
	8.158742	45.75045
	8.159052	45.75067
	8.159395	45.75081
	8.159762	45.75091
	8.160091	45.75095
	8.160235	45.75095
	8.160348	45.75094
	8.160847	45.75085
	8.16102	45.75079
	8.161652	45.75066
	8.162273	45.75056
	8.162582	45.75048
	8.163077	45.75034
	8.163557	45.75018
	8.163972	45.74993
	8.164123	45.74985
	8.164297	45.74978
	8.164481	45.74974
	8.164692	45.74975
	8.165211	45.74985
	8.165449	45.74992
	8.165573	45.75
	8.165841	45.75023
	8.166014	45.75041
	8.16605	45.75059
	8.165851	45.75072
	8.16582	45.75078
	8.165907	45.75103
	8.165968	45.75115
	8.166048	45.75126
	8.166142	45.75134
	8.16627	45.75141
	8.166817	45.75159
	8.166907	45.7516
	8.167001	45.7516
	8.167181	45.75156
	8.167305	45.75152
	8.167386	45.75148
	8.167592	45.75122
	8.16768	45.75115
	8.167835	45.75106
	8.167978	45.75103
	8.168104	45.75102
	8.168232	45.75104
	8.168442	45.7511
	8.168986	45.75129
	8.16923	45.7513
	8.169372	45.75124
	8.169559	45.75113
	8.169825	45.75088
	8.170156	45.7506
	8.170428	45.75044
	8.170584	45.75037
	8.170825	45.75036
	8.171103	45.75038
	8.171518	45.75043
	8.172198	45.75055
	8.172515	45.75062
	8.172794	45.75065
	8.173015	45.75063
	8.173203	45.75066
	8.173481	45.75073
	8.173732	45.75086
	8.174237	45.75134
	8.174614	45.75191
	8.175162	45.75207
	8.175504	45.7522
	8.175835	45.75217
	8.175974	45.75214
	8.176285	45.75211
	8.176936	45.752
	8.177132	45.75193
	8.177282	45.75185
	8.177517	45.75178
	8.177796	45.75175
	8.178147	45.75178
	8.17884	45.75189
	8.178969	45.75193
	8.179136	45.75204
	8.179463	45.75231
	8.179677	45.7524
	8.179877	45.75248
	8.180058	45.7525
	8.180253	45.75248
	8.180789	45.75226
	8.181003	45.75222
	8.181156	45.75221
	8.181214	45.75209
	8.181789	45.75017
	8.181963	45.74908
	8.182009	45.74777
	8.182042	45.74756
	8.182344	45.74619
	8.182416	45.74576
	8.182516	45.74451
	8.182761	45.74371
	8.182657	45.74283
	8.182655	45.74231
	8.182722	45.74194
	8.183235	45.73992
	8.18306	45.73991
	8.182907	45.73992
	8.182703	45.73996
	8.182589	45.73997
	8.182415	45.73998
	8.182268	45.73997
	8.18214	45.73994
	8.181364	45.73967
	8.181192	45.73962
	8.180832	45.73945
	8.180527	45.73934
	8.180383	45.73931
	8.179872	45.73926
	8.179679	45.73915
	8.180457	45.73735
	8.181516	45.73506
	8.182139	45.7334
	8.18247	45.73264
	8.182889	45.73175
	8.182888	45.73151
	8.183027	45.7311
	8.183104	45.73092
	8.18311	45.7308
	8.183675	45.73003
	8.183818	45.72967
	8.184034	45.72902
	8.184832	45.72899
	8.185493	45.72893
	8.186252	45.72881
	8.186832	45.7287
	8.187521	45.72859
	8.188416	45.72848
	8.188723	45.72849
	8.189158	45.72854
	8.189274	45.72853
	8.189475	45.72847
	8.190461	45.72841
	8.190961	45.72745
	8.191291	45.72662
	8.191591	45.72561
	8.191644	45.72525
	8.191899	45.72442
	8.19271	45.72284
	8.193056	45.72295
	8.19353	45.72306
	8.194609	45.72303
	8.195391	45.72295
	8.195688	45.72351
	8.19576	45.72368
	8.195882	45.72384
	8.195924	45.72393
	8.196149	45.72429
	8.196162	45.72441
	8.196303	45.72455
	8.19673	45.7249
	8.196873	45.72499
	8.197073	45.72508
	8.197316	45.72521
	8.197874	45.72542
	8.198219	45.72542
	8.198637	45.72539
	8.198795	45.72537
	8.198926	45.72532
	8.199155	45.7253
	8.199332	45.72526
	8.199496	45.72526
	8.19967	45.7253
	8.200053	45.72553
	8.200268	45.72564
	8.200541	45.72574
	8.20129	45.72503
	8.201828	45.72461
	8.20252	45.72411
	8.203407	45.72335
	8.204204	45.723
	8.20497	45.72277
	8.205908	45.72227
	8.207316	45.72148
	8.208212	45.72095
	8.208597	45.72063
	8.209187	45.72002
	8.20963	45.71945
	8.209803	45.71919
	8.209985	45.71827
	8.209998	45.71738
	8.210559	45.71661
	8.211071	45.71629
	8.211798	45.71579
	8.212608	45.71538
	8.213587	45.71497
	8.214313	45.71477
	8.213949	45.71402
	8.213859	45.7137
	8.213988	45.71349
	8.214972	45.71282
	8.215864	45.71253
	8.216924	45.71238
	8.217814	45.71233
	8.218111	45.71228
	8.218538	45.71198
	8.21871	45.71174
	8.218776	45.71143
	8.219018	45.71092
	8.219367	45.71034
	8.220351	45.70943
	8.221294	45.7086
	8.222159	45.70787
	8.222762	45.70724
	8.223505	45.70656
	8.223706	45.70663
	8.223907	45.70659
	8.224137	45.70664
	8.224482	45.70668
	8.224758	45.70673
	8.225044	45.70668
	8.225244	45.70667
	8.225505	45.70657
	8.225679	45.70644
	8.225767	45.70632
	8.225988	45.70593
	8.226207	45.70569
	8.226281	45.70556
	8.226441	45.70543
	8.226643	45.7057
	8.226918	45.70594
	8.227121	45.7063
	8.227202	45.7064
	8.227296	45.70646
	8.227705	45.7066
	8.228456	45.70679
	8.228867	45.70694
	8.229131	45.70709
	8.229294	45.70716
	8.229428	45.70719
	8.229573	45.7072
	8.229734	45.70719
	8.230016	45.70714
	8.230157	45.70718
	8.23066	45.70719
	8.23087	45.70697
	8.231255	45.70661
	8.232634	45.70475
	8.232826	45.70452
	8.233629	45.70384
	8.233764	45.70368
	8.233924	45.70334
	8.234048	45.70317
	8.235604	45.70147
	8.236111	45.70097
	8.23624	45.70087
	8.236309	45.70083
	8.236879	45.70136
	8.237166	45.70159
	8.237273	45.70164
	8.237552	45.70155
	8.237728	45.70147
	8.237887	45.7015
	8.238091	45.70157
	8.238459	45.70129
	8.238736	45.70147
	8.238905	45.70147
	8.239096	45.70154
	8.239302	45.70159
	8.239488	45.70156
	8.239615	45.7015
	8.239791	45.70133
	8.239976	45.70123
	8.240108	45.70118
	8.240633	45.70083
	8.240849	45.7007
	8.241467	45.70039
	8.241635	45.70045
	8.24192	45.7005
	8.242131	45.69954
	8.24222	45.69884
	8.242347	45.69852
	8.242508	45.69843
	8.243158	45.69787
	8.243448	45.69766
	8.243522	45.69765
	8.243637	45.69759
	8.244486	45.69706
	8.24477	45.69692
	8.244905	45.69684
	8.245063	45.6968
	8.245265	45.6968
	8.245614	45.69668
	8.245911	45.69656
	8.24644	45.69628
	8.246934	45.69597
	8.247503	45.69559
	8.247591	45.69548
	8.247823	45.69535
	8.248028	45.6951
	8.248072	45.695
	8.247947	45.69495
	8.247597	45.69494
	8.24768	45.69446
	8.247789	45.69401
	8.247898	45.69402
	8.248487	45.69319
	8.249481	45.69272
	8.250254	45.69205
	8.251781	45.69208
	8.2531	45.69205
	8.253761	45.69195
	8.254604	45.6912
	8.255152	45.69064
	8.255627	45.69055
	8.255774	45.6905
	8.255917	45.69043
	8.256176	45.69018
	8.25659	45.68995
	8.256851	45.68975
	8.257097	45.68954
	8.257226	45.68939
	8.25727	45.68931
	8.257505	45.68917
	8.257868	45.68899
	8.257949	45.68879
	8.258007	45.68868
	8.258066	45.68861
	8.258337	45.68844
	8.258814	45.68817
	8.259044	45.68801
	8.25993	45.68823
	8.260751	45.68767
	8.260799	45.68749
	8.260998	45.68723
	8.261372	45.68665
	8.261567	45.68646
	8.261699	45.68626
	8.262019	45.68592
	8.262654	45.68528
	8.263015	45.68496
	8.26384	45.68466
	8.264369	45.68452
	8.265048	45.68426
	8.265326	45.68411
	8.265672	45.6839
	8.265985	45.68367
	8.266192	45.68359
	8.267046	45.6831
	8.267795	45.68274
	8.268857	45.68236
	8.269191	45.68221
	8.269343	45.68218
	8.269928	45.68191
	8.270142	45.68172
	8.270491	45.68116
	8.271266	45.68065
	8.272756	45.67998
	8.273615	45.67962
	8.274532	45.67915
	8.275306	45.67878
	8.275736	45.67854
	8.274918	45.67793
	8.274784	45.67724
	8.275367	45.67626
	8.275822	45.67585
	8.276448	45.67524
	8.276883	45.67458
	8.277586	45.67305
	8.277993	45.67241
	8.278509	45.67216
	8.279532	45.67232
	8.279819	45.67211
	8.279358	45.67029
	8.279282	45.66959
	8.279541	45.66935
	8.280306	45.6697
	8.281383	45.67008
	8.284147	45.66988
	8.285326	45.66965
	8.285359	45.66954
	8.285472	45.66949
	8.285801	45.6694
	8.28624	45.66922
	8.286601	45.66916
	8.287053	45.6692
	8.2877	45.66911
	8.287775	45.66891
	8.287926	45.66881
	8.28827	45.66875
	8.289161	45.66883
	8.289324	45.6688
	8.289442	45.66858
	8.289559	45.66841
	8.289928	45.66799
	8.290271	45.66769
	8.290327	45.66751
	8.290339	45.6673
	8.290605	45.66717
	8.291637	45.66683
	8.2919	45.66671
	8.292028	45.66669
	8.292116	45.66659
	8.29224	45.66649
	8.292983	45.66594
	8.293377	45.66531
	8.293505	45.66527
	8.293575	45.66521
	8.293584	45.66514
	8.293526	45.66508
	8.293405	45.66471
	8.293206	45.66374
	8.293112	45.66339
	8.29317	45.66327
	8.29326	45.66323
	8.293583	45.66297
	8.294059	45.66264
	8.294619	45.66234
	8.295256	45.66206
	8.296324	45.66176
	8.296857	45.66163
	8.297021	45.66152
	8.29709	45.66122
	8.297267	45.66088
	8.297509	45.66058
	8.297626	45.66024
	8.297624	45.66002
	8.297528	45.65977
	8.297503	45.65963
	8.297544	45.65942
	8.297639	45.65928
	8.297814	45.65909
	8.298209	45.6584
	8.298188	45.65821
	8.297976	45.658
	8.297628	45.65777
	8.297449	45.65756
	8.297279	45.65733
	8.297169	45.65709
	8.297265	45.65673
	8.297381	45.65653
	8.297585	45.65645
	8.297921	45.65594
	8.298153	45.65553
	8.298373	45.6553
	8.299936	45.65459
	8.300557	45.65467
	8.301439	45.65483
	8.302175	45.65504
	8.302932	45.65522
	8.303364	45.65517
	8.303705	45.65505
	8.303979	45.65506
	8.30516	45.65605
	8.30588	45.65593
	8.306343	45.65574
	8.306477	45.65564
	8.306764	45.65563
	8.307399	45.6555
	8.307737	45.65545
	8.308436	45.65558
	8.308986	45.65557
	8.309295	45.65555
	8.309551	45.65549
	8.309706	45.65539
	8.30976	45.65511
	8.310049	45.65496
	8.310452	45.65461
	8.310617	45.65443
	8.310896	45.65429
	8.311297	45.65403
	8.311294	45.65391
	8.311451	45.65361
	8.311547	45.65339
	8.311611	45.65319
	8.31225	45.65249
	8.312299	45.65219
	8.31279	45.65134
	8.312826	45.65122
	8.313198	45.65039
	8.313816	45.6497
	8.314334	45.64944
	8.31479	45.64896
	8.315164	45.64843
	8.315349	45.64746
	8.315517	45.64709
	8.31609	45.64611
	8.316568	45.64578
	8.317069	45.64566
	8.317677	45.646
	8.318343	45.64663
	8.318873	45.64726
	8.320142	45.64929
	8.32225	45.6491
	8.323989	45.64887
	8.325278	45.64818
	8.325908	45.64787
	8.327022	45.64747
	8.327624	45.64714
	8.327908	45.64694
	8.327764	45.64598
	8.327309	45.64543
	8.327	45.64526
	8.32673	45.64528
	8.326166	45.6453
	8.324547	45.64503
	8.323101	45.6446
	8.322139	45.64415
	8.321112	45.6438
	8.31985	45.64284
	8.318753	45.64182
	8.318019	45.64129
	8.316714	45.641
	8.316552	45.64089
	8.316377	45.6408
	8.315859	45.64065
	8.315523	45.64046
	8.315243	45.64055
	8.314999	45.64058
	8.31453	45.64056
	8.314092	45.64057
	8.313904	45.6406
	8.313684	45.64074
	8.313514	45.64075
	8.31334	45.6408
	8.313194	45.64088
	8.313038	45.641
	8.312697	45.64096
	8.312314	45.64112
	8.311942	45.64108
	8.311691	45.64109
	8.311509	45.64114
	8.311355	45.64123
	8.311308	45.64131
	8.311349	45.64137
	8.31142	45.6414
	8.311856	45.64146
	8.311968	45.64155
	8.311907	45.64163
	8.311737	45.64169
	8.311361	45.64173
	8.310871	45.64182
	8.310493	45.64191
	8.309623	45.64205
	8.30943	45.64216
	8.309347	45.64219
	8.30926	45.64219
	8.309108	45.64214
	8.308929	45.64204
	8.308793	45.64202
	8.308336	45.64212
	8.307774	45.64208
	8.306903	45.64222
	8.3067	45.64222
	8.306512	45.64219
	8.306366	45.64209
	8.306086	45.64194
	8.305833	45.64191
	8.305487	45.64192
	8.305219	45.64175
	8.305065	45.6417
	8.30474	45.64149
	8.304492	45.64132
	8.304319	45.64115
	8.30414	45.64101
	8.303955	45.64089
	8.303648	45.64072
	8.303318	45.6406
	8.303026	45.64034
	8.302763	45.6405
	8.302427	45.64064
	8.302009	45.64077
	8.301125	45.64095
	8.300841	45.64099
	8.300604	45.64099
	8.299871	45.64095
	8.299675	45.64065
	8.298822	45.64059
	8.298339	45.64083
	8.298148	45.64091
	8.297986	45.64095
	8.297728	45.64099
	8.297526	45.6411
	8.297113	45.64126
	8.296982	45.64129
	8.296846	45.64129
	8.296669	45.64128
	8.296231	45.64123
	8.29614	45.64118
	8.295978	45.64113
	8.295849	45.6409
	8.295296	45.64045
	8.294964	45.64023
	8.29461	45.64011
	8.294168	45.63972
	8.293765	45.63947
	8.293233	45.63922
	8.293019	45.63907
	8.292908	45.63902
	8.292924	45.63858
	8.292722	45.63851
	8.292462	45.63821
	8.292341	45.63812
	8.292251	45.63803
	8.292151	45.63784
	8.29206	45.63788
	8.291931	45.63791
	8.291906	45.63785
	8.291883	45.63726
	8.291808	45.63716
	8.291555	45.63692
	8.291134	45.63672
	8.29094	45.63657
	8.290718	45.63628
	8.290579	45.63607
	8.290336	45.636
	8.290247	45.63593
	8.290117	45.63576
	8.290068	45.63486
	8.290213	45.63462
	8.289566	45.63435
	8.28931	45.63422
	8.289062	45.63403
	8.288518	45.63392
	8.288134	45.63375
	8.287867	45.63366
	8.287906	45.63325
	8.287411	45.63319
	8.286157	45.63337
	8.284762	45.63341
	8.284287	45.63367
	8.28354	45.63412
	8.282979	45.63434
	8.282814	45.63449
	8.282041	45.63462
	8.281857	45.63529
	8.281788	45.63535
	8.28107	45.63542
	8.280899	45.63502
	8.280804	45.63453
	8.280231	45.63439
	8.279974	45.63434
	8.279719	45.63443
	8.279587	45.63446
	8.279209	45.6346
	8.278248	45.6344
	8.277918	45.63477
	8.277845	45.63495
	8.277884	45.63507
	8.277811	45.63521
	8.277458	45.63507
	8.277575	45.63461
	8.27705	45.63441
	8.276825	45.63449
	8.276433	45.63492
	8.276195	45.63507
	8.276022	45.63512
	8.275687	45.63525
	8.274566	45.63541
	8.27447	45.63578
	8.271731	45.63508
	8.271377	45.63444
	8.271259	45.63407
	8.271196	45.63335
	8.271226	45.63303
	8.271356	45.63248
	8.271454	45.63223
	8.271259	45.63219
	8.271099	45.63237
	8.270888	45.63264
	8.270625	45.63288
	8.270516	45.63292
	8.27039	45.63295
	8.270124	45.63297
	8.269239	45.63299
	8.268954	45.63295
	8.26847	45.63279
	8.268259	45.63279
	8.268135	45.63284
	8.26799	45.63293
	8.267914	45.63302
	8.267885	45.63307
	8.267864	45.63316
	8.267789	45.63325
	8.267295	45.6329
	8.266568	45.63256
	8.265998	45.63262
	8.264726	45.63282
	8.264483	45.63293
	8.263539	45.63415
	8.263165	45.63453
	8.263001	45.63455
	8.262843	45.63449
	8.262674	45.63428
	8.262516	45.63419
	8.262193	45.63407
	8.261963	45.63394
	8.261746	45.63379
	8.261613	45.63363
	8.261506	45.63346
	8.261328	45.63328
	8.261363	45.63321
	8.261392	45.63309
	8.2614	45.63303
	8.261384	45.63287
	8.261415	45.63265
	8.26144	45.63255
	8.26151	45.63239
	8.261639	45.63216
	8.262009	45.63168
	8.262637	45.63056
	8.262614	45.63045
	8.262692	45.63034
	8.26305	45.62969
	8.262959	45.62935
	8.262904	45.62902
	8.26207	45.62798
	8.261174	45.62656
	8.261081	45.62606
	8.26093	45.62472
	8.261267	45.62444
	8.261401	45.62324
	8.261327	45.62251
	8.261174	45.62195
	8.26109	45.62171
	8.260994	45.62155
	8.261095	45.62153
	8.261247	45.62147
	8.261248	45.62141
	8.261177	45.62129
	8.26112	45.62115
	8.261146	45.62089
	8.261272	45.62072
	8.26135	45.62057
	8.261379	45.62043
	8.261357	45.62028
	8.261372	45.62022
	8.261495	45.62002
	8.261659	45.61988
	8.261881	45.61975
	8.262019	45.61961
	8.262123	45.61954
	8.26224	45.61959
	8.262319	45.61966
	8.262389	45.61977
	8.262457	45.61984
	8.262598	45.61989
	8.262816	45.6199
	8.263278	45.61989
	8.265381	45.62074
	8.269298	45.62235
	8.269617	45.62241
	8.269832	45.62254
	8.269986	45.62288
	8.270016	45.62311
	8.270235	45.62321
	8.270458	45.62325
	8.271949	45.62345
	8.273677	45.62381
	8.274149	45.62398
	8.274336	45.62389
	8.274513	45.62386
	8.274978	45.62361
	8.275417	45.62345
	8.275659	45.62342
	8.276372	45.62314
	8.276762	45.62295
	8.277349	45.62261
	8.277344	45.623
	8.277383	45.62358
	8.277354	45.62437
	8.277751	45.62437
	8.27789	45.62413
	8.277995	45.6237
	8.278708	45.62377
	8.279082	45.62376
	8.278978	45.62412
	8.278884	45.6243
	8.278683	45.62447
	8.278607	45.62451
	8.278711	45.62488
	8.278772	45.62526
	8.278823	45.62538
	8.279191	45.62568
	8.279825	45.62599
	8.280665	45.62656
	8.28148	45.6265
	8.282078	45.6265
	8.282057	45.62671
	8.281984	45.6271
	8.282535	45.6271
	8.282799	45.62708
	8.28299	45.62716
	8.283166	45.62725
	8.282926	45.62759
	8.283151	45.62765
	8.283195	45.62771
	8.283251	45.62813
	8.283329	45.62833
	8.283456	45.62833
	8.283528	45.62826
	8.283909	45.62828
	8.284024	45.62896
	8.28409	45.6292
	8.284117	45.62944
	8.284959	45.62979
	8.28574	45.63073
	8.286494	45.63145
	8.287159	45.63212
	8.287329	45.63231
	8.28748	45.6324
	8.287682	45.63243
	8.287967	45.63241
	8.288377	45.63235
	8.288496	45.63255
	8.28865	45.63267
	8.28877	45.63279
	8.288946	45.63302
	8.288983	45.63314
	8.289197	45.63329
	8.289466	45.63344
	8.289689	45.63352
	8.290516	45.63369
	8.290703	45.63359
	8.291651	45.63301
	8.291802	45.63309
	8.291798	45.6332
	8.291844	45.63342
	8.291977	45.63367
	8.292074	45.63381
	8.292397	45.63385
	8.292929	45.63387
	8.293259	45.63386
	8.293335	45.63394
	8.293413	45.63399
	8.293627	45.63407
	8.294062	45.63411
	8.294132	45.63414
	8.294305	45.63428
	8.29434	45.63437
	8.294373	45.6346
	8.294522	45.63516
	8.29457	45.63527
	8.294638	45.63534
	8.294822	45.63542
	8.295046	45.63551
	8.295487	45.63565
	8.295568	45.6357
	8.295647	45.63578
	8.295666	45.63608
	8.295797	45.63613
	8.296425	45.63621
	8.296608	45.63627
	8.297003	45.63629
	8.29721	45.63626
	8.297394	45.63609
	8.298058	45.63608
	8.300147	45.63597
	8.301769	45.63544
	8.302798	45.63508
	8.305611	45.63417
	8.306044	45.63439
	8.306231	45.63445
	8.30669	45.63448
	8.306878	45.63451
	8.307823	45.63455
	8.308248	45.63483
	8.308465	45.63495
	8.308712	45.635
	8.309039	45.63503
	8.309484	45.63504
	8.309762	45.635
	8.309833	45.63494
	8.310015	45.63489
	8.310193	45.63492
	8.310353	45.63503
	8.310491	45.63509
	8.311155	45.63513
	8.311311	45.63511
	8.311559	45.63505
	8.31183	45.63507
	8.312282	45.6334
	8.312382	45.63274
	8.312532	45.63204
	8.312671	45.63159
	8.312268	45.63172
	8.312074	45.63146
	8.312039	45.63113
	8.312026	45.63058
	8.311897	45.63029
	8.311774	45.62904
	8.312035	45.62871
	8.312188	45.62856
	8.312177	45.62748
	8.312063	45.62624
	8.312062	45.62583
	8.312106	45.62517
	8.312086	45.62495
	8.312031	45.62483
	8.311934	45.62439
	8.311891	45.62406
	8.311733	45.62315
	8.311587	45.62223
	8.311444	45.62108
	8.311414	45.62101
	8.310264	45.6205
	8.310078	45.62023
	8.309782	45.61959
	8.309819	45.61923
	8.309783	45.61889
	8.309179	45.61887
	8.308408	45.61894
	8.308265	45.61892
	8.308247	45.61873
	8.308087	45.6186
	8.308054	45.61843
	8.308171	45.61829
	8.307958	45.61811
	8.307652	45.61727
	8.307239	45.61709
	8.307342	45.61695
	8.306999	45.61658
	8.306744	45.6162
	8.306655	45.6162
	8.306341	45.61634
	8.306166	45.61651
	8.305856	45.6167
	8.305568	45.61691
	8.304689	45.6174
	8.304227	45.61772
	8.304146	45.61776
	8.303993	45.61781
	8.303931	45.61785
	8.303809	45.61788
	8.303473	45.618
	8.303063	45.61833
	8.302641	45.61879
	8.302416	45.6189
	8.302118	45.61923
	8.30179	45.6195
	8.301289	45.61978
	8.300831	45.61993
	8.300218	45.62026
	8.299739	45.62043
	8.299361	45.62061
	8.298863	45.62082
	8.298323	45.62092
	8.297941	45.62102
	8.297586	45.62115
	8.297209	45.62135
	8.296897	45.62154
	8.296496	45.6217
	8.296081	45.62173
	8.295897	45.62176
	8.295671	45.62185
	8.295567	45.62193
	8.295506	45.62188
	8.295489	45.62182
	8.295929	45.62093
	8.295932	45.62073
	8.295791	45.62064
	8.294743	45.62076
	8.294694	45.62025
	8.294852	45.61986
	8.295102	45.61963
	8.295218	45.61945
	8.294973	45.61898
	8.294675	45.61884
	8.293976	45.61897
	8.293616	45.61886
	8.293426	45.61873
	8.292556	45.61773
	8.292094	45.61713
	8.291279	45.6169
	8.290914	45.61687
	8.290672	45.61671
	8.290266	45.61671
	8.289727	45.61601
	8.28923	45.61585
	8.288415	45.61548
	8.288051	45.61534
	8.286736	45.61487
	8.286587	45.61499
	8.286058	45.61558
	8.283523	45.61447
	8.282835	45.61413
	8.282487	45.61387
	8.281944	45.61358
	8.281537	45.61375
	8.281273	45.61369
	8.281012	45.61351
	8.280607	45.61345
	8.279616	45.61317
	8.27929	45.61323
	8.27919	45.61318
	8.279233	45.61294
	8.27893	45.61282
	8.278609	45.61251
	8.278901	45.61212
	8.278558	45.61193
	8.278165	45.61198
	8.277999	45.61191
	8.27781	45.61179
	8.277923	45.6113
	8.277699	45.61113
	8.277486	45.61107
	8.277112	45.61055
	8.276852	45.61042
	8.276461	45.61026
	8.276269	45.61039
	8.276101	45.61048
	8.275789	45.61071
	8.275391	45.61109
	8.275112	45.61151
	8.274941	45.6118
	8.274509	45.61209
	8.274448	45.61256
	8.274269	45.61347
	8.274165	45.61352
	8.273791	45.61355
	8.273413	45.61346
	8.272007	45.61292
	8.271859	45.61313
	8.271807	45.61387
	8.272063	45.61444
	8.272226	45.61471
	8.271948	45.61505
	8.271705	45.61542
	8.271019	45.616
	8.269885	45.61549
	8.268945	45.616
	8.265828	45.61465
	8.263135	45.61341
	8.262823	45.61329
	8.261703	45.61275
	8.261602	45.61268
	8.261551	45.61261
	8.261455	45.61225
	8.261395	45.61216
	8.261398	45.6121
	8.261284	45.6119
	8.261104	45.61126
	8.260908	45.6112
	8.260606	45.61107
	8.260415	45.61092
	8.260319	45.61079
	8.260169	45.61068
	8.260035	45.61061
	8.259854	45.61056
	8.259689	45.61048
	8.259251	45.61035
	8.259002	45.6103
	8.258812	45.61023
	8.258658	45.61022
	8.258479	45.61022
	8.258181	45.61025
	8.257786	45.61034
	8.257513	45.61036
	8.257011	45.61044
	8.256856	45.61045
	8.255156	45.60868
	8.255322	45.6086
	8.255895	45.60827
	8.256315	45.60797
	8.256553	45.60786
	8.256979	45.60769
	8.257332	45.60757
	8.257464	45.60744
	8.257526	45.60732
	8.257534	45.60703
	8.257562	45.60691
	8.257686	45.60671
	8.25779	45.60661
	8.25832	45.60637
	8.258455	45.60628
	8.258764	45.606
	8.259028	45.60579
	8.259079	45.6057
	8.259096	45.60561
	8.259067	45.60554
	8.258367	45.60485
	8.257636	45.60424
	8.257372	45.60355
	8.257394	45.60305
	8.257809	45.60196
	8.258126	45.60129
	8.258487	45.60028
	8.258661	45.59989
	8.258929	45.59945
	8.259655	45.59922
	8.25984	45.5984
	8.259869	45.59793
	8.259875	45.59742
	8.259469	45.59671
	8.259062	45.59605
	8.258901	45.59494
	8.258651	45.5944
	8.259187	45.59417
	8.260343	45.59362
	8.260884	45.59334
	8.261764	45.59276
	8.262796	45.59196
	8.263409	45.59144
	8.26357	45.59128
	8.263544	45.59121
	8.263395	45.591
	8.263146	45.5907
	8.263105	45.59056
	8.263827	45.59041
	8.264195	45.59037
	8.264474	45.59037
	8.264493	45.59027
	8.264488	45.59014
	8.264537	45.59004
	8.2649	45.58979
	8.26543	45.58951
	8.265528	45.58936
	8.265699	45.58922
	8.266001	45.58907
	8.266088	45.58902
	8.266171	45.58895
	8.266818	45.58873
	8.26706	45.58866
	8.267388	45.58851
	8.267745	45.58832
	8.268499	45.58801
	8.268816	45.58784
	8.269176	45.58757
	8.269401	45.58735
	8.269523	45.58719
	8.27005	45.58634
	8.270147	45.58635
	8.270599	45.58616
	8.270856	45.58551
	8.27093	45.58507
	8.271033	45.58489
	8.271244	45.58463
	8.271369	45.58445
	8.271576	45.58425
	8.271758	45.5839
	8.271811	45.58369
	8.271805	45.58355
	8.271759	45.58347
	8.271672	45.58341
	8.271609	45.58332
	8.271635	45.58322
	8.271703	45.58316
	8.271769	45.5828
	8.27201	45.5826
	8.272019	45.58251
	8.271889	45.5824
	8.271915	45.58228
	8.271983	45.58219
	8.27203	45.58209
	8.272052	45.582
	8.272053	45.58187
	8.272018	45.58167
	8.27202	45.58153
	8.272052	45.58129
	8.27202	45.58115
	8.271864	45.58103
	8.271886	45.58088
	8.27197	45.58082
	8.272105	45.58068
	8.272165	45.58053
	8.272177	45.58035
	8.272165	45.58025
	8.272071	45.58019
	8.271764	45.58007
	8.271445	45.5797
	8.271345	45.57962
	8.271166	45.57952
	8.270716	45.57937
	8.2704	45.5792
	8.270184	45.57917
	8.270087	45.57914
	8.269966	45.57903
	8.269922	45.57896
	8.26978	45.57888
	8.269787	45.57876
	8.270061	45.5785
	8.270601	45.57805
	8.271017	45.57774
	8.271342	45.57754
	8.271363	45.57742
	8.271014	45.57699
	8.270889	45.57675
	8.270822	45.57648
	8.270815	45.57618
	8.270622	45.57509
	8.271578	45.57371
	8.271815	45.57301
	8.276287	45.56359
	8.285545	45.55941
	8.289508	45.55723
	8.291596	45.55625
	8.292356	45.55586
	8.294146	45.55491
	8.296452	45.5536
	8.296414	45.55349
	8.296303	45.55337
	8.296233	45.55323
	8.294711	45.54906
	8.29469	45.54868
	8.294647	45.5486
	8.294601	45.54841
	8.294092	45.54677
	8.294064	45.54661
	8.293259	45.54405
	8.293137	45.54361
	8.293004	45.54322
	8.29276	45.5424
	8.292554	45.54162
	8.292505	45.54156
	8.291842	45.54119
	8.290944	45.5406
	8.290239	45.54019
	8.286921	45.53819
	8.28347	45.53604
	8.281633	45.53491
	8.280847	45.53445
	8.280801	45.5343
	8.279404	45.53343
	8.27821	45.53272
	8.2774	45.53219
	8.2775	45.53162
	8.277618	45.5308
	8.277927	45.5294
	8.278322	45.52708
	8.27844	45.52573
	8.278505	45.52445
	8.278805	45.52446
	8.279004	45.52345
	8.279454	45.52315
	8.279952	45.52292
	8.285441	45.52054
	8.289766	45.51857
	8.291921	45.51773
	8.288115	45.51766
	8.285954	45.51759
	8.283974	45.51741
	8.280732	45.51707
	8.280557	45.51703
	8.280454	45.51698
	8.279761	45.51692
	8.278619	45.5169
	8.277951	45.51692
	8.276235	45.51691
	8.274402	45.51694
	8.272682	45.51692
	8.268603	45.5169
	8.267861	45.51691
	8.267764	45.51692
	8.267571	45.51691
	8.267589	45.51682
	8.267608	45.51634
	8.267611	45.51377
	8.26754	45.51154
	8.267501	45.51124
	8.267388	45.5109
	8.266924	45.50991
	8.266382	45.50882
	8.265801	45.50749
	8.265111	45.50611
	8.263274	45.50191
	8.263031	45.50128
	8.262912	45.50109
	8.262294	45.50108
	8.261644	45.50049
	8.261537	45.50041
	8.261586	45.50023
	8.260422	45.5
	8.25961	45.49971
	8.259094	45.49942
	8.258978	45.49939
	8.258599	45.49921
	8.258238	45.4991
	8.25671	45.49872
	8.256229	45.49869
	8.254009	45.49774
	8.253101	45.49737
	8.251773	45.49679
	8.25081	45.49647
	8.249897	45.49621
	8.246157	45.49415
	8.245449	45.49378
	8.244639	45.49342
	8.244246	45.4933
	8.244432	45.4931
	8.244923	45.49252
	8.245465	45.49177
	8.245809	45.49135
	8.246433	45.49052
	8.24659	45.49052
	8.246364	45.49006
	8.245912	45.4896
	8.245055	45.48897
	8.244202	45.48807
	8.243199	45.4869
	8.242396	45.48607
	8.241434	45.48565
	8.240573	45.48532
	8.240218	45.4852
	8.238139	45.4841
	8.238005	45.48407
	8.237918	45.48403
	8.236996	45.48328
	8.236549	45.48357
	8.235815	45.48301
	8.235358	45.48246
	8.233519	45.48086
	8.232918	45.4803
	8.231817	45.4792
	8.232335	45.47858
	8.232415	45.4784
	8.232337	45.47832
	8.232203	45.47822
	8.231646	45.47795
	8.231425	45.47782
	8.231041	45.47764
	8.230982	45.47756
	8.230899	45.47739
	8.230721	45.47724
	8.230573	45.47719
	8.229984	45.47706
	8.229605	45.47682
	8.229461	45.47679
	8.228661	45.47674
	8.228259	45.47665
	8.227914	45.47662
	8.227573	45.47661
	8.227327	45.47663
	8.227139	45.47661
	8.226844	45.47653
	8.226589	45.47643
	8.226428	45.47633
	8.226291	45.47621
	8.226174	45.47608
	8.225769	45.47553
	8.225574	45.4754
	8.225421	45.47535
	8.224947	45.4753
	8.224794	45.47525
	8.224576	45.4752
	8.224138	45.47512
	8.223633	45.47517
	8.223347	45.47523
	8.221945	45.47566
	8.220988	45.47592
	8.219935	45.47602
	8.21926	45.47605
	8.218888	45.47604
	8.218917	45.47555
	8.218891	45.47536
	8.218766	45.47484
	8.218049	45.47292
	8.217779	45.47242
	8.216276	45.47035
	8.217333	45.46706
	8.217482	45.46631
	8.217639	45.46522
	8.217678	45.46461
	8.217731	45.4635
	8.217718	45.46242
	8.217688	45.4619
	8.217724	45.46148
	8.217942	45.46026
	8.218158	45.45874
	8.21819	45.45864
	8.218257	45.45852
	8.218405	45.45832
	8.219084	45.45781
	8.219578	45.45746
	8.220085	45.45717
	8.220186	45.45706
	8.220412	45.45664
	8.220543	45.45636
	8.220442	45.45631
	8.220306	45.4562
	8.219887	45.45569
	8.219676	45.45553
	8.219286	45.45508
	8.218671	45.4545
	8.217988	45.45383
	8.217878	45.45376
	8.217776	45.45372
	8.217507	45.45366
	8.217102	45.45352
	8.216895	45.45348
	8.216625	45.45347
	8.216369	45.45348
	8.216263	45.45345
	8.216154	45.45341
	8.215718	45.45311
	8.212782	45.4523
	8.211617	45.45196
	8.211468	45.45195
	8.211308	45.45174
	8.210414	45.45033
	8.21022	45.45005
	8.210123	45.44994
	8.210012	45.44986
	8.209435	45.44957
	8.208165	45.44903
	8.207439	45.44876
	8.207179	45.4486
	8.206216	45.44816
	8.205521	45.44789
	8.20502	45.44764
	8.204607	45.44738
	8.203786	45.44708
	8.203629	45.44694
	8.20344	45.4467
	8.203626	45.44646
	8.203424	45.44638
	8.203303	45.4463
	8.203251	45.44623
	8.202669	45.44635
	8.201686	45.44683
	8.20142	45.44701
	8.200731	45.44721
	8.199753	45.44732
	8.198953	45.4476
	8.197821	45.44807
	8.196797	45.44858
	8.196522	45.44864
	8.195931	45.44865
	8.194986	45.44864
	8.194156	45.4486
	8.193979	45.44862
	8.193508	45.44884
	8.193293	45.44891
	8.192621	45.44904
	8.192405	45.4491
	8.192021	45.44917
	8.191934	45.44921
	8.191383	45.44956
	8.19123	45.44964
	8.191077	45.44971
	8.190613	45.44985
	8.190183	45.45006
	8.188773	45.45066
	8.188455	45.45075
	8.187706	45.4509
	8.187376	45.45092
	8.187109	45.45091
	8.186747	45.45088
	8.186353	45.45082
	8.186238	45.45082
	8.186033	45.45087
	8.185904	45.45037
	8.185781	45.45005
	8.185681	45.44985
	8.185213	45.44905
	8.184981	45.44873
	8.184737	45.44835
	8.184431	45.4478
	8.184372	45.44767
	8.182412	45.44627
	8.181987	45.44598
	8.181595	45.44582
	8.181261	45.44564
	8.180381	45.44488
	8.180103	45.44462
	8.179839	45.44442
	8.178534	45.44352
	8.178334	45.44341
	8.178201	45.44328
	8.17689	45.44226
	8.175852	45.44148
	8.174317	45.44021
	8.17387	45.43986
	8.173792	45.43979
	8.173699	45.43958
	8.173458	45.43947
	8.173103	45.43927
	8.171094	45.43826
	8.170431	45.43791
	8.169298	45.43705
	8.168852	45.43669
	8.168689	45.43668
	8.16654	45.43505
	8.166277	45.43476
	8.166096	45.4345
	8.165993	45.43424
	8.165966	45.43403
	8.166071	45.43376
	8.166174	45.43369
	8.166558	45.43356
	8.166419	45.43324
	8.166401	45.43315
	8.166421	45.433
	8.1666	45.43255
	8.166192	45.43243
	8.166121	45.43236
	8.166044	45.43231
	8.165954	45.4323
	8.165759	45.43234
	8.165623	45.43234
	8.165405	45.43229
	8.165357	45.43223
	8.165336	45.43212
	8.165304	45.43205
	8.165087	45.43186
	8.164815	45.43168
	8.164501	45.43142
	8.164317	45.43121
	8.16415	45.43094
	8.164098	45.43079
	8.164703	45.4307
	8.163606	45.42953
	8.162296	45.4267
	8.161691	45.42528
	8.161361	45.42458
	8.161415	45.42452
	8.161384	45.42424
	8.161831	45.42394
	8.162036	45.42384
	8.162249	45.42357
	8.162685	45.4234
	8.162814	45.42325
	8.163064	45.42304
	8.16328	45.4229
	8.163602	45.42272
	8.163856	45.42263
	8.164423	45.42247
	8.165078	45.42232
	8.16544	45.42212
	8.165658	45.42193
	8.165908	45.42183
	8.166681	45.42115
	8.167316	45.42081
	8.167915	45.42064
	8.16815	45.4205
	8.168301	45.42039
	8.168533	45.42037
	8.168853	45.42043
	8.169098	45.42041
	8.169529	45.42026
	8.169926	45.42006
	8.170213	45.41986
	8.170512	45.41961
	8.170624	45.41945
	8.170787	45.41915
	8.170808	45.419
	8.170704	45.41832
	8.170737	45.41741
	8.170655	45.41686
	8.170535	45.41638
	8.169998	45.41598
	8.169895	45.41575
	8.169739	45.41507
	8.169481	45.41414
	8.169325	45.41349
	8.169343	45.4133
	8.169276	45.41321
	8.169199	45.41299
	8.168711	45.41127
	8.168651	45.41113
	8.168183	45.41096
	8.165864	45.41085
	8.165555	45.41086
	8.164771	45.41078
	8.161747	45.41058
	8.160398	45.41051
	8.160063	45.41047
	8.158793	45.41039
	8.157173	45.41027
	8.156606	45.41027
	8.15583	45.41014
	8.153847	45.41005
	8.151872	45.41004
	8.150652	45.41001
	8.150295	45.40992
	8.149743	45.40923
	8.149649	45.40913
	8.149308	45.40868
	8.148997	45.40844
	8.14826	45.40774
	8.148005	45.40753
	8.14762	45.40729
	8.147169	45.40709
	8.14677	45.40654
	8.146598	45.40624
	8.146396	45.40633
	8.145949	45.40586
	8.145073	45.40501
	8.144951	45.40481
	8.143848	45.40375
	8.142091	45.4021
	8.140906	45.40101
	8.140736	45.40076
	8.140619	45.40039
	8.140597	45.40013
	8.140336	45.40008
	8.140011	45.40004
	8.139634	45.40003
	8.139541	45.39997
	8.139451	45.40001
	8.139234	45.39999
	8.139582	45.3994
	8.139412	45.39933
	8.139511	45.39911
	8.139216	45.3989
	8.138811	45.3982
	8.138498	45.39777
	8.138374	45.39755
	8.138356	45.3972
	8.138289	45.39688
	8.138184	45.39555
	8.138167	45.39504
	8.138222	45.39304
	8.138402	45.39274
	8.138003	45.3926
	8.137384	45.39245
	8.137076	45.39235
	8.135958	45.39192
	8.135778	45.39178
	8.135245	45.3916
	8.13504	45.39145
	8.134911	45.39139
	8.133279	45.39043
	8.132178	45.3898
	8.131663	45.38952
	8.130338	45.38876
	8.130223	45.38868
	8.129365	45.38719
	8.128328	45.38547
	8.128269	45.38535
	8.125647	45.38092
	8.125599	45.38081
	8.125623	45.38067
	8.124907	45.37948
	8.124248	45.37828
	8.123521	45.37709
	8.12283	45.37609
	8.121732	45.37649
	8.11999	45.37699
	8.120211	45.37731
	8.118567	45.37778
	8.116134	45.37854
	8.115623	45.37859
	8.113628	45.37907
	8.110992	45.37967
	8.110592	45.37978
	8.110557	45.37992
	8.108092	45.38039
	8.107387	45.38044
	8.103417	45.38135
	8.099248	45.38226
	8.097156	45.38273
	8.096946	45.38276
	8.09538	45.38311
	8.093622	45.38348
	8.092502	45.38375
	8.091876	45.38388
	8.08615	45.38518
	8.086444	45.3848
	8.086465	45.38464
	8.086333	45.38448
	8.086216	45.38438
	8.085833	45.38412
	8.085752	45.38399
	8.085051	45.38419
	8.084775	45.38426
	8.084607	45.38429
	8.082646	45.3845
	8.081462	45.38464
	8.08058	45.38478
	8.080467	45.38459
	8.080139	45.38484
	8.079624	45.38502
	8.079313	45.38508
	8.079046	45.3851
	8.078772	45.38509
	8.078149	45.38531
	8.077781	45.38534
	8.077159	45.38542
	8.076509	45.38545
	8.075752	45.38545
	8.075572	45.38542
	8.07505	45.38561
	8.07364	45.38588
	8.070102	45.38659
	8.069398	45.38685
	8.06913	45.38692
	8.069028	45.38703
	8.069097	45.38716
	8.06913	45.38735
	8.069432	45.38786
	8.06943	45.38798
	8.069482	45.38831
	8.06933	45.3884
	8.067542	45.38921
	8.066415	45.38978
	8.065049	45.39041
	8.064744	45.39052
	8.064517	45.39074
	8.063588	45.39155
	8.063175	45.39167
	8.062707	45.39163
	8.06243	45.3918
	8.062024	45.3919
	8.061401	45.39212
	8.060449	45.39256
	8.060268	45.39258
	8.060199	45.39279
	8.060261	45.39299
	8.060313	45.39333
	8.060289	45.3939
	8.060107	45.39444
	8.059812	45.39482
	8.05936	45.39514
	8.058932	45.39529
	8.058619	45.39548
	8.057609	45.3959
	8.057424	45.396
	8.057137	45.39611
	8.056562	45.39637
	8.056098	45.39661
	8.055323	45.39707
	8.05434	45.3976
	8.054095	45.39627
	8.053347	45.39576
	8.052908	45.39553
	8.052392	45.39538
	8.052133	45.39533
	8.051763	45.3953
	8.050094	45.3953
	8.0494	45.39527
	8.049099	45.39527
	8.048868	45.39528
	8.048471	45.39533
	8.047788	45.39557
	8.047533	45.39581
	8.046909	45.39594
	8.046199	45.39605
	8.045284	45.39616
	8.044565	45.39632
	8.043855	45.39645
	8.042877	45.39667
	8.042536	45.3967
	8.042224	45.39681
	8.041885	45.3969
	8.041544	45.39702
	8.041177	45.39717
	8.040073	45.39747
	8.039591	45.39757
	8.03832	45.39806
	8.03757	45.39832
	8.037252	45.39847
	8.037156	45.39853
	8.035845	45.39886
	8.033657	45.39949
	8.031364	45.40028
	8.030506	45.40064
	8.029773	45.40103
	8.029247	45.40135
	8.028605	45.40199
	8.02794	45.4026
	8.026993	45.4031
	8.027432	45.40311
	8.027184	45.40344
	8.026983	45.40377
	8.026784	45.40425
	8.026273	45.40528
	8.025736	45.40612
	8.025578	45.4064
	8.025571	45.40658
	8.025646	45.40681
	8.025666	45.40699
	8.024847	45.40738
	8.024709	45.40794
	8.024218	45.41076
	8.024203	45.411
	8.023624	45.41367
	8.023552	45.41434
	8.023246	45.41569
	8.022725	45.41712
	8.022238	45.41857
	8.022154	45.41872
	8.022059	45.41903
	8.022143	45.41914
	8.022172	45.41941
	8.022136	45.41984
	8.021981	45.42055
	8.021906	45.421
	8.021995	45.42137
	8.022075	45.42196
	8.022236	45.4223
	8.022474	45.42267
	8.022777	45.42306
	8.023174	45.42331
	8.023701	45.42346
	8.023951	45.42363
	8.024213	45.42389
	8.024492	45.42404
	8.024676	45.42419
	8.024865	45.42429
	8.024921	45.42439
	8.024932	45.42457
	8.024858	45.42496
	8.024856	45.42507
	8.025052	45.42533
	8.025059	45.42547
	8.025158	45.42556
	8.025161	45.42566
	8.025377	45.42584
	8.02565	45.42611
	8.025776	45.42626
	8.025854	45.42645
	8.025895	45.42684
	8.02598	45.42713
	8.026129	45.42739
	8.02615	45.42754
	8.026137	45.42772
	8.026172	45.42793
	8.026267	45.42796
	8.026352	45.42802
	8.026381	45.42823
	8.026271	45.42828
	8.026239	45.42872
	8.026214	45.42883
	8.026299	45.42885
	8.02648	45.42886
	8.026558	45.42886
	8.026657	45.42883
	8.026933	45.42891
	8.027406	45.42913
	8.027637	45.42932
	8.027915	45.4295
	8.028155	45.4297
	8.028207	45.42977
	8.028193	45.42986
	8.028322	45.43002
	8.028425	45.43011
	8.028673	45.43015
	8.02871	45.43022
	8.029897	45.43041
	8.030081	45.43036
	8.030281	45.43014
	8.0308	45.4302
	8.031661	45.43039
	8.031749	45.43057
	8.031861	45.43066
	8.032061	45.4307
	8.032376	45.43068
	8.033033	45.43052
	8.033113	45.43057
	8.033405	45.43055
	8.033463	45.4305
	8.033269	45.43023
	8.033328	45.4302
	8.033553	45.43054
	8.033879	45.43058
	8.034161	45.43079
	8.034271	45.43079
	8.034425	45.43072
	8.034922	45.43129
	8.035137	45.43159
	8.035714	45.43214
	8.0361	45.43259
	8.03623	45.43264
	8.036386	45.43277
	8.03681	45.43358
	8.036929	45.43377
	8.037025	45.43389
	8.03699	45.43411
	8.037004	45.43418
	8.036963	45.43431
	8.037152	45.43446
	8.037312	45.43456
	8.037349	45.43467
	8.037341	45.43481
	8.037552	45.43503
	8.037523	45.43508
	8.037291	45.43523
	8.037074	45.43519
	8.036882	45.43518
	8.036908	45.43532
	8.036987	45.43546
	8.036535	45.43585
	8.036323	45.43606
	8.035565	45.43599
	8.034417	45.43683
	8.034651	45.43754
	8.034729	45.43771
	8.034885	45.43781
	8.03507	45.43784
	8.03541	45.43783
	8.035599	45.43789
	8.035982	45.4381
	8.036943	45.43883
	8.036779	45.43895
	8.036308	45.43918
	8.036091	45.4393
	8.036475	45.43973
	8.037003	45.44015
	8.036873	45.4402
	8.036809	45.4403
	8.037007	45.44044
	8.037266	45.44065
	8.037383	45.44078
	8.037727	45.44104
	8.037857	45.44101
	8.037938	45.44096
	8.038039	45.44097
	8.038239	45.44127
	8.038324	45.44134
	8.038401	45.44143
	8.037958	45.44177
	8.03784	45.44174
	8.037702	45.44182
	8.037054	45.44245
	8.036551	45.44287
	8.03633	45.4429
	8.036136	45.44294
	8.036035	45.44297
	8.035871	45.44307
	8.0358	45.44319
	8.035806	45.44338
	8.035904	45.44349
	8.036057	45.4437
	8.036018	45.4438
	8.036045	45.44402
	8.03614	45.44431
	8.036128	45.44448
	8.036076	45.44457
	8.036004	45.4446
	8.035627	45.44491
	8.035414	45.44491
	8.035115	45.44493
	8.034582	45.44512
	8.034243	45.44534
	8.033887	45.44551
	8.033113	45.44565
	8.032895	45.44564
	8.033004	45.44638
	8.03271	45.44643
	8.032054	45.44647
	8.031861	45.44647
	8.03123	45.44685
	8.031132	45.4469
	8.031042	45.44692
	8.03076	45.44671
	8.030016	45.44689
	8.029821	45.44696
	8.029661	45.447
	8.029396	45.44704
	8.029077	45.44713
	8.028635	45.4472
	8.028485	45.44707
	8.028224	45.44714
	8.027864	45.4472
	8.026606	45.44751
	8.026892	45.44793
	8.026166	45.44806
	8.026075	45.44822
	8.025828	45.44822
	8.025509	45.44833
	8.024729	45.44854
	8.02455	45.4482
	8.023579	45.44855
	8.022533	45.44881
	8.021861	45.44896
	8.021326	45.44911
	8.021095	45.44927
	8.020729	45.44958
	8.020781	45.44986
	8.021167	45.45072
	8.021406	45.45098
	8.021573	45.45098
	8.022247	45.4507
	8.023196	45.45048
	8.024164	45.45031
	8.025051	45.4502
	8.025754	45.45013
	8.02646	45.44996
	8.027066	45.45077
	8.026659	45.45088
	8.025216	45.45132
	8.024175	45.4516
	8.023086	45.45194
	8.021871	45.45236
	8.02141	45.45244
	8.020473	45.4528
	8.019855	45.45306
	8.01964	45.45325
	8.019399	45.45338
	8.018977	45.45355
	8.01809	45.45378
	8.017558	45.45385
	8.017355	45.45389
	8.017069	45.45396
	8.016452	45.45415
	8.015686	45.45435
	8.015359	45.4545
	8.015051	45.45467
	8.014074	45.45501
	8.010563	45.4561
	8.008446	45.45679
	8.00763	45.4571
	8.007373	45.45722
	8.006589	45.45763
	8.006445	45.45769
	8.005403	45.45802
	8.005066	45.4582
	8.00448	45.45847
	8.003685	45.45879
	8.002635	45.45911
	8.002044	45.45934
	8.00156	45.45943
	8.001249	45.45952
	8.00057	45.45977
	7.999756	45.46013
	7.999242	45.46031
	7.99907	45.4604
	7.998165	45.46071
	7.997598	45.46089
	7.997362	45.46093
	7.997272	45.46092
	7.997161	45.46089
	7.996985	45.4609
	7.996845	45.46102
	7.996784	45.46111
	7.996488	45.46145
	7.996285	45.46163
	7.996092	45.46174
	7.995847	45.4618
	7.995504	45.46186
	7.995219	45.46194
	7.994842	45.46213
	7.994646	45.46226
	7.994607	45.46232
	7.994753	45.46241
	7.994753	45.4625
	7.994131	45.46281
	7.993124	45.46309
	7.992515	45.46345
	7.992173	45.46369
	7.992041	45.46388
	7.99197	45.46407
	7.991792	45.46425
	7.991564	45.46445
	7.99131	45.46463
	7.99115	45.46469
	7.990868	45.46475
	7.990733	45.46476
	7.990225	45.46494
	7.990047	45.46501
	7.989245	45.46543
	7.988844	45.46565
	7.988548	45.46587
	7.988278	45.46615
	7.987983	45.46639
	7.987446	45.46678
	7.986962	45.46692
	7.986494	45.46727
	7.98506	45.46798
	7.984743	45.46804
	7.984453	45.46804
	7.983843	45.46797
	7.983501	45.46796
	7.98311	45.46799
	7.982344	45.46812
	7.981897	45.46821
	7.981597	45.46829
	7.981331	45.46841
	7.981143	45.46846
	7.98079	45.46852
	7.980596	45.46857
	7.980383	45.46866
	7.980124	45.46882
	7.979736	45.46899
	7.979587	45.46907
	7.979408	45.46926
	7.979318	45.46933
	7.979171	45.46939
	7.978635	45.46957
	7.978455	45.46967
	7.978049	45.46984
	7.977667	45.46997
	7.97722	45.47017
	7.976655	45.47048
	7.975967	45.47093
	7.975648	45.47112
	7.97493	45.47138
	7.97473	45.47147
	7.974247	45.47176
	7.973629	45.47211
	7.972944	45.47247
	7.971355	45.47324
	7.970606	45.47369
	7.9702	45.47404
	7.970032	45.47412
	7.969848	45.47418
	7.96971	45.4742
	7.969437	45.47429
	7.968717	45.47463
	7.968616	45.47471
	7.968614	45.47486
	7.968674	45.47493
	7.968838	45.47499
	7.968847	45.47508
	7.96882	45.47511
	7.968563	45.47533
	7.968455	45.47536
	7.968347	45.47535
	7.968265	45.4754
	7.968192	45.47542
	7.967959	45.47558
	7.967862	45.47571
	7.96779	45.47586
	7.96772	45.4762
	7.967616	45.47634
	7.966858	45.47692
	7.966358	45.47721
	7.967201	45.47836
	7.965463	45.47926
	7.965577	45.48024
	7.965661	45.48143
	7.965781	45.4816
	7.966067	45.48182
	7.966297	45.48203
	7.966035	45.48222
	7.965631	45.48248
	7.965374	45.48267
	7.964828	45.483
	7.964567	45.48315
	7.964185	45.48334
	7.963965	45.48347
	7.963833	45.48356
	7.963663	45.48373
	7.963599	45.48377
	7.963407	45.48385
	7.96242	45.48434
	7.961423	45.48486
	7.96129	45.48491
	7.96106	45.48492
	7.960954	45.48495
	7.96051	45.48522
	7.960106	45.48549
	7.959572	45.48589
	7.959236	45.48618
	7.958494	45.48658
	7.957234	45.48735
	7.956905	45.48749
	7.95642	45.48762
	7.956203	45.4877
	7.956005	45.48785
	7.955601	45.48828
	7.955371	45.48847
	7.955167	45.48861
	7.954747	45.48882
	7.954006	45.48934
	7.953827	45.48943
	7.953741	45.48942
	7.953611	45.48943
	7.953169	45.48968
	7.952762	45.48985
	7.952173	45.49014
	7.950361	45.49132
	7.949551	45.49193
	7.949018	45.4923
	7.94863	45.49255
	7.948501	45.49266
	7.948251	45.49283
	7.947909	45.49302
	7.947362	45.4933
	7.947178	45.49336
	7.946882	45.49342
	7.946802	45.49345
	7.946675	45.49354
	7.946614	45.49361
	7.946436	45.49392
	7.946323	45.49403
	7.945904	45.49425
	7.944152	45.49524
	7.943707	45.49546
	7.943428	45.49553
	7.943315	45.49562
	7.943218	45.49577
	7.943081	45.49588
	7.942917	45.49598
	7.942202	45.49634
	7.94147	45.49676
	7.940637	45.49719
	7.940244	45.49742
	7.939455	45.49779
	7.938347	45.49845
	7.938195	45.49852
	7.937372	45.49896
	7.93708	45.49908
	7.936834	45.49925
	7.936417	45.49949
	7.936068	45.49965
	7.935865	45.4997
	7.935654	45.49973
	7.935059	45.49996
	7.934832	45.50007
	7.934147	45.50056
	7.933826	45.50072
	7.933465	45.50093
	7.933233	45.50105
	7.932494	45.50134
	7.93196	45.50169
	7.931675	45.50194
	7.930818	45.50244
	7.930797	45.50244
	7.930153	45.5027
	7.929866	45.50285
	7.929626	45.50299
	7.929208	45.50326
	7.928947	45.5034
	7.928115	45.5039
	7.927486	45.50423
	7.927315	45.50433
	7.927137	45.50447
	7.926929	45.50457
	7.926555	45.50478
	7.925667	45.50541
	7.924978	45.50576
	7.924495	45.50597
	7.924079	45.50619
	7.923967	45.50627
	7.923852	45.50633
	7.923716	45.50639
	7.923587	45.50643
	7.923244	45.5066
	7.922945	45.50681
	7.92239	45.50724
	7.922031	45.50747
	7.921493	45.50777
	7.920784	45.50814
	7.92058	45.50819
	7.920364	45.50826
	7.920056	45.50851
	7.919823	45.50867
	7.91956	45.50883
	7.918594	45.50932
	7.917953	45.50958
	7.918391	45.51025
	7.919426	45.51218
	7.919524	45.51243
	7.920131	45.51321
	7.920299	45.51372
	7.920586	45.51437
	7.920724	45.51482
	7.920847	45.51536
	7.920909	45.51557
	7.92106	45.51587
	7.921158	45.51612
	7.921295	45.5166
	7.921516	45.51708
	7.921742	45.51767
	7.922102	45.51871
	7.922223	45.51916
	7.922442	45.51976
	7.922512	45.51993
	7.922638	45.52013
	7.922884	45.5201
	7.92291	45.52036
	7.923018	45.52072
	7.923113	45.52094
	7.923356	45.5213
	7.923422	45.52149
	7.923259	45.52159
	7.922663	45.52186
	7.922457	45.52192
	7.922292	45.52194
	7.922045	45.52196
	7.921802	45.52196
	7.921401	45.52194
	7.920676	45.52194
	7.920314	45.52198
	7.920127	45.52202
	7.919848	45.52204
	7.919639	45.52204
	7.919064	45.52202
	7.918492	45.52199
	7.9183	45.52197
	7.917425	45.52195
	7.917329	45.52194
	7.917163	45.52197
	7.916978	45.52209
	7.916873	45.52213
	7.916734	45.52216
	7.916617	45.52216
	7.916481	45.52214
	7.916106	45.52203
	7.915864	45.52203
	7.915578	45.52208
	7.915245	45.5222
	7.91497	45.52226
	7.914563	45.52225
	7.91429	45.52218
	7.914002	45.52214
	7.913803	45.52215
	7.913578	45.52223
	7.913013	45.52257
	7.912721	45.52264
	7.912552	45.52264
	7.912021	45.52257
	7.911778	45.52261
	7.911523	45.52273
	7.911337	45.52285
	7.911123	45.52293
	7.910985	45.52295
	7.910723	45.52294
	7.910584	45.52297
	7.910382	45.52311
	7.910223	45.52319
	7.910026	45.52327
	7.90971	45.52334
	7.909365	45.52339
	7.908725	45.52354
	7.908313	45.52366
	7.907971	45.5238
	7.90768	45.524
	7.907534	45.52412
	7.907301	45.52435
	7.907101	45.52463
	7.906906	45.52486
	7.906798	45.5249
	7.906535	45.52494
	7.906417	45.525
	7.906323	45.52512
	7.906232	45.5253
	7.906097	45.5255
	7.90594	45.5256
	7.905768	45.52564
	7.905305	45.52559
	7.905149	45.5256
	7.904949	45.52566
	7.904774	45.52577
	7.904434	45.52611
	7.904251	45.5262
	7.904099	45.52623
	7.903825	45.52626
	7.903601	45.52626
	7.903301	45.52628
	7.903045	45.52637
	7.902579	45.52658
	7.902231	45.5267
	7.901851	45.52677
	7.901572	45.52679
	7.901156	45.52681
	7.900285	45.5268
	7.899818	45.52683
	7.899471	45.5269
	7.899126	45.52703
	7.898934	45.52715
	7.898815	45.52728
	7.89863	45.52757
	7.898474	45.52767
	7.898271	45.52769
	7.897763	45.52755
	7.897509	45.52754
	7.897159	45.52756
	7.896717	45.52762
	7.896418	45.52771
	7.896236	45.52781
	7.896134	45.5279
	7.895774	45.52814
	7.895476	45.52828
	7.895201	45.52836
	7.894985	45.5284
	7.894578	45.52842
	7.894316	45.52845
	7.893997	45.52852
	7.893773	45.52859
	7.893556	45.52872
	7.893379	45.52892
	7.893215	45.52915
	7.893002	45.52939
	7.892849	45.52951
	7.892652	45.52958
	7.892245	45.52967
	7.891848	45.52981
	7.891649	45.5299
	7.891533	45.52992
	7.891402	45.52991
	7.891178	45.52985
	7.891062	45.52984
	7.890975	45.52988
	7.890835	45.52998
	7.890517	45.53028
	7.890386	45.53035
	7.890217	45.53038
	7.890039	45.53038
	7.889761	45.53041
	7.889534	45.53046
	7.889152	45.53066
	7.888969	45.53072
	7.88869	45.53073
	7.888399	45.53072
	7.888112	45.53063
	7.887816	45.53064
	7.887565	45.53063
	7.887427	45.53059
	7.887287	45.53052
	7.887136	45.53047
	7.887028	45.53044
	7.886894	45.53043
	7.886762	45.53047
	7.88647	45.53063
	7.886067	45.53064
	7.885864	45.53063
	7.885774	45.53061
	7.885714	45.53052
	7.885622	45.53042
	7.885573	45.53039
	7.885511	45.53037
	7.885376	45.53035
	7.885223	45.53037
	7.885065	45.53045
	7.884912	45.53059
	7.884795	45.53074
	7.884579	45.53111
	7.884418	45.53129
	7.884224	45.53144
	7.883903	45.53163
	7.883643	45.53185
	7.883504	45.53199
	7.883347	45.5322
	7.883184	45.53248
	7.882782	45.53341
	7.882618	45.53373
	7.882485	45.53391
	7.882371	45.53402
	7.882267	45.53409
	7.882148	45.53414
	7.881945	45.53419
	7.881517	45.53426
	7.881457	45.53438
	7.881968	45.53471
	7.882354	45.53488
	7.882386	45.53494
	7.882404	45.53503
	7.88259	45.53526
	7.883017	45.53548
	7.883121	45.53555
	7.883127	45.5357
	7.883107	45.53581
	7.882905	45.53613
	7.882847	45.53631
	7.882858	45.53642
	7.882923	45.5366
	7.883056	45.53683
	7.883167	45.53698
	7.883619	45.5375
	7.883734	45.53766
	7.883971	45.53805
	7.884067	45.53817
	7.884229	45.53829
	7.884643	45.53853
	7.884751	45.53857
	7.884844	45.53862
	7.885219	45.53874
	7.885595	45.53897
	7.885886	45.53898
	7.886037	45.53912
	7.886209	45.53959
	7.886318	45.53974
	7.886542	45.53993
	7.886767	45.54009
	7.886844	45.54016
	7.886964	45.5403
	7.887041	45.54042
	7.887197	45.54073
	7.887265	45.54105
	7.88734	45.54123
	7.887522	45.54158
	7.887658	45.54176
	7.888164	45.54223
	7.888362	45.54238
	7.888476	45.54252
	7.888568	45.54271
	7.888679	45.54286
	7.888845	45.54299
	7.889027	45.5431
	7.889206	45.54323
	7.889357	45.54338
	7.889453	45.5435
	7.889905	45.5439
	7.890024	45.54408
	7.890074	45.54419
	7.890421	45.5445
	7.890629	45.54473
	7.890692	45.54488
	7.890692	45.54508
	7.89055	45.54559
	7.890539	45.54577
	7.890568	45.54596
	7.890616	45.54658
	7.890607	45.54702
	7.890619	45.54723
	7.890678	45.54749
	7.890829	45.54768
	7.891273	45.54814
	7.891459	45.5483
	7.891558	45.54841
	7.891578	45.54848
	7.891664	45.54855
	7.892063	45.54873
	7.892387	45.54892
	7.892574	45.54906
	7.892759	45.54924
	7.893047	45.54949
	7.893113	45.54958
	7.893131	45.5497
	7.893002	45.54997
	7.892937	45.55015
	7.892928	45.5503
	7.892947	45.55043
	7.893008	45.55051
	7.893106	45.55057
	7.893402	45.55068
	7.893702	45.55073
	7.893986	45.55081
	7.894231	45.5509
	7.894369	45.55097
	7.894542	45.55109
	7.89471	45.55125
	7.894998	45.55161
	7.895439	45.55194
	7.89588	45.55223
	7.896105	45.55243
	7.896462	45.55265
	7.896916	45.55277
	7.897413	45.55297
	7.897801	45.5532
	7.897975	45.55332
	7.898381	45.55366
	7.898612	45.55389
	7.898682	45.55399
	7.898759	45.55415
	7.898821	45.55442
	7.898789	45.55477
	7.898744	45.55499
	7.898741	45.5552
	7.898775	45.55541
	7.898909	45.55567
	7.899163	45.55603
	7.899432	45.55631
	7.900258	45.55706
	7.900682	45.55755
	7.901044	45.55786
	7.901352	45.5581
	7.901917	45.55847
	7.902043	45.55864
	7.902151	45.55886
	7.902195	45.55908
	7.902199	45.5592
	7.902177	45.55981
	7.902134	45.55991
	7.902008	45.56008
	7.901978	45.56022
	7.902043	45.56052
	7.901974	45.56073
	7.901955	45.56086
	7.901963	45.56094
	7.902053	45.56118
	7.902088	45.56144
	7.902121	45.56153
	7.902188	45.56195
	7.902204	45.56215
	7.902188	45.56222
	7.902126	45.56234
	7.90194	45.56253
	7.90184	45.56259
	7.90177	45.56267
	7.901682	45.56302
	7.90163	45.56335
	7.901535	45.56358
	7.901531	45.56373
	7.901586	45.56396
	7.901568	45.56407
	7.901521	45.56419
	7.901403	45.56433
	7.901108	45.56453
	7.900921	45.56468
	7.900877	45.56475
	7.900822	45.56515
	7.900557	45.56548
	7.900244	45.56594
	7.899264	45.56686
	7.899004	45.56705
	7.89864	45.56738
	7.898528	45.56757
	7.898426	45.56785
	7.898373	45.56795
	7.89831	45.56804
	7.898211	45.56814
	7.898105	45.5682
	7.897926	45.56824
	7.897606	45.56824
	7.89751	45.56823
	7.897307	45.56827
	7.897238	45.5683
	7.896928	45.56849
	7.896816	45.56854
	7.896458	45.56866
	7.896207	45.56877
	7.896001	45.56892
	7.895892	45.56902
	7.895831	45.5691
	7.895777	45.56927
	7.895698	45.56936
	7.895528	45.56949
	7.895375	45.56966
	7.895245	45.56987
	7.895122	45.57027
	7.895069	45.57057
	7.895036	45.57151
	7.895074	45.57162
	7.895136	45.57169
	7.895172	45.57176
	7.895191	45.57187
	7.895197	45.57203
	7.895157	45.57278
	7.895127	45.57299
	7.895077	45.57314
	7.895005	45.57326
	7.894858	45.57367
	7.894805	45.57378
	7.894688	45.57396
	7.894645	45.57427
	7.894668	45.57466
	7.894773	45.57487
	7.894879	45.575
	7.895143	45.57539
	7.895219	45.57558
	7.895246	45.5757
	7.895282	45.57591
	7.895277	45.57607
	7.895187	45.57667
	7.895177	45.57696
	7.895191	45.57727
	7.896523	45.57934
	7.896535	45.57985
	7.896033	45.58028
	7.894895	45.58115
	7.893932	45.58226
	7.893105	45.58303
	7.893056	45.58377
	7.893019	45.58487
	7.893039	45.58591
	7.893189	45.58616
	7.893632	45.58666
	7.894076	45.58726
	7.894911	45.58875
	7.895195	45.58931
	7.895786	45.59003
END
END
