Italy_Veneto_Padova
1
	11.48799	45.26777
	11.48824	45.26784
	11.48886	45.26561
	11.48915	45.26557
	11.49011	45.2654
	11.49236	45.26472
	11.49287	45.26459
	11.49343	45.26448
	11.49365	45.26445
	11.49507	45.2642
	11.4956	45.26413
	11.49633	45.264
	11.49652	45.26395
	11.49722	45.26384
	11.49759	45.26379
	11.49923	45.26368
	11.50255	45.26313
	11.50332	45.26304
	11.50491	45.26289
	11.50536	45.26283
	11.50586	45.26274
	11.50635	45.26263
	11.51318	45.26121
	11.51525	45.26077
	11.51616	45.26054
	11.51886	45.26001
	11.52114	45.25966
	11.52276	45.25944
	11.52492	45.25907
	11.52576	45.25897
	11.52826	45.25864
	11.52911	45.25854
	11.52969	45.25845
	11.52998	45.25842
	11.53042	45.25842
	11.53291	45.25849
	11.53352	45.25852
	11.53388	45.25856
	11.53466	45.25868
	11.54367	45.25983
	11.54536	45.26016
	11.54577	45.26021
	11.54719	45.26031
	11.54875	45.26038
	11.5501	45.26048
	11.55138	45.26067
	11.55262	45.26089
	11.55517	45.2614
	11.55563	45.26142
	11.55704	45.2614
	11.55791	45.2615
	11.55996	45.26176
	11.56158	45.26398
	11.56212	45.26408
	11.56239	45.26272
	11.56429	45.26143
	11.56463	45.26057
	11.5647	45.26043
	11.56735	45.25945
	11.56808	45.26142
	11.56813	45.26143
	11.56882	45.26137
	11.57155	45.26093
	11.57385	45.26061
	11.57508	45.26036
	11.57673	45.25996
	11.57679	45.25972
	11.57695	45.25957
	11.57705	45.25903
	11.57721	45.25882
	11.57743	45.25871
	11.5781	45.25852
	11.5783	45.25836
	11.57832	45.25823
	11.57832	45.25783
	11.57835	45.25773
	11.57843	45.25751
	11.57861	45.25735
	11.57879	45.2573
	11.57921	45.25723
	11.57944	45.25727
	11.58001	45.25734
	11.58056	45.2575
	11.58103	45.25761
	11.58138	45.25759
	11.58149	45.25756
	11.58169	45.25746
	11.58189	45.25747
	11.58221	45.25741
	11.58233	45.25742
	11.58247	45.25732
	11.5834	45.25679
	11.58389	45.25653
	11.5848	45.2561
	11.58499	45.25602
	11.58535	45.25595
	11.58558	45.25592
	11.58588	45.25591
	11.58628	45.25591
	11.58638	45.25592
	11.58756	45.25618
	11.58798	45.25624
	11.58831	45.25626
	11.58866	45.25624
	11.58902	45.25617
	11.58915	45.25616
	11.5894	45.25615
	11.58955	45.25617
	11.58971	45.25621
	11.58987	45.25629
	11.5901	45.2565
	11.59029	45.25675
	11.59039	45.25683
	11.59054	45.2569
	11.59076	45.25696
	11.59092	45.25697
	11.59139	45.25696
	11.59187	45.25694
	11.59311	45.25685
	11.59366	45.25684
	11.59381	45.25688
	11.59401	45.25696
	11.59459	45.25726
	11.59471	45.25728
	11.595	45.25728
	11.59526	45.25721
	11.59561	45.25708
	11.596	45.25696
	11.59618	45.25692
	11.59636	45.25692
	11.59662	45.25696
	11.59721	45.25721
	11.5977	45.25736
	11.5985	45.25753
	11.59872	45.25757
	11.59911	45.25762
	11.59922	45.25761
	11.59928	45.25758
	11.59934	45.25753
	11.59969	45.25714
	11.59979	45.25705
	11.59994	45.25696
	11.60082	45.25655
	11.60133	45.25633
	11.6017	45.25618
	11.60196	45.2561
	11.60231	45.25602
	11.60281	45.25595
	11.60304	45.2559
	11.60373	45.25568
	11.60398	45.25567
	11.60449	45.25572
	11.6048	45.25572
	11.60492	45.2557
	11.60506	45.25566
	11.60532	45.25581
	11.60544	45.25579
	11.60564	45.25583
	11.60583	45.25593
	11.60606	45.2561
	11.60647	45.25642
	11.60679	45.2567
	11.60684	45.25673
	11.60699	45.25678
	11.60725	45.2568
	11.60743	45.25677
	11.60763	45.25669
	11.60768	45.25664
	11.60777	45.25648
	11.6079	45.25604
	11.60795	45.25596
	11.608	45.25591
	11.60808	45.25588
	11.60819	45.25585
	11.60912	45.25589
	11.60924	45.25594
	11.60989	45.25592
	11.61015	45.2559
	11.61036	45.25583
	11.61087	45.25556
	11.61108	45.25548
	11.61139	45.2554
	11.6115	45.25532
	11.61165	45.25533
	11.61196	45.25526
	11.6125	45.2552
	11.61278	45.25522
	11.61297	45.25529
	11.61304	45.25533
	11.61319	45.25546
	11.61323	45.25553
	11.61327	45.25566
	11.61325	45.25582
	11.61321	45.25594
	11.61307	45.25615
	11.61287	45.2564
	11.61276	45.25657
	11.61268	45.25679
	11.61267	45.25693
	11.61271	45.25707
	11.61293	45.25749
	11.61326	45.25766
	11.61361	45.25781
	11.61517	45.25837
	11.61607	45.25865
	11.61665	45.25881
	11.61749	45.25894
	11.6172	45.25911
	11.61696	45.25917
	11.61671	45.25919
	11.61621	45.25913
	11.61466	45.25992
	11.61359	45.26015
	11.6135	45.25998
	11.61224	45.26058
	11.61195	45.26078
	11.61028	45.26172
	11.60956	45.26205
	11.60827	45.2626
	11.60683	45.26314
	11.60628	45.26337
	11.6059	45.2635
	11.60564	45.26361
	11.6023	45.26515
	11.60178	45.2655
	11.60121	45.26579
	11.59914	45.26689
	11.59841	45.2672
	11.59593	45.26803
	11.59381	45.26872
	11.59313	45.26892
	11.59231	45.26913
	11.59198	45.26924
	11.59102	45.26962
	11.59053	45.26984
	11.59002	45.27012
	11.58984	45.27027
	11.58966	45.27039
	11.58913	45.27071
	11.5886	45.27094
	11.58718	45.27152
	11.58384	45.27292
	11.58341	45.27309
	11.5821	45.27158
	11.57996	45.27343
	11.57994	45.27369
	11.57996	45.27415
	11.58002	45.27448
	11.58036	45.27586
	11.5806	45.27726
	11.58067	45.27755
	11.5798	45.27901
	11.57834	45.28174
	11.57818	45.28214
	11.57806	45.28269
	11.57805	45.28281
	11.57808	45.28336
	11.57811	45.28354
	11.57833	45.28434
	11.57806	45.28765
	11.57804	45.28824
	11.57807	45.28893
	11.58015	45.29085
	11.58025	45.29075
	11.58041	45.29153
	11.57872	45.29314
	11.57849	45.29622
	11.57849	45.29646
	11.57853	45.29683
	11.57853	45.29706
	11.57845	45.29823
	11.57835	45.30009
	11.57836	45.30159
	11.57838	45.30187
	11.57843	45.30215
	11.57854	45.3025
	11.57875	45.3029
	11.57891	45.30313
	11.58136	45.30349
	11.58197	45.30462
	11.58243	45.30536
	11.58274	45.30619
	11.58407	45.3077
	11.58464	45.30844
	11.58589	45.31029
	11.58633	45.31085
	11.58829	45.31287
	11.58911	45.3134
	11.59001	45.31372
	11.59381	45.31542
	11.59752	45.31673
	11.59921	45.31744
	11.60077	45.3178
	11.60317	45.31829
	11.60437	45.31847
	11.60628	45.31661
	11.60939	45.31347
	11.61006	45.31386
	11.61083	45.31463
	11.61299	45.31625
	11.61497	45.31694
	11.6153	45.31718
	11.61537	45.31743
	11.61489	45.32111
	11.61464	45.32146
	11.61325	45.32326
	11.61371	45.32336
	11.61391	45.32338
	11.61482	45.32341
	11.61552	45.32347
	11.61588	45.32349
	11.61697	45.32348
	11.61899	45.32546
	11.61783	45.32664
	11.61813	45.32738
	11.61818	45.32775
	11.61819	45.32806
	11.61805	45.32859
	11.61807	45.32876
	11.61829	45.32895
	11.61899	45.32937
	11.61968	45.32984
	11.61989	45.33008
	11.61993	45.33029
	11.61975	45.33101
	11.6195	45.33172
	11.61933	45.3327
	11.6192	45.33296
	11.61802	45.33461
	11.61749	45.33529
	11.61283	45.33768
	11.61335	45.33824
	11.61343	45.33838
	11.61325	45.33869
	11.61332	45.33902
	11.6138	45.33916
	11.61462	45.3395
	11.61524	45.33966
	11.61536	45.33992
	11.61552	45.34111
	11.61621	45.34201
	11.6165	45.34202
	11.61662	45.34231
	11.6168	45.34266
	11.61702	45.34272
	11.61853	45.3428
	11.62022	45.34297
	11.62128	45.34318
	11.6221	45.34357
	11.62246	45.34365
	11.62311	45.34377
	11.62379	45.34415
	11.62413	45.34442
	11.62418	45.34452
	11.62427	45.34595
	11.62443	45.34776
	11.62454	45.3502
	11.62637	45.35008
	11.6266	45.35164
	11.62708	45.35312
	11.62707	45.35378
	11.62725	45.35431
	11.62709	45.35479
	11.62709	45.35504
	11.62741	45.35535
	11.62772	45.35574
	11.62779	45.35593
	11.62779	45.35658
	11.62771	45.35686
	11.62733	45.35712
	11.62657	45.35756
	11.62645	45.35801
	11.62622	45.35849
	11.62625	45.3588
	11.62625	45.35901
	11.62606	45.35927
	11.62555	45.35965
	11.62445	45.36055
	11.62305	45.36137
	11.62246	45.36169
	11.62231	45.36183
	11.62214	45.36216
	11.62148	45.36197
	11.62066	45.36164
	11.62012	45.36216
	11.61963	45.36273
	11.61768	45.36463
	11.61571	45.36638
	11.61524	45.36689
	11.6146	45.36799
	11.61313	45.37128
	11.6123	45.37268
	11.61208	45.37294
	11.61187	45.37306
	11.61179	45.37325
	11.61175	45.37358
	11.61146	45.37416
	11.61131	45.37456
	11.61125	45.37482
	11.61132	45.37509
	11.61172	45.3755
	11.61187	45.37605
	11.61292	45.37952
	11.61359	45.38167
	11.61422	45.38346
	11.61503	45.38557
	11.61568	45.38748
	11.61652	45.38854
	11.61667	45.38884
	11.61695	45.38907
	11.61722	45.38943
	11.61759	45.38965
	11.61875	45.39024
	11.61972	45.39084
	11.62069	45.39137
	11.62126	45.39182
	11.62191	45.39223
	11.62534	45.39464
	11.62846	45.39662
	11.63148	45.3988
	11.63298	45.39998
	11.63314	45.40007
	11.63312	45.4
	11.63591	45.39952
	11.63856	45.4014
	11.63944	45.40205
	11.63972	45.40231
	11.64088	45.40289
	11.64143	45.40329
	11.6415	45.40336
	11.64172	45.40383
	11.64225	45.40427
	11.64229	45.40432
	11.64251	45.40471
	11.64258	45.40487
	11.64274	45.40516
	11.64301	45.40574
	11.64316	45.40625
	11.64532	45.40725
	11.64576	45.40759
	11.64637	45.40787
	11.64728	45.40801
	11.64727	45.40834
	11.6474	45.40908
	11.64742	45.40913
	11.64798	45.40993
	11.64819	45.4101
	11.64864	45.41034
	11.64886	45.41043
	11.64914	45.41052
	11.64978	45.4107
	11.65149	45.41128
	11.65121	45.41256
	11.65115	45.41308
	11.65116	45.41338
	11.6513	45.41403
	11.65135	45.41418
	11.65153	45.4146
	11.65249	45.41716
	11.65506	45.41833
	11.65607	45.41611
	11.65671	45.41597
	11.65887	45.41571
	11.65946	45.41723
	11.66066	45.417
	11.66154	45.41945
	11.66181	45.41949
	11.66194	45.4186
	11.66196	45.41766
	11.66211	45.41634
	11.66206	45.41516
	11.66237	45.41401
	11.6624	45.41396
	11.66312	45.41328
	11.66317	45.41325
	11.66396	45.41301
	11.66577	45.41285
	11.66578	45.41306
	11.66635	45.41265
	11.66802	45.41493
	11.668	45.41504
	11.66765	45.41589
	11.66757	45.416
	11.66612	45.41683
	11.66608	45.41684
	11.66596	45.41785
	11.66594	45.41883
	11.66592	45.41907
	11.66574	45.42026
	11.66575	45.42036
	11.66593	45.42096
	11.66638	45.42109
	11.6675	45.42251
	11.66771	45.42243
	11.66772	45.42244
	11.66776	45.42252
	11.66817	45.42304
	11.66846	45.42357
	11.66882	45.42454
	11.66921	45.42484
	11.66944	45.42521
	11.66966	45.42523
	11.66989	45.42523
	11.67062	45.42519
	11.67114	45.42523
	11.6719	45.42523
	11.67239	45.42519
	11.67261	45.42516
	11.67307	45.42506
	11.67335	45.42502
	11.67401	45.42502
	11.67492	45.4248
	11.67509	45.42472
	11.67562	45.42433
	11.67565	45.42429
	11.67668	45.42416
	11.677	45.4241
	11.67722	45.42403
	11.67727	45.424
	11.67741	45.42416
	11.67759	45.42446
	11.67794	45.42499
	11.67816	45.42522
	11.67854	45.42553
	11.67888	45.4259
	11.6792	45.42631
	11.67919	45.42638
	11.67915	45.42645
	11.68007	45.42761
	11.68027	45.42784
	11.68044	45.42776
	11.68063	45.42798
	11.68092	45.4285
	11.68083	45.42852
	11.68122	45.4294
	11.68212	45.42945
	11.68234	45.42945
	11.68257	45.42943
	11.68286	45.42938
	11.68355	45.42947
	11.68323	45.43057
	11.68357	45.43074
	11.68365	45.43081
	11.68367	45.43089
	11.68364	45.431
	11.68362	45.43124
	11.68364	45.43135
	11.68371	45.43143
	11.68384	45.43151
	11.68399	45.43157
	11.6841	45.4316
	11.68423	45.43161
	11.68433	45.43159
	11.68456	45.4315
	11.6846	45.43159
	11.68462	45.43172
	11.68558	45.43253
	11.68583	45.43269
	11.68603	45.4329
	11.68604	45.43299
	11.686	45.43305
	11.68591	45.43314
	11.68658	45.4338
	11.68716	45.43423
	11.68832	45.43505
	11.68843	45.43514
	11.68862	45.4352
	11.68925	45.43548
	11.68987	45.43622
	11.69052	45.43724
	11.69091	45.43711
	11.69096	45.43706
	11.69096	45.437
	11.69136	45.43685
	11.69198	45.43781
	11.69361	45.43737
	11.69366	45.43742
	11.69369	45.43755
	11.69394	45.43799
	11.69414	45.4383
	11.69428	45.4384
	11.69466	45.43905
	11.69482	45.43918
	11.69564	45.43957
	11.6959	45.43967
	11.69609	45.43969
	11.69644	45.43964
	11.69739	45.44063
	11.69725	45.44071
	11.69721	45.44076
	11.69759	45.44129
	11.69715	45.44136
	11.69637	45.44143
	11.69653	45.44234
	11.69643	45.44237
	11.69643	45.44301
	11.69634	45.44327
	11.69629	45.44397
	11.69634	45.44419
	11.69642	45.44444
	11.69639	45.44451
	11.69629	45.44456
	11.69525	45.44462
	11.69504	45.44461
	11.69472	45.44456
	11.69366	45.44461
	11.69292	45.44462
	11.69251	45.44476
	11.69231	45.4448
	11.692	45.44482
	11.69174	45.44491
	11.69148	45.44498
	11.69169	45.4455
	11.69181	45.4457
	11.69194	45.44586
	11.69276	45.44666
	11.69323	45.44717
	11.69245	45.44738
	11.69286	45.44809
	11.6931	45.44842
	11.69334	45.44865
	11.69564	45.45001
	11.69595	45.45049
	11.69604	45.45078
	11.69615	45.4513
	11.69632	45.4518
	11.69633	45.4523
	11.69642	45.45254
	11.69657	45.45275
	11.69683	45.45301
	11.6969	45.45313
	11.69707	45.45325
	11.69713	45.45331
	11.69718	45.45342
	11.69722	45.45382
	11.69804	45.45368
	11.6982	45.45381
	11.69857	45.45426
	11.69846	45.45432
	11.69934	45.45552
	11.69918	45.4556
	11.69968	45.4565
	11.69943	45.45658
	11.69969	45.45725
	11.69998	45.45794
	11.69998	45.45802
	11.70013	45.4587
	11.70132	45.45859
	11.70232	45.46027
	11.7029	45.4603
	11.7034	45.46036
	11.70395	45.46045
	11.70436	45.4605
	11.7047	45.46053
	11.70511	45.46054
	11.70555	45.46053
	11.70656	45.46035
	11.70677	45.46057
	11.70688	45.46058
	11.70696	45.46057
	11.70852	45.45973
	11.70848	45.45993
	11.70848	45.4601
	11.70851	45.46015
	11.70868	45.46034
	11.7089	45.46054
	11.70902	45.46068
	11.70913	45.4609
	11.70939	45.46131
	11.71004	45.46212
	11.71016	45.46231
	11.71014	45.46241
	11.70986	45.46266
	11.70979	45.46287
	11.7097	45.46333
	11.70967	45.4634
	11.70936	45.46371
	11.70927	45.46388
	11.70929	45.464
	11.70935	45.46417
	11.70935	45.46431
	11.70932	45.46445
	11.70915	45.46478
	11.70861	45.46561
	11.70819	45.46629
	11.70834	45.46643
	11.70881	45.4668
	11.70901	45.46689
	11.70911	45.46703
	11.70927	45.46712
	11.70948	45.46728
	11.7095	45.46731
	11.70948	45.46739
	11.70909	45.46752
	11.70881	45.46751
	11.70863	45.46754
	11.70846	45.46762
	11.70837	45.46769
	11.70824	45.46781
	11.70806	45.46805
	11.708	45.46826
	11.70799	45.46847
	11.70782	45.46877
	11.70749	45.46891
	11.70724	45.46932
	11.70724	45.46943
	11.70745	45.47011
	11.70755	45.47049
	11.70771	45.47098
	11.70784	45.47118
	11.70786	45.47134
	11.70749	45.47151
	11.70717	45.47149
	11.70683	45.47149
	11.70664	45.47156
	11.70635	45.47176
	11.70628	45.47186
	11.70625	45.47213
	11.70561	45.47303
	11.70607	45.47334
	11.70619	45.47346
	11.70657	45.47399
	11.70682	45.47449
	11.70705	45.47501
	11.70661	45.47608
	11.70675	45.47603
	11.707	45.47599
	11.70774	45.47572
	11.70824	45.47578
	11.70837	45.47589
	11.70852	45.47589
	11.70961	45.47574
	11.70991	45.47574
	11.71024	45.47569
	11.71041	45.47565
	11.71069	45.47562
	11.71109	45.47558
	11.71171	45.47555
	11.71428	45.47517
	11.71648	45.47479
	11.71748	45.47419
	11.71778	45.47408
	11.71859	45.47386
	11.71924	45.47379
	11.71982	45.47369
	11.72063	45.47351
	11.72241	45.47334
	11.72554	45.47293
	11.72592	45.47287
	11.72632	45.47279
	11.72662	45.47247
	11.72696	45.47291
	11.72713	45.47307
	11.72737	45.47323
	11.72775	45.4734
	11.72815	45.47355
	11.72854	45.47351
	11.72901	45.47344
	11.72926	45.47338
	11.7298	45.47317
	11.73015	45.47299
	11.73024	45.47306
	11.7304	45.47308
	11.73125	45.473
	11.73184	45.47292
	11.73197	45.47285
	11.73223	45.47286
	11.7328	45.47279
	11.73338	45.47264
	11.73357	45.4725
	11.7337	45.47234
	11.73384	45.47221
	11.73396	45.47207
	11.73403	45.47204
	11.73423	45.47185
	11.73463	45.47123
	11.73475	45.47108
	11.73489	45.47099
	11.73565	45.47082
	11.73582	45.47081
	11.73626	45.47092
	11.73721	45.47107
	11.73753	45.4711
	11.73785	45.47111
	11.73815	45.4712
	11.73892	45.47155
	11.73927	45.47158
	11.73968	45.47167
	11.74007	45.47165
	11.74064	45.47154
	11.74136	45.4713
	11.74204	45.47111
	11.74259	45.4711
	11.74385	45.4709
	11.74434	45.47088
	11.74448	45.47091
	11.74467	45.47102
	11.74568	45.47189
	11.7459	45.47206
	11.74591	45.47214
	11.7458	45.47229
	11.7457	45.47237
	11.74567	45.47248
	11.74563	45.47286
	11.74518	45.47301
	11.74464	45.47329
	11.74451	45.47332
	11.74424	45.47336
	11.74403	45.47334
	11.7437	45.47335
	11.74334	45.47359
	11.74324	45.47363
	11.74242	45.47386
	11.7421	45.47397
	11.74177	45.47416
	11.74167	45.47427
	11.74164	45.47439
	11.74163	45.47485
	11.74166	45.47501
	11.7418	45.47528
	11.74188	45.47554
	11.74194	45.47565
	11.74204	45.47575
	11.74248	45.47599
	11.74274	45.47609
	11.743	45.47617
	11.74326	45.47619
	11.74359	45.47626
	11.74374	45.47633
	11.74387	45.47642
	11.74433	45.47657
	11.74459	45.47667
	11.74471	45.47676
	11.74479	45.47696
	11.74485	45.47703
	11.74507	45.47715
	11.74537	45.47738
	11.74558	45.47765
	11.74586	45.4779
	11.7459	45.47799
	11.74588	45.47811
	11.7458	45.47828
	11.74581	45.47836
	11.74587	45.47848
	11.74586	45.47867
	11.74563	45.47919
	11.74553	45.47928
	11.74542	45.47931
	11.74533	45.47948
	11.74556	45.47972
	11.74535	45.48024
	11.74535	45.48071
	11.74515	45.48118
	11.74493	45.48151
	11.74477	45.48172
	11.74457	45.48186
	11.74426	45.48205
	11.74411	45.48219
	11.74401	45.48232
	11.74399	45.48244
	11.74393	45.48259
	11.74371	45.48269
	11.74299	45.48285
	11.74251	45.48299
	11.74188	45.4831
	11.74073	45.48327
	11.73929	45.4834
	11.7389	45.48345
	11.73857	45.48357
	11.7379	45.48394
	11.73781	45.484
	11.73772	45.4841
	11.73769	45.48429
	11.7377	45.48456
	11.73775	45.4848
	11.73785	45.48496
	11.73828	45.48518
	11.73842	45.48524
	11.73871	45.4853
	11.73903	45.48535
	11.73944	45.48536
	11.73966	45.48539
	11.73999	45.48539
	11.74096	45.48525
	11.74157	45.48519
	11.74198	45.48513
	11.7424	45.48511
	11.74284	45.48513
	11.74324	45.48523
	11.74345	45.48531
	11.74373	45.48539
	11.74421	45.48558
	11.74437	45.48567
	11.74451	45.48593
	11.74487	45.48638
	11.74542	45.48688
	11.74568	45.48703
	11.74609	45.48716
	11.74644	45.48722
	11.74875	45.4875
	11.74901	45.48756
	11.75014	45.48773
	11.75032	45.48846
	11.75035	45.48881
	11.75029	45.48899
	11.75018	45.48917
	11.74994	45.48946
	11.74972	45.48966
	11.74946	45.48977
	11.74933	45.48981
	11.74914	45.48985
	11.7489	45.48987
	11.74864	45.48985
	11.74845	45.48982
	11.74812	45.4897
	11.7478	45.48953
	11.7473	45.48921
	11.74701	45.48907
	11.74672	45.48899
	11.74628	45.48894
	11.74598	45.48893
	11.74542	45.48904
	11.7453	45.48905
	11.74444	45.48906
	11.7442	45.48905
	11.74404	45.48902
	11.74385	45.48896
	11.74371	45.48888
	11.74342	45.48867
	11.74327	45.48858
	11.74311	45.48851
	11.74282	45.48848
	11.74272	45.48845
	11.74259	45.48839
	11.74248	45.48831
	11.7423	45.48813
	11.74215	45.48805
	11.74189	45.48805
	11.74174	45.48803
	11.74151	45.48794
	11.7414	45.48785
	11.74121	45.48774
	11.74106	45.4877
	11.74092	45.4877
	11.74075	45.48768
	11.74063	45.48764
	11.74038	45.48758
	11.74029	45.4876
	11.74018	45.48768
	11.74007	45.4877
	11.73959	45.48767
	11.73946	45.48773
	11.73937	45.48775
	11.73924	45.48782
	11.73888	45.48797
	11.73879	45.4881
	11.73878	45.48823
	11.73876	45.48828
	11.73864	45.4884
	11.73856	45.48843
	11.73838	45.48861
	11.73819	45.48869
	11.7381	45.48871
	11.73803	45.48877
	11.73785	45.48905
	11.73779	45.48917
	11.73768	45.48928
	11.73746	45.48946
	11.73732	45.48955
	11.73712	45.48972
	11.73707	45.48984
	11.73709	45.48991
	11.73719	45.49005
	11.73724	45.49017
	11.73721	45.49031
	11.73707	45.4907
	11.73708	45.49088
	11.737	45.49139
	11.737	45.49158
	11.73696	45.49193
	11.73697	45.49209
	11.73699	45.49215
	11.73699	45.49242
	11.73696	45.49259
	11.73689	45.49269
	11.73669	45.49273
	11.73658	45.49274
	11.73655	45.49279
	11.73653	45.49289
	11.73652	45.49312
	11.73638	45.49328
	11.73634	45.49335
	11.73631	45.49346
	11.73631	45.49398
	11.73642	45.49416
	11.73641	45.49422
	11.73645	45.49434
	11.73663	45.49473
	11.73659	45.49481
	11.73648	45.4949
	11.73643	45.49492
	11.73624	45.49505
	11.73582	45.4954
	11.73557	45.49565
	11.73544	45.49582
	11.73529	45.49636
	11.73528	45.49653
	11.73516	45.4972
	11.7351	45.49742
	11.73492	45.4978
	11.7349	45.49796
	11.7349	45.49851
	11.73492	45.49877
	11.7349	45.49902
	11.73483	45.4991
	11.73459	45.49963
	11.73464	45.50014
	11.73465	45.5005
	11.73463	45.50061
	11.73438	45.50124
	11.73429	45.50158
	11.73425	45.50243
	11.73432	45.50345
	11.73429	45.50377
	11.73419	45.50397
	11.73414	45.50416
	11.73415	45.50444
	11.73417	45.50457
	11.73423	45.50467
	11.73496	45.50565
	11.73528	45.50613
	11.73534	45.50625
	11.73575	45.50742
	11.73581	45.50767
	11.73586	45.50802
	11.73604	45.50841
	11.73614	45.50903
	11.73638	45.50955
	11.73684	45.51026
	11.737	45.51062
	11.73703	45.51081
	11.73698	45.51092
	11.73666	45.5113
	11.73631	45.51176
	11.73617	45.5119
	11.73599	45.512
	11.73571	45.51209
	11.73469	45.51219
	11.73438	45.51221
	11.73368	45.51223
	11.73228	45.51224
	11.73216	45.51249
	11.73133	45.51353
	11.73054	45.51435
	11.73005	45.51492
	11.72883	45.51648
	11.72867	45.51687
	11.72859	45.51729
	11.72844	45.51787
	11.72779	45.51988
	11.72763	45.51985
	11.72746	45.52077
	11.72805	45.52091
	11.72818	45.52096
	11.72926	45.52166
	11.72948	45.5213
	11.7296	45.52114
	11.72997	45.52089
	11.73055	45.52065
	11.7309	45.52054
	11.73144	45.5204
	11.7316	45.52031
	11.73209	45.51999
	11.73232	45.51987
	11.7326	45.51977
	11.73279	45.51974
	11.73301	45.51973
	11.73324	45.51974
	11.73326	45.51965
	11.73348	45.51906
	11.73375	45.51882
	11.73407	45.51858
	11.73478	45.51788
	11.73506	45.51785
	11.73566	45.51771
	11.73579	45.5177
	11.73597	45.5178
	11.7362	45.51788
	11.73693	45.5181
	11.73724	45.51742
	11.73897	45.51774
	11.73929	45.51775
	11.7396	45.51766
	11.73992	45.51755
	11.74037	45.51752
	11.74091	45.51751
	11.74112	45.5176
	11.7413	45.51766
	11.74242	45.51795
	11.74282	45.51827
	11.74273	45.51847
	11.74314	45.51862
	11.74343	45.51871
	11.74359	45.51874
	11.74373	45.51882
	11.74434	45.5191
	11.74478	45.51924
	11.74567	45.51947
	11.74642	45.51961
	11.74771	45.51977
	11.74778	45.51982
	11.74817	45.52001
	11.74847	45.52012
	11.74901	45.52026
	11.74954	45.52035
	11.75001	45.5204
	11.75095	45.52046
	11.75179	45.52054
	11.75259	45.52069
	11.75343	45.52076
	11.75389	45.52076
	11.7549	45.52085
	11.75514	45.52098
	11.75579	45.52129
	11.75779	45.52231
	11.75825	45.52247
	11.7584	45.52251
	11.75832	45.52278
	11.7583	45.5229
	11.75822	45.52293
	11.75815	45.52302
	11.75801	45.52344
	11.75796	45.52349
	11.75814	45.52357
	11.75828	45.52367
	11.75835	45.52378
	11.75842	45.52393
	11.75843	45.52398
	11.75829	45.52432
	11.75821	45.52435
	11.75779	45.52436
	11.75773	45.52437
	11.75719	45.52486
	11.75697	45.525
	11.75555	45.5258
	11.7555	45.52587
	11.75522	45.52661
	11.75497	45.52736
	11.75481	45.52795
	11.75472	45.52817
	11.75437	45.52878
	11.75429	45.52886
	11.75399	45.5291
	11.75344	45.5296
	11.75268	45.53036
	11.75231	45.53098
	11.75191	45.53172
	11.75159	45.53227
	11.75141	45.53264
	11.75125	45.53302
	11.75097	45.53358
	11.7507	45.5342
	11.75061	45.53437
	11.7502	45.53494
	11.75015	45.53503
	11.75012	45.53514
	11.75014	45.53538
	11.75011	45.53551
	11.75003	45.5356
	11.74981	45.53567
	11.74946	45.53576
	11.74925	45.53583
	11.74919	45.53588
	11.74919	45.53613
	11.74917	45.53624
	11.749	45.53651
	11.7488	45.53663
	11.7487	45.53667
	11.74854	45.5367
	11.74826	45.53673
	11.74803	45.53677
	11.74785	45.53688
	11.74766	45.53704
	11.74717	45.53739
	11.74696	45.53739
	11.74679	45.53734
	11.74659	45.53733
	11.74634	45.53809
	11.74622	45.5384
	11.74615	45.53853
	11.74551	45.53924
	11.74454	45.54022
	11.74435	45.54046
	11.74415	45.54115
	11.74399	45.54142
	11.74375	45.54174
	11.74356	45.54203
	11.74341	45.54235
	11.74321	45.54287
	11.74304	45.54343
	11.74294	45.54364
	11.74279	45.54382
	11.74252	45.54409
	11.74227	45.54438
	11.74207	45.54471
	11.74193	45.54488
	11.74179	45.54491
	11.74131	45.54497
	11.74112	45.54502
	11.74103	45.54513
	11.74096	45.54534
	11.74081	45.54597
	11.74072	45.54612
	11.74058	45.54625
	11.74011	45.54702
	11.7401	45.54707
	11.74013	45.54712
	11.74041	45.54727
	11.74051	45.54736
	11.74052	45.54743
	11.74049	45.5475
	11.7404	45.54761
	11.74024	45.54771
	11.73954	45.54809
	11.73935	45.54821
	11.73931	45.54827
	11.73928	45.54852
	11.73912	45.5491
	11.73901	45.54928
	11.73858	45.54977
	11.73834	45.54994
	11.73818	45.54995
	11.73752	45.5498
	11.73739	45.54981
	11.73709	45.55044
	11.73696	45.55062
	11.73676	45.55061
	11.73655	45.55062
	11.73628	45.55145
	11.73607	45.55202
	11.73598	45.55214
	11.73568	45.55218
	11.73566	45.55223
	11.7356	45.55263
	11.73576	45.55291
	11.73576	45.55319
	11.73562	45.55334
	11.73525	45.55365
	11.73459	45.55389
	11.73431	45.55406
	11.73383	45.55451
	11.73353	45.55498
	11.73353	45.5551
	11.73347	45.55526
	11.73329	45.55556
	11.733	45.55596
	11.73295	45.5561
	11.73299	45.55679
	11.73298	45.55688
	11.73244	45.55783
	11.73187	45.55783
	11.73179	45.55868
	11.73173	45.55876
	11.73177	45.55876
	11.7317	45.55981
	11.73173	45.55986
	11.7313	45.55981
	11.73092	45.55987
	11.73086	45.55989
	11.73042	45.56005
	11.73012	45.56018
	11.73002	45.56027
	11.72945	45.56045
	11.72936	45.5606
	11.72832	45.561
	11.72832	45.56063
	11.72834	45.56044
	11.72821	45.56034
	11.728	45.56024
	11.72758	45.56014
	11.72723	45.56018
	11.72709	45.56018
	11.72709	45.5602
	11.72703	45.56021
	11.72678	45.5602
	11.72237	45.56018
	11.72227	45.55918
	11.72045	45.55928
	11.72058	45.55876
	11.72067	45.55848
	11.72101	45.5578
	11.72117	45.55752
	11.72155	45.55702
	11.7219	45.55664
	11.72453	45.55484
	11.7247	45.55462
	11.72477	45.55445
	11.72484	45.55416
	11.72477	45.55395
	11.72425	45.5529
	11.72412	45.55258
	11.72401	45.55206
	11.72404	45.55177
	11.72412	45.55145
	11.72432	45.55102
	11.72446	45.55066
	11.72451	45.55049
	11.72451	45.55011
	11.72442	45.54972
	11.72427	45.54947
	11.72404	45.54917
	11.7234	45.54847
	11.72294	45.54785
	11.72276	45.54763
	11.72258	45.54729
	11.72251	45.54691
	11.72247	45.54641
	11.72251	45.54619
	11.72278	45.54531
	11.72282	45.54509
	11.7229	45.5448
	11.72291	45.54464
	11.72288	45.54447
	11.72273	45.54429
	11.72264	45.54425
	11.72234	45.54416
	11.72196	45.54408
	11.72186	45.54404
	11.72173	45.54394
	11.72169	45.54386
	11.72149	45.54401
	11.72115	45.54418
	11.72105	45.54426
	11.72096	45.54437
	11.7208	45.54462
	11.72068	45.54473
	11.72056	45.54477
	11.72022	45.54479
	11.71995	45.54486
	11.71979	45.54494
	11.71965	45.54504
	11.71944	45.54512
	11.71913	45.5452
	11.71892	45.54528
	11.7186	45.54542
	11.71823	45.54561
	11.71804	45.54578
	11.71794	45.54594
	11.71788	45.54598
	11.71777	45.54609
	11.71714	45.54642
	11.71707	45.54648
	11.71629	45.547
	11.7161	45.54714
	11.71589	45.54737
	11.71568	45.54763
	11.7155	45.54794
	11.71539	45.54809
	11.71504	45.54831
	11.71334	45.54731
	11.7139	45.54673
	11.71434	45.54625
	11.71292	45.5457
	11.71286	45.54539
	11.71276	45.54506
	11.71273	45.54502
	11.7126	45.54486
	11.71222	45.54481
	11.71216	45.54473
	11.71186	45.54381
	11.71153	45.54312
	11.71083	45.54329
	11.70793	45.54392
	11.7078	45.54361
	11.70743	45.54262
	11.70705	45.54281
	11.70695	45.54284
	11.70695	45.54285
	11.70586	45.54322
	11.70556	45.54334
	11.70516	45.54347
	11.70484	45.54359
	11.70441	45.54373
	11.70367	45.54303
	11.70354	45.54296
	11.70342	45.54298
	11.70329	45.54306
	11.70296	45.54323
	11.70227	45.5437
	11.7021	45.54388
	11.70129	45.54435
	11.70111	45.54448
	11.70099	45.54461
	11.70131	45.54551
	11.70138	45.5458
	11.70062	45.54633
	11.7003	45.54648
	11.69912	45.54687
	11.69877	45.54701
	11.69755	45.54744
	11.69739	45.54755
	11.69736	45.54759
	11.69724	45.54769
	11.69696	45.54787
	11.69684	45.54791
	11.69675	45.54788
	11.69661	45.54781
	11.69654	45.54831
	11.69639	45.5491
	11.69622	45.54909
	11.69583	45.54953
	11.69634	45.54969
	11.69614	45.54993
	11.69602	45.55012
	11.69582	45.55007
	11.69549	45.54992
	11.69518	45.55028
	11.69466	45.55084
	11.6946	45.55076
	11.69446	45.55066
	11.69435	45.55061
	11.69424	45.55052
	11.69401	45.55039
	11.69379	45.5503
	11.69363	45.55025
	11.69342	45.55015
	11.69334	45.55013
	11.69321	45.55013
	11.69289	45.55015
	11.69269	45.55018
	11.69244	45.55017
	11.69223	45.55012
	11.6921	45.55005
	11.69165	45.55022
	11.6913	45.55059
	11.69117	45.55079
	11.6911	45.55102
	11.6911	45.55118
	11.691	45.55139
	11.69044	45.55133
	11.69025	45.55129
	11.69006	45.55127
	11.68978	45.55122
	11.689	45.55107
	11.68876	45.55104
	11.68866	45.55107
	11.68851	45.55116
	11.68836	45.55121
	11.68823	45.55121
	11.68777	45.55112
	11.68735	45.55101
	11.687	45.55097
	11.68682	45.55094
	11.68662	45.55089
	11.68624	45.55085
	11.68591	45.55167
	11.68588	45.55185
	11.68576	45.55222
	11.68463	45.55231
	11.68386	45.5524
	11.68326	45.55241
	11.68301	45.55239
	11.68288	45.55235
	11.68179	45.55211
	11.68157	45.55203
	11.68158	45.55196
	11.68163	45.55187
	11.68189	45.55173
	11.68193	45.55164
	11.68193	45.55157
	11.6819	45.55152
	11.68173	45.55141
	11.68173	45.55126
	11.68176	45.55106
	11.6817	45.55102
	11.6816	45.55099
	11.68156	45.55093
	11.68161	45.55087
	11.6817	45.55087
	11.68179	45.55084
	11.68183	45.5508
	11.68166	45.55078
	11.68157	45.55075
	11.68142	45.55073
	11.68126	45.55068
	11.68121	45.55059
	11.68102	45.55052
	11.681	45.55048
	11.68083	45.5504
	11.68069	45.55041
	11.68059	45.5504
	11.6805	45.55036
	11.68048	45.55033
	11.68041	45.5503
	11.6802	45.55036
	11.68017	45.55028
	11.68019	45.55021
	11.68013	45.55011
	11.67996	45.55007
	11.67973	45.55005
	11.67944	45.54993
	11.67928	45.54984
	11.67894	45.54984
	11.67801	45.54959
	11.67813	45.54912
	11.67813	45.54898
	11.67825	45.54859
	11.67851	45.54746
	11.67874	45.54659
	11.67889	45.54594
	11.67894	45.54585
	11.6793	45.5459
	11.67941	45.54518
	11.67948	45.54502
	11.67963	45.54491
	11.67976	45.54466
	11.67986	45.54442
	11.67995	45.5441
	11.68003	45.54397
	11.67995	45.54392
	11.6793	45.54373
	11.67898	45.54366
	11.67869	45.54356
	11.67899	45.54302
	11.67919	45.54262
	11.67918	45.54252
	11.67913	45.54238
	11.67897	45.54213
	11.67886	45.5419
	11.67861	45.54183
	11.67792	45.54169
	11.67756	45.54158
	11.67631	45.54131
	11.67609	45.54123
	11.67586	45.54107
	11.67564	45.54087
	11.67541	45.54052
	11.67523	45.53964
	11.6752	45.53957
	11.67523	45.53951
	11.6754	45.53939
	11.67539	45.53932
	11.67534	45.53921
	11.6738	45.53882
	11.67339	45.53873
	11.67303	45.53863
	11.67246	45.53854
	11.672	45.53852
	11.67023	45.53852
	11.66943	45.53843
	11.66812	45.53818
	11.66807	45.53855
	11.66798	45.53878
	11.66791	45.53921
	11.66779	45.5396
	11.6677	45.5398
	11.6676	45.54016
	11.66738	45.54017
	11.66576	45.54016
	11.66454	45.54009
	11.66398	45.54007
	11.6637	45.54018
	11.66333	45.5402
	11.6631	45.54032
	11.66274	45.54041
	11.66251	45.54
	11.6624	45.53964
	11.66214	45.5385
	11.66208	45.53814
	11.66199	45.53785
	11.6576	45.53858
	11.65787	45.54038
	11.65861	45.5456
	11.65763	45.54779
	11.65577	45.55003
	11.65293	45.5504
	11.65336	45.55208
	11.65807	45.55152
	11.65816	45.5552
	11.65844	45.5553
	11.65882	45.55447
	11.66111	45.55476
	11.66107	45.55499
	11.66245	45.55542
	11.66262	45.55542
	11.66646	45.55656
	11.66616	45.55682
	11.66618	45.55703
	11.66612	45.55715
	11.66595	45.55735
	11.66571	45.55752
	11.66531	45.55773
	11.66556	45.55802
	11.66542	45.55815
	11.66544	45.5583
	11.66573	45.55852
	11.66527	45.55895
	11.66467	45.55908
	11.66458	45.55957
	11.665	45.56032
	11.66579	45.56059
	11.66687	45.56145
	11.6673	45.56216
	11.66771	45.56233
	11.66768	45.5625
	11.66747	45.56263
	11.66776	45.56495
	11.66924	45.56505
	11.67208	45.56558
	11.67212	45.566
	11.67233	45.56652
	11.67265	45.56689
	11.67291	45.56706
	11.67291	45.56897
	11.67003	45.56884
	11.67004	45.56951
	11.66866	45.5693
	11.66796	45.56882
	11.66688	45.56854
	11.66608	45.56943
	11.66663	45.57063
	11.66585	45.57086
	11.66732	45.57429
	11.66535	45.57431
	11.66569	45.57519
	11.66702	45.57744
	11.66756	45.57906
	11.66734	45.57913
	11.66736	45.57934
	11.66752	45.57949
	11.6685	45.57956
	11.66897	45.5794
	11.66928	45.57946
	11.66977	45.57923
	11.66955	45.58013
	11.67037	45.58014
	11.67003	45.58261
	11.66979	45.58276
	11.66958	45.58347
	11.66962	45.58377
	11.67367	45.58262
	11.67399	45.58248
	11.67414	45.58238
	11.67439	45.58245
	11.6745	45.5825
	11.67452	45.58255
	11.67452	45.58271
	11.67376	45.58566
	11.673	45.58763
	11.67288	45.58865
	11.67244	45.58908
	11.67234	45.58985
	11.67266	45.59026
	11.67415	45.59059
	11.67469	45.59183
	11.67434	45.59235
	11.67192	45.59292
	11.6717	45.59386
	11.67074	45.594
	11.66753	45.59407
	11.66722	45.59565
	11.65948	45.59482
	11.65947	45.5941
	11.65958	45.59338
	11.65962	45.5927
	11.65768	45.5927
	11.65762	45.592
	11.65726	45.59205
	11.65688	45.59223
	11.64705	45.59404
	11.64605	45.59471
	11.64507	45.59592
	11.64257	45.59758
	11.64242	45.59851
	11.64225	45.59893
	11.64223	45.5994
	11.64299	45.59997
	11.64347	45.60046
	11.64391	45.6011
	11.64427	45.60174
	11.64451	45.60232
	11.64504	45.6054
	11.64596	45.60728
	11.64534	45.60806
	11.64508	45.60814
	11.64459	45.60929
	11.64552	45.60965
	11.64547	45.61038
	11.64502	45.61121
	11.64375	45.61177
	11.64173	45.61124
	11.64109	45.6147
	11.64228	45.61446
	11.64282	45.61452
	11.64286	45.61442
	11.64339	45.61462
	11.6435	45.61462
	11.64416	45.61495
	11.64447	45.61506
	11.64459	45.61506
	11.64478	45.61488
	11.64489	45.6148
	11.64515	45.61473
	11.6454	45.61459
	11.64563	45.61493
	11.64594	45.61532
	11.64605	45.61537
	11.64663	45.61555
	11.64653	45.6157
	11.64652	45.61596
	11.64636	45.61606
	11.64633	45.61616
	11.64634	45.61627
	11.6464	45.61652
	11.64652	45.61679
	11.64658	45.61714
	11.647	45.61843
	11.64704	45.6187
	11.64718	45.61904
	11.64716	45.61926
	11.64739	45.61972
	11.64759	45.62034
	11.64768	45.62071
	11.64769	45.621
	11.64771	45.62103
	11.64777	45.62105
	11.64804	45.62106
	11.64813	45.62103
	11.64826	45.62102
	11.64842	45.62106
	11.64841	45.6212
	11.64844	45.62131
	11.6486	45.62156
	11.64876	45.62166
	11.64881	45.62196
	11.64903	45.62242
	11.64912	45.62251
	11.64921	45.62254
	11.6494	45.62257
	11.64932	45.62317
	11.64969	45.62326
	11.64934	45.62372
	11.64929	45.62435
	11.6481	45.6252
	11.64825	45.62623
	11.6473	45.62651
	11.64738	45.62676
	11.64674	45.62762
	11.64618	45.62753
	11.64604	45.62753
	11.64609	45.62863
	11.64605	45.62906
	11.6462	45.62912
	11.64613	45.62934
	11.64603	45.62944
	11.646	45.62961
	11.64629	45.62964
	11.64657	45.63033
	11.64658	45.63086
	11.64625	45.63141
	11.6461	45.63193
	11.64673	45.63213
	11.64713	45.63263
	11.64702	45.63364
	11.64691	45.63428
	11.64723	45.63467
	11.64809	45.63483
	11.64907	45.63526
	11.6496	45.63623
	11.65076	45.63702
	11.6513	45.638
	11.65111	45.63904
	11.65137	45.6397
	11.65616	45.6403
	11.65642	45.64037
	11.65669	45.64031
	11.65772	45.64033
	11.65879	45.64041
	11.65958	45.64044
	11.66043	45.64045
	11.66067	45.64041
	11.66103	45.6404
	11.66155	45.64035
	11.66161	45.63994
	11.66174	45.63967
	11.66173	45.63949
	11.6616	45.6394
	11.66147	45.63911
	11.66155	45.63899
	11.66162	45.63892
	11.6616	45.63885
	11.66164	45.63867
	11.66344	45.63892
	11.66372	45.63895
	11.66372	45.63896
	11.66488	45.63907
	11.66553	45.63915
	11.66666	45.63924
	11.66758	45.6394
	11.6683	45.63949
	11.66964	45.63963
	11.66975	45.63961
	11.67193	45.63988
	11.67446	45.64108
	11.67597	45.64131
	11.67594	45.64009
	11.67701	45.63995
	11.67743	45.63991
	11.67863	45.63986
	11.67867	45.64022
	11.67893	45.64029
	11.68017	45.64057
	11.67987	45.6414
	11.67923	45.64287
	11.67907	45.6433
	11.67884	45.6438
	11.67876	45.64403
	11.67878	45.64415
	11.67889	45.64426
	11.67977	45.64487
	11.68004	45.64502
	11.68023	45.64522
	11.68048	45.64556
	11.68049	45.64573
	11.68037	45.64636
	11.68039	45.64645
	11.68051	45.64653
	11.6809	45.6467
	11.68146	45.64682
	11.68176	45.64684
	11.68194	45.64689
	11.6831	45.64736
	11.68327	45.64741
	11.68359	45.64753
	11.6837	45.64759
	11.68382	45.64763
	11.68425	45.64772
	11.68442	45.64736
	11.68686	45.64787
	11.68757	45.64798
	11.68805	45.648
	11.68802	45.64827
	11.68798	45.64833
	11.68785	45.64838
	11.68769	45.64903
	11.68753	45.64913
	11.68727	45.6504
	11.68671	45.65343
	11.68663	45.65355
	11.68591	45.65606
	11.68586	45.6563
	11.68586	45.65637
	11.68594	45.65643
	11.6859	45.65658
	11.68576	45.65691
	11.68563	45.65712
	11.68555	45.65729
	11.68552	45.65744
	11.6854	45.65763
	11.68525	45.65798
	11.6851	45.65828
	11.68449	45.65914
	11.68386	45.66045
	11.68317	45.66215
	11.68439	45.66234
	11.68474	45.66237
	11.68495	45.66236
	11.68509	45.66231
	11.68535	45.66215
	11.68695	45.66092
	11.68704	45.66088
	11.68736	45.66094
	11.68743	45.66087
	11.68793	45.66004
	11.68801	45.65984
	11.68816	45.65985
	11.68821	45.65981
	11.68839	45.65972
	11.68947	45.65943
	11.68966	45.65941
	11.69009	45.65944
	11.69104	45.65955
	11.69113	45.65955
	11.69117	45.6595
	11.69125	45.65919
	11.69139	45.65894
	11.69192	45.65927
	11.69271	45.6595
	11.69291	45.65985
	11.69366	45.66002
	11.69582	45.65864
	11.69638	45.65887
	11.69653	45.65895
	11.69673	45.65908
	11.69716	45.65947
	11.69884	45.66062
	11.69953	45.66106
	11.70039	45.66163
	11.70044	45.66168
	11.70097	45.66199
	11.7002	45.66248
	11.6978	45.66387
	11.69823	45.66401
	11.70074	45.66469
	11.70221	45.66502
	11.7044	45.66562
	11.70504	45.66606
	11.70576	45.66652
	11.70637	45.66697
	11.70709	45.66726
	11.70875	45.66776
	11.70928	45.66784
	11.7101	45.66788
	11.71025	45.66787
	11.71037	45.66775
	11.7105	45.66772
	11.71074	45.66776
	11.71057	45.66817
	11.71048	45.66829
	11.71045	45.66869
	11.71051	45.66897
	11.71086	45.66957
	11.71083	45.67007
	11.7108	45.67027
	11.71075	45.67044
	11.71053	45.67086
	11.71025	45.67133
	11.71015	45.67157
	11.71023	45.67174
	11.7101	45.672
	11.70996	45.6724
	11.7098	45.67309
	11.70968	45.67343
	11.70929	45.67354
	11.70907	45.67366
	11.70899	45.67381
	11.70896	45.67409
	11.70873	45.67428
	11.70838	45.67441
	11.70831	45.67458
	11.70856	45.67518
	11.70855	45.67567
	11.70845	45.67631
	11.70827	45.67677
	11.70768	45.67732
	11.7068	45.6779
	11.7067	45.67816
	11.70696	45.67856
	11.70699	45.67872
	11.70694	45.67955
	11.70647	45.68031
	11.70665	45.68035
	11.71049	45.68078
	11.71374	45.68136
	11.71464	45.6813
	11.71491	45.68125
	11.71552	45.6813
	11.71778	45.68119
	11.71924	45.6811
	11.72106	45.68086
	11.72252	45.68058
	11.72378	45.67836
	11.72387	45.67833
	11.72429	45.67826
	11.72456	45.67824
	11.72952	45.67765
	11.73086	45.67745
	11.73319	45.67905
	11.73159	45.68138
	11.73142	45.68141
	11.73195	45.68155
	11.73258	45.68167
	11.73329	45.6818
	11.73402	45.68189
	11.73472	45.68192
	11.73598	45.6819
	11.73708	45.68197
	11.73754	45.68194
	11.73782	45.68189
	11.738	45.68188
	11.74018	45.68183
	11.74022	45.68178
	11.74027	45.68183
	11.74188	45.68172
	11.74549	45.68153
	11.75066	45.68139
	11.75167	45.68139
	11.75235	45.68136
	11.75286	45.68129
	11.75372	45.68115
	11.75403	45.68108
	11.75537	45.68066
	11.7558	45.68051
	11.75643	45.68027
	11.75676	45.68011
	11.75729	45.6799
	11.75736	45.67988
	11.75779	45.67985
	11.75917	45.68003
	11.76123	45.68018
	11.76441	45.68058
	11.76616	45.68078
	11.7712	45.68149
	11.77357	45.68188
	11.7739	45.68195
	11.77627	45.68041
	11.7762	45.68029
	11.77868	45.68068
	11.77942	45.68062
	11.78057	45.68086
	11.78266	45.6814
	11.78461	45.68167
	11.78627	45.68184
	11.78783	45.68208
	11.79034	45.68245
	11.79064	45.68248
	11.79079	45.68251
	11.79297	45.68269
	11.79408	45.68286
	11.79575	45.68111
	11.79684	45.6811
	11.7979	45.68114
	11.79829	45.68117
	11.79871	45.68122
	11.79915	45.68129
	11.79933	45.68133
	11.79977	45.68145
	11.79984	45.68146
	11.80164	45.682
	11.80286	45.68233
	11.80488	45.68259
	11.80577	45.68267
	11.80622	45.68273
	11.80792	45.68499
	11.80677	45.68586
	11.80759	45.68694
	11.80778	45.68696
	11.80906	45.68715
	11.81028	45.68731
	11.81044	45.68734
	11.81075	45.68737
	11.81135	45.68747
	11.81187	45.68763
	11.81269	45.68783
	11.8131	45.68789
	11.81391	45.68806
	11.8145	45.68815
	11.81495	45.68825
	11.81524	45.6883
	11.81536	45.68831
	11.81542	45.68826
	11.81587	45.688
	11.81618	45.68788
	11.81749	45.68721
	11.81749	45.6872
	11.81907	45.6864
	11.81984	45.68608
	11.82001	45.68603
	11.82021	45.68581
	11.82304	45.6857
	11.82306	45.68645
	11.82358	45.68616
	11.82432	45.68591
	11.82474	45.68378
	11.82494	45.68364
	11.82522	45.68349
	11.82625	45.68302
	11.82716	45.68285
	11.82755	45.68287
	11.82971	45.68314
	11.83004	45.68283
	11.83118	45.68199
	11.83278	45.68121
	11.83655	45.67947
	11.83931	45.67827
	11.84099	45.6769
	11.83973	45.68126
	11.83956	45.6815
	11.83921	45.68308
	11.8409	45.68336
	11.84184	45.68353
	11.8453	45.6818
	11.84626	45.68123
	11.84768	45.68047
	11.84839	45.68004
	11.84849	45.67999
	11.84887	45.67975
	11.8492	45.67957
	11.84993	45.67922
	11.85047	45.6789
	11.85091	45.67862
	11.85202	45.67803
	11.85225	45.67789
	11.85247	45.6778
	11.85286	45.67759
	11.85325	45.6774
	11.85413	45.6769
	11.85489	45.67652
	11.85628	45.67577
	11.85763	45.67507
	11.85858	45.67456
	11.8589	45.67437
	11.85971	45.67395
	11.86046	45.67352
	11.86093	45.67329
	11.86106	45.67321
	11.86112	45.67312
	11.86146	45.67296
	11.8626	45.67235
	11.86337	45.6719
	11.86484	45.67109
	11.86508	45.67091
	11.86543	45.6707
	11.86567	45.67148
	11.8658	45.67162
	11.86626	45.67196
	11.86656	45.67213
	11.86657	45.67212
	11.86687	45.6723
	11.86713	45.67241
	11.86752	45.67252
	11.86803	45.6726
	11.87334	45.67314
	11.87449	45.67331
	11.87468	45.67333
	11.87539	45.67336
	11.87689	45.67278
	11.87724	45.67242
	11.87734	45.67223
	11.87947	45.67089
	11.88012	45.66866
	11.88058	45.66679
	11.8803	45.66633
	11.88088	45.66632
	11.88149	45.6638
	11.88174	45.66283
	11.88277	45.66298
	11.88293	45.66298
	11.88306	45.66295
	11.88312	45.6629
	11.88356	45.66154
	11.88387	45.66158
	11.8849	45.66145
	11.88502	45.66141
	11.88621	45.66002
	11.88631	45.65961
	11.88685	45.65707
	11.88556	45.65517
	11.88566	45.655
	11.88582	45.65463
	11.88605	45.65384
	11.88607	45.65373
	11.88617	45.65367
	11.88625	45.65344
	11.8864	45.65239
	11.88653	45.65161
	11.88659	45.65095
	11.88657	45.65062
	11.88688	45.64953
	11.88699	45.6492
	11.88709	45.649
	11.88708	45.649
	11.88717	45.64617
	11.88735	45.64601
	11.88747	45.64569
	11.88774	45.64514
	11.88817	45.64444
	11.88822	45.64438
	11.8882	45.64385
	11.88826	45.64347
	11.88965	45.63804
	11.8898	45.6375
	11.88995	45.63708
	11.8905	45.63589
	11.8906	45.63561
	11.89127	45.63337
	11.89152	45.63273
	11.88949	45.6331
	11.88946	45.63292
	11.88932	45.63262
	11.88927	45.63237
	11.8894	45.63218
	11.88953	45.63194
	11.8904	45.6305
	11.8902	45.63041
	11.89007	45.63037
	11.89009	45.63022
	11.89021	45.62993
	11.89051	45.62959
	11.89069	45.62941
	11.89084	45.62934
	11.89102	45.62934
	11.89122	45.62932
	11.8917	45.62907
	11.89217	45.62862
	11.89242	45.62833
	11.89197	45.62822
	11.89132	45.62796
	11.89085	45.62774
	11.89194	45.62656
	11.89163	45.62644
	11.88996	45.62586
	11.89009	45.62571
	11.89038	45.62558
	11.89097	45.6246
	11.89166	45.62355
	11.8929	45.62158
	11.89335	45.6209
	11.89347	45.62069
	11.89354	45.62038
	11.8936	45.62038
	11.89369	45.62036
	11.89379	45.62027
	11.89407	45.61956
	11.89435	45.61951
	11.89547	45.61752
	11.89661	45.61561
	11.89801	45.61328
	11.89821	45.61306
	11.89853	45.61328
	11.89886	45.61353
	11.89895	45.61362
	11.89905	45.6138
	11.89915	45.61411
	11.89931	45.61409
	11.89936	45.61411
	11.89946	45.61423
	11.89961	45.61434
	11.90119	45.61685
	11.90124	45.61701
	11.90126	45.61847
	11.90113	45.61863
	11.90108	45.61875
	11.90095	45.61921
	11.9009	45.6195
	11.90092	45.61955
	11.90099	45.61964
	11.90101	45.61971
	11.901	45.61982
	11.90071	45.6207
	11.90069	45.62137
	11.90061	45.62207
	11.90056	45.62226
	11.90036	45.6226
	11.90015	45.62315
	11.90012	45.62343
	11.9001	45.62414
	11.90003	45.6243
	11.89995	45.62448
	11.89986	45.62463
	11.89959	45.62503
	11.89935	45.62535
	11.89916	45.62552
	11.89862	45.62588
	11.89846	45.62598
	11.89815	45.62611
	11.89796	45.62624
	11.89788	45.62631
	11.89774	45.62648
	11.89769	45.62656
	11.89769	45.62662
	11.89773	45.62676
	11.89843	45.62689
	11.89833	45.62743
	11.89853	45.62747
	11.89867	45.62756
	11.89879	45.62768
	11.90009	45.6282
	11.90037	45.6283
	11.90056	45.62834
	11.90084	45.62836
	11.90127	45.62832
	11.90142	45.62834
	11.90153	45.62837
	11.90147	45.62818
	11.90147	45.62813
	11.90159	45.62794
	11.90166	45.62777
	11.90174	45.62767
	11.90199	45.62763
	11.90241	45.62766
	11.90267	45.62766
	11.90277	45.62742
	11.90283	45.62733
	11.90298	45.62723
	11.90307	45.62721
	11.90318	45.62721
	11.9033	45.62723
	11.90348	45.62728
	11.90362	45.62727
	11.90376	45.62728
	11.90382	45.62732
	11.90386	45.62732
	11.90395	45.62729
	11.90407	45.62727
	11.90431	45.62716
	11.90449	45.62704
	11.90504	45.62663
	11.90554	45.62628
	11.90576	45.6261
	11.90603	45.62591
	11.90608	45.6259
	11.9062	45.62591
	11.90633	45.62598
	11.9065	45.62611
	11.90661	45.62616
	11.90671	45.62619
	11.90677	45.62619
	11.90696	45.62613
	11.90715	45.62603
	11.90745	45.62586
	11.90764	45.62573
	11.90786	45.6256
	11.90793	45.62553
	11.90796	45.62548
	11.90795	45.62538
	11.90749	45.62511
	11.90744	45.62507
	11.9074	45.62501
	11.9074	45.62494
	11.90742	45.62488
	11.90754	45.62472
	11.90771	45.62456
	11.90785	45.62446
	11.90808	45.62438
	11.90843	45.62429
	11.90881	45.62417
	11.90969	45.6238
	11.91093	45.62308
	11.91098	45.62301
	11.91099	45.62293
	11.9109	45.62279
	11.91077	45.62265
	11.91073	45.62258
	11.91072	45.62238
	11.91074	45.62227
	11.91077	45.62217
	11.91111	45.6219
	11.91117	45.62183
	11.91119	45.62176
	11.91118	45.62141
	11.91121	45.62134
	11.91136	45.62117
	11.91137	45.62112
	11.91132	45.62094
	11.91132	45.62088
	11.91135	45.62081
	11.91139	45.62075
	11.91145	45.62071
	11.91154	45.62068
	11.91178	45.62065
	11.91185	45.62062
	11.91189	45.62055
	11.91187	45.6205
	11.91174	45.62033
	11.91171	45.62026
	11.91172	45.6202
	11.91178	45.62017
	11.91212	45.62015
	11.91225	45.62011
	11.91255	45.61985
	11.91271	45.61968
	11.91281	45.61964
	11.91301	45.6196
	11.91315	45.61951
	11.91317	45.61946
	11.91317	45.6193
	11.9132	45.61925
	11.91331	45.61923
	11.91347	45.61922
	11.91375	45.61915
	11.91387	45.61915
	11.91397	45.61917
	11.91417	45.61924
	11.91439	45.6193
	11.91454	45.61932
	11.91466	45.61931
	11.91571	45.61898
	11.91631	45.61885
	11.91677	45.61877
	11.91695	45.61872
	11.91705	45.61871
	11.91716	45.61867
	11.91711	45.61894
	11.91688	45.61959
	11.91689	45.61974
	11.91693	45.61987
	11.91703	45.62009
	11.91706	45.6202
	11.91727	45.62059
	11.91753	45.62119
	11.91777	45.62182
	11.91877	45.62163
	11.91907	45.62155
	11.9196	45.62146
	11.92087	45.62126
	11.92125	45.62123
	11.92201	45.62114
	11.9224	45.62107
	11.92272	45.62096
	11.92309	45.62085
	11.92332	45.62076
	11.9245	45.62024
	11.92531	45.6199
	11.9261	45.61953
	11.92697	45.61918
	11.92705	45.61914
	11.92719	45.61902
	11.92739	45.61892
	11.92785	45.61882
	11.92873	45.61839
	11.9287	45.6177
	11.9289	45.61767
	11.92927	45.61746
	11.92959	45.61736
	11.93003	45.61731
	11.93105	45.61713
	11.93145	45.61707
	11.93222	45.61692
	11.9325	45.61689
	11.93257	45.61687
	11.9326	45.61683
	11.93259	45.6167
	11.93243	45.61574
	11.9324	45.61563
	11.93223	45.61545
	11.9322	45.61535
	11.93221	45.61522
	11.93231	45.61509
	11.93253	45.6149
	11.93275	45.61474
	11.93294	45.6147
	11.93311	45.61469
	11.93337	45.61473
	11.9335	45.61477
	11.93372	45.61481
	11.93386	45.61481
	11.93402	45.61486
	11.93451	45.61506
	11.93474	45.61506
	11.93536	45.61497
	11.93559	45.61497
	11.93596	45.61506
	11.93644	45.6152
	11.93662	45.61523
	11.93688	45.61522
	11.93701	45.61518
	11.93715	45.61512
	11.93732	45.61471
	11.93743	45.61461
	11.93751	45.61456
	11.93775	45.61449
	11.93803	45.61443
	11.93832	45.6144
	11.93873	45.61432
	11.93902	45.61422
	11.93924	45.61412
	11.93942	45.61406
	11.93998	45.61393
	11.94104	45.6138
	11.94123	45.61377
	11.94142	45.61372
	11.94147	45.61367
	11.94143	45.61357
	11.94133	45.61343
	11.94133	45.61329
	11.94142	45.6132
	11.9416	45.6131
	11.94179	45.61306
	11.94198	45.61305
	11.94244	45.61317
	11.94257	45.61317
	11.94322	45.61275
	11.94332	45.61267
	11.94337	45.61259
	11.94333	45.61246
	11.94325	45.6123
	11.94325	45.61218
	11.94331	45.61213
	11.94461	45.61211
	11.94497	45.61209
	11.94508	45.61207
	11.94513	45.61214
	11.94511	45.61259
	11.94492	45.61336
	11.94476	45.61356
	11.94468	45.61363
	11.94463	45.61366
	11.94447	45.61369
	11.94443	45.61379
	11.9443	45.61395
	11.94433	45.61407
	11.94438	45.61408
	11.94492	45.61405
	11.94533	45.61404
	11.94601	45.61405
	11.94568	45.61423
	11.94536	45.61438
	11.94538	45.61522
	11.94542	45.61563
	11.94615	45.61558
	11.9484	45.61537
	11.9484	45.61511
	11.94828	45.61389
	11.94818	45.61367
	11.94814	45.61315
	11.94959	45.61278
	11.94967	45.61275
	11.95131	45.61232
	11.95154	45.61225
	11.9521	45.61211
	11.95314	45.61178
	11.95334	45.61173
	11.95499	45.61122
	11.95644	45.61079
	11.95894	45.60995
	11.96377	45.60857
	11.96486	45.60824
	11.96512	45.60817
	11.96534	45.60815
	11.96532	45.60828
	11.96568	45.60854
	11.96588	45.60871
	11.96603	45.60881
	11.96605	45.60884
	11.96624	45.60899
	11.96676	45.60937
	11.96655	45.60944
	11.96636	45.60956
	11.96618	45.60974
	11.96607	45.60995
	11.96602	45.61015
	11.96594	45.61086
	11.96579	45.61276
	11.96834	45.61362
	11.96948	45.61398
	11.97105	45.61445
	11.97172	45.61398
	11.97226	45.61453
	11.97265	45.61465
	11.97348	45.61403
	11.97373	45.61382
	11.97441	45.61431
	11.97459	45.61446
	11.97518	45.61486
	11.97551	45.61511
	11.97573	45.61525
	11.97651	45.61582
	11.9766	45.61592
	11.97674	45.61644
	11.97676	45.61664
	11.97684	45.61709
	11.97692	45.61744
	11.97697	45.61756
	11.97743	45.61822
	11.97744	45.61831
	11.9776	45.61864
	11.97769	45.61878
	11.97782	45.61892
	11.97777	45.61919
	11.97794	45.61936
	11.97828	45.6196
	11.97884	45.61982
	11.97904	45.61998
	11.97915	45.62016
	11.97931	45.62032
	11.98011	45.62062
	11.98085	45.62104
	11.98089	45.62122
	11.98065	45.6223
	11.98061	45.62239
	11.98061	45.62306
	11.98069	45.62315
	11.98072	45.62315
	11.98079	45.62308
	11.98084	45.62306
	11.98088	45.62306
	11.981	45.62323
	11.98106	45.62326
	11.98111	45.62326
	11.98116	45.62324
	11.98127	45.62317
	11.98131	45.62317
	11.98141	45.62322
	11.98176	45.6232
	11.98189	45.62317
	11.98198	45.62318
	11.98211	45.62323
	11.98216	45.62323
	11.98231	45.6232
	11.98246	45.62311
	11.98262	45.62296
	11.98277	45.62285
	11.98284	45.62283
	11.98294	45.62285
	11.98308	45.6229
	11.98323	45.62292
	11.98379	45.62276
	11.98405	45.62278
	11.98437	45.62286
	11.98472	45.62287
	11.98684	45.62276
	11.98748	45.62276
	11.98792	45.62268
	11.98842	45.62268
	11.98854	45.62264
	11.98864	45.62264
	11.98876	45.62267
	11.98898	45.62276
	11.98916	45.62279
	11.98927	45.62293
	11.99098	45.62293
	11.99123	45.62272
	11.9913	45.6227
	11.9915	45.62268
	11.99182	45.62259
	11.99196	45.62259
	11.99243	45.62269
	11.99258	45.62271
	11.99268	45.62268
	11.99281	45.6226
	11.99288	45.6226
	11.99301	45.62267
	11.99318	45.62269
	11.99359	45.62262
	11.99402	45.62261
	11.99456	45.62263
	11.9948	45.62271
	11.99487	45.62271
	11.99527	45.62259
	11.9955	45.62261
	11.99571	45.62265
	11.99592	45.62265
	11.99667	45.62256
	11.99682	45.62252
	11.99696	45.62251
	11.99703	45.62252
	11.99716	45.62259
	11.99718	45.62271
	11.99727	45.62295
	11.99764	45.62287
	11.99785	45.62293
	11.99797	45.62294
	11.99832	45.62284
	11.99859	45.62273
	11.99904	45.62257
	11.9993	45.62245
	11.99957	45.62237
	11.99988	45.62234
	12.00014	45.62238
	12.00054	45.62255
	12.00065	45.62256
	12.00073	45.62251
	12.00079	45.62232
	12.00091	45.62229
	12.00114	45.62232
	12.00149	45.6224
	12.00161	45.62246
	12.0017	45.62256
	12.00176	45.62267
	12.00193	45.62279
	12.00207	45.62291
	12.00219	45.62297
	12.00238	45.62298
	12.00265	45.62303
	12.00288	45.62311
	12.003	45.62314
	12.00357	45.62302
	12.00364	45.62293
	12.00368	45.6228
	12.00377	45.62273
	12.00398	45.62262
	12.0041	45.62259
	12.00419	45.62261
	12.00424	45.62268
	12.00429	45.62291
	12.00436	45.62295
	12.00449	45.62297
	12.00463	45.62289
	12.00482	45.62241
	12.00489	45.62231
	12.00498	45.62228
	12.00518	45.62229
	12.00532	45.62228
	12.00551	45.62217
	12.00587	45.62185
	12.00614	45.62168
	12.00632	45.62151
	12.00648	45.62143
	12.00664	45.62141
	12.00667	45.62149
	12.00643	45.6219
	12.00639	45.62218
	12.00638	45.62248
	12.00623	45.62262
	12.00608	45.6228
	12.00604	45.62292
	12.00605	45.623
	12.00623	45.6231
	12.00708	45.62343
	12.00716	45.62348
	12.00719	45.62353
	12.00717	45.62378
	12.0071	45.62404
	12.00707	45.62407
	12.00704	45.62421
	12.00655	45.6246
	12.00645	45.62472
	12.00638	45.62499
	12.00624	45.62528
	12.00603	45.62553
	12.0052	45.62572
	12.00474	45.6262
	12.00422	45.62683
	12.00417	45.62731
	12.00411	45.62935
	12.00403	45.63083
	12.00405	45.63138
	12.00409	45.6318
	12.00467	45.6336
	12.00485	45.63473
	12.00484	45.63504
	12.00492	45.63552
	12.00536	45.63657
	12.00551	45.637
	12.00593	45.6376
	12.00661	45.63848
	12.00718	45.63919
	12.00724	45.63935
	12.00719	45.63971
	12.00698	45.64035
	12.00582	45.64336
	12.00694	45.64346
	12.00818	45.64352
	12.00854	45.64288
	12.00898	45.6422
	12.00976	45.64239
	12.01075	45.64265
	12.01022	45.64363
	12.01205	45.64385
	12.01198	45.64399
	12.01242	45.64394
	12.0132	45.6438
	12.01374	45.64385
	12.01449	45.64386
	12.01493	45.64382
	12.01494	45.64396
	12.0152	45.64397
	12.01521	45.64526
	12.01596	45.64513
	12.01625	45.6461
	12.01668	45.64572
	12.01734	45.6454
	12.0173	45.64528
	12.01712	45.64507
	12.01711	45.64504
	12.01755	45.64503
	12.01793	45.64497
	12.01845	45.64491
	12.01918	45.64489
	12.01998	45.6449
	12.0202	45.64493
	12.02035	45.64511
	12.02045	45.64539
	12.02052	45.64585
	12.0207	45.64611
	12.02112	45.64652
	12.02135	45.64682
	12.02137	45.64694
	12.02185	45.64704
	12.02295	45.64733
	12.02417	45.64762
	12.02513	45.6477
	12.02646	45.64787
	12.02826	45.64807
	12.02916	45.64837
	12.02965	45.64828
	12.03032	45.64813
	12.0308	45.64808
	12.03121	45.648
	12.03261	45.64732
	12.03291	45.64721
	12.03325	45.64715
	12.0341	45.64712
	12.03487	45.64693
	12.03595	45.6466
	12.03659	45.64637
	12.03724	45.64628
	12.03756	45.64578
	12.03774	45.6457
	12.03829	45.64567
	12.03998	45.64571
	12.04074	45.64581
	12.0413	45.64564
	12.04293	45.64559
	12.04397	45.64543
	12.04462	45.64528
	12.04529	45.64526
	12.04604	45.64529
	12.04731	45.64514
	12.04842	45.64514
	12.04905	45.64503
	12.04951	45.6451
	12.05062	45.64532
	12.05087	45.645
	12.05185	45.64382
	12.05241	45.64381
	12.05417	45.64386
	12.05487	45.64387
	12.05498	45.64231
	12.05656	45.64122
	12.05639	45.64107
	12.05614	45.64088
	12.0562	45.64072
	12.05627	45.64061
	12.05624	45.64053
	12.05613	45.64038
	12.05607	45.64027
	12.05606	45.64012
	12.05616	45.64
	12.05689	45.63967
	12.05718	45.63944
	12.0578	45.63908
	12.05825	45.63889
	12.05894	45.63863
	12.0599	45.63844
	12.06029	45.63844
	12.0604	45.63845
	12.06106	45.63843
	12.06158	45.63843
	12.06232	45.63835
	12.06277	45.63826
	12.06358	45.63849
	12.06373	45.63847
	12.06426	45.63814
	12.06476	45.63803
	12.0652	45.63795
	12.0656	45.63796
	12.06689	45.63767
	12.06736	45.63758
	12.06796	45.63756
	12.06885	45.63759
	12.06981	45.63806
	12.07081	45.63826
	12.07124	45.63858
	12.07133	45.6389
	12.07164	45.63905
	12.0723	45.63925
	12.07262	45.641
	12.07379	45.64154
	12.0739	45.64138
	12.07379	45.64131
	12.07375	45.64109
	12.07389	45.64066
	12.07523	45.6382
	12.07622	45.63627
	12.07669	45.63504
	12.07536	45.63448
	12.07532	45.63436
	12.07522	45.63316
	12.07552	45.63191
	12.07754	45.63058
	12.07753	45.63058
	12.07759	45.62862
	12.07765	45.6273
	12.07746	45.62642
	12.07785	45.62645
	12.07916	45.62634
	12.07888	45.62531
	12.08004	45.62522
	12.07991	45.62375
	12.0812	45.6236
	12.08244	45.62369
	12.08437	45.62336
	12.08678	45.62342
	12.08722	45.62362
	12.0874	45.62333
	12.08815	45.62123
	12.08699	45.62126
	12.08596	45.61997
	12.08416	45.61994
	12.08407	45.61868
	12.08347	45.61867
	12.08364	45.61765
	12.08474	45.61781
	12.08486	45.61705
	12.08506	45.61649
	12.08558	45.61663
	12.08585	45.61686
	12.08639	45.61713
	12.08708	45.61729
	12.08849	45.61717
	12.08841	45.61577
	12.08815	45.61234
	12.08836	45.61167
	12.08879	45.6111
	12.08916	45.61086
	12.08933	45.6106
	12.08954	45.60995
	12.08952	45.60901
	12.08903	45.60901
	12.08798	45.60891
	12.08721	45.60889
	12.08716	45.60759
	12.0871	45.60712
	12.08682	45.60663
	12.08636	45.60642
	12.08606	45.60638
	12.08562	45.60602
	12.08542	45.60592
	12.08545	45.60566
	12.08624	45.60564
	12.08617	45.6036
	12.08754	45.60322
	12.08765	45.60238
	12.0877	45.60152
	12.088	45.60149
	12.08791	45.59939
	12.08952	45.59936
	12.09195	45.59954
	12.09198	45.59928
	12.09199	45.59846
	12.09271	45.59836
	12.09276	45.59809
	12.09246	45.59404
	12.0924	45.59344
	12.09227	45.59303
	12.09214	45.59286
	12.09214	45.59271
	12.09096	45.59229
	12.0902	45.59217
	12.08982	45.59219
	12.08951	45.59229
	12.08874	45.59269
	12.08867	45.58925
	12.08879	45.58889
	12.08876	45.58776
	12.08871	45.58682
	12.08828	45.58692
	12.08825	45.58611
	12.08798	45.58616
	12.08772	45.58619
	12.08715	45.58606
	12.087	45.58608
	12.08635	45.58631
	12.08614	45.58634
	12.08564	45.58703
	12.08539	45.58715
	12.08511	45.58716
	12.08484	45.58715
	12.08425	45.5871
	12.08414	45.58618
	12.08398	45.58608
	12.08393	45.58483
	12.08378	45.5843
	12.08373	45.58315
	12.08347	45.58189
	12.08341	45.58172
	12.08327	45.58166
	12.08315	45.58057
	12.07754	45.58082
	12.07737	45.58088
	12.07727	45.58096
	12.07664	45.58122
	12.0768	45.58226
	12.07642	45.58245
	12.07596	45.58114
	12.0757	45.58076
	12.07546	45.58088
	12.07396	45.58122
	12.07353	45.5813
	12.0725	45.58126
	12.07232	45.57861
	12.07238	45.57859
	12.07237	45.57798
	12.07316	45.57798
	12.07308	45.57672
	12.07208	45.57687
	12.07205	45.57723
	12.06937	45.57737
	12.06508	45.57755
	12.0647	45.57739
	12.06267	45.57753
	12.06264	45.57745
	12.06268	45.57731
	12.06264	45.5772
	12.0625	45.57707
	12.06238	45.57703
	12.06223	45.57703
	12.06205	45.57691
	12.06217	45.57672
	12.06229	45.57659
	12.06232	45.57652
	12.06211	45.57628
	12.06209	45.57619
	12.06222	45.57604
	12.06213	45.57583
	12.06197	45.5756
	12.06167	45.57533
	12.06172	45.57511
	12.06176	45.57508
	12.06194	45.57507
	12.0622	45.57509
	12.06226	45.57508
	12.06234	45.57503
	12.06234	45.57497
	12.06224	45.57487
	12.06195	45.57478
	12.06192	45.57476
	12.06189	45.57471
	12.06191	45.57466
	12.06204	45.57459
	12.0622	45.57455
	12.06239	45.57458
	12.06248	45.57465
	12.06259	45.57478
	12.06263	45.57479
	12.0628	45.57473
	12.06303	45.57457
	12.06316	45.57445
	12.06317	45.57438
	12.06315	45.57436
	12.06303	45.57436
	12.06293	45.57439
	12.06288	45.57438
	12.06287	45.57434
	12.06293	45.57427
	12.06295	45.57421
	12.0629	45.57417
	12.0626	45.5741
	12.06245	45.57409
	12.06232	45.57412
	12.06216	45.57422
	12.06203	45.57428
	12.06193	45.57429
	12.0617	45.57424
	12.06158	45.57423
	12.06132	45.57418
	12.06174	45.57379
	12.06177	45.57367
	12.06159	45.57355
	12.06152	45.5734
	12.06131	45.5733
	12.06127	45.57316
	12.06145	45.57299
	12.0615	45.57266
	12.06157	45.57258
	12.06189	45.57242
	12.06197	45.57219
	12.06176	45.57218
	12.06161	45.57219
	12.06142	45.57221
	12.06121	45.57225
	12.06082	45.57224
	12.06038	45.57225
	12.05917	45.57233
	12.05873	45.57234
	12.05722	45.57242
	12.05691	45.57241
	12.04884	45.57279
	12.04867	45.57035
	12.0462	45.57048
	12.04071	45.57062
	12.03598	45.57085
	12.03592	45.56972
	12.03469	45.56977
	12.03466	45.56907
	12.03441	45.56505
	12.03543	45.56498
	12.03632	45.56489
	12.03622	45.56365
	12.03542	45.5637
	12.03508	45.56392
	12.03436	45.56427
	12.0343	45.56429
	12.03426	45.56428
	12.03422	45.56424
	12.03415	45.56385
	12.03401	45.5638
	12.03401	45.56288
	12.03384	45.5629
	12.0338	45.56278
	12.0335	45.55954
	12.03318	45.55669
	12.03295	45.55481
	12.03292	45.55379
	12.03241	45.54711
	12.03232	45.54628
	12.03166	45.53804
	12.03156	45.53705
	12.0315	45.53525
	12.03153	45.53515
	12.032	45.53461
	12.03158	45.5344
	12.03179	45.53426
	12.03192	45.53415
	12.03194	45.53399
	12.03157	45.53378
	12.03129	45.53338
	12.0309	45.53243
	12.03028	45.53084
	12.02992	45.52984
	12.02867	45.52655
	12.02828	45.52548
	12.02784	45.52439
	12.02725	45.5227
	12.02634	45.52026
	12.02623	45.51974
	12.02611	45.51956
	12.02493	45.51985
	12.02439	45.5199
	12.02466	45.52072
	12.02494	45.52166
	12.02549	45.52319
	12.02523	45.52319
	12.02501	45.52321
	12.02439	45.5234
	12.02432	45.52345
	12.02449	45.52388
	12.02451	45.5241
	12.02442	45.52419
	12.02445	45.52426
	12.0245	45.52456
	12.02451	45.5248
	12.02448	45.52488
	12.02407	45.52491
	12.02401	45.52483
	12.02401	45.5246
	12.02384	45.52432
	12.02368	45.52433
	12.02348	45.52445
	12.02323	45.52445
	12.02323	45.52458
	12.02317	45.52469
	12.02295	45.52484
	12.02283	45.52488
	12.02265	45.52488
	12.02201	45.52511
	12.02177	45.52522
	12.02168	45.52522
	12.02164	45.5252
	12.02161	45.5251
	12.02151	45.52505
	12.02139	45.52506
	12.02127	45.52524
	12.02122	45.52537
	12.0212	45.5255
	12.02109	45.52553
	12.021	45.52551
	12.02072	45.52541
	12.02056	45.52546
	12.02028	45.52563
	12.02029	45.52573
	12.02037	45.52584
	12.02016	45.52599
	12.0199	45.52601
	12.01974	45.52597
	12.01954	45.5259
	12.01934	45.52588
	12.01913	45.52591
	12.01915	45.52626
	12.01992	45.52829
	12.01841	45.52868
	12.01764	45.52883
	12.01737	45.5287
	12.0173	45.52827
	12.01672	45.52828
	12.01664	45.52839
	12.01664	45.52871
	12.01606	45.52887
	12.01602	45.52897
	12.01627	45.52949
	12.01573	45.52961
	12.01552	45.5297
	12.0157	45.53
	12.0151	45.53012
	12.01496	45.53036
	12.01484	45.53053
	12.01477	45.53056
	12.01466	45.53055
	12.01462	45.5305
	12.01452	45.53024
	12.01447	45.53019
	12.01438	45.53021
	12.01433	45.53024
	12.01434	45.53044
	12.01433	45.5305
	12.01407	45.53058
	12.01363	45.53069
	12.01352	45.5307
	12.01344	45.5308
	12.01342	45.53089
	12.01336	45.53102
	12.0131	45.5311
	12.01291	45.53098
	12.01281	45.53096
	12.0127	45.53099
	12.01261	45.53114
	12.01249	45.53126
	12.01223	45.5313
	12.01194	45.53129
	12.01155	45.53148
	12.01133	45.53154
	12.01124	45.5315
	12.01095	45.53153
	12.01064	45.53171
	12.01048	45.53176
	12.01028	45.53178
	12.01022	45.53169
	12.01008	45.53157
	12.00973	45.53159
	12.00965	45.53173
	12.00954	45.53176
	12.00931	45.53179
	12.00914	45.53191
	12.00906	45.53194
	12.00894	45.53192
	12.00876	45.53182
	12.00863	45.53177
	12.00845	45.53178
	12.00829	45.53186
	12.00817	45.53197
	12.008	45.532
	12.00789	45.53192
	12.00768	45.53155
	12.00601	45.52668
	12.00558	45.52674
	12.00335	45.52087
	12.00198	45.51733
	11.99751	45.51805
	11.99523	45.51186
	11.99594	45.51173
	11.99681	45.51164
	11.99811	45.51141
	11.9982	45.51141
	11.9983	45.51143
	11.99852	45.5115
	11.99867	45.51153
	11.99886	45.51151
	11.99894	45.51148
	11.99916	45.51136
	11.99992	45.51101
	12.00002	45.51098
	12.00011	45.51097
	12.00031	45.51099
	12.00043	45.51099
	12.00057	45.51098
	12.00191	45.51075
	12.0035	45.51038
	12.00379	45.51033
	12.00396	45.51028
	12.00401	45.51025
	12.00303	45.50772
	12.00146	45.50329
	11.99954	45.49817
	11.997	45.49185
	11.99603	45.48948
	11.99485	45.48561
	11.99401	45.48374
	11.99253	45.47947
	11.99151	45.47666
	11.99017	45.47346
	11.98305	45.4748
	11.98323	45.47439
	11.98098	45.4684
	11.98068	45.46851
	11.98055	45.468
	11.98082	45.4679
	11.98014	45.46606
	11.97945	45.46406
	11.97909	45.46312
	11.97873	45.46233
	11.97853	45.46185
	11.97669	45.4611
	11.97685	45.46107
	11.97824	45.4606
	11.97954	45.46059
	11.97931	45.45941
	11.97903	45.45941
	11.97894	45.45856
	11.97918	45.45838
	11.97846	45.45634
	11.97891	45.45601
	11.97892	45.45571
	11.97921	45.45549
	11.97981	45.45455
	11.97983	45.45411
	11.98075	45.45357
	11.98095	45.45342
	11.98172	45.45321
	11.98155	45.45303
	11.98324	45.45271
	11.98355	45.45266
	11.98384	45.45266
	11.98508	45.45248
	11.98994	45.45155
	11.9907	45.45285
	11.99216	45.45337
	11.99291	45.45546
	11.99302	45.4556
	11.99443	45.45574
	11.99465	45.45585
	11.99508	45.45588
	11.99559	45.45576
	11.99585	45.4555
	11.99669	45.45538
	11.99725	45.45502
	11.99573	45.45059
	11.99792	45.45018
	11.99852	45.44999
	11.99883	45.44993
	12.00198	45.44939
	12.00205	45.44935
	12.00207	45.44932
	12.00207	45.44926
	12.00213	45.44911
	12.00255	45.44842
	12.00264	45.44815
	12.00298	45.44778
	12.00304	45.44776
	12.00496	45.4474
	12.00562	45.44764
	12.00632	45.44765
	12.00671	45.44743
	12.00728	45.44733
	12.00765	45.44715
	12.00828	45.44709
	12.00883	45.44695
	12.00985	45.44713
	12.01027	45.44702
	12.01047	45.44718
	12.01085	45.44755
	12.01104	45.44765
	12.01112	45.44767
	12.01128	45.44769
	12.01139	45.44769
	12.01152	45.44767
	12.01207	45.44754
	12.01211	45.44752
	12.01227	45.44749
	12.01244	45.44814
	12.01259	45.44835
	12.01321	45.44883
	12.01476	45.4487
	12.0159	45.44868
	12.01609	45.44929
	12.01616	45.44945
	12.01635	45.44961
	12.01643	45.44993
	12.01676	45.45032
	12.01714	45.45157
	12.01891	45.45137
	12.01929	45.4513
	12.01939	45.45127
	12.01943	45.45123
	12.01941	45.45114
	12.01945	45.45111
	12.02015	45.45093
	12.02019	45.45089
	12.02013	45.45081
	12.02014	45.45078
	12.0208	45.45022
	12.02139	45.45005
	12.02156	45.44979
	12.02192	45.44971
	12.02215	45.44949
	12.02301	45.44951
	12.02335	45.44925
	12.02367	45.44924
	12.02405	45.44911
	12.0244	45.44926
	12.02538	45.44868
	12.02613	45.44858
	12.02723	45.44898
	12.02638	45.44708
	12.0271	45.44684
	12.0263	45.44457
	12.02633	45.44424
	12.02581	45.44317
	12.02402	45.44362
	12.02313	45.4417
	12.02255	45.4415
	12.02292	45.44119
	12.02358	45.44079
	12.024	45.44061
	12.02326	45.43915
	12.02336	45.43898
	12.02324	45.4388
	12.02335	45.43849
	12.02295	45.43762
	12.02277	45.43764
	12.02253	45.43776
	12.02245	45.43766
	12.0222	45.4376
	12.02059	45.43342
	12.01952	45.42921
	12.01905	45.42746
	12.01877	45.4253
	12.01943	45.42361
	12.0192	45.42359
	12.0189	45.42373
	12.01858	45.42381
	12.01676	45.42359
	12.01598	45.42355
	12.01547	45.42376
	12.01465	45.42395
	12.01344	45.42412
	12.01295	45.42421
	12.01227	45.4245
	12.01061	45.42473
	12.00951	45.42483
	12.00836	45.42491
	12.00797	45.42482
	12.00745	45.42491
	12.00709	45.42509
	12.00653	45.42511
	12.00587	45.42519
	12.00471	45.42511
	12.00399	45.42511
	12.00338	45.42486
	12.00072	45.42406
	12.0004	45.42399
	11.99922	45.42395
	11.99887	45.42392
	11.99873	45.42394
	11.9981	45.42417
	11.99728	45.42452
	11.99693	45.42464
	11.99671	45.42469
	11.9962	45.42406
	11.9958	45.42382
	11.99528	45.42326
	11.99583	45.42309
	11.99629	45.42283
	11.99614	45.42264
	11.99588	45.42245
	11.99571	45.42191
	11.99617	45.42167
	11.99603	45.42145
	11.99566	45.42029
	11.9958	45.42007
	11.99563	45.41929
	11.99557	45.41886
	11.99554	45.41878
	11.99576	45.41865
	11.99633	45.41568
	11.99582	45.41504
	11.99578	45.41504
	11.9961	45.41495
	11.99726	45.41456
	11.99902	45.41393
	11.99911	45.41404
	12.00183	45.41345
	12.00234	45.41326
	12.003	45.41297
	12.00335	45.4127
	12.0037	45.41196
	12.00415	45.41078
	12.00432	45.41058
	12.00377	45.41039
	12.00343	45.41015
	12.00323	45.4099
	12.0025	45.40908
	12.0025	45.40896
	12.0027	45.4085
	12.00296	45.40814
	11.9927	45.40809
	11.97992	45.40784
	11.97985	45.40779
	11.97643	45.40357
	11.97552	45.40134
	11.97646	45.4011
	11.97517	45.39648
	11.97531	45.3964
	11.97728	45.39613
	11.97861	45.39589
	11.98179	45.39595
	11.98586	45.39595
	11.98681	45.39592
	11.98796	45.3958
	11.98852	45.39565
	11.98887	45.39543
	11.99168	45.39356
	11.99097	45.39303
	11.99053	45.39266
	11.99009	45.3922
	11.98994	45.39198
	11.98993	45.39188
	11.9902	45.39158
	11.99042	45.39147
	11.99188	45.39133
	11.99249	45.39122
	11.99236	45.39056
	11.99201	45.38984
	11.9917	45.38927
	11.99151	45.38878
	11.99294	45.38839
	11.9932	45.38825
	11.99344	45.38814
	11.99354	45.38868
	11.99453	45.38914
	11.99463	45.38899
	11.99512	45.3888
	11.99585	45.38878
	11.99623	45.38876
	11.99646	45.38873
	11.99657	45.38865
	11.99674	45.38848
	11.99696	45.38841
	11.99751	45.3883
	11.99775	45.38824
	11.99746	45.38783
	11.99714	45.38758
	11.99664	45.38714
	11.9964	45.38676
	11.99613	45.38623
	11.99589	45.3858
	11.99563	45.38553
	11.99518	45.38515
	11.99493	45.38497
	11.99458	45.38476
	11.99365	45.38308
	11.99353	45.38292
	11.99336	45.38255
	11.99276	45.38183
	11.99252	45.3814
	11.99233	45.38128
	11.99206	45.3812
	11.992	45.38114
	11.99195	45.381
	11.99195	45.38088
	11.99218	45.38079
	11.99258	45.38058
	11.99297	45.38036
	11.99315	45.38024
	11.99459	45.37947
	11.99503	45.3792
	11.99613	45.37849
	11.99628	45.37793
	11.99636	45.37781
	11.9965	45.37771
	11.99724	45.376
	11.99779	45.37578
	11.99837	45.37557
	11.99912	45.37532
	11.99975	45.37513
	12.00021	45.37502
	12.00047	45.37498
	12.00077	45.37495
	12.00147	45.37472
	12.00238	45.37449
	12.00525	45.37395
	12.0053	45.37376
	12.00544	45.37347
	12.00552	45.37334
	12.00577	45.37299
	12.00613	45.37261
	12.00623	45.37252
	12.00675	45.37215
	12.00732	45.37193
	12.00747	45.37168
	12.00757	45.37157
	12.00796	45.37121
	12.00824	45.37101
	12.0086	45.37078
	12.00875	45.37066
	12.00906	45.37028
	12.00943	45.36995
	12.01051	45.36919
	12.01077	45.36904
	12.01116	45.36886
	12.01197	45.36857
	12.01204	45.36878
	12.01443	45.36947
	12.01403	45.37084
	12.01435	45.37087
	12.01488	45.37069
	12.01507	45.37054
	12.01559	45.37041
	12.01619	45.37021
	12.01696	45.37006
	12.01773	45.36979
	12.01823	45.36955
	12.01885	45.36938
	12.01907	45.3693
	12.01973	45.36862
	12.01999	45.36832
	12.02035	45.36824
	12.02111	45.36826
	12.02215	45.3682
	12.02258	45.36831
	12.02327	45.36878
	12.02355	45.36882
	12.02377	45.36874
	12.02407	45.36844
	12.02487	45.3679
	12.02518	45.36776
	12.02594	45.36778
	12.02678	45.36762
	12.02649	45.36636
	12.0264	45.36554
	12.02609	45.36478
	12.02548	45.36405
	12.02497	45.36321
	12.02474	45.36298
	12.02417	45.36214
	12.02302	45.36258
	12.02252	45.36205
	12.02373	45.3616
	12.02355	45.36131
	12.0267	45.36071
	12.02733	45.36215
	12.02868	45.36432
	12.02883	45.36499
	12.03151	45.36436
	12.02939	45.36111
	12.0313	45.36061
	12.03172	45.3604
	12.03372	45.35995
	12.03278	45.359
	12.03342	45.35852
	12.03321	45.35807
	12.03438	45.35718
	12.03395	45.3571
	12.03191	45.35677
	12.03136	45.3566
	12.03098	45.35642
	12.03068	45.35619
	12.03055	45.35605
	12.03001	45.35525
	12.03128	45.35362
	12.02906	45.35187
	12.02884	45.3519
	12.02867	45.35194
	12.02841	45.3514
	12.0273	45.35171
	12.02717	45.3517
	12.02705	45.35151
	12.02693	45.35151
	12.0268	45.3514
	12.02649	45.35119
	12.02617	45.35105
	12.02595	45.35097
	12.02561	45.3509
	12.02532	45.35088
	12.02504	45.35088
	12.02499	45.35089
	12.02456	45.35058
	12.02439	45.35052
	12.02372	45.35041
	12.02342	45.35041
	12.02288	45.35044
	12.02284	45.35041
	12.02271	45.35025
	12.02272	45.35022
	12.02286	45.35016
	12.02297	45.35006
	12.02278	45.34975
	12.02252	45.34911
	12.02236	45.34853
	12.02134	45.34692
	12.02123	45.34672
	12.01958	45.34707
	12.01949	45.34764
	12.0178	45.34738
	12.01749	45.34765
	12.01702	45.34801
	12.01422	45.34763
	12.01461	45.34482
	12.01499	45.34453
	12.01522	45.34432
	12.01535	45.34415
	12.01543	45.34409
	12.01497	45.3438
	12.01555	45.34328
	12.01491	45.34284
	12.01415	45.34354
	12.01229	45.34242
	12.01306	45.34197
	12.01362	45.34161
	12.01427	45.34108
	12.01592	45.3394
	12.01649	45.33878
	12.01684	45.33897
	12.01808	45.3396
	12.01863	45.33962
	12.01869	45.33963
	12.01968	45.33834
	12.02029	45.33789
	12.02125	45.33705
	12.02092	45.33491
	12.01985	45.33557
	12.01765	45.33684
	12.01743	45.33701
	12.01614	45.33638
	12.01483	45.33564
	12.01509	45.33542
	12.0156	45.33505
	12.01579	45.33485
	12.01614	45.33458
	12.01619	45.3345
	12.01616	45.33434
	12.01582	45.33403
	12.01571	45.33391
	12.01493	45.33343
	12.01493	45.33332
	12.015	45.33313
	12.01515	45.33296
	12.01521	45.33267
	12.0154	45.33201
	12.01556	45.33181
	12.01614	45.33125
	12.01648	45.33085
	12.01732	45.32991
	12.01737	45.32982
	12.0174	45.32973
	12.01741	45.32945
	12.01738	45.32853
	12.01731	45.32812
	12.01732	45.32786
	12.0173	45.3276
	12.0173	45.32753
	12.01735	45.32735
	12.01744	45.32717
	12.01769	45.32683
	12.0178	45.32677
	12.01789	45.32674
	12.01825	45.32668
	12.01836	45.32663
	12.01855	45.32644
	12.01873	45.3262
	12.01879	45.32607
	12.01888	45.32577
	12.01919	45.32507
	12.01932	45.32483
	12.01993	45.32404
	12.02022	45.3237
	12.02044	45.32341
	12.02098	45.3226
	12.02101	45.32241
	12.02107	45.32226
	12.02114	45.3222
	12.02152	45.32204
	12.02196	45.32182
	12.02206	45.32171
	12.02213	45.32157
	12.02223	45.3213
	12.0224	45.32115
	12.02258	45.32105
	12.02297	45.32094
	12.0232	45.32086
	12.02343	45.32068
	12.02359	45.32047
	12.02365	45.32033
	12.02393	45.32011
	12.02437	45.3198
	12.02532	45.31922
	12.02563	45.31902
	12.0259	45.31882
	12.02608	45.31872
	12.02661	45.31852
	12.02705	45.31837
	12.02717	45.31828
	12.02736	45.31804
	12.02762	45.31776
	12.02781	45.3176
	12.02812	45.31749
	12.0286	45.31729
	12.02891	45.3173
	12.02942	45.31747
	12.02968	45.31747
	12.02999	45.31743
	12.03033	45.31742
	12.03049	45.3176
	12.03056	45.31765
	12.03108	45.31767
	12.03127	45.31762
	12.03148	45.31754
	12.03196	45.31746
	12.03212	45.31734
	12.03217	45.31723
	12.03229	45.31709
	12.0326	45.31689
	12.03263	45.31669
	12.0327	45.31657
	12.03275	45.31639
	12.03283	45.31628
	12.03297	45.3162
	12.03327	45.3161
	12.03366	45.3158
	12.03386	45.31568
	12.03402	45.31551
	12.03409	45.31534
	12.03423	45.31514
	12.03427	45.31502
	12.03424	45.31455
	12.03438	45.31428
	12.0344	45.31418
	12.03438	45.31409
	12.03416	45.31372
	12.03416	45.31356
	12.03428	45.31344
	12.0345	45.31328
	12.03503	45.31359
	12.03568	45.31391
	12.0365	45.3143
	12.03755	45.31478
	12.03738	45.31508
	12.03736	45.31519
	12.03843	45.31596
	12.03873	45.3163
	12.03894	45.31662
	12.03911	45.31657
	12.03934	45.31629
	12.03946	45.31619
	12.03966	45.31609
	12.04018	45.31592
	12.04066	45.31592
	12.04092	45.31594
	12.0412	45.31582
	12.04135	45.31582
	12.04192	45.31564
	12.04268	45.3155
	12.04271	45.31531
	12.04309	45.31532
	12.04345	45.31527
	12.04372	45.31518
	12.04441	45.31506
	12.04456	45.31499
	12.0449	45.31478
	12.04521	45.31454
	12.04561	45.31407
	12.04593	45.31399
	12.04655	45.31387
	12.04677	45.31376
	12.04708	45.31339
	12.04793	45.3129
	12.04818	45.31287
	12.04881	45.31289
	12.04914	45.31301
	12.04945	45.31324
	12.04977	45.31309
	12.05021	45.31308
	12.05041	45.3131
	12.05027	45.31252
	12.05012	45.31199
	12.0508	45.3118
	12.05139	45.31167
	12.05173	45.31168
	12.05182	45.31268
	12.05192	45.31298
	12.05196	45.31323
	12.0519	45.3133
	12.05199	45.31348
	12.05238	45.31403
	12.05287	45.31456
	12.05164	45.31498
	12.05192	45.31543
	12.05209	45.31565
	12.05265	45.31618
	12.05223	45.31654
	12.05326	45.31707
	12.0541	45.31753
	12.05429	45.31724
	12.05475	45.31685
	12.05537	45.31646
	12.05588	45.31688
	12.05619	45.31705
	12.05651	45.31727
	12.05677	45.31747
	12.05693	45.31785
	12.05734	45.31821
	12.05762	45.31842
	12.05563	45.31965
	12.05632	45.32013
	12.0572	45.32065
	12.05757	45.32051
	12.05866	45.32129
	12.05832	45.32148
	12.05737	45.32217
	12.05763	45.32232
	12.05871	45.32153
	12.05943	45.32209
	12.05976	45.32233
	12.05992	45.32243
	12.0621	45.3215
	12.06363	45.32081
	12.06433	45.32051
	12.06501	45.32024
	12.06524	45.32018
	12.06559	45.32014
	12.06701	45.32001
	12.06802	45.31995
	12.06827	45.31991
	12.06887	45.31971
	12.06965	45.31942
	12.06849	45.32169
	12.06875	45.32174
	12.06912	45.32204
	12.06954	45.32247
	12.06977	45.32275
	12.06989	45.32295
	12.0705	45.32384
	12.07088	45.32459
	12.07113	45.32503
	12.07129	45.32551
	12.07154	45.32588
	12.07194	45.32629
	12.07223	45.32665
	12.07256	45.32741
	12.07296	45.32817
	12.07341	45.32853
	12.07373	45.32866
	12.07435	45.32849
	12.07465	45.32816
	12.07494	45.32803
	12.07519	45.32796
	12.07512	45.3278
	12.07512	45.32764
	12.07531	45.32752
	12.07582	45.32747
	12.07623	45.32736
	12.07722	45.32731
	12.07733	45.32734
	12.07749	45.32761
	12.07778	45.32864
	12.0784	45.33071
	12.07846	45.33101
	12.07875	45.33132
	12.07897	45.33203
	12.07899	45.33222
	12.07978	45.3321
	12.08126	45.33192
	12.08221	45.33202
	12.08233	45.33202
	12.08304	45.33207
	12.08337	45.33207
	12.0849	45.33192
	12.08593	45.33172
	12.08631	45.33168
	12.08663	45.33172
	12.0872	45.33191
	12.08743	45.3319
	12.0876	45.33182
	12.08824	45.33145
	12.08869	45.33129
	12.08909	45.33119
	12.08938	45.33108
	12.09029	45.33064
	12.09095	45.33036
	12.09189	45.33007
	12.09236	45.32999
	12.09262	45.32998
	12.09291	45.3299
	12.09333	45.32973
	12.09389	45.32957
	12.09434	45.32925
	12.09482	45.32886
	12.09495	45.3287
	12.09533	45.32847
	12.09571	45.32817
	12.09606	45.32773
	12.09622	45.32738
	12.09653	45.32687
	12.09692	45.32666
	12.09738	45.32658
	12.09789	45.32642
	12.09832	45.32617
	12.09905	45.32584
	12.09932	45.32581
	12.09957	45.3257
	12.10029	45.32558
	12.10066	45.32539
	12.10077	45.32512
	12.10083	45.32475
	12.1008	45.32441
	12.10082	45.32419
	12.10095	45.32406
	12.101	45.32381
	12.10113	45.32355
	12.10147	45.32329
	12.10188	45.32304
	12.10232	45.3227
	12.10268	45.32221
	12.09795	45.32066
	12.0983	45.32019
	12.10194	45.31934
	12.10156	45.31844
	12.10976	45.30926
	12.10955	45.30868
	12.10972	45.30812
	12.10999	45.30775
	12.11077	45.30702
	12.11083	45.30661
	12.1122	45.30621
	12.11253	45.30592
	12.11383	45.30515
	12.11596	45.30405
	12.11702	45.3034
	12.12109	45.30224
	12.12184	45.30191
	12.1238	45.3015
	12.12517	45.30141
	12.12723	45.30082
	12.12929	45.30041
	12.13046	45.30056
	12.13211	45.30052
	12.13763	45.29946
	12.13832	45.29945
	12.14319	45.30121
	12.14484	45.30153
	12.14628	45.30175
	12.14905	45.30146
	12.15102	45.30158
	12.15617	45.30218
	12.17523	45.30218
	12.18669	45.30216
	12.18976	45.29715
	12.19048	45.29609
	12.19025	45.29528
	12.19009	45.29441
	12.18967	45.29161
	12.18946	45.28977
	12.19025	45.28885
	12.19006	45.2886
	12.18961	45.28832
	12.19099	45.28584
	12.19148	45.286
	12.1915	45.28532
	12.19135	45.28495
	12.19077	45.28434
	12.19265	45.28385
	12.19659	45.28285
	12.19811	45.28134
	12.19928	45.28126
	12.19945	45.28124
	12.20185	45.27841
	12.20165	45.27764
	12.20162	45.27662
	12.20351	45.27632
	12.20541	45.27403
	12.20641	45.27272
	12.20559	45.27014
	12.20463	45.26755
	12.20283	45.26281
	12.20081	45.25786
	12.20024	45.25665
	12.19846	45.25306
	12.19711	45.25078
	12.196	45.24969
	12.1955	45.24929
	12.19521	45.24876
	12.19523	45.24863
	12.19539	45.24858
	12.19565	45.24846
	12.19561	45.2482
	12.19556	45.24801
	12.1954	45.2479
	12.19558	45.24768
	12.19599	45.24712
	12.19573	45.24699
	12.1946	45.2462
	12.19361	45.24457
	12.19265	45.24332
	12.19243	45.24323
	12.1918	45.2428
	12.189	45.24109
	12.18739	45.24007
	12.18818	45.24004
	12.18972	45.23992
	12.1924	45.23979
	12.19331	45.23972
	12.19328	45.23928
	12.19398	45.23871
	12.19565	45.23726
	12.19554	45.23713
	12.19368	45.23431
	12.19342	45.234
	12.19312	45.23381
	12.19266	45.23367
	12.19199	45.23344
	12.18264	45.23017
	12.18132	45.22973
	12.17986	45.22941
	12.17748	45.22886
	12.17599	45.22853
	12.17449	45.22829
	12.1742	45.22826
	12.1734	45.22793
	12.17309	45.22791
	12.17292	45.22784
	12.17212	45.22768
	12.17151	45.22761
	12.17089	45.22759
	12.17019	45.22739
	12.17006	45.22711
	12.16982	45.22687
	12.16965	45.2266
	12.1695	45.22647
	12.16907	45.22631
	12.16873	45.22625
	12.16835	45.22624
	12.16813	45.22561
	12.16759	45.22563
	12.16704	45.22559
	12.16595	45.22564
	12.16555	45.22568
	12.16528	45.22574
	12.16468	45.22621
	12.16399	45.22594
	12.16333	45.2255
	12.16218	45.22643
	12.16202	45.22636
	12.16145	45.22594
	12.15936	45.22595
	12.15913	45.22598
	12.15877	45.22598
	12.15847	45.22592
	12.15809	45.22582
	12.15737	45.22553
	12.15674	45.2252
	12.15791	45.22415
	12.15743	45.22385
	12.15555	45.22252
	12.15585	45.2223
	12.15623	45.22194
	12.1564	45.22172
	12.15662	45.22134
	12.15674	45.22105
	12.1569	45.22046
	12.15663	45.21912
	12.1566	45.21907
	12.1563	45.21868
	12.15424	45.21666
	12.15393	45.21557
	12.15387	45.21487
	12.15356	45.21346
	12.15362	45.2128
	12.15367	45.21256
	12.15443	45.21234
	12.155	45.21209
	12.15525	45.21182
	12.15533	45.2116
	12.15536	45.21128
	12.15531	45.21106
	12.15502	45.21073
	12.15455	45.21031
	12.15392	45.20916
	12.15375	45.20904
	12.15334	45.20898
	12.15387	45.20855
	12.15456	45.20793
	12.15499	45.20774
	12.15555	45.20755
	12.15621	45.20742
	12.15757	45.20741
	12.15844	45.20739
	12.16038	45.20715
	12.16073	45.2071
	12.16115	45.20698
	12.16182	45.20673
	12.16224	45.20648
	12.16244	45.20603
	12.16232	45.20521
	12.16219	45.2047
	12.1618	45.20416
	12.16165	45.20399
	12.16224	45.20376
	12.16307	45.20446
	12.16331	45.20468
	12.16338	45.20472
	12.16266	45.20577
	12.16499	45.20737
	12.16507	45.20736
	12.16535	45.20729
	12.16817	45.20634
	12.16923	45.20587
	12.16953	45.2057
	12.17035	45.20516
	12.17091	45.20469
	12.17109	45.20451
	12.17128	45.20429
	12.17174	45.20337
	12.1718	45.20312
	12.17099	45.20188
	12.17101	45.20188
	12.17144	45.20157
	12.17143	45.20137
	12.17135	45.20129
	12.17101	45.20115
	12.17051	45.20116
	12.17025	45.20075
	12.16952	45.20123
	12.16916	45.20121
	12.16886	45.20118
	12.16851	45.20106
	12.16836	45.20093
	12.16846	45.20058
	12.16851	45.19981
	12.16858	45.19929
	12.16887	45.19888
	12.16896	45.19879
	12.16916	45.19864
	12.1694	45.19853
	12.16976	45.19842
	12.17008	45.19834
	12.17055	45.19845
	12.17089	45.1986
	12.17145	45.19876
	12.17185	45.19876
	12.17206	45.19874
	12.17244	45.19868
	12.1734	45.19843
	12.17393	45.19814
	12.17421	45.19793
	12.1746	45.19774
	12.17485	45.19756
	12.17502	45.19741
	12.17645	45.1971
	12.17692	45.19699
	12.17725	45.19689
	12.17767	45.1967
	12.17834	45.19632
	12.17925	45.19578
	12.17966	45.19576
	12.17999	45.19571
	12.18041	45.19575
	12.18077	45.19583
	12.18125	45.19627
	12.18163	45.19682
	12.18187	45.1971
	12.18223	45.19721
	12.18271	45.19728
	12.18322	45.19723
	12.18371	45.19714
	12.184	45.19698
	12.18421	45.19671
	12.18432	45.19594
	12.18433	45.19555
	12.18417	45.19518
	12.18388	45.19529
	12.1807	45.19512
	12.18043	45.19512
	12.1799	45.19504
	12.17615	45.19489
	12.17055	45.19472
	12.16725	45.19458
	12.16676	45.19455
	12.16649	45.19452
	12.16598	45.19443
	12.16566	45.19432
	12.16514	45.1943
	12.16194	45.19429
	12.15966	45.19423
	12.1567	45.19413
	12.153	45.19396
	12.15136	45.19391
	12.151	45.19392
	12.14963	45.19473
	12.14898	45.19585
	12.14858	45.19619
	12.14778	45.1966
	12.14751	45.19667
	12.14671	45.19681
	12.14609	45.19696
	12.14532	45.19735
	12.14493	45.19763
	12.14458	45.19791
	12.14448	45.19817
	12.1443	45.19851
	12.14301	45.19912
	12.1426	45.19938
	12.14238	45.19961
	12.14211	45.19994
	12.1419	45.2003
	12.14165	45.20033
	12.1408	45.20081
	12.1387	45.20196
	12.13745	45.20267
	12.13613	45.2033
	12.1351	45.20385
	12.13446	45.20427
	12.13369	45.20469
	12.1282	45.20763
	12.12403	45.20984
	12.1234	45.21017
	12.12319	45.21026
	12.12235	45.21019
	12.12082	45.20993
	12.12012	45.20973
	12.11831	45.20951
	12.11674	45.20923
	12.11202	45.20844
	12.10742	45.20764
	12.10274	45.20687
	12.0984	45.20614
	12.09371	45.20532
	12.09255	45.20513
	12.083	45.20349
	12.08249	45.2034
	12.08232	45.20333
	12.08014	45.20295
	12.07868	45.20272
	12.07713	45.20246
	12.07553	45.20218
	12.07384	45.2019
	12.07108	45.20141
	12.0613	45.19977
	12.05917	45.19941
	12.05788	45.19918
	12.05656	45.19904
	12.05368	45.1987
	12.05093	45.19826
	12.04957	45.19803
	12.04804	45.1977
	12.0476	45.19756
	12.04724	45.19749
	12.04574	45.19722
	12.04391	45.19694
	12.04204	45.19668
	12.04068	45.19654
	12.03904	45.19646
	12.0389	45.19608
	12.03351	45.19536
	12.02173	45.19356
	12.00632	45.19135
	11.9992	45.19023
	11.99899	45.19021
	11.99681	45.1899
	11.98447	45.18811
	11.97833	45.18725
	11.97812	45.18718
	11.97818	45.18712
	11.97836	45.18697
	11.97878	45.18667
	11.97942	45.18629
	11.97964	45.1861
	11.97972	45.18594
	11.97979	45.18571
	11.97979	45.18555
	11.97977	45.18542
	11.97955	45.185
	11.97941	45.18487
	11.97925	45.18478
	11.97907	45.1847
	11.97883	45.18463
	11.97839	45.18457
	11.97768	45.18454
	11.97704	45.18448
	11.97648	45.1844
	11.97575	45.18422
	11.97477	45.18393
	11.97389	45.18352
	11.97364	45.18335
	11.97339	45.18314
	11.97314	45.18279
	11.97305	45.18264
	11.97291	45.18225
	11.97284	45.18185
	11.97285	45.18151
	11.97302	45.18104
	11.97312	45.18081
	11.97345	45.18024
	11.97389	45.1796
	11.97427	45.17892
	11.97451	45.17859
	11.97525	45.17788
	11.97534	45.17767
	11.9753	45.1775
	11.97521	45.17725
	11.97495	45.17692
	11.97457	45.17659
	11.97514	45.17622
	11.97568	45.17569
	11.97634	45.17503
	11.97715	45.17403
	11.97679	45.17416
	11.97624	45.17409
	11.97593	45.17233
	11.9755	45.17238
	11.97521	45.17021
	11.9755	45.1702
	11.97635	45.16556
	11.97698	45.16254
	11.9781	45.16255
	11.97986	45.16259
	11.98056	45.16263
	11.98114	45.16265
	11.98155	45.16261
	11.98206	45.16258
	11.98247	45.1626
	11.98283	45.16267
	11.98344	45.15579
	11.9835	45.15561
	11.98159	45.15481
	11.97899	45.15369
	11.97181	45.15053
	11.97003	45.14976
	11.96934	45.1495
	11.96919	45.1495
	11.96661	45.15035
	11.96617	45.1504
	11.96591	45.15038
	11.96428	45.14995
	11.96252	45.14953
	11.96198	45.14935
	11.96743	45.13686
	11.9688	45.13398
	11.96482	45.1333
	11.95377	45.13437
	11.94892	45.13527
	11.94574	45.13627
	11.94356	45.13821
	11.93816	45.1418
	11.93495	45.14282
	11.93255	45.14308
	11.92687	45.14322
	11.92236	45.14233
	11.91978	45.14075
	11.91846	45.13855
	11.91698	45.1376
	11.91482	45.13674
	11.91185	45.13643
	11.90824	45.13649
	11.90519	45.13582
	11.90156	45.13484
	11.89944	45.13368
	11.89655	45.13303
	11.89474	45.13316
	11.89282	45.1337
	11.88798	45.13647
	11.88576	45.13708
	11.88335	45.1367
	11.88136	45.13581
	11.87979	45.13461
	11.87683	45.13419
	11.87298	45.13309
	11.87065	45.13269
	11.86589	45.13344
	11.86146	45.13251
	11.85644	45.13153
	11.85415	45.13027
	11.85155	45.12958
	11.84488	45.12854
	11.8421	45.12834
	11.83865	45.12813
	11.83738	45.12694
	11.83588	45.12453
	11.83175	45.12219
	11.83035	45.12204
	11.82639	45.12153
	11.82314	45.12118
	11.82071	45.12205
	11.81711	45.12339
	11.81577	45.12349
	11.81435	45.12353
	11.81062	45.12239
	11.80666	45.12129
	11.8058	45.12066
	11.80453	45.11862
	11.80221	45.11688
	11.80129	45.11614
	11.79863	45.11329
	11.79537	45.11112
	11.79285	45.10983
	11.79095	45.10911
	11.78908	45.10874
	11.78718	45.10821
	11.78618	45.10769
	11.78482	45.10596
	11.78292	45.10481
	11.78141	45.10412
	11.78032	45.10347
	11.77976	45.10306
	11.77861	45.10172
	11.77723	45.10022
	11.77656	45.09974
	11.77552	45.09921
	11.77339	45.09849
	11.76781	45.09731
	11.76184	45.096
	11.75842	45.09562
	11.75731	45.09559
	11.75602	45.09576
	11.75426	45.09616
	11.75095	45.09702
	11.74995	45.09719
	11.74877	45.09733
	11.74777	45.09732
	11.7447	45.09683
	11.74391	45.09673
	11.74291	45.09666
	11.74201	45.09674
	11.74115	45.0969
	11.73709	45.09771
	11.73341	45.09851
	11.73277	45.09853
	11.73223	45.09848
	11.73036	45.09808
	11.72797	45.09765
	11.72584	45.0974
	11.72513	45.09728
	11.72441	45.09727
	11.72367	45.09729
	11.72295	45.09736
	11.72191	45.09768
	11.72111	45.098
	11.71984	45.09873
	11.71858	45.09992
	11.71779	45.10069
	11.7172	45.10101
	11.71639	45.10131
	11.71556	45.10156
	11.71476	45.10178
	11.71265	45.10215
	11.71023	45.10243
	11.70927	45.10247
	11.70891	45.10247
	11.70798	45.10234
	11.7072	45.10218
	11.70644	45.10194
	11.70139	45.10026
	11.69948	45.09973
	11.69775	45.09911
	11.69708	45.09891
	11.69623	45.09852
	11.69556	45.09828
	11.69511	45.09822
	11.69478	45.09823
	11.69437	45.0983
	11.69394	45.09843
	11.69245	45.09911
	11.69022	45.10017
	11.68803	45.10091
	11.68612	45.10191
	11.68397	45.10312
	11.68327	45.10344
	11.68283	45.10357
	11.68242	45.10365
	11.68095	45.1037
	11.67709	45.10368
	11.67588	45.10378
	11.67544	45.10385
	11.67502	45.10396
	11.67397	45.10428
	11.67267	45.10484
	11.67149	45.10552
	11.6697	45.10631
	11.66849	45.10631
	11.66749	45.10597
	11.66687	45.10559
	11.66625	45.1051
	11.66566	45.10454
	11.6648	45.10415
	11.6642	45.10392
	11.66357	45.10387
	11.66292	45.10389
	11.66231	45.10398
	11.66023	45.10463
	11.65932	45.10486
	11.65752	45.10514
	11.65645	45.10536
	11.65485	45.10586
	11.65405	45.10624
	11.65236	45.1076
	11.6518	45.10794
	11.65125	45.10813
	11.65031	45.10836
	11.64899	45.10864
	11.6475	45.10887
	11.64598	45.10892
	11.64401	45.10866
	11.64249	45.10856
	11.63997	45.10876
	11.63855	45.1088
	11.63755	45.10879
	11.63637	45.10863
	11.63521	45.1084
	11.6343	45.10835
	11.63348	45.10841
	11.63261	45.10851
	11.63182	45.10874
	11.63089	45.10912
	11.62946	45.10965
	11.62826	45.10988
	11.62726	45.10997
	11.62589	45.10999
	11.6256	45.10997
	11.62385	45.10968
	11.62352	45.1096
	11.62194	45.10941
	11.61839	45.10911
	11.61656	45.10897
	11.61462	45.10884
	11.61305	45.10891
	11.61241	45.10902
	11.6117	45.10925
	11.61134	45.10941
	11.61105	45.10964
	11.61001	45.11162
	11.60966	45.11225
	11.60876	45.11298
	11.60778	45.11347
	11.60684	45.11372
	11.60571	45.11386
	11.60477	45.11395
	11.60431	45.11401
	11.6039	45.11418
	11.60342	45.11442
	11.60282	45.11491
	11.60109	45.11673
	11.59983	45.11755
	11.5984	45.11807
	11.59768	45.11826
	11.59717	45.11836
	11.59652	45.11844
	11.59594	45.11846
	11.59528	45.11843
	11.591	45.1177
	11.58862	45.11734
	11.58538	45.11661
	11.58465	45.11655
	11.5843	45.11658
	11.58393	45.11673
	11.5837	45.11687
	11.5835	45.11708
	11.58235	45.11867
	11.5816	45.11984
	11.58064	45.12247
	11.58009	45.12287
	11.57909	45.12336
	11.57858	45.12359
	11.57762	45.12405
	11.57656	45.12444
	11.57561	45.12458
	11.57456	45.12454
	11.57409	45.12445
	11.57367	45.12432
	11.57288	45.12402
	11.57186	45.12353
	11.56987	45.12265
	11.56724	45.12193
	11.56525	45.12153
	11.56369	45.12114
	11.5625	45.12073
	11.56165	45.12034
	11.56091	45.11984
	11.56048	45.11952
	11.55994	45.11919
	11.55943	45.11899
	11.55884	45.11891
	11.55841	45.11889
	11.55815	45.11889
	11.55774	45.11895
	11.55736	45.11904
	11.55612	45.11941
	11.55461	45.11973
	11.55097	45.12023
	11.54961	45.1205
	11.54883	45.12059
	11.5479	45.12061
	11.54548	45.12063
	11.54319	45.12046
	11.54068	45.12036
	11.53844	45.12044
	11.53681	45.12045
	11.53541	45.12044
	11.53392	45.12048
	11.53298	45.12053
	11.52921	45.12087
	11.52697	45.12078
	11.52513	45.12061
	11.52459	45.12058
	11.52243	45.12024
	11.51879	45.11888
	11.513	45.11554
	11.50591	45.11103
	11.50088	45.10721
	11.499	45.10567
	11.49746	45.10491
	11.49255	45.1035
	11.4921	45.10344
	11.49153	45.10342
	11.49083	45.10351
	11.48886	45.10391
	11.47622	45.10665
	11.47359	45.10739
	11.4703	45.1084
	11.4649	45.1101
	11.46228	45.11102
	11.46164	45.1113
	11.46073	45.11175
	11.45898	45.11266
	11.45836	45.11315
	11.45701	45.11418
	11.45602	45.11474
	11.45414	45.11568
	11.45064	45.11709
	11.44811	45.11788
	11.44446	45.11889
	11.43993	45.12019
	11.43737	45.12102
	11.43288	45.12252
	11.43003	45.12356
	11.42385	45.1264
	11.42013	45.12792
	11.41695	45.12906
	11.42041	45.13306
	11.42071	45.13341
	11.42103	45.13382
	11.42168	45.13479
	11.42327	45.13704
	11.42508	45.13993
	11.42565	45.14107
	11.42632	45.14251
	11.42831	45.14795
	11.42888	45.14958
	11.42897	45.14995
	11.42883	45.14997
	11.42857	45.15007
	11.42767	45.15045
	11.42669	45.15084
	11.42536	45.15143
	11.42395	45.15209
	11.42337	45.15252
	11.42302	45.1528
	11.42285	45.15258
	11.42195	45.15394
	11.42161	45.15436
	11.42121	45.15458
	11.4195	45.15622
	11.41915	45.15647
	11.41902	45.15645
	11.41854	45.15595
	11.41728	45.15492
	11.417	45.15513
	11.41596	45.15558
	11.41574	45.1557
	11.41593	45.15573
	11.4166	45.156
	11.41701	45.1563
	11.41739	45.1566
	11.41778	45.15681
	11.41803	45.157
	11.41816	45.15715
	11.41823	45.1576
	11.41835	45.15777
	11.4185	45.15812
	11.41872	45.15832
	11.41945	45.15951
	11.41963	45.16021
	11.41991	45.16063
	11.42037	45.1612
	11.42102	45.16166
	11.42125	45.1618
	11.42141	45.16194
	11.42214	45.16268
	11.42251	45.16337
	11.42259	45.16387
	11.42261	45.16496
	11.42273	45.16578
	11.4207	45.16586
	11.4204	45.16585
	11.41907	45.16572
	11.41888	45.16571
	11.41872	45.16572
	11.41848	45.16576
	11.41755	45.16605
	11.41701	45.16616
	11.41695	45.1662
	11.41689	45.16627
	11.41681	45.16641
	11.41667	45.16676
	11.41661	45.16684
	11.41652	45.16691
	11.4164	45.16698
	11.41634	45.16705
	11.41633	45.16715
	11.4164	45.1676
	11.4164	45.16771
	11.41638	45.16807
	11.41631	45.16845
	11.41629	45.16853
	11.4161	45.16886
	11.41574	45.16976
	11.41567	45.16986
	11.41567	45.16985
	11.41525	45.16986
	11.41503	45.17008
	11.4149	45.17014
	11.41464	45.17021
	11.41402	45.17026
	11.41377	45.17031
	11.41365	45.17035
	11.41355	45.17041
	11.41309	45.17075
	11.41297	45.17081
	11.41288	45.17083
	11.41274	45.17083
	11.41262	45.17082
	11.41237	45.17076
	11.41215	45.17077
	11.41164	45.1709
	11.41105	45.17107
	11.41135	45.17121
	11.41159	45.17137
	11.41194	45.17185
	11.41123	45.17216
	11.41084	45.17247
	11.41009	45.17405
	11.4101	45.17434
	11.41049	45.17473
	11.41005	45.17496
	11.40928	45.17517
	11.40862	45.17532
	11.40831	45.17542
	11.40818	45.17567
	11.4082	45.17598
	11.40828	45.17641
	11.40833	45.17693
	11.40849	45.17773
	11.40859	45.17902
	11.4087	45.1798
	11.40884	45.18018
	11.40888	45.18147
	11.40882	45.18183
	11.40862	45.18227
	11.40824	45.18294
	11.40824	45.1832
	11.40807	45.18346
	11.4057	45.18592
	11.4056	45.18607
	11.40653	45.18648
	11.40546	45.18801
	11.40494	45.18892
	11.40559	45.18894
	11.40567	45.18891
	11.40571	45.18889
	11.40585	45.18864
	11.40618	45.18847
	11.40669	45.18806
	11.40695	45.18779
	11.40727	45.18738
	11.40765	45.18685
	11.40811	45.18616
	11.40823	45.18609
	11.40859	45.18627
	11.4092	45.18638
	11.40912	45.18689
	11.40913	45.18716
	11.40926	45.18726
	11.40942	45.18726
	11.40837	45.18852
	11.40724	45.18996
	11.40679	45.19056
	11.40652	45.19079
	11.40632	45.19088
	11.40604	45.19094
	11.40567	45.19124
	11.40565	45.19124
	11.40538	45.19148
	11.40517	45.19198
	11.40484	45.19317
	11.40458	45.1937
	11.40414	45.19535
	11.40407	45.19569
	11.4044	45.19696
	11.40475	45.19849
	11.40488	45.19923
	11.40498	45.19957
	11.40497	45.19977
	11.40453	45.19975
	11.40387	45.19984
	11.40342	45.19988
	11.40308	45.20009
	11.40316	45.20026
	11.40343	45.20045
	11.40389	45.20063
	11.40421	45.20284
	11.4042	45.20301
	11.40372	45.20309
	11.40372	45.2031
	11.40375	45.20332
	11.40393	45.20395
	11.40441	45.20399
	11.4045	45.20467
	11.40459	45.20485
	11.40448	45.20503
	11.40451	45.20574
	11.40444	45.20598
	11.4045	45.20746
	11.4046	45.20814
	11.40482	45.20829
	11.40477	45.20912
	11.40468	45.20922
	11.4039	45.20917
	11.40381	45.2102
	11.40375	45.21186
	11.40352	45.21245
	11.40344	45.21258
	11.40306	45.21308
	11.40272	45.21348
	11.40269	45.21355
	11.40276	45.21415
	11.40297	45.21457
	11.403	45.21466
	11.40305	45.21503
	11.40309	45.21519
	11.40324	45.21549
	11.40325	45.21575
	11.40321	45.21587
	11.40311	45.21608
	11.40308	45.21644
	11.40306	45.21648
	11.40267	45.21693
	11.40264	45.21698
	11.40234	45.21788
	11.40212	45.21838
	11.40184	45.2194
	11.40172	45.21963
	11.40162	45.21987
	11.40157	45.22014
	11.40153	45.22027
	11.40163	45.22085
	11.40142	45.22116
	11.40124	45.22146
	11.40109	45.22185
	11.40073	45.22335
	11.40055	45.22391
	11.40039	45.22431
	11.39999	45.22497
	11.39975	45.22543
	11.39969	45.22568
	11.39967	45.22585
	11.39978	45.22655
	11.39992	45.2271
	11.40034	45.22815
	11.4011	45.22992
	11.40115	45.23016
	11.40107	45.23064
	11.40109	45.23078
	11.40116	45.23097
	11.40126	45.23173
	11.40135	45.23188
	11.402	45.23249
	11.40247	45.23303
	11.40259	45.23329
	11.40265	45.23347
	11.40268	45.23365
	11.40266	45.23387
	11.40257	45.23411
	11.40223	45.23455
	11.40222	45.23477
	11.40234	45.23561
	11.40239	45.23569
	11.40257	45.2359
	11.40274	45.23604
	11.40338	45.23647
	11.40404	45.23682
	11.40463	45.23708
	11.40516	45.23735
	11.40573	45.23767
	11.40603	45.23789
	11.40613	45.2381
	11.40623	45.23846
	11.40635	45.2391
	11.40634	45.23953
	11.40638	45.24006
	11.40631	45.2407
	11.4061	45.24193
	11.40573	45.24374
	11.4055	45.24458
	11.40448	45.247
	11.40442	45.24731
	11.40407	45.24839
	11.40371	45.24911
	11.40325	45.2501
	11.40318	45.25023
	11.40253	45.2507
	11.40204	45.25109
	11.40117	45.25185
	11.40095	45.25221
	11.40071	45.25266
	11.40033	45.25261
	11.39877	45.25268
	11.39687	45.25281
	11.39598	45.25282
	11.39222	45.25278
	11.39161	45.25272
	11.39118	45.25287
	11.39099	45.25298
	11.39094	45.25311
	11.39095	45.25329
	11.39105	45.25352
	11.39207	45.25513
	11.39253	45.25602
	11.393	45.2567
	11.39327	45.25702
	11.39359	45.25746
	11.3935	45.25764
	11.39286	45.2586
	11.39274	45.25891
	11.39275	45.25912
	11.39311	45.25927
	11.39359	45.2594
	11.39437	45.25948
	11.3956	45.25975
	11.39604	45.25981
	11.39745	45.25997
	11.39876	45.26018
	11.39876	45.26017
	11.39982	45.26043
	11.39992	45.26047
	11.40007	45.26063
	11.40055	45.26191
	11.40086	45.26264
	11.40123	45.26298
	11.40144	45.26326
	11.40122	45.26565
	11.40404	45.26591
	11.40414	45.26582
	11.40438	45.26568
	11.40524	45.26524
	11.40546	45.26514
	11.40576	45.26506
	11.40615	45.26498
	11.40655	45.26487
	11.40676	45.2648
	11.40708	45.26464
	11.40745	45.26438
	11.40835	45.26343
	11.4088	45.26325
	11.40913	45.2631
	11.41043	45.26238
	11.41069	45.26221
	11.41134	45.26173
	11.41199	45.26117
	11.41254	45.26103
	11.41313	45.26083
	11.41336	45.26072
	11.41369	45.26054
	11.41431	45.26011
	11.41495	45.25993
	11.41541	45.25975
	11.41604	45.25947
	11.41734	45.25946
	11.4177	45.25943
	11.41826	45.25931
	11.41863	45.25917
	11.41907	45.25892
	11.41959	45.25849
	11.42005	45.25823
	11.42037	45.25817
	11.42073	45.25806
	11.42096	45.25796
	11.42123	45.2578
	11.42201	45.25722
	11.42246	45.25686
	11.42286	45.25648
	11.42325	45.25606
	11.42353	45.25614
	11.42397	45.2562
	11.42408	45.25621
	11.42446	45.25621
	11.42478	45.25618
	11.42499	45.25614
	11.42532	45.25604
	11.42565	45.2559
	11.42586	45.25579
	11.42611	45.25562
	11.42637	45.2554
	11.42648	45.25529
	11.42659	45.25521
	11.42695	45.25503
	11.42743	45.25484
	11.42759	45.25479
	11.42809	45.25377
	11.42821	45.25385
	11.42883	45.25443
	11.42964	45.25521
	11.43021	45.2558
	11.43078	45.25631
	11.4311	45.25649
	11.43166	45.25663
	11.4328	45.25682
	11.43364	45.25688
	11.43383	45.25695
	11.43398	45.25717
	11.43447	45.25775
	11.43483	45.25795
	11.43619	45.25849
	11.43717	45.25882
	11.43738	45.25888
	11.43797	45.25888
	11.43941	45.2588
	11.44144	45.25833
	11.44209	45.25831
	11.44242	45.25837
	11.44272	45.25847
	11.44367	45.25899
	11.44369	45.25899
	11.44458	45.2594
	11.44485	45.25949
	11.44523	45.25959
	11.44543	45.2597
	11.4459	45.26007
	11.44617	45.26024
	11.44647	45.26032
	11.44718	45.26042
	11.44752	45.26043
	11.44793	45.26047
	11.44981	45.26088
	11.44975	45.26227
	11.45157	45.26235
	11.45161	45.26283
	11.45266	45.26274
	11.45411	45.26259
	11.45464	45.26255
	11.45653	45.26276
	11.45697	45.26276
	11.45751	45.26271
	11.45775	45.2627
	11.45817	45.26274
	11.45889	45.26286
	11.46043	45.26297
	11.46184	45.26311
	11.46234	45.26311
	11.46267	45.26308
	11.46293	45.26303
	11.46322	45.26295
	11.46362	45.26281
	11.464	45.26265
	11.46429	45.2625
	11.46475	45.26215
	11.46502	45.26165
	11.46577	45.26198
	11.46691	45.26158
	11.46727	45.2615
	11.46773	45.26144
	11.4683	45.2614
	11.46946	45.26129
	11.46976	45.2612
	11.46997	45.26111
	11.47045	45.26084
	11.47082	45.2607
	11.47124	45.26058
	11.47194	45.26045
	11.47376	45.26007
	11.47436	45.25987
	11.47573	45.25937
	11.47733	45.25896
	11.47789	45.2588
	11.47884	45.25846
	11.47918	45.25845
	11.48007	45.25848
	11.48044	45.26001
	11.48057	45.26039
	11.48085	45.26088
	11.48105	45.26115
	11.48124	45.26134
	11.48363	45.26359
	11.48552	45.26709
	11.48799	45.26777
END
END
