Italy_Molise
1
	15.63684	42.42575
	15.1386	41.92838
	15.13701	41.92557
	15.13651	41.92458
	15.13629	41.92397
	15.13606	41.92305
	15.13583	41.92207
	15.13231	41.90399
	15.13228	41.90378
	15.13211	41.90182
	15.13214	41.90097
	15.13235	41.89881
	15.13256	41.89817
	15.13359	41.89614
	15.1338	41.89585
	15.13657	41.89293
	15.13858	41.89197
	15.13878	41.8919
	15.13894	41.89172
	15.14034	41.88323
	15.13967	41.88025
	15.13349	41.87595
	15.13085	41.87423
	15.12664	41.86577
	15.12637	41.86353
	15.12426	41.8605
	15.12399	41.86026
	15.12049	41.85824
	15.12018	41.85814
	15.11975	41.8581
	15.12043	41.85671
	15.11939	41.85518
	15.11554	41.85175
	15.11512	41.85152
	15.11466	41.85129
	15.11345	41.85093
	15.11021	41.85017
	15.10964	41.85005
	15.1091	41.85017
	15.10674	41.84995
	15.10467	41.84798
	15.10453	41.84771
	15.10186	41.83845
	15.10114	41.83476
	15.10245	41.83291
	15.10409	41.8324
	15.10542	41.83211
	15.10509	41.83163
	15.10497	41.83142
	15.10498	41.83126
	15.1051	41.83089
	15.10848	41.82413
	15.10891	41.82339
	15.10966	41.82227
	15.10986	41.8221
	15.11024	41.82187
	15.11126	41.82173
	15.11281	41.82164
	15.11584	41.81836
	15.11703	41.81607
	15.1173	41.81551
	15.11722	41.81471
	15.1171	41.8141
	15.11663	41.81304
	15.11524	41.81142
	15.11468	41.80966
	15.11458	41.80919
	15.11468	41.80869
	15.11506	41.80774
	15.11526	41.80735
	15.11608	41.80601
	15.11662	41.80537
	15.11685	41.80004
	15.11599	41.79053
	15.11581	41.79031
	15.11268	41.78741
	15.11243	41.78721
	15.11202	41.7873
	15.11085	41.78722
	15.10808	41.78616
	15.10278	41.78324
	15.0982	41.77103
	15.0979	41.76974
	15.09786	41.76881
	15.09789	41.76837
	15.09811	41.76719
	15.09823	41.76691
	15.10747	41.75758
	15.1109	41.75475
	15.11714	41.75024
	15.1174	41.74995
	15.1169	41.74975
	15.11449	41.74896
	15.11307	41.74869
	15.11247	41.7487
	15.11136	41.74887
	15.10976	41.74915
	15.10869	41.74937
	15.10762	41.74961
	15.10642	41.74978
	15.1048	41.74998
	15.10415	41.75001
	15.10397	41.74981
	15.10327	41.74859
	15.10301	41.7479
	15.1028	41.74729
	15.1027	41.7463
	15.10266	41.7455
	15.10274	41.74374
	15.10317	41.74293
	15.1037	41.74225
	15.11065	41.73518
	15.11212	41.7338
	15.11462	41.73167
	15.11663	41.72999
	15.11741	41.72882
	15.11982	41.72487
	15.11962	41.72269
	15.12076	41.72147
	15.12118	41.7203
	15.12284	41.72023
	15.12395	41.71968
	15.12608	41.71952
	15.12703	41.71898
	15.12825	41.71885
	15.13055	41.71819
	15.13086	41.71744
	15.13	41.71639
	15.13067	41.71666
	15.13163	41.71709
	15.13203	41.71657
	15.13294	41.71649
	15.13258	41.71582
	15.13239	41.7153
	15.13289	41.71507
	15.13368	41.71575
	15.13407	41.71591
	15.13421	41.71539
	15.13495	41.71526
	15.1362	41.71544
	15.1367	41.71467
	15.13794	41.71405
	15.13869	41.71476
	15.13952	41.71487
	15.13971	41.71441
	15.13933	41.71375
	15.14034	41.71373
	15.14153	41.71375
	15.14175	41.71264
	15.14259	41.71253
	15.14292	41.71216
	15.14345	41.71125
	15.14433	41.71057
	15.14457	41.71119
	15.14584	41.71148
	15.1484	41.71187
	15.14931	41.71158
	15.1511	41.71083
	15.15139	41.71116
	15.15225	41.71108
	15.15302	41.7103
	15.15364	41.71026
	15.15407	41.71058
	15.15414	41.71155
	15.15508	41.71173
	15.15591	41.71083
	15.15639	41.71132
	15.15673	41.71171
	15.15786	41.71162
	15.16168	41.70956
	15.15895	41.70792
	15.15451	41.70651
	15.15157	41.70544
	15.14866	41.7049
	15.14683	41.70432
	15.14526	41.7035
	15.14137	41.70189
	15.138	41.70047
	15.1338	41.69807
	15.13303	41.69781
	15.13107	41.69732
	15.12939	41.69739
	15.12704	41.69715
	15.12544	41.69654
	15.125	41.69629
	15.12335	41.69603
	15.12215	41.69572
	15.12054	41.6952
	15.11907	41.69457
	15.1181	41.69426
	15.11728	41.69378
	15.11605	41.69278
	15.11461	41.69186
	15.11081	41.6887
	15.11025	41.68786
	15.10943	41.68745
	15.10825	41.68725
	15.10753	41.68681
	15.10609	41.68563
	15.10508	41.6835
	15.10468	41.68276
	15.10441	41.68184
	15.10431	41.68108
	15.10437	41.68036
	15.10453	41.67983
	15.10479	41.67924
	15.10509	41.67871
	15.10563	41.67819
	15.10592	41.67752
	15.10607	41.67696
	15.10589	41.67632
	15.10553	41.6754
	15.10491	41.67405
	15.10473	41.6739
	15.10333	41.67303
	15.10261	41.67282
	15.10168	41.67281
	15.09603	41.6748
	15.09552	41.67516
	15.09528	41.67566
	15.09497	41.67662
	15.09479	41.67886
	15.09466	41.67944
	15.09437	41.68038
	15.09409	41.68077
	15.0923	41.68256
	15.09193	41.68275
	15.09133	41.68279
	15.0908	41.6828
	15.09023	41.6826
	15.08976	41.68211
	15.08937	41.68155
	15.08863	41.68028
	15.08801	41.67913
	15.08672	41.67643
	15.08672	41.67604
	15.08692	41.67582
	15.09082	41.67297
	15.07715	41.66587
	15.07042	41.66104
	15.06162	41.66066
	15.06073	41.66086
	15.05988	41.66099
	15.05914	41.66094
	15.05657	41.66073
	15.05566	41.66062
	15.05496	41.66045
	15.05374	41.65978
	15.05111	41.65829
	15.05009	41.65744
	15.04944	41.65685
	15.04917	41.6565
	15.04793	41.65376
	15.04666	41.64927
	15.04556	41.64132
	15.03495	41.63903
	15.03202	41.63842
	15.02685	41.63554
	15.02632	41.63508
	15.02511	41.63205
	15.02472	41.63097
	15.02446	41.63
	15.02434	41.62925
	15.02442	41.62848
	15.02483	41.62737
	15.02682	41.62357
	15.02637	41.6233
	15.0254	41.6231
	15.02357	41.62283
	15.01359	41.62281
	15.01221	41.62287
	15.00986	41.62311
	15.00919	41.62327
	14.99871	41.62725
	14.99826	41.62743
	14.99231	41.63005
	14.99132	41.63065
	14.99057	41.63138
	14.99016	41.63245
	14.99018	41.63316
	14.99039	41.63399
	14.99041	41.63502
	14.99042	41.63718
	14.99	41.63813
	14.98956	41.63878
	14.98762	41.63956
	14.98609	41.64007
	14.96085	41.64701
	14.96041	41.64701
	14.95849	41.64613
	14.95802	41.64588
	14.95745	41.64531
	14.9571	41.64484
	14.95678	41.64438
	14.95432	41.63874
	14.95098	41.63493
	14.93888	41.62499
	14.93497	41.62042
	14.93603	41.6177
	14.94103	41.61335
	14.95101	41.59418
	14.95118	41.59364
	14.94864	41.5862
	14.94762	41.58501
	14.94744	41.5833
	14.9494	41.57473
	14.94641	41.56425
	14.94543	41.56226
	14.94514	41.56177
	14.94478	41.56127
	14.94301	41.5599
	14.94265	41.55922
	14.93919	41.55171
	14.93833	41.54854
	14.93788	41.54488
	14.93764	41.5388
	14.93789	41.52883
	14.93801	41.52846
	14.93823	41.52807
	14.93943	41.52618
	14.93984	41.52575
	14.94024	41.5254
	14.94069	41.52504
	14.94132	41.52459
	14.94508	41.52312
	14.94598	41.52281
	14.94661	41.52276
	14.94782	41.52271
	14.96726	41.51999
	14.97084	41.51567
	14.97134	41.5151
	14.9723	41.5142
	14.98093	41.50643
	14.98781	41.50168
	14.98885	41.50121
	14.98935	41.50113
	14.99031	41.50103
	14.99078	41.50089
	14.99127	41.50064
	14.99692	41.49746
	14.99894	41.49621
	15.00352	41.49279
	15.00541	41.491
	15.00587	41.49053
	15.00683	41.48827
	15.00673	41.48825
	15.00654	41.4881
	15.00582	41.48691
	15.0058	41.48679
	15.00578	41.48676
	15.00577	41.48631
	15.00517	41.48626
	15.00411	41.48596
	15.00348	41.48573
	15.00206	41.48527
	15.00135	41.48498
	15.00099	41.48475
	15.00079	41.48454
	15.00006	41.4836
	14.99971	41.48323
	14.99942	41.483
	14.99898	41.48271
	14.99871	41.48249
	14.99801	41.48187
	14.99773	41.48144
	14.99749	41.48113
	14.9971	41.48075
	14.99652	41.48007
	14.99635	41.47985
	14.99607	41.47999
	14.99541	41.48003
	14.99494	41.48011
	14.99447	41.48015
	14.99395	41.48014
	14.99302	41.48019
	14.99252	41.48015
	14.99214	41.48015
	14.99165	41.4802
	14.99117	41.48019
	14.99054	41.48014
	14.99008	41.48005
	14.98921	41.47965
	14.98873	41.47945
	14.98829	41.4793
	14.98767	41.47915
	14.98699	41.47908
	14.98631	41.47911
	14.9858	41.47915
	14.98527	41.47915
	14.98455	41.47913
	14.98394	41.47931
	14.98368	41.4794
	14.98339	41.47942
	14.98321	41.47929
	14.98315	41.47899
	14.98321	41.4787
	14.98352	41.47807
	14.98358	41.47783
	14.98363	41.47748
	14.98364	41.47724
	14.98359	41.47697
	14.98351	41.47677
	14.98317	41.47648
	14.98294	41.47637
	14.98274	41.47625
	14.98274	41.47599
	14.98308	41.47573
	14.98332	41.47557
	14.98352	41.47536
	14.98373	41.47502
	14.98401	41.47465
	14.9843	41.47434
	14.98447	41.47409
	14.9846	41.47334
	14.98456	41.47295
	14.98446	41.47261
	14.9844	41.47234
	14.98422	41.47196
	14.98401	41.47164
	14.98326	41.47026
	14.98307	41.46999
	14.98258	41.46935
	14.98227	41.46907
	14.98092	41.46903
	14.98009	41.46891
	14.97846	41.46888
	14.97773	41.46879
	14.97697	41.46867
	14.97669	41.4686
	14.97633	41.46845
	14.97596	41.46822
	14.97541	41.46781
	14.9751	41.46761
	14.97455	41.46739
	14.9742	41.46726
	14.97306	41.46699
	14.97244	41.46682
	14.97153	41.4666
	14.97095	41.46643
	14.96996	41.4663
	14.96951	41.46629
	14.96897	41.46626
	14.96784	41.46616
	14.96728	41.46604
	14.96668	41.46589
	14.96617	41.46583
	14.9653	41.46576
	14.96441	41.46583
	14.96345	41.46583
	14.96237	41.46577
	14.9622	41.46575
	14.96168	41.46564
	14.96129	41.46554
	14.96091	41.46551
	14.96051	41.46544
	14.96015	41.46528
	14.95965	41.46497
	14.95905	41.46431
	14.95874	41.46389
	14.95848	41.46359
	14.95834	41.46332
	14.95788	41.46265
	14.95755	41.46234
	14.95684	41.46179
	14.95628	41.46151
	14.95574	41.46117
	14.95534	41.46099
	14.95479	41.46072
	14.95424	41.46042
	14.95381	41.46021
	14.95344	41.46001
	14.95327	41.45982
	14.95308	41.45957
	14.95275	41.45896
	14.95257	41.45854
	14.95221	41.45815
	14.9516	41.45814
	14.95156	41.45813
	14.95136	41.45814
	14.95083	41.45839
	14.95051	41.45852
	14.94998	41.45867
	14.94908	41.45888
	14.94852	41.45894
	14.94834	41.45894
	14.94775	41.45882
	14.94744	41.45872
	14.94704	41.45858
	14.94657	41.45838
	14.94632	41.45826
	14.945	41.45785
	14.94471	41.4578
	14.94453	41.4578
	14.94409	41.45784
	14.94376	41.45785
	14.94347	41.45783
	14.94292	41.45771
	14.94256	41.45757
	14.94229	41.45753
	14.94162	41.45734
	14.94105	41.4572
	14.94024	41.45707
	14.93898	41.45677
	14.93766	41.45648
	14.93739	41.45641
	14.9368	41.45616
	14.93632	41.45603
	14.93606	41.45594
	14.93567	41.45578
	14.93533	41.4556
	14.93498	41.45537
	14.93462	41.45525
	14.93442	41.4552
	14.93347	41.45519
	14.93282	41.45516
	14.93251	41.45513
	14.93212	41.45506
	14.93177	41.45496
	14.93151	41.45486
	14.93121	41.45473
	14.93072	41.45448
	14.93012	41.45428
	14.92973	41.45412
	14.92937	41.45395
	14.92922	41.45386
	14.92881	41.45387
	14.92832	41.45384
	14.92793	41.45386
	14.92751	41.45383
	14.92734	41.4538
	14.92679	41.4539
	14.92642	41.45408
	14.9261	41.45419
	14.92586	41.45426
	14.92539	41.45435
	14.92485	41.45443
	14.92423	41.45446
	14.92338	41.45448
	14.92311	41.45447
	14.92258	41.45442
	14.9222	41.45437
	14.92171	41.45427
	14.92146	41.45419
	14.92059	41.45386
	14.91963	41.45337
	14.91955	41.45334
	14.91948	41.45334
	14.919	41.45342
	14.91837	41.45344
	14.91819	41.45371
	14.91808	41.45383
	14.91753	41.45428
	14.91741	41.45435
	14.91693	41.45454
	14.91639	41.45464
	14.91608	41.45466
	14.91588	41.45466
	14.91546	41.45463
	14.91481	41.45444
	14.91469	41.45438
	14.91371	41.4533
	14.91367	41.4532
	14.91353	41.45248
	14.91353	41.45221
	14.91378	41.45221
	14.91358	41.4519
	14.91332	41.45191
	14.91247	41.45187
	14.91209	41.45193
	14.91166	41.45196
	14.91084	41.45188
	14.90981	41.45165
	14.90902	41.45134
	14.90828	41.45096
	14.90739	41.45046
	14.90697	41.4502
	14.90665	41.45002
	14.90581	41.44985
	14.90435	41.44974
	14.9036	41.4496
	14.90285	41.4495
	14.90223	41.44944
	14.90169	41.44948
	14.9013	41.44946
	14.90081	41.44948
	14.90035	41.44942
	14.90002	41.44941
	14.8998	41.44934
	14.89946	41.44932
	14.89868	41.44919
	14.89828	41.44907
	14.89789	41.4489
	14.8974	41.44871
	14.8971	41.44855
	14.89687	41.44846
	14.8964	41.44822
	14.89591	41.44787
	14.89564	41.44772
	14.89526	41.44756
	14.89493	41.44754
	14.89463	41.44755
	14.8943	41.4476
	14.89403	41.44766
	14.89385	41.44768
	14.89339	41.44781
	14.89306	41.44764
	14.8927	41.44754
	14.8925	41.44745
	14.89197	41.44717
	14.89142	41.44684
	14.89106	41.44659
	14.89036	41.44602
	14.89	41.44575
	14.88975	41.44551
	14.88946	41.4453
	14.88887	41.44495
	14.88854	41.44481
	14.8882	41.44472
	14.88796	41.44467
	14.88769	41.44467
	14.88734	41.44464
	14.88699	41.44466
	14.8866	41.44471
	14.88604	41.44483
	14.88571	41.44487
	14.8855	41.44495
	14.88521	41.44499
	14.88494	41.44495
	14.88442	41.44478
	14.88424	41.44467
	14.88411	41.44456
	14.88367	41.44431
	14.88296	41.44383
	14.88271	41.44369
	14.88221	41.44333
	14.88192	41.44304
	14.88082	41.44216
	14.88055	41.44169
	14.88038	41.44129
	14.88019	41.44071
	14.88018	41.44018
	14.88023	41.43992
	14.88026	41.43963
	14.88019	41.4394
	14.87998	41.43915
	14.87961	41.43892
	14.87899	41.4386
	14.8786	41.43842
	14.87779	41.43823
	14.87747	41.43811
	14.87724	41.43792
	14.87695	41.43775
	14.87665	41.43749
	14.87601	41.43703
	14.87576	41.43692
	14.87541	41.43684
	14.87505	41.43661
	14.87479	41.43637
	14.87462	41.4361
	14.87439	41.43568
	14.87444	41.43552
	14.87484	41.43522
	14.87498	41.43497
	14.87492	41.43479
	14.87489	41.43459
	14.87481	41.43428
	14.87473	41.43375
	14.8746	41.4335
	14.87395	41.43293
	14.87336	41.4326
	14.87252	41.43223
	14.87191	41.43192
	14.8714	41.43162
	14.87072	41.43096
	14.87037	41.4307
	14.87005	41.43042
	14.86943	41.42978
	14.86906	41.42935
	14.86861	41.42891
	14.86817	41.42829
	14.8679	41.42798
	14.8677	41.42782
	14.86699	41.42735
	14.8666	41.42715
	14.86568	41.42672
	14.8655	41.42664
	14.86527	41.42656
	14.86457	41.42637
	14.86415	41.42633
	14.86372	41.42635
	14.86345	41.42638
	14.86266	41.42655
	14.86246	41.42657
	14.86201	41.42665
	14.8616	41.42666
	14.86125	41.42663
	14.86034	41.4264
	14.85965	41.42656
	14.85937	41.4265
	14.85902	41.42637
	14.85868	41.42616
	14.85839	41.42591
	14.85824	41.42569
	14.85784	41.42519
	14.85753	41.42496
	14.85715	41.42488
	14.85657	41.4247
	14.85565	41.42469
	14.85506	41.42489
	14.85342	41.42513
	14.8528	41.42528
	14.85218	41.42546
	14.85163	41.42564
	14.85136	41.42566
	14.85122	41.42564
	14.84981	41.42561
	14.84886	41.42562
	14.84829	41.42567
	14.84764	41.42569
	14.84697	41.42577
	14.84629	41.42579
	14.84571	41.42593
	14.84451	41.42619
	14.84401	41.42637
	14.84312	41.42661
	14.84256	41.42688
	14.84119	41.42764
	14.84036	41.42813
	14.83993	41.4283
	14.83783	41.42898
	14.83724	41.42925
	14.83678	41.42961
	14.83638	41.42989
	14.83607	41.43013
	14.8359	41.43027
	14.8357	41.43048
	14.83563	41.43074
	14.83559	41.43104
	14.83559	41.43152
	14.83549	41.43196
	14.83528	41.43226
	14.8351	41.43233
	14.8339	41.43255
	14.83269	41.43274
	14.83203	41.43282
	14.83168	41.43289
	14.83125	41.433
	14.83082	41.43317
	14.83054	41.43326
	14.82991	41.43334
	14.82965	41.43334
	14.82937	41.43331
	14.82903	41.43336
	14.82862	41.4333
	14.82718	41.43355
	14.82562	41.43429
	14.82526	41.43438
	14.82484	41.43452
	14.82444	41.43468
	14.82404	41.43506
	14.82396	41.4353
	14.82379	41.43549
	14.8234	41.43578
	14.82294	41.43604
	14.82271	41.4362
	14.82248	41.4364
	14.82223	41.43655
	14.82194	41.43676
	14.82158	41.43705
	14.82032	41.43795
	14.82001	41.43815
	14.81949	41.43842
	14.81933	41.43847
	14.81917	41.43854
	14.81861	41.43871
	14.81828	41.43879
	14.8175	41.43904
	14.81728	41.43909
	14.81714	41.43914
	14.81687	41.4392
	14.81638	41.43924
	14.81585	41.43925
	14.81521	41.43931
	14.81438	41.43951
	14.81321	41.43969
	14.81286	41.43984
	14.81262	41.43996
	14.81238	41.44011
	14.81196	41.44058
	14.81167	41.44083
	14.81156	41.44101
	14.81148	41.44138
	14.81149	41.44172
	14.81145	41.44203
	14.81129	41.44269
	14.81067	41.44348
	14.81041	41.44368
	14.8102	41.44387
	14.8096	41.44465
	14.80948	41.44486
	14.8094	41.44517
	14.80931	41.44544
	14.80885	41.44592
	14.80845	41.4461
	14.80804	41.44631
	14.80752	41.44662
	14.80721	41.44688
	14.80685	41.44702
	14.80665	41.44721
	14.80634	41.44736
	14.80593	41.44754
	14.80562	41.44765
	14.8052	41.4477
	14.80434	41.44769
	14.80395	41.44776
	14.80347	41.44806
	14.80327	41.44828
	14.80293	41.44848
	14.80251	41.44859
	14.80187	41.44882
	14.80099	41.44905
	14.80032	41.44926
	14.80009	41.44936
	14.79969	41.44959
	14.79854	41.45007
	14.798	41.45024
	14.79743	41.4504
	14.79651	41.45074
	14.79613	41.45102
	14.79538	41.45137
	14.79506	41.45149
	14.79463	41.45163
	14.79433	41.45163
	14.7939	41.45169
	14.79318	41.45175
	14.79285	41.4518
	14.79258	41.45189
	14.79229	41.45193
	14.79181	41.45197
	14.79149	41.45201
	14.79113	41.45202
	14.79076	41.45205
	14.79027	41.45199
	14.79018	41.45255
	14.79002	41.4525
	14.78969	41.45254
	14.78888	41.45279
	14.78852	41.4528
	14.78815	41.45273
	14.787	41.45257
	14.78669	41.4525
	14.78646	41.45248
	14.78594	41.45237
	14.78545	41.45225
	14.78494	41.45209
	14.78384	41.45167
	14.78331	41.45144
	14.78291	41.45124
	14.78257	41.45109
	14.7821	41.45084
	14.78165	41.45063
	14.7812	41.45028
	14.78083	41.45002
	14.78055	41.44988
	14.78017	41.44966
	14.77984	41.44942
	14.77961	41.44928
	14.77913	41.44906
	14.7789	41.44898
	14.77869	41.44887
	14.77815	41.44854
	14.77797	41.44841
	14.77707	41.44767
	14.7767	41.44743
	14.7757	41.44673
	14.77514	41.44627
	14.77482	41.44604
	14.77456	41.44591
	14.77426	41.44574
	14.77396	41.44553
	14.77369	41.44523
	14.77323	41.4441
	14.77307	41.44387
	14.7729	41.44355
	14.77283	41.44337
	14.77272	41.44315
	14.77254	41.4429
	14.77176	41.4424
	14.77154	41.44221
	14.7713	41.44185
	14.77115	41.44137
	14.7711	41.44112
	14.77089	41.44045
	14.77115	41.43988
	14.77124	41.43959
	14.77138	41.43938
	14.77154	41.43924
	14.77177	41.43908
	14.77195	41.43878
	14.77212	41.43832
	14.77232	41.43729
	14.77249	41.43677
	14.7726	41.43657
	14.7726	41.43625
	14.77265	41.43584
	14.7726	41.4352
	14.77249	41.43443
	14.7725	41.43423
	14.77239	41.43384
	14.77233	41.43351
	14.77181	41.43285
	14.77131	41.4324
	14.77094	41.43189
	14.7701	41.4308
	14.76979	41.43031
	14.76943	41.42991
	14.76899	41.42931
	14.76869	41.42882
	14.76836	41.42843
	14.76802	41.42807
	14.76768	41.42775
	14.76746	41.42757
	14.76731	41.42742
	14.76711	41.42716
	14.76698	41.42684
	14.76692	41.42652
	14.76679	41.42611
	14.76633	41.42534
	14.76619	41.4252
	14.76596	41.42507
	14.76549	41.42501
	14.7651	41.42491
	14.76463	41.42467
	14.76423	41.42439
	14.76385	41.42403
	14.76367	41.42372
	14.76357	41.42313
	14.76366	41.42268
	14.76393	41.42231
	14.76412	41.422
	14.76449	41.42163
	14.76471	41.42137
	14.76505	41.4211
	14.76532	41.42082
	14.76562	41.42041
	14.76563	41.42018
	14.76572	41.41977
	14.76575	41.41938
	14.76571	41.419
	14.76557	41.4185
	14.76541	41.4182
	14.76518	41.4179
	14.76501	41.41775
	14.7647	41.41737
	14.76258	41.41694
	14.76203	41.41675
	14.7611	41.41632
	14.76047	41.41605
	14.7599	41.41588
	14.759	41.41552
	14.75852	41.41537
	14.75815	41.4151
	14.75779	41.41481
	14.75713	41.41397
	14.75695	41.41362
	14.75664	41.41319
	14.75635	41.41275
	14.7561	41.41227
	14.75584	41.41187
	14.7556	41.41143
	14.75516	41.41091
	14.75438	41.41032
	14.75387	41.41
	14.75301	41.40961
	14.75238	41.40939
	14.75195	41.40914
	14.75134	41.40888
	14.75086	41.40873
	14.75005	41.40857
	14.74947	41.40852
	14.74917	41.40848
	14.74871	41.40845
	14.74813	41.40845
	14.74743	41.4085
	14.74681	41.40851
	14.74619	41.40854
	14.74556	41.40853
	14.74512	41.40848
	14.74418	41.40834
	14.74382	41.40831
	14.74279	41.40819
	14.74205	41.40801
	14.74186	41.40799
	14.74149	41.40747
	14.74129	41.40723
	14.74095	41.40688
	14.74044	41.40642
	14.74009	41.40622
	14.74006	41.40619
	14.73946	41.40585
	14.73903	41.40569
	14.73756	41.40517
	14.73725	41.40509
	14.73665	41.40498
	14.736	41.40497
	14.73572	41.40501
	14.7352	41.40516
	14.73502	41.40523
	14.73495	41.40524
	14.73392	41.40522
	14.73315	41.4053
	14.7329	41.40534
	14.7324	41.40545
	14.73186	41.40559
	14.73163	41.40567
	14.73135	41.40558
	14.73102	41.40545
	14.73054	41.40525
	14.72969	41.40485
	14.72885	41.40455
	14.72867	41.40445
	14.72787	41.40519
	14.72772	41.40526
	14.72653	41.40544
	14.72605	41.40535
	14.72543	41.4052
	14.72374	41.40486
	14.72354	41.40481
	14.72322	41.40481
	14.72275	41.40475
	14.72147	41.40453
	14.72073	41.40438
	14.71998	41.40418
	14.71923	41.40392
	14.71802	41.40136
	14.71834	41.40121
	14.71811	41.40115
	14.71728	41.40083
	14.71686	41.40078
	14.71657	41.40076
	14.71618	41.40077
	14.71583	41.40081
	14.71531	41.40092
	14.71481	41.401
	14.71399	41.40128
	14.71356	41.40133
	14.71305	41.40146
	14.71271	41.40153
	14.71227	41.40168
	14.71194	41.40175
	14.71159	41.40189
	14.71124	41.40213
	14.71088	41.40241
	14.71055	41.40263
	14.71025	41.40285
	14.70972	41.40346
	14.70938	41.40374
	14.70914	41.40396
	14.70885	41.4041
	14.70846	41.40422
	14.70794	41.40432
	14.70743	41.40435
	14.70697	41.40441
	14.7066	41.40453
	14.70618	41.40476
	14.70569	41.40514
	14.70497	41.40573
	14.70477	41.40595
	14.70447	41.40621
	14.70428	41.40652
	14.70413	41.40692
	14.70395	41.40721
	14.70378	41.40759
	14.70379	41.40826
	14.70376	41.40852
	14.70376	41.40871
	14.70361	41.40897
	14.70321	41.40923
	14.70288	41.40951
	14.70262	41.40977
	14.70247	41.40989
	14.70218	41.41003
	14.69991	41.41077
	14.69962	41.41084
	14.69917	41.411
	14.69886	41.41116
	14.69851	41.41123
	14.69817	41.41119
	14.69787	41.41114
	14.69748	41.41111
	14.69656	41.4111
	14.69584	41.41101
	14.69525	41.41091
	14.69494	41.41084
	14.69463	41.4108
	14.69425	41.41077
	14.69395	41.41077
	14.69351	41.4107
	14.69316	41.41066
	14.69236	41.41059
	14.69203	41.41062
	14.69113	41.41067
	14.69071	41.41074
	14.69027	41.41092
	14.68969	41.41108
	14.68914	41.41127
	14.68858	41.41132
	14.68793	41.4116
	14.68668	41.41192
	14.68633	41.41171
	14.68593	41.41153
	14.68555	41.41134
	14.68513	41.41116
	14.68475	41.41098
	14.68446	41.41083
	14.68363	41.41036
	14.68316	41.41015
	14.68274	41.41006
	14.68242	41.41001
	14.68207	41.40983
	14.68186	41.40967
	14.68144	41.40923
	14.68116	41.40927
	14.68086	41.40936
	14.68051	41.40927
	14.68022	41.40915
	14.67997	41.40901
	14.67981	41.40889
	14.67954	41.40874
	14.67939	41.40862
	14.67915	41.40853
	14.67805	41.4083
	14.67773	41.4082
	14.67736	41.40804
	14.67705	41.40784
	14.67639	41.4076
	14.67568	41.40755
	14.67523	41.4074
	14.67473	41.40733
	14.67436	41.40724
	14.67394	41.40717
	14.67327	41.40707
	14.67295	41.40704
	14.6727	41.40698
	14.67237	41.40687
	14.67144	41.40664
	14.67102	41.40659
	14.67069	41.40658
	14.66995	41.40652
	14.66966	41.40653
	14.66932	41.40647
	14.66888	41.40643
	14.66842	41.40647
	14.66698	41.40655
	14.66606	41.40653
	14.66562	41.40655
	14.66527	41.40658
	14.66413	41.40681
	14.66383	41.40691
	14.66364	41.40695
	14.66359	41.40673
	14.6634	41.40654
	14.66296	41.40634
	14.66269	41.40624
	14.66235	41.40616
	14.66199	41.40611
	14.66149	41.406
	14.66144	41.40574
	14.66152	41.40551
	14.66152	41.40508
	14.66139	41.40479
	14.66125	41.40458
	14.66106	41.4044
	14.66083	41.40411
	14.66072	41.4039
	14.66062	41.40359
	14.66062	41.40337
	14.66083	41.40306
	14.66099	41.40289
	14.66111	41.40271
	14.66129	41.40223
	14.66146	41.40195
	14.66161	41.40172
	14.6618	41.40154
	14.6621	41.40129
	14.66267	41.40096
	14.66371	41.40065
	14.6641	41.40055
	14.66441	41.40052
	14.66486	41.40045
	14.66518	41.40033
	14.66543	41.40012
	14.66576	41.39947
	14.66583	41.39904
	14.66584	41.39866
	14.66578	41.39834
	14.66577	41.39795
	14.66572	41.39767
	14.66558	41.39738
	14.6654	41.39715
	14.66521	41.39703
	14.66489	41.39688
	14.66461	41.39671
	14.6642	41.39649
	14.6638	41.39597
	14.66365	41.39544
	14.6635	41.39509
	14.66336	41.39462
	14.66325	41.39442
	14.66288	41.39412
	14.66263	41.39407
	14.66235	41.39406
	14.66212	41.394
	14.66188	41.39388
	14.6615	41.39352
	14.66117	41.39335
	14.66085	41.39315
	14.66034	41.39328
	14.66012	41.39342
	14.65982	41.39352
	14.65963	41.39366
	14.65955	41.39382
	14.6595	41.3941
	14.65937	41.39435
	14.65927	41.3946
	14.65911	41.39485
	14.6588	41.39525
	14.65854	41.39543
	14.65816	41.39555
	14.65779	41.39574
	14.65738	41.39624
	14.65725	41.3965
	14.65703	41.39672
	14.65667	41.39686
	14.65636	41.39694
	14.65611	41.39708
	14.65581	41.3972
	14.65554	41.39717
	14.65518	41.39725
	14.65471	41.39749
	14.65442	41.39756
	14.65407	41.39759
	14.65376	41.39756
	14.65306	41.39766
	14.65277	41.39775
	14.65251	41.39776
	14.65185	41.39754
	14.65106	41.39748
	14.65059	41.39738
	14.65035	41.39719
	14.64998	41.39699
	14.64978	41.39684
	14.64954	41.39675
	14.64898	41.39651
	14.64867	41.39635
	14.64824	41.39602
	14.64776	41.39582
	14.64738	41.39561
	14.6471	41.39549
	14.64566	41.39495
	14.64481	41.39441
	14.6445	41.39424
	14.6442	41.3942
	14.64378	41.39418
	14.64341	41.39402
	14.64319	41.39379
	14.64293	41.39336
	14.64281	41.39308
	14.64261	41.39286
	14.64227	41.39261
	14.64177	41.39221
	14.64141	41.39196
	14.64068	41.39164
	14.63983	41.39141
	14.63931	41.39121
	14.63884	41.39098
	14.63798	41.3905
	14.63726	41.39005
	14.63654	41.38935
	14.6364	41.38909
	14.63602	41.38889
	14.63578	41.38868
	14.63534	41.3884
	14.63466	41.38806
	14.63439	41.38788
	14.63378	41.38743
	14.63321	41.38691
	14.63276	41.38629
	14.63223	41.38575
	14.63197	41.38545
	14.6317	41.38524
	14.63135	41.38491
	14.63062	41.38396
	14.63038	41.38357
	14.63017	41.38315
	14.62993	41.38238
	14.62992	41.38205
	14.62989	41.38177
	14.62963	41.38129
	14.62927	41.38039
	14.62919	41.3801
	14.6292	41.37958
	14.62912	41.37937
	14.62899	41.37921
	14.62885	41.37907
	14.62879	41.37893
	14.62846	41.37866
	14.62814	41.3785
	14.62783	41.37832
	14.62731	41.37799
	14.62706	41.37781
	14.6268	41.37759
	14.62622	41.37716
	14.62604	41.37699
	14.62576	41.37668
	14.62553	41.37651
	14.62515	41.37616
	14.62496	41.37602
	14.62475	41.37588
	14.62353	41.37515
	14.62303	41.37479
	14.62212	41.37424
	14.62148	41.37379
	14.62116	41.37362
	14.62063	41.37319
	14.62038	41.37296
	14.61981	41.37258
	14.61943	41.37238
	14.61914	41.37212
	14.61887	41.37192
	14.61861	41.37177
	14.61821	41.37161
	14.61798	41.37146
	14.61754	41.37114
	14.61701	41.37069
	14.61672	41.37046
	14.61637	41.37021
	14.61606	41.36992
	14.61583	41.36967
	14.61541	41.3691
	14.61519	41.36886
	14.61496	41.36864
	14.61464	41.36824
	14.61412	41.36821
	14.61387	41.36818
	14.61361	41.36817
	14.61329	41.36817
	14.61283	41.36821
	14.61222	41.36814
	14.61195	41.36814
	14.61167	41.36818
	14.61111	41.36829
	14.61034	41.36846
	14.60988	41.3685
	14.60964	41.36849
	14.60948	41.36841
	14.60917	41.36837
	14.60893	41.36838
	14.60842	41.36848
	14.60824	41.36838
	14.60801	41.36818
	14.60778	41.36809
	14.60724	41.36768
	14.60688	41.36738
	14.60673	41.36722
	14.60608	41.3668
	14.60586	41.36671
	14.60548	41.36651
	14.60496	41.36609
	14.60469	41.36584
	14.60444	41.36564
	14.60406	41.36528
	14.60391	41.36508
	14.60358	41.3647
	14.60341	41.36443
	14.60304	41.36396
	14.60255	41.36432
	14.60207	41.36452
	14.60172	41.36476
	14.60143	41.36486
	14.60046	41.36534
	14.59968	41.36594
	14.5991	41.36642
	14.59867	41.36667
	14.59794	41.36729
	14.59766	41.36748
	14.59735	41.36762
	14.59688	41.36772
	14.59648	41.36787
	14.59599	41.36791
	14.59528	41.36802
	14.59451	41.36807
	14.59376	41.36818
	14.59338	41.36833
	14.59306	41.36842
	14.59262	41.36874
	14.59239	41.36887
	14.59219	41.36902
	14.59184	41.36925
	14.59143	41.36955
	14.59101	41.36977
	14.59074	41.36986
	14.59044	41.36999
	14.59011	41.37008
	14.58952	41.37027
	14.58917	41.37031
	14.58878	41.37039
	14.58844	41.37043
	14.5881	41.37054
	14.58784	41.37065
	14.58742	41.37067
	14.58701	41.37077
	14.58666	41.3709
	14.58545	41.37114
	14.58524	41.37138
	14.58494	41.37155
	14.58468	41.37179
	14.58452	41.37197
	14.5844	41.37219
	14.58437	41.37246
	14.58457	41.37267
	14.5852	41.37286
	14.58595	41.37312
	14.58778	41.37372
	14.58844	41.37414
	14.58875	41.37439
	14.58888	41.37465
	14.58895	41.37507
	14.58888	41.37535
	14.58886	41.37561
	14.58886	41.37594
	14.58877	41.37626
	14.5886	41.37663
	14.58796	41.3776
	14.58784	41.37782
	14.58765	41.37828
	14.58741	41.37868
	14.58726	41.37886
	14.58686	41.37952
	14.58624	41.38042
	14.58596	41.38065
	14.58568	41.38095
	14.58539	41.3812
	14.58511	41.38137
	14.58488	41.38154
	14.58404	41.38155
	14.58338	41.38146
	14.58306	41.38153
	14.58294	41.38168
	14.58278	41.38184
	14.5826	41.38205
	14.58223	41.38223
	14.58165	41.38258
	14.58129	41.38278
	14.58105	41.38302
	14.5808	41.38335
	14.58077	41.38336
	14.58067	41.38295
	14.58033	41.38303
	14.5801	41.3831
	14.5795	41.38336
	14.57926	41.38351
	14.5789	41.38379
	14.57829	41.38438
	14.57799	41.38476
	14.57786	41.38497
	14.5777	41.38534
	14.5773	41.38546
	14.57693	41.38563
	14.57679	41.38571
	14.57638	41.38604
	14.57625	41.38618
	14.57595	41.38658
	14.57579	41.38686
	14.57571	41.38704
	14.57558	41.38741
	14.57553	41.38776
	14.57494	41.38842
	14.57491	41.38851
	14.57485	41.38946
	14.57487	41.38956
	14.57504	41.38989
	14.5749	41.38999
	14.57459	41.39013
	14.57434	41.39022
	14.5739	41.39023
	14.57348	41.39029
	14.57301	41.39029
	14.56965	41.39116
	14.56896	41.39128
	14.56834	41.39156
	14.568	41.39178
	14.56755	41.39195
	14.56694	41.39214
	14.56661	41.39219
	14.56633	41.39213
	14.56586	41.39183
	14.56546	41.3916
	14.56503	41.39131
	14.56424	41.39068
	14.56367	41.39016
	14.56311	41.38968
	14.56265	41.38926
	14.56171	41.38817
	14.56086	41.38681
	14.56054	41.38641
	14.56016	41.38608
	14.55964	41.38582
	14.55911	41.38567
	14.55836	41.38541
	14.55788	41.3852
	14.55737	41.38494
	14.55694	41.38455
	14.55656	41.38408
	14.5561	41.38355
	14.55572	41.38317
	14.55533	41.38274
	14.55489	41.38229
	14.55454	41.38188
	14.55401	41.38138
	14.55322	41.38052
	14.55245	41.37975
	14.55212	41.37954
	14.55182	41.37943
	14.55152	41.37939
	14.55129	41.37946
	14.55031	41.38026
	14.5499	41.38036
	14.54941	41.38055
	14.5489	41.38073
	14.5484	41.38093
	14.54746	41.38106
	14.54677	41.3812
	14.546	41.38142
	14.54501	41.38139
	14.54407	41.38146
	14.54223	41.38162
	14.54109	41.38177
	14.53995	41.38185
	14.53892	41.38199
	14.53699	41.38232
	14.53551	41.38242
	14.53433	41.38256
	14.53198	41.38306
	14.53152	41.38331
	14.53127	41.38333
	14.53072	41.3835
	14.52966	41.38377
	14.52909	41.38413
	14.52838	41.38433
	14.52735	41.38446
	14.52636	41.38463
	14.52595	41.38463
	14.52554	41.38466
	14.52526	41.38471
	14.52436	41.38493
	14.52341	41.38519
	14.5228	41.3853
	14.5223	41.38522
	14.52163	41.38501
	14.52108	41.38482
	14.52018	41.38439
	14.51951	41.38411
	14.51903	41.38398
	14.5184	41.38386
	14.51735	41.38371
	14.51655	41.38362
	14.51481	41.38365
	14.514	41.38362
	14.51352	41.38364
	14.5129	41.38334
	14.51247	41.38297
	14.51194	41.38264
	14.51089	41.38206
	14.51033	41.38184
	14.50965	41.3817
	14.50899	41.38163
	14.5083	41.38163
	14.50745	41.38185
	14.50652	41.38206
	14.5064	41.38219
	14.50559	41.38237
	14.50511	41.38263
	14.5049	41.38287
	14.50456	41.38312
	14.50445	41.38333
	14.50436	41.38377
	14.50394	41.38433
	14.50364	41.38465
	14.50137	41.38598
	14.50095	41.38728
	14.50005	41.38785
	14.49784	41.38809
	14.49636	41.38814
	14.4948	41.38872
	14.49386	41.389
	14.49291	41.38902
	14.49135	41.38951
	14.48869	41.39065
	14.48798	41.39176
	14.48624	41.39515
	14.48538	41.39643
	14.48449	41.39804
	14.48452	41.39852
	14.48492	41.39902
	14.48485	41.39958
	14.48352	41.40056
	14.48292	41.40194
	14.48275	41.4023
	14.48284	41.40266
	14.48291	41.40281
	14.48325	41.40476
	14.48307	41.40527
	14.47899	41.40685
	14.47866	41.40773
	14.4782	41.4088
	14.47784	41.41009
	14.48047	41.41126
	14.48134	41.41232
	14.48202	41.41304
	14.48252	41.4137
	14.48149	41.41508
	14.48011	41.41658
	14.47751	41.41901
	14.47652	41.41914
	14.47434	41.41916
	14.47271	41.41974
	14.47169	41.4197
	14.46999	41.4205
	14.4691	41.42045
	14.46661	41.41973
	14.46585	41.41978
	14.46045	41.42372
	14.45871	41.42523
	14.45661	41.42607
	14.4562	41.42707
	14.45601	41.42727
	14.45533	41.42779
	14.45417	41.42786
	14.45468	41.42629
	14.45198	41.42543
	14.45189	41.42547
	14.45143	41.4258
	14.45111	41.42616
	14.45089	41.42652
	14.45066	41.42701
	14.4502	41.42703
	14.44952	41.4271
	14.44924	41.42717
	14.44887	41.42719
	14.44862	41.42722
	14.44819	41.4273
	14.44752	41.42737
	14.44703	41.42747
	14.44659	41.42754
	14.44641	41.42753
	14.44576	41.42741
	14.44532	41.42716
	14.44492	41.427
	14.4443	41.4269
	14.44396	41.42692
	14.44379	41.42687
	14.44209	41.42681
	14.44028	41.42698
	14.43954	41.42711
	14.43926	41.42685
	14.43884	41.4265
	14.43832	41.42614
	14.43815	41.42595
	14.43805	41.42586
	14.43765	41.42565
	14.43769	41.42559
	14.43756	41.42551
	14.43695	41.42527
	14.43665	41.4252
	14.43641	41.42516
	14.4361	41.42514
	14.43563	41.42515
	14.43551	41.42517
	14.43508	41.42529
	14.43497	41.42533
	14.43453	41.42557
	14.43445	41.42563
	14.43393	41.42619
	14.43378	41.42643
	14.43364	41.42671
	14.43359	41.42682
	14.43344	41.42759
	14.43344	41.42771
	14.43355	41.42836
	14.43357	41.42841
	14.43274	41.42859
	14.42874	41.42883
	14.42764	41.42913
	14.42709	41.4311
	14.42635	41.43171
	14.42275	41.43158
	14.42143	41.43165
	14.42075	41.43314
	14.41937	41.43511
	14.41882	41.43536
	14.41746	41.43737
	14.41649	41.43967
	14.41554	41.4405
	14.41443	41.44103
	14.41245	41.44123
	14.40713	41.43924
	14.4057	41.43854
	14.40452	41.43811
	14.40306	41.43777
	14.40096	41.43721
	14.39983	41.43761
	14.39778	41.43872
	14.3969	41.43917
	14.39578	41.43999
	14.39518	41.44024
	14.39405	41.44085
	14.39335	41.44119
	14.39215	41.44181
	14.38993	41.4429
	14.38876	41.44321
	14.3877	41.4433
	14.386	41.44284
	14.38255	41.44317
	14.36003	41.44953
	14.34306	41.45507
	14.34101	41.45535
	14.33812	41.45535
	14.33667	41.45521
	14.33501	41.45503
	14.33343	41.45472
	14.33225	41.45452
	14.33094	41.45437
	14.32981	41.45432
	14.32841	41.45435
	14.32804	41.45443
	14.31567	41.46115
	14.30998	41.46514
	14.30887	41.46581
	14.30775	41.46639
	14.30559	41.46742
	14.29878	41.46967
	14.29329	41.4704
	14.28516	41.47309
	14.28813	41.4735
	14.28858	41.47361
	14.28919	41.47379
	14.28964	41.47395
	14.29016	41.47422
	14.29049	41.47449
	14.29302	41.47733
	14.2924	41.47813
	14.29105	41.47924
	14.28991	41.48001
	14.28846	41.48053
	14.2874	41.4808
	14.28626	41.48103
	14.28246	41.48345
	14.28001	41.48737
	14.27961	41.48719
	14.27844	41.48684
	14.2642	41.4853
	14.26187	41.48514
	14.25597	41.48499
	14.2503	41.48554
	14.24951	41.48594
	14.24805	41.48695
	14.24753	41.48791
	14.24513	41.49253
	14.24251	41.49765
	14.24163	41.49819
	14.23858	41.49855
	14.23322	41.49889
	14.22878	41.499
	14.21693	41.49783
	14.21548	41.49845
	14.21205	41.4995
	14.20573	41.50092
	14.20305	41.50065
	14.19153	41.49876
	14.17554	41.50097
	14.17467	41.5017
	14.16907	41.4965
	14.16819	41.49541
	14.16789	41.4942
	14.16733	41.4904
	14.16653	41.48039
	14.16616	41.47977
	14.16585	41.47977
	14.16099	41.48057
	14.16	41.48081
	14.15827	41.48126
	14.15362	41.48313
	14.15253	41.48365
	14.1329	41.50133
	14.12615	41.50835
	14.12351	41.50828
	14.12164	41.50799
	14.12039	41.50751
	14.1195	41.50613
	14.11942	41.50493
	14.11959	41.50211
	14.11943	41.49822
	14.11926	41.4976
	14.10878	41.48651
	14.10429	41.48466
	14.10072	41.48226
	14.09929	41.48049
	14.09885	41.47952
	14.09689	41.47808
	14.09513	41.47532
	14.09749	41.47381
	14.09648	41.47298
	14.09394	41.47411
	14.09357	41.47413
	14.0939	41.47288
	14.09327	41.47253
	14.09311	41.47167
	14.09299	41.47091
	14.09102	41.47075
	14.091	41.47021
	14.0898	41.46981
	14.08815	41.46923
	14.08582	41.46888
	14.08557	41.46833
	14.08604	41.46764
	14.08676	41.4669
	14.08689	41.46611
	14.08634	41.46563
	14.08507	41.46542
	14.08224	41.46542
	14.08158	41.46511
	14.08207	41.46426
	14.08229	41.46401
	14.08308	41.4624
	14.08379	41.46196
	14.08646	41.46236
	14.08694	41.46045
	14.07925	41.44807
	14.07924	41.44769
	14.07928	41.44749
	14.07965	41.44665
	14.08021	41.44588
	14.0852	41.44064
	14.10072	41.42652
	14.10241	41.42582
	14.10484	41.42492
	14.10591	41.42439
	14.10611	41.42425
	14.10699	41.42219
	14.10837	41.41743
	14.10796	41.41692
	14.10571	41.41167
	14.10418	41.40526
	14.10408	41.40442
	14.10432	41.40327
	14.10442	41.40314
	14.11438	41.39114
	14.11575	41.39031
	14.11232	41.38743
	14.09699	41.39119
	14.09582	41.39182
	14.09473	41.39277
	14.09401	41.39375
	14.09339	41.39466
	14.09278	41.39579
	14.09257	41.39638
	14.09202	41.39749
	14.09113	41.39842
	14.09033	41.39919
	14.0893	41.39977
	14.08565	41.40103
	14.08435	41.40114
	14.06222	41.39914
	14.06151	41.39903
	14.0557	41.39776
	14.05425	41.39737
	14.04327	41.39377
	14.04216	41.39455
	14.0407	41.39578
	14.03985	41.39661
	14.02957	41.40937
	14.03038	41.41119
	14.03086	41.41289
	14.03068	41.41356
	14.03026	41.41413
	14.02746	41.41768
	14.02666	41.41836
	14.02401	41.41923
	14.01857	41.42441
	14.01747	41.42512
	14.01629	41.42522
	14.01507	41.42504
	14.01384	41.42478
	14.01302	41.42471
	14.0104	41.42476
	14.00846	41.42512
	14.00655	41.42556
	14.0059	41.426
	14.00159	41.43192
	14.00223	41.43226
	14.00294	41.43282
	14.00442	41.4342
	14.00573	41.43558
	14.00846	41.43954
	14.0089	41.44056
	14.0093	41.44209
	14.00947	41.44286
	14.01011	41.44656
	14.00988	41.44772
	14.00957	41.44909
	14.00897	41.4508
	14.00855	41.45181
	14.00792	41.45287
	14.00666	41.45383
	14.00357	41.45475
	14.00231	41.45511
	13.99006	41.45829
	13.98859	41.45841
	13.98726	41.45868
	13.98619	41.45906
	13.98065	41.46195
	13.97989	41.46257
	13.9779	41.46249
	13.97843	41.46342
	13.97882	41.46415
	13.97909	41.46492
	13.97936	41.46587
	13.97976	41.46676
	13.9801	41.46754
	13.98042	41.46813
	13.98079	41.46867
	13.98128	41.46945
	13.9816	41.46996
	13.98129	41.47043
	13.98102	41.47084
	13.98089	41.47111
	13.9807	41.47146
	13.98052	41.47177
	13.98085	41.47192
	13.9811	41.47204
	13.98136	41.47215
	13.98175	41.47241
	13.982	41.47257
	13.98226	41.47275
	13.98267	41.47295
	13.98344	41.47317
	13.9843	41.47358
	13.98462	41.47378
	13.98485	41.47389
	13.98504	41.47402
	13.98523	41.47426
	13.98548	41.47452
	13.98566	41.47474
	13.98587	41.47494
	13.98609	41.47511
	13.98632	41.47539
	13.98651	41.47562
	13.98665	41.4758
	13.98682	41.47601
	13.98701	41.47625
	13.98727	41.4766
	13.98739	41.47681
	13.98751	41.47711
	13.98758	41.47737
	13.98772	41.47767
	13.98783	41.47793
	13.98791	41.47813
	13.9881	41.4783
	13.98834	41.47846
	13.98862	41.47865
	13.98882	41.47911
	13.98891	41.47937
	13.98895	41.47961
	13.98902	41.47998
	13.98926	41.48032
	13.98957	41.48052
	13.9899	41.48065
	13.99011	41.48081
	13.99047	41.48104
	13.99072	41.48114
	13.9912	41.48121
	13.99153	41.48128
	13.99182	41.48134
	13.99223	41.48153
	13.99252	41.48179
	13.99278	41.48208
	13.99253	41.48244
	13.99229	41.4827
	13.99206	41.48295
	13.9918	41.48315
	13.99152	41.48347
	13.99116	41.48368
	13.99078	41.48388
	13.99048	41.48401
	13.99013	41.48412
	13.98983	41.48419
	13.98936	41.48434
	13.98876	41.4845
	13.98848	41.48442
	13.98797	41.48455
	13.98772	41.48471
	13.98743	41.48477
	13.98712	41.48476
	13.98664	41.48468
	13.98636	41.48485
	13.98613	41.48512
	13.98575	41.48538
	13.98544	41.48529
	13.98523	41.48515
	13.985	41.48499
	13.98476	41.48481
	13.98436	41.48467
	13.98387	41.48476
	13.98367	41.48507
	13.98361	41.48542
	13.98364	41.48577
	13.98372	41.48607
	13.98381	41.48638
	13.98382	41.48669
	13.98371	41.48692
	13.98332	41.48712
	13.98203	41.48803
	13.98176	41.48831
	13.9815	41.48852
	13.9812	41.48882
	13.98098	41.48909
	13.98083	41.4894
	13.98069	41.48967
	13.98045	41.49002
	13.98021	41.49026
	13.97996	41.49048
	13.97971	41.49068
	13.97941	41.49094
	13.97917	41.49109
	13.97875	41.49117
	13.97835	41.49118
	13.97798	41.49122
	13.97761	41.4914
	13.97743	41.49166
	13.97737	41.49193
	13.97731	41.49218
	13.97732	41.49244
	13.97736	41.4927
	13.97735	41.49305
	13.97717	41.49335
	13.97686	41.49321
	13.97659	41.49304
	13.97632	41.49289
	13.97612	41.49272
	13.97589	41.49251
	13.97567	41.49228
	13.97529	41.49211
	13.97495	41.49211
	13.97448	41.49214
	13.97404	41.49219
	13.97366	41.49225
	13.97342	41.49235
	13.9731	41.49255
	13.97289	41.49279
	13.97277	41.49311
	13.97269	41.49341
	13.97275	41.49371
	13.97291	41.49404
	13.97315	41.49434
	13.9735	41.49466
	13.97384	41.49496
	13.97421	41.49527
	13.97455	41.4956
	13.97478	41.4959
	13.975	41.49633
	13.97519	41.49671
	13.97544	41.49694
	13.97564	41.497
	13.97598	41.49697
	13.97621	41.4969
	13.97648	41.49684
	13.977	41.4967
	13.97734	41.4968
	13.97748	41.49697
	13.97758	41.4973
	13.97764	41.4976
	13.97775	41.49792
	13.9778	41.49829
	13.97778	41.49858
	13.9777	41.49888
	13.97769	41.49908
	13.9777	41.49929
	13.9778	41.49968
	13.97794	41.5002
	13.97803	41.50072
	13.97816	41.50084
	13.97838	41.50094
	13.97865	41.50095
	13.97922	41.50112
	13.97954	41.50123
	13.98003	41.50145
	13.98053	41.50164
	13.98102	41.50185
	13.98121	41.50193
	13.98162	41.50212
	13.98237	41.50253
	13.98278	41.50281
	13.98341	41.50309
	13.9839	41.5034
	13.98448	41.50378
	13.98488	41.50401
	13.98544	41.50434
	13.98613	41.50473
	13.9868	41.50503
	13.9872	41.50521
	13.98759	41.50542
	13.98813	41.5056
	13.98863	41.50581
	13.98921	41.50597
	13.98953	41.50608
	13.99006	41.50634
	13.99042	41.50669
	13.99083	41.50709
	13.99105	41.50739
	13.99126	41.50772
	13.99154	41.50825
	13.99188	41.50879
	13.9923	41.50941
	13.99252	41.50994
	13.99275	41.51037
	13.993	41.51083
	13.99325	41.51133
	13.99371	41.51192
	13.99401	41.5123
	13.99444	41.51271
	13.99473	41.51292
	13.99503	41.51309
	13.99576	41.51338
	13.99642	41.51354
	13.99685	41.51366
	13.99693	41.51367
	13.99739	41.51377
	13.99798	41.51387
	13.99859	41.51393
	13.99902	41.51393
	14.0	41.51398
	14.00065	41.51398
	14.00129	41.51394
	14.00198	41.51392
	14.00262	41.51395
	14.00337	41.51401
	14.00379	41.51412
	14.00423	41.51418
	14.00484	41.51423
	14.00545	41.51445
	14.00605	41.51461
	14.00688	41.5149
	14.00717	41.51482
	14.00735	41.51475
	14.00756	41.51467
	14.00799	41.51461
	14.00837	41.51474
	14.00867	41.51494
	14.00895	41.51513
	14.00913	41.51495
	14.00937	41.51495
	14.00984	41.51484
	14.01017	41.5148
	14.01054	41.51479
	14.01092	41.51482
	14.01133	41.5149
	14.01161	41.51496
	14.012	41.5151
	14.01228	41.51518
	14.01268	41.51526
	14.01308	41.5154
	14.01345	41.51558
	14.01374	41.51572
	14.0141	41.51591
	14.01441	41.51616
	14.01466	41.5164
	14.01496	41.51669
	14.01526	41.51699
	14.01545	41.51732
	14.01562	41.51765
	14.01576	41.51794
	14.01577	41.51798
	14.01676	41.51762
	14.01688	41.51768
	14.01767	41.51834
	14.01775	41.51845
	14.01784	41.51854
	14.01798	41.51871
	14.01815	41.51893
	14.01839	41.51934
	14.01846	41.51949
	14.01853	41.51959
	14.01868	41.51977
	14.01906	41.52052
	14.01914	41.52081
	14.0192	41.52143
	14.01919	41.52167
	14.01919	41.52183
	14.01929	41.52186
	14.01947	41.52191
	14.01974	41.52188
	14.02023	41.52174
	14.02055	41.52165
	14.02087	41.52159
	14.02122	41.52155
	14.02165	41.52161
	14.0222	41.52176
	14.02265	41.52196
	14.02299	41.52221
	14.02328	41.52226
	14.02368	41.52239
	14.02411	41.5225
	14.0245	41.52258
	14.02486	41.5227
	14.02534	41.52279
	14.02572	41.52276
	14.02601	41.52273
	14.0265	41.52265
	14.02687	41.52279
	14.02722	41.52295
	14.0275	41.52321
	14.02759	41.52359
	14.02764	41.52407
	14.02752	41.52434
	14.02721	41.52454
	14.02686	41.52468
	14.02665	41.52488
	14.02648	41.52504
	14.02634	41.52525
	14.02628	41.52548
	14.02606	41.52577
	14.02572	41.52583
	14.02541	41.52596
	14.02507	41.52611
	14.02482	41.52635
	14.02451	41.52653
	14.0242	41.52667
	14.02369	41.52674
	14.02322	41.52681
	14.02258	41.5269
	14.02216	41.52701
	14.02182	41.52726
	14.02152	41.52751
	14.02123	41.52767
	14.02087	41.52778
	14.02052	41.52793
	14.02015	41.52805
	14.01971	41.52828
	14.01928	41.52849
	14.01901	41.52864
	14.01843	41.52892
	14.01793	41.52907
	14.0174	41.52929
	14.01698	41.5296
	14.0166	41.52989
	14.01613	41.53016
	14.01577	41.53039
	14.01532	41.53071
	14.01497	41.53092
	14.01458	41.53108
	14.01408	41.53122
	14.01365	41.5314
	14.0132	41.53162
	14.01286	41.53184
	14.01259	41.5319
	14.01193	41.53271
	14.0117	41.53295
	14.01147	41.53317
	14.01141	41.53323
	14.01107	41.53347
	14.01068	41.5337
	14.01041	41.53382
	14.01006	41.53394
	14.00972	41.53404
	14.00939	41.53412
	14.00912	41.53425
	14.00882	41.53438
	14.00849	41.53461
	14.0082	41.53484
	14.008	41.53505
	14.00777	41.53524
	14.00751	41.53545
	14.0072	41.53582
	14.00701	41.53617
	14.00691	41.53648
	14.00674	41.53679
	14.00663	41.53705
	14.00654	41.53734
	14.00644	41.53761
	14.00633	41.53789
	14.00618	41.53806
	14.00596	41.5382
	14.00577	41.53826
	14.00535	41.53848
	14.00526	41.53875
	14.00545	41.53895
	14.00563	41.53911
	14.00589	41.53936
	14.00607	41.53962
	14.00633	41.5399
	14.00657	41.54018
	14.0069	41.54031
	14.00709	41.54023
	14.0072	41.5401
	14.00729	41.53993
	14.00732	41.53973
	14.00736	41.5395
	14.0074	41.53924
	14.00746	41.539
	14.00759	41.5387
	14.0077	41.53845
	14.00787	41.53815
	14.00819	41.53782
	14.00835	41.53802
	14.00853	41.53821
	14.00875	41.53843
	14.00902	41.53872
	14.00928	41.53902
	14.00955	41.53935
	14.00974	41.53962
	14.00989	41.53979
	14.01012	41.54
	14.01034	41.54022
	14.01063	41.54044
	14.01104	41.54064
	14.01139	41.54081
	14.01181	41.541
	14.01222	41.54127
	14.01257	41.54142
	14.01283	41.54153
	14.01308	41.54163
	14.01357	41.54181
	14.01388	41.54194
	14.01416	41.54206
	14.01461	41.54212
	14.01499	41.54213
	14.0154	41.54212
	14.01579	41.54209
	14.01626	41.54199
	14.01681	41.54198
	14.01713	41.54197
	14.01769	41.54199
	14.01845	41.54209
	14.01909	41.54213
	14.01977	41.54225
	14.0207	41.54236
	14.02065	41.54265
	14.0207	41.54296
	14.02087	41.54324
	14.02112	41.54357
	14.02129	41.54387
	14.02153	41.54423
	14.02176	41.54459
	14.02222	41.54543
	14.02246	41.54599
	14.02263	41.54644
	14.02274	41.5467
	14.02284	41.54693
	14.023	41.54744
	14.02313	41.54779
	14.02315	41.54818
	14.02319	41.54857
	14.02312	41.54912
	14.02307	41.54948
	14.02316	41.54998
	14.02319	41.55037
	14.0232	41.55083
	14.02328	41.55138
	14.02336	41.55184
	14.02341	41.55222
	14.02363	41.55254
	14.02389	41.5529
	14.02412	41.55314
	14.02444	41.5534
	14.02477	41.55362
	14.02499	41.55379
	14.02537	41.5542
	14.02558	41.55447
	14.02588	41.5549
	14.02601	41.55533
	14.02596	41.55567
	14.02586	41.55603
	14.02567	41.55648
	14.02526	41.55764
	14.0252	41.55785
	14.0251	41.55813
	14.02487	41.55846
	14.02472	41.5587
	14.02442	41.55901
	14.02421	41.55926
	14.02394	41.55953
	14.0237	41.55974
	14.02357	41.56003
	14.02369	41.56048
	14.02377	41.5607
	14.02366	41.56103
	14.02334	41.56107
	14.02295	41.5611
	14.0224	41.56115
	14.02193	41.56118
	14.02133	41.56126
	14.02091	41.56139
	14.02061	41.56161
	14.0205	41.56167
	14.01977	41.56208
	14.0195	41.56224
	14.01914	41.56256
	14.0189	41.56276
	14.01865	41.56296
	14.01835	41.56322
	14.01798	41.56346
	14.0176	41.56365
	14.0173	41.56381
	14.01673	41.56405
	14.0163	41.56417
	14.01594	41.56429
	14.01541	41.56428
	14.01482	41.5643
	14.01411	41.56432
	14.01348	41.56428
	14.01274	41.56423
	14.01216	41.56424
	14.01178	41.56446
	14.01147	41.56487
	14.01123	41.56516
	14.01078	41.56561
	14.01072	41.56566
	14.01049	41.56571
	14.01006	41.56576
	14.00944	41.56579
	14.00874	41.56587
	14.00816	41.56594
	14.00754	41.56606
	14.00668	41.56621
	14.00623	41.56623
	14.00554	41.56626
	14.00497	41.56634
	14.0045	41.56638
	14.00411	41.56655
	14.00378	41.56685
	14.00341	41.56726
	14.00301	41.56773
	14.00283	41.56826
	14.00221	41.56887
	14.00163	41.56945
	14.00166	41.56969
	14.00224	41.57008
	14.00257	41.5703
	14.00295	41.57053
	14.00347	41.5708
	14.00381	41.571
	14.00413	41.57125
	14.00422	41.57155
	14.0041	41.57178
	14.00384	41.57199
	14.00353	41.57219
	14.00309	41.57241
	14.00279	41.57257
	14.00244	41.57272
	14.00211	41.57285
	14.00162	41.57305
	14.00114	41.57325
	14.00064	41.57339
	13.99974	41.57383
	13.99912	41.57425
	13.99895	41.57448
	13.99882	41.57488
	13.99873	41.57532
	13.99861	41.57585
	13.99844	41.5764
	13.99831	41.57719
	13.99794	41.57805
	13.9977	41.57904
	13.99781	41.57943
	13.99816	41.57977
	13.99844	41.58003
	13.9992	41.58068
	14.00031	41.58159
	14.0017	41.5829
	14.00288	41.58403
	14.00306	41.58472
	14.00315	41.58503
	14.00328	41.58529
	14.00341	41.58552
	14.00361	41.58583
	14.00383	41.58612
	14.00399	41.58635
	14.00418	41.58666
	14.00425	41.58691
	14.00419	41.58741
	14.00437	41.58771
	14.00459	41.58789
	14.00489	41.58798
	14.00517	41.58799
	14.0057	41.58794
	14.00614	41.58792
	14.00651	41.58786
	14.00708	41.58781
	14.00752	41.58781
	14.00794	41.5879
	14.00843	41.58801
	14.00885	41.58818
	14.0094	41.58836
	14.00984	41.58846
	14.01051	41.58872
	14.01165	41.58931
	14.01186	41.58955
	14.01183	41.58979
	14.01181	41.5899
	14.01162	41.59031
	14.01142	41.5906
	14.01115	41.59086
	14.01099	41.5911
	14.01083	41.59138
	14.01068	41.59176
	14.01049	41.59216
	14.01017	41.59256
	14.00991	41.59323
	14.00972	41.59381
	14.00942	41.59444
	14.0093	41.59483
	14.00917	41.5952
	14.00907	41.59552
	14.00904	41.59587
	14.0092	41.59616
	14.00935	41.59648
	14.00946	41.5967
	14.00958	41.59691
	14.00962	41.59708
	14.00951	41.59738
	14.00935	41.59769
	14.00915	41.59814
	14.00899	41.59833
	14.00883	41.59867
	14.00871	41.5991
	14.00863	41.59947
	14.00866	41.59974
	14.00883	41.60007
	14.00907	41.6004
	14.00928	41.60082
	14.00944	41.60125
	14.0095	41.60162
	14.00956	41.60206
	14.00958	41.60243
	14.00961	41.60278
	14.00971	41.60316
	14.00977	41.60338
	14.00983	41.60368
	14.00999	41.60397
	14.01024	41.60442
	14.01037	41.60474
	14.01049	41.60532
	14.01051	41.60575
	14.01055	41.60626
	14.01071	41.60675
	14.01091	41.60727
	14.01099	41.60754
	14.01113	41.60779
	14.01138	41.60803
	14.01158	41.60818
	14.01182	41.60835
	14.01142	41.60857
	14.01084	41.60871
	14.01057	41.60878
	14.01025	41.60894
	14.00987	41.60919
	14.00947	41.60948
	14.00874	41.60988
	14.00667	41.61155
	14.00626	41.6119
	14.00602	41.61214
	14.00575	41.61238
	14.00546	41.61261
	14.00522	41.61282
	14.00501	41.6132
	14.00499	41.61372
	14.00492	41.61404
	14.00483	41.61431
	14.00476	41.61459
	14.0047	41.61487
	14.00458	41.61514
	14.00442	41.61545
	14.00426	41.61576
	14.00411	41.61612
	14.00392	41.61647
	14.00368	41.61674
	14.00349	41.61698
	14.00317	41.6173
	14.00266	41.61745
	14.00218	41.61752
	14.00195	41.6176
	14.00176	41.61772
	14.00138	41.61797
	14.00103	41.61828
	14.00075	41.61856
	14.00061	41.61882
	14.00049	41.61906
	14.00033	41.61939
	14.0002	41.61969
	14.00007	41.61996
	13.99997	41.62021
	13.99986	41.62044
	13.99976	41.62071
	13.99963	41.62103
	13.99946	41.62136
	13.99926	41.62166
	13.99903	41.62201
	13.99881	41.62233
	13.9987	41.62252
	13.99848	41.62271
	13.99817	41.6229
	13.99796	41.62305
	13.9978	41.62317
	13.99745	41.62343
	13.99721	41.62366
	13.99701	41.62385
	13.99667	41.62414
	13.99657	41.62452
	13.99644	41.62475
	13.99638	41.62501
	13.99635	41.62532
	13.99632	41.62582
	13.9963	41.62606
	13.99629	41.62632
	13.99626	41.6266
	13.99626	41.62704
	13.99624	41.62739
	13.9962	41.62769
	13.99616	41.62805
	13.99615	41.62852
	13.99615	41.62889
	13.99612	41.62932
	13.99585	41.63058
	13.99551	41.63136
	13.99546	41.63179
	13.99538	41.63215
	13.99529	41.63249
	13.9952	41.63292
	13.99513	41.63322
	13.99496	41.63361
	13.99484	41.63397
	13.9948	41.63441
	13.99467	41.63477
	13.9946	41.63505
	13.99453	41.63543
	13.9945	41.63582
	13.99446	41.63627
	13.99444	41.63662
	13.9944	41.63711
	13.99433	41.6375
	13.99418	41.6379
	13.99389	41.63852
	13.99389	41.63903
	13.99364	41.63969
	13.99356	41.63995
	13.9934	41.64026
	13.99323	41.64061
	13.99306	41.64098
	13.99281	41.64139
	13.99257	41.64183
	13.99227	41.64205
	13.99174	41.64231
	13.99095	41.6428
	13.99014	41.64331
	13.98971	41.64364
	13.98938	41.64388
	13.98907	41.64416
	13.98881	41.64451
	13.98878	41.64489
	13.98881	41.64517
	13.98885	41.64549
	13.98882	41.64592
	13.98873	41.64629
	13.98852	41.64669
	13.98822	41.64699
	13.98785	41.64728
	13.98766	41.64751
	13.9874	41.64792
	13.98737	41.64835
	13.98735	41.64877
	13.98731	41.64924
	13.98732	41.64969
	13.98735	41.65012
	13.98748	41.65068
	13.98766	41.6511
	13.98786	41.65163
	13.98808	41.65212
	13.98824	41.65272
	13.98831	41.65321
	13.98829	41.65383
	13.98829	41.65395
	13.98807	41.65415
	13.9879	41.65436
	13.9878	41.65458
	13.98776	41.6548
	13.98769	41.65515
	13.9877	41.65537
	13.98773	41.65572
	13.98758	41.65605
	13.98715	41.65624
	13.98683	41.65641
	13.98664	41.65656
	13.98636	41.65671
	13.98609	41.6568
	13.98576	41.65697
	13.98564	41.65713
	13.98528	41.65738
	13.98487	41.65775
	13.98457	41.65811
	13.98438	41.65828
	13.98414	41.6584
	13.98386	41.6585
	13.98345	41.65873
	13.9832	41.65885
	13.98289	41.65901
	13.98265	41.65916
	13.98243	41.65931
	13.98236	41.65957
	13.98251	41.65993
	13.98269	41.66028
	13.98248	41.66074
	13.98243	41.66119
	13.98248	41.66141
	13.98262	41.66164
	13.98285	41.66196
	13.98301	41.66216
	13.98311	41.66238
	13.98294	41.6626
	13.98266	41.6627
	13.98211	41.66268
	13.98186	41.66277
	13.98162	41.66286
	13.98142	41.66285
	13.98104	41.66261
	13.98075	41.6625
	13.98048	41.66232
	13.97988	41.66226
	13.97944	41.66222
	13.97901	41.66228
	13.97864	41.66244
	13.97826	41.66264
	13.97789	41.66287
	13.97755	41.66309
	13.97726	41.66333
	13.97703	41.66361
	13.97675	41.66391
	13.97643	41.66422
	13.9757	41.66476
	13.97539	41.66485
	13.97496	41.66504
	13.97481	41.66527
	13.97457	41.66557
	13.97403	41.66637
	13.97393	41.66677
	13.9736	41.66736
	13.97351	41.66753
	13.9732	41.66785
	13.9729	41.66811
	13.97237	41.66856
	13.97194	41.66905
	13.97142	41.66966
	13.97104	41.67014
	13.97069	41.67033
	13.97043	41.67041
	13.97006	41.67051
	13.96973	41.67056
	13.96928	41.67073
	13.96894	41.6709
	13.96863	41.6711
	13.96845	41.6713
	13.96829	41.67166
	13.96817	41.67205
	13.96804	41.67243
	13.96798	41.67271
	13.96791	41.67316
	13.96784	41.67354
	13.96759	41.67385
	13.96736	41.67403
	13.96701	41.67422
	13.96666	41.67438
	13.96636	41.6745
	13.96591	41.67448
	13.96501	41.67499
	13.9649	41.6752
	13.96449	41.67537
	13.96429	41.67535
	13.96404	41.67528
	13.96379	41.67518
	13.96332	41.67496
	13.96289	41.67485
	13.9625	41.67461
	13.96205	41.67458
	13.96166	41.67458
	13.96136	41.67465
	13.96109	41.67471
	13.96076	41.67485
	13.96051	41.67503
	13.96028	41.6752
	13.95997	41.67552
	13.9598	41.67578
	13.95972	41.67601
	13.95963	41.67631
	13.95958	41.67674
	13.95959	41.67704
	13.95962	41.67738
	13.95969	41.67769
	13.95976	41.67804
	13.95979	41.67837
	13.95955	41.67855
	13.95922	41.67869
	13.95862	41.67888
	13.95775	41.67912
	13.95651	41.67944
	13.95554	41.67972
	13.95511	41.67983
	13.95477	41.67988
	13.95438	41.67985
	13.95397	41.67985
	13.95358	41.67988
	13.95294	41.67993
	13.95257	41.68
	13.95219	41.67998
	13.95155	41.67997
	13.95114	41.68012
	13.95077	41.68027
	13.95046	41.68042
	13.9501	41.68063
	13.94965	41.68091
	13.94929	41.6811
	13.94911	41.68132
	13.94887	41.68157
	13.9486	41.68174
	13.94834	41.68192
	13.94802	41.68212
	13.94763	41.68237
	13.94728	41.68255
	13.94698	41.68272
	13.94668	41.68295
	13.94644	41.68311
	13.9461	41.68329
	13.94576	41.68341
	13.94545	41.68351
	13.94516	41.68366
	13.94475	41.68385
	13.94443	41.68402
	13.94329	41.68425
	13.94292	41.68436
	13.94267	41.68454
	13.94245	41.68481
	13.94235	41.68509
	13.94226	41.6853
	13.94222	41.68559
	13.94223	41.68596
	13.94219	41.68633
	13.94213	41.68672
	13.94204	41.68701
	13.94179	41.68728
	13.94156	41.68752
	13.94124	41.68768
	13.94102	41.68797
	13.94283	41.68846
	13.94385	41.68926
	13.94553	41.69075
	13.94633	41.69135
	13.94743	41.69279
	13.94814	41.69332
	13.94989	41.69396
	13.95063	41.69425
	13.95145	41.69453
	13.95253	41.69483
	13.95385	41.69511
	13.95442	41.69528
	13.95594	41.69568
	13.9569	41.69574
	13.95789	41.69587
	13.95896	41.69595
	13.9602	41.69594
	13.96072	41.69597
	13.96256	41.69572
	13.96448	41.69554
	13.96675	41.69518
	13.96985	41.69459
	13.97231	41.69514
	13.97771	41.69514
	13.98219	41.69481
	13.98508	41.69406
	13.98836	41.69349
	13.99252	41.69419
	13.9944	41.69366
	13.99578	41.69244
	14.00155	41.69048
	14.00248	41.69003
	14.00409	41.68933
	14.00475	41.68883
	14.00727	41.68755
	14.00816	41.68685
	14.00869	41.68666
	14.00912	41.68639
	14.00945	41.68614
	14.00971	41.68603
	14.01006	41.68569
	14.01073	41.68526
	14.01345	41.68397
	14.01623	41.68263
	14.01725	41.68211
	14.01796	41.68204
	14.01834	41.68209
	14.01883	41.68208
	14.01918	41.68253
	14.0194	41.68306
	14.02126	41.68712
	14.02081	41.68863
	14.02557	41.6948
	14.0239	41.69803
	14.02433	41.69918
	14.02664	41.70155
	14.0268	41.70266
	14.02754	41.70282
	14.02824	41.70266
	14.03168	41.7021
	14.03401	41.70178
	14.03577	41.70164
	14.04203	41.70125
	14.04315	41.7013
	14.04427	41.70131
	14.04563	41.70137
	14.04737	41.70139
	14.05334	41.70173
	14.05392	41.71956
	14.05396	41.72001
	14.0541	41.7203
	14.05437	41.72059
	14.05638	41.72263
	14.05748	41.72369
	14.05985	41.72585
	14.06147	41.72721
	14.06228	41.72793
	14.06442	41.72989
	14.06725	41.73256
	14.06816	41.7337
	14.06847	41.73411
	14.06869	41.73443
	14.0689	41.73482
	14.07047	41.73821
	14.07169	41.73808
	14.07457	41.73788
	14.07843	41.73817
	14.08194	41.73882
	14.08257	41.73896
	14.08347	41.73919
	14.08505	41.73974
	14.09528	41.73893
	14.0962	41.73265
	14.09816	41.73064
	14.10428	41.71936
	14.1066	41.71382
	14.10809	41.70833
	14.10903	41.70845
	14.10964	41.70873
	14.11003	41.70895
	14.1111	41.70963
	14.11158	41.71001
	14.11935	41.71737
	14.11963	41.71781
	14.121	41.72042
	14.12417	41.72704
	14.12431	41.72751
	14.12423	41.72803
	14.12396	41.72936
	14.12406	41.72946
	14.12405	41.72947
	14.12414	41.72957
	14.12416	41.72955
	14.12426	41.72966
	14.12424	41.72968
	14.12434	41.7298
	14.12436	41.7298
	14.12438	41.72985
	14.12563	41.73127
	14.12372	41.73321
	14.12312	41.73322
	14.12243	41.73317
	14.12244	41.73303
	14.12216	41.73291
	14.12176	41.73339
	14.12141	41.73374
	14.12076	41.73411
	14.12025	41.73434
	14.11777	41.73516
	14.11746	41.7353
	14.11711	41.7355
	14.11665	41.73585
	14.11639	41.73617
	14.11632	41.73642
	14.11616	41.73791
	14.12207	41.74692
	14.12227	41.74709
	14.12258	41.74732
	14.12282	41.74745
	14.12334	41.74747
	14.12371	41.7474
	14.13078	41.74535
	14.13481	41.74379
	14.15928	41.74792
	14.15957	41.748
	14.16343	41.75135
	14.16378	41.75167
	14.16259	41.75305
	14.16211	41.75406
	14.16203	41.75444
	14.162	41.75491
	14.162	41.75529
	14.1621	41.75586
	14.16224	41.75628
	14.16263	41.75709
	14.16404	41.75969
	14.16447	41.76044
	14.1647	41.76075
	14.16979	41.7653
	14.17034	41.76575
	14.17094	41.76618
	14.17162	41.76647
	14.1724	41.76671
	14.17273	41.76675
	14.17434	41.76667
	14.17475	41.76658
	14.17509	41.76647
	14.17535	41.76631
	14.17559	41.7661
	14.17596	41.76567
	14.17638	41.76511
	14.1765	41.7648
	14.17661	41.7644
	14.17668	41.76367
	14.17665	41.76308
	14.17657	41.76232
	14.17647	41.76199
	14.17615	41.75559
	14.17618	41.75533
	14.1763	41.75456
	14.17649	41.75394
	14.17661	41.75363
	14.1772	41.75239
	14.17877	41.74924
	14.17957	41.74905
	14.18035	41.74896
	14.18652	41.74894
	14.1899	41.74828
	14.19093	41.74812
	14.19169	41.74804
	14.19278	41.74799
	14.19399	41.748
	14.19421	41.74812
	14.19433	41.74838
	14.19436	41.74862
	14.19434	41.74897
	14.19414	41.74929
	14.19389	41.74951
	14.19369	41.74976
	14.1936	41.75013
	14.19377	41.75067
	14.19359	41.75211
	14.19419	41.75459
	14.19401	41.75518
	14.19423	41.75639
	14.19438	41.75712
	14.19451	41.75772
	14.19495	41.75869
	14.19522	41.75906
	14.19621	41.76005
	14.19712	41.76119
	14.19897	41.76141
	14.19978	41.76211
	14.20086	41.76258
	14.20122	41.76377
	14.20102	41.76429
	14.20197	41.76503
	14.20197	41.76697
	14.20127	41.76749
	14.20054	41.76796
	14.20099	41.76802
	14.20076	41.76986
	14.20078	41.76995
	14.20074	41.77004
	14.20064	41.77083
	14.20027	41.7711
	14.20012	41.77119
	14.19982	41.77175
	14.19874	41.77241
	14.19821	41.7727
	14.19608	41.77199
	14.19566	41.77217
	14.19544	41.77238
	14.19499	41.77285
	14.19426	41.77342
	14.19128	41.77372
	14.19078	41.77389
	14.18939	41.77401
	14.18859	41.77431
	14.18738	41.77449
	14.18453	41.77407
	14.18264	41.77377
	14.18091	41.77343
	14.17991	41.77342
	14.17893	41.77358
	14.17763	41.77372
	14.17684	41.7737
	14.17602	41.77405
	14.17534	41.77496
	14.17424	41.77612
	14.17317	41.77678
	14.17135	41.77859
	14.17069	41.77967
	14.17063	41.78028
	14.17052	41.781
	14.16985	41.78834
	14.16978	41.78887
	14.16978	41.78925
	14.16983	41.78962
	14.16899	41.79784
	14.16554	41.81044
	14.16535	41.81085
	14.16154	41.81555
	14.16015	41.81589
	14.15097	41.82525
	14.14804	41.82828
	14.15178	41.8317
	14.16332	41.84
	14.16703	41.84343
	14.17805	41.84611
	14.17985	41.84618
	14.18138	41.84674
	14.18439	41.84807
	14.1861	41.84848
	14.1869	41.84751
	14.18747	41.84616
	14.18708	41.84406
	14.18732	41.84301
	14.1884	41.84201
	14.18973	41.84164
	14.19224	41.8416
	14.19505	41.84148
	14.1955	41.84239
	14.19705	41.84294
	14.19772	41.84252
	14.1981	41.8425
	14.19858	41.84313
	14.19861	41.84378
	14.1968	41.84549
	14.19465	41.84635
	14.19478	41.8474
	14.19528	41.84797
	14.19571	41.84831
	14.197	41.84863
	14.19822	41.84899
	14.19983	41.84965
	14.20079	41.8508
	14.20111	41.85135
	14.20232	41.8508
	14.20214	41.85016
	14.20178	41.84956
	14.20176	41.84916
	14.20227	41.84878
	14.20287	41.84906
	14.20411	41.85059
	14.20605	41.85135
	14.20736	41.85282
	14.20839	41.85319
	14.20913	41.85329
	14.20992	41.85371
	14.2106	41.85404
	14.21118	41.85412
	14.21194	41.85434
	14.2128	41.85419
	14.21345	41.85394
	14.21441	41.85352
	14.21517	41.85332
	14.21572	41.8531
	14.21668	41.85342
	14.21716	41.85462
	14.21733	41.85543
	14.21858	41.85713
	14.22041	41.85981
	14.22006	41.8619
	14.22164	41.86427
	14.22424	41.86413
	14.2244	41.86457
	14.22412	41.86544
	14.22537	41.86669
	14.22581	41.8679
	14.22631	41.86849
	14.22737	41.86889
	14.22783	41.86927
	14.2276	41.87
	14.2269	41.87061
	14.22575	41.87084
	14.22447	41.87132
	14.22436	41.87158
	14.22457	41.87199
	14.22541	41.87247
	14.22562	41.87376
	14.22593	41.87423
	14.22662	41.8745
	14.22769	41.87476
	14.22826	41.8754
	14.22881	41.87623
	14.22916	41.87671
	14.22952	41.87696
	14.2304	41.8774
	14.23119	41.87759
	14.23189	41.87749
	14.23839	41.8795
	14.23869	41.87956
	14.23925	41.87978
	14.24625	41.88308
	14.24618	41.88321
	14.24591	41.88432
	14.24594	41.88475
	14.24597	41.8849
	14.24637	41.88579
	14.24624	41.88597
	14.24853	41.88762
	14.24872	41.88759
	14.24907	41.88763
	14.24969	41.88761
	14.24983	41.88758
	14.25045	41.88721
	14.25048	41.88723
	14.25061	41.88726
	14.25139	41.88728
	14.25218	41.88798
	14.25307	41.88951
	14.25668	41.89304
	14.27131	41.90198
	14.2774	41.90782
	14.27746	41.90784
	14.2778	41.9082
	14.27819	41.90858
	14.27834	41.90852
	14.27901	41.9084
	14.27922	41.90839
	14.2799	41.9085
	14.2804	41.90867
	14.28066	41.90868
	14.28156	41.90876
	14.2823	41.90898
	14.28367	41.90963
	14.28325	41.90916
	14.28449	41.90804
	14.28488	41.90664
	14.28496	41.90659
	14.28586	41.90625
	14.28603	41.90623
	14.28714	41.90645
	14.28737	41.90643
	14.288	41.90651
	14.28855	41.90666
	14.29234	41.90297
	14.29251	41.90283
	14.29631	41.90122
	14.2987	41.90057
	14.29875	41.90043
	14.29887	41.90022
	14.29899	41.89984
	14.29913	41.89926
	14.29944	41.89839
	14.29953	41.89818
	14.29999	41.89726
	14.30036	41.89592
	14.30044	41.89569
	14.3007	41.89505
	14.3012	41.89404
	14.30152	41.89358
	14.30206	41.89298
	14.30226	41.89279
	14.30349	41.89178
	14.3038	41.89157
	14.30404	41.89143
	14.30472	41.89121
	14.30512	41.89115
	14.30544	41.89113
	14.30616	41.89115
	14.30647	41.89118
	14.30791	41.89144
	14.3084	41.89141
	14.30873	41.89142
	14.3092	41.89146
	14.31006	41.89158
	14.31046	41.89167
	14.31085	41.89166
	14.3111	41.89167
	14.31183	41.89173
	14.31212	41.89178
	14.31324	41.89206
	14.31507	41.89255
	14.31564	41.89264
	14.31643	41.89279
	14.31679	41.89289
	14.3177	41.89324
	14.31798	41.89336
	14.31904	41.89437
	14.31927	41.89486
	14.31932	41.89538
	14.32169	41.89607
	14.32205	41.8962
	14.32241	41.89634
	14.32401	41.8971
	14.32457	41.89738
	14.32477	41.89726
	14.325	41.89705
	14.32538	41.89663
	14.32577	41.89566
	14.32802	41.88915
	14.32846	41.8868
	14.33371	41.88181
	14.33897	41.87649
	14.33922	41.87619
	14.34312	41.87095
	14.3438	41.86869
	14.34575	41.8686
	14.34573	41.86801
	14.34674	41.86707
	14.34742	41.86647
	14.3477	41.8662
	14.34798	41.86587
	14.34859	41.86503
	14.34909	41.8652
	14.34956	41.86529
	14.34989	41.86532
	14.35163	41.86539
	14.35215	41.8654
	14.35241	41.86538
	14.35292	41.86528
	14.35315	41.8652
	14.35372	41.86489
	14.35395	41.86471
	14.35448	41.86409
	14.35466	41.86373
	14.35494	41.863
	14.35514	41.86288
	14.35541	41.86268
	14.35577	41.86255
	14.35608	41.86239
	14.35654	41.86212
	14.35779	41.86122
	14.35902	41.86093
	14.35942	41.86136
	14.36288	41.86562
	14.36515	41.86935
	14.36535	41.86981
	14.36539	41.87005
	14.36539	41.87032
	14.3653	41.87168
	14.36525	41.87211
	14.36438	41.87352
	14.36415	41.87366
	14.36391	41.87374
	14.36349	41.87391
	14.36197	41.87527
	14.36226	41.87558
	14.36476	41.8772
	14.36519	41.87745
	14.36732	41.87841
	14.37151	41.87959
	14.37424	41.88034
	14.37468	41.88044
	14.37598	41.88069
	14.37755	41.88091
	14.3801	41.86677
	14.38543	41.86757
	14.39074	41.86854
	14.391	41.8686
	14.39123	41.86873
	14.39153	41.86893
	14.3929	41.87018
	14.39321	41.87049
	14.39389	41.87112
	14.39458	41.87161
	14.39704	41.87095
	14.40055	41.86949
	14.40236	41.86865
	14.40861	41.86563
	14.4092	41.8653
	14.41014	41.86473
	14.41043	41.86449
	14.41059	41.86412
	14.43706	41.84272
	14.44249	41.84232
	14.44321	41.84223
	14.44513	41.84079
	14.44658	41.83879
	14.44771	41.8354
	14.45159	41.82027
	14.45562	41.79678
	14.45775	41.79206
	14.46477	41.77778
	14.46418	41.77737
	14.46133	41.77521
	14.46112	41.77502
	14.4591	41.77272
	14.45893	41.77251
	14.45868	41.77211
	14.45532	41.76582
	14.45529	41.76547
	14.45533	41.76509
	14.45549	41.76462
	14.45566	41.76433
	14.45635	41.76385
	14.45685	41.76356
	14.45717	41.76341
	14.45763	41.76322
	14.45813	41.76307
	14.45869	41.76305
	14.45974	41.7633
	14.46517	41.76393
	14.46856	41.76407
	14.4718	41.76401
	14.47835	41.76289
	14.48091	41.76234
	14.48354	41.76175
	14.48519	41.76107
	14.4862	41.76062
	14.48766	41.76091
	14.4879	41.76097
	14.48972	41.76166
	14.49042	41.76194
	14.49071	41.76213
	14.49279	41.76376
	14.49553	41.76626
	14.49667	41.76753
	14.49683	41.76779
	14.49717	41.76866
	14.49739	41.76954
	14.49737	41.76977
	14.49729	41.76993
	14.49761	41.77069
	14.49783	41.77115
	14.49798	41.77138
	14.49818	41.77163
	14.49997	41.77375
	14.50281	41.77453
	14.50636	41.7778
	14.50716	41.7784
	14.50795	41.77883
	14.52034	41.78487
	14.52062	41.785
	14.52421	41.7864
	14.52534	41.78878
	14.52786	41.78969
	14.52824	41.78987
	14.52854	41.79007
	14.5289	41.79038
	14.52957	41.79107
	14.53003	41.79146
	14.53029	41.79167
	14.53057	41.79186
	14.53086	41.79202
	14.53144	41.79229
	14.53167	41.79238
	14.53218	41.79254
	14.53352	41.79185
	14.53422	41.79256
	14.53438	41.79275
	14.53451	41.793
	14.53455	41.79326
	14.53451	41.79399
	14.53442	41.79487
	14.53232	41.79902
	14.53183	41.79983
	14.53095	41.80075
	14.53302	41.80022
	14.53367	41.7996
	14.53452	41.79931
	14.53517	41.79953
	14.53573	41.80036
	14.53617	41.80251
	14.53599	41.80293
	14.53614	41.80331
	14.53642	41.8034
	14.53686	41.80331
	14.53731	41.80303
	14.53743	41.80291
	14.53831	41.80255
	14.539	41.80232
	14.53934	41.80233
	14.53948	41.80253
	14.53957	41.80302
	14.53998	41.80344
	14.54044	41.80388
	14.54072	41.80452
	14.5411	41.80505
	14.54164	41.80614
	14.54186	41.80676
	14.54225	41.80758
	14.54253	41.80809
	14.5434	41.80895
	14.54416	41.80979
	14.54463	41.81039
	14.5473	41.81251
	14.54815	41.81361
	14.54892	41.81416
	14.55018	41.81581
	14.55074	41.81651
	14.55169	41.81684
	14.55298	41.81723
	14.55529	41.81771
	14.55865	41.81845
	14.56006	41.81916
	14.56179	41.81949
	14.56424	41.81954
	14.56503	41.81913
	14.56544	41.81887
	14.56797	41.81813
	14.57064	41.82115
	14.57081	41.822
	14.57111	41.82259
	14.57207	41.82334
	14.57394	41.82501
	14.57857	41.83007
	14.58046	41.83468
	14.58454	41.84176
	14.58562	41.84312
	14.58643	41.84396
	14.58906	41.84651
	14.59071	41.84777
	14.59136	41.84818
	14.59226	41.8487
	14.59302	41.84904
	14.59381	41.84931
	14.59424	41.84942
	14.59561	41.84999
	14.59676	41.85054
	14.59733	41.85086
	14.59781	41.85121
	14.5983	41.85166
	14.59858	41.85201
	14.59889	41.85253
	14.59918	41.85307
	14.59931	41.85438
	14.59946	41.8551
	14.59929	41.85568
	14.59925	41.85574
	14.59765	41.85627
	14.59755	41.85647
	14.59744	41.85674
	14.59711	41.85777
	14.59698	41.85851
	14.59694	41.85888
	14.59693	41.85936
	14.59689	41.85971
	14.59688	41.86012
	14.59692	41.86055
	14.5969	41.8609
	14.59692	41.86136
	14.59714	41.86255
	14.59767	41.8647
	14.5979	41.8653
	14.59827	41.86595
	14.59845	41.86621
	14.59888	41.86673
	14.59948	41.86728
	14.60002	41.86767
	14.60025	41.86781
	14.60099	41.8682
	14.60157	41.86854
	14.60185	41.86868
	14.60224	41.86883
	14.60256	41.86893
	14.60266	41.86895
	14.60287	41.86906
	14.60332	41.86923
	14.60539	41.87171
	14.60696	41.87384
	14.61011	41.87818
	14.61221	41.88114
	14.61247	41.88169
	14.61314	41.88375
	14.61512	41.89017
	14.62066	41.89363
	14.62175	41.89422
	14.62201	41.89411
	14.62226	41.89422
	14.62289	41.89444
	14.62337	41.89457
	14.62449	41.89479
	14.62506	41.89484
	14.62837	41.89521
	14.63109	41.8955
	14.6317	41.89558
	14.63213	41.89566
	14.63269	41.89579
	14.63327	41.89597
	14.63452	41.89645
	14.63495	41.89659
	14.63532	41.89669
	14.63567	41.89676
	14.63607	41.89681
	14.63736	41.89691
	14.63781	41.89696
	14.63853	41.89707
	14.64021	41.89935
	14.63992	41.89956
	14.6409	41.89983
	14.64139	41.89998
	14.64191	41.90017
	14.6422	41.90031
	14.64816	41.90399
	14.65304	41.90714
	14.65315	41.9075
	14.65399	41.90933
	14.6545	41.91014
	14.65457	41.91018
	14.65495	41.91029
	14.65791	41.91104
	14.65846	41.91121
	14.65895	41.91141
	14.65946	41.91167
	14.65975	41.91186
	14.66025	41.91223
	14.66049	41.91245
	14.66073	41.9127
	14.6609	41.9129
	14.66124	41.91338
	14.66292	41.91629
	14.66464	41.91726
	14.66574	41.92195
	14.66677	41.92851
	14.667	41.92903
	14.66717	41.92953
	14.66725	41.92987
	14.66799	41.93362
	14.66802	41.93452
	14.66795	41.93531
	14.66787	41.93595
	14.66768	41.93639
	14.66739	41.93697
	14.66703	41.9374
	14.66661	41.93825
	14.6663	41.93907
	14.6662	41.93996
	14.66625	41.94064
	14.66635	41.9416
	14.66642	41.94208
	14.66683	41.94315
	14.66731	41.94418
	14.66887	41.94666
	14.66951	41.94761
	14.66984	41.94798
	14.67071	41.94882
	14.67112	41.94918
	14.67323	41.95061
	14.67409	41.95112
	14.67531	41.95192
	14.6758	41.95226
	14.67905	41.95502
	14.6795	41.95543
	14.68008	41.95601
	14.68153	41.9575
	14.68746	41.9639
	14.69817	41.97205
	14.70078	41.97315
	14.70106	41.97328
	14.70158	41.97355
	14.70188	41.97381
	14.70192	41.97395
	14.70199	41.97457
	14.70201	41.97777
	14.71493	41.99102
	14.72458	42.00097
	14.72501	42.00144
	14.72804	42.00422
	14.73151	42.00604
	14.73401	42.00705
	14.73664	42.00776
	14.73913	42.00819
	14.74121	42.00833
	14.74261	42.00841
	14.74486	42.00872
	14.74597	42.00908
	14.74708	42.00952
	14.74804	42.00994
	14.75009	42.01179
	14.75295	42.0144
	14.76097	42.01745
	14.76408	42.01777
	14.76472	42.01797
	14.76519	42.0182
	14.7667	42.01906
	14.77703	42.027
	14.77933	42.02894
	14.78103	42.03064
	14.78192	42.03159
	14.7831	42.03299
	14.7838	42.03415
	14.78389	42.03476
	14.78373	42.03528
	14.78351	42.03574
	14.78312	42.03607
	14.77498	42.04055
	14.77441	42.04079
	14.77327	42.04109
	14.76986	42.04194
	14.768	42.04229
	14.76607	42.04251
	14.76534	42.04258
	14.76477	42.0426
	14.76428	42.04258
	14.76364	42.04258
	14.76259	42.04266
	14.76201	42.04289
	14.76168	42.04317
	14.76174	42.04359
	14.76196	42.04411
	14.7658	42.05196
	14.7733	42.06417
	14.77372	42.06466
	14.77592	42.06688
	14.77638	42.06745
	14.77684	42.06795
	14.77928	42.06996
	15.63684	42.42575
END
END
