Italy_Aosta Valley
1
	7.044382	45.92255
	7.044576	45.92244
	7.044749	45.92239
	7.045068	45.92239
	7.045386	45.92229
	7.045493	45.92211
	7.045649	45.92206
	7.046061	45.92197
	7.046185	45.92199
	7.04729	45.92122
	7.047485	45.92098
	7.047815	45.91999
	7.048049	45.91972
	7.049149	45.91898
	7.05002	45.91804
	7.050383	45.91772
	7.051159	45.91726
	7.052158	45.91641
	7.052585	45.91618
	7.053362	45.91557
	7.053492	45.91539
	7.056491	45.91413
	7.057523	45.91401
	7.058105	45.9137
	7.058363	45.91361
	7.059047	45.9136
	7.059653	45.91346
	7.060555	45.91349
	7.060788	45.91335
	7.061139	45.91286
	7.061142	45.91252
	7.061661	45.9119
	7.062995	45.911
	7.062999	45.91043
	7.064385	45.90943
	7.064322	45.90912
	7.064456	45.90835
	7.064306	45.90768
	7.06399	45.90682
	7.063868	45.90589
	7.063966	45.90473
	7.064226	45.90441
	7.064267	45.90408
	7.063979	45.90279
	7.064214	45.90234
	7.064087	45.9021
	7.064025	45.90176
	7.064056	45.90093
	7.06419	45.90023
	7.065068	45.89987
	7.067935	45.89894
	7.068494	45.89825
	7.069977	45.89803
	7.069721	45.89773
	7.069723	45.89746
	7.069918	45.89717
	7.071562	45.89603
	7.072764	45.89547
	7.073991	45.89503
	7.074828	45.89498
	7.076592	45.89523
	7.076667	45.8936
	7.076294	45.89161
	7.076556	45.89091
	7.076493	45.89063
	7.076534	45.89031
	7.076665	45.89006
	7.077144	45.88968
	7.077598	45.88919
	7.077921	45.88898
	7.078569	45.88836
	7.078933	45.88789
	7.079221	45.88722
	7.079098	45.88632
	7.079358	45.886
	7.079682	45.88573
	7.08011	45.8852
	7.080756	45.88484
	7.081728	45.88394
	7.082335	45.88383
	7.083211	45.88377
	7.083527	45.8837
	7.083727	45.88365
	7.084721	45.88328
	7.085172	45.88316
	7.08683	45.8818
	7.087439	45.88119
	7.089091	45.88065
	7.089933	45.87987
	7.091615	45.87866
	7.093426	45.87747
	7.093972	45.87667
	7.094684	45.87611
	7.095273	45.87593
	7.095368	45.87591
	7.094277	45.87521
	7.093854	45.87487
	7.093445	45.87442
	7.092515	45.87287
	7.092427	45.87255
	7.092455	45.87219
	7.092559	45.87197
	7.092948	45.87167
	7.093658	45.87134
	7.094631	45.87017
	7.094853	45.86963
	7.095217	45.8691
	7.095801	45.86842
	7.096192	45.86772
	7.096415	45.86708
	7.096391	45.86673
	7.09691	45.86613
	7.097044	45.8653
	7.097239	45.86501
	7.097241	45.86465
	7.097333	45.86435
	7.097891	45.86368
	7.097828	45.86341
	7.097508	45.86318
	7.097406	45.86291
	7.097447	45.86258
	7.097707	45.86211
	7.09816	45.86175
	7.098871	45.86133
	7.098936	45.86116
	7.099414	45.86101
	7.099993	45.86108
	7.100252	45.8607
	7.100292	45.86054
	7.100551	45.86036
	7.100552	45.86021
	7.100774	45.8596
	7.101549	45.85918
	7.103093	45.8594
	7.103518	45.85941
	7.108571	45.85831
	7.108957	45.85832
	7.109536	45.85848
	7.110988	45.85893
	7.112041	45.85939
	7.112465	45.85952
	7.11294	45.85959
	7.113585	45.85953
	7.114679	45.85959
	7.115903	45.85931
	7.117319	45.85936
	7.117835	45.85929
	7.118132	45.85918
	7.119311	45.86014
	7.120564	45.86154
	7.121359	45.86216
	7.123001	45.86324
	7.123579	45.86347
	7.12422	45.86387
	7.124734	45.8641
	7.12525	45.86398
	7.125984	45.8639
	7.126563	45.86394
	7.126756	45.86402
	7.126792	45.86444
	7.128333	45.86514
	7.129	45.8656
	7.129832	45.8665
	7.131285	45.86682
	7.131632	45.86702
	7.131798	45.86729
	7.132337	45.86758
	7.133144	45.8684
	7.133592	45.86876
	7.133976	45.8693
	7.134064	45.86961
	7.133972	45.86993
	7.133647	45.87044
	7.133605	45.87102
	7.134669	45.87197
	7.13495	45.87245
	7.13518	45.87265
	7.136465	45.87317
	7.139321	45.87374
	7.139707	45.87387
	7.139938	45.87405
	7.140127	45.87473
	7.140319	45.875
	7.140665	45.87521
	7.141115	45.87532
	7.143858	45.87546
	7.144372	45.87558
	7.144951	45.87585
	7.145465	45.87603
	7.146907	45.87608
	7.147163	45.87631
	7.147934	45.87673
	7.148551	45.87689
	7.149001	45.87696
	7.149322	45.87718
	7.149668	45.87753
	7.151444	45.8778
	7.151984	45.87795
	7.153307	45.87859
	7.153461	45.8788
	7.15365	45.87927
	7.155216	45.87914
	7.156591	45.87912
	7.16149	45.87821
	7.162638	45.87735
	7.162923	45.87693
	7.163766	45.87687
	7.164049	45.87674
	7.164603	45.87583
	7.16438	45.87509
	7.164449	45.87483
	7.16419	45.87363
	7.163748	45.87312
	7.162283	45.87277
	7.161499	45.87233
	7.161384	45.87211
	7.16145	45.87186
	7.161961	45.87127
	7.164764	45.86959
	7.165618	45.86903
	7.175336	45.8629
	7.17553	45.86303
	7.176147	45.86315
	7.176753	45.8634
	7.178587	45.86355
	7.178783	45.86352
	7.179376	45.8634
	7.180357	45.86293
	7.181361	45.86205
	7.182038	45.86183
	7.182475	45.86149
	7.182747	45.86106
	7.183501	45.86059
	7.184768	45.85997
	7.185504	45.8602
	7.186214	45.86019
	7.187062	45.8599
	7.187997	45.85922
	7.188563	45.85901
	7.190174	45.85885
	7.190618	45.85868
	7.191489	45.85916
	7.192187	45.85918
	7.192537	45.85949
	7.19356	45.8599
	7.195076	45.86009
	7.195766	45.86029
	7.1964	45.86033
	7.19675	45.86044
	7.197958	45.86144
	7.199317	45.86244
	7.200824	45.86308
	7.200283	45.86342
	7.199619	45.86442
	7.199512	45.86488
	7.198523	45.86582
	7.198221	45.86653
	7.198194	45.86708
	7.198503	45.86843
	7.198342	45.86891
	7.197837	45.8695
	7.197644	45.87036
	7.19853	45.87184
	7.199097	45.87238
	7.199985	45.87444
	7.200136	45.87551
	7.200963	45.87543
	7.201613	45.87556
	7.202652	45.87615
	7.203234	45.87624
	7.203764	45.87669
	7.204354	45.87761
	7.204677	45.87847
	7.205191	45.8789
	7.205356	45.87921
	7.20564	45.87943
	7.205757	45.87979
	7.206094	45.88017
	7.206951	45.88012
	7.207847	45.8802
	7.208187	45.88033
	7.209478	45.88058
	7.209838	45.88061
	7.210479	45.88105
	7.210708	45.88129
	7.210974	45.88208
	7.211582	45.88225
	7.212933	45.88275
	7.213722	45.88321
	7.214102	45.88326
	7.215027	45.88366
	7.215714	45.88387
	7.215523	45.88414
	7.215582	45.88474
	7.215706	45.88502
	7.21552	45.88556
	7.215899	45.88612
	7.215807	45.88647
	7.216127	45.88702
	7.216249	45.8883
	7.216419	45.88873
	7.217007	45.88886
	7.217676	45.88893
	7.218519	45.88915
	7.2195	45.88921
	7.219858	45.88928
	7.220472	45.88944
	7.220996	45.88968
	7.221911	45.8899
	7.223051	45.89031
	7.223567	45.89012
	7.224152	45.89004
	7.224447	45.88994
	7.224701	45.88974
	7.225656	45.88976
	7.225856	45.88982
	7.225921	45.88985
	7.22603	45.89015
	7.226608	45.89064
	7.226707	45.8909
	7.226882	45.89108
	7.227564	45.89157
	7.228333	45.89202
	7.228668	45.89195
	7.22966	45.89196
	7.231607	45.89164
	7.233152	45.89116
	7.234436	45.89058
	7.235071	45.8905
	7.235565	45.89017
	7.236874	45.89002
	7.238879	45.89015
	7.239513	45.89001
	7.239841	45.88998
	7.240597	45.8901
	7.242425	45.891
	7.244746	45.89124
	7.245035	45.89133
	7.245764	45.89183
	7.246309	45.89247
	7.246929	45.89297
	7.247305	45.89317
	7.247823	45.89327
	7.251063	45.89292
	7.252495	45.89195
	7.252231	45.89098
	7.252429	45.88977
	7.252791	45.88916
	7.253063	45.88853
	7.25378	45.88823
	7.254537	45.88798
	7.255172	45.88801
	7.255586	45.88794
	7.256072	45.88821
	7.256359	45.8883
	7.256792	45.88823
	7.257825	45.88903
	7.258118	45.889
	7.258404	45.88906
	7.258932	45.88981
	7.259439	45.89068
	7.261321	45.8922
	7.262524	45.89289
	7.262796	45.8931
	7.263134	45.89349
	7.263448	45.89361
	7.264126	45.8937
	7.264766	45.89369
	7.265156	45.89437
	7.266203	45.89496
	7.266641	45.89531
	7.26656	45.89565
	7.266591	45.8965
	7.266782	45.89665
	7.267431	45.89673
	7.268108	45.89697
	7.26849	45.89722
	7.2687	45.8975
	7.269316	45.898
	7.270095	45.89823
	7.270519	45.89896
	7.270913	45.89937
	7.271196	45.89977
	7.271514	45.89989
	7.272799	45.90001
	7.2744	45.90038
	7.275428	45.9003
	7.275993	45.90035
	7.276533	45.90054
	7.276804	45.90074
	7.277171	45.90137
	7.277293	45.90183
	7.277571	45.90224
	7.278	45.90264
	7.278255	45.90306
	7.278359	45.90374
	7.278509	45.90398
	7.27851	45.90437
	7.279169	45.90534
	7.279176	45.90577
	7.279503	45.90599
	7.279877	45.90636
	7.279966	45.90665
	7.27992	45.90708
	7.280213	45.90747
	7.280214	45.90774
	7.280332	45.90789
	7.280643	45.90801
	7.280866	45.9082
	7.281302	45.90902
	7.281746	45.90942
	7.281828	45.90967
	7.282068	45.90997
	7.282209	45.9103
	7.282513	45.91072
	7.282744	45.91091
	7.282901	45.91134
	7.283449	45.91157
	7.283514	45.91204
	7.28376	45.91224
	7.284032	45.91236
	7.284153	45.91263
	7.284663	45.91286
	7.284592	45.91334
	7.284864	45.91378
	7.284919	45.91401
	7.28472	45.91423
	7.284698	45.91491
	7.284833	45.91515
	7.285322	45.91544
	7.285656	45.91584
	7.28584	45.9163
	7.286966	45.91681
	7.287299	45.9169
	7.287816	45.9172
	7.288809	45.91734
	7.28935	45.91749
	7.28971	45.91867
	7.290019	45.91933
	7.290065	45.91977
	7.290386	45.92027
	7.291208	45.92053
	7.291757	45.92083
	7.29298	45.92103
	7.293241	45.92121
	7.293427	45.92143
	7.294437	45.92181
	7.294745	45.92155
	7.295494	45.92135
	7.296848	45.92081
	7.298036	45.91991
	7.298398	45.91951
	7.298747	45.9193
	7.299753	45.91901
	7.300076	45.91884
	7.300269	45.91858
	7.300464	45.91816
	7.301303	45.91746
	7.301652	45.91724
	7.302013	45.91708
	7.30343	45.91733
	7.305711	45.91763
	7.306329	45.91758
	7.306806	45.91749
	7.307555	45.91711
	7.307903	45.91711
	7.30887	45.91687
	7.30936	45.91682
	7.310263	45.9166
	7.311255	45.9166
	7.311809	45.91653
	7.312415	45.91657
	7.313124	45.91653
	7.313935	45.91667
	7.314451	45.91667
	7.314966	45.9168
	7.31525	45.91683
	7.316346	45.91661
	7.316798	45.91589
	7.317057	45.91535
	7.317445	45.91483
	7.317836	45.91303
	7.317965	45.91265
	7.318005	45.91199
	7.318096	45.91172
	7.31829	45.91157
	7.319102	45.91153
	7.32119	45.91126
	7.321809	45.9111
	7.32297	45.91045
	7.323641	45.91024
	7.32435	45.9102
	7.326063	45.91034
	7.327184	45.91056
	7.328794	45.9107
	7.33025	45.91073
	7.330895	45.91066
	7.331197	45.91072
	7.332015	45.91091
	7.332594	45.91145
	7.33289	45.9116
	7.333303	45.91168
	7.333625	45.91154
	7.333921	45.91154
	7.333947	45.91178
	7.3345	45.91217
	7.33508	45.91226
	7.335557	45.91228
	7.336908	45.91294
	7.337231	45.913
	7.33781	45.91325
	7.338261	45.91339
	7.339974	45.91371
	7.340386	45.91386
	7.341971	45.91426
	7.343349	45.91474
	7.344289	45.91528
	7.34474	45.91485
	7.346869	45.91367
	7.347668	45.91335
	7.348997	45.91259
	7.349474	45.9122
	7.34999	45.91191
	7.350674	45.91165
	7.351318	45.91151
	7.352569	45.91139
	7.35396	45.91135
	7.355468	45.9112
	7.3565	45.91053
	7.356218	45.90967
	7.356374	45.90904
	7.356413	45.90861
	7.35635	45.90739
	7.356479	45.9072
	7.35706	45.90702
	7.357343	45.90686
	7.358053	45.90621
	7.35951	45.90551
	7.360053	45.90416
	7.360376	45.90375
	7.361253	45.90324
	7.361962	45.90317
	7.362825	45.90317
	7.363443	45.90324
	7.364242	45.90344
	7.365015	45.9038
	7.36553	45.90398
	7.366045	45.9041
	7.366496	45.90406
	7.36714	45.90379
	7.368404	45.90293
	7.368881	45.90268
	7.369719	45.9025
	7.37075	45.90237
	7.371652	45.90212
	7.372232	45.90187
	7.372723	45.90136
	7.373715	45.9007
	7.374012	45.90042
	7.374077	45.90017
	7.374463	45.90042
	7.375906	45.90062
	7.376615	45.90028
	7.37784	45.89918
	7.378549	45.89871
	7.380328	45.89796
	7.381321	45.89707
	7.381837	45.89673
	7.382391	45.89657
	7.38297	45.89651
	7.385701	45.89701
	7.386255	45.89716
	7.387285	45.89756
	7.388728	45.89792
	7.390054	45.89864
	7.391213	45.89941
	7.39156	45.89981
	7.391728	45.90011
	7.392114	45.90044
	7.39259	45.90074
	7.393041	45.9011
	7.393337	45.90152
	7.393685	45.90179
	7.394689	45.90236
	7.395011	45.90287
	7.395783	45.90367
	7.396582	45.9043
	7.397676	45.90538
	7.397869	45.90575
	7.397868	45.90718
	7.397778	45.90762
	7.397777	45.90836
	7.398357	45.90872
	7.398962	45.9089
	7.401409	45.91095
	7.401666	45.91133
	7.402118	45.91127
	7.402891	45.91102
	7.403536	45.91039
	7.404567	45.90952
	7.405147	45.90917
	7.405727	45.90898
	7.406475	45.90882
	7.407725	45.90844
	7.408691	45.90855
	7.410495	45.90862
	7.411114	45.90859
	7.411663	45.90875
	7.411694	45.90875
	7.412144	45.909
	7.412982	45.90974
	7.413432	45.91001
	7.413883	45.91021
	7.414489	45.91075
	7.415197	45.91109
	7.416164	45.91143
	7.417452	45.91136
	7.418612	45.91138
	7.419424	45.91168
	7.420803	45.9121
	7.421125	45.91235
	7.421356	45.91314
	7.421382	45.9135
	7.42164	45.91404
	7.422258	45.9146
	7.423225	45.9144
	7.423869	45.91442
	7.425357	45.9147
	7.425866	45.91485
	7.426601	45.91514
	7.427052	45.91541
	7.42731	45.9157
	7.428921	45.91654
	7.431536	45.91826
	7.431987	45.91849
	7.433083	45.91952
	7.434178	45.91997
	7.434333	45.92014
	7.434462	45.9205
	7.434397	45.92069
	7.434436	45.92092
	7.435016	45.92135
	7.435235	45.9222
	7.435557	45.92254
	7.436111	45.92294
	7.436459	45.92355
	7.436885	45.92389
	7.437142	45.9242
	7.43856	45.92481
	7.438947	45.92488
	7.43936	45.92571
	7.43994	45.92612
	7.440301	45.9263
	7.441009	45.9269
	7.441461	45.92758
	7.442041	45.92913
	7.442428	45.92969
	7.442776	45.93
	7.444039	45.93081
	7.44449	45.93134
	7.444748	45.93152
	7.445044	45.93148
	7.445586	45.93143
	7.445973	45.93143
	7.446836	45.93122
	7.447223	45.93135
	7.447739	45.93176
	7.448487	45.93185
	7.448835	45.93185
	7.451387	45.93261
	7.454572	45.93275
	7.455796	45.93261
	7.456415	45.93243
	7.456957	45.93349
	7.457318	45.93381
	7.457473	45.93403
	7.457382	45.93437
	7.457511	45.93466
	7.458221	45.93529
	7.458865	45.93558
	7.459446	45.93565
	7.460052	45.93562
	7.460632	45.93553
	7.463275	45.93547
	7.464409	45.9354
	7.465466	45.93486
	7.467954	45.93417
	7.469462	45.93391
	7.47088	45.93398
	7.47137	45.93405
	7.472015	45.93436
	7.473821	45.93551
	7.474556	45.93583
	7.474917	45.9365
	7.474107	45.94039
	7.473206	45.94201
	7.473116	45.94237
	7.472407	45.94347
	7.472214	45.94394
	7.47224	45.94433
	7.472343	45.94464
	7.471854	45.9457
	7.471661	45.94633
	7.471571	45.9473
	7.4717	45.9477
	7.472023	45.94804
	7.472436	45.94826
	7.473764	45.94866
	7.474409	45.94901
	7.474732	45.94929
	7.474925	45.94968
	7.475274	45.95013
	7.477016	45.95166
	7.478603	45.95258
	7.480086	45.95269
	7.481182	45.95298
	7.482859	45.95382
	7.484756	45.95428
	7.487246	45.95566
	7.487788	45.95581
	7.488289	45.95586
	7.489529	45.95579
	7.491889	45.9554
	7.494043	45.95601
	7.496082	45.95718
	7.496302	45.95752
	7.496405	45.95786
	7.496431	45.95831
	7.496238	45.9586
	7.496045	45.95916
	7.495723	45.9593
	7.495568	45.95945
	7.495594	45.95966
	7.495891	45.95994
	7.496327	45.96025
	7.496537	45.96039
	7.497117	45.96071
	7.499273	45.96242
	7.500601	45.96138
	7.502148	45.96053
	7.502921	45.9603
	7.503334	45.96008
	7.504403	45.95922
	7.50488	45.95895
	7.505396	45.95881
	7.506428	45.95872
	7.507008	45.95857
	7.507627	45.95857
	7.50862	45.95863
	7.509562	45.95875
	7.510878	45.95904
	7.511587	45.95926
	7.512207	45.95994
	7.512749	45.95992
	7.513433	45.96002
	7.514221	45.96033
	7.51546	45.96128
	7.515821	45.9618
	7.516106	45.96245
	7.51808	45.9627
	7.517847	45.962
	7.518272	45.96173
	7.519135	45.96131
	7.519689	45.96038
	7.520037	45.96006
	7.520681	45.95964
	7.521132	45.95924
	7.521583	45.95892
	7.521904	45.95849
	7.522033	45.9582
	7.522613	45.95772
	7.523064	45.95762
	7.523747	45.95763
	7.52487	45.95786
	7.526069	45.95752
	7.526713	45.95716
	7.527835	45.95685
	7.528195	45.95653
	7.528776	45.95671
	7.529382	45.95682
	7.530079	45.95686
	7.532542	45.95686
	7.533381	45.95698
	7.534129	45.95702
	7.53458	45.95699
	7.535122	45.95686
	7.535611	45.95668
	7.537184	45.95587
	7.537737	45.95549
	7.538446	45.9549
	7.539737	45.95589
	7.540086	45.95609
	7.541312	45.95648
	7.542538	45.95703
	7.543119	45.95735
	7.543868	45.95809
	7.544644	45.95914
	7.545187	45.95968
	7.545575	45.96022
	7.546353	45.96241
	7.546393	45.96286
	7.546032	45.96322
	7.545813	45.96333
	7.545454	45.96421
	7.545237	45.96529
	7.545006	45.96585
	7.544789	45.96722
	7.544752	45.96819
	7.544495	45.9685
	7.544624	45.96893
	7.543465	45.96958
	7.542989	45.9706
	7.542824	45.9719
	7.542606	45.97249
	7.542479	45.97376
	7.542222	45.97433
	7.541735	45.97588
	7.541542	45.97624
	7.542165	45.97788
	7.543095	45.9786
	7.543328	45.97885
	7.544645	45.97979
	7.544968	45.97997
	7.545813	45.98294
	7.545685	45.98346
	7.545943	45.98382
	7.547469	45.98509
	7.548696	45.98563
	7.54947	45.98584
	7.55018	45.98597
	7.5536	45.98617
	7.555626	45.98603
	7.556761	45.98603
	7.558981	45.98594
	7.559729	45.98578
	7.561303	45.98562
	7.561819	45.98565
	7.562206	45.98574
	7.562982	45.98623
	7.563408	45.98643
	7.563795	45.98647
	7.564956	45.98638
	7.565499	45.98647
	7.566377	45.98674
	7.566661	45.98696
	7.566791	45.98719
	7.566973	45.9873
	7.567501	45.98737
	7.568533	45.98728
	7.568874	45.98733
	7.569049	45.98737
	7.569953	45.98766
	7.570121	45.98768
	7.570573	45.98766
	7.57154	45.98736
	7.571992	45.98734
	7.572534	45.98741
	7.573153	45.98741
	7.57425	45.98754
	7.575384	45.9874
	7.576249	45.98684
	7.577435	45.98635
	7.578376	45.98605
	7.578569	45.98572
	7.578697	45.98524
	7.579172	45.98429
	7.579943	45.98308
	7.580969	45.98078
	7.581329	45.98023
	7.581739	45.97925
	7.581995	45.97831
	7.581708	45.97732
	7.581577	45.97642
	7.581343	45.97559
	7.581149	45.97534
	7.581122	45.97507
	7.583463	45.97253
	7.583785	45.97231
	7.584597	45.97195
	7.58537	45.9715
	7.586272	45.97124
	7.586491	45.97106
	7.586981	45.97093
	7.588851	45.9707
	7.589302	45.97068
	7.590528	45.97088
	7.59169	45.97083
	7.592335	45.97086
	7.593108	45.97077
	7.593496	45.97087
	7.594657	45.97085
	7.596036	45.9706
	7.597326	45.97055
	7.598268	45.97067
	7.598784	45.97062
	7.599751	45.97028
	7.600267	45.97023
	7.601686	45.97023
	7.602104	45.97028
	7.60256	45.97028
	7.604395	45.97039
	7.604459	45.97027
	7.605233	45.97005
	7.606033	45.97009
	7.606587	45.97
	7.607579	45.96967
	7.608675	45.96946
	7.610003	45.96939
	7.610327	45.9695
	7.611877	45.97026
	7.612613	45.97049
	7.613259	45.9706
	7.615067	45.97136
	7.615751	45.97141
	7.617428	45.97133
	7.617946	45.9719
	7.618333	45.9721
	7.618811	45.97226
	7.619366	45.97235
	7.6199	45.97236
	7.620334	45.9723
	7.621262	45.972
	7.623518	45.97153
	7.62504	45.97144
	7.6262	45.97112
	7.626683	45.97105
	7.629128	45.97098
	7.629554	45.97107
	7.62994	45.97102
	7.631513	45.97062
	7.631874	45.97045
	7.632131	45.97041
	7.632519	45.97054
	7.633035	45.97063
	7.633706	45.97066
	7.635575	45.97029
	7.63622	45.97027
	7.636994	45.97016
	7.638929	45.97024
	7.639251	45.97013
	7.640194	45.97026
	7.642415	45.9708
	7.643642	45.97127
	7.644138	45.97149
	7.645128	45.97194
	7.646783	45.97284
	7.647493	45.97306
	7.649651	45.97405
	7.650013	45.97414
	7.650619	45.97414
	7.651239	45.97422
	7.653845	45.97431
	7.655012	45.97566
	7.6554	45.97597
	7.655982	45.97628
	7.657209	45.9766
	7.657828	45.97664
	7.658566	45.97645
	7.65895	45.97652
	7.65944	45.97634
	7.660212	45.9758
	7.660881	45.97544
	7.661333	45.97537
	7.661849	45.97546
	7.66234	45.97561
	7.662753	45.97561
	7.663244	45.97573
	7.663592	45.97575
	7.663979	45.97568
	7.664403	45.97543
	7.664596	45.97512
	7.665367	45.97453
	7.666139	45.97408
	7.666681	45.97408
	7.667585	45.97417
	7.668203	45.97397
	7.668136	45.97335
	7.668328	45.97302
	7.669188	45.97191
	7.669226	45.97178
	7.669804	45.97117
	7.670923	45.97038
	7.670703	45.97009
	7.670663	45.96996
	7.670856	45.96978
	7.672054	45.96933
	7.672827	45.96919
	7.67356	45.96849
	7.673752	45.96815
	7.673808	45.96793
	7.673853	45.96768
	7.67385	45.96698
	7.673939	45.96671
	7.674234	45.96633
	7.675005	45.96572
	7.675675	45.96549
	7.676577	45.96533
	7.676901	45.96513
	7.677283	45.96443
	7.67764	45.96339
	7.67766	45.96216
	7.677761	45.96169
	7.678106	45.96087
	7.679322	45.95883
	7.681055	45.95696
	7.681351	45.95676
	7.681995	45.95664
	7.683478	45.95659
	7.684084	45.95648
	7.686852	45.95541
	7.687496	45.95523
	7.689107	45.95494
	7.690112	45.95464
	7.690388	45.9546
	7.690434	45.9546
	7.690977	45.95486
	7.691531	45.95491
	7.692653	45.95484
	7.693105	45.95498
	7.69362	45.95475
	7.693981	45.95472
	7.69433	45.95486
	7.695103	45.95484
	7.696045	45.9549
	7.698455	45.95461
	7.699009	45.95447
	7.699936	45.95402
	7.700876	45.95379
	7.702357	45.95335
	7.702679	45.95317
	7.70386	45.95203
	7.704733	45.95135
	7.706277	45.95063
	7.70795	45.94968
	7.708616	45.94902
	7.709709	45.94828
	7.70994	45.94801
	7.709936	45.94729
	7.709612	45.94682
	7.709507	45.94655
	7.709569	45.94603
	7.709477	45.9456
	7.709088	45.94531
	7.70883	45.94524
	7.708635	45.94488
	7.708568	45.94442
	7.708657	45.94412
	7.708527	45.94389
	7.708718	45.94338
	7.709033	45.94194
	7.709161	45.94164
	7.708569	45.9394
	7.708216	45.93845
	7.707363	45.93522
	7.707488	45.93454
	7.707616	45.93425
	7.707872	45.93403
	7.708323	45.93391
	7.709444	45.93375
	7.710601	45.93319
	7.711733	45.93253
	7.711989	45.93226
	7.712179	45.93165
	7.712327	45.9303
	7.712323	45.92945
	7.712514	45.929
	7.71277	45.92866
	7.713284	45.92821
	7.714158	45.92778
	7.715214	45.92749
	7.715535	45.92728
	7.715894	45.92699
	7.71624	45.92661
	7.717431	45.92505
	7.718266	45.92442
	7.71878	45.92411
	7.720131	45.92358
	7.720929	45.92343
	7.724641	45.92348
	7.726059	45.92343
	7.726988	45.92352
	7.730183	45.92329
	7.730853	45.92319
	7.731433	45.92322
	7.732271	45.92333
	7.734052	45.92373
	7.734868	45.92379
	7.73489	45.9238
	7.735114	45.92403
	7.735806	45.92622
	7.735809	45.92676
	7.735895	45.9274
	7.736034	45.9279
	7.73623	45.92829
	7.736554	45.92869
	7.737007	45.92912
	7.737822	45.92956
	7.738559	45.93004
	7.741763	45.93117
	7.742953	45.93196
	7.744055	45.93317
	7.745003	45.93436
	7.74607	45.93615
	7.747247	45.93894
	7.747964	45.94038
	7.74768	45.94105
	7.748841	45.94037
	7.749638	45.94001
	7.75135	45.9396
	7.75251	45.93951
	7.752731	45.93978
	7.752925	45.93989
	7.753183	45.93996
	7.753544	45.93991
	7.755178	45.93923
	7.75586	45.93903
	7.756503	45.93878
	7.756664	45.93875
	7.757211	45.93867
	7.757985	45.93867
	7.75859	45.93859
	7.75966	45.93854
	7.761786	45.93818
	7.762623	45.93813
	7.763396	45.93799
	7.764619	45.9377
	7.765199	45.93763
	7.767607	45.93715
	7.768934	45.93706
	7.769385	45.93697
	7.769795	45.93647
	7.770436	45.93589
	7.770794	45.93541
	7.771396	45.93485
	7.772523	45.93363
	7.773576	45.93288
	7.774541	45.93261
	7.774966	45.93256
	7.775186	45.93268
	7.775441	45.93225
	7.775762	45.93193
	7.776404	45.9316
	7.776661	45.93134
	7.777041	45.9304
	7.777066	45.93026
	7.777271	45.92999
	7.779224	45.92891
	7.779326	45.92887
	7.779674	45.92877
	7.780898	45.92866
	7.782222	45.92816
	7.783445	45.9278
	7.784566	45.92768
	7.785404	45.9277
	7.786215	45.92761
	7.786923	45.92747
	7.787306	45.9269
	7.788357	45.92589
	7.788977	45.92569
	7.789874	45.92528
	7.79071	45.92505
	7.791827	45.92432
	7.792121	45.92396
	7.792143	45.92341
	7.792269	45.92291
	7.792589	45.92255
	7.793286	45.92201
	7.793324	45.92167
	7.793288	45.92099
	7.793389	45.92072
	7.793709	45.92039
	7.794159	45.92009
	7.795379	45.91948
	7.795957	45.91912
	7.796561	45.91891
	7.797306	45.91851
	7.798525	45.91772
	7.799065	45.91745
	7.799554	45.91733
	7.800159	45.91728
	7.800907	45.9174
	7.801682	45.91757
	7.802547	45.91784
	7.804382	45.91866
	7.805755	45.9196
	7.806144	45.9199
	7.807053	45.92088
	7.808635	45.92232
	7.809217	45.92268
	7.809967	45.92303
	7.811388	45.92339
	7.813412	45.92354
	7.813662	45.9236
	7.813993	45.9237
	7.814512	45.92421
	7.815481	45.92456
	7.815973	45.92486
	7.816298	45.92517
	7.816905	45.92539
	7.817812	45.92611
	7.819104	45.92656
	7.819274	45.92687
	7.819558	45.92684
	7.820665	45.92704
	7.821944	45.92701
	7.822819	45.92679
	7.823783	45.92641
	7.82507	45.92613
	7.825715	45.92624
	7.826063	45.92622
	7.827518	45.92599
	7.829381	45.92534
	7.829923	45.92522
	7.830604	45.9251
	7.831146	45.92503
	7.832278	45.92471
	7.833009	45.92414
	7.833712	45.92338
	7.834007	45.92318
	7.834354	45.923
	7.834843	45.92288
	7.83519	45.92272
	7.83664	45.92184
	7.837825	45.92181
	7.838573	45.92186
	7.840831	45.92214
	7.842697	45.92177
	7.843496	45.92172
	7.845207	45.92136
	7.847613	45.92067
	7.848425	45.9207
	7.849068	45.92051
	7.849905	45.92047
	7.850808	45.92048
	7.852355	45.92064
	7.853066	45.92081
	7.853594	45.92088
	7.856226	45.92118
	7.856806	45.92116
	7.857901	45.92104
	7.858737	45.92081
	7.859532	45.92036
	7.859746	45.92019
	7.860211	45.91971
	7.860465	45.91923
	7.86078	45.91831
	7.861098	45.91782
	7.861611	45.91745
	7.862703	45.91697
	7.863563	45.9167
	7.863219	45.91631
	7.863051	45.91558
	7.862807	45.91536
	7.862184	45.91492
	7.861897	45.91443
	7.861964	45.91369
	7.862239	45.91284
	7.862192	45.91199
	7.861808	45.91122
	7.861373	45.91041
	7.861468	45.90956
	7.861859	45.90873
	7.862323	45.90809
	7.86316	45.90755
	7.864224	45.90719
	7.86534	45.90683
	7.866536	45.90637
	7.867538	45.90591
	7.867843	45.90549
	7.867538	45.90464
	7.86718	45.90384
	7.867249	45.90331
	7.867068	45.90324
	7.866158	45.90277
	7.865822	45.90215
	7.865243	45.90148
	7.864837	45.90115
	7.864041	45.90036
	7.863783	45.89974
	7.863585	45.8987
	7.863533	45.8981
	7.863535	45.89735
	7.863513	45.89654
	7.863558	45.89561
	7.864074	45.89367
	7.864141	45.89293
	7.864346	45.89236
	7.86457	45.8915
	7.864935	45.89068
	7.865413	45.88998
	7.865946	45.88912
	7.866128	45.88841
	7.866129	45.88772
	7.866091	45.88705
	7.865694	45.88504
	7.865639	45.88395
	7.865617	45.88309
	7.865491	45.88236
	7.865411	45.88122
	7.865408	45.88008
	7.86561	45.87904
	7.86627	45.87826
	7.866998	45.87733
	7.867762	45.8765
	7.868487	45.87568
	7.868678	45.87519
	7.868508	45.87404
	7.868344	45.87323
	7.86836	45.87241
	7.868611	45.87149
	7.868885	45.87067
	7.86885	45.86988
	7.868727	45.86896
	7.868664	45.86823
	7.868816	45.86772
	7.869225	45.86723
	7.86987	45.86657
	7.870756	45.8661
	7.871198	45.86588
	7.871619	45.86545
	7.871745	45.86498
	7.872155	45.86446
	7.873068	45.86387
	7.873865	45.86331
	7.874481	45.86281
	7.875121	45.86236
	7.875708	45.86204
	7.875923	45.86158
	7.875768	45.86094
	7.875107	45.85988
	7.874443	45.85897
	7.874275	45.85835
	7.87418	45.85792
	7.874311	45.85717
	7.874454	45.85652
	7.87454	45.85542
	7.874442	45.85455
	7.874225	45.85378
	7.873941	45.85316
	7.873577	45.85269
	7.872742	45.85198
	7.872158	45.85154
	7.87128	45.85103
	7.870171	45.85045
	7.869227	45.84999
	7.868323	45.84948
	7.867307	45.84879
	7.866712	45.84828
	7.866389	45.84766
	7.866183	45.84704
	7.866021	45.84616
	7.866033	45.84557
	7.8661	45.84479
	7.866076	45.84408
	7.865941	45.84372
	7.865516	45.84311
	7.864731	45.8418
	7.864511	45.84122
	7.864287	45.84085
	7.864126	45.84053
	7.863956	45.84006
	7.863862	45.83958
	7.86401	45.83929
	7.864671	45.83844
	7.864986	45.83814
	7.865419	45.83777
	7.866098	45.83726
	7.866363	45.8369
	7.866836	45.83647
	7.867396	45.83612
	7.867854	45.83579
	7.86844	45.83545
	7.869025	45.83518
	7.870107	45.83451
	7.870991	45.83412
	7.871428	45.83354
	7.871894	45.83276
	7.872731	45.83147
	7.873483	45.82993
	7.87388	45.82878
	7.873996	45.8275
	7.874038	45.82598
	7.8735	45.82592
	7.872326	45.826
	7.870874	45.82588
	7.86903	45.8254
	7.867796	45.82466
	7.866196	45.82295
	7.865198	45.82203
	7.86407	45.82113
	7.862332	45.8199
	7.86239	45.81956
	7.863575	45.81698
	7.86389	45.81607
	7.864211	45.81357
	7.864268	45.81015
	7.86439	45.80857
	7.864533	45.80724
	7.864763	45.80606
	7.865096	45.80483
	7.86625	45.80253
	7.866615	45.80164
	7.866526	45.80036
	7.866233	45.79891
	7.865983	45.79793
	7.865223	45.7967
	7.86415	45.79506
	7.863138	45.79356
	7.862639	45.79216
	7.8631	45.79099
	7.864072	45.79004
	7.865488	45.78869
	7.866568	45.7875
	7.869038	45.78495
	7.869164	45.78379
	7.869119	45.78286
	7.869998	45.78198
	7.871253	45.78103
	7.872456	45.78007
	7.872926	45.77906
	7.873417	45.77829
	7.874451	45.77745
	7.875963	45.77645
	7.877473	45.77552
	7.879104	45.77461
	7.880636	45.7737
	7.882205	45.77238
	7.882809	45.77112
	7.882259	45.76968
	7.881422	45.76844
	7.880856	45.76716
	7.881111	45.76664
	7.882185	45.76569
	7.883557	45.76461
	7.884046	45.76391
	7.88411	45.76263
	7.884229	45.76186
	7.884477	45.76103
	7.884931	45.7602
	7.88548	45.75971
	7.886863	45.75937
	7.888848	45.75913
	7.890109	45.75844
	7.890796	45.7575
	7.891244	45.7563
	7.891549	45.7552
	7.892193	45.75452
	7.893626	45.75354
	7.894836	45.75282
	7.89624	45.75205
	7.897254	45.75147
	7.898271	45.75075
	7.899129	45.75028
	7.899488	45.74969
	7.900165	45.74925
	7.901686	45.74905
	7.903264	45.74857
	7.904865	45.74818
	7.906673	45.74782
	7.90849	45.74759
	7.910345	45.7474
	7.911619	45.74731
	7.913338	45.74686
	7.914587	45.74609
	7.915817	45.745
	7.916553	45.74416
	7.917285	45.74351
	7.921066	45.74279
	7.922579	45.74228
	7.92436	45.74191
	7.925838	45.74196
	7.926964	45.74223
	7.928078	45.74246
	7.929003	45.74244
	7.92986	45.74205
	7.930876	45.74133
	7.930873	45.74082
	7.930295	45.7401
	7.929188	45.73955
	7.928313	45.73892
	7.927445	45.73792
	7.927092	45.7369
	7.927149	45.73594
	7.927266	45.73519
	7.927262	45.7347
	7.927966	45.73418
	7.928823	45.73374
	7.929561	45.73346
	7.930753	45.73298
	7.932136	45.73188
	7.932871	45.73105
	7.93284	45.73003
	7.932713	45.72926
	7.933442	45.72874
	7.934187	45.7281
	7.934717	45.72726
	7.935411	45.72658
	7.936071	45.72568
	7.936405	45.72499
	7.936624	45.72434
	7.935749	45.72369
	7.93473	45.72322
	7.933997	45.72257
	7.93349	45.72149
	7.932832	45.72028
	7.932297	45.71941
	7.931436	45.7187
	7.930486	45.71799
	7.929327	45.71748
	7.928868	45.71726
	7.929417	45.71679
	7.929891	45.71619
	7.929997	45.71534
	7.92993	45.71412
	7.92942	45.71325
	7.928556	45.71207
	7.926548	45.71026
	7.925731	45.70931
	7.9248	45.70827
	7.924213	45.70742
	7.923973	45.7065
	7.923778	45.70596
	7.923645	45.70554
	7.923145	45.70484
	7.920298	45.7019
	7.919725	45.70167
	7.918963	45.7012
	7.918431	45.70082
	7.91723	45.70046
	7.915663	45.70047
	7.914163	45.70098
	7.912785	45.70114
	7.911803	45.70079
	7.911477	45.7004
	7.911031	45.69954
	7.910533	45.69873
	7.910067	45.69824
	7.909411	45.69764
	7.909014	45.6969
	7.908607	45.69604
	7.908324	45.69539
	7.908037	45.69431
	7.907792	45.6937
	7.907265	45.69305
	7.906815	45.69243
	7.90646	45.69155
	7.906503	45.69128
	7.906694	45.69074
	7.906151	45.68959
	7.905605	45.68862
	7.905425	45.68794
	7.904805	45.6862
	7.904763	45.68567
	7.904795	45.68473
	7.905155	45.68339
	7.905201	45.683
	7.905208	45.68196
	7.906262	45.68193
	7.909156	45.68102
	7.910349	45.68039
	7.911145	45.67977
	7.911352	45.67899
	7.911463	45.67793
	7.911563	45.67673
	7.911761	45.67579
	7.911855	45.67495
	7.912132	45.67388
	7.912135	45.67306
	7.912012	45.67212
	7.911916	45.67176
	7.91186	45.67068
	7.912624	45.67001
	7.913838	45.66967
	7.915268	45.66939
	7.916583	45.66909
	7.917904	45.66851
	7.92003	45.66741
	7.920797	45.66697
	7.921616	45.66642
	7.922136	45.66542
	7.922002	45.66434
	7.921525	45.66315
	7.920997	45.66189
	7.920855	45.66061
	7.921649	45.65936
	7.922585	45.65807
	7.923857	45.65668
	7.925238	45.65557
	7.92616	45.65504
	7.9268	45.65445
	7.927244	45.65338
	7.927166	45.65144
	7.927195	45.65018
	7.928049	45.64953
	7.929625	45.64899
	7.931351	45.64864
	7.933125	45.64852
	7.934216	45.6478
	7.935146	45.6468
	7.936612	45.646
	7.938175	45.64543
	7.939028	45.64446
	7.939504	45.6437
	7.939192	45.64257
	7.938584	45.64147
	7.938349	45.6403
	7.938371	45.63912
	7.938016	45.63822
	7.937638	45.63718
	7.937052	45.63627
	7.936108	45.63569
	7.934948	45.63559
	7.934258	45.63547
	7.933405	45.63576
	7.931833	45.63613
	7.929715	45.63616
	7.927539	45.63589
	7.925175	45.63542
	7.923033	45.6347
	7.921212	45.63397
	7.91958	45.63347
	7.917775	45.63324
	7.915905	45.63309
	7.915039	45.63274
	7.914297	45.63198
	7.913553	45.63128
	7.912949	45.63068
	7.912893	45.62961
	7.912908	45.62815
	7.912503	45.62719
	7.911567	45.62653
	7.910774	45.62575
	7.909698	45.62498
	7.90853	45.62436
	7.907101	45.62396
	7.906748	45.62363
	7.906547	45.62277
	7.90599	45.62173
	7.905269	45.62121
	7.904418	45.62079
	7.903726	45.62007
	7.903037	45.61856
	7.902456	45.61749
	7.901431	45.61674
	7.900748	45.61627
	7.899947	45.61521
	7.899463	45.61443
	7.898877	45.61357
	7.898119	45.61294
	7.897463	45.61253
	7.896577	45.61179
	7.896831	45.61102
	7.896795	45.61051
	7.896323	45.60974
	7.894923	45.60854
	7.895589	45.60792
	7.89654	45.60714
	7.897274	45.60665
	7.897385	45.60632
	7.896891	45.60562
	7.896573	45.60482
	7.896315	45.6036
	7.8961	45.60277
	7.895828	45.60162
	7.895885	45.60067
	7.896249	45.59977
	7.896793	45.59881
	7.897337	45.59791
	7.897932	45.59698
	7.898764	45.59576
	7.899375	45.59465
	7.900141	45.59349
	7.900556	45.59262
	7.900731	45.59217
	7.900766	45.59172
	7.900143	45.59143
	7.899051	45.59153
	7.898605	45.59144
	7.897735	45.59068
	7.897139	45.59035
	7.896335	45.59012
	7.895786	45.59003
	7.895387	45.59026
	7.894307	45.59092
	7.893487	45.59152
	7.892393	45.59241
	7.891584	45.59312
	7.890996	45.5937
	7.890507	45.59445
	7.890439	45.5953
	7.890647	45.59646
	7.890585	45.59699
	7.889162	45.59764
	7.8875	45.59804
	7.885302	45.59832
	7.883742	45.59873
	7.88267	45.59913
	7.881674	45.59955
	7.880513	45.59991
	7.879175	45.60016
	7.877404	45.60023
	7.876074	45.60002
	7.875157	45.59972
	7.873857	45.59932
	7.872513	45.5992
	7.870415	45.59898
	7.866269	45.59794
	7.865224	45.59759
	7.864715	45.59731
	7.863847	45.59721
	7.863093	45.59707
	7.862277	45.59699
	7.860556	45.59702
	7.859757	45.59723
	7.859044	45.59758
	7.858112	45.59801
	7.855517	45.59889
	7.852886	45.60031
	7.85169	45.60108
	7.84999	45.60208
	7.849472	45.60232
	7.848873	45.60226
	7.848091	45.6015
	7.847259	45.60055
	7.846065	45.59961
	7.845254	45.59916
	7.844414	45.59886
	7.844046	45.59867
	7.843008	45.598
	7.842173	45.59748
	7.841434	45.59723
	7.839687	45.59742
	7.837916	45.59751
	7.836861	45.59765
	7.835513	45.59772
	7.833757	45.59771
	7.831704	45.59778
	7.830936	45.59772
	7.828829	45.5973
	7.827783	45.59707
	7.827349	45.59694
	7.826952	45.5966
	7.82514	45.5959
	7.823855	45.59545
	7.822632	45.59506
	7.820951	45.59448
	7.819259	45.59387
	7.818187	45.59362
	7.816477	45.59325
	7.815162	45.59299
	7.814129	45.59275
	7.813771	45.59259
	7.813227	45.59234
	7.812458	45.59174
	7.811896	45.59103
	7.811306	45.5904
	7.8106	45.58986
	7.809838	45.58949
	7.808214	45.58932
	7.807395	45.58925
	7.806643	45.58903
	7.806074	45.58866
	7.80539	45.58769
	7.805189	45.58686
	7.804375	45.58683
	7.803624	45.58687
	7.802869	45.58688
	7.802842	45.58689
	7.801752	45.58695
	7.801178	45.58682
	7.800513	45.58674
	7.79831	45.58666
	7.797765	45.5866
	7.797209	45.58657
	7.795677	45.58639
	7.795037	45.58624
	7.794734	45.58603
	7.794639	45.58564
	7.794739	45.58519
	7.795521	45.58407
	7.795975	45.58315
	7.796815	45.58271
	7.796281	45.58262
	7.795389	45.58231
	7.794352	45.58169
	7.793368	45.58095
	7.792524	45.58027
	7.790083	45.57813
	7.788755	45.57732
	7.787865	45.577
	7.78699	45.57654
	7.787143	45.57597
	7.787243	45.57551
	7.786599	45.57508
	7.785323	45.57479
	7.784296	45.57427
	7.782595	45.57351
	7.781705	45.57305
	7.780707	45.57253
	7.778935	45.57148
	7.777452	45.57072
	7.775738	45.57002
	7.774799	45.56956
	7.773989	45.56921
	7.773606	45.56905
	7.772106	45.56847
	7.770387	45.56799
	7.769267	45.5676
	7.76848	45.56725
	7.764206	45.56643
	7.762825	45.56569
	7.761859	45.56532
	7.760541	45.56524
	7.759001	45.56534
	7.75821	45.5652
	7.755731	45.5637
	7.754149	45.56282
	7.752895	45.56214
	7.751727	45.56168
	7.750397	45.56153
	7.74957	45.56069
	7.748827	45.56012
	7.747567	45.55975
	7.746229	45.55952
	7.745739	45.55839
	7.745457	45.55782
	7.744864	45.55685
	7.742843	45.55552
	7.741853	45.55453
	7.741311	45.55414
	7.740366	45.55398
	7.739319	45.55327
	7.737831	45.55222
	7.73686	45.55164
	7.736036	45.55111
	7.734992	45.5508
	7.733841	45.55074
	7.73323	45.55055
	7.732699	45.55033
	7.731908	45.55053
	7.731733	45.55056
	7.730295	45.55074
	7.729785	45.55109
	7.729433	45.55151
	7.729312	45.5522
	7.729198	45.55254
	7.728063	45.55339
	7.726574	45.55372
	7.725601	45.55412
	7.725118	45.5553
	7.724449	45.55578
	7.723804	45.55667
	7.72295	45.5574
	7.722432	45.5578
	7.720521	45.5585
	7.718932	45.55889
	7.717895	45.55888
	7.717596	45.5589
	7.717081	45.55886
	7.716346	45.55896
	7.715221	45.55825
	7.715023	45.55808
	7.713881	45.55697
	7.712557	45.55685
	7.711839	45.55673
	7.7098	45.556
	7.708844	45.55586
	7.707826	45.55563
	7.706644	45.55549
	7.706254	45.55546
	7.704261	45.55537
	7.703513	45.55542
	7.702927	45.55579
	7.702587	45.55609
	7.702223	45.55644
	7.701954	45.55659
	7.70042	45.55672
	7.699908	45.55667
	7.699182	45.55649
	7.698407	45.5562
	7.69753	45.55589
	7.696702	45.55571
	7.695856	45.55573
	7.695106	45.556
	7.6945	45.55616
	7.693783	45.55615
	7.692649	45.55589
	7.691715	45.55584
	7.690905	45.55587
	7.690144	45.55617
	7.68948	45.55665
	7.688998	45.55696
	7.688274	45.55735
	7.687124	45.5571
	7.686186	45.55665
	7.685425	45.55618
	7.684017	45.5552
	7.682906	45.55447
	7.682122	45.55406
	7.681166	45.55384
	7.680005	45.5536
	7.67917	45.55316
	7.678194	45.55272
	7.67754	45.55222
	7.676915	45.55207
	7.6755	45.55234
	7.674201	45.55292
	7.672987	45.55358
	7.671907	45.55428
	7.670481	45.55515
	7.669446	45.55578
	7.666486	45.55754
	7.66341	45.55922
	7.66094	45.56089
	7.658968	45.56206
	7.65712	45.56289
	7.654927	45.56347
	7.653929	45.56346
	7.652249	45.56366
	7.650938	45.56391
	7.650002	45.56459
	7.649477	45.56554
	7.648911	45.56673
	7.648871	45.56684
	7.64753	45.5679
	7.646992	45.56845
	7.645943	45.56899
	7.645417	45.56899
	7.644798	45.56907
	7.644579	45.56906
	7.642734	45.56872
	7.641643	45.56866
	7.640329	45.56888
	7.634862	45.57037
	7.634443	45.5705
	7.634045	45.57079
	7.633106	45.57048
	7.632722	45.5704
	7.63178	45.57012
	7.629937	45.56912
	7.628953	45.5687
	7.627153	45.56785
	7.626696	45.56773
	7.625584	45.56716
	7.624474	45.56694
	7.623336	45.56698
	7.62293	45.56709
	7.622158	45.56722
	7.621443	45.56736
	7.620819	45.56716
	7.619872	45.56627
	7.6188	45.56512
	7.617705	45.56462
	7.615849	45.56433
	7.613885	45.56399
	7.611721	45.56338
	7.610167	45.56283
	7.609066	45.56288
	7.60838	45.56322
	7.607793	45.56364
	7.607184	45.56446
	7.607065	45.56513
	7.607199	45.56592
	7.607444	45.56688
	7.607526	45.56773
	7.607467	45.56855
	7.607243	45.56931
	7.606901	45.57019
	7.60668	45.57084
	7.606532	45.57166
	7.606207	45.57284
	7.605852	45.57333
	7.605393	45.57366
	7.604756	45.57401
	7.604144	45.57439
	7.603632	45.57489
	7.603042	45.57543
	7.600779	45.57726
	7.599695	45.57809
	7.599083	45.57845
	7.598896	45.5785
	7.598153	45.57874
	7.596489	45.57919
	7.594942	45.57952
	7.594086	45.57991
	7.592992	45.58062
	7.591957	45.58102
	7.589985	45.58195
	7.588886	45.58232
	7.587494	45.58261
	7.585886	45.58236
	7.58486	45.58186
	7.583971	45.58146
	7.583326	45.58118
	7.582716	45.58097
	7.582335	45.58135
	7.581972	45.58201
	7.58152	45.58275
	7.581158	45.58329
	7.580829	45.58363
	7.580074	45.58406
	7.58001	45.58421
	7.579797	45.5844
	7.579365	45.58473
	7.578678	45.58502
	7.578342	45.58512
	7.577955	45.58523
	7.577325	45.58533
	7.576947	45.58547
	7.576676	45.58564
	7.576461	45.58601
	7.576442	45.58628
	7.576381	45.58667
	7.576397	45.58756
	7.576388	45.58782
	7.576223	45.58803
	7.575841	45.58829
	7.575204	45.58859
	7.57467	45.58891
	7.573968	45.5893
	7.573645	45.58942
	7.573059	45.58947
	7.572423	45.58957
	7.570938	45.59
	7.570223	45.59036
	7.569288	45.59087
	7.5686	45.5912
	7.567773	45.59144
	7.566473	45.59162
	7.565488	45.59157
	7.56447	45.59124
	7.562842	45.59075
	7.56086	45.59055
	7.558984	45.59052
	7.558286	45.59043
	7.556955	45.59036
	7.556001	45.59004
	7.554978	45.58995
	7.554088	45.58967
	7.553323	45.5895
	7.552525	45.58911
	7.551505	45.58889
	7.550419	45.58875
	7.549162	45.5888
	7.548419	45.58878
	7.547923	45.5886
	7.547374	45.58802
	7.546789	45.58733
	7.546425	45.58703
	7.545881	45.58677
	7.544368	45.58629
	7.542999	45.58568
	7.541835	45.58511
	7.540612	45.58429
	7.539877	45.58316
	7.539725	45.5829
	7.539457	45.58237
	7.539113	45.5818
	7.538613	45.58131
	7.537387	45.58064
	7.536373	45.5802
	7.5353	45.57955
	7.534356	45.57888
	7.533281	45.57785
	7.532671	45.57717
	7.531771	45.57679
	7.530312	45.57669
	7.528405	45.5766
	7.526483	45.57657
	7.523971	45.57656
	7.522641	45.57662
	7.520886	45.57688
	7.520087	45.57707
	7.518809	45.57789
	7.514979	45.57927
	7.513759	45.57983
	7.512466	45.58025
	7.51109	45.58042
	7.509754	45.58053
	7.508912	45.58089
	7.507434	45.58149
	7.506362	45.58182
	7.505783	45.58196
	7.504159	45.58221
	7.50243	45.58267
	7.500951	45.58285
	7.499021	45.58311
	7.497442	45.58319
	7.495896	45.583
	7.49437	45.58305
	7.492765	45.58314
	7.491722	45.58329
	7.491354	45.58328
	7.490685	45.58324
	7.489317	45.58311
	7.488071	45.58275
	7.48666	45.58231
	7.485261	45.5819
	7.483007	45.58041
	7.481763	45.57945
	7.48057	45.57903
	7.478538	45.57881
	7.477022	45.57894
	7.475937	45.57878
	7.47535	45.57818
	7.474138	45.57798
	7.472551	45.57789
	7.470865	45.57769
	7.469048	45.57757
	7.467598	45.57763
	7.465854	45.57765
	7.465002	45.57743
	7.464511	45.57663
	7.463866	45.57584
	7.463475	45.57512
	7.463673	45.57399
	7.463497	45.57292
	7.461656	45.57133
	7.460516	45.57037
	7.459107	45.56943
	7.457542	45.56852
	7.456109	45.56751
	7.455131	45.56624
	7.454495	45.56515
	7.451864	45.56199
	7.450465	45.56169
	7.449557	45.56134
	7.448636	45.56083
	7.448162	45.5599
	7.448217	45.55881
	7.448313	45.55769
	7.448344	45.55653
	7.448108	45.55581
	7.447888	45.55543
	7.447109	45.55534
	7.444983	45.55489
	7.443255	45.55434
	7.441371	45.55344
	7.44014	45.5526
	7.438755	45.55174
	7.436673	45.55106
	7.434505	45.55073
	7.433441	45.55029
	7.432668	45.54953
	7.431499	45.54921
	7.429524	45.54836
	7.428243	45.54746
	7.426399	45.54652
	7.424994	45.54592
	7.423833	45.54577
	7.422175	45.54601
	7.420583	45.54657
	7.41933	45.54697
	7.417703	45.54697
	7.416769	45.5465
	7.415951	45.54552
	7.415649	45.5448
	7.416038	45.54289
	7.415992	45.54177
	7.416194	45.54051
	7.416638	45.53931
	7.41687	45.53834
	7.416511	45.53742
	7.415093	45.5364
	7.414008	45.53585
	7.412506	45.53552
	7.410713	45.5355
	7.408879	45.53521
	7.40724	45.53474
	7.405429	45.53449
	7.404138	45.53438
	7.402622	45.53414
	7.401034	45.53368
	7.399393	45.5333
	7.398225	45.53292
	7.397324	45.53221
	7.396536	45.53199
	7.395791	45.53164
	7.395722	45.53092
	7.396376	45.52998
	7.39671	45.52902
	7.39675	45.52851
	7.395874	45.52828
	7.395072	45.5281
	7.39448	45.52731
	7.393171	45.52611
	7.392161	45.52559
	7.39133	45.52555
	7.390229	45.52507
	7.389327	45.52439
	7.388498	45.52384
	7.387889	45.52276
	7.387155	45.52201
	7.386314	45.52188
	7.38557	45.52148
	7.38487	45.52043
	7.383449	45.51957
	7.381474	45.51879
	7.379999	45.518
	7.37857	45.51738
	7.377239	45.5169
	7.376187	45.51658
	7.375537	45.51646
	7.374156	45.51641
	7.372244	45.5167
	7.371637	45.51678
	7.370469	45.51731
	7.369719	45.51847
	7.369039	45.52074
	7.368031	45.52238
	7.366952	45.5234
	7.365283	45.52446
	7.364024	45.52505
	7.362592	45.52543
	7.360841	45.52575
	7.359301	45.52587
	7.357881	45.52542
	7.356537	45.52449
	7.355301	45.5239
	7.353765	45.52344
	7.352193	45.52291
	7.350889	45.5224
	7.349633	45.52204
	7.348776	45.52199
	7.347571	45.52206
	7.346414	45.52178
	7.345038	45.52152
	7.343959	45.52125
	7.342733	45.52113
	7.341483	45.52099
	7.339924	45.52088
	7.338661	45.52118
	7.336978	45.52137
	7.335281	45.52119
	7.333759	45.52072
	7.330981	45.51936
	7.32988	45.51898
	7.329132	45.51878
	7.32837	45.51856
	7.327904	45.5183
	7.326975	45.51768
	7.32624	45.517
	7.325345	45.51609
	7.323506	45.51464
	7.32234	45.51424
	7.321104	45.51403
	7.320243	45.51409
	7.319213	45.51435
	7.318012	45.51472
	7.316708	45.51509
	7.315849	45.51517
	7.315244	45.51524
	7.314943	45.51521
	7.313903	45.51514
	7.312881	45.51504
	7.311917	45.51518
	7.310877	45.51527
	7.309775	45.51532
	7.308529	45.51548
	7.307203	45.51571
	7.305957	45.51587
	7.30494	45.51604
	7.303813	45.51649
	7.302813	45.51697
	7.302064	45.51718
	7.301166	45.51722
	7.300454	45.51706
	7.299964	45.51675
	7.299225	45.51619
	7.298932	45.51614
	7.298444	45.51622
	7.297874	45.51645
	7.297026	45.51655
	7.296015	45.51653
	7.293175	45.51606
	7.292047	45.51567
	7.290769	45.51516
	7.289621	45.51465
	7.288205	45.5136
	7.286876	45.51312
	7.285907	45.51301
	7.284491	45.51282
	7.283102	45.51261
	7.28158	45.5126
	7.280321	45.51274
	7.279685	45.51301
	7.278955	45.51344
	7.277871	45.51375
	7.276497	45.51386
	7.275026	45.51411
	7.272946	45.51444
	7.271842	45.51453
	7.271139	45.5145
	7.270953	45.51451
	7.270409	45.51451
	7.270187	45.51456
	7.269497	45.51468
	7.269309	45.51408
	7.268796	45.5133
	7.268184	45.51279
	7.2673	45.5124
	7.266621	45.51201
	7.266282	45.51136
	7.266283	45.51051
	7.266612	45.50936
	7.266623	45.50859
	7.266569	45.50786
	7.266623	45.50693
	7.266522	45.50604
	7.266327	45.50531
	7.266398	45.50467
	7.266387	45.50379
	7.265932	45.50275
	7.265518	45.50206
	7.265038	45.50144
	7.264845	45.50105
	7.264744	45.50056
	7.264631	45.5002
	7.264369	45.49989
	7.26373	45.49903
	7.263255	45.49867
	7.262749	45.4986
	7.261303	45.49846
	7.260077	45.49839
	7.25874	45.49816
	7.257847	45.49805
	7.256499	45.49779
	7.255054	45.49734
	7.25323	45.49674
	7.252159	45.49617
	7.250526	45.4956
	7.249542	45.49514
	7.248844	45.49452
	7.248178	45.49416
	7.247553	45.49407
	7.246995	45.4935
	7.246535	45.49265
	7.245527	45.49216
	7.244679	45.49185
	7.243816	45.49119
	7.242964	45.4902
	7.241994	45.48928
	7.240415	45.48821
	7.239059	45.48738
	7.237817	45.48659
	7.236497	45.48584
	7.235818	45.48543
	7.235673	45.48516
	7.235713	45.48472
	7.235425	45.4841
	7.234602	45.4834
	7.233961	45.48254
	7.233593	45.48171
	7.232871	45.48105
	7.232432	45.48035
	7.232041	45.47936
	7.231534	45.4788
	7.230653	45.47832
	7.230382	45.478
	7.230412	45.47702
	7.230486	45.4759
	7.230384	45.47546
	7.229679	45.4751
	7.228375	45.47467
	7.22714	45.47406
	7.226037	45.47333
	7.225304	45.47263
	7.224689	45.47185
	7.224383	45.47141
	7.223423	45.47062
	7.22266	45.47048
	7.221659	45.47057
	7.221014	45.47074
	7.219428	45.47119
	7.218008	45.47116
	7.216261	45.47099
	7.214929	45.47105
	7.213746	45.47126
	7.211767	45.47236
	7.210676	45.47246
	7.209841	45.47256
	7.208972	45.47299
	7.208454	45.474
	7.208264	45.47433
	7.207994	45.47478
	7.20743	45.47564
	7.206524	45.47636
	7.205275	45.47707
	7.203692	45.47815
	7.203305	45.47833
	7.202502	45.47892
	7.201358	45.47989
	7.200272	45.48064
	7.199464	45.48115
	7.198093	45.48121
	7.195901	45.48133
	7.193672	45.4814
	7.192254	45.48175
	7.190963	45.48173
	7.189011	45.48195
	7.185253	45.48263
	7.183654	45.48306
	7.181733	45.4831
	7.180151	45.48296
	7.178022	45.48271
	7.174576	45.48206
	7.172804	45.48186
	7.171148	45.48203
	7.170133	45.48258
	7.169201	45.48329
	7.167303	45.4842
	7.165629	45.48498
	7.163868	45.4856
	7.161954	45.48623
	7.16033	45.48659
	7.158624	45.48672
	7.157272	45.4866
	7.156171	45.48622
	7.154999	45.48567
	7.153623	45.48511
	7.15285	45.48487
	7.152085	45.48439
	7.151129	45.48351
	7.150481	45.48259
	7.149792	45.48135
	7.149325	45.48037
	7.148852	45.47958
	7.148017	45.47812
	7.147468	45.47769
	7.146767	45.47762
	7.146063	45.47801
	7.145474	45.47839
	7.144805	45.47812
	7.144351	45.47788
	7.144031	45.47779
	7.143582	45.47783
	7.143209	45.47803
	7.142919	45.47837
	7.14273	45.47783
	7.142605	45.47777
	7.142068	45.47759
	7.142024	45.47759
	7.141944	45.47751
	7.141226	45.47708
	7.141105	45.47704
	7.140318	45.47696
	7.139586	45.47716
	7.139523	45.47719
	7.138538	45.47824
	7.138378	45.47898
	7.138376	45.47904
	7.138616	45.48003
	7.138988	45.48079
	7.139177	45.48107
	7.139582	45.48149
	7.13993	45.48172
	7.140275	45.48191
	7.140657	45.48208
	7.14004	45.48338
	7.140018	45.48443
	7.139878	45.48527
	7.139542	45.48608
	7.138693	45.48742
	7.138073	45.48835
	7.137365	45.48966
	7.136915	45.49086
	7.136936	45.49179
	7.137532	45.49234
	7.139172	45.49307
	7.140514	45.49391
	7.141763	45.49483
	7.143021	45.49588
	7.1435	45.49651
	7.143663	45.49699
	7.143462	45.49767
	7.142962	45.4985
	7.142032	45.49992
	7.14181	45.50038
	7.14131	45.50126
	7.141196	45.50199
	7.140902	45.50275
	7.140936	45.50366
	7.1414	45.50434
	7.14225	45.50537
	7.143013	45.50589
	7.144166	45.50665
	7.144476	45.50736
	7.144402	45.50844
	7.143667	45.50975
	7.142322	45.51057
	7.141056	45.51092
	7.139782	45.51111
	7.138614	45.51121
	7.138566	45.51226
	7.138417	45.51329
	7.138163	45.51439
	7.137919	45.5152
	7.137527	45.51626
	7.135479	45.51578
	7.134301	45.51546
	7.132919	45.51467
	7.131551	45.51384
	7.130078	45.51308
	7.129196	45.51264
	7.128335	45.51238
	7.127512	45.51209
	7.126334	45.5117
	7.125742	45.51104
	7.125239	45.50998
	7.124241	45.5092
	7.123856	45.50883
	7.123527	45.50838
	7.122027	45.5073
	7.121433	45.50667
	7.121665	45.50624
	7.121772	45.50532
	7.12189	45.50409
	7.121785	45.50301
	7.121575	45.50125
	7.12156	45.50101
	7.121591	45.49962
	7.121541	45.49883
	7.121255	45.4978
	7.120787	45.49683
	7.12017	45.49613
	7.119427	45.49577
	7.118788	45.49558
	7.118706	45.49549
	7.118838	45.49468
	7.118899	45.49395
	7.11866	45.49306
	7.117929	45.49231
	7.117178	45.49182
	7.116777	45.49119
	7.116495	45.49043
	7.116097	45.48969
	7.115815	45.48895
	7.115293	45.48808
	7.114879	45.48709
	7.114818	45.48622
	7.114707	45.48532
	7.114641	45.48422
	7.114675	45.48243
	7.114427	45.48144
	7.114241	45.48047
	7.114212	45.47982
	7.114377	45.47906
	7.114467	45.47827
	7.114673	45.47747
	7.114841	45.47665
	7.114801	45.47595
	7.114506	45.4752
	7.114016	45.47455
	7.113829	45.47402
	7.113715	45.4736
	7.113352	45.47299
	7.112625	45.47252
	7.111954	45.47195
	7.111276	45.47116
	7.110837	45.47051
	7.110389	45.47014
	7.10965	45.47006
	7.108421	45.46969
	7.107477	45.46924
	7.106673	45.46881
	7.105649	45.46844
	7.104884	45.46799
	7.10449	45.4675
	7.104398	45.46732
	7.104561	45.46703
	7.104435	45.46695
	7.104483	45.46704
	7.104467	45.46711
	7.104124	45.46772
	7.103959	45.46785
	7.103619	45.46802
	7.102262	45.46854
	7.101561	45.46875
	7.101012	45.4688
	7.10092	45.46883
	7.100591	45.469
	7.1003	45.4692
	7.100133	45.46935
	7.100055	45.46938
	7.099716	45.4694
	7.098435	45.46928
	7.097412	45.4693
	7.096959	45.46933
	7.096427	45.46942
	7.09547	45.46965
	7.095265	45.46974
	7.094793	45.47008
	7.0943	45.47039
	7.093913	45.47056
	7.093789	45.4706
	7.093571	45.47063
	7.093326	45.47059
	7.092425	45.47055
	7.092027	45.47044
	7.091939	45.47044
	7.09165	45.47055
	7.090862	45.4705
	7.090511	45.47056
	7.090153	45.47055
	7.089838	45.4706
	7.08886	45.47083
	7.088801	45.47086
	7.08841	45.47127
	7.088324	45.47144
	7.087845	45.47181
	7.087282	45.4721
	7.08716	45.47218
	7.087093	45.47226
	7.08698	45.4725
	7.086795	45.47268
	7.086664	45.4726
	7.084949	45.47236
	7.083304	45.47219
	7.082344	45.47213
	7.082181	45.47213
	7.081994	45.47216
	7.081836	45.47221
	7.080853	45.47261
	7.080564	45.47271
	7.079846	45.47285
	7.07941	45.47297
	7.079225	45.47308
	7.079035	45.47312
	7.078538	45.47315
	7.078393	45.47318
	7.078119	45.47329
	7.077569	45.47363
	7.077044	45.47369
	7.076901	45.47368
	7.076419	45.47358
	7.076074	45.47356
	7.07582	45.4735
	7.075664	45.47343
	7.075275	45.47337
	7.075077	45.4733
	7.074595	45.47321
	7.074404	45.47311
	7.074263	45.47308
	7.073902	45.4731
	7.068479	45.47392
	7.067995	45.47398
	7.066911	45.47399
	7.065178	45.47394
	7.064691	45.47391
	7.064208	45.47386
	7.063785	45.4738
	7.063625	45.47375
	7.063093	45.47344
	7.062974	45.47331
	7.062879	45.47309
	7.062765	45.47296
	7.06231	45.47252
	7.062108	45.47224
	7.061965	45.47209
	7.061888	45.47206
	7.061663	45.47202
	7.061588	45.47199
	7.061554	45.47196
	7.061444	45.47166
	7.061355	45.47156
	7.061057	45.47147
	7.060987	45.47143
	7.060773	45.47125
	7.060625	45.47109
	7.060469	45.47087
	7.060377	45.4708
	7.060325	45.47078
	7.056823	45.4715
	7.053727	45.47203
	7.053256	45.47214
	7.052702	45.47229
	7.052525	45.47231
	7.052416	45.4723
	7.051597	45.47202
	7.051387	45.47202
	7.050052	45.47214
	7.049608	45.47226
	7.049417	45.47233
	7.049293	45.47233
	7.048666	45.47242
	7.048617	45.47245
	7.047626	45.4734
	7.047588	45.47346
	7.047462	45.47384
	7.047458	45.47396
	7.047519	45.47424
	7.047521	45.47436
	7.047486	45.47441
	7.047264	45.47454
	7.04719	45.47461
	7.047104	45.47481
	7.047114	45.47492
	7.047366	45.47588
	7.047376	45.47604
	7.047097	45.47671
	7.047072	45.47682
	7.047078	45.47688
	7.047276	45.47721
	7.04724	45.47727
	7.04702	45.47741
	7.046152	45.47785
	7.045621	45.47825
	7.045585	45.47829
	7.0456	45.47836
	7.04596	45.47873
	7.046101	45.47892
	7.046126	45.479
	7.046055	45.47932
	7.046076	45.47945
	7.046048	45.47948
	7.045521	45.47956
	7.045558	45.4796
	7.045811	45.48009
	7.047318	45.48268
	7.04751	45.48536
	7.047535	45.48539
	7.047834	45.48548
	7.048316	45.48556
	7.049972	45.48572
	7.050075	45.48574
	7.05026	45.48581
	7.050422	45.48591
	7.050668	45.48612
	7.050898	45.48615
	7.051018	45.48613
	7.051253	45.48602
	7.051439	45.48599
	7.051559	45.48601
	7.051996	45.4862
	7.052106	45.48622
	7.052505	45.48624
	7.052592	45.48627
	7.052632	45.48632
	7.052687	45.48648
	7.052734	45.48651
	7.052854	45.48654
	7.053147	45.48653
	7.053208	45.48658
	7.05331	45.48684
	7.053405	45.48699
	7.053904	45.48728
	7.054033	45.48734
	7.054812	45.48759
	7.05528	45.48762
	7.05657	45.48898
	7.056687	45.48913
	7.057427	45.49043
	7.057454	45.49053
	7.057447	45.49058
	7.05738	45.49069
	7.056654	45.49145
	7.056549	45.49159
	7.055908	45.4926
	7.05561	45.49303
	7.054297	45.49465
	7.05273	45.49569
	7.052592	45.49576
	7.051274	45.49618
	7.050842	45.49641
	7.050703	45.49646
	7.050378	45.49651
	7.049465	45.49651
	7.049282	45.49649
	7.04877	45.49639
	7.048267	45.49635
	7.047441	45.49651
	7.047114	45.49654
	7.046991	45.49658
	7.046393	45.49695
	7.046184	45.49711
	7.046063	45.49718
	7.045711	45.49723
	7.045407	45.49724
	7.044984	45.49723
	7.04489	45.49724
	7.044664	45.49737
	7.0446	45.49737
	7.044523	45.49735
	7.043945	45.49693
	7.043728	45.49684
	7.043444	45.49677
	7.043031	45.4967
	7.041475	45.49652
	7.04023	45.49625
	7.038797	45.49585
	7.03854	45.49582
	7.038435	45.49584
	7.036549	45.49653
	7.036106	45.49671
	7.035836	45.49676
	7.03502	45.49681
	7.034922	45.4968
	7.034874	45.49678
	7.034755	45.49668
	7.0344	45.49657
	7.033945	45.49647
	7.033362	45.49637
	7.03318	45.49635
	7.033103	45.49636
	7.032527	45.49656
	7.031169	45.49676
	7.031007	45.49677
	7.030739	45.49674
	7.030328	45.49666
	7.03009	45.49656
	7.029997	45.49648
	7.029768	45.4961
	7.02967	45.49602
	7.029575	45.49598
	7.028814	45.49581
	7.028445	45.49589
	7.027661	45.49618
	7.027494	45.49627
	7.027327	45.4964
	7.027029	45.49647
	7.026642	45.49652
	7.025538	45.49658
	7.025031	45.49664
	7.024652	45.49657
	7.024516	45.49659
	7.024395	45.49658
	7.023879	45.49646
	7.023614	45.49643
	7.022576	45.49641
	7.022271	45.49644
	7.020978	45.49666
	7.02064	45.49688
	7.020486	45.49696
	7.020227	45.49704
	7.019691	45.49718
	7.018689	45.49757
	7.017901	45.49784
	7.016876	45.49802
	7.016473	45.49811
	7.015077	45.49852
	7.014754	45.4986
	7.014305	45.49867
	7.01355	45.49876
	7.013093	45.49885
	7.012568	45.49899
	7.011942	45.49929
	7.011667	45.49938
	7.009371	45.49995
	7.009278	45.50001
	7.009271	45.50006
	7.009295	45.50013
	7.009443	45.50033
	7.009464	45.50041
	7.009443	45.50046
	7.009288	45.50053
	7.008963	45.50062
	7.008887	45.50067
	7.008719	45.50085
	7.008656	45.50088
	7.007796	45.50113
	7.005359	45.50291
	7.005258	45.50297
	7.002375	45.50326
	7.002286	45.50328
	7.000797	45.50553
	7.00057	45.50645
	7.000624	45.50664
	7.00106	45.50928
	7.001455	45.51197
	7.001483	45.51205
	7.001538	45.51212
	7.002261	45.5127
	7.002556	45.51298
	7.00282	45.51331
	7.003179	45.51385
	7.003746	45.51501
	7.003961	45.51538
	7.004564	45.51622
	7.004975	45.51666
	7.005272	45.51707
	7.005198	45.51737
	7.004869	45.51835
	7.004776	45.51851
	7.004582	45.51865
	7.004379	45.51888
	7.004088	45.51931
	7.00403	45.51949
	7.004025	45.51997
	7.004	45.52013
	7.003902	45.52038
	7.003754	45.52062
	7.00357	45.52085
	7.003139	45.52127
	7.002949	45.52142
	7.002064	45.52195
	7.002026	45.52209
	7.002003	45.52211
	7.001792	45.52216
	7.001696	45.52222
	7.001382	45.52253
	7.001291	45.52257
	7.001019	45.52262
	7.000929	45.52266
	7.0003	45.52332
	7.000026	45.52365
	6.999068	45.52502
	6.998906	45.52521
	6.996979	45.52698
	6.996047	45.52777
	6.995858	45.5279
	6.995251	45.52812
	6.993788	45.52908
	6.993076	45.52948
	6.990801	45.53061
	6.990206	45.53092
	6.990172	45.53096
	6.990382	45.53099
	6.990456	45.53103
	6.990876	45.53201
	6.991237	45.53276
	6.992027	45.53628
	6.992093	45.53687
	6.992116	45.5374
	6.992143	45.53753
	6.992217	45.53768
	6.992405	45.5379
	6.992932	45.53841
	6.993075	45.53859
	6.993137	45.53871
	6.993284	45.53915
	6.993494	45.53936
	6.993758	45.53987
	6.99392	45.54011
	6.993982	45.54017
	6.994502	45.54042
	6.994866	45.54057
	6.994915	45.5406
	6.99497	45.5407
	6.99497	45.54077
	6.994843	45.54116
	6.994842	45.54126
	6.994875	45.54135
	6.994931	45.54141
	6.995009	45.54146
	6.995374	45.54161
	6.995446	45.54166
	6.995478	45.54172
	6.995463	45.54178
	6.995214	45.54209
	6.995188	45.54222
	6.995216	45.5423
	6.995295	45.5424
	6.995443	45.54253
	6.995469	45.54258
	6.995445	45.54272
	6.995351	45.54289
	6.995324	45.54298
	6.99535	45.54311
	6.995394	45.54318
	6.995596	45.54341
	6.995723	45.54362
	6.995832	45.5437
	6.995867	45.54375
	6.995875	45.54381
	6.99584	45.54403
	6.995905	45.54436
	6.995951	45.54444
	6.995949	45.54447
	6.995867	45.54453
	6.995805	45.54465
	6.995742	45.545
	6.995793	45.54532
	6.995772	45.54544
	6.995602	45.54562
	6.995498	45.54588
	6.995441	45.54594
	6.995122	45.54613
	6.995006	45.54625
	6.994143	45.5474
	6.993981	45.5475
	6.99356	45.54761
	6.992992	45.54801
	6.992814	45.54817
	6.992729	45.54831
	6.992677	45.5485
	6.992614	45.54894
	6.99262	45.54918
	6.99265	45.54933
	6.992805	45.54963
	6.992836	45.54973
	6.992828	45.54984
	6.992758	45.55002
	6.992453	45.55065
	6.99237	45.55078
	6.991911	45.55136
	6.991887	45.55148
	6.991781	45.55159
	6.99176	45.55163
	6.991881	45.55191
	6.9919	45.55202
	6.991868	45.55216
	6.991634	45.55256
	6.991573	45.5527
	6.991568	45.55282
	6.991599	45.55307
	6.991381	45.55351
	6.991314	45.5536
	6.990842	45.55396
	6.990816	45.554
	6.990849	45.55445
	6.990939	45.55475
	6.991204	45.5552
	6.991267	45.55537
	6.991277	45.55546
	6.991244	45.55554
	6.991187	45.5556
	6.990873	45.55583
	6.990386	45.55606
	6.990158	45.55619
	6.989908	45.55638
	6.989834	45.55649
	6.989834	45.55654
	6.990084	45.55739
	6.99026	45.55815
	6.990303	45.5585
	6.990519	45.55911
	6.990563	45.55939
	6.990567	45.5596
	6.99051	45.56028
	6.990377	45.56093
	6.990213	45.56124
	6.990039	45.56182
	6.989845	45.56238
	6.989753	45.5628
	6.98976	45.56288
	6.989977	45.56318
	6.990093	45.56359
	6.990167	45.56378
	6.990515	45.56442
	6.990548	45.56445
	6.990941	45.56449
	6.991212	45.56456
	6.991295	45.56462
	6.991472	45.56485
	6.991618	45.56492
	6.991722	45.56494
	6.992137	45.56496
	6.992363	45.56503
	6.992574	45.56514
	6.992826	45.56537
	6.992939	45.56544
	6.993169	45.56552
	6.99361	45.56562
	6.994093	45.56576
	6.994219	45.56585
	6.994733	45.56653
	6.994838	45.56663
	6.994872	45.56673
	6.994922	45.56678
	6.995014	45.56683
	6.995287	45.56692
	6.995371	45.56697
	6.995588	45.56717
	6.995776	45.56739
	6.996047	45.56781
	6.996291	45.56807
	6.996332	45.56814
	6.996467	45.56855
	6.996503	45.5686
	6.996799	45.56889
	6.996814	45.569
	6.996779	45.56936
	6.9967	45.56947
	6.996537	45.5696
	6.996331	45.56971
	6.996101	45.56979
	6.995744	45.56987
	6.995251	45.56985
	6.99516	45.56987
	6.995019	45.56994
	6.994847	45.5701
	6.994817	45.57017
	6.994871	45.57082
	6.994852	45.57088
	6.994805	45.57093
	6.994654	45.57101
	6.994357	45.57128
	6.994212	45.57138
	6.993709	45.57164
	6.993642	45.5717
	6.993605	45.57177
	6.99363	45.57194
	6.993839	45.57246
	6.994262	45.57285
	6.994323	45.57294
	6.994405	45.57316
	6.994529	45.57361
	6.994948	45.57441
	6.995017	45.57463
	6.995171	45.57533
	6.995271	45.5756
	6.995258	45.5757
	6.995219	45.57573
	6.994998	45.57579
	6.994736	45.57597
	6.994601	45.57603
	6.994322	45.57605
	6.994219	45.57611
	6.994084	45.57623
	6.993674	45.57667
	6.993424	45.5769
	6.993125	45.57704
	6.992918	45.57732
	6.992769	45.57742
	6.992109	45.57773
	6.992027	45.57779
	6.991869	45.57795
	6.991562	45.57836
	6.991302	45.5786
	6.990805	45.57895
	6.990587	45.57906
	6.990453	45.57909
	6.989468	45.57922
	6.989361	45.57925
	6.989022	45.57939
	6.988611	45.57946
	6.988534	45.57949
	6.988337	45.57966
	6.98801	45.57978
	6.987891	45.57987
	6.987311	45.58042
	6.987192	45.58055
	6.986877	45.58083
	6.986633	45.581
	6.986361	45.58116
	6.985966	45.58134
	6.984435	45.58183
	6.983581	45.58204
	6.98318	45.58216
	6.982361	45.58264
	6.982087	45.58278
	6.98183	45.58289
	6.981173	45.58305
	6.981008	45.58311
	6.980607	45.58335
	6.980538	45.58344
	6.980448	45.58375
	6.97996	45.58506
	6.9799	45.58511
	6.979603	45.58526
	6.979448	45.58537
	6.979316	45.58552
	6.97887	45.58622
	6.978232	45.58709
	6.9781	45.58732
	6.978016	45.58756
	6.977992	45.58821
	6.978045	45.58927
	6.978053	45.59005
	6.978105	45.5903
	6.978211	45.59055
	6.978512	45.59093
	6.979117	45.59194
	6.979952	45.59296
	6.980113	45.59321
	6.980148	45.59332
	6.980151	45.59368
	6.980183	45.5939
	6.98057	45.59487
	6.980688	45.59527
	6.980694	45.59538
	6.980596	45.59567
	6.980581	45.59581
	6.980507	45.59606
	6.980422	45.59618
	6.980291	45.59626
	6.98009	45.59634
	6.979957	45.59642
	6.979781	45.59664
	6.979576	45.59702
	6.979599	45.5971
	6.980781	45.59867
	6.981288	45.59939
	6.981508	45.59978
	6.981619	45.60014
	6.981788	45.60038
	6.981811	45.6005
	6.981744	45.60128
	6.981698	45.60137
	6.981697	45.6016
	6.981728	45.60181
	6.981795	45.60191
	6.982034	45.60211
	6.982048	45.60218
	6.982028	45.60242
	6.982247	45.60339
	6.982458	45.60389
	6.982566	45.60407
	6.98274	45.60425
	6.982925	45.6044
	6.98343	45.60476
	6.983607	45.60491
	6.983736	45.60509
	6.983778	45.60518
	6.983825	45.60539
	6.983825	45.60559
	6.983753	45.60599
	6.98377	45.60615
	6.983819	45.60625
	6.984026	45.60655
	6.984186	45.60697
	6.984275	45.60752
	6.986177	45.61219
	6.986272	45.61253
	6.986264	45.61265
	6.986214	45.61277
	6.985641	45.61349
	6.985411	45.61375
	6.985155	45.614
	6.984862	45.61422
	6.984647	45.61435
	6.984005	45.61465
	6.983916	45.61471
	6.983823	45.61483
	6.983781	45.61492
	6.983688	45.61523
	6.98351	45.61619
	6.983232	45.61678
	6.983243	45.61693
	6.98414	45.61889
	6.984265	45.61922
	6.984436	45.61981
	6.984573	45.62016
	6.984892	45.62065
	6.984974	45.62075
	6.985524	45.6212
	6.985585	45.62123
	6.985739	45.62125
	6.985788	45.62127
	6.985976	45.62147
	6.986109	45.62154
	6.986317	45.62156
	6.986338	45.6216
	6.986332	45.62166
	6.986354	45.62172
	6.986341	45.62178
	6.986365	45.62187
	6.98627	45.62204
	6.986291	45.62214
	6.98642	45.62233
	6.986514	45.62279
	6.986586	45.62294
	6.986597	45.62329
	6.986758	45.62361
	6.986778	45.62372
	6.986769	45.62396
	6.986798	45.62401
	6.987169	45.62429
	6.987392	45.62451
	6.98777	45.62473
	6.988624	45.6251
	6.98912	45.62534
	6.989499	45.6256
	6.990001	45.62603
	6.990462	45.62632
	6.990652	45.62649
	6.990918	45.62682
	6.991674	45.62769
	6.991774	45.62776
	6.992856	45.62826
	6.993281	45.62832
	6.993474	45.62839
	6.993786	45.62858
	6.994041	45.62868
	6.99451	45.62881
	6.995096	45.6289
	6.995369	45.62896
	6.996035	45.62917
	6.996219	45.62932
	6.996514	45.62971
	6.996862	45.63006
	6.997484	45.63078
	6.997911	45.63117
	6.998036	45.63131
	6.998127	45.63147
	6.998068	45.63181
	6.99794	45.6321
	6.997949	45.63221
	6.998176	45.63259
	6.998528	45.6329
	6.998656	45.63314
	6.998969	45.63384
	6.999067	45.63393
	6.999182	45.63397
	6.999683	45.63404
	6.999889	45.63412
	7.000006	45.6342
	7.00039	45.63457
	7.00084	45.63481
	7.00097	45.63492
	7.001031	45.63501
	7.001228	45.63545
	7.001526	45.63623
	7.001559	45.63641
	7.001539	45.63653
	7.001491	45.63663
	7.001044	45.6372
	7.000873	45.63747
	7.000749	45.63776
	7.00075	45.63821
	7.00079	45.63831
	7.000938	45.63838
	7.001043	45.63847
	7.001088	45.63856
	7.001109	45.63866
	7.001136	45.63914
	7.001123	45.63933
	7.001079	45.63955
	7.001011	45.63972
	7.000968	45.63977
	7.000811	45.63985
	7.000388	45.63997
	6.99983	45.64007
	6.99899	45.64016
	6.996922	45.64033
	6.996611	45.64029
	6.995997	45.64015
	6.994984	45.64002
	6.994699	45.63996
	6.9941	45.63981
	6.993741	45.63975
	6.992644	45.63963
	6.992495	45.63963
	6.992351	45.63965
	6.992146	45.63973
	6.991439	45.64013
	6.991261	45.64027
	6.990905	45.64064
	6.990798	45.64078
	6.990681	45.64102
	6.990612	45.64127
	6.990612	45.64138
	6.990781	45.64205
	6.99079	45.64243
	6.990751	45.64254
	6.990694	45.64263
	6.990099	45.64337
	6.989653	45.64387
	6.989463	45.64402
	6.989316	45.6441
	6.989181	45.64415
	6.988617	45.64421
	6.988242	45.64429
	6.98791	45.64429
	6.98744	45.64426
	6.986598	45.64431
	6.98566	45.64426
	6.985513	45.64428
	6.985374	45.64433
	6.9849	45.64457
	6.984599	45.64468
	6.984309	45.64477
	6.984045	45.64482
	6.983865	45.64483
	6.983709	45.64491
	6.983507	45.64505
	6.983359	45.64512
	6.983231	45.64516
	6.982781	45.64521
	6.982509	45.64519
	6.981992	45.64504
	6.98167	45.64496
	6.981322	45.64492
	6.980928	45.64493
	6.980503	45.64502
	6.980039	45.64517
	6.979723	45.64529
	6.97952	45.64534
	6.979219	45.64532
	6.978047	45.6454
	6.977745	45.64547
	6.977158	45.64566
	6.97672	45.64571
	6.976542	45.64577
	6.975917	45.64615
	6.975771	45.64622
	6.975358	45.64636
	6.974487	45.6466
	6.974327	45.64666
	6.974044	45.64686
	6.97381	45.64708
	6.973608	45.64733
	6.973114	45.64802
	6.973003	45.64812
	6.97269	45.64835
	6.972582	45.64845
	6.972461	45.64862
	6.972309	45.64894
	6.972154	45.64914
	6.97177	45.64943
	6.971675	45.64952
	6.971511	45.64979
	6.97145	45.65002
	6.971485	45.65012
	6.971743	45.65044
	6.971842	45.65059
	6.971839	45.65066
	6.971787	45.65072
	6.971686	45.65079
	6.971101	45.65105
	6.97104	45.6511
	6.97101	45.65147
	6.970976	45.65164
	6.970753	45.65221
	6.970683	45.65248
	6.970422	45.65302
	6.970323	45.65328
	6.970295	45.6534
	6.970342	45.65377
	6.970275	45.6539
	6.970136	45.65407
	6.970054	45.65413
	6.969774	45.65417
	6.969228	45.65418
	6.967318	45.65415
	6.96693	45.65412
	6.966272	45.65398
	6.966059	45.65398
	6.965809	45.65403
	6.965324	45.65416
	6.965071	45.65419
	6.964853	45.6542
	6.964747	45.65418
	6.964432	45.65406
	6.964307	45.65403
	6.964177	45.65404
	6.964056	45.65408
	6.963962	45.65414
	6.963646	45.65441
	6.963395	45.65459
	6.962984	45.65483
	6.962801	45.65488
	6.962599	45.65487
	6.962107	45.65472
	6.961968	45.6547
	6.961707	45.6547
	6.961155	45.65474
	6.96102	45.65473
	6.96085	45.65469
	6.960703	45.65463
	6.960173	45.65432
	6.959789	45.6542
	6.959613	45.65412
	6.958616	45.65344
	6.957785	45.65296
	6.957648	45.6529
	6.955786	45.65257
	6.95525	45.65249
	6.954994	45.65242
	6.954852	45.65235
	6.954676	45.65218
	6.954553	45.65214
	6.954436	45.65216
	6.954337	45.65221
	6.954164	45.65236
	6.9541	45.65239
	6.953808	45.65238
	6.953698	45.65235
	6.953623	45.6523
	6.953404	45.65201
	6.953308	45.65195
	6.952997	45.65184
	6.952309	45.65168
	6.952013	45.65158
	6.951778	45.65146
	6.95054	45.65109
	6.95018	45.65102
	6.949625	45.65096
	6.949132	45.65087
	6.948798	45.65083
	6.948736	45.6508
	6.948473	45.65059
	6.948341	45.65052
	6.948126	45.65055
	6.94808	45.65054
	6.947985	45.6505
	6.947778	45.65033
	6.947685	45.65028
	6.947495	45.65024
	6.947212	45.65021
	6.94621	45.64994
	6.944024	45.64954
	6.943708	45.64946
	6.943465	45.64938
	6.943272	45.64929
	6.943112	45.64918
	6.942972	45.64914
	6.942781	45.64911
	6.942191	45.64897
	6.941608	45.64896
	6.941361	45.64893
	6.941251	45.6489
	6.941168	45.64884
	6.940997	45.64862
	6.940818	45.64842
	6.940675	45.64831
	6.940581	45.64826
	6.940333	45.64817
	6.940195	45.64805
	6.940137	45.64803
	6.940014	45.64802
	6.939197	45.64813
	6.938623	45.64812
	6.938074	45.6482
	6.937796	45.64819
	6.9373	45.6481
	6.936854	45.64807
	6.936697	45.648
	6.936587	45.64793
	6.936488	45.64769
	6.93634	45.6476
	6.93577	45.64738
	6.935345	45.64725
	6.935019	45.64717
	6.934461	45.6471
	6.934194	45.64704
	6.934043	45.64698
	6.933936	45.6469
	6.933599	45.64651
	6.933033	45.64604
	6.932904	45.64596
	6.932778	45.64593
	6.931971	45.6459
	6.930732	45.64573
	6.930548	45.64572
	6.930516	45.64574
	6.930028	45.64641
	6.929848	45.64658
	6.929825	45.64664
	6.929832	45.64683
	6.92979	45.64694
	6.929727	45.64697
	6.929666	45.64698
	6.929408	45.64696
	6.929051	45.64701
	6.928528	45.64718
	6.927691	45.6472
	6.926572	45.64712
	6.926474	45.64713
	6.926421	45.64717
	6.926128	45.64748
	6.925869	45.6478
	6.925391	45.64846
	6.925187	45.64864
	6.925052	45.64872
	6.923827	45.64921
	6.923471	45.64934
	6.92254	45.64951
	6.922059	45.6494
	6.921646	45.64923
	6.921593	45.64924
	6.921558	45.64927
	6.921449	45.64961
	6.921332	45.65009
	6.920956	45.65039
	6.920887	45.65043
	6.920734	45.65048
	6.920316	45.65056
	6.919971	45.65061
	6.919619	45.65063
	6.919265	45.65063
	6.918394	45.65057
	6.917938	45.65052
	6.917662	45.65059
	6.91646	45.65103
	6.916134	45.65118
	6.914887	45.65189
	6.914966	45.65191
	6.915382	45.65229
	6.915543	45.65269
	6.916026	45.65308
	6.916136	45.65362
	6.916295	45.65401
	6.91633	45.65442
	6.915983	45.65488
	6.915941	45.65516
	6.916583	45.6559
	6.916688	45.65658
	6.916699	45.65774
	6.916584	45.65891
	6.916476	45.65966
	6.916061	45.6603
	6.915435	45.66095
	6.914782	45.66128
	6.913903	45.66146
	6.912932	45.66153
	6.911193	45.66211
	6.910649	45.66222
	6.909878	45.66216
	6.909058	45.66202
	6.908088	45.66212
	6.907283	45.66215
	6.906616	45.66233
	6.906251	45.66255
	6.905464	45.66279
	6.903972	45.66327
	6.903355	45.66353
	6.902735	45.66374
	6.902114	45.66382
	6.902456	45.66448
	6.902917	45.66491
	6.903512	45.66542
	6.903933	45.66588
	6.904519	45.66678
	6.90515	45.6672
	6.905697	45.66766
	6.905963	45.6683
	6.906258	45.66877
	6.906606	45.66938
	6.906819	45.66991
	6.906653	45.67045
	6.906348	45.67088
	6.905709	45.67139
	6.905182	45.67171
	6.905138	45.67219
	6.905248	45.67248
	6.905496	45.67292
	6.905706	45.67339
	6.905834	45.67392
	6.905949	45.67427
	6.90646	45.67479
	6.906666	45.67523
	6.906788	45.67567
	6.9067	45.67615
	6.906365	45.67673
	6.905944	45.67728
	6.905726	45.67748
	6.905504	45.67789
	6.904986	45.67804
	6.904685	45.67827
	6.904076	45.67887
	6.903921	45.67907
	6.903593	45.67973
	6.903369	45.68036
	6.903053	45.68066
	6.902708	45.68085
	6.902203	45.68093
	6.901612	45.68097
	6.90108	45.68098
	6.900696	45.68097
	6.900156	45.68087
	6.899839	45.68089
	6.899415	45.68064
	6.899031	45.68039
	6.898734	45.68015
	6.898481	45.67992
	6.898327	45.67958
	6.898188	45.67919
	6.897747	45.67849
	6.897596	45.67821
	6.897372	45.67809
	6.896593	45.67791
	6.896329	45.67782
	6.89433	45.67656
	6.89389	45.67637
	6.893093	45.67574
	6.893037	45.67558
	6.89261	45.67582
	6.892392	45.67601
	6.892172	45.67643
	6.891181	45.67706
	6.890291	45.6776
	6.889798	45.67783
	6.889136	45.67805
	6.887973	45.67866
	6.887366	45.67903
	6.886837	45.67932
	6.885374	45.6799
	6.884322	45.6803
	6.883937	45.68047
	6.88373	45.68061
	6.883175	45.68083
	6.88288	45.68088
	6.882564	45.68014
	6.882346	45.67982
	6.882123	45.67944
	6.881959	45.67925
	6.881664	45.67928
	6.881278	45.67925
	6.880892	45.6792
	6.880478	45.6791
	6.879864	45.67887
	6.879476	45.67881
	6.878639	45.67871
	6.870914	45.68025
	6.868589	45.68096
	6.868001	45.68208
	6.867556	45.68288
	6.867437	45.68324
	6.867141	45.68379
	6.867035	45.68403
	6.8655	45.68478
	6.865101	45.68484
	6.864461	45.68457
	6.864098	45.68455
	6.863726	45.68467
	6.863395	45.6848
	6.863124	45.68486
	6.861799	45.6848
	6.861268	45.6848
	6.860545	45.68482
	6.85987	45.68487
	6.859218	45.68497
	6.858589	45.68509
	6.857873	45.68518
	6.857618	45.68517
	6.857313	45.68509
	6.856801	45.68534
	6.856496	45.68552
	6.856145	45.68563
	6.855945	45.68606
	6.855733	45.68632
	6.855112	45.68653
	6.85463	45.68664
	6.854119	45.68689
	6.853768	45.68727
	6.853432	45.68758
	6.85317	45.68777
	6.852842	45.68792
	6.852345	45.68808
	6.851893	45.68827
	6.851462	45.68848
	6.85105	45.68863
	6.85051	45.6888
	6.850072	45.68892
	6.849578	45.68911
	6.849122	45.68926
	6.848701	45.68932
	6.8482	45.68944
	6.847738	45.68951
	6.847326	45.68967
	6.846656	45.69007
	6.846355	45.69028
	6.846227	45.69054
	6.84661	45.6908
	6.846834	45.69099
	6.846896	45.69116
	6.847103	45.69136
	6.847121	45.69146
	6.847104	45.69154
	6.846828	45.69175
	6.846762	45.69182
	6.846681	45.69211
	6.846545	45.69227
	6.846221	45.69256
	6.846195	45.69263
	6.846219	45.69268
	6.846355	45.6928
	6.846511	45.69308
	6.846524	45.69313
	6.846458	45.69329
	6.846338	45.69341
	6.845948	45.6936
	6.845856	45.69367
	6.845798	45.69376
	6.845805	45.69386
	6.845896	45.69407
	6.8459	45.69418
	6.845709	45.69442
	6.845582	45.69453
	6.84549	45.69458
	6.845154	45.69468
	6.845068	45.69472
	6.844781	45.69496
	6.844691	45.69509
	6.844652	45.69527
	6.844614	45.69536
	6.844283	45.6957
	6.844151	45.69589
	6.84415	45.69602
	6.843922	45.69625
	6.843895	45.69631
	6.843904	45.6966
	6.843856	45.69671
	6.843813	45.6969
	6.84375	45.69697
	6.843583	45.69704
	6.843294	45.69726
	6.843196	45.6973
	6.84264	45.69742
	6.842576	45.69745
	6.842554	45.69749
	6.842561	45.69753
	6.842598	45.69757
	6.842886	45.69772
	6.842978	45.6978
	6.84304	45.69789
	6.843049	45.69798
	6.843027	45.69803
	6.842956	45.69809
	6.842853	45.69812
	6.842734	45.69814
	6.842377	45.69816
	6.84227	45.6982
	6.842255	45.69828
	6.842353	45.69857
	6.842349	45.69868
	6.842324	45.69873
	6.842286	45.69876
	6.842014	45.69887
	6.841891	45.69894
	6.841767	45.69906
	6.841713	45.69924
	6.841723	45.69982
	6.841686	45.70005
	6.841646	45.70016
	6.841575	45.70027
	6.841413	45.70045
	6.841216	45.7006
	6.841008	45.70073
	6.84078	45.70079
	6.840629	45.70079
	6.840395	45.70073
	6.840046	45.7006
	6.839922	45.70057
	6.839806	45.70058
	6.839733	45.7006
	6.83971	45.70063
	6.839702	45.70075
	6.839667	45.7008
	6.839594	45.70085
	6.839297	45.70094
	6.839054	45.70106
	6.838739	45.70115
	6.838616	45.7012
	6.838404	45.70139
	6.838226	45.70151
	6.838155	45.70158
	6.838091	45.70161
	6.837609	45.70152
	6.837412	45.70153
	6.83733	45.70156
	6.83717	45.70167
	6.836984	45.70176
	6.836107	45.7021
	6.835979	45.70213
	6.835769	45.70206
	6.834426	45.70212
	6.834249	45.70214
	6.834205	45.70216
	6.834195	45.7022
	6.834232	45.70234
	6.834212	45.70238
	6.834148	45.7024
	6.833691	45.70243
	6.832641	45.70233
	6.832026	45.70229
	6.831724	45.70224
	6.831274	45.70211
	6.830939	45.70208
	6.830683	45.70202
	6.830508	45.70202
	6.830416	45.70205
	6.830338	45.70212
	6.830268	45.70227
	6.830213	45.70234
	6.830057	45.70245
	6.8299	45.70247
	6.829478	45.70267
	6.829223	45.70284
	6.82851	45.70355
	6.82831	45.70369
	6.827676	45.70402
	6.82752	45.70407
	6.82743	45.70408
	6.827196	45.70403
	6.827069	45.70405
	6.82717	45.70415
	6.827195	45.7042
	6.827192	45.70426
	6.827079	45.70449
	6.827031	45.70468
	6.827015	45.705
	6.826989	45.7051
	6.826902	45.7052
	6.826836	45.70556
	6.826547	45.70621
	6.826449	45.70648
	6.826327	45.70707
	6.826268	45.70724
	6.826169	45.70741
	6.825882	45.70777
	6.824428	45.70936
	6.82412	45.70967
	6.823784	45.71022
	6.823666	45.71034
	6.822341	45.71114
	6.822097	45.71127
	6.82193	45.7114
	6.82191	45.71154
	6.82188	45.7116
	6.821741	45.71173
	6.821702	45.71179
	6.821773	45.71204
	6.82176	45.7121
	6.821586	45.7123
	6.82143	45.71261
	6.821375	45.71269
	6.821164	45.71284
	6.821064	45.71308
	6.820884	45.7133
	6.820863	45.71335
	6.820873	45.71343
	6.820836	45.71353
	6.820565	45.71399
	6.8205	45.71404
	6.820242	45.71409
	6.820181	45.71413
	6.819961	45.71451
	6.819672	45.71516
	6.819654	45.71552
	6.819675	45.71562
	6.819757	45.7158
	6.81976	45.71588
	6.819663	45.71606
	6.81964	45.71629
	6.819648	45.71665
	6.819747	45.71679
	6.819576	45.71684
	6.819504	45.7169
	6.819488	45.71711
	6.819449	45.71724
	6.819454	45.71746
	6.819348	45.71788
	6.819278	45.71847
	6.819198	45.71862
	6.81908	45.71876
	6.818469	45.71928
	6.818283	45.71941
	6.817594	45.71976
	6.817552	45.7198
	6.817474	45.71995
	6.81728	45.72005
	6.816906	45.72019
	6.815386	45.72092
	6.815193	45.72097
	6.814626	45.72099
	6.814594	45.72102
	6.814514	45.72123
	6.814251	45.7215
	6.814139	45.72168
	6.813837	45.72193
	6.813756	45.72213
	6.813585	45.72224
	6.813288	45.72236
	6.813108	45.72252
	6.812446	45.72282
	6.812155	45.72303
	6.812046	45.72316
	6.811928	45.72347
	6.811866	45.72353
	6.811595	45.72368
	6.81149	45.72376
	6.811355	45.72397
	6.81106	45.72418
	6.810866	45.72429
	6.810347	45.72443
	6.810036	45.7246
	6.80984	45.72469
	6.809356	45.72486
	6.808822	45.72496
	6.808691	45.72501
	6.808632	45.72507
	6.808615	45.72513
	6.80872	45.72551
	6.808698	45.72602
	6.808667	45.72607
	6.808567	45.72615
	6.808307	45.7263
	6.80821	45.72639
	6.808185	45.72644
	6.808197	45.72653
	6.808368	45.7267
	6.808396	45.72678
	6.808383	45.72682
	6.808024	45.72728
	6.808007	45.72735
	6.808162	45.72755
	6.808385	45.72788
	6.80868	45.72811
	6.808721	45.72819
	6.808773	45.72847
	6.808858	45.72858
	6.809219	45.72891
	6.809725	45.72932
	6.81	45.72957
	6.810153	45.72968
	6.810792	45.72992
	6.811085	45.73
	6.811221	45.73006
	6.811331	45.73014
	6.811375	45.73023
	6.81137	45.73033
	6.811273	45.73065
	6.811291	45.73078
	6.811363	45.73091
	6.811595	45.73118
	6.811992	45.73155
	6.812486	45.7321
	6.812696	45.73227
	6.812861	45.73237
	6.813188	45.73252
	6.813369	45.73265
	6.813469	45.73278
	6.813811	45.73331
	6.814156	45.73359
	6.814214	45.7338
	6.8143	45.73387
	6.814331	45.73395
	6.814339	45.73412
	6.814402	45.73442
	6.814526	45.73474
	6.814997	45.73529
	6.815225	45.73565
	6.815317	45.73602
	6.815519	45.73664
	6.815639	45.73695
	6.816008	45.73749
	6.816361	45.73819
	6.816384	45.7383
	6.816371	45.73837
	6.816315	45.73849
	6.816202	45.73861
	6.816027	45.73875
	6.816004	45.73879
	6.816057	45.73902
	6.81616	45.73917
	6.816259	45.73923
	6.81653	45.73936
	6.816583	45.73943
	6.816701	45.73972
	6.816853	45.73993
	6.816985	45.74004
	6.816935	45.74009
	6.814597	45.74172
	6.814126	45.74209
	6.813892	45.74231
	6.81369	45.74255
	6.813506	45.74284
	6.813404	45.7431
	6.813338	45.7432
	6.813241	45.74328
	6.813109	45.74331
	6.812472	45.7433
	6.812381	45.74332
	6.812136	45.74347
	6.812039	45.74349
	6.811522	45.74353
	6.811005	45.7437
	6.810714	45.74372
	6.810341	45.74389
	6.809959	45.74394
	6.80988	45.74397
	6.809185	45.74441
	6.808709	45.74468
	6.808483	45.74487
	6.808298	45.74498
	6.807948	45.74531
	6.807685	45.74566
	6.807585	45.74584
	6.807535	45.746
	6.807491	45.74633
	6.807438	45.74649
	6.807325	45.74663
	6.80715	45.74675
	6.806682	45.74693
	6.806087	45.74722
	6.805875	45.74736
	6.805697	45.74752
	6.805596	45.74766
	6.805587	45.74775
	6.805751	45.74849
	6.805807	45.74859
	6.805934	45.74875
	6.806029	45.74905
	6.806154	45.74926
	6.806533	45.74975
	6.806671	45.74999
	6.806874	45.75015
	6.807052	45.75024
	6.807457	45.75028
	6.807488	45.7503
	6.807431	45.75068
	6.807402	45.75073
	6.807314	45.75078
	6.807102	45.75087
	6.807012	45.75093
	6.806953	45.75101
	6.80697	45.75107
	6.807175	45.7512
	6.807208	45.75127
	6.807191	45.7513
	6.807085	45.75139
	6.806842	45.7515
	6.806639	45.75166
	6.806595	45.75171
	6.806547	45.75197
	6.806474	45.75285
	6.806326	45.75347
	6.805451	45.75659
	6.805353	45.75723
	6.805318	45.75774
	6.805324	45.758
	6.805433	45.7585
	6.805419	45.75863
	6.805325	45.75873
	6.805272	45.7589
	6.805235	45.75894
	6.805084	45.75899
	6.805055	45.75902
	6.805031	45.75911
	6.80502	45.75934
	6.805066	45.75979
	6.80502	45.76007
	6.80503	45.76018
	6.805108	45.76045
	6.805203	45.76067
	6.80559	45.76129
	6.805724	45.76159
	6.80582	45.76198
	6.805831	45.76222
	6.805778	45.76281
	6.805783	45.76305
	6.805811	45.7632
	6.805856	45.76332
	6.805936	45.76342
	6.806086	45.76354
	6.806124	45.76359
	6.80609	45.76367
	6.805903	45.76385
	6.805614	45.76431
	6.805289	45.76501
	6.805244	45.76516
	6.805237	45.7653
	6.805262	45.76541
	6.805799	45.76682
	6.805832	45.76696
	6.805831	45.76707
	6.805802	45.76718
	6.805612	45.76762
	6.805597	45.76775
	6.805632	45.76784
	6.805742	45.768
	6.80596	45.76825
	6.806064	45.76841
	6.806237	45.76874
	6.806372	45.76908
	6.806554	45.76968
	6.806568	45.76979
	6.806514	45.76987
	6.804748	45.7709
	6.804345	45.77117
	6.804188	45.77131
	6.804073	45.77147
	6.80376	45.77199
	6.80368	45.77218
	6.803626	45.77237
	6.803604	45.77257
	6.80362	45.77291
	6.803699	45.77359
	6.803709	45.77392
	6.803663	45.77426
	6.8033	45.77544
	6.802784	45.77633
	6.802731	45.77646
	6.802711	45.77661
	6.802626	45.77832
	6.80296	45.77879
	6.803018	45.77969
	6.802445	45.78221
	6.805834	45.79222
	6.806786	45.79321
	6.807277	45.79349
	6.807796	45.79372
	6.808672	45.794
	6.81041	45.79431
	6.814995	45.79472
	6.813352	45.7977
	6.814423	45.8085
	6.813618	45.81031
	6.812851	45.81151
	6.808743	45.81357
	6.806766	45.81759
	6.806814	45.81807
	6.807138	45.81843
	6.808152	45.81901
	6.808988	45.81979
	6.809434	45.82031
	6.809738	45.82126
	6.810138	45.82152
	6.81076	45.82202
	6.8108	45.82243
	6.810958	45.82348
	6.811174	45.82415
	6.811213	45.82436
	6.811344	45.82453
	6.811241	45.82474
	6.811262	45.82492
	6.811393	45.82509
	6.811406	45.82523
	6.811475	45.82545
	6.811779	45.8255
	6.812013	45.82556
	6.81242	45.82549
	6.812627	45.82551
	6.813047	45.82589
	6.813499	45.82604
	6.813958	45.82664
	6.814378	45.82697
	6.814565	45.82725
	6.814371	45.82772
	6.814296	45.82804
	6.81433	45.8282
	6.814516	45.82847
	6.814751	45.82865
	6.814785	45.82888
	6.81493	45.82929
	6.815171	45.8296
	6.815716	45.82984
	6.816082	45.83006
	6.816275	45.83044
	6.81679	45.83074
	6.817196	45.83105
	6.81765	45.83162
	6.818014	45.83213
	6.817899	45.8326
	6.817723	45.833
	6.817751	45.83343
	6.817821	45.83382
	6.817962	45.83408
	6.818074	45.83448
	6.817982	45.83474
	6.818099	45.83495
	6.818148	45.83515
	6.818323	45.83523
	6.818372	45.83539
	6.818231	45.83567
	6.818102	45.83588
	6.818411	45.83593
	6.818933	45.83609
	6.819425	45.83644
	6.820025	45.83671
	6.820535	45.83687
	6.820922	45.83706
	6.821195	45.8373
	6.821444	45.83729
	6.822502	45.8376
	6.822999	45.83766
	6.823721	45.83767
	6.824423	45.83782
	6.825291	45.83804
	6.825583	45.838
	6.826008	45.8381
	6.826475	45.83811
	6.827337	45.83805
	6.828829	45.83791
	6.829882	45.83755
	6.830282	45.8373
	6.830779	45.83722
	6.832544	45.83741
	6.834227	45.83773
	6.838199	45.83947
	6.840847	45.84093
	6.843224	45.8427
	6.848331	45.84092
	6.852238	45.83946
	6.851585	45.83835
	6.85159	45.83803
	6.852131	45.83762
	6.852945	45.83728
	6.853972	45.83702
	6.854317	45.83665
	6.854571	45.83612
	6.855797	45.83519
	6.858161	45.83413
	6.859121	45.83351
	6.860523	45.83285
	6.862388	45.83271
	6.864327	45.83255
	6.865589	45.8322
	6.865877	45.83194
	6.866182	45.83126
	6.866055	45.82987
	6.866081	45.8297
	6.86615	45.82953
	6.86634	45.82925
	6.866747	45.82899
	6.867141	45.82884
	6.867786	45.82865
	6.868033	45.82862
	6.868171	45.82862
	6.868396	45.82865
	6.86843	45.8287
	6.86889	45.8324
	6.868827	45.83314
	6.869205	45.83349
	6.870034	45.83366
	6.871052	45.83404
	6.87203	45.83434
	6.872181	45.83454
	6.872028	45.83513
	6.872496	45.83579
	6.873184	45.83644
	6.872761	45.83668
	6.871981	45.83667
	6.871294	45.83673
	6.870862	45.83705
	6.869821	45.83827
	6.869645	45.83875
	6.870165	45.83908
	6.870167	45.83926
	6.870326	45.83935
	6.871047	45.8393
	6.871547	45.83939
	6.872102	45.83946
	6.872456	45.8394
	6.872893	45.83955
	6.873359	45.83966
	6.873545	45.83991
	6.873469	45.84024
	6.87341	45.8404
	6.873441	45.84059
	6.873753	45.84079
	6.87398	45.84102
	6.874034	45.84127
	6.874187	45.84132
	6.874368	45.84126
	6.875241	45.84141
	6.874702	45.8417
	6.874556	45.84183
	6.874584	45.8421
	6.874707	45.84221
	6.875173	45.84229
	6.875148	45.84245
	6.875359	45.84276
	6.875402	45.8429
	6.875876	45.84319
	6.875778	45.84327
	6.875558	45.84335
	6.875372	45.84356
	6.875262	45.84366
	6.875422	45.8437
	6.875476	45.8438
	6.875738	45.84392
	6.875598	45.84402
	6.876135	45.84426
	6.876041	45.84439
	6.875556	45.84458
	6.873708	45.8451
	6.873588	45.84542
	6.873676	45.84556
	6.874084	45.8457
	6.874482	45.84588
	6.875136	45.84614
	6.875773	45.84641
	6.875811	45.84665
	6.876161	45.84693
	6.875958	45.84725
	6.876362	45.84761
	6.877079	45.84814
	6.877643	45.8486
	6.87832	45.84882
	6.878655	45.84909
	6.879156	45.84932
	6.879562	45.84965
	6.879631	45.84972
	6.880059	45.84994
	6.880922	45.84996
	6.881655	45.85019
	6.881708	45.85005
	6.881887	45.84998
	6.882201	45.84963
	6.88267	45.84938
	6.883868	45.84889
	6.884279	45.84859
	6.884645	45.8483
	6.88529	45.8481
	6.885594	45.84843
	6.886588	45.84863
	6.887046	45.84874
	6.887816	45.84879
	6.888174	45.84869
	6.888425	45.84843
	6.888601	45.84806
	6.888751	45.84753
	6.888841	45.84705
	6.889108	45.84675
	6.8896	45.84584
	6.891006	45.84491
	6.892773	45.84448
	6.894127	45.84459
	6.896138	45.8439
	6.897113	45.84366
	6.897746	45.84361
	6.907554	45.844
	6.912006	45.84273
	6.916911	45.84559
	6.927582	45.84756
	6.931702	45.84585
	6.940799	45.84754
	6.942121	45.84819
	6.942763	45.8486
	6.943012	45.84883
	6.946316	45.85388
	6.951857	45.85978
	6.951596	45.86083
	6.951665	45.86194
	6.958493	45.8617
	6.967152	45.86382
	6.971655	45.86762
	6.974021	45.86845
	6.97611	45.86857
	6.977335	45.86884
	6.980016	45.86883
	6.982335	45.86929
	6.988146	45.86881
	6.990336	45.86903
	6.991507	45.86909
	6.992785	45.86971
	6.998793	45.87356
	7.000374	45.8751
	7.002435	45.88152
	7.005911	45.88687
	7.006492	45.88835
	7.006497	45.88949
	7.006036	45.89044
	7.005173	45.89151
	7.004468	45.89246
	7.003318	45.89278
	7.0038	45.89779
	7.003941	45.89855
	7.003777	45.89994
	7.005396	45.90076
	7.014343	45.90669
	7.018196	45.91394
	7.019523	45.91564
	7.020353	45.91625
	7.021765	45.91716
	7.026048	45.91823
	7.029289	45.91951
	7.030209	45.91985
	7.030367	45.92015
	7.030706	45.92024
	7.031376	45.92027
	7.031481	45.92057
	7.033165	45.92089
	7.034314	45.92123
	7.035412	45.92114
	7.036289	45.92085
	7.036859	45.92069
	7.037156	45.92071
	7.03745	45.92063
	7.037711	45.92087
	7.037632	45.92115
	7.038029	45.92133
	7.038033	45.92143
	7.038212	45.92167
	7.038627	45.92185
	7.038745	45.92201
	7.039142	45.92212
	7.039275	45.92241
	7.039507	45.92236
	7.03945	45.92257
	7.039887	45.92263
	7.040756	45.92284
	7.04115	45.92253
	7.041282	45.92272
	7.041997	45.92253
	7.043187	45.92236
	7.043528	45.92247
	7.043867	45.9225
	7.0442	45.92245
	7.044382	45.92255
END
END
