Italy_Lombardy_Varese
1
	8.593801	45.82825
	8.594372	45.82947
	8.595201	45.83361
	8.595446	45.83582
	8.595055	45.83852
	8.594738	45.84271
	8.594622	45.8448
	8.593821	45.84834
	8.593097	45.85038
	8.592311	45.85245
	8.589259	45.85723
	8.587998	45.85886
	8.586934	45.86037
	8.585732	45.86217
	8.584661	45.86403
	8.584045	45.86547
	8.5834	45.86729
	8.582178	45.87035
	8.581459	45.87173
	8.580882	45.8731
	8.580487	45.87422
	8.579989	45.8753
	8.579349	45.87647
	8.578813	45.87733
	8.578487	45.87795
	8.576694	45.87987
	8.57495	45.88227
	8.573281	45.88481
	8.571666	45.887
	8.570514	45.88951
	8.570141	45.89125
	8.569447	45.89413
	8.570638	45.90003
	8.572731	45.90279
	8.573973	45.90379
	8.575269	45.9046
	8.576217	45.90532
	8.578083	45.90615
	8.582672	45.91183
	8.587887	45.91693
	8.593841	45.92183
	8.600142	45.92622
	8.616878	45.93838
	8.6541	45.96609
	8.682299	45.98689
	8.700704	45.99994
	8.701175	46.00025
	8.703791	46.00193
	8.705013	46.00266
	8.70585	46.0032
	8.706893	46.00375
	8.707832	46.00422
	8.708992	46.00482
	8.71109	46.00598
	8.711889	46.00645
	8.714758	46.00821
	8.716053	46.00904
	8.717558	46.01006
	8.719322	46.01115
	8.720802	46.01229
	8.722114	46.01338
	8.724246	46.01552
	8.725402	46.01677
	8.72643	46.01797
	8.728029	46.02112
	8.728882	46.02345
	8.729062	46.02625
	8.729047	46.02684
	8.728967	46.02732
	8.728938	46.02788
	8.728763	46.02923
	8.728474	46.03022
	8.727495	46.03238
	8.726857	46.03342
	8.726285	46.03421
	8.725298	46.03514
	8.724468	46.03577
	8.72339	46.03682
	8.722351	46.03805
	8.72127	46.03974
	8.720643	46.04105
	8.72025	46.0422
	8.719934	46.04335
	8.719526	46.04475
	8.719067	46.04606
	8.718712	46.04742
	8.717632	46.05139
	8.717298	46.05352
	8.716938	46.05563
	8.716619	46.05737
	8.716404	46.0589
	8.716128	46.05987
	8.715876	46.06103
	8.715559	46.06227
	8.715009	46.06364
	8.713962	46.06603
	8.71353	46.06724
	8.711642	46.0723
	8.71099	46.07351
	8.710637	46.07421
	8.710167	46.07496
	8.709659	46.07571
	8.709125	46.07644
	8.708513	46.07723
	8.706455	46.08019
	8.706115	46.08081
	8.705673	46.08139
	8.705476	46.08193
	8.70534	46.08319
	8.705434	46.08357
	8.705565	46.08513
	8.706275	46.08772
	8.707326	46.08969
	8.70785	46.09081
	8.709124	46.09215
	8.710255	46.0934
	8.711503	46.09483
	8.712751	46.09597
	8.713651	46.09687
	8.714373	46.09749
	8.714643	46.09777
	8.714815	46.09804
	8.718676	46.10313
	8.724409	46.11043
	8.742349	46.12226
	8.755782	46.10459
	8.756801	46.10357
	8.757093	46.10335
	8.758248	46.10295
	8.7584	46.10284
	8.758456	46.10246
	8.758581	46.10229
	8.75894	46.10215
	8.75947	46.10207
	8.759702	46.10197
	8.75993	46.1019
	8.760025	46.10158
	8.760282	46.10149
	8.76076	46.10146
	8.762755	46.10108
	8.764356	46.10086
	8.765399	46.10045
	8.765949	46.10052
	8.76733	46.10042
	8.767791	46.10077
	8.768026	46.10083
	8.768244	46.10077
	8.769557	46.09999
	8.770032	46.09965
	8.770673	46.09959
	8.771376	46.09926
	8.771989	46.09894
	8.772528	46.0988
	8.773332	46.09843
	8.774436	46.09777
	8.775375	46.09728
	8.775699	46.09699
	8.77633	46.09667
	8.777067	46.09635
	8.783008	46.0941
	8.786432	46.09435
	8.787844	46.09442
	8.791658	46.09479
	8.799818	46.09474
	8.800451	46.09575
	8.801719	46.09731
	8.804657	46.09948
	8.806023	46.10135
	8.814761	46.09757
	8.815338	46.09737
	8.815553	46.0972
	8.81558	46.09671
	8.815768	46.09648
	8.815907	46.09585
	8.816068	46.09558
	8.816512	46.09521
	8.816987	46.0951
	8.817217	46.09496
	8.817681	46.09442
	8.817937	46.0943
	8.819451	46.09383
	8.820313	46.09366
	8.821083	46.09343
	8.821586	46.09286
	8.821506	46.09227
	8.821268	46.09156
	8.821354	46.09136
	8.821612	46.09133
	8.821781	46.09137
	8.822428	46.09139
	8.822553	46.09121
	8.822416	46.09094
	8.8226	46.09053
	8.823178	46.09039
	8.823496	46.09018
	8.824248	46.08923
	8.824371	46.089
	8.824758	46.08893
	8.825147	46.08897
	8.826322	46.0895
	8.827298	46.08865
	8.828498	46.08754
	8.829224	46.08659
	8.832956	46.08333
	8.833833	46.08279
	8.83561	46.08199
	8.836704	46.08166
	8.837815	46.08128
	8.839922	46.08106
	8.840801	46.08077
	8.842629	46.07979
	8.843398	46.07909
	8.844777	46.078
	8.845231	46.07722
	8.846273	46.07661
	8.846925	46.07606
	8.847597	46.07568
	8.849979	46.07571
	8.852035	46.07563
	8.854125	46.06857
	8.854224	46.06506
	8.854504	46.06159
	8.84688	46.05179
	8.845768	46.05033
	8.844083	46.04845
	8.842553	46.049
	8.837171	46.05057
	8.834671	46.05134
	8.832779	46.04918
	8.830395	46.04735
	8.828603	46.0464
	8.829338	46.04644
	8.829927	46.04628
	8.83079	46.04581
	8.831588	46.0457
	8.83227	46.04544
	8.833859	46.04433
	8.835517	46.04371
	8.832121	46.04031
	8.82911	46.04073
	8.828468	46.03776
	8.827713	46.03413
	8.827051	46.03252
	8.825583	46.03063
	8.823767	46.0291
	8.821845	46.02701
	8.820336	46.0265
	8.819718	46.02527
	8.811801	46.02364
	8.805883	46.02195
	8.805228	46.02054
	8.804392	46.01916
	8.797116	46.01218
	8.793078	46.00814
	8.792001	46.00532
	8.790096	45.99981
	8.789365	45.99793
	8.787242	45.99138
	8.785922	45.98915
	8.78641	45.98905
	8.78721	45.989
	8.788175	45.98892
	8.789649	45.9885
	8.790138	45.98845
	8.790684	45.9886
	8.79144	45.9889
	8.7916	45.98913
	8.792123	45.98937
	8.792386	45.98957
	8.792496	45.98986
	8.792472	45.99045
	8.792242	45.99159
	8.792247	45.9918
	8.792418	45.99191
	8.793392	45.99215
	8.794168	45.9922
	8.795869	45.99209
	8.796768	45.99193
	8.797478	45.99192
	8.797902	45.99184
	8.799015	45.99142
	8.799592	45.99131
	8.801048	45.9912
	8.801758	45.99119
	8.802405	45.99124
	8.804787	45.99102
	8.805712	45.99085
	8.807387	45.99072
	8.807939	45.99062
	8.808477	45.99045
	8.80937	45.99002
	8.809754	45.9899
	8.81014	45.98985
	8.81089	45.98991
	8.811566	45.99008
	8.813299	45.99075
	8.813496	45.99088
	8.813822	45.99102
	8.814091	45.99043
	8.814471	45.99011
	8.815781	45.98937
	8.816417	45.98896
	8.818291	45.98806
	8.819032	45.98776
	8.819826	45.98752
	8.821049	45.9874
	8.822033	45.98728
	8.822598	45.9874
	8.823117	45.98748
	8.823572	45.98761
	8.824003	45.98783
	8.824327	45.98787
	8.825422	45.9878
	8.825833	45.98772
	8.825959	45.98758
	8.826892	45.98726
	8.827345	45.98728
	8.828384	45.98755
	8.828971	45.98777
	8.830229	45.98803
	8.830682	45.98806
	8.831622	45.98799
	8.832257	45.98758
	8.832598	45.98728
	8.833759	45.98576
	8.833906	45.98544
	8.834197	45.98521
	8.834647	45.98514
	8.835606	45.98479
	8.836082	45.98471
	8.837795	45.98458
	8.838502	45.98449
	8.839015	45.98434
	8.839269	45.98418
	8.839451	45.98375
	8.839587	45.98299
	8.839633	45.98227
	8.839978	45.98165
	8.84258	45.98144
	8.84283	45.98115
	8.843236	45.98035
	8.84319	45.98008
	8.843298	45.97925
	8.843298	45.97774
	8.843572	45.97736
	8.844529	45.97694
	8.845663	45.97688
	8.846833	45.9762
	8.847751	45.97526
	8.84868	45.97376
	8.849144	45.97326
	8.849499	45.97299
	8.85048	45.97251
	8.852053	45.97196
	8.852813	45.97144
	8.853785	45.97057
	8.854799	45.96991
	8.855177	45.96952
	8.855684	45.96917
	8.856251	45.96867
	8.857248	45.9683
	8.857821	45.96801
	8.85836	45.96762
	8.858874	45.96561
	8.86066	45.96456
	8.868288	45.95897
	8.868938	45.95866
	8.870184	45.95831
	8.871445	45.95765
	8.872269	45.95743
	8.873228	45.95738
	8.873996	45.95725
	8.876064	45.95653
	8.876447	45.95644
	8.882587	45.95559
	8.883309	45.95562
	8.889212	45.95698
	8.890605	45.95815
	8.890686	45.95834
	8.891656	45.95853
	8.893707	45.95902
	8.894732	45.95777
	8.896755	45.9548
	8.896952	45.94184
	8.896616	45.94133
	8.895994	45.94075
	8.894727	45.93917
	8.893383	45.93712
	8.892919	45.93566
	8.892738	45.93469
	8.892626	45.9329
	8.892825	45.93213
	8.893257	45.9314
	8.895433	45.92841
	8.895776	45.92771
	8.896336	45.92694
	8.897749	45.9258
	8.898483	45.92526
	8.899941	45.92437
	8.902559	45.92247
	8.904996	45.92055
	8.906377	45.91916
	8.9075	45.91781
	8.910165	45.91767
	8.912549	45.91764
	8.914332	45.9178
	8.915467	45.91591
	8.916734	45.91376
	8.917673	45.91264
	8.919825	45.91026
	8.920243	45.90901
	8.921941	45.90749
	8.922287	45.90691
	8.922686	45.90644
	8.923447	45.90598
	8.924084	45.9057
	8.925179	45.90407
	8.925387	45.90337
	8.925413	45.90229
	8.924958	45.90088
	8.924534	45.89985
	8.923195	45.89786
	8.922398	45.89675
	8.922243	45.89639
	8.922065	45.89583
	8.921986	45.89547
	8.921904	45.89518
	8.922386	45.89538
	8.922508	45.89547
	8.922868	45.89544
	8.92321	45.8951
	8.923723	45.89402
	8.92408	45.89227
	8.92517	45.89206
	8.926738	45.89192
	8.927352	45.89176
	8.928439	45.8905
	8.929744	45.88876
	8.9306	45.88708
	8.931532	45.88583
	8.931936	45.88504
	8.932134	45.88427
	8.932256	45.88263
	8.932544	45.88134
	8.933047	45.88091
	8.933284	45.88014
	8.933147	45.87985
	8.933163	45.87951
	8.933259	45.87924
	8.93325	45.87891
	8.933528	45.87872
	8.933458	45.87852
	8.933258	45.87825
	8.933185	45.87793
	8.933211	45.87747
	8.933056	45.8765
	8.933165	45.87486
	8.933286	45.87454
	8.93378	45.87379
	8.933969	45.87363
	8.934025	45.87332
	8.934151	45.87323
	8.934382	45.87318
	8.934369	45.8727
	8.934492	45.87247
	8.934294	45.87232
	8.934417	45.8721
	8.934631	45.87191
	8.934628	45.87182
	8.934033	45.87125
	8.933805	45.87091
	8.933662	45.8704
	8.934899	45.86995
	8.935253	45.8697
	8.935585	45.86913
	8.936373	45.86827
	8.936623	45.86784
	8.936383	45.86684
	8.939	45.86621
	8.93902	45.86616
	8.939096	45.86619
	8.939134	45.86618
	8.93923	45.86624
	8.939718	45.86648
	8.940354	45.86708
	8.940402	45.86715
	8.940709	45.86867
	8.940674	45.86884
	8.940369	45.86943
	8.940656	45.8695
	8.941645	45.87031
	8.941796	45.8702
	8.942097	45.87035
	8.942535	45.86989
	8.942334	45.86963
	8.942926	45.86912
	8.943975	45.86839
	8.94442	45.8682
	8.944734	45.86791
	8.945231	45.86725
	8.945315	45.86702
	8.944922	45.86678
	8.943447	45.86559
	8.940341	45.8641
	8.939304	45.86384
	8.938821	45.8636
	8.938366	45.86345
	8.937098	45.86324
	8.936392	45.86294
	8.935404	45.8625
	8.934933	45.86271
	8.933229	45.8616
	8.932439	45.86097
	8.931378	45.85981
	8.930651	45.85915
	8.926212	45.85453
	8.92238	45.85091
	8.920691	45.84938
	8.91524	45.8434
	8.914983	45.843
	8.914255	45.84224
	8.913564	45.8405
	8.913136	45.83893
	8.912764	45.83803
	8.912533	45.83662
	8.912424	45.83496
	8.912179	45.833
	8.912081	45.83177
	8.912144	45.83075
	8.912239	45.83047
	8.9122	45.83011
	8.912089	45.83004
	8.911957	45.82998
	8.911617	45.82975
	8.911374	45.82964
	8.91097	45.82953
	8.910701	45.82952
	8.910408	45.82956
	8.909853	45.82969
	8.909562	45.82971
	8.909213	45.82966
	8.908392	45.8294
	8.907969	45.82936
	8.907792	45.82932
	8.907677	45.82912
	8.90757	45.82914
	8.907427	45.82886
	8.907361	45.82835
	8.907213	45.82807
	8.907087	45.82764
	8.907076	45.82741
	8.907137	45.82719
	8.907244	45.827
	8.907344	45.8269
	8.907559	45.82679
	8.908297	45.82653
	8.90856	45.82641
	8.909046	45.82613
	8.909204	45.82599
	8.909468	45.82564
	8.909567	45.82546
	8.909661	45.82514
	8.909711	45.82472
	8.909726	45.82435
	8.909536	45.82371
	8.909531	45.82354
	8.909582	45.82317
	8.909566	45.82279
	8.909395	45.82227
	8.909392	45.82199
	8.909433	45.82185
	8.909498	45.82145
	8.909496	45.82123
	8.909469	45.82105
	8.909307	45.82069
	8.909176	45.82046
	8.908848	45.81996
	8.908509	45.8195
	8.90825	45.81888
	8.908202	45.81872
	8.908027	45.81835
	8.907597	45.81787
	8.907512	45.81764
	8.907473	45.81745
	8.907339	45.81708
	8.907317	45.81696
	8.907301	45.81666
	8.907252	45.8163
	8.907303	45.81558
	8.907245	45.81535
	8.907162	45.81519
	8.907078	45.81508
	8.906944	45.81472
	8.906464	45.8148
	8.906263	45.81485
	8.906097	45.81493
	8.905675	45.81519
	8.905527	45.81524
	8.90489	45.81528
	8.904674	45.81531
	8.904413	45.81536
	8.904124	45.81544
	8.904038	45.81547
	8.90355	45.8157
	8.903431	45.81577
	8.903235	45.81591
	8.902632	45.81642
	8.902567	45.81645
	8.902465	45.81649
	8.902082	45.81657
	8.90179	45.81658
	8.901571	45.81657
	8.901426	45.81652
	8.901393	45.81649
	8.901382	45.81645
	8.901527	45.81625
	8.901799	45.81596
	8.901813	45.81587
	8.901748	45.8158
	8.901288	45.81557
	8.900694	45.81532
	8.900536	45.81521
	8.900398	45.81497
	8.900334	45.81491
	8.899916	45.81472
	8.899845	45.81466
	8.899665	45.81441
	8.899405	45.81419
	8.899259	45.81389
	8.899165	45.81376
	8.898842	45.81345
	8.898627	45.81328
	8.898366	45.81312
	8.898069	45.81299
	8.897462	45.81284
	8.896755	45.81274
	8.897372	45.8117
	8.896814	45.81145
	8.897378	45.81073
	8.897412	45.81005
	8.897597	45.80962
	8.897724	45.80943
	8.898056	45.80916
	8.898405	45.80858
	8.898476	45.80821
	8.898436	45.80783
	8.898591	45.80762
	8.898612	45.80725
	8.899181	45.80728
	8.899992	45.80711
	8.90005	45.807
	8.900007	45.80649
	8.900063	45.80612
	8.899633	45.80593
	8.899525	45.80583
	8.89955	45.80573
	8.89983	45.80541
	8.900082	45.80523
	8.900597	45.8044
	8.90054	45.80436
	8.900442	45.80364
	8.900464	45.80305
	8.900332	45.80266
	8.900202	45.80251
	8.900177	45.80223
	8.900555	45.80221
	8.900535	45.80194
	8.900696	45.80169
	8.900782	45.79996
	8.901707	45.79853
	8.901785	45.79856
	8.902414	45.79774
	8.902996	45.79733
	8.903478	45.79707
	8.903788	45.79756
	8.904075	45.79751
	8.904269	45.79724
	8.904527	45.79629
	8.904682	45.79625
	8.905802	45.79524
	8.906073	45.7949
	8.906725	45.79496
	8.907089	45.79505
	8.907229	45.79488
	8.906963	45.79441
	8.906067	45.79384
	8.90533	45.79334
	8.904914	45.79311
	8.90461	45.79292
	8.904306	45.79269
	8.903923	45.79233
	8.903601	45.79201
	8.903383	45.79175
	8.902889	45.79108
	8.902097	45.79007
	8.901026	45.78865
	8.900758	45.78833
	8.90062	45.78814
	8.900326	45.78791
	8.900296	45.78787
	8.899869	45.78685
	8.899971	45.7859
	8.900344	45.78525
	8.900864	45.78481
	8.901618	45.78453
	8.901644	45.78453
	8.901632	45.7845
	8.901655	45.7844
	8.90185	45.78429
	8.902357	45.78407
	8.902561	45.784
	8.902653	45.78393
	8.902603	45.78383
	8.902383	45.78361
	8.902269	45.78347
	8.902046	45.78316
	8.901982	45.78304
	8.902027	45.78295
	8.902204	45.78277
	8.902609	45.78222
	8.903909	45.78263
	8.904325	45.78205
	8.903538	45.78178
	8.904084	45.78111
	8.903201	45.78094
	8.903679	45.77976
	8.903408	45.77974
	8.903818	45.77888
	8.905983	45.77915
	8.906465	45.77838
	8.906557	45.77817
	8.906908	45.77773
	8.907005	45.77764
	8.907463	45.77677
	8.907655	45.77648
	8.907769	45.77647
	8.907957	45.7765
	8.908141	45.77619
	8.908318	45.77594
	8.908436	45.77569
	8.909049	45.77462
	8.90805	45.77436
	8.908479	45.77372
	8.908175	45.77366
	8.907546	45.77359
	8.907077	45.77352
	8.906264	45.77332
	8.906274	45.77307
	8.906404	45.77253
	8.906637	45.77183
	8.906534	45.77175
	8.906286	45.77164
	8.906312	45.77152
	8.90663	45.77073
	8.906714	45.77059
	8.906872	45.77026
	8.907922	45.76848
	8.908897	45.76889
	8.909487	45.76897
	8.909565	45.76906
	8.90975	45.76933
	8.909803	45.76943
	8.909844	45.76956
	8.910066	45.76955
	8.911042	45.76944
	8.912232	45.76948
	8.912687	45.76951
	8.913113	45.76958
	8.913458	45.76968
	8.913836	45.76983
	8.914228	45.77007
	8.914275	45.7697
	8.914257	45.76941
	8.914296	45.76918
	8.914358	45.76908
	8.914724	45.76908
	8.914734	45.7689
	8.914928	45.76802
	8.915093	45.76742
	8.915646	45.76746
	8.916225	45.7666
	8.916647	45.76663
	8.918444	45.76684
	8.918547	45.76665
	8.918956	45.76555
	8.919014	45.7653
	8.919012	45.76519
	8.918849	45.76471
	8.9188	45.76425
	8.918755	45.76406
	8.918569	45.76388
	8.918683	45.76382
	8.919162	45.76373
	8.919495	45.76365
	8.920825	45.76344
	8.920978	45.7634
	8.92101	45.7633
	8.921041	45.76298
	8.921044	45.76223
	8.921112	45.76178
	8.921114	45.76164
	8.921037	45.76133
	8.92079	45.76092
	8.920751	45.76081
	8.920758	45.76075
	8.920813	45.76072
	8.920908	45.7607
	8.92143	45.76069
	8.922643	45.76077
	8.922488	45.75945
	8.922371	45.75883
	8.922274	45.75797
	8.922204	45.75761
	8.922117	45.75674
	8.92202	45.75615
	8.921964	45.7555
	8.921944	45.75493
	8.921993	45.75453
	8.922973	45.75447
	8.923515	45.75446
	8.923859	45.75447
	8.924386	45.75459
	8.924846	45.75468
	8.925235	45.7547
	8.925434	45.7547
	8.925799	45.75465
	8.92672	45.75457
	8.926795	45.75456
	8.926818	45.75444
	8.926874	45.7544
	8.926956	45.75439
	8.926998	45.7544
	8.927059	45.75445
	8.927122	45.75447
	8.927194	45.75446
	8.927296	45.75439
	8.9273	45.75427
	8.927151	45.7542
	8.927132	45.75413
	8.927162	45.75408
	8.927212	45.75405
	8.927392	45.75401
	8.927465	45.75393
	8.927469	45.75401
	8.927697	45.75419
	8.927718	45.7543
	8.927694	45.75432
	8.927617	45.75431
	8.927588	45.75432
	8.927602	45.75437
	8.927919	45.75451
	8.928004	45.75451
	8.928168	45.75445
	8.928213	45.75448
	8.928361	45.75473
	8.928421	45.7548
	8.928486	45.75483
	8.928659	45.75484
	8.928748	45.75487
	8.928773	45.75491
	8.929045	45.7549
	8.929161	45.75487
	8.929416	45.7547
	8.929864	45.75417
	8.930041	45.75383
	8.930157	45.75348
	8.929772	45.75339
	8.929648	45.75299
	8.929594	45.75271
	8.929591	45.75247
	8.929638	45.75232
	8.929786	45.75214
	8.929837	45.75211
	8.929932	45.75208
	8.930054	45.75215
	8.930117	45.75223
	8.930172	45.75235
	8.930273	45.75234
	8.930477	45.75226
	8.93026	45.75186
	8.930079	45.75142
	8.92994	45.75099
	8.929908	45.75084
	8.929761	45.74912
	8.92969	45.74697
	8.930345	45.74689
	8.931327	45.74681
	8.931833	45.74679
	8.932597	45.74673
	8.933716	45.74655
	8.934709	45.74641
	8.935688	45.74624
	8.939147	45.74553
	8.940781	45.74511
	8.94271	45.74471
	8.941963	45.7444
	8.941419	45.74421
	8.940929	45.74397
	8.940176	45.74347
	8.940116	45.74341
	8.940049	45.7433
	8.9399	45.74269
	8.939666	45.7421
	8.939453	45.74136
	8.939355	45.74048
	8.93931	45.74023
	8.938962	45.73967
	8.93877	45.73889
	8.938703	45.7385
	8.938998	45.73861
	8.938915	45.73801
	8.938901	45.73762
	8.938758	45.73647
	8.93913	45.73688
	8.939212	45.73694
	8.93935	45.73698
	8.939877	45.73707
	8.940073	45.73713
	8.9403	45.73727
	8.940385	45.73722
	8.940576	45.73704
	8.940994	45.73676
	8.941591	45.73626
	8.942128	45.7357
	8.942277	45.73561
	8.942659	45.73532
	8.942713	45.7353
	8.943112	45.73527
	8.943141	45.73523
	8.943139	45.73515
	8.942971	45.73458
	8.942984	45.73448
	8.943148	45.7342
	8.943254	45.73406
	8.94332	45.73404
	8.943519	45.73413
	8.943747	45.73404
	8.944043	45.7339
	8.944498	45.73364
	8.944964	45.73342
	8.945191	45.73326
	8.945268	45.73317
	8.945493	45.73276
	8.945558	45.73268
	8.945675	45.73265
	8.945985	45.73267
	8.948157	45.73298
	8.94839	45.73299
	8.948607	45.73295
	8.948768	45.73289
	8.948994	45.73273
	8.949134	45.73258
	8.949211	45.73247
	8.949398	45.73185
	8.950185	45.73193
	8.950274	45.73192
	8.950323	45.7319
	8.950552	45.73158
	8.950642	45.73148
	8.950737	45.73141
	8.950926	45.7314
	8.95101	45.73127
	8.951063	45.73123
	8.951086	45.73115
	8.951038	45.73091
	8.951252	45.73065
	8.951576	45.73035
	8.951731	45.73008
	8.951718	45.72999
	8.951691	45.72994
	8.951712	45.72987
	8.951766	45.72982
	8.95194	45.72975
	8.951961	45.7297
	8.951964	45.72961
	8.951898	45.72948
	8.951932	45.72935
	8.951936	45.72917
	8.95192	45.7291
	8.95179	45.72898
	8.951761	45.72891
	8.951754	45.7288
	8.951679	45.72872
	8.951669	45.72865
	8.951697	45.72851
	8.951684	45.72838
	8.951716	45.72832
	8.951817	45.72826
	8.95188	45.72819
	8.95194	45.72799
	8.952032	45.72788
	8.952199	45.72759
	8.952177	45.72736
	8.952198	45.72722
	8.952145	45.72705
	8.95209	45.72697
	8.951806	45.72682
	8.951735	45.7267
	8.951707	45.72646
	8.951508	45.72622
	8.951492	45.72615
	8.951551	45.72608
	8.951656	45.72602
	8.951679	45.72598
	8.951778	45.7257
	8.951784	45.72562
	8.951728	45.7256
	8.951507	45.72556
	8.951405	45.72555
	8.951269	45.72557
	8.951174	45.72555
	8.951168	45.72548
	8.95121	45.72539
	8.951112	45.7253
	8.951012	45.72517
	8.951025	45.72499
	8.950987	45.72493
	8.950977	45.72492
	8.950683	45.72489
	8.950592	45.72487
	8.950412	45.72476
	8.950373	45.72471
	8.950367	45.72466
	8.950405	45.72462
	8.950619	45.72456
	8.950642	45.72449
	8.950592	45.72445
	8.950563	45.72439
	8.950616	45.7243
	8.950635	45.72421
	8.950623	45.72408
	8.950578	45.72399
	8.950321	45.72366
	8.950299	45.72359
	8.950337	45.72352
	8.950492	45.72335
	8.950474	45.72294
	8.950529	45.72283
	8.950598	45.72277
	8.950756	45.72269
	8.950831	45.72263
	8.951063	45.72257
	8.951106	45.72249
	8.951024	45.72244
	8.950857	45.72238
	8.950769	45.72232
	8.95073	45.72226
	8.95052	45.7221
	8.950408	45.72198
	8.95034	45.72181
	8.950308	45.72178
	8.950145	45.72177
	8.950063	45.72174
	8.950047	45.72169
	8.950079	45.72163
	8.950204	45.7215
	8.950217	45.72144
	8.950201	45.72138
	8.949964	45.72124
	8.949771	45.72115
	8.949823	45.72022
	8.949924	45.72002
	8.949961	45.7199
	8.949933	45.71971
	8.949854	45.71948
	8.949992	45.71938
	8.950021	45.71931
	8.950023	45.7191
	8.950001	45.71899
	8.950023	45.71892
	8.950065	45.71888
	8.950131	45.71886
	8.950308	45.71885
	8.950425	45.7188
	8.950462	45.71877
	8.950497	45.71872
	8.950521	45.71861
	8.950626	45.71848
	8.950671	45.7184
	8.950695	45.71815
	8.950724	45.71811
	8.950806	45.71809
	8.951005	45.71814
	8.951097	45.71812
	8.951134	45.71807
	8.951147	45.71793
	8.951086	45.71765
	8.950921	45.71724
	8.950798	45.7171
	8.950722	45.71696
	8.950716	45.71692
	8.950801	45.71678
	8.950962	45.71664
	8.950975	45.7166
	8.950877	45.71646
	8.950733	45.71589
	8.950729	45.71581
	8.950749	45.71575
	8.950789	45.71573
	8.95086	45.71574
	8.950995	45.71581
	8.951046	45.71582
	8.951102	45.7158
	8.951137	45.71577
	8.951171	45.7157
	8.951144	45.71563
	8.951142	45.71555
	8.951201	45.7154
	8.951178	45.71534
	8.951196	45.71522
	8.951437	45.71496
	8.951532	45.71476
	8.95154	45.71471
	8.951309	45.71452
	8.951253	45.71443
	8.951253	45.71439
	8.95142	45.71433
	8.951466	45.71428
	8.951492	45.71421
	8.951467	45.71414
	8.95133	45.71402
	8.951264	45.71393
	8.951268	45.71387
	8.951314	45.71376
	8.951292	45.71364
	8.951411	45.7133
	8.951421	45.71322
	8.951395	45.71309
	8.951434	45.71292
	8.951415	45.71283
	8.951208	45.71262
	8.95115	45.71254
	8.951056	45.71219
	8.950923	45.71186
	8.950749	45.71172
	8.950616	45.71153
	8.950594	45.71148
	8.950581	45.71125
	8.950497	45.71127
	8.950219	45.71146
	8.95015	45.71149
	8.950078	45.71148
	8.94999	45.71143
	8.949802	45.71122
	8.949407	45.71087
	8.948944	45.71056
	8.948706	45.71047
	8.948518	45.71038
	8.948005	45.70999
	8.947709	45.70974
	8.947627	45.70964
	8.947708	45.70931
	8.947763	45.7092
	8.947878	45.7091
	8.948207	45.70852
	8.948285	45.70841
	8.94838	45.70832
	8.948515	45.70812
	8.948761	45.70783
	8.948973	45.70769
	8.949033	45.70762
	8.948919	45.70754
	8.948214	45.70727
	8.947543	45.70704
	8.946362	45.70672
	8.945885	45.70661
	8.945491	45.70648
	8.94535	45.70645
	8.94513	45.70659
	8.945022	45.70669
	8.944845	45.70696
	8.944662	45.70711
	8.944445	45.7072
	8.944351	45.70727
	8.944187	45.70743
	8.944056	45.70763
	8.94401	45.70775
	8.943982	45.708
	8.94391	45.70817
	8.943922	45.70832
	8.943856	45.70848
	8.943787	45.70878
	8.94378	45.70917
	8.943724	45.70934
	8.943667	45.7097
	8.943509	45.71001
	8.943416	45.71049
	8.943349	45.71055
	8.942948	45.71068
	8.942752	45.71079
	8.942627	45.71093
	8.942571	45.71102
	8.942349	45.71121
	8.942258	45.71164
	8.942208	45.71169
	8.942141	45.71171
	8.942008	45.71171
	8.941961	45.71175
	8.941935	45.71184
	8.941955	45.71192
	8.942166	45.71216
	8.942208	45.71223
	8.942237	45.7124
	8.942196	45.7126
	8.94213	45.71269
	8.941994	45.71278
	8.941602	45.71289
	8.941467	45.71296
	8.94132	45.71309
	8.941261	45.71309
	8.94056	45.71272
	8.940394	45.71206
	8.939424	45.71149
	8.939799	45.71124
	8.939847	45.71119
	8.939959	45.71097
	8.939966	45.71083
	8.940064	45.71064
	8.940079	45.71046
	8.940199	45.71035
	8.940471	45.71024
	8.940521	45.71011
	8.940524	45.70989
	8.939527	45.70957
	8.939496	45.70957
	8.938949	45.70943
	8.938354	45.70922
	8.937296	45.70882
	8.935673	45.70808
	8.935191	45.70844
	8.934843	45.70808
	8.934602	45.70787
	8.934251	45.70777
	8.93352	45.70752
	8.933299	45.70746
	8.932586	45.70746
	8.931172	45.70655
	8.931341	45.70618
	8.931449	45.70575
	8.931598	45.70475
	8.931698	45.7043
	8.931728	45.70397
	8.931654	45.7038
	8.931647	45.70311
	8.930891	45.70114
	8.931953	45.70118
	8.932154	45.69899
	8.932178	45.69795
	8.932672	45.69695
	8.931674	45.6964
	8.930542	45.69575
	8.930141	45.69617
	8.928311	45.69504
	8.928131	45.69514
	8.927954	45.695
	8.928187	45.69481
	8.927231	45.69406
	8.926381	45.69335
	8.926072	45.69314
	8.925707	45.69335
	8.924415	45.69427
	8.923389	45.69358
	8.923193	45.69368
	8.922793	45.69339
	8.922504	45.69358
	8.922207	45.69335
	8.921417	45.69254
	8.920367	45.6915
	8.920206	45.69154
	8.920022	45.69136
	8.920096	45.6913
	8.919155	45.69034
	8.918866	45.69001
	8.917788	45.68886
	8.917164	45.68817
	8.916034	45.68903
	8.915627	45.68884
	8.913923	45.68825
	8.912709	45.68789
	8.910467	45.68738
	8.910099	45.68765
	8.905426	45.68599
	8.903447	45.68556
	8.903321	45.6857
	8.902729	45.68553
	8.901914	45.68728
	8.90053	45.68646
	8.899924	45.68617
	8.899802	45.68613
	8.89959	45.68609
	8.898644	45.68612
	8.897919	45.68609
	8.897667	45.68607
	8.898073	45.68536
	8.896961	45.68515
	8.896924	45.68525
	8.896675	45.68519
	8.896756	45.68496
	8.89492	45.68462
	8.894242	45.68492
	8.894906	45.68247
	8.896145	45.68264
	8.896873	45.68109
	8.896932	45.68086
	8.897324	45.68
	8.897698	45.67802
	8.89818	45.67813
	8.898703	45.67697
	8.900394	45.6773
	8.902125	45.67767
	8.902802	45.67757
	8.905976	45.67697
	8.906161	45.67693
	8.9069	45.6767
	8.907476	45.67656
	8.907595	45.67651
	8.908182	45.67545
	8.910003	45.67202
	8.910804	45.67208
	8.911391	45.67122
	8.915175	45.67207
	8.915569	45.6715
	8.915733	45.67156
	8.91605	45.67106
	8.917243	45.6715
	8.917964	45.67037
	8.92083	45.67153
	8.922148	45.66988
	8.921351	45.66947
	8.921056	45.66929
	8.920976	45.66919
	8.920991	45.66899
	8.92141	45.66841
	8.922888	45.66651
	8.923603	45.66555
	8.923721	45.66545
	8.925958	45.66331
	8.926506	45.6617
	8.927881	45.65939
	8.928297	45.65875
	8.93133	45.65537
	8.93044	45.65494
	8.930644	45.65461
	8.933173	45.65168
	8.933637	45.65081
	8.934358	45.65085
	8.934527	45.65089
	8.934676	45.65096
	8.935832	45.652
	8.936803	45.65275
	8.935935	45.65326
	8.937257	45.65406
	8.935174	45.65562
	8.935593	45.65612
	8.939293	45.65677
	8.940055	45.65593
	8.940275	45.65555
	8.940766	45.65521
	8.94128	45.65472
	8.941643	45.65432
	8.941819	45.65417
	8.941879	45.65415
	8.94287	45.6544
	8.942976	45.65425
	8.944806	45.6548
	8.945523	45.65503
	8.945855	45.65519
	8.946504	45.65556
	8.945486	45.6565
	8.946083	45.65696
	8.945356	45.65681
	8.944415	45.65808
	8.942596	45.6575
	8.940082	45.65899
	8.943361	45.66045
	8.944392	45.65962
	8.944785	45.65979
	8.945371	45.66013
	8.945728	45.66029
	8.94648	45.66077
	8.946899	45.661
	8.948506	45.65993
	8.949482	45.66076
	8.950343	45.6603
	8.95083	45.66062
	8.951642	45.66127
	8.952063	45.66159
	8.952488	45.66188
	8.95303	45.66221
	8.954203	45.66309
	8.955702	45.66222
	8.954243	45.66118
	8.955591	45.66027
	8.958415	45.6624
	8.955317	45.66424
	8.956035	45.6648
	8.957146	45.66411
	8.956991	45.66397
	8.957402	45.6637
	8.957938	45.66377
	8.959158	45.66308
	8.958802	45.66277
	8.960853	45.66149
	8.960887	45.66189
	8.960938	45.66202
	8.961297	45.66252
	8.961746	45.66292
	8.96249	45.66414
	8.962899	45.66472
	8.963371	45.66549
	8.963544	45.66569
	8.963925	45.66519
	8.964875	45.66475
	8.965614	45.66532
	8.966492	45.6659
	8.966545	45.66623
	8.967822	45.66719
	8.96862	45.66817
	8.969178	45.66892
	8.969	45.66902
	8.969669	45.66998
	8.969906	45.66994
	8.97015	45.67032
	8.971449	45.67193
	8.971573	45.67188
	8.972309	45.67297
	8.972809	45.6738
	8.973867	45.67337
	8.974704	45.67445
	8.973714	45.6748
	8.973847	45.67503
	8.975367	45.67458
	8.977817	45.6736
	8.978308	45.67381
	8.979598	45.67413
	8.980796	45.67446
	8.982278	45.67467
	8.982437	45.67468
	8.982722	45.67458
	8.982902	45.67458
	8.982989	45.67471
	8.984016	45.67478
	8.986042	45.67473
	8.985165	45.67362
	8.9844	45.67387
	8.983723	45.67305
	8.984331	45.6727
	8.983904	45.67224
	8.984429	45.67203
	8.984172	45.67161
	8.984861	45.67134
	8.98486	45.67104
	8.985579	45.67082
	8.985275	45.67016
	8.986746	45.66939
	8.985557	45.66824
	8.985106	45.6685
	8.984509	45.66778
	8.983491	45.66779
	8.983306	45.66735
	8.983757	45.66717
	8.982833	45.66589
	8.982885	45.66587
	8.983232	45.66619
	8.9833	45.66623
	8.983808	45.66646
	8.984361	45.66656
	8.984804	45.66653
	8.985189	45.66665
	8.985681	45.66668
	8.986207	45.66661
	8.986646	45.66649
	8.986749	45.66652
	8.987194	45.6666
	8.987863	45.66664
	8.98893	45.66664
	8.995731	45.66647
	8.997957	45.66639
	8.999888	45.66433
	8.997821	45.6624
	8.995604	45.66247
	8.988991	45.66264
	8.988048	45.66264
	8.987737	45.66262
	8.987259	45.66247
	8.986809	45.66242
	8.986406	45.66244
	8.986089	45.6625
	8.985887	45.66211
	8.986178	45.6619
	8.98581	45.66148
	8.986399	45.66114
	8.986126	45.66072
	8.986659	45.66057
	8.986642	45.6603
	8.98721	45.6601
	8.987322	45.65875
	8.98733	45.65844
	8.987306	45.65809
	8.987199	45.65779
	8.987096	45.65777
	8.986949	45.6577
	8.986854	45.65761
	8.986787	45.65752
	8.986149	45.65613
	8.988021	45.65572
	8.987422	45.65531
	8.987415	45.65456
	8.986759	45.65444
	8.987181	45.65359
	8.985117	45.65298
	8.982023	45.65204
	8.982201	45.65154
	8.98143	45.6512
	8.98216	45.65036
	8.982093	45.65005
	8.980112	45.64913
	8.978835	45.64837
	8.978077	45.64797
	8.97902	45.64698
	8.979999	45.64648
	8.981089	45.64575
	8.981595	45.64618
	8.982166	45.64652
	8.982816	45.64684
	8.983246	45.64708
	8.982592	45.64768
	8.984103	45.64837
	8.984447	45.64855
	8.984995	45.64878
	8.985127	45.64885
	8.985903	45.64935
	8.985991	45.64933
	8.986357	45.6492
	8.986655	45.64907
	8.987158	45.64881
	8.987791	45.64837
	8.987942	45.64837
	8.988941	45.64767
	8.989469	45.64792
	8.98963	45.64797
	8.989769	45.64796
	8.989875	45.64792
	8.989878	45.64791
	8.989965	45.64788
	8.990286	45.64837
	8.99096	45.64919
	8.991231	45.64901
	8.991154	45.64837
	8.991141	45.64809
	8.992591	45.64736
	8.991978	45.64668
	8.993013	45.64661
	8.99352	45.64704
	8.993892	45.64677
	8.994731	45.64645
	8.994923	45.64686
	8.994954	45.64689
	8.994109	45.64748
	8.994526	45.64863
	8.995219	45.64852
	8.99518	45.64837
	8.995021	45.64802
	8.994976	45.6477
	8.994999	45.64763
	8.997104	45.64707
	8.997134	45.64716
	8.998475	45.64687
	8.998344	45.6464
	8.999657	45.64604
	9.000161	45.64597
	9.000562	45.64588
	9.000788	45.64586
	9.001255	45.64586
	9.001735	45.64575
	9.002011	45.64572
	9.00212	45.64587
	9.002665	45.64579
	9.003161	45.64568
	9.003663	45.64542
	9.003745	45.64567
	9.004372	45.64551
	9.004215	45.64512
	9.004243	45.64514
	9.004333	45.64512
	9.005073	45.64487
	9.005689	45.64471
	9.006244	45.64592
	9.007811	45.64555
	9.007634	45.64502
	9.008855	45.64488
	9.008855	45.64457
	9.009036	45.64463
	9.009396	45.64468
	9.013756	45.64462
	9.014505	45.64478
	9.018114	45.64508
	9.01888	45.64375
	9.020306	45.64444
	9.020146	45.64562
	9.021658	45.64625
	9.021805	45.64519
	9.022585	45.64555
	9.023206	45.64586
	9.023001	45.6465
	9.02437	45.64664
	9.024201	45.64718
	9.023986	45.64811
	9.025513	45.64816
	9.025464	45.64922
	9.027088	45.64929
	9.027352	45.64782
	9.026074	45.64716
	9.026087	45.64633
	9.025209	45.64628
	9.025166	45.64586
	9.02676	45.6458
	9.026765	45.64554
	9.027886	45.64546
	9.027668	45.64291
	9.028621	45.64285
	9.032846	45.64253
	9.035976	45.64232
	9.037002	45.64223
	9.036344	45.63986
	9.036588	45.63971
	9.038556	45.63958
	9.039686	45.63939
	9.039934	45.6402
	9.039645	45.64038
	9.039455	45.64064
	9.039314	45.64101
	9.039272	45.64121
	9.038956	45.64148
	9.038849	45.64153
	9.037972	45.64166
	9.037972	45.64173
	9.038806	45.64178
	9.038814	45.64218
	9.039669	45.64205
	9.039821	45.64201
	9.039956	45.64196
	9.040306	45.64192
	9.040886	45.64198
	9.040951	45.6425
	9.042217	45.64258
	9.042651	45.64173
	9.04296	45.64174
	9.042928	45.64238
	9.043869	45.6424
	9.043904	45.64278
	9.04528	45.64274
	9.045439	45.64283
	9.046217	45.64273
	9.047003	45.6426
	9.047213	45.6426
	9.047544	45.64499
	9.048158	45.64497
	9.048232	45.64523
	9.048778	45.64521
	9.048816	45.64556
	9.049565	45.64549
	9.04946	45.6445
	9.050475	45.64542
	9.052539	45.64522
	9.05268	45.64611
	9.053945	45.64552
	9.054074	45.64632
	9.054861	45.64627
	9.055442	45.64622
	9.055269	45.64507
	9.057182	45.64601
	9.056971	45.64484
	9.057608	45.64481
	9.057385	45.64377
	9.057456	45.6437
	9.057365	45.64278
	9.058096	45.64278
	9.058128	45.64195
	9.058538	45.64195
	9.058526	45.64118
	9.062533	45.64103
	9.062597	45.63808
	9.061861	45.63808
	9.061727	45.63665
	9.057286	45.63637
	9.057239	45.636
	9.057164	45.63585
	9.056987	45.63569
	9.056015	45.63518
	9.056015	45.6342
	9.054251	45.63424
	9.054156	45.63339
	9.051861	45.63343
	9.051572	45.63328
	9.051591	45.63107
	9.050627	45.63106
	9.050628	45.63053
	9.052447	45.63049
	9.052396	45.62942
	9.051841	45.62942
	9.051605	45.62938
	9.051341	45.62929
	9.05117	45.62921
	9.051186	45.62868
	9.051755	45.62865
	9.051812	45.628
	9.053044	45.628
	9.052997	45.62736
	9.052169	45.62742
	9.05213	45.62671
	9.051981	45.6267
	9.051976	45.62605
	9.053116	45.626
	9.053067	45.62549
	9.052544	45.62552
	9.052402	45.62403
	9.052296	45.62406
	9.052235	45.62339
	9.052948	45.62332
	9.052875	45.62239
	9.05238	45.62242
	9.052307	45.62189
	9.052833	45.62186
	9.052543	45.61915
	9.05403	45.61912
	9.05402	45.61863
	9.054665	45.61858
	9.055754	45.6189
	9.05587	45.6185
	9.05636	45.61847
	9.056644	45.61808
	9.056803	45.61774
	9.056935	45.61716
	9.05673	45.61631
	9.056802	45.61628
	9.056783	45.61622
	9.056707	45.61621
	9.05663	45.61588
	9.056579	45.61581
	9.056103	45.61611
	9.053644	45.61569
	9.05342	45.61547
	9.053361	45.61553
	9.053296	45.61564
	9.053279	45.61563
	9.053242	45.61487
	9.054384	45.61484
	9.055397	45.61491
	9.055578	45.61491
	9.058058	45.61484
	9.059677	45.61485
	9.060062	45.61487
	9.06059	45.61493
	9.061129	45.61496
	9.06324	45.61287
	9.063173	45.61141
	9.063148	45.6111
	9.063103	45.61081
	9.063234	45.60985
	9.063138	45.60925
	9.063103	45.60837
	9.063057	45.60802
	9.063005	45.60779
	9.060951	45.60648
	9.060953	45.60627
	9.060764	45.60488
	9.059106	45.60308
	9.059121	45.60265
	9.05911	45.60233
	9.058954	45.60192
	9.058732	45.60145
	9.058633	45.60116
	9.058294	45.60045
	9.058095	45.59991
	9.058069	45.59987
	9.058565	45.59709
	9.06135	45.59758
	9.061492	45.59779
	9.061684	45.59813
	9.06182	45.59845
	9.062008	45.59896
	9.062237	45.59942
	9.062407	45.59941
	9.06252	45.60011
	9.062543	45.60015
	9.062793	45.60013
	9.062784	45.60008
	9.063169	45.60004
	9.063056	45.59935
	9.06346	45.59932
	9.063294	45.59838
	9.063782	45.59835
	9.063644	45.59755
	9.066278	45.5973
	9.066147	45.59652
	9.066296	45.59571
	9.065857	45.59573
	9.065776	45.59503
	9.064849	45.59506
	9.06474	45.59404
	9.065252	45.59402
	9.065007	45.5927
	9.065477	45.59259
	9.065321	45.5911
	9.065505	45.5911
	9.065506	45.59087
	9.06608	45.59079
	9.065862	45.58912
	9.066319	45.589
	9.06598	45.58757
	9.065526	45.58597
	9.065381	45.58553
	9.063989	45.58482
	9.06419	45.58289
	9.064304	45.58228
	9.064291	45.58196
	9.064241	45.58164
	9.063493	45.58166
	9.06351	45.58093
	9.06282	45.58059
	9.061875	45.58077
	9.060659	45.58121
	9.059423	45.58169
	9.057548	45.5832
	9.056054	45.58303
	9.05304	45.58283
	9.053024	45.58282
	9.05116	45.58268
	9.050743	45.58261
	9.050589	45.58257
	9.050444	45.58256
	9.04856	45.58045
	9.050669	45.57857
	9.050904	45.57858
	9.051068	45.5775
	9.049594	45.57733
	9.046271	45.57705
	9.046242	45.57735
	9.046202	45.5774
	9.046144	45.57744
	9.046115	45.57749
	9.046071	45.57762
	9.045971	45.57781
	9.045935	45.57795
	9.045888	45.57842
	9.045897	45.57862
	9.045881	45.57879
	9.045773	45.57914
	9.045761	45.57923
	9.045729	45.57976
	9.045697	45.58001
	9.0457	45.58036
	9.045663	45.58077
	9.045582	45.58078
	9.045522	45.58077
	9.045263	45.58077
	9.045264	45.58076
	9.04515	45.58075
	9.045147	45.58076
	9.045087	45.58075
	9.044828	45.58075
	9.044803	45.58074
	9.043728	45.58071
	9.04243	45.58062
	9.042389	45.58098
	9.039799	45.58084
	9.039661	45.58223
	9.039697	45.58224
	9.040163	45.58226
	9.040096	45.58286
	9.040085	45.58286
	9.040016	45.58362
	9.039727	45.5836
	9.039707	45.58378
	9.038657	45.58375
	9.038257	45.58371
	9.038211	45.58372
	9.037708	45.58369
	9.037781	45.58249
	9.036597	45.58245
	9.035848	45.5824
	9.035041	45.58237
	9.034775	45.58235
	9.034664	45.58236
	9.03462	45.58242
	9.03451	45.58265
	9.034186	45.58341
	9.034094	45.58364
	9.034022	45.58395
	9.03238	45.58388
	9.032268	45.58477
	9.033383	45.58484
	9.033271	45.58599
	9.030988	45.58595
	9.030938	45.58667
	9.029755	45.58665
	9.029756	45.58636
	9.028467	45.58636
	9.027266	45.58634
	9.027252	45.58645
	9.026812	45.58643
	9.026723	45.58843
	9.026701	45.58849
	9.02669	45.5885
	9.026658	45.5885
	9.02517	45.58835
	9.024189	45.58827
	9.024704	45.58497
	9.02463	45.58497
	9.024551	45.58495
	9.024272	45.58483
	9.024246	45.58483
	9.024175	45.58486
	9.024024	45.58488
	9.023601	45.58489
	9.022981	45.58486
	9.021114	45.58468
	9.021373	45.58344
	9.021603	45.58285
	9.021655	45.58268
	9.020757	45.5826
	9.02025	45.58265
	9.020241	45.58266
	9.019838	45.58266
	9.019589	45.58264
	9.019039	45.58257
	9.018857	45.58253
	9.017849	45.58236
	9.018015	45.58192
	9.017954	45.58188
	9.01776	45.58179
	9.017402	45.58164
	9.01738	45.58165
	9.016869	45.5823
	9.015856	45.58202
	9.015125	45.58178
	9.014442	45.5816
	9.013906	45.58139
	9.014678	45.58041
	9.01464	45.5803
	9.013654	45.57986
	9.012857	45.57946
	9.012716	45.579
	9.012518	45.57855
	9.012237	45.57809
	9.01203	45.5778
	9.011772	45.57751
	9.011482	45.57723
	9.011108	45.57695
	9.010818	45.57676
	9.010293	45.5765
	9.009952	45.57636
	9.009519	45.57621
	9.009329	45.57615
	9.008741	45.57601
	9.00809	45.57589
	9.007381	45.57579
	9.007184	45.57577
	9.006725	45.57575
	9.006135	45.57577
	9.005519	45.57584
	9.004872	45.57599
	9.004694	45.57604
	9.004098	45.57625
	9.003489	45.5765
	9.003016	45.57621
	9.004617	45.57468
	9.002757	45.5738
	8.999657	45.57674
	8.999042	45.57721
	8.996977	45.57904
	8.996662	45.57926
	8.990713	45.5845
	8.990383	45.58487
	8.990267	45.58497
	8.990186	45.58502
	8.990088	45.58519
	8.990048	45.5853
	8.988966	45.58627
	8.988381	45.58677
	8.988174	45.58697
	8.98701	45.588
	8.984834	45.59001
	8.984742	45.5901
	8.984724	45.59017
	8.984231	45.5906
	8.983773	45.59094
	8.98375	45.59098
	8.98376	45.59105
	8.978628	45.58867
	8.978063	45.58926
	8.976657	45.58868
	8.977224	45.58813
	8.975739	45.58744
	8.974143	45.58667
	8.972875	45.58779
	8.973853	45.58827
	8.973109	45.58898
	8.972944	45.58911
	8.972562	45.58929
	8.972395	45.58943
	8.972192	45.58964
	8.97172	45.59005
	8.971594	45.59018
	8.97132	45.59052
	8.971203	45.59071
	8.971004	45.5912
	8.970922	45.59149
	8.970864	45.59163
	8.970081	45.5928
	8.971365	45.59347
	8.970047	45.59478
	8.968698	45.59617
	8.969332	45.59777
	8.969634	45.59865
	8.969693	45.59879
	8.969889	45.59912
	8.970006	45.59938
	8.970223	45.60001
	8.970482	45.601
	8.970545	45.60117
	8.970907	45.60191
	8.971059	45.60226
	8.971089	45.60237
	8.971089	45.60246
	8.971039	45.60266
	8.970991	45.60276
	8.970942	45.60282
	8.970361	45.60336
	8.9698	45.60384
	8.970303	45.60414
	8.970433	45.60433
	8.968441	45.60636
	8.969029	45.60682
	8.967455	45.60854
	8.970108	45.61005
	8.96989	45.61023
	8.973345	45.61231
	8.972886	45.61271
	8.974282	45.61365
	8.976756	45.61299
	8.978634	45.61484
	8.977707	45.6156
	8.976739	45.61496
	8.975779	45.61581
	8.975592	45.61583
	8.974705	45.61663
	8.97458	45.6165
	8.97408	45.61727
	8.97329	45.61863
	8.972647	45.61964
	8.972344	45.62019
	8.971077	45.62218
	8.97021	45.62369
	8.969988	45.62393
	8.969505	45.62461
	8.969399	45.62479
	8.969259	45.62522
	8.969214	45.62531
	8.968909	45.62545
	8.968818	45.6255
	8.968766	45.62555
	8.96872	45.62563
	8.968697	45.62572
	8.968721	45.6258
	8.968833	45.62594
	8.968878	45.62607
	8.968872	45.62615
	8.968803	45.62624
	8.968748	45.62628
	8.968661	45.62632
	8.968265	45.62639
	8.968097	45.62645
	8.968005	45.62652
	8.967934	45.62662
	8.967899	45.62673
	8.967905	45.62681
	8.967936	45.62688
	8.967979	45.62693
	8.968071	45.62703
	8.968253	45.62719
	8.968298	45.62734
	8.968274	45.62743
	8.968231	45.62748
	8.968177	45.6275
	8.967761	45.62754
	8.967632	45.62754
	8.967491	45.6276
	8.9674	45.62766
	8.967348	45.62775
	8.967359	45.62786
	8.967388	45.62792
	8.967535	45.62804
	8.967861	45.62811
	8.967972	45.62817
	8.968116	45.62827
	8.9682	45.62835
	8.968232	45.62841
	8.968214	45.62855
	8.968174	45.62863
	8.967766	45.62895
	8.967602	45.62906
	8.967379	45.62915
	8.966771	45.62924
	8.966487	45.62927
	8.966231	45.62927
	8.966076	45.62924
	8.966016	45.62927
	8.965996	45.6293
	8.966	45.62937
	8.966096	45.62963
	8.966102	45.62968
	8.966085	45.62973
	8.965976	45.62983
	8.965901	45.62992
	8.96589	45.62999
	8.965904	45.63004
	8.965984	45.63009
	8.966191	45.63017
	8.966391	45.63022
	8.966464	45.63018
	8.966776	45.6301
	8.966845	45.63011
	8.96689	45.63013
	8.966922	45.63019
	8.966925	45.63025
	8.966889	45.63036
	8.966836	45.63044
	8.966763	45.63047
	8.966245	45.63041
	8.966062	45.6303
	8.965915	45.63025
	8.965646	45.63021
	8.965127	45.63
	8.9632	45.62894
	8.961829	45.62825
	8.96029	45.62745
	8.958684	45.62666
	8.958176	45.62716
	8.957342	45.62661
	8.95715	45.62645
	8.956969	45.62632
	8.956657	45.62615
	8.956367	45.62601
	8.955664	45.62553
	8.955436	45.62542
	8.954837	45.62618
	8.954246	45.62598
	8.954036	45.62592
	8.95379	45.62639
	8.953481	45.62708
	8.953399	45.62763
	8.953349	45.62762
	8.95307	45.62815
	8.953007	45.62823
	8.952962	45.62833
	8.952999	45.62834
	8.952846	45.6287
	8.952777	45.62882
	8.952602	45.62902
	8.952857	45.62917
	8.952926	45.62919
	8.953098	45.6293
	8.953077	45.62935
	8.953571	45.62964
	8.95309	45.63043
	8.954224	45.63093
	8.955184	45.63133
	8.956262	45.63176
	8.956331	45.63183
	8.956354	45.6319
	8.958622	45.63277
	8.959191	45.63294
	8.959412	45.63296
	8.958758	45.63381
	8.95709	45.63318
	8.956655	45.63391
	8.956022	45.63349
	8.955925	45.63364
	8.955014	45.63352
	8.952852	45.63352
	8.952281	45.63401
	8.953141	45.63466
	8.951483	45.63598
	8.951828	45.63666
	8.949212	45.63863
	8.948291	45.63899
	8.948749	45.63961
	8.947301	45.64128
	8.945394	45.64038
	8.944306	45.64141
	8.942343	45.64045
	8.939683	45.6436
	8.936191	45.64148
	8.935928	45.64156
	8.936703	45.63991
	8.933159	45.63842
	8.932971	45.63828
	8.933576	45.63747
	8.932075	45.63681
	8.930702	45.63618
	8.930348	45.63603
	8.929203	45.63548
	8.929242	45.63545
	8.929579	45.63505
	8.929678	45.6349
	8.929762	45.63456
	8.929765	45.63441
	8.929825	45.63424
	8.929881	45.63399
	8.929976	45.63368
	8.930038	45.63336
	8.930084	45.63299
	8.930319	45.63169
	8.930458	45.63075
	8.93059	45.6294
	8.930783	45.62852
	8.931593	45.62866
	8.932332	45.62691
	8.932609	45.62641
	8.932788	45.62627
	8.933197	45.62643
	8.933949	45.62516
	8.934911	45.62549
	8.935199	45.62512
	8.933912	45.62457
	8.93247	45.62393
	8.929544	45.62285
	8.928435	45.62045
	8.927827	45.62021
	8.927074	45.61985
	8.927001	45.61983
	8.926892	45.61982
	8.925893	45.61956
	8.925904	45.61952
	8.925901	45.61915
	8.925654	45.61896
	8.926084	45.6186
	8.924921	45.61784
	8.924319	45.61725
	8.923093	45.61584
	8.924218	45.61529
	8.923517	45.61444
	8.923507	45.6144
	8.923473	45.61438
	8.923426	45.61431
	8.923383	45.61432
	8.923334	45.61435
	8.92343	45.61444
	8.923365	45.61448
	8.923351	45.61452
	8.923101	45.61484
	8.922858	45.61479
	8.922986	45.61445
	8.922997	45.61437
	8.922966	45.61421
	8.922888	45.61405
	8.922887	45.61395
	8.923016	45.61387
	8.923287	45.61383
	8.923561	45.61381
	8.923661	45.61375
	8.923661	45.61371
	8.923447	45.61344
	8.923141	45.61315
	8.922765	45.6127
	8.922632	45.61244
	8.922171	45.61188
	8.922024	45.61187
	8.921995	45.61188
	8.920489	45.6126
	8.920448	45.61256
	8.920331	45.6123
	8.919254	45.61116
	8.918549	45.6114
	8.918159	45.6108
	8.917953	45.61058
	8.91776	45.6104
	8.917438	45.61013
	8.917283	45.61002
	8.917466	45.60838
	8.916392	45.60826
	8.915355	45.60713
	8.914535	45.60749
	8.914133	45.60715
	8.913402	45.6075
	8.913229	45.60735
	8.912775	45.60752
	8.911416	45.60641
	8.911314	45.6063
	8.911003	45.60603
	8.910946	45.60604
	8.910835	45.60603
	8.910682	45.60604
	8.910462	45.60595
	8.910164	45.60569
	8.909601	45.6051
	8.909535	45.60501
	8.908435	45.60578
	8.906182	45.60705
	8.905973	45.60709
	8.906479	45.60823
	8.903893	45.60938
	8.903052	45.60905
	8.902731	45.6089
	8.902691	45.60887
	8.902134	45.60864
	8.900673	45.60798
	8.900569	45.60795
	8.899198	45.60547
	8.899386	45.60537
	8.899001	45.60519
	8.898885	45.60516
	8.897071	45.60449
	8.897071	45.60436
	8.896577	45.60421
	8.896705	45.60377
	8.896603	45.60292
	8.896586	45.60287
	8.896204	45.60221
	8.896164	45.60217
	8.89563	45.60174
	8.895559	45.6017
	8.895026	45.60149
	8.894948	45.60147
	8.894391	45.60143
	8.893774	45.60153
	8.893206	45.60181
	8.893146	45.60185
	8.892872	45.60212
	8.892279	45.60068
	8.891602	45.6004
	8.891321	45.6003
	8.890562	45.60011
	8.89023	45.60006
	8.889379	45.59999
	8.888886	45.59999
	8.88835	45.60005
	8.887558	45.6002
	8.886989	45.60036
	8.886749	45.60044
	8.886225	45.60067
	8.886038	45.60062
	8.885882	45.6006
	8.885139	45.60043
	8.884758	45.60032
	8.884311	45.60021
	8.883753	45.6
	8.88352	45.59993
	8.883355	45.59986
	8.883108	45.59978
	8.88249	45.59954
	8.881591	45.59924
	8.881146	45.59907
	8.880936	45.59897
	8.878652	45.59759
	8.878256	45.5977
	8.878104	45.59764
	8.877704	45.59795
	8.877152	45.59774
	8.876569	45.59907
	8.874044	45.59838
	8.872262	45.59769
	8.872028	45.59762
	8.872078	45.5975
	8.872194	45.5973
	8.872296	45.59699
	8.872378	45.5968
	8.872531	45.5965
	8.872618	45.59637
	8.872819	45.59596
	8.873089	45.59561
	8.87351	45.59512
	8.873904	45.59454
	8.873555	45.5944
	8.872994	45.5942
	8.872431	45.59403
	8.871678	45.59372
	8.871492	45.59363
	8.870967	45.59342
	8.870799	45.59333
	8.870636	45.59327
	8.870275	45.5931
	8.869964	45.59293
	8.869288	45.5925
	8.869174	45.59245
	8.868982	45.59239
	8.868604	45.59231
	8.86808	45.59215
	8.868042	45.59213
	8.867778	45.59207
	8.86859	45.59092
	8.868264	45.59081
	8.869923	45.58876
	8.872273	45.58574
	8.872747	45.58522
	8.872463	45.58509
	8.872019	45.58484
	8.87194	45.58475
	8.871915	45.58469
	8.871934	45.5846
	8.872027	45.58446
	8.873301	45.58305
	8.873865	45.58229
	8.873965	45.58218
	8.873984	45.58215
	8.87397	45.58211
	8.873904	45.58203
	8.874584	45.58055
	8.874122	45.58036
	8.872472	45.58076
	8.871809	45.58166
	8.869011	45.58207
	8.868599	45.57927
	8.869523	45.57803
	8.869689	45.57785
	8.868607	45.5774
	8.867395	45.57676
	8.866882	45.57655
	8.866178	45.57631
	8.865612	45.57607
	8.865799	45.57557
	8.864498	45.57501
	8.862461	45.57407
	8.86227	45.57431
	8.861915	45.57485
	8.861599	45.57545
	8.861396	45.57579
	8.861224	45.57603
	8.861102	45.57616
	8.859894	45.57568
	8.860572	45.57475
	8.858176	45.57395
	8.857399	45.57509
	8.856993	45.57488
	8.85659	45.57478
	8.85618	45.57471
	8.856124	45.575
	8.856077	45.57516
	8.855992	45.57536
	8.855251	45.57519
	8.85484	45.57563
	8.854146	45.57545
	8.854696	45.57467
	8.853771	45.57444
	8.853309	45.57521
	8.852322	45.57482
	8.851558	45.57463
	8.85205	45.5738
	8.852455	45.57392
	8.853276	45.57266
	8.852326	45.57242
	8.852013	45.57271
	8.851467	45.57254
	8.851728	45.57217
	8.851075	45.57199
	8.851498	45.57123
	8.848479	45.57016
	8.848077	45.57078
	8.847636	45.57062
	8.846888	45.57044
	8.846521	45.57038
	8.846182	45.57035
	8.845956	45.57035
	8.845432	45.57032
	8.84512	45.57032
	8.844809	45.5703
	8.844527	45.57033
	8.844307	45.57039
	8.843478	45.57072
	8.843163	45.57082
	8.842842	45.57086
	8.841719	45.57093
	8.841172	45.57065
	8.840943	45.57052
	8.840529	45.57032
	8.839712	45.57004
	8.839505	45.56994
	8.838937	45.56952
	8.838219	45.56902
	8.838029	45.56886
	8.837791	45.56863
	8.837466	45.5684
	8.837188	45.56826
	8.837081	45.56823
	8.836737	45.56815
	8.836605	45.56813
	8.836517	45.56814
	8.836384	45.57056
	8.836098	45.5724
	8.835661	45.57452
	8.835331	45.57522
	8.834943	45.57701
	8.834841	45.57827
	8.834744	45.57983
	8.834473	45.58085
	8.834398	45.58133
	8.834169	45.58195
	8.833978	45.58259
	8.83392	45.5829
	8.833849	45.58313
	8.833526	45.58312
	8.833202	45.58307
	8.833061	45.58303
	8.832373	45.5829
	8.831812	45.58282
	8.831423	45.58275
	8.830492	45.58267
	8.830202	45.58263
	8.82993	45.58262
	8.829731	45.5826
	8.829057	45.58249
	8.828662	45.58244
	8.828212	45.58234
	8.827495	45.5821
	8.827198	45.58202
	8.827026	45.58196
	8.826923	45.58194
	8.826677	45.58186
	8.826212	45.58174
	8.825476	45.5816
	8.825389	45.58157
	8.825142	45.58152
	8.823978	45.58136
	8.823639	45.5813
	8.82278	45.58122
	8.821378	45.58096
	8.820756	45.58086
	8.820208	45.58284
	8.820214	45.58318
	8.820241	45.58321
	8.820369	45.58327
	8.820586	45.58333
	8.820607	45.58337
	8.820559	45.58358
	8.820419	45.58399
	8.82035	45.58426
	8.8203	45.58463
	8.820299	45.58496
	8.820268	45.58508
	8.820147	45.58508
	8.819972	45.58505
	8.819221	45.58506
	8.819083	45.58504
	8.817817	45.58494
	8.81774	45.585
	8.817633	45.58518
	8.817371	45.58574
	8.817025	45.58671
	8.816282	45.58667
	8.816007	45.58664
	8.815479	45.58661
	8.8152	45.58658
	8.814715	45.58656
	8.814626	45.58634
	8.813837	45.58639
	8.813741	45.58641
	8.813662	45.58645
	8.813436	45.58729
	8.813409	45.58757
	8.81346	45.5876
	8.813577	45.58762
	8.814854	45.58763
	8.815002	45.58877
	8.815153	45.58978
	8.813028	45.58915
	8.812982	45.58915
	8.812846	45.58912
	8.81205	45.58914
	8.812561	45.59081
	8.811531	45.59087
	8.811773	45.59169
	8.811773	45.59175
	8.811683	45.59205
	8.811492	45.59245
	8.811152	45.59328
	8.811065	45.59359
	8.811006	45.59391
	8.810994	45.59406
	8.811002	45.59425
	8.811079	45.59473
	8.811083	45.59526
	8.811118	45.59553
	8.81114	45.59561
	8.81329	45.59565
	8.813233	45.59619
	8.81553	45.59612
	8.815678	45.59767
	8.812808	45.59804
	8.812981	45.59875
	8.813338	45.59872
	8.813444	45.59902
	8.812267	45.59927
	8.811954	45.59886
	8.811581	45.59894
	8.811106	45.59902
	8.810821	45.59905
	8.81035	45.59908
	8.809724	45.59909
	8.809501	45.59907
	8.809265	45.59907
	8.809104	45.59905
	8.808567	45.59902
	8.80845	45.599
	8.808465	45.59833
	8.807985	45.59862
	8.807858	45.59873
	8.807722	45.59881
	8.8075	45.59901
	8.807466	45.59906
	8.8075	45.59933
	8.807291	45.59981
	8.807221	45.60001
	8.80458	45.60091
	8.804473	45.60112
	8.804158	45.60193
	8.80326	45.60192
	8.803023	45.60191
	8.80246	45.60186
	8.802154	45.60186
	8.802098	45.60185
	8.801637	45.60185
	8.801245	45.60188
	8.801043	45.60188
	8.800739	45.6019
	8.800529	45.60193
	8.800184	45.602
	8.799765	45.60204
	8.799263	45.60211
	8.798983	45.60217
	8.798973	45.60218
	8.798765	45.6022
	8.798357	45.60227
	8.798141	45.60232
	8.797424	45.60244
	8.797198	45.60249
	8.795852	45.60267
	8.79545	45.60272
	8.79528	45.60273
	8.795362	45.60133
	8.79542	45.59975
	8.794201	45.60012
	8.790101	45.60144
	8.786068	45.60269
	8.786784	45.6005
	8.786808	45.60041
	8.786813	45.60027
	8.786504	45.59896
	8.786262	45.599
	8.786016	45.59822
	8.785849	45.59737
	8.783527	45.59062
	8.783838	45.59058
	8.782636	45.5886
	8.782878	45.58853
	8.782801	45.5878
	8.782625	45.58723
	8.782319	45.58659
	8.777935	45.58702
	8.776606	45.58542
	8.774001	45.58518
	8.77325	45.58508
	8.772543	45.58491
	8.771947	45.5847
	8.771553	45.58451
	8.771216	45.5843
	8.770842	45.58403
	8.770563	45.58376
	8.770337	45.58346
	8.770217	45.58323
	8.770162	45.58305
	8.770108	45.58277
	8.770027	45.58175
	8.769957	45.58111
	8.769827	45.58043
	8.769763	45.58018
	8.769498	45.57939
	8.768189	45.57629
	8.768066	45.57568
	8.765711	45.57411
	8.764552	45.57585
	8.764162	45.57577
	8.763868	45.57565
	8.76277	45.57534
	8.762623	45.57517
	8.761821	45.57501
	8.760345	45.5748
	8.760047	45.57477
	8.75998	45.57478
	8.759676	45.57474
	8.75923	45.57471
	8.759018	45.57469
	8.759003	45.57468
	8.757843	45.57461
	8.757591	45.57456
	8.757445	45.57449
	8.757385	45.57436
	8.757307	45.57429
	8.757234	45.57414
	8.75721	45.57398
	8.757188	45.57393
	8.757126	45.57391
	8.756933	45.57392
	8.756751	45.57391
	8.756634	45.57386
	8.756593	45.57375
	8.756584	45.57347
	8.754709	45.57341
	8.754699	45.57328
	8.754625	45.57288
	8.754548	45.57262
	8.754285	45.57206
	8.75413	45.57183
	8.753621	45.57131
	8.75338	45.57114
	8.752882	45.57089
	8.75233	45.57071
	8.747993	45.56955
	8.74748	45.56946
	8.747194	45.56943
	8.746686	45.56941
	8.745073	45.5695
	8.750927	45.56523
	8.74963	45.56444
	8.749188	45.5644
	8.749068	45.56438
	8.749	45.56435
	8.74685	45.56544
	8.746065	45.56518
	8.744446	45.56459
	8.743807	45.56433
	8.742757	45.56393
	8.741859	45.56361
	8.741778	45.56406
	8.740376	45.56392
	8.740187	45.56299
	8.7392	45.56262
	8.73887	45.56248
	8.738663	45.56237
	8.738473	45.56226
	8.737858	45.56165
	8.737564	45.56094
	8.73737	45.55997
	8.729915	45.56103
	8.729816	45.5611
	8.726299	45.564
	8.723932	45.56676
	8.723267	45.56853
	8.722532	45.57379
	8.72223	45.57351
	8.721965	45.57335
	8.720676	45.57317
	8.72135	45.57063
	8.721406	45.57033
	8.721499	45.56947
	8.7215	45.56904
	8.721365	45.56776
	8.721452	45.56742
	8.721413	45.56629
	8.721404	45.56626
	8.720758	45.56533
	8.720678	45.56527
	8.719775	45.56486
	8.71948	45.56481
	8.718471	45.56551
	8.717499	45.56476
	8.717107	45.56438
	8.716907	45.56396
	8.716866	45.56336
	8.716814	45.56337
	8.716762	45.56362
	8.716553	45.56344
	8.716179	45.56338
	8.716227	45.56312
	8.715825	45.5631
	8.715166	45.56311
	8.714669	45.56326
	8.71462	45.56325
	8.714482	45.56314
	8.714472	45.56269
	8.714291	45.56218
	8.713275	45.56215
	8.712022	45.56192
	8.710005	45.56123
	8.708824	45.5609
	8.707944	45.56059
	8.706879	45.55831
	8.706963	45.55937
	8.706471	45.56282
	8.706132	45.56393
	8.706023	45.56516
	8.705951	45.56666
	8.705816	45.56789
	8.705528	45.56915
	8.704857	45.56994
	8.703367	45.57062
	8.702405	45.57091
	8.701964	45.57093
	8.701506	45.57118
	8.701223	45.5714
	8.698896	45.57275
	8.697738	45.57359
	8.696567	45.57438
	8.695474	45.57516
	8.694418	45.576
	8.693851	45.57667
	8.693502	45.57716
	8.693345	45.57778
	8.69339	45.57884
	8.693834	45.57979
	8.694291	45.58051
	8.69489	45.58126
	8.695412	45.58183
	8.69562	45.58203
	8.696037	45.58242
	8.697402	45.5836
	8.698138	45.58406
	8.698552	45.58444
	8.698986	45.58473
	8.699471	45.58501
	8.7002	45.58539
	8.700865	45.58569
	8.701963	45.58622
	8.702258	45.58639
	8.702975	45.58674
	8.703588	45.58714
	8.703786	45.58732
	8.704136	45.58768
	8.704441	45.58831
	8.704667	45.58921
	8.704811	45.59104
	8.704893	45.59256
	8.704756	45.59425
	8.704324	45.5959
	8.703804	45.59719
	8.703488	45.59876
	8.703148	45.60006
	8.702593	45.60083
	8.701965	45.60176
	8.700864	45.60282
	8.700412	45.60345
	8.700101	45.60404
	8.699829	45.60449
	8.698776	45.6033
	8.699082	45.6027
	8.699135	45.60234
	8.699267	45.60171
	8.695326	45.60247
	8.693636	45.60312
	8.692859	45.60345
	8.692254	45.60379
	8.691855	45.6041
	8.691468	45.60455
	8.691093	45.60502
	8.690719	45.60543
	8.690229	45.60591
	8.689571	45.6066
	8.688991	45.60726
	8.688731	45.6078
	8.68878	45.60823
	8.692111	45.60893
	8.692943	45.60921
	8.69348	45.60944
	8.693864	45.60965
	8.691135	45.61153
	8.689796	45.61238
	8.688187	45.6135
	8.687335	45.61448
	8.686608	45.61599
	8.685624	45.61762
	8.684683	45.61858
	8.683665	45.61936
	8.682133	45.62034
	8.680359	45.62101
	8.677958	45.6215
	8.675802	45.62152
	8.673393	45.62115
	8.669923	45.62095
	8.668431	45.62084
	8.666212	45.62075
	8.664235	45.62111
	8.663088	45.62203
	8.66271	45.62306
	8.662695	45.62337
	8.662908	45.62424
	8.663632	45.62546
	8.66474	45.62672
	8.665529	45.62782
	8.665944	45.62925
	8.665937	45.63032
	8.665199	45.63155
	8.663896	45.63265
	8.662581	45.63373
	8.661228	45.63481
	8.660272	45.63581
	8.65932	45.63686
	8.658939	45.63775
	8.65906	45.63891
	8.659398	45.64034
	8.660364	45.64186
	8.661733	45.6426
	8.663669	45.64284
	8.665658	45.64288
	8.667121	45.64282
	8.668868	45.64241
	8.670875	45.64149
	8.67223	45.64024
	8.672648	45.63907
	8.672962	45.63789
	8.673508	45.63676
	8.674515	45.63563
	8.675675	45.63477
	8.677026	45.63413
	8.678645	45.63363
	8.680301	45.63345
	8.682494	45.63359
	8.684083	45.63399
	8.685056	45.63433
	8.685427	45.63451
	8.686322	45.6351
	8.687101	45.63581
	8.688185	45.63699
	8.688614	45.63821
	8.688554	45.63987
	8.688018	45.64167
	8.6868	45.64376
	8.685997	45.6451
	8.684665	45.64688
	8.683411	45.6485
	8.682029	45.65001
	8.680933	45.65099
	8.676989	45.65391
	8.675737	45.65506
	8.673537	45.65693
	8.672396	45.65797
	8.67135	45.65915
	8.670445	45.66024
	8.669835	45.66142
	8.669787	45.66286
	8.670203	45.66423
	8.67112	45.66547
	8.672373	45.66632
	8.675141	45.66697
	8.680422	45.66802
	8.681057	45.66852
	8.681691	45.66911
	8.681976	45.66945
	8.682163	45.66979
	8.682505	45.67027
	8.6827	45.67082
	8.68242	45.67124
	8.681432	45.67172
	8.681049	45.67193
	8.680632	45.67232
	8.680728	45.67283
	8.681171	45.6742
	8.681382	45.67475
	8.681493	45.67509
	8.681441	45.6755
	8.681292	45.67592
	8.681174	45.67619
	8.681201	45.6764
	8.681009	45.67664
	8.680734	45.67684
	8.680189	45.67694
	8.679726	45.67705
	8.679297	45.67725
	8.678785	45.67742
	8.678159	45.67751
	8.677637	45.67754
	8.677115	45.67754
	8.675714	45.67762
	8.675103	45.67764
	8.674376	45.67753
	8.673778	45.67736
	8.67322	45.67709
	8.671881	45.67638
	8.670905	45.67593
	8.67025	45.6757
	8.669571	45.67556
	8.668662	45.67527
	8.668123	45.67512
	8.667451	45.67495
	8.666871	45.67486
	8.665344	45.6747
	8.664668	45.67464
	8.664194	45.67458
	8.66368	45.67455
	8.663004	45.6746
	8.661463	45.67468
	8.659744	45.67475
	8.659059	45.67469
	8.658242	45.67456
	8.657433	45.67445
	8.656455	45.67448
	8.654914	45.67449
	8.654034	45.67451
	8.652616	45.67457
	8.650955	45.67472
	8.650173	45.67478
	8.648635	45.67499
	8.647975	45.67501
	8.647462	45.67505
	8.646795	45.67517
	8.645851	45.67531
	8.645346	45.67537
	8.644295	45.6754
	8.643424	45.67548
	8.64275	45.6757
	8.642083	45.67583
	8.641792	45.67602
	8.641307	45.67631
	8.640902	45.67653
	8.640799	45.67681
	8.640804	45.67718
	8.64076	45.67756
	8.640757	45.67797
	8.640836	45.67837
	8.640776	45.67877
	8.64062	45.67935
	8.640415	45.67991
	8.640356	45.68097
	8.640411	45.68142
	8.64036	45.68189
	8.640417	45.68255
	8.640347	45.6834
	8.640377	45.68384
	8.640366	45.68424
	8.640514	45.6852
	8.640879	45.6863
	8.641183	45.68702
	8.642511	45.68821
	8.643239	45.68881
	8.643799	45.68944
	8.644386	45.69017
	8.646142	45.69268
	8.646866	45.69388
	8.647448	45.6953
	8.647891	45.69643
	8.648271	45.69718
	8.648485	45.69793
	8.649029	45.69926
	8.649769	45.70214
	8.650428	45.70353
	8.651257	45.70452
	8.652215	45.70534
	8.653365	45.7064
	8.654358	45.70788
	8.654633	45.70903
	8.65469	45.71021
	8.654672	45.71109
	8.654022	45.71247
	8.653864	45.71295
	8.653434	45.71397
	8.651852	45.71592
	8.650717	45.71713
	8.648775	45.71956
	8.647845	45.72041
	8.646877	45.72113
	8.645961	45.72176
	8.644285	45.72261
	8.642868	45.72316
	8.641312	45.72347
	8.640065	45.7235
	8.639077	45.72329
	8.637896	45.72313
	8.636522	45.72305
	8.635341	45.72295
	8.633236	45.72263
	8.631349	45.72228
	8.629372	45.72208
	8.628176	45.72222
	8.627157	45.72242
	8.626413	45.72266
	8.624958	45.72326
	8.623038	45.72402
	8.620901	45.72465
	8.619678	45.72493
	8.617608	45.72522
	8.61519	45.7255
	8.613081	45.72572
	8.611038	45.72574
	8.609034	45.72571
	8.604715	45.72601
	8.602143	45.72631
	8.600135	45.72692
	8.597801	45.72805
	8.595983	45.72889
	8.594551	45.72977
	8.593025	45.73099
	8.59186	45.73227
	8.591029	45.73346
	8.590378	45.73463
	8.589778	45.73582
	8.589242	45.73711
	8.588693	45.73828
	8.588195	45.73969
	8.587528	45.74121
	8.586669	45.74273
	8.586006	45.74372
	8.585381	45.74484
	8.584458	45.74628
	8.583703	45.74753
	8.582911	45.74867
	8.582426	45.74917
	8.578088	45.75314
	8.576411	45.75496
	8.57606	45.75546
	8.575321	45.75629
	8.574324	45.75725
	8.573158	45.75842
	8.57229	45.75932
	8.571241	45.76032
	8.570283	45.76116
	8.569155	45.76241
	8.567975	45.76363
	8.566642	45.76486
	8.565138	45.76639
	8.563611	45.76776
	8.56211	45.76885
	8.56039	45.77021
	8.558706	45.7717
	8.557321	45.77286
	8.556321	45.77411
	8.555256	45.77554
	8.554641	45.77684
	8.554483	45.77721
	8.553999	45.77841
	8.553289	45.78031
	8.552931	45.78171
	8.552553	45.78394
	8.552518	45.78675
	8.552275	45.7881
	8.552402	45.78991
	8.552661	45.79127
	8.553024	45.79266
	8.553784	45.79576
	8.554174	45.79691
	8.555035	45.79861
	8.555564	45.80004
	8.558277	45.80356
	8.563511	45.80724
	8.567141	45.80867
	8.574306	45.81079
	8.578096	45.8118
	8.580083	45.81287
	8.581647	45.81366
	8.587941	45.81893
	8.592033	45.82444
	8.593801	45.82825
END
END
