Italy_Lombardy_Milan
1
	8.706879	45.55831
	8.707944	45.56059
	8.708824	45.5609
	8.710005	45.56123
	8.712022	45.56192
	8.713275	45.56215
	8.714291	45.56218
	8.714472	45.56269
	8.714482	45.56314
	8.71462	45.56325
	8.714669	45.56326
	8.715166	45.56311
	8.715825	45.5631
	8.716227	45.56312
	8.716179	45.56338
	8.716553	45.56344
	8.716762	45.56362
	8.716814	45.56337
	8.716866	45.56336
	8.716907	45.56396
	8.717107	45.56438
	8.717499	45.56476
	8.718471	45.56551
	8.71948	45.56481
	8.719775	45.56486
	8.720678	45.56527
	8.720758	45.56533
	8.721404	45.56626
	8.721413	45.56629
	8.721452	45.56742
	8.721365	45.56776
	8.7215	45.56904
	8.721499	45.56947
	8.721406	45.57033
	8.72135	45.57063
	8.720676	45.57317
	8.721965	45.57335
	8.72223	45.57351
	8.722532	45.57379
	8.723267	45.56853
	8.723932	45.56676
	8.726299	45.564
	8.729816	45.5611
	8.729915	45.56103
	8.73737	45.55997
	8.737564	45.56094
	8.737858	45.56165
	8.738473	45.56226
	8.738663	45.56237
	8.73887	45.56248
	8.7392	45.56262
	8.740187	45.56299
	8.740376	45.56392
	8.741778	45.56406
	8.741859	45.56361
	8.742757	45.56393
	8.743807	45.56433
	8.744446	45.56459
	8.746065	45.56518
	8.74685	45.56544
	8.749	45.56435
	8.749068	45.56438
	8.749188	45.5644
	8.74963	45.56444
	8.750927	45.56523
	8.745073	45.5695
	8.746686	45.56941
	8.747194	45.56943
	8.74748	45.56946
	8.747993	45.56955
	8.75233	45.57071
	8.752882	45.57089
	8.75338	45.57114
	8.753621	45.57131
	8.75413	45.57183
	8.754285	45.57206
	8.754548	45.57262
	8.754625	45.57288
	8.754699	45.57328
	8.754709	45.57341
	8.756584	45.57347
	8.756593	45.57375
	8.756634	45.57386
	8.756751	45.57391
	8.756933	45.57392
	8.757126	45.57391
	8.757188	45.57393
	8.75721	45.57398
	8.757234	45.57414
	8.757307	45.57429
	8.757385	45.57436
	8.757445	45.57449
	8.757591	45.57456
	8.757843	45.57461
	8.759003	45.57468
	8.759018	45.57469
	8.75923	45.57471
	8.759676	45.57474
	8.75998	45.57478
	8.760047	45.57477
	8.760345	45.5748
	8.761821	45.57501
	8.762623	45.57517
	8.76277	45.57534
	8.763868	45.57565
	8.764162	45.57577
	8.764552	45.57585
	8.765711	45.57411
	8.768066	45.57568
	8.768189	45.57629
	8.769498	45.57939
	8.769763	45.58018
	8.769827	45.58043
	8.769957	45.58111
	8.770027	45.58175
	8.770108	45.58277
	8.770162	45.58305
	8.770217	45.58323
	8.770337	45.58346
	8.770563	45.58376
	8.770842	45.58403
	8.771216	45.5843
	8.771553	45.58451
	8.771947	45.5847
	8.772543	45.58491
	8.77325	45.58508
	8.774001	45.58518
	8.776606	45.58542
	8.777935	45.58702
	8.782319	45.58659
	8.782625	45.58723
	8.782801	45.5878
	8.782878	45.58853
	8.782636	45.5886
	8.783838	45.59058
	8.783527	45.59062
	8.785849	45.59737
	8.786016	45.59822
	8.786262	45.599
	8.786504	45.59896
	8.786813	45.60027
	8.786808	45.60041
	8.786784	45.6005
	8.786068	45.60269
	8.790101	45.60144
	8.794201	45.60012
	8.79542	45.59975
	8.795362	45.60133
	8.79528	45.60273
	8.79545	45.60272
	8.795852	45.60267
	8.797198	45.60249
	8.797424	45.60244
	8.798141	45.60232
	8.798357	45.60227
	8.798765	45.6022
	8.798973	45.60218
	8.798983	45.60217
	8.799263	45.60211
	8.799765	45.60204
	8.800184	45.602
	8.800529	45.60193
	8.800739	45.6019
	8.801043	45.60188
	8.801245	45.60188
	8.801637	45.60185
	8.802098	45.60185
	8.802154	45.60186
	8.80246	45.60186
	8.803023	45.60191
	8.80326	45.60192
	8.804158	45.60193
	8.804473	45.60112
	8.80458	45.60091
	8.807221	45.60001
	8.807291	45.59981
	8.8075	45.59933
	8.807466	45.59906
	8.8075	45.59901
	8.807722	45.59881
	8.807858	45.59873
	8.807985	45.59862
	8.808465	45.59833
	8.80845	45.599
	8.808567	45.59902
	8.809104	45.59905
	8.809265	45.59907
	8.809501	45.59907
	8.809724	45.59909
	8.81035	45.59908
	8.810821	45.59905
	8.811106	45.59902
	8.811581	45.59894
	8.811954	45.59886
	8.812267	45.59927
	8.813444	45.59902
	8.813338	45.59872
	8.812981	45.59875
	8.812808	45.59804
	8.815678	45.59767
	8.81553	45.59612
	8.813233	45.59619
	8.81329	45.59565
	8.81114	45.59561
	8.811118	45.59553
	8.811083	45.59526
	8.811079	45.59473
	8.811002	45.59425
	8.810994	45.59406
	8.811006	45.59391
	8.811065	45.59359
	8.811152	45.59328
	8.811492	45.59245
	8.811683	45.59205
	8.811773	45.59175
	8.811773	45.59169
	8.811531	45.59087
	8.812561	45.59081
	8.81205	45.58914
	8.812846	45.58912
	8.812982	45.58915
	8.813028	45.58915
	8.815153	45.58978
	8.815002	45.58877
	8.814854	45.58763
	8.813577	45.58762
	8.81346	45.5876
	8.813409	45.58757
	8.813436	45.58729
	8.813662	45.58645
	8.813741	45.58641
	8.813837	45.58639
	8.814626	45.58634
	8.814715	45.58656
	8.8152	45.58658
	8.815479	45.58661
	8.816007	45.58664
	8.816282	45.58667
	8.817025	45.58671
	8.817371	45.58574
	8.817633	45.58518
	8.81774	45.585
	8.817817	45.58494
	8.819083	45.58504
	8.819221	45.58506
	8.819972	45.58505
	8.820147	45.58508
	8.820268	45.58508
	8.820299	45.58496
	8.8203	45.58463
	8.82035	45.58426
	8.820419	45.58399
	8.820559	45.58358
	8.820607	45.58337
	8.820586	45.58333
	8.820369	45.58327
	8.820241	45.58321
	8.820214	45.58318
	8.820208	45.58284
	8.820756	45.58086
	8.821378	45.58096
	8.82278	45.58122
	8.823639	45.5813
	8.823978	45.58136
	8.825142	45.58152
	8.825389	45.58157
	8.825476	45.5816
	8.826212	45.58174
	8.826677	45.58186
	8.826923	45.58194
	8.827026	45.58196
	8.827198	45.58202
	8.827495	45.5821
	8.828212	45.58234
	8.828662	45.58244
	8.829057	45.58249
	8.829731	45.5826
	8.82993	45.58262
	8.830202	45.58263
	8.830492	45.58267
	8.831423	45.58275
	8.831812	45.58282
	8.832373	45.5829
	8.833061	45.58303
	8.833202	45.58307
	8.833526	45.58312
	8.833849	45.58313
	8.83392	45.5829
	8.833978	45.58259
	8.834169	45.58195
	8.834398	45.58133
	8.834473	45.58085
	8.834744	45.57983
	8.834841	45.57827
	8.834943	45.57701
	8.835331	45.57522
	8.835661	45.57452
	8.836098	45.5724
	8.836384	45.57056
	8.836517	45.56814
	8.836605	45.56813
	8.836737	45.56815
	8.837081	45.56823
	8.837188	45.56826
	8.837466	45.5684
	8.837791	45.56863
	8.838029	45.56886
	8.838219	45.56902
	8.838937	45.56952
	8.839505	45.56994
	8.839712	45.57004
	8.840529	45.57032
	8.840943	45.57052
	8.841172	45.57065
	8.841719	45.57093
	8.842842	45.57086
	8.843163	45.57082
	8.843478	45.57072
	8.844307	45.57039
	8.844527	45.57033
	8.844809	45.5703
	8.84512	45.57032
	8.845432	45.57032
	8.845956	45.57035
	8.846182	45.57035
	8.846521	45.57038
	8.846888	45.57044
	8.847636	45.57062
	8.848077	45.57078
	8.848479	45.57016
	8.851498	45.57123
	8.851075	45.57199
	8.851728	45.57217
	8.851467	45.57254
	8.852013	45.57271
	8.852326	45.57242
	8.853276	45.57266
	8.852455	45.57392
	8.85205	45.5738
	8.851558	45.57463
	8.852322	45.57482
	8.853309	45.57521
	8.853771	45.57444
	8.854696	45.57467
	8.854146	45.57545
	8.85484	45.57563
	8.855251	45.57519
	8.855992	45.57536
	8.856077	45.57516
	8.856124	45.575
	8.85618	45.57471
	8.85659	45.57478
	8.856993	45.57488
	8.857399	45.57509
	8.858176	45.57395
	8.860572	45.57475
	8.859894	45.57568
	8.861102	45.57616
	8.861224	45.57603
	8.861396	45.57579
	8.861599	45.57545
	8.861915	45.57485
	8.86227	45.57431
	8.862461	45.57407
	8.864498	45.57501
	8.865799	45.57557
	8.865612	45.57607
	8.866178	45.57631
	8.866882	45.57655
	8.867395	45.57676
	8.868607	45.5774
	8.869689	45.57785
	8.869523	45.57803
	8.868599	45.57927
	8.869011	45.58207
	8.871809	45.58166
	8.872472	45.58076
	8.874122	45.58036
	8.874584	45.58055
	8.873904	45.58203
	8.87397	45.58211
	8.873984	45.58215
	8.873965	45.58218
	8.873865	45.58229
	8.873301	45.58305
	8.872027	45.58446
	8.871934	45.5846
	8.871915	45.58469
	8.87194	45.58475
	8.872019	45.58484
	8.872463	45.58509
	8.872747	45.58522
	8.872273	45.58574
	8.869923	45.58876
	8.868264	45.59081
	8.86859	45.59092
	8.867778	45.59207
	8.868042	45.59213
	8.86808	45.59215
	8.868604	45.59231
	8.868982	45.59239
	8.869174	45.59245
	8.869288	45.5925
	8.869964	45.59293
	8.870275	45.5931
	8.870636	45.59327
	8.870799	45.59333
	8.870967	45.59342
	8.871492	45.59363
	8.871678	45.59372
	8.872431	45.59403
	8.872994	45.5942
	8.873555	45.5944
	8.873904	45.59454
	8.87351	45.59512
	8.873089	45.59561
	8.872819	45.59596
	8.872618	45.59637
	8.872531	45.5965
	8.872378	45.5968
	8.872296	45.59699
	8.872194	45.5973
	8.872078	45.5975
	8.872028	45.59762
	8.872262	45.59769
	8.874044	45.59838
	8.876569	45.59907
	8.877152	45.59774
	8.877704	45.59795
	8.878104	45.59764
	8.878256	45.5977
	8.878652	45.59759
	8.880936	45.59897
	8.881146	45.59907
	8.881591	45.59924
	8.88249	45.59954
	8.883108	45.59978
	8.883355	45.59986
	8.88352	45.59993
	8.883753	45.6
	8.884311	45.60021
	8.884758	45.60032
	8.885139	45.60043
	8.885882	45.6006
	8.886038	45.60062
	8.886225	45.60067
	8.886749	45.60044
	8.886989	45.60036
	8.887558	45.6002
	8.88835	45.60005
	8.888886	45.59999
	8.889379	45.59999
	8.89023	45.60006
	8.890562	45.60011
	8.891321	45.6003
	8.891602	45.6004
	8.892279	45.60068
	8.892872	45.60212
	8.893146	45.60185
	8.893206	45.60181
	8.893774	45.60153
	8.894391	45.60143
	8.894948	45.60147
	8.895026	45.60149
	8.895559	45.6017
	8.89563	45.60174
	8.896164	45.60217
	8.896204	45.60221
	8.896586	45.60287
	8.896603	45.60292
	8.896705	45.60377
	8.896577	45.60421
	8.897071	45.60436
	8.897071	45.60449
	8.898885	45.60516
	8.899001	45.60519
	8.899386	45.60537
	8.899198	45.60547
	8.900569	45.60795
	8.900673	45.60798
	8.902134	45.60864
	8.902691	45.60887
	8.902731	45.6089
	8.903052	45.60905
	8.903893	45.60938
	8.906479	45.60823
	8.905973	45.60709
	8.906182	45.60705
	8.908435	45.60578
	8.909535	45.60501
	8.909601	45.6051
	8.910164	45.60569
	8.910462	45.60595
	8.910682	45.60604
	8.910835	45.60603
	8.910946	45.60604
	8.911003	45.60603
	8.911314	45.6063
	8.911416	45.60641
	8.912775	45.60752
	8.913229	45.60735
	8.913402	45.6075
	8.914133	45.60715
	8.914535	45.60749
	8.915355	45.60713
	8.916392	45.60826
	8.917466	45.60838
	8.917283	45.61002
	8.917438	45.61013
	8.91776	45.6104
	8.917953	45.61058
	8.918159	45.6108
	8.918549	45.6114
	8.919254	45.61116
	8.920331	45.6123
	8.920448	45.61256
	8.920489	45.6126
	8.921995	45.61188
	8.922024	45.61187
	8.922171	45.61188
	8.922632	45.61244
	8.922765	45.6127
	8.923141	45.61315
	8.923447	45.61344
	8.923661	45.61371
	8.923661	45.61375
	8.923561	45.61381
	8.923287	45.61383
	8.923016	45.61387
	8.922887	45.61395
	8.922888	45.61405
	8.922966	45.61421
	8.922997	45.61437
	8.922986	45.61445
	8.922858	45.61479
	8.923101	45.61484
	8.923351	45.61452
	8.923365	45.61448
	8.92343	45.61444
	8.923334	45.61435
	8.923383	45.61432
	8.923426	45.61431
	8.923473	45.61438
	8.923507	45.6144
	8.923517	45.61444
	8.924218	45.61529
	8.923093	45.61584
	8.924319	45.61725
	8.924921	45.61784
	8.926084	45.6186
	8.925654	45.61896
	8.925901	45.61915
	8.925904	45.61952
	8.925893	45.61956
	8.926892	45.61982
	8.927001	45.61983
	8.927074	45.61985
	8.927827	45.62021
	8.928435	45.62045
	8.929544	45.62285
	8.93247	45.62393
	8.933912	45.62457
	8.935199	45.62512
	8.934911	45.62549
	8.933949	45.62516
	8.933197	45.62643
	8.932788	45.62627
	8.932609	45.62641
	8.932332	45.62691
	8.931593	45.62866
	8.930783	45.62852
	8.93059	45.6294
	8.930458	45.63075
	8.930319	45.63169
	8.930084	45.63299
	8.930038	45.63336
	8.929976	45.63368
	8.929881	45.63399
	8.929825	45.63424
	8.929765	45.63441
	8.929762	45.63456
	8.929678	45.6349
	8.929579	45.63505
	8.929242	45.63545
	8.929203	45.63548
	8.930348	45.63603
	8.930702	45.63618
	8.932075	45.63681
	8.933576	45.63747
	8.932971	45.63828
	8.933159	45.63842
	8.936703	45.63991
	8.935928	45.64156
	8.936191	45.64148
	8.939683	45.6436
	8.942343	45.64045
	8.944306	45.64141
	8.945394	45.64038
	8.947301	45.64128
	8.948749	45.63961
	8.948291	45.63899
	8.949212	45.63863
	8.951828	45.63666
	8.951483	45.63598
	8.953141	45.63466
	8.952281	45.63401
	8.952852	45.63352
	8.955014	45.63352
	8.955925	45.63364
	8.956022	45.63349
	8.956655	45.63391
	8.95709	45.63318
	8.958758	45.63381
	8.959412	45.63296
	8.959191	45.63294
	8.958622	45.63277
	8.956354	45.6319
	8.956331	45.63183
	8.956262	45.63176
	8.955184	45.63133
	8.954224	45.63093
	8.95309	45.63043
	8.953571	45.62964
	8.953077	45.62935
	8.953098	45.6293
	8.952926	45.62919
	8.952857	45.62917
	8.952602	45.62902
	8.952777	45.62882
	8.952846	45.6287
	8.952999	45.62834
	8.952962	45.62833
	8.953007	45.62823
	8.95307	45.62815
	8.953349	45.62762
	8.953399	45.62763
	8.953481	45.62708
	8.95379	45.62639
	8.954036	45.62592
	8.954246	45.62598
	8.954837	45.62618
	8.955436	45.62542
	8.955664	45.62553
	8.956367	45.62601
	8.956657	45.62615
	8.956969	45.62632
	8.95715	45.62645
	8.957342	45.62661
	8.958176	45.62716
	8.958684	45.62666
	8.96029	45.62745
	8.961829	45.62825
	8.9632	45.62894
	8.965127	45.63
	8.965646	45.63021
	8.965915	45.63025
	8.966062	45.6303
	8.966245	45.63041
	8.966763	45.63047
	8.966836	45.63044
	8.966889	45.63036
	8.966925	45.63025
	8.966922	45.63019
	8.96689	45.63013
	8.966845	45.63011
	8.966776	45.6301
	8.966464	45.63018
	8.966391	45.63022
	8.966191	45.63017
	8.965984	45.63009
	8.965904	45.63004
	8.96589	45.62999
	8.965901	45.62992
	8.965976	45.62983
	8.966085	45.62973
	8.966102	45.62968
	8.966096	45.62963
	8.966	45.62937
	8.965996	45.6293
	8.966016	45.62927
	8.966076	45.62924
	8.966231	45.62927
	8.966487	45.62927
	8.966771	45.62924
	8.967379	45.62915
	8.967602	45.62906
	8.967766	45.62895
	8.968174	45.62863
	8.968214	45.62855
	8.968232	45.62841
	8.9682	45.62835
	8.968116	45.62827
	8.967972	45.62817
	8.967861	45.62811
	8.967535	45.62804
	8.967388	45.62792
	8.967359	45.62786
	8.967348	45.62775
	8.9674	45.62766
	8.967491	45.6276
	8.967632	45.62754
	8.967761	45.62754
	8.968177	45.6275
	8.968231	45.62748
	8.968274	45.62743
	8.968298	45.62734
	8.968253	45.62719
	8.968071	45.62703
	8.967979	45.62693
	8.967936	45.62688
	8.967905	45.62681
	8.967899	45.62673
	8.967934	45.62662
	8.968005	45.62652
	8.968097	45.62645
	8.968265	45.62639
	8.968661	45.62632
	8.968748	45.62628
	8.968803	45.62624
	8.968872	45.62615
	8.968878	45.62607
	8.968833	45.62594
	8.968721	45.6258
	8.968697	45.62572
	8.96872	45.62563
	8.968766	45.62555
	8.968818	45.6255
	8.968909	45.62545
	8.969214	45.62531
	8.969259	45.62522
	8.969399	45.62479
	8.969505	45.62461
	8.969988	45.62393
	8.97021	45.62369
	8.971077	45.62218
	8.972344	45.62019
	8.972647	45.61964
	8.97329	45.61863
	8.97408	45.61727
	8.97458	45.6165
	8.974705	45.61663
	8.975592	45.61583
	8.975779	45.61581
	8.976739	45.61496
	8.977707	45.6156
	8.978634	45.61484
	8.976756	45.61299
	8.974282	45.61365
	8.972886	45.61271
	8.973345	45.61231
	8.96989	45.61023
	8.970108	45.61005
	8.967455	45.60854
	8.969029	45.60682
	8.968441	45.60636
	8.970433	45.60433
	8.970303	45.60414
	8.9698	45.60384
	8.970361	45.60336
	8.970942	45.60282
	8.970991	45.60276
	8.971039	45.60266
	8.971089	45.60246
	8.971089	45.60237
	8.971059	45.60226
	8.970907	45.60191
	8.970545	45.60117
	8.970482	45.601
	8.970223	45.60001
	8.970006	45.59938
	8.969889	45.59912
	8.969693	45.59879
	8.969634	45.59865
	8.969332	45.59777
	8.968698	45.59617
	8.970047	45.59478
	8.971365	45.59347
	8.970081	45.5928
	8.970864	45.59163
	8.970922	45.59149
	8.971004	45.5912
	8.971203	45.59071
	8.97132	45.59052
	8.971594	45.59018
	8.97172	45.59005
	8.972192	45.58964
	8.972395	45.58943
	8.972562	45.58929
	8.972944	45.58911
	8.973109	45.58898
	8.973853	45.58827
	8.972875	45.58779
	8.974143	45.58667
	8.975739	45.58744
	8.977224	45.58813
	8.976657	45.58868
	8.978063	45.58926
	8.978628	45.58867
	8.98376	45.59105
	8.98375	45.59098
	8.983773	45.59094
	8.984231	45.5906
	8.984724	45.59017
	8.984742	45.5901
	8.984834	45.59001
	8.98701	45.588
	8.988174	45.58697
	8.988381	45.58677
	8.988966	45.58627
	8.990048	45.5853
	8.990088	45.58519
	8.990186	45.58502
	8.990267	45.58497
	8.990383	45.58487
	8.990713	45.5845
	8.996662	45.57926
	8.996977	45.57904
	8.999042	45.57721
	8.999657	45.57674
	9.002757	45.5738
	9.004617	45.57468
	9.003016	45.57621
	9.003489	45.5765
	9.004098	45.57625
	9.004694	45.57604
	9.004872	45.57599
	9.005519	45.57584
	9.006135	45.57577
	9.006725	45.57575
	9.007184	45.57577
	9.007381	45.57579
	9.00809	45.57589
	9.008741	45.57601
	9.009329	45.57615
	9.009519	45.57621
	9.009952	45.57636
	9.010293	45.5765
	9.010818	45.57676
	9.011108	45.57695
	9.011482	45.57723
	9.011772	45.57751
	9.01203	45.5778
	9.012237	45.57809
	9.012518	45.57855
	9.012716	45.579
	9.012857	45.57946
	9.013654	45.57986
	9.01464	45.5803
	9.014678	45.58041
	9.013906	45.58139
	9.014442	45.5816
	9.015125	45.58178
	9.015856	45.58202
	9.016869	45.5823
	9.01738	45.58165
	9.017402	45.58164
	9.01776	45.58179
	9.017954	45.58188
	9.018015	45.58192
	9.017849	45.58236
	9.018857	45.58253
	9.019039	45.58257
	9.019589	45.58264
	9.019838	45.58266
	9.020241	45.58266
	9.02025	45.58265
	9.020757	45.5826
	9.021655	45.58268
	9.021603	45.58285
	9.021373	45.58344
	9.021114	45.58468
	9.022981	45.58486
	9.023601	45.58489
	9.024024	45.58488
	9.024175	45.58486
	9.024246	45.58483
	9.024272	45.58483
	9.024551	45.58495
	9.02463	45.58497
	9.024704	45.58497
	9.024189	45.58827
	9.02517	45.58835
	9.026658	45.5885
	9.02669	45.5885
	9.026701	45.58849
	9.026723	45.58843
	9.026812	45.58643
	9.027252	45.58645
	9.027266	45.58634
	9.028467	45.58636
	9.029756	45.58636
	9.029755	45.58665
	9.030938	45.58667
	9.030988	45.58595
	9.033271	45.58599
	9.033383	45.58484
	9.032268	45.58477
	9.03238	45.58388
	9.034022	45.58395
	9.034094	45.58364
	9.034186	45.58341
	9.03451	45.58265
	9.03462	45.58242
	9.034664	45.58236
	9.034775	45.58235
	9.035041	45.58237
	9.035848	45.5824
	9.036597	45.58245
	9.037781	45.58249
	9.037708	45.58369
	9.038211	45.58372
	9.038257	45.58371
	9.038657	45.58375
	9.039707	45.58378
	9.039727	45.5836
	9.040016	45.58362
	9.040085	45.58286
	9.040096	45.58286
	9.040163	45.58226
	9.039697	45.58224
	9.039661	45.58223
	9.039799	45.58084
	9.042389	45.58098
	9.04243	45.58062
	9.043728	45.58071
	9.044803	45.58074
	9.044828	45.58075
	9.045087	45.58075
	9.045147	45.58076
	9.04515	45.58075
	9.045264	45.58076
	9.045263	45.58077
	9.045522	45.58077
	9.045582	45.58078
	9.045663	45.58077
	9.0457	45.58036
	9.045697	45.58001
	9.045729	45.57976
	9.045761	45.57923
	9.045773	45.57914
	9.045881	45.57879
	9.045897	45.57862
	9.045888	45.57842
	9.045935	45.57795
	9.045971	45.57781
	9.046071	45.57762
	9.046115	45.57749
	9.046144	45.57744
	9.046202	45.5774
	9.046242	45.57735
	9.046271	45.57705
	9.049594	45.57733
	9.051068	45.5775
	9.050904	45.57858
	9.050669	45.57857
	9.04856	45.58045
	9.050444	45.58256
	9.050589	45.58257
	9.050743	45.58261
	9.05116	45.58268
	9.053024	45.58282
	9.05304	45.58283
	9.056054	45.58303
	9.057548	45.5832
	9.059423	45.58169
	9.060659	45.58121
	9.061875	45.58077
	9.06282	45.58059
	9.06351	45.58093
	9.063493	45.58166
	9.064241	45.58164
	9.064291	45.58196
	9.064304	45.58228
	9.06419	45.58289
	9.063989	45.58482
	9.065381	45.58553
	9.065526	45.58597
	9.06598	45.58757
	9.066319	45.589
	9.065862	45.58912
	9.06608	45.59079
	9.065506	45.59087
	9.065505	45.5911
	9.065321	45.5911
	9.065477	45.59259
	9.065007	45.5927
	9.065252	45.59402
	9.06474	45.59404
	9.064849	45.59506
	9.065776	45.59503
	9.065857	45.59573
	9.066296	45.59571
	9.066147	45.59652
	9.066278	45.5973
	9.063644	45.59755
	9.063782	45.59835
	9.063294	45.59838
	9.06346	45.59932
	9.063056	45.59935
	9.063169	45.60004
	9.062784	45.60008
	9.062793	45.60013
	9.062543	45.60015
	9.06252	45.60011
	9.062407	45.59941
	9.062237	45.59942
	9.062008	45.59896
	9.06182	45.59845
	9.061684	45.59813
	9.061492	45.59779
	9.06135	45.59758
	9.058565	45.59709
	9.058069	45.59987
	9.058095	45.59991
	9.058294	45.60045
	9.058633	45.60116
	9.058732	45.60145
	9.058954	45.60192
	9.05911	45.60233
	9.059121	45.60265
	9.059106	45.60308
	9.060764	45.60488
	9.060953	45.60627
	9.060951	45.60648
	9.063005	45.60779
	9.063057	45.60802
	9.063103	45.60837
	9.063138	45.60925
	9.063234	45.60985
	9.063103	45.61081
	9.063148	45.6111
	9.063173	45.61141
	9.06324	45.61287
	9.061129	45.61496
	9.06059	45.61493
	9.060062	45.61487
	9.059677	45.61485
	9.058058	45.61484
	9.055578	45.61491
	9.055397	45.61491
	9.054384	45.61484
	9.053242	45.61487
	9.053279	45.61563
	9.053296	45.61564
	9.053361	45.61553
	9.05342	45.61547
	9.053644	45.61569
	9.056103	45.61611
	9.056579	45.61581
	9.05663	45.61588
	9.056707	45.61621
	9.056783	45.61622
	9.056802	45.61628
	9.05673	45.61631
	9.056935	45.61716
	9.056803	45.61774
	9.056644	45.61808
	9.05636	45.61847
	9.05587	45.6185
	9.055754	45.6189
	9.054665	45.61858
	9.05402	45.61863
	9.05403	45.61912
	9.052543	45.61915
	9.052833	45.62186
	9.052307	45.62189
	9.05238	45.62242
	9.052875	45.62239
	9.052948	45.62332
	9.053824	45.62325
	9.056346	45.62311
	9.05637	45.62351
	9.056521	45.62395
	9.05689	45.6245
	9.057248	45.62481
	9.057569	45.625
	9.057831	45.62511
	9.058219	45.62521
	9.058726	45.62524
	9.059161	45.62518
	9.059551	45.62506
	9.059957	45.62484
	9.06028	45.62458
	9.060588	45.6242
	9.060789	45.62381
	9.06092	45.62327
	9.060926	45.62321
	9.060891	45.62287
	9.068452	45.62236
	9.071499	45.62217
	9.074428	45.62224
	9.078167	45.62237
	9.080485	45.62258
	9.080528	45.62257
	9.081065	45.62255
	9.081492	45.62245
	9.081998	45.62229
	9.082926	45.62203
	9.083471	45.62184
	9.083778	45.62161
	9.083765	45.62148
	9.083781	45.6214
	9.084105	45.62141
	9.084136	45.62153
	9.084566	45.62154
	9.084526	45.62074
	9.085053	45.62074
	9.085451	45.62189
	9.088547	45.6218
	9.090305	45.62135
	9.090822	45.62123
	9.091323	45.62106
	9.091751	45.62097
	9.092229	45.62094
	9.092481	45.62095
	9.093343	45.62092
	9.09383	45.62079
	9.09418	45.62071
	9.094451	45.62067
	9.095129	45.62063
	9.09535	45.62063
	9.095444	45.62062
	9.095637	45.62063
	9.095838	45.62062
	9.096242	45.62073
	9.096742	45.62094
	9.096981	45.62101
	9.097601	45.62122
	9.097755	45.62129
	9.098236	45.6223
	9.10081	45.6224
	9.102277	45.62244
	9.102277	45.62242
	9.102712	45.62259
	9.105537	45.6226
	9.106898	45.62257
	9.107859	45.62199
	9.108545	45.62081
	9.108572	45.62073
	9.10909	45.62075
	9.109098	45.62067
	9.109083	45.62061
	9.108935	45.62033
	9.108747	45.61987
	9.10863	45.61947
	9.108379	45.61889
	9.10821	45.61855
	9.108041	45.61811
	9.107456	45.61813
	9.1068	45.61809
	9.106673	45.61812
	9.106556	45.61817
	9.106446	45.61829
	9.106044	45.61854
	9.105858	45.61852
	9.105848	45.61851
	9.105731	45.61853
	9.105606	45.61863
	9.10559	45.61866
	9.105464	45.61871
	9.10536	45.61873
	9.105248	45.61873
	9.105228	45.61874
	9.104906	45.61873
	9.104811	45.6187
	9.104623	45.61857
	9.104436	45.61849
	9.104367	45.61848
	9.104124	45.61841
	9.104107	45.6184
	9.104075	45.61832
	9.104094	45.61821
	9.104244	45.61798
	9.104473	45.61774
	9.104798	45.61751
	9.105134	45.61735
	9.105517	45.6171
	9.105741	45.61698
	9.105977	45.61689
	9.106122	45.61686
	9.106396	45.61674
	9.106371	45.61666
	9.106303	45.61655
	9.10629	45.61649
	9.106303	45.61641
	9.106362	45.61633
	9.106732	45.61607
	9.107092	45.61584
	9.107236	45.61571
	9.10718	45.61562
	9.107175	45.61556
	9.107264	45.61494
	9.107241	45.61491
	9.107092	45.61486
	9.106575	45.61475
	9.106489	45.61464
	9.107481	45.6145
	9.107078	45.6117
	9.106078	45.61095
	9.105731	45.61074
	9.105311	45.61054
	9.104993	45.61041
	9.104617	45.61032
	9.104811	45.61004
	9.105378	45.60986
	9.105268	45.6095
	9.104476	45.60987
	9.104074	45.60956
	9.104525	45.60894
	9.105448	45.60882
	9.105348	45.6085
	9.105304	45.6081
	9.105321	45.6078
	9.10538	45.60756
	9.105393	45.6074
	9.105399	45.60729
	9.105376	45.60711
	9.104675	45.60682
	9.103941	45.60709
	9.103224	45.60748
	9.102699	45.60773
	9.10225	45.6079
	9.102101	45.60794
	9.101859	45.60804
	9.101593	45.60811
	9.101406	45.60888
	9.100683	45.60897
	9.100258	45.60901
	9.099172	45.60958
	9.099051	45.60967
	9.098937	45.6096
	9.098901	45.60956
	9.098734	45.60915
	9.098684	45.60899
	9.098695	45.60884
	9.098672	45.60859
	9.098555	45.6084
	9.09857	45.60837
	9.098617	45.60834
	9.09858	45.60821
	9.098061	45.60788
	9.097861	45.60773
	9.097452	45.60762
	9.096895	45.60741
	9.09685	45.60737
	9.096751	45.60727
	9.096024	45.60589
	9.094497	45.60656
	9.094498	45.60583
	9.094454	45.60493
	9.09447	45.604
	9.097223	45.60332
	9.097459	45.60319
	9.097197	45.6023
	9.099519	45.60172
	9.099277	45.60035
	9.09939	45.60027
	9.099784	45.59982
	9.099838	45.59973
	9.100137	45.59889
	9.100148	45.59881
	9.100035	45.59787
	9.100001	45.59778
	9.099677	45.5973
	9.100815	45.597
	9.100694	45.59652
	9.100618	45.59558
	9.100596	45.59459
	9.100503	45.59443
	9.100201	45.59406
	9.102179	45.59353
	9.101552	45.59231
	9.097184	45.59369
	9.096936	45.5928
	9.096801	45.59209
	9.09672	45.59137
	9.096649	45.59045
	9.095086	45.59077
	9.093769	45.59108
	9.093526	45.59069
	9.093944	45.59064
	9.093996	45.59062
	9.094007	45.59058
	9.093963	45.59048
	9.093788	45.59018
	9.093218	45.58935
	9.093097	45.58895
	9.093099	45.58887
	9.093118	45.58883
	9.095685	45.58786
	9.098095	45.58703
	9.099256	45.58807
	9.102214	45.58815
	9.103509	45.58817
	9.103802	45.58797
	9.104083	45.58769
	9.104637	45.58724
	9.104856	45.58703
	9.10495	45.5869
	9.105003	45.58679
	9.105062	45.58654
	9.105111	45.58644
	9.105177	45.58635
	9.10529	45.58631
	9.105467	45.58627
	9.105752	45.58624
	9.10616	45.58617
	9.107746	45.58597
	9.108049	45.5859
	9.108395	45.58586
	9.108606	45.58581
	9.109001	45.58582
	9.109032	45.58603
	9.10903	45.58613
	9.109434	45.58605
	9.10974	45.58604
	9.111446	45.58575
	9.111676	45.58572
	9.112516	45.58566
	9.113093	45.5856
	9.113626	45.58558
	9.113937	45.58559
	9.115149	45.58567
	9.115552	45.58566
	9.115902	45.58564
	9.116289	45.58558
	9.116841	45.58558
	9.117549	45.58549
	9.11798	45.58542
	9.118334	45.58539
	9.118472	45.58408
	9.119366	45.58409
	9.123661	45.58443
	9.124603	45.58449
	9.125539	45.58457
	9.126259	45.58465
	9.126445	45.58469
	9.126725	45.5847
	9.126937	45.58468
	9.12919	45.58461
	9.130412	45.58455
	9.131199	45.58449
	9.131726	45.58447
	9.132907	45.58439
	9.133719	45.58438
	9.134265	45.58436
	9.135475	45.58427
	9.137229	45.5841
	9.138035	45.58407
	9.139824	45.58393
	9.144858	45.58375
	9.144851	45.5844
	9.145503	45.58446
	9.145506	45.58648
	9.146038	45.58646
	9.146431	45.58642
	9.14671	45.58731
	9.146822	45.58755
	9.147013	45.58783
	9.147099	45.58805
	9.147101	45.5882
	9.14803	45.58818
	9.148434	45.58822
	9.148421	45.5889
	9.149285	45.58898
	9.150947	45.58903
	9.150973	45.58865
	9.153178	45.58916
	9.153917	45.58931
	9.154378	45.58943
	9.155136	45.5896
	9.155694	45.58966
	9.156186	45.58973
	9.156732	45.58978
	9.156981	45.58982
	9.157826	45.59
	9.157509	45.59066
	9.158511	45.59074
	9.159202	45.59078
	9.159769	45.59085
	9.160513	45.59086
	9.16135	45.59092
	9.161484	45.59095
	9.161763	45.59105
	9.163052	45.59178
	9.163677	45.59182
	9.165248	45.59202
	9.170645	45.59288
	9.17127	45.59075
	9.17234	45.59098
	9.172733	45.59243
	9.173751	45.59216
	9.174194	45.59227
	9.174824	45.59238
	9.17529	45.59241
	9.175349	45.5924
	9.17622	45.59214
	9.176581	45.59182
	9.176625	45.59183
	9.17665	45.59176
	9.176917	45.59151
	9.177154	45.59108
	9.177631	45.58988
	9.177741	45.58878
	9.177733	45.58874
	9.177249	45.58775
	9.17663	45.58727
	9.176574	45.58724
	9.17609	45.58707
	9.175708	45.587
	9.176278	45.58563
	9.17634	45.58555
	9.176507	45.58546
	9.176656	45.58545
	9.176832	45.58547
	9.178147	45.58569
	9.178274	45.5858
	9.179561	45.58607
	9.180258	45.58453
	9.179772	45.58439
	9.180411	45.58267
	9.182862	45.5832
	9.183609	45.58116
	9.1853	45.58151
	9.186198	45.57957
	9.187318	45.57981
	9.187664	45.57916
	9.192644	45.5803
	9.193225	45.57904
	9.192726	45.57744
	9.193487	45.57753
	9.193305	45.57647
	9.199681	45.57806
	9.200325	45.57667
	9.202487	45.57718
	9.202898	45.57622
	9.202634	45.5752
	9.205029	45.57458
	9.205081	45.5744
	9.206285	45.57474
	9.206951	45.57487
	9.207536	45.57497
	9.207849	45.57504
	9.208552	45.57533
	9.208686	45.57542
	9.209277	45.57603
	9.209338	45.57613
	9.209538	45.57655
	9.20957	45.57664
	9.209673	45.57724
	9.209677	45.57745
	9.20959	45.57754
	9.215975	45.57898
	9.217836	45.57942
	9.21816	45.57851
	9.216441	45.57823
	9.216977	45.5769
	9.21883	45.57739
	9.219251	45.57653
	9.220741	45.57696
	9.22124	45.57583
	9.223059	45.57649
	9.223672	45.57524
	9.225159	45.57567
	9.224979	45.57548
	9.224868	45.57539
	9.224244	45.57466
	9.223786	45.57401
	9.223712	45.57384
	9.223504	45.57348
	9.223081	45.57307
	9.222159	45.57213
	9.221408	45.5714
	9.221003	45.57106
	9.221284	45.56978
	9.226082	45.57098
	9.227061	45.57118
	9.227042	45.57087
	9.227049	45.57067
	9.227025	45.57035
	9.227103	45.56823
	9.22801	45.56832
	9.228221	45.56733
	9.227666	45.56726
	9.227134	45.56722
	9.227159	45.56593
	9.230037	45.56608
	9.22994	45.56666
	9.229955	45.56679
	9.232743	45.567
	9.233166	45.56714
	9.236696	45.56534
	9.2383	45.56434
	9.239219	45.56374
	9.241067	45.56378
	9.240932	45.56325
	9.242138	45.5633
	9.242311	45.56332
	9.242441	45.56335
	9.242446	45.56336
	9.242555	45.56338
	9.242757	45.56343
	9.242858	45.56345
	9.2429	45.56347
	9.243088	45.56356
	9.243408	45.56351
	9.243451	45.56349
	9.243555	45.56347
	9.243854	45.56344
	9.244797	45.56356
	9.2452	45.56359
	9.246059	45.56368
	9.24626	45.56382
	9.246418	45.56399
	9.246512	45.56414
	9.24674	45.56443
	9.246973	45.56482
	9.247026	45.56489
	9.247261	45.56513
	9.248108	45.56521
	9.248333	45.56348
	9.248587	45.56047
	9.248654	45.56034
	9.248666	45.559
	9.246621	45.55882
	9.246495	45.55809
	9.246559	45.55809
	9.24671	45.55673
	9.247259	45.55679
	9.247596	45.55687
	9.247852	45.55691
	9.247744	45.55678
	9.24997	45.55503
	9.251451	45.55509
	9.252785	45.55523
	9.25177	45.55478
	9.251982	45.55466
	9.251073	45.5537
	9.250602	45.55363
	9.250183	45.55341
	9.250053	45.55326
	9.260736	45.55485
	9.260797	45.55498
	9.265911	45.55577
	9.271731	45.55676
	9.271698	45.55652
	9.271553	45.55619
	9.271393	45.55591
	9.271218	45.55568
	9.270735	45.55514
	9.270545	45.55486
	9.270372	45.55454
	9.270195	45.5543
	9.270103	45.55422
	9.269882	45.5541
	9.269209	45.55382
	9.267983	45.55335
	9.267515	45.5531
	9.267286	45.5529
	9.26721	45.55279
	9.267109	45.55256
	9.267082	45.55236
	9.267098	45.55227
	9.267131	45.5522
	9.267188	45.55213
	9.267402	45.552
	9.267484	45.55198
	9.267556	45.55198
	9.26777	45.55193
	9.267981	45.55186
	9.268293	45.55171
	9.268468	45.55157
	9.268553	45.55144
	9.268565	45.55137
	9.268555	45.5513
	9.268424	45.5511
	9.268346	45.55102
	9.268287	45.55091
	9.270035	45.55069
	9.271744	45.55066
	9.271682	45.54988
	9.271571	45.54988
	9.271508	45.5498
	9.271655	45.54967
	9.271621	45.54962
	9.271425	45.54954
	9.27124	45.54967
	9.271196	45.5496
	9.271334	45.54951
	9.271096	45.54941
	9.271069	45.54935
	9.271363	45.54922
	9.270644	45.54811
	9.272619	45.54639
	9.272812	45.54639
	9.273428	45.54648
	9.274032	45.54676
	9.274123	45.54682
	9.274449	45.5471
	9.274476	45.54647
	9.276458	45.54648
	9.277687	45.54489
	9.281195	45.54638
	9.281413	45.54568
	9.281376	45.54399
	9.283675	45.54389
	9.287227	45.54367
	9.287244	45.54444
	9.288458	45.54443
	9.288517	45.54312
	9.289493	45.5431
	9.289086	45.54258
	9.291641	45.54252
	9.291581	45.54335
	9.293944	45.54336
	9.293996	45.54213
	9.292495	45.54213
	9.292351	45.54178
	9.294598	45.5418
	9.295395	45.54178
	9.29546	45.54176
	9.295611	45.54082
	9.295811	45.54026
	9.295839	45.53924
	9.310877	45.54084
	9.311526	45.54094
	9.311987	45.54104
	9.312405	45.54116
	9.31311	45.54143
	9.313336	45.54155
	9.313764	45.5418
	9.314104	45.54207
	9.314274	45.54224
	9.314502	45.54251
	9.315595	45.54414
	9.316086	45.54477
	9.31663	45.54533
	9.316944	45.5456
	9.317322	45.54589
	9.31785	45.54623
	9.318354	45.54652
	9.318839	45.54674
	9.321054	45.54762
	9.321278	45.54773
	9.321272	45.54779
	9.321423	45.5478
	9.322084	45.54812
	9.322417	45.54833
	9.322248	45.54931
	9.323158	45.54943
	9.323165	45.54955
	9.323781	45.54978
	9.323276	45.55158
	9.323188	45.55213
	9.323073	45.55246
	9.322924	45.553
	9.322786	45.55323
	9.322528	45.55342
	9.322198	45.55427
	9.322062	45.5547
	9.322015	45.55487
	9.322002	45.5551
	9.322056	45.55552
	9.322065	45.55571
	9.322021	45.55616
	9.321976	45.55637
	9.321837	45.55673
	9.321713	45.5569
	9.324055	45.55729
	9.32378	45.5579
	9.323904	45.5579
	9.323844	45.55803
	9.322415	45.55845
	9.323206	45.56116
	9.323605	45.56138
	9.324093	45.56162
	9.324359	45.56173
	9.324673	45.56181
	9.325039	45.56187
	9.325408	45.56189
	9.325431	45.56188
	9.325673	45.56187
	9.325843	45.56184
	9.326179	45.56174
	9.326138	45.56203
	9.329335	45.56203
	9.331071	45.56201
	9.333095	45.56189
	9.335554	45.56176
	9.336991	45.5617
	9.337788	45.56165
	9.339215	45.56161
	9.339618	45.56161
	9.342363	45.56148
	9.342552	45.56146
	9.342596	45.56143
	9.342565	45.56075
	9.342575	45.5607
	9.342593	45.56062
	9.342669	45.56052
	9.342763	45.56044
	9.342892	45.56037
	9.343041	45.56032
	9.343233	45.56029
	9.343419	45.56027
	9.343683	45.56028
	9.345441	45.56015
	9.345705	45.56012
	9.345858	45.56008
	9.345926	45.56005
	9.345993	45.55999
	9.346001	45.55977
	9.345961	45.55951
	9.346003	45.55927
	9.346041	45.55921
	9.346125	45.55913
	9.34628	45.55907
	9.346465	45.55905
	9.351877	45.55876
	9.351853	45.55869
	9.351811	45.55817
	9.352091	45.55782
	9.352004	45.55782
	9.352195	45.556
	9.352215	45.55592
	9.352264	45.55587
	9.352368	45.55584
	9.352411	45.5558
	9.352456	45.55503
	9.35247	45.55501
	9.352507	45.555
	9.35485	45.55497
	9.354857	45.55407
	9.356606	45.55405
	9.36005	45.5542
	9.362068	45.5543
	9.362109	45.55438
	9.36222	45.5547
	9.36224	45.55485
	9.362223	45.55494
	9.362167	45.55501
	9.361564	45.55505
	9.361611	45.55582
	9.362962	45.55581
	9.362893	45.55727
	9.365732	45.55723
	9.365891	45.5572
	9.36598	45.55714
	9.365958	45.55676
	9.368077	45.55678
	9.368109	45.55766
	9.368205	45.55766
	9.368381	45.5576
	9.368527	45.5576
	9.368582	45.55759
	9.370464	45.55761
	9.3707	45.55763
	9.370868	45.55762
	9.371863	45.55762
	9.372005	45.55763
	9.372597	45.55759
	9.372692	45.55756
	9.372747	45.55751
	9.372805	45.55725
	9.372848	45.55715
	9.372929	45.55704
	9.373114	45.55694
	9.373283	45.55692
	9.374651	45.55689
	9.376038	45.55691
	9.376074	45.55686
	9.376601	45.55685
	9.377105	45.55677
	9.377308	45.55677
	9.377564	45.55681
	9.377637	45.55671
	9.377696	45.55668
	9.377861	45.55663
	9.378197	45.55664
	9.378485	45.55671
	9.37857	45.55674
	9.378654	45.5568
	9.379296	45.55773
	9.379386	45.55779
	9.37972	45.55788
	9.379763	45.55791
	9.379906	45.55796
	9.380024	45.55796
	9.380073	45.55795
	9.380287	45.55788
	9.380388	45.55786
	9.380551	45.55789
	9.380598	45.55793
	9.380659	45.55813
	9.380667	45.55849
	9.380627	45.55872
	9.380561	45.5589
	9.381224	45.55911
	9.382219	45.55911
	9.382253	45.5595
	9.382602	45.55945
	9.382553	45.55904
	9.383919	45.55899
	9.383908	45.55885
	9.384574	45.55897
	9.384646	45.55897
	9.384777	45.559
	9.385181	45.55903
	9.385696	45.55902
	9.386692	45.55795
	9.387816	45.55806
	9.387734	45.5585
	9.389758	45.55873
	9.389328	45.56023
	9.392225	45.56043
	9.393687	45.5606
	9.393667	45.56078
	9.394053	45.56061
	9.398041	45.55898
	9.398928	45.55858
	9.400188	45.5579
	9.402902	45.55869
	9.402106	45.56141
	9.400626	45.56221
	9.399587	45.56267
	9.395596	45.5643
	9.395335	45.56442
	9.394414	45.56489
	9.39378	45.56528
	9.392987	45.56741
	9.392847	45.56758
	9.397681	45.5687
	9.396605	45.5714
	9.400868	45.57214
	9.400934	45.57222
	9.400387	45.57417
	9.403229	45.57461
	9.404699	45.57493
	9.406168	45.57536
	9.407246	45.57562
	9.409397	45.57593
	9.409673	45.57596
	9.409804	45.57681
	9.410131	45.57663
	9.409918	45.57614
	9.409909	45.57575
	9.410021	45.57561
	9.410164	45.57556
	9.41173	45.57577
	9.411766	45.57579
	9.411854	45.57581
	9.412858	45.57614
	9.415134	45.57652
	9.415441	45.57663
	9.4151	45.57765
	9.415747	45.5778
	9.416443	45.57805
	9.416687	45.57792
	9.416914	45.57784
	9.418315	45.57753
	9.418488	45.57751
	9.418643	45.57752
	9.418731	45.57754
	9.418823	45.57759
	9.418842	45.5777
	9.418478	45.57856
	9.420064	45.57892
	9.420236	45.57867
	9.420744	45.57882
	9.421088	45.57885
	9.422222	45.57911
	9.42214	45.57919
	9.422071	45.57932
	9.421979	45.57965
	9.421925	45.57977
	9.421814	45.57992
	9.42157	45.58005
	9.421384	45.58068
	9.421894	45.58076
	9.422936	45.58096
	9.423083	45.58112
	9.423121	45.58131
	9.424075	45.58144
	9.42563	45.58172
	9.425747	45.58175
	9.426215	45.58194
	9.426438	45.58201
	9.426759	45.58213
	9.426884	45.58219
	9.428289	45.58264
	9.428626	45.58272
	9.428736	45.58273
	9.428873	45.58276
	9.430644	45.58287
	9.43068	45.58288
	9.430893	45.58308
	9.430931	45.5832
	9.430888	45.58333
	9.43076	45.5836
	9.430705	45.58391
	9.430596	45.58413
	9.430548	45.58429
	9.430542	45.58438
	9.430381	45.58488
	9.431043	45.58499
	9.431122	45.58498
	9.431189	45.58493
	9.431264	45.58486
	9.431407	45.58461
	9.431518	45.58425
	9.43171	45.5838
	9.432069	45.58423
	9.433067	45.58388
	9.435143	45.58361
	9.435351	45.58361
	9.436121	45.58368
	9.436225	45.58371
	9.436549	45.58377
	9.437335	45.58389
	9.437785	45.58401
	9.437936	45.58403
	9.438075	45.58407
	9.438542	45.58416
	9.438624	45.58416
	9.440183	45.58434
	9.440083	45.58482
	9.441281	45.585
	9.441366	45.58503
	9.441419	45.58507
	9.441444	45.58513
	9.4414	45.58572
	9.442325	45.58573
	9.443386	45.58845
	9.44409	45.59015
	9.444195	45.59028
	9.444297	45.59036
	9.444921	45.5906
	9.444951	45.59063
	9.444959	45.59076
	9.444938	45.59085
	9.444712	45.59117
	9.444695	45.59137
	9.444627	45.59157
	9.444226	45.59188
	9.444191	45.59195
	9.444214	45.592
	9.44427	45.59201
	9.444484	45.59201
	9.444549	45.59199
	9.444961	45.59176
	9.445143	45.5917
	9.445375	45.59172
	9.445821	45.5918
	9.44647	45.59181
	9.446831	45.59183
	9.447909	45.59195
	9.449203	45.59206
	9.449314	45.59206
	9.449416	45.59203
	9.44981	45.59186
	9.45005	45.59185
	9.450065	45.59186
	9.450332	45.5919
	9.450844	45.5918
	9.450929	45.59191
	9.452359	45.59192
	9.452913	45.59089
	9.454057	45.5913
	9.455648	45.59161
	9.456687	45.59173
	9.458925	45.59193
	9.45908	45.59215
	9.459365	45.59212
	9.459578	45.59211
	9.45984	45.59212
	9.460194	45.59217
	9.460541	45.59226
	9.460878	45.59233
	9.461728	45.59243
	9.463106	45.59297
	9.463404	45.59307
	9.465645	45.59415
	9.465688	45.59416
	9.465717	45.59416
	9.465837	45.59412
	9.466137	45.59395
	9.466245	45.59386
	9.46652	45.59354
	9.466773	45.59317
	9.467714	45.59338
	9.468162	45.5935
	9.468196	45.59337
	9.46947	45.59372
	9.470332	45.59393
	9.471112	45.5941
	9.473222	45.59451
	9.473779	45.59484
	9.474099	45.59496
	9.474708	45.59513
	9.47538	45.59524
	9.476411	45.59537
	9.476745	45.59553
	9.476942	45.59557
	9.476973	45.59559
	9.477005	45.59559
	9.477153	45.59565
	9.477203	45.59569
	9.477215	45.59568
	9.477425	45.59566
	9.477749	45.59565
	9.478212	45.59558
	9.478632	45.59559
	9.480383	45.59575
	9.480514	45.5959
	9.481376	45.59603
	9.481013	45.59686
	9.481762	45.59693
	9.48063	45.59879
	9.480446	45.59881
	9.479865	45.59866
	9.479433	45.59863
	9.478573	45.59873
	9.478356	45.59882
	9.478196	45.59905
	9.478005	45.59991
	9.477222	45.59978
	9.476903	45.60158
	9.477842	45.60182
	9.477336	45.60364
	9.476086	45.60353
	9.476003	45.60368
	9.475903	45.60456
	9.478252	45.60452
	9.47986	45.6047
	9.480964	45.60489
	9.482095	45.60537
	9.482729	45.60578
	9.482339	45.6073
	9.482268	45.60827
	9.482202	45.6083
	9.48136	45.60837
	9.481667	45.60947
	9.483281	45.60909
	9.483294	45.6105
	9.483244	45.61075
	9.483759	45.61076
	9.483899	45.6114
	9.483187	45.61157
	9.483145	45.61228
	9.48213	45.61238
	9.482128	45.61317
	9.48316	45.6131
	9.483184	45.61362
	9.484851	45.61364
	9.484914	45.61424
	9.484221	45.61436
	9.484207	45.61456
	9.483933	45.61459
	9.48422	45.61552
	9.483748	45.61566
	9.481839	45.61581
	9.48202	45.61739
	9.482074	45.61751
	9.484548	45.6177
	9.484701	45.61796
	9.483528	45.61819
	9.482375	45.61834
	9.481827	45.6188
	9.480984	45.61913
	9.480968	45.61921
	9.481108	45.61976
	9.480768	45.61978
	9.480952	45.62029
	9.481115	45.62028
	9.481477	45.62114
	9.481487	45.62115
	9.481544	45.62115
	9.481596	45.62113
	9.48197	45.62105
	9.482033	45.6213
	9.482489	45.62227
	9.483293	45.62206
	9.483574	45.62263
	9.484313	45.62227
	9.485231	45.62172
	9.484785	45.62118
	9.484789	45.62113
	9.48482	45.6211
	9.486391	45.62057
	9.486629	45.62122
	9.488932	45.62458
	9.48909	45.62474
	9.490041	45.62615
	9.491642	45.62757
	9.492467	45.6265
	9.49321	45.6262
	9.493263	45.6262
	9.494176	45.62701
	9.494192	45.62705
	9.492772	45.6278
	9.493206	45.62831
	9.492347	45.62871
	9.492359	45.62884
	9.492456	45.62898
	9.492664	45.62922
	9.492906	45.62959
	9.493044	45.62972
	9.493164	45.6298
	9.493232	45.62983
	9.493422	45.62986
	9.493661	45.62986
	9.493918	45.62981
	9.49535	45.62922
	9.497084	45.62855
	9.497464	45.62889
	9.495916	45.6299
	9.494642	45.63078
	9.49443	45.63056
	9.494351	45.63056
	9.494244	45.63058
	9.494094	45.63064
	9.493957	45.63072
	9.493884	45.6308
	9.493696	45.63114
	9.493404	45.63155
	9.493094	45.63184
	9.493056	45.63189
	9.49302	45.63198
	9.492957	45.63206
	9.492853	45.63212
	9.492469	45.63227
	9.4923	45.63236
	9.492149	45.63246
	9.492014	45.63261
	9.491715	45.63301
	9.491479	45.63325
	9.491245	45.63353
	9.490869	45.63392
	9.48975	45.63525
	9.491178	45.63624
	9.491109	45.63643
	9.490924	45.63672
	9.490747	45.63688
	9.490694	45.63691
	9.490574	45.63703
	9.490436	45.63725
	9.490265	45.63745
	9.492547	45.63802
	9.492642	45.63808
	9.492688	45.63816
	9.492733	45.63833
	9.492748	45.63859
	9.4928	45.63868
	9.494273	45.63899
	9.495255	45.63917
	9.495647	45.63766
	9.495659	45.6368
	9.495564	45.63601
	9.495156	45.63467
	9.495088	45.63427
	9.494904	45.63378
	9.494885	45.63326
	9.495004	45.63279
	9.495237	45.6323
	9.495447	45.63215
	9.495668	45.63188
	9.496004	45.63177
	9.496283	45.63154
	9.497395	45.63106
	9.497958	45.6309
	9.498367	45.63071
	9.499792	45.63031
	9.500342	45.62999
	9.50164	45.62952
	9.503222	45.62908
	9.504046	45.62873
	9.504886	45.62844
	9.505512	45.62814
	9.50625	45.62789
	9.508744	45.62663
	9.508998	45.62654
	9.510344	45.62627
	9.511494	45.62614
	9.512785	45.62581
	9.51442	45.62568
	9.515588	45.62539
	9.516908	45.62454
	9.518028	45.62354
	9.518918	45.62259
	9.519618	45.62173
	9.519701	45.62139
	9.520061	45.6208
	9.520214	45.61989
	9.520355	45.6196
	9.520344	45.619
	9.520175	45.61858
	9.519473	45.61759
	9.519014	45.61723
	9.518436	45.61663
	9.51758	45.61557
	9.517375	45.61508
	9.517357	45.61486
	9.517472	45.6142
	9.517837	45.61369
	9.518018	45.61355
	9.518483	45.61333
	9.518792	45.61326
	9.519417	45.61325
	9.520034	45.6134
	9.520293	45.61352
	9.52049	45.61372
	9.520553	45.61388
	9.520545	45.61412
	9.520304	45.61464
	9.520223	45.6151
	9.520312	45.61562
	9.520568	45.6163
	9.520855	45.61675
	9.521505	45.61694
	9.522026	45.61696
	9.522273	45.61682
	9.522884	45.61613
	9.523561	45.61484
	9.523782	45.61467
	9.523865	45.61451
	9.523916	45.6143
	9.523741	45.61361
	9.523729	45.61244
	9.523893	45.61132
	9.524283	45.61039
	9.524847	45.60958
	9.526408	45.6083
	9.527194	45.60756
	9.527872	45.60671
	9.528379	45.6057
	9.528468	45.60542
	9.528479	45.60513
	9.529359	45.60389
	9.529772	45.60299
	9.529809	45.60274
	9.529919	45.60265
	9.530226	45.60119
	9.530936	45.59964
	9.531508	45.59859
	9.531994	45.59597
	9.53247	45.59465
	9.533221	45.59163
	9.533771	45.58987
	9.535092	45.58687
	9.535649	45.58618
	9.536	45.58585
	9.536506	45.58556
	9.537463	45.58476
	9.537717	45.58453
	9.53843	45.58377
	9.538852	45.58306
	9.538953	45.58229
	9.538353	45.58052
	9.538199	45.58026
	9.537651	45.57949
	9.537336	45.57896
	9.536934	45.5786
	9.535705	45.57808
	9.535303	45.57784
	9.535047	45.57744
	9.534795	45.57687
	9.534632	45.57607
	9.534558	45.57555
	9.534707	45.57344
	9.534836	45.5721
	9.534832	45.57098
	9.534686	45.57044
	9.534287	45.56949
	9.534076	45.56907
	9.533622	45.56848
	9.533211	45.56801
	9.532811	45.56759
	9.532314	45.56719
	9.531449	45.56658
	9.530907	45.56631
	9.530187	45.56587
	9.530069	45.56584
	9.529718	45.56554
	9.529028	45.56467
	9.528659	45.56429
	9.528273	45.56401
	9.527653	45.56374
	9.526461	45.56329
	9.525718	45.56295
	9.525302	45.56262
	9.52483	45.56176
	9.524766	45.56122
	9.524717	45.56055
	9.524784	45.55997
	9.524954	45.55932
	9.5251	45.55886
	9.525558	45.55774
	9.525693	45.55751
	9.525971	45.55715
	9.527834	45.55442
	9.528171	45.55377
	9.52821	45.55295
	9.528093	45.55254
	9.527906	45.55209
	9.526438	45.55008
	9.526262	45.54977
	9.526179	45.54931
	9.526098	45.54722
	9.526278	45.54531
	9.526501	45.54437
	9.52704	45.54269
	9.527672	45.5413
	9.528683	45.53965
	9.529043	45.53923
	9.529495	45.5389
	9.529638	45.5387
	9.529728	45.53845
	9.529808	45.53772
	9.530086	45.53675
	9.531421	45.53456
	9.531977	45.53383
	9.532781	45.53295
	9.533261	45.53227
	9.533338	45.53196
	9.533333	45.53159
	9.533608	45.53044
	9.534254	45.53031
	9.534393	45.53025
	9.53567	45.52978
	9.537958	45.52883
	9.53802	45.52876
	9.537925	45.52772
	9.537608	45.52646
	9.5375	45.52552
	9.539243	45.52549
	9.539247	45.52512
	9.541813	45.52489
	9.547522	45.52453
	9.550104	45.52427
	9.550189	45.52304
	9.550625	45.52303
	9.551457	45.52121
	9.551055	45.52116
	9.551291	45.52022
	9.551341	45.51944
	9.550065	45.51922
	9.550057	45.51888
	9.549504	45.5188
	9.549626	45.51862
	9.549822	45.51797
	9.549128	45.51783
	9.549184	45.51746
	9.549321	45.51746
	9.549392	45.51705
	9.548565	45.51652
	9.547525	45.51636
	9.547207	45.51627
	9.547152	45.51619
	9.5472	45.51578
	9.547273	45.51562
	9.547831	45.51565
	9.547867	45.51518
	9.547835	45.51497
	9.547517	45.51472
	9.54736	45.5145
	9.547308	45.51417
	9.547329	45.51385
	9.547463	45.51354
	9.547957	45.51283
	9.547793	45.51229
	9.547886	45.51204
	9.54816	45.51159
	9.548887	45.5108
	9.549404	45.50981
	9.549489	45.50978
	9.55012	45.50988
	9.550114	45.50948
	9.549574	45.50825
	9.549444	45.50783
	9.549447	45.5076
	9.548782	45.50758
	9.547043	45.50743
	9.546586	45.50737
	9.545732	45.50715
	9.545127	45.50717
	9.543412	45.50692
	9.540952	45.50577
	9.541003	45.50511
	9.540794	45.50449
	9.540636	45.50339
	9.54079	45.50265
	9.541123	45.50191
	9.541205	45.50153
	9.535811	45.50317
	9.535025	45.50346
	9.530555	45.50484
	9.52973	45.50511
	9.529582	45.50479
	9.529357	45.50448
	9.529105	45.50423
	9.528889	45.50407
	9.528737	45.50398
	9.528492	45.50387
	9.528374	45.50383
	9.528093	45.50376
	9.527967	45.50374
	9.527738	45.50372
	9.527596	45.50372
	9.527261	45.50376
	9.527056	45.50381
	9.526699	45.50395
	9.526501	45.50406
	9.526307	45.5042
	9.526167	45.50432
	9.526012	45.50448
	9.525775	45.50482
	9.525695	45.50498
	9.525593	45.50525
	9.52552	45.50561
	9.525516	45.50604
	9.525579	45.50639
	9.524677	45.50665
	9.524486	45.50607
	9.522538	45.5058
	9.522844	45.5067
	9.522867	45.50692
	9.522699	45.50721
	9.520262	45.5059
	9.519848	45.50602
	9.519238	45.50566
	9.519161	45.50564
	9.518981	45.50562
	9.520213	45.5042
	9.519433	45.50343
	9.51953	45.50298
	9.519514	45.50237
	9.5194	45.50212
	9.519248	45.50196
	9.519452	45.5015
	9.519429	45.50125
	9.518021	45.50018
	9.516865	45.50101
	9.516434	45.50147
	9.51617	45.50165
	9.515856	45.50175
	9.51568	45.5019
	9.515557	45.50192
	9.511635	45.49926
	9.511634	45.49909
	9.511102	45.49923
	9.510752	45.49873
	9.510451	45.49814
	9.510283	45.49797
	9.506696	45.49657
	9.507643	45.49458
	9.50781	45.49373
	9.507723	45.49336
	9.507637	45.49325
	9.507161	45.49311
	9.505352	45.49282
	9.504663	45.49267
	9.501377	45.4916
	9.501017	45.49141
	9.500658	45.49114
	9.500412	45.49084
	9.499507	45.48926
	9.499304	45.48873
	9.499225	45.48803
	9.499254	45.48724
	9.499341	45.48694
	9.499573	45.48653
	9.499695	45.48581
	9.499546	45.4846
	9.499391	45.48448
	9.497171	45.48338
	9.496792	45.48315
	9.496653	45.48321
	9.495106	45.48327
	9.49451	45.48215
	9.493817	45.48055
	9.493927	45.48022
	9.493961	45.47973
	9.493708	45.47778
	9.493859	45.47748
	9.494639	45.47641
	9.494607	45.47622
	9.493491	45.47534
	9.492514	45.47478
	9.492126	45.4747
	9.491325	45.47464
	9.490872	45.47457
	9.490462	45.47439
	9.490321	45.47429
	9.490215	45.47412
	9.490339	45.47399
	9.490854	45.47388
	9.492233	45.47339
	9.492441	45.47336
	9.493118	45.4734
	9.493833	45.47323
	9.494706	45.47283
	9.495105	45.47243
	9.494135	45.47103
	9.493452	45.46986
	9.492396	45.46857
	9.491662	45.46729
	9.491366	45.46729
	9.490383	45.46526
	9.492788	45.46436
	9.491878	45.46235
	9.49114	45.46126
	9.49035	45.45992
	9.488861	45.45804
	9.488259	45.45717
	9.487475	45.45637
	9.486624	45.45566
	9.486511	45.45555
	9.486179	45.45521
	9.485928	45.45483
	9.485764	45.4545
	9.484932	45.45218
	9.484639	45.45097
	9.48432	45.44906
	9.484324	45.44896
	9.48256	45.44855
	9.477407	45.44841
	9.477295	45.44834
	9.477032	45.44839
	9.475848	45.4482
	9.474541	45.4481
	9.472956	45.44809
	9.472625	45.44802
	9.472057	45.44799
	9.470511	45.44849
	9.47047	45.44862
	9.470539	45.44928
	9.469338	45.44943
	9.469379	45.45044
	9.468839	45.45033
	9.467976	45.45007
	9.466473	45.44992
	9.465216	45.4535
	9.464032	45.4552
	9.463779	45.45512
	9.463731	45.45515
	9.462582	45.45474
	9.462152	45.45472
	9.461972	45.45464
	9.4622	45.45406
	9.462402	45.4533
	9.461492	45.45332
	9.461122	45.45345
	9.461016	45.45343
	9.459577	45.4558
	9.459117	45.45716
	9.459242	45.45763
	9.459058	45.45799
	9.458035	45.46084
	9.458156	45.461
	9.457881	45.46137
	9.457837	45.46161
	9.457127	45.46204
	9.456564	45.46248
	9.45638	45.46256
	9.456156	45.46258
	9.456077	45.46255
	9.456	45.46241
	9.456077	45.46231
	9.455982	45.46225
	9.455615	45.46239
	9.455335	45.4624
	9.455036	45.46313
	9.455126	45.46327
	9.455567	45.46341
	9.456399	45.46382
	9.456795	45.46427
	9.457148	45.46425
	9.457235	45.46428
	9.457393	45.4645
	9.457476	45.46479
	9.458147	45.46473
	9.458184	45.46493
	9.458481	45.46549
	9.458719	45.46563
	9.458839	45.46582
	9.458862	45.46593
	9.458666	45.46627
	9.45867	45.4665
	9.458439	45.46678
	9.458307	45.46688
	9.457627	45.46718
	9.457368	45.46744
	9.457169	45.46749
	9.457093	45.46743
	9.456879	45.46745
	9.455277	45.46667
	9.454689	45.46694
	9.454886	45.46717
	9.455082	45.46757
	9.45507	45.46795
	9.454901	45.46833
	9.453781	45.46839
	9.452902	45.46838
	9.452795	45.46834
	9.452595	45.46814
	9.452325	45.46816
	9.452263	45.46821
	9.452205	45.46861
	9.452038	45.46864
	9.451406	45.46851
	9.451023	45.46859
	9.450885	45.46867
	9.450891	45.46876
	9.451343	45.46886
	9.451432	45.469
	9.451332	45.46921
	9.451149	45.4694
	9.450839	45.46953
	9.450671	45.46943
	9.450676	45.46912
	9.450596	45.46899
	9.450088	45.4688
	9.44984	45.46861
	9.449553	45.4685
	9.449451	45.46837
	9.449322	45.46831
	9.449068	45.4683
	9.44887	45.46843
	9.448833	45.46853
	9.448962	45.46883
	9.448791	45.46891
	9.448493	45.46884
	9.448282	45.46864
	9.447584	45.46842
	9.447465	45.46833
	9.447354	45.46838
	9.447173	45.46863
	9.446978	45.46864
	9.446894	45.4686
	9.446665	45.46826
	9.446153	45.46808
	9.445888	45.46789
	9.445696	45.4679
	9.44547	45.46809
	9.445087	45.46823
	9.444675	45.46827
	9.443693	45.46828
	9.443702	45.46823
	9.443584	45.46817
	9.442135	45.468
	9.442124	45.46807
	9.441916	45.46802
	9.44165	45.46804
	9.441213	45.46786
	9.441049	45.46787
	9.440895	45.46801
	9.440867	45.46812
	9.441029	45.46849
	9.440488	45.46888
	9.440434	45.46902
	9.440235	45.46915
	9.440159	45.46929
	9.440005	45.46941
	9.439827	45.46947
	9.439344	45.46937
	9.438826	45.46939
	9.438545	45.4695
	9.438531	45.46983
	9.43839	45.46989
	9.438166	45.46988
	9.43791	45.46993
	9.437978	45.46924
	9.437591	45.4692
	9.437722	45.46906
	9.437887	45.46885
	9.438149	45.46841
	9.438295	45.46803
	9.438376	45.46773
	9.438432	45.4671
	9.438426	45.46698
	9.438321	45.46636
	9.438151	45.46594
	9.437793	45.4654
	9.437651	45.46524
	9.437434	45.46503
	9.43711	45.46476
	9.436945	45.46464
	9.43658	45.46443
	9.436366	45.46432
	9.435997	45.46417
	9.435788	45.4641
	9.435379	45.46399
	9.43473	45.46386
	9.434076	45.46377
	9.434968	45.46237
	9.435268	45.46091
	9.435129	45.46083
	9.434776	45.46075
	9.434137	45.46073
	9.433944	45.46064
	9.433608	45.46061
	9.432994	45.46044
	9.432827	45.46045
	9.431645	45.46024
	9.428102	45.45924
	9.428159	45.45896
	9.427305	45.45877
	9.42763	45.45796
	9.427187	45.45659
	9.427397	45.4563
	9.426856	45.45599
	9.42582	45.45578
	9.425833	45.45574
	9.422531	45.45553
	9.422581	45.45509
	9.420412	45.45341
	9.420649	45.4506
	9.420869	45.44822
	9.421009	45.44644
	9.420996	45.44601
	9.42095	45.44576
	9.420819	45.44541
	9.420821	45.44526
	9.420767	45.44483
	9.420752	45.44476
	9.420556	45.44425
	9.420427	45.44404
	9.420205	45.44375
	9.419965	45.4435
	9.419746	45.44331
	9.419739	45.44332
	9.419623	45.44317
	9.418937	45.44285
	9.418673	45.4428
	9.41829	45.44275
	9.415658	45.44259
	9.415701	45.44252
	9.415671	45.44248
	9.415337	45.44238
	9.415229	45.44224
	9.415334	45.44218
	9.415634	45.44217
	9.41575	45.44212
	9.415951	45.44184
	9.415885	45.44159
	9.415949	45.44153
	9.41664	45.4413
	9.416595	45.44113
	9.416437	45.44095
	9.416544	45.44051
	9.41665	45.44037
	9.416844	45.44029
	9.416935	45.44019
	9.417837	45.43815
	9.417593	45.4381
	9.417272	45.43827
	9.416723	45.43879
	9.416401	45.43895
	9.416141	45.43895
	9.415984	45.43889
	9.415683	45.43855
	9.415598	45.43835
	9.415958	45.43711
	9.415934	45.43687
	9.41566	45.43655
	9.415393	45.43638
	9.414965	45.43621
	9.414506	45.43612
	9.414015	45.43613
	9.413606	45.43631
	9.413283	45.43638
	9.412667	45.43637
	9.412129	45.43623
	9.411833	45.43611
	9.411646	45.43592
	9.411415	45.43493
	9.411294	45.43484
	9.412227	45.43483
	9.412821	45.43521
	9.412914	45.43521
	9.413089	45.43446
	9.414877	45.43489
	9.415818	45.43207
	9.416056	45.43105
	9.416307	45.43099
	9.417648	45.43121
	9.417786	45.43126
	9.417934	45.43121
	9.418038	45.4311
	9.418466	45.43001
	9.419519	45.43022
	9.420427	45.43027
	9.42206	45.43064
	9.4222	45.43055
	9.422426	45.42961
	9.422489	45.42944
	9.422552	45.42944
	9.42293	45.4282
	9.422726	45.42811
	9.421665	45.4279
	9.42219	45.42572
	9.422339	45.42576
	9.422619	45.42605
	9.422676	45.42605
	9.423219	45.42427
	9.424562	45.42443
	9.424673	45.42399
	9.425422	45.42404
	9.425472	45.42401
	9.425749	45.42296
	9.425952	45.42299
	9.426235	45.42188
	9.425602	45.42178
	9.425334	45.42279
	9.425267	45.42288
	9.424773	45.4228
	9.424751	45.42266
	9.423634	45.4225
	9.423182	45.42249
	9.423125	45.42245
	9.42345	45.42053
	9.423572	45.42052
	9.42511	45.42073
	9.425584	45.41935
	9.423983	45.41914
	9.423997	45.41897
	9.423948	45.41895
	9.421542	45.41869
	9.421757	45.41771
	9.419822	45.41742
	9.420119	45.41588
	9.419251	45.41579
	9.419489	45.41428
	9.418071	45.41416
	9.418494	45.41176
	9.417548	45.4117
	9.417583	45.41104
	9.417105	45.41099
	9.41734	45.40982
	9.415724	45.4097
	9.415583	45.40966
	9.416156	45.40731
	9.415373	45.40722
	9.414077	45.40738
	9.412847	45.40767
	9.411743	45.40771
	9.411093	45.40782
	9.410018	45.40815
	9.409877	45.40785
	9.408932	45.40782
	9.405802	45.40788
	9.405838	45.40737
	9.406747	45.40707
	9.407092	45.40732
	9.40734	45.40737
	9.407758	45.40729
	9.409793	45.40716
	9.410331	45.40699
	9.411294	45.4069
	9.411441	45.40682
	9.411602	45.4065
	9.412185	45.40631
	9.41228	45.40624
	9.412187	45.40609
	9.412263	45.40566
	9.412392	45.40539
	9.412335	45.40538
	9.41243	45.40462
	9.412124	45.4039
	9.412012	45.40384
	9.41215	45.4037
	9.412312	45.40281
	9.412155	45.40277
	9.411558	45.40276
	9.409363	45.40277
	9.409275	45.40314
	9.408018	45.40312
	9.406832	45.40305
	9.406486	45.40299
	9.406702	45.40212
	9.407103	45.40111
	9.4072	45.39963
	9.407892	45.39856
	9.408128	45.39801
	9.408516	45.39654
	9.408766	45.39582
	9.408771	45.39562
	9.408667	45.39548
	9.40829	45.3953
	9.407313	45.39415
	9.407306	45.39402
	9.407841	45.39387
	9.40784	45.39372
	9.406144	45.39346
	9.406422	45.39234
	9.405375	45.39222
	9.405319	45.3924
	9.404079	45.3922
	9.405356	45.39114
	9.404573	45.39073
	9.404445	45.39095
	9.404104	45.39125
	9.403591	45.3914
	9.402625	45.39157
	9.401999	45.39183
	9.401177	45.39237
	9.400993	45.39253
	9.400856	45.39275
	9.400802	45.39328
	9.401229	45.39491
	9.401248	45.3957
	9.401119	45.39592
	9.401108	45.39622
	9.40135	45.39688
	9.401399	45.39711
	9.40136	45.39723
	9.401106	45.39728
	9.399838	45.39726
	9.398552	45.39712
	9.398481	45.39758
	9.396944	45.39753
	9.396949	45.39897
	9.396329	45.39887
	9.396268	45.39892
	9.396169	45.39932
	9.392229	45.3986
	9.39086	45.39935
	9.390697	45.39949
	9.390584	45.39981
	9.38906	45.39966
	9.389107	45.39947
	9.389036	45.39942
	9.388803	45.39937
	9.388413	45.39937
	9.387192	45.39926
	9.386486	45.39934
	9.385375	45.39935
	9.384427	45.39922
	9.384377	45.39915
	9.384667	45.39777
	9.384949	45.39686
	9.384965	45.39659
	9.384639	45.39648
	9.384267	45.39657
	9.383947	45.39647
	9.383512	45.39649
	9.382878	45.39629
	9.382606	45.39634
	9.382126	45.39606
	9.382264	45.39347
	9.382202	45.39304
	9.382328	45.39258
	9.382385	45.39135
	9.382534	45.39059
	9.38246	45.39049
	9.382133	45.39041
	9.382073	45.38944
	9.381755	45.38907
	9.381554	45.38834
	9.381378	45.38814
	9.380626	45.38799
	9.380299	45.38771
	9.380001	45.38761
	9.3777	45.38722
	9.377641	45.38724
	9.377417	45.38797
	9.377311	45.38798
	9.376005	45.38747
	9.376045	45.38725
	9.375512	45.38687
	9.37509	45.38685
	9.374688	45.38674
	9.374073	45.38666
	9.373779	45.38668
	9.373477	45.38677
	9.373058	45.38669
	9.373029	45.3865
	9.373274	45.38603
	9.373184	45.38593
	9.372975	45.38509
	9.373053	45.382
	9.372409	45.38062
	9.372385	45.38047
	9.37245	45.3802
	9.372674	45.37991
	9.375548	45.3789
	9.376044	45.37862
	9.378699	45.37687
	9.378885	45.37672
	9.379114	45.3762
	9.379243	45.37574
	9.379255	45.3753
	9.378759	45.37392
	9.378335	45.37353
	9.377937	45.37348
	9.37755	45.37327
	9.377514	45.37313
	9.377569	45.37295
	9.376761	45.37273
	9.376444	45.3727
	9.376412	45.37264
	9.376659	45.37064
	9.372499	45.36971
	9.372289	45.36965
	9.368192	45.36824
	9.365934	45.36791
	9.364522	45.36774
	9.362766	45.36553
	9.363131	45.36524
	9.363009	45.36524
	9.36183	45.36497
	9.359662	45.36445
	9.358969	45.36795
	9.357622	45.36742
	9.357191	45.3672
	9.356955	45.36724
	9.356293	45.36725
	9.355854	45.36722
	9.356524	45.36382
	9.356433	45.36368
	9.356576	45.3617
	9.356808	45.36014
	9.356956	45.35957
	9.357368	45.3586
	9.357479	45.3585
	9.357578	45.35847
	9.358784	45.35866
	9.358874	45.3586
	9.358989	45.35839
	9.359231	45.35819
	9.360305	45.3584
	9.360414	45.35841
	9.360475	45.35837
	9.360872	45.35633
	9.361201	45.35404
	9.360446	45.35396
	9.360774	45.35205
	9.361545	45.34997
	9.361481	45.34992
	9.360621	45.34976
	9.360969	45.34878
	9.360583	45.34874
	9.360451	45.34867
	9.360785	45.34795
	9.361908	45.34683
	9.361848	45.3468
	9.362289	45.3463
	9.362088	45.34622
	9.357966	45.34565
	9.357779	45.34561
	9.357609	45.3455
	9.356518	45.34537
	9.35671	45.34447
	9.356306	45.34443
	9.356227	45.34438
	9.356303	45.34399
	9.356226	45.34387
	9.358846	45.343
	9.358919	45.34272
	9.360133	45.34008
	9.359493	45.3399
	9.359542	45.33956
	9.359458	45.33948
	9.360367	45.33874
	9.361196	45.34037
	9.361953	45.34054
	9.364214	45.3394
	9.364265	45.33929
	9.364098	45.33885
	9.364313	45.33879
	9.364585	45.3386
	9.364573	45.33852
	9.364759	45.33838
	9.365355	45.33806
	9.365681	45.33695
	9.364821	45.33677
	9.364699	45.33659
	9.364229	45.33667
	9.363931	45.33658
	9.364665	45.3349
	9.364791	45.33474
	9.365092	45.33488
	9.367211	45.33527
	9.367349	45.33519
	9.367524	45.33456
	9.367679	45.33439
	9.368028	45.33435
	9.3688	45.33454
	9.369549	45.3328
	9.369409	45.33164
	9.36944	45.33152
	9.372534	45.32947
	9.374466	45.32808
	9.37445	45.32781
	9.374526	45.32777
	9.374505	45.32774
	9.374092	45.32748
	9.373652	45.32731
	9.374253	45.32582
	9.375056	45.32429
	9.375091	45.32426
	9.375697	45.32446
	9.376354	45.32332
	9.377676	45.32367
	9.378738	45.32143
	9.379799	45.3217
	9.379814	45.32167
	9.381136	45.3184
	9.378549	45.31779
	9.379153	45.31708
	9.379677	45.31656
	9.381107	45.3169
	9.382066	45.31708
	9.382079	45.31705
	9.382221	45.31713
	9.383323	45.31737
	9.382724	45.3185
	9.385514	45.3194
	9.386935	45.31995
	9.38703	45.32003
	9.38804	45.31931
	9.388728	45.31872
	9.391125	45.31704
	9.391899	45.31654
	9.392488	45.3163
	9.393103	45.31594
	9.393307	45.31571
	9.393777	45.31538
	9.392703	45.31488
	9.391847	45.31431
	9.391299	45.31403
	9.391436	45.31363
	9.391138	45.31357
	9.390696	45.31355
	9.390095	45.31339
	9.389644	45.31318
	9.389139	45.31312
	9.388394	45.31287
	9.386838	45.31253
	9.385913	45.31428
	9.382917	45.31359
	9.38319	45.31405
	9.380756	45.31549
	9.3794	45.31514
	9.378785	45.3149
	9.378445	45.31385
	9.379438	45.314
	9.380119	45.31415
	9.380689	45.3142
	9.380816	45.31419
	9.382687	45.31207
	9.380946	45.31053
	9.38101	45.31025
	9.380258	45.31008
	9.378825	45.30986
	9.378517	45.30977
	9.378156	45.30962
	9.378495	45.30933
	9.379329	45.30952
	9.37874	45.30842
	9.37873	45.30835
	9.378804	45.30741
	9.37911	45.30648
	9.379182	45.3061
	9.379242	45.30588
	9.379492	45.30513
	9.379696	45.30462
	9.37973	45.30436
	9.380069	45.3041
	9.379266	45.30353
	9.378956	45.30325
	9.378727	45.30313
	9.378678	45.30285
	9.378894	45.3026
	9.377895	45.30212
	9.377437	45.30209
	9.376896	45.30213
	9.375638	45.30245
	9.37477	45.30252
	9.374362	45.30274
	9.374366	45.30281
	9.374206	45.30296
	9.374517	45.30409
	9.374469	45.30441
	9.374368	45.30454
	9.373711	45.30487
	9.37346	45.30488
	9.373346	45.30482
	9.372107	45.30457
	9.371527	45.30441
	9.371072	45.30418
	9.370022	45.30335
	9.369628	45.30319
	9.368909	45.30312
	9.368717	45.30316
	9.368426	45.30331
	9.36812	45.30358
	9.367809	45.30398
	9.367615	45.30447
	9.367071	45.30541
	9.367018	45.30568
	9.366928	45.30575
	9.366964	45.30586
	9.366884	45.3061
	9.366933	45.30626
	9.367041	45.30638
	9.367016	45.30647
	9.367464	45.30697
	9.367639	45.30726
	9.367683	45.30743
	9.367597	45.30793
	9.367515	45.30803
	9.367485	45.30823
	9.367238	45.30856
	9.366278	45.30952
	9.366269	45.30966
	9.366026	45.31008
	9.366063	45.31053
	9.366281	45.31106
	9.366789	45.31172
	9.366967	45.31203
	9.367194	45.31218
	9.367396	45.31241
	9.367381	45.31249
	9.36761	45.31286
	9.367815	45.31346
	9.367861	45.31375
	9.367627	45.31453
	9.367615	45.31495
	9.367413	45.31547
	9.367132	45.31584
	9.366882	45.31604
	9.36558	45.31656
	9.36489	45.31673
	9.363821	45.31741
	9.363151	45.31759
	9.362609	45.31754
	9.362083	45.31736
	9.361688	45.31717
	9.361464	45.31692
	9.360871	45.31643
	9.359994	45.316
	9.359763	45.31597
	9.359412	45.31582
	9.359238	45.31581
	9.358819	45.31553
	9.358519	45.31523
	9.357921	45.31483
	9.357482	45.3148
	9.357355	45.31484
	9.356791	45.31533
	9.356592	45.3159
	9.356785	45.31623
	9.356609	45.31665
	9.356055	45.3172
	9.355438	45.31764
	9.355019	45.31803
	9.35469	45.3185
	9.354476	45.31901
	9.354483	45.31941
	9.354873	45.31993
	9.355146	45.32011
	9.355432	45.32041
	9.35574	45.32118
	9.354627	45.3212
	9.353873	45.32112
	9.353661	45.32033
	9.352585	45.32
	9.352561	45.31994
	9.352742	45.31947
	9.351732	45.3192
	9.352859	45.31803
	9.353769	45.31757
	9.353962	45.31741
	9.354266	45.31704
	9.354294	45.31692
	9.354432	45.31681
	9.35439	45.31677
	9.351708	45.31587
	9.351037	45.31675
	9.350409	45.3174
	9.350324	45.31742
	9.346829	45.31578
	9.345997	45.31668
	9.34589	45.31671
	9.345118	45.31629
	9.343387	45.31519
	9.342087	45.31443
	9.34004	45.3134
	9.339973	45.3133
	9.339329	45.31324
	9.339259	45.31334
	9.339047	45.31325
	9.339048	45.31334
	9.338519	45.31417
	9.337018	45.31345
	9.334711	45.31247
	9.333674	45.31201
	9.333274	45.31257
	9.332716	45.31215
	9.332052	45.31175
	9.331303	45.31288
	9.330747	45.3136
	9.330239	45.31446
	9.329595	45.31541
	9.329058	45.31617
	9.328078	45.31582
	9.327076	45.31554
	9.325946	45.31511
	9.325891	45.31526
	9.325815	45.31536
	9.32573	45.31543
	9.325302	45.31564
	9.325206	45.31589
	9.324957	45.31632
	9.325668	45.31659
	9.325336	45.31733
	9.324779	45.31816
	9.324123	45.3194
	9.324997	45.31968
	9.324612	45.32025
	9.325473	45.32051
	9.325776	45.32062
	9.3253	45.32133
	9.324447	45.32255
	9.324297	45.32279
	9.323521	45.32243
	9.321841	45.32149
	9.322223	45.32102
	9.321354	45.32024
	9.320893	45.3199
	9.320494	45.32077
	9.319616	45.3221
	9.319733	45.32233
	9.319418	45.32276
	9.319063	45.32317
	9.317131	45.32238
	9.315292	45.32355
	9.314703	45.32402
	9.315686	45.32438
	9.316179	45.32441
	9.316859	45.32471
	9.318292	45.32544
	9.31848	45.32565
	9.318887	45.32593
	9.31735	45.32672
	9.316359	45.32626
	9.315322	45.32576
	9.315107	45.32605
	9.31345	45.32527
	9.313253	45.32563
	9.313155	45.32589
	9.313041	45.32594
	9.31199	45.32594
	9.311495	45.32622
	9.309816	45.32748
	9.309512	45.32764
	9.309237	45.32767
	9.308385	45.32742
	9.308131	45.3273
	9.308126	45.327
	9.308082	45.32688
	9.308013	45.32675
	9.307828	45.32655
	9.30694	45.32636
	9.30634	45.32621
	9.305907	45.32604
	9.305565	45.32573
	9.305224	45.32555
	9.304723	45.3263
	9.304344	45.32699
	9.303193	45.32664
	9.302964	45.32698
	9.302775	45.32739
	9.301775	45.32719
	9.30098	45.32709
	9.300661	45.3274
	9.299961	45.3286
	9.299958	45.32886
	9.300072	45.3291
	9.299827	45.32945
	9.299577	45.3296
	9.29926	45.32967
	9.298516	45.32962
	9.297897	45.32953
	9.297326	45.32903
	9.296864	45.32899
	9.296295	45.32905
	9.296203	45.32895
	9.295765	45.32898
	9.294919	45.32894
	9.292929	45.32901
	9.292564	45.32894
	9.292364	45.32901
	9.291125	45.32889
	9.290064	45.32888
	9.289484	45.32889
	9.289248	45.32882
	9.289059	45.32882
	9.288808	45.32892
	9.288675	45.32914
	9.288303	45.32939
	9.287861	45.32949
	9.287159	45.33004
	9.2872	45.33061
	9.28709	45.33086
	9.286815	45.33103
	9.286571	45.33114
	9.286098	45.33129
	9.285554	45.33159
	9.284568	45.3312
	9.284439	45.33127
	9.284244	45.33148
	9.28381	45.33135
	9.283132	45.33108
	9.282767	45.33145
	9.282537	45.33178
	9.282026	45.33136
	9.281457	45.33086
	9.282178	45.33072
	9.283399	45.33036
	9.283377	45.32978
	9.282564	45.32992
	9.281797	45.33012
	9.28211	45.32968
	9.281383	45.32932
	9.280853	45.32903
	9.281448	45.32837
	9.282024	45.3277
	9.281239	45.3274
	9.280683	45.32713
	9.280088	45.32781
	9.279611	45.32838
	9.278162	45.32777
	9.276761	45.32724
	9.277162	45.32703
	9.277476	45.32672
	9.277695	45.32618
	9.277992	45.32597
	9.278086	45.32553
	9.278518	45.3249
	9.278125	45.32476
	9.277695	45.32458
	9.277399	45.32439
	9.276741	45.32482
	9.276015	45.32437
	9.275199	45.32391
	9.274691	45.32364
	9.274024	45.32424
	9.273797	45.32448
	9.274483	45.32483
	9.27519	45.32527
	9.27571	45.32564
	9.274891	45.32608
	9.274346	45.32655
	9.273577	45.32613
	9.272766	45.32565
	9.271275	45.32484
	9.270613	45.32452
	9.269752	45.32499
	9.267363	45.32624
	9.266008	45.32682
	9.263893	45.32781
	9.263545	45.32795
	9.262786	45.32753
	9.262143	45.32721
	9.262781	45.32649
	9.263428	45.32571
	9.261704	45.32501
	9.260393	45.32441
	9.259616	45.32476
	9.258929	45.32502
	9.257983	45.32547
	9.256749	45.32585
	9.256246	45.32588
	9.256179	45.32587
	9.255744	45.32586
	9.255327	45.32636
	9.254735	45.32716
	9.254201	45.3278
	9.253568	45.32859
	9.252396	45.32813
	9.251242	45.32775
	9.249134	45.32701
	9.248399	45.32671
	9.248192	45.32664
	9.247622	45.32737
	9.247059	45.32805
	9.246722	45.32836
	9.245492	45.32791
	9.246042	45.32712
	9.246604	45.32626
	9.247317	45.32539
	9.247828	45.32482
	9.247305	45.32453
	9.24685	45.32445
	9.246293	45.32446
	9.245923	45.32444
	9.245625	45.32454
	9.245476	45.32466
	9.24511	45.32489
	9.244829	45.32482
	9.244157	45.32471
	9.243681	45.32491
	9.243389	45.32519
	9.243131	45.32563
	9.242881	45.32581
	9.242358	45.3261
	9.241914	45.32646
	9.241878	45.32669
	9.241788	45.32686
	9.241425	45.32705
	9.241036	45.32735
	9.240547	45.32793
	9.240402	45.32804
	9.240064	45.32803
	9.239514	45.32799
	9.239192	45.32809
	9.238616	45.32816
	9.238185	45.32837
	9.23777	45.32863
	9.237598	45.32886
	9.237373	45.3292
	9.236816	45.32949
	9.23667	45.32963
	9.236522	45.32972
	9.23631	45.32974
	9.235949	45.32996
	9.235161	45.33048
	9.234729	45.33081
	9.234313	45.33107
	9.234244	45.33126
	9.234227	45.33142
	9.234233	45.33162
	9.234077	45.33207
	9.23394	45.33219
	9.233604	45.33243
	9.233258	45.33278
	9.232881	45.33309
	9.232564	45.33326
	9.232166	45.33342
	9.231632	45.33351
	9.230711	45.33358
	9.230578	45.33363
	9.230493	45.33373
	9.230382	45.33358
	9.230193	45.33346
	9.229898	45.33337
	9.229514	45.33323
	9.22929	45.3331
	9.22871	45.33283
	9.228931	45.33268
	9.229482	45.33225
	9.229971	45.33181
	9.230437	45.33156
	9.230887	45.33119
	9.231094	45.33097
	9.231208	45.33078
	9.230419	45.33044
	9.229594	45.32984
	9.230334	45.32935
	9.229926	45.32909
	9.229261	45.32871
	9.228497	45.32823
	9.22812	45.32803
	9.227958	45.32736
	9.227851	45.32713
	9.227754	45.32702
	9.227405	45.32684
	9.227303	45.32688
	9.227325	45.3268
	9.226007	45.32629
	9.22535	45.32597
	9.225125	45.3259
	9.225037	45.32586
	9.224905	45.32585
	9.224742	45.32588
	9.224565	45.32593
	9.22443	45.32592
	9.224128	45.3258
	9.223818	45.32571
	9.22374	45.3258
	9.223399	45.32575
	9.22312	45.32623
	9.222579	45.32612
	9.221752	45.32598
	9.221274	45.32588
	9.220081	45.32579
	9.219553	45.32573
	9.219076	45.32583
	9.218843	45.32609
	9.21852	45.32637
	9.218229	45.3265
	9.217674	45.32708
	9.215695	45.32879
	9.215248	45.32924
	9.214558	45.32975
	9.2132	45.33058
	9.212744	45.33081
	9.21264	45.33098
	9.212449	45.33105
	9.212129	45.33123
	9.212016	45.33128
	9.211903	45.3313
	9.211766	45.33128
	9.211453	45.33161
	9.211083	45.3317
	9.210884	45.33187
	9.210766	45.33192
	9.210653	45.33194
	9.210546	45.33194
	9.210095	45.33205
	9.209644	45.33212
	9.209244	45.33223
	9.208958	45.33224
	9.208289	45.33235
	9.207629	45.33254
	9.207191	45.3327
	9.206847	45.33281
	9.206218	45.33315
	9.204375	45.33395
	9.20385	45.33414
	9.203706	45.33421
	9.203679	45.33247
	9.203701	45.33148
	9.203611	45.32952
	9.203329	45.32595
	9.203168	45.32531
	9.203096	45.32514
	9.200463	45.32411
	9.200417	45.32423
	9.200247	45.32375
	9.2	45.32337
	9.199857	45.32303
	9.199637	45.32261
	9.199405	45.32192
	9.19916	45.3221
	9.198657	45.32252
	9.198184	45.32303
	9.197423	45.32285
	9.196474	45.32259
	9.195769	45.32241
	9.195047	45.32228
	9.195051	45.32188
	9.195246	45.32148
	9.19498	45.32135
	9.193925	45.3211
	9.193012	45.32093
	9.193065	45.32048
	9.193451	45.31915
	9.195608	45.31887
	9.195665	45.31887
	9.195686	45.31919
	9.195936	45.31978
	9.196354	45.32027
	9.19691	45.32062
	9.197429	45.32077
	9.197991	45.32078
	9.198568	45.32064
	9.198974	45.32043
	9.199332	45.32012
	9.199746	45.31948
	9.199759	45.31944
	9.19986	45.31831
	9.199851	45.31826
	9.199382	45.31733
	9.199357	45.3173
	9.198975	45.31728
	9.198916	45.31705
	9.199064	45.31697
	9.198897	45.31674
	9.198769	45.31686
	9.198418	45.3167
	9.197915	45.31661
	9.197297	45.31665
	9.196935	45.31679
	9.196893	45.31674
	9.196763	45.31631
	9.196657	45.31585
	9.196433	45.31562
	9.196306	45.31555
	9.19567	45.31557
	9.19557	45.31555
	9.195457	45.3154
	9.195387	45.31533
	9.195147	45.31524
	9.195048	45.31515
	9.194857	45.31519
	9.193065	45.31492
	9.191858	45.31482
	9.192015	45.31455
	9.19222	45.3136
	9.192213	45.31298
	9.192329	45.31268
	9.192172	45.31249
	9.191969	45.31235
	9.191253	45.31233
	9.191025	45.31235
	9.190553	45.31229
	9.187849	45.3121
	9.187015	45.31197
	9.186163	45.31186
	9.185755	45.31191
	9.185609	45.31173
	9.18527	45.31112
	9.18477	45.31011
	9.184196	45.30918
	9.183718	45.30834
	9.183969	45.30818
	9.184172	45.30786
	9.18437	45.30776
	9.184586	45.30762
	9.184649	45.30745
	9.184491	45.30729
	9.184413	45.30716
	9.184495	45.30703
	9.184641	45.30688
	9.185056	45.30658
	9.185457	45.30632
	9.185809	45.30604
	9.185996	45.30582
	9.186066	45.30561
	9.186178	45.30543
	9.186634	45.30436
	9.186777	45.30387
	9.186953	45.30346
	9.187613	45.30244
	9.187926	45.302
	9.188274	45.30174
	9.188736	45.30121
	9.188874	45.30093
	9.18889	45.30035
	9.189105	45.29982
	9.189355	45.29938
	9.189602	45.29886
	9.190157	45.29838
	9.191295	45.29788
	9.191748	45.2976
	9.192082	45.29727
	9.192366	45.29677
	9.192687	45.29615
	9.193105	45.29556
	9.193648	45.29496
	9.194106	45.29412
	9.194423	45.29371
	9.194713	45.29359
	9.195092	45.29361
	9.195564	45.29368
	9.196246	45.29382
	9.19671	45.29388
	9.196944	45.29382
	9.197065	45.29373
	9.196955	45.29325
	9.197547	45.29268
	9.19794	45.29228
	9.199426	45.29193
	9.199945	45.29195
	9.200958	45.29128
	9.201762	45.29096
	9.202307	45.29091
	9.203209	45.2908
	9.202621	45.29046
	9.202053	45.29066
	9.201715	45.29067
	9.20096	45.29075
	9.20011	45.29082
	9.199273	45.29078
	9.198927	45.29075
	9.198518	45.29129
	9.197577	45.29133
	9.197404	45.29149
	9.197209	45.29185
	9.196867	45.29188
	9.196303	45.29166
	9.195548	45.29134
	9.195196	45.29122
	9.195295	45.29096
	9.195547	45.2906
	9.195654	45.28996
	9.195952	45.28959
	9.195889	45.28929
	9.195576	45.28921
	9.195264	45.28922
	9.194473	45.28964
	9.194097	45.29054
	9.194498	45.29101
	9.193925	45.2917
	9.19359	45.29169
	9.192529	45.29144
	9.19137	45.29176
	9.19102	45.29182
	9.19036	45.29198
	9.189508	45.29221
	9.189073	45.29234
	9.188193	45.29223
	9.186992	45.29196
	9.18536	45.29261
	9.18523	45.29332
	9.184878	45.29375
	9.183606	45.29556
	9.183218	45.2963
	9.182956	45.29666
	9.182608	45.29642
	9.181984	45.29615
	9.181714	45.29662
	9.181206	45.29728
	9.180656	45.29823
	9.18	45.2981
	9.179506	45.29797
	9.179174	45.29793
	9.179253	45.29823
	9.179268	45.2984
	9.17913	45.29856
	9.178876	45.29881
	9.178588	45.29929
	9.17849	45.29928
	9.177915	45.29917
	9.177239	45.29912
	9.176734	45.29906
	9.176119	45.29888
	9.175189	45.29876
	9.174248	45.2986
	9.173503	45.29845
	9.171924	45.29825
	9.171101	45.29808
	9.170941	45.29872
	9.170606	45.29947
	9.168997	45.29925
	9.16896	45.29953
	9.167943	45.29935
	9.16691	45.29921
	9.166259	45.29907
	9.164675	45.29869
	9.164888	45.29805
	9.16508	45.29754
	9.165121	45.29735
	9.164341	45.29727
	9.163926	45.29718
	9.163301	45.29713
	9.162955	45.29714
	9.162724	45.29718
	9.16231	45.29741
	9.161812	45.29765
	9.161683	45.29766
	9.160507	45.29753
	9.159965	45.29755
	9.159398	45.29755
	9.159378	45.29803
	9.159278	45.29862
	9.159224	45.29922
	9.158771	45.29918
	9.158476	45.29917
	9.158444	45.29868
	9.158469	45.29852
	9.15862	45.29834
	9.158588	45.298
	9.157669	45.29802
	9.157713	45.29758
	9.157723	45.2972
	9.157585	45.29627
	9.15753	45.29599
	9.15679	45.29594
	9.155836	45.29579
	9.154877	45.29561
	9.154555	45.29558
	9.154328	45.29562
	9.153382	45.29551
	9.152725	45.29539
	9.15251	45.29613
	9.152222	45.29689
	9.15191	45.29786
	9.151664	45.29871
	9.151464	45.29967
	9.151224	45.30065
	9.151177	45.30125
	9.150271	45.30131
	9.149565	45.30134
	9.149389	45.30178
	9.149245	45.30223
	9.148794	45.30336
	9.148432	45.30404
	9.148269	45.30472
	9.147926	45.30458
	9.147847	45.30495
	9.146859	45.30653
	9.146586	45.30705
	9.146386	45.30758
	9.146116	45.30876
	9.145918	45.30941
	9.145398	45.31137
	9.145326	45.31159
	9.145015	45.31237
	9.144916	45.31259
	9.144566	45.31324
	9.141857	45.31406
	9.141042	45.31135
	9.141337	45.3108
	9.141562	45.31023
	9.142077	45.30829
	9.141473	45.30814
	9.141134	45.30896
	9.140891	45.30961
	9.140063	45.30941
	9.13951	45.30932
	9.139822	45.30853
	9.138962	45.30831
	9.138268	45.30822
	9.138486	45.30749
	9.138825	45.30696
	9.139722	45.30702
	9.139826	45.30638
	9.139986	45.30592
	9.1402	45.30594
	9.140728	45.30593
	9.140837	45.30589
	9.141001	45.30579
	9.141291	45.30557
	9.141339	45.30544
	9.141512	45.30463
	9.140291	45.30457
	9.138822	45.30448
	9.139	45.30313
	9.138718	45.3031
	9.137283	45.30301
	9.137195	45.30417
	9.137092	45.30507
	9.137066	45.30571
	9.13681	45.30579
	9.136497	45.30586
	9.135976	45.30581
	9.135841	45.30609
	9.135749	45.30619
	9.13574	45.30644
	9.135777	45.30672
	9.135584	45.30751
	9.135437	45.30794
	9.135227	45.30868
	9.13452	45.30861
	9.13374	45.30851
	9.132954	45.30839
	9.132276	45.30831
	9.132166	45.30853
	9.131452	45.30842
	9.130788	45.30827
	9.130421	45.30937
	9.13032	45.30979
	9.131245	45.30998
	9.130957	45.31078
	9.129542	45.31057
	9.128419	45.31032
	9.126927	45.31007
	9.127178	45.30959
	9.127324	45.30927
	9.127427	45.3089
	9.126541	45.30872
	9.125209	45.30854
	9.125224	45.30842
	9.125752	45.30747
	9.125737	45.30725
	9.125888	45.30713
	9.12635	45.30662
	9.126537	45.30632
	9.126695	45.30601
	9.126834	45.30567
	9.126944	45.30531
	9.127018	45.30515
	9.126048	45.3025
	9.123391	45.30347
	9.123241	45.30379
	9.123117	45.30413
	9.123091	45.30424
	9.122666	45.30442
	9.122083	45.3047
	9.121383	45.30538
	9.121019	45.30553
	9.120345	45.30599
	9.120155	45.30619
	9.119825	45.3066
	9.119592	45.30681
	9.119342	45.30699
	9.118964	45.30733
	9.118741	45.30765
	9.11859	45.30768
	9.118227	45.3078
	9.117791	45.30801
	9.117554	45.30817
	9.11728	45.30838
	9.116349	45.30827
	9.116132	45.30891
	9.116004	45.30936
	9.114862	45.30912
	9.114999	45.30845
	9.115125	45.30812
	9.115899	45.30813
	9.116172	45.30736
	9.115403	45.30722
	9.115659	45.30654
	9.115647	45.3064
	9.114652	45.30683
	9.114408	45.30686
	9.114109	45.30681
	9.113787	45.30669
	9.113503	45.30656
	9.112585	45.30691
	9.111951	45.30718
	9.111173	45.30737
	9.110724	45.30731
	9.110471	45.3072
	9.110203	45.30713
	9.109982	45.30704
	9.109787	45.30698
	9.109471	45.30685
	9.107827	45.30659
	9.10546	45.30698
	9.105072	45.3071
	9.104894	45.30707
	9.103806	45.30768
	9.103988	45.30555
	9.103977	45.30449
	9.104012	45.30387
	9.102777	45.30393
	9.100202	45.30403
	9.098778	45.30376
	9.096963	45.30337
	9.096478	45.30476
	9.094931	45.30447
	9.094667	45.30533
	9.094508	45.3061
	9.094362	45.30637
	9.093289	45.30616
	9.092171	45.30601
	9.091397	45.30588
	9.090196	45.30571
	9.089064	45.3056
	9.088627	45.3055
	9.088812	45.30484
	9.086948	45.30457
	9.08579	45.30437
	9.085339	45.30438
	9.084969	45.30449
	9.08519	45.30396
	9.085403	45.30359
	9.08322	45.3034
	9.08238	45.30328
	9.081755	45.30314
	9.081217	45.3031
	9.080555	45.30297
	9.080034	45.30302
	9.079977	45.30322
	9.079864	45.3035
	9.079716	45.30449
	9.079597	45.3049
	9.078664	45.30495
	9.077706	45.3049
	9.076556	45.30471
	9.076377	45.3047
	9.076313	45.3048
	9.076	45.3055
	9.075821	45.30597
	9.075546	45.30655
	9.074	45.30629
	9.0742	45.30672
	9.074474	45.30738
	9.074857	45.30804
	9.077275	45.30812
	9.077124	45.30876
	9.076846	45.31038
	9.077312	45.31079
	9.077662	45.31113
	9.077817	45.31132
	9.07768	45.3114
	9.077168	45.31163
	9.077683	45.31209
	9.077612	45.31216
	9.077768	45.31236
	9.078479	45.31307
	9.078624	45.31314
	9.07923	45.31371
	9.079773	45.31431
	9.080207	45.31482
	9.080541	45.31517
	9.080758	45.31548
	9.080127	45.31545
	9.07908	45.31537
	9.078913	45.31556
	9.0778	45.31547
	9.076841	45.31536
	9.075911	45.31527
	9.074809	45.31514
	9.072806	45.31479
	9.071905	45.31475
	9.071471	45.31471
	9.071297	45.31496
	9.070273	45.31483
	9.069503	45.3148
	9.069741	45.31407
	9.07004	45.31302
	9.070285	45.31226
	9.071086	45.30944
	9.071421	45.30842
	9.07179	45.30745
	9.072083	45.30651
	9.072187	45.30605
	9.069487	45.30557
	9.06865	45.3054
	9.067749	45.30526
	9.066953	45.30512
	9.066683	45.30516
	9.066234	45.30519
	9.064865	45.30486
	9.064307	45.3048
	9.06265	45.3045
	9.061032	45.30426
	9.060139	45.30419
	9.05923	45.30401
	9.058938	45.30393
	9.057711	45.30369
	9.056878	45.30354
	9.056673	45.30348
	9.056551	45.30349
	9.056426	45.30354
	9.05643	45.30361
	9.05627	45.30391
	9.055852	45.30454
	9.055409	45.30545
	9.054778	45.306
	9.054503	45.30645
	9.053654	45.30564
	9.053579	45.30561
	9.053217	45.30553
	9.052359	45.30573
	9.052158	45.30572
	9.0519	45.30568
	9.051742	45.30561
	9.051651	45.30553
	9.051627	45.30544
	9.051633	45.30535
	9.051684	45.30521
	9.051684	45.30516
	9.051652	45.30512
	9.051597	45.30509
	9.051332	45.30511
	9.051163	45.30508
	9.049088	45.30444
	9.04879	45.30438
	9.049421	45.3041
	9.049972	45.3038
	9.050269	45.30362
	9.050683	45.30349
	9.051176	45.30323
	9.051811	45.30283
	9.052127	45.30267
	9.052347	45.30266
	9.052478	45.30264
	9.052551	45.30261
	9.052637	45.30246
	9.052549	45.30243
	9.050188	45.30204
	9.048628	45.30176
	9.04634	45.30142
	9.045492	45.30131
	9.045189	45.30171
	9.045074	45.3019
	9.04377	45.30212
	9.042348	45.30241
	9.041108	45.30263
	9.040904	45.30258
	9.040158	45.3027
	9.039927	45.30271
	9.039662	45.30263
	9.039368	45.30247
	9.038446	45.30195
	9.037938	45.30165
	9.037534	45.30139
	9.037014	45.30109
	9.036322	45.30058
	9.035759	45.30021
	9.035253	45.29979
	9.034446	45.29916
	9.034311	45.29902
	9.033409	45.29865
	9.032904	45.2984
	9.032139	45.29807
	9.031625	45.29781
	9.030442	45.29718
	9.029727	45.29667
	9.029049	45.29746
	9.028459	45.29811
	9.028233	45.29844
	9.027409	45.29992
	9.027338	45.30008
	9.027197	45.30048
	9.027099	45.30093
	9.027069	45.30141
	9.026983	45.30166
	9.026803	45.3019
	9.025768	45.30292
	9.025163	45.3037
	9.024927	45.30425
	9.024805	45.30461
	9.024661	45.30497
	9.024928	45.30509
	9.02542	45.30534
	9.025901	45.30562
	9.025993	45.30581
	9.027864	45.3068
	9.02822	45.30697
	9.028944	45.30706
	9.029599	45.30667
	9.030207	45.30612
	9.030531	45.3058
	9.029799	45.30536
	9.03053	45.30471
	9.031404	45.30384
	9.032215	45.30295
	9.032908	45.3034
	9.033401	45.30369
	9.033575	45.30378
	9.034066	45.30329
	9.034484	45.30295
	9.034767	45.30275
	9.035287	45.30234
	9.03643	45.30278
	9.036921	45.30295
	9.036665	45.30328
	9.036083	45.30391
	9.035633	45.30455
	9.034759	45.30557
	9.033901	45.30663
	9.033431	45.30732
	9.033613	45.3083
	9.033886	45.30864
	9.033902	45.30874
	9.033869	45.30908
	9.033942	45.30927
	9.03432	45.30969
	9.034453	45.30986
	9.034523	45.31001
	9.034417	45.3107
	9.034195	45.31148
	9.033955	45.31195
	9.033754	45.31227
	9.033741	45.31252
	9.033349	45.31261
	9.033124	45.31271
	9.032999	45.31299
	9.032176	45.31369
	9.031717	45.31416
	9.0309	45.31495
	9.030391	45.31529
	9.029867	45.31567
	9.029392	45.31618
	9.029036	45.31647
	9.028472	45.31678
	9.027993	45.31706
	9.027035	45.31769
	9.026421	45.31815
	9.026136	45.31843
	9.025841	45.31859
	9.025398	45.31879
	9.02525	45.31896
	9.025103	45.31922
	9.024969	45.31938
	9.024449	45.31976
	9.024196	45.3199
	9.024044	45.32001
	9.023625	45.32033
	9.0231	45.32076
	9.02298	45.3205
	9.02275	45.3201
	9.022621	45.31991
	9.022291	45.31923
	9.019937	45.31766
	9.018369	45.32001
	9.018437	45.32031
	9.018619	45.32083
	9.018905	45.32142
	9.018863	45.32148
	9.018714	45.3216
	9.018391	45.32193
	9.018228	45.32214
	9.01798	45.32255
	9.017932	45.32266
	9.017772	45.32324
	9.01776	45.32334
	9.017846	45.3242
	9.017938	45.32448
	9.01797	45.3247
	9.017979	45.32506
	9.017248	45.32467
	9.015943	45.32427
	9.013837	45.32579
	9.012286	45.3255
	9.011909	45.3254
	9.011579	45.32528
	9.010823	45.32508
	9.009433	45.32266
	9.008558	45.32238
	9.007557	45.322
	9.006413	45.32164
	9.005353	45.32135
	9.004311	45.32104
	9.00363	45.32086
	9.004021	45.32039
	9.004215	45.32011
	9.003411	45.31996
	9.002461	45.32034
	9.002069	45.32093
	9.000718	45.31971
	9.000226	45.31931
	8.999655	45.31894
	8.99932	45.31876
	8.998933	45.3185
	8.998389	45.31838
	8.998304	45.31754
	8.998238	45.31744
	8.998109	45.31735
	8.997914	45.31729
	8.997748	45.31779
	8.997552	45.31851
	8.997053	45.32012
	8.996852	45.32099
	8.996057	45.32095
	8.99497	45.31991
	8.994764	45.32059
	8.994572	45.32148
	8.993767	45.32137
	8.992362	45.3212
	8.992289	45.32157
	8.991945	45.32285
	8.991245	45.32275
	8.99025	45.32267
	8.990279	45.32191
	8.988491	45.32163
	8.988584	45.3214
	8.989442	45.31976
	8.990268	45.31852
	8.990753	45.31765
	8.991281	45.31682
	8.992256	45.31505
	8.992758	45.31422
	8.993384	45.31305
	8.993902	45.31213
	8.994508	45.31114
	8.994982	45.31022
	8.99553	45.30927
	8.995974	45.30844
	8.996626	45.30711
	8.997158	45.30631
	8.998232	45.30454
	8.998759	45.30362
	8.999526	45.30245
	8.999507	45.3022
	8.999391	45.30215
	8.998426	45.30235
	8.997653	45.30249
	8.997564	45.30196
	8.997446	45.30145
	8.998066	45.30141
	8.998	45.30115
	8.997988	45.30073
	8.997297	45.30082
	8.99658	45.30087
	8.996736	45.30141
	8.996127	45.30143
	8.994072	45.30163
	8.993983	45.30117
	8.993468	45.30123
	8.992365	45.3013
	8.992245	45.30025
	8.992098	45.29947
	8.993535	45.29932
	8.993484	45.29901
	8.99303	45.29722
	8.993994	45.29704
	8.995037	45.29681
	8.994768	45.29622
	8.994253	45.29584
	8.994521	45.29569
	8.994739	45.29584
	8.995235	45.29622
	8.996979	45.29705
	8.997162	45.29726
	8.997259	45.29753
	8.997522	45.29789
	8.998257	45.29752
	8.999655	45.29691
	9.000129	45.29753
	9.000545	45.29802
	9.001101	45.29781
	9.001983	45.29745
	9.00184	45.29725
	9.002461	45.2969
	9.001986	45.29634
	9.001486	45.29583
	9.001808	45.29571
	9.001482	45.29527
	9.002104	45.29497
	9.002695	45.29466
	9.002193	45.29409
	9.001828	45.29361
	9.001154	45.29282
	9.001766	45.29226
	9.002942	45.29126
	9.004069	45.2909
	9.005509	45.29048
	9.006325	45.29023
	9.006553	45.2908
	9.006365	45.29108
	9.006035	45.29178
	9.005694	45.29226
	9.007156	45.2917
	9.007473	45.29221
	9.007848	45.29301
	9.008192	45.29284
	9.009092	45.2923
	9.009445	45.29258
	9.010165	45.29321
	9.012211	45.29219
	9.01336	45.29153
	9.014025	45.29212
	9.015142	45.29153
	9.016203	45.29093
	9.014981	45.29001
	9.015326	45.28984
	9.01611	45.28942
	9.014679	45.28833
	9.015351	45.28806
	9.016226	45.28738
	9.01603	45.28713
	9.0157	45.28685
	9.015748	45.28647
	9.015813	45.28616
	9.016023	45.2849
	9.016425	45.28503
	9.016969	45.28535
	9.017435	45.28558
	9.018059	45.28485
	9.017843	45.28464
	9.017466	45.28447
	9.017049	45.28422
	9.016735	45.28394
	9.015968	45.28318
	9.016349	45.28296
	9.018195	45.28202
	9.018499	45.28223
	9.018647	45.28235
	9.01918	45.28203
	9.018816	45.28161
	9.018414	45.2812
	9.017888	45.2807
	9.018495	45.28045
	9.017885	45.27984
	9.017467	45.27938
	9.018213	45.27895
	9.017787	45.27846
	9.016942	45.27767
	9.016505	45.27722
	9.016188	45.27693
	9.015568	45.27657
	9.014821	45.2761
	9.014413	45.27679
	9.013734	45.27806
	9.013138	45.27745
	9.012446	45.27684
	9.011927	45.27632
	9.010854	45.27671
	9.009989	45.27707
	9.009146	45.27732
	9.008333	45.2775
	9.007334	45.27767
	9.006617	45.27775
	9.006555	45.2775
	9.006067	45.27744
	9.00527	45.27727
	9.004463	45.277
	9.003649	45.27671
	9.003294	45.27653
	9.002365	45.27595
	9.001791	45.2755
	9.00134	45.27519
	9.000424	45.27448
	9.000012	45.27414
	8.99861	45.27311
	8.997869	45.2726
	8.996006	45.27231
	8.995839	45.27233
	8.99574	45.27237
	8.99564	45.27238
	8.995264	45.27237
	8.995287	45.2723
	8.995292	45.27207
	8.994162	45.27204
	8.993955	45.27202
	8.992853	45.27201
	8.992928	45.27186
	8.993108	45.27131
	8.993128	45.27121
	8.993291	45.27096
	8.99332	45.27089
	8.993323	45.2708
	8.993294	45.27063
	8.993246	45.2705
	8.993224	45.27009
	8.993151	45.26964
	8.993103	45.26951
	8.993011	45.26868
	8.992864	45.26785
	8.992683	45.26736
	8.992453	45.26697
	8.992463	45.26697
	8.992431	45.26694
	8.992326	45.26688
	8.992173	45.26682
	8.991838	45.26678
	8.989767	45.26664
	8.989222	45.26663
	8.987485	45.26654
	8.986185	45.26632
	8.985895	45.26626
	8.985556	45.26615
	8.985315	45.26603
	8.983164	45.26479
	8.98307	45.26489
	8.982838	45.26508
	8.982447	45.26547
	8.98206	45.26581
	8.980998	45.26681
	8.980539	45.2672
	8.978847	45.26874
	8.977913	45.26962
	8.977429	45.27006
	8.976932	45.27047
	8.976408	45.27097
	8.975953	45.27141
	8.975631	45.27176
	8.975384	45.27205
	8.97507	45.27238
	8.974552	45.27296
	8.97434	45.27325
	8.974032	45.27355
	8.973788	45.27384
	8.973557	45.27403
	8.973205	45.27439
	8.972937	45.27463
	8.97235	45.27508
	8.97177	45.27555
	8.970864	45.2762
	8.970461	45.27643
	8.969655	45.27693
	8.968607	45.27748
	8.968054	45.27779
	8.96769	45.27794
	8.967566	45.27802
	8.966774	45.27824
	8.966506	45.27834
	8.96614	45.27844
	8.965392	45.27874
	8.964486	45.27916
	8.964101	45.27945
	8.96341	45.27989
	8.962629	45.28048
	8.961859	45.28102
	8.961412	45.28139
	8.96073	45.28191
	8.960248	45.28225
	8.96003	45.28237
	8.959574	45.28254
	8.959446	45.28262
	8.959257	45.2827
	8.957896	45.28337
	8.957506	45.28355
	8.957233	45.28371
	8.956213	45.28422
	8.955768	45.28446
	8.955235	45.28468
	8.954805	45.28489
	8.954414	45.28511
	8.952625	45.286
	8.951474	45.28655
	8.951096	45.28676
	8.950783	45.28702
	8.949203	45.28813
	8.948844	45.28832
	8.948386	45.28871
	8.947834	45.28904
	8.947293	45.28949
	8.946717	45.29009
	8.945718	45.29131
	8.94559	45.29191
	8.945417	45.29259
	8.945474	45.2934
	8.945456	45.29409
	8.945553	45.29446
	8.945828	45.29505
	8.946065	45.29563
	8.94652	45.29642
	8.946886	45.2973
	8.947047	45.29765
	8.947204	45.29814
	8.947138	45.29908
	8.946874	45.30002
	8.946625	45.30025
	8.946146	45.30073
	8.945625	45.30108
	8.945355	45.30132
	8.944664	45.30202
	8.944057	45.3026
	8.943714	45.30287
	8.943129	45.30327
	8.942479	45.30369
	8.94195	45.30408
	8.941522	45.30457
	8.941714	45.3057
	8.941975	45.30753
	8.942097	45.3085
	8.942668	45.3094
	8.942939	45.3098
	8.943889	45.31113
	8.943942	45.3114
	8.944026	45.312
	8.94407	45.31268
	8.944038	45.31402
	8.9438	45.31474
	8.943592	45.31543
	8.943402	45.31596
	8.943212	45.31608
	8.942738	45.31645
	8.942106	45.31691
	8.941621	45.31715
	8.940496	45.31767
	8.93929	45.3182
	8.938083	45.31871
	8.937067	45.31918
	8.935913	45.31966
	8.93489	45.32012
	8.934203	45.32038
	8.933205	45.32081
	8.932703	45.32112
	8.931821	45.32132
	8.930812	45.32161
	8.929813	45.32137
	8.928768	45.32116
	8.928202	45.32109
	8.92777	45.32049
	8.92732	45.31992
	8.926942	45.31948
	8.926796	45.31927
	8.925464	45.31838
	8.925152	45.31806
	8.924857	45.31756
	8.924604	45.31723
	8.924337	45.3168
	8.924101	45.31673
	8.923755	45.31668
	8.923275	45.31671
	8.922718	45.31686
	8.922222	45.3171
	8.921232	45.31778
	8.9208	45.31854
	8.919882	45.32031
	8.919549	45.3206
	8.916743	45.32194
	8.91617	45.32211
	8.915361	45.32228
	8.914969	45.32251
	8.914192	45.32264
	8.912549	45.32255
	8.911179	45.32267
	8.907886	45.32389
	8.906505	45.32496
	8.905889	45.32592
	8.905922	45.32613
	8.906116	45.32645
	8.906446	45.32684
	8.906681	45.32751
	8.907407	45.32849
	8.907721	45.32871
	8.908089	45.32886
	8.908736	45.32899
	8.909232	45.32897
	8.909411	45.329
	8.909772	45.32949
	8.9106	45.32998
	8.910859	45.33054
	8.910278	45.3316
	8.908332	45.33247
	8.907177	45.33276
	8.905993	45.3328
	8.904903	45.33305
	8.903176	45.33376
	8.90272	45.33427
	8.902686	45.33448
	8.902762	45.33472
	8.902609	45.33498
	8.901966	45.33566
	8.901573	45.33595
	8.900461	45.33695
	8.899297	45.33783
	8.898571	45.3386
	8.895412	45.34059
	8.895044	45.34074
	8.89478	45.34072
	8.894372	45.34058
	8.892888	45.3398
	8.892275	45.33964
	8.89177	45.33962
	8.891249	45.33972
	8.890548	45.34003
	8.888868	45.34101
	8.888054	45.34129
	8.887564	45.3414
	8.886179	45.34131
	8.885635	45.34122
	8.884678	45.34114
	8.882084	45.34129
	8.881298	45.3414
	8.881064	45.34146
	8.880479	45.34181
	8.880146	45.34216
	8.879634	45.34294
	8.878839	45.34376
	8.878288	45.34413
	8.877954	45.34429
	8.87723	45.34447
	8.876255	45.34457
	8.874833	45.34463
	8.873392	45.34484
	8.871508	45.34536
	8.869804	45.34595
	8.868179	45.34632
	8.867629	45.34652
	8.867216	45.34674
	8.866777	45.34715
	8.866207	45.34819
	8.86583	45.34921
	8.865604	45.35092
	8.865631	45.35133
	8.865728	45.35167
	8.867044	45.35392
	8.867188	45.35431
	8.867253	45.35473
	8.867331	45.35484
	8.868022	45.35553
	8.868316	45.35592
	8.868716	45.35685
	8.869124	45.35835
	8.869079	45.35874
	8.868922	45.35903
	8.867911	45.35994
	8.867179	45.3604
	8.866326	45.36072
	8.864383	45.36107
	8.863176	45.36135
	8.862567	45.36157
	8.860253	45.36266
	8.858749	45.36346
	8.857466	45.36401
	8.856698	45.36442
	8.854394	45.36532
	8.852557	45.36595
	8.851833	45.36625
	8.851339	45.36653
	8.850953	45.36688
	8.850437	45.36755
	8.84998	45.36847
	8.849604	45.3694
	8.848894	45.37068
	8.848519	45.37119
	8.847683	45.372
	8.847509	45.37226
	8.847256	45.37423
	8.847305	45.37504
	8.847253	45.37658
	8.846946	45.37735
	8.8464	45.37805
	8.846331	45.37824
	8.846295	45.37894
	8.846384	45.37925
	8.846684	45.37969
	8.847321	45.38087
	8.848375	45.38207
	8.84866	45.38248
	8.847644	45.38379
	8.847137	45.38471
	8.846694	45.38565
	8.846562	45.38612
	8.846436	45.38697
	8.846589	45.38799
	8.846904	45.389
	8.847107	45.38938
	8.847764	45.39033
	8.847952	45.39071
	8.848038	45.39114
	8.847976	45.39158
	8.847912	45.39172
	8.847776	45.3918
	8.845603	45.39231
	8.844577	45.39266
	8.843734	45.39313
	8.843062	45.39368
	8.842896	45.39384
	8.841704	45.39519
	8.841127	45.39616
	8.840664	45.39722
	8.840751	45.39789
	8.841478	45.39854
	8.842192	45.39895
	8.842035	45.39903
	8.841889	45.39915
	8.841698	45.39942
	8.841548	45.39985
	8.841323	45.4003
	8.839566	45.40342
	8.838427	45.40495
	8.83757	45.4062
	8.837345	45.40645
	8.837107	45.40664
	8.835861	45.40714
	8.834977	45.40742
	8.834378	45.40752
	8.833485	45.40756
	8.832847	45.40764
	8.830938	45.40772
	8.83034	45.40782
	8.829229	45.40806
	8.828668	45.40825
	8.827963	45.40854
	8.827104	45.40901
	8.826239	45.4097
	8.825157	45.41077
	8.824211	45.41158
	8.82407	45.41174
	8.823679	45.41244
	8.823493	45.41317
	8.823381	45.41393
	8.823334	45.41464
	8.823407	45.41516
	8.823393	45.41633
	8.823497	45.41739
	8.8235	45.41768
	8.823557	45.41798
	8.823666	45.41826
	8.82394	45.41852
	8.824301	45.4188
	8.824413	45.419
	8.82442	45.41921
	8.824322	45.41942
	8.824278	45.42024
	8.824251	45.42032
	8.824248	45.42126
	8.824309	45.42241
	8.824496	45.42374
	8.82439	45.42493
	8.823889	45.42569
	8.822826	45.42631
	8.821725	45.42686
	8.820752	45.4275
	8.820239	45.42812
	8.820378	45.4284
	8.822868	45.42943
	8.824374	45.43011
	8.825267	45.43076
	8.82584	45.43154
	8.826335	45.43259
	8.825833	45.43395
	8.824948	45.43477
	8.82432	45.43512
	8.823143	45.43532
	8.821277	45.43537
	8.819462	45.4352
	8.818402	45.43486
	8.818006	45.43472
	8.815029	45.43394
	8.813413	45.43323
	8.812591	45.43289
	8.81125	45.43257
	8.809988	45.43255
	8.809063	45.43273
	8.808102	45.43333
	8.807638	45.43446
	8.808017	45.43576
	8.808832	45.43672
	8.810019	45.43738
	8.811513	45.43794
	8.811983	45.43897
	8.811825	45.44036
	8.81104	45.44181
	8.810549	45.44342
	8.810543	45.44499
	8.81007	45.44598
	8.808682	45.44713
	8.807823	45.4477
	8.806683	45.44831
	8.805645	45.44908
	8.804771	45.45027
	8.803538	45.4517
	8.802203	45.45308
	8.800997	45.45437
	8.800303	45.45526
	8.799969	45.45582
	8.799198	45.45671
	8.79862	45.45742
	8.79743	45.45766
	8.795561	45.45794
	8.794127	45.45843
	8.79337	45.45921
	8.792508	45.46036
	8.791252	45.46114
	8.78983	45.46172
	8.788374	45.46251
	8.788111	45.46317
	8.788124	45.46416
	8.788832	45.46521
	8.790197	45.4663
	8.79128	45.46737
	8.791441	45.46877
	8.791205	45.4701
	8.790894	45.47147
	8.790811	45.47309
	8.790925	45.47695
	8.790803	45.47874
	8.79058	45.48021
	8.790037	45.48186
	8.789353	45.48319
	8.788976	45.4841
	8.787487	45.48623
	8.786781	45.48667
	8.78591	45.48686
	8.784644	45.4868
	8.783683	45.48652
	8.783562	45.48644
	8.782622	45.4859
	8.781349	45.48505
	8.779598	45.48461
	8.777359	45.48445
	8.775261	45.48437
	8.773494	45.4847
	8.771749	45.48558
	8.770172	45.48653
	8.768746	45.48783
	8.766946	45.48978
	8.765175	45.49113
	8.763491	45.49286
	8.762641	45.49427
	8.761662	45.49567
	8.760352	45.49685
	8.759142	45.49713
	8.758199	45.49742
	8.757404	45.49779
	8.757082	45.49806
	8.756211	45.49831
	8.754957	45.4984
	8.753151	45.49846
	8.751551	45.49856
	8.750565	45.49865
	8.749235	45.49845
	8.748187	45.49809
	8.746665	45.49791
	8.745667	45.49782
	8.744195	45.49784
	8.742838	45.4978
	8.741904	45.4977
	8.740714	45.49781
	8.739343	45.49811
	8.738535	45.49846
	8.736327	45.49991
	8.734947	45.50075
	8.731953	45.50185
	8.731042	45.50217
	8.729059	45.5021
	8.727892	45.5024
	8.726762	45.50313
	8.725556	45.50381
	8.72449	45.5045
	8.723513	45.50531
	8.722844	45.50602
	8.722727	45.50641
	8.72293	45.50675
	8.722915	45.50715
	8.722836	45.50764
	8.722284	45.50791
	8.722002	45.50813
	8.720404	45.50901
	8.719985	45.50947
	8.719853	45.51024
	8.719732	45.51143
	8.719765	45.5126
	8.719632	45.51356
	8.719295	45.51431
	8.718387	45.51486
	8.71692	45.51569
	8.715816	45.51636
	8.715006	45.51695
	8.714387	45.51788
	8.714012	45.51862
	8.713573	45.51935
	8.713069	45.52013
	8.712565	45.52117
	8.712291	45.52203
	8.712424	45.52358
	8.712561	45.52433
	8.712815	45.52487
	8.713413	45.52561
	8.713764	45.52638
	8.714045	45.52719
	8.714413	45.52788
	8.714923	45.52834
	8.718026	45.53015
	8.719404	45.53105
	8.719222	45.53171
	8.718962	45.53239
	8.718574	45.53315
	8.717738	45.53391
	8.71472	45.53547
	8.713485	45.53655
	8.71289	45.53769
	8.712617	45.53856
	8.71228	45.53939
	8.711673	45.54032
	8.711259	45.54104
	8.711002	45.54133
	8.709454	45.54334
	8.709106	45.5439
	8.707755	45.54752
	8.707221	45.54906
	8.706712	45.55095
	8.706164	45.55279
	8.706096	45.55359
	8.706357	45.55515
	8.706843	45.55777
	8.706879	45.55831
END
END
