Japan_Kinki Region_Wakayama
1
	135.0931	34.31197
	135.0932	34.31192
	135.0933	34.3118
	135.0935	34.31162
	135.0946	34.31074
	135.0952	34.30992
	135.0957	34.30927
	135.0961	34.30889
	135.0968	34.30837
	135.097	34.3081
	135.0971	34.30794
	135.0973	34.30786
	135.0976	34.30783
	135.0977	34.30788
	135.0979	34.30806
	135.0982	34.30878
	135.0984	34.30887
	135.0987	34.30883
	135.0988	34.30887
	135.0995	34.30936
	135.0997	34.30943
	135.1002	34.30938
	135.1003	34.30934
	135.1006	34.30936
	135.1008	34.30943
	135.1017	34.30993
	135.1021	34.31056
	135.1025	34.31082
	135.1027	34.31093
	135.1032	34.31097
	135.1035	34.31114
	135.1036	34.3111
	135.1036	34.31097
	135.1034	34.31022
	135.1033	34.31002
	135.1034	34.30982
	135.1035	34.30974
	135.1038	34.3097
	135.1042	34.3097
	135.1045	34.30977
	135.1047	34.30975
	135.1048	34.3096
	135.1049	34.30951
	135.1047	34.30906
	135.1047	34.30897
	135.1049	34.309
	135.1055	34.30901
	135.1057	34.30897
	135.1059	34.30886
	135.1061	34.3086
	135.1062	34.30807
	135.1064	34.30624
	135.1065	34.30604
	135.1064	34.3058
	135.1058	34.30516
	135.1056	34.30483
	135.1052	34.30462
	135.105	34.30454
	135.1046	34.30426
	135.1045	34.30399
	135.1044	34.30336
	135.1042	34.30304
	135.104	34.30288
	135.1038	34.30268
	135.1036	34.30256
	135.1035	34.30235
	135.1034	34.30208
	135.1033	34.30196
	135.1031	34.30185
	135.1029	34.30182
	135.1026	34.30184
	135.1025	34.30178
	135.1022	34.30144
	135.1016	34.30093
	135.1014	34.30084
	135.1012	34.30068
	135.1007	34.30053
	135.1005	34.3005
	135.1003	34.30044
	135.1001	34.30008
	135.1002	34.29972
	135.1001	34.29944
	135.0999	34.29928
	135.0995	34.29914
	135.099	34.29903
	135.0987	34.29898
	135.0984	34.29882
	135.0982	34.29861
	135.0979	34.29817
	135.0977	34.29791
	135.0976	34.29767
	135.0976	34.29748
	135.0972	34.29721
	135.0969	34.2971
	135.0968	34.29687
	135.0968	34.29664
	135.0969	34.29626
	135.0969	34.29597
	135.0971	34.29582
	135.0972	34.29577
	135.0976	34.29579
	135.0978	34.29577
	135.098	34.29565
	135.0982	34.29531
	135.0985	34.29501
	135.0987	34.29487
	135.099	34.2947
	135.0991	34.29456
	135.0992	34.29432
	135.0992	34.29393
	135.0994	34.29349
	135.0996	34.29322
	135.0998	34.29268
	135.0997	34.29249
	135.0997	34.29221
	135.0996	34.2919
	135.0995	34.2917
	135.0993	34.29147
	135.0992	34.29126
	135.099	34.29113
	135.099	34.29099
	135.0989	34.29078
	135.0989	34.28991
	135.0988	34.2896
	135.0986	34.28942
	135.0986	34.28922
	135.0987	34.28904
	135.0989	34.28887
	135.0992	34.28877
	135.0998	34.28845
	135.1001	34.28797
	135.1002	34.28776
	135.1003	34.28748
	135.1005	34.28737
	135.1007	34.28735
	135.101	34.28707
	135.1013	34.28686
	135.1014	34.28663
	135.1014	34.28641
	135.1013	34.28628
	135.1013	34.28606
	135.1014	34.28581
	135.1015	34.28571
	135.1017	34.2857
	135.102	34.28577
	135.1023	34.28593
	135.1027	34.28612
	135.1029	34.28628
	135.1031	34.28628
	135.1033	34.28616
	135.1034	34.28598
	135.1037	34.28554
	135.1039	34.28534
	135.1041	34.28527
	135.1044	34.28521
	135.1048	34.28525
	135.105	34.28521
	135.1051	34.28503
	135.1053	34.2848
	135.1055	34.28462
	135.1058	34.2845
	135.1061	34.28457
	135.1064	34.28437
	135.1066	34.28428
	135.1069	34.28426
	135.1072	34.28427
	135.1075	34.28433
	135.1079	34.28432
	135.1085	34.28415
	135.1086	34.28399
	135.1087	34.28361
	135.1087	34.2832
	135.1089	34.28303
	135.1091	34.28267
	135.109	34.28255
	135.109	34.28236
	135.1088	34.28193
	135.1085	34.28152
	135.1084	34.28125
	135.1082	34.28083
	135.1082	34.28047
	135.1074	34.27966
	135.1074	34.27846
	135.1075	34.27822
	135.1077	34.278
	135.1082	34.27774
	135.1082	34.27773
	135.1085	34.27763
	135.1086	34.27741
	135.1086	34.27718
	135.1085	34.27692
	135.1085	34.27625
	135.1087	34.27574
	135.109	34.27533
	135.1094	34.27461
	135.1096	34.27436
	135.1099	34.27416
	135.1103	34.27379
	135.1104	34.27362
	135.1102	34.27326
	135.1102	34.27292
	135.1103	34.27273
	135.1106	34.27237
	135.1109	34.27219
	135.1113	34.27203
	135.1114	34.27187
	135.1114	34.27183
	135.1116	34.27182
	135.1117	34.27191
	135.1117	34.27197
	135.1118	34.2721
	135.1118	34.27334
	135.1122	34.2736
	135.1125	34.27373
	135.113	34.27374
	135.1133	34.27386
	135.1135	34.27403
	135.1137	34.27426
	135.1139	34.27437
	135.1141	34.27439
	135.1144	34.2743
	135.1147	34.27419
	135.1151	34.27412
	135.1155	34.27408
	135.1157	34.27401
	135.1158	34.2739
	135.1165	34.27355
	135.1168	34.27335
	135.1169	34.27317
	135.117	34.27307
	135.1171	34.27306
	135.1173	34.27305
	135.1176	34.27317
	135.1178	34.2732
	135.118	34.27317
	135.1182	34.27326
	135.1184	34.27341
	135.1185	34.27358
	135.1189	34.27359
	135.1192	34.27357
	135.1198	34.27363
	135.1204	34.27372
	135.1208	34.2738
	135.121	34.27391
	135.1211	34.27418
	135.1213	34.27436
	135.1215	34.27489
	135.1216	34.27494
	135.1217	34.27493
	135.1222	34.27472
	135.1224	34.27474
	135.1226	34.27479
	135.1227	34.27485
	135.1228	34.27519
	135.1228	34.27542
	135.1231	34.27584
	135.1235	34.27627
	135.1239	34.27652
	135.1243	34.27671
	135.1246	34.27673
	135.1248	34.27679
	135.1251	34.27699
	135.1253	34.27721
	135.1255	34.27739
	135.1257	34.27745
	135.1258	34.27745
	135.126	34.27739
	135.1261	34.27701
	135.1262	34.27682
	135.1265	34.2767
	135.1271	34.27656
	135.1274	34.27654
	135.1278	34.27642
	135.1282	34.27638
	135.1284	34.27627
	135.1286	34.27609
	135.1288	34.27598
	135.129	34.2757
	135.1291	34.27548
	135.129	34.27508
	135.129	34.27479
	135.1293	34.27453
	135.1296	34.27394
	135.1297	34.27386
	135.1301	34.27366
	135.1303	34.27304
	135.1312	34.27249
	135.1318	34.27235
	135.1321	34.27235
	135.1323	34.27243
	135.1325	34.27254
	135.1328	34.2726
	135.133	34.27262
	135.1333	34.27259
	135.134	34.27276
	135.1344	34.27293
	135.1347	34.27315
	135.1353	34.27334
	135.1359	34.27349
	135.1364	34.27348
	135.1366	34.27351
	135.1369	34.27376
	135.1369	34.2738
	135.137	34.27398
	135.1372	34.27406
	135.1375	34.2741
	135.1377	34.27419
	135.1378	34.27434
	135.1379	34.27459
	135.1378	34.27479
	135.1376	34.27499
	135.1375	34.27514
	135.1375	34.27531
	135.1377	34.27556
	135.1377	34.27625
	135.1379	34.27634
	135.1381	34.27653
	135.1383	34.27681
	135.1384	34.277
	135.1384	34.27725
	135.1385	34.27751
	135.1386	34.27786
	135.1386	34.27806
	135.1385	34.27825
	135.1385	34.27846
	135.1386	34.27861
	135.1388	34.27886
	135.1394	34.27938
	135.1395	34.27972
	135.1395	34.28024
	135.1393	34.28046
	135.1391	34.28053
	135.1391	34.28063
	135.1392	34.28111
	135.1392	34.28123
	135.1394	34.28145
	135.1396	34.2818
	135.1396	34.28189
	135.1399	34.28194
	135.1403	34.2819
	135.1408	34.282
	135.141	34.28201
	135.1412	34.28187
	135.1414	34.28166
	135.1416	34.28136
	135.1429	34.28042
	135.1432	34.28039
	135.1434	34.28041
	135.1435	34.28049
	135.144	34.28116
	135.1444	34.28145
	135.1451	34.28189
	135.1457	34.2825
	135.1463	34.28339
	135.1465	34.28365
	135.1466	34.28374
	135.1468	34.28381
	135.1473	34.28379
	135.1476	34.28386
	135.148	34.28386
	135.1482	34.28377
	135.1482	34.28374
	135.1485	34.28356
	135.1486	34.28335
	135.1489	34.28297
	135.1491	34.28287
	135.1492	34.28286
	135.1502	34.28254
	135.1506	34.28233
	135.1509	34.28226
	135.1514	34.28229
	135.1516	34.28235
	135.1518	34.2823
	135.152	34.28211
	135.1522	34.28211
	135.1523	34.28213
	135.1527	34.28228
	135.1532	34.2824
	135.1534	34.28233
	135.1536	34.28209
	135.1537	34.28189
	135.1538	34.2814
	135.1539	34.28131
	135.1542	34.28122
	135.1547	34.28113
	135.1548	34.28104
	135.1548	34.28088
	135.1546	34.28045
	135.1542	34.28003
	135.1539	34.27975
	135.1535	34.27948
	135.1534	34.27932
	135.1534	34.27867
	135.1538	34.2776
	135.1539	34.27705
	135.154	34.27675
	135.154	34.27657
	135.1539	34.27633
	135.1537	34.27616
	135.1534	34.27552
	135.1533	34.27535
	135.1532	34.27523
	135.1531	34.27517
	135.1526	34.27515
	135.1526	34.2751
	135.1524	34.27497
	135.1523	34.2747
	135.1523	34.27454
	135.1524	34.27449
	135.1529	34.27445
	135.1533	34.27431
	135.1536	34.27426
	135.1538	34.27428
	135.1541	34.27441
	135.1545	34.27468
	135.1548	34.27492
	135.1554	34.27534
	135.1558	34.27568
	135.1559	34.27584
	135.156	34.27608
	135.1563	34.27638
	135.1567	34.27674
	135.1574	34.27708
	135.1577	34.27713
	135.158	34.27713
	135.1585	34.277
	135.1587	34.27702
	135.1592	34.27723
	135.1595	34.27743
	135.16	34.27782
	135.1601	34.27793
	135.1603	34.27795
	135.1604	34.27793
	135.1605	34.27786
	135.1609	34.27749
	135.1609	34.27745
	135.161	34.27749
	135.1613	34.27772
	135.1614	34.27786
	135.162	34.27802
	135.1625	34.27811
	135.1626	34.27816
	135.1628	34.27833
	135.1633	34.27861
	135.1637	34.27864
	135.1648	34.27868
	135.1655	34.27875
	135.1657	34.27882
	135.1659	34.27895
	135.1661	34.27938
	135.1663	34.27969
	135.1664	34.27978
	135.1669	34.27993
	135.1673	34.27998
	135.1683	34.28005
	135.1691	34.28014
	135.1695	34.28023
	135.1696	34.28021
	135.1698	34.28011
	135.1699	34.27996
	135.17	34.27991
	135.1702	34.27991
	135.1707	34.28019
	135.1715	34.28059
	135.1718	34.28061
	135.172	34.28059
	135.1723	34.28048
	135.1727	34.28023
	135.1729	34.28025
	135.1732	34.28023
	135.1739	34.28004
	135.1748	34.27993
	135.175	34.27983
	135.1759	34.27991
	135.1762	34.27985
	135.1764	34.27983
	135.1769	34.27972
	135.1774	34.27952
	135.1779	34.27915
	135.178	34.27906
	135.1786	34.27889
	135.1789	34.27889
	135.1792	34.27894
	135.1794	34.27904
	135.1795	34.27911
	135.1797	34.27934
	135.1798	34.27955
	135.1801	34.27982
	135.1803	34.2799
	135.1807	34.27989
	135.1809	34.27975
	135.1816	34.27946
	135.1825	34.27931
	135.1828	34.27918
	135.183	34.27905
	135.1832	34.27882
	135.1834	34.27877
	135.1837	34.27877
	135.1843	34.27883
	135.1845	34.27891
	135.1846	34.27913
	135.1848	34.27998
	135.1848	34.28094
	135.1849	34.28112
	135.185	34.28124
	135.1853	34.28131
	135.1856	34.28135
	135.1858	34.28146
	135.1862	34.28179
	135.1864	34.28205
	135.1874	34.28297
	135.1878	34.28322
	135.188	34.28328
	135.1882	34.28323
	135.1888	34.28297
	135.1894	34.28278
	135.1896	34.28278
	135.1897	34.28283
	135.1899	34.28306
	135.1903	34.28378
	135.1907	34.28438
	135.1907	34.28469
	135.1908	34.28492
	135.1912	34.28552
	135.1912	34.28556
	135.1916	34.28646
	135.1918	34.2866
	135.1924	34.2868
	135.1936	34.28702
	135.1939	34.287
	135.1941	34.28693
	135.1945	34.28691
	135.1947	34.2868
	135.1951	34.28643
	135.1956	34.28613
	135.1958	34.28603
	135.1962	34.28601
	135.1964	34.28602
	135.1966	34.28621
	135.1969	34.28643
	135.1974	34.2867
	135.1976	34.28703
	135.1978	34.28729
	135.1983	34.28782
	135.1985	34.288
	135.1987	34.28806
	135.1989	34.28807
	135.199	34.28802
	135.1994	34.28758
	135.1995	34.28755
	135.1996	34.28747
	135.1998	34.28747
	135.2002	34.28758
	135.2006	34.28776
	135.2016	34.28825
	135.2017	34.28821
	135.2022	34.28795
	135.2025	34.28772
	135.2027	34.28762
	135.2028	34.2876
	135.2028	34.28762
	135.2034	34.28806
	135.2037	34.28813
	135.204	34.2881
	135.2043	34.28805
	135.2045	34.28805
	135.2046	34.28807
	135.2051	34.28826
	135.2052	34.28835
	135.2052	34.28863
	135.2049	34.2896
	135.2044	34.29021
	135.2044	34.29079
	135.2045	34.29096
	135.2046	34.29125
	135.2047	34.29148
	135.2047	34.29324
	135.2048	34.29361
	135.2048	34.29552
	135.2049	34.29595
	135.2049	34.29625
	135.2048	34.29654
	135.2045	34.2972
	135.2044	34.2975
	135.2043	34.29771
	135.2043	34.29794
	135.2045	34.29842
	135.2047	34.29906
	135.2049	34.29931
	135.205	34.29985
	135.2052	34.30038
	135.2053	34.30053
	135.2054	34.30054
	135.2056	34.30061
	135.2061	34.3007
	135.2066	34.30104
	135.2072	34.30163
	135.2079	34.30224
	135.208	34.30239
	135.2083	34.30258
	135.2085	34.30282
	135.2086	34.30309
	135.2086	34.30345
	135.2085	34.30377
	135.2083	34.30452
	135.2083	34.30502
	135.2082	34.30554
	135.2082	34.30602
	135.2084	34.30644
	135.2085	34.30671
	135.2085	34.30719
	135.2084	34.30736
	135.2082	34.30794
	135.208	34.3082
	135.2082	34.30812
	135.2091	34.30808
	135.2093	34.30803
	135.2094	34.30796
	135.2098	34.30761
	135.2101	34.30729
	135.2103	34.3071
	135.211	34.30661
	135.2112	34.30651
	135.2114	34.30644
	135.2123	34.3064
	135.2127	34.30633
	135.2132	34.30619
	135.2135	34.30595
	135.2136	34.30591
	135.2142	34.30574
	135.2145	34.30563
	135.2153	34.30526
	135.2156	34.3051
	135.2158	34.30505
	135.2159	34.30505
	135.2177	34.30514
	135.2187	34.30516
	135.219	34.30507
	135.2197	34.30496
	135.2198	34.30487
	135.2203	34.30464
	135.2206	34.30444
	135.2208	34.30425
	135.2211	34.30409
	135.2214	34.30395
	135.2218	34.30385
	135.2221	34.3037
	135.223	34.30299
	135.2241	34.30201
	135.2245	34.30168
	135.2246	34.30148
	135.2248	34.30096
	135.2248	34.30087
	135.225	34.30086
	135.2258	34.3011
	135.2277	34.30157
	135.2301	34.30219
	135.2312	34.3025
	135.2319	34.3026
	135.2336	34.30312
	135.2353	34.30355
	135.2355	34.30364
	135.2356	34.30373
	135.2355	34.30385
	135.2355	34.3039
	135.2357	34.30413
	135.236	34.3048
	135.236	34.30486
	135.2362	34.30542
	135.2363	34.30548
	135.2366	34.30558
	135.237	34.30578
	135.2373	34.3059
	135.2376	34.30596
	135.2378	34.30612
	135.238	34.30638
	135.2384	34.30651
	135.2385	34.30667
	135.2385	34.30682
	135.2387	34.30698
	135.2388	34.30709
	135.2394	34.30752
	135.2398	34.30777
	135.2403	34.30794
	135.2405	34.30815
	135.2408	34.30827
	135.2409	34.3083
	135.2411	34.3083
	135.2413	34.30832
	135.2414	34.3084
	135.2416	34.30884
	135.2417	34.30896
	135.2419	34.30902
	135.2421	34.30904
	135.2423	34.3091
	135.2424	34.30939
	135.2426	34.30969
	135.2428	34.30986
	135.243	34.30992
	135.2432	34.30992
	135.2434	34.30994
	135.2436	34.30998
	135.2437	34.31006
	135.2439	34.31028
	135.2439	34.31032
	135.244	34.3105
	135.2441	34.31059
	135.2444	34.31074
	135.2445	34.31081
	135.2447	34.31101
	135.2447	34.31111
	135.2451	34.31133
	135.2459	34.31181
	135.2461	34.31199
	135.2463	34.31229
	135.2465	34.31288
	135.2465	34.3131
	135.2466	34.31322
	135.2466	34.31329
	135.2467	34.31332
	135.2472	34.31321
	135.2476	34.31305
	135.248	34.31301
	135.2482	34.31305
	135.2484	34.31338
	135.2488	34.3142
	135.249	34.31437
	135.2498	34.31445
	135.2501	34.31461
	135.2506	34.31464
	135.2515	34.31488
	135.2519	34.31488
	135.2523	34.31483
	135.2524	34.31484
	135.2526	34.31494
	135.2529	34.3152
	135.2534	34.31533
	135.2538	34.3155
	135.2542	34.31575
	135.2545	34.31577
	135.2551	34.31569
	135.2555	34.3157
	135.2558	34.31583
	135.256	34.31582
	135.2566	34.31561
	135.2566	34.31559
	135.2569	34.31558
	135.2576	34.3157
	135.2579	34.31568
	135.2582	34.31551
	135.2586	34.3151
	135.259	34.31488
	135.2593	34.31466
	135.2596	34.31429
	135.2602	34.31404
	135.2608	34.31348
	135.2617	34.31254
	135.2619	34.31252
	135.2624	34.3128
	135.2631	34.31315
	135.2639	34.31312
	135.2641	34.31314
	135.2643	34.31321
	135.2645	34.31318
	135.265	34.31297
	135.2653	34.31289
	135.2656	34.31278
	135.2659	34.31265
	135.2665	34.31263
	135.2676	34.31252
	135.2686	34.3124
	135.271	34.31247
	135.2716	34.31242
	135.2719	34.31236
	135.2721	34.31206
	135.2722	34.31201
	135.2723	34.31198
	135.2727	34.31221
	135.2734	34.31296
	135.2737	34.31325
	135.2746	34.31348
	135.2751	34.31384
	135.276	34.31401
	135.2765	34.31423
	135.2769	34.31459
	135.2772	34.31524
	135.2772	34.31551
	135.2774	34.31562
	135.2783	34.31585
	135.2786	34.31595
	135.279	34.3158
	135.2792	34.31581
	135.2796	34.31599
	135.2799	34.31631
	135.2801	34.31636
	135.2805	34.31632
	135.2809	34.3164
	135.2812	34.31663
	135.2819	34.31705
	135.2825	34.31775
	135.2825	34.31786
	135.2828	34.31791
	135.2832	34.31764
	135.2835	34.31723
	135.2846	34.31617
	135.285	34.31562
	135.2855	34.31456
	135.2858	34.314
	135.2863	34.31337
	135.2866	34.31258
	135.2866	34.31228
	135.2865	34.31185
	135.2864	34.31132
	135.2859	34.3104
	135.286	34.31011
	135.286	34.31003
	135.2862	34.30976
	135.2864	34.3094
	135.2866	34.30798
	135.2866	34.30782
	135.2868	34.30748
	135.287	34.30675
	135.2871	34.30658
	135.2873	34.30647
	135.2874	34.30645
	135.2876	34.30644
	135.2877	34.30633
	135.2878	34.30606
	135.2879	34.30587
	135.2877	34.30556
	135.2879	34.3049
	135.2885	34.30392
	135.2892	34.30315
	135.2893	34.30291
	135.2896	34.30203
	135.2897	34.30195
	135.2898	34.3017
	135.2905	34.3011
	135.2909	34.30059
	135.2912	34.29996
	135.2916	34.29955
	135.292	34.29952
	135.2929	34.29924
	135.2934	34.29929
	135.2934	34.29937
	135.2935	34.29988
	135.2938	34.30004
	135.2944	34.30009
	135.2948	34.30049
	135.2951	34.30024
	135.2956	34.30019
	135.2958	34.30029
	135.2959	34.30117
	135.296	34.30136
	135.2972	34.30089
	135.2976	34.30078
	135.2976	34.30081
	135.298	34.30106
	135.2982	34.30146
	135.2984	34.30252
	135.2986	34.3027
	135.2989	34.30268
	135.3003	34.30248
	135.3006	34.30252
	135.3008	34.30262
	135.3009	34.30284
	135.3008	34.30313
	135.3009	34.30331
	135.3015	34.30365
	135.3016	34.30391
	135.3015	34.30427
	135.3015	34.30446
	135.3017	34.30455
	135.3023	34.30455
	135.3025	34.30466
	135.3026	34.30488
	135.3026	34.30554
	135.3027	34.30582
	135.3028	34.30646
	135.3029	34.30652
	135.303	34.30656
	135.3031	34.30663
	135.3033	34.30736
	135.3039	34.30859
	135.3041	34.30919
	135.3045	34.30993
	135.3046	34.31064
	135.3046	34.31118
	135.3044	34.31164
	135.3041	34.31213
	135.3039	34.31261
	135.3039	34.31316
	135.304	34.31372
	135.3047	34.3139
	135.307	34.31445
	135.3076	34.31445
	135.3086	34.31382
	135.3088	34.31342
	135.3092	34.31332
	135.3096	34.31326
	135.3098	34.31329
	135.3102	34.3135
	135.3109	34.31362
	135.3114	34.31358
	135.3116	34.3137
	135.3119	34.31395
	135.3123	34.31401
	135.3128	34.31399
	135.3132	34.31409
	135.3133	34.31423
	135.3134	34.31448
	135.3139	34.31478
	135.3141	34.31508
	135.3144	34.31508
	135.3149	34.31518
	135.3159	34.31559
	135.3164	34.31544
	135.3167	34.31546
	135.3177	34.31579
	135.318	34.316
	135.3181	34.3162
	135.3185	34.31635
	135.3194	34.31646
	135.3197	34.31656
	135.3202	34.31708
	135.3208	34.31739
	135.3216	34.31768
	135.3222	34.31775
	135.3224	34.31791
	135.3226	34.31833
	135.3229	34.31855
	135.3242	34.31913
	135.3252	34.31908
	135.3259	34.31915
	135.3267	34.31901
	135.3274	34.31875
	135.3281	34.31861
	135.3289	34.31816
	135.3294	34.3177
	135.3298	34.31718
	135.3304	34.3167
	135.3305	34.31675
	135.3305	34.31702
	135.3302	34.31789
	135.3301	34.31839
	135.3305	34.31954
	135.3304	34.31971
	135.33	34.32
	135.3297	34.32044
	135.329	34.32116
	135.3287	34.32126
	135.3285	34.32144
	135.3284	34.32223
	135.328	34.32306
	135.3279	34.32363
	135.3279	34.32375
	135.328	34.32403
	135.3285	34.32414
	135.3294	34.32456
	135.3299	34.3251
	135.3302	34.32525
	135.3312	34.32542
	135.3319	34.32562
	135.3326	34.32574
	135.333	34.32565
	135.3332	34.32567
	135.3335	34.32578
	135.3336	34.32578
	135.3338	34.32573
	135.3341	34.32558
	135.3342	34.32556
	135.3344	34.32561
	135.3346	34.32568
	135.3347	34.3258
	135.3349	34.32613
	135.3355	34.32634
	135.3356	34.32648
	135.3357	34.327
	135.336	34.3272
	135.3363	34.32737
	135.3364	34.32748
	135.3372	34.32773
	135.3391	34.32943
	135.3393	34.32969
	135.3393	34.32982
	135.3391	34.33074
	135.3392	34.33127
	135.3395	34.33196
	135.3394	34.33209
	135.3391	34.33266
	135.3389	34.33363
	135.3387	34.33404
	135.3383	34.33442
	135.3375	34.3349
	135.3375	34.33497
	135.3376	34.33505
	135.3382	34.33528
	135.3384	34.33527
	135.3387	34.33505
	135.3388	34.33499
	135.3389	34.33496
	135.3392	34.33496
	135.3402	34.33529
	135.3408	34.33527
	135.3414	34.33533
	135.342	34.33521
	135.3422	34.33511
	135.3423	34.33491
	135.3425	34.33467
	135.3427	34.33456
	135.3427	34.33454
	135.3429	34.33446
	135.3433	34.33398
	135.3435	34.33368
	135.3441	34.33299
	135.3442	34.33269
	135.3444	34.33254
	135.3449	34.33228
	135.3454	34.33158
	135.3456	34.33075
	135.3459	34.33053
	135.3462	34.3305
	135.3464	34.33064
	135.3467	34.33071
	135.3469	34.33086
	135.347	34.3309
	135.3471	34.33092
	135.3474	34.33083
	135.348	34.33096
	135.3482	34.33107
	135.3486	34.3315
	135.3494	34.33175
	135.3499	34.3316
	135.3503	34.33166
	135.3521	34.3322
	135.3525	34.33223
	135.3531	34.3321
	135.3537	34.33194
	135.3539	34.33198
	135.354	34.33209
	135.3542	34.33222
	135.3546	34.33272
	135.3552	34.33306
	135.3555	34.33342
	135.3557	34.33345
	135.3559	34.33337
	135.356	34.33323
	135.356	34.33313
	135.3562	34.33302
	135.3565	34.33301
	135.3571	34.33317
	135.3576	34.33337
	135.3579	34.33314
	135.3583	34.33305
	135.359	34.33304
	135.3593	34.33276
	135.3596	34.3326
	135.3597	34.33223
	135.3599	34.33208
	135.3603	34.33188
	135.3603	34.33131
	135.3604	34.33121
	135.3606	34.33095
	135.3609	34.33049
	135.3613	34.32998
	135.3617	34.32935
	135.3622	34.32903
	135.3625	34.32894
	135.3627	34.329
	135.3631	34.32942
	135.3634	34.3297
	135.3635	34.32977
	135.3639	34.32971
	135.3644	34.32978
	135.3647	34.32957
	135.365	34.32955
	135.3654	34.32968
	135.3663	34.32971
	135.3667	34.32988
	135.3668	34.33004
	135.3668	34.3302
	135.367	34.33071
	135.3674	34.33098
	135.3678	34.33111
	135.3682	34.33116
	135.3685	34.33113
	135.3688	34.33084
	135.3694	34.33058
	135.3705	34.33024
	135.3714	34.33015
	135.3722	34.3303
	135.3731	34.33049
	135.3733	34.3306
	135.3741	34.33096
	135.375	34.33107
	135.3755	34.33103
	135.3759	34.33087
	135.3762	34.3305
	135.3767	34.33019
	135.3776	34.33014
	135.3779	34.33004
	135.3782	34.32982
	135.3787	34.32953
	135.3793	34.32895
	135.3796	34.32871
	135.38	34.32849
	135.3803	34.32844
	135.3806	34.32857
	135.3814	34.32905
	135.3817	34.32911
	135.3827	34.32942
	135.3829	34.32944
	135.3835	34.3294
	135.384	34.3295
	135.3849	34.32934
	135.3859	34.32928
	135.3868	34.32912
	135.3869	34.3293
	135.3877	34.33123
	135.3881	34.33227
	135.3882	34.33242
	135.3887	34.33249
	135.3898	34.33259
	135.3908	34.33296
	135.3911	34.33301
	135.3916	34.33259
	135.3921	34.33239
	135.3926	34.33191
	135.393	34.33176
	135.3933	34.33167
	135.3936	34.33139
	135.3937	34.3312
	135.3944	34.33081
	135.3947	34.3309
	135.3949	34.33094
	135.3951	34.33093
	135.3954	34.33085
	135.3957	34.33087
	135.3961	34.33069
	135.3963	34.3305
	135.3967	34.33037
	135.397	34.33039
	135.3974	34.33053
	135.3979	34.3314
	135.3982	34.33183
	135.3987	34.33225
	135.3991	34.3325
	135.3996	34.33264
	135.4003	34.33257
	135.4008	34.33283
	135.401	34.33286
	135.4015	34.33278
	135.4017	34.33268
	135.4019	34.33272
	135.4023	34.33298
	135.4024	34.33306
	135.4025	34.33308
	135.4026	34.33348
	135.4029	34.33373
	135.4033	34.33389
	135.4041	34.3341
	135.4044	34.3341
	135.4048	34.33407
	135.4052	34.33395
	135.4054	34.33385
	135.4056	34.33388
	135.4057	34.33403
	135.4058	34.33432
	135.4059	34.33482
	135.406	34.33496
	135.4066	34.33528
	135.4068	34.33548
	135.4069	34.3362
	135.4071	34.33663
	135.407	34.33724
	135.407	34.33777
	135.4069	34.33856
	135.4069	34.33877
	135.4071	34.339
	135.4074	34.33931
	135.408	34.33983
	135.4083	34.34011
	135.4085	34.34054
	135.4086	34.34086
	135.4087	34.34142
	135.4088	34.34163
	135.409	34.34185
	135.4091	34.34191
	135.4092	34.34194
	135.4096	34.34196
	135.4104	34.34203
	135.4111	34.34204
	135.412	34.34201
	135.4124	34.34195
	135.4127	34.34181
	135.4128	34.34175
	135.4129	34.34165
	135.4141	34.34116
	135.4143	34.34101
	135.4144	34.3409
	135.4145	34.34066
	135.415	34.34031
	135.4152	34.34011
	135.4154	34.33996
	135.4156	34.3399
	135.4166	34.33978
	135.4168	34.33978
	135.4172	34.33984
	135.4174	34.3399
	135.4179	34.34016
	135.4182	34.34026
	135.4185	34.34031
	135.4189	34.34029
	135.4194	34.34016
	135.4202	34.34015
	135.4204	34.34013
	135.4212	34.33983
	135.4215	34.33977
	135.4217	34.33976
	135.4219	34.33981
	135.4229	34.34016
	135.4231	34.34029
	135.4235	34.34035
	135.4237	34.34034
	135.424	34.34027
	135.4245	34.34005
	135.4248	34.33997
	135.4249	34.33998
	135.4251	34.34006
	135.4254	34.34022
	135.4259	34.34057
	135.4261	34.34066
	135.4265	34.3408
	135.4267	34.34084
	135.4269	34.34101
	135.4269	34.34112
	135.427	34.34125
	135.427	34.3417
	135.4272	34.34203
	135.4274	34.34215
	135.4275	34.34227
	135.4276	34.34236
	135.4277	34.34242
	135.4279	34.34281
	135.4283	34.34349
	135.4283	34.34366
	135.4281	34.34391
	135.428	34.34413
	135.428	34.3444
	135.4281	34.34458
	135.4283	34.34478
	135.4284	34.34492
	135.4285	34.34523
	135.4287	34.34556
	135.4289	34.34572
	135.4293	34.34597
	135.4299	34.34623
	135.43	34.3463
	135.4302	34.34658
	135.4304	34.3468
	135.4306	34.34696
	135.4312	34.34721
	135.4316	34.34735
	135.4324	34.34746
	135.434	34.34787
	135.4341	34.34799
	135.4343	34.34814
	135.4343	34.34823
	135.4344	34.34832
	135.4346	34.34841
	135.4349	34.34843
	135.4351	34.34854
	135.4355	34.34867
	135.4356	34.34869
	135.4359	34.34865
	135.436	34.34865
	135.4362	34.34859
	135.4364	34.3484
	135.4365	34.34824
	135.4366	34.34817
	135.4368	34.34807
	135.437	34.34803
	135.4374	34.34804
	135.4376	34.34806
	135.4379	34.34803
	135.4386	34.34779
	135.4389	34.34773
	135.4393	34.34771
	135.4401	34.34786
	135.4406	34.34792
	135.4408	34.34786
	135.441	34.34773
	135.4413	34.34742
	135.4415	34.34737
	135.4418	34.34738
	135.4425	34.34752
	135.4442	34.34771
	135.4445	34.34778
	135.4464	34.34848
	135.447	34.34884
	135.4473	34.34927
	135.4475	34.3494
	135.4476	34.34942
	135.4478	34.34942
	135.448	34.34939
	135.4482	34.34934
	135.4486	34.34919
	135.4488	34.34919
	135.449	34.34921
	135.45	34.34948
	135.4504	34.34954
	135.4506	34.34955
	135.4508	34.34952
	135.4513	34.34921
	135.4515	34.34915
	135.4518	34.34911
	135.4519	34.34913
	135.4523	34.34927
	135.4525	34.34942
	135.4528	34.34969
	135.453	34.34983
	135.4531	34.34986
	135.4534	34.34986
	135.4536	34.34981
	135.4539	34.34969
	135.4544	34.34943
	135.4545	34.34941
	135.4547	34.34924
	135.4551	34.34898
	135.4552	34.34864
	135.4556	34.34805
	135.4558	34.3478
	135.4561	34.3477
	135.4576	34.34734
	135.4577	34.34732
	135.4579	34.34731
	135.4582	34.34734
	135.4593	34.34753
	135.46	34.3476
	135.4605	34.34781
	135.4608	34.34784
	135.4619	34.34775
	135.4622	34.34776
	135.4623	34.34781
	135.4628	34.34823
	135.463	34.34828
	135.4632	34.34828
	135.4635	34.34825
	135.4638	34.34812
	135.4639	34.3481
	135.4644	34.3479
	135.4649	34.34757
	135.4654	34.34736
	135.4655	34.34732
	135.4657	34.34734
	135.4659	34.34743
	135.4663	34.34771
	135.4665	34.348
	135.4669	34.34913
	135.4669	34.34929
	135.4671	34.34953
	135.4677	34.34995
	135.4679	34.35005
	135.4683	34.35015
	135.469	34.35019
	135.4696	34.3503
	135.4701	34.35047
	135.4704	34.35087
	135.4707	34.35112
	135.471	34.35131
	135.4713	34.3516
	135.4714	34.35176
	135.4715	34.35199
	135.4716	34.35212
	135.4716	34.35231
	135.4718	34.35255
	135.4722	34.35281
	135.4726	34.35298
	135.4732	34.35327
	135.4734	34.35328
	135.4735	34.35325
	135.4743	34.3529
	135.4747	34.35286
	135.4749	34.35288
	135.4756	34.35306
	135.4768	34.35308
	135.4771	34.35315
	135.4775	34.35329
	135.4777	34.35343
	135.4777	34.35355
	135.4778	34.35374
	135.4778	34.3539
	135.4777	34.35417
	135.4775	34.35454
	135.4772	34.35525
	135.4772	34.35536
	135.4773	34.35543
	135.4779	34.35599
	135.4781	34.35634
	135.4782	34.35642
	135.4786	34.35725
	135.4793	34.35812
	135.4794	34.35822
	135.4803	34.35851
	135.4806	34.35864
	135.4812	34.3591
	135.4815	34.35925
	135.4815	34.35935
	135.4816	34.35987
	135.4816	34.36002
	135.4819	34.36015
	135.4826	34.36055
	135.483	34.36084
	135.4838	34.36152
	135.4846	34.36227
	135.4854	34.36283
	135.4855	34.36265
	135.4857	34.36219
	135.4862	34.36124
	135.4867	34.36042
	135.4868	34.36015
	135.4871	34.35993
	135.4874	34.35967
	135.4874	34.35868
	135.4875	34.35853
	135.488	34.35788
	135.4882	34.35756
	135.4883	34.35696
	135.4887	34.35637
	135.4888	34.35631
	135.489	34.3563
	135.4892	34.35626
	135.4894	34.35616
	135.4895	34.35595
	135.4896	34.35563
	135.4898	34.35547
	135.4899	34.35535
	135.4904	34.35508
	135.4906	34.35499
	135.4909	34.35501
	135.4914	34.35502
	135.4919	34.35484
	135.492	34.35479
	135.4928	34.35468
	135.4932	34.35458
	135.4936	34.35441
	135.494	34.35403
	135.4941	34.35386
	135.4943	34.35373
	135.4945	34.35357
	135.4957	34.35315
	135.4967	34.35275
	135.4969	34.35264
	135.4975	34.3524
	135.4975	34.35236
	135.4977	34.35238
	135.4978	34.35231
	135.4981	34.3519
	135.4982	34.35161
	135.4982	34.35099
	135.4985	34.35051
	135.4988	34.35033
	135.4992	34.35024
	135.4997	34.35018
	135.5003	34.3502
	135.5012	34.35032
	135.5016	34.35025
	135.5017	34.3502
	135.5019	34.34998
	135.5021	34.34934
	135.5023	34.34909
	135.5026	34.34879
	135.5027	34.34861
	135.5028	34.34813
	135.5029	34.34788
	135.5033	34.34744
	135.5036	34.34688
	135.5036	34.34654
	135.5033	34.34631
	135.5024	34.34543
	135.5023	34.3453
	135.5023	34.34509
	135.5028	34.34414
	135.5029	34.34381
	135.5033	34.34349
	135.5036	34.34321
	135.5038	34.34275
	135.504	34.34257
	135.5046	34.34192
	135.5048	34.34157
	135.5049	34.3413
	135.5049	34.34122
	135.5048	34.34057
	135.5046	34.33981
	135.5044	34.3394
	135.504	34.33899
	135.5033	34.33863
	135.5027	34.33837
	135.5024	34.3383
	135.5024	34.33829
	135.5023	34.33828
	135.5023	34.33822
	135.5024	34.33809
	135.5024	34.33799
	135.5026	34.3378
	135.5029	34.33742
	135.5032	34.33721
	135.5034	34.33689
	135.5035	34.33663
	135.5035	34.33654
	135.5037	34.33646
	135.5041	34.33634
	135.5045	34.33624
	135.5047	34.33626
	135.505	34.33641
	135.5054	34.33648
	135.5058	34.33644
	135.506	34.33635
	135.5063	34.33628
	135.5066	34.33632
	135.5068	34.33642
	135.5074	34.33648
	135.5078	34.3365
	135.5082	34.33663
	135.5083	34.33669
	135.5085	34.33678
	135.5089	34.3368
	135.509	34.33684
	135.5094	34.33702
	135.5097	34.33726
	135.5104	34.33749
	135.512	34.33833
	135.5129	34.33903
	135.5135	34.33942
	135.5138	34.33969
	135.5139	34.33971
	135.5143	34.33996
	135.5143	34.34003
	135.5145	34.34019
	135.5155	34.34117
	135.5162	34.34198
	135.5167	34.34238
	135.5177	34.34296
	135.5181	34.34328
	135.5194	34.34422
	135.5197	34.34448
	135.5198	34.3447
	135.5199	34.34511
	135.5199	34.34524
	135.5202	34.34539
	135.5204	34.34545
	135.5212	34.34542
	135.5215	34.3455
	135.5215	34.34563
	135.5218	34.3461
	135.5223	34.3466
	135.5226	34.34683
	135.523	34.34743
	135.5233	34.348
	135.5236	34.34845
	135.5246	34.34924
	135.525	34.3496
	135.5253	34.34972
	135.5254	34.34989
	135.5255	34.35014
	135.5258	34.35041
	135.5272	34.35123
	135.5281	34.35131
	135.5292	34.35143
	135.53	34.35148
	135.5306	34.35148
	135.5309	34.35145
	135.531	34.35135
	135.5311	34.35114
	135.5313	34.3511
	135.5315	34.35108
	135.5319	34.35115
	135.5322	34.35129
	135.5323	34.35129
	135.5324	34.35135
	135.5328	34.35154
	135.5332	34.35181
	135.5334	34.35187
	135.5338	34.35189
	135.5342	34.35194
	135.5345	34.3521
	135.5349	34.35236
	135.5351	34.3526
	135.5354	34.35301
	135.5356	34.35324
	135.5361	34.3537
	135.5375	34.35559
	135.5383	34.35646
	135.5391	34.35714
	135.5397	34.35751
	135.5402	34.35765
	135.5408	34.35771
	135.5409	34.35769
	135.5415	34.35763
	135.5417	34.35749
	135.5418	34.3574
	135.5426	34.35705
	135.543	34.3568
	135.5435	34.35655
	135.5438	34.35651
	135.5444	34.35657
	135.5449	34.35665
	135.5458	34.35689
	135.5458	34.35688
	135.546	34.35686
	135.5465	34.35662
	135.5471	34.35655
	135.5474	34.35657
	135.5479	34.35669
	135.5483	34.3569
	135.5488	34.35733
	135.5494	34.35762
	135.5501	34.35789
	135.5506	34.35824
	135.5507	34.35835
	135.5508	34.35852
	135.5508	34.35856
	135.5512	34.35929
	135.5516	34.35967
	135.5518	34.3597
	135.5519	34.3597
	135.5524	34.35945
	135.5532	34.35931
	135.5537	34.35939
	135.5541	34.35943
	135.5544	34.35943
	135.5547	34.35953
	135.5554	34.36006
	135.5556	34.36027
	135.5566	34.36103
	135.5567	34.36123
	135.5568	34.36178
	135.5569	34.36195
	135.5575	34.36244
	135.558	34.36309
	135.5584	34.36352
	135.5594	34.36474
	135.5599	34.36509
	135.5608	34.36537
	135.5615	34.36622
	135.5617	34.36652
	135.5617	34.36704
	135.562	34.36752
	135.5622	34.36776
	135.5626	34.36829
	135.5628	34.36877
	135.5634	34.36933
	135.5643	34.36981
	135.5647	34.37011
	135.565	34.37024
	135.5652	34.37029
	135.5654	34.37031
	135.5658	34.37031
	135.5664	34.37037
	135.5666	34.37048
	135.5669	34.37069
	135.5669	34.37085
	135.5667	34.37126
	135.5667	34.37164
	135.5669	34.37176
	135.5671	34.37183
	135.5675	34.37179
	135.5677	34.37173
	135.5686	34.37129
	135.5695	34.37099
	135.5697	34.37096
	135.5698	34.37101
	135.5705	34.37149
	135.5714	34.37166
	135.5724	34.37191
	135.5728	34.37206
	135.5729	34.37219
	135.5731	34.37292
	135.5733	34.37327
	135.5738	34.37359
	135.5741	34.37371
	135.5753	34.37371
	135.5755	34.37377
	135.5756	34.37388
	135.5759	34.37488
	135.5759	34.37492
	135.576	34.37505
	135.5763	34.37534
	135.5768	34.37588
	135.5771	34.37605
	135.5773	34.37605
	135.5781	34.37589
	135.5785	34.37587
	135.5787	34.37591
	135.579	34.37614
	135.5793	34.37623
	135.5815	34.37663
	135.5818	34.37671
	135.5824	34.3769
	135.583	34.37696
	135.5834	34.37689
	135.5839	34.37656
	135.5842	34.37619
	135.5843	34.37612
	135.5843	34.37603
	135.5848	34.37594
	135.5853	34.37582
	135.5864	34.37535
	135.5867	34.3753
	135.5871	34.3754
	135.5882	34.37564
	135.5884	34.37563
	135.5887	34.37557
	135.59	34.37514
	135.5902	34.3753
	135.5903	34.37552
	135.5904	34.37556
	135.5905	34.37551
	135.5906	34.37537
	135.5908	34.37516
	135.591	34.37513
	135.5915	34.37536
	135.5917	34.37539
	135.5919	34.37534
	135.592	34.37529
	135.592	34.37521
	135.5921	34.37518
	135.5921	34.37509
	135.5922	34.37504
	135.5923	34.37492
	135.5927	34.37482
	135.593	34.37481
	135.5931	34.37483
	135.5933	34.37488
	135.5942	34.37519
	135.5945	34.37524
	135.595	34.37538
	135.5951	34.37554
	135.5952	34.37577
	135.5953	34.37618
	135.5955	34.37652
	135.5961	34.37714
	135.5961	34.37743
	135.596	34.37756
	135.596	34.3776
	135.5959	34.37774
	135.596	34.37815
	135.5959	34.3783
	135.5959	34.37855
	135.5958	34.37865
	135.5958	34.37886
	135.5959	34.37907
	135.5959	34.37921
	135.5964	34.37947
	135.5967	34.37974
	135.5974	34.38023
	135.5977	34.3804
	135.5978	34.38039
	135.5982	34.38026
	135.5983	34.38022
	135.5983	34.38021
	135.5988	34.38013
	135.6008	34.38013
	135.6011	34.38012
	135.6014	34.38008
	135.6016	34.37997
	135.6017	34.37973
	135.6017	34.37942
	135.6018	34.37919
	135.6018	34.37848
	135.6024	34.3781
	135.6033	34.37801
	135.6035	34.37792
	135.6039	34.37763
	135.6041	34.37739
	135.6043	34.37729
	135.6046	34.37727
	135.605	34.3774
	135.6052	34.37748
	135.6056	34.37749
	135.606	34.37748
	135.6074	34.37767
	135.6078	34.37764
	135.6087	34.37743
	135.6099	34.37717
	135.6114	34.37701
	135.6121	34.37678
	135.6133	34.37658
	135.6137	34.37663
	135.6141	34.37681
	135.6144	34.37704
	135.6146	34.37727
	135.6154	34.37807
	135.6157	34.37842
	135.6157	34.37866
	135.6158	34.37869
	135.6161	34.37948
	135.6167	34.38021
	135.6175	34.38183
	135.6176	34.382
	135.6175	34.38222
	135.6178	34.38327
	135.6181	34.38355
	135.6184	34.38376
	135.6191	34.38403
	135.6193	34.38414
	135.6195	34.38435
	135.6197	34.38446
	135.6199	34.38448
	135.6202	34.38444
	135.6207	34.38435
	135.621	34.38433
	135.6212	34.38435
	135.6213	34.38438
	135.6215	34.38437
	135.6222	34.38415
	135.6227	34.38396
	135.6231	34.38373
	135.6235	34.38356
	135.624	34.38357
	135.6248	34.38342
	135.6251	34.38333
	135.6254	34.38307
	135.6256	34.38307
	135.6258	34.38326
	135.6258	34.38338
	135.6259	34.38351
	135.626	34.38373
	135.6261	34.38381
	135.6273	34.38379
	135.6277	34.3837
	135.628	34.3836
	135.6288	34.38337
	135.629	34.38333
	135.6294	34.38311
	135.6295	34.38311
	135.6298	34.38329
	135.6301	34.38333
	135.6307	34.38328
	135.6317	34.38311
	135.6319	34.38304
	135.6325	34.38263
	135.6328	34.38255
	135.6333	34.38255
	135.634	34.38241
	135.6344	34.38231
	135.6351	34.38207
	135.6356	34.38185
	135.6362	34.38155
	135.6364	34.38148
	135.6374	34.38163
	135.6379	34.38176
	135.6383	34.38188
	135.6387	34.38208
	135.639	34.38216
	135.6391	34.3823
	135.6391	34.38261
	135.6388	34.3829
	135.6387	34.38313
	135.6387	34.38329
	135.6388	34.3834
	135.639	34.38347
	135.6394	34.38332
	135.6399	34.38331
	135.6402	34.38337
	135.6405	34.38347
	135.6407	34.38356
	135.6422	34.38351
	135.6427	34.38358
	135.6435	34.38383
	135.6438	34.38388
	135.6444	34.38381
	135.6449	34.38371
	135.6453	34.38347
	135.6456	34.38343
	135.6462	34.38345
	135.6475	34.38356
	135.6486	34.38369
	135.6489	34.3837
	135.6498	34.38349
	135.6504	34.38331
	135.6508	34.38322
	135.6511	34.38321
	135.6511	34.38317
	135.6512	34.38311
	135.6513	34.3824
	135.6513	34.38197
	135.6513	34.38163
	135.6512	34.38128
	135.6512	34.38097
	135.6513	34.3805
	135.6514	34.38048
	135.6515	34.38065
	135.652	34.38046
	135.652	34.38044
	135.652	34.38042
	135.6526	34.38058
	135.6528	34.38059
	135.6533	34.38043
	135.6534	34.38044
	135.6534	34.38045
	135.6536	34.38045
	135.654	34.38046
	135.654	34.38045
	135.6553	34.37985
	135.6553	34.3798
	135.6559	34.3786
	135.6559	34.37853
	135.6556	34.37731
	135.6555	34.37723
	135.6551	34.37671
	135.655	34.37666
	135.6545	34.37633
	135.6543	34.37627
	135.6538	34.37574
	135.6537	34.37568
	135.6532	34.3755
	135.6535	34.37498
	135.6538	34.37458
	135.6538	34.37455
	135.6541	34.37362
	135.6543	34.37306
	135.6546	34.37278
	135.6549	34.37252
	135.6551	34.37229
	135.6552	34.37219
	135.6553	34.37186
	135.6554	34.37162
	135.6554	34.37149
	135.6554	34.37105
	135.6554	34.37079
	135.6553	34.37077
	135.6551	34.37069
	135.655	34.37062
	135.655	34.37045
	135.655	34.37029
	135.6551	34.37004
	135.6551	34.3698
	135.655	34.36959
	135.655	34.36933
	135.6551	34.36908
	135.6552	34.36885
	135.6552	34.36861
	135.6553	34.36838
	135.6555	34.36811
	135.6556	34.36788
	135.6555	34.36741
	135.6556	34.36717
	135.6558	34.36688
	135.6558	34.36667
	135.6558	34.36636
	135.6558	34.36631
	135.6558	34.36623
	135.656	34.36607
	135.656	34.36603
	135.6561	34.36591
	135.6564	34.36559
	135.6565	34.36532
	135.6566	34.36482
	135.6567	34.36465
	135.657	34.36439
	135.6571	34.36422
	135.6573	34.36388
	135.6578	34.36353
	135.6579	34.3633
	135.6582	34.36282
	135.6584	34.36256
	135.6586	34.36218
	135.6589	34.36197
	135.6592	34.36158
	135.6594	34.36127
	135.6595	34.36112
	135.6596	34.36086
	135.6598	34.36053
	135.66	34.36021
	135.6602	34.36005
	135.6607	34.35988
	135.6607	34.3598
	135.6609	34.35964
	135.6611	34.35916
	135.6611	34.35904
	135.6611	34.35872
	135.661	34.35862
	135.6611	34.3584
	135.6613	34.35822
	135.6615	34.35816
	135.6618	34.35816
	135.662	34.3581
	135.6622	34.35791
	135.6623	34.35755
	135.6625	34.35724
	135.6626	34.35704
	135.663	34.35634
	135.6631	34.3559
	135.6632	34.35578
	135.6634	34.3556
	135.6635	34.35544
	135.6636	34.35483
	135.6635	34.35446
	135.6634	34.35424
	135.6632	34.35382
	135.6631	34.35351
	135.663	34.35312
	135.6631	34.35253
	135.6631	34.35211
	135.6629	34.35173
	135.6626	34.35128
	135.6622	34.35096
	135.6622	34.35088
	135.6622	34.35058
	135.6622	34.35038
	135.662	34.35014
	135.662	34.35003
	135.6621	34.34978
	135.6624	34.34957
	135.6626	34.34936
	135.6626	34.34914
	135.6625	34.34887
	135.6626	34.34853
	135.6624	34.34826
	135.6625	34.34815
	135.6629	34.34781
	135.6629	34.34764
	135.663	34.34749
	135.663	34.34732
	135.6629	34.34693
	135.6627	34.3467
	135.6624	34.34647
	135.6621	34.34609
	135.6618	34.34596
	135.6616	34.34583
	135.6615	34.34548
	135.6614	34.34517
	135.6612	34.34505
	135.6609	34.34495
	135.6608	34.3448
	135.6608	34.34462
	135.6614	34.34399
	135.6616	34.34378
	135.6617	34.34373
	135.6619	34.34385
	135.662	34.34389
	135.6621	34.34383
	135.6622	34.34378
	135.6623	34.34361
	135.6623	34.34344
	135.6623	34.34319
	135.6621	34.34303
	135.6615	34.34278
	135.6614	34.3426
	135.6613	34.34233
	135.6612	34.34208
	135.6609	34.34173
	135.6608	34.34135
	135.6605	34.34089
	135.6604	34.34071
	135.6604	34.34062
	135.6608	34.34038
	135.6611	34.34007
	135.6611	34.33983
	135.6611	34.33942
	135.6611	34.33875
	135.6613	34.33851
	135.6615	34.33825
	135.6615	34.33811
	135.6615	34.338
	135.6613	34.33793
	135.661	34.33781
	135.6606	34.33763
	135.6603	34.33748
	135.6599	34.33733
	135.6598	34.33725
	135.6598	34.33712
	135.66	34.33693
	135.6601	34.33686
	135.6602	34.33663
	135.6604	34.33633
	135.6604	34.3361
	135.6601	34.33584
	135.6599	34.33563
	135.6596	34.33554
	135.6595	34.33546
	135.6601	34.33497
	135.6601	34.33477
	135.6602	34.33465
	135.6601	34.33441
	135.6594	34.33414
	135.659	34.334
	135.659	34.3338
	135.6591	34.33334
	135.659	34.33288
	135.6594	34.33236
	135.6595	34.33115
	135.6598	34.33054
	135.6597	34.33025
	135.6598	34.33012
	135.6604	34.32947
	135.6604	34.32923
	135.6603	34.32909
	135.6601	34.3288
	135.6603	34.32839
	135.6604	34.32819
	135.6604	34.32802
	135.6603	34.32771
	135.6601	34.32708
	135.6601	34.32705
	135.6601	34.32694
	135.6603	34.32693
	135.6615	34.32735
	135.6619	34.32742
	135.6624	34.32733
	135.6625	34.32731
	135.6628	34.3272
	135.6631	34.3271
	135.664	34.32687
	135.6641	34.32686
	135.665	34.32682
	135.6651	34.32682
	135.666	34.3267
	135.6661	34.32665
	135.6663	34.3266
	135.6664	34.3265
	135.6666	34.32627
	135.6667	34.32611
	135.6671	34.32603
	135.6674	34.32605
	135.6677	34.32602
	135.6679	34.32589
	135.6681	34.32575
	135.6682	34.32524
	135.6682	34.32493
	135.6685	34.32452
	135.6685	34.32392
	135.6684	34.3236
	135.6684	34.32332
	135.6689	34.3229
	135.6689	34.32273
	135.6683	34.32215
	135.6684	34.32176
	135.6683	34.32144
	135.6683	34.32127
	135.6678	34.32031
	135.6676	34.31924
	135.6677	34.31902
	135.6677	34.31896
	135.6679	34.3188
	135.6686	34.31872
	135.6689	34.3186
	135.669	34.31846
	135.669	34.3182
	135.6689	34.31804
	135.6687	34.31798
	135.668	34.31823
	135.668	34.31817
	135.668	34.31796
	135.6684	34.31713
	135.6685	34.31641
	135.6687	34.31585
	135.6691	34.31537
	135.6691	34.31518
	135.6687	34.31438
	135.6677	34.31421
	135.6674	34.31413
	135.6674	34.31396
	135.6675	34.31377
	135.6678	34.31359
	135.6679	34.31341
	135.6677	34.31286
	135.6676	34.31242
	135.6673	34.31194
	135.6671	34.31185
	135.6669	34.31193
	135.6659	34.31238
	135.6657	34.31236
	135.6657	34.31225
	135.6659	34.31202
	135.6665	34.31177
	135.6667	34.31168
	135.667	34.31136
	135.667	34.31104
	135.6669	34.31065
	135.6667	34.31032
	135.6667	34.31013
	135.6669	34.30986
	135.6667	34.30964
	135.6665	34.30937
	135.6664	34.30869
	135.6666	34.30837
	135.667	34.30797
	135.6682	34.3072
	135.669	34.3067
	135.6689	34.30617
	135.6687	34.30586
	135.6683	34.30553
	135.6681	34.30528
	135.6679	34.30501
	135.6676	34.30495
	135.667	34.30508
	135.667	34.30497
	135.6671	34.30486
	135.6684	34.3044
	135.6688	34.30403
	135.669	34.30366
	135.669	34.30312
	135.6688	34.30296
	135.6686	34.30282
	135.6682	34.30295
	135.6678	34.30322
	135.6677	34.30313
	135.6677	34.30289
	135.6678	34.30268
	135.6685	34.30205
	135.6685	34.30203
	135.6686	34.30167
	135.6685	34.30152
	135.6684	34.30135
	135.6682	34.30125
	135.6674	34.3011
	135.6673	34.30098
	135.6673	34.30081
	135.6672	34.30062
	135.6673	34.30054
	135.6675	34.30054
	135.6678	34.30075
	135.6684	34.301
	135.6686	34.30103
	135.6688	34.30083
	135.6687	34.30062
	135.6684	34.30009
	135.6685	34.29966
	135.6685	34.29963
	135.6687	34.29966
	135.6691	34.29983
	135.6693	34.29981
	135.6694	34.29968
	135.6694	34.29957
	135.6689	34.29893
	135.6686	34.29829
	135.6687	34.29817
	135.6689	34.29824
	135.6692	34.2984
	135.6695	34.29842
	135.6697	34.29834
	135.6698	34.29805
	135.6697	34.29768
	135.6696	34.29742
	135.6692	34.29695
	135.6694	34.29686
	135.6699	34.29691
	135.6702	34.29676
	135.6705	34.29646
	135.6708	34.29638
	135.6718	34.29644
	135.672	34.2963
	135.6722	34.29611
	135.6723	34.29584
	135.6722	34.29568
	135.6712	34.29538
	135.671	34.29515
	135.671	34.29501
	135.6711	34.29494
	135.6714	34.29497
	135.6719	34.29525
	135.6721	34.29522
	135.6722	34.29512
	135.6723	34.29488
	135.6724	34.29456
	135.6721	34.29378
	135.6722	34.29366
	135.6725	34.29369
	135.6729	34.29381
	135.6733	34.2939
	135.6734	34.2938
	135.6735	34.2937
	135.6735	34.2932
	135.6736	34.293
	135.6741	34.29281
	135.6742	34.29257
	135.6741	34.29169
	135.6741	34.29121
	135.6743	34.29094
	135.6746	34.2907
	135.6754	34.29036
	135.6755	34.29012
	135.6755	34.28994
	135.6748	34.2895
	135.6747	34.28923
	135.6749	34.28897
	135.6752	34.28876
	135.6753	34.28842
	135.6752	34.2881
	135.6747	34.2878
	135.6744	34.28703
	135.674	34.28672
	135.6738	34.28648
	135.6738	34.28639
	135.6737	34.28566
	135.6734	34.28502
	135.6735	34.28484
	135.6737	34.28455
	135.6738	34.28423
	135.6737	34.28395
	135.6733	34.2833
	135.6732	34.283
	135.6732	34.28234
	135.6732	34.28228
	135.6728	34.28184
	135.6727	34.28157
	135.6728	34.28148
	135.6733	34.2813
	135.6736	34.28103
	135.6736	34.28017
	135.6737	34.28008
	135.674	34.28013
	135.6746	34.28049
	135.6748	34.28044
	135.6748	34.28028
	135.6747	34.28012
	135.6746	34.27965
	135.6745	34.27954
	135.6756	34.2789
	135.6759	34.27799
	135.6762	34.27784
	135.6768	34.27777
	135.6768	34.27766
	135.6765	34.2771
	135.6765	34.27683
	135.6765	34.2767
	135.6771	34.27641
	135.6772	34.27625
	135.6769	34.27589
	135.6768	34.27565
	135.677	34.27537
	135.677	34.27513
	135.6771	34.27463
	135.6774	34.27446
	135.6776	34.27466
	135.6787	34.27443
	135.6791	34.27422
	135.6793	34.27387
	135.6796	34.27379
	135.6796	34.27378
	135.6802	34.27372
	135.6804	34.27353
	135.6804	34.2734
	135.6799	34.27299
	135.6795	34.27266
	135.6794	34.27233
	135.6795	34.27215
	135.6797	34.27198
	135.6809	34.27177
	135.6812	34.27166
	135.6813	34.27152
	135.6812	34.27135
	135.681	34.27118
	135.6807	34.27105
	135.6806	34.27084
	135.6806	34.27074
	135.6808	34.27062
	135.6812	34.27052
	135.6816	34.2705
	135.682	34.2704
	135.6823	34.27029
	135.6828	34.27018
	135.6831	34.27024
	135.6832	34.27036
	135.6834	34.27062
	135.6836	34.27084
	135.6842	34.27099
	135.6844	34.27101
	135.6849	34.27092
	135.6853	34.27074
	135.6855	34.2707
	135.6859	34.27064
	135.6865	34.2707
	135.6872	34.27077
	135.6875	34.27084
	135.688	34.27111
	135.6883	34.27122
	135.6888	34.27143
	135.6892	34.27155
	135.6893	34.27164
	135.6894	34.27172
	135.6895	34.27195
	135.6896	34.27241
	135.6899	34.27308
	135.6902	34.27372
	135.6902	34.2739
	135.6902	34.27432
	135.6902	34.27451
	135.6903	34.27487
	135.6906	34.27539
	135.6908	34.27585
	135.6909	34.27606
	135.6909	34.27642
	135.6909	34.27661
	135.691	34.27671
	135.6911	34.27683
	135.6914	34.27696
	135.6915	34.2771
	135.6917	34.27732
	135.6921	34.278
	135.6923	34.27819
	135.6924	34.27827
	135.6925	34.27827
	135.6925	34.27826
	135.6928	34.27802
	135.6934	34.27778
	135.694	34.27756
	135.6943	34.2775
	135.6946	34.2774
	135.6963	34.27697
	135.6974	34.27662
	135.6978	34.27653
	135.6984	34.27652
	135.6987	34.27647
	135.6991	34.27625
	135.6998	34.27584
	135.7001	34.27571
	135.7005	34.27555
	135.7009	34.2754
	135.7012	34.27519
	135.7013	34.27492
	135.7013	34.27447
	135.7024	34.27339
	135.7028	34.27282
	135.7034	34.27201
	135.7038	34.27157
	135.7042	34.27149
	135.7049	34.27147
	135.7057	34.27167
	135.7063	34.27153
	135.7068	34.27151
	135.7074	34.2717
	135.7078	34.27178
	135.7084	34.2719
	135.7086	34.27183
	135.7087	34.27159
	135.7087	34.27151
	135.7087	34.27113
	135.7086	34.2709
	135.7085	34.27011
	135.7085	34.26913
	135.7083	34.26858
	135.7089	34.26857
	135.7096	34.26846
	135.7104	34.26823
	135.7108	34.2679
	135.7113	34.26712
	135.7115	34.26673
	135.7117	34.26657
	135.7128	34.26631
	135.7131	34.266
	135.7134	34.26556
	135.7138	34.26536
	135.7141	34.26524
	135.7147	34.26508
	135.7151	34.26513
	135.7158	34.26568
	135.716	34.26566
	135.7162	34.26558
	135.7164	34.26542
	135.7167	34.26503
	135.718	34.26361
	135.7184	34.26332
	135.7185	34.26298
	135.7186	34.26222
	135.7187	34.26172
	135.7189	34.26096
	135.7194	34.26042
	135.7194	34.25966
	135.7194	34.25962
	135.7195	34.25934
	135.7194	34.25872
	135.7195	34.25841
	135.7195	34.25813
	135.7193	34.25699
	135.7196	34.25651
	135.7196	34.256
	135.7194	34.25499
	135.7194	34.2546
	135.72	34.25407
	135.7201	34.25378
	135.7202	34.2533
	135.7204	34.2524
	135.7206	34.2521
	135.7207	34.25185
	135.7207	34.25164
	135.7207	34.25136
	135.7207	34.25092
	135.7206	34.25051
	135.7204	34.25018
	135.7201	34.2499
	135.7202	34.24974
	135.7204	34.24934
	135.7206	34.24883
	135.721	34.24841
	135.7212	34.24809
	135.7212	34.24764
	135.7218	34.24663
	135.722	34.24613
	135.7219	34.24577
	135.722	34.24553
	135.7221	34.24517
	135.7222	34.24483
	135.7222	34.24441
	135.7226	34.244
	135.7229	34.2438
	135.7234	34.2434
	135.7237	34.24277
	135.7238	34.24237
	135.7237	34.24203
	135.7236	34.24152
	135.7237	34.24118
	135.7237	34.24089
	135.7234	34.24008
	135.7235	34.2398
	135.7239	34.23924
	135.7241	34.23879
	135.7243	34.23833
	135.7244	34.23806
	135.725	34.23759
	135.7255	34.23709
	135.7261	34.23632
	135.7264	34.236
	135.7266	34.23593
	135.7268	34.23587
	135.7281	34.23558
	135.7285	34.23537
	135.7288	34.23504
	135.7291	34.2344
	135.7295	34.23337
	135.7297	34.2324
	135.73	34.2316
	135.73	34.23121
	135.7299	34.23076
	135.7299	34.23046
	135.7298	34.23025
	135.7299	34.22951
	135.7301	34.22877
	135.7302	34.2284
	135.7302	34.2283
	135.7299	34.22816
	135.7292	34.22776
	135.729	34.22751
	135.7287	34.22695
	135.7286	34.22666
	135.7286	34.22633
	135.7287	34.22596
	135.7287	34.22567
	135.7283	34.22514
	135.7281	34.22456
	135.7279	34.22445
	135.7277	34.22426
	135.7275	34.22396
	135.7275	34.22369
	135.7276	34.22341
	135.7277	34.22303
	135.7276	34.22271
	135.7272	34.2218
	135.7272	34.22156
	135.7275	34.22096
	135.7275	34.22073
	135.7274	34.22064
	135.7272	34.2206
	135.7268	34.22062
	135.726	34.22054
	135.7255	34.22046
	135.7254	34.22036
	135.7251	34.22001
	135.7248	34.21994
	135.7241	34.21987
	135.7241	34.21986
	135.7233	34.21979
	135.7229	34.21964
	135.7227	34.2194
	135.7223	34.21878
	135.7222	34.21867
	135.7221	34.21862
	135.7211	34.21812
	135.7206	34.2176
	135.72	34.21702
	135.7197	34.21663
	135.7195	34.21656
	135.7189	34.21651
	135.7184	34.21642
	135.7182	34.21621
	135.718	34.21563
	135.7179	34.2152
	135.7178	34.21499
	135.7177	34.2149
	135.7171	34.21479
	135.7163	34.21466
	135.7154	34.21454
	135.7148	34.2144
	135.7139	34.21447
	135.7136	34.21446
	135.7133	34.21427
	135.7127	34.21352
	135.7123	34.21326
	135.7121	34.21301
	135.712	34.2126
	135.712	34.21182
	135.7118	34.2112
	135.7116	34.2109
	135.7112	34.21045
	135.7108	34.21017
	135.7101	34.20976
	135.7099	34.20938
	135.7098	34.20892
	135.7096	34.20879
	135.7093	34.20859
	135.7089	34.20836
	135.7084	34.20826
	135.708	34.2082
	135.7078	34.20824
	135.7074	34.20848
	135.7065	34.20899
	135.7061	34.20917
	135.7059	34.20927
	135.7058	34.20949
	135.7057	34.20987
	135.7056	34.21014
	135.7054	34.21022
	135.7051	34.21026
	135.7046	34.21045
	135.7042	34.2107
	135.7033	34.21142
	135.7025	34.21186
	135.7018	34.21227
	135.7014	34.21239
	135.701	34.21246
	135.7005	34.21237
	135.7005	34.21236
	135.6995	34.21194
	135.6986	34.21159
	135.6982	34.21166
	135.6978	34.21183
	135.6975	34.21229
	135.6967	34.21308
	135.6962	34.21375
	135.6959	34.21425
	135.6957	34.21467
	135.6955	34.21525
	135.6953	34.21547
	135.6949	34.21565
	135.6946	34.21594
	135.6944	34.21609
	135.6942	34.21673
	135.6939	34.21707
	135.6935	34.21722
	135.6934	34.21726
	135.6931	34.21729
	135.6921	34.21711
	135.6912	34.2171
	135.6911	34.21713
	135.6901	34.21733
	135.6893	34.21741
	135.6885	34.21746
	135.6882	34.21735
	135.6879	34.21729
	135.6877	34.21736
	135.6875	34.2176
	135.6872	34.21776
	135.6866	34.21801
	135.6864	34.21815
	135.6863	34.21834
	135.6862	34.21917
	135.6862	34.21935
	135.6861	34.21957
	135.6855	34.2204
	135.6851	34.22064
	135.6844	34.2211
	135.6833	34.22193
	135.683	34.22202
	135.6826	34.2221
	135.6824	34.22198
	135.682	34.22157
	135.6819	34.22155
	135.6817	34.22158
	135.6812	34.2219
	135.6808	34.22205
	135.6802	34.2221
	135.6798	34.22224
	135.6789	34.22262
	135.6787	34.22277
	135.6787	34.223
	135.6784	34.22326
	135.6782	34.22334
	135.6777	34.22344
	135.6772	34.22341
	135.677	34.2234
	135.6764	34.22327
	135.6762	34.22333
	135.6758	34.22333
	135.6757	34.22333
	135.6754	34.22326
	135.6751	34.22312
	135.6747	34.22309
	135.6742	34.22322
	135.6734	34.22339
	135.6731	34.22349
	135.6729	34.22375
	135.6726	34.22422
	135.6724	34.22432
	135.6718	34.2243
	135.671	34.22447
	135.6698	34.22455
	135.6688	34.22438
	135.6678	34.22419
	135.6673	34.22381
	135.6668	34.2229
	135.6666	34.22259
	135.6661	34.22201
	135.6658	34.22181
	135.6652	34.22157
	135.6646	34.22108
	135.6643	34.2207
	135.6639	34.2198
	135.6635	34.21951
	135.663	34.2192
	135.6627	34.21896
	135.6627	34.21871
	135.6627	34.21851
	135.6624	34.21836
	135.6623	34.21834
	135.662	34.21831
	135.6617	34.21833
	135.6615	34.21834
	135.6611	34.21836
	135.6604	34.21839
	135.6598	34.21821
	135.6591	34.21819
	135.6588	34.21806
	135.6584	34.21792
	135.6584	34.21789
	135.6579	34.2176
	135.6577	34.21759
	135.6575	34.21759
	135.6567	34.21722
	135.6566	34.21709
	135.6565	34.21689
	135.6564	34.21674
	135.6553	34.21628
	135.655	34.21632
	135.6547	34.21651
	135.6543	34.21658
	135.6536	34.21666
	135.6524	34.21675
	135.6519	34.21706
	135.6509	34.21753
	135.6507	34.21771
	135.6506	34.21797
	135.6504	34.21823
	135.6503	34.21835
	135.6501	34.21835
	135.6498	34.21862
	135.6493	34.21888
	135.6493	34.2189
	135.6488	34.21902
	135.6481	34.21899
	135.648	34.21893
	135.6479	34.21871
	135.6474	34.21818
	135.6471	34.21755
	135.6464	34.21691
	135.646	34.21628
	135.6459	34.2162
	135.6446	34.21578
	135.6438	34.21574
	135.6435	34.21562
	135.643	34.21513
	135.6425	34.21457
	135.642	34.21432
	135.6418	34.21417
	135.6413	34.2137
	135.6413	34.21369
	135.6409	34.21303
	135.6406	34.21197
	135.6404	34.21122
	135.6404	34.21063
	135.6407	34.2102
	135.6408	34.21004
	135.6412	34.2095
	135.6412	34.20936
	135.6411	34.20923
	135.6401	34.20873
	135.639	34.20788
	135.6388	34.20773
	135.6383	34.20729
	135.6381	34.20718
	135.6379	34.20706
	135.6375	34.20686
	135.6372	34.20662
	135.637	34.20656
	135.6365	34.20629
	135.6359	34.20582
	135.6356	34.20565
	135.6352	34.20535
	135.6345	34.20459
	135.6344	34.20446
	135.6345	34.20414
	135.6348	34.20378
	135.6353	34.2034
	135.6353	34.20306
	135.6354	34.20248
	135.6353	34.20218
	135.6349	34.20154
	135.6347	34.20068
	135.6345	34.20021
	135.6344	34.19973
	135.6341	34.19908
	135.6341	34.19893
	135.6341	34.19867
	135.6341	34.19827
	135.6343	34.19809
	135.6343	34.19808
	135.6348	34.19791
	135.6352	34.19774
	135.6356	34.1973
	135.6357	34.19708
	135.6357	34.19673
	135.6358	34.19651
	135.6361	34.1963
	135.6368	34.1961
	135.6369	34.19598
	135.6372	34.19532
	135.6375	34.19506
	135.6379	34.19487
	135.6382	34.19469
	135.6385	34.1944
	135.6396	34.1935
	135.64	34.19332
	135.6407	34.1932
	135.6408	34.19307
	135.6409	34.19281
	135.641	34.19271
	135.641	34.1925
	135.6411	34.19203
	135.6412	34.19161
	135.6413	34.19149
	135.6418	34.1914
	135.6425	34.19106
	135.6432	34.1908
	135.644	34.19075
	135.6443	34.19084
	135.6446	34.19093
	135.6449	34.19087
	135.6451	34.19067
	135.6452	34.19027
	135.645	34.18945
	135.6449	34.18846
	135.6448	34.18837
	135.6445	34.18809
	135.6443	34.18787
	135.6439	34.18772
	135.6436	34.18756
	135.6433	34.18734
	135.6432	34.18696
	135.6432	34.18689
	135.6431	34.18654
	135.643	34.18628
	135.6429	34.18595
	135.6428	34.18583
	135.6427	34.18568
	135.6425	34.1852
	135.6423	34.18488
	135.6419	34.18428
	135.6418	34.18411
	135.6419	34.18381
	135.642	34.18319
	135.6418	34.18292
	135.6413	34.18267
	135.6409	34.18248
	135.6398	34.18223
	135.639	34.18173
	135.6383	34.18136
	135.638	34.18099
	135.6379	34.18051
	135.6379	34.18004
	135.6379	34.18
	135.6378	34.17955
	135.6378	34.17937
	135.6376	34.17927
	135.637	34.1792
	135.6366	34.17916
	135.6359	34.17916
	135.6356	34.17907
	135.6354	34.1789
	135.6352	34.17861
	135.6351	34.17855
	135.6345	34.17861
	135.6342	34.17852
	135.6337	34.17821
	135.6332	34.17765
	135.6328	34.17745
	135.6324	34.17737
	135.6317	34.17746
	135.6313	34.17746
	135.6298	34.17724
	135.6288	34.17698
	135.6286	34.1769
	135.6286	34.17689
	135.6283	34.17653
	135.6281	34.17607
	135.6279	34.17477
	135.6278	34.17462
	135.6276	34.17446
	135.627	34.17421
	135.6266	34.17385
	135.6265	34.17348
	135.6261	34.17308
	135.6257	34.17272
	135.6257	34.17245
	135.6256	34.17232
	135.6254	34.17218
	135.6249	34.17211
	135.624	34.17206
	135.6238	34.17195
	135.6237	34.17123
	135.6233	34.16998
	135.6233	34.16967
	135.6231	34.1695
	135.6229	34.16927
	135.6225	34.16902
	135.6222	34.16882
	135.6214	34.16879
	135.621	34.1687
	135.6206	34.16852
	135.6205	34.16835
	135.6204	34.16805
	135.6204	34.16771
	135.6205	34.16759
	135.6206	34.16728
	135.6207	34.16702
	135.6207	34.16676
	135.6206	34.16633
	135.6206	34.16609
	135.6208	34.16589
	135.621	34.16548
	135.6211	34.16515
	135.6211	34.16477
	135.6214	34.16426
	135.6217	34.16392
	135.622	34.16338
	135.6221	34.16329
	135.6222	34.16327
	135.6227	34.16307
	135.6229	34.16294
	135.623	34.16273
	135.6227	34.1604
	135.6225	34.16012
	135.6224	34.15991
	135.6222	34.1597
	135.6221	34.15961
	135.6221	34.15946
	135.6221	34.15909
	135.622	34.15854
	135.6219	34.15842
	135.6218	34.15838
	135.6215	34.15834
	135.6212	34.15824
	135.6209	34.15815
	135.6205	34.15773
	135.6203	34.15762
	135.6202	34.1576
	135.62	34.15762
	135.6199	34.15762
	135.6195	34.15758
	135.6192	34.15749
	135.6189	34.15736
	135.6185	34.15718
	135.618	34.15683
	135.6177	34.15666
	135.6175	34.15652
	135.6171	34.15607
	135.6168	34.15591
	135.6168	34.15588
	135.6166	34.15586
	135.6165	34.15587
	135.6158	34.15598
	135.6155	34.156
	135.6152	34.15597
	135.6151	34.15597
	135.6148	34.1559
	135.6139	34.15564
	135.6135	34.15554
	135.6126	34.15531
	135.6123	34.1552
	135.6122	34.15514
	135.6122	34.15513
	135.6118	34.15507
	135.6115	34.15507
	135.6109	34.15517
	135.6105	34.15522
	135.6102	34.15521
	135.6095	34.15505
	135.6092	34.15502
	135.6088	34.15503
	135.6084	34.15514
	135.6081	34.15525
	135.6079	34.1553
	135.6077	34.1553
	135.6074	34.15518
	135.6066	34.15486
	135.6063	34.15475
	135.6059	34.15463
	135.6053	34.15452
	135.6048	34.15441
	135.6047	34.15436
	135.6046	34.15431
	135.6046	34.15428
	135.6045	34.15406
	135.6044	34.15382
	135.6043	34.15375
	135.6041	34.15359
	135.604	34.15353
	135.6035	34.15337
	135.6027	34.15325
	135.6027	34.15324
	135.6018	34.15314
	135.6012	34.15301
	135.6009	34.15293
	135.6006	34.15281
	135.6002	34.1526
	135.5999	34.15239
	135.5996	34.15222
	135.5992	34.15187
	135.5988	34.15158
	135.5987	34.15141
	135.5985	34.15125
	135.5983	34.15121
	135.5978	34.15116
	135.5976	34.15114
	135.5972	34.15114
	135.5969	34.15109
	135.5965	34.15088
	135.5961	34.15067
	135.5957	34.15043
	135.5951	34.15001
	135.5944	34.14949
	135.5942	34.14928
	135.5938	34.14885
	135.5936	34.14871
	135.5935	34.1487
	135.5934	34.14871
	135.5927	34.14895
	135.5923	34.14903
	135.5917	34.14905
	135.5911	34.14902
	135.5909	34.149
	135.5907	34.14893
	135.5903	34.14867
	135.5894	34.1478
	135.5888	34.1473
	135.5886	34.14713
	135.5884	34.14683
	135.5882	34.14664
	135.5882	34.14652
	135.5882	34.14607
	135.5883	34.14572
	135.5883	34.14541
	135.5882	34.14488
	135.5882	34.14461
	135.5882	34.14437
	135.5881	34.144
	135.588	34.14369
	135.5878	34.14341
	135.5876	34.14287
	135.5874	34.14267
	135.5872	34.14242
	135.5868	34.14201
	135.5866	34.14191
	135.5864	34.14182
	135.5861	34.14167
	135.5859	34.14156
	135.5855	34.14135
	135.5854	34.14119
	135.5853	34.14108
	135.5852	34.1409
	135.5852	34.14066
	135.5853	34.14039
	135.5853	34.14022
	135.5854	34.13991
	135.5856	34.13946
	135.5856	34.13937
	135.5857	34.13909
	135.5857	34.13905
	135.5855	34.13885
	135.5853	34.1387
	135.5852	34.13862
	135.5852	34.13856
	135.5853	34.13805
	135.5854	34.13717
	135.5853	34.13613
	135.5852	34.13515
	135.5852	34.1349
	135.5851	34.13441
	135.5849	34.13405
	135.5848	34.13373
	135.5848	34.13349
	135.5848	34.133
	135.5849	34.1328
	135.5848	34.1326
	135.5848	34.13243
	135.5846	34.13224
	135.5843	34.13185
	135.5841	34.1316
	135.5839	34.13133
	135.5836	34.13095
	135.5835	34.1309
	135.5833	34.13062
	135.5832	34.13042
	135.5832	34.13021
	135.5831	34.12985
	135.583	34.12971
	135.5829	34.12941
	135.5823	34.12891
	135.5822	34.12873
	135.5821	34.12846
	135.5821	34.12825
	135.5822	34.12792
	135.5823	34.12761
	135.5822	34.12737
	135.5821	34.12716
	135.5821	34.12685
	135.5822	34.12659
	135.5822	34.12649
	135.5821	34.12631
	135.582	34.12611
	135.5819	34.12591
	135.5816	34.12549
	135.5813	34.12505
	135.5812	34.12476
	135.5811	34.12449
	135.581	34.12426
	135.5809	34.12399
	135.5809	34.12366
	135.5808	34.12345
	135.5807	34.12326
	135.5806	34.12313
	135.5804	34.12265
	135.5804	34.12259
	135.5803	34.12243
	135.5802	34.12211
	135.58	34.12155
	135.58	34.12127
	135.5799	34.12097
	135.5797	34.12049
	135.5797	34.12035
	135.5794	34.11999
	135.5794	34.11985
	135.5794	34.11969
	135.5796	34.11945
	135.5796	34.11926
	135.5796	34.11916
	135.5794	34.1188
	135.5793	34.1186
	135.5793	34.11843
	135.5791	34.11778
	135.579	34.1174
	135.5789	34.1172
	135.5789	34.11682
	135.5789	34.11659
	135.5788	34.11637
	135.5787	34.1162
	135.5784	34.11581
	135.5783	34.11565
	135.5781	34.11553
	135.5779	34.11547
	135.5777	34.11543
	135.5776	34.11539
	135.5775	34.11533
	135.5774	34.11521
	135.5772	34.1151
	135.5771	34.11506
	135.5769	34.11503
	135.5765	34.11504
	135.5764	34.11504
	135.576	34.11499
	135.575	34.11491
	135.5746	34.11498
	135.5742	34.11496
	135.574	34.11491
	135.5737	34.11473
	135.5733	34.11458
	135.573	34.11451
	135.5728	34.11447
	135.5725	34.11435
	135.5723	34.11423
	135.5712	34.1137
	135.5708	34.1135
	135.5707	34.11336
	135.5705	34.11314
	135.5703	34.11299
	135.57	34.11294
	135.5697	34.11294
	135.5693	34.11308
	135.5689	34.11317
	135.5686	34.11316
	135.5681	34.11304
	135.5677	34.11298
	135.5672	34.11294
	135.5668	34.11285
	135.5665	34.11283
	135.5663	34.11284
	135.566	34.11286
	135.5658	34.11283
	135.5652	34.11255
	135.5648	34.11233
	135.5647	34.11219
	135.5645	34.11187
	135.5642	34.11148
	135.5637	34.11101
	135.5634	34.11087
	135.5631	34.11077
	135.5625	34.1105
	135.5623	34.11034
	135.5621	34.11014
	135.562	34.10998
	135.5619	34.10983
	135.5617	34.10978
	135.5614	34.10972
	135.561	34.10969
	135.5607	34.10969
	135.5605	34.10964
	135.5602	34.10949
	135.56	34.10939
	135.5595	34.10907
	135.5592	34.10886
	135.5589	34.10865
	135.558	34.10828
	135.5575	34.10819
	135.5574	34.10815
	135.5573	34.10813
	135.5573	34.10805
	135.5573	34.1078
	135.5573	34.10745
	135.5573	34.10722
	135.5571	34.10669
	135.5571	34.10655
	135.5571	34.10627
	135.5572	34.10621
	135.5574	34.10572
	135.5576	34.10534
	135.5577	34.10517
	135.5579	34.10491
	135.558	34.10474
	135.5583	34.10445
	135.5585	34.10421
	135.5586	34.10392
	135.5587	34.10377
	135.5587	34.10365
	135.5586	34.10356
	135.5584	34.10339
	135.558	34.10319
	135.5578	34.10313
	135.5576	34.10312
	135.557	34.10306
	135.5566	34.10294
	135.5565	34.10286
	135.5563	34.10274
	135.5562	34.10271
	135.556	34.10275
	135.5556	34.10269
	135.5555	34.10267
	135.5553	34.10257
	135.5552	34.10251
	135.5547	34.10238
	135.5544	34.10228
	135.5541	34.10215
	135.554	34.10212
	135.5539	34.102
	135.5538	34.10198
	135.5536	34.10202
	135.5533	34.10217
	135.553	34.10236
	135.5526	34.10249
	135.5525	34.10251
	135.5523	34.10249
	135.5522	34.10242
	135.552	34.10231
	135.5519	34.10221
	135.5513	34.10173
	135.5511	34.10156
	135.5509	34.10138
	135.5507	34.10128
	135.5505	34.10103
	135.5502	34.10078
	135.5498	34.10063
	135.5497	34.10059
	135.5494	34.10057
	135.5489	34.10053
	135.548	34.10044
	135.5478	34.10039
	135.5474	34.10039
	135.5473	34.10033
	135.5472	34.10005
	135.5471	34.09967
	135.547	34.09947
	135.5469	34.0992
	135.5468	34.09893
	135.5467	34.09871
	135.5465	34.09844
	135.5463	34.0981
	135.5463	34.09801
	135.5463	34.09794
	135.5464	34.09785
	135.5466	34.09771
	135.5472	34.09755
	135.5479	34.09735
	135.5484	34.09712
	135.5486	34.09694
	135.5487	34.09681
	135.5488	34.09664
	135.5488	34.09642
	135.5488	34.09618
	135.5488	34.09585
	135.5487	34.09558
	135.5488	34.09528
	135.5488	34.09501
	135.549	34.09478
	135.5491	34.09452
	135.5492	34.0943
	135.5491	34.09401
	135.549	34.09371
	135.5489	34.09338
	135.5488	34.09317
	135.5489	34.09297
	135.549	34.09266
	135.5491	34.09236
	135.5492	34.09168
	135.5492	34.09162
	135.5493	34.09146
	135.5495	34.09129
	135.5497	34.09102
	135.5499	34.09068
	135.5499	34.09039
	135.55	34.08991
	135.55	34.08967
	135.55	34.08945
	135.55	34.0889
	135.5499	34.08856
	135.5499	34.08782
	135.5499	34.08746
	135.5498	34.08723
	135.5495	34.08666
	135.5494	34.08638
	135.5494	34.0861
	135.5495	34.08559
	135.5498	34.08517
	135.5498	34.08499
	135.5494	34.08451
	135.549	34.08394
	135.5487	34.08376
	135.5484	34.08362
	135.5476	34.08322
	135.5471	34.08311
	135.5466	34.08309
	135.5454	34.08264
	135.5452	34.08259
	135.545	34.08251
	135.5448	34.08239
	135.5447	34.08232
	135.5445	34.08229
	135.5435	34.08207
	135.5433	34.08199
	135.5432	34.08188
	135.5431	34.0818
	135.5431	34.08163
	135.543	34.08113
	135.5429	34.08093
	135.5429	34.08083
	135.5428	34.08068
	135.5427	34.08048
	135.5425	34.08012
	135.5424	34.07993
	135.5423	34.07982
	135.5422	34.0797
	135.5419	34.07953
	135.5416	34.07895
	135.5415	34.07873
	135.5413	34.07864
	135.5409	34.0784
	135.5405	34.0782
	135.5404	34.07814
	135.5404	34.07805
	135.5403	34.0779
	135.5398	34.0772
	135.5398	34.07706
	135.5398	34.07696
	135.5398	34.07682
	135.5398	34.07646
	135.5398	34.0763
	135.5398	34.07617
	135.5397	34.07594
	135.5397	34.07581
	135.5397	34.07538
	135.5398	34.07518
	135.5401	34.07498
	135.5404	34.07476
	135.5406	34.07444
	135.5409	34.07396
	135.5412	34.0737
	135.5414	34.07353
	135.5414	34.07352
	135.5417	34.073
	135.542	34.07268
	135.5423	34.07237
	135.5425	34.07216
	135.5427	34.07203
	135.543	34.07191
	135.5432	34.07182
	135.5435	34.07177
	135.5438	34.07178
	135.5441	34.07182
	135.5444	34.07184
	135.5445	34.0718
	135.5446	34.07172
	135.5449	34.07143
	135.5451	34.07123
	135.5455	34.07089
	135.5457	34.0705
	135.5459	34.07014
	135.5462	34.06946
	135.5463	34.06919
	135.5464	34.06908
	135.5465	34.06901
	135.5468	34.06883
	135.5471	34.06865
	135.5473	34.06849
	135.5482	34.06814
	135.5492	34.06826
	135.5497	34.06831
	135.5506	34.06849
	135.5511	34.06845
	135.5513	34.06842
	135.5514	34.06824
	135.5514	34.06785
	135.5514	34.06778
	135.5514	34.0675
	135.5518	34.06663
	135.5519	34.06606
	135.552	34.06587
	135.5521	34.06566
	135.5522	34.06552
	135.5525	34.06535
	135.5534	34.06496
	135.5546	34.06471
	135.5551	34.06452
	135.556	34.06433
	135.5569	34.06401
	135.5573	34.06389
	135.5578	34.06381
	135.5581	34.06382
	135.5585	34.06385
	135.5592	34.06384
	135.5594	34.06384
	135.5599	34.06375
	135.5602	34.06373
	135.5608	34.06374
	135.5618	34.06364
	135.5624	34.06359
	135.5625	34.06358
	135.5628	34.06354
	135.5632	34.06347
	135.5634	34.06338
	135.5635	34.06328
	135.5637	34.06301
	135.5639	34.06262
	135.5643	34.0618
	135.5644	34.06149
	135.5644	34.06127
	135.5645	34.06126
	135.5645	34.06119
	135.5646	34.06035
	135.5646	34.06013
	135.5647	34.05997
	135.565	34.05956
	135.5662	34.05877
	135.5663	34.05864
	135.5663	34.05861
	135.5664	34.05847
	135.5669	34.05761
	135.5671	34.05735
	135.5671	34.05736
	135.5672	34.05738
	135.5675	34.05746
	135.5686	34.05776
	135.5692	34.05814
	135.57	34.05842
	135.5712	34.05861
	135.5721	34.05856
	135.5727	34.05857
	135.5739	34.05884
	135.5746	34.05888
	135.5752	34.05884
	135.576	34.05864
	135.5763	34.05855
	135.5768	34.05844
	135.5771	34.05836
	135.5774	34.05825
	135.5776	34.05815
	135.5792	34.05817
	135.58	34.05803
	135.5805	34.05791
	135.5805	34.0566
	135.5805	34.05636
	135.5806	34.05619
	135.5807	34.05611
	135.5809	34.056
	135.5813	34.05585
	135.5815	34.05571
	135.5816	34.0556
	135.5816	34.05546
	135.5817	34.05513
	135.5815	34.05463
	135.5815	34.05448
	135.5816	34.05438
	135.5819	34.05411
	135.5821	34.05383
	135.5824	34.0534
	135.5824	34.05339
	135.5828	34.05314
	135.5831	34.05287
	135.5838	34.05165
	135.5843	34.05082
	135.5845	34.05027
	135.5846	34.05
	135.5849	34.04964
	135.5855	34.04924
	135.5862	34.04892
	135.5867	34.04859
	135.5869	34.04837
	135.587	34.04796
	135.5872	34.04755
	135.5874	34.04721
	135.5877	34.04691
	135.588	34.04677
	135.5889	34.04677
	135.5892	34.04676
	135.5903	34.04679
	135.5908	34.04678
	135.5917	34.04664
	135.5921	34.04635
	135.5925	34.04604
	135.5927	34.04581
	135.593	34.0453
	135.5936	34.04486
	135.5941	34.04459
	135.5944	34.04427
	135.5946	34.04399
	135.5949	34.0433
	135.5949	34.04282
	135.5948	34.04244
	135.5947	34.04178
	135.5948	34.04136
	135.595	34.04098
	135.595	34.04092
	135.5949	34.04055
	135.5948	34.04022
	135.5947	34.03997
	135.5947	34.03972
	135.5947	34.03945
	135.5948	34.03928
	135.5951	34.03883
	135.5952	34.03854
	135.5955	34.03769
	135.5958	34.03679
	135.5965	34.0365
	135.5967	34.03644
	135.5969	34.03633
	135.5973	34.03602
	135.5976	34.03588
	135.5978	34.03541
	135.598	34.03474
	135.5988	34.03412
	135.599	34.03383
	135.5991	34.03368
	135.5992	34.03334
	135.5993	34.03307
	135.5995	34.03247
	135.5997	34.03202
	135.5997	34.03193
	135.5997	34.03184
	135.5996	34.03174
	135.5995	34.03168
	135.5995	34.03161
	135.599	34.03137
	135.5983	34.03108
	135.5975	34.03071
	135.597	34.03033
	135.5966	34.03001
	135.5957	34.02913
	135.5952	34.02834
	135.5948	34.02784
	135.5948	34.0277
	135.5948	34.02752
	135.595	34.02666
	135.5954	34.02629
	135.5955	34.02626
	135.5955	34.02616
	135.5957	34.02596
	135.5958	34.02544
	135.5958	34.02503
	135.5956	34.02438
	135.5955	34.02391
	135.5954	34.02359
	135.5952	34.02331
	135.5948	34.02284
	135.5944	34.02228
	135.5939	34.02178
	135.5931	34.02108
	135.5927	34.02079
	135.5925	34.02041
	135.5923	34.02015
	135.5918	34.01979
	135.5916	34.01966
	135.5915	34.01956
	135.5915	34.01937
	135.5915	34.0192
	135.5918	34.01877
	135.5919	34.01851
	135.5919	34.01832
	135.5921	34.0179
	135.5923	34.01758
	135.5924	34.01741
	135.5926	34.01702
	135.5928	34.01575
	135.5931	34.01494
	135.5932	34.01436
	135.5934	34.01384
	135.5936	34.01328
	135.5938	34.01298
	135.5941	34.01272
	135.5951	34.01198
	135.5954	34.01173
	135.5956	34.01163
	135.5957	34.01159
	135.5959	34.01162
	135.5963	34.01176
	135.5968	34.01197
	135.597	34.01204
	135.597	34.01205
	135.5976	34.01213
	135.5981	34.01227
	135.5989	34.01232
	135.5992	34.0123
	135.5995	34.01228
	135.6002	34.01228
	135.601	34.01247
	135.6013	34.01243
	135.6021	34.01255
	135.6026	34.01251
	135.603	34.01252
	135.6035	34.01263
	135.6039	34.01265
	135.6049	34.01244
	135.6058	34.01268
	135.6073	34.01321
	135.6073	34.01322
	135.6077	34.01338
	135.6081	34.01351
	135.6084	34.01362
	135.6085	34.01362
	135.6085	34.01358
	135.6091	34.01312
	135.6096	34.0128
	135.6099	34.01278
	135.6103	34.01267
	135.6106	34.01244
	135.6111	34.01208
	135.6113	34.0118
	135.6115	34.01126
	135.6117	34.01063
	135.6118	34.0104
	135.6118	34.01028
	135.6119	34.01019
	135.6121	34.01013
	135.6124	34.01007
	135.6133	34.00993
	135.6135	34.00987
	135.6139	34.00969
	135.6148	34.00947
	135.6162	34.00938
	135.6162	34.00937
	135.6165	34.00927
	135.6169	34.0092
	135.6176	34.00919
	135.6182	34.00923
	135.6187	34.00939
	135.619	34.00947
	135.6194	34.00939
	135.6198	34.00946
	135.6203	34.00959
	135.6207	34.00965
	135.6214	34.00973
	135.6218	34.00978
	135.622	34.00974
	135.6222	34.00967
	135.6227	34.00925
	135.6233	34.00892
	135.6241	34.0083
	135.6252	34.00736
	135.6254	34.00706
	135.6255	34.00626
	135.6254	34.00579
	135.6253	34.00535
	135.6252	34.00472
	135.6252	34.00456
	135.6249	34.00384
	135.6247	34.00335
	135.6246	34.00333
	135.6241	34.0029
	135.6237	34.0026
	135.6235	34.00238
	135.6235	34.00214
	135.6237	34.00175
	135.6239	34.00154
	135.624	34.00114
	135.6241	34.00073
	135.6242	34.00021
	135.6243	34.00003
	135.6245	33.99999
	135.6257	33.9999
	135.626	33.99988
	135.6265	33.99965
	135.6268	33.99945
	135.6271	33.99928
	135.6274	33.99911
	135.6277	33.9989
	135.6277	33.9988
	135.6277	33.99858
	135.6277	33.9984
	135.6278	33.99825
	135.628	33.99816
	135.6283	33.99807
	135.6288	33.99798
	135.6289	33.99791
	135.629	33.99775
	135.6291	33.99737
	135.6292	33.99727
	135.6293	33.99676
	135.6293	33.99654
	135.6295	33.99578
	135.6297	33.99554
	135.6299	33.9952
	135.63	33.99498
	135.63	33.99481
	135.6301	33.99459
	135.63	33.99426
	135.6299	33.99364
	135.6299	33.99342
	135.6299	33.99313
	135.63	33.99277
	135.63	33.9925
	135.63	33.99215
	135.6301	33.99183
	135.6301	33.99153
	135.6303	33.99126
	135.6304	33.99114
	135.6309	33.99101
	135.6313	33.99104
	135.6324	33.99119
	135.6328	33.99125
	135.6333	33.99121
	135.6335	33.99121
	135.6337	33.99122
	135.6346	33.9914
	135.6349	33.99144
	135.635	33.99144
	135.6352	33.99141
	135.6358	33.99116
	135.6361	33.99093
	135.6362	33.99076
	135.6365	33.99023
	135.6367	33.98987
	135.6369	33.98951
	135.6369	33.98926
	135.6369	33.98893
	135.6369	33.98856
	135.6369	33.9884
	135.637	33.98816
	135.6371	33.98799
	135.6374	33.98733
	135.638	33.98632
	135.6385	33.98545
	135.6387	33.98515
	135.6388	33.98466
	135.6388	33.98462
	135.6389	33.98435
	135.6389	33.98372
	135.639	33.98351
	135.6391	33.98317
	135.6392	33.98293
	135.6392	33.98273
	135.6392	33.98255
	135.6384	33.98163
	135.6383	33.98144
	135.6383	33.98132
	135.6383	33.9812
	135.6384	33.98097
	135.6385	33.98087
	135.6386	33.9807
	135.6386	33.98045
	135.6384	33.97969
	135.6382	33.97862
	135.6379	33.97757
	135.6377	33.9768
	135.6376	33.97652
	135.6376	33.97617
	135.6377	33.97607
	135.6378	33.97576
	135.638	33.97541
	135.6382	33.97489
	135.6383	33.97472
	135.6389	33.97436
	135.6393	33.97411
	135.6395	33.97394
	135.6398	33.97353
	135.6399	33.97326
	135.6399	33.97295
	135.6398	33.9723
	135.6396	33.97118
	135.6395	33.97099
	135.6396	33.9706
	135.6397	33.97027
	135.6398	33.97008
	135.6398	33.96989
	135.6398	33.96946
	135.6397	33.96919
	135.6398	33.96897
	135.6401	33.96834
	135.6402	33.96809
	135.6403	33.96784
	135.6403	33.96773
	135.6403	33.96742
	135.6402	33.96632
	135.6402	33.96587
	135.6401	33.96529
	135.64	33.96501
	135.6395	33.96433
	135.6392	33.96377
	135.639	33.96357
	135.639	33.9635
	135.639	33.96335
	135.6391	33.96261
	135.6391	33.96226
	135.639	33.96178
	135.6386	33.96132
	135.6378	33.96067
	135.6375	33.9604
	135.6372	33.96005
	135.6368	33.95971
	135.6367	33.95955
	135.6362	33.95933
	135.6359	33.95921
	135.6357	33.95908
	135.6356	33.95887
	135.6356	33.9583
	135.6356	33.95804
	135.6358	33.9575
	135.6358	33.95719
	135.6357	33.95683
	135.6357	33.95658
	135.636	33.95593
	135.6361	33.95544
	135.6362	33.95518
	135.6362	33.95487
	135.6362	33.95441
	135.6362	33.95378
	135.6364	33.95338
	135.6367	33.95256
	135.6369	33.95179
	135.637	33.95149
	135.637	33.95139
	135.637	33.95109
	135.637	33.95088
	135.6372	33.95071
	135.6372	33.95065
	135.6371	33.95058
	135.6369	33.95055
	135.6357	33.95044
	135.6354	33.95036
	135.6347	33.95014
	135.6337	33.94967
	135.6332	33.94952
	135.6327	33.94944
	135.6319	33.94933
	135.6317	33.94922
	135.6315	33.9491
	135.6313	33.94905
	135.631	33.94909
	135.6303	33.94943
	135.6299	33.9496
	135.6296	33.9496
	135.6291	33.94951
	135.6289	33.94946
	135.6284	33.94947
	135.6278	33.94967
	135.6266	33.95006
	135.6262	33.95014
	135.626	33.95011
	135.6258	33.95006
	135.6255	33.95009
	135.6254	33.95021
	135.6254	33.95051
	135.6254	33.95081
	135.6253	33.95099
	135.6249	33.95135
	135.6241	33.95187
	135.6237	33.95217
	135.6235	33.9524
	135.6234	33.95273
	135.6232	33.95291
	135.623	33.95302
	135.6228	33.95308
	135.6222	33.95315
	135.6205	33.95302
	135.6199	33.9533
	135.6193	33.95367
	135.6188	33.95409
	135.6185	33.95447
	135.6184	33.9546
	135.6183	33.95467
	135.6181	33.95461
	135.6176	33.95424
	135.6169	33.95382
	135.616	33.95214
	135.616	33.95198
	135.616	33.95172
	135.6158	33.95136
	135.616	33.95072
	135.616	33.95038
	135.616	33.95026
	135.6161	33.94945
	135.616	33.94932
	135.6155	33.94885
	135.6154	33.94858
	135.6154	33.94845
	135.6158	33.94777
	135.6159	33.94752
	135.6161	33.94721
	135.6166	33.94682
	135.6173	33.94624
	135.6178	33.94555
	135.6181	33.94513
	135.6182	33.9449
	135.6184	33.94457
	135.6185	33.94442
	135.6186	33.94421
	135.6186	33.94388
	135.6186	33.94335
	135.6186	33.94311
	135.6185	33.94285
	135.6184	33.94247
	135.6184	33.94228
	135.6185	33.94181
	135.6185	33.94144
	135.6184	33.94118
	135.6183	33.94097
	135.6181	33.94078
	135.6179	33.94062
	135.6176	33.94016
	135.6175	33.93991
	135.6174	33.93978
	135.617	33.93948
	135.6169	33.9393
	135.6168	33.93912
	135.6167	33.93878
	135.6167	33.93835
	135.6168	33.93811
	135.6172	33.93764
	135.6172	33.93751
	135.6171	33.93731
	135.617	33.93706
	135.6168	33.93688
	135.6165	33.93685
	135.6157	33.9369
	135.6153	33.93677
	135.615	33.93679
	135.6141	33.93751
	135.6136	33.9375
	135.6128	33.93748
	135.6125	33.93738
	135.6121	33.93712
	135.612	33.93707
	135.6114	33.93695
	135.6112	33.93687
	135.611	33.93662
	135.6108	33.93618
	135.6108	33.93581
	135.6109	33.93546
	135.6108	33.93515
	135.6107	33.93486
	135.6098	33.93317
	135.6095	33.93208
	135.6096	33.93184
	135.6098	33.93159
	135.6107	33.93091
	135.6111	33.93078
	135.6117	33.93058
	135.612	33.93038
	135.6128	33.92985
	135.6132	33.92843
	135.6136	33.92792
	135.6137	33.92776
	135.6139	33.92757
	135.6139	33.92733
	135.6139	33.92674
	135.6141	33.92569
	135.6141	33.92535
	135.6141	33.92525
	135.6141	33.92514
	135.6138	33.92497
	135.6134	33.92472
	135.613	33.92444
	135.6128	33.92431
	135.6127	33.92423
	135.6126	33.92417
	135.6125	33.92408
	135.6125	33.92401
	135.6125	33.92389
	135.6125	33.92369
	135.6124	33.92335
	135.6123	33.92249
	135.6123	33.92231
	135.6127	33.92158
	135.6127	33.92147
	135.6126	33.92134
	135.6121	33.92067
	135.612	33.92037
	135.6117	33.92001
	135.6115	33.91979
	135.6114	33.91956
	135.6113	33.91912
	135.6112	33.91903
	135.6109	33.91883
	135.6108	33.91871
	135.6108	33.91806
	135.6108	33.91752
	135.6107	33.917
	135.6106	33.91644
	135.6102	33.91557
	135.6101	33.91532
	135.6101	33.91515
	135.6101	33.9151
	135.6101	33.91506
	135.6101	33.91494
	135.6106	33.91394
	135.6106	33.91367
	135.6105	33.91333
	135.6104	33.91299
	135.6102	33.91287
	135.6098	33.91266
	135.6096	33.91257
	135.6089	33.91257
	135.6086	33.9126
	135.6085	33.91262
	135.6082	33.91267
	135.608	33.91259
	135.6077	33.91246
	135.6067	33.9119
	135.6061	33.91136
	135.6056	33.91081
	135.6055	33.91075
	135.6046	33.91036
	135.6041	33.91016
	135.6035	33.91006
	135.6033	33.91001
	135.6032	33.91
	135.6029	33.90982
	135.6027	33.90972
	135.6023	33.90969
	135.602	33.90962
	135.6017	33.90943
	135.6014	33.90916
	135.6011	33.90891
	135.6002	33.90855
	135.6	33.90844
	135.6	33.90834
	135.6	33.90826
	135.6002	33.90794
	135.6005	33.90761
	135.6006	33.9072
	135.601	33.90668
	135.6015	33.90618
	135.6017	33.90575
	135.6018	33.9055
	135.6019	33.90521
	135.6018	33.9046
	135.6016	33.90351
	135.6014	33.90305
	135.6012	33.9027
	135.6011	33.90257
	135.6019	33.90221
	135.6022	33.90204
	135.6026	33.90167
	135.6029	33.90153
	135.6037	33.90125
	135.604	33.90103
	135.6046	33.90042
	135.6055	33.89964
	135.606	33.89925
	135.6062	33.89912
	135.6067	33.89913
	135.6071	33.89926
	135.6075	33.89937
	135.6082	33.89943
	135.6088	33.89959
	135.6089	33.89959
	135.6098	33.89959
	135.6103	33.89958
	135.6105	33.89956
	135.6108	33.89952
	135.6113	33.89931
	135.6119	33.89897
	135.6122	33.89888
	135.6125	33.89882
	135.6125	33.89884
	135.6129	33.899
	135.6137	33.89946
	135.614	33.89956
	135.6142	33.89958
	135.6144	33.89955
	135.6148	33.89931
	135.6154	33.89886
	135.6155	33.89884
	135.616	33.89889
	135.6167	33.899
	135.6173	33.89909
	135.6182	33.89927
	135.6186	33.89936
	135.6188	33.89939
	135.6191	33.89943
	135.6195	33.89943
	135.62	33.8992
	135.6205	33.89897
	135.621	33.89874
	135.6216	33.89853
	135.6218	33.89849
	135.6222	33.8984
	135.6228	33.89806
	135.6229	33.89796
	135.6228	33.89784
	135.6227	33.89737
	135.6227	33.89721
	135.6229	33.89685
	135.6229	33.8966
	135.6228	33.89627
	135.6227	33.89601
	135.6225	33.895
	135.6225	33.89479
	135.6227	33.89392
	135.623	33.89292
	135.623	33.89275
	135.6233	33.89199
	135.6233	33.8917
	135.6234	33.89153
	135.6237	33.89118
	135.6241	33.89084
	135.6243	33.89049
	135.6243	33.89009
	135.6244	33.88976
	135.6245	33.8895
	135.6247	33.88934
	135.6251	33.8891
	135.6255	33.88887
	135.6256	33.88859
	135.6257	33.88787
	135.6258	33.88768
	135.6259	33.88754
	135.6262	33.88745
	135.6263	33.88739
	135.6262	33.88642
	135.6265	33.88548
	135.6268	33.88474
	135.6267	33.88449
	135.6266	33.8839
	135.6265	33.88365
	135.6266	33.88336
	135.6265	33.88323
	135.626	33.88297
	135.6257	33.88303
	135.6254	33.88313
	135.625	33.88302
	135.6248	33.88298
	135.6242	33.88284
	135.6238	33.88251
	135.6235	33.88207
	135.6233	33.88183
	135.6234	33.8816
	135.6237	33.88115
	135.6238	33.88075
	135.6237	33.88038
	135.6236	33.88012
	135.6235	33.87958
	135.6234	33.87944
	135.6233	33.87925
	135.6232	33.87913
	135.6229	33.87896
	135.6228	33.87857
	135.6224	33.87825
	135.6222	33.87816
	135.6213	33.87742
	135.6206	33.8771
	135.6202	33.87691
	135.6195	33.87625
	135.6188	33.87548
	135.6186	33.87511
	135.6183	33.87481
	135.6181	33.87461
	135.618	33.87438
	135.6181	33.87344
	135.618	33.87287
	135.6179	33.87228
	135.6179	33.87219
	135.6179	33.87211
	135.618	33.87206
	135.6195	33.87193
	135.6197	33.8719
	135.6204	33.8718
	135.6207	33.87192
	135.6212	33.87261
	135.6215	33.87294
	135.6219	33.87313
	135.6222	33.8732
	135.6223	33.87307
	135.6224	33.87302
	135.6225	33.87299
	135.6229	33.87297
	135.6233	33.873
	135.6237	33.8731
	135.6242	33.87326
	135.6246	33.8734
	135.6252	33.87348
	135.6258	33.87347
	135.6277	33.87306
	135.6282	33.87303
	135.629	33.8731
	135.6293	33.87328
	135.6296	33.87379
	135.6303	33.87446
	135.6304	33.87448
	135.6315	33.87443
	135.6318	33.87455
	135.6323	33.87479
	135.6326	33.87488
	135.6334	33.8748
	135.6337	33.87488
	135.6338	33.87497
	135.634	33.87515
	135.6343	33.87555
	135.6352	33.87668
	135.6355	33.87695
	135.6358	33.87703
	135.636	33.87712
	135.6363	33.87723
	135.6367	33.87742
	135.6372	33.87754
	135.6375	33.87751
	135.6377	33.87756
	135.6378	33.87768
	135.6381	33.87772
	135.6388	33.87745
	135.639	33.87745
	135.64	33.87762
	135.6402	33.8776
	135.6405	33.87745
	135.6412	33.87699
	135.6422	33.87647
	135.6426	33.87631
	135.6427	33.87638
	135.6429	33.8766
	135.6433	33.87695
	135.6437	33.87713
	135.645	33.87743
	135.6455	33.87743
	135.6466	33.87726
	135.6474	33.87696
	135.6478	33.87689
	135.648	33.8769
	135.648	33.87694
	135.6485	33.87746
	135.6494	33.87777
	135.6498	33.87832
	135.6501	33.87888
	135.6503	33.87952
	135.6505	33.87983
	135.6511	33.88048
	135.6514	33.88065
	135.6527	33.88079
	135.6539	33.88098
	135.6546	33.88126
	135.6557	33.88151
	135.6559	33.88157
	135.6559	33.88169
	135.6559	33.88196
	135.656	33.88241
	135.656	33.88312
	135.6562	33.88338
	135.6565	33.88374
	135.6566	33.88403
	135.6566	33.8844
	135.6569	33.885
	135.6572	33.88561
	135.6574	33.8857
	135.6581	33.88592
	135.6587	33.88615
	135.6592	33.88628
	135.6596	33.88629
	135.6599	33.88643
	135.6604	33.88677
	135.6608	33.88729
	135.6609	33.88757
	135.6617	33.88853
	135.6619	33.88866
	135.6622	33.88908
	135.6623	33.88927
	135.6623	33.88953
	135.6622	33.89042
	135.6621	33.89079
	135.6623	33.89141
	135.6625	33.8925
	135.6626	33.89284
	135.6626	33.89352
	135.6626	33.89388
	135.6624	33.89446
	135.6621	33.89569
	135.6617	33.89649
	135.6616	33.89664
	135.6611	33.89694
	135.6609	33.89711
	135.6607	33.89721
	135.6606	33.8974
	135.6606	33.89748
	135.6606	33.89757
	135.6616	33.89814
	135.6627	33.89889
	135.6634	33.89937
	135.6639	33.89956
	135.666	33.8999
	135.6679	33.90003
	135.6695	33.90019
	135.6701	33.90028
	135.671	33.90041
	135.6712	33.90034
	135.6716	33.90008
	135.6719	33.8997
	135.6725	33.89935
	135.6733	33.89889
	135.6738	33.8988
	135.6746	33.89874
	135.6757	33.89837
	135.6761	33.89834
	135.6769	33.89835
	135.6777	33.89814
	135.6781	33.89812
	135.6787	33.89817
	135.6795	33.89844
	135.68	33.8988
	135.6801	33.89884
	135.6804	33.89899
	135.6816	33.89915
	135.6819	33.89929
	135.6823	33.89957
	135.6826	33.89979
	135.6827	33.9001
	135.6829	33.90036
	135.6833	33.90066
	135.6837	33.90106
	135.6837	33.90127
	135.6835	33.90185
	135.6835	33.90203
	135.6838	33.90224
	135.6846	33.90265
	135.6849	33.90297
	135.6852	33.90348
	135.6854	33.90372
	135.686	33.90396
	135.6869	33.90407
	135.6875	33.90405
	135.6878	33.90405
	135.689	33.90381
	135.6896	33.90366
	135.6903	33.90352
	135.6911	33.90335
	135.6919	33.90334
	135.6923	33.90338
	135.6927	33.90346
	135.694	33.90352
	135.6942	33.9035
	135.6945	33.90343
	135.6949	33.90339
	135.6957	33.90346
	135.696	33.90351
	135.6962	33.90355
	135.6964	33.90355
	135.6968	33.90346
	135.6971	33.90347
	135.698	33.90367
	135.6984	33.90368
	135.6986	33.90368
	135.6999	33.90356
	135.7007	33.90376
	135.701	33.90378
	135.7026	33.90378
	135.7033	33.90377
	135.7035	33.90376
	135.7042	33.90365
	135.7046	33.90364
	135.7051	33.90378
	135.7054	33.90389
	135.706	33.9043
	135.7063	33.90445
	135.7066	33.90447
	135.7074	33.90434
	135.7086	33.90432
	135.7091	33.90431
	135.7097	33.9043
	135.71	33.90424
	135.7106	33.90392
	135.7113	33.90338
	135.7119	33.90303
	135.7121	33.90293
	135.7132	33.90273
	135.7138	33.90261
	135.7142	33.90259
	135.7146	33.90269
	135.7152	33.90283
	135.7156	33.90287
	135.7158	33.90287
	135.7166	33.9027
	135.7168	33.90275
	135.7177	33.90291
	135.7184	33.90309
	135.7188	33.90301
	135.7194	33.90281
	135.7197	33.9027
	135.7201	33.90267
	135.7208	33.9027
	135.7213	33.90266
	135.722	33.90231
	135.7224	33.90227
	135.7225	33.90232
	135.7226	33.9024
	135.7229	33.90262
	135.7237	33.90322
	135.7239	33.90331
	135.7241	33.90329
	135.726	33.90254
	135.7276	33.90161
	135.7287	33.90107
	135.7289	33.90084
	135.7292	33.90047
	135.7297	33.90026
	135.7302	33.90019
	135.7305	33.89998
	135.7308	33.89947
	135.7311	33.89847
	135.7315	33.89757
	135.7322	33.89659
	135.7325	33.89621
	135.7333	33.89588
	135.7337	33.89583
	135.734	33.89588
	135.7344	33.89608
	135.7346	33.89608
	135.7349	33.896
	135.7351	33.89583
	135.7352	33.89551
	135.7355	33.89521
	135.7356	33.89505
	135.7358	33.89486
	135.7362	33.89423
	135.7363	33.89421
	135.7364	33.89427
	135.7368	33.89476
	135.7369	33.89488
	135.7371	33.89496
	135.7374	33.89488
	135.7378	33.8948
	135.7381	33.8948
	135.7386	33.89493
	135.7388	33.89493
	135.739	33.8948
	135.7389	33.89427
	135.739	33.89337
	135.7392	33.89326
	135.7398	33.89318
	135.7403	33.89301
	135.7408	33.89264
	135.7409	33.89258
	135.7409	33.89237
	135.7408	33.89195
	135.7407	33.89171
	135.7407	33.89145
	135.7408	33.89126
	135.741	33.89113
	135.7414	33.89106
	135.7416	33.89097
	135.7417	33.89094
	135.7419	33.89067
	135.7422	33.8905
	135.7423	33.89028
	135.7422	33.89005
	135.7424	33.89003
	135.7428	33.89014
	135.7431	33.89035
	135.7437	33.89047
	135.744	33.89061
	135.7442	33.89074
	135.7445	33.89078
	135.7449	33.89067
	135.7451	33.89042
	135.7454	33.88979
	135.7454	33.88929
	135.7456	33.8892
	135.7459	33.88924
	135.7463	33.88928
	135.7466	33.88922
	135.7468	33.88907
	135.7469	33.88881
	135.747	33.88869
	135.7472	33.88859
	135.7475	33.8885
	135.7481	33.88805
	135.7484	33.88777
	135.7485	33.88779
	135.749	33.8883
	135.7493	33.88846
	135.7501	33.88877
	135.751	33.88922
	135.7518	33.88956
	135.7519	33.88951
	135.752	33.88933
	135.7524	33.88833
	135.7526	33.8878
	135.7528	33.88764
	135.7531	33.88744
	135.7539	33.88698
	135.7543	33.88669
	135.7548	33.88616
	135.7553	33.88571
	135.7557	33.88533
	135.7559	33.88519
	135.7561	33.88517
	135.7564	33.88524
	135.7579	33.8859
	135.7586	33.88637
	135.7594	33.88689
	135.7596	33.88703
	135.76	33.88727
	135.7602	33.88733
	135.7605	33.88743
	135.7606	33.88748
	135.7607	33.88757
	135.7609	33.88766
	135.7611	33.88774
	135.7614	33.88776
	135.762	33.88765
	135.7628	33.88746
	135.7636	33.88738
	135.7639	33.88737
	135.7641	33.88748
	135.7641	33.88752
	135.7645	33.88855
	135.7647	33.88926
	135.7649	33.88966
	135.7652	33.89006
	135.7657	33.89054
	135.7661	33.89079
	135.7662	33.89084
	135.7666	33.89085
	135.7673	33.89077
	135.7679	33.89081
	135.7687	33.89091
	135.7692	33.89089
	135.7696	33.89081
	135.7701	33.89049
	135.7703	33.89043
	135.7706	33.89032
	135.771	33.89027
	135.7717	33.89001
	135.7721	33.88999
	135.7725	33.89007
	135.7732	33.8903
	135.7733	33.89028
	135.7735	33.89014
	135.7737	33.88985
	135.7742	33.88947
	135.7749	33.88899
	135.7756	33.88857
	135.7761	33.88842
	135.7766	33.88832
	135.7769	33.88834
	135.7774	33.88823
	135.7775	33.88821
	135.7775	33.8882
	135.7776	33.88819
	135.7777	33.88818
	135.7783	33.88838
	135.779	33.88844
	135.7794	33.88847
	135.7803	33.88884
	135.7808	33.88904
	135.7817	33.88957
	135.7824	33.89003
	135.7833	33.89071
	135.7835	33.89108
	135.7837	33.89152
	135.7839	33.89164
	135.7846	33.89184
	135.785	33.89198
	135.7853	33.89225
	135.786	33.89246
	135.7867	33.89255
	135.7872	33.89255
	135.7877	33.8927
	135.7881	33.89276
	135.7887	33.89282
	135.7891	33.89289
	135.7893	33.89299
	135.7895	33.89311
	135.7899	33.89346
	135.7902	33.8937
	135.7906	33.89391
	135.7912	33.89408
	135.7914	33.89411
	135.7914	33.89412
	135.7918	33.8943
	135.7926	33.89462
	135.793	33.89473
	135.7933	33.89475
	135.7939	33.89469
	135.795	33.89473
	135.7954	33.89481
	135.7957	33.89497
	135.7963	33.89531
	135.7968	33.8954
	135.7976	33.89544
	135.7982	33.89545
	135.7983	33.89546
	135.7988	33.89556
	135.7992	33.8956
	135.8002	33.89577
	135.8011	33.89579
	135.8015	33.89574
	135.8017	33.89571
	135.8017	33.89575
	135.8018	33.89582
	135.8023	33.89683
	135.8024	33.89719
	135.8026	33.89773
	135.8027	33.89896
	135.8029	33.90014
	135.8031	33.90089
	135.8033	33.90141
	135.8033	33.90201
	135.8034	33.90298
	135.8035	33.90323
	135.8038	33.90338
	135.8042	33.90371
	135.8047	33.90389
	135.805	33.90395
	135.8054	33.90406
	135.8057	33.90416
	135.8061	33.90437
	135.8065	33.90476
	135.8071	33.90541
	135.8075	33.90573
	135.808	33.90601
	135.8083	33.90628
	135.8085	33.90642
	135.8086	33.90647
	135.8088	33.90644
	135.8097	33.90601
	135.8102	33.90584
	135.8105	33.90584
	135.8113	33.90594
	135.8119	33.90592
	135.8126	33.90582
	135.8129	33.90581
	135.8138	33.90593
	135.8146	33.90609
	135.8149	33.90607
	135.8154	33.90582
	135.8161	33.90568
	135.8163	33.90561
	135.8167	33.90535
	135.817	33.90514
	135.8173	33.90472
	135.8178	33.90424
	135.8181	33.90393
	135.8184	33.90368
	135.8189	33.90327
	135.8192	33.90315
	135.8196	33.90313
	135.8205	33.90315
	135.8208	33.90306
	135.8219	33.90252
	135.8234	33.90168
	135.8236	33.90155
	135.824	33.90131
	135.8256	33.90053
	135.8265	33.90007
	135.8273	33.89981
	135.8282	33.89947
	135.8286	33.89914
	135.8292	33.89859
	135.83	33.89802
	135.8306	33.89763
	135.8312	33.89738
	135.8317	33.89723
	135.8327	33.89709
	135.833	33.89699
	135.8336	33.89676
	135.8341	33.89642
	135.8356	33.89569
	135.8361	33.89552
	135.8365	33.89543
	135.8369	33.8954
	135.8374	33.89555
	135.8378	33.89569
	135.8383	33.89602
	135.8386	33.89633
	135.8392	33.89669
	135.8396	33.89684
	135.8407	33.89702
	135.8422	33.89706
	135.8427	33.89701
	135.8429	33.89694
	135.8437	33.89671
	135.8442	33.89668
	135.845	33.89668
	135.8458	33.89669
	135.8463	33.89674
	135.8465	33.8967
	135.847	33.8966
	135.8475	33.89639
	135.8478	33.89615
	135.8486	33.89536
	135.8492	33.89488
	135.8497	33.89456
	135.85	33.89445
	135.8505	33.89437
	135.8511	33.89439
	135.8513	33.89432
	135.8516	33.89409
	135.852	33.89339
	135.852	33.89324
	135.8521	33.89294
	135.8522	33.89261
	135.8521	33.89238
	135.8521	33.89233
	135.8519	33.89163
	135.8518	33.89117
	135.8519	33.89075
	135.8521	33.89032
	135.8524	33.88991
	135.8529	33.88953
	135.8535	33.88918
	135.8544	33.88888
	135.8547	33.88861
	135.8553	33.88782
	135.8553	33.88759
	135.8552	33.8872
	135.8549	33.88685
	135.8547	33.88665
	135.8544	33.8864
	135.8543	33.88622
	135.8543	33.88573
	135.8543	33.88563
	135.8543	33.88504
	135.8541	33.8847
	135.8539	33.88452
	135.8535	33.88426
	135.8534	33.88408
	135.8534	33.88383
	135.8535	33.88304
	135.8534	33.8828
	135.8532	33.88262
	135.8529	33.88247
	135.8525	33.88239
	135.8523	33.88227
	135.8521	33.88202
	135.8522	33.88147
	135.8524	33.88027
	135.8527	33.87902
	135.8529	33.87826
	135.853	33.87783
	135.853	33.87763
	135.8531	33.87732
	135.8534	33.87674
	135.8537	33.87654
	135.8541	33.87629
	135.8547	33.8761
	135.8551	33.87587
	135.8555	33.87561
	135.8561	33.87503
	135.8568	33.87423
	135.857	33.87398
	135.8573	33.87366
	135.8576	33.87333
	135.8576	33.87331
	135.8579	33.87315
	135.8578	33.8726
	135.8578	33.87197
	135.8582	33.8706
	135.8587	33.86918
	135.8589	33.86848
	135.8588	33.8679
	135.8577	33.86588
	135.8569	33.86496
	135.8566	33.86474
	135.8553	33.86385
	135.8544	33.8634
	135.8538	33.86311
	135.8534	33.86269
	135.8533	33.8623
	135.8534	33.86129
	135.8534	33.86031
	135.8532	33.85945
	135.8532	33.85884
	135.8534	33.85784
	135.8538	33.85715
	135.8547	33.85546
	135.8556	33.85458
	135.8568	33.85386
	135.8581	33.8532
	135.8587	33.85262
	135.8596	33.85155
	135.8603	33.85014
	135.8603	33.85013
	135.8605	33.84953
	135.8606	33.84896
	135.8605	33.84834
	135.8603	33.8475
	135.8594	33.84577
	135.8589	33.8449
	135.8579	33.84389
	135.8574	33.84338
	135.857	33.84257
	135.8569	33.84191
	135.8564	33.84011
	135.8557	33.83669
	135.8557	33.83577
	135.8557	33.83556
	135.856	33.83449
	135.8562	33.83404
	135.8564	33.83356
	135.8569	33.8332
	135.8573	33.8329
	135.8579	33.83226
	135.8581	33.83187
	135.8585	33.83108
	135.8589	33.83019
	135.8589	33.82952
	135.8586	33.828
	135.8584	33.82713
	135.8583	33.82698
	135.8579	33.82618
	135.8575	33.82532
	135.8572	33.82455
	135.8571	33.82417
	135.857	33.82397
	135.857	33.82378
	135.8568	33.82319
	135.8561	33.82123
	135.8559	33.82034
	135.8559	33.81975
	135.856	33.81931
	135.8564	33.81843
	135.8569	33.81766
	135.858	33.8162
	135.8581	33.81614
	135.8585	33.81572
	135.86	33.81439
	135.8606	33.81389
	135.8615	33.81309
	135.8621	33.8124
	135.8627	33.81175
	135.863	33.81131
	135.8635	33.81094
	135.8644	33.81047
	135.8661	33.81001
	135.8683	33.80952
	135.8693	33.80938
	135.8698	33.80929
	135.8704	33.80922
	135.8714	33.8091
	135.8715	33.80908
	135.8722	33.809
	135.8725	33.80884
	135.8728	33.80863
	135.8738	33.80806
	135.8772	33.80577
	135.8783	33.80484
	135.8804	33.80296
	135.881	33.80256
	135.8813	33.80234
	135.8817	33.80208
	135.8825	33.80157
	135.8831	33.80133
	135.8832	33.80132
	135.8835	33.8013
	135.8838	33.80134
	135.8852	33.80198
	135.8862	33.80239
	135.8873	33.80259
	135.888	33.80267
	135.8885	33.80263
	135.8893	33.80248
	135.89	33.80219
	135.8909	33.80168
	135.8917	33.80107
	135.8924	33.80035
	135.8926	33.80007
	135.8929	33.79973
	135.894	33.79846
	135.8947	33.79767
	135.8952	33.79689
	135.8959	33.79556
	135.8965	33.79441
	135.8971	33.7931
	135.8976	33.79194
	135.898	33.79103
	135.8982	33.7906
	135.8982	33.79041
	135.8982	33.7901
	135.8981	33.78969
	135.8978	33.78911
	135.8968	33.78763
	135.8967	33.78728
	135.8968	33.78694
	135.897	33.78651
	135.8975	33.78601
	135.9001	33.78263
	135.9003	33.78235
	135.9014	33.78082
	135.9017	33.7804
	135.9022	33.77939
	135.9029	33.77766
	135.9033	33.77631
	135.9037	33.77524
	135.9046	33.77171
	135.9046	33.77161
	135.9053	33.76953
	135.9057	33.76848
	135.906	33.76796
	135.9065	33.76743
	135.9069	33.7671
	135.9078	33.76679
	135.9086	33.76662
	135.9091	33.76657
	135.9105	33.76666
	135.9116	33.7669
	135.9128	33.76716
	135.9138	33.76728
	135.9149	33.7672
	135.9159	33.76702
	135.9169	33.76662
	135.9178	33.76604
	135.9184	33.76552
	135.919	33.76465
	135.9193	33.76409
	135.9195	33.7628
	135.9196	33.76192
	135.9199	33.76047
	135.9205	33.75876
	135.9208	33.75843
	135.9213	33.75802
	135.9224	33.75747
	135.9233	33.75672
	135.9242	33.75617
	135.925	33.75573
	135.9251	33.75569
	135.9272	33.75459
	135.9284	33.75402
	135.929	33.75383
	135.9296	33.7538
	135.9305	33.75395
	135.9311	33.75423
	135.9321	33.75484
	135.9332	33.75568
	135.9339	33.75649
	135.9342	33.7567
	135.9348	33.75722
	135.9355	33.75752
	135.9364	33.75775
	135.9371	33.75777
	135.9376	33.75761
	135.938	33.75741
	135.9384	33.75709
	135.9387	33.75684
	135.9389	33.75626
	135.9389	33.7548
	135.9389	33.75337
	135.9387	33.75244
	135.9385	33.75106
	135.9386	33.75054
	135.9386	33.74966
	135.9387	33.74871
	135.939	33.74505
	135.9392	33.74353
	135.9392	33.74348
	135.9395	33.7417
	135.9398	33.73974
	135.9399	33.73859
	135.9401	33.73778
	135.9405	33.73708
	135.9412	33.73574
	135.9418	33.73496
	135.9422	33.73456
	135.9437	33.73338
	135.9451	33.73249
	135.9453	33.73235
	135.9459	33.73203
	135.9483	33.7309
	135.9498	33.73018
	135.9503	33.72996
	135.9511	33.72962
	135.9513	33.72953
	135.9551	33.7284
	135.9552	33.72836
	135.9562	33.72797
	135.9563	33.72793
	135.9564	33.72785
	135.9582	33.72691
	135.9602	33.72587
	135.9616	33.7251
	135.9627	33.72457
	135.9635	33.72431
	135.9649	33.72412
	135.9675	33.72383
	135.9685	33.72369
	135.9707	33.72335
	135.9732	33.72299
	135.9738	33.72293
	135.9748	33.72286
	135.9752	33.7229
	135.9758	33.72303
	135.976	33.72308
	135.9761	33.72309
	135.9764	33.72328
	135.9767	33.72364
	135.977	33.72419
	135.9771	33.72477
	135.9768	33.7262
	135.9763	33.72753
	135.976	33.72821
	135.9756	33.72877
	135.9751	33.72925
	135.974	33.73005
	135.9731	33.73045
	135.973	33.7305
	135.9725	33.73077
	135.9721	33.73117
	135.9717	33.73173
	135.9717	33.73213
	135.9719	33.73297
	135.9723	33.73437
	135.9727	33.73515
	135.973	33.73544
	135.9736	33.73563
	135.9739	33.73571
	135.9758	33.73633
	135.9769	33.73652
	135.9787	33.73686
	135.9795	33.73688
	135.9808	33.7368
	135.9809	33.7368
	135.9833	33.73637
	135.9865	33.73519
	135.9874	33.73481
	135.988	33.73455
	135.9885	33.73436
	135.9917	33.73301
	135.9938	33.73206
	135.9972	33.73051
	135.9974	33.73044
	135.9993	33.72975
	136.0024	33.72864
	136.0039	33.72808
	136.0047	33.72787
	136.0057	33.72768
	136.0067	33.72753
	136.0071	33.72747
	136.0074	33.72742
	136.0077	33.72731
	136.0077	33.72729
	136.0081	33.72702
	136.0083	33.72679
	136.0091	33.72599
	136.0095	33.72566
	136.0106	33.72461
	136.0108	33.72442
	136.0115	33.72368
	136.3348	33.59409
	135.8795	33.28173
	134.9279	33.45143
	134.9714	33.54318
	134.9823	33.59682
	134.9869	33.64765
	134.9343	33.89673
	134.9329	33.90465
	134.9249	33.93316
	134.9177	33.94898
	134.8843	33.99502
	134.8804	34.01222
	134.9178	34.04622
	134.9365	34.08467
	134.9585	34.1563
	134.9738	34.16745
	135.003	34.18388
	134.9857	34.24909
	134.9798	34.26372
	134.9787	34.28147
	134.9791	34.29503
	134.985	34.31736
	134.9897	34.35104
	135.0931	34.31197
END
END
