Mauritania
1
	-12.00056	25.99633
	-12.00056	26.0
	-11.96691	25.99942
	-11.93415	25.99959
	-11.90024	25.99938
	-11.8675	25.99972
	-11.83381	25.99939
	-11.80017	25.99917
	-11.76743	25.99913
	-11.73463	25.99928
	-11.66795	25.99892
	-11.63387	25.99904
	-11.59998	25.99882
	-11.5672	25.99923
	-11.53358	25.99906
	-11.50056	25.99944
	-11.46667	25.99972
	-11.43389	25.99972
	-11.4	26.0
	-11.33333	26.0
	-11.30028	26.00028
	-11.26667	25.99944
	-11.23361	25.99972
	-10.76722	25.99972
	-10.73333	25.99944
	-10.70056	26.00028
	-10.66639	26.0
	-10.63389	26.0
	-10.38793	25.99972
	-10.36694	25.99972
	-10.33389	25.99944
	-10.30028	26.0
	-10.26722	25.99972
	-10.23361	25.99972
	-10.20056	26.0
	-10.16667	26.0
	-10.13389	25.99972
	-10.1	26.0
	-10.06722	26.0
	-10.03333	25.99972
	-10.00056	26.0
	-9.933611	25.99944
	-9.9	26.0
	-9.866944	25.99972
	-9.833333	26.0
	-9.800278	25.99972
	-9.766667	26.0
	-9.733333	25.99972
	-9.700556	26.00028
	-9.666667	25.99972
	-9.633889	26.00028
	-9.6	25.99972
	-9.567222	26.00028
	-9.533333	25.99972
	-9.500278	26.0
	-9.466667	25.99972
	-9.433611	26.0
	-9.4	25.99944
	-9.333611	26.0
	-9.3	25.99972
	-9.233333	26.00028
	-9.200556	25.99972
	-9.133611	26.00028
	-9.099722	25.99972
	-9.066944	25.99972
	-9.0	26.00028
	-8.966944	25.99972
	-8.933333	25.99972
	-8.900278	26.0
	-8.866389	26.0
	-8.833611	25.99972
	-8.766944	25.99972
	-8.733889	26.0
	-8.7	26.0
	-8.666944	26.00028
	-8.666389	26.06639
	-8.667222	26.09944
	-8.666667	26.13333
	-8.666667	26.16639
	-8.667222	26.19944
	-8.666667	26.26639
	-8.666944	26.33333
	-8.666667	26.59972
	-8.666944	26.76611
	-8.666667	26.8
	-8.666667	27.03333
	-8.668117	27.31494
	-8.570092	27.25747
	-8.557994	27.25041
	-8.548205	27.24444
	-8.533999	27.23601
	-8.522106	27.2292
	-8.500507	27.21651
	-8.448173	27.18479
	-8.370951	27.13918
	-8.295293	27.09478
	-8.231291	27.05679
	-8.189295	27.03245
	-8.182714	27.02833
	-8.175779	27.02455
	-8.163572	27.017
	-8.161433	27.01595
	-8.154775	27.01192
	-8.149742	27.00899
	-8.134348	26.9995
	-8.101738	26.98008
	-8.052994	26.95144
	-8.001231	26.92079
	-7.941199	26.88538
	-7.883729	26.85118
	-7.835259	26.82248
	-7.744899	26.76856
	-7.693755	26.73843
	-7.636417	26.70434
	-7.578652	26.66979
	-7.395568	26.56048
	-7.317103	26.51373
	-7.265981	26.48279
	-7.154908	26.41639
	-7.082964	26.37297
	-7.050064	26.35331
	-7.023116	26.33699
	-7.008001	26.32765
	-7.001131	26.32421
	-6.907849	26.2683
	-6.832909	26.22327
	-6.74628	26.17067
	-6.650707	26.11269
	-6.578865	26.06932
	-6.519304	26.033
	-6.49823	26.02034
	-6.477558	26.00768
	-6.468647	26.00241
	-6.465473	26.00023
	-6.433855	25.98058
	-6.387369	25.95268
	-6.318159	25.91011
	-6.247694	25.86714
	-6.18595	25.82933
	-6.167161	25.81805
	-6.120103	25.78882
	-6.085299	25.76757
	-6.057653	25.75055
	-6.034448	25.73623
	-6.009615	25.72122
	-6.001025	25.71658
	-5.992689	25.71228
	-5.969001	25.6979
	-5.945217	25.68324
	-5.906724	25.65975
	-5.859012	25.63053
	-5.805667	25.59758
	-5.72258	25.54671
	-5.668261	25.51348
	-5.390727	25.34384
	-5.251464	25.25848
	-5.091579	25.16017
	-5.001564	25.10488
	-4.833334	25.0
	-4.867951	25.00085
	-5.003022	25.00108
	-5.232904	25.00061
	-5.360591	25.00074
	-5.588328	25.00085
	-5.804633	25.00085
	-6.000152	25.00031
	-6.57188	25.00007
	-6.566849	24.95765
	-6.560093	24.89802
	-6.550401	24.81123
	-6.529105	24.62133
	-6.520588	24.54584
	-6.49944	24.3561
	-6.489894	24.26945
	-6.475501	24.14271
	-6.467277	24.06957
	-6.459932	24.00019
	-6.456682	23.97178
	-6.429414	23.7575
	-6.417463	23.66291
	-6.40568	23.56814
	-6.387164	23.42473
	-6.367471	23.26954
	-6.362697	23.23135
	-6.358732	23.20118
	-6.351714	23.1361
	-6.347247	23.08696
	-6.341505	23.03209
	-6.338042	22.9999
	-6.334686	22.96361
	-6.323272	22.86648
	-6.309223	22.74751
	-6.285627	22.54425
	-6.272018	22.42791
	-6.258848	22.31443
	-6.250836	22.24726
	-6.233934	22.10118
	-6.226142	22.03335
	-6.222191	21.99999
	-6.217419	21.96155
	-6.205911	21.85919
	-6.199041	21.80148
	-6.18719	21.6962
	-6.178087	21.61805
	-6.168641	21.5344
	-6.155931	21.42105
	-6.142878	21.30735
	-6.133603	21.22576
	-6.120206	21.10708
	-6.110932	21.02619
	-6.104501	20.96893
	-6.096493	20.9017
	-6.080349	20.75652
	-6.052671	20.50822
	-6.024607	20.25645
	-6.000567	20.04079
	-5.996633	20.00014
	-5.952162	19.59379
	-5.907616	19.18677
	-5.900302	19.1233
	-5.886289	19.00001
	-5.87652	18.91517
	-5.864231	18.80946
	-5.851546	18.70388
	-5.838861	18.59539
	-5.826307	18.4873
	-5.813886	18.37882
	-5.798822	18.24113
	-5.782966	18.10014
	-5.77147	17.99998
	-5.76267	17.91201
	-5.753429	17.8314
	-5.744187	17.74798
	-5.735203	17.66776
	-5.726603	17.58728
	-5.714025	17.4742
	-5.705169	17.39732
	-5.694773	17.30388
	-5.668717	17.06605
	-5.661273	17.00033
	-5.653187	16.92486
	-5.632779	16.72592
	-5.626105	16.66187
	-5.614682	16.55277
	-5.609034	16.50015
	-5.587471	16.48706
	-5.514183	16.44213
	-5.438584	16.39644
	-5.364783	16.35165
	-5.333333	16.33333
	-5.370256	16.14874
	-5.413833	15.93086
	-5.466703	15.6665
	-5.5	15.5
	-5.563671	15.50019
	-6.000347	15.50026
	-6.18885	15.49997
	-6.256727	15.49997
	-6.325516	15.50001
	-6.390153	15.49997
	-6.731087	15.49997
	-6.999878	15.50026
	-7.064105	15.5001
	-7.182883	15.50059
	-7.318674	15.49978
	-7.429187	15.5001
	-7.581345	15.49978
	-7.725239	15.49978
	-7.911426	15.5001
	-8.000064	15.49994
	-8.055947	15.50058
	-8.14356	15.50071
	-8.393848	15.50071
	-8.509229	15.50046
	-8.640332	15.50058
	-9.000042	15.50046
	-9.076561	15.50138
	-9.199842	15.50183
	-9.320187	15.50138
	-9.331251	15.50161
	-9.331476	15.53886
	-9.331702	15.5655
	-9.328315	15.5856
	-9.317929	15.64972
	-9.311607	15.68359
	-9.309575	15.69353
	-9.331025	15.70279
	-9.355184	15.68314
	-9.440081	15.61111
	-9.446854	15.6057
	-9.440532	15.58267
	-9.40847	15.46435
	-9.401019	15.43884
	-9.468078	15.43568
	-9.609873	15.42958
	-9.685061	15.4271
	-9.685738	15.42597
	-9.685767	15.42481
	-9.686642	15.42461
	-9.687573	15.42459
	-9.688025	15.42402
	-9.688448	15.42303
	-9.691299	15.42312
	-9.691976	15.4221
	-9.691835	15.42078
	-9.691609	15.41942
	-9.691637	15.41872
	-9.692286	15.41829
	-9.693641	15.41829
	-9.69477	15.41807
	-9.695815	15.41736
	-9.696802	15.41761
	-9.698608	15.41829
	-9.699653	15.41781
	-9.700105	15.41668
	-9.701121	15.41567
	-9.702137	15.41476
	-9.702673	15.414
	-9.703604	15.4133
	-9.704507	15.41228
	-9.705636	15.41149
	-9.706878	15.41228
	-9.707781	15.4133
	-9.70891	15.41318
	-9.711478	15.41242
	-9.712975	15.41217
	-9.714329	15.41183
	-9.720058	15.40881
	-9.72209	15.40768
	-9.722994	15.40768
	-9.725026	15.40926
	-9.727283	15.41061
	-9.728412	15.41152
	-9.729767	15.41152
	-9.731573	15.41061
	-9.733606	15.40949
	-9.735863	15.40926
	-9.736767	15.40949
	-9.738799	15.41039
	-9.740379	15.41129
	-9.743314	15.4122
	-9.745121	15.41242
	-9.74625	15.41377
	-9.746927	15.41648
	-9.748056	15.41807
	-9.74947	15.41932
	-9.751384	15.41957
	-9.753881	15.41965
	-9.755961	15.41923
	-9.757709	15.41815
	-9.760455	15.41615
	-9.762036	15.41382
	-9.763534	15.41299
	-9.765864	15.41233
	-9.770025	15.41216
	-9.772522	15.41216
	-9.773687	15.41291
	-9.775018	15.41307
	-9.77635	15.41332
	-9.777847	15.41416
	-9.779262	15.41457
	-9.780927	15.41424
	-9.782508	15.41307
	-9.785171	15.41099
	-9.789831	15.40783
	-9.793742	15.40492
	-9.79524	15.40334
	-9.795656	15.40226
	-9.795739	15.40093
	-9.796155	15.39968
	-9.797653	15.39835
	-9.79782	15.3976
	-9.797404	15.39552
	-9.796988	15.39402
	-9.796488	15.39302
	-9.796155	15.39185
	-9.796155	15.39094
	-9.796821	15.38994
	-9.797903	15.38944
	-9.799068	15.38919
	-9.799817	15.38936
	-9.800649	15.38994
	-9.801315	15.39069
	-9.802397	15.39086
	-9.804847	15.38955
	-9.809074	15.39101
	-9.811188	15.39101
	-9.814277	15.39069
	-9.818992	15.38987
	-9.82257	15.38906
	-9.825984	15.38906
	-9.829886	15.38939
	-9.840292	15.39101
	-9.84582	15.3915
	-9.849072	15.3915
	-9.850861	15.39215
	-9.854113	15.39215
	-9.858503	15.39231
	-9.863381	15.39297
	-9.871673	15.39378
	-9.880453	15.39508
	-9.885005	15.39589
	-9.887444	15.39687
	-9.889721	15.39719
	-9.895574	15.39882
	-9.899802	15.39833
	-9.903541	15.39768
	-9.907443	15.398
	-9.913785	15.39914
	-9.918013	15.39914
	-9.92159	15.39996
	-9.922402	15.40008
	-9.922728	15.39947
	-9.92289	15.39752
	-9.923216	15.3954
	-9.924516	15.3928
	-9.926142	15.39118
	-9.927931	15.3902
	-9.929232	15.39036
	-9.930695	15.39118
	-9.932666	15.39139
	-9.937199	15.38955
	-9.938987	15.38939
	-9.942239	15.38922
	-9.946304	15.38841
	-9.951507	15.38809
	-9.958661	15.38695
	-9.960612	15.38516
	-9.962075	15.38402
	-9.964189	15.3837
	-9.967116	15.38435
	-9.96923	15.38451
	-9.971831	15.38435
	-9.975246	15.38353
	-9.978335	15.38223
	-9.980774	15.37963
	-9.98248	15.3786
	-9.985001	15.37784
	-9.987115	15.3767
	-9.988253	15.37475
	-9.990042	15.37264
	-9.991505	15.37183
	-9.993456	15.37215
	-9.995732	15.37183
	-10.00061	15.37215
	-10.00313	15.37219
	-10.00543	15.3732
	-10.00752	15.37366
	-10.0098	15.37317
	-10.01191	15.37284
	-10.01402	15.37138
	-10.0163	15.36992
	-10.02019	15.3695
	-10.02313	15.3691
	-10.02654	15.36813
	-10.03077	15.36699
	-10.03435	15.36553
	-10.03825	15.36406
	-10.04183	15.36423
	-10.04443	15.36504
	-10.04654	15.36471
	-10.04979	15.36374
	-10.05662	15.36293
	-10.06475	15.36163
	-10.06801	15.36179
	-10.0724	15.36293
	-10.07418	15.36455
	-10.076	15.36658
	-10.07922	15.36634
	-10.08199	15.36748
	-10.0841	15.36845
	-10.08599	15.36826
	-10.08986	15.36817
	-10.09138	15.36893
	-10.09366	15.36859
	-10.0961	15.36902
	-10.09787	15.36977
	-10.10082	15.36986
	-10.10411	15.36952
	-10.10647	15.36977
	-10.10815	15.37053
	-10.10975	15.37239
	-10.11068	15.37289
	-10.11152	15.37222
	-10.11321	15.37222
	-10.1154	15.37289
	-10.11683	15.37281
	-10.11759	15.3723
	-10.11911	15.37264
	-10.12063	15.37314
	-10.12231	15.3734
	-10.12408	15.37314
	-10.12543	15.3734
	-10.12636	15.37466
	-10.12686	15.37508
	-10.12779	15.375
	-10.12838	15.37416
	-10.12981	15.3734
	-10.13023	15.37373
	-10.12998	15.37449
	-10.13007	15.37517
	-10.13066	15.37559
	-10.132	15.37576
	-10.13352	15.37643
	-10.13479	15.3766
	-10.13655	15.37601
	-10.13748	15.37626
	-10.14043	15.37795
	-10.14237	15.37896
	-10.1433	15.37955
	-10.14448	15.37972
	-10.1449	15.38039
	-10.14481	15.38107
	-10.14515	15.38166
	-10.1465	15.38157
	-10.1465	15.38216
	-10.15021	15.38225
	-10.15054	15.38275
	-10.15038	15.38368
	-10.14995	15.38452
	-10.14928	15.38503
	-10.14928	15.3857
	-10.15004	15.38579
	-10.15046	15.38654
	-10.1508	15.38697
	-10.15113	15.38764
	-10.15189	15.38815
	-10.15274	15.38832
	-10.15299	15.38899
	-10.15307	15.39025
	-10.15349	15.39093
	-10.15552	15.39127
	-10.15644	15.39135
	-10.15729	15.3911
	-10.15805	15.39127
	-10.15821	15.39278
	-10.15973	15.39363
	-10.16243	15.39371
	-10.16293	15.39497
	-10.16462	15.39759
	-10.16588	15.39986
	-10.16807	15.40121
	-10.17018	15.40281
	-10.1722	15.40273
	-10.17414	15.4018
	-10.17794	15.39978
	-10.18063	15.39615
	-10.18215	15.39539
	-10.18392	15.39539
	-10.18527	15.39582
	-10.18695	15.39792
	-10.18847	15.4007
	-10.1894	15.40129
	-10.19058	15.40087
	-10.19159	15.40113
	-10.19268	15.40197
	-10.19344	15.40323
	-10.19395	15.40374
	-10.19479	15.40332
	-10.19572	15.40264
	-10.19681	15.40222
	-10.19749	15.40289
	-10.19833	15.40509
	-10.20052	15.40711
	-10.20162	15.40871
	-10.20221	15.41116
	-10.20271	15.41191
	-10.20372	15.41183
	-10.206	15.41124
	-10.20684	15.41191
	-10.2087	15.41208
	-10.21064	15.41233
	-10.21064	15.41335
	-10.21047	15.41512
	-10.21139	15.41579
	-10.21375	15.41579
	-10.21527	15.4168
	-10.21637	15.41621
	-10.21915	15.41453
	-10.22125	15.41444
	-10.2242	15.41495
	-10.23036	15.41478
	-10.23154	15.41613
	-10.23297	15.41697
	-10.236	15.41705
	-10.23862	15.4179
	-10.24199	15.42093
	-10.24367	15.42144
	-10.24679	15.42118
	-10.24789	15.42034
	-10.24974	15.42034
	-10.25564	15.42051
	-10.25648	15.42228
	-10.25926	15.42363
	-10.2623	15.42413
	-10.26457	15.42338
	-10.26634	15.42321
	-10.27357	15.42378
	-10.27271	15.42769
	-10.2745	15.43065
	-10.2762	15.4313
	-10.27688	15.43172
	-10.27823	15.43121
	-10.27898	15.43138
	-10.28033	15.43222
	-10.28193	15.43231
	-10.28505	15.43383
	-10.28716	15.43408
	-10.29137	15.43559
	-10.29255	15.43635
	-10.29306	15.4377
	-10.29356	15.43829
	-10.29533	15.43812
	-10.29711	15.43871
	-10.2982	15.43863
	-10.29938	15.43779
	-10.30056	15.43753
	-10.30157	15.43829
	-10.30166	15.43981
	-10.30292	15.44006
	-10.30402	15.44133
	-10.30511	15.44251
	-10.30848	15.4436
	-10.31126	15.44385
	-10.31337	15.44385
	-10.31464	15.4431
	-10.32051	15.44322
	-10.32206	15.44266
	-10.32317	15.44089
	-10.32528	15.43945
	-10.32749	15.43723
	-10.32971	15.43557
	-10.3327	15.43446
	-10.33536	15.4349
	-10.34002	15.43634
	-10.34212	15.43668
	-10.34456	15.43679
	-10.34707	15.43824
	-10.34931	15.43894
	-10.35077	15.43878
	-10.35298	15.43812
	-10.35542	15.43778
	-10.35897	15.43778
	-10.3603	15.43745
	-10.36263	15.43601
	-10.36407	15.43623
	-10.3652	15.43673
	-10.36651	15.43679
	-10.36828	15.43579
	-10.36983	15.43535
	-10.37471	15.43612
	-10.37637	15.4369
	-10.38102	15.43767
	-10.38446	15.43812
	-10.38612	15.43934
	-10.38738	15.44012
	-10.39266	15.44111
	-10.3941	15.44078
	-10.39543	15.44133
	-10.39698	15.44155
	-10.39865	15.44044
	-10.40053	15.43911
	-10.40241	15.43856
	-10.40474	15.43911
	-10.40674	15.43967
	-10.40796	15.43911
	-10.40929	15.43789
	-10.41139	15.43701
	-10.41184	15.43535
	-10.41283	15.43501
	-10.41339	15.43557
	-10.41538	15.43501
	-10.41649	15.43501
	-10.41804	15.43368
	-10.41948	15.43291
	-10.42059	15.43357
	-10.4227	15.43446
	-10.42469	15.43512
	-10.42813	15.4349
	-10.42979	15.43546
	-10.4319	15.43845
	-10.43234	15.44066
	-10.43356	15.44188
	-10.43555	15.44332
	-10.43722	15.44488
	-10.44342	15.44499
	-10.44564	15.44343
	-10.44719	15.44294
	-10.44832	15.44277
	-10.44938	15.44212
	-10.44987	15.44123
	-10.45003	15.44041
	-10.45093	15.44017
	-10.45166	15.44082
	-10.45256	15.44115
	-10.45361	15.4405
	-10.45467	15.43968
	-10.45581	15.43985
	-10.45679	15.44025
	-10.45777	15.44017
	-10.45939	15.43944
	-10.46135	15.43919
	-10.46265	15.43879
	-10.46387	15.43903
	-10.46562	15.44038
	-10.46663	15.44017
	-10.46737	15.43993
	-10.46802	15.43863
	-10.46891	15.43806
	-10.4751	15.43814
	-10.47656	15.43838
	-10.47738	15.43863
	-10.47811	15.4396
	-10.47917	15.44009
	-10.48283	15.44147
	-10.48795	15.44318
	-10.48918	15.44277
	-10.49097	15.44277
	-10.49276	15.44383
	-10.49471	15.44424
	-10.49772	15.44611
	-10.49967	15.44627
	-10.50097	15.44717
	-10.50309	15.44717
	-10.5061	15.44749
	-10.50724	15.44758
	-10.50928	15.44644
	-10.51058	15.44644
	-10.5122	15.44774
	-10.51384	15.44829
	-10.51563	15.44861
	-10.51563	15.44975
	-10.51742	15.45073
	-10.51888	15.45121
	-10.52034	15.44991
	-10.52099	15.44812
	-10.52246	15.44715
	-10.52441	15.44617
	-10.52685	15.44487
	-10.52961	15.44471
	-10.5314	15.44504
	-10.53237	15.44601
	-10.53351	15.44552
	-10.53498	15.44552
	-10.53628	15.44406
	-10.5366	15.4413
	-10.53904	15.43951
	-10.54278	15.43886
	-10.54554	15.43918
	-10.54717	15.43869
	-10.54993	15.43772
	-10.55319	15.43723
	-10.55497	15.43723
	-10.55579	15.43544
	-10.55725	15.43496
	-10.55888	15.43544
	-10.56262	15.43788
	-10.56408	15.43788
	-10.56571	15.43723
	-10.56619	15.43561
	-10.56636	15.43333
	-10.56766	15.43154
	-10.57026	15.42975
	-10.57075	15.42715
	-10.57188	15.42536
	-10.57351	15.42292
	-10.57514	15.42211
	-10.57611	15.42244
	-10.57685	15.42469
	-10.57791	15.4254
	-10.57985	15.42536
	-10.58018	15.42699
	-10.5813	15.42811
	-10.58322	15.42852
	-10.58541	15.42908
	-10.58782	15.4291
	-10.59	15.42851
	-10.59128	15.4278
	-10.59397	15.42766
	-10.60588	15.4244
	-10.60744	15.42383
	-10.61821	15.42497
	-10.62175	15.42482
	-10.63451	15.42114
	-10.63706	15.42015
	-10.63891	15.42015
	-10.64387	15.42128
	-10.65393	15.42426
	-10.65804	15.42539
	-10.66116	15.42737
	-10.66612	15.4312
	-10.66796	15.4329
	-10.66967	15.43375
	-10.67334	15.43369
	-10.67518	15.43291
	-10.67745	15.43291
	-10.6795	15.43347
	-10.6851	15.43687
	-10.68708	15.43857
	-10.68857	15.43907
	-10.6938	15.43871
	-10.69819	15.4385
	-10.7006	15.4385
	-10.70195	15.43921
	-10.7028	15.4419
	-10.704	15.44296
	-10.7052	15.44346
	-10.70704	15.44338
	-10.70867	15.44296
	-10.71044	15.44282
	-10.7149	15.44176
	-10.71603	15.44133
	-10.71695	15.44204
	-10.7188	15.44225
	-10.72092	15.44225
	-10.72219	15.44098
	-10.72425	15.43843
	-10.7251	15.43751
	-10.72637	15.43666
	-10.72701	15.43545
	-10.72722	15.43361
	-10.72835	15.43036
	-10.72864	15.42774
	-10.72793	15.42632
	-10.72658	15.42406
	-10.7263	15.42165
	-10.72687	15.41754
	-10.72644	15.41592
	-10.72446	15.41323
	-10.72389	15.41131
	-10.72375	15.40862
	-10.72404	15.40742
	-10.72418	15.4048
	-10.72361	15.40211
	-10.72311	15.39779
	-10.72191	15.39163
	-10.72035	15.38491
	-10.71922	15.38115
	-10.71802	15.37868
	-10.71632	15.37669
	-10.71554	15.37478
	-10.71533	15.37117
	-10.7161	15.37004
	-10.71745	15.36905
	-10.71887	15.36905
	-10.72014	15.3682
	-10.72127	15.36714
	-10.7217	15.36586
	-10.7224	15.36486
	-10.72502	15.36154
	-10.72743	15.35786
	-10.72856	15.35574
	-10.72963	15.35312
	-10.72963	15.35121
	-10.72956	15.34965
	-10.72998	15.34852
	-10.73133	15.34632
	-10.73218	15.34363
	-10.73451	15.34023
	-10.73749	15.33684
	-10.74074	15.33471
	-10.74223	15.33414
	-10.74592	15.33595
	-10.74867	15.33754
	-10.75037	15.33797
	-10.75306	15.33712
	-10.75455	15.33655
	-10.75625	15.33662
	-10.75717	15.3357
	-10.75851	15.33414
	-10.7595	15.3328
	-10.7617	15.33153
	-10.76347	15.33032
	-10.76446	15.32869
	-10.76552	15.32664
	-10.76644	15.32558
	-10.76779	15.32501
	-10.76949	15.32501
	-10.7714	15.32487
	-10.77373	15.3243
	-10.7748	15.32317
	-10.77557	15.32112
	-10.77642	15.31949
	-10.77742	15.31793
	-10.77763	15.31524
	-10.77784	15.31333
	-10.77883	15.3117
	-10.77883	15.30937
	-10.77826	15.30795
	-10.77869	15.30682
	-10.77975	15.30618
	-10.78095	15.3059
	-10.784	15.3059
	-10.78726	15.30597
	-10.78896	15.30781
	-10.79108	15.30894
	-10.79547	15.30915
	-10.79795	15.30845
	-10.8	15.30703
	-10.80333	15.30193
	-10.80382	15.3003
	-10.80347	15.29931
	-10.80404	15.29691
	-10.8051	15.29521
	-10.80779	15.29259
	-10.81026	15.29039
	-10.81387	15.28791
	-10.8201	15.28714
	-10.8235	15.28551
	-10.82506	15.2819
	-10.82513	15.27956
	-10.82584	15.27765
	-10.82747	15.27567
	-10.82973	15.27333
	-10.83044	15.27114
	-10.83023	15.26979
	-10.82888	15.26661
	-10.82803	15.26498
	-10.82754	15.26413
	-10.82761	15.26278
	-10.82697	15.2603
	-10.82641	15.25931
	-10.82527	15.25868
	-10.82506	15.25726
	-10.82421	15.25606
	-10.82372	15.25499
	-10.82364	15.25145
	-10.82315	15.25025
	-10.82308	15.24898
	-10.82442	15.24466
	-10.82542	15.2426
	-10.82697	15.24183
	-10.83009	15.23602
	-10.83044	15.23383
	-10.83073	15.23163
	-10.83249	15.22653
	-10.83356	15.22292
	-10.83419	15.21662
	-10.83568	15.21436
	-10.83795	15.21287
	-10.8417	15.21195
	-10.84552	15.21046
	-10.84906	15.20997
	-10.85147	15.21018
	-10.8531	15.21053
	-10.8543	15.21018
	-10.85543	15.20891
	-10.85713	15.20728
	-10.85904	15.20636
	-10.8606	15.20526
	-10.86202	15.20341
	-10.86357	15.20228
	-10.86499	15.20143
	-10.86598	15.20072
	-10.86712	15.19845
	-10.86825	15.19562
	-10.87066	15.19094
	-10.8718	15.18839
	-10.87222	15.18655
	-10.87194	15.18116
	-10.87293	15.17918
	-10.87406	15.1694
	-10.8752	15.16614
	-10.87576	15.1633
	-10.87605	15.15536
	-10.87647	15.15182
	-10.87732	15.14898
	-10.88016	15.14473
	-10.88058	15.14261
	-10.87973	15.13935
	-10.87917	15.13481
	-10.87902	15.13212
	-10.88219	15.13138
	-10.88368	15.1299
	-10.88418	15.12607
	-10.8851	15.12438
	-10.88673	15.12324
	-10.88899	15.12275
	-10.89111	15.12246
	-10.89189	15.12154
	-10.89225	15.12034
	-10.89203	15.11878
	-10.89175	15.11765
	-10.89225	15.11645
	-10.89529	15.11361
	-10.89607	15.11298
	-10.89642	15.11184
	-10.89685	15.11021
	-10.89777	15.10908
	-10.89848	15.10731
	-10.89911	15.10689
	-10.89989	15.10767
	-10.90131	15.1088
	-10.90244	15.10965
	-10.90414	15.1105
	-10.90542	15.11163
	-10.90697	15.11418
	-10.90881	15.11552
	-10.91115	15.11765
	-10.91306	15.12062
	-10.91384	15.12282
	-10.91334	15.1248
	-10.91356	15.12657
	-10.91462	15.12791
	-10.91575	15.12884
	-10.91816	15.12905
	-10.91887	15.12983
	-10.9195	15.13209
	-10.92177	15.13429
	-10.92375	15.13528
	-10.92432	15.13606
	-10.92389	15.1374
	-10.92262	15.13988
	-10.92283	15.14406
	-10.92404	15.14427
	-10.92474	15.14498
	-10.92559	15.14484
	-10.92623	15.14512
	-10.92828	15.14767
	-10.92949	15.14752
	-10.93225	15.15021
	-10.93529	15.15121
	-10.93883	15.1522
	-10.94088	15.15361
	-10.9445	15.15623
	-10.9469	15.15892
	-10.94888	15.15935
	-10.95065	15.15928
	-10.95235	15.15949
	-10.95412	15.1602
	-10.95483	15.16154
	-10.95497	15.16381
	-10.95618	15.16473
	-10.95752	15.16551
	-10.95816	15.16714
	-10.95936	15.16905
	-10.96057	15.16997
	-10.96163	15.1723
	-10.96375	15.17499
	-10.96439	15.17627
	-10.9646	15.17747
	-10.96552	15.17832
	-10.96673	15.17896
	-10.96772	15.17967
	-10.96828	15.18122
	-10.96835	15.18292
	-10.96729	15.18363
	-10.96701	15.18512
	-10.9685	15.18675
	-10.9709	15.18852
	-10.97218	15.19014
	-10.97225	15.19298
	-10.97402	15.19552
	-10.97763	15.19899
	-10.98032	15.20289
	-10.98216	15.2031
	-10.98265	15.20416
	-10.98273	15.20728
	-10.98322	15.21096
	-10.98436	15.21648
	-10.98641	15.21839
	-10.98896	15.22045
	-10.99051	15.22278
	-10.99108	15.2254
	-10.99108	15.2283
	-10.99165	15.22993
	-10.99299	15.23177
	-10.99554	15.23375
	-10.99809	15.23531
	-11.00008	15.23715
	-11.00501	15.23903
	-11.00821	15.24223
	-11.0104	15.24408
	-11.0141	15.24577
	-11.01966	15.24678
	-11.02353	15.24829
	-11.0269	15.25132
	-11.0301	15.25334
	-11.0338	15.2552
	-11.03683	15.25722
	-11.03886	15.26008
	-11.04104	15.26244
	-11.04407	15.2653
	-11.04593	15.26833
	-11.04778	15.2717
	-11.05115	15.27692
	-11.05485	15.27944
	-11.05721	15.28146
	-11.05855	15.28315
	-11.05923	15.28517
	-11.06058	15.28584
	-11.06348	15.28654
	-11.06512	15.28786
	-11.07	15.29089
	-11.07163	15.29269
	-11.07262	15.29502
	-11.11155	15.32707
	-11.13739	15.34814
	-11.14149	15.35169
	-11.14659	15.35457
	-11.15447	15.35834
	-11.15669	15.35956
	-11.15913	15.36112
	-11.16112	15.36278
	-11.16722	15.36965
	-11.18996	15.38152
	-11.19151	15.38274
	-11.19251	15.38418
	-11.19373	15.38917
	-11.19484	15.39084
	-11.1975	15.39339
	-11.20205	15.39727
	-11.2046	15.39893
	-11.21668	15.4037
	-11.23055	15.40902
	-11.24641	15.4159
	-11.2494	15.41745
	-11.25173	15.41934
	-11.25295	15.42122
	-11.25384	15.42422
	-11.25639	15.42987
	-11.26082	15.43542
	-11.26493	15.44019
	-11.26637	15.44141
	-11.27025	15.44329
	-11.27302	15.4454
	-11.28666	15.45915
	-11.29842	15.47069
	-11.3003	15.47368
	-11.30485	15.47978
	-11.30585	15.48166
	-11.30651	15.48366
	-11.30707	15.48577
	-11.30773	15.48721
	-11.31062	15.49109
	-11.32137	15.50451
	-11.32215	15.50562
	-11.32392	15.50629
	-11.32659	15.50651
	-11.32825	15.50684
	-11.32969	15.50706
	-11.33091	15.50872
	-11.3328	15.51227
	-11.33413	15.5136
	-11.33568	15.5146
	-11.3369	15.51604
	-11.33867	15.52015
	-11.33978	15.52137
	-11.34111	15.52237
	-11.34278	15.5237
	-11.34488	15.52569
	-11.3461	15.52758
	-11.34744	15.5288
	-11.34943	15.5298
	-11.35143	15.53046
	-11.35276	15.53057
	-11.35498	15.53124
	-11.35664	15.53157
	-11.35919	15.53323
	-11.35997	15.53811
	-11.35875	15.54432
	-11.35797	15.54876
	-11.35841	15.5543
	-11.35875	15.55686
	-11.35997	15.55941
	-11.36285	15.56307
	-11.36485	15.56595
	-11.36751	15.57205
	-11.36984	15.57526
	-11.37294	15.57859
	-11.38004	15.58525
	-11.38303	15.59013
	-11.3898	15.60144
	-11.39191	15.60343
	-11.3949	15.60543
	-11.39989	15.60998
	-11.40189	15.61197
	-11.40322	15.6143
	-11.40444	15.61863
	-11.40832	15.63038
	-11.40921	15.63327
	-11.40921	15.63504
	-11.40978	15.63606
	-11.41087	15.63682
	-11.41382	15.63726
	-11.42229	15.6377
	-11.42396	15.63804
	-11.42587	15.63911
	-11.43061	15.64247
	-11.43233	15.64332
	-11.43299	15.64176
	-11.43383	15.64036
	-11.4356	15.64081
	-11.43709	15.6413
	-11.44	15.64216
	-11.44281	15.64291
	-11.44807	15.64379
	-11.44996	15.64372
	-11.45135	15.64336
	-11.45357	15.64203
	-11.45778	15.63903
	-11.45917	15.63842
	-11.46055	15.63914
	-11.46163	15.63988
	-11.46279	15.64041
	-11.46421	15.6407
	-11.46477	15.63948
	-11.46577	15.63814
	-11.46842	15.63842
	-11.4716	15.63848
	-11.47574	15.63848
	-11.47975	15.63991
	-11.48628	15.64103
	-11.49227	15.64169
	-11.51034	15.6409
	-11.51528	15.64075
	-11.51626	15.64037
	-11.51669	15.63968
	-11.51669	15.63875
	-11.51185	15.63665
	-11.50675	15.63471
	-11.50325	15.63327
	-11.50114	15.63138
	-11.4997	15.62905
	-11.49859	15.6255
	-11.49615	15.62251
	-11.49305	15.61807
	-11.49272	15.61619
	-11.49249	15.61441
	-11.49338	15.6133
	-11.49649	15.6102
	-11.4987	15.60909
	-11.50114	15.60831
	-11.50403	15.60787
	-11.50655	15.60736
	-11.50952	15.60538
	-11.51317	15.59897
	-11.51684	15.59329
	-11.51861	15.5924
	-11.51994	15.59218
	-11.52094	15.59306
	-11.52271	15.5955
	-11.52416	15.59639
	-11.52626	15.59661
	-11.52782	15.59606
	-11.52981	15.5965
	-11.53192	15.59739
	-11.53436	15.59817
	-11.53602	15.59806
	-11.53835	15.59606
	-11.54057	15.59262
	-11.54157	15.59284
	-11.54234	15.59384
	-11.54334	15.59362
	-11.54512	15.59384
	-11.54667	15.5934
	-11.54756	15.59129
	-11.54855	15.58763
	-11.55	15.58574
	-11.55232	15.58408
	-11.5551	15.58297
	-11.55876	15.58353
	-11.56042	15.58331
	-11.56397	15.57909
	-11.56486	15.57421
	-11.56907	15.56778
	-11.57096	15.5619
	-11.57279	15.56007
	-11.58099	15.54998
	-11.58255	15.54887
	-11.58465	15.54854
	-11.58798	15.54809
	-11.59197	15.54699
	-11.60256	15.5415
	-11.60434	15.54017
	-11.6057	15.53737
	-11.60678	15.53662
	-11.60855	15.53651
	-11.61022	15.5354
	-11.61465	15.53274
	-11.62186	15.52808
	-11.6263	15.52741
	-11.62984	15.52508
	-11.63217	15.52597
	-11.6406	15.52486
	-11.64393	15.52431
	-11.64826	15.52841
	-11.6487	15.53118
	-11.65036	15.53296
	-11.65202	15.5344
	-11.65458	15.53484
	-11.65546	15.53373
	-11.65679	15.5314
	-11.65879	15.52974
	-11.66045	15.52885
	-11.66256	15.52963
	-11.66456	15.53018
	-11.666	15.53041
	-11.66511	15.53285
	-11.66367	15.53495
	-11.664	15.53606
	-11.66877	15.53806
	-11.6701	15.5385
	-11.67165	15.53784
	-11.6823	15.53784
	-11.6864	15.53761
	-11.69206	15.53895
	-11.70393	15.53983
	-11.70703	15.53983
	-11.70947	15.5395
	-11.71091	15.53839
	-11.71224	15.53484
	-11.71324	15.5314
	-11.71136	15.52098
	-11.71036	15.51743
	-11.70925	15.51654
	-11.70925	15.51155
	-11.70881	15.50379
	-11.70681	15.49747
	-11.70659	15.49292
	-11.70803	15.49148
	-11.70903	15.48815
	-11.71236	15.48538
	-11.72134	15.48161
	-11.72866	15.47706
	-11.73343	15.47229
	-11.73675	15.4683
	-11.74086	15.46431
	-11.74363	15.46087
	-11.74551	15.45621
	-11.74651	15.45255
	-11.74651	15.44867
	-11.74607	15.44446
	-11.74629	15.44279
	-11.74818	15.43769
	-11.74862	15.43381
	-11.74696	15.42926
	-11.74585	15.42638
	-11.74363	15.42638
	-11.74319	15.42527
	-11.74407	15.41906
	-11.7454	15.41629
	-11.74563	15.4144
	-11.74618	15.4123
	-11.74773	15.41241
	-11.74988	15.41059
	-11.75039	15.40864
	-11.75139	15.40697
	-11.75272	15.40442
	-11.75294	15.40232
	-11.75006	15.3981
	-11.7505	15.3971
	-11.75161	15.39799
	-11.75206	15.39655
	-11.75095	15.39422
	-11.75128	15.38945
	-11.7525	15.38812
	-11.75516	15.38402
	-11.75871	15.37448
	-11.75949	15.36949
	-11.76126	15.36428
	-11.76148	15.35552
	-11.76274	15.35143
	-11.76326	15.34698
	-11.76426	15.34542
	-11.76625	15.34531
	-11.76747	15.34143
	-11.77257	15.33566
	-11.77435	15.33223
	-11.77989	15.32945
	-11.78555	15.32513
	-11.78777	15.32302
	-11.78743	15.32125
	-11.78843	15.31615
	-11.78999	15.31559
	-11.79076	15.30993
	-11.78943	15.30916
	-11.78965	15.30749
	-11.79021	15.30439
	-11.78976	15.30251
	-11.79021	15.30051
	-11.78843	15.30007
	-11.78788	15.29907
	-11.7881	15.29685
	-11.79087	15.29641
	-11.7922	15.29563
	-11.79235	15.29357
	-11.79442	15.29197
	-11.79536	15.2898
	-11.79597	15.2892
	-11.79675	15.28964
	-11.79764	15.28909
	-11.79761	15.28672
	-11.7983	15.28598
	-11.79886	15.28509
	-11.79864	15.2841
	-11.7993	15.28332
	-11.80096	15.2831
	-11.80207	15.28166
	-11.80241	15.27977
	-11.80418	15.27755
	-11.80396	15.27689
	-11.80451	15.27622
	-11.80451	15.27556
	-11.80352	15.27345
	-11.80418	15.2719
	-11.80573	15.2719
	-11.80618	15.26879
	-11.80507	15.26591
	-11.80252	15.25981
	-11.8034	15.2577
	-11.80274	15.25626
	-11.8013	15.25582
	-11.79997	15.25293
	-11.80041	15.25205
	-11.80108	15.25182
	-11.80074	15.24761
	-11.80185	15.24694
	-11.80174	15.24528
	-11.80063	15.24428
	-11.80041	15.23885
	-11.80119	15.23142
	-11.80396	15.22388
	-11.80385	15.22232
	-11.80684	15.21412
	-11.8084	15.21046
	-11.80984	15.20879
	-11.81228	15.20857
	-11.81305	15.20802
	-11.81283	15.20624
	-11.81383	15.20425
	-11.81716	15.2007
	-11.81937	15.19959
	-11.82126	15.19837
	-11.82348	15.19593
	-11.82625	15.19349
	-11.82825	15.19138
	-11.83424	15.1865
	-11.83579	15.18473
	-11.83679	15.17863
	-11.83745	15.17408
	-11.83756	15.17086
	-11.83667	15.16898
	-11.83401	15.16299
	-11.82869	15.1549
	-11.82647	15.15312
	-11.82015	15.15146
	-11.8166	15.15068
	-11.81605	15.14813
	-11.81305	15.14447
	-11.81061	15.1417
	-11.80984	15.13915
	-11.81095	15.13748
	-11.81106	15.13393
	-11.81183	15.13127
	-11.81405	15.12894
	-11.81494	15.12706
	-11.81782	15.12418
	-11.82958	15.11464
	-11.83135	15.10976
	-11.83335	15.11009
	-11.83423	15.10787
	-11.83601	15.10554
	-11.83734	15.10521
	-11.83889	15.10444
	-11.84155	15.101
	-11.84277	15.09856
	-11.84344	15.09689
	-11.84455	15.09612
	-11.84455	15.09512
	-11.84399	15.09268
	-11.84366	15.0888
	-11.84244	15.08658
	-11.84067	15.08558
	-11.83778	15.08458
	-11.83435	15.08392
	-11.83224	15.08259
	-11.8318	15.07815
	-11.8298	15.07338
	-11.82913	15.06995
	-11.82836	15.06695
	-11.8298	15.06507
	-11.82991	15.06329
	-11.83146	15.06207
	-11.83279	15.06019
	-11.83457	15.05819
	-11.8369	15.05675
	-11.839	15.05531
	-11.84011	15.05331
	-11.84067	15.05032
	-11.84233	15.0461
	-11.84255	15.04411
	-11.84189	15.042
	-11.84067	15.04034
	-11.83923	15.04078
	-11.83812	15.03934
	-11.83767	15.03823
	-11.83523	15.03812
	-11.83202	15.03668
	-11.82947	15.0359
	-11.8268	15.03668
	-11.82436	15.03812
	-11.8247	15.039
	-11.82647	15.04011
	-11.82292	15.04255
	-11.82148	15.044
	-11.81838	15.04588
	-11.81383	15.04832
	-11.80984	15.04843
	-11.80718	15.04799
	-11.80596	15.04588
	-11.80485	15.04522
	-11.80063	15.04488
	-11.79919	15.04422
	-11.79742	15.04078
	-11.79409	15.03767
	-11.79376	15.03523
	-11.79331	15.03279
	-11.79054	15.03202
	-11.78877	15.0298
	-11.78877	15.02814
	-11.78965	15.02581
	-11.79032	15.02436
	-11.79021	15.02137
	-11.79032	15.01949
	-11.79154	15.01816
	-11.79209	15.01682
	-11.79309	15.01239
	-11.79409	15.01061
	-11.7942	15.00906
	-11.79453	15.00751
	-11.7959	15.00685
	-11.79675	15.00318
	-11.79686	15.00163
	-11.79764	15.00141
	-11.79819	15.00052
	-11.79791	14.99925
	-11.79803	14.99814
	-11.7978	14.99692
	-11.79725	14.99548
	-11.79791	14.9947
	-11.79825	14.99348
	-11.79747	14.99292
	-11.79725	14.99204
	-11.79736	14.99104
	-11.79791	14.98982
	-11.79758	14.9886
	-11.79714	14.98738
	-11.79703	14.98616
	-11.79703	14.98483
	-11.79758	14.98416
	-11.79847	14.9835
	-11.79891	14.98328
	-11.79902	14.98272
	-11.79847	14.98206
	-11.79825	14.98117
	-11.79891	14.9805
	-11.80124	14.97906
	-11.80202	14.97851
	-11.80202	14.97784
	-11.80124	14.97729
	-11.80113	14.97684
	-11.80113	14.9764
	-11.80169	14.97629
	-11.80213	14.97585
	-11.80213	14.9754
	-11.80157	14.97474
	-11.80113	14.9744
	-11.80069	14.97396
	-11.80047	14.97352
	-11.80069	14.97252
	-11.80113	14.97197
	-11.80157	14.97185
	-11.80157	14.97141
	-11.80113	14.97063
	-11.80113	14.97019
	-11.80235	14.96953
	-11.80257	14.96908
	-11.80202	14.96831
	-11.8018	14.96786
	-11.80224	14.96753
	-11.80346	14.96709
	-11.80379	14.96675
	-11.80401	14.96575
	-11.80468	14.96487
	-11.80501	14.96309
	-11.80512	14.96209
	-11.80712	14.96132
	-11.80845	14.95999
	-11.80912	14.95866
	-11.80856	14.95799
	-11.80812	14.95721
	-11.80823	14.95622
	-11.80912	14.95533
	-11.80912	14.95422
	-11.80878	14.95367
	-11.80912	14.95267
	-11.80978	14.95167
	-11.81011	14.95056
	-11.81056	14.95045
	-11.81156	14.95145
	-11.812	14.95111
	-11.81211	14.95012
	-11.81255	14.94912
	-11.81311	14.94956
	-11.81366	14.94901
	-11.814	14.94801
	-11.81455	14.94779
	-11.81422	14.94679
	-11.81422	14.94568
	-11.81455	14.94468
	-11.81621	14.94158
	-11.81644	14.94047
	-11.81621	14.93958
	-11.81577	14.93858
	-11.81544	14.9377
	-11.81566	14.93315
	-11.81632	14.93182
	-11.81655	14.93027
	-11.81599	14.92882
	-11.81477	14.92794
	-11.81344	14.92727
	-11.813	14.92638
	-11.81278	14.9255
	-11.81344	14.92561
	-11.81377	14.92594
	-11.81422	14.92572
	-11.81355	14.92439
	-11.81045	14.92184
	-11.80923	14.92095
	-11.80856	14.92006
	-11.80856	14.91906
	-11.809	14.91762
	-11.80912	14.91685
	-11.80834	14.91662
	-11.80734	14.91651
	-11.80668	14.91574
	-11.80557	14.9153
	-11.80501	14.91607
	-11.80413	14.91618
	-11.8039	14.91552
	-11.80379	14.91452
	-11.80324	14.91319
	-11.79847	14.9082
	-11.79803	14.90742
	-11.79803	14.9062
	-11.79836	14.90509
	-11.79913	14.90398
	-11.79958	14.90254
	-11.79947	14.90099
	-11.79913	14.89844
	-11.79803	14.896
	-11.79858	14.89566
	-11.79947	14.89566
	-11.80024	14.89522
	-11.80091	14.89478
	-11.80202	14.89467
	-11.80302	14.89356
	-11.8039	14.89311
	-11.80457	14.89256
	-11.80546	14.89167
	-11.80634	14.89156
	-11.80834	14.89234
	-11.80978	14.89334
	-11.81011	14.89456
	-11.81011	14.89544
	-11.81089	14.896
	-11.81211	14.89566
	-11.81233	14.89456
	-11.81289	14.89367
	-11.81366	14.89356
	-11.81488	14.89456
	-11.81632	14.895
	-11.8171	14.89444
	-11.81777	14.89256
	-11.8181	14.89078
	-11.81843	14.88979
	-11.81921	14.88979
	-11.81954	14.89078
	-11.81921	14.89189
	-11.81943	14.89245
	-11.82076	14.89289
	-11.82143	14.89234
	-11.8222	14.89245
	-11.82276	14.89478
	-11.82331	14.89544
	-11.82431	14.89522
	-11.82497	14.89444
	-11.82486	14.89334
	-11.82387	14.89167
	-11.82353	14.89101
	-11.82342	14.89023
	-11.82364	14.88912
	-11.82375	14.88812
	-11.82309	14.88701
	-11.82309	14.88602
	-11.82364	14.88524
	-11.82409	14.88435
	-11.82398	14.88291
	-11.82464	14.88103
	-11.82597	14.88058
	-11.82675	14.88114
	-11.82719	14.88158
	-11.82786	14.88169
	-11.82786	14.88069
	-11.82708	14.87947
	-11.82631	14.87903
	-11.82597	14.87837
	-11.82642	14.8777
	-11.82775	14.87726
	-11.8283	14.87615
	-11.82841	14.87515
	-11.82797	14.87459
	-11.82764	14.87393
	-11.82775	14.87337
	-11.82841	14.87315
	-11.8293	14.8736
	-11.82974	14.87437
	-11.83108	14.87471
	-11.83285	14.87426
	-11.83429	14.8736
	-11.83473	14.87238
	-11.83496	14.87149
	-11.83473	14.87027
	-11.83451	14.86983
	-11.83473	14.86861
	-11.83529	14.86772
	-11.83606	14.86794
	-11.83684	14.86838
	-11.83784	14.86861
	-11.83862	14.86794
	-11.83984	14.86572
	-11.84028	14.86417
	-11.83972	14.8635
	-11.83795	14.86373
	-11.83751	14.86306
	-11.83751	14.86217
	-11.84006	14.86129
	-11.84028	14.86062
	-11.83984	14.85907
	-11.83939	14.85796
	-11.83984	14.8574
	-11.84061	14.85751
	-11.84183	14.85807
	-11.84261	14.85818
	-11.84372	14.85685
	-11.84516	14.85552
	-11.84593	14.85519
	-11.84727	14.85541
	-11.84982	14.85519
	-11.8507	14.85474
	-11.85159	14.8533
	-11.85248	14.85308
	-11.85381	14.85352
	-11.85414	14.8553
	-11.85459	14.85607
	-11.85547	14.85596
	-11.85592	14.85541
	-11.85558	14.85463
	-11.85558	14.85374
	-11.85813	14.85197
	-11.86013	14.85097
	-11.86024	14.85197
	-11.86046	14.85319
	-11.86124	14.85352
	-11.86246	14.85352
	-11.86324	14.85219
	-11.86346	14.85119
	-11.8639	14.85064
	-11.86501	14.85053
	-11.86612	14.85097
	-11.86778	14.85042
	-11.86856	14.84864
	-11.86834	14.84698
	-11.86834	14.84642
	-11.86933	14.84654
	-11.87022	14.84698
	-11.87155	14.84709
	-11.87266	14.84654
	-11.87233	14.84532
	-11.87144	14.84443
	-11.87144	14.84398
	-11.87344	14.84387
	-11.8751	14.84387
	-11.8761	14.8431
	-11.87632	14.84177
	-11.87621	14.84032
	-11.87677	14.83988
	-11.87732	14.8401
	-11.87776	14.84066
	-11.87832	14.84066
	-11.87887	14.83944
	-11.87832	14.83822
	-11.87898	14.83711
	-11.87932	14.83667
	-11.88054	14.83622
	-11.88142	14.83434
	-11.88264	14.83334
	-11.88397	14.83256
	-11.88464	14.83112
	-11.88564	14.83012
	-11.88652	14.83023
	-11.8873	14.82946
	-11.88774	14.82868
	-11.88863	14.82924
	-11.88985	14.82901
	-11.88963	14.82768
	-11.8893	14.8268
	-11.89007	14.82624
	-11.89085	14.82668
	-11.8924	14.82768
	-11.89274	14.82657
	-11.89285	14.82535
	-11.8934	14.82447
	-11.8954	14.82535
	-11.89662	14.82524
	-11.89595	14.82436
	-11.89562	14.82347
	-11.89639	14.82325
	-11.89773	14.82347
	-11.89872	14.82447
	-11.89928	14.82535
	-11.89994	14.8258
	-11.90127	14.82569
	-11.90205	14.82491
	-11.90371	14.8248
	-11.90549	14.82635
	-11.90649	14.82646
	-11.9066	14.82535
	-11.90737	14.82458
	-11.90771	14.8238
	-11.90737	14.82302
	-11.90859	14.82269
	-11.9097	14.82358
	-11.9107	14.8258
	-11.91192	14.82546
	-11.91292	14.82513
	-11.91436	14.82546
	-11.91591	14.82613
	-11.91691	14.82624
	-11.91758	14.82558
	-11.91747	14.82458
	-11.91902	14.82402
	-11.92079	14.82358
	-11.92146	14.82291
	-11.92279	14.82325
	-11.92312	14.82413
	-11.92412	14.82402
	-11.92501	14.82247
	-11.92523	14.82003
	-11.92645	14.81948
	-11.927	14.81992
	-11.927	14.82081
	-11.92734	14.82136
	-11.92822	14.82047
	-11.93	14.8197
	-11.93111	14.81936
	-11.93177	14.81881
	-11.93044	14.8177
	-11.93	14.81692
	-11.93	14.81626
	-11.93089	14.81582
	-11.93166	14.81604
	-11.93244	14.81682
	-11.93299	14.81692
	-11.93344	14.81615
	-11.93332	14.81526
	-11.93366	14.81437
	-11.93488	14.81338
	-11.93543	14.8126
	-11.9351	14.81138
	-11.93388	14.81072
	-11.93355	14.81038
	-11.93399	14.80994
	-11.93499	14.80861
	-11.93499	14.80794
	-11.93554	14.80517
	-11.93599	14.80328
	-11.93599	14.80229
	-11.93532	14.80184
	-11.93443	14.80218
	-11.93355	14.80229
	-11.93344	14.80151
	-11.93454	14.80051
	-11.9351	14.79985
	-11.93399	14.79951
	-11.93277	14.79951
	-11.93222	14.79907
	-11.93255	14.79796
	-11.93332	14.79685
	-11.93366	14.79597
	-11.93366	14.79508
	-11.93244	14.79486
	-11.93111	14.79475
	-11.93033	14.79441
	-11.92978	14.79386
	-11.93	14.79297
	-11.93066	14.79275
	-11.93166	14.79353
	-11.93288	14.79397
	-11.93355	14.79375
	-11.93355	14.79275
	-11.9331	14.79186
	-11.93222	14.79131
	-11.93244	14.79053
	-11.93332	14.79075
	-11.93454	14.79131
	-11.93543	14.79131
	-11.93565	14.79031
	-11.93421	14.78931
	-11.9341	14.7882
	-11.93366	14.7872
	-11.9331	14.7872
	-11.93288	14.78665
	-11.93443	14.78554
	-11.93588	14.78487
	-11.93654	14.78421
	-11.93576	14.78321
	-11.93643	14.78177
	-11.93765	14.78044
	-11.94142	14.77833
	-11.94364	14.77733
	-11.94552	14.777
	-11.94708	14.77667
	-11.95051	14.77478
	-11.95273	14.77423
	-11.95362	14.77445
	-11.95451	14.77412
	-11.95661	14.77367
	-11.95695	14.77234
	-11.9585	14.77201
	-11.96016	14.77245
	-11.96105	14.77179
	-11.96149	14.77123
	-11.96183	14.77046
	-11.96094	14.76968
	-11.96072	14.76891
	-11.96027	14.76813
	-11.96072	14.76702
	-11.96172	14.76735
	-11.96271	14.76824
	-11.96216	14.76913
	-11.96271	14.77001
	-11.96416	14.7699
	-11.96482	14.76935
	-11.96493	14.76802
	-11.9656	14.76746
	-11.96626	14.76757
	-11.96626	14.76824
	-11.96693	14.76868
	-11.96804	14.76868
	-11.96903	14.76846
	-11.96903	14.76746
	-11.96881	14.76613
	-11.96881	14.76558
	-11.96959	14.76536
	-11.97037	14.76602
	-11.97125	14.76647
	-11.97203	14.76613
	-11.97303	14.76591
	-11.97369	14.76624
	-11.97447	14.76647
	-11.97513	14.76591
	-11.97425	14.76502
	-11.9738	14.76447
	-11.9748	14.76403
	-11.97591	14.76436
	-11.97656	14.76492
	-11.97713	14.76451
	-11.98153	14.7636
	-11.98414	14.7644
	-11.987	14.76426
	-11.99181	14.76273
	-11.99498	14.76376
	-11.99806	14.76639
	-12.00269	14.76776
	-12.00426	14.76715
	-12.00619	14.76524
	-12.00828	14.76305
	-12.01067	14.76241
	-12.01269	14.76288
	-12.01296	14.76433
	-12.01346	14.7654
	-12.01467	14.76517
	-12.01578	14.76349
	-12.01726	14.76396
	-12.02038	14.76428
	-12.02482	14.76329
	-12.03125	14.76657
	-12.03419	14.76651
	-12.03588	14.76701
	-12.03863	14.7688
	-12.04082	14.76882
	-12.04242	14.76827
	-12.04441	14.76645
	-12.04761	14.76296
	-12.04774	14.76252
	-12.04768	14.76205
	-12.04722	14.76167
	-12.0459	14.76096
	-12.04528	14.75978
	-12.04513	14.75895
	-12.04523	14.75745
	-12.04587	14.7555
	-12.04636	14.75217
	-12.04648	14.7486
	-12.04614	14.74783
	-12.04508	14.74737
	-12.0443	14.74671
	-12.04392	14.74611
	-12.04374	14.74561
	-12.04397	14.74378
	-12.04412	14.74195
	-12.04445	14.73999
	-12.04432	14.73811
	-12.04389	14.73686
	-12.04335	14.73497
	-12.04346	14.7343
	-12.04737	14.72979
	-12.04909	14.72727
	-12.05056	14.72641
	-12.05531	14.72066
	-12.07711	14.72825
	-12.08362	14.73317
	-12.08811	14.7366
	-12.09457	14.74046
	-12.09935	14.74129
	-12.10927	14.74818
	-12.11784	14.75405
	-12.11932	14.75756
	-12.12044	14.76325
	-12.12504	14.77213
	-12.12803	14.77492
	-12.13139	14.776
	-12.14322	14.77659
	-12.15098	14.77512
	-12.15506	14.77313
	-12.16177	14.76505
	-12.16805	14.76191
	-12.17775	14.7611
	-12.19005	14.76176
	-12.19981	14.76257
	-12.21637	14.76044
	-12.22471	14.76005
	-12.241	14.76508
	-12.24705	14.76713
	-12.25759	14.7693
	-12.27041	14.77128
	-12.28014	14.77473
	-12.29001	14.78344
	-12.29335	14.78833
	-12.31011	14.80853
	-12.31982	14.8199
	-12.32996	14.82725
	-12.33964	14.82901
	-12.34993	14.82638
	-12.36193	14.82632
	-12.3729	14.8298
	-12.38138	14.83896
	-12.38802	14.84163
	-12.3964	14.84413
	-12.40267	14.8482
	-12.41954	14.86181
	-12.43553	14.87924
	-12.4423	14.88511
	-12.44999	14.88973
	-12.4525	14.89187
	-12.45397	14.8937
	-12.45434	14.89495
	-12.45427	14.89638
	-12.45396	14.89789
	-12.45304	14.90024
	-12.45223	14.90419
	-12.45192	14.90811
	-12.45205	14.91189
	-12.45375	14.92147
	-12.45515	14.92982
	-12.45589	14.94297
	-12.45849	14.96011
	-12.46001	14.96929
	-12.46246	14.97946
	-12.4647	14.9843
	-12.47382	14.9965
	-12.49257	15.01442
	-12.49511	15.01569
	-12.49896	15.01654
	-12.5017	15.01648
	-12.50564	15.01683
	-12.51026	15.01815
	-12.51488	15.02061
	-12.52844	15.02459
	-12.54921	15.02973
	-12.55513	15.03293
	-12.5614	15.03852
	-12.57153	15.04763
	-12.5832	15.05476
	-12.59138	15.06346
	-12.60184	15.07771
	-12.60723	15.08211
	-12.63526	15.09419
	-12.64325	15.09748
	-12.65025	15.10051
	-12.65398	15.10274
	-12.65644	15.1045
	-12.66219	15.10758
	-12.66766	15.1088
	-12.67435	15.1083
	-12.67872	15.10591
	-12.68233	15.10349
	-12.68433	15.1017
	-12.68591	15.09826
	-12.68661	15.0947
	-12.68639	15.09063
	-12.68646	15.08781
	-12.6874	15.08538
	-12.68958	15.0836
	-12.69136	15.08354
	-12.69375	15.08434
	-12.69508	15.08559
	-12.69574	15.08721
	-12.69598	15.08955
	-12.69658	15.09184
	-12.69742	15.09371
	-12.69853	15.09487
	-12.7002	15.09629
	-12.70206	15.09749
	-12.70779	15.10001
	-12.71225	15.10145
	-12.71568	15.10234
	-12.71964	15.10384
	-12.72356	15.10621
	-12.72749	15.10923
	-12.73591	15.11715
	-12.74569	15.12891
	-12.75915	15.13746
	-12.78187	15.14496
	-12.78809	15.1483
	-12.79072	15.15185
	-12.79276	15.15515
	-12.79381	15.15897
	-12.7938	15.1629
	-12.79306	15.16922
	-12.78935	15.18303
	-12.78848	15.18727
	-12.78813	15.19155
	-12.78844	15.19506
	-12.78913	15.19768
	-12.79158	15.20396
	-12.79391	15.20705
	-12.79662	15.20967
	-12.80093	15.21263
	-12.80422	15.2141
	-12.80722	15.21483
	-12.81267	15.21484
	-12.81706	15.21424
	-12.82162	15.21322
	-12.82514	15.21145
	-12.8303	15.20739
	-12.83586	15.20197
	-12.83937	15.19909
	-12.84182	15.19814
	-12.84452	15.19783
	-12.84694	15.19831
	-12.84943	15.19923
	-12.85132	15.20041
	-12.85294	15.20186
	-12.85393	15.20345
	-12.85448	15.20558
	-12.85473	15.20779
	-12.85508	15.21055
	-12.85575	15.21315
	-12.85701	15.21564
	-12.85851	15.2183
	-12.86164	15.22189
	-12.86618	15.22702
	-12.87048	15.23058
	-12.87407	15.23277
	-12.87837	15.23518
	-12.88342	15.237
	-12.88703	15.23848
	-12.89026	15.2406
	-12.89331	15.24328
	-12.89594	15.24619
	-12.89796	15.2492
	-12.89871	15.25142
	-12.8992	15.25461
	-12.8994	15.25795
	-12.89927	15.26005
	-12.89854	15.26226
	-12.89689	15.26478
	-12.89503	15.26653
	-12.89278	15.26763
	-12.88815	15.2685
	-12.88394	15.26885
	-12.88032	15.26836
	-12.87742	15.26766
	-12.87446	15.26552
	-12.87199	15.26231
	-12.86788	15.25882
	-12.86486	15.25731
	-12.86156	15.25614
	-12.85764	15.25549
	-12.85412	15.25569
	-12.85059	15.25703
	-12.84707	15.25951
	-12.84294	15.26303
	-12.83999	15.26665
	-12.83754	15.27053
	-12.8354	15.27467
	-12.83431	15.27895
	-12.83421	15.28144
	-12.83482	15.28419
	-12.83842	15.29129
	-12.84083	15.29628
	-12.84412	15.30461
	-12.84626	15.30961
	-12.84837	15.31266
	-12.85199	15.31575
	-12.86462	15.32219
	-12.8792	15.33163
	-12.88606	15.33526
	-12.89168	15.33625
	-12.90232	15.33542
	-12.90957	15.33577
	-12.92382	15.33708
	-12.92707	15.33826
	-12.93019	15.3404
	-12.93293	15.3443
	-12.93506	15.34709
	-12.93759	15.34963
	-12.94078	15.35261
	-12.94442	15.35722
	-12.94675	15.36088
	-12.94815	15.36535
	-12.94829	15.36853
	-12.94801	15.37113
	-12.94745	15.3767
	-12.94712	15.38216
	-12.94692	15.39255
	-12.94738	15.40132
	-12.94829	15.4075
	-12.94857	15.4109
	-12.94794	15.41419
	-12.94647	15.41739
	-12.94509	15.42
	-12.94142	15.42405
	-12.93563	15.42829
	-12.93177	15.43099
	-12.92932	15.43327
	-12.92784	15.43503
	-12.9264	15.43783
	-12.92601	15.44042
	-12.92658	15.44236
	-12.92786	15.44391
	-12.92953	15.44495
	-12.93167	15.44523
	-12.93383	15.44501
	-12.9418	15.44297
	-12.94767	15.44132
	-12.95247	15.44083
	-12.95577	15.44145
	-12.95847	15.44284
	-12.96028	15.44432
	-12.96152	15.44691
	-12.96234	15.44966
	-12.96274	15.45189
	-12.96269	15.45438
	-12.96197	15.45747
	-12.96107	15.46005
	-12.96058	15.46268
	-12.96065	15.46568
	-12.96078	15.47007
	-12.96055	15.47406
	-12.96071	15.47713
	-12.96143	15.48002
	-12.96264	15.48277
	-12.96342	15.48472
	-12.96397	15.48729
	-12.9639	15.48933
	-12.96334	15.49264
	-12.96314	15.49557
	-12.96341	15.49769
	-12.96419	15.49915
	-12.9649	15.50013
	-12.96619	15.50102
	-12.96774	15.50102
	-12.9689	15.50066
	-12.97054	15.49945
	-12.97253	15.49818
	-12.97477	15.4972
	-12.97758	15.49618
	-12.9809	15.49565
	-12.98929	15.49559
	-12.99557	15.49527
	-12.99892	15.49462
	-13.00182	15.49347
	-13.00479	15.49233
	-13.00723	15.49024
	-13.0114	15.48603
	-13.01461	15.48347
	-13.01939	15.48168
	-13.02544	15.48001
	-13.03484	15.47837
	-13.04282	15.47714
	-13.04882	15.47679
	-13.05309	15.47706
	-13.05673	15.47776
	-13.06096	15.47907
	-13.06594	15.48136
	-13.07527	15.48744
	-13.07987	15.49024
	-13.08347	15.49194
	-13.0874	15.49294
	-13.09598	15.49445
	-13.09934	15.49563
	-13.10223	15.49725
	-13.10367	15.49899
	-13.10481	15.50157
	-13.10526	15.5043
	-13.10495	15.50634
	-13.10421	15.50804
	-13.10346	15.50987
	-13.10275	15.51272
	-13.10228	15.51646
	-13.09977	15.5267
	-13.0969	15.53288
	-13.08823	15.54752
	-13.08674	15.55127
	-13.08608	15.55527
	-13.08641	15.55919
	-13.08834	15.56429
	-13.09297	15.56935
	-13.09439	15.57151
	-13.09467	15.57287
	-13.09469	15.57377
	-13.09421	15.57455
	-13.09335	15.57522
	-13.09195	15.57569
	-13.09054	15.57597
	-13.08927	15.57643
	-13.08813	15.57732
	-13.08736	15.57835
	-13.08713	15.57938
	-13.08716	15.58052
	-13.08768	15.58166
	-13.08844	15.58236
	-13.08957	15.58275
	-13.0926	15.5832
	-13.09784	15.58476
	-13.10857	15.58866
	-13.12071	15.59353
	-13.12618	15.5963
	-13.13106	15.59901
	-13.13425	15.60048
	-13.14091	15.60265
	-13.1468	15.60518
	-13.15122	15.60676
	-13.15601	15.60919
	-13.16318	15.61346
	-13.17114	15.61977
	-13.18015	15.62437
	-13.18297	15.62546
	-13.18672	15.62637
	-13.19037	15.62639
	-13.19398	15.626
	-13.19757	15.62502
	-13.20097	15.62341
	-13.20419	15.62113
	-13.20562	15.61975
	-13.20731	15.61718
	-13.20913	15.61501
	-13.21349	15.61038
	-13.21517	15.6091
	-13.21687	15.60863
	-13.21857	15.60848
	-13.22075	15.60866
	-13.22259	15.60916
	-13.22459	15.60994
	-13.22681	15.61099
	-13.22825	15.61213
	-13.22933	15.61344
	-13.2305	15.61519
	-13.23171	15.61746
	-13.23511	15.62895
	-13.2372	15.63405
	-13.23836	15.63652
	-13.24057	15.63963
	-13.24346	15.64298
	-13.24686	15.64634
	-13.25014	15.65085
	-13.25154	15.65343
	-13.25234	15.65604
	-13.25317	15.66485
	-13.25324	15.66797
	-13.25252	15.67145
	-13.25133	15.67388
	-13.24935	15.67587
	-13.24626	15.67813
	-13.24326	15.67827
	-13.24141	15.67749
	-13.23818	15.67579
	-13.23384	15.67431
	-13.22965	15.67308
	-13.22734	15.67259
	-13.22429	15.67272
	-13.22141	15.67311
	-13.21948	15.674
	-13.21801	15.67517
	-13.21665	15.67654
	-13.21451	15.67927
	-13.20873	15.69002
	-13.208	15.69185
	-13.20764	15.69374
	-13.20772	15.69525
	-13.20825	15.69626
	-13.20976	15.69729
	-13.21495	15.70067
	-13.21962	15.7047
	-13.22406	15.70809
	-13.22618	15.71088
	-13.23522	15.71977
	-13.23938	15.72381
	-13.25108	15.73371
	-13.26879	15.74535
	-13.2768	15.75147
	-13.28989	15.76336
	-13.2922	15.76654
	-13.29298	15.76828
	-13.29334	15.76965
	-13.2932	15.77139
	-13.29255	15.77331
	-13.29217	15.77519
	-13.29197	15.77793
	-13.29168	15.78054
	-13.2909	15.78377
	-13.28937	15.78682
	-13.2878	15.78927
	-13.28668	15.79028
	-13.28508	15.79095
	-13.28285	15.79125
	-13.28114	15.79069
	-13.27973	15.78954
	-13.27859	15.78857
	-13.27703	15.78732
	-13.2759	15.78606
	-13.27452	15.78477
	-13.27284	15.78399
	-13.2706	15.78339
	-13.2691	15.78331
	-13.26766	15.78352
	-13.26668	15.78407
	-13.26582	15.78508
	-13.2653	15.78689
	-13.26525	15.78938
	-13.26552	15.79056
	-13.26584	15.79159
	-13.26675	15.79314
	-13.26798	15.79434
	-13.26982	15.79552
	-13.27254	15.79709
	-13.27528	15.79959
	-13.27866	15.80209
	-13.28633	15.80617
	-13.29238	15.8114
	-13.29569	15.81524
	-13.29843	15.81948
	-13.30076	15.82519
	-13.30212	15.83021
	-13.30279	15.83395
	-13.30288	15.8397
	-13.30055	15.85023
	-13.29815	15.85703
	-13.29767	15.86078
	-13.29833	15.86557
	-13.29942	15.86934
	-13.3008	15.872
	-13.30255	15.8737
	-13.30694	15.87702
	-13.31035	15.87873
	-13.31678	15.88139
	-13.31952	15.88196
	-13.32229	15.8829
	-13.32932	15.88654
	-13.33308	15.89018
	-13.33443	15.89294
	-13.33493	15.89427
	-13.33512	15.89543
	-13.33496	15.89651
	-13.33432	15.89744
	-13.33296	15.89828
	-13.33044	15.89941
	-13.32905	15.90049
	-13.32419	15.90584
	-13.31692	15.91304
	-13.31374	15.91634
	-13.3124	15.91835
	-13.3118	15.92015
	-13.31201	15.9224
	-13.31401	15.92627
	-13.3183	15.92806
	-13.32255	15.92773
	-13.32873	15.92902
	-13.3392	15.9348
	-13.34225	15.937
	-13.34725	15.94137
	-13.34869	15.94311
	-13.35127	15.94801
	-13.35727	15.957
	-13.3647	15.97186
	-13.36578	15.97434
	-13.36645	15.97872
	-13.36641	15.98082
	-13.36574	15.98358
	-13.36522	15.98758
	-13.36348	15.99565
	-13.36345	15.99716
	-13.36375	15.99888
	-13.36443	16.00023
	-13.36526	16.00103
	-13.36738	16.00242
	-13.369	16.00363
	-13.37049	16.00517
	-13.37296	16.00812
	-13.37442	16.00966
	-13.37558	16.01053
	-13.37686	16.0117
	-13.37813	16.01331
	-13.3787	16.01542
	-13.37868	16.0188
	-13.37507	16.04833
	-13.37502	16.05042
	-13.37546	16.05305
	-13.37677	16.05528
	-13.37895	16.05746
	-13.38224	16.05889
	-13.41018	16.06827
	-13.41913	16.07373
	-13.43875	16.0805
	-13.44099	16.08153
	-13.44373	16.0834
	-13.44686	16.08625
	-13.45075	16.09017
	-13.45324	16.09319
	-13.45422	16.09468
	-13.45507	16.09636
	-13.45589	16.09913
	-13.45722	16.10603
	-13.4579	16.10758
	-13.45922	16.10867
	-13.46044	16.10911
	-13.46158	16.1091
	-13.46337	16.10875
	-13.47022	16.10551
	-13.4728	16.10308
	-13.47526	16.10009
	-13.47687	16.0972
	-13.47804	16.09448
	-13.48037	16.08919
	-13.48198	16.08649
	-13.48328	16.08487
	-13.48602	16.08156
	-13.48894	16.07873
	-13.49113	16.07775
	-13.49316	16.07751
	-13.49565	16.07765
	-13.49728	16.07824
	-13.49908	16.07918
	-13.50029	16.08023
	-13.50167	16.0819
	-13.50289	16.08388
	-13.50579	16.08682
	-13.50928	16.09003
	-13.51083	16.09203
	-13.51315	16.09592
	-13.51452	16.09899
	-13.51501	16.103
	-13.5145	16.10665
	-13.51227	16.11144
	-13.51082	16.11372
	-13.50898	16.11593
	-13.50118	16.12225
	-13.49637	16.12514
	-13.49018	16.12683
	-13.48427	16.12762
	-13.48228	16.12814
	-13.48036	16.1289
	-13.47857	16.13011
	-13.47721	16.13146
	-13.47649	16.13304
	-13.47629	16.13466
	-13.47636	16.13671
	-13.47678	16.13878
	-13.47805	16.14148
	-13.47924	16.14334
	-13.4804	16.14484
	-13.48281	16.14642
	-13.48544	16.1478
	-13.48678	16.14827
	-13.48778	16.1483
	-13.48894	16.14812
	-13.48938	16.14793
	-13.48975	16.1476
	-13.49022	16.14699
	-13.49123	16.14426
	-13.49383	16.14158
	-13.49734	16.13953
	-13.50534	16.13335
	-13.51258	16.12767
	-13.51679	16.12594
	-13.52098	16.12486
	-13.52439	16.12472
	-13.52705	16.12501
	-13.53068	16.12611
	-13.53366	16.12695
	-13.53629	16.12821
	-13.53851	16.12962
	-13.5411	16.13085
	-13.54399	16.13191
	-13.54918	16.13367
	-13.55262	16.13456
	-13.55544	16.13513
	-13.55974	16.13555
	-13.56435	16.13536
	-13.57343	16.13389
	-13.58088	16.13177
	-13.58377	16.13007
	-13.58762	16.12775
	-13.60299	16.12055
	-13.60722	16.11922
	-13.61481	16.11581
	-13.61759	16.11406
	-13.62823	16.10837
	-13.6329	16.10634
	-13.63635	16.10573
	-13.64078	16.10581
	-13.64484	16.1063
	-13.64815	16.10687
	-13.65181	16.10805
	-13.65503	16.109
	-13.65796	16.10966
	-13.66053	16.10962
	-13.6623	16.10902
	-13.66392	16.10808
	-13.66553	16.10682
	-13.66722	16.10486
	-13.67089	16.10038
	-13.67429	16.09686
	-13.6756	16.09561
	-13.67695	16.09499
	-13.67864	16.09451
	-13.68059	16.09462
	-13.68254	16.09524
	-13.68452	16.0964
	-13.68629	16.09765
	-13.69277	16.10355
	-13.69535	16.10602
	-13.69702	16.10783
	-13.69913	16.10976
	-13.70337	16.11308
	-13.70671	16.11666
	-13.7112	16.12303
	-13.71614	16.13112
	-13.71781	16.13629
	-13.71863	16.13876
	-13.71931	16.14071
	-13.71968	16.14268
	-13.71982	16.14441
	-13.71952	16.14557
	-13.71899	16.14659
	-13.71762	16.1489
	-13.71454	16.15151
	-13.71031	16.15474
	-13.7077	16.15731
	-13.7062	16.15899
	-13.70509	16.16074
	-13.70402	16.16288
	-13.70288	16.16542
	-13.70235	16.1673
	-13.70213	16.16882
	-13.70196	16.17087
	-13.70208	16.17259
	-13.70244	16.17433
	-13.70318	16.17657
	-13.70371	16.17786
	-13.70472	16.17912
	-13.70674	16.18054
	-13.70929	16.18155
	-13.71208	16.18181
	-13.71554	16.18208
	-13.71799	16.18167
	-13.71959	16.18109
	-13.72235	16.17908
	-13.72706	16.17425
	-13.72932	16.17165
	-13.7319	16.16786
	-13.73416	16.16383
	-13.73651	16.16028
	-13.7396	16.1568
	-13.74431	16.15242
	-13.74974	16.14897
	-13.75468	16.14682
	-13.76049	16.14474
	-13.76486	16.14388
	-13.77158	16.14199
	-13.77417	16.14154
	-13.77686	16.14114
	-13.77991	16.14127
	-13.78305	16.14191
	-13.78798	16.14313
	-13.79259	16.1438
	-13.79511	16.14383
	-13.79667	16.14356
	-13.7982	16.14294
	-13.80022	16.14176
	-13.80193	16.14066
	-13.80913	16.13756
	-13.81337	16.13551
	-13.81956	16.13212
	-13.82524	16.1284
	-13.82834	16.12553
	-13.83103	16.12261
	-13.83677	16.11446
	-13.8402	16.11013
	-13.84341	16.10689
	-13.8449	16.10628
	-13.84628	16.10607
	-13.84749	16.10623
	-13.84783	16.10637
	-13.84861	16.10673
	-13.84985	16.10769
	-13.85068	16.10886
	-13.85161	16.11139
	-13.85232	16.1144
	-13.85299	16.11645
	-13.85373	16.11891
	-13.85426	16.12243
	-13.85469	16.12548
	-13.85518	16.12681
	-13.85686	16.1281
	-13.86049	16.12919
	-13.86369	16.12941
	-13.86502	16.12963
	-13.86632	16.13031
	-13.86703	16.13109
	-13.86737	16.13227
	-13.86736	16.13324
	-13.86719	16.13546
	-13.86724	16.13738
	-13.86757	16.13912
	-13.86798	16.14034
	-13.86962	16.14365
	-13.8708	16.14563
	-13.87223	16.14723
	-13.87354	16.14817
	-13.87515	16.14982
	-13.87636	16.15124
	-13.87719	16.15218
	-13.87796	16.15331
	-13.87853	16.15464
	-13.87884	16.15642
	-13.87883	16.16055
	-13.87847	16.16245
	-13.8778	16.16657
	-13.87709	16.1695
	-13.87614	16.17138
	-13.87395	16.17376
	-13.87192	16.17576
	-13.87	16.17758
	-13.86841	16.17976
	-13.86786	16.18115
	-13.86773	16.18186
	-13.8677	16.18249
	-13.86776	16.18419
	-13.86855	16.18736
	-13.86939	16.18889
	-13.87154	16.19131
	-13.87565	16.19504
	-13.87777	16.19686
	-13.87993	16.19824
	-13.88166	16.1988
	-13.88314	16.19906
	-13.88502	16.19879
	-13.88674	16.19806
	-13.88867	16.19689
	-13.89155	16.19458
	-13.89409	16.19278
	-13.89538	16.19212
	-13.8972	16.1915
	-13.90019	16.19078
	-13.90192	16.19074
	-13.90338	16.19112
	-13.90746	16.19307
	-13.90991	16.19437
	-13.91166	16.19554
	-13.91426	16.19779
	-13.91573	16.19956
	-13.91651	16.20084
	-13.91716	16.20235
	-13.91853	16.21004
	-13.91906	16.21418
	-13.919	16.21608
	-13.91922	16.21778
	-13.9196	16.221
	-13.91972	16.22267
	-13.9196	16.22456
	-13.91924	16.22699
	-13.91942	16.22824
	-13.91987	16.22936
	-13.92037	16.23009
	-13.92144	16.23042
	-13.92256	16.23014
	-13.92411	16.22953
	-13.9256	16.22853
	-13.92684	16.22781
	-13.92833	16.22735
	-13.93001	16.22717
	-13.93212	16.22756
	-13.93359	16.22829
	-13.93482	16.22915
	-13.93635	16.23044
	-13.93752	16.23174
	-13.93823	16.23276
	-13.93893	16.23398
	-13.93932	16.23446
	-13.93981	16.23481
	-13.94041	16.23513
	-13.94107	16.23525
	-13.94223	16.23504
	-13.94654	16.23333
	-13.94936	16.23233
	-13.95241	16.23134
	-13.95408	16.23051
	-13.95622	16.22889
	-13.95933	16.22696
	-13.96186	16.22549
	-13.96671	16.22321
	-13.96926	16.22239
	-13.97143	16.22222
	-13.97237	16.22241
	-13.97324	16.22268
	-13.97402	16.22316
	-13.97428	16.22387
	-13.9741	16.22464
	-13.97369	16.22525
	-13.97309	16.226
	-13.97283	16.22665
	-13.97242	16.22828
	-13.97177	16.23104
	-13.97111	16.23292
	-13.97086	16.23445
	-13.97074	16.23646
	-13.97053	16.24076
	-13.97071	16.24641
	-13.97061	16.24763
	-13.97008	16.24932
	-13.96914	16.25112
	-13.96659	16.25452
	-13.96337	16.25819
	-13.96023	16.26134
	-13.95444	16.26562
	-13.95331	16.26673
	-13.95256	16.26773
	-13.95192	16.26906
	-13.95178	16.26987
	-13.95195	16.27052
	-13.95234	16.27118
	-13.95331	16.27223
	-13.9549	16.27324
	-13.95763	16.2745
	-13.96312	16.27615
	-13.96704	16.27652
	-13.97377	16.27639
	-13.97815	16.27594
	-13.98026	16.27554
	-13.98329	16.27466
	-13.98502	16.27455
	-13.98593	16.27466
	-13.98679	16.2749
	-13.98791	16.27572
	-13.98865	16.27692
	-13.98888	16.27818
	-13.9889	16.27938
	-13.98867	16.28177
	-13.98888	16.28792
	-13.98897	16.29137
	-13.98915	16.29576
	-13.98944	16.29848
	-13.99031	16.30133
	-13.99071	16.30294
	-13.9907	16.3046
	-13.99022	16.30608
	-13.98922	16.30763
	-13.98776	16.30865
	-13.98178	16.31028
	-13.97889	16.31094
	-13.97619	16.31119
	-13.97349	16.31112
	-13.97163	16.31085
	-13.96917	16.30993
	-13.96553	16.3081
	-13.9625	16.30707
	-13.96121	16.30673
	-13.96059	16.30667
	-13.95994	16.30686
	-13.95874	16.30766
	-13.95808	16.30847
	-13.95733	16.30981
	-13.95693	16.31105
	-13.95689	16.31246
	-13.95714	16.31393
	-13.9574	16.31509
	-13.95799	16.31605
	-13.95869	16.31675
	-13.95934	16.31753
	-13.95999	16.31884
	-13.96103	16.32111
	-13.9622	16.32338
	-13.96378	16.32556
	-13.96539	16.32817
	-13.96708	16.33069
	-13.96825	16.3321
	-13.97034	16.33378
	-13.97155	16.33437
	-13.97253	16.33477
	-13.97349	16.33488
	-13.97523	16.33469
	-13.9764	16.33482
	-13.97812	16.33572
	-13.98018	16.33643
	-13.98449	16.33759
	-13.98722	16.33884
	-13.98925	16.34023
	-13.9902	16.34124
	-13.99269	16.34433
	-13.99378	16.34536
	-13.99492	16.34624
	-13.99592	16.34664
	-13.99682	16.3469
	-13.99871	16.34723
	-14.00175	16.34787
	-14.00605	16.34891
	-14.01061	16.34961
	-14.01214	16.34969
	-14.01356	16.34972
	-14.01689	16.34942
	-14.0204	16.34899
	-14.0221	16.34871
	-14.02592	16.34784
	-14.02708	16.34768
	-14.02808	16.34777
	-14.02906	16.34807
	-14.02988	16.34854
	-14.03055	16.34908
	-14.03115	16.34973
	-14.03163	16.35052
	-14.03235	16.3522
	-14.0331	16.35466
	-14.03333	16.35674
	-14.03452	16.36081
	-14.0355	16.36329
	-14.03747	16.36709
	-14.04044	16.37149
	-14.04252	16.37375
	-14.04792	16.37897
	-14.05055	16.38171
	-14.05681	16.38735
	-14.05773	16.38866
	-14.05902	16.39002
	-14.06014	16.39123
	-14.06224	16.39287
	-14.06339	16.39352
	-14.06487	16.39431
	-14.06605	16.39554
	-14.06691	16.39698
	-14.0678	16.39942
	-14.06865	16.40264
	-14.06937	16.40414
	-14.07106	16.40616
	-14.07552	16.40953
	-14.08214	16.41473
	-14.08549	16.41695
	-14.08967	16.4194
	-14.09268	16.4207
	-14.09684	16.42194
	-14.10023	16.42305
	-14.10245	16.42411
	-14.10418	16.42512
	-14.10546	16.42604
	-14.1069	16.42767
	-14.10816	16.42975
	-14.10852	16.4308
	-14.10865	16.43195
	-14.10863	16.43381
	-14.10854	16.43461
	-14.1087	16.43693
	-14.10931	16.43876
	-14.11004	16.44013
	-14.11077	16.44116
	-14.11394	16.44438
	-14.11796	16.44754
	-14.1202	16.4487
	-14.12579	16.45073
	-14.1292	16.45183
	-14.1318	16.45234
	-14.13366	16.4526
	-14.13551	16.45272
	-14.1371	16.45309
	-14.138	16.45357
	-14.13867	16.45406
	-14.13949	16.45507
	-14.14013	16.4566
	-14.14071	16.45852
	-14.14115	16.46041
	-14.14125	16.46164
	-14.14122	16.46248
	-14.1411	16.46337
	-14.14069	16.46483
	-14.13999	16.46637
	-14.1391	16.46811
	-14.13761	16.47011
	-14.13542	16.47244
	-14.13402	16.47384
	-14.13323	16.4746
	-14.13281	16.47521
	-14.13265	16.47591
	-14.13274	16.47663
	-14.13323	16.47747
	-14.1342	16.478
	-14.13485	16.47818
	-14.13556	16.47826
	-14.13672	16.47824
	-14.13772	16.47804
	-14.13828	16.47756
	-14.13957	16.47564
	-14.14072	16.47427
	-14.14265	16.47227
	-14.14401	16.47154
	-14.14541	16.47106
	-14.14661	16.47091
	-14.14777	16.47097
	-14.14911	16.47121
	-14.15079	16.47164
	-14.15189	16.47204
	-14.15268	16.47254
	-14.15353	16.47321
	-14.1556	16.4754
	-14.15806	16.47858
	-14.15948	16.4811
	-14.1622	16.48733
	-14.16379	16.48967
	-14.16521	16.49153
	-14.16723	16.49338
	-14.16959	16.49482
	-14.17126	16.49566
	-14.17295	16.49631
	-14.17566	16.49717
	-14.1787	16.49822
	-14.18106	16.49943
	-14.1836	16.50089
	-14.18747	16.50372
	-14.18933	16.50481
	-14.19249	16.50615
	-14.19579	16.50716
	-14.1976	16.50774
	-14.19916	16.50843
	-14.20037	16.50916
	-14.20137	16.51016
	-14.20246	16.51159
	-14.20352	16.51344
	-14.20399	16.51494
	-14.20433	16.5166
	-14.20454	16.51809
	-14.20453	16.51993
	-14.20417	16.52151
	-14.20309	16.52369
	-14.20185	16.52558
	-14.20024	16.52741
	-14.19943	16.52851
	-14.19913	16.52922
	-14.19916	16.53003
	-14.19941	16.53075
	-14.20021	16.53165
	-14.20088	16.53201
	-14.20167	16.5322
	-14.20268	16.53229
	-14.20348	16.53245
	-14.20409	16.53264
	-14.20665	16.53355
	-14.20862	16.53435
	-14.21005	16.53515
	-14.21179	16.53676
	-14.21368	16.53868
	-14.21701	16.54168
	-14.21855	16.54279
	-14.22103	16.54422
	-14.22206	16.54447
	-14.22384	16.54477
	-14.23549	16.54634
	-14.23852	16.54663
	-14.24166	16.54657
	-14.24512	16.54628
	-14.24775	16.54561
	-14.24896	16.5449
	-14.25139	16.54276
	-14.25318	16.54064
	-14.25475	16.5381
	-14.25561	16.5363
	-14.25652	16.53382
	-14.257	16.53174
	-14.25764	16.52807
	-14.25782	16.52565
	-14.25759	16.52432
	-14.25545	16.51964
	-14.25328	16.51657
	-14.25282	16.51551
	-14.2528	16.51482
	-14.25312	16.51406
	-14.25378	16.51346
	-14.25453	16.51324
	-14.25554	16.51328
	-14.25636	16.51359
	-14.25719	16.51434
	-14.25902	16.51715
	-14.26001	16.51924
	-14.2608	16.52105
	-14.26197	16.52465
	-14.26443	16.52955
	-14.26691	16.53389
	-14.26947	16.53789
	-14.27277	16.54248
	-14.27442	16.54591
	-14.27557	16.54951
	-14.2758	16.55072
	-14.27597	16.5525
	-14.27596	16.55472
	-14.27553	16.55713
	-14.27517	16.55836
	-14.27454	16.56014
	-14.27398	16.56223
	-14.27302	16.56494
	-14.27151	16.56734
	-14.26801	16.57108
	-14.26707	16.57232
	-14.26664	16.57352
	-14.26683	16.57486
	-14.2672	16.57564
	-14.268	16.57675
	-14.26821	16.57693
	-14.26855	16.57704
	-14.26943	16.57713
	-14.27053	16.57729
	-14.27111	16.57751
	-14.27156	16.57779
	-14.2725	16.57862
	-14.27528	16.58195
	-14.27688	16.58353
	-14.27838	16.58448
	-14.27967	16.58502
	-14.28208	16.58592
	-14.28345	16.58607
	-14.285	16.58571
	-14.28677	16.58506
	-14.28824	16.58429
	-14.28992	16.58278
	-14.29119	16.5813
	-14.29236	16.57932
	-14.29371	16.57683
	-14.2953	16.57329
	-14.29608	16.57217
	-14.29666	16.57156
	-14.29741	16.57102
	-14.29847	16.5705
	-14.29961	16.57021
	-14.30485	16.56992
	-14.30665	16.56988
	-14.31052	16.57026
	-14.31411	16.57016
	-14.31635	16.56981
	-14.31733	16.56949
	-14.31824	16.56886
	-14.31894	16.56794
	-14.31946	16.56696
	-14.32004	16.56628
	-14.32175	16.56536
	-14.3232	16.5648
	-14.32463	16.56449
	-14.32608	16.56442
	-14.32718	16.56453
	-14.32848	16.56488
	-14.32966	16.56551
	-14.33083	16.5664
	-14.33187	16.56751
	-14.33257	16.56849
	-14.33328	16.56962
	-14.33389	16.57117
	-14.33451	16.57405
	-14.33471	16.57638
	-14.33456	16.5788
	-14.33408	16.58103
	-14.33268	16.58526
	-14.3315	16.58851
	-14.33038	16.59341
	-14.32797	16.59978
	-14.32737	16.60256
	-14.32733	16.60547
	-14.32793	16.61588
	-14.32703	16.62532
	-14.32697	16.62866
	-14.32755	16.63274
	-14.32835	16.63529
	-14.32982	16.6381
	-14.33203	16.63997
	-14.33401	16.6411
	-14.33543	16.64165
	-14.33679	16.6419
	-14.33936	16.64192
	-14.34181	16.64164
	-14.34589	16.64046
	-14.35099	16.63956
	-14.35366	16.63873
	-14.35654	16.63774
	-14.35897	16.63661
	-14.36096	16.63533
	-14.36302	16.63434
	-14.36514	16.63351
	-14.36678	16.63304
	-14.36784	16.63287
	-14.36908	16.63294
	-14.37015	16.63311
	-14.37253	16.6338
	-14.37421	16.63441
	-14.37847	16.63638
	-14.38096	16.63712
	-14.38331	16.63735
	-14.38537	16.6373
	-14.38838	16.63694
	-14.3921	16.6359
	-14.39424	16.63488
	-14.39566	16.63387
	-14.39757	16.63285
	-14.39953	16.6322
	-14.40127	16.632
	-14.40466	16.63206
	-14.4062	16.63237
	-14.40725	16.63275
	-14.40954	16.63397
	-14.4104	16.63503
	-14.41166	16.63712
	-14.4135	16.64164
	-14.4141	16.64404
	-14.41418	16.64615
	-14.41399	16.64789
	-14.41414	16.64898
	-14.41465	16.65009
	-14.41594	16.65113
	-14.41842	16.65225
	-14.41932	16.6525
	-14.42003	16.65253
	-14.42123	16.65235
	-14.42233	16.65166
	-14.42465	16.64886
	-14.42572	16.64796
	-14.42934	16.64604
	-14.43195	16.64443
	-14.43427	16.64283
	-14.43604	16.64123
	-14.43777	16.63926
	-14.43874	16.63767
	-14.43951	16.63594
	-14.44107	16.63198
	-14.44192	16.62961
	-14.44264	16.62816
	-14.44408	16.626
	-14.44537	16.62466
	-14.44655	16.62379
	-14.44804	16.62302
	-14.4496	16.62273
	-14.45213	16.62281
	-14.45501	16.62314
	-14.45874	16.62369
	-14.46158	16.62421
	-14.47026	16.62595
	-14.4726	16.62623
	-14.47439	16.62635
	-14.47574	16.62627
	-14.47695	16.62599
	-14.47833	16.62551
	-14.47925	16.62496
	-14.47994	16.62437
	-14.48193	16.62248
	-14.48252	16.62179
	-14.48347	16.62063
	-14.48413	16.61974
	-14.48523	16.61846
	-14.48609	16.61759
	-14.48724	16.61661
	-14.4884	16.61583
	-14.4896	16.61522
	-14.49076	16.61479
	-14.4929	16.61433
	-14.49589	16.61383
	-14.49734	16.6137
	-14.49874	16.61374
	-14.50013	16.6139
	-14.50155	16.61423
	-14.50306	16.6149
	-14.50454	16.61585
	-14.50527	16.61643
	-14.50586	16.61696
	-14.5073	16.61856
	-14.50843	16.61997
	-14.50959	16.62115
	-14.51118	16.62238
	-14.51332	16.62359
	-14.5152	16.62436
	-14.51929	16.62561
	-14.52448	16.62684
	-14.52651	16.62752
	-14.52777	16.62808
	-14.52927	16.629
	-14.53097	16.6303
	-14.53195	16.63117
	-14.53258	16.63187
	-14.53314	16.63264
	-14.53371	16.63368
	-14.53421	16.63433
	-14.54086	16.64146
	-14.54175	16.64221
	-14.54308	16.64309
	-14.54398	16.64353
	-14.5446	16.64366
	-14.54526	16.64374
	-14.54588	16.6437
	-14.54645	16.64355
	-14.54712	16.64324
	-14.54763	16.6428
	-14.54818	16.64218
	-14.54888	16.64068
	-14.54943	16.639
	-14.54973	16.63765
	-14.54985	16.63646
	-14.54987	16.63263
	-14.55	16.6316
	-14.55028	16.63033
	-14.55133	16.62644
	-14.55218	16.62341
	-14.55264	16.6221
	-14.55351	16.62022
	-14.55413	16.61918
	-14.55473	16.61835
	-14.55561	16.61749
	-14.55635	16.61701
	-14.55714	16.61674
	-14.55792	16.61661
	-14.55865	16.61658
	-14.55939	16.61666
	-14.56006	16.61686
	-14.56091	16.61728
	-14.56179	16.61785
	-14.56242	16.61843
	-14.56416	16.62037
	-14.56491	16.62116
	-14.56572	16.62188
	-14.56717	16.62283
	-14.56803	16.62327
	-14.56905	16.62366
	-14.57069	16.62405
	-14.57218	16.62414
	-14.57348	16.62396
	-14.57513	16.6235
	-14.57679	16.62287
	-14.57837	16.62205
	-14.5797	16.62149
	-14.58282	16.62035
	-14.58412	16.61999
	-14.58535	16.61984
	-14.5872	16.61998
	-14.58845	16.62034
	-14.58927	16.6207
	-14.58992	16.62107
	-14.5919	16.62261
	-14.59244	16.62295
	-14.59371	16.62349
	-14.59443	16.62363
	-14.59507	16.62357
	-14.59573	16.62329
	-14.5965	16.6228
	-14.59723	16.62221
	-14.59792	16.62151
	-14.59842	16.62095
	-14.5996	16.61932
	-14.60035	16.61853
	-14.60101	16.61805
	-14.60181	16.61767
	-14.60275	16.61738
	-14.60359	16.61728
	-14.60417	16.61738
	-14.6049	16.61772
	-14.60543	16.61808
	-14.60589	16.61853
	-14.60628	16.61906
	-14.60656	16.61962
	-14.607	16.62178
	-14.60729	16.62264
	-14.60811	16.6242
	-14.60942	16.62587
	-14.6106	16.62695
	-14.6117	16.62778
	-14.6131	16.62842
	-14.61432	16.62873
	-14.61558	16.62882
	-14.61736	16.62879
	-14.62338	16.62897
	-14.6261	16.62867
	-14.62778	16.62837
	-14.62874	16.62796
	-14.62952	16.62749
	-14.63044	16.62669
	-14.63132	16.62526
	-14.63214	16.62326
	-14.63302	16.62151
	-14.63393	16.62001
	-14.63496	16.61871
	-14.63611	16.61773
	-14.63711	16.61725
	-14.63828	16.61704
	-14.63932	16.61706
	-14.64016	16.61723
	-14.64103	16.61763
	-14.64945	16.62535
	-14.65098	16.62722
	-14.65167	16.62845
	-14.65215	16.62985
	-14.65215	16.63111
	-14.65179	16.632
	-14.65111	16.63288
	-14.65016	16.6335
	-14.64892	16.63379
	-14.64496	16.63396
	-14.64305	16.63423
	-14.64213	16.63453
	-14.64157	16.63497
	-14.6409	16.6357
	-14.64033	16.6367
	-14.64007	16.6382
	-14.63983	16.64004
	-14.63976	16.64283
	-14.63983	16.64443
	-14.64028	16.64566
	-14.64135	16.64702
	-14.64291	16.64826
	-14.64468	16.64911
	-14.64649	16.64968
	-14.64843	16.6499
	-14.6501	16.64987
	-14.65145	16.64971
	-14.65278	16.64946
	-14.65632	16.64829
	-14.66067	16.64718
	-14.66377	16.6466
	-14.6666	16.64631
	-14.67018	16.64603
	-14.67375	16.64594
	-14.67766	16.64603
	-14.6814	16.64618
	-14.68372	16.6462
	-14.68614	16.64611
	-14.68821	16.64579
	-14.69039	16.64532
	-14.69353	16.64445
	-14.6977	16.64296
	-14.70494	16.63991
	-14.70876	16.63879
	-14.71104	16.63849
	-14.71319	16.63839
	-14.71533	16.63855
	-14.71747	16.63915
	-14.71873	16.63986
	-14.72033	16.64109
	-14.72245	16.64334
	-14.72387	16.64536
	-14.7245	16.64612
	-14.72498	16.64653
	-14.72534	16.64665
	-14.72586	16.64667
	-14.7266	16.64656
	-14.72721	16.64629
	-14.72771	16.64579
	-14.72791	16.64521
	-14.72801	16.64447
	-14.72781	16.64327
	-14.72744	16.63987
	-14.72701	16.63676
	-14.72691	16.63556
	-14.72689	16.63446
	-14.72693	16.6339
	-14.7271	16.63335
	-14.72732	16.63303
	-14.72787	16.63243
	-14.72848	16.63204
	-14.72911	16.63173
	-14.73005	16.63147
	-14.73106	16.6314
	-14.73233	16.63152
	-14.73431	16.63216
	-14.73561	16.63242
	-14.73613	16.6324
	-14.73676	16.63213
	-14.73748	16.63157
	-14.73795	16.6309
	-14.73817	16.63007
	-14.7382	16.62929
	-14.73811	16.62846
	-14.73789	16.62767
	-14.73751	16.62705
	-14.73472	16.62443
	-14.73394	16.62343
	-14.73362	16.62289
	-14.73342	16.62195
	-14.73332	16.62119
	-14.73339	16.6205
	-14.73373	16.61984
	-14.7342	16.61931
	-14.73483	16.61886
	-14.73552	16.61856
	-14.7361	16.61839
	-14.73721	16.61828
	-14.73856	16.61855
	-14.73949	16.61899
	-14.74112	16.61984
	-14.74221	16.6205
	-14.74366	16.62144
	-14.74505	16.62214
	-14.74686	16.62296
	-14.74795	16.62353
	-14.74906	16.62419
	-14.75133	16.62582
	-14.75241	16.62693
	-14.75341	16.62858
	-14.7537	16.62959
	-14.75396	16.63083
	-14.75398	16.63155
	-14.75387	16.63234
	-14.75362	16.6331
	-14.753	16.6346
	-14.75261	16.63546
	-14.75223	16.63673
	-14.752	16.63873
	-14.75197	16.64055
	-14.75211	16.64244
	-14.75235	16.64364
	-14.75268	16.64491
	-14.75338	16.64636
	-14.75474	16.64836
	-14.75647	16.64991
	-14.7591	16.65186
	-14.763	16.65454
	-14.76462	16.65524
	-14.76638	16.6557
	-14.76722	16.65567
	-14.76804	16.65552
	-14.76894	16.65515
	-14.77034	16.6542
	-14.7714	16.65344
	-14.7721	16.65273
	-14.77369	16.65106
	-14.77527	16.64943
	-14.7761	16.6483
	-14.7773	16.6466
	-14.77822	16.64507
	-14.77924	16.64316
	-14.78213	16.63686
	-14.784	16.63313
	-14.78486	16.63154
	-14.7855	16.63065
	-14.78608	16.62995
	-14.78676	16.6294
	-14.78731	16.62909
	-14.78801	16.62886
	-14.78899	16.62882
	-14.78986	16.62896
	-14.791	16.62942
	-14.79177	16.62985
	-14.7935	16.63118
	-14.79519	16.63307
	-14.80149	16.64086
	-14.80541	16.64585
	-14.80883	16.65057
	-14.81027	16.65216
	-14.81106	16.65278
	-14.81195	16.65322
	-14.81252	16.65352
	-14.81323	16.6537
	-14.81401	16.65377
	-14.81486	16.65375
	-14.81645	16.65345
	-14.81792	16.65279
	-14.81948	16.65173
	-14.82053	16.65059
	-14.82131	16.64947
	-14.82201	16.64789
	-14.82235	16.64708
	-14.82254	16.64641
	-14.82269	16.64567
	-14.82271	16.645
	-14.8224	16.64379
	-14.82226	16.6429
	-14.82214	16.64171
	-14.82217	16.64047
	-14.82254	16.63918
	-14.82308	16.638
	-14.82419	16.63632
	-14.82534	16.63512
	-14.82635	16.63461
	-14.82727	16.63432
	-14.82849	16.63423
	-14.82956	16.63426
	-14.83036	16.63444
	-14.83116	16.63478
	-14.83395	16.63685
	-14.83621	16.63881
	-14.83716	16.63933
	-14.83816	16.63963
	-14.83918	16.63984
	-14.84015	16.63989
	-14.84103	16.63981
	-14.84185	16.6397
	-14.84508	16.63906
	-14.8474	16.63864
	-14.85569	16.63593
	-14.85722	16.63575
	-14.85859	16.63574
	-14.86006	16.63588
	-14.86113	16.63607
	-14.86187	16.63638
	-14.86225	16.6367
	-14.86255	16.63724
	-14.86284	16.63842
	-14.86366	16.64067
	-14.86402	16.64205
	-14.86444	16.64352
	-14.86526	16.64528
	-14.87224	16.65594
	-14.87335	16.65726
	-14.87436	16.65831
	-14.87577	16.65936
	-14.87715	16.65994
	-14.87845	16.66017
	-14.87974	16.66017
	-14.88161	16.6598
	-14.8835	16.65894
	-14.88452	16.6583
	-14.88561	16.65722
	-14.8862	16.65591
	-14.8867	16.65434
	-14.88716	16.65254
	-14.88747	16.65107
	-14.88768	16.64965
	-14.8878	16.64824
	-14.88788	16.64705
	-14.88807	16.6459
	-14.88834	16.64479
	-14.89158	16.63609
	-14.89268	16.63399
	-14.89447	16.63187
	-14.89642	16.63052
	-14.89801	16.62986
	-14.89969	16.62965
	-14.90111	16.62981
	-14.90322	16.63048
	-14.90656	16.63201
	-14.90947	16.63417
	-14.91074	16.63583
	-14.91161	16.63768
	-14.91188	16.6392
	-14.91188	16.6413
	-14.91159	16.64318
	-14.91088	16.64601
	-14.91094	16.64705
	-14.91146	16.64782
	-14.91234	16.6483
	-14.9135	16.64847
	-14.91454	16.64823
	-14.91556	16.64774
	-14.91659	16.64685
	-14.91894	16.64346
	-14.92016	16.64214
	-14.92403	16.63837
	-14.92863	16.63429
	-14.93042	16.63268
	-14.93218	16.63162
	-14.93313	16.63124
	-14.93423	16.63091
	-14.93603	16.63065
	-14.93778	16.63065
	-14.93986	16.63108
	-14.94147	16.63163
	-14.94277	16.63232
	-14.94376	16.63305
	-14.94479	16.63396
	-14.9457	16.63508
	-14.95264	16.64549
	-14.95424	16.64896
	-14.95472	16.65133
	-14.95463	16.65392
	-14.95419	16.65636
	-14.953	16.66181
	-14.95155	16.66625
	-14.95097	16.66913
	-14.95096	16.67192
	-14.95141	16.67441
	-14.95218	16.67647
	-14.95338	16.67811
	-14.95445	16.67882
	-14.95618	16.67963
	-14.96184	16.68163
	-14.965	16.68289
	-14.97622	16.68935
	-14.97807	16.69025
	-14.98017	16.69108
	-14.98223	16.69167
	-14.98424	16.692
	-14.98542	16.69199
	-14.98712	16.6917
	-14.98861	16.69122
	-14.99002	16.69042
	-14.99118	16.6893
	-14.99434	16.68562
	-14.99536	16.68412
	-14.996	16.68301
	-14.9966	16.68166
	-14.99706	16.6802
	-14.99734	16.6789
	-14.99746	16.67742
	-14.99738	16.67604
	-14.99637	16.66477
	-14.99677	16.65807
	-14.9981	16.65074
	-14.99919	16.64776
	-15.00084	16.64523
	-15.00291	16.64282
	-15.00578	16.64029
	-15.00819	16.63914
	-15.01123	16.63828
	-15.0185	16.63656
	-15.02064	16.63571
	-15.02338	16.63428
	-15.02597	16.63289
	-15.02812	16.63204
	-15.03227	16.63081
	-15.03497	16.6303
	-15.03673	16.63009
	-15.03863	16.63015
	-15.04054	16.63046
	-15.04224	16.63113
	-15.04398	16.63226
	-15.04571	16.63294
	-15.04669	16.63287
	-15.04756	16.63255
	-15.04847	16.6319
	-15.04932	16.63067
	-15.05045	16.62845
	-15.05122	16.62771
	-15.05218	16.62746
	-15.05312	16.62763
	-15.05378	16.62795
	-15.05456	16.62873
	-15.0569	16.63451
	-15.05804	16.63631
	-15.06109	16.63918
	-15.06395	16.64262
	-15.06526	16.64454
	-15.06662	16.64764
	-15.06746	16.65255
	-15.06802	16.6552
	-15.07023	16.66088
	-15.07238	16.66524
	-15.07612	16.67067
	-15.07829	16.6728
	-15.0804	16.67438
	-15.08243	16.6754
	-15.08466	16.67611
	-15.08645	16.67653
	-15.08821	16.67674
	-15.09246	16.67769
	-15.09408	16.67777
	-15.09565	16.67762
	-15.09699	16.67736
	-15.09803	16.67688
	-15.09876	16.67643
	-15.09949	16.67584
	-15.10039	16.67482
	-15.11377	16.65894
	-15.11576	16.65624
	-15.11717	16.65409
	-15.11828	16.65198
	-15.11908	16.65023
	-15.11976	16.64821
	-15.12026	16.64553
	-15.1203	16.64366
	-15.12013	16.64147
	-15.11973	16.63975
	-15.11909	16.63814
	-15.11807	16.63622
	-15.11699	16.63499
	-15.11557	16.63412
	-15.11395	16.63364
	-15.11001	16.63284
	-15.1068	16.63247
	-15.10371	16.63238
	-15.09975	16.63235
	-15.09691	16.6321
	-15.09274	16.63132
	-15.0884	16.63031
	-15.08496	16.62919
	-15.08291	16.62813
	-15.08071	16.62656
	-15.07953	16.62531
	-15.07849	16.62394
	-15.07787	16.6224
	-15.07773	16.62094
	-15.07796	16.61941
	-15.07835	16.61807
	-15.08021	16.61385
	-15.08234	16.6105
	-15.08343	16.60841
	-15.08405	16.60673
	-15.08521	16.60432
	-15.08672	16.60213
	-15.08808	16.60066
	-15.09017	16.59866
	-15.09479	16.59574
	-15.09872	16.59337
	-15.1009	16.59148
	-15.10841	16.58362
	-15.11059	16.58188
	-15.11323	16.58015
	-15.11618	16.57883
	-15.11986	16.57793
	-15.12322	16.57757
	-15.12679	16.57748
	-15.12975	16.57776
	-15.13268	16.57825
	-15.13682	16.57911
	-15.13961	16.57988
	-15.14495	16.58184
	-15.15172	16.58464
	-15.15934	16.58764
	-15.16428	16.58922
	-15.16744	16.58942
	-15.17057	16.58879
	-15.17287	16.58758
	-15.17462	16.58596
	-15.17541	16.58486
	-15.17576	16.58395
	-15.1761	16.58199
	-15.17637	16.58084
	-15.17676	16.57991
	-15.17723	16.57916
	-15.17791	16.57848
	-15.17916	16.57746
	-15.1809	16.57659
	-15.18326	16.57577
	-15.18812	16.5745
	-15.19735	16.57114
	-15.20239	16.56849
	-15.20851	16.5644
	-15.21795	16.55727
	-15.22002	16.55587
	-15.22285	16.55436
	-15.22641	16.55296
	-15.22891	16.55242
	-15.23121	16.5522
	-15.23379	16.55234
	-15.23669	16.55287
	-15.24017	16.55384
	-15.24234	16.55492
	-15.24434	16.55642
	-15.25366	16.56623
	-15.25504	16.56713
	-15.2568	16.56785
	-15.259	16.56851
	-15.26058	16.56875
	-15.26202	16.56889
	-15.26454	16.5687
	-15.26716	16.56784
	-15.26883	16.56744
	-15.27052	16.56731
	-15.27227	16.56743
	-15.27523	16.56785
	-15.28518	16.57048
	-15.29379	16.57288
	-15.29742	16.57374
	-15.30102	16.57428
	-15.30512	16.57438
	-15.30905	16.57398
	-15.31273	16.57331
	-15.3162	16.57226
	-15.31874	16.57113
	-15.32094	16.56991
	-15.32723	16.56533
	-15.33301	16.56075
	-15.33659	16.55894
	-15.33931	16.55812
	-15.34167	16.55777
	-15.34468	16.55768
	-15.34703	16.55785
	-15.35152	16.55851
	-15.35449	16.55905
	-15.35651	16.55935
	-15.35831	16.55928
	-15.36005	16.55877
	-15.36171	16.55817
	-15.36466	16.55592
	-15.37001	16.54986
	-15.3748	16.54625
	-15.38163	16.54206
	-15.38972	16.53734
	-15.39635	16.53542
	-15.40154	16.53441
	-15.4065	16.53468
	-15.41107	16.5357
	-15.41894	16.53816
	-15.42378	16.54083
	-15.42827	16.54396
	-15.4296	16.54567
	-15.43052	16.54719
	-15.43158	16.55033
	-15.43285	16.5552
	-15.43332	16.55778
	-15.43357	16.56055
	-15.43386	16.56298
	-15.43515	16.5673
	-15.43688	16.57131
	-15.43866	16.57455
	-15.44284	16.58028
	-15.44579	16.58316
	-15.44775	16.5848
	-15.44994	16.58634
	-15.4536	16.58836
	-15.45583	16.58946
	-15.45832	16.59024
	-15.46065	16.59084
	-15.46414	16.59115
	-15.46726	16.59109
	-15.46983	16.59061
	-15.47277	16.58952
	-15.4742	16.58865
	-15.47577	16.58707
	-15.47674	16.58607
	-15.47707	16.58536
	-15.47732	16.58435
	-15.47957	16.58133
	-15.48064	16.58011
	-15.48206	16.57884
	-15.48395	16.57757
	-15.48819	16.57557
	-15.50025	16.57146
	-15.50375	16.56986
	-15.50666	16.56797
	-15.51015	16.56523
	-15.51325	16.56216
	-15.51583	16.55859
	-15.51716	16.55584
	-15.51812	16.5509
	-15.51798	16.54751
	-15.51632	16.54426
	-15.51459	16.54221
	-15.51198	16.54013
	-15.50917	16.53705
	-15.5072	16.53421
	-15.50628	16.53129
	-15.50631	16.52956
	-15.50707	16.52767
	-15.50897	16.52519
	-15.51292	16.52141
	-15.51927	16.51845
	-15.52579	16.51647
	-15.53111	16.51466
	-15.53541	16.51236
	-15.54176	16.51071
	-15.54862	16.50939
	-15.55652	16.50956
	-15.56373	16.51022
	-15.57025	16.51137
	-15.57356	16.51228
	-15.57639	16.51333
	-15.57864	16.51443
	-15.58105	16.51612
	-15.58492	16.51958
	-15.58933	16.52226
	-15.5921	16.52353
	-15.59578	16.52488
	-15.59858	16.52529
	-15.60164	16.52534
	-15.60476	16.52496
	-15.6061	16.52484
	-15.61088	16.52487
	-15.61744	16.52517
	-15.62199	16.52489
	-15.62508	16.52382
	-15.62652	16.52306
	-15.62783	16.522
	-15.62897	16.52081
	-15.6299	16.51883
	-15.63021	16.51548
	-15.62957	16.51183
	-15.62855	16.5094
	-15.62762	16.50779
	-15.6257	16.50409
	-15.62508	16.50199
	-15.62479	16.49986
	-15.62495	16.49687
	-15.62559	16.49496
	-15.62668	16.4932
	-15.62931	16.49108
	-15.63368	16.48854
	-15.64222	16.48488
	-15.6476	16.48302
	-15.65883	16.48043
	-15.66354	16.47975
	-15.66894	16.47891
	-15.67432	16.47825
	-15.683	16.4784
	-15.68746	16.47802
	-15.69059	16.47726
	-15.69273	16.47609
	-15.69382	16.47497
	-15.69473	16.47368
	-15.69606	16.47142
	-15.69808	16.47052
	-15.69991	16.47004
	-15.70189	16.47012
	-15.70318	16.47027
	-15.70446	16.47056
	-15.70659	16.47137
	-15.70847	16.47224
	-15.71208	16.47477
	-15.71579	16.47683
	-15.72409	16.4827
	-15.72976	16.48564
	-15.73306	16.48729
	-15.736	16.48815
	-15.73859	16.48866
	-15.75342	16.49072
	-15.75848	16.4911
	-15.76738	16.49165
	-15.77306	16.49222
	-15.77805	16.49292
	-15.78444	16.49444
	-15.78901	16.49588
	-15.79296	16.49776
	-15.79842	16.50047
	-15.80312	16.50285
	-15.8055	16.50419
	-15.8082	16.5056
	-15.81117	16.50649
	-15.81426	16.50712
	-15.81752	16.50734
	-15.82125	16.50698
	-15.82462	16.5062
	-15.83194	16.50402
	-15.83881	16.5004
	-15.84396	16.49695
	-15.85031	16.49283
	-15.8545	16.49105
	-15.85655	16.49043
	-15.8584	16.49044
	-15.85985	16.49063
	-15.86087	16.49126
	-15.86217	16.49283
	-15.86285	16.49439
	-15.86291	16.49592
	-15.86273	16.4976
	-15.86183	16.50392
	-15.86237	16.50658
	-15.86359	16.50901
	-15.86561	16.51136
	-15.86768	16.51279
	-15.86928	16.51338
	-15.87775	16.51447
	-15.88385	16.51518
	-15.88844	16.51557
	-15.89246	16.51552
	-15.89598	16.51512
	-15.90098	16.51411
	-15.90806	16.51241
	-15.91214	16.51203
	-15.9156	16.51106
	-15.91821	16.5098
	-15.92111	16.508
	-15.92432	16.50673
	-15.92861	16.50472
	-15.93361	16.5025
	-15.93765	16.49933
	-15.94243	16.4942
	-15.94722	16.49028
	-15.95114	16.48732
	-15.9567	16.48513
	-15.96121	16.48356
	-15.96669	16.48276
	-15.97005	16.48313
	-15.97297	16.48443
	-15.97448	16.48592
	-15.97513	16.48858
	-15.97657	16.49061
	-15.97901	16.49279
	-15.98963	16.49756
	-15.99726	16.50013
	-16.00248	16.50044
	-16.00682	16.49982
	-16.011	16.49796
	-16.0142	16.49587
	-16.01658	16.49405
	-16.02498	16.48688
	-16.02666	16.48466
	-16.03196	16.48097
	-16.03864	16.47803
	-16.04486	16.47642
	-16.05239	16.47667
	-16.05696	16.47838
	-16.05998	16.48062
	-16.06123	16.48395
	-16.06226	16.48748
	-16.06367	16.48951
	-16.06669	16.49275
	-16.06972	16.49583
	-16.07306	16.49942
	-16.07881	16.50669
	-16.0832	16.51025
	-16.08647	16.51247
	-16.09133	16.51512
	-16.09385	16.51654
	-16.09938	16.52009
	-16.1024	16.52311
	-16.10351	16.52619
	-16.10354	16.53034
	-16.10189	16.5373
	-16.10191	16.5408
	-16.1033	16.54482
	-16.10482	16.54776
	-16.10687	16.55014
	-16.11079	16.55301
	-16.11368	16.55474
	-16.11628	16.55514
	-16.12016	16.55511
	-16.12977	16.55226
	-16.13765	16.55117
	-16.14307	16.55008
	-16.14977	16.54842
	-16.15438	16.54586
	-16.15906	16.54278
	-16.16197	16.53984
	-16.16543	16.53598
	-16.16962	16.53103
	-16.17404	16.5263
	-16.1775	16.52219
	-16.18012	16.51905
	-16.18409	16.51555
	-16.18859	16.51373
	-16.19272	16.51372
	-16.19662	16.51461
	-16.20026	16.51576
	-16.20285	16.51577
	-16.21067	16.51427
	-16.21629	16.51391
	-16.22147	16.51488
	-16.2266	16.51689
	-16.23058	16.51949
	-16.23704	16.52332
	-16.24269	16.52508
	-16.24921	16.52573
	-16.25559	16.52557
	-16.26148	16.52436
	-16.26645	16.5221
	-16.27013	16.52049
	-16.2767	16.51566
	-16.28093	16.51229
	-16.2837	16.50765
	-16.28579	16.50245
	-16.28388	16.48189
	-16.2851	16.4758
	-16.28668	16.47296
	-16.28903	16.47199
	-16.29162	16.47177
	-16.29542	16.47175
	-16.29897	16.47008
	-16.30275	16.46583
	-16.30517	16.46012
	-16.30714	16.45321
	-16.30852	16.44519
	-16.30894	16.44041
	-16.3092	16.43483
	-16.30922	16.42642
	-16.30857	16.41783
	-16.30911	16.41245
	-16.3105	16.40874
	-16.31262	16.40604
	-16.31536	16.40463
	-16.31842	16.40416
	-16.32286	16.40477
	-16.32491	16.4048
	-16.32655	16.40421
	-16.32824	16.40327
	-16.3295	16.40184
	-16.33073	16.40025
	-16.33207	16.39766
	-16.33326	16.3933
	-16.33375	16.38796
	-16.33339	16.38029
	-16.3336	16.37424
	-16.33314	16.3698
	-16.33143	16.36378
	-16.33041	16.35836
	-16.33077	16.35327
	-16.33222	16.3483
	-16.33786	16.34095
	-16.34149	16.33676
	-16.34666	16.33362
	-16.35183	16.33312
	-16.35514	16.33215
	-16.35731	16.33032
	-16.36236	16.32358
	-16.36592	16.31617
	-16.36784	16.3085
	-16.36836	16.30185
	-16.36693	16.29667
	-16.36398	16.29239
	-16.35696	16.28522
	-16.3539	16.28069
	-16.3534	16.27395
	-16.35565	16.26789
	-16.35909	16.26469
	-16.3638	16.26041
	-16.3663	16.25721
	-16.36769	16.25153
	-16.36951	16.2415
	-16.37189	16.23355
	-16.37666	16.22865
	-16.38084	16.22467
	-16.38455	16.21957
	-16.39003	16.21549
	-16.39528	16.21361
	-16.40056	16.21279
	-16.40677	16.21336
	-16.40811	16.2142
	-16.40978	16.21517
	-16.41145	16.21559
	-16.41502	16.21581
	-16.42191	16.21628
	-16.42525	16.21573
	-16.43358	16.21281
	-16.43917	16.20731
	-16.44118	16.20526
	-16.44289	16.20281
	-16.44479	16.20015
	-16.44744	16.19542
	-16.44881	16.19323
	-16.45204	16.18752
	-16.45409	16.18326
	-16.4552	16.17952
	-16.45516	16.17341
	-16.45425	16.1675
	-16.45256	16.16155
	-16.45231	16.15832
	-16.45311	16.15077
	-16.45334	16.1452
	-16.45318	16.14052
	-16.45187	16.13502
	-16.4555	16.12597
	-16.45606	16.1211
	-16.45176	16.11607
	-16.44473	16.11048
	-16.44315	16.10632
	-16.44408	16.10159
	-16.44814	16.09697
	-16.45216	16.08609
	-16.45307	16.08494
	-16.45478	16.08367
	-16.45814	16.08214
	-16.46298	16.08114
	-16.46686	16.07938
	-16.47015	16.07569
	-16.47323	16.07108
	-16.4756	16.06828
	-16.47855	16.06483
	-16.48117	16.06163
	-16.48396	16.05841
	-16.48757	16.05493
	-16.49072	16.05113
	-16.49361	16.0575
	-16.49472	16.06361
	-16.49583	16.07
	-16.49641	16.07309
	-16.49694	16.07611
	-16.49778	16.08222
	-16.49944	16.0875
	-16.50194	16.09222
	-16.50694	16.09417
	-16.51194	16.09194
	-16.51472	16.0875
	-16.51667	16.08278
	-16.51833	16.07778
	-16.51889	16.07167
	-16.52	16.06611
	-16.52194	16.06111
	-16.52528	16.0575
	-16.53167	16.05778
	-16.5375	16.05889
	-16.54278	16.06083
	-16.7412	16.08069
	-16.72229	16.24127
	-16.72827	16.28999
	-16.66059	16.58302
	-16.65761	16.63929
	-16.66159	16.66313
	-16.36204	17.33976
	-16.25855	17.58563
	-16.23367	18.00634
	-16.26651	18.43172
	-16.372	18.81837
	-16.56008	19.07157
	-16.62875	19.12705
	-16.67254	19.17687
	-16.72429	19.3441
	-16.70637	19.47175
	-16.67552	19.73144
	-16.65562	19.90838
	-16.55809	20.0655
	-16.45061	20.15521
	-16.41081	20.19445
	-16.52227	20.39699
	-16.78698	20.57132
	-17.01505	20.61444
	-17.04666	20.7582
	-17.04974	20.77003
	-17.05099	20.77721
	-17.05944	20.80833
	-17.06028	20.81444
	-17.0675	20.85056
	-17.06816	20.86225
	-17.0685	20.88534
	-17.06833	20.91549
	-17.06444	20.93528
	-17.0625	20.94028
	-17.06056	20.945
	-17.05667	20.955
	-17.055	20.95972
	-17.05278	20.96472
	-17.05111	20.96944
	-17.04917	20.97444
	-17.04639	20.97861
	-17.04444	20.98361
	-17.0425	20.98833
	-17.04056	20.99333
	-17.03944	20.99889
	-17.03806	21.00417
	-17.0375	21.01056
	-17.03722	21.01667
	-17.0375	21.02333
	-17.03806	21.03028
	-17.03833	21.03722
	-17.03806	21.04333
	-17.03611	21.04806
	-17.035	21.05361
	-17.03306	21.05861
	-17.0275	21.06694
	-17.02389	21.07056
	-17.02111	21.07472
	-17.01861	21.07889
	-17.01583	21.08333
	-17.01306	21.0875
	-17.01056	21.09167
	-17.00917	21.09722
	-17.00722	21.10222
	-17.00528	21.10694
	-17.00278	21.11111
	-17.00083	21.11611
	-16.99806	21.12028
	-16.99653	21.12522
	-16.9956	21.12807
	-16.99194	21.14528
	-16.98861	21.1625
	-16.98139	21.19694
	-16.97472	21.23139
	-16.97083	21.24861
	-16.9675	21.26583
	-16.96417	21.28333
	-16.96056	21.30056
	-16.95778	21.31778
	-16.95444	21.335
	-16.95306	21.33833
	-16.93472	21.33861
	-16.91639	21.33861
	-16.89806	21.33889
	-16.87972	21.33889
	-16.86139	21.33917
	-16.84306	21.33917
	-16.82472	21.33861
	-16.80639	21.33889
	-16.78806	21.33889
	-16.76944	21.33917
	-16.75111	21.33917
	-16.73278	21.33944
	-16.71472	21.33889
	-16.69639	21.33889
	-16.67806	21.33917
	-16.65972	21.33917
	-16.64139	21.33944
	-16.62306	21.33944
	-16.60472	21.33972
	-16.58611	21.33917
	-16.56778	21.33917
	-16.54944	21.33944
	-16.53139	21.33944
	-16.51306	21.33972
	-16.49472	21.33972
	-16.47639	21.33917
	-16.45778	21.33917
	-16.43944	21.33944
	-16.42111	21.33944
	-16.40278	21.33972
	-16.38444	21.33972
	-16.36611	21.33917
	-16.34778	21.33917
	-16.32972	21.33944
	-16.29278	21.33944
	-16.27444	21.33972
	-16.25611	21.33972
	-16.23778	21.33917
	-16.21944	21.33917
	-16.20111	21.33944
	-16.18278	21.33944
	-16.16444	21.33972
	-16.14611	21.33972
	-16.12778	21.33917
	-16.09111	21.33917
	-16.07278	21.33944
	-16.03611	21.33944
	-16.01778	21.33889
	-15.98389	21.33889
	-15.96556	21.33917
	-15.92889	21.33917
	-15.91056	21.33944
	-15.89222	21.33861
	-15.87389	21.33889
	-15.81889	21.33889
	-15.80056	21.33833
	-15.78222	21.33833
	-15.76389	21.33861
	-15.75722	21.33806
	-15.73889	21.33833
	-15.66556	21.33833
	-15.64722	21.33861
	-15.62889	21.33861
	-15.61056	21.33806
	-15.53722	21.33806
	-15.51889	21.33833
	-15.50056	21.33833
	-15.48222	21.33778
	-15.37194	21.33778
	-15.35399	21.33744
	-15.33556	21.33722
	-15.31722	21.33722
	-15.29889	21.3375
	-15.24389	21.3375
	-15.17028	21.33694
	-15.09722	21.33694
	-14.88889	21.3375
	-14.85194	21.3375
	-14.83361	21.33806
	-14.77889	21.33806
	-14.76056	21.33861
	-14.68722	21.33861
	-14.66889	21.33944
	-14.61389	21.33944
	-14.59556	21.34
	-14.54056	21.34
	-14.52222	21.34056
	-14.46722	21.34056
	-14.44889	21.34139
	-14.43056	21.34139
	-14.41222	21.34111
	-14.37583	21.34111
	-14.3575	21.34167
	-14.30361	21.34167
	-14.28528	21.34222
	-14.19389	21.34222
	-14.17556	21.34194
	-14.12028	21.34194
	-14.10194	21.3425
	-14.02889	21.3425
	-14.01056	21.34222
	-14.00028	21.34194
	-13.98194	21.3425
	-13.90833	21.3425
	-13.89	21.34222
	-13.83528	21.34222
	-13.81694	21.34194
	-13.76194	21.34194
	-13.74361	21.34167
	-13.70667	21.34167
	-13.68861	21.34139
	-13.61528	21.34139
	-13.59694	21.34111
	-13.56	21.34111
	-13.54167	21.34083
	-13.505	21.34083
	-13.48694	21.34056
	-13.45028	21.34056
	-13.43194	21.34028
	-13.39528	21.34028
	-13.37694	21.34
	-13.35861	21.34056
	-13.32167	21.34056
	-13.30333	21.34028
	-13.28528	21.34028
	-13.26694	21.34
	-13.23028	21.34
	-13.21194	21.33972
	-13.19361	21.33972
	-13.175	21.33944
	-13.13833	21.33944
	-13.12	21.33917
	-13.10194	21.33917
	-13.08361	21.33889
	-13.06528	21.33889
	-13.04694	21.33861
	-13.01028	21.33861
	-12.99972	21.33806
	-13.00194	21.37222
	-13.00306	21.38917
	-13.00444	21.40639
	-13.005	21.42333
	-13.00639	21.44028
	-13.00778	21.4575
	-13.01056	21.49139
	-13.01111	21.50861
	-13.01222	21.52556
	-13.015	21.55944
	-13.01556	21.57667
	-13.01833	21.61056
	-13.01944	21.62778
	-13.02111	21.64472
	-13.02139	21.66167
	-13.02306	21.67889
	-13.02417	21.69583
	-13.02556	21.71278
	-13.02611	21.72972
	-13.02722	21.74694
	-13.02889	21.76389
	-13.03	21.78083
	-13.03139	21.79778
	-13.03222	21.815
	-13.03333	21.83194
	-13.03472	21.84889
	-13.03611	21.86611
	-13.03722	21.88306
	-13.03806	21.9
	-13.04083	21.93389
	-13.04194	21.95111
	-13.04278	21.96806
	-13.04389	21.985
	-13.04528	22.00194
	-13.04667	22.01917
	-13.04778	22.03472
	-13.04861	22.05167
	-13.04972	22.06861
	-13.05139	22.08583
	-13.05167	22.10278
	-13.05333	22.11972
	-13.05444	22.13667
	-13.05528	22.15389
	-13.05639	22.17083
	-13.05917	22.20472
	-13.05972	22.22167
	-13.06111	22.23861
	-13.0625	22.25583
	-13.06306	22.27278
	-13.06444	22.28972
	-13.06556	22.30667
	-13.06951	22.36716
	-13.07563	22.45731
	-13.08275	22.52375
	-13.08399	22.53667
	-13.09368	22.56855
	-13.14444	22.73944
	-13.14972	22.75639
	-13.15028	22.7575
	-13.12748	22.82631
	-13.12194	22.84361
	-13.11639	22.86056
	-13.11028	22.87778
	-13.10528	22.89306
	-13.09167	22.91028
	-13.0775	22.92778
	-13.06361	22.94528
	-13.04944	22.96278
	-13.03528	22.98
	-13.00694	23.015
	-12.99833	23.02472
	-12.98028	23.03556
	-12.96222	23.04694
	-12.89	23.0925
	-12.87194	23.10333
	-12.85389	23.11472
	-12.83556	23.12611
	-12.76333	23.17167
	-12.745	23.1825
	-12.63667	23.25083
	-12.61833	23.26139
	-12.60028	23.27278
	-12.59694	23.275
	-12.57139	23.29139
	-12.53361	23.29639
	-12.515	23.29889
	-12.47722	23.30389
	-12.45861	23.30639
	-12.43972	23.30861
	-12.42083	23.31111
	-12.40222	23.31361
	-12.38333	23.31611
	-12.36583	23.31861
	-12.34667	23.32722
	-12.3275	23.33639
	-12.30833	23.345
	-12.28917	23.35444
	-12.26972	23.36278
	-12.25056	23.37222
	-12.23139	23.38056
	-12.21222	23.39
	-12.19278	23.39917
	-12.17361	23.40778
	-12.15583	23.41639
	-12.11806	23.42528
	-12.09889	23.42972
	-12.07972	23.435
	-12.06111	23.43944
	-12.04194	23.44389
	-12.02306	23.44889
	-12.01333	23.45115
	-12.0048	23.45929
	-12.00028	23.46541
	-12.00028	23.63278
	-12.00056	23.66639
	-12.00056	23.76667
	-12.00083	23.79972
	-12.00083	23.83333
	-12.0	23.86611
	-12.0	23.93278
	-12.00028	23.96639
	-12.00028	24.09972
	-12.00056	24.13333
	-12.00056	24.23278
	-12.00083	24.26639
	-12.00083	24.33306
	-12.0	24.36611
	-12.0	24.39972
	-12.00028	24.43278
	-12.00028	24.56611
	-12.00056	24.59972
	-12.00056	24.66639
	-12.00083	24.69944
	-12.00083	24.76611
	-12.0	24.79972
	-12.0	24.86639
	-12.00028	24.89944
	-12.00028	24.99972
	-12.00056	25.03278
	-12.00056	25.13306
	-12.00083	25.16611
	-12.00083	25.2
	-12.0	25.23278
	-12.0	25.29972
	-12.00028	25.33333
	-12.00028	25.43306
	-12.00056	25.46611
	-12.00056	25.56639
	-12.00083	25.59944
	-12.00083	25.6325
	-12.0	25.66611
	-12.0	25.73306
	-12.00028	25.76611
	-12.00028	25.86667
	-12.00056	25.89972
	-12.00056	25.99633
END
END
