Mexico_East
1
	-96.24023	22.41103
	-92.7806	24.73481
	-85.87339	22.65068
	-87.06836	18.19627
	-87.62281	18.18443
	-87.74306	18.18519
	-87.8477	18.18656
	-87.84843	18.18594
	-87.84871	18.18572
	-87.84908	18.18538
	-87.84934	18.18495
	-87.84962	18.18472
	-87.84996	18.18456
	-87.85035	18.18442
	-87.85116	18.18435
	-87.85208	18.18436
	-87.85316	18.18442
	-87.85357	18.18468
	-87.85382	18.18424
	-87.85402	18.18378
	-87.85441	18.18351
	-87.85509	18.18338
	-87.85563	18.1831
	-87.85594	18.18275
	-87.8564	18.18256
	-87.85666	18.18264
	-87.85725	18.18321
	-87.85734	18.18334
	-87.85724	18.18354
	-87.85721	18.18375
	-87.85705	18.18385
	-87.85706	18.18406
	-87.85736	18.18419
	-87.85758	18.18443
	-87.85762	18.18452
	-87.85739	18.18472
	-87.85752	18.1852
	-87.85789	18.1853
	-87.85827	18.18566
	-87.85874	18.18594
	-87.85885	18.18607
	-87.85888	18.18622
	-87.85885	18.18635
	-87.85898	18.18675
	-87.85913	18.18698
	-87.85939	18.18716
	-87.8595	18.18732
	-87.85957	18.18762
	-87.8596	18.18804
	-87.8599	18.18824
	-87.85997	18.18849
	-87.85981	18.18872
	-87.85972	18.18919
	-87.85994	18.18946
	-87.86005	18.1898
	-87.86016	18.18992
	-87.86042	18.19012
	-87.86108	18.1903
	-87.86179	18.19081
	-87.86222	18.19217
	-87.86247	18.19416
	-87.86277	18.1959
	-87.86337	18.19744
	-87.86425	18.19814
	-87.8648	18.19866
	-87.86504	18.19866
	-87.86523	18.19848
	-87.86548	18.19836
	-87.8658	18.19811
	-87.86665	18.19802
	-87.86732	18.19811
	-87.86751	18.19823
	-87.86789	18.19813
	-87.86814	18.19813
	-87.86864	18.19774
	-87.86883	18.19768
	-87.86915	18.19734
	-87.86984	18.19631
	-87.87005	18.19477
	-87.8703	18.1941
	-87.87077	18.19356
	-87.87477	18.18607
	-87.8766	18.18295
	-87.87725	18.18235
	-87.8783	18.18086
	-87.88261	18.1751
	-87.88325	18.17442
	-87.88377	18.17357
	-87.88481	18.1722
	-87.88785	18.16892
	-87.8886	18.16836
	-87.90185	18.15595
	-87.90262	18.15535
	-87.90462	18.15358
	-87.90539	18.153
	-87.90614	18.15234
	-87.90684	18.15184
	-87.90751	18.15139
	-87.90822	18.15098
	-87.90909	18.15073
	-87.90996	18.15035
	-87.91074	18.15017
	-87.91161	18.15005
	-87.91353	18.14997
	-87.91537	18.15011
	-87.91707	18.15037
	-87.91881	18.15115
	-87.91943	18.15147
	-87.93253	18.17032
	-87.93254	18.16753
	-88.03117	18.16752
	-88.03266	18.41892
	-88.26552	18.41745
	-88.26593	18.47604
	-88.29925	18.47583
	-88.31983	18.48849
	-88.32407	18.48919
	-88.32682	18.49043
	-88.33315	18.48803
	-88.33963	18.48677
	-88.34639	18.48575
	-88.35173	18.48426
	-88.35377	18.48426
	-88.35894	18.48577
	-88.36134	18.48638
	-88.36611	18.48621
	-88.37053	18.48424
	-88.37218	18.48275
	-88.3734	18.48108
	-88.37529	18.47964
	-88.37728	18.47891
	-88.38027	18.4788
	-88.38258	18.47939
	-88.38713	18.48159
	-88.38814	18.48304
	-88.38902	18.48509
	-88.38971	18.48597
	-88.39239	18.48747
	-88.39396	18.48874
	-88.39606	18.49146
	-88.39771	18.49313
	-88.39964	18.49468
	-88.40199	18.496
	-88.40538	18.49554
	-88.40755	18.4947
	-88.41072	18.49297
	-88.41331	18.49222
	-88.41737	18.49222
	-88.42127	18.48955
	-88.42365	18.48707
	-88.42801	18.48534
	-88.43261	18.48458
	-88.43488	18.48261
	-88.43846	18.48169
	-88.44026	18.48135
	-88.44104	18.48145
	-88.44213	18.48125
	-88.4431	18.48045
	-88.4444	18.47805
	-88.44571	18.47614
	-88.44707	18.47553
	-88.44775	18.47547
	-88.4526	18.48112
	-88.4535	18.48277
	-88.45363	18.48554
	-88.45438	18.48731
	-88.45556	18.48835
	-88.45732	18.48896
	-88.4594	18.48928
	-88.46445	18.48686
	-88.46565	18.48666
	-88.46683	18.48764
	-88.46835	18.49002
	-88.47024	18.48985
	-88.47157	18.4892
	-88.47273	18.48931
	-88.47393	18.4916
	-88.47434	18.49366
	-88.47535	18.49425
	-88.47792	18.49372
	-88.48125	18.49134
	-88.48394	18.48833
	-88.4859	18.48617
	-88.48706	18.4844
	-88.48995	18.48474
	-88.49223	18.48322
	-88.49419	18.48041
	-88.49567	18.47775
	-88.5032	18.47278
	-88.50732	18.47046
	-88.51358	18.46509
	-88.51708	18.46376
	-88.51944	18.46112
	-88.52137	18.45731
	-88.52378	18.44514
	-88.52781	18.43514
	-88.52815	18.42843
	-88.52888	18.42279
	-88.52991	18.41672
	-88.5321	18.40762
	-88.53633	18.40043
	-88.53772	18.39913
	-88.53901	18.3972
	-88.54066	18.39553
	-88.54148	18.39378
	-88.54332	18.39282
	-88.54483	18.39158
	-88.54594	18.38913
	-88.54678	18.38435
	-88.54783	18.38178
	-88.54923	18.38023
	-88.5509	18.37775
	-88.55174	18.37482
	-88.55088	18.3729
	-88.54523	18.36793
	-88.54403	18.36099
	-88.54779	18.35488
	-88.55189	18.35136
	-88.55553	18.34584
	-88.56317	18.33533
	-88.56624	18.33295
	-88.56965	18.32987
	-88.57143	18.32763
	-88.57261	18.3237
	-88.57406	18.32235
	-88.57449	18.32113
	-88.575	18.31982
	-88.57603	18.31966
	-88.57706	18.32064
	-88.57851	18.32068
	-88.57914	18.31887
	-88.58053	18.31679
	-88.5853	18.31282
	-88.58633	18.31086
	-88.58805	18.30874
	-88.58994	18.30662
	-88.59166	18.30548
	-88.59286	18.30402
	-88.59406	18.30271
	-88.59457	18.3019
	-88.59509	18.30206
	-88.5956	18.3001
	-88.59681	18.2988
	-88.59784	18.29668
	-88.59955	18.29587
	-88.60178	18.29522
	-88.60402	18.29261
	-88.60522	18.29179
	-88.60522	18.2913
	-88.60487	18.29049
	-88.60419	18.29065
	-88.60402	18.2913
	-88.60281	18.29114
	-88.60264	18.29049
	-88.60041	18.28984
	-88.59938	18.29065
	-88.59801	18.29098
	-88.59698	18.28886
	-88.59732	18.28837
	-88.59835	18.28625
	-88.59887	18.28413
	-88.60041	18.28055
	-88.60093	18.27941
	-88.60007	18.27761
	-88.59938	18.27582
	-88.59955	18.27419
	-88.60024	18.27256
	-88.60127	18.27109
	-88.60196	18.27109
	-88.60247	18.26979
	-88.60196	18.268
	-88.6023	18.26685
	-88.60367	18.26555
	-88.60522	18.26506
	-88.60556	18.26457
	-88.6059	18.26359
	-88.60556	18.2605
	-88.60539	18.25919
	-88.60419	18.25805
	-88.60316	18.25756
	-88.60384	18.25658
	-88.6047	18.25593
	-88.60505	18.25414
	-88.6047	18.25267
	-88.60384	18.25169
	-88.60247	18.25072
	-88.60264	18.24925
	-88.60419	18.24941
	-88.60333	18.24778
	-88.60487	18.24648
	-88.60625	18.24566
	-88.60573	18.24468
	-88.60419	18.24517
	-88.60333	18.24501
	-88.60247	18.24338
	-88.60316	18.24159
	-88.60436	18.24028
	-88.60539	18.23849
	-88.60676	18.23784
	-88.60728	18.23669
	-88.60762	18.23506
	-88.60934	18.2336
	-88.61054	18.23311
	-88.61243	18.23197
	-88.61174	18.23131
	-88.61123	18.23066
	-88.61226	18.22968
	-88.61329	18.22887
	-88.61346	18.2274
	-88.61414	18.22593
	-88.615	18.22284
	-88.61637	18.22316
	-88.61775	18.22365
	-88.61895	18.22316
	-88.62067	18.22316
	-88.62187	18.22153
	-88.6229	18.22153
	-88.62376	18.22121
	-88.62461	18.21941
	-88.62496	18.21843
	-88.6265	18.2186
	-88.62822	18.21876
	-88.62942	18.21843
	-88.63011	18.21664
	-88.63114	18.21664
	-88.632	18.21501
	-88.63179	18.21368
	-88.63241	18.21304
	-88.63316	18.21111
	-88.6334	18.21002
	-88.63342	18.20927
	-88.6332	18.20783
	-88.63388	18.20751
	-88.63337	18.20571
	-88.63285	18.20522
	-88.63337	18.20376
	-88.63371	18.20294
	-88.63457	18.20262
	-88.63526	18.20213
	-88.63509	18.20131
	-88.6344	18.19919
	-88.63388	18.1987
	-88.63285	18.19854
	-88.632	18.19789
	-88.63285	18.19723
	-88.63594	18.19626
	-88.63835	18.19593
	-88.63869	18.19495
	-88.63955	18.19267
	-88.63886	18.19087
	-88.63972	18.19022
	-88.6423	18.18892
	-88.64264	18.18761
	-88.64693	18.185
	-88.65002	18.1819
	-88.65191	18.17897
	-88.65397	18.17587
	-88.6538	18.17245
	-88.655	18.16935
	-88.6574	18.1669
	-88.6574	18.16364
	-88.65637	18.16054
	-88.65723	18.15777
	-88.65998	18.15483
	-88.66238	18.15352
	-88.66427	18.15238
	-88.6653	18.15124
	-88.66478	18.14814
	-88.66496	18.14586
	-88.66684	18.14308
	-88.66341	18.13933
	-88.66341	18.13786
	-88.66461	18.13607
	-88.66581	18.13313
	-88.66753	18.13069
	-88.6689	18.13069
	-88.67079	18.13101
	-88.67302	18.12987
	-88.67474	18.12775
	-88.67783	18.124
	-88.6804	18.12188
	-88.68315	18.11812
	-88.68607	18.11307
	-88.68813	18.11062
	-88.68967	18.10801
	-88.69036	18.10621
	-88.69208	18.10491
	-88.69379	18.10246
	-88.69551	18.10034
	-88.69671	18.09463
	-88.6974	18.09055
	-88.69877	18.08745
	-88.69929	18.08614
	-88.69809	18.08517
	-88.69706	18.08353
	-88.69809	18.08158
	-88.69826	18.08011
	-88.6986	18.07815
	-88.69946	18.07521
	-88.70118	18.07342
	-88.70289	18.0726
	-88.70701	18.0708
	-88.71285	18.07097
	-88.71817	18.07178
	-88.71834	18.07064
	-88.71886	18.06819
	-88.71766	18.06428
	-88.7168	18.06248
	-88.71611	18.06134
	-88.71628	18.06052
	-88.71954	18.05922
	-88.72057	18.05905
	-88.72263	18.05563
	-88.72658	18.05253
	-88.73036	18.04959
	-88.73448	18.04828
	-88.73757	18.04747
	-88.73946	18.04796
	-88.74014	18.04616
	-88.7398	18.04388
	-88.74066	18.04339
	-88.74272	18.04339
	-88.74478	18.04241
	-88.74632	18.04094
	-88.74649	18.04028
	-88.74787	18.03996
	-88.74855	18.04061
	-88.74941	18.04012
	-88.7525	18.03898
	-88.75302	18.03767
	-88.75491	18.03784
	-88.75628	18.03751
	-88.75645	18.03539
	-88.75765	18.03506
	-88.75903	18.03555
	-88.76074	18.03376
	-88.76246	18.03457
	-88.76366	18.03392
	-88.76435	18.03441
	-88.76589	18.03392
	-88.76812	18.03147
	-88.77018	18.02902
	-88.77018	18.02772
	-88.7683	18.02592
	-88.76812	18.02527
	-88.76727	18.02429
	-88.76795	18.0238
	-88.76761	18.022
	-88.76692	18.01988
	-88.76709	18.0189
	-88.76812	18.01743
	-88.76795	18.01662
	-88.76606	18.01596
	-88.76812	18.01286
	-88.77104	18.01237
	-88.7719	18.01156
	-88.77293	18.00878
	-88.77259	18.00715
	-88.77053	18.00731
	-88.76898	18.00682
	-88.76898	18.00633
	-88.77087	18.00584
	-88.77242	18.00437
	-88.77396	18.0047
	-88.77568	18.00421
	-88.77671	18.00454
	-88.77756	18.00339
	-88.77602	18.00241
	-88.77722	18.0016
	-88.77859	18.00176
	-88.78134	18.00045
	-88.78306	17.99915
	-88.78392	17.9967
	-88.78426	17.99458
	-88.78563	17.99441
	-88.78615	17.99343
	-88.78683	17.99262
	-88.78769	17.99278
	-88.78786	17.9918
	-88.78701	17.99066
	-88.78735	17.98984
	-88.78546	17.99017
	-88.7846	17.98984
	-88.7858	17.9887
	-88.78615	17.98707
	-88.78495	17.98641
	-88.7834	17.98772
	-88.78237	17.98788
	-88.78237	17.98658
	-88.78357	17.98641
	-88.7846	17.98576
	-88.7846	17.98478
	-88.78186	17.98527
	-88.78065	17.98413
	-88.78203	17.98347
	-88.78357	17.98315
	-88.78443	17.98217
	-88.78409	17.97907
	-88.78546	17.97809
	-88.78666	17.97907
	-88.78632	17.9807
	-88.78735	17.98135
	-88.78889	17.98021
	-88.78924	17.97858
	-88.79061	17.9776
	-88.79233	17.97368
	-88.79439	17.974
	-88.79542	17.97384
	-88.79507	17.97172
	-88.79748	17.97074
	-88.79851	17.97025
	-88.79937	17.96796
	-88.80091	17.96682
	-88.8028	17.96633
	-88.804	17.96568
	-88.80383	17.9629
	-88.80486	17.96323
	-88.80606	17.96323
	-88.80623	17.96208
	-88.80537	17.96192
	-88.80366	17.96208
	-88.804	17.9611
	-88.80537	17.96045
	-88.80606	17.95931
	-88.80984	17.95408
	-88.81276	17.95245
	-88.81396	17.95131
	-88.81533	17.94918
	-88.82065	17.94886
	-88.8222	17.94739
	-88.82288	17.94657
	-88.8258	17.94641
	-88.82803	17.94722
	-88.82906	17.94853
	-88.82975	17.94853
	-88.82924	17.94641
	-88.83009	17.94592
	-88.83267	17.94592
	-88.83335	17.94494
	-88.83387	17.94167
	-88.83576	17.9402
	-88.8385	17.93955
	-88.84194	17.93987
	-88.84365	17.93971
	-88.84331	17.93906
	-88.84262	17.93791
	-88.8428	17.93726
	-88.84692	17.93693
	-88.84915	17.93383
	-88.85155	17.93318
	-88.85361	17.9304
	-88.85498	17.9273
	-88.8549	17.92607
	-88.85593	17.92509
	-88.85662	17.92477
	-88.85747	17.92542
	-88.8585	17.92526
	-88.85902	17.92428
	-88.85782	17.92428
	-88.85662	17.92379
	-88.85782	17.9233
	-88.85782	17.92199
	-88.85696	17.92134
	-88.8561	17.9215
	-88.85524	17.92068
	-88.85627	17.92036
	-88.8561	17.91938
	-88.85473	17.92003
	-88.85456	17.91905
	-88.85662	17.91807
	-88.85524	17.91709
	-88.85438	17.91693
	-88.8549	17.91578
	-88.85438	17.91415
	-88.85404	17.91154
	-88.85404	17.90978
	-88.85471	17.90898
	-88.85477	17.90847
	-88.8541	17.908
	-88.85426	17.9074
	-88.85474	17.90732
	-88.85523	17.9066
	-88.85482	17.9044
	-88.85498	17.90401
	-88.85613	17.90323
	-88.85733	17.90295
	-88.85806	17.9028
	-88.85833	17.90202
	-88.8603	17.90086
	-88.86017	17.90012
	-88.85942	17.89962
	-88.85843	17.9
	-88.85802	17.90003
	-88.85786	17.8998
	-88.85885	17.89798
	-88.85933	17.89542
	-88.86042	17.89395
	-88.86348	17.89418
	-88.86538	17.89492
	-88.86613	17.89596
	-88.86692	17.89596
	-88.86887	17.8946
	-88.87243	17.8945
	-88.8734	17.89483
	-88.87413	17.89584
	-88.87522	17.89609
	-88.87763	17.8943
	-88.87892	17.89503
	-88.88092	17.89645
	-88.88244	17.89595
	-88.88347	17.89732
	-88.8833	17.89951
	-88.88258	17.9005
	-88.88397	17.90078
	-88.88649	17.90377
	-88.8863	17.90618
	-88.88517	17.90667
	-88.8853	17.90731
	-88.88522	17.90817
	-88.88782	17.90708
	-88.89128	17.90699
	-88.89324	17.9076
	-88.89481	17.90606
	-88.8963	17.90616
	-88.89747	17.90729
	-88.90022	17.90827
	-88.90159	17.90958
	-88.9064	17.91578
	-88.90777	17.91644
	-88.90794	17.91497
	-88.90863	17.91186
	-88.91069	17.91088
	-88.9112	17.91007
	-88.91292	17.91007
	-88.91344	17.91137
	-88.91275	17.91301
	-88.91275	17.91431
	-88.91446	17.91562
	-88.91584	17.91627
	-88.9179	17.91529
	-88.91927	17.91513
	-88.92013	17.91562
	-88.92047	17.91791
	-88.92099	17.91856
	-88.92253	17.92101
	-88.92322	17.92362
	-88.92425	17.92591
	-88.92614	17.92885
	-88.92751	17.92967
	-88.9306	17.92967
	-88.93318	17.93081
	-88.93386	17.93195
	-88.93146	17.9331
	-88.93043	17.93342
	-88.93043	17.93718
	-88.93009	17.93996
	-88.93094	17.94224
	-88.93197	17.94273
	-88.93335	17.94273
	-88.93352	17.94159
	-88.93524	17.93947
	-88.93661	17.93963
	-88.93815	17.94061
	-88.93815	17.94241
	-88.93695	17.94404
	-88.93695	17.946
	-88.93867	17.94812
	-88.93918	17.94894
	-88.94142	17.94975
	-88.94365	17.94992
	-88.94451	17.95057
	-88.94485	17.95286
	-88.94468	17.9558
	-88.94365	17.95759
	-88.94468	17.95906
	-88.94708	17.95841
	-88.94794	17.95759
	-88.94897	17.9558
	-88.95	17.95612
	-88.95172	17.95449
	-88.9536	17.95384
	-88.95429	17.95482
	-88.95412	17.95612
	-88.95584	17.95612
	-88.95687	17.95498
	-88.9579	17.95269
	-88.95944	17.95139
	-88.96013	17.95188
	-88.96184	17.95318
	-88.96253	17.95286
	-88.96425	17.95367
	-88.96751	17.95351
	-88.96802	17.95253
	-88.96974	17.95171
	-88.97094	17.95269
	-88.9718	17.95269
	-88.97317	17.95416
	-88.97334	17.95547
	-88.9742	17.95563
	-88.97781	17.95547
	-88.98021	17.95531
	-88.98073	17.95727
	-88.98279	17.95759
	-88.98433	17.95629
	-88.98502	17.95286
	-88.98519	17.95057
	-88.98553	17.94812
	-88.98536	17.94714
	-88.98622	17.94665
	-88.98639	17.94731
	-88.98759	17.94747
	-88.98828	17.94894
	-88.99137	17.95204
	-88.99103	17.95318
	-88.99257	17.95449
	-88.99326	17.95612
	-88.99223	17.95874
	-88.99377	17.96053
	-88.99583	17.96461
	-88.99875	17.96674
	-88.99772	17.96968
	-88.99772	17.97131
	-88.99892	17.97131
	-89.00304	17.97147
	-89.0027	17.97327
	-89.00287	17.9749
	-89.00012	17.97686
	-88.99961	17.97898
	-88.99978	17.98143
	-89.00064	17.98339
	-89.00081	17.98617
	-89.00201	17.98862
	-89.00527	17.99123
	-89.00922	17.99401
	-89.013	17.99727
	-89.01369	18.00037
	-89.01472	18.00278
	-89.01972	18.00472
	-89.02528	18.00611
	-89.02917	18.00611
	-89.03583	18.00556
	-89.04139	18.00389
	-89.04639	18.00139
	-89.05167	17.99972
	-89.05722	17.99806
	-89.0625	17.99639
	-89.06861	17.99528
	-89.07417	17.99361
	-89.07889	17.99083
	-89.08361	17.98861
	-89.08778	17.98583
	-89.09167	17.9825
	-89.09611	17.97972
	-89.1031	17.97811
	-89.10731	17.97492
	-89.10713	17.97366
	-89.10823	17.97293
	-89.11001	17.9714
	-89.11127	17.96978
	-89.11185	17.96981
	-89.11376	17.9703
	-89.11447	17.97032
	-89.11511	17.96999
	-89.11559	17.96903
	-89.11601	17.9687
	-89.11833	17.96976
	-89.11895	17.97072
	-89.11975	17.97176
	-89.12054	17.97213
	-89.12179	17.97187
	-89.12264	17.97227
	-89.12331	17.97344
	-89.1234	17.97444
	-89.12367	17.97511
	-89.12438	17.97513
	-89.12694	17.97391
	-89.1284	17.97393
	-89.12949	17.97325
	-89.13052	17.97317
	-89.13082	17.97232
	-89.13236	17.97217
	-89.13316	17.97121
	-89.13382	17.97109
	-89.13395	17.96946
	-89.13346	17.96919
	-89.13286	17.96903
	-89.13275	17.96829
	-89.13307	17.96752
	-89.13303	17.96568
	-89.13472	17.96111
	-89.13889	17.95806
	-89.1442	17.95538
	-89.15217	17.95361
	-89.15196	17.94026
	-89.14983	17.8157
	-89.18966	17.81552
	-89.22228	17.81554
	-89.227	17.81551
	-89.23235	17.81553
	-89.24934	17.81554
	-89.25672	17.81549
	-89.26384	17.81548
	-89.27163	17.81549
	-89.28178	17.81553
	-89.29168	17.81545
	-89.30985	17.81546
	-89.31766	17.81548
	-89.32376	17.81547
	-89.32925	17.81557
	-89.41428	17.81511
	-89.49284	17.81464
	-89.66669	17.81568
	-89.68061	17.81581
	-89.7017	17.81587
	-89.74608	17.81598
	-89.76666	17.81537
	-89.77114	17.81603
	-89.77387	17.81604
	-89.84815	17.81529
	-89.92968	17.81505
	-90.07175	17.81609
	-90.10534	17.81643
	-90.1267	17.81662
	-90.2455	17.81579
	-90.28081	17.81552
	-90.3606	17.81287
	-90.42131	17.81431
	-90.43952	17.81491
	-90.55806	17.81591
	-90.58632	17.81613
	-90.61302	17.81592
	-90.64077	17.81585
	-90.64271	17.81581
	-90.64749	17.81583
	-90.68442	17.81572
	-90.74432	17.81572
	-90.74524	17.81577
	-90.75897	17.81563
	-90.77758	17.81566
	-90.78661	17.81562
	-90.80549	17.81557
	-90.81024	17.81557
	-90.8103	17.81558
	-90.8114	17.81557
	-90.81372	17.81559
	-90.81498	17.81548
	-90.8175	17.81546
	-90.82448	17.81542
	-90.83239	17.81543
	-90.83931	17.81534
	-90.84214	17.81536
	-90.84635	17.81536
	-90.85006	17.81539
	-90.85388	17.81534
	-90.86153	17.81529
	-90.86531	17.81525
	-90.86914	17.8153
	-90.87396	17.81532
	-90.87522	17.81521
	-90.87649	17.81522
	-90.8768	17.81524
	-90.8806	17.81533
	-90.88278	17.8154
	-90.88545	17.81527
	-90.88705	17.81529
	-90.90154	17.81533
	-90.90438	17.81539
	-90.91003	17.81542
	-90.91575	17.81543
	-90.9183	17.81538
	-90.92387	17.8154
	-90.92538	17.81545
	-90.95454	17.81553
	-90.96061	17.81539
	-90.9669	17.81545
	-90.97068	17.81542
	-90.97823	17.81541
	-90.98764	17.81547
	-90.98782	17.81184
	-90.98778	17.7508
	-90.98786	17.72824
	-90.98798	17.70765
	-90.98792	17.67463
	-90.98804	17.65102
	-90.98803	17.64618
	-90.98816	17.58509
	-90.98822	17.54925
	-90.98839	17.50017
	-90.98812	17.46329
	-90.98805	17.45592
	-90.98786	17.42597
	-90.98775	17.38379
	-90.98746	17.25102
	-91.05201	17.25127
	-91.10919	17.25126
	-91.2087	17.2512
	-91.27852	17.25173
	-91.28233	17.25148
	-91.29282	17.25137
	-91.29577	17.25131
	-91.29755	17.25135
	-91.31433	17.25122
	-91.32091	17.25113
	-91.3238	17.25113
	-91.32481	17.2511
	-91.32572	17.25105
	-91.32642	17.25108
	-91.32994	17.25109
	-91.33122	17.25106
	-91.33178	17.25103
	-91.3327	17.25107
	-91.33349	17.25103
	-91.33439	17.25102
	-91.33715	17.251
	-91.33856	17.25102
	-91.33984	17.25097
	-91.34124	17.251
	-91.34366	17.25099
	-91.34491	17.25094
	-91.34658	17.2511
	-91.34776	17.25102
	-91.34928	17.251
	-91.34942	17.25094
	-91.34968	17.251
	-91.35176	17.25097
	-91.35374	17.25105
	-91.35503	17.25098
	-91.35597	17.2509
	-91.3568	17.25101
	-91.35835	17.25093
	-91.36581	17.25094
	-91.36855	17.2509
	-91.37017	17.25105
	-91.38753	17.25099
	-91.38936	17.25092
	-91.39135	17.25095
	-91.39729	17.25089
	-91.39923	17.25093
	-91.40122	17.25091
	-91.40317	17.25095
	-91.4074	17.25096
	-91.4134	17.2509
	-91.41539	17.25093
	-91.41738	17.25091
	-91.41936	17.25101
	-91.42133	17.25093
	-91.42737	17.25104
	-91.43124	17.251
	-91.43409	17.25103
	-91.43932	17.25097
	-91.4397	17.25097
	-91.43977	17.25101
	-91.43982	17.25101
	-91.44016	17.24904
	-91.43806	17.24417
	-91.4369	17.24084
	-91.43518	17.2374
	-91.43398	17.23445
	-91.43428	17.2328
	-91.43381	17.23199
	-91.43227	17.22789
	-91.4313	17.22761
	-91.42969	17.22166
	-91.42842	17.21932
	-91.42715	17.21668
	-91.42469	17.21508
	-91.42231	17.21166
	-91.41596	17.20838
	-91.41187	17.20646
	-91.40514	17.20494
	-91.39845	17.20461
	-91.38832	17.20576
	-91.38618	17.20605
	-91.37613	17.20444
	-91.37218	17.20198
	-91.36595	17.19548
	-91.35635	17.19155
	-91.35383	17.18932
	-91.35176	17.18404
	-91.34813	17.17909
	-91.34707	17.1735
	-91.34917	17.16814
	-91.35153	17.16381
	-91.35073	17.16001
	-91.34701	17.15831
	-91.34069	17.15767
	-91.33732	17.15997
	-91.3365	17.1636
	-91.33581	17.16755
	-91.33338	17.17583
	-91.33057	17.17936
	-91.32702	17.18224
	-91.32326	17.18275
	-91.31904	17.18242
	-91.31402	17.18027
	-91.3102	17.179
	-91.30684	17.17996
	-91.30276	17.1803
	-91.29984	17.17899
	-91.29267	17.17964
	-91.2855	17.17801
	-91.28182	17.17913
	-91.27839	17.17999
	-91.27631	17.17873
	-91.27333	17.17538
	-91.27115	17.17153
	-91.26637	17.1699
	-91.26333	17.16614
	-91.26227	17.15972
	-91.26576	17.15089
	-91.27193	17.14352
	-91.27326	17.13922
	-91.27292	17.13567
	-91.27258	17.12978
	-91.26985	17.11148
	-91.26735	17.10718
	-91.26142	17.10298
	-91.25673	17.10057
	-91.25302	17.10057
	-91.24872	17.10008
	-91.24308	17.09975
	-91.23918	17.09975
	-91.23384	17.10094
	-91.23149	17.098
	-91.22528	17.09339
	-91.22197	17.08707
	-91.21698	17.07603
	-91.21593	17.07068
	-91.21694	17.06504
	-91.21403	17.06193
	-91.21489	17.05449
	-91.21348	17.05164
	-91.20993	17.05115
	-91.20422	17.04437
	-91.19688	17.04045
	-91.19321	17.03795
	-91.18184	17.02378
	-91.17637	17.01626
	-91.17369	17.01386
	-91.15864	17.00665
	-91.15023	17.00428
	-91.14387	17.00543
	-91.13417	17.00622
	-91.12631	17.00628
	-91.12311	17.00321
	-91.11973	16.99982
	-91.11885	16.99326
	-91.12201	16.9848
	-91.12207	16.9808
	-91.11933	16.97686
	-91.11675	16.97522
	-91.1138	16.97405
	-91.11008	16.97286
	-91.10454	16.97002
	-91.09976	16.96586
	-91.09753	16.96044
	-91.09495	16.95355
	-91.0898	16.94944
	-91.08072	16.94497
	-91.07676	16.94058
	-91.07092	16.93171
	-91.06817	16.92925
	-91.06801	16.92907
	-91.06354	16.92448
	-91.0636	16.92139
	-91.06704	16.91856
	-91.0703	16.91774
	-91.07236	16.91577
	-91.07356	16.91413
	-91.07339	16.91166
	-91.07168	16.90903
	-91.06532	16.90246
	-91.05966	16.89951
	-91.05245	16.89902
	-91.0461	16.89737
	-91.03597	16.89376
	-91.03219	16.89343
	-91.02945	16.89195
	-91.02275	16.89097
	-91.01709	16.88818
	-91.00833	16.8862
	-90.99923	16.8816
	-90.99443	16.87832
	-90.99185	16.87372
	-90.99082	16.8683
	-90.99048	16.86468
	-90.98842	16.86321
	-90.98482	16.86353
	-90.98276	16.866
	-90.98052	16.87158
	-90.98052	16.87651
	-90.98379	16.88407
	-90.9867	16.8931
	-90.98533	16.89754
	-90.9831	16.9
	-90.98018	16.90148
	-90.9764	16.90263
	-90.97125	16.90296
	-90.96439	16.90148
	-90.96061	16.89918
	-90.95718	16.89655
	-90.95374	16.88801
	-90.95477	16.88193
	-90.95838	16.87799
	-90.97072	16.87366
	-90.96954	16.87306
	-90.97349	16.86912
	-90.97469	16.86649
	-90.97452	16.86419
	-90.97177	16.86173
	-90.96868	16.86041
	-90.96439	16.86123
	-90.95649	16.86551
	-90.95203	16.86567
	-90.94842	16.86485
	-90.93932	16.86304
	-90.93349	16.85943
	-90.9316	16.85631
	-90.93229	16.85154
	-90.93349	16.84809
	-90.93349	16.84415
	-90.93263	16.8407
	-90.92594	16.83347
	-90.9237	16.82838
	-90.92388	16.82509
	-90.92164	16.82213
	-90.91907	16.82115
	-90.91581	16.82098
	-90.90963	16.82197
	-90.90225	16.82213
	-90.89744	16.8246
	-90.88611	16.82657
	-90.88388	16.82657
	-90.8825	16.82525
	-90.87495	16.82279
	-90.8674	16.81638
	-90.86036	16.81079
	-90.8559	16.79945
	-90.85401	16.79765
	-90.84714	16.796
	-90.83461	16.79567
	-90.8262	16.79683
	-90.82294	16.79847
	-90.81796	16.79814
	-90.81384	16.7983
	-90.80921	16.79896
	-90.80217	16.79765
	-90.80114	16.79436
	-90.80251	16.78943
	-90.80371	16.78647
	-90.80371	16.78006
	-90.80303	16.77678
	-90.80079	16.77464
	-90.79547	16.77398
	-90.79118	16.77168
	-90.78792	16.77069
	-90.78449	16.76856
	-90.77865	16.76675
	-90.76526	16.76346
	-90.76114	16.76182
	-90.75839	16.75968
	-90.75771	16.7582
	-90.75771	16.75278
	-90.75548	16.75015
	-90.74243	16.74127
	-90.73848	16.73979
	-90.72904	16.73404
	-90.72149	16.72878
	-90.71496	16.72746
	-90.71016	16.72286
	-90.70707	16.71743
	-90.70672	16.7148
	-90.71016	16.70872
	-90.70999	16.70625
	-90.70775	16.70315
	-90.70393	16.70288
	-90.70054	16.70083
	-90.69162	16.69376
	-90.68698	16.69063
	-90.68286	16.68981
	-90.68063	16.68685
	-90.67943	16.68225
	-90.6796	16.67287
	-90.676	16.65988
	-90.66141	16.64393
	-90.65711	16.63702
	-90.66055	16.63176
	-90.66192	16.62913
	-90.66055	16.62057
	-90.65643	16.61334
	-90.65523	16.60741
	-90.65591	16.60363
	-90.65385	16.59606
	-90.65385	16.59343
	-90.65574	16.59195
	-90.65883	16.59063
	-90.66364	16.58998
	-90.6669	16.58882
	-90.66776	16.58718
	-90.66759	16.5829
	-90.66604	16.5806
	-90.66226	16.57797
	-90.65711	16.57698
	-90.65059	16.57731
	-90.64475	16.57879
	-90.64201	16.58142
	-90.64081	16.5857
	-90.64081	16.59031
	-90.64269	16.59458
	-90.63909	16.59508
	-90.63772	16.59425
	-90.63531	16.59244
	-90.63119	16.58471
	-90.62587	16.5778
	-90.62587	16.57566
	-90.62759	16.57435
	-90.63308	16.57204
	-90.64218	16.56678
	-90.64441	16.56398
	-90.64647	16.56069
	-90.6475	16.55641
	-90.64681	16.55312
	-90.64681	16.55016
	-90.64836	16.54572
	-90.64733	16.54243
	-90.64458	16.53913
	-90.64269	16.53403
	-90.64269	16.53173
	-90.64561	16.52004
	-90.64544	16.51791
	-90.64218	16.51461
	-90.63909	16.5133
	-90.63497	16.5133
	-90.62965	16.51511
	-90.62398	16.51939
	-90.61832	16.52202
	-90.61574	16.52136
	-90.61248	16.5184
	-90.60871	16.51297
	-90.6063	16.50754
	-90.60596	16.50276
	-90.60716	16.49832
	-90.60905	16.49486
	-90.61214	16.49223
	-90.62055	16.48762
	-90.6257	16.48795
	-90.62948	16.4896
	-90.63222	16.4896
	-90.63428	16.48779
	-90.63566	16.48433
	-90.63445	16.4812
	-90.63016	16.47857
	-90.6257	16.47725
	-90.62038	16.47725
	-90.61729	16.47939
	-90.61523	16.48252
	-90.61471	16.48581
	-90.61317	16.48779
	-90.60974	16.48795
	-90.60647	16.48713
	-90.60184	16.48795
	-90.59944	16.4891
	-90.59738	16.49025
	-90.59446	16.49025
	-90.59274	16.48844
	-90.59274	16.48581
	-90.59411	16.47939
	-90.59343	16.47363
	-90.59171	16.47116
	-90.58811	16.46935
	-90.58416	16.46968
	-90.57987	16.47215
	-90.57025	16.47445
	-90.56424	16.47758
	-90.55772	16.4784
	-90.55154	16.48104
	-90.54759	16.48137
	-90.54351	16.48086
	-90.54353	16.47844
	-90.54834	16.47333
	-90.54834	16.47053
	-90.54748	16.46823
	-90.54491	16.4656
	-90.5413	16.46477
	-90.53753	16.46313
	-90.53238	16.46
	-90.52884	16.45766
	-90.52684	16.45758
	-90.52551	16.45934
	-90.52568	16.46461
	-90.52448	16.46642
	-90.52139	16.46839
	-90.51573	16.46971
	-90.51229	16.46971
	-90.50852	16.46922
	-90.50319	16.46625
	-90.49993	16.46346
	-90.49925	16.45868
	-90.49804	16.45522
	-90.49684	16.45407
	-90.49427	16.45358
	-90.49204	16.45457
	-90.4898	16.45769
	-90.48757	16.46016
	-90.48259	16.46132
	-90.47968	16.46033
	-90.4783	16.45769
	-90.4783	16.45588
	-90.47993	16.4511
	-90.47916	16.44716
	-90.47882	16.44387
	-90.48174	16.43761
	-90.4838	16.43464
	-90.48706	16.43069
	-90.48809	16.42773
	-90.48689	16.42427
	-90.485	16.42295
	-90.48345	16.42361
	-90.4795	16.4246
	-90.47075	16.42477
	-90.46509	16.4223
	-90.46217	16.42114
	-90.45908	16.42147
	-90.45496	16.42279
	-90.45204	16.42213
	-90.44861	16.42411
	-90.43298	16.42378
	-90.42526	16.42493
	-90.42028	16.4246
	-90.41805	16.42312
	-90.4165	16.42081
	-90.41273	16.40781
	-90.41084	16.40534
	-90.40809	16.40435
	-90.40552	16.40484
	-90.40312	16.40731
	-90.40088	16.41028
	-90.39951	16.41522
	-90.39659	16.41637
	-90.38973	16.41307
	-90.38835	16.41126
	-90.3887	16.40846
	-90.38973	16.40484
	-90.39127	16.4027
	-90.39711	16.40056
	-90.4002	16.3999
	-90.40277	16.39776
	-90.40329	16.39529
	-90.40277	16.39348
	-90.40141	16.39038
	-90.39771	16.38599
	-90.39262	16.38298
	-90.3869	16.3778
	-90.38295	16.37637
	-90.37624	16.37622
	-90.37328	16.3742
	-90.37155	16.37099
	-90.3716	16.36531
	-90.37516	16.36028
	-90.37787	16.35954
	-90.38093	16.36048
	-90.38424	16.36339
	-90.38517	16.36798
	-90.38976	16.37311
	-90.3945	16.37484
	-90.39707	16.37474
	-90.40106	16.37272
	-90.41148	16.3626
	-90.4133	16.35693
	-90.41202	16.34863
	-90.41014	16.34646
	-90.40832	16.34651
	-90.40738	16.34804
	-90.40807	16.35036
	-90.4096	16.35569
	-90.40871	16.35924
	-90.40694	16.36127
	-90.40486	16.36171
	-90.40235	16.36038
	-90.40161	16.35781
	-90.40254	16.3554
	-90.40244	16.35224
	-90.39874	16.34854
	-90.39208	16.34686
	-90.38641	16.34706
	-90.38364	16.34543
	-90.38241	16.34291
	-90.38241	16.3397
	-90.38512	16.3359
	-90.38774	16.33482
	-90.3905	16.33541
	-90.39292	16.33817
	-90.39578	16.3401
	-90.3983	16.34044
	-90.40106	16.33901
	-90.40244	16.33592
	-90.40319	16.33406
	-90.40479	16.33175
	-90.40977	16.32961
	-90.41219	16.3278
	-90.41329	16.32562
	-90.4126	16.32331
	-90.40985	16.31804
	-90.40934	16.31492
	-90.41003	16.31131
	-90.41088	16.30821
	-90.41856	16.30444
	-90.42336	16.30559
	-90.43005	16.3046
	-90.4347	16.30575
	-90.43747	16.30459
	-90.43989	16.30193
	-90.44024	16.29976
	-90.43989	16.29841
	-90.4337	16.29511
	-90.43252	16.29301
	-90.43353	16.29075
	-90.43609	16.28976
	-90.44022	16.28811
	-90.44161	16.28628
	-90.44196	16.28378
	-90.44144	16.28064
	-90.44057	16.2788
	-90.43233	16.27402
	-90.42513	16.2653
	-90.42376	16.26153
	-90.42376	16.25842
	-90.42615	16.25482
	-90.42954	16.25352
	-90.43277	16.2545
	-90.43371	16.25525
	-90.43602	16.25712
	-90.4386	16.26076
	-90.44224	16.26225
	-90.44708	16.26159
	-90.44932	16.25959
	-90.45065	16.25771
	-90.45397	16.25299
	-90.45569	16.24935
	-90.45586	16.24604
	-90.45482	16.24354
	-90.4517	16.24171
	-90.44823	16.24204
	-90.44632	16.2437
	-90.44376	16.24682
	-90.44157	16.24747
	-90.44007	16.24586
	-90.4399	16.24257
	-90.43937	16.24156
	-90.43592	16.23875
	-90.43078	16.23694
	-90.42857	16.23433
	-90.42874	16.23222
	-90.43008	16.23061
	-90.43331	16.23044
	-90.43847	16.2316
	-90.44244	16.23011
	-90.45293	16.22416
	-90.45569	16.21887
	-90.45792	16.2121
	-90.45792	16.20615
	-90.45655	16.20153
	-90.45517	16.19626
	-90.45466	16.19297
	-90.45535	16.18817
	-90.45258	16.18535
	-90.4481	16.1822
	-90.44037	16.18154
	-90.43404	16.17891
	-90.42856	16.17398
	-90.42582	16.16938
	-90.42599	16.16463
	-90.42735	16.16136
	-90.43283	16.15939
	-90.43711	16.15659
	-90.44225	16.15609
	-90.44708	16.15494
	-90.45036	16.15245
	-90.45174	16.14979
	-90.45157	16.14779
	-90.4514	16.14645
	-90.44811	16.1433
	-90.44448	16.14247
	-90.43334	16.14181
	-90.4301	16.13919
	-90.42909	16.13707
	-90.43097	16.13132
	-90.43097	16.12553
	-90.43046	16.12061
	-90.43249	16.11849
	-90.43692	16.11751
	-90.44015	16.11899
	-90.44617	16.12344
	-90.45135	16.12411
	-90.4534	16.12364
	-90.45484	16.12225
	-90.45516	16.12194
	-90.45706	16.11764
	-90.45895	16.11053
	-90.45758	16.10392
	-90.45672	16.09734
	-90.45724	16.09468
	-90.45583	16.09316
	-90.45151	16.09233
	-90.44822	16.09333
	-90.44614	16.09516
	-90.44477	16.09878
	-90.43929	16.1024
	-90.43415	16.10619
	-90.43006	16.10651
	-90.42718	16.10537
	-90.42531	16.10194
	-90.42548	16.09884
	-90.42717	16.09672
	-90.43075	16.09623
	-90.43643	16.09607
	-90.43852	16.09423
	-90.44023	16.08748
	-90.44706	16.08431
	-90.44791	16.08233
	-90.44711	16.07983
	-90.44331	16.07651
	-90.44256	16.07395
	-90.63362	16.07389
	-90.95679	16.07411
	-91.17961	16.07383
	-91.27056	16.07386
	-91.3209	16.07378
	-91.45152	16.07378
	-91.68042	16.07388
	-91.68314	16.07391
	-91.73153	16.07389
	-91.74925	16.04397
	-91.76514	16.01702
	-91.7835	15.98593
	-91.80598	15.94792
	-91.8448	15.88217
	-91.85176	15.87044
	-91.89905	15.79026
	-91.91478	15.76374
	-91.93639	15.72722
	-91.95889	15.68861
	-91.98882	15.63848
	-92.09318	15.4625
	-92.11787	15.41839
	-92.14208	15.37716
	-92.21008	15.26122
	-92.20075	15.24861
	-92.19727	15.24405
	-92.18875	15.23356
	-92.18255	15.22585
	-92.1785	15.22071
	-92.17552	15.21696
	-92.17276	15.21357
	-92.17017	15.21017
	-92.16724	15.20655
	-92.16439	15.20298
	-92.16139	15.1994
	-92.15744	15.19413
	-92.15331	15.18902
	-92.14908	15.18391
	-92.14491	15.17864
	-92.14072	15.17318
	-92.13593	15.16721
	-92.13122	15.16121
	-92.12356	15.15171
	-92.12066	15.14802
	-92.11778	15.14456
	-92.11389	15.13965
	-92.11127	15.13596
	-92.10107	15.12349
	-92.09967	15.12159
	-92.09794	15.11942
	-92.09198	15.11175
	-92.0887	15.10793
	-92.08428	15.10239
	-92.07758	15.09392
	-92.07301	15.08817
	-92.06682	15.08011
	-92.06192	15.07395
	-92.05932	15.07111
	-92.0592	15.07033
	-92.05938	15.06977
	-92.0597	15.06938
	-92.0602	15.06894
	-92.0609	15.06886
	-92.06167	15.06935
	-92.06231	15.06981
	-92.06306	15.07014
	-92.06371	15.06987
	-92.06501	15.069
	-92.06575	15.06798
	-92.06587	15.06723
	-92.06604	15.06684
	-92.06624	15.0666
	-92.06717	15.06645
	-92.06774	15.06626
	-92.06803	15.06598
	-92.06905	15.06461
	-92.06962	15.06351
	-92.06999	15.06268
	-92.07068	15.06225
	-92.07149	15.0621
	-92.07222	15.06206
	-92.07296	15.06171
	-92.07316	15.06151
	-92.07324	15.06135
	-92.07312	15.06096
	-92.07264	15.06048
	-92.07247	15.06033
	-92.0724	15.05993
	-92.07268	15.05899
	-92.07269	15.05859
	-92.07248	15.05804
	-92.07232	15.05772
	-92.07172	15.05749
	-92.07058	15.05744
	-92.07026	15.05717
	-92.06993	15.0564
	-92.0696	15.05609
	-92.06937	15.05585
	-92.06892	15.05574
	-92.06869	15.05563
	-92.06847	15.05552
	-92.06835	15.05536
	-92.06841	15.05481
	-92.06853	15.05289
	-92.06882	15.05235
	-92.06944	15.05191
	-92.07017	15.05175
	-92.07068	15.05137
	-92.07085	15.05093
	-92.07063	15.05022
	-92.07035	15.04989
	-92.07007	15.04945
	-92.07002	15.04857
	-92.0702	15.04678
	-92.07076	15.04602
	-92.07235	15.04433
	-92.07269	15.04422
	-92.07364	15.04466
	-92.07561	15.04604
	-92.07651	15.04637
	-92.07725	15.04626
	-92.07792	15.04588
	-92.0781	15.04544
	-92.0781	15.04495
	-92.0777	15.04451
	-92.07703	15.04363
	-92.07692	15.04297
	-92.07698	15.04254
	-92.07732	15.04215
	-92.07772	15.04177
	-92.07817	15.04117
	-92.07829	15.04035
	-92.07829	15.03904
	-92.07824	15.03767
	-92.07858	15.03674
	-92.07898	15.03603
	-92.07949	15.03548
	-92.07966	15.03482
	-92.07961	15.03417
	-92.07939	15.03373
	-92.07894	15.03329
	-92.07866	15.03296
	-92.07866	15.0323
	-92.07894	15.03181
	-92.07974	15.03028
	-92.07991	15.02946
	-92.08025	15.02847
	-92.08127	15.02711
	-92.08252	15.02607
	-92.0831	15.02549
	-92.08359	15.02498
	-92.08447	15.02379
	-92.08475	15.02286
	-92.08493	15.02199
	-92.08516	15.02122
	-92.08567	15.02073
	-92.08708	15.02057
	-92.08832	15.02052
	-92.08866	15.0203
	-92.09007	15.02014
	-92.09097	15.01982
	-92.09148	15.01916
	-92.09221	15.01889
	-92.093	15.01835
	-92.09329	15.0178
	-92.09385	15.01726
	-92.09436	15.01698
	-92.09453	15.01649
	-92.0947	15.01622
	-92.09533	15.016
	-92.09629	15.01557
	-92.0973	15.01508
	-92.09776	15.01448
	-92.09787	15.0136
	-92.09782	15.01201
	-92.09788	15.01103
	-92.09811	15.01037
	-92.0984	15.00988
	-92.09879	15.00961
	-92.09936	15.00955
	-92.10065	15.00978
	-92.10211	15.01022
	-92.10375	15.01056
	-92.10516	15.01078
	-92.10634	15.0109
	-92.10764	15.01107
	-92.1089	15.01095
	-92.10975	15.01112
	-92.11014	15.01167
	-92.11048	15.01265
	-92.11132	15.01359
	-92.1116	15.01353
	-92.11194	15.01326
	-92.11267	15.01294
	-92.11313	15.01277
	-92.11391	15.01272
	-92.11521	15.01322
	-92.11588	15.01399
	-92.1165	15.01481
	-92.11712	15.01531
	-92.11774	15.01537
	-92.11836	15.01526
	-92.11859	15.01477
	-92.11876	15.01258
	-92.11899	15.01197
	-92.11956	15.01154
	-92.12046	15.01176
	-92.12175	15.01253
	-92.12259	15.01396
	-92.12287	15.01473
	-92.12338	15.015
	-92.1245	15.01523
	-92.12698	15.01524
	-92.1276	15.01486
	-92.12749	15.01414
	-92.12772	15.01354
	-92.12812	15.01305
	-92.1284	15.01278
	-92.12919	15.01284
	-92.12964	15.01322
	-92.13003	15.01339
	-92.13071	15.01328
	-92.13145	15.01284
	-92.13179	15.0123
	-92.1319	15.01153
	-92.13267	15.01026
	-92.13363	15.00956
	-92.13408	15.00874
	-92.1342	15.00813
	-92.13403	15.00737
	-92.13392	15.0066
	-92.13404	15.00594
	-92.13438	15.00507
	-92.13483	15.00452
	-92.13534	15.00398
	-92.13636	15.00332
	-92.13771	15.00305
	-92.13878	15.00289
	-92.13924	15.00251
	-92.13935	15.00174
	-92.1393	15.00081
	-92.13908	15.00054
	-92.13863	15.00048
	-92.13806	15.00026
	-92.13789	14.99993
	-92.13818	14.99949
	-92.13863	14.99895
	-92.13897	14.99862
	-92.13931	14.99824
	-92.13948	14.99731
	-92.13943	14.99577
	-92.13944	14.99457
	-92.14	14.99408
	-92.14147	14.99376
	-92.1462	14.99143
	-92.14745	14.99065
	-92.14832	14.98969
	-92.14849	14.98919
	-92.14958	14.98806
	-92.15037	14.98753
	-92.15077	14.98692
	-92.15101	14.9857
	-92.15101	14.98447
	-92.15078	14.98363
	-92.15031	14.98325
	-92.14912	14.98273
	-92.14866	14.98194
	-92.14718	14.98033
	-92.14639	14.97918
	-92.14558	14.97784
	-92.14527	14.97687
	-92.14477	14.97495
	-92.14495	14.97407
	-92.14555	14.97328
	-92.14614	14.97243
	-92.14648	14.97145
	-92.14699	14.97057
	-92.1471	14.97019
	-92.14711	14.96953
	-92.14694	14.96855
	-92.14666	14.96789
	-92.14656	14.96754
	-92.14658	14.96322
	-92.14662	14.96293
	-92.14679	14.96266
	-92.14687	14.96241
	-92.14692	14.96201
	-92.14688	14.96173
	-92.14663	14.961
	-92.14622	14.9604
	-92.14601	14.95979
	-92.14602	14.95923
	-92.1461	14.95875
	-92.14623	14.95839
	-92.14631	14.95798
	-92.14652	14.9577
	-92.14681	14.95758
	-92.14718	14.95738
	-92.14739	14.9571
	-92.14756	14.95678
	-92.14777	14.9563
	-92.14814	14.95522
	-92.14848	14.95469
	-92.14848	14.95401
	-92.14857	14.95292
	-92.14841	14.95071
	-92.14841	14.94954
	-92.14834	14.94846
	-92.14805	14.94761
	-92.14764	14.9468
	-92.1467	14.94411
	-92.1462	14.94343
	-92.14521	14.94242
	-92.14443	14.94181
	-92.14422	14.94155
	-92.14402	14.94129
	-92.14361	14.9406
	-92.14328	14.93984
	-92.14303	14.93871
	-92.14308	14.93762
	-92.14338	14.93416
	-92.14355	14.93304
	-92.14364	14.93076
	-92.14365	14.92785
	-92.1435	14.92683
	-92.14276	14.92566
	-92.14216	14.92457
	-92.14149	14.92355
	-92.1412	14.9226
	-92.1412	14.92143
	-92.1415	14.92063
	-92.14179	14.92021
	-92.14181	14.9202
	-92.14203	14.91954
	-92.14219	14.91896
	-92.14204	14.91838
	-92.14182	14.91765
	-92.14167	14.91721
	-92.14167	14.9167
	-92.14197	14.91619
	-92.14303	14.91474
	-92.14325	14.91401
	-92.14416	14.91227
	-92.14476	14.91089
	-92.14469	14.9095
	-92.1444	14.90877
	-92.14343	14.90797
	-92.14201	14.90665
	-92.14156	14.90636
	-92.14141	14.906
	-92.14127	14.90541
	-92.14126	14.90405
	-92.14096	14.90339
	-92.14037	14.9023
	-92.14022	14.90142
	-92.13993	14.90062
	-92.13963	14.90004
	-92.13933	14.89916
	-92.13896	14.89792
	-92.13822	14.89697
	-92.13788	14.89625
	-92.13748	14.8953
	-92.1371	14.89427
	-92.13666	14.89362
	-92.13621	14.89318
	-92.13614	14.89252
	-92.13622	14.89165
	-92.13652	14.89085
	-92.13667	14.8899
	-92.13736	14.88765
	-92.13788	14.88649
	-92.13901	14.8854
	-92.13999	14.88511
	-92.14111	14.88497
	-92.14171	14.88482
	-92.14201	14.88453
	-92.14209	14.8841
	-92.14202	14.88366
	-92.14179	14.88315
	-92.1418	14.88249
	-92.14202	14.88191
	-92.14316	14.87922
	-92.14368	14.87842
	-92.14398	14.87813
	-92.14421	14.8777
	-92.14429	14.87704
	-92.14435	14.87626
	-92.14498	14.87369
	-92.14505	14.87348
	-92.14619	14.87193
	-92.14641	14.87137
	-92.14648	14.87093
	-92.14656	14.87021
	-92.14709	14.86977
	-92.1481	14.86885
	-92.14975	14.86777
	-92.15147	14.86734
	-92.15635	14.86546
	-92.15795	14.86445
	-92.1622	14.86213
	-92.16588	14.86025
	-92.16659	14.86038
	-92.16778	14.86074
	-92.16862	14.86084
	-92.16945	14.86084
	-92.17039	14.8609
	-92.17091	14.8607
	-92.17172	14.86021
	-92.17184	14.86005
	-92.17216	14.85954
	-92.17211	14.85919
	-92.17196	14.857
	-92.17228	14.85599
	-92.17275	14.85544
	-92.17379	14.85484
	-92.17473	14.85418
	-92.17494	14.85347
	-92.17515	14.85246
	-92.17552	14.8517
	-92.1761	14.85095
	-92.17688	14.85049
	-92.17792	14.85014
	-92.17912	14.84949
	-92.18011	14.84878
	-92.18094	14.84804
	-92.18142	14.84757
	-92.18179	14.84687
	-92.18205	14.84601
	-92.18231	14.84474
	-92.18247	14.84368
	-92.18274	14.84318
	-92.18279	14.84257
	-92.18253	14.84196
	-92.18186	14.8414
	-92.1815	14.84079
	-92.18145	14.83998
	-92.1815	14.83907
	-92.18209	14.83767
	-92.18246	14.83701
	-92.18262	14.83635
	-92.18265	14.83537
	-92.18263	14.83493
	-92.18264	14.83422
	-92.18277	14.83394
	-92.18322	14.83261
	-92.18364	14.83105
	-92.18409	14.83107
	-92.18414	14.83102
	-92.18452	14.82755
	-92.18416	14.8269
	-92.18396	14.82619
	-92.18401	14.82558
	-92.18391	14.82512
	-92.1837	14.82477
	-92.18282	14.82421
	-92.18235	14.82385
	-92.18189	14.82319
	-92.1807	14.82051
	-92.18059	14.82034
	-92.18003	14.81949
	-92.17795	14.81736
	-92.17738	14.8167
	-92.17707	14.81579
	-92.17718	14.81437
	-92.1776	14.81343
	-92.17875	14.81166
	-92.17891	14.81044
	-92.17891	14.80903
	-92.17871	14.80756
	-92.17846	14.8066
	-92.17799	14.80502
	-92.17758	14.80371
	-92.17753	14.8028
	-92.17728	14.80177
	-92.177	14.8009
	-92.17511	14.79742
	-92.17314	14.79478
	-92.17216	14.79341
	-92.17174	14.79301
	-92.17143	14.7923
	-92.17144	14.79144
	-92.17133	14.79014
	-92.17107	14.78943
	-92.1705	14.78872
	-92.16936	14.78775
	-92.16558	14.78394
	-92.16485	14.78298
	-92.16463	14.78244
	-92.16454	14.78217
	-92.16455	14.781
	-92.16481	14.77999
	-92.16482	14.77893
	-92.16467	14.77736
	-92.16425	14.7766
	-92.16363	14.77589
	-92.1628	14.77533
	-92.16166	14.77477
	-92.16124	14.77431
	-92.16073	14.7735
	-92.16063	14.77198
	-92.16068	14.77118
	-92.16131	14.76935
	-92.16111	14.76678
	-92.16133	14.76445
	-92.16154	14.76319
	-92.16186	14.76202
	-92.16215	14.76157
	-92.16259	14.76091
	-92.16348	14.75996
	-92.16431	14.75925
	-92.16707	14.75845
	-92.16889	14.75825
	-92.17051	14.75801
	-92.17113	14.7576
	-92.17176	14.75675
	-92.17192	14.75614
	-92.17203	14.75538
	-92.17181	14.75275
	-92.171	14.75062
	-92.16955	14.74906
	-92.16898	14.74825
	-92.16877	14.74724
	-92.16872	14.74643
	-92.16883	14.74618
	-92.16904	14.74582
	-92.16987	14.74476
	-92.17003	14.74426
	-92.16993	14.74375
	-92.16952	14.74334
	-92.16894	14.74309
	-92.16832	14.74304
	-92.16718	14.74273
	-92.16609	14.74222
	-92.16474	14.7412
	-92.16391	14.74046
	-92.16266	14.73942
	-92.16163	14.73841
	-92.15784	14.73637
	-92.15711	14.73555
	-92.1567	14.735
	-92.15577	14.73292
	-92.15556	14.73201
	-92.15554	14.73092
	-92.15526	14.72917
	-92.15511	14.72811
	-92.15496	14.72725
	-92.15444	14.72598
	-92.15393	14.72532
	-92.15158	14.72389
	-92.14979	14.72243
	-92.14872	14.72123
	-92.14785	14.72018
	-92.14749	14.71903
	-92.1474	14.71789
	-92.14762	14.71255
	-92.14789	14.71056
	-92.14841	14.70861
	-92.14877	14.70752
	-92.14897	14.70577
	-92.14895	14.7054
	-92.14884	14.70503
	-92.14865	14.70453
	-92.14833	14.70346
	-92.14802	14.70232
	-92.14754	14.70065
	-92.1475	14.69984
	-92.14754	14.69898
	-92.14751	14.69826
	-92.14742	14.69776
	-92.14628	14.69529
	-92.14571	14.69445
	-92.14495	14.69488
	-92.14313	14.69236
	-92.143	14.69116
	-92.14343	14.6889
	-92.14535	14.68543
	-92.14663	14.68231
	-92.14705	14.67944
	-92.14741	14.67395
	-92.14733	14.67305
	-92.1469	14.66937
	-92.14728	14.66934
	-92.14719	14.66836
	-92.14688	14.66768
	-92.1466	14.66713
	-92.1462	14.66605
	-92.14588	14.6651
	-92.14572	14.6644
	-92.14568	14.66377
	-92.14574	14.66344
	-92.14587	14.66285
	-92.14624	14.6619
	-92.14676	14.66083
	-92.14728	14.66015
	-92.14789	14.65948
	-92.14839	14.65889
	-92.14885	14.65845
	-92.14902	14.65819
	-92.14912	14.65787
	-92.14956	14.65678
	-92.1499	14.65619
	-92.15013	14.65591
	-92.15101	14.65522
	-92.15209	14.65462
	-92.15329	14.65407
	-92.15398	14.65379
	-92.15572	14.65324
	-92.15702	14.65286
	-92.15767	14.65262
	-92.15837	14.65223
	-92.15912	14.65175
	-92.15995	14.65115
	-92.16044	14.65072
	-92.16059	14.65042
	-92.16067	14.65007
	-92.16067	14.64947
	-92.16065	14.64894
	-92.16052	14.64834
	-92.15994	14.64679
	-92.15923	14.6448
	-92.15899	14.64417
	-92.15875	14.64319
	-92.15873	14.64293
	-92.15875	14.64263
	-92.15887	14.64222
	-92.15937	14.64161
	-92.15967	14.64133
	-92.16032	14.64104
	-92.16067	14.64102
	-92.16101	14.64102
	-92.16152	14.64108
	-92.16225	14.64121
	-92.164	14.64165
	-92.1644	14.64167
	-92.16482	14.64167
	-92.16585	14.64161
	-92.16595	14.6416
	-92.16655	14.64147
	-92.16694	14.64134
	-92.16739	14.64115
	-92.16758	14.64106
	-92.16826	14.64059
	-92.16839	14.64048
	-92.16886	14.64005
	-92.16915	14.6397
	-92.16953	14.63915
	-92.16978	14.63871
	-92.16995	14.63826
	-92.17028	14.63717
	-92.1704	14.63644
	-92.1705	14.63565
	-92.17065	14.63494
	-92.17109	14.63352
	-92.17133	14.63306
	-92.17168	14.63245
	-92.17221	14.63158
	-92.17236	14.63127
	-92.17258	14.63065
	-92.17275	14.63036
	-92.17288	14.63004
	-92.17306	14.62982
	-92.17474	14.62873
	-92.17533	14.62827
	-92.17596	14.62761
	-92.17625	14.62735
	-92.17677	14.62673
	-92.17694	14.62648
	-92.17703	14.62629
	-92.17713	14.62578
	-92.17715	14.62528
	-92.17714	14.62454
	-92.1771	14.62402
	-92.17701	14.6235
	-92.17684	14.62298
	-92.17676	14.62242
	-92.17677	14.62198
	-92.17692	14.62064
	-92.17698	14.62049
	-92.1771	14.62036
	-92.17748	14.6201
	-92.17763	14.61991
	-92.17781	14.6196
	-92.17796	14.61941
	-92.1785	14.61891
	-92.17966	14.61756
	-92.18045	14.61683
	-92.18076	14.61657
	-92.18091	14.61635
	-92.18107	14.61592
	-92.18112	14.61574
	-92.18122	14.61504
	-92.18124	14.61472
	-92.18122	14.61446
	-92.18117	14.61425
	-92.18105	14.614
	-92.1809	14.61387
	-92.18063	14.61377
	-92.17859	14.61362
	-92.17702	14.61346
	-92.17564	14.61324
	-92.1753	14.61311
	-92.17495	14.6129
	-92.17476	14.61271
	-92.17457	14.61245
	-92.17446	14.61219
	-92.17444	14.61162
	-92.17454	14.61132
	-92.17466	14.61106
	-92.17485	14.6108
	-92.17534	14.61029
	-92.17621	14.60949
	-92.17712	14.6087
	-92.17741	14.60838
	-92.17749	14.60826
	-92.17758	14.60811
	-92.17772	14.60777
	-92.17783	14.60738
	-92.17791	14.60698
	-92.17801	14.60535
	-92.17794	14.6044
	-92.17788	14.60403
	-92.17783	14.60323
	-92.17781	14.60255
	-92.17782	14.60138
	-92.17786	14.60095
	-92.17812	14.6002
	-92.17881	14.59768
	-92.17927	14.59618
	-92.17936	14.59573
	-92.17991	14.59424
	-92.18049	14.59321
	-92.18129	14.59202
	-92.18184	14.59107
	-92.18206	14.58959
	-92.18209	14.58672
	-92.18221	14.58601
	-92.18239	14.58478
	-92.18249	14.58387
	-92.18249	14.58164
	-92.18247	14.5797
	-92.18241	14.57939
	-92.18233	14.57916
	-92.1823	14.57887
	-92.18233	14.57864
	-92.18248	14.57833
	-92.18339	14.57728
	-92.18495	14.57571
	-92.18542	14.5754
	-92.18677	14.57479
	-92.1873	14.5745
	-92.18792	14.57419
	-92.18942	14.57294
	-92.19007	14.57237
	-92.19033	14.57211
	-92.19048	14.57186
	-92.191	14.57143
	-92.19248	14.56987
	-92.19354	14.56916
	-92.19475	14.56799
	-92.19548	14.56733
	-92.19575	14.5671
	-92.19659	14.56649
	-92.19729	14.56592
	-92.19788	14.56482
	-92.19825	14.56429
	-92.1987	14.56405
	-92.19994	14.56411
	-92.2009	14.56412
	-92.2014	14.56418
	-92.20181	14.56426
	-92.20258	14.56444
	-92.20299	14.5645
	-92.20343	14.56447
	-92.20384	14.56441
	-92.20431	14.56427
	-92.20473	14.56406
	-92.20506	14.56386
	-92.20529	14.56358
	-92.20562	14.56312
	-92.20603	14.56229
	-92.20653	14.56118
	-92.2067	14.56091
	-92.20694	14.56058
	-92.20727	14.56016
	-92.20777	14.55959
	-92.20809	14.55919
	-92.20836	14.55902
	-92.20858	14.55892
	-92.20962	14.55851
	-92.21117	14.55834
	-92.21162	14.55777
	-92.21215	14.55762
	-92.21271	14.55724
	-92.21336	14.55685
	-92.21478	14.55589
	-92.21593	14.55496
	-92.21625	14.55458
	-92.21644	14.55422
	-92.2166	14.55383
	-92.21672	14.55332
	-92.21676	14.5523
	-92.21676	14.55104
	-92.21667	14.54805
	-92.21664	14.5463
	-92.21674	14.54477
	-92.21683	14.544
	-92.21705	14.54301
	-92.21726	14.54236
	-92.21745	14.54185
	-92.21793	14.54073
	-92.21827	14.54004
	-92.21867	14.53929
	-92.21963	14.53767
	-92.22066	14.53601
	-92.2213	14.53526
	-92.22222	14.53451
	-92.22723	14.53205
	-92.22931	14.53009
	-92.31052	14.45095
	-92.37439	14.38862
	-93.22387	11.83755
	-96.36908	12.6799
	-95.84	14.52625
	-95.43751	15.93078
	-95.54103	16.05165
	-95.64908	16.17781
	-95.61414	16.3384
	-95.58397	16.4046
	-95.52944	16.52424
	-95.49345	16.64166
	-95.48498	16.66933
	-95.44001	16.70718
	-95.31876	16.80924
	-95.25735	17.05941
	-95.15567	17.21718
	-95.15576	17.21763
	-95.15573	17.21787
	-95.15567	17.2181
	-95.15569	17.21811
	-95.15584	17.21833
	-95.15601	17.21855
	-95.15605	17.21859
	-95.15625	17.21875
	-95.15654	17.21902
	-95.15696	17.21956
	-95.15708	17.21978
	-95.15729	17.22092
	-95.15715	17.22222
	-95.15713	17.2227
	-95.1569	17.22354
	-95.15679	17.22375
	-95.15557	17.22475
	-95.15532	17.22482
	-95.15395	17.22471
	-95.15369	17.2246
	-95.15319	17.22414
	-95.15315	17.22414
	-95.15244	17.22414
	-95.15217	17.22412
	-95.15168	17.22513
	-95.1516	17.22521
	-95.15079	17.22536
	-95.15049	17.22566
	-95.15027	17.22581
	-95.1501	17.22583
	-95.14636	17.23162
	-95.14684	17.23207
	-95.14747	17.23382
	-95.14735	17.23462
	-95.14682	17.23573
	-95.1463	17.23627
	-95.14628	17.23629
	-95.14548	17.23711
	-95.14507	17.23774
	-95.14391	17.23859
	-95.1435	17.2387
	-95.14232	17.23865
	-95.14192	17.23851
	-95.13348	17.25162
	-95.1371	17.44688
	-95.13843	17.51855
	-95.16384	17.66085
	-95.1522	17.75566
	-95.08762	17.87459
	-95.01245	17.99547
	-95.00292	17.99963
	-94.85575	18.06393
	-94.76364	18.16254
	-94.73453	18.22664
	-94.69377	18.31639
	-93.98629	19.9579
	-93.83805	20.30187
	-96.24023	22.41103
END
END
