Mexico_California
1
	-108.8678	24.18549
	-106.439	15.35733
	-115.2505	17.77119
	-119.6441	28.89092
	-117.8579	32.48835
	-117.4649	32.59039
	-117.4637	32.58937
	-117.4057	32.57928
	-117.3671	32.57253
	-117.3216	32.56412
	-117.3024	32.56055
	-117.2831	32.55698
	-117.2639	32.5534
	-117.2515	32.54047
	-117.2391	32.5275
	-117.1443	32.53312
	-117.1243	32.53434
	-117.1191	32.53478
	-117.1092	32.53565
	-117.1059	32.53592
	-117.0876	32.53749
	-117.0672	32.53927
	-117.0623	32.53971
	-117.0502	32.54064
	-117.0387	32.54167
	-117.03	32.5424
	-117.0297	32.54244
	-117.0285	32.54253
	-117.0285	32.54254
	-117.0176	32.54349
	-117.0009	32.54492
	-116.9716	32.54735
	-116.9451	32.54967
	-116.928	32.55112
	-116.9177	32.55202
	-116.9108	32.55256
	-116.8891	32.5544
	-116.8759	32.55574
	-116.8227	32.56001
	-116.7887	32.56293
	-116.7867	32.56308
	-116.7713	32.56433
	-116.7509	32.56602
	-116.7171	32.5689
	-116.6847	32.57158
	-116.6497	32.5745
	-116.6259	32.57642
	-116.592	32.57925
	-116.5578	32.58214
	-116.5008	32.5868
	-116.4744	32.58892
	-116.4492	32.59099
	-116.3942	32.59545
	-116.3919	32.59565
	-116.3759	32.59693
	-116.3467	32.59929
	-116.3377	32.60005
	-116.2951	32.60347
	-116.2508	32.60697
	-116.2266	32.60884
	-116.2093	32.61025
	-116.1915	32.61164
	-116.1744	32.613
	-116.1575	32.61439
	-116.1404	32.6157
	-116.1063	32.6184
	-116.0584	32.62215
	-116.0258	32.62474
	-116.0008	32.62665
	-116.0008	32.62662
	-115.924	32.63256
	-115.8758	32.63632
	-115.8758	32.63634
	-115.8511	32.63826
	-115.8335	32.63958
	-115.7983	32.64229
	-115.7805	32.64363
	-115.7508	32.64591
	-115.7179	32.6484
	-115.6916	32.65034
	-115.6258	32.65529
	-115.612	32.65629
	-115.5008	32.66463
	-115.4795	32.66607
	-115.447	32.6685
	-115.4129	32.67089
	-115.3758	32.67367
	-115.327	32.67701
	-115.2927	32.67946
	-115.2508	32.68248
	-115.1806	32.68741
	-115.0867	32.69388
	-115.0521	32.6963
	-115.0187	32.69861
	-114.9615	32.7026
	-114.9258	32.70495
	-114.918	32.70559
	-114.8961	32.70695
	-114.8488	32.71008
	-114.7969	32.7136
	-114.7913	32.71397
	-114.7901	32.71406
	-114.7508	32.71667
	-114.72	32.71866
	-114.7214	32.71707
	-114.722	32.71531
	-114.7224	32.71302
	-114.7233	32.71139
	-114.7242	32.71015
	-114.7251	32.7092
	-114.7266	32.7083
	-114.7284	32.70636
	-114.7288	32.70543
	-114.7291	32.70522
	-114.7291	32.70496
	-114.7295	32.70477
	-114.7296	32.70414
	-114.7294	32.70387
	-114.7294	32.70343
	-114.7298	32.70287
	-114.7302	32.70245
	-114.7302	32.7022
	-114.7303	32.70156
	-114.7306	32.70106
	-114.7311	32.70028
	-114.7311	32.69985
	-114.7314	32.69892
	-114.7319	32.69707
	-114.7321	32.69651
	-114.7324	32.6959
	-114.7329	32.69537
	-114.733	32.69494
	-114.7328	32.69432
	-114.7326	32.69371
	-114.7328	32.69341
	-114.7339	32.69245
	-114.7347	32.69111
	-114.7354	32.68991
	-114.736	32.68908
	-114.7362	32.6888
	-114.7364	32.68872
	-114.7369	32.68867
	-114.7374	32.6884
	-114.7376	32.68819
	-114.7381	32.68771
	-114.7385	32.68663
	-114.7389	32.68611
	-114.7394	32.68562
	-114.7404	32.68413
	-114.7409	32.68359
	-114.7411	32.6829
	-114.7414	32.68252
	-114.7417	32.68217
	-114.7417	32.6817
	-114.7416	32.68072
	-114.7421	32.68011
	-114.7427	32.67956
	-114.7432	32.67889
	-114.7432	32.67846
	-114.7433	32.67814
	-114.7439	32.67761
	-114.7449	32.67739
	-114.7453	32.67707
	-114.7457	32.67631
	-114.746	32.67533
	-114.7462	32.6748
	-114.7464	32.67419
	-114.7463	32.67379
	-114.7463	32.67311
	-114.7468	32.67158
	-114.7472	32.66954
	-114.7474	32.66851
	-114.7473	32.66803
	-114.7473	32.66758
	-114.7474	32.66693
	-114.7477	32.66628
	-114.7477	32.66579
	-114.7477	32.66527
	-114.7479	32.66483
	-114.7479	32.66435
	-114.748	32.66387
	-114.7483	32.66357
	-114.7488	32.66275
	-114.7497	32.66189
	-114.7506	32.6614
	-114.7514	32.66075
	-114.7525	32.65972
	-114.7536	32.65895
	-114.754	32.6586
	-114.7547	32.65815
	-114.7548	32.65788
	-114.7549	32.65755
	-114.755	32.65739
	-114.7553	32.65709
	-114.7559	32.65702
	-114.7565	32.65682
	-114.7572	32.65678
	-114.7577	32.65661
	-114.7585	32.656
	-114.7594	32.65549
	-114.7596	32.65517
	-114.7601	32.65483
	-114.7609	32.6539
	-114.7613	32.65369
	-114.762	32.65312
	-114.7622	32.65282
	-114.7623	32.6524
	-114.7629	32.65119
	-114.763	32.65053
	-114.763	32.64939
	-114.7632	32.64848
	-114.7636	32.64764
	-114.7641	32.64692
	-114.7644	32.6462
	-114.7645	32.64553
	-114.7647	32.6447
	-114.7648	32.64416
	-114.7652	32.64312
	-114.7666	32.64233
	-114.7673	32.64173
	-114.7678	32.6411
	-114.7683	32.64065
	-114.7688	32.64025
	-114.7695	32.63986
	-114.7704	32.63954
	-114.7711	32.63937
	-114.7713	32.63914
	-114.7715	32.63907
	-114.7717	32.63884
	-114.7721	32.63808
	-114.7725	32.63782
	-114.7727	32.63765
	-114.773	32.63757
	-114.7736	32.63737
	-114.7739	32.63716
	-114.7743	32.63677
	-114.7743	32.63657
	-114.7745	32.6358
	-114.7743	32.63553
	-114.7744	32.63531
	-114.7746	32.63505
	-114.7758	32.63401
	-114.7775	32.6327
	-114.778	32.63244
	-114.7787	32.63199
	-114.779	32.63165
	-114.7795	32.63136
	-114.7808	32.63102
	-114.7814	32.63092
	-114.7819	32.63091
	-114.783	32.63103
	-114.7839	32.63128
	-114.7847	32.63161
	-114.785	32.63159
	-114.7853	32.63146
	-114.7857	32.63115
	-114.7868	32.62979
	-114.7876	32.62868
	-114.788	32.62803
	-114.7884	32.62711
	-114.7886	32.62642
	-114.7891	32.62606
	-114.7895	32.62571
	-114.7898	32.62527
	-114.7899	32.62482
	-114.7899	32.62445
	-114.7897	32.62379
	-114.7895	32.62344
	-114.7891	32.62279
	-114.7889	32.62236
	-114.7891	32.62189
	-114.7894	32.62156
	-114.7896	32.62159
	-114.7901	32.62179
	-114.7905	32.62189
	-114.7913	32.62207
	-114.7919	32.62211
	-114.7926	32.62204
	-114.7927	32.62206
	-114.7932	32.62225
	-114.7932	32.62235
	-114.7943	32.62391
	-114.7944	32.62398
	-114.7953	32.6242
	-114.7959	32.6242
	-114.7969	32.62398
	-114.7983	32.62322
	-114.7984	32.62312
	-114.7987	32.62362
	-114.7999	32.62521
	-114.8007	32.62575
	-114.8016	32.62608
	-114.803	32.62644
	-114.8039	32.62635
	-114.8054	32.62604
	-114.8069	32.62528
	-114.8084	32.62431
	-114.8098	32.62322
	-114.8105	32.62235
	-114.8106	32.62172
	-114.8105	32.62126
	-114.8104	32.62084
	-114.8097	32.61966
	-114.8095	32.61921
	-114.8093	32.61866
	-114.8093	32.61788
	-114.809	32.61705
	-114.8088	32.61623
	-114.8087	32.61546
	-114.8088	32.61494
	-114.809	32.61396
	-114.8091	32.61324
	-114.8094	32.61262
	-114.8101	32.61158
	-114.8105	32.61092
	-114.8106	32.61046
	-114.8106	32.60985
	-114.8105	32.60928
	-114.8103	32.60883
	-114.8102	32.60845
	-114.8097	32.60763
	-114.8092	32.60671
	-114.8093	32.60628
	-114.8093	32.60551
	-114.809	32.60453
	-114.8086	32.60391
	-114.8083	32.60368
	-114.8082	32.60271
	-114.8081	32.60172
	-114.8079	32.60099
	-114.8073	32.59992
	-114.8066	32.59886
	-114.8058	32.59803
	-114.8051	32.59769
	-114.8044	32.59742
	-114.8041	32.59718
	-114.8037	32.59674
	-114.8033	32.5956
	-114.8027	32.59449
	-114.8022	32.59327
	-114.802	32.5927
	-114.8019	32.59215
	-114.8017	32.59183
	-114.8008	32.59017
	-114.8005	32.5886
	-114.8004	32.58783
	-114.8004	32.58676
	-114.8005	32.586
	-114.8006	32.58523
	-114.8009	32.58433
	-114.8013	32.58337
	-114.8021	32.58202
	-114.8027	32.58084
	-114.8033	32.58029
	-114.8038	32.57994
	-114.8044	32.57909
	-114.8047	32.57803
	-114.8055	32.57711
	-114.8065	32.5766
	-114.8074	32.57608
	-114.8087	32.57561
	-114.8096	32.57533
	-114.81	32.57495
	-114.8099	32.5743
	-114.8097	32.5736
	-114.8095	32.57275
	-114.8095	32.57244
	-114.8097	32.57085
	-114.8098	32.57044
	-114.8101	32.57033
	-114.8104	32.57001
	-114.8107	32.56925
	-114.8109	32.56889
	-114.8113	32.56866
	-114.8113	32.56823
	-114.8112	32.56774
	-114.8107	32.56752
	-114.8101	32.56696
	-114.8099	32.56654
	-114.8098	32.56625
	-114.81	32.56589
	-114.8106	32.56504
	-114.811	32.56422
	-114.811	32.56349
	-114.8113	32.5627
	-114.8115	32.56188
	-114.8112	32.56101
	-114.8116	32.55985
	-114.8117	32.55953
	-114.8121	32.55936
	-114.8124	32.55908
	-114.8126	32.55878
	-114.813	32.5583
	-114.813	32.55738
	-114.8126	32.55678
	-114.8122	32.55624
	-114.8113	32.55549
	-114.8111	32.55483
	-114.8104	32.55437
	-114.8096	32.55412
	-114.8089	32.55332
	-114.807	32.55273
	-114.806	32.55263
	-114.8045	32.55261
	-114.8037	32.55264
	-114.8027	32.55294
	-114.8005	32.55395
	-114.7999	32.55439
	-114.7981	32.55623
	-114.7971	32.55697
	-114.796	32.55766
	-114.7947	32.55815
	-114.7932	32.55813
	-114.7923	32.55773
	-114.7919	32.55731
	-114.7915	32.55639
	-114.7916	32.55603
	-114.7935	32.55318
	-114.7946	32.5514
	-114.7948	32.55059
	-114.7948	32.54977
	-114.7951	32.54933
	-114.7965	32.54835
	-114.7991	32.54683
	-114.8004	32.54582
	-114.8013	32.54472
	-114.8022	32.5431
	-114.8025	32.54219
	-114.8032	32.54127
	-114.8041	32.5396
	-114.8052	32.53818
	-114.8058	32.53749
	-114.8061	32.53663
	-114.8061	32.53591
	-114.806	32.53519
	-114.8055	32.53433
	-114.8051	32.53251
	-114.8047	32.53164
	-114.8044	32.53109
	-114.8039	32.53062
	-114.8032	32.5297
	-114.8029	32.52908
	-114.803	32.52864
	-114.803	32.52781
	-114.8033	32.52712
	-114.8039	32.52669
	-114.8041	32.52655
	-114.8049	32.52559
	-114.8056	32.52508
	-114.807	32.52456
	-114.8091	32.52439
	-114.8102	32.52451
	-114.8108	32.5245
	-114.8115	32.52431
	-114.8121	32.52393
	-114.8125	32.52339
	-114.8125	32.52299
	-114.8122	32.52197
	-114.812	32.52099
	-114.8116	32.52016
	-114.811	32.51903
	-114.8106	32.51817
	-114.8093	32.51637
	-114.8092	32.51487
	-114.8093	32.51399
	-114.8093	32.51299
	-114.8095	32.51225
	-114.8095	32.51079
	-114.8093	32.51036
	-114.8087	32.50955
	-114.8084	32.5087
	-114.8086	32.50771
	-114.8084	32.50697
	-114.809	32.50657
	-114.8102	32.50519
	-114.8124	32.50295
	-114.8134	32.50235
	-114.8141	32.50197
	-114.8155	32.5011
	-114.8171	32.50037
	-114.8184	32.49908
	-114.8183	32.49862
	-114.8182	32.49799
	-114.816	32.49697
	-114.8147	32.49583
	-114.8135	32.4943
	-114.8157	32.4827
	-114.8323	32.48093
	-114.8384	32.47505
	-114.8565	32.47594
	-114.8798	32.48867
	-114.9373	32.46812
	-114.9373	32.43529
	-114.9608	32.38613
	-114.9788	32.33538
	-115.0018	32.30787
	-115.0206	32.29198
	-115.0402	32.27364
	-115.0434	32.25819
	-115.0527	32.24857
	-115.0529	32.23402
	-115.0515	32.22625
	-115.0516	32.22265
	-115.0518	32.22255
	-115.052	32.22232
	-115.0521	32.22218
	-115.0523	32.21985
	-115.0522	32.21965
	-115.0522	32.21954
	-115.0519	32.21916
	-115.0501	32.21841
	-115.0368	32.14374
	-115.0378	32.06707
	-114.9926	31.99975
	-114.965	31.92048
	-114.9423	31.91105
	-114.9436	31.89419
	-114.9219	31.87936
	-114.9142	31.86767
	-114.8896	31.87442
	-114.8721	31.86453
	-114.8459	31.86655
	-114.8377	31.85306
	-114.8229	31.82563
	-114.8039	31.81641
	-114.7851	31.82068
	-114.7636	31.81708
	-114.7485	31.80741
	-114.7369	31.79166
	-114.7311	31.77434
	-114.6577	31.73405
	-113.8676	30.76167
	-112.6338	28.84414
	-112.4362	28.72342
	-111.7115	27.87443
	-109.0363	24.57656
	-108.8678	24.18549
END
END
