Morocco_Rabat-Sale-Zemmour-Zaer
1
	-5.408203	36.01797
	-5.423639	35.91113
	-5.415627	35.91128
	-5.402029	35.92584
	-5.386767	35.91689
	-5.381958	35.91216
	-5.381701	35.912
	-5.381594	35.91188
	-5.381233	35.91162
	-5.38109	35.91159
	-5.380697	35.91158
	-5.380518	35.91146
	-5.380372	35.91127
	-5.380105	35.91099
	-5.379845	35.91066
	-5.379845	35.9106
	-5.379774	35.91047
	-5.379748	35.91031
	-5.379793	35.90988
	-5.379732	35.90939
	-5.379784	35.90926
	-5.379858	35.90921
	-5.379865	35.90911
	-5.37968	35.90891
	-5.379491	35.9088
	-5.37913	35.90879
	-5.37863	35.90859
	-5.37848	35.90858
	-5.378308	35.9084
	-5.378237	35.90798
	-5.378269	35.90779
	-5.378272	35.90744
	-5.378357	35.90732
	-5.378328	35.90716
	-5.378367	35.90662
	-5.378263	35.90651
	-5.37811	35.90626
	-5.377983	35.90619
	-5.37787	35.90618
	-5.37773	35.90608
	-5.377356	35.90599
	-5.377242	35.9059
	-5.377285	35.90582
	-5.37732	35.90569
	-5.377249	35.90553
	-5.376946	35.90525
	-5.376985	35.90505
	-5.376826	35.90487
	-5.376687	35.90378
	-5.376774	35.90349
	-5.376639	35.9031
	-5.376615	35.90292
	-5.376637	35.90279
	-5.376719	35.90268
	-5.377142	35.90272
	-5.377467	35.90257
	-5.377554	35.90228
	-5.377645	35.90218
	-5.377697	35.90199
	-5.37761	35.9018
	-5.377652	35.90173
	-5.377522	35.90145
	-5.377632	35.90121
	-5.377561	35.90093
	-5.377473	35.90085
	-5.377363	35.90052
	-5.377125	35.90023
	-5.377125	35.90011
	-5.376976	35.8998
	-5.377047	35.8995
	-5.376901	35.89941
	-5.376839	35.89932
	-5.376618	35.89912
	-5.37652	35.89888
	-5.376559	35.89862
	-5.376742	35.89837
	-5.376846	35.89828
	-5.37745	35.89797
	-5.377691	35.89781
	-5.37773	35.89763
	-5.377161	35.89698
	-5.377135	35.89684
	-5.377233	35.89668
	-5.377359	35.89636
	-5.377511	35.8962
	-5.377684	35.89565
	-5.377506	35.89557
	-5.377427	35.89527
	-5.376865	35.895
	-5.37669	35.89511
	-5.376508	35.8951
	-5.376475	35.89499
	-5.376378	35.89499
	-5.376248	35.89487
	-5.376141	35.89484
	-5.376027	35.89488
	-5.375913	35.89481
	-5.375858	35.89471
	-5.375582	35.89452
	-5.375419	35.89444
	-5.375387	35.89439
	-5.375429	35.89424
	-5.375325	35.89413
	-5.375299	35.89405
	-5.374961	35.89388
	-5.374896	35.8938
	-5.374922	35.89368
	-5.374896	35.89354
	-5.375058	35.89315
	-5.374672	35.89245
	-5.374577	35.89237
	-5.374571	35.8923
	-5.374646	35.8922
	-5.374685	35.8921
	-5.374831	35.89198
	-5.374854	35.89187
	-5.374756	35.89169
	-5.37485	35.89158
	-5.37486	35.89145
	-5.374974	35.89117
	-5.375026	35.89056
	-5.375289	35.89024
	-5.375353	35.88986
	-5.375475	35.88947
	-5.375508	35.88919
	-5.375319	35.88847
	-5.375309	35.8882
	-5.375081	35.88793
	-5.37455	35.88743
	-5.374387	35.88693
	-5.374408	35.88667
	-5.374372	35.88659
	-5.374336	35.88643
	-5.374231	35.88629
	-5.37373	35.88606
	-5.373179	35.88573
	-5.373361	35.88508
	-5.373356	35.88485
	-5.373159	35.88425
	-5.372763	35.88332
	-5.372305	35.8828
	-5.37211	35.88245
	-5.371822	35.88209
	-5.371686	35.88177
	-5.371466	35.88165
	-5.371291	35.88146
	-5.37106	35.88133
	-5.370837	35.88117
	-5.370776	35.88108
	-5.370753	35.881
	-5.370601	35.88107
	-5.370131	35.88103
	-5.369366	35.88106
	-5.369206	35.88058
	-5.369033	35.88027
	-5.368919	35.88002
	-5.36871	35.87986
	-5.36852	35.8798
	-5.368282	35.87969
	-5.367912	35.87962
	-5.367157	35.87968
	-5.366887	35.87972
	-5.366166	35.87967
	-5.365552	35.87956
	-5.36516	35.87938
	-5.364623	35.87902
	-5.364107	35.87891
	-5.363592	35.87895
	-5.363223	35.87901
	-5.362924	35.87904
	-5.362592	35.8788
	-5.362331	35.87853
	-5.36214	35.87841
	-5.361386	35.8781
	-5.36039	35.87775
	-5.360092	35.87758
	-5.359819	35.87731
	-5.359774	35.87699
	-5.359786	35.87657
	-5.35987	35.87593
	-5.35985	35.87573
	-5.359698	35.87562
	-5.359536	35.87555
	-5.35919	35.8756
	-5.358771	35.87563
	-5.358608	35.87537
	-5.358593	35.87508
	-5.358628	35.87493
	-5.358576	35.87481
	-5.358436	35.87456
	-5.358137	35.87442
	-5.357043	35.87447
	-5.356643	35.8743
	-5.356412	35.8739
	-5.356315	35.87356
	-5.356124	35.8732
	-5.355778	35.87303
	-5.355399	35.87301
	-5.355067	35.87304
	-5.35444	35.87337
	-5.35395	35.87352
	-5.353474	35.87345
	-5.352398	35.8731
	-5.352038	35.87305
	-5.351729	35.87305
	-5.351523	35.87317
	-5.351377	35.8734
	-5.351151	35.87408
	-5.350843	35.87479
	-5.350685	35.87522
	-5.35048	35.87557
	-5.349853	35.87568
	-5.349351	35.87547
	-5.348776	35.87491
	-5.348372	35.87408
	-5.34802	35.87234
	-5.347834	35.87224
	-5.345837	35.87169
	-5.344963	35.87134
	-5.344669	35.87119
	-5.344577	35.87109
	-5.344468	35.87107
	-5.344331	35.87111
	-5.344163	35.87114
	-5.343924	35.87106
	-5.343734	35.87103
	-5.343706	35.87099
	-5.343627	35.87101
	-5.34335	35.87088
	-5.276911	35.84661
	-3.802925	35.74123
	-3.805847	35.20282
	-3.80323	35.17344
	-3.80607	35.15109
	-3.81156	35.1316
	-3.81397	35.11749
	-3.81495	35.09827
	-3.813329	35.09389
	-3.809471	35.07897
	-3.811023	35.07721
	-3.811475	35.07673
	-3.811866	35.0764
	-3.811836	35.07582
	-3.811761	35.07503
	-3.810812	35.07364
	-3.81027	35.0728
	-3.81015	35.07204
	-3.809788	35.07113
	-3.809969	35.07009
	-3.809803	35.0686
	-3.810029	35.068
	-3.810029	35.06694
	-3.809532	35.06551
	-3.809864	35.06474
	-3.81021	35.06425
	-3.810375	35.06345
	-3.810315	35.06292
	-3.810059	35.06164
	-3.810044	35.06074
	-3.809427	35.05859
	-3.8103	35.05521
	-3.811204	35.05363
	-3.81161	35.05262
	-3.814305	35.04966
	-3.814727	35.04886
	-3.815404	35.04766
	-3.816202	35.0451
	-3.816774	35.04298
	-3.816744	35.04081
	-3.816804	35.03922
	-3.816232	35.03683
	-3.815344	35.03646
	-3.815585	35.03508
	-3.816292	35.03362
	-3.816503	35.03066
	-3.817316	35.02715
	-3.817497	35.02437
	-3.817331	35.02201
	-3.816774	35.01879
	-3.816232	35.01774
	-3.815916	35.01694
	-3.815991	35.01604
	-3.815916	35.01344
	-3.815991	35.01253
	-3.816006	35.01186
	-3.814877	35.01096
	-3.813944	35.01005
	-3.812107	35.00868
	-3.810902	35.00737
	-3.810044	35.00617
	-3.809623	35.00477
	-3.809577	35.00384
	-3.809668	35.00292
	-3.81036	35.00178
	-3.810722	35.00048
	-3.811053	34.99905
	-3.811369	34.99815
	-3.811249	34.99674
	-3.811023	34.99554
	-3.8103	34.99446
	-3.809532	34.9931
	-3.809743	34.99179
	-3.809803	34.99121
	-3.809291	34.99068
	-3.808238	34.9901
	-3.807741	34.9894
	-3.80753	34.98881
	-3.807003	34.98718
	-3.806642	34.98635
	-3.806169	34.9849
	-3.810048	34.97059
	-3.813001	34.95985
	-3.814883	34.95542
	-3.825913	34.93428
	-3.819477	34.92961
	-3.829241	34.91919
	-3.828475	34.91033
	-3.825516	34.90404
	-3.823928	34.90036
	-3.821203	34.89637
	-3.819982	34.89199
	-3.82012	34.88753
	-3.81626	34.88507
	-3.7923	34.8818
	-3.77013	34.88731
	-3.75977	34.88137
	-3.76358	34.86181
	-3.75221	34.84299
	-3.72004	34.8467
	-3.69529	34.84796
	-3.66847	34.84592
	-3.6482	34.84736
	-3.62683	34.8483
	-3.60463	34.84369
	-3.593	34.83035
	-3.59193	34.80828
	-3.59295	34.78905
	-3.59796	34.77917
	-3.61092	34.75678
	-3.619749	34.74102
	-3.61258	34.72247
	-3.59144	34.70134
	-3.61501	34.68996
	-3.63434	34.67379
	-3.64243	34.65853
	-3.64096	34.63323
	-3.62618	34.61608
	-3.5977	34.60431
	-3.571759	34.61388
	-3.573677	34.5942
	-3.555837	34.57018
	-3.531731	34.54454
	-3.5067	34.53798
	-3.48908	34.54318
	-3.4785	34.56292
	-3.47755	34.59088
	-3.46359	34.61093
	-3.43475	34.62666
	-3.38597	34.64838
	-3.36104	34.66381
	-3.33864	34.68393
	-3.31565	34.70448
	-3.29678	34.73118
	-3.277405	34.75286
	-3.26532	34.75603
	-3.260857	34.75722
	-3.216529	34.76824
	-3.181912	34.76876
	-3.15171	34.75906
	-3.12889	34.74654
	-3.0865	34.73312
	-3.05808	34.72079
	-3.03023	34.70848
	-3.01296	34.70676
	-2.9841	34.69255
	-2.95568	34.68066
	-2.94096	34.66436
	-2.939063	34.66435
	-2.937845	34.66372
	-2.94182	34.65935
	-2.987261	34.64997
	-2.975927	34.6385
	-2.953809	34.62609
	-2.945243	34.61803
	-2.93784	34.60986
	-2.93535	34.60626
	-2.936594	34.60557
	-2.939663	34.60425
	-2.942135	34.60334
	-2.943406	34.60278
	-2.944317	34.60223
	-2.946912	34.60031
	-2.947833	34.59966
	-2.949447	34.59883
	-2.950248	34.59819
	-2.950998	34.59742
	-2.951745	34.59634
	-2.952367	34.59563
	-2.953015	34.59503
	-2.953848	34.5945
	-2.954619	34.59409
	-2.95682	34.59323
	-2.960196	34.59219
	-2.963813	34.59065
	-2.964844	34.59011
	-2.978777	34.59652
	-3.012826	34.61427
	-3.058805	34.62034
	-3.060625	34.59523
	-3.034028	34.56186
	-3.047999	34.55954
	-3.057192	34.548
	-3.069749	34.52331
	-3.061925	34.5011
	-3.083954	34.49661
	-3.100759	34.49484
	-3.104463	34.46167
	-3.120269	34.45976
	-3.157974	34.43984
	-3.17122	34.43219
	-3.201214	34.41259
	-3.214873	34.40343
	-3.208026	34.39291
	-3.202722	34.38697
	-3.214573	34.3783
	-3.221826	34.37153
	-3.218135	34.36636
	-3.215993	34.35908
	-3.205899	34.34415
	-3.195526	34.32831
	-3.171189	34.31021
	-3.150027	34.29903
	-3.132003	34.28533
	-3.115352	34.27452
	-3.11212	34.26026
	-3.11135	34.24659
	-3.11183	34.2287
	-3.10942	34.21251
	-3.10468	34.19804
	-3.09671	34.18159
	-3.08422	34.16631
	-3.0767	34.15172
	-3.06803	34.13799
	-3.0561	34.12273
	-3.06383	34.10471
	-3.07328	34.08585
	-3.08309	34.07022
	-3.1016	34.05821
	-3.1288	34.04982
	-3.1533	34.03992
	-3.17123	34.02788
	-3.18969	34.01632
	-3.21808	33.99647
	-3.23041	33.97497
	-3.23407	33.96916
	-3.23174	33.94148
	-3.21696	33.92748
	-3.19667	33.91276
	-3.17499	33.89338
	-3.16284	33.88225
	-3.14776	33.85443
	-3.12467	33.82119
	-3.1099	33.79797
	-3.105076	33.78812
	-3.099257	33.77646
	-3.096866	33.77042
	-3.094278	33.76166
	-3.045076	33.76544
	-3.032377	33.73147
	-3.058422	33.70635
	-3.091019	33.6902
	-3.123394	33.66017
	-3.120443	33.63345
	-3.137781	33.61626
	-3.152527	33.60306
	-3.175014	33.59117
	-3.190464	33.57036
	-3.213669	33.56522
	-3.220443	33.55791
	-3.226934	33.55365
	-3.227926	33.53466
	-3.245092	33.52764
	-3.25728	33.51666
	-3.12069	33.40572
	-3.06976	33.36837
	-3.04082	33.34308
	-2.9992	33.31764
	-2.98082	33.30113
	-2.95743	33.27608
	-2.93543	33.2557
	-2.92479	33.23954
	-2.90572	33.21653
	-2.899	33.19964
	-2.90695	33.17701
	-2.9415	33.15244
	-2.9785	33.13258
	-3.02867	33.1138
	-3.14447	33.09392
	-3.23413	33.07736
	-3.34091	33.05967
	-3.43584	33.05657
	-3.48775	33.0755
	-3.514606	33.08515
	-3.532291	33.08955
	-3.539823	33.09255
	-3.548325	33.09366
	-3.559654	33.09762
	-3.567551	33.1081
	-3.575619	33.10844
	-3.586004	33.10146
	-3.593729	33.09867
	-3.603514	33.09453
	-3.616989	33.07831
	-3.649692	33.05743
	-3.682746	33.02694
	-3.712958	32.97939
	-3.727415	32.94771
	-3.749855	32.9256
	-3.798869	32.89575
	-3.83034	32.86649
	-3.86818	32.82388
	-3.91125	32.76307
	-3.94745	32.71852
	-3.97854	32.68849
	-4.00242	32.65954
	-4.01593	32.64076
	-4.014898	32.61954
	-4.018159	32.60844
	-4.05787	32.60056
	-4.10358	32.62304
	-4.17408	32.60105
	-4.21682	32.61378
	-4.24227	32.65712
	-4.26555	32.6884
	-4.285026	32.71475
	-4.324203	32.75042
	-4.371337	32.78687
	-4.405329	32.81064
	-4.418032	32.81607
	-4.46409	32.84235
	-4.487226	32.86755
	-4.4775	32.88272
	-4.523743	32.89548
	-4.558092	32.89627
	-4.623002	32.87968
	-4.656467	32.88055
	-4.713834	32.89237
	-4.769787	32.91225
	-4.772954	32.9271
	-4.755016	32.95995
	-4.766431	33.00038
	-4.774585	33.01802
	-4.808316	33.04761
	-4.821448	33.07266
	-4.82774	33.09795
	-4.82628	33.10649
	-4.84764	33.13758
	-4.86137	33.16702
	-4.87158	33.20187
	-4.90079	33.27321
	-4.918721	33.29703
	-4.9329	33.31615
	-4.942341	33.33175
	-4.954103	33.34706
	-4.954034	33.34863
	-4.953811	33.34948
	-4.953811	33.34973
	-4.953928	33.3504
	-4.95404	33.35071
	-4.954119	33.3511
	-4.954214	33.35143
	-4.954486	33.35213
	-4.954733	33.3527
	-4.954872	33.35297
	-4.955656	33.35423
	-4.95601	33.35472
	-4.956226	33.35497
	-4.956569	33.35531
	-4.957344	33.35579
	-4.957505	33.35585
	-4.957997	33.35583
	-4.957992	33.35586
	-4.958023	33.35586
	-4.958588	33.35613
	-4.958923	33.35625
	-4.959397	33.35636
	-4.959655	33.3564
	-4.960195	33.3564
	-4.960463	33.35636
	-4.961083	33.35614
	-4.961396	33.35655
	-5.004457	33.39251
	-5.008431	33.40325
	-5.015216	33.41317
	-5.023829	33.42716
	-5.021421	33.43287
	-5.002313	33.45129
	-4.961915	33.4725
	-4.936891	33.48044
	-4.901447	33.49402
	-4.881621	33.51025
	-4.860197	33.51277
	-4.873157	33.54386
	-4.877419	33.55852
	-4.890826	33.58771
	-4.909717	33.61011
	-4.924664	33.61992
	-4.962687	33.64895
	-4.969992	33.65517
	-4.982171	33.65716
	-4.991406	33.65826
	-5.00459	33.65766
	-5.021395	33.65795
	-5.032004	33.65974
	-5.047085	33.65851
	-5.06068	33.67614
	-5.0863	33.68754
	-5.11042	33.70946
	-5.148248	33.71831
	-5.158668	33.73227
	-5.160114	33.75819
	-5.157373	33.76127
	-5.14074	33.7743
	-5.125508	33.78372
	-5.093884	33.80861
	-5.079275	33.80875
	-5.071092	33.81295
	-5.059895	33.82329
	-5.063101	33.82854
	-5.089781	33.83403
	-5.094428	33.84543
	-5.092343	33.87781
	-5.121055	33.88244
	-5.135057	33.88486
	-5.133569	33.89005
	-5.136189	33.90543
	-5.131245	33.92291
	-5.138369	33.91933
	-5.151205	33.93727
	-5.155282	33.95126
	-5.168736	33.96299
	-5.188185	33.98027
	-5.185186	33.98432
	-5.185909	33.98724
	-5.183974	33.99131
	-5.18821	33.99752
	-5.195675	33.99497
	-5.197005	33.99861
	-5.196868	34.00138
	-5.200327	34.00608
	-5.207841	34.00953
	-5.215133	34.01488
	-5.221441	34.02047
	-5.233153	34.02965
	-5.233758	34.04281
	-5.233638	34.04961
	-5.253735	34.05019
	-5.240517	34.05991
	-5.239731	34.06773
	-5.24268	34.07846
	-5.238513	34.08217
	-5.238432	34.08249
	-5.238283	34.08287
	-5.2377	34.08356
	-5.237615	34.08411
	-5.237449	34.0845
	-5.237261	34.08487
	-5.236859	34.08543
	-5.2366	34.08568
	-5.23634	34.08591
	-5.235828	34.08629
	-5.235372	34.08668
	-5.233416	34.09057
	-5.233474	34.09085
	-5.233684	34.0915
	-5.233751	34.09176
	-5.233854	34.09229
	-5.233886	34.0926
	-5.234022	34.09283
	-5.234168	34.09312
	-5.234301	34.09345
	-5.235017	34.09423
	-5.235271	34.09455
	-5.236023	34.09499
	-5.236567	34.09537
	-5.236958	34.09574
	-5.237154	34.09597
	-5.237496	34.09658
	-5.237643	34.09699
	-5.237956	34.09744
	-5.238054	34.09764
	-5.238254	34.09832
	-5.238278	34.09855
	-5.238198	34.09887
	-5.24023	34.09968
	-5.248645	34.1079
	-5.25558	34.11056
	-5.269601	34.10979
	-5.279372	34.10538
	-5.279956	34.10033
	-5.275089	34.08996
	-5.274997	34.08492
	-5.276815	34.08026
	-5.297212	34.07257
	-5.30837	34.06823
	-5.323798	34.06733
	-5.330769	34.06675
	-5.339076	34.08041
	-5.337102	34.0878
	-5.3518	34.08935
	-5.355126	34.09989
	-5.344247	34.10569
	-5.33884	34.11109
	-5.342273	34.11962
	-5.336992	34.13397
	-5.335622	34.13491
	-5.335724	34.13575
	-5.335985	34.13704
	-5.337213	34.13832
	-5.338365	34.13943
	-5.338709	34.14121
	-5.336867	34.14159
	-5.336897	34.14198
	-5.336705	34.14357
	-5.338521	34.14304
	-5.341699	34.14398
	-5.3412	34.14469
	-5.340696	34.14527
	-5.339246	34.14531
	-5.338361	34.14604
	-5.33691	34.14684
	-5.336762	34.14797
	-5.338005	34.14861
	-5.339558	34.14817
	-5.339906	34.14871
	-5.340942	34.14872
	-5.342417	34.14915
	-5.343138	34.14977
	-5.344377	34.15072
	-5.345459	34.15218
	-5.344648	34.15373
	-5.344828	34.15453
	-5.345913	34.15495
	-5.346131	34.15608
	-5.348176	34.15705
	-5.347567	34.15788
	-5.34784	34.15868
	-5.349238	34.16018
	-5.350835	34.16112
	-5.352517	34.16111
	-5.351935	34.16174
	-5.352653	34.16245
	-5.350892	34.16341
	-5.350939	34.16472
	-5.349809	34.16718
	-5.351804	34.16844
	-5.351905	34.16933
	-5.352709	34.16954
	-5.352876	34.17006
	-5.353029	34.17094
	-5.352764	34.17141
	-5.351413	34.1716
	-5.349866	34.17147
	-5.349138	34.1724
	-5.350077	34.1738
	-5.349786	34.1741
	-5.349149	34.17422
	-5.348581	34.17319
	-5.348363	34.17329
	-5.348508	34.17397
	-5.347951	34.17447
	-5.347141	34.17445
	-5.34671	34.17463
	-5.3466	34.17531
	-5.345467	34.17559
	-5.34532	34.17506
	-5.344867	34.17417
	-5.344436	34.17421
	-5.344505	34.17524
	-5.342703	34.17329
	-5.341655	34.17332
	-5.341524	34.1746
	-5.339809	34.17409
	-5.339131	34.17337
	-5.338637	34.17262
	-5.338564	34.17161
	-5.339035	34.17063
	-5.33963	34.16906
	-5.339568	34.16837
	-5.339045	34.16828
	-5.338517	34.16853
	-5.338689	34.16961
	-5.337983	34.17032
	-5.336837	34.17085
	-5.336544	34.17189
	-5.337336	34.17261
	-5.33718	34.17296
	-5.33721	34.17339
	-5.336775	34.17387
	-5.336506	34.17437
	-5.336843	34.17546
	-5.338083	34.17606
	-5.338713	34.17699
	-5.338213	34.17731
	-5.337059	34.177
	-5.336525	34.17717
	-5.336827	34.17809
	-5.337635	34.17911
	-5.338397	34.17892
	-5.339008	34.1776
	-5.33946	34.17733
	-5.340289	34.17793
	-5.340322	34.17899
	-5.340128	34.18001
	-5.339381	34.18055
	-5.338175	34.18048
	-5.335925	34.18088
	-5.336536	34.18136
	-5.336843	34.18195
	-5.337311	34.18263
	-5.33779	34.18287
	-5.338213	34.18259
	-5.33847	34.18212
	-5.33886	34.1819
	-5.339158	34.18198
	-5.339303	34.18278
	-5.339684	34.18354
	-5.340428	34.18393
	-5.340786	34.18381
	-5.340961	34.18315
	-5.341114	34.18294
	-5.341844	34.1831
	-5.342849	34.18437
	-5.342415	34.18502
	-5.341813	34.18511
	-5.3414	34.1848
	-5.341399	34.18441
	-5.340979	34.18456
	-5.341349	34.18547
	-5.343303	34.18621
	-5.343152	34.18692
	-5.341607	34.18661
	-5.341685	34.18739
	-5.341894	34.18835
	-5.342402	34.189
	-5.34334	34.18912
	-5.344205	34.18854
	-5.344561	34.18907
	-5.344722	34.18977
	-5.344877	34.19065
	-5.34457	34.1916
	-5.343265	34.19126
	-5.341998	34.19039
	-5.340185	34.19021
	-5.338228	34.19037
	-5.338689	34.19085
	-5.341093	34.19196
	-5.341565	34.19356
	-5.34341	34.19446
	-5.343196	34.19537
	-5.344097	34.19601
	-5.344783	34.19539
	-5.345706	34.19572
	-5.345406	34.19668
	-5.344977	34.19794
	-5.346071	34.19791
	-5.346843	34.19885
	-5.344762	34.19947
	-5.345728	34.20018
	-5.347981	34.20039
	-5.347551	34.20137
	-5.345749	34.20187
	-5.346114	34.203
	-5.347487	34.20382
	-5.346436	34.20616
	-5.347036	34.20701
	-5.347766	34.20669
	-5.348152	34.20446
	-5.35047	34.20312
	-5.35165	34.20347
	-5.352637	34.20577
	-5.352358	34.20935
	-5.353924	34.20982
	-5.356542	34.20825
	-5.357315	34.20902
	-5.356757	34.21079
	-5.355555	34.21195
	-5.354096	34.21218
	-5.355941	34.21377
	-5.357358	34.21349
	-5.358688	34.21489
	-5.360898	34.21611
	-5.361757	34.21602
	-5.363216	34.2157
	-5.363773	34.21496
	-5.363816	34.21322
	-5.365791	34.21368
	-5.367164	34.21294
	-5.370812	34.21368
	-5.370618	34.2153
	-5.370425	34.21645
	-5.371885	34.2156
	-5.373859	34.21613
	-5.374116	34.21737
	-5.37255	34.21811
	-5.372871	34.21883
	-5.373923	34.21825
	-5.375275	34.21925
	-5.377249	34.21957
	-5.379523	34.22074
	-5.380682	34.21947
	-5.383343	34.21971
	-5.382656	34.22142
	-5.383686	34.2222
	-5.385102	34.22145
	-5.386519	34.22241
	-5.384609	34.22371
	-5.382141	34.22351
	-5.381111	34.22624
	-5.382013	34.22671
	-5.384373	34.22667
	-5.385746	34.22795
	-5.386905	34.22873
	-5.38463	34.23043
	-5.384502	34.23167
	-5.386562	34.23061
	-5.389415	34.2296
	-5.390553	34.22812
	-5.392956	34.22812
	-5.391862	34.23028
	-5.394458	34.23164
	-5.393578	34.23368
	-5.395467	34.23468
	-5.393943	34.23543
	-5.396389	34.2365
	-5.396561	34.23731
	-5.397956	34.23734
	-5.397677	34.23898
	-5.398792	34.23785
	-5.398192	34.23621
	-5.402097	34.23469
	-5.403492	34.2345
	-5.403749	34.23592
	-5.403642	34.23731
	-5.405573	34.23597
	-5.407611	34.23649
	-5.409371	34.23741
	-5.409393	34.23856
	-5.407419	34.23927
	-5.405401	34.24079
	-5.404736	34.24131
	-5.406217	34.24143
	-5.407461	34.24029
	-5.410165	34.24037
	-5.410873	34.24159
	-5.410337	34.24349
	-5.41201	34.24313
	-5.415594	34.24699
	-5.41686	34.24633
	-5.417933	34.24721
	-5.418169	34.24883
	-5.417954	34.25096
	-5.416345	34.25228
	-5.418276	34.25321
	-5.41819	34.25473
	-5.419499	34.2555
	-5.419134	34.25714
	-5.420486	34.25777
	-5.422546	34.25674
	-5.420937	34.25324
	-5.42113	34.24997
	-5.422739	34.24806
	-5.426396	34.24884
	-5.429641	34.25026
	-5.432756	34.24196
	-5.436198	34.2335
	-5.450909	34.23472
	-5.463999	34.22619
	-5.473715	34.21206
	-5.469767	34.20374
	-5.464097	34.19134
	-5.443112	34.18454
	-5.456451	34.16507
	-5.464158	34.1651
	-5.468875	34.15608
	-5.468936	34.15193
	-5.469052	34.15198
	-5.470291	34.15238
	-5.472536	34.15306
	-5.47275	34.15311
	-5.474083	34.15336
	-5.475661	34.15349
	-5.477189	34.15347
	-5.478845	34.15326
	-5.479054	34.15322
	-5.480296	34.15292
	-5.480877	34.15274
	-5.490885	34.1572
	-5.50352	34.15114
	-5.512592	34.15398
	-5.521699	34.15709
	-5.524788	34.15917
	-5.524965	34.15919
	-5.524973	34.15925
	-5.525279	34.16009
	-5.525517	34.16045
	-5.525565	34.1605
	-5.525503	34.16073
	-5.525333	34.16218
	-5.525313	34.16248
	-5.525363	34.16307
	-5.525483	34.16358
	-5.526004	34.16452
	-5.526345	34.16487
	-5.527191	34.16538
	-5.527681	34.16553
	-5.528321	34.16561
	-5.528542	34.16607
	-5.528924	34.16693
	-5.529013	34.16724
	-5.529152	34.16788
	-5.531527	34.16942
	-5.533062	34.16704
	-5.532817	34.16597
	-5.532762	34.16578
	-5.532612	34.16538
	-5.532186	34.16442
	-5.531596	34.1632
	-5.531147	34.16259
	-5.530804	34.16228
	-5.529969	34.16182
	-5.529419	34.16168
	-5.529435	34.16154
	-5.529503	34.16146
	-5.529971	34.16045
	-5.530008	34.1602
	-5.52985	34.15971
	-5.531483	34.15988
	-5.53436	34.14764
	-5.534573	34.13716
	-5.542126	34.1292
	-5.558395	34.12064
	-5.58198	34.10783
	-5.58935	34.10714
	-5.594487	34.1074
	-5.602161	34.11457
	-5.604469	34.12015
	-5.611263	34.12277
	-5.626888	34.12186
	-5.641909	34.12558
	-5.648326	34.11941
	-5.651676	34.11949
	-5.68403	34.11853
	-5.70455	34.12094
	-5.70658	34.14487
	-5.70405	34.16313
	-5.705255	34.16364
	-5.705694	34.1647
	-5.705828	34.16581
	-5.705705	34.16656
	-5.705625	34.16688
	-5.705175	34.1682
	-5.705185	34.16835
	-5.704893	34.16954
	-5.703021	34.17259
	-5.70835	34.17225
	-5.730409	34.16255
	-5.744043	34.15924
	-5.751424	34.15968
	-5.750978	34.16708
	-5.758291	34.16799
	-5.762582	34.16714
	-5.763698	34.16302
	-5.767973	34.16289
	-5.769848	34.16647
	-5.793379	34.21103
	-5.795172	34.19061
	-5.829483	34.18859
	-5.824423	34.17181
	-5.814393	34.15775
	-5.856003	34.14266
	-5.87987	34.12023
	-5.880302	34.10962
	-5.883109	34.10319
	-5.873367	34.09201
	-5.85425	34.06446
	-5.831967	34.04986
	-5.812298	34.04566
	-5.809303	34.04004
	-5.805228	34.0344
	-5.798701	34.02423
	-5.810228	34.02019
	-5.813404	34.0135
	-5.808039	34.00704
	-5.800937	34.0018
	-5.796517	33.99441
	-5.79029	33.9911
	-5.77614	33.98107
	-5.76775	33.96477
	-5.752577	33.94623
	-5.754259	33.94496
	-5.755332	33.9424
	-5.757048	33.94105
	-5.752886	33.93795
	-5.759108	33.93207
	-5.762926	33.92789
	-5.768076	33.9296
	-5.774	33.92869
	-5.773727	33.92178
	-5.773648	33.9179
	-5.777886	33.91655
	-5.777422	33.91463
	-5.779392	33.91247
	-5.780096	33.91072
	-5.780886	33.90892
	-5.780815	33.90647
	-5.780952	33.90505
	-5.781547	33.90404
	-5.780748	33.90284
	-5.778721	33.89945
	-5.77798	33.89586
	-5.78952	33.89565
	-5.79593	33.89439
	-5.799105	33.89318
	-5.800846	33.89169
	-5.79797	33.88706
	-5.799449	33.88506
	-5.802434	33.88196
	-5.805996	33.87755
	-5.807474	33.87491
	-5.805137	33.86956
	-5.802367	33.86575
	-5.798033	33.86275
	-5.793269	33.85812
	-5.790007	33.85566
	-5.785845	33.85816
	-5.785072	33.8563
	-5.784057	33.85449
	-5.782564	33.85305
	-5.775023	33.85364
	-5.767466	33.85078
	-5.753231	33.83745
	-5.758458	33.82361
	-5.76336	33.81487
	-5.753211	33.81222
	-5.743597	33.80853
	-5.73407	33.80451
	-5.727976	33.79861
	-5.722569	33.79139
	-5.714587	33.78569
	-5.716771	33.77779
	-5.720441	33.76954
	-5.732286	33.75291
	-5.73553	33.73146
	-5.741709	33.70628
	-5.763188	33.69123
	-5.785456	33.66722
	-5.777603	33.6521
	-5.79177	33.61088
	-5.804306	33.60632
	-5.797226	33.59311
	-5.796824	33.59312
	-5.796304	33.59296
	-5.795115	33.592
	-5.794907	33.59162
	-5.794594	33.59119
	-5.794261	33.59044
	-5.794115	33.58976
	-5.793891	33.5892
	-5.794273	33.58813
	-5.793679	33.58666
	-5.793705	33.58654
	-5.786105	33.57237
	-5.78044	33.55424
	-5.781324	33.54885
	-5.780868	33.54868
	-5.780784	33.54863
	-5.780467	33.5484
	-5.780254	33.5482
	-5.780089	33.54802
	-5.779747	33.54811
	-5.779177	33.54816
	-5.778974	33.54814
	-5.777979	33.54781
	-5.777751	33.54766
	-5.777424	33.54741
	-5.777206	33.5472
	-5.776982	33.54696
	-5.77667	33.54667
	-5.776359	33.54629
	-5.7763	33.5462
	-5.775986	33.54517
	-5.775983	33.54502
	-5.77601	33.5447
	-5.775995	33.5445
	-5.775997	33.54417
	-5.776032	33.54378
	-5.776119	33.54333
	-5.77653	33.54303
	-5.776609	33.54245
	-5.776808	33.54245
	-5.776563	33.54139
	-5.77663	33.54123
	-5.777189	33.54062
	-5.777233	33.54047
	-5.777279	33.54039
	-5.778169	33.53951
	-5.77848	33.53939
	-5.778913	33.53903
	-5.779314	33.53879
	-5.780399	33.53821
	-5.781152	33.538
	-5.781448	33.53798
	-5.783316	33.53595
	-5.783442	33.53595
	-5.77972	33.51494
	-5.818506	33.49665
	-5.815524	33.49584
	-5.816575	33.49274
	-5.821897	33.49073
	-5.819043	33.48926
	-5.814515	33.48916
	-5.814773	33.48579
	-5.811339	33.48329
	-5.80679	33.48071
	-5.803958	33.47956
	-5.801211	33.47842
	-5.797521	33.47971
	-5.79383	33.48171
	-5.790204	33.47931
	-5.787307	33.47921
	-5.78559	33.4767
	-5.784217	33.47534
	-5.786599	33.47258
	-5.786059	33.46925
	-5.794174	33.45852
	-5.794775	33.45293
	-5.800444	33.44382
	-5.806688	33.43258
	-5.816215	33.42698
	-5.816215	33.41951
	-5.809692	33.41006
	-5.806109	33.39891
	-5.806431	33.38573
	-5.807538	33.37507
	-5.809896	33.37254
	-5.81084	33.36905
	-5.813758	33.36459
	-5.816065	33.36284
	-5.817056	33.36101
	-5.81373	33.35648
	-5.808691	33.35395
	-5.803721	33.35101
	-5.799945	33.34679
	-5.795747	33.34254
	-5.794374	33.33617
	-5.783735	33.33815
	-5.77417	33.33408
	-5.788117	33.32773
	-5.796177	33.32212
	-5.804279	33.31662
	-5.812137	33.30906
	-5.82696	33.30429
	-5.835852	33.30873
	-5.84443	33.30893
	-5.851739	33.30937
	-5.86167	33.30928
	-5.868708	33.30972
	-5.890556	33.312
	-5.904246	33.31264
	-5.917764	33.31591
	-5.917507	33.32372
	-5.926948	33.31707
	-5.929437	33.32405
	-5.935446	33.32715
	-5.950552	33.31813
	-5.964714	33.32895
	-5.972911	33.31932
	-5.992094	33.32199
	-5.99484	33.30692
	-6.042382	33.30469
	-6.069959	33.3057
	-6.081263	33.30944
	-6.090876	33.31504
	-6.094146	33.32935
	-6.102944	33.33665
	-6.115819	33.33766
	-6.121234	33.33969
	-6.129311	33.34211
	-6.136607	33.33808
	-6.141858	33.33607
	-6.149544	33.3373
	-6.156535	33.33672
	-6.163356	33.33807
	-6.168766	33.34306
	-6.177765	33.34803
	-6.183486	33.34557
	-6.190043	33.34602
	-6.196351	33.34478
	-6.203152	33.3425
	-6.208853	33.34531
	-6.213677	33.35032
	-6.211091	33.35577
	-6.211139	33.36239
	-6.208066	33.36641
	-6.214829	33.36819
	-6.209328	33.37568
	-6.208199	33.38837
	-6.212426	33.40053
	-6.211164	33.40995
	-6.209229	33.41692
	-6.206139	33.43045
	-6.199312	33.43564
	-6.197299	33.43908
	-6.202608	33.43964
	-6.213628	33.44714
	-6.220808	33.4469
	-6.229399	33.44565
	-6.237403	33.44594
	-6.251222	33.45121
	-6.262616	33.44778
	-6.279125	33.45153
	-6.295018	33.46245
	-6.302378	33.4642
	-6.315201	33.46404
	-6.321797	33.46973
	-6.331213	33.47803
	-6.344984	33.47885
	-6.352773	33.48261
	-6.360215	33.48023
	-6.360523	33.41844
	-6.373363	33.40933
	-6.377749	33.38947
	-6.403399	33.36984
	-6.391859	33.34743
	-6.411811	33.32263
	-6.397031	33.29509
	-6.381474	33.27488
	-6.38381	33.256
	-6.407042	33.22674
	-6.417642	33.22278
	-6.430817	33.22526
	-6.447554	33.22105
	-6.460815	33.21804
	-6.472685	33.19671
	-6.494679	33.18609
	-6.509686	33.18734
	-6.520269	33.17535
	-6.52435	33.15696
	-6.531745	33.14894
	-6.5412	33.14883
	-6.547284	33.1582
	-6.550327	33.16402
	-6.559935	33.17524
	-6.575002	33.17699
	-6.571483	33.1816
	-6.59262	33.19133
	-6.603707	33.19417
	-6.613112	33.19377
	-6.632567	33.20268
	-6.641018	33.20473
	-6.654367	33.20899
	-6.664689	33.21242
	-6.670423	33.21267
	-6.677045	33.21246
	-6.682152	33.21203
	-6.696779	33.21397
	-6.708027	33.21379
	-6.715554	33.21424
	-6.735491	33.21451
	-6.75755	33.21278
	-6.767961	33.21385
	-6.779797	33.21515
	-6.79147	33.22147
	-6.800121	33.22947
	-6.814377	33.23177
	-6.822711	33.23721
	-6.828334	33.24058
	-6.833999	33.28317
	-6.827561	33.31386
	-6.821467	33.33074
	-6.818438	33.34558
	-6.819279	33.36746
	-6.822798	33.39062
	-6.819377	33.40606
	-6.823403	33.42233
	-6.817618	33.4234
	-6.796493	33.4212
	-6.796332	33.42723
	-6.803812	33.4358
	-6.809797	33.44327
	-6.824566	33.45282
	-6.839194	33.46328
	-6.851686	33.47146
	-6.824094	33.48544
	-6.809421	33.49409
	-6.798306	33.49875
	-6.789154	33.49654
	-6.782073	33.50265
	-6.772428	33.51332
	-6.76403	33.52639
	-6.760931	33.54444
	-6.843105	33.56371
	-6.869018	33.57214
	-6.895282	33.57457
	-6.925503	33.57616
	-6.965843	33.58702
	-6.99639	33.59831
	-7.003952	33.61504
	-7.004295	33.62419
	-7.002227	33.62947
	-6.997774	33.63089
	-7.003437	33.64134
	-7.005317	33.65162
	-7.013395	33.65492
	-7.01511	33.67178
	-7.018878	33.67863
	-7.029186	33.68263
	-7.025916	33.68877
	-7.028156	33.69235
	-7.021453	33.70305
	-7.024296	33.70905
	-7.027298	33.72362
	-7.030379	33.73403
	-7.037254	33.74361
	-7.039134	33.76201
	-7.043426	33.76986
	-7.050644	33.76958
	-7.05218	33.77528
	-7.062489	33.78314
	-7.060257	33.79769
	-7.066257	33.80025
	-7.082058	33.79212
	-7.089431	33.7924
	-7.099396	33.79526
	-7.11081	33.81592
	-7.125116	33.8312
	-7.301884	34.11959
	-6.075057	35.96272
	-5.650057	35.93305
	-5.408203	36.01797
END
END
