Netherlands_Flevoland
1
	5.060428	52.57894
	5.135306	52.60394
	5.165735	52.61408
	5.219133	52.63184
	5.257187	52.64447
	5.262266	52.67683
	5.276294	52.68403
	5.284953	52.68908
	5.284601	52.6893
	5.28393	52.69198
	5.286567	52.69278
	5.28749	52.69232
	5.28788	52.69218
	5.288097	52.69173
	5.295777	52.69284
	5.301635	52.69243
	5.353294	52.67864
	5.358624	52.67669
	5.361147	52.67573
	5.37726	52.76481
	5.430016	52.7728
	5.480214	52.78038
	5.516903	52.7859
	5.631353	52.80305
	5.660296	52.83125
	5.703103	52.83435
	5.702781	52.83599
	5.702904	52.83626
	5.7033	52.83639
	5.703737	52.83632
	5.703959	52.83608
	5.704282	52.83443
	5.709636	52.83482
	5.709911	52.83486
	5.710354	52.83495
	5.710584	52.83502
	5.710776	52.83509
	5.711258	52.83532
	5.711442	52.83544
	5.711747	52.8357
	5.711973	52.83597
	5.71207	52.83614
	5.712119	52.83626
	5.71245	52.83738
	5.711957	52.83745
	5.711833	52.83749
	5.711698	52.83757
	5.711623	52.83765
	5.711583	52.83775
	5.711594	52.83787
	5.711657	52.83797
	5.711757	52.83805
	5.711774	52.83805
	5.711839	52.83809
	5.711965	52.83813
	5.712091	52.83814
	5.712103	52.83815
	5.712244	52.83815
	5.712255	52.83814
	5.712312	52.83814
	5.713223	52.83801
	5.713238	52.83804
	5.713197	52.83807
	5.713194	52.83809
	5.71322	52.83819
	5.714839	52.83789
	5.714722	52.83738
	5.715935	52.83727
	5.716274	52.83725
	5.717767	52.83703
	5.71889	52.83681
	5.720293	52.83656
	5.721809	52.83627
	5.723328	52.83592
	5.723802	52.83578
	5.724153	52.83567
	5.724942	52.83538
	5.725615	52.83511
	5.726496	52.83471
	5.727038	52.83444
	5.727467	52.8342
	5.72799	52.83388
	5.728663	52.8334
	5.729574	52.83373
	5.729193	52.83412
	5.729194	52.83415
	5.729231	52.83421
	5.729275	52.83423
	5.729093	52.83442
	5.728898	52.83445
	5.728328	52.8351
	5.727971	52.83557
	5.727658	52.83607
	5.727591	52.83627
	5.727476	52.83641
	5.726913	52.83771
	5.724962	52.84252
	5.725013	52.8431
	5.725005	52.84316
	5.724682	52.84398
	5.730143	52.84302
	5.742389	52.84084
	5.748807	52.83968
	5.760445	52.83247
	5.766694	52.82858
	5.776623	52.82237
	5.784382	52.81748
	5.786709	52.81128
	5.787876	52.80723
	5.788237	52.80636
	5.789807	52.80369
	5.795177	52.80652
	5.79926	52.80129
	5.803475	52.79686
	5.805926	52.79486
	5.816857	52.78895
	5.818657	52.78764
	5.818249	52.78695
	5.818792	52.7847
	5.828147	52.78555
	5.836054	52.78564
	5.836254	52.78564
	5.837311	52.78502
	5.841619	52.78514
	5.842549	52.7848
	5.842524	52.78458
	5.84254	52.78458
	5.842539	52.78455
	5.843035	52.78455
	5.843159	52.78453
	5.84338	52.78447
	5.84339	52.78446
	5.843482	52.78445
	5.843524	52.78446
	5.844413	52.7845
	5.84458	52.7845
	5.849699	52.78474
	5.852451	52.78378
	5.860258	52.78182
	5.868718	52.77814
	5.875594	52.77464
	5.879683	52.77325
	5.882702	52.77138
	5.885137	52.7693
	5.894383	52.76513
	5.896085	52.76282
	5.900054	52.7612
	5.900914	52.76121
	5.901549	52.76123
	5.905034	52.7613
	5.906009	52.76133
	5.922574	52.75069
	5.930151	52.73959
	5.935539	52.73029
	5.941871	52.71598
	5.942555	52.715
	5.951161	52.71192
	5.955316	52.70726
	5.954839	52.70377
	5.959012	52.70386
	5.964825	52.6981
	5.965155	52.69357
	5.962105	52.69035
	5.9594	52.68995
	5.95274	52.68524
	5.951509	52.68495
	5.949519	52.68571
	5.946933	52.68416
	5.947017	52.6841
	5.946985	52.68409
	5.944708	52.68271
	5.945377	52.6823
	5.93387	52.67551
	5.932751	52.67319
	5.933084	52.67126
	5.933678	52.67069
	5.934573	52.67013
	5.934594	52.66978
	5.935148	52.66923
	5.939726	52.66884
	5.940101	52.67043
	5.941233	52.67049
	5.941594	52.67052
	5.945751	52.66948
	5.954017	52.66767
	5.958173	52.66781
	5.9619	52.66704
	5.963054	52.6664
	5.964968	52.66615
	5.966852	52.66658
	5.967933	52.66593
	5.970814	52.66519
	5.974549	52.66277
	5.976661	52.66175
	5.979546	52.6605
	5.980283	52.65996
	5.981554	52.65891
	5.982681	52.65792
	5.984048	52.65719
	5.985235	52.6569
	5.99953	52.65464
	6.006915	52.65129
	6.011665	52.64773
	6.014918	52.64562
	6.015737	52.64411
	6.017301	52.64323
	6.010474	52.63787
	5.998388	52.63315
	5.988626	52.62932
	5.963186	52.62591
	5.955285	52.62484
	5.95562	52.62292
	5.940349	52.61811
	5.93269	52.61492
	5.915664	52.61353
	5.910608	52.61766
	5.90547	52.61922
	5.891569	52.61733
	5.867372	52.61406
	5.84488	52.611
	5.844298	52.61093
	5.840525	52.61041
	5.837214	52.60733
	5.811384	52.60742
	5.807722	52.60744
	5.777968	52.60753
	5.77775	52.583
	5.777949	52.583
	5.77793	52.58085
	5.797763	52.58078
	5.803167	52.58077
	5.803319	52.58076
	5.8041	52.58075
	5.804552	52.58072
	5.804864	52.58071
	5.805888	52.58062
	5.806621	52.58053
	5.807486	52.5804
	5.808397	52.58023
	5.809516	52.57997
	5.810249	52.57977
	5.810772	52.57961
	5.811308	52.57943
	5.812143	52.57912
	5.81301	52.57875
	5.813856	52.57833
	5.814378	52.57805
	5.815361	52.57745
	5.855076	52.55082
	5.856359	52.54584
	5.857014	52.54587
	5.857162	52.54584
	5.857601	52.54565
	5.857869	52.5446
	5.856845	52.54396
	5.85705	52.54316
	5.859252	52.53569
	5.86114	52.53107
	5.860608	52.52828
	5.861836	52.52479
	5.862626	52.52335
	5.862055	52.52158
	5.864191	52.51978
	5.864502	52.51865
	5.86431	52.51817
	5.86325	52.51553
	5.863007	52.51423
	5.862912	52.51372
	5.862875	52.51353
	5.861769	52.51116
	5.860181	52.50777
	5.859763	52.50688
	5.858768	52.50475
	5.858716	52.50464
	5.857285	52.50169
	5.857214	52.50145
	5.857133	52.50119
	5.856799	52.50013
	5.856698	52.49981
	5.851529	52.49579
	5.851009	52.49539
	5.85085	52.49496
	5.850763	52.49472
	5.849854	52.49226
	5.849369	52.49095
	5.849258	52.49065
	5.848286	52.48682
	5.847867	52.48517
	5.847837	52.48505
	5.847814	52.48496
	5.845568	52.48032
	5.845577	52.47947
	5.845591	52.4782
	5.845297	52.47784
	5.843826	52.47605
	5.843477	52.47562
	5.84344	52.47558
	5.842649	52.47461
	5.842616	52.47455
	5.842577	52.47447
	5.841473	52.47227
	5.840256	52.47106
	5.831385	52.4734
	5.828213	52.46975
	5.824642	52.46563
	5.815608	52.45522
	5.822411	52.44971
	5.821447	52.4488
	5.819185	52.44668
	5.809586	52.43766
	5.811475	52.43692
	5.810984	52.43652
	5.810643	52.43624
	5.810011	52.43573
	5.807297	52.43432
	5.806898	52.43411
	5.806633	52.43383
	5.806424	52.43361
	5.804331	52.43215
	5.80309	52.4315
	5.801701	52.43078
	5.800515	52.4303
	5.800185	52.43017
	5.796771	52.42852
	5.795195	52.42775
	5.794563	52.42739
	5.792568	52.42624
	5.791289	52.42536
	5.789213	52.42368
	5.787794	52.42288
	5.787257	52.42257
	5.786295	52.42216
	5.783867	52.42111
	5.783055	52.42102
	5.7809	52.41994
	5.779409	52.4192
	5.77824	52.4185
	5.776673	52.41757
	5.775002	52.41672
	5.772786	52.41558
	5.770525	52.41427
	5.768675	52.4132
	5.763717	52.41083
	5.761916	52.40993
	5.761077	52.4096
	5.758109	52.40847
	5.757633	52.4082
	5.756292	52.40743
	5.75617	52.40736
	5.756068	52.4073
	5.756037	52.40713
	5.755984	52.40684
	5.755037	52.40626
	5.754587	52.40598
	5.753856	52.40553
	5.753051	52.40504
	5.746585	52.40299
	5.744641	52.40143
	5.7442	52.40112
	5.743703	52.40077
	5.742934	52.40023
	5.742585	52.39998
	5.740901	52.39915
	5.740013	52.39871
	5.739428	52.39842
	5.737472	52.39871
	5.737471	52.39871
	5.737422	52.39872
	5.733397	52.40253
	5.731898	52.40194
	5.729447	52.40097
	5.732511	52.39807
	5.733288	52.39733
	5.733317	52.39731
	5.733472	52.39716
	5.732841	52.39691
	5.728791	52.39531
	5.728778	52.3953
	5.727331	52.39361
	5.725093	52.39255
	5.722464	52.3913
	5.722297	52.39122
	5.722237	52.39119
	5.720521	52.39038
	5.719733	52.39001
	5.718914	52.38962
	5.716974	52.3887
	5.716339	52.3884
	5.716134	52.3883
	5.715584	52.38804
	5.715403	52.3882
	5.715186	52.3884
	5.714763	52.38878
	5.714084	52.3886
	5.713734	52.38851
	5.713634	52.38848
	5.713349	52.3884
	5.706892	52.38667
	5.706752	52.38664
	5.701165	52.3834
	5.700333	52.38291
	5.699461	52.38241
	5.699272	52.3823
	5.698762	52.382
	5.697292	52.38182
	5.695635	52.38162
	5.695342	52.38158
	5.694478	52.38148
	5.693994	52.38134
	5.693802	52.38128
	5.691396	52.38058
	5.68861	52.37976
	5.688484	52.37975
	5.686219	52.37953
	5.685736	52.37949
	5.684711	52.37939
	5.682966	52.37923
	5.678922	52.37884
	5.677659	52.37872
	5.677289	52.37853
	5.676809	52.37827
	5.673807	52.37668
	5.668443	52.37384
	5.666205	52.37266
	5.664469	52.37174
	5.662241	52.37056
	5.660235	52.3695
	5.65968	52.3692
	5.659226	52.36896
	5.659124	52.36891
	5.655278	52.36687
	5.653533	52.36595
	5.652651	52.36548
	5.652555	52.36543
	5.651851	52.36593
	5.649282	52.36774
	5.648531	52.36827
	5.645245	52.3706
	5.645055	52.37073
	5.644867	52.37086
	5.644207	52.37068
	5.643919	52.3706
	5.643014	52.37035
	5.636813	52.36862
	5.63677	52.3686
	5.629448	52.36656
	5.620737	52.36413
	5.614568	52.3624
	5.614542	52.3624
	5.614067	52.36226
	5.61406	52.36226
	5.614043	52.36226
	5.614039	52.36226
	5.613532	52.36167
	5.61328	52.36139
	5.611638	52.3595
	5.611248	52.35988
	5.610859	52.36026
	5.610131	52.36096
	5.610082	52.36101
	5.609394	52.36168
	5.609245	52.36183
	5.60921	52.36186
	5.609155	52.36191
	5.609052	52.36201
	5.608852	52.36217
	5.608788	52.36222
	5.608596	52.36236
	5.608358	52.3625
	5.608187	52.3626
	5.608097	52.36265
	5.607813	52.36278
	5.607495	52.36291
	5.607419	52.36294
	5.607409	52.36294
	5.607398	52.36295
	5.607165	52.36302
	5.606837	52.36312
	5.606549	52.36319
	5.606301	52.36325
	5.605903	52.36331
	5.605469	52.36336
	5.604955	52.36339
	5.600843	52.36352
	5.598597	52.36358
	5.598455	52.36359
	5.59829	52.36359
	5.597937	52.36359
	5.597405	52.36358
	5.597375	52.36358
	5.596987	52.36357
	5.596584	52.36354
	5.595833	52.36348
	5.595456	52.36345
	5.594633	52.36335
	5.594543	52.36334
	5.592739	52.36311
	5.592726	52.36311
	5.592724	52.36311
	5.592475	52.36308
	5.591157	52.36292
	5.588334	52.36172
	5.587707	52.36145
	5.587121	52.36102
	5.585682	52.35995
	5.581793	52.3564
	5.578014	52.35296
	5.577905	52.35286
	5.577786	52.35275
	5.575658	52.35081
	5.575604	52.35076
	5.574279	52.34826
	5.572423	52.34476
	5.571897	52.34377
	5.571419	52.34287
	5.569517	52.33928
	5.567137	52.33479
	5.567006	52.33454
	5.565864	52.33239
	5.562378	52.32581
	5.560806	52.32284
	5.560773	52.32278
	5.560651	52.32255
	5.557621	52.31683
	5.555506	52.31284
	5.555483	52.31279
	5.553655	52.30934
	5.553311	52.30869
	5.552865	52.30785
	5.552671	52.30748
	5.551396	52.30507
	5.548464	52.29953
	5.547079	52.29691
	5.545168	52.2933
	5.545167	52.2933
	5.545166	52.2933
	5.539535	52.28265
	5.538034	52.27981
	5.537754	52.27928
	5.537006	52.27787
	5.536206	52.27635
	5.535881	52.27582
	5.534812	52.27408
	5.533281	52.27274
	5.529969	52.27199
	5.522166	52.27041
	5.519033	52.26985
	5.50443	52.26728
	5.476772	52.26256
	5.476122	52.26392
	5.474176	52.26357
	5.473443	52.26344
	5.473432	52.26344
	5.47252	52.26328
	5.472402	52.26353
	5.47232	52.2637
	5.472307	52.26372
	5.472299	52.26374
	5.471447	52.26354
	5.470552	52.26334
	5.469812	52.26325
	5.469055	52.26315
	5.469075	52.26311
	5.469154	52.26294
	5.469274	52.26269
	5.464459	52.26183
	5.464666	52.26101
	5.464761	52.26064
	5.464219	52.26039
	5.463372	52.26
	5.456249	52.25861
	5.451745	52.2578
	5.437531	52.25526
	5.426659	52.25332
	5.41957	52.25205
	5.406728	52.24975
	5.404643	52.24963
	5.402897	52.24953
	5.401848	52.25014
	5.398918	52.25185
	5.3982	52.25226
	5.39809	52.25233
	5.397907	52.25243
	5.397646	52.25259
	5.397614	52.25261
	5.396857	52.25305
	5.395156	52.25404
	5.393852	52.2548
	5.393236	52.25516
	5.384679	52.26035
	5.382681	52.26157
	5.380281	52.26303
	5.372554	52.26772
	5.366777	52.27122
	5.36582	52.27181
	5.365786	52.27183
	5.365479	52.27201
	5.361596	52.27437
	5.350671	52.281
	5.343238	52.2855
	5.341327	52.28666
	5.339564	52.28773
	5.336417	52.28964
	5.335857	52.28998
	5.335462	52.29022
	5.328571	52.29439
	5.328459	52.29446
	5.328448	52.29447
	5.326951	52.29538
	5.321037	52.29896
	5.317474	52.30112
	5.315179	52.30239
	5.313904	52.3031
	5.313533	52.30331
	5.313399	52.30338
	5.30726	52.30679
	5.306874	52.30697
	5.305455	52.30763
	5.305391	52.30766
	5.304021	52.3083
	5.301113	52.30965
	5.30108	52.30967
	5.300862	52.30975
	5.297227	52.31119
	5.287397	52.31506
	5.284111	52.31596
	5.281141	52.31677
	5.280055	52.31695
	5.27904	52.31711
	5.262085	52.31989
	5.261588	52.31998
	5.259504	52.32032
	5.247043	52.32236
	5.238075	52.32382
	5.237426	52.32393
	5.237281	52.32395
	5.236383	52.3241
	5.229321	52.32526
	5.225355	52.32568
	5.22459	52.32576
	5.224246	52.3258
	5.223536	52.32587
	5.220406	52.32605
	5.212926	52.32508
	5.209306	52.32466
	5.205188	52.32419
	5.20291	52.32396
	5.190657	52.3227
	5.175143	52.32111
	5.166614	52.32024
	5.160454	52.3196
	5.151132	52.31865
	5.14925	52.31872
	5.148879	52.31873
	5.148509	52.31886
	5.146145	52.31967
	5.144498	52.3211
	5.143979	52.32155
	5.142304	52.32284
	5.141728	52.32328
	5.140617	52.32414
	5.138825	52.32552
	5.138747	52.32558
	5.138441	52.32581
	5.138369	52.32587
	5.138344	52.32589
	5.137866	52.32625
	5.134609	52.32871
	5.116205	52.34264
	5.09512	52.35858
	5.079289	52.37041
	5.079162	52.38865
	5.137331	52.41555
	5.18549	52.41564
	5.151024	52.46636
	5.100722	52.50804
	5.060428	52.57894
END
END
