Netherlands_Friesland
1
	4.818376	53.21427
	4.833191	53.22633
	4.840602	53.23235
	4.862955	53.24143
	4.874135	53.24598
	4.877862	53.24749
	4.885318	53.25052
	4.892774	53.25354
	4.90769	53.25959
	4.922602	53.26639
	4.927574	53.26866
	4.937519	53.27319
	4.947466	53.27772
	4.95244	53.27998
	4.957415	53.28224
	4.967366	53.28677
	4.982297	53.29356
	4.98398	53.29433
	4.987275	53.29583
	5.007192	53.30488
	5.012172	53.30714
	5.027117	53.31392
	5.042103	53.31621
	5.087069	53.32307
	5.101778	53.36803
	5.14829	53.38207
	5.161774	53.38613
	5.176693	53.40862
	5.251848	53.41809
	5.2591	53.419
	5.284123	53.42214
	5.309675	53.42534
	5.32554	53.42732
	5.325909	53.42737
	5.326573	53.42745
	5.344376	53.42967
	5.350269	53.43041
	5.357119	53.43126
	5.492587	53.45818
	5.515079	53.46318
	5.552856	53.47158
	5.564921	53.47606
	5.613209	53.49395
	5.665895	53.48073
	5.666141	53.48066
	5.685404	53.47582
	5.68841	53.47507
	5.699769	53.47221
	5.703443	53.47128
	5.718505	53.47174
	5.731785	53.47215
	5.734923	53.47224
	5.748631	53.47265
	5.778758	53.47356
	5.782433	53.47367
	5.782919	53.47368
	5.808886	53.47445
	5.839015	53.47534
	5.914383	53.48065
	5.93556	53.48214
	5.959612	53.48382
	5.974715	53.48674
	5.982268	53.4882
	5.989821	53.48966
	6.004929	53.49258
	6.050125	53.49234
	6.065211	53.49338
	6.080298	53.49441
	6.095373	53.49545
	6.110461	53.49648
	6.115636	53.50544
	6.120814	53.51439
	6.125992	53.52334
	6.139385	53.52126
	6.152936	53.51915
	6.169533	53.51656
	6.186128	53.51398
	6.199775	53.51524
	6.21336	53.51649
	6.226946	53.51775
	6.240533	53.519
	6.254121	53.52025
	6.26771	53.5215
	6.281299	53.52274
	6.294889	53.52399
	6.30848	53.52523
	6.322072	53.52648
	6.337298	53.5331
	6.352528	53.53971
	6.352123	53.52175
	6.367249	53.52387
	6.382272	53.5215
	6.389704	53.51695
	6.397029	53.5079
	6.396923	53.50341
	6.393051	53.49895
	6.381647	53.49455
	6.366633	53.49692
	6.351567	53.49704
	6.350426	53.44627
	6.273988	53.43018
	6.19402	53.41329
	6.167945	53.39076
	6.167586	53.3897
	6.167432	53.38807
	6.167726	53.38477
	6.168063	53.38294
	6.168926	53.37912
	6.169579	53.37685
	6.170524	53.37478
	6.171541	53.37293
	6.17264	53.37137
	6.173632	53.36982
	6.174927	53.36836
	6.176298	53.36691
	6.177726	53.36557
	6.178588	53.36483
	6.18015	53.36407
	6.180826	53.36383
	6.182747	53.36345
	6.183767	53.36322
	6.185189	53.36279
	6.187714	53.36208
	6.189373	53.36174
	6.193609	53.36107
	6.196484	53.36064
	6.201923	53.36004
	6.205358	53.35964
	6.206329	53.35952
	6.20803	53.35929
	6.21081	53.35897
	6.215037	53.3584
	6.216339	53.35815
	6.217582	53.35786
	6.218892	53.35741
	6.221158	53.35646
	6.223119	53.35558
	6.224003	53.35511
	6.224972	53.35431
	6.226222	53.35272
	6.226478	53.35228
	6.226597	53.3517
	6.226938	53.35098
	6.227302	53.35007
	6.227471	53.34939
	6.22787	53.34842
	6.228586	53.34742
	6.229944	53.34545
	6.23048	53.34475
	6.231437	53.34397
	6.232419	53.34344
	6.233595	53.3431
	6.234953	53.34284
	6.236569	53.34274
	6.237918	53.34278
	6.239299	53.34304
	6.240357	53.34341
	6.241886	53.34413
	6.24301	53.34486
	6.244317	53.34567
	6.245467	53.34636
	6.246539	53.34698
	6.247577	53.34747
	6.248853	53.34789
	6.250437	53.34825
	6.251438	53.34843
	6.252849	53.34859
	6.254047	53.34859
	6.25566	53.34839
	6.257022	53.34809
	6.25996	53.34732
	6.262879	53.34662
	6.264478	53.34626
	6.265672	53.3461
	6.266884	53.34598
	6.268653	53.34584
	6.270932	53.34571
	6.272502	53.3455
	6.27368	53.34527
	6.274724	53.34494
	6.275793	53.34454
	6.277894	53.34354
	6.280016	53.34265
	6.281319	53.34229
	6.28256	53.34199
	6.284171	53.34171
	6.286981	53.34138
	6.284182	53.32889
	6.282086	53.31982
	6.281766	53.31836
	6.281774	53.31822
	6.281745	53.31806
	6.281505	53.31698
	6.281177	53.31563
	6.280504	53.31258
	6.280536	53.31254
	6.28065	53.3125
	6.281287	53.31237
	6.281499	53.31231
	6.282856	53.31202
	6.284028	53.31179
	6.284107	53.31179
	6.286173	53.31198
	6.286495	53.31202
	6.286726	53.31202
	6.288099	53.31162
	6.289625	53.3113
	6.289756	53.31128
	6.290344	53.31115
	6.290484	53.31111
	6.29066	53.31104
	6.291477	53.31065
	6.291669	53.31057
	6.292271	53.31036
	6.292521	53.31026
	6.292675	53.31008
	6.292811	53.30984
	6.293579	53.30862
	6.293794	53.30842
	6.293861	53.30846
	6.294361	53.30817
	6.293922	53.30787
	6.293088	53.30733
	6.293029	53.30728
	6.292657	53.30705
	6.292298	53.3068
	6.292126	53.30671
	6.291441	53.30623
	6.291006	53.30595
	6.290865	53.30584
	6.290766	53.30578
	6.290661	53.30568
	6.290521	53.30559
	6.290225	53.30536
	6.289651	53.30507
	6.289204	53.30494
	6.288912	53.30487
	6.288501	53.3048
	6.28831	53.30478
	6.288139	53.30475
	6.287977	53.30474
	6.287355	53.30465
	6.286572	53.30456
	6.284305	53.30427
	6.284207	53.30425
	6.283345	53.30414
	6.281767	53.30395
	6.281536	53.30391
	6.281468	53.30391
	6.281207	53.30385
	6.280754	53.30372
	6.280494	53.30363
	6.279253	53.30326
	6.27904	53.30318
	6.278761	53.30304
	6.278428	53.30283
	6.278215	53.30265
	6.277048	53.30156
	6.276902	53.30144
	6.276732	53.30133
	6.276622	53.30119
	6.276568	53.30104
	6.276525	53.30097
	6.276579	53.30095
	6.276569	53.30094
	6.276606	53.30092
	6.276463	53.30079
	6.276384	53.3008
	6.276325	53.30083
	6.276322	53.30082
	6.2763	53.30083
	6.275959	53.3006
	6.275874	53.3005
	6.27542	53.30006
	6.275155	53.29985
	6.27478	53.2995
	6.274548	53.29924
	6.274399	53.29896
	6.274343	53.29877
	6.274353	53.29837
	6.274399	53.29783
	6.274393	53.29749
	6.274351	53.29686
	6.27441	53.2965
	6.274399	53.29649
	6.274342	53.29649
	6.274326	53.29648
	6.274074	53.29616
	6.273931	53.29601
	6.273519	53.2957
	6.273339	53.29558
	6.273072	53.29544
	6.272969	53.29541
	6.272777	53.29532
	6.272655	53.29528
	6.272573	53.29523
	6.272209	53.29508
	6.272205	53.29507
	6.271897	53.29493
	6.271627	53.29478
	6.271383	53.29457
	6.271029	53.2942
	6.270931	53.29408
	6.270778	53.29384
	6.270731	53.29371
	6.2707	53.29301
	6.270765	53.29185
	6.270754	53.29175
	6.270685	53.29156
	6.27061	53.29142
	6.270434	53.29117
	6.270322	53.29104
	6.270147	53.29087
	6.269755	53.29057
	6.269401	53.29035
	6.268949	53.29009
	6.268885	53.29004
	6.26875	53.28989
	6.268725	53.28984
	6.268717	53.28977
	6.268321	53.28979
	6.268249	53.28985
	6.26812	53.28993
	6.268039	53.29002
	6.267992	53.29014
	6.267959	53.29038
	6.267883	53.29061
	6.267731	53.29071
	6.267457	53.29085
	6.267264	53.29087
	6.266926	53.29086
	6.266805	53.29087
	6.266531	53.29092
	6.265747	53.29119
	6.265629	53.29122
	6.265395	53.29124
	6.265237	53.29124
	6.264773	53.29122
	6.26395	53.29116
	6.263342	53.29108
	6.263068	53.29106
	6.262761	53.29106
	6.262464	53.29105
	6.262391	53.29104
	6.261162	53.29106
	6.260543	53.29111
	6.26034	53.29111
	6.259904	53.29108
	6.259665	53.29103
	6.259191	53.29096
	6.258817	53.29087
	6.258141	53.29068
	6.25789	53.29062
	6.257736	53.29056
	6.257259	53.29034
	6.25696	53.29018
	6.255598	53.28937
	6.255397	53.28927
	6.254715	53.28897
	6.254549	53.28887
	6.254185	53.28858
	6.253628	53.2882
	6.253417	53.28802
	6.253382	53.28801
	6.253354	53.28802
	6.253228	53.28793
	6.253187	53.28786
	6.253184	53.28782
	6.253198	53.28741
	6.25326	53.28707
	6.25329	53.28679
	6.253376	53.28636
	6.253391	53.2862
	6.253374	53.28606
	6.253239	53.28562
	6.253075	53.28488
	6.252949	53.28447
	6.252809	53.28422
	6.252625	53.28381
	6.252478	53.28353
	6.252182	53.28284
	6.252089	53.2826
	6.252024	53.28235
	6.251995	53.28206
	6.251993	53.28184
	6.252026	53.28149
	6.252104	53.28109
	6.252256	53.28067
	6.252476	53.28023
	6.252553	53.28
	6.252556	53.27987
	6.252491	53.27944
	6.252406	53.2792
	6.252314	53.27901
	6.252227	53.2789
	6.251837	53.27852
	6.25169	53.27832
	6.251524	53.27801
	6.251444	53.27777
	6.251402	53.27757
	6.251409	53.27725
	6.251466	53.27698
	6.25158	53.27665
	6.252065	53.27557
	6.252209	53.27521
	6.25239	53.27469
	6.252698	53.27396
	6.252797	53.27374
	6.252965	53.27347
	6.253172	53.2732
	6.253362	53.27298
	6.25379	53.27254
	6.25408	53.2723
	6.254508	53.27198
	6.255436	53.27125
	6.255603	53.2711
	6.255701	53.27099
	6.255763	53.27084
	6.255807	53.27048
	6.255792	53.26996
	6.255763	53.2696
	6.255687	53.26927
	6.25553	53.26898
	6.255299	53.26876
	6.254693	53.26836
	6.254211	53.26802
	6.253951	53.26789
	6.253638	53.26777
	6.253309	53.26768
	6.252981	53.26762
	6.252917	53.2676
	6.252818	53.26759
	6.252499	53.26753
	6.251984	53.26741
	6.251692	53.26737
	6.251373	53.26735
	6.251163	53.26735
	6.251108	53.26734
	6.250843	53.26734
	6.250816	53.26733
	6.250746	53.26733
	6.250615	53.26731
	6.25048	53.26727
	6.250402	53.26727
	6.250391	53.26726
	6.250216	53.26725
	6.250202	53.26724
	6.25013	53.26724
	6.249977	53.26722
	6.24988	53.26722
	6.249871	53.26723
	6.24977	53.26724
	6.249563	53.26725
	6.24948	53.26727
	6.249419	53.26729
	6.249338	53.26734
	6.249317	53.26734
	6.249015	53.26751
	6.248738	53.26773
	6.248629	53.26793
	6.248423	53.26814
	6.248331	53.2682
	6.248206	53.26827
	6.24804	53.26833
	6.247772	53.26839
	6.247543	53.26841
	6.247276	53.26839
	6.246863	53.2683
	6.246632	53.26823
	6.246138	53.26803
	6.245215	53.26763
	6.244954	53.26748
	6.244619	53.26725
	6.244534	53.26717
	6.24441	53.26709
	6.244116	53.26686
	6.243566	53.26641
	6.243525	53.26635
	6.243462	53.26616
	6.243423	53.26591
	6.243413	53.26573
	6.243504	53.26561
	6.243511	53.26558
	6.243482	53.26545
	6.243434	53.26535
	6.243308	53.2652
	6.243199	53.2651
	6.242808	53.2648
	6.241624	53.26395
	6.241443	53.26383
	6.241085	53.26364
	6.24083	53.26352
	6.240504	53.26342
	6.240399	53.2634
	6.240307	53.26337
	6.240162	53.26335
	6.239999	53.26331
	6.239631	53.26321
	6.23932	53.26311
	6.239138	53.26303
	6.238984	53.26293
	6.238844	53.26281
	6.238727	53.26262
	6.238406	53.26216
	6.238059	53.26168
	6.237858	53.26143
	6.237667	53.2611
	6.237629	53.26102
	6.237589	53.26087
	6.237577	53.26073
	6.237598	53.2605
	6.237632	53.26039
	6.237742	53.26023
	6.23789	53.2601
	6.238055	53.26001
	6.238455	53.25986
	6.238569	53.25981
	6.238718	53.25972
	6.23883	53.25962
	6.238855	53.25958
	6.238888	53.25951
	6.238912	53.25939
	6.238906	53.2593
	6.238852	53.25917
	6.238799	53.25891
	6.238706	53.25872
	6.238509	53.25848
	6.23807	53.258
	6.237732	53.25767
	6.237503	53.25749
	6.237138	53.25732
	6.237007	53.25722
	6.236656	53.25712
	6.236508	53.25709
	6.236457	53.25707
	6.236015	53.25696
	6.235672	53.25683
	6.235348	53.25678
	6.234945	53.2567
	6.23437	53.25664
	6.234127	53.25663
	6.233681	53.25663
	6.233398	53.25664
	6.232719	53.2567
	6.232393	53.25675
	6.232173	53.25675
	6.232105	53.2567
	6.232045	53.2566
	6.232014	53.25633
	6.231945	53.25616
	6.231913	53.25612
	6.231769	53.25603
	6.231749	53.25595
	6.231753	53.25557
	6.231885	53.25538
	6.232149	53.25508
	6.23243	53.25473
	6.232625	53.25456
	6.232982	53.25433
	6.233572	53.25407
	6.233678	53.25405
	6.233842	53.25405
	6.234045	53.25407
	6.2342	53.25407
	6.234432	53.25404
	6.23464	53.25399
	6.234711	53.25396
	6.234794	53.2539
	6.234906	53.25378
	6.235055	53.25351
	6.235097	53.2534
	6.235101	53.25335
	6.234973	53.2529
	6.234895	53.25275
	6.234777	53.2526
	6.234386	53.25224
	6.234251	53.25208
	6.234218	53.25194
	6.234224	53.25164
	6.234203	53.2513
	6.234119	53.25111
	6.233852	53.25089
	6.233566	53.25071
	6.233312	53.25057
	6.23289	53.25039
	6.23255	53.25029
	6.232454	53.25028
	6.23232	53.25025
	6.231625	53.25017
	6.231344	53.25017
	6.231123	53.2502
	6.230966	53.25024
	6.230777	53.25032
	6.230447	53.25041
	6.230319	53.25043
	6.230187	53.25043
	6.230052	53.25041
	6.229872	53.25032
	6.229754	53.25023
	6.229716	53.25015
	6.229481	53.24983
	6.229437	53.24969
	6.229417	53.24948
	6.229432	53.24922
	6.229457	53.24914
	6.229545	53.24898
	6.229694	53.24881
	6.229739	53.24874
	6.229881	53.24833
	6.229932	53.24825
	6.230082	53.24808
	6.230314	53.24788
	6.230957	53.2475
	6.231071	53.24747
	6.231503	53.24745
	6.231667	53.24742
	6.231799	53.24735
	6.231904	53.24727
	6.231948	53.2472
	6.231968	53.24707
	6.231966	53.24693
	6.231897	53.24688
	6.231802	53.24675
	6.231661	53.2465
	6.231581	53.24633
	6.231543	53.24621
	6.231509	53.24599
	6.231499	53.24578
	6.231464	53.24562
	6.231359	53.24541
	6.231237	53.24526
	6.231044	53.24507
	6.230832	53.24495
	6.230653	53.24487
	6.230429	53.2448
	6.230234	53.24476
	6.229982	53.24474
	6.229707	53.24475
	6.229353	53.24479
	6.228964	53.24489
	6.228724	53.24498
	6.228402	53.24516
	6.228247	53.24522
	6.228072	53.24525
	6.227743	53.24524
	6.227513	53.24517
	6.227388	53.24511
	6.227262	53.24504
	6.227138	53.24495
	6.227021	53.24484
	6.226924	53.24478
	6.22677	53.24472
	6.226587	53.24468
	6.226424	53.24466
	6.226058	53.24466
	6.225748	53.24468
	6.225485	53.24467
	6.224996	53.24456
	6.224743	53.24447
	6.22463	53.24441
	6.224504	53.24437
	6.224194	53.2442
	6.223909	53.24401
	6.223775	53.24389
	6.223672	53.24377
	6.22352	53.2435
	6.22345	53.24342
	6.223215	53.2433
	6.222631	53.24322
	6.221416	53.24308
	6.22119	53.24307
	6.220504	53.24313
	6.22033	53.24312
	6.22001	53.24306
	6.219688	53.24296
	6.219618	53.24292
	6.219454	53.24287
	6.219261	53.24278
	6.218881	53.24258
	6.218815	53.24253
	6.21877	53.24247
	6.218566	53.2423
	6.218451	53.24223
	6.218232	53.24213
	6.217978	53.24193
	6.219818	53.241
	6.220136	53.24086
	6.220504	53.24068
	6.222823	53.2395
	6.224616	53.2397
	6.224972	53.23859
	6.224477	53.23844
	6.223871	53.23824
	6.22319	53.23804
	6.222017	53.23772
	6.221414	53.23758
	6.220258	53.23735
	6.217228	53.23714
	6.217234	53.23712
	6.216658	53.23706
	6.215543	53.23699
	6.215537	53.236
	6.214791	53.23599
	6.214831	53.23538
	6.214882	53.23521
	6.214977	53.23512
	6.215549	53.23482
	6.21571	53.23472
	6.215949	53.23462
	6.21638	53.23453
	6.216446	53.23453
	6.216551	53.23446
	6.216628	53.23443
	6.216754	53.23434
	6.216719	53.23432
	6.21593	53.23428
	6.215602	53.23425
	6.214429	53.23418
	6.214258	53.23416
	6.214302	53.23407
	6.214423	53.23389
	6.214584	53.23371
	6.214623	53.23369
	6.214783	53.23366
	6.215085	53.23357
	6.215322	53.23353
	6.215436	53.23352
	6.215823	53.23351
	6.216169	53.23354
	6.216429	53.23358
	6.216664	53.2336
	6.216801	53.23357
	6.216874	53.23354
	6.217134	53.23339
	6.217318	53.23325
	6.217527	53.23303
	6.217783	53.2327
	6.217883	53.23253
	6.217956	53.23236
	6.21796	53.23231
	6.217946	53.23217
	6.217885	53.23195
	6.217891	53.23184
	6.218005	53.23171
	6.218123	53.23163
	6.218288	53.2316
	6.218514	53.2316
	6.218783	53.23163
	6.219442	53.23173
	6.219955	53.23188
	6.220263	53.232
	6.220381	53.23203
	6.220472	53.23204
	6.220573	53.23203
	6.220815	53.23196
	6.22115	53.23184
	6.221681	53.23167
	6.222291	53.23142
	6.222668	53.23124
	6.223097	53.23101
	6.223373	53.23084
	6.223465	53.2308
	6.223679	53.23068
	6.224299	53.23032
	6.224538	53.23016
	6.224788	53.22991
	6.224955	53.2297
	6.225005	53.22961
	6.225062	53.22944
	6.225075	53.2293
	6.225002	53.22873
	6.224966	53.22825
	6.224995	53.22804
	6.22504	53.22794
	6.225097	53.22785
	6.225265	53.22765
	6.225467	53.22745
	6.225682	53.22729
	6.226062	53.22708
	6.226168	53.227
	6.226218	53.22692
	6.226237	53.22683
	6.226228	53.22669
	6.226173	53.22642
	6.226056	53.22614
	6.225902	53.22595
	6.22579	53.22586
	6.225425	53.22561
	6.225358	53.22554
	6.225338	53.22547
	6.225351	53.22544
	6.225445	53.22536
	6.225493	53.2253
	6.225772	53.22506
	6.226174	53.22465
	6.226492	53.2244
	6.226771	53.22423
	6.227417	53.22388
	6.228001	53.22362
	6.228096	53.22359
	6.228609	53.22334
	6.229308	53.22292
	6.229513	53.22282
	6.229896	53.22266
	6.229972	53.22264
	6.23011	53.22255
	6.230173	53.22244
	6.230275	53.22197
	6.230289	53.22181
	6.230277	53.22161
	6.230188	53.22118
	6.230161	53.22096
	6.230147	53.22049
	6.23012	53.22033
	6.230072	53.22018
	6.229974	53.22
	6.22972	53.21971
	6.22965	53.21966
	6.229099	53.21938
	6.229052	53.21933
	6.228984	53.21914
	6.229074	53.21884
	6.229189	53.21867
	6.229562	53.21825
	6.229678	53.21816
	6.22977	53.21813
	6.22979	53.21809
	6.229913	53.21799
	6.22999	53.21784
	6.22998	53.21779
	6.229945	53.21771
	6.229807	53.21754
	6.22964	53.21736
	6.229484	53.21722
	6.229057	53.21689
	6.228707	53.21666
	6.228436	53.21652
	6.228111	53.21638
	6.22784	53.21628
	6.227506	53.21621
	6.226835	53.21613
	6.226737	53.2161
	6.226678	53.21607
	6.226583	53.21601
	6.226479	53.21592
	6.226198	53.21564
	6.22597	53.21547
	6.225793	53.21538
	6.22557	53.2153
	6.225419	53.21523
	6.225288	53.21515
	6.225048	53.21486
	6.22475	53.21458
	6.224679	53.21449
	6.224649	53.2144
	6.224671	53.21427
	6.224991	53.21375
	6.225215	53.21349
	6.225282	53.2134
	6.225319	53.21331
	6.225126	53.21304
	6.224918	53.21261
	6.224879	53.21244
	6.22488	53.21214
	6.22484	53.212
	6.224797	53.21194
	6.224619	53.21177
	6.224151	53.21145
	6.223826	53.2112
	6.22367	53.21106
	6.223515	53.21095
	6.223407	53.2109
	6.2233	53.21083
	6.223074	53.21075
	6.222474	53.21063
	6.222285	53.21051
	6.222232	53.2104
	6.222042	53.21013
	6.222013	53.21007
	6.221903	53.20993
	6.221852	53.20981
	6.221848	53.2097
	6.221882	53.20941
	6.221973	53.20918
	6.222115	53.20893
	6.222117	53.20886
	6.222085	53.20879
	6.222006	53.20871
	6.221828	53.20857
	6.221421	53.20831
	6.221108	53.20807
	6.220902	53.20797
	6.220704	53.20789
	6.220197	53.20775
	6.220123	53.20771
	6.219996	53.20759
	6.219891	53.20745
	6.219604	53.207
	6.219581	53.20693
	6.219542	53.20647
	6.219524	53.20641
	6.219474	53.20634
	6.219287	53.20619
	6.219242	53.20613
	6.219058	53.20599
	6.218674	53.2058
	6.218585	53.20578
	6.218189	53.20565
	6.218042	53.20559
	6.217973	53.20555
	6.217826	53.20543
	6.217511	53.20515
	6.217358	53.20505
	6.217154	53.20492
	6.216891	53.20479
	6.216642	53.20464
	6.216386	53.20451
	6.216179	53.20443
	6.215417	53.20425
	6.214655	53.20412
	6.214477	53.20406
	6.214323	53.20399
	6.214191	53.20391
	6.213935	53.20372
	6.213821	53.20361
	6.213448	53.20315
	6.213299	53.20302
	6.212815	53.20277
	6.212654	53.2027
	6.212218	53.20248
	6.212094	53.20241
	6.211861	53.20225
	6.211671	53.20202
	6.211549	53.2018
	6.211499	53.20167
	6.21149	53.20146
	6.211465	53.20132
	6.211393	53.20116
	6.211057	53.20094
	6.210896	53.20086
	6.210771	53.20081
	6.210466	53.20071
	6.210406	53.2007
	6.210249	53.20064
	6.209962	53.20047
	6.209897	53.20042
	6.209813	53.20031
	6.209703	53.20009
	6.209635	53.20001
	6.209531	53.19993
	6.209426	53.19988
	6.209307	53.19984
	6.208294	53.19967
	6.207817	53.19968
	6.20762	53.19971
	6.20724	53.19982
	6.207119	53.19984
	6.207066	53.19986
	6.206636	53.19993
	6.206409	53.19995
	6.205525	53.19995
	6.205396	53.19994
	6.20507	53.1999
	6.20426	53.19977
	6.204115	53.19976
	6.203944	53.1997
	6.203478	53.19942
	6.203259	53.19933
	6.203156	53.19931
	6.202806	53.19927
	6.202619	53.19923
	6.202509	53.19919
	6.202333	53.19908
	6.20211	53.1989
	6.201922	53.19881
	6.201435	53.19868
	6.201073	53.1986
	6.200388	53.19847
	6.200071	53.19847
	6.199835	53.19845
	6.199622	53.19836
	6.199587	53.19832
	6.199545	53.19823
	6.19956	53.19808
	6.199633	53.19787
	6.199715	53.19769
	6.199939	53.19737
	6.199979	53.19729
	6.200006	53.19722
	6.200012	53.19703
	6.199975	53.19691
	6.19984	53.1967
	6.199623	53.19646
	6.19934	53.19624
	6.199291	53.19616
	6.199295	53.19606
	6.199442	53.19585
	6.199536	53.19559
	6.199643	53.19547
	6.19986	53.19529
	6.19991	53.1952
	6.199919	53.19512
	6.199886	53.1948
	6.199878	53.19454
	6.199792	53.19448
	6.199575	53.19429
	6.1995	53.1942
	6.199469	53.19412
	6.199461	53.19402
	6.199483	53.19365
	6.199432	53.19325
	6.199231	53.19311
	6.199126	53.19308
	6.198883	53.19308
	6.1987	53.19304
	6.198671	53.19302
	6.198629	53.19299
	6.198573	53.19292
	6.198381	53.19263
	6.198109	53.19233
	6.197883	53.19214
	6.197755	53.19207
	6.197506	53.19199
	6.19733	53.19199
	6.197037	53.19202
	6.196995	53.19201
	6.196861	53.19201
	6.196749	53.19199
	6.196588	53.19194
	6.196388	53.19186
	6.196133	53.19178
	6.195973	53.19175
	6.19559	53.19165
	6.195336	53.19154
	6.19524	53.19147
	6.195205	53.19143
	6.195144	53.19128
	6.195116	53.19112
	6.195063	53.19103
	6.194989	53.19098
	6.194683	53.19087
	6.194613	53.19083
	6.19447	53.19072
	6.194376	53.19063
	6.194252	53.19045
	6.194121	53.19014
	6.194045	53.18983
	6.193981	53.18974
	6.19381	53.18961
	6.193344	53.18941
	6.193162	53.18932
	6.19295	53.18917
	6.192855	53.18907
	6.192694	53.18884
	6.192478	53.18832
	6.192227	53.18788
	6.19211	53.18759
	6.191942	53.18735
	6.19189	53.18725
	6.191846	53.18721
	6.191465	53.18661
	6.191227	53.1864
	6.191149	53.1863
	6.190835	53.18568
	6.190548	53.18518
	6.190378	53.1849
	6.189936	53.18426
	6.189913	53.18419
	6.189802	53.18404
	6.1897	53.18386
	6.189602	53.18381
	6.189446	53.1837
	6.189278	53.18356
	6.189074	53.18334
	6.189065	53.18329
	6.188882	53.18314
	6.188568	53.18293
	6.188428	53.18287
	6.18832	53.18281
	6.188134	53.18275
	6.188009	53.18243
	6.18788	53.18216
	6.187532	53.18159
	6.187568	53.18158
	6.187007	53.18069
	6.186973	53.1807
	6.186677	53.18024
	6.184635	53.177
	6.184491	53.17684
	6.184603	53.17668
	6.184708	53.17665
	6.184556	53.17649
	6.184526	53.17649
	6.184157	53.17637
	6.181543	53.17088
	6.181375	53.17056
	6.181224	53.17035
	6.18115	53.17027
	6.180936	53.17014
	6.180825	53.17009
	6.177976	53.16812
	6.177837	53.168
	6.177781	53.16793
	6.17728	53.16685
	6.177193	53.16654
	6.17718	53.1664
	6.177174	53.16534
	6.177092	53.16449
	6.176437	53.15489
	6.176702	53.15486
	6.177311	53.15464
	6.177361	53.15461
	6.177965	53.1541
	6.177992	53.15407
	6.178348	53.15338
	6.178426	53.15269
	6.178164	53.15179
	6.177629	53.15117
	6.177594	53.15114
	6.177052	53.15084
	6.176993	53.15082
	6.176512	53.15071
	6.176145	53.1507
	6.175865	53.14632
	6.175587	53.14321
	6.175517	53.1421
	6.175235	53.1359
	6.175282	53.1359
	6.175317	53.13548
	6.175419	53.13532
	6.175702	53.13506
	6.17621	53.13473
	6.176486	53.13462
	6.176801	53.13455
	6.177891	53.13443
	6.178286	53.13435
	6.178565	53.13425
	6.178811	53.13414
	6.179271	53.13386
	6.179773	53.13352
	6.179798	53.13354
	6.183146	53.13137
	6.183534	53.13222
	6.184772	53.13269
	6.184803	53.13271
	6.185119	53.13282
	6.185406	53.1329
	6.185621	53.13295
	6.186137	53.133
	6.186474	53.13299
	6.186708	53.13296
	6.187129	53.13287
	6.187319	53.13281
	6.187722	53.13262
	6.187867	53.13253
	6.188281	53.13219
	6.188593	53.13182
	6.188657	53.13172
	6.188777	53.13137
	6.189054	53.13121
	6.189236	53.13107
	6.189634	53.13066
	6.18976	53.13048
	6.190087	53.12977
	6.190117	53.12964
	6.190169	53.12911
	6.190163	53.12896
	6.190041	53.12834
	6.189995	53.12821
	6.189599	53.12756
	6.189447	53.12739
	6.189197	53.12716
	6.189007	53.12701
	6.188731	53.12683
	6.188506	53.12671
	6.189937	53.12575
	6.189568	53.12554
	6.195794	53.12151
	6.199375	53.11917
	6.204786	53.11566
	6.205048	53.11548
	6.212785	53.11524
	6.212819	53.11523
	6.214857	53.11517
	6.215478	53.11514
	6.217083	53.1151
	6.222562	53.11492
	6.222607	53.11491
	6.222679	53.11491
	6.224939	53.11447
	6.226982	53.11414
	6.227144	53.11412
	6.227496	53.1141
	6.227485	53.11408
	6.228901	53.11398
	6.229577	53.11391
	6.230689	53.11382
	6.233338	53.11358
	6.234547	53.11346
	6.235857	53.11341
	6.236355	53.11338
	6.236605	53.11339
	6.240602	53.11339
	6.24242	53.11344
	6.243597	53.11346
	6.243615	53.11351
	6.244717	53.11356
	6.245014	53.11359
	6.248014	53.11376
	6.249014	53.11379
	6.251265	53.11394
	6.251559	53.11395
	6.252697	53.11403
	6.253607	53.11408
	6.254278	53.11413
	6.255021	53.11416
	6.257382	53.1143
	6.258372	53.11437
	6.25954	53.11437
	6.259842	53.11435
	6.260407	53.11435
	6.260458	53.11436
	6.260449	53.11435
	6.261092	53.11434
	6.261685	53.11429
	6.262651	53.11412
	6.262667	53.11408
	6.263612	53.11379
	6.263626	53.11374
	6.264072	53.1136
	6.26433	53.11353
	6.264645	53.11345
	6.265175	53.11335
	6.266485	53.11304
	6.266701	53.113
	6.267797	53.11274
	6.269147	53.11244
	6.271073	53.11199
	6.27182	53.11181
	6.27203	53.11175
	6.272969	53.11153
	6.273863	53.11127
	6.274139	53.11116
	6.274664	53.1109
	6.274722	53.11088
	6.277578	53.10946
	6.278382	53.10907
	6.278518	53.10902
	6.279858	53.10833
	6.280881	53.10778
	6.28115	53.1076
	6.28228	53.10716
	6.282839	53.10697
	6.28305	53.10686
	6.285919	53.1044
	6.286766	53.10369
	6.286851	53.1036
	6.288688	53.10208
	6.288751	53.10207
	6.290566	53.09983
	6.291917	53.09954
	6.293207	53.0992
	6.294591	53.09888
	6.294637	53.09886
	6.295797	53.09859
	6.295872	53.09858
	6.296427	53.09844
	6.297897	53.0981
	6.297951	53.09808
	6.303759	53.09673
	6.303853	53.0967
	6.304306	53.0966
	6.305138	53.09639
	6.309118	53.09546
	6.311998	53.0948
	6.315157	53.09405
	6.313858	53.09234
	6.312768	53.09094
	6.311531	53.0892
	6.309804	53.08709
	6.305274	53.08119
	6.319457	53.07806
	6.321372	53.07763
	6.322997	53.07728
	6.332055	53.07528
	6.34762	53.07183
	6.34871	53.0716
	6.35079	53.07113
	6.352187	53.07083
	6.354926	53.07021
	6.356903	53.06978
	6.358222	53.06948
	6.363861	53.06825
	6.367811	53.06736
	6.367505	53.06558
	6.366689	53.06129
	6.36671	53.06122
	6.366678	53.06121
	6.366415	53.0599
	6.366268	53.05908
	6.36618	53.05872
	6.366082	53.05822
	6.36491	53.0519
	6.364179	53.04655
	6.362799	53.03599
	6.362521	53.03397
	6.363442	53.03307
	6.372533	53.0244
	6.37405	53.02298
	6.379503	53.01776
	6.383938	53.01355
	6.384392	53.01307
	6.384725	53.01269
	6.389381	53.00824
	6.391259	53.00645
	6.392464	53.00537
	6.393824	53.00412
	6.395897	53.00215
	6.401904	52.99641
	6.410167	52.98848
	6.414897	52.98399
	6.427615	52.97182
	6.427551	52.97174
	6.410891	52.95276
	6.410616	52.95244
	6.410454	52.9522
	6.404174	52.9451
	6.393436	52.93284
	6.36943	52.92216
	6.35928	52.91762
	6.353297	52.91496
	6.353247	52.91493
	6.353048	52.91486
	6.352531	52.91462
	6.33446	52.90657
	6.333281	52.90636
	6.302985	52.92497
	6.283166	52.92615
	6.282343	52.92618
	6.278473	52.92641
	6.277973	52.92643
	6.275122	52.9266
	6.274631	52.92662
	6.274057	52.92666
	6.267524	52.92703
	6.261675	52.92734
	6.26012	52.92744
	6.25924	52.92748
	6.256593	52.92764
	6.253664	52.92636
	6.252425	52.92583
	6.247553	52.92369
	6.245118	52.92088
	6.24483	52.91959
	6.243662	52.91899
	6.242527	52.91843
	6.242385	52.91837
	6.24011	52.91727
	6.232291	52.91344
	6.226253	52.90803
	6.218859	52.90149
	6.213793	52.89696
	6.209865	52.89342
	6.209616	52.89321
	6.209141	52.89277
	6.209	52.89002
	6.208183	52.88928
	6.207893	52.88905
	6.207654	52.88889
	6.207344	52.88871
	6.207021	52.88856
	6.20575	52.8881
	6.20445	52.88758
	6.203828	52.88737
	6.203123	52.88708
	6.202789	52.88698
	6.202087	52.88691
	6.201957	52.88692
	6.20073	52.88835
	6.198495	52.88746
	6.198163	52.88734
	6.19799	52.88727
	6.198019	52.88725
	6.197324	52.88698
	6.191804	52.88492
	6.189432	52.884
	6.176962	52.87923
	6.172575	52.87754
	6.165993	52.87503
	6.155929	52.87047
	6.155073	52.87007
	6.15441	52.86978
	6.152754	52.86902
	6.150395	52.86797
	6.146706	52.86628
	6.1446	52.86533
	6.143958	52.86503
	6.143874	52.865
	6.141166	52.86378
	6.13947	52.863
	6.137823	52.86226
	6.137797	52.86224
	6.136704	52.86174
	6.135394	52.86116
	6.132854	52.86
	6.131971	52.85962
	6.128821	52.85818
	6.126275	52.85704
	6.124293	52.85613
	6.124096	52.85605
	6.12371	52.85586
	6.122976	52.85553
	6.122451	52.85528
	6.121251	52.85474
	6.11982	52.85422
	6.119762	52.85419
	6.118916	52.85388
	6.118896	52.85388
	6.11791	52.85351
	6.117528	52.85338
	6.117249	52.85327
	6.114987	52.85246
	6.113506	52.85191
	6.112755	52.85165
	6.112671	52.85161
	6.110112	52.85068
	6.109628	52.85049
	6.108818	52.8502
	6.108395	52.85006
	6.107499	52.84972
	6.106252	52.84927
	6.105412	52.84898
	6.105027	52.84883
	6.104114	52.8485
	6.100463	52.84719
	6.099992	52.84703
	6.099855	52.84697
	6.099772	52.84695
	6.099297	52.84678
	6.099105	52.8467
	6.097489	52.84613
	6.096772	52.84586
	6.094487	52.84505
	6.094007	52.84487
	6.092376	52.84429
	6.09237	52.84428
	6.092358	52.84431
	6.091915	52.84415
	6.091511	52.84402
	6.091351	52.84399
	6.091272	52.84396
	6.090888	52.84388
	6.090444	52.84377
	6.088583	52.84338
	6.087562	52.84315
	6.087315	52.84301
	6.084798	52.84124
	6.083907	52.84049
	6.083767	52.84039
	6.083742	52.84036
	6.08373	52.8403
	6.08377	52.83997
	6.083772	52.83983
	6.08327	52.83947
	6.083051	52.83934
	6.082843	52.83924
	6.082608	52.83915
	6.082346	52.83907
	6.081482	52.83885
	6.081	52.83873
	6.080779	52.83873
	6.080751	52.83874
	6.079942	52.83874
	6.079032	52.83872
	6.077572	52.83871
	6.077253	52.8387
	6.077181	52.8387
	6.077155	52.83872
	6.077032	52.83872
	6.07549	52.8387
	6.074966	52.83873
	6.074957	52.83874
	6.074198	52.83879
	6.073762	52.83881
	6.072618	52.83892
	6.069662	52.83925
	6.068124	52.83941
	6.063984	52.83934
	6.06224	52.8393
	6.061839	52.8393
	6.061776	52.83929
	6.0615	52.8393
	6.058692	52.83858
	6.058611	52.83851
	6.058562	52.83849
	6.058503	52.83847
	6.058384	52.83845
	6.058136	52.83837
	6.056447	52.83796
	6.056355	52.83793
	6.056054	52.83787
	6.055775	52.8378
	6.055714	52.8378
	6.055694	52.83779
	6.054701	52.83766
	6.054437	52.83761
	6.054382	52.83761
	6.054357	52.8376
	6.053874	52.83755
	6.053759	52.83753
	6.053652	52.83753
	6.053295	52.83743
	6.052786	52.83734
	6.052607	52.83734
	6.053287	52.83538
	6.053684	52.83444
	6.054056	52.8338
	6.054351	52.83323
	6.055024	52.83153
	6.055007	52.83146
	6.054962	52.83139
	6.055084	52.83115
	6.055266	52.83096
	6.055593	52.8305
	6.055753	52.83033
	6.056556	52.82955
	6.0569	52.82919
	6.058433	52.82766
	6.059066	52.82705
	6.059951	52.82612
	6.059512	52.82597
	6.055517	52.82475
	6.054303	52.82444
	6.053091	52.82417
	6.052909	52.82411
	6.052747	52.82403
	6.05252	52.82389
	6.051432	52.82329
	6.050849	52.823
	6.05016	52.82261
	6.049932	52.82245
	6.049738	52.82228
	6.049086	52.82189
	6.048536	52.82154
	6.048209	52.82136
	6.047733	52.82101
	6.047184	52.82064
	6.046988	52.82054
	6.046207	52.82024
	6.04544	52.82003
	6.044723	52.81979
	6.044303	52.81971
	6.043508	52.81961
	6.042981	52.81946
	6.042712	52.81936
	6.041808	52.81908
	6.041095	52.81881
	6.040739	52.81869
	6.040713	52.81867
	6.039896	52.81832
	6.039122	52.81803
	6.037762	52.81756
	6.036306	52.81709
	6.034741	52.81655
	6.033929	52.8162
	6.032658	52.81562
	6.031168	52.81499
	6.030963	52.81522
	6.030055	52.81643
	6.029591	52.8171
	6.028441	52.81861
	6.028086	52.81914
	6.026903	52.82065
	6.026617	52.82108
	6.026269	52.82145
	6.025987	52.82169
	6.025541	52.822
	6.024559	52.82254
	6.023853	52.82244
	6.0229	52.82236
	6.022094	52.82228
	6.020281	52.82215
	6.020112	52.82212
	6.017648	52.82188
	6.017321	52.82183
	6.013439	52.82115
	6.013373	52.82113
	6.012832	52.82103
	6.010462	52.82062
	6.008834	52.8203
	6.007484	52.82005
	6.007092	52.81993
	6.007063	52.81993
	6.00693	52.81989
	6.006475	52.81971
	6.006331	52.81967
	6.005651	52.81932
	6.005331	52.81918
	6.000853	52.81752
	6.000851	52.81751
	6.000657	52.81745
	6.000654	52.81744
	5.999756	52.81716
	5.999466	52.81705
	5.999354	52.81702
	5.999079	52.81691
	5.998543	52.81675
	5.998235	52.8167
	5.997934	52.81667
	5.997403	52.81668
	5.997279	52.81666
	5.997034	52.81669
	5.996749	52.81665
	5.99658	52.8166
	5.996508	52.81656
	5.996461	52.81676
	5.996336	52.81692
	5.996109	52.81715
	5.996058	52.81723
	5.995971	52.81732
	5.995801	52.81746
	5.995465	52.81778
	5.994904	52.81836
	5.99529	52.81844
	5.994695	52.82121
	5.994124	52.82158
	5.993	52.82222
	5.992825	52.82233
	5.992238	52.8228
	5.991701	52.82319
	5.991287	52.82342
	5.990658	52.82366
	5.990211	52.82378
	5.9896	52.82389
	5.989485	52.82393
	5.989357	52.82349
	5.987542	52.82363
	5.987401	52.82181
	5.986889	52.82173
	5.98688	52.82175
	5.986479	52.82169
	5.986148	52.82233
	5.985829	52.82287
	5.98503	52.8244
	5.984247	52.82575
	5.984181	52.82581
	5.984055	52.82599
	5.983834	52.82626
	5.983655	52.82655
	5.983341	52.82698
	5.982933	52.82746
	5.982648	52.82784
	5.982369	52.82816
	5.9821	52.82854
	5.981711	52.82903
	5.981664	52.82911
	5.981664	52.82916
	5.981777	52.82928
	5.98132	52.82966
	5.981238	52.82977
	5.980647	52.83028
	5.980448	52.83048
	5.980056	52.83084
	5.979781	52.83108
	5.979458	52.83131
	5.979341	52.83146
	5.978864	52.83192
	5.978433	52.83229
	5.97821	52.83251
	5.977848	52.83281
	5.977502	52.83314
	5.977112	52.83353
	5.976663	52.83421
	5.976485	52.83433
	5.976175	52.83475
	5.975955	52.83514
	5.97583	52.83532
	5.975556	52.83577
	5.975289	52.83631
	5.9743	52.83803
	5.97372	52.83912
	5.973004	52.84061
	5.972975	52.84065
	5.972871	52.84071
	5.972897	52.84077
	5.973006	52.84092
	5.973008	52.84096
	5.972922	52.84107
	5.972438	52.84192
	5.973128	52.84247
	5.969976	52.84238
	5.963925	52.84104
	5.963379	52.84094
	5.962405	52.84078
	5.961199	52.84056
	5.960839	52.84048
	5.960805	52.84048
	5.960039	52.84027
	5.959398	52.84005
	5.958984	52.83989
	5.958731	52.83977
	5.958099	52.8394
	5.958098	52.83939
	5.957519	52.839
	5.956691	52.83838
	5.956499	52.83822
	5.956085	52.83782
	5.955908	52.83763
	5.955825	52.83751
	5.955756	52.83735
	5.955727	52.83724
	5.95572	52.83708
	5.955825	52.83668
	5.956039	52.83626
	5.956705	52.83504
	5.956781	52.83484
	5.956835	52.83464
	5.956853	52.83444
	5.956852	52.83438
	5.956809	52.83431
	5.956817	52.83423
	5.956791	52.83415
	5.95661	52.83376
	5.95647	52.83354
	5.956301	52.83337
	5.956257	52.83335
	5.955784	52.83323
	5.955513	52.8332
	5.955407	52.8332
	5.955181	52.83322
	5.954853	52.83329
	5.954619	52.83338
	5.954433	52.83349
	5.954341	52.83356
	5.953792	52.83406
	5.953382	52.83441
	5.95322	52.83451
	5.953099	52.83457
	5.952611	52.83477
	5.952299	52.83488
	5.951876	52.83501
	5.951185	52.83525
	5.950372	52.83557
	5.949697	52.83586
	5.94934	52.83599
	5.948606	52.83631
	5.948343	52.83644
	5.947385	52.837
	5.9472	52.8371
	5.946902	52.83724
	5.946627	52.83734
	5.946247	52.83742
	5.946118	52.83744
	5.945727	52.83746
	5.945449	52.83743
	5.945131	52.83738
	5.944543	52.83718
	5.944368	52.83707
	5.943813	52.83676
	5.943575	52.83664
	5.943009	52.83637
	5.942622	52.83623
	5.941673	52.83593
	5.940431	52.83567
	5.939718	52.83555
	5.939074	52.83547
	5.937656	52.83535
	5.937153	52.83534
	5.935267	52.83549
	5.935164	52.83549
	5.932605	52.83543
	5.931587	52.83533
	5.931328	52.83529
	5.930158	52.83501
	5.929336	52.8347
	5.928583	52.83436
	5.927164	52.83387
	5.927079	52.83383
	5.926914	52.83369
	5.926795	52.83355
	5.926747	52.83347
	5.926728	52.8334
	5.926753	52.83319
	5.926871	52.83304
	5.926965	52.83297
	5.927097	52.8329
	5.927218	52.83286
	5.927633	52.8328
	5.927646	52.83279
	5.928302	52.83275
	5.929168	52.83273
	5.929621	52.8327
	5.929755	52.83268
	5.929964	52.83263
	5.930158	52.83256
	5.930654	52.83225
	5.930689	52.83194
	5.930621	52.83178
	5.930394	52.83149
	5.93023	52.8314
	5.930053	52.83133
	5.92999	52.83132
	5.929698	52.83128
	5.92945	52.83128
	5.929416	52.83127
	5.929151	52.83129
	5.92885	52.83132
	5.926983	52.83158
	5.926858	52.83159
	5.926387	52.83159
	5.925772	52.83156
	5.925392	52.83153
	5.924785	52.83146
	5.924125	52.83137
	5.923619	52.83126
	5.923323	52.83116
	5.923183	52.8311
	5.92309	52.83103
	5.922841	52.83079
	5.922784	52.8307
	5.922658	52.83039
	5.922638	52.83021
	5.922653	52.83008
	5.922707	52.82992
	5.922752	52.82985
	5.922949	52.82962
	5.92307	52.82953
	5.923192	52.82946
	5.923383	52.82938
	5.923982	52.82918
	5.92483	52.82898
	5.92495	52.82897
	5.925544	52.82886
	5.925804	52.82878
	5.926051	52.82869
	5.926215	52.82859
	5.926311	52.82851
	5.926376	52.82843
	5.926407	52.82835
	5.926419	52.82826
	5.92641	52.82818
	5.926374	52.82811
	5.92631	52.82804
	5.926207	52.82798
	5.925952	52.82793
	5.925885	52.82794
	5.925744	52.82794
	5.925612	52.82796
	5.925534	52.82796
	5.925425	52.82798
	5.925304	52.82798
	5.925291	52.82799
	5.92511	52.828
	5.923974	52.82802
	5.923538	52.82793
	5.923507	52.82791
	5.923322	52.82785
	5.923227	52.8278
	5.923137	52.82773
	5.922997	52.8276
	5.922869	52.82738
	5.922839	52.82722
	5.922865	52.82688
	5.923029	52.82646
	5.923653	52.82522
	5.924141	52.82442
	5.92434	52.82399
	5.924351	52.8239
	5.924339	52.8237
	5.924079	52.82349
	5.924001	52.82344
	5.923808	52.82336
	5.923456	52.82325
	5.923023	52.82314
	5.921839	52.82288
	5.921631	52.82282
	5.920994	52.82259
	5.919884	52.82215
	5.919385	52.82194
	5.918596	52.82158
	5.918556	52.82157
	5.918461	52.82151
	5.917803	52.82117
	5.916321	52.82028
	5.914998	52.81946
	5.914594	52.8192
	5.914382	52.81904
	5.913847	52.81861
	5.913559	52.81833
	5.913116	52.81779
	5.912884	52.81738
	5.91255	52.81685
	5.912167	52.81633
	5.911855	52.816
	5.911714	52.81581
	5.911383	52.81547
	5.911017	52.81521
	5.910374	52.81471
	5.90996	52.81441
	5.909661	52.81422
	5.90937	52.81406
	5.908876	52.81383
	5.908584	52.81371
	5.907987	52.8135
	5.907465	52.81334
	5.906174	52.81298
	5.905673	52.81287
	5.904886	52.81272
	5.904625	52.81268
	5.903308	52.8125
	5.902729	52.81247
	5.902297	52.81242
	5.901723	52.81229
	5.901125	52.81207
	5.900657	52.81182
	5.900271	52.81158
	5.900019	52.81136
	5.899777	52.81111
	5.899411	52.81053
	5.899308	52.81032
	5.899069	52.8095
	5.898767	52.80873
	5.898637	52.80847
	5.898298	52.80806
	5.897882	52.8078
	5.897361	52.80763
	5.89696	52.80754
	5.895922	52.80734
	5.89564	52.80727
	5.895337	52.80718
	5.894815	52.80696
	5.894477	52.8068
	5.894116	52.8066
	5.893429	52.80628
	5.892782	52.80605
	5.891978	52.80587
	5.88996	52.80556
	5.889603	52.80552
	5.88857	52.80533
	5.887563	52.80507
	5.887078	52.80497
	5.887019	52.80495
	5.886509	52.80487
	5.885914	52.80473
	5.884314	52.80442
	5.88353	52.80423
	5.88311	52.80411
	5.882578	52.80392
	5.882399	52.80385
	5.88198	52.80366
	5.881716	52.80349
	5.881496	52.8033
	5.880853	52.8026
	5.880616	52.80226
	5.880288	52.8019
	5.880075	52.80162
	5.879747	52.80131
	5.879581	52.8012
	5.87926	52.80103
	5.879008	52.80092
	5.878763	52.80085
	5.878379	52.80078
	5.878266	52.80075
	5.878055	52.80073
	5.877756	52.80072
	5.87708	52.80075
	5.876877	52.80079
	5.876522	52.80081
	5.876292	52.80085
	5.876148	52.80092
	5.876031	52.80094
	5.875428	52.80111
	5.874898	52.80129
	5.873893	52.80167
	5.873557	52.80182
	5.872942	52.80201
	5.872374	52.80213
	5.87206	52.80218
	5.871822	52.8022
	5.871262	52.80228
	5.870454	52.80237
	5.870022	52.80243
	5.868934	52.80265
	5.86868	52.80273
	5.868499	52.8028
	5.868028	52.80303
	5.867951	52.80305
	5.86774	52.80314
	5.867351	52.80345
	5.86664	52.80411
	5.866199	52.80443
	5.865917	52.80456
	5.865636	52.80465
	5.865404	52.80469
	5.865154	52.80472
	5.864934	52.80472
	5.864087	52.80464
	5.863076	52.80448
	5.862683	52.80444
	5.862341	52.80438
	5.861805	52.80433
	5.861613	52.80433
	5.859936	52.80448
	5.85974	52.80451
	5.859388	52.80463
	5.859118	52.80477
	5.858818	52.80499
	5.858715	52.80509
	5.85858	52.80527
	5.858457	52.80548
	5.858266	52.80586
	5.858157	52.80602
	5.857999	52.80631
	5.857478	52.80701
	5.857247	52.80716
	5.857118	52.80721
	5.857027	52.80723
	5.856841	52.80723
	5.856583	52.80714
	5.856524	52.80709
	5.856271	52.80681
	5.856153	52.80666
	5.855947	52.80636
	5.855791	52.8061
	5.855659	52.80593
	5.855438	52.80572
	5.85533	52.80566
	5.854992	52.80554
	5.854667	52.80551
	5.854429	52.80551
	5.854064	52.80555
	5.853431	52.80566
	5.852087	52.80599
	5.851313	52.80614
	5.850843	52.80619
	5.850533	52.80619
	5.849794	52.80615
	5.849131	52.80607
	5.848786	52.80602
	5.847951	52.80585
	5.847369	52.80576
	5.847235	52.80573
	5.846181	52.80559
	5.84567	52.80556
	5.845622	52.80555
	5.844783	52.80551
	5.844166	52.80545
	5.843991	52.80539
	5.843803	52.80529
	5.843724	52.80516
	5.843594	52.80503
	5.842202	52.80758
	5.841824	52.80758
	5.841722	52.80756
	5.840619	52.80716
	5.840335	52.80702
	5.839593	52.80642
	5.839417	52.80631
	5.83898	52.80611
	5.838751	52.80603
	5.8381	52.80587
	5.83733	52.80577
	5.836836	52.80575
	5.83657	52.80577
	5.836474	52.80579
	5.836189	52.8059
	5.836102	52.80595
	5.835976	52.80606
	5.835932	52.80611
	5.835904	52.80618
	5.835899	52.80625
	5.835928	52.80637
	5.835972	52.80649
	5.836085	52.80666
	5.836294	52.80692
	5.836696	52.80734
	5.837289	52.80788
	5.837376	52.80801
	5.837395	52.80808
	5.837365	52.80826
	5.837339	52.80831
	5.83713	52.80853
	5.836809	52.80877
	5.836312	52.80904
	5.835624	52.80939
	5.835082	52.80973
	5.834993	52.8098
	5.83488	52.80992
	5.834809	52.81005
	5.834663	52.81048
	5.83448	52.81078
	5.834022	52.81132
	5.833629	52.81166
	5.833411	52.81176
	5.832955	52.81193
	5.832681	52.81201
	5.831986	52.81217
	5.830979	52.81249
	5.830486	52.81269
	5.829941	52.81297
	5.829405	52.81321
	5.828961	52.81337
	5.828721	52.81343
	5.828681	52.81343
	5.828594	52.81345
	5.828325	52.81347
	5.828183	52.81347
	5.827883	52.81345
	5.826626	52.81328
	5.82634	52.81325
	5.825834	52.8132
	5.824988	52.81316
	5.824608	52.81319
	5.824462	52.81321
	5.824352	52.81323
	5.824184	52.81328
	5.82381	52.81349
	5.823286	52.81391
	5.823125	52.81409
	5.82281	52.8145
	5.822671	52.81472
	5.822503	52.81495
	5.822295	52.81517
	5.822211	52.81523
	5.822009	52.81534
	5.821399	52.81555
	5.82074	52.81575
	5.820562	52.81582
	5.820398	52.81589
	5.820143	52.81605
	5.819899	52.8163
	5.819843	52.81641
	5.819801	52.81661
	5.819913	52.81698
	5.819744	52.81728
	5.819374	52.81723
	5.818999	52.81713
	5.818742	52.81708
	5.818332	52.81698
	5.818301	52.81698
	5.818122	52.81693
	5.817383	52.81677
	5.817113	52.8167
	5.815452	52.81605
	5.811994	52.81466
	5.811634	52.81453
	5.81066	52.81415
	5.809921	52.81384
	5.808212	52.81291
	5.808037	52.81284
	5.803948	52.81079
	5.797814	52.80778
	5.797377	52.80758
	5.796844	52.80731
	5.795611	52.80673
	5.795405	52.80662
	5.795177	52.80652
	5.789807	52.80369
	5.788237	52.80636
	5.787876	52.80723
	5.786709	52.81128
	5.784382	52.81748
	5.776623	52.82237
	5.766694	52.82858
	5.760445	52.83247
	5.748807	52.83968
	5.742389	52.84084
	5.730143	52.84302
	5.724682	52.84398
	5.725005	52.84316
	5.725013	52.8431
	5.724962	52.84252
	5.726913	52.83771
	5.727476	52.83641
	5.727591	52.83627
	5.727658	52.83607
	5.727971	52.83557
	5.728328	52.8351
	5.728898	52.83445
	5.729093	52.83442
	5.729275	52.83423
	5.729231	52.83421
	5.729194	52.83415
	5.729193	52.83412
	5.729574	52.83373
	5.728663	52.8334
	5.72799	52.83388
	5.727467	52.8342
	5.727038	52.83444
	5.726496	52.83471
	5.725615	52.83511
	5.724942	52.83538
	5.724153	52.83567
	5.723802	52.83578
	5.723328	52.83592
	5.721809	52.83627
	5.720293	52.83656
	5.71889	52.83681
	5.717767	52.83703
	5.716274	52.83725
	5.715935	52.83727
	5.714722	52.83738
	5.714839	52.83789
	5.71322	52.83819
	5.713194	52.83809
	5.713197	52.83807
	5.713238	52.83804
	5.713223	52.83801
	5.712312	52.83814
	5.712255	52.83814
	5.712244	52.83815
	5.712103	52.83815
	5.712091	52.83814
	5.711965	52.83813
	5.711839	52.83809
	5.711774	52.83805
	5.711757	52.83805
	5.711657	52.83797
	5.711594	52.83787
	5.711583	52.83775
	5.711623	52.83765
	5.711698	52.83757
	5.711833	52.83749
	5.711957	52.83745
	5.71245	52.83738
	5.712119	52.83626
	5.71207	52.83614
	5.711973	52.83597
	5.711747	52.8357
	5.711442	52.83544
	5.711258	52.83532
	5.710776	52.83509
	5.710584	52.83502
	5.710354	52.83495
	5.709911	52.83486
	5.709636	52.83482
	5.704282	52.83443
	5.703959	52.83608
	5.703737	52.83632
	5.7033	52.83639
	5.702904	52.83626
	5.702781	52.83599
	5.703103	52.83435
	5.660296	52.83125
	5.631353	52.80305
	5.516903	52.7859
	5.480214	52.78038
	5.430016	52.7728
	5.37726	52.76481
	5.337842	52.79596
	5.280349	52.84129
	5.238682	52.87406
	5.203353	52.93692
	5.169135	52.99761
	5.164249	53.001
	5.129606	53.04462
	5.10819	53.07153
	5.083492	53.10252
	5.050953	53.14327
	5.012922	53.15492
	5.00595	53.15706
	4.985243	53.1634
	4.983509	53.16393
	4.961411	53.17069
	4.920219	53.18326
	4.917956	53.18396
	4.911498	53.18593
	4.86345	53.20057
	4.833404	53.20971
	4.818376	53.21427
END
END
