North Korea
1
	124.0914	39.61178
	124.1666	39.80968
	124.1728	39.82913
	124.1839	39.83597
	124.1904	39.84119
	124.1964	39.84695
	124.2042	39.85321
	124.2098	39.85746
	124.214	39.86246
	124.2153	39.87
	124.2148	39.87687
	124.2137	39.88625
	124.215	39.8902
	124.2171	39.89675
	124.2232	39.90815
	124.2274	39.91914
	124.2374	39.9267
	124.2484	39.9299
	124.2587	39.93148
	124.2665	39.93259
	124.2742	39.93141
	124.2794	39.93072
	124.281	39.93046
	124.2816	39.93288
	124.2835	39.93377
	124.2843	39.93467
	124.2846	39.93752
	124.287	39.93945
	124.2905	39.9421
	124.2927	39.94316
	124.2933	39.94411
	124.2912	39.94544
	124.2843	39.94608
	124.2831	39.9484
	124.2839	39.95277
	124.2846	39.95823
	124.2834	39.96105
	124.2868	39.96358
	124.2913	39.96438
	124.2926	39.96785
	124.2966	39.96859
	124.2975	39.9678
	124.3038	39.96688
	124.3098	39.96758
	124.3179	39.97175
	124.3232	39.97649
	124.3227	39.97717
	124.3225	39.97801
	124.3296	39.98203
	124.3382	39.98543
	124.3436	39.98813
	124.3462	39.9888
	124.3443	39.98559
	124.3442	39.98101
	124.3441	39.97758
	124.3447	39.9735
	124.3518	39.97258
	124.3542	39.97663
	124.3559	39.97902
	124.3606	39.99191
	124.3639	39.99865
	124.366	40.00198
	124.3682	40.00621
	124.3696	40.01005
	124.3718	40.01677
	124.3714	40.02281
	124.3701	40.03139
	124.369	40.03545
	124.3607	40.03917
	124.3491	40.04349
	124.3361	40.04782
	124.3341	40.05165
	124.3345	40.05658
	124.3396	40.06635
	124.3473	40.0771
	124.3569	40.08423
	124.365	40.09102
	124.3675	40.09512
	124.3698	40.09931
	124.3727	40.10133
	124.3923	40.11511
	124.3923	40.11514
	124.3924	40.11521
	124.3944	40.1175
	124.3965	40.1202
	124.3989	40.12698
	124.4008	40.13081
	124.4032	40.13325
	124.4056	40.13564
	124.4118	40.139
	124.4238	40.13914
	124.4332	40.14117
	124.437	40.14311
	124.4399	40.14619
	124.4404	40.14973
	124.4426	40.15358
	124.4526	40.16054
	124.457	40.16705
	124.4572	40.16941
	124.4579	40.17144
	124.4594	40.17286
	124.4605	40.1748
	124.4691	40.17552
	124.472	40.17515
	124.4782	40.17363
	124.4812	40.17228
	124.4853	40.17556
	124.4874	40.18239
	124.4882	40.18635
	124.4895	40.18931
	124.4922	40.19195
	124.4948	40.19441
	124.497	40.19634
	124.5018	40.19956
	124.508	40.20379
	124.5128	40.20729
	124.5168	40.20971
	124.519	40.21119
	124.5289	40.21369
	124.5348	40.21524
	124.5407	40.218
	124.5465	40.22007
	124.5491	40.22501
	124.5486	40.22981
	124.5467	40.23467
	124.5462	40.23737
	124.5505	40.24175
	124.5553	40.24536
	124.5659	40.24932
	124.5711	40.25195
	124.5732	40.25494
	124.5743	40.25803
	124.5774	40.26151
	124.582	40.26486
	124.5836	40.26534
	124.5867	40.26594
	124.5903	40.26964
	124.592	40.27094
	124.5978	40.2748
	124.602	40.27745
	124.6063	40.28085
	124.6104	40.28377
	124.6139	40.28604
	124.6173	40.2879
	124.6213	40.28931
	124.6233	40.28952
	124.6257	40.28979
	124.6317	40.29037
	124.6374	40.29078
	124.6419	40.29128
	124.6553	40.2959
	124.6633	40.29794
	124.6717	40.29995
	124.6832	40.30421
	124.6892	40.3078
	124.6967	40.31057
	124.7053	40.31305
	124.7103	40.31584
	124.7157	40.31868
	124.7214	40.32216
	124.7242	40.32543
	124.7258	40.32808
	124.7273	40.32976
	124.7284	40.33171
	124.7294	40.33594
	124.7311	40.34286
	124.7326	40.34856
	124.7339	40.3528
	124.7358	40.35954
	124.7374	40.36612
	124.7411	40.37081
	124.7461	40.37569
	124.7496	40.37901
	124.7565	40.38224
	124.7658	40.38713
	124.7762	40.39095
	124.7808	40.39254
	124.7865	40.39346
	124.7987	40.39569
	124.8074	40.39963
	124.8171	40.40452
	124.8214	40.40804
	124.8272	40.41136
	124.8325	40.4159
	124.8381	40.42024
	124.8429	40.42328
	124.8507	40.42849
	124.8565	40.43323
	124.8602	40.43726
	124.8645	40.44122
	124.8677	40.44465
	124.8713	40.44836
	124.8739	40.45129
	124.8811	40.46072
	124.8833	40.46437
	124.885	40.46728
	124.8863	40.46958
	124.888	40.47286
	124.8893	40.47561
	124.895	40.47992
	124.9006	40.48189
	124.9059	40.48106
	124.9098	40.47806
	124.9094	40.4748
	124.9079	40.471
	124.906	40.46749
	124.9057	40.46396
	124.9073	40.46166
	124.9094	40.45984
	124.9115	40.45772
	124.9143	40.45652
	124.9184	40.45548
	124.9222	40.45438
	124.9298	40.45356
	124.9349	40.4532
	124.9397	40.45323
	124.9449	40.45453
	124.9507	40.45628
	124.9553	40.45887
	124.9602	40.46119
	124.9668	40.46464
	124.9747	40.46815
	124.9809	40.47077
	124.9877	40.47078
	124.9965	40.46746
	125.0035	40.46334
	125.0079	40.46028
	125.0113	40.45803
	125.0138	40.45707
	125.0169	40.45643
	125.0197	40.45613
	125.0249	40.45686
	125.0302	40.45833
	125.0351	40.46029
	125.0403	40.46444
	125.0422	40.47201
	125.0422	40.47812
	125.0407	40.48325
	125.0381	40.48667
	125.0332	40.48985
	125.0283	40.49204
	125.0241	40.49302
	125.0146	40.49498
	125.0048	40.49693
	125.0012	40.49888
	124.9997	40.50085
	124.9997	40.50707
	125.0006	40.51055
	125.0018	40.51483
	125.0026	40.51795
	125.0047	40.52132
	125.0083	40.52478
	125.0134	40.52722
	125.0183	40.52967
	125.0232	40.53186
	125.0322	40.53577
	125.0385	40.53919
	125.0532	40.54432
	125.0596	40.54652
	125.0666	40.54848
	125.0747	40.55067
	125.0828	40.55238
	125.0894	40.55458
	125.0957	40.55629
	125.1021	40.55874
	125.1069	40.56094
	125.1133	40.5646
	125.1182	40.56826
	125.1216	40.57071
	125.1263	40.57388
	125.1277	40.57462
	125.1307	40.57682
	125.1326	40.57853
	125.1359	40.5804
	125.1397	40.58292
	125.1426	40.58439
	125.147	40.58659
	125.1509	40.58903
	125.1541	40.59074
	125.1617	40.59555
	125.165	40.59731
	125.1671	40.59862
	125.1721	40.60186
	125.1782	40.6051
	125.1858	40.60752
	125.1952	40.60911
	125.2037	40.61018
	125.2107	40.61062
	125.2169	40.61091
	125.2222	40.61059
	125.2276	40.61069
	125.2376	40.60813
	125.2431	40.60791
	125.2491	40.60955
	125.2573	40.61292
	125.2623	40.61853
	125.2639	40.62254
	125.2653	40.62592
	125.2657	40.63105
	125.265	40.63422
	125.2648	40.63716
	125.2643	40.64058
	125.2655	40.64473
	125.2668	40.6477
	125.2707	40.65066
	125.2772	40.65423
	125.2852	40.65482
	125.2967	40.65245
	125.3036	40.64933
	125.3095	40.64546
	125.3189	40.63977
	125.3239	40.6375
	125.3292	40.637
	125.3347	40.63901
	125.3403	40.64204
	125.3483	40.6458
	125.3535	40.64785
	125.3633	40.651
	125.3713	40.65071
	125.3807	40.64146
	125.3886	40.63118
	125.3973	40.62526
	125.4015	40.62514
	125.4082	40.62536
	125.4149	40.62794
	125.4171	40.63142
	125.4161	40.64378
	125.4092	40.65861
	125.4091	40.66574
	125.4116	40.66965
	125.4172	40.6716
	125.4272	40.67014
	125.4328	40.66706
	125.44	40.6648
	125.449	40.66784
	125.4516	40.67447
	125.4515	40.68067
	125.4518	40.68389
	125.4522	40.69038
	125.4519	40.69628
	125.4534	40.69847
	125.4553	40.70116
	125.458	40.70385
	125.4604	40.70605
	125.4639	40.70922
	125.4673	40.71191
	125.4702	40.71411
	125.4753	40.71735
	125.4808	40.71936
	125.4858	40.72133
	125.4923	40.72161
	125.499	40.72058
	125.5052	40.71874
	125.5149	40.71729
	125.5197	40.71674
	125.5243	40.71644
	125.532	40.71958
	125.5372	40.72342
	125.5398	40.72645
	125.543	40.73586
	125.5455	40.74221
	125.5458	40.74833
	125.5458	40.75286
	125.5461	40.75739
	125.5483	40.76243
	125.5535	40.7681
	125.556	40.77054
	125.5608	40.77639
	125.5673	40.78075
	125.5747	40.78228
	125.5808	40.77867
	125.585	40.77303
	125.5884	40.76716
	125.5883	40.76237
	125.5915	40.75567
	125.5991	40.75449
	125.6083	40.7556
	125.6152	40.75768
	125.6205	40.75865
	125.6276	40.76153
	125.6314	40.76291
	125.6398	40.76502
	125.6474	40.76563
	125.6551	40.76404
	125.6639	40.76141
	125.6696	40.7612
	125.6773	40.76242
	125.6835	40.76528
	125.6853	40.76993
	125.6858	40.77581
	125.685	40.78098
	125.6821	40.78504
	125.6789	40.78688
	125.6737	40.78799
	125.6676	40.78872
	125.6627	40.7896
	125.6596	40.79058
	125.6519	40.79137
	125.6477	40.79194
	125.6408	40.79385
	125.6372	40.79465
	125.6319	40.79616
	125.6293	40.79892
	125.6295	40.80279
	125.6307	40.80696
	125.6318	40.80911
	125.634	40.81182
	125.6383	40.81421
	125.6432	40.81646
	125.6478	40.81874
	125.6532	40.82177
	125.6599	40.82597
	125.6642	40.82849
	125.668	40.82968
	125.6719	40.8312
	125.674	40.83387
	125.6794	40.8392
	125.6851	40.8433
	125.6895	40.847
	125.6928	40.85068
	125.6944	40.85298
	125.6955	40.85442
	125.6984	40.85903
	125.702	40.86371
	125.7112	40.86882
	125.7174	40.87009
	125.7229	40.87021
	125.7277	40.86921
	125.7434	40.86778
	125.7485	40.86682
	125.7526	40.86724
	125.7553	40.86953
	125.7556	40.87364
	125.7544	40.87666
	125.7549	40.88087
	125.7576	40.88444
	125.7603	40.88831
	125.7622	40.88988
	125.7689	40.89148
	125.7754	40.89074
	125.7794	40.88878
	125.784	40.88832
	125.7934	40.88418
	125.7969	40.88179
	125.7991	40.8794
	125.7996	40.87702
	125.7981	40.87394
	125.7956	40.87129
	125.7951	40.86798
	125.7956	40.86525
	125.8033	40.86244
	125.8075	40.86164
	125.8127	40.86267
	125.8187	40.86666
	125.8222	40.86955
	125.8234	40.87266
	125.8291	40.87501
	125.8372	40.87595
	125.8439	40.87818
	125.8482	40.88011
	125.8579	40.88327
	125.8603	40.88849
	125.8637	40.89653
	125.8657	40.90219
	125.8688	40.90534
	125.8729	40.90438
	125.8788	40.90156
	125.8845	40.89778
	125.891	40.89592
	125.8968	40.89592
	125.9002	40.89879
	125.9035	40.90439
	125.907	40.90884
	125.9101	40.91011
	125.9128	40.90812
	125.9125	40.90471
	125.9105	40.90001
	125.9054	40.89416
	125.906	40.8899
	125.912	40.88328
	125.9175	40.88
	125.924	40.87804
	125.9351	40.87623
	125.947	40.87737
	125.9578	40.88052
	125.9611	40.88292
	125.9638	40.88572
	125.9645	40.8886
	125.9626	40.89242
	125.9621	40.89461
	125.9676	40.90113
	125.9729	40.90149
	125.9797	40.89933
	125.9868	40.89623
	125.9945	40.8916
	126.0092	40.89556
	126.0183	40.90131
	126.0152	40.90939
	126.0092	40.91418
	125.9966	40.91458
	125.9869	40.91118
	125.9772	40.90852
	125.9746	40.91025
	125.9751	40.91596
	125.9841	40.92466
	125.9934	40.92787
	126.0005	40.93164
	126.0079	40.93282
	126.0134	40.93146
	126.0261	40.92653
	126.0342	40.92707
	126.0362	40.93081
	126.0344	40.93568
	126.0361	40.94039
	126.0509	40.94783
	126.0503	40.95541
	126.0517	40.96372
	126.0626	40.96677
	126.0776	40.97599
	126.0759	40.98275
	126.0672	40.98887
	126.0644	40.99046
	126.0646	40.99295
	126.0697	40.99981
	126.0872	41.00276
	126.1036	41.00502
	126.1008	41.01805
	126.0994	41.02036
	126.095	41.02808
	126.098	41.03446
	126.1046	41.03739
	126.1107	41.03319
	126.1216	41.03319
	126.1293	41.04689
	126.1307	41.05824
	126.1205	41.0643
	126.1122	41.06902
	126.1093	41.07216
	126.1102	41.07605
	126.116	41.08486
	126.1178	41.088
	126.1206	41.08947
	126.126	41.08873
	126.1358	41.08763
	126.1516	41.08788
	126.1658	41.09267
	126.1775	41.10127
	126.1807	41.10427
	126.1842	41.10915
	126.1861	41.11047
	126.1927	41.11542
	126.1955	41.11769
	126.1978	41.11998
	126.199	41.12146
	126.2109	41.1246
	126.2174	41.1247
	126.2233	41.12747
	126.2257	41.13024
	126.2281	41.13508
	126.229	41.14037
	126.2345	41.1449
	126.2351	41.14516
	126.2413	41.14809
	126.2482	41.15007
	126.2535	41.15069
	126.2615	41.15189
	126.2739	41.15505
	126.2802	41.15885
	126.2889	41.16694
	126.291	41.17029
	126.2902	41.1751
	126.2856	41.18032
	126.2842	41.18394
	126.2828	41.18624
	126.2856	41.18871
	126.2918	41.18905
	126.3002	41.18884
	126.3028	41.18883
	126.3051	41.18937
	126.3063	41.19458
	126.3075	41.20341
	126.3075	41.20876
	126.3077	41.20922
	126.3095	41.21477
	126.3138	41.22329
	126.3163	41.22719
	126.3216	41.23092
	126.3283	41.23438
	126.3353	41.23645
	126.344	41.23863
	126.3496	41.24034
	126.3537	41.24299
	126.3558	41.24605
	126.356	41.25025
	126.3552	41.25547
	126.3555	41.26045
	126.3571	41.2651
	126.3595	41.26979
	126.3612	41.27392
	126.3613	41.27761
	126.3617	41.27935
	126.3623	41.28092
	126.3672	41.28576
	126.3721	41.28903
	126.3788	41.29269
	126.3874	41.29781
	126.3935	41.30159
	126.3955	41.30438
	126.3982	41.309
	126.4015	41.32089
	126.4043	41.32751
	126.4066	41.32986
	126.4095	41.3316
	126.4191	41.33034
	126.4216	41.32969
	126.4269	41.32834
	126.4308	41.32907
	126.4327	41.33035
	126.4322	41.33298
	126.4289	41.33848
	126.4285	41.34428
	126.4295	41.34891
	126.4331	41.35212
	126.4405	41.35407
	126.4513	41.35624
	126.4581	41.35781
	126.4673	41.36146
	126.4741	41.36562
	126.4812	41.36843
	126.4864	41.37095
	126.4925	41.37148
	126.5025	41.37186
	126.5066	41.36957
	126.5085	41.36639
	126.5099	41.36352
	126.5079	41.36007
	126.5042	41.35703
	126.5001	41.35452
	126.4938	41.35383
	126.4914	41.35326
	126.4875	41.35348
	126.4855	41.35438
	126.4822	41.35376
	126.4792	41.35285
	126.4752	41.3508
	126.4747	41.34701
	126.4791	41.34452
	126.4849	41.34465
	126.4925	41.34504
	126.4947	41.34542
	126.5065	41.34555
	126.513	41.34616
	126.5172	41.34678
	126.5236	41.34895
	126.5302	41.35275
	126.5347	41.36053
	126.5358	41.3639
	126.5338	41.36958
	126.5287	41.37407
	126.5224	41.3769
	126.5183	41.37998
	126.5157	41.38121
	126.5151	41.38152
	126.513	41.38316
	126.5057	41.39514
	126.5054	41.41761
	126.5044	41.43098
	126.5049	41.43499
	126.5115	41.44138
	126.5309	41.46893
	126.5362	41.47673
	126.5533	41.48808
	126.5449	41.49526
	126.551	41.51074
	126.5555	41.52565
	126.5656	41.53901
	126.5722	41.54582
	126.5838	41.54919
	126.588	41.56242
	126.579	41.5787
	126.5656	41.5978
	126.5632	41.61088
	126.5667	41.6166
	126.5831	41.61394
	126.5917	41.61662
	126.5931	41.62987
	126.6064	41.63665
	126.6098	41.64544
	126.6058	41.65701
	126.6072	41.66646
	126.6149	41.67237
	126.6259	41.66752
	126.6379	41.65556
	126.647	41.65384
	126.6568	41.65759
	126.6619	41.66288
	126.6742	41.66632
	126.6872	41.67115
	126.6847	41.67404
	126.6838	41.67749
	126.6883	41.68077
	126.7009	41.68674
	126.7121	41.69639
	126.7254	41.70446
	126.7327	41.71442
	126.7306	41.71737
	126.7181	41.71894
	126.7007	41.72086
	126.6875	41.72528
	126.6841	41.72782
	126.6819	41.73159
	126.6819	41.73716
	126.6849	41.74312
	126.6914	41.74522
	126.6943	41.74871
	126.6991	41.74875
	126.7027	41.74705
	126.7081	41.7463
	126.7151	41.74635
	126.7225	41.74392
	126.7265	41.74117
	126.734	41.73444
	126.7474	41.7256
	126.7538	41.72306
	126.7602	41.72161
	126.7646	41.71853
	126.7697	41.71577
	126.7706	41.71389
	126.7705	41.70662
	126.7699	41.70293
	126.7704	41.7006
	126.7758	41.69514
	126.7808	41.69171
	126.7863	41.69041
	126.791	41.69092
	126.7951	41.69257
	126.7974	41.69509
	126.7974	41.69829
	126.7947	41.70352
	126.793	41.71069
	126.7938	41.71449
	126.7956	41.72559
	126.7955	41.73156
	126.7967	41.7352
	126.8011	41.74107
	126.8031	41.74499
	126.8057	41.74732
	126.8099	41.74727
	126.8128	41.74454
	126.8175	41.74129
	126.8197	41.73446
	126.8216	41.72868
	126.8257	41.72019
	126.8279	41.71908
	126.8325	41.7187
	126.8364	41.71988
	126.84	41.72137
	126.8426	41.72534
	126.8437	41.72955
	126.8439	41.73252
	126.8443	41.7355
	126.8482	41.74131
	126.8494	41.74781
	126.8515	41.75422
	126.8537	41.75931
	126.8584	41.76582
	126.8635	41.77266
	126.8677	41.77696
	126.8737	41.78186
	126.8787	41.78644
	126.8821	41.78843
	126.8889	41.79095
	126.899	41.79299
	126.9071	41.79666
	126.9146	41.80208
	126.9223	41.80523
	126.9331	41.80786
	126.9414	41.80679
	126.9447	41.80485
	126.9459	41.80226
	126.9475	41.79903
	126.9471	41.79561
	126.9473	41.7929
	126.9468	41.79006
	126.9456	41.78656
	126.9425	41.78474
	126.9396	41.78486
	126.9378	41.78593
	126.935	41.78606
	126.9329	41.78575
	126.9308	41.78475
	126.9296	41.7828
	126.9285	41.77457
	126.9288	41.77321
	126.9337	41.76966
	126.937	41.76846
	126.9438	41.76954
	126.9557	41.77203
	126.9663	41.77406
	126.973	41.77412
	126.9747	41.77312
	126.9771	41.76912
	126.978	41.76458
	126.9806	41.76235
	126.988	41.76161
	126.9938	41.76024
	126.9982	41.75982
	127.0023	41.76031
	127.0037	41.75976
	127.0046	41.75615
	127.0036	41.7537
	127.0028	41.7514
	127.0013	41.74917
	126.9996	41.74594
	127.001	41.74425
	127.0051	41.74236
	127.0123	41.73948
	127.0185	41.73897
	127.0256	41.73897
	127.0305	41.73996
	127.0337	41.73904
	127.0369	41.73968
	127.0387	41.74101
	127.0439	41.74182
	127.0456	41.74157
	127.0485	41.73997
	127.0486	41.73583
	127.0479	41.73159
	127.0477	41.7307
	127.0453	41.72845
	127.0455	41.72253
	127.0463	41.72043
	127.0489	41.71826
	127.0496	41.71487
	127.0506	41.71281
	127.0508	41.71097
	127.0486	41.70813
	127.049	41.70435
	127.0503	41.70118
	127.0523	41.70002
	127.0546	41.69949
	127.0583	41.69966
	127.0619	41.70053
	127.0698	41.70176
	127.0741	41.70192
	127.0761	41.70138
	127.0774	41.70015
	127.0765	41.695
	127.0751	41.69215
	127.0717	41.68903
	127.0677	41.6872
	127.0621	41.6857
	127.0588	41.68563
	127.0551	41.68671
	127.0531	41.68859
	127.0515	41.6913
	127.0491	41.69222
	127.0461	41.69222
	127.0432	41.69064
	127.0424	41.68904
	127.0413	41.68512
	127.0404	41.68124
	127.0363	41.67799
	127.0332	41.67543
	127.0313	41.67329
	127.0306	41.67146
	127.0323	41.66937
	127.036	41.66674
	127.0414	41.66423
	127.0472	41.66254
	127.0572	41.65952
	127.0642	41.65712
	127.0671	41.6547
	127.0695	41.64866
	127.07	41.64488
	127.0722	41.64293
	127.076	41.64267
	127.0782	41.64293
	127.0819	41.64079
	127.0859	41.64023
	127.0889	41.64276
	127.0917	41.64405
	127.0973	41.64473
	127.0996	41.64349
	127.1023	41.64212
	127.1038	41.64019
	127.1035	41.63642
	127.1007	41.63268
	127.0979	41.63023
	127.0927	41.6293
	127.0901	41.62839
	127.0865	41.62716
	127.0856	41.62535
	127.0875	41.62239
	127.0898	41.62091
	127.0945	41.61967
	127.1008	41.6181
	127.1049	41.61881
	127.1106	41.62158
	127.1144	41.62317
	127.1166	41.62301
	127.119	41.62153
	127.1203	41.61888
	127.1205	41.61631
	127.1206	41.6143
	127.1225	41.61034
	127.1206	41.60856
	127.1178	41.6075
	127.1163	41.60551
	127.118	41.60206
	127.1238	41.59755
	127.1293	41.59615
	127.1451	41.59657
	127.1511	41.59734
	127.157	41.59685
	127.1613	41.59809
	127.1646	41.59753
	127.173	41.59696
	127.1752	41.59566
	127.1782	41.59271
	127.179	41.58821
	127.1784	41.58674
	127.1765	41.58586
	127.1685	41.58498
	127.1617	41.58481
	127.1586	41.58462
	127.1533	41.58568
	127.148	41.58667
	127.1445	41.585
	127.1386	41.5817
	127.1375	41.57973
	127.139	41.57452
	127.1404	41.57004
	127.1383	41.56803
	127.1343	41.56716
	127.1307	41.56732
	127.1223	41.56705
	127.1206	41.56603
	127.1181	41.56268
	127.1137	41.55938
	127.1128	41.558
	127.1132	41.5561
	127.114	41.55436
	127.1167	41.55252
	127.1173	41.55047
	127.1167	41.54862
	127.1148	41.54773
	127.1129	41.54785
	127.1108	41.54898
	127.1081	41.55111
	127.1037	41.55254
	127.1	41.55303
	127.0974	41.55107
	127.0962	41.54742
	127.0976	41.54313
	127.1036	41.53847
	127.1081	41.53614
	127.1128	41.53615
	127.1216	41.53766
	127.1242	41.53736
	127.1268	41.53726
	127.1312	41.54002
	127.1343	41.53979
	127.1379	41.53826
	127.1384	41.53753
	127.1386	41.53635
	127.1382	41.53339
	127.1349	41.53027
	127.1337	41.52849
	127.1354	41.52635
	127.1377	41.52598
	127.1446	41.52826
	127.1473	41.53055
	127.1502	41.53297
	127.1536	41.53494
	127.1551	41.53864
	127.1582	41.53949
	127.1614	41.54004
	127.1668	41.53919
	127.1682	41.53793
	127.1685	41.53412
	127.1698	41.52928
	127.1721	41.52508
	127.1779	41.5238
	127.1829	41.52309
	127.1865	41.52377
	127.1921	41.52575
	127.1945	41.52889
	127.1966	41.5314
	127.2019	41.53216
	127.2074	41.531
	127.2083	41.52996
	127.2086	41.52816
	127.2071	41.52538
	127.2058	41.52345
	127.2057	41.52101
	127.2078	41.51856
	127.2082	41.51806
	127.2104	41.5174
	127.2157	41.51741
	127.2201	41.51993
	127.2241	41.52137
	127.2293	41.52163
	127.2349	41.51874
	127.2349	41.51691
	127.2331	41.51328
	127.2305	41.51122
	127.2294	41.50857
	127.2287	41.50615
	127.2334	41.50231
	127.237	41.49869
	127.2409	41.49714
	127.2437	41.49797
	127.2496	41.50221
	127.2555	41.50695
	127.2573	41.50875
	127.2601	41.51081
	127.2638	41.51159
	127.2693	41.51219
	127.2733	41.51208
	127.2775	41.51021
	127.28	41.50745
	127.2813	41.50439
	127.2821	41.50153
	127.2796	41.4973
	127.276	41.49386
	127.273	41.49138
	127.2694	41.49089
	127.2635	41.49111
	127.2587	41.48946
	127.2551	41.48842
	127.2495	41.48718
	127.2475	41.48569
	127.2472	41.48378
	127.2487	41.48116
	127.2512	41.47877
	127.2569	41.47665
	127.2709	41.47569
	127.2734	41.47602
	127.2767	41.48
	127.2832	41.48247
	127.2884	41.48353
	127.2923	41.48241
	127.2973	41.47993
	127.3044	41.47703
	127.3138	41.47332
	127.3373	41.46356
	127.3422	41.46172
	127.3476	41.46031
	127.3532	41.46099
	127.3546	41.46118
	127.3564	41.46261
	127.3567	41.46403
	127.3566	41.46665
	127.3559	41.47019
	127.3546	41.47575
	127.3557	41.47737
	127.3608	41.4773
	127.3658	41.47684
	127.3705	41.47636
	127.3776	41.47824
	127.3819	41.47988
	127.3916	41.47879
	127.3948	41.47821
	127.3971	41.47585
	127.3987	41.47115
	127.3989	41.46503
	127.4009	41.46171
	127.404	41.45871
	127.4072	41.45671
	127.4107	41.45544
	127.4148	41.45711
	127.4184	41.4603
	127.4213	41.46176
	127.4248	41.46219
	127.4309	41.46121
	127.4377	41.4584
	127.4448	41.45702
	127.4544	41.45742
	127.4574	41.45928
	127.4622	41.46089
	127.4629	41.46242
	127.4605	41.46569
	127.4596	41.46811
	127.4597	41.47288
	127.4604	41.47602
	127.4613	41.47755
	127.4635	41.4795
	127.4668	41.48025
	127.4704	41.48059
	127.4727	41.48006
	127.4735	41.47908
	127.4739	41.47686
	127.4729	41.4733
	127.4717	41.47158
	127.4717	41.47027
	127.4751	41.46799
	127.4806	41.46829
	127.4853	41.47026
	127.4872	41.47161
	127.4935	41.47468
	127.4964	41.47487
	127.4999	41.47371
	127.5027	41.47171
	127.5079	41.46774
	127.5126	41.46584
	127.5166	41.46494
	127.5229	41.46494
	127.5273	41.46653
	127.5294	41.46914
	127.5288	41.47195
	127.5314	41.4733
	127.537	41.47457
	127.5392	41.47452
	127.5412	41.47401
	127.5427	41.47327
	127.5421	41.46827
	127.5405	41.46545
	127.5396	41.464
	127.5389	41.45533
	127.5392	41.45179
	127.5403	41.44919
	127.5459	41.44175
	127.5521	41.43494
	127.5553	41.43217
	127.5592	41.42996
	127.5706	41.42658
	127.5779	41.42567
	127.5857	41.42381
	127.5903	41.42389
	127.5938	41.42539
	127.5989	41.42681
	127.606	41.4282
	127.6102	41.43015
	127.6132	41.43
	127.6164	41.42762
	127.6203	41.42216
	127.6239	41.41684
	127.6274	41.41306
	127.6331	41.40928
	127.6404	41.40573
	127.6506	41.40344
	127.6545	41.4042
	127.6585	41.40544
	127.6598	41.4071
	127.6604	41.40884
	127.6577	41.41221
	127.6534	41.41495
	127.6493	41.41777
	127.6481	41.41994
	127.647	41.42307
	127.647	41.42469
	127.6496	41.42635
	127.6524	41.42686
	127.6551	41.42573
	127.6607	41.4223
	127.6627	41.41929
	127.6638	41.41664
	127.6648	41.41444
	127.6671	41.41271
	127.6703	41.41212
	127.6725	41.41292
	127.6756	41.41702
	127.6783	41.42036
	127.6825	41.42124
	127.6865	41.42201
	127.691	41.42055
	127.6969	41.41886
	127.7028	41.41732
	127.7093	41.41689
	127.7171	41.41675
	127.721	41.41762
	127.7232	41.41977
	127.7275	41.42136
	127.7364	41.42438
	127.7457	41.42495
	127.752	41.42506
	127.7547	41.42401
	127.759	41.42093
	127.7625	41.41954
	127.7663	41.41838
	127.7681	41.41949
	127.7708	41.42178
	127.773	41.42403
	127.7751	41.42443
	127.7772	41.42422
	127.7794	41.42269
	127.7809	41.4192
	127.7825	41.41554
	127.7818	41.411
	127.7837	41.40641
	127.7854	41.40492
	127.7878	41.40466
	127.7914	41.40563
	127.7905	41.41081
	127.7903	41.41522
	127.7921	41.41813
	127.7944	41.42048
	127.7996	41.42202
	127.8045	41.42246
	127.8077	41.4217
	127.8104	41.4207
	127.8128	41.41945
	127.8152	41.41671
	127.8164	41.41407
	127.8175	41.41016
	127.8194	41.40772
	127.8217	41.40574
	127.8241	41.40502
	127.8268	41.40453
	127.828	41.40453
	127.8299	41.40637
	127.83	41.40778
	127.8288	41.41126
	127.8281	41.41577
	127.8298	41.41754
	127.8322	41.41896
	127.8335	41.4192
	127.8386	41.41969
	127.842	41.42032
	127.8455	41.42017
	127.8476	41.41947
	127.8498	41.41578
	127.8501	41.41355
	127.8514	41.41132
	127.8535	41.40704
	127.8569	41.40363
	127.8623	41.40134
	127.8638	41.4011
	127.8672	41.40209
	127.8692	41.40345
	127.871	41.40484
	127.8724	41.40797
	127.8714	41.40969
	127.8686	41.41255
	127.8667	41.41386
	127.8664	41.41504
	127.8699	41.42162
	127.8698	41.42459
	127.8694	41.42679
	127.8684	41.42784
	127.868	41.43074
	127.8686	41.43444
	127.8706	41.43655
	127.8709	41.43717
	127.8702	41.44079
	127.8708	41.44198
	127.8738	41.4449
	127.8785	41.44554
	127.8821	41.44514
	127.8855	41.44335
	127.8857	41.44254
	127.8846	41.44148
	127.8819	41.43944
	127.8799	41.43815
	127.8801	41.43632
	127.8823	41.43382
	127.8846	41.43211
	127.888	41.43119
	127.8921	41.43135
	127.8936	41.43252
	127.8948	41.43413
	127.8987	41.43332
	127.9005	41.43151
	127.9017	41.42819
	127.9027	41.42719
	127.9065	41.42629
	127.9096	41.42828
	127.9108	41.43322
	127.9135	41.43632
	127.9157	41.43716
	127.9202	41.43794
	127.9244	41.4399
	127.9272	41.4415
	127.9285	41.44374
	127.9273	41.44714
	127.9275	41.45092
	127.9281	41.45275
	127.9305	41.45487
	127.9325	41.45619
	127.9347	41.4542
	127.9347	41.45032
	127.9349	41.44753
	127.9358	41.44641
	127.9383	41.44641
	127.942	41.44785
	127.9436	41.44815
	127.9454	41.44826
	127.9465	41.44643
	127.945	41.4442
	127.9425	41.44138
	127.9401	41.4394
	127.9429	41.43683
	127.947	41.43497
	127.9518	41.43457
	127.9551	41.43509
	127.9607	41.43573
	127.9673	41.43472
	127.9735	41.43232
	127.9766	41.42938
	127.9758	41.42279
	127.9759	41.4186
	127.9782	41.41411
	127.9835	41.41551
	127.988	41.41886
	127.9898	41.42437
	127.9931	41.43621
	127.9947	41.43873
	127.996	41.44135
	127.9974	41.44357
	128.0016	41.44477
	128.0042	41.44545
	128.008	41.44547
	128.0092	41.44498
	128.0108	41.44397
	128.0115	41.44265
	128.0116	41.44106
	128.0114	41.44023
	128.0094	41.43724
	128.0082	41.43504
	128.0045	41.43415
	128.0012	41.43279
	127.998	41.43087
	127.9969	41.42958
	127.997	41.42818
	127.9982	41.42659
	127.9993	41.42562
	128.0008	41.42519
	128.0043	41.42545
	128.0109	41.42629
	128.0122	41.4264
	128.0132	41.42612
	128.013	41.42455
	128.0126	41.42296
	128.0117	41.42143
	128.011	41.41917
	128.0108	41.41747
	128.0116	41.41402
	128.0116	41.41247
	128.0121	41.41161
	128.0135	41.41083
	128.0152	41.41011
	128.0185	41.40903
	128.0198	41.40926
	128.0222	41.41068
	128.0243	41.41196
	128.0271	41.4135
	128.0283	41.41516
	128.0286	41.41602
	128.0284	41.41793
	128.0287	41.4188
	128.0293	41.41933
	128.0302	41.41959
	128.0326	41.41919
	128.0344	41.41868
	128.0371	41.41685
	128.0393	41.41551
	128.0404	41.41401
	128.0403	41.4125
	128.0396	41.41149
	128.0376	41.40996
	128.0367	41.40812
	128.0352	41.40588
	128.0345	41.4047
	128.0343	41.40379
	128.0356	41.40184
	128.0367	41.40027
	128.0373	41.39838
	128.0373	41.39717
	128.0366	41.39587
	128.0321	41.39369
	128.0311	41.39353
	128.0308	41.39321
	128.0309	41.39224
	128.0317	41.39168
	128.0322	41.3912
	128.0402	41.38957
	128.0435	41.3902
	128.0465	41.39051
	128.0474	41.39078
	128.0474	41.39221
	128.0487	41.39335
	128.0513	41.39478
	128.0535	41.39523
	128.0558	41.3951
	128.0631	41.39316
	128.0646	41.39292
	128.066	41.39241
	128.0679	41.39007
	128.068	41.38851
	128.0667	41.38616
	128.0672	41.38372
	128.069	41.38046
	128.0702	41.37907
	128.0717	41.37787
	128.073	41.3771
	128.0743	41.37666
	128.0764	41.37691
	128.0786	41.37748
	128.0796	41.37799
	128.0805	41.37878
	128.0808	41.37972
	128.0803	41.38115
	128.079	41.38242
	128.0768	41.38643
	128.0765	41.38732
	128.0772	41.389
	128.0785	41.3905
	128.081	41.39251
	128.0827	41.39277
	128.0922	41.39055
	128.0938	41.38966
	128.0964	41.38997
	128.0972	41.3909
	128.0973	41.39281
	128.0957	41.39399
	128.0943	41.39487
	128.0941	41.39525
	128.0946	41.3963
	128.0953	41.39687
	128.0961	41.39691
	128.0968	41.39675
	128.0993	41.39579
	128.101	41.39384
	128.1018	41.39272
	128.1028	41.39094
	128.1039	41.38622
	128.1027	41.38395
	128.1019	41.3831
	128.1002	41.38248
	128.0978	41.38254
	128.0946	41.38189
	128.0922	41.38105
	128.0898	41.38007
	128.0868	41.37785
	128.0865	41.37655
	128.0852	41.37387
	128.0837	41.37263
	128.0843	41.37174
	128.0845	41.37138
	128.0865	41.37048
	128.0946	41.37008
	128.0976	41.36903
	128.1007	41.36683
	128.1022	41.36515
	128.1035	41.36305
	128.1055	41.36143
	128.1081	41.36064
	128.1141	41.36363
	128.117	41.36672
	128.1188	41.36921
	128.1194	41.37112
	128.1183	41.37484
	128.1201	41.37842
	128.1241	41.38027
	128.1262	41.37985
	128.1282	41.3795
	128.1302	41.37996
	128.1306	41.3808
	128.133	41.3807
	128.136	41.37987
	128.1372	41.37966
	128.1413	41.38063
	128.1441	41.38078
	128.147	41.38113
	128.1522	41.3832
	128.1561	41.38614
	128.1567	41.38799
	128.1572	41.38998
	128.1596	41.39276
	128.1613	41.39553
	128.1621	41.39909
	128.1647	41.40243
	128.1706	41.40508
	128.1747	41.40674
	128.1774	41.40802
	128.1803	41.4095
	128.1849	41.41126
	128.1913	41.41127
	128.1961	41.40889
	128.1994	41.40831
	128.2029	41.4097
	128.2045	41.4118
	128.2055	41.41448
	128.2062	41.41977
	128.2064	41.42472
	128.2069	41.42704
	128.2088	41.42825
	128.2114	41.43008
	128.2123	41.43282
	128.2147	41.4381
	128.2183	41.44122
	128.2214	41.44372
	128.2227	41.44419
	128.2247	41.44438
	128.2292	41.44347
	128.2317	41.44354
	128.2329	41.44382
	128.2383	41.44699
	128.2402	41.44865
	128.2401	41.44993
	128.2398	41.4511
	128.2381	41.4534
	128.2358	41.45362
	128.2323	41.45334
	128.2287	41.45387
	128.228	41.4548
	128.2281	41.45563
	128.2286	41.45612
	128.2284	41.4581
	128.229	41.45923
	128.23	41.46018
	128.2303	41.46183
	128.2321	41.46612
	128.2328	41.46869
	128.232	41.47049
	128.2323	41.47184
	128.2346	41.4732
	128.2368	41.47331
	128.2379	41.4756
	128.2381	41.47856
	128.2383	41.4797
	128.2373	41.48167
	128.2384	41.48391
	128.2387	41.48698
	128.2375	41.48801
	128.2334	41.4893
	128.233	41.48963
	128.2333	41.49292
	128.2333	41.49575
	128.2353	41.49835
	128.2401	41.49932
	128.244	41.50034
	128.2465	41.50262
	128.2473	41.50369
	128.2505	41.50341
	128.2551	41.50364
	128.2579	41.50756
	128.2594	41.50943
	128.2605	41.51225
	128.2636	41.51407
	128.2661	41.51595
	128.2705	41.51834
	128.2731	41.52034
	128.2759	41.52156
	128.2774	41.52217
	128.2783	41.52322
	128.2785	41.52471
	128.2781	41.52562
	128.276	41.52923
	128.2768	41.53074
	128.2779	41.53152
	128.2791	41.53191
	128.2792	41.53213
	128.279	41.53278
	128.2792	41.53317
	128.2799	41.53301
	128.2805	41.53303
	128.2807	41.53332
	128.2807	41.53401
	128.2811	41.53456
	128.2817	41.53464
	128.2835	41.53406
	128.286	41.53258
	128.2872	41.53254
	128.2883	41.53273
	128.2941	41.53562
	128.296	41.53718
	128.2965	41.53814
	128.296	41.53935
	128.2951	41.54054
	128.2931	41.542
	128.2924	41.54388
	128.2913	41.54456
	128.2902	41.5443
	128.2887	41.54359
	128.2876	41.5434
	128.2862	41.5442
	128.2858	41.54565
	128.2864	41.5461
	128.2866	41.54825
	128.2859	41.55024
	128.2862	41.55258
	128.2886	41.55358
	128.2908	41.55395
	128.2942	41.5541
	128.2947	41.5554
	128.294	41.55654
	128.2917	41.55689
	128.2891	41.55804
	128.2886	41.5593
	128.2902	41.56068
	128.2933	41.56197
	128.2991	41.56568
	128.3006	41.56789
	128.304	41.56983
	128.3059	41.56974
	128.3078	41.56962
	128.3095	41.5707
	128.3103	41.57064
	128.3116	41.57124
	128.312	41.57209
	128.3116	41.57317
	128.3106	41.57396
	128.3078	41.57341
	128.3063	41.57424
	128.3058	41.57526
	128.3055	41.57607
	128.3061	41.57678
	128.3084	41.57741
	128.3105	41.57885
	128.3108	41.57971
	128.3104	41.58041
	128.3083	41.58273
	128.3082	41.58378
	128.3093	41.58472
	128.3121	41.5868
	128.3108	41.58899
	128.3071	41.59153
	128.3047	41.59328
	128.304	41.59468
	128.3053	41.59561
	128.3089	41.59831
	128.3107	41.59961
	128.3101	41.60017
	128.3101	41.60146
	128.3079	41.60229
	128.3046	41.60222
	128.3018	41.60243
	128.3003	41.60062
	128.2998	41.60038
	128.2976	41.60073
	128.2956	41.60162
	128.2946	41.60267
	128.2936	41.60455
	128.294	41.60531
	128.296	41.60649
	128.2995	41.60801
	128.3	41.60892
	128.3002	41.61028
	128.2989	41.61128
	128.2978	41.61148
	128.2956	41.6104
	128.294	41.60909
	128.2922	41.60831
	128.2906	41.60818
	128.2885	41.60878
	128.2873	41.60968
	128.2869	41.61084
	128.2869	41.61198
	128.2874	41.6129
	128.29	41.61564
	128.2913	41.61678
	128.2923	41.61726
	128.2935	41.61664
	128.2952	41.61503
	128.2964	41.61451
	128.2973	41.61448
	128.299	41.61528
	128.2999	41.61674
	128.3	41.61762
	128.2995	41.61849
	128.2986	41.61936
	128.2975	41.62179
	128.2964	41.62239
	128.2954	41.62321
	128.2951	41.62449
	128.2966	41.62581
	128.2975	41.62672
	128.2975	41.62762
	128.2961	41.62887
	128.295	41.62779
	128.2926	41.62661
	128.2903	41.62675
	128.2873	41.62699
	128.2863	41.6261
	128.2852	41.62477
	128.2829	41.62329
	128.2809	41.62311
	128.2801	41.62369
	128.2795	41.62458
	128.2795	41.62584
	128.2799	41.62663
	128.2826	41.62769
	128.2833	41.62834
	128.2831	41.62921
	128.2821	41.6305
	128.2825	41.6318
	128.2815	41.63256
	128.2803	41.63263
	128.2792	41.63211
	128.2775	41.63145
	128.2764	41.63133
	128.2753	41.63171
	128.2751	41.63293
	128.2759	41.63539
	128.278	41.63582
	128.2783	41.63677
	128.2781	41.6377
	128.2775	41.63834
	128.2748	41.63939
	128.2734	41.64032
	128.2732	41.64117
	128.2736	41.64167
	128.275	41.64227
	128.2752	41.64278
	128.2747	41.64381
	128.2732	41.64454
	128.2718	41.64486
	128.2691	41.64456
	128.2683	41.64485
	128.2678	41.6453
	128.2675	41.648
	128.2681	41.65059
	128.2693	41.65089
	128.2706	41.65174
	128.2716	41.6531
	128.2719	41.65529
	128.2726	41.65623
	128.2724	41.65659
	128.2718	41.65681
	128.2702	41.65608
	128.2684	41.65564
	128.2671	41.65446
	128.2662	41.65428
	128.2653	41.65428
	128.2637	41.65492
	128.2621	41.65675
	128.2608	41.65784
	128.2603	41.65933
	128.2607	41.6606
	128.2623	41.66267
	128.2636	41.66375
	128.2639	41.66461
	128.2637	41.66545
	128.2621	41.66603
	128.2607	41.66641
	128.2598	41.66621
	128.2582	41.66513
	128.256	41.66426
	128.2534	41.6641
	128.252	41.66433
	128.2511	41.6649
	128.2505	41.66565
	128.2506	41.6664
	128.2515	41.66712
	128.2535	41.66884
	128.2541	41.67108
	128.2528	41.67211
	128.2517	41.67177
	128.2498	41.67127
	128.2494	41.67115
	128.2479	41.67106
	128.2465	41.6713
	128.2451	41.67237
	128.2425	41.67351
	128.2404	41.67362
	128.24	41.67376
	128.2395	41.67417
	128.2397	41.67491
	128.2402	41.67538
	128.2414	41.67541
	128.2426	41.67576
	128.243	41.67807
	128.2427	41.67863
	128.2422	41.67897
	128.2403	41.6791
	128.2386	41.67898
	128.2374	41.67844
	128.2358	41.67827
	128.2345	41.67849
	128.2335	41.67992
	128.2312	41.68085
	128.2304	41.68139
	128.2297	41.68158
	128.2292	41.68124
	128.2293	41.6807
	128.2296	41.67993
	128.2297	41.67897
	128.2286	41.67813
	128.2276	41.67793
	128.2234	41.67881
	128.2216	41.67928
	128.2198	41.6796
	128.2187	41.67952
	128.2175	41.67911
	128.2159	41.67928
	128.214	41.68049
	128.2139	41.68129
	128.2135	41.68383
	128.2138	41.68456
	128.2137	41.68523
	128.2129	41.68657
	128.2123	41.68785
	128.211	41.68809
	128.2092	41.68763
	128.2073	41.68678
	128.2054	41.68645
	128.205	41.68584
	128.2039	41.68553
	128.2028	41.68461
	128.2023	41.68447
	128.2019	41.68464
	128.2016	41.68537
	128.2015	41.68633
	128.2011	41.68808
	128.2003	41.68841
	128.1987	41.68989
	128.1985	41.69079
	128.1976	41.69144
	128.1968	41.69244
	128.196	41.69309
	128.1934	41.69439
	128.1928	41.69542
	128.1931	41.69602
	128.1947	41.69684
	128.1959	41.69807
	128.1952	41.69881
	128.1947	41.69985
	128.194	41.70037
	128.1924	41.70063
	128.1897	41.70118
	128.1884	41.7016
	128.1866	41.70275
	128.1868	41.70358
	128.1865	41.70394
	128.1847	41.70469
	128.1842	41.70534
	128.1852	41.70637
	128.1851	41.70704
	128.1846	41.70802
	128.184	41.7089
	128.1827	41.70899
	128.1815	41.7089
	128.1807	41.70866
	128.1804	41.70784
	128.18	41.70746
	128.1794	41.70733
	128.1785	41.7076
	128.1779	41.70801
	128.1777	41.70908
	128.1766	41.70998
	128.1738	41.71055
	128.1731	41.71111
	128.1727	41.71111
	128.1719	41.71043
	128.171	41.7101
	128.1688	41.71006
	128.1672	41.71023
	128.1658	41.71033
	128.1645	41.7106
	128.1625	41.71155
	128.1614	41.71226
	128.1609	41.71309
	128.1617	41.71423
	128.1616	41.71492
	128.1621	41.71615
	128.1621	41.71675
	128.1617	41.71734
	128.1608	41.71815
	128.1604	41.7183
	128.1603	41.71812
	128.1594	41.71803
	128.1574	41.71817
	128.1565	41.71837
	128.1561	41.71903
	128.1561	41.72082
	128.1565	41.72165
	128.1563	41.72183
	128.154	41.7236
	128.1521	41.72515
	128.1503	41.72657
	128.1495	41.72773
	128.1506	41.72952
	128.1513	41.73074
	128.1503	41.73256
	128.1488	41.73307
	128.1481	41.73386
	128.1464	41.73504
	128.145	41.73698
	128.1461	41.73947
	128.1455	41.74156
	128.1456	41.74415
	128.1462	41.74531
	128.1461	41.74585
	128.1455	41.74608
	128.1438	41.74631
	128.1402	41.74902
	128.1399	41.75014
	128.1399	41.75088
	128.1408	41.75267
	128.143	41.75431
	128.1436	41.75452
	128.1438	41.75475
	128.1437	41.75516
	128.1421	41.75642
	128.1417	41.75713
	128.1417	41.75795
	128.142	41.75964
	128.1427	41.76041
	128.1432	41.76161
	128.1431	41.76192
	128.1426	41.76211
	128.1415	41.76215
	128.1405	41.76206
	128.1398	41.76219
	128.1392	41.76244
	128.1382	41.76328
	128.138	41.76382
	128.1379	41.76448
	128.1371	41.76565
	128.1367	41.76711
	128.1366	41.76776
	128.1363	41.76866
	128.1365	41.76926
	128.137	41.76961
	128.1379	41.76963
	128.1385	41.76917
	128.1393	41.76911
	128.14	41.76917
	128.1405	41.76959
	128.1405	41.77006
	128.1401	41.77025
	128.1393	41.77051
	128.138	41.77122
	128.1374	41.77163
	128.1369	41.77249
	128.136	41.77311
	128.1355	41.7736
	128.1353	41.77395
	128.1354	41.77457
	128.1358	41.77491
	128.136	41.77512
	128.1368	41.7753
	128.1379	41.77528
	128.1386	41.77506
	128.1394	41.77512
	128.1399	41.77573
	128.1404	41.7762
	128.141	41.7768
	128.1415	41.77779
	128.141	41.77797
	128.1406	41.77819
	128.14	41.77833
	128.139	41.77807
	128.1377	41.77793
	128.1366	41.77822
	128.1357	41.77825
	128.1347	41.77859
	128.1341	41.77898
	128.1336	41.77981
	128.1331	41.78087
	128.1338	41.78119
	128.1344	41.78208
	128.1348	41.78314
	128.1347	41.78378
	128.1342	41.784
	128.1328	41.78378
	128.1319	41.78302
	128.1313	41.78228
	128.131	41.78149
	128.1307	41.78084
	128.1303	41.78049
	128.1297	41.78028
	128.1286	41.78046
	128.1282	41.78027
	128.1273	41.77945
	128.1267	41.77956
	128.1263	41.77993
	128.1252	41.78024
	128.1247	41.78092
	128.1239	41.78169
	128.1239	41.78233
	128.1238	41.78281
	128.1236	41.78306
	128.1234	41.78302
	128.1232	41.78265
	128.1228	41.78261
	128.1225	41.7828
	128.1211	41.78382
	128.1203	41.78386
	128.1194	41.78448
	128.1191	41.7846
	128.1184	41.78448
	128.1179	41.78452
	128.117	41.78543
	128.1166	41.78592
	128.116	41.78745
	128.1158	41.78813
	128.1151	41.78836
	128.1141	41.78853
	128.1137	41.78868
	128.1143	41.78889
	128.1147	41.78914
	128.1141	41.78948
	128.1132	41.78968
	128.1127	41.78984
	128.1124	41.78948
	128.1114	41.78912
	128.1103	41.78907
	128.1094	41.78909
	128.1083	41.78907
	128.1072	41.78957
	128.1066	41.78986
	128.1064	41.79027
	128.1067	41.79097
	128.107	41.79127
	128.107	41.79163
	128.1067	41.79237
	128.106	41.79322
	128.1056	41.79357
	128.1059	41.7941
	128.1056	41.79451
	128.1049	41.79456
	128.1041	41.79484
	128.1038	41.79514
	128.1034	41.79587
	128.1033	41.79679
	128.1037	41.79754
	128.1043	41.79823
	128.1036	41.79882
	128.1044	41.79902
	128.1044	41.79932
	128.1036	41.79984
	128.1037	41.79997
	128.1041	41.80017
	128.1042	41.80063
	128.104	41.80113
	128.1038	41.80125
	128.1035	41.80187
	128.1032	41.80218
	128.1029	41.80275
	128.1027	41.80339
	128.1021	41.80469
	128.1024	41.80531
	128.1029	41.80596
	128.1034	41.80634
	128.1041	41.80602
	128.1047	41.80627
	128.1052	41.80664
	128.1057	41.80731
	128.1052	41.80816
	128.1049	41.80891
	128.1048	41.80948
	128.1049	41.81041
	128.105	41.81164
	128.1046	41.81235
	128.1038	41.813
	128.1039	41.81331
	128.1041	41.81348
	128.1041	41.81414
	128.1038	41.81419
	128.1037	41.81447
	128.1039	41.81494
	128.1034	41.81541
	128.1036	41.81601
	128.1035	41.8164
	128.104	41.81687
	128.104	41.81725
	128.1037	41.81729
	128.1026	41.81687
	128.1021	41.81713
	128.1017	41.81761
	128.1012	41.81851
	128.1018	41.81856
	128.1018	41.81943
	128.1015	41.81966
	128.1003	41.81985
	128.0994	41.82036
	128.0989	41.82104
	128.0995	41.82154
	128.0993	41.82207
	128.0997	41.82234
	128.1	41.82283
	128.1	41.82325
	128.1004	41.82369
	128.1004	41.8241
	128.1001	41.82463
	128.0997	41.8251
	128.1001	41.82532
	128.1002	41.82571
	128.1	41.82639
	128.0998	41.82676
	128.0998	41.82716
	128.0995	41.82729
	128.0987	41.82692
	128.0986	41.8273
	128.099	41.82841
	128.0994	41.82893
	128.0993	41.82942
	128.0993	41.82987
	128.0995	41.83038
	128.0994	41.83106
	128.0988	41.83156
	128.0985	41.83219
	128.0988	41.83264
	128.0992	41.83288
	128.0993	41.83313
	128.0993	41.83366
	128.0995	41.83421
	128.0993	41.83469
	128.0991	41.83504
	128.0987	41.83528
	128.0985	41.83545
	128.098	41.83554
	128.0974	41.8358
	128.0972	41.83614
	128.097	41.83674
	128.0963	41.83794
	128.0967	41.83893
	128.0972	41.83888
	128.0976	41.8392
	128.0972	41.83951
	128.0973	41.83985
	128.0969	41.84036
	128.0972	41.84135
	128.0984	41.84247
	128.0984	41.8433
	128.0991	41.84385
	128.0997	41.84494
	128.1001	41.8453
	128.1001	41.84587
	128.0998	41.84652
	128.1004	41.84696
	128.1006	41.84751
	128.1004	41.84808
	128.0996	41.84832
	128.1001	41.84919
	128.0998	41.84947
	128.1001	41.85032
	128.1012	41.85102
	128.1017	41.85202
	128.1015	41.85293
	128.1023	41.8537
	128.1025	41.85411
	128.1019	41.85457
	128.1018	41.85475
	128.1017	41.85502
	128.102	41.85551
	128.1024	41.85608
	128.102	41.85695
	128.1026	41.85727
	128.1023	41.85755
	128.1026	41.85826
	128.1021	41.85884
	128.1021	41.86023
	128.1013	41.86139
	128.1016	41.86196
	128.1014	41.86287
	128.1016	41.86361
	128.1022	41.86471
	128.1021	41.86555
	128.1028	41.86571
	128.103	41.86605
	128.103	41.86678
	128.1033	41.86786
	128.1036	41.86814
	128.1037	41.86933
	128.1028	41.87045
	128.1031	41.87135
	128.1034	41.87183
	128.1031	41.87253
	128.1031	41.87312
	128.1029	41.87429
	128.1029	41.87476
	128.1028	41.87512
	128.1027	41.87572
	128.1029	41.87675
	128.1029	41.87718
	128.1027	41.87806
	128.1026	41.87823
	128.1028	41.87862
	128.1031	41.87908
	128.1035	41.87946
	128.1037	41.8798
	128.104	41.87998
	128.104	41.88025
	128.1044	41.88109
	128.1045	41.88136
	128.1045	41.88161
	128.1046	41.88199
	128.1046	41.88222
	128.1047	41.88227
	128.1047	41.8825
	128.1046	41.88271
	128.1046	41.88289
	128.1047	41.88301
	128.1046	41.88327
	128.1047	41.88333
	128.1047	41.88343
	128.1049	41.88369
	128.1051	41.88418
	128.1052	41.88475
	128.1055	41.88499
	128.1055	41.88513
	128.1054	41.88531
	128.1051	41.88569
	128.1051	41.88613
	128.1052	41.88629
	128.106	41.88692
	128.1061	41.88738
	128.1061	41.88761
	128.1064	41.88811
	128.1065	41.88849
	128.1068	41.88884
	128.1068	41.889
	128.1067	41.88938
	128.1067	41.88962
	128.1072	41.89033
	128.1073	41.89058
	128.1073	41.891
	128.1079	41.89204
	128.108	41.8927
	128.1081	41.89286
	128.1083	41.89347
	128.1084	41.89432
	128.1083	41.89497
	128.1082	41.89523
	128.108	41.89548
	128.1069	41.89641
	128.1064	41.89675
	128.1057	41.89738
	128.1053	41.89749
	128.1052	41.89749
	128.1043	41.89731
	128.1043	41.89752
	128.1045	41.89796
	128.1045	41.89825
	128.1037	41.89859
	128.1028	41.89883
	128.1027	41.89903
	128.1025	41.89909
	128.1023	41.89926
	128.1024	41.89953
	128.1023	41.89998
	128.1021	41.90022
	128.1021	41.90048
	128.1013	41.90142
	128.101	41.90233
	128.1011	41.90258
	128.101	41.90276
	128.1009	41.90313
	128.1005	41.90376
	128.1004	41.90394
	128.1006	41.90428
	128.1007	41.90452
	128.1007	41.90555
	128.1004	41.90576
	128.0999	41.90659
	128.0993	41.9081
	128.0991	41.90886
	128.0991	41.90972
	128.0992	41.90992
	128.0992	41.91027
	128.099	41.91104
	128.099	41.9128
	128.0992	41.9131
	128.0991	41.91326
	128.099	41.91374
	128.0988	41.91396
	128.0986	41.91436
	128.0987	41.91484
	128.0987	41.91502
	128.0982	41.91538
	128.0981	41.91549
	128.0982	41.9158
	128.0981	41.91621
	128.0981	41.91652
	128.0977	41.91698
	128.0977	41.91716
	128.0979	41.91738
	128.0979	41.91764
	128.0975	41.91793
	128.0975	41.91817
	128.0976	41.91833
	128.0979	41.9186
	128.098	41.91884
	128.098	41.91899
	128.0976	41.91983
	128.0977	41.92018
	128.0973	41.92109
	128.0973	41.92123
	128.0975	41.92139
	128.0975	41.92164
	128.0971	41.92228
	128.0973	41.92297
	128.097	41.9235
	128.0972	41.92408
	128.097	41.92452
	128.0973	41.92473
	128.098	41.92512
	128.0986	41.92549
	128.0987	41.92565
	128.0987	41.92608
	128.0988	41.92632
	128.0988	41.92678
	128.0989	41.92706
	128.099	41.92728
	128.0995	41.92758
	128.0996	41.92773
	128.0997	41.92775
	128.0998	41.92784
	128.0998	41.9281
	128.1	41.92893
	128.1001	41.92924
	128.1	41.92946
	128.0998	41.93004
	128.0998	41.93019
	128.0999	41.93028
	128.1003	41.93046
	128.1004	41.93063
	128.1002	41.93091
	128.1	41.93163
	128.0996	41.93208
	128.0995	41.93268
	128.0997	41.93287
	128.0998	41.93308
	128.0997	41.93315
	128.0996	41.93355
	128.0994	41.93386
	128.0997	41.93455
	128.0997	41.93479
	128.0996	41.93493
	128.0996	41.93523
	128.1001	41.93566
	128.1005	41.93575
	128.1006	41.93586
	128.1006	41.93593
	128.1004	41.93603
	128.1003	41.93612
	128.1004	41.93625
	128.1007	41.9365
	128.1008	41.93684
	128.1007	41.93761
	128.1005	41.93785
	128.1005	41.93815
	128.1003	41.93834
	128.1003	41.93874
	128.1004	41.939
	128.1002	41.93935
	128.1002	41.9395
	128.1007	41.93965
	128.1007	41.93979
	128.1005	41.93992
	128.1	41.94056
	128.1	41.94074
	128.0999	41.94145
	128.0996	41.94164
	128.0994	41.94193
	128.0996	41.94222
	128.0995	41.94252
	128.0995	41.94258
	128.0994	41.94277
	128.0995	41.94303
	128.0995	41.94341
	128.0994	41.94349
	128.0994	41.9438
	128.0995	41.94392
	128.0995	41.94481
	128.0992	41.94509
	128.099	41.94553
	128.0989	41.9459
	128.0987	41.94618
	128.0982	41.94652
	128.0982	41.94662
	128.098	41.94669
	128.0973	41.94712
	128.0971	41.94713
	128.0964	41.94745
	128.0958	41.94753
	128.0953	41.94776
	128.0951	41.94779
	128.0948	41.94775
	128.0946	41.94778
	128.0944	41.94795
	128.0942	41.948
	128.0938	41.94797
	128.0932	41.94828
	128.093	41.94834
	128.0926	41.94856
	128.0922	41.94863
	128.0915	41.94898
	128.0909	41.94935
	128.0904	41.94955
	128.0897	41.95013
	128.0889	41.95055
	128.0881	41.95105
	128.0879	41.95135
	128.0873	41.95193
	128.087	41.95247
	128.0864	41.95336
	128.0861	41.95366
	128.085	41.95454
	128.0837	41.95613
	128.0823	41.95811
	128.0822	41.95857
	128.0822	41.95892
	128.0819	41.95953
	128.0814	41.96002
	128.0812	41.96046
	128.0806	41.96097
	128.0802	41.96161
	128.0795	41.96203
	128.0789	41.9622
	128.0787	41.96233
	128.0777	41.96309
	128.0774	41.96328
	128.0765	41.96367
	128.0757	41.96415
	128.0746	41.965
	128.0743	41.96528
	128.074	41.96566
	128.0738	41.96601
	128.0738	41.9664
	128.0737	41.96697
	128.0735	41.9673
	128.0734	41.96736
	128.0731	41.96777
	128.0731	41.96843
	128.073	41.96901
	128.057	41.97863
	128.0567	41.97865
	128.0561	41.97893
	128.056	41.97901
	128.0558	41.97936
	128.0544	41.97949
	128.054	41.97943
	128.0537	41.97947
	128.0536	41.97961
	128.0531	41.97972
	128.0528	41.97968
	128.0523	41.97982
	128.0518	41.97991
	128.0515	41.98006
	128.0512	41.98007
	128.0507	41.98028
	128.0505	41.98047
	128.0504	41.98066
	128.0502	41.9808
	128.0501	41.98092
	128.0496	41.9812
	128.0492	41.98129
	128.0489	41.98154
	128.0482	41.98271
	128.0481	41.98298
	128.0482	41.98321
	128.0481	41.98353
	128.0468	41.9839
	128.0467	41.98406
	128.0463	41.98458
	128.046	41.98529
	128.0459	41.98592
	128.0456	41.98605
	128.0453	41.98602
	128.0447	41.98579
	128.0441	41.98575
	128.044	41.9858
	128.0439	41.98596
	128.0436	41.98611
	128.0428	41.98632
	128.0426	41.98651
	128.0424	41.98677
	128.0421	41.98699
	128.0418	41.98751
	128.0418	41.98795
	128.042	41.98827
	128.0412	41.98874
	128.0406	41.98934
	128.0403	41.98947
	128.0401	41.98947
	128.0397	41.98971
	128.0395	41.98996
	128.0394	41.99
	128.0393	41.99023
	128.0391	41.9903
	128.0388	41.99059
	128.0387	41.99075
	128.0387	41.99119
	128.0388	41.99129
	128.0386	41.99175
	128.0386	41.99204
	128.0384	41.99221
	128.0383	41.99254
	128.0376	41.99254
	128.0374	41.99261
	128.0367	41.99269
	128.0363	41.99285
	128.0359	41.9928
	128.0356	41.99285
	128.0351	41.99304
	128.0349	41.99318
	128.0346	41.99323
	128.0344	41.9932
	128.034	41.99333
	128.0338	41.99322
	128.0336	41.99326
	128.0335	41.9934
	128.0332	41.99354
	128.0331	41.99364
	128.0327	41.99375
	128.0324	41.99404
	128.0319	41.99441
	128.032	41.99447
	128.0317	41.99473
	128.0314	41.99508
	128.0312	41.99518
	128.0311	41.99528
	128.0312	41.99537
	128.0312	41.99549
	128.0307	41.99744
	128.0434	42.00218
	128.0584	42.01126
	128.0748	42.02138
	128.1807	42.02177
	128.285	42.02418
	128.3465	42.01987
	128.3888	42.01762
	128.451	42.01829
	128.4553	42.01623
	128.4588	42.01561
	128.4739	42.01034
	128.5	41.99604
	128.5101	41.99527
	128.5323	42.00051
	128.5434	42.002
	128.5486	41.99892
	128.5513	41.9988
	128.5551	41.99969
	128.5564	42.00068
	128.5593	42.00117
	128.5621	41.99733
	128.5637	41.99714
	128.5651	41.99742
	128.5693	42.00016
	128.5702	42.00015
	128.5723	42.00061
	128.574	41.99962
	128.5769	42.00004
	128.5795	42.00221
	128.58	42.00371
	128.5812	42.0046
	128.5821	42.00483
	128.583	42.0044
	128.5844	42.00434
	128.5854	42.00444
	128.5881	42.00664
	128.5899	42.00852
	128.5909	42.01011
	128.5918	42.01149
	128.5932	42.01236
	128.5931	42.01319
	128.5934	42.01452
	128.5931	42.01576
	128.592	42.01644
	128.591	42.01777
	128.5897	42.01979
	128.5896	42.0216
	128.5919	42.02474
	128.5983	42.02476
	128.606	42.0312
	128.6413	42.03339
	128.6493	42.02886
	128.6518	42.02498
	128.6525	42.02342
	128.6537	42.02253
	128.6541	42.02164
	128.6485	42.01887
	128.6494	42.0162
	128.6508	42.01552
	128.6538	42.01679
	128.66	42.01842
	128.6639	42.01796
	128.6696	42.01603
	128.6746	42.01326
	128.6766	42.01198
	128.6795	42.01295
	128.6821	42.01263
	128.6836	42.01276
	128.6842	42.01201
	128.6853	42.01194
	128.6848	42.01282
	128.6882	42.01531
	128.69	42.01565
	128.6908	42.0152
	128.6906	42.01455
	128.6919	42.01385
	128.6931	42.01329
	128.6938	42.01398
	128.6927	42.01454
	128.6925	42.01556
	128.692	42.01835
	128.6922	42.01918
	128.6935	42.01939
	128.6941	42.02004
	128.6956	42.02101
	128.6966	42.02108
	128.6974	42.02112
	128.6979	42.02127
	128.6983	42.02159
	128.699	42.02169
	128.6995	42.02199
	128.6993	42.02253
	128.7003	42.02306
	128.7013	42.02285
	128.7021	42.02305
	128.7029	42.02353
	128.7029	42.02405
	128.7031	42.02437
	128.7036	42.02456
	128.7037	42.02502
	128.7034	42.02539
	128.7033	42.02607
	128.7026	42.02635
	128.7179	42.03319
	128.724	42.04369
	128.7352	42.04967
	128.7442	42.04814
	128.7603	42.03456
	128.7663	42.03229
	128.7906	42.04123
	128.8027	42.04118
	128.8177	42.03436
	128.8338	42.02678
	128.8489	42.02823
	128.8543	42.02676
	128.8582	42.02302
	128.8727	42.02177
	128.8741	42.0202
	128.8747	42.01988
	128.8756	42.01993
	128.8761	42.02053
	128.8773	42.02181
	128.8792	42.02529
	128.8826	42.02628
	128.8851	42.02598
	128.8863	42.02544
	128.8871	42.02482
	128.8904	42.02302
	128.8913	42.02132
	128.8907	42.01971
	128.8907	42.01859
	128.8925	42.01704
	128.8947	42.01634
	128.8966	42.016
	128.8991	42.0148
	128.9037	42.01325
	128.9048	42.01233
	128.9053	42.01078
	128.9063	42.00953
	128.9082	42.00921
	128.911	42.01001
	128.9146	42.00993
	128.9159	42.01009
	128.9165	42.01109
	128.9164	42.01259
	128.9167	42.01398
	128.9178	42.01445
	128.9195	42.01433
	128.9216	42.01442
	128.9297	42.01618
	128.93	42.01681
	128.9292	42.01832
	128.9291	42.0191
	128.9297	42.01953
	128.9321	42.02071
	128.9353	42.02235
	128.9366	42.0233
	128.9374	42.02484
	128.9376	42.02604
	128.938	42.02674
	128.9386	42.02704
	128.9396	42.02704
	128.9426	42.02616
	128.9447	42.02466
	128.9454	42.02435
	128.947	42.02507
	128.9476	42.02901
	128.9455	42.03049
	128.9446	42.03192
	128.9454	42.03347
	128.9471	42.03461
	128.9482	42.0366
	128.9499	42.03823
	128.9507	42.0387
	128.9526	42.0408
	128.9528	42.04147
	128.9525	42.0422
	128.951	42.04327
	128.9507	42.04388
	128.9504	42.04749
	128.951	42.04884
	128.9522	42.04962
	128.9544	42.05169
	128.9556	42.05305
	128.9571	42.05376
	128.9584	42.05458
	128.9588	42.05527
	128.9582	42.05582
	128.9573	42.05613
	128.9562	42.05717
	128.9553	42.05857
	128.9549	42.06039
	128.9547	42.06087
	128.9535	42.06083
	128.9523	42.06003
	128.9518	42.05967
	128.9505	42.06003
	128.9488	42.06092
	128.9457	42.06321
	128.9454	42.0638
	128.9456	42.0649
	128.9454	42.06598
	128.9456	42.06658
	128.9462	42.06704
	128.9466	42.06806
	128.9473	42.06862
	128.9476	42.06981
	128.9477	42.07132
	128.9476	42.07238
	128.9476	42.07451
	128.9474	42.07597
	128.9461	42.07748
	128.9456	42.07833
	128.9463	42.07918
	128.947	42.0802
	128.947	42.0814
	128.9481	42.08308
	128.9498	42.08411
	128.9534	42.0846
	128.9573	42.08774
	128.9586	42.08835
	128.9613	42.09215
	128.9619	42.09293
	128.9623	42.09368
	128.9628	42.09454
	128.9634	42.0949
	128.9651	42.0947
	128.9668	42.0939
	128.9723	42.09
	128.9738	42.08943
	128.9757	42.08939
	128.9775	42.08986
	128.9787	42.09031
	128.9801	42.09062
	128.9831	42.09205
	128.9839	42.09262
	128.9845	42.0927
	128.9853	42.09248
	128.9866	42.09238
	128.9889	42.09217
	128.9928	42.09221
	128.995	42.09127
	128.9999	42.09002
	129.0037	42.08872
	129.0044	42.08983
	129.0051	42.09415
	129.0069	42.09702
	129.0086	42.09913
	129.0107	42.09986
	129.0149	42.09973
	129.0162	42.0994
	129.0185	42.0981
	129.0209	42.09763
	129.0226	42.09827
	129.0255	42.09901
	129.0259	42.09945
	129.0262	42.10023
	129.0261	42.10086
	129.0267	42.1023
	129.0279	42.10305
	129.0315	42.10365
	129.0348	42.1058
	129.034	42.10714
	129.0325	42.10814
	129.0315	42.10913
	129.0317	42.11078
	129.0325	42.11233
	129.0367	42.11323
	129.0386	42.11332
	129.0405	42.11412
	129.0406	42.11476
	129.0407	42.1151
	129.0419	42.11607
	129.0416	42.11695
	129.0411	42.11755
	129.0394	42.11791
	129.0379	42.11794
	129.032	42.11745
	129.0291	42.11681
	129.0272	42.11697
	129.026	42.11782
	129.0258	42.11865
	129.0266	42.11934
	129.0286	42.12039
	129.0313	42.12098
	129.034	42.12094
	129.0354	42.12159
	129.0364	42.12237
	129.0369	42.12407
	129.0365	42.12598
	129.0359	42.12717
	129.0354	42.12865
	129.0377	42.13049
	129.0398	42.13302
	129.0413	42.13463
	129.0429	42.13495
	129.0448	42.13418
	129.0475	42.13213
	129.0484	42.13183
	129.0499	42.13271
	129.0511	42.13493
	129.0514	42.13797
	129.0525	42.13868
	129.0544	42.13881
	129.0565	42.13794
	129.0579	42.13733
	129.0595	42.13745
	129.0637	42.13893
	129.0692	42.13743
	129.0709	42.13782
	129.072	42.13921
	129.0715	42.14022
	129.0693	42.14347
	129.0675	42.14681
	129.0658	42.14772
	129.0632	42.15047
	129.0632	42.15187
	129.0638	42.15303
	129.0658	42.15501
	129.067	42.15603
	129.0685	42.15684
	129.0702	42.1573
	129.0722	42.15707
	129.0756	42.15557
	129.0775	42.15408
	129.0792	42.15227
	129.08	42.15049
	129.0805	42.14861
	129.0806	42.14535
	129.0814	42.14322
	129.0836	42.14007
	129.0846	42.13953
	129.0866	42.13867
	129.0889	42.13825
	129.0909	42.13832
	129.0985	42.14169
	129.1001	42.14265
	129.101	42.14265
	129.1019	42.1424
	129.1038	42.13978
	129.1044	42.13874
	129.1054	42.13836
	129.1066	42.13801
	129.1091	42.13804
	129.1143	42.13884
	129.115	42.13974
	129.1152	42.14059
	129.1152	42.14167
	129.1151	42.14359
	129.1176	42.14581
	129.1195	42.14677
	129.1216	42.14752
	129.1269	42.14868
	129.1288	42.14982
	129.1293	42.1514
	129.1306	42.15271
	129.1314	42.15373
	129.1312	42.15466
	129.1297	42.15596
	129.128	42.1575
	129.1269	42.1587
	129.1265	42.15946
	129.1267	42.15993
	129.1273	42.16026
	129.1314	42.16128
	129.1326	42.16146
	129.1342	42.16179
	129.1358	42.16195
	129.1372	42.16202
	129.1385	42.162
	129.1391	42.16226
	129.1394	42.16252
	129.1393	42.16285
	129.1392	42.16327
	129.1391	42.16355
	129.1393	42.16385
	129.1401	42.1643
	129.1418	42.16459
	129.1443	42.16438
	129.1492	42.16336
	129.1518	42.16321
	129.1561	42.16328
	129.1602	42.16288
	129.163	42.16263
	129.1648	42.16302
	129.1658	42.16372
	129.1665	42.16447
	129.1665	42.16545
	129.1662	42.16652
	129.1648	42.16761
	129.163	42.16897
	129.1619	42.17282
	129.1611	42.17413
	129.1598	42.1762
	129.1583	42.17795
	129.1577	42.17881
	129.1574	42.17977
	129.1581	42.18253
	129.1594	42.18493
	129.1606	42.18577
	129.1638	42.1854
	129.1681	42.18515
	129.1714	42.18538
	129.1781	42.18639
	129.1832	42.18763
	129.1879	42.18881
	129.1898	42.19004
	129.1899	42.19146
	129.1894	42.19287
	129.1889	42.19516
	129.1881	42.19741
	129.1874	42.19975
	129.1877	42.20135
	129.1884	42.2029
	129.1902	42.20369
	129.1921	42.20342
	129.1936	42.20241
	129.1951	42.20212
	129.1983	42.20269
	129.2007	42.2035
	129.2031	42.2065
	129.2051	42.20625
	129.207	42.20571
	129.2087	42.20484
	129.2096	42.20385
	129.2109	42.20305
	129.2132	42.20253
	129.2153	42.2025
	129.2166	42.20286
	129.2198	42.20367
	129.2216	42.20498
	129.2221	42.20607
	129.2221	42.20717
	129.2205	42.20855
	129.2196	42.21022
	129.2198	42.21258
	129.22	42.21675
	129.2194	42.21716
	129.2171	42.21731
	129.2158	42.21715
	129.2147	42.2167
	129.2122	42.21521
	129.2107	42.21398
	129.2101	42.21331
	129.2082	42.21273
	129.2054	42.21349
	129.2035	42.21515
	129.2033	42.21583
	129.2031	42.21679
	129.203	42.21751
	129.2014	42.21856
	129.1999	42.21995
	129.1967	42.22463
	129.1961	42.22786
	129.197	42.22965
	129.1979	42.23035
	129.2039	42.23332
	129.2047	42.23384
	129.206	42.23644
	129.2046	42.23835
	129.2021	42.24215
	129.2007	42.24291
	129.1989	42.24216
	129.1946	42.24144
	129.1929	42.2417
	129.1909	42.24212
	129.1889	42.24219
	129.1881	42.2414
	129.1866	42.23939
	129.1855	42.23753
	129.1828	42.23454
	129.1815	42.23408
	129.18	42.23444
	129.1784	42.23505
	129.177	42.23597
	129.1759	42.23704
	129.1754	42.23783
	129.1753	42.2387
	129.1756	42.24237
	129.1767	42.24458
	129.1766	42.24891
	129.1772	42.25335
	129.1763	42.25756
	129.1764	42.25961
	129.1771	42.26083
	129.1781	42.26201
	129.1813	42.26406
	129.1854	42.265
	129.1882	42.26512
	129.191	42.26494
	129.194	42.26404
	129.1964	42.26304
	129.2003	42.2622
	129.2057	42.26204
	129.2089	42.26241
	129.2154	42.26426
	129.2178	42.26582
	129.2193	42.26804
	129.2202	42.26987
	129.2203	42.27111
	129.2208	42.27404
	129.2233	42.27583
	129.2248	42.2782
	129.2253	42.28046
	129.2253	42.28135
	129.2244	42.28286
	129.2234	42.28331
	129.2217	42.28311
	129.2206	42.28253
	129.2154	42.28157
	129.2122	42.28174
	129.2055	42.28356
	129.2022	42.28427
	129.201	42.28493
	129.2007	42.28597
	129.2018	42.28807
	129.2029	42.28924
	129.2046	42.29001
	129.206	42.29151
	129.2092	42.2927
	129.2173	42.29482
	129.2236	42.29652
	129.2263	42.29809
	129.2281	42.29966
	129.229	42.30184
	129.2299	42.30327
	129.2327	42.30414
	129.2362	42.30592
	129.2369	42.30739
	129.2365	42.30847
	129.2292	42.31058
	129.2251	42.31023
	129.2204	42.30824
	129.2139	42.30271
	129.2122	42.30304
	129.2101	42.30379
	129.2085	42.30482
	129.2048	42.30763
	129.1961	42.31219
	129.1946	42.31291
	129.1934	42.31361
	129.1928	42.31464
	129.1956	42.31719
	129.1982	42.31831
	129.2013	42.31962
	129.2041	42.32102
	129.2065	42.32114
	129.209	42.321
	129.2115	42.32058
	129.214	42.3199
	129.2167	42.31868
	129.2193	42.31709
	129.2225	42.31469
	129.2243	42.31323
	129.2287	42.3143
	129.2335	42.31565
	129.2406	42.31635
	129.2444	42.31719
	129.2485	42.31881
	129.2497	42.31968
	129.2503	42.3221
	129.251	42.32442
	129.2522	42.32647
	129.2563	42.32965
	129.2535	42.33327
	129.2334	42.34469
	129.2244	42.35377
	129.2378	42.36125
	129.2379	42.37697
	129.247	42.37765
	129.2602	42.37305
	129.2675	42.38802
	129.2756	42.38721
	129.2836	42.38264
	129.2897	42.38259
	129.2958	42.38555
	129.2975	42.38801
	129.3157	42.3821
	129.321	42.38434
	129.3208	42.38949
	129.3073	42.39915
	129.3034	42.40176
	129.3038	42.4033
	129.31	42.40304
	129.3136	42.40625
	129.3068	42.41244
	129.3064	42.41731
	129.309	42.42129
	129.3136	42.42124
	129.3176	42.41818
	129.3211	42.41768
	129.3244	42.42378
	129.3273	42.42786
	129.3309	42.43034
	129.3319	42.42584
	129.3278	42.42136
	129.3357	42.41003
	129.3398	42.40699
	129.3468	42.40693
	129.3561	42.41211
	129.3562	42.41813
	129.3372	42.43707
	129.3377	42.44258
	129.3416	42.44671
	129.3484	42.45164
	129.3583	42.45481
	129.3669	42.45335
	129.3688	42.44507
	129.3539	42.4321
	129.358	42.42597
	129.3652	42.42553
	129.375	42.42456
	129.3834	42.422
	129.3914	42.42805
	129.387	42.44567
	129.3912	42.45014
	129.4023	42.44929
	129.4096	42.43789
	129.4163	42.43276
	129.4252	42.43154
	129.4349	42.4332
	129.4371	42.4388
	129.4415	42.44139
	129.4488	42.43861
	129.4544	42.42662
	129.463	42.41851
	129.4837	42.41293
	129.5025	42.39366
	129.5152	42.3896
	129.5197	42.38098
	129.5327	42.36967
	129.5337	42.36615
	129.5347	42.36471
	129.5362	42.36319
	129.5373	42.36302
	129.5383	42.36335
	129.539	42.36397
	129.5397	42.36857
	129.5404	42.36959
	129.5413	42.36986
	129.5425	42.36938
	129.5444	42.36916
	129.5456	42.36871
	129.547	42.36739
	129.5468	42.36578
	129.5447	42.36299
	129.5439	42.36149
	129.5444	42.36069
	129.5458	42.36025
	129.5485	42.36091
	129.5511	42.36112
	129.553	42.3633
	129.5529	42.36525
	129.5523	42.36754
	129.5519	42.37066
	129.5493	42.37424
	129.5498	42.37542
	129.556	42.37791
	129.5602	42.37765
	129.5665	42.37799
	129.5695	42.37982
	129.5707	42.38123
	129.5714	42.38323
	129.5718	42.38516
	129.5711	42.38631
	129.5703	42.3866
	129.568	42.38592
	129.5615	42.38488
	129.5602	42.3856
	129.5583	42.38657
	129.5581	42.38847
	129.5597	42.39317
	129.5611	42.39611
	129.5638	42.3997
	129.5658	42.40157
	129.5701	42.40353
	129.571	42.40443
	129.5718	42.40723
	129.5739	42.41064
	129.5755	42.41239
	129.5774	42.41377
	129.5789	42.41447
	129.5817	42.41282
	129.585	42.41159
	129.5881	42.40904
	129.5891	42.40865
	129.5905	42.40876
	129.5923	42.40918
	129.5954	42.41215
	129.5972	42.41636
	129.5958	42.42018
	129.596	42.4251
	129.5987	42.42894
	129.6024	42.43175
	129.6054	42.43492
	129.6076	42.43777
	129.6086	42.44064
	129.6085	42.44286
	129.6073	42.44349
	129.605	42.44384
	129.602	42.44334
	129.5982	42.44193
	129.5952	42.44099
	129.5919	42.44126
	129.59	42.44333
	129.5888	42.44415
	129.5851	42.44541
	129.5844	42.44703
	129.5851	42.44914
	129.5871	42.45108
	129.5889	42.45147
	129.593	42.45106
	129.5982	42.45065
	129.6011	42.4525
	129.6051	42.45649
	129.6076	42.46015
	129.6087	42.46139
	129.6118	42.46231
	129.616	42.4625
	129.6186	42.46124
	129.6206	42.45987
	129.6225	42.45761
	129.6234	42.45476
	129.625	42.45133
	129.6268	42.44709
	129.6313	42.4433
	129.6331	42.44102
	129.6364	42.43766
	129.6412	42.43247
	129.643	42.42895
	129.6443	42.42636
	129.6466	42.42492
	129.6491	42.42452
	129.651	42.42512
	129.6533	42.42758
	129.655	42.42874
	129.6585	42.43142
	129.6613	42.43338
	129.667	42.43385
	129.6689	42.43433
	129.671	42.43418
	129.6752	42.43438
	129.6772	42.4331
	129.6788	42.43144
	129.6793	42.43005
	129.6824	42.42854
	129.6853	42.42931
	129.6894	42.4286
	129.6931	42.42713
	129.6968	42.42622
	129.6997	42.42569
	129.7029	42.4264
	129.7054	42.42781
	129.7082	42.4309
	129.7094	42.43368
	129.7127	42.43581
	129.7159	42.43747
	129.7204	42.43978
	129.7244	42.4416
	129.726	42.44261
	129.7262	42.44413
	129.7257	42.44748
	129.726	42.44884
	129.7283	42.45102
	129.7309	42.45357
	129.7326	42.45638
	129.7352	42.46028
	129.7353	42.46299
	129.737	42.46428
	129.7393	42.46504
	129.7433	42.46571
	129.7443	42.46623
	129.7444	42.4685
	129.7441	42.47102
	129.7426	42.4748
	129.7407	42.47772
	129.7404	42.4788
	129.7398	42.48075
	129.7395	42.48481
	129.7395	42.48761
	129.7404	42.4907
	129.7395	42.49261
	129.7369	42.49388
	129.7338	42.495
	129.732	42.49721
	129.7321	42.49986
	129.7334	42.50256
	129.7362	42.50431
	129.7369	42.50604
	129.7382	42.50815
	129.7394	42.51029
	129.74	42.51195
	129.7396	42.51378
	129.7371	42.51815
	129.7365	42.52012
	129.7385	42.52437
	129.7395	42.52539
	129.7421	42.52662
	129.744	42.52686
	129.7454	42.52911
	129.7453	42.5306
	129.7444	42.53339
	129.7437	42.53563
	129.7445	42.53707
	129.7462	42.54062
	129.7466	42.54211
	129.7454	42.54389
	129.7441	42.54653
	129.7407	42.55052
	129.7384	42.55446
	129.7354	42.55791
	129.735	42.55936
	129.7352	42.56106
	129.7373	42.56439
	129.7364	42.56606
	129.7359	42.56781
	129.7356	42.5699
	129.7357	42.57293
	129.7368	42.57656
	129.7381	42.57838
	129.7398	42.57999
	129.7422	42.58136
	129.7448	42.58235
	129.7502	42.58315
	129.7522	42.58401
	129.7528	42.58777
	129.7536	42.5893
	129.7553	42.59237
	129.7532	42.59572
	129.7555	42.5979
	129.7563	42.59966
	129.758	42.60124
	129.762	42.60269
	129.7713	42.60324
	129.7753	42.60345
	129.7788	42.6042
	129.7793	42.60504
	129.7785	42.60644
	129.7794	42.6088
	129.7804	42.61253
	129.7795	42.61364
	129.7781	42.61397
	129.7767	42.61435
	129.7721	42.61584
	129.7697	42.61593
	129.7653	42.61563
	129.7591	42.61451
	129.7577	42.61428
	129.7562	42.6145
	129.7543	42.61565
	129.7541	42.6176
	129.7533	42.61946
	129.7521	42.62186
	129.7522	42.62328
	129.7543	42.62527
	129.7591	42.62868
	129.7632	42.63103
	129.7664	42.63193
	129.7667	42.63244
	129.7654	42.63426
	129.7637	42.63668
	129.7622	42.63805
	129.7608	42.63886
	129.759	42.6392
	129.7556	42.63906
	129.7519	42.63967
	129.7486	42.64158
	129.7474	42.64497
	129.7473	42.64727
	129.7481	42.64896
	129.7506	42.65094
	129.7574	42.65362
	129.761	42.65472
	129.7638	42.65535
	129.7656	42.65493
	129.7666	42.65406
	129.7669	42.65228
	129.7674	42.65059
	129.7684	42.64925
	129.7687	42.64809
	129.7699	42.64621
	129.7711	42.64366
	129.7738	42.64285
	129.7766	42.64187
	129.7813	42.64149
	129.7843	42.64249
	129.7854	42.64447
	129.7854	42.64712
	129.7838	42.64853
	129.7819	42.64953
	129.7783	42.65068
	129.7758	42.65144
	129.7743	42.65293
	129.774	42.65524
	129.7743	42.65707
	129.7749	42.65875
	129.7761	42.66117
	129.7774	42.66339
	129.7776	42.66627
	129.7772	42.66796
	129.776	42.66873
	129.7741	42.67101
	129.7743	42.67213
	129.7763	42.67355
	129.7766	42.67418
	129.7774	42.67607
	129.7783	42.67712
	129.7836	42.67946
	129.7854	42.67976
	129.7876	42.6792
	129.7903	42.67672
	129.7915	42.67403
	129.7918	42.67307
	129.7931	42.67247
	129.7959	42.67272
	129.7987	42.67364
	129.8015	42.67579
	129.804	42.67857
	129.8031	42.68101
	129.8022	42.68172
	129.8005	42.68237
	129.7983	42.68288
	129.793	42.68305
	129.7908	42.6836
	129.79	42.68455
	129.7889	42.68565
	129.7851	42.68637
	129.783	42.68665
	129.7793	42.68746
	129.7745	42.69068
	129.7725	42.69235
	129.7712	42.69445
	129.7679	42.69833
	129.7635	42.70532
	129.7625	42.70622
	129.7609	42.70684
	129.761	42.707
	129.7598	42.70793
	129.7596	42.71152
	129.7598	42.71305
	129.76	42.71428
	129.761	42.71474
	129.7617	42.71738
	129.7611	42.72058
	129.7597	42.72464
	129.7606	42.72642
	129.7624	42.72839
	129.7657	42.72953
	129.7684	42.72931
	129.7714	42.73001
	129.7731	42.73292
	129.7737	42.73549
	129.7725	42.73777
	129.7743	42.74206
	129.776	42.74347
	129.7781	42.74632
	129.7801	42.74891
	129.781	42.7516
	129.7811	42.75383
	129.7823	42.75659
	129.7833	42.75816
	129.7829	42.76067
	129.782	42.76278
	129.7815	42.76498
	129.7821	42.76774
	129.7835	42.76836
	129.7859	42.77297
	129.7922	42.77596
	129.7939	42.77716
	129.7967	42.78007
	129.7981	42.78101
	129.8004	42.78404
	129.8013	42.78589
	129.8073	42.78823
	129.808	42.78883
	129.8087	42.79054
	129.8087	42.7957
	129.8073	42.79757
	129.8067	42.79998
	129.8072	42.80119
	129.8084	42.8034
	129.8088	42.80471
	129.8085	42.80616
	129.8063	42.80968
	129.8043	42.81145
	129.8017	42.81379
	129.8015	42.81506
	129.802	42.81612
	129.8046	42.81938
	129.8066	42.82201
	129.8077	42.82293
	129.809	42.82534
	129.8091	42.82907
	129.8104	42.83156
	129.8125	42.83509
	129.8134	42.83869
	129.815	42.83906
	129.8154	42.83959
	129.8153	42.84188
	129.8141	42.84272
	129.8116	42.84795
	129.8127	42.84984
	129.8147	42.85154
	129.8178	42.85316
	129.8211	42.85348
	129.8225	42.85437
	129.8251	42.85757
	129.8281	42.86187
	129.8312	42.86291
	129.8368	42.86472
	129.8384	42.86812
	129.8358	42.8711
	129.8353	42.87242
	129.8354	42.8744
	129.839	42.8798
	129.8407	42.88262
	129.8411	42.88412
	129.8408	42.88515
	129.8396	42.88687
	129.8396	42.8882
	129.8406	42.88933
	129.843	42.89064
	129.8438	42.89422
	129.8415	42.89849
	129.8397	42.90119
	129.8385	42.9041
	129.8402	42.90942
	129.8408	42.91011
	129.8422	42.91478
	129.8431	42.91719
	129.8438	42.92028
	129.8445	42.92134
	129.8465	42.92192
	129.8506	42.92166
	129.8549	42.91927
	129.8593	42.91599
	129.861	42.9155
	129.8654	42.91575
	129.8678	42.91661
	129.8681	42.91773
	129.8691	42.9187
	129.869	42.92001
	129.8692	42.92103
	129.8672	42.92342
	129.8621	42.92782
	129.8595	42.9326
	129.8517	42.94262
	129.8501	42.94564
	129.849	42.94931
	129.8506	42.95635
	129.8502	42.95862
	129.8514	42.96156
	129.8561	42.96646
	129.8614	42.96979
	129.8662	42.97243
	129.8685	42.97324
	129.8721	42.97313
	129.8783	42.97255
	129.8831	42.97253
	129.8921	42.97129
	129.9007	42.96803
	129.9037	42.96701
	129.9079	42.96696
	129.9092	42.96767
	129.912	42.96984
	129.9148	42.97261
	129.9165	42.97542
	129.9162	42.97785
	129.9145	42.97937
	129.9125	42.97904
	129.9096	42.9787
	129.9026	42.97958
	129.8947	42.97858
	129.8864	42.97858
	129.8821	42.97932
	129.8785	42.98133
	129.8773	42.98417
	129.8773	42.98712
	129.8776	42.98907
	129.8784	42.99189
	129.8805	42.99508
	129.8882	42.99947
	129.8947	43.00269
	129.9004	43.00503
	129.912	43.00772
	129.9205	43.00843
	129.9266	43.00811
	129.933	43.00859
	129.943	43.00889
	129.9501	43.00896
	129.9531	43.00861
	129.9556	43.00758
	129.9572	43.00571
	129.9564	43.00377
	129.9531	42.9995
	129.9516	42.99647
	129.9508	42.99327
	129.9503	42.9885
	129.951	42.98436
	129.9541	42.97874
	129.9584	42.97644
	129.9632	42.97494
	129.9699	42.97475
	129.9763	42.97295
	129.9799	42.97106
	129.9845	42.97054
	129.9977	42.97132
	130.0047	42.97067
	130.0113	42.97092
	130.0135	42.97049
	130.0174	42.96916
	130.0248	42.96731
	130.0298	42.96652
	130.0322	42.96672
	130.0345	42.96778
	130.0383	42.96984
	130.0399	42.97142
	130.0415	42.97172
	130.0425	42.97155
	130.0449	42.97074
	130.0462	42.96984
	130.0519	42.96841
	130.0569	42.96669
	130.0579	42.9666
	130.0631	42.96753
	130.0663	42.96991
	130.0715	42.97243
	130.0765	42.97519
	130.0802	42.97795
	130.0868	42.98222
	130.0914	42.98373
	130.0984	42.98662
	130.1055	42.98762
	130.112	42.98762
	130.1204	42.98624
	130.124	42.98536
	130.1263	42.98247
	130.1281	42.97796
	130.13	42.9772
	130.1324	42.97776
	130.1341	42.97886
	130.1359	42.97971
	130.1402	42.98009
	130.1446	42.97858
	130.1467	42.97582
	130.1463	42.97129
	130.1461	42.97042
	130.1451	42.96967
	130.1432	42.96889
	130.1417	42.9681
	130.135	42.96391
	130.1324	42.96279
	130.1244	42.96024
	130.1206	42.95807
	130.115	42.9541
	130.1149	42.95297
	130.1146	42.95041
	130.1158	42.94689
	130.1174	42.94388
	130.1193	42.94173
	130.1215	42.94016
	130.1238	42.93946
	130.1264	42.93951
	130.1294	42.94008
	130.132	42.94032
	130.1336	42.93947
	130.1336	42.93721
	130.1331	42.93495
	130.1325	42.9337
	130.129	42.93054
	130.1237	42.9295
	130.1199	42.92994
	130.1157	42.93015
	130.1114	42.92943
	130.1064	42.92842
	130.103	42.92718
	130.1015	42.92602
	130.1007	42.92104
	130.1014	42.91949
	130.1042	42.91497
	130.1071	42.91234
	130.1108	42.91221
	130.1217	42.91099
	130.1246	42.90969
	130.1321	42.90441
	130.1378	42.90189
	130.142	42.90249
	130.1449	42.90403
	130.1472	42.90584
	130.1501	42.90668
	130.1529	42.90755
	130.1539	42.90838
	130.1539	42.90865
	130.1545	42.90891
	130.1559	42.90997
	130.1589	42.91245
	130.1613	42.91352
	130.1631	42.91361
	130.1724	42.91386
	130.1788	42.91247
	130.1843	42.91082
	130.1887	42.90999
	130.2009	42.90656
	130.2034	42.90592
	130.2095	42.90395
	130.2184	42.90293
	130.2241	42.90266
	130.2323	42.90337
	130.2402	42.90487
	130.2472	42.90669
	130.2521	42.90717
	130.2562	42.90667
	130.259	42.90491
	130.262	42.90342
	130.2636	42.90102
	130.265	42.89611
	130.2679	42.88894
	130.2697	42.88489
	130.2681	42.87815
	130.2668	42.87349
	130.264	42.86886
	130.2591	42.86431
	130.2511	42.85996
	130.2482	42.85573
	130.2494	42.8526
	130.2529	42.84986
	130.2546	42.84492
	130.2552	42.84137
	130.2544	42.83811
	130.2492	42.83272
	130.2433	42.82511
	130.2376	42.82064
	130.2362	42.81483
	130.2393	42.80694
	130.2397	42.80365
	130.2409	42.80201
	130.2411	42.80121
	130.2414	42.80081
	130.2416	42.79979
	130.2419	42.79933
	130.2427	42.79872
	130.2435	42.79782
	130.2438	42.79729
	130.2442	42.79693
	130.245	42.79655
	130.2458	42.79557
	130.2462	42.79496
	130.2468	42.79448
	130.2478	42.7941
	130.2489	42.79354
	130.2494	42.79281
	130.2514	42.79168
	130.2521	42.79087
	130.2524	42.79031
	130.2527	42.78806
	130.2525	42.78682
	130.2525	42.78631
	130.2523	42.7859
	130.2512	42.78477
	130.2499	42.78389
	130.2485	42.78316
	130.2473	42.78286
	130.2454	42.78273
	130.245	42.78287
	130.2437	42.78307
	130.2411	42.78303
	130.2398	42.78218
	130.2395	42.78156
	130.2388	42.78108
	130.2381	42.78069
	130.2377	42.77998
	130.238	42.77933
	130.2386	42.77866
	130.2377	42.77476
	130.243	42.77024
	130.2434	42.76847
	130.2442	42.76283
	130.2432	42.75818
	130.2404	42.7558
	130.237	42.74773
	130.2351	42.74016
	130.237	42.73599
	130.2376	42.73348
	130.238	42.73106
	130.2385	42.72959
	130.2426	42.72538
	130.2435	42.72459
	130.2453	42.72224
	130.2475	42.71981
	130.2499	42.71732
	130.2516	42.71328
	130.2528	42.7063
	130.2551	42.70521
	130.2596	42.70385
	130.2704	42.70275
	130.2747	42.7023
	130.2799	42.70192
	130.2872	42.69997
	130.2898	42.69739
	130.2914	42.69583
	130.2948	42.69137
	130.2978	42.68366
	130.2997	42.67546
	130.304	42.6671
	130.3174	42.65127
	130.3285	42.64574
	130.3498	42.6382
	130.3541	42.63582
	130.3546	42.63224
	130.3569	42.62998
	130.3704	42.62302
	130.3745	42.6169
	130.3745	42.6064
	130.3773	42.60197
	130.3912	42.59784
	130.393	42.59807
	130.3997	42.6024
	130.4074	42.61169
	130.4128	42.61428
	130.4191	42.61478
	130.4214	42.61432
	130.4254	42.61122
	130.4301	42.60906
	130.436	42.6017
	130.4356	42.59604
	130.429	42.58765
	130.4249	42.58551
	130.4194	42.58418
	130.4157	42.57126
	130.418	42.56497
	130.4195	42.5608
	130.4292	42.5532
	130.4413	42.54964
	130.4464	42.54748
	130.4486	42.5466
	130.4547	42.54591
	130.4629	42.54766
	130.473	42.55239
	130.4779	42.55679
	130.4804	42.56174
	130.4804	42.56504
	130.4787	42.56912
	130.4763	42.5725
	130.4743	42.57776
	130.4694	42.5819
	130.4673	42.58588
	130.4616	42.58991
	130.4596	42.5953
	130.4595	42.59691
	130.4598	42.59967
	130.4608	42.60171
	130.4623	42.60414
	130.4641	42.60507
	130.4737	42.61192
	130.4781	42.61418
	130.483	42.61797
	130.4854	42.61965
	130.4893	42.62017
	130.4934	42.62021
	130.502	42.61903
	130.5133	42.61597
	130.517	42.61388
	130.5201	42.61054
	130.5221	42.6062
	130.5224	42.60072
	130.5212	42.59841
	130.5169	42.59592
	130.5124	42.59029
	130.5096	42.58351
	130.5099	42.58203
	130.5134	42.57721
	130.5172	42.57409
	130.5219	42.56954
	130.5246	42.56402
	130.5252	42.56171
	130.5248	42.55691
	130.5249	42.55152
	130.5245	42.54713
	130.5264	42.5424
	130.5296	42.53865
	130.5356	42.53431
	130.541	42.53109
	130.55	42.52314
	130.5507	42.51965
	130.5508	42.51378
	130.5486	42.50623
	130.548	42.50146
	130.5487	42.49926
	130.5489	42.49666
	130.5519	42.49204
	130.5562	42.48827
	130.5609	42.48683
	130.5785	42.48454
	130.5815	42.48268
	130.5837	42.47794
	130.5838	42.474
	130.5815	42.47282
	130.5779	42.47246
	130.5725	42.47091
	130.5697	42.46959
	130.5675	42.46861
	130.5663	42.4677
	130.564	42.46409
	130.5618	42.46027
	130.5612	42.45734
	130.5631	42.44771
	130.5657	42.44169
	130.5676	42.43723
	130.5727	42.43199
	130.5787	42.43017
	130.6052	42.43123
	130.6161	42.42986
	130.6301	42.42288
	130.637	42.41833
	130.6468	42.41122
	130.651	42.40164
	130.6533	42.39396
	130.6622	42.38524
	130.6696	42.37819
	130.6723	42.37301
	130.6707	42.36843
	130.6701	42.36711
	130.6678	42.3657
	130.6565	42.36031
	130.6548	42.35886
	130.6489	42.35282
	130.6465	42.34968
	130.6464	42.34637
	130.6463	42.33916
	130.6504	42.33019
	130.6545	42.3248
	130.6678	42.31396
	130.6777	42.30812
	130.69	42.29617
	130.6949	42.29406
	130.6967	42.29331
	130.7021	42.29273
	130.9246	42.17064
	130.8802	42.13404
	130.8125	42.10311
	130.7522	42.08917
	130.6888	42.06638
	130.6437	42.04353
	130.5876	42.03461
	130.5101	42.02871
	130.4879	42.0105
	130.4416	41.98029
	130.3878	41.95612
	130.3726	41.92989
	130.2826	41.88292
	130.2324	41.85497
	130.2059	41.8294
	130.1582	41.75686
	130.1124	41.72276
	130.0998	41.70462
	130.0785	41.66228
	130.048	41.62238
	130.0049	41.59801
	129.9476	41.56848
	129.9958	41.5294
	130.0552	41.43805
	130.0616	41.38145
	130.0575	41.32455
	130.0283	41.25834
	129.9939	41.18914
	129.9891	41.158
	129.9959	41.10176
	129.9916	41.04441
	130.013	40.99948
	130.0203	40.94285
	130.0072	40.85131
	129.9677	40.77662
	129.9177	40.69422
	129.7817	40.63429
	129.6766	40.63527
	129.5877	40.59469
	129.5287	40.57237
	129.5088	40.53781
	129.4065	40.48603
	129.3753	40.43401
	129.3203	40.39387
	129.2855	40.33867
	129.1538	40.27717
	129.104	40.26627
	129.0816	40.23963
	129.0138	40.19864
	128.9199	40.17113
	128.9127	40.13808
	128.8363	40.04022
	128.7746	40.00607
	128.7021	39.98004
	128.6511	39.965
	128.6031	39.93568
	128.5548	39.91291
	128.5342	39.8916
	128.473	39.85866
	128.4	39.83098
	128.3553	39.81397
	128.298	39.79533
	128.1983	39.77493
	128.1279	39.77386
	128.0965	39.77547
	128.0515	39.73063
	127.9932	39.70019
	127.894	39.6682
	127.8242	39.65557
	127.8296	39.64036
	127.8394	39.58822
	127.8239	39.55014
	127.8042	39.51209
	127.7882	39.48791
	127.8122	39.42437
	127.8216	39.37493
	127.8868	39.31454
	127.9755	39.23304
	128.029	39.15286
	128.122	39.09688
	128.1701	39.05908
	128.225	39.03935
	128.2755	39.01343
	128.2853	38.99264
	128.329	38.96202
	128.4315	38.92855
	128.5112	38.86174
	128.5391	38.81768
	128.5969	38.77432
	128.6116	38.72363
	128.6226	38.68324
	128.656	38.61772
	128.3743	38.62346
	128.3591	38.61543
	128.3587	38.61523
	128.3562	38.6139
	128.3493	38.61103
	128.3458	38.6106
	128.3429	38.60821
	128.341	38.60651
	128.3376	38.60351
	128.3323	38.60117
	128.3287	38.59859
	128.3277	38.5979
	128.3259	38.59671
	128.3193	38.59485
	128.311	38.59438
	128.3086	38.5893
	128.3099	38.58654
	128.3103	38.58547
	128.3098	38.58068
	128.3101	38.58022
	128.3123	38.57574
	128.3123	38.57467
	128.3119	38.57419
	128.3112	38.57397
	128.3065	38.56976
	128.3075	38.5635
	128.3076	38.56118
	128.3078	38.55806
	128.3082	38.5562
	128.3089	38.55278
	128.31	38.54749
	128.3101	38.54709
	128.3114	38.5425
	128.312	38.53949
	128.3125	38.53722
	128.3136	38.53194
	128.3136	38.52611
	128.313	38.52356
	128.312	38.51919
	128.3137	38.51416
	128.3125	38.51225
	128.3087	38.5089
	128.3058	38.50632
	128.3041	38.5026
	128.3048	38.50073
	128.3056	38.49845
	128.3052	38.49359
	128.3018	38.48851
	128.3026	38.48152
	128.3042	38.48099
	128.306	38.48015
	128.3062	38.47912
	128.3057	38.47843
	128.2994	38.47569
	128.2979	38.47287
	128.2977	38.47256
	128.2978	38.47012
	128.2977	38.46919
	128.2974	38.4658
	128.2957	38.46424
	128.2948	38.4616
	128.2918	38.45592
	128.2906	38.45449
	128.2888	38.45246
	128.2859	38.44853
	128.2845	38.44344
	128.2845	38.44326
	128.2844	38.44299
	128.2828	38.43675
	128.2788	38.43519
	128.2763	38.43446
	128.2754	38.43421
	128.2733	38.42361
	128.2686	38.42
	128.2675	38.41893
	128.2644	38.41583
	128.2616	38.41274
	128.2606	38.41167
	128.2558	38.40806
	128.2519	38.40389
	128.2498	38.4017
	128.2478	38.39972
	128.2436	38.39528
	128.2392	38.39194
	128.2344	38.38861
	128.2329	38.3874
	128.2297	38.385
	128.225	38.38167
	128.2197	38.37917
	128.2186	38.37828
	128.2175	38.37747
	128.2158	38.37616
	128.215	38.37556
	128.2135	38.37446
	128.2103	38.37222
	128.2082	38.37075
	128.2056	38.36889
	128.2008	38.36556
	128.1956	38.36278
	128.1908	38.35944
	128.1861	38.35611
	128.1844	38.3552
	128.1808	38.35333
	128.1778	38.35337
	128.1745	38.35277
	128.1656	38.34981
	128.1606	38.34812
	128.1586	38.34773
	128.1577	38.34291
	128.1575	38.34282
	128.1567	38.34254
	128.1556	38.34264
	128.1548	38.34381
	128.1533	38.34434
	128.152	38.34405
	128.1513	38.34352
	128.1514	38.34247
	128.1514	38.34219
	128.1506	38.34183
	128.1498	38.34155
	128.1476	38.34191
	128.1453	38.34165
	128.1443	38.34152
	128.1413	38.33708
	128.1354	38.33273
	128.1313	38.33222
	128.1269	38.33169
	128.1213	38.3351
	128.117	38.33769
	128.1163	38.33785
	128.1155	38.33807
	128.114	38.33752
	128.1071	38.33146
	128.1014	38.32753
	128.1002	38.3266
	128.0977	38.32483
	128.0937	38.32195
	128.0887	38.31891
	128.0853	38.31771
	128.0826	38.31672
	128.0777	38.31416
	128.0729	38.31056
	128.0673	38.30841
	128.0618	38.30728
	128.0547	38.30628
	128.0522	38.30667
	128.0469	38.30762
	128.0407	38.30813
	128.0396	38.30823
	128.0396	38.30826
	128.0393	38.30853
	128.0392	38.30935
	128.039	38.30943
	128.0381	38.30993
	128.0354	38.30998
	128.0336	38.31008
	128.0314	38.31075
	128.0311	38.31095
	128.0307	38.31127
	128.0309	38.31186
	128.031	38.3123
	128.0313	38.31287
	128.0318	38.31369
	128.0333	38.31466
	128.0333	38.31491
	128.0334	38.31507
	128.0231	38.31619
	128.0083	38.31504
	128.0021	38.31447
	127.9941	38.31462
	127.9865	38.31603
	127.9867	38.31959
	127.9856	38.32052
	127.9789	38.32074
	127.9782	38.3206
	127.9732	38.31945
	127.9623	38.31253
	127.9543	38.31304
	127.9503	38.31476
	127.9474	38.31526
	127.945	38.31668
	127.9335	38.32078
	127.9167	38.32342
	127.9001	38.32503
	127.8973	38.32941
	127.8967	38.33023
	127.8819	38.33085
	127.8814	38.32808
	127.879	38.31669
	127.8666	38.31247
	127.854	38.31386
	127.8474	38.31455
	127.8353	38.30953
	127.8297	38.30586
	127.8233	38.30409
	127.8217	38.30406
	127.8207	38.30655
	127.8157	38.31075
	127.8125	38.31298
	127.8108	38.3141
	127.8052	38.31688
	127.8028	38.3182
	127.7988	38.32135
	127.7967	38.32318
	127.7967	38.32326
	127.7951	38.3265
	127.793	38.33021
	127.7887	38.33741
	127.7888	38.33992
	127.7881	38.34156
	127.7876	38.34278
	127.7858	38.34687
	127.785	38.34789
	127.7846	38.34831
	127.783	38.34886
	127.7814	38.34882
	127.7799	38.34812
	127.779	38.34641
	127.7773	38.34418
	127.7761	38.34194
	127.7758	38.34164
	127.7755	38.34123
	127.7743	38.34068
	127.7726	38.34084
	127.7717	38.33698
	127.7715	38.33641
	127.7693	38.33546
	127.767	38.33556
	127.7656	38.33585
	127.7648	38.336
	127.7623	38.33718
	127.762	38.33736
	127.7616	38.33726
	127.7525	38.33474
	127.7423	38.34084
	127.7358	38.34002
	127.7329	38.33701
	127.7299	38.33532
	127.7264	38.33408
	127.7242	38.33335
	127.7231	38.33272
	127.7214	38.33155
	127.7201	38.33099
	127.7188	38.33046
	127.7182	38.33018
	127.7167	38.32942
	127.7151	38.32931
	127.7144	38.3297
	127.7141	38.33104
	127.7142	38.33497
	127.7135	38.33532
	127.7104	38.33539
	127.7078	38.33502
	127.7057	38.33511
	127.7044	38.33586
	127.7026	38.33667
	127.7002	38.33665
	127.6977	38.33564
	127.6956	38.33378
	127.6937	38.32981
	127.6917	38.32626
	127.6912	38.32505
	127.691	38.32452
	127.689	38.3242
	127.6783	38.32483
	127.6745	38.32422
	127.6689	38.32292
	127.6653	38.32566
	127.6639	38.32675
	127.6625	38.32654
	127.6605	38.32457
	127.6576	38.32467
	127.6538	38.32549
	127.644	38.32612
	127.6382	38.32275
	127.6358	38.32303
	127.6343	38.32306
	127.6334	38.3237
	127.6318	38.3253
	127.6262	38.32569
	127.622	38.32453
	127.6175	38.32468
	127.6163	38.33361
	127.5924	38.33354
	127.5828	38.33349
	127.5736	38.33355
	127.5704	38.33122
	127.5612	38.32854
	127.5575	38.32728
	127.5469	38.32444
	127.5436	38.32023
	127.5391	38.31833
	127.5342	38.31687
	127.5303	38.31293
	127.5251	38.30891
	127.5247	38.30856
	127.5181	38.30595
	127.5097	38.30364
	127.5056	38.30111
	127.4969	38.30278
	127.4944	38.30344
	127.4894	38.30472
	127.4857	38.30631
	127.4826	38.30621
	127.4816	38.30686
	127.479	38.311
	127.4765	38.31508
	127.47	38.31602
	127.4594	38.31733
	127.4541	38.31432
	127.4508	38.3125
	127.4442	38.315
	127.4375	38.31778
	127.4372	38.31793
	127.4322	38.32083
	127.4256	38.32333
	127.4169	38.325
	127.4115	38.32976
	127.401	38.33201
	127.3963	38.33479
	127.3853	38.33703
	127.38	38.33451
	127.3799	38.33448
	127.3795	38.33431
	127.3634	38.32698
	127.3635	38.32668
	127.3636	38.32533
	127.3628	38.32437
	127.3583	38.3259
	127.3544	38.3279
	127.3527	38.32771
	127.3517	38.32838
	127.3507	38.32909
	127.3487	38.32932
	127.345	38.32694
	127.3422	38.3254
	127.3394	38.32382
	127.334	38.32106
	127.3306	38.31747
	127.3292	38.31743
	127.3261	38.31864
	127.3244	38.32007
	127.3061	38.31732
	127.3039	38.31492
	127.3027	38.31411
	127.3025	38.31394
	127.3002	38.31312
	127.2979	38.31401
	127.2953	38.31844
	127.2913	38.32032
	127.2826	38.32257
	127.2665	38.32536
	127.2603	38.3266
	127.2508	38.32807
	127.2423	38.33245
	127.2346	38.33169
	127.2234	38.32824
	127.1683	38.30884
	127.1519	38.30522
	127.1504	38.30684
	127.1473	38.31002
	127.1442	38.31178
	127.1423	38.31282
	127.1407	38.31454
	127.14	38.31523
	127.1331	38.31517
	127.1294	38.30816
	127.1257	38.2991
	127.1212	38.2993
	127.1163	38.29787
	127.1105	38.29559
	127.1119	38.28955
	127.1119	38.28944
	127.1064	38.28759
	127.1061	38.2875
	127.1014	38.28417
	127.1012	38.28408
	127.0958	38.28083
	127.0914	38.2775
	127.0867	38.27389
	127.0835	38.27162
	127.0819	38.27056
	127.0778	38.26739
	127.0772	38.26694
	127.076	38.266
	127.0728	38.26361
	127.0713	38.26248
	127.0681	38.26
	127.0628	38.2575
	127.0599	38.25532
	127.0581	38.25389
	127.0528	38.25139
	127.052	38.25099
	127.0475	38.24861
	127.043	38.24647
	127.0422	38.24611
	127.0416	38.24589
	127.0364	38.24417
	127.0311	38.24167
	127.025	38.23972
	127.0226	38.23861
	127.0197	38.23722
	127.0144	38.23444
	127.0128	38.22959
	127.0092	38.22712
	127.0092	38.22708
	127.0056	38.22247
	127.0	38.21613
	126.9883	38.21607
	126.986	38.21431
	126.9828	38.20944
	126.9794	38.20444
	126.9761	38.19917
	126.9632	38.18987
	126.9697	38.18529
	126.9692	38.18428
	126.9684	38.18287
	126.9665	38.17747
	126.9665	38.1774
	126.9654	38.17347
	126.9647	38.16941
	126.9647	38.16905
	126.9596	38.16541
	126.9555	38.1628
	126.9518	38.16238
	126.9508	38.16073
	126.949	38.15788
	126.9596	38.15212
	126.9601	38.15188
	126.9685	38.14742
	126.97	38.14471
	126.97	38.14304
	126.9669	38.13862
	126.9647	38.13537
	126.9581	38.13221
	126.9578	38.13241
	126.9556	38.13371
	126.952	38.13412
	126.9495	38.13444
	126.9475	38.13415
	126.9472	38.13386
	126.947	38.13362
	126.9441	38.1336
	126.9436	38.13353
	126.9399	38.13356
	126.9372	38.12716
	126.9344	38.12676
	126.932	38.12521
	126.9278	38.12238
	126.9258	38.12116
	126.9226	38.11927
	126.9147	38.11722
	126.9091	38.11567
	126.907	38.11147
	126.9046	38.11067
	126.9029	38.10707
	126.9024	38.10594
	126.9003	38.10275
	126.898	38.10016
	126.8921	38.10171
	126.8904	38.10217
	126.8818	38.1034
	126.8815	38.1035
	126.8812	38.10339
	126.881	38.10302
	126.8808	38.10274
	126.8807	38.10256
	126.8802	38.1022
	126.88	38.10201
	126.8795	38.10174
	126.8786	38.10154
	126.8779	38.1013
	126.8777	38.10114
	126.8777	38.10111
	126.8777	38.10086
	126.8779	38.10069
	126.8779	38.10067
	126.8781	38.10059
	126.8782	38.10052
	126.8782	38.10041
	126.8781	38.10026
	126.8779	38.10015
	126.8775	38.10017
	126.8771	38.10016
	126.8769	38.09997
	126.8768	38.09981
	126.8768	38.09973
	126.8769	38.09939
	126.8769	38.09909
	126.8768	38.09907
	126.8766	38.09886
	126.8765	38.09853
	126.8765	38.09843
	126.8765	38.09813
	126.8767	38.09773
	126.8768	38.09748
	126.8768	38.09735
	126.8767	38.09733
	126.8766	38.09728
	126.8756	38.09709
	126.8751	38.09698
	126.8748	38.09663
	126.8748	38.09596
	126.8748	38.09586
	126.8749	38.0956
	126.8753	38.09536
	126.8752	38.09499
	126.8752	38.0948
	126.8744	38.09467
	126.8738	38.09432
	126.8735	38.09406
	126.8736	38.09338
	126.8735	38.09286
	126.8733	38.09207
	126.8733	38.09189
	126.8734	38.09157
	126.8734	38.09106
	126.873	38.09085
	126.8729	38.09048
	126.873	38.09022
	126.873	38.09
	126.8729	38.08987
	126.8728	38.08983
	126.8727	38.08979
	126.8725	38.08974
	126.8717	38.08903
	126.8714	38.08902
	126.871	38.08887
	126.8709	38.08883
	126.8708	38.08875
	126.8707	38.08866
	126.8705	38.08852
	126.8704	38.0885
	126.8701	38.0884
	126.87	38.08805
	126.8701	38.08798
	126.87	38.08757
	126.8699	38.08743
	126.8698	38.08701
	126.8698	38.08686
	126.8699	38.08674
	126.8701	38.08667
	126.8701	38.08642
	126.8699	38.08617
	126.8698	38.08602
	126.8689	38.08587
	126.8689	38.08519
	126.8691	38.08512
	126.8695	38.08511
	126.8699	38.08498
	126.8699	38.08496
	126.8701	38.08482
	126.87	38.08477
	126.87	38.08461
	126.8698	38.08445
	126.8696	38.08448
	126.8696	38.08449
	126.8695	38.08422
	126.8693	38.08395
	126.8694	38.08375
	126.8694	38.08369
	126.8692	38.08363
	126.869	38.08339
	126.8689	38.08323
	126.8687	38.08272
	126.8684	38.08216
	126.8681	38.08218
	126.8681	38.08212
	126.8679	38.08196
	126.8682	38.08119
	126.8682	38.08115
	126.8681	38.08097
	126.8681	38.08016
	126.8685	38.07962
	126.8686	38.07945
	126.869	38.07943
	126.8694	38.07934
	126.8695	38.07895
	126.8696	38.07887
	126.8699	38.07869
	126.8706	38.07858
	126.871	38.07827
	126.871	38.07796
	126.8707	38.07767
	126.8703	38.07758
	126.8698	38.07784
	126.8695	38.07783
	126.8694	38.07769
	126.8694	38.07761
	126.8692	38.07734
	126.8692	38.0773
	126.8689	38.07721
	126.8686	38.07667
	126.869	38.07638
	126.8691	38.07618
	126.8691	38.07615
	126.8696	38.07482
	126.8696	38.07433
	126.8696	38.07427
	126.8695	38.07406
	126.8691	38.07397
	126.8682	38.0743
	126.8678	38.07425
	126.8674	38.07389
	126.8674	38.07353
	126.8674	38.07349
	126.8677	38.07317
	126.868	38.07281
	126.868	38.07271
	126.868	38.07205
	126.8676	38.0714
	126.8676	38.07029
	126.8677	38.06974
	126.8677	38.06938
	126.8675	38.06921
	126.8671	38.06892
	126.8666	38.06875
	126.8657	38.06883
	126.8655	38.06858
	126.8655	38.06853
	126.8656	38.06806
	126.8658	38.06782
	126.8658	38.06735
	126.8656	38.06704
	126.8652	38.06685
	126.865	38.06691
	126.8649	38.06698
	126.8645	38.06716
	126.8642	38.06734
	126.8639	38.06741
	126.8636	38.06731
	126.8628	38.06738
	126.8628	38.06736
	126.8622	38.06708
	126.862	38.06639
	126.8622	38.06604
	126.8622	38.066
	126.8621	38.06567
	126.862	38.06561
	126.8623	38.06513
	126.862	38.06235
	126.8618	38.05948
	126.8591	38.05363
	126.8565	38.0412
	126.8569	38.04036
	126.857	38.04004
	126.857	38.03976
	126.8567	38.03963
	126.8565	38.03957
	126.8555	38.03919
	126.8532	38.03891
	126.8527	38.03858
	126.8523	38.03839
	126.8514	38.03751
	126.8511	38.0371
	126.8507	38.03638
	126.8509	38.03591
	126.8509	38.0358
	126.8515	38.03532
	126.8521	38.0346
	126.8524	38.03428
	126.8469	38.03327
	126.8411	38.03379
	126.8372	38.02934
	126.8325	38.02518
	126.8283	38.02018
	126.8244	38.01601
	126.8234	38.01205
	126.8237	38.00913
	126.8239	38.00774
	126.8188	38.00318
	126.8124	37.99908
	126.8028	37.99712
	126.7953	37.99676
	126.7914	37.99685
	126.7882	37.99316
	126.7858	37.99021
	126.7838	37.98623
	126.7832	37.98409
	126.7807	37.9795
	126.7717	37.98158
	126.767	37.97848
	126.7621	37.97409
	126.7585	37.97221
	126.7581	37.97199
	126.7485	37.97173
	126.747	37.97065
	126.7455	37.96962
	126.7403	37.96722
	126.7363	37.96471
	126.7337	37.95958
	126.7286	37.95914
	126.7263	37.95777
	126.7215	37.95481
	126.7154	37.95462
	126.7089	37.95344
	126.7067	37.95355
	126.7051	37.95284
	126.7046	37.95263
	126.7031	37.95274
	126.7011	37.95309
	126.6988	37.95325
	126.6977	37.95366
	126.6977	37.95368
	126.6973	37.9544
	126.6964	37.95485
	126.6959	37.95499
	126.6953	37.95519
	126.6949	37.95537
	126.6948	37.95546
	126.6943	37.95588
	126.6937	37.95644
	126.6935	37.95666
	126.6928	37.95695
	126.6919	37.95736
	126.691	37.95774
	126.6907	37.95785
	126.6897	37.95828
	126.6883	37.95881
	126.6865	37.95853
	126.6856	37.95807
	126.6853	37.95795
	126.6851	37.95782
	126.6841	37.95737
	126.6832	37.95695
	126.6819	37.95658
	126.6808	37.95602
	126.6798	37.95564
	126.6787	37.95516
	126.6784	37.95499
	126.6776	37.95575
	126.677	37.95618
	126.6768	37.95637
	126.6764	37.95657
	126.6758	37.95692
	126.6752	37.95728
	126.6726	37.958
	126.6708	37.95793
	126.6708	37.95734
	126.6709	37.95694
	126.6708	37.95688
	126.6707	37.95673
	126.6705	37.95668
	126.6704	37.95657
	126.6706	37.95635
	126.6707	37.95605
	126.6707	37.95582
	126.6703	37.95565
	126.6701	37.95539
	126.6701	37.95525
	126.6701	37.95498
	126.6702	37.95469
	126.6702	37.95412
	126.6701	37.95386
	126.6702	37.95358
	126.6704	37.95327
	126.6705	37.95319
	126.6708	37.95211
	126.6706	37.95198
	126.6706	37.95196
	126.6706	37.9518
	126.6707	37.9515
	126.67	37.9462
	126.6697	37.94517
	126.6694	37.9444
	126.6701	37.94095
	126.6719	37.93985
	126.6723	37.93956
	126.672	37.93773
	126.6715	37.93424
	126.6736	37.93021
	126.6737	37.92991
	126.6738	37.9295
	126.6742	37.92749
	126.6768	37.92555
	126.6777	37.923
	126.6786	37.9202
	126.6875	37.91685
	126.6885	37.91192
	126.6833	37.89999
	126.6833	37.87336
	126.685	37.86965
	126.6845	37.86627
	126.6855	37.86038
	126.6872	37.85377
	126.6892	37.84894
	126.6897	37.84359
	126.6883	37.83795
	126.6734	37.83233
	126.6721	37.83115
	126.6677	37.82691
	126.6652	37.8168
	126.6634	37.80982
	126.6619	37.79843
	126.6622	37.79504
	126.6631	37.78812
	126.663	37.78803
	126.6581	37.78188
	126.6459	37.78229
	126.6304	37.78188
	126.6207	37.77944
	126.6203	37.77912
	126.6109	37.77008
	126.6021	37.76519
	126.5908	37.76315
	126.5783	37.76315
	126.5684	37.76672
	126.5662	37.7675
	126.5539	37.77672
	126.5536	37.77692
	126.54	37.78541
	126.5213	37.79436
	126.5046	37.8006
	126.4797	37.80847
	126.4756	37.80994
	126.4677	37.81281
	126.4608	37.81593
	126.4602	37.81666
	126.4536	37.82365
	126.4474	37.83233
	126.4385	37.83789
	126.427	37.84128
	126.4133	37.84372
	126.3084	37.82908
	126.2936	37.82542
	126.2758	37.82555
	126.2648	37.82786
	126.2375	37.83165
	126.2229	37.82976
	126.2132	37.82598
	126.2061	37.82325
	126.1951	37.8162
	126.1936	37.8086
	126.1912	37.79707
	126.1898	37.78161
	126.1894	37.777
	126.1887	37.76722
	126.1886	37.76533
	126.1884	37.76115
	126.1877	37.74795
	126.1742	37.73166
	126.1615	37.71795
	126.1398	37.71026
	126.1381	37.70967
	126.0947	37.71225
	126.0194	37.71668
	125.935	37.72319
	125.8364	37.73124
	125.7774	37.72337
	125.7764	37.72291
	125.7233	37.69736
	125.6626	37.69105
	125.6118	37.68099
	125.4721	37.65342
	125.4256	37.64426
	125.3762	37.62982
	125.349	37.62828
	125.343	37.62795
	125.2676	37.63125
	125.1958	37.63669
	125.1201	37.65102
	125.0575	37.66976
	124.9913	37.71173
	124.9468	37.74667
	124.9073	37.77923
	124.8717	37.81593
	124.8673	37.82709
	124.8577	37.85106
	124.8572	37.89556
	124.8567	37.93021
	124.8395	37.976
	124.7793	38.01612
	124.7099	38.04282
	124.6394	38.05547
	124.5566	38.06532
	124.4957	38.06813
	124.3843	38.06811
	124.3835	38.131
	124.3981	38.1886
	124.4286	38.22843
	124.4449	38.24923
	124.5523	38.29628
	124.5934	38.33066
	124.5878	38.35511
	124.5412	38.39259
	124.5159	38.44231
	124.5057	38.49234
	124.5084	38.53698
	124.5172	38.59465
	124.5388	38.64495
	124.5732	38.68431
	124.6137	38.71843
	124.6962	38.76336
	124.71	38.80793
	124.7413	38.85886
	124.7969	38.9091
	124.8742	38.94722
	124.9161	39.00932
	124.9593	39.08109
	125.022	39.15991
	125.0257	39.18066
	125.0297	39.1962
	125.0045	39.20423
	124.9733	39.20889
	124.9678	39.19424
	124.9509	39.16509
	124.8924	39.10289
	124.8109	39.07481
	124.7155	39.06135
	124.6503	39.06495
	124.5822	39.0813
	124.5329	39.10486
	124.4933	39.13818
	124.4666	39.19723
	124.4505	39.24876
	124.4022	39.27527
	124.3697	39.30576
	124.3298	39.37277
	124.3184	39.43912
	124.3205	39.46194
	124.3271	39.48101
	124.2843	39.49197
	124.2521	39.50513
	124.2227	39.52352
	124.1937	39.54955
	124.1831	39.57043
	124.1804	39.58947
	124.1756	39.59
	124.1696	39.591
	124.1641	39.592
	124.1592	39.593
	124.1545	39.594
	124.1502	39.595
	124.1462	39.596
	124.1423	39.597
	124.1352	39.599
	124.1286	39.601
	124.1225	39.603
	124.1168	39.605
	124.1088	39.608
	124.1054	39.609
	124.1016	39.61
	124.0914	39.61178
END
END
