Norway_North Trondelag
1
	9.699817	64.72845
	9.803071	64.78034
	9.997539	64.87255
	10.08558	64.99094
	10.36683	65.26711
	10.57782	65.47295
	10.94981	65.40946
	11.02701	65.39629
	11.40172	65.29767
	11.48447	65.23932
	11.83105	65.15848
	11.94613	65.14968
	11.95741	65.11519
	11.88046	65.07045
	11.94285	65.06669
	11.9502	65.07191
	11.9515	65.07279
	11.95234	65.07372
	11.95292	65.0751
	11.954	65.07602
	11.95922	65.07773
	11.97787	65.07185
	11.98128	65.07101
	11.98467	65.07077
	11.98449	65.06789
	12.00213	65.06862
	12.01886	65.06836
	12.03412	65.06758
	12.04219	65.06748
	12.04477	65.06738
	12.04759	65.06722
	12.04898	65.06697
	12.04912	65.06591
	12.04901	65.06508
	12.04866	65.06436
	12.04808	65.06379
	12.04676	65.06305
	12.04611	65.06266
	12.04616	65.06249
	12.04683	65.06225
	12.04633	65.06209
	12.04558	65.06196
	12.04531	65.0618
	12.04487	65.06132
	12.04464	65.06093
	12.04494	65.06045
	12.04497	65.06025
	12.04448	65.05969
	12.04462	65.05948
	12.04492	65.0593
	12.04501	65.05898
	12.04457	65.05863
	12.04505	65.05808
	12.04532	65.05788
	12.04561	65.05773
	12.04629	65.05705
	12.0495	65.01808
	12.08378	65.0016
	12.12974	65.00102
	12.12515	65.01309
	12.14879	65.02008
	12.18912	65.00204
	12.1903	64.97916
	12.27764	64.96211
	12.39445	64.9932
	12.50933	64.97911
	12.58025	64.98811
	12.6299	64.94259
	12.71592	64.9537
	12.7682	64.94359
	12.77411	64.97709
	12.93369	64.98611
	12.94778	65.00137
	12.90999	65.03015
	12.96722	65.03364
	12.9987	65.06995
	13.05544	65.07505
	13.08618	65.10978
	13.41374	65.09824
	13.52833	65.1169
	13.62639	65.1058
	13.66421	65.10879
	14.01174	65.12918
	14.06375	65.12222
	14.16305	65.13962
	14.19366	65.1318
	14.24239	65.13362
	14.28195	65.12127
	14.32576	65.11906
	14.28189	65.08787
	14.20505	65.03292
	14.10819	64.96226
	14.04659	64.91449
	14.01512	64.88982
	13.99361	64.86778
	13.97389	64.85167
	13.95583	64.83556
	13.93371	64.82415
	13.9312	64.82212
	13.91644	64.81027
	13.87336	64.77573
	13.84967	64.75647
	13.8438	64.75171
	13.81729	64.73011
	13.81556	64.72871
	13.81167	64.7175
	13.79056	64.70139
	13.76972	64.68556
	13.74861	64.66972
	13.7275	64.65361
	13.7075	64.63972
	13.70333	64.63361
	13.69694	64.62944
	13.69261	64.62317
	13.68872	64.61934
	13.6875	64.61806
	13.68222	64.61278
	13.67694	64.60778
	13.67306	64.60167
	13.66889	64.59583
	13.66374	64.5912
	13.65796	64.58519
	13.65408	64.57993
	13.6925	64.56833
	13.70278	64.56528
	13.7089	64.56366
	13.71306	64.5625
	13.80331	64.53326
	13.89244	64.507
	13.95919	64.49756
	14.08601	64.47814
	14.11424	64.46186
	14.12056	64.45278
	14.1219	64.43541
	14.12691	64.39917
	14.14837	64.26175
	14.1506	64.23766
	14.15516	64.20878
	14.15581	64.20303
	14.15793	64.18608
	14.10167	64.13389
	14.095	64.12944
	14.04111	64.07833
	14.03583	64.07306
	13.98167	64.01306
	13.94306	64.01667
	13.905	64.02083
	13.86646	64.02383
	13.71512	64.0453
	13.53327	64.06509
	13.30535	64.08571
	13.29139	64.08667
	13.21094	64.09517
	13.20235	64.0941
	13.17214	64.09008
	13.16047	64.08869
	13.13909	64.08611
	13.08581	64.07901
	12.99799	64.06762
	12.93724	64.0592
	12.92684	64.05784
	12.90844	64.05155
	12.88892	64.04489
	12.86316	64.0358
	12.79186	64.01231
	12.74075	63.99342
	12.69222	63.97537
	12.68606	63.97389
	12.47978	63.81967
	12.3685	63.74185
	12.33997	63.72699
	12.33511	63.71794
	12.31882	63.6955
	12.31503	63.69102
	12.29758	63.67322
	12.29312	63.6704
	12.27501	63.65737
	12.19437	63.6179
	12.15156	63.5967
	12.14977	63.59394
	12.18239	63.53392
	12.21288	63.47859
	12.18863	63.45604
	12.1401	63.41071
	12.09838	63.36968
	12.08409	63.35558
	12.0603	63.33695
	12.03383	63.31626
	12.01793	63.30363
	11.97458	63.26923
	11.99832	63.24258
	12.02413	63.21461
	12.04739	63.18904
	11.92429	63.19526
	11.62903	63.18225
	11.45462	63.33118
	11.17996	63.34658
	10.96847	63.33118
	10.85312	63.3472
	10.86685	63.39767
	10.85175	63.44621
	10.57159	63.50264
	10.42008	63.51963
	10.08614	63.48149
	9.985886	63.48425
	9.943314	63.49559
	9.926147	63.5057
	9.826584	63.6005
	9.786072	63.64504
	9.726334	63.67672
	9.602737	63.6551
	9.495621	63.6243
	9.464035	63.66759
	9.41391	63.73026
	9.190063	63.83582
	9.7229	64.26368
	9.198211	64.4847
	9.32524	64.54729
	9.698289	64.72771
	9.699817	64.72845
END
END
