Poland_Lubusz Voivodeship
1
	14.56405	52.62469
	14.5645	52.62557
	14.56468	52.62687
	14.56727	52.62736
	14.56838	52.62888
	14.56831	52.62894
	14.56877	52.6298
	14.57161	52.62898
	14.57271	52.63052
	14.57307	52.63112
	14.57378	52.63218
	14.57352	52.63228
	14.57372	52.63273
	14.57289	52.6332
	14.57454	52.63561
	14.57489	52.63568
	14.57557	52.63596
	14.57673	52.63636
	14.57811	52.63505
	14.57721	52.63346
	14.57979	52.63325
	14.58072	52.63316
	14.58065	52.63304
	14.58271	52.63239
	14.58286	52.63255
	14.58702	52.63467
	14.60382	52.64275
	14.61614	52.64871
	14.62851	52.65484
	14.62837	52.65564
	14.62797	52.6565
	14.6287	52.65676
	14.62849	52.65766
	14.62877	52.65916
	14.62885	52.65992
	14.62862	52.6604
	14.62903	52.66049
	14.62917	52.6605
	14.62943	52.66049
	14.63018	52.6604
	14.63475	52.65968
	14.63565	52.65965
	14.63619	52.65962
	14.63819	52.65946
	14.63826	52.65943
	14.63844	52.65915
	14.63861	52.65901
	14.63879	52.6589
	14.63898	52.65883
	14.63932	52.65879
	14.63969	52.65863
	14.64015	52.65774
	14.6418	52.65758
	14.64182	52.6574
	14.64265	52.65719
	14.64395	52.65707
	14.64401	52.65648
	14.64424	52.65634
	14.64494	52.65623
	14.64528	52.65609
	14.64542	52.65571
	14.64542	52.65539
	14.64648	52.65467
	14.64733	52.65459
	14.64738	52.65457
	14.64764	52.65368
	14.64883	52.65352
	14.65036	52.65328
	14.64955	52.65236
	14.64781	52.6515
	14.64724	52.65123
	14.65099	52.65047
	14.65405	52.65003
	14.65519	52.64975
	14.6567	52.64979
	14.65742	52.64964
	14.65843	52.64945
	14.65975	52.64922
	14.66049	52.64907
	14.66248	52.64804
	14.66303	52.64703
	14.66365	52.64652
	14.66357	52.6463
	14.66297	52.64627
	14.66233	52.64632
	14.66216	52.64622
	14.66202	52.64612
	14.66118	52.64581
	14.66105	52.64541
	14.65969	52.64472
	14.65908	52.64464
	14.65858	52.64404
	14.65826	52.64292
	14.65828	52.64235
	14.66082	52.64156
	14.66187	52.64125
	14.6622	52.64117
	14.66311	52.64088
	14.66447	52.64038
	14.66681	52.63963
	14.66742	52.63903
	14.66993	52.63838
	14.66971	52.63781
	14.66998	52.63775
	14.6726	52.63734
	14.67465	52.63739
	14.67534	52.63733
	14.67686	52.63698
	14.67975	52.63663
	14.68288	52.63651
	14.68464	52.63651
	14.68995	52.63579
	14.68986	52.63445
	14.68987	52.63337
	14.69139	52.63343
	14.69166	52.63306
	14.69875	52.63357
	14.69918	52.63276
	14.70346	52.63228
	14.70587	52.63247
	14.70784	52.63255
	14.70926	52.63264
	14.71265	52.63274
	14.71407	52.63263
	14.71527	52.63265
	14.71566	52.63247
	14.71603	52.63227
	14.71633	52.6322
	14.71769	52.63207
	14.71856	52.63184
	14.7189	52.63177
	14.71924	52.63174
	14.72032	52.63143
	14.72137	52.631
	14.72185	52.63096
	14.72236	52.63144
	14.72202	52.63257
	14.72692	52.63394
	14.72504	52.63629
	14.72901	52.63722
	14.73071	52.63889
	14.73253	52.64048
	14.73013	52.64196
	14.74347	52.64131
	14.7423	52.64322
	14.74922	52.64435
	14.74867	52.64504
	14.74764	52.64705
	14.74766	52.64739
	14.74845	52.65278
	14.74844	52.65333
	14.7486	52.65453
	14.74895	52.65689
	14.74927	52.65792
	14.74938	52.66258
	14.74958	52.66364
	14.75022	52.66525
	14.75105	52.66674
	14.75173	52.66745
	14.75231	52.66817
	14.75261	52.66897
	14.7533	52.66978
	14.75459	52.67014
	14.75496	52.67048
	14.75553	52.67123
	14.75624	52.67101
	14.75681	52.67096
	14.75843	52.67052
	14.75957	52.67037
	14.76303	52.67028
	14.76361	52.67045
	14.76515	52.67368
	14.76626	52.6741
	14.7674	52.67481
	14.76828	52.675
	14.76953	52.6761
	14.76957	52.67609
	14.76962	52.67612
	14.77013	52.67654
	14.77042	52.67676
	14.77082	52.67705
	14.77147	52.6774
	14.77242	52.67804
	14.77327	52.6792
	14.77389	52.67977
	14.77647	52.68131
	14.77829	52.68231
	14.78036	52.68462
	14.78139	52.68599
	14.78309	52.68789
	14.78461	52.68941
	14.78468	52.68939
	14.78504	52.68989
	14.78536	52.69041
	14.78619	52.69129
	14.78678	52.69231
	14.78914	52.69358
	14.78961	52.69422
	14.79011	52.69536
	14.79114	52.69672
	14.7916	52.69711
	14.79128	52.69779
	14.79132	52.70124
	14.79141	52.70457
	14.79422	52.71384
	14.79458	52.71433
	14.79488	52.71493
	14.79517	52.71589
	14.79584	52.71686
	14.79602	52.71753
	14.79645	52.71784
	14.7963	52.71816
	14.79656	52.71923
	14.79645	52.71969
	14.79655	52.72048
	14.79696	52.72174
	14.79768	52.72417
	14.79796	52.72693
	14.79801	52.72749
	14.79788	52.72819
	14.79754	52.72885
	14.79684	52.73054
	14.79688	52.73184
	14.79673	52.73232
	14.79684	52.73276
	14.7965	52.73309
	14.79645	52.73316
	14.79625	52.73354
	14.79605	52.73474
	14.79563	52.73511
	14.79521	52.73586
	14.79539	52.73612
	14.79679	52.73634
	14.79857	52.73681
	14.79968	52.7375
	14.79538	52.74373
	14.78945	52.75195
	14.78941	52.75197
	14.78963	52.75243
	14.79052	52.7529
	14.791	52.75352
	14.79142	52.75368
	14.79194	52.75413
	14.79204	52.75442
	14.7921	52.75479
	14.79149	52.75573
	14.79123	52.75686
	14.79123	52.75689
	14.79133	52.75703
	14.79174	52.7573
	14.79378	52.75801
	14.7944	52.75785
	14.79496	52.75792
	14.79528	52.75793
	14.79544	52.75799
	14.79547	52.75812
	14.79538	52.75828
	14.79541	52.75832
	14.79604	52.75846
	14.79657	52.75844
	14.79686	52.75851
	14.79736	52.75816
	14.79764	52.75811
	14.79805	52.75821
	14.79835	52.75848
	14.79888	52.75832
	14.79964	52.75862
	14.80007	52.75861
	14.80012	52.75865
	14.8003	52.75875
	14.80056	52.75855
	14.80095	52.75845
	14.80106	52.75886
	14.80183	52.75941
	14.80175	52.75985
	14.8023	52.76008
	14.80257	52.7604
	14.80253	52.76082
	14.80256	52.76105
	14.80302	52.76098
	14.80358	52.76138
	14.80402	52.76148
	14.80418	52.76182
	14.80403	52.76215
	14.80452	52.76271
	14.80576	52.76235
	14.80642	52.76311
	14.8073	52.76376
	14.80856	52.76453
	14.80901	52.76516
	14.80878	52.76638
	14.80969	52.76646
	14.81048	52.7663
	14.80916	52.76779
	14.81319	52.77137
	14.81354	52.77323
	14.81363	52.77336
	14.81377	52.77347
	14.8141	52.77362
	14.81434	52.77367
	14.81451	52.77366
	14.81479	52.77376
	14.81497	52.77387
	14.81552	52.77443
	14.81658	52.77472
	14.81723	52.7748
	14.81881	52.77488
	14.8204	52.77439
	14.82122	52.77422
	14.8222	52.77397
	14.82279	52.77389
	14.82445	52.77389
	14.82501	52.77402
	14.82537	52.77407
	14.82646	52.7739
	14.82725	52.77388
	14.82757	52.77377
	14.82941	52.77331
	14.83475	52.7752
	14.8394	52.7758
	14.8362	52.77732
	14.84881	52.77737
	14.84964	52.78183
	14.85053	52.78528
	14.84847	52.78551
	14.84442	52.79039
	14.85433	52.79215
	14.85439	52.79076
	14.85878	52.79176
	14.86129	52.791
	14.86394	52.79101
	14.86542	52.79197
	14.8633	52.79855
	14.86152	52.80062
	14.86339	52.80105
	14.86152	52.80269
	14.86253	52.80266
	14.86319	52.80347
	14.86532	52.80379
	14.86379	52.80626
	14.86776	52.81225
	14.86537	52.81243
	14.86536	52.8114
	14.85487	52.81228
	14.85524	52.8137
	14.85643	52.81357
	14.85648	52.81531
	14.85466	52.81523
	14.85438	52.81633
	14.85816	52.81765
	14.85418	52.81947
	14.85697	52.82072
	14.85549	52.822
	14.85362	52.82202
	14.85441	52.8235
	14.85459	52.82466
	14.85256	52.82596
	14.85113	52.82844
	14.85579	52.83087
	14.85852	52.82888
	14.87294	52.83372
	14.863	52.84324
	14.86559	52.84733
	14.87221	52.84627
	14.88797	52.84668
	14.89491	52.84044
	14.89539	52.83774
	14.8947	52.83524
	14.89578	52.83303
	14.89764	52.83339
	14.89945	52.8348
	14.89878	52.8358
	14.90049	52.83668
	14.90058	52.83659
	14.90075	52.83649
	14.9007	52.83631
	14.90069	52.83617
	14.90164	52.83648
	14.90176	52.83714
	14.90195	52.83727
	14.90212	52.83729
	14.90258	52.83702
	14.90266	52.83671
	14.90323	52.83674
	14.90334	52.83679
	14.90411	52.8374
	14.9046	52.83733
	14.90506	52.83743
	14.905	52.83749
	14.90495	52.83768
	14.90547	52.83774
	14.90572	52.83785
	14.90621	52.83763
	14.90656	52.8377
	14.90695	52.83758
	14.90769	52.83745
	14.90778	52.83753
	14.90805	52.83805
	14.90863	52.8381
	14.90865	52.83812
	14.90865	52.83815
	14.90856	52.83831
	14.90856	52.83838
	14.90869	52.83839
	14.90897	52.83819
	14.90909	52.8382
	14.90936	52.83848
	14.90939	52.83849
	14.90969	52.83829
	14.90999	52.83815
	14.91031	52.83817
	14.91074	52.83812
	14.91083	52.83816
	14.91083	52.8382
	14.91074	52.8383
	14.9106	52.8384
	14.91054	52.83848
	14.91056	52.83854
	14.91074	52.83865
	14.91094	52.83861
	14.9111	52.83869
	14.91108	52.83878
	14.91089	52.83892
	14.91098	52.83895
	14.91117	52.83895
	14.91154	52.83888
	14.91184	52.83887
	14.91199	52.83898
	14.91301	52.83945
	14.91316	52.83957
	14.9133	52.83962
	14.91392	52.83968
	14.91412	52.83988
	14.91415	52.84009
	14.91423	52.84015
	14.91452	52.84024
	14.91482	52.84063
	14.9153	52.84082
	14.91562	52.84086
	14.91576	52.84085
	14.91678	52.84108
	14.917	52.84124
	14.91691	52.84145
	14.91677	52.84152
	14.91641	52.84157
	14.91619	52.84165
	14.91607	52.84178
	14.91612	52.84188
	14.91635	52.84204
	14.91637	52.84213
	14.91625	52.84231
	14.916	52.84246
	14.91593	52.84258
	14.91599	52.8426
	14.91624	52.84262
	14.91661	52.84261
	14.91692	52.84275
	14.91706	52.84287
	14.91712	52.84317
	14.91725	52.84325
	14.91731	52.84336
	14.9176	52.84347
	14.91783	52.84352
	14.91803	52.84346
	14.91862	52.84324
	14.91878	52.84336
	14.91876	52.84374
	14.91887	52.84371
	14.91899	52.84374
	14.91905	52.84376
	14.91913	52.84384
	14.91917	52.84394
	14.91903	52.84418
	14.91896	52.84439
	14.9189	52.84458
	14.91886	52.8449
	14.91879	52.84501
	14.91878	52.84515
	14.91887	52.84523
	14.91884	52.84541
	14.91896	52.84565
	14.9193	52.84576
	14.91946	52.8458
	14.91949	52.84586
	14.9195	52.84644
	14.91978	52.84681
	14.91896	52.84784
	14.91888	52.84817
	14.91863	52.84865
	14.91838	52.84883
	14.91825	52.84904
	14.91793	52.84931
	14.91767	52.84937
	14.91739	52.84946
	14.91706	52.84952
	14.91684	52.84959
	14.91686	52.84964
	14.9166	52.84959
	14.91563	52.84989
	14.91488	52.8501
	14.91375	52.85045
	14.91251	52.85198
	14.91251	52.85221
	14.91278	52.853
	14.91267	52.85335
	14.91245	52.85352
	14.9115	52.85403
	14.91035	52.85515
	14.90993	52.85508
	14.9057	52.85413
	14.90479	52.85397
	14.90373	52.85502
	14.90346	52.85494
	14.90336	52.85492
	14.90281	52.85493
	14.9026	52.85487
	14.90331	52.8556
	14.90289	52.85594
	14.89535	52.85525
	14.89471	52.85671
	14.89114	52.85994
	14.89116	52.86052
	14.89052	52.86069
	14.8904	52.86073
	14.8916	52.86151
	14.89205	52.86156
	14.894	52.86181
	14.89411	52.86199
	14.89422	52.86218
	14.89381	52.86209
	14.89341	52.86209
	14.89308	52.86228
	14.89309	52.86234
	14.89345	52.86258
	14.89382	52.86307
	14.89333	52.86329
	14.89267	52.86344
	14.89239	52.86369
	14.89245	52.86376
	14.89293	52.86383
	14.89321	52.86402
	14.8934	52.86381
	14.89392	52.86389
	14.89409	52.86406
	14.89411	52.86426
	14.89311	52.86527
	14.893	52.86561
	14.89329	52.86583
	14.89391	52.86603
	14.89425	52.8661
	14.89447	52.86622
	14.89444	52.86637
	14.89409	52.86633
	14.89387	52.86628
	14.89382	52.86633
	14.89412	52.8666
	14.89424	52.86683
	14.8942	52.86685
	14.89395	52.86708
	14.89438	52.86762
	14.89488	52.86852
	14.89477	52.86878
	14.89665	52.87189
	14.89679	52.87236
	14.89765	52.87328
	14.89779	52.87337
	14.8991	52.874
	14.8993	52.87409
	14.89982	52.87427
	14.9003	52.87456
	14.90095	52.87504
	14.90123	52.87536
	14.90162	52.87559
	14.90182	52.8759
	14.90188	52.876
	14.90187	52.87647
	14.90214	52.87692
	14.90311	52.87806
	14.90273	52.87816
	14.90204	52.87845
	14.90344	52.87964
	14.90397	52.88078
	14.904	52.88122
	14.90408	52.88165
	14.90404	52.88203
	14.90413	52.88299
	14.90418	52.88389
	14.90431	52.8839
	14.90432	52.88391
	14.90479	52.88381
	14.90507	52.88425
	14.90528	52.88448
	14.90553	52.88467
	14.90562	52.8848
	14.90566	52.88518
	14.90583	52.88534
	14.90609	52.88545
	14.90636	52.88548
	14.90658	52.8854
	14.90656	52.88523
	14.90663	52.88512
	14.90702	52.88503
	14.90742	52.88509
	14.90782	52.88526
	14.90826	52.88557
	14.90809	52.88608
	14.90815	52.88622
	14.90833	52.88641
	14.90889	52.88683
	14.90947	52.88724
	14.90992	52.88733
	14.91068	52.88719
	14.91185	52.88796
	14.9125	52.88822
	14.91318	52.88816
	14.91499	52.8876
	14.91515	52.8876
	14.91641	52.88788
	14.91691	52.88832
	14.91778	52.88926
	14.91865	52.88925
	14.9231	52.88929
	14.92473	52.88984
	14.92536	52.88967
	14.9261	52.88831
	14.92572	52.88745
	14.92539	52.88687
	14.92327	52.88293
	14.9249	52.88252
	14.9259	52.88414
	14.92639	52.88394
	14.92684	52.88443
	14.92734	52.88449
	14.92801	52.88476
	14.92867	52.88493
	14.9294	52.88461
	14.9301	52.88443
	14.93093	52.8842
	14.93122	52.8847
	14.93281	52.88423
	14.93387	52.88509
	14.93504	52.88437
	14.9343	52.88402
	14.93258	52.88282
	14.93147	52.88184
	14.93756	52.87906
	14.93849	52.87862
	14.94453	52.87645
	14.94681	52.87755
	14.94688	52.87755
	14.94892	52.87848
	14.95461	52.87438
	14.95221	52.87322
	14.94887	52.87151
	14.95218	52.87122
	14.95637	52.87089
	14.95721	52.86945
	14.95887	52.8688
	14.9594	52.86864
	14.95967	52.86852
	14.95982	52.86859
	14.96119	52.86834
	14.96112	52.86827
	14.96155	52.86807
	14.96177	52.86794
	14.96185	52.86788
	14.9633	52.8677
	14.96362	52.86777
	14.96396	52.86786
	14.96414	52.8681
	14.96412	52.86849
	14.96437	52.86871
	14.96507	52.86882
	14.96534	52.8688
	14.96562	52.86874
	14.96601	52.86887
	14.96675	52.869
	14.96754	52.86943
	14.96806	52.86908
	14.96842	52.86956
	14.96884	52.86969
	14.96974	52.86925
	14.97012	52.86903
	14.97171	52.86792
	14.9721	52.86783
	14.97233	52.86779
	14.97268	52.86777
	14.97401	52.86745
	14.97447	52.8673
	14.97653	52.86668
	14.97715	52.86637
	14.97747	52.86576
	14.9783	52.86617
	14.97967	52.86483
	14.98146	52.86311
	14.98267	52.8619
	14.9831	52.86154
	14.98	52.8599
	14.98003	52.85977
	14.98015	52.85951
	14.98012	52.85939
	14.98014	52.85923
	14.97999	52.85895
	14.98012	52.85873
	14.98009	52.85842
	14.9802	52.85807
	14.98006	52.85731
	14.98013	52.85711
	14.98031	52.85684
	14.97956	52.85659
	14.98083	52.85477
	14.9802	52.85457
	14.98002	52.85446
	14.97949	52.8542
	14.97923	52.85404
	14.97907	52.85391
	14.97907	52.85374
	14.98162	52.84895
	14.98485	52.84991
	14.98811	52.85086
	14.98924	52.84821
	14.98815	52.84804
	14.98848	52.8474
	14.98782	52.84655
	14.99083	52.84253
	14.99869	52.84462
	14.99991	52.84628
	15.00205	52.84725
	15.00535	52.84724
	15.00602	52.84723
	15.00621	52.84724
	15.00666	52.8473
	15.0096	52.84775
	15.00927	52.8483
	15.00836	52.8505
	15.00716	52.85367
	15.00869	52.85454
	15.00971	52.85424
	15.0107	52.85497
	15.01197	52.85515
	15.0125	52.85507
	15.01311	52.85456
	15.01402	52.85641
	15.01479	52.85677
	15.01753	52.85711
	15.01802	52.85728
	15.01989	52.85735
	15.02112	52.85767
	15.02196	52.8574
	15.02282	52.85675
	15.02372	52.85675
	15.02807	52.85695
	15.02839	52.85773
	15.03014	52.85863
	15.03037	52.85873
	15.0299	52.85897
	15.03031	52.85916
	15.03076	52.85918
	15.03165	52.85919
	15.032	52.85969
	15.03324	52.86007
	15.03362	52.86075
	15.03423	52.86093
	15.03589	52.861
	15.03744	52.86108
	15.03696	52.86218
	15.03732	52.86211
	15.03752	52.86204
	15.03756	52.86181
	15.03776	52.86168
	15.03785	52.86157
	15.03856	52.86117
	15.03881	52.86116
	15.039	52.861
	15.03903	52.86089
	15.03918	52.86079
	15.03937	52.8606
	15.03949	52.86042
	15.03968	52.86041
	15.04007	52.86003
	15.04006	52.8598
	15.04045	52.8595
	15.04063	52.85952
	15.04087	52.85945
	15.04096	52.85935
	15.04147	52.85725
	15.04135	52.85659
	15.04278	52.85513
	15.04354	52.85448
	15.04414	52.85365
	15.04443	52.85298
	15.04429	52.85225
	15.04467	52.84964
	15.04515	52.84883
	15.0464	52.84775
	15.04639	52.8476
	15.04681	52.84708
	15.04729	52.84633
	15.04767	52.8461
	15.04843	52.84598
	15.04848	52.84596
	15.04847	52.84584
	15.04884	52.84519
	15.04883	52.84478
	15.04862	52.84457
	15.04911	52.84352
	15.05083	52.84338
	15.05129	52.84341
	15.05282	52.84299
	15.05337	52.84304
	15.05396	52.84316
	15.05459	52.84324
	15.05983	52.8411
	15.06518	52.83904
	15.06678	52.83765
	15.06664	52.83755
	15.06686	52.8375
	15.06696	52.83744
	15.067	52.83743
	15.06717	52.83742
	15.06727	52.83738
	15.06759	52.8373
	15.06748	52.83724
	15.06755	52.83721
	15.06777	52.8373
	15.06785	52.83725
	15.06787	52.83712
	15.06793	52.83709
	15.068	52.83706
	15.06841	52.83701
	15.06869	52.83653
	15.06908	52.83536
	15.0691	52.83492
	15.0686	52.83467
	15.06859	52.83445
	15.06869	52.8343
	15.06827	52.83366
	15.06823	52.83354
	15.06822	52.83342
	15.06846	52.83319
	15.07176	52.83058
	15.07235	52.83074
	15.07554	52.83156
	15.0776	52.83216
	15.08037	52.83283
	15.08962	52.83518
	15.09551	52.83664
	15.1151	52.84161
	15.11729	52.8418
	15.11754	52.84191
	15.11795	52.84215
	15.11845	52.84279
	15.11859	52.84282
	15.11896	52.84287
	15.11932	52.84268
	15.11956	52.84268
	15.12044	52.84294
	15.13694	52.8474
	15.14388	52.84922
	15.15756	52.85283
	15.15862	52.85391
	15.15884	52.854
	15.15914	52.85429
	15.15929	52.85508
	15.15957	52.85564
	15.15956	52.85637
	15.15939	52.85691
	15.15919	52.85718
	15.15951	52.85705
	15.16016	52.85696
	15.16099	52.85693
	15.16088	52.8562
	15.16135	52.85598
	15.1621	52.8553
	15.16248	52.85483
	15.16308	52.85445
	15.1636	52.85428
	15.16477	52.85408
	15.16649	52.8543
	15.16688	52.85441
	15.16777	52.85554
	15.18566	52.86011
	15.19616	52.86285
	15.26057	52.87944
	15.26285	52.88004
	15.26764	52.88128
	15.26789	52.88121
	15.26829	52.88108
	15.26909	52.8811
	15.27128	52.88177
	15.2716	52.88213
	15.27225	52.88225
	15.27278	52.88213
	15.2741	52.88218
	15.27361	52.88259
	15.27388	52.88275
	15.27453	52.8826
	15.2747	52.88253
	15.27497	52.88228
	15.27648	52.88265
	15.27641	52.88277
	15.27584	52.88291
	15.27567	52.88336
	15.27851	52.8841
	15.2788	52.88358
	15.27902	52.88359
	15.27945	52.88401
	15.27941	52.88405
	15.27945	52.88428
	15.2798	52.88436
	15.28019	52.88451
	15.2802	52.88462
	15.28035	52.8847
	15.28038	52.88486
	15.28018	52.88507
	15.27987	52.88524
	15.2794	52.88517
	15.27904	52.88507
	15.27887	52.88514
	15.27883	52.88535
	15.27902	52.88558
	15.28016	52.88612
	15.28083	52.88694
	15.28109	52.88704
	15.28148	52.88676
	15.28167	52.88647
	15.2817	52.88596
	15.28176	52.88572
	15.28159	52.88546
	15.28184	52.88469
	15.28238	52.88409
	15.28325	52.8829
	15.28386	52.88155
	15.28443	52.8812
	15.28568	52.8802
	15.28686	52.88011
	15.2872	52.87998
	15.28723	52.87973
	15.28728	52.87963
	15.28753	52.87962
	15.28816	52.88019
	15.28846	52.88071
	15.28814	52.88205
	15.28788	52.88279
	15.28757	52.88341
	15.28732	52.88351
	15.28651	52.88416
	15.28629	52.88496
	15.28565	52.88556
	15.2856	52.88599
	15.29042	52.88733
	15.31672	52.89433
	15.32211	52.89587
	15.32188	52.89447
	15.32239	52.89415
	15.3233	52.89469
	15.32418	52.89473
	15.32528	52.8944
	15.32682	52.89485
	15.32722	52.89521
	15.32778	52.89547
	15.32849	52.89595
	15.32882	52.89597
	15.32928	52.89633
	15.32943	52.8964
	15.32973	52.89676
	15.33001	52.89696
	15.33094	52.89768
	15.33122	52.89786
	15.3318	52.89837
	15.33226	52.8985
	15.33264	52.89897
	15.33262	52.89918
	15.33268	52.89928
	15.33267	52.89974
	15.33271	52.90005
	15.33263	52.90036
	15.33262	52.90088
	15.33254	52.90114
	15.33269	52.90178
	15.33167	52.90441
	15.3294	52.90333
	15.32756	52.90456
	15.32519	52.90421
	15.32297	52.90298
	15.32025	52.90671
	15.31992	52.90913
	15.31807	52.91072
	15.31254	52.91561
	15.30799	52.91911
	15.30714	52.92117
	15.30516	52.92399
	15.30221	52.92665
	15.29877	52.9286
	15.29211	52.93272
	15.28987	52.93614
	15.28414	52.94393
	15.28296	52.94603
	15.28315	52.9496
	15.28388	52.95385
	15.2846	52.95544
	15.2868	52.95713
	15.28784	52.95802
	15.28971	52.95716
	15.30603	52.95286
	15.31255	52.9522
	15.31538	52.95227
	15.33664	52.94715
	15.3385	52.94642
	15.34014	52.94579
	15.34514	52.94454
	15.3467	52.94416
	15.34845	52.9439
	15.35071	52.94302
	15.35165	52.94172
	15.35628	52.94325
	15.35812	52.94337
	15.3601	52.94428
	15.363	52.94404
	15.36109	52.94583
	15.36201	52.94801
	15.36478	52.94833
	15.3656	52.94778
	15.36623	52.94738
	15.36563	52.94555
	15.37156	52.94809
	15.37189	52.95007
	15.37275	52.95162
	15.37558	52.95389
	15.38092	52.95897
	15.38744	52.96095
	15.3906	52.96274
	15.38825	52.96434
	15.38638	52.96501
	15.38657	52.9681
	15.3888	52.97158
	15.40492	52.9745
	15.40995	52.97876
	15.41219	52.98033
	15.41992	52.98331
	15.42592	52.98506
	15.43213	52.98678
	15.43389	52.98724
	15.43843	52.98853
	15.44385	52.98992
	15.44662	52.98938
	15.45032	52.98828
	15.45246	52.98762
	15.453	52.98731
	15.45305	52.98729
	15.45313	52.98728
	15.45376	52.98725
	15.46503	52.98863
	15.47574	52.9939
	15.48767	52.99721
	15.49709	52.99891
	15.50091	53.00058
	15.50158	52.99956
	15.52438	53.00371
	15.52531	53.00618
	15.53077	53.00521
	15.5405	53.00831
	15.53993	53.00935
	15.54685	53.01436
	15.55057	53.01234
	15.55431	53.01188
	15.5549	53.01129
	15.55501	53.01011
	15.55655	53.00652
	15.55924	53.00595
	15.56063	53.00424
	15.56033	53.00353
	15.56172	52.99932
	15.5658	52.99485
	15.57039	52.99038
	15.5703	52.98807
	15.57135	52.9877
	15.57222	52.98686
	15.57274	52.98689
	15.57371	52.98649
	15.57428	52.98705
	15.58036	52.98885
	15.5818	52.98795
	15.58289	52.98801
	15.58731	52.98188
	15.58802	52.98106
	15.59682	52.98379
	15.60258	52.98504
	15.60319	52.98454
	15.60472	52.98454
	15.60629	52.9848
	15.6073	52.98403
	15.60844	52.98368
	15.60884	52.98272
	15.61081	52.98215
	15.61281	52.98274
	15.61545	52.98429
	15.61857	52.98355
	15.62076	52.98217
	15.62877	52.97791
	15.63344	52.97638
	15.63392	52.97653
	15.63518	52.97695
	15.63832	52.97741
	15.64112	52.97914
	15.64382	52.98037
	15.64488	52.98109
	15.64721	52.98219
	15.65143	52.98379
	15.65471	52.98563
	15.65719	52.9875
	15.65898	52.98809
	15.66033	52.98917
	15.66102	52.98954
	15.66109	52.99004
	15.66273	52.98993
	15.6647	52.99028
	15.66754	52.99129
	15.67512	52.99305
	15.67857	52.9944
	15.68044	52.99557
	15.68189	52.99719
	15.68488	52.99682
	15.68951	52.99585
	15.68972	52.99663
	15.69018	52.99695
	15.69023	52.99749
	15.69209	52.99818
	15.69513	52.99762
	15.6951	52.99742
	15.69435	52.99723
	15.69389	52.99684
	15.69415	52.99585
	15.69496	52.9949
	15.69641	52.99519
	15.69683	52.9945
	15.69689	52.99389
	15.69765	52.99357
	15.69849	52.9937
	15.69871	52.99332
	15.70077	52.99389
	15.70164	52.99356
	15.70182	52.9945
	15.70304	52.99546
	15.70329	52.99571
	15.70445	52.99559
	15.70639	52.99457
	15.70561	52.99253
	15.70694	52.99246
	15.70716	52.99186
	15.70769	52.99088
	15.71429	52.98881
	15.71898	52.98863
	15.71991	52.98819
	15.72103	52.98663
	15.73059	52.98982
	15.73419	52.99026
	15.73571	52.99042
	15.73768	52.99087
	15.74047	52.99089
	15.74346	52.99122
	15.75469	52.99559
	15.75935	52.99682
	15.76068	52.99508
	15.76145	52.99683
	15.76348	53.0005
	15.76492	52.99886
	15.76616	52.99895
	15.76673	52.99876
	15.76946	52.99952
	15.77234	53.0032
	15.77296	53.00314
	15.77255	53.00503
	15.77193	53.00518
	15.7726	53.00596
	15.77167	53.00667
	15.7725	53.00841
	15.77482	53.0103
	15.77569	53.01287
	15.77379	53.01331
	15.7742	53.0142
	15.77832	53.01498
	15.77677	53.0161
	15.77708	53.01727
	15.77646	53.01718
	15.77023	53.02031
	15.7676	53.02025
	15.76425	53.02347
	15.76379	53.02474
	15.7624	53.02552
	15.76276	53.02666
	15.76559	53.02697
	15.76786	53.02651
	15.77286	53.0267
	15.77368	53.02868
	15.7761	53.02908
	15.77801	53.02964
	15.77853	53.03274
	15.77909	53.03265
	15.77889	53.0333
	15.78157	53.03345
	15.7818	53.03578
	15.78514	53.03983
	15.78579	53.03971
	15.78705	53.04053
	15.7903	53.04101
	15.78809	53.04278
	15.78981	53.04337
	15.79092	53.04343
	15.79151	53.04236
	15.79334	53.04247
	15.79318	53.04375
	15.79416	53.04402
	15.79581	53.04365
	15.79898	53.04436
	15.80874	53.04533
	15.79168	53.05905
	15.82172	53.06521
	15.81357	53.08044
	15.81193	53.08036
	15.81082	53.0806
	15.8099	53.08049
	15.80929	53.0806
	15.80936	53.08104
	15.81027	53.08143
	15.81127	53.08157
	15.81136	53.08159
	15.81173	53.08222
	15.81244	53.08235
	15.8126	53.08237
	15.81149	53.08436
	15.83013	53.08797
	15.83028	53.08797
	15.83151	53.08791
	15.83246	53.08756
	15.83362	53.0876
	15.83614	53.08839
	15.83643	53.08885
	15.83689	53.08929
	15.86015	53.09379
	15.84984	53.11235
	15.85068	53.11294
	15.85099	53.11477
	15.85118	53.11613
	15.85137	53.11623
	15.85717	53.11799
	15.85776	53.1168
	15.85946	53.1168
	15.86426	53.11792
	15.86585	53.11801
	15.87036	53.11968
	15.87531	53.12109
	15.87577	53.1205
	15.87667	53.11999
	15.8775	53.11926
	15.87884	53.11897
	15.87971	53.11886
	15.88038	53.11863
	15.91182	53.12391
	15.91305	53.12139
	15.91336	53.12112
	15.91291	53.11998
	15.91598	53.1195
	15.91643	53.11926
	15.91819	53.11906
	15.96439	53.11249
	15.97949	53.11028
	15.97976	53.11109
	15.97964	53.1121
	15.97992	53.11257
	15.98006	53.11384
	15.98072	53.11471
	15.98136	53.11523
	15.98145	53.11566
	15.98201	53.11551
	15.98271	53.11541
	15.98348	53.11495
	15.98383	53.11432
	15.98434	53.1144
	15.9849	53.11417
	15.98517	53.11337
	15.9848	53.11304
	15.98501	53.11296
	15.98481	53.11258
	15.98439	53.1123
	15.9842	53.11113
	15.98376	53.11065
	15.98205	53.10976
	15.98185	53.10954
	15.98202	53.1081
	15.98183	53.10733
	15.982	53.10671
	15.97915	53.10304
	15.98092	53.10133
	15.98208	53.10284
	15.98427	53.10049
	15.98098	53.09728
	15.986	53.09599
	15.98552	53.09226
	15.98864	53.09303
	15.99792	53.08638
	15.99666	53.08268
	15.99234	53.08074
	15.99475	53.07389
	15.98748	53.06936
	15.98533	53.0644
	15.98861	53.05459
	15.97246	53.05659
	15.97471	53.05144
	15.96699	53.04397
	15.96274	53.04121
	15.95657	53.04099
	15.95625	53.03726
	15.95149	53.03439
	15.9558	53.03272
	15.95792	53.02371
	15.95474	53.01738
	15.95863	53.01368
	15.95384	53.01316
	15.95667	53.0114
	15.9558	53.00795
	15.95316	53.00705
	15.95355	53.00139
	15.94975	52.9989
	15.95644	52.97614
	15.95419	52.9746
	15.95136	52.97482
	15.94943	52.97354
	15.94618	52.97354
	15.94605	52.97302
	15.94846	52.97276
	15.94818	52.97177
	15.94673	52.97173
	15.94583	52.97151
	15.94676	52.97096
	15.95171	52.97215
	15.95306	52.96964
	15.95432	52.96997
	15.95409	52.97154
	15.95908	52.97054
	15.96152	52.97087
	15.96125	52.95715
	15.97976	52.93437
	15.973	52.92926
	15.97834	52.92181
	15.97931	52.90858
	15.97002	52.89999
	15.9802	52.87672
	15.97624	52.87335
	15.96458	52.87414
	15.96222	52.86861
	15.97247	52.86555
	15.97414	52.85897
	15.96449	52.85696
	15.96995	52.85388
	15.94705	52.85433
	15.95187	52.84302
	15.923	52.83099
	15.91861	52.84106
	15.90239	52.83578
	15.9044	52.8262
	15.89493	52.82561
	15.89758	52.82123
	15.89537	52.81887
	15.89634	52.81524
	15.89367	52.8123
	15.90395	52.80615
	15.90767	52.80673
	15.91165	52.80647
	15.91174	52.80369
	15.91705	52.8039
	15.92722	52.80203
	15.93404	52.80386
	15.93501	52.79309
	15.93651	52.79044
	15.93652	52.79014
	15.93724	52.78962
	15.93714	52.78928
	15.93722	52.78891
	15.9376	52.78831
	15.93839	52.78787
	15.93865	52.78767
	15.93846	52.78608
	15.92599	52.784
	15.92629	52.7824
	15.92726	52.77843
	15.93063	52.7763
	15.93077	52.77584
	15.9312	52.77531
	15.93191	52.77527
	15.9327	52.77489
	15.93334	52.77436
	15.93847	52.76815
	15.93815	52.76714
	15.93645	52.76614
	15.93661	52.76558
	15.93724	52.76534
	15.93953	52.7618
	15.94191	52.75917
	15.94417	52.75809
	15.94524	52.75766
	15.94585	52.7578
	15.9489	52.75584
	15.94794	52.75602
	15.94723	52.75562
	15.94692	52.7549
	15.94669	52.75478
	15.94593	52.75341
	15.94557	52.75137
	15.94741	52.74899
	15.94772	52.7482
	15.94746	52.74774
	15.94852	52.74456
	15.94765	52.74306
	15.94825	52.74215
	15.94806	52.74099
	15.94777	52.74047
	15.94751	52.73621
	15.9473	52.73477
	15.94675	52.73305
	15.94553	52.73191
	15.94546	52.73122
	15.94548	52.73021
	15.9449	52.72915
	15.94194	52.7276
	15.94004	52.72702
	15.9396	52.72696
	15.93921	52.72699
	15.93847	52.7271
	15.93761	52.72738
	15.93691	52.72744
	15.93545	52.72733
	15.93368	52.7269
	15.93327	52.72673
	15.93172	52.72645
	15.93014	52.72612
	15.92925	52.72597
	15.92778	52.72543
	15.92692	52.72518
	15.92504	52.72472
	15.92445	52.72455
	15.92372	52.72446
	15.92305	52.72432
	15.92115	52.72354
	15.9201	52.72328
	15.91402	52.71983
	15.90816	52.71525
	15.90555	52.71417
	15.89877	52.7137
	15.89347	52.71403
	15.89017	52.71496
	15.88597	52.7151
	15.88255	52.71418
	15.87786	52.71322
	15.87249	52.71167
	15.86944	52.71149
	15.86554	52.71038
	15.86201	52.71008
	15.85347	52.70908
	15.85042	52.70931
	15.84622	52.70923
	15.83689	52.70631
	15.83372	52.7072
	15.82823	52.70798
	15.8228	52.70775
	15.82091	52.7086
	15.81823	52.70919
	15.81128	52.70967
	15.80287	52.70875
	15.80091	52.70894
	15.79823	52.70857
	15.79476	52.70857
	15.79327	52.70693
	15.79413	52.70594
	15.79559	52.70448
	15.80045	52.69513
	15.80361	52.69379
	15.80745	52.68516
	15.81273	52.67962
	15.8129	52.67414
	15.81415	52.66785
	15.79329	52.66494
	15.78945	52.66597
	15.78583	52.66754
	15.78212	52.66194
	15.7828	52.65258
	15.77828	52.64952
	15.7799	52.64419
	15.77717	52.64332
	15.77854	52.6415
	15.77741	52.63954
	15.77629	52.63789
	15.78021	52.63679
	15.78157	52.63665
	15.78291	52.63664
	15.78424	52.63668
	15.78633	52.63685
	15.79317	52.63717
	15.79564	52.63636
	15.79612	52.63497
	15.79419	52.62879
	15.79395	52.6274
	15.79485	52.62601
	15.7957	52.62535
	15.79709	52.62473
	15.80034	52.62454
	15.7995	52.62242
	15.79624	52.62125
	15.79292	52.62169
	15.7925	52.62235
	15.78629	52.62191
	15.78635	52.62015
	15.78448	52.61858
	15.78557	52.61715
	15.78816	52.61671
	15.78834	52.61484
	15.78931	52.61367
	15.79178	52.61206
	15.79606	52.6084
	15.796	52.60571
	15.80146	52.60494
	15.80386	52.6045
	15.80593	52.60444
	15.80676	52.60248
	15.80719	52.60056
	15.80659	52.59805
	15.80697	52.5967
	15.80868	52.59575
	15.8106	52.59422
	15.81388	52.59303
	15.82005	52.59199
	15.82019	52.59015
	15.82148	52.58935
	15.82715	52.58891
	15.83228	52.58741
	15.83196	52.58614
	15.83269	52.58598
	15.83613	52.58719
	15.83613	52.58667
	15.82847	52.58264
	15.82992	52.57792
	15.82606	52.57579
	15.8266	52.57319
	15.82407	52.57099
	15.82467	52.56714
	15.82693	52.56708
	15.82809	52.567
	15.82926	52.56663
	15.83006	52.56645
	15.83115	52.5663
	15.83236	52.56618
	15.83625	52.56337
	15.83661	52.56245
	15.8383	52.56208
	15.84108	52.55974
	15.84331	52.55959
	15.84361	52.55728
	15.84204	52.55545
	15.84403	52.55362
	15.84897	52.55285
	15.85615	52.54885
	15.85796	52.5468
	15.85869	52.54432
	15.84918	52.53664
	15.83499	52.52927
	15.8375	52.52746
	15.84312	52.52507
	15.84909	52.51749
	15.85259	52.51526
	15.85626	52.51469
	15.86095	52.51225
	15.86316	52.51044
	15.87698	52.51101
	15.87604	52.50654
	15.87084	52.50499
	15.86999	52.50395
	15.87254	52.50177
	15.86768	52.50249
	15.87416	52.49549
	15.87851	52.49569
	15.87911	52.4931
	15.88047	52.49284
	15.88509	52.48817
	15.88523	52.48749
	15.88453	52.48695
	15.88537	52.48614
	15.88506	52.48594
	15.8839	52.48562
	15.88405	52.48477
	15.88512	52.48416
	15.88449	52.48319
	15.88932	52.47486
	15.89117	52.47532
	15.89157	52.47315
	15.89034	52.47303
	15.89281	52.46813
	15.89033	52.46478
	15.88572	52.46478
	15.88537	52.4656
	15.88219	52.46899
	15.88051	52.47017
	15.87884	52.47243
	15.87702	52.47182
	15.87888	52.46992
	15.87768	52.46951
	15.87884	52.46812
	15.87977	52.46538
	15.88384	52.46573
	15.88462	52.46447
	15.88686	52.46347
	15.8874	52.46301
	15.88784	52.46125
	15.89265	52.46047
	15.89293	52.45671
	15.89318	52.45597
	15.89469	52.45444
	15.8964	52.45198
	15.89656	52.4515
	15.89595	52.44902
	15.89871	52.44929
	15.89814	52.44738
	15.89742	52.44727
	15.89568	52.44739
	15.89554	52.44665
	15.89317	52.44683
	15.89312	52.4462
	15.87527	52.44267
	15.87856	52.43743
	15.86888	52.43497
	15.86156	52.44023
	15.85661	52.43942
	15.85637	52.43273
	15.85323	52.43163
	15.84455	52.43177
	15.83148	52.43539
	15.83349	52.43746
	15.83438	52.43805
	15.83443	52.43829
	15.83343	52.4384
	15.83365	52.4389
	15.83172	52.43944
	15.83202	52.43988
	15.83283	52.441
	15.83307	52.44231
	15.8327	52.44265
	15.83291	52.44363
	15.83333	52.44435
	15.83273	52.44533
	15.8325	52.44531
	15.83204	52.44586
	15.83178	52.44594
	15.83172	52.44641
	15.82576	52.45472
	15.82489	52.44993
	15.81175	52.44457
	15.80437	52.44472
	15.80705	52.43604
	15.83888	52.41206
	15.839	52.40846
	15.84143	52.40516
	15.84222	52.40419
	15.84278	52.40382
	15.84319	52.40337
	15.84339	52.40305
	15.84358	52.40291
	15.84398	52.40284
	15.84442	52.40273
	15.84543	52.40262
	15.84692	52.40262
	15.84744	52.40251
	15.84819	52.40224
	15.84892	52.40189
	15.8498	52.40173
	15.84997	52.40187
	15.84999	52.40209
	15.84987	52.40251
	15.85	52.40298
	15.85037	52.40324
	15.85129	52.4035
	15.8546	52.4022
	15.85853	52.40303
	15.86117	52.40272
	15.8697	52.39788
	15.87029	52.39658
	15.88309	52.39413
	15.88735	52.39361
	15.88854	52.39455
	15.89033	52.39392
	15.89656	52.39413
	15.89844	52.39184
	15.90028	52.39087
	15.8992	52.38783
	15.90074	52.38612
	15.90031	52.38258
	15.89639	52.38055
	15.89163	52.3757
	15.8928	52.37587
	15.8886	52.3725
	15.88817	52.372
	15.89065	52.3717
	15.89066	52.37133
	15.89068	52.3712
	15.89082	52.37121
	15.89045	52.37045
	15.89045	52.37032
	15.89004	52.36932
	15.89001	52.36914
	15.89034	52.36903
	15.89053	52.36849
	15.88953	52.36777
	15.89039	52.367
	15.89023	52.36693
	15.88848	52.36669
	15.88827	52.36659
	15.88912	52.36187
	15.89049	52.35403
	15.89034	52.3534
	15.88976	52.3526
	15.88935	52.35235
	15.88762	52.3525
	15.88758	52.35239
	15.88647	52.35253
	15.88631	52.35228
	15.8858	52.35236
	15.88508	52.35221
	15.8843	52.35232
	15.88373	52.35234
	15.88325	52.35225
	15.88283	52.35228
	15.88127	52.35214
	15.88098	52.35054
	15.88118	52.34928
	15.88155	52.34576
	15.88138	52.34264
	15.88326	52.33993
	15.88692	52.338
	15.88795	52.33367
	15.88317	52.33029
	15.88239	52.32698
	15.88368	52.32426
	15.88508	52.32412
	15.88607	52.32398
	15.88665	52.32372
	15.8873	52.32315
	15.8877	52.32274
	15.88806	52.32208
	15.88834	52.32105
	15.88799	52.3198
	15.88749	52.31882
	15.88756	52.31854
	15.88978	52.31769
	15.89026	52.31094
	15.89219	52.31068
	15.8899	52.30755
	15.88586	52.30707
	15.88465	52.30858
	15.88194	52.30877
	15.88176	52.30722
	15.88381	52.30438
	15.87862	52.29833
	15.87838	52.29442
	15.88027	52.29173
	15.88081	52.29043
	15.88122	52.28896
	15.88129	52.28847
	15.87972	52.28812
	15.88095	52.28543
	15.88087	52.28539
	15.88122	52.28457
	15.88142	52.28418
	15.87937	52.28286
	15.87851	52.28258
	15.87806	52.28242
	15.87712	52.28221
	15.87631	52.28236
	15.87622	52.28239
	15.87612	52.28243
	15.8756	52.28272
	15.87411	52.28202
	15.87345	52.28259
	15.87312	52.28242
	15.87231	52.28109
	15.87247	52.28059
	15.87137	52.28113
	15.87049	52.28083
	15.87105	52.28069
	15.8704	52.27836
	15.86996	52.27785
	15.87116	52.27749
	15.86603	52.27212
	15.8592	52.26732
	15.85901	52.26769
	15.85821	52.26796
	15.85791	52.26804
	15.85743	52.26798
	15.85699	52.26788
	15.85678	52.26741
	15.85658	52.26709
	15.85604	52.26656
	15.85534	52.26558
	15.85488	52.26504
	15.85391	52.26384
	15.85345	52.26326
	15.85331	52.26303
	15.85312	52.26281
	15.85254	52.26231
	15.8524	52.26211
	15.85493	52.26112
	15.85487	52.26106
	15.8542	52.25975
	15.85422	52.25964
	15.85396	52.25933
	15.85324	52.25853
	15.85254	52.2574
	15.85128	52.25564
	15.85188	52.25504
	15.85253	52.25433
	15.85309	52.25323
	15.85395	52.25223
	15.85465	52.25185
	15.85556	52.25112
	15.85577	52.25076
	15.85617	52.25033
	15.85674	52.24985
	15.85663	52.24969
	15.85731	52.24864
	15.85755	52.24814
	15.85756	52.24701
	15.85766	52.24603
	15.85767	52.24572
	15.85785	52.2451
	15.85818	52.24422
	15.8583	52.24303
	15.85847	52.24172
	15.85847	52.24135
	15.85877	52.24056
	15.85888	52.24013
	15.85915	52.23764
	15.85898	52.23667
	15.85894	52.23583
	15.85888	52.23534
	15.85891	52.23491
	15.85881	52.2335
	15.85927	52.23178
	15.85946	52.23047
	15.85978	52.22948
	15.8604	52.22822
	15.86083	52.22751
	15.86085	52.22737
	15.86046	52.22667
	15.86029	52.22643
	15.86007	52.22592
	15.85999	52.22577
	15.85969	52.22553
	15.85921	52.22538
	15.85865	52.22511
	15.85827	52.22465
	15.85562	52.22117
	15.85546	52.22119
	15.8542	52.21957
	15.85334	52.21843
	15.85266	52.21748
	15.85107	52.21541
	15.8495	52.21329
	15.85114	52.21372
	15.85294	52.21003
	15.85824	52.20266
	15.86009	52.19998
	15.85966	52.19941
	15.86121	52.19785
	15.86042	52.19717
	15.85963	52.19454
	15.85976	52.19311
	15.8596	52.19197
	15.86022	52.19121
	15.8595	52.18917
	15.85869	52.1886
	15.85811	52.18769
	15.85927	52.18581
	15.85979	52.18579
	15.86098	52.18279
	15.86165	52.18083
	15.8617	52.17838
	15.86212	52.1774
	15.85819	52.17406
	15.85904	52.17399
	15.85853	52.169
	15.85949	52.16916
	15.85968	52.16834
	15.86661	52.16806
	15.86642	52.16705
	15.86847	52.16727
	15.86891	52.16572
	15.87259	52.16582
	15.87301	52.16686
	15.87653	52.16591
	15.87602	52.16437
	15.88304	52.16289
	15.88218	52.16224
	15.88181	52.15981
	15.88099	52.15615
	15.88349	52.15589
	15.88087	52.145
	15.87477	52.14229
	15.87402	52.13098
	15.86605	52.12946
	15.86033	52.1249
	15.85804	52.12403
	15.8558	52.12426
	15.85398	52.12269
	15.85263	52.1201
	15.85383	52.11892
	15.85268	52.11812
	15.85445	52.1171
	15.8492	52.11397
	15.8428	52.1134
	15.84082	52.11228
	15.83876	52.11098
	15.83587	52.11076
	15.834	52.11098
	15.83486	52.10841
	15.83657	52.10829
	15.83673	52.10566
	15.84012	52.10305
	15.84422	52.0987
	15.84685	52.099
	15.85338	52.09387
	15.85922	52.08655
	15.86196	52.08706
	15.86356	52.08565
	15.87679	52.08828
	15.88363	52.08507
	15.88766	52.08437
	15.89132	52.08327
	15.8916	52.08206
	15.89716	52.07869
	15.89695	52.077
	15.89934	52.07684
	15.92321	52.06796
	15.92446	52.07037
	15.92516	52.07692
	15.93051	52.08158
	15.93123	52.08808
	15.944	52.08807
	15.96617	52.08249
	15.97052	52.07788
	15.96819	52.07585
	15.97425	52.0746
	15.9815	52.06996
	15.9846	52.07005
	15.98607	52.06868
	15.98629	52.06843
	15.98662	52.06835
	15.98672	52.06783
	15.98773	52.06738
	15.98808	52.06715
	15.98835	52.06689
	15.98801	52.06589
	15.98784	52.06563
	15.98741	52.06565
	15.9875	52.06527
	15.98737	52.06507
	15.98696	52.06457
	15.98917	52.06372
	15.98764	52.06194
	15.99009	52.06123
	15.99386	52.05904
	15.99827	52.06043
	15.99976	52.05821
	16.0019	52.05839
	16.00444	52.05478
	15.99886	52.05438
	15.99294	52.05199
	15.99279	52.05035
	15.99041	52.05022
	15.99011	52.04875
	15.98807	52.04623
	15.98913	52.04525
	15.98825	52.04361
	15.99082	52.03912
	15.99314	52.03567
	15.96324	52.03412
	15.96558	52.03146
	15.96601	52.02669
	15.96407	52.02304
	15.96406	52.01779
	15.96528	52.01672
	15.96546	52.01488
	15.96758	52.01249
	15.96837	52.00559
	15.96827	52.00324
	15.96975	52.0024
	15.971	51.9998
	16.00599	51.99265
	16.0094	51.98451
	16.00936	51.9843
	16.00846	51.98328
	16.00859	51.98291
	16.00882	51.98249
	16.00924	51.98207
	16.0091	51.98198
	16.01001	51.98144
	16.01271	51.98116
	16.03222	51.9784
	16.0376	51.97794
	16.04106	51.97799
	16.04948	51.97788
	16.05776	51.97703
	16.0603	51.97711
	16.06105	51.97721
	16.06621	51.97887
	16.0692	51.97949
	16.07733	51.98227
	16.07848	51.98244
	16.0796	51.98288
	16.08463	51.98612
	16.08964	51.98816
	16.09347	51.99041
	16.10607	51.99683
	16.10737	51.99601
	16.10761	51.99571
	16.10857	51.99579
	16.11	51.99567
	16.12275	51.99309
	16.12117	51.99184
	16.12439	51.98462
	16.12782	51.98088
	16.12791	51.97987
	16.12799	51.97963
	16.12703	51.97979
	16.12782	51.97727
	16.12863	51.97755
	16.12854	51.97776
	16.13025	51.97895
	16.13327	51.97241
	16.13336	51.97234
	16.13095	51.97182
	16.13134	51.97109
	16.13183	51.96878
	16.13249	51.96667
	16.13461	51.96694
	16.13622	51.96101
	16.13505	51.96095
	16.13733	51.95437
	16.12397	51.95144
	16.13059	51.94367
	16.1257	51.94197
	16.12628	51.94078
	16.131	51.94044
	16.12985	51.93929
	16.12948	51.93913
	16.12746	51.93599
	16.12729	51.93581
	16.12617	51.9339
	16.12696	51.93156
	16.12896	51.93189
	16.12969	51.93185
	16.1341	51.93195
	16.13513	51.93052
	16.1363	51.92937
	16.13662	51.92912
	16.13576	51.92901
	16.13395	51.92889
	16.13407	51.92827
	16.13491	51.92831
	16.13485	51.92892
	16.13579	51.92897
	16.13731	51.92695
	16.13808	51.92701
	16.13817	51.92547
	16.13617	51.92505
	16.13621	51.924
	16.13546	51.92396
	16.13552	51.92286
	16.13348	51.9227
	16.13328	51.92235
	16.12682	51.92167
	16.12532	51.91981
	16.12844	51.91985
	16.13085	51.9201
	16.13243	51.92004
	16.13313	51.91699
	16.13127	51.91705
	16.129	51.91696
	16.1279	51.9158
	16.1266	51.91602
	16.12507	51.91621
	16.11834	51.91337
	16.11835	51.91212
	16.1109	51.90591
	16.11048	51.90582
	16.10927	51.90452
	16.10945	51.90447
	16.10912	51.904
	16.10871	51.90361
	16.10348	51.90507
	16.10293	51.90487
	16.10106	51.90355
	16.09974	51.90313
	16.09957	51.90264
	16.09908	51.90225
	16.09933	51.90118
	16.09936	51.90077
	16.10042	51.90081
	16.10028	51.9001
	16.10042	51.9001
	16.10062	51.89937
	16.10154	51.89753
	16.10166	51.89716
	16.10166	51.89656
	16.10175	51.89626
	16.09957	51.89605
	16.09927	51.89636
	16.09822	51.89595
	16.09872	51.89547
	16.09895	51.89489
	16.09863	51.89414
	16.09858	51.89379
	16.09897	51.89349
	16.10037	51.89275
	16.10107	51.89264
	16.10171	51.89267
	16.10254	51.89285
	16.10329	51.89319
	16.10389	51.89377
	16.10495	51.89486
	16.1064	51.8959
	16.12317	51.89645
	16.13369	51.89569
	16.13424	51.89556
	16.13734	51.89517
	16.13779	51.89484
	16.13819	51.89468
	16.13863	51.89458
	16.13931	51.89451
	16.13982	51.89441
	16.14023	51.89439
	16.14076	51.89445
	16.14148	51.89469
	16.14214	51.89482
	16.14361	51.89504
	16.14403	51.89466
	16.14555	51.89465
	16.14564	51.89419
	16.14597	51.89398
	16.14631	51.89386
	16.14788	51.89362
	16.14885	51.89356
	16.1505	51.89339
	16.15095	51.89326
	16.15186	51.89285
	16.15293	51.89233
	16.15394	51.89234
	16.1548	51.89246
	16.15614	51.89279
	16.15929	51.89275
	16.15982	51.89264
	16.16076	51.89249
	16.16109	51.89252
	16.16165	51.89244
	16.16174	51.89007
	16.16575	51.88788
	16.16896	51.88448
	16.16948	51.88417
	16.16991	51.88408
	16.17074	51.8841
	16.17094	51.88406
	16.17165	51.88372
	16.17184	51.88354
	16.1723	51.88342
	16.17856	51.88313
	16.18133	51.8832
	16.18188	51.883
	16.1844	51.88158
	16.18459	51.88151
	16.18483	51.88146
	16.18795	51.88125
	16.18803	51.8822
	16.18813	51.88285
	16.18625	51.88447
	16.18575	51.88466
	16.1859	51.8847
	16.18625	51.88474
	16.18663	51.88473
	16.1875	51.8846
	16.18815	51.88459
	16.18848	51.88462
	16.18939	51.88476
	16.19045	51.88485
	16.19204	51.88504
	16.19289	51.88508
	16.19288	51.8843
	16.19282	51.88401
	16.19284	51.88344
	16.19294	51.88254
	16.19331	51.88126
	16.19358	51.87981
	16.19475	51.87827
	16.19504	51.87777
	16.19572	51.87718
	16.19635	51.87648
	16.19687	51.8757
	16.19739	51.87514
	16.19828	51.87421
	16.1989	51.87378
	16.19954	51.87302
	16.20016	51.87196
	16.21479	51.86975
	16.21793	51.87161
	16.22111	51.87357
	16.22358	51.87488
	16.22426	51.875
	16.22521	51.87533
	16.22599	51.87574
	16.22632	51.87597
	16.22681	51.87609
	16.22889	51.87604
	16.22924	51.87597
	16.22956	51.87627
	16.2302	51.87663
	16.23107	51.87734
	16.2319	51.8787
	16.23247	51.87903
	16.23294	51.87958
	16.23385	51.8803
	16.23405	51.88103
	16.2354	51.88211
	16.23613	51.88202
	16.23789	51.88328
	16.23959	51.88376
	16.23964	51.88463
	16.24071	51.88525
	16.24083	51.88574
	16.24115	51.88604
	16.24152	51.88626
	16.24186	51.88665
	16.24238	51.88693
	16.24255	51.88762
	16.24303	51.8879
	16.24344	51.88803
	16.24396	51.88812
	16.24408	51.88884
	16.24401	51.88944
	16.24392	51.8897
	16.24409	51.89011
	16.24488	51.89107
	16.24506	51.89122
	16.24562	51.89145
	16.2459	51.89144
	16.24509	51.89313
	16.24509	51.89327
	16.24559	51.89455
	16.24568	51.89534
	16.24563	51.89592
	16.24552	51.89648
	16.24558	51.89661
	16.24573	51.89677
	16.24658	51.89731
	16.24738	51.89767
	16.24833	51.89836
	16.24862	51.89883
	16.24814	51.90074
	16.2521	51.90047
	16.25231	51.90018
	16.25272	51.90009
	16.25248	51.89963
	16.25368	51.89938
	16.25469	51.90064
	16.2548	51.90089
	16.25409	51.90173
	16.25577	51.90223
	16.25666	51.90185
	16.25586	51.89954
	16.25733	51.89926
	16.25741	51.89755
	16.25881	51.89727
	16.25902	51.89841
	16.25924	51.89888
	16.26348	51.89825
	16.26492	51.89808
	16.26516	51.8981
	16.26684	51.89774
	16.26722	51.89777
	16.26771	51.89785
	16.26838	51.89791
	16.26906	51.898
	16.26932	51.89714
	16.2699	51.8958
	16.27133	51.89523
	16.27274	51.89509
	16.27382	51.89599
	16.27649	51.8962
	16.27739	51.89712
	16.27901	51.89764
	16.27782	51.89952
	16.27888	51.89999
	16.27938	51.90005
	16.28032	51.90019
	16.28103	51.90022
	16.28183	51.89999
	16.28278	51.89986
	16.28327	51.89982
	16.28393	51.89988
	16.28484	51.90002
	16.28576	51.89999
	16.28641	51.90009
	16.28693	51.90026
	16.28766	51.89962
	16.28971	51.89807
	16.29023	51.89713
	16.29136	51.89567
	16.29256	51.89488
	16.2936	51.8949
	16.29523	51.89473
	16.29691	51.89412
	16.29814	51.89382
	16.29992	51.89329
	16.30046	51.89275
	16.30223	51.89211
	16.30339	51.89145
	16.30457	51.89056
	16.30575	51.88992
	16.30657	51.8896
	16.3079	51.88935
	16.30826	51.88849
	16.30829	51.88802
	16.30928	51.8875
	16.31071	51.88741
	16.3118	51.88698
	16.31258	51.88644
	16.31394	51.88649
	16.31588	51.88668
	16.31677	51.88656
	16.3187	51.88675
	16.31984	51.88707
	16.32069	51.88708
	16.32136	51.88683
	16.32134	51.88633
	16.3219	51.886
	16.32452	51.88564
	16.32577	51.886
	16.33254	51.88447
	16.33395	51.88382
	16.34264	51.88221
	16.34641	51.88159
	16.34881	51.88111
	16.35087	51.88087
	16.35164	51.88061
	16.35058	51.87874
	16.3489	51.87706
	16.34593	51.87487
	16.34447	51.87328
	16.3439	51.87371
	16.3431	51.87397
	16.341	51.87425
	16.33964	51.87431
	16.3375	51.87451
	16.33501	51.87123
	16.33837	51.87043
	16.33995	51.8699
	16.3415	51.8697
	16.34144	51.86876
	16.34219	51.86834
	16.34442	51.86723
	16.35101	51.86325
	16.35292	51.86058
	16.35758	51.85742
	16.35878	51.857
	16.36045	51.85655
	16.36204	51.85624
	16.36238	51.85616
	16.36423	51.85589
	16.36497	51.85568
	16.36749	51.85538
	16.36867	51.85503
	16.36991	51.85488
	16.37265	51.8539
	16.37361	51.85336
	16.37553	51.85238
	16.37671	51.85164
	16.37828	51.8511
	16.37989	51.84948
	16.38125	51.85003
	16.38708	51.84633
	16.38428	51.84359
	16.37948	51.839
	16.38197	51.83876
	16.38349	51.83865
	16.38444	51.83867
	16.38504	51.83852
	16.38973	51.83831
	16.39002	51.83817
	16.39213	51.83817
	16.39405	51.83824
	16.39589	51.83818
	16.39656	51.83802
	16.39789	51.83811
	16.4007	51.83789
	16.39982	51.83702
	16.39896	51.83623
	16.3987	51.83531
	16.39925	51.83458
	16.39944	51.83354
	16.39988	51.83215
	16.40008	51.83178
	16.40062	51.83066
	16.40033	51.83051
	16.39968	51.83009
	16.39947	51.82988
	16.39768	51.82748
	16.39746	51.82698
	16.39631	51.82553
	16.39603	51.82507
	16.39485	51.82337
	16.39431	51.82223
	16.39408	51.82148
	16.39391	51.82037
	16.39388	51.8197
	16.39401	51.81944
	16.39418	51.81922
	16.39451	51.81893
	16.39599	51.81801
	16.39686	51.81725
	16.39789	51.8165
	16.39962	51.81518
	16.40058	51.81438
	16.40091	51.81403
	16.40105	51.81366
	16.40176	51.81219
	16.40215	51.81081
	16.4023	51.80897
	16.40179	51.80518
	16.40192	51.80483
	16.40192	51.80478
	16.40191	51.80475
	16.40167	51.80451
	16.40153	51.80433
	16.40116	51.80378
	16.40097	51.80359
	16.39979	51.80277
	16.39965	51.80263
	16.39955	51.80248
	16.39946	51.8023
	16.39939	51.8021
	16.39922	51.80194
	16.39896	51.80174
	16.39788	51.80077
	16.39747	51.80045
	16.39692	51.79995
	16.39635	51.7993
	16.39507	51.79815
	16.39449	51.7977
	16.39414	51.79736
	16.3931	51.79641
	16.39283	51.79625
	16.39103	51.79546
	16.39033	51.79511
	16.38973	51.79484
	16.38953	51.79477
	16.38926	51.7947
	16.38863	51.79457
	16.38834	51.79448
	16.38805	51.79433
	16.38817	51.79412
	16.38842	51.79403
	16.38867	51.79391
	16.38874	51.79381
	16.38875	51.79367
	16.38849	51.79355
	16.38837	51.79338
	16.38831	51.79316
	16.3883	51.79292
	16.3884	51.79263
	16.38861	51.79242
	16.3887	51.79216
	16.38853	51.79134
	16.39324	51.78671
	16.39371	51.78645
	16.39395	51.78661
	16.39612	51.78776
	16.39655	51.78801
	16.39907	51.78969
	16.3992	51.78979
	16.39931	51.78984
	16.39955	51.7899
	16.40017	51.78996
	16.40067	51.79002
	16.40094	51.79004
	16.4012	51.79002
	16.40147	51.79002
	16.4018	51.78997
	16.40198	51.7899
	16.40212	51.7898
	16.4022	51.78967
	16.40228	51.7895
	16.40241	51.78937
	16.40247	51.78922
	16.40246	51.78906
	16.4025	51.78891
	16.40266	51.7887
	16.40311	51.7882
	16.40319	51.78808
	16.40325	51.78782
	16.40332	51.78766
	16.40344	51.78749
	16.40358	51.78732
	16.40428	51.78679
	16.4045	51.78659
	16.40472	51.78648
	16.40555	51.78613
	16.40571	51.78609
	16.4059	51.78606
	16.40615	51.78607
	16.40638	51.78604
	16.40651	51.78599
	16.40664	51.78591
	16.40749	51.78522
	16.40763	51.78513
	16.40787	51.78512
	16.40809	51.78513
	16.40831	51.78508
	16.40852	51.78499
	16.40904	51.78461
	16.40926	51.78448
	16.40967	51.78435
	16.41006	51.78429
	16.41046	51.78419
	16.41088	51.78412
	16.41123	51.78414
	16.41173	51.78433
	16.41198	51.78449
	16.41224	51.78463
	16.41249	51.78475
	16.41267	51.7848
	16.41296	51.78481
	16.41336	51.78477
	16.41395	51.78481
	16.41621	51.7849
	16.41644	51.78369
	16.41693	51.78276
	16.4143	51.78229
	16.41141	51.78107
	16.40872	51.78001
	16.41117	51.77875
	16.40859	51.77527
	16.40786	51.77322
	16.40842	51.77282
	16.40577	51.77219
	16.39815	51.77043
	16.39679	51.76851
	16.3952	51.76728
	16.38472	51.76993
	16.38337	51.7705
	16.38174	51.76894
	16.38022	51.76778
	16.3774	51.76718
	16.37955	51.76576
	16.37813	51.764
	16.3775	51.7638
	16.37627	51.76228
	16.37614	51.75973
	16.37717	51.75701
	16.37651	51.75565
	16.3781	51.75303
	16.37541	51.75011
	16.37385	51.75098
	16.37263	51.74965
	16.3717	51.74756
	16.37087	51.74491
	16.36981	51.74514
	16.36832	51.74395
	16.36669	51.74299
	16.36573	51.74143
	16.36467	51.74176
	16.36384	51.74256
	16.36265	51.74246
	16.36182	51.74146
	16.36262	51.74107
	16.36212	51.73951
	16.36172	51.7358
	16.36434	51.7351
	16.36722	51.73341
	16.36613	51.73281
	16.36633	51.73218
	16.36719	51.73152
	16.36759	51.72824
	16.36716	51.72668
	16.36616	51.72575
	16.36481	51.72542
	16.35884	51.72088
	16.3591	51.71965
	16.35993	51.71965
	16.3593	51.71863
	16.35615	51.71611
	16.3537	51.71535
	16.35271	51.71644
	16.35158	51.71664
	16.35045	51.71584
	16.35049	51.71515
	16.35108	51.71482
	16.35085	51.71432
	16.3489	51.71359
	16.3482	51.71296
	16.34797	51.7124
	16.3485	51.71153
	16.35026	51.7108
	16.34721	51.70882
	16.34508	51.70875
	16.34333	51.70918
	16.34005	51.70875
	16.33899	51.70746
	16.33962	51.70699
	16.33869	51.70607
	16.33425	51.70494
	16.33282	51.70474
	16.33216	51.70418
	16.33017	51.70378
	16.32898	51.70312
	16.32792	51.70292
	16.32606	51.70176
	16.32467	51.70242
	16.32089	51.70272
	16.31698	51.70255
	16.31187	51.70126
	16.3074	51.6997
	16.30273	51.69831
	16.30279	51.69791
	16.30342	51.69715
	16.30299	51.69589
	16.3017	51.69509
	16.29724	51.69455
	16.29756	51.69377
	16.29984	51.69098
	16.30002	51.69012
	16.28937	51.68953
	16.28186	51.68849
	16.27922	51.68817
	16.27755	51.68821
	16.27654	51.68845
	16.27663	51.6872
	16.276	51.6871
	16.27551	51.68704
	16.26974	51.68466
	16.26918	51.68447
	16.26889	51.68395
	16.26791	51.67805
	16.26796	51.67746
	16.26839	51.67682
	16.26874	51.67641
	16.26899	51.67626
	16.2695	51.67592
	16.27602	51.67245
	16.27517	51.67104
	16.27134	51.66852
	16.27039	51.66442
	16.27021	51.6635
	16.26959	51.66331
	16.26915	51.66378
	16.26866	51.66439
	16.26837	51.66485
	16.26789	51.66618
	16.26733	51.66728
	16.26695	51.66897
	16.26669	51.66982
	16.26589	51.67226
	16.26556	51.67314
	16.26515	51.67367
	16.26446	51.67414
	16.26337	51.67485
	16.2621	51.67551
	16.26107	51.67606
	16.25995	51.67656
	16.25881	51.67712
	16.25768	51.6777
	16.25685	51.67835
	16.25596	51.67913
	16.25516	51.67986
	16.25482	51.68031
	16.25463	51.68072
	16.25444	51.68123
	16.25423	51.68201
	16.25407	51.68277
	16.25383	51.68364
	16.25357	51.68426
	16.25323	51.68485
	16.25274	51.68562
	16.25218	51.68612
	16.25158	51.68645
	16.25068	51.68679
	16.24958	51.68701
	16.24805	51.68724
	16.24679	51.68731
	16.24526	51.68737
	16.2435	51.6875
	16.24179	51.68765
	16.24054	51.68782
	16.23906	51.68819
	16.23759	51.68863
	16.23565	51.68923
	16.23413	51.68986
	16.2329	51.69049
	16.23055	51.69205
	16.22921	51.69286
	16.22789	51.69346
	16.22633	51.69429
	16.22426	51.69514
	16.2233	51.69541
	16.22379	51.69662
	16.22361	51.69666
	16.22593	51.69766
	16.22174	51.69871
	16.2219	51.69887
	16.22605	51.69773
	16.22716	51.69817
	16.22783	51.69875
	16.22506	51.70198
	16.22453	51.70275
	16.22361	51.7038
	16.22281	51.70465
	16.21939	51.71029
	16.21846	51.71197
	16.21886	51.71217
	16.21777	51.71455
	16.2161	51.71394
	16.21325	51.71454
	16.211	51.71422
	16.20972	51.7141
	16.20912	51.71466
	16.20631	51.71454
	16.20623	51.71506
	16.20243	51.71446
	16.20168	51.71499
	16.20178	51.71682
	16.20098	51.71795
	16.19981	51.71819
	16.19492	51.7163
	16.19472	51.71546
	16.19147	51.71594
	16.18907	51.71506
	16.18542	51.71598
	16.18405	51.71394
	16.18329	51.71398
	16.18209	51.71285
	16.18285	51.71141
	16.17359	51.71205
	16.17223	51.70906
	16.16622	51.70949
	16.16164	51.71134
	16.15989	51.71013
	16.15828	51.71245
	16.15837	51.71294
	16.15849	51.71335
	16.15882	51.71414
	16.15917	51.71523
	16.15936	51.71588
	16.15841	51.71598
	16.15856	51.71778
	16.15979	51.71795
	16.15977	51.71825
	16.15977	51.71872
	16.15981	51.71981
	16.15995	51.72047
	16.16013	51.72092
	16.16089	51.72314
	16.16376	51.73112
	16.16412	51.73196
	16.16497	51.7329
	16.16519	51.73302
	16.16556	51.73319
	16.16693	51.73363
	16.16994	51.74197
	16.17814	51.76391
	16.17289	51.76388
	16.16517	51.75984
	16.16046	51.75884
	16.15513	51.75904
	16.15155	51.76004
	16.14001	51.75954
	16.13597	51.75957
	16.13368	51.75835
	16.13332	51.75928
	16.13365	51.76166
	16.13415	51.76348
	16.13418	51.76521
	16.12294	51.76547
	16.12129	51.76544
	16.11817	51.76567
	16.11628	51.76368
	16.1009	51.7674
	16.09961	51.7661
	16.09132	51.76835
	16.09245	51.77008
	16.08867	51.77074
	16.08045	51.77313
	16.0787	51.7731
	16.07797	51.77469
	16.07797	51.77697
	16.0726	51.7778
	16.07008	51.78261
	16.06087	51.78201
	16.05821	51.78158
	16.05576	51.78185
	16.05387	51.78168
	16.05238	51.78208
	16.05029	51.78277
	16.04731	51.78268
	16.04492	51.7835
	16.04257	51.7837
	16.04121	51.78201
	16.04045	51.78221
	16.03995	51.78082
	16.03697	51.78188
	16.03523	51.78188
	16.03399	51.78513
	16.03488	51.79003
	16.03505	51.7953
	16.02905	51.80235
	16.02189	51.80283
	16.02195	51.80183
	16.01794	51.8012
	16.01301	51.80167
	16.00943	51.80206
	16.00949	51.8014
	16.00396	51.80044
	16.00257	51.80177
	16.00144	51.80366
	15.99617	51.80134
	15.99488	51.80482
	15.97923	51.8023
	15.98059	51.80127
	15.98212	51.80081
	15.98284	51.79991
	15.98228	51.79938
	15.98042	51.79911
	15.97953	51.79752
	15.97757	51.79676
	15.97738	51.79587
	15.97148	51.79434
	15.96849	51.79494
	15.96684	51.79328
	15.96591	51.79166
	15.96816	51.78792
	15.96998	51.78533
	15.96998	51.78476
	15.97174	51.78453
	15.97174	51.7838
	15.97217	51.78354
	15.97184	51.78254
	15.97496	51.78221
	15.97482	51.78185
	15.97738	51.78161
	15.9788	51.78052
	15.98026	51.78006
	15.98016	51.77953
	15.98245	51.77929
	15.98248	51.77847
	15.99302	51.77817
	15.99249	51.77853
	15.99418	51.77896
	15.99504	51.77807
	15.99779	51.7781
	15.99846	51.77714
	16.00107	51.77797
	16.00144	51.77764
	16.00363	51.77817
	16.0028	51.77943
	16.00439	51.77983
	16.00883	51.77575
	16.00823	51.77528
	16.00704	51.77389
	16.00846	51.77346
	16.00717	51.77336
	15.98898	51.76912
	15.98483	51.77164
	15.98009	51.77356
	15.97668	51.76899
	15.97708	51.76816
	15.96896	51.76829
	15.97665	51.7483
	15.97363	51.74628
	15.97747	51.74565
	15.98049	51.74559
	15.97897	51.74476
	15.9733	51.74383
	15.97141	51.74476
	15.96773	51.74522
	15.96551	51.74376
	15.961	51.74353
	15.96117	51.74224
	15.96024	51.74118
	15.96153	51.74048
	15.95938	51.73946
	15.96405	51.73737
	15.96319	51.73367
	15.95467	51.73617
	15.95222	51.73402
	15.94675	51.73644
	15.94592	51.73561
	15.94354	51.73551
	15.94198	51.73667
	15.94039	51.73594
	15.9383	51.73697
	15.92998	51.73762
	15.92943	51.73682
	15.9294	51.73563
	15.92834	51.73483
	15.92784	51.73218
	15.92748	51.73129
	15.92632	51.73096
	15.92658	51.7296
	15.92493	51.72953
	15.92191	51.7297
	15.91253	51.72559
	15.90997	51.72705
	15.90636	51.72824
	15.90404	51.7297
	15.89946	51.73059
	15.89804	51.73059
	15.89479	51.73023
	15.89151	51.72874
	15.88949	51.72652
	15.88883	51.72499
	15.88757	51.72324
	15.88541	51.72118
	15.88249	51.71992
	15.87839	51.71886
	15.8758	51.71899
	15.87184	51.72072
	15.87101	51.72012
	15.87068	51.71968
	15.87045	51.71964
	15.86953	51.71966
	15.86927	51.71872
	15.86919	51.71834
	15.86974	51.71814
	15.86946	51.717
	15.86889	51.71704
	15.8687	51.7164
	15.86839	51.71627
	15.86824	51.71598
	15.86835	51.71551
	15.86761	51.70716
	15.86738	51.70696
	15.86821	51.70666
	15.86804	51.70623
	15.86519	51.70713
	15.86599	51.70216
	15.86271	51.70173
	15.86463	51.69864
	15.86556	51.69264
	15.86545	51.69264
	15.86562	51.69246
	15.86559	51.69103
	15.86609	51.69099
	15.86678	51.69155
	15.86758	51.69089
	15.86871	51.69099
	15.86861	51.6888
	15.86665	51.6887
	15.86466	51.68936
	15.86463	51.68965
	15.86273	51.68969
	15.86247	51.68996
	15.86232	51.69007
	15.85886	51.68973
	15.85495	51.6888
	15.85558	51.68824
	15.85339	51.68698
	15.85316	51.68495
	15.85273	51.68389
	15.85141	51.68383
	15.84839	51.68267
	15.84706	51.68174
	15.84246	51.68161
	15.84279	51.67978
	15.84345	51.67945
	15.84467	51.67589
	15.84479	51.67541
	15.84409	51.6753
	15.8437	51.67503
	15.84307	51.67478
	15.84164	51.67454
	15.84124	51.67441
	15.84045	51.67404
	15.83964	51.67378
	15.83664	51.67343
	15.83606	51.67324
	15.83558	51.67292
	15.83484	51.67258
	15.83444	51.67231
	15.83425	51.6722
	15.83489	51.672
	15.83568	51.6715
	15.83627	51.67096
	15.83712	51.67039
	15.83742	51.67003
	15.83795	51.66964
	15.83881	51.66924
	15.84135	51.66747
	15.84279	51.66709
	15.84344	51.66702
	15.84537	51.66642
	15.84573	51.66602
	15.84666	51.66592
	15.84862	51.66579
	15.84972	51.6652
	15.84874	51.6648
	15.84627	51.66453
	15.84511	51.66424
	15.84459	51.66375
	15.84407	51.66319
	15.84329	51.66231
	15.84274	51.66129
	15.84472	51.66136
	15.84549	51.66125
	15.84599	51.66103
	15.84648	51.66086
	15.8493	51.66049
	15.85066	51.66021
	15.85154	51.66021
	15.85454	51.65892
	15.85591	51.65778
	15.85619	51.65732
	15.85584	51.65516
	15.85627	51.65446
	15.85575	51.65316
	15.85547	51.65274
	15.85567	51.6516
	15.85688	51.65082
	15.85718	51.65041
	15.856	51.65011
	15.8547	51.65001
	15.85259	51.6495
	15.85125	51.64893
	15.84872	51.64812
	15.84588	51.64741
	15.84238	51.64618
	15.83932	51.6455
	15.83757	51.64503
	15.83607	51.64368
	15.83448	51.64169
	15.83377	51.64072
	15.83306	51.64022
	15.83181	51.63848
	15.83097	51.63721
	15.8301	51.63697
	15.83044	51.63679
	15.83067	51.63584
	15.83122	51.63468
	15.83194	51.63246
	15.83217	51.6309
	15.83237	51.62927
	15.83226	51.62921
	15.83234	51.6281
	15.83285	51.62547
	15.83404	51.62223
	15.83314	51.62138
	15.83296	51.62138
	15.8314	51.62005
	15.83058	51.61875
	15.82982	51.61787
	15.82761	51.61597
	15.82599	51.61506
	15.82464	51.61446
	15.82285	51.61309
	15.82184	51.61012
	15.82259	51.60875
	15.8216	51.60724
	15.82038	51.60594
	15.81942	51.60519
	15.819	51.6049
	15.81839	51.6042
	15.8182	51.60381
	15.81825	51.60288
	15.81578	51.60289
	15.82391	51.57372
	15.82364	51.57274
	15.81071	51.57279
	15.80806	51.5734
	15.80764	51.5734
	15.79519	51.57223
	15.78701	51.57133
	15.78314	51.57099
	15.7702	51.5697
	15.76947	51.56951
	15.74253	51.55572
	15.74079	51.55582
	15.74092	51.55565
	15.74019	51.5552
	15.73318	51.55398
	15.72909	51.55324
	15.72363	51.55212
	15.72078	51.55312
	15.72014	51.55327
	15.71708	51.55412
	15.71209	51.5552
	15.71032	51.55544
	15.70616	51.55627
	15.70492	51.55665
	15.70378	51.55705
	15.70378	51.55693
	15.7052	51.55571
	15.70642	51.55452
	15.70597	51.55402
	15.70595	51.5529
	15.70467	51.55267
	15.70467	51.55198
	15.70284	51.5519
	15.7028	51.54983
	15.70322	51.54925
	15.70326	51.54638
	15.70451	51.5464
	15.70568	51.54644
	15.709	51.5466
	15.71232	51.54654
	15.71215	51.54558
	15.71305	51.54278
	15.71202	51.5358
	15.71221	51.53572
	15.71219	51.53553
	15.71224	51.53528
	15.71245	51.53497
	15.71271	51.53464
	15.71151	51.533
	15.71239	51.53231
	15.7126	51.53192
	15.71236	51.53155
	15.71086	51.52943
	15.71096	51.52918
	15.71093	51.52824
	15.71199	51.52662
	15.71204	51.52586
	15.71171	51.52537
	15.71137	51.52456
	15.71081	51.52368
	15.71293	51.52307
	15.71324	51.52283
	15.71307	51.52264
	15.71414	51.52162
	15.71437	51.52166
	15.71518	51.52225
	15.71613	51.52209
	15.71565	51.52128
	15.71658	51.52149
	15.71765	51.52137
	15.71911	51.52117
	15.71988	51.5211
	15.72107	51.52091
	15.72144	51.52056
	15.7217	51.5204
	15.72244	51.52014
	15.72303	51.51977
	15.72337	51.51943
	15.72375	51.51914
	15.72387	51.51864
	15.72442	51.51812
	15.72483	51.51776
	15.72487	51.51764
	15.72493	51.51757
	15.72485	51.51749
	15.72513	51.51742
	15.70072	51.51732
	15.69947	51.51637
	15.69928	51.5157
	15.70017	51.51463
	15.70103	51.51246
	15.69147	51.51253
	15.6903	51.51232
	15.67898	51.51231
	15.67888	51.50569
	15.67335	51.50567
	15.67316	51.49895
	15.6677	51.49902
	15.66739	51.4889
	15.66521	51.4885
	15.66304	51.4885
	15.65937	51.48811
	15.66041	51.48701
	15.663	51.48578
	15.66379	51.4849
	15.66418	51.48264
	15.66228	51.48099
	15.66065	51.47862
	15.66069	51.47743
	15.66018	51.47662
	15.65604	51.47343
	15.65593	51.47241
	15.6548	51.47217
	15.65434	51.47262
	15.65381	51.47276
	15.6526	51.47294
	15.65174	51.47341
	15.65104	51.47406
	15.65102	51.47457
	15.6496	51.47543
	15.64876	51.47673
	15.64699	51.47599
	15.64634	51.4775
	15.64678	51.47836
	15.64606	51.47913
	15.64518	51.47887
	15.63465	51.47882
	15.6345	51.47206
	15.62899	51.47206
	15.62894	51.47064
	15.62406	51.47208
	15.62399	51.46573
	15.62378	51.46462
	15.6235	51.46462
	15.62347	51.46349
	15.62108	51.46192
	15.61695	51.46017
	15.61644	51.45973
	15.61598	51.45892
	15.60402	51.44993
	15.60289	51.44878
	15.60141	51.44784
	15.59984	51.44568
	15.59949	51.44572
	15.5992	51.44628
	15.59916	51.4468
	15.59878	51.44737
	15.59756	51.44862
	15.5973	51.44957
	15.59689	51.44982
	15.59664	51.45035
	15.59717	51.45142
	15.59368	51.45185
	15.59281	51.45194
	15.59216	51.4513
	15.59166	51.45101
	15.59214	51.45062
	15.59245	51.44985
	15.59239	51.44926
	15.59178	51.44901
	15.5909	51.44891
	15.58803	51.45062
	15.58632	51.44972
	15.5857	51.4502
	15.58605	51.45087
	15.58615	51.45183
	15.5838	51.45224
	15.58095	51.45306
	15.5819	51.45491
	15.58303	51.45577
	15.58505	51.45602
	15.58674	51.45552
	15.58782	51.45674
	15.58688	51.45718
	15.5878	51.45881
	15.58828	51.45949
	15.58749	51.45983
	15.58734	51.46026
	15.58836	51.46056
	15.58855	51.461
	15.58991	51.46108
	15.59285	51.46239
	15.5917	51.46268
	15.59118	51.46323
	15.59027	51.46444
	15.59354	51.46598
	15.59484	51.46795
	15.59594	51.46955
	15.59583	51.46958
	15.59548	51.46961
	15.59538	51.46969
	15.59503	51.46971
	15.59463	51.46988
	15.59339	51.47035
	15.59237	51.47076
	15.59208	51.4708
	15.59243	51.47105
	15.59145	51.47153
	15.59088	51.47185
	15.59081	51.4718
	15.59071	51.47185
	15.59079	51.47191
	15.58968	51.47256
	15.58944	51.47268
	15.58412	51.47557
	15.58086	51.47732
	15.58058	51.47724
	15.58052	51.47728
	15.58074	51.47739
	15.57105	51.48264
	15.56771	51.48443
	15.56756	51.48427
	15.56747	51.48432
	15.56758	51.48451
	15.56452	51.48617
	15.55689	51.49029
	15.54494	51.49672
	15.54481	51.4967
	15.54447	51.49688
	15.54451	51.49695
	15.54052	51.49909
	15.53835	51.50027
	15.53506	51.50202
	15.53398	51.50262
	15.53289	51.5032
	15.52763	51.50605
	15.52763	51.50597
	15.52519	51.50727
	15.52329	51.5083
	15.52326	51.50846
	15.52285	51.50871
	15.52258	51.50883
	15.52228	51.50898
	15.52074	51.5098
	15.52075	51.50975
	15.51871	51.51085
	15.51727	51.5116
	15.5172	51.51159
	15.51708	51.51151
	15.51706	51.51172
	15.5168	51.51188
	15.5089	51.51613
	15.50861	51.51629
	15.50864	51.51638
	15.50782	51.51672
	15.5078	51.51684
	15.50563	51.5179
	15.50456	51.51847
	15.5043	51.51856
	15.50398	51.51874
	15.5039	51.51882
	15.50345	51.51907
	15.50126	51.52024
	15.49691	51.5226
	15.49599	51.52308
	15.49363	51.52436
	15.49253	51.52494
	15.49145	51.52553
	15.48766	51.52756
	15.48749	51.52748
	15.48744	51.527
	15.48727	51.52598
	15.48788	51.52526
	15.48808	51.52445
	15.48778	51.5239
	15.48826	51.52244
	15.4872	51.52239
	15.4871	51.52234
	15.48638	51.52124
	15.48557	51.52145
	15.4856	51.52175
	15.48541	51.5222
	15.48436	51.52337
	15.48407	51.52353
	15.48419	51.52339
	15.48423	51.52316
	15.48423	51.52236
	15.48436	51.52219
	15.4847	51.52191
	15.48449	51.52111
	15.48462	51.52035
	15.48471	51.51872
	15.48543	51.51727
	15.48544	51.51669
	15.4858	51.51361
	15.4844	51.51334
	15.48227	51.51297
	15.47894	51.51337
	15.47437	51.51395
	15.46921	51.51457
	15.46901	51.51499
	15.469	51.51544
	15.47059	51.51823
	15.47031	51.51838
	15.46982	51.51868
	15.46922	51.51901
	15.46864	51.51936
	15.46717	51.52017
	15.46602	51.52064
	15.46581	51.52071
	15.46541	51.52079
	15.46439	51.52121
	15.46269	51.5222
	15.46249	51.52227
	15.4618	51.52227
	15.46162	51.52226
	15.46174	51.5219
	15.46122	51.52152
	15.46105	51.52147
	15.46083	51.52182
	15.46069	51.52198
	15.46062	51.52195
	15.45911	51.52148
	15.45763	51.52106
	15.45675	51.52165
	15.45639	51.52187
	15.45549	51.5225
	15.45356	51.52381
	15.45238	51.52463
	15.45075	51.52495
	15.45001	51.52512
	15.45012	51.52527
	15.45027	51.52569
	15.45011	51.52597
	15.44885	51.52567
	15.44841	51.52571
	15.44543	51.52612
	15.44195	51.52662
	15.44121	51.5267
	15.43696	51.52733
	15.43637	51.52658
	15.43538	51.52528
	15.43493	51.52497
	15.43465	51.52497
	15.43218	51.5247
	15.42898	51.52432
	15.42896	51.52429
	15.42545	51.52383
	15.42535	51.52386
	15.42304	51.52359
	15.42032	51.52325
	15.42028	51.52329
	15.42013	51.52327
	15.42013	51.52322
	15.41883	51.52305
	15.41759	51.52292
	15.41732	51.52285
	15.41541	51.52246
	15.41429	51.52218
	15.41125	51.52134
	15.41024	51.52102
	15.40986	51.52106
	15.40696	51.52047
	15.40676	51.52037
	15.40669	51.52012
	15.40581	51.51959
	15.40536	51.52018
	15.40519	51.52068
	15.40473	51.52108
	15.4042	51.52163
	15.40347	51.5229
	15.40331	51.52322
	15.40344	51.52373
	15.40356	51.52386
	15.40354	51.52409
	15.40298	51.52381
	15.40207	51.52535
	15.40158	51.52631
	15.40101	51.52724
	15.40055	51.5273
	15.3999	51.52769
	15.39924	51.5282
	15.39895	51.52834
	15.3986	51.52878
	15.39856	51.52885
	15.39843	51.52891
	15.39805	51.52955
	15.39788	51.5297
	15.39774	51.52974
	15.39747	51.52995
	15.39691	51.53017
	15.39658	51.53103
	15.39488	51.53056
	15.39352	51.53023
	15.39433	51.52912
	15.39271	51.52872
	15.39265	51.52868
	15.39079	51.52837
	15.38727	51.52855
	15.3857	51.52828
	15.38515	51.5279
	15.38516	51.52764
	15.38577	51.5266
	15.38577	51.52645
	15.38572	51.52632
	15.38491	51.52576
	15.38481	51.52565
	15.38472	51.52521
	15.38509	51.52372
	15.38525	51.523
	15.38519	51.52216
	15.38505	51.52084
	15.38469	51.51838
	15.38343	51.51779
	15.38278	51.51727
	15.38251	51.51697
	15.38186	51.51604
	15.38298	51.51521
	15.38224	51.51472
	15.3811	51.51485
	15.38059	51.51469
	15.38027	51.51443
	15.38032	51.51398
	15.3803	51.51366
	15.3804	51.51339
	15.38017	51.51312
	15.38105	51.51297
	15.38147	51.51285
	15.38296	51.51263
	15.38275	51.51208
	15.38223	51.51179
	15.38185	51.51153
	15.38086	51.51115
	15.3799	51.5108
	15.37902	51.51087
	15.37893	51.51089
	15.3787	51.51063
	15.37823	51.51056
	15.37784	51.51064
	15.37769	51.51047
	15.37843	51.51026
	15.37821	51.50978
	15.37733	51.50884
	15.37423	51.50974
	15.3741	51.50951
	15.37232	51.50862
	15.37121	51.50789
	15.37092	51.50731
	15.37081	51.50701
	15.37075	51.50657
	15.37061	51.50626
	15.37061	51.50562
	15.37069	51.50514
	15.37058	51.50467
	15.3703	51.50423
	15.37001	51.50367
	15.36984	51.5026
	15.3696	51.50209
	15.36908	51.50116
	15.36903	51.50077
	15.36913	51.50045
	15.36945	51.5
	15.36966	51.49946
	15.36895	51.49695
	15.36907	51.49643
	15.36886	51.49576
	15.36841	51.49535
	15.36835	51.49526
	15.36761	51.49491
	15.36716	51.49445
	15.36701	51.49396
	15.36693	51.49339
	15.36706	51.49289
	15.36756	51.49249
	15.36823	51.49215
	15.36878	51.4914
	15.36926	51.49099
	15.37047	51.49024
	15.37082	51.48959
	15.37089	51.48889
	15.37147	51.48836
	15.37152	51.48804
	15.37144	51.48796
	15.37107	51.48795
	15.37085	51.48786
	15.37059	51.48765
	15.37007	51.48718
	15.36975	51.48691
	15.36947	51.4866
	15.36937	51.4864
	15.36929	51.48578
	15.36944	51.48508
	15.36966	51.48442
	15.36968	51.48402
	15.36974	51.48343
	15.37001	51.48314
	15.37006	51.48305
	15.37043	51.48272
	15.37052	51.48245
	15.37063	51.48183
	15.37077	51.48146
	15.37063	51.48124
	15.37045	51.48046
	15.37062	51.48012
	15.37115	51.47969
	15.3716	51.47945
	15.37264	51.47897
	15.37278	51.47892
	15.37331	51.47888
	15.37561	51.47911
	15.37609	51.47931
	15.37703	51.4799
	15.37776	51.48152
	15.37791	51.48165
	15.37821	51.48183
	15.37851	51.48189
	15.37913	51.48182
	15.37961	51.48146
	15.37985	51.4813
	15.38015	51.48114
	15.38028	51.481
	15.38032	51.48087
	15.38033	51.48077
	15.3803	51.48059
	15.37993	51.48013
	15.37995	51.47949
	15.38072	51.47859
	15.38	51.47771
	15.38021	51.4765
	15.38024	51.47557
	15.38028	51.47545
	15.38022	51.47387
	15.38065	51.4735
	15.3814	51.47316
	15.38212	51.47235
	15.38207	51.47214
	15.38169	51.47193
	15.38149	51.4718
	15.38092	51.47124
	15.38047	51.47077
	15.37973	51.47038
	15.37928	51.47019
	15.37879	51.47001
	15.37716	51.46982
	15.37651	51.46997
	15.37616	51.46999
	15.3759	51.46997
	15.37478	51.46982
	15.37249	51.46966
	15.36642	51.47006
	15.36474	51.47051
	15.36359	51.47062
	15.36197	51.47104
	15.3599	51.47116
	15.35523	51.47132
	15.34986	51.47147
	15.34686	51.4716
	15.34666	51.47163
	15.34582	51.47188
	15.34186	51.47323
	15.33941	51.47409
	15.33807	51.46859
	15.33628	51.4618
	15.33457	51.45506
	15.33366	51.4516
	15.33558	51.45071
	15.33783	51.44959
	15.34328	51.44695
	15.34314	51.44678
	15.34295	51.44667
	15.34232	51.44617
	15.34219	51.4461
	15.34183	51.44587
	15.34177	51.44581
	15.34117	51.44518
	15.34109	51.44508
	15.3409	51.4447
	15.33984	51.44336
	15.33972	51.44323
	15.33835	51.44197
	15.33815	51.44171
	15.33743	51.44048
	15.33676	51.43909
	15.33582	51.43784
	15.3353	51.43689
	15.33349	51.4348
	15.33319	51.43453
	15.33194	51.43333
	15.33021	51.43141
	15.32837	51.42956
	15.32813	51.4291
	15.32811	51.4286
	15.32806	51.42822
	15.32812	51.4277
	15.32811	51.42752
	15.32798	51.42697
	15.32796	51.4265
	15.32788	51.42637
	15.32792	51.42575
	15.32811	51.42482
	15.32847	51.42409
	15.32856	51.42378
	15.32861	51.42354
	15.3287	51.42292
	15.3284	51.422
	15.32798	51.42141
	15.32661	51.4199
	15.32607	51.41947
	15.32554	51.41896
	15.32493	51.4185
	15.32453	51.41835
	15.32503	51.41828
	15.3258	51.41771
	15.32601	51.41739
	15.32704	51.4165
	15.32794	51.41449
	15.32943	51.41353
	15.33048	51.41253
	15.33062	51.41241
	15.3319	51.41158
	15.33366	51.4099
	15.33299	51.40975
	15.33188	51.40953
	15.33115	51.40935
	15.33033	51.40912
	15.32992	51.40896
	15.32894	51.40864
	15.32869	51.40853
	15.32854	51.40846
	15.32738	51.40775
	15.32619	51.40762
	15.32513	51.40775
	15.32388	51.40798
	15.32336	51.40816
	15.32285	51.40824
	15.32165	51.4083
	15.32147	51.40842
	15.32159	51.40881
	15.32145	51.40887
	15.3213	51.40946
	15.3211	51.41085
	15.31971	51.41226
	15.31883	51.41266
	15.31829	51.41282
	15.3183	51.4146
	15.31838	51.41468
	15.31722	51.41558
	15.31519	51.41767
	15.31206	51.41768
	15.30917	51.41838
	15.30764	51.41877
	15.30498	51.41917
	15.29833	51.42009
	15.29282	51.42312
	15.29255	51.42333
	15.29242	51.42362
	15.29186	51.42415
	15.29184	51.4248
	15.29181	51.42498
	15.29196	51.4259
	15.29196	51.42605
	15.29192	51.42625
	15.29173	51.42651
	15.29114	51.42661
	15.29087	51.42701
	15.29084	51.42713
	15.29069	51.42723
	15.29058	51.42761
	15.29048	51.42764
	15.29031	51.42793
	15.29018	51.42854
	15.28997	51.42886
	15.28985	51.42895
	15.28923	51.42935
	15.28973	51.43137
	15.28962	51.43135
	15.28779	51.43089
	15.28754	51.43085
	15.28351	51.43035
	15.2785	51.42971
	15.27828	51.43001
	15.27805	51.42999
	15.27769	51.42978
	15.27686	51.42984
	15.27572	51.42982
	15.27552	51.4298
	15.27511	51.43008
	15.27261	51.43286
	15.27174	51.43549
	15.27252	51.4364
	15.27236	51.43799
	15.27007	51.43893
	15.26837	51.4402
	15.268	51.44138
	15.2649	51.4422
	15.26208	51.44399
	15.26002	51.44384
	15.25653	51.44492
	15.23698	51.4462
	15.22904	51.44516
	15.21375	51.44474
	15.21209	51.44448
	15.21092	51.44414
	15.20997	51.4441
	15.20842	51.44432
	15.20576	51.44489
	15.20093	51.44606
	15.20092	51.44612
	15.20085	51.44622
	15.20086	51.44663
	15.20108	51.44731
	15.20027	51.44793
	15.20025	51.44818
	15.20066	51.44853
	15.20123	51.44861
	15.2015	51.4488
	15.20148	51.44889
	15.20046	51.44911
	15.19988	51.44937
	15.20007	51.44958
	15.20034	51.44957
	15.20048	51.44979
	15.20121	51.45044
	15.20092	51.45088
	15.20099	51.45103
	15.20154	51.45163
	15.20218	51.45191
	15.20233	51.45292
	15.20275	51.45351
	15.2019	51.45487
	15.20166	51.45508
	15.20175	51.45537
	15.20159	51.45562
	15.20139	51.45571
	15.20136	51.45585
	15.20147	51.45599
	15.20194	51.45634
	15.20199	51.45653
	15.20225	51.45678
	15.20266	51.45684
	15.2029	51.45703
	15.20321	51.45713
	15.2036	51.45751
	15.20333	51.45964
	15.20277	51.46125
	15.20266	51.46303
	15.19869	51.46187
	15.19646	51.46225
	15.18564	51.46316
	15.15805	51.44876
	15.15299	51.44596
	15.15189	51.44335
	15.14996	51.44217
	15.14727	51.44163
	15.14528	51.44064
	15.13922	51.44028
	15.13768	51.43951
	15.13205	51.43846
	15.13147	51.43818
	15.12979	51.43794
	15.12917	51.43763
	15.12834	51.43697
	15.12811	51.43637
	15.12766	51.43568
	15.12557	51.43483
	15.12408	51.43451
	15.12096	51.43406
	15.11984	51.4334
	15.11864	51.43172
	15.10803	51.42888
	15.10758	51.42776
	15.09562	51.42538
	15.09311	51.42941
	15.08924	51.42785
	15.08774	51.42685
	15.08736	51.42588
	15.0868	51.42585
	15.08622	51.42551
	15.08564	51.42534
	15.08526	51.42521
	15.08462	51.42443
	15.08481	51.42312
	15.08486	51.42292
	15.08536	51.42228
	15.08494	51.42188
	15.08489	51.42122
	15.08521	51.42049
	15.0843	51.41973
	15.08351	51.41922
	15.08288	51.41847
	15.08316	51.41755
	15.08295	51.41714
	15.08253	51.41549
	15.08265	51.41423
	15.08283	51.4092
	15.0827	51.40779
	15.0789	51.40323
	15.07587	51.39982
	15.07093	51.39676
	15.06754	51.39631
	15.06345	51.39674
	15.05889	51.3968
	15.03436	51.39379
	15.02495	51.39305
	15.01768	51.3934
	15.01837	51.38643
	15.01339	51.38435
	15.00913	51.373
	15.0118	51.36932
	15.01292	51.36743
	15.01241	51.3649
	15.01229	51.36354
	15.009	51.36461
	15.00765	51.36438
	14.99806	51.364
	14.99054	51.36381
	14.98272	51.36322
	14.9745	51.36404
	14.97694	51.36536
	14.97797	51.36622
	14.97815	51.36715
	14.97741	51.36812
	14.97716	51.36864
	14.9775	51.36943
	14.97833	51.37026
	14.97978	51.37066
	14.98093	51.37088
	14.98186	51.3715
	14.98338	51.37295
	14.98375	51.3738
	14.98308	51.37452
	14.98183	51.37515
	14.98052	51.37532
	14.97888	51.37532
	14.97788	51.37566
	14.9766	51.37649
	14.97508	51.37784
	14.97382	51.37865
	14.97147	51.37884
	14.97028	51.37889
	14.96939	51.37915
	14.96886	51.37949
	14.96849	51.38018
	14.96906	51.38106
	14.96935	51.38186
	14.96847	51.38272
	14.967	51.38359
	14.96486	51.38623
	14.96467	51.3869
	14.96483	51.38785
	14.96517	51.38907
	14.96592	51.39021
	14.96611	51.39077
	14.96599	51.39122
	14.9649	51.39233
	14.96359	51.39362
	14.96305	51.3945
	14.96224	51.39492
	14.96061	51.39516
	14.95896	51.39523
	14.95848	51.39539
	14.95833	51.3957
	14.95854	51.39599
	14.95979	51.39652
	14.96152	51.39747
	14.96359	51.39803
	14.96529	51.39802
	14.96689	51.39757
	14.96802	51.39745
	14.96892	51.39782
	14.96921	51.39833
	14.96856	51.4004
	14.96815	51.40241
	14.96687	51.40348
	14.96538	51.40468
	14.96423	51.40581
	14.96359	51.40714
	14.96305	51.40792
	14.96247	51.40815
	14.96105	51.40844
	14.95989	51.40881
	14.95919	51.4093
	14.95871	51.40978
	14.95861	51.41038
	14.95896	51.4109
	14.95957	51.41119
	14.95957	51.4112
	14.96037	51.41138
	14.96192	51.41157
	14.96353	51.4119
	14.96459	51.41227
	14.96511	51.41289
	14.96696	51.41631
	14.96702	51.41755
	14.96678	51.41868
	14.96632	51.42051
	14.96436	51.42268
	14.96409	51.42326
	14.96421	51.42372
	14.96481	51.42413
	14.96576	51.4247
	14.96617	51.42534
	14.96638	51.42603
	14.96627	51.42644
	14.966	51.42685
	14.96511	51.42745
	14.96375	51.42785
	14.96246	51.42799
	14.96138	51.42825
	14.96034	51.42891
	14.95942	51.42977
	14.95869	51.43082
	14.95863	51.43144
	14.95897	51.43182
	14.96016	51.43257
	14.96183	51.43346
	14.96289	51.43412
	14.96376	51.43426
	14.96452	51.43421
	14.96542	51.43391
	14.96664	51.43333
	14.96724	51.43296
	14.96822	51.4323
	14.96949	51.43208
	14.97041	51.43223
	14.97098	51.43277
	14.97104	51.43284
	14.97147	51.43367
	14.97252	51.43513
	14.97348	51.4364
	14.97373	51.43714
	14.97334	51.43884
	14.97362	51.43978
	14.9741	51.44072
	14.97412	51.44167
	14.9738	51.44231
	14.973	51.44291
	14.96951	51.44439
	14.96794	51.4452
	14.96596	51.44688
	14.96521	51.44811
	14.96521	51.44942
	14.96465	51.45077
	14.96256	51.45338
	14.96087	51.45454
	14.95918	51.45554
	14.9578	51.45671
	14.95697	51.45772
	14.95606	51.45828
	14.95566	51.45909
	14.9556	51.45996
	14.95659	51.46259
	14.95632	51.4635
	14.95571	51.46423
	14.95434	51.46539
	14.95327	51.46705
	14.95276	51.46813
	14.95179	51.46899
	14.9506	51.46963
	14.94974	51.47035
	14.94904	51.47129
	14.94829	51.47178
	14.94716	51.47203
	14.94564	51.47205
	14.94368	51.47219
	14.94117	51.47232
	14.93822	51.47235
	14.93552	51.47272
	14.9329	51.47319
	14.93091	51.47326
	14.92901	51.47306
	14.92719	51.47312
	14.92599	51.47358
	14.92525	51.47432
	14.92524	51.47557
	14.92532	51.47777
	14.92524	51.47938
	14.92458	51.4805
	14.92316	51.48173
	14.92184	51.48244
	14.92053	51.48268
	14.91877	51.48291
	14.91611	51.48376
	14.91573	51.48378
	14.91491	51.4838
	14.91382	51.4836
	14.9124	51.4835
	14.91046	51.4836
	14.90741	51.48399
	14.90611	51.48372
	14.90522	51.48318
	14.90388	51.48242
	14.90228	51.48214
	14.90021	51.48199
	14.89794	51.48199
	14.89603	51.4825
	14.89379	51.48339
	14.89229	51.48403
	14.89087	51.48478
	14.89025	51.48548
	14.88913	51.48685
	14.88835	51.48761
	14.88745	51.48793
	14.88651	51.48795
	14.88501	51.48772
	14.88143	51.48734
	14.88009	51.48683
	14.87937	51.48649
	14.87883	51.48625
	14.87767	51.48582
	14.87586	51.48544
	14.87436	51.48525
	14.87339	51.48507
	14.87216	51.48472
	14.87088	51.48484
	14.86997	51.48536
	14.86941	51.4861
	14.86884	51.48712
	14.86795	51.4882
	14.86629	51.48968
	14.86459	51.49055
	14.86317	51.49077
	14.86046	51.49094
	14.85946	51.49088
	14.85844	51.49071
	14.85783	51.49039
	14.85691	51.49003
	14.85591	51.48985
	14.85481	51.48967
	14.85347	51.48936
	14.85221	51.4894
	14.852	51.48948
	14.85091	51.48991
	14.84962	51.49092
	14.84783	51.49219
	14.84662	51.49283
	14.84547	51.49378
	14.84467	51.49449
	14.84413	51.49486
	14.84296	51.49514
	14.84107	51.4955
	14.83967	51.49605
	14.83895	51.49674
	14.83863	51.4981
	14.83817	51.49877
	14.83729	51.49924
	14.83632	51.49938
	14.83525	51.49942
	14.83426	51.49994
	14.83391	51.50075
	14.83333	51.50267
	14.83266	51.50351
	14.83183	51.50401
	14.82996	51.5045
	14.82746	51.50489
	14.82655	51.50495
	14.82529	51.50505
	14.82372	51.50537
	14.82182	51.50619
	14.82099	51.50669
	14.82008	51.50745
	14.81888	51.50777
	14.81794	51.50781
	14.81676	51.5073
	14.81579	51.50682
	14.81426	51.50617
	14.8136	51.50599
	14.81298	51.50595
	14.81202	51.50604
	14.81135	51.50635
	14.8109	51.50717
	14.81044	51.50845
	14.81025	51.50932
	14.81011	51.50969
	14.80969	51.50992
	14.80868	51.51028
	14.80801	51.51066
	14.80755	51.51125
	14.80723	51.5119
	14.80571	51.51385
	14.80474	51.51462
	14.80383	51.51488
	14.80276	51.51496
	14.80115	51.5149
	14.79973	51.51505
	14.79842	51.51553
	14.79775	51.51623
	14.79711	51.51712
	14.79657	51.51765
	14.79633	51.51778
	14.79527	51.51798
	14.79382	51.51808
	14.79313	51.51808
	14.7925	51.51795
	14.79149	51.51759
	14.79002	51.51719
	14.78919	51.51707
	14.78831	51.51704
	14.78758	51.51706
	14.78689	51.51716
	14.78558	51.51773
	14.78473	51.51808
	14.78382	51.51842
	14.78319	51.51849
	14.78257	51.51844
	14.78099	51.51811
	14.77878	51.51774
	14.77696	51.51766
	14.77575	51.51788
	14.77356	51.51881
	14.77273	51.51887
	14.77068	51.51889
	14.76893	51.51894
	14.76697	51.51904
	14.76526	51.51893
	14.76372	51.51955
	14.76317	51.52003
	14.76277	51.52051
	14.76214	51.5225
	14.76163	51.52298
	14.7607	51.52329
	14.75967	51.52344
	14.75918	51.52344
	14.75447	51.52202
	14.75287	51.52177
	14.75228	51.52175
	14.75162	51.52181
	14.75062	51.52199
	14.74572	51.52377
	14.74357	51.52507
	14.74218	51.52544
	14.74009	51.52529
	14.73815	51.52535
	14.73673	51.52561
	14.73583	51.52592
	14.73511	51.52637
	14.73427	51.52879
	14.73306	51.52973
	14.72943	51.53102
	14.7284	51.53242
	14.72909	51.53576
	14.72891	51.53607
	14.72713	51.53767
	14.72695	51.5378
	14.72654	51.53834
	14.72647	51.53896
	14.72648	51.53955
	14.72676	51.54048
	14.72906	51.54271
	14.73092	51.54383
	14.73125	51.5442
	14.73119	51.5451
	14.7308	51.54578
	14.72963	51.54724
	14.72946	51.54788
	14.72972	51.54953
	14.72948	51.54979
	14.72898	51.55048
	14.72822	51.55091
	14.7264	51.55175
	14.72567	51.5523
	14.72503	51.55312
	14.7244	51.55355
	14.72257	51.5543
	14.72188	51.5545
	14.72114	51.55454
	14.71979	51.55439
	14.71927	51.55438
	14.718	51.55438
	14.71716	51.55467
	14.7164	51.55513
	14.71547	51.55718
	14.71165	51.56146
	14.71137	51.56304
	14.71305	51.56416
	14.71547	51.56528
	14.71807	51.56788
	14.72003	51.57058
	14.72375	51.57319
	14.72673	51.57477
	14.72961	51.57933
	14.72982	51.58159
	14.72992	51.58362
	14.73069	51.58442
	14.73383	51.58689
	14.73654	51.58842
	14.73884	51.58937
	14.73964	51.58994
	14.73986	51.59031
	14.73975	51.59071
	14.74008	51.59128
	14.74179	51.59281
	14.74317	51.59338
	14.74426	51.59367
	14.74573	51.59437
	14.74792	51.59454
	14.7497	51.59472
	14.75098	51.59509
	14.7519	51.59558
	14.75257	51.59615
	14.75307	51.59693
	14.75327	51.59791
	14.75326	51.59893
	14.7536	51.59944
	14.75434	51.59989
	14.75565	51.60021
	14.75815	51.60103
	14.76039	51.60205
	14.76198	51.60328
	14.76238	51.60435
	14.76267	51.6054
	14.7638	51.60636
	14.76493	51.6074
	14.76519	51.60833
	14.76575	51.61136
	14.76493	51.61304
	14.76367	51.61503
	14.76401	51.61653
	14.76406	51.61738
	14.76356	51.61843
	14.76268	51.62014
	14.76108	51.6215
	14.75967	51.62245
	14.7582	51.62312
	14.75726	51.62399
	14.756	51.62555
	14.75489	51.6262
	14.75378	51.62701
	14.75332	51.62776
	14.75336	51.62847
	14.75375	51.62922
	14.75546	51.63107
	14.75595	51.63208
	14.75609	51.63286
	14.7559	51.63404
	14.7545	51.6358
	14.75434	51.63654
	14.75457	51.63741
	14.75486	51.63882
	14.75402	51.64092
	14.75401	51.64169
	14.75452	51.64275
	14.75568	51.64441
	14.75591	51.64525
	14.75577	51.64595
	14.75531	51.64657
	14.75349	51.64829
	14.75184	51.65062
	14.75107	51.65179
	14.75098	51.65263
	14.75117	51.65314
	14.75153	51.65355
	14.75325	51.65453
	14.7549	51.65552
	14.75564	51.6569
	14.7565	51.65843
	14.75736	51.65945
	14.75769	51.66064
	14.75752	51.66117
	14.75729	51.66161
	14.75609	51.66235
	14.75467	51.66309
	14.75345	51.66393
	14.75284	51.66495
	14.75282	51.66561
	14.75286	51.66656
	14.7528	51.66679
	14.75277	51.66715
	14.75287	51.66809
	14.75203	51.66903
	14.75066	51.6697
	14.74932	51.6705
	14.74862	51.6715
	14.74822	51.67306
	14.74749	51.67537
	14.74652	51.67624
	14.74526	51.67652
	14.74348	51.67673
	14.74056	51.67718
	14.73876	51.67766
	14.73767	51.6785
	14.73673	51.67983
	14.73684	51.68075
	14.73754	51.68149
	14.73853	51.68208
	14.73932	51.68305
	14.73939	51.6839
	14.73878	51.68586
	14.73781	51.68737
	14.73625	51.68857
	14.73521	51.68891
	14.73393	51.68887
	14.73246	51.68848
	14.73122	51.68825
	14.72986	51.68828
	14.72835	51.68873
	14.72413	51.69067
	14.72016	51.6933
	14.72006	51.69339
	14.71638	51.6963
	14.71396	51.69745
	14.7095	51.69977
	14.70827	51.70038
	14.70625	51.70162
	14.70124	51.70485
	14.69767	51.70621
	14.69582	51.70675
	14.69542	51.7069
	14.69155	51.70801
	14.68998	51.70877
	14.68979	51.70893
	14.68853	51.71016
	14.68779	51.71177
	14.68723	51.71237
	14.68662	51.71284
	14.68537	51.71356
	14.68324	51.71501
	14.68063	51.71712
	14.67989	51.71796
	14.67931	51.71899
	14.67841	51.72186
	14.67782	51.72258
	14.6767	51.72333
	14.6761	51.72362
	14.67491	51.72393
	14.67076	51.72488
	14.67013	51.72509
	14.66947	51.72543
	14.66816	51.72586
	14.66762	51.72737
	14.66583	51.72942
	14.66525	51.73062
	14.66482	51.73147
	14.6641	51.73282
	14.66232	51.73588
	14.6613	51.73745
	14.65997	51.73837
	14.65859	51.73904
	14.65674	51.74036
	14.6562	51.74118
	14.65636	51.74217
	14.65726	51.74315
	14.65852	51.74483
	14.65929	51.74684
	14.65999	51.74899
	14.65922	51.74994
	14.65739	51.75162
	14.65712	51.75259
	14.65735	51.75333
	14.65812	51.75401
	14.65925	51.75447
	14.66107	51.75481
	14.6627	51.75535
	14.66349	51.75581
	14.66414	51.75681
	14.66349	51.75786
	14.66223	51.75858
	14.66067	51.75901
	14.65365	51.76006
	14.65197	51.76056
	14.65184	51.76059
	14.65085	51.76129
	14.65022	51.76262
	14.65055	51.76372
	14.65123	51.76481
	14.65198	51.7656
	14.65349	51.76649
	14.65455	51.76743
	14.65464	51.76839
	14.65432	51.77021
	14.6548	51.77188
	14.65505	51.77405
	14.65464	51.77627
	14.65353	51.77856
	14.65268	51.77966
	14.6529	51.78068
	14.65362	51.7826
	14.6538	51.7836
	14.65359	51.78428
	14.65289	51.78502
	14.65184	51.78561
	14.64996	51.78649
	14.64909	51.78713
	14.6485	51.78802
	14.64737	51.79004
	14.64651	51.79148
	14.64626	51.79275
	14.64633	51.79405
	14.64547	51.79553
	14.64383	51.79648
	14.64155	51.79694
	14.63764	51.79724
	14.63631	51.79747
	14.63541	51.79819
	14.63509	51.79935
	14.63403	51.80093
	14.63213	51.80157
	14.62972	51.8016
	14.62825	51.80135
	14.62597	51.80086
	14.62387	51.80043
	14.62227	51.80064
	14.62091	51.80127
	14.61994	51.80175
	14.61862	51.80189
	14.61825	51.80192
	14.61791	51.80192
	14.61622	51.80188
	14.61516	51.80263
	14.6145	51.80356
	14.61339	51.80402
	14.6119	51.80406
	14.61028	51.80375
	14.60856	51.80346
	14.60719	51.80379
	14.60572	51.8045
	14.60423	51.80576
	14.60339	51.807
	14.60231	51.80783
	14.60118	51.80861
	14.60073	51.80938
	14.60091	51.81063
	14.60075	51.81267
	14.59962	51.81425
	14.5982	51.81578
	14.59691	51.81753
	14.59531	51.81842
	14.59294	51.81912
	14.59089	51.81993
	14.59039	51.82044
	14.59011	51.82136
	14.5907	51.82258
	14.59076	51.82371
	14.59004	51.82506
	14.58961	51.82607
	14.58982	51.8271
	14.59049	51.82787
	14.59248	51.82918
	14.59318	51.83006
	14.59295	51.83105
	14.5921	51.83211
	14.59112	51.83309
	14.59101	51.83383
	14.5916	51.8347
	14.59194	51.83554
	14.59158	51.83649
	14.59067	51.83729
	14.59029	51.83784
	14.5904	51.83846
	14.59108	51.83899
	14.59361	51.84017
	14.59458	51.84107
	14.59548	51.84183
	14.59627	51.84221
	14.5972	51.84217
	14.59758	51.842
	14.59835	51.84168
	14.60011	51.84035
	14.60165	51.83963
	14.60314	51.83952
	14.60447	51.83987
	14.6056	51.84079
	14.606	51.84162
	14.60593	51.84264
	14.60517	51.84352
	14.60395	51.84517
	14.6035	51.84596
	14.60323	51.84704
	14.60374	51.84765
	14.60499	51.8481
	14.60643	51.84822
	14.60754	51.84794
	14.60835	51.84748
	14.60869	51.8468
	14.60885	51.84572
	14.60937	51.84497
	14.61034	51.84475
	14.61169	51.84492
	14.61248	51.8455
	14.61264	51.84634
	14.61212	51.84761
	14.61081	51.84928
	14.60966	51.85031
	14.60835	51.85108
	14.60715	51.85204
	14.60711	51.85272
	14.60761	51.85327
	14.60919	51.85429
	14.61013	51.85507
	14.61052	51.85628
	14.6111	51.85713
	14.61219	51.85758
	14.61351	51.85767
	14.61408	51.85772
	14.61659	51.85765
	14.61851	51.85761
	14.62122	51.85761
	14.62257	51.85765
	14.62438	51.85819
	14.62621	51.85911
	14.63113	51.862
	14.63262	51.86331
	14.63383	51.86466
	14.63497	51.86554
	14.63655	51.86583
	14.63914	51.86604
	14.64221	51.86644
	14.64388	51.8672
	14.64483	51.86828
	14.64535	51.86951
	14.64562	51.87082
	14.64641	51.87198
	14.64786	51.87276
	14.65043	51.87326
	14.65215	51.87379
	14.65285	51.87482
	14.65267	51.87559
	14.65255	51.87677
	14.65249	51.87842
	14.65294	51.87918
	14.65391	51.87984
	14.65407	51.88081
	14.6542	51.8824
	14.65483	51.8838
	14.65583	51.8848
	14.65738	51.88548
	14.66052	51.88629
	14.66195	51.88707
	14.66233	51.88826
	14.66228	51.88965
	14.6628	51.89023
	14.66407	51.89082
	14.66547	51.89092
	14.67134	51.88972
	14.67396	51.8895
	14.6749	51.88977
	14.6752	51.89046
	14.67502	51.89125
	14.67436	51.89203
	14.67348	51.89319
	14.67371	51.89387
	14.67461	51.89447
	14.67578	51.89485
	14.67766	51.895
	14.67969	51.89499
	14.68089	51.89524
	14.68211	51.89593
	14.68362	51.89723
	14.68538	51.89851
	14.68721	51.89919
	14.6929	51.901
	14.69418	51.9019
	14.69448	51.90259
	14.69432	51.90355
	14.69351	51.90486
	14.69222	51.90578
	14.69118	51.90697
	14.69102	51.90777
	14.69168	51.90876
	14.69286	51.90983
	14.6943	51.91103
	14.69563	51.91145
	14.69714	51.91205
	14.69877	51.91327
	14.69999	51.91483
	14.7022	51.921
	14.70308	51.92171
	14.70491	51.9227
	14.70552	51.92366
	14.70513	51.92517
	14.70339	51.93089
	14.7043	51.93204
	14.70527	51.93313
	14.70665	51.93549
	14.70777	51.93611
	14.7096	51.93616
	14.71143	51.9364
	14.71256	51.93679
	14.71359	51.93732
	14.71464	51.9384
	14.71595	51.93942
	14.71796	51.94052
	14.71937	51.94193
	14.71931	51.94197
	14.71956	51.94295
	14.71899	51.94564
	14.72031	51.9498
	14.7205	51.95031
	14.72092	51.95077
	14.72129	51.95132
	14.72131	51.95178
	14.72129	51.95192
	14.72124	51.9522
	14.72106	51.95264
	14.72032	51.95364
	14.71944	51.95477
	14.71896	51.95528
	14.71829	51.95578
	14.71737	51.95617
	14.71635	51.95634
	14.71504	51.95649
	14.71407	51.95692
	14.71374	51.95725
	14.71349	51.95751
	14.71159	51.96025
	14.71039	51.96156
	14.70924	51.96278
	14.70723	51.96572
	14.70737	51.96715
	14.70725	51.96892
	14.70676	51.9704
	14.7068	51.97224
	14.70694	51.97338
	14.7069	51.97357
	14.70667	51.97385
	14.70612	51.97441
	14.70485	51.97601
	14.7048	51.97642
	14.70483	51.97678
	14.70522	51.97783
	14.70638	51.97917
	14.70708	51.97961
	14.70778	51.97971
	14.70889	51.9797
	14.71046	51.97956
	14.71147	51.97962
	14.71231	51.97992
	14.71407	51.98083
	14.71625	51.98256
	14.7167	51.98321
	14.71693	51.98421
	14.71688	51.98498
	14.71667	51.98602
	14.71676	51.98687
	14.71756	51.98879
	14.7183	51.98939
	14.71966	51.99066
	14.7202	51.99136
	14.72166	51.99447
	14.72165	51.99507
	14.72146	51.99591
	14.72142	51.99599
	14.71974	51.9987
	14.71891	51.99971
	14.7181	52.0004
	14.71723	52.00103
	14.71657	52.00124
	14.71523	52.0017
	14.71436	52.00234
	14.71397	52.00304
	14.71403	52.00368
	14.71436	52.00437
	14.71515	52.00509
	14.71623	52.00553
	14.71626	52.00555
	14.71781	52.00585
	14.71984	52.00612
	14.72169	52.00652
	14.72304	52.00698
	14.72522	52.00821
	14.72575	52.00883
	14.72597	52.00976
	14.72597	52.01035
	14.7262	52.01276
	14.72658	52.01373
	14.72725	52.01426
	14.73024	52.01568
	14.73147	52.01645
	14.73415	52.01925
	14.73498	52.01982
	14.73726	52.02104
	14.74071	52.02257
	14.74151	52.02356
	14.74165	52.02455
	14.74116	52.02558
	14.73999	52.0278
	14.74002	52.02831
	14.74022	52.02876
	14.74119	52.02954
	14.74277	52.03005
	14.74632	52.03067
	14.74772	52.03124
	14.74842	52.03193
	14.74836	52.03287
	14.74814	52.0341
	14.74753	52.03664
	14.74762	52.03738
	14.74833	52.03863
	14.74984	52.04123
	14.74986	52.04303
	14.74941	52.04417
	14.74908	52.04443
	14.74871	52.0447
	14.74774	52.04521
	14.74617	52.04613
	14.74587	52.04654
	14.74588	52.04707
	14.74693	52.0497
	14.7469	52.05048
	14.74675	52.05105
	14.74544	52.05371
	14.74579	52.05458
	14.74679	52.05556
	14.74889	52.05675
	14.75189	52.05799
	14.75608	52.05964
	14.7572	52.06044
	14.75794	52.06161
	14.75896	52.06379
	14.75918	52.06569
	14.75861	52.06696
	14.7579	52.06783
	14.75623	52.06924
	14.75586	52.06964
	14.75513	52.07033
	14.7536	52.07094
	14.75184	52.07179
	14.75111	52.07287
	14.74993	52.0748
	14.74867	52.07705
	14.748	52.07857
	14.74704	52.08001
	14.7467	52.08044
	14.74586	52.08149
	14.74476	52.08239
	14.74367	52.08308
	14.74316	52.08344
	14.74211	52.08453
	14.74118	52.08519
	14.73953	52.08615
	14.73866	52.08658
	14.73465	52.08883
	14.73088	52.09071
	14.72793	52.09201
	14.7266	52.09258
	14.72427	52.09352
	14.72214	52.09421
	14.72089	52.09463
	14.71789	52.09524
	14.71504	52.09569
	14.71148	52.09614
	14.70941	52.09636
	14.70559	52.09664
	14.70334	52.09696
	14.70231	52.09731
	14.70026	52.09811
	14.70003	52.09832
	14.69816	52.09935
	14.69714	52.1
	14.69289	52.10301
	14.69067	52.10483
	14.69021	52.10518
	14.68744	52.10764
	14.6849	52.11023
	14.68319	52.11242
	14.68248	52.11397
	14.68181	52.11564
	14.68144	52.11724
	14.68158	52.11851
	14.68188	52.11949
	14.68234	52.12054
	14.68357	52.12218
	14.68399	52.12305
	14.68412	52.12472
	14.68411	52.12564
	14.684	52.1263
	14.68357	52.12728
	14.6825	52.12935
	14.68191	52.13096
	14.68159	52.13329
	14.68128	52.13486
	14.68098	52.13549
	14.68014	52.13791
	14.67945	52.14025
	14.67961	52.14212
	14.68002	52.14338
	14.68042	52.14412
	14.68104	52.14548
	14.6833	52.14762
	14.68699	52.15076
	14.68977	52.15261
	14.69416	52.15586
	14.69744	52.15881
	14.69887	52.16025
	14.70027	52.16143
	14.70093	52.16215
	14.70196	52.16309
	14.70283	52.16416
	14.70355	52.16479
	14.7047	52.1666
	14.70557	52.16891
	14.7055	52.17172
	14.7054	52.1732
	14.70413	52.17627
	14.70286	52.1785
	14.70171	52.17962
	14.7009	52.18066
	14.69979	52.18158
	14.69926	52.18217
	14.69751	52.18355
	14.69501	52.18519
	14.69038	52.18769
	14.68871	52.1887
	14.68794	52.1893
	14.68691	52.19073
	14.6859	52.19224
	14.68581	52.19391
	14.68659	52.19646
	14.68828	52.19793
	14.69064	52.19941
	14.6996	52.20375
	14.70457	52.20748
	14.70734	52.2104
	14.70839	52.21167
	14.71009	52.21518
	14.71175	52.2193
	14.71255	52.22224
	14.71287	52.22818
	14.71381	52.23039
	14.71603	52.23276
	14.71626	52.23375
	14.71623	52.23488
	14.71555	52.23613
	14.7146	52.23689
	14.70806	52.24099
	14.70596	52.24262
	14.70518	52.24295
	14.70505	52.24373
	14.70441	52.24462
	14.70318	52.24719
	14.70219	52.24877
	14.70077	52.25067
	14.7	52.25135
	14.69881	52.25235
	14.69539	52.25424
	14.69114	52.25602
	14.68947	52.25676
	14.68481	52.25737
	14.6792	52.258
	14.67846	52.25807
	14.67428	52.25852
	14.6688	52.26016
	14.66276	52.26181
	14.65633	52.26249
	14.65138	52.26255
	14.64688	52.26286
	14.64078	52.26386
	14.63363	52.26611
	14.62552	52.26904
	14.61952	52.27075
	14.61391	52.27165
	14.60863	52.27181
	14.60459	52.27181
	14.60089	52.272
	14.59868	52.27233
	14.59527	52.27342
	14.59406	52.27383
	14.59191	52.27537
	14.59015	52.27822
	14.5893	52.28161
	14.58826	52.2829
	14.58646	52.28431
	14.58447	52.28528
	14.58156	52.28607
	14.57882	52.28656
	14.57695	52.28759
	14.57529	52.28905
	14.57461	52.29042
	14.57412	52.29196
	14.57394	52.29326
	14.5745	52.29522
	14.57558	52.29692
	14.57984	52.29957
	14.58344	52.30166
	14.5846	52.30302
	14.58503	52.30457
	14.58499	52.3053
	14.58483	52.30635
	14.58424	52.30745
	14.58256	52.30941
	14.58123	52.31041
	14.58076	52.31081
	14.579	52.31188
	14.57808	52.31289
	14.5778	52.31401
	14.57767	52.31538
	14.57771	52.31557
	14.5778	52.31583
	14.5778	52.31599
	14.57797	52.31685
	14.57811	52.31819
	14.57774	52.31945
	14.57731	52.32026
	14.57637	52.32114
	14.57493	52.32262
	14.5731	52.32377
	14.57113	52.32449
	14.56447	52.32589
	14.56278	52.32683
	14.56144	52.32781
	14.56069	52.32946
	14.56071	52.33029
	14.56141	52.33208
	14.56253	52.33429
	14.56312	52.33555
	14.56311	52.33706
	14.56261	52.33939
	14.56182	52.34094
	14.56062	52.34263
	14.55985	52.34358
	14.55869	52.34497
	14.55516	52.34787
	14.55433	52.34878
	14.55253	52.35199
	14.55237	52.35318
	14.5523	52.35415
	14.55235	52.35514
	14.55271	52.35627
	14.55328	52.3598
	14.55312	52.36148
	14.55268	52.36356
	14.55258	52.36548
	14.55296	52.36732
	14.55297	52.37092
	14.55185	52.37472
	14.55147	52.37567
	14.55095	52.37645
	14.549	52.37921
	14.54724	52.38096
	14.54549	52.38287
	14.54211	52.3857
	14.54116	52.38656
	14.53673	52.39113
	14.53609	52.39195
	14.53563	52.39243
	14.53525	52.39298
	14.53465	52.39406
	14.53438	52.395
	14.53412	52.39614
	14.53435	52.39771
	14.5349	52.39947
	14.53553	52.40073
	14.53651	52.40215
	14.53782	52.40378
	14.53968	52.40543
	14.54304	52.40829
	14.5459	52.41121
	14.54653	52.41269
	14.54685	52.41404
	14.54686	52.41583
	14.54669	52.41627
	14.5464	52.41733
	14.54495	52.41966
	14.54421	52.42161
	14.54392	52.42306
	14.54387	52.42409
	14.54396	52.42551
	14.54422	52.42635
	14.54477	52.42763
	14.54575	52.4293
	14.5468	52.43082
	14.54812	52.43234
	14.55167	52.43527
	14.55546	52.43746
	14.55754	52.43842
	14.55946	52.43909
	14.56378	52.43991
	14.56733	52.44022
	14.57186	52.43998
	14.57447	52.44018
	14.57637	52.44057
	14.57756	52.44097
	14.57883	52.44157
	14.58019	52.44258
	14.58177	52.44416
	14.58342	52.44632
	14.58448	52.44754
	14.58562	52.44855
	14.58668	52.44923
	14.58844	52.4501
	14.59157	52.45142
	14.59398	52.45255
	14.59559	52.45388
	14.59659	52.45508
	14.59704	52.45577
	14.59857	52.4575
	14.59999	52.45907
	14.601	52.45982
	14.60284	52.46084
	14.60514	52.46189
	14.60876	52.46383
	14.60961	52.46472
	14.61048	52.46611
	14.61102	52.46811
	14.61118	52.46989
	14.61124	52.4707
	14.61126	52.47122
	14.61208	52.4758
	14.61282	52.47683
	14.6143	52.47795
	14.61614	52.47894
	14.61842	52.47983
	14.6213	52.48081
	14.62205	52.48112
	14.62299	52.48149
	14.62424	52.48229
	14.62631	52.48382
	14.62838	52.48551
	14.63222	52.48924
	14.63393	52.49148
	14.63482	52.4931
	14.63512	52.49381
	14.63527	52.49476
	14.63535	52.49597
	14.63506	52.49741
	14.63434	52.49867
	14.63337	52.5
	14.63231	52.50128
	14.63104	52.50235
	14.62993	52.5032
	14.62874	52.50391
	14.62703	52.50475
	14.62503	52.5056
	14.62407	52.50595
	14.62311	52.50611
	14.6206	52.50645
	14.6192	52.50675
	14.61705	52.50737
	14.61505	52.50847
	14.61357	52.5095
	14.6123	52.51079
	14.61132	52.51226
	14.61108	52.51369
	14.61097	52.51611
	14.61049	52.51884
	14.6086	52.52232
	14.60638	52.52585
	14.60545	52.5266
	14.60424	52.52906
	14.60384	52.53103
	14.60418	52.53314
	14.60488	52.53507
	14.60633	52.53741
	14.60749	52.53854
	14.60888	52.53945
	14.61142	52.54175
	14.61294	52.54364
	14.61367	52.54472
	14.61424	52.54607
	14.61451	52.54746
	14.61496	52.55231
	14.61538	52.55406
	14.6169	52.55582
	14.61865	52.55718
	14.62078	52.55836
	14.6229	52.5595
	14.63293	52.56408
	14.63455	52.56481
	14.6366	52.56594
	14.63748	52.56653
	14.63806	52.56702
	14.63879	52.56779
	14.63922	52.56847
	14.63951	52.56919
	14.63972	52.57017
	14.63971	52.57098
	14.63955	52.57192
	14.63901	52.57332
	14.63819	52.57439
	14.63654	52.57569
	14.63219	52.57776
	14.63049	52.57842
	14.62863	52.57906
	14.62694	52.57961
	14.62265	52.58131
	14.61671	52.58446
	14.61429	52.58626
	14.61231	52.5885
	14.61206	52.58885
	14.61147	52.58954
	14.61044	52.59259
	14.60941	52.598
	14.60533	52.60218
	14.60309	52.60452
	14.59964	52.60809
	14.59793	52.60938
	14.59621	52.61064
	14.59393	52.61131
	14.58892	52.61314
	14.58639	52.61386
	14.58489	52.61461
	14.58367	52.61513
	14.58165	52.6156
	14.5797	52.61668
	14.57832	52.6178
	14.57654	52.61845
	14.57572	52.61899
	14.57507	52.62003
	14.57332	52.62075
	14.57207	52.62183
	14.56911	52.6226
	14.56732	52.62369
	14.56405	52.62469
END
END
