Poland_West Pomeranian Voivodeship
1
	16.82159	54.36825
	16.81282	54.36959
	16.80803	54.37039
	16.80805	54.36815
	16.80839	54.36761
	16.80985	54.35945
	16.81623	54.36028
	16.82218	54.35326
	16.82819	54.34606
	16.82278	54.33795
	16.82384	54.33349
	16.82435	54.33142
	16.81398	54.31851
	16.82049	54.31686
	16.82472	54.31823
	16.82594	54.31629
	16.83806	54.31646
	16.83914	54.31597
	16.83973	54.31482
	16.83811	54.31388
	16.84043	54.31302
	16.84323	54.31241
	16.8449	54.31143
	16.84482	54.31075
	16.84701	54.31047
	16.85012	54.30969
	16.8544	54.30755
	16.85432	54.30577
	16.85377	54.30428
	16.85377	54.30232
	16.85468	54.29972
	16.85713	54.29788
	16.86059	54.29198
	16.86245	54.28958
	16.86432	54.28551
	16.86478	54.28192
	16.86468	54.27734
	16.86548	54.27662
	16.86457	54.27301
	16.86477	54.27224
	16.86442	54.27007
	16.86254	54.26746
	16.8622	54.26595
	16.86259	54.26388
	16.8651	54.26099
	16.86425	54.26063
	16.86353	54.26041
	16.86249	54.26001
	16.85074	54.25498
	16.84886	54.25421
	16.84691	54.25304
	16.84404	54.2506
	16.83641	54.24725
	16.83136	54.24587
	16.82618	54.24716
	16.8251	54.24671
	16.82144	54.24684
	16.81684	54.24631
	16.81364	54.24422
	16.8094	54.24292
	16.80535	54.24376
	16.8015	54.24416
	16.79656	54.24361
	16.79676	54.24295
	16.78763	54.2411
	16.78565	54.24003
	16.78151	54.23934
	16.77746	54.23949
	16.77416	54.24052
	16.77208	54.24035
	16.77072	54.23905
	16.76864	54.2393
	16.76661	54.23856
	16.76567	54.23709
	16.76276	54.23593
	16.76271	54.23527
	16.76079	54.23397
	16.7546	54.23578
	16.75113	54.23448
	16.75001	54.23273
	16.74685	54.23123
	16.74443	54.23117
	16.74058	54.23034
	16.73939	54.23065
	16.73915	54.231
	16.73831	54.23138
	16.73605	54.23188
	16.73374	54.2328
	16.73165	54.23188
	16.72984	54.23052
	16.72895	54.22515
	16.71652	54.21907
	16.71567	54.21635
	16.7119	54.21405
	16.71277	54.21254
	16.71716	54.21218
	16.71599	54.20974
	16.71791	54.20944
	16.71951	54.2094
	16.7198	54.20795
	16.72041	54.2073
	16.71988	54.20636
	16.71953	54.20476
	16.71981	54.20241
	16.72041	54.20237
	16.72779	54.20357
	16.73267	54.20366
	16.73343	54.20168
	16.73357	54.19821
	16.73422	54.19521
	16.7358	54.19389
	16.73514	54.19166
	16.73491	54.18977
	16.7355	54.18873
	16.73507	54.18455
	16.73142	54.1841
	16.72873	54.18415
	16.72991	54.18053
	16.73003	54.17964
	16.7311	54.17824
	16.73225	54.1774
	16.73276	54.17746
	16.73437	54.17659
	16.73704	54.17594
	16.746	54.17409
	16.74912	54.17271
	16.75141	54.16993
	16.75342	54.16648
	16.75736	54.16105
	16.7568	54.15781
	16.76013	54.15666
	16.75963	54.15763
	16.76063	54.15761
	16.76107	54.15636
	16.76447	54.15528
	16.76702	54.15598
	16.76709	54.15635
	16.76822	54.1565
	16.76911	54.15592
	16.7727	54.15525
	16.77503	54.15552
	16.77533	54.15513
	16.77421	54.15511
	16.77424	54.1541
	16.77365	54.15339
	16.77406	54.1519
	16.77495	54.15146
	16.77516	54.15079
	16.77596	54.15074
	16.77619	54.15041
	16.77554	54.15009
	16.77602	54.14947
	16.77631	54.14796
	16.77533	54.14678
	16.77667	54.14534
	16.77539	54.14497
	16.77489	54.14426
	16.77613	54.14268
	16.77631	54.1393
	16.77593	54.13892
	16.77646	54.13751
	16.77753	54.13641
	16.77696	54.13525
	16.77564	54.13506
	16.77477	54.13358
	16.77845	54.13331
	16.78005	54.13402
	16.78009	54.1321
	16.78419	54.13114
	16.7831	54.12921
	16.78135	54.12779
	16.77804	54.12827
	16.77737	54.12735
	16.77839	54.12685
	16.778	54.12601
	16.77739	54.126
	16.77695	54.12574
	16.77896	54.12395
	16.77965	54.12407
	16.77938	54.12238
	16.77858	54.1208
	16.77912	54.1192
	16.79316	54.12122
	16.79659	54.1207
	16.79988	54.11867
	16.80183	54.11795
	16.80457	54.116
	16.80307	54.11529
	16.80291	54.11467
	16.80383	54.11335
	16.80234	54.11313
	16.801	54.10891
	16.80227	54.10864
	16.80101	54.10545
	16.79958	54.10565
	16.79888	54.10501
	16.79917	54.10129
	16.7972	54.10112
	16.79482	54.10112
	16.79354	54.10084
	16.79486	54.09014
	16.79445	54.08931
	16.79431	54.08877
	16.79414	54.08829
	16.79329	54.08455
	16.79265	54.08159
	16.79228	54.0792
	16.79327	54.07917
	16.79397	54.07891
	16.79442	54.07895
	16.79502	54.07885
	16.79603	54.07904
	16.7962	54.07902
	16.79672	54.07921
	16.7974	54.07955
	16.79825	54.07989
	16.798	54.07895
	16.79774	54.07885
	16.7972	54.07888
	16.79615	54.07852
	16.79395	54.0779
	16.79399	54.07758
	16.79417	54.07709
	16.79414	54.07674
	16.7938	54.07606
	16.79369	54.07561
	16.79338	54.07513
	16.79565	54.07533
	16.79837	54.07548
	16.80375	54.07876
	16.80403	54.07789
	16.80492	54.07581
	16.8112	54.07362
	16.81279	54.07313
	16.81147	54.0723
	16.80893	54.07053
	16.80949	54.06808
	16.81028	54.06446
	16.81085	54.06263
	16.81099	54.0621
	16.81142	54.06028
	16.80658	54.05649
	16.80202	54.05577
	16.79768	54.0551
	16.79546	54.05085
	16.79477	54.04916
	16.79551	54.04528
	16.79595	54.0442
	16.79767	54.03532
	16.79451	54.03342
	16.79313	54.03263
	16.79083	54.03128
	16.78602	54.02841
	16.78291	54.02271
	16.7874	54.01781
	16.78764	54.01711
	16.78807	54.01514
	16.78869	54.01312
	16.78982	54.01591
	16.79268	54.01192
	16.79617	54.01255
	16.79437	54.01163
	16.79538	54.01092
	16.79327	54.01087
	16.78991	54.01055
	16.79141	54.00821
	16.79304	54.00812
	16.79513	54.00807
	16.79504	54.00646
	16.79762	54.00708
	16.79774	54.00683
	16.79836	54.00596
	16.79872	54.0068
	16.79921	54.00741
	16.80153	54.00402
	16.80033	54.00319
	16.80112	53.99948
	16.79726	53.99642
	16.79583	53.99539
	16.79589	53.99503
	16.79589	53.99145
	16.79609	53.98868
	16.79889	53.98673
	16.79157	53.98532
	16.79069	53.98503
	16.79042	53.98471
	16.79039	53.98303
	16.78957	53.98261
	16.78996	53.98149
	16.78941	53.98101
	16.78832	53.98056
	16.78781	53.98014
	16.78917	53.97955
	16.79006	53.98023
	16.79147	53.98042
	16.79301	53.98036
	16.79539	53.98005
	16.79606	53.98036
	16.79743	53.98039
	16.79859	53.9798
	16.80044	53.97977
	16.80151	53.97986
	16.80291	53.98047
	16.80331	53.98088
	16.80531	53.98112
	16.80596	53.98095
	16.80608	53.98038
	16.80638	53.97986
	16.80519	53.97982
	16.80446	53.97946
	16.80434	53.97899
	16.80521	53.97831
	16.80547	53.97755
	16.80596	53.97756
	16.8068	53.97795
	16.80745	53.97834
	16.80663	53.97865
	16.80627	53.97921
	16.80735	53.97955
	16.80995	53.97989
	16.81199	53.97969
	16.8132	53.97926
	16.81395	53.97954
	16.81391	53.981
	16.81294	53.98199
	16.81325	53.98347
	16.81257	53.98395
	16.81141	53.98419
	16.81036	53.98462
	16.8109	53.98523
	16.81056	53.98575
	16.8087	53.9858
	16.8073	53.98573
	16.80663	53.98602
	16.80515	53.98571
	16.80482	53.98539
	16.80312	53.98581
	16.8025	53.98579
	16.8026	53.98696
	16.80241	53.98721
	16.80323	53.98746
	16.80398	53.98932
	16.8048	53.98746
	16.80729	53.98744
	16.80591	53.98901
	16.80587	53.99023
	16.80488	53.99023
	16.80397	53.99172
	16.80419	53.99362
	16.80361	53.99422
	16.80453	53.99441
	16.80528	53.99425
	16.80573	53.99396
	16.80568	53.99341
	16.80663	53.99343
	16.80828	53.99456
	16.80984	53.99492
	16.8102	53.99471
	16.81141	53.99519
	16.81295	53.99546
	16.81457	53.99663
	16.81514	53.9983
	16.81422	53.99898
	16.81358	53.999
	16.81399	53.99981
	16.81465	53.99968
	16.81514	54.00043
	16.81482	54.00079
	16.81299	54.00102
	16.81377	54.0018
	16.81528	54.00161
	16.81639	54.0009
	16.81602	54.00071
	16.81614	54.00052
	16.8167	54.0005
	16.8173	54.00064
	16.81801	54.00095
	16.81809	54.0022
	16.81828	54.00294
	16.81819	54.00347
	16.81802	54.00379
	16.81686	54.00409
	16.81642	54.00405
	16.81581	54.00408
	16.81459	54.00502
	16.81482	54.00506
	16.81516	54.00484
	16.81602	54.00511
	16.81663	54.00453
	16.81776	54.00432
	16.81939	54.00427
	16.81982	54.00403
	16.82085	54.00372
	16.82158	54.00365
	16.82352	54.00393
	16.82507	54.00428
	16.82576	54.00361
	16.82625	54.00274
	16.82628	54.00216
	16.82684	54.00179
	16.82712	54.00113
	16.82705	54.00042
	16.82757	53.99998
	16.82774	53.99926
	16.82647	53.99855
	16.82649	53.99785
	16.82716	53.99752
	16.8271	53.99663
	16.82777	53.99572
	16.82876	53.99516
	16.82987	53.99535
	16.83895	53.99752
	16.84219	53.99783
	16.84256	53.99659
	16.84335	53.99534
	16.84231	53.99395
	16.84266	53.99336
	16.8436	53.99316
	16.84421	53.9926
	16.84395	53.99111
	16.8446	53.98891
	16.84593	53.98683
	16.8456	53.98592
	16.84724	53.98389
	16.85485	53.98353
	16.85669	53.98291
	16.858	53.98159
	16.8594	53.98134
	16.85942	53.98132
	16.86032	53.9818
	16.86096	53.98201
	16.86137	53.98208
	16.86174	53.9821
	16.86242	53.98208
	16.86303	53.98202
	16.8636	53.98193
	16.86404	53.9818
	16.86427	53.9817
	16.8644	53.98167
	16.86484	53.98161
	16.8651	53.98156
	16.86584	53.98138
	16.86841	53.98059
	16.86973	53.97809
	16.86959	53.97801
	16.8696	53.978
	16.87209	53.97749
	16.87289	53.97764
	16.87412	53.97727
	16.87604	53.97431
	16.87653	53.97258
	16.8766	53.97138
	16.87625	53.97074
	16.87448	53.97027
	16.87441	53.9696
	16.87491	53.96882
	16.87758	53.9668
	16.87967	53.96444
	16.88	53.96359
	16.87968	53.96252
	16.87884	53.96205
	16.87842	53.96136
	16.87774	53.9606
	16.87805	53.9591
	16.8786	53.95835
	16.87848	53.95775
	16.8785	53.95673
	16.87951	53.95651
	16.87801	53.95546
	16.87706	53.95406
	16.87622	53.9532
	16.87595	53.95197
	16.87231	53.95109
	16.87011	53.95187
	16.86676	53.95191
	16.86439	53.95098
	16.8625	53.95079
	16.86189	53.94782
	16.85856	53.94707
	16.86043	53.94666
	16.86228	53.94584
	16.86762	53.94772
	16.87066	53.94668
	16.87547	53.94417
	16.87607	53.93974
	16.87779	53.9408
	16.87888	53.94044
	16.88093	53.9411
	16.90892	53.92516
	16.91194	53.92577
	16.91479	53.92523
	16.9171	53.92461
	16.92191	53.9254
	16.92456	53.92242
	16.92329	53.92088
	16.93485	53.91419
	16.936	53.9146
	16.94154	53.91206
	16.95059	53.9123
	16.95059	53.90946
	16.95517	53.90687
	16.95519	53.90686
	16.96202	53.90758
	16.96455	53.90485
	16.96512	53.90482
	16.96591	53.9047
	16.96831	53.90475
	16.96885	53.90473
	16.97081	53.90479
	16.97208	53.90476
	16.98208	53.9049
	16.9775	53.88418
	16.97701	53.88266
	16.97632	53.87965
	16.97057	53.88058
	16.97069	53.87798
	16.96806	53.87836
	16.96429	53.87861
	16.95973	53.87902
	16.95977	53.87865
	16.95699	53.87904
	16.95353	53.87917
	16.95051	53.87923
	16.95113	53.87819
	16.95172	53.87746
	16.95293	53.87614
	16.95369	53.87578
	16.95406	53.87553
	16.95439	53.87516
	16.95468	53.87468
	16.93942	53.87467
	16.93632	53.87481
	16.93135	53.87478
	16.92545	53.87478
	16.92374	53.87488
	16.91483	53.87586
	16.91421	53.87599
	16.91351	53.87627
	16.91253	53.87688
	16.91197	53.87741
	16.91124	53.87712
	16.90983	53.87678
	16.90978	53.87665
	16.90989	53.87659
	16.91017	53.87611
	16.90871	53.87617
	16.90744	53.87598
	16.90637	53.87601
	16.90498	53.87666
	16.90189	53.87715
	16.90173	53.87445
	16.90062	53.87461
	16.89942	53.87507
	16.89754	53.87559
	16.89744	53.87579
	16.89766	53.87632
	16.89698	53.87645
	16.89671	53.87688
	16.89667	53.87745
	16.89622	53.87779
	16.89562	53.87792
	16.89551	53.8782
	16.89537	53.87843
	16.89473	53.87848
	16.89458	53.8786
	16.89454	53.87886
	16.89375	53.87897
	16.89272	53.87885
	16.89229	53.87861
	16.89226	53.87808
	16.89248	53.87767
	16.89395	53.87604
	16.89363	53.8757
	16.89358	53.8754
	16.89397	53.87509
	16.89478	53.87426
	16.89574	53.87284
	16.89445	53.87248
	16.89391	53.87218
	16.89355	53.87185
	16.89357	53.87163
	16.89039	53.87281
	16.89036	53.87265
	16.89058	53.87231
	16.89033	53.87203
	16.89002	53.87185
	16.88207	53.87022
	16.87407	53.86887
	16.8724	53.86866
	16.87213	53.86327
	16.87213	53.86211
	16.87166	53.85911
	16.87149	53.85861
	16.87096	53.85779
	16.87078	53.85789
	16.86956	53.85637
	16.8682	53.85486
	16.86833	53.8544
	16.86644	53.85471
	16.86522	53.85481
	16.86502	53.85448
	16.8651	53.85431
	16.86507	53.85383
	16.865	53.85363
	16.86444	53.85323
	16.86402	53.85309
	16.86327	53.85299
	16.86254	53.85294
	16.86185	53.85274
	16.86141	53.85251
	16.86084	53.8523
	16.86078	53.85222
	16.86119	53.85208
	16.8623	53.85191
	16.86374	53.85187
	16.86478	53.85181
	16.86496	53.85177
	16.86532	53.85176
	16.86584	53.8517
	16.86645	53.85151
	16.86705	53.85122
	16.86744	53.85123
	16.8679	53.85128
	16.86871	53.85122
	16.86905	53.85111
	16.86975	53.85074
	16.87	53.85046
	16.87018	53.85014
	16.87025	53.84978
	16.87022	53.84925
	16.86997	53.84855
	16.86998	53.84797
	16.8701	53.84765
	16.87018	53.84719
	16.87033	53.84683
	16.87055	53.84653
	16.87171	53.84593
	16.87196	53.84583
	16.87224	53.8456
	16.87248	53.84515
	16.87249	53.84438
	16.87239	53.84337
	16.87277	53.8423
	16.87271	53.84196
	16.87254	53.84167
	16.8718	53.8409
	16.87158	53.84049
	16.87145	53.83974
	16.87173	53.83893
	16.87165	53.83866
	16.8716	53.83816
	16.87171	53.83771
	16.87186	53.83747
	16.87223	53.83744
	16.87259	53.83753
	16.87276	53.83766
	16.87308	53.83771
	16.87353	53.83756
	16.87373	53.83743
	16.87396	53.83715
	16.8741	53.83673
	16.87406	53.83628
	16.87386	53.83574
	16.87333	53.8349
	16.87321	53.83454
	16.87287	53.83437
	16.87255	53.83434
	16.8725	53.83441
	16.87171	53.83423
	16.87113	53.83444
	16.87078	53.83448
	16.86996	53.83491
	16.86863	53.83416
	16.86991	53.83308
	16.87035	53.83319
	16.87063	53.83212
	16.87276	53.82954
	16.87315	53.83049
	16.87352	53.83114
	16.87396	53.83183
	16.87452	53.83163
	16.87468	53.83186
	16.87615	53.83177
	16.87889	53.83111
	16.8841	53.8294
	16.88739	53.8281
	16.8894	53.82689
	16.89402	53.8234
	16.89446	53.82323
	16.89598	53.82299
	16.89829	53.82377
	16.90257	53.82148
	16.90546	53.82219
	16.90683	53.82158
	16.90835	53.8214
	16.90873	53.82026
	16.91041	53.81985
	16.91032	53.81888
	16.91157	53.81748
	16.90959	53.81514
	16.90843	53.8157
	16.90739	53.81547
	16.9077	53.81433
	16.90679	53.81301
	16.90757	53.81108
	16.9092	53.80978
	16.91037	53.8082
	16.90916	53.80675
	16.90998	53.80579
	16.90963	53.80418
	16.90864	53.80395
	16.90951	53.80187
	16.91114	53.80169
	16.91552	53.79964
	16.91637	53.79948
	16.91808	53.79813
	16.92096	53.79922
	16.92942	53.80033
	16.9298	53.80101
	16.93574	53.80166
	16.93848	53.80411
	16.94038	53.80665
	16.94168	53.80568
	16.94327	53.8057
	16.94518	53.80543
	16.94582	53.80615
	16.94803	53.8057
	16.94829	53.80517
	16.94468	53.80103
	16.94533	53.79991
	16.94396	53.79925
	16.9397	53.79001
	16.93791	53.78941
	16.93631	53.78682
	16.93661	53.78406
	16.93422	53.78394
	16.93346	53.78235
	16.93372	53.78208
	16.93315	53.77941
	16.93076	53.77725
	16.92729	53.77673
	16.92615	53.77574
	16.9209	53.77466
	16.90362	53.7654
	16.901	53.76145
	16.90073	53.76103
	16.88033	53.75554
	16.87168	53.75229
	16.86898	53.75132
	16.86679	53.75048
	16.85765	53.74709
	16.85841	53.7457
	16.85889	53.74502
	16.86101	53.74192
	16.86254	53.73949
	16.8635	53.73757
	16.86451	53.73604
	16.86542	53.73426
	16.86806	53.73069
	16.8681	53.73042
	16.86842	53.73008
	16.8686	53.72954
	16.86909	53.72925
	16.86957	53.72882
	16.8701	53.72824
	16.87237	53.72536
	16.87307	53.72407
	16.87363	53.72352
	16.87434	53.72231
	16.8761	53.72006
	16.8773	53.71904
	16.87666	53.71821
	16.87574	53.71506
	16.87918	53.70121
	16.87907	53.69536
	16.88037	53.68883
	16.88622	53.67618
	16.89225	53.65587
	16.88245	53.65396
	16.88073	53.65286
	16.88174	53.65188
	16.88029	53.65188
	16.87755	53.65112
	16.8739	53.64921
	16.86969	53.64764
	16.86659	53.65036
	16.86167	53.64542
	16.85349	53.63847
	16.85536	53.63226
	16.85274	53.63068
	16.85205	53.62935
	16.84877	53.62851
	16.84912	53.62725
	16.84115	53.6258
	16.83852	53.6284
	16.8401	53.6288
	16.84003	53.62927
	16.8368	53.63042
	16.83058	53.63508
	16.83037	53.63649
	16.82899	53.6397
	16.82585	53.64321
	16.82356	53.64287
	16.81989	53.64165
	16.81465	53.64107
	16.8134	53.63993
	16.81314	53.63738
	16.81404	53.63712
	16.81482	53.636
	16.81607	53.63541
	16.81628	53.63403
	16.81516	53.63273
	16.81538	53.63209
	16.81388	53.63068
	16.79474	53.6295
	16.77462	53.62702
	16.7673	53.62521
	16.75837	53.62409
	16.75899	53.62091
	16.76054	53.62102
	16.76283	53.61812
	16.76039	53.61757
	16.75942	53.61624
	16.75882	53.61646
	16.75382	53.61073
	16.75318	53.60802
	16.75219	53.60735
	16.74946	53.60092
	16.74236	53.60018
	16.74059	53.59884
	16.74404	53.59601
	16.74267	53.59106
	16.7384	53.58909
	16.73804	53.58844
	16.74002	53.58847
	16.73961	53.58367
	16.74644	53.57567
	16.74476	53.57426
	16.74209	53.56922
	16.74033	53.56677
	16.73559	53.56638
	16.73266	53.56892
	16.72771	53.56725
	16.72754	53.56467
	16.726	53.56173
	16.72589	53.56151
	16.7255	53.56061
	16.72735	53.55524
	16.72275	53.54992
	16.7194	53.54561
	16.71855	53.54366
	16.7194	53.54026
	16.71885	53.53678
	16.71691	53.53416
	16.71804	53.5329
	16.72085	53.5325
	16.72566	53.53022
	16.72982	53.52928
	16.72602	53.52856
	16.72052	53.52614
	16.7219	53.5222
	16.71785	53.52138
	16.71552	53.52051
	16.7148	53.51976
	16.7144	53.5184
	16.71349	53.51842
	16.71197	53.51679
	16.71057	53.51605
	16.70605	53.51482
	16.70079	53.51488
	16.69803	53.51564
	16.69666	53.5181
	16.69521	53.518
	16.67895	53.5063
	16.66678	53.49806
	16.65487	53.49105
	16.65428	53.49049
	16.65252	53.48752
	16.65208	53.48705
	16.64895	53.48576
	16.64612	53.48475
	16.64526	53.48459
	16.64347	53.48431
	16.64175	53.48417
	16.63549	53.48546
	16.6337	53.48574
	16.62244	53.48556
	16.62045	53.48528
	16.61618	53.48371
	16.6147	53.48339
	16.60215	53.48389
	16.60194	53.48399
	16.60035	53.48395
	16.59662	53.48388
	16.59539	53.48365
	16.59466	53.48348
	16.5941	53.48332
	16.594	53.4833
	16.58889	53.4824
	16.58772	53.48238
	16.58678	53.48253
	16.58441	53.48369
	16.58415	53.48356
	16.58394	53.48326
	16.5816	53.48079
	16.58178	53.48071
	16.58185	53.48069
	16.58173	53.48051
	16.58147	53.48056
	16.58032	53.47875
	16.56131	53.47908
	16.54568	53.47866
	16.53995	53.47849
	16.53724	53.47837
	16.53443	53.47834
	16.53309	53.47837
	16.53226	53.47829
	16.52187	53.47647
	16.52103	53.47649
	16.51352	53.47506
	16.51318	53.47487
	16.50585	53.4735
	16.50074	53.47251
	16.49995	53.47253
	16.49794	53.47212
	16.49741	53.47202
	16.49631	53.4716
	16.49367	53.4711
	16.49324	53.4711
	16.49256	53.47068
	16.49009	53.47029
	16.48863	53.4718
	16.48858	53.47215
	16.48782	53.47275
	16.48625	53.4732
	16.4858	53.47325
	16.48537	53.4735
	16.48511	53.47406
	16.48473	53.47455
	16.48438	53.47445
	16.48254	53.47555
	16.48225	53.47656
	16.48242	53.47665
	16.47948	53.47805
	16.45447	53.48847
	16.44361	53.47155
	16.44331	53.47039
	16.43625	53.46055
	16.4398	53.45928
	16.44022	53.45876
	16.44084	53.4585
	16.44126	53.45818
	16.44393	53.45756
	16.44787	53.4572
	16.44746	53.45886
	16.45065	53.46054
	16.45674	53.46001
	16.45971	53.45826
	16.46227	53.45884
	16.46179	53.45946
	16.46264	53.45999
	16.4639	53.45981
	16.46368	53.45749
	16.46212	53.4557
	16.45993	53.45265
	16.45826	53.45225
	16.45229	53.45252
	16.44661	53.45493
	16.44384	53.45306
	16.46659	53.40406
	16.47245	53.40495
	16.47418	53.40278
	16.47395	53.40015
	16.47722	53.39738
	16.47542	53.39434
	16.47452	53.38985
	16.47532	53.38776
	16.47853	53.38717
	16.49152	53.38265
	16.48907	53.3842
	16.48722	53.38801
	16.48826	53.38797
	16.4962	53.38327
	16.49947	53.38509
	16.50541	53.38274
	16.51008	53.37964
	16.50748	53.37831
	16.50838	53.3761
	16.52538	53.36728
	16.58441	53.34576
	16.62626	53.34877
	16.71457	53.29912
	16.67502	53.29049
	16.66201	53.27862
	16.62983	53.25991
	16.62878	53.25929
	16.62021	53.23335
	16.57461	53.23165
	16.56937	53.23011
	16.56937	53.22987
	16.55936	53.23318
	16.55657	53.22982
	16.55856	53.22906
	16.55797	53.22862
	16.55067	53.22336
	16.55641	53.2213
	16.55204	53.21937
	16.54505	53.21719
	16.53568	53.22012
	16.53243	53.21544
	16.52893	53.21543
	16.53019	53.20828
	16.53121	53.20656
	16.53394	53.20502
	16.5338	53.2047
	16.53962	53.20144
	16.53507	53.20034
	16.52806	53.19975
	16.52776	53.19735
	16.52156	53.18811
	16.52059	53.18581
	16.51307	53.18493
	16.51576	53.18172
	16.51016	53.18227
	16.50583	53.17784
	16.50788	53.17616
	16.50392	53.17573
	16.50099	53.17261
	16.50074	53.16916
	16.50107	53.16671
	16.50055	53.16394
	16.49752	53.16331
	16.48782	53.16368
	16.48378	53.1642
	16.4766	53.17024
	16.46313	53.16683
	16.45623	53.16266
	16.44566	53.16212
	16.44692	53.15483
	16.43294	53.15654
	16.42495	53.14871
	16.41852	53.1489
	16.41255	53.15579
	16.40537	53.15851
	16.40746	53.16112
	16.41136	53.1612
	16.41104	53.16246
	16.40895	53.16292
	16.40951	53.16363
	16.40548	53.16372
	16.3992	53.16366
	16.39927	53.16296
	16.40033	53.16168
	16.40178	53.16047
	16.40057	53.16003
	16.39831	53.15941
	16.39705	53.16033
	16.39554	53.15989
	16.39548	53.15988
	16.39474	53.15938
	16.39398	53.15877
	16.39341	53.1584
	16.39272	53.15822
	16.39163	53.15781
	16.39534	53.15429
	16.39626	53.15301
	16.39838	53.14838
	16.3926	53.14248
	16.39161	53.14121
	16.39114	53.13955
	16.3906	53.1309
	16.38992	53.13078
	16.38786	53.13039
	16.38599	53.13023
	16.38401	53.12972
	16.3794	53.12813
	16.3753	53.12664
	16.37508	53.12683
	16.37473	53.12756
	16.37545	53.12833
	16.37397	53.12868
	16.37239	53.1284
	16.37194	53.12821
	16.36301	53.12301
	16.36681	53.12118
	16.36425	53.11889
	16.36216	53.11654
	16.35998	53.11441
	16.35539	53.11313
	16.35306	53.11306
	16.35178	53.1132
	16.34847	53.11291
	16.34601	53.11238
	16.34619	53.10921
	16.34711	53.10791
	16.35125	53.10457
	16.35359	53.10178
	16.35423	53.10007
	16.35535	53.09906
	16.35551	53.0965
	16.35703	53.09571
	16.35926	53.09349
	16.35965	53.091
	16.36423	53.08183
	16.36414	53.07799
	16.36207	53.07584
	16.3242	53.04966
	16.31609	53.05122
	16.31493	53.04906
	16.31283	53.04965
	16.31036	53.04529
	16.3173	53.04395
	16.31692	53.04228
	16.31622	53.04036
	16.3152	53.03917
	16.31579	53.03901
	16.31706	53.0385
	16.31689	53.0367
	16.29487	53.03813
	16.28598	53.04103
	16.28596	53.0414
	16.28641	53.04197
	16.28726	53.042
	16.28773	53.04286
	16.28799	53.04421
	16.28585	53.04467
	16.28351	53.04508
	16.28321	53.04511
	16.28163	53.04522
	16.27995	53.04547
	16.27952	53.04566
	16.27885	53.04559
	16.27773	53.04573
	16.27679	53.0455
	16.27603	53.04615
	16.27491	53.04689
	16.27379	53.04738
	16.27337	53.04782
	16.273	53.04801
	16.27253	53.04858
	16.27191	53.04889
	16.27093	53.04915
	16.26741	53.04799
	16.25166	53.04614
	16.22859	53.03933
	16.20717	53.03585
	16.18634	53.03411
	16.16087	53.02436
	16.15342	53.02006
	16.1511	53.01911
	16.15044	53.01885
	16.14828	53.01773
	16.14563	53.01701
	16.14482	53.01668
	16.14303	53.0155
	16.14059	53.01471
	16.13755	53.01365
	16.13113	53.01274
	16.12882	53.0126
	16.1271	53.01209
	16.12507	53.01184
	16.12202	53.01189
	16.11811	53.01208
	16.11535	53.0122
	16.11304	53.01249
	16.11138	53.01282
	16.10745	53.01331
	16.10517	53.01397
	16.10045	53.01488
	16.09674	53.01544
	16.09383	53.01559
	16.09269	53.0156
	16.09016	53.01544
	16.088	53.0154
	16.08662	53.015
	16.0848	53.01468
	16.08373	53.01457
	16.05553	53.02105
	16.04251	53.02941
	16.02399	53.03498
	16.00916	53.03368
	15.97601	53.03958
	15.96274	53.04121
	15.96699	53.04397
	15.97471	53.05144
	15.97246	53.05659
	15.98861	53.05459
	15.98533	53.0644
	15.98748	53.06936
	15.99475	53.07389
	15.99234	53.08074
	15.99666	53.08268
	15.99792	53.08638
	15.98864	53.09303
	15.98552	53.09226
	15.986	53.09599
	15.98098	53.09728
	15.98427	53.10049
	15.98208	53.10284
	15.98092	53.10133
	15.97915	53.10304
	15.982	53.10671
	15.98183	53.10733
	15.98202	53.1081
	15.98185	53.10954
	15.98205	53.10976
	15.98376	53.11065
	15.9842	53.11113
	15.98439	53.1123
	15.98481	53.11258
	15.98501	53.11296
	15.9848	53.11304
	15.98517	53.11337
	15.9849	53.11417
	15.98434	53.1144
	15.98383	53.11432
	15.98348	53.11495
	15.98271	53.11541
	15.98201	53.11551
	15.98145	53.11566
	15.98136	53.11523
	15.98072	53.11471
	15.98006	53.11384
	15.97992	53.11257
	15.97964	53.1121
	15.97976	53.11109
	15.97949	53.11028
	15.96439	53.11249
	15.91819	53.11906
	15.91643	53.11926
	15.91598	53.1195
	15.91291	53.11998
	15.91336	53.12112
	15.91305	53.12139
	15.91182	53.12391
	15.88038	53.11863
	15.87971	53.11886
	15.87884	53.11897
	15.8775	53.11926
	15.87667	53.11999
	15.87577	53.1205
	15.87531	53.12109
	15.87036	53.11968
	15.86585	53.11801
	15.86426	53.11792
	15.85946	53.1168
	15.85776	53.1168
	15.85717	53.11799
	15.85137	53.11623
	15.85118	53.11613
	15.85099	53.11477
	15.85068	53.11294
	15.84984	53.11235
	15.86015	53.09379
	15.83689	53.08929
	15.83643	53.08885
	15.83614	53.08839
	15.83362	53.0876
	15.83246	53.08756
	15.83151	53.08791
	15.83028	53.08797
	15.83013	53.08797
	15.81149	53.08436
	15.8126	53.08237
	15.81244	53.08235
	15.81173	53.08222
	15.81136	53.08159
	15.81127	53.08157
	15.81027	53.08143
	15.80936	53.08104
	15.80929	53.0806
	15.8099	53.08049
	15.81082	53.0806
	15.81193	53.08036
	15.81357	53.08044
	15.82172	53.06521
	15.79168	53.05905
	15.80874	53.04533
	15.79898	53.04436
	15.79581	53.04365
	15.79416	53.04402
	15.79318	53.04375
	15.79334	53.04247
	15.79151	53.04236
	15.79092	53.04343
	15.78981	53.04337
	15.78809	53.04278
	15.7903	53.04101
	15.78705	53.04053
	15.78579	53.03971
	15.78514	53.03983
	15.7818	53.03578
	15.78157	53.03345
	15.77889	53.0333
	15.77909	53.03265
	15.77853	53.03274
	15.77801	53.02964
	15.7761	53.02908
	15.77368	53.02868
	15.77286	53.0267
	15.76786	53.02651
	15.76559	53.02697
	15.76276	53.02666
	15.7624	53.02552
	15.76379	53.02474
	15.76425	53.02347
	15.7676	53.02025
	15.77023	53.02031
	15.77646	53.01718
	15.77708	53.01727
	15.77677	53.0161
	15.77832	53.01498
	15.7742	53.0142
	15.77379	53.01331
	15.77569	53.01287
	15.77482	53.0103
	15.7725	53.00841
	15.77167	53.00667
	15.7726	53.00596
	15.77193	53.00518
	15.77255	53.00503
	15.77296	53.00314
	15.77234	53.0032
	15.76946	52.99952
	15.76673	52.99876
	15.76616	52.99895
	15.76492	52.99886
	15.76348	53.0005
	15.76145	52.99683
	15.76068	52.99508
	15.75935	52.99682
	15.75469	52.99559
	15.74346	52.99122
	15.74047	52.99089
	15.73768	52.99087
	15.73571	52.99042
	15.73419	52.99026
	15.73059	52.98982
	15.72103	52.98663
	15.71991	52.98819
	15.71898	52.98863
	15.71429	52.98881
	15.70769	52.99088
	15.70716	52.99186
	15.70694	52.99246
	15.70561	52.99253
	15.70639	52.99457
	15.70445	52.99559
	15.70329	52.99571
	15.70304	52.99546
	15.70182	52.9945
	15.70164	52.99356
	15.70077	52.99389
	15.69871	52.99332
	15.69849	52.9937
	15.69765	52.99357
	15.69689	52.99389
	15.69683	52.9945
	15.69641	52.99519
	15.69496	52.9949
	15.69415	52.99585
	15.69389	52.99684
	15.69435	52.99723
	15.6951	52.99742
	15.69513	52.99762
	15.69209	52.99818
	15.69023	52.99749
	15.69018	52.99695
	15.68972	52.99663
	15.68951	52.99585
	15.68488	52.99682
	15.68189	52.99719
	15.68044	52.99557
	15.67857	52.9944
	15.67512	52.99305
	15.66754	52.99129
	15.6647	52.99028
	15.66273	52.98993
	15.66109	52.99004
	15.66102	52.98954
	15.66033	52.98917
	15.65898	52.98809
	15.65719	52.9875
	15.65471	52.98563
	15.65143	52.98379
	15.64721	52.98219
	15.64488	52.98109
	15.64382	52.98037
	15.64112	52.97914
	15.63832	52.97741
	15.63518	52.97695
	15.63392	52.97653
	15.63344	52.97638
	15.62877	52.97791
	15.62076	52.98217
	15.61857	52.98355
	15.61545	52.98429
	15.61281	52.98274
	15.61081	52.98215
	15.60884	52.98272
	15.60844	52.98368
	15.6073	52.98403
	15.60629	52.9848
	15.60472	52.98454
	15.60319	52.98454
	15.60258	52.98504
	15.59682	52.98379
	15.58802	52.98106
	15.58731	52.98188
	15.58289	52.98801
	15.5818	52.98795
	15.58036	52.98885
	15.57428	52.98705
	15.57371	52.98649
	15.57274	52.98689
	15.57222	52.98686
	15.57135	52.9877
	15.5703	52.98807
	15.57039	52.99038
	15.5658	52.99485
	15.56172	52.99932
	15.56033	53.00353
	15.56063	53.00424
	15.55924	53.00595
	15.55655	53.00652
	15.55501	53.01011
	15.5549	53.01129
	15.55431	53.01188
	15.55057	53.01234
	15.54685	53.01436
	15.53993	53.00935
	15.5405	53.00831
	15.53077	53.00521
	15.52531	53.00618
	15.52438	53.00371
	15.50158	52.99956
	15.50091	53.00058
	15.49709	52.99891
	15.48767	52.99721
	15.47574	52.9939
	15.46503	52.98863
	15.45376	52.98725
	15.45313	52.98728
	15.45305	52.98729
	15.453	52.98731
	15.45246	52.98762
	15.45032	52.98828
	15.44662	52.98938
	15.44385	52.98992
	15.43843	52.98853
	15.43389	52.98724
	15.43213	52.98678
	15.42592	52.98506
	15.41992	52.98331
	15.41219	52.98033
	15.40995	52.97876
	15.40492	52.9745
	15.3888	52.97158
	15.38657	52.9681
	15.38638	52.96501
	15.38825	52.96434
	15.3906	52.96274
	15.38744	52.96095
	15.38092	52.95897
	15.37558	52.95389
	15.37275	52.95162
	15.37189	52.95007
	15.37156	52.94809
	15.36563	52.94555
	15.36623	52.94738
	15.3656	52.94778
	15.36478	52.94833
	15.36201	52.94801
	15.36109	52.94583
	15.363	52.94404
	15.3601	52.94428
	15.35812	52.94337
	15.35628	52.94325
	15.35165	52.94172
	15.35071	52.94302
	15.34845	52.9439
	15.3467	52.94416
	15.34514	52.94454
	15.34014	52.94579
	15.3385	52.94642
	15.33664	52.94715
	15.31538	52.95227
	15.31255	52.9522
	15.30603	52.95286
	15.28971	52.95716
	15.28784	52.95802
	15.2868	52.95713
	15.2846	52.95544
	15.28388	52.95385
	15.28315	52.9496
	15.28296	52.94603
	15.28414	52.94393
	15.28987	52.93614
	15.29211	52.93272
	15.29877	52.9286
	15.30221	52.92665
	15.30516	52.92399
	15.30714	52.92117
	15.30799	52.91911
	15.31254	52.91561
	15.31807	52.91072
	15.31992	52.90913
	15.32025	52.90671
	15.32297	52.90298
	15.32519	52.90421
	15.32756	52.90456
	15.3294	52.90333
	15.33167	52.90441
	15.33269	52.90178
	15.33254	52.90114
	15.33262	52.90088
	15.33263	52.90036
	15.33271	52.90005
	15.33267	52.89974
	15.33268	52.89928
	15.33262	52.89918
	15.33264	52.89897
	15.33226	52.8985
	15.3318	52.89837
	15.33122	52.89786
	15.33094	52.89768
	15.33001	52.89696
	15.32973	52.89676
	15.32943	52.8964
	15.32928	52.89633
	15.32882	52.89597
	15.32849	52.89595
	15.32778	52.89547
	15.32722	52.89521
	15.32682	52.89485
	15.32528	52.8944
	15.32418	52.89473
	15.3233	52.89469
	15.32239	52.89415
	15.32188	52.89447
	15.32211	52.89587
	15.31672	52.89433
	15.29042	52.88733
	15.2856	52.88599
	15.28565	52.88556
	15.28629	52.88496
	15.28651	52.88416
	15.28732	52.88351
	15.28757	52.88341
	15.28788	52.88279
	15.28814	52.88205
	15.28846	52.88071
	15.28816	52.88019
	15.28753	52.87962
	15.28728	52.87963
	15.28723	52.87973
	15.2872	52.87998
	15.28686	52.88011
	15.28568	52.8802
	15.28443	52.8812
	15.28386	52.88155
	15.28325	52.8829
	15.28238	52.88409
	15.28184	52.88469
	15.28159	52.88546
	15.28176	52.88572
	15.2817	52.88596
	15.28167	52.88647
	15.28148	52.88676
	15.28109	52.88704
	15.28083	52.88694
	15.28016	52.88612
	15.27902	52.88558
	15.27883	52.88535
	15.27887	52.88514
	15.27904	52.88507
	15.2794	52.88517
	15.27987	52.88524
	15.28018	52.88507
	15.28038	52.88486
	15.28035	52.8847
	15.2802	52.88462
	15.28019	52.88451
	15.2798	52.88436
	15.27945	52.88428
	15.27941	52.88405
	15.27945	52.88401
	15.27902	52.88359
	15.2788	52.88358
	15.27851	52.8841
	15.27567	52.88336
	15.27584	52.88291
	15.27641	52.88277
	15.27648	52.88265
	15.27497	52.88228
	15.2747	52.88253
	15.27453	52.8826
	15.27388	52.88275
	15.27361	52.88259
	15.2741	52.88218
	15.27278	52.88213
	15.27225	52.88225
	15.2716	52.88213
	15.27128	52.88177
	15.26909	52.8811
	15.26829	52.88108
	15.26789	52.88121
	15.26764	52.88128
	15.26285	52.88004
	15.26057	52.87944
	15.19616	52.86285
	15.18566	52.86011
	15.16777	52.85554
	15.16688	52.85441
	15.16649	52.8543
	15.16477	52.85408
	15.1636	52.85428
	15.16308	52.85445
	15.16248	52.85483
	15.1621	52.8553
	15.16135	52.85598
	15.16088	52.8562
	15.16099	52.85693
	15.16016	52.85696
	15.15951	52.85705
	15.15919	52.85718
	15.15939	52.85691
	15.15956	52.85637
	15.15957	52.85564
	15.15929	52.85508
	15.15914	52.85429
	15.15884	52.854
	15.15862	52.85391
	15.15756	52.85283
	15.14388	52.84922
	15.13694	52.8474
	15.12044	52.84294
	15.11956	52.84268
	15.11932	52.84268
	15.11896	52.84287
	15.11859	52.84282
	15.11845	52.84279
	15.11795	52.84215
	15.11754	52.84191
	15.11729	52.8418
	15.1151	52.84161
	15.09551	52.83664
	15.08962	52.83518
	15.08037	52.83283
	15.0776	52.83216
	15.07554	52.83156
	15.07235	52.83074
	15.07176	52.83058
	15.06846	52.83319
	15.06822	52.83342
	15.06823	52.83354
	15.06827	52.83366
	15.06869	52.8343
	15.06859	52.83445
	15.0686	52.83467
	15.0691	52.83492
	15.06908	52.83536
	15.06869	52.83653
	15.06841	52.83701
	15.068	52.83706
	15.06793	52.83709
	15.06787	52.83712
	15.06785	52.83725
	15.06777	52.8373
	15.06755	52.83721
	15.06748	52.83724
	15.06759	52.8373
	15.06727	52.83738
	15.06717	52.83742
	15.067	52.83743
	15.06696	52.83744
	15.06686	52.8375
	15.06664	52.83755
	15.06678	52.83765
	15.06518	52.83904
	15.05983	52.8411
	15.05459	52.84324
	15.05396	52.84316
	15.05337	52.84304
	15.05282	52.84299
	15.05129	52.84341
	15.05083	52.84338
	15.04911	52.84352
	15.04862	52.84457
	15.04883	52.84478
	15.04884	52.84519
	15.04847	52.84584
	15.04848	52.84596
	15.04843	52.84598
	15.04767	52.8461
	15.04729	52.84633
	15.04681	52.84708
	15.04639	52.8476
	15.0464	52.84775
	15.04515	52.84883
	15.04467	52.84964
	15.04429	52.85225
	15.04443	52.85298
	15.04414	52.85365
	15.04354	52.85448
	15.04278	52.85513
	15.04135	52.85659
	15.04147	52.85725
	15.04096	52.85935
	15.04087	52.85945
	15.04063	52.85952
	15.04045	52.8595
	15.04006	52.8598
	15.04007	52.86003
	15.03968	52.86041
	15.03949	52.86042
	15.03937	52.8606
	15.03918	52.86079
	15.03903	52.86089
	15.039	52.861
	15.03881	52.86116
	15.03856	52.86117
	15.03785	52.86157
	15.03776	52.86168
	15.03756	52.86181
	15.03752	52.86204
	15.03732	52.86211
	15.03696	52.86218
	15.03744	52.86108
	15.03589	52.861
	15.03423	52.86093
	15.03362	52.86075
	15.03324	52.86007
	15.032	52.85969
	15.03165	52.85919
	15.03076	52.85918
	15.03031	52.85916
	15.0299	52.85897
	15.03037	52.85873
	15.03014	52.85863
	15.02839	52.85773
	15.02807	52.85695
	15.02372	52.85675
	15.02282	52.85675
	15.02196	52.8574
	15.02112	52.85767
	15.01989	52.85735
	15.01802	52.85728
	15.01753	52.85711
	15.01479	52.85677
	15.01402	52.85641
	15.01311	52.85456
	15.0125	52.85507
	15.01197	52.85515
	15.0107	52.85497
	15.00971	52.85424
	15.00869	52.85454
	15.00716	52.85367
	15.00836	52.8505
	15.00927	52.8483
	15.0096	52.84775
	15.00666	52.8473
	15.00621	52.84724
	15.00602	52.84723
	15.00535	52.84724
	15.00205	52.84725
	14.99991	52.84628
	14.99869	52.84462
	14.99083	52.84253
	14.98782	52.84655
	14.98848	52.8474
	14.98815	52.84804
	14.98924	52.84821
	14.98811	52.85086
	14.98485	52.84991
	14.98162	52.84895
	14.97907	52.85374
	14.97907	52.85391
	14.97923	52.85404
	14.97949	52.8542
	14.98002	52.85446
	14.9802	52.85457
	14.98083	52.85477
	14.97956	52.85659
	14.98031	52.85684
	14.98013	52.85711
	14.98006	52.85731
	14.9802	52.85807
	14.98009	52.85842
	14.98012	52.85873
	14.97999	52.85895
	14.98014	52.85923
	14.98012	52.85939
	14.98015	52.85951
	14.98003	52.85977
	14.98	52.8599
	14.9831	52.86154
	14.98267	52.8619
	14.98146	52.86311
	14.97967	52.86483
	14.9783	52.86617
	14.97747	52.86576
	14.97715	52.86637
	14.97653	52.86668
	14.97447	52.8673
	14.97401	52.86745
	14.97268	52.86777
	14.97233	52.86779
	14.9721	52.86783
	14.97171	52.86792
	14.97012	52.86903
	14.96974	52.86925
	14.96884	52.86969
	14.96842	52.86956
	14.96806	52.86908
	14.96754	52.86943
	14.96675	52.869
	14.96601	52.86887
	14.96562	52.86874
	14.96534	52.8688
	14.96507	52.86882
	14.96437	52.86871
	14.96412	52.86849
	14.96414	52.8681
	14.96396	52.86786
	14.96362	52.86777
	14.9633	52.8677
	14.96185	52.86788
	14.96177	52.86794
	14.96155	52.86807
	14.96112	52.86827
	14.96119	52.86834
	14.95982	52.86859
	14.95967	52.86852
	14.9594	52.86864
	14.95887	52.8688
	14.95721	52.86945
	14.95637	52.87089
	14.95218	52.87122
	14.94887	52.87151
	14.95221	52.87322
	14.95461	52.87438
	14.94892	52.87848
	14.94688	52.87755
	14.94681	52.87755
	14.94453	52.87645
	14.93849	52.87862
	14.93756	52.87906
	14.93147	52.88184
	14.93258	52.88282
	14.9343	52.88402
	14.93504	52.88437
	14.93387	52.88509
	14.93281	52.88423
	14.93122	52.8847
	14.93093	52.8842
	14.9301	52.88443
	14.9294	52.88461
	14.92867	52.88493
	14.92801	52.88476
	14.92734	52.88449
	14.92684	52.88443
	14.92639	52.88394
	14.9259	52.88414
	14.9249	52.88252
	14.92327	52.88293
	14.92539	52.88687
	14.92572	52.88745
	14.9261	52.88831
	14.92536	52.88967
	14.92473	52.88984
	14.9231	52.88929
	14.91865	52.88925
	14.91778	52.88926
	14.91691	52.88832
	14.91641	52.88788
	14.91515	52.8876
	14.91499	52.8876
	14.91318	52.88816
	14.9125	52.88822
	14.91185	52.88796
	14.91068	52.88719
	14.90992	52.88733
	14.90947	52.88724
	14.90889	52.88683
	14.90833	52.88641
	14.90815	52.88622
	14.90809	52.88608
	14.90826	52.88557
	14.90782	52.88526
	14.90742	52.88509
	14.90702	52.88503
	14.90663	52.88512
	14.90656	52.88523
	14.90658	52.8854
	14.90636	52.88548
	14.90609	52.88545
	14.90583	52.88534
	14.90566	52.88518
	14.90562	52.8848
	14.90553	52.88467
	14.90528	52.88448
	14.90507	52.88425
	14.90479	52.88381
	14.90432	52.88391
	14.90431	52.8839
	14.90418	52.88389
	14.90413	52.88299
	14.90404	52.88203
	14.90408	52.88165
	14.904	52.88122
	14.90397	52.88078
	14.90344	52.87964
	14.90204	52.87845
	14.90273	52.87816
	14.90311	52.87806
	14.90214	52.87692
	14.90187	52.87647
	14.90188	52.876
	14.90182	52.8759
	14.90162	52.87559
	14.90123	52.87536
	14.90095	52.87504
	14.9003	52.87456
	14.89982	52.87427
	14.8993	52.87409
	14.8991	52.874
	14.89779	52.87337
	14.89765	52.87328
	14.89679	52.87236
	14.89665	52.87189
	14.89477	52.86878
	14.89488	52.86852
	14.89438	52.86762
	14.89395	52.86708
	14.8942	52.86685
	14.89424	52.86683
	14.89412	52.8666
	14.89382	52.86633
	14.89387	52.86628
	14.89409	52.86633
	14.89444	52.86637
	14.89447	52.86622
	14.89425	52.8661
	14.89391	52.86603
	14.89329	52.86583
	14.893	52.86561
	14.89311	52.86527
	14.89411	52.86426
	14.89409	52.86406
	14.89392	52.86389
	14.8934	52.86381
	14.89321	52.86402
	14.89293	52.86383
	14.89245	52.86376
	14.89239	52.86369
	14.89267	52.86344
	14.89333	52.86329
	14.89382	52.86307
	14.89345	52.86258
	14.89309	52.86234
	14.89308	52.86228
	14.89341	52.86209
	14.89381	52.86209
	14.89422	52.86218
	14.89411	52.86199
	14.894	52.86181
	14.89205	52.86156
	14.8916	52.86151
	14.8904	52.86073
	14.89052	52.86069
	14.89116	52.86052
	14.89114	52.85994
	14.89471	52.85671
	14.89535	52.85525
	14.90289	52.85594
	14.90331	52.8556
	14.9026	52.85487
	14.90281	52.85493
	14.90336	52.85492
	14.90346	52.85494
	14.90373	52.85502
	14.90479	52.85397
	14.9057	52.85413
	14.90993	52.85508
	14.91035	52.85515
	14.9115	52.85403
	14.91245	52.85352
	14.91267	52.85335
	14.91278	52.853
	14.91251	52.85221
	14.91251	52.85198
	14.91375	52.85045
	14.91488	52.8501
	14.91563	52.84989
	14.9166	52.84959
	14.91686	52.84964
	14.91684	52.84959
	14.91706	52.84952
	14.91739	52.84946
	14.91767	52.84937
	14.91793	52.84931
	14.91825	52.84904
	14.91838	52.84883
	14.91863	52.84865
	14.91888	52.84817
	14.91896	52.84784
	14.91978	52.84681
	14.9195	52.84644
	14.91949	52.84586
	14.91946	52.8458
	14.9193	52.84576
	14.91896	52.84565
	14.91884	52.84541
	14.91887	52.84523
	14.91878	52.84515
	14.91879	52.84501
	14.91886	52.8449
	14.9189	52.84458
	14.91896	52.84439
	14.91903	52.84418
	14.91917	52.84394
	14.91913	52.84384
	14.91905	52.84376
	14.91899	52.84374
	14.91887	52.84371
	14.91876	52.84374
	14.91878	52.84336
	14.91862	52.84324
	14.91803	52.84346
	14.91783	52.84352
	14.9176	52.84347
	14.91731	52.84336
	14.91725	52.84325
	14.91712	52.84317
	14.91706	52.84287
	14.91692	52.84275
	14.91661	52.84261
	14.91624	52.84262
	14.91599	52.8426
	14.91593	52.84258
	14.916	52.84246
	14.91625	52.84231
	14.91637	52.84213
	14.91635	52.84204
	14.91612	52.84188
	14.91607	52.84178
	14.91619	52.84165
	14.91641	52.84157
	14.91677	52.84152
	14.91691	52.84145
	14.917	52.84124
	14.91678	52.84108
	14.91576	52.84085
	14.91562	52.84086
	14.9153	52.84082
	14.91482	52.84063
	14.91452	52.84024
	14.91423	52.84015
	14.91415	52.84009
	14.91412	52.83988
	14.91392	52.83968
	14.9133	52.83962
	14.91316	52.83957
	14.91301	52.83945
	14.91199	52.83898
	14.91184	52.83887
	14.91154	52.83888
	14.91117	52.83895
	14.91098	52.83895
	14.91089	52.83892
	14.91108	52.83878
	14.9111	52.83869
	14.91094	52.83861
	14.91074	52.83865
	14.91056	52.83854
	14.91054	52.83848
	14.9106	52.8384
	14.91074	52.8383
	14.91083	52.8382
	14.91083	52.83816
	14.91074	52.83812
	14.91031	52.83817
	14.90999	52.83815
	14.90969	52.83829
	14.90939	52.83849
	14.90936	52.83848
	14.90909	52.8382
	14.90897	52.83819
	14.90869	52.83839
	14.90856	52.83838
	14.90856	52.83831
	14.90865	52.83815
	14.90865	52.83812
	14.90863	52.8381
	14.90805	52.83805
	14.90778	52.83753
	14.90769	52.83745
	14.90695	52.83758
	14.90656	52.8377
	14.90621	52.83763
	14.90572	52.83785
	14.90547	52.83774
	14.90495	52.83768
	14.905	52.83749
	14.90506	52.83743
	14.9046	52.83733
	14.90411	52.8374
	14.90334	52.83679
	14.90323	52.83674
	14.90266	52.83671
	14.90258	52.83702
	14.90212	52.83729
	14.90195	52.83727
	14.90176	52.83714
	14.90164	52.83648
	14.90069	52.83617
	14.9007	52.83631
	14.90075	52.83649
	14.90058	52.83659
	14.90049	52.83668
	14.89878	52.8358
	14.89945	52.8348
	14.89764	52.83339
	14.89578	52.83303
	14.8947	52.83524
	14.89539	52.83774
	14.89491	52.84044
	14.88797	52.84668
	14.87221	52.84627
	14.86559	52.84733
	14.863	52.84324
	14.87294	52.83372
	14.85852	52.82888
	14.85579	52.83087
	14.85113	52.82844
	14.85256	52.82596
	14.85459	52.82466
	14.85441	52.8235
	14.85362	52.82202
	14.85549	52.822
	14.85697	52.82072
	14.85418	52.81947
	14.85816	52.81765
	14.85438	52.81633
	14.85466	52.81523
	14.85648	52.81531
	14.85643	52.81357
	14.85524	52.8137
	14.85487	52.81228
	14.86536	52.8114
	14.86537	52.81243
	14.86776	52.81225
	14.86379	52.80626
	14.86532	52.80379
	14.86319	52.80347
	14.86253	52.80266
	14.86152	52.80269
	14.86339	52.80105
	14.86152	52.80062
	14.8633	52.79855
	14.86542	52.79197
	14.86394	52.79101
	14.86129	52.791
	14.85878	52.79176
	14.85439	52.79076
	14.85433	52.79215
	14.84442	52.79039
	14.84847	52.78551
	14.85053	52.78528
	14.84964	52.78183
	14.84881	52.77737
	14.8362	52.77732
	14.8394	52.7758
	14.83475	52.7752
	14.82941	52.77331
	14.82757	52.77377
	14.82725	52.77388
	14.82646	52.7739
	14.82537	52.77407
	14.82501	52.77402
	14.82445	52.77389
	14.82279	52.77389
	14.8222	52.77397
	14.82122	52.77422
	14.8204	52.77439
	14.81881	52.77488
	14.81723	52.7748
	14.81658	52.77472
	14.81552	52.77443
	14.81497	52.77387
	14.81479	52.77376
	14.81451	52.77366
	14.81434	52.77367
	14.8141	52.77362
	14.81377	52.77347
	14.81363	52.77336
	14.81354	52.77323
	14.81319	52.77137
	14.80916	52.76779
	14.81048	52.7663
	14.80969	52.76646
	14.80878	52.76638
	14.80901	52.76516
	14.80856	52.76453
	14.8073	52.76376
	14.80642	52.76311
	14.80576	52.76235
	14.80452	52.76271
	14.80403	52.76215
	14.80418	52.76182
	14.80402	52.76148
	14.80358	52.76138
	14.80302	52.76098
	14.80256	52.76105
	14.80253	52.76082
	14.80257	52.7604
	14.8023	52.76008
	14.80175	52.75985
	14.80183	52.75941
	14.80106	52.75886
	14.80095	52.75845
	14.80056	52.75855
	14.8003	52.75875
	14.80012	52.75865
	14.80007	52.75861
	14.79964	52.75862
	14.79888	52.75832
	14.79835	52.75848
	14.79805	52.75821
	14.79764	52.75811
	14.79736	52.75816
	14.79686	52.75851
	14.79657	52.75844
	14.79604	52.75846
	14.79541	52.75832
	14.79538	52.75828
	14.79547	52.75812
	14.79544	52.75799
	14.79528	52.75793
	14.79496	52.75792
	14.7944	52.75785
	14.79378	52.75801
	14.79174	52.7573
	14.79133	52.75703
	14.79123	52.75689
	14.79123	52.75686
	14.79149	52.75573
	14.7921	52.75479
	14.79204	52.75442
	14.79194	52.75413
	14.79142	52.75368
	14.791	52.75352
	14.79052	52.7529
	14.78963	52.75243
	14.78941	52.75197
	14.78945	52.75195
	14.79538	52.74373
	14.79968	52.7375
	14.79857	52.73681
	14.79679	52.73634
	14.79539	52.73612
	14.79521	52.73586
	14.79563	52.73511
	14.79605	52.73474
	14.79625	52.73354
	14.79645	52.73316
	14.7965	52.73309
	14.79684	52.73276
	14.79673	52.73232
	14.79688	52.73184
	14.79684	52.73054
	14.79754	52.72885
	14.79788	52.72819
	14.79801	52.72749
	14.79796	52.72693
	14.79768	52.72417
	14.79696	52.72174
	14.79655	52.72048
	14.79645	52.71969
	14.79656	52.71923
	14.7963	52.71816
	14.79645	52.71784
	14.79602	52.71753
	14.79584	52.71686
	14.79517	52.71589
	14.79488	52.71493
	14.79458	52.71433
	14.79422	52.71384
	14.79141	52.70457
	14.79132	52.70124
	14.79128	52.69779
	14.7916	52.69711
	14.79114	52.69672
	14.79011	52.69536
	14.78961	52.69422
	14.78914	52.69358
	14.78678	52.69231
	14.78619	52.69129
	14.78536	52.69041
	14.78504	52.68989
	14.78468	52.68939
	14.78461	52.68941
	14.78309	52.68789
	14.78139	52.68599
	14.78036	52.68462
	14.77829	52.68231
	14.77647	52.68131
	14.77389	52.67977
	14.77327	52.6792
	14.77242	52.67804
	14.77147	52.6774
	14.77082	52.67705
	14.77042	52.67676
	14.77013	52.67654
	14.76962	52.67612
	14.76957	52.67609
	14.76953	52.6761
	14.76828	52.675
	14.7674	52.67481
	14.76626	52.6741
	14.76515	52.67368
	14.76361	52.67045
	14.76303	52.67028
	14.75957	52.67037
	14.75843	52.67052
	14.75681	52.67096
	14.75624	52.67101
	14.75553	52.67123
	14.75496	52.67048
	14.75459	52.67014
	14.7533	52.66978
	14.75261	52.66897
	14.75231	52.66817
	14.75173	52.66745
	14.75105	52.66674
	14.75022	52.66525
	14.74958	52.66364
	14.74938	52.66258
	14.74927	52.65792
	14.74895	52.65689
	14.7486	52.65453
	14.74844	52.65333
	14.74845	52.65278
	14.74766	52.64739
	14.74764	52.64705
	14.74867	52.64504
	14.74922	52.64435
	14.7423	52.64322
	14.74347	52.64131
	14.73013	52.64196
	14.73253	52.64048
	14.73071	52.63889
	14.72901	52.63722
	14.72504	52.63629
	14.72692	52.63394
	14.72202	52.63257
	14.72236	52.63144
	14.72185	52.63096
	14.72137	52.631
	14.72032	52.63143
	14.71924	52.63174
	14.7189	52.63177
	14.71856	52.63184
	14.71769	52.63207
	14.71633	52.6322
	14.71603	52.63227
	14.71566	52.63247
	14.71527	52.63265
	14.71407	52.63263
	14.71265	52.63274
	14.70926	52.63264
	14.70784	52.63255
	14.70587	52.63247
	14.70346	52.63228
	14.69918	52.63276
	14.69875	52.63357
	14.69166	52.63306
	14.69139	52.63343
	14.68987	52.63337
	14.68986	52.63445
	14.68995	52.63579
	14.68464	52.63651
	14.68288	52.63651
	14.67975	52.63663
	14.67686	52.63698
	14.67534	52.63733
	14.67465	52.63739
	14.6726	52.63734
	14.66998	52.63775
	14.66971	52.63781
	14.66993	52.63838
	14.66742	52.63903
	14.66681	52.63963
	14.66447	52.64038
	14.66311	52.64088
	14.6622	52.64117
	14.66187	52.64125
	14.66082	52.64156
	14.65828	52.64235
	14.65826	52.64292
	14.65858	52.64404
	14.65908	52.64464
	14.65969	52.64472
	14.66105	52.64541
	14.66118	52.64581
	14.66202	52.64612
	14.66216	52.64622
	14.66233	52.64632
	14.66297	52.64627
	14.66357	52.6463
	14.66365	52.64652
	14.66303	52.64703
	14.66248	52.64804
	14.66049	52.64907
	14.65975	52.64922
	14.65843	52.64945
	14.65742	52.64964
	14.6567	52.64979
	14.65519	52.64975
	14.65405	52.65003
	14.65099	52.65047
	14.64724	52.65123
	14.64781	52.6515
	14.64955	52.65236
	14.65036	52.65328
	14.64883	52.65352
	14.64764	52.65368
	14.64738	52.65457
	14.64733	52.65459
	14.64648	52.65467
	14.64542	52.65539
	14.64542	52.65571
	14.64528	52.65609
	14.64494	52.65623
	14.64424	52.65634
	14.64401	52.65648
	14.64395	52.65707
	14.64265	52.65719
	14.64182	52.6574
	14.6418	52.65758
	14.64015	52.65774
	14.63969	52.65863
	14.63932	52.65879
	14.63898	52.65883
	14.63879	52.6589
	14.63861	52.65901
	14.63844	52.65915
	14.63826	52.65943
	14.63819	52.65946
	14.63619	52.65962
	14.63565	52.65965
	14.63475	52.65968
	14.63018	52.6604
	14.62943	52.66049
	14.62917	52.6605
	14.62903	52.66049
	14.62862	52.6604
	14.62885	52.65992
	14.62877	52.65916
	14.62849	52.65766
	14.6287	52.65676
	14.62797	52.6565
	14.62837	52.65564
	14.62851	52.65484
	14.61614	52.64871
	14.60382	52.64275
	14.58702	52.63467
	14.58286	52.63255
	14.58271	52.63239
	14.58065	52.63304
	14.58072	52.63316
	14.57979	52.63325
	14.57721	52.63346
	14.57811	52.63505
	14.57673	52.63636
	14.57557	52.63596
	14.57489	52.63568
	14.57454	52.63561
	14.57289	52.6332
	14.57372	52.63273
	14.57352	52.63228
	14.57378	52.63218
	14.57307	52.63112
	14.57271	52.63052
	14.57161	52.62898
	14.56877	52.6298
	14.56831	52.62894
	14.56838	52.62888
	14.56727	52.62736
	14.56468	52.62687
	14.5645	52.62557
	14.56405	52.62469
	14.56215	52.62433
	14.55312	52.62712
	14.53841	52.63283
	14.52845	52.6361
	14.51274	52.64065
	14.49818	52.64704
	14.48414	52.65281
	14.47161	52.65821
	14.46817	52.65971
	14.4666	52.66058
	14.46523	52.66141
	14.46417	52.66231
	14.46337	52.66313
	14.46277	52.66388
	14.46062	52.6676
	14.45978	52.66962
	14.45873	52.67156
	14.45796	52.67264
	14.45661	52.67396
	14.4549	52.6752
	14.45339	52.67606
	14.4513	52.67706
	14.4492	52.67779
	14.44684	52.67852
	14.44506	52.67884
	14.4386	52.6802
	14.43642	52.67987
	14.43554	52.68001
	14.43449	52.68058
	14.43271	52.68164
	14.43217	52.68265
	14.43157	52.68355
	14.42958	52.68851
	14.42878	52.69004
	14.42764	52.69174
	14.42685	52.69278
	14.42593	52.69388
	14.42505	52.69474
	14.42412	52.69541
	14.42236	52.69644
	14.41914	52.69808
	14.41593	52.69968
	14.41484	52.70053
	14.41307	52.70217
	14.41207	52.70333
	14.41129	52.70467
	14.41043	52.70578
	14.40895	52.70733
	14.40678	52.70915
	14.40433	52.71099
	14.40251	52.71243
	14.40094	52.71377
	14.39741	52.71638
	14.39498	52.71816
	14.39303	52.71954
	14.39087	52.72077
	14.38755	52.72229
	14.38649	52.72294
	14.38591	52.72351
	14.38543	52.72452
	14.38475	52.72566
	14.38383	52.72671
	14.38254	52.72799
	14.38106	52.72902
	14.37964	52.73004
	14.37822	52.73151
	14.37609	52.73397
	14.37513	52.73512
	14.37425	52.73583
	14.37322	52.73639
	14.37182	52.73702
	14.37041	52.73754
	14.36854	52.73799
	14.36538	52.73888
	14.36425	52.73932
	14.36266	52.74022
	14.36127	52.74113
	14.3599	52.74204
	14.35878	52.74314
	14.35665	52.74533
	14.3555	52.74674
	14.3539	52.74851
	14.35239	52.75003
	14.35163	52.75065
	14.35043	52.75129
	14.34017	52.75483
	14.33479	52.75664
	14.33295	52.75754
	14.32932	52.75971
	14.32767	52.76036
	14.32568	52.76085
	14.31803	52.76283
	14.3104	52.76433
	14.30568	52.76543
	14.30271	52.76638
	14.29634	52.76858
	14.29076	52.77008
	14.28565	52.77178
	14.28329	52.7728
	14.28029	52.77427
	14.27045	52.77951
	14.2573	52.787
	14.25293	52.78979
	14.24885	52.79225
	14.24767	52.79328
	14.244	52.79693
	14.24138	52.79903
	14.24035	52.79958
	14.23634	52.80161
	14.2341	52.80249
	14.23238	52.80346
	14.23104	52.80445
	14.229	52.80667
	14.22647	52.80935
	14.22362	52.81219
	14.22147	52.8141
	14.22061	52.81458
	14.21903	52.8155
	14.21761	52.81629
	14.21639	52.81677
	14.21497	52.81722
	14.21193	52.81795
	14.20999	52.81824
	14.20212	52.81883
	14.19095	52.81987
	14.18659	52.82024
	14.177	52.82079
	14.17413	52.82133
	14.17244	52.82149
	14.16924	52.82155
	14.16758	52.82167
	14.16646	52.82185
	14.16313	52.82266
	14.16144	52.82278
	14.15917	52.82259
	14.15729	52.82281
	14.15255	52.8236
	14.14905	52.82426
	14.14616	52.82433
	14.14514	52.82407
	14.14386	52.82381
	14.14174	52.82405
	14.13961	52.82461
	14.13768	52.82519
	14.13614	52.82576
	14.13532	52.82659
	14.13411	52.82698
	14.13278	52.82699
	14.13102	52.8277
	14.12924	52.82882
	14.12786	52.82987
	14.12719	52.83066
	14.12676	52.83125
	14.12672	52.83175
	14.1263	52.83265
	14.12547	52.83338
	14.12428	52.83492
	14.1233	52.83678
	14.12301	52.83776
	14.12297	52.83862
	14.12313	52.8391
	14.12326	52.83997
	14.12314	52.84105
	14.12312	52.84206
	14.12341	52.84317
	14.12355	52.84438
	14.12442	52.84547
	14.12555	52.84714
	14.12764	52.84967
	14.13042	52.85293
	14.13201	52.8541
	14.13331	52.85459
	14.13476	52.85555
	14.1369	52.85755
	14.13896	52.85917
	14.14031	52.8605
	14.14132	52.8619
	14.14279	52.86299
	14.14519	52.86403
	14.14744	52.86563
	14.1501	52.86774
	14.15219	52.86986
	14.15487	52.87228
	14.15665	52.87421
	14.15757	52.87542
	14.15807	52.87647
	14.1583	52.87797
	14.1586	52.88035
	14.15902	52.88193
	14.15946	52.88283
	14.16002	52.88378
	14.1605	52.88502
	14.16081	52.88677
	14.16062	52.88859
	14.16056	52.8901
	14.15997	52.89127
	14.15896	52.89291
	14.15797	52.89447
	14.15744	52.89511
	14.15686	52.89554
	14.15598	52.89599
	14.15519	52.89678
	14.15407	52.89824
	14.15328	52.89965
	14.15283	52.90064
	14.1524	52.90202
	14.15219	52.90344
	14.15162	52.90614
	14.151	52.90878
	14.15096	52.91113
	14.15016	52.91479
	14.14798	52.91938
	14.14681	52.92369
	14.14632	52.92592
	14.14402	52.9316
	14.14311	52.93499
	14.14391	52.9445
	14.14004	52.95048
	14.14394	52.96111
	14.14534	52.96204
	14.14708	52.96254
	14.15006	52.96325
	14.15219	52.96362
	14.15567	52.96404
	14.15756	52.96425
	14.15962	52.96472
	14.16138	52.96549
	14.16313	52.96651
	14.16444	52.96742
	14.1653	52.96836
	14.16661	52.97007
	14.16748	52.97126
	14.16804	52.97208
	14.16905	52.97303
	14.17043	52.97372
	14.17278	52.97457
	14.17581	52.97547
	14.18198	52.97749
	14.18728	52.97919
	14.18994	52.9801
	14.19334	52.98147
	14.19673	52.98305
	14.20605	52.98624
	14.20893	52.98684
	14.21526	52.98779
	14.21702	52.98815
	14.21841	52.98856
	14.22481	52.99049
	14.22699	52.99103
	14.22934	52.99145
	14.23289	52.99246
	14.236	52.99361
	14.24082	52.9955
	14.24508	52.99723
	14.25417	53.0008
	14.25707	53.00198
	14.25866	53.00275
	14.25985	53.00341
	14.26207	53.00499
	14.26505	53.00684
	14.26831	53.00852
	14.27245	53.0107
	14.2754	53.01222
	14.27888	53.0138
	14.2851	53.01681
	14.29234	53.02058
	14.30061	53.0253
	14.30327	53.027
	14.30565	53.02892
	14.31006	53.03263
	14.31225	53.03432
	14.31523	53.03635
	14.3195	53.03908
	14.32109	53.03995
	14.32267	53.0407
	14.32497	53.04163
	14.33256	53.04447
	14.33388	53.04509
	14.33514	53.04572
	14.33725	53.04694
	14.339	53.04817
	14.34224	53.05052
	14.34454	53.0524
	14.34775	53.05527
	14.34998	53.05739
	14.35179	53.05961
	14.35362	53.06224
	14.35559	53.06532
	14.35663	53.06752
	14.3579	53.07059
	14.3587	53.07163
	14.36123	53.07404
	14.36236	53.07532
	14.36313	53.07683
	14.36522	53.08029
	14.36805	53.08643
	14.36895	53.08879
	14.36983	53.09342
	14.36998	53.09562
	14.36987	53.09878
	14.3696	53.10118
	14.36962	53.10215
	14.37007	53.10343
	14.37069	53.10446
	14.37167	53.10549
	14.37605	53.10903
	14.37706	53.10996
	14.37771	53.11125
	14.37814	53.11286
	14.37859	53.115
	14.37942	53.11776
	14.37996	53.12113
	14.3803	53.12312
	14.38166	53.12864
	14.38335	53.13486
	14.38378	53.13595
	14.38548	53.13931
	14.38642	53.14067
	14.38579	53.14305
	14.38467	53.14408
	14.38284	53.14548
	14.37798	53.14998
	14.37579	53.1521
	14.37322	53.15453
	14.37191	53.1559
	14.37063	53.15761
	14.37027	53.15862
	14.36993	53.1595
	14.3699	53.16084
	14.36952	53.16338
	14.36911	53.16431
	14.36855	53.16527
	14.36781	53.16624
	14.36678	53.16845
	14.36707	53.16966
	14.36696	53.1707
	14.36703	53.17173
	14.36738	53.17278
	14.36889	53.17576
	14.36911	53.17666
	14.36916	53.17863
	14.36932	53.17935
	14.3699	53.18077
	14.37333	53.18518
	14.37394	53.18733
	14.37558	53.19415
	14.37586	53.19589
	14.376	53.19819
	14.37625	53.19913
	14.37679	53.20021
	14.37762	53.20121
	14.37846	53.20195
	14.37946	53.20261
	14.38079	53.20329
	14.3824	53.20386
	14.38492	53.20445
	14.38897	53.2052
	14.39233	53.20562
	14.39341	53.2057
	14.39533	53.20589
	14.39671	53.20614
	14.3984	53.20659
	14.39993	53.20723
	14.40161	53.20799
	14.40277	53.20854
	14.40436	53.20949
	14.40559	53.21056
	14.40621	53.21126
	14.40672	53.21199
	14.40709	53.21278
	14.40741	53.2139
	14.40743	53.21579
	14.4074	53.2169
	14.40756	53.21821
	14.40895	53.2194
	14.40825	53.22125
	14.40848	53.22224
	14.40886	53.22312
	14.40943	53.22391
	14.41021	53.2247
	14.41276	53.2263
	14.41751	53.23146
	14.41939	53.2329
	14.42113	53.23397
	14.42259	53.23478
	14.42501	53.23588
	14.42737	53.23701
	14.42896	53.23794
	14.43053	53.23912
	14.43201	53.24051
	14.43272	53.24134
	14.43335	53.24238
	14.4336	53.24353
	14.43374	53.24496
	14.43389	53.24595
	14.43418	53.24679
	14.43508	53.24834
	14.43668	53.24994
	14.4391	53.25231
	14.44173	53.25433
	14.44244	53.25467
	14.4432	53.25514
	14.4456	53.25657
	14.44733	53.25775
	14.44825	53.25843
	14.44892	53.25907
	14.44955	53.25998
	14.44984	53.26072
	14.44999	53.26164
	14.44986	53.26313
	14.44935	53.2647
	14.44905	53.26538
	14.44872	53.26607
	14.44783	53.26744
	14.44666	53.26897
	14.4455	53.2703
	14.44486	53.27095
	14.44454	53.27148
	14.44426	53.27221
	14.44413	53.27285
	14.44435	53.27361
	14.44478	53.27434
	14.44376	53.27454
	14.44295	53.27465
	14.44114	53.27482
	14.43896	53.27521
	14.43595	53.27568
	14.43438	53.27582
	14.43225	53.27594
	14.43055	53.27599
	14.42119	53.27619
	14.41697	53.28948
	14.41515	53.3
	14.41498	53.30147
	14.41489	53.30182
	14.41461	53.30209
	14.41047	53.30537
	14.4101	53.30572
	14.40931	53.30668
	14.40891	53.30712
	14.40775	53.30787
	14.40755	53.30808
	14.4071	53.30906
	14.40715	53.30918
	14.40905	53.31209
	14.41023	53.31322
	14.41105	53.31394
	14.41185	53.31435
	14.41327	53.31505
	14.41344	53.31519
	14.41356	53.31539
	14.41358	53.3157
	14.41355	53.31639
	14.41374	53.3174
	14.41415	53.31878
	14.41446	53.32103
	14.4146	53.32156
	14.4157	53.32422
	14.41573	53.32447
	14.41475	53.3258
	14.41373	53.32759
	14.41252	53.3295
	14.41125	53.33159
	14.4106	53.33241
	14.40912	53.33448
	14.40841	53.33563
	14.40705	53.33916
	14.40695	53.33947
	14.40684	53.33997
	14.40611	53.34265
	14.40553	53.34448
	14.40495	53.34665
	14.4045	53.34742
	14.40354	53.34794
	14.39997	53.3498
	14.3981	53.35062
	14.39288	53.35265
	14.39088	53.35367
	14.39073	53.35382
	14.39074	53.35397
	14.39191	53.35614
	14.39281	53.35752
	14.39333	53.35835
	14.39393	53.36065
	14.39404	53.36232
	14.39456	53.36508
	14.39495	53.36652
	14.39543	53.3684
	14.396	53.371
	14.39605	53.37137
	14.39599	53.3717
	14.39535	53.37434
	14.39493	53.37586
	14.39427	53.37699
	14.39294	53.37958
	14.39219	53.38132
	14.39161	53.3829
	14.38943	53.3878
	14.38567	53.39262
	14.38022	53.39932
	14.37804	53.40186
	14.37368	53.40842
	14.3735	53.40882
	14.37343	53.40915
	14.37344	53.41021
	14.37349	53.41204
	14.37347	53.41464
	14.37354	53.41589
	14.37353	53.41627
	14.3733	53.4173
	14.37307	53.41845
	14.37214	53.42033
	14.37012	53.4236
	14.36962	53.4243
	14.36867	53.4321
	14.36894	53.43327
	14.36922	53.43426
	14.37055	53.43786
	14.37079	53.43925
	14.37099	53.44111
	14.37102	53.44222
	14.37112	53.44324
	14.37167	53.44614
	14.37156	53.44802
	14.37115	53.44849
	14.37068	53.44921
	14.37074	53.45102
	14.37114	53.45297
	14.37116	53.45355
	14.37136	53.45423
	14.37148	53.4554
	14.37117	53.45589
	14.37067	53.45656
	14.3698	53.45653
	14.36678	53.45682
	14.36562	53.45676
	14.36073	53.45661
	14.35921	53.4568
	14.358	53.45719
	14.35757	53.45775
	14.35704	53.45993
	14.35641	53.46129
	14.35685	53.46386
	14.35709	53.46649
	14.35703	53.46962
	14.35679	53.47049
	14.3562	53.47158
	14.35572	53.4728
	14.35504	53.47475
	14.35462	53.477
	14.35421	53.47845
	14.35359	53.48278
	14.35359	53.48437
	14.35381	53.48859
	14.35364	53.48983
	14.35234	53.49216
	14.35073	53.49555
	14.35042	53.49609
	14.34547	53.49791
	14.34284	53.49877
	14.33216	53.50129
	14.3312	53.50174
	14.32694	53.50382
	14.32654	53.50479
	14.32486	53.50901
	14.32425	53.5104
	14.32332	53.51239
	14.32211	53.51507
	14.3203	53.51788
	14.31908	53.52009
	14.31899	53.52009
	14.31828	53.52024
	14.31799	53.52096
	14.31626	53.5237
	14.31595	53.52462
	14.31567	53.52509
	14.31647	53.52612
	14.31658	53.52645
	14.31726	53.52733
	14.318	53.52793
	14.31861	53.52861
	14.31908	53.52933
	14.31922	53.52973
	14.31902	53.53029
	14.31582	53.53675
	14.31387	53.53803
	14.3089	53.54152
	14.30575	53.54357
	14.30623	53.54578
	14.30644	53.5477
	14.30731	53.55116
	14.30701	53.55132
	14.30697	53.55132
	14.30484	53.5522
	14.30338	53.55295
	14.30242	53.55336
	14.30399	53.55584
	14.30531	53.55722
	14.30689	53.55859
	14.31262	53.56319
	14.31244	53.57153
	14.31217	53.57483
	14.3121	53.57969
	14.31207	53.58073
	14.31303	53.58875
	14.31445	53.59816
	14.31516	53.60323
	14.31595	53.60913
	14.31631	53.61249
	14.31702	53.61804
	14.31132	53.61844
	14.30363	53.62243
	14.30131	53.62368
	14.3003	53.62434
	14.28966	53.63101
	14.28397	53.63443
	14.28366	53.63445
	14.28361	53.63672
	14.28358	53.63706
	14.28368	53.63769
	14.28452	53.64407
	14.2846	53.64732
	14.28466	53.64846
	14.28461	53.64958
	14.28473	53.65492
	14.2847	53.65638
	14.28481	53.6586
	14.28475	53.65886
	14.28452	53.65897
	14.28372	53.65926
	14.28332	53.65932
	14.28317	53.65941
	14.28318	53.65947
	14.28339	53.65972
	14.28337	53.6598
	14.28329	53.65989
	14.28298	53.65994
	14.28285	53.66002
	14.28256	53.66037
	14.28247	53.66043
	14.28214	53.66048
	14.28192	53.66056
	14.28178	53.66074
	14.28164	53.66084
	14.28132	53.6609
	14.28114	53.66105
	14.28088	53.66133
	14.28061	53.6614
	14.28043	53.66161
	14.28027	53.66171
	14.28003	53.66189
	14.27992	53.66202
	14.27973	53.66215
	14.27967	53.66227
	14.2796	53.66252
	14.27967	53.66263
	14.27977	53.66269
	14.27982	53.66275
	14.2798	53.66282
	14.27971	53.66286
	14.27963	53.66288
	14.2795	53.66286
	14.27938	53.66286
	14.27933	53.66287
	14.2791	53.66307
	14.27896	53.66313
	14.27886	53.66313
	14.27867	53.66308
	14.27859	53.66304
	14.27849	53.66303
	14.27818	53.6631
	14.27802	53.66307
	14.27789	53.66303
	14.2778	53.66297
	14.27775	53.66286
	14.27753	53.66279
	14.27738	53.66279
	14.27728	53.6628
	14.277	53.66265
	14.2769	53.66254
	14.2768	53.6625
	14.27668	53.66253
	14.27657	53.66252
	14.27638	53.66243
	14.27625	53.66242
	14.27612	53.66245
	14.27585	53.66243
	14.27567	53.66244
	14.27554	53.66248
	14.27544	53.66256
	14.27526	53.66258
	14.27505	53.66265
	14.27501	53.66274
	14.27494	53.66279
	14.27478	53.66285
	14.27468	53.6629
	14.27433	53.66312
	14.27386	53.66313
	14.27361	53.66311
	14.27341	53.66308
	14.2733	53.6631
	14.27316	53.66315
	14.27286	53.66318
	14.27277	53.6632
	14.27224	53.66338
	14.27191	53.66383
	14.2719	53.66398
	14.27186	53.66412
	14.27164	53.66444
	14.27154	53.66451
	14.27131	53.66452
	14.27124	53.66456
	14.27106	53.66487
	14.27104	53.66494
	14.27106	53.6652
	14.2709	53.66537
	14.27083	53.66557
	14.27081	53.66569
	14.27082	53.66592
	14.27079	53.66601
	14.2708	53.66607
	14.27106	53.66629
	14.27106	53.66642
	14.27101	53.66647
	14.2708	53.66652
	14.27072	53.66657
	14.27067	53.66665
	14.27071	53.66674
	14.2708	53.6668
	14.2709	53.66682
	14.27102	53.66686
	14.27115	53.66695
	14.27124	53.66707
	14.27133	53.66716
	14.27148	53.66722
	14.27157	53.66728
	14.2716	53.66733
	14.27155	53.6674
	14.2715	53.66751
	14.2715	53.66756
	14.27189	53.66781
	14.27208	53.66787
	14.27219	53.66789
	14.27229	53.66795
	14.27235	53.66799
	14.27238	53.66809
	14.27241	53.66813
	14.27247	53.66814
	14.27265	53.66811
	14.27275	53.66811
	14.27336	53.66843
	14.27347	53.66842
	14.27358	53.66843
	14.27382	53.6685
	14.27385	53.66852
	14.27393	53.66877
	14.27411	53.66887
	14.27428	53.66894
	14.27444	53.66898
	14.27453	53.66902
	14.27462	53.66911
	14.27468	53.66946
	14.27474	53.66952
	14.27495	53.66959
	14.27582	53.66981
	14.27593	53.66982
	14.27597	53.6698
	14.27612	53.66968
	14.27626	53.66952
	14.27635	53.66948
	14.27663	53.66946
	14.27679	53.66947
	14.27693	53.66953
	14.27713	53.66965
	14.27725	53.66974
	14.2773	53.66982
	14.27727	53.66989
	14.27717	53.67002
	14.27709	53.67019
	14.27709	53.6703
	14.27719	53.67035
	14.27729	53.67037
	14.27734	53.67041
	14.27736	53.6705
	14.27735	53.67056
	14.27744	53.67063
	14.2774	53.67079
	14.27744	53.67084
	14.27752	53.67087
	14.27762	53.67089
	14.27767	53.67089
	14.27782	53.67084
	14.2779	53.67084
	14.27856	53.6712
	14.27882	53.67151
	14.27882	53.67164
	14.27887	53.67172
	14.27917	53.67198
	14.27926	53.67211
	14.27933	53.67216
	14.27942	53.67218
	14.27953	53.67219
	14.27957	53.67221
	14.27962	53.6723
	14.2798	53.67245
	14.27996	53.67252
	14.28014	53.67255
	14.28025	53.67262
	14.28036	53.67266
	14.28062	53.6727
	14.28072	53.6727
	14.28116	53.67292
	14.28115	53.67302
	14.28118	53.67312
	14.28117	53.6732
	14.28112	53.67326
	14.281	53.67336
	14.28101	53.67347
	14.28112	53.6736
	14.28155	53.67389
	14.28208	53.67416
	14.28225	53.6743
	14.28243	53.67456
	14.28259	53.67545
	14.28256	53.67559
	14.28261	53.67581
	14.28275	53.67598
	14.28291	53.67624
	14.28311	53.67683
	14.28316	53.67694
	14.28304	53.6781
	14.28301	53.67856
	14.28295	53.67871
	14.28288	53.67882
	14.28299	53.67911
	14.28359	53.6804
	14.28359	53.68046
	14.28345	53.68111
	14.28326	53.68154
	14.28327	53.68158
	14.28334	53.68165
	14.28369	53.68224
	14.28371	53.68241
	14.28374	53.68251
	14.28373	53.68258
	14.28362	53.68263
	14.28323	53.68295
	14.28321	53.68309
	14.28317	53.68313
	14.28308	53.68316
	14.28296	53.68322
	14.28277	53.68339
	14.28256	53.68397
	14.28248	53.68406
	14.28233	53.68417
	14.28118	53.68476
	14.281	53.68483
	14.28086	53.68486
	14.27973	53.68493
	14.27957	53.68496
	14.279	53.68518
	14.27786	53.68553
	14.27695	53.6859
	14.27651	53.68613
	14.27625	53.6863
	14.27612	53.68641
	14.27607	53.6865
	14.27601	53.68671
	14.27592	53.68677
	14.27556	53.68696
	14.27488	53.6873
	14.27484	53.68734
	14.27479	53.68743
	14.27528	53.68857
	14.27527	53.68868
	14.27512	53.68891
	14.27473	53.68909
	14.27421	53.6893
	14.27392	53.68935
	14.27375	53.68936
	14.27261	53.68936
	14.27244	53.68937
	14.27219	53.68944
	14.27207	53.68953
	14.27205	53.68958
	14.2722	53.68981
	14.27235	53.69
	14.27272	53.69021
	14.27275	53.69027
	14.27282	53.69052
	14.27281	53.69073
	14.2726	53.69111
	14.27212	53.69183
	14.27175	53.69258
	14.27174	53.69265
	14.27195	53.69339
	14.27196	53.69355
	14.27189	53.69377
	14.27073	53.69529
	14.27051	53.69553
	14.269	53.69624
	14.26866	53.69692
	14.26841	53.69709
	14.26765	53.69751
	14.26743	53.69801
	14.26734	53.69826
	14.26689	53.6987
	14.26782	53.70463
	14.27195	53.70586
	14.26837	53.70822
	14.27308	53.73766
	14.27265	53.73859
	14.2716	53.74071
	14.27357	53.74449
	14.26706	53.75345
	14.2836	53.7722
	14.27071	53.78993
	14.26396	53.79786
	14.25356	53.81196
	14.23952	53.83023
	14.21209	53.86687
	14.21251	53.86716
	14.21236	53.86728
	14.21234	53.86745
	14.21234	53.86804
	14.21259	53.869
	14.21316	53.87098
	14.2135	53.87227
	14.21355	53.87283
	14.21353	53.873
	14.21356	53.87314
	14.21374	53.87364
	14.21376	53.87375
	14.21374	53.87413
	14.21389	53.87489
	14.21406	53.8753
	14.21405	53.87554
	14.21415	53.87607
	14.21409	53.87637
	14.21411	53.87649
	14.21431	53.87706
	14.21453	53.87794
	14.21458	53.8784
	14.21451	53.87929
	14.21454	53.87937
	14.21479	53.87973
	14.21521	53.88017
	14.21531	53.88033
	14.21541	53.88067
	14.2154	53.88086
	14.21533	53.8811
	14.21514	53.88163
	14.2146	53.88342
	14.21355	53.88714
	14.21355	53.8875
	14.21338	53.88912
	14.21332	53.88992
	14.21318	53.89117
	14.21294	53.89358
	14.21272	53.89548
	14.21262	53.89656
	14.21229	53.89958
	14.21226	53.90016
	14.21224	53.90027
	14.2122	53.90035
	14.21208	53.90052
	14.21191	53.90066
	14.20861	53.90316
	14.20706	53.90432
	14.2054	53.90559
	14.20407	53.90656
	14.20392	53.90665
	14.20497	53.90959
	14.20569	53.9106
	14.19255	53.91215
	14.18535	53.91208
	14.18524	53.91404
	14.18528	53.91414
	14.18547	53.91427
	14.18691	53.91491
	14.18851	53.91531
	14.18957	53.91545
	14.19078	53.916
	14.19185	53.91568
	14.19685	53.91495
	14.20767	53.91592
	14.20924	53.91689
	14.21688	53.92172
	14.22503	53.927
	14.22534	53.92721
	14.22574	53.92746
	14.22594	53.92764
	14.22609	53.92774
	14.22658	53.92835
	14.22668	53.92899
	14.31402	55.07801
	15.09142	54.75319
	15.51311	54.98265
	16.69921	54.56947
	16.6993	54.56908
	16.71213	54.55461
	16.73164	54.54294
	16.73897	54.53844
	16.74511	54.53342
	16.74837	54.52798
	16.74136	54.52477
	16.73913	54.51736
	16.75277	54.49686
	16.7548	54.49678
	16.75681	54.49435
	16.75797	54.49298
	16.76055	54.49035
	16.76099	54.48945
	16.76275	54.48773
	16.76132	54.48565
	16.76774	54.48758
	16.77892	54.48459
	16.7895	54.48661
	16.79337	54.4874
	16.79331	54.48441
	16.79943	54.48439
	16.80101	54.48058
	16.81074	54.48193
	16.81219	54.48383
	16.8102	54.48036
	16.81178	54.47416
	16.81728	54.46878
	16.81975	54.47282
	16.821	54.47167
	16.82188	54.4708
	16.82296	54.46977
	16.82317	54.46938
	16.82743	54.46487
	16.82397	54.4639
	16.82823	54.45874
	16.8212	54.45624
	16.82384	54.45427
	16.82229	54.45367
	16.84128	54.43839
	16.83978	54.43203
	16.83895	54.43127
	16.83443	54.42756
	16.83027	54.4242
	16.82805	54.42079
	16.82472	54.41703
	16.82441	54.41574
	16.83113	54.41265
	16.83353	54.41141
	16.8364	54.40879
	16.84031	54.40513
	16.84054	54.39869
	16.84986	54.38979
	16.85126	54.38956
	16.85137	54.39001
	16.8517	54.39082
	16.85192	54.39121
	16.85432	54.39461
	16.85566	54.39657
	16.85697	54.39834
	16.85744	54.39905
	16.85781	54.39955
	16.85807	54.39996
	16.85817	54.40142
	16.85823	54.40178
	16.85838	54.40239
	16.85889	54.40329
	16.85897	54.40337
	16.8618	54.40339
	16.86181	54.4015
	16.86226	54.40139
	16.86215	54.40096
	16.86204	54.39947
	16.86198	54.399
	16.86168	54.39818
	16.86107	54.39724
	16.86075	54.3968
	16.86028	54.39609
	16.8589	54.39422
	16.8576	54.39231
	16.85541	54.38921
	16.85546	54.38906
	16.85555	54.38848
	16.85555	54.38808
	16.85553	54.38778
	16.8555	54.3876
	16.85533	54.38704
	16.85499	54.38636
	16.8545	54.38561
	16.85428	54.38533
	16.85407	54.38511
	16.85677	54.38359
	16.85852	54.38258
	16.85814	54.38096
	16.85731	54.37813
	16.85073	54.37408
	16.84391	54.37223
	16.84412	54.37398
	16.84456	54.37619
	16.84049	54.37653
	16.83839	54.37664
	16.83815	54.37529
	16.83753	54.3704
	16.82159	54.36825
END
END
