Poland_Pomeranian Voivodeship
1
	15.51311	54.98265
	15.46721	55.54006
	16.6606	55.70016
	16.21718	55.91332
	17.47197	56.17373
	18.33615	56.4525
	18.50926	56.01147
	18.65355	55.64
	19.13898	54.79595
	19.37463	54.63886
	19.639	54.4584
	19.64721	54.45327
	19.64774	54.45333
	19.64873	54.45327
	19.63571	54.39225
	19.61677	54.38594
	19.53238	54.35788
	19.4675	54.33675
	19.46183	54.33495
	19.45662	54.33331
	19.45322	54.33222
	19.44848	54.33073
	19.43699	54.32708
	19.415	54.32012
	19.2901	54.29885
	19.25822	54.28144
	19.25343	54.27028
	19.2566	54.26816
	19.25893	54.26699
	19.2599	54.26663
	19.26087	54.26633
	19.26113	54.26623
	19.26184	54.26605
	19.2653	54.26546
	19.26898	54.26394
	19.27111	54.26294
	19.27142	54.26277
	19.27227	54.26243
	19.27321	54.26192
	19.27387	54.2614
	19.27461	54.26052
	19.27513	54.25957
	19.2755	54.25909
	19.27574	54.25883
	19.27608	54.25859
	19.27643	54.25841
	19.28117	54.25633
	19.28177	54.2561
	19.28274	54.25579
	19.28382	54.25557
	19.28495	54.25539
	19.28565	54.25531
	19.28613	54.25526
	19.28692	54.25521
	19.28746	54.25519
	19.28783	54.25515
	19.28813	54.25509
	19.28839	54.25501
	19.28877	54.25484
	19.28907	54.25461
	19.28968	54.25396
	19.2917	54.25119
	19.29235	54.25015
	19.29274	54.24991
	19.29392	54.24948
	19.29534	54.24908
	19.29549	54.24903
	19.29608	54.24881
	19.29667	54.24857
	19.29742	54.24819
	19.29835	54.24757
	19.29907	54.24701
	19.29978	54.24639
	19.3007	54.24544
	19.3012	54.24478
	19.30147	54.24429
	19.30155	54.2433
	19.30166	54.24234
	19.30192	54.24095
	19.30228	54.23974
	19.30256	54.23889
	19.30271	54.23846
	19.3033	54.23691
	19.30379	54.23595
	19.30473	54.23481
	19.30577	54.23395
	19.30752	54.23283
	19.30906	54.23195
	19.30952	54.23171
	19.31007	54.23131
	19.31052	54.23089
	19.3115	54.22969
	19.31199	54.22919
	19.31252	54.22873
	19.31338	54.22817
	19.31554	54.22695
	19.31649	54.22644
	19.31704	54.22612
	19.31729	54.22594
	19.31746	54.22573
	19.3176	54.22542
	19.31757	54.22512
	19.31743	54.22475
	19.31725	54.22447
	19.3169	54.22414
	19.31582	54.22322
	19.31519	54.22263
	19.31453	54.22182
	19.31427	54.22145
	19.3141	54.22063
	19.31405	54.2198
	19.31412	54.21902
	19.3143	54.21858
	19.31444	54.21832
	19.31466	54.21804
	19.31509	54.21759
	19.31549	54.21723
	19.31619	54.21671
	19.31664	54.21645
	19.31692	54.21631
	19.31717	54.21619
	19.31756	54.21605
	19.31783	54.21594
	19.31847	54.21578
	19.31937	54.21482
	19.32078	54.21344
	19.32125	54.21307
	19.3226	54.21212
	19.32337	54.2115
	19.32395	54.211
	19.32471	54.21006
	19.32516	54.20933
	19.32592	54.20784
	19.32627	54.20704
	19.32645	54.20623
	19.32652	54.2052
	19.32647	54.20382
	19.32627	54.20208
	19.32588	54.19999
	19.32551	54.19862
	19.32485	54.19718
	19.32391	54.19581
	19.3234	54.19483
	19.32307	54.19414
	19.32275	54.19369
	19.32202	54.1928
	19.32143	54.19216
	19.32093	54.19178
	19.32017	54.19138
	19.318	54.19036
	19.31661	54.18984
	19.31589	54.18961
	19.31442	54.18926
	19.31357	54.18913
	19.31227	54.18912
	19.31137	54.18906
	19.30886	54.18886
	19.30588	54.18906
	19.30486	54.18912
	19.30353	54.18916
	19.30213	54.18914
	19.29996	54.18898
	19.29883	54.18887
	19.29775	54.18868
	19.29696	54.18846
	19.29675	54.18841
	19.2959	54.18815
	19.29476	54.18777
	19.29378	54.1875
	19.29246	54.18729
	19.2917	54.1872
	19.29108	54.18714
	19.29035	54.1871
	19.2895	54.18708
	19.28872	54.18708
	19.28746	54.18697
	19.28606	54.1867
	19.28529	54.18648
	19.28455	54.18618
	19.28388	54.18585
	19.28284	54.18523
	19.28157	54.18458
	19.27928	54.18332
	19.27859	54.18297
	19.27693	54.18199
	19.27681	54.18193
	19.2766	54.18178
	19.27618	54.18147
	19.27545	54.18075
	19.27495	54.18035
	19.27402	54.17992
	19.27217	54.17931
	19.26918	54.17847
	19.26409	54.17722
	19.26106	54.1764
	19.25873	54.17541
	19.25647	54.17395
	19.25475	54.17278
	19.254	54.17207
	19.25608	54.17184
	19.25603	54.17178
	19.25508	54.17088
	19.2539	54.16989
	19.25371	54.16992
	19.25283	54.16928
	19.2523	54.16914
	19.25206	54.169
	19.24863	54.16796
	19.24792	54.16772
	19.24743	54.1675
	19.24742	54.16748
	19.24714	54.1673
	19.247	54.16716
	19.24658	54.16622
	19.2465	54.16602
	19.24642	54.16575
	19.24633	54.16531
	19.24629	54.16474
	19.24634	54.16434
	19.24631	54.16387
	19.2463	54.16297
	19.24635	54.16248
	19.24641	54.16226
	19.24675	54.1614
	19.24712	54.16104
	19.24732	54.1608
	19.24769	54.16051
	19.2483	54.16018
	19.2489	54.15999
	19.25409	54.15929
	19.25432	54.15924
	19.25469	54.1591
	19.25505	54.15883
	19.25531	54.15856
	19.25552	54.15823
	19.25387	54.15821
	19.2542	54.15819
	19.25462	54.15806
	19.25543	54.1577
	19.25588	54.15753
	19.25608	54.15744
	19.2562	54.15735
	19.25661	54.15671
	19.25697	54.15634
	19.25813	54.1552
	19.25702	54.15487
	19.25724	54.15458
	19.25792	54.15322
	19.25811	54.15269
	19.25807	54.15186
	19.25781	54.15123
	19.25756	54.15082
	19.25712	54.15027
	19.25549	54.14885
	19.25486	54.14832
	19.2531	54.14664
	19.2519	54.14557
	19.25135	54.14505
	19.25077	54.1444
	19.24907	54.1428
	19.24712	54.14072
	19.24598	54.13855
	19.24451	54.13596
	19.24376	54.13439
	19.24326	54.13351
	19.24256	54.13236
	19.24185	54.13134
	19.24116	54.1304
	19.24039	54.12948
	19.23947	54.12833
	19.23902	54.12788
	19.23798	54.12689
	19.23774	54.12672
	19.23642	54.12589
	19.23608	54.12569
	19.23474	54.125
	19.23351	54.12438
	19.23304	54.12417
	19.23237	54.12389
	19.22825	54.12196
	19.22673	54.12135
	19.22329	54.12027
	19.22252	54.11993
	19.22173	54.11949
	19.22007	54.11851
	19.21772	54.11682
	19.21733	54.11632
	19.21715	54.11557
	19.22701	54.11473
	19.22763	54.11436
	19.22913	54.11381
	19.23054	54.11285
	19.2319	54.11214
	19.24183	54.10053
	19.24175	54.10048
	19.24205	54.10005
	19.24348	54.09845
	19.24362	54.0984
	19.24367	54.09812
	19.24443	54.09709
	19.24499	54.09649
	19.24819	54.09338
	19.25361	54.08755
	19.25535	54.08574
	19.25348	54.08377
	19.25179	54.08328
	19.25084	54.08309
	19.24473	54.08194
	19.24116	54.08124
	19.23925	54.08085
	19.23886	54.08076
	19.23817	54.08057
	19.23735	54.0803
	19.23579	54.07966
	19.23509	54.0794
	19.23343	54.07885
	19.23218	54.07846
	19.23171	54.07834
	19.23142	54.07828
	19.22969	54.07797
	19.22884	54.07783
	19.22802	54.07768
	19.22749	54.07757
	19.22702	54.07745
	19.2268	54.07738
	19.22632	54.07721
	19.22611	54.07712
	19.22563	54.07688
	19.22524	54.07664
	19.22483	54.07631
	19.22461	54.07607
	19.22439	54.0758
	19.22416	54.07546
	19.22204	54.07186
	19.22221	54.0718
	19.22101	54.0699
	19.22073	54.06951
	19.22463	54.06791
	19.2273	54.06684
	19.22805	54.06652
	19.22972	54.06586
	19.22957	54.06573
	19.229	54.0653
	19.23294	54.06405
	19.23493	54.06452
	19.23505	54.06474
	19.23756	54.0649
	19.23771	54.06482
	19.23938	54.06404
	19.24001	54.06376
	19.24221	54.06273
	19.24574	54.06103
	19.2458	54.06101
	19.24785	54.06
	19.24804	54.05993
	19.25039	54.0588
	19.25748	54.05537
	19.25973	54.05427
	19.26319	54.05255
	19.26367	54.05236
	19.26673	54.05081
	19.26725	54.05093
	19.26775	54.05091
	19.26827	54.05095
	19.26859	54.05106
	19.26918	54.0515
	19.27001	54.05169
	19.2702	54.05176
	19.27052	54.05208
	19.27087	54.0522
	19.27128	54.05242
	19.27169	54.0526
	19.27208	54.05266
	19.27233	54.05276
	19.27255	54.05275
	19.2733	54.05292
	19.2746	54.05319
	19.27488	54.05299
	19.27537	54.05214
	19.279	54.0486
	19.28215	54.04245
	19.28246	54.04177
	19.28015	54.04174
	19.27967	54.04167
	19.27494	54.04193
	19.2731	54.04219
	19.27116	54.04173
	19.2683	54.03868
	19.26641	54.03709
	19.26398	54.03643
	19.26112	54.03592
	19.25894	54.03563
	19.25821	54.03524
	19.25937	54.03461
	19.26244	54.02979
	19.26284	54.02939
	19.2653	54.0279
	19.26651	54.02769
	19.26692	54.0267
	19.26737	54.02615
	19.26826	54.02412
	19.26903	54.02416
	19.26978	54.02411
	19.27065	54.02391
	19.27129	54.02384
	19.27103	54.01762
	19.2789	54.01295
	19.28498	54.0139
	19.29151	54.02288
	19.29287	54.02284
	19.29373	54.02289
	19.29458	54.02298
	19.30778	54.02399
	19.31743	54.02485
	19.31878	54.02498
	19.32055	54.02525
	19.32126	54.02538
	19.3248	54.02019
	19.36021	54.00453
	19.3667	54.00596
	19.36824	54.00385
	19.36975	54.00322
	19.37187	54.00207
	19.37201	54.00193
	19.38669	54.00088
	19.38809	54.00102
	19.3882	54.00078
	19.38894	54.0007
	19.38905	54.00067
	19.38919	54.00076
	19.39005	54.00189
	19.39325	54.00083
	19.39568	54.00289
	19.39869	54.00165
	19.39916	54.00202
	19.40224	54.00079
	19.40449	54.00245
	19.40453	54.00243
	19.40457	54.00247
	19.40775	54.00112
	19.41074	53.99939
	19.39498	53.99406
	19.39346	53.99355
	19.39192	53.99307
	19.3871	53.99142
	19.38415	53.99017
	19.37784	53.98476
	19.37288	53.97275
	19.36588	53.96062
	19.37244	53.94909
	19.37175	53.94607
	19.36956	53.9378
	19.37433	53.93536
	19.40171	53.93432
	19.40055	53.93019
	19.40065	53.9302
	19.40211	53.93022
	19.40453	53.92929
	19.4089	53.92861
	19.41019	53.92833
	19.41079	53.92821
	19.4145	53.9274
	19.41673	53.9263
	19.42028	53.92765
	19.42143	53.92794
	19.4225	53.92845
	19.42366	53.92899
	19.42377	53.92903
	19.42765	53.92992
	19.43174	53.93083
	19.43274	53.93104
	19.43417	53.93136
	19.43617	53.93168
	19.43635	53.9317
	19.43726	53.93187
	19.43882	53.93239
	19.44011	53.93285
	19.44059	53.93304
	19.44142	53.93334
	19.44245	53.93376
	19.44363	53.93458
	19.44433	53.93636
	19.44438	53.93695
	19.4503	53.93855
	19.45112	53.93876
	19.45257	53.93919
	19.45576	53.94068
	19.45672	53.94114
	19.45783	53.94169
	19.45795	53.94171
	19.45868	53.94205
	19.461	53.94242
	19.46266	53.94255
	19.46579	53.94294
	19.47043	53.94347
	19.47034	53.94381
	19.47306	53.94395
	19.4735	53.94396
	19.47431	53.944
	19.47545	53.94413
	19.47579	53.94425
	19.47589	53.94434
	19.47791	53.94377
	19.47872	53.94372
	19.47904	53.94376
	19.48187	53.94316
	19.48425	53.94271
	19.48543	53.94473
	19.4866	53.94548
	19.48673	53.94554
	19.48751	53.94564
	19.48781	53.94567
	19.48904	53.94653
	19.49114	53.9461
	19.49329	53.9457
	19.49568	53.94524
	19.49591	53.94521
	19.49682	53.94505
	19.49705	53.94517
	19.49866	53.94501
	19.49898	53.94504
	19.50007	53.94487
	19.50027	53.94508
	19.50084	53.9452
	19.50375	53.94484
	19.50566	53.94486
	19.50799	53.94542
	19.50844	53.94552
	19.50977	53.94678
	19.51015	53.94666
	19.51073	53.94688
	19.51233	53.94733
	19.51258	53.94739
	19.51294	53.94728
	19.51369	53.94702
	19.51467	53.94695
	19.51552	53.94707
	19.51599	53.94708
	19.51645	53.94702
	19.51822	53.94645
	19.51936	53.94644
	19.52032	53.94642
	19.52143	53.94638
	19.52212	53.94634
	19.52495	53.94622
	19.52566	53.94612
	19.52572	53.94601
	19.52598	53.94589
	19.52604	53.94593
	19.52599	53.94596
	19.52596	53.94606
	19.52614	53.94606
	19.52619	53.94604
	19.52628	53.94607
	19.52638	53.94607
	19.52645	53.94586
	19.52637	53.94567
	19.52658	53.94573
	19.52673	53.9458
	19.52674	53.94584
	19.52683	53.94581
	19.527	53.94571
	19.52717	53.94567
	19.52738	53.94564
	19.52745	53.94565
	19.52748	53.94576
	19.52743	53.94579
	19.52758	53.94592
	19.52771	53.94597
	19.52785	53.94591
	19.52776	53.9458
	19.52779	53.94571
	19.52787	53.94571
	19.52816	53.9456
	19.52831	53.94558
	19.52844	53.94538
	19.52863	53.94536
	19.52877	53.94542
	19.52889	53.94533
	19.52902	53.94526
	19.52902	53.94525
	19.52912	53.94523
	19.52919	53.94524
	19.52927	53.94535
	19.52947	53.9454
	19.52957	53.94537
	19.52964	53.9453
	19.52973	53.94527
	19.53006	53.94526
	19.53014	53.9452
	19.53016	53.94513
	19.53007	53.94512
	19.52999	53.94514
	19.52998	53.94511
	19.53009	53.94497
	19.53023	53.94504
	19.53023	53.94511
	19.53035	53.94516
	19.53054	53.94507
	19.53061	53.94502
	19.5307	53.94504
	19.5309	53.94496
	19.53102	53.94478
	19.53128	53.94469
	19.53129	53.94465
	19.53132	53.94463
	19.53138	53.94467
	19.53148	53.94467
	19.53152	53.94464
	19.53173	53.94465
	19.53175	53.94468
	19.53168	53.94472
	19.53173	53.94475
	19.53189	53.94475
	19.53221	53.94481
	19.53221	53.94485
	19.53243	53.94489
	19.53258	53.94489
	19.53273	53.94482
	19.53274	53.94479
	19.53264	53.94465
	19.5328	53.94469
	19.53286	53.94467
	19.53307	53.94463
	19.53311	53.94457
	19.53325	53.94448
	19.53324	53.94441
	19.53326	53.9444
	19.53329	53.94441
	19.5334	53.94452
	19.53354	53.94455
	19.53366	53.9447
	19.53376	53.94476
	19.5339	53.9447
	19.53393	53.94463
	19.53402	53.94459
	19.53409	53.94457
	19.53421	53.94457
	19.53447	53.94448
	19.53483	53.94443
	19.53499	53.94439
	19.53537	53.9444
	19.53544	53.94443
	19.53579	53.94443
	19.53617	53.94446
	19.53644	53.94472
	19.5369	53.9449
	19.53701	53.94498
	19.53708	53.94501
	19.53741	53.94504
	19.53772	53.94503
	19.5393	53.94507
	19.53944	53.9451
	19.53978	53.94525
	19.53982	53.94539
	19.5399	53.94545
	19.53996	53.94561
	19.53993	53.94564
	19.53989	53.94572
	19.53995	53.94577
	19.54021	53.94581
	19.54025	53.94583
	19.54014	53.94588
	19.54012	53.94592
	19.54018	53.94595
	19.54041	53.94598
	19.54061	53.94605
	19.54065	53.94605
	19.54096	53.94598
	19.541	53.94593
	19.54149	53.946
	19.54165	53.94606
	19.54175	53.94637
	19.54183	53.9464
	19.54225	53.94641
	19.54259	53.94616
	19.54268	53.94616
	19.54276	53.94606
	19.54286	53.94603
	19.54302	53.94607
	19.54328	53.94606
	19.54336	53.94609
	19.5437	53.94617
	19.54378	53.94647
	19.54386	53.9465
	19.54401	53.94653
	19.54418	53.94651
	19.54425	53.94646
	19.54438	53.94631
	19.54448	53.94632
	19.5445	53.94641
	19.54463	53.94644
	19.54466	53.94644
	19.54478	53.94636
	19.54493	53.94635
	19.545	53.94632
	19.54499	53.94625
	19.54517	53.94621
	19.5452	53.94619
	19.54522	53.94607
	19.54547	53.9461
	19.54547	53.9462
	19.54556	53.94637
	19.54568	53.9464
	19.5458	53.94637
	19.54592	53.94625
	19.54595	53.9462
	19.54578	53.9461
	19.54589	53.9461
	19.54627	53.94619
	19.54664	53.9461
	19.54687	53.94614
	19.547	53.94615
	19.54702	53.94627
	19.54719	53.94647
	19.54732	53.94648
	19.5474	53.94656
	19.54726	53.94667
	19.54732	53.94672
	19.54739	53.94672
	19.54735	53.94686
	19.54757	53.94692
	19.54755	53.94692
	19.54747	53.94696
	19.54747	53.947
	19.54772	53.94712
	19.5478	53.94713
	19.54789	53.9471
	19.54796	53.94702
	19.54798	53.94702
	19.54802	53.94705
	19.54811	53.9472
	19.54816	53.94722
	19.54841	53.94741
	19.5485	53.94741
	19.54875	53.94731
	19.54878	53.94727
	19.54869	53.94716
	19.54869	53.94712
	19.54875	53.94706
	19.5487	53.947
	19.54862	53.94704
	19.54855	53.94692
	19.54874	53.94697
	19.54884	53.94698
	19.54889	53.94693
	19.54893	53.94692
	19.54896	53.94694
	19.54903	53.94711
	19.54907	53.94712
	19.54915	53.94708
	19.54927	53.94708
	19.54931	53.94696
	19.54926	53.94687
	19.54928	53.94685
	19.54946	53.94685
	19.54956	53.94696
	19.5496	53.94698
	19.54966	53.94698
	19.54971	53.94696
	19.54974	53.94696
	19.54997	53.94703
	19.54996	53.94706
	19.5498	53.9471
	19.54978	53.94714
	19.54998	53.94726
	19.54992	53.94737
	19.54996	53.94741
	19.55001	53.94743
	19.55011	53.94745
	19.5502	53.94737
	19.55039	53.94736
	19.55064	53.94727
	19.55075	53.94726
	19.55076	53.94725
	19.55085	53.94723
	19.55093	53.94729
	19.55095	53.94729
	19.55099	53.94735
	19.55126	53.94743
	19.55139	53.94736
	19.55152	53.94741
	19.55165	53.94738
	19.55189	53.94741
	19.55197	53.94753
	19.55222	53.94751
	19.55227	53.94753
	19.55242	53.94756
	19.55244	53.94763
	19.5525	53.94763
	19.55257	53.94766
	19.55317	53.94795
	19.55319	53.94783
	19.55332	53.94777
	19.55335	53.94774
	19.55335	53.94769
	19.55338	53.94768
	19.55342	53.9477
	19.55344	53.94773
	19.55349	53.94774
	19.55355	53.9477
	19.55361	53.94753
	19.5537	53.94747
	19.55385	53.94748
	19.55402	53.94746
	19.5541	53.94744
	19.5541	53.94734
	19.55427	53.94738
	19.55443	53.94737
	19.55463	53.94742
	19.55467	53.94748
	19.55467	53.94756
	19.55471	53.9476
	19.55479	53.94761
	19.55489	53.94759
	19.55518	53.94772
	19.55515	53.94781
	19.55526	53.94786
	19.55532	53.94785
	19.55543	53.94787
	19.55544	53.9479
	19.55537	53.94794
	19.55536	53.94803
	19.5554	53.94806
	19.55551	53.94808
	19.55562	53.94808
	19.55577	53.94798
	19.55582	53.94798
	19.55587	53.94804
	19.55609	53.94798
	19.55617	53.94798
	19.55629	53.94804
	19.55639	53.94805
	19.55644	53.94803
	19.5565	53.94803
	19.55656	53.948
	19.55656	53.94799
	19.55662	53.94804
	19.55671	53.94804
	19.55678	53.948
	19.55691	53.94795
	19.55725	53.94784
	19.55736	53.94785
	19.55759	53.94794
	19.55763	53.94788
	19.55776	53.9478
	19.55804	53.94776
	19.55811	53.94777
	19.55827	53.94783
	19.55837	53.94784
	19.55843	53.94778
	19.55843	53.94766
	19.55856	53.94755
	19.55859	53.94746
	19.55888	53.94737
	19.5591	53.94732
	19.55907	53.94714
	19.55894	53.94702
	19.55871	53.94634
	19.5581	53.94466
	19.5578	53.94426
	19.55963	53.94405
	19.56402	53.94417
	19.56475	53.94429
	19.5649	53.94407
	19.56541	53.94384
	19.56576	53.94359
	19.56656	53.94344
	19.56662	53.94342
	19.56673	53.94348
	19.56722	53.94382
	19.56808	53.94428
	19.57027	53.9452
	19.57107	53.94555
	19.57162	53.94557
	19.57322	53.94631
	19.57414	53.94668
	19.57461	53.94702
	19.57479	53.94746
	19.57538	53.94795
	19.57598	53.94835
	19.57637	53.94814
	19.57781	53.94768
	19.57498	53.94369
	19.57526	53.94361
	19.57564	53.94348
	19.57674	53.94313
	19.57691	53.94293
	19.57706	53.9427
	19.57723	53.94255
	19.57774	53.94222
	19.57804	53.94185
	19.57814	53.9418
	19.57823	53.94173
	19.57825	53.94122
	19.5785	53.94084
	19.57959	53.94007
	19.58026	53.93971
	19.58056	53.93964
	19.58095	53.93962
	19.58177	53.93951
	19.58222	53.9394
	19.5825	53.93662
	19.58258	53.9352
	19.58254	53.93498
	19.58249	53.93403
	19.58246	53.9338
	19.58218	53.93227
	19.58197	53.93157
	19.58197	53.93089
	19.58193	53.93058
	19.58153	53.92871
	19.58122	53.92761
	19.58156	53.9269
	19.57816	53.92742
	19.57373	53.92815
	19.57351	53.92771
	19.57112	53.92781
	19.56769	53.92797
	19.5678	53.92733
	19.56812	53.92673
	19.56564	53.92671
	19.56564	53.92563
	19.56172	53.92543
	19.56158	53.92557
	19.55921	53.92543
	19.5561	53.92573
	19.55607	53.92566
	19.55836	53.9225
	19.55845	53.92243
	19.55945	53.92113
	19.56044	53.9198
	19.56072	53.91946
	19.56089	53.91927
	19.56118	53.91911
	19.56061	53.91667
	19.56009	53.91578
	19.55973	53.91476
	19.5591	53.91351
	19.55741	53.91037
	19.55914	53.91005
	19.55894	53.90952
	19.55853	53.90852
	19.55842	53.90733
	19.55833	53.90649
	19.55829	53.90625
	19.55822	53.90594
	19.55777	53.90449
	19.55746	53.9034
	19.55728	53.90292
	19.5554	53.89945
	19.55482	53.89842
	19.55668	53.89804
	19.55696	53.89799
	19.55705	53.89783
	19.55606	53.89746
	19.55556	53.89726
	19.55473	53.89685
	19.55431	53.89676
	19.55413	53.89666
	19.55373	53.89631
	19.55324	53.8954
	19.55254	53.89426
	19.55219	53.89387
	19.5518	53.89358
	19.55162	53.89343
	19.55091	53.89305
	19.55004	53.8925
	19.54936	53.89204
	19.54914	53.89182
	19.54869	53.89148
	19.54775	53.89103
	19.54738	53.89082
	19.54674	53.89055
	19.54599	53.89021
	19.5454	53.88991
	19.54418	53.88891
	19.54391	53.88862
	19.54358	53.88819
	19.54327	53.88752
	19.54328	53.88713
	19.54324	53.88698
	19.54304	53.88684
	19.5437	53.8859
	19.5438	53.88569
	19.54361	53.88563
	19.54214	53.88399
	19.54183	53.88411
	19.54034	53.88481
	19.53969	53.88498
	19.53731	53.88337
	19.53435	53.88143
	19.53419	53.88122
	19.53345	53.88
	19.53985	53.87877
	19.53716	53.87827
	19.53764	53.87774
	19.53768	53.87767
	19.53788	53.87587
	19.53798	53.87513
	19.53684	53.87504
	19.53689	53.87463
	19.53427	53.87448
	19.53355	53.87445
	19.53262	53.87439
	19.53239	53.87439
	19.53084	53.8743
	19.53037	53.8742
	19.53038	53.87407
	19.53054	53.8741
	19.53067	53.87155
	19.52731	53.87101
	19.52651	53.86994
	19.52688	53.86987
	19.52718	53.86967
	19.5284	53.8694
	19.52973	53.86912
	19.5293	53.86855
	19.52923	53.86848
	19.52865	53.86689
	19.52777	53.86707
	19.52752	53.86703
	19.52731	53.86687
	19.52708	53.86647
	19.52697	53.86608
	19.52679	53.86555
	19.52671	53.86548
	19.52658	53.86544
	19.52607	53.86487
	19.52589	53.86461
	19.52644	53.86454
	19.5262	53.86376
	19.52574	53.86357
	19.52442	53.85999
	19.52367	53.86021
	19.52251	53.86051
	19.52237	53.86052
	19.52033	53.86076
	19.51935	53.85831
	19.51887	53.85721
	19.51805	53.8572
	19.51763	53.85626
	19.51643	53.85638
	19.51396	53.85665
	19.5134	53.8553
	19.51306	53.8544
	19.51281	53.85297
	19.5127	53.85221
	19.51192	53.8487
	19.51219	53.84711
	19.51343	53.84689
	19.51348	53.84605
	19.51583	53.84612
	19.51692	53.8462
	19.51809	53.84641
	19.51818	53.84716
	19.51823	53.84725
	19.51865	53.84657
	19.51703	53.84525
	19.5146	53.84339
	19.51376	53.84268
	19.51359	53.84248
	19.51306	53.84201
	19.51256	53.84183
	19.51177	53.84118
	19.50902	53.83907
	19.50862	53.8387
	19.50744	53.83786
	19.50583	53.83654
	19.50549	53.83635
	19.50468	53.8357
	19.50306	53.83446
	19.50162	53.83343
	19.50055	53.83255
	19.49882	53.83131
	19.498	53.8307
	19.49594	53.82911
	19.49213	53.82653
	19.49128	53.82566
	19.49	53.82464
	19.48687	53.82227
	19.48571	53.82137
	19.48459	53.82054
	19.48183	53.8184
	19.47962	53.8168
	19.48429	53.81422
	19.50044	53.80662
	19.49772	53.8046
	19.4949	53.80246
	19.49356	53.80142
	19.49218	53.80041
	19.48945	53.79833
	19.48777	53.79708
	19.48559	53.79537
	19.48225	53.79279
	19.48113	53.79198
	19.48054	53.7915
	19.4794	53.79069
	19.47843	53.78997
	19.47715	53.78896
	19.47541	53.78765
	19.47427	53.78673
	19.47349	53.78605
	19.47258	53.7854
	19.47186	53.78484
	19.47215	53.78453
	19.47241	53.78441
	19.47265	53.7844
	19.47328	53.78434
	19.4742	53.78449
	19.47458	53.78447
	19.47469	53.78441
	19.47497	53.78415
	19.47514	53.78365
	19.47488	53.78325
	19.4747	53.78265
	19.47477	53.78246
	19.47498	53.78247
	19.4754	53.78265
	19.47617	53.78281
	19.47749	53.78281
	19.47786	53.78272
	19.47854	53.78228
	19.479	53.78208
	19.47929	53.78203
	19.47967	53.78209
	19.4802	53.782
	19.48108	53.78133
	19.4816	53.78112
	19.48205	53.78068
	19.48227	53.7804
	19.48251	53.78019
	19.48245	53.77983
	19.48206	53.77913
	19.48143	53.77868
	19.48111	53.77827
	19.481	53.77795
	19.48116	53.77782
	19.48108	53.77764
	19.48072	53.77738
	19.48056	53.77713
	19.48077	53.77646
	19.48146	53.77558
	19.48062	53.77548
	19.48031	53.77557
	19.48013	53.77573
	19.48008	53.77579
	19.47947	53.77633
	19.47892	53.77691
	19.47886	53.77715
	19.47857	53.77726
	19.47776	53.77746
	19.47735	53.77773
	19.47661	53.77782
	19.47644	53.77773
	19.47644	53.77738
	19.47621	53.7772
	19.47615	53.7772
	19.47595	53.77717
	19.4758	53.77718
	19.47552	53.77735
	19.47533	53.77747
	19.47519	53.7779
	19.47514	53.77797
	19.47484	53.77825
	19.47462	53.77833
	19.47451	53.77852
	19.47453	53.77876
	19.47433	53.77963
	19.47418	53.78005
	19.47383	53.78013
	19.47327	53.78003
	19.47264	53.77987
	19.47233	53.77976
	19.47194	53.77924
	19.4714	53.77889
	19.47091	53.77877
	19.47038	53.77882
	19.47012	53.77904
	19.46939	53.78024
	19.46913	53.7805
	19.46815	53.7807
	19.46757	53.78076
	19.46728	53.78083
	19.46675	53.7813
	19.4661	53.78153
	19.46567	53.78158
	19.46567	53.78169
	19.4651	53.78197
	19.46487	53.78206
	19.46441	53.78209
	19.46351	53.78264
	19.463	53.78282
	19.46255	53.78291
	19.46227	53.7829
	19.46162	53.78285
	19.46126	53.78273
	19.46095	53.78289
	19.46023	53.7834
	19.46002	53.78343
	19.45995	53.78347
	19.45976	53.78405
	19.45976	53.78446
	19.45967	53.78514
	19.45886	53.78623
	19.45703	53.78618
	19.45692	53.78617
	19.45621	53.78692
	19.45623	53.78756
	19.45556	53.78806
	19.45521	53.78889
	19.45435	53.78973
	19.45425	53.79063
	19.45619	53.79066
	19.45653	53.79126
	19.45598	53.79211
	19.45537	53.79286
	19.45435	53.79431
	19.45574	53.79561
	19.45564	53.79628
	19.45608	53.797
	19.45465	53.79721
	19.45361	53.79751
	19.45261	53.79768
	19.45121	53.7979
	19.45076	53.79804
	19.44875	53.79848
	19.44727	53.79849
	19.44584	53.79904
	19.44399	53.79925
	19.44244	53.7995
	19.44044	53.7996
	19.43814	53.8001
	19.43607	53.8008
	19.43357	53.80156
	19.43139	53.80181
	19.42872	53.80244
	19.42731	53.80273
	19.4255	53.80299
	19.42447	53.80322
	19.41537	53.80517
	19.41156	53.80586
	19.40959	53.8062
	19.40884	53.80634
	19.40738	53.80683
	19.40552	53.80709
	19.40272	53.80756
	19.40036	53.8082
	19.39821	53.80872
	19.39683	53.80896
	19.39453	53.80925
	19.39082	53.8098
	19.38939	53.81018
	19.38935	53.81018
	19.38567	53.81092
	19.3824	53.81169
	19.38047	53.81205
	19.37802	53.81263
	19.37692	53.81284
	19.37349	53.81362
	19.37076	53.81419
	19.37053	53.81421
	19.36948	53.81417
	19.36898	53.81402
	19.36846	53.81356
	19.36742	53.81423
	19.36718	53.81399
	19.36707	53.8139
	19.36685	53.81352
	19.36639	53.81318
	19.36426	53.81284
	19.36294	53.81289
	19.36249	53.81296
	19.36117	53.81314
	19.35985	53.81335
	19.35854	53.81338
	19.35715	53.8131
	19.35584	53.8138
	19.3555	53.81421
	19.35406	53.81531
	19.35157	53.81543
	19.3514	53.81552
	19.35135	53.81549
	19.35133	53.81549
	19.3512	53.81543
	19.35098	53.81535
	19.3503	53.81502
	19.34974	53.81426
	19.34961	53.81419
	19.34939	53.81418
	19.34883	53.81412
	19.34803	53.81406
	19.34662	53.81378
	19.34645	53.81373
	19.34401	53.81378
	19.34195	53.81393
	19.34148	53.81397
	19.34115	53.81401
	19.34043	53.81412
	19.34011	53.81418
	19.33859	53.81435
	19.33847	53.81434
	19.3383	53.81435
	19.33791	53.81444
	19.33518	53.8145
	19.32906	53.81431
	19.32309	53.81416
	19.32176	53.81057
	19.31744	53.80828
	19.31651	53.80754
	19.3113	53.80449
	19.31035	53.80234
	19.31274	53.8009
	19.31227	53.80032
	19.31071	53.79758
	19.31018	53.79699
	19.30904	53.79484
	19.31437	53.79416
	19.31488	53.79307
	19.31574	53.79164
	19.3161	53.79086
	19.30992	53.79148
	19.30899	53.78807
	19.30492	53.78855
	19.30484	53.78701
	19.30407	53.78337
	19.30034	53.78257
	19.29884	53.77889
	19.30288	53.77822
	19.30261	53.7773
	19.29973	53.77435
	19.29772	53.77008
	19.29876	53.76815
	19.30323	53.76696
	19.29881	53.76165
	19.3003	53.76121
	19.30058	53.75569
	19.30377	53.75407
	19.2968	53.74726
	19.29127	53.74121
	19.2776	53.73311
	19.26411	53.73035
	19.23589	53.70829
	19.22934	53.70417
	19.22577	53.70556
	19.22202	53.70372
	19.22378	53.7015
	19.21156	53.69145
	19.21704	53.68133
	19.21806	53.68122
	19.22082	53.67361
	19.22307	53.67032
	19.22371	53.6687
	19.22231	53.66793
	19.21796	53.66956
	19.21452	53.6694
	19.21373	53.66969
	19.21379	53.66799
	19.214	53.66793
	19.21398	53.66675
	19.21383	53.66676
	19.21378	53.66371
	19.2139	53.663
	19.21374	53.66293
	19.2131	53.65429
	19.21524	53.64827
	19.21135	53.6504
	19.2113	53.64761
	19.21001	53.64654
	19.21223	53.6435
	19.20634	53.63769
	19.20386	53.63678
	19.20354	53.63652
	19.20275	53.63498
	19.2002	53.63595
	19.20112	53.63805
	19.19861	53.63912
	19.19726	53.63945
	19.19668	53.63986
	19.19331	53.64116
	19.19133	53.64055
	19.18989	53.64034
	19.18445	53.63711
	19.17983	53.63989
	19.17907	53.6403
	19.17745	53.63885
	19.17557	53.63723
	19.17509	53.63671
	19.17501	53.63672
	19.17375	53.63503
	19.17203	53.63324
	19.17212	53.63321
	19.16747	53.62869
	19.16745	53.6287
	19.1628	53.62435
	19.15719	53.62119
	19.15414	53.61944
	19.15264	53.62024
	19.14247	53.61219
	19.13767	53.60963
	19.13041	53.60805
	19.12982	53.60426
	19.1281	53.60234
	19.1303	53.59983
	19.13089	53.59746
	19.13029	53.5887
	19.12975	53.58826
	19.10551	53.59467
	19.1052	53.59469
	19.10183	53.5955
	19.09927	53.59618
	19.0975	53.5965
	19.09704	53.59668
	19.09641	53.59687
	19.09619	53.59691
	19.09479	53.59699
	19.09404	53.59692
	19.09376	53.59696
	19.09357	53.59689
	19.09196	53.59709
	19.08846	53.59718
	19.08785	53.59721
	19.08684	53.59732
	19.08656	53.59768
	19.08614	53.59775
	19.08581	53.59818
	19.08554	53.59826
	19.08523	53.59829
	19.08487	53.59823
	19.08447	53.59799
	19.08407	53.59785
	19.08369	53.59796
	19.08322	53.59796
	19.08279	53.59792
	19.08257	53.59789
	19.08221	53.59765
	19.08135	53.59712
	19.07903	53.59712
	19.07863	53.59715
	19.07766	53.5971
	19.07657	53.59691
	19.07562	53.59688
	19.07522	53.59697
	19.07239	53.59706
	19.07149	53.59679
	19.07017	53.59673
	19.06863	53.59659
	19.04958	53.59641
	19.0409	53.59397
	19.03144	53.5935
	19.02933	53.59322
	19.02835	53.59314
	19.02664	53.59291
	19.02648	53.59286
	19.02633	53.59292
	19.02456	53.59315
	19.02453	53.59248
	19.02482	53.59242
	19.02493	53.59235
	19.02503	53.59221
	19.02508	53.59204
	19.02528	53.59177
	19.02548	53.59175
	19.02569	53.59179
	19.02606	53.5918
	19.02614	53.59179
	19.02623	53.59175
	19.02645	53.59151
	19.0262	53.59139
	19.02615	53.59132
	19.02587	53.59131
	19.02546	53.59097
	19.02513	53.59074
	19.0249	53.59063
	19.02468	53.5906
	19.02445	53.59063
	19.02424	53.59067
	19.02369	53.59089
	19.02355	53.59093
	19.02339	53.59101
	19.02327	53.59112
	19.02306	53.59138
	19.02292	53.59146
	19.02274	53.59151
	19.02255	53.59165
	19.02231	53.59189
	19.02202	53.59199
	19.02225	53.59176
	19.02186	53.59188
	19.0215	53.59182
	19.0209	53.5916
	19.01991	53.59116
	19.01878	53.59093
	19.01843	53.59096
	19.01797	53.59101
	19.01774	53.59108
	19.01755	53.59122
	19.01722	53.59139
	19.01692	53.59151
	19.01621	53.59166
	19.01599	53.59167
	19.0143	53.59213
	19.01166	53.59234
	19.00816	53.59193
	18.9951	53.59512
	18.98915	53.59498
	18.9875	53.58972
	18.9772	53.58712
	18.9736	53.58896
	18.94219	53.58811
	18.92742	53.59143
	18.92479	53.59109
	18.91527	53.57922
	18.91281	53.5791
	18.90729	53.57759
	18.90374	53.57789
	18.90783	53.58584
	18.90845	53.59158
	18.90511	53.59437
	18.89575	53.59563
	18.89099	53.59918
	18.87487	53.59926
	18.85913	53.60176
	18.85789	53.6008
	18.84315	53.60183
	18.84104	53.60338
	18.83005	53.60449
	18.77381	53.60687
	18.76885	53.60574
	18.76535	53.61094
	18.76284	53.61037
	18.76514	53.60616
	18.76027	53.60681
	18.75257	53.61856
	18.7433	53.62873
	18.73937	53.63571
	18.74038	53.64441
	18.74051	53.64647
	18.74221	53.65068
	18.74373	53.65325
	18.74597	53.65552
	18.74789	53.65744
	18.75477	53.66497
	18.77064	53.67711
	18.78198	53.69443
	18.78939	53.70202
	18.78237	53.70401
	18.7817	53.70312
	18.77895	53.70077
	18.77794	53.70112
	18.77794	53.70152
	18.77702	53.70132
	18.77633	53.70079
	18.77522	53.70098
	18.77371	53.70007
	18.7726	53.69969
	18.77119	53.69975
	18.77202	53.70052
	18.77138	53.70093
	18.76952	53.7004
	18.7703	53.70014
	18.77048	53.69979
	18.76957	53.69972
	18.7701	53.69911
	18.76858	53.69905
	18.76864	53.69983
	18.76775	53.69996
	18.76703	53.69946
	18.76552	53.69977
	18.7645	53.69919
	18.76371	53.69931
	18.76296	53.69886
	18.76517	53.69836
	18.76178	53.69625
	18.75874	53.6964
	18.75839	53.69619
	18.75787	53.69629
	18.75657	53.69513
	18.7549	53.69417
	18.75404	53.69411
	18.75262	53.69329
	18.75297	53.69264
	18.75075	53.69259
	18.75057	53.69173
	18.75165	53.69068
	18.75339	53.69062
	18.752	53.68964
	18.75101	53.68801
	18.75016	53.68841
	18.74899	53.68762
	18.74837	53.68765
	18.74705	53.68795
	18.7467	53.68802
	18.74667	53.68812
	18.74656	53.68833
	18.74633	53.68869
	18.74622	53.68893
	18.74599	53.6893
	18.74587	53.68946
	18.74545	53.68982
	18.74552	53.69022
	18.74533	53.69149
	18.74522	53.6917
	18.74484	53.69226
	18.74425	53.69288
	18.7438	53.69327
	18.74348	53.6935
	18.7433	53.6936
	18.74272	53.69383
	18.74238	53.6939
	18.74198	53.69394
	18.74174	53.69394
	18.7415	53.69397
	18.74116	53.69403
	18.74048	53.69423
	18.73837	53.69492
	18.73711	53.69526
	18.73563	53.69569
	18.73494	53.69592
	18.73005	53.69766
	18.72869	53.69815
	18.72751	53.69859
	18.72585	53.69918
	18.72585	53.69919
	18.72499	53.6995
	18.72451	53.69964
	18.7242	53.69971
	18.72391	53.69975
	18.72377	53.69976
	18.72326	53.69979
	18.723	53.69979
	18.7229	53.69991
	18.72229	53.7005
	18.72183	53.70084
	18.72161	53.70096
	18.72115	53.70114
	18.72095	53.70119
	18.7204	53.70125
	18.71835	53.6993
	18.71969	53.69788
	18.71947	53.69766
	18.71977	53.69736
	18.71998	53.69718
	18.7205	53.69661
	18.72096	53.69627
	18.72118	53.69615
	18.72146	53.69602
	18.72164	53.69596
	18.72213	53.69584
	18.72263	53.6958
	18.72314	53.69579
	18.72347	53.69577
	18.72369	53.69571
	18.72614	53.69483
	18.7287	53.69389
	18.73362	53.69214
	18.73441	53.69188
	18.73447	53.69187
	18.736	53.69141
	18.73718	53.6911
	18.73917	53.69045
	18.73411	53.68602
	18.73258	53.68552
	18.73103	53.68443
	18.72705	53.68439
	18.7256	53.68385
	18.72506	53.68394
	18.72535	53.68547
	18.72217	53.68659
	18.71902	53.68855
	18.71133	53.68614
	18.69681	53.69211
	18.69678	53.69962
	18.68856	53.69878
	18.67433	53.69362
	18.66335	53.69819
	18.65194	53.69679
	18.65288	53.69507
	18.63564	53.68216
	18.63474	53.67838
	18.62313	53.67663
	18.6038	53.67155
	18.59659	53.67449
	18.58504	53.67468
	18.57366	53.67943
	18.56373	53.67373
	18.57463	53.67164
	18.58088	53.66727
	18.57687	53.65873
	18.54867	53.65566
	18.53712	53.66784
	18.5299	53.6686
	18.52718	53.67591
	18.52526	53.6799
	18.51049	53.68114
	18.51116	53.69012
	18.51887	53.693
	18.51198	53.70272
	18.49314	53.69965
	18.48781	53.70361
	18.48033	53.7032
	18.47194	53.70428
	18.46775	53.69931
	18.46684	53.69227
	18.46242	53.68804
	18.45336	53.68737
	18.45188	53.69428
	18.42651	53.69089
	18.40153	53.68994
	18.38023	53.68818
	18.36445	53.68925
	18.36135	53.68791
	18.35299	53.68809
	18.3332	53.69367
	18.26192	53.70098
	18.25242	53.71089
	18.27494	53.71783
	18.27071	53.73236
	18.26739	53.73869
	18.26532	53.74083
	18.26772	53.7413
	18.2674	53.74225
	18.25971	53.74249
	18.25754	53.74391
	18.25827	53.74514
	18.25586	53.74623
	18.25306	53.74547
	18.25204	53.74407
	18.21993	53.74096
	18.21658	53.75138
	18.19833	53.7401
	18.20169	53.75572
	18.18533	53.75448
	18.18135	53.74217
	18.15512	53.75312
	18.15206	53.76828
	18.14843	53.76757
	18.14441	53.76821
	18.13815	53.76758
	18.13062	53.76942
	18.12556	53.76425
	18.11762	53.76283
	18.11679	53.75936
	18.11079	53.75819
	18.10749	53.7613
	18.11041	53.76705
	18.09942	53.76755
	18.09904	53.76952
	18.08333	53.77775
	18.07202	53.78106
	18.07188	53.77964
	18.07197	53.77788
	18.07181	53.77685
	18.0716	53.77582
	18.07151	53.77519
	18.07143	53.77513
	18.07141	53.77507
	18.07091	53.77413
	18.07038	53.77317
	18.07001	53.77263
	18.06954	53.77203
	18.0686	53.77095
	18.06662	53.76854
	18.06592	53.7676
	18.06287	53.7653
	18.0603	53.76334
	18.05946	53.76248
	18.05825	53.76116
	18.0577	53.76051
	18.05769	53.7604
	18.0572	53.75886
	18.05696	53.75786
	18.05704	53.75764
	18.05686	53.75686
	18.05644	53.75616
	18.05611	53.75556
	18.05551	53.75436
	18.05397	53.75076
	18.05313	53.74884
	18.05284	53.74833
	18.05235	53.74724
	18.05123	53.74437
	18.0499	53.74122
	18.04895	53.74108
	18.04831	53.74105
	18.04739	53.7411
	18.04637	53.74103
	18.04534	53.74094
	18.04462	53.74094
	18.04399	53.7409
	18.04315	53.74063
	18.04244	53.7402
	18.04156	53.73976
	18.04146	53.7384
	18.04169	53.73822
	18.04192	53.7378
	18.04211	53.73768
	18.04215	53.73753
	18.04236	53.73729
	18.04249	53.73725
	18.04264	53.73708
	18.04297	53.73699
	18.04326	53.73694
	18.04365	53.73701
	18.04415	53.73702
	18.04463	53.73718
	18.04476	53.73724
	18.04534	53.73762
	18.04536	53.7377
	18.04546	53.73772
	18.04565	53.73768
	18.0459	53.73742
	18.04607	53.73699
	18.04638	53.7366
	18.04677	53.73617
	18.04507	53.73452
	18.04407	53.73292
	18.04348	53.73257
	18.04221	53.73216
	18.04018	53.73044
	18.039	53.7297
	18.03804	53.72901
	18.03686	53.72801
	18.03553	53.72691
	18.03415	53.72611
	18.03198	53.72496
	18.03037	53.72641
	18.02777	53.72902
	18.02522	53.72819
	18.02209	53.72725
	18.01879	53.72615
	18.01619	53.72527
	18.01488	53.72419
	18.01439	53.72424
	18.01013	53.72439
	18.00923	53.72398
	18.00736	53.72404
	18.00657	53.72409
	18.00469	53.7241
	18.00359	53.7239
	18.00313	53.72443
	17.99939	53.72563
	17.99885	53.72555
	17.99688	53.72515
	17.99549	53.72488
	17.99458	53.72474
	17.9933	53.72478
	17.9922	53.72455
	17.99125	53.72449
	17.98874	53.72651
	17.98722	53.7278
	17.98608	53.72864
	17.98557	53.72949
	17.98619	53.73048
	17.98636	53.73147
	17.98268	53.73276
	17.98129	53.73345
	17.97756	53.73523
	17.97556	53.73606
	17.97336	53.73689
	17.96944	53.73818
	17.96797	53.73846
	17.96683	53.73869
	17.9667	53.7387
	17.96652	53.73875
	17.96484	53.7391
	17.96438	53.73921
	17.96159	53.73918
	17.96137	53.73926
	17.95742	53.73866
	17.95363	53.73811
	17.95235	53.74117
	17.9513	53.7436
	17.95037	53.74589
	17.94998	53.74583
	17.94969	53.74597
	17.94919	53.7457
	17.94825	53.74616
	17.94887	53.74661
	17.9489	53.74666
	17.94879	53.74685
	17.9488	53.74719
	17.94873	53.74731
	17.94887	53.74748
	17.94909	53.74753
	17.94911	53.74756
	17.94911	53.74775
	17.94908	53.74779
	17.94881	53.74787
	17.94864	53.74797
	17.9484	53.74822
	17.94836	53.74841
	17.94849	53.74863
	17.94823	53.74877
	17.94779	53.74873
	17.94701	53.74853
	17.94753	53.74837
	17.94749	53.74797
	17.94791	53.74766
	17.94805	53.74751
	17.9472	53.74711
	17.94557	53.74685
	17.94482	53.74677
	17.94426	53.7469
	17.94365	53.74679
	17.94204	53.74736
	17.93937	53.74481
	17.9381	53.74392
	17.93519	53.74345
	17.93369	53.74414
	17.93302	53.74467
	17.93261	53.74486
	17.93263	53.74517
	17.93273	53.74582
	17.93262	53.74668
	17.93257	53.74754
	17.93186	53.74929
	17.93173	53.74929
	17.92867	53.74993
	17.92813	53.75008
	17.92581	53.75007
	17.92265	53.7497
	17.9203	53.74895
	17.91852	53.7484
	17.91528	53.74804
	17.91305	53.74808
	17.90975	53.74825
	17.9074	53.74814
	17.90674	53.74755
	17.90478	53.74792
	17.90092	53.74793
	17.89886	53.74878
	17.89663	53.75005
	17.89424	53.75126
	17.89257	53.75218
	17.89081	53.75267
	17.88902	53.75328
	17.88826	53.75352
	17.88714	53.75402
	17.88483	53.75485
	17.88228	53.75572
	17.87972	53.75653
	17.87746	53.75712
	17.87686	53.75735
	17.87592	53.75767
	17.8686	53.75965
	17.86385	53.75824
	17.86356	53.75818
	17.86196	53.75662
	17.86093	53.75564
	17.86004	53.75493
	17.86695	53.74555
	17.87103	53.74654
	17.87133	53.74655
	17.8739	53.74612
	17.87604	53.74596
	17.8837	53.7349
	17.88611	53.73464
	17.88824	53.72986
	17.88844	53.72964
	17.88925	53.72802
	17.88936	53.72768
	17.89123	53.72757
	17.89306	53.72748
	17.89327	53.72742
	17.89347	53.72738
	17.89506	53.72681
	17.89591	53.72619
	17.89692	53.72559
	17.89715	53.7254
	17.89847	53.72472
	17.89966	53.72417
	17.90071	53.72363
	17.90132	53.7234
	17.90216	53.72301
	17.90265	53.72277
	17.90361	53.72219
	17.90376	53.72208
	17.90407	53.72194
	17.90413	53.72185
	17.90322	53.72167
	17.90296	53.72135
	17.90288	53.72122
	17.9028	53.72124
	17.90262	53.72104
	17.90257	53.72105
	17.90211	53.72042
	17.90179	53.72014
	17.90159	53.72005
	17.90123	53.72007
	17.901	53.72015
	17.90089	53.72016
	17.90029	53.72001
	17.90015	53.71999
	17.90004	53.72002
	17.89992	53.72008
	17.89976	53.72021
	17.89961	53.72031
	17.89946	53.72039
	17.89936	53.72042
	17.8992	53.72039
	17.89862	53.72002
	17.89839	53.71979
	17.89823	53.71953
	17.89809	53.71926
	17.89783	53.71906
	17.89768	53.71904
	17.89731	53.71894
	17.89703	53.71877
	17.89678	53.71851
	17.89636	53.71837
	17.89602	53.71831
	17.89532	53.71829
	17.89515	53.71821
	17.89495	53.71818
	17.89423	53.71813
	17.894	53.71809
	17.89394	53.71809
	17.89374	53.71804
	17.89273	53.71753
	17.89248	53.71733
	17.89244	53.71726
	17.89237	53.71704
	17.89236	53.71689
	17.89238	53.71679
	17.89247	53.71649
	17.89283	53.71558
	17.89299	53.71544
	17.89395	53.71486
	17.89512	53.71288
	17.89519	53.71281
	17.89522	53.71272
	17.89593	53.71159
	17.89601	53.71151
	17.89622	53.71139
	17.89641	53.71135
	17.89666	53.71132
	17.89685	53.71133
	17.89724	53.71138
	17.89753	53.71153
	17.89788	53.7116
	17.8981	53.71161
	17.89834	53.71156
	17.89861	53.71141
	17.89849	53.71122
	17.8985	53.71106
	17.89868	53.71089
	17.89853	53.71057
	17.8981	53.71056
	17.89762	53.71062
	17.89741	53.71053
	17.89725	53.71026
	17.89711	53.71012
	17.89691	53.70995
	17.89674	53.70993
	17.89661	53.7099
	17.89638	53.70989
	17.89619	53.70991
	17.89605	53.70987
	17.89612	53.7097
	17.8961	53.70959
	17.89547	53.70937
	17.8953	53.70937
	17.89516	53.70886
	17.894	53.7086
	17.89356	53.70825
	17.89322	53.70817
	17.89311	53.70813
	17.89283	53.70808
	17.89233	53.70802
	17.89161	53.70761
	17.89106	53.70757
	17.89099	53.70752
	17.89052	53.70746
	17.89044	53.70746
	17.88999	53.70737
	17.88912	53.70739
	17.88875	53.70735
	17.88862	53.70732
	17.88831	53.70718
	17.88811	53.70723
	17.88766	53.70706
	17.88709	53.70717
	17.88703	53.70716
	17.88683	53.70722
	17.88605	53.70701
	17.88582	53.70687
	17.88557	53.70685
	17.88524	53.7068
	17.88486	53.70684
	17.88453	53.70677
	17.88428	53.70663
	17.88366	53.70647
	17.88287	53.70642
	17.8822	53.7063
	17.88167	53.70625
	17.88133	53.70633
	17.88112	53.70643
	17.88096	53.70652
	17.8805	53.70693
	17.87989	53.70661
	17.8797	53.70669
	17.87984	53.70686
	17.87949	53.70713
	17.87929	53.70709
	17.87911	53.70722
	17.87884	53.70734
	17.87875	53.70729
	17.87863	53.7073
	17.87855	53.70735
	17.87832	53.70743
	17.87663	53.70504
	17.87522	53.70248
	17.87334	53.70025
	17.87078	53.69804
	17.86383	53.6929
	17.86183	53.69177
	17.85915	53.69076
	17.85771	53.69025
	17.85659	53.68978
	17.85567	53.68934
	17.85463	53.68887
	17.85372	53.68851
	17.85217	53.68793
	17.85182	53.68782
	17.85181	53.68792
	17.85187	53.6882
	17.85182	53.68828
	17.85167	53.68832
	17.85151	53.6883
	17.85131	53.68822
	17.85111	53.68811
	17.85089	53.68802
	17.85065	53.68796
	17.85046	53.68793
	17.85028	53.68794
	17.85011	53.688
	17.84988	53.68811
	17.84931	53.68844
	17.84883	53.68876
	17.84841	53.68909
	17.84777	53.68985
	17.84774	53.68995
	17.84773	53.69009
	17.84775	53.6903
	17.84782	53.69051
	17.84795	53.69077
	17.84796	53.69086
	17.84783	53.69091
	17.84766	53.69095
	17.84726	53.69092
	17.84703	53.69088
	17.84648	53.6907
	17.84566	53.69045
	17.84543	53.69042
	17.845	53.69039
	17.84381	53.69041
	17.84361	53.69045
	17.84326	53.69065
	17.84302	53.69073
	17.84267	53.6908
	17.84247	53.69078
	17.8421	53.69067
	17.84187	53.69062
	17.84161	53.69058
	17.84057	53.69052
	17.83984	53.69038
	17.83955	53.69034
	17.83935	53.69034
	17.83906	53.69036
	17.83874	53.69041
	17.83833	53.69051
	17.83794	53.69056
	17.83772	53.69057
	17.8373	53.69063
	17.83692	53.69072
	17.8366	53.69078
	17.83642	53.69084
	17.83608	53.69101
	17.83593	53.69112
	17.83571	53.69132
	17.83545	53.69153
	17.8353	53.69163
	17.83515	53.69186
	17.83503	53.69196
	17.83464	53.69214
	17.83445	53.69221
	17.83423	53.69226
	17.83401	53.6923
	17.83369	53.69234
	17.83324	53.69236
	17.83273	53.69229
	17.82855	53.69185
	17.82598	53.69174
	17.82416	53.6917
	17.82323	53.68903
	17.82119	53.68772
	17.81946	53.68695
	17.82019	53.68624
	17.81819	53.68518
	17.81754	53.68488
	17.817	53.68522
	17.81225	53.68218
	17.80722	53.67904
	17.80715	53.67926
	17.80675	53.67965
	17.80655	53.67995
	17.80634	53.68008
	17.80616	53.68012
	17.80585	53.68014
	17.80543	53.68015
	17.80518	53.68008
	17.80483	53.68004
	17.80407	53.68002
	17.80369	53.68
	17.80301	53.67991
	17.8027	53.67989
	17.80232	53.67983
	17.80198	53.67981
	17.80137	53.6798
	17.80097	53.67973
	17.80079	53.67971
	17.80032	53.67968
	17.80013	53.67963
	17.79984	53.6795
	17.7995	53.67931
	17.79933	53.67928
	17.79929	53.67925
	17.79923	53.67912
	17.79897	53.67906
	17.79864	53.67894
	17.79813	53.67882
	17.77219	53.69991
	17.77191	53.69983
	17.77176	53.69973
	17.77161	53.69956
	17.77144	53.69941
	17.77138	53.69928
	17.77131	53.69919
	17.77124	53.69903
	17.77114	53.69895
	17.77097	53.69878
	17.77083	53.69858
	17.77074	53.6985
	17.77005	53.69813
	17.76967	53.69784
	17.76944	53.69764
	17.76906	53.69723
	17.76889	53.69709
	17.76865	53.69698
	17.76858	53.69692
	17.76849	53.69683
	17.76834	53.69664
	17.76806	53.69649
	17.7674	53.69623
	17.76711	53.69614
	17.76696	53.69612
	17.7668	53.69608
	17.76669	53.69604
	17.76653	53.69591
	17.76609	53.69568
	17.76562	53.69556
	17.76526	53.69546
	17.76508	53.6954
	17.76459	53.69518
	17.76409	53.69484
	17.76388	53.69475
	17.76377	53.69474
	17.76368	53.69476
	17.76345	53.69487
	17.76333	53.69491
	17.76323	53.69491
	17.76316	53.69487
	17.76313	53.69477
	17.76313	53.69457
	17.76307	53.69431
	17.76308	53.69407
	17.76311	53.69402
	17.76319	53.6937
	17.76321	53.69355
	17.76344	53.6929
	17.76352	53.69279
	17.76378	53.69261
	17.76399	53.69241
	17.76411	53.69227
	17.76419	53.6922
	17.76433	53.69201
	17.7643	53.69184
	17.76422	53.69174
	17.76402	53.69156
	17.76389	53.69149
	17.76342	53.69128
	17.76308	53.69116
	17.76293	53.69112
	17.76276	53.69109
	17.76229	53.69103
	17.76218	53.69098
	17.76208	53.69091
	17.76208	53.69083
	17.76213	53.69061
	17.76218	53.69052
	17.76233	53.69035
	17.76255	53.69
	17.7626	53.6897
	17.76266	53.68962
	17.76284	53.68951
	17.76299	53.68948
	17.76327	53.68951
	17.76336	53.68954
	17.76377	53.6898
	17.76409	53.69003
	17.76425	53.69012
	17.76456	53.69019
	17.76473	53.69019
	17.76489	53.69021
	17.76535	53.69013
	17.76549	53.69012
	17.76573	53.69
	17.76588	53.68995
	17.76597	53.68989
	17.76608	53.68986
	17.76625	53.68975
	17.76635	53.6897
	17.76641	53.68964
	17.76644	53.68957
	17.76653	53.68952
	17.76662	53.68944
	17.76671	53.68926
	17.76679	53.68919
	17.76687	53.689
	17.76685	53.68893
	17.76672	53.68874
	17.76671	53.68863
	17.76666	53.68855
	17.76666	53.68847
	17.76648	53.6883
	17.76643	53.68819
	17.76619	53.68784
	17.76604	53.68773
	17.76583	53.68765
	17.7653	53.68723
	17.76475	53.68695
	17.7644	53.68674
	17.76419	53.6862
	17.7642	53.68584
	17.76424	53.68568
	17.76414	53.68497
	17.76418	53.68441
	17.76409	53.68417
	17.76392	53.68386
	17.76396	53.68379
	17.76394	53.68369
	17.76379	53.68365
	17.7634	53.68349
	17.76326	53.68347
	17.76312	53.6835
	17.76303	53.68353
	17.7629	53.68362
	17.76279	53.68372
	17.76206	53.68396
	17.76181	53.68414
	17.76181	53.68425
	17.76171	53.68451
	17.76166	53.68485
	17.76158	53.68495
	17.76149	53.68501
	17.76139	53.68506
	17.76122	53.68509
	17.76107	53.68507
	17.76094	53.68501
	17.76088	53.68493
	17.76087	53.68483
	17.76107	53.68446
	17.76105	53.68423
	17.76083	53.68399
	17.76056	53.6839
	17.76012	53.68388
	17.75957	53.68407
	17.75936	53.68419
	17.75919	53.68443
	17.75911	53.68465
	17.7591	53.68475
	17.75928	53.6851
	17.75948	53.68534
	17.7597	53.68551
	17.75979	53.68584
	17.75977	53.68598
	17.75978	53.68608
	17.75982	53.68621
	17.7598	53.68628
	17.75972	53.68637
	17.75964	53.68641
	17.75945	53.68648
	17.75892	53.68662
	17.75865	53.68664
	17.75847	53.68656
	17.75841	53.6865
	17.75848	53.68636
	17.75849	53.68616
	17.75835	53.68602
	17.75796	53.68573
	17.75785	53.68563
	17.75778	53.68551
	17.75777	53.68535
	17.75784	53.6852
	17.7579	53.68512
	17.75809	53.68497
	17.75816	53.68489
	17.75819	53.68483
	17.75847	53.68457
	17.7585	53.68451
	17.75848	53.68429
	17.7584	53.6842
	17.75839	53.68412
	17.75827	53.68382
	17.75827	53.68373
	17.75804	53.68339
	17.75821	53.68319
	17.75818	53.68313
	17.75807	53.68303
	17.75798	53.6829
	17.75797	53.68282
	17.75782	53.68258
	17.75775	53.68232
	17.75735	53.68216
	17.75717	53.68205
	17.75701	53.68191
	17.75676	53.68184
	17.7564	53.6818
	17.75624	53.68174
	17.75631	53.68148
	17.75627	53.68144
	17.75584	53.68147
	17.75569	53.68132
	17.75541	53.68123
	17.7553	53.68115
	17.75527	53.681
	17.75504	53.68082
	17.755	53.68065
	17.75492	53.68061
	17.75464	53.6806
	17.7544	53.68046
	17.75432	53.68034
	17.75444	53.68015
	17.75421	53.68004
	17.75412	53.67974
	17.75394	53.67963
	17.75397	53.67949
	17.75395	53.67945
	17.75389	53.67939
	17.75368	53.67947
	17.75343	53.67946
	17.75308	53.67943
	17.75285	53.67932
	17.75261	53.67931
	17.75237	53.67926
	17.75242	53.67895
	17.75238	53.67891
	17.75234	53.67894
	17.75234	53.67904
	17.75221	53.67909
	17.75179	53.67896
	17.75149	53.67898
	17.75097	53.67912
	17.75026	53.67946
	17.75001	53.6797
	17.74913	53.68017
	17.74843	53.6809
	17.74735	53.68117
	17.74671	53.68113
	17.74626	53.68056
	17.7458	53.6803
	17.74377	53.67937
	17.74065	53.67796
	17.74018	53.67403
	17.74195	53.6726
	17.74409	53.67156
	17.74419	53.66989
	17.74356	53.66835
	17.7385	53.66565
	17.73748	53.66446
	17.73693	53.66437
	17.73686	53.66433
	17.73668	53.66413
	17.7366	53.66409
	17.7365	53.66398
	17.7361	53.66387
	17.73596	53.66381
	17.73584	53.66374
	17.73576	53.66377
	17.73562	53.66377
	17.73545	53.66373
	17.73528	53.66366
	17.73525	53.66363
	17.73516	53.6634
	17.73513	53.66336
	17.7346	53.6632
	17.73426	53.66329
	17.73418	53.66329
	17.7338	53.66305
	17.73369	53.66299
	17.73357	53.66295
	17.73352	53.66291
	17.73373	53.66279
	17.73367	53.66276
	17.73367	53.66272
	17.73381	53.66262
	17.73382	53.66256
	17.73367	53.66245
	17.73372	53.66242
	17.73397	53.66239
	17.73409	53.66229
	17.73405	53.66222
	17.73388	53.66214
	17.73373	53.66204
	17.73367	53.6617
	17.7337	53.66162
	17.73393	53.6614
	17.73401	53.66128
	17.73423	53.66111
	17.73708	53.65841
	17.73741	53.65789
	17.73742	53.65782
	17.73737	53.65767
	17.73745	53.65757
	17.73766	53.65749
	17.73767	53.65731
	17.73765	53.65719
	17.73769	53.65713
	17.7378	53.65706
	17.73782	53.65702
	17.7379	53.65664
	17.73821	53.65631
	17.73835	53.65608
	17.73799	53.65584
	17.7377	53.65573
	17.73772	53.65565
	17.73765	53.65557
	17.73735	53.6554
	17.73704	53.65518
	17.73685	53.6551
	17.73674	53.65509
	17.73653	53.65512
	17.73652	53.65508
	17.73657	53.65498
	17.73648	53.65486
	17.73642	53.6549
	17.73635	53.65481
	17.73628	53.65478
	17.73593	53.65491
	17.73553	53.65514
	17.73487	53.65529
	17.73429	53.6553
	17.73405	53.65528
	17.73333	53.65507
	17.73293	53.65393
	17.73276	53.65375
	17.7324	53.65306
	17.73189	53.65046
	17.73155	53.64943
	17.73166	53.64899
	17.73221	53.64868
	17.73233	53.6482
	17.73236	53.64814
	17.73293	53.64799
	17.73274	53.64788
	17.73219	53.6476
	17.73058	53.64702
	17.72831	53.64597
	17.72817	53.64588
	17.72731	53.64524
	17.72723	53.64506
	17.72732	53.64427
	17.72734	53.6437
	17.72707	53.64376
	17.72606	53.64358
	17.72525	53.64349
	17.72457	53.64331
	17.72422	53.64315
	17.72378	53.643
	17.72346	53.64263
	17.72299	53.64214
	17.7229	53.64176
	17.72318	53.64116
	17.72319	53.64099
	17.72364	53.64066
	17.72366	53.64051
	17.72336	53.64031
	17.7233	53.64025
	17.72307	53.64016
	17.72262	53.64012
	17.72232	53.64015
	17.72152	53.6401
	17.72111	53.64005
	17.7202	53.63978
	17.71954	53.63928
	17.71974	53.63915
	17.71944	53.6389
	17.71897	53.63913
	17.71836	53.63888
	17.7177	53.63859
	17.71615	53.63831
	17.71482	53.63819
	17.71414	53.63822
	17.71339	53.63775
	17.71243	53.63682
	17.71216	53.63654
	17.71197	53.63623
	17.71193	53.63582
	17.7119	53.63566
	17.71196	53.63536
	17.71209	53.63506
	17.71213	53.63479
	17.71216	53.63477
	17.71191	53.6346
	17.71187	53.6345
	17.7119	53.63411
	17.71209	53.63284
	17.71216	53.63215
	17.71218	53.63179
	17.71212	53.63157
	17.71209	53.63126
	17.71186	53.63008
	17.71176	53.62966
	17.71173	53.62959
	17.71172	53.62949
	17.71182	53.62934
	17.71201	53.62924
	17.71236	53.62901
	17.71264	53.62874
	17.71289	53.62856
	17.71305	53.62847
	17.7133	53.62835
	17.71359	53.62827
	17.7138	53.6282
	17.71395	53.6281
	17.71427	53.62781
	17.71435	53.62768
	17.71461	53.62735
	17.71472	53.62708
	17.7148	53.62672
	17.71492	53.62628
	17.71495	53.62623
	17.71502	53.62592
	17.7151	53.62544
	17.71531	53.62529
	17.71646	53.62475
	17.71798	53.62425
	17.71867	53.624
	17.71934	53.62374
	17.7182	53.62349
	17.71721	53.623
	17.71687	53.62279
	17.71518	53.62168
	17.71473	53.62129
	17.71471	53.62125
	17.71482	53.62046
	17.71493	53.62011
	17.71502	53.61989
	17.7152	53.61964
	17.71575	53.61896
	17.71635	53.6186
	17.71675	53.61847
	17.71682	53.61834
	17.71704	53.61781
	17.71811	53.61738
	17.71903	53.61679
	17.71929	53.61703
	17.71961	53.61703
	17.7195	53.6165
	17.71899	53.61512
	17.71865	53.61407
	17.7184	53.61361
	17.71799	53.61338
	17.71625	53.61278
	17.71548	53.61218
	17.71522	53.61208
	17.71511	53.61191
	17.71471	53.61163
	17.71433	53.61155
	17.71333	53.6112
	17.71284	53.61095
	17.71179	53.6108
	17.71151	53.61068
	17.7113	53.61052
	17.71116	53.6102
	17.71096	53.60903
	17.71317	53.60913
	17.71407	53.60919
	17.72349	53.60965
	17.72616	53.60974
	17.72648	53.61015
	17.72651	53.61023
	17.72664	53.61043
	17.72731	53.61215
	17.72799	53.61247
	17.72804	53.61251
	17.72827	53.61264
	17.7285	53.61283
	17.72866	53.61312
	17.72882	53.61365
	17.73054	53.61397
	17.73357	53.61451
	17.73368	53.61435
	17.73433	53.61401
	17.73468	53.61397
	17.73506	53.61373
	17.73484	53.60628
	17.73472	53.60463
	17.73487	53.60346
	17.735	53.60325
	17.73498	53.60321
	17.73569	53.60126
	17.73554	53.60104
	17.73473	53.60066
	17.73465	53.60054
	17.73398	53.60044
	17.7338	53.6002
	17.7338	53.59966
	17.73291	53.59989
	17.73267	53.59998
	17.73186	53.60049
	17.7311	53.59921
	17.72999	53.59727
	17.73043	53.59475
	17.73051	53.59332
	17.73041	53.59333
	17.73048	53.59287
	17.72954	53.59304
	17.72531	53.59369
	17.72419	53.59388
	17.72003	53.59426
	17.71558	53.5946
	17.71443	53.59464
	17.71258	53.59481
	17.70985	53.5947
	17.70731	53.59463
	17.70698	53.59458
	17.70679	53.59459
	17.70651	53.59463
	17.70619	53.59469
	17.70565	53.59481
	17.70545	53.59487
	17.70504	53.59505
	17.70489	53.59517
	17.70473	53.59523
	17.70456	53.59518
	17.70448	53.59506
	17.7042	53.59441
	17.70318	53.59342
	17.70263	53.59291
	17.70064	53.59171
	17.69926	53.59241
	17.69877	53.59262
	17.69672	53.59354
	17.69533	53.59408
	17.69278	53.59493
	17.69046	53.59457
	17.69024	53.59447
	17.68988	53.59418
	17.68978	53.59408
	17.68841	53.59301
	17.6872	53.59274
	17.68665	53.59281
	17.68585	53.59297
	17.68447	53.59337
	17.68427	53.59349
	17.68338	53.5941
	17.68181	53.59451
	17.68046	53.5952
	17.6803	53.59526
	17.67829	53.59695
	17.67657	53.59757
	17.67603	53.59823
	17.67539	53.59924
	17.67468	53.59984
	17.67291	53.60041
	17.6715	53.6008
	17.67035	53.60118
	17.66863	53.60184
	17.66817	53.60141
	17.66799	53.60072
	17.66617	53.59973
	17.66463	53.59882
	17.66234	53.59753
	17.66157	53.59708
	17.66066	53.59652
	17.65909	53.59559
	17.65864	53.59503
	17.65722	53.59416
	17.65697	53.59396
	17.65641	53.59291
	17.65584	53.59219
	17.65504	53.58935
	17.65508	53.5887
	17.65527	53.58818
	17.65555	53.5878
	17.65758	53.58755
	17.65718	53.58637
	17.65822	53.58587
	17.65906	53.58578
	17.6597	53.5857
	17.66121	53.58556
	17.66298	53.58535
	17.66351	53.58531
	17.66477	53.58523
	17.66866	53.58515
	17.67135	53.58504
	17.67253	53.58493
	17.67427	53.58358
	17.67438	53.58058
	17.67416	53.57874
	17.67389	53.57803
	17.67402	53.57785
	17.67438	53.57706
	17.67439	53.57694
	17.67454	53.57657
	17.67498	53.57569
	17.67507	53.57519
	17.67514	53.57435
	17.67518	53.57405
	17.67503	53.57342
	17.67499	53.5729
	17.67492	53.57234
	17.6749	53.57201
	17.67403	53.57191
	17.67379	53.57186
	17.67355	53.57177
	17.67331	53.57162
	17.67307	53.57143
	17.67279	53.57101
	17.67246	53.57061
	17.67201	53.5702
	17.65675	53.57116
	17.65237	53.57907
	17.65126	53.58099
	17.65074	53.58164
	17.64931	53.58211
	17.64876	53.58228
	17.64484	53.58335
	17.64311	53.58369
	17.64106	53.58402
	17.63921	53.58443
	17.63745	53.58488
	17.63569	53.58537
	17.63347	53.58591
	17.63279	53.58607
	17.63164	53.58626
	17.63103	53.58643
	17.63036	53.58664
	17.62927	53.58708
	17.62674	53.58779
	17.62473	53.58868
	17.6233	53.58922
	17.61914	53.59087
	17.61226	53.59351
	17.60815	53.59516
	17.60613	53.59599
	17.60434	53.59688
	17.60204	53.59533
	17.60185	53.59528
	17.6006	53.59457
	17.59823	53.59311
	17.59735	53.59271
	17.59654	53.59237
	17.59295	53.58977
	17.5911	53.58836
	17.58907	53.58691
	17.58649	53.58511
	17.58576	53.58464
	17.58461	53.58369
	17.58432	53.58352
	17.58406	53.5832
	17.58374	53.5827
	17.58286	53.58202
	17.58214	53.58122
	17.58141	53.58055
	17.57931	53.57848
	17.57705	53.57834
	17.57474	53.57825
	17.57044	53.57812
	17.56533	53.57802
	17.56419	53.57808
	17.56312	53.57817
	17.56188	53.57832
	17.56083	53.57847
	17.55819	53.57898
	17.55671	53.57919
	17.55522	53.57937
	17.55382	53.57946
	17.55361	53.57946
	17.55155	53.57939
	17.55087	53.57939
	17.54952	53.57937
	17.54792	53.57952
	17.54739	53.57956
	17.5466	53.57974
	17.54619	53.57979
	17.54504	53.58001
	17.54408	53.58027
	17.54248	53.5817
	17.54185	53.58231
	17.54112	53.58306
	17.54036	53.5838
	17.53968	53.58452
	17.53927	53.58485
	17.5385	53.58563
	17.5379	53.58633
	17.53744	53.58699
	17.5371	53.58736
	17.53649	53.58785
	17.53607	53.58815
	17.53189	53.59062
	17.53074	53.59161
	17.52965	53.59257
	17.52925	53.59297
	17.52887	53.5935
	17.52817	53.5949
	17.5277	53.59658
	17.52705	53.59834
	17.52691	53.5988
	17.52648	53.60006
	17.52539	53.60355
	17.52469	53.60472
	17.52394	53.60554
	17.52302	53.60625
	17.52123	53.60714
	17.51801	53.60871
	17.51667	53.60971
	17.5137	53.61185
	17.51283	53.61176
	17.51211	53.61221
	17.51155	53.61251
	17.51021	53.61318
	17.5102	53.61324
	17.51024	53.61332
	17.51052	53.61346
	17.5106	53.61353
	17.51065	53.61363
	17.51079	53.61371
	17.51082	53.61382
	17.51098	53.61393
	17.51114	53.614
	17.51165	53.61443
	17.51208	53.61459
	17.51222	53.61469
	17.51233	53.61474
	17.51256	53.61482
	17.51268	53.61488
	17.51269	53.61494
	17.51358	53.61542
	17.51383	53.61547
	17.51481	53.6159
	17.515	53.61604
	17.51519	53.61616
	17.51531	53.61642
	17.51523	53.61655
	17.5151	53.61668
	17.51516	53.6168
	17.5154	53.61712
	17.51505	53.61751
	17.51459	53.61775
	17.51415	53.61779
	17.51345	53.61777
	17.513	53.61761
	17.51269	53.61745
	17.5123	53.6174
	17.51128	53.6173
	17.51089	53.61728
	17.5089	53.61726
	17.50863	53.61716
	17.5078	53.61637
	17.50734	53.61614
	17.50703	53.61595
	17.50667	53.61568
	17.50645	53.61549
	17.5064	53.61541
	17.50636	53.6152
	17.50617	53.61503
	17.50617	53.6148
	17.50615	53.61458
	17.50605	53.61428
	17.50583	53.61418
	17.50544	53.61389
	17.50525	53.61369
	17.50521	53.61355
	17.50463	53.61321
	17.50428	53.61298
	17.50339	53.61255
	17.50295	53.61245
	17.50214	53.61194
	17.5016	53.61146
	17.50109	53.61083
	17.50048	53.6103
	17.49984	53.60954
	17.49968	53.60948
	17.49948	53.6093
	17.49935	53.60907
	17.4993	53.60864
	17.49934	53.60847
	17.49971	53.60797
	17.49973	53.60766
	17.49868	53.60771
	17.49741	53.6074
	17.4966	53.60746
	17.49541	53.60716
	17.4952	53.60707
	17.49386	53.6067
	17.49279	53.60633
	17.49144	53.60606
	17.49068	53.60575
	17.49048	53.60529
	17.49036	53.60515
	17.48961	53.60516
	17.4892	53.6052
	17.48889	53.6052
	17.48854	53.60512
	17.48814	53.60509
	17.48791	53.60514
	17.48716	53.605
	17.48686	53.6049
	17.48516	53.60398
	17.4848	53.60395
	17.48482	53.60389
	17.48358	53.60388
	17.48184	53.60283
	17.48103	53.60202
	17.47994	53.60182
	17.47964	53.6018
	17.47931	53.60184
	17.47816	53.60223
	17.47556	53.60257
	17.47501	53.60307
	17.47448	53.60308
	17.47342	53.6027
	17.47194	53.60228
	17.4699	53.60216
	17.46845	53.60241
	17.46827	53.60236
	17.46705	53.60137
	17.4671	53.60137
	17.46662	53.60098
	17.46652	53.60142
	17.4661	53.60159
	17.46572	53.60181
	17.46495	53.60194
	17.46443	53.60196
	17.46389	53.60206
	17.46294	53.60181
	17.46246	53.60156
	17.46198	53.60129
	17.46155	53.60112
	17.46068	53.60087
	17.46014	53.60074
	17.45983	53.60055
	17.45942	53.6004
	17.45916	53.60027
	17.4582	53.59992
	17.45663	53.59982
	17.45575	53.5998
	17.45469	53.60014
	17.45365	53.60068
	17.45305	53.60113
	17.45249	53.60159
	17.45151	53.602
	17.4509	53.60215
	17.45007	53.60219
	17.44882	53.60204
	17.4482	53.6018
	17.44717	53.60143
	17.44652	53.60124
	17.44589	53.60086
	17.44526	53.60001
	17.44516	53.59966
	17.44442	53.59933
	17.4436	53.59931
	17.44328	53.59895
	17.44256	53.59872
	17.44224	53.59872
	17.44165	53.5987
	17.44133	53.59865
	17.44039	53.59765
	17.44013	53.59681
	17.44018	53.59606
	17.43907	53.59474
	17.4389	53.59457
	17.43816	53.59445
	17.43776	53.59426
	17.43742	53.59385
	17.43642	53.59364
	17.43574	53.59316
	17.4344	53.59258
	17.43399	53.5925
	17.4315	53.59249
	17.43111	53.59212
	17.43106	53.59182
	17.43101	53.59129
	17.43139	53.59099
	17.43143	53.59053
	17.4309	53.59023
	17.42953	53.58974
	17.42882	53.58944
	17.42825	53.58918
	17.42793	53.58837
	17.42832	53.58791
	17.42793	53.58746
	17.42761	53.58668
	17.42685	53.58628
	17.42661	53.58574
	17.42601	53.58548
	17.42523	53.5852
	17.42407	53.58497
	17.42265	53.58472
	17.42247	53.58435
	17.42208	53.58416
	17.42206	53.58401
	17.4225	53.5834
	17.4225	53.58288
	17.42184	53.58206
	17.42262	53.58141
	17.42306	53.58051
	17.42363	53.58032
	17.42376	53.58024
	17.42368	53.57985
	17.42446	53.57945
	17.42457	53.57924
	17.42485	53.57894
	17.42493	53.57882
	17.42495	53.5786
	17.42458	53.57822
	17.42428	53.578
	17.42356	53.57772
	17.42333	53.57736
	17.42346	53.57688
	17.42336	53.57656
	17.42306	53.57629
	17.42256	53.57595
	17.42205	53.57588
	17.42185	53.57574
	17.42111	53.57479
	17.41999	53.57444
	17.41974	53.57429
	17.41971	53.57397
	17.41955	53.57358
	17.42002	53.57327
	17.42005	53.5731
	17.41971	53.57262
	17.41997	53.57223
	17.42023	53.57152
	17.42	53.57101
	17.4195	53.57083
	17.41916	53.57073
	17.41879	53.57042
	17.41924	53.56946
	17.41827	53.56879
	17.41795	53.56865
	17.41717	53.56842
	17.41752	53.5675
	17.41782	53.56613
	17.41793	53.56586
	17.41837	53.56543
	17.41924	53.56518
	17.41967	53.56499
	17.42012	53.5647
	17.41954	53.56472
	17.41847	53.56463
	17.41848	53.56434
	17.41831	53.56437
	17.41826	53.56424
	17.41835	53.56414
	17.41834	53.56388
	17.4179	53.56324
	17.41764	53.56314
	17.41757	53.56307
	17.4175	53.5631
	17.41718	53.56284
	17.41662	53.56277
	17.41663	53.5627
	17.41613	53.56245
	17.41591	53.56232
	17.41581	53.56206
	17.41557	53.56198
	17.41527	53.56174
	17.41517	53.56177
	17.41473	53.56175
	17.4144	53.56171
	17.41416	53.56161
	17.41372	53.56151
	17.4136	53.56133
	17.41339	53.56127
	17.41339	53.56121
	17.4133	53.56108
	17.41329	53.5607
	17.41349	53.5605
	17.41468	53.55995
	17.41494	53.55988
	17.4152	53.55967
	17.41526	53.55953
	17.41546	53.55939
	17.41554	53.55921
	17.41554	53.55906
	17.4154	53.55872
	17.41515	53.55842
	17.41515	53.55816
	17.41535	53.55804
	17.41566	53.558
	17.4161	53.55799
	17.41769	53.55828
	17.41792	53.55815
	17.41832	53.55817
	17.41887	53.55811
	17.41899	53.55802
	17.4191	53.55788
	17.41918	53.55768
	17.41939	53.55746
	17.41944	53.55718
	17.41932	53.55697
	17.41849	53.55674
	17.41841	53.55663
	17.41775	53.5564
	17.41756	53.5562
	17.41754	53.55602
	17.4174	53.55579
	17.41759	53.55564
	17.41776	53.55541
	17.4183	53.55536
	17.41869	53.55545
	17.41898	53.55539
	17.41952	53.55535
	17.42018	53.5552
	17.42057	53.5551
	17.42109	53.5552
	17.42161	53.55491
	17.42088	53.55472
	17.42059	53.55456
	17.4205	53.55454
	17.42044	53.55446
	17.42025	53.55438
	17.42003	53.55433
	17.41998	53.55425
	17.41959	53.55406
	17.41979	53.55385
	17.41969	53.55364
	17.41939	53.55335
	17.41871	53.55321
	17.41834	53.55306
	17.41811	53.55298
	17.41792	53.55287
	17.41784	53.55271
	17.41779	53.55253
	17.41798	53.5524
	17.4182	53.55237
	17.41843	53.55228
	17.41853	53.55215
	17.41875	53.55179
	17.41899	53.55166
	17.41921	53.55166
	17.41942	53.55181
	17.41971	53.55187
	17.42034	53.5519
	17.42074	53.5519
	17.42094	53.55187
	17.42109	53.5518
	17.42117	53.55164
	17.42123	53.55139
	17.42136	53.55108
	17.42161	53.55074
	17.42205	53.55055
	17.42252	53.55021
	17.42259	53.54999
	17.42236	53.54985
	17.42186	53.5497
	17.42148	53.54943
	17.42102	53.54895
	17.42092	53.54869
	17.42071	53.54864
	17.42103	53.54793
	17.42135	53.54778
	17.42138	53.54769
	17.42122	53.54736
	17.42099	53.54697
	17.42069	53.54678
	17.42066	53.54669
	17.42067	53.54609
	17.42043	53.54578
	17.42043	53.54532
	17.42079	53.54485
	17.42089	53.54457
	17.42083	53.54428
	17.4209	53.54415
	17.42107	53.54412
	17.42112	53.54407
	17.42109	53.54398
	17.42091	53.54386
	17.4209	53.54373
	17.42115	53.54363
	17.42151	53.54369
	17.42173	53.54369
	17.42185	53.54367
	17.42203	53.54343
	17.42205	53.54324
	17.42167	53.54295
	17.42101	53.54266
	17.42078	53.54262
	17.42062	53.54269
	17.42039	53.54268
	17.41995	53.54235
	17.41996	53.54225
	17.42017	53.54203
	17.42045	53.54192
	17.42067	53.5417
	17.42084	53.54149
	17.42079	53.5412
	17.42094	53.54103
	17.42075	53.54096
	17.42101	53.54073
	17.42103	53.54067
	17.42072	53.54068
	17.42065	53.54062
	17.42088	53.54036
	17.4208	53.54015
	17.4211	53.53991
	17.42145	53.54004
	17.42153	53.53987
	17.42147	53.53965
	17.42149	53.5396
	17.42165	53.53957
	17.42213	53.53966
	17.42244	53.53899
	17.42195	53.53852
	17.42196	53.53832
	17.42216	53.53825
	17.4222	53.53814
	17.42283	53.53751
	17.42267	53.53738
	17.4226	53.53719
	17.42218	53.53686
	17.4221	53.53672
	17.42224	53.5366
	17.42223	53.53644
	17.42213	53.53632
	17.42207	53.53599
	17.42188	53.53585
	17.42123	53.53569
	17.42026	53.53525
	17.41995	53.53506
	17.4198	53.5348
	17.41985	53.53439
	17.41971	53.53411
	17.41923	53.53397
	17.41927	53.53386
	17.41895	53.53385
	17.41835	53.53339
	17.4179	53.53334
	17.41771	53.53338
	17.4176	53.53323
	17.41712	53.53295
	17.4165	53.53284
	17.41635	53.53287
	17.41616	53.53294
	17.41559	53.53294
	17.41529	53.53287
	17.41414	53.53298
	17.41382	53.53318
	17.4139	53.53333
	17.41152	53.53372
	17.4108	53.53332
	17.40973	53.53147
	17.4086	53.53046
	17.40777	53.52961
	17.40618	53.52652
	17.40553	53.52553
	17.40483	53.52562
	17.40441	53.52494
	17.40375	53.5232
	17.40359	53.52189
	17.4033	53.52038
	17.40262	53.5186
	17.40159	53.51694
	17.40187	53.51582
	17.40191	53.51449
	17.40264	53.51425
	17.40274	53.5135
	17.40224	53.51224
	17.39673	53.49236
	17.38605	53.49709
	17.34092	53.5002
	17.32755	53.50789
	17.32707	53.51012
	17.32673	53.512
	17.32637	53.51348
	17.32438	53.51502
	17.32325	53.51499
	17.31981	53.51493
	17.31754	53.51487
	17.31544	53.51486
	17.28196	53.5341
	17.27771	53.53537
	17.27627	53.53544
	17.27449	53.53576
	17.27174	53.53632
	17.27099	53.53665
	17.27095	53.53675
	17.27095	53.53696
	17.27102	53.53709
	17.27121	53.53726
	17.271	53.53719
	17.2705	53.53707
	17.26974	53.53699
	17.26914	53.53699
	17.25988	53.53553
	17.25723	53.5346
	17.25477	53.53285
	17.25374	53.53309
	17.25361	53.53343
	17.25186	53.53293
	17.25077	53.53237
	17.24875	53.53191
	17.24818	53.53193
	17.24454	53.53124
	17.2435	53.53132
	17.24251	53.53131
	17.24176	53.53137
	17.24069	53.53156
	17.23996	53.53188
	17.23995	53.53205
	17.24035	53.53223
	17.24062	53.53253
	17.24061	53.53285
	17.24049	53.53315
	17.23977	53.53334
	17.23935	53.53301
	17.23898	53.53258
	17.23834	53.53248
	17.23815	53.53276
	17.23675	53.5332
	17.23627	53.53287
	17.23534	53.53321
	17.23418	53.53336
	17.23294	53.53324
	17.23259	53.5333
	17.23203	53.53374
	17.23196	53.53401
	17.23118	53.53431
	17.22663	53.5339
	17.22535	53.53314
	17.21519	53.534
	17.21411	53.53512
	17.20841	53.53637
	17.20589	53.53481
	17.20259	53.53444
	17.19732	53.53238
	17.18914	53.53425
	17.1604	53.53241
	17.08879	53.54396
	17.05708	53.52115
	17.02611	53.51775
	17.02052	53.51767
	17.02012	53.51781
	17.01905	53.51836
	17.01641	53.51897
	17.01636	53.51908
	17.01535	53.51924
	17.01462	53.51964
	17.01339	53.51992
	17.01233	53.52004
	17.0112	53.51991
	17.00976	53.51954
	17.00863	53.51868
	17.0081	53.51843
	17.00688	53.51817
	17.00655	53.51798
	17.00599	53.51797
	17.00571	53.51808
	17.00438	53.51819
	17.0038	53.51811
	17.00339	53.51787
	17.00297	53.51776
	17.00246	53.5178
	17.00154	53.51767
	17.00047	53.51821
	16.9996	53.51803
	16.99844	53.5208
	16.99862	53.5211
	16.99975	53.52161
	17.00032	53.52261
	17.00036	53.52301
	17.00019	53.52349
	17.0005	53.52371
	17.00075	53.52396
	17.00094	53.52443
	17.00088	53.52473
	17.00065	53.52506
	16.99978	53.52531
	16.9995	53.52548
	16.99933	53.52548
	16.99899	53.52532
	16.9987	53.52535
	16.99739	53.52596
	16.99671	53.5261
	16.99635	53.52593
	16.99598	53.52589
	16.99526	53.52589
	16.99427	53.52612
	16.99402	53.52608
	16.99368	53.52563
	16.99341	53.5255
	16.9899	53.52577
	16.9898	53.527
	16.99255	53.52702
	16.99274	53.52813
	16.99183	53.52856
	16.99135	53.52898
	16.99174	53.52961
	16.99206	53.52975
	16.9924	53.52962
	16.99316	53.53006
	16.99321	53.5303
	16.99298	53.53059
	16.99302	53.53157
	16.99408	53.53191
	16.9964	53.53136
	16.99689	53.5312
	16.99736	53.53157
	16.99791	53.53182
	16.9981	53.53218
	16.99854	53.53245
	16.99904	53.53259
	16.99934	53.53324
	17.00198	53.53371
	17.00278	53.53371
	17.00302	53.53361
	17.0035	53.53314
	17.00388	53.53312
	17.00463	53.5338
	17.005	53.53375
	17.00572	53.53441
	17.00645	53.53463
	17.00577	53.53493
	17.00536	53.53529
	17.00521	53.53572
	17.00584	53.53772
	17.00139	53.54976
	17.00047	53.54945
	17.00041	53.54966
	17.0007	53.55202
	16.99359	53.5521
	16.99177	53.55536
	16.98838	53.55383
	16.98132	53.556
	16.9528	53.54199
	16.9504	53.55726
	16.93882	53.57244
	16.94107	53.58368
	16.93135	53.58788
	16.91173	53.60822
	16.91058	53.61096
	16.90983	53.61293
	16.90605	53.6131
	16.90309	53.61555
	16.90259	53.61796
	16.89666	53.62114
	16.89925	53.6244
	16.90152	53.62596
	16.90063	53.62774
	16.89622	53.62729
	16.89433	53.62813
	16.89734	53.63198
	16.89889	53.63391
	16.89225	53.65587
	16.88622	53.67618
	16.88037	53.68883
	16.87907	53.69536
	16.87918	53.70121
	16.87574	53.71506
	16.87666	53.71821
	16.8773	53.71904
	16.87683	53.71945
	16.8761	53.72006
	16.87434	53.72231
	16.87363	53.72352
	16.87307	53.72407
	16.87237	53.72536
	16.8701	53.72824
	16.86957	53.72882
	16.86909	53.72925
	16.8686	53.72954
	16.86842	53.73008
	16.8681	53.73042
	16.86806	53.73069
	16.86542	53.73426
	16.86451	53.73604
	16.8635	53.73757
	16.86254	53.73949
	16.86101	53.74192
	16.85889	53.74502
	16.85841	53.7457
	16.85765	53.74709
	16.86679	53.75048
	16.86898	53.75132
	16.87168	53.75229
	16.88033	53.75554
	16.90073	53.76103
	16.901	53.76145
	16.9033	53.7649
	16.90362	53.7654
	16.9209	53.77466
	16.92615	53.77574
	16.92729	53.77673
	16.93076	53.77725
	16.93315	53.77941
	16.93372	53.78208
	16.93346	53.78235
	16.93422	53.78394
	16.93661	53.78406
	16.93631	53.78682
	16.93791	53.78941
	16.9397	53.79001
	16.94396	53.79925
	16.94533	53.79991
	16.94468	53.80103
	16.94829	53.80517
	16.94803	53.8057
	16.94655	53.80601
	16.94582	53.80615
	16.94518	53.80543
	16.94327	53.8057
	16.94168	53.80568
	16.94038	53.80665
	16.93848	53.80411
	16.93574	53.80166
	16.9298	53.80101
	16.92942	53.80033
	16.92096	53.79922
	16.91808	53.79813
	16.91637	53.79948
	16.91552	53.79964
	16.91114	53.80169
	16.90951	53.80187
	16.90864	53.80395
	16.90921	53.80409
	16.90963	53.80418
	16.90998	53.80579
	16.90916	53.80675
	16.91037	53.8082
	16.9092	53.80978
	16.90757	53.81108
	16.90679	53.81301
	16.9077	53.81433
	16.90739	53.81547
	16.90843	53.8157
	16.90959	53.81514
	16.91157	53.81748
	16.91032	53.81888
	16.91041	53.81985
	16.90873	53.82026
	16.90835	53.8214
	16.90683	53.82158
	16.90546	53.82219
	16.90257	53.82148
	16.89829	53.82377
	16.89598	53.82299
	16.89446	53.82323
	16.89402	53.8234
	16.8894	53.82689
	16.88739	53.8281
	16.8841	53.8294
	16.87889	53.83111
	16.87615	53.83177
	16.87468	53.83186
	16.87452	53.83163
	16.87396	53.83183
	16.87352	53.83114
	16.87315	53.83049
	16.87276	53.82954
	16.87063	53.83212
	16.87035	53.83319
	16.86991	53.83308
	16.86863	53.83416
	16.86996	53.83491
	16.87078	53.83448
	16.87113	53.83444
	16.87171	53.83423
	16.8725	53.83441
	16.87255	53.83434
	16.87287	53.83437
	16.87321	53.83454
	16.87333	53.8349
	16.87386	53.83574
	16.87406	53.83628
	16.8741	53.83673
	16.87396	53.83715
	16.87373	53.83743
	16.87353	53.83756
	16.87308	53.83771
	16.87276	53.83766
	16.87259	53.83753
	16.87223	53.83744
	16.87186	53.83747
	16.87171	53.83771
	16.8716	53.83816
	16.87165	53.83866
	16.87173	53.83893
	16.87145	53.83974
	16.87158	53.84049
	16.8718	53.8409
	16.87254	53.84167
	16.87271	53.84196
	16.87277	53.8423
	16.87239	53.84337
	16.87249	53.84438
	16.87248	53.84515
	16.87224	53.8456
	16.87196	53.84583
	16.87171	53.84593
	16.87055	53.84653
	16.87033	53.84683
	16.87018	53.84719
	16.8701	53.84765
	16.86998	53.84797
	16.86997	53.84855
	16.87022	53.84925
	16.87025	53.84978
	16.87018	53.85014
	16.87	53.85046
	16.86975	53.85074
	16.86905	53.85111
	16.86871	53.85122
	16.8679	53.85128
	16.86744	53.85123
	16.86715	53.85123
	16.86705	53.85122
	16.86645	53.85151
	16.86584	53.8517
	16.86532	53.85176
	16.86519	53.85177
	16.86496	53.85177
	16.86478	53.85181
	16.86374	53.85187
	16.8623	53.85191
	16.86119	53.85208
	16.86078	53.85222
	16.86084	53.8523
	16.86141	53.85251
	16.86185	53.85274
	16.86254	53.85294
	16.86264	53.85294
	16.86327	53.85299
	16.86402	53.85309
	16.86444	53.85323
	16.865	53.85363
	16.86507	53.85383
	16.8651	53.85431
	16.86502	53.85448
	16.86522	53.85481
	16.86644	53.85471
	16.86833	53.8544
	16.8682	53.85486
	16.86956	53.85637
	16.87078	53.85789
	16.87096	53.85779
	16.87149	53.85861
	16.87166	53.85911
	16.87213	53.86211
	16.87213	53.86327
	16.8724	53.86866
	16.87298	53.86874
	16.87407	53.86887
	16.88207	53.87022
	16.89002	53.87185
	16.89033	53.87203
	16.89058	53.87231
	16.89036	53.87265
	16.89039	53.87281
	16.89357	53.87163
	16.89355	53.87185
	16.89391	53.87218
	16.89445	53.87248
	16.89574	53.87284
	16.89478	53.87426
	16.89397	53.87509
	16.89358	53.8754
	16.89363	53.8757
	16.89395	53.87604
	16.89248	53.87767
	16.89226	53.87808
	16.89229	53.87861
	16.89272	53.87885
	16.89375	53.87897
	16.89454	53.87886
	16.89458	53.8786
	16.89473	53.87848
	16.89537	53.87843
	16.89551	53.8782
	16.89562	53.87792
	16.89622	53.87779
	16.89667	53.87745
	16.89671	53.87688
	16.89698	53.87645
	16.89766	53.87632
	16.89744	53.87579
	16.89754	53.87559
	16.89942	53.87507
	16.90062	53.87461
	16.90173	53.87445
	16.90189	53.87715
	16.90498	53.87666
	16.90569	53.87632
	16.90637	53.87601
	16.90744	53.87598
	16.9078	53.87604
	16.90871	53.87617
	16.91017	53.87611
	16.90989	53.87659
	16.90978	53.87665
	16.90983	53.87678
	16.91124	53.87712
	16.91197	53.87741
	16.91253	53.87688
	16.91351	53.87627
	16.91421	53.87599
	16.91483	53.87586
	16.92374	53.87488
	16.92545	53.87478
	16.93135	53.87478
	16.93632	53.87481
	16.93942	53.87467
	16.95468	53.87468
	16.95439	53.87516
	16.95406	53.87553
	16.95369	53.87578
	16.95293	53.87614
	16.95172	53.87746
	16.95113	53.87819
	16.95051	53.87923
	16.95353	53.87917
	16.95699	53.87904
	16.95977	53.87865
	16.95973	53.87902
	16.96429	53.87861
	16.96806	53.87836
	16.97069	53.87798
	16.97057	53.88058
	16.97632	53.87965
	16.97701	53.88266
	16.9775	53.88418
	16.98208	53.9049
	16.97208	53.90476
	16.97081	53.90479
	16.96885	53.90473
	16.96831	53.90475
	16.96591	53.9047
	16.96512	53.90482
	16.96491	53.90484
	16.96455	53.90485
	16.96202	53.90758
	16.95519	53.90686
	16.95517	53.90687
	16.95059	53.90946
	16.95059	53.9123
	16.94154	53.91206
	16.936	53.9146
	16.93485	53.91419
	16.92329	53.92088
	16.92456	53.92242
	16.92191	53.9254
	16.9171	53.92461
	16.91479	53.92523
	16.91194	53.92577
	16.90892	53.92516
	16.88093	53.9411
	16.87888	53.94044
	16.87779	53.9408
	16.87607	53.93974
	16.87547	53.94417
	16.87066	53.94668
	16.86762	53.94772
	16.86228	53.94584
	16.86043	53.94666
	16.85856	53.94707
	16.86189	53.94782
	16.8625	53.95079
	16.86287	53.95082
	16.86439	53.95098
	16.86676	53.95191
	16.87011	53.95187
	16.87231	53.95109
	16.87595	53.95197
	16.87622	53.9532
	16.87706	53.95406
	16.87801	53.95546
	16.87951	53.95651
	16.8785	53.95673
	16.87848	53.95775
	16.8786	53.95835
	16.87805	53.9591
	16.87774	53.9606
	16.87842	53.96136
	16.87884	53.96205
	16.87968	53.96252
	16.88	53.96359
	16.87967	53.96444
	16.87758	53.9668
	16.87491	53.96882
	16.87441	53.9696
	16.87448	53.97027
	16.87625	53.97074
	16.8766	53.97138
	16.87653	53.97258
	16.87604	53.97431
	16.87412	53.97727
	16.87289	53.97764
	16.87209	53.97749
	16.8696	53.978
	16.86959	53.97801
	16.86973	53.97809
	16.86841	53.98059
	16.86584	53.98138
	16.8651	53.98156
	16.86484	53.98161
	16.8644	53.98167
	16.86427	53.9817
	16.86404	53.9818
	16.8636	53.98193
	16.86303	53.98202
	16.86242	53.98208
	16.86174	53.9821
	16.86137	53.98208
	16.86096	53.98201
	16.86032	53.9818
	16.85942	53.98132
	16.8594	53.98134
	16.858	53.98159
	16.85669	53.98291
	16.85485	53.98353
	16.84724	53.98389
	16.8456	53.98592
	16.84593	53.98683
	16.8446	53.98891
	16.84395	53.99111
	16.84421	53.9926
	16.8436	53.99316
	16.84266	53.99336
	16.84231	53.99395
	16.84335	53.99534
	16.84256	53.99659
	16.84219	53.99783
	16.83895	53.99752
	16.82987	53.99535
	16.82876	53.99516
	16.82777	53.99572
	16.8271	53.99663
	16.82716	53.99752
	16.82649	53.99785
	16.82647	53.99855
	16.82774	53.99926
	16.82757	53.99998
	16.82705	54.00042
	16.82712	54.00113
	16.82684	54.00179
	16.82628	54.00216
	16.82625	54.00274
	16.82576	54.00361
	16.82507	54.00428
	16.82352	54.00393
	16.82158	54.00365
	16.82085	54.00372
	16.81982	54.00403
	16.81939	54.00427
	16.81776	54.00432
	16.81663	54.00453
	16.81602	54.00511
	16.81516	54.00484
	16.81482	54.00506
	16.81459	54.00502
	16.81581	54.00408
	16.81642	54.00405
	16.81686	54.00409
	16.81802	54.00379
	16.81819	54.00347
	16.81828	54.00294
	16.81809	54.0022
	16.81801	54.00095
	16.81742	54.0007
	16.8173	54.00064
	16.8167	54.0005
	16.81614	54.00052
	16.81602	54.00071
	16.81639	54.0009
	16.81528	54.00161
	16.81377	54.0018
	16.81299	54.00102
	16.81482	54.00079
	16.81514	54.00043
	16.81465	53.99968
	16.81399	53.99981
	16.81358	53.999
	16.81422	53.99898
	16.81514	53.9983
	16.81457	53.99663
	16.81295	53.99546
	16.81219	53.99532
	16.81141	53.99519
	16.8102	53.99471
	16.80984	53.99492
	16.80828	53.99456
	16.80663	53.99343
	16.80568	53.99341
	16.80573	53.99396
	16.80528	53.99425
	16.80506	53.99429
	16.80453	53.99441
	16.80361	53.99422
	16.80419	53.99362
	16.80397	53.99172
	16.80488	53.99023
	16.80587	53.99023
	16.80591	53.98901
	16.80729	53.98744
	16.8048	53.98746
	16.80398	53.98932
	16.80323	53.98746
	16.80241	53.98721
	16.8026	53.98696
	16.8025	53.98579
	16.80312	53.98581
	16.80482	53.98539
	16.80515	53.98571
	16.80663	53.98602
	16.8073	53.98573
	16.8087	53.9858
	16.81056	53.98575
	16.8109	53.98523
	16.81036	53.98462
	16.81141	53.98419
	16.81257	53.98395
	16.81325	53.98347
	16.81294	53.98199
	16.81391	53.981
	16.81395	53.97954
	16.8132	53.97926
	16.81199	53.97969
	16.80995	53.97989
	16.80735	53.97955
	16.80627	53.97921
	16.80663	53.97865
	16.80745	53.97834
	16.8068	53.97795
	16.80596	53.97756
	16.80547	53.97755
	16.80521	53.97831
	16.80434	53.97899
	16.80446	53.97946
	16.80519	53.97982
	16.80638	53.97986
	16.80608	53.98038
	16.80596	53.98095
	16.80531	53.98112
	16.80331	53.98088
	16.80291	53.98047
	16.80151	53.97986
	16.80044	53.97977
	16.79859	53.9798
	16.79743	53.98039
	16.79606	53.98036
	16.79539	53.98005
	16.79301	53.98036
	16.79147	53.98042
	16.79006	53.98023
	16.78917	53.97955
	16.78781	53.98014
	16.78832	53.98056
	16.78941	53.98101
	16.78996	53.98149
	16.78957	53.98261
	16.79039	53.98303
	16.79042	53.98471
	16.79069	53.98503
	16.79157	53.98532
	16.79889	53.98673
	16.79609	53.98868
	16.79589	53.99145
	16.79589	53.99503
	16.79583	53.99539
	16.79726	53.99642
	16.80112	53.99948
	16.80033	54.00319
	16.80153	54.00402
	16.79921	54.00741
	16.79872	54.0068
	16.79836	54.00596
	16.79774	54.00683
	16.79762	54.00708
	16.79504	54.00646
	16.79513	54.00807
	16.79304	54.00812
	16.79141	54.00821
	16.78991	54.01055
	16.79327	54.01087
	16.79538	54.01092
	16.79437	54.01163
	16.79617	54.01255
	16.79268	54.01192
	16.78982	54.01591
	16.78869	54.01312
	16.78807	54.01514
	16.78764	54.01711
	16.7874	54.01781
	16.78291	54.02271
	16.78602	54.02841
	16.79083	54.03128
	16.79313	54.03263
	16.79451	54.03342
	16.79767	54.03532
	16.79595	54.0442
	16.79551	54.04528
	16.79477	54.04916
	16.79546	54.05085
	16.79768	54.0551
	16.80202	54.05577
	16.80658	54.05649
	16.81142	54.06028
	16.81099	54.0621
	16.81085	54.06263
	16.81028	54.06446
	16.80949	54.06808
	16.80893	54.07053
	16.81147	54.0723
	16.81279	54.07313
	16.8112	54.07362
	16.80492	54.07581
	16.80403	54.07789
	16.80375	54.07876
	16.79837	54.07548
	16.79565	54.07533
	16.79338	54.07513
	16.79369	54.07561
	16.7938	54.07606
	16.79414	54.07674
	16.79417	54.07709
	16.79399	54.07758
	16.79395	54.0779
	16.79615	54.07852
	16.79632	54.07857
	16.7972	54.07888
	16.79774	54.07885
	16.798	54.07895
	16.79825	54.07989
	16.7974	54.07955
	16.79672	54.07921
	16.7962	54.07902
	16.79603	54.07904
	16.79502	54.07885
	16.79442	54.07895
	16.79397	54.07891
	16.79327	54.07917
	16.79228	54.0792
	16.79265	54.08159
	16.79329	54.08455
	16.79414	54.08829
	16.79431	54.08877
	16.79445	54.08931
	16.79486	54.09014
	16.79354	54.10084
	16.79482	54.10112
	16.7972	54.10112
	16.79917	54.10129
	16.79888	54.10501
	16.79958	54.10565
	16.80101	54.10545
	16.80227	54.10864
	16.801	54.10891
	16.80234	54.11313
	16.80383	54.11335
	16.80291	54.11467
	16.80307	54.11529
	16.80457	54.116
	16.80183	54.11795
	16.79988	54.11867
	16.79659	54.1207
	16.79316	54.12122
	16.77912	54.1192
	16.77858	54.1208
	16.77938	54.12238
	16.77965	54.12407
	16.77896	54.12395
	16.77695	54.12574
	16.77739	54.126
	16.778	54.12601
	16.77839	54.12685
	16.77737	54.12735
	16.77804	54.12827
	16.78135	54.12779
	16.7831	54.12921
	16.78419	54.13114
	16.78009	54.1321
	16.78005	54.13402
	16.77845	54.13331
	16.77477	54.13358
	16.77564	54.13506
	16.77696	54.13525
	16.77753	54.13641
	16.77646	54.13751
	16.77593	54.13892
	16.77631	54.1393
	16.77613	54.14268
	16.77489	54.14426
	16.77539	54.14497
	16.77667	54.14534
	16.77533	54.14678
	16.77631	54.14796
	16.77602	54.14947
	16.77554	54.15009
	16.77619	54.15041
	16.77596	54.15074
	16.77516	54.15079
	16.77495	54.15146
	16.77406	54.1519
	16.77365	54.15339
	16.77424	54.1541
	16.77421	54.15511
	16.77533	54.15513
	16.77503	54.15552
	16.7727	54.15525
	16.76911	54.15592
	16.76822	54.1565
	16.76709	54.15635
	16.76702	54.15598
	16.76549	54.15555
	16.76447	54.15528
	16.76107	54.15636
	16.76063	54.15761
	16.75963	54.15763
	16.76013	54.15666
	16.7568	54.15781
	16.75736	54.16105
	16.75342	54.16648
	16.75141	54.16993
	16.74912	54.17271
	16.746	54.17409
	16.73704	54.17594
	16.73437	54.17659
	16.73276	54.17746
	16.73225	54.1774
	16.7311	54.17824
	16.73003	54.17964
	16.72991	54.18053
	16.72873	54.18415
	16.72947	54.18413
	16.73142	54.1841
	16.73507	54.18455
	16.7355	54.18873
	16.73491	54.18977
	16.73514	54.19166
	16.7358	54.19389
	16.73422	54.19521
	16.73357	54.19821
	16.73343	54.20168
	16.73267	54.20366
	16.72779	54.20357
	16.72041	54.20237
	16.71981	54.20241
	16.71953	54.20476
	16.71988	54.20636
	16.72041	54.2073
	16.7198	54.20795
	16.71951	54.2094
	16.71791	54.20944
	16.71599	54.20974
	16.71716	54.21218
	16.71277	54.21254
	16.7119	54.21405
	16.71567	54.21635
	16.71652	54.21907
	16.72895	54.22515
	16.72984	54.23052
	16.73165	54.23188
	16.73374	54.2328
	16.73605	54.23188
	16.73795	54.23147
	16.73831	54.23138
	16.73915	54.231
	16.73939	54.23065
	16.74058	54.23034
	16.74443	54.23117
	16.74685	54.23123
	16.75001	54.23273
	16.75113	54.23448
	16.7546	54.23578
	16.76079	54.23397
	16.76271	54.23527
	16.76276	54.23593
	16.76567	54.23709
	16.76661	54.23856
	16.76864	54.2393
	16.76869	54.2393
	16.77072	54.23905
	16.77208	54.24035
	16.77416	54.24052
	16.77746	54.23949
	16.78151	54.23934
	16.78565	54.24003
	16.78763	54.2411
	16.79676	54.24295
	16.79656	54.24361
	16.8015	54.24416
	16.80535	54.24376
	16.8094	54.24292
	16.81364	54.24422
	16.81684	54.24631
	16.82144	54.24684
	16.8251	54.24671
	16.82618	54.24716
	16.83136	54.24587
	16.83641	54.24725
	16.84404	54.2506
	16.84691	54.25304
	16.84886	54.25421
	16.85074	54.25498
	16.86249	54.26001
	16.86353	54.26041
	16.86425	54.26063
	16.8651	54.26099
	16.86259	54.26388
	16.8622	54.26595
	16.86254	54.26746
	16.86442	54.27007
	16.86477	54.27224
	16.86457	54.27301
	16.86548	54.27662
	16.86468	54.27734
	16.86478	54.28192
	16.86432	54.28551
	16.86245	54.28958
	16.86059	54.29198
	16.86035	54.29237
	16.85713	54.29788
	16.85468	54.29972
	16.85377	54.30232
	16.85377	54.30428
	16.85432	54.30577
	16.8544	54.30755
	16.85012	54.30969
	16.84701	54.31047
	16.84482	54.31075
	16.8449	54.31143
	16.84323	54.31241
	16.84043	54.31302
	16.83811	54.31388
	16.83973	54.31482
	16.83914	54.31597
	16.83806	54.31646
	16.82594	54.31629
	16.82472	54.31823
	16.82049	54.31686
	16.81398	54.31851
	16.82435	54.33142
	16.82384	54.33349
	16.82278	54.33795
	16.82819	54.34606
	16.82218	54.35326
	16.81623	54.36028
	16.80985	54.35945
	16.80839	54.36761
	16.80805	54.36815
	16.80803	54.37039
	16.81282	54.36959
	16.81417	54.36939
	16.82159	54.36825
	16.83753	54.3704
	16.83815	54.37529
	16.83839	54.37664
	16.84049	54.37653
	16.84456	54.37619
	16.84412	54.37398
	16.84391	54.37223
	16.85073	54.37408
	16.85731	54.37813
	16.85814	54.38096
	16.85852	54.38258
	16.85677	54.38359
	16.85407	54.38511
	16.85428	54.38533
	16.8545	54.38561
	16.85499	54.38636
	16.85533	54.38704
	16.8555	54.3876
	16.85553	54.38778
	16.85555	54.38808
	16.85555	54.38848
	16.85546	54.38906
	16.85541	54.38921
	16.8576	54.39231
	16.8589	54.39422
	16.86028	54.39609
	16.86075	54.3968
	16.86107	54.39724
	16.86168	54.39818
	16.86198	54.399
	16.86204	54.39947
	16.86215	54.40096
	16.86226	54.40139
	16.86181	54.4015
	16.8618	54.40339
	16.85897	54.40337
	16.85889	54.40329
	16.85838	54.40239
	16.85823	54.40178
	16.85817	54.40142
	16.85807	54.39996
	16.85781	54.39955
	16.85744	54.39905
	16.85697	54.39834
	16.85566	54.39657
	16.85432	54.39461
	16.85192	54.39121
	16.8517	54.39082
	16.85137	54.39001
	16.85126	54.38956
	16.84986	54.38979
	16.84054	54.39869
	16.84031	54.40513
	16.8364	54.40879
	16.83353	54.41141
	16.83113	54.41265
	16.82441	54.41574
	16.82472	54.41703
	16.82805	54.42079
	16.83027	54.4242
	16.83443	54.42756
	16.83895	54.43127
	16.83978	54.43203
	16.84128	54.43839
	16.82229	54.45367
	16.82384	54.45427
	16.8212	54.45624
	16.82823	54.45874
	16.82397	54.4639
	16.82743	54.46487
	16.82317	54.46938
	16.82296	54.46977
	16.82188	54.4708
	16.821	54.47167
	16.81975	54.47282
	16.81728	54.46878
	16.81178	54.47416
	16.8102	54.48036
	16.81219	54.48383
	16.81074	54.48193
	16.80101	54.48058
	16.79943	54.48439
	16.79331	54.48441
	16.79337	54.4874
	16.7895	54.48661
	16.77892	54.48459
	16.76774	54.48758
	16.76132	54.48565
	16.76275	54.48773
	16.76099	54.48945
	16.76055	54.49035
	16.75797	54.49298
	16.75681	54.49435
	16.7548	54.49678
	16.75277	54.49686
	16.73913	54.51736
	16.74136	54.52477
	16.74837	54.52798
	16.74511	54.53342
	16.73897	54.53844
	16.73164	54.54294
	16.71213	54.55461
	16.6993	54.56908
	16.69921	54.56947
	15.51311	54.98265
END
END
