Portugal_Porto
1
	-9.817645	39.56305
	-9.140278	41.86583
	-8.870122	41.86407
	-8.868808	41.86596
	-8.868332	41.86671
	-8.868118	41.8672
	-8.867571	41.86941
	-8.867237	41.87015
	-8.866614	41.87067
	-8.865255	41.87117
	-8.863879	41.87192
	-8.86154	41.87346
	-8.858625	41.87336
	-8.856327	41.87257
	-8.854995	41.87267
	-8.853813	41.87294
	-8.853002	41.87469
	-8.852498	41.87616
	-8.850269	41.87815
	-8.846134	41.88103
	-8.845487	41.88215
	-8.843829	41.88372
	-8.842954	41.88367
	-8.841313	41.88448
	-8.838971	41.88588
	-8.837823	41.88691
	-8.836142	41.88791
	-8.835142	41.88867
	-8.834455	41.88981
	-8.833597	41.89085
	-8.831795	41.89357
	-8.829173	41.89718
	-8.826139	41.89828
	-8.823212	41.90062
	-8.819873	41.90253
	-8.817375	41.90377
	-8.814113	41.90525
	-8.811195	41.90617
	-8.807848	41.90739
	-8.803599	41.90956
	-8.798621	41.91192
	-8.796153	41.91315
	-8.788279	41.91716
	-8.78388	41.91948
	-8.778944	41.92218
	-8.773365	41.92574
	-8.772218	41.92654
	-8.771627	41.9269
	-8.75856	41.93355
	-8.757401	41.93445
	-8.749047	41.9412
	-8.747626	41.94608
	-8.746948	41.94762
	-8.746784	41.94989
	-8.746783	41.95176
	-8.747108	41.95286
	-8.748405	41.95511
	-8.748802	41.95715
	-8.748762	41.95865
	-8.748349	41.96006
	-8.747757	41.96179
	-8.747702	41.96218
	-8.747552	41.96259
	-8.74738	41.96296
	-8.747251	41.96337
	-8.747187	41.96366
	-8.746801	41.96482
	-8.742917	41.96721
	-8.735836	41.97172
	-8.729935	41.97415
	-8.727746	41.9753
	-8.724807	41.97656
	-8.721331	41.97803
	-8.715859	41.98044
	-8.710795	41.98122
	-8.706438	41.98192
	-8.701677	41.98326
	-8.697829	41.98432
	-8.697014	41.98473
	-8.695522	41.98567
	-8.692342	41.98743
	-8.689648	41.98986
	-8.68633	41.99088
	-8.682502	41.99076
	-8.679358	41.99091
	-8.675891	41.99355
	-8.674847	41.99526
	-8.673441	41.99626
	-8.672562	41.9977
	-8.670891	41.99896
	-8.668904	41.99942
	-8.666683	42.00016
	-8.664489	42.00164
	-8.662968	42.00294
	-8.661833	42.00468
	-8.660788	42.00706
	-8.659805	42.00977
	-8.658999	42.01309
	-8.658403	42.01541
	-8.657448	42.01809
	-8.657423	42.01931
	-8.657592	42.02082
	-8.657851	42.02156
	-8.658825	42.02399
	-8.659158	42.02507
	-8.659064	42.02684
	-8.658732	42.0279
	-8.658194	42.0291
	-8.65756	42.03021
	-8.656684	42.03131
	-8.655931	42.032
	-8.654924	42.03277
	-8.654045	42.03328
	-8.653325	42.03364
	-8.65255	42.03398
	-8.651427	42.03429
	-8.650295	42.03472
	-8.649302	42.03518
	-8.647816	42.03625
	-8.646299	42.03731
	-8.644449	42.03889
	-8.642467	42.04175
	-8.641793	42.04286
	-8.640373	42.04533
	-8.638949	42.04663
	-8.637191	42.04732
	-8.633596	42.04881
	-8.630558	42.04984
	-8.628683	42.05029
	-8.62509	42.05121
	-8.621481	42.05211
	-8.619719	42.05235
	-8.617877	42.05238
	-8.61533	42.05253
	-8.613042	42.05264
	-8.611459	42.05269
	-8.607965	42.05351
	-8.604053	42.0543
	-8.597709	42.05625
	-8.594705	42.05698
	-8.592308	42.05548
	-8.590636	42.05437
	-8.589589	42.05342
	-8.587643	42.05285
	-8.583742	42.05186
	-8.579864	42.05209
	-8.57712	42.05229
	-8.573243	42.05283
	-8.570101	42.0531
	-8.567073	42.05317
	-8.564801	42.05313
	-8.562402	42.05316
	-8.561278	42.05309
	-8.559975	42.05308
	-8.558694	42.05298
	-8.5576	42.053
	-8.556602	42.05285
	-8.555905	42.05295
	-8.555119	42.05312
	-8.55389	42.05314
	-8.55202	42.05331
	-8.550024	42.05356
	-8.548355	42.05367
	-8.547254	42.05388
	-8.54425	42.05494
	-8.543354	42.05516
	-8.541583	42.05602
	-8.536701	42.05806
	-8.531837	42.05961
	-8.530713	42.06007
	-8.529093	42.06087
	-8.526678	42.0631
	-8.525329	42.06403
	-8.52506	42.06449
	-8.525163	42.06522
	-8.525987	42.06661
	-8.526423	42.06807
	-8.526403	42.06915
	-8.526483	42.0698
	-8.526792	42.07048
	-8.527726	42.07173
	-8.528479	42.07288
	-8.528729	42.07348
	-8.528664	42.07405
	-8.527335	42.07717
	-8.525276	42.07774
	-8.523376	42.078
	-8.521828	42.07798
	-8.520837	42.07795
	-8.520801	42.07802
	-8.520234	42.07784
	-8.517118	42.0774
	-8.513792	42.07792
	-8.512198	42.07801
	-8.51125	42.07802
	-8.510742	42.07805
	-8.50644	42.07779
	-8.505327	42.07789
	-8.501869	42.07792
	-8.501022	42.078
	-8.500247	42.07821
	-8.499168	42.07862
	-8.496247	42.0795
	-8.495461	42.07959
	-8.492419	42.08046
	-8.491305	42.08072
	-8.487092	42.08146
	-8.486026	42.0816
	-8.484986	42.08167
	-8.484092	42.0816
	-8.477017	42.08042
	-8.472815	42.0813
	-8.472363	42.08146
	-8.471673	42.0815
	-8.471127	42.08145
	-8.467587	42.08146
	-8.463408	42.08131
	-8.459661	42.08114
	-8.458923	42.08123
	-8.453855	42.0824
	-8.453763	42.08243
	-8.453181	42.08254
	-8.45178	42.08243
	-8.448683	42.08268
	-8.444552	42.08221
	-8.443183	42.08247
	-8.442797	42.08241
	-8.440483	42.08154
	-8.439317	42.08073
	-8.438513	42.08004
	-8.438144	42.07943
	-8.437784	42.07907
	-8.437172	42.07862
	-8.434652	42.0776
	-8.434237	42.07696
	-8.432754	42.07512
	-8.432353	42.07394
	-8.431926	42.07312
	-8.430844	42.07241
	-8.430025	42.0721
	-8.428806	42.07179
	-8.428118	42.07178
	-8.426774	42.07199
	-8.4241	42.07221
	-8.420616	42.07257
	-8.418947	42.07264
	-8.418129	42.07349
	-8.416867	42.07405
	-8.416113	42.0745
	-8.41509	42.07527
	-8.413875	42.07597
	-8.411957	42.07686
	-8.411243	42.07697
	-8.410179	42.07698
	-8.409569	42.07757
	-8.409108	42.07772
	-8.407207	42.07807
	-8.406963	42.07831
	-8.406761	42.07921
	-8.406347	42.07948
	-8.40522	42.0798
	-8.404227	42.07998
	-8.400792	42.08009
	-8.399537	42.0799
	-8.398871	42.07997
	-8.397648	42.08023
	-8.396801	42.0803
	-8.395968	42.08012
	-8.393792	42.08017
	-8.393297	42.08003
	-8.392732	42.07969
	-8.392276	42.07933
	-8.391918	42.07885
	-8.391603	42.07766
	-8.391272	42.07692
	-8.390196	42.07558
	-8.390033	42.07495
	-8.388712	42.07529
	-8.387524	42.07568
	-8.386844	42.07597
	-8.385609	42.07615
	-8.385026	42.07643
	-8.384502	42.07683
	-8.384029	42.07699
	-8.383558	42.077
	-8.381469	42.0767
	-8.380864	42.07682
	-8.380146	42.07728
	-8.377012	42.08009
	-8.376156	42.08104
	-8.375507	42.08191
	-8.375192	42.08316
	-8.373993	42.08462
	-8.373663	42.08493
	-8.372193	42.08573
	-8.371898	42.08619
	-8.371747	42.08683
	-8.371392	42.08725
	-8.370567	42.08749
	-8.370395	42.08776
	-8.370437	42.08847
	-8.370225	42.08958
	-8.369831	42.08963
	-8.369822	42.0893
	-8.369473	42.08914
	-8.368941	42.08923
	-8.36831	42.08943
	-8.367592	42.08984
	-8.366733	42.08988
	-8.366346	42.08996
	-8.365033	42.09065
	-8.363314	42.09087
	-8.359217	42.09067
	-8.358468	42.09057
	-8.357132	42.09112
	-8.356842	42.09109
	-8.356578	42.09096
	-8.356324	42.09092
	-8.35573	42.09109
	-8.355404	42.09107
	-8.35491	42.09089
	-8.353542	42.09105
	-8.352916	42.09078
	-8.352125	42.09
	-8.3519	42.08956
	-8.35143	42.08946
	-8.350801	42.08942
	-8.349921	42.0892
	-8.349174	42.08893
	-8.346276	42.08741
	-8.34364	42.08617
	-8.342954	42.08595
	-8.341782	42.08584
	-8.340708	42.08564
	-8.339901	42.08532
	-8.338888	42.08505
	-8.337426	42.08494
	-8.336183	42.08473
	-8.335083	42.08468
	-8.331936	42.08424
	-8.330948	42.08503
	-8.328391	42.08764
	-8.326557	42.08948
	-8.325605	42.09036
	-8.325237	42.09081
	-8.324371	42.09387
	-8.324443	42.0939
	-8.3247	42.09484
	-8.324924	42.09532
	-8.325007	42.0954
	-8.325144	42.09616
	-8.325136	42.09695
	-8.324983	42.09769
	-8.324513	42.09869
	-8.32368	42.10085
	-8.323223	42.1017
	-8.31965	42.10219
	-8.31868	42.10298
	-8.31707	42.10451
	-8.316438	42.10448
	-8.315575	42.10403
	-8.314816	42.10355
	-8.314081	42.10313
	-8.31337	42.10292
	-8.311817	42.10305
	-8.31018	42.10329
	-8.308918	42.10352
	-8.307965	42.10352
	-8.306812	42.10376
	-8.30548	42.10385
	-8.304673	42.1037
	-8.303914	42.10383
	-8.302628	42.10456
	-8.302534	42.1047
	-8.302364	42.10479
	-8.301799	42.10489
	-8.300829	42.10551
	-8.299911	42.10569
	-8.299207	42.10609
	-8.298701	42.10651
	-8.297755	42.10708
	-8.296387	42.10777
	-8.295788	42.10838
	-8.295318	42.10938
	-8.294744	42.1109
	-8.293884	42.11137
	-8.292624	42.1113
	-8.291328	42.11133
	-8.290332	42.11222
	-8.289314	42.11457
	-8.288995	42.11499
	-8.287098	42.11589
	-8.285246	42.11703
	-8.281522	42.11903
	-8.280583	42.11972
	-8.280142	42.12017
	-8.278837	42.12109
	-8.275341	42.12328
	-8.274196	42.12393
	-8.27359	42.124
	-8.272115	42.12395
	-8.269447	42.12349
	-8.268844	42.12328
	-8.266053	42.12188
	-8.264115	42.12104
	-8.262896	42.12086
	-8.261808	42.12081
	-8.260231	42.12114
	-8.259052	42.12165
	-8.258455	42.12201
	-8.257777	42.12307
	-8.256516	42.12638
	-8.256337	42.12721
	-8.256039	42.12789
	-8.255935	42.12853
	-8.256192	42.12933
	-8.257055	42.13311
	-8.256482	42.13414
	-8.255491	42.13532
	-8.254166	42.13588
	-8.253496	42.13624
	-8.25308	42.13668
	-8.252641	42.13697
	-8.251587	42.13706
	-8.249992	42.13787
	-8.249336	42.13807
	-8.247627	42.13835
	-8.246579	42.13892
	-8.245534	42.13936
	-8.244345	42.1396
	-8.24311	42.13964
	-8.241828	42.13954
	-8.24096	42.13936
	-8.240225	42.13904
	-8.238296	42.13746
	-8.235411	42.13579
	-8.233686	42.13437
	-8.231989	42.1336
	-8.231375	42.13339
	-8.228982	42.13316
	-8.226189	42.13298
	-8.224639	42.13305
	-8.22333	42.13324
	-8.222359	42.13354
	-8.221445	42.13398
	-8.220796	42.13463
	-8.219189	42.13741
	-8.218651	42.1379
	-8.218053	42.13831
	-8.217201	42.13867
	-8.214115	42.13968
	-8.212805	42.13996
	-8.211484	42.14011
	-8.209134	42.14028
	-8.208056	42.1404
	-8.207314	42.14067
	-8.206911	42.14109
	-8.206197	42.14195
	-8.203459	42.14511
	-8.202159	42.1465
	-8.201082	42.14747
	-8.20059	42.1481
	-8.200341	42.14859
	-8.200299	42.14908
	-8.200376	42.14971
	-8.201131	42.15127
	-8.201479	42.15241
	-8.201521	42.15293
	-8.201335	42.15334
	-8.200834	42.15369
	-8.199107	42.15436
	-8.197506	42.15504
	-8.197853	42.15417
	-8.197677	42.15399
	-8.197444	42.15387
	-8.197343	42.15371
	-8.197252	42.15345
	-8.197085	42.15313
	-8.196984	42.15307
	-8.196714	42.15299
	-8.196491	42.15286
	-8.19639	42.15274
	-8.196335	42.15249
	-8.196411	42.15215
	-8.196416	42.15201
	-8.196251	42.15175
	-8.196028	42.15147
	-8.195657	42.15121
	-8.195544	42.15106
	-8.195389	42.15076
	-8.195347	42.15061
	-8.195298	42.15022
	-8.195306	42.14999
	-8.195356	42.14983
	-8.195551	42.14958
	-8.195578	42.1495
	-8.195579	42.14937
	-8.19549	42.14881
	-8.195394	42.14848
	-8.195354	42.1482
	-8.195184	42.14774
	-8.195037	42.14752
	-8.194809	42.14738
	-8.194703	42.14729
	-8.194434	42.14718
	-8.19411	42.14718
	-8.194	42.14716
	-8.193333	42.14688
	-8.193227	42.14681
	-8.193124	42.1467
	-8.193342	42.14679
	-8.193025	42.14656
	-8.193002	42.14645
	-8.192998	42.14629
	-8.193055	42.14617
	-8.193067	42.14608
	-8.19301	42.14593
	-8.192914	42.14578
	-8.192821	42.14559
	-8.192517	42.14518
	-8.192419	42.14501
	-8.19232	42.14476
	-8.192238	42.14466
	-8.191782	42.14445
	-8.191688	42.14438
	-8.191596	42.14416
	-8.19157	42.14397
	-8.191473	42.14387
	-8.191308	42.14375
	-8.191224	42.14364
	-8.191195	42.14353
	-8.191191	42.14342
	-8.191394	42.1428
	-8.191383	42.14272
	-8.191318	42.14269
	-8.190969	42.14269
	-8.19066	42.14275
	-8.190235	42.14291
	-8.190135	42.143
	-8.189925	42.14329
	-8.189504	42.14364
	-8.189191	42.14383
	-8.188904	42.14392
	-8.18868	42.14396
	-8.188571	42.14395
	-8.188471	42.14392
	-8.188144	42.14376
	-8.188046	42.14368
	-8.18803	42.14362
	-8.188021	42.14356
	-8.18809	42.14342
	-8.18823	42.14322
	-8.18835	42.143
	-8.188635	42.14263
	-8.188739	42.14244
	-8.189198	42.14175
	-8.189673	42.14115
	-8.190169	42.14072
	-8.190464	42.14058
	-8.190671	42.14045
	-8.190766	42.14033
	-8.190773	42.14013
	-8.190662	42.13995
	-8.190291	42.13977
	-8.190212	42.13952
	-8.19033	42.13918
	-8.190282	42.13904
	-8.190157	42.13893
	-8.18988	42.1388
	-8.189536	42.13873
	-8.189465	42.1387
	-8.189369	42.13862
	-8.189174	42.1385
	-8.188966	42.1384
	-8.188691	42.13831
	-8.188549	42.13828
	-8.188344	42.1382
	-8.188099	42.13804
	-8.187803	42.13781
	-8.187543	42.13747
	-8.187527	42.1374
	-8.187534	42.13727
	-8.187574	42.13712
	-8.187646	42.13698
	-8.18783	42.13671
	-8.188103	42.13644
	-8.188583	42.136
	-8.188779	42.1357
	-8.188877	42.1356
	-8.188992	42.13555
	-8.189475	42.13543
	-8.189592	42.13535
	-8.188802	42.1346
	-8.189125	42.13392
	-8.19052	42.13172
	-8.19264	42.12872
	-8.192938	42.12809
	-8.19302	42.12735
	-8.192329	42.12364
	-8.192246	42.12254
	-8.192317	42.12172
	-8.191885	42.12048
	-8.190377	42.11728
	-8.188859	42.11208
	-8.188513	42.11071
	-8.188122	42.10722
	-8.187544	42.10417
	-8.186623	42.09957
	-8.185996	42.09753
	-8.185791	42.09658
	-8.186351	42.09439
	-8.186566	42.09267
	-8.186806	42.0881
	-8.186649	42.08793
	-8.186753	42.0877
	-8.186889	42.08745
	-8.186836	42.08725
	-8.186653	42.08719
	-8.186406	42.08698
	-8.186246	42.08673
	-8.186204	42.08611
	-8.186055	42.08583
	-8.185762	42.0856
	-8.185768	42.08526
	-8.185711	42.08483
	-8.185289	42.08282
	-8.185927	42.08113
	-8.185703	42.08071
	-8.185201	42.08025
	-8.18456	42.07935
	-8.184289	42.07875
	-8.184164	42.07817
	-8.184268	42.07757
	-8.184442	42.07718
	-8.186732	42.07492
	-8.186991	42.07451
	-8.187116	42.07417
	-8.182139	42.0664
	-8.18069	42.06623
	-8.176159	42.06612
	-8.174088	42.06645
	-8.172366	42.0669
	-8.171273	42.06727
	-8.169957	42.06804
	-8.163907	42.07314
	-8.162896	42.07375
	-8.158803	42.07613
	-8.148931	42.07942
	-8.137545	42.07562
	-8.123969	42.0827
	-8.118337	42.08165
	-8.107078	42.07583
	-8.104357	42.07413
	-8.10055	42.07235
	-8.096708	42.07135
	-8.095456	42.06848
	-8.092911	42.06385
	-8.090915	42.06142
	-8.08872	42.05849
	-8.087862	42.05682
	-8.086782	42.05289
	-8.085118	42.04928
	-8.085168	42.0483
	-8.084113	42.04691
	-8.084076	42.04439
	-8.083701	42.03857
	-8.082668	42.0356
	-8.083621	42.0323
	-8.083721	42.0304
	-8.082753	42.02797
	-8.084053	42.02498
	-8.084502	42.02061
	-8.085285	42.01652
	-8.087552	42.01425
	-8.088048	42.01413
	-8.089156	42.01357
	-8.092299	42.0116
	-8.094173	42.01236
	-8.099006	42.00874
	-8.109745	42.00679
	-8.11466	42.00415
	-8.124321	42.00592
	-8.127413	42.00496
	-8.13007	42.00312
	-8.132351	41.99969
	-8.140413	41.98832
	-8.141069	41.988
	-8.143047	41.98718
	-8.144513	41.9868
	-8.146959	41.98626
	-8.163297	41.98225
	-8.16354	41.97845
	-8.163538	41.97764
	-8.163086	41.97623
	-8.163004	41.97511
	-8.163787	41.97339
	-8.165837	41.96978
	-8.166354	41.96906
	-8.167184	41.9674
	-8.168008	41.9671
	-8.168375	41.96674
	-8.169429	41.96548
	-8.16946	41.965
	-8.169394	41.96447
	-8.169399	41.96319
	-8.1695	41.96278
	-8.169805	41.96255
	-8.170182	41.96235
	-8.170727	41.96221
	-8.172646	41.96216
	-8.173698	41.96203
	-8.174146	41.96187
	-8.174367	41.96162
	-8.174491	41.96132
	-8.174457	41.96025
	-8.174655	41.95988
	-8.174973	41.95954
	-8.175703	41.95908
	-8.176532	41.95838
	-8.176464	41.95806
	-8.175133	41.9555
	-8.174995	41.95503
	-8.17506	41.9546
	-8.175318	41.95429
	-8.176687	41.95387
	-8.179769	41.95341
	-8.180026	41.95313
	-8.180583	41.95208
	-8.181269	41.95124
	-8.181683	41.95098
	-8.184108	41.95005
	-8.18463	41.94975
	-8.185632	41.94875
	-8.186472	41.94815
	-8.186994	41.94792
	-8.187527	41.94777
	-8.189068	41.94704
	-8.190447	41.94583
	-8.19106	41.94505
	-8.191875	41.94354
	-8.192145	41.94319
	-8.192668	41.94286
	-8.19394	41.94248
	-8.194756	41.94181
	-8.195757	41.94084
	-8.196443	41.94003
	-8.196978	41.93971
	-8.197849	41.9395
	-8.198166	41.93928
	-8.198293	41.93873
	-8.198288	41.93817
	-8.198066	41.93764
	-8.198949	41.93643
	-8.200909	41.93407
	-8.201694	41.93299
	-8.202514	41.93203
	-8.202725	41.93157
	-8.202643	41.93043
	-8.20288	41.92977
	-8.204356	41.92747
	-8.205133	41.92607
	-8.206784	41.92424
	-8.207234	41.92395
	-8.210184	41.92335
	-8.210633	41.92307
	-8.210965	41.92257
	-8.21159	41.92082
	-8.211991	41.91859
	-8.212574	41.91725
	-8.213197	41.91659
	-8.215513	41.91459
	-8.216477	41.91365
	-8.216833	41.91317
	-8.216984	41.91262
	-8.216677	41.91109
	-8.215326	41.9072
	-8.216307	41.90686
	-8.216401	41.90608
	-8.216277	41.90435
	-8.213641	41.90102
	-8.21349	41.9006
	-8.213531	41.90016
	-8.214428	41.89879
	-8.21462	41.89787
	-8.214541	41.89742
	-8.214049	41.89727
	-8.212867	41.89726
	-8.212182	41.89716
	-8.211642	41.89695
	-8.210732	41.89643
	-8.207263	41.89421
	-8.20506	41.89305
	-8.204474	41.8917
	-8.203913	41.89022
	-8.203642	41.8897
	-8.203024	41.88905
	-8.202307	41.8885
	-8.201664	41.88789
	-8.201168	41.88708
	-8.199792	41.88432
	-8.200546	41.88285
	-8.197382	41.87945
	-8.197763	41.87886
	-8.199537	41.87868
	-8.200166	41.87847
	-8.200353	41.878
	-8.200408	41.87741
	-8.200284	41.87575
	-8.199995	41.87477
	-8.19954	41.87356
	-8.199032	41.87373
	-8.198523	41.87398
	-8.197914	41.87446
	-8.197078	41.8748
	-8.196245	41.87493
	-8.195137	41.87493
	-8.193916	41.87519
	-8.193465	41.87559
	-8.193037	41.87613
	-8.192178	41.87638
	-8.190731	41.87641
	-8.189756	41.87631
	-8.187538	41.87547
	-8.185617	41.87489
	-8.183801	41.87453
	-8.182658	41.87443
	-8.182185	41.87464
	-8.181817	41.87516
	-8.181208	41.87567
	-8.180108	41.87598
	-8.178961	41.87607
	-8.177215	41.87596
	-8.176564	41.87605
	-8.175227	41.87693
	-8.174026	41.87751
	-8.172645	41.87808
	-8.170421	41.87859
	-8.170179	41.87675
	-8.168857	41.87552
	-8.168635	41.87315
	-8.168726	41.87175
	-8.167637	41.87019
	-8.168052	41.86976
	-8.167123	41.8671
	-8.166189	41.86383
	-8.165963	41.8627
	-8.16594	41.86166
	-8.163122	41.86066
	-8.161513	41.86019
	-8.162029	41.85146
	-8.257599	41.758
	-8.286438	41.69906
	-8.264465	41.63187
	-8.251419	41.56563
	-8.258972	41.51269
	-8.251419	41.47
	-8.277512	41.43655
	-8.295364	41.37732
	-8.291245	41.32681
	-8.277512	41.29586
	-8.240433	41.25974
	-8.249359	41.19519
	-8.296738	41.15798
	-8.323517	41.0897
	-8.342056	40.99389
	-8.348236	40.90521
	-8.362656	40.83252
	-8.396988	40.77274
	-8.411407	40.61291
	-8.414841	40.54981
	-8.432007	40.50231
	-8.418274	40.45896
	-8.421021	40.41245
	-8.396988	40.37061
	-8.381195	40.33503
	-8.399048	40.29733
	-8.358536	40.22083
	-8.34343	40.16943
	-8.361282	40.10591
	-8.346863	40.04444
	-8.306351	39.9408
	-8.281631	39.8776
	-8.272018	39.79482
	-8.274078	39.72409
	-8.288498	39.68817
	-8.324203	39.65011
	-8.339996	39.566
	-8.392181	39.50828
	-8.410874	39.45553
	-8.428818	39.45483
	-8.436852	39.45125
	-8.439633	39.4534
	-8.43438	39.4565
	-8.436234	39.45984
	-8.443649	39.45603
	-8.460026	39.45269
	-8.472694	39.44195
	-8.485054	39.43932
	-8.489688	39.42858
	-8.502357	39.41784
	-8.502357	39.41402
	-8.516571	39.40638
	-8.521205	39.40638
	-8.537273	39.3966
	-8.542834	39.39827
	-8.55643	39.39874
	-8.568172	39.4028
	-8.581149	39.41211
	-8.588874	39.4102
	-8.591655	39.40424
	-8.596598	39.40615
	-8.603087	39.41713
	-8.609273	39.4239
	-8.614044	39.42297
	-8.62653	39.42951
	-8.632651	39.43048
	-8.634763	39.42221
	-8.635433	39.42203
	-8.635573	39.42195
	-8.636086	39.42148
	-8.636177	39.42137
	-8.636508	39.42075
	-8.636599	39.42047
	-8.636865	39.4202
	-8.636951	39.42013
	-8.636753	39.4199
	-8.63776	39.41924
	-8.647727	39.42288
	-8.652971	39.41917
	-8.652534	39.4158
	-8.657559	39.41512
	-8.656467	39.41039
	-8.660399	39.40921
	-8.662218	39.40939
	-8.662352	39.41001
	-8.662716	39.41078
	-8.662761	39.41084
	-8.663353	39.41135
	-8.663558	39.41146
	-8.663716	39.4118
	-8.663846	39.41219
	-8.664845	39.41326
	-8.664963	39.41331
	-8.665477	39.41348
	-8.665899	39.41352
	-8.666158	39.41392
	-8.666463	39.41431
	-8.666745	39.4146
	-8.667561	39.4153
	-8.667897	39.41554
	-8.66823	39.41571
	-8.668499	39.41582
	-8.668729	39.41594
	-8.669016	39.41606
	-8.67002	39.4162
	-8.670157	39.41618
	-8.670582	39.41607
	-8.670856	39.41625
	-8.671143	39.41639
	-8.671454	39.41652
	-8.671995	39.41682
	-8.672222	39.417
	-8.672592	39.41725
	-8.672856	39.41739
	-8.673146	39.41753
	-8.674006	39.41787
	-8.674483	39.41797
	-8.675028	39.41803
	-8.675633	39.41806
	-8.676047	39.41804
	-8.678134	39.41829
	-8.678518	39.41832
	-8.678918	39.41831
	-8.679376	39.41825
	-8.679561	39.41824
	-8.680071	39.41827
	-8.680415	39.41825
	-8.681294	39.41815
	-8.683037	39.41592
	-8.68081	39.41418
	-8.680102	39.41426
	-8.679476	39.41424
	-8.678943	39.41427
	-8.678554	39.41431
	-8.677106	39.41414
	-8.676774	39.41409
	-8.677878	39.41191
	-8.681374	39.41023
	-8.68487	39.41174
	-8.693828	39.40482
	-8.694483	39.39942
	-8.697979	39.39891
	-8.703793	39.4036
	-8.703989	39.40412
	-8.703994	39.40427
	-8.704165	39.40503
	-8.704326	39.40539
	-8.7047	39.40595
	-8.704963	39.40623
	-8.70518	39.40652
	-8.705365	39.40673
	-8.705694	39.40706
	-8.706068	39.40736
	-8.706555	39.40765
	-8.706879	39.4079
	-8.707385	39.40817
	-8.707585	39.40824
	-8.707881	39.40878
	-8.708108	39.40911
	-8.708231	39.40925
	-8.708611	39.40996
	-8.708799	39.41018
	-8.709059	39.41044
	-8.709222	39.41058
	-8.7098	39.41121
	-8.710238	39.41156
	-8.710629	39.41179
	-8.711051	39.41198
	-8.71129	39.41205
	-8.711434	39.41265
	-8.711706	39.41316
	-8.712078	39.41374
	-8.714511	39.41427
	-8.714563	39.4147
	-8.714584	39.41473
	-8.715186	39.41535
	-8.715711	39.4157
	-8.718191	39.41519
	-8.718735	39.41563
	-8.723542	39.40837
	-8.729878	39.40786
	-8.739055	39.40043
	-8.743862	39.40128
	-8.750635	39.39891
	-8.757408	39.39925
	-8.763744	39.4055
	-8.755878	39.41428
	-8.757845	39.42255
	-8.752164	39.42424
	-8.749761	39.42305
	-8.742332	39.43369
	-8.73687	39.42997
	-8.730534	39.4298
	-8.722887	39.43234
	-8.715677	39.4379
	-8.715021	39.44246
	-8.724635	39.45393
	-8.731408	39.4536
	-8.753348	39.46402
	-8.753585	39.4638
	-8.754055	39.46354
	-8.754735	39.4632
	-8.755152	39.46292
	-8.755743	39.46266
	-8.756793	39.46239
	-8.757443	39.46214
	-8.757556	39.46207
	-8.757861	39.46193
	-8.757916	39.46189
	-8.758358	39.46168
	-8.75882	39.46148
	-8.759059	39.46139
	-8.759353	39.4613
	-8.759824	39.4611
	-8.76049	39.46088
	-8.761128	39.46078
	-8.761288	39.46078
	-8.761409	39.46075
	-8.76186	39.46069
	-8.762182	39.46068
	-8.762814	39.46073
	-8.76301	39.46077
	-8.763318	39.46079
	-8.763848	39.46068
	-8.765017	39.46068
	-8.765541	39.46085
	-8.765906	39.46072
	-8.76643	39.46062
	-8.766769	39.46003
	-8.766859	39.45983
	-8.767357	39.45914
	-8.767615	39.45892
	-8.767807	39.45866
	-8.768058	39.45838
	-8.768162	39.45829
	-8.770988	39.45842
	-8.770871	39.46096
	-8.771005	39.46106
	-8.770858	39.46124
	-8.770376	39.46176
	-8.769633	39.46308
	-8.76945	39.46335
	-8.76916	39.46371
	-8.768677	39.46414
	-8.76846	39.46428
	-8.76726	39.46459
	-8.767095	39.46457
	-8.766987	39.46458
	-8.766675	39.46473
	-8.766402	39.46484
	-8.765415	39.46497
	-8.765282	39.46495
	-8.764751	39.46481
	-8.764478	39.4647
	-8.764459	39.46468
	-8.764126	39.46468
	-8.763556	39.46479
	-8.76297	39.46478
	-8.762594	39.46476
	-8.762257	39.46471
	-8.762189	39.46469
	-8.762137	39.46469
	-8.761998	39.46473
	-8.761422	39.46478
	-8.761172	39.46486
	-8.760816	39.46503
	-8.760307	39.46519
	-8.759585	39.46552
	-8.759438	39.46562
	-8.759071	39.4658
	-8.75806	39.46619
	-8.757075	39.46645
	-8.756699	39.46669
	-8.756688	39.46686
	-8.75675	39.46717
	-8.756953	39.46748
	-8.757069	39.46769
	-8.757226	39.46816
	-8.757404	39.46858
	-8.757663	39.46926
	-8.757675	39.46942
	-8.757657	39.46987
	-8.757774	39.46996
	-8.757885	39.47
	-8.758999	39.47103
	-8.759238	39.47159
	-8.759384	39.47243
	-8.75938	39.47253
	-8.759075	39.47339
	-8.759032	39.47357
	-8.759006	39.47358
	-8.758982	39.47365
	-8.758898	39.47379
	-8.758776	39.47372
	-8.758391	39.47396
	-8.759811	39.47569
	-8.772047	39.47906
	-8.789089	39.47906
	-8.802635	39.48277
	-8.817055	39.47822
	-8.846769	39.47232
	-8.863374	39.47535
	-8.872769	39.47535
	-8.875609	39.47434
	-8.883038	39.47417
	-8.892433	39.4654
	-8.901759	39.46584
	-8.902202	39.46442
	-8.902587	39.46325
	-8.902691	39.46298
	-8.902835	39.46271
	-8.902963	39.46251
	-8.90308	39.46236
	-8.903239	39.46218
	-8.903504	39.46193
	-8.903818	39.4617
	-8.903945	39.46113
	-8.904014	39.46092
	-8.904189	39.46056
	-8.904428	39.46023
	-8.904653	39.46
	-8.904931	39.45979
	-8.90464	39.45978
	-8.904417	39.45974
	-8.903552	39.45954
	-8.903008	39.45938
	-8.90234	39.4591
	-8.901713	39.45896
	-8.901422	39.45887
	-8.901034	39.45869
	-8.900754	39.45853
	-8.900496	39.45848
	-8.900285	39.45841
	-8.900188	39.45839
	-8.899998	39.45832
	-8.899692	39.45817
	-8.89939	39.45796
	-8.899126	39.45771
	-8.898906	39.45743
	-8.898674	39.45708
	-8.898541	39.45686
	-8.898404	39.45655
	-8.898297	39.45615
	-8.898269	39.45596
	-8.898253	39.45561
	-8.89812	39.45546
	-8.897979	39.45526
	-8.897704	39.45483
	-8.897605	39.45471
	-8.897376	39.45436
	-8.897168	39.45417
	-8.896904	39.45387
	-8.89674	39.45365
	-8.896554	39.45335
	-8.89618	39.45317
	-8.895846	39.45294
	-8.895385	39.45242
	-8.895973	39.44965
	-8.897622	39.45
	-8.897733	39.44954
	-8.897754	39.44954
	-8.898168	39.44963
	-8.898428	39.44972
	-8.898687	39.44984
	-8.898978	39.45002
	-8.89913	39.45014
	-8.899447	39.45045
	-8.899718	39.45078
	-8.899894	39.45105
	-8.900062	39.4514
	-8.900207	39.45152
	-8.900432	39.45176
	-8.900634	39.45203
	-8.900814	39.45232
	-8.901112	39.45273
	-8.901491	39.45297
	-8.901762	39.45321
	-8.901973	39.45345
	-8.902283	39.45403
	-8.902303	39.45409
	-8.902409	39.45469
	-8.902403	39.45487
	-8.902845	39.45512
	-8.903235	39.4552
	-8.903539	39.45528
	-8.903919	39.45542
	-8.904368	39.45562
	-8.905075	39.45579
	-8.905722	39.45574
	-8.90614	39.45575
	-8.906362	39.45578
	-8.906726	39.45587
	-8.906989	39.45595
	-8.907626	39.45618
	-8.908265	39.45647
	-8.908684	39.45668
	-8.908966	39.45684
	-8.924114	39.43234
	-8.932635	39.42272
	-8.935038	39.41225
	-8.9405	39.40533
	-8.945744	39.39115
	-8.955357	39.39165
	-8.957979	39.39317
	-8.961694	39.39199
	-8.969122	39.39402
	-8.976332	39.38743
	-8.983761	39.38456
	-8.984853	39.38135
	-8.989143	39.37762
	-8.989235	39.3754
	-8.989807	39.37486
	-8.989755	39.37447
	-8.989727	39.37402
	-8.989712	39.37324
	-8.989731	39.37298
	-8.989841	39.37252
	-8.989925	39.37229
	-8.990055	39.37201
	-8.990268	39.37167
	-8.990396	39.37151
	-8.990602	39.3713
	-8.990742	39.37117
	-8.991191	39.37081
	-8.992001	39.36971
	-8.992112	39.36954
	-8.992103	39.36915
	-8.992125	39.36861
	-8.992293	39.36755
	-8.992361	39.3673
	-8.992466	39.36702
	-8.992749	39.36652
	-8.992916	39.3663
	-8.993216	39.36595
	-8.993245	39.36525
	-8.99329	39.36495
	-8.993387	39.36455
	-8.993577	39.36401
	-8.993718	39.36369
	-8.994381	39.36249
	-8.994608	39.36215
	-8.994968	39.36167
	-8.995165	39.36144
	-8.995298	39.36131
	-8.995649	39.36105
	-8.995917	39.3609
	-8.996181	39.36079
	-8.996541	39.36069
	-8.996907	39.36064
	-8.997229	39.36062
	-8.997959	39.3613
	-9.00124	39.35483
	-9.000366	39.34554
	-8.998181	39.34335
	-8.998294	39.34056
	-8.997237	39.34199
	-8.996971	39.34236
	-8.996937	39.34243
	-8.996811	39.34237
	-8.994525	39.34363
	-8.993162	39.34115
	-8.993279	39.34081
	-8.993398	39.34055
	-8.993605	39.34018
	-8.995589	39.33747
	-8.995882	39.33711
	-8.996082	39.3369
	-8.996495	39.33652
	-8.996792	39.33627
	-8.997022	39.3361
	-8.997095	39.33606
	-8.997054	39.33514
	-8.996965	39.3338
	-8.996969	39.3335
	-8.996993	39.33324
	-8.997065	39.3328
	-8.997148	39.33249
	-8.997381	39.33196
	-8.99764	39.33155
	-8.997881	39.33125
	-8.998062	39.33106
	-8.996433	39.32746
	-9.005711	39.3227
	-9.007889	39.31688
	-9.013036	39.31228
	-9.014001	39.3113
	-9.01462	39.31057
	-9.016327	39.30971
	-9.017292	39.30887
	-9.019024	39.30833
	-9.02041	39.30657
	-9.02339	39.30537
	-9.025716	39.3053
	-9.029626	39.30729
	-9.02918	39.30878
	-9.031605	39.31196
	-9.035268	39.3138
	-9.036753	39.31357
	-9.039623	39.31487
	-9.040514	39.31621
	-9.043681	39.31774
	-9.044424	39.31893
	-9.046205	39.31889
	-9.047443	39.31832
	-9.049422	39.31966
	-9.052243	39.32207
	-9.05259	39.32433
	-9.055164	39.32793
	-9.055658	39.32988
	-9.055361	39.33091
	-9.058974	39.3326
	-9.059717	39.33485
	-9.059321	39.33577
	-9.06041	39.33738
	-9.060657	39.33941
	-9.063231	39.34086
	-9.063429	39.34213
	-9.065012	39.34324
	-9.065408	39.34488
	-9.067091	39.34607
	-9.068972	39.34603
	-9.06991	39.34612
	-9.07124	39.34779
	-9.07313	39.3495
	-9.076349	39.35193
	-9.078099	39.34896
	-9.083313	39.3499
	-9.084678	39.34866
	-9.090539	39.34963
	-9.090539	39.35178
	-9.091826	39.3522
	-9.093855	39.3512
	-9.098557	39.35147
	-9.101427	39.35377
	-9.106772	39.35373
	-9.10994	39.35533
	-9.113206	39.35583
	-9.115483	39.35445
	-9.117017	39.35262
	-9.119393	39.35346
	-9.121521	39.3548
	-9.125084	39.35491
	-9.125975	39.35817
	-9.128895	39.35958
	-9.130033	39.36146
	-9.132211	39.36199
	-9.134042	39.36031
	-9.136269	39.35993
	-9.137772	39.36079
	-9.138804	39.36107
	-9.139766	39.36155
	-9.140729	39.3614
	-9.142181	39.36051
	-9.143441	39.36064
	-9.144246	39.36083
	-9.145068	39.36059
	-9.147465	39.36032
	-9.150073	39.36029
	-9.151473	39.36086
	-9.152767	39.36113
	-9.15366	39.3618
	-9.154185	39.36271
	-9.154815	39.3644
	-9.155515	39.36501
	-9.155917	39.36578
	-9.156687	39.36638
	-9.157912	39.36619
	-9.158822	39.36628
	-9.160729	39.3669
	-9.162899	39.3683
	-9.166468	39.36969
	-9.169145	39.37031
	-9.170318	39.37096
	-9.171438	39.37177
	-9.175042	39.37241
	-9.180327	39.37319
	-9.183564	39.37388
	-9.185733	39.3739
	-9.188568	39.37355
	-9.190913	39.37448
	-9.199434	39.37767
	-9.199994	39.3785
	-9.200449	39.38099
	-9.201499	39.3853
	-9.200834	39.38726
	-9.200257	39.38849
	-9.199207	39.3894
	-9.198892	39.39022
	-9.199102	39.39148
	-9.200834	39.39216
	-9.204614	39.39482
	-9.206014	39.39606
	-9.205664	39.39681
	-9.205699	39.39786
	-9.206311	39.39965
	-9.208555	39.40876
	-9.221027	39.42436
	-9.230826	39.42673
	-9.235578	39.42596
	-9.240527	39.43132
	-9.817645	39.56305
END
END
