Russia_Ingushetia
1
	44.84794	43.56553
	44.8519	43.56523
	44.8568	43.56491
	44.86016	43.55288
	44.86037	43.55027
	44.85949	43.54848
	44.86075	43.54708
	44.86149	43.54481
	44.8648	43.5424
	44.86647	43.53953
	44.8701	43.53578
	44.87357	43.53363
	44.8814	43.53075
	44.88613	43.52835
	44.89851	43.52227
	44.90628	43.52798
	44.91635	43.52589
	44.92385	43.52158
	44.92844	43.52545
	44.93494	43.52338
	44.93977	43.5205
	44.94413	43.5196
	44.94566	43.52203
	44.95664	43.52203
	44.97014	43.52862
	44.97589	43.52762
	44.99046	43.52522
	44.99234	43.52534
	44.99601	43.52501
	44.99936	43.52499
	45.01778	43.52309
	45.02666	43.51086
	45.04136	43.51079
	45.05077	43.51077
	45.07256	43.50396
	45.07843	43.49912
	45.08391	43.49305
	45.08907	43.4839
	45.09019	43.48282
	45.08987	43.48248
	45.09008	43.48212
	45.08942	43.48202
	45.08822	43.48078
	45.08683	43.48077
	45.08673	43.48075
	45.08134	43.47687
	45.08018	43.47649
	45.07852	43.47649
	45.06952	43.47687
	45.06927	43.47689
	45.06226	43.47808
	45.05952	43.47768
	45.06794	43.45187
	45.10053	43.45097
	45.13175	43.4184
	45.15852	43.41104
	45.15871	43.40363
	45.14546	43.4018
	45.14425	43.39359
	45.13939	43.39065
	45.13458	43.38858
	45.13347	43.37893
	45.13278	43.37177
	45.13204	43.35925
	45.13146	43.34771
	45.13031	43.33786
	45.1316	43.32305
	45.10919	43.31505
	45.11095	43.3074
	45.11197	43.28043
	45.11443	43.2653
	45.12873	43.22332
	45.12935	43.22122
	45.13175	43.21541
	45.13316	43.21143
	45.1331	43.19399
	45.14015	43.18521
	45.15324	43.17997
	45.15523	43.1769
	45.17414	43.18006
	45.17657	43.18021
	45.17823	43.17827
	45.19196	43.16383
	45.19156	43.16083
	45.18994	43.16023
	45.19017	43.1547
	45.18892	43.1504
	45.18403	43.14849
	45.18663	43.14619
	45.18528	43.14514
	45.18433	43.14543
	45.18094	43.14314
	45.18174	43.14208
	45.18594	43.14321
	45.18752	43.13786
	45.18786	43.12012
	45.18547	43.11069
	45.18308	43.10707
	45.17992	43.10346
	45.17781	43.09941
	45.17479	43.09735
	45.17702	43.09621
	45.18012	43.09776
	45.18404	43.10131
	45.18922	43.10393
	45.1934	43.10396
	45.19422	43.10141
	45.19112	43.09613
	45.18577	43.08607
	45.17932	43.07157
	45.1768	43.06747
	45.17691	43.06642
	45.17587	43.06009
	45.17882	43.05817
	45.18749	43.05746
	45.18427	43.05335
	45.18672	43.04626
	45.1885	43.0422
	45.18922	43.03856
	45.18951	43.03552
	45.18865	43.0303
	45.18666	43.02667
	45.18138	43.0207
	45.17875	43.01958
	45.17848	43.01191
	45.18451	42.99938
	45.18564	42.99477
	45.18551	42.98823
	45.18789	42.98151
	45.19124	42.97816
	45.20051	42.97648
	45.20626	42.97553
	45.21028	42.9738
	45.21097	42.97126
	45.21113	42.96323
	45.21079	42.94436
	45.24467	42.93187
	45.24587	42.92938
	45.24566	42.92736
	45.24366	42.922
	45.24062	42.91755
	45.24281	42.91507
	45.24559	42.91207
	45.24718	42.90932
	45.24641	42.90571
	45.24587	42.90379
	45.23983	42.89155
	45.237	42.8888
	45.22612	42.88202
	45.22092	42.88113
	45.21238	42.87652
	45.20977	42.87223
	45.20371	42.8596
	45.20291	42.85725
	45.1954	42.85404
	45.18886	42.85214
	45.18352	42.84622
	45.18264	42.84329
	45.18417	42.83957
	45.18724	42.838
	45.18219	42.83706
	45.1722	42.83685
	45.16929	42.83536
	45.17265	42.83243
	45.17735	42.83071
	45.18001	42.82753
	45.18416	42.82517
	45.1912	42.82728
	45.19264	42.82933
	45.19708	42.82752
	45.19564	42.8136
	45.19652	42.80722
	45.1938	42.80634
	45.18589	42.80306
	45.1815	42.79675
	45.1757	42.78184
	45.16085	42.78403
	45.15488	42.78111
	45.14825	42.77778
	45.14535	42.77046
	45.14165	42.76465
	45.13428	42.76156
	45.13111	42.75846
	45.12585	42.75614
	45.11742	42.75266
	45.1132	42.74529
	45.11004	42.74181
	45.0895	42.72748
	45.08679	42.71222
	45.08494	42.71165
	45.08294	42.71029
	45.08	42.70995
	45.07923	42.7087
	45.07753	42.70768
	45.07491	42.70723
	45.07136	42.70552
	45.07044	42.70495
	45.06997	42.70336
	45.07028	42.70109
	45.06951	42.69938
	45.06719	42.6979
	45.06457	42.69609
	45.06149	42.69688
	45.05979	42.69586
	45.05701	42.69575
	45.05578	42.69507
	45.05285	42.69268
	45.04899	42.69302
	45.04375	42.69268
	45.03805	42.6928
	45.03543	42.69348
	45.03227	42.69648
	45.03289	42.70092
	45.03165	42.70217
	45.03042	42.70422
	45.02657	42.70581
	45.02333	42.70695
	45.02148	42.70797
	45.02009	42.71002
	45.01778	42.71218
	45.01454	42.71241
	45.01115	42.71309
	45.0059	42.71639
	45.00012	42.72185
	44.99642	42.72333
	44.99472	42.72708
	44.99333	42.73049
	44.98469	42.7355
	44.98315	42.73663
	44.9833	42.73857
	44.98207	42.74164
	44.97975	42.74494
	44.97574	42.74641
	44.97049	42.74812
	44.96694	42.74903
	44.96169	42.74857
	44.95629	42.74868
	44.95166	42.74982
	44.94595	42.75084
	44.94024	42.75061
	44.93608	42.75015
	44.92635	42.75037
	44.92466	42.74912
	44.9225	42.7481
	44.91941	42.74809
	44.91463	42.74889
	44.91247	42.74957
	44.90953	42.7507
	44.90568	42.74877
	44.90259	42.74899
	44.89688	42.74796
	44.89333	42.74807
	44.88747	42.74704
	44.88578	42.74579
	44.88532	42.74238
	44.88224	42.74021
	44.88085	42.73726
	44.87916	42.7338
	44.87531	42.73163
	44.87238	42.7297
	44.87054	42.72742
	44.86916	42.72424
	44.86932	42.72026
	44.87025	42.71787
	44.87041	42.71571
	44.87119	42.71184
	44.86965	42.71036
	44.86796	42.70797
	44.86457	42.70558
	44.86457	42.70421
	44.86643	42.70171
	44.86767	42.70012
	44.86844	42.69796
	44.86798	42.6958
	44.86814	42.69409
	44.8666	42.69102
	44.86399	42.68765
	44.86076	42.68503
	44.85984	42.68287
	44.85722	42.68048
	44.85738	42.67866
	44.85585	42.67695
	44.85384	42.67569
	44.84984	42.67512
	44.84923	42.67364
	44.84815	42.67296
	44.84337	42.67363
	44.84044	42.67454
	44.83612	42.67431
	44.83582	42.67101
	44.83675	42.66851
	44.83722	42.66635
	44.83538	42.66487
	44.83385	42.66107
	44.83217	42.65504
	44.8308	42.64753
	44.8285	42.64366
	44.82358	42.64172
	44.82389	42.64001
	44.82391	42.63262
	44.82592	42.63001
	44.82716	42.62705
	44.82717	42.62296
	44.82934	42.61898
	44.82903	42.61716
	44.82735	42.6159
	44.82349	42.61658
	44.8178	42.61612
	44.81087	42.61588
	44.80887	42.61554
	44.80379	42.61473
	44.8004	42.61575
	44.79422	42.62063
	44.79283	42.62294
	44.78881	42.62635
	44.78788	42.6293
	44.78509	42.63271
	44.78216	42.63441
	44.77923	42.63565
	44.77752	42.63872
	44.77351	42.64122
	44.77104	42.64189
	44.76781	42.64189
	44.76657	42.64279
	44.76392	42.65155
	44.76376	42.65307
	44.76468	42.65523
	44.76375	42.65637
	44.76111	42.66102
	44.75894	42.66375
	44.75663	42.66488
	44.75523	42.66784
	44.75553	42.6692
	44.75675	42.67182
	44.75721	42.6741
	44.75628	42.67603
	44.7555	42.6783
	44.75224	42.68353
	44.74914	42.68682
	44.74744	42.68772
	44.7465	42.69079
	44.74633	42.69511
	44.74601	42.69773
	44.74462	42.70011
	44.74553	42.70205
	44.74698	42.70485
	44.74831	42.7066
	44.75025	42.70835
	44.7522	42.7109
	44.75285	42.7141
	44.7484	42.71772
	44.74654	42.72113
	44.74329	42.7234
	44.74217	42.72583
	44.74134	42.72741
	44.73004	42.72855
	44.72811	42.72964
	44.72559	42.73235
	44.72332	42.73351
	44.71801	42.73585
	44.71503	42.73887
	44.71435	42.74201
	44.71036	42.74181
	44.70569	42.74176
	44.69847	42.74251
	44.69544	42.74421
	44.69095	42.74738
	44.68986	42.74976
	44.68796	42.75157
	44.68755	42.75308
	44.68125	42.7547
	44.67997	42.75591
	44.68017	42.7566
	44.67835	42.76526
	44.67139	42.77011
	44.66799	42.77239
	44.6667	42.77323
	44.668	42.77537
	44.66871	42.77858
	44.66784	42.78408
	44.668	42.79758
	44.66316	42.80327
	44.66217	42.80693
	44.65858	42.81126
	44.65883	42.81154
	44.66047	42.81646
	44.6642	42.82463
	44.66489	42.82877
	44.66524	42.82976
	44.66479	42.82992
	44.66431	42.83015
	44.66346	42.8306
	44.66308	42.83085
	44.66284	42.83106
	44.66264	42.83126
	44.6623	42.83164
	44.66215	42.83183
	44.66165	42.83219
	44.66153	42.83229
	44.66132	42.83251
	44.66123	42.83262
	44.66092	42.83313
	44.66085	42.83329
	44.66071	42.83392
	44.6607	42.83441
	44.66072	42.83453
	44.66099	42.83534
	44.66109	42.83552
	44.66135	42.83585
	44.66157	42.83609
	44.65982	42.83758
	44.65755	42.83929
	44.65552	42.84104
	44.65446	42.84175
	44.65196	42.8421
	44.64984	42.84235
	44.64759	42.84296
	44.64651	42.8448
	44.64773	42.84758
	44.64777	42.85179
	44.64729	42.85339
	44.64811	42.85792
	44.64789	42.85897
	44.6443	42.86353
	44.64201	42.86573
	44.63981	42.86825
	44.63753	42.87153
	44.6337	42.87725
	44.63173	42.88418
	44.63197	42.88627
	44.63162	42.88987
	44.63186	42.89199
	44.63375	42.89185
	44.63454	42.8917
	44.6371	42.89069
	44.64027	42.88785
	44.64079	42.88524
	44.64701	42.88114
	44.64897	42.8817
	44.6526	42.8814
	44.65628	42.88061
	44.66387	42.87864
	44.67356	42.87308
	44.67454	42.87023
	44.67898	42.86898
	44.68159	42.86926
	44.68744	42.86746
	44.69385	42.86607
	44.69698	42.86782
	44.70169	42.86793
	44.70367	42.86635
	44.70278	42.86523
	44.70416	42.86447
	44.70362	42.86371
	44.702	42.86328
	44.70123	42.86192
	44.70051	42.85965
	44.70132	42.85792
	44.70188	42.85706
	44.7028	42.85658
	44.705	42.857
	44.70692	42.85689
	44.71654	42.85541
	44.72409	42.8526
	44.73389	42.85204
	44.73801	42.84863
	44.74083	42.84639
	44.74483	42.84463
	44.75084	42.84262
	44.75347	42.84332
	44.75439	42.8499
	44.7607	42.85051
	44.7667	42.85074
	44.77096	42.85374
	44.7734	42.85521
	44.77493	42.85674
	44.77704	42.8598
	44.78375	42.85987
	44.78656	42.8591
	44.79021	42.85831
	44.79276	42.859
	44.79408	42.85978
	44.7958	42.86039
	44.79827	42.85956
	44.80006	42.85854
	44.80297	42.85724
	44.80579	42.85651
	44.80792	42.85506
	44.81003	42.85493
	44.81263	42.85118
	44.81649	42.84828
	44.82437	42.84487
	44.82802	42.84251
	44.83013	42.84004
	44.83578	42.83875
	44.84059	42.83791
	44.84812	42.8364
	44.85365	42.83558
	44.85483	42.83675
	44.85507	42.83824
	44.85471	42.83939
	44.85956	42.8447
	44.85986	42.8471
	44.85882	42.84969
	44.85753	42.85221
	44.85963	42.85611
	44.85656	42.85669
	44.86067	42.86033
	44.86309	42.85986
	44.86572	42.86061
	44.86881	42.85864
	44.87006	42.86111
	44.86847	42.86227
	44.86493	42.8639
	44.86451	42.86815
	44.86409	42.87188
	44.86388	42.87473
	44.86247	42.87755
	44.85953	42.88054
	44.85993	42.88351
	44.86346	42.8848
	44.86579	42.8841
	44.87638	42.88263
	44.87885	42.88253
	44.88037	42.90173
	44.88128	42.9056
	44.88143	42.9124
	44.88172	42.91511
	44.89462	42.91988
	44.90257	42.9222
	44.90532	42.92427
	44.90533	42.93699
	44.92373	42.93123
	44.92585	42.93076
	44.92761	42.93112
	44.93596	42.93611
	44.9429	42.93964
	44.94301	42.94093
	44.94207	42.9427
	44.94207	42.94434
	44.94243	42.9467
	44.94196	42.94752
	44.9409	42.94764
	44.94031	42.94823
	44.94102	42.94881
	44.94301	42.94823
	44.94607	42.94611
	44.94713	42.94587
	44.94795	42.94599
	44.94819	42.94717
	44.94972	42.94705
	44.95066	42.94658
	44.95386	42.94658
	44.95313	42.95093
	44.95143	42.95784
	44.94981	42.96257
	44.94785	42.97281
	44.94622	42.97914
	44.9436	42.97903
	44.94207	42.97915
	44.94184	42.98033
	44.9409	42.98091
	44.93478	42.98091
	44.93067	42.97962
	44.92808	42.97774
	44.9262	42.9775
	44.92549	42.9795
	44.93749	42.98491
	44.94384	42.98479
	44.9396	42.99138
	44.93772	42.99444
	44.93737	42.9962
	44.93572	42.99691
	44.93466	42.99961
	44.93419	43.00149
	44.93525	43.01099
	44.93224	43.01617
	44.93314	43.01969
	44.93419	43.02251
	44.93759	43.02656
	44.94202	43.02792
	44.94633	43.02932
	44.95381	43.03103
	44.95641	43.03214
	44.95627	43.0359
	44.95715	43.03738
	44.96043	43.03769
	44.96002	43.04107
	44.95836	43.04315
	44.95884	43.0456
	44.95748	43.04897
	44.95546	43.05032
	44.95389	43.05255
	44.94796	43.05484
	44.94597	43.05754
	44.94042	43.0593
	44.93764	43.06138
	44.9324	43.06323
	44.93279	43.06494
	44.93097	43.07005
	44.9312	43.07126
	44.9279	43.07189
	44.92679	43.07235
	44.92198	43.07428
	44.92128	43.07569
	44.92128	43.07743
	44.91822	43.07934
	44.91451	43.07888
	44.91257	43.081
	44.9101	43.08292
	44.90937	43.08495
	44.90956	43.08642
	44.90862	43.08806
	44.9068	43.08937
	44.90551	43.09043
	44.90292	43.09407
	44.90175	43.09607
	44.90045	43.09678
	44.89854	43.09772
	44.89704	43.09785
	44.89419	43.09613
	44.88851	43.09724
	44.87054	43.09824
	44.86622	43.10511
	44.85523	43.10747
	44.85165	43.10894
	44.84718	43.11176
	44.84389	43.11305
	44.83413	43.11869
	44.83542	43.12022
	44.84036	43.11917
	44.84671	43.11964
	44.84483	43.1254
	44.84212	43.1301
	44.84212	43.13116
	44.84518	43.13245
	44.84365	43.13386
	44.83906	43.13633
	44.83507	43.13821
	44.83389	43.13868
	44.83142	43.13986
	44.81837	43.14303
	44.81449	43.14386
	44.80755	43.14574
	44.79825	43.14635
	44.79979	43.14927
	44.80061	43.14997
	44.80112	43.15218
	44.79887	43.1521
	44.79792	43.15223
	44.79783	43.15306
	44.79844	43.15313
	44.80021	43.15475
	44.79947	43.15685
	44.79831	43.15762
	44.79719	43.15894
	44.79732	43.16044
	44.79752	43.16125
	44.79843	43.16306
	44.79954	43.16632
	44.79911	43.16674
	44.77733	43.15908
	44.77341	43.15773
	44.75212	43.18715
	44.74268	43.19965
	44.73988	43.20367
	44.69357	43.26945
	44.68232	43.27591
	44.68227	43.27731
	44.68032	43.27823
	44.66962	43.27816
	44.66872	43.23442
	44.68199	43.2337
	44.6812	43.21089
	44.67773	43.2097
	44.67741	43.21002
	44.67574	43.21088
	44.67574	43.2117
	44.67444	43.21217
	44.67432	43.21347
	44.67327	43.21323
	44.67197	43.21276
	44.67068	43.21323
	44.67103	43.21488
	44.6678	43.21464
	44.66627	43.21582
	44.66533	43.21594
	44.66509	43.21476
	44.66427	43.21382
	44.66309	43.2137
	44.66286	43.21464
	44.66239	43.21629
	44.66121	43.21547
	44.65945	43.215
	44.6591	43.21547
	44.65992	43.21676
	44.65769	43.21735
	44.65604	43.21817
	44.65428	43.21817
	44.65369	43.21946
	44.64934	43.21958
	44.64557	43.21888
	44.64534	43.21758
	44.64393	43.21699
	44.64275	43.21758
	44.6431	43.21911
	44.64452	43.22099
	44.63746	43.22017
	44.63687	43.21923
	44.63593	43.21852
	44.63464	43.21876
	44.63464	43.21993
	44.63534	43.22099
	44.63311	43.22123
	44.6324	43.22193
	44.63017	43.22064
	44.62864	43.22111
	44.62758	43.22099
	44.6257	43.21993
	44.62394	43.2204
	44.62359	43.22193
	44.62417	43.22299
	44.62182	43.22252
	44.62076	43.22076
	44.61982	43.22158
	44.61982	43.22276
	44.61712	43.2224
	44.61477	43.22311
	44.60938	43.22658
	44.60677	43.22628
	44.59678	43.22852
	44.59401	43.22986
	44.58869	43.23184
	44.57892	43.23373
	44.57072	43.2361
	44.57315	43.27201
	44.57338	43.30879
	44.57535	43.34149
	44.5777	43.4136
	44.57649	43.41412
	44.57298	43.41444
	44.57173	43.4166
	44.57031	43.41707
	44.5672	43.41757
	44.5625	43.41915
	44.55885	43.41839
	44.55791	43.41698
	44.55603	43.41604
	44.55274	43.4158
	44.54791	43.41686
	44.54462	43.41604
	44.54109	43.41674
	44.53567	43.41616
	44.53113	43.41308
	44.52694	43.41459
	44.52309	43.41271
	44.51691	43.41026
	44.51316	43.4052
	44.4877	43.43387
	44.4896	43.43447
	44.49193	43.43594
	44.49131	43.43691
	44.49099	43.43798
	44.49185	43.4393
	44.49328	43.44066
	44.48985	43.44272
	44.49018	43.44412
	44.49119	43.44616
	44.48602	43.44639
	44.48142	43.45081
	44.48082	43.45126
	44.48258	43.45301
	44.48193	43.45602
	44.48233	43.45827
	44.483	43.45898
	44.48472	43.45959
	44.4806	43.46128
	44.4805	43.46345
	44.47883	43.46375
	44.47811	43.4651
	44.47858	43.4662
	44.48156	43.46908
	44.48209	43.47333
	44.48348	43.47337
	44.48981	43.47239
	44.49444	43.47156
	44.49632	43.47387
	44.49141	43.47562
	44.4928	43.47731
	44.49185	43.47934
	44.48883	43.48115
	44.48821	43.48198
	44.48802	43.48303
	44.48883	43.48404
	44.49029	43.48509
	44.49172	43.48703
	44.49148	43.48993
	44.49063	43.49245
	44.48977	43.49374
	44.48955	43.49535
	44.48906	43.4962
	44.48883	43.49761
	44.48847	43.49832
	44.48436	43.49844
	44.48271	43.49926
	44.48271	43.50091
	44.48318	43.50232
	44.48295	43.50408
	44.48165	43.50725
	44.48118	43.50972
	44.48083	43.51137
	44.48208	43.51152
	44.48082	43.51294
	44.48088	43.51469
	44.48392	43.51689
	44.50307	43.5288
	44.50817	43.54377
	44.50194	43.55788
	44.50335	43.58792
	44.58027	43.60407
	44.6322	43.61538
	44.63104	43.60458
	44.62595	43.57059
	44.62217	43.54629
	44.62593	43.54747
	44.63246	43.54685
	44.63869	43.54485
	44.64516	43.54297
	44.64887	43.54218
	44.65656	43.54293
	44.66027	43.54475
	44.66166	43.54573
	44.66978	43.55075
	44.6733	43.55136
	44.67658	43.55144
	44.68878	43.5478
	44.69266	43.54721
	44.70017	43.54885
	44.70628	43.55209
	44.7018	43.56986
	44.69531	43.5954
	44.79521	43.59674
	44.79896	43.59271
	44.79954	43.59025
	44.79819	43.58706
	44.80242	43.58706
	44.80246	43.58192
	44.79761	43.58129
	44.79895	43.56976
	44.78932	43.55712
	44.79277	43.55569
	44.80113	43.55576
	44.80015	43.55824
	44.81199	43.55829
	44.81563	43.55479
	44.81793	43.55439
	44.82773	43.55318
	44.84794	43.56553
END
END
