Russia_Republic of Dagestan
1
	48.45566	41.6857
	48.43981	41.67451
	48.43969	41.6727
	48.4361	41.67078
	48.43301	41.66284
	48.42739	41.6599
	48.42017	41.65828
	48.41968	41.65754
	48.41939	41.65449
	48.41849	41.65214
	48.4188	41.65029
	48.41704	41.64897
	48.41759	41.64369
	48.41698	41.64067
	48.41554	41.63791
	48.41773	41.63546
	48.41277	41.62315
	48.40696	41.61583
	48.40119	41.61035
	48.39609	41.6087
	48.38667	41.59766
	48.37734	41.59101
	48.35534	41.58206
	48.34869	41.57639
	48.32165	41.56808
	48.31441	41.5641
	48.29193	41.56396
	48.28447	41.56085
	48.25955	41.54139
	48.25952	41.53556
	48.25232	41.5284
	48.23287	41.52002
	48.22428	41.51693
	48.20297	41.51228
	48.16738	41.51236
	48.13816	41.50813
	48.11954	41.4994
	48.09906	41.49771
	48.08877	41.49899
	48.08651	41.49936
	48.07686	41.49839
	48.06838	41.49521
	48.06566	41.48932
	48.0621	41.48406
	48.05769	41.47921
	48.05418	41.46714
	48.06434	41.45999
	48.06373	41.45751
	48.05839	41.45588
	48.03524	41.43738
	48.02669	41.43482
	48.01853	41.43465
	48.00823	41.43296
	48.00223	41.42996
	48.00252	41.42474
	48.00545	41.41994
	48.00232	41.41429
	48.00227	41.4106
	48.00688	41.40503
	48.00169	41.40114
	47.99978	41.39463
	48.00418	41.38138
	48.00141	41.37318
	47.99835	41.37065
	47.98527	41.36604
	47.9815	41.36167
	47.98342	41.35557
	47.98261	41.3541
	47.98064	41.35318
	47.9749	41.35431
	47.96243	41.36082
	47.95558	41.35827
	47.95471	41.3544
	47.95014	41.35112
	47.95546	41.34102
	47.95805	41.33236
	47.96564	41.32881
	47.97063	41.32294
	47.96688	41.3186
	47.96328	41.31885
	47.96215	41.31631
	47.94511	41.31318
	47.9361	41.31401
	47.92427	41.30629
	47.91666	41.30081
	47.90974	41.29929
	47.8984	41.29883
	47.89909	41.2949
	47.89741	41.2922
	47.89361	41.29138
	47.89292	41.28829
	47.89602	41.2875
	47.89845	41.28507
	47.90609	41.2822
	47.91172	41.2769
	47.90774	41.26601
	47.9106	41.25538
	47.90407	41.24509
	47.90358	41.2383
	47.89494	41.23028
	47.88561	41.21942
	47.87801	41.21748
	47.87157	41.21744
	47.86891	41.21902
	47.86332	41.21937
	47.85854	41.22092
	47.84752	41.21555
	47.84051	41.21604
	47.83559	41.21774
	47.83362	41.21817
	47.82728	41.2213
	47.8187	41.21957
	47.81155	41.21936
	47.80942	41.21532
	47.80839	41.21155
	47.80232	41.20989
	47.79919	41.20731
	47.79485	41.20499
	47.79113	41.19764
	47.79028	41.19362
	47.78698	41.19085
	47.78572	41.18799
	47.78209	41.18587
	47.77795	41.18754
	47.76833	41.18862
	47.762	41.18855
	47.75842	41.1901
	47.75683	41.19252
	47.75324	41.19244
	47.75164	41.18978
	47.74825	41.18745
	47.74374	41.18956
	47.73509	41.19117
	47.7299	41.19169
	47.72726	41.19269
	47.72678	41.19312
	47.72731	41.2004
	47.727	41.20672
	47.71806	41.20729
	47.71616	41.20861
	47.71287	41.20879
	47.708	41.21242
	47.70496	41.21424
	47.70409	41.21769
	47.7011	41.22574
	47.69929	41.22604
	47.69385	41.22609
	47.69066	41.227
	47.68901	41.22662
	47.68809	41.22539
	47.68552	41.22386
	47.68384	41.2235
	47.67818	41.22375
	47.67341	41.22256
	47.67194	41.22258
	47.66891	41.22348
	47.66527	41.22401
	47.66034	41.22348
	47.65689	41.22374
	47.65427	41.22369
	47.65211	41.22296
	47.65059	41.22324
	47.64737	41.22652
	47.64744	41.22749
	47.64607	41.2288
	47.64249	41.22954
	47.63979	41.22951
	47.63607	41.23039
	47.63408	41.23172
	47.62966	41.23165
	47.62798	41.23241
	47.62656	41.23257
	47.62335	41.23417
	47.62187	41.23556
	47.6211	41.23604
	47.62049	41.23714
	47.61915	41.23672
	47.61818	41.23334
	47.61669	41.23119
	47.61473	41.23018
	47.61334	41.226
	47.61109	41.22507
	47.61159	41.22259
	47.61115	41.21816
	47.61044	41.21718
	47.6089	41.2172
	47.60603	41.21904
	47.60149	41.21952
	47.59668	41.21871
	47.59643	41.21704
	47.59436	41.216
	47.58887	41.21748
	47.58473	41.21665
	47.57631	41.21723
	47.57503	41.21673
	47.57319	41.21379
	47.57112	41.21258
	47.56874	41.21212
	47.56745	41.21054
	47.56754	41.20861
	47.56498	41.20522
	47.56501	41.20186
	47.56508	41.19901
	47.56162	41.19828
	47.55684	41.19851
	47.55491	41.19941
	47.55319	41.20121
	47.55002	41.20255
	47.54835	41.20432
	47.54533	41.2055
	47.53644	41.20587
	47.53493	41.20824
	47.53283	41.20989
	47.53163	41.21201
	47.53027	41.21293
	47.52659	41.21386
	47.52527	41.21453
	47.52428	41.21614
	47.52061	41.21938
	47.51638	41.2205
	47.51178	41.22361
	47.50675	41.22526
	47.50388	41.22744
	47.50297	41.22921
	47.502	41.23046
	47.50101	41.23422
	47.5032	41.23545
	47.50549	41.23809
	47.50815	41.24377
	47.50817	41.246
	47.50647	41.24855
	47.50481	41.25055
	47.50572	41.25537
	47.50549	41.25839
	47.5063	41.26129
	47.50496	41.26271
	47.50299	41.26343
	47.49836	41.26844
	47.49555	41.26844
	47.49058	41.26681
	47.48725	41.26608
	47.48496	41.26542
	47.48101	41.26477
	47.47688	41.26192
	47.47527	41.26062
	47.47305	41.25712
	47.47072	41.25711
	47.46886	41.2589
	47.46728	41.2619
	47.46267	41.26497
	47.46086	41.26542
	47.4596	41.26686
	47.45975	41.26878
	47.45466	41.27231
	47.45355	41.27424
	47.45129	41.27447
	47.44932	41.27338
	47.44119	41.27205
	47.43784	41.26911
	47.43263	41.26596
	47.42812	41.26707
	47.42377	41.2676
	47.41844	41.26689
	47.41422	41.26755
	47.41122	41.26743
	47.4095	41.26748
	47.40648	41.26852
	47.40036	41.26888
	47.39736	41.27032
	47.39349	41.27106
	47.3894	41.27163
	47.3861	41.27315
	47.38401	41.27346
	47.3819	41.2734
	47.38118	41.27337
	47.37761	41.27285
	47.37451	41.27277
	47.37193	41.27402
	47.37023	41.2746
	47.36739	41.27628
	47.36637	41.27755
	47.36212	41.2802
	47.3592	41.28124
	47.35646	41.28166
	47.35493	41.28257
	47.35433	41.28353
	47.35406	41.28447
	47.35416	41.28522
	47.3535	41.28602
	47.35226	41.28658
	47.34887	41.28723
	47.34754	41.28778
	47.34655	41.28908
	47.34651	41.28975
	47.34502	41.29162
	47.34412	41.29226
	47.34064	41.29353
	47.33859	41.2945
	47.33488	41.29544
	47.3283	41.29605
	47.32364	41.30209
	47.31428	41.30452
	47.30922	41.30446
	47.30498	41.30702
	47.301	41.30797
	47.29919	41.31149
	47.29489	41.31621
	47.29023	41.31965
	47.28943	41.32103
	47.29059	41.32264
	47.29002	41.32459
	47.28675	41.32622
	47.2823	41.32734
	47.27926	41.3282
	47.27511	41.32856
	47.27097	41.32806
	47.27012	41.33027
	47.268	41.33282
	47.26437	41.3354
	47.26	41.33724
	47.25853	41.33937
	47.26094	41.34152
	47.27108	41.35242
	47.26853	41.35941
	47.2678	41.36309
	47.26632	41.36653
	47.26631	41.36859
	47.26528	41.37079
	47.26473	41.37368
	47.26086	41.37864
	47.26066	41.38111
	47.26279	41.38225
	47.26408	41.38417
	47.26444	41.38698
	47.26154	41.39185
	47.26012	41.39565
	47.25919	41.39657
	47.25551	41.39835
	47.25295	41.39878
	47.24936	41.39838
	47.24662	41.39698
	47.24543	41.39603
	47.24294	41.39595
	47.24129	41.3982
	47.23564	41.40048
	47.23467	41.40159
	47.23305	41.40149
	47.23216	41.40089
	47.2292	41.40111
	47.227	41.40069
	47.22575	41.40021
	47.22417	41.39845
	47.22273	41.39791
	47.22024	41.39867
	47.21876	41.40004
	47.21899	41.4012
	47.2216	41.40108
	47.2243	41.40183
	47.22752	41.40471
	47.22872	41.40843
	47.22807	41.41051
	47.22807	41.41366
	47.22256	41.41872
	47.22308	41.42186
	47.22755	41.42819
	47.23023	41.42988
	47.23265	41.43244
	47.23393	41.43256
	47.23587	41.4344
	47.23603	41.43596
	47.23992	41.44062
	47.24224	41.4448
	47.24212	41.44635
	47.23947	41.44707
	47.23741	41.44678
	47.23493	41.44864
	47.23384	41.44847
	47.22801	41.44948
	47.2259	41.44911
	47.22314	41.44832
	47.22147	41.44707
	47.21941	41.44651
	47.21841	41.44557
	47.21728	41.44595
	47.21718	41.44801
	47.21609	41.44941
	47.21164	41.45086
	47.20968	41.45178
	47.20823	41.45508
	47.20359	41.46092
	47.20301	41.4623
	47.20304	41.46374
	47.20024	41.46867
	47.19443	41.47023
	47.1982	41.47514
	47.19194	41.48831
	47.183	41.48596
	47.17273	41.49391
	47.16724	41.4964
	47.15809	41.49912
	47.15675	41.5066
	47.17186	41.52192
	47.17307	41.53
	47.15795	41.53113
	47.15654	41.53569
	47.14721	41.53876
	47.14755	41.54207
	47.13537	41.54776
	47.12939	41.55174
	47.12139	41.56655
	47.11547	41.5695
	47.12412	41.58313
	47.11158	41.58437
	47.11286	41.59481
	47.10276	41.59173
	47.08567	41.57928
	47.07528	41.57837
	47.06798	41.57062
	47.07253	41.55897
	47.06546	41.55566
	47.05822	41.55803
	47.05143	41.55462
	47.04538	41.55873
	47.04156	41.5581
	47.03077	41.56479
	47.02397	41.56085
	47.01954	41.55603
	47.01865	41.55586
	47.01521	41.55931
	47.01564	41.56446
	47.01833	41.56824
	47.02156	41.5715
	47.02269	41.57617
	47.0163	41.57996
	47.00746	41.57913
	47.00502	41.58156
	47.00253	41.58574
	46.99877	41.58724
	46.99729	41.59112
	46.99436	41.59243
	46.99211	41.59604
	46.99106	41.59981
	46.99598	41.60144
	47.00031	41.61411
	47.00529	41.61766
	47.00886	41.62283
	47.00892	41.62731
	47.00702	41.63071
	47.00331	41.63159
	47.00119	41.63425
	47.00125	41.63867
	46.99951	41.64134
	46.99048	41.64462
	46.98463	41.64435
	46.95622	41.65496
	46.95533	41.65756
	46.94431	41.66535
	46.94083	41.67805
	46.93664	41.67881
	46.9322	41.67685
	46.92741	41.67665
	46.92507	41.68187
	46.92119	41.68614
	46.92533	41.69141
	46.92642	41.69974
	46.92942	41.70705
	46.92871	41.71034
	46.91497	41.72658
	46.90535	41.72822
	46.90338	41.73083
	46.89817	41.73283
	46.88897	41.72891
	46.87678	41.72686
	46.87238	41.72047
	46.86896	41.71897
	46.86415	41.72008
	46.85878	41.72784
	46.85838	41.73366
	46.85261	41.73593
	46.84913	41.7392
	46.83917	41.74558
	46.8316	41.74783
	46.83121	41.76006
	46.82365	41.76322
	46.81879	41.76131
	46.80779	41.76146
	46.80411	41.76364
	46.79574	41.77268
	46.79227	41.77364
	46.79162	41.77454
	46.79327	41.77832
	46.79321	41.78026
	46.78105	41.78849
	46.78038	41.79037
	46.77159	41.79526
	46.76594	41.80101
	46.76717	41.80533
	46.77032	41.81065
	46.78086	41.81187
	46.78373	41.81661
	46.77407	41.8253
	46.77197	41.82914
	46.77088	41.83328
	46.76493	41.84044
	46.76335	41.84663
	46.76065	41.84881
	46.76133	41.85592
	46.76004	41.85772
	46.7599	41.86169
	46.75827	41.86239
	46.75613	41.86226
	46.75189	41.8588
	46.74849	41.85837
	46.74465	41.8571
	46.7378	41.85692
	46.73302	41.85581
	46.72289	41.84849
	46.71638	41.84737
	46.71616	41.84176
	46.71542	41.83957
	46.72159	41.83124
	46.7219	41.82831
	46.71966	41.82794
	46.71825	41.82835
	46.71509	41.82847
	46.71149	41.82709
	46.70856	41.82658
	46.70747	41.82919
	46.70361	41.83102
	46.70091	41.83257
	46.69342	41.8344
	46.68748	41.83362
	46.68521	41.83295
	46.6779	41.83279
	46.671	41.83484
	46.66791	41.83872
	46.66612	41.83894
	46.66505	41.83812
	46.665	41.83397
	46.65822	41.83234
	46.65306	41.83201
	46.6502	41.83128
	46.64737	41.8292
	46.64592	41.82894
	46.63541	41.82978
	46.63395	41.83197
	46.63132	41.834
	46.62871	41.83498
	46.62428	41.83459
	46.62212	41.83185
	46.6184	41.82935
	46.61896	41.82827
	46.6214	41.82563
	46.62131	41.82418
	46.61741	41.82115
	46.61333	41.81719
	46.60944	41.81488
	46.60502	41.81184
	46.59731	41.81182
	46.59419	41.80984
	46.59162	41.80715
	46.58533	41.80276
	46.58264	41.80317
	46.58221	41.80324
	46.58186	41.80541
	46.57905	41.80789
	46.57544	41.80882
	46.57369	41.8123
	46.57153	41.81357
	46.56909	41.81365
	46.56685	41.81304
	46.56565	41.8146
	46.56507	41.81862
	46.56425	41.81956
	46.55679	41.82159
	46.55474	41.82266
	46.55241	41.83162
	46.5554	41.83522
	46.5521	41.83686
	46.55076	41.8498
	46.55454	41.85695
	46.55393	41.86028
	46.55242	41.86118
	46.55136	41.864
	46.5516	41.86715
	46.54751	41.8687
	46.54181	41.86912
	46.53843	41.87171
	46.53748	41.87385
	46.53809	41.87804
	46.53704	41.88045
	46.52697	41.88426
	46.51937	41.8877
	46.51235	41.88751
	46.51017	41.88921
	46.50713	41.88954
	46.50079	41.88769
	46.49894	41.88632
	46.48084	41.88181
	46.4767	41.88274
	46.45318	41.89309
	46.42605	41.91344
	46.42118	41.91605
	46.41781	41.91835
	46.4147	41.92034
	46.41213	41.92204
	46.41098	41.92217
	46.40529	41.92178
	46.4046	41.92179
	46.40409	41.923
	46.40337	41.92536
	46.40204	41.92767
	46.4019	41.92853
	46.40217	41.93036
	46.40219	41.93134
	46.40102	41.93371
	46.40066	41.9348
	46.40097	41.93671
	46.40068	41.93752
	46.40002	41.93925
	46.39982	41.94028
	46.39936	41.94057
	46.39812	41.93984
	46.39548	41.93873
	46.3913	41.9374
	46.38915	41.93737
	46.38547	41.93764
	46.3804	41.93799
	46.37986	41.93783
	46.37574	41.93564
	46.37034	41.93444
	46.36386	41.93331
	46.36049	41.93243
	46.35891	41.93305
	46.35752	41.93337
	46.35636	41.93366
	46.35603	41.93425
	46.35703	41.93712
	46.35683	41.93885
	46.35631	41.93942
	46.35464	41.94019
	46.35273	41.94089
	46.35107	41.94122
	46.34729	41.94165
	46.34424	41.94272
	46.34113	41.94483
	46.33885	41.94606
	46.33785	41.94578
	46.33575	41.94489
	46.33357	41.94466
	46.33262	41.94435
	46.33166	41.94385
	46.33073	41.94328
	46.33064	41.94259
	46.33099	41.94121
	46.33075	41.93697
	46.32919	41.93614
	46.32735	41.93576
	46.32575	41.93521
	46.3242	41.93477
	46.3239	41.93383
	46.32369	41.93274
	46.32381	41.93206
	46.3231	41.93115
	46.32197	41.9309
	46.32161	41.9307
	46.32138	41.93043
	46.32107	41.9298
	46.32072	41.92943
	46.32005	41.92927
	46.31925	41.92988
	46.31875	41.93016
	46.31809	41.93046
	46.31708	41.93095
	46.31686	41.93156
	46.31667	41.93221
	46.31554	41.93336
	46.31365	41.93487
	46.31145	41.93628
	46.31007	41.93641
	46.30861	41.93642
	46.30648	41.9376
	46.29969	41.94024
	46.29627	41.94184
	46.29016	41.94369
	46.28481	41.94507
	46.28244	41.94544
	46.28146	41.94642
	46.28241	41.94779
	46.28375	41.94978
	46.28408	41.95078
	46.2838	41.95188
	46.2832	41.95297
	46.28096	41.95581
	46.27947	41.95858
	46.2788	41.95968
	46.27876	41.96117
	46.27786	41.96238
	46.27547	41.96585
	46.27394	41.9665
	46.27226	41.96658
	46.27143	41.9675
	46.26999	41.96867
	46.26775	41.97022
	46.26544	41.9738
	46.26396	41.97686
	46.26416	41.97904
	46.26328	41.981
	46.262	41.98256
	46.26047	41.98275
	46.25823	41.98237
	46.25569	41.98223
	46.25345	41.98179
	46.25021	41.98137
	46.24891	41.98138
	46.24759	41.98077
	46.24644	41.98118
	46.24523	41.98211
	46.24564	41.98348
	46.24605	41.98474
	46.24716	41.98622
	46.24719	41.98771
	46.24783	41.98942
	46.24926	41.99153
	46.24936	41.99289
	46.24977	41.99426
	46.25179	41.99521
	46.25637	41.997
	46.25822	41.99755
	46.25755	41.99876
	46.2572	42.00032
	46.25623	42.00263
	46.25652	42.00468
	46.2565	42.00613
	46.25436	42.0063
	46.25133	42.00721
	46.25034	42.00756
	46.24802	42.00696
	46.2448	42.00716
	46.24189	42.00805
	46.23633	42.01064
	46.22908	42.01376
	46.22592	42.01495
	46.22422	42.01566
	46.22158	42.01555
	46.22082	42.01369
	46.21884	42.01245
	46.21867	42.01028
	46.2185	42.0092
	46.21739	42.00882
	46.2162	42.00853
	46.21478	42.00877
	46.21375	42.00924
	46.21306	42.00934
	46.21214	42.00918
	46.21005	42.00842
	46.20883	42.00872
	46.2073	42.0083
	46.20603	42.00815
	46.2052	42.00768
	46.20447	42.00722
	46.20379	42.007
	46.20289	42.00694
	46.20216	42.0071
	46.20157	42.00703
	46.20103	42.00659
	46.20055	42.00594
	46.19912	42.0058
	46.19804	42.00547
	46.19698	42.00486
	46.19584	42.0039
	46.19431	42.00183
	46.19258	41.99934
	46.19134	41.99883
	46.18803	41.99852
	46.18534	41.99884
	46.18427	41.9989
	46.18427	41.99891
	46.18344	41.99885
	46.18265	41.99881
	46.18103	41.99865
	46.17881	41.99902
	46.17733	41.99856
	46.17508	41.99799
	46.17384	41.99769
	46.16886	41.99356
	46.16553	41.99193
	46.16436	41.99142
	46.16158	41.99042
	46.15926	41.99015
	46.15773	41.9904
	46.15345	41.99165
	46.15231	41.99263
	46.15134	41.99431
	46.15074	41.99494
	46.15125	41.99763
	46.15104	41.99907
	46.15052	42.00013
	46.15088	42.00193
	46.15064	42.00253
	46.15072	42.00295
	46.15074	42.00339
	46.1506	42.00371
	46.15026	42.00429
	46.15028	42.00448
	46.15022	42.00464
	46.15008	42.00478
	46.15022	42.00499
	46.15028	42.00517
	46.15018	42.00529
	46.15027	42.00556
	46.15029	42.00573
	46.15025	42.0068
	46.15033	42.0079
	46.1486	42.00972
	46.14718	42.01081
	46.14633	42.01048
	46.1436	42.00878
	46.14197	42.00788
	46.1395	42.00783
	46.13557	42.00801
	46.13305	42.00774
	46.13042	42.00623
	46.12777	42.00496
	46.12488	42.00419
	46.12445	42.0039
	46.12422	42.00331
	46.12468	42.00276
	46.12239	42.00062
	46.12113	41.99937
	46.11889	41.99876
	46.1172	41.99872
	46.11611	41.99787
	46.11377	41.99617
	46.11361	41.9956
	46.1151	41.99329
	46.11523	41.99185
	46.11382	41.99032
	46.11179	41.98833
	46.11031	41.98731
	46.10922	41.9864
	46.1076	41.98613
	46.10629	41.98603
	46.10561	41.98701
	46.10511	41.9892
	46.10421	41.99041
	46.10261	41.99111
	46.10016	41.99194
	46.09781	41.99351
	46.09628	41.99427
	46.09468	41.99492
	46.09425	41.99534
	46.09413	41.99576
	46.09404	41.99601
	46.09411	41.99642
	46.09382	41.99686
	46.0935	41.9977
	46.09354	41.99825
	46.09348	41.9988
	46.09316	41.99939
	46.09259	41.99994
	46.0921	42.00048
	46.092	42.00075
	46.09066	42.00241
	46.09029	42.00263
	46.08989	42.00294
	46.08944	42.00334
	46.08912	42.00382
	46.08876	42.00421
	46.08809	42.00471
	46.08722	42.00507
	46.08593	42.00538
	46.08521	42.0078
	46.08422	42.00867
	46.08386	42.01028
	46.08458	42.01165
	46.08469	42.0133
	46.08502	42.01502
	46.08566	42.01639
	46.08522	42.01754
	46.08431	42.01846
	46.08364	42.01979
	46.08413	42.02128
	46.08507	42.02242
	46.08394	42.02398
	46.0832	42.02576
	46.08363	42.02822
	46.08297	42.02989
	46.08121	42.03071
	46.07963	42.03251
	46.07928	42.03509
	46.07741	42.03782
	46.07529	42.03979
	46.07337	42.04061
	46.07268	42.04062
	46.06636	42.03517
	46.06619	42.03414
	46.06533	42.03334
	46.06308	42.0325
	46.06175	42.03091
	46.06063	42.02874
	46.05846	42.02738
	46.05406	42.02656
	46.05183	42.02653
	46.05065	42.02493
	46.05008	42.0231
	46.04914	42.02208
	46.0472	42.02106
	46.04528	42.02171
	46.04382	42.02161
	46.04149	42.02037
	46.04048	42.01992
	46.03872	42.02011
	46.03758	42.02126
	46.03569	42.02323
	46.03394	42.02428
	46.03085	42.02373
	46.02901	42.02392
	46.02626	42.02498
	46.02442	42.0254
	46.02343	42.02627
	46.02371	42.02919
	46.02375	42.03154
	46.02363	42.03361
	46.02303	42.03459
	46.0226	42.03654
	46.02225	42.03924
	46.02228	42.04085
	46.02083	42.04166
	46.01922	42.04191
	46.0176	42.04181
	46.01574	42.04096
	46.01334	42.04012
	46.0114	42.03911
	46.00947	42.03867
	46.00838	42.03776
	46.0069	42.03697
	46.00475	42.03687
	46.00329	42.03723
	46.0016	42.0373
	46.00007	42.03812
	45.99933	42.03973
	45.99835	42.04083
	45.99659	42.04147
	45.99397	42.04161
	45.99236	42.04203
	45.98924	42.044
	45.98733	42.04534
	45.98641	42.04535
	45.98498	42.04485
	45.98392	42.04343
	45.98388	42.04336
	45.98264	42.04286
	45.97907	42.041
	45.97643	42.03947
	45.97449	42.03805
	45.97385	42.03674
	45.97375	42.03525
	45.97265	42.03399
	45.9711	42.03315
	45.96878	42.03253
	45.96769	42.03145
	45.96588	42.02866
	45.96556	42.02797
	45.96493	42.02735
	45.96284	42.02605
	45.95758	42.02408
	45.95603	42.02375
	45.95434	42.02382
	45.95243	42.02475
	45.94786	42.02755
	45.94541	42.02894
	45.94381	42.02987
	45.94345	42.03102
	45.94339	42.03246
	45.94357	42.03452
	45.94382	42.03578
	45.94214	42.0362
	45.94029	42.0361
	45.93805	42.03549
	45.93472	42.03396
	45.93178	42.03307
	45.92945	42.03194
	45.92791	42.03149
	45.9273	42.03184
	45.92777	42.03236
	45.92901	42.03327
	45.93042	42.03463
	45.93176	42.03686
	45.93312	42.04017
	45.93384	42.04258
	45.93425	42.04384
	45.93374	42.04625
	45.93233	42.04967
	45.93024	42.05439
	45.92888	42.05601
	45.92728	42.057
	45.92567	42.05747
	45.92483	42.05782
	45.91694	42.06098
	45.91396	42.06221
	45.91236	42.06326
	45.91184	42.06452
	45.91264	42.06704
	45.91305	42.06818
	45.91313	42.06892
	45.91254	42.07024
	45.91256	42.07162
	45.91326	42.07241
	45.91513	42.07378
	45.91606	42.07423
	45.9206	42.0797
	45.9207	42.08079
	45.91963	42.08177
	45.91841	42.08241
	45.91713	42.08426
	45.91515	42.08599
	45.91492	42.0864
	45.91387	42.08778
	45.91371	42.09266
	45.91381	42.09432
	45.91359	42.09513
	45.91221	42.0956
	45.90852	42.09614
	45.9058	42.09712
	45.90389	42.09845
	45.90177	42.10122
	45.89988	42.10348
	45.89836	42.10504
	45.89722	42.10602
	45.89638	42.10649
	45.89222	42.10669
	45.88925	42.10613
	45.88774	42.10587
	45.88626	42.10496
	45.88525	42.10411
	45.88447	42.10354
	45.88301	42.10332
	45.87978	42.10403
	45.87649	42.10532
	45.87235	42.10742
	45.8703	42.10921
	45.86608	42.11051
	45.86324	42.1111
	45.8617	42.11117
	45.85924	42.11205
	45.85701	42.11247
	45.85526	42.11374
	45.85436	42.11547
	45.85398	42.11599
	45.85336	42.11536
	45.85248	42.1133
	45.85038	42.11165
	45.84172	42.1093
	45.83959	42.10988
	45.83701	42.11081
	45.8341	42.11083
	45.83073	42.10972
	45.82811	42.10769
	45.82549	42.10657
	45.82289	42.10613
	45.82046	42.10683
	45.81803	42.10833
	45.81576	42.10994
	45.81242	42.11178
	45.80984	42.11248
	45.80787	42.11386
	45.80392	42.11605
	45.80301	42.11594
	45.80115	42.11436
	45.79852	42.11165
	45.79529	42.10985
	45.79329	42.10896
	45.79221	42.10749
	45.79187	42.10521
	45.79124	42.10351
	45.78816	42.10171
	45.78603	42.10207
	45.78436	42.1031
	45.7818	42.10562
	45.77869	42.10785
	45.77658	42.1098
	45.77462	42.11209
	45.77174	42.11427
	45.76948	42.1169
	45.76934	42.11781
	45.76952	42.11963
	45.77001	42.12281
	45.77004	42.12463
	45.76915	42.12691
	45.76869	42.12714
	45.76701	42.12726
	45.76364	42.12672
	45.76013	42.12651
	45.75402	42.12655
	45.75173	42.12702
	45.74975	42.12727
	45.74837	42.12727
	45.74521	42.13105
	45.74475	42.13117
	45.74139	42.13129
	45.73956	42.13131
	45.73895	42.13154
	45.73881	42.1328
	45.739	42.13587
	45.74025	42.13864
	45.74243	42.14182
	45.74351	42.14272
	45.74597	42.14361
	45.7472	42.14463
	45.74798	42.1461
	45.74784	42.14724
	45.74572	42.14873
	45.74101	42.15092
	45.73781	42.15219
	45.73583	42.15266
	45.73354	42.15245
	45.73184	42.15257
	45.7317	42.15257
	45.72972	42.15316
	45.72789	42.15294
	45.7256	42.15375
	45.72424	42.15501
	45.72123	42.15901
	45.72078	42.16015
	45.72125	42.16117
	45.72188	42.16265
	45.72082	42.16345
	45.71731	42.16427
	45.71503	42.16531
	45.71291	42.1668
	45.70986	42.16795
	45.70667	42.16934
	45.70485	42.17106
	45.70288	42.173
	45.70224	42.1733
	45.70136	42.17369
	45.69816	42.17474
	45.69542	42.17589
	45.69299	42.17681
	45.69039	42.17729
	45.68566	42.17788
	45.68352	42.17801
	45.68291	42.17858
	45.68095	42.18075
	45.67898	42.18236
	45.67761	42.18328
	45.67472	42.18466
	45.67351	42.18558
	45.67168	42.18638
	45.66924	42.18674
	45.66663	42.18653
	45.6648	42.18654
	45.66281	42.18609
	45.66097	42.18622
	45.65899	42.18646
	45.65654	42.18636
	45.65332	42.18581
	45.65102	42.18525
	45.64934	42.1856
	45.64752	42.18641
	45.64661	42.18755
	45.64586	42.18937
	45.6442	42.19086
	45.64116	42.1927
	45.63872	42.19374
	45.63766	42.19522
	45.63615	42.19648
	45.6334	42.19718
	45.63203	42.1981
	45.63067	42.19981
	45.62993	42.20186
	45.62826	42.20346
	45.62447	42.20665
	45.62371	42.20768
	45.6225	42.20917
	45.62144	42.20985
	45.61869	42.20987
	45.6164	42.21034
	45.61181	42.21036
	45.61074	42.21082
	45.60861	42.21231
	45.60816	42.21334
	45.60849	42.21516
	45.60835	42.21652
	45.60775	42.21812
	45.60746	42.21937
	45.60762	42.22051
	45.60856	42.22335
	45.60843	42.22483
	45.60814	42.22653
	45.60877	42.22903
	45.60879	42.2304
	45.60833	42.23119
	45.60819	42.23245
	45.60897	42.23381
	45.61051	42.23505
	45.61371	42.23728
	45.61699	42.23968
	45.61822	42.24013
	45.6213	42.24239
	45.62239	42.24397
	45.6227	42.24499
	45.62134	42.24591
	45.61936	42.24786
	45.61816	42.25055
	45.61818	42.25214
	45.61927	42.25396
	45.62019	42.25418
	45.62173	42.25462
	45.62296	42.25553
	45.6242	42.25746
	45.62731	42.26142
	45.63023	42.26322
	45.63285	42.26446
	45.63424	42.26604
	45.63503	42.26797
	45.63549	42.26831
	45.63704	42.27012
	45.63767	42.27217
	45.63799	42.27376
	45.63891	42.27554
	45.63893	42.27557
	45.64093	42.27658
	45.64247	42.27749
	45.64233	42.27874
	45.6425	42.2801
	45.64406	42.28248
	45.64622	42.28452
	45.64823	42.28633
	45.64886	42.28814
	45.65057	42.29064
	45.65243	42.29222
	45.65458	42.29277
	45.6581	42.29218
	45.6593	42.29047
	45.66082	42.28853
	45.6631	42.28692
	45.66736	42.28406
	45.66995	42.28302
	45.66998	42.28302
	45.67118	42.28335
	45.67595	42.28548
	45.6781	42.28604
	45.6807	42.2858
	45.68331	42.28601
	45.68698	42.28576
	45.6882	42.28564
	45.69114	42.28744
	45.69562	42.2912
	45.69701	42.29244
	45.6987	42.29322
	45.7001	42.29481
	45.70196	42.29673
	45.70441	42.2966
	45.70823	42.29567
	45.71342	42.29427
	45.71709	42.293
	45.71868	42.29185
	45.71897	42.29037
	45.72018	42.28922
	45.72052	42.28918
	45.72187	42.28898
	45.72295	42.28977
	45.72434	42.29068
	45.72848	42.29167
	45.73248	42.29301
	45.73478	42.29322
	45.73631	42.2931
	45.73816	42.29377
	45.74047	42.29524
	45.7428	42.29715
	45.74373	42.29851
	45.74468	42.30078
	45.74561	42.30226
	45.74746	42.30338
	45.7501	42.30598
	45.75227	42.30801
	45.75306	42.30983
	45.75308	42.31153
	45.75341	42.31342
	45.75391	42.31717
	45.75394	42.31945
	45.75349	42.32059
	45.75427	42.32172
	45.75553	42.32399
	45.75616	42.3258
	45.75586	42.3266
	45.75495	42.32717
	45.75296	42.32753
	45.75037	42.32857
	45.74946	42.32926
	45.74793	42.32972
	45.74534	42.3311
	45.74321	42.33237
	45.74231	42.33419
	45.74218	42.33567
	45.74266	42.33806
	45.7435	42.34374
	45.74327	42.35005
	45.74313	42.35187
	45.7424	42.35495
	45.74288	42.35688
	45.74183	42.35837
	45.74185	42.36053
	45.74279	42.36211
	45.7422	42.3636
	45.73991	42.36486
	45.73946	42.36577
	45.73842	42.36863
	45.73722	42.37068
	45.73587	42.37376
	45.73499	42.37706
	45.7347	42.37832
	45.73563	42.37922
	45.73796	42.38182
	45.74061	42.38488
	45.74232	42.38703
	45.74387	42.38815
	45.74683	42.39177
	45.74838	42.39381
	45.74994	42.39517
	45.75211	42.39777
	45.75337	42.40037
	45.75433	42.40333
	45.75482	42.40614
	45.75515	42.40818
	45.75702	42.40999
	45.75903	42.41123
	45.7618	42.41212
	45.76273	42.41246
	45.7632	42.4137
	45.76383	42.41506
	45.76663	42.41823
	45.76741	42.41891
	45.7685	42.42026
	45.76958	42.42083
	45.77082	42.42173
	45.77161	42.42343
	45.77162	42.42445
	45.77194	42.42536
	45.77334	42.42649
	45.77459	42.42853
	45.77492	42.43057
	45.77464	42.43239
	45.77481	42.43398
	45.77574	42.435
	45.77622	42.43579
	45.77562	42.43728
	45.77564	42.43887
	45.77658	42.44011
	45.77721	42.44216
	45.77925	42.44503
	45.78157	42.44695
	45.78023	42.44969
	45.77948	42.45151
	45.77966	42.45344
	45.77783	42.45493
	45.77436	42.45996
	45.77361	42.46156
	45.77349	42.46372
	45.77415	42.46792
	45.7759	42.47223
	45.77652	42.47291
	45.77714	42.47382
	45.77597	42.47815
	45.77586	42.48179
	45.77636	42.4852
	45.77639	42.48759
	45.77556	42.48835
	45.77353	42.4882
	45.77629	42.48923
	45.77751	42.49002
	45.77878	42.49028
	45.78455	42.49174
	45.78715	42.49226
	45.79148	42.49321
	45.79411	42.49409
	45.79731	42.49564
	45.79952	42.49617
	45.80119	42.49717
	45.80233	42.49751
	45.8036	42.49784
	45.80608	42.49791
	45.80748	42.49831
	45.80835	42.49878
	45.81163	42.49891
	45.81919	42.49898
	45.82066	42.49972
	45.82193	42.50092
	45.82266	42.50273
	45.82186	42.5048
	45.82153	42.5064
	45.82213	42.50727
	45.82741	42.50948
	45.8327	42.51075
	45.83384	42.51095
	45.84159	42.51584
	45.84382	42.51792
	45.84662	42.52057
	45.84935	42.52389
	45.85029	42.52516
	45.85209	42.52679
	45.85269	42.52773
	45.85449	42.52894
	45.85523	42.53049
	45.85638	42.53222
	45.85933	42.53526
	45.86344	42.53748
	45.86599	42.53773
	45.87163	42.53775
	45.87464	42.5376
	45.87986	42.53809
	45.88223	42.53822
	45.88434	42.53932
	45.88554	42.54079
	45.88661	42.54353
	45.88782	42.5448
	45.88969	42.5456
	45.89143	42.54674
	45.89276	42.54808
	45.8943	42.54881
	45.90026	42.55229
	45.903	42.55289
	45.90467	42.55363
	45.91335	42.55342
	45.90732	42.55817
	45.90543	42.56021
	45.90214	42.56644
	45.90068	42.56957
	45.89845	42.57399
	45.89718	42.57671
	45.89611	42.5794
	45.89543	42.58072
	45.89541	42.58253
	45.89532	42.58404
	45.8976	42.58475
	45.89985	42.58453
	45.9036	42.58621
	45.90474	42.58654
	45.90865	42.58762
	45.91123	42.58861
	45.9123	42.58942
	45.9135	42.58988
	45.91424	42.59042
	45.91524	42.59129
	45.91631	42.59269
	45.91705	42.5935
	45.91965	42.59557
	45.92113	42.59744
	45.92253	42.59965
	45.92293	42.60112
	45.923	42.60219
	45.92387	42.60352
	45.92581	42.60455
	45.92782	42.60546
	45.92887	42.60453
	45.93094	42.60459
	45.93141	42.60406
	45.93382	42.60372
	45.93623	42.60305
	45.93803	42.60232
	45.93984	42.60098
	45.94205	42.59931
	45.94484	42.59876
	45.94665	42.59815
	45.9486	42.59593
	45.95115	42.59386
	45.95222	42.59286
	45.95255	42.58884
	45.95329	42.58797
	45.95476	42.58771
	45.95556	42.58717
	45.9562	42.58697
	45.95747	42.58476
	45.96008	42.58356
	45.96208	42.58262
	45.96335	42.58155
	45.96456	42.58135
	45.9677	42.58122
	45.97058	42.58162
	45.97245	42.58343
	45.97339	42.5849
	45.97606	42.58684
	45.97788	42.58738
	45.97962	42.58898
	45.98278	42.59086
	45.98614	42.59242
	45.98827	42.5932
	45.99034	42.59387
	45.99205	42.59481
	45.99417	42.59526
	45.99671	42.5954
	45.99817	42.59407
	46.00123	42.59423
	46.0041	42.59704
	46.00537	42.59865
	46.00631	42.60152
	46.00718	42.60286
	46.00854	42.60417
	46.01122	42.60567
	46.01237	42.60781
	46.01337	42.60895
	46.01527	42.6107
	46.01586	42.61207
	46.01763	42.61303
	46.01907	42.61447
	46.02097	42.61677
	46.0217	42.61864
	46.02167	42.62094
	46.02199	42.6221
	46.02118	42.62366
	46.02083	42.62492
	46.02062	42.62693
	46.02021	42.6282
	46.01916	42.63804
	46.01837	42.6483
	46.01713	42.65958
	46.01673	42.66439
	46.0166	42.66833
	46.01527	42.67213
	46.0153	42.67504
	46.01804	42.67595
	46.02046	42.67801
	46.02219	42.67841
	46.02842	42.68015
	46.03624	42.68163
	46.04213	42.6825
	46.05343	42.68243
	46.05959	42.68136
	46.06099	42.68122
	46.0629	42.68139
	46.06591	42.68213
	46.06765	42.6824
	46.07733	42.68116
	46.07934	42.68263
	46.08041	42.68424
	46.08209	42.68551
	46.08362	42.68692
	46.08378	42.68802
	46.08514	42.68987
	46.08575	42.69237
	46.08597	42.69395
	46.08552	42.69564
	46.08563	42.69635
	46.08525	42.69715
	46.08444	42.69811
	46.08323	42.7028
	46.08216	42.70447
	46.07835	42.70949
	46.07768	42.7117
	46.07686	42.71313
	46.07601	42.71432
	46.07632	42.71502
	46.0755	42.71632
	46.07618	42.71758
	46.07725	42.71852
	46.07894	42.71887
	46.08066	42.71844
	46.08346	42.71633
	46.08641	42.71536
	46.08751	42.71535
	46.08925	42.71511
	46.09037	42.71517
	46.09472	42.71228
	46.0977	42.71397
	46.09827	42.71724
	46.09871	42.71928
	46.09828	42.72086
	46.09875	42.72206
	46.09801	42.723
	46.09876	42.72507
	46.10015	42.72564
	46.10658	42.726
	46.10851	42.72347
	46.11205	42.72017
	46.11444	42.71987
	46.1182	42.72093
	46.13328	42.7228
	46.13922	42.72363
	46.14607	42.72533
	46.14991	42.72713
	46.15327	42.72887
	46.15419	42.72974
	46.15574	42.73014
	46.15651	42.73081
	46.15945	42.73141
	46.16106	42.73134
	46.1638	42.73087
	46.16866	42.73128
	46.17187	42.73161
	46.17462	42.73315
	46.17562	42.73415
	46.17689	42.7369
	46.17776	42.7383
	46.17856	42.73951
	46.17937	42.74258
	46.17769	42.74292
	46.17662	42.74325
	46.17341	42.74439
	46.17351	42.74598
	46.17122	42.74718
	46.16758	42.74765
	46.1631	42.74992
	46.1633	42.75099
	46.1651	42.75313
	46.16894	42.75481
	46.16676	42.75569
	46.16527	42.75669
	46.16581	42.75837
	46.16586	42.76044
	46.16574	42.76238
	46.16527	42.76465
	46.16477	42.76738
	46.16384	42.77026
	46.16239	42.77229
	46.16473	42.77539
	46.16729	42.77597
	46.16756	42.77747
	46.15637	42.77578
	46.15532	42.77664
	46.15529	42.77852
	46.15414	42.78102
	46.15145	42.78347
	46.15164	42.78506
	46.14776	42.78824
	46.14521	42.78979
	46.14068	42.79356
	46.13813	42.79561
	46.13693	42.79639
	46.13527	42.797
	46.13349	42.7977
	46.13125	42.79835
	46.12896	42.79859
	46.12354	42.79971
	46.11921	42.80073
	46.11678	42.80079
	46.11477	42.80152
	46.11591	42.80495
	46.11704	42.80723
	46.11864	42.80952
	46.11981	42.81108
	46.12017	42.81208
	46.12043	42.81255
	46.12093	42.81284
	46.12131	42.81333
	46.12177	42.81389
	46.12246	42.81457
	46.12308	42.81548
	46.12495	42.81776
	46.12714	42.82017
	46.12867	42.82215
	46.12948	42.82388
	46.13184	42.82572
	46.13345	42.8276
	46.13512	42.829
	46.13684	42.83051
	46.13898	42.83264
	46.13993	42.83397
	46.14142	42.83493
	46.14447	42.838
	46.1456	42.8394
	46.15061	42.84309
	46.15347	42.84513
	46.1551	42.84585
	46.15671	42.84683
	46.15811	42.84788
	46.15925	42.84982
	46.15978	42.85062
	46.16079	42.85083
	46.16208	42.85082
	46.16266	42.85092
	46.16407	42.85125
	46.1646	42.85196
	46.16494	42.85357
	46.165	42.85544
	46.16557	42.85615
	46.16698	42.85739
	46.16847	42.85897
	46.17092	42.86098
	46.1729	42.86332
	46.17453	42.86472
	46.1792	42.86967
	46.18114	42.87169
	46.18217	42.87335
	46.18446	42.87509
	46.18967	42.87757
	46.18899	42.87947
	46.18897	42.88174
	46.18591	42.88447
	46.18331	42.88783
	46.18477	42.88827
	46.18814	42.88914
	46.19167	42.88981
	46.19426	42.89028
	46.19948	42.89063
	46.20938	42.891
	46.21254	42.89015
	46.21346	42.88866
	46.21477	42.88761
	46.21628	42.88561
	46.21789	42.88286
	46.21881	42.88119
	46.22066	42.87878
	46.22518	42.87022
	46.22671	42.86721
	46.23126	42.86479
	46.2352	42.86266
	46.23794	42.86239
	46.23975	42.86184
	46.24261	42.86231
	46.24606	42.86386
	46.25146	42.86566
	46.25804	42.86647
	46.26085	42.86895
	46.26206	42.8729
	46.2642	42.87524
	46.26634	42.87905
	46.27212	42.88419
	46.27646	42.88626
	46.27934	42.88626
	46.28155	42.88546
	46.28322	42.88345
	46.28436	42.88154
	46.28638	42.88079
	46.28793	42.88017
	46.29051	42.87977
	46.29225	42.87904
	46.2972	42.87609
	46.2982	42.87364
	46.29904	42.87142
	46.30018	42.86911
	46.30065	42.86768
	46.30212	42.86588
	46.30263	42.86716
	46.30337	42.86875
	46.30411	42.87041
	46.30525	42.87305
	46.30567	42.87487
	46.30697	42.87673
	46.30825	42.87953
	46.31072	42.88208
	46.31199	42.88395
	46.31192	42.88657
	46.31039	42.89126
	46.30905	42.895
	46.30778	42.89721
	46.30676	42.89921
	46.306	42.90078
	46.30547	42.90274
	46.30505	42.9052
	46.30439	42.90744
	46.30662	42.91062
	46.30869	42.9121
	46.31603	42.90669
	46.31918	42.90381
	46.32232	42.9004
	46.32433	42.89722
	46.32846	42.8964
	46.33434	42.89547
	46.33715	42.8944
	46.3401	42.89192
	46.34337	42.88818
	46.34718	42.88533
	46.35397	42.87747
	46.35618	42.87533
	46.35946	42.874
	46.36635	42.86824
	46.36889	42.86584
	46.37096	42.8643
	46.3711	42.86325
	46.37246	42.86119
	46.37324	42.85851
	46.37404	42.85424
	46.36927	42.84998
	46.36855	42.84722
	46.36811	42.84362
	46.36944	42.84097
	46.37129	42.84186
	46.37475	42.84358
	46.3802	42.8464
	46.38472	42.84859
	46.3896	42.85112
	46.39464	42.85346
	46.39751	42.85491
	46.40474	42.85551
	46.4147	42.85698
	46.42153	42.85745
	46.42454	42.85805
	46.42915	42.85972
	46.43249	42.86041
	46.43532	42.86262
	46.43873	42.86608
	46.44459	42.87163
	46.44876	42.87802
	46.44487	42.87919
	46.44209	42.87971
	46.43795	42.88075
	46.43721	42.88182
	46.43735	42.88563
	46.44029	42.88717
	46.44407	42.88862
	46.44828	42.89036
	46.45454	42.89501
	46.45634	42.89561
	46.45973	42.89745
	46.46454	42.8996
	46.46979	42.90103
	46.473	42.90243
	46.47701	42.90397
	46.48163	42.90745
	46.48403	42.90859
	46.48812	42.9106
	46.49039	42.91227
	46.49815	42.91367
	46.50457	42.91595
	46.51012	42.91647
	46.52069	42.9168
	46.52484	42.91713
	46.52725	42.91834
	46.52905	42.91988
	46.53126	42.92329
	46.52845	42.92529
	46.52745	42.92637
	46.52263	42.92864
	46.51942	42.93058
	46.51708	42.93125
	46.51347	42.93299
	46.51193	42.93319
	46.50945	42.93519
	46.50765	42.93733
	46.50417	42.93974
	46.50009	42.94162
	46.4952	42.94523
	46.49306	42.94797
	46.49193	42.95045
	46.49367	42.95426
	46.49484	42.95799
	46.49718	42.9616
	46.49745	42.96287
	46.49637	42.96534
	46.49591	42.96755
	46.49624	42.97023
	46.4949	42.97304
	46.49443	42.97551
	46.49343	42.97685
	46.49296	42.97772
	46.49222	42.98024
	46.48982	42.98147
	46.48855	42.98361
	46.48738	42.98501
	46.48494	42.98707
	46.48393	42.98782
	46.48286	42.98896
	46.48233	42.9907
	46.48059	42.99163
	46.47992	42.99317
	46.47872	42.99424
	46.47758	42.99665
	46.47704	42.99819
	46.47704	43.00033
	46.47764	43.00227
	46.47708	43.0034
	46.4772	43.00402
	46.4766	43.00487
	46.47542	43.00592
	46.47388	43.00652
	46.47295	43.00752
	46.4711	43.00853
	46.46975	43.00958
	46.46815	43.01104
	46.46646	43.01291
	46.46783	43.01547
	46.4741	43.01703
	46.47952	43.01844
	46.48848	43.01884
	46.4935	43.01904
	46.49724	43.01891
	46.50159	43.01757
	46.5048	43.01677
	46.50574	43.01744
	46.50581	43.01871
	46.50487	43.02185
	46.505	43.02406
	46.50667	43.02921
	46.51089	43.02653
	46.51376	43.0258
	46.5153	43.02486
	46.51678	43.02352
	46.51825	43.02319
	46.51985	43.02379
	46.52019	43.02519
	46.51755	43.03043
	46.51567	43.0303
	46.5112	43.03019
	46.50912	43.0303
	46.50581	43.03229
	46.50258	43.03504
	46.50025	43.03317
	46.5028	43.03085
	46.49543	43.02516
	46.48923	43.02916
	46.48814	43.03933
	46.4891	43.03994
	46.49035	43.04071
	46.49565	43.03822
	46.51711	43.04523
	46.51811	43.04285
	46.52149	43.0405
	46.5229	43.04056
	46.52121	43.04372
	46.52264	43.04483
	46.52188	43.04798
	46.52012	43.0534
	46.51882	43.05699
	46.51816	43.06059
	46.51555	43.0651
	46.51138	43.06838
	46.50389	43.07322
	46.49675	43.07558
	46.49911	43.07804
	46.50445	43.08595
	46.49656	43.08948
	46.49079	43.09157
	46.48978	43.09043
	46.48865	43.08983
	46.48677	43.08708
	46.47268	43.08693
	46.46464	43.08673
	46.45748	43.0873
	46.44557	43.08496
	46.43302	43.08296
	46.43142	43.08856
	46.41761	43.10654
	46.42514	43.11098
	46.41942	43.11652
	46.42442	43.12016
	46.42139	43.12378
	46.41664	43.1251
	46.41275	43.12608
	46.41076	43.1263
	46.40982	43.1267
	46.40491	43.12862
	46.39907	43.1296
	46.39456	43.13609
	46.39167	43.13993
	46.38619	43.14831
	46.39443	43.15177
	46.39577	43.15244
	46.40727	43.15973
	46.42426	43.17318
	46.43684	43.18624
	46.42119	43.19088
	46.42306	43.19844
	46.42189	43.20115
	46.40834	43.20111
	46.39217	43.20284
	46.3928	43.20456
	46.39309	43.20618
	46.39302	43.20812
	46.39456	43.20901
	46.39553	43.21017
	46.39675	43.21263
	46.39798	43.21536
	46.40054	43.21751
	46.40284	43.21932
	46.4032	43.2211
	46.40306	43.22257
	46.40361	43.22504
	46.40493	43.22678
	46.40707	43.22839
	46.40767	43.22993
	46.40907	43.23185
	46.40961	43.23302
	46.41049	43.24313
	46.40928	43.24605
	46.40876	43.24792
	46.40985	43.25147
	46.40902	43.25537
	46.41107	43.25651
	46.41236	43.25801
	46.41463	43.25932
	46.41592	43.26032
	46.41673	43.26158
	46.416	43.26255
	46.417	43.26429
	46.41816	43.26615
	46.41764	43.26785
	46.41814	43.26956
	46.41888	43.27111
	46.41946	43.27343
	46.42122	43.27379
	46.42382	43.27887
	46.42373	43.28304
	46.42232	43.28527
	46.42055	43.28794
	46.42105	43.28966
	46.42342	43.29264
	46.42407	43.29515
	46.42333	43.29635
	46.41995	43.29705
	46.41962	43.2977
	46.41853	43.29956
	46.41426	43.30367
	46.41483	43.31106
	46.41234	43.31742
	46.40953	43.32428
	46.40743	43.32606
	46.40206	43.32752
	46.39834	43.33112
	46.39864	43.33326
	46.39735	43.33423
	46.39611	43.33566
	46.38998	43.33642
	46.38549	43.33772
	46.37862	43.33891
	46.36992	43.34175
	46.37039	43.34499
	46.3705	43.34977
	46.36303	43.35425
	46.36261	43.35711
	46.36074	43.36355
	46.35963	43.36784
	46.35915	43.3709
	46.35421	43.37223
	46.35262	43.37699
	46.35209	43.37834
	46.34808	43.38425
	46.34545	43.38733
	46.34371	43.3918
	46.34323	43.39297
	46.34217	43.39338
	46.33896	43.39701
	46.33525	43.40056
	46.33554	43.40217
	46.33542	43.40423
	46.33293	43.4098
	46.33253	43.41367
	46.33161	43.41371
	46.33233	43.41528
	46.33035	43.43429
	46.32984	43.43719
	46.32757	43.44978
	46.3306	43.45211
	46.33238	43.45433
	46.33387	43.4572
	46.34228	43.4611
	46.34872	43.4656
	46.35503	43.47009
	46.37093	43.47195
	46.37945	43.47709
	46.38672	43.47987
	46.38673	43.48861
	46.38127	43.49494
	46.38362	43.49705
	46.38736	43.49825
	46.39564	43.49833
	46.40079	43.49861
	46.40713	43.50224
	46.40939	43.50658
	46.41118	43.50993
	46.40861	43.51943
	46.40963	43.52634
	46.41359	43.53015
	46.41753	43.53162
	46.42033	43.53268
	46.42422	43.53336
	46.43323	43.53625
	46.43382	43.5413
	46.42882	43.54704
	46.42492	43.55178
	46.42564	43.55711
	46.42864	43.56334
	46.43019	43.56869
	46.43078	43.57489
	46.42854	43.57997
	46.42072	43.58569
	46.41331	43.59002
	46.41253	43.59418
	46.41389	43.59666
	46.41958	43.59847
	46.42653	43.6011
	46.42972	43.60507
	46.42964	43.60836
	46.42543	43.61177
	46.42656	43.61608
	46.43066	43.61734
	46.43552	43.61811
	46.44097	43.61855
	46.44326	43.62281
	46.44589	43.62805
	46.451	43.62997
	46.45385	43.63125
	46.45042	43.63622
	46.44643	43.64216
	46.44715	43.64774
	46.44904	43.65311
	46.45192	43.658
	46.45513	43.66314
	46.45968	43.66715
	46.46577	43.67101
	46.47007	43.67289
	46.4747	43.67409
	46.47683	43.67795
	46.47831	43.68343
	46.48231	43.68733
	46.48847	43.68881
	46.49689	43.69416
	46.50278	43.70018
	46.51362	43.70473
	46.51803	43.71343
	46.53556	43.7283
	46.53715	43.72853
	46.53914	43.73657
	46.5446	43.7475
	46.54719	43.75147
	46.54944	43.75378
	46.5554	43.75889
	46.55918	43.76116
	46.56204	43.76045
	46.56611	43.76177
	46.56823	43.76163
	46.57328	43.76487
	46.57545	43.76526
	46.58207	43.76604
	46.58563	43.76816
	46.58799	43.76851
	46.58975	43.76808
	46.59514	43.76867
	46.59931	43.76888
	46.60783	43.76872
	46.61076	43.76693
	46.61415	43.76587
	46.61735	43.7666
	46.62057	43.76801
	46.6238	43.76882
	46.62738	43.76915
	46.63051	43.77043
	46.63201	43.77307
	46.63212	43.7753
	46.63275	43.77711
	46.63602	43.77907
	46.6404	43.78068
	46.64328	43.78288
	46.64617	43.78371
	46.64738	43.7846
	46.64784	43.78769
	46.65196	43.7903
	46.65375	43.79187
	46.65513	43.79354
	46.65387	43.79588
	46.65215	43.79751
	46.64981	43.79981
	46.64972	43.80105
	46.64968	43.80538
	46.64982	43.80699
	46.64908	43.80864
	46.64863	43.80953
	46.64845	43.81049
	46.64778	43.81195
	46.64771	43.81364
	46.64743	43.81486
	46.64771	43.81638
	46.64856	43.81834
	46.6501	43.82004
	46.65128	43.82091
	46.65496	43.82262
	46.65563	43.82463
	46.66066	43.83378
	46.66019	43.83387
	46.65907	43.83411
	46.65846	43.83434
	46.6584	43.83438
	46.65837	43.83435
	46.657	43.8335
	46.65384	43.83238
	46.65171	43.83141
	46.65069	43.82916
	46.64999	43.8289
	46.6496	43.8288
	46.64713	43.8284
	46.64668	43.82838
	46.64545	43.82847
	46.64403	43.82861
	46.64268	43.8289
	46.64154	43.82925
	46.6412	43.82938
	46.63963	43.8302
	46.63861	43.83062
	46.63721	43.83094
	46.63625	43.83097
	46.63529	43.83082
	46.63336	43.83223
	46.62832	43.83109
	46.62491	43.83061
	46.61944	43.82996
	46.61891	43.8317
	46.61976	43.83247
	46.62182	43.83412
	46.6217	43.83539
	46.62057	43.83579
	46.61962	43.83662
	46.61899	43.83804
	46.62033	43.83955
	46.62054	43.83989
	46.61976	43.84178
	46.6181	43.84215
	46.61723	43.84319
	46.61705	43.84558
	46.61743	43.84853
	46.61668	43.85031
	46.61526	43.85042
	46.61391	43.85015
	46.60975	43.84896
	46.60735	43.85004
	46.60634	43.84872
	46.60506	43.84791
	46.58978	43.86904
	46.58893	43.87038
	46.58898	43.87053
	46.58581	43.87079
	46.58136	43.87107
	46.57984	43.87124
	46.57924	43.87141
	46.57631	43.87273
	46.57625	43.87277
	46.57553	43.87312
	46.57071	43.87334
	46.56193	43.87145
	46.55604	43.86911
	46.55313	43.86674
	46.54555	43.86255
	46.54251	43.86022
	46.5393	43.8583
	46.52381	43.85895
	46.51534	43.85938
	46.51285	43.85934
	46.49376	43.85852
	46.4969	43.86111
	46.49882	43.86234
	46.49711	43.86612
	46.49297	43.8674
	46.49467	43.87328
	46.49556	43.87728
	46.49527	43.87901
	46.4871	43.87814
	46.47586	43.87731
	46.46924	43.87662
	46.46621	43.87638
	46.46429	43.87624
	46.45133	43.87512
	46.4492	43.8757
	46.44752	43.87659
	46.44628	43.87784
	46.44517	43.87818
	46.44599	43.87938
	46.44915	43.88162
	46.45134	43.88281
	46.45174	43.88397
	46.45148	43.88535
	46.45193	43.88706
	46.45333	43.8888
	46.45422	43.89051
	46.4537	43.89138
	46.45238	43.89182
	46.45074	43.89198
	46.449	43.89338
	46.44907	43.89411
	46.44872	43.89527
	46.45119	43.89752
	46.45051	43.9013
	46.45041	43.90368
	46.45197	43.9069
	46.45213	43.90852
	46.45338	43.90845
	46.4527	43.91252
	46.45029	43.91466
	46.44846	43.91784
	46.44863	43.91921
	46.45021	43.92173
	46.45262	43.92243
	46.45538	43.92219
	46.45805	43.92374
	46.45861	43.92563
	46.45866	43.92667
	46.46065	43.92979
	46.46035	43.9314
	46.46163	43.93249
	46.46039	43.93395
	46.45782	43.93443
	46.45598	43.9349
	46.45395	43.93579
	46.4533	43.93742
	46.45556	43.9411
	46.45722	43.94174
	46.45699	43.94262
	46.45707	43.94436
	46.45488	43.94716
	46.4532	43.94843
	46.45054	43.94963
	46.44698	43.95224
	46.44506	43.95418
	46.44377	43.95553
	46.44098	43.95614
	46.43894	43.95542
	46.43768	43.95277
	46.4363	43.95183
	46.43421	43.95195
	46.43283	43.95331
	46.43242	43.95467
	46.433	43.95638
	46.43511	43.95865
	46.43673	43.9607
	46.43512	43.96258
	46.43373	43.96386
	46.43427	43.96565
	46.43555	43.96621
	46.43967	43.96494
	46.44274	43.96505
	46.44451	43.96581
	46.44489	43.96802
	46.43983	43.96941
	46.43822	43.97008
	46.43394	43.97062
	46.43287	43.97169
	46.43261	43.97289
	46.43408	43.97383
	46.43809	43.9749
	46.43916	43.97637
	46.43903	43.97771
	46.43756	43.97905
	46.43595	43.98145
	46.43127	43.9844
	46.42779	43.98573
	46.42685	43.98761
	46.42766	43.98881
	46.43113	43.99002
	46.43608	43.99403
	46.43809	43.99684
	46.43755	44.00299
	46.32036	44.00981
	46.32143	44.00781
	46.32197	44.00473
	46.32397	44.00192
	46.32411	43.99965
	46.32531	43.99844
	46.32946	43.99791
	46.33254	43.9971
	46.33414	43.99537
	46.33508	43.99336
	46.33561	43.99202
	46.33802	43.99055
	46.34311	43.98894
	46.34418	43.98707
	46.34297	43.9864
	46.34097	43.98613
	46.34043	43.98573
	46.34056	43.9852
	46.34097	43.98453
	46.3415	43.98399
	46.34097	43.98346
	46.3407	43.98266
	46.3411	43.98212
	46.3419	43.98145
	46.34404	43.98065
	46.34538	43.97945
	46.34538	43.97731
	46.34351	43.97476
	46.34257	43.97195
	46.34257	43.97102
	46.34444	43.96941
	46.34498	43.96807
	46.34511	43.96634
	46.34645	43.96513
	46.34873	43.96339
	46.3506	43.96045
	46.35127	43.95978
	46.35113	43.95871
	46.35087	43.95777
	46.351	43.9567
	46.3518	43.95577
	46.3522	43.95496
	46.35234	43.95336
	46.35756	43.95108
	46.35675	43.94975
	46.35501	43.94854
	46.35475	43.9472
	46.35648	43.94587
	46.35769	43.94573
	46.35876	43.94493
	46.35889	43.94386
	46.252	43.94493
	46.25013	43.88195
	46.21588	43.85921
	46.09488	43.86108
	46.09515	43.84021
	46.07909	43.84111
	46.07829	43.81717
	46.04404	43.81984
	46.00264	43.88098
	46.03474	43.88794
	46.05802	43.88539
	46.0712	43.93055
	45.99628	43.94004
	45.88611	43.95118
	45.85882	43.97138
	45.79581	43.97058
	45.79581	43.95238
	45.72134	43.95304
	45.71512	43.95294
	45.71075	43.96188
	45.54639	43.99876
	45.52146	43.99917
	45.48677	43.99944
	45.49105	44.09073
	45.49017	44.12857
	45.50434	44.12897
	45.50362	44.1758
	45.48556	44.17755
	45.46089	44.1759
	45.39841	44.17701
	45.37581	44.1802
	45.31007	44.18426
	45.30832	44.18147
	45.28878	44.18219
	45.28878	44.18378
	45.18767	44.18937
	45.15818	44.19207
	45.12392	44.19319
	45.10363	44.19167
	45.11962	44.22021
	45.13667	44.2538
	45.21688	44.26394
	45.21767	44.27086
	45.2466	44.27526
	45.3082	44.28266
	45.3082	44.28195
	45.37151	44.29014
	45.4259	44.39406
	45.42909	44.4288
	45.39773	44.43628
	45.38667	44.45208
	45.37274	44.45463
	45.35841	44.46465
	45.22674	44.46752
	45.23112	44.50679
	45.26486	44.50433
	45.26558	44.51055
	45.26812	44.51796
	45.23947	44.55677
	45.2421	44.55829
	45.25221	44.57295
	45.26072	44.58934
	45.31364	44.59191
	45.33513	44.59653
	45.34257	44.59358
	45.34751	44.60226
	45.38432	44.60681
	45.41233	44.59416
	45.49776	44.66243
	45.52192	44.6794
	45.55948	44.7144
	45.65554	44.80369
	45.61976	44.86483
	45.61347	44.87398
	45.70512	44.97736
	45.70962	44.97759
	45.71427	44.97425
	45.7217	44.97481
	45.72746	44.97388
	45.73471	44.97276
	45.74884	44.97536
	45.75813	44.97369
	45.77597	44.96905
	45.78341	44.96849
	45.78861	44.97053
	45.79215	44.97406
	45.79735	44.97685
	45.79772	44.97927
	45.79623	44.9828
	45.794	44.98577
	45.79363	44.98763
	45.80032	44.98726
	45.81371	44.99172
	45.82003	44.99079
	45.82969	44.99023
	45.83787	44.98819
	45.84605	44.98577
	45.85367	44.98708
	45.86538	44.98745
	45.86928	44.98745
	45.87411	44.9854
	45.8782	44.98577
	45.88136	44.988
	45.88489	44.98782
	45.89196	44.98726
	45.90144	44.98745
	45.91166	44.98708
	45.92021	44.98615
	45.9308	44.98466
	45.94902	44.98633
	45.95664	44.98503
	45.96444	44.98206
	45.96928	44.98076
	45.9743	44.98243
	45.97838	44.98689
	45.98247	44.98912
	45.99939	44.98726
	46.00422	44.98429
	46.01054	44.98076
	46.0163	44.97964
	46.02188	44.97908
	46.0256	44.97927
	46.02894	44.98132
	46.03191	44.98076
	46.03861	44.97778
	46.04901	44.97537
	46.06091	44.97295
	46.06667	44.97128
	46.07243	44.967
	46.07671	44.96477
	46.07968	44.96496
	46.08024	44.967
	46.08303	44.96868
	46.08637	44.96812
	46.09864	44.96849
	46.10217	44.96979
	46.11741	44.96979
	46.12968	44.96663
	46.15533	44.95883
	46.15979	44.95846
	46.16109	44.95976
	46.16109	44.96162
	46.16147	44.9631
	46.17503	44.96236
	46.18916	44.95994
	46.19418	44.95827
	46.20031	44.95846
	46.20607	44.96143
	46.21332	44.96422
	46.22001	44.96886
	46.22373	44.97277
	46.22615	44.97295
	46.23302	44.97202
	46.2438	44.96886
	46.24882	44.96571
	46.25886	44.9644
	46.28191	44.95864
	46.30496	44.95474
	46.31239	44.95232
	46.31741	44.95177
	46.32168	44.95139
	46.32596	44.94972
	46.32856	44.94991
	46.33116	44.95046
	46.34101	44.95047
	46.34733	44.95102
	46.35142	44.94861
	46.35533	44.94489
	46.35588	44.9421
	46.35867	44.9408
	46.35997	44.94154
	46.36239	44.94377
	46.36536	44.94433
	46.36797	44.94452
	46.36889	44.94656
	46.37205	44.94731
	46.37521	44.94749
	46.38321	44.94731
	46.39362	44.94415
	46.40402	44.94229
	46.41295	44.93764
	46.42707	44.93448
	46.4306	44.93448
	46.43413	44.93708
	46.43432	44.93876
	46.43767	44.93894
	46.44176	44.93894
	46.44938	44.93913
	46.47075	44.93578
	46.47651	44.93337
	46.4845	44.93039
	46.50458	44.9343
	46.51164	44.92965
	46.5241	44.92575
	46.54621	44.91738
	46.57056	44.90735
	46.57391	44.904
	46.57465	44.90289
	46.57502	44.89991
	46.57688	44.89861
	46.58171	44.89452
	46.58487	44.88987
	46.6122	44.87501
	46.61703	44.87278
	46.62261	44.86869
	46.62484	44.86739
	46.62651	44.8672
	46.62893	44.86608
	46.6332	44.86255
	46.63506	44.86107
	46.63636	44.86162
	46.63729	44.86348
	46.63933	44.86423
	46.64249	44.86404
	46.64807	44.86237
	46.65197	44.86237
	46.65476	44.86088
	46.65774	44.85921
	46.65959	44.85902
	46.6622	44.86014
	46.66443	44.86014
	46.6661	44.85846
	46.66982	44.85846
	46.67298	44.85958
	46.67707	44.85884
	46.68116	44.85623
	46.68469	44.85084
	46.69008	44.84657
	46.69733	44.84434
	46.70272	44.84341
	46.70773	44.84192
	46.70978	44.84285
	46.71238	44.84285
	46.71424	44.84211
	46.71517	44.84062
	46.7187	44.83858
	46.72056	44.83951
	46.72465	44.83913
	46.72855	44.83821
	46.73524	44.83653
	46.74008	44.8356
	46.74305	44.83282
	46.7464	44.83189
	46.74993	44.83077
	46.75625	44.83021
	46.76182	44.82873
	46.76684	44.82761
	46.76982	44.82631
	46.77186	44.82464
	46.77279	44.81943
	46.7713	44.81683
	46.76796	44.8133
	46.76201	44.8107
	46.75941	44.80456
	46.75513	44.80289
	46.75495	44.80047
	46.75606	44.7988
	46.75811	44.79769
	46.7622	44.7975
	46.76573	44.79694
	46.77037	44.7923
	46.77595	44.79007
	46.7819	44.78988
	46.78431	44.78895
	46.78729	44.78839
	46.7897	44.78598
	46.79212	44.78393
	46.79547	44.78356
	46.7964	44.78207
	46.79621	44.78021
	46.79788	44.77761
	46.79974	44.77668
	46.8029	44.77613
	46.80495	44.77371
	46.80662	44.77278
	46.80959	44.77204
	46.81294	44.77055
	46.81257	44.76962
	46.81219	44.76683
	46.81257	44.76293
	46.81498	44.76219
	46.81796	44.76033
	46.82074	44.75977
	46.82353	44.76107
	46.82613	44.76181
	46.82967	44.76219
	46.83078	44.76274
	46.83097	44.76479
	46.83208	44.76572
	46.83487	44.7659
	46.83617	44.76665
	46.83766	44.76851
	46.83691	44.77018
	46.83264	44.77185
	46.82818	44.77427
	46.82613	44.77724
	46.82297	44.7804
	46.8226	44.78263
	46.82409	44.78486
	46.82539	44.78672
	46.82502	44.78895
	46.8226	44.79025
	46.82074	44.79118
	46.81926	44.79248
	46.81665	44.79471
	46.81405	44.79527
	46.81275	44.7949
	46.80996	44.79508
	46.80903	44.79694
	46.80941	44.79992
	46.80773	44.80382
	46.81368	44.80772
	46.82316	44.80865
	46.82613	44.80828
	46.83896	44.80401
	46.84918	44.80178
	46.86015	44.79917
	46.86498	44.79936
	46.86888	44.80066
	46.87279	44.8014
	46.87873	44.80494
	46.88691	44.81051
	46.89546	44.81219
	46.89844	44.812
	46.90122	44.80865
	46.93598	44.78932
	46.97855	44.76646
	47.29361	44.71889
	47.60722	44.72168
	49.70944	42.35746
	48.8141	41.95029
	48.59209	41.84249
	48.59017	41.84042
	48.58875	41.83935
	48.58714	41.83844
	48.58514	41.8375
	48.58232	41.83672
	48.57997	41.83388
	48.5799	41.83121
	48.57869	41.82912
	48.57887	41.82853
	48.57797	41.82698
	48.57745	41.82375
	48.57672	41.8218
	48.57687	41.82038
	48.57723	41.8193
	48.57841	41.81711
	48.57859	41.81575
	48.57835	41.81464
	48.57667	41.81307
	48.57596	41.8121
	48.57418	41.81045
	48.57347	41.80942
	48.57174	41.80856
	48.56976	41.80682
	48.56855	41.80383
	48.56797	41.80287
	48.56626	41.8028
	48.56454	41.80286
	48.55811	41.80237
	48.55706	41.80174
	48.5567	41.80087
	48.55781	41.79748
	48.55589	41.79465
	48.55525	41.79323
	48.55468	41.79208
	48.55466	41.79149
	48.55326	41.78829
	48.5537	41.78667
	48.55449	41.78578
	48.55488	41.78486
	48.55557	41.78241
	48.55485	41.78144
	48.55418	41.78037
	48.54879	41.7763
	48.54457	41.77215
	48.5407	41.76831
	48.53799	41.76538
	48.52498	41.75434
	48.52291	41.7526
	48.5176	41.74803
	48.51544	41.74619
	48.51528	41.74602
	48.51432	41.74325
	48.51309	41.74196
	48.51029	41.73995
	48.50004	41.73187
	48.49585	41.72953
	48.49385	41.72845
	48.49257	41.72793
	48.49168	41.72732
	48.48978	41.72425
	48.48883	41.72324
	48.48781	41.72243
	48.48598	41.72143
	48.4853	41.71946
	48.48353	41.71701
	48.48086	41.71457
	48.4803	41.71388
	48.48045	41.71336
	48.48075	41.71251
	48.48044	41.71162
	48.47974	41.71112
	48.47902	41.70996
	48.4788	41.70908
	48.4785	41.70891
	48.47807	41.70885
	48.47522	41.70708
	48.47477	41.70663
	48.47555	41.70496
	48.47238	41.70148
	48.46943	41.69971
	48.4675	41.69664
	48.45657	41.68991
	48.45566	41.6857
END
END
