Russia_Republic of Karelia_South
1
	29.30593	61.32929
	29.32198	61.3433
	29.32224	61.34524
	29.32178	61.34679
	29.32363	61.34809
	29.32489	61.34872
	29.32574	61.35008
	29.32812	61.35199
	29.33044	61.35262
	29.33262	61.35303
	29.33407	61.3543
	29.33457	61.3552
	29.34778	61.36352
	29.41288	61.40455
	29.50277	61.46109
	29.49646	61.49157
	29.55781	61.49227
	29.57853	61.49565
	29.59143	61.4954
	29.5928	61.4958
	29.59439	61.49621
	29.59471	61.49681
	29.59545	61.49719
	29.59777	61.49775
	29.59883	61.4981
	29.59957	61.49858
	29.60015	61.49934
	29.60057	61.50004
	29.60459	61.50072
	29.60613	61.50029
	29.60734	61.50024
	29.60697	61.50115
	29.60713	61.50171
	29.60798	61.50232
	29.64542	61.5199
	29.64295	61.52579
	29.68835	61.55182
	29.71135	61.56013
	29.7403	61.5737
	29.74877	61.5827
	29.7496	61.59106
	29.75461	61.60314
	29.78964	61.62527
	29.79353	61.62673
	29.804	61.63425
	29.80524	61.63477
	29.80748	61.63515
	29.81032	61.63499
	29.81072	61.63549
	29.81184	61.6387
	29.81171	61.64133
	29.81244	61.64359
	29.81336	61.64576
	29.81429	61.64758
	29.81548	61.64862
	29.81733	61.65069
	29.81855	61.65493
	29.84512	61.67012
	29.86116	61.67011
	29.86107	61.67667
	29.86242	61.67675
	29.86364	61.67679
	29.86448	61.67712
	29.86506	61.67809
	29.86533	61.67921
	29.86667	61.68033
	29.8679	61.68171
	29.93789	61.7166
	29.94764	61.72132
	29.94849	61.72143
	29.94947	61.72164
	29.9503	61.72202
	29.95062	61.72247
	29.95078	61.72284
	29.98577	61.73975
	30.02568	61.75878
	30.02592	61.75879
	30.02623	61.75879
	30.0271	61.75894
	30.02766	61.75919
	30.02789	61.75958
	30.02782	61.7598
	30.03873	61.765
	30.04728	61.77263
	30.07092	61.81797
	30.07139	61.81868
	30.0719	61.81886
	30.07287	61.81892
	30.07326	61.81879
	30.07405	61.8185
	30.07524	61.81836
	30.14397	61.85223
	30.15566	61.85799
	30.16547	61.86387
	30.19621	61.88221
	30.19409	61.89128
	30.21143	61.89271
	30.22909	61.90367
	30.24214	61.91172
	30.25417	61.91998
	30.26663	61.92847
	30.27418	61.93364
	30.30072	61.93497
	30.31063	61.94195
	30.31273	61.94501
	30.30851	61.9555
	30.30711	61.95894
	30.30639	61.96069
	30.30616	61.96102
	30.30621	61.96152
	30.30599	61.96175
	30.30473	61.96242
	30.30439	61.96266
	30.30438	61.96281
	30.30447	61.963
	30.30515	61.96371
	30.30523	61.9639
	30.30541	61.96402
	30.30611	61.96455
	30.30636	61.96464
	30.30651	61.96468
	30.30655	61.96468
	30.30692	61.9647
	30.30716	61.96477
	30.3073	61.96487
	30.30723	61.9652
	30.30767	61.96542
	30.30786	61.96558
	30.30805	61.96571
	30.30852	61.96592
	30.30887	61.96606
	30.30924	61.96625
	30.30959	61.96658
	30.30983	61.96675
	30.31014	61.96689
	30.31092	61.96706
	30.31131	61.96708
	30.31163	61.96706
	30.31225	61.96695
	30.31254	61.96698
	30.31299	61.96714
	30.3134	61.96722
	30.31395	61.96731
	30.31411	61.96744
	30.31419	61.96766
	30.31452	61.96791
	30.31516	61.96819
	30.31618	61.96857
	30.31679	61.9687
	30.31731	61.96887
	30.31753	61.96909
	30.31779	61.96922
	30.31825	61.96935
	30.31864	61.96935
	30.3191	61.96933
	30.31965	61.96947
	30.31996	61.9696
	30.32026	61.96965
	30.32063	61.96966
	30.32152	61.96989
	30.32222	61.97002
	30.32304	61.9703
	30.32362	61.97048
	30.32408	61.97058
	30.32437	61.97067
	30.32447	61.97084
	30.32465	61.97143
	30.32506	61.97175
	30.32565	61.97199
	30.32621	61.97211
	30.32653	61.97225
	30.32666	61.97239
	30.32719	61.97265
	30.3275	61.97288
	30.32771	61.97312
	30.33745	61.9731
	30.35186	61.98015
	30.3765	61.99909
	30.40934	62.01663
	30.42317	62.02237
	30.43867	62.03322
	30.44468	62.03229
	30.44728	62.03448
	30.44324	62.03663
	30.48307	62.06383
	30.49639	62.07257
	30.54052	62.10284
	30.56729	62.12005
	30.60207	62.14135
	30.63558	62.17363
	30.63541	62.17373
	30.63482	62.17425
	30.6346	62.17482
	30.6343	62.17526
	30.63416	62.17556
	30.63415	62.17595
	30.63432	62.17755
	30.63415	62.17812
	30.63394	62.17867
	30.63332	62.17924
	30.63237	62.17989
	30.63159	62.18075
	30.63091	62.18145
	30.63022	62.18227
	30.62957	62.18355
	30.62934	62.18407
	30.62894	62.18557
	30.62887	62.18608
	30.62876	62.18644
	30.62868	62.18667
	30.62836	62.18706
	30.62836	62.18778
	30.62871	62.18849
	30.62912	62.18911
	30.62977	62.18968
	30.63088	62.19042
	30.63153	62.19078
	30.63188	62.19088
	30.63279	62.19116
	30.634	62.19135
	30.63552	62.19172
	30.63665	62.1921
	30.64862	62.20209
	30.64877	62.20207
	30.64931	62.20207
	30.64986	62.20209
	30.65023	62.20209
	30.65069	62.20207
	30.65115	62.20207
	30.65154	62.20212
	30.65175	62.20217
	30.65257	62.20256
	30.65281	62.20275
	30.65766	62.20701
	30.65829	62.20754
	30.65862	62.2079
	30.65869	62.20801
	30.65889	62.20876
	30.66131	62.20893
	30.67383	62.20981
	30.68456	62.2104
	30.68881	62.21039
	30.72041	62.20891
	30.74406	62.22612
	30.74467	62.2267
	30.74631	62.22673
	30.76527	62.23508
	30.77358	62.2406
	30.78203	62.2461
	30.78954	62.25102
	30.80866	62.261
	30.80948	62.26961
	30.81096	62.27069
	30.83449	62.27534
	30.84044	62.27864
	30.8472	62.28201
	30.86023	62.28857
	30.88657	62.30164
	30.90435	62.31026
	30.92072	62.3088
	30.93074	62.30672
	30.94	62.30616
	30.94327	62.30597
	30.95517	62.31227
	30.96225	62.32725
	30.96196	62.32754
	30.962	62.32775
	30.96121	62.32819
	30.96029	62.3282
	30.96	62.32821
	30.95846	62.32836
	30.95762	62.32873
	30.95688	62.32902
	30.95566	62.32902
	30.9555	62.32954
	30.95503	62.32976
	30.95392	62.32995
	30.95365	62.33035
	30.95296	62.33064
	30.95148	62.33076
	30.95064	62.33101
	30.9511	62.33134
	30.95096	62.3316
	30.95079	62.33162
	30.94994	62.33175
	30.94981	62.33205
	30.94875	62.33224
	30.94796	62.33226
	30.94734	62.33257
	30.9471	62.33246
	30.94715	62.33219
	30.94651	62.33216
	30.94572	62.33216
	30.94524	62.33256
	30.94494	62.33252
	30.94468	62.3323
	30.94403	62.33239
	30.94361	62.33261
	30.94244	62.333
	31.00483	62.36791
	31.07144	62.40517
	31.07731	62.40737
	31.09314	62.41608
	31.13831	62.44208
	31.14866	62.44476
	31.16341	62.44549
	31.16285	62.45475
	31.16518	62.46264
	31.1734	62.48189
	31.18697	62.48732
	31.18583	62.49357
	31.19847	62.49566
	31.22183	62.4983
	31.23579	62.51301
	31.24599	62.52277
	31.24597	62.52369
	31.24516	62.52521
	31.25432	62.53363
	31.31459	62.60475
	31.3454	62.64033
	31.34689	62.64022
	31.34753	62.64012
	31.34862	62.64009
	31.3492	62.64029
	31.3496	62.64057
	31.34936	62.64088
	31.349	62.64119
	31.34855	62.6415
	31.3479	62.64186
	31.34679	62.64235
	31.34581	62.64307
	31.34596	62.64352
	31.34657	62.64377
	31.34736	62.64387
	31.34804	62.64387
	31.34912	62.64379
	31.35176	62.64344
	31.35259	62.64336
	31.35395	62.64342
	31.35418	62.64351
	31.35466	62.64372
	31.35593	62.64434
	31.35663	62.64478
	31.35705	62.64503
	31.3578	62.64513
	31.35856	62.64506
	31.36095	62.64467
	31.3617	62.64471
	31.36294	62.64505
	31.36399	62.64545
	31.36613	62.64678
	31.36795	62.64808
	31.37002	62.64843
	31.37104	62.64842
	31.37212	62.649
	31.37303	62.64971
	31.3736	62.65063
	31.37465	62.6534
	31.37638	62.65578
	31.37654	62.6575
	31.37634	62.65799
	31.37661	62.6592
	31.37722	62.66001
	31.37703	62.66071
	31.37662	62.66104
	31.37579	62.663
	31.37618	62.66369
	31.37751	62.66396
	31.37772	62.66443
	31.37769	62.66499
	31.37735	62.66566
	31.37723	62.6663
	31.37743	62.66711
	31.37717	62.66776
	31.37696	62.66838
	31.37694	62.66927
	31.37776	62.66997
	31.37876	62.67058
	31.3775	62.67075
	31.37691	62.67096
	31.37637	62.67124
	31.37664	62.67144
	31.37714	62.67168
	31.37797	62.67175
	31.37867	62.67182
	31.37959	62.67185
	31.38174	62.6748
	31.3839	62.6747
	31.38623	62.67521
	31.3857	62.68215
	31.38013	62.68985
	31.39628	62.71669
	31.42476	62.76306
	31.43906	62.78538
	31.46749	62.78328
	31.4547	62.79627
	31.49184	62.82671
	31.54004	62.86723
	31.54136	62.86845
	31.58483	62.90704
	31.5867	62.90872
	31.58062	62.91292
	31.58083	62.91424
	31.57645	62.91676
	31.57634	62.91684
	31.5758	62.91706
	31.57572	62.9173
	31.57552	62.91744
	31.57506	62.91738
	31.57435	62.91752
	31.57468	62.91781
	31.57454	62.91799
	31.57375	62.91805
	31.57345	62.91818
	31.573	62.91842
	31.57267	62.91874
	31.57288	62.91885
	31.573	62.9189
	31.57335	62.91914
	31.5734	62.91934
	31.56406	62.92728
	31.50203	62.99625
	31.44879	63.00613
	31.46252	63.02422
	31.44009	63.03567
	31.82327	63.04251
	31.82739	63.05496
	32.04437	63.04998
	32.20985	63.0506
	32.41653	62.94835
	32.42615	62.93586
	32.49344	62.90585
	32.82303	62.9071
	32.82715	63.01698
	33.10455	63.01884
	33.24188	62.9727
	33.35175	62.96459
	33.34351	62.82066
	33.48427	62.81627
	33.62915	62.81094
	33.80974	62.79745
	33.95393	62.84919
	34.0432	62.87801
	34.26885	63.13735
	34.82117	63.15746
	34.93927	63.27442
	36.24925	63.2264
	36.24576	63.21151
	36.29592	63.21842
	36.31944	63.22408
	36.38161	63.22327
	36.39111	63.22595
	36.40503	63.19538
	36.3556	63.16291
	36.32409	63.16169
	36.30707	63.15076
	36.31326	63.11312
	36.27482	63.0821
	36.27384	63.07736
	36.24696	63.0514
	36.25814	63.01153
	36.36412	62.93191
	36.48795	62.83889
	36.52847	62.79311
	36.55069	62.78501
	36.82171	62.69601
	36.98972	62.67721
	37.01937	62.66597
	37.0264	62.66448
	37.03465	62.66067
	37.041	62.65929
	37.07064	62.64868
	37.18094	62.65279
	37.25158	62.67746
	37.27506	62.672
	37.32392	62.6778
	37.36894	62.67789
	37.40619	62.66914
	37.47783	62.65233
	37.51347	62.65163
	37.51433	62.65035
	37.51985	62.64906
	37.51789	62.64843
	37.51767	62.64751
	37.51852	62.64689
	37.51919	62.64642
	37.51832	62.64243
	37.51929	62.64164
	37.52115	62.64172
	37.52286	62.64217
	37.52302	62.64215
	37.52473	62.642
	37.52517	62.64115
	37.52443	62.64004
	37.52182	62.63903
	37.52132	62.63835
	37.52175	62.63781
	37.52509	62.63754
	37.52816	62.63723
	37.52838	62.63693
	37.52781	62.63637
	37.52904	62.63577
	37.53024	62.63566
	37.53183	62.63445
	37.53336	62.6345
	37.53452	62.6339
	37.53469	62.63316
	37.53353	62.63229
	37.53335	62.63064
	37.53498	62.62992
	37.53496	62.62909
	37.53401	62.62801
	37.53446	62.62706
	37.53656	62.6262
	37.53851	62.62579
	37.53977	62.62589
	37.54082	62.62627
	37.54229	62.62613
	37.54331	62.62556
	37.54333	62.62516
	37.54275	62.62485
	37.54203	62.62469
	37.54177	62.62444
	37.54185	62.62414
	37.54503	62.62316
	37.54591	62.62274
	37.54752	62.62263
	37.54801	62.62209
	37.54686	62.61975
	37.5473	62.61761
	37.54572	62.61713
	37.54561	62.61682
	37.54704	62.61613
	37.54718	62.61583
	37.54539	62.61452
	37.54542	62.61391
	37.54711	62.61326
	37.54823	62.61204
	37.54856	62.61088
	37.54694	62.60985
	37.54676	62.60945
	37.54738	62.60906
	37.54727	62.60866
	37.5455	62.60803
	37.54524	62.60671
	37.54576	62.60552
	37.54729	62.60419
	37.54698	62.60376
	37.54624	62.60378
	37.54543	62.60402
	37.54464	62.60385
	37.54414	62.6033
	37.54456	62.60295
	37.54504	62.60257
	37.55251	62.59934
	37.55287	62.5987
	37.5528	62.59747
	37.55359	62.59629
	37.5533	62.59543
	37.55258	62.59527
	37.55133	62.59495
	37.55075	62.59445
	37.55078	62.59381
	37.55088	62.59313
	37.54873	62.59225
	37.54794	62.59215
	37.5474	62.59233
	37.54616	62.59321
	37.54549	62.59329
	37.54463	62.59322
	37.54385	62.59297
	37.54361	62.59229
	37.54317	62.59186
	37.54126	62.59153
	37.54022	62.59097
	37.54018	62.59042
	37.54095	62.58975
	37.54284	62.58904
	37.54335	62.58831
	37.54278	62.58754
	37.54208	62.58698
	37.54198	62.5863
	37.54215	62.5856
	37.54263	62.58533
	37.54428	62.58544
	37.54516	62.5852
	37.54546	62.58438
	37.54708	62.584
	37.54902	62.58362
	37.55147	62.58245
	37.55186	62.5812
	37.55103	62.58058
	37.5512	62.57987
	37.5496	62.57857
	37.54822	62.57699
	37.5482	62.57601
	37.54705	62.57499
	37.54701	62.57444
	37.54839	62.5735
	37.5487	62.57252
	37.54918	62.57216
	37.55146	62.57176
	37.55255	62.57125
	37.55351	62.57052
	37.55472	62.57026
	37.55554	62.56975
	37.55579	62.56874
	37.55628	62.56831
	37.55764	62.56765
	37.55847	62.56687
	37.55972	62.56634
	37.56105	62.56579
	37.5614	62.56527
	37.56157	62.56457
	37.56221	62.56378
	37.56414	62.5623
	37.5643	62.56172
	37.56365	62.56134
	37.56259	62.56139
	37.5606	62.56137
	37.55901	62.56117
	37.55791	62.56055
	37.55775	62.55987
	37.55865	62.55902
	37.5602	62.55852
	37.56127	62.55847
	37.56204	62.55906
	37.56303	62.5591
	37.56323	62.5591
	37.56404	62.55877
	37.56454	62.55804
	37.56397	62.55746
	37.56093	62.55592
	37.55958	62.55487
	37.55992	62.55346
	37.56137	62.55222
	37.56279	62.55159
	37.56393	62.55139
	37.56472	62.55152
	37.5651	62.55186
	37.56467	62.55262
	37.56396	62.55363
	37.56434	62.55406
	37.56493	62.55406
	37.56594	62.55386
	37.56658	62.55286
	37.56733	62.55256
	37.56868	62.55208
	37.56982	62.55047
	37.57076	62.5487
	37.57194	62.54767
	37.57184	62.54712
	37.57112	62.54674
	37.56975	62.5463
	37.56951	62.54584
	37.57014	62.54502
	37.5698	62.54391
	37.56903	62.54341
	37.56704	62.54342
	37.56625	62.54311
	37.56642	62.5425
	37.5673	62.54202
	37.56836	62.54203
	37.56931	62.54161
	37.56991	62.54168
	37.57115	62.54212
	37.57194	62.5421
	37.57255	62.54186
	37.5725	62.54149
	37.57074	62.54088
	37.57042	62.54076
	37.57036	62.54049
	37.5713	62.54022
	37.57139	62.53982
	37.56963	62.53925
	37.56948	62.53903
	37.56932	62.53876
	37.56967	62.53834
	37.57028	62.5381
	37.57016	62.53782
	37.56911	62.53747
	37.56851	62.53762
	37.56762	62.53822
	37.56702	62.53819
	37.56658	62.53775
	37.5672	62.53724
	37.56922	62.53655
	37.57078	62.53596
	37.57128	62.5352
	37.57243	62.53466
	37.57332	62.53408
	37.57358	62.53286
	37.5731	62.53181
	37.571	62.53002
	37.57033	62.52881
	37.57036	62.52805
	37.57097	62.52652
	37.57181	62.52543
	37.57216	62.52381
	37.57339	62.52152
	37.57341	62.52109
	37.57289	62.52087
	37.57249	62.5209
	37.57175	62.52123
	37.57109	62.52116
	37.57077	62.52082
	37.57093	62.5203
	37.57231	62.51921
	37.57301	62.51839
	37.57306	62.51747
	37.57212	62.51633
	37.57195	62.51574
	37.57216	62.51535
	37.57271	62.51502
	37.5732	62.51441
	37.57324	62.51371
	37.57372	62.51328
	37.57555	62.51245
	37.5775	62.51188
	37.57785	62.51149
	37.57787	62.51106
	37.57758	62.51019
	37.57831	62.50886
	37.57839	62.50858
	37.57796	62.50784
	37.57797	62.50757
	37.5788	62.50681
	37.5793	62.50608
	37.57933	62.50538
	37.57916	62.50491
	37.57844	62.50469
	37.57771	62.50469
	37.57712	62.5045
	37.57671	62.50406
	37.57672	62.50325
	37.57735	62.50258
	37.5781	62.50207
	37.57818	62.50181
	37.5766	62.50088
	37.57652	62.50043
	37.57685	62.49976
	37.57701	62.49919
	37.57766	62.49868
	37.57919	62.49805
	37.57975	62.49791
	37.58106	62.4976
	37.58356	62.49652
	37.5854	62.49618
	37.58733	62.49604
	37.58861	62.49568
	37.58912	62.49536
	37.58965	62.49467
	37.59064	62.49406
	37.59347	62.49396
	37.59356	62.49395
	37.5967	62.49478
	37.59808	62.49501
	37.60033	62.495
	37.60134	62.49471
	37.6031	62.49381
	37.60343	62.49376
	37.60483	62.49358
	37.60823	62.49312
	37.61052	62.49241
	37.61189	62.49138
	37.61255	62.4901
	37.61337	62.48956
	37.61568	62.48823
	37.61665	62.48726
	37.61766	62.48693
	37.62085	62.48675
	37.62146	62.48648
	37.62149	62.48584
	37.62165	62.48514
	37.6226	62.48466
	37.62452	62.48467
	37.62657	62.48463
	37.62745	62.48434
	37.62992	62.48252
	37.63414	62.47987
	37.63505	62.47877
	37.63538	62.4774
	37.63469	62.47669
	37.63047	62.47487
	37.62936	62.4744
	37.62906	62.47375
	37.6295	62.47277
	37.63015	62.47159
	37.62993	62.47063
	37.62983	62.46999
	37.62798	62.46997
	37.62476	62.46936
	37.62064	62.46821
	37.61779	62.46693
	37.6168	62.46554
	37.61701	62.46389
	37.61691	62.46318
	37.61645	62.46299
	37.61636	62.463
	37.61586	62.46302
	37.61465	62.46331
	37.61431	62.46331
	37.61326	62.4633
	37.61215	62.46301
	37.61184	62.46249
	37.61227	62.46188
	37.61263	62.46115
	37.61226	62.46032
	37.61032	62.4569
	37.60886	62.4541
	37.60798	62.45301
	37.60676	62.4523
	37.60645	62.45187
	37.60654	62.45128
	37.6073	62.45068
	37.60945	62.44994
	37.61	62.44957
	37.61015	62.44908
	37.60964	62.44859
	37.60821	62.44824
	37.60625	62.44761
	37.60457	62.44682
	37.60419	62.44636
	37.6044	62.44612
	37.60554	62.44573
	37.60636	62.44534
	37.60661	62.44494
	37.60629	62.44463
	37.60503	62.44462
	37.60402	62.44432
	37.60324	62.44336
	37.6029	62.44213
	37.60282	62.4404
	37.60219	62.43975
	37.60077	62.43891
	37.60039	62.43848
	37.60068	62.43796
	37.60324	62.43688
	37.60374	62.43631
	37.60399	62.43511
	37.60558	62.43357
	37.60789	62.43215
	37.60886	62.43124
	37.6105	62.43018
	37.61115	62.429
	37.61113	62.42789
	37.6103	62.42742
	37.60898	62.4272
	37.60827	62.42685
	37.60783	62.42642
	37.60786	62.4259
	37.60843	62.42536
	37.60869	62.42499
	37.60871	62.42465
	37.60806	62.42428
	37.60676	62.42396
	37.6056	62.42321
	37.60487	62.42198
	37.60429	62.4201
	37.60385	62.41829
	37.60316	62.41749
	37.60218	62.41711
	37.60048	62.41674
	37.59958	62.4163
	37.59924	62.41584
	37.59949	62.41549
	37.60009	62.41525
	37.60135	62.41525
	37.60225	62.41509
	37.60252	62.41482
	37.60245	62.41423
	37.60198	62.41377
	37.59835	62.41229
	37.59296	62.41026
	37.59127	62.40954
	37.5889	62.40814
	37.58809	62.40703
	37.5862	62.40361
	37.58491	62.4016
	37.5848	62.39982
	37.58525	62.39726
	37.5863	62.39451
	37.58748	62.39336
	37.58984	62.39096
	37.59043	62.38962
	37.59082	62.38833
	37.59138	62.3877
	37.59317	62.38612
	37.59373	62.38536
	37.59389	62.38466
	37.59376	62.38331
	37.59381	62.38218
	37.59416	62.38053
	37.59413	62.37961
	37.59337	62.37892
	37.59101	62.37734
	37.5907	62.37688
	37.59067	62.37608
	37.58805	62.37415
	37.58768	62.37375
	37.58764	62.37311
	37.58726	62.37277
	37.58501	62.37152
	37.58465	62.37078
	37.58482	62.36992
	37.58553	62.36886
	37.58718	62.36737
	37.58767	62.36686
	37.588	62.36551
	37.58843	62.36484
	37.59	62.36366
	37.59264	62.36216
	37.59467	62.36111
	37.59622	62.36026
	37.59732	62.35939
	37.59756	62.35856
	37.59706	62.35794
	37.5968	62.3578
	37.59642	62.35757
	37.59523	62.35744
	37.59405	62.35742
	37.59207	62.3575
	37.59055	62.35745
	37.58904	62.35728
	37.58683	62.35674
	37.5856	62.35611
	37.58492	62.35531
	37.58419	62.35386
	37.58419	62.35254
	37.5841	62.35172
	37.58313	62.35122
	37.58189	62.35096
	37.57965	62.35097
	37.5786	62.35089
	37.5779	62.35043
	37.57656	62.34943
	37.57526	62.34899
	37.57383	62.34864
	37.5728	62.34796
	37.57264	62.34734
	37.57255	62.34642
	37.57204	62.34602
	37.57112	62.34595
	37.57032	62.34615
	37.5695	62.34667
	37.5687	62.34684
	37.56778	62.34686
	37.56673	62.34673
	37.56557	62.34632
	37.56447	62.34575
	37.56343	62.34544
	37.56233	62.34515
	37.5611	62.34456
	37.56073	62.34412
	37.56056	62.34354
	37.561	62.34262
	37.56143	62.34189
	37.56197	62.34162
	37.56283	62.34151
	37.56519	62.34184
	37.56605	62.34179
	37.56659	62.34151
	37.56674	62.34103
	37.5665	62.3406
	37.56534	62.33991
	37.5638	62.33904
	37.56262	62.33762
	37.56222	62.33636
	37.56225	62.33565
	37.56275	62.33486
	37.56404	62.33402
	37.56532	62.33345
	37.56594	62.33287
	37.56558	62.33213
	37.56445	62.33108
	37.5622	62.3298
	37.56145	62.32897
	37.56166	62.32731
	37.56123	62.32676
	37.56052	62.32641
	37.55958	62.32638
	37.55894	62.32637
	37.5581	62.32614
	37.55518	62.32516
	37.55218	62.32458
	37.55034	62.32441
	37.54948	62.32458
	37.54839	62.32521
	37.54753	62.32539
	37.54621	62.32528
	37.54557	62.325
	37.54559	62.32457
	37.54795	62.32337
	37.54811	62.32276
	37.54775	62.32217
	37.54735	62.32205
	37.54677	62.32186
	37.54563	62.32182
	37.54513	62.32181
	37.54368	62.32179
	37.54304	62.32148
	37.54306	62.32096
	37.54388	62.32042
	37.54583	62.3197
	37.54685	62.31898
	37.54721	62.31831
	37.54706	62.31742
	37.54637	62.31658
	37.54548	62.31593
	37.54355	62.31508
	37.54235	62.31445
	37.54162	62.31405
	37.5396	62.31219
	37.53932	62.31124
	37.53943	62.30766
	37.53885	62.30734
	37.53755	62.30699
	37.53717	62.30662
	37.53726	62.30616
	37.5377	62.30537
	37.53779	62.30476
	37.53635	62.30337
	37.53535	62.30216
	37.53481	62.30111
	37.53301	62.29745
	37.52888	62.29452
	37.52485	62.29071
	37.52358	62.28984
	37.5216	62.28863
	37.52047	62.28748
	37.51994	62.28628
	37.51899	62.2856
	37.5172	62.28457
	37.5145	62.28328
	37.51294	62.28293
	37.50563	62.28168
	37.50467	62.28121
	37.50411	62.28053
	37.50323	62.27967
	37.50245	62.27957
	37.4998	62.27997
	37.49756	62.27997
	37.49647	62.27967
	37.49587	62.27949
	37.49303	62.27851
	37.49124	62.27739
	37.48957	62.27655
	37.48732	62.27551
	37.48626	62.27446
	37.48604	62.27363
	37.48542	62.27279
	37.48465	62.27239
	37.48304	62.27188
	37.47978	62.27126
	37.47804	62.2706
	37.47645	62.26954
	37.4761	62.26868
	37.47625	62.26831
	37.4771	62.26835
	37.47829	62.26812
	37.47903	62.26776
	37.47907	62.26715
	37.47818	62.26643
	37.47677	62.26565
	37.47516	62.26508
	37.47425	62.26477
	37.47349	62.26436
	37.47306	62.26371
	37.47197	62.26306
	37.47155	62.26269
	37.47128	62.26247
	37.47112	62.26179
	37.4706	62.26038
	37.46983	62.25991
	37.46842	62.25931
	37.46563	62.25854
	37.46474	62.25801
	37.46419	62.25724
	37.46441	62.25678
	37.46528	62.25639
	37.46647	62.25619
	37.46818	62.25618
	37.46932	62.2558
	37.4702	62.25522
	37.47056	62.25465
	37.47042	62.25351
	37.47012	62.25296
	37.46948	62.25258
	37.46509	62.25112
	37.46439	62.25059
	37.46297	62.24884
	37.46185	62.24756
	37.46071	62.24691
	37.45903	62.24631
	37.45859	62.2459
	37.45862	62.24517
	37.45828	62.24428
	37.45746	62.24344
	37.45607	62.24241
	37.45551	62.24179
	37.4558	62.24122
	37.4568	62.24095
	37.4591	62.24095
	37.46161	62.24073
	37.46241	62.24052
	37.46396	62.23971
	37.4655	62.23924
	37.46674	62.23925
	37.46687	62.23929
	37.46856	62.23973
	37.46952	62.24011
	37.47136	62.24022
	37.47264	62.2401
	37.47472	62.23989
	37.47685	62.2394
	37.47799	62.2388
	37.47867	62.23843
	37.48044	62.23729
	37.481	62.23653
	37.48096	62.23598
	37.48028	62.23527
	37.47887	62.23461
	37.47725	62.23401
	37.47542	62.23383
	37.47426	62.23348
	37.47285	62.23273
	37.47249	62.23202
	37.47254	62.22979
	37.47264	62.22777
	37.47211	62.2266
	37.47053	62.22548
	37.4686	62.22477
	37.46724	62.22428
	37.46524	62.22355
	37.46412	62.2224
	37.46285	62.2215
	37.46081	62.22031
	37.46025	62.21963
	37.46029	62.21896
	37.46065	62.21829
	37.4599	62.21755
	37.45844	62.2167
	37.45727	62.21635
	37.45461	62.21583
	37.45274	62.21517
	37.45154	62.21417
	37.45145	62.21321
	37.45136	62.212
	37.45057	62.21076
	37.44945	62.20962
	37.44851	62.20875
	37.44817	62.20767
	37.44822	62.20669
	37.44873	62.20508
	37.44915	62.20398
	37.44956	62.20349
	37.45092	62.20259
	37.45212	62.20091
	37.45237	62.19856
	37.453	62.19783
	37.45433	62.19748
	37.45729	62.19739
	37.45963	62.19784
	37.46213	62.19894
	37.46356	62.19926
	37.46408	62.19925
	37.46487	62.19922
	37.46754	62.1983
	37.4694	62.19777
	37.47131	62.19776
	37.47352	62.19803
	37.47481	62.19856
	37.47869	62.20084
	37.48384	62.20418
	37.48552	62.20462
	37.48765	62.20538
	37.49086	62.20683
	37.49356	62.20724
	37.49692	62.20833
	37.49774	62.20834
	37.49932	62.20827
	37.5001	62.2083
	37.50211	62.20885
	37.50349	62.20886
	37.50925	62.20914
	37.51178	62.20966
	37.51378	62.21047
	37.51748	62.21254
	37.5178	62.21263
	37.51852	62.2127
	37.5191	62.21292
	37.5198	62.21342
	37.52068	62.21364
	37.52179	62.21375
	37.5225	62.21396
	37.52314	62.21416
	37.52433	62.21474
	37.52485	62.21548
	37.52539	62.21585
	37.52595	62.21592
	37.52684	62.21584
	37.5273	62.2157
	37.5279	62.21565
	37.52838	62.21582
	37.52921	62.21629
	37.52989	62.21641
	37.53071	62.21642
	37.53194	62.21617
	37.53261	62.2162
	37.53269	62.21621
	37.53421	62.2168
	37.53515	62.21697
	37.53621	62.21683
	37.53638	62.21674
	37.53715	62.21639
	37.53819	62.21594
	37.53875	62.21584
	37.53998	62.21611
	37.5408	62.21611
	37.54157	62.21589
	37.54159	62.2155
	37.54242	62.21516
	37.54321	62.21517
	37.54484	62.2154
	37.54615	62.21546
	37.54721	62.21529
	37.54828	62.21493
	37.54946	62.21494
	37.55094	62.21557
	37.55231	62.21568
	37.55375	62.21572
	37.55475	62.2154
	37.5555	62.21535
	37.55554	62.21534
	37.55588	62.21516
	37.55492	62.21469
	37.55462	62.21392
	37.55504	62.21356
	37.58821	62.21997
	37.63664	62.20991
	37.67271	62.21045
	37.70181	62.21268
	37.71959	62.19894
	37.7163	62.1899
	37.75835	62.1735
	37.74866	62.17023
	37.73721	62.16638
	37.77309	62.13809
	37.77368	62.13313
	37.76167	62.12904
	37.7551	62.12022
	37.75762	62.11932
	37.75911	62.11817
	37.75889	62.11716
	37.75936	62.11676
	37.76041	62.11662
	37.76158	62.11681
	37.76487	62.1181
	37.76828	62.11954
	37.77004	62.11956
	37.77176	62.11917
	37.77249	62.11875
	37.78444	62.09318
	37.77689	62.0812
	37.79837	62.05831
	37.79247	62.05226
	37.80225	62.03611
	37.82398	62.03764
	37.81493	62.022
	37.82104	62.01592
	37.81185	62.00739
	37.83678	61.98254
	37.85724	61.98072
	37.88851	61.98217
	37.944	61.97253
	37.94144	61.96181
	37.945	61.96037
	37.94664	61.9583
	37.93495	61.95392
	37.93638	61.9464
	37.93404	61.94372
	37.93054	61.93975
	37.92437	61.92573
	37.93475	61.90928
	37.92181	61.89095
	37.92836	61.88579
	37.91323	61.87299
	37.91195	61.85965
	37.90701	61.85824
	37.90082	61.85169
	37.90302	61.84819
	37.89513	61.84049
	37.903	61.83235
	37.90137	61.83101
	37.90064	61.81499
	37.89546	61.80434
	37.87879	61.79618
	37.87456	61.78426
	37.86897	61.78158
	37.87671	61.77153
	37.8715	61.76904
	37.85945	61.75558
	37.86002	61.75056
	37.87192	61.74523
	37.8767	61.74527
	37.88357	61.73225
	37.88451	61.7223
	37.87834	61.71964
	37.88005	61.71356
	37.86932	61.70321
	37.85699	61.70167
	37.84572	61.69413
	37.84103	61.68496
	37.82777	61.68092
	37.81037	61.68304
	37.80665	61.6835
	37.80041	61.68142
	37.78076	61.65949
	37.78138	61.65907
	37.78566	61.6561
	37.77559	61.64367
	37.78465	61.63115
	37.75984	61.61543
	37.77506	61.57402
	37.76369	61.56423
	37.77591	61.55393
	37.77159	61.548
	37.78594	61.53739
	37.81674	61.52981
	37.75862	61.53139
	37.75376	61.53216
	37.73091	61.53575
	37.70564	61.53971
	37.68049	61.53685
	37.56978	61.52423
	37.52285	61.52997
	37.46715	61.51102
	37.45307	61.51109
	37.34779	61.51166
	37.33161	61.50914
	37.30461	61.51012
	37.2914	61.52853
	37.29236	61.55056
	37.24465	61.55399
	37.17079	61.55722
	37.05714	61.59967
	37.03228	61.59936
	37.02997	61.61423
	36.88378	61.56252
	36.87393	61.53928
	36.72162	61.55036
	36.69591	61.56007
	36.64679	61.55099
	36.58433	61.53946
	36.5765	61.51539
	36.55956	61.49983
	36.54311	61.48474
	36.49549	61.44098
	36.51684	61.427
	36.49944	61.41632
	36.45934	61.40716
	36.01261	61.29077
	35.82981	61.24314
	35.69788	61.2074
	35.60498	61.17951
	35.6023	61.17875
	35.60199	61.17876
	35.60163	61.17882
	35.60132	61.17892
	35.60102	61.17903
	35.60086	61.1791
	35.60061	61.17927
	35.60039	61.17947
	35.60017	61.17963
	35.5998	61.17973
	35.59936	61.17979
	35.59915	61.17989
	35.5991	61.18004
	35.59926	61.18032
	35.59912	61.18062
	35.59867	61.18081
	35.59815	61.18088
	35.59796	61.18088
	35.59745	61.18085
	35.59732	61.18081
	35.5973	61.18071
	35.59783	61.18043
	35.59776	61.18016
	35.59761	61.18008
	35.59743	61.18005
	35.59722	61.18006
	35.597	61.18013
	35.59685	61.18026
	35.59667	61.18037
	35.59638	61.1804
	35.59603	61.18037
	35.59562	61.18026
	35.59532	61.18012
	35.59488	61.18012
	35.59447	61.18029
	35.59399	61.18055
	35.59361	61.18098
	35.59391	61.18131
	35.59469	61.18177
	35.59472	61.18202
	35.59438	61.18213
	35.59357	61.18208
	35.59275	61.18228
	35.59246	61.18254
	35.59275	61.18289
	35.59265	61.18312
	35.59207	61.18323
	35.59171	61.18319
	35.59145	61.18302
	35.59117	61.18299
	35.59098	61.18306
	35.59101	61.18327
	35.59086	61.18342
	35.5908	61.18344
	35.59053	61.18349
	35.5904	61.18365
	35.59042	61.18385
	35.59062	61.18419
	35.59064	61.18437
	35.59049	61.1845
	35.59018	61.18458
	35.5892	61.18451
	35.58848	61.18459
	35.58789	61.18471
	35.58739	61.18468
	35.58728	61.1846
	35.58714	61.18449
	35.58715	61.18422
	35.58698	61.184
	35.58625	61.18388
	35.58584	61.18396
	35.58556	61.1842
	35.58516	61.18435
	35.58474	61.18428
	35.58446	61.18406
	35.58383	61.18392
	35.58292	61.18393
	35.58218	61.18382
	35.5815	61.18353
	35.58115	61.18321
	35.5807	61.18255
	35.57994	61.1822
	35.5779	61.18196
	35.57623	61.18194
	35.57547	61.18181
	35.5745	61.18149
	35.57256	61.18043
	35.57289	61.18009
	35.57294	61.17965
	35.57208	61.17924
	35.57148	61.17921
	35.57125	61.17909
	35.57073	61.17885
	35.57051	61.17835
	35.57026	61.17746
	35.57022	61.17738
	35.56991	61.17721
	35.56932	61.17711
	35.56899	61.17694
	35.56873	61.17689
	35.56844	61.17691
	35.5681	61.17701
	35.56778	61.17703
	35.5675	61.17694
	35.56712	61.17656
	35.56663	61.17638
	35.5663	61.17636
	35.56572	61.17649
	35.56483	61.17664
	35.56475	61.17666
	35.56436	61.17671
	35.56401	61.17699
	35.56376	61.17716
	35.5633	61.17729
	35.56299	61.17731
	35.56288	61.1772
	35.56286	61.17686
	35.56231	61.17658
	35.56176	61.17653
	35.56126	61.17667
	35.56058	61.17692
	35.56035	61.17691
	35.5601	61.17686
	35.55996	61.17676
	35.55987	61.17669
	35.55983	61.17651
	35.55922	61.17638
	35.55867	61.17628
	35.5582	61.17639
	35.55782	61.17662
	35.55721	61.17667
	35.5559	61.17675
	35.55512	61.17692
	35.55455	61.17717
	35.55424	61.17753
	35.55346	61.17777
	35.55295	61.17782
	35.55236	61.17769
	35.5512	61.17727
	35.55036	61.17709
	35.55007	61.17714
	35.54979	61.1772
	35.54963	61.17747
	35.54994	61.17797
	35.5499	61.17857
	35.54948	61.17927
	35.54189	61.17958
	35.5255	61.18096
	35.51159	61.17316
	35.49966	61.16915
	35.50014	61.16642
	35.46434	61.15687
	35.4525	61.16032
	35.43015	61.14743
	35.42365	61.14583
	35.42097	61.14253
	35.40191	61.13873
	35.39662	61.14026
	35.39842	61.16571
	35.39063	61.16498
	35.39078	61.16512
	35.39085	61.16528
	35.39093	61.16541
	35.39114	61.1655
	35.39313	61.16597
	35.3944	61.16603
	35.39468	61.16608
	35.39504	61.16624
	35.39518	61.16645
	35.39526	61.16663
	35.39544	61.16672
	35.39552	61.16675
	35.39588	61.16682
	35.3967	61.16687
	35.39859	61.16681
	35.40196	61.16861
	35.40282	61.16959
	35.40528	61.17123
	35.40329	61.17555
	35.35214	61.17646
	35.35977	61.22576
	35.37073	61.23201
	35.36727	61.2414
	35.37859	61.25394
	35.37746	61.25863
	35.37751	61.26129
	35.38197	61.26912
	35.39512	61.2776
	35.39357	61.28244
	35.38377	61.27961
	35.37761	61.27796
	35.37362	61.27747
	35.36981	61.27776
	35.36558	61.27867
	35.36185	61.28021
	35.35806	61.28253
	35.35351	61.28568
	35.33116	61.27774
	35.33368	61.27065
	35.29826	61.25207
	35.27075	61.25028
	35.22652	61.24802
	35.21673	61.25597
	35.2154	61.25571
	35.20868	61.25783
	35.20062	61.25949
	35.1979	61.25874
	35.19829	61.2582
	35.19835	61.25772
	35.19804	61.25756
	35.19749	61.25739
	35.19705	61.25713
	35.19653	61.25639
	35.19612	61.25613
	35.195	61.25572
	35.19405	61.25493
	35.19353	61.25435
	35.19266	61.25316
	35.19177	61.25239
	35.19136	61.25217
	35.19118	61.25198
	35.191	61.25165
	35.1909	61.25123
	35.19055	61.25091
	35.18997	61.25071
	35.18955	61.25037
	35.18932	61.24965
	35.18914	61.24943
	35.18878	61.24905
	35.18821	61.24882
	35.18792	61.24864
	35.18752	61.24801
	35.18732	61.24734
	35.18709	61.24705
	35.18623	61.2466
	35.18562	61.24622
	35.18518	61.2458
	35.18419	61.24509
	35.18241	61.24368
	35.1802	61.24219
	35.17854	61.24095
	35.17678	61.23998
	35.17529	61.23933
	35.17241	61.23889
	35.17151	61.23855
	35.16998	61.23824
	35.16867	61.23842
	35.16791	61.23876
	35.16705	61.23946
	35.16507	61.2405
	35.16402	61.2409
	35.16288	61.24116
	35.16184	61.24171
	35.16133	61.24185
	35.15953	61.24213
	35.15879	61.24248
	35.1583	61.24254
	35.15639	61.24245
	35.15596	61.24256
	35.15541	61.24288
	35.15519	61.24293
	35.15482	61.24303
	35.15418	61.24337
	35.15301	61.24323
	35.15171	61.24331
	35.1508	61.24371
	35.14879	61.24468
	35.14829	61.24502
	35.14803	61.24541
	35.14769	61.24559
	35.14721	61.24565
	35.1471	61.24567
	35.14688	61.24576
	35.1468	61.24593
	35.14705	61.2462
	35.14882	61.2472
	35.14903	61.24736
	35.14899	61.24749
	35.14823	61.24808
	35.1478	61.24836
	35.14737	61.24842
	35.1471	61.2484
	35.14676	61.24829
	35.14629	61.24822
	35.14628	61.24821
	35.14585	61.24829
	35.14539	61.24857
	35.14495	61.24873
	35.14448	61.24874
	35.14411	61.24877
	35.14393	61.24887
	35.14382	61.24917
	35.14373	61.24931
	35.14352	61.24939
	35.14326	61.24942
	35.14319	61.24954
	35.14326	61.24962
	35.14356	61.24971
	35.14363	61.2498
	35.14358	61.24989
	35.14253	61.25037
	35.14171	61.25067
	35.14057	61.25086
	35.14008	61.25087
	35.13949	61.2508
	35.13911	61.2508
	35.13856	61.25092
	35.13821	61.2509
	35.13779	61.25072
	35.13745	61.25053
	35.13719	61.25049
	35.13688	61.25043
	35.13632	61.25042
	35.13625	61.25043
	35.13584	61.25055
	35.13568	61.25072
	35.13561	61.25104
	35.13542	61.25116
	35.13498	61.25122
	35.13415	61.25117
	35.13355	61.25097
	35.13303	61.25081
	35.13262	61.25082
	35.1325	61.25091
	35.13261	61.25103
	35.13264	61.25106
	35.13298	61.2512
	35.13298	61.25131
	35.13288	61.2514
	35.13254	61.25152
	35.13206	61.25171
	35.13133	61.25174
	35.13081	61.25178
	35.13054	61.25193
	35.13041	61.2522
	35.13029	61.25241
	35.13008	61.25256
	35.13	61.25257
	35.12977	61.25262
	35.12921	61.25266
	35.12868	61.25284
	35.12788	61.25328
	35.12775	61.25335
	35.12752	61.25345
	35.12726	61.25346
	35.12701	61.25336
	35.12684	61.25314
	35.12667	61.25302
	35.12624	61.25302
	35.12567	61.25308
	35.12514	61.25323
	35.12483	61.25325
	35.12427	61.25308
	35.12377	61.253
	35.12338	61.25283
	35.12316	61.25275
	35.12267	61.25275
	35.12241	61.25287
	35.12204	61.25309
	35.12132	61.25326
	35.12001	61.25329
	35.11926	61.25317
	35.11903	61.25301
	35.11891	61.25289
	35.1187	61.25285
	35.11823	61.25289
	35.11749	61.25318
	35.11676	61.25335
	35.11618	61.25345
	35.1159	61.25365
	35.11561	61.25399
	35.11513	61.25414
	35.11483	61.25412
	35.11427	61.25397
	35.11405	61.25392
	35.11351	61.25388
	35.11299	61.25392
	35.11236	61.25381
	35.1123	61.25379
	35.1118	61.25373
	35.11131	61.25376
	35.11036	61.25409
	35.10935	61.25446
	35.10809	61.25504
	35.10741	61.25553
	35.10681	61.25594
	35.10611	61.25612
	35.10588	61.25613
	35.1057	61.25605
	35.10572	61.25568
	35.10559	61.25514
	35.10511	61.25469
	35.10388	61.25347
	35.10286	61.25323
	35.10236	61.2532
	35.10222	61.25328
	35.10224	61.25347
	35.10223	61.25361
	35.10199	61.25366
	35.10112	61.25352
	35.10076	61.25353
	35.10053	61.25363
	35.10043	61.25386
	35.1003	61.25405
	35.09987	61.25422
	35.09966	61.2542
	35.09954	61.25413
	35.09958	61.25405
	35.09975	61.25392
	35.09977	61.25376
	35.09958	61.25361
	35.09957	61.25343
	35.09982	61.25317
	35.09998	61.25303
	35.10009	61.2528
	35.10031	61.25253
	35.10093	61.25212
	35.10121	61.25187
	35.10127	61.25159
	35.10143	61.25131
	35.10146	61.25128
	35.10203	61.25079
	35.10218	61.2505
	35.10242	61.25024
	35.10254	61.25
	35.10253	61.24963
	35.10236	61.24944
	35.10212	61.24935
	35.1017	61.24933
	35.10144	61.24923
	35.10129	61.24909
	35.10141	61.24893
	35.10167	61.24865
	35.10174	61.24838
	35.10161	61.24812
	35.1008	61.24757
	35.1005	61.24747
	35.10024	61.24752
	35.09954	61.24818
	35.09921	61.24829
	35.09892	61.24829
	35.0987	61.24818
	35.09862	61.24813
	35.09817	61.2479
	35.0978	61.24776
	35.09728	61.24771
	35.09648	61.24755
	35.09585	61.24741
	35.09544	61.24727
	35.09524	61.24711
	35.09531	61.24691
	35.09515	61.24675
	35.09398	61.24623
	35.09393	61.2461
	35.09406	61.24591
	35.09406	61.2458
	35.09382	61.24572
	35.09334	61.24571
	35.0931	61.24562
	35.09294	61.24548
	35.09262	61.2454
	35.09259	61.24537
	35.0925	61.24525
	35.09262	61.2451
	35.09311	61.24495
	35.09333	61.24482
	35.09339	61.2446
	35.0929	61.2443
	35.09273	61.24408
	35.09261	61.24383
	35.09232	61.24361
	35.0915	61.24335
	35.09089	61.24318
	35.09026	61.24281
	35.0896	61.24267
	35.08925	61.24261
	35.08899	61.24251
	35.0888	61.24219
	35.08867	61.24218
	35.08806	61.24209
	35.08747	61.24193
	35.08653	61.24198
	35.08606	61.24209
	35.08575	61.24232
	35.08579	61.24257
	35.08609	61.24273
	35.0867	61.24283
	35.08725	61.24296
	35.08787	61.24333
	35.08803	61.24363
	35.08789	61.24395
	35.08749	61.24411
	35.08709	61.24414
	35.08665	61.24403
	35.08626	61.24405
	35.0859	61.2441
	35.0855	61.24438
	35.08501	61.24459
	35.08443	61.24471
	35.08391	61.24472
	35.08255	61.2448
	35.08208	61.24494
	35.08198	61.24506
	35.08194	61.24527
	35.08186	61.24539
	35.08163	61.24559
	35.08126	61.24579
	35.08105	61.24595
	35.08104	61.24619
	35.08122	61.24633
	35.08137	61.2466
	35.08162	61.24699
	35.08189	61.24734
	35.08241	61.24769
	35.0828	61.24802
	35.08313	61.24839
	35.08323	61.24862
	35.08387	61.24902
	35.0841	61.24909
	35.08441	61.24915
	35.08473	61.24916
	35.0851	61.24914
	35.08643	61.24892
	35.08668	61.24892
	35.08691	61.24897
	35.08694	61.24906
	35.08687	61.24914
	35.08668	61.24926
	35.08662	61.24935
	35.08667	61.24945
	35.08681	61.24956
	35.0868	61.24965
	35.08673	61.24975
	35.0865	61.24992
	35.08641	61.25009
	35.08647	61.25039
	35.08663	61.25072
	35.08684	61.25092
	35.08695	61.25099
	35.08716	61.25106
	35.08734	61.25106
	35.08749	61.25101
	35.08766	61.25094
	35.0879	61.25092
	35.0882	61.25095
	35.0884	61.25102
	35.08863	61.25107
	35.08878	61.25106
	35.08909	61.25094
	35.08923	61.25092
	35.08947	61.25098
	35.08967	61.25108
	35.08979	61.25117
	35.08989	61.25134
	35.08989	61.25155
	35.08977	61.25184
	35.08961	61.25208
	35.08911	61.2524
	35.08894	61.25255
	35.08877	61.25273
	35.08865	61.25276
	35.08853	61.25275
	35.0884	61.25269
	35.08824	61.25265
	35.08813	61.25265
	35.08794	61.2527
	35.08713	61.25301
	35.08678	61.25308
	35.08645	61.2531
	35.08599	61.25317
	35.08497	61.2535
	35.08421	61.25379
	35.08377	61.25402
	35.08317	61.25439
	35.08287	61.25469
	35.08267	61.25503
	35.08238	61.25543
	35.08229	61.25568
	35.08203	61.256
	35.08155	61.2563
	35.08097	61.25656
	35.08051	61.25679
	35.08003	61.25709
	35.07976	61.25737
	35.07937	61.25767
	35.0789	61.25806
	35.07881	61.2582
	35.07879	61.25838
	35.07905	61.25853
	35.0797	61.25896
	35.07986	61.25916
	35.07963	61.25941
	35.0794	61.2596
	35.07909	61.2597
	35.07878	61.25975
	35.0785	61.25985
	35.0774	61.26064
	35.07737	61.26073
	35.07745	61.26078
	35.07772	61.26085
	35.07789	61.26093
	35.07806	61.26106
	35.07825	61.26116
	35.07849	61.26122
	35.07882	61.26126
	35.07923	61.26143
	35.07936	61.26146
	35.07951	61.26159
	35.07956	61.26169
	35.0795	61.26177
	35.07946	61.26177
	35.07936	61.26179
	35.0791	61.26176
	35.07894	61.2618
	35.07877	61.26188
	35.0787	61.2619
	35.07857	61.26192
	35.07834	61.26191
	35.07822	61.26195
	35.07818	61.26202
	35.07824	61.26211
	35.07827	61.26219
	35.07807	61.26253
	35.07773	61.26305
	35.07092	61.26314
	35.05802	61.26343
	35.03226	61.26403
	34.97476	61.26556
	34.95774	61.26599
	34.95251	61.26613
	34.94861	61.26623
	34.94155	61.26643
	34.90426	61.28234
	34.87381	61.28776
	34.8735	61.28704
	34.79351	61.28934
	34.79327	61.28958
	34.79276	61.29022
	34.79195	61.2912
	34.78986	61.293
	34.78967	61.29411
	34.78931	61.2964
	34.78833	61.29693
	34.78662	61.29706
	34.78507	61.29694
	34.78407	61.2971
	34.78319	61.29786
	34.78284	61.29935
	34.78045	61.29902
	34.76983	61.30891
	34.76896	61.31228
	34.73645	61.31258
	34.73626	61.30491
	34.74486	61.30186
	34.7473	61.29903
	34.7489	61.29715
	34.72892	61.2958
	34.6563	61.27466
	34.54572	61.27563
	34.54102	61.26142
	34.53327	61.26033
	34.51374	61.24458
	34.5062	61.24271
	34.50206	61.24273
	34.50197	61.2426
	34.50182	61.24252
	34.50146	61.24242
	34.50126	61.24239
	34.50097	61.24233
	34.50043	61.24227
	34.49953	61.24225
	34.49911	61.24221
	34.49801	61.24205
	34.49786	61.242
	34.49777	61.24193
	34.49779	61.24184
	34.49788	61.24165
	34.49782	61.24156
	34.49771	61.2415
	34.49721	61.24142
	34.4969	61.24139
	34.49557	61.2413
	34.49544	61.24128
	34.4954	61.24125
	34.49542	61.2412
	34.4956	61.24107
	34.49563	61.24102
	34.4956	61.24093
	34.49554	61.24088
	34.49543	61.24083
	34.49532	61.24081
	34.49507	61.24073
	34.49488	61.2406
	34.49459	61.24025
	34.49412	61.23988
	34.4939	61.23978
	34.49361	61.23971
	34.49325	61.23968
	34.4928	61.23971
	34.49231	61.23972
	34.49125	61.23947
	34.49112	61.2394
	34.49108	61.2393
	34.49118	61.23922
	34.4914	61.23918
	34.49176	61.23915
	34.4921	61.23906
	34.49244	61.23887
	34.49259	61.23869
	34.49256	61.2385
	34.4924	61.23836
	34.49203	61.23816
	34.49177	61.23799
	34.49168	61.23791
	34.49151	61.2378
	34.49134	61.23778
	34.49113	61.23783
	34.49095	61.23783
	34.49086	61.23779
	34.49065	61.23774
	34.49045	61.23775
	34.49028	61.23783
	34.49015	61.23785
	34.4899	61.23784
	34.48949	61.23772
	34.48914	61.23753
	34.48901	61.23749
	34.48899	61.23748
	34.48889	61.23748
	34.48879	61.23753
	34.48876	61.2376
	34.48866	61.23763
	34.48854	61.23761
	34.48842	61.23753
	34.48822	61.23748
	34.48793	61.23744
	34.48775	61.23746
	34.48773	61.23747
	34.48765	61.23752
	34.48757	61.23762
	34.48753	61.23765
	34.48751	61.23765
	34.48739	61.23766
	34.48646	61.23748
	34.48602	61.23738
	34.48536	61.23726
	34.48515	61.23725
	34.48482	61.23735
	34.48464	61.23735
	34.48447	61.23733
	34.48421	61.23718
	34.48406	61.23717
	34.48393	61.23719
	34.48386	61.23726
	34.48377	61.23752
	34.48381	61.23778
	34.4838	61.23801
	34.48376	61.23812
	34.48366	61.23817
	34.48347	61.23817
	34.48282	61.23805
	34.48265	61.23796
	34.4825	61.23772
	34.48228	61.23711
	34.4823	61.23695
	34.48227	61.23681
	34.48212	61.23674
	34.48185	61.23671
	34.48056	61.23673
	34.48006	61.23677
	34.4798	61.23684
	34.47957	61.23693
	34.47941	61.23697
	34.47918	61.23698
	34.47898	61.23695
	34.47891	61.23691
	34.47883	61.23672
	34.47864	61.23649
	34.47838	61.23632
	34.47809	61.23624
	34.47775	61.23617
	34.47755	61.2361
	34.47735	61.23598
	34.47721	61.23584
	34.47706	61.23557
	34.47684	61.23532
	34.47659	61.23495
	34.47617	61.23456
	34.47588	61.2344
	34.47556	61.2343
	34.47506	61.23422
	34.47496	61.23411
	34.47492	61.23399
	34.47484	61.2339
	34.47475	61.23384
	34.47449	61.23371
	34.47443	61.23366
	34.47443	61.23361
	34.47447	61.23354
	34.47455	61.23329
	34.4746	61.23327
	34.47466	61.23327
	34.47474	61.23329
	34.47475	61.2333
	34.47478	61.2333
	34.47487	61.23333
	34.47498	61.23334
	34.47508	61.23331
	34.47516	61.23326
	34.47518	61.23321
	34.47517	61.23318
	34.47515	61.23315
	34.4751	61.23313
	34.47501	61.23312
	34.47481	61.23316
	34.47475	61.23314
	34.47472	61.23312
	34.47473	61.23305
	34.47472	61.23302
	34.47462	61.23294
	34.47464	61.23289
	34.47467	61.23286
	34.47476	61.23283
	34.47478	61.23275
	34.47475	61.23271
	34.4746	61.23266
	34.47453	61.23266
	34.47438	61.23264
	34.47364	61.22696
	34.47351	61.22683
	34.47352	61.22674
	34.47339	61.22643
	34.47337	61.22632
	34.47322	61.22601
	34.4732	61.22592
	34.47323	61.22582
	34.47335	61.22572
	34.47373	61.22548
	34.47407	61.22521
	34.47409	61.22514
	34.47407	61.22511
	34.47403	61.22507
	34.47396	61.22504
	34.47392	61.22501
	34.47391	61.22497
	34.47393	61.22494
	34.47401	61.22492
	34.47407	61.22488
	34.4741	61.22483
	34.47407	61.22477
	34.47412	61.22467
	34.47409	61.22462
	34.47392	61.22452
	34.47386	61.22446
	34.47382	61.22436
	34.47378	61.22434
	34.47372	61.22433
	34.4736	61.22433
	34.47355	61.22431
	34.47353	61.22428
	34.47355	61.22424
	34.47361	61.22421
	34.47369	61.2242
	34.4738	61.2242
	34.47385	61.22419
	34.47386	61.22418
	34.4739	61.22416
	34.47394	61.2241
	34.47395	61.22404
	34.47394	61.22401
	34.47378	61.22396
	34.47375	61.22391
	34.47372	61.22377
	34.47361	61.22371
	34.47337	61.22361
	34.47336	61.22356
	34.4735	61.22346
	34.47359	61.22336
	34.47358	61.22333
	34.47348	61.22326
	34.47343	61.22325
	34.47342	61.22324
	34.47319	61.22318
	34.47314	61.22316
	34.47309	61.22312
	34.4731	61.2231
	34.47315	61.22308
	34.47324	61.22307
	34.47334	61.22308
	34.47337	61.22307
	34.47343	61.22302
	34.47351	61.223
	34.47366	61.22304
	34.47372	61.22304
	34.47378	61.22303
	34.47381	61.22298
	34.47381	61.22292
	34.47386	61.22288
	34.47397	61.22284
	34.47399	61.22284
	34.47402	61.22281
	34.47428	61.22272
	34.47826	61.21889
	34.47035	61.21405
	34.46472	61.20806
	34.48297	61.20751
	34.49123	61.19959
	34.47303	61.18447
	34.46896	61.16128
	34.45815	61.15896
	34.45789	61.15902
	34.45771	61.15899
	34.45756	61.15893
	34.45732	61.15885
	34.45687	61.1588
	34.45649	61.15872
	34.45605	61.1586
	34.45581	61.15851
	34.45552	61.15842
	34.45486	61.15816
	34.45459	61.15807
	34.4544	61.15796
	34.45408	61.15782
	34.45387	61.15779
	34.45368	61.15778
	34.45331	61.15786
	34.45328	61.15786
	34.45326	61.15784
	34.45307	61.15781
	34.45289	61.1578
	34.45276	61.15777
	34.4527	61.15774
	34.45266	61.15767
	34.45261	61.15762
	34.45247	61.15757
	34.45243	61.15753
	34.45246	61.15746
	34.45256	61.15736
	34.45259	61.15728
	34.45257	61.1572
	34.4525	61.15715
	34.45241	61.15712
	34.45236	61.15712
	34.45234	61.15715
	34.45229	61.15718
	34.45222	61.15718
	34.45206	61.15717
	34.45182	61.15712
	34.4516	61.15706
	34.45148	61.15701
	34.45138	61.15693
	34.4513	61.1569
	34.45118	61.15682
	34.45116	61.15675
	34.45117	61.15672
	34.45122	61.15669
	34.45122	61.15665
	34.45119	61.15663
	34.45118	61.15657
	34.45127	61.15651
	34.45127	61.15647
	34.45122	61.15642
	34.4512	61.15635
	34.45128	61.15618
	34.45127	61.1561
	34.45123	61.15604
	34.45114	61.15595
	34.45098	61.15581
	34.45091	61.15573
	34.45081	61.15565
	34.45085	61.15564
	34.45086	61.15562
	34.45081	61.1555
	34.45082	61.15539
	34.45093	61.15524
	34.45095	61.15517
	34.45096	61.15503
	34.45095	61.15492
	34.45091	61.15482
	34.45083	61.15474
	34.45069	61.15464
	34.45063	61.15455
	34.45057	61.15432
	34.45057	61.15411
	34.45051	61.15399
	34.45048	61.15395
	34.45039	61.15389
	34.45022	61.15378
	34.4501	61.15367
	34.45001	61.15355
	34.44994	61.15339
	34.4499	61.15338
	34.44999	61.15319
	34.45001	61.15298
	34.44996	61.15269
	34.44989	61.15248
	34.44974	61.15227
	34.44954	61.15208
	34.44936	61.15197
	34.44894	61.15176
	34.44435	61.14374
	34.42507	61.14326
	34.40917	61.1479
	34.40923	61.14989
	34.40923	61.15093
	34.40906	61.15191
	34.40872	61.15273
	34.40841	61.15334
	34.40807	61.15409
	34.40799	61.15517
	34.40841	61.15949
	34.40585	61.16091
	34.39096	61.17712
	34.38151	61.18716
	34.37443	61.19401
	34.35978	61.19478
	34.34569	61.21027
	34.33669	61.22018
	34.30724	61.22267
	34.28228	61.22871
	34.25744	61.23504
	34.25419	61.23837
	34.24436	61.23753
	34.23784	61.24402
	34.18756	61.24378
	34.189	61.23531
	34.13963	61.23479
	34.11746	61.23461
	34.09462	61.23447
	34.08499	61.2344
	34.05248	61.2341
	34.00732	61.23379
	33.9766	61.23362
	33.94814	61.2336
	33.82135	61.23325
	33.74453	61.23329
	33.66945	61.23321
	33.67001	61.21538
	33.60915	61.22018
	33.60894	61.21998
	33.60878	61.21971
	33.60877	61.21948
	33.60866	61.21921
	33.60842	61.21896
	33.60793	61.21857
	33.60767	61.21832
	33.60752	61.21813
	33.60753	61.21796
	33.60737	61.21753
	33.60703	61.2169
	33.60689	61.21678
	33.60664	61.21668
	33.60647	61.21663
	33.60622	61.21647
	33.60582	61.21611
	33.60564	61.216
	33.60553	61.2159
	33.60548	61.21578
	33.60548	61.21571
	33.60533	61.21558
	33.60511	61.21546
	33.60503	61.21543
	33.60492	61.2154
	33.60458	61.21534
	33.6044	61.21529
	33.60409	61.21517
	33.60377	61.2151
	33.60362	61.21508
	33.60335	61.21508
	33.60301	61.2151
	33.60279	61.21513
	33.60249	61.21525
	33.60235	61.21526
	33.60229	61.21523
	33.60227	61.2152
	33.60211	61.21509
	33.60152	61.21498
	33.60128	61.21498
	33.60105	61.215
	33.60075	61.21511
	33.60058	61.21526
	33.60044	61.21544
	33.60034	61.21551
	33.59995	61.21562
	33.58905	61.2171
	33.57727	61.21869
	33.57576	61.2189
	33.56732	61.21706
	33.55178	61.21369
	33.51403	61.18775
	33.50313	61.18518
	33.48504	61.16657
	33.48464	61.16507
	33.45763	61.16016
	33.4499	61.1546
	33.47344	61.13135
	33.48311	61.12177
	33.49011	61.11497
	33.50354	61.11342
	33.50726	61.11068
	33.51788	61.10998
	33.52364	61.10961
	33.54497	61.09546
	33.54555	61.09182
	33.54755	61.07968
	33.56546	61.07236
	33.57622	61.06825
	33.58911	61.06533
	33.59123	61.06379
	33.60024	61.06593
	33.63083	61.067
	33.6343	61.06713
	33.64302	61.07127
	33.65269	61.07179
	33.66236	61.07452
	33.66091	61.09621
	33.66455	61.09686
	33.68351	61.11234
	33.68545	61.11376
	33.69691	61.11364
	33.72537	61.11336
	33.72819	61.12699
	33.73819	61.12498
	33.73804	61.13102
	33.77555	61.12129
	33.835	61.10516
	33.84354	61.09641
	33.86813	61.09948
	33.88105	61.10156
	33.885	61.09936
	33.88868	61.09589
	33.91226	61.09457
	33.92016	61.08896
	33.91956	61.07322
	33.9083	61.06311
	33.90503	61.05554
	33.8857	61.04742
	33.87878	61.04129
	33.8635	61.01602
	33.86553	61.01249
	33.85921	61.00641
	33.86158	61.0032
	33.85533	60.99923
	33.85222	60.99553
	33.83854	60.99142
	33.83721	60.99008
	33.83011	60.97804
	33.81979	60.97145
	33.81452	60.9612
	33.81209	60.9579
	33.81284	60.94706
	33.78386	60.94688
	33.78542	60.93703
	33.7461	60.93964
	33.7436	60.94103
	33.71955	60.93975
	33.69103	60.95649
	33.60788	60.95858
	33.58797	60.97381
	33.54548	60.98409
	33.54293	60.99505
	33.54243	61.00432
	33.53766	61.00504
	33.52301	61.00722
	33.5211	61.00687
	33.51814	61.00542
	33.50788	61.00282
	33.50539	61.00282
	33.50122	61.00392
	33.44905	61.00328
	33.42169	60.98313
	33.43938	60.97059
	33.46639	60.95141
	33.4665	60.92759
	33.45022	60.92478
	33.44413	60.92387
	33.42622	60.9139
	33.38562	60.90979
	33.3633	60.90052
	33.3504	60.89791
	33.33069	60.89942
	33.30209	60.88733
	33.294	60.88803
	33.25102	60.87431
	33.25967	60.8685
	33.23851	60.85416
	33.24019	60.8497
	33.23932	60.84796
	33.23659	60.84697
	33.23636	60.84547
	33.23445	60.84419
	33.22952	60.84407
	33.22726	60.84338
	33.22552	60.84355
	33.22419	60.84454
	33.22019	60.84338
	33.21213	60.8497
	33.21312	60.85202
	33.21141	60.85399
	33.21008	60.85415
	33.2059	60.85468
	33.20463	60.84686
	33.1977	60.83384
	33.20952	60.83084
	33.20912	60.82841
	33.20761	60.82696
	33.20442	60.82563
	33.20083	60.82522
	33.17956	60.82089
	33.18478	60.81364
	33.21109	60.80618
	33.24468	60.8067
	33.25912	60.79858
	33.25502	60.7995
	33.23321	60.79719
	33.18996	60.79255
	33.1731	60.79226
	33.16524	60.78313
	33.15609	60.76627
	33.1542	60.76056
	33.15739	60.74828
	33.15768	60.74547
	33.07389	60.7274
	33.07365	60.72687
	33.07285	60.7263
	33.0714	60.7254
	33.07024	60.72466
	33.06872	60.72427
	33.06731	60.72407
	33.02663	60.72705
	32.97135	60.72175
	32.9231	60.71709
	32.91598	60.68684
	32.9147	60.67957
	32.41844	60.76136
	32.08524	60.81286
	31.96835	60.83137
	31.82994	60.85976
	31.38878	60.94767
	30.99402	61.02619
	30.94159	61.03399
	30.92131	61.0365
	30.64238	61.07109
	30.39694	61.09954
	30.36094	61.10446
	30.05339	61.14355
	30.04571	61.14454
	30.01603	61.1461
	29.99685	61.14714
	29.98717	61.14945
	29.97192	61.15223
	29.96111	61.15345
	29.95274	61.15542
	29.94852	61.15642
	29.9452	61.15722
	29.93384	61.1575
	29.91813	61.15981
	29.90239	61.16207
	29.89103	61.16433
	29.87999	61.16646
	29.87944	61.16656
	29.86634	61.16908
	29.8608	61.17069
	29.8548	61.17233
	29.85335	61.17227
	29.85127	61.17094
	29.84512	61.16578
	29.84301	61.16479
	29.84144	61.16514
	29.83681	61.16671
	29.83483	61.16695
	29.83362	61.16694
	29.8276	61.16632
	29.8229	61.16353
	29.82035	61.16272
	29.81411	61.16273
	29.81321	61.16232
	29.8125	61.16233
	29.80937	61.16392
	29.79513	61.17107
	29.77826	61.17088
	29.77519	61.1703
	29.76777	61.17018
	29.76394	61.17094
	29.76081	61.17192
	29.75473	61.17238
	29.75142	61.17238
	29.74667	61.17169
	29.7375	61.17238
	29.73304	61.17275
	29.72995	61.17291
	29.72055	61.17291
	29.71423	61.17518
	29.70764	61.17748
	29.6968	61.17756
	29.69617	61.17736
	29.6879	61.17465
	29.67625	61.17482
	29.67088	61.17632
	29.65923	61.17916
	29.65001	61.17574
	29.64712	61.17743
	29.64178	61.17963
	29.63593	61.18148
	29.62996	61.18241
	29.62405	61.1827
	29.61837	61.18241
	29.61883	61.17818
	29.61121	61.17845
	29.59463	61.17857
	29.58292	61.17799
	29.57712	61.18042
	29.57365	61.18112
	29.5722	61.1817
	29.57049	61.18205
	29.56976	61.18286
	29.5642	61.18367
	29.56217	61.19187
	29.57057	61.1957
	29.56738	61.19825
	29.56118	61.2001
	29.56101	61.20231
	29.55695	61.20596
	29.55672	61.20648
	29.55695	61.20723
	29.55817	61.20845
	29.55823	61.21083
	29.5588	61.21193
	29.55834	61.21248
	29.55168	61.2152
	29.55144	61.21596
	29.55145	61.21596
	29.55167	61.2163
	29.55341	61.21665
	29.55736	61.21926
	29.5577	61.22053
	29.55875	61.22129
	29.56185	61.22141
	29.56333	61.22146
	29.56472	61.22193
	29.56506	61.22291
	29.56361	61.22488
	29.55066	61.23385
	29.5506	61.23658
	29.55141	61.23953
	29.55124	61.24063
	29.5495	61.24116
	29.54753	61.24092
	29.54654	61.23976
	29.5462	61.23849
	29.54469	61.23855
	29.54249	61.23971
	29.54005	61.24063
	29.53704	61.24092
	29.53286	61.23935
	29.53089	61.2386
	29.52388	61.23882
	29.52121	61.23894
	29.51901	61.23969
	29.51773	61.24062
	29.51721	61.2434
	29.51687	61.24653
	29.5153	61.24937
	29.50692	61.25318
	29.50101	61.25434
	29.48907	61.2555
	29.46	61.25463
	29.4538	61.2548
	29.44632	61.25596
	29.43664	61.25649
	29.42447	61.25643
	29.41798	61.26017
	29.41653	61.26156
	29.41461	61.26208
	29.41131	61.2619
	29.40975	61.26248
	29.40795	61.26277
	29.40604	61.2637
	29.40459	61.26573
	29.38807	61.27319
	29.37213	61.2787
	29.37033	61.27893
	29.36859	61.27818
	29.36714	61.27789
	29.35813	61.28697
	29.34474	61.29746
	29.34143	61.30152
	29.33824	61.30407
	29.33503	61.30887
	29.32859	61.31061
	29.32523	61.31264
	29.32372	61.31443
	29.32103	61.31806
	29.31595	61.32288
	29.30593	61.32929
END
END
