Saudi Arabia_North
1
	38.38914	22.97827
	38.08758	23.36373
	37.90426	23.48584
	37.87261	23.51151
	37.84691	23.54233
	37.7697	23.65609
	37.70992	23.73121
	37.51319	24.01594
	37.29103	24.15507
	37.10293	24.19959
	37.06984	24.21004
	37.03898	24.2252
	37.01115	24.24467
	36.98705	24.26796
	36.9673	24.29446
	36.95241	24.32352
	36.912	24.42207
	36.78382	24.79466
	36.73725	24.9193
	36.65464	25.12414
	36.51996	25.25278
	36.50203	25.27219
	36.31386	25.50362
	36.29005	25.53791
	36.27391	25.56785
	36.26345	25.5998
	36.25896	25.63287
	36.26058	25.66617
	36.26827	25.69876
	36.30896	25.82055
	36.27775	25.96451
	36.1918	26.04956
	36.17222	26.07192
	36.15634	26.09655
	36.06569	26.26309
	35.90129	26.42848
	35.88777	26.44343
	35.80233	26.54841
	35.68909	26.70661
	35.58954	26.84797
	35.56615	26.89236
	35.50718	27.05246
	35.45027	27.1187
	35.42758	27.15104
	35.33271	27.31986
	35.25677	27.39791
	35.13904	27.49308
	35.08793	27.52703
	35.05437	27.55443
	34.97272	27.63596
	34.67992	27.70012
	34.53341	27.71126
	34.51903	27.71353
	34.47707	27.7897
	34.46798	27.84168
	34.46196	27.87192
	34.45717	27.90051
	34.45725	27.92731
	34.4603	27.95165
	34.46298	27.97818
	34.46079	27.99129
	34.46148	28.00185
	34.46348	28.01321
	34.46618	28.02496
	34.46886	28.03213
	34.47343	28.03987
	34.47948	28.04745
	34.4901	28.06433
	34.49524	28.07634
	34.50356	28.0964
	34.51297	28.12002
	34.52278	28.15426
	34.53584	28.19318
	34.53879	28.23918
	34.54548	28.26028
	34.5452	28.27709
	34.56099	28.31563
	34.58264	28.36875
	34.62225	28.43202
	34.6433	28.48046
	34.64885	28.51351
	34.66876	28.55057
	34.67708	28.57911
	34.68014	28.61761
	34.68806	28.67231
	34.71136	28.7278
	34.713	28.76244
	34.72091	28.7823
	34.72282	28.8035
	34.73676	28.8416
	34.73168	28.8824
	34.73356	28.90518
	34.76157	28.95266
	34.76686	29.00683
	34.76252	29.05316
	34.76799	29.08203
	34.77558	29.10537
	34.79403	29.13646
	34.81575	29.19302
	34.82597	29.24573
	34.83064	29.2697
	34.85128	29.31248
	34.87271	29.34714
	34.88444	29.3752
	34.88809	29.37452
	34.94942	29.35909
	34.96069	29.35739
	34.96726	29.35624
	34.97614	29.35475
	34.98464	29.35366
	34.99224	29.35283
	34.99879	29.35234
	34.99977	29.35214
	35.00602	29.35145
	35.02123	29.34993
	35.02702	29.34918
	35.04267	29.34661
	35.05524	29.34457
	35.0666	29.343
	35.07736	29.34111
	35.0888	29.33928
	35.09723	29.33786
	35.11649	29.33494
	35.13508	29.33175
	35.18011	29.32697
	35.23185	29.31636
	35.7371	29.23799
	35.77933	29.2325
	35.84586	29.22077
	35.89827	29.21148
	35.91389	29.20856
	35.93236	29.20541
	36.0	29.19392
	36.0701	29.18504
	36.07168	29.18622
	36.07215	29.18529
	36.07263	29.18515
	36.07314	29.1851
	36.07326	29.1851
	36.0739	29.18522
	36.07402	29.18526
	36.07442	29.18545
	36.07454	29.18553
	36.07511	29.18608
	36.07518	29.18618
	36.07544	29.1867
	36.07558	29.18731
	36.0756	29.18768
	36.07557	29.18803
	36.07554	29.18819
	36.07536	29.18895
	36.16459	29.25526
	36.25248	29.31904
	36.31001	29.35995
	36.34854	29.38784
	36.38189	29.4118
	36.40908	29.43156
	36.44473	29.45718
	36.50454	29.49994
	36.74711	29.85904
	36.75354	29.8685
	37.49912	29.99904
	37.5	30.0
	37.6352	30.27416
	37.66554	30.33265
	37.99716	30.50061
	37.96621	30.53274
	37.93369	30.56622
	37.90536	30.59499
	37.86876	30.63279
	37.83572	30.66636
	37.79421	30.70876
	37.76099	30.74457
	37.75285	30.75458
	37.7449	30.76719
	37.73299	30.779
	37.71285	30.79927
	37.67784	30.83364
	37.6639	30.84757
	37.63266	30.87834
	37.61468	30.89649
	37.5726	30.93801
	37.54963	30.95927
	37.53722	30.97083
	37.51134	30.99625
	37.46788	31.03856
	37.43163	31.07483
	37.39242	31.1137
	37.35993	31.14632
	37.32946	31.17657
	37.29385	31.2122
	37.26457	31.24123
	37.24993	31.25459
	37.21166	31.29243
	37.1655	31.33793
	37.1019	31.40072
	37.06381	31.43838
	37.03105	31.47041
	37.0009	31.50011
	37.07134	31.51819
	37.18048	31.54582
	37.26849	31.56803
	37.34594	31.58753
	37.40168	31.60162
	37.47444	31.61949
	37.49968	31.62654
	37.54221	31.63778
	37.61553	31.65664
	37.67834	31.673
	37.71912	31.68329
	37.75491	31.69223
	37.7974	31.70331
	37.9859	31.75119
	38.00165	31.75535
	38.03392	31.76321
	38.06614	31.77186
	38.16125	31.79545
	38.24369	31.81631
	38.41561	31.85857
	38.49482	31.87726
	38.57022	31.89541
	38.66703	31.91925
	38.80815	31.9523
	38.89558	31.97316
	38.98653	31.9943
	39.0009	32.00026
	39.04374	32.03324
	39.08334	32.06428
	39.12588	32.09776
	39.1649	32.12813
	39.19541	32.14985
	39.20443	32.1588
	39.25276	32.19459
	39.3013	32.23059
	39.35472	32.22028
	39.36806	32.21722
	39.39417	32.21111
	39.40722	32.2075
	39.44639	32.19833
	39.45944	32.195
	39.47278	32.19167
	39.48583	32.18861
	39.49889	32.18528
	39.51194	32.18222
	39.525	32.17889
	39.53806	32.17583
	39.55111	32.1725
	39.59028	32.16333
	39.60333	32.15972
	39.62944	32.15361
	39.64278	32.15056
	39.65556	32.14694
	39.66889	32.14389
	39.68194	32.14083
	39.695	32.13722
	39.72111	32.13111
	39.76028	32.12111
	39.78639	32.115
	39.79944	32.11139
	39.83861	32.10222
	39.85167	32.09861
	39.87778	32.0925
	39.89083	32.08889
	39.90389	32.08556
	39.93	32.07944
	39.94306	32.07583
	39.96917	32.06972
	39.98222	32.06639
	39.995	32.06278
	40.0025	32.06111
	40.04	32.04361
	40.0525	32.03722
	40.0775	32.02556
	40.09028	32.01972
	40.10278	32.01333
	40.14028	31.99583
	40.15278	31.98944
	40.17778	31.97778
	40.19028	31.97167
	40.20278	31.96583
	40.21528	31.95972
	40.22778	31.95389
	40.24028	31.94778
	40.25278	31.94194
	40.26528	31.93583
	40.27778	31.93
	40.29028	31.92361
	40.31528	31.91194
	40.34028	31.89972
	40.36528	31.88806
	40.37778	31.88167
	40.41528	31.86417
	40.42778	31.85778
	40.44028	31.85194
	40.4525	31.84611
	40.49	31.82778
	40.5025	31.82194
	40.5275	31.80972
	40.5525	31.79806
	40.56472	31.79167
	40.58972	31.78
	40.60222	31.77389
	40.61444	31.7675
	40.63944	31.75583
	40.65194	31.74944
	40.66444	31.74361
	40.67694	31.7375
	40.68917	31.73167
	40.70167	31.72528
	40.72667	31.71361
	40.73917	31.7075
	40.75139	31.70139
	40.76389	31.69528
	40.77639	31.68944
	40.78861	31.68306
	40.80111	31.67722
	40.81361	31.67111
	40.82611	31.66528
	40.83833	31.65889
	40.85083	31.65306
	40.86333	31.64694
	40.87556	31.64111
	40.88806	31.63472
	40.90028	31.62889
	40.91278	31.62306
	40.92528	31.61694
	40.9375	31.61056
	40.95	31.60472
	40.9625	31.59861
	40.97472	31.59222
	40.99972	31.58056
	41.01194	31.57444
	41.02444	31.56806
	41.03667	31.56222
	41.04917	31.55611
	41.06167	31.55028
	41.07389	31.54389
	41.08639	31.53778
	41.09861	31.53194
	41.11111	31.52556
	41.12333	31.51972
	41.13583	31.51361
	41.14833	31.50778
	41.16056	31.50139
	41.17278	31.49528
	41.18528	31.48944
	41.19778	31.48333
	41.21	31.47694
	41.22222	31.47111
	41.23472	31.465
	41.24722	31.45917
	41.25944	31.45278
	41.27167	31.44667
	41.28417	31.44083
	41.29639	31.43444
	41.30889	31.42833
	41.32111	31.4225
	41.33361	31.41639
	41.34583	31.41
	41.35806	31.40389
	41.37056	31.39806
	41.38278	31.39194
	41.39528	31.38556
	41.4075	31.37972
	41.42	31.37361
	41.43222	31.36722
	41.43611	31.36528
	41.44861	31.36056
	41.46111	31.35556
	41.47389	31.35056
	41.48639	31.34528
	41.49889	31.34056
	41.52389	31.33056
	41.53639	31.32528
	41.54917	31.32083
	41.56167	31.31556
	41.57417	31.31056
	41.58667	31.30528
	41.59917	31.30028
	41.61167	31.29556
	41.63667	31.28556
	41.64917	31.28028
	41.66194	31.27556
	41.68694	31.26556
	41.69944	31.26028
	41.71194	31.25528
	41.72444	31.25056
	41.73694	31.24528
	41.76194	31.23528
	41.77444	31.23056
	41.78694	31.22528
	41.79944	31.22028
	41.81194	31.215
	41.82444	31.21
	41.83694	31.20528
	41.84944	31.20028
	41.86194	31.195
	41.87444	31.19
	41.88722	31.18528
	41.89944	31.18
	41.91194	31.175
	41.92444	31.16972
	41.93694	31.16472
	41.94944	31.16
	41.96194	31.15472
	41.97444	31.14972
	41.98694	31.14444
	41.99944	31.13972
	42.01194	31.13472
	42.02444	31.12944
	42.03694	31.12444
	42.04944	31.11917
	42.06194	31.11444
	42.07444	31.10944
	42.08694	31.10417
	42.09917	31.09917
	42.10083	31.09833
	42.11333	31.09306
	42.12556	31.08806
	42.13806	31.08278
	42.15056	31.07778
	42.16306	31.0725
	42.17556	31.0675
	42.18778	31.06222
	42.20028	31.05694
	42.21278	31.05194
	42.22528	31.04667
	42.2375	31.04167
	42.2625	31.03111
	42.275	31.02611
	42.28722	31.02083
	42.29972	31.01528
	42.31222	31.01
	42.32444	31.00472
	42.33694	30.99972
	42.34944	30.99444
	42.36167	30.98917
	42.37417	30.98417
	42.39917	30.97361
	42.41139	30.96861
	42.43639	30.95806
	42.44861	30.95278
	42.46111	30.94778
	42.47361	30.9425
	42.48583	30.93694
	42.49833	30.93167
	42.51056	30.92639
	42.52306	30.92139
	42.53528	30.91611
	42.56028	30.90556
	42.5725	30.90056
	42.585	30.89528
	42.59722	30.89
	42.60972	30.88472
	42.62222	30.87972
	42.63444	30.87444
	42.64694	30.86917
	42.65917	30.86389
	42.67167	30.85833
	42.68389	30.85306
	42.69639	30.84778
	42.70861	30.8425
	42.72111	30.83722
	42.73333	30.83222
	42.74583	30.82694
	42.75806	30.82167
	42.77056	30.81639
	42.78278	30.81111
	42.79528	30.80611
	42.8075	30.80083
	42.82	30.79556
	42.83222	30.79028
	42.84472	30.785
	42.85694	30.77944
	42.86944	30.77417
	42.88167	30.76889
	42.89417	30.76361
	42.91861	30.75306
	42.93111	30.74778
	42.94333	30.74278
	42.9563	30.7373
	42.96806	30.73222
	42.9775	30.72778
	42.97571	30.48008
	43.0187	30.44921
	43.0774	30.407
	43.12996	30.36914
	43.20678	30.31372
	43.24474	30.2863
	43.29041	30.25326
	43.35233	30.20842
	43.45411	30.13456
	43.53317	30.07705
	43.6073	30.02302
	43.61809	30.01
	43.62651	30.009
	43.67732	29.9719
	43.74665	29.92119
	43.79247	29.88763
	43.82669	29.86254
	43.8981	29.81011
	43.92274	29.792
	44.00201	29.73366
	44.04055	29.70525
	44.09177	29.66745
	44.1698	29.60978
	44.24651	29.55298
	44.2855	29.52406
	44.36254	29.46685
	44.39778	29.44064
	44.45715	29.39643
	44.5002	29.36434
	44.56253	29.31781
	44.59771	29.29584
	44.63105	29.26658
	44.72194	29.19849
	44.76122	29.19557
	44.84905	29.18901
	44.91679	29.18391
	44.96629	29.18016
	45.07511	29.17185
	45.14507	29.16646
	45.23299	29.15963
	45.32188	29.15267
	45.38014	29.14808
	45.42166	29.14479
	45.51573	29.13729
	45.63488	29.12769
	45.7014	29.12228
	45.77328	29.1164
	45.85594	29.10959
	45.92482	29.10388
	45.97184	29.09996
	46.03716	29.09448
	46.12359	29.08719
	45.82611	28.85666
	45.77471	28.81805
	45.70138	28.75805
	45.67805	28.73778
	45.64193	28.70166
	45.60638	28.66083
	45.59388	28.64222
	45.57833	28.62333
	45.54999	28.57999
	45.52611	28.53944
	45.5011	28.50055
	45.48972	28.48
	45.46249	28.43694
	45.41444	28.35249
	45.39139	28.31
	45.37666	28.28805
	45.36555	28.26944
	45.32777	28.20361
	45.31527	28.18444
	45.28916	28.14
	45.2786	28.11861
	45.23888	28.05305
	45.22333	28.03305
	45.20999	28.01194
	45.17888	27.9725
	45.16472	27.95305
	45.14693	27.93333
	45.12749	27.91444
	45.10999	27.89527
	45.07111	27.85833
	45.03278	27.81749
	44.99776	27.77749
	44.98444	27.75805
	44.97333	27.73972
	44.95527	27.70194
	44.94722	27.68222
	44.94193	27.66055
	44.93804	27.64027
	44.9361	27.61916
	44.93944	27.59972
	44.94722	27.57972
	44.96387	27.55888
	44.98305	27.53833
	44.98998	27.53255
	44.98055	27.5125
	44.9675	27.49305
	44.95221	27.47472
	44.92582	27.46083
	44.89999	27.4525
	44.87861	27.45694
	44.85638	27.46583
	44.84508	27.47272
	44.83499	27.48138
	44.82027	27.50361
	44.81001	27.5121
	44.79999	27.52083
	44.7988	27.52014
	44.77666	27.51694
	44.75388	27.5075
	44.73111	27.49611
	44.7086	27.47833
	44.68582	27.45777
	44.66832	27.43749
	44.65166	27.41388
	44.63832	27.39249
	44.62832	27.37388
	44.61222	27.33333
	44.60944	27.31222
	44.60777	27.27083
	44.62388	27.22805
	44.62749	27.22222
	44.65083	27.21777
	44.67305	27.21055
	44.69582	27.19805
	44.73722	27.16999
	44.7575	27.15389
	44.77805	27.13944
	44.80028	27.12027
	44.81805	27.09861
	44.82943	27.07666
	44.83916	27.05555
	44.84554	27.03389
	44.84666	27.0125
	44.8436	26.99055
	44.83777	26.97139
	44.82555	26.95194
	44.8025	26.93694
	44.77777	26.92777
	44.75443	26.92388
	44.73	26.91611
	44.70416	26.90416
	44.6786	26.8875
	44.6561	26.86778
	44.63277	26.84916
	44.57805	26.79194
	44.54972	26.75222
	44.53972	26.73249
	44.52666	26.71416
	44.50221	26.69638
	44.48026	26.69222
	44.45722	26.69027
	44.43304	26.68638
	44.4086	26.67861
	44.38582	26.6675
	44.37917	26.6475
	44.38416	26.62388
	44.39472	26.60194
	44.39804	26.58056
	44.39833	26.53416
	44.39444	26.51333
	44.38943	26.49333
	44.38139	26.44749
	44.37666	26.42666
	44.37472	26.40638
	44.37388	26.38416
	44.37638	26.36472
	44.38805	26.34444
	44.40694	26.3236
	44.42694	26.30555
	44.47028	26.26833
	44.49249	26.25111
	44.52666	26.20527
	44.55276	26.16166
	44.61111	26.07527
	44.63083	26.05166
	44.67221	26.0061
	44.68666	25.98472
	44.69082	25.96222
	44.68083	25.94249
	44.65916	25.90527
	44.65943	25.88583
	44.66999	25.86555
	44.6886	25.84388
	44.71665	25.80028
	44.72722	25.77833
	44.73249	25.75833
	44.73888	25.71555
	44.74165	25.67528
	44.73972	25.65416
	44.73082	25.61138
	44.7261	25.59222
	44.71721	25.57249
	44.69527	25.5686
	44.67249	25.56749
	44.58222	25.5775
	44.55666	25.57833
	44.53166	25.57555
	44.50804	25.57444
	44.45943	25.57055
	44.37138	25.56083
	44.34777	25.56055
	44.29472	25.56333
	44.24638	25.57222
	44.1986	25.57916
	44.13055	25.5875
	44.10693	25.58833
	44.08332	25.58805
	44.06055	25.58388
	44.0386	25.57805
	44.01611	25.56667
	43.99333	25.5525
	43.97333	25.53416
	43.9575	25.515
	43.94444	25.49555
	43.92387	25.45694
	43.91527	25.43722
	43.89139	25.39722
	43.86943	25.37944
	43.84637	25.36972
	43.82416	25.36278
	43.80166	25.35138
	43.78082	25.33333
	43.76693	25.31305
	43.74499	25.29305
	43.71916	25.27722
	43.66554	25.25861
	43.63943	25.25194
	43.61222	25.24611
	43.54194	25.23416
	43.49082	25.22361
	43.41582	25.2061
	43.34554	25.19389
	43.32332	25.185
	43.29749	25.16805
	43.25054	25.1275
	43.19971	25.07611
	43.15971	25.03249
	43.145	25.01388
	43.12721	24.99472
	43.10889	24.96888
	43.09332	24.95055
	43.08554	24.92972
	43.08416	24.91027
	43.08887	24.88972
	43.09943	24.86972
	43.12999	24.82805
	43.14083	24.80805
	43.14444	24.78833
	43.14083	24.76806
	43.13139	24.74916
	43.11971	24.73055
	43.09888	24.71055
	43.07332	24.69472
	43.04916	24.68305
	43.02749	24.67888
	43.00527	24.68111
	42.9575	24.69805
	42.93249	24.70416
	42.905	24.70472
	42.88388	24.7061
	42.84055	24.70027
	42.79332	24.69111
	42.76555	24.68722
	42.71944	24.6825
	42.69193	24.68333
	42.64333	24.68694
	42.62221	24.69
	42.59888	24.69138
	42.55332	24.69583
	42.5061	24.70222
	42.48499	24.70639
	42.44082	24.71722
	42.3961	24.73167
	42.37444	24.74111
	42.31138	24.77527
	42.29082	24.78472
	42.2686	24.78888
	42.24721	24.78805
	42.22527	24.77916
	42.20277	24.76472
	42.18444	24.74611
	42.16666	24.72499
	42.13971	24.68583
	42.12527	24.66722
	42.11278	24.64861
	42.0961	24.61138
	42.09805	24.59472
	42.09888	24.57889
	42.09055	24.54333
	42.08443	24.52805
	42.07278	24.50555
	42.05611	24.48249
	42.04305	24.46833
	42.03555	24.46222
	42.01028	24.43583
	42.00471	24.42777
	41.99888	24.41528
	41.99805	24.40249
	41.99916	24.38666
	42.0061	24.37138
	42.01082	24.36389
	42.01583	24.34972
	42.02138	24.34027
	42.02611	24.31944
	42.00999	24.28999
	42.00249	24.27
	41.99138	24.22166
	41.98527	24.18972
	41.98389	24.15166
	41.98637	24.11472
	41.98249	24.06972
	41.98138	24.03833
	41.98586	24.0
	41.98833	23.95667
	41.98306	23.93639
	41.97972	23.91639
	41.97833	23.89417
	41.97472	23.87139
	41.97361	23.85194
	41.97388	23.81028
	41.97639	23.78917
	41.98416	23.76833
	42.00417	23.74972
	42.02583	23.73833
	42.04639	23.72889
	42.06667	23.7175
	42.08805	23.70166
	42.10472	23.68028
	42.11417	23.65667
	42.1236	23.61361
	42.13166	23.57
	42.1375	23.55028
	42.14611	23.52833
	42.18222	23.46555
	42.19111	23.44555
	42.19861	23.42389
	42.20277	23.38028
	42.20666	23.36055
	42.21361	23.315
	42.225	23.27278
	42.25471	23.20722
	42.26722	23.18361
	42.28638	23.13805
	42.29778	23.11611
	42.31638	23.07528
	42.34611	23.01361
	42.35777	22.99166
	42.37444	22.97055
	42.39527	22.95361
	42.44028	22.93333
	42.46166	22.92667
	42.50666	22.92139
	42.57583	22.92361
	42.60027	22.92583
	42.64639	22.92611
	42.69138	22.92333
	42.80083	22.91306
	42.825	22.91278
	42.87083	22.90972
	42.89166	22.90667
	42.91638	22.90055
	42.93805	22.89472
	42.96055	22.88694
	42.98167	22.87527
	43.00166	22.85944
	43.01389	22.83639
	43.01472	22.81694
	42.98917	22.7575
	42.98666	22.73639
	42.99027	22.715
	42.98917	22.67444
	42.98222	22.63416
	42.98083	22.61389
	42.98333	22.59361
	42.99583	22.57333
	43.01749	22.55167
	43.1011	22.51972
	43.12499	22.51722
	43.14805	22.52028
	43.17249	22.52639
	43.21972	22.54
	43.24333	22.54778
	43.26778	22.55361
	43.28889	22.55694
	43.30972	22.55555
	43.33167	22.55222
	43.38277	22.53972
	43.45194	22.53055
	43.4761	22.51889
	43.48666	22.49889
	43.48499	22.47667
	43.46833	22.415
	43.46472	22.39389
	43.46	22.37305
	43.45722	22.35
	43.45722	22.31028
	43.45972	22.28806
	43.46722	22.24333
	43.47166	22.22166
	43.48694	22.10806
	43.49222	22.08555
	43.49444	22.065
	43.49889	22.04444
	43.50972	21.97722
	43.50916	21.95611
	43.50639	21.93305
	43.5	21.91306
	43.48944	21.89278
	43.47805	21.87389
	43.46278	21.85555
	43.44444	21.8375
	43.43028	21.81889
	43.42166	21.8
	43.42222	21.77889
	43.42667	21.735
	43.43111	21.71278
	43.4325	21.69333
	43.435	21.67361
	43.43639	21.65222
	43.43749	21.61166
	43.43028	21.56861
	43.41611	21.52528
	43.41166	21.50611
	43.3975	21.46278
	43.3875	21.42278
	43.38611	21.40361
	43.38638	21.38139
	43.39083	21.36166
	43.40333	21.34139
	43.42139	21.32
	43.44083	21.29944
	43.47805	21.25555
	43.5075	21.21278
	43.54166	21.16833
	43.57083	21.12278
	43.33972	20.83555
	43.31972	20.84222
	43.29778	20.85194
	43.25417	20.86583
	43.2336	20.86889
	43.18916	20.86639
	43.16805	20.86222
	43.14388	20.85361
	43.09861	20.82861
	43.07639	20.82083
	43.05528	20.8175
	43.03278	20.81805
	42.99055	20.82055
	42.96972	20.81916
	42.94444	20.81333
	42.92	20.80194
	42.89722	20.78416
	42.87694	20.765
	42.84389	20.7275
	42.82083	20.70944
	42.79833	20.69778
	42.77722	20.69083
	42.755	20.685
	42.72583	20.67389
	42.7025	20.66333
	42.67999	20.65166
	42.63472	20.62583
	42.60999	20.60778
	42.58805	20.58889
	42.56416	20.57
	42.495	20.50861
	42.44694	20.46722
	42.40805	20.43
	42.38916	20.41083
	42.34138	20.37305
	42.31777	20.35778
	42.29639	20.34889
	42.27444	20.34194
	42.25361	20.34027
	42.23138	20.3425
	42.20805	20.34861
	42.18805	20.35972
	42.1675	20.37666
	42.15111	20.39694
	42.13805	20.41972
	42.11444	20.46805
	42.10222	20.49083
	42.07388	20.55416
	42.05	20.59777
	42.03666	20.61972
	42.03194	20.62472
	42.02111	20.59111
	42.00972	20.56778
	41.9761	20.48944
	41.97111	20.47055
	41.96972	20.44944
	41.97639	20.42778
	41.99667	20.41
	42.01749	20.39528
	42.03583	20.37389
	42.04138	20.35222
	42.03889	20.33028
	42.03083	20.31055
	42.00889	20.29055
	41.98416	20.27361
	41.96083	20.26
	41.935	20.24222
	41.91166	20.22889
	41.88833	20.21333
	41.86388	20.2
	41.84	20.18194
	41.82249	20.15166
	41.81555	20.13277
	41.81305	20.11083
	41.82055	20.05778
	41.82222	20.03555
	41.81333	20.01583
	41.76305	19.93389
	41.75305	19.91139
	41.74194	19.89278
	41.73194	19.87305
	41.725	19.85305
	41.71472	19.83167
	41.70777	19.81277
	41.69847	19.79686
	41.77524	19.75597
	41.86861	19.73944
	41.86833	19.72028
	41.86527	19.70111
	41.85583	19.65833
	41.84333	19.6175
	41.83167	19.57027
	41.82861	19.55028
	41.83028	19.53
	41.83472	19.50944
	41.84722	19.48861
	41.87971	19.44722
	41.89111	19.42722
	41.89388	19.40778
	41.89222	19.38111
	41.87416	19.34278
	41.86722	19.32278
	41.86111	19.30194
	41.85694	19.28111
	41.84888	19.26139
	41.835	19.24194
	41.81361	19.22833
	41.79083	19.22139
	41.76917	19.21972
	41.74889	19.21972
	41.72778	19.22389
	41.65333	19.23333
	41.63166	19.2325
	41.61111	19.23
	41.58833	19.22305
	41.54417	19.19778
	41.61154	19.12643
	41.38277	18.91944
	41.38472	18.9
	41.38833	18.87861
	41.39388	18.85806
	41.40055	18.8375
	41.41083	18.81611
	41.43027	18.79667
	41.45	18.78722
	41.47194	18.78333
	41.49528	18.78389
	41.55778	18.78806
	41.57999	18.78778
	41.60139	18.78666
	41.6236	18.78444
	41.66666	18.7775
	41.68666	18.77111
	41.7075	18.7625
	41.72778	18.74416
	41.75111	18.67833
	41.76749	18.61611
	41.77499	18.59444
	41.80305	18.53055
	41.81055	18.51083
	41.81416	18.49139
	41.81389	18.47028
	41.80611	18.43666
	41.8	18.41777
	41.79583	18.39778
	41.78166	18.35555
	41.77666	18.33361
	41.77055	18.31389
	41.76444	18.295
	41.75555	18.27528
	41.74194	18.25666
	41.72333	18.23833
	41.7025	18.22861
	41.66	18.21055
	41.63889	18.19972
	41.6225	18.18139
	41.61361	18.16166
	41.60667	18.14278
	41.5856	18.09521
	40.8407	17.56772
	40.62893	17.90835
	40.59484	17.97338
	40.52397	18.1404
	40.51278	18.17638
	40.4606	18.4279
	40.31931	18.62354
	40.0147	18.84086
	39.98641	18.86507
	39.96314	18.89371
	39.94565	18.92586
	39.9345	18.96048
	39.8892	19.16533
	39.82295	19.40501
	39.72406	19.64037
	39.33005	20.13132
	39.29426	20.18174
	39.27615	20.21357
	39.07808	20.65079
	38.98125	20.81697
	38.85537	20.98028
	38.8375	21.00785
	38.82455	21.03775
	38.63175	21.60894
	38.55043	21.77037
	38.53792	21.80171
	38.53114	21.83455
	38.5303	21.86799
	38.54306	22.06634
	38.55256	22.11443
	38.63581	22.36117
	38.43133	22.64075
	38.41131	22.67466
	38.39866	22.71151
	38.39386	22.74992
	38.38914	22.97827
END
END
