Singapore
1
	103.6162	1.314306
	103.6167	1.314977
	103.6171	1.315417
	103.6173	1.317429
	103.6178	1.321611
	103.6257	1.334066
	103.6301	1.341056
	103.6318	1.344495
	103.6356	1.352028
	103.6375	1.356948
	103.6376	1.357389
	103.6381	1.358101
	103.6409	1.362972
	103.6453	1.372055
	103.6492	1.379917
	103.653	1.387083
	103.6534	1.390568
	103.6535	1.391278
	103.6538	1.392099
	103.6572	1.400417
	103.6639	1.410472
	103.6694	1.41575
	103.6739	1.428139
	103.6758	1.429946
	103.6833	1.43725
	103.6941	1.439889
	103.6989	1.443306
	103.7037	1.450778
	103.7141	1.457472
	103.7283	1.460139
	103.7398	1.454611
	103.7468	1.450389
	103.7607	1.448389
	103.7645	1.449974
	103.771	1.452722
	103.7868	1.464182
	103.8002	1.473958
	103.8098	1.476836
	103.8197	1.477173
	103.8355	1.474139
	103.8504	1.467558
	103.8664	1.4565
	103.8667	1.456238
	103.8777	1.445116
	103.8904	1.432232
	103.899	1.429013
	103.9129	1.427276
	103.9256	1.429288
	103.9316	1.430547
	103.9383	1.429631
	103.9523	1.424334
	103.9649	1.423581
	103.9815	1.424368
	103.9907	1.424705
	103.9984	1.42311
	104.0075	1.427963
	104.0206	1.440322
	104.0402	1.445377
	104.066	1.439107
	104.076	1.43339
	104.0821	1.429873
	104.0925	1.417447
	104.0968	1.407177
	104.0954	1.400492
	104.0941	1.395043
	104.0815	1.376863
	104.0722	1.343654
	104.0835	1.315413
	104.0833	1.313
	104.0831	1.311
	104.0828	1.309
	104.082	1.305
	104.0815	1.303
	104.0801	1.299
	104.0793	1.297
	104.0784	1.295
	104.0768	1.292
	104.0742	1.288
	104.0735	1.287
	104.0711	1.284
	104.0694	1.282
	104.0684	1.281
	104.0663	1.279
	104.064	1.277
	104.0627	1.276
	104.0613	1.275
	104.0598	1.274
	104.0582	1.273
	104.0565	1.272
	104.0545	1.271
	104.0523	1.27
	104.0498	1.269
	104.0467	1.268
	104.0427	1.267
	104.0347	1.266147
	104.0333	1.2695
	103.8808	1.20725
	103.8598	1.195972
	103.805	1.171444
	103.7407	1.130361
	103.6707	1.179444
	103.6805	1.193443
	103.6764	1.193
	103.6703	1.193
	103.661	1.194
	103.6569	1.195
	103.6539	1.196
	103.6513	1.197
	103.6491	1.198
	103.6472	1.199
	103.6437	1.201
	103.642	1.202
	103.6405	1.203
	103.6392	1.204
	103.6367	1.206
	103.6345	1.208
	103.6335	1.209
	103.6316	1.211
	103.6297	1.210692
	103.6272	1.211653
	103.6236	1.211314
	103.6145	1.21397
	103.6077	1.215751
	103.6049	1.217892
	103.6034	1.219835
	103.6025	1.221165
	103.6015	1.222049
	103.6008	1.223289
	103.601	1.225
	103.5995	1.226
	103.5981	1.227
	103.5956	1.229
	103.5945	1.23
	103.5924	1.232
	103.5905	1.234
	103.5881	1.237
	103.5846	1.24
	103.5816	1.243
	103.5807	1.244
	103.579	1.246
	103.5783	1.247
	103.5773	1.24835
	103.5768	1.249
	103.5756	1.251
	103.5739	1.253947
	103.5739	1.254
	103.5724	1.257
	103.5717	1.258709
	103.5716	1.259
	103.5715	1.259363
	103.5709	1.261
	103.5697	1.265
	103.5697	1.265176
	103.5693	1.267
	103.5691	1.26818
	103.5689	1.269
	103.5688	1.269468
	103.5686	1.271
	103.5684	1.272777
	103.5684	1.273
	103.5683	1.275
	103.5683	1.278752
	103.6029	1.264167
	103.6162	1.314306
END
END
