Slovakia_Region of Bratislava
1
	16.84502	48.38174
	16.84618	48.38181
	16.84857	48.38207
	16.8492	48.38226
	16.8501	48.3828
	16.85047	48.38316
	16.85081	48.38376
	16.85094	48.38443
	16.85091	48.38503
	16.85047	48.38688
	16.85036	48.38818
	16.85042	48.38956
	16.85051	48.39039
	16.85097	48.39118
	16.85179	48.39192
	16.85367	48.39299
	16.85496	48.39406
	16.85553	48.39479
	16.8558	48.39529
	16.85595	48.39624
	16.85594	48.39635
	16.85574	48.39755
	16.85553	48.39835
	16.85521	48.39899
	16.85516	48.39922
	16.85449	48.40024
	16.85202	48.40352
	16.85157	48.40431
	16.85094	48.40566
	16.85053	48.40698
	16.85031	48.40801
	16.85031	48.409
	16.85057	48.41003
	16.85089	48.41074
	16.85136	48.41142
	16.85186	48.41198
	16.85207	48.41219
	16.8524	48.41249
	16.85318	48.41311
	16.85396	48.41362
	16.85565	48.41455
	16.85657	48.41499
	16.86044	48.41658
	16.86179	48.41731
	16.86254	48.4178
	16.86323	48.41842
	16.86358	48.41899
	16.86375	48.41934
	16.86375	48.41992
	16.86344	48.42068
	16.86262	48.42141
	16.86021	48.42275
	16.85949	48.42334
	16.8585	48.42435
	16.85747	48.42566
	16.85333	48.43205
	16.852	48.43442
	16.85158	48.43544
	16.85101	48.4398
	16.85081	48.44249
	16.85082	48.44314
	16.85092	48.44457
	16.8509	48.44488
	16.85083	48.44517
	16.85072	48.44541
	16.85053	48.44568
	16.84997	48.44635
	16.84974	48.44666
	16.84958	48.44695
	16.84946	48.44732
	16.84943	48.44763
	16.84945	48.44792
	16.84953	48.44818
	16.84982	48.44884
	16.85004	48.44921
	16.85022	48.44947
	16.85046	48.44976
	16.85075	48.45006
	16.85109	48.45033
	16.85144	48.45058
	16.85196	48.45088
	16.85229	48.45103
	16.85268	48.45116
	16.85313	48.45126
	16.85353	48.45131
	16.85407	48.45133
	16.85532	48.45128
	16.85741	48.45112
	16.85785	48.4511
	16.85793	48.45111
	16.85863	48.45113
	16.85922	48.45119
	16.85964	48.45128
	16.86057	48.45156
	16.86079	48.45164
	16.8615	48.45195
	16.86188	48.45213
	16.86224	48.45234
	16.86275	48.45271
	16.86312	48.45303
	16.86343	48.45334
	16.86368	48.45365
	16.86388	48.45395
	16.86402	48.45422
	16.86411	48.45446
	16.86415	48.45471
	16.86414	48.45498
	16.86402	48.45538
	16.86388	48.45566
	16.8637	48.4559
	16.86349	48.45611
	16.8631	48.45637
	16.86267	48.45658
	16.86243	48.45668
	16.86134	48.45706
	16.86076	48.45728
	16.8604	48.45743
	16.85992	48.45772
	16.85978	48.45784
	16.85966	48.45796
	16.85961	48.45803
	16.85947	48.45826
	16.85937	48.45854
	16.85933	48.45882
	16.85936	48.45911
	16.85948	48.45937
	16.85973	48.45966
	16.86015	48.46
	16.8609	48.46054
	16.86169	48.46115
	16.86203	48.46145
	16.86237	48.46178
	16.86283	48.46234
	16.86301	48.46259
	16.86319	48.46291
	16.86337	48.46329
	16.86363	48.46396
	16.86378	48.4643
	16.86392	48.46457
	16.86411	48.46485
	16.8643	48.46506
	16.86451	48.46525
	16.86481	48.46546
	16.86511	48.46563
	16.86546	48.46579
	16.86587	48.46594
	16.86621	48.46603
	16.86651	48.46609
	16.86689	48.46615
	16.86782	48.46623
	16.86951	48.46625
	16.86996	48.46624
	16.87035	48.46626
	16.87078	48.4663
	16.87132	48.46638
	16.87193	48.4665
	16.8727	48.46676
	16.87305	48.46692
	16.87353	48.46722
	16.87383	48.46746
	16.87408	48.4677
	16.87448	48.46814
	16.87501	48.46887
	16.87534	48.46951
	16.87547	48.46985
	16.87579	48.47091
	16.87603	48.47163
	16.87618	48.47196
	16.8764	48.4723
	16.87665	48.47261
	16.8771	48.47307
	16.87767	48.47358
	16.87816	48.47406
	16.87872	48.47471
	16.87919	48.47539
	16.87972	48.47635
	16.87992	48.47666
	16.88015	48.47696
	16.88034	48.47718
	16.88072	48.47749
	16.88109	48.47768
	16.88115	48.4777
	16.88148	48.4778
	16.88184	48.47785
	16.88221	48.47785
	16.88223	48.47784
	16.88255	48.4778
	16.88271	48.47776
	16.88316	48.47761
	16.88345	48.47747
	16.88374	48.4773
	16.88452	48.47677
	16.88486	48.47656
	16.88518	48.47638
	16.8858	48.47608
	16.8861	48.47595
	16.88657	48.4758
	16.88692	48.47572
	16.88725	48.47566
	16.88763	48.47563
	16.8878	48.47563
	16.88818	48.47564
	16.88854	48.47568
	16.88908	48.47582
	16.88939	48.47593
	16.88978	48.47617
	16.88999	48.47636
	16.89014	48.47656
	16.89024	48.47677
	16.89028	48.47689
	16.89032	48.47718
	16.8903	48.47744
	16.89005	48.47842
	16.88999	48.47875
	16.88997	48.47946
	16.89001	48.47995
	16.89018	48.48061
	16.8903	48.48089
	16.89045	48.48116
	16.89063	48.48141
	16.89083	48.48164
	16.89121	48.48191
	16.8914	48.48201
	16.89207	48.48229
	16.89338	48.48275
	16.89371	48.48289
	16.89395	48.48301
	16.89452	48.48335
	16.89518	48.48391
	16.89541	48.48417
	16.89569	48.48455
	16.89591	48.48491
	16.89603	48.48517
	16.89613	48.48544
	16.8962	48.48575
	16.89624	48.48626
	16.89621	48.48651
	16.89608	48.48687
	16.89602	48.48699
	16.89585	48.48722
	16.89564	48.48746
	16.89538	48.48767
	16.89523	48.48777
	16.89462	48.4881
	16.89164	48.48951
	16.89108	48.48986
	16.89075	48.4901
	16.89062	48.4902
	16.89045	48.49038
	16.89028	48.4906
	16.89013	48.49087
	16.89002	48.49112
	16.88994	48.49148
	16.88995	48.49173
	16.89003	48.49197
	16.89008	48.49207
	16.89041	48.49255
	16.89054	48.49267
	16.8906	48.4927
	16.89083	48.49287
	16.89184	48.4935
	16.89293	48.49423
	16.89385	48.49482
	16.89488	48.49565
	16.89571	48.49616
	16.89564	48.49647
	16.89759	48.49757
	16.89803	48.49749
	16.90034	48.4981
	16.90146	48.49834
	16.90232	48.49843
	16.90307	48.49847
	16.90412	48.49849
	16.90488	48.49847
	16.90562	48.49843
	16.90622	48.49834
	16.90661	48.49823
	16.90678	48.49817
	16.90706	48.49803
	16.90736	48.49783
	16.90748	48.49774
	16.90762	48.49759
	16.90776	48.49738
	16.90826	48.4965
	16.90869	48.49594
	16.90893	48.49572
	16.90916	48.49554
	16.90942	48.49537
	16.9097	48.49521
	16.91004	48.49506
	16.91074	48.49481
	16.91134	48.49463
	16.91218	48.49445
	16.91261	48.49437
	16.91332	48.49433
	16.91382	48.49433
	16.91403	48.49435
	16.91459	48.49443
	16.91497	48.49451
	16.91534	48.49462
	16.91572	48.49475
	16.91626	48.49499
	16.91658	48.49516
	16.91686	48.49535
	16.91717	48.49566
	16.9173	48.49585
	16.91744	48.49616
	16.91751	48.49644
	16.91751	48.49671
	16.91746	48.497
	16.91737	48.49727
	16.91723	48.49754
	16.91707	48.49778
	16.91669	48.49817
	16.91634	48.49847
	16.91536	48.49918
	16.91506	48.49938
	16.9149	48.4995
	16.9146	48.49977
	16.91433	48.50006
	16.91411	48.50038
	16.91398	48.50065
	16.91391	48.50092
	16.91389	48.5012
	16.91392	48.50146
	16.91403	48.50177
	16.91415	48.50204
	16.91435	48.5026
	16.91442	48.50311
	16.9144	48.50339
	16.91428	48.50394
	16.91407	48.50448
	16.91349	48.5056
	16.91311	48.50669
	16.91302	48.50707
	16.91298	48.50757
	16.91309	48.50834
	16.91311	48.50863
	16.91309	48.50891
	16.91305	48.50903
	16.91302	48.50929
	16.91301	48.50962
	16.91305	48.50998
	16.9131	48.51026
	16.91321	48.51059
	16.91349	48.51122
	16.91372	48.51167
	16.91391	48.51195
	16.91413	48.51221
	16.91442	48.51248
	16.91485	48.51274
	16.9152	48.51286
	16.91571	48.51298
	16.91606	48.51302
	16.91657	48.51302
	16.91718	48.51297
	16.91937	48.51261
	16.91968	48.51259
	16.92013	48.51259
	16.92043	48.51262
	16.92079	48.51269
	16.92098	48.51275
	16.92133	48.51289
	16.92165	48.51305
	16.92192	48.51323
	16.92215	48.51343
	16.92224	48.51353
	16.9224	48.51377
	16.92251	48.51402
	16.92255	48.51426
	16.92255	48.5144
	16.92245	48.51467
	16.92228	48.51494
	16.92209	48.51518
	16.92184	48.51545
	16.92073	48.51642
	16.92026	48.5169
	16.92009	48.51713
	16.91983	48.51756
	16.91972	48.51785
	16.91965	48.51821
	16.91964	48.5184
	16.91966	48.51853
	16.91974	48.5188
	16.91986	48.51906
	16.92001	48.51928
	16.92012	48.5194
	16.92039	48.51964
	16.92068	48.51983
	16.92097	48.52
	16.92127	48.52012
	16.92157	48.52021
	16.92191	48.52028
	16.92213	48.52031
	16.92296	48.52034
	16.92415	48.52034
	16.92807	48.52031
	16.92892	48.52032
	16.92972	48.52036
	16.93074	48.52047
	16.9313	48.52055
	16.93203	48.52068
	16.93264	48.52082
	16.93393	48.52117
	16.93455	48.52132
	16.93531	48.52142
	16.93571	48.52142
	16.93625	48.52139
	16.93693	48.52126
	16.93755	48.52108
	16.93836	48.52089
	16.9392	48.52077
	16.93961	48.52073
	16.94	48.52071
	16.94056	48.52072
	16.94098	48.52075
	16.94154	48.52085
	16.94182	48.52094
	16.94202	48.52103
	16.94261	48.52138
	16.94296	48.52135
	16.94332	48.52156
	16.94355	48.52171
	16.94367	48.52212
	16.94377	48.52224
	16.94388	48.52245
	16.94391	48.52264
	16.9439	48.52278
	16.94381	48.523
	16.94363	48.52322
	16.94318	48.52359
	16.94139	48.52467
	16.94085	48.52512
	16.94053	48.52548
	16.94037	48.52574
	16.94027	48.52599
	16.94024	48.52613
	16.94023	48.52638
	16.94025	48.52667
	16.94031	48.52694
	16.94044	48.52723
	16.9408	48.52784
	16.94116	48.52838
	16.94159	48.52895
	16.94202	48.52946
	16.94255	48.52992
	16.94267	48.53001
	16.94554	48.53183
	16.94645	48.53231
	16.94684	48.53249
	16.94786	48.5329
	16.94818	48.53306
	16.94834	48.53316
	16.94855	48.53332
	16.9489	48.53361
	16.9491	48.53389
	16.94927	48.53417
	16.9495	48.53469
	16.94978	48.5358
	16.95088	48.53604
	16.95148	48.53623
	16.95225	48.53645
	16.953	48.53665
	16.95468	48.53704
	16.95772	48.53772
	16.95839	48.53788
	16.95894	48.53799
	16.9601	48.53815
	16.96043	48.53815
	16.96115	48.53797
	16.96146	48.53792
	16.96358	48.5378
	16.96476	48.5377
	16.96545	48.53766
	16.96857	48.5376
	16.97086	48.53766
	16.97089	48.53765
	16.97082	48.53808
	16.97019	48.53945
	16.96937	48.54107
	16.96855	48.54254
	16.96813	48.54334
	16.96796	48.54373
	16.96783	48.54409
	16.96772	48.54451
	16.96734	48.54551
	16.96686	48.54615
	16.96658	48.54722
	16.96738	48.54736
	16.96774	48.54736
	16.96806	48.54731
	16.96821	48.54736
	16.97002	48.54736
	16.97021	48.54735
	16.97038	48.54736
	16.97587	48.54736
	16.97549	48.54731
	16.97792	48.54737
	16.97837	48.54747
	16.97878	48.54761
	16.97902	48.54777
	16.98011	48.54865
	16.98062	48.5491
	16.98066	48.54915
	16.98071	48.54918
	16.98115	48.54958
	16.98146	48.54984
	16.98152	48.54991
	16.9818	48.55015
	16.98298	48.55154
	16.98353	48.55157
	16.99026	48.55204
	17.00075	48.55275
	17.00254	48.55282
	17.00426	48.55292
	17.00974	48.55316
	17.00997	48.55318
	17.01018	48.55318
	17.01062	48.55321
	17.01227	48.55328
	17.01359	48.55336
	17.01376	48.55336
	17.01471	48.55342
	17.01543	48.55345
	17.01603	48.55349
	17.01651	48.55351
	17.01873	48.55368
	17.01886	48.55368
	17.01889	48.55369
	17.02019	48.55376
	17.02036	48.55378
	17.02148	48.55384
	17.02182	48.55387
	17.02199	48.55387
	17.02216	48.55389
	17.0236	48.55397
	17.0251	48.55407
	17.02524	48.55407
	17.02545	48.55409
	17.0264	48.55414
	17.02659	48.55416
	17.02912	48.55432
	17.03803	48.55573
	17.04241	48.55557
	17.04512	48.55546
	17.04647	48.55542
	17.04699	48.55539
	17.04952	48.5553
	17.05073	48.55525
	17.05078	48.55524
	17.05084	48.55521
	17.04954	48.55388
	17.04962	48.55384
	17.0509	48.55407
	17.05106	48.55411
	17.05668	48.55516
	17.05654	48.55544
	17.05643	48.55609
	17.0563	48.55661
	17.05439	48.55817
	17.05412	48.56099
	17.05485	48.56106
	17.05231	48.56382
	17.05346	48.56372
	17.05692	48.56345
	17.05732	48.56341
	17.05756	48.5634
	17.05759	48.56339
	17.05781	48.56338
	17.05962	48.56323
	17.06086	48.56314
	17.06114	48.56311
	17.06149	48.56309
	17.06164	48.56305
	17.06609	48.56221
	17.06788	48.56186
	17.06808	48.56183
	17.0698	48.56149
	17.07125	48.56123
	17.07128	48.56148
	17.07131	48.56158
	17.07324	48.56123
	17.07449	48.5608
	17.07682	48.5605
	17.07859	48.56011
	17.07948	48.55994
	17.07981	48.55991
	17.08042	48.55996
	17.08065	48.56012
	17.08102	48.5603
	17.08144	48.56028
	17.0824	48.56014
	17.08309	48.55988
	17.0841	48.55991
	17.08443	48.55987
	17.08515	48.55995
	17.08584	48.55976
	17.08716	48.55942
	17.08795	48.5592
	17.09081	48.55845
	17.09477	48.55906
	17.09516	48.55913
	17.09593	48.55965
	17.09591	48.55969
	17.09603	48.55983
	17.09625	48.55996
	17.09641	48.56003
	17.09719	48.56025
	17.09724	48.56018
	17.09796	48.56039
	17.09881	48.5606
	17.09898	48.56063
	17.09927	48.56073
	17.09915	48.56128
	17.09881	48.56123
	17.09876	48.56103
	17.09814	48.56118
	17.09767	48.56119
	17.09759	48.56176
	17.09748	48.56177
	17.09736	48.56224
	17.09755	48.56221
	17.09789	48.56222
	17.09831	48.56214
	17.09868	48.5619
	17.09894	48.56188
	17.09945	48.56191
	17.09962	48.56195
	17.10007	48.56203
	17.10001	48.56242
	17.10041	48.56243
	17.10064	48.56239
	17.10084	48.56237
	17.10108	48.56236
	17.10128	48.56237
	17.10173	48.5623
	17.10205	48.56228
	17.10202	48.56253
	17.1017	48.56253
	17.10165	48.56278
	17.10266	48.56279
	17.10277	48.56318
	17.1033	48.5632
	17.10359	48.56327
	17.10377	48.56335
	17.10379	48.56339
	17.10538	48.56302
	17.10618	48.56283
	17.10643	48.56265
	17.10718	48.56195
	17.10756	48.56144
	17.10778	48.56122
	17.10829	48.56094
	17.10897	48.56052
	17.11019	48.55999
	17.11097	48.55956
	17.11155	48.55934
	17.11312	48.55888
	17.1141	48.55854
	17.11504	48.55796
	17.11525	48.55777
	17.11549	48.5574
	17.11567	48.55705
	17.11593	48.55672
	17.11604	48.55661
	17.11681	48.55605
	17.11745	48.55566
	17.1178	48.55541
	17.118	48.55524
	17.11807	48.55506
	17.11838	48.55463
	17.11722	48.554
	17.11923	48.5522
	17.11967	48.5524
	17.11993	48.55195
	17.12034	48.55154
	17.12074	48.55124
	17.12136	48.55096
	17.12175	48.55073
	17.12206	48.55051
	17.12217	48.55041
	17.12059	48.54982
	17.12524	48.54678
	17.12526	48.54673
	17.12643	48.54691
	17.12774	48.54703
	17.13052	48.5475
	17.13134	48.54769
	17.13212	48.54792
	17.13265	48.54814
	17.1329	48.54822
	17.13361	48.54841
	17.13421	48.54854
	17.1362	48.54877
	17.13718	48.54897
	17.13796	48.54915
	17.13947	48.54936
	17.14032	48.54942
	17.14178	48.5495
	17.14231	48.54952
	17.14366	48.54946
	17.14404	48.54951
	17.14477	48.54965
	17.14513	48.54978
	17.14581	48.55024
	17.14652	48.55058
	17.14752	48.55103
	17.14797	48.55115
	17.14839	48.55134
	17.14954	48.55155
	17.15007	48.5516
	17.15114	48.55174
	17.15353	48.55201
	17.15448	48.55194
	17.15507	48.55185
	17.15551	48.55171
	17.15626	48.55136
	17.15647	48.55131
	17.15667	48.5513
	17.15689	48.55134
	17.15702	48.55138
	17.15815	48.552
	17.15873	48.55215
	17.16017	48.55268
	17.1628	48.55336
	17.16367	48.55356
	17.16403	48.55368
	17.16549	48.55421
	17.16649	48.55463
	17.16675	48.55477
	17.16729	48.55514
	17.16757	48.55536
	17.16811	48.55586
	17.16835	48.5561
	17.16851	48.55623
	17.16912	48.55657
	17.17035	48.55704
	17.1715	48.55728
	17.17294	48.55732
	17.17406	48.55728
	17.17448	48.55728
	17.17513	48.55734
	17.17617	48.5575
	17.1768	48.55752
	17.17874	48.55768
	17.17933	48.55774
	17.1818	48.5583
	17.18388	48.55895
	17.18397	48.55896
	17.18412	48.5585
	17.18466	48.55853
	17.18492	48.55851
	17.18486	48.55873
	17.18503	48.55876
	17.18477	48.55905
	17.18496	48.55906
	17.18802	48.5594
	17.1881	48.5594
	17.18965	48.55957
	17.19083	48.55974
	17.19148	48.55987
	17.19237	48.5601
	17.19402	48.56055
	17.19592	48.56074
	17.19661	48.56085
	17.19696	48.56103
	17.19799	48.56181
	17.19857	48.56229
	17.19926	48.56279
	17.19985	48.5631
	17.20038	48.56344
	17.20072	48.56368
	17.20117	48.56392
	17.20162	48.56412
	17.2018	48.56422
	17.20239	48.5646
	17.20274	48.56401
	17.20285	48.56387
	17.20302	48.56372
	17.20314	48.56364
	17.20329	48.56356
	17.20358	48.56345
	17.20369	48.56338
	17.20377	48.56331
	17.2039	48.56319
	17.20406	48.56299
	17.20414	48.56283
	17.20413	48.5628
	17.20417	48.56274
	17.2043	48.56257
	17.20441	48.56248
	17.20459	48.56239
	17.20504	48.56226
	17.20548	48.56223
	17.20639	48.56331
	17.20612	48.5634
	17.20619	48.56367
	17.20556	48.5639
	17.20558	48.56392
	17.2056	48.56392
	17.2062	48.56369
	17.20625	48.56373
	17.20646	48.56396
	17.20642	48.5647
	17.20681	48.56507
	17.20686	48.56506
	17.20709	48.56491
	17.2073	48.56488
	17.20764	48.56486
	17.20805	48.56479
	17.20944	48.5652
	17.20948	48.5652
	17.21008	48.56532
	17.21151	48.56558
	17.21312	48.56589
	17.21333	48.56594
	17.21335	48.5658
	17.2134	48.5658
	17.214	48.56602
	17.21472	48.56608
	17.21613	48.56629
	17.21609	48.56644
	17.21608	48.56672
	17.21605	48.56693
	17.21607	48.56703
	17.2167	48.56696
	17.21681	48.56642
	17.21731	48.56646
	17.218	48.56663
	17.21864	48.56667
	17.22041	48.5675
	17.22073	48.56812
	17.2209	48.56838
	17.22117	48.56835
	17.22173	48.56831
	17.22287	48.56819
	17.22376	48.56816
	17.22438	48.56847
	17.22549	48.56838
	17.22551	48.56837
	17.22587	48.56833
	17.22688	48.5683
	17.22825	48.56822
	17.22842	48.56819
	17.22959	48.5678
	17.23016	48.56774
	17.2335	48.5675
	17.23579	48.56741
	17.23578	48.56863
	17.23575	48.56865
	17.23377	48.56941
	17.23389	48.56963
	17.23378	48.56961
	17.23424	48.57027
	17.23378	48.57044
	17.23413	48.57185
	17.2348	48.5748
	17.23498	48.57495
	17.23524	48.57525
	17.2349	48.57758
	17.23449	48.58076
	17.23584	48.58078
	17.23835	48.58099
	17.24078	48.58187
	17.2438	48.58306
	17.24394	48.5831
	17.24417	48.58285
	17.24415	48.58309
	17.24419	48.58333
	17.2444	48.58353
	17.24605	48.58395
	17.24718	48.58421
	17.24808	48.5844
	17.24995	48.58485
	17.25123	48.58513
	17.25184	48.5853
	17.25252	48.58556
	17.25428	48.58602
	17.25507	48.58644
	17.25533	48.58653
	17.25553	48.58658
	17.25566	48.5866
	17.25599	48.58662
	17.25724	48.58663
	17.2582	48.58662
	17.2582	48.58667
	17.25825	48.58668
	17.25827	48.58722
	17.25817	48.58749
	17.26289	48.58876
	17.26287	48.5888
	17.2631	48.58886
	17.26314	48.58882
	17.26574	48.5895
	17.26564	48.59019
	17.26573	48.59019
	17.26572	48.5904
	17.26574	48.59048
	17.2658	48.59058
	17.26589	48.59068
	17.26622	48.59099
	17.26644	48.59138
	17.26683	48.59226
	17.26692	48.59251
	17.2669	48.59252
	17.26776	48.5944
	17.26829	48.59518
	17.26834	48.59546
	17.2683	48.59604
	17.26764	48.59664
	17.26755	48.59688
	17.26759	48.59847
	17.26767	48.59891
	17.26774	48.59907
	17.26796	48.59939
	17.2684	48.59979
	17.26886	48.60013
	17.26947	48.60048
	17.2702	48.60079
	17.27217	48.6021
	17.27246	48.60227
	17.273	48.60263
	17.27326	48.60274
	17.27388	48.60312
	17.27457	48.60351
	17.27486	48.60374
	17.27572	48.60403
	17.27665	48.60428
	17.27818	48.605
	17.27882	48.60538
	17.2801	48.6064
	17.28066	48.60678
	17.28126	48.60713
	17.28245	48.60847
	17.28447	48.6082
	17.28571	48.60807
	17.28812	48.60828
	17.28961	48.60828
	17.2909	48.60824
	17.29193	48.60819
	17.29271	48.60814
	17.29414	48.60803
	17.29545	48.60771
	17.29614	48.60744
	17.29617	48.60744
	17.29612	48.60749
	17.29615	48.6075
	17.29615	48.60757
	17.29551	48.60778
	17.29527	48.60784
	17.29664	48.60983
	17.29768	48.61131
	17.29851	48.61254
	17.30364	48.61981
	17.30383	48.62011
	17.30424	48.62069
	17.30598	48.62325
	17.31315	48.6337
	17.31631	48.63815
	17.31824	48.6409
	17.32105	48.64483
	17.32304	48.64767
	17.32501	48.65038
	17.32549	48.65107
	17.32763	48.65403
	17.33851	48.65092
	17.33786	48.64959
	17.33752	48.64927
	17.33736	48.64916
	17.33679	48.64872
	17.33674	48.6488
	17.3366	48.64879
	17.3366	48.64893
	17.33648	48.64896
	17.33657	48.6492
	17.33602	48.64927
	17.336	48.64903
	17.3359	48.64923
	17.33571	48.64928
	17.3351	48.64925
	17.33533	48.64863
	17.33535	48.64845
	17.33505	48.64839
	17.33508	48.64813
	17.3361	48.64809
	17.33633	48.64819
	17.33654	48.64848
	17.3374	48.64915
	17.33757	48.64926
	17.33785	48.64956
	17.33756	48.64899
	17.33738	48.64859
	17.33741	48.64857
	17.33929	48.6476
	17.3398	48.64735
	17.34588	48.64421
	17.34824	48.64617
	17.34882	48.64637
	17.3498	48.6466
	17.35104	48.64691
	17.35105	48.64698
	17.35125	48.64732
	17.3515	48.64712
	17.35157	48.64692
	17.35197	48.64673
	17.35242	48.64692
	17.35265	48.64677
	17.35283	48.64668
	17.35344	48.64643
	17.35359	48.64635
	17.35369	48.64621
	17.35373	48.64619
	17.3538	48.64612
	17.35407	48.6457
	17.35456	48.64551
	17.35463	48.64547
	17.35531	48.6454
	17.35541	48.64534
	17.35557	48.64519
	17.3556	48.64508
	17.35565	48.64472
	17.35589	48.64456
	17.35619	48.64433
	17.35632	48.64413
	17.35653	48.64395
	17.3572	48.64348
	17.35739	48.64301
	17.35758	48.64285
	17.35819	48.64288
	17.35835	48.6428
	17.35863	48.64277
	17.35873	48.64266
	17.35878	48.64258
	17.35889	48.64227
	17.35865	48.64204
	17.3585	48.64173
	17.35844	48.64164
	17.35858	48.64146
	17.35905	48.64124
	17.35907	48.64115
	17.3592	48.64104
	17.35942	48.64091
	17.35958	48.64076
	17.35977	48.64036
	17.36004	48.63972
	17.36058	48.63964
	17.36094	48.63953
	17.361	48.63943
	17.36112	48.63928
	17.36102	48.63922
	17.36114	48.63873
	17.36183	48.63747
	17.36185	48.63656
	17.36221	48.63632
	17.36243	48.63614
	17.36279	48.63583
	17.36316	48.63547
	17.36338	48.63532
	17.36365	48.63511
	17.36403	48.63476
	17.36409	48.63469
	17.36436	48.63455
	17.36466	48.63429
	17.36479	48.63422
	17.36567	48.63367
	17.36572	48.63365
	17.36681	48.63289
	17.36737	48.63269
	17.36794	48.63281
	17.36824	48.63276
	17.36857	48.63258
	17.3687	48.63253
	17.3689	48.63248
	17.36912	48.63235
	17.36934	48.63216
	17.36975	48.63136
	17.37033	48.6295
	17.37057	48.62926
	17.37105	48.62909
	17.37101	48.62873
	17.37095	48.62865
	17.37119	48.62863
	17.37122	48.62853
	17.37137	48.62851
	17.37141	48.62826
	17.37134	48.62812
	17.37142	48.62778
	17.37137	48.62783
	17.37168	48.62743
	17.37209	48.62704
	17.37231	48.6267
	17.37267	48.62609
	17.37332	48.62479
	17.37351	48.62444
	17.3738	48.62384
	17.37404	48.62347
	17.374	48.6224
	17.37395	48.62155
	17.37398	48.62137
	17.37385	48.62069
	17.37392	48.61996
	17.37418	48.61915
	17.37437	48.61867
	17.37529	48.61617
	17.37544	48.61567
	17.37558	48.61532
	17.37612	48.6137
	17.37613	48.61362
	17.37607	48.61343
	17.37621	48.61265
	17.37625	48.61221
	17.37661	48.61204
	17.37624	48.61201
	17.37605	48.6108
	17.37588	48.60952
	17.3758	48.60857
	17.37573	48.60745
	17.37463	48.60595
	17.37426	48.60557
	17.37191	48.60339
	17.37143	48.60291
	17.37133	48.60284
	17.37045	48.60231
	17.36975	48.60187
	17.3694	48.60167
	17.36891	48.60137
	17.36891	48.60136
	17.36861	48.60119
	17.36855	48.60114
	17.36775	48.60066
	17.36769	48.60061
	17.36615	48.59968
	17.36437	48.59857
	17.36194	48.59709
	17.36147	48.59679
	17.36124	48.59666
	17.36121	48.59663
	17.36112	48.59659
	17.36065	48.59629
	17.36021	48.59657
	17.35914	48.59574
	17.35907	48.59575
	17.35821	48.59567
	17.35787	48.59541
	17.35766	48.59519
	17.35763	48.59509
	17.35727	48.5948
	17.357	48.59479
	17.35641	48.59505
	17.35602	48.5946
	17.35603	48.59415
	17.35994	48.59163
	17.35672	48.59065
	17.35531	48.59177
	17.35577	48.59203
	17.35586	48.59205
	17.35597	48.59212
	17.35549	48.59249
	17.35516	48.59231
	17.35494	48.59206
	17.35487	48.59211
	17.35469	48.59183
	17.35273	48.59049
	17.34932	48.58812
	17.34823	48.58738
	17.34761	48.58694
	17.34733	48.58658
	17.34612	48.58472
	17.34544	48.58414
	17.34486	48.58367
	17.34468	48.58351
	17.34464	48.58349
	17.3442	48.58285
	17.34256	48.5807
	17.34147	48.57983
	17.34105	48.57944
	17.34067	48.57922
	17.33976	48.57995
	17.33702	48.57766
	17.33426	48.57593
	17.33151	48.57569
	17.32907	48.57538
	17.32877	48.57599
	17.32875	48.57627
	17.32839	48.57661
	17.32814	48.57668
	17.32762	48.57703
	17.32736	48.57702
	17.32719	48.57722
	17.32714	48.57725
	17.32685	48.5771
	17.32667	48.57717
	17.32677	48.57736
	17.32651	48.57753
	17.32635	48.57744
	17.32607	48.57748
	17.32563	48.57764
	17.32525	48.57782
	17.32507	48.57789
	17.32477	48.57808
	17.32468	48.57798
	17.32474	48.57781
	17.32497	48.57766
	17.32578	48.57683
	17.32572	48.57673
	17.32552	48.57583
	17.32514	48.57523
	17.32513	48.57508
	17.32479	48.57452
	17.32491	48.57429
	17.32525	48.57411
	17.32543	48.57324
	17.32515	48.5734
	17.3249	48.57345
	17.32434	48.57328
	17.32439	48.57311
	17.32424	48.57291
	17.32472	48.57233
	17.32366	48.57156
	17.32355	48.57091
	17.32354	48.57042
	17.32366	48.569
	17.32396	48.56858
	17.32392	48.56856
	17.32366	48.5685
	17.32347	48.56851
	17.32314	48.56858
	17.3229	48.5686
	17.32271	48.56857
	17.32246	48.56838
	17.32218	48.56834
	17.32204	48.56835
	17.32174	48.56832
	17.32155	48.56835
	17.32153	48.56828
	17.32134	48.56819
	17.32131	48.56813
	17.32119	48.56808
	17.32047	48.56797
	17.32024	48.56799
	17.32012	48.56797
	17.32013	48.56789
	17.31998	48.56786
	17.3199	48.56782
	17.31988	48.5677
	17.31995	48.56763
	17.31997	48.56759
	17.31993	48.56739
	17.31998	48.56721
	17.32004	48.56713
	17.32005	48.56707
	17.32002	48.56704
	17.32	48.56688
	17.31991	48.56667
	17.31973	48.56658
	17.31972	48.56651
	17.31979	48.56637
	17.31976	48.56629
	17.31962	48.56613
	17.31965	48.56593
	17.31973	48.56585
	17.31988	48.56577
	17.31986	48.56564
	17.31976	48.56529
	17.31982	48.56512
	17.31974	48.56489
	17.31984	48.56478
	17.31986	48.56468
	17.31985	48.56457
	17.31991	48.56449
	17.3199	48.56428
	17.31984	48.56414
	17.31969	48.56403
	17.31969	48.56389
	17.31905	48.56381
	17.31898	48.56352
	17.31851	48.56305
	17.31845	48.56301
	17.31849	48.56292
	17.31915	48.56297
	17.31894	48.56246
	17.3184	48.56193
	17.31836	48.56184
	17.31752	48.56151
	17.31726	48.56136
	17.31707	48.56119
	17.3168	48.56107
	17.31641	48.56106
	17.31622	48.56101
	17.316	48.56086
	17.31587	48.56073
	17.31535	48.56056
	17.31486	48.56029
	17.31398	48.56006
	17.31361	48.55999
	17.31335	48.56
	17.31326	48.55994
	17.31313	48.55989
	17.31297	48.55987
	17.3127	48.5598
	17.31255	48.55972
	17.31241	48.55967
	17.31204	48.55962
	17.31168	48.55962
	17.31133	48.55956
	17.31116	48.56003
	17.31102	48.56009
	17.31041	48.55996
	17.30985	48.55975
	17.31007	48.55964
	17.31022	48.55955
	17.31027	48.55919
	17.30979	48.55908
	17.30974	48.55906
	17.30945	48.55902
	17.30908	48.55891
	17.30866	48.55883
	17.3085	48.55881
	17.30827	48.55856
	17.30824	48.55855
	17.30588	48.55806
	17.30552	48.558
	17.30526	48.55794
	17.30496	48.55789
	17.30417	48.55773
	17.304	48.55782
	17.304	48.55781
	17.30047	48.55582
	17.29484	48.5527
	17.29254	48.55143
	17.29209	48.5512
	17.28736	48.54863
	17.28657	48.54825
	17.28592	48.54805
	17.28698	48.54742
	17.2796	48.54355
	17.27489	48.54104
	17.27195	48.53864
	17.27204	48.53861
	17.27496	48.541
	17.27968	48.54351
	17.28867	48.53852
	17.30044	48.53635
	17.30874	48.53176
	17.30992	48.53228
	17.31331	48.52497
	17.31328	48.52496
	17.3135	48.52482
	17.31352	48.52462
	17.3135	48.52443
	17.31357	48.52425
	17.31367	48.52412
	17.3137	48.52404
	17.31371	48.5236
	17.31363	48.52317
	17.31379	48.523
	17.31383	48.52293
	17.31383	48.52287
	17.31372	48.52275
	17.31514	48.52183
	17.31936	48.51998
	17.3224	48.51826
	17.32241	48.51806
	17.32249	48.51791
	17.32311	48.51753
	17.32394	48.51731
	17.32407	48.51741
	17.32621	48.51468
	17.32647	48.51468
	17.32684	48.51479
	17.32719	48.51488
	17.32727	48.51487
	17.3274	48.51497
	17.32759	48.51506
	17.32784	48.51513
	17.32799	48.51522
	17.32824	48.51534
	17.32838	48.51544
	17.32844	48.51553
	17.32853	48.51553
	17.32873	48.51547
	17.32894	48.51535
	17.32904	48.51539
	17.32914	48.51548
	17.32915	48.51554
	17.32928	48.51566
	17.32935	48.51568
	17.3295	48.51579
	17.32961	48.51579
	17.33004	48.51572
	17.33049	48.51561
	17.3307	48.5155
	17.33089	48.51566
	17.3315	48.51569
	17.33169	48.51572
	17.33199	48.51574
	17.33223	48.51588
	17.33263	48.51584
	17.33277	48.51586
	17.33316	48.5157
	17.33331	48.5157
	17.3335	48.51573
	17.33361	48.51577
	17.33421	48.51565
	17.33445	48.51581
	17.33509	48.51568
	17.33573	48.51528
	17.33597	48.51533
	17.33643	48.51529
	17.33659	48.51514
	17.3367	48.51513
	17.33696	48.51476
	17.33751	48.5146
	17.33818	48.51418
	17.33843	48.51407
	17.33878	48.51402
	17.33426	48.51237
	17.33484	48.51183
	17.33507	48.51178
	17.33516	48.51188
	17.33529	48.5119
	17.33582	48.51139
	17.33648	48.51132
	17.33661	48.51124
	17.33719	48.51102
	17.33777	48.51078
	17.33822	48.51064
	17.33858	48.51066
	17.33905	48.51051
	17.33972	48.51009
	17.33988	48.51003
	17.34006	48.50976
	17.34036	48.50924
	17.34091	48.50897
	17.34129	48.50885
	17.34154	48.50873
	17.34191	48.50864
	17.34315	48.50847
	17.34376	48.50852
	17.34412	48.50852
	17.34516	48.5089
	17.34552	48.50888
	17.3461	48.5078
	17.34628	48.50781
	17.34662	48.50771
	17.3483	48.5074
	17.34871	48.5073
	17.3495	48.50721
	17.34984	48.50715
	17.35007	48.50718
	17.3504	48.50713
	17.35087	48.50712
	17.35121	48.50717
	17.35154	48.50717
	17.35194	48.50719
	17.3531	48.50715
	17.35342	48.50703
	17.35414	48.50688
	17.3546	48.50673
	17.35483	48.50664
	17.35505	48.50659
	17.35352	48.50542
	17.35333	48.50525
	17.35235	48.50446
	17.35178	48.50402
	17.35039	48.50303
	17.34898	48.50189
	17.348	48.50134
	17.34699	48.50109
	17.34608	48.50082
	17.34578	48.50076
	17.34562	48.50076
	17.34518	48.50066
	17.34447	48.50034
	17.34453	48.50013
	17.34394	48.4998
	17.34338	48.49956
	17.3425	48.49926
	17.34195	48.49923
	17.3414	48.49895
	17.34068	48.4987
	17.34027	48.49852
	17.34004	48.49852
	17.33891	48.4982
	17.33861	48.49816
	17.3381	48.49798
	17.33732	48.49795
	17.33661	48.49769
	17.33647	48.4975
	17.33598	48.49672
	17.33593	48.49643
	17.33641	48.49549
	17.3374	48.49474
	17.33787	48.49457
	17.33829	48.49448
	17.33875	48.49445
	17.33888	48.4944
	17.33954	48.49394
	17.33997	48.49374
	17.34059	48.49359
	17.34135	48.49331
	17.34155	48.4931
	17.34187	48.49252
	17.34207	48.49229
	17.34202	48.49204
	17.34194	48.49177
	17.34187	48.49168
	17.34147	48.49142
	17.34134	48.49117
	17.3412	48.4911
	17.33997	48.49111
	17.33934	48.49108
	17.33854	48.49096
	17.33795	48.4907
	17.33731	48.49024
	17.33723	48.49011
	17.33747	48.48921
	17.33764	48.48897
	17.33775	48.48828
	17.33767	48.48806
	17.33764	48.48806
	17.33682	48.48779
	17.33621	48.48731
	17.33608	48.48709
	17.3351	48.48705
	17.33469	48.4871
	17.33441	48.48692
	17.33414	48.48643
	17.33403	48.48583
	17.33442	48.48519
	17.33548	48.48486
	17.33562	48.48473
	17.33556	48.48439
	17.33578	48.48328
	17.33545	48.4826
	17.33399	48.48314
	17.33339	48.48334
	17.33239	48.48357
	17.33108	48.48402
	17.3302	48.48356
	17.32997	48.48289
	17.32976	48.48254
	17.32979	48.4825
	17.32974	48.48193
	17.32965	48.48174
	17.32946	48.48154
	17.32943	48.48134
	17.32973	48.48108
	17.3298	48.48058
	17.32889	48.48024
	17.3287	48.48029
	17.32833	48.48035
	17.32815	48.4804
	17.32775	48.48058
	17.32748	48.48074
	17.32707	48.48093
	17.32679	48.48091
	17.32631	48.48091
	17.32559	48.48087
	17.32539	48.48094
	17.32497	48.48105
	17.32434	48.48105
	17.32405	48.48091
	17.3232	48.48036
	17.32295	48.48025
	17.32272	48.48018
	17.32224	48.48011
	17.32203	48.4801
	17.32203	48.48008
	17.32183	48.48009
	17.32125	48.48006
	17.32076	48.48009
	17.32055	48.48013
	17.32022	48.48015
	17.31962	48.48052
	17.31919	48.48084
	17.31869	48.48119
	17.31837	48.48128
	17.318	48.48128
	17.31743	48.48126
	17.31715	48.48121
	17.31663	48.48121
	17.31585	48.48117
	17.31515	48.48112
	17.31467	48.48111
	17.31413	48.48108
	17.31403	48.48079
	17.31408	48.48064
	17.31399	48.48032
	17.31398	48.48005
	17.31389	48.47933
	17.31391	48.47874
	17.31437	48.47782
	17.31437	48.47759
	17.31448	48.47708
	17.3133	48.47589
	17.31311	48.47532
	17.31261	48.4748
	17.31229	48.47464
	17.31169	48.4743
	17.31138	48.47355
	17.31105	48.47331
	17.3102	48.47288
	17.3097	48.47257
	17.30914	48.47189
	17.30834	48.47121
	17.30756	48.47058
	17.30605	48.46929
	17.30525	48.4686
	17.30338	48.46694
	17.30218	48.46594
	17.30278	48.46542
	17.30292	48.46523
	17.30334	48.4648
	17.30378	48.46438
	17.30409	48.4639
	17.30394	48.46336
	17.30472	48.46277
	17.30558	48.46218
	17.30914	48.45968
	17.31009	48.45899
	17.31094	48.45835
	17.31365	48.45645
	17.31431	48.45597
	17.31453	48.45591
	17.31498	48.45567
	17.31499	48.45569
	17.315	48.45568
	17.31516	48.45565
	17.31546	48.45537
	17.31564	48.45532
	17.31574	48.45522
	17.31597	48.45512
	17.31591	48.45498
	17.31621	48.45474
	17.31619	48.45463
	17.31632	48.45457
	17.31629	48.45439
	17.31639	48.45443
	17.31665	48.4543
	17.31697	48.45426
	17.31713	48.45402
	17.31728	48.45408
	17.31736	48.4541
	17.31742	48.45409
	17.3177	48.45391
	17.31769	48.45383
	17.31759	48.45383
	17.31759	48.45377
	17.31767	48.45367
	17.31765	48.45357
	17.31751	48.45344
	17.31733	48.45347
	17.31716	48.45334
	17.31711	48.45321
	17.31696	48.4532
	17.31699	48.4529
	17.31696	48.45279
	17.31725	48.45271
	17.31724	48.45269
	17.31716	48.45267
	17.31696	48.45264
	17.31677	48.45239
	17.31657	48.45206
	17.31657	48.452
	17.31668	48.45186
	17.3169	48.45175
	17.31689	48.45153
	17.31812	48.45152
	17.31901	48.4515
	17.32136	48.45152
	17.32227	48.45151
	17.32267	48.45152
	17.32321	48.45151
	17.32403	48.45153
	17.32662	48.45154
	17.32753	48.45156
	17.32872	48.45157
	17.32913	48.45159
	17.32966	48.4516
	17.32998	48.45162
	17.33095	48.45163
	17.33278	48.45169
	17.33368	48.4517
	17.33409	48.45172
	17.33971	48.45177
	17.34057	48.45179
	17.34198	48.4518
	17.34283	48.45182
	17.34456	48.45184
	17.3465	48.45188
	17.34717	48.4515
	17.3473	48.45125
	17.3473	48.45122
	17.34717	48.45111
	17.34697	48.45091
	17.34698	48.45088
	17.34711	48.45084
	17.34713	48.45081
	17.34698	48.45075
	17.34711	48.45062
	17.34712	48.45059
	17.34711	48.45057
	17.34695	48.4505
	17.34693	48.45048
	17.34693	48.45024
	17.34738	48.44978
	17.34736	48.44969
	17.34733	48.44967
	17.3472	48.44975
	17.34713	48.44973
	17.34711	48.4497
	17.34721	48.44932
	17.34715	48.44927
	17.34717	48.44922
	17.34761	48.44875
	17.34814	48.44835
	17.34863	48.44824
	17.34898	48.44805
	17.34982	48.44766
	17.35072	48.44728
	17.35198	48.44642
	17.35228	48.44627
	17.3526	48.44625
	17.35287	48.4462
	17.35312	48.44606
	17.35333	48.44596
	17.3535	48.44585
	17.35374	48.44567
	17.35396	48.44539
	17.35423	48.44524
	17.35463	48.44512
	17.35514	48.44499
	17.35544	48.44502
	17.3556	48.445
	17.35601	48.44499
	17.35648	48.44496
	17.35697	48.44491
	17.35723	48.44491
	17.35769	48.44499
	17.35764	48.44375
	17.35836	48.44291
	17.36171	48.43919
	17.36156	48.43855
	17.36202	48.43856
	17.3646	48.43867
	17.36855	48.43877
	17.37264	48.43891
	17.37537	48.43897
	17.37715	48.43898
	17.37846	48.43917
	17.37972	48.43898
	17.38088	48.43896
	17.38229	48.43892
	17.3834	48.43892
	17.38437	48.43894
	17.38568	48.43893
	17.38845	48.43886
	17.38922	48.43885
	17.39011	48.43881
	17.39059	48.4388
	17.39217	48.43868
	17.39249	48.43864
	17.39293	48.4385
	17.39302	48.43845
	17.39357	48.43806
	17.3941	48.43763
	17.39387	48.43757
	17.39378	48.43717
	17.39325	48.43672
	17.39286	48.43636
	17.3926	48.43627
	17.39249	48.43613
	17.3925	48.43601
	17.39225	48.43568
	17.39197	48.43552
	17.39143	48.43498
	17.39055	48.43417
	17.39096	48.4341
	17.39127	48.43395
	17.39209	48.43375
	17.39234	48.43355
	17.39286	48.43337
	17.39321	48.43321
	17.39388	48.43294
	17.39293	48.43227
	17.39282	48.43236
	17.39256	48.43245
	17.392	48.43254
	17.39173	48.43265
	17.39097	48.43288
	17.39066	48.43286
	17.39019	48.4322
	17.3904	48.43212
	17.38966	48.43134
	17.38934	48.43087
	17.38748	48.43052
	17.38737	48.43046
	17.38705	48.43062
	17.38687	48.43057
	17.38657	48.43056
	17.3861	48.43079
	17.38541	48.43115
	17.38497	48.4303
	17.38489	48.43018
	17.38509	48.43007
	17.38526	48.42984
	17.38561	48.4297
	17.38507	48.4293
	17.38464	48.42934
	17.38427	48.42934
	17.38394	48.42893
	17.38371	48.42893
	17.38328	48.4289
	17.38289	48.42892
	17.38224	48.42898
	17.38155	48.42922
	17.38092	48.42949
	17.38078	48.42935
	17.3805	48.42946
	17.38035	48.42934
	17.37991	48.4292
	17.37988	48.42918
	17.37998	48.42899
	17.38007	48.42895
	17.38021	48.42894
	17.38051	48.42881
	17.38065	48.42877
	17.38075	48.42863
	17.3812	48.42835
	17.3817	48.42801
	17.38185	48.42784
	17.38222	48.42766
	17.38272	48.42736
	17.38274	48.4273
	17.38288	48.4272
	17.38317	48.42711
	17.38345	48.42692
	17.38378	48.42676
	17.38416	48.4265
	17.38453	48.42634
	17.38458	48.42617
	17.38475	48.42589
	17.38494	48.42564
	17.38507	48.42543
	17.38511	48.42516
	17.38513	48.42499
	17.38509	48.42485
	17.38502	48.42479
	17.38488	48.42443
	17.38482	48.42437
	17.38483	48.42425
	17.38494	48.42417
	17.38503	48.424
	17.38523	48.42376
	17.38534	48.42371
	17.38609	48.42383
	17.38643	48.4231
	17.38658	48.42288
	17.38703	48.42232
	17.38693	48.42222
	17.38654	48.42171
	17.387	48.42126
	17.38709	48.42119
	17.3872	48.42106
	17.38734	48.42097
	17.3875	48.42084
	17.38774	48.42069
	17.38819	48.42061
	17.38886	48.42025
	17.38922	48.41999
	17.38976	48.41965
	17.3896	48.41952
	17.38961	48.41933
	17.38978	48.41921
	17.39025	48.41924
	17.39033	48.41918
	17.39052	48.41922
	17.39058	48.41911
	17.39069	48.4191
	17.39093	48.41914
	17.39111	48.41915
	17.39127	48.41908
	17.39207	48.41922
	17.39219	48.41933
	17.39254	48.41931
	17.39268	48.41933
	17.39294	48.41923
	17.39366	48.4192
	17.39405	48.41898
	17.39441	48.41894
	17.39481	48.41898
	17.39494	48.41898
	17.39515	48.41903
	17.39515	48.41908
	17.39537	48.4191
	17.39536	48.41904
	17.39554	48.41902
	17.39577	48.41903
	17.39601	48.41897
	17.39643	48.41891
	17.3968	48.4191
	17.39698	48.41891
	17.39706	48.41878
	17.39733	48.41874
	17.39751	48.41879
	17.39769	48.41882
	17.39788	48.41879
	17.39818	48.41886
	17.39843	48.41875
	17.39871	48.41869
	17.39898	48.41859
	17.39957	48.41851
	17.39996	48.41857
	17.40023	48.41866
	17.40072	48.41844
	17.40105	48.41847
	17.40135	48.4184
	17.40154	48.41837
	17.40183	48.41836
	17.40202	48.41821
	17.40217	48.41826
	17.40244	48.41822
	17.40256	48.41808
	17.40264	48.41805
	17.40272	48.4181
	17.40276	48.41817
	17.40305	48.41796
	17.40338	48.41801
	17.40373	48.41781
	17.40413	48.41763
	17.40439	48.41737
	17.40438	48.41713
	17.40416	48.41691
	17.40382	48.41661
	17.40368	48.41646
	17.40365	48.41605
	17.40408	48.41598
	17.40444	48.4158
	17.40474	48.41535
	17.40467	48.41528
	17.40489	48.41505
	17.40506	48.41471
	17.40505	48.41458
	17.40495	48.41437
	17.40487	48.41442
	17.40457	48.41359
	17.4045	48.41336
	17.40489	48.41326
	17.40476	48.4131
	17.40448	48.41315
	17.40381	48.41338
	17.4034	48.4135
	17.40332	48.41336
	17.40331	48.41327
	17.40342	48.41319
	17.40363	48.41308
	17.40371	48.41297
	17.4038	48.41289
	17.40391	48.41286
	17.40401	48.4127
	17.40398	48.41254
	17.40388	48.41243
	17.40368	48.4124
	17.40347	48.41244
	17.40329	48.41224
	17.40316	48.41228
	17.40301	48.41222
	17.40284	48.41222
	17.40262	48.41202
	17.40252	48.41197
	17.40222	48.41167
	17.40202	48.41138
	17.40175	48.41092
	17.4016	48.41072
	17.40252	48.41031
	17.4032	48.41004
	17.40294	48.40978
	17.40273	48.40965
	17.40273	48.40958
	17.40297	48.40942
	17.40368	48.40912
	17.40356	48.40904
	17.40185	48.40842
	17.4016	48.40834
	17.40101	48.4081
	17.4002	48.40773
	17.40071	48.40735
	17.40114	48.40722
	17.40033	48.40672
	17.40092	48.40623
	17.4021	48.40681
	17.40275	48.4071
	17.40334	48.40734
	17.40393	48.40756
	17.40443	48.40773
	17.40515	48.40793
	17.40585	48.40816
	17.40615	48.40829
	17.40632	48.40831
	17.40643	48.40828
	17.40656	48.40827
	17.4068	48.40819
	17.40768	48.40804
	17.40786	48.40798
	17.40796	48.40792
	17.40837	48.40778
	17.41015	48.40711
	17.41071	48.40692
	17.41194	48.40644
	17.41237	48.40631
	17.41283	48.4061
	17.41308	48.40603
	17.41363	48.40594
	17.41476	48.40566
	17.41497	48.4056
	17.41557	48.40536
	17.41588	48.40527
	17.41649	48.40516
	17.41673	48.4053
	17.417	48.40515
	17.41722	48.405
	17.41694	48.4046
	17.41691	48.40452
	17.417	48.40441
	17.41689	48.404
	17.41678	48.40373
	17.41662	48.40352
	17.41638	48.40336
	17.41601	48.40317
	17.41574	48.40299
	17.41547	48.40274
	17.41511	48.40256
	17.41501	48.40254
	17.41464	48.40242
	17.41424	48.40231
	17.41362	48.4022
	17.4134	48.40215
	17.4131	48.40204
	17.41216	48.40164
	17.41187	48.40148
	17.41155	48.40125
	17.41138	48.40107
	17.41114	48.4009
	17.41087	48.40076
	17.41061	48.40058
	17.41126	48.40024
	17.41134	48.40029
	17.41155	48.40046
	17.41176	48.40058
	17.41201	48.40078
	17.41229	48.40093
	17.41265	48.40121
	17.41318	48.40135
	17.41383	48.40155
	17.41413	48.40162
	17.41439	48.40163
	17.41462	48.40167
	17.41494	48.40166
	17.41506	48.40168
	17.41518	48.40174
	17.41541	48.40193
	17.41583	48.4014
	17.41624	48.40092
	17.41687	48.40014
	17.41732	48.39943
	17.41777	48.3985
	17.41802	48.39707
	17.41803	48.3968
	17.41802	48.3964
	17.41804	48.39603
	17.41886	48.39579
	17.41975	48.39548
	17.41871	48.3941
	17.41935	48.39387
	17.41959	48.39377
	17.42024	48.39346
	17.42106	48.39317
	17.42126	48.39308
	17.42155	48.39297
	17.42263	48.39248
	17.42283	48.39241
	17.42323	48.39224
	17.42333	48.39222
	17.42429	48.39179
	17.42443	48.39174
	17.4244	48.39149
	17.4243	48.39135
	17.42388	48.39084
	17.42307	48.38975
	17.42245	48.38899
	17.42236	48.38885
	17.4219	48.38832
	17.4214	48.38766
	17.42091	48.38706
	17.42061	48.38665
	17.42207	48.38588
	17.42322	48.38531
	17.42371	48.38508
	17.42387	48.38499
	17.42422	48.38486
	17.42457	48.3847
	17.4252	48.38444
	17.42671	48.38378
	17.42703	48.38363
	17.42841	48.38288
	17.42998	48.3817
	17.43112	48.38088
	17.43064	48.38064
	17.42874	48.37979
	17.42742	48.37925
	17.42559	48.37856
	17.42548	48.3785
	17.42607	48.37605
	17.42612	48.37576
	17.42625	48.37519
	17.42631	48.37499
	17.4267	48.37475
	17.42718	48.37442
	17.42755	48.3742
	17.4279	48.37397
	17.42809	48.37383
	17.42814	48.37376
	17.42818	48.37373
	17.42854	48.37349
	17.42886	48.37331
	17.43015	48.37273
	17.43113	48.37232
	17.43142	48.37218
	17.43214	48.37194
	17.43232	48.3719
	17.43252	48.37183
	17.43276	48.37177
	17.43341	48.37154
	17.43366	48.37147
	17.43477	48.37107
	17.435	48.371
	17.43598	48.37063
	17.43701	48.37021
	17.43722	48.37015
	17.43728	48.37009
	17.44062	48.37184
	17.44252	48.37281
	17.44292	48.37303
	17.44505	48.37414
	17.44543	48.37435
	17.44733	48.37334
	17.44773	48.37314
	17.4479	48.3733
	17.44793	48.37331
	17.44803	48.37327
	17.44843	48.37306
	17.4486	48.37295
	17.44873	48.37291
	17.44897	48.37278
	17.44908	48.37264
	17.44922	48.37255
	17.44941	48.37249
	17.44962	48.37267
	17.45082	48.37362
	17.4513	48.37395
	17.45217	48.37449
	17.4527	48.37409
	17.45314	48.37362
	17.45321	48.37357
	17.45322	48.37354
	17.45334	48.37343
	17.45358	48.37317
	17.45453	48.37227
	17.45635	48.37045
	17.45762	48.36954
	17.45774	48.36944
	17.4578	48.36941
	17.45809	48.36921
	17.45849	48.36892
	17.45885	48.36857
	17.45918	48.36828
	17.45933	48.36813
	17.45938	48.3681
	17.45945	48.36802
	17.45949	48.368
	17.45981	48.36774
	17.46049	48.36722
	17.46055	48.36714
	17.46068	48.36704
	17.46073	48.36702
	17.46108	48.36674
	17.46159	48.36629
	17.46194	48.36596
	17.46254	48.36527
	17.46262	48.3652
	17.4628	48.36498
	17.46299	48.3648
	17.46408	48.36396
	17.46421	48.36379
	17.46426	48.36375
	17.46428	48.36371
	17.46453	48.36355
	17.46457	48.36351
	17.46491	48.3633
	17.46509	48.36317
	17.46534	48.36301
	17.46546	48.36295
	17.46551	48.3629
	17.4656	48.36285
	17.46603	48.36246
	17.46616	48.36236
	17.46623	48.36228
	17.46684	48.36174
	17.46697	48.36161
	17.46862	48.36019
	17.46863	48.35998
	17.46829	48.35949
	17.46776	48.3592
	17.46766	48.35913
	17.46728	48.35892
	17.46832	48.35795
	17.46839	48.35789
	17.46863	48.35776
	17.46881	48.35768
	17.46933	48.35741
	17.46967	48.35725
	17.47096	48.3566
	17.47106	48.35656
	17.47237	48.35588
	17.47429	48.35492
	17.47466	48.35469
	17.47493	48.35448
	17.47634	48.35348
	17.47698	48.35297
	17.47752	48.35258
	17.47742	48.35243
	17.47717	48.3522
	17.47683	48.35197
	17.47654	48.35174
	17.4763	48.35151
	17.47597	48.35125
	17.47567	48.35088
	17.47519	48.3504
	17.47495	48.35003
	17.47419	48.34898
	17.47394	48.34859
	17.47365	48.34788
	17.47331	48.34681
	17.47322	48.34634
	17.47322	48.34565
	17.47329	48.34521
	17.47347	48.34465
	17.47351	48.3444
	17.47353	48.34409
	17.47343	48.34342
	17.47322	48.34165
	17.47306	48.34132
	17.47289	48.34108
	17.47268	48.34085
	17.47248	48.34057
	17.47234	48.3404
	17.47187	48.34003
	17.47139	48.33962
	17.47077	48.33927
	17.47054	48.33908
	17.46958	48.33856
	17.46889	48.33807
	17.46852	48.3377
	17.46834	48.33761
	17.46731	48.33699
	17.46672	48.33655
	17.46655	48.33633
	17.4663	48.33584
	17.46613	48.33559
	17.4658	48.33524
	17.46505	48.33429
	17.46454	48.33304
	17.46439	48.33276
	17.46414	48.33239
	17.46328	48.33129
	17.46288	48.33073
	17.46278	48.33057
	17.46269	48.33021
	17.46261	48.32961
	17.46268	48.32873
	17.46275	48.32754
	17.46272	48.32675
	17.46267	48.32639
	17.46259	48.32601
	17.46252	48.32579
	17.46243	48.32559
	17.46224	48.32528
	17.46212	48.32513
	17.46195	48.32521
	17.46174	48.32521
	17.46161	48.32536
	17.46142	48.32545
	17.4612	48.3255
	17.46101	48.32557
	17.46098	48.32556
	17.46097	48.32553
	17.46075	48.32562
	17.46058	48.32566
	17.46063	48.32589
	17.46054	48.32595
	17.46038	48.326
	17.46019	48.32601
	17.45984	48.32599
	17.45978	48.32587
	17.45962	48.3259
	17.45933	48.32599
	17.4592	48.32581
	17.45906	48.32571
	17.45888	48.32568
	17.45878	48.3257
	17.45878	48.32572
	17.4587	48.32577
	17.45872	48.32579
	17.45861	48.32587
	17.45847	48.32595
	17.45856	48.32614
	17.45793	48.32628
	17.45819	48.32687
	17.45781	48.32699
	17.45778	48.32699
	17.45772	48.32688
	17.45766	48.32699
	17.45766	48.32709
	17.4577	48.32732
	17.4576	48.3274
	17.45753	48.32742
	17.45748	48.32741
	17.45727	48.3273
	17.45717	48.32729
	17.45701	48.32722
	17.45695	48.32727
	17.45688	48.32716
	17.45652	48.32722
	17.45641	48.32702
	17.4563	48.32704
	17.45622	48.32695
	17.45609	48.32688
	17.45605	48.3268
	17.45598	48.32671
	17.45558	48.32639
	17.45526	48.32602
	17.45518	48.32605
	17.45512	48.32602
	17.45499	48.32591
	17.45498	48.32584
	17.45467	48.32538
	17.45438	48.325
	17.45371	48.32424
	17.45212	48.32254
	17.44927	48.31961
	17.44931	48.31946
	17.44945	48.3192
	17.44964	48.31898
	17.44983	48.31882
	17.45016	48.31851
	17.45076	48.31801
	17.45093	48.31785
	17.45119	48.31765
	17.45223	48.31699
	17.45268	48.31667
	17.45325	48.31624
	17.45398	48.31584
	17.45446	48.31566
	17.45545	48.31526
	17.45598	48.31502
	17.45641	48.31478
	17.45678	48.31454
	17.45733	48.31412
	17.45767	48.31384
	17.45794	48.31368
	17.45851	48.31339
	17.45869	48.31332
	17.45931	48.31303
	17.46025	48.31257
	17.45942	48.31172
	17.45906	48.31138
	17.45829	48.31055
	17.4578	48.30996
	17.4576	48.30965
	17.45789	48.30937
	17.458	48.3092
	17.45802	48.30913
	17.45813	48.30895
	17.45818	48.30884
	17.4584	48.30818
	17.45873	48.30769
	17.45899	48.30727
	17.45927	48.30664
	17.4597	48.30581
	17.45976	48.30578
	17.46179	48.30736
	17.46315	48.30861
	17.46337	48.30884
	17.46396	48.30959
	17.46474	48.31054
	17.46623	48.30996
	17.46631	48.30981
	17.4671	48.30854
	17.46894	48.3055
	17.46959	48.30447
	17.47023	48.3034
	17.47165	48.30147
	17.47165	48.30152
	17.47173	48.3014
	17.47169	48.30083
	17.47163	48.30053
	17.47171	48.30046
	17.47172	48.30048
	17.47197	48.30026
	17.47349	48.29934
	17.4738	48.29917
	17.47412	48.29897
	17.47483	48.29857
	17.47512	48.29839
	17.47641	48.29764
	17.47662	48.29753
	17.47684	48.29744
	17.47755	48.29718
	17.47817	48.29693
	17.47997	48.29604
	17.48035	48.29583
	17.48116	48.29542
	17.48196	48.29489
	17.48295	48.29426
	17.48363	48.2938
	17.48384	48.29365
	17.48458	48.29307
	17.48528	48.2926
	17.4875	48.29153
	17.4881	48.29132
	17.48933	48.29095
	17.49005	48.29069
	17.49033	48.2906
	17.49057	48.2905
	17.49168	48.29009
	17.49248	48.28985
	17.49292	48.28973
	17.49407	48.28938
	17.4933	48.28881
	17.49335	48.28878
	17.49337	48.2888
	17.49351	48.28867
	17.49395	48.2884
	17.4948	48.28795
	17.49518	48.28772
	17.49558	48.2875
	17.49574	48.28744
	17.49819	48.28967
	17.49829	48.28974
	17.49911	48.2898
	17.49991	48.28981
	17.50016	48.28979
	17.50045	48.28972
	17.50077	48.28962
	17.50161	48.28916
	17.50198	48.28893
	17.5027	48.28845
	17.50295	48.28826
	17.50326	48.28798
	17.50353	48.2877
	17.50381	48.28734
	17.50391	48.28716
	17.50418	48.28681
	17.50514	48.28584
	17.50619	48.28487
	17.51374	48.27908
	17.51365	48.27899
	17.51232	48.27793
	17.51133	48.27712
	17.51066	48.27654
	17.50987	48.2758
	17.50858	48.27465
	17.50823	48.27427
	17.50818	48.27419
	17.50799	48.27412
	17.50604	48.2723
	17.50601	48.27231
	17.50583	48.27215
	17.50504	48.2714
	17.50432	48.27069
	17.5036	48.2699
	17.50191	48.26832
	17.50095	48.26749
	17.49841	48.26519
	17.49774	48.26461
	17.49689	48.26391
	17.49491	48.26236
	17.49397	48.26158
	17.49358	48.26129
	17.49313	48.26096
	17.493	48.26096
	17.49295	48.26097
	17.49216	48.26041
	17.49155	48.26002
	17.4901	48.25901
	17.48978	48.25879
	17.48975	48.25878
	17.48901	48.25825
	17.48842	48.25778
	17.48799	48.25748
	17.48698	48.25666
	17.48625	48.25613
	17.48588	48.25584
	17.48552	48.25552
	17.48555	48.25551
	17.48501	48.25508
	17.48429	48.25442
	17.48374	48.25381
	17.48298	48.25307
	17.48271	48.25287
	17.48268	48.25288
	17.48116	48.25006
	17.48002	48.24781
	17.47887	48.24563
	17.47871	48.24541
	17.47809	48.24438
	17.47808	48.24432
	17.47841	48.24364
	17.47846	48.24346
	17.47901	48.24222
	17.47864	48.24091
	17.47775	48.23971
	17.4767	48.23863
	17.47588	48.23776
	17.47328	48.23508
	17.47516	48.23449
	17.47636	48.23413
	17.4784	48.23365
	17.4799	48.23331
	17.48099	48.23299
	17.48156	48.23276
	17.48184	48.23266
	17.48223	48.23238
	17.48308	48.232
	17.48403	48.23158
	17.48624	48.23065
	17.48656	48.23125
	17.48659	48.23128
	17.4866	48.23132
	17.48685	48.23163
	17.48707	48.23231
	17.48856	48.23196
	17.48889	48.2319
	17.49012	48.23187
	17.49035	48.23189
	17.49185	48.23187
	17.49279	48.23158
	17.49471	48.23102
	17.50043	48.22945
	17.50102	48.22928
	17.5015	48.22919
	17.50475	48.22832
	17.50561	48.22808
	17.50831	48.22741
	17.50975	48.227
	17.51065	48.22673
	17.5114	48.22656
	17.51357	48.22612
	17.51493	48.22604
	17.52056	48.22555
	17.52017	48.22463
	17.51988	48.22374
	17.5192	48.22299
	17.51808	48.22172
	17.51739	48.22103
	17.51706	48.22064
	17.51643	48.22005
	17.51515	48.21877
	17.51433	48.21798
	17.51393	48.21757
	17.51198	48.21569
	17.51077	48.21462
	17.51014	48.21408
	17.50639	48.21067
	17.50422	48.20865
	17.50278	48.20722
	17.50131	48.20583
	17.50074	48.20531
	17.50099	48.2052
	17.50134	48.20509
	17.50151	48.20502
	17.50171	48.2049
	17.50224	48.20456
	17.50233	48.20452
	17.50272	48.2041
	17.50299	48.20373
	17.50308	48.20349
	17.50336	48.20291
	17.50342	48.20274
	17.50347	48.2025
	17.50351	48.20204
	17.50351	48.20169
	17.50357	48.20148
	17.50363	48.20136
	17.50383	48.20106
	17.50407	48.20081
	17.50445	48.20054
	17.50492	48.20033
	17.50533	48.20018
	17.50605	48.20001
	17.50624	48.19999
	17.50657	48.19996
	17.50718	48.19993
	17.50857	48.1999
	17.50946	48.19977
	17.50953	48.19975
	17.51001	48.19976
	17.51078	48.1998
	17.51159	48.1998
	17.51213	48.19976
	17.51262	48.19963
	17.51277	48.19958
	17.51291	48.19949
	17.5132	48.19938
	17.51375	48.19914
	17.51396	48.19907
	17.51423	48.19902
	17.51458	48.199
	17.51478	48.199
	17.5149	48.19904
	17.51558	48.19913
	17.51616	48.19925
	17.51655	48.19935
	17.517	48.19951
	17.5175	48.19986
	17.51788	48.20019
	17.51808	48.20047
	17.5182	48.20078
	17.51841	48.20121
	17.51856	48.20208
	17.51864	48.20224
	17.51878	48.20238
	17.51903	48.20259
	17.5192	48.20268
	17.51937	48.20274
	17.51966	48.20287
	17.51989	48.20295
	17.52019	48.20303
	17.52053	48.20308
	17.52115	48.2031
	17.52159	48.20303
	17.52191	48.20296
	17.52215	48.20285
	17.52231	48.20276
	17.52262	48.20256
	17.52278	48.2023
	17.52288	48.20219
	17.52314	48.20202
	17.52364	48.20123
	17.52372	48.20063
	17.52371	48.20044
	17.52375	48.20028
	17.52375	48.20014
	17.52372	48.19999
	17.52372	48.19936
	17.52383	48.19875
	17.52418	48.19812
	17.52454	48.19766
	17.52479	48.19743
	17.52508	48.19725
	17.52529	48.19714
	17.52557	48.19705
	17.5257	48.19703
	17.52631	48.19698
	17.52666	48.19694
	17.52753	48.19693
	17.5278	48.19692
	17.52814	48.19689
	17.52844	48.19684
	17.52854	48.19681
	17.5288	48.1967
	17.5292	48.1965
	17.52897	48.19637
	17.52869	48.19636
	17.52849	48.19632
	17.52812	48.19629
	17.52801	48.19622
	17.5278	48.19615
	17.52765	48.19605
	17.52761	48.19594
	17.52758	48.19578
	17.5276	48.19554
	17.52736	48.19516
	17.52721	48.19506
	17.52703	48.19501
	17.5268	48.19498
	17.52635	48.19499
	17.52615	48.19508
	17.52597	48.19514
	17.52578	48.19515
	17.52561	48.19514
	17.52503	48.19498
	17.52492	48.19493
	17.52457	48.19471
	17.52144	48.1944
	17.52192	48.1864
	17.51917	48.1869
	17.51658	48.18041
	17.5165	48.18044
	17.51647	48.18044
	17.51646	48.18043
	17.51644	48.18036
	17.51652	48.18033
	17.51569	48.17826
	17.51444	48.17507
	17.51434	48.17508
	17.51429	48.17495
	17.51414	48.17515
	17.51356	48.17558
	17.51333	48.17565
	17.51306	48.17576
	17.51292	48.17577
	17.51243	48.17574
	17.51217	48.17567
	17.51211	48.17558
	17.51218	48.17525
	17.51217	48.17479
	17.51212	48.17472
	17.51202	48.17463
	17.51159	48.17439
	17.51127	48.17427
	17.51114	48.17426
	17.51089	48.17428
	17.51036	48.1741
	17.51011	48.17406
	17.50993	48.17407
	17.50981	48.17403
	17.50975	48.17403
	17.50961	48.17406
	17.50951	48.17412
	17.50918	48.1745
	17.50924	48.17467
	17.50947	48.17495
	17.51001	48.17535
	17.51011	48.17545
	17.51022	48.17563
	17.51022	48.17573
	17.51019	48.1758
	17.50987	48.17607
	17.50955	48.17647
	17.50937	48.17664
	17.50901	48.17682
	17.50888	48.17685
	17.50868	48.17683
	17.50839	48.17662
	17.50818	48.17639
	17.50813	48.17628
	17.50805	48.17623
	17.50795	48.17622
	17.50768	48.17626
	17.50711	48.17652
	17.50664	48.17584
	17.50551	48.17446
	17.50336	48.17195
	17.50197	48.17036
	17.50015	48.16834
	17.49888	48.16896
	17.49844	48.16916
	17.49786	48.1694
	17.49719	48.16966
	17.49593	48.1701
	17.49531	48.17031
	17.49446	48.17056
	17.49399	48.17067
	17.49169	48.17113
	17.49039	48.17133
	17.49019	48.1714
	17.49037	48.17106
	17.48709	48.17211
	17.48624	48.17228
	17.48555	48.17222
	17.4841	48.17171
	17.48293	48.17123
	17.48224	48.17107
	17.48083	48.17022
	17.48156	48.16914
	17.48192	48.16848
	17.48249	48.16757
	17.48273	48.16726
	17.4822	48.16711
	17.48194	48.16693
	17.48146	48.16643
	17.48051	48.16595
	17.47968	48.16555
	17.48066	48.16497
	17.48186	48.16435
	17.48279	48.1639
	17.48038	48.16087
	17.47563	48.16257
	17.47353	48.15995
	17.47339	48.15976
	17.47234	48.15847
	17.47198	48.158
	17.47183	48.15783
	17.4674	48.1523
	17.46736	48.15247
	17.46709	48.15283
	17.46644	48.15355
	17.46563	48.15412
	17.46404	48.1548
	17.46325	48.15506
	17.46271	48.15513
	17.46231	48.15511
	17.46101	48.15492
	17.45918	48.15453
	17.45824	48.15423
	17.45708	48.15364
	17.45649	48.15309
	17.45522	48.15179
	17.45422	48.15099
	17.45317	48.1504
	17.45142	48.1491
	17.45098	48.14869
	17.4498	48.14735
	17.4485	48.14645
	17.4478	48.14613
	17.44637	48.14558
	17.44554	48.14537
	17.44356	48.14512
	17.44191	48.14509
	17.4414	48.145
	17.44007	48.14432
	17.43877	48.14416
	17.43696	48.14406
	17.43597	48.14404
	17.43415	48.14414
	17.43284	48.14432
	17.43198	48.1447
	17.43129	48.14519
	17.4291	48.14706
	17.42848	48.14766
	17.42709	48.14875
	17.42678	48.14914
	17.42645	48.14979
	17.42559	48.15046
	17.42493	48.15086
	17.42402	48.15129
	17.42314	48.15185
	17.41996	48.15313
	17.41901	48.15339
	17.41825	48.15352
	17.4176	48.15357
	17.41659	48.15358
	17.41503	48.15312
	17.4139	48.15273
	17.41231	48.15231
	17.40908	48.15169
	17.40796	48.15158
	17.40767	48.15156
	17.40705	48.15154
	17.40555	48.15166
	17.40468	48.15161
	17.40307	48.15174
	17.40238	48.15189
	17.40214	48.152
	17.40122	48.15223
	17.40084	48.15246
	17.39948	48.15303
	17.39898	48.15334
	17.39851	48.15373
	17.398	48.15444
	17.3977	48.1551
	17.39755	48.15606
	17.39812	48.15716
	17.3993	48.15834
	17.40038	48.15919
	17.40138	48.15985
	17.40249	48.16036
	17.40305	48.16054
	17.40363	48.16066
	17.40413	48.16072
	17.40498	48.16092
	17.40797	48.16173
	17.40893	48.16223
	17.40931	48.16248
	17.41003	48.16338
	17.41023	48.16418
	17.41007	48.16511
	17.40945	48.16572
	17.40913	48.16593
	17.40852	48.1663
	17.40787	48.16652
	17.40723	48.16663
	17.40624	48.16666
	17.40618	48.16697
	17.40607	48.16714
	17.40435	48.16942
	17.40291	48.17093
	17.40269	48.17131
	17.40232	48.1722
	17.402	48.17242
	17.40166	48.17277
	17.40149	48.17324
	17.40038	48.17409
	17.39965	48.1741
	17.39906	48.1739
	17.39854	48.1735
	17.39811	48.17292
	17.39766	48.17209
	17.39695	48.17131
	17.39686	48.17113
	17.39689	48.1709
	17.39747	48.17024
	17.39767	48.16976
	17.39752	48.16937
	17.3973	48.16903
	17.39713	48.16885
	17.39625	48.16825
	17.39592	48.16851
	17.39529	48.16874
	17.39451	48.16893
	17.39265	48.16905
	17.38978	48.16895
	17.38844	48.1691
	17.38708	48.16937
	17.38527	48.16964
	17.38122	48.17004
	17.38007	48.17007
	17.37999	48.16904
	17.38017	48.1681
	17.38129	48.16781
	17.38166	48.16753
	17.38183	48.16715
	17.38179	48.16694
	17.3816	48.16661
	17.38122	48.16603
	17.38108	48.1659
	17.38052	48.16561
	17.37999	48.16543
	17.37976	48.1654
	17.37954	48.16543
	17.37866	48.1657
	17.37816	48.16574
	17.37801	48.1649
	17.37772	48.16445
	17.37746	48.16425
	17.37758	48.16351
	17.37775	48.16322
	17.37665	48.16195
	17.37584	48.16125
	17.37418	48.16036
	17.37579	48.15964
	17.37674	48.15914
	17.37695	48.15909
	17.37783	48.15905
	17.37797	48.15883
	17.37869	48.15833
	17.38016	48.15831
	17.3803	48.15824
	17.38053	48.15795
	17.38128	48.15768
	17.38112	48.15734
	17.38026	48.15673
	17.37978	48.15611
	17.37948	48.15608
	17.37907	48.15616
	17.37851	48.15636
	17.37812	48.15625
	17.37713	48.15574
	17.3768	48.15566
	17.37622	48.15543
	17.37493	48.15515
	17.37457	48.15503
	17.37407	48.15462
	17.37374	48.15378
	17.37388	48.15321
	17.37384	48.15267
	17.37427	48.1519
	17.37476	48.15156
	17.37558	48.15129
	17.37726	48.15101
	17.37792	48.151
	17.37919	48.15121
	17.37775	48.14746
	17.37844	48.1474
	17.38032	48.14511
	17.38115	48.1448
	17.38291	48.14437
	17.38382	48.14409
	17.38531	48.14384
	17.3876	48.14353
	17.38899	48.14331
	17.38819	48.14268
	17.38714	48.14223
	17.38687	48.14209
	17.38652	48.14188
	17.38624	48.14167
	17.3859	48.14137
	17.38569	48.14115
	17.38539	48.14078
	17.38525	48.1406
	17.38495	48.14015
	17.38485	48.13996
	17.38428	48.13885
	17.38386	48.13782
	17.38133	48.13304
	17.38025	48.13208
	17.37916	48.13092
	17.37897	48.13046
	17.37252	48.13222
	17.36674	48.13369
	17.3665	48.13263
	17.3661	48.13187
	17.36523	48.13132
	17.36433	48.13085
	17.36235	48.12813
	17.36189	48.12766
	17.36108	48.12708
	17.35994	48.12683
	17.35809	48.12633
	17.3576	48.12664
	17.3569	48.12646
	17.35603	48.12572
	17.35489	48.12524
	17.35393	48.125
	17.35217	48.12374
	17.35124	48.12319
	17.34976	48.12244
	17.3491	48.12219
	17.3478	48.123
	17.34754	48.12265
	17.34669	48.12227
	17.34566	48.12206
	17.34486	48.12159
	17.34403	48.12105
	17.34313	48.12026
	17.34212	48.11971
	17.34157	48.11918
	17.34111	48.11862
	17.34047	48.11845
	17.33416	48.12073
	17.33308	48.11916
	17.33062	48.11973
	17.33019	48.11863
	17.32994	48.11866
	17.32976	48.11824
	17.32741	48.11836
	17.32609	48.11856
	17.32283	48.11928
	17.32191	48.11945
	17.32147	48.11951
	17.3213	48.11932
	17.32036	48.11977
	17.31977	48.11996
	17.31923	48.12001
	17.31789	48.11982
	17.31741	48.11993
	17.31716	48.12013
	17.31694	48.12043
	17.31643	48.1214
	17.31616	48.12163
	17.31587	48.12175
	17.31536	48.12176
	17.31464	48.12147
	17.31318	48.12114
	17.31232	48.12103
	17.31185	48.12104
	17.31093	48.12117
	17.30883	48.12169
	17.30651	48.12239
	17.30436	48.12318
	17.30331	48.12143
	17.30337	48.12074
	17.30349	48.12049
	17.30372	48.12018
	17.30411	48.1198
	17.30457	48.11949
	17.30655	48.11876
	17.30711	48.1185
	17.31185	48.11617
	17.31343	48.11533
	17.30712	48.09941
	17.31248	48.09746
	17.31463	48.09806
	17.31527	48.09862
	17.31626	48.09755
	17.32049	48.0937
	17.32454	48.09031
	17.32655	48.08884
	17.34343	48.09606
	17.34827	48.09148
	17.35134	48.09279
	17.35368	48.09217
	17.34971	48.08507
	17.34524	48.08447
	17.34133	48.08453
	17.3389	48.08359
	17.33383	48.08133
	17.33565	48.08087
	17.33164	48.06918
	17.3301	48.06915
	17.32756	48.06968
	17.32682	48.06989
	17.324	48.07083
	17.31891	48.06272
	17.31762	48.06321
	17.31545	48.06069
	17.31519	48.06086
	17.31406	48.05995
	17.31382	48.06002
	17.31278	48.06053
	17.31122	48.06191
	17.3104	48.06338
	17.30911	48.06469
	17.30653	48.06553
	17.30539	48.0662
	17.30416	48.06704
	17.30253	48.06845
	17.30047	48.06763
	17.29849	48.06676
	17.2965	48.06616
	17.2973	48.06497
	17.29807	48.06362
	17.29874	48.06215
	17.29857	48.06054
	17.29863	48.0591
	17.29847	48.05857
	17.29883	48.05736
	17.29961	48.05613
	17.30065	48.05471
	17.30119	48.05414
	17.3017	48.05312
	17.30283	48.05188
	17.30468	48.05053
	17.30541	48.05015
	17.30641	48.04979
	17.3044	48.04799
	17.3041	48.04737
	17.30301	48.04627
	17.30145	48.0449
	17.30034	48.04542
	17.29959	48.04591
	17.29554	48.04486
	17.28172	48.04279
	17.27649	48.03553
	17.26925	48.02864
	17.26152	48.02608
	17.2589	48.02904
	17.25493	48.02912
	17.2535	48.02892
	17.25347	48.02811
	17.25885	48.02261
	17.24879	48.01239
	17.24743	48.01201
	17.24733	48.01286
	17.24673	48.01637
	17.24628	48.01796
	17.24587	48.01888
	17.24528	48.01977
	17.24452	48.02059
	17.2436	48.02134
	17.24177	48.02247
	17.24031	48.02158
	17.24045	48.02056
	17.23925	48.01998
	17.23809	48.01955
	17.2371	48.01899
	17.23608	48.01856
	17.23494	48.01838
	17.23381	48.01822
	17.23268	48.01798
	17.23098	48.01747
	17.22768	48.01654
	17.22663	48.01623
	17.2218	48.01642
	17.22074	48.01647
	17.21739	48.01775
	17.2173	48.01782
	17.21705	48.01789
	17.21657	48.01807
	17.21617	48.01825
	17.21414	48.01908
	17.21263	48.01909
	17.21131	48.01912
	17.20952	48.01914
	17.20804	48.01914
	17.20712	48.01908
	17.20564	48.01932
	17.2039	48.01978
	17.20288	48.01998
	17.20178	48.02007
	17.20103	48.01999
	17.20005	48.01981
	17.19939	48.01946
	17.19943	48.01928
	17.19904	48.01832
	17.19835	48.01769
	17.19803	48.01772
	17.19441	48.0184
	17.19316	48.0182
	17.19204	48.0179
	17.19103	48.01765
	17.18995	48.0172
	17.18985	48.01711
	17.18944	48.01697
	17.18721	48.01622
	17.1838	48.01516
	17.18198	48.01463
	17.18033	48.01407
	17.17972	48.01385
	17.17952	48.01376
	17.17921	48.01365
	17.17855	48.01346
	17.17676	48.01306
	17.17598	48.013
	17.17559	48.01294
	17.175	48.01273
	17.17438	48.01254
	17.17364	48.01237
	17.17321	48.01224
	17.172	48.01182
	17.1715	48.01161
	17.17079	48.01125
	17.16726	48.01003
	17.16609	48.00947
	17.16501	48.00918
	17.16396	48.00875
	17.16289	48.00829
	17.16209	48.00788
	17.16198	48.00773
	17.16078	48.00666
	17.16072	48.00671
	17.16005	48.00711
	17.15832	48.00825
	17.15707	48.00913
	17.15681	48.00929
	17.15673	48.00937
	17.15646	48.00956
	17.15521	48.01038
	17.15482	48.01066
	17.15422	48.01106
	17.15405	48.0112
	17.15381	48.01135
	17.15355	48.01142
	17.15196	48.01235
	17.15184	48.0124
	17.15081	48.01304
	17.15049	48.01328
	17.15025	48.01343
	17.15009	48.01355
	17.14955	48.01407
	17.14936	48.01423
	17.14841	48.01493
	17.14747	48.01593
	17.14703	48.01646
	17.14652	48.01701
	17.14627	48.0173
	17.14591	48.01764
	17.14528	48.01838
	17.14512	48.01862
	17.14489	48.01889
	17.14475	48.01902
	17.14454	48.01926
	17.14382	48.02019
	17.14236	48.01952
	17.14185	48.01978
	17.1415	48.01999
	17.14075	48.02034
	17.14047	48.02048
	17.14004	48.02072
	17.13893	48.02158
	17.13876	48.02168
	17.13744	48.02257
	17.1373	48.02264
	17.1368	48.02285
	17.13662	48.02289
	17.13651	48.02289
	17.13638	48.02291
	17.13622	48.02291
	17.13516	48.02278
	17.13439	48.02265
	17.13301	48.02239
	17.13284	48.02246
	17.13233	48.02261
	17.13169	48.02287
	17.13121	48.02298
	17.13084	48.02298
	17.12673	48.02093
	17.12595	48.02141
	17.12543	48.0218
	17.12525	48.02192
	17.12507	48.02202
	17.12447	48.02243
	17.12395	48.02288
	17.12381	48.02302
	17.12345	48.02333
	17.12329	48.02345
	17.12312	48.02356
	17.12228	48.02399
	17.12184	48.02431
	17.12145	48.02467
	17.12133	48.02476
	17.12101	48.0251
	17.12082	48.0254
	17.1203	48.02597
	17.1198	48.02632
	17.11936	48.0266
	17.11858	48.02721
	17.11794	48.02788
	17.11738	48.02826
	17.11708	48.02844
	17.11612	48.02892
	17.11532	48.02945
	17.11503	48.02961
	17.1143	48.02989
	17.11413	48.02994
	17.11327	48.03007
	17.11294	48.03015
	17.11219	48.03047
	17.11202	48.03057
	17.11006	48.03122
	17.10794	48.03008
	17.10493	48.02829
	17.10247	48.02686
	17.09595	48.02329
	17.09452	48.02249
	17.08987	48.01978
	17.0896	48.02043
	17.08954	48.02052
	17.08817	48.02176
	17.08709	48.02256
	17.08597	48.02321
	17.08487	48.02382
	17.0837	48.0244
	17.08035	48.02588
	17.07904	48.02618
	17.07832	48.02632
	17.07792	48.02645
	17.07569	48.02748
	17.07351	48.02861
	17.07148	48.02964
	17.06954	48.0306
	17.06893	48.03086
	17.06742	48.03143
	17.06746	48.03148
	17.06766	48.03163
	17.06834	48.03207
	17.06865	48.03225
	17.06997	48.03294
	17.07095	48.03341
	17.0724	48.03418
	17.07313	48.03459
	17.07508	48.03577
	17.07425	48.03634
	17.07566	48.03727
	17.07606	48.03749
	17.07707	48.03812
	17.07751	48.03838
	17.08119	48.04071
	17.08195	48.04126
	17.08223	48.04143
	17.08354	48.04234
	17.0839	48.04261
	17.08428	48.04292
	17.08437	48.04305
	17.0846	48.04327
	17.08495	48.04356
	17.08542	48.04398
	17.08583	48.0443
	17.0869	48.04507
	17.08779	48.04568
	17.08726	48.04642
	17.08674	48.04741
	17.08661	48.04775
	17.08569	48.04928
	17.08551	48.04944
	17.08505	48.04977
	17.08467	48.05007
	17.08445	48.05029
	17.08426	48.05038
	17.08247	48.05063
	17.08107	48.05099
	17.07995	48.05123
	17.07953	48.05133
	17.07921	48.05143
	17.07809	48.05185
	17.07745	48.05207
	17.07681	48.05216
	17.07622	48.05228
	17.07483	48.05265
	17.07448	48.05276
	17.07421	48.0528
	17.074	48.05286
	17.07297	48.05323
	17.07245	48.05346
	17.07208	48.05359
	17.07162	48.05377
	17.07126	48.05393
	17.07058	48.05427
	17.06986	48.05458
	17.06896	48.05499
	17.06825	48.05539
	17.07017	48.057
	17.07171	48.05624
	17.0755	48.05906
	17.08035	48.06177
	17.08676	48.06533
	17.08679	48.06536
	17.08427	48.06624
	17.07844	48.06825
	17.0764	48.06897
	17.07472	48.06958
	17.07223	48.07045
	17.07246	48.07071
	17.07278	48.07112
	17.07328	48.07171
	17.0755	48.07443
	17.07747	48.07663
	17.07589	48.07721
	17.07454	48.07774
	17.07362	48.07984
	17.07419	48.08012
	17.07463	48.08032
	17.07535	48.08072
	17.07606	48.08346
	17.07353	48.08412
	17.07367	48.08439
	17.07388	48.08444
	17.07396	48.08457
	17.07383	48.08465
	17.07456	48.08592
	17.07575	48.08609
	17.07644	48.0862
	17.08237	48.08892
	17.08964	48.09223
	17.09133	48.09057
	17.09314	48.09142
	17.09139	48.09299
	17.08956	48.0948
	17.08923	48.09511
	17.08873	48.0948
	17.08676	48.09364
	17.079	48.0888
	17.07625	48.08944
	17.07688	48.09219
	17.08466	48.09705
	17.08672	48.09826
	17.08822	48.09919
	17.08395	48.10079
	17.08385	48.10081
	17.0833	48.101
	17.08317	48.10106
	17.0831	48.10108
	17.0825	48.103
	17.07742	48.10595
	17.07857	48.10728
	17.07908	48.10789
	17.07287	48.11029
	17.07559	48.11344
	17.07697	48.11501
	17.07699	48.11501
	17.07707	48.1151
	17.07651	48.11509
	17.0764	48.11503
	17.0754	48.11478
	17.07513	48.11468
	17.07438	48.1145
	17.07412	48.11447
	17.07394	48.11447
	17.07385	48.11445
	17.07374	48.11448
	17.07302	48.11449
	17.07282	48.11451
	17.07226	48.11485
	17.07208	48.11493
	17.07193	48.11497
	17.07161	48.11503
	17.07144	48.11511
	17.07122	48.11518
	17.07069	48.11532
	17.07051	48.1154
	17.07032	48.11545
	17.06998	48.11564
	17.06992	48.1157
	17.06945	48.11587
	17.06929	48.11591
	17.06864	48.11612
	17.06858	48.11616
	17.06844	48.11629
	17.06836	48.11634
	17.06825	48.11638
	17.06818	48.11643
	17.06801	48.11664
	17.06801	48.11668
	17.06809	48.11679
	17.0682	48.11708
	17.0681	48.11756
	17.06811	48.1178
	17.06808	48.11803
	17.06797	48.11817
	17.06771	48.11828
	17.06759	48.11831
	17.06715	48.11849
	17.06681	48.11865
	17.06675	48.11866
	17.06621	48.11899
	17.0661	48.11913
	17.06591	48.11926
	17.06585	48.11939
	17.06573	48.11957
	17.06555	48.11976
	17.06528	48.12
	17.0648	48.12034
	17.06474	48.12043
	17.06402	48.12088
	17.06396	48.1209
	17.0636	48.12089
	17.06357	48.121
	17.06329	48.12115
	17.06313	48.12129
	17.06279	48.12148
	17.06248	48.12193
	17.0624	48.12208
	17.06218	48.12302
	17.06225	48.12316
	17.06237	48.12323
	17.063	48.12346
	17.06325	48.12351
	17.06368	48.1235
	17.06442	48.12342
	17.06472	48.12331
	17.06491	48.12324
	17.06538	48.12325
	17.06559	48.12329
	17.06579	48.12335
	17.06593	48.12343
	17.06626	48.12358
	17.06661	48.12368
	17.06679	48.1237
	17.06704	48.12366
	17.06752	48.12351
	17.06765	48.1235
	17.06797	48.12353
	17.06823	48.1236
	17.06856	48.12374
	17.06868	48.12382
	17.06881	48.12393
	17.06884	48.12412
	17.06882	48.12421
	17.0687	48.12437
	17.06835	48.12478
	17.06831	48.1248
	17.0679	48.12515
	17.06768	48.1253
	17.06765	48.12535
	17.06782	48.12565
	17.06784	48.12577
	17.06782	48.12586
	17.06779	48.12591
	17.06775	48.12596
	17.06727	48.12622
	17.06717	48.12634
	17.06714	48.12642
	17.06715	48.12653
	17.06721	48.12662
	17.0674	48.12676
	17.06786	48.12702
	17.06788	48.12705
	17.06775	48.12719
	17.06776	48.12726
	17.06762	48.12743
	17.0674	48.1276
	17.06705	48.12777
	17.0669	48.12787
	17.06678	48.12789
	17.06667	48.12793
	17.06659	48.12802
	17.06628	48.1282
	17.06617	48.12821
	17.06587	48.12812
	17.06573	48.1281
	17.06524	48.12797
	17.06517	48.12796
	17.06492	48.128
	17.06468	48.128
	17.06439	48.12803
	17.06434	48.12806
	17.0643	48.12811
	17.06426	48.12819
	17.06421	48.12855
	17.06408	48.12874
	17.06484	48.12905
	17.06508	48.12913
	17.06556	48.12935
	17.06472	48.12995
	17.06369	48.13075
	17.06262	48.13177
	17.06206	48.13254
	17.06196	48.13345
	17.06167	48.13345
	17.06142	48.13347
	17.06014	48.13576
	17.06036	48.13576
	17.06164	48.136
	17.06168	48.13628
	17.06162	48.13692
	17.06126	48.13821
	17.06094	48.13893
	17.06059	48.13942
	17.06014	48.13996
	17.05967	48.14025
	17.05936	48.14035
	17.05956	48.14088
	17.05945	48.14123
	17.05875	48.14152
	17.05736	48.14178
	17.0572	48.14372
	17.05571	48.14344
	17.04699	48.14129
	17.04443	48.14072
	17.04182	48.14024
	17.03984	48.13995
	17.03864	48.13982
	17.03621	48.13971
	17.03443	48.13975
	17.03326	48.13984
	17.03044	48.14018
	17.02811	48.14057
	17.02691	48.14087
	17.02592	48.14122
	17.02508	48.1416
	17.02411	48.14217
	17.02327	48.14282
	17.02257	48.14354
	17.01912	48.14764
	17.01778	48.14905
	17.01546	48.15122
	17.01464	48.1519
	17.0133	48.15286
	17.01232	48.15347
	17.01125	48.15406
	17.00955	48.15487
	17.0066	48.15603
	17.00271	48.15747
	16.99966	48.15872
	16.99364	48.16173
	16.98639	48.16654
	16.98503	48.16751
	16.97821	48.17112
	16.97625	48.17214
	16.9756	48.17453
	16.97546	48.17532
	16.97544	48.1759
	16.97549	48.1766
	16.97568	48.17757
	16.97588	48.17821
	16.97604	48.17863
	16.97612	48.17882
	16.97699	48.18039
	16.9774	48.18151
	16.97745	48.18231
	16.97737	48.18308
	16.97678	48.18464
	16.97665	48.18512
	16.97649	48.18614
	16.97653	48.18711
	16.97656	48.18735
	16.9766	48.18803
	16.97653	48.18881
	16.97633	48.18955
	16.97606	48.19039
	16.97517	48.19172
	16.97281	48.19436
	16.97087	48.1985
	16.97019	48.20084
	16.97001	48.20127
	16.9698	48.20168
	16.96951	48.20211
	16.96917	48.20251
	16.96814	48.2036
	16.96779	48.20403
	16.96751	48.20447
	16.96705	48.20527
	16.96665	48.20616
	16.96645	48.20674
	16.96586	48.20884
	16.96564	48.20946
	16.96548	48.20978
	16.96522	48.21023
	16.96506	48.21046
	16.96478	48.21079
	16.96455	48.21105
	16.9635	48.21208
	16.96311	48.21254
	16.96274	48.21306
	16.96246	48.21357
	16.96229	48.21397
	16.96213	48.21445
	16.96194	48.21537
	16.96196	48.21623
	16.96206	48.2175
	16.96219	48.21829
	16.96219	48.21901
	16.96214	48.21953
	16.96178	48.22083
	16.96137	48.2217
	16.96094	48.22245
	16.96046	48.22319
	16.95982	48.22405
	16.9594	48.22457
	16.95879	48.22525
	16.95789	48.22617
	16.95755	48.2265
	16.95672	48.22722
	16.95584	48.22789
	16.95501	48.22845
	16.95421	48.22895
	16.95353	48.22934
	16.95093	48.23068
	16.95035	48.231
	16.94963	48.23145
	16.94904	48.23188
	16.94841	48.23241
	16.94785	48.23296
	16.94743	48.23343
	16.94708	48.23388
	16.94676	48.23435
	16.94645	48.23495
	16.94629	48.23535
	16.94613	48.23584
	16.94607	48.23619
	16.94604	48.23666
	16.94607	48.23711
	16.94664	48.24124
	16.94672	48.24166
	16.94681	48.24188
	16.94702	48.24222
	16.94783	48.24317
	16.9481	48.24357
	16.94826	48.2439
	16.94836	48.24426
	16.94843	48.24516
	16.94852	48.24599
	16.94872	48.24648
	16.94898	48.24697
	16.94923	48.24737
	16.94947	48.24784
	16.94967	48.24837
	16.94976	48.24876
	16.94983	48.24927
	16.9498	48.25003
	16.94969	48.25086
	16.94966	48.25124
	16.9497	48.25179
	16.94978	48.25224
	16.95011	48.25317
	16.95067	48.25449
	16.9512	48.25606
	16.95143	48.25665
	16.95159	48.25697
	16.95177	48.25727
	16.95211	48.25768
	16.95275	48.25823
	16.95313	48.25852
	16.95369	48.25898
	16.95537	48.26044
	16.95672	48.26197
	16.95725	48.26279
	16.95733	48.26302
	16.95731	48.26339
	16.95721	48.26361
	16.95707	48.26382
	16.95671	48.26414
	16.95648	48.26429
	16.95583	48.26458
	16.95472	48.26492
	16.95333	48.26526
	16.95284	48.26544
	16.95206	48.26583
	16.95138	48.26631
	16.95111	48.26657
	16.94992	48.26799
	16.94971	48.2682
	16.94933	48.26862
	16.94885	48.269
	16.94802	48.26955
	16.94767	48.26975
	16.94725	48.26994
	16.94656	48.27022
	16.94558	48.27053
	16.94455	48.27073
	16.94378	48.27081
	16.94335	48.27082
	16.94247	48.27082
	16.94039	48.27074
	16.93945	48.27079
	16.93876	48.27085
	16.93786	48.27097
	16.93707	48.27106
	16.93663	48.2711
	16.9359	48.27114
	16.93467	48.27113
	16.93119	48.27089
	16.92981	48.27093
	16.92931	48.27096
	16.92864	48.27101
	16.92695	48.27116
	16.92598	48.2713
	16.92473	48.27153
	16.92395	48.2717
	16.92268	48.27211
	16.92216	48.27232
	16.92103	48.27288
	16.92046	48.27327
	16.92015	48.27352
	16.9199	48.27394
	16.9199	48.27452
	16.9202	48.2757
	16.9202	48.27621
	16.92007	48.27668
	16.9199	48.27713
	16.91956	48.27772
	16.91925	48.27813
	16.9186	48.27873
	16.91784	48.27924
	16.91698	48.2797
	16.91525	48.28049
	16.91479	48.28073
	16.91434	48.28108
	16.91412	48.2813
	16.91372	48.28182
	16.9133	48.28251
	16.91264	48.28343
	16.91207	48.28407
	16.91162	48.28454
	16.9111	48.28502
	16.90924	48.2866
	16.90887	48.28694
	16.90789	48.28798
	16.90753	48.28842
	16.90722	48.2889
	16.90702	48.28918
	16.90671	48.28979
	16.90661	48.29006
	16.90645	48.29077
	16.90625	48.29293
	16.90617	48.29322
	16.90589	48.29387
	16.90559	48.29432
	16.90519	48.29476
	16.90464	48.29527
	16.90409	48.29568
	16.90364	48.29594
	16.90266	48.29647
	16.90196	48.29687
	16.90155	48.29714
	16.90113	48.29748
	16.9007	48.29792
	16.90061	48.29799
	16.90043	48.29824
	16.90008	48.29879
	16.89994	48.2991
	16.89988	48.29927
	16.89977	48.29968
	16.89967	48.30018
	16.89947	48.30178
	16.89936	48.30242
	16.8992	48.30309
	16.89891	48.30393
	16.89853	48.30477
	16.8982	48.30538
	16.89771	48.30615
	16.8972	48.30675
	16.89598	48.30803
	16.89548	48.30859
	16.89526	48.30888
	16.8951	48.30913
	16.89492	48.30948
	16.89476	48.30983
	16.89459	48.31056
	16.89455	48.31089
	16.89454	48.31124
	16.89459	48.31161
	16.89483	48.31244
	16.89517	48.31319
	16.89539	48.31355
	16.89563	48.3139
	16.89589	48.31423
	16.89619	48.31457
	16.89654	48.31491
	16.89697	48.31525
	16.89736	48.31553
	16.89809	48.31601
	16.89844	48.3162
	16.8992	48.31651
	16.89995	48.3168
	16.90048	48.31697
	16.9021	48.31745
	16.9029	48.31775
	16.90327	48.31791
	16.90357	48.31806
	16.90394	48.31827
	16.90447	48.31862
	16.90476	48.31884
	16.90525	48.31934
	16.90564	48.31979
	16.90679	48.32119
	16.90706	48.32146
	16.90825	48.32248
	16.90873	48.32294
	16.9087	48.32317
	16.90907	48.32358
	16.90917	48.32387
	16.90928	48.32445
	16.90928	48.32475
	16.90925	48.32499
	16.90917	48.32532
	16.90898	48.3257
	16.90878	48.32596
	16.90855	48.32619
	16.90825	48.32639
	16.90813	48.32644
	16.90809	48.32648
	16.90791	48.32654
	16.90772	48.32663
	16.90729	48.32676
	16.9045	48.32721
	16.90362	48.32737
	16.90189	48.32774
	16.89991	48.32836
	16.89947	48.32852
	16.8986	48.32887
	16.89777	48.32924
	16.89743	48.32941
	16.89713	48.32959
	16.89683	48.3298
	16.89628	48.33027
	16.89582	48.3307
	16.89546	48.33097
	16.89529	48.33108
	16.89493	48.33127
	16.89451	48.33145
	16.89428	48.33152
	16.8938	48.33163
	16.89338	48.33168
	16.89291	48.33171
	16.89242	48.33171
	16.89161	48.33167
	16.89109	48.33167
	16.89059	48.33169
	16.89007	48.33175
	16.88959	48.33184
	16.88916	48.33196
	16.88859	48.33219
	16.88825	48.33236
	16.88793	48.33255
	16.88761	48.33275
	16.88702	48.3332
	16.88607	48.33388
	16.88537	48.33431
	16.88464	48.33471
	16.88402	48.33503
	16.88338	48.33531
	16.88271	48.33557
	16.88194	48.33583
	16.88076	48.33612
	16.87966	48.33632
	16.87869	48.33644
	16.87827	48.33647
	16.87744	48.33652
	16.87587	48.33659
	16.8748	48.33671
	16.87431	48.33681
	16.87399	48.33689
	16.8736	48.33701
	16.87331	48.33711
	16.87285	48.3373
	16.87236	48.33755
	16.87166	48.33795
	16.87132	48.33817
	16.87082	48.33854
	16.87019	48.3391
	16.87009	48.3392
	16.86986	48.33949
	16.86963	48.33986
	16.86955	48.34003
	16.86947	48.34028
	16.86942	48.34053
	16.86944	48.34092
	16.86949	48.34116
	16.86958	48.34142
	16.86969	48.34164
	16.86994	48.34198
	16.87042	48.34249
	16.87075	48.34265
	16.87114	48.3429
	16.87165	48.34316
	16.87272	48.34363
	16.87348	48.34398
	16.87381	48.34415
	16.87409	48.34433
	16.87449	48.34463
	16.87464	48.34476
	16.87488	48.34501
	16.8752	48.34552
	16.8753	48.34578
	16.87533	48.34592
	16.87535	48.3462
	16.87531	48.34651
	16.87522	48.34678
	16.87508	48.34706
	16.8749	48.34736
	16.87457	48.3478
	16.87401	48.34832
	16.87364	48.34857
	16.87344	48.34866
	16.87297	48.34884
	16.87252	48.34895
	16.87203	48.349
	16.8716	48.34899
	16.87138	48.34897
	16.87093	48.34888
	16.87057	48.34876
	16.86981	48.34843
	16.86934	48.34825
	16.86889	48.34811
	16.86842	48.34801
	16.86797	48.34793
	16.86729	48.34788
	16.86683	48.34788
	16.86612	48.34793
	16.86531	48.34803
	16.86452	48.3482
	16.86435	48.34825
	16.864	48.34833
	16.86308	48.34863
	16.86186	48.34907
	16.86142	48.34918
	16.86099	48.34926
	16.86075	48.34929
	16.8604	48.34931
	16.85992	48.34931
	16.85969	48.3493
	16.8592	48.34925
	16.85848	48.34911
	16.85807	48.34898
	16.85726	48.34868
	16.8568	48.34849
	16.8562	48.34828
	16.8557	48.34813
	16.85545	48.34807
	16.85493	48.34797
	16.85444	48.3479
	16.85387	48.34786
	16.85338	48.34784
	16.85265	48.34783
	16.85199	48.34786
	16.85079	48.348
	16.85021	48.34808
	16.8497	48.34817
	16.849	48.34833
	16.848	48.34861
	16.84757	48.34876
	16.84717	48.34892
	16.84579	48.34951
	16.84491	48.34995
	16.84445	48.35023
	16.84406	48.35049
	16.84371	48.35079
	16.84343	48.35108
	16.84318	48.35139
	16.843	48.35171
	16.8427	48.3524
	16.84244	48.35314
	16.84235	48.3535
	16.8423	48.35384
	16.84228	48.35419
	16.84233	48.35488
	16.84246	48.35537
	16.84265	48.35594
	16.84305	48.35687
	16.84325	48.35743
	16.8433	48.35778
	16.8433	48.35802
	16.84328	48.35828
	16.84321	48.35858
	16.84303	48.35903
	16.84286	48.35932
	16.84268	48.35958
	16.84237	48.35996
	16.84211	48.3602
	16.84073	48.36157
	16.84052	48.36186
	16.83941	48.36401
	16.83922	48.36465
	16.83918	48.36517
	16.83927	48.36576
	16.83947	48.36628
	16.84029	48.36765
	16.84094	48.36897
	16.84122	48.36974
	16.84136	48.37066
	16.84129	48.37128
	16.84116	48.37172
	16.84074	48.37252
	16.84023	48.37307
	16.83923	48.37381
	16.8382	48.3745
	16.83743	48.37499
	16.83689	48.37557
	16.83445	48.37822
	16.83353	48.37958
	16.83325	48.38023
	16.83325	48.38086
	16.83342	48.38154
	16.83398	48.38247
	16.83459	48.38311
	16.8349	48.38329
	16.83592	48.38372
	16.83669	48.38392
	16.83809	48.38397
	16.83993	48.38363
	16.84126	48.38308
	16.84325	48.38207
	16.84421	48.38182
	16.84502	48.38174
END
END
