South Ossetia
1
	44.23185	42.62669
	44.23169	42.62353
	44.23123	42.62007
	44.22842	42.61455
	44.22755	42.61263
	44.22588	42.61078
	44.22721	42.60793
	44.22882	42.60632
	44.23072	42.6056
	44.23231	42.60569
	44.23448	42.60717
	44.23638	42.60579
	44.23758	42.60506
	44.24202	42.59965
	44.24446	42.59519
	44.24848	42.5915
	44.25087	42.59107
	44.25205	42.59218
	44.25292	42.59454
	44.25428	42.59705
	44.25606	42.59838
	44.25903	42.59891
	44.2625	42.60011
	44.26526	42.60204
	44.26871	42.60441
	44.26971	42.60419
	44.27162	42.60171
	44.27333	42.60055
	44.27682	42.59925
	44.27932	42.59772
	44.28212	42.59649
	44.28651	42.59527
	44.28751	42.59483
	44.29092	42.59214
	44.29413	42.58966
	44.29754	42.58674
	44.29964	42.58514
	44.30176	42.5828
	44.30237	42.58163
	44.30211	42.57803
	44.30231	42.57774
	44.30658	42.57828
	44.30697	42.57814
	44.30734	42.57189
	44.30796	42.56977
	44.3086	42.56588
	44.30974	42.56175
	44.31075	42.56028
	44.31456	42.55663
	44.31686	42.55518
	44.31925	42.55505
	44.31965	42.55468
	44.32027	42.55292
	44.32137	42.55212
	44.32386	42.55177
	44.32564	42.55171
	44.32774	42.55091
	44.33133	42.5491
	44.33322	42.54874
	44.33511	42.5486
	44.33895	42.5472
	44.34114	42.54685
	44.34352	42.54716
	44.34482	42.54665
	44.34464	42.54452
	44.34536	42.54254
	44.34687	42.54086
	44.34649	42.5388
	44.34582	42.53659
	44.34875	42.5311
	44.34846	42.53034
	44.34719	42.52849
	44.34681	42.52739
	44.34772	42.526
	44.34851	42.52553
	44.35051	42.5244
	44.35369	42.52383
	44.35706	42.52437
	44.36172	42.52505
	44.36312	42.52455
	44.36462	42.52323
	44.36664	42.51987
	44.36785	42.51781
	44.37096	42.51467
	44.37336	42.51337
	44.37724	42.51182
	44.37894	42.51094
	44.37954	42.51043
	44.37916	42.50918
	44.37799	42.50734
	44.37711	42.50557
	44.37683	42.5041
	44.3673	42.50376
	44.36026	42.50357
	44.35301	42.50324
	44.34955	42.50226
	44.3456	42.50026
	44.34363	42.49834
	44.34038	42.49641
	44.33467	42.49239
	44.33448	42.49136
	44.33917	42.48853
	44.34049	42.4856
	44.34121	42.48384
	44.34192	42.48176
	44.34253	42.48029
	44.34434	42.47854
	44.35033	42.4749
	44.35374	42.47081
	44.35514	42.46986
	44.35752	42.46973
	44.36634	42.47125
	44.37248	42.47209
	44.37576	42.47166
	44.37895	42.46941
	44.38137	42.46641
	44.38338	42.46316
	44.38687	42.46105
	44.39254	42.45924
	44.39483	42.45867
	44.39651	42.45926
	44.3973	42.46022
	44.40015	42.46288
	44.40233	42.46311
	44.40599	42.46343
	44.40877	42.46381
	44.41125	42.4633
	44.41294	42.46273
	44.41504	42.46171
	44.41652	42.46186
	44.42097	42.46365
	44.42666	42.45986
	44.42815	42.4595
	44.43498	42.46107
	44.43746	42.46094
	44.4468	42.45849
	44.44859	42.45798
	44.4511	42.45484
	44.45241	42.45227
	44.45344	42.44875
	44.45365	42.44641
	44.45705	42.44349
	44.45876	42.44122
	44.46026	42.43917
	44.46256	42.43749
	44.46427	42.43442
	44.46449	42.43254
	44.46787	42.43025
	44.46957	42.42879
	44.47047	42.42791
	44.47376	42.42572
	44.47397	42.42403
	44.47507	42.42367
	44.47706	42.42287
	44.47935	42.42075
	44.48015	42.42017
	44.48399	42.41157
	44.48944	42.41181
	44.49112	42.41211
	44.49806	42.41192
	44.49994	42.41178
	44.50143	42.41113
	44.50352	42.41011
	44.5071	42.40939
	44.50909	42.40742
	44.51009	42.40654
	44.51158	42.40669
	44.51286	42.40721
	44.51771	42.40797
	44.52069	42.40776
	44.52357	42.40704
	44.52683	42.4072
	44.5298	42.40772
	44.53249	42.40685
	44.53805	42.40541
	44.54202	42.40366
	44.54362	42.40271
	44.54621	42.40057
	44.54802	42.39668
	44.54864	42.39323
	44.54816	42.39117
	44.54718	42.38918
	44.55086	42.38802
	44.55394	42.38649
	44.55533	42.38518
	44.55742	42.38438
	44.5594	42.38402
	44.56041	42.38248
	44.56209	42.38168
	44.56368	42.38095
	44.56615	42.38258
	44.56941	42.38347
	44.57229	42.3837
	44.57466	42.38356
	44.58003	42.38138
	44.58708	42.37905
	44.59155	42.3765
	44.59422	42.37754
	44.59748	42.3785
	44.59996	42.37726
	44.60315	42.37551
	44.60622	42.37435
	44.60759	42.36925
	44.61001	42.36272
	44.60985	42.36245
	44.60913	42.36125
	44.60469	42.35771
	44.60402	42.35521
	44.60264	42.35359
	44.59879	42.35159
	44.59712	42.3496
	44.59358	42.34573
	44.59153	42.34176
	44.58966	42.33962
	44.58502	42.33807
	44.58324	42.33703
	44.58108	42.33497
	44.57962	42.33143
	44.57865	42.32827
	44.58582	42.32177
	44.58652	42.32053
	44.59675	42.31388
	44.59797	42.31021
	44.59821	42.30228
	44.60129	42.30126
	44.60397	42.2998
	44.61063	42.29469
	44.61134	42.29109
	44.61079	42.28477
	44.61488	42.27842
	44.61647	42.2774
	44.61866	42.27579
	44.61936	42.27447
	44.61996	42.27234
	44.61968	42.2697
	44.61713	42.26653
	44.61723	42.26558
	44.61874	42.2622
	44.61935	42.25949
	44.61866	42.25824
	44.6172	42.25529
	44.61672	42.25216
	44.61722	42.25136
	44.62299	42.24572
	44.6228	42.24381
	44.62163	42.24146
	44.62006	42.23917
	44.61888	42.23844
	44.6172	42.23799
	44.61671	42.23755
	44.61771	42.23645
	44.61663	42.23475
	44.61565	42.23284
	44.61458	42.22983
	44.61362	42.22593
	44.61362	42.22531
	44.6188	42.21864
	44.62009	42.21732
	44.61971	42.216
	44.61726	42.21276
	44.61786	42.21093
	44.61817	42.20806
	44.61927	42.20682
	44.62184	42.20573
	44.62383	42.20404
	44.62462	42.20184
	44.62439	42.20037
	44.62316	42.1976
	44.62084	42.19447
	44.61981	42.19334
	44.61851	42.193
	44.61621	42.19215
	44.61393	42.19095
	44.61264	42.19018
	44.61155	42.18969
	44.60932	42.1897
	44.60736	42.19007
	44.60617	42.18957
	44.60467	42.18889
	44.6033	42.18938
	44.6026	42.18949
	44.60097	42.1891
	44.59822	42.18754
	44.59403	42.18586
	44.59205	42.18532
	44.58972	42.18527
	44.58701	42.18514
	44.58533	42.18436
	44.58482	42.18352
	44.58503	42.18177
	44.58575	42.18024
	44.5862	42.17898
	44.5857	42.17782
	44.58412	42.17719
	44.58158	42.17622
	44.5807	42.17545
	44.57833	42.17343
	44.57743	42.17221
	44.57624	42.17146
	44.57402	42.17134
	44.57186	42.17188
	44.57209	42.17028
	44.57219	42.16872
	44.57254	42.16732
	44.57295	42.16558
	44.57315	42.16416
	44.57325	42.16307
	44.57343	42.16176
	44.57565	42.16024
	44.5782	42.15832
	44.58003	42.15605
	44.57318	42.15588
	44.5735	42.15427
	44.57425	42.1507
	44.57473	42.14876
	44.57522	42.14556
	44.57321	42.14361
	44.56841	42.14066
	44.56716	42.13928
	44.56582	42.13709
	44.56385	42.136
	44.56006	42.13371
	44.56039	42.13241
	44.56174	42.13191
	44.56332	42.1299
	44.56431	42.12882
	44.56496	42.12742
	44.56568	42.12544
	44.56597	42.12247
	44.56588	42.12084
	44.56616	42.11969
	44.56647	42.11854
	44.56667	42.1172
	44.56668	42.11654
	44.56251	42.11503
	44.56119	42.11454
	44.56035	42.11559
	44.5598	42.11622
	44.55894	42.11663
	44.55816	42.11682
	44.55747	42.11632
	44.55701	42.11606
	44.55652	42.11581
	44.55417	42.1156
	44.55117	42.11562
	44.54708	42.11568
	44.54699	42.115
	44.54722	42.11339
	44.54527	42.1116
	44.54303	42.10976
	44.54192	42.10867
	44.54155	42.10816
	44.54063	42.10551
	44.53966	42.10396
	44.53748	42.10198
	44.53646	42.1009
	44.53459	42.10077
	44.53196	42.10074
	44.5309	42.09988
	44.52996	42.09936
	44.52931	42.09902
	44.52629	42.09797
	44.52574	42.09734
	44.52499	42.09621
	44.5242	42.09551
	44.52181	42.09488
	44.52106	42.09446
	44.52118	42.09295
	44.52042	42.09168
	44.52032	42.09096
	44.52065	42.08869
	44.52111	42.0872
	44.52187	42.08424
	44.52232	42.08332
	44.52261	42.08239
	44.52238	42.08102
	44.52189	42.07966
	44.52178	42.07779
	44.52192	42.07612
	44.52246	42.07513
	44.52386	42.07273
	44.52468	42.07191
	44.52503	42.07072
	44.52552	42.06832
	44.52573	42.06648
	44.52823	42.06767
	44.53259	42.06948
	44.53326	42.06936
	44.53587	42.06833
	44.53722	42.06847
	44.53999	42.07021
	44.54181	42.07208
	44.54277	42.07226
	44.544	42.07255
	44.54602	42.0731
	44.54696	42.07362
	44.54802	42.07406
	44.54894	42.07259
	44.55203	42.06922
	44.55331	42.0678
	44.55467	42.06634
	44.55604	42.06492
	44.55882	42.06214
	44.558	42.06172
	44.55635	42.06121
	44.55425	42.06048
	44.55262	42.05994
	44.55199	42.05945
	44.55129	42.05819
	44.55074	42.05659
	44.55021	42.05543
	44.549	42.05477
	44.54652	42.05373
	44.54505	42.05303
	44.54335	42.05227
	44.54183	42.05143
	44.54116	42.05084
	44.54064	42.05009
	44.54064	42.04963
	44.54109	42.04896
	44.54205	42.04855
	44.54277	42.04822
	44.5425	42.04781
	44.54189	42.04737
	44.54129	42.04696
	44.54126	42.04645
	44.54137	42.04559
	44.54035	42.04538
	44.53919	42.04543
	44.53892	42.0452
	44.53858	42.04408
	44.53849	42.04357
	44.53273	42.04137
	44.5314	42.04078
	44.52878	42.04238
	44.51066	42.05332
	44.50984	42.05372
	44.50896	42.05392
	44.50706	42.05402
	44.50539	42.05401
	44.50436	42.05422
	44.50389	42.05437
	44.50339	42.05454
	44.50073	42.05577
	44.49961	42.05656
	44.49868	42.05739
	44.49567	42.05855
	44.4947	42.0589
	44.49427	42.05908
	44.49342	42.05927
	44.49252	42.05949
	44.49163	42.0605
	44.49082	42.06243
	44.49013	42.06371
	44.48937	42.06482
	44.48875	42.06589
	44.48858	42.06622
	44.48814	42.06832
	44.48797	42.06898
	44.48337	42.06806
	44.48409	42.06496
	44.48457	42.06186
	44.48514	42.05965
	44.48545	42.05853
	44.48656	42.05554
	44.48747	42.05283
	44.4878	42.05088
	44.4884	42.04899
	44.49026	42.04565
	44.49041	42.04515
	44.48981	42.04472
	44.48925	42.04449
	44.48866	42.04427
	44.48843	42.04421
	44.4881	42.04416
	44.48678	42.04392
	44.48797	42.04188
	44.48757	42.04162
	44.48621	42.04157
	44.48548	42.04169
	44.48316	42.04568
	44.48298	42.0437
	44.4817	42.04355
	44.47952	42.04523
	44.47764	42.04654
	44.47518	42.04638
	44.47243	42.0452
	44.47155	42.04431
	44.47026	42.04526
	44.467	42.04664
	44.46265	42.0475
	44.45664	42.04747
	44.45063	42.0473
	44.446	42.04706
	44.43561	42.04664
	44.43522	42.04678
	44.42963	42.05447
	44.42845	42.05453
	44.42638	42.05438
	44.42029	42.05236
	44.41743	42.0522
	44.41634	42.05249
	44.40814	42.05487
	44.40548	42.05523
	44.39868	42.05519
	44.39572	42.05473
	44.39247	42.0545
	44.38737	42.05241
	44.38658	42.05233
	44.37859	42.05288
	44.36922	42.05444
	44.36685	42.0548
	44.36577	42.05413
	44.36529	42.05317
	44.3649	42.0528
	44.36541	42.0513
	44.36541	42.05046
	44.36464	42.04869
	44.36377	42.04714
	44.36031	42.04357
	44.35874	42.04297
	44.35686	42.04311
	44.34759	42.04394
	44.34681	42.04371
	44.34564	42.04275
	44.34465	42.04267
	44.33578	42.04277
	44.33529	42.04233
	44.33484	42.0385
	44.33425	42.03828
	44.32873	42.03876
	44.32795	42.03839
	44.32612	42.03449
	44.32534	42.03368
	44.32492	42.03154
	44.32383	42.02735
	44.3219	42.02286
	44.31895	42.02247
	44.31812	42.02232
	44.31596	42.02165
	44.31409	42.02164
	44.3125	42.02251
	44.31052	42.0233
	44.30824	42.02439
	44.30667	42.02438
	44.30519	42.0245
	44.30337	42.02491
	44.30251	42.02671
	44.30201	42.03633
	44.30259	42.03736
	44.30406	42.03803
	44.31289	42.04124
	44.31386	42.04235
	44.31413	42.04477
	44.31351	42.04749
	44.3135	42.04895
	44.31289	42.05079
	44.31179	42.05203
	44.31157	42.05394
	44.30988	42.05526
	44.30889	42.05591
	44.30917	42.05709
	44.31122	42.05923
	44.31169	42.061
	44.31177	42.06237
	44.31192	42.06401
	44.3118	42.065
	44.31155	42.06633
	44.31008	42.06634
	44.31009	42.06784
	44.30938	42.06833
	44.30899	42.06849
	44.30866	42.0686
	44.30778	42.06877
	44.30744	42.06879
	44.30718	42.06882
	44.30671	42.06883
	44.30652	42.06885
	44.30629	42.0689
	44.30624	42.06865
	44.30559	42.06861
	44.30539	42.06996
	44.30562	42.07086
	44.30618	42.07391
	44.30646	42.07494
	44.30596	42.07564
	44.30498	42.0756
	44.30439	42.0753
	44.3041	42.07449
	44.30391	42.07386
	44.30239	42.07345
	44.30097	42.07249
	44.2941	42.06969
	44.29317	42.06933
	44.29318	42.06786
	44.29241	42.06697
	44.29195	42.06374
	44.29137	42.06263
	44.2872	42.05658
	44.284	42.05204
	44.28608	42.04184
	44.28334	42.04043
	44.28298	42.03705
	44.27856	42.03636
	44.27816	42.03702
	44.27785	42.04701
	44.27078	42.04424
	44.26877	42.04746
	44.26276	42.04764
	44.26157	42.0483
	44.26186	42.04918
	44.26535	42.0539
	44.26711	42.0548
	44.2674	42.05546
	44.25987	42.05886
	44.25977	42.0593
	44.26172	42.06123
	44.26992	42.05929
	44.27225	42.06247
	44.26794	42.0631
	44.26868	42.06479
	44.26422	42.06616
	44.2678	42.07221
	44.27007	42.0723
	44.2721	42.07525
	44.2753	42.08031
	44.2781	42.08591
	44.27896	42.08804
	44.27539	42.08934
	44.27568	42.09037
	44.28005	42.09583
	44.28014	42.09686
	44.28002	42.09862
	44.28584	42.09888
	44.28582	42.10064
	44.2794	42.10097
	44.27869	42.10332
	44.28213	42.10429
	44.28151	42.10696
	44.27883	42.10775
	44.27932	42.10871
	44.28176	42.11027
	44.28205	42.1113
	44.28026	42.11195
	44.26693	42.11333
	44.26537	42.11237
	44.26303	42.10978
	44.25416	42.10936
	44.25243	42.11383
	44.24909	42.12042
	44.2483	42.12063
	44.24449	42.12092
	44.24248	42.12208
	44.24195	42.12394
	44.24085	42.12447
	44.23949	42.12407
	44.23857	42.12268
	44.2365	42.11878
	44.2334	42.11885
	44.23198	42.11946
	44.23017	42.12266
	44.22919	42.12358
	44.22689	42.12512
	44.22609	42.12585
	44.22394	42.1262
	44.22294	42.127
	44.22346	42.12709
	44.22332	42.12794
	44.22353	42.12785
	44.22366	42.12818
	44.22382	42.12873
	44.22395	42.12939
	44.22399	42.12976
	44.22398	42.13034
	44.22388	42.13083
	44.22382	42.131
	44.22351	42.13158
	44.2231	42.13206
	44.22298	42.13244
	44.22276	42.13289
	44.2224	42.13339
	44.22224	42.13359
	44.22221	42.13361
	44.22647	42.13484
	44.2287	42.13501
	44.22882	42.13575
	44.22851	42.13817
	44.22815	42.13983
	44.22574	42.14
	44.22076	42.14005
	44.22007	42.14887
	44.22094	42.15136
	44.21985	42.15216
	44.21431	42.15264
	44.21287	42.14947
	44.21021	42.14916
	44.20846	42.14679
	44.20778	42.14657
	44.20005	42.14894
	44.19888	42.15775
	44.20021	42.16065
	44.19934	42.16406
	44.19688	42.16508
	44.1959	42.16486
	44.19512	42.1639
	44.19489	42.15861
	44.19383	42.15698
	44.19187	42.15579
	44.19194	42.15036
	44.19345	42.14795
	44.19318	42.14618
	44.18963	42.14572
	44.1883	42.14916
	44.18566	42.1473
	44.18251	42.14655
	44.18007	42.14484
	44.17786	42.14619
	44.17525	42.14726
	44.1734	42.1487
	44.17156	42.14846
	44.17054	42.14771
	44.17012	42.1441
	44.16796	42.14039
	44.16728	42.13969
	44.16576	42.13928
	44.16027	42.13861
	44.15731	42.1376
	44.15563	42.13445
	44.15216	42.12833
	44.15207	42.12833
	44.15108	42.12703
	44.15091	42.1271
	44.14555	42.11747
	44.1461	42.11648
	44.14128	42.10811
	44.13834	42.10785
	44.13798	42.11041
	44.13501	42.11096
	44.13402	42.11492
	44.13048	42.11503
	44.1301	42.11694
	44.13114	42.11753
	44.13155	42.11828
	44.13047	42.11887
	44.13061	42.12032
	44.13114	42.12191
	44.1298	42.12435
	44.12564	42.12744
	44.1298	42.13804
	44.13168	42.1376
	44.13692	42.13446
	44.13416	42.13312
	44.14491	42.12729
	44.15027	42.13772
	44.1463	42.13891
	44.14363	42.13961
	44.14539	42.14311
	44.14303	42.14418
	44.14464	42.14601
	44.14276	42.148
	44.14368	42.14957
	44.14443	42.15281
	44.14008	42.15351
	44.1368	42.15473
	44.1355	42.15626
	44.13332	42.15669
	44.1334	42.15816
	44.1318	42.15969
	44.13012	42.1596
	44.1301	42.16107
	44.12991	42.16193
	44.13051	42.16366
	44.13247	42.16532
	44.13407	42.16687
	44.13454	42.16893
	44.13707	42.17144
	44.13696	42.17262
	44.13566	42.17341
	44.13368	42.17362
	44.13142	42.17302
	44.13044	42.17271
	44.12909	42.17166
	44.1268	42.16972
	44.12327	42.16823
	44.12194	42.16792
	44.11885	42.16863
	44.1175	42.17198
	44.11197	42.17312
	44.10909	42.17424
	44.10895	42.17688
	44.10805	42.17813
	44.11075	42.1821
	44.11118	42.18482
	44.11116	42.18676
	44.11059	42.18734
	44.10869	42.18792
	44.10599	42.18796
	44.10335	42.19014
	44.10117	42.19277
	44.10115	42.19424
	44.10063	42.19742
	44.10081	42.20119
	44.10141	42.20391
	44.10274	42.20492
	44.10471	42.20605
	44.10541	42.20688
	44.10643	42.2073
	44.1061	42.20807
	44.10475	42.20845
	44.10498	42.20952
	44.10685	42.21142
	44.10589	42.21235
	44.10056	42.21325
	44.0973	42.21423
	44.09584	42.21639
	44.09603	42.21981
	44.09663	42.22211
	44.09398	42.22474
	44.09254	42.22597
	44.09212	42.2272
	44.09098	42.22979
	44.08937	42.2313
	44.08623	42.23436
	44.08137	42.23627
	44.07742	42.23739
	44.07453	42.23786
	44.07407	42.23662
	44.07337	42.23579
	44.07195	42.23572
	44.07091	42.23624
	44.07081	42.23725
	44.07135	42.23843
	44.07109	42.23978
	44.06982	42.24036
	44.06567	42.24239
	44.06339	42.2406
	44.0608	42.23899
	44.06241	42.23623
	44.06088	42.23569
	44.05813	42.23466
	44.05687	42.23439
	44.05563	42.2345
	44.05419	42.23341
	44.05088	42.23218
	44.04959	42.23176
	44.04798	42.23101
	44.04692	42.22998
	44.04705	42.22792
	44.04508	42.22726
	44.04356	42.22651
	44.04419	42.2251
	44.04307	42.22401
	44.04419	42.22157
	44.04389	42.22041
	44.04265	42.21985
	44.04126	42.21847
	44.04008	42.21709
	44.03985	42.21688
	44.03927	42.21666
	44.03901	42.21679
	44.03817	42.2166
	44.03646	42.2159
	44.03287	42.21461
	44.03287	42.21578
	44.03258	42.21679
	44.03131	42.21677
	44.03091	42.21682
	44.03001	42.21675
	44.03005	42.2163
	44.02905	42.21609
	44.02803	42.21607
	44.02727	42.21627
	44.02609	42.21671
	44.02451	42.21651
	44.02297	42.21646
	44.02158	42.21719
	44.0183	42.2168
	44.01697	42.21663
	44.01616	42.21619
	44.01124	42.21657
	44.00712	42.21601
	44.0055	42.2162
	43.99817	42.21639
	43.99352	42.21552
	43.98753	42.21511
	43.98949	42.20902
	43.98791	42.20888
	43.98593	42.20891
	43.98384	42.20851
	43.9841	42.20815
	43.98435	42.20757
	43.98439	42.20742
	43.98444	42.20694
	43.98444	42.20667
	43.98418	42.20567
	43.98387	42.20524
	43.98378	42.20514
	43.983	42.20462
	43.98284	42.20456
	43.98261	42.20452
	43.98269	42.20354
	43.97874	42.20393
	43.97732	42.20348
	43.97685	42.20305
	43.97613	42.20168
	43.97512	42.20066
	43.97476	42.20042
	43.9741	42.19979
	43.97244	42.19969
	43.97104	42.19993
	43.96742	42.20167
	43.96613	42.20296
	43.95855	42.2058
	43.94211	42.21063
	43.93724	42.21082
	43.9269	42.21516
	43.92349	42.21347
	43.91454	42.2185
	43.9086	42.22116
	43.90609	42.21821
	43.90968	42.21573
	43.91325	42.21492
	43.9209	42.20934
	43.92545	42.20726
	43.92728	42.20531
	43.93022	42.20448
	43.93023	42.20344
	43.92983	42.20243
	43.9277	42.20188
	43.92319	42.20131
	43.91696	42.1996
	43.91794	42.19823
	43.91867	42.19712
	43.91869	42.19583
	43.92193	42.19615
	43.92377	42.19605
	43.92508	42.19589
	43.92638	42.19555
	43.93007	42.19432
	43.92926	42.19252
	43.92813	42.18971
	43.92706	42.18904
	43.9246	42.18846
	43.92444	42.18811
	43.92728	42.18442
	43.92861	42.18203
	43.92666	42.17919
	43.92622	42.17749
	43.92513	42.17688
	43.92371	42.17532
	43.92172	42.17384
	43.91848	42.17293
	43.91726	42.17188
	43.91606	42.16693
	43.91467	42.16369
	43.91479	42.16172
	43.91352	42.15928
	43.91195	42.15835
	43.8953	42.15889
	43.89194	42.15991
	43.88816	42.15936
	43.88655	42.15973
	43.88533	42.16029
	43.88465	42.16055
	43.88223	42.16118
	43.88091	42.16194
	43.88055	42.16239
	43.88049	42.16309
	43.87963	42.16384
	43.87981	42.16561
	43.87913	42.1674
	43.87756	42.16794
	43.87572	42.16869
	43.87409	42.1698
	43.87219	42.17043
	43.87065	42.1704
	43.86936	42.16993
	43.86886	42.16917
	43.86879	42.16817
	43.86946	42.16702
	43.86932	42.16576
	43.86912	42.16512
	43.86879	42.1643
	43.86825	42.16387
	43.86767	42.16358
	43.86731	42.16327
	43.86594	42.16321
	43.86642	42.1597
	43.86708	42.15906
	43.86762	42.15861
	43.86871	42.15816
	43.87058	42.15735
	43.87102	42.15707
	43.87285	42.15503
	43.87308	42.15252
	43.87285	42.15176
	43.87227	42.15131
	43.87037	42.15155
	43.8657	42.15345
	43.86475	42.15309
	43.86503	42.15258
	43.87143	42.14708
	43.87232	42.146
	43.87339	42.143
	43.87319	42.14164
	43.87102	42.13921
	43.86803	42.13672
	43.86901	42.13607
	43.87242	42.13396
	43.87364	42.13278
	43.86885	42.13228
	43.86701	42.1303
	43.86554	42.1313
	43.86449	42.13277
	43.86297	42.13358
	43.86044	42.13355
	43.85807	42.13306
	43.85862	42.12864
	43.85745	42.12654
	43.85832	42.12501
	43.85594	42.1249
	43.85478	42.12268
	43.85409	42.12158
	43.8514	42.11682
	43.85048	42.1141
	43.84928	42.11192
	43.84927	42.11042
	43.84725	42.10911
	43.84483	42.10903
	43.84071	42.10946
	43.83885	42.10724
	43.83708	42.10802
	43.83941	42.11272
	43.83662	42.11358
	43.83485	42.11132
	43.82504	42.11523
	43.8231	42.11356
	43.81956	42.11641
	43.81625	42.1159
	43.81502	42.11813
	43.81316	42.12041
	43.80835	42.11959
	43.80795	42.12368
	43.80628	42.1242
	43.80298	42.12304
	43.79783	42.12358
	43.79708	42.12958
	43.79177	42.13005
	43.79125	42.13234
	43.79297	42.13325
	43.79802	42.13448
	43.79648	42.13611
	43.79655	42.14079
	43.79242	42.14181
	43.79141	42.14062
	43.7899	42.14072
	43.78743	42.14176
	43.78331	42.14613
	43.78422	42.14826
	43.78571	42.14893
	43.79092	42.14975
	43.79205	42.1487
	43.79727	42.14858
	43.79901	42.14889
	43.80315	42.1474
	43.81282	42.15109
	43.80993	42.15348
	43.80905	42.15783
	43.80959	42.15901
	43.80956	42.16054
	43.80867	42.16136
	43.80408	42.16131
	43.802	42.16253
	43.80042	42.16198
	43.79693	42.1623
	43.79576	42.16146
	43.79386	42.16144
	43.79294	42.1599
	43.79231	42.15983
	43.79086	42.16123
	43.78598	42.15977
	43.78429	42.16116
	43.77932	42.15999
	43.77858	42.16157
	43.77707	42.16173
	43.77042	42.16166
	43.76963	42.16572
	43.76445	42.16572
	43.74915	42.16638
	43.74827	42.1669
	43.74613	42.16705
	43.74404	42.1688
	43.74269	42.16867
	43.73849	42.16509
	43.73677	42.16412
	43.73398	42.16468
	43.73156	42.16731
	43.72996	42.16782
	43.72774	42.16803
	43.72624	42.1679
	43.72626	42.16707
	43.72715	42.16579
	43.72757	42.1645
	43.72838	42.16397
	43.72903	42.16292
	43.72999	42.16234
	43.73119	42.16188
	43.73206	42.16178
	43.73334	42.16096
	43.73313	42.15973
	43.73053	42.15934
	43.72902	42.15962
	43.72567	42.16088
	43.72519	42.16087
	43.72236	42.1599
	43.72055	42.15941
	43.71849	42.15974
	43.71514	42.16047
	43.71245	42.16038
	43.71089	42.1593
	43.71151	42.1584
	43.71297	42.15659
	43.71649	42.15481
	43.71664	42.1511
	43.71443	42.15084
	43.71415	42.14877
	43.71352	42.14859
	43.71099	42.1485
	43.71151	42.1465
	43.70995	42.14543
	43.70998	42.14425
	43.71115	42.14388
	43.71254	42.14427
	43.71349	42.1431
	43.71359	42.14309
	43.714	42.14282
	43.7142	42.14252
	43.71469	42.14191
	43.71506	42.14157
	43.7153	42.14139
	43.71637	42.141
	43.71655	42.14099
	43.71696	42.14101
	43.71743	42.14108
	43.71805	42.14128
	43.71882	42.14166
	43.71901	42.1422
	43.72064	42.14107
	43.72193	42.1399
	43.72383	42.14016
	43.72659	42.14061
	43.72858	42.13974
	43.72997	42.13758
	43.73064	42.13582
	43.73029	42.13381
	43.72958	42.13363
	43.72742	42.13472
	43.72389	42.13698
	43.72175	42.13708
	43.71803	42.13697
	43.71603	42.13819
	43.71442	42.13984
	43.71147	42.14081
	43.70912	42.14314
	43.70578	42.14387
	43.70224	42.14666
	43.69854	42.14962
	43.69811	42.15144
	43.69762	42.15232
	43.69569	42.15365
	43.69295	42.15615
	43.6915	42.15743
	43.69107	42.15914
	43.68857	42.16087
	43.6852	42.16338
	43.68326	42.16513
	43.68222	42.16565
	43.68034	42.1648
	43.67616	42.16387
	43.67268	42.16371
	43.66934	42.16426
	43.66655	42.16529
	43.66194	42.16615
	43.65866	42.16788
	43.65533	42.16778
	43.65342	42.16858
	43.6525	42.17063
	43.65169	42.17163
	43.64985	42.17255
	43.64903	42.17396
	43.64805	42.17495
	43.64545	42.17468
	43.64425	42.17496
	43.64352	42.17578
	43.64113	42.17657
	43.63409	42.17985
	43.6328	42.18095
	43.63253	42.1823
	43.63257	42.18419
	43.63296	42.18472
	43.63414	42.18503
	43.6357	42.18593
	43.63639	42.18718
	43.63635	42.18889
	43.63553	42.19035
	43.63349	42.19321
	43.63282	42.19483
	43.63268	42.19772
	43.63105	42.19952
	43.6296	42.20086
	43.62775	42.20162
	43.62664	42.20206
	43.62424	42.20315
	43.61982	42.20598
	43.61444	42.20957
	43.61267	42.21049
	43.61092	42.21106
	43.60821	42.21173
	43.60512	42.21164
	43.60252	42.21108
	43.59929	42.21021
	43.59834	42.21008
	43.59817	42.21043
	43.59874	42.21163
	43.59979	42.2143
	43.60076	42.21696
	43.60168	42.21856
	43.60212	42.2201
	43.60233	42.22134
	43.60465	42.22381
	43.60588	42.22577
	43.6061	42.23001
	43.60629	42.23225
	43.60791	42.23439
	43.61065	42.23566
	43.61183	42.23627
	43.61197	42.23703
	43.61106	42.23879
	43.60918	42.2413
	43.6079	42.24182
	43.60733	42.24275
	43.60825	42.244
	43.60982	42.2449
	43.61051	42.24574
	43.60865	42.24769
	43.60775	42.2488
	43.60738	42.25127
	43.60537	42.25254
	43.60743	42.25598
	43.61088	42.2615
	43.61369	42.26731
	43.61501	42.27562
	43.61492	42.27626
	43.6152	42.2778
	43.61581	42.27881
	43.61786	42.27972
	43.62124	42.28117
	43.62893	42.28468
	43.63203	42.28436
	43.63419	42.28368
	43.63579	42.28311
	43.63705	42.28354
	43.63709	42.28513
	43.63751	42.28808
	43.6393	42.28957
	43.64309	42.29421
	43.64681	42.29838
	43.6497	42.30036
	43.65842	42.30429
	43.66309	42.30511
	43.66774	42.30634
	43.66987	42.30731
	43.67173	42.30944
	43.67171	42.31039
	43.6719	42.31263
	43.67359	42.31488
	43.67443	42.3166
	43.674	42.31831
	43.67397	42.31984
	43.67347	42.32077
	43.67217	42.32241
	43.67199	42.32317
	43.67261	42.32406
	43.6733	42.32495
	43.6717	42.32588
	43.67158	42.32612
	43.67055	42.32751
	43.66749	42.3314
	43.66179	42.33446
	43.65638	42.33487
	43.64988	42.33461
	43.64478	42.33526
	43.63992	42.33638
	43.635	42.33626
	43.62952	42.33637
	43.62521	42.33709
	43.62183	42.33929
	43.6169	42.34335
	43.61118	42.34729
	43.6052	42.34978
	43.60121	42.35085
	43.59623	42.35338
	43.5947	42.35448
	43.59443	42.35589
	43.59556	42.35838
	43.59711	42.36022
	43.59837	42.36094
	43.60247	42.36194
	43.6061	42.36339
	43.60968	42.36626
	43.61358	42.36991
	43.61628	42.37339
	43.61788	42.37647
	43.62101	42.38228
	43.62248	42.38401
	43.62324	42.38549
	43.62315	42.38608
	43.61126	42.39224
	43.60495	42.39703
	43.60326	42.39813
	43.59971	42.4005
	43.59625	42.40246
	43.59431	42.40402
	43.59299	42.40625
	43.59278	42.4086
	43.59206	42.41587
	43.59231	42.42211
	43.59387	42.43091
	43.59299	42.43464
	43.5923	42.4371
	43.59136	42.43986
	43.58998	42.44132
	43.5881	42.44353
	43.58763	42.44635
	43.58759	42.44818
	43.58847	42.45155
	43.58778	42.45428
	43.58805	42.45622
	43.58751	42.45881
	43.587	42.46057
	43.58527	42.46308
	43.58508	42.46437
	43.58529	42.46585
	43.58396	42.46819
	43.58378	42.46925
	43.58503	42.46997
	43.58686	42.47029
	43.58875	42.47096
	43.59096	42.47193
	43.59205	42.47312
	43.59329	42.47443
	43.5958	42.47582
	43.60276	42.48138
	43.60298	42.48225
	43.60224	42.48324
	43.60214	42.48436
	43.60226	42.48601
	43.60239	42.48737
	43.60283	42.48885
	43.60361	42.48962
	43.60399	42.49051
	43.60318	42.49103
	43.60254	42.49155
	43.60306	42.49303
	43.60318	42.49468
	43.60291	42.49633
	43.60231	42.49797
	43.60226	42.50029
	43.60068	42.50333
	43.60054	42.50604
	43.60064	42.50863
	43.60297	42.51137
	43.60504	42.51511
	43.60588	42.5201
	43.6072	42.52506
	43.60953	42.53134
	43.61295	42.5355
	43.61743	42.53964
	43.61519	42.54397
	43.61415	42.54425
	43.60778	42.54377
	43.60309	42.54365
	43.59901	42.54431
	43.59594	42.54604
	43.59372	42.54948
	43.59335	42.55142
	43.59441	42.55748
	43.59464	42.56172
	43.59569	42.56451
	43.59749	42.56612
	43.59993	42.56721
	43.60263	42.56765
	43.60445	42.56809
	43.60524	42.56857
	43.6053	42.56928
	43.60466	42.56974
	43.60198	42.5703
	43.5983	42.57084
	43.59567	42.57057
	43.59354	42.56966
	43.59221	42.56847
	43.59159	42.56781
	43.5904	42.56768
	43.58974	42.56856
	43.58931	42.57008
	43.58942	42.57203
	43.58779	42.57383
	43.58384	42.57602
	43.58086	42.57705
	43.57991	42.5768
	43.57856	42.57666
	43.57808	42.57695
	43.58031	42.58202
	43.581	42.58321
	43.58453	42.58579
	43.59315	42.59255
	43.59668	42.59489
	43.60091	42.59806
	43.6039	42.60028
	43.60515	42.60135
	43.60783	42.6028
	43.60898	42.60458
	43.61157	42.60667
	43.6128	42.60869
	43.61527	42.61071
	43.61884	42.61116
	43.62442	42.61141
	43.62529	42.61183
	43.62604	42.6139
	43.62805	42.61669
	43.63043	42.61755
	43.63201	42.61798
	43.63294	42.61899
	43.63505	42.62114
	43.63701	42.62257
	43.63764	42.62323
	43.63754	42.62405
	43.63711	42.6256
	43.63693	42.62648
	43.63737	42.62819
	43.63813	42.63009
	43.63826	42.63109
	43.64054	42.63283
	43.64241	42.63503
	43.64396	42.63676
	43.64458	42.63765
	43.64599	42.63884
	43.64901	42.63935
	43.65012	42.63977
	43.65224	42.64151
	43.65359	42.64176
	43.6566	42.64256
	43.65771	42.64287
	43.65987	42.64277
	43.66274	42.64281
	43.66409	42.64335
	43.66565	42.64467
	43.66692	42.64533
	43.66755	42.6454
	43.66884	42.64506
	43.67186	42.64376
	43.67798	42.64088
	43.67981	42.64102
	43.68052	42.6415
	43.68139	42.64181
	43.68219	42.64188
	43.68267	42.64182
	43.68331	42.64177
	43.68426	42.64184
	43.68489	42.6422
	43.68552	42.6425
	43.68657	42.64234
	43.68784	42.64224
	43.68887	42.6426
	43.69013	42.64338
	43.69052	42.64397
	43.69139	42.6444
	43.69201	42.64505
	43.69215	42.64623
	43.69285	42.64712
	43.69419	42.64761
	43.69612	42.64704
	43.69704	42.64487
	43.69781	42.6427
	43.69885	42.64242
	43.6998	42.64302
	43.70031	42.64503
	43.70059	42.64674
	43.70182	42.64934
	43.70339	42.65054
	43.70454	42.65256
	43.70524	42.65368
	43.70654	42.65635
	43.70673	42.65865
	43.70695	42.65965
	43.70765	42.66072
	43.70914	42.66192
	43.71183	42.66312
	43.71387	42.66444
	43.71559	42.66658
	43.71736	42.66937
	43.71813	42.67103
	43.71835	42.67203
	43.71699	42.67378
	43.71601	42.67488
	43.71295	42.67626
	43.71116	42.67801
	43.7107	42.68083
	43.71115	42.68219
	43.71203	42.68214
	43.71418	42.68234
	43.71648	42.68343
	43.71825	42.6828
	43.71956	42.68117
	43.72068	42.68077
	43.72218	42.68161
	43.72353	42.6818
	43.72633	42.6816
	43.72671	42.68243
	43.72807	42.6825
	43.72984	42.68205
	43.73094	42.68253
	43.73149	42.68313
	43.73371	42.68386
	43.73498	42.68417
	43.73722	42.6839
	43.73924	42.68274
	43.74092	42.68246
	43.74404	42.6825
	43.74625	42.68341
	43.74895	42.68456
	43.75203	42.68594
	43.75581	42.68863
	43.75778	42.68989
	43.75864	42.69102
	43.75983	42.69145
	43.76077	42.69228
	43.76228	42.69277
	43.7637	42.69326
	43.76391	42.69467
	43.76453	42.69562
	43.76571	42.69681
	43.76625	42.6977
	43.76853	42.6992
	43.76891	42.70026
	43.77057	42.70146
	43.77339	42.70212
	43.77562	42.70244
	43.77814	42.704
	43.77906	42.70619
	43.78014	42.70791
	43.7822	42.70881
	43.78251	42.70952
	43.78321	42.71041
	43.78383	42.7113
	43.78565	42.71244
	43.78716	42.71281
	43.7873	42.71364
	43.78583	42.71533
	43.78586	42.71757
	43.7871	42.71976
	43.78962	42.72179
	43.79187	42.72485
	43.79385	42.73029
	43.79586	42.73768
	43.79562	42.74186
	43.79396	42.74594
	43.79958	42.74402
	43.80108	42.74369
	43.80418	42.74314
	43.80489	42.74241
	43.80613	42.74007
	43.80766	42.73833
	43.80797	42.73752
	43.8077	42.73613
	43.80596	42.7331
	43.80658	42.732
	43.80691	42.73031
	43.80588	42.727
	43.80492	42.72508
	43.80504	42.72427
	43.80767	42.7221
	43.80789	42.72107
	43.80459	42.71634
	43.80377	42.71496
	43.80212	42.71303
	43.80035	42.71184
	43.79857	42.71087
	43.7977	42.70968
	43.79585	42.70746
	43.79428	42.70642
	43.79381	42.70494
	43.79302	42.70427
	43.79265	42.70317
	43.79187	42.70199
	43.78971	42.70071
	43.78697	42.69826
	43.7871	42.69635
	43.78665	42.69414
	43.78501	42.69156
	43.78395	42.68978
	43.78209	42.688
	43.78211	42.6869
	43.78229	42.68516
	43.78182	42.68405
	43.78025	42.68279
	43.77947	42.68182
	43.7788	42.68042
	43.77875	42.67814
	43.77778	42.67703
	43.77452	42.67575
	43.77206	42.6744
	43.7706	42.67247
	43.76887	42.66922
	43.76607	42.66501
	43.76074	42.65783
	43.759	42.65509
	43.75744	42.65368
	43.75508	42.65226
	43.7537	42.6518
	43.75212	42.65109
	43.74755	42.6506
	43.74509	42.64962
	43.74232	42.64878
	43.73962	42.64912
	43.73872	42.64947
	43.73645	42.64879
	43.73478	42.64767
	43.73391	42.64648
	43.73354	42.64523
	43.73265	42.64456
	43.73078	42.6438
	43.7288	42.64319
	43.72761	42.64289
	43.72633	42.64229
	43.72445	42.64197
	43.72307	42.64137
	43.72169	42.64069
	43.72011	42.64001
	43.71884	42.63904
	43.71777	42.63771
	43.71639	42.63703
	43.71501	42.63658
	43.71458	42.63327
	43.71531	42.63195
	43.71652	42.63079
	43.71922	42.63009
	43.72111	42.63004
	43.7255	42.62964
	43.72769	42.6293
	43.73	42.62823
	43.73188	42.6268
	43.73192	42.62678
	43.73372	42.62628
	43.73645	42.62407
	43.73917	42.62241
	43.74079	42.62096
	43.7424	42.6198
	43.74323	42.61848
	43.74482	42.61821
	43.74791	42.6178
	43.7508	42.61769
	43.753	42.61712
	43.7542	42.61648
	43.75463	42.61508
	43.75539	42.61157
	43.75504	42.60951
	43.75359	42.60758
	43.75301	42.60633
	43.75395	42.60435
	43.75359	42.60259
	43.75203	42.60059
	43.75334	42.59965
	43.75626	42.59777
	43.75949	42.59579
	43.7632	42.59399
	43.76442	42.59275
	43.76574	42.59101
	43.77046	42.58878
	43.77334	42.58859
	43.7788	42.58916
	43.78276	42.59016
	43.78572	42.59093
	43.78659	42.59233
	43.78775	42.59374
	43.78801	42.59616
	43.78937	42.59735
	43.79315	42.59732
	43.79602	42.59786
	43.79903	42.599
	43.80062	42.59938
	43.80421	42.59891
	43.80539	42.59906
	43.80727	42.59967
	43.80916	42.59962
	43.81016	42.59911
	43.8127	42.59635
	43.81483	42.59439
	43.81633	42.59382
	43.81882	42.5937
	43.82179	42.59395
	43.82399	42.59353
	43.82598	42.59347
	43.82835	42.59394
	43.83043	42.59477
	43.83228	42.59655
	43.83405	42.59782
	43.83483	42.59819
	43.83642	42.59872
	43.8387	42.59867
	43.84131	42.59767
	43.84412	42.59608
	43.84833	42.594
	43.85072	42.59358
	43.85223	42.59286
	43.85323	42.59243
	43.85483	42.59215
	43.85801	42.59182
	43.86071	42.59118
	43.86311	42.5904
	43.8658	42.58998
	43.8676	42.58905
	43.87123	42.58622
	43.87265	42.58498
	43.87296	42.58403
	43.87329	42.5822
	43.87422	42.58023
	43.87463	42.57986
	43.87612	42.57995
	43.88135	42.58176
	43.88186	42.58126
	43.88228	42.57972
	43.8828	42.57833
	43.88411	42.57753
	43.88531	42.57718
	43.88918	42.57751
	43.89176	42.57753
	43.89743	42.57751
	43.89862	42.57753
	43.90022	42.57666
	43.90282	42.5758
	43.90462	42.57538
	43.9068	42.57547
	43.90839	42.57542
	43.90964	42.57518
	43.9116	42.57079
	43.91244	42.56867
	43.91493	42.56825
	43.91683	42.56754
	43.91944	42.5658
	43.92153	42.56538
	43.92422	42.56526
	43.92652	42.56454
	43.92971	42.56369
	43.93141	42.56305
	43.9356	42.56169
	43.9382	42.56113
	43.93948	42.56158
	43.94226	42.56146
	43.94607	42.55966
	43.9475	42.55754
	43.9476	42.55718
	43.94788	42.55553
	43.94641	42.55441
	43.94433	42.55388
	43.94295	42.5532
	43.94358	42.55145
	43.94489	42.55036
	43.94688	42.55008
	43.94886	42.55047
	43.95131	42.5524
	43.95249	42.55278
	43.95338	42.553
	43.95478	42.55243
	43.95599	42.55156
	43.95797	42.55172
	43.961	42.54881
	43.96271	42.54751
	43.96451	42.54694
	43.96501	42.54694
	43.96607	42.54893
	43.96733	42.55042
	43.96931	42.55117
	43.97178	42.55156
	43.97356	42.55223
	43.97403	42.55363
	43.97371	42.5551
	43.9734	42.55612
	43.97368	42.55723
	43.97384	42.55914
	43.9756	42.56084
	43.97865	42.56216
	43.98034	42.56287
	43.98371	42.56349
	43.98589	42.5638
	43.98686	42.56513
	43.98874	42.56588
	43.99032	42.56626
	43.9914	42.5673
	43.99068	42.56876
	43.98996	42.56993
	43.99407	42.57415
	43.99703	42.57521
	43.9993	42.57618
	43.99979	42.57663
	44.0002	42.57902
	44.00253	42.58234
	44.00328	42.58514
	44.00526	42.58589
	44.0076	42.58863
	44.01034	42.59137
	44.01439	42.59309
	44.01894	42.59409
	44.02091	42.59557
	44.02178	42.5972
	44.02465	42.59766
	44.02981	42.59851
	44.03407	42.59928
	44.03705	42.59931
	44.03885	42.59896
	44.03984	42.59933
	44.04061	42.60051
	44.04282	42.60246
	44.04758	42.60316
	44.05354	42.60328
	44.05732	42.60324
	44.06022	42.60209
	44.06343	42.60065
	44.06532	42.60015
	44.06789	42.6012
	44.07185	42.6024
	44.07463	42.60265
	44.07722	42.60238
	44.0789	42.6029
	44.08305	42.6047
	44.08562	42.60545
	44.08781	42.60547
	44.0899	42.60497
	44.09039	42.60556
	44.09124	42.60888
	44.09341	42.60977
	44.09737	42.61127
	44.10103	42.61248
	44.10388	42.61449
	44.10516	42.61568
	44.10744	42.61628
	44.10983	42.61615
	44.11112	42.61587
	44.11538	42.6173
	44.11807	42.61688
	44.12027	42.61609
	44.12667	42.61313
	44.12757	42.61284
	44.13195	42.61295
	44.13494	42.61194
	44.13634	42.61136
	44.13844	42.61064
	44.14006	42.60838
	44.14106	42.6078
	44.14385	42.60753
	44.14625	42.60674
	44.14866	42.60492
	44.15055	42.60479
	44.15154	42.60516
	44.15589	42.60703
	44.15807	42.60705
	44.15937	42.60669
	44.16221	42.60627
	44.16428	42.60731
	44.16536	42.60871
	44.16653	42.61056
	44.16811	42.61153
	44.17019	42.61147
	44.17069	42.61162
	44.17591	42.61577
	44.18004	42.61918
	44.18261	42.62025
	44.18418	42.6218
	44.18485	42.6235
	44.18482	42.62563
	44.18539	42.62798
	44.18755	42.63035
	44.1914	42.63236
	44.19557	42.6329
	44.19916	42.63249
	44.20165	42.63162
	44.20336	42.63046
	44.20505	42.63047
	44.20723	42.63078
	44.20992	42.63102
	44.21211	42.63074
	44.21449	42.63134
	44.21917	42.63042
	44.22126	42.63073
	44.22364	42.63074
	44.22484	42.63061
	44.22843	42.62967
	44.23013	42.62902
	44.23185	42.62669
END
END
