Spain_Catalonia_Provincia de Barcelona
1
	3.48349	41.15323
	1.763941	39.61645
	1.10641	40.3242
	1.77072	40.87134
	1.646192	41.19177
	1.645727	41.19493
	1.645419	41.19561
	1.645198	41.19595
	1.644464	41.1968
	1.643965	41.19732
	1.643344	41.19817
	1.64414	41.20043
	1.643948	41.20072
	1.641981	41.20159
	1.64184	41.20157
	1.641426	41.20101
	1.64109	41.20155
	1.640917	41.20397
	1.641238	41.21175
	1.645894	41.21183
	1.646542	41.21189
	1.646295	41.20858
	1.64808	41.2087
	1.649378	41.20868
	1.649949	41.20849
	1.65052	41.20797
	1.652256	41.20706
	1.653151	41.20741
	1.647854	41.21224
	1.647615	41.21643
	1.645886	41.21828
	1.643949	41.22039
	1.645405	41.22592
	1.645605	41.22593
	1.645813	41.22597
	1.646241	41.22609
	1.646461	41.22618
	1.646848	41.22639
	1.646999	41.22649
	1.647336	41.22678
	1.647724	41.22728
	1.647825	41.22747
	1.648057	41.2282
	1.648078	41.22838
	1.647977	41.22927
	1.647915	41.22945
	1.647644	41.22989
	1.647137	41.22847
	1.644579	41.22726
	1.643372	41.22982
	1.643472	41.2301
	1.642758	41.23062
	1.642628	41.23079
	1.642257	41.23135
	1.641608	41.23208
	1.640974	41.23291
	1.64057	41.23396
	1.640558	41.23412
	1.640389	41.23397
	1.640001	41.2337
	1.639835	41.23361
	1.637128	41.23443
	1.637392	41.2353
	1.634977	41.23496
	1.634296	41.23405
	1.634158	41.23366
	1.633492	41.23334
	1.632671	41.23301
	1.631901	41.23247
	1.631687	41.23223
	1.63158	41.22973
	1.631849	41.22936
	1.632185	41.22877
	1.632322	41.22858
	1.632347	41.22833
	1.631871	41.22733
	1.631083	41.22447
	1.623696	41.2234
	1.622993	41.22386
	1.62236	41.2239
	1.621498	41.22369
	1.621407	41.22322
	1.620288	41.22384
	1.620436	41.2258
	1.620063	41.22624
	1.618628	41.22693
	1.618066	41.22696
	1.617437	41.22702
	1.616761	41.22702
	1.616642	41.2269
	1.616472	41.22748
	1.615974	41.22777
	1.61554	41.2283
	1.614911	41.22866
	1.614781	41.22871
	1.614211	41.22959
	1.609214	41.23112
	1.60604	41.2333
	1.602557	41.23482
	1.593806	41.23402
	1.590145	41.23542
	1.585847	41.23663
	1.584611	41.23765
	1.584159	41.23775
	1.58321	41.23847
	1.58301	41.23874
	1.582111	41.23941
	1.58109	41.2398
	1.58074	41.23996
	1.580654	41.23978
	1.579584	41.23994
	1.579392	41.24028
	1.578702	41.24115
	1.578459	41.24177
	1.578371	41.24257
	1.578264	41.24274
	1.578148	41.2433
	1.577389	41.24507
	1.576559	41.2465
	1.576387	41.24729
	1.57593	41.24827
	1.57554	41.24968
	1.575912	41.25005
	1.576319	41.25127
	1.576286	41.25182
	1.57614	41.25245
	1.575661	41.25363
	1.575418	41.25527
	1.575015	41.25616
	1.574365	41.25711
	1.573645	41.25773
	1.571175	41.25995
	1.570156	41.26073
	1.572166	41.2603
	1.576606	41.25895
	1.583228	41.25758
	1.585031	41.25743
	1.588326	41.25779
	1.59058	41.25811
	1.594303	41.25897
	1.593482	41.25798
	1.596208	41.2567
	1.594931	41.2555
	1.595283	41.25525
	1.59563	41.25509
	1.59619	41.25508
	1.597843	41.25552
	1.599198	41.2563
	1.596968	41.25341
	1.599172	41.25354
	1.6025	41.25336
	1.605246	41.25187
	1.605966	41.25039
	1.611405	41.25054
	1.612746	41.25095
	1.612651	41.25163
	1.615384	41.25215
	1.616554	41.25249
	1.616755	41.25277
	1.618145	41.25518
	1.619676	41.25366
	1.620326	41.25442
	1.621293	41.25474
	1.621892	41.25508
	1.62201	41.25513
	1.622301	41.25542
	1.622027	41.2557
	1.621614	41.25605
	1.620974	41.2565
	1.62116	41.25741
	1.622529	41.25939
	1.623863	41.26256
	1.623971	41.2629
	1.622463	41.26386
	1.622505	41.26422
	1.622749	41.26509
	1.623019	41.26623
	1.623179	41.2664
	1.625465	41.26803
	1.62656	41.26874
	1.627479	41.26946
	1.626994	41.27089
	1.626231	41.27209
	1.626152	41.27232
	1.625713	41.27252
	1.6259	41.27298
	1.625806	41.27317
	1.625612	41.27329
	1.623609	41.27382
	1.623453	41.27399
	1.623481	41.27421
	1.623918	41.27465
	1.623982	41.27489
	1.62377	41.27577
	1.623813	41.27604
	1.623733	41.27626
	1.623362	41.27641
	1.622884	41.27641
	1.621461	41.27619
	1.620924	41.27637
	1.620383	41.27665
	1.620006	41.27706
	1.62598	41.28002
	1.62601	41.28128
	1.629184	41.28278
	1.62806	41.28427
	1.629041	41.28599
	1.629542	41.28885
	1.627086	41.29108
	1.627781	41.29466
	1.630909	41.29466
	1.633411	41.29442
	1.636791	41.29595
	1.635025	41.29732
	1.633162	41.29849
	1.631207	41.29887
	1.627756	41.296
	1.62647	41.29639
	1.624888	41.29664
	1.619149	41.29416
	1.616365	41.29311
	1.614188	41.29051
	1.614038	41.28787
	1.612677	41.28568
	1.612056	41.28516
	1.61169	41.28539
	1.611223	41.28554
	1.610485	41.28558
	1.609564	41.28538
	1.608929	41.28535
	1.608525	41.28554
	1.608299	41.28572
	1.607814	41.28647
	1.607666	41.2869
	1.607379	41.28724
	1.607121	41.28713
	1.607003	41.28699
	1.606841	41.28637
	1.606695	41.28617
	1.606259	41.28608
	1.605594	41.28612
	1.604843	41.28649
	1.604397	41.28659
	1.60276	41.28673
	1.602382	41.28696
	1.602301	41.28717
	1.602424	41.28756
	1.60268	41.28781
	1.603099	41.288
	1.60437	41.28824
	1.604513	41.28857
	1.604456	41.28878
	1.604158	41.28895
	1.603363	41.28919
	1.602618	41.28929
	1.602281	41.28926
	1.601729	41.28904
	1.600535	41.28939
	1.59945	41.28924
	1.599023	41.28928
	1.598565	41.28956
	1.597953	41.29018
	1.597073	41.29143
	1.596351	41.29202
	1.595856	41.29228
	1.595373	41.29237
	1.595304	41.29208
	1.594883	41.29186
	1.594393	41.29185
	1.592492	41.29215
	1.591853	41.2924
	1.591269	41.29293
	1.590305	41.29348
	1.58958	41.29369
	1.588222	41.29356
	1.588144	41.29399
	1.588806	41.29457
	1.589849	41.29532
	1.590154	41.29575
	1.590395	41.29628
	1.590374	41.29684
	1.590221	41.29721
	1.589949	41.29759
	1.591171	41.30088
	1.592149	41.30189
	1.593412	41.30439
	1.593425	41.30492
	1.595633	41.30762
	1.595505	41.30885
	1.594978	41.30934
	1.594158	41.30973
	1.59424	41.31056
	1.592375	41.31156
	1.586966	41.31224
	1.584143	41.31353
	1.5814	41.31444
	1.578242	41.3159
	1.57475	41.31515
	1.573371	41.31729
	1.574216	41.32237
	1.573721	41.32484
	1.572993	41.32571
	1.570041	41.32807
	1.569394	41.32957
	1.568549	41.33048
	1.569035	41.33145
	1.569195	41.33253
	1.568728	41.33338
	1.565861	41.33901
	1.565882	41.33931
	1.565786	41.33965
	1.565624	41.3399
	1.565309	41.34017
	1.561275	41.34246
	1.560316	41.34276
	1.558659	41.34315
	1.559565	41.34482
	1.566518	41.35044
	1.570466	41.3529
	1.573613	41.35536
	1.578786	41.35635
	1.578504	41.35693
	1.578253	41.35711
	1.578032	41.35736
	1.57805	41.35762
	1.578237	41.35789
	1.578614	41.35815
	1.578714	41.35838
	1.57844	41.3584
	1.578016	41.35832
	1.577786	41.35845
	1.577527	41.35885
	1.577444	41.35953
	1.577539	41.35986
	1.577762	41.36014
	1.577745	41.36041
	1.577187	41.36081
	1.577236	41.36099
	1.577459	41.36111
	1.578257	41.36124
	1.57811	41.3617
	1.57808	41.36213
	1.57796	41.36246
	1.577697	41.36262
	1.576545	41.36274
	1.575266	41.36308
	1.574094	41.36322
	1.57384	41.36319
	1.573654	41.36309
	1.57356	41.36294
	1.57345	41.3624
	1.573287	41.36212
	1.573059	41.36194
	1.571109	41.36123
	1.570821	41.36121
	1.570501	41.36141
	1.570289	41.36164
	1.570239	41.36195
	1.570304	41.36338
	1.570412	41.3639
	1.570289	41.36454
	1.569908	41.36472
	1.56918	41.36491
	1.569043	41.36517
	1.569026	41.36544
	1.569275	41.36593
	1.569903	41.36635
	1.570405	41.36652
	1.569453	41.36726
	1.569351	41.36837
	1.569194	41.36852
	1.568962	41.36862
	1.568188	41.36866
	1.567848	41.36892
	1.567659	41.3693
	1.567463	41.3694
	1.567186	41.36938
	1.566561	41.36915
	1.565631	41.36918
	1.565243	41.36928
	1.565062	41.36926
	1.564875	41.36915
	1.564073	41.36896
	1.563264	41.36917
	1.562969	41.36974
	1.561614	41.36866
	1.560946	41.36834
	1.559783	41.36794
	1.559248	41.36798
	1.557244	41.36838
	1.555859	41.36858
	1.554619	41.36811
	1.554026	41.368
	1.553058	41.36817
	1.552157	41.36811
	1.551917	41.36827
	1.551631	41.36862
	1.551008	41.36946
	1.549906	41.37045
	1.549678	41.37079
	1.548615	41.37166
	1.548176	41.37186
	1.547889	41.37256
	1.547304	41.37308
	1.5473	41.37336
	1.547146	41.37356
	1.546734	41.37365
	1.546627	41.37382
	1.54704	41.37528
	1.547242	41.37562
	1.547496	41.37583
	1.547509	41.37618
	1.547289	41.3768
	1.546999	41.37727
	1.545717	41.37895
	1.545672	41.37916
	1.54578	41.37933
	1.544285	41.38017
	1.543919	41.38024
	1.541778	41.38074
	1.541645	41.38089
	1.541663	41.38133
	1.541075	41.3818
	1.539737	41.38268
	1.539353	41.38301
	1.53856	41.38398
	1.537826	41.38442
	1.536815	41.38536
	1.535286	41.38537
	1.535394	41.38555
	1.53497	41.38581
	1.533394	41.38636
	1.533254	41.38659
	1.532498	41.38706
	1.531594	41.38746
	1.530977	41.38737
	1.531093	41.38766
	1.530855	41.38768
	1.52958	41.38756
	1.527893	41.38771
	1.524959	41.38782
	1.522732	41.38778
	1.521996	41.38802
	1.520897	41.38821
	1.518857	41.3888
	1.515195	41.39098
	1.514765	41.39186
	1.514559	41.39198
	1.512837	41.39353
	1.512593	41.39363
	1.512275	41.39387
	1.511864	41.39433
	1.510942	41.39413
	1.510691	41.39413
	1.509289	41.39444
	1.509072	41.39442
	1.508465	41.39411
	1.508121	41.39415
	1.507471	41.39374
	1.506173	41.39279
	1.505693	41.39224
	1.505466	41.39173
	1.505195	41.39144
	1.504965	41.39139
	1.5025	41.39189
	1.502243	41.3918
	1.501595	41.39125
	1.500167	41.39066
	1.49955	41.39054
	1.497686	41.39005
	1.495796	41.38933
	1.495684	41.38944
	1.494845	41.38994
	1.494132	41.38965
	1.494055	41.38923
	1.493553	41.38872
	1.493268	41.38858
	1.492412	41.38778
	1.491396	41.38795
	1.491409	41.38762
	1.490629	41.38689
	1.489731	41.38617
	1.489362	41.38567
	1.487974	41.38426
	1.48754	41.38405
	1.486893	41.38385
	1.485653	41.38389
	1.485516	41.38382
	1.484699	41.38307
	1.484775	41.3826
	1.48469	41.38242
	1.484477	41.38227
	1.483939	41.38245
	1.48309	41.38244
	1.482218	41.38262
	1.481787	41.38244
	1.481067	41.38223
	1.480456	41.38221
	1.479215	41.38189
	1.47853	41.38184
	1.477496	41.38298
	1.476267	41.38214
	1.475342	41.38225
	1.474453	41.38253
	1.473587	41.38089
	1.47304	41.38076
	1.473706	41.3828
	1.474814	41.38344
	1.476225	41.38397
	1.476726	41.38551
	1.479224	41.38741
	1.479553	41.38768
	1.480305	41.38784
	1.480651	41.38887
	1.480454	41.38948
	1.480411	41.39042
	1.4805	41.39085
	1.480476	41.39119
	1.480537	41.39138
	1.480746	41.3925
	1.48087	41.39274
	1.481438	41.39353
	1.481174	41.39386
	1.481141	41.3946
	1.481428	41.39495
	1.481365	41.39577
	1.481448	41.39629
	1.481367	41.3965
	1.481379	41.39685
	1.481828	41.39677
	1.48218	41.39718
	1.482346	41.39768
	1.482239	41.39787
	1.48222	41.39812
	1.482457	41.39861
	1.482605	41.39866
	1.483097	41.3987
	1.485178	41.39905
	1.487213	41.39959
	1.488037	41.39994
	1.488617	41.40001
	1.490165	41.40148
	1.489998	41.40166
	1.489976	41.40186
	1.489724	41.40306
	1.489317	41.40375
	1.488371	41.40581
	1.487458	41.40713
	1.486911	41.40997
	1.486044	41.41092
	1.485073	41.41262
	1.485098	41.41298
	1.485002	41.4135
	1.484758	41.41395
	1.483939	41.41508
	1.48297	41.41595
	1.482633	41.41609
	1.481753	41.41669
	1.481561	41.41754
	1.481851	41.41846
	1.482084	41.41872
	1.48305	41.41936
	1.483247	41.41997
	1.483839	41.42058
	1.483372	41.42127
	1.483795	41.42219
	1.482095	41.42217
	1.480363	41.42238
	1.479223	41.42267
	1.478573	41.42296
	1.477724	41.42315
	1.477076	41.42347
	1.47674	41.42397
	1.476434	41.42509
	1.476277	41.42698
	1.475719	41.42844
	1.47721	41.42881
	1.478712	41.43099
	1.478492	41.43287
	1.481224	41.43193
	1.483337	41.4303
	1.48474	41.43208
	1.486759	41.43308
	1.487381	41.43325
	1.489926	41.43373
	1.491173	41.43533
	1.494511	41.43531
	1.495201	41.43561
	1.479222	41.43552
	1.47566	41.43609
	1.474758	41.43724
	1.474164	41.43817
	1.473555	41.43888
	1.472409	41.43979
	1.471028	41.44111
	1.468484	41.44396
	1.468689	41.44433
	1.469398	41.44507
	1.471804	41.44717
	1.472877	41.44781
	1.473431	41.44821
	1.475412	41.45003
	1.477701	41.452
	1.479233	41.45287
	1.479856	41.45357
	1.480082	41.45373
	1.481795	41.456
	1.482106	41.45651
	1.48224	41.4569
	1.483178	41.45783
	1.486744	41.46475
	1.486306	41.46534
	1.486274	41.46557
	1.486504	41.46578
	1.487049	41.46605
	1.487172	41.46627
	1.487136	41.46696
	1.486871	41.4678
	1.487085	41.46882
	1.487046	41.46913
	1.486846	41.46952
	1.486532	41.46983
	1.48623	41.46996
	1.485647	41.47002
	1.486168	41.47045
	1.486204	41.47062
	1.486133	41.47081
	1.485678	41.47133
	1.485606	41.4715
	1.485837	41.47189
	1.484642	41.4721
	1.484562	41.47492
	1.479588	41.47607
	1.479221	41.47629
	1.477894	41.47719
	1.476414	41.47813
	1.475467	41.47881
	1.474675	41.47947
	1.476171	41.4826
	1.473923	41.48593
	1.473933	41.48626
	1.469411	41.48457
	1.467567	41.48457
	1.465608	41.48394
	1.46501	41.48483
	1.464392	41.48646
	1.463961	41.48681
	1.463215	41.48728
	1.460015	41.48829
	1.457218	41.48784
	1.455756	41.48782
	1.454461	41.48763
	1.453544	41.48769
	1.451955	41.48636
	1.451473	41.4877
	1.451326	41.48852
	1.451341	41.48927
	1.451237	41.49003
	1.449769	41.4922
	1.446045	41.49482
	1.43699	41.4983
	1.422543	41.49966
	1.422619	41.50007
	1.422177	41.5022
	1.421824	41.50335
	1.420079	41.50288
	1.418759	41.50232
	1.415324	41.50535
	1.413438	41.50491
	1.412332	41.50521
	1.411319	41.50475
	1.410289	41.50476
	1.409552	41.50484
	1.409091	41.50474
	1.407979	41.50513
	1.407686	41.50558
	1.407644	41.50584
	1.407322	41.50603
	1.406735	41.50622
	1.406125	41.50623
	1.405568	41.50615
	1.405062	41.50627
	1.404606	41.50661
	1.403986	41.50736
	1.402904	41.5089
	1.402151	41.51051
	1.401294	41.51182
	1.400939	41.51207
	1.400241	41.51237
	1.396347	41.51289
	1.398235	41.5137
	1.398616	41.51402
	1.398779	41.51483
	1.398795	41.51577
	1.398627	41.51666
	1.397928	41.51819
	1.397806	41.51885
	1.397808	41.51941
	1.397976	41.51977
	1.398402	41.52004
	1.400434	41.52086
	1.400529	41.52121
	1.400395	41.52188
	1.399923	41.52304
	1.399461	41.52383
	1.400773	41.52551
	1.400569	41.52656
	1.400676	41.52708
	1.400601	41.52756
	1.399746	41.52802
	1.399572	41.52829
	1.39954	41.52852
	1.399846	41.52879
	1.401021	41.5288
	1.401753	41.52917
	1.40217	41.52967
	1.402184	41.53059
	1.402621	41.53084
	1.403673	41.5308
	1.404701	41.53059
	1.40486	41.53081
	1.404761	41.53183
	1.404656	41.53205
	1.406068	41.53361
	1.406897	41.53398
	1.407952	41.53417
	1.408372	41.53453
	1.408723	41.53493
	1.425159	41.53186
	1.425603	41.53187
	1.42623	41.53211
	1.431782	41.53608
	1.431675	41.53577
	1.431685	41.53566
	1.431555	41.53546
	1.431259	41.53458
	1.431097	41.5329
	1.4312	41.53205
	1.431304	41.53175
	1.4312	41.53155
	1.430175	41.53054
	1.429136	41.52937
	1.428696	41.52854
	1.428628	41.52828
	1.428123	41.52796
	1.427353	41.52551
	1.428274	41.52327
	1.428752	41.52126
	1.429349	41.52025
	1.431342	41.51842
	1.431803	41.51753
	1.434496	41.51667
	1.435359	41.51936
	1.434734	41.52057
	1.434306	41.52114
	1.432501	41.52278
	1.432129	41.52435
	1.432033	41.52465
	1.43164	41.5256
	1.432301	41.52651
	1.432446	41.52707
	1.433119	41.52783
	1.434229	41.52891
	1.43461	41.52943
	1.435254	41.53068
	1.435364	41.53225
	1.435121	41.53295
	1.435196	41.53373
	1.435428	41.53411
	1.435691	41.53519
	1.436092	41.53563
	1.4378	41.53763
	1.438175	41.53889
	1.448583	41.53707
	1.449024	41.54313
	1.449361	41.54473
	1.449287	41.5454
	1.447603	41.5495
	1.446723	41.55239
	1.438967	41.55046
	1.437753	41.55007
	1.437694	41.55019
	1.437063	41.55097
	1.436654	41.55127
	1.43589	41.55188
	1.435598	41.55207
	1.434352	41.55275
	1.43394	41.55291
	1.433134	41.55314
	1.432729	41.55333
	1.432339	41.55367
	1.431939	41.55397
	1.431624	41.55416
	1.431451	41.55448
	1.431028	41.55566
	1.43961	41.56299
	1.442549	41.56407
	1.451531	41.56776
	1.452476	41.56843
	1.453199	41.56883
	1.453815	41.56906
	1.454483	41.56919
	1.44942	41.57211
	1.448243	41.5733
	1.447475	41.57382
	1.445175	41.57385
	1.444514	41.574
	1.443376	41.57453
	1.442006	41.57501
	1.440545	41.57539
	1.438562	41.57568
	1.435713	41.57628
	1.435233	41.57662
	1.434256	41.57794
	1.433565	41.5787
	1.433169	41.57887
	1.430802	41.57915
	1.430295	41.57928
	1.429627	41.57968
	1.426801	41.5801
	1.42611	41.58033
	1.425582	41.58068
	1.423342	41.58125
	1.421719	41.58207
	1.420854	41.58239
	1.419682	41.58261
	1.416082	41.58258
	1.415458	41.5824
	1.414247	41.58135
	1.412216	41.58024
	1.410561	41.57548
	1.406236	41.57624
	1.403293	41.57651
	1.401906	41.57674
	1.400899	41.57675
	1.396358	41.57716
	1.395477	41.57749
	1.394859	41.57693
	1.394778	41.57707
	1.394377	41.57751
	1.393871	41.578
	1.393751	41.57824
	1.393741	41.57839
	1.393869	41.57874
	1.394376	41.57955
	1.394699	41.58011
	1.394966	41.58106
	1.394987	41.58186
	1.39469	41.58296
	1.394629	41.58306
	1.394826	41.58339
	1.395579	41.58482
	1.401792	41.58606
	1.40284	41.5866
	1.405633	41.58852
	1.407043	41.59055
	1.406808	41.59203
	1.406333	41.59333
	1.406355	41.594
	1.406806	41.59658
	1.406636	41.59831
	1.40664	41.60048
	1.400964	41.60009
	1.394082	41.59945
	1.393364	41.59947
	1.389951	41.60079
	1.38583	41.60273
	1.384935	41.60331
	1.383809	41.60399
	1.382374	41.60443
	1.381172	41.60463
	1.380675	41.60486
	1.379444	41.60561
	1.378724	41.60589
	1.377611	41.60643
	1.377507	41.60667
	1.377082	41.60685
	1.376533	41.60682
	1.375674	41.60722
	1.374961	41.61182
	1.374192	41.6117
	1.373687	41.6117
	1.371986	41.61204
	1.370598	41.61264
	1.369811	41.61277
	1.369288	41.61177
	1.368951	41.61046
	1.367777	41.61068
	1.366176	41.61085
	1.36543	41.61098
	1.364624	41.61121
	1.36341	41.61164
	1.362968	41.61177
	1.362745	41.61195
	1.362432	41.61203
	1.361644	41.61208
	1.361197	41.61218
	1.36094	41.61269
	1.360797	41.61314
	1.360423	41.61358
	1.360384	41.61376
	1.360719	41.61381
	1.361586	41.61422
	1.363329	41.61488
	1.364151	41.6151
	1.36696	41.61627
	1.36861	41.6168
	1.369626	41.61722
	1.369467	41.61851
	1.369507	41.61879
	1.369482	41.61947
	1.369163	41.62141
	1.37395	41.62319
	1.374865	41.62351
	1.379503	41.62486
	1.379775	41.6251
	1.379971	41.6252
	1.385335	41.62618
	1.387516	41.6305
	1.38765	41.63048
	1.392119	41.63432
	1.396574	41.63465
	1.399128	41.63461
	1.401032	41.63468
	1.405006	41.635
	1.410594	41.63539
	1.412617	41.63547
	1.414928	41.63536
	1.416015	41.63523
	1.417192	41.63505
	1.419037	41.63492
	1.420606	41.63476
	1.420961	41.63467
	1.421469	41.63442
	1.422	41.63411
	1.423937	41.63309
	1.424128	41.63313
	1.424211	41.63229
	1.430318	41.63004
	1.431216	41.63402
	1.440082	41.63553
	1.443475	41.63443
	1.446668	41.63549
	1.448319	41.6361
	1.45032	41.64648
	1.444847	41.64582
	1.44359	41.64657
	1.44307	41.64651
	1.441367	41.64723
	1.4395	41.64784
	1.439335	41.64859
	1.43518	41.65066
	1.433113	41.65133
	1.431379	41.65422
	1.430521	41.65536
	1.427573	41.65859
	1.426631	41.65974
	1.426491	41.66013
	1.425876	41.66102
	1.425652	41.66121
	1.425616	41.66471
	1.425434	41.66667
	1.425421	41.66813
	1.425358	41.66954
	1.419768	41.67228
	1.415141	41.67444
	1.415677	41.67488
	1.419138	41.67637
	1.419292	41.67692
	1.423393	41.68412
	1.420025	41.68542
	1.41868	41.68517
	1.417588	41.68512
	1.416267	41.68531
	1.414197	41.68472
	1.410458	41.68537
	1.40704	41.68544
	1.40437	41.68611
	1.404316	41.69347
	1.40419	41.69489
	1.395874	41.69609
	1.400335	41.7044
	1.397893	41.7056
	1.385509	41.70565
	1.385046	41.70698
	1.384881	41.70731
	1.384692	41.70758
	1.388414	41.71033
	1.393525	41.71407
	1.400806	41.71956
	1.403114	41.72082
	1.414105	41.72713
	1.415571	41.72796
	1.416402	41.72888
	1.418443	41.73103
	1.420052	41.73269
	1.424849	41.73277
	1.425235	41.73471
	1.424896	41.73486
	1.422012	41.73541
	1.422327	41.73595
	1.420732	41.73636
	1.420978	41.73714
	1.420768	41.73742
	1.415534	41.74015
	1.415926	41.74043
	1.414743	41.74088
	1.414229	41.74005
	1.411727	41.74143
	1.411311	41.7408
	1.405334	41.74445
	1.405794	41.74485
	1.404489	41.74528
	1.403979	41.7445
	1.403635	41.74458
	1.403024	41.7453
	1.40371	41.74883
	1.405165	41.75006
	1.407402	41.75271
	1.408021	41.75401
	1.408958	41.75733
	1.409886	41.75981
	1.409982	41.76121
	1.410871	41.76401
	1.411047	41.76516
	1.411498	41.7663
	1.410297	41.76738
	1.410099	41.76835
	1.410108	41.77005
	1.410617	41.77274
	1.410899	41.77493
	1.413887	41.77622
	1.415539	41.77593
	1.416832	41.78126
	1.417936	41.78402
	1.418584	41.78645
	1.418378	41.78747
	1.418519	41.78795
	1.418964	41.78865
	1.420478	41.78967
	1.420953	41.79063
	1.421161	41.79207
	1.421612	41.7932
	1.420656	41.79347
	1.42046	41.79255
	1.419544	41.792
	1.418049	41.79283
	1.417446	41.79333
	1.417005	41.79463
	1.419842	41.79738
	1.426313	41.80188
	1.430176	41.80189
	1.431975	41.8018
	1.433638	41.80184
	1.434831	41.8015
	1.435688	41.80138
	1.437144	41.80138
	1.439948	41.80067
	1.442683	41.80072
	1.444101	41.80035
	1.447337	41.79896
	1.4491	41.79853
	1.451154	41.79777
	1.452498	41.79824
	1.454435	41.79858
	1.456141	41.79872
	1.457853	41.79876
	1.45893	41.79799
	1.460353	41.79786
	1.465465	41.79835
	1.467072	41.79879
	1.46851	41.79975
	1.470031	41.80051
	1.471086	41.80093
	1.472238	41.80023
	1.47154	41.7966
	1.471799	41.79203
	1.471343	41.79084
	1.470587	41.78966
	1.469593	41.78885
	1.469855	41.78812
	1.46954	41.78741
	1.471002	41.7868
	1.471944	41.78513
	1.472736	41.78424
	1.473495	41.78253
	1.470514	41.78222
	1.46982	41.78192
	1.468924	41.7796
	1.469292	41.77918
	1.46877	41.77876
	1.46767	41.77851
	1.466141	41.77833
	1.464835	41.77787
	1.463523	41.77752
	1.461252	41.7772
	1.46112	41.77669
	1.462525	41.77632
	1.463899	41.77583
	1.464804	41.77517
	1.467089	41.77553
	1.466592	41.77425
	1.468314	41.77099
	1.470527	41.77151
	1.470089	41.77231
	1.470653	41.77229
	1.471579	41.77177
	1.471375	41.77125
	1.472863	41.77138
	1.472927	41.77178
	1.473669	41.77277
	1.474115	41.77295
	1.477793	41.77342
	1.478592	41.77367
	1.479229	41.7728
	1.479517	41.77193
	1.479763	41.77184
	1.480117	41.77191
	1.480518	41.7718
	1.480959	41.77157
	1.481368	41.77122
	1.481982	41.77106
	1.482588	41.77113
	1.483767	41.77165
	1.483883	41.77194
	1.483821	41.77242
	1.483637	41.77272
	1.483288	41.77307
	1.482948	41.77318
	1.48241	41.77324
	1.482273	41.77351
	1.482689	41.77413
	1.482516	41.77441
	1.482003	41.77447
	1.481475	41.775
	1.482587	41.77611
	1.48408	41.77648
	1.485172	41.77696
	1.486961	41.77708
	1.487664	41.77733
	1.48659	41.77986
	1.486075	41.78128
	1.483963	41.78618
	1.483956	41.78677
	1.484362	41.7881
	1.484012	41.78912
	1.483604	41.78999
	1.483131	41.79063
	1.482448	41.79101
	1.483892	41.7905
	1.485636	41.78963
	1.487841	41.78882
	1.488559	41.78877
	1.490457	41.78889
	1.49183	41.78858
	1.492219	41.78864
	1.493773	41.78969
	1.494804	41.7893
	1.495226	41.7893
	1.495706	41.7898
	1.496331	41.7898
	1.497322	41.78952
	1.499643	41.78916
	1.5008	41.78919
	1.501748	41.78886
	1.501762	41.78796
	1.501933	41.78752
	1.50236	41.78699
	1.50244	41.78684
	1.502641	41.78655
	1.502782	41.78639
	1.503017	41.78618
	1.50319	41.78605
	1.503433	41.78591
	1.50356	41.78585
	1.503979	41.7857
	1.504527	41.78556
	1.504608	41.78553
	1.504833	41.78549
	1.505142	41.78546
	1.505373	41.78546
	1.50606	41.78235
	1.505708	41.78198
	1.505351	41.78153
	1.504623	41.78078
	1.504498	41.78063
	1.504297	41.78032
	1.504177	41.78007
	1.504077	41.77976
	1.504012	41.77933
	1.504021	41.77898
	1.504149	41.77843
	1.504216	41.77827
	1.504421	41.77791
	1.504648	41.77763
	1.504909	41.7774
	1.505279	41.77717
	1.505549	41.77705
	1.505788	41.77697
	1.505921	41.77694
	1.50614	41.77672
	1.506258	41.77636
	1.50648	41.77601
	1.506737	41.77573
	1.506934	41.77557
	1.507316	41.77534
	1.507621	41.77522
	1.507916	41.77514
	1.508245	41.77408
	1.509004	41.77358
	1.51077	41.77355
	1.512048	41.77257
	1.511977	41.7719
	1.510344	41.77125
	1.511418	41.77079
	1.512056	41.77062
	1.513357	41.77082
	1.513992	41.77079
	1.51588	41.77027
	1.516583	41.77035
	1.518349	41.77083
	1.518916	41.77086
	1.519383	41.77066
	1.520731	41.76948
	1.521387	41.76803
	1.521974	41.76748
	1.522351	41.76635
	1.523353	41.76571
	1.523977	41.76552
	1.526105	41.76518
	1.526708	41.76486
	1.527078	41.76448
	1.52745	41.76396
	1.528622	41.76438
	1.529105	41.76406
	1.529878	41.76394
	1.531494	41.764
	1.532764	41.76358
	1.528516	41.75962
	1.528214	41.75909
	1.529073	41.75814
	1.52934	41.75732
	1.529823	41.7553
	1.529737	41.7546
	1.530724	41.75256
	1.535193	41.75285
	1.535618	41.75359
	1.536066	41.75499
	1.534077	41.75731
	1.544703	41.7576
	1.54518	41.76128
	1.545403	41.76206
	1.546267	41.76321
	1.546223	41.76378
	1.545854	41.76452
	1.546343	41.76514
	1.546579	41.76559
	1.54832	41.77065
	1.550467	41.77056
	1.552515	41.77078
	1.554488	41.77028
	1.55572	41.77035
	1.556759	41.77008
	1.55842	41.77009
	1.559131	41.76995
	1.560628	41.77019
	1.56166	41.77016
	1.561786	41.77058
	1.561532	41.77174
	1.561589	41.7722
	1.562011	41.77273
	1.562567	41.77361
	1.562653	41.77398
	1.562531	41.7743
	1.561151	41.77535
	1.561196	41.77616
	1.561099	41.77682
	1.561197	41.77736
	1.561733	41.77728
	1.56225	41.77728
	1.562653	41.7777
	1.56321	41.77758
	1.564549	41.77696
	1.565586	41.77734
	1.566256	41.77746
	1.568118	41.77725
	1.568839	41.7774
	1.569548	41.77791
	1.57007	41.77848
	1.571487	41.77946
	1.571832	41.77991
	1.572231	41.78163
	1.572583	41.78219
	1.573644	41.78205
	1.57459	41.78181
	1.575111	41.78154
	1.575533	41.78087
	1.576199	41.78026
	1.578365	41.77892
	1.580817	41.77721
	1.581383	41.77554
	1.593595	41.77793
	1.59216	41.78074
	1.592426	41.7811
	1.593626	41.78206
	1.599827	41.78903
	1.598972	41.78952
	1.598384	41.79021
	1.598052	41.79079
	1.597043	41.79131
	1.596159	41.79325
	1.595914	41.79419
	1.597968	41.79398
	1.597362	41.79543
	1.597114	41.7965
	1.594972	41.79649
	1.594438	41.79711
	1.59403	41.79881
	1.594454	41.79985
	1.593575	41.80018
	1.593122	41.80041
	1.593077	41.80078
	1.593948	41.80152
	1.593936	41.80186
	1.592087	41.80208
	1.591586	41.80265
	1.589505	41.80351
	1.588998	41.80398
	1.58881	41.80473
	1.590862	41.80808
	1.590721	41.80896
	1.590752	41.80913
	1.591607	41.81044
	1.591758	41.81054
	1.592338	41.81081
	1.592491	41.81085
	1.592609	41.81094
	1.592667	41.81103
	1.592608	41.81132
	1.592607	41.81224
	1.592659	41.81251
	1.592862	41.81327
	1.592938	41.81343
	1.593903	41.81436
	1.594046	41.81443
	1.594601	41.81459
	1.594796	41.81462
	1.595239	41.81464
	1.596106	41.81474
	1.597186	41.81484
	1.597579	41.81484
	1.597864	41.81511
	1.598179	41.81535
	1.598711	41.81567
	1.599269	41.81591
	1.599565	41.816
	1.599857	41.81606
	1.600354	41.81612
	1.600731	41.8164
	1.601135	41.81677
	1.601437	41.81698
	1.601911	41.81726
	1.602304	41.81743
	1.602624	41.81753
	1.603185	41.81768
	1.603436	41.81773
	1.603975	41.81778
	1.604087	41.81781
	1.604885	41.81811
	1.605167	41.8182
	1.60538	41.81825
	1.605851	41.8183
	1.606645	41.81828
	1.606898	41.8183
	1.607021	41.81832
	1.607416	41.81842
	1.60805	41.81859
	1.608761	41.81889
	1.609123	41.81901
	1.609513	41.81909
	1.609818	41.8193
	1.60998	41.81939
	1.610019	41.81985
	1.610082	41.82004
	1.610413	41.82067
	1.610716	41.82105
	1.611334	41.82172
	1.611287	41.82199
	1.611379	41.82299
	1.611449	41.82319
	1.611646	41.82393
	1.611737	41.82442
	1.611799	41.82466
	1.611967	41.82516
	1.612196	41.82557
	1.612349	41.82577
	1.612615	41.82603
	1.612921	41.82626
	1.613062	41.82635
	1.613584	41.82666
	1.613993	41.82687
	1.613953	41.82738
	1.613989	41.82761
	1.614251	41.82817
	1.613841	41.82866
	1.613746	41.82885
	1.613543	41.82993
	1.613566	41.83018
	1.613811	41.83097
	1.613913	41.83115
	1.614211	41.83148
	1.613391	41.83227
	1.611793	41.83349
	1.61146	41.83456
	1.610008	41.83613
	1.610196	41.83631
	1.610916	41.83652
	1.611503	41.83663
	1.611919	41.83675
	1.612228	41.83687
	1.612776	41.83712
	1.612935	41.83715
	1.613395	41.83718
	1.613922	41.83726
	1.61421	41.83734
	1.614376	41.8374
	1.614772	41.83759
	1.615131	41.83782
	1.615656	41.83823
	1.616146	41.83824
	1.616489	41.83828
	1.616876	41.83838
	1.617215	41.8385
	1.617535	41.83865
	1.617854	41.83885
	1.618079	41.83901
	1.618535	41.83924
	1.619007	41.83954
	1.619296	41.83958
	1.619573	41.8396
	1.620148	41.83961
	1.620712	41.83929
	1.621066	41.83913
	1.621254	41.83906
	1.621654	41.83894
	1.622182	41.83886
	1.622671	41.83887
	1.623408	41.83895
	1.624096	41.83909
	1.624415	41.8392
	1.624703	41.83933
	1.624986	41.83949
	1.625352	41.83973
	1.625523	41.83981
	1.625846	41.83999
	1.626337	41.84013
	1.627699	41.84061
	1.628014	41.84076
	1.628233	41.84089
	1.628371	41.84094
	1.628834	41.84115
	1.629101	41.84124
	1.62946	41.84139
	1.629802	41.84159
	1.630129	41.84181
	1.630865	41.84207
	1.631163	41.84216
	1.631075	41.84244
	1.632599	41.84424
	1.630441	41.84607
	1.629879	41.84595
	1.626466	41.84863
	1.62989	41.85735
	1.630307	41.85878
	1.628093	41.86014
	1.625596	41.8691
	1.624513	41.8696
	1.62381	41.87005
	1.623605	41.87038
	1.622641	41.87071
	1.621019	41.8731
	1.621538	41.87379
	1.62136	41.87465
	1.621087	41.87504
	1.6199	41.87596
	1.619568	41.87687
	1.618665	41.87755
	1.618592	41.87837
	1.618332	41.8791
	1.619091	41.88094
	1.619122	41.88153
	1.618302	41.88119
	1.617221	41.8809
	1.616784	41.88069
	1.616247	41.8806
	1.615527	41.88064
	1.615134	41.8802
	1.614668	41.88008
	1.613687	41.88019
	1.613086	41.88053
	1.611636	41.88031
	1.610978	41.88055
	1.610494	41.88085
	1.609999	41.8815
	1.609329	41.88207
	1.609001	41.8822
	1.60793	41.88239
	1.606326	41.88387
	1.605883	41.88407
	1.603998	41.88333
	1.602672	41.88248
	1.602358	41.88348
	1.601925	41.88383
	1.601738	41.88423
	1.60072	41.88349
	1.600164	41.88295
	1.599432	41.88267
	1.597534	41.88224
	1.596898	41.88194
	1.595819	41.881
	1.594939	41.88067
	1.592093	41.87929
	1.591372	41.87763
	1.589886	41.87758
	1.589074	41.87718
	1.587664	41.87582
	1.586494	41.87496
	1.585421	41.87428
	1.58432	41.8737
	1.583404	41.87336
	1.581824	41.87452
	1.581319	41.8752
	1.579516	41.87576
	1.577777	41.87655
	1.575517	41.8773
	1.574424	41.87784
	1.572974	41.87829
	1.570944	41.87922
	1.568929	41.88002
	1.57273	41.88448
	1.573169	41.88523
	1.57467	41.88836
	1.576372	41.8916
	1.582828	41.89291
	1.583295	41.8927
	1.584686	41.89076
	1.583448	41.88845
	1.586879	41.88856
	1.587338	41.88925
	1.589359	41.89123
	1.592737	41.89414
	1.594141	41.89522
	1.594936	41.89607
	1.595873	41.8972
	1.597126	41.89937
	1.599551	41.90191
	1.600158	41.90265
	1.600298	41.90292
	1.600503	41.90459
	1.601702	41.90334
	1.602022	41.9026
	1.603217	41.90229
	1.604559	41.90218
	1.605158	41.90146
	1.615923	41.906
	1.615679	41.90662
	1.615601	41.90705
	1.615736	41.90742
	1.616236	41.90766
	1.617019	41.90816
	1.617357	41.9085
	1.617412	41.9091
	1.617292	41.9096
	1.617092	41.91001
	1.618926	41.91187
	1.620024	41.91271
	1.621516	41.91317
	1.62276	41.91338
	1.622206	41.91522
	1.622274	41.91549
	1.62439	41.91625
	1.625946	41.9166
	1.625746	41.91699
	1.625783	41.91734
	1.626377	41.91756
	1.632473	41.92083
	1.632969	41.92202
	1.633627	41.92311
	1.634285	41.92404
	1.63709	41.92615
	1.63765	41.92672
	1.638252	41.9272
	1.639436	41.92758
	1.640242	41.92771
	1.641269	41.92774
	1.64199	41.92787
	1.642046	41.92898
	1.643226	41.92912
	1.646286	41.92792
	1.647784	41.92747
	1.650003	41.92665
	1.65187	41.92811
	1.653005	41.9288
	1.652207	41.92976
	1.651428	41.93098
	1.64992	41.93313
	1.649541	41.93388
	1.648395	41.93487
	1.642701	41.94048
	1.644007	41.94252
	1.644705	41.94382
	1.647792	41.94449
	1.65042	41.9448
	1.650325	41.94565
	1.650379	41.94671
	1.649865	41.94777
	1.649458	41.94832
	1.64901	41.94944
	1.649079	41.9504
	1.648713	41.95133
	1.648647	41.95209
	1.647701	41.95251
	1.647403	41.95289
	1.64734	41.95351
	1.647896	41.95386
	1.648385	41.95428
	1.648402	41.95567
	1.64898	41.95632
	1.649411	41.9566
	1.649218	41.95711
	1.646882	41.95882
	1.645671	41.95893
	1.645153	41.96009
	1.645347	41.9611
	1.645247	41.96237
	1.644777	41.96321
	1.644558	41.96435
	1.645208	41.96632
	1.64515	41.96684
	1.644253	41.96861
	1.644256	41.96898
	1.645031	41.97101
	1.645897	41.97213
	1.648928	41.97564
	1.651335	41.97869
	1.650066	41.97966
	1.654612	41.98044
	1.655571	41.98068
	1.656079	41.97906
	1.658256	41.97863
	1.659178	41.9777
	1.660235	41.97764
	1.660034	41.97868
	1.66067	41.97913
	1.660364	41.9804
	1.661074	41.98136
	1.660687	41.98233
	1.659899	41.98295
	1.664402	41.98379
	1.667885	41.98456
	1.672036	41.9834
	1.674466	41.9828
	1.675291	41.98253
	1.674458	41.98022
	1.673906	41.97928
	1.67187	41.97768
	1.669411	41.97327
	1.669441	41.9717
	1.669199	41.97053
	1.669455	41.96991
	1.670507	41.9706
	1.671808	41.96826
	1.672512	41.96848
	1.673806	41.96836
	1.6752	41.96878
	1.677454	41.96892
	1.678826	41.96888
	1.680825	41.96816
	1.682746	41.96738
	1.68409	41.96793
	1.690116	41.97096
	1.69154	41.97179
	1.69395	41.97289
	1.69417	41.97343
	1.694677	41.97393
	1.695972	41.97414
	1.69632	41.97493
	1.697445	41.97546
	1.701203	41.97652
	1.703391	41.97707
	1.705953	41.97794
	1.714789	41.98125
	1.717284	41.98251
	1.717412	41.98375
	1.719227	41.98447
	1.719178	41.98578
	1.716689	41.98605
	1.716953	41.98848
	1.716682	41.98923
	1.715686	41.98994
	1.714597	41.99057
	1.713574	41.99076
	1.713075	41.99103
	1.712827	41.99159
	1.712977	41.992
	1.713576	41.99193
	1.714583	41.99135
	1.715454	41.99122
	1.715666	41.99245
	1.716048	41.99338
	1.716624	41.99382
	1.717495	41.99385
	1.71718	41.99465
	1.716515	41.99512
	1.715987	41.99581
	1.715577	41.99679
	1.715645	41.99739
	1.717357	41.99703
	1.718019	41.99718
	1.718353	41.99744
	1.717977	41.99807
	1.717714	41.99876
	1.717986	41.9995
	1.71615	42.00014
	1.716063	42.00091
	1.715417	42.00116
	1.714735	42.00156
	1.713812	42.00231
	1.712818	42.00274
	1.71145	42.00284
	1.707995	42.00232
	1.707267	42.00243
	1.706847	42.0028
	1.706725	42.00327
	1.707147	42.00392
	1.707516	42.00678
	1.707746	42.00744
	1.707558	42.00784
	1.705825	42.00955
	1.70389	42.01098
	1.7006	42.01302
	1.699411	42.01408
	1.697741	42.01469
	1.696537	42.0144
	1.696082	42.01412
	1.694748	42.01257
	1.693175	42.0104
	1.690831	42.00595
	1.69199	42.00397
	1.693518	42.00015
	1.694195	41.99934
	1.695136	41.99802
	1.69636	41.99661
	1.697174	41.99538
	1.69928	41.993
	1.696728	41.99145
	1.696503	41.99102
	1.697	41.99023
	1.69731	41.98936
	1.69713	41.98872
	1.697279	41.98812
	1.697712	41.9876
	1.697735	41.98677
	1.697437	41.98518
	1.691057	41.98655
	1.691416	41.98733
	1.692079	41.9883
	1.692187	41.98896
	1.691998	41.98967
	1.691063	41.99073
	1.689723	41.99024
	1.684732	41.99491
	1.682496	41.99388
	1.68155	41.99382
	1.680164	41.994
	1.678689	41.99364
	1.67657	41.99437
	1.676266	41.99401
	1.673967	41.99295
	1.671849	41.99155
	1.670997	41.99162
	1.668143	41.99038
	1.666054	41.99004
	1.663688	41.99103
	1.662003	41.99109
	1.661168	41.99204
	1.661915	41.9983
	1.662152	41.99955
	1.661761	42.00016
	1.66182	42.0008
	1.661795	42.00194
	1.661909	42.003
	1.661109	42.00329
	1.660623	42.00373
	1.658961	42.00445
	1.657857	42.00503
	1.654826	42.00237
	1.655705	42.00185
	1.656965	42.00125
	1.655837	42.00035
	1.655762	42.00016
	1.65509	41.99954
	1.656492	41.99908
	1.657643	41.99831
	1.656569	41.99699
	1.656355	41.99622
	1.656121	41.99598
	1.655744	41.99578
	1.655522	41.99555
	1.655429	41.9951
	1.655538	41.99394
	1.655348	41.9935
	1.654968	41.99325
	1.654543	41.99321
	1.654131	41.99336
	1.653568	41.99341
	1.653209	41.99313
	1.651958	41.99252
	1.651895	41.99282
	1.652017	41.99383
	1.651994	41.99434
	1.651182	41.99528
	1.651046	41.99575
	1.651228	41.99724
	1.651467	41.9977
	1.651868	41.99824
	1.651921	41.99863
	1.651663	41.99923
	1.651119	41.99938
	1.64944	41.99905
	1.648651	41.99914
	1.648286	41.99943
	1.647855	42.00015
	1.647776	42.00137
	1.648258	42.00269
	1.648679	42.00333
	1.650568	42.00491
	1.651355	42.00543
	1.652661	42.00695
	1.652886	42.00772
	1.65324	42.01042
	1.653357	42.01102
	1.653104	42.01137
	1.652372	42.01176
	1.651774	42.01233
	1.651474	42.01284
	1.651409	42.01328
	1.651668	42.01401
	1.652272	42.01434
	1.653097	42.01507
	1.654527	42.01596
	1.654725	42.01669
	1.655592	42.01798
	1.655055	42.01889
	1.654816	42.01959
	1.655077	42.02034
	1.655855	42.02092
	1.657928	42.02202
	1.658851	42.02242
	1.660682	42.02285
	1.661919	42.02341
	1.664699	42.02231
	1.665032	42.01911
	1.664657	42.01827
	1.663329	42.01729
	1.662175	42.01587
	1.66202	42.01541
	1.66226	42.0134
	1.6621	42.01187
	1.662245	42.01154
	1.665296	42.01068
	1.664371	42.00827
	1.66401	42.00812
	1.662751	42.00791
	1.661798	42.00758
	1.660318	42.00666
	1.664696	42.00397
	1.665966	42.00351
	1.669852	42.00695
	1.668596	42.01172
	1.66855	42.01373
	1.669452	42.0155
	1.669736	42.01591
	1.670557	42.01624
	1.671531	42.01685
	1.67244	42.01804
	1.673082	42.01807
	1.674438	42.01878
	1.674916	42.01953
	1.67794	42.01862
	1.679113	42.02028
	1.68372	42.02546
	1.68777	42.02651
	1.688695	42.02678
	1.6893	42.02679
	1.689651	42.02713
	1.68874	42.02787
	1.692	42.02803
	1.695823	42.02846
	1.696313	42.02838
	1.697931	42.02741
	1.699016	42.02853
	1.699285	42.0289
	1.699457	42.0296
	1.698852	42.0299
	1.694299	42.03514
	1.69606	42.03576
	1.696419	42.0362
	1.697319	42.03695
	1.697205	42.03949
	1.693516	42.04335
	1.693063	42.04408
	1.692477	42.04613
	1.691083	42.04606
	1.689527	42.04625
	1.687185	42.04694
	1.68596	42.04736
	1.683562	42.04809
	1.683697	42.0491
	1.68302	42.04943
	1.683117	42.04993
	1.682619	42.04989
	1.681657	42.04896
	1.680902	42.04741
	1.679986	42.04645
	1.679921	42.04474
	1.679662	42.04369
	1.679556	42.04257
	1.679733	42.04055
	1.679583	42.03982
	1.679049	42.03881
	1.678555	42.03832
	1.677394	42.03879
	1.673822	42.03933
	1.673407	42.0396
	1.673197	42.04003
	1.672409	42.04048
	1.671874	42.04093
	1.672079	42.04142
	1.672641	42.04199
	1.671863	42.04258
	1.671485	42.04319
	1.670234	42.04442
	1.671765	42.04603
	1.673108	42.04885
	1.673238	42.04947
	1.673233	42.05039
	1.673651	42.05229
	1.673937	42.05389
	1.67503	42.05565
	1.676166	42.05722
	1.675811	42.05797
	1.675859	42.05872
	1.680237	42.06244
	1.686241	42.06839
	1.687418	42.06981
	1.689695	42.07442
	1.691412	42.07803
	1.68833	42.07836
	1.688229	42.08011
	1.688352	42.08144
	1.688673	42.08235
	1.691296	42.0871
	1.693293	42.08714
	1.696017	42.08671
	1.699522	42.08573
	1.700519	42.085
	1.70561	42.08355
	1.706504	42.08339
	1.707627	42.08271
	1.710088	42.08332
	1.710945	42.08395
	1.712834	42.0848
	1.713393	42.08485
	1.716593	42.08465
	1.717116	42.08502
	1.722052	42.09109
	1.722573	42.09452
	1.722482	42.0998
	1.718028	42.10153
	1.716422	42.10139
	1.71166	42.10157
	1.710913	42.10177
	1.706373	42.10495
	1.705393	42.10576
	1.70505	42.10667
	1.705151	42.10771
	1.709273	42.10981
	1.709767	42.11028
	1.710794	42.11336
	1.711218	42.11598
	1.711194	42.11647
	1.71143	42.11737
	1.711684	42.11949
	1.708802	42.1209
	1.708873	42.12203
	1.708426	42.12268
	1.707875	42.12325
	1.707055	42.12311
	1.706435	42.12275
	1.706059	42.1229
	1.705448	42.12379
	1.70501	42.12424
	1.702861	42.12585
	1.702888	42.12595
	1.7028	42.12721
	1.702626	42.12763
	1.702379	42.12807
	1.702218	42.12828
	1.701995	42.12853
	1.701828	42.12869
	1.701374	42.12902
	1.70048	42.12947
	1.700505	42.12983
	1.700015	42.13125
	1.699864	42.13142
	1.69931	42.13181
	1.699193	42.13206
	1.699127	42.13232
	1.699036	42.13251
	1.698916	42.13266
	1.698524	42.1335
	1.698311	42.13423
	1.698555	42.13572
	1.699994	42.13604
	1.701908	42.13853
	1.703811	42.1407
	1.702679	42.14207
	1.704815	42.14297
	1.706821	42.14523
	1.707323	42.14613
	1.707591	42.14729
	1.708017	42.14976
	1.710007	42.15017
	1.710098	42.15091
	1.710908	42.15204
	1.713561	42.15404
	1.714178	42.1542
	1.716397	42.1541
	1.72063	42.15163
	1.721635	42.15181
	1.723927	42.15285
	1.725237	42.15371
	1.725998	42.15451
	1.726826	42.15571
	1.727632	42.15629
	1.730212	42.15729
	1.732423	42.15854
	1.734323	42.15937
	1.735329	42.16004
	1.736106	42.16088
	1.736439	42.16275
	1.73599	42.16678
	1.736071	42.16834
	1.73613	42.1701
	1.735918	42.17099
	1.737524	42.17467
	1.738681	42.17622
	1.739067	42.17653
	1.737095	42.1788
	1.736414	42.18006
	1.736035	42.18162
	1.736018	42.18237
	1.736259	42.18349
	1.737518	42.18446
	1.738007	42.18501
	1.736776	42.18521
	1.737841	42.18846
	1.737864	42.18908
	1.737698	42.18945
	1.737353	42.1897
	1.734063	42.19006
	1.733687	42.19118
	1.730314	42.19206
	1.729048	42.19262
	1.727015	42.19376
	1.726231	42.19445
	1.724006	42.19482
	1.723039	42.19516
	1.722262	42.19563
	1.721519	42.19621
	1.714461	42.19281
	1.714036	42.19133
	1.713809	42.19088
	1.713162	42.19048
	1.712388	42.19033
	1.709424	42.19037
	1.708475	42.1903
	1.707402	42.19004
	1.689586	42.19909
	1.688961	42.20226
	1.688367	42.20242
	1.687904	42.20369
	1.687486	42.20541
	1.687034	42.20601
	1.686287	42.20639
	1.685275	42.20646
	1.68041	42.20634
	1.683756	42.21685
	1.684295	42.21759
	1.683963	42.21803
	1.683931	42.21857
	1.684287	42.21928
	1.684544	42.21965
	1.684209	42.21981
	1.683102	42.22047
	1.682678	42.22041
	1.682289	42.22041
	1.681977	42.22045
	1.681768	42.22049
	1.681331	42.22063
	1.680989	42.2208
	1.680809	42.22091
	1.680535	42.22111
	1.680352	42.22128
	1.680201	42.22144
	1.678171	42.22395
	1.677974	42.22423
	1.677835	42.22449
	1.677729	42.22474
	1.677627	42.2251
	1.677588	42.22538
	1.67758	42.22559
	1.677622	42.22606
	1.677689	42.22634
	1.677817	42.22673
	1.678078	42.22666
	1.679663	42.2284
	1.681752	42.22649
	1.681753	42.22619
	1.681723	42.22592
	1.682636	42.22479
	1.691894	42.22745
	1.694425	42.22826
	1.69544	42.22872
	1.698295	42.23029
	1.699104	42.23058
	1.700253	42.23072
	1.701487	42.23202
	1.70246	42.23321
	1.703601	42.23384
	1.703866	42.2351
	1.704268	42.23551
	1.70448	42.23625
	1.70409	42.23645
	1.704034	42.2372
	1.704564	42.23883
	1.703581	42.23941
	1.702966	42.2399
	1.70161	42.24
	1.701357	42.24035
	1.700782	42.2406
	1.700063	42.24071
	1.698806	42.24108
	1.698197	42.24253
	1.697968	42.24369
	1.698099	42.24413
	1.697562	42.24476
	1.696724	42.24502
	1.695629	42.24529
	1.694696	42.2456
	1.692928	42.24643
	1.691533	42.24674
	1.689803	42.2476
	1.689621	42.24792
	1.689523	42.2484
	1.689573	42.25005
	1.689647	42.2517
	1.689245	42.25217
	1.688247	42.25227
	1.688002	42.25451
	1.68558	42.25568
	1.684584	42.25647
	1.685317	42.25851
	1.685556	42.2601
	1.685411	42.26044
	1.689637	42.26234
	1.695058	42.26384
	1.694679	42.26445
	1.69014	42.2771
	1.689577	42.27703
	1.688041	42.27643
	1.686947	42.2772
	1.684171	42.27623
	1.682595	42.27786
	1.678192	42.27897
	1.674985	42.28036
	1.674076	42.2802
	1.672112	42.2802
	1.670307	42.2817
	1.671888	42.28341
	1.673366	42.28437
	1.675056	42.28591
	1.678876	42.28559
	1.679797	42.28558
	1.680659	42.28575
	1.685092	42.2852
	1.686168	42.28515
	1.688311	42.28544
	1.689342	42.28546
	1.690184	42.28569
	1.69103	42.28631
	1.691658	42.28447
	1.692714	42.28465
	1.693976	42.285
	1.696211	42.28586
	1.702358	42.28489
	1.704036	42.28527
	1.705685	42.28543
	1.708398	42.28604
	1.708978	42.2865
	1.711101	42.28668
	1.71443	42.2879
	1.715581	42.28805
	1.716729	42.28736
	1.717678	42.28447
	1.718242	42.28423
	1.719684	42.2839
	1.720999	42.28349
	1.722061	42.28358
	1.723121	42.28349
	1.724521	42.28356
	1.725773	42.28392
	1.726826	42.28406
	1.729316	42.28348
	1.731879	42.28386
	1.734327	42.284
	1.735981	42.28569
	1.736742	42.28662
	1.737155	42.28743
	1.737839	42.28799
	1.738095	42.2893
	1.740727	42.2906
	1.742953	42.29036
	1.74391	42.29036
	1.744866	42.29049
	1.745035	42.2908
	1.746762	42.29087
	1.748553	42.29114
	1.750287	42.2913
	1.751106	42.29154
	1.754044	42.29207
	1.755269	42.2924
	1.757705	42.29255
	1.759184	42.29302
	1.759942	42.29309
	1.76242	42.29379
	1.765616	42.29292
	1.767404	42.29267
	1.769156	42.29227
	1.769897	42.29244
	1.771108	42.29242
	1.772032	42.29229
	1.77323	42.29194
	1.7755	42.29085
	1.778994	42.29087
	1.779362	42.2914
	1.781762	42.29331
	1.782343	42.29346
	1.785217	42.29361
	1.786737	42.29447
	1.787263	42.29468
	1.792909	42.29398
	1.79352	42.29419
	1.794281	42.294
	1.797277	42.2948
	1.797663	42.29542
	1.796981	42.29745
	1.797595	42.29818
	1.799214	42.29954
	1.800059	42.30012
	1.800728	42.30047
	1.804474	42.30204
	1.808828	42.30156
	1.810972	42.30184
	1.81257	42.30164
	1.812882	42.30176
	1.813149	42.30224
	1.814594	42.30226
	1.815748	42.30133
	1.818411	42.29951
	1.819473	42.29993
	1.821705	42.29946
	1.822511	42.3
	1.825707	42.29976
	1.826448	42.2993
	1.828092	42.3005
	1.832769	42.30124
	1.832901	42.30185
	1.834585	42.3034
	1.834514	42.30406
	1.835542	42.30434
	1.837314	42.30562
	1.84094	42.30561
	1.842614	42.30641
	1.843263	42.30664
	1.847613	42.3091
	1.848306	42.30976
	1.850561	42.31068
	1.853789	42.31023
	1.856524	42.31094
	1.857814	42.31068
	1.858716	42.3112
	1.859203	42.31185
	1.860435	42.3121
	1.861414	42.31315
	1.863855	42.31099
	1.865733	42.31221
	1.867061	42.31214
	1.873711	42.31357
	1.875206	42.31362
	1.879149	42.31268
	1.87986	42.3134
	1.881709	42.31425
	1.882122	42.31488
	1.883053	42.31485
	1.883747	42.31582
	1.883436	42.31713
	1.885783	42.31783
	1.891122	42.31738
	1.893117	42.3187
	1.892876	42.3209
	1.90312	42.3233
	1.906528	42.32251
	1.907341	42.32157
	1.90977	42.32021
	1.912549	42.31898
	1.914527	42.31836
	1.916306	42.31814
	1.918206	42.31778
	1.921178	42.31701
	1.931639	42.31875
	1.932895	42.31868
	1.934042	42.31799
	1.939284	42.31647
	1.940465	42.31513
	1.942114	42.31233
	1.943242	42.30847
	1.944622	42.31091
	1.94671	42.31216
	1.948692	42.31563
	1.949508	42.31567
	1.951661	42.31496
	1.956194	42.3123
	1.970317	42.30328
	1.977341	42.30146
	1.978081	42.30116
	1.983828	42.29807
	1.984309	42.29939
	1.986528	42.30031
	1.987253	42.30042
	1.991024	42.30073
	1.992091	42.30026
	1.993532	42.3013
	1.993307	42.3026
	1.996326	42.30396
	1.997551	42.30412
	1.998777	42.30413
	2.000941	42.30511
	2.002276	42.30512
	2.005163	42.3065
	2.005821	42.30761
	2.007194	42.30687
	2.008449	42.30725
	2.009886	42.30718
	2.012624	42.30835
	2.013965	42.30752
	2.014758	42.30758
	2.015829	42.30809
	2.016919	42.30882
	2.018517	42.31031
	2.022714	42.30924
	2.023691	42.30917
	2.026268	42.30712
	2.028237	42.30626
	2.0339	42.30624
	2.034245	42.30616
	2.035948	42.30501
	2.037205	42.30541
	2.037973	42.30515
	2.040058	42.30211
	2.043598	42.30087
	2.045347	42.29985
	2.047657	42.29765
	2.050499	42.29633
	2.053404	42.29627
	2.054835	42.29551
	2.057036	42.29559
	2.061024	42.29391
	2.061552	42.29323
	2.063467	42.29141
	2.064799	42.29124
	2.06634	42.29019
	2.069257	42.29193
	2.069897	42.2916
	2.069719	42.28924
	2.069414	42.28846
	2.069549	42.28772
	2.06914	42.28686
	2.068415	42.28614
	2.0677	42.28569
	2.067319	42.28502
	2.066934	42.28386
	2.06138	42.28264
	2.059822	42.28255
	2.057391	42.28081
	2.055389	42.28095
	2.052344	42.27881
	2.053124	42.2781
	2.051459	42.27609
	2.05123	42.27565
	2.051513	42.27524
	2.050852	42.27486
	2.050065	42.27472
	2.049568	42.27472
	2.04909	42.27511
	2.048416	42.27502
	2.048039	42.27471
	2.047813	42.27369
	2.047088	42.27328
	2.047053	42.27268
	2.046623	42.27231
	2.046039	42.27229
	2.045174	42.27253
	2.042223	42.26958
	2.042096	42.26936
	2.04293	42.26872
	2.043261	42.26802
	2.042308	42.26731
	2.041783	42.26666
	2.041752	42.26626
	2.042118	42.26569
	2.041243	42.26536
	2.040711	42.26492
	2.04053	42.26433
	2.040862	42.26332
	2.039742	42.26235
	2.0399	42.26053
	2.038609	42.26031
	2.038706	42.2597
	2.037991	42.2594
	2.037012	42.26004
	2.036365	42.25937
	2.035946	42.25852
	2.034464	42.25894
	2.03374	42.25882
	2.033237	42.25859
	2.032599	42.25774
	2.032135	42.2574
	2.030379	42.25695
	2.030158	42.25616
	2.029608	42.25518
	2.028933	42.25463
	2.027958	42.2541
	2.027072	42.25332
	2.028669	42.25343
	2.028479	42.25288
	2.028195	42.25251
	2.028285	42.25181
	2.029232	42.25138
	2.028732	42.25058
	2.027431	42.24946
	2.028492	42.24908
	2.028297	42.24877
	2.028874	42.24855
	2.028549	42.24797
	2.028964	42.24664
	2.029432	42.24643
	2.029139	42.24565
	2.02957	42.24497
	2.029097	42.24451
	2.028432	42.24423
	2.027891	42.24412
	2.028999	42.24359
	2.028515	42.24313
	2.027878	42.24275
	2.026746	42.24223
	2.027795	42.24125
	2.026901	42.24128
	2.026524	42.24081
	2.026381	42.24008
	2.024839	42.24003
	2.024679	42.23985
	2.024475	42.23926
	2.025037	42.2378
	2.024186	42.23716
	2.025082	42.23502
	2.024796	42.23325
	2.021075	42.23185
	2.020632	42.23192
	2.019537	42.23246
	2.018058	42.23246
	2.016731	42.23298
	2.016709	42.23271
	2.018195	42.23144
	2.018782	42.23074
	2.019381	42.22837
	2.020343	42.22829
	2.020805	42.22754
	2.021617	42.22739
	2.023175	42.22733
	2.022668	42.22659
	2.023572	42.22624
	2.023755	42.22534
	2.024985	42.2242
	2.024553	42.22364
	2.025765	42.22303
	2.025684	42.22233
	2.028022	42.22035
	2.028022	42.21974
	2.02859	42.2182
	2.029279	42.21697
	2.029906	42.21632
	2.030185	42.21587
	2.032087	42.21664
	2.033722	42.21846
	2.035038	42.21932
	2.039446	42.22113
	2.044419	42.22076
	2.044942	42.22141
	2.047222	42.22129
	2.048904	42.22141
	2.053296	42.21953
	2.053128	42.21834
	2.052231	42.21788
	2.050385	42.2163
	2.050131	42.21586
	2.051352	42.214
	2.051514	42.21361
	2.051043	42.21286
	2.050346	42.21217
	2.050683	42.21124
	2.050784	42.21023
	2.050761	42.20903
	2.050476	42.20834
	2.05222	42.20531
	2.05208	42.20281
	2.052555	42.20239
	2.053341	42.20131
	2.053572	42.20056
	2.05285	42.19895
	2.053239	42.19715
	2.052594	42.1962
	2.052509	42.19575
	2.053286	42.19516
	2.054604	42.19484
	2.055398	42.19477
	2.057012	42.19528
	2.058096	42.19506
	2.059191	42.19542
	2.059667	42.19548
	2.060282	42.19529
	2.061044	42.19483
	2.061537	42.19403
	2.062864	42.19306
	2.063547	42.19161
	2.063015	42.19071
	2.061629	42.18898
	2.061622	42.18783
	2.061268	42.18491
	2.061375	42.18398
	2.061342	42.18342
	2.061113	42.18298
	2.060903	42.18126
	2.060946	42.17983
	2.059965	42.17967
	2.05922	42.17913
	2.059351	42.17881
	2.05968	42.17852
	2.060523	42.17817
	2.060513	42.17789
	2.05973	42.17748
	2.058773	42.17733
	2.058018	42.17712
	2.057806	42.17659
	2.057905	42.1757
	2.057772	42.17555
	2.05739	42.17547
	2.056829	42.17602
	2.056539	42.17602
	2.05562	42.17558
	2.054177	42.17555
	2.046704	42.1761
	2.045301	42.17595
	2.044896	42.17664
	2.044655	42.17681
	2.043635	42.17662
	2.043036	42.17669
	2.042625	42.17701
	2.04192	42.17788
	2.041546	42.17789
	2.040336	42.1776
	2.039526	42.17761
	2.03866	42.17829
	2.03776	42.17853
	2.037021	42.17899
	2.036928	42.17873
	2.036663	42.17859
	2.034958	42.17815
	2.033863	42.17732
	2.031366	42.17698
	2.031153	42.17323
	2.031494	42.17218
	2.030184	42.17063
	2.028952	42.17035
	2.02827	42.17
	2.027926	42.16948
	2.027666	42.16879
	2.027803	42.16731
	2.027266	42.16681
	2.027517	42.16661
	2.027318	42.16639
	2.026906	42.16623
	2.026492	42.1662
	2.025939	42.16595
	2.023799	42.16474
	2.022751	42.16404
	2.020419	42.1644
	2.019446	42.16448
	2.018223	42.16417
	2.015798	42.16396
	2.012922	42.16401
	2.012072	42.16383
	2.011195	42.16298
	2.010487	42.1626
	2.009634	42.16267
	2.009024	42.16262
	2.007227	42.16209
	2.00653	42.16199
	2.005937	42.16199
	2.004833	42.1621
	2.004532	42.16228
	2.004403	42.16248
	2.004231	42.16566
	2.003904	42.16627
	2.003233	42.16682
	2.00248	42.1677
	1.998367	42.17019
	1.997575	42.17089
	1.996155	42.1716
	1.995545	42.1723
	2.000979	42.17629
	2.001543	42.17699
	2.001707	42.17753
	2.002554	42.17876
	2.002922	42.17943
	2.003398	42.17979
	2.004451	42.18147
	2.005023	42.18258
	2.005623	42.18328
	2.00611	42.18346
	2.006143	42.18373
	2.003165	42.1848
	2.002418	42.18531
	1.998952	42.18847
	1.998439	42.19011
	1.997944	42.19135
	1.998024	42.19205
	1.998815	42.19272
	1.999404	42.19297
	2.006439	42.19375
	2.0073	42.19407
	2.00121	42.19437
	1.999137	42.19434
	1.995789	42.19456
	1.994069	42.19456
	1.99307	42.19463
	1.990809	42.19452
	1.987952	42.19513
	1.987727	42.19474
	1.98546	42.19501
	1.982373	42.19593
	1.981717	42.19622
	1.979823	42.19661
	1.978213	42.19738
	1.977231	42.19861
	1.97636	42.19908
	1.974999	42.1984
	1.97436	42.19827
	1.972136	42.19802
	1.970409	42.19746
	1.969936	42.19745
	1.965694	42.19909
	1.96521	42.19909
	1.964663	42.19659
	1.964792	42.19562
	1.964306	42.19205
	1.965033	42.18789
	1.965039	42.18658
	1.965182	42.18547
	1.965391	42.1852
	1.96595	42.18214
	1.96574	42.17915
	1.965892	42.17879
	1.966427	42.17866
	1.970614	42.17818
	1.970796	42.17927
	1.970721	42.18016
	1.973695	42.18119
	1.974552	42.18132
	1.975749	42.18176
	1.97789	42.18267
	1.97878	42.1829
	1.982114	42.18142
	1.983686	42.18109
	1.985096	42.18117
	1.986897	42.18174
	1.990485	42.18259
	1.99149	42.18259
	1.99068	42.18122
	1.991231	42.17899
	1.991198	42.17873
	1.98986	42.17726
	1.98917	42.17665
	1.989294	42.17607
	1.989537	42.17562
	1.990697	42.17529
	1.99099	42.17501
	1.992153	42.17242
	1.99155	42.17198
	1.99077	42.17161
	1.99358	42.1678
	1.99389	42.16682
	1.993909	42.16629
	1.994128	42.16585
	1.99689	42.16205
	1.999608	42.15938
	2.002384	42.15699
	2.002839	42.15647
	2.004979	42.15507
	2.005368	42.15494
	2.005383	42.15451
	2.005288	42.15408
	2.004813	42.15358
	2.003612	42.15277
	2.005671	42.15188
	2.005859	42.15166
	2.004726	42.15063
	2.003989	42.14973
	2.003984	42.14951
	2.004313	42.14939
	2.008032	42.14976
	2.008614	42.14963
	2.010439	42.1496
	2.012833	42.14927
	2.014385	42.14977
	2.016266	42.15016
	2.01718	42.15023
	2.018112	42.15024
	2.019062	42.15032
	2.021123	42.15099
	2.022536	42.15156
	2.023481	42.15173
	2.024751	42.15218
	2.02535	42.15241
	2.02685	42.15256
	2.028254	42.15226
	2.029461	42.15192
	2.03099	42.15137
	2.032564	42.14956
	2.03332	42.14979
	2.034593	42.14844
	2.03487	42.1463
	2.035283	42.1457
	2.036347	42.14448
	2.036743	42.14368
	2.037101	42.14331
	2.037868	42.14307
	2.039826	42.14274
	2.040688	42.14293
	2.045243	42.14423
	2.045967	42.14436
	2.047813	42.14384
	2.048831	42.14341
	2.049256	42.14312
	2.051685	42.14309
	2.052136	42.14222
	2.053944	42.13926
	2.054053	42.13896
	2.054058	42.13856
	2.053949	42.13811
	2.054166	42.13779
	2.054556	42.13752
	2.055936	42.13753
	2.05646	42.13744
	2.059483	42.1359
	2.060383	42.13536
	2.061025	42.13567
	2.061756	42.13635
	2.06345	42.13757
	2.064757	42.13833
	2.065544	42.13865
	2.068287	42.13875
	2.069179	42.13887
	2.069859	42.13876
	2.07024	42.13913
	2.070798	42.14187
	2.072917	42.14159
	2.074579	42.1412
	2.07761	42.14189
	2.078516	42.14203
	2.079468	42.14198
	2.080312	42.14179
	2.082302	42.14156
	2.08459	42.14159
	2.085769	42.14165
	2.088698	42.14197
	2.089642	42.14214
	2.090286	42.14231
	2.091071	42.14306
	2.091974	42.14406
	2.092321	42.1443
	2.092712	42.14405
	2.093486	42.143
	2.093929	42.14265
	2.095493	42.14208
	2.095431	42.14161
	2.095109	42.14046
	2.095727	42.14033
	2.097471	42.1402
	2.101002	42.14019
	2.100828	42.13923
	2.101246	42.13871
	2.10126	42.13828
	2.099958	42.13623
	2.099545	42.13546
	2.099021	42.13375
	2.099031	42.13328
	2.099205	42.13289
	2.099143	42.13257
	2.098749	42.13187
	2.097569	42.13029
	2.100273	42.12977
	2.100344	42.12886
	2.099689	42.12778
	2.100686	42.12693
	2.100897	42.12655
	2.100934	42.12566
	2.10071	42.12528
	2.09992	42.12509
	2.100171	42.1246
	2.100699	42.12394
	2.101045	42.12373
	2.102273	42.12366
	2.103973	42.1233
	2.105138	42.12275
	2.105784	42.12236
	2.107441	42.12071
	2.108459	42.12073
	2.109377	42.12027
	2.11042	42.1194
	2.112915	42.1175
	2.11335	42.11736
	2.113946	42.11739
	2.115479	42.11781
	2.117311	42.11669
	2.117853	42.11621
	2.118072	42.11578
	2.119823	42.11635
	2.120682	42.11651
	2.121343	42.11645
	2.122697	42.116
	2.123763	42.11542
	2.124563	42.1144
	2.124781	42.11381
	2.125129	42.11348
	2.125922	42.11311
	2.12648	42.11343
	2.128076	42.11492
	2.130743	42.11696
	2.134186	42.11946
	2.136352	42.12067
	2.136989	42.12092
	2.1374	42.12121
	2.137729	42.12154
	2.138767	42.12436
	2.139755	42.12655
	2.140637	42.12773
	2.141781	42.12887
	2.142398	42.12961
	2.144175	42.13124
	2.144697	42.13141
	2.145216	42.1314
	2.145917	42.13125
	2.164123	42.1353
	2.181355	42.13525
	2.187589	42.13397
	2.188435	42.13145
	2.186527	42.12853
	2.189156	42.12474
	2.19287	42.12416
	2.201067	42.12429
	2.204899	42.12589
	2.203803	42.12653
	2.203309	42.12699
	2.202858	42.12754
	2.202353	42.12832
	2.202193	42.12916
	2.202339	42.13065
	2.202653	42.13109
	2.20315	42.13154
	2.203817	42.13186
	2.2047	42.13186
	2.205519	42.13167
	2.206226	42.1313
	2.207625	42.13007
	2.208565	42.12856
	2.209026	42.12799
	2.209735	42.12764
	2.210598	42.12754
	2.211324	42.12754
	2.211902	42.12767
	2.212324	42.12793
	2.212658	42.12848
	2.212848	42.12931
	2.212599	42.12996
	2.212175	42.13053
	2.205979	42.13315
	2.205581	42.13345
	2.205465	42.13381
	2.205564	42.13414
	2.207632	42.13546
	2.209012	42.13605
	2.210073	42.13661
	2.210637	42.13699
	2.210799	42.13765
	2.210388	42.13911
	2.210129	42.13964
	2.210867	42.13994
	2.211866	42.13914
	2.215152	42.13894
	2.214877	42.14016
	2.214615	42.1408
	2.215121	42.14209
	2.216127	42.14212
	2.217732	42.14192
	2.219625	42.14214
	2.220802	42.14219
	2.223256	42.14202
	2.223895	42.14273
	2.224719	42.14303
	2.229231	42.14275
	2.230187	42.14304
	2.233085	42.14327
	2.235967	42.14403
	2.237702	42.1441
	2.239079	42.14304
	2.240292	42.1431
	2.241616	42.14096
	2.242019	42.13969
	2.242619	42.13919
	2.242589	42.13853
	2.243022	42.13792
	2.244088	42.13779
	2.245605	42.13917
	2.247629	42.13922
	2.24871	42.13941
	2.249858	42.13897
	2.250641	42.13922
	2.251851	42.13893
	2.254535	42.13892
	2.255845	42.13867
	2.256782	42.13888
	2.257906	42.13873
	2.258629	42.13913
	2.259104	42.14004
	2.259793	42.14033
	2.260582	42.14124
	2.262521	42.14157
	2.263661	42.14146
	2.266715	42.14298
	2.267623	42.14285
	2.268813	42.14305
	2.270022	42.14521
	2.271824	42.14376
	2.271091	42.14281
	2.27166	42.14237
	2.272488	42.14272
	2.273097	42.14248
	2.27298	42.1421
	2.273648	42.14082
	2.27302	42.14068
	2.27229	42.14005
	2.272694	42.13938
	2.275555	42.14033
	2.276627	42.14014
	2.280848	42.14071
	2.278526	42.13868
	2.277104	42.13831
	2.276439	42.13788
	2.276953	42.13694
	2.277504	42.13643
	2.277726	42.1356
	2.279526	42.13384
	2.28066	42.13337
	2.280848	42.13403
	2.281754	42.13445
	2.284497	42.13384
	2.286651	42.13371
	2.286957	42.13259
	2.288011	42.13145
	2.290512	42.13112
	2.29158	42.12928
	2.292166	42.13095
	2.29327	42.13113
	2.293633	42.13186
	2.297322	42.13229
	2.297728	42.13252
	2.298107	42.133
	2.29845	42.13364
	2.299549	42.1342
	2.300332	42.1317
	2.300152	42.12998
	2.300955	42.12945
	2.300933	42.12789
	2.302185	42.12783
	2.302868	42.12731
	2.3017	42.1268
	2.301215	42.12605
	2.30208	42.12469
	2.301539	42.12386
	2.302133	42.12243
	2.300052	42.12199
	2.300799	42.1205
	2.300358	42.12014
	2.301209	42.11976
	2.301545	42.11902
	2.300379	42.11895
	2.298289	42.1171
	2.298565	42.11562
	2.300892	42.11555
	2.301296	42.11488
	2.303413	42.11243
	2.301876	42.11155
	2.302131	42.11083
	2.300688	42.10949
	2.297217	42.10832
	2.296824	42.10737
	2.293981	42.10576
	2.294775	42.10513
	2.29502	42.10329
	2.294921	42.10268
	2.309679	42.10972
	2.316332	42.11063
	2.316992	42.11086
	2.316826	42.11162
	2.317852	42.11232
	2.318205	42.11292
	2.318283	42.11327
	2.317507	42.11382
	2.31654	42.11311
	2.315815	42.1134
	2.316173	42.11422
	2.317238	42.11451
	2.31827	42.11427
	2.318682	42.11356
	2.319883	42.11592
	2.32326	42.11596
	2.325942	42.11651
	2.329191	42.11631
	2.331205	42.1164
	2.333698	42.11599
	2.335653	42.11667
	2.336788	42.11651
	2.33822	42.11757
	2.339499	42.11768
	2.340662	42.11813
	2.341253	42.11869
	2.341788	42.11944
	2.341986	42.12022
	2.343263	42.1203
	2.344242	42.12087
	2.345403	42.12087
	2.34617	42.12079
	2.346991	42.12135
	2.347481	42.12128
	2.351258	42.11947
	2.35308	42.12042
	2.355946	42.11913
	2.357267	42.12017
	2.362336	42.12063
	2.364182	42.12087
	2.366025	42.12135
	2.368759	42.11779
	2.368901	42.1169
	2.369337	42.11619
	2.370194	42.11603
	2.37397	42.11679
	2.373928	42.11429
	2.374281	42.11375
	2.373793	42.11327
	2.376654	42.1098
	2.376642	42.10652
	2.376791	42.10585
	2.377476	42.10508
	2.378373	42.10497
	2.379147	42.10455
	2.379875	42.10372
	2.38132	42.10352
	2.382497	42.10357
	2.383249	42.10388
	2.383491	42.1036
	2.384916	42.10373
	2.386757	42.10405
	2.394757	42.1043
	2.397633	42.10315
	2.399537	42.10293
	2.4001	42.10216
	2.39502	42.09517
	2.39482	42.09266
	2.395247	42.09215
	2.394853	42.0912
	2.39593	42.08924
	2.396925	42.08857
	2.397258	42.08793
	2.394996	42.08678
	2.400038	42.08211
	2.403735	42.08012
	2.403916	42.07926
	2.405748	42.07877
	2.406308	42.07669
	2.407318	42.07607
	2.407389	42.07421
	2.408308	42.0735
	2.408187	42.07237
	2.40883	42.07084
	2.410534	42.06998
	2.410572	42.06916
	2.411021	42.06862
	2.411859	42.06838
	2.412189	42.069
	2.414599	42.06892
	2.414751	42.06829
	2.416182	42.06764
	2.417202	42.06487
	2.419567	42.06498
	2.420625	42.06535
	2.422769	42.06314
	2.423927	42.0634
	2.425004	42.06314
	2.425417	42.06245
	2.426255	42.06237
	2.426984	42.06383
	2.427501	42.06423
	2.428433	42.06382
	2.429338	42.06395
	2.436037	42.06896
	2.439548	42.07032
	2.442352	42.07201
	2.443118	42.07278
	2.443456	42.0732
	2.44579	42.07336
	2.447315	42.07368
	2.448076	42.07394
	2.448609	42.07424
	2.448878	42.07471
	2.448832	42.07515
	2.448552	42.07583
	2.448408	42.07655
	2.449641	42.07741
	2.451777	42.07723
	2.453507	42.07668
	2.454604	42.07793
	2.458209	42.07516
	2.463667	42.07596
	2.466702	42.07374
	2.470323	42.06935
	2.471486	42.06671
	2.471899	42.0645
	2.47411	42.06365
	2.477305	42.06736
	2.479266	42.06811
	2.481034	42.06872
	2.49035	42.06732
	2.491586	42.06527
	2.491793	42.06375
	2.494155	42.06187
	2.494922	42.0615
	2.494972	42.06141
	2.495063	42.06107
	2.495129	42.06091
	2.495371	42.06061
	2.495293	42.06053
	2.495512	42.06034
	2.495603	42.06015
	2.496042	42.05954
	2.496035	42.05938
	2.496147	42.05917
	2.496116	42.05898
	2.496146	42.0589
	2.495581	42.05888
	2.495316	42.05862
	2.495205	42.05841
	2.49516	42.05819
	2.495138	42.05798
	2.494052	42.05784
	2.493261	42.05777
	2.493213	42.05767
	2.493246	42.05755
	2.492375	42.05735
	2.491558	42.05625
	2.491227	42.05599
	2.491061	42.05584
	2.490655	42.05541
	2.490185	42.05522
	2.489973	42.05516
	2.489779	42.05506
	2.489472	42.05499
	2.489114	42.05497
	2.489044	42.05498
	2.486911	42.05457
	2.486206	42.05453
	2.485686	42.05437
	2.483397	42.05215
	2.483235	42.05217
	2.483112	42.05206
	2.483015	42.052
	2.482736	42.05186
	2.482325	42.05172
	2.482102	42.05159
	2.482072	42.0515
	2.482217	42.05132
	2.481984	42.05124
	2.481907	42.05119
	2.481841	42.0512
	2.48165	42.05113
	2.48147	42.05098
	2.481345	42.05082
	2.481496	42.05068
	2.481646	42.05063
	2.482012	42.05057
	2.482272	42.05048
	2.482465	42.05038
	2.482427	42.05029
	2.482505	42.05023
	2.48271	42.04998
	2.482876	42.04974
	2.482975	42.0495
	2.482943	42.04936
	2.482648	42.04926
	2.482783	42.04893
	2.483008	42.04871
	2.483089	42.04836
	2.483365	42.04735
	2.483671	42.04661
	2.483856	42.04645
	2.484698	42.04618
	2.484999	42.04624
	2.485337	42.04616
	2.485664	42.04611
	2.486017	42.04544
	2.486637	42.04552
	2.486888	42.0452
	2.487169	42.04502
	2.487297	42.04499
	2.487635	42.04507
	2.487702	42.04512
	2.487871	42.04456
	2.490702	42.04029
	2.490863	42.04018
	2.491046	42.0401
	2.49122	42.04005
	2.491891	42.03938
	2.492381	42.03886
	2.492679	42.0386
	2.493083	42.03833
	2.493274	42.03812
	2.493474	42.03794
	2.493802	42.03744
	2.494044	42.0374
	2.49454	42.0375
	2.494682	42.03743
	2.494917	42.03738
	2.496126	42.03749
	2.496364	42.03739
	2.497286	42.0363
	2.498003	42.03542
	2.498897	42.03441
	2.499026	42.03443
	2.499528	42.03423
	2.50006	42.03396
	2.50039	42.03382
	2.500902	42.03322
	2.500834	42.03314
	2.500494	42.03296
	2.500421	42.0329
	2.50044	42.03286
	2.503707	42.03204
	2.506161	42.03226
	2.506064	42.03209
	2.505885	42.03152
	2.505872	42.03117
	2.504936	42.02776
	2.504934	42.02742
	2.504892	42.0271
	2.504747	42.02704
	2.504682	42.02712
	2.504638	42.02725
	2.504312	42.02694
	2.504316	42.02687
	2.50449	42.02649
	2.504184	42.02625
	2.504085	42.02608
	2.504077	42.02585
	2.504044	42.02562
	2.503903	42.02534
	2.503891	42.02516
	2.503812	42.025
	2.503533	42.02463
	2.503623	42.02452
	2.50307	42.02395
	2.502669	42.02362
	2.502331	42.02347
	2.502176	42.02362
	2.50209	42.02387
	2.501949	42.024
	2.501808	42.02404
	2.501695	42.02403
	2.501551	42.0239
	2.501445	42.02369
	2.501221	42.02302
	2.500617	42.02266
	2.500396	42.0225
	2.500189	42.02217
	2.499832	42.02193
	2.499713	42.02182
	2.499566	42.02177
	2.498965	42.02139
	2.498571	42.0212
	2.498315	42.02113
	2.498186	42.02114
	2.497789	42.02104
	2.49708	42.0211
	2.496564	42.02099
	2.496356	42.02098
	2.495711	42.02098
	2.495229	42.02106
	2.494617	42.02092
	2.494488	42.02094
	2.494309	42.02092
	2.494305	42.02079
	2.49421	42.02076
	2.49458	42.01971
	2.494564	42.01935
	2.494493	42.01929
	2.49436	42.01903
	2.494444	42.01844
	2.494454	42.01797
	2.494504	42.01788
	2.494482	42.01752
	2.495447	42.01674
	2.49549	42.01635
	2.495591	42.01599
	2.495584	42.01561
	2.495613	42.01546
	2.494691	42.01242
	2.495162	42.01168
	2.49764	42.01089
	2.498309	42.01105
	2.498449	42.01111
	2.498783	42.01115
	2.499267	42.01094
	2.500259	42.0107
	2.50091	42.01057
	2.501457	42.01055
	2.50154	42.01057
	2.501732	42.01065
	2.502445	42.01052
	2.502702	42.01044
	2.502879	42.0102
	2.503089	42.01013
	2.50322	42.01012
	2.503259	42.01003
	2.503278	42.00996
	2.503281	42.00971
	2.503343	42.00967
	2.503256	42.00964
	2.503194	42.00953
	2.502635	42.00887
	2.501985	42.00822
	2.501904	42.00807
	2.501793	42.00793
	2.501545	42.00738
	2.501533	42.00714
	2.501515	42.00706
	2.501535	42.00694
	2.501546	42.00664
	2.501529	42.00553
	2.501474	42.00509
	2.501462	42.00478
	2.501579	42.00419
	2.501782	42.00349
	2.501861	42.00339
	2.501944	42.00223
	2.501905	42.00187
	2.498903	42.0018
	2.498908	42.00151
	2.494769	42.00157
	2.493613	42.00133
	2.492955	42.00122
	2.492605	42.0011
	2.491739	42.00059
	2.49107	42.00051
	2.488265	41.99908
	2.484591	41.99915
	2.482956	41.99666
	2.480551	41.99697
	2.479512	41.99822
	2.479693	41.9985
	2.478976	41.99872
	2.478696	41.9989
	2.478539	41.99912
	2.478293	42.00001
	2.478297	42.00035
	2.478401	42.00099
	2.477694	42.00101
	2.476586	42.00101
	2.47653	42.00099
	2.476592	41.99739
	2.476123	41.99786
	2.475465	41.99729
	2.475218	41.9975
	2.475003	41.99772
	2.474308	41.99739
	2.473547	41.99708
	2.472808	41.99681
	2.473333	41.99608
	2.473228	41.99593
	2.472994	41.99572
	2.472671	41.99546
	2.469657	41.99419
	2.469395	41.99382
	2.46959	41.99373
	2.47023	41.99357
	2.471145	41.99329
	2.470899	41.99291
	2.473801	41.99164
	2.474219	41.99159
	2.474511	41.99159
	2.475055	41.99145
	2.475255	41.99143
	2.47552	41.99142
	2.475856	41.99153
	2.479279	41.99026
	2.480218	41.98953
	2.483691	41.98724
	2.483749	41.98713
	2.484119	41.9869
	2.48439	41.98671
	2.484561	41.98663
	2.484863	41.98642
	2.485705	41.98594
	2.486829	41.98521
	2.486765	41.98517
	2.487218	41.98499
	2.487315	41.98493
	2.486736	41.98467
	2.485527	41.98427
	2.48432	41.98389
	2.483359	41.98351
	2.482286	41.98315
	2.482069	41.98306
	2.481316	41.98284
	2.481053	41.98274
	2.479932	41.98249
	2.479966	41.98162
	2.480032	41.98125
	2.480066	41.98093
	2.480189	41.98048
	2.480402	41.97919
	2.48057	41.97864
	2.480414	41.9786
	2.480424	41.97853
	2.47671	41.9774
	2.475412	41.97754
	2.472549	41.97528
	2.471506	41.97337
	2.471914	41.97296
	2.471766	41.97217
	2.472335	41.97172
	2.472878	41.97126
	2.4728	41.9712
	2.472592	41.97117
	2.472668	41.97108
	2.46975	41.96851
	2.467797	41.96804
	2.465214	41.96675
	2.461439	41.96789
	2.45852	41.96671
	2.456826	41.96604
	2.455769	41.96789
	2.454778	41.96763
	2.454456	41.96749
	2.454063	41.96712
	2.453617	41.96712
	2.45357	41.96705
	2.453192	41.96681
	2.452384	41.96645
	2.45193	41.96619
	2.450018	41.96853
	2.449442	41.96968
	2.446575	41.96806
	2.446075	41.96767
	2.445433	41.9672
	2.44488	41.96696
	2.444589	41.96662
	2.443817	41.96596
	2.443165	41.96606
	2.442082	41.96608
	2.441603	41.96605
	2.440782	41.96618
	2.440374	41.96618
	2.43956	41.96627
	2.439236	41.96627
	2.438883	41.96623
	2.438322	41.96611
	2.437845	41.96607
	2.437472	41.96616
	2.437158	41.96646
	2.436904	41.96682
	2.436745	41.96728
	2.436785	41.96764
	2.436906	41.96804
	2.437027	41.9683
	2.437249	41.96853
	2.437546	41.96867
	2.437864	41.96875
	2.438324	41.96882
	2.438772	41.96886
	2.439245	41.96892
	2.439853	41.96909
	2.440735	41.96955
	2.441047	41.96984
	2.441292	41.97013
	2.44146	41.97054
	2.441571	41.97093
	2.441435	41.97158
	2.441206	41.9719
	2.440973	41.97211
	2.440507	41.97235
	2.44009	41.9725
	2.439189	41.97266
	2.438861	41.97263
	2.438474	41.97248
	2.437866	41.9724
	2.437139	41.97237
	2.436215	41.97235
	2.435722	41.9722
	2.435206	41.97199
	2.434376	41.97124
	2.433412	41.97031
	2.433018	41.97007
	2.432612	41.96995
	2.432454	41.96982
	2.432365	41.96964
	2.43221	41.96955
	2.432107	41.96917
	2.431422	41.96854
	2.430973	41.96844
	2.43085	41.96831
	2.430176	41.96827
	2.429749	41.9684
	2.429484	41.96839
	2.429269	41.96835
	2.429055	41.96835
	2.429047	41.96827
	2.429058	41.96802
	2.428981	41.96641
	2.429319	41.96637
	2.429365	41.96576
	2.432358	41.9656
	2.434853	41.96398
	2.439442	41.96293
	2.441491	41.95989
	2.441607	41.95867
	2.442155	41.95755
	2.442246	41.95677
	2.441676	41.9554
	2.442029	41.95436
	2.437923	41.95129
	2.436486	41.94823
	2.436749	41.948
	2.437524	41.94754
	2.437764	41.94749
	2.438596	41.94747
	2.440238	41.94686
	2.44033	41.94662
	2.440136	41.94554
	2.439725	41.94476
	2.439737	41.94464
	2.439976	41.94429
	2.440216	41.94414
	2.4409	41.94324
	2.441219	41.94294
	2.441783	41.94251
	2.442808	41.94133
	2.445392	41.94208
	2.445949	41.94387
	2.450996	41.94385
	2.451153	41.94319
	2.455162	41.94115
	2.455177	41.94125
	2.455775	41.94161
	2.45579	41.94176
	2.456352	41.94228
	2.456425	41.9424
	2.456439	41.94256
	2.456469	41.94263
	2.456651	41.94279
	2.456656	41.94302
	2.457204	41.94345
	2.457523	41.94356
	2.457637	41.94368
	2.458333	41.9438
	2.458504	41.94386
	2.45896	41.94426
	2.459097	41.94445
	2.459165	41.94477
	2.459097	41.94503
	2.459143	41.94522
	2.460454	41.94389
	2.4605	41.94351
	2.460454	41.94315
	2.460796	41.94258
	2.461823	41.94117
	2.462096	41.94069
	2.462279	41.93802
	2.464603	41.9388
	2.465479	41.93805
	2.470974	41.93866
	2.471409	41.9385
	2.471614	41.9384
	2.471731	41.93825
	2.471712	41.93815
	2.471708	41.93799
	2.471768	41.9379
	2.471871	41.9378
	2.471932	41.93768
	2.471955	41.93754
	2.471997	41.93746
	2.472221	41.93728
	2.47231	41.93715
	2.472399	41.93705
	2.472506	41.93701
	2.47281	41.93668
	2.473455	41.93615
	2.47353	41.93604
	2.473567	41.93589
	2.473646	41.93583
	2.473955	41.93567
	2.474679	41.93503
	2.474973	41.93474
	2.475305	41.93426
	2.475449	41.93409
	2.475996	41.93369
	2.476429	41.93343
	2.476573	41.93323
	2.476935	41.93292
	2.477201	41.93262
	2.477365	41.93234
	2.477562	41.93219
	2.477742	41.9319
	2.477975	41.93158
	2.478116	41.93142
	2.478385	41.93118
	2.478639	41.93102
	2.478797	41.93095
	2.478944	41.93092
	2.479069	41.9309
	2.479195	41.93092
	2.479305	41.93089
	2.479429	41.93078
	2.479516	41.93064
	2.479546	41.93039
	2.479648	41.93024
	2.479714	41.93011
	2.479728	41.92957
	2.479874	41.92932
	2.48002	41.92887
	2.480159	41.92756
	2.480144	41.9266
	2.480259	41.92608
	2.48064	41.92536
	2.480939	41.92446
	2.481103	41.92389
	2.481096	41.92326
	2.481036	41.92246
	2.480707	41.92183
	2.480087	41.92121
	2.479627	41.92087
	2.479263	41.92072
	2.478803	41.92049
	2.478627	41.92026
	2.47846	41.92
	2.478401	41.9196
	2.478474	41.91932
	2.47881	41.91871
	2.479044	41.91848
	2.479292	41.91827
	2.48092	41.91754
	2.481555	41.91714
	2.481788	41.91687
	2.482044	41.91646
	2.482133	41.91611
	2.482138	41.91601
	2.481998	41.91591
	2.481699	41.91579
	2.480087	41.91548
	2.479671	41.91545
	2.479284	41.9153
	2.478008	41.91506
	2.477284	41.91481
	2.475401	41.91423
	2.473578	41.91225
	2.473372	41.91138
	2.473231	41.9112
	2.472848	41.91018
	2.472831	41.91
	2.472617	41.90955
	2.472215	41.90934
	2.47195	41.90928
	2.471128	41.90904
	2.47074	41.90888
	2.469946	41.90843
	2.469758	41.90814
	2.469448	41.90793
	2.469238	41.90767
	2.468758	41.90692
	2.468416	41.90669
	2.468238	41.90644
	2.468196	41.90629
	2.468261	41.90598
	2.468294	41.90528
	2.46849	41.90486
	2.46867	41.90484
	2.460018	41.90222
	2.460186	41.90117
	2.458948	41.89831
	2.457724	41.89801
	2.456353	41.89673
	2.454903	41.89596
	2.453802	41.89578
	2.452719	41.89571
	2.451637	41.89577
	2.451372	41.89584
	2.45055	41.89591
	2.450149	41.89582
	2.449377	41.89576
	2.448806	41.89579
	2.448244	41.89562
	2.447587	41.8955
	2.446838	41.89518
	2.446242	41.89474
	2.445942	41.89432
	2.445924	41.89365
	2.445989	41.89303
	2.446015	41.89209
	2.446099	41.89103
	2.446183	41.89072
	2.446213	41.89006
	2.445543	41.88957
	2.446225	41.88907
	2.444561	41.88678
	2.444371	41.88675
	2.443384	41.88575
	2.443233	41.88569
	2.442226	41.88555
	2.441908	41.88558
	2.440875	41.88577
	2.440206	41.88608
	2.440199	41.88606
	2.440183	41.88607
	2.439614	41.88586
	2.439349	41.88584
	2.438403	41.88601
	2.438195	41.8861
	2.438164	41.8861
	2.437789	41.88623
	2.437668	41.88629
	2.437384	41.88655
	2.437351	41.88654
	2.436611	41.88655
	2.436134	41.88661
	2.435779	41.88685
	2.435698	41.88685
	2.434955	41.88695
	2.434727	41.88703
	2.434073	41.88747
	2.433829	41.88752
	2.433662	41.88761
	2.433205	41.88815
	2.43263	41.88816
	2.432342	41.88821
	2.431938	41.88817
	2.431689	41.88816
	2.430763	41.88836
	2.430643	41.88842
	2.430281	41.88847
	2.42938	41.88884
	2.429136	41.88902
	2.42833	41.89073
	2.428343	41.89098
	2.428575	41.89182
	2.428738	41.89212
	2.428879	41.89231
	2.428889	41.89236
	2.428344	41.89238
	2.427762	41.89248
	2.427603	41.89254
	2.427251	41.89305
	2.426264	41.8931
	2.426127	41.89315
	2.425498	41.89359
	2.425368	41.89365
	2.424903	41.89363
	2.4244	41.8935
	2.423854	41.89343
	2.423649	41.89342
	2.422172	41.89395
	2.422084	41.89403
	2.421825	41.89382
	2.419638	41.89402
	2.418536	41.89353
	2.417597	41.89326
	2.417074	41.8942
	2.415929	41.89533
	2.415235	41.89567
	2.415311	41.896
	2.415571	41.89623
	2.407118	41.89572
	2.405315	41.88994
	2.405051	41.88953
	2.404929	41.88894
	2.405165	41.88845
	2.405546	41.88811
	2.404704	41.88712
	2.404394	41.88631
	2.404171	41.88609
	2.40314	41.88587
	2.401909	41.88584
	2.400877	41.88603
	2.399877	41.88647
	2.399763	41.88626
	2.398893	41.88608
	2.397975	41.88577
	2.397397	41.88577
	2.39698	41.88596
	2.396514	41.88601
	2.396145	41.88579
	2.395708	41.88503
	2.395771	41.88478
	2.396423	41.88437
	2.396473	41.88424
	2.396365	41.8841
	2.395983	41.884
	2.3958	41.88384
	2.396008	41.88344
	2.395487	41.88284
	2.39564	41.88266
	2.392786	41.8808
	2.392636	41.88046
	2.392646	41.88014
	2.39287	41.87967
	2.393671	41.87902
	2.389883	41.87866
	2.388511	41.87954
	2.387212	41.87914
	2.387487	41.87897
	2.387236	41.87842
	2.387235	41.8777
	2.386581	41.8775
	2.385172	41.87737
	2.38451	41.87694
	2.384063	41.87651
	2.38386	41.87596
	2.384068	41.87556
	2.383762	41.8745
	2.383794	41.87417
	2.384012	41.87403
	2.384356	41.87398
	2.38442	41.87374
	2.384034	41.87358
	2.383911	41.87342
	2.383831	41.87246
	2.383639	41.87204
	2.383052	41.87179
	2.382607	41.87152
	2.37807	41.87414
	2.37774	41.87336
	2.3772	41.87281
	2.376439	41.87365
	2.376137	41.87421
	2.375765	41.87466
	2.374892	41.87616
	2.37289	41.87871
	2.371969	41.87894
	2.371649	41.87929
	2.371071	41.87943
	2.371032	41.87969
	2.370662	41.87987
	2.370339	41.88047
	2.37043	41.88069
	2.370176	41.88083
	2.370487	41.88123
	2.370296	41.88154
	2.370454	41.88185
	2.370415	41.88195
	2.369645	41.88225
	2.369606	41.88251
	2.369967	41.88279
	2.369569	41.88292
	2.36963	41.88308
	2.369947	41.88326
	2.369932	41.88395
	2.370229	41.88418
	2.370127	41.88455
	2.370241	41.88476
	2.370046	41.88488
	2.369665	41.8855
	2.367873	41.88468
	2.367464	41.88339
	2.367384	41.88201
	2.366613	41.88014
	2.362876	41.88227
	2.361524	41.88338
	2.358315	41.88247
	2.357937	41.88227
	2.357453	41.88138
	2.356751	41.88106
	2.356126	41.88108
	2.355271	41.88122
	2.353606	41.88263
	2.353637	41.883
	2.353476	41.88352
	2.35269	41.88493
	2.3522	41.88527
	2.351185	41.88552
	2.351011	41.88588
	2.350871	41.88594
	2.350263	41.88587
	2.349869	41.8862
	2.349496	41.88692
	2.349035	41.88675
	2.348613	41.88674
	2.348101	41.88682
	2.346354	41.88739
	2.346162	41.88668
	2.344545	41.88621
	2.343043	41.88698
	2.342128	41.88728
	2.341199	41.88726
	2.340475	41.88711
	2.339723	41.88791
	2.338705	41.88856
	2.338084	41.88877
	2.337527	41.88916
	2.336722	41.88862
	2.336635	41.88815
	2.336851	41.88786
	2.336895	41.88723
	2.336699	41.8869
	2.335058	41.88586
	2.334839	41.88555
	2.334203	41.88385
	2.333842	41.88371
	2.332187	41.88351
	2.331148	41.88289
	2.330262	41.88253
	2.329922	41.8822
	2.329634	41.8828
	2.329176	41.88294
	2.32798	41.88305
	2.327981	41.88176
	2.326932	41.88059
	2.326668	41.88002
	2.325671	41.87934
	2.325694	41.87874
	2.325465	41.8783
	2.324986	41.87805
	2.324918	41.87723
	2.325124	41.87696
	2.325162	41.8767
	2.324564	41.87558
	2.324198	41.87539
	2.323804	41.87543
	2.324267	41.87505
	2.324317	41.87493
	2.324066	41.87481
	2.323543	41.87475
	2.323504	41.87457
	2.323699	41.87402
	2.323856	41.87388
	2.324396	41.87385
	2.325203	41.87342
	2.325176	41.87309
	2.32448	41.87269
	2.324824	41.87249
	2.324777	41.87236
	2.324461	41.87218
	2.324413	41.87204
	2.324577	41.87183
	2.325052	41.87176
	2.325833	41.87116
	2.325731	41.87051
	2.326373	41.87027
	2.326463	41.86989
	2.326796	41.86941
	2.327768	41.86864
	2.328672	41.86764
	2.328979	41.86655
	2.329475	41.86614
	2.330409	41.86579
	2.331554	41.86551
	2.331663	41.86537
	2.331659	41.86518
	2.331278	41.86495
	2.330532	41.86481
	2.330304	41.86467
	2.331037	41.86379
	2.331311	41.86361
	2.332348	41.86348
	2.332446	41.86321
	2.332306	41.86298
	2.332008	41.86272
	2.33177	41.86189
	2.330706	41.86112
	2.330678	41.86078
	2.330941	41.86047
	2.330099	41.85976
	2.329786	41.85932
	2.32975	41.85875
	2.329845	41.85816
	2.33072	41.8568
	2.330803	41.85649
	2.330196	41.85586
	2.329866	41.85609
	2.328347	41.85622
	2.327992	41.856
	2.327282	41.85601
	2.326449	41.8557
	2.325989	41.85566
	2.32776	41.85205
	2.329792	41.84827
	2.330097	41.84802
	2.331753	41.84723
	2.332014	41.84661
	2.332327	41.84632
	2.332358	41.84553
	2.332624	41.84482
	2.332988	41.84428
	2.334137	41.84347
	2.334954	41.84316
	2.336427	41.84278
	2.337165	41.8421
	2.337617	41.84102
	2.338032	41.84066
	2.33987	41.83988
	2.340909	41.83906
	2.342084	41.83857
	2.343024	41.8383
	2.344883	41.83735
	2.344955	41.83663
	2.345572	41.83508
	2.346646	41.83338
	2.34733	41.83234
	2.346812	41.83176
	2.346609	41.83077
	2.346202	41.83007
	2.346153	41.82978
	2.346325	41.8291
	2.346057	41.82877
	2.345828	41.82805
	2.345728	41.82729
	2.34551	41.82698
	2.34487	41.8268
	2.344114	41.82612
	2.343483	41.82576
	2.343321	41.82526
	2.3436	41.82414
	2.344124	41.82349
	2.344277	41.82288
	2.343758	41.82171
	2.344083	41.82084
	2.344796	41.82001
	2.345621	41.81836
	2.346403	41.81734
	2.347044	41.81694
	2.347481	41.81656
	2.349187	41.81595
	2.349515	41.81569
	2.349872	41.81507
	2.350316	41.81376
	2.350587	41.8134
	2.35152	41.81275
	2.351544	41.81232
	2.351278	41.81174
	2.351239	41.81141
	2.351423	41.81102
	2.351363	41.81016
	2.351551	41.80967
	2.352935	41.80794
	2.35339	41.80763
	2.353823	41.80749
	2.354298	41.80712
	2.356881	41.80692
	2.357872	41.80669
	2.360017	41.80659
	2.362794	41.80684
	2.364245	41.80664
	2.365534	41.80594
	2.365697	41.80545
	2.366362	41.80476
	2.367102	41.8044
	2.370515	41.80406
	2.372219	41.80445
	2.373556	41.8046
	2.374608	41.80481
	2.37601	41.80474
	2.376611	41.80502
	2.377861	41.80629
	2.378238	41.80692
	2.379233	41.80773
	2.380628	41.80845
	2.38172	41.80855
	2.382209	41.80878
	2.382684	41.80871
	2.384327	41.80807
	2.385415	41.80713
	2.386051	41.80625
	2.386792	41.80562
	2.387573	41.80518
	2.388211	41.80503
	2.390353	41.80518
	2.392868	41.80576
	2.395397	41.80578
	2.396269	41.80571
	2.396656	41.80559
	2.397172	41.80486
	2.398043	41.8042
	2.398634	41.80394
	2.399268	41.80389
	2.400246	41.80321
	2.401662	41.80274
	2.402643	41.80225
	2.403776	41.80185
	2.404701	41.80168
	2.405242	41.80168
	2.406973	41.80195
	2.409683	41.80155
	2.410397	41.8016
	2.410986	41.80203
	2.411751	41.80339
	2.412173	41.80368
	2.413754	41.80431
	2.415987	41.80482
	2.416272	41.80478
	2.416617	41.80445
	2.418235	41.80441
	2.419533	41.80422
	2.423672	41.80392
	2.424775	41.80402
	2.425801	41.80449
	2.426544	41.8046
	2.428418	41.80399
	2.429027	41.80394
	2.429836	41.80397
	2.430364	41.80381
	2.430912	41.80389
	2.433154	41.80337
	2.433768	41.80338
	2.434934	41.80294
	2.435325	41.80301
	2.436529	41.80288
	2.436995	41.80255
	2.437176	41.80199
	2.43767	41.80172
	2.437868	41.80136
	2.438196	41.80112
	2.439402	41.80072
	2.440101	41.8006
	2.440409	41.80039
	2.440631	41.7999
	2.441016	41.79962
	2.442872	41.79894
	2.443268	41.79837
	2.443335	41.79745
	2.442833	41.79607
	2.442871	41.79495
	2.442673	41.79433
	2.442726	41.79354
	2.442971	41.79302
	2.442994	41.79245
	2.44343	41.79205
	2.44324	41.79152
	2.443766	41.79063
	2.44383	41.78997
	2.443764	41.78919
	2.455753	41.78419
	2.460574	41.78544
	2.464477	41.78663
	2.470253	41.78878
	2.472175	41.7896
	2.471217	41.78527
	2.470028	41.77894
	2.469147	41.77779
	2.474247	41.77529
	2.479264	41.77275
	2.481939	41.77154
	2.482137	41.77104
	2.482371	41.77068
	2.482709	41.77041
	2.483742	41.77012
	2.485011	41.76935
	2.485189	41.76919
	2.485231	41.76856
	2.485322	41.76834
	2.486174	41.76776
	2.486568	41.76746
	2.487133	41.76731
	2.487432	41.76714
	2.48781	41.76678
	2.488469	41.76647
	2.489852	41.7655
	2.492695	41.76486
	2.494222	41.7643
	2.494565	41.76423
	2.495092	41.76434
	2.496083	41.76497
	2.496861	41.7652
	2.497486	41.76519
	2.498257	41.76508
	2.50539	41.76258
	2.512382	41.76195
	2.513734	41.76215
	2.51458	41.76221
	2.515757	41.76206
	2.515973	41.7619
	2.515845	41.76084
	2.515906	41.76056
	2.516555	41.76001
	2.518658	41.7558
	2.515353	41.75343
	2.516877	41.75033
	2.516672	41.75004
	2.516463	41.74956
	2.515821	41.74909
	2.51563	41.74868
	2.51621	41.74802
	2.516899	41.74764
	2.517607	41.74735
	2.518302	41.74718
	2.519258	41.74628
	2.520413	41.74559
	2.520583	41.74532
	2.520754	41.74452
	2.521099	41.74406
	2.523161	41.74232
	2.523599	41.74211
	2.524217	41.74202
	2.52606	41.7415
	2.526947	41.74106
	2.529168	41.73977
	2.530903	41.73913
	2.531237	41.73896
	2.53146	41.73861
	2.531215	41.73814
	2.531181	41.73775
	2.531733	41.73697
	2.531189	41.73599
	2.531109	41.73555
	2.530829	41.73524
	2.530703	41.73508
	2.53039	41.73464
	2.530156	41.73425
	2.530066	41.73368
	2.52999	41.7337
	2.529954	41.73359
	2.52988	41.73323
	2.529351	41.73248
	2.529204	41.7323
	2.528914	41.73182
	2.528849	41.73167
	2.529911	41.72904
	2.532111	41.72994
	2.532307	41.72978
	2.532427	41.72993
	2.532707	41.72951
	2.533573	41.72882
	2.534124	41.7281
	2.534232	41.72768
	2.534269	41.72699
	2.534655	41.72632
	2.534693	41.72536
	2.535439	41.72397
	2.535774	41.72368
	2.536415	41.72331
	2.537183	41.72204
	2.537542	41.72175
	2.537962	41.7216
	2.542437	41.72124
	2.543407	41.72106
	2.544588	41.72069
	2.545142	41.72042
	2.545275	41.72033
	2.544646	41.72001
	2.544189	41.7198
	2.543863	41.7197
	2.543432	41.71962
	2.541784	41.71732
	2.544084	41.71568
	2.544651	41.71577
	2.544917	41.71583
	2.545758	41.71611
	2.547002	41.71672
	2.547938	41.71721
	2.548695	41.71747
	2.550268	41.71794
	2.551632	41.72038
	2.551483	41.72047
	2.557926	41.72263
	2.558676	41.72255
	2.559358	41.72265
	2.559765	41.72278
	2.560304	41.72304
	2.560661	41.72313
	2.561334	41.72313
	2.561646	41.72327
	2.561917	41.72348
	2.562825	41.72384
	2.563821	41.72479
	2.564246	41.72498
	2.56868	41.72582
	2.569006	41.72667
	2.569516	41.72631
	2.570098	41.72609
	2.571934	41.72606
	2.572686	41.72559
	2.574279	41.72511
	2.575059	41.72497
	2.576239	41.7243
	2.577337	41.72435
	2.578535	41.72514
	2.578988	41.72524
	2.58031	41.72523
	2.581737	41.72507
	2.582455	41.72517
	2.583836	41.72557
	2.585695	41.72636
	2.586193	41.72669
	2.586622	41.7268
	2.5874	41.72718
	2.58807	41.72741
	2.588659	41.7281
	2.589215	41.72842
	2.589942	41.72863
	2.590735	41.72849
	2.591874	41.72805
	2.592331	41.72805
	2.59275	41.72817
	2.593524	41.72864
	2.593941	41.72874
	2.595102	41.72882
	2.596552	41.72864
	2.597845	41.7283
	2.599439	41.72756
	2.600608	41.72733
	2.602219	41.7272
	2.603695	41.72731
	2.605152	41.72762
	2.606633	41.72821
	2.608115	41.72908
	2.609286	41.72954
	2.609835	41.72991
	2.610345	41.73039
	2.61072	41.73055
	2.612075	41.73079
	2.612707	41.73074
	2.61386	41.73045
	2.614537	41.7305
	2.61541	41.73073
	2.617675	41.73148
	2.618666	41.73168
	2.619598	41.73176
	2.620242	41.73168
	2.622222	41.73181
	2.624411	41.73154
	2.626423	41.73111
	2.627393	41.73066
	2.63004	41.7309
	2.63328	41.73277
	2.636862	41.73319
	2.638701	41.73545
	2.638826	41.74234
	2.64286	41.74436
	2.647121	41.74391
	2.656295	41.74275
	2.656551	41.74375
	2.656352	41.74435
	2.656095	41.74607
	2.656618	41.74601
	2.65671	41.74719
	2.657596	41.74769
	2.658676	41.74726
	2.661323	41.74738
	2.661033	41.74773
	2.660703	41.74817
	2.660531	41.74844
	2.660135	41.7492
	2.659997	41.74954
	2.659833	41.75007
	2.659638	41.75051
	2.659854	41.75061
	2.65961	41.75281
	2.662421	41.75312
	2.662716	41.75288
	2.663293	41.75213
	2.663536	41.75159
	2.663766	41.75089
	2.664002	41.75044
	2.664202	41.75017
	2.664648	41.74964
	2.664891	41.74928
	2.664959	41.74915
	2.665189	41.74911
	2.665469	41.74901
	2.666489	41.74819
	2.666544	41.7481
	2.666868	41.7479
	2.667018	41.74777
	2.667186	41.74597
	2.668499	41.74539
	2.66946	41.74538
	2.669998	41.74482
	2.673018	41.74408
	2.674522	41.74336
	2.675645	41.74227
	2.676656	41.74057
	2.677866	41.73965
	2.679825	41.73966
	2.682968	41.74046
	2.686087	41.74123
	2.685468	41.74519
	2.682438	41.74445
	2.680865	41.74417
	2.681813	41.74548
	2.682733	41.7464
	2.682259	41.74778
	2.689491	41.7466
	2.689713	41.74189
	2.693045	41.7418
	2.69422	41.74113
	2.695018	41.74206
	2.700575	41.7428
	2.702861	41.74498
	2.706969	41.74122
	2.72419	41.74424
	2.74475	41.73498
	2.776861	41.73549
	2.777495	41.73279
	2.777347	41.73221
	2.777228	41.73102
	2.776756	41.73058
	2.77558	41.73021
	2.775366	41.72996
	2.775065	41.72982
	2.77352	41.72961
	2.773333	41.72954
	2.77315	41.72937
	2.772943	41.72893
	2.772761	41.72879
	2.772	41.7286
	2.770734	41.72843
	2.770525	41.72825
	2.770441	41.72758
	2.770279	41.72738
	2.769906	41.7271
	2.769657	41.72661
	2.769536	41.7266
	2.768806	41.7269
	2.768616	41.72692
	2.768355	41.72683
	2.768047	41.72661
	2.767637	41.72646
	2.766316	41.7262
	2.766019	41.72597
	2.765838	41.72569
	2.765853	41.72533
	2.76599	41.72498
	2.765677	41.72403
	2.774294	41.70024
	2.769858	41.68736
	2.757869	41.67913
	2.758695	41.67682
	2.759243	41.67502
	2.759451	41.67399
	2.76012	41.67248
	2.760932	41.67136
	2.761017	41.6711
	2.761047	41.66996
	2.76143	41.66927
	2.761862	41.66873
	2.763295	41.66744
	2.764358	41.6667
	2.765168	41.6662
	2.767671	41.66389
	2.770958	41.66039
	2.772292	41.6588
	2.77412	41.65628
	2.77567	41.65389
	2.776881	41.65247
	2.777643	41.6512
	2.777596	41.65036
	3.48349	41.15323
END
END
