Sri Lanka
1
	79.37411	8.978629
	79.37485	8.98419
	79.4504	9.146681
	79.48746	9.423559
	79.39594	9.548786
	79.39594	9.548787
	79.39592	9.549
	79.39849	9.551
	79.40115	9.553
	79.4039	9.555
	79.40675	9.557
	79.40971	9.559
	79.41278	9.561
	79.41599	9.563
	79.41933	9.565
	79.42282	9.567
	79.42649	9.569
	79.43034	9.571
	79.43653	9.574
	79.44098	9.576
	79.44332	9.577
	79.44826	9.579
	79.45087	9.58
	79.45137	9.582
	79.45213	9.586
	79.45298	9.59
	79.45442	9.596
	79.45606	9.602
	79.4579	9.608
	79.45995	9.614
	79.46222	9.62
	79.46472	9.626
	79.46746	9.632
	79.47044	9.638
	79.47202	9.641
	79.47367	9.644
	79.47716	9.65
	79.479	9.653
	79.48091	9.656
	79.48427	9.661
	79.48639	9.664
	79.48859	9.667
	79.49242	9.672
	79.49731	9.678
	79.50162	9.683
	79.50712	9.689
	79.51093	9.693
	79.51496	9.697
	79.51923	9.701
	79.52376	9.705
	79.52858	9.709
	79.53372	9.713
	79.53643	9.715
	79.53923	9.717
	79.54363	9.72
	79.54829	9.723
	79.55325	9.726
	79.55856	9.729
	79.56427	9.732
	79.57034	9.735
	79.57466	9.737
	79.57692	9.738
	79.57747	9.739
	79.57958	9.744
	79.58228	9.75
	79.58914	9.764
	79.59121	9.768
	79.5934	9.772
	79.59571	9.776
	79.59753	9.779
	79.60006	9.783
	79.60273	9.787
	79.60555	9.791
	79.60776	9.794
	79.61005	9.797
	79.61244	9.8
	79.61577	9.804
	79.61812	9.807
	79.62057	9.81
	79.62395	9.814
	79.62843	9.819
	79.63128	9.822
	79.63324	9.824
	79.63628	9.827
	79.63839	9.829
	79.64279	9.833
	79.64746	9.837
	79.65363	9.842
	79.65752	9.845
	79.66162	9.848
	79.66285	9.849
	79.6657	9.852
	79.66766	9.854
	79.67175	9.858
	79.67498	9.861
	79.67721	9.863
	79.68188	9.867
	79.68558	9.87
	79.68947	9.873
	79.69357	9.876
	79.69789	9.879
	79.69885	9.88
	79.70202	9.884
	79.707	9.89
	79.70962	9.893
	79.71235	9.896
	79.71617	9.9
	79.71917	9.903
	79.72338	9.907
	79.72671	9.91
	79.73018	9.913
	79.7326	9.915
	79.73508	9.917
	79.73897	9.92
	79.74299	9.923
	79.7458	9.925
	79.7487	9.927
	79.75172	9.929
	79.75486	9.931
	79.75814	9.933
	79.76333	9.936
	79.767	9.938
	79.77085	9.94
	79.77705	9.943
	79.78151	9.945
	79.78385	9.946
	79.78879	9.948
	79.79414	9.95
	79.797	9.951
	79.80318	9.953
	79.80655	9.954
	79.81015	9.955
	79.81403	9.956
	79.81827	9.957
	79.82297	9.958
	79.83356	9.96
	79.83814	9.963
	79.84135	9.965
	79.84469	9.967
	79.84819	9.969
	79.85539	9.973
	79.85915	9.975
	79.86311	9.977
	79.8673	9.979
	79.87176	9.981
	79.8741	9.982
	79.87904	9.984
	79.88166	9.985
	79.88836	9.988
	79.89313	9.99
	79.89826	9.992
	79.901	9.993
	79.90686	9.995
	79.91225	9.997
	79.91511	9.998
	79.92129	10.0
	79.93513	10.004
	79.93873	10.005
	79.94261	10.006
	79.94684	10.007
	79.95155	10.008
	79.9569	10.009
	79.96986	10.011
	79.97409	10.012
	79.9788	10.013
	79.98415	10.014
	79.99052	10.015
	79.99884	10.016
	80.01516	10.017
	80.03303	10.018
	80.04146	10.018
	80.05933	10.017
	80.06764	10.016
	80.07402	10.015
	80.07756	10.015
	80.08074	10.016
	80.08411	10.017
	80.08771	10.018
	80.09159	10.019
	80.09582	10.02
	80.10053	10.021
	80.11125	10.023
	80.11763	10.024
	80.12594	10.025
	80.14381	10.026
	80.15178	10.027
	80.15538	10.028
	80.15926	10.029
	80.1635	10.03
	80.1682	10.031
	80.17356	10.032
	80.17993	10.033
	80.18825	10.034
	80.20612	10.035
	80.21759	10.035
	80.23546	10.034
	80.24378	10.033
	80.25015	10.032
	80.25551	10.031
	80.26021	10.03
	80.26445	10.029
	80.26833	10.028
	80.27193	10.027
	80.2753	10.026
	80.27847	10.025
	80.2844	10.024
	80.28976	10.023
	80.29446	10.022
	80.2987	10.021
	80.30258	10.02
	80.30618	10.019
	80.30955	10.018
	80.31573	10.016
	80.32132	10.014
	80.32394	10.013
	80.32888	10.011
	80.33349	10.009
	80.33568	10.008
	80.33987	10.006
	80.34574	10.003
	80.35118	10.0
	80.35625	9.997
	80.36102	9.994
	80.367	9.99
	80.36985	9.988
	80.37261	9.986
	80.37657	9.983
	80.38155	9.979
	80.38622	9.975
	80.39062	9.971
	80.39584	9.966
	80.39982	9.962
	80.40173	9.96
	80.40449	9.957
	80.40888	9.952
	80.4114	9.949
	80.41461	9.945
	80.41767	9.941
	80.4206	9.937
	80.42269	9.934
	80.42537	9.93
	80.4279	9.926
	80.43031	9.922
	80.43259	9.918
	80.43527	9.913
	80.43778	9.908
	80.43968	9.904
	80.44148	9.9
	80.44317	9.896
	80.44476	9.892
	80.44625	9.888
	80.4468	9.887
	80.45304	9.877
	80.462	9.866
	80.46519	9.862
	80.46823	9.858
	80.47182	9.853
	80.47453	9.849
	80.47772	9.844
	80.47954	9.841
	80.48721	9.828
	80.48983	9.824
	80.49197	9.821
	80.49279	9.82
	80.50274	9.809
	80.50376	9.808
	80.52305	9.792
	80.54671	9.773
	80.55873	9.764
	80.56264	9.761
	80.61367	9.721
	80.63911	9.7
	80.64267	9.697
	80.66352	9.679
	80.6769	9.668
	80.68867	9.659
	80.69636	9.653
	80.70291	9.649
	80.70605	9.647
	80.70907	9.645
	80.71339	9.642
	80.71748	9.639
	80.72136	9.636
	80.72506	9.633
	80.72973	9.629
	80.73578	9.625
	80.73868	9.623
	80.74285	9.62
	80.7468	9.617
	80.75177	9.613
	80.75644	9.609
	80.76542	9.601458
	80.77072	9.597
	80.78599	9.585
	80.79094	9.581
	80.79744	9.576
	80.80114	9.573
	80.80472	9.57
	80.80815	9.567
	80.81248	9.563
	80.81556	9.56
	80.81852	9.557
	80.82379	9.552
	80.82683	9.549
	80.82975	9.546
	80.83255	9.543
	80.83614	9.539
	80.84128	9.533
	80.84324	9.531
	80.84431	9.53
	80.84898	9.526
	80.85341	9.522
	80.86621	9.51
	80.87453	9.502
	80.87983	9.497
	80.88233	9.495
	80.8882	9.491
	80.89291	9.488
	80.89889	9.484
	80.90312	9.481
	80.90714	9.478
	80.91096	9.475
	80.92204	9.466
	80.92671	9.462
	80.93113	9.458
	80.93534	9.454
	80.93931	9.45
	80.94215	9.447
	80.94862	9.44
	80.95295	9.436
	80.95506	9.434
	80.9581	9.431
	80.96102	9.428
	80.96382	9.425
	80.96738	9.421
	80.97075	9.417
	80.97396	9.413
	80.97625	9.41
	80.97846	9.407
	80.98058	9.404
	80.98262	9.401
	80.98458	9.398
	80.98647	9.395
	80.98828	9.392
	80.99059	9.388
	80.99278	9.384
	80.99485	9.38
	80.99776	9.374
	80.99964	9.37
	81.00141	9.366
	81.00307	9.362
	81.00463	9.358
	81.0061	9.354
	81.01317	9.343
	81.01866	9.334
	81.02103	9.33
	81.02328	9.326
	81.02541	9.322
	81.02791	9.317
	81.02978	9.313
	81.03242	9.307
	81.03484	9.301
	81.03704	9.295
	81.03838	9.291
	81.03963	9.287
	81.04079	9.283
	81.04236	9.277
	81.04329	9.273
	81.04453	9.267
	81.04645	9.259
	81.04699	9.257
	81.05	9.247
	81.05067	9.245
	81.05155	9.243
	81.05341	9.239
	81.05518	9.235
	81.05611	9.233
	81.05663	9.232
	81.05952	9.227
	81.06378	9.22
	81.06659	9.216
	81.06863	9.213
	81.07059	9.21
	81.07309	9.206
	81.07488	9.203
	81.0766	9.2
	81.07825	9.197
	81.08035	9.193
	81.08481	9.186
	81.08662	9.183
	81.08836	9.18
	81.09111	9.175
	81.09368	9.17
	81.09653	9.164
	81.09914	9.158
	81.09965	9.157
	81.10663	9.144
	81.11326	9.132
	81.11729	9.125
	81.1179	9.124
	81.12318	9.116
	81.12709	9.11034
	81.13008	9.106
	81.13339	9.101
	81.13528	9.098
	81.13709	9.095
	81.13883	9.092
	81.14104	9.088
	81.14186	9.087
	81.14275	9.086
	81.14497	9.084
	81.14819	9.081
	81.15128	9.078
	81.15423	9.075
	81.15614	9.073
	81.1589	9.07
	81.16325	9.065
	81.16733	9.06
	81.16966	9.057
	81.17189	9.054
	81.17404	9.051
	81.1761	9.048
	81.17809	9.045
	81.18	9.042
	81.18147	9.041
	81.18488	9.039
	81.18973	9.036
	81.19281	9.034
	81.1972	9.031
	81.19999	9.029
	81.20401	9.026
	81.20782	9.023
	81.21146	9.02
	81.21493	9.017
	81.21824	9.014
	81.22142	9.011
	81.22446	9.008
	81.22737	9.005
	81.23107	9.001
	81.23372	8.998
	81.23709	8.994
	81.23951	8.991
	81.24258	8.987
	81.24621	8.982
	81.24996	8.977
	81.25281	8.973
	81.25551	8.969
	81.25807	8.965
	81.2605	8.961
	81.26281	8.957
	81.26499	8.953
	81.26706	8.949
	81.26901	8.945
	81.27174	8.939
	81.27343	8.935
	81.27502	8.931
	81.2765	8.927
	81.27858	8.921
	81.2794	8.919
	81.28399	8.915
	81.28618	8.913
	81.28936	8.91
	81.2914	8.908
	81.29435	8.905
	81.29625	8.903
	81.29901	8.9
	81.30055	8.899
	81.30611	8.896
	81.31128	8.893
	81.31613	8.89
	81.32069	8.887
	81.325	8.884
	81.32774	8.882
	81.3304	8.88
	81.33544	8.876
	81.34017	8.872
	81.34354	8.869
	81.3478	8.865
	81.35182	8.861
	81.35563	8.857
	81.35923	8.853
	81.36265	8.849
	81.36589	8.845
	81.3697	8.84
	81.37328	8.835
	81.37532	8.832
	81.37728	8.829
	81.37916	8.826
	81.38097	8.823
	81.38271	8.82
	81.38439	8.817
	81.38599	8.814
	81.38753	8.811
	81.38901	8.808
	81.39088	8.804
	81.39349	8.798
	81.39586	8.792
	81.39802	8.786
	81.39996	8.78
	81.4017	8.774
	81.40274	8.77
	81.4037	8.766
	81.40497	8.76
	81.40605	8.754
	81.40693	8.748
	81.40742	8.744
	81.40783	8.74
	81.40835	8.738
	81.41099	8.732
	81.41262	8.728
	81.41492	8.722
	81.41638	8.718
	81.41775	8.714
	81.41902	8.71
	81.42021	8.706
	81.42188	8.7
	81.42248	8.698
	81.42597	8.696
	81.43091	8.693
	81.43556	8.69
	81.43995	8.687
	81.44411	8.684
	81.44805	8.681
	81.4518	8.678
	81.45653	8.674
	81.45989	8.671
	81.46311	8.668
	81.46619	8.665
	81.46914	8.662
	81.47029	8.661
	81.47285	8.659
	81.47657	8.656
	81.48015	8.653
	81.48467	8.649
	81.48682	8.647
	81.48995	8.644
	81.49294	8.641
	81.49879	8.635
	81.50254	8.631
	81.50695	8.626
	81.50946	8.623
	81.51188	8.62
	81.51569	8.615
	81.51931	8.61
	81.5227	8.605
	81.52588	8.6
	81.52886	8.595
	81.53219	8.589
	81.53479	8.584
	81.53721	8.579
	81.53903	8.575
	81.54156	8.569
	81.54386	8.563
	81.54595	8.557
	81.54722	8.553
	81.54895	8.547
	81.55048	8.541
	81.55182	8.535
	81.55222	8.533
	81.55329	8.527
	81.55451	8.519
	81.55634	8.513
	81.55745	8.509
	81.55847	8.505
	81.55987	8.499
	81.56144	8.493
	81.56244	8.489
	81.56337	8.485
	81.56421	8.481
	81.5658	8.475
	81.5672	8.469
	81.56842	8.463
	81.56949	8.457
	81.57116	8.454
	81.57276	8.451
	81.5743	8.448
	81.57625	8.444
	81.57898	8.438
	81.58066	8.434
	81.58225	8.43
	81.58444	8.424
	81.58578	8.42
	81.58703	8.416
	81.58872	8.41
	81.58975	8.406
	81.59068	8.402
	81.59191	8.396
	81.59263	8.392
	81.59327	8.388
	81.59406	8.382
	81.59448	8.378
	81.59483	8.374
	81.59519	8.368
	81.59533	8.364
	81.59539	8.36
	81.59537	8.356
	81.59527	8.352
	81.59489	8.344
	81.59551	8.34
	81.59606	8.336
	81.59706	8.332
	81.59839	8.326
	81.59917	8.322
	81.59988	8.318
	81.60115	8.312
	81.60466	8.294
	81.60553	8.292
	81.60825	8.286
	81.60994	8.282
	81.61228	8.276
	81.6144	8.27
	81.6152	8.268
	81.61721	8.264
	81.62001	8.258
	81.62175	8.254
	81.62416	8.248
	81.62635	8.242
	81.62833	8.236
	81.6301	8.23
	81.63166	8.224
	81.63434	8.22
	81.6369	8.216
	81.63873	8.213
	81.64106	8.209
	81.64273	8.206
	81.64485	8.202
	81.64686	8.198
	81.64876	8.194
	81.65054	8.19
	81.65223	8.186
	81.65381	8.182
	81.6553	8.178
	81.65668	8.174
	81.65798	8.17
	81.65918	8.166
	81.66029	8.162
	81.66104	8.161
	81.6656	8.158
	81.66849	8.156
	81.67128	8.154
	81.67529	8.151
	81.68032	8.147
	81.68389	8.144
	81.6884	8.14
	81.69162	8.137
	81.69569	8.133
	81.69954	8.129
	81.70412	8.124
	81.70757	8.12
	81.71085	8.116
	81.71396	8.112
	81.71762	8.107
	81.72106	8.102
	81.72427	8.097
	81.7267	8.093
	81.729	8.089
	81.73121	8.085
	81.73331	8.081
	81.73528	8.077
	81.73715	8.073
	81.73891	8.069
	81.74057	8.065
	81.74213	8.061
	81.74359	8.057
	81.74495	8.053
	81.74622	8.049
	81.7474	8.045
	81.74849	8.041
	81.74948	8.037
	81.75087	8.031
	81.7535	8.027
	81.75659	8.022
	81.75892	8.018
	81.76167	8.013
	81.76373	8.009
	81.76661	8.003
	81.7684	7.999
	81.77089	7.993
	81.77242	7.989
	81.77454	7.983
	81.77644	7.977
	81.77814	7.971
	81.77964	7.965
	81.78093	7.959
	81.78204	7.953
	81.78296	7.947
	81.78356	7.946
	81.78573	7.943
	81.78849	7.939
	81.79047	7.936
	81.79299	7.932
	81.79379	7.931
	81.79873	7.928
	81.80186	7.926
	81.80486	7.924
	81.80775	7.922
	81.81054	7.92
	81.81456	7.917
	81.81716	7.915
	81.81967	7.913
	81.82952	7.905
	81.83309	7.902
	81.83538	7.9
	81.83868	7.897
	81.84185	7.894
	81.84491	7.891
	81.84786	7.888
	81.8516	7.884
	81.85515	7.88
	81.85851	7.876
	81.8617	7.872
	81.86473	7.868
	81.8676	7.864
	81.87033	7.86
	81.87228	7.857
	81.87416	7.854
	81.88573	7.835
	81.88919	7.829
	81.8919	7.824
	81.90021	7.812
	81.90286	7.808
	81.90476	7.805
	81.91571	7.787
	81.93547	7.755
	81.93841	7.75
	81.94115	7.745
	81.9427	7.742
	81.9569	7.714
	81.95882	7.71
	81.96731	7.692
	81.96999	7.686
	81.97247	7.68
	81.97473	7.674
	81.98544	7.644
	81.98745	7.638
	81.98924	7.632
	81.99034	7.628
	81.99136	7.624
	81.99229	7.62
	81.99805	7.594
	82.00474	7.566
	82.00598	7.56
	82.00669	7.556
	82.00734	7.552
	82.00791	7.548
	82.00967	7.534
	82.01089	7.53
	82.01256	7.524
	82.01402	7.518
	82.01529	7.512
	82.01689	7.509
	82.01843	7.506
	82.02038	7.502
	82.02222	7.498
	82.02478	7.492
	82.02877	7.482
	82.0303	7.478
	82.03245	7.472
	82.03377	7.468
	82.03983	7.448
	82.04896	7.422
	82.05027	7.418
	82.05149	7.414
	82.05262	7.41
	82.05368	7.406
	82.0598	7.382
	82.06077	7.378
	82.06207	7.372
	82.06321	7.366
	82.06416	7.36
	82.06651	7.342
	82.06719	7.336
	82.06884	7.318
	82.06929	7.312
	82.06949	7.308
	82.06961	7.304
	82.06965	7.298
	82.06959	7.294
	82.06889	7.274
	82.06861	7.268
	82.06815	7.262
	82.06652	7.244
	82.06597	7.236
	82.06563	7.228
	82.06538	7.224
	82.06487	7.218
	82.06442	7.214
	82.0643	7.212
	82.06447	7.204
	82.06444	7.198
	82.06425	7.192
	82.06364	7.18
	82.06361	7.172
	82.06343	7.152
	82.06327	7.146
	82.06294	7.14
	82.06242	7.134
	82.06172	7.128
	82.06115	7.124
	82.06301	7.116
	82.06386	7.112
	82.06462	7.108
	82.0656	7.102
	82.06757	7.096
	82.07044	7.088
	82.07176	7.084
	82.07298	7.08
	82.07411	7.076
	82.07515	7.072
	82.0761	7.068
	82.07736	7.062
	82.0781	7.058
	82.07905	7.052
	82.07957	7.048
	82.08021	7.042
	82.08053	7.038
	82.08087	7.032
	82.08099	7.028
	82.08101	7.022
	82.08086	7.016
	82.08066	7.012
	82.08038	7.008
	82.08001	7.004
	82.07956	7.0
	82.07903	6.996
	82.07842	6.992
	82.07773	6.988
	82.07695	6.984
	82.07608	6.98
	82.07462	6.974
	82.07353	6.97
	82.07235	6.966
	82.06981	6.958
	82.06934	6.956
	82.06892	6.954
	82.06825	6.948
	82.0677	6.944
	82.06707	6.94
	82.06635	6.936
	82.06555	6.932
	82.06421	6.926
	82.06337	6.922
	82.06194	6.916
	82.06031	6.91
	82.05911	6.906
	82.05782	6.902
	82.05643	6.898
	82.05495	6.894
	82.05337	6.89
	82.05169	6.886
	82.0499	6.882
	82.04927	6.88
	82.0486	6.874
	82.04775	6.868
	82.04736	6.86
	82.04707	6.856
	82.04671	6.852
	82.04601	6.846
	82.04512	6.84
	82.04442	6.836
	82.04364	6.832
	82.04231	6.826
	82.04131	6.822
	82.04095	6.82
	82.04031	6.814
	82.03948	6.808
	82.03847	6.802
	82.03769	6.798
	82.03684	6.794
	82.03591	6.79
	82.03489	6.786
	82.0332	6.78
	82.0313	6.774
	82.02918	6.768
	82.02855	6.766
	82.02853	6.762
	82.02843	6.758
	82.02812	6.752
	82.02782	6.748
	82.02743	6.744
	82.0267	6.738
	82.02611	6.734
	82.02544	6.73
	82.02427	6.724
	82.02338	6.72
	82.0224	6.716
	82.02078	6.71
	82.01958	6.706
	82.01829	6.702
	82.01617	6.696
	82.01384	6.69
	82.01128	6.684
	82.00944	6.68
	82.0075	6.676
	82.00544	6.672
	82.00382	6.669
	82.00213	6.666
	82.00038	6.663
	81.99792	6.659
	81.99534	6.655
	81.99485	6.654
	81.99288	6.648
	81.99144	6.644
	81.98911	6.638
	81.98743	6.634
	81.98565	6.63
	81.98375	6.626
	81.97874	6.616
	81.97718	6.613
	81.97665	6.611
	81.97544	6.605
	81.97454	6.601
	81.97301	6.595
	81.97188	6.591
	81.97001	6.585
	81.96793	6.579
	81.96643	6.575
	81.96397	6.567
	81.96263	6.563
	81.96055	6.557
	81.95919	6.551
	81.95817	6.547
	81.95648	6.541
	81.95523	6.537
	81.9539	6.533
	81.95246	6.529
	81.95013	6.523
	81.94845	6.519
	81.94667	6.515
	81.94379	6.509
	81.94226	6.506
	81.94066	6.503
	81.93845	6.499
	81.93672	6.496
	81.93491	6.493
	81.93304	6.49
	81.93109	6.487
	81.92906	6.484
	81.92695	6.481
	81.92476	6.478
	81.92091	6.473
	81.9168	6.468
	81.91074	6.461
	81.91021	6.46
	81.90845	6.456
	81.90565	6.45
	81.90364	6.446
	81.90153	6.442
	81.89872	6.437
	81.89571	6.432
	81.89251	6.427
	81.88908	6.422
	81.88776	6.419
	81.88589	6.415
	81.88393	6.411
	81.88188	6.407
	81.8797	6.403
	81.87799	6.4
	81.87621	6.397
	81.87436	6.394
	81.87178	6.39
	81.86975	6.387
	81.86764	6.384
	81.86545	6.381
	81.8616	6.376
	81.85749	6.371
	81.85347	6.366
	81.8475	6.359
	81.84396	6.355
	81.83927	6.35
	81.83532	6.346
	81.83221	6.343
	81.83007	6.341
	81.82672	6.338
	81.8244	6.336
	81.82079	6.333
	81.81828	6.331
	81.81435	6.328
	81.81162	6.326
	81.81111	6.32552
	81.81055	6.325
	81.80715	6.321
	81.80357	6.317
	81.79885	6.312
	81.79485	6.308
	81.79061	6.304
	81.78397	6.298
	81.78052	6.295
	81.77449	6.29
	81.77033	6.285
	81.76588	6.28
	81.76306	6.277
	81.76111	6.275
	81.75705	6.271
	81.75275	6.267
	81.74819	6.263
	81.74333	6.259
	81.74078	6.257
	81.73683	6.254
	81.73566	6.253
	81.73234	6.25
	81.73006	6.248
	81.72528	6.244
	81.72018	6.24
	81.71612	6.237
	81.71184	6.234
	81.70735	6.231
	81.7042	6.228
	81.7009	6.225
	81.69745	6.222
	81.69384	6.219
	81.69004	6.216
	81.68741	6.214
	81.68327	6.211
	81.68039	6.209
	81.6774	6.207
	81.67428	6.205
	81.66984	6.202
	81.66679	6.2
	81.66197	6.197
	81.65682	6.194
	81.6513	6.191
	81.64737	6.189
	81.64322	6.187
	81.64104	6.186
	81.63648	6.184
	81.63522	6.183
	81.63171	6.179
	81.62896	6.176
	81.62513	6.172
	81.62211	6.169
	81.61895	6.166
	81.61566	6.163
	81.61221	6.16
	81.60859	6.157
	81.60609	6.155
	81.60218	6.152
	81.5995	6.15
	81.59672	6.148
	81.59384	6.146
	81.59085	6.144
	81.58613	6.141
	81.5811	6.138
	81.57571	6.135
	81.56989	6.132
	81.56574	6.13
	81.56357	6.129
	81.55964	6.125
	81.55657	6.122
	81.55227	6.118
	81.54662	6.113
	81.54368	6.11
	81.54062	6.107
	81.53742	6.104
	81.5352	6.102
	81.53057	6.098
	81.5269	6.095
	81.52171	6.091
	81.51758	6.088
	81.51322	6.085
	81.51017	6.083
	81.50535	6.08
	81.50196	6.078
	81.49841	6.076
	81.49468	6.074
	81.48274	6.068
	81.47789	6.065
	81.4745	6.063
	81.47095	6.061
	81.46722	6.059
	81.46407	6.056
	81.46082	6.053
	81.45743	6.05
	81.45387	6.047
	81.45014	6.044
	81.44755	6.042
	81.44349	6.039
	81.43928	6.036
	81.43483	6.033
	81.43172	6.031
	81.42847	6.029
	81.42508	6.027
	81.42153	6.025
	81.41781	6.023
	81.41388	6.021
	81.40973	6.019
	81.40531	6.017
	81.40299	6.016
	81.3981	6.014
	81.3955	6.013
	81.38996	6.011
	81.38384	6.009
	81.3805	6.008
	81.37693	6.007
	81.37309	6.006
	81.36889	6.005
	81.36423	6.004
	81.35892	6.003
	81.35261	6.002
	81.34801	6.001
	81.34293	5.999
	81.34022	5.998
	81.3344	5.996
	81.33126	5.995
	81.32919	5.994
	81.32393	5.991
	81.3202	5.989
	81.31423	5.986
	81.30995	5.984
	81.30539	5.982
	81.30049	5.98
	81.2979	5.979
	81.29235	5.977
	81.28937	5.976
	81.28623	5.975
	81.28289	5.974
	81.27933	5.973
	81.27548	5.972
	81.27128	5.971
	81.26663	5.97
	81.2628	5.969
	81.25683	5.966
	81.25547	5.965
	81.25162	5.962
	81.24894	5.96
	81.24473	5.957
	81.2418	5.955
	81.23717	5.952
	81.23393	5.95
	81.22878	5.947
	81.22515	5.945
	81.22133	5.943
	81.21729	5.941
	81.21301	5.939
	81.20845	5.937
	81.20356	5.935
	81.20096	5.934
	81.19542	5.932
	81.19244	5.931
	81.1893	5.93
	81.18596	5.929
	81.18239	5.928
	81.17855	5.927
	81.17435	5.926
	81.16969	5.925
	81.16439	5.924
	81.15808	5.923
	81.14194	5.921
	81.13728	5.92
	81.1267	5.918
	81.12314	5.917
	81.11929	5.916
	81.1151	5.915
	81.11044	5.914
	81.10513	5.913
	81.09882	5.912
	81.09058	5.911
	81.07738	5.91
	81.06914	5.909
	81.06339	5.908
	81.05883	5.906
	81.05643	5.905
	81.05134	5.903
	81.0458	5.901
	81.03968	5.899
	81.03634	5.898
	81.03277	5.897
	81.02893	5.896
	81.02473	5.895
	81.02007	5.894
	81.01477	5.893
	81.01099	5.892
	81.00569	5.89
	81.00285	5.889
	80.99673	5.887
	80.99421	5.886
	80.98994	5.884
	80.98769	5.883
	80.98297	5.881
	80.97789	5.879
	80.97234	5.877
	80.97008	5.876
	80.96516	5.873
	80.96169	5.871
	80.95806	5.869
	80.95424	5.867
	80.9502	5.865
	80.94593	5.863
	80.94137	5.861
	80.93896	5.86
	80.93388	5.858
	80.93117	5.857
	80.92536	5.855
	80.92221	5.854
	80.91888	5.853
	80.91531	5.852
	80.91147	5.851
	80.90727	5.85
	80.90428	5.849
	80.90169	5.847
	80.899	5.845
	80.8948	5.842
	80.89187	5.84
	80.88881	5.838
	80.884	5.835
	80.88011	5.831
	80.87599	5.827
	80.87163	5.823
	80.867	5.819
	80.86333	5.816
	80.86079	5.814
	80.85815	5.812
	80.8527	5.808
	80.84909	5.805
	80.8453	5.802
	80.84131	5.799
	80.83853	5.797
	80.83417	5.794
	80.82955	5.791
	80.82463	5.788
	80.81937	5.785
	80.81371	5.782
	80.80968	5.78
	80.8054	5.778
	80.80084	5.776
	80.79594	5.774
	80.79064	5.772
	80.78483	5.77
	80.78169	5.769
	80.77835	5.768
	80.77479	5.767
	80.77094	5.766
	80.76675	5.765
	80.76209	5.764
	80.75679	5.763
	80.75048	5.762
	80.74224	5.761
	80.72454	5.76
	80.71959	5.759
	80.71612	5.757
	80.71249	5.755
	80.70668	5.752
	80.70253	5.75
	80.70035	5.749
	80.69116	5.745
	80.68743	5.743
	80.68351	5.741
	80.67936	5.739
	80.67495	5.737
	80.67023	5.735
	80.66257	5.732
	80.65986	5.731
	80.65405	5.729
	80.65091	5.728
	80.64757	5.727
	80.64401	5.726
	80.64016	5.725
	80.63597	5.724
	80.63131	5.723
	80.62601	5.722
	80.6197	5.721
	80.61146	5.72
	80.59377	5.719
	80.58844	5.719
	80.57074	5.72
	80.56251	5.721
	80.55569	5.722
	80.54938	5.723
	80.54407	5.724
	80.53942	5.725
	80.53522	5.726
	80.53138	5.727
	80.52781	5.728
	80.52448	5.729
	80.52134	5.73
	80.51553	5.732
	80.51022	5.734
	80.50533	5.736
	80.49806	5.737
	80.47165	5.737
	80.45395	5.738
	80.44572	5.739
	80.43941	5.74
	80.43411	5.741
	80.42502	5.743
	80.41871	5.744
	80.4134	5.745
	80.40874	5.746
	80.40455	5.747
	80.4007	5.748
	80.39714	5.749
	80.3938	5.75
	80.38768	5.752
	80.38214	5.754
	80.37955	5.755
	80.37465	5.757
	80.3701	5.759
	80.36792	5.76
	80.36377	5.762
	80.35703	5.764
	80.35106	5.765
	80.34475	5.766
	80.33945	5.767
	80.33479	5.768
	80.33059	5.769
	80.32675	5.77
	80.3196	5.772
	80.31626	5.773
	80.31014	5.775
	80.3046	5.777
	80.30201	5.778
	80.29711	5.78
	80.29479	5.781
	80.29038	5.783
	80.28623	5.785
	80.28223	5.787
	80.27484	5.79
	80.27028	5.792
	80.266	5.794
	80.2608	5.795
	80.25449	5.796
	80.24919	5.797
	80.24453	5.798
	80.23202	5.801
	80.22672	5.802
	80.22206	5.803
	80.21786	5.804
	80.21402	5.805
	80.21045	5.806
	80.20712	5.807
	80.201	5.809
	80.19816	5.81
	80.19286	5.812
	80.18568	5.814
	80.18235	5.815
	80.17623	5.817
	80.17068	5.819
	80.16809	5.82
	80.16319	5.822
	80.15863	5.824
	80.15646	5.825
	80.15231	5.827
	80.1465	5.83
	80.14111	5.833
	80.13609	5.836
	80.13137	5.839
	80.12692	5.842
	80.12133	5.846
	80.11734	5.849
	80.11232	5.853
	80.11097	5.854
	80.10779	5.856
	80.10474	5.858
	80.10181	5.86
	80.0976	5.863
	80.09492	5.865
	80.09107	5.868
	80.0886	5.87
	80.08504	5.873
	80.08186	5.875
	80.07733	5.878
	80.07444	5.88
	80.07031	5.883
	80.06768	5.885
	80.06389	5.888
	80.05911	5.892
	80.05419	5.896
	80.05069	5.899
	80.0452	5.904
	80.04005	5.909
	80.03422	5.915
	80.02888	5.919
	80.02116	5.925
	80.01631	5.929
	80.01175	5.933
	80.0085	5.936
	80.00439	5.94
	80.00145	5.943
	79.99771	5.947
	79.99416	5.95
	79.99077	5.953
	79.98752	5.956
	79.98341	5.96
	79.98143	5.962
	79.97858	5.965
	79.97584	5.968
	79.9732	5.971
	79.97067	5.974
	79.96824	5.977
	79.9659	5.98
	79.96366	5.983
	79.95872	5.988
	79.95499	5.992
	79.9479	6.0
	79.94373	6.005
	79.94137	6.008
	79.93909	6.011
	79.9369	6.014
	79.93479	6.017
	79.93276	6.02
	79.93082	6.023
	79.92894	6.026
	79.92656	6.03
	79.92485	6.033
	79.92321	6.036
	79.92163	6.039
	79.91963	6.043
	79.9168	6.049
	79.91504	6.053
	79.91338	6.057
	79.91266	6.058
	79.90918	6.062
	79.90587	6.066
	79.90346	6.069
	79.90041	6.073
	79.89822	6.076
	79.89543	6.08
	79.89278	6.084
	79.89026	6.088
	79.88846	6.091
	79.88673	6.094
	79.88507	6.097
	79.88295	6.101
	79.88144	6.104
	79.87952	6.108
	79.87685	6.114
	79.8752	6.118
	79.8729	6.124
	79.8715	6.128
	79.86956	6.134
	79.86784	6.14
	79.86625	6.146
	79.86528	6.15
	79.86439	6.154
	79.86391	6.156
	79.86215	6.159
	79.86047	6.162
	79.85885	6.165
	79.85679	6.169
	79.85391	6.175
	79.85213	6.179
	79.85044	6.183
	79.84808	6.189
	79.84662	6.193
	79.84526	6.197
	79.8434	6.203
	79.83988	6.215
	79.83828	6.221
	79.83733	6.225
	79.83647	6.229
	79.83533	6.235
	79.83468	6.239
	79.83411	6.243
	79.83362	6.247
	79.83321	6.251
	79.83287	6.255
	79.83261	6.259
	79.83237	6.265
	79.8323	6.269
	79.83232	6.273
	79.83209	6.275
	79.83147	6.277
	79.82998	6.28
	79.82809	6.284
	79.82546	6.29
	79.82305	6.296
	79.82087	6.302
	79.8189	6.308
	79.81532	6.32
	79.81366	6.326
	79.81219	6.332
	79.80948	6.338
	79.8078	6.342
	79.80622	6.346
	79.80404	6.352
	79.80324	6.354
	79.80162	6.357
	79.80006	6.36
	79.79666	6.367
	79.79485	6.371
	79.7931	6.375
	79.7906	6.381
	79.78804	6.387
	79.78647	6.391
	79.78428	6.397
	79.78231	6.403
	79.78055	6.409
	79.77949	6.413
	79.77851	6.417
	79.77763	6.421
	79.77646	6.427
	79.77578	6.431
	79.77519	6.435
	79.77468	6.439
	79.77407	6.445
	79.77377	6.449
	79.77347	6.455
	79.77337	6.459
	79.77335	6.465
	79.77323	6.471
	79.77329	6.477
	79.77343	6.481
	79.77365	6.485
	79.77395	6.489
	79.77341	6.491
	79.77154	6.497
	79.7693	6.505
	79.76801	6.509
	79.76681	6.513
	79.76514	6.519
	79.76305	6.527
	79.76249	6.529
	79.76001	6.537
	79.75926	6.539
	79.75439	6.551
	79.7528	6.555
	79.7513	6.559
	79.74912	6.565
	79.74637	6.571
	79.74022	6.585
	79.73663	6.593
	79.73003	6.605
	79.72584	6.613
	79.72383	6.617
	79.71913	6.627
	79.71643	6.633
	79.71381	6.639
	79.71141	6.645
	79.70922	6.651
	79.70725	6.657
	79.70605	6.661
	79.70442	6.667
	79.70381	6.669
	79.697	6.687
	79.69406	6.695
	79.68916	6.707
	79.6876	6.711
	79.68615	6.715
	79.68479	6.719
	79.68352	6.723
	79.68234	6.727
	79.68126	6.731
	79.67974	6.737
	79.67909	6.739
	79.67759	6.743
	79.67618	6.747
	79.67486	6.751
	79.67364	6.755
	79.67197	6.761
	79.66738	6.779
	79.66594	6.785
	79.66468	6.791
	79.66285	6.801
	79.6619	6.807
	79.66114	6.813
	79.66056	6.819
	79.66017	6.825
	79.65995	6.831
	79.65969	6.833
	79.65881	6.837
	79.658	6.841
	79.65753	6.843
	79.6534	6.859
	79.65056	6.867
	79.64925	6.871
	79.64802	6.875
	79.64636	6.881
	79.64432	6.889
	79.64339	6.893
	79.64255	6.897
	79.64179	6.901
	79.64111	6.905
	79.64052	6.909
	79.64001	6.913
	79.63959	6.917
	79.63924	6.921
	79.63888	6.927
	79.6387	6.933
	79.63869	6.939
	79.63887	6.945
	79.6391	6.949
	79.63958	6.955
	79.64	6.959
	79.64079	6.965
	79.64143	6.969
	79.64214	6.973
	79.64294	6.977
	79.6443	6.983
	79.64532	6.987
	79.64682	6.995
	79.64766	6.999
	79.64859	7.003
	79.65015	7.009
	79.65191	7.015
	79.65388	7.021
	79.65531	7.025
	79.655	7.027
	79.65372	7.033
	79.65133	7.045
	79.65088	7.047
	79.64877	7.055
	79.64636	7.063
	79.64148	7.077
	79.64016	7.081
	79.63894	7.085
	79.63778	7.089
	79.63332	7.105
	79.62725	7.127
	79.62617	7.131
	79.62517	7.135
	79.62426	7.139
	79.62344	7.143
	79.61968	7.163
	79.61896	7.167
	79.61833	7.171
	79.61753	7.177
	79.6171	7.181
	79.61662	7.187
	79.61631	7.193
	79.61616	7.199
	79.61617	7.207
	79.61627	7.211
	79.61645	7.215
	79.61687	7.221
	79.61748	7.227
	79.61827	7.233
	79.61925	7.239
	79.62039	7.245
	79.62172	7.251
	79.62192	7.251792
	79.62325	7.257
	79.62498	7.263
	79.62691	7.269
	79.62831	7.273
	79.62979	7.277
	79.6322	7.283
	79.6348	7.289
	79.63399	7.293
	79.63328	7.297
	79.63	7.317
	79.62497	7.341
	79.62385	7.347
	79.62179	7.359
	79.61251	7.397
	79.60908	7.409
	79.60755	7.415
	79.60663	7.419
	79.60579	7.423
	79.60348	7.435
	79.60305	7.437
	79.60069	7.447
	79.59942	7.453
	79.59834	7.459
	79.59746	7.465
	79.59675	7.471
	79.59622	7.477
	79.59183	7.499
	79.59109	7.503
	79.59043	7.507
	79.58986	7.511
	79.58937	7.515
	79.58896	7.519
	79.58861	7.523
	79.58735	7.541
	79.58705	7.547
	79.58511	7.603
	79.58506	7.607
	79.5851	7.611
	79.58531	7.617
	79.58556	7.621
	79.58588	7.625
	79.58652	7.631
	79.58704	7.635
	79.58766	7.639
	79.58873	7.645
	79.58955	7.649
	79.59046	7.653
	79.59199	7.659
	79.59312	7.663
	79.59434	7.667
	79.59635	7.673
	79.59707	7.675
	79.59691	7.677
	79.59564	7.685
	79.59103	7.709
	79.58654	7.735
	79.58613	7.737
	79.58287	7.751
	79.58165	7.755
	79.58049	7.759
	79.57199	7.789
	79.57039	7.795
	79.56002	7.839
	79.55286	7.869
	79.55014	7.881
	79.54957	7.883
	79.54793	7.887
	79.54567	7.893
	79.54428	7.897
	79.54298	7.901
	79.54178	7.905
	79.53138	7.941
	79.52801	7.953
	79.52347	7.967
	79.51474	7.993
	79.51281	7.999
	79.51163	8.003
	79.51003	8.009
	79.50863	8.015
	79.50742	8.021
	79.50672	8.025
	79.50583	8.031
	79.50513	8.037
	79.50461	8.043
	79.50428	8.049
	79.50399	8.059
	79.50396	8.065
	79.50411	8.071
	79.50392	8.073
	79.50316	8.077
	79.50249	8.081
	79.50135	8.089
	79.50067	8.095
	79.50032	8.099
	79.50003	8.103
	79.49983	8.107
	79.49971	8.111
	79.49967	8.115
	79.49971	8.119
	79.49992	8.125
	79.50031	8.131
	79.50068	8.135
	79.50068	8.137
	79.49931	8.143
	79.49727	8.153
	79.49655	8.157
	79.49528	8.165
	79.49414	8.171
	79.49347	8.175
	79.49261	8.181
	79.49192	8.187
	79.49156	8.191
	79.49113	8.197
	79.4909	8.201
	79.49072	8.207
	79.49072	8.213
	79.49082	8.217
	79.49112	8.223
	79.49142	8.227
	79.49203	8.233
	79.49254	8.237
	79.49313	8.241
	79.49381	8.245
	79.49457	8.249
	79.49541	8.253
	79.49634	8.257
	79.49736	8.261
	79.49847	8.265
	79.49967	8.269
	79.50097	8.273
	79.50236	8.277
	79.50384	8.281
	79.50542	8.285
	79.50711	8.289
	79.5089	8.293
	79.5108	8.297
	79.5128	8.301
	79.51493	8.305
	79.51717	8.309
	79.51953	8.313
	79.52202	8.317
	79.52465	8.321
	79.52742	8.325
	79.53033	8.329
	79.5334	8.333
	79.53581	8.336
	79.53914	8.34
	79.54264	8.344
	79.5454	8.347
	79.54827	8.35
	79.55126	8.353
	79.55545	8.357
	79.5599	8.361
	79.56073	8.362
	79.56348	8.368
	79.56543	8.372
	79.56746	8.376
	79.56923	8.382
	79.57052	8.386
	79.57191	8.39
	79.57339	8.394
	79.57444	8.4
	79.5752	8.404
	79.57605	8.408
	79.57698	8.412
	79.57854	8.418
	79.5797	8.422
	79.58095	8.426
	79.58355	8.434
	79.58364	8.436
	79.58115	8.446
	79.58023	8.45
	79.57941	8.454
	79.57833	8.46
	79.57744	8.466
	79.5767	8.472
	79.57615	8.478
	79.57579	8.484
	79.5756	8.49
	79.5756	8.496
	79.57578	8.502
	79.576	8.506
	79.5766	8.514
	79.57699	8.518
	79.57771	8.524
	79.57908	8.534
	79.5801	8.54
	79.58088	8.544
	79.58174	8.548
	79.5827	8.552
	79.58428	8.558
	79.58543	8.562
	79.58734	8.568
	79.58873	8.572
	79.59021	8.576
	79.5918	8.58
	79.59348	8.584
	79.59527	8.588
	79.59717	8.592
	79.59867	8.595
	79.60023	8.598
	79.60185	8.601
	79.60421	8.606
	79.60622	8.61
	79.60889	8.615
	79.61116	8.619
	79.61418	8.624
	79.61674	8.628
	79.62014	8.633
	79.62301	8.637
	79.62605	8.641
	79.62924	8.645
	79.63261	8.649
	79.63617	8.653
	79.63992	8.657
	79.64388	8.661
	79.64808	8.665
	79.65139	8.668
	79.65605	8.672
	79.65974	8.675
	79.66361	8.678
	79.66769	8.681
	79.672	8.684
	79.67656	8.687
	79.67928	8.688686
	79.6814	8.69
	79.68658	8.693
	79.69213	8.696
	79.69608	8.698
	79.70025	8.7
	79.70244	8.701
	79.70702	8.703
	79.71195	8.705
	79.71728	8.707
	79.72313	8.709
	79.72629	8.71
	79.72965	8.711
	79.73323	8.712
	79.73709	8.713
	79.73508	8.717
	79.73317	8.721
	79.73138	8.725
	79.72969	8.729
	79.7281	8.733
	79.72661	8.737
	79.72522	8.741
	79.72393	8.745
	79.72272	8.749
	79.72161	8.753
	79.72005	8.759
	79.71896	8.763
	79.71796	8.767
	79.71704	8.771
	79.71581	8.777
	79.71507	8.781
	79.71442	8.785
	79.71384	8.789
	79.71313	8.795
	79.71274	8.799
	79.71244	8.803
	79.71221	8.807
	79.71207	8.811
	79.71201	8.815
	79.71203	8.819
	79.71213	8.823
	79.71231	8.827
	79.71273	8.833
	79.71312	8.837
	79.71385	8.843
	79.71447	8.849
	79.71526	8.855
	79.71455	8.856
	79.70911	8.861
	79.7042	8.865
	79.69725	8.87
	79.6926	8.873
	79.69005	8.873
	79.68582	8.872
	79.68113	8.871
	79.67579	8.87
	79.66944	8.869
	79.66114	8.868
	79.64332	8.867
	79.63687	8.867
	79.61905	8.868
	79.61076	8.869
	79.6044	8.87
	79.59049	8.871
	79.5822	8.872
	79.57584	8.873
	79.5705	8.874
	79.56581	8.875
	79.56158	8.876
	79.55771	8.877
	79.55412	8.878
	79.55076	8.879
	79.5446	8.881
	79.54174	8.882
	79.53641	8.884
	79.53148	8.886
	79.52914	8.887
	79.5247	8.889
	79.52212	8.89
	79.51789	8.891
	79.51402	8.892
	79.51043	8.893
	79.50707	8.894
	79.50091	8.896
	79.49533	8.898
	79.49271	8.899
	79.48778	8.901
	79.48545	8.902
	79.48101	8.904
	79.47482	8.907
	79.47097	8.909
	79.46729	8.911
	79.46171	8.913
	79.45909	8.914
	79.45416	8.916
	79.44957	8.918
	79.44738	8.919
	79.4432	8.921
	79.43735	8.924
	79.43369	8.926
	79.4302	8.928
	79.42686	8.93
	79.42366	8.932
	79.42059	8.934
	79.4162	8.937
	79.41204	8.94
	79.40809	8.943
	79.40433	8.946
	79.40075	8.949
	79.39733	8.952
	79.38957	8.959
	79.3864	8.962
	79.38336	8.965
	79.38044	8.968
	79.37938	8.972389
	79.37727	8.974873
	79.37411	8.978629
END
END
