Suriname
1
	-57.01495	6.225
	-57.01203	6.22
	-57.00926	6.215
	-57.00667	6.21
	-57.00374	6.204
	-57.00169	6.201
	-56.99907	6.197
	-56.99592	6.197
	-56.98961	6.198
	-56.98137	6.199
	-56.96678	6.2
	-56.94907	6.201
	-56.94218	6.201
	-56.92447	6.2
	-56.91623	6.199
	-56.90992	6.198
	-56.90461	6.197
	-56.89995	6.196
	-56.89576	6.195
	-56.89191	6.194
	-56.88834	6.193
	-56.87595	6.19
	-56.87115	6.189
	-56.86484	6.188
	-56.85953	6.187
	-56.85487	6.186
	-56.85068	6.185
	-56.84683	6.184
	-56.83993	6.182
	-56.83678	6.181
	-56.83097	6.179
	-56.82826	6.178
	-56.82317	6.176
	-56.81845	6.174
	-56.81404	6.172
	-56.80913	6.172
	-56.80089	6.173
	-56.78319	6.174
	-56.77691	6.174
	-56.75921	6.173
	-56.7495	6.173
	-56.7426	6.175
	-56.73875	6.176
	-56.73455	6.177
	-56.7299	6.178
	-56.72459	6.179
	-56.71828	6.18
	-56.71004	6.181
	-56.69233	6.182
	-56.68292	6.182
	-56.66521	6.181
	-56.65698	6.18
	-56.65066	6.179
	-56.6418	6.178
	-56.63357	6.177
	-56.62725	6.176
	-56.62195	6.175
	-56.61729	6.174
	-56.61309	6.173
	-56.60517	6.171
	-56.59827	6.169
	-56.59513	6.168
	-56.58931	6.166
	-56.58175	6.164
	-56.57137	6.161
	-56.55898	6.157
	-56.55317	6.155
	-56.55046	6.154
	-56.54537	6.152
	-56.53841	6.149
	-56.53209	6.146
	-56.52816	6.144
	-56.52444	6.142
	-56.52089	6.14
	-56.5175	6.138
	-56.51114	6.134
	-56.50527	6.13
	-56.50249	6.128
	-56.4985	6.125
	-56.49596	6.123
	-56.49229	6.12
	-56.48879	6.117
	-56.48544	6.114
	-56.47208	6.114
	-56.45438	6.113
	-56.44614	6.112
	-56.43393	6.111
	-56.42569	6.11
	-56.41552	6.109
	-56.39782	6.108
	-56.38958	6.107
	-56.38327	6.106
	-56.36732	6.104
	-56.36101	6.103
	-56.35571	6.102
	-56.35105	6.101
	-56.34685	6.1
	-56.33571	6.097
	-56.33151	6.096
	-56.32767	6.095
	-56.3241	6.094
	-56.31907	6.093
	-56.31083	6.092
	-56.30452	6.091
	-56.29921	6.09
	-56.29111	6.089
	-56.2848	6.088
	-56.2795	6.087
	-56.27484	6.086
	-56.27064	6.085
	-56.2668	6.084
	-56.2599	6.082
	-56.25675	6.081
	-56.25094	6.079
	-56.24823	6.078
	-56.24314	6.076
	-56.23851	6.075
	-56.23431	6.074
	-56.23047	6.073
	-56.22346	6.072
	-56.21523	6.071
	-56.20892	6.07
	-56.20361	6.069
	-56.19895	6.068
	-56.1931	6.067
	-56.18679	6.066
	-56.18149	6.065
	-56.17683	6.064
	-56.17263	6.063
	-56.16879	6.062
	-56.16189	6.06
	-56.15462	6.059
	-56.1483	6.058
	-56.14249	6.057
	-56.13718	6.056
	-56.13253	6.055
	-56.12833	6.054
	-56.12448	6.053
	-56.11758	6.051
	-56.11293	6.05
	-56.10873	6.049
	-56.10489	6.048
	-56.10132	6.047
	-56.09799	6.046
	-56.09187	6.044
	-56.08633	6.042
	-56.07755	6.039
	-56.07484	6.038
	-56.06975	6.036
	-56.06686	6.035
	-56.06329	6.034
	-56.05909	6.033
	-56.05845	6.033
	-56.05589	6.036
	-56.05322	6.039
	-56.05044	6.042
	-56.04755	6.045
	-56.04453	6.048
	-56.04138	6.051
	-56.0358	6.056
	-56.03109	6.061
	-56.02606	6.066
	-56.02286	6.069
	-56.01952	6.072
	-56.01602	6.075
	-56.01235	6.078
	-56.00717	6.082
	-56.00304	6.085
	-55.99717	6.089
	-55.99245	6.092
	-55.98742	6.095
	-55.98203	6.098
	-55.97447	6.102
	-55.96833	6.105
	-55.9616	6.108
	-55.9567	6.11
	-55.9514	6.112
	-55.94264	6.115
	-55.93759	6.117
	-55.93229	6.119
	-55.92648	6.121
	-55.92024	6.123
	-55.91334	6.125
	-55.91114	6.126
	-55.90516	6.129
	-55.90089	6.131
	-55.89633	6.133
	-55.89143	6.135
	-55.88613	6.137
	-55.88329	6.138
	-55.88031	6.139
	-55.87388	6.141
	-55.86691	6.144
	-55.86183	6.146
	-55.85628	6.148
	-55.85016	6.15
	-55.84326	6.152
	-55.83941	6.153
	-55.83522	6.154
	-55.83056	6.155
	-55.82525	6.156
	-55.81894	6.157
	-55.8107	6.158
	-55.80452	6.16
	-55.80119	6.161
	-55.79762	6.162
	-55.79377	6.163
	-55.78958	6.164
	-55.78492	6.165
	-55.77961	6.166
	-55.7733	6.167
	-55.76506	6.168
	-55.74942	6.169
	-55.74119	6.17
	-55.72348	6.171
	-55.70678	6.173
	-55.68907	6.174
	-55.6785	6.174
	-55.66079	6.173
	-55.62325	6.173
	-55.60554	6.172
	-55.60183	6.172
	-55.59492	6.174
	-55.59108	6.175
	-55.58688	6.176
	-55.58222	6.177
	-55.57691	6.178
	-55.5706	6.179
	-55.56236	6.18
	-55.54466	6.181
	-55.53615	6.181
	-55.51844	6.18
	-55.5102	6.179
	-55.49753	6.177
	-55.49223	6.176
	-55.48757	6.175
	-55.48337	6.174
	-55.48016	6.174
	-55.47192	6.175
	-55.45421	6.176
	-55.44693	6.176
	-55.42015	6.175
	-55.40245	6.174
	-55.39421	6.173
	-55.3879	6.172
	-55.38259	6.171
	-55.36129	6.171
	-55.34358	6.17
	-55.33534	6.169
	-55.32903	6.168
	-55.32373	6.167
	-55.31907	6.166
	-55.31487	6.165
	-55.31102	6.164
	-55.30412	6.162
	-55.298	6.16
	-55.29246	6.158
	-55.28737	6.156
	-55.28265	6.154
	-55.27378	6.151
	-55.26766	6.149
	-55.26212	6.147
	-55.25952	6.146
	-55.25463	6.144
	-55.2479	6.141
	-55.24677	6.141
	-55.23753	6.146
	-55.22767	6.151
	-55.21746	6.156
	-55.21094	6.159
	-55.20391	6.162
	-55.19882	6.164
	-55.19611	6.165
	-55.1903	6.167
	-55.18472	6.169
	-55.1786	6.171
	-55.16868	6.174
	-55.16511	6.175
	-55.16127	6.176
	-55.15707	6.177
	-55.14662	6.18
	-55.14277	6.181
	-55.13427	6.183
	-55.12961	6.184
	-55.11899	6.186
	-55.10611	6.188
	-55.09903	6.189
	-55.09079	6.19
	-55.06639	6.192
	-55.04868	6.193
	-55.03945	6.194
	-55.02174	6.195
	-54.95277	6.195
	-54.93506	6.194
	-54.91883	6.193
	-54.91059	6.192
	-54.90134	6.191
	-54.86676	6.189
	-54.85852	6.188
	-54.85134	6.188
	-54.82362	6.189
	-54.81805	6.189
	-54.80034	6.188
	-54.79211	6.187
	-54.78579	6.186
	-54.78049	6.185
	-54.76904	6.184
	-54.7608	6.183
	-54.73941	6.182
	-54.7217	6.181
	-54.70986	6.18
	-54.67931	6.178
	-54.67107	6.177
	-54.65834	6.175
	-54.65117	6.174
	-54.64137	6.173
	-54.63313	6.172
	-54.62621	6.171
	-54.6199	6.17
	-54.60919	6.168
	-54.60453	6.167
	-54.60033	6.166
	-54.59649	6.165
	-54.59223	6.164
	-54.58143	6.162
	-54.57512	6.161
	-54.56982	6.16
	-54.56516	6.159
	-54.56096	6.158
	-54.55711	6.157
	-54.55355	6.156
	-54.54919	6.155
	-54.53722	6.153
	-54.53192	6.152
	-54.51824	6.149
	-54.50979	6.147
	-54.50594	6.146
	-54.50119	6.145
	-54.48888	6.144
	-54.48064	6.143
	-54.47433	6.142
	-54.46586	6.141
	-54.45624	6.14
	-54.448	6.139
	-54.43554	6.137
	-54.42397	6.135
	-54.41752	6.134
	-54.40988	6.133
	-54.40357	6.132
	-54.39827	6.131
	-54.39361	6.13
	-54.38096	6.127
	-54.37183	6.125
	-54.36132	6.123
	-54.35628	6.122
	-54.35162	6.121
	-54.3382	6.118
	-54.334	6.117
	-54.32608	6.115
	-54.32142	6.114
	-54.31722	6.113
	-54.29955	6.112
	-54.29131	6.111
	-54.285	6.11
	-54.27917	6.109
	-54.26842	6.107
	-54.26377	6.106
	-54.25957	6.105
	-54.25572	6.104
	-54.2508	6.103
	-54.24449	6.102
	-54.23918	6.101
	-54.23453	6.1
	-54.23033	6.099
	-54.22648	6.098
	-54.21958	6.096
	-54.2133	6.094
	-54.20749	6.092
	-54.20129	6.09
	-54.18869	6.087
	-54.18484	6.086
	-54.18128	6.085
	-54.17654	6.084
	-54.16846	6.083
	-54.16214	6.082
	-54.15684	6.081
	-54.15218	6.08
	-54.14798	6.079
	-54.14414	6.078
	-54.13724	6.076
	-54.13112	6.074
	-54.1197	6.07
	-54.117	6.069
	-54.11191	6.067
	-54.10719	6.065
	-54.10052	6.062
	-54.09625	6.06
	-54.09221	6.058
	-54.08998	6.057
	-54.08489	6.055
	-54.08017	6.053
	-54.07576	6.051
	-54.07157	6.049
	-54.06844	6.048
	-54.06314	6.047
	-54.05848	6.046
	-54.04999	6.044
	-54.04067	6.042
	-54.03092	6.041
	-54.01322	6.04
	-54.00499	6.039
	-53.99868	6.038
	-53.99337	6.037
	-53.98871	6.036
	-53.98139	6.035
	-53.96369	6.034
	-53.95545	6.033
	-53.94914	6.032
	-53.94384	6.031
	-53.93918	6.03
	-53.93498	6.029
	-53.93114	6.028
	-53.92424	6.026
	-53.91811	6.024
	-53.91257	6.022
	-53.90749	6.02
	-53.90277	6.018
	-53.89835	6.016
	-53.89221	6.013
	-53.88655	6.01
	-53.88129	6.007
	-53.87637	6.004
	-53.87175	6.001
	-53.86739	5.998
	-53.86193	5.994
	-53.85808	5.991
	-53.85323	5.987
	-53.84867	5.983
	-53.84437	5.979
	-53.84334	5.978
	-53.96694	5.761111
	-53.96972	5.756944
	-53.97167	5.752222
	-53.97472	5.748056
	-53.97722	5.743889
	-53.98	5.739722
	-53.98194	5.735
	-53.985	5.731111
	-53.98694	5.7275
	-53.98944	5.723333
	-53.9925	5.719444
	-53.99556	5.716111
	-53.99861	5.711944
	-54.00056	5.707222
	-54.00306	5.703056
	-54.00528	5.698333
	-54.00722	5.693333
	-54.00944	5.688611
	-54.01083	5.683333
	-54.01306	5.678611
	-54.015	5.673611
	-54.01694	5.668889
	-54.01833	5.663333
	-54.02056	5.658611
	-54.02167	5.653333
	-54.0225	5.647222
	-54.02528	5.636111
	-54.02528	5.629444
	-54.02389	5.623889
	-54.02306	5.617778
	-54.0225	5.611667
	-54.02056	5.606111
	-54.01845	5.600833
	-54.01694	5.596111
	-54.015	5.591111
	-54.01198	5.587815
	-54.00856	5.584995
	-54.0051	5.578171
	-54.00507	5.572259
	-54.00579	5.566267
	-54.00566	5.558135
	-54.00777	5.551073
	-54.01083	5.546111
	-54.01333	5.542222
	-54.01639	5.538056
	-54.01917	5.533889
	-54.02167	5.529722
	-54.02444	5.525833
	-54.02722	5.521667
	-54.03083	5.518333
	-54.03333	5.514167
	-54.03889	5.505833
	-54.04222	5.5025
	-54.045	5.498333
	-54.04778	5.494444
	-54.05056	5.490278
	-54.05433	5.487717
	-54.05863	5.485466
	-54.06211	5.482936
	-54.06483	5.478954
	-54.06841	5.474694
	-54.07171	5.471546
	-54.07553	5.467657
	-54.07918	5.46389
	-54.08472	5.4575
	-54.0879	5.454104
	-54.08986	5.450648
	-54.09343	5.442065
	-54.09673	5.438392
	-54.10041	5.434781
	-54.10433	5.43083
	-54.10801	5.427405
	-54.11144	5.425184
	-54.1154	5.421697
	-54.11917	5.418056
	-54.12194	5.413889
	-54.12528	5.410278
	-54.12806	5.406389
	-54.13	5.401667
	-54.13194	5.396667
	-54.13276	5.39247
	-54.1341	5.386812
	-54.13656	5.3825
	-54.1392	5.377983
	-54.14222	5.373056
	-54.14583	5.369444
	-54.14833	5.365278
	-54.15194	5.361944
	-54.15417	5.358611
	-54.1575	5.355278
	-54.165	5.350278
	-54.16694	5.346944
	-54.16833	5.345
	-54.17194	5.341389
	-54.17444	5.3375
	-54.17806	5.334167
	-54.18056	5.33
	-54.18417	5.326389
	-54.18667	5.3225
	-54.19056	5.318889
	-54.19306	5.315
	-54.2	5.308056
	-54.20833	5.3025
	-54.21278	5.300556
	-54.21759	5.29935
	-54.22337	5.297866
	-54.22871	5.296106
	-54.23222	5.2925
	-54.23694	5.290278
	-54.24083	5.2875
	-54.245	5.285
	-54.24917	5.282222
	-54.25278	5.278611
	-54.25742	5.275766
	-54.26111	5.273333
	-54.265	5.270556
	-54.26917	5.267778
	-54.2725	5.264444
	-54.27667	5.261667
	-54.28	5.258333
	-54.28333	5.254722
	-54.28694	5.251389
	-54.29028	5.248056
	-54.29333	5.243889
	-54.29667	5.240556
	-54.29944	5.236389
	-54.30194	5.232222
	-54.30472	5.228333
	-54.31306	5.215833
	-54.31556	5.211944
	-54.31833	5.207778
	-54.32056	5.203056
	-54.32333	5.198889
	-54.32556	5.194167
	-54.3275	5.189444
	-54.33	5.185278
	-54.33278	5.181111
	-54.335	5.176389
	-54.33806	5.17179
	-54.34183	5.167621
	-54.34463	5.163853
	-54.34754	5.158454
	-54.34757	5.153732
	-54.34778	5.148333
	-54.35139	5.145
	-54.35472	5.141667
	-54.35972	5.139444
	-54.36417	5.1375
	-54.36608	5.134448
	-54.36663	5.129789
	-54.36758	5.125532
	-54.36887	5.121796
	-54.37029	5.117073
	-54.374	5.108897
	-54.37824	5.104975
	-54.38274	5.102381
	-54.38697	5.099509
	-54.39111	5.097222
	-54.39528	5.094444
	-54.39861	5.091111
	-54.40222	5.087778
	-54.40556	5.084167
	-54.40727	5.080412
	-54.40849	5.074139
	-54.41169	5.069189
	-54.41467	5.064813
	-54.4159	5.061626
	-54.41819	5.055282
	-54.41943	5.051121
	-54.42079	5.047095
	-54.42301	5.042929
	-54.42408	5.03805
	-54.42573	5.033954
	-54.42844	5.028733
	-54.43122	5.026041
	-54.43407	5.022995
	-54.43628	5.019742
	-54.43758	5.016909
	-54.43812	5.012334
	-54.43767	5.008458
	-54.43786	5.004303
	-54.43665	4.997982
	-54.43666	4.991031
	-54.43823	4.985754
	-54.44143	4.980268
	-54.4396	4.972893
	-54.43913	4.967758
	-54.43914	4.962911
	-54.43928	4.955543
	-54.43993	4.949221
	-54.44289	4.942557
	-54.44525	4.936571
	-54.45036	4.932334
	-54.45531	4.927947
	-54.45879	4.924895
	-54.46303	4.922477
	-54.46778	4.921111
	-54.47194	4.918333
	-54.47528	4.915
	-54.47944	4.912222
	-54.485	4.903889
	-54.48639	4.898611
	-54.48556	4.8925
	-54.48444	4.886944
	-54.48278	4.881389
	-54.48028	4.8775
	-54.47806	4.8725
	-54.47611	4.867778
	-54.47472	4.8625
	-54.47333	4.856944
	-54.47333	4.843333
	-54.47417	4.837222
	-54.47472	4.830833
	-54.47611	4.825556
	-54.47611	4.798333
	-54.47528	4.791944
	-54.47528	4.778333
	-54.47694	4.766111
	-54.47806	4.760556
	-54.47806	4.753889
	-54.4775	4.747778
	-54.47472	4.736667
	-54.47194	4.7325
	-54.46778	4.73
	-54.46306	4.727778
	-54.4575	4.726389
	-54.45222	4.725
	-54.44722	4.723056
	-54.43889	4.7175
	-54.43583	4.714167
	-54.43444	4.708611
	-54.43278	4.703333
	-54.43278	4.696389
	-54.43444	4.690833
	-54.435	4.684722
	-54.43694	4.68
	-54.43861	4.674444
	-54.43972	4.669167
	-54.43972	4.655556
	-54.43861	4.65
	-54.43694	4.644444
	-54.43583	4.639167
	-54.43361	4.634167
	-54.43222	4.628889
	-54.43028	4.624167
	-54.42833	4.619167
	-54.42579	4.613308
	-54.42417	4.609722
	-54.4225	4.604167
	-54.42111	4.598889
	-54.42	4.593333
	-54.42	4.579722
	-54.42056	4.573611
	-54.42111	4.567222
	-54.4225	4.561944
	-54.42528	4.557778
	-54.4275	4.553056
	-54.42944	4.548333
	-54.43778	4.535833
	-54.44806	4.525556
	-54.45	4.520833
	-54.45139	4.515556
	-54.45222	4.509167
	-54.45056	4.496944
	-54.44917	4.491389
	-54.44861	4.485278
	-54.4484	4.480401
	-54.44667	4.473889
	-54.44611	4.4675
	-54.44444	4.455278
	-54.44389	4.449167
	-54.44306	4.443056
	-54.44194	4.430833
	-54.44111	4.425833
	-54.44056	4.419722
	-54.43905	4.417559
	-54.43792	4.416852
	-54.43678	4.416168
	-54.42143	4.419979
	-54.41746	4.417537
	-54.41397	4.414084
	-54.41501	4.403124
	-54.41608	4.397802
	-54.41689	4.39031
	-54.41492	4.385355
	-54.41719	4.381534
	-54.4175	4.377323
	-54.41382	4.374635
	-54.40728	4.369239
	-54.40017	4.366565
	-54.38934	4.35785
	-54.38744	4.350057
	-54.38889	4.340657
	-54.39034	4.335346
	-54.39148	4.333056
	-54.39201	4.330557
	-54.39223	4.319362
	-54.39309	4.30958
	-54.39341	4.303228
	-54.39327	4.300158
	-54.39309	4.296742
	-54.39272	4.294788
	-54.3926	4.291617
	-54.39231	4.287291
	-54.39023	4.279726
	-54.38845	4.277261
	-54.38685	4.274984
	-54.38443	4.272568
	-54.38307	4.270646
	-54.38207	4.268715
	-54.38249	4.265252
	-54.38305	4.261595
	-54.38442	4.257078
	-54.38559	4.253654
	-54.38577	4.253269
	-54.3864	4.251511
	-54.38688	4.250072
	-54.38859	4.24595
	-54.38952	4.241838
	-54.38989	4.237696
	-54.39038	4.234916
	-54.3901	4.232113
	-54.39154	4.228511
	-54.393	4.225535
	-54.39345	4.222893
	-54.3929	4.219474
	-54.39301	4.215476
	-54.39458	4.211743
	-54.39523	4.210021
	-54.39593	4.208023
	-54.39593	4.204293
	-54.40639	4.208611
	-54.4075	4.196389
	-54.40694	4.190278
	-54.40472	4.185278
	-54.40222	4.181389
	-54.39806	4.178611
	-54.39444	4.175278
	-54.38972	4.173056
	-54.385	4.171111
	-54.38	4.168889
	-54.37472	4.167778
	-54.37	4.165556
	-54.365	4.163611
	-54.35972	4.162222
	-54.35556	4.159444
	-54.35056	4.1575
	-54.34583	4.155278
	-54.34167	4.1525
	-54.33778	4.149722
	-54.33361	4.147222
	-54.33167	4.142222
	-54.33278	4.136944
	-54.33417	4.131389
	-54.33611	4.126667
	-54.33778	4.121111
	-54.34167	4.111667
	-54.34389	4.106667
	-54.34528	4.101389
	-54.34639	4.095833
	-54.34639	4.088889
	-54.34722	4.082778
	-54.34778	4.076667
	-54.34944	4.071389
	-54.35194	4.067222
	-54.35694	4.059722
	-54.35806	4.056111
	-54.36111	4.052222
	-54.36222	4.046667
	-54.36167	4.040556
	-54.36028	4.035
	-54.35806	4.030278
	-54.35472	4.026944
	-54.34639	4.021389
	-54.3425	4.018611
	-54.33417	4.013056
	-54.33	4.010556
	-54.32556	4.008333
	-54.32194	4.005
	-54.31778	4.002222
	-54.31444	3.998889
	-54.31139	3.994722
	-54.30889	3.990556
	-54.30611	3.986389
	-54.30417	3.981667
	-54.30194	3.976944
	-54.3	3.972222
	-54.29861	3.966667
	-54.29778	3.960556
	-54.29667	3.955
	-54.29528	3.949444
	-54.29361	3.944167
	-54.2925	3.938611
	-54.29028	3.933889
	-54.2875	3.929722
	-54.28417	3.926389
	-54.28	3.923611
	-54.27611	3.920833
	-54.27111	3.918889
	-54.26639	3.916667
	-54.26222	3.913889
	-54.25944	3.91
	-54.2575	3.905278
	-54.25497	3.898537
	-54.25289	3.895148
	-54.24917	3.886111
	-54.24824	3.883643
	-54.24605	3.879014
	-54.24312	3.875114
	-54.24078	3.867384
	-54.23777	3.861596
	-54.23281	3.857822
	-54.22556	3.856607
	-54.22162	3.856102
	-54.21778	3.855833
	-54.21508	3.856142
	-54.21029	3.855367
	-54.20415	3.85336
	-54.19633	3.85147
	-54.19167	3.847419
	-54.19013	3.843653
	-54.18995	3.839216
	-54.1937	3.832038
	-54.19651	3.826884
	-54.19966	3.824434
	-54.20106	3.819616
	-54.19893	3.810278
	-54.19617	3.805524
	-54.19166	3.801194
	-54.18406	3.800649
	-54.17639	3.801944
	-54.17051	3.803131
	-54.16643	3.805358
	-54.15631	3.804943
	-54.14942	3.804274
	-54.14268	3.80319
	-54.12962	3.79978
	-54.12607	3.796087
	-54.12249	3.791748
	-54.11969	3.785632
	-54.11763	3.78097
	-54.11608	3.77707
	-54.11583	3.773056
	-54.11222	3.769722
	-54.10944	3.765556
	-54.10722	3.760902
	-54.10451	3.757312
	-54.10162	3.752047
	-54.10056	3.747222
	-54.09831	3.741309
	-54.09617	3.734425
	-54.09267	3.729703
	-54.08979	3.727477
	-54.0865	3.725326
	-54.08203	3.720582
	-54.07845	3.713496
	-54.07872	3.706414
	-54.08201	3.699041
	-54.08278	3.696667
	-54.08613	3.691866
	-54.08676	3.687206
	-54.08466	3.683379
	-54.08385	3.67948
	-54.08331	3.675585
	-54.0786	3.670433
	-54.07366	3.669157
	-54.07033	3.667487
	-54.06209	3.662821
	-54.05679	3.660236
	-54.05449	3.657989
	-54.05057	3.653307
	-54.04948	3.649002
	-54.05242	3.640706
	-54.05214	3.637404
	-54.05094	3.634936
	-54.04631	3.633615
	-54.04039	3.632087
	-54.03472	3.630833
	-54.03119	3.631068
	-54.02784	3.63237
	-54.02558	3.638048
	-54.026	3.642889
	-54.02506	3.644677
	-54.01853	3.649034
	-54.01382	3.65091
	-54.01106	3.650515
	-54.00843	3.649709
	-54.00441	3.646882
	-54.00056	3.64066
	-53.99586	3.632399
	-53.99259	3.626913
	-53.99169	3.621218
	-53.99121	3.617557
	-53.98859	3.61392
	-53.9834	3.610539
	-53.98162	3.609358
	-53.97977	3.606881
	-53.98137	3.603306
	-53.98385	3.599226
	-53.98417	3.593889
	-53.98436	3.590265
	-53.98407	3.587196
	-53.98723	3.580356
	-53.99307	3.576326
	-53.99699	3.57323
	-53.99966	3.570988
	-54.00324	3.570332
	-54.00567	3.570112
	-54.00817	3.565043
	-54.00548	3.556784
	-54.00473	3.552089
	-54.00566	3.544328
	-54.00878	3.536995
	-54.00385	3.529228
	-53.99952	3.526556
	-54.00333	3.517408
	-54.00632	3.512044
	-54.00735	3.508291
	-54.00826	3.50414
	-54.00886	3.495005
	-54.0086	3.486327
	-54.00834	3.478342
	-54.00843	3.472231
	-54.009	3.468401
	-54.00466	3.462704
	-54.00278	3.459167
	-54.00111	3.453889
	-54.00111	3.448333
	-54.00278	3.442778
	-54.00528	3.438611
	-54.00889	3.435278
	-54.01139	3.431111
	-54.01417	3.427222
	-54.01639	3.422222
	-54.01702	3.421806
	-54.01757	3.420602
	-54.01902	3.416919
	-54.02098	3.413317
	-54.02351	3.411113
	-54.02563	3.409334
	-54.0279	3.408317
	-54.03415	3.404823
	-54.04123	3.396892
	-54.046	3.39058
	-54.04825	3.386819
	-54.05166	3.385319
	-54.05805	3.385949
	-54.06035	3.383459
	-54.05946	3.378678
	-54.05551	3.373368
	-54.05944	3.369722
	-54.06139	3.364722
	-54.06361	3.36
	-54.065	3.354722
	-54.06639	3.349167
	-54.0675	3.336944
	-54.06833	3.330833
	-54.06917	3.324444
	-54.06972	3.318333
	-54.07111	3.312778
	-54.07333	3.308056
	-54.07722	3.304824
	-54.08139	3.3025
	-54.08556	3.3
	-54.08972	3.297222
	-54.09444	3.295
	-54.095	3.295
	-54.09972	3.293056
	-54.10806	3.2875
	-54.11222	3.285
	-54.115	3.280833
	-54.11833	3.277222
	-54.12194	3.273889
	-54.12528	3.270556
	-54.12806	3.266389
	-54.13056	3.262222
	-54.13361	3.258056
	-54.13611	3.254167
	-54.14444	3.241667
	-54.14639	3.236944
	-54.14917	3.232778
	-54.15139	3.228056
	-54.15417	3.223889
	-54.15667	3.219722
	-54.16083	3.216389
	-54.16917	3.210833
	-54.17389	3.208889
	-54.17806	3.206111
	-54.18139	3.202778
	-54.18472	3.199167
	-54.1875	3.195278
	-54.18972	3.190556
	-54.19111	3.185
	-54.19167	3.178889
	-54.19167	3.171944
	-54.1925	3.165833
	-54.195	3.161667
	-54.19778	3.1575
	-54.20056	3.153611
	-54.20611	3.145278
	-54.20667	3.139167
	-54.20667	3.132222
	-54.20833	3.126667
	-54.20861	3.121944
	-54.2025	3.122778
	-54.2	3.126667
	-54.19667	3.130278
	-54.19056	3.129444
	-54.18472	3.128056
	-54.18056	3.125278
	-54.17722	3.121944
	-54.17528	3.117222
	-54.17444	3.111111
	-54.17444	3.104167
	-54.17306	3.098889
	-54.17111	3.093889
	-54.16917	3.089167
	-54.16917	3.083611
	-54.16972	3.0775
	-54.17528	3.069167
	-54.18028	3.067222
	-54.18472	3.065278
	-54.18972	3.063056
	-54.18972	3.057778
	-54.18639	3.054167
	-54.18278	3.050833
	-54.17861	3.048056
	-54.17611	3.043889
	-54.17528	3.037778
	-54.17389	3.0325
	-54.17306	3.026111
	-54.17194	3.020833
	-54.17028	3.015278
	-54.17028	3.008333
	-54.17194	3.002778
	-54.17389	2.998056
	-54.17722	2.994722
	-54.18028	2.990556
	-54.18056	2.984444
	-54.18028	2.978333
	-54.17861	2.972778
	-54.17528	2.969444
	-54.17028	2.967222
	-54.16556	2.965278
	-54.16278	2.961111
	-54.16083	2.956389
	-54.16083	2.950833
	-54.16222	2.945556
	-54.16444	2.940556
	-54.17028	2.926389
	-54.17306	2.922222
	-54.17639	2.918889
	-54.17861	2.915278
	-54.18139	2.9125
	-54.18417	2.908611
	-54.18639	2.903611
	-54.18639	2.896944
	-54.18667	2.890556
	-54.18833	2.885278
	-54.19389	2.876944
	-54.19444	2.872222
	-54.1925	2.8675
	-54.18972	2.863333
	-54.18472	2.861389
	-54.17944	2.86
	-54.17528	2.857222
	-54.1725	2.853056
	-54.17389	2.8475
	-54.18056	2.840833
	-54.19306	2.8325
	-54.19583	2.828333
	-54.19861	2.824444
	-54.19778	2.818056
	-54.19667	2.812778
	-54.195	2.807222
	-54.19389	2.801667
	-54.195	2.796111
	-54.19667	2.790833
	-54.19861	2.786111
	-54.20056	2.781111
	-54.20333	2.776944
	-54.20611	2.773056
	-54.20861	2.768889
	-54.21222	2.765556
	-54.21556	2.761944
	-54.21917	2.758611
	-54.22306	2.755833
	-54.22667	2.7525
	-54.23	2.749167
	-54.23333	2.745556
	-54.23694	2.742222
	-54.23972	2.738056
	-54.25278	2.725
	-54.25528	2.720833
	-54.25833	2.716944
	-54.26111	2.712778
	-54.265	2.703333
	-54.26722	2.698333
	-54.26972	2.693611
	-54.27194	2.688889
	-54.27389	2.683889
	-54.27667	2.68
	-54.27889	2.675
	-54.28139	2.671111
	-54.285	2.6675
	-54.2875	2.663611
	-54.29444	2.656667
	-54.3	2.648333
	-54.30333	2.645
	-54.30694	2.641667
	-54.31028	2.638056
	-54.31306	2.633889
	-54.315	2.629167
	-54.31722	2.624444
	-54.31833	2.618889
	-54.31917	2.612778
	-54.31972	2.606667
	-54.32139	2.601111
	-54.3225	2.595556
	-54.32389	2.590278
	-54.32583	2.585556
	-54.32806	2.580556
	-54.33083	2.576667
	-54.33278	2.573056
	-54.33611	2.569722
	-54.33917	2.565556
	-54.34167	2.561389
	-54.34389	2.556667
	-54.34583	2.551944
	-54.34722	2.546389
	-54.34778	2.540278
	-54.34944	2.534722
	-54.35056	2.529167
	-54.35194	2.523889
	-54.35389	2.518889
	-54.35611	2.514167
	-54.35806	2.509444
	-54.36028	2.504722
	-54.36583	2.496389
	-54.36833	2.492222
	-54.37194	2.488889
	-54.37472	2.484722
	-54.37889	2.481944
	-54.38194	2.478611
	-54.38556	2.475278
	-54.38972	2.4725
	-54.39306	2.469167
	-54.39639	2.465556
	-54.40028	2.462222
	-54.40333	2.458889
	-54.40694	2.455278
	-54.40972	2.451111
	-54.41222	2.447222
	-54.415	2.443056
	-54.41806	2.438889
	-54.42056	2.434722
	-54.42333	2.430833
	-54.42667	2.427222
	-54.43139	2.425278
	-54.44528	2.425278
	-54.45139	2.425833
	-54.4575	2.426667
	-54.46389	2.427222
	-54.47	2.428056
	-54.47694	2.428056
	-54.48444	2.428085
	-54.48556	2.422529
	-54.48778	2.417807
	-54.48889	2.405307
	-54.48972	2.399196
	-54.49111	2.39364
	-54.4925	2.388362
	-54.49472	2.383362
	-54.49583	2.379473
	-54.49667	2.374751
	-54.49806	2.369196
	-54.49917	2.365029
	-54.50222	2.360862
	-54.50417	2.35614
	-54.50972	2.347807
	-54.51306	2.344473
	-54.51667	2.34114
	-54.52083	2.338362
	-54.52389	2.33614
	-54.53111	2.33614
	-54.53556	2.338362
	-54.53972	2.34114
	-54.54333	2.344473
	-54.5475	2.347251
	-54.55083	2.350585
	-54.55556	2.352807
	-54.56111	2.354196
	-54.56722	2.354751
	-54.57389	2.354751
	-54.57889	2.352807
	-54.58361	2.350585
	-54.58778	2.347807
	-54.59111	2.344473
	-54.59472	2.34114
	-54.59806	2.337529
	-54.60083	2.33364
	-54.60278	2.329473
	-54.60833	2.328056
	-54.61306	2.325833
	-54.61861	2.324722
	-54.62361	2.3225
	-54.62889	2.321111
	-54.63444	2.319722
	-54.64056	2.319167
	-54.64667	2.318333
	-54.65278	2.319167
	-54.65972	2.319167
	-54.66583	2.319722
	-54.67222	2.320556
	-54.67833	2.321111
	-54.68389	2.3225
	-54.68861	2.324722
	-54.6925	2.327222
	-54.69528	2.331389
	-54.69667	2.336944
	-54.69667	2.343889
	-54.69528	2.349167
	-54.69528	2.356111
	-54.6975	2.360833
	-54.70083	2.364444
	-54.70444	2.367778
	-54.70778	2.371111
	-54.71056	2.375278
	-54.7125	2.378611
	-54.7125	2.384167
	-54.71056	2.388889
	-54.70778	2.393056
	-54.70361	2.395833
	-54.69861	2.397778
	-54.69194	2.397778
	-54.68639	2.399167
	-54.68389	2.403333
	-54.68444	2.409444
	-54.68694	2.413611
	-54.69	2.417778
	-54.69194	2.4225
	-54.69111	2.428611
	-54.68861	2.432778
	-54.68639	2.4375
	-54.68583	2.443611
	-54.68639	2.45
	-54.68917	2.453889
	-54.69333	2.456667
	-54.69806	2.458889
	-54.70361	2.460278
	-54.70972	2.460833
	-54.71528	2.462222
	-54.72	2.464167
	-54.72556	2.465556
	-54.73083	2.466944
	-54.73667	2.468333
	-54.74111	2.470556
	-54.74694	2.471667
	-54.75361	2.471667
	-54.75972	2.471111
	-54.76472	2.469167
	-54.76806	2.465556
	-54.77083	2.461389
	-54.78111	2.451111
	-54.78528	2.448611
	-54.78861	2.445
	-54.79278	2.442222
	-54.7975	2.440278
	-54.80139	2.4375
	-54.80639	2.435556
	-54.8125	2.434722
	-54.81861	2.434167
	-54.82556	2.434167
	-54.83167	2.434722
	-54.83861	2.434722
	-54.84472	2.435556
	-54.85028	2.436944
	-54.85029	2.436961
	-54.85639	2.4375
	-54.85698	2.437936
	-54.86194	2.438889
	-54.86846	2.439886
	-54.91949	2.499586
	-54.93535	2.518489
	-54.95424	2.583595
	-55.00374	2.59093
	-55.05624	2.55313
	-55.10302	2.52564
	-55.1234	2.567623
	-55.1728	2.559342
	-55.20754	2.522777
	-55.23474	2.50338
	-55.27729	2.512353
	-55.32018	2.515368
	-55.35615	2.475558
	-55.34557	2.447988
	-55.38533	2.41836
	-55.42938	2.438872
	-55.48224	2.438605
	-55.49971	2.443237
	-55.50424	2.439343
	-55.52473	2.435845
	-55.52793	2.42862
	-55.55143	2.429443
	-55.5706	2.423516
	-55.57463	2.437751
	-55.58968	2.431296
	-55.59349	2.433268
	-55.60429	2.430074
	-55.61266	2.426168
	-55.61707	2.41984
	-55.6316	2.416905
	-55.64219	2.415968
	-55.65724	2.420605
	-55.67399	2.413604
	-55.69834	2.421543
	-55.70417	2.4
	-55.71028	2.399167
	-55.71694	2.399167
	-55.74696	2.410445
	-55.75673	2.429901
	-55.76746	2.43787
	-55.76151	2.440488
	-55.76663	2.455237
	-55.78137	2.461672
	-55.78388	2.456518
	-55.83021	2.459093
	-55.83882	2.462176
	-55.85073	2.46906
	-55.85452	2.480552
	-55.86615	2.481376
	-55.87382	2.487894
	-55.88079	2.488896
	-55.88626	2.503464
	-55.89751	2.505554
	-55.90159	2.517226
	-55.9102	2.520037
	-55.92443	2.518601
	-55.92187	2.522852
	-55.92416	2.530541
	-55.9346	2.533447
	-55.97052	2.529313
	-55.97368	2.525789
	-55.97824	2.527329
	-55.97957	2.518828
	-55.98955	2.516926
	-55.99288	2.504548
	-55.98952	2.501264
	-55.9779	2.496393
	-55.97749	2.489609
	-55.98813	2.478672
	-55.98947	2.469452
	-56.01151	2.45282
	-56.00894	2.444316
	-56.00318	2.445847
	-55.99501	2.435622
	-55.99207	2.438602
	-55.98943	2.43623
	-55.98537	2.42928
	-55.98941	2.42712
	-55.9894	2.421543
	-55.98701	2.420327
	-55.9894	2.417738
	-56.00145	2.412921
	-56.00701	2.401527
	-56.01469	2.399813
	-56.02323	2.390863
	-56.02468	2.382362
	-56.0366	2.37423
	-56.03996	2.366272
	-56.03301	2.364188
	-56.02693	2.355316
	-56.0269	2.347086
	-56.02251	2.347443
	-56.02181	2.342469
	-56.02965	2.339581
	-56.02957	2.332433
	-56.0506	2.334981
	-56.05913	2.342946
	-56.06118	2.35489
	-56.07388	2.370818
	-56.0809	2.369013
	-56.08087	2.373175
	-56.08437	2.374986
	-56.09012	2.372277
	-56.08904	2.364043
	-56.09221	2.360066
	-56.08888	2.35147
	-56.0956	2.338267
	-56.09193	2.329854
	-56.09376	2.32117
	-56.10718	2.318285
	-56.1134	2.31105
	-56.11449	2.298568
	-56.12807	2.286454
	-56.12534	2.278221
	-56.13705	2.27072
	-56.13887	2.265745
	-56.12304	2.25868
	-56.12038	2.250266
	-56.10893	2.244742
	-56.09602	2.241386
	-56.09571	2.246089
	-56.08798	2.249883
	-56.07732	2.237483
	-56.06879	2.242815
	-56.05804	2.233402
	-56.04288	2.227783
	-56.04337	2.22127
	-56.03782	2.219638
	-56.03615	2.213487
	-56.04687	2.195943
	-56.05627	2.189347
	-56.05505	2.184641
	-56.04971	2.184367
	-56.04582	2.177128
	-56.03507	2.168798
	-56.0141	2.165348
	-56.00307	2.167602
	-55.98903	2.149548
	-55.98666	2.145791
	-55.98902	2.143375
	-55.99376	2.139554
	-55.99135	2.13132
	-55.98901	2.132043
	-55.98213	2.131857
	-55.97552	2.125972
	-55.97816	2.11512
	-55.97343	2.116203
	-55.96974	2.113034
	-55.97298	2.103177
	-55.96682	2.088428
	-55.94871	2.091672
	-55.9381	2.078459
	-55.9291	2.078634
	-55.92668	2.075102
	-55.93282	2.05774
	-55.90879	2.047412
	-55.9031	2.041078
	-55.90205	2.029317
	-55.91051	2.021996
	-55.91079	2.014397
	-55.90674	2.013402
	-55.90793	2.00128
	-55.91374	1.990519
	-55.92271	1.99125
	-55.92915	1.997314
	-55.93513	1.996504
	-55.93635	1.986465
	-55.92248	1.950364
	-55.92954	1.939242
	-55.92199	1.933268
	-55.92052	1.918975
	-55.90193	1.907747
	-55.90385	1.888028
	-55.91488	1.884688
	-55.9343	1.871495
	-55.95638	1.845094
	-55.9701	1.848268
	-55.97598	1.840311
	-55.97935	1.841942
	-55.98321	1.835521
	-55.99569	1.834895
	-55.99896	1.83128
	-56.02409	1.842601
	-56.02901	1.841607
	-56.03665	1.850206
	-56.04343	1.847225
	-56.04993	1.850846
	-56.06646	1.851851
	-56.07546	1.849774
	-56.0774	1.845072
	-56.08135	1.845889
	-56.08535	1.853037
	-56.09019	1.853763
	-56.09865	1.846529
	-56.11285	1.855041
	-56.11762	1.850973
	-56.12018	1.857125
	-56.1299	1.859212
	-56.13255	1.869886
	-56.14113	1.875047
	-56.15262	1.890703
	-56.16026	1.89143
	-56.16852	1.887634
	-56.1709	1.900481
	-56.18243	1.892617
	-56.19891	1.892534
	-56.20096	1.896154
	-56.20896	1.894349
	-56.21502	1.902041
	-56.23446	1.898611
	-56.24404	1.87808
	-56.26312	1.885598
	-56.27229	1.896547
	-56.28999	1.906506
	-56.29077	1.910487
	-56.29527	1.908678
	-56.30274	1.911668
	-56.30904	1.920899
	-56.3214	1.923617
	-56.33493	1.937101
	-56.33935	1.935383
	-56.35821	1.941453
	-56.36902	1.937296
	-56.37207	1.932865
	-56.38862	1.932871
	-56.38999	1.923373
	-56.39699	1.923285
	-56.40359	1.930254
	-56.41182	1.928265
	-56.42257	1.938944
	-56.42288	1.945729
	-56.43207	1.946456
	-56.43702	1.951705
	-56.44468	1.948541
	-56.45126	1.956144
	-56.45416	1.952344
	-56.46895	1.949182
	-56.47362	1.955556
	-56.4764	1.959444
	-56.47834	1.964444
	-56.48112	1.968611
	-56.48528	1.971111
	-56.48917	1.973889
	-56.49501	1.975278
	-56.50028	1.976667
	-56.50667	1.9775
	-56.51112	1.979444
	-56.51945	1.985
	-56.52223	1.989167
	-56.52556	1.9925
	-56.52778	1.997222
	-56.5314	2.000556
	-56.5339	2.004722
	-56.53723	2.008333
	-56.5414	2.010833
	-56.54556	2.013611
	-56.54917	2.017222
	-56.55362	2.019167
	-56.55778	2.021944
	-56.56278	2.023889
	-56.56806	2.025278
	-56.57362	2.026667
	-56.57973	2.0275
	-56.58584	2.028056
	-56.64612	2.028056
	-56.65112	2.0275
	-56.65806	2.0275
	-56.66417	2.026667
	-56.67028	2.026111
	-56.69084	2.026111
	-56.69167	2.026667
	-56.69167	2.029444
	-56.69362	2.032778
	-56.69556	2.036389
	-56.69862	2.040278
	-56.70056	2.043889
	-56.7039	2.047222
	-56.70584	2.051944
	-56.70862	2.056111
	-56.71056	2.060833
	-56.71334	2.065
	-56.7164	2.069167
	-56.71834	2.073889
	-56.72084	2.078056
	-56.72362	2.082222
	-56.72667	2.086389
	-56.73001	2.089722
	-56.73278	2.093889
	-56.73612	2.097222
	-56.7389	2.101389
	-56.74223	2.104722
	-56.74556	2.108333
	-56.7489	2.111667
	-56.75251	2.115
	-56.75584	2.118611
	-56.75917	2.121944
	-56.76223	2.126111
	-56.76556	2.129444
	-56.76834	2.133611
	-56.77167	2.136944
	-56.78001	2.149444
	-56.78278	2.153333
	-56.78528	2.1575
	-56.79084	2.165833
	-56.79362	2.169722
	-56.79917	2.178056
	-56.80167	2.182222
	-56.80473	2.186389
	-56.80751	2.190278
	-56.81001	2.194444
	-56.81362	2.197778
	-56.81695	2.201389
	-56.81945	2.205278
	-56.82112	2.210833
	-56.82167	2.216944
	-56.82112	2.223333
	-56.82167	2.229444
	-56.82167	2.236111
	-56.82251	2.2425
	-56.82334	2.248611
	-56.82362	2.254722
	-56.82528	2.260278
	-56.8264	2.265556
	-56.82973	2.269167
	-56.83362	2.2725
	-56.83667	2.275833
	-56.84501	2.281389
	-56.84973	2.283611
	-56.85528	2.285
	-56.86084	2.286111
	-56.86612	2.2875
	-56.87195	2.288889
	-56.87723	2.290278
	-56.8814	2.293056
	-56.88417	2.297222
	-56.88612	2.301944
	-56.88667	2.308056
	-56.88556	2.313611
	-56.88473	2.319722
	-56.88417	2.325833
	-56.88334	2.332222
	-56.88334	2.345833
	-56.88417	2.351944
	-56.88556	2.3575
	-56.88751	2.362222
	-56.89028	2.366389
	-56.89417	2.369167
	-56.89778	2.3725
	-56.90612	2.378056
	-56.91556	2.381944
	-56.92028	2.384167
	-56.92528	2.386111
	-56.92917	2.388889
	-56.93223	2.393056
	-56.93473	2.397222
	-56.93556	2.403333
	-56.93556	2.408889
	-56.93417	2.414167
	-56.93334	2.419167
	-56.93223	2.424444
	-56.93056	2.43
	-56.93001	2.436111
	-56.93251	2.440278
	-56.93667	2.443056
	-56.94251	2.444444
	-56.94667	2.447222
	-56.94917	2.451111
	-56.95195	2.455278
	-56.95417	2.460278
	-56.95612	2.465
	-56.95751	2.470556
	-56.95806	2.476667
	-56.95751	2.482778
	-56.95612	2.488333
	-56.95417	2.493056
	-56.95195	2.497778
	-56.95001	2.5025
	-56.94917	2.508611
	-56.95001	2.515
	-56.95334	2.518333
	-56.95945	2.518889
	-56.96445	2.516944
	-56.96778	2.513611
	-56.97195	2.510833
	-56.97528	2.5075
	-56.97917	2.504722
	-56.98417	2.5025
	-56.98945	2.5025
	-56.99362	2.505278
	-56.99667	2.509444
	-56.99862	2.514167
	-56.99917	2.520278
	-56.99917	2.525833
	-56.99778	2.531389
	-56.99695	2.5375
	-56.99584	2.543056
	-56.99584	2.549722
	-56.99695	2.555278
	-56.99917	2.558611
	-57.00112	2.563611
	-57.0039	2.567778
	-57.00723	2.571111
	-57.0114	2.573889
	-57.0164	2.575833
	-57.01973	2.579167
	-57.02306	2.582778
	-57.02528	2.5875
	-57.02723	2.592222
	-57.02806	2.598333
	-57.02862	2.604444
	-57.02806	2.610833
	-57.02667	2.616111
	-57.02112	2.624444
	-57.01917	2.629167
	-57.01778	2.634722
	-57.02056	2.638889
	-57.02473	2.641667
	-57.03084	2.642222
	-57.03695	2.641667
	-57.04167	2.639444
	-57.0464	2.6375
	-57.05056	2.634722
	-57.05612	2.634722
	-57.06028	2.6375
	-57.06223	2.642222
	-57.06362	2.647778
	-57.06362	2.654444
	-57.06223	2.66
	-57.0614	2.666111
	-57.06028	2.671667
	-57.06084	2.677778
	-57.06306	2.6825
	-57.06501	2.6875
	-57.06778	2.691389
	-57.07056	2.695556
	-57.0739	2.699167
	-57.07528	2.703333
	-57.07751	2.706667
	-57.07945	2.71
	-57.08195	2.714167
	-57.08556	2.7175
	-57.0939	2.723056
	-57.10056	2.729722
	-57.10278	2.734722
	-57.10334	2.740833
	-57.10278	2.745556
	-57.09973	2.749722
	-57.0964	2.753056
	-57.0939	2.757222
	-57.09112	2.761389
	-57.08917	2.766111
	-57.09028	2.771667
	-57.09445	2.774444
	-57.09862	2.776944
	-57.10473	2.777778
	-57.11084	2.778333
	-57.11778	2.778333
	-57.12251	2.776389
	-57.12751	2.774444
	-57.1314	2.771667
	-57.13778	2.770833
	-57.14195	2.773611
	-57.14445	2.777778
	-57.1464	2.7825
	-57.14584	2.788611
	-57.14445	2.794167
	-57.14223	2.798889
	-57.14028	2.803889
	-57.13778	2.807778
	-57.12945	2.813333
	-57.12612	2.816667
	-57.12473	2.822222
	-57.12751	2.826389
	-57.1314	2.829167
	-57.13695	2.830556
	-57.14306	2.831111
	-57.14917	2.830556
	-57.15417	2.828333
	-57.15834	2.825833
	-57.16306	2.823611
	-57.16695	2.820833
	-57.17195	2.818889
	-57.17667	2.816667
	-57.18278	2.816111
	-57.18778	2.818056
	-57.18973	2.823056
	-57.18973	2.829722
	-57.19112	2.835278
	-57.1939	2.839444
	-57.19806	2.842222
	-57.20251	2.844167
	-57.20612	2.8475
	-57.20834	2.8525
	-57.20751	2.857222
	-57.20612	2.862778
	-57.20612	2.869444
	-57.20751	2.875
	-57.21362	2.881111
	-57.21278	2.881111
	-57.21501	2.884444
	-57.21862	2.888056
	-57.22056	2.892778
	-57.22278	2.8975
	-57.2239	2.903056
	-57.22195	2.907778
	-57.21917	2.911944
	-57.21584	2.915278
	-57.21167	2.918056
	-57.20667	2.92
	-57.20251	2.922778
	-57.19862	2.925556
	-57.19445	2.928333
	-57.19112	2.931667
	-57.18556	2.94
	-57.18445	2.945556
	-57.18362	2.951667
	-57.1864	2.955833
	-57.19112	2.957778
	-57.19723	2.958333
	-57.20251	2.956944
	-57.20834	2.955833
	-57.21445	2.955
	-57.22056	2.954444
	-57.22612	2.955833
	-57.22806	2.960556
	-57.22806	2.967222
	-57.23028	2.972222
	-57.23028	2.9775
	-57.22806	2.981111
	-57.22587	2.983181
	-57.22473	2.985278
	-57.22112	2.988611
	-57.22001	2.994167
	-57.22195	2.998889
	-57.22473	3.002778
	-57.22723	3.006944
	-57.2289	3.0125
	-57.22806	3.017222
	-57.22473	3.020833
	-57.21917	3.022222
	-57.21278	3.022778
	-57.20751	3.021389
	-57.20473	3.025556
	-57.20612	3.031111
	-57.20834	3.035833
	-57.20973	3.041389
	-57.21084	3.046667
	-57.21084	3.060556
	-57.21251	3.065833
	-57.21501	3.07
	-57.22112	3.076111
	-57.22612	3.078333
	-57.23028	3.080833
	-57.23418	3.082691
	-57.23695	3.083611
	-57.24167	3.085833
	-57.24667	3.087778
	-57.24917	3.091944
	-57.25084	3.0975
	-57.25001	3.103611
	-57.2489	3.108889
	-57.24667	3.113889
	-57.24473	3.117222
	-57.24167	3.121389
	-57.2389	3.125278
	-57.23695	3.130278
	-57.2364	3.136389
	-57.23834	3.141111
	-57.24306	3.143333
	-57.24806	3.141111
	-57.2514	3.137778
	-57.25556	3.135
	-57.25945	3.132222
	-57.26362	3.129444
	-57.26973	3.128889
	-57.27473	3.129444
	-57.27945	3.131667
	-57.28306	3.135
	-57.28501	3.139722
	-57.28501	3.145278
	-57.28306	3.15
	-57.28028	3.154167
	-57.27723	3.158889
	-57.27473	3.163056
	-57.27695	3.167778
	-57.28223	3.169167
	-57.2864	3.171944
	-57.28973	3.175278
	-57.29056	3.181667
	-57.28973	3.187778
	-57.28917	3.193889
	-57.28834	3.2
	-57.28723	3.205556
	-57.28556	3.217778
	-57.28501	3.223889
	-57.28417	3.23
	-57.28306	3.235556
	-57.28306	3.2425
	-57.28417	3.247778
	-57.2864	3.252778
	-57.28834	3.2575
	-57.29056	3.262222
	-57.29251	3.266944
	-57.2939	3.2725
	-57.29473	3.278611
	-57.29112	3.281944
	-57.28723	3.285
	-57.28417	3.288889
	-57.28362	3.295
	-57.28501	3.300556
	-57.28723	3.305278
	-57.28501	3.310278
	-57.2814	3.313611
	-57.27945	3.318333
	-57.2789	3.324444
	-57.28028	3.33
	-57.28306	3.334167
	-57.28556	3.338333
	-57.28751	3.343056
	-57.28973	3.347778
	-57.29528	3.356111
	-57.29862	3.359444
	-57.30001	3.364722
	-57.30001	3.371667
	-57.29945	3.377778
	-57.30001	3.384167
	-57.30334	3.3875
	-57.30834	3.389444
	-57.31306	3.3875
	-57.31723	3.384722
	-57.31973	3.380556
	-57.32251	3.376389
	-57.32584	3.373056
	-57.3289	3.368889
	-57.33278	3.366389
	-57.33695	3.363611
	-57.34167	3.361389
	-57.34667	3.359444
	-57.35278	3.358611
	-57.35778	3.358056
	-57.36223	3.36
	-57.36806	3.361389
	-57.3739	3.362222
	-57.38778	3.362222
	-57.39251	3.364167
	-57.39667	3.366944
	-57.40056	3.369722
	-57.40473	3.3725
	-57.40834	3.375833
	-57.41167	3.379167
	-57.4164	3.381389
	-57.42195	3.382778
	-57.42417	3.377778
	-57.42417	3.371111
	-57.42612	3.366389
	-57.42751	3.360833
	-57.43028	3.356667
	-57.43501	3.354722
	-57.44112	3.353889
	-57.44723	3.353333
	-57.45278	3.351944
	-57.45751	3.349722
	-57.46167	3.347222
	-57.46584	3.344444
	-57.46917	3.340833
	-57.47334	3.338333
	-57.4789	3.338333
	-57.48278	3.340833
	-57.48556	3.345
	-57.48973	3.347778
	-57.49473	3.349722
	-57.50001	3.351111
	-57.51251	3.359444
	-57.51584	3.362778
	-57.52056	3.364722
	-57.52695	3.364167
	-57.53223	3.362778
	-57.53723	3.360833
	-57.54056	3.3575
	-57.5439	3.353889
	-57.54667	3.349722
	-57.55001	3.346389
	-57.55501	3.344444
	-57.56112	3.343611
	-57.56723	3.344444
	-57.57362	3.345
	-57.58028	3.345
	-57.5864	3.344444
	-57.59751	3.341667
	-57.5989	3.341667
	-57.60361	3.342222
	-57.60833	3.344444
	-57.61944	3.347222
	-57.62389	3.349167
	-57.62889	3.351111
	-57.63389	3.353333
	-57.63833	3.355278
	-57.64667	3.360833
	-57.65028	3.364167
	-57.65361	3.367778
	-57.65639	3.371667
	-57.65972	3.375
	-57.66194	3.38
	-57.66389	3.384722
	-57.66611	3.389444
	-57.66639	3.395556
	-57.66528	3.401111
	-57.66222	3.405278
	-57.65972	3.409444
	-57.65778	3.414167
	-57.655	3.418333
	-57.65278	3.423056
	-57.64889	3.4325
	-57.64667	3.4375
	-57.64417	3.441389
	-57.64139	3.445556
	-57.63917	3.450278
	-57.63722	3.455278
	-57.63639	3.461389
	-57.63806	3.466944
	-57.64194	3.476389
	-57.64417	3.481111
	-57.64611	3.485833
	-57.64806	3.490833
	-57.65028	3.495556
	-57.65167	3.501111
	-57.65278	3.513333
	-57.65417	3.518889
	-57.65639	3.523611
	-57.65917	3.527778
	-57.66194	3.531667
	-57.66528	3.535278
	-57.66861	3.538611
	-57.67333	3.540833
	-57.67833	3.542778
	-57.68306	3.544722
	-57.68778	3.546944
	-57.6925	3.548889
	-57.6975	3.550833
	-57.70222	3.553056
	-57.70639	3.555833
	-57.70972	3.559167
	-57.7125	3.563333
	-57.71472	3.568056
	-57.71611	3.573333
	-57.71722	3.579722
	-57.71889	3.585
	-57.72083	3.59
	-57.72278	3.594722
	-57.72833	3.603056
	-57.73167	3.606389
	-57.73444	3.610278
	-57.74194	3.615278
	-57.74694	3.617222
	-57.75111	3.62
	-57.755	3.622778
	-57.76056	3.624167
	-57.76472	3.626944
	-57.76917	3.628889
	-57.77417	3.630833
	-57.78861	3.637222
	-57.79333	3.639167
	-57.7975	3.641944
	-57.80222	3.643889
	-57.80722	3.646111
	-57.81167	3.648056
	-57.81583	3.650833
	-57.82083	3.652778
	-57.825	3.655556
	-57.82833	3.658889
	-57.8325	3.661667
	-57.83583	3.665
	-57.83861	3.669167
	-57.84056	3.673889
	-57.84278	3.678889
	-57.84389	3.684167
	-57.84556	3.689722
	-57.84611	3.695833
	-57.84611	3.702778
	-57.84694	3.708889
	-57.84694	3.7225
	-57.84778	3.728889
	-57.84806	3.735
	-57.84889	3.741111
	-57.85028	3.746389
	-57.85222	3.751389
	-57.85389	3.756667
	-57.85583	3.761667
	-57.85778	3.766389
	-57.85917	3.771944
	-57.86111	3.776667
	-57.86389	3.780833
	-57.86583	3.785556
	-57.8675	3.790833
	-57.86944	3.795833
	-57.87194	3.799722
	-57.87417	3.804722
	-57.87611	3.809444
	-57.87889	3.813611
	-57.88194	3.8175
	-57.88444	3.821667
	-57.89	3.83
	-57.89361	3.833333
	-57.89611	3.8375
	-57.89972	3.840833
	-57.90222	3.845
	-57.90583	3.848333
	-57.90917	3.851944
	-57.91194	3.855833
	-57.9175	3.864167
	-57.91944	3.868889
	-57.92167	3.873611
	-57.92444	3.877778
	-57.92694	3.881944
	-57.92889	3.886667
	-57.93194	3.890833
	-57.93444	3.895
	-57.93722	3.898889
	-57.94056	3.9025
	-57.94333	3.906389
	-57.94667	3.91
	-57.95056	3.913333
	-57.95694	3.920278
	-57.96111	3.922778
	-57.96472	3.926389
	-57.96889	3.929167
	-57.97278	3.931944
	-57.97639	3.935278
	-57.98056	3.938056
	-57.98472	3.940556
	-57.98806	3.944167
	-57.99222	3.946944
	-57.99639	3.949444
	-58.00028	3.952222
	-58.00861	3.957778
	-58.01194	3.961111
	-58.01611	3.963889
	-58.01889	3.968056
	-58.02222	3.971389
	-58.02778	3.979722
	-58.03139	3.983056
	-58.03389	3.987222
	-58.03722	3.990556
	-58.04	3.994722
	-58.04333	3.998056
	-58.045	4.003611
	-58.04694	4.008333
	-58.0475	4.014444
	-58.04833	4.020556
	-58.04917	4.026944
	-58.04944	4.033056
	-58.04944	4.053611
	-58.04917	4.059722
	-58.04833	4.065833
	-58.04833	4.0725
	-58.04917	4.078889
	-58.05028	4.084167
	-58.05167	4.089722
	-58.05333	4.095278
	-58.05528	4.1
	-58.05667	4.105278
	-58.05861	4.110278
	-58.06056	4.115
	-58.06278	4.119722
	-58.06472	4.124722
	-58.06611	4.13
	-58.06889	4.141111
	-58.06944	4.147222
	-58.07083	4.1525
	-58.07083	4.159444
	-58.06944	4.165
	-58.06556	4.174444
	-58.06278	4.178611
	-58.05972	4.181389
	-58.05778	4.186111
	-58.05528	4.190278
	-58.05167	4.193611
	-58.04917	4.197778
	-58.04694	4.2025
	-58.04333	4.205833
	-58.04083	4.21
	-58.03722	4.213333
	-58.03389	4.216944
	-58.02972	4.219444
	-58.025	4.221667
	-58.02083	4.224444
	-58.01694	4.227222
	-58.01278	4.229722
	-58.0025	4.24
	-57.99417	4.2525
	-57.99083	4.255833
	-57.98722	4.259167
	-57.98389	4.2625
	-57.97972	4.265278
	-57.97639	4.268889
	-57.97139	4.271389
	-57.96667	4.273611
	-57.96278	4.276389
	-57.95917	4.279722
	-57.95667	4.283889
	-57.95361	4.288056
	-57.9525	4.293333
	-57.95083	4.305556
	-57.95056	4.311944
	-57.94889	4.317222
	-57.94889	4.329722
	-57.94833	4.335833
	-57.94833	4.349444
	-57.94972	4.354722
	-57.95167	4.359722
	-57.95361	4.364444
	-57.95583	4.369167
	-57.95694	4.374722
	-57.95917	4.379444
	-57.96	4.385556
	-57.96056	4.391667
	-57.96	4.397778
	-57.95861	4.403333
	-57.95306	4.411667
	-57.95056	4.415556
	-57.94667	4.419167
	-57.94417	4.423333
	-57.94139	4.427222
	-57.93806	4.430833
	-57.93444	4.434167
	-57.92778	4.440833
	-57.92222	4.449167
	-57.92028	4.453889
	-57.91806	4.458611
	-57.91667	4.463611
	-57.91528	4.468889
	-57.91417	4.474444
	-57.91194	4.479167
	-57.91056	4.484722
	-57.90833	4.489444
	-57.90639	4.494167
	-57.90417	4.499167
	-57.90222	4.503889
	-57.89972	4.507778
	-57.8975	4.512778
	-57.89556	4.5175
	-57.89417	4.523056
	-57.89222	4.527778
	-57.89056	4.533333
	-57.88944	4.538611
	-57.88722	4.543333
	-57.88611	4.548889
	-57.88389	4.553611
	-57.8825	4.559167
	-57.88028	4.563889
	-57.87833	4.568611
	-57.87694	4.574167
	-57.875	4.578889
	-57.87278	4.583611
	-57.87	4.587778
	-57.86806	4.5925
	-57.86944	4.589722
	-57.8675	4.594722
	-57.86472	4.598889
	-57.86194	4.602778
	-57.85639	4.611111
	-57.85389	4.615278
	-57.85167	4.62
	-57.84889	4.624167
	-57.84694	4.628889
	-57.84472	4.633611
	-57.84361	4.639167
	-57.84139	4.643889
	-57.84	4.649444
	-57.83861	4.654722
	-57.83778	4.660833
	-57.83861	4.666944
	-57.84	4.6725
	-57.84194	4.677222
	-57.84389	4.682222
	-57.84778	4.685556
	-57.85028	4.689722
	-57.85389	4.693056
	-57.85639	4.697222
	-57.85917	4.701111
	-57.8675	4.713611
	-57.86944	4.718333
	-57.87194	4.7225
	-57.87361	4.727778
	-57.875	4.733333
	-57.87583	4.739444
	-57.87694	4.745
	-57.87833	4.750278
	-57.88028	4.755278
	-57.8825	4.76
	-57.88444	4.764722
	-57.88722	4.768889
	-57.89056	4.772222
	-57.89556	4.774167
	-57.90028	4.776389
	-57.90583	4.777778
	-57.91194	4.778333
	-57.9175	4.779722
	-57.92083	4.783056
	-57.92278	4.788056
	-57.92444	4.793333
	-57.92556	4.798889
	-57.92639	4.805
	-57.92556	4.811111
	-57.92444	4.816667
	-57.92278	4.821944
	-57.92028	4.826944
	-57.91806	4.831667
	-57.91528	4.835833
	-57.9125	4.839722
	-57.91	4.843889
	-57.90722	4.848056
	-57.90417	4.852222
	-57.90083	4.855556
	-57.89806	4.859722
	-57.89139	4.866389
	-57.88806	4.87
	-57.88444	4.873333
	-57.88194	4.8775
	-57.87833	4.880833
	-57.875	4.884167
	-57.87194	4.888333
	-57.86861	4.891667
	-57.87	4.888889
	-57.8675	4.893056
	-57.86389	4.896389
	-57.85833	4.904722
	-57.85583	4.908889
	-57.85306	4.912778
	-57.84972	4.916389
	-57.84694	4.920278
	-57.84389	4.924444
	-57.84056	4.928056
	-57.83667	4.930556
	-57.83167	4.931389
	-57.82611	4.931389
	-57.82083	4.93
	-57.81528	4.928611
	-57.81056	4.926667
	-57.80556	4.924444
	-57.80028	4.923056
	-57.79472	4.921944
	-57.78861	4.921111
	-57.77611	4.921111
	-57.77139	4.923056
	-57.76667	4.925278
	-57.7625	4.928056
	-57.75833	4.930556
	-57.755	4.934167
	-57.75306	4.938889
	-57.75361	4.945
	-57.75556	4.949722
	-57.755	4.955833
	-57.74944	4.964167
	-57.74611	4.9675
	-57.74278	4.969444
	-57.73028	4.977778
	-57.72694	4.981111
	-57.72278	4.983889
	-57.71917	4.987222
	-57.71528	4.99
	-57.71194	4.993333
	-57.69944	5.001667
	-57.69611	5.005
	-57.68778	5.010556
	-57.6825	5.011944
	-57.67639	5.0125
	-57.67	5.011944
	-57.66528	5.009722
	-57.65972	5.008333
	-57.655	5.006389
	-57.64944	5.005
	-57.64417	5.003611
	-57.63917	5.001667
	-57.63389	5.000278
	-57.62889	4.998333
	-57.62389	4.996111
	-57.62	4.993333
	-57.61389	4.992778
	-57.60778	4.991944
	-57.60167	4.992778
	-57.59528	4.993333
	-57.58972	4.994722
	-57.585	4.996944
	-57.58028	4.998889
	-57.57472	5.000278
	-57.56768	5.000695
	-57.55944	5.002139
	-57.54999	5.004046
	-57.54558	5.009011
	-57.53215	5.010568
	-57.52625	5.009583
	-57.52111	5.007862
	-57.51808	5.004933
	-57.51658	5.001032
	-57.51292	4.996055
	-57.50568	4.994038
	-57.50136	4.993764
	-57.49667	4.993333
	-57.49111	4.991944
	-57.48639	4.99
	-57.48028	4.989444
	-57.47333	4.989444
	-57.46735	4.990383
	-57.46133	4.991109
	-57.45562	4.991949
	-57.45024	4.993509
	-57.44578	4.994195
	-57.44194	4.994722
	-57.43639	4.993333
	-57.43167	4.991389
	-57.42611	4.99
	-57.42	4.989444
	-57.41389	4.99
	-57.40889	4.991944
	-57.40472	4.994722
	-57.40139	4.998333
	-57.39722	5.001111
	-57.39333	5.003611
	-57.39038	5.007666
	-57.38602	5.009457
	-57.37886	5.013993
	-57.37114	5.015761
	-57.36384	5.014
	-57.35889	5.012066
	-57.35361	5.011944
	-57.34861	5.013889
	-57.34265	5.015184
	-57.33884	5.018668
	-57.33581	5.023611
	-57.33556	5.031396
	-57.33041	5.035173
	-57.31995	5.032906
	-57.31379	5.027689
	-57.31023	5.02184
	-57.30755	5.016899
	-57.30134	5.012818
	-57.2926	5.013193
	-57.28717	5.015408
	-57.285	5.02
	-57.28417	5.026111
	-57.285	5.032222
	-57.28596	5.038149
	-57.29025	5.044883
	-57.29417	5.049448
	-57.29912	5.052656
	-57.3046	5.053997
	-57.30955	5.055588
	-57.31311	5.056813
	-57.3161	5.058674
	-57.31909	5.061656
	-57.32194	5.063889
	-57.3225	5.07
	-57.32275	5.075932
	-57.32314	5.082468
	-57.32234	5.089458
	-57.32075	5.093799
	-57.31759	5.099557
	-57.31483	5.103177
	-57.31141	5.106998
	-57.30718	5.111815
	-57.30464	5.114264
	-57.30139	5.117778
	-57.29944	5.1225
	-57.29778	5.127778
	-57.2975	5.134167
	-57.29667	5.140278
	-57.29667	5.160833
	-57.29598	5.168064
	-57.29354	5.172372
	-57.29142	5.175473
	-57.28833	5.177788
	-57.27694	5.179687
	-57.2711	5.180474
	-57.26359	5.18219
	-57.25795	5.179684
	-57.25417	5.175833
	-57.24583	5.170278
	-57.24076	5.166944
	-57.23545	5.161828
	-57.23462	5.156529
	-57.23509	5.151667
	-57.2337	5.146273
	-57.23278	5.138408
	-57.22982	5.130662
	-57.22046	5.130571
	-57.21325	5.136415
	-57.21094	5.144282
	-57.20962	5.14891
	-57.20624	5.151759
	-57.20119	5.152977
	-57.19548	5.154087
	-57.1865	5.156235
	-57.1785	5.161069
	-57.17628	5.169421
	-57.17728	5.179743
	-57.17842	5.186774
	-57.18029	5.195766
	-57.18431	5.2001
	-57.1883	5.205306
	-57.19331	5.209242
	-57.1949	5.210769
	-57.19825	5.21617
	-57.19999	5.218133
	-57.20292	5.220702
	-57.20697	5.224337
	-57.2094	5.229194
	-57.21201	5.234496
	-57.21326	5.239753
	-57.21395	5.244791
	-57.21441	5.25156
	-57.21952	5.258885
	-57.22207	5.263251
	-57.22616	5.266691
	-57.23003	5.268961
	-57.23747	5.27303
	-57.24205	5.276364
	-57.2476	5.277834
	-57.2525	5.279053
	-57.25802	5.277248
	-57.26387	5.273678
	-57.26709	5.270101
	-57.26878	5.264661
	-57.26917	5.260278
	-57.26917	5.254722
	-57.26778	5.249444
	-57.26444	5.246111
	-57.26167	5.241944
	-57.25917	5.237778
	-57.25611	5.233611
	-57.255	5.228333
	-57.25766	5.224086
	-57.26119	5.22268
	-57.26747	5.222603
	-57.27244	5.223607
	-57.27688	5.225073
	-57.27911	5.228112
	-57.28152	5.232569
	-57.28399	5.23615
	-57.28654	5.239783
	-57.2891	5.245432
	-57.29111	5.250833
	-57.29111	5.264444
	-57.29056	5.270556
	-57.28972	5.276667
	-57.28917	5.282778
	-57.2875	5.288333
	-57.28639	5.293889
	-57.28556	5.3
	-57.285	5.306111
	-57.28537	5.314449
	-57.28672	5.320165
	-57.29152	5.325764
	-57.29769	5.326991
	-57.30456	5.32414
	-57.31191	5.319273
	-57.31722	5.316435
	-57.32513	5.313969
	-57.33054	5.315187
	-57.33485	5.316674
	-57.3374	5.321228
	-57.33778	5.325737
	-57.33592	5.330583
	-57.33111	5.336151
	-57.32667	5.343011
	-57.32373	5.345284
	-57.32139	5.347604
	-57.31816	5.350168
	-57.31585	5.352103
	-57.31232	5.353667
	-57.30833	5.355278
	-57.30417	5.357778
	-57.29944	5.36
	-57.29528	5.362778
	-57.29111	5.365278
	-57.28639	5.3675
	-57.27806	5.373056
	-57.27472	5.376389
	-57.27027	5.379965
	-57.26737	5.384019
	-57.26518	5.397216
	-57.26498	5.401693
	-57.265	5.407778
	-57.26361	5.413056
	-57.26306	5.419167
	-57.26378	5.426048
	-57.26433	5.431938
	-57.26394	5.437055
	-57.26416	5.442279
	-57.26488	5.448722
	-57.2661	5.455998
	-57.26483	5.46465
	-57.26371	5.471915
	-57.25911	5.482269
	-57.25289	5.487543
	-57.24806	5.4916
	-57.23535	5.502224
	-57.22281	5.510301
	-57.21491	5.523537
	-57.20294	5.5398
	-57.18937	5.559957
	-57.18051	5.576448
	-57.16601	5.60462
	-57.15772	5.631645
	-57.14564	5.657523
	-57.13943	5.692561
	-57.1392	5.718895
	-57.14449	5.75141
	-57.13874	5.783465
	-57.13229	5.840702
	-57.1224	5.880879
	-57.11319	5.931697
	-57.10076	5.990349
	-57.06276	6.120237
	-57.01495	6.225
END
END
