Switzerland_Northwestern
1
	7.510447	47.50263
	7.509941	47.50491
	7.5103	47.50599
	7.509788	47.50725
	7.509349	47.50888
	7.508296	47.51006
	7.507911	47.51081
	7.505889	47.51134
	7.503921	47.5127
	7.503083	47.51399
	7.500894	47.51481
	7.499083	47.51628
	7.498212	47.51952
	7.49787	47.52125
	7.498551	47.52112
	7.499753	47.52057
	7.500789	47.51874
	7.501697	47.51691
	7.502532	47.51571
	7.502038	47.51544
	7.502278	47.51491
	7.50443	47.51491
	7.505459	47.51466
	7.506335	47.51524
	7.508836	47.51618
	7.511297	47.51702
	7.513645	47.51733
	7.514876	47.51737
	7.517459	47.51728
	7.517686	47.51664
	7.517975	47.51608
	7.518338	47.51559
	7.519079	47.51481
	7.520739	47.51572
	7.521241	47.51475
	7.522186	47.5142
	7.522845	47.51444
	7.523728	47.51533
	7.52369	47.51758
	7.523456	47.51867
	7.524634	47.51983
	7.527583	47.52175
	7.528758	47.52379
	7.529687	47.52516
	7.530939	47.52683
	7.531225	47.52816
	7.530956	47.52905
	7.530483	47.52976
	7.529757	47.53068
	7.527978	47.53177
	7.526778	47.53288
	7.526502	47.53283
	7.525984	47.53256
	7.525949	47.53246
	7.525659	47.53228
	7.525623	47.5322
	7.525297	47.53214
	7.525174	47.53214
	7.525112	47.53218
	7.524398	47.53186
	7.521143	47.53387
	7.519354	47.53472
	7.517725	47.53405
	7.51578	47.53293
	7.51429	47.53137
	7.51273	47.53079
	7.512668	47.53048
	7.510752	47.52899
	7.508207	47.52816
	7.507671	47.52812
	7.505095	47.52902
	7.502299	47.5284
	7.50101	47.52905
	7.500519	47.53013
	7.501438	47.53217
	7.500415	47.5339
	7.499656	47.53503
	7.498038	47.53615
	7.499498	47.53927
	7.499175	47.54011
	7.499371	47.54016
	7.49978	47.54005
	7.500152	47.54015
	7.500321	47.54027
	7.50039	47.54049
	7.500492	47.54059
	7.500729	47.54066
	7.500864	47.54084
	7.501091	47.54093
	7.501098	47.54107
	7.501196	47.54115
	7.501482	47.54127
	7.501909	47.54155
	7.502199	47.54158
	7.502185	47.5417
	7.502328	47.54179
	7.502448	47.54183
	7.502616	47.54181
	7.502779	47.542
	7.502739	47.54211
	7.502806	47.54227
	7.503084	47.54242
	7.503243	47.54241
	7.503846	47.54273
	7.504043	47.54291
	7.504211	47.54294
	7.504282	47.54301
	7.504228	47.54313
	7.504159	47.54314
	7.504095	47.5433
	7.504265	47.54345
	7.504246	47.5435
	7.504542	47.54361
	7.504593	47.54373
	7.504942	47.54385
	7.505074	47.54396
	7.505022	47.54404
	7.505387	47.54424
	7.50538	47.54432
	7.505455	47.54438
	7.505931	47.54451
	7.506031	47.54463
	7.506258	47.54473
	7.506606	47.54479
	7.506983	47.5448
	7.507413	47.54503
	7.507483	47.54505
	7.507269	47.54528
	7.509196	47.54704
	7.509181	47.54711
	7.509304	47.54714
	7.509356	47.54719
	7.509509	47.54718
	7.509626	47.5472
	7.510523	47.54718
	7.510682	47.54714
	7.511776	47.54641
	7.511911	47.54623
	7.512189	47.54572
	7.512349	47.54529
	7.512374	47.54507
	7.512593	47.54491
	7.512701	47.54481
	7.514004	47.54505
	7.516758	47.54541
	7.518857	47.54633
	7.522262	47.5487
	7.521899	47.54892
	7.525423	47.55091
	7.524792	47.55147
	7.527317	47.55278
	7.529614	47.55369
	7.530785	47.55405
	7.530704	47.5542
	7.536524	47.55545
	7.539485	47.558
	7.540361	47.55727
	7.543804	47.55958
	7.545525	47.56066
	7.547123	47.55959
	7.54733	47.55963
	7.547549	47.55969
	7.550337	47.56058
	7.552571	47.56147
	7.554043	47.562
	7.555325	47.56248
	7.557858	47.56317
	7.559259	47.56563
	7.557907	47.5664
	7.558277	47.56724
	7.559348	47.56938
	7.556466	47.57139
	7.556895	47.57247
	7.56545	47.57621
	7.566503	47.57766
	7.569123	47.5774
	7.571627	47.5771
	7.572119	47.57696
	7.573081	47.57671
	7.572933	47.57613
	7.572936	47.57609
	7.573238	47.57516
	7.573264	47.57512
	7.573766	47.57457
	7.573802	47.57455
	7.574425	47.57424
	7.574509	47.57421
	7.575168	47.57413
	7.575242	47.57413
	7.5758	47.57424
	7.575859	47.57426
	7.57659	47.57471
	7.576648	47.57476
	7.576665	47.5755
	7.577251	47.57596
	7.577259	47.57602
	7.577149	47.57651
	7.578852	47.57666
	7.584653	47.57552
	7.584391	47.57858
	7.584733	47.58085
	7.585719	47.58409
	7.586964	47.58655
	7.588248	47.58852
	7.589039	47.5899
	7.593165	47.58897
	7.598462	47.58764
	7.604816	47.58493
	7.60458	47.58281
	7.604054	47.58133
	7.604432	47.5813
	7.604517	47.58128
	7.604711	47.58118
	7.604762	47.5804
	7.605333	47.57988
	7.604882	47.57787
	7.609411	47.57818
	7.613204	47.57816
	7.614974	47.57799
	7.616708	47.57768
	7.619134	47.57687
	7.622387	47.57836
	7.62395	47.57916
	7.625006	47.57961
	7.626436	47.5804
	7.62802	47.58136
	7.634102	47.58586
	7.634863	47.58677
	7.636437	47.58837
	7.63963	47.59036
	7.64324	47.59134
	7.641857	47.59291
	7.641783	47.59419
	7.643046	47.59504
	7.644405	47.59574
	7.64567	47.59696
	7.649037	47.59622
	7.651057	47.59572
	7.655065	47.5954
	7.66169	47.5937
	7.664621	47.59267
	7.66733	47.59195
	7.672192	47.5919
	7.675171	47.59198
	7.675499	47.59304
	7.676783	47.59431
	7.678064	47.59536
	7.679717	47.59636
	7.680658	47.59719
	7.681551	47.59733
	7.683009	47.59849
	7.684819	47.59877
	7.687022	47.5987
	7.687983	47.59861
	7.689313	47.59884
	7.691637	47.59959
	7.693325	47.60091
	7.69379	47.60077
	7.693036	47.59949
	7.691974	47.59867
	7.690153	47.59757
	7.684716	47.59664
	7.683645	47.59602
	7.681979	47.59426
	7.679581	47.59225
	7.67738	47.59136
	7.673081	47.58816
	7.671742	47.58727
	7.672069	47.58524
	7.674936	47.58423
	7.678927	47.58326
	7.680852	47.58268
	7.681326	47.58098
	7.681473	47.58026
	7.681924	47.57771
	7.6819	47.57746
	7.682549	47.57723
	7.683853	47.57666
	7.68367	47.57391
	7.684305	47.5738
	7.685503	47.57309
	7.688913	47.57243
	7.689653	47.5714
	7.68889	47.57029
	7.687099	47.56838
	7.685919	47.56561
	7.683754	47.56835
	7.68342	47.56842
	7.683714	47.57054
	7.6835	47.57125
	7.681022	47.57043
	7.679101	47.5695
	7.678441	47.56896
	7.677682	47.56781
	7.676744	47.56698
	7.675144	47.56542
	7.67728	47.56493
	7.677316	47.56374
	7.675615	47.56348
	7.674453	47.56346
	7.672449	47.56373
	7.67231	47.565
	7.67236	47.56544
	7.670699	47.56581
	7.670219	47.56583
	7.667487	47.5653
	7.66555	47.56506
	7.664227	47.5654
	7.658752	47.56448
	7.656757	47.56313
	7.656156	47.56228
	7.654536	47.56237
	7.652642	47.56178
	7.650349	47.5609
	7.648276	47.55993
	7.646504	47.5605
	7.646065	47.56072
	7.64405	47.56128
	7.641259	47.56126
	7.640093	47.562
	7.63833	47.56323
	7.636119	47.56392
	7.633956	47.56122
	7.635454	47.56078
	7.636085	47.56051
	7.636707	47.56026
	7.637307	47.55996
	7.638619	47.55914
	7.639974	47.55816
	7.640643	47.55758
	7.641203	47.55705
	7.642604	47.55559
	7.643598	47.55449
	7.64468	47.55316
	7.645175	47.55258
	7.645876	47.55167
	7.64695	47.55018
	7.647468	47.5496
	7.648523	47.54865
	7.648995	47.5483
	7.650627	47.54732
	7.651701	47.54685
	7.652472	47.54658
	7.652922	47.54648
	7.653734	47.54637
	7.656536	47.54606
	7.658031	47.54593
	7.658694	47.5458
	7.659315	47.54564
	7.660001	47.54543
	7.66058	47.54522
	7.661309	47.54483
	7.661675	47.54452
	7.662302	47.54371
	7.662649	47.54303
	7.662892	47.54236
	7.663133	47.54153
	7.663504	47.54054
	7.663831	47.53988
	7.664826	47.53844
	7.665451	47.53782
	7.66586	47.53746
	7.666702	47.53676
	7.667971	47.53576
	7.66967	47.53522
	7.67376	47.534
	7.674674	47.53375
	7.677052	47.53318
	7.679215	47.53279
	7.681155	47.53274
	7.682682	47.53263
	7.68542	47.53261
	7.686184	47.53259
	7.687849	47.53259
	7.689609	47.53254
	7.693952	47.53248
	7.694939	47.5325
	7.696003	47.53267
	7.697336	47.53291
	7.698372	47.53335
	7.699033	47.5337
	7.699625	47.53396
	7.700578	47.53445
	7.701556	47.53489
	7.702666	47.53541
	7.703584	47.53582
	7.704586	47.53629
	7.70662	47.53719
	7.708217	47.53772
	7.70947	47.53818
	7.71068	47.53866
	7.712122	47.53915
	7.712938	47.53955
	7.71391	47.53998
	7.715559	47.54079
	7.716294	47.54102
	7.717229	47.54133
	7.717933	47.54159
	7.718748	47.54176
	7.720422	47.54203
	7.721401	47.54213
	7.722568	47.54215
	7.723855	47.54223
	7.725347	47.54242
	7.727598	47.54258
	7.729152	47.54267
	7.729933	47.54274
	7.732463	47.54281
	7.735726	47.54292
	7.741067	47.54339
	7.745844	47.54375
	7.75064	47.54428
	7.754142	47.54543
	7.754521	47.54572
	7.756106	47.54729
	7.757744	47.5482
	7.758975	47.54857
	7.764481	47.54984
	7.765105	47.55
	7.769144	47.5511
	7.77224	47.55205
	7.772836	47.55222
	7.773623	47.55236
	7.776629	47.55271
	7.778785	47.55281
	7.780279	47.55284
	7.781281	47.55292
	7.782135	47.55301
	7.782902	47.55314
	7.783751	47.55338
	7.785238	47.55391
	7.786109	47.55419
	7.78683	47.55438
	7.787385	47.55445
	7.788174	47.55452
	7.788557	47.55461
	7.788897	47.55475
	7.789236	47.55502
	7.789699	47.55518
	7.790247	47.55565
	7.79082	47.55591
	7.792989	47.55654
	7.794642	47.55716
	7.795685	47.55738
	7.795919	47.5575
	7.796149	47.55774
	7.796878	47.55882
	7.797426	47.55928
	7.798172	47.56061
	7.798609	47.56122
	7.798924	47.5616
	7.7997	47.56239
	7.8005	47.56306
	7.80301	47.56487
	7.804383	47.56569
	7.805337	47.56619
	7.807396	47.56699
	7.809387	47.56791
	7.810086	47.56831
	7.811117	47.56952
	7.811649	47.57029
	7.812356	47.57203
	7.812811	47.57346
	7.813043	47.57516
	7.813395	47.57681
	7.813882	47.57855
	7.814293	47.57953
	7.814863	47.58105
	7.815541	47.58262
	7.816331	47.58375
	7.816966	47.58476
	7.817824	47.5859
	7.818782	47.58688
	7.819034	47.58708
	7.819459	47.58727
	7.821991	47.58788
	7.822544	47.58799
	7.823313	47.58801
	7.825175	47.58787
	7.827232	47.58764
	7.830444	47.58714
	7.832384	47.58671
	7.832562	47.58669
	7.832728	47.58669
	7.832823	47.58671
	7.833099	47.58673
	7.833355	47.58669
	7.833471	47.58666
	7.833504	47.58664
	7.833602	47.58663
	7.833871	47.58653
	7.833981	47.58646
	7.834432	47.5861
	7.834504	47.58597
	7.834638	47.58581
	7.835296	47.58456
	7.835893	47.58396
	7.836418	47.58356
	7.837309	47.5831
	7.838563	47.58262
	7.840223	47.5822
	7.841061	47.58209
	7.842149	47.58217
	7.845162	47.58221
	7.84644	47.58232
	7.847229	47.58241
	7.848846	47.58267
	7.850505	47.58299
	7.851775	47.58333
	7.853512	47.58388
	7.854903	47.58452
	7.856989	47.58554
	7.857745	47.58596
	7.858768	47.58669
	7.859357	47.58702
	7.859863	47.58726
	7.860414	47.58744
	7.862006	47.58781
	7.863006	47.58799
	7.866349	47.58838
	7.868393	47.58867
	7.869397	47.58875
	7.87113	47.58875
	7.872542	47.58864
	7.875864	47.58846
	7.876699	47.58844
	7.88088	47.58871
	7.88199	47.58883
	7.883119	47.58892
	7.884618	47.5889
	7.885672	47.58872
	7.886166	47.58866
	7.886765	47.58862
	7.889734	47.58804
	7.890163	47.58795
	7.890725	47.58775
	7.891998	47.58742
	7.89267	47.58716
	7.893365	47.58681
	7.89406	47.58641
	7.895106	47.58576
	7.896543	47.5849
	7.897917	47.58401
	7.898839	47.5833
	7.899892	47.58243
	7.900437	47.58204
	7.900982	47.58174
	7.902675	47.58085
	7.903242	47.58046
	7.903966	47.57988
	7.904494	47.57938
	7.905156	47.57868
	7.905778	47.57792
	7.906371	47.57713
	7.90654	47.57694
	7.90814	47.5748
	7.909749	47.57248
	7.910645	47.57107
	7.911015	47.57015
	7.911304	47.56901
	7.911578	47.56774
	7.911477	47.56684
	7.911323	47.56626
	7.911082	47.56578
	7.910756	47.56524
	7.909764	47.56404
	7.908814	47.56302
	7.907963	47.56217
	7.907613	47.56167
	7.907411	47.56131
	7.907296	47.56092
	7.907224	47.56045
	7.907284	47.55916
	7.907619	47.55797
	7.908325	47.5558
	7.908739	47.55481
	7.909396	47.55356
	7.910247	47.55233
	7.911546	47.55099
	7.91262	47.55011
	7.913734	47.54937
	7.914995	47.54861
	7.916448	47.54792
	7.917936	47.54744
	7.919549	47.54705
	7.923985	47.5467
	7.924861	47.54666
	7.925626	47.54671
	7.927142	47.54686
	7.931051	47.54694
	7.931776	47.54698
	7.932525	47.54695
	7.93254	47.54694
	7.933511	47.5468
	7.934826	47.54646
	7.936487	47.54598
	7.937841	47.54545
	7.940915	47.54435
	7.942498	47.54405
	7.944265	47.54379
	7.945528	47.54377
	7.946293	47.54392
	7.946822	47.54407
	7.94724	47.54431
	7.947871	47.54472
	7.948556	47.54532
	7.949161	47.54597
	7.950017	47.5471
	7.950348	47.54757
	7.950958	47.5486
	7.951165	47.54909
	7.951335	47.54952
	7.951404	47.54985
	7.951492	47.55113
	7.951705	47.5525
	7.952073	47.55383
	7.952425	47.55454
	7.953102	47.55532
	7.953992	47.556
	7.954302	47.55621
	7.955564	47.55678
	7.956635	47.55715
	7.95818	47.55761
	7.959424	47.55793
	7.959725	47.55799
	7.959982	47.55801
	7.960282	47.55806
	7.961079	47.55803
	7.961744	47.5579
	7.963022	47.55761
	7.964722	47.55714
	7.965343	47.55694
	7.967302	47.55642
	7.9697	47.55594
	7.972352	47.55556
	7.974373	47.55537
	7.978113	47.55515
	7.980552	47.55509
	7.982986	47.55519
	7.984456	47.55531
	7.987016	47.55558
	7.990273	47.556
	7.992172	47.55619
	7.993985	47.55633
	7.996591	47.55648
	7.999118	47.55649
	7.999354	47.55647
	8.000378	47.55643
	8.000891	47.55636
	8.002732	47.556
	8.005936	47.55531
	8.006803	47.55509
	8.007384	47.55492
	8.008102	47.55459
	8.009864	47.55342
	8.010899	47.55283
	8.011976	47.55229
	8.013244	47.55172
	8.013976	47.55145
	8.014984	47.5511
	8.015671	47.55094
	8.017597	47.55064
	8.020716	47.55041
	8.021484	47.55042
	8.022593	47.5505
	8.023106	47.55058
	8.023442	47.55068
	8.023821	47.55087
	8.024879	47.55136
	8.025348	47.55151
	8.026283	47.55172
	8.027558	47.55195
	8.029365	47.55212
	8.033682	47.55255
	8.036664	47.55291
	8.038929	47.55326
	8.040249	47.55353
	8.040779	47.55367
	8.042538	47.55432
	8.043494	47.5546
	8.045269	47.55506
	8.046106	47.55531
	8.04687	47.55561
	8.047356	47.55586
	8.048323	47.55651
	8.050798	47.55797
	8.051412	47.55816
	8.05224	47.55849
	8.052619	47.55867
	8.053002	47.55889
	8.053233	47.55909
	8.054728	47.56019
	8.05587	47.5607
	8.056291	47.56095
	8.057852	47.56168
	8.058028	47.56185
	8.058236	47.5621
	8.058316	47.56238
	8.058481	47.56273
	8.058921	47.56318
	8.059703	47.56368
	8.059938	47.56372
	8.060359	47.56367
	8.06219	47.56317
	8.062444	47.56315
	8.062828	47.56319
	8.064165	47.5636
	8.065205	47.56397
	8.065842	47.56422
	8.067203	47.5645
	8.067777	47.56459
	8.069532	47.56448
	8.070622	47.56427
	8.071096	47.56414
	8.07174	47.56386
	8.072171	47.56359
	8.073238	47.56272
	8.074622	47.56174
	8.075224	47.56123
	8.07639	47.56047
	8.078308	47.55934
	8.07958	47.55867
	8.080268	47.55837
	8.081279	47.55805
	8.08321	47.55751
	8.083808	47.55743
	8.084576	47.55738
	8.086113	47.55737
	8.088503	47.55752
	8.089356	47.55763
	8.09025	47.55783
	8.091309	47.55817
	8.091806	47.55836
	8.092709	47.55873
	8.093725	47.55924
	8.095061	47.5598
	8.09593	47.56024
	8.097661	47.56128
	8.098358	47.56178
	8.098905	47.56222
	8.099305	47.56263
	8.099616	47.56307
	8.100824	47.56492
	8.101135	47.56551
	8.101544	47.56661
	8.101661	47.56732
	8.102061	47.56893
	8.102097	47.56928
	8.102309	47.57058
	8.102382	47.57132
	8.102423	47.57271
	8.102407	47.57365
	8.10252	47.57455
	8.102801	47.57564
	8.103069	47.57625
	8.103693	47.5772
	8.104739	47.57853
	8.105451	47.57929
	8.106189	47.58002
	8.106776	47.58047
	8.109269	47.58225
	8.110141	47.58275
	8.110689	47.58295
	8.11245	47.58348
	8.113984	47.58372
	8.11597	47.58387
	8.117571	47.58391
	8.120608	47.58366
	8.124676	47.58327
	8.125489	47.58323
	8.126886	47.58324
	8.12775	47.58328
	8.128327	47.58334
	8.129116	47.58346
	8.13059	47.58352
	8.133817	47.5834
	8.134372	47.58342
	8.134904	47.58349
	8.135779	47.58369
	8.136289	47.58385
	8.136628	47.58404
	8.137071	47.58439
	8.138119	47.58562
	8.138159	47.58578
	8.138101	47.58674
	8.138011	47.587
	8.13777	47.58739
	8.137498	47.58824
	8.137449	47.5887
	8.137482	47.58923
	8.137646	47.58977
	8.137875	47.59019
	8.13821	47.59058
	8.13863	47.59092
	8.139246	47.59125
	8.140158	47.59164
	8.141305	47.59198
	8.143577	47.59284
	8.14394	47.59302
	8.145801	47.59424
	8.146287	47.5945
	8.148072	47.59517
	8.148732	47.59533
	8.149436	47.59545
	8.149987	47.59548
	8.151975	47.59572
	8.152359	47.59574
	8.152979	47.59571
	8.153838	47.59556
	8.154954	47.59528
	8.15581	47.59516
	8.156258	47.59506
	8.158365	47.59448
	8.15903	47.59425
	8.160383	47.59392
	8.161069	47.5938
	8.16169	47.59375
	8.163078	47.5938
	8.16361	47.59388
	8.164313	47.59406
	8.164972	47.5943
	8.165823	47.5947
	8.167582	47.59545
	8.168109	47.59573
	8.168615	47.59612
	8.16937	47.59684
	8.170771	47.5981
	8.17148	47.599
	8.171657	47.5995
	8.171883	47.59984
	8.172483	47.6004
	8.173353	47.60114
	8.173973	47.60161
	8.174492	47.60189
	8.175406	47.60228
	8.176528	47.60269
	8.177832	47.60309
	8.179414	47.60341
	8.180164	47.60344
	8.181243	47.60353
	8.182137	47.60374
	8.183136	47.60405
	8.183863	47.60436
	8.184546	47.60472
	8.185332	47.60531
	8.186365	47.60633
	8.187316	47.60751
	8.190124	47.61174
	8.190476	47.61218
	8.191062	47.6128
	8.192148	47.61453
	8.192289	47.61473
	8.192761	47.61526
	8.193124	47.61561
	8.195651	47.61749
	8.1971	47.61864
	8.197575	47.61894
	8.198201	47.61924
	8.199358	47.61971
	8.200104	47.62
	8.201166	47.62035
	8.202498	47.62069
	8.203	47.62078
	8.205364	47.62106
	8.20631	47.62111
	8.207333	47.62111
	8.208268	47.62106
	8.209423	47.62098
	8.21057	47.62084
	8.211423	47.6207
	8.21214	47.62057
	8.213223	47.62031
	8.214776	47.61984
	8.215162	47.61971
	8.216111	47.61937
	8.21729	47.61891
	8.217484	47.61882
	8.21819	47.61845
	8.21883	47.61809
	8.219644	47.61757
	8.220067	47.61727
	8.220372	47.61701
	8.220511	47.61686
	8.22083	47.61645
	8.220954	47.61625
	8.221533	47.61523
	8.221983	47.61427
	8.22219	47.61376
	8.223033	47.61149
	8.223382	47.60978
	8.223617	47.60814
	8.223686	47.60775
	8.223767	47.60743
	8.223849	47.60721
	8.224033	47.6068
	8.224306	47.60639
	8.224505	47.60615
	8.224804	47.60587
	8.224997	47.60573
	8.225587	47.60538
	8.225807	47.60528
	8.226121	47.60518
	8.226592	47.60507
	8.226966	47.60502
	8.227223	47.60501
	8.22762	47.60504
	8.227887	47.60508
	8.228699	47.60531
	8.229129	47.60547
	8.229469	47.60563
	8.229834	47.60584
	8.230494	47.60632
	8.231167	47.60687
	8.232375	47.6079
	8.233822	47.60906
	8.23435	47.60941
	8.235205	47.61022
	8.235972	47.61089
	8.236163	47.61113
	8.236468	47.61164
	8.236643	47.61187
	8.236952	47.61214
	8.237461	47.61245
	8.23768	47.61255
	8.237922	47.61264
	8.238374	47.61276
	8.238708	47.61282
	8.238893	47.61283
	8.239354	47.61283
	8.23977	47.61279
	8.240155	47.61271
	8.240717	47.61255
	8.241282	47.61245
	8.241803	47.61242
	8.242426	47.61244
	8.243156	47.61249
	8.244776	47.61247
	8.245258	47.61253
	8.245523	47.61258
	8.246208	47.61275
	8.248875	47.61334
	8.25115	47.61398
	8.25275	47.61464
	8.253872	47.61491
	8.25529	47.61519
	8.256912	47.61532
	8.257743	47.61529
	8.258451	47.61532
	8.258868	47.61527
	8.259743	47.6151
	8.260159	47.61495
	8.260514	47.61471
	8.260745	47.61451
	8.260995	47.61406
	8.261164	47.61359
	8.261415	47.61328
	8.261544	47.61258
	8.2619	47.61196
	8.262592	47.61101
	8.263073	47.61017
	8.263262	47.60991
	8.263554	47.60974
	8.264468	47.60945
	8.265053	47.60939
	8.266155	47.60943
	8.268089	47.6097
	8.27127	47.60999
	8.271788	47.61011
	8.27447	47.61088
	8.276361	47.6113
	8.277587	47.61151
	8.278605	47.61162
	8.279333	47.61165
	8.279956	47.61164
	8.284349	47.6112
	8.285181	47.61105
	8.286535	47.61075
	8.2887	47.6102
	8.28934	47.60997
	8.291923	47.609
	8.294554	47.60784
	8.296891	47.60633
	8.297307	47.606
	8.297515	47.60574
	8.297643	47.60532
	8.297728	47.60476
	8.297731	47.60439
	8.297609	47.60383
	8.29734	47.60319
	8.296347	47.59893
	8.295791	47.5972
	8.295577	47.59632
	8.295502	47.59611
	8.295389	47.59555
	8.295298	47.59438
	8.295282	47.59369
	8.295532	47.59252
	8.2958	47.59195
	8.296044	47.59156
	8.296321	47.59116
	8.297053	47.59019
	8.297363	47.5897
	8.29806	47.58889
	8.299062	47.58799
	8.299882	47.58745
	8.300826	47.58687
	8.302237	47.58613
	8.302622	47.58596
	8.30343	47.58563
	8.305208	47.58504
	8.307236	47.5846
	8.307421	47.58457
	8.308793	47.58423
	8.309611	47.58398
	8.310256	47.58368
	8.311203	47.5831
	8.312507	47.58227
	8.313721	47.58135
	8.314677	47.58056
	8.315636	47.57963
	8.316396	47.57884
	8.318378	47.57693
	8.320618	47.57495
	8.32181	47.57405
	8.322612	47.5735
	8.324014	47.57277
	8.324983	47.57237
	8.327499	47.57148
	8.328101	47.57131
	8.328573	47.57121
	8.329627	47.5709
	8.330056	47.57082
	8.330502	47.57081
	8.330845	47.57077
	8.331168	47.57066
	8.332587	47.57045
	8.336003	47.5703
	8.339208	47.57031
	8.342626	47.57042
	8.345209	47.57061
	8.348708	47.57068
	8.350749	47.57053
	8.353036	47.57033
	8.354024	47.57031
	8.356201	47.57004
	8.358242	47.57001
	8.359989	47.56974
	8.3644	47.56872
	8.366025	47.56857
	8.368896	47.56839
	8.372352	47.56809
	8.378144	47.56698
	8.378718	47.56686
	8.380048	47.56646
	8.381791	47.56567
	8.382541	47.56535
	8.383123	47.56527
	8.383872	47.56538
	8.384917	47.5658
	8.385669	47.5663
	8.386173	47.56687
	8.386633	47.56757
	8.387391	47.56893
	8.388234	47.57091
	8.388654	47.57169
	8.389299	47.57251
	8.389869	47.57313
	8.39108	47.574
	8.39384	47.57582
	8.394885	47.57642
	8.396095	47.57681
	8.39747	47.57703
	8.398345	47.57705
	8.399595	47.57691
	8.40298	47.57593
	8.405706	47.57506
	8.406952	47.57465
	8.40791	47.5742
	8.413515	47.57139
	8.414888	47.57088
	8.417338	47.57014
	8.418926	47.56978
	8.420501	47.56939
	8.4219	47.56898
	8.423839	47.56848
	8.425633	47.56784
	8.423564	47.56644
	8.418736	47.56516
	8.418469	47.56482
	8.418338	47.56453
	8.418306	47.56427
	8.418466	47.56401
	8.418448	47.5639
	8.417498	47.56234
	8.416864	47.56093
	8.417851	47.56072
	8.417552	47.56005
	8.417827	47.55947
	8.417879	47.5591
	8.417675	47.55846
	8.416893	47.55804
	8.416377	47.55791
	8.416303	47.55785
	8.416293	47.5577
	8.416388	47.55747
	8.416365	47.55731
	8.415614	47.5557
	8.414918	47.55487
	8.414689	47.55425
	8.414436	47.55389
	8.414533	47.55348
	8.414763	47.55317
	8.41481	47.55302
	8.414781	47.55275
	8.414525	47.55216
	8.4146	47.552
	8.415066	47.55163
	8.415584	47.55101
	8.415742	47.55104
	8.416497	47.5505
	8.416926	47.55027
	8.416741	47.55016
	8.416189	47.54995
	8.415456	47.54935
	8.41522	47.54889
	8.415052	47.54839
	8.41552	47.54772
	8.417262	47.54605
	8.417392	47.54589
	8.415678	47.54606
	8.415195	47.54603
	8.412698	47.54625
	8.412692	47.54599
	8.412539	47.5457
	8.411417	47.54568
	8.411549	47.54592
	8.411542	47.54602
	8.41144	47.54611
	8.411293	47.54614
	8.41112	47.5461
	8.410965	47.54577
	8.4104	47.54549
	8.409766	47.54475
	8.408685	47.54388
	8.408648	47.54378
	8.408795	47.54355
	8.408726	47.54344
	8.408519	47.5434
	8.408455	47.54342
	8.408428	47.54352
	8.408306	47.54352
	8.408267	47.5437
	8.408216	47.54372
	8.407721	47.54361
	8.407492	47.5435
	8.407416	47.54332
	8.407374	47.5427
	8.407324	47.54257
	8.406906	47.54215
	8.406961	47.54182
	8.406883	47.54166
	8.406726	47.5416
	8.406543	47.54167
	8.406399	47.54199
	8.405388	47.54189
	8.406157	47.54134
	8.405767	47.54079
	8.406047	47.54035
	8.405872	47.54021
	8.406064	47.53964
	8.406124	47.53924
	8.406217	47.53889
	8.405811	47.53702
	8.405735	47.53693
	8.404846	47.53634
	8.404713	47.5363
	8.404059	47.5362
	8.403897	47.5362
	8.403269	47.53631
	8.403091	47.53637
	8.403365	47.53607
	8.403526	47.5357
	8.404052	47.53527
	8.404269	47.5349
	8.404416	47.53432
	8.404025	47.53393
	8.403938	47.53379
	8.403917	47.53351
	8.403837	47.53345
	8.403233	47.53344
	8.402817	47.53337
	8.402558	47.53324
	8.400362	47.53323
	8.399467	47.53303
	8.398998	47.53298
	8.398329	47.53279
	8.398401	47.53265
	8.398294	47.53255
	8.398144	47.53255
	8.397895	47.53266
	8.397697	47.53265
	8.396727	47.5323
	8.395613	47.53207
	8.395077	47.53176
	8.394843	47.53148
	8.394969	47.53059
	8.395135	47.53019
	8.395119	47.52914
	8.395322	47.52861
	8.395486	47.52845
	8.395717	47.52832
	8.394652	47.5274
	8.393312	47.52572
	8.392052	47.52514
	8.392064	47.52539
	8.391009	47.52609
	8.390645	47.52627
	8.39025	47.52634
	8.389531	47.52629
	8.388877	47.52631
	8.389317	47.52698
	8.389656	47.52714
	8.389814	47.52734
	8.389535	47.52751
	8.388934	47.52763
	8.388695	47.52775
	8.388118	47.52826
	8.387495	47.52829
	8.386919	47.5286
	8.38664	47.52887
	8.386295	47.52878
	8.385115	47.52865
	8.384191	47.5282
	8.383521	47.52769
	8.382409	47.52655
	8.38215	47.52628
	8.381619	47.52555
	8.381387	47.52491
	8.381387	47.524
	8.381294	47.52301
	8.381093	47.52188
	8.380931	47.52125
	8.380424	47.51996
	8.380573	47.51849
	8.38036	47.51597
	8.379258	47.51588
	8.379637	47.51491
	8.379634	47.51482
	8.379348	47.51437
	8.378788	47.51367
	8.377602	47.513
	8.377045	47.51239
	8.376464	47.51248
	8.374651	47.51218
	8.374286	47.51163
	8.374146	47.51158
	8.374207	47.51149
	8.374083	47.51112
	8.373783	47.51102
	8.373622	47.51102
	8.372227	47.51141
	8.371583	47.51179
	8.371027	47.5115
	8.370716	47.51167
	8.370395	47.5115
	8.368958	47.51218
	8.368559	47.51201
	8.368514	47.51193
	8.367354	47.51221
	8.367216	47.51207
	8.368361	47.51154
	8.368188	47.51119
	8.366561	47.51155
	8.366205	47.51081
	8.366092	47.51085
	8.365957	47.51088
	8.365841	47.51089
	8.363695	47.51091
	8.36353	47.51088
	8.363259	47.51081
	8.362241	47.51038
	8.361808	47.51029
	8.361221	47.5101
	8.360904	47.50957
	8.360845	47.50888
	8.361638	47.50782
	8.360582	47.50704
	8.35941	47.50642
	8.359039	47.50608
	8.358868	47.50575
	8.358819	47.50535
	8.358892	47.50504
	8.359154	47.50451
	8.358931	47.50408
	8.358428	47.50349
	8.358684	47.50303
	8.35768	47.50253
	8.357833	47.50247
	8.358567	47.50128
	8.358882	47.50104
	8.359221	47.5009
	8.359789	47.50082
	8.360121	47.50084
	8.363048	47.50119
	8.363092	47.50114
	8.362799	47.50072
	8.362746	47.50012
	8.362149	47.49956
	8.361319	47.49923
	8.360616	47.49887
	8.360236	47.49863
	8.359541	47.49805
	8.358431	47.49748
	8.35827	47.49748
	8.359054	47.49693
	8.36007	47.49638
	8.360411	47.4961
	8.360839	47.49561
	8.361069	47.49518
	8.36128	47.49424
	8.361312	47.49387
	8.361244	47.4935
	8.361658	47.49254
	8.361886	47.49141
	8.362184	47.49106
	8.362223	47.49104
	8.362269	47.49099
	8.362508	47.49086
	8.362647	47.4906
	8.362655	47.49043
	8.362453	47.48964
	8.362064	47.48854
	8.362276	47.48821
	8.362088	47.48757
	8.36199	47.48575
	8.362548	47.48391
	8.362526	47.48369
	8.362751	47.48323
	8.362749	47.48291
	8.363018	47.48163
	8.363263	47.48086
	8.364957	47.48103
	8.37108	47.48129
	8.373254	47.48147
	8.374186	47.48046
	8.374061	47.47863
	8.374099	47.47815
	8.373984	47.4778
	8.373722	47.47554
	8.373585	47.47486
	8.374103	47.47428
	8.374298	47.47301
	8.375281	47.47164
	8.375314	47.47114
	8.373746	47.47077
	8.372595	47.47028
	8.3718	47.47014
	8.37137	47.47014
	8.370149	47.47044
	8.369632	47.47044
	8.368764	47.47035
	8.368033	47.47042
	8.367774	47.47035
	8.367135	47.4698
	8.366908	47.46971
	8.366388	47.46961
	8.366297	47.4695
	8.366376	47.46941
	8.366628	47.46935
	8.367543	47.46941
	8.367778	47.46934
	8.367943	47.46924
	8.368063	47.46897
	8.367994	47.46858
	8.367828	47.46818
	8.367732	47.46808
	8.367578	47.46802
	8.366616	47.46791
	8.365765	47.46753
	8.365936	47.46701
	8.365673	47.46621
	8.367206	47.46575
	8.367383	47.46623
	8.368841	47.4658
	8.368851	47.46535
	8.369438	47.46534
	8.369388	47.46484
	8.369679	47.46388
	8.369796	47.46391
	8.369816	47.46388
	8.369705	47.4638
	8.369523	47.4634
	8.370653	47.4624
	8.37099	47.46192
	8.371005	47.46179
	8.372138	47.46107
	8.372622	47.46012
	8.372766	47.45958
	8.372763	47.45931
	8.372832	47.45918
	8.374303	47.45936
	8.377851	47.45949
	8.378089	47.45933
	8.378873	47.45927
	8.378988	47.45917
	8.379135	47.45798
	8.37936	47.45733
	8.380066	47.45648
	8.380185	47.45614
	8.380302	47.4562
	8.382722	47.45633
	8.382901	47.45624
	8.383098	47.45513
	8.382994	47.45501
	8.384415	47.45491
	8.38429	47.45388
	8.384811	47.45408
	8.384927	47.45388
	8.385096	47.45381
	8.384999	47.45379
	8.384911	47.45367
	8.385686	47.45157
	8.386652	47.44973
	8.386805	47.4497
	8.386893	47.4496
	8.38662	47.44949
	8.385811	47.44926
	8.38175	47.4487
	8.382155	47.44647
	8.382092	47.44643
	8.381006	47.44637
	8.381026	47.44627
	8.381114	47.44623
	8.381668	47.44414
	8.381902	47.44245
	8.381998	47.44217
	8.382001	47.44214
	8.381894	47.44215
	8.381864	47.44169
	8.381869	47.44086
	8.38195	47.44049
	8.382451	47.44041
	8.382859	47.44024
	8.38346	47.4401
	8.383734	47.43998
	8.384459	47.43839
	8.383955	47.43832
	8.383825	47.43823
	8.383981	47.4373
	8.384059	47.43721
	8.384587	47.4369
	8.385033	47.43673
	8.385102	47.43631
	8.385027	47.43594
	8.384483	47.4353
	8.384129	47.43502
	8.383923	47.43495
	8.383984	47.43456
	8.383288	47.43365
	8.382858	47.43291
	8.381031	47.43331
	8.380838	47.43276
	8.379266	47.43311
	8.379205	47.43305
	8.379091	47.43308
	8.378139	47.4334
	8.377085	47.43383
	8.376577	47.43331
	8.376172	47.43349
	8.375746	47.43279
	8.375201	47.43232
	8.374653	47.43225
	8.374687	47.43209
	8.37502	47.43119
	8.375068	47.43067
	8.375659	47.43011
	8.375987	47.4299
	8.377251	47.42941
	8.378114	47.42922
	8.380135	47.42905
	8.383252	47.4281
	8.385176	47.42796
	8.387621	47.42796
	8.387578	47.42758
	8.387942	47.42676
	8.388528	47.42597
	8.389011	47.42548
	8.38896	47.42543
	8.388999	47.42529
	8.389263	47.42511
	8.389455	47.42511
	8.390225	47.42448
	8.390583	47.42414
	8.390632	47.42405
	8.390597	47.42396
	8.39086	47.42375
	8.390984	47.42374
	8.391167	47.42362
	8.391857	47.4228
	8.392228	47.42188
	8.392254	47.42144
	8.39218	47.42098
	8.391873	47.42031
	8.391441	47.41977
	8.387538	47.41636
	8.386723	47.41676
	8.383791	47.41803
	8.381749	47.41627
	8.384602	47.41474
	8.38454	47.41469
	8.384954	47.41447
	8.385246	47.41442
	8.38537	47.41448
	8.383405	47.41278
	8.383166	47.4128
	8.382542	47.41306
	8.38235	47.41286
	8.383085	47.41253
	8.381981	47.41157
	8.38161	47.41118
	8.381324	47.41076
	8.381145	47.41031
	8.381079	47.40984
	8.381128	47.40938
	8.38129	47.40892
	8.38156	47.40849
	8.38193	47.4081
	8.382367	47.40775
	8.384611	47.40622
	8.384145	47.40591
	8.383933	47.40559
	8.382683	47.40478
	8.382691	47.40443
	8.382508	47.40418
	8.382019	47.40398
	8.382105	47.40373
	8.381994	47.40352
	8.381185	47.4032
	8.381234	47.40306
	8.380957	47.40298
	8.380028	47.40301
	8.380147	47.40273
	8.379243	47.40241
	8.379113	47.40256
	8.377965	47.40338
	8.377531	47.40348
	8.377261	47.40391
	8.376169	47.4048
	8.373795	47.40448
	8.370596	47.40382
	8.369666	47.40354
	8.369077	47.40332
	8.368484	47.40248
	8.368406	47.40224
	8.368189	47.40229
	8.367985	47.40227
	8.367791	47.40217
	8.368037	47.40141
	8.36798	47.40133
	8.367717	47.40118
	8.367427	47.40074
	8.366338	47.40187
	8.365818	47.40251
	8.364891	47.40229
	8.362698	47.40231
	8.362484	47.40232
	8.362745	47.40161
	8.363278	47.401
	8.363838	47.40065
	8.364247	47.40056
	8.364408	47.40043
	8.365065	47.39982
	8.365035	47.39952
	8.365826	47.39907
	8.366376	47.39882
	8.367073	47.39902
	8.367253	47.39899
	8.367446	47.39881
	8.36779	47.39894
	8.368045	47.39896
	8.368441	47.39915
	8.368843	47.39926
	8.369165	47.39913
	8.369634	47.3991
	8.370643	47.39921
	8.371323	47.39912
	8.372436	47.39912
	8.372847	47.39896
	8.373409	47.39897
	8.374062	47.39904
	8.375278	47.39936
	8.376291	47.40001
	8.376789	47.39996
	8.377609	47.39999
	8.377884	47.3999
	8.37822	47.39964
	8.378469	47.40005
	8.379337	47.39991
	8.379899	47.39963
	8.380553	47.39894
	8.380716	47.39863
	8.380562	47.39847
	8.380509	47.39828
	8.380867	47.39814
	8.381157	47.39787
	8.381597	47.39723
	8.382001	47.39695
	8.382631	47.39662
	8.382808	47.39607
	8.382832	47.3958
	8.382476	47.39541
	8.382863	47.39506
	8.383139	47.39458
	8.383522	47.39526
	8.383699	47.39537
	8.384041	47.39536
	8.384611	47.39521
	8.384967	47.39518
	8.385775	47.39525
	8.386304	47.39522
	8.386474	47.39526
	8.386979	47.39556
	8.38742	47.39567
	8.387976	47.39564
	8.388985	47.39525
	8.389298	47.39506
	8.389751	47.39465
	8.39026	47.39487
	8.390539	47.39518
	8.39103	47.39554
	8.3919	47.39584
	8.39245	47.39557
	8.392543	47.39542
	8.392603	47.39545
	8.393061	47.39488
	8.393608	47.39499
	8.393895	47.39498
	8.394393	47.39453
	8.394571	47.39428
	8.394767	47.39352
	8.395022	47.39357
	8.395097	47.39352
	8.395344	47.39351
	8.395583	47.39366
	8.395986	47.39371
	8.396342	47.39382
	8.39612	47.39414
	8.396462	47.39399
	8.396622	47.39373
	8.39663	47.3936
	8.39617	47.39311
	8.396165	47.39296
	8.396442	47.39263
	8.396008	47.39184
	8.395756	47.39155
	8.395456	47.39142
	8.395189	47.39139
	8.394501	47.39143
	8.394153	47.39131
	8.39402	47.39116
	8.39408	47.39103
	8.394908	47.39016
	8.394889	47.39008
	8.394681	47.38998
	8.39479	47.3897
	8.394749	47.38938
	8.394827	47.3889
	8.394791	47.38821
	8.394889	47.38781
	8.39513	47.38758
	8.395071	47.38756
	8.394884	47.38709
	8.394953	47.38683
	8.395174	47.38656
	8.39535	47.38618
	8.395346	47.38595
	8.395185	47.38575
	8.39479	47.38551
	8.394753	47.3853
	8.394984	47.38486
	8.395071	47.38437
	8.394909	47.38385
	8.39485	47.38327
	8.395111	47.3828
	8.395082	47.38234
	8.395441	47.38173
	8.394962	47.38119
	8.394937	47.38072
	8.39513	47.38042
	8.39547	47.38029
	8.395606	47.38016
	8.396003	47.37969
	8.396098	47.37937
	8.396551	47.37906
	8.396638	47.37887
	8.396517	47.37852
	8.396486	47.37796
	8.396643	47.37776
	8.396639	47.37766
	8.396393	47.37737
	8.39638	47.37704
	8.396754	47.37664
	8.397099	47.37669
	8.397416	47.37599
	8.397646	47.37585
	8.398312	47.37512
	8.399186	47.37477
	8.399522	47.37482
	8.399589	47.37478
	8.399743	47.37462
	8.400246	47.37429
	8.400434	47.37423
	8.400763	47.3742
	8.400669	47.37404
	8.400478	47.37391
	8.40042	47.37369
	8.40029	47.37351
	8.400018	47.37327
	8.400041	47.37296
	8.400314	47.37296
	8.400264	47.37243
	8.400546	47.37152
	8.40033	47.37119
	8.400359	47.37052
	8.400572	47.37053
	8.401328	47.37045
	8.401866	47.37065
	8.402046	47.3706
	8.402237	47.37041
	8.402373	47.37041
	8.402617	47.37017
	8.402966	47.37
	8.407031	47.37023
	8.407376	47.36995
	8.407839	47.36977
	8.407636	47.36937
	8.40709	47.36879
	8.407118	47.36843
	8.407282	47.36787
	8.407664	47.36757
	8.407971	47.36724
	8.408191	47.36665
	8.407289	47.36642
	8.406734	47.36612
	8.406338	47.36597
	8.405611	47.36527
	8.405386	47.36498
	8.405269	47.3644
	8.40531	47.36427
	8.404928	47.3641
	8.405041	47.36403
	8.405493	47.36363
	8.405838	47.36315
	8.406082	47.36291
	8.406459	47.36228
	8.406708	47.36177
	8.406847	47.36131
	8.406736	47.36046
	8.406782	47.36011
	8.407262	47.36002
	8.40716	47.35984
	8.407022	47.35853
	8.406773	47.35799
	8.406967	47.35758
	8.407352	47.35705
	8.40738	47.35598
	8.407299	47.35569
	8.407365	47.35555
	8.407616	47.35539
	8.408289	47.35523
	8.409272	47.35507
	8.408335	47.35356
	8.407022	47.35224
	8.406968	47.3521
	8.406758	47.35189
	8.405767	47.35109
	8.405635	47.35043
	8.405676	47.3493
	8.405576	47.34884
	8.404658	47.34796
	8.404339	47.34757
	8.404023	47.34712
	8.403861	47.34657
	8.404915	47.34518
	8.404778	47.34498
	8.405315	47.34472
	8.405847	47.34458
	8.405891	47.34461
	8.406075	47.3443
	8.406673	47.34403
	8.406507	47.34338
	8.406315	47.34306
	8.406414	47.34301
	8.406711	47.34307
	8.406942	47.34229
	8.40777	47.34235
	8.407309	47.34158
	8.408465	47.34132
	8.4096	47.34055
	8.41021	47.34037
	8.410537	47.34022
	8.410856	47.33987
	8.410819	47.33986
	8.41138	47.3391
	8.411364	47.33886
	8.411468	47.33879
	8.412202	47.33878
	8.411999	47.33823
	8.412869	47.33846
	8.413334	47.33828
	8.413711	47.33804
	8.413736	47.33794
	8.413649	47.33779
	8.414172	47.33748
	8.414447	47.33723
	8.414746	47.33684
	8.414979	47.33689
	8.415249	47.33704
	8.41553	47.3371
	8.416049	47.33708
	8.416361	47.33712
	8.416378	47.33712
	8.416449	47.33701
	8.416618	47.33688
	8.41661	47.3366
	8.416384	47.33623
	8.416132	47.3361
	8.416131	47.33591
	8.416033	47.33591
	8.415963	47.33576
	8.415861	47.33571
	8.41592	47.33552
	8.416269	47.33515
	8.416549	47.3346
	8.416759	47.33439
	8.416802	47.33426
	8.416725	47.33381
	8.413947	47.3307
	8.413684	47.32962
	8.413387	47.32872
	8.412577	47.32856
	8.412574	47.32801
	8.412412	47.32774
	8.412418	47.32713
	8.412626	47.32687
	8.413196	47.3264
	8.413835	47.32621
	8.414167	47.32618
	8.41439	47.32634
	8.414994	47.32632
	8.415241	47.32626
	8.415316	47.32605
	8.415498	47.32586
	8.415613	47.32542
	8.415584	47.32506
	8.415692	47.32487
	8.415784	47.32475
	8.41628	47.32446
	8.417659	47.32466
	8.419028	47.32473
	8.420067	47.32511
	8.421076	47.32528
	8.420898	47.32543
	8.423422	47.32611
	8.424887	47.3264
	8.427651	47.32662
	8.428624	47.32696
	8.429428	47.32736
	8.431241	47.32653
	8.431587	47.32697
	8.43166	47.32698
	8.434765	47.32532
	8.435476	47.32575
	8.436716	47.32675
	8.439202	47.32706
	8.43953	47.32705
	8.439801	47.32734
	8.440586	47.32765
	8.440939	47.32755
	8.441123	47.32731
	8.441319	47.3272
	8.442073	47.32742
	8.442475	47.32806
	8.442757	47.32836
	8.442791	47.32834
	8.44353	47.32922
	8.443714	47.32916
	8.443772	47.32908
	8.444348	47.32894
	8.444984	47.32937
	8.446239	47.32981
	8.447141	47.33004
	8.448097	47.33016
	8.448507	47.33026
	8.449842	47.33049
	8.449964	47.33111
	8.450501	47.33207
	8.450876	47.33261
	8.451035	47.33328
	8.450994	47.33363
	8.452955	47.33326
	8.453264	47.3339
	8.454111	47.33475
	8.454711	47.33439
	8.4551	47.33409
	8.455075	47.33383
	8.454953	47.33341
	8.454731	47.33301
	8.453725	47.33165
	8.451541	47.32914
	8.452403	47.3287
	8.449891	47.32698
	8.449996	47.32692
	8.448506	47.32598
	8.448883	47.32581
	8.44941	47.32566
	8.449715	47.32563
	8.449953	47.32551
	8.449312	47.32477
	8.448607	47.32427
	8.449159	47.32335
	8.448089	47.32299
	8.448364	47.32285
	8.447996	47.32228
	8.447653	47.32193
	8.446826	47.3216
	8.446658	47.32161
	8.445785	47.32
	8.444776	47.31947
	8.444094	47.31929
	8.444072	47.31923
	8.443	47.31873
	8.442377	47.31837
	8.442301	47.31841
	8.441977	47.31824
	8.441193	47.31795
	8.440515	47.31785
	8.440476	47.31759
	8.440668	47.3174
	8.440668	47.31717
	8.441044	47.31667
	8.441115	47.31632
	8.441353	47.31596
	8.441308	47.31588
	8.441311	47.31583
	8.440515	47.31574
	8.439397	47.31543
	8.439228	47.31534
	8.438395	47.31516
	8.43801	47.31514
	8.437776	47.3152
	8.437584	47.31517
	8.437131	47.3153
	8.437063	47.3153
	8.437029	47.31525
	8.436473	47.31528
	8.43631	47.31525
	8.436204	47.3152
	8.436201	47.31472
	8.435954	47.31416
	8.435555	47.31382
	8.434563	47.31335
	8.433594	47.31264
	8.432721	47.31217
	8.432292	47.31184
	8.432043	47.31155
	8.431923	47.31105
	8.43179	47.31079
	8.431967	47.31059
	8.432144	47.30927
	8.432187	47.30867
	8.432069	47.30838
	8.43184	47.30829
	8.431189	47.30792
	8.431158	47.308
	8.431057	47.30817
	8.430689	47.30862
	8.430556	47.30874
	8.430159	47.30903
	8.429742	47.30925
	8.429402	47.30967
	8.428079	47.31113
	8.427968	47.31133
	8.427788	47.3116
	8.427443	47.31204
	8.426999	47.31252
	8.426478	47.31301
	8.42626	47.31328
	8.425852	47.31369
	8.425485	47.31399
	8.425042	47.31432
	8.42472	47.3148
	8.424024	47.31602
	8.423585	47.31667
	8.423363	47.31705
	8.423138	47.31745
	8.422751	47.31826
	8.422377	47.31891
	8.422096	47.31946
	8.419403	47.32033
	8.418537	47.31764
	8.418881	47.31697
	8.419223	47.31637
	8.419309	47.31617
	8.419629	47.31553
	8.420155	47.31461
	8.420669	47.31384
	8.421013	47.3132
	8.421368	47.31261
	8.421886	47.31185
	8.421988	47.31172
	8.422245	47.31144
	8.422568	47.31117
	8.423148	47.31074
	8.423233	47.31066
	8.423457	47.31038
	8.423654	47.31017
	8.424148	47.30971
	8.424361	47.30949
	8.424545	47.30926
	8.424765	47.30889
	8.424997	47.30858
	8.426398	47.30703
	8.426753	47.30659
	8.426934	47.30639
	8.427118	47.30622
	8.427482	47.30594
	8.427615	47.30586
	8.427649	47.30568
	8.427872	47.30507
	8.427956	47.30493
	8.42855	47.30427
	8.428914	47.30402
	8.429267	47.3038
	8.429466	47.30363
	8.430039	47.30368
	8.429876	47.30342
	8.429368	47.30223
	8.428731	47.30136
	8.428541	47.30115
	8.429126	47.30068
	8.428557	47.30044
	8.427948	47.30034
	8.427115	47.2999
	8.426769	47.2998
	8.426754	47.2997
	8.425953	47.29955
	8.425359	47.29934
	8.424881	47.29912
	8.424616	47.29888
	8.424033	47.29874
	8.423149	47.29838
	8.422228	47.29775
	8.421734	47.29804
	8.421561	47.29778
	8.420974	47.2975
	8.420363	47.29711
	8.41991	47.29661
	8.419887	47.29649
	8.420061	47.2959
	8.420214	47.2957
	8.418951	47.29538
	8.419244	47.29516
	8.419099	47.29507
	8.418894	47.2947
	8.417049	47.29382
	8.41633	47.29395
	8.41601	47.29394
	8.415053	47.29374
	8.414669	47.29358
	8.414651	47.2936
	8.413951	47.29327
	8.413064	47.293
	8.407025	47.29247
	8.405746	47.29226
	8.403577	47.29176
	8.404066	47.29078
	8.403452	47.29044
	8.402499	47.29007
	8.402203	47.28985
	8.401519	47.2895
	8.400615	47.28919
	8.400288	47.28909
	8.400205	47.28912
	8.400282	47.289
	8.397219	47.2879
	8.397052	47.28792
	8.396473	47.28855
	8.395919	47.28884
	8.396001	47.29084
	8.395536	47.29135
	8.394899	47.29181
	8.394173	47.29214
	8.394073	47.2922
	8.393738	47.29246
	8.392884	47.29285
	8.39232	47.29296
	8.392042	47.293
	8.391511	47.29302
	8.390768	47.29292
	8.390449	47.29281
	8.389673	47.29237
	8.388943	47.29013
	8.388635	47.29003
	8.388845	47.28983
	8.388795	47.28968
	8.389119	47.28957
	8.389382	47.28932
	8.390365	47.28837
	8.391115	47.28745
	8.391607	47.28648
	8.392021	47.28574
	8.392768	47.2842
	8.393077	47.28342
	8.394241	47.27939
	8.394534	47.27877
	8.394993	47.27809
	8.395535	47.27749
	8.396265	47.27688
	8.401151	47.27361
	8.401704	47.27309
	8.402112	47.2725
	8.402389	47.27172
	8.402399	47.2709
	8.402285	47.27045
	8.400531	47.26576
	8.400505	47.26517
	8.400647	47.26463
	8.400919	47.2641
	8.401391	47.26358
	8.401776	47.26329
	8.403037	47.26253
	8.403738	47.2619
	8.404245	47.26114
	8.404481	47.26034
	8.404466	47.25965
	8.40426	47.25898
	8.403004	47.25708
	8.402712	47.25642
	8.402627	47.25555
	8.402689	47.25514
	8.402877	47.25463
	8.40321	47.25408
	8.403695	47.25356
	8.407664	47.25071
	8.408494	47.24997
	8.410073	47.24838
	8.41058	47.24773
	8.410882	47.247
	8.41096	47.24632
	8.410813	47.24553
	8.410579	47.24502
	8.410238	47.24456
	8.407212	47.24156
	8.406703	47.24078
	8.406485	47.23996
	8.406422	47.2379
	8.406244	47.23739
	8.405824	47.23672
	8.405488	47.23637
	8.404633	47.23575
	8.400056	47.23289
	8.398719	47.232
	8.397893	47.23131
	8.39727	47.23068
	8.396706	47.22999
	8.396194	47.2292
	8.395054	47.22684
	8.394868	47.22622
	8.394835	47.22574
	8.394959	47.22504
	8.396296	47.22053
	8.396592	47.21963
	8.396822	47.21917
	8.397439	47.21842
	8.399473	47.21691
	8.400046	47.21634
	8.400566	47.21561
	8.400818	47.2151
	8.400975	47.21451
	8.401016	47.21384
	8.400424	47.20951
	8.400421	47.2089
	8.400526	47.20813
	8.400729	47.20748
	8.401514	47.20566
	8.401662	47.20519
	8.401822	47.20429
	8.402075	47.2019
	8.402304	47.2011
	8.402509	47.20069
	8.404902	47.19685
	8.405181	47.19621
	8.405313	47.19557
	8.405322	47.19503
	8.405238	47.1945
	8.40478	47.19346
	8.404364	47.1929
	8.402345	47.1908
	8.401666	47.1899
	8.401195	47.18901
	8.400873	47.18811
	8.400327	47.18587
	8.400217	47.18499
	8.400263	47.18358
	8.400434	47.18272
	8.401536	47.17911
	8.40217	47.17715
	8.402437	47.17676
	8.402733	47.17657
	8.403175	47.17643
	8.407764	47.17576
	8.408661	47.17556
	8.409313	47.17534
	8.410047	47.175
	8.410826	47.17448
	8.411447	47.17388
	8.411878	47.17326
	8.414969	47.1655
	8.415304	47.16413
	8.41538	47.16322
	8.415218	47.15885
	8.414999	47.15812
	8.41452	47.15739
	8.412635	47.15538
	8.412331	47.15498
	8.412021	47.15427
	8.411958	47.15349
	8.412054	47.15288
	8.412276	47.15226
	8.414154	47.14892
	8.414583	47.14796
	8.414775	47.14731
	8.414887	47.14666
	8.414874	47.14531
	8.414592	47.14408
	8.414044	47.14285
	8.413245	47.14167
	8.412228	47.14059
	8.411982	47.14037
	8.411443	47.13995
	8.410828	47.13956
	8.408878	47.13858
	8.408041	47.13828
	8.406418	47.13786
	8.405291	47.13748
	8.404196	47.13823
	8.398173	47.13803
	8.397588	47.13786
	8.396354	47.13879
	8.396024	47.13867
	8.395994	47.13899
	8.393401	47.13846
	8.39342	47.13851
	8.389966	47.13977
	8.389587	47.13951
	8.389554	47.13942
	8.389328	47.13934
	8.389087	47.13934
	8.388642	47.13948
	8.388337	47.13946
	8.387544	47.13965
	8.387019	47.13969
	8.386438	47.13992
	8.386024	47.14
	8.385605	47.13999
	8.385406	47.13989
	8.385299	47.13992
	8.384655	47.13979
	8.384189	47.13983
	8.384034	47.13977
	8.383474	47.13991
	8.383032	47.13992
	8.382737	47.14003
	8.382201	47.14
	8.382016	47.13994
	8.381927	47.13983
	8.381779	47.13982
	8.381624	47.13967
	8.381327	47.13956
	8.381098	47.13955
	8.380739	47.13945
	8.380617	47.13935
	8.380139	47.13923
	8.37972	47.13945
	8.379488	47.13948
	8.379074	47.13931
	8.378953	47.13931
	8.378778	47.13945
	8.37869	47.13961
	8.378337	47.1397
	8.377857	47.13969
	8.377307	47.13945
	8.376082	47.13925
	8.37594	47.14102
	8.375469	47.14157
	8.375304	47.142
	8.374907	47.14261
	8.374853	47.14296
	8.37482	47.14305
	8.374263	47.14305
	8.373965	47.14307
	8.37342	47.14324
	8.368378	47.14429
	8.368317	47.14467
	8.367449	47.14505
	8.367049	47.14505
	8.366346	47.14481
	8.365376	47.14516
	8.365112	47.14534
	8.364033	47.14588
	8.364022	47.14595
	8.363617	47.14595
	8.363446	47.14582
	8.363144	47.14582
	8.362982	47.14589
	8.362747	47.1459
	8.362169	47.1461
	8.362165	47.14606
	8.362088	47.14663
	8.361484	47.1488
	8.361133	47.15072
	8.36071	47.15223
	8.360637	47.15227
	8.360905	47.15253
	8.360226	47.15298
	8.359834	47.15333
	8.358354	47.15329
	8.358061	47.15574
	8.358298	47.1565
	8.35817	47.15674
	8.357063	47.15755
	8.355757	47.15832
	8.354952	47.15902
	8.354597	47.15988
	8.351551	47.16296
	8.350177	47.16368
	8.349395	47.16418
	8.349288	47.16407
	8.347595	47.16458
	8.34801	47.16498
	8.347777	47.16518
	8.348403	47.16557
	8.348325	47.16561
	8.349057	47.16603
	8.348122	47.16686
	8.347461	47.16755
	8.347106	47.16765
	8.346525	47.16761
	8.347198	47.16839
	8.346087	47.16901
	8.346526	47.17
	8.345672	47.1702
	8.344283	47.1715
	8.34411	47.173
	8.342602	47.17351
	8.340786	47.17378
	8.341163	47.17422
	8.341204	47.17509
	8.339485	47.17644
	8.338595	47.17844
	8.338821	47.18009
	8.338759	47.18031
	8.338399	47.1809
	8.338469	47.18113
	8.338914	47.18168
	8.338546	47.18177
	8.338722	47.18207
	8.338726	47.18231
	8.338173	47.18317
	8.338378	47.1836
	8.337924	47.18401
	8.338329	47.18456
	8.339289	47.18436
	8.339918	47.18494
	8.339592	47.18514
	8.339716	47.18622
	8.338948	47.18607
	8.338356	47.18618
	8.338163	47.18645
	8.338374	47.18724
	8.338116	47.18762
	8.338253	47.18792
	8.337901	47.18816
	8.338265	47.18861
	8.337748	47.18927
	8.335737	47.19128
	8.333911	47.19263
	8.330621	47.19706
	8.330024	47.19852
	8.330197	47.20093
	8.330115	47.20239
	8.32932	47.20379
	8.328501	47.2045
	8.327973	47.2061
	8.328137	47.20644
	8.328677	47.20717
	8.328755	47.20789
	8.328657	47.20812
	8.328326	47.20824
	8.328016	47.20847
	8.327472	47.20847
	8.327271	47.20931
	8.327144	47.2096
	8.327353	47.21027
	8.327329	47.21079
	8.326867	47.21082
	8.326393	47.21109
	8.3252	47.21473
	8.319488	47.21564
	8.319259	47.21637
	8.318804	47.21685
	8.318915	47.21719
	8.319516	47.21757
	8.319985	47.21799
	8.319922	47.21817
	8.32022	47.21861
	8.32029	47.21887
	8.320104	47.21963
	8.320377	47.22014
	8.320316	47.22048
	8.320455	47.22091
	8.320922	47.2212
	8.320841	47.22187
	8.320319	47.22224
	8.319815	47.22235
	8.319361	47.22262
	8.318556	47.22344
	8.318228	47.22353
	8.318115	47.22468
	8.317549	47.22482
	8.317131	47.22511
	8.317179	47.22642
	8.317317	47.22678
	8.317031	47.22703
	8.316657	47.2284
	8.316427	47.22888
	8.315776	47.22944
	8.315441	47.23075
	8.315305	47.23294
	8.314259	47.23515
	8.313949	47.23643
	8.31399	47.23728
	8.314101	47.2376
	8.314638	47.23813
	8.314775	47.23849
	8.314852	47.23912
	8.314796	47.23973
	8.314697	47.24014
	8.313826	47.24102
	8.31206	47.24449
	8.31172	47.24548
	8.310311	47.2466
	8.310095	47.24707
	8.30802	47.24943
	8.306394	47.251
	8.304964	47.25246
	8.3033	47.25166
	8.302805	47.25207
	8.301756	47.25258
	8.301218	47.25227
	8.300828	47.25268
	8.300471	47.2534
	8.299903	47.25403
	8.299449	47.25504
	8.29904	47.25548
	8.298514	47.25614
	8.298264	47.25635
	8.298417	47.25657
	8.298134	47.25683
	8.297667	47.25709
	8.297469	47.25733
	8.297177	47.25747
	8.297096	47.25779
	8.296611	47.25833
	8.296495	47.25859
	8.296446	47.25899
	8.296021	47.25941
	8.295995	47.25971
	8.296085	47.25992
	8.29611	47.26042
	8.295995	47.26057
	8.295992	47.26081
	8.295856	47.26094
	8.2959	47.26109
	8.295753	47.26126
	8.295767	47.26155
	8.29554	47.26272
	8.295402	47.26299
	8.295269	47.26364
	8.294789	47.26389
	8.294759	47.26417
	8.294501	47.26476
	8.294468	47.26507
	8.294553	47.26526
	8.294434	47.26539
	8.294434	47.26557
	8.294526	47.26567
	8.294628	47.266
	8.295021	47.26629
	8.294995	47.26637
	8.295178	47.26642
	8.29534	47.26655
	8.295315	47.26663
	8.295524	47.26677
	8.295433	47.26681
	8.295594	47.26708
	8.29571	47.26721
	8.295862	47.26725
	8.295977	47.26737
	8.295942	47.26742
	8.296269	47.26769
	8.296273	47.26808
	8.296435	47.26813
	8.296475	47.26819
	8.296337	47.26838
	8.296565	47.26845
	8.296706	47.26845
	8.297037	47.26884
	8.297079	47.26899
	8.297459	47.26902
	8.297581	47.26917
	8.297817	47.26918
	8.298115	47.26939
	8.298138	47.26947
	8.298306	47.26952
	8.298612	47.26952
	8.298755	47.26959
	8.298735	47.26966
	8.2992	47.27007
	8.299337	47.27038
	8.299315	47.2705
	8.299686	47.27077
	8.299739	47.27101
	8.300004	47.27119
	8.300255	47.27148
	8.297966	47.272
	8.297925	47.27201
	8.297874	47.27205
	8.297721	47.27201
	8.297361	47.27222
	8.296632	47.27236
	8.296258	47.27231
	8.295891	47.27239
	8.295347	47.27264
	8.29479	47.27298
	8.293458	47.27423
	8.291928	47.27504
	8.290497	47.27642
	8.289662	47.27746
	8.28791	47.27868
	8.28691	47.27929
	8.285369	47.27999
	8.28473	47.28009
	8.284599	47.27999
	8.281455	47.28059
	8.281313	47.28101
	8.280025	47.28097
	8.279936	47.2811
	8.279517	47.28098
	8.278633	47.28212
	8.27784	47.282
	8.27592	47.28148
	8.27581	47.28133
	8.275765	47.28131
	8.275511	47.28121
	8.275009	47.2811
	8.27439	47.28083
	8.274036	47.28073
	8.273488	47.28064
	8.272521	47.28066
	8.271443	47.28083
	8.271563	47.2809
	8.270676	47.28348
	8.267316	47.28289
	8.265965	47.28284
	8.265343	47.28277
	8.265259	47.28269
	8.265307	47.28254
	8.262789	47.28233
	8.262584	47.28308
	8.261991	47.28252
	8.261732	47.28254
	8.260984	47.28435
	8.26053	47.28424
	8.260226	47.28495
	8.260497	47.28503
	8.260376	47.28539
	8.259475	47.28689
	8.25922	47.28695
	8.258708	47.28719
	8.257911	47.28698
	8.257446	47.28698
	8.256683	47.28673
	8.256455	47.28671
	8.255769	47.28677
	8.255447	47.28673
	8.255218	47.28663
	8.255216	47.28627
	8.254836	47.28618
	8.253312	47.28619
	8.253117	47.28612
	8.252864	47.28625
	8.252601	47.28653
	8.250717	47.28609
	8.250903	47.28513
	8.249716	47.2849
	8.2498	47.28475
	8.248938	47.28444
	8.249115	47.28398
	8.24942	47.28356
	8.249365	47.28355
	8.249822	47.28284
	8.249606	47.28248
	8.249155	47.28252
	8.248922	47.28247
	8.248654	47.2812
	8.247417	47.28124
	8.244622	47.28076
	8.24509	47.27972
	8.244	47.27949
	8.243594	47.27953
	8.243376	47.2796
	8.243017	47.27882
	8.242224	47.27872
	8.242589	47.27752
	8.242536	47.27718
	8.24264	47.27626
	8.242282	47.27623
	8.24099	47.27601
	8.241165	47.27445
	8.241355	47.27418
	8.24197	47.27296
	8.242413	47.27231
	8.241731	47.27232
	8.24165	47.27237
	8.241272	47.2724
	8.240928	47.2724
	8.240895	47.27236
	8.240721	47.2724
	8.240713	47.27249
	8.240464	47.2725
	8.240388	47.27245
	8.240247	47.27256
	8.240068	47.27253
	8.23984	47.27257
	8.239685	47.27253
	8.23952	47.27257
	8.239176	47.27249
	8.238988	47.27258
	8.238415	47.27251
	8.238375	47.27259
	8.238042	47.27251
	8.23774	47.27266
	8.23762	47.27266
	8.237584	47.27261
	8.237341	47.27256
	8.236961	47.27263
	8.236598	47.27261
	8.236068	47.27286
	8.235841	47.27269
	8.235727	47.27271
	8.235487	47.2729
	8.234669	47.27283
	8.234548	47.27285
	8.234248	47.27302
	8.234103	47.2732
	8.233374	47.27338
	8.233244	47.27346
	8.233198	47.27354
	8.233267	47.27375
	8.233102	47.27389
	8.232217	47.27386
	8.23206	47.27394
	8.231773	47.27394
	8.231637	47.27401
	8.230958	47.27393
	8.229545	47.27347
	8.228572	47.27342
	8.222479	47.25875
	8.219843	47.25225
	8.217895	47.25182
	8.212476	47.24977
	8.207884	47.24744
	8.207741	47.24735
	8.207737	47.24678
	8.207858	47.24624
	8.206545	47.24517
	8.205756	47.24444
	8.204486	47.24264
	8.204634	47.24247
	8.205309	47.24199
	8.205515	47.24158
	8.205707	47.2414
	8.205268	47.23973
	8.205349	47.23964
	8.205754	47.23826
	8.204802	47.23802
	8.204783	47.23752
	8.205118	47.23636
	8.20394	47.23623
	8.203744	47.23618
	8.203571	47.23619
	8.203541	47.23521
	8.203648	47.23427
	8.203263	47.23394
	8.203181	47.23392
	8.203245	47.23369
	8.203378	47.2335
	8.203413	47.23256
	8.203069	47.2323
	8.202767	47.23157
	8.203304	47.23144
	8.202735	47.23002
	8.204194	47.2299
	8.204	47.22845
	8.204212	47.22843
	8.204092	47.22724
	8.204425	47.22722
	8.204854	47.22647
	8.205044	47.22599
	8.20483	47.22583
	8.203359	47.22606
	8.202238	47.22607
	8.201877	47.22594
	8.201603	47.2259
	8.200312	47.22593
	8.199965	47.22609
	8.199409	47.22608
	8.199018	47.22615
	8.198414	47.22616
	8.198266	47.2262
	8.198354	47.22659
	8.198194	47.22661
	8.197688	47.22622
	8.197596	47.22629
	8.19623	47.22635
	8.194008	47.22631
	8.193398	47.22608
	8.193097	47.22604
	8.193023	47.22581
	8.19311	47.22557
	8.193037	47.22557
	8.193194	47.22492
	8.192373	47.22472
	8.19096	47.22454
	8.190255	47.2244
	8.190014	47.22444
	8.189756	47.22442
	8.189633	47.2244
	8.189384	47.22417
	8.189105	47.22401
	8.188306	47.22374
	8.188102	47.22333
	8.187168	47.22324
	8.186158	47.22265
	8.185532	47.22249
	8.184695	47.22237
	8.180447	47.22275
	8.179564	47.22238
	8.179504	47.22222
	8.17905	47.22208
	8.178473	47.22206
	8.177673	47.22295
	8.177149	47.2241
	8.177019	47.22435
	8.176481	47.22512
	8.176097	47.22563
	8.175838	47.22594
	8.175535	47.22622
	8.175069	47.22651
	8.174672	47.22666
	8.174383	47.22674
	8.17378	47.22686
	8.173874	47.22713
	8.17412	47.22739
	8.174105	47.2275
	8.173372	47.22756
	8.173057	47.22699
	8.17294	47.22701
	8.172448	47.22702
	8.171025	47.22694
	8.170875	47.22691
	8.170426	47.22679
	8.170136	47.22668
	8.169787	47.22685
	8.169589	47.22693
	8.169195	47.22706
	8.16873	47.22716
	8.168271	47.22722
	8.166197	47.22553
	8.166113	47.22567
	8.166132	47.22575
	8.166437	47.22645
	8.16696	47.22724
	8.167242	47.22758
	8.16764	47.22824
	8.167913	47.22846
	8.167471	47.22909
	8.165563	47.22844
	8.16538	47.22889
	8.164981	47.22918
	8.164561	47.22976
	8.16436	47.22984
	8.163911	47.22975
	8.16364	47.22979
	8.163398	47.22993
	8.163075	47.23026
	8.162697	47.23055
	8.162728	47.23064
	8.162977	47.23084
	8.162582	47.23083
	8.161938	47.23136
	8.161876	47.23176
	8.161377	47.23168
	8.161276	47.23175
	8.160757	47.23176
	8.159913	47.23277
	8.1597	47.23314
	8.159959	47.23369
	8.160011	47.23444
	8.160543	47.23454
	8.160827	47.23471
	8.161136	47.23501
	8.162091	47.23538
	8.162111	47.2358
	8.161863	47.23615
	8.161033	47.23638
	8.160801	47.23676
	8.160545	47.23702
	8.15983	47.23724
	8.159296	47.2378
	8.158259	47.23782
	8.157958	47.23786
	8.155934	47.23781
	8.156005	47.2379
	8.156063	47.23825
	8.156004	47.23919
	8.15594	47.23933
	8.155942	47.23942
	8.155966	47.23943
	8.156673	47.23962
	8.158293	47.24008
	8.159829	47.24029
	8.161646	47.24062
	8.162796	47.24063
	8.165349	47.2408
	8.167547	47.24081
	8.167938	47.24088
	8.169143	47.24163
	8.169774	47.24195
	8.171111	47.24018
	8.17182	47.24013
	8.172916	47.24016
	8.172986	47.24013
	8.173049	47.24017
	8.173958	47.24022
	8.174662	47.24012
	8.175131	47.24011
	8.175937	47.24043
	8.176209	47.24067
	8.174895	47.24043
	8.174375	47.24321
	8.174542	47.24345
	8.174919	47.24386
	8.175033	47.24396
	8.175367	47.24418
	8.175493	47.24469
	8.175562	47.24487
	8.175742	47.24522
	8.175895	47.24546
	8.176179	47.24581
	8.176499	47.24613
	8.176909	47.24646
	8.177059	47.24656
	8.177594	47.24678
	8.177765	47.24683
	8.178145	47.24689
	8.178226	47.24682
	8.178023	47.245
	8.180834	47.24469
	8.181132	47.24494
	8.18197	47.24575
	8.181894	47.24583
	8.182716	47.24765
	8.18261	47.24816
	8.182452	47.24867
	8.182221	47.24917
	8.181867	47.24961
	8.181813	47.24966
	8.181311	47.25
	8.180998	47.25014
	8.180772	47.25021
	8.18064	47.25054
	8.178809	47.25124
	8.178061	47.25182
	8.177762	47.25219
	8.1777	47.2522
	8.176974	47.25193
	8.17659	47.25053
	8.173864	47.25129
	8.173538	47.25187
	8.173274	47.2525
	8.173183	47.25256
	8.173039	47.25271
	8.172941	47.25266
	8.172315	47.2527
	8.171886	47.25278
	8.169399	47.25135
	8.169215	47.25148
	8.168699	47.25132
	8.167751	47.25112
	8.167287	47.25098
	8.166485	47.25053
	8.166011	47.25087
	8.165656	47.25063
	8.165148	47.25018
	8.165042	47.2502
	8.164441	47.25008
	8.16394	47.25009
	8.162865	47.25
	8.162626	47.25005
	8.161731	47.24986
	8.160956	47.24993
	8.160543	47.24966
	8.160431	47.24953
	8.16026	47.24883
	8.159861	47.24896
	8.159451	47.24899
	8.159419	47.24981
	8.158721	47.24969
	8.158329	47.24974
	8.15808	47.24925
	8.157993	47.24878
	8.157523	47.2487
	8.157348	47.24869
	8.157025	47.24891
	8.156844	47.24911
	8.156349	47.24937
	8.156191	47.24929
	8.155738	47.24924
	8.154397	47.24893
	8.150768	47.24841
	8.148682	47.24797
	8.148499	47.2479
	8.148324	47.24791
	8.147966	47.24782
	8.14793	47.24776
	8.147537	47.24764
	8.147174	47.2477
	8.146911	47.24763
	8.146677	47.2475
	8.145315	47.24742
	8.144473	47.2475
	8.143972	47.24748
	8.142686	47.24728
	8.142685	47.24725
	8.141437	47.24721
	8.140573	47.24717
	8.140101	47.24723
	8.140071	47.24717
	8.136419	47.24703
	8.136211	47.247
	8.135865	47.24684
	8.135723	47.24684
	8.135657	47.24692
	8.135563	47.24694
	8.135421	47.24682
	8.133959	47.24647
	8.133101	47.24616
	8.13258	47.24587
	8.131876	47.24574
	8.1317	47.24565
	8.131507	47.2455
	8.131412	47.24534
	8.131383	47.24495
	8.131477	47.24486
	8.131426	47.24471
	8.131512	47.24455
	8.131407	47.24423
	8.13126	47.24409
	8.131214	47.24396
	8.130839	47.24376
	8.130534	47.24366
	8.130343	47.24353
	8.129894	47.24335
	8.129691	47.24333
	8.129341	47.24313
	8.129172	47.2431
	8.129094	47.24301
	8.128392	47.2428
	8.128002	47.24257
	8.127099	47.2422
	8.126878	47.24193
	8.126738	47.24191
	8.126698	47.24186
	8.126134	47.24173
	8.125733	47.24156
	8.125569	47.24155
	8.125286	47.24143
	8.125189	47.24144
	8.125111	47.24138
	8.124727	47.2414
	8.124412	47.24137
	8.124143	47.24167
	8.121579	47.24295
	8.119575	47.24386
	8.116047	47.24419
	8.111813	47.24432
	8.109096	47.24453
	8.107871	47.24577
	8.107313	47.24688
	8.106032	47.24899
	8.105856	47.24941
	8.105863	47.25065
	8.105796	47.25122
	8.105924	47.25158
	8.106022	47.25217
	8.104221	47.25403
	8.101834	47.25669
	8.100927	47.25742
	8.100251	47.25883
	8.098823	47.26023
	8.095971	47.26088
	8.095698	47.2624
	8.095245	47.26266
	8.095089	47.26271
	8.094692	47.26307
	8.094152	47.26332
	8.094004	47.26337
	8.093978	47.26337
	8.092143	47.2639
	8.091244	47.26412
	8.089257	47.26471
	8.088716	47.26482
	8.086395	47.2632
	8.087	47.26233
	8.086564	47.26217
	8.085524	47.26192
	8.08489	47.26164
	8.083607	47.26117
	8.08234	47.2609
	8.082047	47.26062
	8.080011	47.26016
	8.079185	47.26019
	8.078291	47.25999
	8.078323	47.25927
	8.078597	47.25866
	8.076611	47.25833
	8.076858	47.25824
	8.077264	47.25764
	8.076121	47.25739
	8.075077	47.2571
	8.07413	47.25678
	8.073675	47.25656
	8.073343	47.25635
	8.073183	47.25614
	8.07304	47.25587
	8.072858	47.25516
	8.072661	47.25505
	8.071779	47.25495
	8.071157	47.25471
	8.070463	47.25463
	8.069465	47.25469
	8.069267	47.25519
	8.068356	47.25492
	8.066932	47.2548
	8.066773	47.2549
	8.066721	47.2548
	8.066418	47.2546
	8.066042	47.25467
	8.066049	47.25482
	8.065964	47.25494
	8.063338	47.2562
	8.062692	47.25666
	8.06159	47.2566
	8.058597	47.25671
	8.05872	47.25575
	8.056566	47.25544
	8.056861	47.25358
	8.056989	47.25309
	8.057385	47.25223
	8.057697	47.25179
	8.058114	47.25131
	8.059185	47.25026
	8.062708	47.24701
	8.06298	47.24666
	8.051512	47.24415
	8.051229	47.24476
	8.049112	47.24443
	8.044509	47.24391
	8.04435	47.24382
	8.043187	47.24379
	8.039589	47.24331
	8.030102	47.24216
	8.02929	47.2412
	8.029194	47.24092
	8.029192	47.24069
	8.029085	47.2406
	8.027547	47.24124
	8.026454	47.24156
	8.026036	47.24197
	8.025402	47.24194
	8.025071	47.24186
	8.024847	47.24197
	8.023752	47.24207
	8.022803	47.24221
	8.022565	47.24218
	8.021748	47.24239
	8.021579	47.24262
	8.021186	47.24291
	8.020765	47.24312
	8.020331	47.24352
	8.019065	47.24369
	8.017395	47.24377
	8.016095	47.24413
	8.015851	47.24413
	8.015751	47.24416
	8.015688	47.24466
	8.015836	47.24509
	8.015733	47.24545
	8.015685	47.24602
	8.015809	47.24616
	8.015805	47.24638
	8.016004	47.24645
	8.016033	47.24652
	8.015964	47.24689
	8.015854	47.24692
	8.015838	47.24731
	8.015704	47.24746
	8.015685	47.24774
	8.016049	47.24808
	8.016053	47.2484
	8.016171	47.24852
	8.016302	47.24891
	8.016398	47.24899
	8.016449	47.24898
	8.016411	47.24907
	8.016521	47.24911
	8.016562	47.24935
	8.016747	47.24957
	8.016895	47.25002
	8.016703	47.25048
	8.016749	47.25063
	8.016624	47.25067
	8.016648	47.25074
	8.01657	47.25079
	8.016661	47.25084
	8.016562	47.25093
	8.01666	47.25113
	8.016568	47.25123
	8.016657	47.25126
	8.016762	47.25152
	8.0167	47.25155
	8.01668	47.25172
	8.01644	47.25196
	8.016563	47.25226
	8.016582	47.25273
	8.016703	47.25284
	8.016652	47.25328
	8.016697	47.25359
	8.016542	47.25361
	8.016514	47.25368
	8.016508	47.2544
	8.016248	47.25462
	8.016482	47.25495
	8.016494	47.25517
	8.016566	47.25517
	8.016966	47.255
	8.017056	47.25504
	8.017193	47.2554
	8.017522	47.25594
	8.017098	47.25709
	8.016609	47.25704
	8.016414	47.25716
	8.016434	47.2573
	8.016348	47.25733
	8.016407	47.2577
	8.016248	47.25811
	8.016256	47.25825
	8.01644	47.25843
	8.016576	47.25849
	8.016533	47.25855
	8.016638	47.25859
	8.016872	47.25893
	8.016811	47.25932
	8.016648	47.25946
	8.016429	47.25949
	8.016282	47.25957
	8.016027	47.25987
	8.015121	47.26045
	8.014418	47.26144
	8.013784	47.26201
	8.013046	47.26271
	8.011839	47.26333
	8.011695	47.26361
	8.011494	47.26379
	8.010688	47.26399
	8.010335	47.26417
	8.010291	47.26427
	8.009355	47.26511
	8.008824	47.26596
	8.008755	47.26621
	8.008596	47.26628
	8.008494	47.26647
	8.008025	47.26673
	8.007536	47.26747
	8.007095	47.26785
	8.006654	47.26809
	8.006343	47.26845
	8.006097	47.2685
	8.005939	47.26865
	8.005968	47.2687
	8.005893	47.26879
	8.005583	47.26906
	8.005399	47.2691
	8.005199	47.26939
	8.005325	47.26956
	8.005192	47.27005
	8.005244	47.2702
	8.00514	47.27044
	8.005016	47.2705
	8.004855	47.27078
	8.004831	47.27113
	8.004565	47.27154
	8.004578	47.27173
	8.00441	47.27206
	8.004433	47.27225
	8.004307	47.27262
	8.004523	47.27279
	8.004909	47.27338
	8.004844	47.27361
	8.004727	47.27377
	8.004766	47.27399
	8.004865	47.27404
	8.004916	47.27416
	8.00479	47.27437
	7.995293	47.28155
	7.986887	47.27602
	7.973453	47.27449
	7.971665	47.27611
	7.95602	47.27686
	7.954894	47.27651
	7.950635	47.27478
	7.950677	47.27457
	7.951105	47.27436
	7.951452	47.27331
	7.951034	47.27134
	7.950893	47.27118
	7.950504	47.27085
	7.949797	47.27054
	7.949677	47.27052
	7.949703	47.27013
	7.950372	47.26923
	7.950339	47.26903
	7.950519	47.26873
	7.950758	47.26843
	7.950932	47.26833
	7.951731	47.26839
	7.95193	47.2683
	7.951995	47.26819
	7.951891	47.26793
	7.952085	47.26764
	7.952068	47.26758
	7.951645	47.26711
	7.951576	47.26692
	7.951651	47.26569
	7.951986	47.26541
	7.952997	47.26504
	7.953234	47.26466
	7.953472	47.26441
	7.953461	47.26419
	7.953547	47.26403
	7.95374	47.26389
	7.954183	47.26372
	7.954523	47.26339
	7.954557	47.26323
	7.954383	47.26292
	7.954577	47.26275
	7.954797	47.26271
	7.95495	47.26248
	7.954987	47.2619
	7.954946	47.26185
	7.955027	47.26148
	7.955412	47.26056
	7.955861	47.26018
	7.956261	47.26001
	7.957128	47.2598
	7.957926	47.25978
	7.958302	47.25941
	7.958488	47.25937
	7.958513	47.25918
	7.959114	47.25812
	7.959324	47.25764
	7.959119	47.2572
	7.959193	47.25682
	7.959013	47.25651
	7.95896	47.25623
	7.959268	47.256
	7.95962	47.25578
	7.960288	47.25551
	7.961596	47.25457
	7.961662	47.2543
	7.961756	47.25429
	7.961878	47.25406
	7.954138	47.24978
	7.945974	47.24326
	7.943377	47.24202
	7.942079	47.24128
	7.940906	47.24099
	7.940477	47.24082
	7.939809	47.24044
	7.939249	47.23998
	7.938645	47.23961
	7.93814	47.2392
	7.936606	47.23822
	7.936116	47.23796
	7.93571	47.23751
	7.934998	47.23688
	7.933711	47.2362
	7.933483	47.2359
	7.929282	47.23647
	7.925254	47.23732
	7.921922	47.23781
	7.921166	47.23791
	7.917009	47.24035
	7.91537	47.2414
	7.914371	47.24197
	7.914171	47.24207
	7.912704	47.24261
	7.910101	47.24395
	7.897269	47.2431
	7.89423	47.24253
	7.867394	47.2373
	7.854957	47.23314
	7.854719	47.23316
	7.853883	47.23283
	7.853209	47.23242
	7.845331	47.23397
	7.843018	47.23435
	7.842003	47.23572
	7.841035	47.23567
	7.840645	47.23573
	7.839884	47.23574
	7.839878	47.23573
	7.839696	47.23571
	7.839437	47.23551
	7.839289	47.2355
	7.839174	47.23563
	7.83911	47.2354
	7.838665	47.23482
	7.838193	47.23511
	7.837745	47.23562
	7.837403	47.23574
	7.837299	47.23582
	7.83698	47.23617
	7.836833	47.23644
	7.83701	47.23673
	7.837008	47.23682
	7.836924	47.23689
	7.835954	47.23704
	7.835138	47.23742
	7.83447	47.23755
	7.834211	47.23768
	7.834181	47.23773
	7.834283	47.23798
	7.833904	47.23862
	7.833638	47.2388
	7.833366	47.23889
	7.833482	47.23948
	7.833042	47.23976
	7.832368	47.23967
	7.832261	47.23971
	7.83233	47.24002
	7.832272	47.24015
	7.831738	47.24034
	7.831367	47.24071
	7.831211	47.24107
	7.830657	47.24162
	7.830422	47.24214
	7.830428	47.24242
	7.830581	47.24261
	7.830271	47.24299
	7.829757	47.24339
	7.829551	47.24344
	7.828953	47.24308
	7.82862	47.24294
	7.828395	47.24288
	7.828251	47.24302
	7.828104	47.24334
	7.828113	47.24347
	7.82846	47.24375
	7.828394	47.24409
	7.828453	47.24422
	7.82864	47.24432
	7.828637	47.2444
	7.828511	47.24454
	7.828217	47.2445
	7.827903	47.24464
	7.827582	47.2449
	7.827182	47.24542
	7.826809	47.24571
	7.826689	47.24606
	7.826687	47.24638
	7.826541	47.24655
	7.826118	47.24685
	7.82609	47.24693
	7.826218	47.24707
	7.826479	47.24715
	7.826607	47.24725
	7.82629	47.24782
	7.826427	47.24796
	7.826356	47.24813
	7.826504	47.24815
	7.826509	47.24821
	7.826205	47.24844
	7.825989	47.24856
	7.825757	47.24862
	7.825682	47.24869
	7.825935	47.24886
	7.826687	47.24904
	7.827433	47.24964
	7.827974	47.24978
	7.828065	47.24985
	7.828053	47.25024
	7.827943	47.25042
	7.827531	47.25075
	7.826799	47.25104
	7.826198	47.25157
	7.82602	47.25181
	7.82615	47.25213
	7.826492	47.25261
	7.827145	47.25253
	7.82732	47.25257
	7.827465	47.25266
	7.827666	47.25286
	7.827772	47.2535
	7.827869	47.25362
	7.828407	47.25383
	7.829075	47.25435
	7.828995	47.25443
	7.82904	47.25442
	7.829044	47.2545
	7.828592	47.25503
	7.828935	47.25516
	7.829564	47.25518
	7.829838	47.25552
	7.829811	47.25572
	7.829093	47.25737
	7.828896	47.25819
	7.828908	47.2584
	7.828994	47.25857
	7.829234	47.25878
	7.829476	47.25883
	7.830177	47.25887
	7.830402	47.25912
	7.830384	47.2593
	7.830091	47.25967
	7.829939	47.25975
	7.829917	47.25973
	7.829329	47.26015
	7.829361	47.26053
	7.829256	47.26077
	7.829094	47.26096
	7.828945	47.26104
	7.828383	47.26111
	7.828205	47.26104
	7.827812	47.26099
	7.827482	47.26101
	7.827173	47.26126
	7.827135	47.2614
	7.82736	47.26185
	7.827933	47.26232
	7.828559	47.2627
	7.828622	47.26284
	7.828487	47.26303
	7.828318	47.2631
	7.827691	47.26317
	7.827294	47.26315
	7.827154	47.26319
	7.827106	47.26326
	7.827142	47.26353
	7.827714	47.26403
	7.82776	47.26432
	7.827476	47.26451
	7.827117	47.26455
	7.825752	47.26445
	7.825673	47.26448
	7.825544	47.26464
	7.825486	47.26492
	7.825514	47.26516
	7.825107	47.26557
	7.826411	47.26609
	7.827584	47.26636
	7.829261	47.26658
	7.831682	47.26734
	7.833175	47.26788
	7.835665	47.26973
	7.836291	47.2703
	7.837805	47.2715
	7.838396	47.27182
	7.838924	47.27221
	7.841806	47.27447
	7.843587	47.27658
	7.843826	47.27703
	7.844146	47.27791
	7.844399	47.27969
	7.844366	47.28046
	7.844785	47.28202
	7.845296	47.28275
	7.845796	47.28304
	7.846563	47.28382
	7.847533	47.28503
	7.8479	47.2856
	7.848263	47.28692
	7.848766	47.28761
	7.849545	47.28837
	7.850928	47.28941
	7.851605	47.28999
	7.851912	47.2903
	7.852443	47.29091
	7.852859	47.29149
	7.853664	47.29277
	7.854492	47.29522
	7.854727	47.29574
	7.855966	47.29764
	7.857506	47.29943
	7.858482	47.30092
	7.858945	47.30199
	7.859498	47.30396
	7.859873	47.30475
	7.860412	47.30553
	7.861102	47.30612
	7.862252	47.30687
	7.862821	47.30718
	7.863582	47.30752
	7.864856	47.30789
	7.867034	47.3084
	7.868854	47.30915
	7.869332	47.30937
	7.872542	47.31129
	7.873463	47.31169
	7.874505	47.31187
	7.875897	47.31194
	7.876747	47.31192
	7.879019	47.31176
	7.880742	47.31152
	7.882012	47.31136
	7.883819	47.31103
	7.885693	47.31103
	7.887747	47.31112
	7.888661	47.31127
	7.889098	47.31149
	7.889251	47.31162
	7.889823	47.31233
	7.890341	47.31408
	7.890694	47.31473
	7.891095	47.31521
	7.891749	47.31574
	7.892575	47.31628
	7.893744	47.31694
	7.895246	47.3182
	7.895953	47.31868
	7.896373	47.31886
	7.896879	47.31918
	7.897628	47.31944
	7.898095	47.31982
	7.898149	47.31999
	7.897892	47.32064
	7.897169	47.32152
	7.896581	47.32191
	7.896078	47.32393
	7.896112	47.32453
	7.896362	47.3255
	7.896551	47.32678
	7.896849	47.32766
	7.897227	47.32823
	7.897904	47.32898
	7.898495	47.32994
	7.899301	47.33101
	7.900714	47.33266
	7.902151	47.33447
	7.903693	47.3362
	7.904509	47.33693
	7.9073	47.33888
	7.90792	47.33952
	7.908199	47.34
	7.908253	47.3405
	7.908165	47.34092
	7.907806	47.34172
	7.908587	47.34191
	7.908643	47.34183
	7.909171	47.34165
	7.909339	47.34096
	7.911205	47.33919
	7.918186	47.33532
	7.919209	47.33395
	7.925914	47.33348
	7.931228	47.33304
	7.937714	47.33248
	7.947118	47.33234
	7.947831	47.33252
	7.948818	47.32957
	7.94857	47.3285
	7.948038	47.32672
	7.947309	47.32517
	7.947081	47.32225
	7.947189	47.32175
	7.947426	47.32136
	7.947512	47.32095
	7.947572	47.32048
	7.947542	47.3199
	7.948328	47.3181
	7.948128	47.3178
	7.94797	47.31714
	7.953047	47.31881
	7.955804	47.31961
	7.958619	47.32027
	7.96101	47.32073
	7.963492	47.32115
	7.963561	47.32098
	7.963768	47.32101
	7.963861	47.32103
	7.963844	47.32114
	7.964505	47.32131
	7.970473	47.32223
	7.970372	47.32253
	7.973192	47.32303
	7.973169	47.32307
	7.973349	47.32311
	7.973371	47.32306
	7.976503	47.32344
	7.97608	47.32467
	7.978077	47.32554
	7.977817	47.32598
	7.982339	47.32767
	7.982623	47.32757
	7.982719	47.3276
	7.98456	47.32849
	7.985174	47.32759
	7.985328	47.32757
	7.987433	47.32868
	7.987475	47.32879
	7.987312	47.32957
	7.989363	47.33074
	7.990372	47.33194
	7.990945	47.33281
	7.99184	47.3326
	7.994285	47.33308
	7.995614	47.33323
	8.000498	47.33483
	8.000773	47.33504
	8.00107	47.33475
	8.002856	47.33596
	8.005191	47.33675
	8.007356	47.3393
	8.006007	47.34102
	8.004267	47.34345
	8.003837	47.34531
	8.011817	47.34982
	8.012607	47.35195
	8.012821	47.35433
	8.010474	47.35695
	8.010598	47.35705
	8.011126	47.35713
	8.011509	47.35747
	8.012337	47.35797
	8.012889	47.35815
	8.013091	47.35873
	8.013428	47.35886
	8.013558	47.35905
	8.013824	47.35919
	8.014115	47.35925
	8.014211	47.35949
	8.015048	47.35983
	8.015442	47.35994
	8.016387	47.36037
	8.016728	47.36061
	8.016777	47.36091
	8.016536	47.36119
	8.016942	47.36163
	8.017146	47.36213
	8.0174	47.36249
	8.01805	47.36276
	8.019146	47.36361
	8.019432	47.3638
	8.020487	47.36416
	8.021263	47.36433
	8.024053	47.36525
	8.024329	47.36555
	8.024351	47.36571
	8.02448	47.36582
	8.024668	47.36663
	8.024789	47.36688
	8.02522	47.36739
	8.025146	47.36772
	8.025678	47.36802
	8.026154	47.36866
	8.026708	47.36868
	8.026787	47.36877
	8.026781	47.36889
	8.027197	47.36972
	8.027182	47.37006
	8.027334	47.37019
	8.027286	47.37041
	8.027093	47.37066
	8.0274	47.371
	8.027381	47.37112
	8.027359	47.37113
	8.027664	47.3726
	8.028321	47.37319
	8.027736	47.37425
	8.029127	47.3756
	8.029225	47.37664
	8.029836	47.37772
	8.02954	47.37932
	8.030857	47.38135
	8.030811	47.38241
	8.031367	47.38369
	8.029808	47.38645
	8.026561	47.39562
	8.020329	47.39581
	8.019968	47.39399
	8.019373	47.39414
	8.0185	47.39454
	8.017269	47.39487
	8.016791	47.39496
	8.015962	47.39501
	8.01543	47.39488
	8.014723	47.39479
	8.013931	47.39441
	8.013691	47.39438
	8.011979	47.39467
	8.010456	47.39513
	8.010002	47.39542
	8.009801	47.3957
	8.010037	47.39616
	8.009845	47.39651
	8.00987	47.3967
	8.010186	47.397
	8.009932	47.39738
	8.010033	47.39755
	8.010393	47.39772
	8.010153	47.39823
	8.01041	47.39877
	8.010174	47.39907
	8.010273	47.39952
	8.010141	47.39994
	8.010471	47.40042
	8.010329	47.40055
	8.010252	47.40073
	8.010082	47.40068
	8.00995	47.40072
	8.009999	47.40091
	8.009942	47.40105
	8.010055	47.4012
	8.010027	47.4013
	8.009717	47.40163
	8.009537	47.40158
	8.009406	47.40158
	8.009136	47.40191
	8.009091	47.40229
	8.008933	47.40256
	8.008915	47.40291
	8.008707	47.40314
	8.008401	47.40353
	8.008346	47.40367
	8.008357	47.40381
	8.008127	47.40414
	8.008136	47.4045
	8.008267	47.40484
	8.008146	47.40498
	8.007822	47.40519
	8.007349	47.40609
	8.007262	47.40659
	8.006763	47.40679
	8.005367	47.40714
	8.004621	47.40761
	8.004426	47.40781
	8.004301	47.40813
	8.0041	47.40829
	8.003909	47.40833
	8.003766	47.40854
	8.003381	47.40862
	8.003107	47.40889
	8.001762	47.40945
	7.999477	47.40973
	7.998658	47.40997
	7.997831	47.40997
	7.997442	47.41002
	7.996714	47.41019
	7.995463	47.41062
	7.994679	47.41076
	7.994216	47.41101
	7.993956	47.41109
	7.993652	47.4111
	7.992647	47.41095
	7.991466	47.4112
	7.99125	47.41133
	7.990778	47.4118
	7.990507	47.41192
	7.990342	47.41206
	7.990182	47.4124
	7.990203	47.41265
	7.990041	47.4132
	7.990214	47.41355
	7.989669	47.41368
	7.989471	47.41415
	7.989035	47.41403
	7.988684	47.41382
	7.988527	47.41381
	7.988144	47.41358
	7.988088	47.41347
	7.987747	47.41335
	7.98635	47.41364
	7.986119	47.41377
	7.986061	47.41386
	7.984786	47.41409
	7.984093	47.41409
	7.983388	47.41393
	7.983312	47.41379
	7.982958	47.41377
	7.982271	47.41356
	7.981898	47.41362
	7.980524	47.41437
	7.980059	47.41457
	7.979944	47.41458
	7.979755	47.41482
	7.979581	47.41489
	7.979354	47.41526
	7.978064	47.41581
	7.977209	47.4161
	7.976888	47.41653
	7.976632	47.41679
	7.976399	47.41693
	7.974219	47.41946
	7.972273	47.41895
	7.969341	47.42021
	7.963199	47.42235
	7.9645	47.42279
	7.967517	47.42349
	7.970836	47.4247
	7.97407	47.42567
	7.977349	47.42634
	7.980142	47.42755
	7.982704	47.42833
	7.983843	47.42831
	7.984237	47.42289
	7.985465	47.42276
	7.987271	47.42874
	7.986827	47.42889
	7.986932	47.42928
	7.986632	47.42931
	7.987077	47.42987
	7.986747	47.43032
	7.986641	47.43041
	7.986253	47.43055
	7.986182	47.43064
	7.986133	47.43095
	7.986182	47.43121
	7.986131	47.43129
	7.985323	47.43186
	7.985364	47.43219
	7.985456	47.43219
	7.985716	47.43232
	7.986145	47.43264
	7.986488	47.43316
	7.986357	47.43324
	7.986088	47.43315
	7.985189	47.43415
	7.985043	47.43425
	7.984085	47.43659
	7.983871	47.4369
	7.983678	47.43745
	7.98363	47.4382
	7.983809	47.43872
	7.98383	47.43912
	7.984092	47.43978
	7.984167	47.44032
	7.984108	47.44181
	7.98377	47.44322
	7.983593	47.44359
	7.983354	47.4439
	7.982768	47.44448
	7.982563	47.44456
	7.982147	47.44567
	7.982118	47.44595
	7.981985	47.44624
	7.981275	47.44738
	7.98092	47.44829
	7.980997	47.44848
	7.980606	47.44891
	7.97877	47.44976
	7.978049	47.45019
	7.977716	47.45047
	7.976405	47.45122
	7.974878	47.452
	7.975428	47.45303
	7.976551	47.45384
	7.976603	47.4542
	7.975957	47.45662
	7.975049	47.45856
	7.974824	47.45893
	7.974285	47.45955
	7.973961	47.45965
	7.973208	47.45985
	7.971611	47.46061
	7.970501	47.4613
	7.970289	47.46135
	7.968733	47.46218
	7.968544	47.46242
	7.968544	47.4628
	7.968284	47.46281
	7.968173	47.46276
	7.967912	47.46249
	7.967155	47.46232
	7.966878	47.46213
	7.966756	47.4621
	7.966813	47.46191
	7.96657	47.46178
	7.966572	47.46161
	7.966225	47.46132
	7.966217	47.46092
	7.965971	47.46087
	7.965813	47.46055
	7.965592	47.46032
	7.965046	47.46009
	7.964415	47.45972
	7.964285	47.45957
	7.964189	47.45955
	7.963665	47.45977
	7.963389	47.45979
	7.962907	47.45964
	7.962289	47.45908
	7.96158	47.45863
	7.961539	47.45852
	7.961235	47.45832
	7.961049	47.45806
	7.960634	47.45778
	7.960524	47.45766
	7.960439	47.45731
	7.960571	47.45692
	7.960534	47.45676
	7.960593	47.4561
	7.960521	47.45606
	7.960755	47.4558
	7.960832	47.45559
	7.960718	47.45547
	7.95977	47.45504
	7.959537	47.45504
	7.959586	47.45479
	7.959357	47.45479
	7.95902	47.45508
	7.958381	47.45533
	7.957498	47.45519
	7.957135	47.45524
	7.956835	47.45521
	7.956481	47.45511
	7.956233	47.45493
	7.956354	47.45484
	7.956673	47.4549
	7.956934	47.45485
	7.957251	47.45475
	7.957921	47.45442
	7.958361	47.45368
	7.958318	47.45351
	7.95853	47.45304
	7.958511	47.45287
	7.958367	47.45272
	7.958138	47.4526
	7.957654	47.45256
	7.957362	47.45246
	7.95694	47.45204
	7.957514	47.45181
	7.957837	47.45161
	7.957849	47.45128
	7.95696	47.45134
	7.956508	47.4512
	7.955666	47.45071
	7.955437	47.45019
	7.954789	47.44959
	7.954602	47.44924
	7.954322	47.44916
	7.954273	47.44906
	7.95359	47.44914
	7.952874	47.44877
	7.952347	47.44827
	7.952163	47.44788
	7.951359	47.44747
	7.950512	47.4469
	7.950306	47.44648
	7.950081	47.44574
	7.949486	47.44582
	7.948918	47.44583
	7.948438	47.44578
	7.947523	47.44556
	7.947132	47.44424
	7.946785	47.44319
	7.948064	47.44002
	7.951939	47.43278
	7.951122	47.43255
	7.950032	47.43172
	7.9557	47.42657
	7.96068	47.4231
	7.961832	47.42183
	7.960513	47.4212
	7.959503	47.42085
	7.958418	47.42055
	7.95681	47.41984
	7.95657	47.41968
	7.956308	47.41941
	7.956734	47.41883
	7.954259	47.41729
	7.955025	47.41703
	7.955114	47.41682
	7.955595	47.41679
	7.956	47.41667
	7.955038	47.41561
	7.954924	47.4156
	7.954824	47.41569
	7.953897	47.41602
	7.953666	47.41601
	7.953156	47.4161
	7.952422	47.41611
	7.951731	47.4163
	7.950992	47.41642
	7.950648	47.41637
	7.950297	47.41641
	7.949308	47.41631
	7.948389	47.41627
	7.946417	47.41553
	7.945622	47.4156
	7.945014	47.41453
	7.942971	47.41447
	7.941899	47.41425
	7.940626	47.4141
	7.939998	47.41382
	7.939461	47.41367
	7.938875	47.41364
	7.938593	47.41341
	7.938228	47.41325
	7.936956	47.41291
	7.936567	47.41267
	7.935896	47.41214
	7.935465	47.41191
	7.934928	47.41177
	7.935786	47.41062
	7.936723	47.40806
	7.934636	47.4066
	7.933685	47.40586
	7.933076	47.40562
	7.932662	47.40528
	7.931957	47.40506
	7.931262	47.40491
	7.930855	47.40486
	7.930285	47.4046
	7.929892	47.40456
	7.928864	47.40415
	7.927777	47.40361
	7.927517	47.40353
	7.927326	47.40355
	7.926932	47.40342
	7.926259	47.40329
	7.925993	47.40312
	7.925432	47.40298
	7.924673	47.40249
	7.924209	47.40203
	7.923046	47.4022
	7.921059	47.40237
	7.919899	47.40193
	7.918021	47.40142
	7.91671	47.40113
	7.914866	47.4006
	7.913745	47.40034
	7.9131	47.40024
	7.912162	47.39988
	7.912003	47.39977
	7.911623	47.3997
	7.911283	47.39957
	7.910969	47.3994
	7.909738	47.39852
	7.908618	47.39884
	7.906586	47.39984
	7.90532	47.40083
	7.903836	47.40246
	7.901908	47.40204
	7.90083	47.40074
	7.90049	47.40103
	7.900031	47.40119
	7.899564	47.40145
	7.898886	47.40167
	7.897469	47.40259
	7.89431	47.40445
	7.890222	47.40714
	7.888567	47.40727
	7.887537	47.40709
	7.885213	47.40631
	7.883332	47.4061
	7.883301	47.40558
	7.884106	47.40487
	7.883454	47.40383
	7.883579	47.40357
	7.884285	47.40319
	7.883783	47.40285
	7.883238	47.40223
	7.883443	47.4012
	7.88181	47.40072
	7.880277	47.40147
	7.879803	47.40172
	7.877703	47.40126
	7.875278	47.39759
	7.872003	47.3968
	7.869137	47.39551
	7.871945	47.39125
	7.872383	47.39112
	7.872377	47.39107
	7.872617	47.39086
	7.872711	47.39085
	7.87297	47.39067
	7.873549	47.3901
	7.873671	47.39012
	7.873896	47.39003
	7.874581	47.39017
	7.874887	47.39016
	7.876101	47.39038
	7.876665	47.39033
	7.876808	47.39027
	7.87707	47.39003
	7.877128	47.3899
	7.877079	47.38974
	7.877193	47.38957
	7.877124	47.38951
	7.877341	47.38905
	7.877492	47.38896
	7.877931	47.38887
	7.878229	47.38887
	7.878285	47.38879
	7.878248	47.38859
	7.878344	47.38846
	7.878487	47.38846
	7.879119	47.38823
	7.879435	47.38799
	7.8794	47.38796
	7.879549	47.3876
	7.879649	47.38755
	7.879738	47.38735
	7.879461	47.38686
	7.879494	47.38674
	7.879342	47.38639
	7.879304	47.38633
	7.879144	47.38627
	7.878859	47.38595
	7.878891	47.38583
	7.879193	47.38554
	7.879154	47.38545
	7.879213	47.38542
	7.879132	47.38532
	7.879184	47.3851
	7.879148	47.38496
	7.879449	47.38459
	7.879626	47.38449
	7.878812	47.38351
	7.876101	47.38447
	7.874001	47.38375
	7.872597	47.38318
	7.871572	47.38268
	7.870392	47.38224
	7.86917	47.3815
	7.868565	47.38127
	7.867565	47.38154
	7.86424	47.3818
	7.863058	47.38198
	7.86265	47.38199
	7.86205	47.38184
	7.859841	47.38114
	7.85999	47.38023
	7.858722	47.37975
	7.84997	47.37835
	7.848969	47.37734
	7.848582	47.37721
	7.848396	47.37707
	7.847351	47.37673
	7.846228	47.37645
	7.845334	47.3763
	7.844869	47.37615
	7.844386	47.37615
	7.843065	47.37586
	7.842631	47.37571
	7.842201	47.3755
	7.841847	47.37541
	7.840119	47.37476
	7.839478	47.37415
	7.838987	47.37381
	7.838472	47.37351
	7.837585	47.37314
	7.837122	47.37277
	7.836919	47.37271
	7.836872	47.37246
	7.836507	47.37183
	7.836566	47.37166
	7.8365	47.37134
	7.834932	47.36991
	7.833625	47.36748
	7.83302	47.36697
	7.832603	47.3664
	7.831953	47.366
	7.831888	47.36587
	7.831725	47.36575
	7.831364	47.36565
	7.831073	47.36541
	7.830547	47.36512
	7.830159	47.36519
	7.829764	47.36497
	7.829488	47.36495
	7.829035	47.36479
	7.827486	47.36455
	7.826996	47.36433
	7.82558	47.36407
	7.823697	47.36397
	7.823075	47.36381
	7.822062	47.36338
	7.822079	47.36321
	7.821131	47.36317
	7.820594	47.36319
	7.819607	47.36299
	7.819215	47.36295
	7.818071	47.36288
	7.817029	47.36292
	7.816755	47.36289
	7.816368	47.36277
	7.815484	47.36272
	7.814958	47.36284
	7.814554	47.36284
	7.81389	47.36278
	7.81304	47.3628
	7.812299	47.3627
	7.811855	47.36282
	7.811324	47.3628
	7.810517	47.36289
	7.809237	47.36239
	7.807613	47.36231
	7.806253	47.36232
	7.805383	47.36239
	7.802167	47.3611
	7.797661	47.35579
	7.796366	47.35347
	7.795006	47.34977
	7.795288	47.34722
	7.795147	47.34723
	7.79302	47.34448
	7.793124	47.34426
	7.793167	47.34399
	7.793229	47.34374
	7.79334	47.34342
	7.793481	47.34314
	7.793632	47.3429
	7.793825	47.34265
	7.794038	47.34243
	7.794256	47.34224
	7.793484	47.33953
	7.793561	47.33905
	7.787724	47.33822
	7.785288	47.33788
	7.785238	47.33893
	7.784817	47.33909
	7.784144	47.33916
	7.783701	47.3393
	7.782974	47.33932
	7.782379	47.33957
	7.780567	47.33941
	7.779699	47.3392
	7.77865	47.33931
	7.777602	47.3392
	7.776592	47.33932
	7.776373	47.33943
	7.7762	47.33946
	7.775428	47.3395
	7.773983	47.33948
	7.772888	47.33939
	7.771808	47.33906
	7.770898	47.33894
	7.770581	47.3388
	7.770326	47.33877
	7.769631	47.33887
	7.768963	47.33891
	7.769224	47.34145
	7.766419	47.34273
	7.76404	47.34264
	7.754192	47.34317
	7.751519	47.34433
	7.74282	47.34971
	7.74018	47.3521
	7.734153	47.35776
	7.731802	47.3619
	7.732068	47.36217
	7.732189	47.36233
	7.732457	47.36278
	7.73265	47.36328
	7.732747	47.36412
	7.732502	47.36494
	7.732475	47.36499
	7.731951	47.3656
	7.73126	47.36597
	7.731164	47.366
	7.730086	47.36623
	7.729543	47.36588
	7.729005	47.36683
	7.727914	47.36886
	7.726818	47.3689
	7.718379	47.37017
	7.717451	47.37035
	7.716494	47.37046
	7.716297	47.37056
	7.713973	47.3709
	7.712578	47.37091
	7.711984	47.37097
	7.711205	47.3712
	7.709602	47.37137
	7.708548	47.3716
	7.707553	47.37172
	7.706636	47.37177
	7.7061	47.37188
	7.705281	47.37195
	7.702924	47.37234
	7.701954	47.37245
	7.70036	47.3723
	7.687545	47.37118
	7.682519	47.37078
	7.680988	47.37062
	7.678937	47.3705
	7.674365	47.36987
	7.664475	47.36887
	7.655694	47.36808
	7.650257	47.36768
	7.647279	47.36752
	7.644203	47.36721
	7.643511	47.37033
	7.643309	47.37194
	7.643037	47.37297
	7.64287	47.37331
	7.642954	47.37421
	7.643122	47.37509
	7.643002	47.37531
	7.643181	47.37547
	7.642669	47.37616
	7.642054	47.37676
	7.642033	47.37707
	7.64212	47.37736
	7.641934	47.37778
	7.641567	47.37798
	7.641384	47.37819
	7.64104	47.37829
	7.641644	47.37937
	7.641761	47.38047
	7.641124	47.38055
	7.639351	47.38058
	7.637563	47.38069
	7.637218	47.38066
	7.636706	47.3807
	7.636337	47.38061
	7.636109	47.38065
	7.63558	47.38059
	7.633317	47.38291
	7.632902	47.38464
	7.633305	47.38534
	7.635054	47.38566
	7.636258	47.38578
	7.637251	47.38607
	7.63673	47.38763
	7.635496	47.39532
	7.635088	47.40031
	7.63389	47.406
	7.632723	47.41003
	7.639685	47.41002
	7.657542	47.40908
	7.661506	47.40977
	7.664055	47.41002
	7.673847	47.41506
	7.679802	47.41751
	7.683012	47.42516
	7.684122	47.42745
	7.68469	47.42867
	7.684585	47.43047
	7.686035	47.43264
	7.686579	47.43366
	7.685605	47.43639
	7.682972	47.43872
	7.683047	47.43969
	7.683358	47.44049
	7.68367	47.44076
	7.683487	47.44224
	7.685005	47.44758
	7.684854	47.44784
	7.685743	47.44857
	7.686656	47.44974
	7.689795	47.45171
	7.690343	47.45199
	7.690726	47.45224
	7.690813	47.45246
	7.691077	47.45259
	7.691121	47.45277
	7.691452	47.45312
	7.691507	47.45334
	7.69172	47.45355
	7.691765	47.45374
	7.691966	47.45399
	7.692097	47.45404
	7.692273	47.45421
	7.692476	47.45425
	7.69264	47.4544
	7.694224	47.4548
	7.69497	47.45484
	7.695283	47.4548
	7.695622	47.45482
	7.695988	47.45506
	7.69628	47.45502
	7.696658	47.45531
	7.697322	47.4552
	7.697472	47.45525
	7.698133	47.4553
	7.698831	47.45586
	7.699081	47.45632
	7.699186	47.45689
	7.699169	47.45734
	7.699051	47.45781
	7.698667	47.45874
	7.698734	47.4591
	7.69867	47.45918
	7.698641	47.45944
	7.698758	47.45948
	7.698731	47.45962
	7.698879	47.45963
	7.698919	47.45988
	7.699097	47.45992
	7.699337	47.46009
	7.699312	47.46042
	7.69938	47.46049
	7.699261	47.46053
	7.699499	47.46077
	7.699528	47.46092
	7.699464	47.46098
	7.699677	47.46099
	7.699663	47.46107
	7.699732	47.46115
	7.699856	47.46111
	7.699963	47.46116
	7.699962	47.4614
	7.699892	47.46142
	7.699824	47.46163
	7.699901	47.46166
	7.699843	47.46176
	7.699931	47.46191
	7.700104	47.46208
	7.702419	47.46352
	7.702366	47.46369
	7.702607	47.46376
	7.703011	47.46403
	7.70337	47.46442
	7.703417	47.46469
	7.703332	47.4648
	7.703599	47.46493
	7.703703	47.46505
	7.703845	47.46502
	7.703887	47.46504
	7.70375	47.46548
	7.703863	47.46552
	7.704048	47.46546
	7.704267	47.46563
	7.704544	47.46567
	7.70455	47.46572
	7.704393	47.46582
	7.704498	47.46592
	7.704522	47.4661
	7.704871	47.46625
	7.70487	47.46636
	7.704969	47.46649
	7.705188	47.46658
	7.705145	47.46674
	7.705421	47.46685
	7.705565	47.46681
	7.705645	47.46689
	7.705529	47.46706
	7.705653	47.46729
	7.705822	47.46742
	7.70584	47.46766
	7.706048	47.46769
	7.706122	47.46775
	7.706065	47.46787
	7.706229	47.46812
	7.706244	47.46824
	7.706608	47.46858
	7.706729	47.46861
	7.70696	47.46856
	7.707249	47.46876
	7.707416	47.46876
	7.707865	47.46892
	7.708044	47.46904
	7.708006	47.46913
	7.708058	47.46919
	7.708292	47.46927
	7.708317	47.46939
	7.708543	47.46952
	7.709014	47.46961
	7.709359	47.46951
	7.709609	47.46934
	7.709878	47.46938
	7.707913	47.4726
	7.706227	47.47483
	7.705386	47.47585
	7.705107	47.47613
	7.702411	47.47789
	7.700745	47.47961
	7.70025	47.47994
	7.699761	47.48063
	7.696207	47.48179
	7.691019	47.4816
	7.684014	47.48291
	7.67698	47.48504
	7.671724	47.48452
	7.669882	47.48548
	7.668327	47.48635
	7.666716	47.48859
	7.665419	47.49149
	7.66636	47.49477
	7.666163	47.49596
	7.666121	47.49687
	7.662886	47.49607
	7.661647	47.49628
	7.660565	47.49611
	7.659423	47.49538
	7.658177	47.4953
	7.656061	47.49561
	7.655264	47.49581
	7.653364	47.49607
	7.652171	47.49581
	7.650684	47.49457
	7.649475	47.49302
	7.648646	47.49183
	7.649882	47.49183
	7.650183	47.49101
	7.651676	47.49085
	7.652146	47.49055
	7.652685	47.49049
	7.653121	47.49062
	7.653596	47.49097
	7.654592	47.49047
	7.65539	47.49021
	7.655059	47.48991
	7.654504	47.48974
	7.653701	47.48927
	7.653029	47.48895
	7.652438	47.48874
	7.650573	47.48836
	7.650514	47.48826
	7.653221	47.48798
	7.655926	47.48739
	7.653666	47.48637
	7.650983	47.48572
	7.650279	47.48538
	7.649687	47.48521
	7.647281	47.48481
	7.646318	47.48512
	7.645718	47.48524
	7.644423	47.48564
	7.643093	47.48415
	7.642144	47.48328
	7.640966	47.48273
	7.636179	47.48403
	7.632601	47.48444
	7.630155	47.48445
	7.629644	47.48432
	7.627201	47.4849
	7.626085	47.48543
	7.625281	47.48608
	7.624409	47.48644
	7.624307	47.48658
	7.624146	47.48667
	7.621804	47.48721
	7.620547	47.48746
	7.619678	47.48779
	7.619402	47.48794
	7.619099	47.488
	7.61672	47.48887
	7.615996	47.48899
	7.614937	47.48924
	7.614495	47.48928
	7.614007	47.48918
	7.613593	47.4889
	7.613047	47.48868
	7.612948	47.4887
	7.612884	47.48861
	7.612266	47.48894
	7.611767	47.48894
	7.611772	47.48885
	7.611397	47.48883
	7.611391	47.48888
	7.610777	47.48885
	7.61075	47.48912
	7.610657	47.48912
	7.610628	47.4894
	7.610384	47.48939
	7.6104	47.48924
	7.610295	47.48923
	7.610336	47.48883
	7.610298	47.48879
	7.610054	47.48875
	7.609843	47.48917
	7.609726	47.4891
	7.609191	47.48917
	7.609045	47.48912
	7.608931	47.48927
	7.6073	47.4894
	7.607396	47.48833
	7.608046	47.48553
	7.608257	47.48498
	7.608581	47.48445
	7.608802	47.48391
	7.60885	47.48353
	7.608768	47.48314
	7.608344	47.48214
	7.608111	47.48184
	7.607733	47.48158
	7.606655	47.48114
	7.606345	47.48092
	7.606105	47.48068
	7.605774	47.48011
	7.605631	47.47936
	7.605709	47.47885
	7.606409	47.47674
	7.606401	47.47623
	7.606196	47.47556
	7.608149	47.47521
	7.607773	47.47445
	7.607331	47.47378
	7.604524	47.47054
	7.604495	47.47045
	7.605846	47.47012
	7.608477	47.46996
	7.611033	47.47001
	7.611378	47.46993
	7.612018	47.46956
	7.6124	47.46924
	7.61313	47.4689
	7.614178	47.46861
	7.616844	47.46758
	7.618422	47.46753
	7.618873	47.46745
	7.620011	47.4669
	7.620335	47.46644
	7.620825	47.46607
	7.622499	47.46522
	7.624827	47.46319
	7.626072	47.46291
	7.624229	47.46155
	7.622173	47.46195
	7.62205	47.45923
	7.622602	47.45714
	7.622027	47.45567
	7.621182	47.45432
	7.620262	47.45225
	7.619897	47.45123
	7.620085	47.4511
	7.619977	47.45064
	7.61944	47.44959
	7.618859	47.44901
	7.618528	47.44814
	7.618588	47.44795
	7.618441	47.44777
	7.618506	47.44765
	7.617272	47.4468
	7.616465	47.44523
	7.616525	47.44447
	7.616435	47.44408
	7.616471	47.44183
	7.615262	47.43957
	7.616135	47.43762
	7.615828	47.43335
	7.615799	47.43275
	7.61402	47.43335
	7.611392	47.43279
	7.607423	47.43266
	7.602156	47.43125
	7.598569	47.43213
	7.593998	47.43237
	7.592069	47.43271
	7.584907	47.42862
	7.581207	47.42878
	7.579298	47.43019
	7.579394	47.43026
	7.579402	47.43067
	7.579614	47.43083
	7.579655	47.43104
	7.579825	47.43115
	7.579979	47.43144
	7.5801	47.43205
	7.578974	47.43226
	7.57765	47.43244
	7.57831	47.43378
	7.578423	47.43491
	7.577324	47.43541
	7.576526	47.43608
	7.5757	47.43646
	7.575614	47.43675
	7.57476	47.43656
	7.5739	47.43645
	7.573211	47.43641
	7.572733	47.43645
	7.572485	47.4366
	7.571873	47.43659
	7.571593	47.43647
	7.570692	47.43656
	7.570352	47.43666
	7.568904	47.4369
	7.568865	47.43686
	7.568589	47.43669
	7.568526	47.43658
	7.568906	47.43591
	7.569217	47.43447
	7.56916	47.43425
	7.568842	47.43382
	7.568783	47.43328
	7.568958	47.43267
	7.568778	47.43242
	7.568748	47.43213
	7.569017	47.43182
	7.56912	47.4315
	7.569019	47.43136
	7.569019	47.43113
	7.56918	47.43097
	7.569166	47.43078
	7.569266	47.43045
	7.569002	47.43003
	7.569008	47.42947
	7.568694	47.42897
	7.56857	47.42846
	7.568383	47.42827
	7.568325	47.42812
	7.568371	47.42768
	7.568276	47.42711
	7.568045	47.42675
	7.567698	47.42646
	7.567517	47.42597
	7.567868	47.42519
	7.56776	47.42487
	7.568296	47.42423
	7.568333	47.42372
	7.568491	47.42338
	7.568499	47.42322
	7.568404	47.42301
	7.568202	47.4228
	7.568221	47.4225
	7.568295	47.42233
	7.568557	47.4221
	7.568885	47.42214
	7.569193	47.42189
	7.569125	47.42183
	7.569197	47.4215
	7.569408	47.42119
	7.569452	47.42087
	7.569543	47.42071
	7.570228	47.42047
	7.57046	47.42032
	7.570576	47.42011
	7.571114	47.41965
	7.57151	47.41941
	7.571779	47.41931
	7.57271	47.41912
	7.573285	47.41946
	7.574015	47.41952
	7.574136	47.4195
	7.575748	47.41894
	7.576501	47.4184
	7.577682	47.41778
	7.578369	47.4176
	7.578911	47.41721
	7.578998	47.4171
	7.579028	47.41677
	7.579333	47.41632
	7.579297	47.41618
	7.579385	47.41621
	7.579459	47.41582
	7.579757	47.41578
	7.58021	47.41522
	7.580672	47.41482
	7.580741	47.4147
	7.580659	47.41468
	7.576801	47.41415
	7.566072	47.41341
	7.559253	47.41388
	7.556311	47.41425
	7.551147	47.41435
	7.543079	47.41403
	7.534741	47.41331
	7.53117	47.41273
	7.526136	47.41185
	7.526053	47.4119
	7.525235	47.41163
	7.527065	47.41002
	7.527418	47.40924
	7.527314	47.40851
	7.527652	47.4083
	7.528032	47.4079
	7.528748	47.4076
	7.529854	47.40641
	7.530485	47.40584
	7.530619	47.4056
	7.53088	47.40535
	7.531196	47.40491
	7.53108	47.40466
	7.531244	47.40434
	7.531172	47.40353
	7.530932	47.40348
	7.530879	47.40306
	7.530658	47.4024
	7.530433	47.40209
	7.529016	47.40113
	7.526296	47.3984
	7.521366	47.3912
	7.520394	47.39026
	7.518617	47.38822
	7.517224	47.38851
	7.51628	47.38865
	7.515915	47.38881
	7.514162	47.38916
	7.513503	47.38937
	7.511672	47.38947
	7.511296	47.38974
	7.51071	47.38956
	7.510004	47.389
	7.506184	47.38684
	7.50571	47.38669
	7.505284	47.38642
	7.504944	47.38613
	7.503696	47.38552
	7.50305	47.38502
	7.502256	47.38481
	7.501377	47.38466
	7.50081	47.38459
	7.498264	47.38449
	7.497741	47.38453
	7.493418	47.38517
	7.492328	47.38523
	7.490845	47.38561
	7.490367	47.38575
	7.488331	47.38623
	7.486075	47.387
	7.485896	47.38699
	7.485698	47.38712
	7.485084	47.38729
	7.484917	47.38744
	7.484777	47.38889
	7.483577	47.38918
	7.483372	47.38919
	7.482685	47.38899
	7.482211	47.38897
	7.481097	47.38875
	7.480955	47.38892
	7.480489	47.38897
	7.480426	47.38902
	7.480281	47.38943
	7.480147	47.38956
	7.479538	47.38959
	7.479236	47.38971
	7.479087	47.39002
	7.478892	47.39026
	7.47841	47.39056
	7.478187	47.39146
	7.477728	47.3917
	7.477535	47.39191
	7.477492	47.39231
	7.477761	47.39289
	7.477583	47.39337
	7.477577	47.39359
	7.47734	47.39384
	7.477301	47.39424
	7.477367	47.39522
	7.477298	47.39544
	7.477185	47.39546
	7.476797	47.39599
	7.476822	47.39619
	7.477198	47.39669
	7.477247	47.39696
	7.477229	47.39723
	7.477049	47.39765
	7.477043	47.39786
	7.477511	47.39839
	7.477376	47.39899
	7.477361	47.4003
	7.477316	47.40031
	7.477351	47.40103
	7.477468	47.40128
	7.47664	47.4009
	7.474012	47.4004
	7.472759	47.40027
	7.471329	47.40035
	7.470601	47.40049
	7.470071	47.40064
	7.46645	47.402
	7.465751	47.40221
	7.465511	47.40232
	7.464922	47.40249
	7.464484	47.40252
	7.464157	47.40245
	7.463925	47.40235
	7.463507	47.40201
	7.46326	47.40128
	7.463158	47.40111
	7.462928	47.40091
	7.46203	47.40077
	7.461868	47.4007
	7.461299	47.40066
	7.46092	47.40068
	7.460809	47.40071
	7.460279	47.40102
	7.45926	47.40124
	7.457766	47.40122
	7.457423	47.40126
	7.457152	47.40138
	7.456797	47.40171
	7.45651	47.40225
	7.456434	47.40242
	7.456374	47.40304
	7.456157	47.40344
	7.45574	47.40376
	7.454759	47.40413
	7.454555	47.40416
	7.453904	47.40409
	7.453228	47.40387
	7.45273	47.4038
	7.451993	47.40379
	7.450021	47.40393
	7.449654	47.40385
	7.449577	47.40365
	7.449582	47.40336
	7.449709	47.40268
	7.449846	47.40244
	7.450039	47.40226
	7.450784	47.4017
	7.450876	47.40122
	7.450575	47.40053
	7.450117	47.40002
	7.449513	47.39976
	7.448713	47.39957
	7.447982	47.39956
	7.447418	47.39963
	7.446781	47.39979
	7.44599	47.40008
	7.445424	47.40034
	7.445092	47.40057
	7.444949	47.40077
	7.444795	47.40128
	7.444469	47.40166
	7.444292	47.40197
	7.444053	47.40217
	7.443401	47.40231
	7.443251	47.40225
	7.442947	47.402
	7.442108	47.40083
	7.441311	47.40018
	7.441683	47.39993
	7.441887	47.39941
	7.441789	47.39902
	7.441498	47.39848
	7.441407	47.39812
	7.441537	47.39792
	7.442634	47.39687
	7.443204	47.39615
	7.44311	47.3959
	7.442692	47.39557
	7.442595	47.39532
	7.442327	47.39515
	7.44225	47.39501
	7.442694	47.39335
	7.44297	47.39188
	7.443222	47.39135
	7.443313	47.39093
	7.443156	47.38986
	7.443175	47.38955
	7.443567	47.3889
	7.442006	47.38838
	7.439037	47.38601
	7.438953	47.38522
	7.439072	47.38506
	7.438825	47.38463
	7.438164	47.38381
	7.437825	47.38323
	7.437922	47.38288
	7.437937	47.38177
	7.437324	47.38089
	7.433679	47.3794
	7.431224	47.37947
	7.428539	47.3794
	7.427449	47.37948
	7.42495	47.37952
	7.41994	47.37988
	7.411693	47.38057
	7.416276	47.38479
	7.41383	47.38865
	7.413585	47.38944
	7.413813	47.39203
	7.413885	47.39336
	7.414805	47.39396
	7.414494	47.3943
	7.413941	47.39453
	7.413325	47.3947
	7.412727	47.39481
	7.411522	47.39471
	7.410773	47.39471
	7.410361	47.39475
	7.408851	47.39506
	7.407497	47.39505
	7.405875	47.39515
	7.405148	47.39533
	7.403659	47.39605
	7.4014	47.39676
	7.400661	47.39686
	7.398936	47.39684
	7.398891	47.39709
	7.397756	47.39915
	7.397414	47.40013
	7.395991	47.40305
	7.39592	47.40338
	7.39526	47.40344
	7.393778	47.40334
	7.39179	47.40302
	7.388694	47.40302
	7.388234	47.40363
	7.387712	47.40418
	7.387266	47.40502
	7.386189	47.40735
	7.385186	47.40899
	7.384575	47.41034
	7.384055	47.41236
	7.379474	47.41278
	7.378022	47.41314
	7.375946	47.4141
	7.376586	47.41402
	7.377592	47.41407
	7.377846	47.41401
	7.378426	47.41397
	7.379562	47.41377
	7.380228	47.41371
	7.380688	47.41349
	7.381528	47.41331
	7.381796	47.41329
	7.38499	47.41353
	7.385607	47.41362
	7.385671	47.41386
	7.386902	47.4138
	7.387253	47.41387
	7.387599	47.41405
	7.388038	47.41401
	7.38949	47.41364
	7.390904	47.41347
	7.391573	47.41349
	7.391923	47.41333
	7.392398	47.41331
	7.393822	47.41304
	7.394182	47.4132
	7.395057	47.41312
	7.395257	47.41295
	7.395872	47.41297
	7.395976	47.41285
	7.396373	47.41287
	7.396675	47.4128
	7.396947	47.41287
	7.398231	47.41256
	7.398947	47.41243
	7.399518	47.41225
	7.400263	47.4121
	7.400448	47.41212
	7.401465	47.41189
	7.40258	47.41179
	7.403142	47.41183
	7.40459	47.41171
	7.405193	47.4115
	7.40765	47.41118
	7.408252	47.41128
	7.409788	47.41124
	7.410027	47.41132
	7.410367	47.41135
	7.411125	47.41124
	7.411617	47.41123
	7.412013	47.4111
	7.412558	47.411
	7.413708	47.41093
	7.415381	47.41105
	7.416562	47.41107
	7.417019	47.41111
	7.417056	47.41121
	7.417882	47.41111
	7.418442	47.41113
	7.419541	47.41107
	7.420744	47.4111
	7.42128	47.41136
	7.421514	47.41166
	7.423325	47.41306
	7.424568	47.41331
	7.425262	47.41332
	7.425726	47.41339
	7.426893	47.41389
	7.427483	47.41448
	7.428468	47.41435
	7.429639	47.41431
	7.431298	47.41414
	7.432573	47.4139
	7.434641	47.41323
	7.435111	47.41315
	7.43536	47.41305
	7.435942	47.41294
	7.436139	47.41294
	7.436687	47.41281
	7.437283	47.41286
	7.438106	47.41274
	7.439126	47.41292
	7.439718	47.41309
	7.439748	47.41313
	7.440285	47.41317
	7.440887	47.41329
	7.441137	47.41338
	7.441764	47.41343
	7.442131	47.41337
	7.443757	47.41344
	7.444509	47.41362
	7.445152	47.4139
	7.446078	47.41407
	7.447032	47.41432
	7.447491	47.41448
	7.448397	47.41507
	7.448512	47.41571
	7.448915	47.41624
	7.449793	47.41719
	7.450229	47.41752
	7.450357	47.41777
	7.450278	47.41805
	7.450273	47.41839
	7.450459	47.419
	7.450313	47.41952
	7.451777	47.42273
	7.452951	47.4238
	7.454655	47.42546
	7.455577	47.42792
	7.455082	47.4286
	7.455014	47.42912
	7.453595	47.42992
	7.452833	47.43075
	7.452381	47.43102
	7.452142	47.43138
	7.452045	47.4319
	7.45204	47.43249
	7.451822	47.43283
	7.451499	47.43312
	7.451044	47.43377
	7.450994	47.43447
	7.451085	47.43469
	7.450619	47.43534
	7.448404	47.43773
	7.445723	47.43917
	7.443178	47.44115
	7.442162	47.44233
	7.439885	47.4435
	7.439497	47.44337
	7.438654	47.44424
	7.439337	47.44451
	7.438816	47.44502
	7.43905	47.44515
	7.437843	47.44632
	7.447698	47.44936
	7.454812	47.44923
	7.456512	47.44926
	7.462438	47.45144
	7.466547	47.4528
	7.46814	47.45391
	7.470909	47.45448
	7.476861	47.45542
	7.480507	47.45549
	7.484526	47.45721
	7.484723	47.45739
	7.486731	47.4579
	7.492357	47.45897
	7.49394	47.45909
	7.495046	47.4593
	7.496345	47.4594
	7.496956	47.45965
	7.498211	47.45969
	7.503035	47.45913
	7.505234	47.45872
	7.506407	47.45865
	7.509828	47.45867
	7.510481	47.45877
	7.511097	47.45893
	7.514409	47.46034
	7.515091	47.46056
	7.517453	47.46102
	7.523282	47.46099
	7.527839	47.46103
	7.530679	47.46119
	7.530254	47.46253
	7.529115	47.46677
	7.527912	47.4716
	7.527445	47.47391
	7.528258	47.47594
	7.528811	47.47711
	7.529114	47.47795
	7.529763	47.478
	7.530316	47.47832
	7.53312	47.47829
	7.534027	47.48011
	7.53426	47.4807
	7.53506	47.48203
	7.536261	47.48384
	7.536327	47.48383
	7.536696	47.48505
	7.53597	47.48524
	7.53621	47.48813
	7.53632	47.48865
	7.536231	47.49105
	7.532604	47.49097
	7.532684	47.49316
	7.532526	47.49544
	7.531789	47.4974
	7.529636	47.49726
	7.527679	47.49724
	7.526389	47.49712
	7.526381	47.49715
	7.523809	47.49688
	7.521624	47.49678
	7.520038	47.49678
	7.519062	47.49694
	7.515242	47.49774
	7.514756	47.49777
	7.514099	47.499
	7.512322	47.49887
	7.512226	47.49892
	7.511665	47.5027
	7.510447	47.50263
END
END
