Switzerland_Espace Mittelland_East
1
	7.825107	47.26557
	7.825514	47.26516
	7.825486	47.26492
	7.825544	47.26464
	7.825673	47.26448
	7.825752	47.26445
	7.827117	47.26455
	7.827476	47.26451
	7.82776	47.26432
	7.827714	47.26403
	7.827142	47.26353
	7.827106	47.26326
	7.827154	47.26319
	7.827294	47.26315
	7.827691	47.26317
	7.828318	47.2631
	7.828487	47.26303
	7.828622	47.26284
	7.828559	47.2627
	7.827933	47.26232
	7.82736	47.26185
	7.827135	47.2614
	7.827173	47.26126
	7.827482	47.26101
	7.827812	47.26099
	7.828205	47.26104
	7.828383	47.26111
	7.828945	47.26104
	7.829094	47.26096
	7.829256	47.26077
	7.829361	47.26053
	7.829329	47.26015
	7.829917	47.25973
	7.829939	47.25975
	7.830091	47.25967
	7.830384	47.2593
	7.830402	47.25912
	7.830177	47.25887
	7.829476	47.25883
	7.829234	47.25878
	7.828994	47.25857
	7.828908	47.2584
	7.828896	47.25819
	7.829093	47.25737
	7.829811	47.25572
	7.829838	47.25552
	7.829564	47.25518
	7.828935	47.25516
	7.828592	47.25503
	7.829044	47.2545
	7.82904	47.25442
	7.828995	47.25443
	7.829075	47.25435
	7.828407	47.25383
	7.827869	47.25362
	7.827772	47.2535
	7.827666	47.25286
	7.827465	47.25266
	7.82732	47.25257
	7.827145	47.25253
	7.826492	47.25261
	7.82615	47.25213
	7.82602	47.25181
	7.826198	47.25157
	7.826799	47.25104
	7.827531	47.25075
	7.827943	47.25042
	7.828053	47.25024
	7.828065	47.24985
	7.827974	47.24978
	7.827433	47.24964
	7.826687	47.24904
	7.825935	47.24886
	7.825682	47.24869
	7.825757	47.24862
	7.825989	47.24856
	7.826205	47.24844
	7.826509	47.24821
	7.826504	47.24815
	7.826356	47.24813
	7.826427	47.24796
	7.82629	47.24782
	7.826607	47.24725
	7.826479	47.24715
	7.826218	47.24707
	7.82609	47.24693
	7.826118	47.24685
	7.826541	47.24655
	7.826687	47.24638
	7.826689	47.24606
	7.826809	47.24571
	7.827182	47.24542
	7.827582	47.2449
	7.827903	47.24464
	7.828217	47.2445
	7.828511	47.24454
	7.828637	47.2444
	7.82864	47.24432
	7.828453	47.24422
	7.828394	47.24409
	7.82846	47.24375
	7.828113	47.24347
	7.828104	47.24334
	7.828251	47.24302
	7.828395	47.24288
	7.82862	47.24294
	7.828953	47.24308
	7.829551	47.24344
	7.829757	47.24339
	7.830271	47.24299
	7.830581	47.24261
	7.830428	47.24242
	7.830422	47.24214
	7.830657	47.24162
	7.831211	47.24107
	7.831367	47.24071
	7.831738	47.24034
	7.832272	47.24015
	7.83233	47.24002
	7.832261	47.23971
	7.832368	47.23967
	7.833042	47.23976
	7.833482	47.23948
	7.833366	47.23889
	7.833638	47.2388
	7.833904	47.23862
	7.834283	47.23798
	7.834181	47.23773
	7.834211	47.23768
	7.83447	47.23755
	7.835138	47.23742
	7.835954	47.23704
	7.836924	47.23689
	7.837008	47.23682
	7.83701	47.23673
	7.836833	47.23644
	7.83698	47.23617
	7.837299	47.23582
	7.837403	47.23574
	7.837745	47.23562
	7.838193	47.23511
	7.838665	47.23482
	7.838841	47.23473
	7.838926	47.23448
	7.838304	47.23423
	7.837836	47.2337
	7.837816	47.23361
	7.838071	47.23329
	7.838185	47.23304
	7.838117	47.23298
	7.837958	47.23294
	7.837732	47.23303
	7.837556	47.23301
	7.837448	47.23288
	7.837381	47.23242
	7.837422	47.23232
	7.83762	47.23216
	7.838211	47.23192
	7.838328	47.23179
	7.83767	47.23131
	7.837405	47.23118
	7.83716	47.2309
	7.837215	47.23059
	7.837687	47.23018
	7.837715	47.23007
	7.837593	47.22986
	7.836922	47.22957
	7.83671	47.22932
	7.836671	47.22918
	7.836973	47.22888
	7.836864	47.22858
	7.83696	47.22833
	7.836942	47.22822
	7.836477	47.22769
	7.836596	47.22754
	7.837	47.22757
	7.837298	47.2275
	7.837443	47.22736
	7.837537	47.22715
	7.837498	47.22707
	7.837303	47.22697
	7.836729	47.22704
	7.836628	47.227
	7.836577	47.22689
	7.837022	47.22663
	7.837165	47.22612
	7.837232	47.22541
	7.837164	47.22525
	7.837372	47.22481
	7.837265	47.22467
	7.837039	47.22462
	7.836718	47.22467
	7.836501	47.22456
	7.836413	47.22446
	7.836417	47.22438
	7.836653	47.22409
	7.836646	47.2238
	7.837041	47.2237
	7.837242	47.22358
	7.837289	47.2234
	7.837233	47.22325
	7.837136	47.22318
	7.837167	47.22311
	7.837726	47.22285
	7.838575	47.22305
	7.838818	47.22312
	7.838886	47.22309
	7.838929	47.22298
	7.839339	47.22285
	7.839643	47.22292
	7.839878	47.22288
	7.839972	47.22276
	7.839921	47.2227
	7.839585	47.22254
	7.839464	47.22242
	7.839797	47.22229
	7.840124	47.22226
	7.840424	47.2221
	7.84087	47.2222
	7.84101	47.22219
	7.841289	47.22204
	7.841364	47.22184
	7.841331	47.22169
	7.841413	47.22167
	7.841543	47.2217
	7.841677	47.22165
	7.84189	47.2213
	7.84189	47.22099
	7.841654	47.22074
	7.842058	47.22075
	7.842219	47.22101
	7.842434	47.22106
	7.842622	47.22093
	7.842531	47.22071
	7.842773	47.22055
	7.842753	47.22038
	7.84254	47.2202
	7.84254	47.22013
	7.842994	47.21997
	7.843376	47.22008
	7.843529	47.22008
	7.843679	47.22
	7.843723	47.21983
	7.843456	47.21969
	7.843242	47.21937
	7.843516	47.21916
	7.843244	47.21895
	7.843717	47.21833
	7.84371	47.21808
	7.844093	47.21795
	7.844148	47.21794
	7.844656	47.21765
	7.845259	47.21753
	7.845496	47.21764
	7.845737	47.21765
	7.84601	47.21745
	7.846477	47.21742
	7.846829	47.21731
	7.846909	47.21723
	7.846904	47.21703
	7.847079	47.21685
	7.847093	47.21662
	7.84729	47.21638
	7.847183	47.21625
	7.847034	47.21621
	7.846776	47.21601
	7.846756	47.21596
	7.846909	47.21566
	7.847058	47.21554
	7.847076	47.21545
	7.84703	47.21537
	7.846804	47.21522
	7.846667	47.21497
	7.846859	47.21484
	7.846976	47.21463
	7.847213	47.21452
	7.847272	47.21442
	7.847181	47.21401
	7.847232	47.21395
	7.847501	47.21384
	7.847879	47.21388
	7.847956	47.21381
	7.848135	47.2133
	7.848076	47.21316
	7.84821	47.21298
	7.848298	47.21267
	7.84838	47.21254
	7.848602	47.21241
	7.848729	47.21223
	7.848592	47.21211
	7.848349	47.21204
	7.848721	47.21151
	7.848589	47.21142
	7.848524	47.21122
	7.848986	47.21101
	7.848977	47.2109
	7.848748	47.21082
	7.848735	47.2107
	7.849058	47.21066
	7.849317	47.2104
	7.849205	47.21029
	7.849231	47.21016
	7.84919	47.21014
	7.849131	47.21013
	7.849142	47.2098
	7.84947	47.20972
	7.849762	47.20983
	7.849902	47.20983
	7.850321	47.20963
	7.850445	47.2093
	7.850407	47.20906
	7.850255	47.20882
	7.850323	47.20872
	7.850577	47.20875
	7.850749	47.20864
	7.850822	47.2085
	7.850974	47.20847
	7.851238	47.20858
	7.851566	47.20881
	7.851921	47.20842
	7.852061	47.20821
	7.852135	47.20779
	7.852155	47.20763
	7.852068	47.20754
	7.85208	47.20721
	7.852306	47.20701
	7.852289	47.20694
	7.852116	47.20681
	7.852044	47.2066
	7.852439	47.20632
	7.852578	47.20615
	7.853246	47.20595
	7.853415	47.20555
	7.853351	47.20538
	7.853729	47.20493
	7.854147	47.20468
	7.854195	47.20459
	7.854448	47.20444
	7.854336	47.20407
	7.854058	47.20393
	7.853821	47.20394
	7.853689	47.20386
	7.853617	47.20375
	7.853701	47.20358
	7.85363	47.20347
	7.853965	47.20323
	7.854088	47.20324
	7.85418	47.20347
	7.854442	47.20359
	7.854598	47.20358
	7.85466	47.20352
	7.854611	47.20326
	7.854431	47.20303
	7.854673	47.20273
	7.854841	47.20281
	7.85504	47.20282
	7.855262	47.20273
	7.855579	47.20235
	7.855842	47.20187
	7.856069	47.20181
	7.856009	47.20146
	7.855879	47.20139
	7.855891	47.20124
	7.856146	47.20106
	7.85628	47.20083
	7.856261	47.20071
	7.856359	47.20067
	7.856666	47.20072
	7.856802	47.20064
	7.856959	47.2004
	7.857252	47.2003
	7.857331	47.20012
	7.85745	47.20004
	7.857747	47.19996
	7.857729	47.19982
	7.857526	47.19971
	7.857686	47.19956
	7.857664	47.19951
	7.858596	47.19929
	7.859035	47.19909
	7.85928	47.19912
	7.859482	47.19908
	7.859933	47.19867
	7.860085	47.19832
	7.860019	47.19817
	7.859636	47.198
	7.859444	47.19799
	7.859394	47.19788
	7.859603	47.19764
	7.85959	47.1975
	7.859793	47.19729
	7.860033	47.19689
	7.85994	47.19659
	7.860083	47.19649
	7.860241	47.19649
	7.860284	47.1965
	7.860545	47.19621
	7.860553	47.19611
	7.860246	47.19572
	7.86043	47.19514
	7.860386	47.19501
	7.860074	47.19484
	7.860196	47.19477
	7.860341	47.19448
	7.860479	47.19444
	7.860611	47.19422
	7.860774	47.19416
	7.860842	47.19405
	7.860811	47.19393
	7.860416	47.19374
	7.860322	47.19362
	7.860206	47.19356
	7.859821	47.19352
	7.859492	47.19333
	7.859462	47.19302
	7.859592	47.19279
	7.859893	47.19266
	7.859979	47.19247
	7.859959	47.19238
	7.860335	47.19218
	7.860449	47.19204
	7.860787	47.19192
	7.860842	47.19189
	7.86096	47.19181
	7.8613	47.19149
	7.861803	47.19164
	7.861938	47.19164
	7.862266	47.19158
	7.862402	47.19142
	7.862561	47.19156
	7.862677	47.19153
	7.862986	47.19175
	7.86313	47.19179
	7.863252	47.19174
	7.863472	47.19158
	7.863541	47.19144
	7.863532	47.19124
	7.863451	47.19118
	7.863509	47.19107
	7.86387	47.19091
	7.863626	47.19067
	7.863573	47.19042
	7.86348	47.19038
	7.86351	47.19017
	7.864008	47.1899
	7.864294	47.18987
	7.864369	47.18993
	7.864689	47.18989
	7.864782	47.18974
	7.865113	47.18974
	7.865222	47.18955
	7.865311	47.1895
	7.865297	47.18935
	7.865198	47.18934
	7.864843	47.18904
	7.864831	47.1888
	7.864912	47.18871
	7.864917	47.18859
	7.864844	47.18851
	7.864923	47.18839
	7.865298	47.18817
	7.865606	47.18806
	7.86622	47.18799
	7.866293	47.18799
	7.866716	47.18789
	7.866733	47.18776
	7.867059	47.1875
	7.867411	47.1875
	7.867586	47.18739
	7.867559	47.18729
	7.86771	47.18701
	7.867791	47.18695
	7.868277	47.18686
	7.868362	47.18675
	7.86847	47.18675
	7.868611	47.18668
	7.869051	47.18632
	7.869159	47.18603
	7.869396	47.18579
	7.869299	47.18563
	7.869338	47.18559
	7.869445	47.18555
	7.869677	47.18558
	7.869748	47.18574
	7.870332	47.18547
	7.870668	47.18548
	7.870854	47.18537
	7.87119	47.18541
	7.87171	47.18496
	7.871916	47.18489
	7.872478	47.18482
	7.872736	47.1847
	7.872924	47.18436
	7.872899	47.18426
	7.872825	47.18416
	7.872561	47.18406
	7.872551	47.18399
	7.872891	47.18406
	7.873203	47.18418
	7.873676	47.18446
	7.873965	47.18426
	7.873925	47.18417
	7.874044	47.184
	7.87423	47.18392
	7.874374	47.1839
	7.874412	47.18385
	7.874355	47.18372
	7.874461	47.18366
	7.874841	47.18357
	7.8749	47.18342
	7.874974	47.18338
	7.875206	47.18339
	7.875496	47.18332
	7.875568	47.18326
	7.875871	47.18322
	7.875946	47.1831
	7.876143	47.18299
	7.876155	47.18293
	7.875956	47.18277
	7.876091	47.18262
	7.876226	47.18256
	7.876252	47.18239
	7.876192	47.18222
	7.876434	47.18208
	7.876554	47.18187
	7.876521	47.18166
	7.876599	47.18161
	7.87657	47.18151
	7.876633	47.18147
	7.876643	47.18135
	7.876957	47.18127
	7.876959	47.18109
	7.876846	47.18089
	7.876962	47.18069
	7.877158	47.18054
	7.877393	47.18045
	7.87772	47.1805
	7.878011	47.18039
	7.878003	47.1803
	7.878203	47.18014
	7.87821	47.18006
	7.877819	47.17992
	7.878078	47.17978
	7.878265	47.17978
	7.878339	47.17973
	7.878291	47.17965
	7.878494	47.17939
	7.879067	47.17937
	7.879224	47.1794
	7.879305	47.17922
	7.879526	47.17905
	7.87942	47.17892
	7.879348	47.17867
	7.879501	47.17855
	7.879476	47.17849
	7.879669	47.17839
	7.879711	47.17835
	7.879747	47.17831
	7.879731	47.17823
	7.879902	47.17806
	7.880389	47.17785
	7.880119	47.17772
	7.879493	47.17759
	7.879418	47.17753
	7.879556	47.17726
	7.879777	47.17692
	7.880146	47.17668
	7.880422	47.17638
	7.880956	47.17627
	7.881068	47.17615
	7.881076	47.17606
	7.880825	47.17563
	7.880496	47.17531
	7.880661	47.1748
	7.881176	47.17463
	7.881637	47.17458
	7.882042	47.17444
	7.882192	47.17429
	7.882139	47.17382
	7.882196	47.17377
	7.882398	47.1738
	7.882718	47.17394
	7.882878	47.17359
	7.882951	47.17351
	7.883132	47.17343
	7.883281	47.17319
	7.883211	47.17308
	7.883257	47.17274
	7.883133	47.17249
	7.883025	47.17245
	7.882941	47.17235
	7.882881	47.17212
	7.881742	47.17114
	7.881752	47.17104
	7.881391	47.17067
	7.880883	47.17031
	7.880647	47.17023
	7.880289	47.16997
	7.879723	47.16971
	7.879612	47.1696
	7.879491	47.16959
	7.879251	47.16947
	7.879012	47.16891
	7.879068	47.16867
	7.878957	47.16854
	7.878715	47.16851
	7.87863	47.16825
	7.878465	47.16811
	7.878512	47.16788
	7.878278	47.16785
	7.878012	47.1679
	7.877911	47.16793
	7.877844	47.16788
	7.877751	47.16758
	7.87752	47.16739
	7.877355	47.16727
	7.877122	47.16716
	7.876923	47.16713
	7.87681	47.16704
	7.876735	47.16677
	7.877174	47.16622
	7.877163	47.16608
	7.876972	47.16579
	7.876931	47.16558
	7.876715	47.16519
	7.876449	47.16498
	7.876334	47.16398
	7.875895	47.16362
	7.875821	47.1635
	7.875991	47.16322
	7.87598	47.16306
	7.875905	47.16286
	7.875673	47.1626
	7.875686	47.16186
	7.87538	47.16161
	7.875438	47.16144
	7.875932	47.16095
	7.876066	47.16072
	7.876038	47.16034
	7.876092	47.15991
	7.876047	47.1597
	7.87581	47.1595
	7.875813	47.15929
	7.875663	47.15915
	7.875774	47.15901
	7.87606	47.15821
	7.876047	47.15804
	7.875937	47.15788
	7.875978	47.15753
	7.876233	47.15744
	7.876221	47.15728
	7.876315	47.15707
	7.876225	47.1569
	7.876555	47.15654
	7.876294	47.15601
	7.876452	47.15576
	7.876568	47.15573
	7.876904	47.15538
	7.877122	47.15471
	7.877167	47.15433
	7.877447	47.15356
	7.877747	47.15317
	7.878022	47.15326
	7.878331	47.15267
	7.878733	47.15231
	7.878533	47.15213
	7.878528	47.15201
	7.879437	47.15088
	7.879448	47.15065
	7.880026	47.14973
	7.87966	47.1494
	7.880176	47.14914
	7.880365	47.14881
	7.88063	47.1485
	7.881019	47.14834
	7.881202	47.14817
	7.881076	47.14808
	7.881712	47.14781
	7.881956	47.14764
	7.882338	47.14747
	7.881895	47.14716
	7.881952	47.14708
	7.882169	47.14707
	7.882185	47.14702
	7.882343	47.14698
	7.882491	47.147
	7.882821	47.14686
	7.882714	47.14669
	7.883079	47.14659
	7.883141	47.14641
	7.883281	47.14626
	7.884532	47.14584
	7.88449	47.14546
	7.884614	47.14532
	7.885236	47.14491
	7.886232	47.14439
	7.887414	47.14364
	7.887287	47.14355
	7.887448	47.14334
	7.888692	47.14236
	7.889002	47.14189
	7.890097	47.14073
	7.889523	47.14048
	7.889606	47.14019
	7.889595	47.13997
	7.889552	47.13975
	7.889388	47.13969
	7.889358	47.13923
	7.889434	47.13902
	7.89001	47.13843
	7.890347	47.1378
	7.890579	47.13763
	7.890438	47.13712
	7.890182	47.13685
	7.890109	47.13662
	7.889304	47.13585
	7.889898	47.13585
	7.889793	47.13536
	7.890001	47.13458
	7.88975	47.1346
	7.889745	47.13456
	7.888784	47.13465
	7.888473	47.13444
	7.889797	47.13204
	7.889155	47.13183
	7.888123	47.13187
	7.887589	47.13177
	7.886492	47.13169
	7.886347	47.12889
	7.886176	47.12858
	7.885673	47.12853
	7.885088	47.12832
	7.884717	47.12828
	7.884333	47.12811
	7.884901	47.12763
	7.884568	47.12755
	7.881094	47.12641
	7.873525	47.12406
	7.873582	47.12398
	7.871284	47.12327
	7.870196	47.12283
	7.869236	47.12227
	7.868678	47.12184
	7.86819	47.12137
	7.867592	47.12058
	7.867316	47.12006
	7.867113	47.1195
	7.866978	47.11865
	7.866923	47.1166
	7.867054	47.11668
	7.868595	47.11698
	7.86877	47.11697
	7.869064	47.11679
	7.869371	47.11668
	7.869465	47.11611
	7.869877	47.11604
	7.870042	47.11591
	7.869815	47.11556
	7.869653	47.11409
	7.869352	47.11355
	7.869419	47.11353
	7.868145	47.11197
	7.868726	47.11179
	7.86947	47.11154
	7.870247	47.11136
	7.871009	47.11127
	7.871705	47.11109
	7.872805	47.11056
	7.87324	47.11054
	7.873436	47.11048
	7.873714	47.11034
	7.873963	47.11011
	7.874948	47.10944
	7.874909	47.10909
	7.874833	47.10895
	7.874697	47.10879
	7.874452	47.10872
	7.874265	47.10831
	7.874315	47.1081
	7.874123	47.10757
	7.874278	47.10726
	7.874226	47.10692
	7.87384	47.10651
	7.873706	47.10602
	7.872982	47.10537
	7.873068	47.10496
	7.872909	47.1043
	7.873388	47.10322
	7.87471	47.10349
	7.876189	47.10166
	7.875532	47.10099
	7.875443	47.10025
	7.874627	47.09986
	7.874808	47.09886
	7.873847	47.09849
	7.873955	47.09828
	7.873583	47.0981
	7.873592	47.09784
	7.874155	47.09749
	7.874327	47.09743
	7.874692	47.09762
	7.87495	47.09748
	7.875331	47.09735
	7.875462	47.09718
	7.875946	47.09718
	7.876379	47.09691
	7.876909	47.09675
	7.878331	47.09602
	7.879076	47.09586
	7.87913	47.09583
	7.87908	47.09567
	7.879508	47.09552
	7.879764	47.09482
	7.879634	47.09478
	7.879751	47.09452
	7.879311	47.09426
	7.879345	47.09421
	7.877902	47.09295
	7.879816	47.0919
	7.880482	47.08998
	7.880604	47.08926
	7.880931	47.08928
	7.881189	47.08926
	7.8817	47.0892
	7.882005	47.08914
	7.882074	47.08912
	7.882703	47.08881
	7.88346	47.08781
	7.883627	47.08724
	7.883693	47.08658
	7.883685	47.08646
	7.883531	47.08582
	7.883485	47.08571
	7.883102	47.08512
	7.88298	47.08499
	7.882723	47.08455
	7.882756	47.08446
	7.882614	47.08334
	7.882593	47.08329
	7.881966	47.0825
	7.881894	47.08244
	7.881532	47.08222
	7.881195	47.08207
	7.880785	47.08186
	7.880236	47.0815
	7.88008	47.0813
	7.880135	47.08127
	7.879338	47.08029
	7.876758	47.0798
	7.876703	47.07965
	7.878959	47.0788
	7.878351	47.07847
	7.877512	47.07536
	7.878194	47.0744
	7.877938	47.07426
	7.877455	47.07388
	7.876822	47.07354
	7.876116	47.07345
	7.877277	47.07159
	7.8771	47.07142
	7.87683	47.07097
	7.876766	47.0706
	7.874875	47.06826
	7.873765	47.06674
	7.873282	47.06558
	7.872868	47.06557
	7.872021	47.06535
	7.8718	47.06513
	7.872241	47.06432
	7.872413	47.06436
	7.873339	47.06438
	7.873638	47.06432
	7.874367	47.064
	7.874893	47.06363
	7.875582	47.06278
	7.875703	47.0625
	7.875138	47.06017
	7.874826	47.05991
	7.874353	47.05962
	7.873561	47.05928
	7.873363	47.05897
	7.872899	47.05841
	7.872304	47.05792
	7.871028	47.05724
	7.870862	47.05696
	7.870758	47.05675
	7.870488	47.05634
	7.87002	47.0559
	7.869812	47.05576
	7.869731	47.05587
	7.867394	47.05595
	7.867339	47.05555
	7.867151	47.05525
	7.867101	47.05501
	7.866428	47.05444
	7.866202	47.05419
	7.866117	47.054
	7.866016	47.05342
	7.867509	47.05313
	7.867386	47.05233
	7.868118	47.05184
	7.867911	47.05147
	7.868406	47.05129
	7.868648	47.05115
	7.868928	47.05094
	7.869257	47.05063
	7.869389	47.05047
	7.869626	47.05014
	7.869837	47.04973
	7.869981	47.04934
	7.870045	47.04928
	7.870181	47.04922
	7.870294	47.04914
	7.870246	47.04907
	7.871914	47.04727
	7.869843	47.04535
	7.869565	47.04536
	7.869122	47.04542
	7.868813	47.04549
	7.868837	47.04535
	7.869223	47.04518
	7.869815	47.04499
	7.870508	47.04493
	7.870638	47.04493
	7.870869	47.0452
	7.870907	47.04516
	7.87133	47.04498
	7.872457	47.04476
	7.872731	47.04446
	7.873154	47.04358
	7.874036	47.04228
	7.874599	47.04135
	7.874633	47.04115
	7.874758	47.04096
	7.875159	47.04088
	7.876169	47.04104
	7.876589	47.04118
	7.876896	47.04119
	7.87772	47.04109
	7.878542	47.04089
	7.87927	47.04062
	7.879566	47.04044
	7.880104	47.0404
	7.880996	47.04053
	7.881433	47.0407
	7.88159	47.04059
	7.882347	47.0394
	7.88329	47.03823
	7.883351	47.03799
	7.883942	47.03717
	7.88376	47.03668
	7.883242	47.03582
	7.88306	47.03523
	7.88325	47.03496
	7.883801	47.03357
	7.884067	47.03328
	7.884888	47.03274
	7.885073	47.03279
	7.885914	47.03246
	7.886611	47.03232
	7.887467	47.03196
	7.888274	47.03123
	7.888865	47.03089
	7.889119	47.03082
	7.8911	47.03055
	7.891786	47.0305
	7.892367	47.0301
	7.892806	47.02936
	7.892753	47.02912
	7.892823	47.02882
	7.893861	47.02792
	7.894089	47.02762
	7.893982	47.02736
	7.893442	47.02701
	7.893499	47.02663
	7.893744	47.02652
	7.893745	47.0257
	7.893695	47.02543
	7.893281	47.02487
	7.893276	47.02472
	7.893388	47.02453
	7.893984	47.02386
	7.894557	47.02276
	7.894748	47.02217
	7.896098	47.02176
	7.896824	47.02142
	7.897256	47.02092
	7.897802	47.02055
	7.89815	47.02045
	7.898598	47.02003
	7.898645	47.01985
	7.898909	47.0194
	7.899826	47.01878
	7.900333	47.01835
	7.900535	47.01798
	7.900109	47.01647
	7.89931	47.01568
	7.899014	47.01501
	7.897963	47.01445
	7.897504	47.01408
	7.897191	47.01374
	7.896934	47.01323
	7.896926	47.01304
	7.897715	47.01174
	7.898172	47.01059
	7.898197	47.01033
	7.898815	47.00971
	7.899272	47.00901
	7.898966	47.00869
	7.89989	47.00765
	7.901022	47.00692
	7.901825	47.00625
	7.902569	47.00629
	7.903278	47.00653
	7.90463	47.00682
	7.9062	47.00693
	7.907341	47.00685
	7.908856	47.00728
	7.909164	47.00726
	7.909454	47.00734
	7.909498	47.00759
	7.909945	47.0078
	7.910454	47.00784
	7.910532	47.00795
	7.910656	47.00798
	7.910973	47.00789
	7.911023	47.00794
	7.911181	47.00792
	7.911466	47.00797
	7.911652	47.00795
	7.912254	47.0081
	7.913154	47.00858
	7.916235	47.00852
	7.917351	47.00882
	7.918801	47.0096
	7.920013	47.01009
	7.92201	47.01056
	7.922867	47.01055
	7.925064	47.01037
	7.925887	47.00967
	7.925696	47.00933
	7.9257	47.00871
	7.925927	47.00845
	7.926116	47.00837
	7.926344	47.00811
	7.926501	47.00802
	7.926745	47.00758
	7.926867	47.00747
	7.926839	47.00706
	7.927073	47.00687
	7.927175	47.00688
	7.927614	47.00664
	7.927583	47.00657
	7.928039	47.00636
	7.928032	47.00619
	7.928096	47.00611
	7.928422	47.00591
	7.928531	47.00589
	7.928554	47.0058
	7.92872	47.00577
	7.928994	47.00555
	7.929174	47.00554
	7.929314	47.0054
	7.929446	47.00541
	7.929535	47.00554
	7.929719	47.00561
	7.929906	47.00557
	7.929978	47.00564
	7.930809	47.00522
	7.931342	47.00476
	7.931877	47.0048
	7.932322	47.00444
	7.932528	47.00437
	7.932663	47.00425
	7.933068	47.00419
	7.9332	47.00424
	7.933405	47.0042
	7.933568	47.00424
	7.933961	47.0042
	7.934197	47.00429
	7.934349	47.00428
	7.934547	47.00437
	7.935574	47.0045
	7.936004	47.00461
	7.936108	47.00467
	7.936386	47.00469
	7.93658	47.00461
	7.936768	47.0046
	7.936964	47.00461
	7.937131	47.00467
	7.937617	47.00461
	7.937749	47.00465
	7.93788	47.00461
	7.938143	47.00463
	7.938249	47.00471
	7.938603	47.00465
	7.939518	47.00466
	7.940322	47.00504
	7.940678	47.00552
	7.941143	47.00564
	7.941967	47.00546
	7.942464	47.00533
	7.943991	47.00541
	7.944908	47.00538
	7.945119	47.0055
	7.945617	47.00554
	7.945946	47.0055
	7.946596	47.0056
	7.94716	47.00581
	7.947916	47.00593
	7.94818	47.00583
	7.948562	47.00598
	7.948663	47.00597
	7.949001	47.00571
	7.949058	47.00579
	7.949265	47.00584
	7.949434	47.00583
	7.949555	47.0061
	7.949713	47.00622
	7.949677	47.00633
	7.949766	47.00651
	7.949875	47.00653
	7.950163	47.00677
	7.950156	47.00685
	7.950006	47.00693
	7.950077	47.00704
	7.951417	47.00623
	7.952118	47.00591
	7.95241	47.00592
	7.953802	47.00516
	7.954677	47.0044
	7.955238	47.00409
	7.956204	47.00342
	7.955944	47.00315
	7.955607	47.00293
	7.955052	47.00213
	7.954813	47.00207
	7.954671	47.00213
	7.954433	47.00215
	7.954133	47.00209
	7.953958	47.00201
	7.953872	47.00184
	7.95388	47.00153
	7.953724	47.00125
	7.953567	47.00113
	7.953554	47.00089
	7.953206	47.00069
	7.953011	47.00039
	7.953002	47.0003
	7.953103	47.00022
	7.953086	47.00005
	7.952492	46.99879
	7.952026	46.99659
	7.950854	46.99632
	7.950125	46.99559
	7.949446	46.99525
	7.948755	46.99461
	7.948377	46.99407
	7.948241	46.9933
	7.948471	46.99262
	7.948376	46.99187
	7.948974	46.99085
	7.94911	46.99014
	7.949486	46.98932
	7.950081	46.98831
	7.949521	46.98733
	7.949732	46.98717
	7.950392	46.98543
	7.950913	46.98512
	7.951604	46.98361
	7.952182	46.98296
	7.952139	46.98272
	7.952471	46.98203
	7.952428	46.98126
	7.952195	46.98115
	7.951919	46.98104
	7.950849	46.98008
	7.950468	46.97991
	7.950085	46.9798
	7.949405	46.9799
	7.948752	46.97988
	7.947293	46.97926
	7.946901	46.97906
	7.946493	46.97873
	7.945389	46.97805
	7.945104	46.97774
	7.944739	46.97748
	7.943909	46.97718
	7.944212	46.97658
	7.944216	46.9756
	7.94466	46.97479
	7.94477	46.97422
	7.9448	46.97335
	7.944401	46.9729
	7.944353	46.97264
	7.944452	46.97225
	7.944849	46.97179
	7.944718	46.97067
	7.944719	46.97049
	7.94472	46.97047
	7.944826	46.97042
	7.944774	46.97
	7.944862	46.96964
	7.945052	46.96938
	7.945323	46.9692
	7.945764	46.96906
	7.946117	46.96885
	7.945354	46.96784
	7.944837	46.96768
	7.944364	46.96747
	7.944026	46.96708
	7.943723	46.96687
	7.941647	46.9659
	7.940993	46.96544
	7.940517	46.96501
	7.940096	46.96474
	7.939542	46.96492
	7.938868	46.96492
	7.937994	46.96476
	7.937583	46.96459
	7.936636	46.9645
	7.93617	46.96441
	7.935327	46.96376
	7.934602	46.96346
	7.934091	46.96317
	7.932238	46.96165
	7.93195	46.96097
	7.931551	46.96062
	7.931526	46.96018
	7.931831	46.95994
	7.931995	46.95968
	7.932536	46.95855
	7.932462	46.95802
	7.932566	46.95738
	7.932507	46.95712
	7.932395	46.95695
	7.932056	46.95661
	7.931756	46.95639
	7.931508	46.95585
	7.931613	46.95557
	7.931824	46.95527
	7.932259	46.95409
	7.932315	46.95372
	7.93188	46.95273
	7.932009	46.95216
	7.931938	46.95158
	7.931651	46.95051
	7.931323	46.95011
	7.930507	46.94931
	7.929601	46.94869
	7.92924	46.94839
	7.929079	46.94819
	7.927704	46.94812
	7.926027	46.94834
	7.924593	46.94717
	7.924123	46.94732
	7.923298	46.94723
	7.922332	46.94701
	7.921987	46.9469
	7.921676	46.94673
	7.921331	46.94626
	7.921309	46.94593
	7.920803	46.94537
	7.920963	46.94507
	7.921128	46.94491
	7.921685	46.94391
	7.921465	46.94351
	7.921221	46.94338
	7.921096	46.94315
	7.92108	46.94257
	7.920858	46.94182
	7.920413	46.94171
	7.919883	46.94134
	7.919671	46.94059
	7.919413	46.94033
	7.919348	46.94009
	7.918653	46.93974
	7.918022	46.93922
	7.918022	46.93902
	7.917861	46.93852
	7.917604	46.93807
	7.915786	46.93572
	7.915259	46.93464
	7.914356	46.9341
	7.913413	46.93375
	7.912511	46.93309
	7.912032	46.93298
	7.910991	46.93295
	7.910713	46.93284
	7.910442	46.93281
	7.909375	46.93275
	7.907925	46.93269
	7.906211	46.93291
	7.905175	46.93299
	7.904103	46.93321
	7.903419	46.9335
	7.902382	46.93436
	7.900299	46.93463
	7.899552	46.93456
	7.899159	46.93462
	7.898892	46.93472
	7.898134	46.93473
	7.897498	46.93464
	7.896095	46.93413
	7.896062	46.93392
	7.895625	46.9336
	7.895254	46.93347
	7.89476	46.93337
	7.894183	46.93307
	7.893905	46.93274
	7.893554	46.93248
	7.892673	46.93225
	7.892308	46.93209
	7.89168	46.93207
	7.891208	46.93191
	7.889855	46.93158
	7.888724	46.93117
	7.888475	46.93101
	7.887353	46.93075
	7.886751	46.93049
	7.886059	46.93006
	7.885495	46.92981
	7.883626	46.92927
	7.883308	46.9291
	7.882504	46.92893
	7.881866	46.92886
	7.880828	46.92827
	7.879825	46.92817
	7.879172	46.92803
	7.8787	46.92784
	7.878266	46.92778
	7.876927	46.92738
	7.876029	46.92682
	7.874736	46.92627
	7.874548	46.92601
	7.874164	46.92568
	7.873906	46.92535
	7.873629	46.92515
	7.873474	46.92486
	7.873288	46.92468
	7.872997	46.92446
	7.872658	46.92429
	7.872547	46.92398
	7.872501	46.9239
	7.872482	46.92387
	7.872393	46.92383
	7.872305	46.92341
	7.87197	46.92275
	7.87139	46.92211
	7.870513	46.92096
	7.870455	46.92068
	7.870211	46.92032
	7.870058	46.91988
	7.869861	46.91961
	7.869648	46.91915
	7.86897	46.91694
	7.867794	46.91602
	7.867638	46.91576
	7.867575	46.9153
	7.867442	46.91512
	7.867074	46.91479
	7.867623	46.91475
	7.868752	46.91455
	7.870951	46.91371
	7.872964	46.91287
	7.873037	46.91283
	7.873469	46.91251
	7.874676	46.91132
	7.874973	46.91114
	7.875257	46.91104
	7.875329	46.91102
	7.875947	46.91097
	7.877629	46.91125
	7.878551	46.91133
	7.87946	46.91124
	7.879915	46.91108
	7.880262	46.9108
	7.88043	46.91053
	7.881569	46.90796
	7.88178	46.90759
	7.88242	46.90703
	7.883117	46.90664
	7.882187	46.90554
	7.882299	46.90551
	7.882468	46.90533
	7.882676	46.90464
	7.882838	46.90451
	7.88272	46.90423
	7.88266	46.90354
	7.882236	46.90332
	7.881891	46.90305
	7.881594	46.90267
	7.88022	46.90177
	7.879794	46.90127
	7.879759	46.90039
	7.879944	46.90032
	7.88022	46.90034
	7.880412	46.90045
	7.88053	46.90045
	7.880719	46.90026
	7.881589	46.8999
	7.881796	46.89966
	7.881231	46.89932
	7.880955	46.89928
	7.880464	46.89905
	7.879841	46.89897
	7.879583	46.89889
	7.879203	46.89888
	7.878735	46.89897
	7.878325	46.89874
	7.87794	46.89848
	7.877475	46.89806
	7.876401	46.89693
	7.875619	46.896
	7.875328	46.89576
	7.87339	46.89299
	7.872958	46.8922
	7.87276	46.89123
	7.872817	46.89032
	7.873048	46.88967
	7.872522	46.88964
	7.872262	46.88958
	7.872029	46.88946
	7.871891	46.88945
	7.871393	46.88959
	7.870868	46.88954
	7.870689	46.88958
	7.870157	46.88923
	7.869851	46.88895
	7.869385	46.88798
	7.86937	46.88778
	7.868563	46.88744
	7.867917	46.88707
	7.86719	46.88692
	7.865836	46.88655
	7.864649	46.88665
	7.863853	46.88656
	7.862547	46.88661
	7.861602	46.8864
	7.860757	46.88604
	7.859561	46.88579
	7.858599	46.88529
	7.857882	46.88467
	7.856612	46.88349
	7.856159	46.88085
	7.856855	46.88025
	7.85686	46.87859
	7.857826	46.87709
	7.857988	46.87538
	7.857262	46.87146
	7.857775	46.87076
	7.859834	46.87038
	7.86186	46.87057
	7.864264	46.86956
	7.864683	46.86629
	7.868387	46.86514
	7.869492	46.86435
	7.869459	46.86372
	7.868853	46.86268
	7.868721	46.86202
	7.869028	46.86105
	7.867975	46.86044
	7.867754	46.86023
	7.867651	46.85995
	7.867728	46.85975
	7.867852	46.85964
	7.867292	46.85868
	7.867723	46.85777
	7.868168	46.85542
	7.868055	46.85472
	7.868176	46.85417
	7.868297	46.85391
	7.868032	46.85353
	7.867506	46.85198
	7.867452	46.85107
	7.86761	46.85037
	7.869504	46.84869
	7.870111	46.84758
	7.869794	46.84716
	7.870169	46.84656
	7.870131	46.84499
	7.87057	46.84414
	7.870442	46.84386
	7.872717	46.84261
	7.877077	46.83707
	7.895558	46.83101
	7.904365	46.82757
	7.922389	46.82001
	7.92876	46.81647
	7.936496	46.81135
	7.941707	46.80801
	7.946745	46.80525
	7.950843	46.79985
	7.950816	46.79966
	7.951009	46.79912
	7.951283	46.7989
	7.951415	46.7987
	7.951843	46.79764
	7.952574	46.79687
	7.952914	46.7966
	7.952945	46.79639
	7.953315	46.7962
	7.953478	46.79601
	7.953837	46.79578
	7.953916	46.79514
	7.953849	46.7947
	7.953663	46.79443
	7.953489	46.79423
	7.952761	46.79366
	7.952494	46.79335
	7.952444	46.79315
	7.953001	46.79287
	7.953319	46.79242
	7.953571	46.79226
	7.953937	46.79217
	7.954004	46.792
	7.95403	46.79173
	7.954042	46.79121
	7.954727	46.79108
	7.954979	46.79075
	7.955614	46.79057
	7.955984	46.79037
	7.957896	46.78942
	7.96028	46.78902
	7.960474	46.78886
	7.960884	46.78874
	7.961979	46.78783
	7.962231	46.78753
	7.962926	46.78704
	7.963117	46.78701
	7.963609	46.78682
	7.964007	46.78685
	7.964623	46.78697
	7.965139	46.78699
	7.965602	46.78672
	7.965971	46.78662
	7.966139	46.78647
	7.966252	46.78647
	7.966439	46.7863
	7.966641	46.78625
	7.967186	46.78573
	7.968129	46.78544
	7.968702	46.78513
	7.969224	46.78465
	7.969419	46.78441
	7.96954	46.78415
	7.969562	46.78391
	7.969448	46.78364
	7.969531	46.7831
	7.969445	46.78282
	7.969505	46.78247
	7.969969	46.78216
	7.970653	46.78185
	7.970939	46.78139
	7.971251	46.78114
	7.971887	46.77998
	7.972489	46.77943
	7.973271	46.77894
	7.973477	46.77837
	7.975712	46.77731
	7.97655	46.77742
	7.977438	46.77723
	7.978703	46.77723
	7.979332	46.7769
	7.979693	46.77695
	7.980307	46.77685
	7.980639	46.77657
	7.981974	46.77642
	7.982368	46.77606
	7.982986	46.77596
	7.983133	46.77584
	7.983124	46.77569
	7.984571	46.77499
	7.985113	46.77504
	7.986564	46.77544
	7.987056	46.77569
	7.987471	46.7758
	7.988557	46.77637
	7.988914	46.77645
	7.989926	46.77727
	7.991676	46.77828
	7.99262	46.77867
	7.993132	46.77862
	7.993434	46.77864
	7.994082	46.77889
	7.994278	46.77903
	7.994548	46.77949
	7.994918	46.77989
	7.994872	46.78016
	7.994961	46.78035
	7.994918	46.78062
	7.994956	46.7812
	7.995056	46.78133
	7.995469	46.78156
	7.995745	46.78177
	7.996884	46.78217
	7.998195	46.78226
	7.998641	46.78253
	8.000143	46.78274
	8.000547	46.78288
	8.001238	46.7829
	8.002883	46.78307
	8.003558	46.78306
	8.004867	46.78321
	8.005284	46.78336
	8.005586	46.78362
	8.006092	46.78382
	8.006547	46.78397
	8.006888	46.78401
	8.007641	46.7845
	8.008803	46.78477
	8.009196	46.7849
	8.010572	46.78554
	8.011099	46.78568
	8.011564	46.78593
	8.012496	46.78628
	8.013002	46.7864
	8.013535	46.78641
	8.013906	46.78648
	8.014252	46.78664
	8.01469	46.78671
	8.015007	46.78694
	8.015317	46.78725
	8.015849	46.7875
	8.016227	46.78784
	8.016641	46.78806
	8.017332	46.78822
	8.017678	46.78792
	8.018474	46.78809
	8.019616	46.78846
	8.019877	46.78849
	8.02024	46.78863
	8.020222	46.78889
	8.020706	46.78907
	8.021284	46.78884
	8.021818	46.78881
	8.022189	46.7889
	8.022747	46.78889
	8.025179	46.78951
	8.025461	46.78955
	8.025584	46.78968
	8.026076	46.78968
	8.026476	46.78978
	8.026677	46.78969
	8.027047	46.78969
	8.028267	46.78984
	8.029004	46.79001
	8.029212	46.78987
	8.029301	46.78987
	8.03038	46.79014
	8.031086	46.79018
	8.031381	46.79025
	8.031485	46.79016
	8.031413	46.78977
	8.031509	46.78967
	8.031703	46.78959
	8.031733	46.78959
	8.031869	46.78954
	8.032289	46.78954
	8.032515	46.78947
	8.033432	46.7895
	8.034541	46.78948
	8.035077	46.78937
	8.035333	46.78937
	8.035665	46.78897
	8.03611	46.78887
	8.036585	46.78892
	8.036666	46.78862
	8.037081	46.78858
	8.037042	46.78841
	8.037725	46.78824
	8.037782	46.78809
	8.038042	46.7881
	8.03806	46.78793
	8.038984	46.78759
	8.039537	46.78761
	8.039669	46.78755
	8.04112	46.78766
	8.041267	46.78779
	8.043138	46.78754
	8.04365	46.78724
	8.044278	46.78714
	8.045184	46.78709
	8.046937	46.78712
	8.050281	46.78834
	8.055062	46.78844
	8.059822	46.78639
	8.063523	46.78726
	8.06439	46.78714
	8.064578	46.787
	8.064871	46.78718
	8.066411	46.78768
	8.067245	46.78774
	8.068367	46.78843
	8.069014	46.78865
	8.069445	46.78819
	8.07059	46.78781
	8.072525	46.78727
	8.074297	46.78629
	8.07575	46.786
	8.077327	46.78594
	8.080594	46.78647
	8.082785	46.78693
	8.083566	46.78698
	8.085744	46.78688
	8.087202	46.78726
	8.088719	46.78756
	8.090039	46.78764
	8.089881	46.78716
	8.08999	46.78674
	8.090477	46.78614
	8.090728	46.78561
	8.090871	46.78497
	8.090771	46.78437
	8.091107	46.78401
	8.091773	46.78375
	8.092674	46.7831
	8.093641	46.78252
	8.093833	46.78233
	8.093927	46.7821
	8.094117	46.78186
	8.09451	46.78153
	8.095592	46.78024
	8.096305	46.77953
	8.097457	46.77879
	8.099555	46.77827
	8.101438	46.77619
	8.1016	46.77606
	8.10161	46.77568
	8.101857	46.77444
	8.102074	46.774
	8.102347	46.7738
	8.105256	46.77294
	8.10686	46.77289
	8.11006	46.77377
	8.11124	46.77382
	8.111572	46.77366
	8.113517	46.7734
	8.114508	46.77245
	8.115761	46.77196
	8.116018	46.77202
	8.116255	46.77186
	8.116457	46.77164
	8.117538	46.77137
	8.118343	46.77096
	8.118804	46.77094
	8.119113	46.77077
	8.119918	46.77078
	8.121395	46.77051
	8.121825	46.77037
	8.125967	46.76818
	8.126741	46.76771
	8.128357	46.76691
	8.129853	46.76603
	8.13172	46.76477
	8.135331	46.76265
	8.135859	46.76226
	8.137243	46.7614
	8.137684	46.76083
	8.13753	46.76072
	8.138123	46.76035
	8.138619	46.76012
	8.138754	46.75991
	8.13863	46.75966
	8.138689	46.75955
	8.139333	46.75932
	8.139731	46.75902
	8.13993	46.75898
	8.140196	46.759
	8.140977	46.75863
	8.146123	46.75546
	8.146351	46.75527
	8.146941	46.75484
	8.148566	46.75631
	8.148716	46.75643
	8.148846	46.75653
	8.149665	46.757
	8.151727	46.75767
	8.152725	46.75805
	8.15436	46.75812
	8.155308	46.75857
	8.155471	46.75857
	8.155522	46.75858
	8.158449	46.75924
	8.158141	46.75938
	8.158042	46.75952
	8.15819	46.75976
	8.158307	46.75986
	8.158467	46.75981
	8.158687	46.75965
	8.15899	46.7596
	8.158828	46.7598
	8.159417	46.75995
	8.159392	46.76038
	8.159443	46.76052
	8.160865	46.7606
	8.16163	46.76111
	8.162012	46.76127
	8.162432	46.76127
	8.162157	46.76187
	8.162776	46.76182
	8.1629	46.76145
	8.163126	46.76131
	8.163526	46.76166
	8.163658	46.76235
	8.164253	46.7634
	8.164668	46.76335
	8.165014	46.7634
	8.165599	46.76391
	8.166097	46.76392
	8.166039	46.76383
	8.166163	46.76376
	8.166793	46.76402
	8.167193	46.76469
	8.167933	46.76535
	8.170882	46.76435
	8.172098	46.76414
	8.172634	46.76466
	8.174136	46.76544
	8.185811	46.76859
	8.187731	46.76967
	8.189791	46.77032
	8.193169	46.76843
	8.196303	46.76793
	8.199329	46.76878
	8.202626	46.76905
	8.203235	46.76938
	8.204351	46.76939
	8.206579	46.76955
	8.207996	46.76946
	8.208596	46.76907
	8.209298	46.76809
	8.209669	46.76798
	8.210148	46.76799
	8.210918	46.76713
	8.212083	46.76636
	8.216407	46.76468
	8.217573	46.76411
	8.218006	46.76371
	8.2184	46.76373
	8.21896	46.76368
	8.219349	46.76354
	8.220422	46.7615
	8.22197	46.76107
	8.223005	46.76132
	8.226866	46.76148
	8.227622	46.76121
	8.227954	46.76099
	8.228378	46.76116
	8.229212	46.76121
	8.22933	46.76106
	8.229788	46.76101
	8.230403	46.7611
	8.231598	46.76143
	8.232051	46.76144
	8.23354	46.76173
	8.233912	46.76195
	8.239066	46.76961
	8.239631	46.7695
	8.240285	46.7695
	8.240877	46.76923
	8.241584	46.76917
	8.241685	46.76889
	8.242389	46.76857
	8.243153	46.76843
	8.243736	46.76817
	8.244567	46.76806
	8.244791	46.76783
	8.245282	46.76771
	8.245275	46.76758
	8.245525	46.76752
	8.247174	46.76757
	8.247508	46.76735
	8.248004	46.76721
	8.248395	46.76688
	8.249032	46.76677
	8.249832	46.76654
	8.250542	46.76643
	8.251085	46.76623
	8.251886	46.76609
	8.252468	46.76582
	8.254814	46.76495
	8.255176	46.76454
	8.255762	46.7644
	8.25673	46.76437
	8.257107	46.76441
	8.259378	46.76381
	8.260086	46.76335
	8.260669	46.7627
	8.260942	46.76247
	8.26119	46.76209
	8.262537	46.76096
	8.26265	46.76066
	8.263663	46.75999
	8.2639	46.75959
	8.26406	46.75951
	8.264368	46.75951
	8.264926	46.75911
	8.265352	46.75867
	8.26608	46.75817
	8.266677	46.75761
	8.266456	46.75708
	8.266871	46.75671
	8.267642	46.75621
	8.26826	46.75552
	8.268685	46.7554
	8.268848	46.75463
	8.268688	46.75431
	8.268905	46.75426
	8.269276	46.75431
	8.27027	46.75453
	8.271638	46.7546
	8.272831	46.75492
	8.27336	46.75488
	8.27372	46.75498
	8.274081	46.75496
	8.274997	46.75472
	8.275228	46.75496
	8.275511	46.75509
	8.277289	46.7544
	8.278846	46.75436
	8.280125	46.75423
	8.280644	46.75433
	8.280983	46.75433
	8.281966	46.75401
	8.283484	46.75317
	8.284212	46.75376
	8.284877	46.75397
	8.285533	46.7541
	8.286439	46.75454
	8.286494	46.75492
	8.286836	46.75514
	8.287	46.75533
	8.290422	46.75701
	8.291232	46.75786
	8.291302	46.75805
	8.291812	46.75799
	8.293029	46.75823
	8.294262	46.75894
	8.294868	46.75923
	8.295854	46.75954
	8.296926	46.76024
	8.297122	46.76071
	8.29752	46.76129
	8.29768	46.76172
	8.2979	46.762
	8.298127	46.7621
	8.298238	46.76223
	8.298425	46.76228
	8.299544	46.76139
	8.30209	46.76204
	8.306623	46.76418
	8.306884	46.76522
	8.311555	46.76828
	8.315876	46.77011
	8.320813	46.77335
	8.325816	46.77559
	8.326501	46.77597
	8.32679	46.77614
	8.326818	46.77682
	8.327674	46.77737
	8.328876	46.77796
	8.329651	46.77802
	8.331015	46.77852
	8.331288	46.77881
	8.331425	46.77953
	8.331734	46.7797
	8.331882	46.77991
	8.33292	46.78034
	8.333215	46.78028
	8.333688	46.7806
	8.342874	46.78145
	8.35053	46.78208
	8.355648	46.7827
	8.356597	46.78258
	8.359915	46.78297
	8.36121	46.78381
	8.362257	46.78424
	8.362538	46.78431
	8.36354	46.78452
	8.364078	46.7851
	8.363792	46.78607
	8.364922	46.78638
	8.365515	46.78645
	8.36601	46.7866
	8.366397	46.78682
	8.367385	46.78706
	8.367561	46.78724
	8.36772	46.78757
	8.368315	46.78783
	8.368933	46.78792
	8.36935	46.78822
	8.370123	46.78825
	8.370387	46.78821
	8.370801	46.78828
	8.371416	46.78809
	8.371697	46.7879
	8.37299	46.7874
	8.374941	46.78637
	8.375636	46.78638
	8.375866	46.78624
	8.375918	46.78606
	8.376895	46.78585
	8.37735	46.78583
	8.378052	46.78512
	8.378939	46.78452
	8.379025	46.78431
	8.378716	46.7842
	8.378891	46.78353
	8.379297	46.78327
	8.379979	46.78298
	8.38003	46.7828
	8.380498	46.78236
	8.381146	46.78202
	8.381366	46.78175
	8.3814	46.78139
	8.381772	46.78137
	8.381767	46.78104
	8.382014	46.7807
	8.38219	46.78056
	8.382317	46.78019
	8.384514	46.77928
	8.385765	46.77865
	8.386953	46.77839
	8.387823	46.77856
	8.388613	46.77803
	8.390217	46.77782
	8.391158	46.7778
	8.393206	46.77457
	8.395222	46.77152
	8.396387	46.7655
	8.397153	46.76554
	8.397633	46.76589
	8.397777	46.76584
	8.398443	46.76599
	8.3996	46.76617
	8.400792	46.76645
	8.401096	46.76666
	8.401869	46.76704
	8.402242	46.76733
	8.402596	46.76748
	8.402842	46.76782
	8.403472	46.76814
	8.403709	46.76834
	8.40448	46.76845
	8.404665	46.76881
	8.405017	46.76888
	8.405226	46.76905
	8.405871	46.76912
	8.406103	46.76928
	8.406595	46.76938
	8.406818	46.76936
	8.407071	46.76948
	8.407507	46.76955
	8.408269	46.77013
	8.408845	46.77048
	8.409091	46.77084
	8.409441	46.77108
	8.409951	46.77124
	8.410796	46.77139
	8.410614	46.77149
	8.411719	46.7725
	8.412528	46.77313
	8.412438	46.77343
	8.413556	46.77365
	8.414632	46.77432
	8.415773	46.77422
	8.416882	46.77429
	8.41801	46.77406
	8.41848	46.77386
	8.418783	46.77366
	8.419238	46.7736
	8.419539	46.7735
	8.420433	46.77304
	8.421081	46.77279
	8.421877	46.77187
	8.421832	46.77109
	8.422357	46.77105
	8.422546	46.77066
	8.422838	46.77052
	8.423047	46.77056
	8.42351	46.77055
	8.423623	46.77064
	8.424261	46.77041
	8.425115	46.77029
	8.425893	46.77041
	8.426438	46.77068
	8.426536	46.77138
	8.428038	46.77181
	8.42849	46.77191
	8.429508	46.77198
	8.430552	46.77215
	8.431421	46.77221
	8.434099	46.77238
	8.435048	46.77235
	8.435491	46.77251
	8.436112	46.7725
	8.436626	46.77239
	8.437118	46.77234
	8.437774	46.77204
	8.438431	46.77203
	8.438657	46.7719
	8.438766	46.77174
	8.43938	46.77145
	8.439924	46.77104
	8.440592	46.77106
	8.441134	46.77084
	8.441853	46.77007
	8.442148	46.76989
	8.443285	46.76984
	8.443744	46.76994
	8.444113	46.76988
	8.446616	46.77027
	8.446632	46.77
	8.447004	46.76952
	8.44673	46.76896
	8.447112	46.76869
	8.446674	46.76818
	8.446767	46.76784
	8.446403	46.76748
	8.44645	46.76688
	8.446125	46.76642
	8.446472	46.76613
	8.448376	46.76517
	8.44839	46.76495
	8.448199	46.76476
	8.4481	46.76451
	8.447914	46.76426
	8.448108	46.76398
	8.447935	46.76383
	8.448137	46.76368
	8.448319	46.76342
	8.447545	46.76137
	8.447593	46.76114
	8.447316	46.76013
	8.447348	46.75991
	8.446974	46.75911
	8.446979	46.75886
	8.447118	46.75868
	8.447486	46.75837
	8.447338	46.75792
	8.44686	46.75772
	8.446619	46.75736
	8.446241	46.75698
	8.446058	46.75695
	8.445297	46.75658
	8.445287	46.75634
	8.445086	46.75602
	8.444074	46.75543
	8.444212	46.75504
	8.443989	46.75473
	8.443724	46.75452
	8.44372	46.75434
	8.443555	46.75388
	8.442801	46.75398
	8.442523	46.75422
	8.442303	46.7543
	8.442006	46.75425
	8.441689	46.75432
	8.441191	46.75424
	8.440523	46.75389
	8.440238	46.75379
	8.439852	46.75378
	8.439883	46.75337
	8.439168	46.75313
	8.439108	46.75301
	8.439271	46.75255
	8.439035	46.75243
	8.439727	46.75164
	8.43965	46.75144
	8.439677	46.75137
	8.440339	46.751
	8.440658	46.75073
	8.440806	46.75064
	8.440999	46.75062
	8.441453	46.75032
	8.442145	46.7497
	8.442229	46.7495
	8.442759	46.74895
	8.442751	46.74883
	8.443338	46.74807
	8.443765	46.7471
	8.442574	46.74639
	8.442299	46.74581
	8.442078	46.74565
	8.441805	46.7453
	8.440764	46.74457
	8.4407	46.74444
	8.440587	46.74394
	8.440424	46.74361
	8.440451	46.7432
	8.440523	46.74306
	8.440266	46.74299
	8.440236	46.74264
	8.440866	46.74237
	8.441177	46.7423
	8.44124	46.74195
	8.441198	46.74177
	8.441491	46.74139
	8.441112	46.74105
	8.441165	46.74075
	8.440852	46.74016
	8.440971	46.73979
	8.440992	46.73939
	8.440707	46.739
	8.440817	46.73843
	8.440689	46.73805
	8.440865	46.73787
	8.44129	46.73685
	8.441515	46.73651
	8.441992	46.73597
	8.441989	46.73569
	8.442725	46.73516
	8.443717	46.73429
	8.443985	46.73425
	8.445199	46.73384
	8.445269	46.73379
	8.445369	46.73359
	8.445601	46.73345
	8.445719	46.73327
	8.446194	46.73302
	8.446763	46.73297
	8.44689	46.73299
	8.448682	46.73137
	8.449714	46.72984
	8.449557	46.72957
	8.44931	46.72881
	8.448747	46.72854
	8.447452	46.72827
	8.447072	46.72706
	8.447187	46.71776
	8.44757	46.71646
	8.447389	46.7155
	8.447419	46.71543
	8.447635	46.71527
	8.447258	46.71492
	8.447423	46.71416
	8.447823	46.71364
	8.447835	46.71343
	8.44812	46.71294
	8.448575	46.71247
	8.448962	46.71221
	8.450078	46.71182
	8.451024	46.71141
	8.452595	46.71117
	8.453108	46.71119
	8.453631	46.71088
	8.454072	46.71085
	8.453852	46.71076
	8.453688	46.71056
	8.45354	46.70925
	8.453592	46.70865
	8.453835	46.70842
	8.453837	46.70823
	8.453659	46.70786
	8.45363	46.70755
	8.453534	46.70744
	8.453178	46.70721
	8.453048	46.7066
	8.452812	46.70639
	8.452639	46.70584
	8.452507	46.70565
	8.45244	46.70525
	8.452301	46.70491
	8.452288	46.70467
	8.452159	46.70443
	8.452141	46.7042
	8.452551	46.70362
	8.452492	46.70354
	8.452524	46.70339
	8.452352	46.70322
	8.452312	46.70309
	8.452296	46.70287
	8.452378	46.70268
	8.452505	46.70253
	8.452658	46.70245
	8.452966	46.70241
	8.45318	46.70228
	8.453361	46.70192
	8.453532	46.70175
	8.453525	46.70109
	8.453751	46.70061
	8.453754	46.70018
	8.453839	46.69999
	8.454461	46.69965
	8.454659	46.69927
	8.454822	46.69921
	8.455157	46.6989
	8.454456	46.69836
	8.454448	46.69811
	8.454802	46.69769
	8.454942	46.69765
	8.455068	46.69752
	8.453884	46.69473
	8.453585	46.69429
	8.45335	46.69425
	8.453023	46.69395
	8.453016	46.69378
	8.452889	46.69364
	8.452896	46.69339
	8.452702	46.69294
	8.45272	46.69269
	8.453107	46.69141
	8.452838	46.69114
	8.452517	46.69054
	8.452549	46.68974
	8.452286	46.68874
	8.451443	46.6884
	8.451197	46.68838
	8.450913	46.68842
	8.45014	46.68821
	8.449969	46.68809
	8.448808	46.68799
	8.447589	46.68764
	8.446919	46.68738
	8.446278	46.68737
	8.445632	46.68728
	8.444545	46.68704
	8.442076	46.6861
	8.44166	46.68591
	8.44134	46.68563
	8.440806	46.68551
	8.440566	46.68553
	8.439742	46.68581
	8.439375	46.68588
	8.439079	46.68584
	8.43801	46.68617
	8.437736	46.68631
	8.436423	46.68637
	8.434635	46.68665
	8.433764	46.68686
	8.433286	46.6869
	8.431633	46.68689
	8.428184	46.68606
	8.423681	46.68671
	8.423457	46.6868
	8.423219	46.68702
	8.422954	46.68711
	8.422228	46.68706
	8.421994	46.68708
	8.421671	46.6872
	8.421404	46.68716
	8.421113	46.68724
	8.420638	46.68725
	8.420173	46.68737
	8.41994	46.68739
	8.419933	46.68702
	8.419057	46.68701
	8.418066	46.68711
	8.417358	46.68738
	8.416477	46.68737
	8.415282	46.68748
	8.414804	46.68744
	8.415135	46.68773
	8.415095	46.68786
	8.414925	46.68798
	8.414809	46.6883
	8.414801	46.68845
	8.41501	46.68879
	8.414771	46.689
	8.414459	46.68955
	8.413809	46.68976
	8.413643	46.68987
	8.413659	46.69004
	8.413594	46.69012
	8.413452	46.69013
	8.413239	46.69034
	8.41282	46.69039
	8.412619	46.69054
	8.412387	46.6906
	8.412226	46.69071
	8.411282	46.69073
	8.410508	46.6905
	8.408328	46.69051
	8.399611	46.69288
	8.399487	46.69257
	8.398721	46.69165
	8.398974	46.69137
	8.398609	46.69086
	8.398698	46.68894
	8.399586	46.68824
	8.399515	46.68781
	8.399268	46.68726
	8.399239	46.68705
	8.398853	46.6864
	8.3987	46.68562
	8.3982	46.6852
	8.397634	46.68445
	8.397357	46.68425
	8.397553	46.68403
	8.397675	46.68371
	8.3974	46.68319
	8.397603	46.68287
	8.397595	46.68247
	8.398871	46.68169
	8.398893	46.68156
	8.398482	46.68098
	8.398665	46.68083
	8.398908	46.68033
	8.398929	46.67979
	8.399016	46.67941
	8.398862	46.67913
	8.3986	46.67883
	8.398601	46.67874
	8.399016	46.67847
	8.398908	46.67828
	8.398902	46.67791
	8.398655	46.67735
	8.398508	46.67678
	8.39839	46.67655
	8.398064	46.67614
	8.398066	46.67595
	8.397877	46.67548
	8.397896	46.67501
	8.398055	46.67423
	8.398236	46.67404
	8.399322	46.67344
	8.399822	46.67291
	8.400528	46.67253
	8.400766	46.67139
	8.40094	46.67131
	8.401085	46.67102
	8.401138	46.67048
	8.401571	46.66992
	8.401793	46.66945
	8.402073	46.6692
	8.402192	46.66881
	8.402333	46.66867
	8.402731	46.66843
	8.402964	46.66815
	8.403883	46.66788
	8.404609	46.66772
	8.405031	46.66752
	8.405332	46.66744
	8.405651	46.66742
	8.406388	46.66712
	8.406602	46.66698
	8.407153	46.6668
	8.407384	46.66646
	8.408236	46.66584
	8.408428	46.66563
	8.408555	46.66502
	8.40842	46.66481
	8.408505	46.66423
	8.408613	46.66409
	8.408796	46.66398
	8.408886	46.66345
	8.409061	46.66325
	8.408922	46.66285
	8.40912	46.66204
	8.408967	46.6615
	8.409044	46.66114
	8.409005	46.66092
	8.409194	46.66057
	8.409051	46.65959
	8.408964	46.65944
	8.409204	46.65908
	8.409234	46.65869
	8.409545	46.65793
	8.40929	46.65676
	8.410229	46.65303
	8.398973	46.65405
	8.395959	46.64877
	8.394954	46.64713
	8.39493	46.64673
	8.394748	46.64606
	8.394373	46.64569
	8.393541	46.64541
	8.392556	46.64516
	8.391784	46.64504
	8.391125	46.64459
	8.390835	46.64446
	8.390069	46.64387
	8.388986	46.64293
	8.388654	46.64248
	8.387708	46.64167
	8.387665	46.64119
	8.386595	46.6404
	8.386392	46.6401
	8.385557	46.63961
	8.385074	46.63847
	8.384835	46.63828
	8.384036	46.63818
	8.383779	46.63809
	8.383445	46.63711
	8.383266	46.63694
	8.383226	46.63663
	8.381783	46.63555
	8.380144	46.63416
	8.379233	46.63363
	8.378648	46.63369
	8.377804	46.63362
	8.37647	46.63323
	8.375901	46.63312
	8.375232	46.63305
	8.374966	46.63311
	8.374107	46.63277
	8.372681	46.63365
	8.371412	46.63412
	8.371904	46.63384
	8.372416	46.63298
	8.371601	46.63161
	8.371104	46.63117
	8.371116	46.63037
	8.371029	46.63021
	8.370428	46.62989
	8.369881	46.62919
	8.369309	46.62871
	8.369695	46.6282
	8.369265	46.62787
	8.369232	46.62687
	8.369124	46.62667
	8.369213	46.62645
	8.369044	46.6261
	8.368862	46.62599
	8.369047	46.62571
	8.368891	46.62549
	8.369282	46.62489
	8.369056	46.62439
	8.368507	46.62394
	8.368942	46.62353
	8.368769	46.62313
	8.369086	46.62295
	8.369247	46.62249
	8.369057	46.62209
	8.369076	46.62169
	8.369248	46.62148
	8.368996	46.62128
	8.369154	46.621
	8.369131	46.62082
	8.368736	46.62059
	8.369118	46.62031
	8.370322	46.62003
	8.37033	46.61924
	8.370955	46.61887
	8.370977	46.6178
	8.370327	46.61673
	8.370743	46.61648
	8.370729	46.61629
	8.370549	46.61587
	8.370774	46.6157
	8.370731	46.6154
	8.370795	46.61526
	8.370532	46.61499
	8.370632	46.61482
	8.370557	46.61463
	8.370584	46.61444
	8.370454	46.61426
	8.370515	46.61394
	8.370246	46.61358
	8.369703	46.61307
	8.369344	46.61222
	8.36952	46.61195
	8.368764	46.61093
	8.368637	46.61023
	8.368409	46.60984
	8.368519	46.6095
	8.368522	46.60919
	8.368388	46.60901
	8.368042	46.60876
	8.367322	46.60782
	8.365787	46.60672
	8.365869	46.60627
	8.36575	46.60609
	8.365366	46.60586
	8.365452	46.60571
	8.365401	46.60545
	8.365087	46.60522
	8.365323	46.60498
	8.365326	46.6046
	8.365114	46.60402
	8.364779	46.60374
	8.364225	46.60342
	8.364181	46.60324
	8.363783	46.60311
	8.363191	46.60258
	8.362707	46.60256
	8.362492	46.60242
	8.362336	46.60213
	8.362065	46.60198
	8.361893	46.60179
	8.361993	46.60149
	8.36182	46.60118
	8.361934	46.60051
	8.362271	46.59974
	8.361915	46.5991
	8.361789	46.59869
	8.36165	46.59853
	8.361738	46.59839
	8.36164	46.59817
	8.36138	46.59805
	8.361762	46.59776
	8.361944	46.59685
	8.362064	46.59666
	8.362274	46.5966
	8.362665	46.59587
	8.362373	46.59543
	8.362206	46.59485
	8.362246	46.59434
	8.36277	46.59372
	8.362869	46.59348
	8.363385	46.59317
	8.363452	46.59249
	8.363268	46.59228
	8.363306	46.59162
	8.362987	46.59129
	8.362711	46.59122
	8.362351	46.59098
	8.361785	46.59031
	8.361753	46.59015
	8.361426	46.58986
	8.361646	46.58972
	8.360593	46.5863
	8.364672	46.58248
	8.363997	46.58183
	8.361983	46.5796
	8.360417	46.57776
	8.35751	46.57637
	8.357101	46.57583
	8.355818	46.57468
	8.353745	46.57382
	8.353666	46.57314
	8.35152	46.57174
	8.351836	46.56946
	8.350641	46.56836
	8.348684	46.56787
	8.346019	46.56594
	8.343945	46.56422
	8.339656	46.56264
	8.33906	46.56255
	8.337553	46.56173
	8.337445	46.56181
	8.336919	46.56146
	8.336824	46.56128
	8.336605	46.56112
	8.334011	46.56097
	8.333569	46.56106
	8.332561	46.56046
	8.328005	46.56017
	8.327307	46.5599
	8.324223	46.56032
	8.322751	46.55978
	8.32144	46.56008
	8.318375	46.55974
	8.316627	46.55903
	8.315433	46.55778
	8.314459	46.55637
	8.312555	46.55437
	8.312718	46.55251
	8.310647	46.55152
	8.309394	46.5507
	8.308206	46.54979
	8.307467	46.54842
	8.307111	46.54818
	8.306548	46.54805
	8.305866	46.54776
	8.305366	46.54747
	8.304699	46.54658
	8.304303	46.54622
	8.303844	46.54609
	8.302766	46.54553
	8.301326	46.54516
	8.299626	46.54486
	8.299262	46.54488
	8.298086	46.54476
	8.297369	46.54474
	8.296979	46.54481
	8.296166	46.54457
	8.295063	46.54491
	8.294413	46.54499
	8.294085	46.5449
	8.293058	46.54421
	8.292533	46.54401
	8.291656	46.54381
	8.290935	46.54353
	8.287407	46.54302
	8.287031	46.54232
	8.286538	46.54169
	8.286235	46.54147
	8.286008	46.54114
	8.285616	46.54105
	8.285157	46.54088
	8.284912	46.54022
	8.284489	46.53989
	8.28418	46.53926
	8.28389	46.53904
	8.283819	46.5387
	8.283646	46.53846
	8.283356	46.53828
	8.282728	46.53811
	8.281677	46.53762
	8.28089	46.53731
	8.280102	46.53691
	8.279609	46.53621
	8.279306	46.53602
	8.278757	46.53593
	8.27833	46.53613
	8.276808	46.53637
	8.27625	46.53653
	8.275597	46.53642
	8.273903	46.53652
	8.273225	46.53648
	8.272763	46.53613
	8.271283	46.53564
	8.270561	46.53533
	8.269943	46.53501
	8.269745	46.5348
	8.26935	46.53458
	8.268721	46.53434
	8.266407	46.53393
	8.265621	46.53366
	8.265033	46.5336
	8.263495	46.53357
	8.262946	46.53346
	8.26222	46.53286
	8.262019	46.5325
	8.262034	46.53182
	8.26043	46.53091
	8.258062	46.52944
	8.256301	46.52948
	8.255189	46.52943
	8.252498	46.52955
	8.252261	46.52941
	8.251803	46.52929
	8.250879	46.52922
	8.249995	46.52878
	8.249161	46.52861
	8.247746	46.52853
	8.246666	46.52833
	8.246469	46.52826
	8.246282	46.52794
	8.244736	46.52738
	8.243454	46.5271
	8.24225	46.52672
	8.241231	46.52658
	8.240879	46.5266
	8.240126	46.52676
	8.238893	46.52713
	8.238502	46.52715
	8.237654	46.52705
	8.237104	46.52688
	8.236647	46.52685
	8.235954	46.5267
	8.235275	46.52662
	8.234623	46.5266
	8.234063	46.52663
	8.233518	46.52677
	8.232378	46.52727
	8.231567	46.52707
	8.231072	46.52705
	8.230656	46.52715
	8.230095	46.52715
	8.229742	46.52706
	8.229282	46.52677
	8.228429	46.52641
	8.227907	46.52635
	8.22748	46.52658
	8.225634	46.52691
	8.22357	46.52658
	8.223177	46.52643
	8.222589	46.52635
	8.22096	46.52633
	8.220375	46.52647
	8.218746	46.52646
	8.21676	46.52616
	8.216002	46.52599
	8.215517	46.52578
	8.21326	46.52565
	8.210556	46.52523
	8.210122	46.52495
	8.208983	46.52457
	8.208065	46.5242
	8.207215	46.524
	8.206585	46.52367
	8.20619	46.52335
	8.20573	46.52311
	8.205115	46.52293
	8.204208	46.5233
	8.202939	46.52392
	8.202354	46.52398
	8.200048	46.52403
	8.197957	46.52363
	8.197066	46.52333
	8.194887	46.52312
	8.193128	46.52313
	8.191171	46.52301
	8.190085	46.5227
	8.188422	46.52214
	8.187242	46.52159
	8.186546	46.52121
	8.185078	46.52062
	8.184499	46.52044
	8.18191	46.52057
	8.181361	46.52046
	8.18067	46.52039
	8.1802	46.52128
	8.179582	46.52184
	8.179432	46.52231
	8.179305	46.52253
	8.179097	46.52273
	8.178877	46.52282
	8.178019	46.52299
	8.176042	46.52374
	8.174495	46.52415
	8.174196	46.5257
	8.173832	46.52642
	8.174162	46.52669
	8.173957	46.52758
	8.174195	46.52824
	8.174316	46.52943
	8.17419	46.52982
	8.174336	46.53139
	8.171501	46.53143
	8.169319	46.53102
	8.168109	46.53122
	8.166329	46.53164
	8.165681	46.53187
	8.164991	46.53196
	8.163728	46.53204
	8.162512	46.53178
	8.161438	46.53145
	8.160416	46.531
	8.158536	46.53155
	8.157888	46.53167
	8.157402	46.53166
	8.156829	46.53154
	8.156151	46.53149
	8.155028	46.53167
	8.154703	46.53167
	8.154265	46.53158
	8.14972	46.53181
	8.147701	46.53292
	8.146559	46.53292
	8.144661	46.53349
	8.141589	46.53465
	8.141069	46.53478
	8.140306	46.53493
	8.139144	46.53498
	8.137984	46.53511
	8.135715	46.53547
	8.132416	46.5367
	8.131374	46.53702
	8.130442	46.53679
	8.129766	46.53668
	8.128504	46.53676
	8.128329	46.53685
	8.127987	46.53686
	8.127218	46.53708
	8.126702	46.53716
	8.126207	46.53731
	8.125767	46.53795
	8.125546	46.53801
	8.124993	46.53865
	8.124604	46.53876
	8.124215	46.53895
	8.123829	46.53931
	8.122736	46.54057
	8.122281	46.54069
	8.121023	46.54119
	8.120706	46.54186
	8.119603	46.54232
	8.118633	46.54294
	8.118205	46.54308
	8.117689	46.5435
	8.116383	46.5454
	8.115799	46.54567
	8.115477	46.54597
	8.114828	46.54622
	8.114494	46.54659
	8.114337	46.54663
	8.113727	46.54664
	8.11275	46.54699
	8.111797	46.54709
	8.108785	46.54768
	8.108093	46.54786
	8.10755	46.54812
	8.105248	46.54858
	8.105066	46.54865
	8.102909	46.54825
	8.102504	46.54811
	8.101989	46.54803
	8.101774	46.54801
	8.101527	46.54807
	8.101095	46.54806
	8.100262	46.54815
	8.098652	46.54871
	8.098054	46.54887
	8.097471	46.54896
	8.096254	46.54924
	8.09602	46.54933
	8.095676	46.54955
	8.094408	46.55073
	8.09398	46.55098
	8.093613	46.55143
	8.092697	46.5512
	8.091927	46.55112
	8.08988	46.55114
	8.089416	46.5513
	8.088674	46.55169
	8.088531	46.55183
	8.088245	46.5519
	8.087815	46.55187
	8.08695	46.55172
	8.085937	46.55183
	8.085473	46.55172
	8.085206	46.55172
	8.084894	46.55183
	8.083386	46.55218
	8.083119	46.55236
	8.082433	46.55268
	8.080973	46.55323
	8.079876	46.55388
	8.079032	46.55412
	8.078595	46.55461
	8.078057	46.55493
	8.076865	46.55546
	8.075784	46.55557
	8.075194	46.55524
	8.07424	46.5548
	8.073921	46.55459
	8.073585	46.5545
	8.073244	46.55433
	8.072614	46.55393
	8.072156	46.55374
	8.07093	46.55348
	8.070525	46.55345
	8.070036	46.55359
	8.069582	46.55344
	8.069382	46.55342
	8.068355	46.55341
	8.067462	46.55333
	8.066756	46.55339
	8.066175	46.5535
	8.064345	46.55328
	8.063688	46.55328
	8.062637	46.55302
	8.062196	46.55298
	8.061632	46.55244
	8.061217	46.55186
	8.061431	46.55136
	8.061004	46.5517
	8.060394	46.55197
	8.060397	46.55224
	8.060037	46.55265
	8.059778	46.55283
	8.059519	46.55295
	8.058972	46.55301
	8.058452	46.55318
	8.056572	46.55415
	8.055798	46.55487
	8.054114	46.55587
	8.05366	46.55606
	8.053099	46.55606
	8.051794	46.55598
	8.050686	46.55606
	8.049211	46.55652
	8.04838	46.55641
	8.047732	46.55667
	8.047255	46.55668
	8.046031	46.55689
	8.044682	46.55675
	8.044258	46.55676
	8.042785	46.55702
	8.040121	46.55811
	8.039535	46.55823
	8.038977	46.55843
	8.038393	46.55875
	8.03716	46.55925
	8.035276	46.55991
	8.035121	46.56005
	8.034866	46.56059
	8.033988	46.56136
	8.033964	46.56158
	8.033576	46.56183
	8.032497	46.56213
	8.031845	46.5622
	8.030387	46.56248
	8.029957	46.56248
	8.02826	46.56229
	8.027344	46.56207
	8.026887	46.56203
	8.025883	46.56203
	8.025321	46.56192
	8.024839	46.56192
	8.024449	46.56204
	8.024059	46.56222
	8.023435	46.56238
	8.02302	46.56256
	8.021326	46.56273
	8.019826	46.56269
	8.018978	46.56271
	8.01618	46.56327
	8.01575	46.5633
	8.015267	46.56323
	8.014115	46.56287
	8.013131	46.56234
	8.012241	46.56206
	8.00937	46.56135
	8.007441	46.56073
	8.007048	46.56051
	8.006428	46.55984
	8.005837	46.5595
	8.004475	46.55888
	8.003898	46.55885
	8.003353	46.55891
	8.002723	46.55846
	8.000573	46.55781
	7.998481	46.55818
	7.997741	46.55848
	7.997386	46.55854
	7.99676	46.55822
	7.995715	46.55804
	7.995323	46.55791
	7.995083	46.55746
	7.994859	46.55719
	7.994138	46.55684
	7.993966	46.55659
	7.993638	46.55641
	7.992919	46.55623
	7.992786	46.55601
	7.992718	46.55568
	7.992908	46.5552
	7.99288	46.55497
	7.992616	46.55461
	7.992575	46.55448
	7.992246	46.55415
	7.991365	46.55345
	7.990473	46.5529
	7.990444	46.55269
	7.990508	46.55251
	7.990271	46.55236
	7.989807	46.55159
	7.989464	46.55121
	7.988967	46.55104
	7.988663	46.55058
	7.988446	46.54969
	7.988208	46.54939
	7.986003	46.54801
	7.985603	46.54764
	7.98472	46.54751
	7.984511	46.54752
	7.983378	46.54772
	7.982234	46.54765
	7.981885	46.54785
	7.981445	46.54806
	7.981134	46.54812
	7.980814	46.54804
	7.98026	46.54813
	7.979666	46.54805
	7.97872	46.54735
	7.97776	46.54707
	7.976032	46.54709
	7.975738	46.54699
	7.97533	46.54683
	7.974997	46.54672
	7.973882	46.54649
	7.9729	46.54613
	7.971489	46.54565
	7.971532	46.54537
	7.971108	46.54516
	7.970733	46.54526
	7.970132	46.54504
	7.969005	46.54484
	7.968611	46.54432
	7.967579	46.54282
	7.967638	46.54247
	7.967123	46.54225
	7.966023	46.5412
	7.96568	46.54042
	7.963549	46.5398
	7.962801	46.53924
	7.962733	46.539
	7.962796	46.53877
	7.962623	46.53841
	7.962879	46.53793
	7.96272	46.5376
	7.962676	46.53715
	7.962583	46.53693
	7.962607	46.53677
	7.9628	46.53649
	7.963184	46.53571
	7.963181	46.53546
	7.964218	46.53485
	7.964516	46.53462
	7.964732	46.53408
	7.965052	46.53352
	7.965999	46.533
	7.966842	46.53261
	7.967425	46.5322
	7.967358	46.53202
	7.966898	46.53164
	7.966792	46.53148
	7.966498	46.53067
	7.967041	46.53025
	7.967491	46.52966
	7.968918	46.52889
	7.969212	46.52832
	7.968682	46.52745
	7.968679	46.52718
	7.968834	46.527
	7.969067	46.52687
	7.969327	46.52679
	7.969718	46.52682
	7.970497	46.52652
	7.970652	46.52632
	7.970971	46.5256
	7.971006	46.52521
	7.971524	46.52489
	7.972265	46.52467
	7.972654	46.52448
	7.972912	46.52421
	7.972947	46.52376
	7.972879	46.52352
	7.972643	46.52331
	7.971962	46.52305
	7.971726	46.52287
	7.971698	46.52264
	7.97146	46.52233
	7.971495	46.52195
	7.970903	46.52134
	7.970602	46.52119
	7.970404	46.52101
	7.970465	46.52054
	7.970397	46.52031
	7.970266	46.5202
	7.970173	46.52002
	7.970237	46.51989
	7.970431	46.51971
	7.970943	46.51885
	7.970965	46.51842
	7.970545	46.51804
	7.970541	46.51768
	7.970796	46.51705
	7.970816	46.51653
	7.9702	46.51616
	7.969607	46.51546
	7.969042	46.51492
	7.968687	46.51468
	7.968187	46.51416
	7.967692	46.51286
	7.965894	46.5128
	7.965086	46.51282
	7.964696	46.5129
	7.964304	46.51283
	7.964106	46.51251
	7.96387	46.51238
	7.962826	46.51219
	7.96208	46.51188
	7.961815	46.51138
	7.961578	46.51118
	7.960663	46.51082
	7.958939	46.51045
	7.958507	46.51023
	7.957652	46.50935
	7.95739	46.5092
	7.95586	46.50862
	7.954488	46.50824
	7.953535	46.50805
	7.952238	46.5087
	7.951784	46.50884
	7.951367	46.50888
	7.951002	46.50884
	7.950321	46.50851
	7.949865	46.50847
	7.949147	46.50829
	7.947971	46.50791
	7.946498	46.5079
	7.945979	46.50808
	7.945691	46.50795
	7.945038	46.50783
	7.943476	46.508
	7.943112	46.508
	7.942628	46.50783
	7.942002	46.50776
	7.941348	46.50744
	7.940885	46.50673
	7.940162	46.50608
	7.939874	46.50592
	7.939247	46.50574
	7.93892	46.50559
	7.937676	46.50485
	7.936107	46.50423
	7.934994	46.50363
	7.9346	46.50329
	7.934531	46.50289
	7.934175	46.50239
	7.933842	46.50159
	7.933579	46.50136
	7.933511	46.50105
	7.932853	46.50029
	7.93252	46.4995
	7.932451	46.49905
	7.932472	46.49853
	7.932769	46.4982
	7.931947	46.49811
	7.931362	46.49825
	7.93114	46.49822
	7.929923	46.4976
	7.928985	46.49754
	7.92875	46.49745
	7.928424	46.49745
	7.927746	46.49737
	7.927118	46.49712
	7.927026	46.49698
	7.92683	46.49687
	7.926007	46.49672
	7.925154	46.49598
	7.924433	46.49548
	7.923413	46.49505
	7.923969	46.49456
	7.924805	46.49406
	7.924923	46.49383
	7.924936	46.49348
	7.924803	46.49312
	7.924579	46.49281
	7.923817	46.49209
	7.923266	46.49167
	7.922705	46.49159
	7.922314	46.49159
	7.921899	46.49168
	7.920883	46.49173
	7.920297	46.49169
	7.919229	46.4918
	7.918772	46.49166
	7.9176	46.49162
	7.916648	46.49149
	7.916517	46.49139
	7.916256	46.49139
	7.915904	46.4913
	7.915536	46.49094
	7.915507	46.49064
	7.915306	46.48997
	7.915069	46.48964
	7.91415	46.4889
	7.913731	46.48865
	7.913302	46.48867
	7.91291	46.48857
	7.912711	46.48812
	7.912291	46.48776
	7.912093	46.48746
	7.911958	46.48693
	7.911566	46.48677
	7.911109	46.48669
	7.910875	46.48673
	7.910135	46.487
	7.909055	46.48707
	7.907686	46.48694
	7.90658	46.48697
	7.90584	46.48725
	7.905993	46.48695
	7.905992	46.4868
	7.905664	46.4865
	7.904656	46.48597
	7.904096	46.48588
	7.903288	46.48586
	7.902505	46.48566
	7.901718	46.48494
	7.901259	46.48466
	7.900867	46.48448
	7.899885	46.48383
	7.898733	46.4832
	7.89838	46.48296
	7.898117	46.48269
	7.89779	46.48253
	7.896943	46.48247
	7.895795	46.48227
	7.895183	46.48223
	7.894624	46.48241
	7.893883	46.48255
	7.89313	46.48276
	7.891636	46.48326
	7.890895	46.48339
	7.889939	46.48279
	7.889587	46.4827
	7.889064	46.48248
	7.887912	46.48167
	7.887451	46.48111
	7.887255	46.48095
	7.886512	46.48085
	7.886017	46.48085
	7.885103	46.48056
	7.88423	46.48047
	7.882205	46.47974
	7.880666	46.47943
	7.879947	46.47912
	7.879491	46.47908
	7.878447	46.47877
	7.87803	46.47872
	7.877314	46.47873
	7.87623	46.47839
	7.875683	46.47837
	7.875228	46.47842
	7.874706	46.47835
	7.874187	46.47851
	7.8736	46.47844
	7.87304	46.47844
	7.87141	46.47809
	7.870666	46.47785
	7.869949	46.47778
	7.867763	46.47797
	7.866267	46.4782
	7.865095	46.47823
	7.864679	46.4783
	7.864353	46.47821
	7.862882	46.47829
	7.861878	46.47815
	7.860417	46.47812
	7.859634	46.47786
	7.857951	46.47776
	7.856384	46.47773
	7.853964	46.47735
	7.851682	46.4774
	7.850349	46.47715
	7.849821	46.47775
	7.849403	46.47811
	7.848535	46.4787
	7.848211	46.47881
	7.847781	46.47881
	7.847495	46.47888
	7.847039	46.47888
	7.846153	46.4788
	7.845239	46.4785
	7.844888	46.47855
	7.844627	46.47849
	7.844299	46.47815
	7.843412	46.47786
	7.842692	46.47743
	7.841752	46.47706
	7.84132	46.47672
	7.840405	46.47627
	7.839528	46.47567
	7.83805	46.47482
	7.837136	46.47439
	7.83681	46.47429
	7.836392	46.47422
	7.835804	46.47393
	7.835152	46.47382
	7.834001	46.47305
	7.833413	46.47274
	7.83276	46.47252
	7.832239	46.47241
	7.831757	46.47239
	7.831392	46.47242
	7.831131	46.47233
	7.830477	46.47188
	7.829602	46.47154
	7.82891	46.47118
	7.826134	46.46899
	7.825963	46.46876
	7.825962	46.46866
	7.826323	46.46807
	7.826216	46.46768
	7.825862	46.46733
	7.825234	46.46695
	7.822466	46.46581
	7.821383	46.4655
	7.82021	46.46532
	7.819532	46.46512
	7.818579	46.4647
	7.818318	46.46465
	7.816751	46.46401
	7.81238	46.46247
	7.811506	46.46225
	7.810399	46.46214
	7.807661	46.46157
	7.803644	46.46045
	7.8029	46.46019
	7.802443	46.45992
	7.801333	46.45938
	7.799704	46.45912
	7.798922	46.45894
	7.798139	46.4586
	7.796433	46.45661
	7.796106	46.45631
	7.795611	46.45622
	7.795128	46.45603
	7.794827	46.45576
	7.794239	46.45545
	7.794146	46.45524
	7.793451	46.45432
	7.793189	46.45415
	7.792707	46.4541
	7.792732	46.45392
	7.791427	46.45334
	7.789799	46.45321
	7.787254	46.45207
	7.78664	46.45171
	7.786208	46.45135
	7.785749	46.45086
	7.785459	46.45035
	7.784934	46.44963
	7.784631	46.44895
	7.784175	46.44891
	7.782713	46.44826
	7.781955	46.44779
	7.781407	46.44754
	7.781107	46.44735
	7.780818	46.44705
	7.780493	46.44696
	7.780166	46.44681
	7.779865	46.44654
	7.779379	46.44584
	7.778658	46.44497
	7.778592	46.44472
	7.778654	46.44436
	7.778284	46.44349
	7.777045	46.44299
	7.776368	46.44288
	7.77461	46.4428
	7.77246	46.44229
	7.771938	46.44208
	7.770958	46.44144
	7.769936	46.44018
	7.769674	46.44
	7.768931	46.43966
	7.7685	46.43938
	7.768109	46.43933
	7.767719	46.43938
	7.767329	46.43956
	7.766719	46.43971
	7.766069	46.43976
	7.765742	46.43963
	7.765376	46.43931
	7.764956	46.43867
	7.764626	46.43786
	7.764234	46.43763
	7.763804	46.43747
	7.763516	46.43719
	7.762564	46.43685
	7.762172	46.43658
	7.761716	46.43654
	7.760905	46.43582
	7.758495	46.43527
	7.757908	46.43504
	7.757714	46.43513
	7.757323	46.43515
	7.756437	46.43496
	7.755782	46.43403
	7.755062	46.4333
	7.754865	46.43296
	7.753691	46.43245
	7.753078	46.43224
	7.752712	46.43188
	7.752099	46.43173
	7.751903	46.43155
	7.75148	46.43132
	7.750498	46.43114
	7.750199	46.43093
	7.748265	46.4301
	7.747378	46.43003
	7.747236	46.42997
	7.746932	46.4296
	7.74665	46.42935
	7.744614	46.4286
	7.744319	46.42847
	7.743174	46.42707
	7.741275	46.42618
	7.740988	46.42596
	7.7408	46.42567
	7.740072	46.4255
	7.739625	46.42527
	7.739017	46.42516
	7.736448	46.42413
	7.732104	46.42245
	7.730775	46.422
	7.729304	46.42181
	7.727911	46.42154
	7.721885	46.42102
	7.7199	46.41942
	7.718856	46.41868
	7.718137	46.41807
	7.717548	46.4174
	7.716854	46.41641
	7.715545	46.41484
	7.709532	46.41398
	7.708647	46.41391
	7.707219	46.41453
	7.706117	46.41518
	7.705663	46.41539
	7.705145	46.41581
	7.705081	46.41599
	7.704822	46.41635
	7.704343	46.41679
	7.702786	46.41753
	7.702358	46.4178
	7.701163	46.41819
	7.700904	46.41837
	7.699113	46.41909
	7.698893	46.41933
	7.69827	46.41977
	7.697364	46.42062
	7.697235	46.4209
	7.696885	46.42117
	7.696369	46.42198
	7.694749	46.42321
	7.694295	46.42366
	7.694063	46.42402
	7.693973	46.42428
	7.693611	46.42465
	7.693677	46.425
	7.693	46.42482
	7.692739	46.4247
	7.692179	46.42459
	7.691308	46.42464
	7.69101	46.42489
	7.690228	46.42469
	7.689905	46.42507
	7.689451	46.42538
	7.688996	46.42538
	7.68806	46.42557
	7.686852	46.42605
	7.686268	46.42638
	7.685684	46.4265
	7.684877	46.42647
	7.683994	46.42692
	7.683514	46.42704
	7.682343	46.4272
	7.68198	46.42732
	7.680941	46.42781
	7.679707	46.42822
	7.679032	46.42855
	7.678513	46.4289
	7.67698	46.42928
	7.673082	46.43044
	7.670002	46.43125
	7.667754	46.43202
	7.664544	46.43284
	7.653627	46.43594
	7.651444	46.43662
	7.645985	46.43814
	7.643164	46.43883
	7.637965	46.44035
	7.637211	46.44051
	7.636405	46.44076
	7.635456	46.44114
	7.634326	46.44168
	7.632962	46.44243
	7.626101	46.44505
	7.625381	46.44397
	7.62525	46.44352
	7.62483	46.44264
	7.624633	46.44197
	7.624046	46.44157
	7.623199	46.44121
	7.622482	46.44074
	7.622089	46.44007
	7.621854	46.43984
	7.621436	46.43953
	7.620198	46.43886
	7.619768	46.43868
	7.618243	46.43789
	7.617787	46.4378
	7.616422	46.43792
	7.61499	46.43794
	7.61443	46.43778
	7.612802	46.43716
	7.61202	46.43698
	7.611473	46.43671
	7.611174	46.43667
	7.610199	46.43695
	7.609808	46.43687
	7.609652	46.43673
	7.609651	46.43646
	7.60978	46.43624
	7.60965	46.43613
	7.609323	46.43559
	7.608801	46.43507
	7.608696	46.43475
	7.60876	46.43444
	7.608731	46.4334
	7.609078	46.43237
	7.609792	46.43169
	7.609986	46.4314
	7.60992	46.43113
	7.609699	46.431
	7.609568	46.43069
	7.609824	46.42952
	7.610212	46.42886
	7.610212	46.42857
	7.609456	46.42817
	7.609064	46.42778
	7.608907	46.42738
	7.60897	46.42679
	7.60893	46.42657
	7.608317	46.42598
	7.608121	46.42571
	7.60795	46.42525
	7.60769	46.42508
	7.606817	46.42468
	7.605383	46.42369
	7.604888	46.4235
	7.604406	46.42311
	7.603364	46.42278
	7.603129	46.42262
	7.602869	46.42253
	7.602479	46.42257
	7.60144	46.42311
	7.60092	46.42319
	7.600399	46.42312
	7.599852	46.42298
	7.599592	46.4228
	7.599486	46.42213
	7.599329	46.42195
	7.598547	46.42157
	7.598443	46.42145
	7.598507	46.42126
	7.59935	46.42019
	7.599023	46.41955
	7.599061	46.4192
	7.59919	46.41887
	7.600123	46.41776
	7.600161	46.41722
	7.600316	46.41694
	7.600184	46.41626
	7.59983	46.41552
	7.599439	46.41529
	7.598815	46.41509
	7.598163	46.41471
	7.59755	46.41424
	7.596964	46.41367
	7.596075	46.41222
	7.596009	46.41174
	7.596047	46.41141
	7.595527	46.41143
	7.594877	46.41164
	7.592862	46.41215
	7.592238	46.4122
	7.590484	46.41263
	7.589314	46.41299
	7.586624	46.41367
	7.586364	46.41378
	7.585455	46.41437
	7.585222	46.41457
	7.585327	46.41493
	7.585288	46.41507
	7.585068	46.41534
	7.584418	46.41556
	7.584093	46.41574
	7.583925	46.4159
	7.583834	46.41615
	7.583861	46.41635
	7.584122	46.41675
	7.583641	46.41702
	7.583519	46.41735
	7.5831	46.41736
	7.582394	46.4174
	7.581809	46.41755
	7.581328	46.41758
	7.581273	46.41752
	7.581483	46.41733
	7.581483	46.41723
	7.580858	46.41724
	7.581041	46.417
	7.580858	46.41687
	7.580455	46.41693
	7.579558	46.41717
	7.578442	46.41727
	7.577841	46.41715
	7.5768	46.41705
	7.576683	46.417
	7.576346	46.41663
	7.576044	46.41645
	7.575367	46.41631
	7.574755	46.41597
	7.573193	46.41549
	7.572429	46.41492
	7.572013	46.41473
	7.570912	46.41456
	7.570044	46.41472
	7.568977	46.41462
	7.567959	46.41438
	7.567464	46.41422
	7.565494	46.41434
	7.564856	46.41405
	7.564074	46.41347
	7.563659	46.41337
	7.563391	46.41336
	7.562913	46.41346
	7.562757	46.41329
	7.562753	46.41306
	7.562378	46.41242
	7.562278	46.4127
	7.56165	46.41303
	7.56063	46.41339
	7.559874	46.41353
	7.558583	46.41365
	7.557139	46.41369
	7.555798	46.41365
	7.554875	46.41356
	7.554499	46.41346
	7.553933	46.41335
	7.55044	46.41215
	7.549941	46.41205
	7.54851	46.41194
	7.547886	46.41193
	7.545777	46.412
	7.544163	46.41216
	7.543615	46.41206
	7.543355	46.41197
	7.542319	46.41151
	7.541344	46.41162
	7.539512	46.41155
	7.53914	46.41121
	7.538788	46.41101
	7.538002	46.41076
	7.537255	46.41039
	7.536036	46.41008
	7.534917	46.40995
	7.534529	46.40996
	7.534087	46.40981
	7.533803	46.40946
	7.533569	46.40941
	7.53363	46.40929
	7.533591	46.40905
	7.533358	46.40885
	7.53285	46.40865
	7.532943	46.40847
	7.533464	46.40794
	7.53354	46.40769
	7.533435	46.40714
	7.533329	46.40696
	7.533173	46.40684
	7.532444	46.40648
	7.532041	46.40619
	7.531973	46.40605
	7.53192	46.40552
	7.531321	46.40482
	7.530382	46.40321
	7.528949	46.40152
	7.528661	46.40082
	7.528596	46.40053
	7.528725	46.40021
	7.52905	46.39985
	7.530505	46.39931
	7.531219	46.39889
	7.531934	46.39857
	7.533142	46.39776
	7.533958	46.39743
	7.535434	46.39706
	7.535951	46.39665
	7.536198	46.39652
	7.53712	46.39623
	7.537804	46.39608
	7.538799	46.39571
	7.53934	46.39561
	7.540791	46.39488
	7.541861	46.39469
	7.542793	46.39424
	7.546813	46.39406
	7.547397	46.39379
	7.549514	46.39253
	7.550643	46.39176
	7.551072	46.39154
	7.551592	46.39145
	7.551943	46.39145
	7.552397	46.39118
	7.55415	46.38993
	7.554514	46.38982
	7.554604	46.38966
	7.554838	46.38955
	7.554968	46.38944
	7.554994	46.38928
	7.55527	46.38897
	7.552869	46.38815
	7.541272	46.38411
	7.541055	46.38396
	7.540437	46.38348
	7.539811	46.38273
	7.538548	46.38002
	7.538577	46.37901
	7.539097	46.37785
	7.538669	46.37754
	7.537838	46.37715
	7.534274	46.37662
	7.533373	46.37639
	7.529333	46.37569
	7.528312	46.37533
	7.526966	46.37462
	7.52647	46.37462
	7.525819	46.37475
	7.525003	46.37473
	7.524733	46.37485
	7.52442	46.37491
	7.52356	46.37487
	7.522936	46.37491
	7.521615	46.37486
	7.520776	46.3749
	7.519547	46.37532
	7.518	46.37536
	7.516921	46.3756
	7.516031	46.37562
	7.515288	46.37557
	7.513926	46.37597
	7.51308	46.37607
	7.512777	46.37616
	7.511561	46.37614
	7.510939	46.37596
	7.50932	46.37589
	7.507415	46.37591
	7.507157	46.37584
	7.50568	46.37461
	7.505674	46.37447
	7.505968	46.37412
	7.506084	46.37383
	7.50608	46.37347
	7.505832	46.37326
	7.505007	46.37304
	7.504571	46.37246
	7.50363	46.37197
	7.503267	46.37166
	7.502893	46.37155
	7.502504	46.37048
	7.500349	46.36996
	7.50002	46.37004
	7.499322	46.36988
	7.494624	46.37191
	7.490401	46.37029
	7.486868	46.37072
	7.486598	46.37089
	7.485474	46.37178
	7.48532	46.37195
	7.485188	46.37228
	7.48515	46.37264
	7.485759	46.3738
	7.485821	46.37462
	7.484952	46.3783
	7.483829	46.38108
	7.483066	46.38228
	7.482188	46.38343
	7.48142	46.38414
	7.479406	46.38526
	7.478598	46.3849
	7.477902	46.38471
	7.477338	46.38443
	7.47647	46.38433
	7.475551	46.38411
	7.474946	46.3839
	7.47434	46.38391
	7.473291	46.38362
	7.473381	46.38221
	7.473206	46.38153
	7.472925	46.38103
	7.472654	46.38081
	7.471677	46.38054
	7.471071	46.3802
	7.470822	46.37987
	7.470714	46.37955
	7.470348	46.37909
	7.470217	46.37874
	7.469905	46.37844
	7.469742	46.37812
	7.469227	46.37827
	7.469104	46.37826
	7.468778	46.37816
	7.468484	46.37799
	7.468215	46.37797
	7.467348	46.37817
	7.466619	46.37829
	7.465686	46.37836
	7.465471	46.37835
	7.464928	46.37811
	7.464053	46.37806
	7.463635	46.3781
	7.463376	46.37739
	7.463157	46.37707
	7.462143	46.37642
	7.459893	46.37751
	7.459633	46.37767
	7.458763	46.37855
	7.458659	46.37874
	7.458854	46.37895
	7.459023	46.37927
	7.459244	46.37991
	7.459219	46.38039
	7.458569	46.38102
	7.457619	46.38148
	7.45704	46.38164
	7.4566	46.3817
	7.456128	46.38158
	7.455924	46.38154
	7.455581	46.38144
	7.453725	46.38236
	7.451356	46.38181
	7.450861	46.38174
	7.450315	46.3818
	7.449366	46.38224
	7.448755	46.38242
	7.448132	46.38252
	7.445792	46.38264
	7.445116	46.38261
	7.444856	46.38269
	7.444297	46.38275
	7.443231	46.383
	7.441736	46.38354
	7.440241	46.38422
	7.439813	46.38462
	7.438942	46.3857
	7.438643	46.38617
	7.438318	46.38612
	7.437018	46.38579
	7.435302	46.38525
	7.433573	46.38511
	7.433313	46.38485
	7.432702	46.38441
	7.432338	46.38426
	7.432143	46.38408
	7.431948	46.38377
	7.431234	46.3832
	7.430948	46.38291
	7.430752	46.38257
	7.429323	46.38143
	7.428309	46.38086
	7.427724	46.38068
	7.427334	46.38062
	7.426918	46.38063
	7.425645	46.38084
	7.424839	46.38104
	7.424384	46.38077
	7.423669	46.38045
	7.422824	46.38032
	7.422395	46.3803
	7.42181	46.3805
	7.421524	46.3805
	7.4199	46.38032
	7.419276	46.38044
	7.418665	46.38027
	7.417716	46.38023
	7.41717	46.38027
	7.416806	46.38018
	7.416352	46.37981
	7.416092	46.37936
	7.415767	46.37913
	7.415312	46.37891
	7.414987	46.37879
	7.413921	46.37874
	7.413038	46.37859
	7.411517	46.37852
	7.411218	46.37838
	7.410698	46.37792
	7.410244	46.37762
	7.409594	46.37738
	7.409373	46.37715
	7.408879	46.37699
	7.4081	46.37694
	7.407424	46.37681
	7.405929	46.3764
	7.404695	46.37625
	7.404286	46.37611
	7.403473	46.37572
	7.402878	46.37555
	7.401629	46.37455
	7.401044	46.37425
	7.400691	46.37474
	7.400666	46.37514
	7.400731	46.37537
	7.400601	46.37584
	7.399626	46.37656
	7.398677	46.37593
	7.397547	46.3753
	7.395923	46.37449
	7.393935	46.37374
	7.39274	46.3731
	7.392546	46.3728
	7.392447	46.37245
	7.392156	46.37199
	7.390429	46.37083
	7.38973	46.37049
	7.389781	46.37033
	7.389641	46.36999
	7.389455	46.36974
	7.388351	46.369
	7.388092	46.36897
	7.387702	46.36905
	7.387351	46.3692
	7.386961	46.36927
	7.386662	46.3692
	7.386052	46.36866
	7.385662	46.36864
	7.385337	46.36816
	7.384844	46.36798
	7.384584	46.3677
	7.384559	46.36722
	7.384299	46.36666
	7.384001	46.36641
	7.382352	46.36528
	7.382216	46.36509
	7.381852	46.36472
	7.381501	46.36449
	7.381073	46.3644
	7.380618	46.36442
	7.380332	46.36451
	7.380098	46.36472
	7.379383	46.3649
	7.378733	46.36478
	7.378344	46.36464
	7.377928	46.36419
	7.376954	46.36368
	7.376786	46.36352
	7.376397	46.36291
	7.375293	46.36194
	7.374904	46.36138
	7.374424	46.36091
	7.373541	46.36039
	7.372281	46.36001
	7.371307	46.35981
	7.371047	46.35981
	7.37093	46.35956
	7.370307	46.35935
	7.369922	46.35912
	7.369385	46.35902
	7.369035	46.35867
	7.36858	46.35841
	7.36845	46.35829
	7.368404	46.35811
	7.368282	46.35801
	7.367594	46.35762
	7.367658	46.35756
	7.367318	46.3575
	7.36642	46.35721
	7.365943	46.35715
	7.3653	46.35699
	7.362906	46.3567
	7.362544	46.35645
	7.362217	46.35593
	7.360985	46.35492
	7.36066	46.35447
	7.359518	46.35384
	7.358973	46.35323
	7.358304	46.35291
	7.357972	46.3529
	7.357428	46.35272
	7.356493	46.35208
	7.355877	46.35177
	7.355784	46.35144
	7.354951	46.35077
	7.353965	46.35034
	7.353314	46.35017
	7.353186	46.35042
	7.352114	46.35049
	7.351115	46.35045
	7.349361	46.35087
	7.347711	46.35071
	7.34704	46.35008
	7.346241	46.34962
	7.345808	46.34944
	7.345155	46.34924
	7.344964	46.34907
	7.342809	46.34826
	7.34249	46.34832
	7.341916	46.34813
	7.341316	46.34813
	7.340334	46.34771
	7.339843	46.34763
	7.338848	46.34735
	7.33853	46.34711
	7.337764	46.34691
	7.337235	46.34701
	7.336533	46.347
	7.336112	46.34674
	7.335296	46.34666
	7.333899	46.34626
	7.333536	46.34622
	7.3327	46.34638
	7.33224	46.34643
	7.331717	46.34637
	7.330901	46.34597
	7.33062	46.34599
	7.330008	46.34593
	7.328312	46.34557
	7.327362	46.34524
	7.326393	46.34468
	7.325424	46.34462
	7.323638	46.34419
	7.321156	46.34426
	7.32062	46.34421
	7.319485	46.34387
	7.318898	46.34391
	7.31752	46.3438
	7.316946	46.3439
	7.315645	46.34366
	7.315236	46.34385
	7.315082	46.34427
	7.313472	46.34556
	7.311016	46.3477
	7.310377	46.34847
	7.31035	46.349
	7.310196	46.34938
	7.309729	46.34973
	7.308809	46.35033
	7.308233	46.35108
	7.307988	46.35191
	7.307962	46.35236
	7.308114	46.35283
	7.309411	46.35461
	7.309702	46.35548
	7.309868	46.3557
	7.309918	46.35603
	7.309315	46.35728
	7.30911	46.35747
	7.308625	46.35776
	7.308368	46.35842
	7.308367	46.35879
	7.30996	46.35961
	7.310431	46.36043
	7.310399	46.36098
	7.311361	46.36225
	7.312231	46.36314
	7.312529	46.36365
	7.312582	46.36424
	7.312744	46.36489
	7.312762	46.36509
	7.312406	46.36585
	7.312693	46.3672
	7.312492	46.3677
	7.312527	46.36844
	7.312805	46.36978
	7.312822	46.37033
	7.312758	46.37067
	7.312484	46.371
	7.312374	46.37166
	7.312164	46.37217
	7.311626	46.37288
	7.311264	46.37389
	7.310286	46.37516
	7.299063	46.3664
	7.298799	46.36626
	7.297844	46.36592
	7.297319	46.36584
	7.296783	46.3659
	7.29655	46.36585
	7.296043	46.36587
	7.295734	46.36559
	7.295536	46.36563
	7.294923	46.36594
	7.294701	46.36611
	7.294409	46.36625
	7.294257	46.36642
	7.294024	46.36655
	7.292503	46.36654
	7.291599	46.36666
	7.290701	46.36718
	7.262306	46.35824
	7.262041	46.35745
	7.26131	46.35613
	7.260842	46.35514
	7.260675	46.35497
	7.260497	46.35446
	7.261265	46.35403
	7.261266	46.35386
	7.261043	46.35362
	7.26106	46.35344
	7.261452	46.35309
	7.261557	46.35276
	7.261901	46.35253
	7.26191	46.35236
	7.26101	46.35159
	7.261235	46.35115
	7.261213	46.35071
	7.261974	46.34987
	7.262494	46.34959
	7.262542	46.34942
	7.262439	46.34929
	7.26155	46.34881
	7.261512	46.34819
	7.261162	46.34788
	7.26099	46.34683
	7.261043	46.34637
	7.260789	46.34603
	7.260807	46.34549
	7.260321	46.34524
	7.260062	46.34499
	7.260031	46.34475
	7.260179	46.3444
	7.261012	46.34391
	7.260981	46.34339
	7.261166	46.34294
	7.261208	46.3425
	7.261529	46.34156
	7.261548	46.34121
	7.261323	46.34075
	7.261455	46.33993
	7.262572	46.33897
	7.262808	46.33867
	7.262803	46.3385
	7.262596	46.33816
	7.262327	46.33786
	7.261807	46.33743
	7.261279	46.33738
	7.260834	46.33721
	7.260398	46.3369
	7.25902	46.3362
	7.258674	46.33564
	7.258351	46.33533
	7.258077	46.33477
	7.257061	46.33369
	7.254298	46.33112
	7.252689	46.33014
	7.251989	46.32983
	7.251642	46.32981
	7.251169	46.32988
	7.250381	46.3301
	7.250116	46.33011
	7.249657	46.32984
	7.248758	46.32946
	7.247706	46.32885
	7.24724	46.32869
	7.246431	46.328
	7.246017	46.32786
	7.242083	46.32749
	7.24048	46.32708
	7.239199	46.32695
	7.238391	46.327
	7.237629	46.3272
	7.237363	46.32721
	7.236544	46.32708
	7.234987	46.32671
	7.23313	46.32652
	7.23253	46.32653
	7.230982	46.32677
	7.229792	46.3272
	7.228926	46.32741
	7.228128	46.32749
	7.227459	46.32761
	7.22173	46.32942
	7.222557	46.34857
	7.221181	46.35134
	7.221158	46.35173
	7.220955	46.35215
	7.221074	46.35279
	7.219724	46.35591
	7.218887	46.35753
	7.219442	46.35778
	7.220474	46.35804
	7.220923	46.35825
	7.22156	46.35831
	7.221873	46.35851
	7.223458	46.35863
	7.224044	46.35891
	7.224019	46.3591
	7.224529	46.35929
	7.225173	46.35924
	7.225807	46.35906
	7.226209	46.35908
	7.226785	46.3595
	7.226797	46.35991
	7.226961	46.36015
	7.227289	46.36037
	7.227282	46.36049
	7.227778	46.36112
	7.228825	46.36116
	7.229558	46.36138
	7.229869	46.36159
	7.230005	46.36191
	7.229046	46.3623
	7.228348	46.36234
	7.227996	46.36245
	7.227928	46.36302
	7.227563	46.36338
	7.227538	46.36351
	7.227126	46.3636
	7.226362	46.36405
	7.226279	46.36453
	7.226358	46.36503
	7.221311	46.36295
	7.219163	46.36196
	7.216609	46.36189
	7.216435	46.3621
	7.21611	46.36199
	7.214429	46.36415
	7.210887	46.3677
	7.210413	46.36923
	7.210417	46.37031
	7.210217	46.3711
	7.209759	46.37181
	7.209686	46.37222
	7.209517	46.37228
	7.209179	46.37269
	7.208704	46.37282
	7.207758	46.37332
	7.207325	46.37341
	7.207451	46.37507
	7.207795	46.37531
	7.207835	46.37543
	7.207542	46.37582
	7.207566	46.37646
	7.207476	46.37672
	7.207681	46.37734
	7.207632	46.37748
	7.207436	46.3776
	7.207432	46.37772
	7.207659	46.37791
	7.207753	46.37818
	7.208451	46.37868
	7.207917	46.37896
	7.207594	46.37895
	7.20682	46.37935
	7.20581	46.37957
	7.205301	46.3795
	7.204881	46.37917
	7.203527	46.3787
	7.202787	46.37874
	7.202353	46.37862
	7.201444	46.37889
	7.193711	46.37893
	7.193815	46.3796
	7.194042	46.38011
	7.193912	46.38047
	7.194217	46.382
	7.194244	46.38318
	7.194517	46.38381
	7.194395	46.38396
	7.194607	46.38407
	7.194945	46.3849
	7.196775	46.38687
	7.198501	46.38945
	7.198355	46.39031
	7.198395	46.39065
	7.200862	46.39286
	7.201239	46.39334
	7.20139	46.39434
	7.201911	46.39547
	7.203191	46.39654
	7.203746	46.39721
	7.204271	46.39834
	7.20461	46.39946
	7.204536	46.40041
	7.204853	46.40058
	7.205576	46.40123
	7.206689	46.40205
	7.207052	46.4022
	7.207239	46.40254
	7.20779	46.40298
	7.207644	46.40625
	7.207145	46.40748
	7.206942	46.40838
	7.207188	46.40903
	7.207219	46.41007
	7.207548	46.41111
	7.207977	46.41163
	7.208234	46.41217
	7.208062	46.41233
	7.208016	46.41254
	7.20806	46.4127
	7.208341	46.41297
	7.208313	46.41324
	7.208498	46.41355
	7.208452	46.41385
	7.208856	46.41465
	7.208832	46.41496
	7.209055	46.41529
	7.209738	46.41585
	7.209873	46.41628
	7.209254	46.41702
	7.208977	46.41714
	7.207916	46.41795
	7.206776	46.4193
	7.206747	46.41977
	7.206339	46.42062
	7.206356	46.42124
	7.205769	46.4213
	7.205167	46.42146
	7.203619	46.42207
	7.2018	46.42394
	7.200399	46.42597
	7.200136	46.42668
	7.199934	46.42819
	7.199721	46.42859
	7.199156	46.42926
	7.198369	46.42985
	7.19693	46.4306
	7.196558	46.43122
	7.196084	46.43134
	7.195547	46.43162
	7.194833	46.43241
	7.193248	46.43337
	7.192823	46.43376
	7.192547	46.43522
	7.193151	46.43631
	7.194957	46.44061
	7.195143	46.44067
	7.195733	46.44042
	7.196069	46.44052
	7.19648	46.44056
	7.196754	46.44038
	7.197038	46.44044
	7.197195	46.4404
	7.197322	46.44043
	7.19744	46.44037
	7.198127	46.44032
	7.198758	46.44015
	7.198976	46.44019
	7.199223	46.44044
	7.199477	46.4405
	7.199962	46.4405
	7.200197	46.44059
	7.200513	46.4408
	7.200998	46.4407
	7.201374	46.4408
	7.202111	46.44078
	7.202221	46.44056
	7.202987	46.44033
	7.203085	46.44027
	7.203478	46.44017
	7.203984	46.44023
	7.204136	46.43999
	7.204061	46.4397
	7.203924	46.43955
	7.204053	46.43931
	7.204251	46.43922
	7.205153	46.43914
	7.209957	46.43947
	7.213142	46.4395
	7.218872	46.44137
	7.222575	46.44201
	7.223109	46.44231
	7.225155	46.44428
	7.225685	46.44559
	7.226147	46.44703
	7.226173	46.44811
	7.226391	46.44855
	7.226948	46.44918
	7.227035	46.44948
	7.226782	46.44966
	7.226608	46.44999
	7.226525	46.4508
	7.226289	46.45106
	7.225979	46.45165
	7.226678	46.45195
	7.227258	46.4521
	7.22764	46.45234
	7.228417	46.45272
	7.228622	46.45274
	7.228941	46.45288
	7.229281	46.45317
	7.229736	46.45337
	7.230608	46.45353
	7.230982	46.45343
	7.231371	46.45356
	7.231764	46.45357
	7.232334	46.45394
	7.231548	46.45447
	7.230767	46.45491
	7.230139	46.45504
	7.229867	46.45547
	7.229442	46.45571
	7.229215	46.45603
	7.228968	46.45626
	7.228709	46.45637
	7.228537	46.45658
	7.22753	46.45713
	7.226665	46.45742
	7.226369	46.45747
	7.227263	46.45807
	7.228898	46.45892
	7.229153	46.45951
	7.229822	46.4616
	7.228906	46.46233
	7.229448	46.46335
	7.23012	46.4642
	7.230917	46.4662
	7.230865	46.46652
	7.227315	46.47242
	7.224985	46.47748
	7.224587	46.48483
	7.224507	46.48542
	7.224147	46.48689
	7.224561	46.48695
	7.22521	46.48691
	7.225635	46.48683
	7.226523	46.48648
	7.22722	46.48631
	7.227578	46.48635
	7.227504	46.4872
	7.229163	46.48698
	7.229329	46.4874
	7.230328	46.48748
	7.230874	46.48765
	7.231263	46.48772
	7.232943	46.48782
	7.234154	46.48793
	7.234654	46.48801
	7.236194	46.48803
	7.235897	46.48918
	7.235859	46.48984
	7.236017	46.49133
	7.235914	46.49148
	7.235567	46.49279
	7.235415	46.49284
	7.235063	46.49321
	7.234377	46.49407
	7.233491	46.49434
	7.232591	46.49478
	7.232676	46.49488
	7.233819	46.49508
	7.234234	46.49508
	7.234528	46.49514
	7.234612	46.49524
	7.235056	46.49545
	7.235507	46.49548
	7.235921	46.49557
	7.23629	46.49537
	7.236474	46.49537
	7.237297	46.4956
	7.237418	46.49568
	7.237497	46.49575
	7.237489	46.49612
	7.237642	46.49615
	7.238049	46.496
	7.238243	46.49601
	7.238527	46.49631
	7.238977	46.4965
	7.239233	46.49648
	7.239156	46.49605
	7.239218	46.49591
	7.239315	46.49584
	7.239572	46.49579
	7.239777	46.496
	7.239817	46.49636
	7.239986	46.49658
	7.240367	46.49673
	7.241027	46.49687
	7.241333	46.49704
	7.241447	46.49717
	7.241465	46.49738
	7.241178	46.49796
	7.241448	46.4981
	7.241924	46.49819
	7.24238	46.4984
	7.242471	46.49876
	7.2424	46.499
	7.242516	46.49963
	7.243377	46.50002
	7.243567	46.5003
	7.243672	46.50065
	7.24385	46.50091
	7.244244	46.50106
	7.244635	46.50127
	7.244602	46.50135
	7.246289	46.50147
	7.24625	46.50199
	7.246401	46.50189
	7.246852	46.5026
	7.247143	46.50364
	7.247143	46.50399
	7.247085	46.50443
	7.247339	46.50459
	7.248167	46.50567
	7.248245	46.50591
	7.248339	46.50642
	7.248358	46.5068
	7.247978	46.50782
	7.248032	46.50791
	7.248645	46.50821
	7.248772	46.50832
	7.248912	46.50874
	7.249537	46.50918
	7.249674	46.50936
	7.250074	46.51066
	7.250064	46.51085
	7.249807	46.51145
	7.250267	46.51271
	7.250229	46.51293
	7.249998	46.51358
	7.249866	46.51383
	7.249817	46.51399
	7.249765	46.51472
	7.24977	46.51484
	7.249886	46.51518
	7.250005	46.5156
	7.250078	46.51617
	7.250686	46.51692
	7.250716	46.51711
	7.250699	46.51784
	7.250487	46.51885
	7.250554	46.51899
	7.250723	46.52011
	7.250768	46.52195
	7.2506	46.5223
	7.249954	46.52299
	7.250052	46.52351
	7.250006	46.52374
	7.249716	46.52437
	7.24972	46.52496
	7.249505	46.52551
	7.249339	46.52582
	7.24937	46.52605
	7.249332	46.5266
	7.249356	46.52705
	7.249127	46.52809
	7.248951	46.52842
	7.2489	46.52862
	7.2487	46.5291
	7.248485	46.52948
	7.248558	46.52981
	7.248594	46.53031
	7.248586	46.53069
	7.248549	46.531
	7.248311	46.53174
	7.248013	46.53224
	7.24759	46.53281
	7.247444	46.53298
	7.246995	46.53338
	7.246556	46.53367
	7.246101	46.53389
	7.245651	46.53404
	7.245148	46.53415
	7.245193	46.53448
	7.245611	46.53487
	7.245644	46.53501
	7.245814	46.53526
	7.245849	46.53576
	7.246008	46.53592
	7.245916	46.53609
	7.245748	46.53708
	7.246032	46.53747
	7.245936	46.53783
	7.245428	46.53848
	7.245212	46.53858
	7.244997	46.53876
	7.244816	46.5388
	7.244734	46.53891
	7.244773	46.53929
	7.244607	46.53949
	7.244656	46.53998
	7.244574	46.5401
	7.244151	46.54035
	7.243877	46.54076
	7.243739	46.54081
	7.243372	46.54081
	7.242692	46.54118
	7.241823	46.54214
	7.241586	46.54228
	7.241362	46.5426
	7.241144	46.54273
	7.240559	46.54334
	7.240275	46.54378
	7.239955	46.54397
	7.23983	46.5443
	7.239604	46.54446
	7.239496	46.54473
	7.238901	46.5455
	7.238704	46.54562
	7.238222	46.54573
	7.237956	46.54603
	7.237569	46.54635
	7.237365	46.54639
	7.237159	46.54635
	7.23708	46.55379
	7.259296	46.56216
	7.279492	46.58552
	7.293117	46.59367
	7.315076	46.60215
	7.318602	46.61823
	7.327738	46.62604
	7.346972	46.63969
	7.374083	46.65556
	7.375846	46.6747
	7.379533	46.69098
	7.337699	46.70208
	7.307978	46.71721
	7.304691	46.719
	7.298797	46.72382
	7.296814	46.72906
	7.296814	46.73427
	7.298174	46.73885
	7.300894	46.74273
	7.304521	46.74654
	7.304748	46.75081
	7.303388	46.75935
	7.301291	46.76104
	7.301348	46.76255
	7.298457	46.76414
	7.295567	46.76593
	7.2933	46.76892
	7.292847	46.77144
	7.29058	46.77198
	7.293527	46.77431
	7.296984	46.77722
	7.300554	46.77893
	7.300894	46.78111
	7.304464	46.78308
	7.304068	46.7846
	7.301744	46.78627
	7.303388	46.78898
	7.301688	46.79275
	7.307354	46.79872
	7.307864	46.80175
	7.309111	46.80372
	7.310528	46.80869
	7.313531	46.81129
	7.320672	46.81513
	7.319368	46.81734
	7.320785	46.82009
	7.320785	46.82242
	7.319822	46.82587
	7.325149	46.82792
	7.329682	46.83006
	7.331552	46.83215
	7.329626	46.83424
	7.330419	46.83533
	7.336086	46.83568
	7.337195	46.83984
	7.339349	46.84348
	7.337989	46.84806
	7.341389	46.8517
	7.351023	46.85434
	7.356576	46.86015
	7.36213	46.86426
	7.36757	46.86464
	7.382644	46.85992
	7.397718	46.86441
	7.406219	46.86534
	7.411886	46.86828
	7.419139	46.87293
	7.434213	46.8758
	7.438974	46.88324
	7.441694	46.89083
	7.456921	46.89369
	7.461851	46.89857
	7.470975	46.90066
	7.478852	46.90198
	7.483385	46.90511
	7.493869	46.90163
	7.501349	46.90414
	7.507186	46.90484
	7.510927	46.9072
	7.510586	46.91038
	7.511214	46.91533
	7.519714	46.92137
	7.524248	46.92748
	7.52167	46.9329
	7.525297	46.93781
	7.525297	46.94389
	7.53272	46.95476
	7.535101	46.95712
	7.535894	46.95921
	7.534194	46.95986
	7.534704	46.96114
	7.540824	46.96594
	7.546208	46.97
	7.551818	46.97529
	7.561412	46.9925
	7.575838	47.00299
	7.575357	47.01709
	7.581608	47.02244
	7.58257	47.02987
	7.597957	47.03599
	7.600441	47.04315
	7.609578	47.04347
	7.624564	47.04315
	7.632579	47.04473
	7.635464	47.05276
	7.643157	47.06138
	7.642196	47.07214
	7.652517	47.08641
	7.654784	47.09251
	7.672352	47.10084
	7.678585	47.11357
	7.685638	47.12686
	7.699583	47.13449
	7.705674	47.14136
	7.711765	47.15793
	7.721061	47.1661
	7.724015	47.19127
	7.717123	47.20521
	7.725217	47.21234
	7.726018	47.22034
	7.730426	47.22383
	7.737559	47.22824
	7.733792	47.2315
	7.735716	47.23352
	7.740444	47.23439
	7.74365	47.23618
	7.744772	47.23885
	7.745894	47.24211
	7.74918	47.24407
	7.752946	47.24462
	7.757995	47.24429
	7.763685	47.24641
	7.768013	47.24913
	7.771058	47.24962
	7.775226	47.2494
	7.779393	47.24984
	7.781798	47.25131
	7.783721	47.25479
	7.78869	47.25849
	7.79414	47.26159
	7.798788	47.26692
	7.802715	47.26833
	7.805199	47.26828
	7.80568	47.26686
	7.80568	47.26458
	7.807043	47.26311
	7.815137	47.26126
	7.818142	47.2621
	7.825107	47.26557
END
END
