Switzerland_Zurich
1
	8.609469	47.67205
	8.609627	47.67201
	8.610337	47.67477
	8.610702	47.67558
	8.611303	47.67635
	8.61286	47.67774
	8.613391	47.6784
	8.613593	47.67854
	8.613898	47.67861
	8.614215	47.67858
	8.61444	47.67848
	8.614817	47.67814
	8.615535	47.67802
	8.615699	47.67795
	8.6168	47.67696
	8.616874	47.6768
	8.616897	47.67647
	8.616986	47.67632
	8.617648	47.67565
	8.618125	47.67534
	8.61867	47.67515
	8.619279	47.67506
	8.619903	47.67508
	8.620496	47.67521
	8.623954	47.67634
	8.624643	47.6766
	8.625257	47.67693
	8.625794	47.67731
	8.626244	47.67774
	8.62665	47.67829
	8.62711	47.67923
	8.627273	47.67968
	8.627348	47.68013
	8.627334	47.68062
	8.627216	47.68113
	8.62636	47.68281
	8.624031	47.68971
	8.624025	47.69026
	8.624207	47.69078
	8.624574	47.69126
	8.62509	47.69166
	8.625104	47.69167
	8.625714	47.69126
	8.626255	47.69157
	8.626294	47.69154
	8.626348	47.69149
	8.626918	47.69174
	8.62702	47.69185
	8.627236	47.6918
	8.628006	47.69194
	8.630704	47.69203
	8.631787	47.69224
	8.632275	47.69233
	8.633724	47.69251
	8.637639	47.69319
	8.638566	47.69346
	8.640217	47.69409
	8.641499	47.69445
	8.642128	47.69447
	8.642911	47.6944
	8.644718	47.69406
	8.645952	47.69362
	8.651261	47.69078
	8.653272	47.68945
	8.654118	47.68895
	8.659001	47.68656
	8.659961	47.68615
	8.660975	47.6858
	8.662033	47.68552
	8.663126	47.6853
	8.663453	47.68589
	8.669418	47.68489
	8.66945	47.68376
	8.669452	47.68368
	8.669336	47.68345
	8.669312	47.68341
	8.669683	47.68328
	8.669387	47.68294
	8.669474	47.68283
	8.669545	47.68284
	8.669594	47.68278
	8.669511	47.6827
	8.669471	47.68236
	8.669693	47.68161
	8.669566	47.68128
	8.669369	47.68107
	8.669603	47.68103
	8.669385	47.68033
	8.669109	47.67994
	8.668988	47.67977
	8.668716	47.67868
	8.668447	47.67823
	8.668358	47.67808
	8.668132	47.67764
	8.667973	47.67714
	8.668719	47.67576
	8.66924	47.67479
	8.66942	47.67467
	8.670926	47.67413
	8.67248	47.67345
	8.672524	47.67348
	8.673462	47.67292
	8.675731	47.67234
	8.67617	47.67212
	8.676261	47.67201
	8.676768	47.67187
	8.676867	47.67178
	8.676981	47.67149
	8.677052	47.67004
	8.677314	47.66937
	8.677503	47.66889
	8.677604	47.6684
	8.678745	47.66854
	8.679041	47.6678
	8.67901	47.66652
	8.678696	47.66582
	8.678605	47.66575
	8.678469	47.66576
	8.678434	47.66571
	8.678246	47.66577
	8.677905	47.6658
	8.677455	47.66584
	8.677406	47.66425
	8.677684	47.66258
	8.678318	47.66204
	8.678804	47.66148
	8.679317	47.66163
	8.679625	47.6609
	8.67927	47.66015
	8.679257	47.65965
	8.679602	47.65922
	8.679884	47.6587
	8.68009	47.65855
	8.68037	47.65815
	8.682167	47.65744
	8.682435	47.65718
	8.683126	47.65568
	8.683454	47.65565
	8.684603	47.65515
	8.684602	47.6534
	8.68508	47.65345
	8.685872	47.65363
	8.686697	47.6536
	8.688206	47.65126
	8.688009	47.65003
	8.688056	47.64998
	8.688386	47.64983
	8.690353	47.64943
	8.69217	47.64861
	8.692946	47.64837
	8.693149	47.64802
	8.694505	47.6479
	8.694603	47.64792
	8.69474	47.64806
	8.696113	47.64798
	8.698353	47.64771
	8.698659	47.64702
	8.700346	47.64703
	8.70076	47.64655
	8.70102	47.6458
	8.700918	47.64575
	8.701993	47.64541
	8.702784	47.64507
	8.703007	47.64487
	8.703313	47.64432
	8.70358	47.64412
	8.708145	47.64232
	8.708354	47.6422
	8.708649	47.64192
	8.708899	47.64195
	8.710342	47.64324
	8.711068	47.64361
	8.71195	47.64391
	8.712307	47.644
	8.712347	47.64393
	8.712547	47.64397
	8.714179	47.64438
	8.714734	47.64309
	8.716277	47.64317
	8.717011	47.6421
	8.717216	47.64181
	8.717273	47.64183
	8.717319	47.64184
	8.717416	47.64176
	8.719681	47.6411
	8.720048	47.6411
	8.72031	47.6419
	8.721068	47.64178
	8.72199	47.64176
	8.723494	47.64186
	8.723594	47.64258
	8.724101	47.6425
	8.724319	47.64261
	8.72459	47.64285
	8.724669	47.64297
	8.724651	47.64306
	8.726313	47.64287
	8.729318	47.64286
	8.729622	47.64282
	8.730639	47.64225
	8.731124	47.64211
	8.731725	47.64197
	8.734916	47.64118
	8.73543	47.6416
	8.735718	47.64197
	8.735488	47.64208
	8.736299	47.64232
	8.738073	47.64187
	8.740763	47.64218
	8.741741	47.64241
	8.743106	47.64287
	8.743455	47.64303
	8.743505	47.64301
	8.742956	47.64241
	8.742648	47.64225
	8.74315	47.64215
	8.743185	47.64176
	8.743329	47.64138
	8.743255	47.6408
	8.743359	47.63977
	8.745325	47.63944
	8.745963	47.63922
	8.746279	47.63903
	8.746911	47.63877
	8.747195	47.63865
	8.74773	47.63971
	8.748179	47.64079
	8.749666	47.64146
	8.749822	47.64127
	8.750283	47.64133
	8.751252	47.64131
	8.752049	47.64124
	8.752111	47.64239
	8.755172	47.64202
	8.755245	47.64205
	8.755642	47.64309
	8.756012	47.64315
	8.757266	47.64299
	8.757834	47.64318
	8.758464	47.64361
	8.758814	47.64397
	8.758923	47.64415
	8.759058	47.64463
	8.759755	47.64593
	8.759832	47.64555
	8.762076	47.64607
	8.762357	47.64618
	8.764692	47.64853
	8.764838	47.64882
	8.7649	47.6488
	8.764944	47.64876
	8.765222	47.64876
	8.765736	47.64881
	8.766316	47.64895
	8.767029	47.64928
	8.767703	47.64977
	8.768117	47.64998
	8.768607	47.65017
	8.768825	47.65019
	8.770897	47.64984
	8.771465	47.64984
	8.771976	47.64993
	8.772368	47.64995
	8.772735	47.64991
	8.77306	47.64976
	8.773666	47.64921
	8.774278	47.64882
	8.77445	47.64876
	8.776181	47.64885
	8.776331	47.64892
	8.77714	47.64951
	8.777311	47.64974
	8.777555	47.65034
	8.777954	47.65075
	8.778531	47.65103
	8.779375	47.65122
	8.78091	47.65167
	8.782052	47.65223
	8.782454	47.6525
	8.783859	47.65365
	8.783893	47.65374
	8.784002	47.65376
	8.785398	47.65512
	8.785957	47.65516
	8.786006	47.65521
	8.785859	47.65769
	8.785891	47.65775
	8.78648	47.65803
	8.786549	47.65811
	8.786717	47.65928
	8.786577	47.66074
	8.787771	47.66313
	8.788531	47.66536
	8.791211	47.66483
	8.792975	47.66468
	8.796307	47.66494
	8.798227	47.66498
	8.798412	47.66496
	8.798402	47.66492
	8.798813	47.66488
	8.799666	47.66492
	8.80184	47.66525
	8.802618	47.66529
	8.803138	47.66527
	8.803263	47.66522
	8.803624	47.66518
	8.803748	47.6652
	8.805251	47.66473
	8.80524	47.6642
	8.804166	47.6639
	8.804029	47.6624
	8.803409	47.66064
	8.804926	47.66041
	8.804857	47.6598
	8.804977	47.65857
	8.804808	47.65754
	8.804784	47.65746
	8.804687	47.65747
	8.804745	47.65742
	8.804433	47.65549
	8.804291	47.65494
	8.804424	47.65493
	8.804746	47.6548
	8.804844	47.65484
	8.805198	47.65473
	8.804852	47.65224
	8.806064	47.65198
	8.806664	47.6519
	8.8071	47.6519
	8.807716	47.65178
	8.808901	47.65178
	8.809925	47.65163
	8.810319	47.65152
	8.810847	47.65125
	8.811383	47.65113
	8.81336	47.65017
	8.813961	47.64992
	8.814125	47.65001
	8.814346	47.64983
	8.81464	47.64971
	8.81467	47.64962
	8.814709	47.64958
	8.814987	47.64974
	8.815582	47.64989
	8.815492	47.6498
	8.815794	47.64909
	8.816166	47.64934
	8.816717	47.64956
	8.817025	47.64954
	8.818369	47.64904
	8.818915	47.64893
	8.819161	47.64891
	8.819839	47.64903
	8.820934	47.64893
	8.821397	47.64877
	8.822953	47.64837
	8.823257	47.64827
	8.823748	47.648
	8.824554	47.64782
	8.824498	47.64762
	8.824813	47.64743
	8.825135	47.64726
	8.826177	47.64695
	8.826437	47.64675
	8.826578	47.64651
	8.826549	47.64615
	8.826315	47.64611
	8.826178	47.64532
	8.825863	47.64451
	8.82586	47.6443
	8.826435	47.64361
	8.826737	47.64348
	8.826929	47.64345
	8.826856	47.64339
	8.826946	47.64338
	8.826805	47.64252
	8.826917	47.64236
	8.827129	47.64225
	8.82731	47.64139
	8.827734	47.64099
	8.827789	47.64078
	8.827511	47.64011
	8.827391	47.63906
	8.826813	47.63864
	8.826857	47.63862
	8.826695	47.63789
	8.826406	47.63772
	8.825278	47.63751
	8.825304	47.63745
	8.825323	47.63741
	8.825371	47.63731
	8.824663	47.63532
	8.824421	47.63503
	8.823742	47.63442
	8.824674	47.63389
	8.823771	47.63322
	8.823702	47.63326
	8.823211	47.63302
	8.822942	47.63311
	8.82268	47.63294
	8.822315	47.63263
	8.821384	47.63152
	8.820916	47.63162
	8.820189	47.63054
	8.82078	47.63044
	8.820227	47.6293
	8.817815	47.62987
	8.817948	47.62981
	8.817834	47.62973
	8.817591	47.62825
	8.816634	47.62856
	8.815808	47.62872
	8.81543	47.62782
	8.814514	47.62794
	8.814053	47.62719
	8.813136	47.62744
	8.813129	47.62741
	8.812949	47.6256
	8.813521	47.62561
	8.813312	47.6247
	8.813536	47.62453
	8.813306	47.6242
	8.813308	47.62412
	8.812361	47.62443
	8.8123	47.6244
	8.811699	47.62265
	8.813747	47.62236
	8.812943	47.62206
	8.812959	47.62155
	8.814312	47.62166
	8.814292	47.62108
	8.813613	47.62066
	8.813125	47.6206
	8.812851	47.62064
	8.812966	47.61954
	8.812129	47.61946
	8.811543	47.61898
	8.812849	47.6182
	8.812327	47.61787
	8.812367	47.61786
	8.812175	47.61762
	8.812434	47.61737
	8.812722	47.61726
	8.813393	47.61715
	8.813992	47.61722
	8.813784	47.61682
	8.813161	47.61653
	8.811708	47.61647
	8.811332	47.61638
	8.810747	47.61573
	8.810583	47.61574
	8.810608	47.61519
	8.810443	47.61515
	8.808677	47.61511
	8.808621	47.61515
	8.808489	47.61455
	8.80852	47.61409
	8.80836	47.61405
	8.80674	47.6142
	8.805038	47.61373
	8.804702	47.61332
	8.804496	47.61244
	8.804075	47.61163
	8.804103	47.61129
	8.803986	47.61071
	8.804168	47.61065
	8.804117	47.61017
	8.804035	47.60989
	8.803803	47.60958
	8.804125	47.60944
	8.803304	47.6085
	8.803793	47.60833
	8.80401	47.60813
	8.803214	47.60726
	8.803024	47.60682
	8.802855	47.60531
	8.803002	47.60475
	8.802955	47.60462
	8.803	47.6046
	8.802896	47.6045
	8.80196	47.60361
	8.801837	47.60333
	8.803233	47.60303
	8.804757	47.60064
	8.802375	47.59912
	8.800197	47.5996
	8.799911	47.59968
	8.798398	47.60026
	8.798396	47.60026
	8.798079	47.60017
	8.797649	47.60008
	8.797546	47.60008
	8.796709	47.60019
	8.796611	47.60022
	8.796038	47.60093
	8.795279	47.60048
	8.795165	47.60051
	8.794027	47.60049
	8.793869	47.6005
	8.79356	47.60052
	8.793202	47.60058
	8.792886	47.60066
	8.79282	47.60068
	8.792379	47.60081
	8.792056	47.60086
	8.791525	47.60095
	8.789875	47.60325
	8.78988	47.60325
	8.78878	47.60344
	8.788751	47.60353
	8.78901	47.60406
	8.788966	47.60407
	8.788996	47.60413
	8.788129	47.60415
	8.788321	47.60489
	8.788276	47.60544
	8.788644	47.60632
	8.788692	47.60683
	8.78887	47.60705
	8.78951	47.60755
	8.789716	47.60793
	8.790264	47.60843
	8.789796	47.60941
	8.78861	47.60929
	8.78776	47.60903
	8.787703	47.60915
	8.787849	47.60954
	8.787612	47.60962
	8.786963	47.60951
	8.78675	47.60954
	8.785949	47.60991
	8.785525	47.61004
	8.784223	47.61077
	8.783683	47.61099
	8.783363	47.61108
	8.783173	47.61102
	8.782974	47.61119
	8.781962	47.61159
	8.781181	47.61201
	8.77957	47.61231
	8.779441	47.6127
	8.778881	47.61265
	8.777515	47.61266
	8.777509	47.61272
	8.776287	47.61285
	8.776613	47.61328
	8.77553	47.61349
	8.775172	47.61361
	8.775297	47.61427
	8.774226	47.61439
	8.774156	47.61443
	8.774632	47.6148
	8.77453	47.61486
	8.772472	47.61503
	8.772303	47.61469
	8.772476	47.6145
	8.772488	47.61446
	8.772418	47.61443
	8.770237	47.61494
	8.769778	47.61521
	8.769559	47.6151
	8.767629	47.616
	8.766684	47.61655
	8.765147	47.61702
	8.764709	47.61721
	8.764017	47.61737
	8.763613	47.61755
	8.762603	47.61789
	8.762179	47.61809
	8.761616	47.61813
	8.761237	47.61823
	8.759698	47.61823
	8.759415	47.61819
	8.758874	47.61824
	8.758357	47.61839
	8.757987	47.61795
	8.756416	47.6168
	8.756311	47.61663
	8.755151	47.61708
	8.755103	47.61743
	8.755006	47.61762
	8.755053	47.61773
	8.75476	47.61816
	8.754604	47.61798
	8.753784	47.61851
	8.753004	47.61879
	8.75086	47.61973
	8.749853	47.62056
	8.74966	47.62088
	8.749544	47.6213
	8.749535	47.62134
	8.749505	47.6215
	8.748117	47.62304
	8.747109	47.62248
	8.746987	47.62225
	8.746807	47.6221
	8.74642	47.62191
	8.746074	47.62144
	8.746027	47.62145
	8.745828	47.62082
	8.74585	47.62018
	8.74597	47.61993
	8.745926	47.6198
	8.746379	47.61847
	8.746453	47.61769
	8.746378	47.61739
	8.746184	47.61701
	8.745638	47.61661
	8.745575	47.61647
	8.745451	47.61639
	8.745612	47.61617
	8.745678	47.61511
	8.745796	47.61446
	8.745805	47.61295
	8.74401	47.61293
	8.743073	47.61299
	8.742989	47.61244
	8.742644	47.61186
	8.74185	47.61213
	8.741761	47.61211
	8.741351	47.61167
	8.740713	47.61183
	8.740162	47.6119
	8.740136	47.61186
	8.740101	47.6118
	8.739851	47.60996
	8.739654	47.60851
	8.739629	47.60845
	8.739573	47.60832
	8.739387	47.6081
	8.739392	47.60804
	8.739787	47.60786
	8.740492	47.60762
	8.741181	47.60746
	8.741962	47.60734
	8.742147	47.60693
	8.742259	47.60625
	8.742129	47.60586
	8.741862	47.60557
	8.741919	47.60507
	8.742095	47.60462
	8.742402	47.60427
	8.743207	47.60365
	8.743411	47.60333
	8.74344	47.6029
	8.74373	47.60258
	8.744394	47.60239
	8.744863	47.60219
	8.746287	47.60124
	8.746629	47.60086
	8.7463	47.60035
	8.748775	47.60004
	8.748681	47.5999
	8.748609	47.59983
	8.748503	47.59977
	8.748022	47.59962
	8.74807	47.59904
	8.747984	47.59901
	8.747974	47.59864
	8.747583	47.5986
	8.747577	47.59857
	8.747353	47.59768
	8.747151	47.59751
	8.745782	47.59668
	8.745656	47.59649
	8.745666	47.59632
	8.746481	47.596
	8.747082	47.5959
	8.747239	47.59578
	8.747284	47.59512
	8.748219	47.59231
	8.752608	47.59267
	8.755721	47.59287
	8.758169	47.5929
	8.761946	47.59286
	8.763289	47.59278
	8.764687	47.59264
	8.765889	47.59246
	8.767158	47.59221
	8.787006	47.58759
	8.796712	47.58533
	8.798015	47.58502
	8.806038	47.58315
	8.80554	47.58215
	8.802493	47.58285
	8.802384	47.58284
	8.802158	47.58264
	8.80106	47.58054
	8.8062	47.57951
	8.805257	47.57728
	8.805726	47.57718
	8.805629	47.57711
	8.804761	47.57505
	8.804793	47.575
	8.808108	47.57433
	8.807432	47.57157
	8.808841	47.57126
	8.810225	47.57096
	8.813836	47.57018
	8.814073	47.57014
	8.816586	47.57017
	8.817287	47.57193
	8.818627	47.57162
	8.818146	47.5729
	8.818285	47.5732
	8.821081	47.57413
	8.821521	47.57388
	8.822103	47.57358
	8.822601	47.57335
	8.823092	47.57312
	8.82437	47.57258
	8.824383	47.57258
	8.825442	47.57212
	8.830012	47.5711
	8.830074	47.57113
	8.8305	47.57246
	8.830637	47.57274
	8.830793	47.57294
	8.831223	47.5734
	8.837542	47.57156
	8.838803	47.5712
	8.837796	47.56859
	8.837729	47.56856
	8.838642	47.56854
	8.839174	47.56858
	8.839255	47.56851
	8.839244	47.56605
	8.839248	47.56541
	8.839187	47.56535
	8.841836	47.56595
	8.841982	47.56608
	8.842025	47.56636
	8.842142	47.56639
	8.84485	47.56613
	8.844898	47.56609
	8.844284	47.56325
	8.850919	47.56364
	8.850965	47.56361
	8.850848	47.56342
	8.850875	47.56292
	8.850921	47.56235
	8.851103	47.5608
	8.850839	47.56078
	8.849376	47.56075
	8.848558	47.56064
	8.847411	47.56065
	8.846846	47.56068
	8.846377	47.56073
	8.845978	47.56074
	8.845592	47.56071
	8.845154	47.56061
	8.844812	47.56054
	8.844229	47.56047
	8.843715	47.56039
	8.842716	47.56029
	8.841689	47.56003
	8.84139	47.55992
	8.841256	47.55984
	8.840625	47.55941
	8.840612	47.55937
	8.840722	47.55853
	8.84069	47.5584
	8.840244	47.55791
	8.840117	47.55784
	8.839878	47.55775
	8.83867	47.55735
	8.838011	47.55727
	8.835329	47.55747
	8.834239	47.55762
	8.831904	47.55783
	8.831241	47.55779
	8.829451	47.5576
	8.829662	47.55624
	8.827979	47.55595
	8.827884	47.55598
	8.828978	47.55427
	8.829893	47.55309
	8.830713	47.55209
	8.830666	47.55207
	8.830613	47.55204
	8.830358	47.55209
	8.829787	47.55172
	8.830112	47.55143
	8.830654	47.55057
	8.830739	47.55054
	8.831009	47.54983
	8.831199	47.54983
	8.831722	47.54992
	8.831758	47.54974
	8.83166	47.54973
	8.831698	47.54951
	8.831891	47.54952
	8.831848	47.54908
	8.832227	47.549
	8.832566	47.54908
	8.832767	47.54884
	8.832777	47.54879
	8.832757	47.54873
	8.83243	47.54847
	8.832519	47.54841
	8.832081	47.5481
	8.83224	47.5474
	8.832538	47.54718
	8.83324	47.54663
	8.832742	47.54619
	8.832789	47.54615
	8.832594	47.54603
	8.832718	47.54603
	8.83404	47.54504
	8.834277	47.54461
	8.833644	47.54445
	8.834154	47.54363
	8.835983	47.5443
	8.83596	47.54466
	8.836037	47.54466
	8.836048	47.54467
	8.836251	47.54453
	8.836271	47.54466
	8.836395	47.54464
	8.836365	47.54445
	8.836373	47.54444
	8.836676	47.54456
	8.836804	47.5445
	8.836682	47.54423
	8.838306	47.54313
	8.838334	47.543
	8.838375	47.54282
	8.837315	47.54114
	8.838546	47.54019
	8.838151	47.53938
	8.838761	47.53931
	8.839932	47.53933
	8.839983	47.53842
	8.839853	47.53842
	8.839797	47.53837
	8.839771	47.53828
	8.839703	47.53818
	8.8395	47.53798
	8.839465	47.53789
	8.839365	47.53722
	8.839862	47.53715
	8.840089	47.53719
	8.840338	47.53736
	8.840693	47.53738
	8.840951	47.53719
	8.841159	47.53687
	8.841104	47.53674
	8.840931	47.53656
	8.840989	47.53645
	8.840744	47.53642
	8.840633	47.53586
	8.840715	47.53568
	8.840834	47.53561
	8.840892	47.53553
	8.84104	47.53545
	8.841175	47.53517
	8.840973	47.53466
	8.841153	47.53371
	8.841133	47.5335
	8.840892	47.53286
	8.840932	47.53283
	8.840624	47.53283
	8.840761	47.53271
	8.844403	47.53179
	8.847422	47.53127
	8.848697	47.53127
	8.849295	47.53118
	8.849433	47.53127
	8.849608	47.53117
	8.850097	47.53112
	8.850685	47.53109
	8.851684	47.53112
	8.852041	47.53117
	8.852057	47.53113
	8.852738	47.53126
	8.855243	47.53132
	8.855886	47.53144
	8.855897	47.5311
	8.855703	47.53082
	8.855764	47.53077
	8.855703	47.53044
	8.855765	47.53042
	8.856557	47.53043
	8.857516	47.53071
	8.857765	47.53045
	8.857979	47.53035
	8.858526	47.53034
	8.859225	47.53042
	8.859644	47.5304
	8.859728	47.53034
	8.859889	47.53034
	8.86	47.5304
	8.861039	47.53036
	8.862327	47.53039
	8.864289	47.53048
	8.865619	47.53049
	8.866162	47.53046
	8.866505	47.53047
	8.868818	47.53038
	8.870005	47.53025
	8.872098	47.52986
	8.873927	47.5294
	8.874023	47.52937
	8.874305	47.52934
	8.874442	47.52927
	8.875999	47.52872
	8.880396	47.52703
	8.880436	47.52708
	8.880111	47.52732
	8.879877	47.5276
	8.879932	47.52761
	8.880057	47.52763
	8.881472	47.52854
	8.882005	47.52872
	8.882729	47.52914
	8.883444	47.52942
	8.885023	47.52845
	8.886302	47.52785
	8.886348	47.52793
	8.887485	47.52835
	8.88759	47.52839
	8.887596	47.52826
	8.888058	47.52776
	8.888072	47.52768
	8.888005	47.52746
	8.888577	47.52724
	8.888684	47.5273
	8.889891	47.52679
	8.890011	47.52686
	8.890489	47.5269
	8.89047	47.52698
	8.891281	47.52683
	8.891275	47.52678
	8.89204	47.52679
	8.892298	47.52675
	8.893714	47.52631
	8.893926	47.52603
	8.894313	47.52613
	8.894643	47.52613
	8.895846	47.52591
	8.895906	47.52593
	8.896749	47.52561
	8.897763	47.52401
	8.898332	47.52417
	8.89744	47.52196
	8.897051	47.52114
	8.896468	47.52043
	8.896522	47.52039
	8.896572	47.52036
	8.895299	47.51925
	8.897094	47.51769
	8.896842	47.51743
	8.896605	47.51731
	8.896925	47.51606
	8.89663	47.51559
	8.896692	47.51526
	8.896504	47.51474
	8.89643	47.51433
	8.896343	47.51367
	8.896366	47.51313
	8.896636	47.51273
	8.896633	47.51247
	8.89684	47.51197
	8.896994	47.51174
	8.897611	47.51125
	8.897614	47.51114
	8.897374	47.51084
	8.897298	47.51059
	8.8974	47.51011
	8.897297	47.50937
	8.897424	47.50774
	8.896942	47.50773
	8.896897	47.50767
	8.896983	47.50726
	8.896938	47.50695
	8.896242	47.50569
	8.896243	47.50545
	8.896862	47.50546
	8.896909	47.50518
	8.897085	47.50507
	8.897101	47.50501
	8.896735	47.50463
	8.896459	47.50416
	8.896085	47.50412
	8.896081	47.50388
	8.895708	47.50371
	8.89524	47.50361
	8.895351	47.50266
	8.89503	47.50274
	8.893584	47.50066
	8.893218	47.5005
	8.89302	47.50057
	8.892666	47.50057
	8.892723	47.50011
	8.892722	47.49901
	8.892685	47.49845
	8.892577	47.49752
	8.893357	47.49741
	8.89337	47.49711
	8.893505	47.49715
	8.893743	47.49712
	8.895442	47.49466
	8.895425	47.49459
	8.895213	47.49426
	8.895273	47.49418
	8.895682	47.49249
	8.895672	47.49245
	8.894929	47.49128
	8.89484	47.49121
	8.894188	47.49088
	8.893689	47.49073
	8.893684	47.49073
	8.892991	47.49101
	8.893042	47.49085
	8.89304	47.49046
	8.892804	47.48842
	8.89368	47.48845
	8.894812	47.48859
	8.895322	47.4884
	8.895969	47.48825
	8.896782	47.4879
	8.897055	47.48673
	8.897136	47.48657
	8.897595	47.48597
	8.897659	47.48577
	8.897685	47.48557
	8.897665	47.48519
	8.897694	47.48511
	8.896826	47.48459
	8.894348	47.48412
	8.893957	47.48398
	8.893377	47.48387
	8.890968	47.48316
	8.890735	47.48326
	8.890367	47.48297
	8.889532	47.48256
	8.889098	47.48254
	8.888624	47.48232
	8.888106	47.48249
	8.887904	47.48247
	8.887385	47.48236
	8.887108	47.48216
	8.886549	47.48202
	8.886066	47.48199
	8.885293	47.48171
	8.885333	47.48138
	8.885563	47.48069
	8.884999	47.47967
	8.884798	47.4795
	8.884607	47.47899
	8.884594	47.47895
	8.884456	47.47903
	8.884522	47.47844
	8.884592	47.4782
	8.884898	47.47735
	8.884928	47.47717
	8.884904	47.47706
	8.884852	47.47696
	8.884735	47.47685
	8.882933	47.4757
	8.882826	47.47567
	8.882785	47.47566
	8.882891	47.47558
	8.882823	47.47557
	8.881836	47.47494
	8.88169	47.47487
	8.88153	47.47483
	8.881336	47.47481
	8.880997	47.4748
	8.880982	47.47476
	8.881297	47.47469
	8.881939	47.47443
	8.883089	47.47417
	8.884543	47.47373
	8.884712	47.47347
	8.884602	47.47339
	8.884549	47.47323
	8.884638	47.47276
	8.88458	47.47236
	8.883974	47.47162
	8.88331	47.47115
	8.883999	47.47077
	8.883617	47.47042
	8.883591	47.47017
	8.883577	47.47015
	8.883603	47.47013
	8.884307	47.46971
	8.884304	47.46967
	8.884896	47.46967
	8.886282	47.46997
	8.886428	47.47003
	8.886555	47.47012
	8.886503	47.47001
	8.886461	47.46982
	8.886405	47.4697
	8.886714	47.4696
	8.890596	47.46927
	8.890723	47.46931
	8.890666	47.46869
	8.89067	47.4684
	8.890692	47.4682
	8.89076	47.46798
	8.890902	47.46763
	8.891807	47.46587
	8.892051	47.46573
	8.893625	47.46523
	8.89373	47.46513
	8.893695	47.46501
	8.893538	47.46494
	8.891844	47.46457
	8.891717	47.46447
	8.891708	47.46437
	8.89182	47.46425
	8.891977	47.46419
	8.893768	47.46372
	8.893876	47.46365
	8.893952	47.4637
	8.894248	47.46311
	8.8943	47.46304
	8.894536	47.46292
	8.895365	47.46292
	8.895535	47.4629
	8.895587	47.46281
	8.896264	47.46091
	8.896328	47.46063
	8.896266	47.46042
	8.896119	47.46026
	8.895458	47.45997
	8.895416	47.45976
	8.89577	47.45937
	8.897218	47.45879
	8.898227	47.45829
	8.8979	47.4579
	8.899368	47.45571
	8.899412	47.45566
	8.89944	47.45563
	8.899502	47.45565
	8.899814	47.45518
	8.900343	47.4546
	8.900433	47.45441
	8.900272	47.45431
	8.900924	47.45419
	8.901111	47.4541
	8.901406	47.45414
	8.901685	47.45409
	8.902557	47.4538
	8.903135	47.45352
	8.903384	47.45352
	8.903543	47.45346
	8.904632	47.45246
	8.905168	47.45213
	8.905678	47.45127
	8.905852	47.45124
	8.906167	47.45102
	8.906802	47.45089
	8.906994	47.45075
	8.90738	47.45015
	8.907463	47.4497
	8.907543	47.44968
	8.907949	47.44927
	8.908302	47.44882
	8.908321	47.44865
	8.90856	47.44845
	8.908804	47.44834
	8.908979	47.44773
	8.908566	47.44743
	8.908447	47.44747
	8.908048	47.44737
	8.907482	47.44733
	8.907273	47.44727
	8.906889	47.44711
	8.906424	47.44683
	8.906265	47.44676
	8.906077	47.44672
	8.906023	47.44665
	8.905944	47.44666
	8.905888	47.44674
	8.905662	47.4468
	8.905577	47.44678
	8.905518	47.44656
	8.905193	47.44631
	8.904898	47.44578
	8.904397	47.44523
	8.903998	47.44494
	8.903256	47.44455
	8.902723	47.4444
	8.902651	47.44424
	8.902905	47.44376
	8.903696	47.44317
	8.904414	47.44243
	8.90491	47.44225
	8.905365	47.44184
	8.905587	47.44145
	8.905585	47.44084
	8.905733	47.44082
	8.906037	47.44062
	8.906717	47.44001
	8.907031	47.43956
	8.906845	47.43927
	8.906814	47.43879
	8.907347	47.43861
	8.907784	47.43834
	8.907889	47.43817
	8.908155	47.43802
	8.908922	47.43766
	8.909213	47.43761
	8.909541	47.43745
	8.910866	47.43667
	8.911682	47.43654
	8.912114	47.43656
	8.912327	47.43648
	8.912726	47.43659
	8.913441	47.43657
	8.9144	47.43675
	8.916221	47.43643
	8.916967	47.43652
	8.916959	47.43656
	8.917388	47.43656
	8.917483	47.4365
	8.91813	47.43642
	8.918811	47.43627
	8.919083	47.43614
	8.919493	47.43584
	8.91994	47.43547
	8.919968	47.4354
	8.92064	47.43511
	8.921643	47.43488
	8.921925	47.43486
	8.923386	47.43494
	8.923885	47.43503
	8.923703	47.43489
	8.924295	47.43507
	8.924594	47.43503
	8.925052	47.43482
	8.925255	47.43479
	8.926458	47.43531
	8.926982	47.43542
	8.929074	47.43545
	8.931119	47.43531
	8.932716	47.43554
	8.932669	47.43528
	8.932586	47.43517
	8.93217	47.43489
	8.932134	47.43477
	8.932267	47.43464
	8.933087	47.43423
	8.933077	47.43413
	8.932331	47.4336
	8.931745	47.43332
	8.931134	47.43241
	8.931086	47.4321
	8.930942	47.43189
	8.930779	47.43191
	8.930468	47.4318
	8.930234	47.43162
	8.930073	47.4316
	8.929697	47.43169
	8.929509	47.43181
	8.929329	47.43183
	8.929386	47.43199
	8.929196	47.43205
	8.928503	47.43152
	8.928356	47.43155
	8.92796	47.4315
	8.927715	47.43154
	8.927517	47.4315
	8.927211	47.43153
	8.927114	47.43151
	8.926991	47.43141
	8.926571	47.4314
	8.926012	47.43151
	8.925799	47.43161
	8.925576	47.43163
	8.925356	47.43185
	8.924912	47.43202
	8.924602	47.43226
	8.923871	47.43235
	8.923534	47.43249
	8.923364	47.43264
	8.923173	47.4327
	8.923037	47.4328
	8.922414	47.43285
	8.922008	47.43295
	8.921309	47.43289
	8.92082	47.43299
	8.920552	47.43296
	8.920382	47.43299
	8.919882	47.43294
	8.91956	47.43284
	8.919352	47.43286
	8.919234	47.43274
	8.919222	47.43273
	8.919157	47.43275
	8.918886	47.43275
	8.918801	47.43266
	8.91864	47.43265
	8.918422	47.43252
	8.918288	47.43254
	8.918215	47.43244
	8.918069	47.43241
	8.917516	47.43285
	8.916996	47.43317
	8.916721	47.43302
	8.915388	47.4325
	8.914875	47.43235
	8.914636	47.43209
	8.914223	47.43173
	8.913924	47.43159
	8.913721	47.43158
	8.913607	47.43154
	8.912609	47.43278
	8.912585	47.43282
	8.912763	47.43286
	8.912439	47.43343
	8.912124	47.43336
	8.912003	47.43373
	8.911524	47.43377
	8.910559	47.43406
	8.910253	47.43372
	8.909962	47.4332
	8.909595	47.43291
	8.909474	47.43271
	8.9094	47.43252
	8.90916	47.43223
	8.908759	47.43185
	8.908519	47.4317
	8.907988	47.43156
	8.907743	47.43133
	8.90768	47.43121
	8.907664	47.43029
	8.908609	47.4296
	8.909017	47.4294
	8.909217	47.42933
	8.90925	47.42938
	8.912323	47.42856
	8.913051	47.42819
	8.914616	47.42772
	8.914715	47.427
	8.914291	47.42694
	8.913852	47.42679
	8.913222	47.4263
	8.912885	47.42607
	8.912389	47.42585
	8.912436	47.4258
	8.912179	47.42567
	8.911963	47.42549
	8.911743	47.42526
	8.912181	47.42525
	8.9121	47.42486
	8.911945	47.42464
	8.911634	47.42465
	8.911761	47.4243
	8.911844	47.42418
	8.911737	47.42414
	8.911809	47.42405
	8.911696	47.42402
	8.91151	47.42385
	8.911157	47.42355
	8.911493	47.42307
	8.911577	47.42224
	8.911885	47.42199
	8.911959	47.42187
	8.911953	47.42168
	8.912004	47.42156
	8.912349	47.4213
	8.912498	47.42111
	8.912615	47.42086
	8.91269	47.42051
	8.913022	47.41983
	8.913099	47.41928
	8.913143	47.41921
	8.913208	47.41923
	8.913799	47.41867
	8.913907	47.41845
	8.913896	47.41821
	8.913829	47.4181
	8.912985	47.41722
	8.912765	47.4169
	8.912605	47.4165
	8.912544	47.41578
	8.912349	47.41556
	8.912514	47.41548
	8.912699	47.41521
	8.912825	47.41479
	8.912896	47.41368
	8.9128	47.41347
	8.912832	47.41333
	8.912652	47.41293
	8.912686	47.41284
	8.912514	47.41269
	8.912234	47.41265
	8.911872	47.41242
	8.911712	47.41243
	8.91143	47.41234
	8.911223	47.41209
	8.911068	47.4121
	8.910793	47.4119
	8.910478	47.41139
	8.910213	47.41112
	8.909977	47.41068
	8.909612	47.41043
	8.909522	47.41023
	8.909531	47.41001
	8.90964	47.4098
	8.909468	47.40913
	8.909233	47.40889
	8.908626	47.40858
	8.908437	47.40828
	8.907841	47.40782
	8.907624	47.40758
	8.907094	47.4073
	8.906867	47.40712
	8.906553	47.40698
	8.906108	47.4065
	8.905821	47.40602
	8.905332	47.40562
	8.905183	47.40558
	8.905076	47.40549
	8.904777	47.40502
	8.904547	47.40482
	8.904475	47.40457
	8.904461	47.40423
	8.904382	47.40406
	8.904426	47.40385
	8.90439	47.40344
	8.904328	47.40334
	8.904411	47.40287
	8.904184	47.40278
	8.903797	47.40254
	8.903813	47.40248
	8.903708	47.40238
	8.903556	47.40236
	8.90347	47.40238
	8.903465	47.40206
	8.903575	47.40198
	8.903706	47.40192
	8.903964	47.40191
	8.904181	47.40178
	8.904936	47.4017
	8.905455	47.40143
	8.905679	47.40141
	8.906117	47.40136
	8.90654	47.40133
	8.906691	47.40126
	8.906903	47.40105
	8.907145	47.40099
	8.907979	47.40112
	8.908746	47.40109
	8.909513	47.40131
	8.910049	47.40127
	8.91047	47.40111
	8.910646	47.40109
	8.911372	47.40141
	8.911549	47.40131
	8.91164	47.40103
	8.912214	47.40091
	8.912617	47.40098
	8.913194	47.40118
	8.913416	47.4012
	8.913514	47.40109
	8.913308	47.40076
	8.913482	47.40044
	8.913646	47.40042
	8.913882	47.40058
	8.914089	47.40061
	8.914336	47.40032
	8.914502	47.40025
	8.914727	47.40031
	8.915089	47.40018
	8.915452	47.4002
	8.915504	47.40012
	8.91546	47.39992
	8.915555	47.39989
	8.915686	47.39993
	8.916038	47.39983
	8.916215	47.39999
	8.917268	47.39987
	8.917534	47.39995
	8.91785	47.39997
	8.918169	47.39985
	8.918541	47.39979
	8.919991	47.39955
	8.920295	47.39957
	8.920811	47.39947
	8.921159	47.39917
	8.921572	47.39912
	8.921898	47.39899
	8.922233	47.39866
	8.922665	47.39859
	8.923151	47.39841
	8.923908	47.3979
	8.924078	47.39771
	8.924464	47.39748
	8.924797	47.39754
	8.925379	47.39705
	8.925563	47.39697
	8.925971	47.39691
	8.926042	47.39683
	8.926094	47.39653
	8.926558	47.3962
	8.926985	47.39611
	8.927385	47.39585
	8.927474	47.39557
	8.927122	47.39519
	8.927369	47.39489
	8.927286	47.39474
	8.927322	47.39468
	8.927485	47.39461
	8.927703	47.39461
	8.927753	47.39434
	8.928159	47.39417
	8.928193	47.39398
	8.928365	47.39386
	8.928526	47.39381
	8.928713	47.39391
	8.928866	47.39391
	8.929121	47.39372
	8.929368	47.39362
	8.929557	47.39333
	8.929893	47.39324
	8.930108	47.39311
	8.930164	47.39293
	8.930101	47.39268
	8.930874	47.39221
	8.93116	47.39215
	8.931336	47.39199
	8.931396	47.39181
	8.93169	47.3917
	8.931861	47.39148
	8.932099	47.39142
	8.932764	47.39108
	8.933933	47.39064
	8.934621	47.39053
	8.934791	47.39046
	8.935273	47.39044
	8.93543	47.39048
	8.935881	47.39027
	8.936069	47.39026
	8.936323	47.39014
	8.936519	47.38979
	8.936758	47.3896
	8.937081	47.38951
	8.937076	47.38939
	8.937303	47.38932
	8.937568	47.38904
	8.938238	47.38866
	8.939357	47.38823
	8.940012	47.38793
	8.94006	47.38786
	8.940225	47.38785
	8.94039	47.38779
	8.940679	47.38753
	8.941546	47.38732
	8.941925	47.38699
	8.942059	47.38668
	8.942262	47.38658
	8.94248	47.38628
	8.942692	47.38626
	8.942808	47.38616
	8.943012	47.3861
	8.943187	47.38596
	8.943381	47.38565
	8.943551	47.38556
	8.943605	47.38538
	8.943548	47.38519
	8.943705	47.38491
	8.943554	47.38489
	8.943644	47.38454
	8.943591	47.38439
	8.943695	47.38431
	8.943637	47.38424
	8.943664	47.38413
	8.943551	47.38401
	8.943559	47.38379
	8.943378	47.38369
	8.943398	47.38363
	8.943286	47.38359
	8.943277	47.38352
	8.942949	47.3832
	8.942572	47.38259
	8.942613	47.38253
	8.942289	47.38242
	8.942081	47.38226
	8.942014	47.38227
	8.942006	47.38216
	8.94163	47.38203
	8.941456	47.38178
	8.941077	47.38146
	8.940907	47.38097
	8.940673	47.38074
	8.940349	47.38022
	8.940217	47.38014
	8.94023	47.38001
	8.94012	47.37976
	8.940383	47.3792
	8.940729	47.37889
	8.940786	47.37869
	8.94094	47.37844
	8.941037	47.37838
	8.941124	47.37812
	8.941444	47.37799
	8.941733	47.37776
	8.941955	47.37742
	8.94232	47.37707
	8.942985	47.3766
	8.943437	47.37605
	8.943525	47.37592
	8.944184	47.37541
	8.945157	47.37477
	8.945354	47.37469
	8.945588	47.37471
	8.946538	47.37495
	8.946853	47.37497
	8.948137	47.37475
	8.948544	47.37444
	8.949058	47.37389
	8.949143	47.37339
	8.949428	47.37293
	8.949728	47.37272
	8.950277	47.37252
	8.950562	47.37236
	8.95083	47.37217
	8.951294	47.37169
	8.951315	47.37147
	8.951444	47.37136
	8.951587	47.37034
	8.951535	47.37025
	8.95169	47.37021
	8.951578	47.37002
	8.951872	47.3687
	8.951839	47.36838
	8.951981	47.36813
	8.952143	47.36799
	8.9523	47.36748
	8.952272	47.36731
	8.952383	47.36712
	8.953138	47.36602
	8.953467	47.36538
	8.953734	47.36514
	8.953893	47.36493
	8.953938	47.36478
	8.95437	47.36451
	8.954706	47.3641
	8.954588	47.36404
	8.954803	47.36374
	8.955006	47.36307
	8.955412	47.36218
	8.955803	47.36165
	8.955766	47.36151
	8.956078	47.36116
	8.956076	47.36077
	8.956881	47.36
	8.95695	47.3598
	8.957071	47.3597
	8.957505	47.35953
	8.957693	47.35924
	8.95803	47.35907
	8.957874	47.35855
	8.958358	47.35839
	8.958762	47.35805
	8.959371	47.35764
	8.959478	47.35704
	8.959636	47.35678
	8.959831	47.35666
	8.959887	47.35629
	8.960213	47.35586
	8.9605	47.35574
	8.960503	47.35559
	8.960218	47.35545
	8.959813	47.35431
	8.959898	47.35409
	8.960284	47.3537
	8.960576	47.35377
	8.960939	47.35395
	8.961915	47.35403
	8.962815	47.35424
	8.963234	47.35443
	8.963441	47.35445
	8.963777	47.35439
	8.964417	47.35441
	8.965804	47.35433
	8.966389	47.35422
	8.967416	47.35428
	8.968868	47.35371
	8.968939	47.35325
	8.969111	47.35294
	8.969471	47.35263
	8.96974	47.35251
	8.970242	47.35237
	8.970551	47.35236
	8.970871	47.35228
	8.971775	47.35253
	8.971768	47.35228
	8.971631	47.35193
	8.971639	47.35191
	8.971818	47.35138
	8.972512	47.34993
	8.97321	47.3491
	8.97441	47.34738
	8.974287	47.34721
	8.973881	47.34693
	8.973584	47.34665
	8.973309	47.34619
	8.973805	47.34466
	8.973929	47.34337
	8.97389	47.34278
	8.974175	47.34218
	8.97401	47.34137
	8.973628	47.34065
	8.973087	47.33988
	8.974742	47.33942
	8.975443	47.33908
	8.97698	47.33847
	8.977929	47.33819
	8.978682	47.3381
	8.979282	47.33795
	8.979199	47.33715
	8.978971	47.3364
	8.978902	47.33568
	8.97908	47.33516
	8.978912	47.33471
	8.978485	47.33393
	8.977271	47.33251
	8.97718	47.33115
	8.976775	47.32939
	8.977247	47.32801
	8.977469	47.32706
	8.977621	47.32689
	8.978135	47.32672
	8.979508	47.3258
	8.979745	47.32551
	8.979616	47.32451
	8.979658	47.3241
	8.980305	47.32343
	8.980541	47.32305
	8.980914	47.32265
	8.981272	47.3225
	8.982586	47.32153
	8.984143	47.32057
	8.984558	47.32012
	8.984941	47.31939
	8.984238	47.31883
	8.982855	47.31718
	8.982209	47.31655
	8.981984	47.31606
	8.981678	47.31507
	8.981225	47.31449
	8.980239	47.31342
	8.979717	47.31298
	8.978134	47.31134
	8.977753	47.31103
	8.977733	47.31081
	8.97759	47.31051
	8.977141	47.30998
	8.976966	47.30965
	8.97668	47.30936
	8.976277	47.30871
	8.975709	47.30823
	8.9753	47.30775
	8.975264	47.30756
	8.974996	47.30712
	8.974988	47.30711
	8.974956	47.30703
	8.974359	47.30693
	8.973869	47.30679
	8.97241	47.30663
	8.971934	47.30663
	8.968412	47.30597
	8.967039	47.30577
	8.966283	47.30593
	8.965398	47.30604
	8.96438	47.30635
	8.963155	47.30606
	8.961629	47.30586
	8.960776	47.3057
	8.960063	47.30543
	8.958637	47.30509
	8.95759	47.30477
	8.95652	47.30426
	8.955766	47.30357
	8.955311	47.30307
	8.955056	47.30229
	8.954824	47.30181
	8.954346	47.30107
	8.953094	47.29883
	8.952861	47.29884
	8.952545	47.29903
	8.952399	47.29887
	8.952133	47.29838
	8.952101	47.29825
	8.952149	47.29814
	8.951853	47.29775
	8.951927	47.2976
	8.951895	47.2975
	8.951976	47.29714
	8.951886	47.29678
	8.951957	47.29659
	8.951929	47.29651
	8.95133	47.29593
	8.950853	47.29528
	8.950387	47.29497
	8.949017	47.29442
	8.948787	47.29397
	8.948775	47.29383
	8.948546	47.29353
	8.948519	47.2934
	8.948431	47.29335
	8.948521	47.29327
	8.948578	47.29277
	8.948899	47.29217
	8.948493	47.29214
	8.948344	47.29201
	8.948076	47.29191
	8.947986	47.29192
	8.947902	47.29185
	8.947458	47.29182
	8.947397	47.29168
	8.94724	47.29164
	8.947186	47.29156
	8.947019	47.29161
	8.946729	47.29158
	8.946395	47.29135
	8.94626	47.29137
	8.946148	47.29129
	8.945887	47.29128
	8.945805	47.29123
	8.945617	47.29124
	8.945622	47.29113
	8.945225	47.29106
	8.945265	47.29093
	8.944937	47.29089
	8.944868	47.29093
	8.944675	47.29077
	8.944324	47.2909
	8.943986	47.2908
	8.943855	47.29084
	8.94372	47.29081
	8.943615	47.29084
	8.943435	47.29107
	8.94307	47.29128
	8.942988	47.29127
	8.942319	47.29102
	8.941504	47.2903
	8.940836	47.29
	8.940616	47.29006
	8.939726	47.28984
	8.939532	47.28991
	8.938997	47.28976
	8.938777	47.28963
	8.938371	47.28964
	8.9379	47.2894
	8.937854	47.28925
	8.937379	47.28923
	8.937046	47.28916
	8.936903	47.28925
	8.936809	47.28926
	8.936537	47.28908
	8.936112	47.28923
	8.935829	47.28917
	8.935483	47.28919
	8.934778	47.28862
	8.934579	47.28859
	8.934384	47.28847
	8.933988	47.2884
	8.933871	47.28833
	8.933713	47.28831
	8.934204	47.28788
	8.934341	47.28781
	8.934651	47.28776
	8.935218	47.28777
	8.935682	47.2876
	8.935713	47.28754
	8.936139	47.28739
	8.936514	47.2872
	8.936914	47.2866
	8.937557	47.28614
	8.937681	47.28591
	8.937853	47.28579
	8.938066	47.28547
	8.938385	47.28525
	8.938468	47.28529
	8.939151	47.28502
	8.939656	47.28479
	8.940567	47.28437
	8.940534	47.284
	8.940421	47.28366
	8.940893	47.28364
	8.94117	47.28344
	8.941159	47.2832
	8.941314	47.28311
	8.941451	47.28285
	8.941707	47.28268
	8.941798	47.2825
	8.941714	47.28228
	8.941813	47.28229
	8.941947	47.28213
	8.941789	47.28192
	8.941933	47.28183
	8.941624	47.28069
	8.941645	47.28048
	8.941379	47.28054
	8.94118	47.28011
	8.941201	47.28
	8.941434	47.27987
	8.941962	47.27966
	8.942581	47.27954
	8.943063	47.2795
	8.943639	47.2796
	8.943967	47.28016
	8.945622	47.28204
	8.947453	47.28182
	8.948066	47.2812
	8.948819	47.28094
	8.948734	47.28052
	8.948162	47.28037
	8.948068	47.28026
	8.948082	47.28002
	8.948154	47.27989
	8.948237	47.27986
	8.948237	47.27969
	8.948153	47.27964
	8.948002	47.27934
	8.947785	47.27925
	8.947728	47.27903
	8.947792	47.27891
	8.947769	47.27881
	8.947867	47.27874
	8.947786	47.2785
	8.947939	47.27813
	8.94794	47.27776
	8.947802	47.27758
	8.947733	47.27708
	8.947617	47.27692
	8.947652	47.27679
	8.947577	47.27671
	8.947631	47.27653
	8.947593	47.27648
	8.947655	47.27639
	8.947593	47.27621
	8.947643	47.27606
	8.947422	47.27591
	8.94748	47.27574
	8.947422	47.27563
	8.947489	47.27551
	8.947333	47.2754
	8.947358	47.27527
	8.947135	47.27495
	8.946809	47.27481
	8.946418	47.27454
	8.9462	47.27449
	8.946103	47.27437
	8.945497	47.27434
	8.94542	47.27438
	8.945153	47.27427
	8.944848	47.27421
	8.944782	47.27394
	8.944659	47.27382
	8.944351	47.27373
	8.944188	47.27349
	8.944051	47.27338
	8.943907	47.27334
	8.943931	47.27327
	8.94374	47.27316
	8.94366	47.27295
	8.943492	47.27291
	8.942882	47.27257
	8.942671	47.27253
	8.942392	47.2724
	8.942061	47.27235
	8.941656	47.27221
	8.941313	47.27223
	8.941197	47.2722
	8.940896	47.27167
	8.941184	47.27154
	8.942544	47.27051
	8.942673	47.26993
	8.943586	47.26967
	8.944455	47.2695
	8.943542	47.26836
	8.943076	47.26801
	8.942932	47.26739
	8.941937	47.26741
	8.941434	47.26738
	8.940803	47.26742
	8.940713	47.26728
	8.940288	47.26735
	8.940556	47.26652
	8.940304	47.26642
	8.940072	47.26604
	8.940934	47.26599
	8.940718	47.26554
	8.940571	47.26565
	8.940456	47.26567
	8.940148	47.26531
	8.938372	47.26449
	8.937721	47.26429
	8.937757	47.26407
	8.9377	47.26365
	8.938182	47.26361
	8.93811	47.26341
	8.937547	47.26335
	8.937499	47.26259
	8.936988	47.26251
	8.936972	47.26218
	8.93627	47.26208
	8.935879	47.26191
	8.936382	47.26182
	8.937066	47.26156
	8.937064	47.26123
	8.936457	47.261
	8.936356	47.26088
	8.936422	47.26084
	8.935849	47.26036
	8.935681	47.26033
	8.935602	47.2603
	8.935435	47.26044
	8.934914	47.26035
	8.93476	47.26023
	8.934092	47.25995
	8.933281	47.25903
	8.933096	47.25889
	8.931702	47.25909
	8.931423	47.25921
	8.931389	47.25919
	8.930518	47.25972
	8.929917	47.25975
	8.929501	47.25992
	8.929323	47.2599
	8.929084	47.26005
	8.928954	47.25984
	8.928565	47.25962
	8.928374	47.25888
	8.927442	47.25875
	8.927174	47.25876
	8.926769	47.25863
	8.92488	47.25827
	8.92339	47.25772
	8.921995	47.25731
	8.92087	47.25712
	8.920225	47.25715
	8.920501	47.25685
	8.919918	47.2568
	8.918526	47.25651
	8.917371	47.25616
	8.917295	47.25628
	8.916968	47.25626
	8.914531	47.25564
	8.913794	47.25537
	8.913292	47.25524
	8.911314	47.25482
	8.909875	47.25467
	8.909179	47.25447
	8.908605	47.25441
	8.908466	47.25469
	8.908029	47.25525
	8.90876	47.25547
	8.908575	47.25587
	8.908321	47.25622
	8.908293	47.25675
	8.906331	47.25612
	8.906081	47.25602
	8.905999	47.25584
	8.905925	47.25581
	8.905449	47.2557
	8.90526	47.25567
	8.904862	47.25561
	8.903857	47.25535
	8.903663	47.25531
	8.902275	47.2551
	8.902261	47.25509
	8.901404	47.25497
	8.899946	47.25466
	8.899902	47.25466
	8.899835	47.25464
	8.89971	47.25434
	8.899312	47.25367
	8.898613	47.25297
	8.898428	47.25286
	8.898108	47.25271
	8.897422	47.25245
	8.897287	47.2524
	8.896736	47.25228
	8.895358	47.25218
	8.894134	47.25197
	8.893033	47.25174
	8.892658	47.2517
	8.89159	47.25169
	8.890597	47.25152
	8.890466	47.2515
	8.889844	47.25144
	8.889712	47.25143
	8.889343	47.25139
	8.888424	47.25128
	8.888026	47.25109
	8.887166	47.2509
	8.886752	47.25086
	8.885469	47.25084
	8.883629	47.25265
	8.883546	47.25265
	8.88256	47.25253
	8.880817	47.25244
	8.878942	47.25242
	8.878858	47.2523
	8.87812	47.25218
	8.874886	47.25222
	8.874409	47.25211
	8.873487	47.25199
	8.873489	47.25113
	8.873413	47.25087
	8.873859	47.24967
	8.87384	47.24888
	8.873764	47.24866
	8.873913	47.24808
	8.873581	47.24796
	8.873757	47.24766
	8.873359	47.24757
	8.873189	47.24747
	8.87194	47.24721
	8.871847	47.24712
	8.871285	47.24708
	8.871233	47.24702
	8.870754	47.24697
	8.870602	47.24689
	8.870298	47.24667
	8.870893	47.24658
	8.870905	47.246
	8.87096	47.24588
	8.870526	47.24554
	8.870169	47.24532
	8.869745	47.24504
	8.86848	47.2447
	8.867647	47.24432
	8.866601	47.24396
	8.866294	47.24488
	8.862127	47.24398
	8.860701	47.24326
	8.86057	47.24328
	8.860316	47.24353
	8.859946	47.24356
	8.85986	47.24363
	8.860084	47.24375
	8.859995	47.24398
	8.859336	47.24429
	8.858654	47.24449
	8.857784	47.24439
	8.857244	47.24487
	8.856935	47.24497
	8.856336	47.24484
	8.855628	47.24439
	8.85523	47.24439
	8.854728	47.24515
	8.854511	47.24516
	8.854196	47.24536
	8.854246	47.24568
	8.854433	47.24597
	8.854194	47.24616
	8.853358	47.24656
	8.852701	47.24663
	8.852518	47.24688
	8.852633	47.24734
	8.852942	47.24781
	8.852768	47.24848
	8.852866	47.24929
	8.851913	47.24926
	8.851887	47.24962
	8.85198	47.24996
	8.852041	47.25027
	8.851981	47.25055
	8.852072	47.25074
	8.85208	47.25077
	8.85171	47.25112
	8.851608	47.25104
	8.851043	47.25081
	8.85073	47.25059
	8.847994	47.24979
	8.846935	47.24956
	8.847007	47.24947
	8.846448	47.24923
	8.844736	47.24863
	8.844996	47.24787
	8.844663	47.24729
	8.844716	47.24698
	8.841856	47.24692
	8.841458	47.24701
	8.839583	47.24697
	8.8379	47.24698
	8.837657	47.24703
	8.837507	47.24711
	8.837417	47.24723
	8.837291	47.24767
	8.83687	47.24798
	8.836749	47.24799
	8.835837	47.24775
	8.835603	47.24778
	8.835542	47.24791
	8.83549	47.24789
	8.835176	47.249
	8.835096	47.24901
	8.834989	47.24917
	8.834649	47.24937
	8.834035	47.24941
	8.833781	47.24922
	8.833497	47.24914
	8.833482	47.24909
	8.833336	47.24914
	8.833042	47.2495
	8.832824	47.24957
	8.83258	47.24956
	8.831991	47.24981
	8.831977	47.25005
	8.831326	47.24998
	8.830504	47.24999
	8.830102	47.25024
	8.829525	47.24993
	8.828987	47.24989
	8.828532	47.25025
	8.828324	47.25046
	8.827904	47.25035
	8.827237	47.25133
	8.826817	47.25147
	8.826812	47.25151
	8.826594	47.25143
	8.823005	47.25096
	8.821631	47.25074
	8.821562	47.25077
	8.820586	47.25027
	8.820085	47.25011
	8.819446	47.25005
	8.818533	47.24976
	8.817392	47.24961
	8.817023	47.24961
	8.816716	47.24966
	8.815776	47.24896
	8.814639	47.24885
	8.814367	47.24885
	8.813596	47.24885
	8.812996	47.2488
	8.81229	47.24858
	8.812301	47.24854
	8.811858	47.24842
	8.810143	47.24808
	8.809569	47.24807
	8.809296	47.24801
	8.809011	47.24795
	8.808573	47.24773
	8.808012	47.24766
	8.806486	47.24734
	8.804592	47.24706
	8.802503	47.24667
	8.802632	47.24641
	8.802632	47.24621
	8.802781	47.24537
	8.80261	47.24522
	8.802546	47.24503
	8.802608	47.24499
	8.80248	47.24491
	8.80257	47.24444
	8.80257	47.2443
	8.80252	47.24385
	8.802484	47.24369
	8.802246	47.2431
	8.802167	47.24297
	8.799421	47.24229
	8.799237	47.24304
	8.799199	47.24307
	8.799047	47.24307
	8.799269	47.24212
	8.79884	47.24211
	8.798199	47.24218
	8.796997	47.24251
	8.796926	47.24241
	8.796517	47.24252
	8.796328	47.24217
	8.796468	47.2421
	8.796293	47.2414
	8.796265	47.24083
	8.795972	47.24032
	8.795894	47.24029
	8.795863	47.24022
	8.795925	47.24014
	8.796022	47.24015
	8.796036	47.24011
	8.795661	47.24003
	8.795727	47.23989
	8.795661	47.23984
	8.795612	47.23967
	8.795711	47.23912
	8.807661	47.2213
	8.808478	47.22013
	8.806805	47.22037
	8.793352	47.22257
	8.777187	47.21885
	8.742135	47.2119
	8.740677	47.21164
	8.737721	47.21062
	8.71701	47.20354
	8.713098	47.20304
	8.712777	47.20287
	8.712198	47.20226
	8.711974	47.20213
	8.711882	47.20195
	8.711412	47.20144
	8.711149	47.20134
	8.710895	47.20105
	8.710653	47.20087
	8.710353	47.20096
	8.710088	47.20042
	8.708803	47.20082
	8.708759	47.20075
	8.708252	47.20095
	8.706968	47.20163
	8.706489	47.20194
	8.706326	47.20219
	8.706138	47.2023
	8.705114	47.2025
	8.704042	47.2023
	8.703654	47.20174
	8.703069	47.20168
	8.702901	47.20151
	8.702942	47.20095
	8.702752	47.20076
	8.702746	47.20065
	8.703039	47.20026
	8.702798	47.19972
	8.70288	47.19967
	8.702951	47.19941
	8.703391	47.19913
	8.703203	47.19891
	8.703085	47.19889
	8.702858	47.19872
	8.702908	47.19846
	8.702715	47.19834
	8.702552	47.1981
	8.70233	47.19796
	8.70184	47.19779
	8.701487	47.19777
	8.701379	47.19765
	8.701111	47.19753
	8.700998	47.19743
	8.700639	47.19752
	8.700111	47.19722
	8.699837	47.1972
	8.699612	47.19703
	8.699359	47.19696
	8.699084	47.197
	8.698543	47.19684
	8.698408	47.19675
	8.69813	47.19677
	8.69787	47.19659
	8.697418	47.19667
	8.697086	47.19657
	8.696841	47.19665
	8.696335	47.19664
	8.695882	47.19672
	8.695421	47.19658
	8.694634	47.19648
	8.694429	47.19636
	8.694182	47.19636
	8.687608	47.18852
	8.685557	47.18655
	8.6843	47.18621
	8.683525	47.18589
	8.682187	47.18503
	8.681064	47.18407
	8.681331	47.1816
	8.681199	47.18136
	8.678971	47.1811
	8.679029	47.18059
	8.678458	47.17961
	8.678413	47.17943
	8.678663	47.17788
	8.678736	47.17777
	8.681495	47.17714
	8.6815	47.17717
	8.681556	47.17704
	8.681762	47.17679
	8.682067	47.17655
	8.682132	47.1764
	8.682073	47.17626
	8.682222	47.1759
	8.682311	47.17577
	8.6825	47.17567
	8.682513	47.17552
	8.682703	47.17512
	8.682595	47.17479
	8.682377	47.17452
	8.682421	47.17448
	8.682398	47.17432
	8.682662	47.17407
	8.682622	47.17397
	8.682952	47.17374
	8.683097	47.1735
	8.684071	47.17286
	8.684858	47.17222
	8.685872	47.17152
	8.687062	47.17098
	8.689677	47.1701
	8.690204	47.16981
	8.690677	47.16939
	8.691348	47.16902
	8.691224	47.16821
	8.691656	47.16682
	8.692049	47.16671
	8.692111	47.16532
	8.691991	47.16452
	8.692195	47.1634
	8.691614	47.16329
	8.690485	47.16296
	8.688792	47.16272
	8.687042	47.16257
	8.685264	47.16267
	8.684673	47.16263
	8.684101	47.16253
	8.683985	47.16246
	8.683571	47.16236
	8.682426	47.16214
	8.681258	47.16201
	8.680326	47.16199
	8.679279	47.16154
	8.677684	47.16099
	8.676356	47.16071
	8.676054	47.16006
	8.675505	47.15967
	8.674978	47.15945
	8.674435	47.15944
	8.674166	47.15944
	8.672596	47.15952
	8.671941	47.1597
	8.670262	47.15971
	8.668177	47.15946
	8.667323	47.15948
	8.666599	47.15961
	8.666134	47.15961
	8.665773	47.15967
	8.664703	47.15994
	8.664004	47.16034
	8.663932	47.16036
	8.663499	47.16055
	8.662763	47.1605
	8.662338	47.16052
	8.661383	47.16076
	8.661229	47.16095
	8.660912	47.16237
	8.660708	47.16285
	8.660622	47.16339
	8.660381	47.1638
	8.660368	47.16395
	8.660702	47.16417
	8.660795	47.16433
	8.660713	47.16449
	8.66094	47.16542
	8.660745	47.16659
	8.660807	47.16662
	8.660794	47.16739
	8.661083	47.16799
	8.661091	47.16814
	8.661094	47.16821
	8.660886	47.1685
	8.66086	47.1687
	8.660782	47.16869
	8.660622	47.16888
	8.660516	47.16892
	8.660428	47.16926
	8.660506	47.16938
	8.660434	47.16956
	8.660504	47.16979
	8.660638	47.16992
	8.660661	47.17032
	8.659124	47.17058
	8.658451	47.17059
	8.657732	47.17045
	8.656547	47.16995
	8.656088	47.16988
	8.655616	47.16988
	8.655226	47.16994
	8.654905	47.17004
	8.652933	47.17096
	8.652609	47.17103
	8.652267	47.17104
	8.651857	47.17095
	8.650822	47.1705
	8.650297	47.17034
	8.648127	47.17017
	8.647036	47.16993
	8.645948	47.16984
	8.642713	47.169
	8.642216	47.16893
	8.641708	47.16893
	8.641114	47.16901
	8.639891	47.16933
	8.639658	47.16942
	8.639471	47.16957
	8.639347	47.16978
	8.63934	47.17
	8.639804	47.17107
	8.639676	47.17131
	8.639354	47.17147
	8.638557	47.17164
	8.637005	47.17174
	8.635818	47.17173
	8.633771	47.17161
	8.633438	47.17166
	8.632817	47.17187
	8.632315	47.17199
	8.631116	47.17218
	8.628389	47.17207
	8.626023	47.17235
	8.625709	47.17242
	8.625355	47.17251
	8.624747	47.17274
	8.624286	47.17303
	8.623981	47.17336
	8.623824	47.17385
	8.623951	47.17459
	8.624102	47.17484
	8.624603	47.17531
	8.625105	47.17653
	8.625373	47.17679
	8.626473	47.17744
	8.626989	47.17785
	8.628039	47.17898
	8.628142	47.17923
	8.628119	47.1795
	8.627984	47.17973
	8.627743	47.17993
	8.626437	47.18046
	8.626076	47.18072
	8.625895	47.18105
	8.625815	47.18179
	8.625585	47.18221
	8.623944	47.18399
	8.62205	47.18625
	8.62063	47.18775
	8.620485	47.18811
	8.620496	47.18859
	8.6206	47.18906
	8.620971	47.18992
	8.620987	47.19015
	8.620888	47.19035
	8.620722	47.19048
	8.620587	47.19056
	8.620175	47.19077
	8.618994	47.19122
	8.618318	47.19177
	8.617683	47.19201
	8.617399	47.19228
	8.617303	47.19252
	8.617326	47.19279
	8.618114	47.19389
	8.618204	47.19422
	8.618166	47.19455
	8.617889	47.19499
	8.6171	47.19563
	8.616312	47.19672
	8.615956	47.19745
	8.615716	47.19862
	8.615529	47.19893
	8.615165	47.19934
	8.614903	47.19951
	8.614545	47.19986
	8.614085	47.20008
	8.613484	47.20044
	8.613368	47.20056
	8.613182	47.20106
	8.613001	47.20124
	8.612938	47.20186
	8.612801	47.202
	8.612455	47.20224
	8.610797	47.20268
	8.610216	47.20299
	8.60966	47.20345
	8.609254	47.20415
	8.608895	47.20444
	8.608213	47.20458
	8.607849	47.20474
	8.606041	47.20524
	8.605539	47.20513
	8.605105	47.20492
	8.60483	47.20466
	8.60438	47.20405
	8.603323	47.20314
	8.603054	47.20299
	8.602188	47.20287
	8.601956	47.20278
	8.600023	47.20157
	8.599386	47.20143
	8.599023	47.20143
	8.59858	47.20158
	8.598351	47.20177
	8.598205	47.202
	8.597933	47.20271
	8.597581	47.20283
	8.597436	47.20293
	8.596806	47.20369
	8.596507	47.20425
	8.596329	47.20489
	8.596377	47.20528
	8.596619	47.20549
	8.597018	47.2055
	8.597195	47.20557
	8.597355	47.20572
	8.597293	47.20612
	8.596587	47.20682
	8.596657	47.20719
	8.597557	47.20825
	8.597686	47.20855
	8.597692	47.20894
	8.597434	47.20929
	8.596737	47.20964
	8.596326	47.20991
	8.595759	47.21054
	8.59533	47.21119
	8.594836	47.21167
	8.594492	47.21191
	8.594177	47.21205
	8.593625	47.21212
	8.593196	47.21207
	8.592025	47.21168
	8.591372	47.21153
	8.590034	47.21181
	8.588923	47.21246
	8.588237	47.21261
	8.588202	47.21261
	8.58788	47.21257
	8.58748	47.21242
	8.587108	47.21214
	8.586719	47.21165
	8.586239	47.21124
	8.585846	47.211
	8.585403	47.21081
	8.584649	47.21061
	8.583632	47.2105
	8.583332	47.21048
	8.582941	47.21052
	8.58256	47.21067
	8.582331	47.21086
	8.582206	47.2111
	8.582122	47.21223
	8.581998	47.2127
	8.581753	47.21315
	8.58114	47.21392
	8.581027	47.21424
	8.581013	47.21456
	8.581138	47.21495
	8.581404	47.2153
	8.58334	47.21683
	8.583476	47.21717
	8.583375	47.21751
	8.583194	47.2177
	8.582973	47.21783
	8.582693	47.21792
	8.582387	47.21795
	8.582027	47.21792
	8.581096	47.21764
	8.580456	47.21753
	8.57972	47.21751
	8.578993	47.21759
	8.578429	47.21774
	8.577342	47.21917
	8.577439	47.21943
	8.577325	47.21947
	8.577105	47.21948
	8.577069	47.21953
	8.577003	47.21954
	8.576996	47.21948
	8.576084	47.21953
	8.575972	47.21949
	8.575457	47.21922
	8.575267	47.21943
	8.574992	47.21957
	8.574582	47.21974
	8.574129	47.22003
	8.573536	47.22028
	8.57316	47.22037
	8.572816	47.22042
	8.571939	47.22048
	8.571099	47.22051
	8.570771	47.2205
	8.570344	47.22044
	8.570078	47.22038
	8.569936	47.22039
	8.569742	47.2219
	8.567387	47.2216
	8.567255	47.22179
	8.56701	47.22162
	8.566785	47.2215
	8.566521	47.22133
	8.566026	47.22095
	8.565768	47.22072
	8.565401	47.22024
	8.565347	47.22014
	8.565157	47.21965
	8.565103	47.21929
	8.564157	47.21961
	8.562642	47.21956
	8.560345	47.21954
	8.559881	47.21972
	8.558827	47.22026
	8.558236	47.22127
	8.558132	47.22123
	8.557678	47.2216
	8.553836	47.22324
	8.553095	47.22202
	8.552955	47.22166
	8.552661	47.22163
	8.551224	47.2217
	8.549968	47.22188
	8.54864	47.22201
	8.547297	47.22198
	8.547289	47.22194
	8.546941	47.22197
	8.546472	47.22178
	8.545879	47.2214
	8.545585	47.2215
	8.545146	47.22153
	8.545097	47.22171
	8.544419	47.22192
	8.54344	47.22205
	8.540583	47.22274
	8.539778	47.22302
	8.53933	47.22308
	8.539215	47.22306
	8.53916	47.22285
	8.539057	47.22274
	8.538795	47.22267
	8.538742	47.22259
	8.538566	47.22255
	8.53847	47.22243
	8.538112	47.2223
	8.537996	47.22221
	8.537488	47.22207
	8.537224	47.22193
	8.536515	47.22261
	8.534271	47.22339
	8.533555	47.22381
	8.533146	47.22401
	8.532656	47.22447
	8.532221	47.2248
	8.531825	47.22503
	8.531399	47.22575
	8.531292	47.22589
	8.530867	47.22633
	8.530404	47.22668
	8.529916	47.22717
	8.529188	47.22781
	8.529118	47.22794
	8.529061	47.22792
	8.528864	47.22808
	8.528719	47.22791
	8.528545	47.22883
	8.525767	47.22829
	8.525679	47.22816
	8.52555	47.22614
	8.525748	47.22573
	8.526266	47.22504
	8.527133	47.22429
	8.527788	47.22365
	8.528185	47.22334
	8.528507	47.22273
	8.528604	47.22258
	8.528757	47.22238
	8.52905	47.22207
	8.529421	47.22176
	8.529781	47.22156
	8.529925	47.22149
	8.530014	47.22146
	8.530129	47.22137
	8.530543	47.22097
	8.530921	47.22068
	8.531379	47.22042
	8.531659	47.22029
	8.53193	47.22013
	8.531896	47.22009
	8.531924	47.21997
	8.531847	47.21991
	8.531815	47.21964
	8.531872	47.21954
	8.53178	47.21942
	8.531818	47.21934
	8.531747	47.21928
	8.531755	47.21915
	8.531682	47.21909
	8.53189	47.21827
	8.531572	47.21806
	8.53151	47.21784
	8.531142	47.21766
	8.531079	47.21756
	8.530959	47.21757
	8.53064	47.21771
	8.530242	47.21771
	8.530127	47.21775
	8.530114	47.21791
	8.529988	47.21814
	8.529619	47.21826
	8.529241	47.21832
	8.528797	47.21857
	8.528542	47.21854
	8.528202	47.21862
	8.52729	47.21858
	8.527209	47.21863
	8.527032	47.21863
	8.526705	47.21871
	8.526238	47.21859
	8.526095	47.21863
	8.525933	47.21858
	8.525865	47.21866
	8.525864	47.21881
	8.525764	47.21888
	8.525381	47.21872
	8.525221	47.21874
	8.525063	47.21885
	8.524826	47.21885
	8.524268	47.21872
	8.524124	47.21877
	8.523922	47.21875
	8.523834	47.21878
	8.523829	47.21888
	8.523698	47.2189
	8.523516	47.21883
	8.523162	47.21884
	8.523213	47.21875
	8.523118	47.21872
	8.522871	47.21889
	8.522504	47.21883
	8.522412	47.21892
	8.522017	47.21895
	8.521912	47.21901
	8.521754	47.21933
	8.521413	47.21949
	8.521419	47.21954
	8.521667	47.21972
	8.521562	47.21988
	8.521645	47.21996
	8.521214	47.22018
	8.520635	47.21933
	8.517488	47.2196
	8.512564	47.21941
	8.512428	47.21866
	8.51278	47.21708
	8.512661	47.2169
	8.512601	47.21664
	8.512828	47.21654
	8.512684	47.21633
	8.512332	47.21552
	8.511608	47.21551
	8.510403	47.2157
	8.50941	47.21497
	8.509134	47.21505
	8.508578	47.21492
	8.507952	47.21461
	8.5073	47.21438
	8.505098	47.21477
	8.505056	47.21476
	8.505886	47.21386
	8.50585	47.21382
	8.505798	47.21378
	8.5052	47.21353
	8.504746	47.21326
	8.504607	47.21317
	8.50422	47.2128
	8.503841	47.21258
	8.503194	47.21239
	8.503314	47.21224
	8.501819	47.21188
	8.501273	47.21184
	8.500688	47.21185
	8.500307	47.21187
	8.498394	47.21207
	8.498112	47.21235
	8.497381	47.21227
	8.495361	47.21194
	8.494644	47.2119
	8.493749	47.21195
	8.493047	47.21192
	8.492495	47.21178
	8.491751	47.21137
	8.490605	47.21107
	8.489299	47.21088
	8.488219	47.21041
	8.485457	47.20904
	8.483824	47.20845
	8.483648	47.20845
	8.483407	47.20878
	8.481353	47.20865
	8.480675	47.20872
	8.479976	47.20859
	8.477254	47.20938
	8.477201	47.20932
	8.47622	47.21002
	8.475533	47.2096
	8.475155	47.20893
	8.474014	47.20877
	8.473297	47.20853
	8.472904	47.209
	8.47262	47.20949
	8.472646	47.20963
	8.473033	47.20973
	8.472879	47.21019
	8.473836	47.21062
	8.473548	47.21078
	8.472468	47.2117
	8.472257	47.21181
	8.471927	47.21193
	8.471502	47.212
	8.470413	47.21192
	8.47009	47.2134
	8.468863	47.21324
	8.468311	47.21296
	8.467064	47.21421
	8.466919	47.21429
	8.466154	47.21409
	8.465524	47.21399
	8.463657	47.21387
	8.463647	47.21394
	8.463231	47.21391
	8.462551	47.21378
	8.461995	47.2136
	8.461403	47.21363
	8.461334	47.21389
	8.46096	47.21428
	8.460424	47.21533
	8.459702	47.21598
	8.458697	47.217
	8.458317	47.21706
	8.457823	47.21728
	8.457252	47.2177
	8.45668	47.21857
	8.456128	47.21848
	8.455976	47.21839
	8.455636	47.21854
	8.454926	47.21823
	8.452946	47.21776
	8.452308	47.218
	8.451633	47.21838
	8.452335	47.21843
	8.453034	47.21863
	8.452098	47.2196
	8.450249	47.21947
	8.450297	47.22024
	8.450222	47.22013
	8.450056	47.22007
	8.447923	47.22011
	8.447797	47.22002
	8.447785	47.22081
	8.447695	47.22106
	8.447342	47.22138
	8.446632	47.22184
	8.446424	47.22212
	8.446414	47.2223
	8.446575	47.22282
	8.44664	47.22338
	8.445913	47.22334
	8.444636	47.22308
	8.4438	47.22264
	8.443499	47.22289
	8.443162	47.22308
	8.442849	47.22359
	8.442617	47.22357
	8.442265	47.22392
	8.441561	47.22485
	8.441122	47.22522
	8.440017	47.22433
	8.439053	47.2239
	8.437157	47.22369
	8.436047	47.22381
	8.435534	47.22369
	8.432305	47.22413
	8.430323	47.22487
	8.429759	47.22495
	8.429281	47.22487
	8.426951	47.22407
	8.425631	47.22376
	8.424885	47.22373
	8.424129	47.22359
	8.423252	47.22351
	8.423054	47.22345
	8.421685	47.22332
	8.421517	47.2238
	8.421372	47.22466
	8.42093	47.22565
	8.420817	47.22573
	8.419958	47.22576
	8.419175	47.22629
	8.418947	47.22631
	8.418693	47.22616
	8.418522	47.22618
	8.418176	47.22662
	8.418343	47.22695
	8.418203	47.2272
	8.41794	47.22841
	8.417768	47.22864
	8.417241	47.22882
	8.417211	47.22896
	8.417363	47.22918
	8.417373	47.22935
	8.417158	47.23037
	8.416964	47.23073
	8.41683	47.23227
	8.416948	47.23308
	8.417026	47.23377
	8.416633	47.23454
	8.416593	47.23482
	8.416744	47.23526
	8.416216	47.2361
	8.416487	47.23697
	8.416482	47.23699
	8.416407	47.23715
	8.41625	47.23735
	8.415794	47.23766
	8.415412	47.23806
	8.415162	47.23845
	8.414453	47.23875
	8.414247	47.23894
	8.414196	47.23915
	8.414241	47.23939
	8.414654	47.23975
	8.41512	47.23998
	8.415631	47.24013
	8.416494	47.24109
	8.416487	47.24132
	8.416023	47.24173
	8.415779	47.24231
	8.415496	47.24245
	8.414902	47.24255
	8.414601	47.24266
	8.414478	47.24279
	8.414106	47.24352
	8.413999	47.24367
	8.413423	47.24436
	8.413227	47.24478
	8.413086	47.24523
	8.413008	47.24607
	8.412729	47.24657
	8.412332	47.24705
	8.411934	47.24741
	8.411125	47.24795
	8.410498	47.24824
	8.410073	47.24838
	8.408494	47.24997
	8.407664	47.25071
	8.403695	47.25356
	8.40321	47.25408
	8.402877	47.25463
	8.402689	47.25514
	8.402627	47.25555
	8.402712	47.25642
	8.403004	47.25708
	8.40426	47.25898
	8.404466	47.25965
	8.404481	47.26034
	8.404245	47.26114
	8.403738	47.2619
	8.403037	47.26253
	8.401776	47.26329
	8.401391	47.26358
	8.400919	47.2641
	8.400647	47.26463
	8.400505	47.26517
	8.400531	47.26576
	8.402285	47.27045
	8.402399	47.2709
	8.402389	47.27172
	8.402112	47.2725
	8.401704	47.27309
	8.401151	47.27361
	8.396265	47.27688
	8.395535	47.27749
	8.394993	47.27809
	8.394534	47.27877
	8.394241	47.27939
	8.393077	47.28342
	8.392768	47.2842
	8.392021	47.28574
	8.391607	47.28648
	8.391115	47.28745
	8.390365	47.28837
	8.389382	47.28932
	8.389119	47.28957
	8.388795	47.28968
	8.388845	47.28983
	8.388635	47.29003
	8.388943	47.29013
	8.389673	47.29237
	8.390449	47.29281
	8.390768	47.29292
	8.391511	47.29302
	8.392042	47.293
	8.39232	47.29296
	8.392884	47.29285
	8.393738	47.29246
	8.394073	47.2922
	8.394173	47.29214
	8.394899	47.29181
	8.395536	47.29135
	8.396001	47.29084
	8.395919	47.28884
	8.396473	47.28855
	8.397052	47.28792
	8.397219	47.2879
	8.400282	47.289
	8.400205	47.28912
	8.400288	47.28909
	8.400615	47.28919
	8.401519	47.2895
	8.402203	47.28985
	8.402499	47.29007
	8.403452	47.29044
	8.404066	47.29078
	8.403577	47.29176
	8.405746	47.29226
	8.407025	47.29247
	8.413064	47.293
	8.413951	47.29327
	8.414651	47.2936
	8.414669	47.29358
	8.415053	47.29374
	8.41601	47.29394
	8.41633	47.29395
	8.417049	47.29382
	8.418894	47.2947
	8.419099	47.29507
	8.419244	47.29516
	8.418951	47.29538
	8.420214	47.2957
	8.420061	47.2959
	8.419887	47.29649
	8.41991	47.29661
	8.420363	47.29711
	8.420974	47.2975
	8.421561	47.29778
	8.421734	47.29804
	8.422228	47.29775
	8.423149	47.29838
	8.424033	47.29874
	8.424616	47.29888
	8.424881	47.29912
	8.425359	47.29934
	8.425953	47.29955
	8.426754	47.2997
	8.426769	47.2998
	8.427115	47.2999
	8.427948	47.30034
	8.428557	47.30044
	8.429126	47.30068
	8.428541	47.30115
	8.428731	47.30136
	8.429368	47.30223
	8.429876	47.30342
	8.430039	47.30368
	8.429466	47.30363
	8.429267	47.3038
	8.428914	47.30402
	8.42855	47.30427
	8.427956	47.30493
	8.427872	47.30507
	8.427649	47.30568
	8.427615	47.30586
	8.427482	47.30594
	8.427118	47.30622
	8.426934	47.30639
	8.426753	47.30659
	8.426398	47.30703
	8.424997	47.30858
	8.424765	47.30889
	8.424545	47.30926
	8.424361	47.30949
	8.424148	47.30971
	8.423654	47.31017
	8.423457	47.31038
	8.423233	47.31066
	8.423148	47.31074
	8.422568	47.31117
	8.422245	47.31144
	8.421988	47.31172
	8.421886	47.31185
	8.421368	47.31261
	8.421013	47.3132
	8.420669	47.31384
	8.420155	47.31461
	8.419629	47.31553
	8.419309	47.31617
	8.419223	47.31637
	8.418881	47.31697
	8.418537	47.31764
	8.419403	47.32033
	8.422096	47.31946
	8.422377	47.31891
	8.422751	47.31826
	8.423138	47.31745
	8.423363	47.31705
	8.423585	47.31667
	8.424024	47.31602
	8.42472	47.3148
	8.425042	47.31432
	8.425485	47.31399
	8.425852	47.31369
	8.42626	47.31328
	8.426478	47.31301
	8.426999	47.31252
	8.427443	47.31204
	8.427788	47.3116
	8.427968	47.31133
	8.428079	47.31113
	8.429402	47.30967
	8.429742	47.30925
	8.430159	47.30903
	8.430556	47.30874
	8.430689	47.30862
	8.431057	47.30817
	8.431158	47.308
	8.431189	47.30792
	8.43184	47.30829
	8.432069	47.30838
	8.432187	47.30867
	8.432144	47.30927
	8.431967	47.31059
	8.43179	47.31079
	8.431923	47.31105
	8.432043	47.31155
	8.432292	47.31184
	8.432721	47.31217
	8.433594	47.31264
	8.434563	47.31335
	8.435555	47.31382
	8.435954	47.31416
	8.436201	47.31472
	8.436204	47.3152
	8.43631	47.31525
	8.436473	47.31528
	8.437029	47.31525
	8.437063	47.3153
	8.437131	47.3153
	8.437584	47.31517
	8.437776	47.3152
	8.43801	47.31514
	8.438395	47.31516
	8.439228	47.31534
	8.439397	47.31543
	8.440515	47.31574
	8.441311	47.31583
	8.441308	47.31588
	8.441353	47.31596
	8.441115	47.31632
	8.441044	47.31667
	8.440668	47.31717
	8.440668	47.3174
	8.440476	47.31759
	8.440515	47.31785
	8.441193	47.31795
	8.441977	47.31824
	8.442301	47.31841
	8.442377	47.31837
	8.443	47.31873
	8.444072	47.31923
	8.444094	47.31929
	8.444776	47.31947
	8.445785	47.32
	8.446658	47.32161
	8.446826	47.3216
	8.447653	47.32193
	8.447996	47.32228
	8.448364	47.32285
	8.448089	47.32299
	8.449159	47.32335
	8.448607	47.32427
	8.449312	47.32477
	8.449953	47.32551
	8.449715	47.32563
	8.44941	47.32566
	8.448883	47.32581
	8.448506	47.32598
	8.449996	47.32692
	8.449891	47.32698
	8.452403	47.3287
	8.451541	47.32914
	8.453725	47.33165
	8.454731	47.33301
	8.454953	47.33341
	8.455075	47.33383
	8.4551	47.33409
	8.454711	47.33439
	8.454111	47.33475
	8.453264	47.3339
	8.452955	47.33326
	8.450994	47.33363
	8.451035	47.33328
	8.450876	47.33261
	8.450501	47.33207
	8.449964	47.33111
	8.449842	47.33049
	8.448507	47.33026
	8.448097	47.33016
	8.447141	47.33004
	8.446239	47.32981
	8.444984	47.32937
	8.444348	47.32894
	8.443772	47.32908
	8.443714	47.32916
	8.44353	47.32922
	8.442791	47.32834
	8.442757	47.32836
	8.442475	47.32806
	8.442073	47.32742
	8.441319	47.3272
	8.441123	47.32731
	8.440939	47.32755
	8.440586	47.32765
	8.439801	47.32734
	8.43953	47.32705
	8.439202	47.32706
	8.436716	47.32675
	8.435476	47.32575
	8.434765	47.32532
	8.43166	47.32698
	8.431587	47.32697
	8.431241	47.32653
	8.429428	47.32736
	8.428624	47.32696
	8.427651	47.32662
	8.424887	47.3264
	8.423422	47.32611
	8.420898	47.32543
	8.421076	47.32528
	8.420067	47.32511
	8.419028	47.32473
	8.417659	47.32466
	8.41628	47.32446
	8.415784	47.32475
	8.415692	47.32487
	8.415584	47.32506
	8.415613	47.32542
	8.415498	47.32586
	8.415316	47.32605
	8.415241	47.32626
	8.414994	47.32632
	8.41439	47.32634
	8.414167	47.32618
	8.413835	47.32621
	8.413196	47.3264
	8.412626	47.32687
	8.412418	47.32713
	8.412412	47.32774
	8.412574	47.32801
	8.412577	47.32856
	8.413387	47.32872
	8.413684	47.32962
	8.413947	47.3307
	8.416725	47.33381
	8.416802	47.33426
	8.416759	47.33439
	8.416549	47.3346
	8.416269	47.33515
	8.41592	47.33552
	8.415861	47.33571
	8.415963	47.33576
	8.416033	47.33591
	8.416131	47.33591
	8.416132	47.3361
	8.416384	47.33623
	8.41661	47.3366
	8.416618	47.33688
	8.416449	47.33701
	8.416378	47.33712
	8.416361	47.33712
	8.416049	47.33708
	8.41553	47.3371
	8.415249	47.33704
	8.414979	47.33689
	8.414746	47.33684
	8.414447	47.33723
	8.414172	47.33748
	8.413649	47.33779
	8.413736	47.33794
	8.413711	47.33804
	8.413334	47.33828
	8.412869	47.33846
	8.411999	47.33823
	8.412202	47.33878
	8.411468	47.33879
	8.411364	47.33886
	8.41138	47.3391
	8.410819	47.33986
	8.410856	47.33987
	8.410537	47.34022
	8.41021	47.34037
	8.4096	47.34055
	8.408465	47.34132
	8.407309	47.34158
	8.40777	47.34235
	8.406942	47.34229
	8.406711	47.34307
	8.406414	47.34301
	8.406315	47.34306
	8.406507	47.34338
	8.406673	47.34403
	8.406075	47.3443
	8.405891	47.34461
	8.405847	47.34458
	8.405315	47.34472
	8.404778	47.34498
	8.404915	47.34518
	8.403861	47.34657
	8.404023	47.34712
	8.404339	47.34757
	8.404658	47.34796
	8.405576	47.34884
	8.405676	47.3493
	8.405635	47.35043
	8.405767	47.35109
	8.406758	47.35189
	8.406968	47.3521
	8.407022	47.35224
	8.408335	47.35356
	8.409272	47.35507
	8.408289	47.35523
	8.407616	47.35539
	8.407365	47.35555
	8.407299	47.35569
	8.40738	47.35598
	8.407352	47.35705
	8.406967	47.35758
	8.406773	47.35799
	8.407022	47.35853
	8.40716	47.35984
	8.407262	47.36002
	8.406782	47.36011
	8.406736	47.36046
	8.406847	47.36131
	8.406708	47.36177
	8.406459	47.36228
	8.406082	47.36291
	8.405838	47.36315
	8.405493	47.36363
	8.405041	47.36403
	8.404928	47.3641
	8.40531	47.36427
	8.405269	47.3644
	8.405386	47.36498
	8.405611	47.36527
	8.406338	47.36597
	8.406734	47.36612
	8.407289	47.36642
	8.408191	47.36665
	8.407971	47.36724
	8.407664	47.36757
	8.407282	47.36787
	8.407118	47.36843
	8.40709	47.36879
	8.407636	47.36937
	8.407839	47.36977
	8.407376	47.36995
	8.407031	47.37023
	8.402966	47.37
	8.402617	47.37017
	8.402373	47.37041
	8.402237	47.37041
	8.402046	47.3706
	8.401866	47.37065
	8.401328	47.37045
	8.400572	47.37053
	8.400359	47.37052
	8.40033	47.37119
	8.400546	47.37152
	8.400264	47.37243
	8.400314	47.37296
	8.400041	47.37296
	8.400018	47.37327
	8.40029	47.37351
	8.40042	47.37369
	8.400478	47.37391
	8.400669	47.37404
	8.400763	47.3742
	8.400434	47.37423
	8.400246	47.37429
	8.399743	47.37462
	8.399589	47.37478
	8.399522	47.37482
	8.399186	47.37477
	8.398312	47.37512
	8.397646	47.37585
	8.397416	47.37599
	8.397099	47.37669
	8.396754	47.37664
	8.39638	47.37704
	8.396393	47.37737
	8.396639	47.37766
	8.396643	47.37776
	8.396486	47.37796
	8.396517	47.37852
	8.396638	47.37887
	8.396551	47.37906
	8.396098	47.37937
	8.396003	47.37969
	8.395606	47.38016
	8.39547	47.38029
	8.39513	47.38042
	8.394937	47.38072
	8.394962	47.38119
	8.395441	47.38173
	8.395082	47.38234
	8.395111	47.3828
	8.39485	47.38327
	8.394909	47.38385
	8.395071	47.38437
	8.394984	47.38486
	8.394753	47.3853
	8.39479	47.38551
	8.395185	47.38575
	8.395346	47.38595
	8.39535	47.38618
	8.395174	47.38656
	8.394953	47.38683
	8.394884	47.38709
	8.395071	47.38756
	8.39513	47.38758
	8.394889	47.38781
	8.394791	47.38821
	8.394827	47.3889
	8.394749	47.38938
	8.39479	47.3897
	8.394681	47.38998
	8.394889	47.39008
	8.394908	47.39016
	8.39408	47.39103
	8.39402	47.39116
	8.394153	47.39131
	8.394501	47.39143
	8.395189	47.39139
	8.395456	47.39142
	8.395756	47.39155
	8.396008	47.39184
	8.396442	47.39263
	8.396165	47.39296
	8.39617	47.39311
	8.39663	47.3936
	8.396622	47.39373
	8.396462	47.39399
	8.39612	47.39414
	8.396342	47.39382
	8.395986	47.39371
	8.395583	47.39366
	8.395344	47.39351
	8.395097	47.39352
	8.395022	47.39357
	8.394767	47.39352
	8.394571	47.39428
	8.394393	47.39453
	8.393895	47.39498
	8.393608	47.39499
	8.393061	47.39488
	8.392603	47.39545
	8.392543	47.39542
	8.39245	47.39557
	8.3919	47.39584
	8.39103	47.39554
	8.390539	47.39518
	8.39026	47.39487
	8.389751	47.39465
	8.389298	47.39506
	8.388985	47.39525
	8.387976	47.39564
	8.38742	47.39567
	8.386979	47.39556
	8.386474	47.39526
	8.386304	47.39522
	8.385775	47.39525
	8.384967	47.39518
	8.384611	47.39521
	8.384041	47.39536
	8.383699	47.39537
	8.383522	47.39526
	8.383139	47.39458
	8.382863	47.39506
	8.382476	47.39541
	8.382832	47.3958
	8.382808	47.39607
	8.382631	47.39662
	8.382001	47.39695
	8.381597	47.39723
	8.381157	47.39787
	8.380867	47.39814
	8.380509	47.39828
	8.380562	47.39847
	8.380716	47.39863
	8.380553	47.39894
	8.379899	47.39963
	8.379337	47.39991
	8.378469	47.40005
	8.37822	47.39964
	8.377884	47.3999
	8.377609	47.39999
	8.376789	47.39996
	8.376291	47.40001
	8.375278	47.39936
	8.374062	47.39904
	8.373409	47.39897
	8.372847	47.39896
	8.372436	47.39912
	8.371323	47.39912
	8.370643	47.39921
	8.369634	47.3991
	8.369165	47.39913
	8.368843	47.39926
	8.368441	47.39915
	8.368045	47.39896
	8.36779	47.39894
	8.367446	47.39881
	8.367253	47.39899
	8.367073	47.39902
	8.366376	47.39882
	8.365826	47.39907
	8.365035	47.39952
	8.365065	47.39982
	8.364408	47.40043
	8.364247	47.40056
	8.363838	47.40065
	8.363278	47.401
	8.362745	47.40161
	8.362484	47.40232
	8.362698	47.40231
	8.364891	47.40229
	8.365818	47.40251
	8.366338	47.40187
	8.367427	47.40074
	8.367717	47.40118
	8.36798	47.40133
	8.368037	47.40141
	8.367791	47.40217
	8.367985	47.40227
	8.368189	47.40229
	8.368406	47.40224
	8.368484	47.40248
	8.369077	47.40332
	8.369666	47.40354
	8.370596	47.40382
	8.373795	47.40448
	8.376169	47.4048
	8.377261	47.40391
	8.377531	47.40348
	8.377965	47.40338
	8.379113	47.40256
	8.379243	47.40241
	8.380147	47.40273
	8.380028	47.40301
	8.380957	47.40298
	8.381234	47.40306
	8.381185	47.4032
	8.381994	47.40352
	8.382105	47.40373
	8.382019	47.40398
	8.382508	47.40418
	8.382691	47.40443
	8.382683	47.40478
	8.383933	47.40559
	8.384145	47.40591
	8.384611	47.40622
	8.382367	47.40775
	8.38193	47.4081
	8.38156	47.40849
	8.38129	47.40892
	8.381128	47.40938
	8.381079	47.40984
	8.381145	47.41031
	8.381324	47.41076
	8.38161	47.41118
	8.381981	47.41157
	8.383085	47.41253
	8.38235	47.41286
	8.382542	47.41306
	8.383166	47.4128
	8.383405	47.41278
	8.38537	47.41448
	8.385246	47.41442
	8.384954	47.41447
	8.38454	47.41469
	8.384602	47.41474
	8.381749	47.41627
	8.383791	47.41803
	8.386723	47.41676
	8.387538	47.41636
	8.391441	47.41977
	8.391873	47.42031
	8.39218	47.42098
	8.392254	47.42144
	8.392228	47.42188
	8.391857	47.4228
	8.391167	47.42362
	8.390984	47.42374
	8.39086	47.42375
	8.390597	47.42396
	8.390632	47.42405
	8.390583	47.42414
	8.390225	47.42448
	8.389455	47.42511
	8.389263	47.42511
	8.388999	47.42529
	8.38896	47.42543
	8.389011	47.42548
	8.388528	47.42597
	8.387942	47.42676
	8.387578	47.42758
	8.387621	47.42796
	8.385176	47.42796
	8.383252	47.4281
	8.380135	47.42905
	8.378114	47.42922
	8.377251	47.42941
	8.375987	47.4299
	8.375659	47.43011
	8.375068	47.43067
	8.37502	47.43119
	8.374687	47.43209
	8.374653	47.43225
	8.375201	47.43232
	8.375746	47.43279
	8.376172	47.43349
	8.376577	47.43331
	8.377085	47.43383
	8.378139	47.4334
	8.379091	47.43308
	8.379205	47.43305
	8.379266	47.43311
	8.380838	47.43276
	8.381031	47.43331
	8.382858	47.43291
	8.383288	47.43365
	8.383984	47.43456
	8.383923	47.43495
	8.384129	47.43502
	8.384483	47.4353
	8.385027	47.43594
	8.385102	47.43631
	8.385033	47.43673
	8.384587	47.4369
	8.384059	47.43721
	8.383981	47.4373
	8.383825	47.43823
	8.383955	47.43832
	8.384459	47.43839
	8.383734	47.43998
	8.38346	47.4401
	8.382859	47.44024
	8.382451	47.44041
	8.38195	47.44049
	8.381869	47.44086
	8.381864	47.44169
	8.381894	47.44215
	8.382001	47.44214
	8.381998	47.44217
	8.381902	47.44245
	8.381668	47.44414
	8.381114	47.44623
	8.381026	47.44627
	8.381006	47.44637
	8.382092	47.44643
	8.382155	47.44647
	8.38175	47.4487
	8.385811	47.44926
	8.38662	47.44949
	8.386893	47.4496
	8.386805	47.4497
	8.386652	47.44973
	8.385686	47.45157
	8.384911	47.45367
	8.384999	47.45379
	8.385096	47.45381
	8.384927	47.45388
	8.384811	47.45408
	8.38429	47.45388
	8.384415	47.45491
	8.382994	47.45501
	8.383098	47.45513
	8.382901	47.45624
	8.382722	47.45633
	8.380302	47.4562
	8.380185	47.45614
	8.380066	47.45648
	8.37936	47.45733
	8.379135	47.45798
	8.378988	47.45917
	8.378873	47.45927
	8.378089	47.45933
	8.377851	47.45949
	8.374303	47.45936
	8.372832	47.45918
	8.372763	47.45931
	8.372766	47.45958
	8.372622	47.46012
	8.372138	47.46107
	8.371005	47.46179
	8.37099	47.46192
	8.370653	47.4624
	8.369523	47.4634
	8.369705	47.4638
	8.369816	47.46388
	8.369796	47.46391
	8.369679	47.46388
	8.369388	47.46484
	8.369438	47.46534
	8.368851	47.46535
	8.368841	47.4658
	8.367383	47.46623
	8.367206	47.46575
	8.365673	47.46621
	8.365936	47.46701
	8.365765	47.46753
	8.366616	47.46791
	8.367578	47.46802
	8.367732	47.46808
	8.367828	47.46818
	8.367994	47.46858
	8.368063	47.46897
	8.367943	47.46924
	8.367778	47.46934
	8.367543	47.46941
	8.366628	47.46935
	8.366376	47.46941
	8.366297	47.4695
	8.366388	47.46961
	8.366908	47.46971
	8.367135	47.4698
	8.367774	47.47035
	8.368033	47.47042
	8.368764	47.47035
	8.369632	47.47044
	8.370149	47.47044
	8.37137	47.47014
	8.3718	47.47014
	8.372595	47.47028
	8.373746	47.47077
	8.375314	47.47114
	8.375281	47.47164
	8.374298	47.47301
	8.374103	47.47428
	8.373585	47.47486
	8.373722	47.47554
	8.373984	47.4778
	8.374099	47.47815
	8.374061	47.47863
	8.374186	47.48046
	8.373254	47.48147
	8.37108	47.48129
	8.364957	47.48103
	8.363263	47.48086
	8.363018	47.48163
	8.362749	47.48291
	8.362751	47.48323
	8.362526	47.48369
	8.362548	47.48391
	8.36199	47.48575
	8.362088	47.48757
	8.362276	47.48821
	8.362064	47.48854
	8.362453	47.48964
	8.362655	47.49043
	8.362647	47.4906
	8.362508	47.49086
	8.362269	47.49099
	8.362223	47.49104
	8.362184	47.49106
	8.361886	47.49141
	8.361658	47.49254
	8.361244	47.4935
	8.361312	47.49387
	8.36128	47.49424
	8.361069	47.49518
	8.360839	47.49561
	8.360411	47.4961
	8.36007	47.49638
	8.359054	47.49693
	8.35827	47.49748
	8.358431	47.49748
	8.359541	47.49805
	8.360236	47.49863
	8.360616	47.49887
	8.361319	47.49923
	8.362149	47.49956
	8.362746	47.50012
	8.362799	47.50072
	8.363092	47.50114
	8.363048	47.50119
	8.360121	47.50084
	8.359789	47.50082
	8.359221	47.5009
	8.358882	47.50104
	8.358567	47.50128
	8.357833	47.50247
	8.35768	47.50253
	8.358684	47.50303
	8.358428	47.50349
	8.358931	47.50408
	8.359154	47.50451
	8.358892	47.50504
	8.358819	47.50535
	8.358868	47.50575
	8.359039	47.50608
	8.35941	47.50642
	8.360582	47.50704
	8.361638	47.50782
	8.360845	47.50888
	8.360904	47.50957
	8.361221	47.5101
	8.361808	47.51029
	8.362241	47.51038
	8.363259	47.51081
	8.36353	47.51088
	8.363695	47.51091
	8.365841	47.51089
	8.365957	47.51088
	8.366092	47.51085
	8.366205	47.51081
	8.366561	47.51155
	8.368188	47.51119
	8.368361	47.51154
	8.367216	47.51207
	8.367354	47.51221
	8.368514	47.51193
	8.368559	47.51201
	8.368958	47.51218
	8.370395	47.5115
	8.370716	47.51167
	8.371027	47.5115
	8.371583	47.51179
	8.372227	47.51141
	8.373622	47.51102
	8.373783	47.51102
	8.374083	47.51112
	8.374207	47.51149
	8.374146	47.51158
	8.374286	47.51163
	8.374651	47.51218
	8.376464	47.51248
	8.377045	47.51239
	8.377602	47.513
	8.378788	47.51367
	8.379348	47.51437
	8.379634	47.51482
	8.379637	47.51491
	8.379258	47.51588
	8.38036	47.51597
	8.380573	47.51849
	8.380424	47.51996
	8.380931	47.52125
	8.381093	47.52188
	8.381294	47.52301
	8.381387	47.524
	8.381387	47.52491
	8.381619	47.52555
	8.38215	47.52628
	8.382409	47.52655
	8.383521	47.52769
	8.384191	47.5282
	8.385115	47.52865
	8.386295	47.52878
	8.38664	47.52887
	8.386919	47.5286
	8.387495	47.52829
	8.388118	47.52826
	8.388695	47.52775
	8.388934	47.52763
	8.389535	47.52751
	8.389814	47.52734
	8.389656	47.52714
	8.389317	47.52698
	8.388877	47.52631
	8.389531	47.52629
	8.39025	47.52634
	8.390645	47.52627
	8.391009	47.52609
	8.392064	47.52539
	8.392052	47.52514
	8.393312	47.52572
	8.394652	47.5274
	8.395717	47.52832
	8.395486	47.52845
	8.395322	47.52861
	8.395119	47.52914
	8.395135	47.53019
	8.394969	47.53059
	8.394843	47.53148
	8.395077	47.53176
	8.395613	47.53207
	8.396727	47.5323
	8.397697	47.53265
	8.397895	47.53266
	8.398144	47.53255
	8.398294	47.53255
	8.398401	47.53265
	8.398329	47.53279
	8.398998	47.53298
	8.399467	47.53303
	8.400362	47.53323
	8.402558	47.53324
	8.402817	47.53337
	8.403233	47.53344
	8.403837	47.53345
	8.403917	47.53351
	8.403938	47.53379
	8.404025	47.53393
	8.404416	47.53432
	8.404269	47.5349
	8.404052	47.53527
	8.403526	47.5357
	8.403365	47.53607
	8.403091	47.53637
	8.403269	47.53631
	8.403897	47.5362
	8.404059	47.5362
	8.404713	47.5363
	8.404846	47.53634
	8.405735	47.53693
	8.405811	47.53702
	8.406217	47.53889
	8.406124	47.53924
	8.406064	47.53964
	8.405872	47.54021
	8.406047	47.54035
	8.405767	47.54079
	8.406157	47.54134
	8.405388	47.54189
	8.406399	47.54199
	8.406543	47.54167
	8.406726	47.5416
	8.406883	47.54166
	8.406961	47.54182
	8.406906	47.54215
	8.407324	47.54257
	8.407374	47.5427
	8.407416	47.54332
	8.407492	47.5435
	8.407721	47.54361
	8.408216	47.54372
	8.408267	47.5437
	8.408306	47.54352
	8.408428	47.54352
	8.408455	47.54342
	8.408519	47.5434
	8.408726	47.54344
	8.408795	47.54355
	8.408648	47.54378
	8.408685	47.54388
	8.409766	47.54475
	8.4104	47.54549
	8.410965	47.54577
	8.41112	47.5461
	8.411293	47.54614
	8.41144	47.54611
	8.411542	47.54602
	8.411549	47.54592
	8.411417	47.54568
	8.412539	47.5457
	8.412692	47.54599
	8.412698	47.54625
	8.415195	47.54603
	8.415678	47.54606
	8.417392	47.54589
	8.417262	47.54605
	8.41552	47.54772
	8.415052	47.54839
	8.41522	47.54889
	8.415456	47.54935
	8.416189	47.54995
	8.416741	47.55016
	8.416926	47.55027
	8.416497	47.5505
	8.415742	47.55104
	8.415584	47.55101
	8.415066	47.55163
	8.4146	47.552
	8.414525	47.55216
	8.414781	47.55275
	8.41481	47.55302
	8.414763	47.55317
	8.414533	47.55348
	8.414436	47.55389
	8.414689	47.55425
	8.414918	47.55487
	8.415614	47.5557
	8.416365	47.55731
	8.416388	47.55747
	8.416293	47.5577
	8.416303	47.55785
	8.416377	47.55791
	8.416893	47.55804
	8.417675	47.55846
	8.417879	47.5591
	8.417827	47.55947
	8.417552	47.56005
	8.417851	47.56072
	8.416864	47.56093
	8.417498	47.56234
	8.418448	47.5639
	8.418466	47.56401
	8.418306	47.56427
	8.418338	47.56453
	8.418469	47.56482
	8.418736	47.56516
	8.423564	47.56644
	8.425633	47.56784
	8.426887	47.56743
	8.427983	47.56709
	8.429127	47.56683
	8.430304	47.56666
	8.431502	47.56657
	8.432535	47.56656
	8.433564	47.56662
	8.43714	47.56706
	8.438334	47.56726
	8.439485	47.56755
	8.446668	47.56976
	8.449976	47.57091
	8.450982	47.57115
	8.452992	47.5715
	8.456168	47.57244
	8.456943	47.57248
	8.460712	47.57206
	8.461579	47.57201
	8.46287	47.57203
	8.46417	47.57219
	8.465241	47.57245
	8.466268	47.57276
	8.467648	47.57327
	8.468954	47.57382
	8.471118	47.57491
	8.475493	47.57735
	8.476206	47.57767
	8.476722	47.57784
	8.477913	47.57801
	8.479127	47.57798
	8.480151	47.57781
	8.482941	47.57717
	8.483817	47.57707
	8.484811	47.57712
	8.485728	47.57728
	8.486602	47.57756
	8.487315	47.57792
	8.488607	47.57879
	8.490011	47.57961
	8.491578	47.5803
	8.493122	47.5808
	8.494694	47.58111
	8.499401	47.58105
	8.506483	47.58589
	8.519292	47.5909
	8.538155	47.58831
	8.537271	47.58761
	8.537176	47.58753
	8.53714	47.58746
	8.537016	47.58744
	8.53702	47.58737
	8.536261	47.58731
	8.535336	47.58712
	8.535946	47.58585
	8.536248	47.5844
	8.53639	47.58455
	8.536593	47.58465
	8.536991	47.58343
	8.535952	47.58319
	8.534813	47.58302
	8.534186	47.58288
	8.533548	47.58216
	8.534694	47.58169
	8.534535	47.58115
	8.534647	47.58108
	8.535289	47.5809
	8.535632	47.58084
	8.535758	47.58077
	8.535878	47.57945
	8.535937	47.57937
	8.536128	47.57935
	8.536606	47.5796
	8.536617	47.57946
	8.5367	47.57942
	8.537228	47.57933
	8.539517	47.57862
	8.539779	47.57849
	8.540129	47.57821
	8.539853	47.57765
	8.538337	47.57794
	8.537538	47.57796
	8.537536	47.57791
	8.537415	47.57786
	8.537374	47.57756
	8.536842	47.57748
	8.536766	47.57741
	8.536925	47.57681
	8.535018	47.5758
	8.534835	47.5755
	8.534966	47.57528
	8.535085	47.57523
	8.53594	47.57514
	8.536754	47.57484
	8.538258	47.57462
	8.539325	47.5744
	8.539552	47.57438
	8.539721	47.57443
	8.540514	47.57477
	8.54144	47.5747
	8.542705	47.57454
	8.543186	47.57455
	8.543717	47.57483
	8.543991	47.57491
	8.544466	47.57495
	8.545206	47.57475
	8.546377	47.57417
	8.546474	47.57388
	8.546441	47.57371
	8.545885	47.57328
	8.545692	47.57295
	8.546308	47.57246
	8.546803	47.57234
	8.546357	47.5717
	8.546205	47.57131
	8.545457	47.57125
	8.545024	47.57125
	8.544393	47.57117
	8.543495	47.57083
	8.543474	47.57079
	8.54335	47.57081
	8.543071	47.57057
	8.542473	47.57048
	8.541583	47.56993
	8.544879	47.56783
	8.545743	47.56719
	8.546605	47.56637
	8.548313	47.56437
	8.54946	47.56247
	8.549721	47.56187
	8.550484	47.55927
	8.550586	47.55847
	8.550589	47.55715
	8.550688	47.55671
	8.550866	47.55628
	8.551153	47.55583
	8.551528	47.5554
	8.554296	47.553
	8.555067	47.55387
	8.556256	47.55394
	8.557744	47.55461
	8.558332	47.55494
	8.562903	47.56077
	8.565233	47.56329
	8.566185	47.5646
	8.567107	47.56657
	8.567242	47.56731
	8.5681	47.57084
	8.568204	47.57116
	8.569058	47.57315
	8.570148	47.5756
	8.570306	47.57588
	8.570941	47.57685
	8.573712	47.57741
	8.5741	47.57552
	8.574982	47.57571
	8.577837	47.576
	8.578692	47.57611
	8.579404	47.57638
	8.579913	47.57681
	8.580109	47.57718
	8.580189	47.57769
	8.580184	47.57808
	8.580088	47.57847
	8.578219	47.58164
	8.577515	47.58326
	8.577236	47.58417
	8.577102	47.58505
	8.577094	47.58591
	8.577212	47.58695
	8.577466	47.58777
	8.578113	47.58902
	8.578967	47.59014
	8.580046	47.59117
	8.581394	47.59214
	8.582662	47.59288
	8.584069	47.59348
	8.585447	47.59392
	8.587346	47.59434
	8.592165	47.59537
	8.592925	47.5956
	8.593648	47.59597
	8.594264	47.59645
	8.594603	47.59681
	8.594853	47.59721
	8.595009	47.59762
	8.595067	47.59806
	8.594977	47.59865
	8.59436	47.60028
	8.59429	47.60085
	8.594328	47.60143
	8.595205	47.6046
	8.595746	47.60559
	8.596083	47.60608
	8.596547	47.60648
	8.599386	47.60798
	8.603443	47.61094
	8.603778	47.61132
	8.604412	47.61226
	8.604714	47.61284
	8.604938	47.61344
	8.605141	47.61463
	8.605152	47.61549
	8.605046	47.6162
	8.604761	47.61701
	8.604296	47.6178
	8.601336	47.62129
	8.599612	47.6238
	8.59893	47.62501
	8.598101	47.6269
	8.597635	47.62859
	8.597156	47.62993
	8.597024	47.63049
	8.59674	47.63291
	8.596806	47.63509
	8.596676	47.63624
	8.596288	47.63755
	8.595413	47.63973
	8.595287	47.64087
	8.595291	47.64148
	8.595426	47.64226
	8.595546	47.64272
	8.595691	47.64304
	8.596092	47.64343
	8.597219	47.64408
	8.597806	47.64431
	8.599655	47.64489
	8.601151	47.64555
	8.601407	47.6457
	8.602265	47.64659
	8.60262	47.64713
	8.602896	47.64794
	8.603237	47.64938
	8.603815	47.65064
	8.604005	47.65092
	8.605295	47.65206
	8.605752	47.65233
	8.60617	47.65247
	8.606637	47.65254
	8.607115	47.65253
	8.607563	47.65244
	8.609403	47.65184
	8.61025	47.65146
	8.61181	47.65042
	8.612374	47.64989
	8.613033	47.64902
	8.613339	47.64851
	8.61407	47.6466
	8.614186	47.64605
	8.61421	47.64551
	8.614142	47.64495
	8.613988	47.64442
	8.613756	47.64388
	8.613494	47.64352
	8.612417	47.64257
	8.611949	47.6423
	8.610697	47.64186
	8.609423	47.64161
	8.607451	47.64149
	8.605445	47.64161
	8.605125	47.64157
	8.604246	47.64134
	8.603804	47.64113
	8.603134	47.64056
	8.602781	47.64003
	8.602805	47.63971
	8.603409	47.6387
	8.603738	47.63836
	8.604251	47.63797
	8.604761	47.63766
	8.605314	47.63741
	8.605914	47.63722
	8.606548	47.63708
	8.607646	47.637
	8.609766	47.6371
	8.615596	47.6377
	8.616546	47.63789
	8.61894	47.6385
	8.619777	47.63878
	8.621946	47.63991
	8.622594	47.64033
	8.623184	47.64078
	8.6242	47.64176
	8.624866	47.6426
	8.625846	47.64422
	8.627503	47.64736
	8.628256	47.64836
	8.628632	47.64898
	8.628854	47.64966
	8.62893	47.65173
	8.628746	47.65231
	8.62792	47.65345
	8.625674	47.65522
	8.621808	47.65792
	8.620896	47.65851
	8.619336	47.65942
	8.616259	47.66075
	8.614544	47.66157
	8.612818	47.66081
	8.608788	47.66342
	8.608445	47.6639
	8.608094	47.66414
	8.609081	47.6647
	8.609111	47.66481
	8.609178	47.66521
	8.609193	47.66544
	8.609174	47.66587
	8.60914	47.66609
	8.609027	47.66651
	8.60873	47.6672
	8.608629	47.66767
	8.608479	47.66824
	8.608363	47.66855
	8.608149	47.66904
	8.608192	47.66914
	8.608901	47.67
	8.609117	47.67032
	8.609588	47.67116
	8.60984	47.6717
	8.609461	47.67187
	8.609469	47.67205
END
END
