Taiwan_North
1
	118.4768	23.30676
	118.22	24.06975
	118.215	24.26578
	118.1253	24.38153
	118.2124	24.47663
	118.4412	24.56804
	118.622	24.40991
	119.3783	25.06511
	120.3161	25.246
	119.872	25.82942
	119.794	26.23842
	120.3906	26.52224
	122.2664	25.78844
	122.1322	24.31426
	122.1319	24.31085
	121.8356	24.3424
	121.7556	24.36055
	121.6561	24.35429
	121.6053	24.32457
	121.4618	24.34491
	121.3581	24.26105
	121.2413	24.26481
	121.1895	24.26637
	121.1613	24.25542
	121.172	24.21628
	121.0868	24.16398
	121.0319	24.14519
	121.0199	24.15835
	120.9902	24.11715
	120.9509	24.12639
	120.9214	24.10884
	120.904	24.11511
	120.8946	24.09772
	120.8295	24.09349
	120.8304	24.07295
	120.8112	24.06825
	120.7933	24.03424
	120.773	24.01134
	120.7626	24.00727
	120.7461	23.99958
	120.7279	24.00978
	120.7114	24.01103
	120.6975	24.00711
	120.6817	24.01464
	120.6606	24.02452
	120.6438	24.0449
	120.6275	24.06653
	120.6163	24.088
	120.6076	24.0985
	120.5856	24.10586
	120.5506	24.11495
	120.5429	24.12028
	120.5362	24.13156
	120.5224	24.14832
	120.5204	24.16414
	120.5097	24.19029
	120.4876	24.19937
	120.3635	24.18434
	119.2621	23.89086
	118.4768	23.30676
END
END
