US_Arkansas_North
1
	-94.45258	36.49938
	-94.42065	36.49945
	-94.41605	36.49947
	-94.41044	36.49948
	-94.40971	36.50136
	-94.40707	36.50034
	-94.40689	36.4999
	-94.40684	36.49972
	-94.40639	36.49949
	-94.39365	36.49952
	-94.39297	36.50023
	-94.39274	36.50044
	-94.39223	36.50082
	-94.39101	36.50123
	-94.39069	36.50123
	-94.38832	36.50155
	-94.38786	36.50154
	-94.38747	36.5015
	-94.38678	36.50134
	-94.38571	36.49954
	-94.3612	36.4996
	-94.35533	36.49958
	-94.35493	36.49797
	-94.35426	36.49757
	-94.35358	36.49731
	-94.35206	36.49705
	-94.35128	36.49675
	-94.35093	36.49665
	-94.34994	36.49647
	-94.34969	36.49644
	-94.34847	36.49637
	-94.34779	36.49645
	-94.34748	36.49654
	-94.34658	36.4971
	-94.34632	36.49738
	-94.34595	36.49795
	-94.34576	36.49841
	-94.34565	36.49858
	-94.34588	36.49954
	-94.31383	36.49941
	-94.31357	36.50023
	-94.3134	36.50032
	-94.31296	36.50036
	-94.31274	36.50101
	-94.3125	36.50113
	-94.31218	36.50126
	-94.31184	36.50136
	-94.31145	36.50143
	-94.31076	36.50149
	-94.31016	36.50145
	-94.30999	36.50142
	-94.30963	36.50127
	-94.30884	36.50112
	-94.3087	36.50103
	-94.30804	36.50029
	-94.30801	36.50023
	-94.30798	36.49939
	-94.2663	36.49922
	-94.26516	36.50112
	-94.26316	36.50163
	-94.2618	36.50215
	-94.26085	36.50228
	-94.26052	36.50224
	-94.25928	36.50162
	-94.25914	36.50147
	-94.25864	36.49974
	-94.25875	36.49919
	-94.11147	36.4986
	-94.11106	36.49859
	-94.09859	36.49868
	-94.07611	36.49873
	-93.91912	36.49872
	-93.91921	36.49766
	-93.91758	36.49752
	-93.91758	36.49701
	-93.91646	36.49702
	-93.91597	36.49677
	-93.91589	36.49675
	-93.91507	36.49673
	-93.91464	36.49688
	-93.91444	36.49685
	-93.91386	36.49691
	-93.91333	36.49705
	-93.91214	36.49707
	-93.91059	36.49703
	-93.90871	36.49703
	-93.90849	36.49699
	-93.90814	36.49696
	-93.90724	36.49699
	-93.90706	36.49701
	-93.9063	36.49702
	-93.90466	36.49872
	-93.78062	36.49894
	-93.78065	36.49869
	-93.78062	36.49773
	-93.78069	36.49745
	-93.78196	36.49549
	-93.77959	36.49395
	-93.77855	36.49418
	-93.77842	36.49422
	-93.778	36.49439
	-93.77724	36.49508
	-93.77719	36.49515
	-93.77689	36.49596
	-93.77683	36.49591
	-93.77649	36.49572
	-93.77604	36.49553
	-93.77581	36.49547
	-93.77527	36.49539
	-93.77515	36.49539
	-93.77372	36.49599
	-93.77336	36.49638
	-93.77306	36.49626
	-93.77294	36.49623
	-93.77267	36.49619
	-93.77233	36.49617
	-93.77183	36.49619
	-93.77155	36.49622
	-93.77111	36.49631
	-93.77072	36.49637
	-93.77059	36.49624
	-93.77037	36.49606
	-93.76951	36.49546
	-93.769	36.49517
	-93.7689	36.49513
	-93.76825	36.49501
	-93.76811	36.49501
	-93.76758	36.49507
	-93.76745	36.4951
	-93.7669	36.49503
	-93.76645	36.495
	-93.76567	36.49501
	-93.76511	36.49505
	-93.76471	36.49509
	-93.76418	36.49521
	-93.76386	36.49533
	-93.7632	36.49528
	-93.76119	36.4952
	-93.76115	36.49519
	-93.76053	36.49519
	-93.75903	36.49505
	-93.75886	36.49504
	-93.75853	36.49505
	-93.7576	36.49536
	-93.75753	36.4954
	-93.75687	36.49608
	-93.75662	36.49668
	-93.7566	36.49677
	-93.75666	36.49793
	-93.75684	36.49835
	-93.7572	36.49898
	-93.72802	36.49904
	-93.71889	36.49918
	-93.7114	36.49918
	-93.71023	36.4973
	-93.70995	36.49723
	-93.70946	36.49718
	-93.70836	36.49715
	-93.70783	36.49717
	-93.70694	36.49676
	-93.70685	36.49675
	-93.70628	36.49676
	-93.70599	36.49675
	-93.70544	36.4967
	-93.70474	36.49671
	-93.70429	36.49674
	-93.70395	36.49673
	-93.70303	36.49675
	-93.70108	36.49879
	-93.70109	36.49914
	-93.58428	36.4989
	-93.50889	36.49887
	-93.50843	36.49752
	-93.5086	36.49734
	-93.50805	36.49683
	-93.50755	36.49649
	-93.50727	36.49635
	-93.50645	36.49616
	-93.5025	36.49607
	-93.50153	36.49629
	-93.50121	36.49646
	-93.5008	36.49673
	-93.50047	36.49703
	-93.50021	36.49719
	-93.49983	36.49886
	-93.49229	36.49885
	-93.45993	36.49872
	-93.4608	36.49806
	-93.46118	36.49768
	-93.46153	36.49722
	-93.46257	36.49641
	-93.46305	36.49586
	-93.46337	36.49585
	-93.46376	36.49579
	-93.46564	36.49534
	-93.46619	36.4951
	-93.46636	36.49507
	-93.46724	36.49498
	-93.46821	36.49492
	-93.46998	36.49361
	-93.4701	36.49326
	-93.47032	36.49299
	-93.47069	36.49274
	-93.47322	36.4923
	-93.47274	36.48951
	-93.47236	36.48925
	-93.47213	36.48904
	-93.47052	36.48856
	-93.46996	36.48864
	-93.46911	36.48897
	-93.46781	36.48987
	-93.46738	36.49026
	-93.46679	36.491
	-93.46562	36.49113
	-93.46502	36.49127
	-93.46439	36.49152
	-93.46301	36.49186
	-93.46264	36.49187
	-93.46232	36.49183
	-93.46043	36.49261
	-93.46	36.49318
	-93.45979	36.49351
	-93.45888	36.49422
	-93.45851	36.49459
	-93.45817	36.49503
	-93.45727	36.49571
	-93.45686	36.49597
	-93.4568	36.49598
	-93.45659	36.49596
	-93.45612	36.49597
	-93.4555	36.49605
	-93.45464	36.49639
	-93.45435	36.49659
	-93.4537	36.49656
	-93.45276	36.49659
	-93.45197	36.49669
	-93.45169	36.49666
	-93.45122	36.49665
	-93.45082	36.49655
	-93.45057	36.49653
	-93.45025	36.49652
	-93.44999	36.49653
	-93.44966	36.49657
	-93.44947	36.49661
	-93.44873	36.49694
	-93.44856	36.49706
	-93.44842	36.49717
	-93.44809	36.49759
	-93.44723	36.49796
	-93.44752	36.49862
	-93.44715	36.4986
	-93.44714	36.49867
	-93.42699	36.49858
	-93.39608	36.49867
	-93.39472	36.49852
	-93.31519	36.49841
	-93.29811	36.49835
	-93.12597	36.49785
	-93.09774	36.49811
	-93.08899	36.49818
	-93.08872	36.4982
	-93.08763	36.49824
	-93.06951	36.49824
	-93.06845	36.49825
	-92.89434	36.49787
	-92.89406	36.49785
	-92.83888	36.49803
	-92.83862	36.49808
	-92.78517	36.49783
	-92.77433	36.49786
	-92.76205	36.4978
	-92.56424	36.49824
	-92.53074	36.49859
	-92.52855	36.49849
	-92.51684	36.49874
	-92.44413	36.49853
	-92.43426	36.49826
	-92.42038	36.49791
	-92.38493	36.49784
	-92.37516	36.4972
	-92.35028	36.49779
	-92.31841	36.49771
	-92.30929	36.49789
	-92.25945	36.49818
	-92.21875	36.4984
	-92.21863	36.49804
	-92.21792	36.49704
	-92.21761	36.49681
	-92.21643	36.49641
	-92.21411	36.49638
	-92.21408	36.49642
	-92.21404	36.49638
	-92.21393	36.49639
	-92.21302	36.49639
	-92.21147	36.49637
	-92.19953	36.49639
	-92.19953	36.49671
	-92.1975	36.49748
	-92.19784	36.49836
	-92.14006	36.49869
	-92.13993	36.4991
	-92.13971	36.49953
	-92.13933	36.50001
	-92.13924	36.50009
	-92.13874	36.50043
	-92.13856	36.50052
	-92.13772	36.50071
	-92.13602	36.50073
	-92.13086	36.50073
	-92.12848	36.5007
	-92.12522	36.50074
	-92.12038	36.50074
	-92.11981	36.50062
	-92.11631	36.50069
	-92.11595	36.50066
	-92.11552	36.50059
	-92.11442	36.50003
	-92.11425	36.49986
	-92.11409	36.49976
	-92.11241	36.49921
	-92.1119	36.49895
	-92.11173	36.49884
	-92.09836	36.4988
	-92.07493	36.49876
	-92.05718	36.49867
	-92.02885	36.49864
	-92.01937	36.49852
	-91.98875	36.4985
	-91.9858	36.49843
	-91.93641	36.49858
	-91.866	36.49877
	-91.86438	36.49879
	-91.80736	36.49898
	-91.80685	36.49732
	-91.80669	36.49723
	-91.80573	36.497
	-91.80482	36.49701
	-91.80298	36.49697
	-91.80244	36.49698
	-91.80122	36.49707
	-91.79958	36.49895
	-91.78267	36.49908
	-91.76611	36.49911
	-91.72666	36.49921
	-91.68761	36.4994
	-91.68603	36.49937
	-91.67234	36.49946
	-91.64259	36.49934
	-91.63144	36.4992
	-91.60132	36.49934
	-91.59621	36.49916
	-91.55113	36.49916
	-91.54918	36.49717
	-91.54686	36.49716
	-91.54588	36.49721
	-91.54561	36.49716
	-91.54511	36.49714
	-91.54477	36.49714
	-91.54474	36.49715
	-91.54453	36.49712
	-91.54407	36.49715
	-91.5438	36.49721
	-91.54224	36.49723
	-91.54034	36.49722
	-91.53953	36.49724
	-91.53951	36.49723
	-91.53949	36.49773
	-91.53802	36.49751
	-91.53778	36.49914
	-91.53687	36.49916
	-91.52977	36.49902
	-91.50014	36.49881
	-91.47892	36.49828
	-91.44995	36.4977
	-91.44838	36.49769
	-91.44788	36.49577
	-91.44659	36.49611
	-91.4466	36.49565
	-91.44635	36.49565
	-91.44567	36.49562
	-91.44564	36.49561
	-91.44472	36.49559
	-91.44296	36.49558
	-91.4412	36.49553
	-91.43724	36.49539
	-91.43373	36.49529
	-91.43334	36.49532
	-91.4329	36.49539
	-91.43297	36.49539
	-91.4351	36.49725
	-91.43324	36.49938
	-91.43288	36.4994
	-91.43002	36.49931
	-91.42914	36.49932
	-91.42643	36.49929
	-91.42501	36.49925
	-91.42426	36.4992
	-91.42387	36.49921
	-91.42161	36.49913
	-91.4212	36.49913
	-91.41947	36.49918
	-91.41775	36.49916
	-91.41718	36.49917
	-91.41662	36.49914
	-91.41613	36.49914
	-91.4155	36.49912
	-91.41331	36.49913
	-91.41155	36.49912
	-91.41099	36.49914
	-91.41062	36.49912
	-91.41015	36.49913
	-91.40945	36.49911
	-91.40924	36.49909
	-91.40866	36.49914
	-91.4083	36.49915
	-91.40765	36.49913
	-91.4071	36.49908
	-91.40545	36.49714
	-91.40524	36.49715
	-91.40502	36.4971
	-91.23294	36.49759
	-91.2275	36.4976
	-91.21875	36.49755
	-91.21746	36.4975
	-91.17258	36.49759
	-91.12663	36.4977
	-91.09638	36.49788
	-91.09598	36.49785
	-91.02532	36.49803
	-91.0238	36.49606
	-91.02355	36.49603
	-91.02094	36.4954
	-91.02043	36.49535
	-91.01988	36.49536
	-91.01925	36.49548
	-91.0173	36.49618
	-91.00854	36.49627
	-91.00659	36.49826
	-90.96219	36.49841
	-90.87932	36.49836
	-90.87812	36.49839
	-90.87726	36.49645
	-90.87627	36.49607
	-90.8759	36.49597
	-90.87547	36.4959
	-90.87459	36.49594
	-90.87422	36.49604
	-90.87363	36.4961
	-90.87268	36.49615
	-90.85455	36.49643
	-90.85243	36.49649
	-90.85243	36.49413
	-90.85036	36.49213
	-90.84599	36.49229
	-90.84407	36.49437
	-90.84614	36.49629
	-90.84843	36.49621
	-90.84843	36.49853
	-90.78345	36.49853
	-90.78256	36.49851
	-90.76578	36.49848
	-90.71319	36.49831
	-90.71124	36.49632
	-90.70214	36.49627
	-90.69789	36.4965
	-90.693	36.49651
	-90.69103	36.49849
	-90.65335	36.49847
	-90.6486	36.49843
	-90.61266	36.49854
	-90.60744	36.49847
	-90.60745	36.49846
	-90.60545	36.49646
	-90.59972	36.49646
	-90.59345	36.49641
	-90.5893	36.4965
	-90.58506	36.49657
	-90.58322	36.49847
	-90.57622	36.49843
	-90.50026	36.49838
	-90.49513	36.49836
	-90.49496	36.49835
	-90.34	36.4982
	-90.22905	36.49776
	-90.2208	36.49784
	-90.21743	36.49778
	-90.19405	36.49781
	-90.15258	36.49794
	-90.15451	36.49682
	-90.15397	36.49533
	-90.15511	36.49363
	-90.15746	36.49421
	-90.15915	36.49372
	-90.15929	36.4925
	-90.15931	36.49245
	-90.15857	36.49157
	-90.156	36.49039
	-90.15637	36.48775
	-90.15946	36.48761
	-90.15931	36.48583
	-90.15714	36.48432
	-90.15946	36.48134
	-90.15938	36.48008
	-90.15884	36.47956
	-90.14833	36.47617
	-90.14538	36.47651
	-90.14368	36.47603
	-90.14227	36.47214
	-90.14222	36.47055
	-90.14633	36.46952
	-90.15289	36.47093
	-90.1557	36.4661
	-90.1558	36.46355
	-90.14462	36.46279
	-90.14316	36.46368
	-90.14247	36.46342
	-90.14153	36.46299
	-90.1411	36.46179
	-90.14157	36.46077
	-90.1414	36.45987
	-90.14004	36.45788
	-90.13732	36.45541
	-90.13603	36.44294
	-90.13399	36.43791
	-90.13414	36.4366
	-90.13756	36.43191
	-90.13904	36.43127
	-90.14272	36.43116
	-90.1438	36.42848
	-90.14414	36.42581
	-90.14374	36.42443
	-90.1395	36.42146
	-90.13777	36.42121
	-90.13559	36.4229
	-90.1348	36.42324
	-90.13423	36.42283
	-90.13491	36.4169
	-90.13622	36.41535
	-90.13865	36.41455
	-90.13851	36.41395
	-90.135	36.41372
	-90.13104	36.41507
	-90.12872	36.41166
	-90.12144	36.41093
	-90.11584	36.40823
	-90.11468	36.40604
	-90.10949	36.40407
	-90.10364	36.40472
	-90.09435	36.40396
	-90.08043	36.40076
	-90.07867	36.39912
	-90.07669	36.39587
	-90.07423	36.3933
	-90.0729	36.39301
	-90.06891	36.38866
	-90.06451	36.38208
	-90.06389	36.37298
	-90.0663	36.3593
	-90.07065	36.3561
	-90.07538	36.35015
	-90.07772	36.34948
	-90.07769	36.34848
	-90.07467	36.34479
	-90.07407	36.34289
	-90.07421	36.34275
	-90.07506	36.34177
	-90.07718	36.34134
	-90.07823	36.33651
	-90.07588	36.33518
	-90.07557	36.33404
	-90.07701	36.33075
	-90.07888	36.32798
	-90.08142	36.32564
	-90.08196	36.3221
	-90.07998	36.31862
	-90.07908	36.31841
	-90.0773	36.31933
	-90.0765	36.31924
	-90.06927	36.31315
	-90.06398	36.30304
	-90.07008	36.29471
	-90.0778	36.28835
	-90.07593	36.28149
	-90.08373	36.27233
	-90.08647	36.27153
	-90.09125	36.27126
	-90.10017	36.26899
	-90.10523	36.26684
	-90.11032	36.26697
	-90.11294	36.26656
	-90.11492	36.26559
	-90.11822	36.25349
	-90.12448	36.2442
	-90.12596	36.24342
	-90.12972	36.24323
	-90.13056	36.24209
	-90.13011	36.24031
	-90.12726	36.23635
	-90.12466	36.23555
	-90.12467	36.23379
	-90.12637	36.22937
	-90.13236	36.22644
	-90.13478	36.2264
	-90.13809	36.22725
	-90.14224	36.22752
	-90.15142	36.21917
	-90.1525	36.21558
	-90.15614	36.21371
	-90.15738	36.21382
	-90.15941	36.21542
	-90.16117	36.21577
	-90.16774	36.21332
	-90.17328	36.2103
	-90.17969	36.20826
	-90.18285	36.20511
	-90.18579	36.20467
	-90.18819	36.20536
	-90.19005	36.20149
	-90.19302	36.20044
	-90.19426	36.20069
	-90.19525	36.20026
	-90.19717	36.196
	-90.1999	36.19685
	-90.20165	36.19607
	-90.20171	36.19319
	-90.20058	36.19218
	-90.20445	36.18694
	-90.21128	36.18339
	-90.21351	36.18323
	-90.21574	36.18458
	-90.22042	36.18476
	-90.22934	36.17364
	-90.23128	36.16925
	-90.23032	36.16707
	-90.23537	36.15915
	-90.23144	36.15387
	-90.23139	36.14735
	-90.23558	36.13947
	-90.23578	36.1394
	-90.24089	36.13732
	-90.24432	36.1365
	-90.24596	36.13286
	-90.24881	36.12983
	-90.2532	36.12738
	-90.2556	36.12709
	-90.25875	36.12759
	-90.26064	36.12741
	-90.26626	36.12056
	-90.27238	36.11809
	-90.27872	36.11741
	-90.29311	36.11437
	-90.29449	36.11295
	-90.29841	36.10675
	-90.29788	36.10483
	-90.29799	36.1032
	-90.29991	36.09824
	-90.30625	36.09476
	-90.31237	36.09451
	-90.31917	36.08998
	-90.32066	36.08714
	-90.32007	36.08123
	-90.31874	36.07931
	-90.31838	36.07666
	-90.31849	36.07551
	-90.32075	36.07133
	-90.33326	36.0675
	-90.33547	36.06171
	-90.33715	36.04775
	-90.33934	36.04711
	-90.34791	36.04194
	-90.34909	36.04013
	-90.3483	36.03507
	-90.35097	36.03157
	-90.35182	36.02844
	-90.35131	36.02688
	-90.35173	36.02535
	-90.35739	36.01825
	-90.36443	36.01362
	-90.37789	35.99568
	-90.36872	35.99581
	-90.3447	35.99589
	-90.34479	35.99578
	-90.34265	35.99393
	-90.34192	35.99396
	-90.33964	35.99398
	-90.33921	35.99401
	-90.33898	35.99405
	-90.33883	35.99409
	-90.3376	35.99605
	-90.2888	35.99642
	-90.15881	35.99737
	-90.12733	35.99764
	-90.12635	35.9976
	-90.10384	35.99814
	-89.97256	35.99899
	-89.9669	35.99885
	-89.96486	35.99703
	-89.96442	35.99707
	-89.96417	35.99712
	-89.96364	35.99712
	-89.96364	35.99715
	-89.96302	35.99686
	-89.96148	35.9971
	-89.96094	35.9972
	-89.96037	35.99733
	-89.96008	35.99742
	-89.95985	35.99751
	-89.95942	35.9977
	-89.95918	35.99784
	-89.95881	35.99808
	-89.95856	35.99827
	-89.95813	35.99868
	-89.95786	35.99903
	-89.90118	35.99936
	-89.89651	35.99943
	-89.87559	35.99956
	-89.87508	35.99958
	-89.86901	35.99964
	-89.77025	36.00052
	-89.76997	36.00054
	-89.73765	36.00057
	-89.73756	36.00052
	-89.73309	36.00061
	-89.73122	35.99688
	-89.72844	35.99357
	-89.71993	35.98663
	-89.71933	35.98597
	-89.71902	35.98508
	-89.7189	35.98399
	-89.71997	35.97462
	-89.71968	35.97094
	-89.7188	35.96828
	-89.71456	35.96303
	-89.71023	35.95983
	-89.69987	35.95406
	-89.68692	35.94772
	-89.67662	35.94054
	-89.67112	35.93579
	-89.65615	35.92581
	-89.65228	35.92146
	-89.65034	35.91779
	-89.64671	35.90801
	-89.64484	35.90435
	-89.64334	35.90155
	-89.64266	35.8993
	-89.64225	35.89626
	-89.6423	35.89432
	-89.64291	35.89197
	-89.64477	35.88846
	-89.64775	35.88489
	-89.65089	35.88231
	-89.65825	35.87816
	-89.66189	35.87624
	-89.66544	35.87549
	-89.66765	35.87527
	-89.67013	35.87549
	-89.6729	35.87622
	-89.67876	35.8789
	-89.68149	35.88092
	-89.68493	35.88357
	-89.69166	35.89069
	-89.69385	35.89253
	-89.6964	35.89403
	-89.69864	35.89489
	-89.70907	35.8987
	-89.71244	35.90014
	-89.71727	35.90328
	-89.72058	35.90481
	-89.72853	35.90789
	-89.73249	35.90905
	-89.73529	35.90957
	-89.73752	35.90974
	-89.73922	35.90971
	-89.74135	35.90932
	-89.74441	35.90804
	-89.75074	35.9041
	-89.75841	35.89856
	-89.76295	35.8945
	-89.76569	35.8913
	-89.76874	35.88666
	-89.77173	35.87972
	-89.77285	35.87624
	-89.77356	35.8717
	-89.77329	35.86743
	-89.77247	35.8651
	-89.76941	35.86156
	-89.76434	35.85831
	-89.74942	35.85296
	-89.72952	35.84763
	-89.70926	35.83891
	-89.70435	35.83573
	-89.70288	35.83415
	-89.70141	35.83098
	-89.70104	35.82823
	-89.70175	35.82424
	-89.70387	35.82028
	-89.70527	35.81851
	-89.70802	35.81593
	-89.7141	35.81118
	-89.71783	35.80857
	-89.72828	35.80361
	-89.72995	35.80325
	-89.73122	35.80347
	-89.73303	35.80404
	-89.73477	35.805
	-89.73628	35.80603
	-89.73725	35.80613
	-89.7395	35.80586
	-89.74095	35.8057
	-89.74302	35.80582
	-89.75787	35.81041
	-89.76544	35.81121
	-89.76546	35.80951
	-89.78179	35.80508
	-89.79632	35.79281
	-89.79933	35.7885
	-89.79705	35.78265
	-89.79723	35.78012
	-89.79925	35.77544
	-89.80928	35.76438
	-89.81289	35.76115
	-89.81446	35.75994
	-89.82122	35.75672
	-89.82492	35.75572
	-89.83289	35.75491
	-89.84634	35.75573
	-89.85771	35.75008
	-89.86387	35.74759
	-89.87284	35.7413
	-89.87726	35.74137
	-89.88353	35.74498
	-89.88816	35.75008
	-89.90554	35.75906
	-89.91	35.7594
	-89.91313	35.7573
	-89.91551	35.75489
	-89.95028	35.73849
	-89.95398	35.73616
	-89.95625	35.73339
	-89.95869	35.72771
	-89.95888	35.72383
	-89.95693	35.71168
	-89.95659	35.69549
	-89.95575	35.69062
	-89.9533	35.68642
	-89.95016	35.68243
	-89.9427	35.67512
	-89.93738	35.66571
	-89.93104	35.66004
	-89.92275	35.65529
	-89.91543	35.65278
	-89.90615	35.65114
	-89.89892	35.6509
	-89.89051	35.65241
	-89.88698	35.65364
	-89.88493	35.65511
	-89.88289	35.65746
	-89.87853	35.66482
	-89.87716	35.66614
	-89.87208	35.66849
	-89.86478	35.67039
	-89.86128	35.67006
	-89.85893	35.66906
	-89.85351	35.66303
	-89.85118	35.65743
	-89.85086	35.65021
	-89.85182	35.64426
	-89.85389	35.63826
	-89.85662	35.63444
	-89.86387	35.63079
	-89.87655	35.62665
	-89.88463	35.62161
	-89.89255	35.61635
	-89.89435	35.61554
	-89.897	35.61488
	-89.89979	35.61506
	-89.90603	35.61615
	-89.91069	35.61754
	-89.91217	35.61706
	-89.91962	35.61224
	-89.9325	35.60786
	-89.9454	35.60161
	-89.95115	35.59749
	-89.95414	35.59426
	-89.95675	35.59051
	-89.9579	35.58726
	-89.95792	35.5855
	-89.95669	35.58143
	-89.9542	35.57605
	-89.94691	35.56358
	-89.94475	35.56031
	-89.94139	35.55656
	-89.9291	35.55154
	-89.92414	35.55056
	-89.91742	35.55031
	-89.91418	35.54971
	-89.91079	35.54751
	-89.91004	35.54452
	-89.91036	35.54332
	-89.9114	35.54094
	-89.91294	35.53787
	-89.9134	35.53685
	-89.91345	35.53604
	-89.91273	35.53565
	-89.91078	35.53614
	-89.90954	35.53673
	-89.90558	35.53677
	-89.90439	35.5357
	-89.90398	35.53474
	-89.904	35.53331
	-89.90745	35.52358
	-89.90766	35.52294
	-89.90902	35.52055
	-89.91193	35.51741
	-89.9154	35.51512
	-89.91933	35.51387
	-89.92316	35.51443
	-89.93361	35.51854
	-89.94503	35.51939
	-89.94766	35.52002
	-89.95125	35.52187
	-89.95635	35.52559
	-89.95771	35.52719
	-89.95774	35.53012
	-89.95578	35.53321
	-89.95564	35.53452
	-89.95671	35.53937
	-89.9585	35.5417
	-89.97631	35.55387
	-89.98936	35.56004
	-89.99297	35.56077
	-89.999	35.56116
	-90.00829	35.56007
	-90.01126	35.55911
	-90.01731	35.556
	-90.0239	35.55634
	-90.02862	35.55525
	-90.03294	35.55344
	-90.03761	35.55033
	-90.03974	35.54804
	-90.04196	35.53747
	-90.04475	35.53166
	-90.04623	35.52959
	-90.04909	35.52226
	-90.05028	35.51528
	-90.04828	35.50403
	-90.04683	35.50088
	-90.04599	35.4986
	-90.04457	35.49522
	-90.04332	35.49326
	-90.03895	35.48692
	-90.03601	35.48341
	-90.03145	35.4797
	-90.02859	35.47771
	-90.02618	35.47637
	-90.02209	35.47465
	-90.01954	35.47291
	-90.01661	35.46941
	-90.01365	35.46524
	-90.01304	35.46437
	-90.00945	35.45855
	-90.00717	35.45416
	-90.00583	35.4505
	-90.0037	35.44161
	-90.00276	35.43473
	-90.00264	35.42995
	-90.01244	35.42416
	-90.01565	35.42242
	-90.02017	35.4214
	-90.02238	35.42128
	-90.02951	35.42164
	-90.0327	35.42101
	-90.03711	35.41941
	-90.04183	35.41699
	-90.0517	35.40875
	-90.062	35.39875
	-90.06956	35.40807
	-90.06202	35.41518
	-90.07055	35.42329
	-90.07408	35.43398
	-90.07406	35.43961
	-90.07133	35.45034
	-90.06721	35.46096
	-90.06714	35.46483
	-90.0678	35.46622
	-90.07215	35.47075
	-90.08013	35.47684
	-90.08501	35.47883
	-90.09872	35.47859
	-90.10176	35.47689
	-90.10776	35.47692
	-90.11441	35.47247
	-90.11839	35.46879
	-90.12062	35.46574
	-90.12314	35.45985
	-90.12945	35.44193
	-90.169	35.42185
	-90.1706	35.41835
	-90.1707	35.41007
	-90.17926	35.38519
	-90.17834	35.38209
	-90.17239	35.37768
	-90.16625	35.37474
	-90.14492	35.37463
	-90.13551	35.37667
	-90.14347	35.3876
	-90.14587	35.39508
	-90.14619	35.39947
	-90.14508	35.40376
	-90.14345	35.40667
	-90.14166	35.40856
	-90.13788	35.41151
	-90.13512	35.41298
	-90.13047	35.41374
	-90.1169	35.41169
	-90.1125	35.41015
	-90.11054	35.40859
	-90.10677	35.40334
	-90.10484	35.40149
	-90.09665	35.39526
	-90.09359	35.39333
	-90.08774	35.39084
	-90.08066	35.38579
	-90.08958	35.37039
	-90.09174	35.36617
	-90.09275	35.36054
	-90.09349	35.36049
	-90.09682	35.35722
	-90.10029	35.35162
	-90.10731	35.34314
	-90.10882	35.34259
	-90.11029	35.34279
	-90.10386	35.33241
	-90.10682	35.32462
	-90.10909	35.30499
	-90.11722	35.30338
	-90.12186	35.30454
	-90.12371	35.30453
	-90.13239	35.30049
	-90.1395	35.29883
	-90.14979	35.30329
	-90.15339	35.30259
	-90.15891	35.30064
	-90.16122	35.29895
	-90.16381	35.29612
	-90.16519	35.29319
	-90.16887	35.282
	-90.16879	35.27909
	-90.16659	35.27459
	-90.16646	35.27437
	-90.29663	35.2658
	-90.65643	35.13114
	-90.85693	35.08396
	-91.08215	34.97375
	-91.42548	34.93773
	-91.70837	34.93773
	-92.0311	34.92197
	-92.14371	34.93999
	-92.35931	34.94674
	-92.51862	34.93098
	-92.6326	34.84311
	-92.79739	34.73371
	-93.00339	34.69307
	-93.24646	34.59252
	-93.47443	34.45109
	-93.98804	34.4205
	-94.46272	34.45259
	-94.46006	34.54526
	-94.46005	34.54787
	-94.45756	34.6328
	-94.45788	34.63287
	-94.45843	34.63311
	-94.45851	34.63316
	-94.45916	34.63382
	-94.45937	34.63423
	-94.4594	34.63432
	-94.45953	34.63501
	-94.45945	34.63626
	-94.45935	34.63738
	-94.45923	34.64087
	-94.45929	34.6413
	-94.4593	34.64153
	-94.45945	34.64188
	-94.45958	34.64225
	-94.45968	34.64282
	-94.45949	34.64389
	-94.45946	34.64397
	-94.45892	34.64465
	-94.45871	34.64483
	-94.45854	34.64464
	-94.45744	34.64486
	-94.45577	34.69418
	-94.45023	34.85541
	-94.45017	34.8575
	-94.45014	34.85871
	-94.45094	34.85842
	-94.45166	34.8604
	-94.45204	34.86042
	-94.45192	34.86303
	-94.45191	34.86482
	-94.45197	34.86552
	-94.45197	34.86583
	-94.45186	34.8673
	-94.4518	34.86982
	-94.45182	34.86986
	-94.4518	34.87081
	-94.45166	34.8754
	-94.4496	34.87733
	-94.44955	34.87728
	-94.44906	34.89056
	-94.44907	34.8924
	-94.45051	34.89389
	-94.45066	34.89377
	-94.45074	34.89388
	-94.45095	34.8942
	-94.45099	34.89438
	-94.45101	34.89441
	-94.45101	34.89451
	-94.45121	34.89542
	-94.45118	34.89566
	-94.45109	34.89608
	-94.45093	34.89648
	-94.45088	34.89667
	-94.45069	34.89716
	-94.4501	34.89784
	-94.45003	34.89789
	-94.44949	34.89817
	-94.44917	34.89823
	-94.44827	34.92329
	-94.44871	34.92345
	-94.44959	34.92372
	-94.44992	34.92384
	-94.45123	34.92555
	-94.45124	34.92563
	-94.44986	34.92771
	-94.44975	34.92774
	-94.44925	34.92782
	-94.44905	34.92832
	-94.44888	34.92861
	-94.44867	34.92958
	-94.44856	34.92979
	-94.44832	34.93017
	-94.44821	34.93039
	-94.44801	34.93069
	-94.44153	35.11132
	-94.44192	35.11242
	-94.44243	35.11449
	-94.44256	35.11542
	-94.44271	35.11735
	-94.4431	35.1204
	-94.44315	35.12243
	-94.44288	35.12815
	-94.44262	35.12904
	-94.44249	35.12928
	-94.44223	35.12964
	-94.44101	35.13099
	-94.44068	35.13143
	-94.43955	35.16904
	-94.43951	35.17181
	-94.43886	35.18718
	-94.43906	35.19359
	-94.43908	35.19656
	-94.43992	35.19647
	-94.44023	35.19928
	-94.43996	35.19959
	-94.43996	35.19972
	-94.43999	35.19989
	-94.44017	35.20033
	-94.44044	35.20059
	-94.44069	35.20087
	-94.4409	35.20107
	-94.44112	35.20131
	-94.44131	35.20155
	-94.44158	35.20202
	-94.44206	35.20313
	-94.44219	35.2035
	-94.44269	35.20566
	-94.4426	35.20636
	-94.44262	35.20645
	-94.44263	35.20739
	-94.44256	35.20766
	-94.44171	35.20887
	-94.44124	35.20917
	-94.44106	35.20927
	-94.44016	35.20973
	-94.44014	35.21071
	-94.44003	35.21132
	-94.43995	35.21156
	-94.43978	35.2115
	-94.43818	35.21292
	-94.43758	35.23094
	-94.43777	35.23927
	-94.43758	35.2422
	-94.43659	35.25009
	-94.43571	35.27427
	-94.43532	35.27589
	-94.4353	35.28029
	-94.43534	35.28065
	-94.43528	35.28748
	-94.43517	35.29149
	-94.43411	35.30649
	-94.43181	35.36289
	-94.43201	35.36739
	-94.43151	35.36959
	-94.43341	35.37629
	-94.43268	35.38081
	-94.43391	35.38739
	-94.43349	35.38849
	-94.43121	35.39429
	-94.4497	35.49672
	-94.46332	35.58266
	-94.4641	35.58727
	-94.46425	35.58795
	-94.46428	35.5879
	-94.46655	35.58959
	-94.46665	35.59029
	-94.4668	35.59098
	-94.46683	35.59126
	-94.46693	35.59173
	-94.46702	35.59242
	-94.46719	35.59244
	-94.46746	35.59237
	-94.46769	35.59235
	-94.46788	35.59236
	-94.46809	35.59231
	-94.46814	35.59227
	-94.46842	35.59212
	-94.46887	35.59191
	-94.46901	35.59183
	-94.46914	35.59203
	-94.47147	35.59177
	-94.47179	35.59458
	-94.47163	35.59478
	-94.47153	35.59488
	-94.4711	35.59524
	-94.47086	35.59539
	-94.47022	35.5957
	-94.46968	35.596
	-94.46914	35.59618
	-94.46901	35.5962
	-94.46818	35.59639
	-94.46792	35.59639
	-94.46782	35.59642
	-94.46759	35.59645
	-94.4672	35.59648
	-94.46674	35.59644
	-94.46653	35.59639
	-94.46602	35.59633
	-94.46565	35.59632
	-94.47265	35.63856
	-94.47682	35.66272
	-94.47644	35.66307
	-94.4762	35.66291
	-94.476	35.66321
	-94.47573	35.6637
	-94.47551	35.66433
	-94.47542	35.66488
	-94.47541	35.66547
	-94.47549	35.66604
	-94.47557	35.66639
	-94.47572	35.66685
	-94.47574	35.66696
	-94.47576	35.66759
	-94.4759	35.66885
	-94.47591	35.66908
	-94.47635	35.67029
	-94.47651	35.67048
	-94.47716	35.67101
	-94.47766	35.67125
	-94.47828	35.67153
	-94.47835	35.67155
	-94.47842	35.67199
	-94.47855	35.67185
	-94.4793	35.67177
	-94.47991	35.6718
	-94.48032	35.67189
	-94.48096	35.67215
	-94.48135	35.67238
	-94.48185	35.67273
	-94.48226	35.67311
	-94.48271	35.67367
	-94.48312	35.67407
	-94.48341	35.67444
	-94.48382	35.67595
	-94.4838	35.67619
	-94.48347	35.67714
	-94.48296	35.67791
	-94.48246	35.67857
	-94.48237	35.67872
	-94.48216	35.67957
	-94.48214	35.67978
	-94.48226	35.68055
	-94.48234	35.68148
	-94.48237	35.68206
	-94.48245	35.6824
	-94.4826	35.68284
	-94.48277	35.68347
	-94.48283	35.68411
	-94.4828	35.68454
	-94.48295	35.68568
	-94.483	35.68581
	-94.48323	35.68625
	-94.48335	35.68639
	-94.48361	35.68664
	-94.48418	35.6877
	-94.48423	35.68796
	-94.48407	35.68918
	-94.48397	35.68939
	-94.4835	35.68989
	-94.4837	35.6904
	-94.48387	35.69092
	-94.48397	35.69167
	-94.48395	35.69204
	-94.48361	35.69306
	-94.48351	35.69321
	-94.48213	35.69346
	-94.48292	35.69801
	-94.48452	35.70683
	-94.48602	35.71603
	-94.48589	35.71628
	-94.48547	35.71682
	-94.48505	35.71798
	-94.48502	35.71888
	-94.48511	35.71952
	-94.48531	35.72016
	-94.48603	35.72119
	-94.48637	35.72143
	-94.48628	35.72294
	-94.48615	35.72324
	-94.48572	35.72406
	-94.48553	35.72456
	-94.48545	35.72486
	-94.48537	35.7256
	-94.48538	35.72582
	-94.48373	35.72771
	-94.48339	35.72824
	-94.48322	35.72863
	-94.48306	35.72933
	-94.48299	35.73091
	-94.4827	35.73186
	-94.4817	35.73375
	-94.48155	35.73411
	-94.48144	35.73447
	-94.48136	35.73523
	-94.48139	35.7356
	-94.48059	35.73624
	-94.48029	35.73654
	-94.47956	35.73743
	-94.47912	35.73896
	-94.47918	35.73939
	-94.47969	35.74048
	-94.47986	35.74067
	-94.48093	35.74128
	-94.48183	35.74146
	-94.48223	35.7415
	-94.48265	35.7415
	-94.48293	35.74148
	-94.48419	35.74183
	-94.48473	35.74191
	-94.48498	35.74191
	-94.48625	35.74146
	-94.48661	35.74116
	-94.48731	35.74001
	-94.48756	35.73877
	-94.48757	35.73805
	-94.48749	35.73754
	-94.4873	35.73696
	-94.48727	35.73691
	-94.48737	35.73564
	-94.48731	35.73541
	-94.48761	35.73519
	-94.48791	35.73492
	-94.48813	35.73467
	-94.48841	35.73403
	-94.48864	35.73372
	-94.48879	35.73333
	-94.48888	35.73326
	-94.49084	35.74492
	-94.49162	35.75008
	-94.49164	35.75061
	-94.49293	35.75805
	-94.49387	35.7633
	-94.495	35.77022
	-94.49562	35.77368
	-94.49698	35.78153
	-94.4987	35.79162
	-94.49965	35.79691
	-94.50027	35.80099
	-94.49861	35.80316
	-94.49871	35.80385
	-94.49882	35.80429
	-94.50104	35.80565
	-94.50116	35.80643
	-94.50276	35.81572
	-94.50295	35.81552
	-94.50458	35.81703
	-94.5048	35.81691
	-94.50491	35.81712
	-94.5051	35.81768
	-94.5062	35.82423
	-94.50623	35.82445
	-94.50625	35.82486
	-94.50624	35.82499
	-94.50633	35.82557
	-94.50638	35.82555
	-94.50641	35.82562
	-94.50636	35.82564
	-94.50648	35.82587
	-94.5065	35.82605
	-94.50598	35.8261
	-94.50625	35.82745
	-94.50467	35.82777
	-94.50564	35.83363
	-94.50763	35.8459
	-94.51757	35.90187
	-94.51877	35.90951
	-94.51708	35.91153
	-94.51709	35.91174
	-94.51715	35.91211
	-94.51723	35.9128
	-94.51733	35.9134
	-94.51752	35.91476
	-94.51759	35.91511
	-94.5176	35.91536
	-94.51764	35.91567
	-94.51767	35.91581
	-94.51852	35.91705
	-94.51857	35.91709
	-94.51864	35.9171
	-94.51884	35.91774
	-94.51889	35.91783
	-94.52012	35.91873
	-94.52025	35.9189
	-94.52266	35.93425
	-94.52266	35.9348
	-94.52263	35.93489
	-94.52291	35.93613
	-94.52434	35.94405
	-94.52816	35.96567
	-94.5283	35.96605
	-94.53207	35.98785
	-94.53386	35.99692
	-94.53437	36.00008
	-94.53457	36.00061
	-94.53485	36.00268
	-94.53521	36.0048
	-94.53537	36.00547
	-94.53578	36.00789
	-94.53637	36.01164
	-94.53726	36.017
	-94.54101	36.03865
	-94.5411	36.03904
	-94.54387	36.05486
	-94.54402	36.05494
	-94.54413	36.05528
	-94.54415	36.05548
	-94.54404	36.05561
	-94.544	36.05563
	-94.54592	36.0669
	-94.54774	36.07742
	-94.54787	36.07828
	-94.54922	36.08542
	-94.55179	36.10008
	-94.55248	36.10386
	-94.55409	36.11295
	-94.55496	36.11775
	-94.55594	36.12332
	-94.55612	36.12508
	-94.55671	36.12898
	-94.55693	36.13005
	-94.55927	36.14292
	-94.55968	36.14387
	-94.56116	36.15211
	-94.56154	36.15446
	-94.5617	36.15428
	-94.56377	36.15622
	-94.56377	36.1563
	-94.56434	36.15961
	-94.5647	36.16153
	-94.5653	36.16495
	-94.56567	36.16691
	-94.56619	36.16998
	-94.56697	36.17438
	-94.5671	36.1752
	-94.56721	36.17606
	-94.56779	36.17903
	-94.56816	36.18113
	-94.56846	36.18294
	-94.56851	36.18337
	-94.56847	36.18415
	-94.56841	36.18439
	-94.56835	36.18459
	-94.56823	36.1849
	-94.56812	36.18513
	-94.56689	36.18558
	-94.56716	36.18712
	-94.56752	36.18933
	-94.56809	36.19249
	-94.57125	36.2109
	-94.57181	36.21375
	-94.57439	36.23
	-94.57485	36.23256
	-94.57714	36.23422
	-94.578	36.23948
	-94.57802	36.2398
	-94.57802	36.24019
	-94.57704	36.24191
	-94.57694	36.24198
	-94.57642	36.24215
	-94.5779	36.24955
	-94.57788	36.25008
	-94.5862	36.29997
	-94.59138	36.33289
	-94.592	36.33339
	-94.59228	36.33366
	-94.59255	36.33399
	-94.59291	36.33463
	-94.59304	36.335
	-94.59314	36.33582
	-94.59311	36.3362
	-94.59287	36.33699
	-94.59268	36.33735
	-94.5922	36.33794
	-94.59217	36.33796
	-94.59309	36.34379
	-94.59306	36.34377
	-94.59143	36.34608
	-94.59229	36.3512
	-94.59245	36.35287
	-94.59255	36.35303
	-94.59276	36.35493
	-94.59297	36.35642
	-94.59328	36.35851
	-94.59342	36.35928
	-94.59346	36.35965
	-94.59391	36.3625
	-94.5939	36.36268
	-94.59392	36.36312
	-94.59435	36.36577
	-94.59442	36.36589
	-94.59444	36.36637
	-94.5945	36.36679
	-94.59467	36.36747
	-94.59576	36.37494
	-94.59585	36.37542
	-94.59632	36.37847
	-94.59701	36.38333
	-94.5976	36.38334
	-94.59825	36.38339
	-94.59862	36.38345
	-94.59912	36.38358
	-94.59961	36.38379
	-94.59999	36.38401
	-94.60018	36.38413
	-94.60046	36.38434
	-94.60082	36.38468
	-94.60103	36.38494
	-94.6014	36.38566
	-94.60153	36.38618
	-94.60248	36.39235
	-94.60281	36.3943
	-94.60321	36.3968
	-94.60358	36.3993
	-94.60405	36.40219
	-94.60402	36.40301
	-94.60394	36.40334
	-94.60398	36.40404
	-94.60397	36.40438
	-94.60395	36.40457
	-94.60389	36.40487
	-94.6038	36.40521
	-94.60349	36.40609
	-94.60323	36.40668
	-94.60294	36.40719
	-94.60507	36.41993
	-94.60531	36.41992
	-94.60572	36.41996
	-94.60586	36.41999
	-94.60743	36.42235
	-94.60565	36.42352
	-94.61161	36.46153
	-94.61383	36.47625
	-94.61531	36.48499
	-94.61755	36.49772
	-94.61598	36.49923
	-94.59427	36.49945
	-94.56124	36.49949
	-94.56129	36.49955
	-94.55924	36.5015
	-94.55805	36.50146
	-94.55467	36.50145
	-94.54906	36.50147
	-94.5475	36.50146
	-94.54449	36.50137
	-94.53765	36.50135
	-94.53732	36.50133
	-94.53707	36.50129
	-94.52843	36.50127
	-94.52396	36.50122
	-94.52202	36.49923
	-94.51948	36.49921
	-94.45258	36.49938
END
END
