US_California_Bakersfield_Bakersfield
1
	-118.6621	34.65515
	-118.8236	34.58252
	-119.4489	34.53894
	-119.6977	34.51681
	-119.9157	34.52723
	-120.1448	34.51877
	-120.9702	33.96964
	-122.6263	35.40943
	-121.6832	35.79929
	-120.2986	35.81032
	-118.7887	35.82235
	-118.8069	35.61735
	-118.7964	35.59926
	-118.7959	35.59937
	-118.7956	35.59917
	-118.7949	35.59902
	-118.7944	35.59887
	-118.7939	35.59864
	-118.7935	35.59838
	-118.793	35.59793
	-118.7925	35.59731
	-118.7922	35.59682
	-118.792	35.59611
	-118.792	35.59558
	-118.7921	35.59458
	-118.7926	35.59349
	-118.7928	35.59311
	-118.7251	35.47694
	-118.7261	35.47493
	-118.726	35.4748
	-118.726	35.47468
	-118.7247	35.47289
	-118.7244	35.47278
	-118.7239	35.47266
	-118.7232	35.47262
	-118.7225	35.47248
	-118.706	35.44412
	-118.6256	35.36187
	-118.598	35.22031
	-118.6536	35.17258
	-118.6541	35.17284
	-118.6543	35.1729
	-118.6545	35.17302
	-118.6547	35.17307
	-118.655	35.17317
	-118.6554	35.17327
	-118.6559	35.17335
	-118.6563	35.17338
	-118.6568	35.17338
	-118.6576	35.17329
	-118.6578	35.17323
	-118.658	35.1732
	-118.6583	35.17311
	-118.6585	35.17303
	-118.6587	35.17292
	-118.6589	35.17283
	-118.6591	35.17276
	-118.6594	35.17259
	-118.6595	35.1725
	-118.6597	35.17236
	-118.6602	35.17197
	-118.6606	35.17151
	-118.6607	35.17136
	-118.6609	35.17113
	-118.661	35.17095
	-118.6611	35.17066
	-118.6612	35.17046
	-118.6613	35.1702
	-118.6614	35.16987
	-118.6615	35.16963
	-118.6615	35.16896
	-118.6616	35.16871
	-118.6617	35.16857
	-118.662	35.16829
	-118.6624	35.16784
	-118.6625	35.16766
	-118.6632	35.16675
	-118.6632	35.16666
	-118.6633	35.16658
	-118.6654	35.1655
	-118.6657	35.16533
	-118.6662	35.16496
	-118.6666	35.16217
	-118.6659	35.16205
	-118.6911	35.14041
	-118.7391	34.98296
	-118.6713	34.85109
	-118.6737	34.75399
	-118.6621	34.65515
END
END
