US_California_LA
1
	-118.15	34.39125
	-118.0569	34.38048
	-117.7647	34.32653
	-117.5279	34.291
	-117.4011	34.27438
	-117.3452	34.23514
	-117.3115	34.22723
	-117.3115	34.2272
	-117.3117	34.22672
	-117.3117	34.22593
	-117.3116	34.22526
	-117.3115	34.22514
	-117.3112	34.22462
	-117.311	34.2245
	-117.3105	34.22405
	-117.31	34.22385
	-117.3098	34.2238
	-117.3094	34.22373
	-117.3092	34.22372
	-117.3088	34.22373
	-117.3083	34.22384
	-117.3081	34.22391
	-117.3078	34.22407
	-117.3076	34.22416
	-117.3071	34.22451
	-117.3065	34.22415
	-117.306	34.22399
	-117.3058	34.22396
	-117.3053	34.22394
	-117.3049	34.22398
	-117.3045	34.22406
	-117.304	34.22376
	-117.3036	34.22358
	-117.3034	34.22351
	-117.3032	34.22347
	-117.3023	34.22322
	-117.3013	34.22286
	-117.3006	34.22271
	-117.3003	34.22267
	-117.3	34.22266
	-117.2996	34.22267
	-117.2993	34.2227
	-117.2989	34.22279
	-117.2985	34.22292
	-117.298	34.22313
	-117.2978	34.22324
	-117.2974	34.2235
	-117.2973	34.22364
	-117.2971	34.22377
	-117.2971	34.22385
	-117.2964	34.22369
	-117.2963	34.22346
	-117.296	34.22308
	-117.2958	34.22276
	-117.2955	34.22242
	-117.2955	34.22232
	-117.2952	34.22204
	-117.2951	34.22198
	-117.2948	34.22166
	-117.2945	34.22144
	-117.2944	34.22133
	-117.294	34.22107
	-117.2939	34.22097
	-117.2934	34.22073
	-117.2934	34.2207
	-117.2927	34.22035
	-117.2918	34.21986
	-117.2913	34.21963
	-117.2907	34.2194
	-117.291	34.21938
	-117.2914	34.21932
	-117.2916	34.21928
	-117.2918	34.21922
	-117.2919	34.21917
	-117.2931	34.21661
	-117.2905	34.21541
	-117.2907	34.2154
	-117.2906	34.21539
	-117.2893	34.21514
	-117.2891	34.21507
	-117.2891	34.21506
	-117.289	34.21502
	-117.289	34.21498
	-117.2887	34.2147
	-117.2884	34.21451
	-117.2883	34.21441
	-117.2878	34.21406
	-117.2875	34.21395
	-117.2874	34.21389
	-117.2872	34.21381
	-117.287	34.21376
	-117.2866	34.21369
	-117.2864	34.21367
	-117.2857	34.21369
	-117.2854	34.21374
	-117.2853	34.21378
	-117.285	34.21386
	-117.2849	34.21393
	-117.2846	34.21404
	-117.2844	34.21413
	-117.2842	34.2143
	-117.284	34.21442
	-117.2838	34.21463
	-117.2837	34.21478
	-117.2834	34.21511
	-117.2831	34.21565
	-117.2831	34.21585
	-117.283	34.21626
	-117.2829	34.21644
	-117.2829	34.21704
	-117.283	34.21745
	-117.2831	34.21764
	-117.2832	34.21803
	-117.2833	34.2182
	-117.2836	34.2186
	-117.2841	34.21908
	-117.2843	34.2192
	-117.2844	34.21924
	-117.2848	34.21955
	-117.2849	34.21965
	-117.285	34.2197
	-117.2851	34.21978
	-117.2851	34.21986
	-117.2852	34.22
	-117.2853	34.22009
	-117.2857	34.2207
	-117.2857	34.22075
	-117.2859	34.22094
	-117.2862	34.22129
	-117.1994	34.20096
	-117.062	34.17092
	-116.8302	34.20142
	-116.6839	34.1713
	-116.8721	34.04389
	-116.9456	34.00644
	-116.9935	33.99022
	-117.0637	33.96841
	-117.0873	33.95889
	-117.0731	33.92196
	-117.1102	33.89397
	-117.1426	33.86317
	-117.1631	33.82735
	-117.1631	33.82694
	-117.1632	33.82586
	-117.1632	33.82386
	-117.1633	33.82335
	-117.1633	33.82216
	-117.1634	33.82087
	-117.1635	33.81988
	-117.1635	33.81822
	-117.1656	33.81622
	-117.1689	33.81632
	-117.1693	33.81635
	-117.1695	33.81639
	-117.1925	33.78304
	-117.2114	33.7651
	-117.2289	33.74939
	-117.2444	33.74322
	-117.2566	33.73088
	-117.262	33.71573
	-117.2896	33.69666
	-117.3079	33.69946
	-117.3207	33.71854
	-117.3517	33.71966
	-117.3996	33.71798
	-117.434	33.69946
	-117.4765	33.65343
	-117.4947	33.57591
	-117.5143	33.53375
	-117.5176	33.50226
	-117.5251	33.4595
	-117.5743	33.43024
	-117.5864	33.39477
	-117.5952	33.3728
	-117.6458	33.20314
	-118.6431	33.68262
	-118.5967	33.8711
	-118.5779	34.03854
	-118.5787	34.04453
	-118.5763	34.04592
	-118.5765	34.05106
	-118.5836	34.07812
	-118.5752	34.08897
	-118.5528	34.0908
	-118.5401	34.0862
	-118.5372	34.07033
	-118.5215	34.07544
	-118.5137	34.0785
	-118.5118	34.08414
	-118.509	34.09195
	-118.5006	34.09298
	-118.4882	34.09294
	-118.4818	34.09586
	-118.4805	34.09929
	-118.4768	34.10085
	-118.4713	34.10613
	-118.4646	34.11566
	-118.4477	34.11381
	-118.4372	34.10787
	-118.4281	34.10444
	-118.4198	34.1042
	-118.4156	34.09878
	-118.4167	34.09619
	-118.416	34.09565
	-118.4153	34.09439
	-118.4129	34.09385
	-118.4105	34.0926
	-118.4091	34.09305
	-118.4074	34.09248
	-118.4078	34.09089
	-118.4095	34.08988
	-118.4087	34.08821
	-118.4024	34.08894
	-118.3965	34.08974
	-118.396	34.09115
	-118.3968	34.09472
	-118.3964	34.09616
	-118.395	34.09695
	-118.3937	34.09815
	-118.3922	34.10001
	-118.392	34.10567
	-118.3894	34.10677
	-118.3872	34.10673
	-118.3873	34.10737
	-118.3875	34.10808
	-118.3876	34.10818
	-118.3876	34.10916
	-118.3875	34.10927
	-118.3872	34.10996
	-118.3872	34.11006
	-118.3868	34.11043
	-118.3864	34.11076
	-118.3863	34.11083
	-118.3859	34.11099
	-118.3855	34.1111
	-118.385	34.11114
	-118.3844	34.11107
	-118.3843	34.11105
	-118.3842	34.11101
	-118.3827	34.11264
	-118.3823	34.11317
	-118.3808	34.11534
	-118.3792	34.11617
	-118.3786	34.11618
	-118.3777	34.11612
	-118.3773	34.11603
	-118.3771	34.11608
	-118.3766	34.11611
	-118.3762	34.11609
	-118.3759	34.11603
	-118.3758	34.11614
	-118.3754	34.11639
	-118.3752	34.11655
	-118.3724	34.11582
	-118.3725	34.11551
	-118.3711	34.11581
	-118.3701	34.11691
	-118.3689	34.11813
	-118.3696	34.11961
	-118.3687	34.12022
	-118.3623	34.12034
	-118.3595	34.11954
	-118.3573	34.12062
	-118.3534	34.12445
	-118.3512	34.12487
	-118.3507	34.12454
	-118.3474	34.12787
	-118.3442	34.13146
	-118.3434	34.13341
	-118.3417	34.13538
	-118.3388	34.13599
	-118.3324	34.13771
	-118.3278	34.14015
	-118.3171	34.13724
	-118.311	34.14401
	-118.3086	34.14557
	-118.3091	34.14813
	-118.3105	34.15251
	-118.3081	34.1536
	-118.3044	34.15374
	-118.2938	34.153
	-118.2921	34.15599
	-118.2873	34.15599
	-118.283	34.15632
	-118.282	34.15924
	-118.2773	34.16329
	-118.2767	34.16541
	-118.2738	34.16448
	-118.2704	34.17629
	-118.2706	34.17908
	-118.2036	34.2942
	-118.15	34.39125
END
END
