US_California_Chico
1
	-123.985	38.18119
	-124.7734	39.74317
	-125.093	40.36653
	-124.3267	40.39386
	-124.2929	40.38976
	-124.2927	40.39023
	-124.2926	40.39033
	-124.2922	40.39082
	-124.2921	40.3909
	-124.2916	40.39116
	-124.291	40.39134
	-124.2903	40.39136
	-124.2895	40.39126
	-124.2879	40.39111
	-124.2878	40.39109
	-124.2874	40.39109
	-124.2868	40.39104
	-124.2862	40.39092
	-124.2854	40.39089
	-124.2843	40.39083
	-124.2835	40.39082
	-124.2831	40.39079
	-124.2824	40.39064
	-124.2822	40.39057
	-124.282	40.39049
	-124.2818	40.39039
	-124.2815	40.39028
	-124.2814	40.39021
	-124.2813	40.39011
	-124.2809	40.39002
	-124.2808	40.38997
	-124.2804	40.38982
	-124.2801	40.38962
	-124.2798	40.38932
	-124.2797	40.38928
	-124.2796	40.38907
	-124.2793	40.38894
	-124.2793	40.38889
	-124.2792	40.38885
	-124.2792	40.38886
	-124.2791	40.38886
	-124.2782	40.38866
	-124.2775	40.38814
	-124.2773	40.38786
	-124.1759	40.37557
	-124.0905	40.41598
	-124.0731	40.45389
	-124.073	40.45388
	-124.072	40.45339
	-124.0719	40.45342
	-124.0715	40.4536
	-124.071	40.45389
	-124.0703	40.45484
	-124.0702	40.45569
	-124.0704	40.45642
	-124.0704	40.4565
	-124.0709	40.45716
	-124.0709	40.4572
	-124.0713	40.45749
	-124.0714	40.45754
	-124.0581	40.48654
	-123.9296	40.44574
	-123.8508	40.44617
	-123.8486	40.40535
	-123.7877	40.37684
	-123.7352	40.37028
	-123.7347	40.37102
	-123.7344	40.37109
	-123.7342	40.37119
	-123.7339	40.37139
	-123.7335	40.37157
	-123.7324	40.37172
	-123.7321	40.37179
	-123.7314	40.37182
	-123.7313	40.37181
	-123.7308	40.37169
	-123.7308	40.37166
	-123.7303	40.37141
	-123.7303	40.37138
	-123.7299	40.37111
	-123.7295	40.37051
	-123.7294	40.36993
	-123.7293	40.36954
	-123.6711	40.36225
	-123.5455	40.36466
	-123.4578	40.37369
	-123.416	40.35223
	-123.4162	40.35147
	-123.4162	40.35132
	-123.4144	40.34927
	-123.4143	40.34926
	-123.4133	40.34947
	-123.4131	40.34954
	-123.4128	40.35055
	-123.4125	40.35038
	-123.4125	40.35043
	-123.3006	40.29299
	-123.1584	40.22005
	-122.7913	40.11336
	-122.3948	40.11198
	-122.003	40.14092
	-122.0029	40.14095
	-122.0029	40.14099
	-122.0021	40.14162
	-122.0019	40.14175
	-122.0019	40.14178
	-122.0017	40.14191
	-122.0013	40.14212
	-122.0005	40.14263
	-122.0003	40.14279
	-122.0001	40.14298
	-122.0001	40.14302
	-121.9998	40.14323
	-121.9997	40.14338
	-121.9995	40.14353
	-121.9994	40.14359
	-121.9992	40.14368
	-121.9988	40.14391
	-121.9985	40.144
	-121.9982	40.14407
	-121.9971	40.14442
	-121.9969	40.14446
	-121.9969	40.14447
	-121.9965	40.14451
	-121.9961	40.1445
	-121.9953	40.14438
	-121.9948	40.14425
	-121.9947	40.14424
	-121.9946	40.14425
	-121.9924	40.14528
	-121.9918	40.14572
	-121.9899	40.14751
	-121.9896	40.14775
	-121.9889	40.14816
	-121.9887	40.1483
	-121.9872	40.14894
	-121.9867	40.14909
	-121.9863	40.14916
	-121.9855	40.14913
	-121.9848	40.14897
	-121.9841	40.14865
	-121.9827	40.14764
	-121.9807	40.14673
	-121.7551	40.20851
	-121.7543	40.21048
	-121.7537	40.21077
	-121.7535	40.21085
	-121.7533	40.21089
	-121.7533	40.2109
	-121.7529	40.21103
	-121.7528	40.21108
	-121.7524	40.21115
	-121.7524	40.21117
	-121.7523	40.2112
	-121.752	40.21153
	-121.7518	40.21182
	-121.7515	40.21218
	-121.7512	40.21282
	-121.751	40.21306
	-121.7509	40.21321
	-121.7509	40.21327
	-121.7507	40.21347
	-121.7507	40.21352
	-121.7505	40.21367
	-121.7505	40.21372
	-121.7503	40.21385
	-121.7502	40.2139
	-121.7501	40.21401
	-121.7498	40.21414
	-121.7498	40.21417
	-121.7493	40.21432
	-121.7493	40.21434
	-121.7491	40.21437
	-121.7491	40.21438
	-121.7488	40.21442
	-121.7484	40.21442
	-121.7481	40.21439
	-121.7476	40.21429
	-121.7476	40.21426
	-121.7474	40.2142
	-121.747	40.21402
	-121.7461	40.21336
	-121.7458	40.21309
	-121.7458	40.21306
	-121.7455	40.21293
	-121.7454	40.21281
	-121.7452	40.21268
	-121.745	40.21257
	-121.7448	40.2124
	-121.7446	40.21226
	-121.7445	40.21207
	-121.7443	40.21192
	-121.7442	40.21175
	-121.744	40.21152
	-121.5278	40.27072
	-121.3834	40.35962
	-121.3825	40.35967
	-121.3807	40.35999
	-121.379	40.3606
	-121.3775	40.36078
	-121.3764	40.36127
	-121.3759	40.36173
	-121.3758	40.3618
	-121.3747	40.36294
	-121.3747	40.36503
	-121.2485	40.44269
	-120.9893	40.68711
	-120.9457	40.70286
	-120.9454	40.7032
	-120.9454	40.70323
	-120.9452	40.70347
	-120.9449	40.70399
	-120.9449	40.70413
	-120.9447	40.70479
	-120.9447	40.70542
	-120.9446	40.70639
	-120.9444	40.7072
	-120.9442	40.70753
	-120.9441	40.70766
	-120.9439	40.70803
	-120.9438	40.7081
	-120.9437	40.70834
	-120.9431	40.70895
	-120.9431	40.70899
	-120.9427	40.70933
	-120.9427	40.70938
	-120.9425	40.70955
	-120.9425	40.70959
	-120.9421	40.70995
	-120.9418	40.71017
	-120.9414	40.71036
	-120.9412	40.71049
	-120.9402	40.71069
	-120.9392	40.71065
	-120.9383	40.71066
	-120.9345	40.71064
	-120.9289	40.71063
	-120.9262	40.71061
	-120.9242	40.71062
	-120.8523	40.73656
	-120.8523	40.7366
	-120.8526	40.73692
	-120.8528	40.73716
	-120.853	40.73749
	-120.8531	40.73759
	-120.8534	40.73783
	-120.8534	40.73786
	-120.8536	40.73816
	-120.8537	40.73822
	-120.8537	40.73828
	-120.8539	40.73846
	-120.8542	40.73861
	-120.8543	40.73871
	-120.8546	40.73887
	-120.8548	40.73904
	-120.8549	40.73915
	-120.855	40.73934
	-120.8555	40.73992
	-120.8556	40.74006
	-120.8556	40.74014
	-120.8561	40.74053
	-120.8561	40.74058
	-120.8564	40.74072
	-120.8565	40.7408
	-120.8566	40.74084
	-120.8572	40.74129
	-120.8572	40.74133
	-120.8573	40.74146
	-120.8574	40.74156
	-120.8576	40.74202
	-120.8577	40.74216
	-120.8578	40.74258
	-120.8578	40.74379
	-120.8577	40.74396
	-120.8576	40.74427
	-120.8576	40.74436
	-120.8575	40.74447
	-120.8575	40.74457
	-120.8574	40.74467
	-120.8573	40.7448
	-120.8572	40.74502
	-120.857	40.74532
	-120.8567	40.74559
	-120.8562	40.74599
	-120.8558	40.74619
	-120.8556	40.74627
	-120.8552	40.74638
	-120.8549	40.74642
	-120.8547	40.74644
	-120.8544	40.74645
	-120.8541	40.74644
	-120.8538	40.7464
	-120.8534	40.74629
	-120.8532	40.74622
	-120.853	40.74612
	-120.8527	40.746
	-120.8525	40.74584
	-120.8522	40.74568
	-120.8519	40.74544
	-120.8516	40.74517
	-120.851	40.74448
	-120.8509	40.74427
	-120.8508	40.74411
	-120.8507	40.74401
	-120.8506	40.74376
	-120.8505	40.74365
	-120.8504	40.74342
	-120.8504	40.74329
	-120.8503	40.7431
	-120.8503	40.74305
	-120.8502	40.74282
	-120.8496	40.74259
	-120.8494	40.74245
	-120.8492	40.74233
	-120.8489	40.74217
	-120.8487	40.74197
	-120.8486	40.74189
	-120.8485	40.74174
	-120.8484	40.74166
	-120.8483	40.74152
	-120.8483	40.74145
	-120.8482	40.74126
	-120.8477	40.74099
	-120.8474	40.74086
	-120.8472	40.74074
	-120.8471	40.74064
	-120.8468	40.74043
	-120.8468	40.74036
	-120.8466	40.74019
	-120.8465	40.74
	-120.8464	40.73992
	-120.8463	40.73971
	-120.8462	40.73958
	-120.8462	40.73954
	-120.846	40.73905
	-120.8459	40.73886
	-120.7107	40.78761
	-120.7109	40.78785
	-120.7109	40.7892
	-120.7108	40.78941
	-120.7108	40.78951
	-120.7107	40.78964
	-120.7107	40.78974
	-120.7106	40.78993
	-120.7105	40.79003
	-120.7103	40.7903
	-120.7103	40.79037
	-120.7099	40.79072
	-120.7096	40.79093
	-120.7092	40.7911
	-120.7088	40.79121
	-120.7083	40.79129
	-120.7083	40.7913
	-120.7078	40.79132
	-120.7075	40.79129
	-120.7071	40.79143
	-120.7066	40.79191
	-120.7065	40.79193
	-120.7061	40.7921
	-120.7061	40.79211
	-120.7057	40.79221
	-120.7056	40.79227
	-120.7052	40.79275
	-120.7052	40.79278
	-120.7049	40.79294
	-120.7049	40.79298
	-120.7047	40.79306
	-120.7046	40.79312
	-120.7041	40.79329
	-120.7037	40.79336
	-120.7033	40.79337
	-120.7032	40.79327
	-120.7014	40.79228
	-120.7013	40.79234
	-120.7013	40.79229
	-120.7012	40.79218
	-120.7012	40.79215
	-120.7011	40.79204
	-120.7011	40.79184
	-120.7008	40.79165
	-120.7008	40.79158
	-120.7006	40.79143
	-120.7005	40.7913
	-120.5307	40.85257
	-119.9996	40.9495
	-119.9994	40.91075
	-119.9994	40.89046
	-119.9993	40.8749
	-119.9992	40.8749
	-119.9989	40.83838
	-119.9989	40.83031
	-119.9987	40.80304
	-119.9987	40.77378
	-119.9986	40.76536
	-119.9986	40.75917
	-119.9985	40.7499
	-119.9982	40.72951
	-119.998	40.71645
	-119.9978	40.69802
	-119.9976	40.68346
	-119.9973	40.65675
	-119.9971	40.64234
	-119.9969	40.6249
	-119.9968	40.6249
	-119.9967	40.61377
	-119.9966	40.59949
	-119.9962	40.58512
	-119.9959	40.57051
	-119.9959	40.55609
	-119.9958	40.52324
	-119.9959	40.51065
	-119.9958	40.4999
	-119.9959	40.4999
	-119.9958	40.48318
	-119.9957	40.46862
	-119.9957	40.45415
	-119.9956	40.42927
	-119.9956	40.38163
	-119.9959	40.37494
	-119.9966	40.32371
	-119.9963	40.29346
	-119.9962	40.27338
	-119.9962	40.2499
	-119.9964	40.2499
	-119.9964	40.24201
	-119.9965	40.22972
	-119.9965	40.22317
	-119.9966	40.21521
	-119.9969	40.18626
	-119.9969	40.15717
	-119.9971	40.1281
	-119.9974	40.12807
	-119.9992	40.12603
	-119.9991	40.12488
	-119.9991	40.1198
	-119.9992	40.11673
	-119.9992	40.11453
	-119.9973	40.11255
	-119.9973	40.07107
	-119.9974	40.03928
	-119.9975	40.01076
	-119.9976	40.00553
	-119.9978	39.9999
	-119.9979	39.99988
	-119.9985	39.94377
	-119.9991	39.87491
	-119.9991	39.87493
	-120.0	39.82775
	-120.0005	39.79712
	-120.0007	39.76639
	-120.0011	39.74991
	-120.0011	39.73398
	-120.0012	39.72245
	-120.0014	39.70804
	-120.0013	39.69481
	-120.0013	39.69193
	-120.0012	39.67917
	-120.0012	39.66007
	-120.0013	39.63579
	-120.0013	39.62189
	-120.0014	39.59034
	-120.0015	39.57004
	-120.0016	39.55429
	-120.0016	39.54871
	-120.0017	39.53439
	-120.002	39.51498
	-120.0022	39.49991
	-120.0023	39.49991
	-120.0025	39.48667
	-120.0026	39.4765
	-120.8055	39.44606
	-120.8055	39.44601
	-120.8054	39.44558
	-120.8054	39.44479
	-120.8051	39.44447
	-120.805	39.44443
	-120.8048	39.44411
	-120.8045	39.44345
	-120.8045	39.44338
	-120.8044	39.44283
	-120.8044	39.44263
	-120.8045	39.44228
	-120.8045	39.44221
	-120.8046	39.4418
	-120.8048	39.44131
	-120.8049	39.44118
	-120.805	39.44099
	-120.805	39.44086
	-120.8051	39.4407
	-120.8051	39.44063
	-120.805	39.44055
	-120.805	39.44036
	-120.8049	39.4402
	-120.8049	39.44007
	-120.8048	39.43984
	-120.8048	39.439
	-120.805	39.43842
	-120.8051	39.43836
	-120.8053	39.43805
	-120.8053	39.43799
	-120.8055	39.43775
	-120.8056	39.4377
	-120.8058	39.43753
	-120.806	39.43741
	-120.8063	39.43718
	-120.8065	39.43707
	-120.8066	39.437
	-120.8067	39.43688
	-120.8069	39.4368
	-120.8074	39.4365
	-120.8076	39.43633
	-120.8077	39.43627
	-120.8079	39.43607
	-120.8086	39.43556
	-120.8094	39.43519
	-120.81	39.43494
	-120.8103	39.43486
	-120.8103	39.43484
	-120.8106	39.4348
	-120.8109	39.43478
	-120.8113	39.43478
	-120.8121	39.43488
	-120.8123	39.43493
	-120.8123	39.43495
	-120.8127	39.43515
	-120.8128	39.43518
	-120.8132	39.43549
	-120.8133	39.43559
	-120.8134	39.43577
	-120.8135	39.43583
	-120.8136	39.43606
	-120.8136	39.4361
	-120.8138	39.43672
	-120.8139	39.43694
	-120.8139	39.43697
	-120.8136	39.43705
	-120.8142	39.43803
	-120.8118	39.43952
	-120.8113	39.43939
	-120.8109	39.43914
	-120.8108	39.43911
	-120.8107	39.43899
	-120.8107	39.43901
	-120.8106	39.43902
	-120.8104	39.43922
	-120.8103	39.43934
	-120.8099	39.43964
	-120.8098	39.43967
	-120.8095	39.43989
	-120.8094	39.43994
	-120.8091	39.44013
	-120.8091	39.44049
	-120.8092	39.44102
	-120.8092	39.44118
	-120.809	39.44191
	-120.8088	39.4422
	-120.8088	39.44234
	-120.809	39.4426
	-120.8092	39.44325
	-120.8092	39.44332
	-120.8093	39.44361
	-120.8093	39.44393
	-120.8094	39.44426
	-120.8094	39.44464
	-120.8096	39.44487
	-120.8096	39.44481
	-120.8099	39.44426
	-120.8101	39.444
	-120.8102	39.44394
	-120.8106	39.44358
	-120.8106	39.44355
	-120.8113	39.44324
	-120.8113	39.44323
	-120.8122	39.44322
	-120.8122	39.44323
	-120.8133	39.44385
	-120.8135	39.44422
	-120.8138	39.4444
	-120.8139	39.44443
	-120.8143	39.44502
	-120.8143	39.44507
	-120.8144	39.44529
	-120.951	39.41718
	-120.9514	39.4184
	-120.9529	39.41796
	-120.953	39.41844
	-120.9533	39.41842
	-120.9537	39.41834
	-120.9537	39.41832
	-120.9541	39.41836
	-120.9545	39.41835
	-120.9548	39.41837
	-120.9552	39.41837
	-120.9556	39.41834
	-120.9562	39.41815
	-120.9563	39.4181
	-120.9571	39.41755
	-120.9571	39.41747
	-120.9574	39.41695
	-120.9575	39.41691
	-120.958	39.41653
	-120.9586	39.41652
	-120.9586	39.41653
	-120.9591	39.4166
	-120.9597	39.4166
	-120.9597	39.41661
	-120.9602	39.4169
	-120.9602	39.41695
	-120.9606	39.41708
	-120.9606	39.4171
	-120.961	39.41726
	-120.9614	39.41738
	-120.962	39.41748
	-120.9625	39.41739
	-120.9626	39.41741
	-120.9628	39.4175
	-120.9629	39.41753
	-120.963	39.41759
	-120.9635	39.4177
	-120.964	39.41773
	-120.9643	39.4177
	-120.9645	39.41776
	-120.965	39.41777
	-120.965	39.41779
	-120.9655	39.41784
	-120.9656	39.41784
	-120.9658	39.41787
	-120.966	39.41784
	-120.9666	39.4179
	-120.9672	39.41774
	-120.9676	39.41783
	-120.968	39.41789
	-120.9684	39.41792
	-120.969	39.41788
	-120.9695	39.41775
	-120.9696	39.41772
	-120.9696	39.41771
	-120.97	39.41792
	-120.9701	39.41796
	-120.9702	39.41803
	-120.9706	39.41812
	-120.9707	39.41816
	-120.9713	39.41822
	-120.9714	39.41822
	-120.9721	39.41806
	-120.9727	39.4177
	-120.9727	39.41766
	-120.9728	39.41764
	-120.9728	39.41761
	-120.9731	39.41765
	-120.9732	39.41765
	-120.9741	39.41735
	-120.9744	39.41716
	-120.9744	39.41717
	-120.9753	39.41723
	-120.9755	39.4172
	-120.9761	39.41701
	-120.9767	39.41669
	-120.9767	39.41663
	-120.9773	39.41594
	-120.9773	39.41582
	-120.9775	39.41522
	-120.9775	39.41419
	-120.9774	39.41406
	-120.9772	39.41354
	-120.9771	39.41344
	-120.9768	39.41299
	-120.9767	39.41291
	-120.9767	39.4124
	-120.9768	39.41227
	-120.9768	39.41221
	-120.9769	39.41186
	-121.151	39.37604
	-121.1512	39.37637
	-121.1523	39.37651
	-121.1524	39.37651
	-121.1524	39.37653
	-121.1539	39.37719
	-121.1574	39.37719
	-121.1581	39.37718
	-121.1589	39.37675
	-121.1593	39.37698
	-121.1602	39.37726
	-121.1608	39.37731
	-121.1629	39.37545
	-121.1616	39.37386
	-121.3746	39.33003
	-121.3749	39.32822
	-121.3751	39.32804
	-121.3766	39.32768
	-121.3771	39.32775
	-121.3775	39.32792
	-121.3782	39.32739
	-121.3786	39.32723
	-121.379	39.32713
	-121.3797	39.32704
	-121.3797	39.32734
	-121.3819	39.32793
	-121.3817	39.32858
	-121.433	39.31802
	-121.4395	39.31703
	-121.4395	39.3163
	-121.4414	39.31432
	-121.444	39.31424
	-121.444	39.3134
	-121.446	39.31143
	-121.448	39.31345
	-121.448	39.31574
	-121.9111	39.24538
	-122.0677	39.10348
	-122.173	39.00788
	-122.2016	38.98187
	-122.5846	38.76389
	-122.6077	38.75073
	-122.6077	38.75164
	-122.6076	38.75176
	-122.6076	38.75229
	-122.6077	38.75272
	-122.6076	38.75295
	-122.6076	38.75304
	-122.6077	38.75333
	-122.6078	38.75351
	-122.608	38.75395
	-122.608	38.75403
	-122.6082	38.75418
	-122.6082	38.75431
	-122.6083	38.75444
	-122.6084	38.75449
	-122.6086	38.7543
	-122.6106	38.75537
	-122.612	38.75287
	-122.6119	38.75278
	-122.6118	38.75238
	-122.6117	38.75233
	-122.6116	38.75217
	-122.6116	38.752
	-122.6117	38.75197
	-122.6117	38.75111
	-122.6118	38.75095
	-122.6118	38.75092
	-122.612	38.75074
	-122.6122	38.75043
	-122.6122	38.75032
	-122.6125	38.75005
	-122.6126	38.74998
	-122.613	38.74988
	-122.613	38.74986
	-122.6131	38.74986
	-122.6138	38.74972
	-122.6142	38.74961
	-122.6143	38.74955
	-122.6145	38.7495
	-122.6154	38.74919
	-122.6154	38.74917
	-122.6162	38.74891
	-122.6162	38.7489
	-122.6165	38.74878
	-122.6166	38.74876
	-122.6167	38.74872
	-122.6177	38.74847
	-122.6189	38.74825
	-122.6194	38.74811
	-122.6195	38.74805
	-122.6198	38.74795
	-122.6208	38.74733
	-122.6211	38.74702
	-122.6215	38.74681
	-122.6219	38.74641
	-122.622	38.74621
	-122.6223	38.7458
	-122.6223	38.74562
	-122.6224	38.74555
	-122.6225	38.74531
	-122.6226	38.74499
	-122.6226	38.74488
	-122.6227	38.74436
	-122.6228	38.74418
	-122.6228	38.74285
	-122.6227	38.74254
	-122.6226	38.74237
	-122.6226	38.74226
	-122.8314	38.62343
	-122.8319	38.62355
	-122.8319	38.62352
	-122.8325	38.62374
	-122.8326	38.62374
	-122.8334	38.62394
	-122.8344	38.62394
	-122.8349	38.62375
	-122.835	38.62381
	-122.8363	38.62414
	-122.8366	38.62412
	-122.8369	38.62402
	-122.8379	38.6242
	-122.8384	38.62413
	-122.8385	38.62408
	-122.8392	38.62431
	-122.8397	38.62426
	-122.8402	38.62434
	-122.8406	38.62437
	-122.8411	38.62435
	-122.8415	38.62421
	-122.8423	38.62439
	-122.8437	38.62432
	-122.8437	38.62437
	-122.8442	38.62462
	-122.8446	38.62478
	-122.8448	38.62437
	-122.8463	38.62491
	-122.8472	38.62224
	-122.8471	38.62206
	-122.8461	38.62106
	-122.8459	38.621
	-122.8456	38.62076
	-122.8454	38.62103
	-122.8452	38.62077
	-122.8464	38.62023
	-122.8465	38.6201
	-122.8466	38.61727
	-122.8465	38.61727
	-122.8468	38.61706
	-122.8469	38.61695
	-122.8474	38.61696
	-122.8482	38.61683
	-122.8486	38.61668
	-122.8492	38.6163
	-122.8496	38.61593
	-122.8501	38.61556
	-122.8507	38.61474
	-122.8508	38.61436
	-122.8507	38.61432
	-122.8513	38.61348
	-122.8513	38.61224
	-122.8512	38.61216
	-122.9792	38.53932
	-123.985	38.18119
END
END
