US_Florida_Tampa
1
	-79.42955	27.02637
	-80.034	27.04298
	-80.16149	27.01496
	-80.31482	26.98344
	-80.65285	26.95821
	-80.82921	26.95671
	-80.96682	26.98073
	-81.08869	26.96772
	-81.1325	26.9537
	-81.23809	26.97823
	-81.41108	26.99725
	-81.55037	27.00676
	-81.62114	27.04979
	-81.74526	27.03228
	-81.86658	27.01627
	-81.94934	27.00308
	-81.98866	26.98786
	-82.00057	26.9684
	-82.025	26.96185
	-82.04982	26.95441
	-82.09807	26.94149
	-82.11613	26.90762
	-82.12407	26.75452
	-82.26863	26.71054
	-83.98191	26.52491
	-84.0588	28.80628
	-82.69025	28.7431
	-82.56202	28.74453
	-82.55478	28.75282
	-82.53002	28.75253
	-82.52972	28.75328
	-82.52765	28.75454
	-82.52693	28.75446
	-82.52646	28.75435
	-82.52582	28.75413
	-82.52504	28.75247
	-82.49739	28.75214
	-82.47722	28.68812
	-82.43984	28.66131
	-82.33562	28.65748
	-82.32525	28.62995
	-82.29197	28.61606
	-82.22867	28.60647
	-82.21557	28.56335
	-82.14272	28.5413
	-82.13508	28.44179
	-82.10302	28.3367
	-82.01735	28.32421
	-81.99198	28.26367
	-81.95406	28.25117
	-81.9062	28.24838
	-81.84274	28.24468
	-81.73442	28.23843
	-81.6684	28.18674
	-81.63566	28.18987
	-81.62447	28.19901
	-81.59118	28.20742
	-81.56226	28.19588
	-81.55872	28.14152
	-81.5549	28.11097
	-81.52789	28.06716
	-81.52325	28.02695
	-81.43236	27.98441
	-81.25283	28.01284
	-81.08313	28.05426
	-81.01546	27.95791
	-80.95684	27.95133
	-80.8223	27.93622
	-80.72408	27.8769
	-80.68642	27.85182
	-80.60839	27.85713
	-80.60839	27.88221
	-80.38085	28.03115
	-79.97743	28.21096
	-79.42955	27.02637
END
END
