US_Florida_Orlando
1
	-80.95684	27.95133
	-81.01546	27.95791
	-81.08313	28.05426
	-81.25283	28.01284
	-81.43236	27.98441
	-81.52325	28.02695
	-81.52789	28.06716
	-81.5549	28.11097
	-81.55872	28.14152
	-81.56226	28.19588
	-81.59118	28.20742
	-81.62447	28.19901
	-81.63566	28.18987
	-81.6684	28.18674
	-81.73442	28.23843
	-81.84274	28.24468
	-81.9062	28.24838
	-81.92642	28.48559
	-81.91269	28.62913
	-81.87286	28.71468
	-81.80557	28.7821
	-81.7424	28.84107
	-81.69846	28.91562
	-81.53091	29.02976
	-81.4183	29.16296
	-81.27411	29.20732
	-81.19308	29.12817
	-81.14227	28.93605
	-81.0022	28.85069
	-80.98709	28.70986
	-80.99258	28.55558
	-81.02142	28.39382
	-81.04752	28.18461
	-80.95684	27.95133
END
END
