US_Indiana_Evansville
1
	-84.82031	39.21256
	-84.82028	39.21014
	-84.82034	39.19658
	-84.82033	39.1867
	-84.82023	39.1584
	-84.82025	39.15646
	-84.82027	39.15613
	-84.82025	39.15563
	-84.82025	39.15006
	-84.82027	39.14911
	-84.82016	39.14576
	-84.8201	39.14175
	-84.8201	39.13778
	-84.82006	39.13252
	-84.82007	39.12956
	-84.82	39.12423
	-84.8199	39.12116
	-84.81992	39.11982
	-84.8199	39.11922
	-84.81994	39.11285
	-84.81993	39.10544
	-84.82239	39.10457
	-84.82477	39.10362
	-84.82602	39.10318
	-84.82805	39.10239
	-84.82897	39.10182
	-84.83142	39.10085
	-84.83248	39.10036
	-84.83405	39.09932
	-84.83528	39.09837
	-84.83595	39.09795
	-84.83714	39.09717
	-84.83851	39.0962
	-84.83941	39.09548
	-84.84032	39.09484
	-84.84106	39.0942
	-84.84179	39.09361
	-84.84295	39.09282
	-84.84398	39.09223
	-84.84467	39.09187
	-84.84493	39.09162
	-84.84531	39.09122
	-84.84562	39.09072
	-84.8462	39.09016
	-84.84689	39.08971
	-84.84772	39.08861
	-84.84842	39.08765
	-84.84896	39.08709
	-84.84933	39.08676
	-84.85032	39.08631
	-84.85077	39.08612
	-84.85152	39.08557
	-84.8525	39.08468
	-84.85331	39.08392
	-84.85524	39.08227
	-84.85713	39.08073
	-84.85807	39.07999
	-84.85914	39.07929
	-84.86035	39.07839
	-84.86162	39.07751
	-84.86268	39.0769
	-84.86502	39.07573
	-84.86622	39.07501
	-84.86928	39.07365
	-84.87228	39.07228
	-84.87367	39.07178
	-84.87472	39.07156
	-84.87553	39.07144
	-84.87671	39.07108
	-84.87788	39.07065
	-84.87884	39.0702
	-84.8795	39.07001
	-84.88039	39.06994
	-84.88099	39.06981
	-84.8846	39.06835
	-84.88495	39.06813
	-84.88516	39.06785
	-84.88531	39.06748
	-84.88571	39.06718
	-84.88656	39.06701
	-84.88763	39.06662
	-84.88849	39.06638
	-84.88933	39.06595
	-84.89003	39.0654
	-84.89023	39.06511
	-84.89044	39.06491
	-84.89091	39.06466
	-84.89205	39.06362
	-84.89444	39.06107
	-84.89498	39.06031
	-84.8954	39.05968
	-84.89573	39.05889
	-84.89632	39.05789
	-84.89655	39.05763
	-84.89694	39.05747
	-84.89729	39.05747
	-84.89731	39.05732
	-84.89713	39.05698
	-84.89739	39.05548
	-84.89728	39.05471
	-84.89703	39.05391
	-84.89661	39.05306
	-84.89596	39.05198
	-84.89521	39.05097
	-84.89429	39.05015
	-84.89346	39.04935
	-84.89306	39.04884
	-84.89224	39.04696
	-84.89124	39.04549
	-84.89026	39.04415
	-84.88862	39.04158
	-84.88707	39.03919
	-84.88624	39.03829
	-84.88565	39.03754
	-84.88532	39.03729
	-84.88489	39.03704
	-84.8843	39.03678
	-84.88314	39.03635
	-84.88125	39.0354
	-84.88038	39.03487
	-84.87974	39.03438
	-84.87884	39.03343
	-84.87797	39.03222
	-84.87781	39.03196
	-84.87787	39.03171
	-84.87816	39.03144
	-84.87816	39.03128
	-84.87795	39.03119
	-84.87773	39.03118
	-84.87723	39.03107
	-84.87507	39.02991
	-84.87229	39.02825
	-84.87184	39.02786
	-84.87048	39.02637
	-84.86551	39.02112
	-84.8649	39.02051
	-84.86374	39.01958
	-84.86059	39.01593
	-84.85873	39.01396
	-84.85728	39.01252
	-84.8561	39.01118
	-84.85324	39.00755
	-84.85269	39.00682
	-84.85186	39.00608
	-84.85083	39.00499
	-84.85009	39.00393
	-84.84946	39.00279
	-84.84868	39.00039
	-84.84828	38.99964
	-84.84809	38.99919
	-84.84807	38.99872
	-84.84791	38.99828
	-84.84699	38.99711
	-84.84611	38.99633
	-84.8447	38.99523
	-84.83997	38.99142
	-84.8389	38.99039
	-84.83812	38.98949
	-84.83717	38.98814
	-84.83656	38.98693
	-84.83538	38.98491
	-84.83457	38.98343
	-84.8333	38.98122
	-84.83117	38.97657
	-84.83027	38.97417
	-84.83003	38.97305
	-84.82995	38.97142
	-84.82997	38.97051
	-84.82991	38.96969
	-84.82986	38.96926
	-84.82997	38.96887
	-84.83018	38.96827
	-84.83035	38.96742
	-84.83098	38.96627
	-84.83118	38.96535
	-84.83143	38.96461
	-84.83188	38.963
	-84.83243	38.96169
	-84.83299	38.96042
	-84.83363	38.95943
	-84.8353	38.95778
	-84.83662	38.95676
	-84.83764	38.956
	-84.83853	38.95538
	-84.83967	38.95484
	-84.84016	38.95453
	-84.84047	38.95419
	-84.84096	38.95345
	-84.84154	38.95285
	-84.84232	38.95219
	-84.84324	38.95164
	-84.84441	38.95086
	-84.84573	38.9501
	-84.84819	38.94886
	-84.84896	38.94851
	-84.84969	38.94789
	-84.85063	38.94675
	-84.85152	38.9455
	-84.85242	38.94431
	-84.85359	38.94311
	-84.85449	38.94231
	-84.85518	38.94183
	-84.85568	38.94129
	-84.85589	38.94103
	-84.85636	38.94056
	-84.85782	38.93948
	-84.85916	38.93864
	-84.86045	38.93768
	-84.862	38.93683
	-84.86305	38.93619
	-84.86437	38.9352
	-84.86623	38.93354
	-84.86706	38.93274
	-84.86773	38.93196
	-84.86814	38.93141
	-84.86975	38.93019
	-84.87059	38.92936
	-84.87142	38.92838
	-84.87189	38.92751
	-84.87251	38.92694
	-84.87285	38.92647
	-84.87324	38.92586
	-84.87371	38.92547
	-84.87421	38.92496
	-84.8762	38.92254
	-84.87706	38.92147
	-84.87765	38.92059
	-84.87812	38.91977
	-84.87847	38.91855
	-84.87906	38.91683
	-84.87925	38.91634
	-84.87921	38.91585
	-84.87887	38.9153
	-84.87878	38.9148
	-84.87888	38.91378
	-84.87882	38.91308
	-84.87863	38.91256
	-84.87766	38.91103
	-84.87737	38.9106
	-84.87721	38.91004
	-84.87723	38.90954
	-84.87702	38.90901
	-84.87596	38.90778
	-84.8753	38.90717
	-84.8748	38.90675
	-84.87453	38.90622
	-84.87431	38.90569
	-84.8732	38.90494
	-84.87285	38.90444
	-84.87238	38.90316
	-84.87209	38.90262
	-84.87067	38.90097
	-84.87036	38.90067
	-84.86978	38.90026
	-84.86885	38.8997
	-84.8679	38.89921
	-84.86643	38.89871
	-84.86468	38.89833
	-84.8637	38.89809
	-84.86245	38.89789
	-84.86111	38.89775
	-84.85917	38.89763
	-84.8571	38.89762
	-84.85641	38.89763
	-84.85567	38.89748
	-84.85497	38.8974
	-84.8538	38.89742
	-84.8517	38.8974
	-84.85056	38.89743
	-84.84963	38.89751
	-84.84848	38.89755
	-84.84742	38.89749
	-84.84656	38.89749
	-84.84352	38.89758
	-84.83908	38.89759
	-84.83695	38.89751
	-84.83354	38.8973
	-84.83141	38.89719
	-84.83036	38.89726
	-84.8291	38.8971
	-84.82455	38.89643
	-84.82147	38.89588
	-84.81865	38.89541
	-84.81748	38.89516
	-84.81624	38.89503
	-84.81506	38.89497
	-84.81457	38.89499
	-84.81447	38.89506
	-84.81457	38.89522
	-84.81487	38.89538
	-84.81481	38.89546
	-84.8145	38.89546
	-84.81331	38.89523
	-84.81185	38.89488
	-84.81027	38.89441
	-84.80865	38.8938
	-84.80782	38.89353
	-84.80717	38.89344
	-84.80671	38.89333
	-84.80601	38.89299
	-84.80544	38.89283
	-84.80298	38.89227
	-84.8015	38.89171
	-84.79931	38.89054
	-84.79775	38.88948
	-84.79621	38.88849
	-84.79518	38.88803
	-84.79439	38.8877
	-84.79358	38.8876
	-84.79312	38.88741
	-84.79275	38.88699
	-84.79194	38.88617
	-84.78973	38.88469
	-84.78771	38.88327
	-84.7864	38.88205
	-84.78542	38.88075
	-84.78518	38.88001
	-84.78464	38.87582
	-84.78461	38.87498
	-84.78486	38.87357
	-84.78542	38.87102
	-84.78577	38.86968
	-84.78641	38.86807
	-84.78801	38.86488
	-84.7892	38.86297
	-84.78981	38.86206
	-84.79094	38.86057
	-84.79258	38.85893
	-84.79303	38.85851
	-84.79354	38.85784
	-84.79418	38.85753
	-84.79504	38.85726
	-84.79578	38.85707
	-84.79638	38.85674
	-84.79874	38.85515
	-84.79956	38.8545
	-84.80032	38.85379
	-84.80077	38.85313
	-84.80126	38.85247
	-84.80218	38.85156
	-84.80344	38.8506
	-84.80474	38.84993
	-84.80611	38.84926
	-84.80725	38.84856
	-84.80823	38.84781
	-84.80948	38.84709
	-84.81181	38.8461
	-84.81357	38.84543
	-84.81456	38.84483
	-84.816	38.84393
	-84.8168	38.84358
	-84.81779	38.84308
	-84.82037	38.84127
	-84.82211	38.83996
	-84.8225	38.83971
	-84.82368	38.83889
	-84.82432	38.83823
	-84.8247	38.83772
	-84.82519	38.83741
	-84.82588	38.8367
	-84.82708	38.8353
	-84.82774	38.83436
	-84.82962	38.83112
	-84.82993	38.83037
	-84.83	38.82966
	-84.82995	38.82719
	-84.83001	38.82632
	-84.82992	38.82577
	-84.82967	38.82505
	-84.82931	38.82438
	-84.82902	38.82325
	-84.82879	38.82227
	-84.82812	38.82083
	-84.82753	38.81948
	-84.82699	38.81847
	-84.8246	38.81553
	-84.82367	38.81428
	-84.82222	38.81264
	-84.82093	38.81142
	-84.8201	38.81053
	-84.81931	38.80913
	-84.81901	38.80852
	-84.8183	38.80742
	-84.8172	38.80621
	-84.81634	38.80516
	-84.81417	38.80034
	-84.81339	38.79851
	-84.8131	38.79745
	-84.81297	38.79617
	-84.81287	38.79543
	-84.81209	38.79352
	-84.81174	38.79275
	-84.81162	38.79185
	-84.81161	38.79068
	-84.81173	38.78935
	-84.81209	38.78777
	-84.81254	38.78669
	-84.81301	38.78602
	-84.8135	38.7854
	-84.81432	38.7847
	-84.8149	38.78428
	-84.81562	38.78393
	-84.81727	38.78359
	-84.81951	38.78317
	-84.82243	38.78302
	-84.8259	38.7831
	-84.82836	38.78314
	-84.83011	38.78335
	-84.83205	38.78366
	-84.83492	38.78409
	-84.83632	38.78444
	-84.83792	38.78508
	-84.84009	38.78577
	-84.84305	38.78664
	-84.84457	38.78717
	-84.84722	38.78797
	-84.84954	38.78857
	-84.85219	38.78928
	-84.85468	38.78978
	-84.8578	38.79049
	-84.86094	38.79093
	-84.86313	38.79127
	-84.8694	38.79182
	-84.87161	38.79214
	-84.87463	38.79236
	-84.87568	38.79237
	-84.87739	38.79256
	-84.87977	38.79305
	-84.88096	38.79336
	-84.88195	38.79375
	-84.88264	38.79405
	-84.88444	38.7944
	-84.88591	38.79456
	-84.88679	38.79463
	-84.88724	38.7948
	-84.88761	38.79478
	-84.88823	38.79463
	-84.88927	38.79447
	-84.89257	38.79409
	-84.89336	38.79393
	-84.89398	38.79374
	-84.89541	38.79312
	-84.89697	38.7924
	-84.89822	38.79201
	-84.89925	38.79175
	-84.9005	38.79125
	-84.90298	38.79017
	-84.90454	38.78945
	-84.90664	38.78816
	-84.90814	38.78741
	-84.90939	38.78682
	-84.91081	38.78628
	-84.91221	38.78551
	-84.91441	38.78452
	-84.91666	38.7837
	-84.91771	38.78327
	-84.91889	38.78296
	-84.92016	38.78267
	-84.92104	38.78244
	-84.92221	38.78197
	-84.92321	38.78138
	-84.92406	38.78107
	-84.92525	38.78089
	-84.92598	38.78061
	-84.92724	38.77995
	-84.92829	38.77946
	-84.92964	38.77875
	-84.93389	38.77732
	-84.93703	38.7766
	-84.93976	38.77602
	-84.94121	38.77565
	-84.94286	38.77541
	-84.94413	38.77528
	-84.94585	38.77523
	-84.94769	38.7752
	-84.95018	38.77559
	-84.95201	38.77601
	-84.95444	38.77642
	-84.95635	38.77676
	-84.9588	38.77722
	-84.96068	38.7777
	-84.96195	38.77785
	-84.96373	38.77802
	-84.96502	38.77806
	-84.96717	38.77835
	-84.96854	38.77836
	-84.97007	38.77846
	-84.97122	38.7786
	-84.97266	38.77857
	-84.97571	38.77882
	-84.97889	38.77904
	-84.98273	38.77912
	-84.98409	38.77898
	-84.98633	38.77885
	-84.98808	38.77868
	-84.98922	38.77855
	-84.99004	38.77861
	-84.9905	38.77841
	-84.99111	38.77842
	-84.99229	38.77815
	-84.9939	38.77765
	-84.99521	38.7771
	-84.99715	38.77591
	-84.99939	38.7745
	-85.00056	38.77366
	-85.00195	38.77253
	-85.0028	38.77202
	-85.00363	38.77131
	-85.00479	38.77045
	-85.00569	38.76987
	-85.00684	38.769
	-85.00806	38.76822
	-85.00915	38.76761
	-85.01052	38.76669
	-85.01227	38.76571
	-85.0153	38.76443
	-85.01657	38.76397
	-85.01801	38.7635
	-85.01917	38.76278
	-85.0207	38.76211
	-85.02179	38.76153
	-85.02316	38.76126
	-85.02344	38.76115
	-85.02422	38.76053
	-85.02477	38.76038
	-85.02513	38.76023
	-85.02543	38.7599
	-85.02687	38.75925
	-85.02752	38.75888
	-85.02889	38.75864
	-85.02952	38.75836
	-85.03037	38.75792
	-85.03181	38.7572
	-85.03258	38.75674
	-85.03428	38.75549
	-85.03538	38.7546
	-85.03663	38.75393
	-85.03787	38.75337
	-85.03948	38.75258
	-85.04133	38.75181
	-85.04294	38.75111
	-85.0445	38.75058
	-85.04611	38.75006
	-85.04752	38.74968
	-85.04958	38.74916
	-85.05158	38.74854
	-85.05199	38.74843
	-85.05225	38.7483
	-85.05262	38.74806
	-85.05353	38.74787
	-85.05555	38.74729
	-85.05706	38.74678
	-85.05838	38.74615
	-85.05992	38.74519
	-85.06072	38.74499
	-85.0615	38.74452
	-85.063	38.74394
	-85.06465	38.74352
	-85.0679	38.74274
	-85.06894	38.7424
	-85.06992	38.742
	-85.07037	38.74175
	-85.0713	38.74154
	-85.07203	38.74143
	-85.07275	38.7411
	-85.07344	38.74081
	-85.07407	38.74038
	-85.07497	38.73987
	-85.07597	38.73945
	-85.07653	38.73899
	-85.07684	38.73865
	-85.07745	38.73831
	-85.07898	38.73719
	-85.0801	38.73664
	-85.08059	38.73645
	-85.0815	38.73597
	-85.08286	38.73517
	-85.08324	38.73509
	-85.08366	38.73503
	-85.08445	38.73442
	-85.08649	38.73327
	-85.08771	38.73262
	-85.08926	38.73201
	-85.08976	38.73176
	-85.09006	38.73137
	-85.0905	38.73112
	-85.09187	38.73077
	-85.09287	38.73044
	-85.09396	38.72983
	-85.09616	38.72871
	-85.097	38.72822
	-85.09732	38.72782
	-85.09773	38.7275
	-85.09827	38.72731
	-85.09872	38.72718
	-85.09941	38.72678
	-85.09983	38.72678
	-85.10172	38.72651
	-85.10208	38.72628
	-85.10284	38.72566
	-85.1036	38.72498
	-85.10397	38.72479
	-85.10407	38.72462
	-85.10385	38.72462
	-85.10359	38.7247
	-85.10338	38.72466
	-85.10348	38.72451
	-85.1064	38.72221
	-85.10701	38.72179
	-85.10711	38.7216
	-85.10706	38.72115
	-85.10713	38.72093
	-85.1076	38.72052
	-85.11001	38.71896
	-85.111	38.71822
	-85.11189	38.71751
	-85.11275	38.7167
	-85.11384	38.71587
	-85.11565	38.71473
	-85.11706	38.71393
	-85.11929	38.71236
	-85.12067	38.71147
	-85.12184	38.71089
	-85.12324	38.71007
	-85.1241	38.70961
	-85.12582	38.70846
	-85.12692	38.70759
	-85.12825	38.70642
	-85.12994	38.70464
	-85.13124	38.70349
	-85.13214	38.70282
	-85.13327	38.70222
	-85.13437	38.70184
	-85.13539	38.70131
	-85.13605	38.70062
	-85.1368	38.7001
	-85.13808	38.69947
	-85.1403	38.69844
	-85.14291	38.69731
	-85.14484	38.69654
	-85.14725	38.69555
	-85.14862	38.69501
	-85.14934	38.69447
	-85.14994	38.69422
	-85.15093	38.69398
	-85.15328	38.6931
	-85.1573	38.69175
	-85.15958	38.69113
	-85.16119	38.69074
	-85.16321	38.69019
	-85.16501	38.6898
	-85.167	38.6894
	-85.16834	38.68908
	-85.16925	38.68892
	-85.17012	38.6887
	-85.17066	38.68866
	-85.17189	38.68836
	-85.17298	38.68807
	-85.17363	38.68804
	-85.17647	38.6884
	-85.17732	38.68844
	-85.17914	38.68839
	-85.18066	38.68816
	-85.18181	38.68804
	-85.18346	38.68806
	-85.18488	38.68783
	-85.18591	38.68779
	-85.18691	38.68769
	-85.18758	38.68753
	-85.18844	38.68751
	-85.18942	38.68767
	-85.19039	38.68799
	-85.192	38.68874
	-85.19218	38.6889
	-85.19212	38.68905
	-85.19189	38.6891
	-85.1916	38.68908
	-85.19104	38.68911
	-85.19101	38.6892
	-85.1913	38.68931
	-85.19201	38.68951
	-85.19257	38.68961
	-85.19412	38.68958
	-85.19528	38.68961
	-85.19634	38.68983
	-85.20147	38.69101
	-85.20488	38.68963
	-85.21248	38.6921
	-85.21693	38.69508
	-85.22013	38.69773
	-85.22612	38.70314
	-85.23138	38.70912
	-85.23953	38.72017
	-85.24269	38.72406
	-85.24599	38.72756
	-85.24831	38.72962
	-85.25072	38.73127
	-85.25488	38.73351
	-85.25882	38.73533
	-85.26343	38.7368
	-85.26828	38.73795
	-85.27373	38.73888
	-85.27967	38.73957
	-85.29337	38.74014
	-85.30775	38.73896
	-85.31953	38.73644
	-85.34133	38.73128
	-85.35228	38.7293
	-85.36124	38.72867
	-85.373	38.72881
	-85.381	38.72966
	-85.39008	38.73195
	-85.40416	38.73443
	-85.41385	38.7347
	-85.42203	38.73251
	-85.42724	38.72981
	-85.43926	38.71903
	-85.44604	38.71113
	-85.45076	38.70269
	-85.45231	38.69023
	-85.44973	38.68199
	-85.44209	38.67046
	-85.43643	38.66028
	-85.43514	38.65183
	-85.436	38.64546
	-85.43583	38.63621
	-85.43617	38.62689
	-85.43617	38.61549
	-85.43608	38.60724
	-85.42887	38.59349
	-85.42115	38.58101
	-85.41686	38.57423
	-85.41205	38.56215
	-85.41162	38.5492
	-85.41325	38.54182
	-85.41789	38.53289
	-85.42415	38.52678
	-85.43402	38.5204
	-85.45076	38.51382
	-85.45986	38.51053
	-85.46982	38.50166
	-85.47608	38.49299
	-85.48406	38.48003
	-85.48861	38.47297
	-85.49694	38.46592
	-85.50458	38.46162
	-85.5135	38.45778
	-85.53136	38.45436
	-85.54475	38.45147
	-85.56801	38.44858
	-85.58148	38.4477
	-85.5929	38.44367
	-85.60414	38.43654
	-85.61298	38.42747
	-85.61847	38.41825
	-85.62105	38.41254
	-85.62629	38.39983
	-85.62852	38.39101
	-85.62774	38.38153
	-85.62835	38.3746
	-85.63264	38.3643
	-85.63616	38.35744
	-85.63813	38.35252
	-85.64444	38.33976
	-85.64937	38.32801
	-85.6544	38.31966
	-85.65804	38.31172
	-85.66457	38.30505
	-85.67409	38.29798
	-85.68581	38.29148
	-85.69735	38.28561
	-85.70916	38.28063
	-85.71504	38.278
	-85.72276	38.27365
	-85.73237	38.26874
	-85.73997	38.26543
	-85.74976	38.26757
	-85.75073	38.26779
	-85.75106	38.2679
	-85.75183	38.26805
	-85.75291	38.26893
	-85.76106	38.27257
	-85.76236	38.27417
	-85.76656	38.27767
	-85.76812	38.28041
	-85.77081	38.28245
	-85.77475	38.28482
	-85.7775	38.28577
	-85.78055	38.28632
	-85.78252	38.28676
	-85.7881	38.28708
	-85.79178	38.28682
	-85.80295	38.28319
	-85.80826	38.28111
	-85.81313	38.28113
	-85.81767	38.28032
	-85.82261	38.27857
	-85.8275	38.27473
	-85.83063	38.27156
	-85.83424	38.26479
	-85.83501	38.26172
	-85.83574	38.24965
	-85.83642	38.24436
	-85.83818	38.23735
	-85.84081	38.23254
	-85.84471	38.22694
	-85.84947	38.22215
	-85.85827	38.21652
	-85.86492	38.21156
	-85.87539	38.20472
	-85.87904	38.20212
	-85.8841	38.19726
	-85.88942	38.19079
	-85.89457	38.18472
	-85.89912	38.18206
	-85.9004	38.18019
	-85.90139	38.17856
	-85.90266	38.17653
	-85.9036	38.17497
	-85.90394	38.17446
	-85.90409	38.17435
	-85.90431	38.17365
	-85.90455	38.17299
	-85.90485	38.17236
	-85.90523	38.17144
	-85.9057	38.17047
	-85.906	38.16967
	-85.9061	38.16929
	-85.90628	38.16897
	-85.9064	38.16868
	-85.90644	38.16824
	-85.90662	38.16777
	-85.90672	38.16739
	-85.90677	38.16694
	-85.90688	38.16672
	-85.90699	38.16644
	-85.90715	38.16596
	-85.90716	38.16581
	-85.90737	38.16506
	-85.90744	38.16457
	-85.90756	38.1642
	-85.90768	38.16393
	-85.90772	38.16349
	-85.90775	38.16332
	-85.90787	38.16303
	-85.90803	38.16227
	-85.90815	38.16148
	-85.90833	38.16052
	-85.90833	38.15991
	-85.90847	38.1596
	-85.90853	38.1594
	-85.90849	38.15922
	-85.90856	38.15902
	-85.90853	38.15889
	-85.9086	38.15849
	-85.90864	38.15807
	-85.90863	38.15767
	-85.90865	38.15699
	-85.90857	38.15589
	-85.90859	38.15502
	-85.90872	38.15381
	-85.90877	38.15299
	-85.90884	38.1525
	-85.9089	38.15177
	-85.90892	38.15105
	-85.90908	38.14935
	-85.90919	38.14877
	-85.90925	38.14816
	-85.90926	38.14727
	-85.90928	38.14694
	-85.90932	38.1468
	-85.90935	38.14598
	-85.9094	38.14557
	-85.90938	38.1453
	-85.90949	38.14432
	-85.90955	38.14306
	-85.90955	38.14202
	-85.9095	38.14031
	-85.90945	38.1392
	-85.90934	38.13811
	-85.90922	38.13757
	-85.90906	38.13498
	-85.90889	38.1328
	-85.90864	38.13025
	-85.90853	38.12992
	-85.90851	38.1298
	-85.9085	38.12902
	-85.90837	38.12831
	-85.90801	38.12549
	-85.90776	38.12402
	-85.90771	38.12392
	-85.90775	38.12377
	-85.90773	38.12372
	-85.90766	38.12366
	-85.90766	38.12357
	-85.90771	38.12346
	-85.90769	38.12333
	-85.9076	38.12323
	-85.90757	38.12316
	-85.90764	38.12306
	-85.9076	38.12287
	-85.90757	38.12253
	-85.90757	38.12221
	-85.90754	38.12191
	-85.90744	38.1214
	-85.9073	38.12035
	-85.90717	38.11964
	-85.90703	38.11874
	-85.90683	38.11778
	-85.90658	38.11619
	-85.90648	38.11565
	-85.90639	38.11476
	-85.90632	38.11452
	-85.90635	38.11427
	-85.90621	38.11368
	-85.90619	38.11348
	-85.90622	38.1132
	-85.90601	38.11187
	-85.90595	38.11164
	-85.90586	38.11074
	-85.90579	38.11046
	-85.90574	38.11011
	-85.90563	38.10987
	-85.90555	38.10936
	-85.9053	38.10862
	-85.90515	38.10794
	-85.90507	38.10738
	-85.90501	38.10717
	-85.905	38.10671
	-85.90495	38.10642
	-85.90497	38.10616
	-85.90495	38.1059
	-85.90491	38.10577
	-85.90496	38.10557
	-85.90491	38.10496
	-85.90497	38.10357
	-85.90493	38.10314
	-85.90498	38.10229
	-85.90498	38.10142
	-85.90505	38.10024
	-85.90505	38.09957
	-85.90514	38.09839
	-85.9052	38.09794
	-85.9054	38.09586
	-85.90537	38.09552
	-85.90542	38.09514
	-85.90551	38.09418
	-85.90595	38.09225
	-85.90615	38.09144
	-85.90658	38.08995
	-85.90687	38.0892
	-85.90702	38.08886
	-85.90752	38.08707
	-85.90839	38.08495
	-85.90888	38.08391
	-85.90933	38.08279
	-85.91005	38.0813
	-85.91066	38.08011
	-85.91136	38.07887
	-85.91176	38.07804
	-85.9122	38.07701
	-85.9123	38.07674
	-85.91265	38.07603
	-85.91313	38.07485
	-85.91367	38.0737
	-85.91411	38.07262
	-85.91434	38.07173
	-85.91481	38.07036
	-85.91579	38.06696
	-85.91597	38.06654
	-85.91612	38.06631
	-85.91619	38.06581
	-85.9163	38.06528
	-85.91645	38.06478
	-85.91688	38.06361
	-85.91711	38.06274
	-85.91734	38.06139
	-85.91739	38.06085
	-85.91729	38.06063
	-85.91725	38.06037
	-85.91729	38.05996
	-85.91741	38.05989
	-85.91756	38.05967
	-85.91756	38.05937
	-85.91761	38.05919
	-85.91753	38.05908
	-85.91763	38.05893
	-85.91773	38.05812
	-85.91784	38.05739
	-85.91791	38.05667
	-85.91792	38.05599
	-85.91799	38.05582
	-85.91803	38.05496
	-85.91817	38.05454
	-85.91819	38.05415
	-85.91818	38.05396
	-85.91825	38.05389
	-85.91832	38.05335
	-85.91833	38.05271
	-85.91841	38.05195
	-85.91851	38.05148
	-85.9185	38.05125
	-85.91858	38.05101
	-85.91858	38.0508
	-85.91853	38.05073
	-85.91856	38.05047
	-85.91864	38.05028
	-85.9187	38.04997
	-85.91878	38.04929
	-85.91883	38.04865
	-85.9189	38.04824
	-85.91901	38.04652
	-85.91925	38.04507
	-85.91933	38.0431
	-85.91939	38.04228
	-85.91944	38.04126
	-85.9195	38.04081
	-85.91949	38.04047
	-85.9195	38.04024
	-85.91961	38.03996
	-85.91966	38.03962
	-85.91979	38.0391
	-85.91978	38.03891
	-85.91979	38.03871
	-85.9199	38.03852
	-85.9199	38.03828
	-85.91995	38.03775
	-85.92007	38.03716
	-85.92011	38.03682
	-85.92053	38.03511
	-85.92061	38.03487
	-85.92068	38.0345
	-85.92089	38.03396
	-85.92105	38.03333
	-85.92101	38.03301
	-85.92121	38.03259
	-85.92132	38.03184
	-85.92154	38.03114
	-85.92205	38.02999
	-85.9223	38.02933
	-85.92254	38.02893
	-85.92268	38.02853
	-85.92288	38.02815
	-85.92302	38.02782
	-85.92374	38.0266
	-85.92392	38.02634
	-85.92398	38.02622
	-85.92459	38.02525
	-85.92498	38.02469
	-85.92513	38.02441
	-85.92567	38.02378
	-85.92651	38.02269
	-85.92758	38.02144
	-85.92785	38.02103
	-85.92819	38.02067
	-85.92895	38.01992
	-85.92946	38.01947
	-85.9299	38.01914
	-85.93031	38.01868
	-85.93068	38.01831
	-85.93227	38.01702
	-85.93279	38.01651
	-85.93338	38.016
	-85.93416	38.01541
	-85.93509	38.01467
	-85.93532	38.01453
	-85.93575	38.01418
	-85.93633	38.01375
	-85.93737	38.01301
	-85.93845	38.01229
	-85.94171	38.01029
	-85.94365	38.0093
	-85.94569	38.00841
	-85.94726	38.00778
	-85.94921	38.0071
	-85.95104	38.0066
	-85.95334	38.00534
	-85.95466	38.00514
	-85.9583	38.00462
	-85.97603	38.00356
	-85.99658	38.00007
	-86.0172	37.99616
	-86.02168	37.99556
	-86.02491	37.99471
	-86.02831	37.99322
	-86.03106	37.99164
	-86.03271	37.98994
	-86.03386	37.98789
	-86.03489	37.98519
	-86.03535	37.98255
	-86.03542	37.98029
	-86.03509	37.97803
	-86.0344	37.97487
	-86.03381	37.97195
	-86.03374	37.96886
	-86.03425	37.96649
	-86.03517	37.96327
	-86.03632	37.96156
	-86.03807	37.9601
	-86.03971	37.95923
	-86.04156	37.95878
	-86.04352	37.95869
	-86.04537	37.95884
	-86.04768	37.95947
	-86.05	37.9606
	-86.05223	37.96213
	-86.05484	37.96489
	-86.0584	37.96839
	-86.06215	37.97245
	-86.06486	37.97631
	-86.06692	37.97955
	-86.06813	37.98165
	-86.07065	37.98386
	-86.07406	37.99039
	-86.07551	37.99323
	-86.07673	37.99569
	-86.07671	37.99599
	-86.0766	37.99607
	-86.07566	37.99513
	-86.07453	37.9942
	-86.07437	37.99418
	-86.07429	37.99424
	-86.07428	37.99441
	-86.07612	37.99685
	-86.07975	38.00019
	-86.08391	38.00294
	-86.08917	38.00607
	-86.09466	38.00864
	-86.10023	38.01074
	-86.10592	38.01244
	-86.11093	38.01366
	-86.11606	38.01484
	-86.12027	38.01555
	-86.12311	38.01585
	-86.12961	38.01593
	-86.14106	38.01547
	-86.16731	38.00988
	-86.17219	38.00992
	-86.17898	38.01131
	-86.19093	38.01644
	-86.20644	38.02188
	-86.22037	38.02792
	-86.22552	38.03328
	-86.23306	38.0393
	-86.24997	38.04583
	-86.26127	38.05272
	-86.26689	38.05712
	-86.26731	38.05765
	-86.27358	38.06744
	-86.27872	38.0893
	-86.27866	38.09851
	-86.27122	38.13011
	-86.2718	38.13787
	-86.28777	38.15805
	-86.3049	38.16686
	-86.31162	38.16858
	-86.31421	38.16936
	-86.31894	38.17082
	-86.32451	38.17419
	-86.33109	38.18099
	-86.33449	38.18302
	-86.33679	38.18517
	-86.34242	38.18967
	-86.34742	38.19296
	-86.35217	38.19525
	-86.35711	38.19649
	-86.36106	38.19673
	-86.36562	38.19588
	-86.37046	38.19363
	-86.37402	38.19055
	-86.37546	38.18741
	-86.37659	38.18335
	-86.37666	38.17925
	-86.37622	38.17505
	-86.37523	38.17139
	-86.37327	38.168
	-86.37038	38.16528
	-86.36675	38.1634
	-86.36171	38.16195
	-86.35626	38.16124
	-86.3468	38.16071
	-86.3391	38.16009
	-86.33553	38.15941
	-86.33079	38.15764
	-86.32744	38.15624
	-86.32503	38.15406
	-86.32091	38.1471
	-86.32345	38.13903
	-86.3284	38.13288
	-86.33514	38.12924
	-86.35247	38.12846
	-86.37523	38.13009
	-86.37977	38.12927
	-86.38722	38.12463
	-86.39318	38.11347
	-86.39557	38.10794
	-86.40141	38.10504
	-86.40507	38.1058
	-86.41876	38.11769
	-86.43175	38.12612
	-86.44979	38.12722
	-86.45711	38.12453
	-86.46293	38.11943
	-86.46487	38.11697
	-86.46608	38.11444
	-86.4668	38.11074
	-86.46622	38.10678
	-86.46386	38.10118
	-86.45991	38.09656
	-86.45214	38.09266
	-86.44659	38.09094
	-86.44124	38.08983
	-86.43718	38.08826
	-86.43346	38.08578
	-86.43161	38.0837
	-86.43076	38.08143
	-86.43052	38.0783
	-86.43135	38.07334
	-86.43279	38.06717
	-86.43323	38.06662
	-86.43551	38.06332
	-86.43824	38.06043
	-86.45219	38.05049
	-86.4719	38.04622
	-86.48039	38.04558
	-86.50005	38.04576
	-86.51176	38.04445
	-86.51729	38.04263
	-86.5194	38.04124
	-86.52182	38.03833
	-86.52497	38.02788
	-86.52438	38.01861
	-86.52466	38.01289
	-86.52567	38.00715
	-86.52584	37.99838
	-86.52489	37.98183
	-86.52517	37.96823
	-86.52383	37.96217
	-86.5205	37.95444
	-86.51857	37.9518
	-86.51259	37.94695
	-86.50939	37.94249
	-86.50704	37.93644
	-86.50662	37.93072
	-86.50783	37.92883
	-86.511	37.92612
	-86.51924	37.92216
	-86.52828	37.91862
	-86.53416	37.91701
	-86.54072	37.91687
	-86.54851	37.91784
	-86.56626	37.92216
	-86.58032	37.92314
	-86.58654	37.92229
	-86.58858	37.92116
	-86.59612	37.91429
	-86.59845	37.91096
	-86.59985	37.90675
	-86.6001	37.90122
	-86.59815	37.88455
	-86.59832	37.88042
	-86.59771	37.87542
	-86.59748	37.87148
	-86.59732	37.87016
	-86.59811	37.86738
	-86.60462	37.85827
	-86.60916	37.85541
	-86.61521	37.85286
	-86.62576	37.84727
	-86.63405	37.84393
	-86.63427	37.84385
	-86.63826	37.84272
	-86.64803	37.84143
	-86.65252	37.84164
	-86.6553	37.84251
	-86.65827	37.84414
	-86.66158	37.84942
	-86.66249	37.85695
	-86.66123	37.86276
	-86.65837	37.86938
	-86.64873	37.88604
	-86.64475	37.89481
	-86.64404	37.8982
	-86.64414	37.90237
	-86.64551	37.90653
	-86.64708	37.90862
	-86.65009	37.91062
	-86.66089	37.91306
	-86.67304	37.9149
	-86.68093	37.91501
	-86.68601	37.91308
	-86.69199	37.90853
	-86.70782	37.89837
	-86.71614	37.89407
	-86.71846	37.89312
	-86.72225	37.89265
	-86.73146	37.89434
	-86.73472	37.89659
	-86.75099	37.91289
	-86.76505	37.93251
	-86.77999	37.95652
	-86.78804	37.97284
	-86.7906	37.98006
	-86.79498	37.98898
	-86.81091	37.99715
	-86.81527	37.99888
	-86.82007	37.99939
	-86.82349	37.99894
	-86.83516	37.99375
	-86.84903	37.99002
	-86.85595	37.98729
	-86.86322	37.9825
	-86.86694	37.97929
	-86.87039	37.97528
	-86.87587	37.97077
	-86.88134	37.96752
	-86.88496	37.96437
	-86.89208	37.95593
	-86.90241	37.94616
	-86.90713	37.94302
	-86.91933	37.93666
	-86.92775	37.93496
	-86.93336	37.93494
	-86.9452	37.93346
	-86.9642	37.93242
	-86.96478	37.93238
	-86.96904	37.93286
	-86.97896	37.9302
	-87.0033	37.9224
	-87.01031	37.91967
	-87.03344	37.90659
	-87.04225	37.89829
	-87.0451	37.89377
	-87.04624	37.88987
	-87.04589	37.88757
	-87.04414	37.88403
	-87.04341	37.87994
	-87.04305	37.87505
	-87.04385	37.8708
	-87.04536	37.86773
	-87.04926	37.85974
	-87.05145	37.85368
	-87.05359	37.84373
	-87.05358	37.84359
	-87.05359	37.84327
	-87.05364	37.84279
	-87.05365	37.8409
	-87.05359	37.84004
	-87.05359	37.83973
	-87.05362	37.83937
	-87.05375	37.83838
	-87.05387	37.83658
	-87.0539	37.83592
	-87.05396	37.8355
	-87.05441	37.8337
	-87.05446	37.83341
	-87.0546	37.83288
	-87.05478	37.8321
	-87.05494	37.83132
	-87.05503	37.83069
	-87.05514	37.82933
	-87.05521	37.8288
	-87.05523	37.82792
	-87.0553	37.82743
	-87.05534	37.82727
	-87.05557	37.82674
	-87.0558	37.82637
	-87.05684	37.82451
	-87.05717	37.82387
	-87.0573	37.82366
	-87.05752	37.82335
	-87.05771	37.82311
	-87.05813	37.82226
	-87.05848	37.8216
	-87.05898	37.82082
	-87.05922	37.82054
	-87.05949	37.82012
	-87.05959	37.81986
	-87.05965	37.8196
	-87.05986	37.81888
	-87.05997	37.8184
	-87.06002	37.81808
	-87.06008	37.81787
	-87.0602	37.81751
	-87.06037	37.81716
	-87.06089	37.81655
	-87.06228	37.81545
	-87.06277	37.81487
	-87.06291	37.81457
	-87.06319	37.81383
	-87.06328	37.81363
	-87.06413	37.81193
	-87.06425	37.81139
	-87.06433	37.81113
	-87.06439	37.81071
	-87.06441	37.80951
	-87.06449	37.80887
	-87.06472	37.80816
	-87.06484	37.80794
	-87.06512	37.80724
	-87.0654	37.80636
	-87.06572	37.8055
	-87.06594	37.80506
	-87.06629	37.80443
	-87.06684	37.80358
	-87.06709	37.80307
	-87.0673	37.80273
	-87.06748	37.80249
	-87.06771	37.80224
	-87.06795	37.80185
	-87.06825	37.80148
	-87.06999	37.79977
	-87.07016	37.79962
	-87.07111	37.79889
	-87.07306	37.79758
	-87.07472	37.7979
	-87.07704	37.79581
	-87.08038	37.79364
	-87.08498	37.79109
	-87.08835	37.78889
	-87.09197	37.78699
	-87.09626	37.78543
	-87.0999	37.78464
	-87.1018	37.78418
	-87.10598	37.78327
	-87.11113	37.78251
	-87.11433	37.78253
	-87.11924	37.78313
	-87.12315	37.78388
	-87.1292	37.78631
	-87.13094	37.78801
	-87.13291	37.7933
	-87.13351	37.79649
	-87.13514	37.80429
	-87.136	37.80714
	-87.1375	37.80726
	-87.14195	37.81618
	-87.15349	37.83238
	-87.15888	37.83787
	-87.16232	37.84016
	-87.16486	37.84121
	-87.17083	37.84232
	-87.18006	37.84137
	-87.20224	37.84379
	-87.21242	37.84622
	-87.22094	37.84913
	-87.25525	37.86733
	-87.26293	37.87285
	-87.26989	37.87985
	-87.27437	37.88294
	-87.30232	37.89845
	-87.32004	37.90574
	-87.33176	37.90825
	-87.33416	37.90821
	-87.3354	37.90756
	-87.34493	37.91116
	-87.35261	37.91612
	-87.35471	37.91825
	-87.35829	37.92054
	-87.36164	37.921
	-87.36362	37.92235
	-87.37233	37.93003
	-87.37271	37.93056
	-87.37204	37.93171
	-87.37244	37.93204
	-87.37489	37.93323
	-87.38025	37.9356
	-87.40116	37.94123
	-87.40263	37.94227
	-87.41858	37.94476
	-87.42852	37.94481
	-87.43686	37.94419
	-87.44779	37.94243
	-87.45046	37.94145
	-87.45069	37.94107
	-87.45366	37.9398
	-87.46551	37.93369
	-87.48635	37.92022
	-87.49041	37.91668
	-87.50113	37.90916
	-87.50748	37.90673
	-87.5115	37.90643
	-87.52028	37.91262
	-87.53153	37.9163
	-87.5459	37.92267
	-87.54739	37.92343
	-87.54804	37.9227
	-87.54843	37.92268
	-87.54891	37.92268
	-87.54941	37.92274
	-87.54981	37.92285
	-87.5503	37.92304
	-87.55251	37.9243
	-87.55582	37.92635
	-87.55599	37.92647
	-87.56112	37.93047
	-87.56457	37.93366
	-87.56553	37.93467
	-87.56725	37.93663
	-87.56925	37.93925
	-87.57139	37.94248
	-87.57299	37.94538
	-87.57342	37.94636
	-87.57349	37.94656
	-87.57393	37.948
	-87.57401	37.94837
	-87.5742	37.95024
	-87.57422	37.95168
	-87.57749	37.95173
	-87.57705	37.95222
	-87.57523	37.95506
	-87.57429	37.95696
	-87.57412	37.95765
	-87.57421	37.95919
	-87.57361	37.95987
	-87.57346	37.96065
	-87.57351	37.96177
	-87.57341	37.96264
	-87.57471	37.96774
	-87.57791	37.97154
	-87.58111	37.97344
	-87.58592	37.97544
	-87.58982	37.97604
	-87.59292	37.97584
	-87.59672	37.97484
	-87.60142	37.97254
	-87.60382	37.96894
	-87.60522	37.96514
	-87.60522	37.96144
	-87.60352	37.95894
	-87.60622	37.94964
	-87.61082	37.9446
	-87.61949	37.93854
	-87.62562	37.93344
	-87.62896	37.92671
	-87.62842	37.92145
	-87.62626	37.91614
	-87.6233	37.91075
	-87.62027	37.90692
	-87.60848	37.89879
	-87.60197	37.89572
	-87.59712	37.89239
	-87.59158	37.88719
	-87.58843	37.86879
	-87.58873	37.86098
	-87.5915	37.85664
	-87.6066	37.83867
	-87.61243	37.83384
	-87.6154	37.83197
	-87.62501	37.82908
	-87.63439	37.82728
	-87.63581	37.82702
	-87.64586	37.8259
	-87.65021	37.8259
	-87.65442	37.82603
	-87.65517	37.82604
	-87.66652	37.82746
	-87.6724	37.82913
	-87.67554	37.83173
	-87.67919	37.83632
	-87.68069	37.84062
	-87.6819	37.84641
	-87.68163	37.85592
	-87.6754	37.86595
	-87.67319	37.86841
	-87.66888	37.8715
	-87.66617	37.87415
	-87.6641	37.87718
	-87.66282	37.88145
	-87.66286	37.88558
	-87.66502	37.89351
	-87.66648	37.89579
	-87.67146	37.8995
	-87.67573	37.90193
	-87.68034	37.90327
	-87.68402	37.9035
	-87.68834	37.90247
	-87.70091	37.89727
	-87.71067	37.8939
	-87.71797	37.89257
	-87.72363	37.89206
	-87.7333	37.89435
	-87.74015	37.89465
	-87.76226	37.89091
	-87.771	37.88626
	-87.77301	37.88454
	-87.78364	37.87776
	-87.78641	37.87656
	-87.7909	37.87571
	-87.79518	37.87527
	-87.80801	37.87519
	-87.83058	37.87652
	-87.83388	37.87732
	-87.8381	37.87977
	-87.84119	37.88233
	-87.84161	37.88339
	-87.84169	37.88768
	-87.84469	37.89205
	-87.84559	37.89315
	-87.85724	37.90065
	-87.85874	37.90278
	-87.8631	37.91186
	-87.86556	37.91506
	-87.87254	37.921
	-87.87732	37.92403
	-87.88332	37.92624
	-87.89247	37.92793
	-87.89806	37.92751
	-87.90479	37.92489
	-87.92174	37.90789
	-87.92777	37.90092
	-87.93213	37.89732
	-87.93678	37.89259
	-87.93836	37.8908
	-87.94007	37.88767
	-87.94084	37.88334
	-87.94102	37.87917
	-87.94	37.87504
	-87.93813	37.87065
	-87.93623	37.86794
	-87.9273	37.85871
	-87.91489	37.84962
	-87.91028	37.84342
	-87.90777	37.83761
	-87.9038	37.81776
	-87.90459	37.81253
	-87.90681	37.80762
	-87.91109	37.80516
	-87.91914	37.80213
	-87.92754	37.79985
	-87.93255	37.79767
	-87.93494	37.79522
	-87.9347	37.79183
	-87.93586	37.7897
	-87.9386	37.78791
	-87.94451	37.77526
	-87.94646	37.77348
	-87.94859	37.77234
	-87.95259	37.77174
	-87.96003	37.77322
	-87.97026	37.78186
	-87.9718	37.78465
	-87.97639	37.788
	-87.98436	37.7918
	-87.98716	37.7922
	-87.99117	37.79405
	-87.9931	37.79576
	-87.9971	37.79767
	-88.00471	37.80015
	-88.01514	37.80193
	-88.02102	37.80141
	-88.02502	37.7999
	-88.02509	37.80253
	-88.0256	37.80592
	-88.02801	37.8087
	-88.03118	37.8108
	-88.03556	37.81121
	-88.03925	37.81073
	-88.04294	37.80938
	-88.04552	37.80782
	-88.04783	37.80578
	-88.04981	37.8032
	-88.05238	37.80131
	-88.05547	37.80002
	-88.06011	37.79913
	-88.06397	37.799
	-88.06783	37.79988
	-88.07169	37.80171
	-88.07624	37.80497
	-88.07908	37.80714
	-88.08174	37.80978
	-88.08371	37.81188
	-88.08663	37.81338
	-88.08912	37.815
	-88.09143	37.81819
	-88.09255	37.82151
	-88.09118	37.82538
	-88.08903	37.82809
	-88.08551	37.83012
	-88.08182	37.83114
	-88.07796	37.83094
	-88.07461	37.82972
	-88.07006	37.82666
	-88.06526	37.82443
	-88.06088	37.823
	-88.05384	37.82199
	-88.04431	37.82151
	-88.03865	37.82239
	-88.03453	37.82328
	-88.03101	37.82483
	-88.02775	37.82687
	-88.02569	37.82972
	-88.02543	37.83344
	-88.02672	37.8371
	-88.02912	37.83968
	-88.03307	37.84198
	-88.04571	37.84364
	-88.0555	37.84608
	-88.06288	37.85102
	-88.06863	37.85773
	-88.07378	37.86885
	-88.0779	37.87894
	-88.08417	37.88524
	-88.09275	37.89161
	-88.09696	37.89913
	-88.0997	37.90441
	-88.09884	37.90746
	-88.0949	37.90827
	-88.08957	37.90732
	-88.08425	37.90482
	-88.07653	37.89838
	-88.06769	37.89466
	-88.06251	37.89366
	-88.05957	37.89297
	-88.05696	37.89181
	-88.04966	37.89086
	-88.04108	37.89161
	-88.03653	37.89479
	-88.03129	37.89472
	-88.0282	37.89127
	-88.02606	37.88619
	-88.01894	37.88341
	-88.01421	37.88565
	-88.0125	37.89012
	-88.01327	37.89506
	-88.01748	37.8994
	-88.02005	37.90441
	-88.01919	37.90929
	-88.01733	37.91183
	-88.02204	37.91462
	-88.02789	37.91543
	-88.04157	37.91665
	-88.04226	37.91674
	-88.04777	37.91745
	-88.04975	37.91742
	-88.05244	37.91739
	-88.05652	37.91734
	-88.05904	37.91779
	-88.06193	37.91826
	-88.06428	37.91958
	-88.06599	37.92099
	-88.06734	37.92207
	-88.06743	37.9222
	-88.0673	37.9224
	-88.06727	37.92249
	-88.06716	37.92296
	-88.06716	37.92303
	-88.06735	37.92408
	-88.06742	37.92423
	-88.06781	37.92523
	-88.06785	37.92531
	-88.06802	37.92569
	-88.068	37.92601
	-88.06795	37.92645
	-88.06767	37.92745
	-88.06755	37.92778
	-88.0674	37.92797
	-88.0667	37.92868
	-88.06616	37.92914
	-88.0661	37.9292
	-88.06567	37.92959
	-88.06513	37.92999
	-88.06411	37.93064
	-88.06385	37.9308
	-88.0637	37.93087
	-88.06302	37.93111
	-88.063	37.93112
	-88.062	37.9315
	-88.06155	37.93162
	-88.06143	37.93164
	-88.06102	37.93174
	-88.06093	37.93176
	-88.06044	37.9319
	-88.06037	37.93193
	-88.06007	37.93203
	-88.05977	37.93215
	-88.05948	37.93231
	-88.05916	37.93252
	-88.0591	37.93256
	-88.05839	37.93446
	-88.05841	37.93454
	-88.05756	37.93455
	-88.05524	37.93356
	-88.05201	37.93134
	-88.05123	37.93078
	-88.0489	37.92941
	-88.04603	37.92756
	-88.04385	37.92663
	-88.04135	37.9266
	-88.03786	37.92701
	-88.03516	37.9276
	-88.03258	37.92876
	-88.02998	37.93083
	-88.02958	37.93135
	-88.02842	37.93279
	-88.02833	37.93551
	-88.02891	37.93868
	-88.03054	37.94324
	-88.03162	37.94778
	-88.03274	37.95233
	-88.03262	37.95596
	-88.0326	37.95711
	-88.03229	37.95844
	-88.03206	37.95901
	-88.03123	37.96013
	-88.02885	37.96166
	-88.02666	37.96271
	-88.02364	37.96354
	-88.02132	37.96447
	-88.01842	37.96576
	-88.01553	37.96726
	-88.01308	37.96931
	-88.01147	37.97134
	-88.01099	37.97319
	-88.01063	37.97518
	-88.00998	37.97835
	-88.01108	37.98244
	-88.01167	37.98442
	-88.01241	37.98589
	-88.01501	37.99108
	-88.01576	37.9922
	-88.02185	38.00077
	-88.0235	38.00344
	-88.02429	38.00572
	-88.02453	38.00704
	-88.02512	38.01026
	-88.02389	38.01342
	-88.02207	38.01657
	-88.01897	38.02027
	-88.01861	38.02065
	-88.01609	38.0233
	-88.01372	38.02463
	-88.01068	38.02652
	-88.00966	38.0278
	-88.0092	38.02854
	-88.00921	38.03129
	-88.01109	38.03342
	-88.01191	38.03382
	-88.01341	38.03438
	-88.01552	38.03462
	-88.01703	38.03464
	-88.02244	38.03429
	-88.0264	38.03386
	-88.03034	38.03371
	-88.03444	38.03411
	-88.03739	38.03544
	-88.04047	38.03779
	-88.04263	38.04039
	-88.04258	38.04311
	-88.04168	38.04467
	-88.04054	38.04628
	-88.03816	38.04908
	-88.03479	38.05088
	-88.03242	38.05184
	-88.03012	38.05248
	-88.02368	38.05286
	-88.01493	38.05184
	-88.01085	38.05134
	-88.00732	38.05122
	-88.00442	38.05217
	-88.0003	38.05302
	-87.99618	38.05433
	-87.99203	38.05557
	-87.98943	38.05671
	-87.98584	38.05828
	-87.97601	38.06339
	-87.96963	38.06619
	-87.96607	38.06847
	-87.9613	38.07156
	-87.95876	38.07453
	-87.95652	38.07787
	-87.95524	38.08131
	-87.95511	38.08218
	-87.9546	38.08555
	-87.95457	38.08708
	-87.95486	38.08812
	-87.9556	38.09024
	-87.95624	38.09146
	-87.95744	38.09369
	-87.95808	38.0945
	-87.95907	38.09578
	-87.95915	38.09804
	-87.95918	38.10033
	-87.96098	38.10165
	-87.96303	38.10202
	-87.96557	38.10161
	-87.96798	38.10066
	-87.96925	38.10015
	-87.96992	38.09889
	-87.97019	38.09872
	-87.97024	38.09867
	-87.97072	38.09829
	-87.97116	38.09804
	-87.97268	38.09691
	-87.97284	38.09681
	-87.97299	38.09672
	-87.97398	38.09595
	-87.97485	38.09556
	-87.9753	38.09548
	-87.97705	38.09616
	-87.97802	38.09547
	-87.97813	38.09539
	-87.97929	38.09466
	-87.98006	38.09438
	-87.98028	38.09435
	-87.98162	38.09468
	-87.99407	38.08947
	-87.99684	38.08827
	-88.00019	38.08702
	-88.00137	38.08658
	-88.00549	38.08527
	-88.00783	38.08484
	-88.00958	38.08532
	-88.01151	38.08616
	-88.01208	38.08648
	-88.01304	38.08763
	-88.01417	38.08946
	-88.01511	38.09071
	-88.01576	38.09192
	-88.01637	38.09508
	-88.01575	38.09854
	-88.01454	38.10034
	-88.01102	38.10354
	-88.0086	38.1048
	-88.00437	38.10702
	-88.00035	38.10787
	-87.99783	38.10801
	-87.99328	38.10806
	-87.99213	38.10807
	-87.98978	38.1081
	-87.98626	38.10809
	-87.98573	38.10822
	-87.98218	38.1091
	-87.97929	38.11004
	-87.97701	38.11149
	-87.97655	38.11199
	-87.97526	38.11372
	-87.97415	38.11691
	-87.9737	38.121
	-87.97304	38.12444
	-87.97186	38.12747
	-87.96912	38.12987
	-87.96801	38.13066
	-87.96216	38.13194
	-87.95888	38.13274
	-87.95596	38.13226
	-87.95247	38.13132
	-87.94898	38.13042
	-87.94681	38.13041
	-87.94517	38.13085
	-87.94197	38.13351
	-87.93938	38.13631
	-87.93793	38.13846
	-87.93769	38.13882
	-87.93705	38.13978
	-87.93544	38.14139
	-87.93296	38.14383
	-87.93052	38.14553
	-87.92797	38.14698
	-87.92505	38.14876
	-87.9228	38.15087
	-87.92178	38.15213
	-87.921	38.15311
	-87.92037	38.15492
	-87.91855	38.15666
	-87.91679	38.15805
	-87.91499	38.16029
	-87.91494	38.16256
	-87.91663	38.16575
	-87.91721	38.16754
	-87.91883	38.16946
	-87.92062	38.17033
	-87.92184	38.17035
	-87.92312	38.17009
	-87.92459	38.16915
	-87.92594	38.16814
	-87.92638	38.16764
	-87.92714	38.16679
	-87.92954	38.1641
	-87.93175	38.16228
	-87.93408	38.1618
	-87.9352	38.16233
	-87.93557	38.16283
	-87.93598	38.16419
	-87.93656	38.16734
	-87.93673	38.16787
	-87.93817	38.17101
	-87.93871	38.17329
	-87.94012	38.17625
	-87.94213	38.17786
	-87.94385	38.17925
	-87.94792	38.18066
	-87.95026	38.18069
	-87.95435	38.18119
	-87.95592	38.1817
	-87.95968	38.18326
	-87.96557	38.18686
	-87.966	38.18716
	-87.96938	38.19044
	-87.97637	38.19939
	-87.97677	38.20007
	-87.98004	38.20613
	-87.98153	38.21043
	-87.98238	38.21327
	-87.98251	38.21384
	-87.9828	38.21393
	-87.9832	38.21409
	-87.98323	38.21411
	-87.98338	38.21414
	-87.9845	38.21481
	-87.98455	38.21488
	-87.98502	38.2161
	-87.98507	38.21771
	-87.98516	38.21805
	-87.98528	38.21956
	-87.98529	38.21971
	-87.98529	38.22084
	-87.9854	38.22261
	-87.98341	38.22474
	-87.98274	38.22474
	-87.98266	38.22707
	-87.9827	38.22707
	-87.98387	38.22748
	-87.98395	38.22753
	-87.98409	38.22766
	-87.98414	38.2277
	-87.98444	38.22805
	-87.98448	38.22811
	-87.98476	38.22871
	-87.98478	38.22878
	-87.98483	38.22956
	-87.98482	38.22963
	-87.98469	38.23013
	-87.98466	38.2302
	-87.9845	38.23051
	-87.98446	38.23057
	-87.98428	38.23082
	-87.98423	38.23088
	-87.98392	38.2309
	-87.98177	38.23376
	-87.9807	38.23818
	-87.98009	38.24147
	-87.98083	38.24556
	-87.9812	38.24732
	-87.98165	38.24862
	-87.98389	38.25187
	-87.98505	38.2541
	-87.9869	38.25738
	-87.98673	38.25795
	-87.98639	38.25909
	-87.98523	38.26001
	-87.98409	38.26084
	-87.98231	38.26047
	-87.97996	38.25958
	-87.97899	38.25866
	-87.9785	38.25807
	-87.97858	38.25795
	-87.97887	38.25719
	-87.9789	38.25702
	-87.97892	38.25673
	-87.97893	38.25645
	-87.97891	38.25616
	-87.97885	38.25569
	-87.97882	38.25543
	-87.97882	38.2554
	-87.97876	38.25483
	-87.97872	38.25435
	-87.97838	38.25341
	-87.97829	38.25328
	-87.97776	38.25274
	-87.97743	38.25252
	-87.97708	38.25233
	-87.97679	38.2522
	-87.97653	38.25209
	-87.97592	38.25178
	-87.9758	38.25172
	-87.97557	38.25162
	-87.97532	38.25149
	-87.97426	38.25077
	-87.97377	38.2504
	-87.97364	38.25031
	-87.9734	38.25016
	-87.97312	38.24983
	-87.97283	38.24955
	-87.97267	38.24943
	-87.97256	38.24932
	-87.97248	38.24917
	-87.97233	38.24889
	-87.97059	38.24781
	-87.97038	38.2478
	-87.96854	38.24571
	-87.96745	38.24469
	-87.96615	38.24347
	-87.96377	38.2416
	-87.96326	38.24159
	-87.96129	38.24157
	-87.96045	38.24177
	-87.95967	38.24218
	-87.95737	38.24448
	-87.95679	38.24565
	-87.95649	38.24694
	-87.95645	38.24876
	-87.9563	38.25148
	-87.95577	38.2531
	-87.95436	38.25563
	-87.95277	38.25642
	-87.95042	38.25733
	-87.94769	38.25864
	-87.94701	38.25905
	-87.94566	38.26041
	-87.94385	38.2622
	-87.94382	38.26401
	-87.9444	38.26633
	-87.94564	38.26766
	-87.94572	38.26767
	-87.94596	38.26771
	-87.94614	38.26773
	-87.94625	38.26774
	-87.94714	38.26803
	-87.94717	38.26802
	-87.9474	38.2679
	-87.94758	38.26823
	-87.95	38.26822
	-87.9503	38.26859
	-87.95044	38.26877
	-87.95058	38.26898
	-87.95084	38.26955
	-87.95098	38.27005
	-87.95101	38.27018
	-87.95106	38.27041
	-87.95113	38.27052
	-87.95122	38.27088
	-87.95133	38.2712
	-87.95144	38.27183
	-87.95144	38.27275
	-87.9514	38.27317
	-87.95137	38.27328
	-87.95095	38.27416
	-87.95083	38.2743
	-87.9508	38.27432
	-87.94981	38.27675
	-87.9475	38.27861
	-87.94466	38.27989
	-87.94295	38.28115
	-87.94202	38.28203
	-87.94106	38.28347
	-87.94001	38.28638
	-87.93931	38.28799
	-87.93778	38.2914
	-87.93649	38.29305
	-87.93436	38.29517
	-87.93145	38.29737
	-87.92724	38.29916
	-87.92428	38.30048
	-87.92264	38.30064
	-87.92037	38.30067
	-87.91625	38.30026
	-87.9127	38.29946
	-87.9102	38.29784
	-87.9091	38.29711
	-87.90796	38.29582
	-87.9074	38.2931
	-87.90845	38.29083
	-87.91016	38.28854
	-87.91201	38.28596
	-87.9125	38.28538
	-87.91281	38.28487
	-87.91473	38.28169
	-87.91695	38.27845
	-87.91753	38.27531
	-87.91712	38.27358
	-87.9167	38.27236
	-87.91509	38.27036
	-87.91354	38.26948
	-87.91264	38.26905
	-87.90916	38.26955
	-87.90788	38.27006
	-87.90552	38.27119
	-87.90318	38.27439
	-87.9006	38.27868
	-87.89946	38.28051
	-87.8983	38.28143
	-87.89542	38.28373
	-87.89368	38.2851
	-87.89252	38.28588
	-87.89055	38.28735
	-87.88814	38.29004
	-87.8857	38.29454
	-87.88265	38.29906
	-87.88052	38.30248
	-87.87826	38.30704
	-87.87656	38.30978
	-87.87425	38.31207
	-87.87073	38.31296
	-87.8684	38.31254
	-87.86598	38.31105
	-87.86468	38.30975
	-87.86375	38.3087
	-87.86262	38.30421
	-87.86267	38.30167
	-87.86288	38.29996
	-87.86374	38.29738
	-87.86449	38.29514
	-87.86563	38.28995
	-87.86379	38.2859
	-87.86305	38.28425
	-87.86249	38.28335
	-87.85965	38.28012
	-87.85734	38.27784
	-87.85577	38.2769
	-87.855	38.27651
	-87.8521	38.27599
	-87.84954	38.27608
	-87.84663	38.27702
	-87.84315	38.27932
	-87.83858	38.28572
	-87.83571	38.28937
	-87.83356	38.2934
	-87.83227	38.29745
	-87.83209	38.29841
	-87.8316	38.30107
	-87.83156	38.30299
	-87.83152	38.3047
	-87.83144	38.30981
	-87.83205	38.31344
	-87.83208	38.31555
	-87.83211	38.31707
	-87.83161	38.32281
	-87.82976	38.33051
	-87.8285	38.33412
	-87.82787	38.33752
	-87.82597	38.34041
	-87.82436	38.34299
	-87.82357	38.34448
	-87.82236	38.34582
	-87.82051	38.34823
	-87.81978	38.34893
	-87.81747	38.35122
	-87.81576	38.35396
	-87.81332	38.35657
	-87.81029	38.35968
	-87.80768	38.36175
	-87.80361	38.36406
	-87.7931	38.36689
	-87.78603	38.36889
	-87.78189	38.37019
	-87.77996	38.37134
	-87.77891	38.37196
	-87.77537	38.37424
	-87.77267	38.37656
	-87.77157	38.37799
	-87.77051	38.37956
	-87.76871	38.38255
	-87.76843	38.383
	-87.76686	38.38494
	-87.76324	38.38897
	-87.75954	38.39311
	-87.75605	38.39719
	-87.75058	38.40331
	-87.74625	38.40816
	-87.74454	38.4109
	-87.7439	38.41227
	-87.74382	38.41277
	-87.74413	38.4141
	-87.74397	38.41707
	-87.74319	38.422
	-87.74299	38.42331
	-87.74151	38.43261
	-87.74104	38.43558
	-87.74071	38.43581
	-87.73889	38.4371
	-87.7307	38.44291
	-87.73013	38.44652
	-87.73551	38.45273
	-87.73573	38.45299
	-87.74317	38.45902
	-87.74345	38.46584
	-87.74353	38.46777
	-87.73952	38.47507
	-87.73536	38.4768
	-87.73077	38.47872
	-87.71405	38.47988
	-87.69319	38.48804
	-87.67837	38.49844
	-87.6637	38.50293
	-87.65708	38.50717
	-87.65417	38.51191
	-87.6538	38.51738
	-87.65578	38.52121
	-87.66073	38.54109
	-87.6507	38.55624
	-87.65098	38.56025
	-87.65233	38.5682
	-87.64997	38.56972
	-87.64895	38.57093
	-87.64824	38.57149
	-87.64779	38.57185
	-87.64661	38.57231
	-87.64429	38.57369
	-87.6422	38.57497
	-87.64104	38.57667
	-87.63979	38.57937
	-87.63969	38.58119
	-87.63974	38.58375
	-87.6402	38.58618
	-87.64017	38.58757
	-87.63982	38.5896
	-87.63956	38.59067
	-87.63894	38.59213
	-87.63825	38.59267
	-87.63694	38.5937
	-87.63633	38.59383
	-87.63471	38.5938
	-87.63294	38.59335
	-87.63043	38.5915
	-87.62997	38.59115
	-87.62774	38.59007
	-87.62456	38.5892
	-87.62215	38.58885
	-87.61861	38.58843
	-87.616	38.58846
	-87.61446	38.58929
	-87.61383	38.59099
	-87.61356	38.59212
	-87.61407	38.59485
	-87.6158	38.59707
	-87.61629	38.59735
	-87.61811	38.59808
	-87.61952	38.59866
	-87.62044	38.59903
	-87.62427	38.6003
	-87.62625	38.60229
	-87.62682	38.60344
	-87.62711	38.60467
	-87.62656	38.60785
	-87.62537	38.61099
	-87.62428	38.61285
	-87.62314	38.61468
	-87.62257	38.6165
	-87.6226	38.61831
	-87.62262	38.61941
	-87.62263	38.62012
	-87.62266	38.62238
	-87.62145	38.62418
	-87.62026	38.62618
	-87.61868	38.62836
	-87.6185	38.62886
	-87.61846	38.63028
	-87.61839	38.633
	-87.61946	38.63529
	-87.61995	38.63755
	-87.61994	38.63935
	-87.6198	38.63994
	-87.61936	38.64117
	-87.61753	38.64294
	-87.6171	38.64328
	-87.61513	38.6447
	-87.61222	38.64522
	-87.61006	38.64607
	-87.60778	38.64751
	-87.60606	38.64932
	-87.60494	38.65183
	-87.60368	38.65544
	-87.60301	38.65815
	-87.60116	38.66129
	-87.59945	38.6641
	-87.59857	38.66521
	-87.59331	38.66843
	-87.58973	38.67018
	-87.58724	38.67109
	-87.58394	38.67214
	-87.57631	38.67447
	-87.56985	38.67589
	-87.56161	38.67686
	-87.55415	38.67825
	-87.5536	38.67838
	-87.54304	38.67803
	-87.53921	38.67938
	-87.53724	38.68023
	-87.53504	38.68141
	-87.53275	38.68272
	-87.53062	38.68451
	-87.52703	38.68764
	-87.52202	38.69304
	-87.52028	38.69537
	-87.51916	38.69793
	-87.5191	38.6987
	-87.51867	38.70307
	-87.51887	38.70592
	-87.51899	38.70756
	-87.51905	38.70824
	-87.51885	38.71128
	-87.51819	38.71318
	-87.5178	38.71393
	-87.51762	38.71476
	-87.51678	38.71713
	-87.51562	38.71895
	-87.51395	38.72128
	-87.51211	38.72401
	-87.51041	38.7258
	-87.50857	38.72783
	-87.50741	38.73012
	-87.5061	38.73187
	-87.50398	38.73485
	-87.50172	38.73765
	-87.49998	38.73947
	-87.49823	38.74085
	-87.49708	38.74313
	-87.4977	38.74539
	-87.4989	38.74674
	-87.50069	38.74809
	-87.50196	38.74983
	-87.50191	38.7517
	-87.50196	38.75402
	-87.50079	38.75675
	-87.50056	38.7574
	-87.49967	38.75988
	-87.49853	38.7626
	-87.49827	38.76367
	-87.49797	38.76488
	-87.49805	38.76756
	-87.49978	38.76894
	-87.50272	38.76944
	-87.50568	38.76904
	-87.5074	38.7688
	-87.50864	38.76864
	-87.51034	38.76866
	-87.5116	38.76884
	-87.51216	38.76899
	-87.51334	38.76962
	-87.51449	38.77092
	-87.51401	38.77245
	-87.5135	38.77305
	-87.51263	38.77369
	-87.51131	38.77407
	-87.50966	38.77454
	-87.50728	38.77541
	-87.50606	38.77576
	-87.5043	38.77627
	-87.50187	38.77734
	-87.50111	38.77758
	-87.50034	38.77793
	-87.49934	38.77846
	-87.49825	38.7796
	-87.4976	38.7807
	-87.49762	38.78256
	-87.49814	38.78569
	-87.49924	38.78843
	-87.50008	38.79001
	-87.50128	38.79159
	-87.50498	38.7953
	-87.50594	38.79626
	-87.51385	38.80418
	-87.51865	38.80913
	-87.52103	38.81235
	-87.52351	38.81585
	-87.52564	38.81793
	-87.52614	38.81894
	-87.52648	38.81994
	-87.52566	38.823
	-87.52418	38.82495
	-87.52226	38.82661
	-87.52129	38.82818
	-87.52191	38.83086
	-87.52341	38.8337
	-87.52402	38.83443
	-87.52455	38.83508
	-87.52618	38.83784
	-87.52677	38.84079
	-87.5268	38.8426
	-87.52681	38.84325
	-87.52724	38.84509
	-87.52746	38.84671
	-87.52806	38.84848
	-87.52888	38.85058
	-87.52943	38.85148
	-87.53059	38.8524
	-87.5366	38.85348
	-87.55051	38.85956
	-87.55338	38.86334
	-87.54737	38.87561
	-87.54484	38.89061
	-87.54409	38.89509
	-87.5294	38.9054
	-87.52764	38.90769
	-87.52762	38.90774
	-87.51883	38.92321
	-87.51847	38.92486
	-87.51685	38.93249
	-87.5167	38.93319
	-87.51458	38.94316
	-87.51319	38.94969
	-87.51219	38.95442
	-87.51409	38.95634
	-87.51568	38.95795
	-87.5295	38.97192
	-87.54369	38.97683
	-87.54944	38.97881
	-87.57832	38.98879
	-87.57839	38.98994
	-87.57912	39.00161
	-87.57886	39.00209
	-87.57833	39.0031
	-87.57016	39.01853
	-87.5697	39.01941
	-87.56982	39.01975
	-87.57005	39.0204
	-87.57503	39.03406
	-87.57348	39.0488
	-87.57281	39.05514
	-87.57291	39.05541
	-87.57304	39.0561
	-87.57304	39.0569
	-87.5731	39.05725
	-87.57328	39.05746
	-87.57348	39.05785
	-87.57358	39.05822
	-87.58251	39.06661
	-87.58319	39.06725
	-87.58403	39.06759
	-87.58445	39.06782
	-87.5858	39.06879
	-87.58876	39.07035
	-87.5889	39.07043
	-87.59107	39.0718
	-87.59137	39.07204
	-87.59181	39.07245
	-87.59208	39.07276
	-87.59443	39.0761
	-87.59447	39.07615
	-87.59492	39.07684
	-87.59587	39.07806
	-87.5962	39.07867
	-87.59646	39.0795
	-87.5965	39.07967
	-87.59691	39.07976
	-87.60385	39.08137
	-87.60852	39.08245
	-87.61351	39.08557
	-87.61664	39.08994
	-87.61708	39.09438
	-87.61726	39.09619
	-87.61913	39.10056
	-87.62538	39.10181
	-87.63038	39.1043
	-87.63073	39.10478
	-87.63225	39.1068
	-87.63287	39.11055
	-87.63287	39.1143
	-87.63224	39.1187
	-87.64314	39.12856
	-87.64463	39.13707
	-87.64599	39.1449
	-87.64313	39.15614
	-87.63484	39.15677
	-87.62772	39.15661
	-87.62796	39.15734
	-87.6287	39.15827
	-87.62964	39.1588
	-87.63081	39.15921
	-87.63296	39.15927
	-87.63528	39.15971
	-87.63761	39.16057
	-87.63866	39.16171
	-87.63925	39.16265
	-87.63932	39.1634
	-87.64043	39.16673
	-87.63518	39.16889
	-87.6208	39.17479
	-87.60639	39.1851
	-87.60513	39.186
	-87.58861	39.19782
	-87.58573	39.20114
	-87.57703	39.21112
	-87.57456	39.2184
	-87.57631	39.22393
	-87.09412	39.23864
	-87.0639	39.31518
	-86.81534	39.36509
	-86.6629	39.31624
	-86.60797	39.34386
	-86.4473	39.27585
	-86.27014	39.3003
	-86.11771	39.26309
	-85.82519	39.30561
	-85.64804	39.28861
	-85.49835	39.24183
	-85.3569	39.22268
	-84.98886	39.22268
	-84.82031	39.21256
END
END
