US_Kentucky_East
1
	-85.18942	38.68767
	-85.18844	38.68751
	-85.18758	38.68753
	-85.18691	38.68769
	-85.18591	38.68779
	-85.18488	38.68783
	-85.18346	38.68806
	-85.18181	38.68804
	-85.18066	38.68816
	-85.17914	38.68839
	-85.17732	38.68844
	-85.17647	38.6884
	-85.17363	38.68804
	-85.17298	38.68807
	-85.17189	38.68836
	-85.17066	38.68866
	-85.17012	38.6887
	-85.16925	38.68892
	-85.16834	38.68908
	-85.167	38.6894
	-85.16501	38.6898
	-85.16321	38.69019
	-85.16119	38.69074
	-85.15958	38.69113
	-85.1573	38.69175
	-85.15328	38.6931
	-85.15093	38.69398
	-85.14994	38.69422
	-85.14934	38.69447
	-85.14862	38.69501
	-85.14725	38.69555
	-85.14484	38.69654
	-85.14291	38.69731
	-85.1403	38.69844
	-85.13808	38.69947
	-85.1368	38.7001
	-85.13605	38.70062
	-85.13539	38.70131
	-85.13437	38.70184
	-85.13327	38.70222
	-85.13214	38.70282
	-85.13124	38.70349
	-85.12994	38.70464
	-85.12825	38.70642
	-85.12692	38.70759
	-85.12582	38.70846
	-85.1241	38.70961
	-85.12324	38.71007
	-85.12184	38.71089
	-85.12067	38.71147
	-85.11929	38.71236
	-85.11706	38.71393
	-85.11565	38.71473
	-85.11384	38.71587
	-85.11275	38.7167
	-85.11189	38.71751
	-85.111	38.71822
	-85.11001	38.71896
	-85.1076	38.72052
	-85.10713	38.72093
	-85.10706	38.72115
	-85.10711	38.7216
	-85.10701	38.72179
	-85.1064	38.72221
	-85.10348	38.72451
	-85.10338	38.72466
	-85.10359	38.7247
	-85.10385	38.72462
	-85.10407	38.72462
	-85.10397	38.72479
	-85.1036	38.72498
	-85.10284	38.72566
	-85.10208	38.72628
	-85.10172	38.72651
	-85.09983	38.72678
	-85.09941	38.72678
	-85.09872	38.72718
	-85.09827	38.72731
	-85.09773	38.7275
	-85.09732	38.72782
	-85.097	38.72822
	-85.09616	38.72871
	-85.09396	38.72983
	-85.09287	38.73044
	-85.09187	38.73077
	-85.0905	38.73112
	-85.09006	38.73137
	-85.08976	38.73176
	-85.08926	38.73201
	-85.08771	38.73262
	-85.08649	38.73327
	-85.08445	38.73442
	-85.08366	38.73503
	-85.08324	38.73509
	-85.08286	38.73517
	-85.0815	38.73597
	-85.08059	38.73645
	-85.0801	38.73664
	-85.07898	38.73719
	-85.07745	38.73831
	-85.07684	38.73865
	-85.07653	38.73899
	-85.07597	38.73945
	-85.07497	38.73987
	-85.07407	38.74038
	-85.07344	38.74081
	-85.07275	38.7411
	-85.07203	38.74143
	-85.0713	38.74154
	-85.07037	38.74175
	-85.06992	38.742
	-85.06894	38.7424
	-85.0679	38.74274
	-85.06465	38.74352
	-85.063	38.74394
	-85.0615	38.74452
	-85.06072	38.74499
	-85.05992	38.74519
	-85.05838	38.74615
	-85.05706	38.74678
	-85.05555	38.74729
	-85.05353	38.74787
	-85.05262	38.74806
	-85.05225	38.7483
	-85.05199	38.74843
	-85.05158	38.74854
	-85.04958	38.74916
	-85.04752	38.74968
	-85.04611	38.75006
	-85.0445	38.75058
	-85.04294	38.75111
	-85.04133	38.75181
	-85.03948	38.75258
	-85.03787	38.75337
	-85.03663	38.75393
	-85.03538	38.7546
	-85.03428	38.75549
	-85.03258	38.75674
	-85.03181	38.7572
	-85.03037	38.75792
	-85.02952	38.75836
	-85.02889	38.75864
	-85.02752	38.75888
	-85.02687	38.75925
	-85.02543	38.7599
	-85.02513	38.76023
	-85.02477	38.76038
	-85.02422	38.76053
	-85.02344	38.76115
	-85.02316	38.76126
	-85.02179	38.76153
	-85.0207	38.76211
	-85.01917	38.76278
	-85.01801	38.7635
	-85.01657	38.76397
	-85.0153	38.76443
	-85.01227	38.76571
	-85.01052	38.76669
	-85.00915	38.76761
	-85.00806	38.76822
	-85.00684	38.769
	-85.00569	38.76987
	-85.00479	38.77045
	-85.00363	38.77131
	-85.0028	38.77202
	-85.00195	38.77253
	-85.00056	38.77366
	-84.99939	38.7745
	-84.99715	38.77591
	-84.99521	38.7771
	-84.9939	38.77765
	-84.99229	38.77815
	-84.99111	38.77842
	-84.9905	38.77841
	-84.99004	38.77861
	-84.98922	38.77855
	-84.98808	38.77868
	-84.98633	38.77885
	-84.98409	38.77898
	-84.98273	38.77912
	-84.97889	38.77904
	-84.97571	38.77882
	-84.97266	38.77857
	-84.97122	38.7786
	-84.97007	38.77846
	-84.96854	38.77836
	-84.96717	38.77835
	-84.96502	38.77806
	-84.96373	38.77802
	-84.96195	38.77785
	-84.96068	38.7777
	-84.9588	38.77722
	-84.95635	38.77676
	-84.95444	38.77642
	-84.95201	38.77601
	-84.95018	38.77559
	-84.94769	38.7752
	-84.94585	38.77523
	-84.94413	38.77528
	-84.94286	38.77541
	-84.94121	38.77565
	-84.93976	38.77602
	-84.93703	38.7766
	-84.93389	38.77732
	-84.92964	38.77875
	-84.92829	38.77946
	-84.92724	38.77995
	-84.92598	38.78061
	-84.92525	38.78089
	-84.92406	38.78107
	-84.92321	38.78138
	-84.92221	38.78197
	-84.92104	38.78244
	-84.92016	38.78267
	-84.91889	38.78296
	-84.91771	38.78327
	-84.91666	38.7837
	-84.91441	38.78452
	-84.91221	38.78551
	-84.91081	38.78628
	-84.90939	38.78682
	-84.90814	38.78741
	-84.90664	38.78816
	-84.90454	38.78945
	-84.90298	38.79017
	-84.9005	38.79125
	-84.89925	38.79175
	-84.89822	38.79201
	-84.89697	38.7924
	-84.89541	38.79312
	-84.89398	38.79374
	-84.89336	38.79393
	-84.89257	38.79409
	-84.88927	38.79447
	-84.88823	38.79463
	-84.88761	38.79478
	-84.88724	38.7948
	-84.88679	38.79463
	-84.88591	38.79456
	-84.88444	38.7944
	-84.88264	38.79405
	-84.88195	38.79375
	-84.88096	38.79336
	-84.87977	38.79305
	-84.87739	38.79256
	-84.87568	38.79237
	-84.87463	38.79236
	-84.87161	38.79214
	-84.8694	38.79182
	-84.86313	38.79127
	-84.86094	38.79093
	-84.8578	38.79049
	-84.85468	38.78978
	-84.85219	38.78928
	-84.84954	38.78857
	-84.84722	38.78797
	-84.84457	38.78717
	-84.84305	38.78664
	-84.84009	38.78577
	-84.83792	38.78508
	-84.83632	38.78444
	-84.83492	38.78409
	-84.83205	38.78366
	-84.83011	38.78335
	-84.82836	38.78314
	-84.8259	38.7831
	-84.82243	38.78302
	-84.81951	38.78317
	-84.81727	38.78359
	-84.81562	38.78393
	-84.8149	38.78428
	-84.81432	38.7847
	-84.8135	38.7854
	-84.81301	38.78602
	-84.81254	38.78669
	-84.81209	38.78777
	-84.81173	38.78935
	-84.81161	38.79068
	-84.81162	38.79185
	-84.81174	38.79275
	-84.81209	38.79352
	-84.81287	38.79543
	-84.81297	38.79617
	-84.8131	38.79745
	-84.81339	38.79851
	-84.81417	38.80034
	-84.81634	38.80516
	-84.8172	38.80621
	-84.8183	38.80742
	-84.81901	38.80852
	-84.81931	38.80913
	-84.8201	38.81053
	-84.82093	38.81142
	-84.82222	38.81264
	-84.82367	38.81428
	-84.8246	38.81553
	-84.82699	38.81847
	-84.82753	38.81948
	-84.82812	38.82083
	-84.82879	38.82227
	-84.82902	38.82325
	-84.82931	38.82438
	-84.82967	38.82505
	-84.82992	38.82577
	-84.83001	38.82632
	-84.82995	38.82719
	-84.83	38.82966
	-84.82993	38.83037
	-84.82962	38.83112
	-84.82774	38.83436
	-84.82708	38.8353
	-84.82588	38.8367
	-84.82519	38.83741
	-84.8247	38.83772
	-84.82432	38.83823
	-84.82368	38.83889
	-84.8225	38.83971
	-84.82211	38.83996
	-84.82037	38.84127
	-84.81779	38.84308
	-84.8168	38.84358
	-84.816	38.84393
	-84.81456	38.84483
	-84.81357	38.84543
	-84.81181	38.8461
	-84.80948	38.84709
	-84.80823	38.84781
	-84.80725	38.84856
	-84.80611	38.84926
	-84.80474	38.84993
	-84.80344	38.8506
	-84.80218	38.85156
	-84.80126	38.85247
	-84.80077	38.85313
	-84.80032	38.85379
	-84.79956	38.8545
	-84.79874	38.85515
	-84.79638	38.85674
	-84.79578	38.85707
	-84.79504	38.85726
	-84.79418	38.85753
	-84.79354	38.85784
	-84.79303	38.85851
	-84.79258	38.85893
	-84.79094	38.86057
	-84.78981	38.86206
	-84.7892	38.86297
	-84.78801	38.86488
	-84.78641	38.86807
	-84.78577	38.86968
	-84.78542	38.87102
	-84.78486	38.87357
	-84.78461	38.87498
	-84.78464	38.87582
	-84.78518	38.88001
	-84.78542	38.88075
	-84.7864	38.88205
	-84.78771	38.88327
	-84.78973	38.88469
	-84.79194	38.88617
	-84.79275	38.88699
	-84.79312	38.88741
	-84.79358	38.8876
	-84.79439	38.8877
	-84.79518	38.88803
	-84.79621	38.88849
	-84.79775	38.88948
	-84.79931	38.89054
	-84.8015	38.89171
	-84.80298	38.89227
	-84.80544	38.89283
	-84.80601	38.89299
	-84.80671	38.89333
	-84.80717	38.89344
	-84.80782	38.89353
	-84.80865	38.8938
	-84.81027	38.89441
	-84.81185	38.89488
	-84.81331	38.89523
	-84.8145	38.89546
	-84.81481	38.89546
	-84.81487	38.89538
	-84.81457	38.89522
	-84.81447	38.89506
	-84.81457	38.89499
	-84.81506	38.89497
	-84.81624	38.89503
	-84.81748	38.89516
	-84.81865	38.89541
	-84.82147	38.89588
	-84.82455	38.89643
	-84.8291	38.8971
	-84.83036	38.89726
	-84.83141	38.89719
	-84.83354	38.8973
	-84.83695	38.89751
	-84.83908	38.89759
	-84.84352	38.89758
	-84.84656	38.89749
	-84.84742	38.89749
	-84.84848	38.89755
	-84.84963	38.89751
	-84.85056	38.89743
	-84.8517	38.8974
	-84.8538	38.89742
	-84.85497	38.8974
	-84.85567	38.89748
	-84.85641	38.89763
	-84.8571	38.89762
	-84.85917	38.89763
	-84.86111	38.89775
	-84.86245	38.89789
	-84.8637	38.89809
	-84.86468	38.89833
	-84.86643	38.89871
	-84.8679	38.89921
	-84.86885	38.8997
	-84.86978	38.90026
	-84.87036	38.90067
	-84.87067	38.90097
	-84.87209	38.90262
	-84.87238	38.90316
	-84.87285	38.90444
	-84.8732	38.90494
	-84.87431	38.90569
	-84.87453	38.90622
	-84.8748	38.90675
	-84.8753	38.90717
	-84.87596	38.90778
	-84.87702	38.90901
	-84.87723	38.90954
	-84.87721	38.91004
	-84.87737	38.9106
	-84.87766	38.91103
	-84.87863	38.91256
	-84.87882	38.91308
	-84.87888	38.91378
	-84.87878	38.9148
	-84.87887	38.9153
	-84.87921	38.91585
	-84.87925	38.91634
	-84.87906	38.91683
	-84.87847	38.91855
	-84.87812	38.91977
	-84.87765	38.92059
	-84.87706	38.92147
	-84.8762	38.92254
	-84.87421	38.92496
	-84.87371	38.92547
	-84.87324	38.92586
	-84.87285	38.92647
	-84.87251	38.92694
	-84.87189	38.92751
	-84.87142	38.92838
	-84.87059	38.92936
	-84.86975	38.93019
	-84.86814	38.93141
	-84.86773	38.93196
	-84.86706	38.93274
	-84.86623	38.93354
	-84.86437	38.9352
	-84.86305	38.93619
	-84.862	38.93683
	-84.86045	38.93768
	-84.85916	38.93864
	-84.85782	38.93948
	-84.85636	38.94056
	-84.85589	38.94103
	-84.85568	38.94129
	-84.85518	38.94183
	-84.85449	38.94231
	-84.85359	38.94311
	-84.85242	38.94431
	-84.85152	38.9455
	-84.85063	38.94675
	-84.84969	38.94789
	-84.84896	38.94851
	-84.84819	38.94886
	-84.84573	38.9501
	-84.84441	38.95086
	-84.84324	38.95164
	-84.84232	38.95219
	-84.84154	38.95285
	-84.84096	38.95345
	-84.84047	38.95419
	-84.84016	38.95453
	-84.83967	38.95484
	-84.83853	38.95538
	-84.83764	38.956
	-84.83662	38.95676
	-84.8353	38.95778
	-84.83363	38.95943
	-84.83299	38.96042
	-84.83243	38.96169
	-84.83188	38.963
	-84.83143	38.96461
	-84.83118	38.96535
	-84.83098	38.96627
	-84.83035	38.96742
	-84.83018	38.96827
	-84.82997	38.96887
	-84.82986	38.96926
	-84.82991	38.96969
	-84.82997	38.97051
	-84.82995	38.97142
	-84.83003	38.97305
	-84.83027	38.97417
	-84.83117	38.97657
	-84.8333	38.98122
	-84.83457	38.98343
	-84.83538	38.98491
	-84.83656	38.98693
	-84.83717	38.98814
	-84.83812	38.98949
	-84.8389	38.99039
	-84.83997	38.99142
	-84.8447	38.99523
	-84.84611	38.99633
	-84.84699	38.99711
	-84.84791	38.99828
	-84.84807	38.99872
	-84.84809	38.99919
	-84.84828	38.99964
	-84.84868	39.00039
	-84.84946	39.00279
	-84.85009	39.00393
	-84.85083	39.00499
	-84.85186	39.00608
	-84.85269	39.00682
	-84.85324	39.00755
	-84.8561	39.01118
	-84.85728	39.01252
	-84.85873	39.01396
	-84.86059	39.01593
	-84.86374	39.01958
	-84.8649	39.02051
	-84.86551	39.02112
	-84.87048	39.02637
	-84.87184	39.02786
	-84.87229	39.02825
	-84.87507	39.02991
	-84.87723	39.03107
	-84.87773	39.03118
	-84.87795	39.03119
	-84.87816	39.03128
	-84.87816	39.03144
	-84.87787	39.03171
	-84.87781	39.03196
	-84.87797	39.03222
	-84.87884	39.03343
	-84.87974	39.03438
	-84.88038	39.03487
	-84.88125	39.0354
	-84.88314	39.03635
	-84.8843	39.03678
	-84.88489	39.03704
	-84.88532	39.03729
	-84.88565	39.03754
	-84.88624	39.03829
	-84.88707	39.03919
	-84.88862	39.04158
	-84.89026	39.04415
	-84.89124	39.04549
	-84.89224	39.04696
	-84.89306	39.04884
	-84.89346	39.04935
	-84.89429	39.05015
	-84.89521	39.05097
	-84.89596	39.05198
	-84.89661	39.05306
	-84.89703	39.05391
	-84.89728	39.05471
	-84.89739	39.05548
	-84.89713	39.05698
	-84.89731	39.05732
	-84.89729	39.05747
	-84.89694	39.05747
	-84.89655	39.05763
	-84.89632	39.05789
	-84.89573	39.05889
	-84.8954	39.05968
	-84.89498	39.06031
	-84.89444	39.06107
	-84.89205	39.06362
	-84.89091	39.06466
	-84.89044	39.06491
	-84.89023	39.06511
	-84.89003	39.0654
	-84.88933	39.06595
	-84.88849	39.06638
	-84.88763	39.06662
	-84.88656	39.06701
	-84.88571	39.06718
	-84.88531	39.06748
	-84.88516	39.06785
	-84.88495	39.06813
	-84.8846	39.06835
	-84.88099	39.06981
	-84.88039	39.06994
	-84.8795	39.07001
	-84.87884	39.0702
	-84.87788	39.07065
	-84.87671	39.07108
	-84.87553	39.07144
	-84.87472	39.07156
	-84.87367	39.07178
	-84.87228	39.07228
	-84.86928	39.07365
	-84.86622	39.07501
	-84.86502	39.07573
	-84.86268	39.0769
	-84.86162	39.07751
	-84.86035	39.07839
	-84.85914	39.07929
	-84.85807	39.07999
	-84.85713	39.08073
	-84.85524	39.08227
	-84.85331	39.08392
	-84.8525	39.08468
	-84.85152	39.08557
	-84.85077	39.08612
	-84.85032	39.08631
	-84.84933	39.08676
	-84.84896	39.08709
	-84.84842	39.08765
	-84.84772	39.08861
	-84.84689	39.08971
	-84.8462	39.09016
	-84.84562	39.09072
	-84.84531	39.09122
	-84.84493	39.09162
	-84.84467	39.09187
	-84.84398	39.09223
	-84.84295	39.09282
	-84.84179	39.09361
	-84.84106	39.0942
	-84.84032	39.09484
	-84.83941	39.09548
	-84.83851	39.0962
	-84.83714	39.09717
	-84.83595	39.09795
	-84.83528	39.09837
	-84.83405	39.09932
	-84.83248	39.10036
	-84.83142	39.10085
	-84.82897	39.10182
	-84.82805	39.10239
	-84.82602	39.10318
	-84.82477	39.10362
	-84.82239	39.10457
	-84.81993	39.10544
	-84.81838	39.10554
	-84.81714	39.10556
	-84.81577	39.10582
	-84.81421	39.10627
	-84.81271	39.10673
	-84.81203	39.10709
	-84.8115	39.10799
	-84.8113	39.10847
	-84.81088	39.10892
	-84.81015	39.10923
	-84.80582	39.11023
	-84.80293	39.11072
	-84.79359	39.11296
	-84.79093	39.11379
	-84.78917	39.11445
	-84.7874	39.11544
	-84.7842	39.1179
	-84.78343	39.11866
	-84.78298	39.11935
	-84.78224	39.12035
	-84.78174	39.12095
	-84.77886	39.12417
	-84.77676	39.12697
	-84.77415	39.13038
	-84.77189	39.13337
	-84.76956	39.13593
	-84.76746	39.13775
	-84.76565	39.1394
	-84.76284	39.14153
	-84.75949	39.14394
	-84.75786	39.14497
	-84.7556	39.14604
	-84.75244	39.14726
	-84.75139	39.14753
	-84.74972	39.14773
	-84.74623	39.1478
	-84.74573	39.14778
	-84.74546	39.14755
	-84.7452	39.14738
	-84.74484	39.14742
	-84.74457	39.14769
	-84.74435	39.14776
	-84.74251	39.14757
	-84.73991	39.14698
	-84.73792	39.1464
	-84.73535	39.14562
	-84.73172	39.14443
	-84.72801	39.14305
	-84.72509	39.14134
	-84.72434	39.14098
	-84.72225	39.13961
	-84.71949	39.13765
	-84.71826	39.13682
	-84.71788	39.13641
	-84.71724	39.13563
	-84.71518	39.1338
	-84.7142	39.1329
	-84.71371	39.13193
	-84.71347	39.13154
	-84.71307	39.13115
	-84.71239	39.13071
	-84.71128	39.12972
	-84.7107	39.12888
	-84.70968	39.12753
	-84.70815	39.12544
	-84.70738	39.12448
	-84.70552	39.12266
	-84.7028	39.11954
	-84.69874	39.11471
	-84.69803	39.11353
	-84.69731	39.1126
	-84.69632	39.11164
	-84.69551	39.11052
	-84.69501	39.10994
	-84.69357	39.10865
	-84.69257	39.10755
	-84.69161	39.10634
	-84.69093	39.10526
	-84.69004	39.1039
	-84.68932	39.10315
	-84.68846	39.10233
	-84.68593	39.10077
	-84.68487	39.1003
	-84.68344	39.09985
	-84.6818	39.09927
	-84.68014	39.09873
	-84.67856	39.09838
	-84.67664	39.09817
	-84.67422	39.09776
	-84.67294	39.09758
	-84.67152	39.09757
	-84.66887	39.0978
	-84.66692	39.09788
	-84.66612	39.09781
	-84.66346	39.0972
	-84.65993	39.09614
	-84.65842	39.09552
	-84.654	39.09366
	-84.6524	39.09274
	-84.65096	39.09183
	-84.64917	39.0905
	-84.64725	39.08884
	-84.64528	39.087
	-84.64383	39.08546
	-84.64262	39.08432
	-84.64094	39.0831
	-84.64004	39.08232
	-84.63889	39.08122
	-84.63766	39.08051
	-84.63641	39.07988
	-84.63561	39.07924
	-84.63446	39.07821
	-84.63255	39.07645
	-84.63118	39.07637
	-84.6298	39.07627
	-84.6291	39.07608
	-84.62838	39.07574
	-84.62762	39.07544
	-84.62196	39.07388
	-84.61987	39.07341
	-84.61845	39.07327
	-84.61685	39.07323
	-84.61492	39.07334
	-84.61296	39.07337
	-84.61066	39.07331
	-84.60906	39.07323
	-84.60717	39.07323
	-84.60539	39.07338
	-84.60376	39.07367
	-84.60243	39.07394
	-84.60101	39.0744
	-84.59985	39.07483
	-84.59876	39.0754
	-84.59758	39.07618
	-84.5966	39.0767
	-84.5946	39.07736
	-84.59202	39.07801
	-84.58683	39.07903
	-84.58404	39.0796
	-84.5782	39.08066
	-84.57536	39.08127
	-84.57306	39.08191
	-84.57256	39.08215
	-84.57153	39.08256
	-84.56975	39.08363
	-84.56454	39.08749
	-84.56401	39.08784
	-84.56281	39.089
	-84.56148	39.09053
	-84.56009	39.09219
	-84.55906	39.09355
	-84.5583	39.09445
	-84.555	39.09737
	-84.55416	39.09805
	-84.55336	39.09853
	-84.55233	39.09902
	-84.55096	39.09949
	-84.54971	39.09972
	-84.54805	39.09987
	-84.54678	39.09992
	-84.54494	39.09988
	-84.54375	39.09977
	-84.54236	39.09957
	-84.5408	39.09916
	-84.53861	39.09836
	-84.53486	39.09686
	-84.53345	39.09621
	-84.53217	39.09553
	-84.53007	39.09438
	-84.52792	39.09327
	-84.52723	39.09296
	-84.5264	39.09266
	-84.52529	39.09244
	-84.52399	39.09226
	-84.52286	39.09219
	-84.52142	39.09224
	-84.51919	39.09225
	-84.5127	39.09333
	-84.51103	39.09366
	-84.50612	39.09511
	-84.50434	39.09592
	-84.50152	39.0973
	-84.49897	39.09907
	-84.49713	39.10013
	-84.49565	39.10177
	-84.49453	39.10248
	-84.4937	39.1032
	-84.49319	39.10415
	-84.49194	39.10609
	-84.49012	39.10842
	-84.4893	39.10967
	-84.48879	39.11035
	-84.48683	39.11228
	-84.48432	39.11443
	-84.48237	39.11624
	-84.48128	39.11681
	-84.48059	39.11742
	-84.4792	39.11807
	-84.4769	39.1192
	-84.47591	39.11977
	-84.47482	39.12019
	-84.47186	39.12137
	-84.47081	39.12159
	-84.47014	39.12139
	-84.46926	39.12139
	-84.46673	39.12185
	-84.46542	39.12194
	-84.46349	39.12185
	-84.46169	39.12173
	-84.45884	39.12128
	-84.45619	39.12054
	-84.45282	39.11925
	-84.45171	39.11876
	-84.4504	39.11779
	-84.44851	39.11677
	-84.44688	39.11551
	-84.4448	39.11363
	-84.44338	39.11226
	-84.44079	39.10918
	-84.44044	39.10885
	-84.43982	39.10782
	-84.43905	39.10642
	-84.43757	39.1045
	-84.43628	39.10239
	-84.43542	39.10084
	-84.43495	39.09977
	-84.43401	39.09569
	-84.43388	39.0949
	-84.43388	39.09431
	-84.43411	39.09381
	-84.43461	39.09308
	-84.43497	39.0925
	-84.43506	39.09196
	-84.43497	39.09081
	-84.43542	39.08863
	-84.43555	39.08728
	-84.43542	39.08662
	-84.43495	39.0856
	-84.43398	39.08455
	-84.43379	39.08409
	-84.43379	39.08344
	-84.43416	39.08132
	-84.43422	39.08069
	-84.43401	39.07984
	-84.43349	39.07871
	-84.43341	39.07779
	-84.43341	39.07609
	-84.43371	39.07399
	-84.43349	39.07151
	-84.43319	39.06943
	-84.43293	39.06715
	-84.43261	39.06616
	-84.4322	39.0652
	-84.43195	39.06343
	-84.43109	39.0602
	-84.43059	39.05868
	-84.43029	39.05812
	-84.4289	39.05707
	-84.42856	39.05689
	-84.42808	39.05646
	-84.4272	39.05558
	-84.42629	39.05482
	-84.42517	39.05404
	-84.42388	39.05317
	-84.42379	39.05291
	-84.42395	39.0528
	-84.42432	39.05285
	-84.42517	39.05332
	-84.42815	39.05552
	-84.42844	39.05558
	-84.42858	39.05552
	-84.42856	39.05535
	-84.42798	39.0545
	-84.42738	39.05403
	-84.42652	39.05322
	-84.42565	39.0527
	-84.42417	39.05206
	-84.4226	39.05155
	-84.42183	39.05127
	-84.42082	39.05065
	-84.41928	39.04985
	-84.41845	39.04953
	-84.41797	39.04941
	-84.41729	39.04932
	-84.4167	39.04914
	-84.41529	39.04828
	-84.41389	39.04756
	-84.4127	39.0471
	-84.41107	39.04659
	-84.40872	39.04601
	-84.40678	39.04576
	-84.40429	39.04562
	-84.40272	39.04563
	-84.40185	39.04593
	-84.40126	39.04628
	-84.40079	39.0464
	-84.40024	39.0464
	-84.39844	39.0461
	-84.3969	39.04567
	-84.39456	39.04507
	-84.39315	39.04505
	-84.39261	39.04497
	-84.39159	39.04452
	-84.39094	39.04437
	-84.38984	39.04431
	-84.38872	39.04463
	-84.38767	39.04504
	-84.38693	39.04512
	-84.38478	39.045
	-84.38044	39.04442
	-84.37685	39.04398
	-84.37332	39.04327
	-84.37054	39.04305
	-84.36697	39.04258
	-84.36256	39.04164
	-84.36075	39.0414
	-84.35747	39.04046
	-84.35607	39.03994
	-84.35084	39.03849
	-84.3473	39.0374
	-84.34566	39.03675
	-84.34496	39.03626
	-84.34421	39.03595
	-84.34251	39.03555
	-84.34089	39.03501
	-84.33985	39.03437
	-84.33703	39.03305
	-84.33482	39.03182
	-84.33178	39.03017
	-84.32892	39.02876
	-84.32657	39.02728
	-84.32598	39.02646
	-84.32417	39.02515
	-84.32165	39.02339
	-84.32067	39.02217
	-84.31994	39.02158
	-84.3193	39.0209
	-84.31771	39.01966
	-84.30716	39.0073
	-84.30005	38.9935
	-84.29941	38.98923
	-84.29749	38.9817
	-84.29672	38.97341
	-84.29551	38.96849
	-84.29329	38.96313
	-84.28874	38.95567
	-84.2864	38.95228
	-84.27963	38.94373
	-84.27105	38.93564
	-84.26355	38.92877
	-84.26199	38.92705
	-84.26136	38.9262
	-84.2529	38.91687
	-84.24803	38.90891
	-84.23484	38.89297
	-84.23401	38.89129
	-84.23289	38.8871
	-84.23294	38.88603
	-84.23263	38.88424
	-84.23213	38.88048
	-84.23196	38.87757
	-84.23214	38.87601
	-84.23219	38.87504
	-84.23208	38.8747
	-84.23185	38.87281
	-84.23153	38.87249
	-84.23178	38.87238
	-84.23191	38.87224
	-84.23209	38.87025
	-84.23249	38.86622
	-84.23328	38.86098
	-84.23344	38.85732
	-84.23359	38.85675
	-84.23363	38.85467
	-84.23342	38.85433
	-84.23373	38.85402
	-84.23369	38.84932
	-84.23362	38.84641
	-84.23326	38.84267
	-84.23293	38.83972
	-84.23256	38.83823
	-84.2324	38.8354
	-84.23198	38.83276
	-84.23054	38.82744
	-84.23019	38.82636
	-84.22895	38.82409
	-84.22682	38.82003
	-84.22634	38.8189
	-84.22496	38.81674
	-84.22274	38.81413
	-84.22076	38.81231
	-84.21878	38.81066
	-84.2186	38.81058
	-84.21472	38.80759
	-84.2129	38.80571
	-84.20893	38.80409
	-84.20559	38.80259
	-84.20063	38.80157
	-84.19836	38.80092
	-84.19537	38.80063
	-84.19416	38.80049
	-84.19118	38.7998
	-84.18851	38.79953
	-84.18504	38.7992
	-84.18075	38.79872
	-84.1757	38.79803
	-84.15966	38.79544
	-84.15701	38.79511
	-84.15481	38.79464
	-84.1518	38.79392
	-84.14459	38.79213
	-84.14328	38.7918
	-84.14221	38.7914
	-84.14037	38.79077
	-84.13914	38.79047
	-84.13741	38.79022
	-84.13506	38.7896
	-84.13405	38.78928
	-84.12079	38.78451
	-84.11949	38.78392
	-84.11772	38.78345
	-84.11657	38.78308
	-84.11574	38.78251
	-84.1148	38.78223
	-84.11382	38.78216
	-84.11205	38.78169
	-84.11016	38.78094
	-84.11002	38.78074
	-84.11187	38.78084
	-84.11073	38.78037
	-84.10884	38.77925
	-84.10302	38.77761
	-84.10063	38.77684
	-84.09488	38.77534
	-84.09291	38.77446
	-84.09198	38.77422
	-84.09113	38.77407
	-84.08862	38.7738
	-84.08715	38.77377
	-84.08647	38.77369
	-84.08572	38.77353
	-84.08494	38.77318
	-84.08264	38.77258
	-84.07824	38.77163
	-84.07568	38.77136
	-84.07407	38.77107
	-84.07184	38.77042
	-84.07075	38.77026
	-84.07001	38.77033
	-84.06616	38.77085
	-84.0636	38.7711
	-84.05459	38.77093
	-84.05284	38.77103
	-84.05184	38.77123
	-84.05088	38.7713
	-84.04936	38.7712
	-84.04717	38.77086
	-84.04554	38.77055
	-84.04438	38.77055
	-84.043	38.77065
	-84.03805	38.77158
	-84.03592	38.7721
	-84.03358	38.7725
	-84.03144	38.7731
	-84.03039	38.77329
	-84.02788	38.77399
	-84.0262	38.77428
	-84.02459	38.77468
	-84.02318	38.77493
	-84.02045	38.7757
	-84.01844	38.7761
	-84.01577	38.777
	-84.01088	38.77879
	-84.00936	38.77921
	-84.00648	38.7801
	-84.00176	38.78058
	-83.99908	38.78132
	-83.98419	38.78552
	-83.98112	38.78609
	-83.98011	38.7864
	-83.97943	38.78689
	-83.97855	38.78719
	-83.9776	38.78731
	-83.97664	38.78732
	-83.97301	38.78699
	-83.97241	38.78696
	-83.97084	38.78731
	-83.96928	38.78731
	-83.96574	38.78717
	-83.96413	38.78717
	-83.96219	38.78744
	-83.96134	38.78731
	-83.95902	38.7869
	-83.9575	38.78644
	-83.95666	38.78624
	-83.95533	38.78624
	-83.9532	38.78612
	-83.94968	38.7854
	-83.94653	38.78436
	-83.94368	38.78318
	-83.94039	38.7816
	-83.93818	38.78005
	-83.93415	38.77749
	-83.9315	38.77606
	-83.93012	38.77535
	-83.92811	38.77456
	-83.92673	38.77423
	-83.92621	38.77399
	-83.92608	38.7738
	-83.92612	38.77355
	-83.92639	38.77332
	-83.92689	38.77312
	-83.92837	38.77283
	-83.92866	38.77269
	-83.92874	38.77238
	-83.92857	38.77212
	-83.92758	38.77173
	-83.92636	38.77128
	-83.92529	38.77103
	-83.92331	38.77061
	-83.92233	38.77034
	-83.91964	38.76967
	-83.91778	38.76951
	-83.91595	38.76969
	-83.9139	38.76975
	-83.91284	38.76964
	-83.91046	38.76904
	-83.90616	38.76846
	-83.90407	38.76797
	-83.9013	38.76743
	-83.89889	38.76714
	-83.89135	38.76599
	-83.89014	38.76555
	-83.88812	38.76568
	-83.88397	38.76461
	-83.88084	38.76386
	-83.87908	38.76314
	-83.87715	38.7631
	-83.87317	38.76242
	-83.86653	38.7602
	-83.86406	38.75895
	-83.8596	38.75693
	-83.85813	38.75602
	-83.85642	38.7544
	-83.85569	38.7541
	-83.85555	38.75347
	-83.85367	38.75268
	-83.85316	38.75241
	-83.8527	38.75191
	-83.85208	38.75143
	-83.84873	38.74718
	-83.84621	38.74229
	-83.84468	38.73744
	-83.84378	38.73419
	-83.84293	38.7305
	-83.84227	38.72633
	-83.84129	38.72344
	-83.84064	38.72204
	-83.84004	38.72138
	-83.83986	38.72096
	-83.83935	38.71995
	-83.83819	38.71878
	-83.83641	38.71734
	-83.83486	38.71625
	-83.8321	38.71498
	-83.82987	38.71389
	-83.82742	38.71262
	-83.82635	38.71192
	-83.82484	38.7108
	-83.82315	38.71004
	-83.82133	38.70932
	-83.81903	38.70879
	-83.81603	38.70783
	-83.81313	38.70718
	-83.81085	38.70689
	-83.80862	38.70679
	-83.80618	38.70653
	-83.80512	38.70622
	-83.80296	38.70554
	-83.80216	38.70547
	-83.801	38.70529
	-83.80004	38.70473
	-83.79873	38.70453
	-83.7977	38.7041
	-83.7951	38.70319
	-83.79163	38.702
	-83.78892	38.70063
	-83.78661	38.69881
	-83.78446	38.69641
	-83.7836	38.69542
	-83.78339	38.69449
	-83.78313	38.6935
	-83.78225	38.69176
	-83.7815	38.68941
	-83.78081	38.68681
	-83.77953	38.68311
	-83.77935	38.68234
	-83.7789	38.67956
	-83.77828	38.67765
	-83.77766	38.67408
	-83.77699	38.67108
	-83.77641	38.66909
	-83.77599	38.66708
	-83.77538	38.66561
	-83.77489	38.66407
	-83.77395	38.66276
	-83.7739	38.66147
	-83.77371	38.6608
	-83.77283	38.65914
	-83.77195	38.65771
	-83.77085	38.65639
	-83.76975	38.6554
	-83.76768	38.65403
	-83.76554	38.65289
	-83.76354	38.65225
	-83.76049	38.65177
	-83.75822	38.65123
	-83.75584	38.65063
	-83.74917	38.64932
	-83.74511	38.64855
	-83.73959	38.6479
	-83.73275	38.64746
	-83.73	38.64731
	-83.72659	38.64716
	-83.72341	38.64696
	-83.72129	38.64671
	-83.71966	38.64615
	-83.71797	38.64508
	-83.71767	38.64457
	-83.71738	38.64397
	-83.71661	38.6433
	-83.715	38.64257
	-83.71363	38.6416
	-83.71312	38.6415
	-83.71217	38.64159
	-83.71105	38.64153
	-83.71047	38.64128
	-83.70998	38.64057
	-83.70947	38.64017
	-83.70794	38.63969
	-83.7069	38.63958
	-83.70496	38.63973
	-83.70442	38.63962
	-83.70294	38.63901
	-83.70112	38.63796
	-83.6982	38.63663
	-83.69367	38.6346
	-83.68887	38.63276
	-83.6858	38.63162
	-83.68292	38.63056
	-83.6788	38.62942
	-83.67576	38.62882
	-83.67455	38.62849
	-83.67365	38.62797
	-83.67284	38.62758
	-83.67153	38.62726
	-83.6696	38.62671
	-83.66863	38.62641
	-83.6676	38.62632
	-83.66584	38.62644
	-83.66005	38.62718
	-83.65677	38.6279
	-83.65507	38.62849
	-83.64986	38.63062
	-83.64833	38.63187
	-83.64582	38.63506
	-83.64507	38.63625
	-83.64426	38.63771
	-83.64265	38.64213
	-83.64164	38.64401
	-83.64149	38.64523
	-83.63941	38.65173
	-83.63885	38.65381
	-83.63904	38.65456
	-83.63846	38.65916
	-83.63778	38.66224
	-83.63735	38.66525
	-83.6369	38.6667
	-83.636	38.66854
	-83.63488	38.67047
	-83.63303	38.67288
	-83.63095	38.67492
	-83.62707	38.67797
	-83.62488	38.67913
	-83.62018	38.6813
	-83.61497	38.68355
	-83.6128	38.68412
	-83.61115	38.68449
	-83.60879	38.68482
	-83.60696	38.68464
	-83.60426	38.68445
	-83.60323	38.68402
	-83.60241	38.68382
	-83.60188	38.68388
	-83.60104	38.6842
	-83.6002	38.68494
	-83.59967	38.68551
	-83.59883	38.68593
	-83.59735	38.68643
	-83.5945	38.68757
	-83.59385	38.68787
	-83.59317	38.68824
	-83.59113	38.68886
	-83.58855	38.68923
	-83.58366	38.68996
	-83.58113	38.69062
	-83.56958	38.69264
	-83.56703	38.69358
	-83.56428	38.69475
	-83.56175	38.69552
	-83.55922	38.69603
	-83.54802	38.69914
	-83.54469	38.70008
	-83.5409	38.70075
	-83.5372	38.7013
	-83.53508	38.70185
	-83.53038	38.70264
	-83.52879	38.70267
	-83.52731	38.70274
	-83.52551	38.70289
	-83.52354	38.70266
	-83.52255	38.70266
	-83.52135	38.70296
	-83.52062	38.70296
	-83.51888	38.70261
	-83.51643	38.70214
	-83.51371	38.70187
	-83.51206	38.70135
	-83.50918	38.7007
	-83.50609	38.69979
	-83.50238	38.69827
	-83.49929	38.69711
	-83.49686	38.69601
	-83.49461	38.69492
	-83.49236	38.69375
	-83.49081	38.69293
	-83.48828	38.69122
	-83.48641	38.69008
	-83.48485	38.68882
	-83.48262	38.68705
	-83.47918	38.68454
	-83.47708	38.68283
	-83.47609	38.68181
	-83.4729	38.67879
	-83.47163	38.67757
	-83.47056	38.67678
	-83.46918	38.67573
	-83.46796	38.67517
	-83.46575	38.67484
	-83.46262	38.67405
	-83.46075	38.67377
	-83.45959	38.67368
	-83.45833	38.67385
	-83.45734	38.67388
	-83.45646	38.67358
	-83.45562	38.6732
	-83.45442	38.67283
	-83.44927	38.67112
	-83.44762	38.67038
	-83.44584	38.66991
	-83.44337	38.66951
	-83.43934	38.66914
	-83.43775	38.66918
	-83.4347	38.66901
	-83.43221	38.66889
	-83.43045	38.66886
	-83.42936	38.66869
	-83.4264	38.66861
	-83.4252	38.66851
	-83.42337	38.6682
	-83.42243	38.66817
	-83.4212	38.66802
	-83.41934	38.66799
	-83.41794	38.66799
	-83.41758	38.6678
	-83.41777	38.66753
	-83.41867	38.66737
	-83.41959	38.66733
	-83.41992	38.6671
	-83.41949	38.66691
	-83.41753	38.66676
	-83.41612	38.6666
	-83.41511	38.66618
	-83.41442	38.66608
	-83.41348	38.66619
	-83.41148	38.6666
	-83.41026	38.66666
	-83.40955	38.66653
	-83.40889	38.66619
	-83.40824	38.66606
	-83.40515	38.66566
	-83.40069	38.66517
	-83.39895	38.66502
	-83.39563	38.66438
	-83.39069	38.66366
	-83.38664	38.66309
	-83.3849	38.66301
	-83.38355	38.66251
	-83.38207	38.66244
	-83.3796	38.66195
	-83.37631	38.66142
	-83.37496	38.66085
	-83.37423	38.66061
	-83.37292	38.66053
	-83.37202	38.66008
	-83.37093	38.65966
	-83.36962	38.65954
	-83.36814	38.65917
	-83.36694	38.6587
	-83.36554	38.65832
	-83.36417	38.65755
	-83.36282	38.65704
	-83.36108	38.65604
	-83.35984	38.6555
	-83.3582	38.65497
	-83.35707	38.65436
	-83.35584	38.65327
	-83.35496	38.65255
	-83.35404	38.65213
	-83.3522	38.65157
	-83.35093	38.65108
	-83.34846	38.64974
	-83.34675	38.64868
	-83.34563	38.64815
	-83.34409	38.64766
	-83.34222	38.64662
	-83.33956	38.6452
	-83.33855	38.64461
	-83.33645	38.64335
	-83.33557	38.64302
	-83.33518	38.64283
	-83.33464	38.64211
	-83.33252	38.64086
	-83.32859	38.63843
	-83.32773	38.63781
	-83.3272	38.63725
	-83.32638	38.63539
	-83.32602	38.63487
	-83.32518	38.63454
	-83.32462	38.63425
	-83.32441	38.63363
	-83.32415	38.63321
	-83.32407	38.63266
	-83.32407	38.63224
	-83.32359	38.63206
	-83.32319	38.63177
	-83.32282	38.63132
	-83.32252	38.63075
	-83.32201	38.63
	-83.32145	38.62842
	-83.32098	38.62607
	-83.32085	38.62445
	-83.32035	38.62151
	-83.32001	38.61621
	-83.31977	38.61417
	-83.31924	38.61229
	-83.31868	38.61107
	-83.31797	38.60976
	-83.31692	38.60832
	-83.31529	38.60671
	-83.31381	38.60537
	-83.31291	38.60443
	-83.31175	38.60325
	-83.3102	38.60208
	-83.30892	38.60119
	-83.30651	38.59987
	-83.30417	38.59881
	-83.30085	38.59779
	-83.29879	38.59728
	-83.29735	38.59703
	-83.2946	38.59648
	-83.29282	38.59661
	-83.29089	38.59722
	-83.2883	38.59819
	-83.28707	38.59883
	-83.28561	38.6003
	-83.28458	38.60117
	-83.28214	38.60288
	-83.28061	38.6046
	-83.27855	38.60634
	-83.276	38.60879
	-83.27458	38.60963
	-83.27044	38.6139
	-83.26952	38.61445
	-83.26864	38.61501
	-83.26828	38.61564
	-83.26815	38.61729
	-83.26785	38.61809
	-83.26717	38.61891
	-83.26525	38.62078
	-83.26432	38.62141
	-83.26311	38.62205
	-83.26188	38.62255
	-83.26093	38.62281
	-83.25966	38.62299
	-83.2571	38.62302
	-83.25566	38.62314
	-83.2549	38.62336
	-83.25395	38.62379
	-83.25327	38.62432
	-83.2524	38.62526
	-83.25195	38.6257
	-83.25121	38.62613
	-83.24984	38.62666
	-83.24904	38.62706
	-83.24787	38.62791
	-83.2465	38.62846
	-83.2449	38.62868
	-83.24246	38.62879
	-83.24044	38.62875
	-83.23838	38.62843
	-83.23616	38.62815
	-83.23351	38.62758
	-83.22999	38.62668
	-83.22865	38.62627
	-83.22724	38.6258
	-83.22595	38.62521
	-83.2223	38.62338
	-83.22003	38.62228
	-83.21637	38.62065
	-83.21485	38.61963
	-83.21397	38.61915
	-83.21266	38.61872
	-83.20958	38.61774
	-83.20811	38.61746
	-83.20666	38.61708
	-83.20318	38.6167
	-83.20115	38.61665
	-83.19917	38.6167
	-83.19728	38.61691
	-83.195	38.61695
	-83.19332	38.61706
	-83.1907	38.61742
	-83.18817	38.61772
	-83.18619	38.618
	-83.18382	38.61825
	-83.18274	38.61823
	-83.18232	38.61827
	-83.1814	38.61868
	-83.18044	38.61897
	-83.17959	38.61904
	-83.17872	38.61924
	-83.17688	38.61926
	-83.17496	38.61909
	-83.17242	38.61902
	-83.17078	38.61895
	-83.1696	38.619
	-83.16844	38.61917
	-83.16738	38.61924
	-83.16612	38.61922
	-83.16401	38.6191
	-83.16147	38.61889
	-83.15961	38.61856
	-83.15879	38.6185
	-83.15727	38.61857
	-83.15409	38.61885
	-83.15332	38.6189
	-83.15165	38.6197
	-83.15075	38.62006
	-83.15037	38.62031
	-83.14968	38.62107
	-83.14876	38.62176
	-83.14795	38.62219
	-83.14635	38.62295
	-83.14579	38.62333
	-83.14538	38.62389
	-83.14484	38.62412
	-83.14399	38.62434
	-83.14344	38.6245
	-83.14239	38.62528
	-83.13856	38.62835
	-83.13776	38.62896
	-83.13495	38.63172
	-83.13402	38.63308
	-83.13294	38.63448
	-83.13217	38.63576
	-83.13026	38.63824
	-83.12892	38.64043
	-83.12761	38.64278
	-83.12682	38.64406
	-83.12602	38.64603
	-83.12526	38.64876
	-83.12477	38.65008
	-83.12448	38.65202
	-83.12421	38.65293
	-83.12382	38.65349
	-83.12364	38.65391
	-83.12353	38.65524
	-83.12345	38.65566
	-83.12291	38.65644
	-83.12243	38.65721
	-83.1223	38.65755
	-83.12232	38.6579
	-83.1225	38.65819
	-83.1226	38.65861
	-83.12258	38.65888
	-83.12198	38.66019
	-83.12075	38.66226
	-83.12024	38.66293
	-83.11951	38.66405
	-83.11813	38.6657
	-83.11723	38.66663
	-83.11601	38.66785
	-83.11497	38.66905
	-83.11337	38.67053
	-83.11247	38.67158
	-83.11053	38.67306
	-83.1091	38.67388
	-83.10734	38.67516
	-83.10696	38.67528
	-83.10649	38.67534
	-83.10608	38.67559
	-83.10544	38.67609
	-83.10362	38.67693
	-83.10153	38.67758
	-83.09952	38.67797
	-83.09394	38.67895
	-83.09222	38.67935
	-83.09081	38.67958
	-83.08704	38.68044
	-83.08512	38.68074
	-83.08416	38.68093
	-83.08329	38.68136
	-83.07996	38.68264
	-83.07827	38.68322
	-83.07494	38.68478
	-83.0725	38.68588
	-83.07097	38.68625
	-83.07011	38.68649
	-83.06842	38.68727
	-83.06695	38.68774
	-83.06657	38.68825
	-83.06594	38.68852
	-83.06496	38.6886
	-83.06308	38.68924
	-83.06213	38.68967
	-83.06051	38.69095
	-83.05905	38.69223
	-83.05827	38.69286
	-83.05585	38.69405
	-83.05438	38.6948
	-83.05431	38.69484
	-83.05312	38.69566
	-83.05218	38.69661
	-83.05079	38.6986
	-83.04797	38.70191
	-83.04637	38.70325
	-83.04214	38.70841
	-83.04003	38.71267
	-83.03903	38.71499
	-83.03854	38.71594
	-83.03782	38.71734
	-83.03586	38.71996
	-83.03386	38.72238
	-83.03231	38.72426
	-83.03084	38.72553
	-83.02983	38.72618
	-83.02798	38.72709
	-83.02646	38.7276
	-83.02368	38.72819
	-83.02205	38.72854
	-83.02131	38.72869
	-83.02075	38.72864
	-83.02037	38.72852
	-83.02006	38.72827
	-83.01927	38.72805
	-83.01853	38.72804
	-83.01616	38.72878
	-83.01452	38.72921
	-83.01376	38.72925
	-83.0129	38.72918
	-83.01242	38.72931
	-83.01192	38.72991
	-83.01169	38.72993
	-83.01148	38.72994
	-83.00889	38.7301
	-83.00772	38.7301
	-83.00673	38.73
	-83.0054	38.7299
	-83.00315	38.72987
	-83.00175	38.72971
	-82.99914	38.72935
	-82.99639	38.72884
	-82.99395	38.72847
	-82.99245	38.72813
	-82.98818	38.72704
	-82.98599	38.72647
	-82.98491	38.7263
	-82.98207	38.72606
	-82.97982	38.72595
	-82.97778	38.72613
	-82.97665	38.72643
	-82.97581	38.72674
	-82.97475	38.72691
	-82.97419	38.72708
	-82.97295	38.72761
	-82.9714	38.7284
	-82.97092	38.72858
	-82.97082	38.72856
	-82.97078	38.72841
	-82.97086	38.72823
	-82.97131	38.72774
	-82.97157	38.72746
	-82.97165	38.72725
	-82.97157	38.72715
	-82.97128	38.72724
	-82.97047	38.72791
	-82.96904	38.72858
	-82.96719	38.72963
	-82.96655	38.72999
	-82.96629	38.73034
	-82.9662	38.73066
	-82.96596	38.73078
	-82.96553	38.73092
	-82.96468	38.73153
	-82.96392	38.73185
	-82.96331	38.73217
	-82.96246	38.73272
	-82.96168	38.73347
	-82.96108	38.73386
	-82.96015	38.73432
	-82.95761	38.73574
	-82.95501	38.73706
	-82.9534	38.73793
	-82.95181	38.73876
	-82.95042	38.73961
	-82.9479	38.74082
	-82.94654	38.74147
	-82.94549	38.742
	-82.94399	38.74266
	-82.94113	38.74413
	-82.9398	38.74473
	-82.93762	38.74562
	-82.93347	38.74701
	-82.92519	38.74965
	-82.92251	38.75042
	-82.91989	38.75115
	-82.91767	38.75167
	-82.91662	38.75188
	-82.91378	38.75247
	-82.91101	38.75294
	-82.91	38.75326
	-82.90937	38.75334
	-82.90891	38.75334
	-82.90798	38.75328
	-82.9073	38.7533
	-82.90674	38.75346
	-82.9055	38.75409
	-82.90369	38.75477
	-82.90296	38.75499
	-82.90238	38.75499
	-82.90175	38.75496
	-82.90124	38.75497
	-82.9005	38.75511
	-82.89901	38.75567
	-82.89772	38.75609
	-82.89662	38.75635
	-82.89543	38.75649
	-82.89379	38.75652
	-82.89184	38.75643
	-82.89018	38.75626
	-82.88828	38.75582
	-82.88726	38.7555
	-82.88687	38.75533
	-82.88632	38.75527
	-82.88609	38.7552
	-82.88572	38.75499
	-82.88493	38.75436
	-82.88483	38.7541
	-82.88493	38.75385
	-82.8854	38.75331
	-82.8855	38.75313
	-82.88548	38.75295
	-82.88519	38.75274
	-82.88404	38.75209
	-82.88315	38.7517
	-82.88174	38.75128
	-82.88103	38.75127
	-82.88069	38.75131
	-82.88012	38.7516
	-82.87988	38.75167
	-82.87967	38.75153
	-82.87956	38.75134
	-82.87916	38.75094
	-82.87791	38.74964
	-82.87586	38.74756
	-82.87466	38.74585
	-82.87421	38.74528
	-82.87393	38.74492
	-82.87336	38.74388
	-82.87283	38.74274
	-82.87249	38.74162
	-82.87196	38.74001
	-82.87143	38.73798
	-82.87101	38.73682
	-82.87075	38.73585
	-82.87071	38.73513
	-82.87065	38.73452
	-82.87037	38.73395
	-82.87013	38.73362
	-82.87018	38.73294
	-82.87032	38.73236
	-82.8702	38.73122
	-82.87004	38.7293
	-82.86986	38.72768
	-82.86987	38.72724
	-82.87037	38.72442
	-82.87114	38.72032
	-82.87173	38.71802
	-82.87263	38.71494
	-82.87314	38.71306
	-82.87341	38.71164
	-82.87449	38.70716
	-82.87528	38.70444
	-82.8757	38.70241
	-82.87628	38.69935
	-82.87727	38.69491
	-82.87745	38.69259
	-82.87748	38.69083
	-82.8774	38.68968
	-82.8772	38.68851
	-82.87693	38.68756
	-82.8765	38.68636
	-82.87647	38.68553
	-82.87618	38.6847
	-82.87568	38.68373
	-82.87489	38.68283
	-82.87468	38.68264
	-82.87317	38.68116
	-82.87048	38.67815
	-82.8687	38.67635
	-82.86659	38.67386
	-82.86459	38.67103
	-82.86328	38.66863
	-82.8619	38.66593
	-82.86042	38.66246
	-82.85936	38.65949
	-82.85881	38.6574
	-82.85715	38.64835
	-82.85696	38.64666
	-82.85691	38.64532
	-82.85709	38.6453
	-82.85733	38.64561
	-82.85761	38.64585
	-82.8579	38.64567
	-82.85793	38.64538
	-82.8576	38.6449
	-82.85727	38.64413
	-82.85701	38.64327
	-82.85693	38.64293
	-82.85689	38.64278
	-82.85659	38.64178
	-82.85659	38.64058
	-82.85669	38.63978
	-82.85679	38.63908
	-82.85689	38.63798
	-82.85699	38.63688
	-82.85689	38.63578
	-82.85679	38.63488
	-82.85669	38.63378
	-82.85679	38.63288
	-82.85709	38.63268
	-82.85719	38.63258
	-82.85739	38.63228
	-82.85739	38.63158
	-82.85729	38.63078
	-82.85709	38.62988
	-82.85669	38.62858
	-82.85629	38.62748
	-82.85629	38.62688
	-82.85629	38.62638
	-82.85619	38.62608
	-82.85609	38.62578
	-82.85609	38.62548
	-82.85609	38.62538
	-82.85619	38.62518
	-82.85608	38.62508
	-82.85606	38.625
	-82.85592	38.62448
	-82.85589	38.62398
	-82.85583	38.62328
	-82.85576	38.62264
	-82.85576	38.62185
	-82.85576	38.62128
	-82.85579	38.62081
	-82.85552	38.61928
	-82.85533	38.61824
	-82.85509	38.61704
	-82.85505	38.61679
	-82.85501	38.61656
	-82.85501	38.61654
	-82.855	38.61653
	-82.85493	38.61609
	-82.85458	38.6148
	-82.85429	38.61345
	-82.85392	38.61213
	-82.85355	38.61093
	-82.85288	38.60891
	-82.85229	38.60705
	-82.85207	38.60661
	-82.85184	38.60601
	-82.85131	38.60433
	-82.85013	38.60177
	-82.84895	38.59969
	-82.84799	38.59736
	-82.84752	38.59587
	-82.84719	38.59517
	-82.8461	38.59355
	-82.84536	38.59229
	-82.84431	38.59086
	-82.84312	38.58955
	-82.84195	38.58827
	-82.84072	38.58725
	-82.83956	38.58618
	-82.83954	38.58616
	-82.83942	38.58606
	-82.83811	38.58501
	-82.8373	38.58437
	-82.8365	38.58382
	-82.82811	38.57874
	-82.82786	38.57838
	-82.8284	38.57813
	-82.8268	38.5771
	-82.82574	38.5763
	-82.82414	38.57573
	-82.82286	38.57469
	-82.8217	38.57361
	-82.82016	38.5727
	-82.81602	38.57077
	-82.814	38.56981
	-82.81277	38.56921
	-82.81214	38.56878
	-82.81181	38.56849
	-82.80011	38.56318
	-82.79096	38.56032
	-82.78978	38.55995
	-82.78915	38.55989
	-82.7817	38.55922
	-82.77947	38.55902
	-82.77896	38.55907
	-82.76369	38.5604
	-82.74516	38.55932
	-82.74352	38.55922
	-82.73958	38.55899
	-82.73096	38.55926
	-82.72485	38.5576
	-82.71966	38.55366
	-82.71649	38.5525
	-82.71614	38.55208
	-82.71585	38.55184
	-82.71553	38.55157
	-82.71531	38.55138
	-82.71501	38.55112
	-82.71464	38.55083
	-82.71414	38.55054
	-82.71384	38.55043
	-82.7132	38.55016
	-82.71249	38.54978
	-82.71198	38.54955
	-82.71139	38.5493
	-82.71048	38.54886
	-82.70987	38.54859
	-82.70908	38.54824
	-82.70841	38.54789
	-82.70744	38.54755
	-82.70652	38.54718
	-82.7059	38.54694
	-82.70539	38.54677
	-82.7046	38.54646
	-82.70411	38.54616
	-82.70361	38.54587
	-82.7031	38.54562
	-82.70219	38.54517
	-82.70139	38.54488
	-82.70064	38.54459
	-82.70004	38.54434
	-82.69956	38.54406
	-82.69949	38.54402
	-82.69894	38.5437
	-82.69851	38.54339
	-82.69809	38.54312
	-82.69769	38.54286
	-82.69716	38.5425
	-82.69662	38.54211
	-82.69657	38.54207
	-82.69606	38.54158
	-82.69544	38.54102
	-82.69494	38.54046
	-82.69475	38.54021
	-82.69422	38.53963
	-82.69368	38.53906
	-82.69358	38.53896
	-82.69315	38.53864
	-82.69268	38.5383
	-82.69224	38.53803
	-82.69168	38.53771
	-82.69153	38.53758
	-82.69107	38.5372
	-82.6908	38.5369
	-82.69051	38.53658
	-82.68996	38.53592
	-82.68929	38.53499
	-82.68877	38.5343
	-82.68832	38.53371
	-82.68756	38.53259
	-82.68751	38.53251
	-82.68747	38.53246
	-82.68625	38.53072
	-82.6855	38.52965
	-82.68475	38.52852
	-82.68466	38.52838
	-82.6834	38.52648
	-82.68185	38.52387
	-82.68142	38.52326
	-82.67572	38.5155
	-82.67524	38.51502
	-82.67464	38.51461
	-82.67444	38.51442
	-82.67444	38.51438
	-82.67397	38.51401
	-82.6735	38.51365
	-82.67284	38.51291
	-82.67185	38.51201
	-82.67145	38.51161
	-82.67012	38.51032
	-82.6694	38.50953
	-82.66871	38.50864
	-82.66771	38.50757
	-82.66663	38.50664
	-82.66601	38.50616
	-82.66564	38.50589
	-82.66555	38.50581
	-82.6652	38.5055
	-82.66453	38.50487
	-82.66448	38.50482
	-82.66368	38.50373
	-82.66267	38.5024
	-82.66199	38.50161
	-82.66174	38.50133
	-82.66094	38.50072
	-82.66061	38.50049
	-82.66043	38.50036
	-82.66033	38.50029
	-82.66015	38.50014
	-82.66009	38.50011
	-82.65705	38.49682
	-82.65438	38.49483
	-82.64973	38.49137
	-82.64839	38.49037
	-82.64707	38.48963
	-82.64222	38.4868
	-82.63771	38.48445
	-82.63126	38.4822
	-82.62962	38.48162
	-82.62411	38.4797
	-82.61847	38.47709
	-82.61615	38.47582
	-82.61479	38.47507
	-82.6138	38.47453
	-82.61278	38.47359
	-82.61184	38.47273
	-82.61079	38.47176
	-82.61046	38.47146
	-82.61023	38.47111
	-82.60889	38.46909
	-82.6082	38.46805
	-82.60678	38.46522
	-82.60409	38.45984
	-82.60406	38.45963
	-82.60386	38.45833
	-82.60153	38.44262
	-82.60076	38.43742
	-82.59775	38.42903
	-82.59767	38.4288
	-82.59692	38.4267
	-82.59342	38.42186
	-82.59574	38.41819
	-82.59589	38.41783
	-82.59605	38.41675
	-82.59647	38.41594
	-82.59659	38.41383
	-82.59702	38.41086
	-82.59701	38.41018
	-82.59682	38.40933
	-82.59605	38.40636
	-82.59578	38.40521
	-82.59508	38.40256
	-82.59461	38.39999
	-82.59441	38.39917
	-82.59445	38.39846
	-82.59459	38.39793
	-82.59484	38.39754
	-82.59529	38.39707
	-82.5965	38.39615
	-82.59721	38.39554
	-82.59774	38.39499
	-82.59894	38.39359
	-82.59924	38.39317
	-82.59974	38.39037
	-82.59927	38.38874
	-82.59537	38.38272
	-82.59538	38.38271
	-82.59496	38.38135
	-82.59301	38.37508
	-82.59395	38.37185
	-82.59665	38.36734
	-82.59752	38.36484
	-82.59819	38.35789
	-82.59798	38.34491
	-82.59652	38.34285
	-82.59254	38.34166
	-82.58972	38.34027
	-82.58795	38.33859
	-82.58536	38.33406
	-82.57694	38.32827
	-82.57269	38.3188
	-82.57188	38.31578
	-82.57196	38.31361
	-82.57289	38.31198
	-82.57835	38.30546
	-82.58146	38.30045
	-82.58306	38.29683
	-82.58282	38.29548
	-82.57974	38.29173
	-82.57948	38.28493
	-82.57878	38.28175
	-82.57672	38.27751
	-82.5746	38.27472
	-82.57466	38.26387
	-82.57825	38.25481
	-82.5818	38.24859
	-82.584	38.24637
	-82.58606	38.24562
	-82.59497	38.24545
	-82.60423	38.2473
	-82.60533	38.2473
	-82.60713	38.24598
	-82.61226	38.23609
	-82.61252	38.23455
	-82.61037	38.22677
	-82.60894	38.22366
	-82.60575	38.22114
	-82.60035	38.21895
	-82.59844	38.21739
	-82.59886	38.20101
	-82.59933	38.19723
	-82.60425	38.18764
	-82.61134	38.17155
	-82.61349	38.17024
	-82.61943	38.16903
	-82.62546	38.17049
	-82.63905	38.17111
	-82.643	38.16956
	-82.64474	38.16549
	-82.63895	38.15674
	-82.6384	38.15216
	-82.63829	38.14349
	-82.63731	38.13905
	-82.63647	38.13786
	-82.63426	38.13667
	-82.62618	38.13484
	-82.62212	38.13341
	-82.62117	38.132
	-82.62116	38.12324
	-82.62035	38.12148
	-82.61945	38.12074
	-82.61615	38.12022
	-82.60659	38.12084
	-82.60262	38.11835
	-82.60013	38.11739
	-82.59801	38.11592
	-82.5936	38.11087
	-82.59178	38.10991
	-82.58778	38.10888
	-82.5857	38.107
	-82.58514	38.09806
	-82.58549	38.09426
	-82.58404	38.09066
	-82.57407	38.0821
	-82.56574	38.08064
	-82.5596	38.07284
	-82.55126	38.0708
	-82.54958	38.06858
	-82.54941	38.06306
	-82.54728	38.06109
	-82.54485	38.05852
	-82.54478	38.05426
	-82.54392	38.05213
	-82.54124	38.04844
	-82.53729	38.0452
	-82.53747	38.0427
	-82.53907	38.03979
	-82.53864	38.03738
	-82.53498	38.03225
	-82.53037	38.02879
	-82.52707	38.02759
	-82.52582	38.02641
	-82.52583	38.01956
	-82.52259	38.01297
	-82.51966	38.00854
	-82.51761	38.00722
	-82.51735	38.00513
	-82.51781	38.00248
	-82.51735	38.0012
	-82.51597	37.99993
	-82.51327	37.99967
	-82.50981	38.00125
	-82.5072	38.00151
	-82.49987	37.99916
	-82.48978	37.99887
	-82.48773	37.99833
	-82.48597	37.99571
	-82.48567	37.98935
	-82.48513	37.98692
	-82.48387	37.9845
	-82.48269	37.98401
	-82.47801	37.98521
	-82.4723	37.98665
	-82.47163	37.98683
	-82.46701	37.98558
	-82.46649	37.9853
	-82.46547	37.98478
	-82.46426	37.98341
	-82.46407	37.98029
	-82.46499	37.97686
	-82.46938	37.97306
	-82.47996	37.97317
	-82.48384	37.97157
	-82.48441	37.9699
	-82.48476	37.96575
	-82.48426	37.96365
	-82.47903	37.962
	-82.47267	37.96072
	-82.47166	37.95999
	-82.4718	37.95912
	-82.4751	37.95491
	-82.48096	37.94914
	-82.48512	37.94604
	-82.48784	37.94529
	-82.49529	37.94661
	-82.49668	37.9464
	-82.4973	37.94551
	-82.49728	37.9429
	-82.49682	37.94226
	-82.49373	37.94046
	-82.48957	37.93911
	-82.48904	37.93872
	-82.48916	37.93796
	-82.48974	37.93664
	-82.49118	37.93581
	-82.49755	37.93672
	-82.49826	37.93698
	-82.49899	37.93698
	-82.49909	37.93694
	-82.49971	37.93676
	-82.50033	37.93638
	-82.50127	37.93562
	-82.50201	37.93477
	-82.5022	37.93441
	-82.50231	37.93403
	-82.5023	37.93358
	-82.50217	37.93312
	-82.50023	37.93068
	-82.49936	37.92937
	-82.49826	37.92818
	-82.49705	37.92741
	-82.49608	37.92703
	-82.49476	37.92689
	-82.49299	37.92707
	-82.49148	37.9272
	-82.48596	37.92721
	-82.48373	37.9271
	-82.48218	37.92694
	-82.48119	37.92667
	-82.48047	37.92626
	-82.48019	37.92583
	-82.48011	37.92538
	-82.48033	37.92481
	-82.481	37.9243
	-82.48271	37.92331
	-82.48438	37.92223
	-82.48762	37.9199
	-82.48793	37.9195
	-82.48819	37.91907
	-82.48827	37.91856
	-82.48819	37.91807
	-82.48802	37.91734
	-82.4876	37.91688
	-82.4869	37.91665
	-82.48535	37.91643
	-82.48353	37.91613
	-82.48152	37.91572
	-82.48029	37.9153
	-82.47909	37.91478
	-82.47736	37.9134
	-82.47553	37.91204
	-82.47497	37.91115
	-82.47468	37.91024
	-82.47424	37.90774
	-82.47423	37.90662
	-82.47463	37.9059
	-82.47582	37.90405
	-82.47599	37.9024
	-82.47457	37.90029
	-82.47252	37.89924
	-82.4725	37.89925
	-82.47122	37.89936
	-82.46906	37.90222
	-82.46857	37.904
	-82.46895	37.91096
	-82.4682	37.91385
	-82.4643	37.91504
	-82.46288	37.91483
	-82.46149	37.91309
	-82.46074	37.91074
	-82.45976	37.90957
	-82.45779	37.90909
	-82.45288	37.909
	-82.45135	37.90847
	-82.4476	37.90435
	-82.43858	37.90026
	-82.43575	37.89703
	-82.43211	37.88991
	-82.42902	37.88829
	-82.42148	37.88565
	-82.41978	37.88382
	-82.4192	37.88208
	-82.41934	37.8751
	-82.41869	37.87237
	-82.41768	37.87066
	-82.41634	37.86964
	-82.41442	37.86903
	-82.41029	37.86883
	-82.40746	37.86747
	-82.40844	37.86606
	-82.4098	37.86539
	-82.42213	37.86395
	-82.42409	37.86304
	-82.42426	37.86171
	-82.42351	37.86031
	-82.42198	37.8594
	-82.41465	37.85626
	-82.41546	37.85413
	-82.41555	37.85401
	-82.41862	37.85046
	-82.42048	37.8475
	-82.42048	37.84681
	-82.41737	37.84566
	-82.41315	37.84534
	-82.41217	37.84479
	-82.40894	37.83664
	-82.40787	37.8355
	-82.39968	37.82993
	-82.39844	37.82165
	-82.4022	37.81268
	-82.40223	37.81098
	-82.40165	37.81009
	-82.39871	37.80879
	-82.39698	37.80901
	-82.39375	37.81167
	-82.38921	37.81721
	-82.38777	37.81821
	-82.38659	37.81821
	-82.38526	37.81741
	-82.37958	37.81091
	-82.37851	37.80832
	-82.37739	37.80301
	-82.37487	37.80216
	-82.36997	37.80175
	-82.36778	37.80063
	-82.36556	37.79832
	-82.36498	37.79678
	-82.36379	37.79543
	-82.3612	37.79443
	-82.35612	37.79386
	-82.35427	37.7931
	-82.34885	37.78718
	-82.34045	37.78606
	-82.3397	37.78551
	-82.33838	37.78043
	-82.3391	37.77828
	-82.33889	37.77686
	-82.3376	37.77537
	-82.33598	37.7745
	-82.33261	37.77425
	-82.32987	37.7759
	-82.32583	37.77617
	-82.3237	37.77503
	-82.323	37.77391
	-82.3237	37.77253
	-82.33165	37.76816
	-82.3339	37.76631
	-82.33382	37.76539
	-82.33116	37.76313
	-82.32946	37.76239
	-82.32736	37.76223
	-82.31761	37.76489
	-82.31282	37.76503
	-82.31164	37.76429
	-82.31078	37.76269
	-82.31089	37.76201
	-82.31297	37.76068
	-82.31768	37.75962
	-82.31902	37.75889
	-82.32101	37.75543
	-82.32141	37.75127
	-82.32822	37.74848
	-82.33358	37.74328
	-82.33335	37.7412
	-82.32683	37.73626
	-82.31969	37.7344
	-82.31888	37.73376
	-82.3183	37.73305
	-82.31787	37.72772
	-82.3162	37.72154
	-82.3117	37.71877
	-82.3111	37.71733
	-82.31066	37.7133
	-82.30723	37.70767
	-82.30568	37.70671
	-82.30095	37.70614
	-82.29807	37.70414
	-82.29663	37.7024
	-82.29732	37.69982
	-82.30196	37.69622
	-82.30289	37.69368
	-82.3015	37.69078
	-82.29779	37.68775
	-82.29626	37.68707
	-82.29612	37.68617
	-82.29713	37.68423
	-82.30387	37.67839
	-82.3045	37.67716
	-82.30395	37.67576
	-82.30231	37.67555
	-82.29672	37.67807
	-82.29474	37.67828
	-82.29439	37.67796
	-82.29413	37.67338
	-82.29471	37.67226
	-82.29439	37.67045
	-82.29177	37.66914
	-82.28817	37.66823
	-82.28645	37.67013
	-82.28469	37.67528
	-82.28351	37.67608
	-82.2823	37.67583
	-82.27788	37.67
	-82.27325	37.66509
	-82.27293	37.66536
	-82.27153	37.66522
	-82.27113	37.66516
	-82.27038	37.66487
	-82.2703	37.66482
	-82.26967	37.66418
	-82.26909	37.66418
	-82.2688	37.66416
	-82.2686	37.66414
	-82.26795	37.66404
	-82.2675	37.66394
	-82.26678	37.66374
	-82.26558	37.66338
	-82.26527	37.66326
	-82.26457	37.66295
	-82.26402	37.66267
	-82.26328	37.66222
	-82.26212	37.66134
	-82.26095	37.66042
	-82.2601	37.65985
	-82.25916	37.65927
	-82.25832	37.65879
	-82.25756	37.65849
	-82.257	37.6584
	-82.25632	37.65841
	-82.25601	37.65839
	-82.25542	37.65832
	-82.25476	37.65831
	-82.25355	37.65836
	-82.25254	37.65852
	-82.25158	37.65874
	-82.25068	37.65911
	-82.25047	37.65917
	-82.25018	37.65932
	-82.24967	37.65953
	-82.24866	37.65999
	-82.24831	37.66019
	-82.24788	37.66037
	-82.24633	37.66112
	-82.24443	37.6619
	-82.24417	37.66198
	-82.24236	37.66244
	-82.24198	37.6625
	-82.24077	37.66257
	-82.24016	37.66251
	-82.23892	37.66219
	-82.23834	37.66193
	-82.23759	37.66145
	-82.23736	37.66128
	-82.23554	37.6597
	-82.2353	37.65945
	-82.23472	37.65873
	-82.23466	37.65868
	-82.23447	37.65836
	-82.23136	37.6564
	-82.2307	37.65614
	-82.23045	37.65602
	-82.22766	37.65444
	-82.22664	37.65404
	-82.22627	37.65384
	-82.22555	37.65336
	-82.22479	37.65241
	-82.2245	37.65165
	-82.22437	37.65101
	-82.22432	37.64947
	-82.22386	37.64708
	-82.22321	37.64593
	-82.22285	37.64542
	-82.22262	37.64523
	-82.22094	37.64424
	-82.2206	37.64398
	-82.21955	37.64301
	-82.21934	37.64293
	-82.21899	37.64272
	-82.21854	37.64261
	-82.21772	37.6422
	-82.21708	37.64168
	-82.21681	37.6414
	-82.21669	37.64133
	-82.21669	37.64126
	-82.2166	37.64115
	-82.21613	37.64
	-82.21611	37.63956
	-82.21634	37.63848
	-82.21772	37.63592
	-82.2181	37.63541
	-82.21871	37.63484
	-82.21904	37.63459
	-82.21951	37.6343
	-82.21965	37.63417
	-82.21967	37.63404
	-82.21967	37.63328
	-82.21481	37.62757
	-82.21565	37.62624
	-82.21349	37.62541
	-82.20969	37.6251
	-82.20434	37.62581
	-82.20339	37.62613
	-82.20247	37.62748
	-82.2012	37.6279
	-82.19239	37.62561
	-82.1873	37.62694
	-82.18669	37.62758
	-82.18632	37.62929
	-82.18747	37.63703
	-82.18784	37.63854
	-82.18969	37.64039
	-82.19124	37.64287
	-82.19144	37.64438
	-82.18799	37.64758
	-82.18546	37.64893
	-82.17762	37.64896
	-82.17526	37.64797
	-82.17463	37.64742
	-82.17469	37.64653
	-82.17734	37.64172
	-82.17751	37.64042
	-82.17596	37.6374
	-82.17276	37.63401
	-82.17245	37.63259
	-82.17348	37.63106
	-82.1814	37.6268
	-82.18244	37.62397
	-82.18143	37.62184
	-82.17668	37.6182
	-82.17271	37.61985
	-82.16951	37.62198
	-82.16713	37.62182
	-82.16419	37.62019
	-82.16477	37.61829
	-82.1692	37.61303
	-82.16906	37.60987
	-82.16814	37.60849
	-82.16445	37.60801
	-82.15855	37.60955
	-82.15674	37.6092
	-82.15611	37.60495
	-82.15761	37.59677
	-82.15672	37.59279
	-82.14843	37.59091
	-82.14642	37.59265
	-82.14155	37.59517
	-82.13198	37.59354
	-82.13016	37.59154
	-82.12732	37.58667
	-82.1256	37.57902
	-82.12431	37.57781
	-82.12437	37.57641
	-82.1273	37.57268
	-82.1296	37.57197
	-82.14183	37.57095
	-82.14347	37.57037
	-82.14465	37.56831
	-82.14456	37.56694
	-82.14318	37.56577
	-82.1368	37.56442
	-82.13395	37.56224
	-82.13349	37.56071
	-82.1347	37.55728
	-82.13451	37.55444
	-82.1333	37.553
	-82.13178	37.55242
	-82.12709	37.55134
	-82.12382	37.55139
	-82.12198	37.55276
	-82.12061	37.557
	-82.11658	37.55959
	-82.10313	37.5601
	-82.10226	37.55946
	-82.10195	37.55811
	-82.1043	37.55566
	-82.10514	37.55401
	-82.10453	37.55327
	-82.10289	37.55305
	-82.09892	37.5533
	-82.08918	37.556
	-82.0846	37.55541
	-82.07503	37.55582
	-82.07325	37.55502
	-82.06442	37.54452
	-82.06367	37.54193
	-82.06472	37.5391
	-82.06478	37.53892
	-82.06489	37.5384
	-82.06483	37.53768
	-82.06442	37.53687
	-82.06374	37.53618
	-82.06271	37.53592
	-82.06158	37.53586
	-82.06091	37.53594
	-82.05974	37.5362
	-82.05751	37.53677
	-82.05627	37.5369
	-82.05479	37.53676
	-82.05214	37.53609
	-82.04989	37.53531
	-82.04911	37.53482
	-82.04851	37.5342
	-82.04828	37.53363
	-82.04826	37.5327
	-82.04854	37.53148
	-82.04869	37.53023
	-82.04837	37.52918
	-82.04802	37.52876
	-82.04754	37.52837
	-82.04677	37.52816
	-82.04591	37.52811
	-82.04506	37.52832
	-82.04445	37.52874
	-82.04397	37.52936
	-82.04322	37.53082
	-82.04243	37.53354
	-82.04218	37.53425
	-82.04211	37.5351
	-82.04223	37.53587
	-82.04481	37.54181
	-82.04518	37.54437
	-82.04519	37.54491
	-82.04505	37.54591
	-82.04478	37.54671
	-82.04452	37.54709
	-82.04404	37.54754
	-82.04333	37.54794
	-82.04305	37.548
	-82.04278	37.54809
	-82.04175	37.54822
	-82.04087	37.54823
	-82.04001	37.54815
	-82.03943	37.548
	-82.03888	37.5478
	-82.03854	37.54752
	-82.03823	37.54704
	-82.03807	37.54658
	-82.03782	37.5447
	-82.03757	37.54361
	-82.03729	37.54308
	-82.03648	37.54228
	-82.03586	37.54195
	-82.03498	37.54167
	-82.03434	37.5416
	-82.03391	37.54161
	-82.03356	37.54149
	-82.03239	37.54055
	-82.03085	37.53899
	-82.02914	37.53783
	-82.02853	37.53756
	-82.0277	37.5375
	-82.02692	37.53759
	-82.0261	37.53775
	-82.02543	37.53815
	-82.02303	37.53928
	-82.02204	37.53999
	-82.02083	37.54053
	-82.02	37.54068
	-82.01918	37.54066
	-82.01839	37.5404
	-82.01764	37.5398
	-82.01692	37.53856
	-82.01662	37.53777
	-82.01648	37.53659
	-82.01654	37.53543
	-82.01622	37.53457
	-82.01555	37.53393
	-82.01449	37.53361
	-82.01313	37.53327
	-82.01186	37.53314
	-82.00955	37.53309
	-82.00857	37.53313
	-82.00782	37.5333
	-82.00702	37.53382
	-82.00625	37.53429
	-82.00515	37.53542
	-82.00371	37.53785
	-82.00207	37.54013
	-82.00127	37.54132
	-82.00026	37.54235
	-81.99926	37.54308
	-81.9984	37.54335
	-81.99772	37.54339
	-81.99706	37.54329
	-81.99671	37.5431
	-81.99649	37.54284
	-81.99633	37.54232
	-81.99618	37.54143
	-81.99653	37.54024
	-81.99655	37.54011
	-81.99669	37.53891
	-81.99654	37.5385
	-81.99611	37.53824
	-81.99546	37.53797
	-81.99449	37.53795
	-81.99379	37.53806
	-81.99309	37.53836
	-81.99219	37.53888
	-81.99157	37.53953
	-81.99098	37.54032
	-81.99027	37.54155
	-81.98956	37.54252
	-81.98912	37.54283
	-81.98855	37.54307
	-81.98761	37.54321
	-81.98634	37.54317
	-81.9848	37.54282
	-81.98348	37.54239
	-81.98219	37.54225
	-81.98146	37.54237
	-81.98065	37.54276
	-81.97895	37.54389
	-81.9767	37.54585
	-81.97607	37.54625
	-81.97508	37.54657
	-81.97275	37.54688
	-81.97119	37.5469
	-81.96998	37.54678
	-81.96953	37.54667
	-81.96815	37.54591
	-81.96703	37.54507
	-81.96649	37.54457
	-81.96596	37.54413
	-81.9651	37.54388
	-81.96461	37.54357
	-81.96454	37.54325
	-81.96468	37.54189
	-81.96515	37.54101
	-81.9677	37.53778
	-82.05089	37.48053
	-82.06281	37.47091
	-82.11597	37.43352
	-82.11542	37.43185
	-82.11568	37.43138
	-82.11588	37.43055
	-82.11592	37.42989
	-82.11596	37.42966
	-82.11611	37.42904
	-82.1162	37.42878
	-82.11637	37.42843
	-82.11664	37.42806
	-82.11691	37.42778
	-82.11717	37.42758
	-82.11753	37.42737
	-82.11799	37.42717
	-82.11829	37.42707
	-82.11894	37.42689
	-82.12031	37.42634
	-82.12055	37.42626
	-82.12092	37.42617
	-82.12117	37.42614
	-82.12278	37.42602
	-82.12308	37.42601
	-82.1236	37.42602
	-82.12407	37.42605
	-82.12505	37.42714
	-82.20174	37.37511
	-82.20269	37.37404
	-82.24082	37.34725
	-82.24015	37.34678
	-82.2401	37.3465
	-82.23991	37.34635
	-82.23948	37.34565
	-82.23946	37.34561
	-82.23936	37.34466
	-82.23981	37.34362
	-82.2399	37.34351
	-82.24009	37.3433
	-82.24031	37.3431
	-82.24076	37.34277
	-82.24112	37.34259
	-82.24144	37.34247
	-82.24167	37.34199
	-82.24198	37.34166
	-82.24225	37.34145
	-82.2427	37.34121
	-82.24302	37.3411
	-82.24312	37.34108
	-82.24355	37.34102
	-82.24396	37.34102
	-82.24425	37.34103
	-82.2446	37.34108
	-82.24502	37.34121
	-82.24531	37.34135
	-82.24549	37.34147
	-82.24653	37.34159
	-82.24736	37.34265
	-82.25435	37.33774
	-82.2841	37.31707
	-82.28436	37.31716
	-82.28458	37.31721
	-82.28584	37.31743
	-82.28649	37.31744
	-82.28663	37.31743
	-82.28665	37.31741
	-82.28677	37.3174
	-82.28676	37.31733
	-82.28824	37.31626
	-82.28841	37.31638
	-82.2886	37.31612
	-82.2888	37.31589
	-82.28908	37.31568
	-82.28944	37.31533
	-82.28962	37.3151
	-82.28985	37.31473
	-82.28998	37.31443
	-82.29009	37.31411
	-82.29016	37.31379
	-82.2902	37.31348
	-82.29021	37.31296
	-82.29023	37.31281
	-82.29191	37.31164
	-82.30825	37.30084
	-82.30815	37.30064
	-82.308	37.30019
	-82.30798	37.30009
	-82.30795	37.29959
	-82.30799	37.29924
	-82.30811	37.29879
	-82.3083	37.2984
	-82.30848	37.29813
	-82.30889	37.29771
	-82.30926	37.29746
	-82.30939	37.29725
	-82.30953	37.29707
	-82.30991	37.29668
	-82.31006	37.29656
	-82.31065	37.2962
	-82.31104	37.29592
	-82.31172	37.29547
	-82.31228	37.29525
	-82.31245	37.29521
	-82.31293	37.29515
	-82.31311	37.29515
	-82.31372	37.29525
	-82.3143	37.2955
	-82.31449	37.29562
	-82.31479	37.29585
	-82.31603	37.29488
	-82.31708	37.29364
	-82.31739	37.29098
	-82.31896	37.28752
	-82.32462	37.28318
	-82.33157	37.28221
	-82.33694	37.27974
	-82.34071	37.28118
	-82.342	37.2808
	-82.34281	37.28128
	-82.34392	37.28071
	-82.34207	37.27411
	-82.35095	37.26708
	-82.35534	37.26522
	-82.36453	37.26441
	-82.37659	37.2599
	-82.38328	37.26015
	-82.38566	37.25963
	-82.41808	37.25133
	-82.43102	37.24677
	-82.43573	37.24649
	-82.44916	37.24391
	-82.452	37.24256
	-82.45678	37.23849
	-82.45751	37.23884
	-82.45754	37.23898
	-82.4578	37.23961
	-82.45797	37.23984
	-82.45816	37.24004
	-82.45836	37.2402
	-82.45863	37.24036
	-82.45882	37.24045
	-82.45903	37.24052
	-82.4594	37.24059
	-82.45971	37.2406
	-82.46011	37.24054
	-82.46071	37.24039
	-82.46086	37.24034
	-82.46091	37.24037
	-82.46126	37.24045
	-82.46155	37.24047
	-82.46206	37.24041
	-82.46273	37.24011
	-82.46308	37.2398
	-82.46321	37.23965
	-82.46342	37.23931
	-82.46355	37.23898
	-82.4636	37.2388
	-82.46388	37.2388
	-82.46423	37.23874
	-82.46463	37.23859
	-82.46496	37.23839
	-82.46536	37.23799
	-82.46556	37.23763
	-82.46595	37.23752
	-82.46599	37.23754
	-82.46635	37.23762
	-82.46663	37.23763
	-82.467	37.2376
	-82.46745	37.23747
	-82.46768	37.23735
	-82.46809	37.23708
	-82.46831	37.23689
	-82.47054	37.2363
	-82.47061	37.23632
	-82.47084	37.23663
	-82.47102	37.2368
	-82.47119	37.23694
	-82.47142	37.23709
	-82.47154	37.23715
	-82.47179	37.23725
	-82.47193	37.23729
	-82.47228	37.23736
	-82.47255	37.23737
	-82.47284	37.23735
	-82.47315	37.23729
	-82.47333	37.23724
	-82.47389	37.23703
	-82.4748	37.23658
	-82.47499	37.23647
	-82.47558	37.23621
	-82.47623	37.2359
	-82.47666	37.23566
	-82.47706	37.23565
	-82.47737	37.23561
	-82.47773	37.23551
	-82.47853	37.23522
	-82.47929	37.23489
	-82.47959	37.23473
	-82.48024	37.23431
	-82.48054	37.2341
	-82.48083	37.23387
	-82.48105	37.23366
	-82.4816	37.23343
	-82.48206	37.23319
	-82.48256	37.23299
	-82.4828	37.23283
	-82.48309	37.23256
	-82.48366	37.2324
	-82.48407	37.23222
	-82.48538	37.23197
	-82.48562	37.23194
	-82.48586	37.23188
	-82.48615	37.23177
	-82.48642	37.23163
	-82.48659	37.23151
	-82.48673	37.23138
	-82.48706	37.231
	-82.48725	37.23062
	-82.48732	37.23058
	-82.48731	37.2304
	-82.48739	37.23012
	-82.4874	37.22984
	-82.48736	37.22943
	-82.48727	37.22919
	-82.48722	37.2278
	-82.49149	37.22509
	-82.49524	37.22561
	-82.49631	37.22756
	-82.49886	37.22704
	-82.50789	37.22273
	-82.50834	37.22239
	-82.50806	37.22096
	-82.50943	37.21892
	-82.52012	37.21291
	-82.52446	37.21496
	-82.52875	37.21374
	-82.53179	37.2121
	-82.53205	37.21081
	-82.53158	37.20916
	-82.53663	37.20692
	-82.5413	37.20653
	-82.5458	37.20307
	-82.55037	37.20446
	-82.55221	37.20372
	-82.55383	37.20284
	-82.55818	37.19961
	-82.56533	37.19612
	-82.57899	37.1885
	-82.58672	37.18562
	-82.59245	37.18285
	-82.59323	37.18206
	-82.59277	37.18039
	-82.59745	37.17709
	-82.60829	37.17305
	-82.61742	37.16813
	-82.62488	37.16293
	-82.63349	37.15426
	-82.65165	37.15191
	-82.65327	37.15131
	-82.65476	37.1506
	-82.65747	37.14502
	-82.66245	37.14386
	-82.66772	37.14195
	-82.67153	37.13844
	-82.67676	37.13497
	-82.67943	37.13558
	-82.6846	37.13584
	-82.69567	37.13151
	-82.70787	37.12549
	-82.71633	37.12209
	-82.71833	37.12227
	-82.7221	37.12017
	-82.7262	37.11588
	-82.72645	37.11498
	-82.72629	37.11185
	-82.72571	37.11103
	-82.72578	37.1109
	-82.72593	37.11044
	-82.726	37.11001
	-82.72603	37.10948
	-82.72599	37.10912
	-82.72588	37.10871
	-82.7257	37.10826
	-82.72551	37.10766
	-82.72538	37.10738
	-82.72523	37.10711
	-82.725	37.10682
	-82.72493	37.10652
	-82.72482	37.10619
	-82.72477	37.10607
	-82.72458	37.10573
	-82.72429	37.10537
	-82.72397	37.1051
	-82.72377	37.10497
	-82.72367	37.10483
	-82.72347	37.10461
	-82.72325	37.1043
	-82.72312	37.10405
	-82.7228	37.10362
	-82.72242	37.10329
	-82.72207	37.10309
	-82.72199	37.10306
	-82.72189	37.10274
	-82.72175	37.10239
	-82.72169	37.10229
	-82.72162	37.10128
	-82.72167	37.10059
	-82.72184	37.1
	-82.72187	37.09955
	-82.72182	37.09906
	-82.72183	37.09896
	-82.72195	37.0986
	-82.72184	37.09857
	-82.72218	37.09431
	-82.72436	37.09299
	-82.72495	37.0919
	-82.72304	37.08499
	-82.7206	37.08183
	-82.71818	37.08068
	-82.7172	37.07954
	-82.71674	37.07722
	-82.71835	37.07571
	-82.72168	37.07519
	-82.72375	37.07552
	-82.72702	37.07302
	-82.72631	37.06687
	-82.7239	37.06254
	-82.72225	37.05795
	-82.72313	37.05244
	-82.72328	37.04762
	-82.72292	37.0465
	-82.7235	37.04665
	-82.72437	37.04614
	-82.72505	37.04549
	-82.72515	37.04533
	-82.72539	37.04481
	-82.72542	37.0447
	-82.72549	37.04425
	-82.7255	37.04389
	-82.72544	37.04331
	-82.72537	37.04296
	-82.72524	37.04253
	-82.72628	37.0421
	-82.73172	37.04345
	-82.7336	37.04453
	-82.74245	37.04298
	-82.74368	37.0414
	-82.74556	37.02984
	-82.74798	37.02521
	-82.75071	37.02411
	-82.75185	37.02562
	-82.75405	37.02659
	-82.75917	37.02733
	-82.76641	37.02311
	-82.76708	37.02094
	-82.77179	37.01572
	-82.77736	37.01528
	-82.77839	37.01252
	-82.78214	37.00824
	-82.78549	37.0082
	-82.78873	37.00819
	-82.78889	37.0081
	-82.78856	37.00796
	-82.78902	37.00689
	-82.78904	37.00654
	-82.78866	37.00638
	-82.78873	37.00622
	-82.78909	37.00577
	-82.78909	37.00574
	-82.78917	37.00566
	-82.7894	37.00537
	-82.78971	37.00514
	-82.78999	37.00519
	-82.79015	37.00509
	-82.79047	37.00493
	-82.79091	37.00479
	-82.7912	37.00473
	-82.79175	37.00469
	-82.79222	37.00471
	-82.79282	37.00477
	-82.79321	37.00464
	-82.79366	37.00456
	-82.79417	37.00454
	-82.79457	37.00456
	-82.79498	37.0046
	-82.79535	37.00467
	-82.79571	37.00476
	-82.79588	37.00482
	-82.79629	37.005
	-82.79676	37.00529
	-82.7971	37.00558
	-82.79728	37.0058
	-82.79759	37.0057
	-82.79814	37.00565
	-82.79861	37.0057
	-82.799	37.00582
	-82.79916	37.0058
	-82.79954	37.00579
	-82.7999	37.00582
	-82.80018	37.00588
	-82.80049	37.00597
	-82.80065	37.00597
	-82.80132	37.00587
	-82.8021	37.00582
	-82.80299	37.00544
	-82.80332	37.00533
	-82.8036	37.00527
	-82.80396	37.00522
	-82.80492	37.00519
	-82.80541	37.00513
	-82.80581	37.00511
	-82.80644	37.00514
	-82.80699	37.00498
	-82.80743	37.00483
	-82.80797	37.00474
	-82.80822	37.00473
	-82.80911	37.0049
	-82.80953	37.00509
	-82.80976	37.00507
	-82.81008	37.00501
	-82.81028	37.00494
	-82.81138	37.00418
	-82.81226	37.00384
	-82.81258	37.0038
	-82.81298	37.00369
	-82.81356	37.00362
	-82.81385	37.00363
	-82.81451	37.00376
	-82.81507	37.00399
	-82.81564	37.00429
	-82.81611	37.00463
	-82.81633	37.00448
	-82.81668	37.0043
	-82.81693	37.00421
	-82.81736	37.00411
	-82.81784	37.0041
	-82.81829	37.00417
	-82.81898	37.00446
	-82.81898	37.00447
	-82.81932	37.00443
	-82.81978	37.00385
	-82.82046	37.0033
	-82.82087	37.00309
	-82.82131	37.00267
	-82.82286	37.00214
	-82.82317	37.00216
	-82.82345	37.00221
	-82.82393	37.00232
	-82.8246	37.00262
	-82.82498	37.00288
	-82.82577	37.00398
	-82.82583	37.0042
	-82.82592	37.00431
	-82.82632	37.00423
	-82.82661	37.00419
	-82.82723	37.00415
	-82.82747	37.00366
	-82.828	37.00312
	-82.82846	37.00271
	-82.82859	37.00202
	-82.8286	37.00182
	-82.82872	37.00124
	-82.82835	37.00103
	-82.82796	37.00067
	-82.82789	37.00059
	-82.8276	37.00016
	-82.82745	36.99982
	-82.82747	36.99981
	-82.82725	36.99913
	-82.82724	36.99836
	-82.82719	36.99784
	-82.82719	36.99761
	-82.82725	36.99706
	-82.82744	36.99654
	-82.82752	36.99602
	-82.82769	36.99555
	-82.82795	36.99513
	-82.82806	36.99501
	-82.82808	36.9949
	-82.82807	36.99432
	-82.82811	36.99393
	-82.82823	36.9935
	-82.82827	36.99341
	-82.82843	36.99309
	-82.82869	36.99274
	-82.82883	36.99258
	-82.82909	36.99233
	-82.82951	36.99201
	-82.83004	36.99174
	-82.83012	36.99172
	-82.83229	36.99276
	-82.8338	36.99207
	-82.83601	36.98884
	-82.83853	36.98729
	-82.84013	36.98723
	-82.84125	36.98686
	-82.845	36.98381
	-82.84943	36.98348
	-82.8514	36.9845
	-82.85261	36.98496
	-82.85373	36.98518
	-82.85642	36.98222
	-82.85677	36.9791
	-82.85794	36.97828
	-82.86056	36.97827
	-82.86293	36.97998
	-82.86491	36.97901
	-82.86602	36.97827
	-82.86669	36.97805
	-82.86753	36.97752
	-82.86845	36.97648
	-82.86918	36.97418
	-82.8696	36.97104
	-82.8699	36.97122
	-82.87073	36.97103
	-82.87115	36.97088
	-82.87153	36.97067
	-82.87171	36.97056
	-82.87196	36.97036
	-82.87217	36.97017
	-82.87252	36.9698
	-82.87281	36.9693
	-82.87298	36.96864
	-82.87299	36.96822
	-82.87292	36.96778
	-82.87269	36.96692
	-82.87252	36.96654
	-82.87214	36.9659
	-82.87212	36.96567
	-82.8719	36.96503
	-82.87187	36.96497
	-82.87138	36.96439
	-82.87131	36.96433
	-82.86957	36.96451
	-82.86964	36.9658
	-82.86681	36.96594
	-82.86671	36.96585
	-82.86621	36.96515
	-82.86605	36.96464
	-82.866	36.96439
	-82.86596	36.96405
	-82.86595	36.96345
	-82.8652	36.96311
	-82.86489	36.96294
	-82.86458	36.96272
	-82.86436	36.96251
	-82.86404	36.9621
	-82.86378	36.96155
	-82.86365	36.9611
	-82.86357	36.96075
	-82.86355	36.96024
	-82.86304	36.96019
	-82.86266	36.96013
	-82.8623	36.96003
	-82.86162	36.95968
	-82.8613	36.95939
	-82.86107	36.9591
	-82.86084	36.95867
	-82.8607	36.95828
	-82.86059	36.9577
	-82.86136	36.95664
	-82.86053	36.95602
	-82.85844	36.95404
	-82.8557	36.95381
	-82.8561	36.95247
	-82.85997	36.94907
	-82.86044	36.94676
	-82.86167	36.94731
	-82.86183	36.94725
	-82.86239	36.94668
	-82.86241	36.94671
	-82.86247	36.94666
	-82.86286	36.9465
	-82.86368	36.94584
	-82.86394	36.94547
	-82.86413	36.94345
	-82.864	36.94315
	-82.86413	36.94304
	-82.86462	36.94243
	-82.8649	36.94188
	-82.8651	36.94062
	-82.86497	36.9399
	-82.86466	36.93913
	-82.8642	36.93844
	-82.86305	36.93761
	-82.86282	36.93755
	-82.86253	36.93718
	-82.8625	36.93679
	-82.86259	36.93608
	-82.86254	36.93516
	-82.86246	36.93472
	-82.86241	36.93457
	-82.86258	36.93396
	-82.86123	36.93152
	-82.861	36.93145
	-82.86061	36.93137
	-82.85976	36.93129
	-82.85973	36.93127
	-82.85972	36.93129
	-82.85968	36.93129
	-82.85937	36.93093
	-82.85931	36.93091
	-82.859	36.93101
	-82.85881	36.93073
	-82.85821	36.93112
	-82.85796	36.92953
	-82.85863	36.92779
	-82.86003	36.92524
	-82.86194	36.92424
	-82.86347	36.92231
	-82.86519	36.92092
	-82.86613	36.91948
	-82.86603	36.91937
	-82.8661	36.91862
	-82.86587	36.9183
	-82.86578	36.91761
	-82.86592	36.91659
	-82.86601	36.91639
	-82.86643	36.91575
	-82.86672	36.91546
	-82.86756	36.91496
	-82.86835	36.91471
	-82.86854	36.91457
	-82.86879	36.91435
	-82.86906	36.91403
	-82.86944	36.91366
	-82.86977	36.91404
	-82.87051	36.91302
	-82.87168	36.91386
	-82.87214	36.91346
	-82.87378	36.9123
	-82.87621	36.91022
	-82.87747	36.90796
	-82.87256	36.90338
	-82.87007	36.90174
	-82.87321	36.89726
	-82.87644	36.89624
	-82.87864	36.89398
	-82.87786	36.89184
	-82.87857	36.88958
	-82.87949	36.88909
	-82.88463	36.88848
	-82.88763	36.88689
	-82.89003	36.88429
	-82.89544	36.88215
	-82.90632	36.87974
	-82.90798	36.87875
	-82.908	36.87723
	-82.90728	36.87564
	-82.90777	36.87471
	-82.91031	36.87405
	-82.91169	36.87425
	-82.92241	36.87392
	-82.93757	36.86727
	-82.95168	36.86615
	-82.96095	36.86254
	-82.97025	36.85769
	-82.97193	36.85777
	-82.97339	36.8591
	-82.97923	36.85969
	-82.98871	36.85914
	-82.99838	36.85663
	-83.00379	36.85179
	-83.00609	36.84789
	-83.00922	36.8473
	-83.01259	36.84729
	-83.02189	36.84999
	-83.02439	36.85169
	-83.02589	36.85529
	-83.02689	36.85549
	-83.04219	36.85439
	-83.04429	36.85299
	-83.04759	36.85179
	-83.05249	36.85199
	-83.06049	36.85379
	-83.06399	36.85169
	-83.06619	36.85189
	-83.06929	36.85359
	-83.07259	36.85459
	-83.07559	36.85059
	-83.07379	36.84489
	-83.07519	36.84089
	-83.07969	36.84059
	-83.08699	36.83819
	-83.08899	36.83599
	-83.09129	36.83439
	-83.09889	36.83179
	-83.10179	36.82909
	-83.10209	36.82819
	-83.10169	36.82669
	-83.09979	36.82489
	-83.09889	36.82299
	-83.09849	36.81429
	-83.10309	36.80669
	-83.10803	36.80218
	-83.11079	36.80039
	-83.11469	36.79609
	-83.11914	36.78953
	-83.12334	36.78665
	-83.12879	36.78539
	-83.13169	36.78149
	-83.12849	36.77559
	-83.12889	36.76989
	-83.13124	36.76711
	-83.13229	36.76561
	-83.13248	36.7644
	-83.12758	36.76225
	-83.1277	36.7621
	-83.12788	36.76182
	-83.12795	36.76175
	-83.12821	36.7614
	-83.12836	36.76113
	-83.12844	36.76095
	-83.12854	36.76079
	-83.12876	36.76027
	-83.12884	36.75989
	-83.12885	36.75978
	-83.12883	36.75922
	-83.12822	36.75876
	-83.12881	36.75786
	-83.12827	36.75637
	-83.12783	36.75083
	-83.13099	36.74979
	-83.13429	36.74659
	-83.13639	36.74309
	-83.14609	36.74179
	-83.1567	36.74219
	-83.1615	36.73989
	-83.1674	36.73919
	-83.1757	36.73959
	-83.1946	36.73949
	-83.1997	36.73749
	-83.22	36.73129
	-83.2364	36.72689
	-83.2385	36.72709
	-83.2463	36.72529
	-83.2555	36.72179
	-83.2636	36.72099
	-83.2693	36.71849
	-83.2725	36.71779
	-83.2755	36.71799
	-83.2857	36.71519
	-83.2869	36.71399
	-83.2878	36.71379
	-83.3071	36.71139
	-83.3114	36.71029
	-83.313	36.70909
	-83.3157	36.70819
	-83.3428	36.70129
	-83.3497	36.69839
	-83.3508	36.69739
	-83.35361	36.69669
	-83.35461	36.69615
	-83.3564	36.69469
	-83.3592	36.69359
	-83.3602	36.69359
	-83.3621	36.69479
	-83.364	36.69459
	-83.3675	36.69269
	-83.3861	36.68659
	-83.38931	36.68499
	-83.39531	36.67949
	-83.39561	36.67899
	-83.39491	36.67759
	-83.39581	36.67679
	-83.41181	36.67079
	-83.41951	36.66849
	-83.42371	36.66739
	-83.43171	36.66649
	-83.43651	36.66618
	-83.44081	36.66689
	-83.44811	36.66528
	-83.45471	36.66479
	-83.45801	36.66578
	-83.46081	36.66488
	-83.46648	36.6647
	-83.48261	36.66618
	-83.48891	36.66768
	-83.49391	36.67009
	-83.49801	36.67048
	-83.49991	36.67018
	-83.50141	36.66909
	-83.50691	36.66869
	-83.51171	36.66909
	-83.51601	36.66759
	-83.52711	36.66598
	-83.52961	36.66618
	-83.53191	36.66498
	-83.53301	36.66328
	-83.53311	36.66188
	-83.54181	36.65658
	-83.54731	36.65448
	-83.55411	36.65378
	-83.56261	36.65128
	-83.56571	36.64838
	-83.56981	36.64568
	-83.57731	36.64178
	-83.58451	36.64138
	-83.60071	36.63708
	-83.60301	36.63688
	-83.60431	36.63768
	-83.60561	36.63778
	-83.60791	36.63708
	-83.61451	36.63398
	-83.61641	36.63138
	-83.61991	36.62798
	-83.62501	36.62518
	-83.62891	36.62408
	-83.63501	36.62288
	-83.63981	36.62478
	-83.64521	36.62418
	-83.64831	36.62268
	-83.64951	36.61668
	-83.65771	36.61178
	-83.66361	36.60678
	-83.66561	36.60578
	-83.67311	36.60468
	-83.67461	36.60308
	-83.67541	36.60081
	-83.67561	36.59858
	-83.67711	36.59658
	-83.67951	36.59408
	-83.68301	36.59218
	-83.68751	36.58718
	-83.68881	36.58438
	-83.69071	36.58258
	-83.78902	36.58388
	-83.84082	36.58516
	-83.84058	36.58416
	-83.84123	36.58309
	-83.84152	36.58272
	-83.84217	36.58206
	-83.8427	36.58167
	-83.84307	36.58149
	-83.8436	36.58131
	-83.84413	36.58121
	-83.84434	36.58088
	-83.84531	36.57964
	-83.84589	36.57914
	-83.84638	36.57886
	-83.84683	36.57867
	-83.84774	36.57842
	-83.84823	36.57835
	-83.84934	36.57832
	-83.85056	36.5787
	-83.85084	36.57891
	-83.85136	36.57948
	-83.85151	36.5797
	-83.85172	36.58017
	-83.85184	36.58057
	-83.85269	36.5807
	-83.85355	36.58107
	-83.85389	36.58132
	-83.85466	36.58251
	-83.8547	36.58271
	-83.8551	36.58307
	-83.85531	36.58338
	-83.85609	36.58404
	-83.85619	36.58554
	-83.89442	36.58648
	-83.90893	36.587
	-83.90883	36.5875
	-83.90886	36.58772
	-83.90989	36.58922
	-83.91005	36.58931
	-83.9114	36.58924
	-83.91272	36.58962
	-83.91308	36.58958
	-83.91309	36.58965
	-83.91334	36.58981
	-83.91403	36.59008
	-83.91542	36.59034
	-83.91667	36.59017
	-83.91722	36.5899
	-83.9183	36.58849
	-83.91845	36.5877
	-83.91804	36.58763
	-83.91801	36.58733
	-83.92979	36.58776
	-83.9808	36.58938
	-83.98111	36.58907
	-83.98126	36.58895
	-83.98179	36.58857
	-83.9822	36.58832
	-83.9826	36.58813
	-83.98305	36.58788
	-83.98344	36.58763
	-83.98439	36.5871
	-83.98447	36.58703
	-83.98577	36.58655
	-83.98619	36.58655
	-83.98664	36.5866
	-83.98709	36.58671
	-83.98755	36.58674
	-83.98791	36.58667
	-83.98819	36.58666
	-83.98846	36.58646
	-83.98927	36.58611
	-83.99001	36.58597
	-83.9903	36.58594
	-83.99095	36.58592
	-83.99127	36.58593
	-83.99237	36.58607
	-83.99265	36.58613
	-83.99445	36.58663
	-83.99523	36.58704
	-83.99529	36.58709
	-83.99622	36.58686
	-83.99672	36.58695
	-83.99717	36.58712
	-83.99816	36.58681
	-83.99898	36.58672
	-84.00004	36.58684
	-84.00217	36.58704
	-84.00351	36.58659
	-84.00477	36.58659
	-84.00539	36.58679
	-84.00646	36.58764
	-84.0068	36.58818
	-84.00709	36.58901
	-84.00717	36.58976
	-84.00663	36.58982
	-84.00663	36.58993
	-84.00853	36.58997
	-84.02148	36.59004
	-84.12621	36.5914
	-84.22661	36.59218
	-84.22918	36.59218
	-84.26133	36.59198
	-84.27118	36.59188
	-84.30322	36.6357
	-84.34105	36.70735
	-84.33694	36.76981
	-84.31689	36.8282
	-84.32692	36.86869
	-84.2941	36.94486
	-84.29943	36.94447
	-84.29945	36.94472
	-84.29967	36.94543
	-84.29971	36.94552
	-84.29984	36.94573
	-84.30007	36.94603
	-84.30039	36.94632
	-84.30083	36.9466
	-84.30117	36.94674
	-84.30128	36.94677
	-84.30166	36.94686
	-84.30189	36.94689
	-84.30218	36.9469
	-84.30258	36.94689
	-84.30303	36.94683
	-84.30347	36.94668
	-84.30407	36.94627
	-84.3042	36.94615
	-84.30435	36.94605
	-84.30507	36.94569
	-84.30539	36.9455
	-84.30586	36.94514
	-84.30608	36.94495
	-84.3064	36.94462
	-84.3066	36.94438
	-84.30667	36.94429
	-84.30662	36.94396
	-84.3652	36.93976
	-84.33804	36.97241
	-84.33819	36.97251
	-84.33945	36.97366
	-84.34	36.97451
	-84.34011	36.97485
	-84.34021	36.97534
	-84.34024	36.97575
	-84.33951	36.97745
	-84.33948	36.97747
	-84.33943	36.97779
	-84.33894	36.9788
	-84.33803	36.97983
	-84.33751	36.98028
	-84.33733	36.98039
	-84.33603	36.98066
	-84.33574	36.98062
	-84.33468	36.97998
	-84.33442	36.98001
	-84.33435	36.98009
	-84.33345	36.98075
	-84.33262	36.98105
	-84.33242	36.98111
	-84.33171	36.98128
	-84.33128	36.98151
	-84.33029	36.98172
	-84.31461	37.00057
	-84.31415	37.06715
	-84.29547	37.12459
	-84.27724	37.1809
	-84.2549	37.23498
	-84.24579	37.28105
	-84.27769	37.35029
	-84.27952	37.40715
	-84.31233	37.46397
	-84.37219	37.56085
	-84.42372	37.63142
	-84.42362	37.63165
	-84.42351	37.63197
	-84.42344	37.63225
	-84.42335	37.63282
	-84.42331	37.63322
	-84.4233	37.63365
	-84.42334	37.63408
	-84.42341	37.6344
	-84.42357	37.63486
	-84.42378	37.63529
	-84.42433	37.63609
	-84.4244	37.63625
	-84.42462	37.63663
	-84.42529	37.63764
	-84.42542	37.63797
	-84.42562	37.63837
	-84.42581	37.63865
	-84.4264	37.63938
	-84.42666	37.63988
	-84.42724	37.64078
	-84.4275	37.64108
	-84.42801	37.64146
	-84.42808	37.6415
	-84.42856	37.64168
	-84.42864	37.6417
	-84.42912	37.64175
	-84.4292	37.64175
	-84.42968	37.64169
	-84.43004	37.64156
	-84.46629	37.70072
	-84.48498	37.72167
	-84.4849	37.72193
	-84.48488	37.72248
	-84.48513	37.72352
	-84.48532	37.72387
	-84.48556	37.72407
	-84.48555	37.72436
	-84.48562	37.72493
	-84.4859	37.726
	-84.48596	37.72612
	-84.486	37.72634
	-84.48605	37.72709
	-84.48608	37.72733
	-84.4862	37.72797
	-84.48635	37.72843
	-84.48667	37.72912
	-84.48716	37.72978
	-84.48766	37.73021
	-84.4885	37.73065
	-84.48869	37.7307
	-84.48969	37.7307
	-84.49017	37.73057
	-84.49081	37.73027
	-84.49141	37.72985
	-84.49168	37.72962
	-84.49189	37.72941
	-84.51543	37.75581
	-84.51461	37.75765
	-84.51451	37.75802
	-84.51447	37.75825
	-84.51443	37.75887
	-84.51445	37.75925
	-84.51453	37.75971
	-84.51462	37.76005
	-84.51495	37.76103
	-84.5152	37.76168
	-84.51541	37.76208
	-84.51565	37.76242
	-84.51579	37.76258
	-84.51611	37.76289
	-84.51659	37.76326
	-84.51709	37.76361
	-84.51738	37.7638
	-84.51772	37.764
	-84.5182	37.76425
	-84.52044	37.76536
	-84.52303	37.76658
	-84.52317	37.76665
	-84.52336	37.76677
	-84.52337	37.76683
	-84.52334	37.7681
	-84.52537	37.77007
	-84.52682	37.76858
	-84.52782	37.76971
	-84.56327	37.73607
	-84.5813	37.74339
	-84.58112	37.74443
	-84.58115	37.7446
	-84.58224	37.74604
	-84.58251	37.74617
	-84.58409	37.74625
	-84.58473	37.746
	-84.58516	37.74579
	-84.58531	37.7457
	-84.58549	37.7451
	-84.58648	37.7455
	-84.58875	37.74706
	-84.58803	37.74815
	-84.58806	37.74844
	-84.58973	37.75023
	-84.59237	37.75066
	-84.59316	37.75009
	-84.60356	37.75722
	-84.64288	37.78601
	-84.67414	37.78397
	-84.67639	37.82395
	-84.69025	37.84864
	-84.71604	37.86365
	-84.75858	37.84584
	-84.76195	37.84798
	-84.76216	37.84781
	-84.76248	37.84759
	-84.76296	37.84734
	-84.76327	37.84725
	-84.76376	37.84719
	-84.76384	37.84719
	-84.76444	37.84728
	-84.76492	37.84748
	-84.76523	37.84766
	-84.76547	37.84782
	-84.76588	37.84814
	-84.76651	37.84869
	-84.76685	37.84903
	-84.76739	37.84948
	-84.76711	37.8498
	-84.76833	37.85122
	-84.76779	37.85168
	-84.77501	37.85627
	-84.7589	37.87001
	-84.7763	37.90511
	-84.79596	37.93333
	-84.81884	37.94985
	-84.79145	37.9684
	-84.81369	37.9712
	-84.82626	37.98111
	-84.81788	37.9999
	-84.83915	38.00777
	-84.82755	38.02225
	-84.84914	38.04915
	-84.82239	38.05296
	-84.84301	38.06844
	-84.83474	38.07954
	-84.83442	38.07945
	-84.83402	38.07939
	-84.83351	38.0794
	-84.83313	38.07947
	-84.83293	38.07952
	-84.83269	38.0796
	-84.83231	38.07978
	-84.83221	38.07984
	-84.832	38.07999
	-84.83171	38.08025
	-84.83146	38.08054
	-84.83122	38.08096
	-84.83111	38.08121
	-84.83098	38.0816
	-84.83091	38.08208
	-84.83074	38.08204
	-84.83034	38.082
	-84.82977	38.082
	-84.82781	38.08404
	-84.82985	38.086
	-84.82993	38.086
	-84.82883	38.08747
	-84.86203	38.09026
	-84.86557	38.13489
	-84.93197	38.14528
	-84.93873	38.16733
	-84.91366	38.19679
	-84.91385	38.19678
	-84.91388	38.19942
	-84.91398	38.1995
	-84.91395	38.19955
	-84.9136	38.19992
	-84.91266	38.20085
	-84.91249	38.201
	-84.91211	38.20145
	-84.90949	38.2017
	-84.90489	38.2071
	-84.89974	38.22583
	-84.89361	38.239
	-84.87492	38.25089
	-84.90232	38.26304
	-84.88878	38.2724
	-84.86751	38.26962
	-84.86267	38.28075
	-84.88523	38.29618
	-84.86461	38.30655
	-84.88298	38.33057
	-84.88362	38.35534
	-84.87009	38.35585
	-84.86815	38.36545
	-84.90038	38.37986
	-84.88523	38.40688
	-84.94357	38.42633
	-84.95968	38.43441
	-84.95291	38.46898
	-84.98965	38.48967
	-84.97805	38.51161
	-85.00835	38.55195
	-85.03671	38.57337
	-85.05446	38.56593
	-85.05718	38.56458
	-85.05896	38.56366
	-85.05977	38.56332
	-85.06024	38.56319
	-85.061	38.56308
	-85.0623	38.56333
	-85.0635	38.56404
	-85.06421	38.56475
	-85.06484	38.56581
	-85.06509	38.56715
	-85.06499	38.56778
	-85.06489	38.56818
	-85.06476	38.56851
	-85.07635	38.5774
	-85.07603	38.59479
	-85.08238	38.60396
	-85.08169	38.60438
	-85.08115	38.60488
	-85.0809	38.6052
	-85.08061	38.60573
	-85.08039	38.60636
	-85.0803	38.60668
	-85.08009	38.6079
	-85.07991	38.6091
	-85.08048	38.61082
	-85.08106	38.6114
	-85.08153	38.61174
	-85.08277	38.6124
	-85.08311	38.61268
	-85.08438	38.61315
	-85.08482	38.61315
	-85.08529	38.6131
	-85.08596	38.61294
	-85.08633	38.61281
	-85.08822	38.61195
	-85.08835	38.61186
	-85.11057	38.63323
	-85.1402	38.65565
	-85.1762	38.65494
	-85.18532	38.66846
	-85.18942	38.68767
END
END
