US_Kentucky_Louisville
1
	-87.04536	37.86773
	-87.04385	37.8708
	-87.04305	37.87505
	-87.04341	37.87994
	-87.04414	37.88403
	-87.04589	37.88757
	-87.04624	37.88987
	-87.0451	37.89377
	-87.04225	37.89829
	-87.03344	37.90659
	-87.01031	37.91967
	-87.0033	37.9224
	-86.97896	37.9302
	-86.96904	37.93286
	-86.96478	37.93238
	-86.9642	37.93242
	-86.9452	37.93346
	-86.93336	37.93494
	-86.92775	37.93496
	-86.91933	37.93666
	-86.90713	37.94302
	-86.90241	37.94616
	-86.89208	37.95593
	-86.88496	37.96437
	-86.88134	37.96752
	-86.87587	37.97077
	-86.87039	37.97528
	-86.86694	37.97929
	-86.86322	37.9825
	-86.85595	37.98729
	-86.84903	37.99002
	-86.83516	37.99375
	-86.82349	37.99894
	-86.82007	37.99939
	-86.81527	37.99888
	-86.81091	37.99715
	-86.79498	37.98898
	-86.7906	37.98006
	-86.78804	37.97284
	-86.77999	37.95652
	-86.76505	37.93251
	-86.75099	37.91289
	-86.73472	37.89659
	-86.73146	37.89434
	-86.72225	37.89265
	-86.71846	37.89312
	-86.71614	37.89407
	-86.70782	37.89837
	-86.69199	37.90853
	-86.68601	37.91308
	-86.68093	37.91501
	-86.67304	37.9149
	-86.66089	37.91306
	-86.65009	37.91062
	-86.64708	37.90862
	-86.64551	37.90653
	-86.64414	37.90237
	-86.64404	37.8982
	-86.64475	37.89481
	-86.64873	37.88604
	-86.65837	37.86938
	-86.66123	37.86276
	-86.66249	37.85695
	-86.66158	37.84942
	-86.65827	37.84414
	-86.6553	37.84251
	-86.65252	37.84164
	-86.64803	37.84143
	-86.63826	37.84272
	-86.63427	37.84385
	-86.63405	37.84393
	-86.62576	37.84727
	-86.61521	37.85286
	-86.60916	37.85541
	-86.60462	37.85827
	-86.59811	37.86738
	-86.59732	37.87016
	-86.59748	37.87148
	-86.59771	37.87542
	-86.59832	37.88042
	-86.59815	37.88455
	-86.6001	37.90122
	-86.59985	37.90675
	-86.59845	37.91096
	-86.59612	37.91429
	-86.58858	37.92116
	-86.58654	37.92229
	-86.58032	37.92314
	-86.56626	37.92216
	-86.54851	37.91784
	-86.54072	37.91687
	-86.53416	37.91701
	-86.52828	37.91862
	-86.51924	37.92216
	-86.511	37.92612
	-86.50783	37.92883
	-86.50662	37.93072
	-86.50704	37.93644
	-86.50939	37.94249
	-86.51259	37.94695
	-86.51857	37.9518
	-86.5205	37.95444
	-86.52383	37.96217
	-86.52517	37.96823
	-86.52489	37.98183
	-86.52584	37.99838
	-86.52567	38.00715
	-86.52466	38.01289
	-86.52438	38.01861
	-86.52497	38.02788
	-86.52182	38.03833
	-86.5194	38.04124
	-86.51729	38.04263
	-86.51176	38.04445
	-86.50005	38.04576
	-86.48039	38.04558
	-86.4719	38.04622
	-86.45219	38.05049
	-86.43824	38.06043
	-86.43551	38.06332
	-86.43323	38.06662
	-86.43279	38.06717
	-86.43135	38.07334
	-86.43052	38.0783
	-86.43076	38.08143
	-86.43161	38.0837
	-86.43346	38.08578
	-86.43718	38.08826
	-86.44124	38.08983
	-86.44659	38.09094
	-86.45214	38.09266
	-86.45991	38.09656
	-86.46386	38.10118
	-86.46622	38.10678
	-86.4668	38.11074
	-86.46608	38.11444
	-86.46487	38.11697
	-86.46293	38.11943
	-86.45711	38.12453
	-86.44979	38.12722
	-86.43175	38.12612
	-86.41876	38.11769
	-86.40507	38.1058
	-86.40141	38.10504
	-86.39557	38.10794
	-86.39318	38.11347
	-86.38722	38.12463
	-86.37977	38.12927
	-86.37523	38.13009
	-86.35247	38.12846
	-86.33514	38.12924
	-86.3284	38.13288
	-86.32345	38.13903
	-86.32091	38.1471
	-86.32503	38.15406
	-86.32744	38.15624
	-86.33079	38.15764
	-86.33553	38.15941
	-86.3391	38.16009
	-86.3468	38.16071
	-86.35626	38.16124
	-86.36171	38.16195
	-86.36675	38.1634
	-86.37038	38.16528
	-86.37327	38.168
	-86.37523	38.17139
	-86.37622	38.17505
	-86.37666	38.17925
	-86.37659	38.18335
	-86.37546	38.18741
	-86.37402	38.19055
	-86.37046	38.19363
	-86.36562	38.19588
	-86.36106	38.19673
	-86.35711	38.19649
	-86.35217	38.19525
	-86.34742	38.19296
	-86.34242	38.18967
	-86.33679	38.18517
	-86.33449	38.18302
	-86.33109	38.18099
	-86.32451	38.17419
	-86.31894	38.17082
	-86.31421	38.16936
	-86.31162	38.16858
	-86.3049	38.16686
	-86.28777	38.15805
	-86.2718	38.13787
	-86.27122	38.13011
	-86.27866	38.09851
	-86.27872	38.0893
	-86.27358	38.06744
	-86.26731	38.05765
	-86.26689	38.05712
	-86.26127	38.05272
	-86.24997	38.04583
	-86.23306	38.0393
	-86.22552	38.03328
	-86.22037	38.02792
	-86.20644	38.02188
	-86.19093	38.01644
	-86.17898	38.01131
	-86.17219	38.00992
	-86.16731	38.00988
	-86.14106	38.01547
	-86.12961	38.01593
	-86.12311	38.01585
	-86.12027	38.01555
	-86.11606	38.01484
	-86.11093	38.01366
	-86.10592	38.01244
	-86.10023	38.01074
	-86.09466	38.00864
	-86.08917	38.00607
	-86.08391	38.00294
	-86.07975	38.00019
	-86.07612	37.99685
	-86.07428	37.99441
	-86.07429	37.99424
	-86.07437	37.99418
	-86.07453	37.9942
	-86.07566	37.99513
	-86.0766	37.99607
	-86.07671	37.99599
	-86.07673	37.99569
	-86.07551	37.99323
	-86.07406	37.99039
	-86.07065	37.98386
	-86.06813	37.98165
	-86.06692	37.97955
	-86.06486	37.97631
	-86.06215	37.97245
	-86.0584	37.96839
	-86.05484	37.96489
	-86.05223	37.96213
	-86.05	37.9606
	-86.04768	37.95947
	-86.04537	37.95884
	-86.04352	37.95869
	-86.04156	37.95878
	-86.03971	37.95923
	-86.03807	37.9601
	-86.03632	37.96156
	-86.03517	37.96327
	-86.03425	37.96649
	-86.03374	37.96886
	-86.03381	37.97195
	-86.0344	37.97487
	-86.03509	37.97803
	-86.03542	37.98029
	-86.03535	37.98255
	-86.03489	37.98519
	-86.03386	37.98789
	-86.03271	37.98994
	-86.03106	37.99164
	-86.02831	37.99322
	-86.02491	37.99471
	-86.02168	37.99556
	-86.0172	37.99616
	-85.99658	38.00007
	-85.97603	38.00356
	-85.9583	38.00462
	-85.95466	38.00514
	-85.95334	38.00534
	-85.95104	38.0066
	-85.94921	38.0071
	-85.94726	38.00778
	-85.94569	38.00841
	-85.94365	38.0093
	-85.94171	38.01029
	-85.93845	38.01229
	-85.93737	38.01301
	-85.93633	38.01375
	-85.93575	38.01418
	-85.93532	38.01453
	-85.93509	38.01467
	-85.93416	38.01541
	-85.93338	38.016
	-85.93279	38.01651
	-85.93227	38.01702
	-85.93068	38.01831
	-85.93031	38.01868
	-85.9299	38.01914
	-85.92946	38.01947
	-85.92895	38.01992
	-85.92819	38.02067
	-85.92785	38.02103
	-85.92758	38.02144
	-85.92651	38.02269
	-85.92567	38.02378
	-85.92513	38.02441
	-85.92498	38.02469
	-85.92459	38.02525
	-85.92398	38.02622
	-85.92392	38.02634
	-85.92374	38.0266
	-85.92302	38.02782
	-85.92288	38.02815
	-85.92268	38.02853
	-85.92254	38.02893
	-85.9223	38.02933
	-85.92205	38.02999
	-85.92154	38.03114
	-85.92132	38.03184
	-85.92121	38.03259
	-85.92101	38.03301
	-85.92105	38.03333
	-85.92089	38.03396
	-85.92068	38.0345
	-85.92061	38.03487
	-85.92053	38.03511
	-85.92011	38.03682
	-85.92007	38.03716
	-85.91995	38.03775
	-85.9199	38.03828
	-85.9199	38.03852
	-85.91979	38.03871
	-85.91978	38.03891
	-85.91979	38.0391
	-85.91966	38.03962
	-85.91961	38.03996
	-85.9195	38.04024
	-85.91949	38.04047
	-85.9195	38.04081
	-85.91944	38.04126
	-85.91939	38.04228
	-85.91933	38.0431
	-85.91925	38.04507
	-85.91901	38.04652
	-85.9189	38.04824
	-85.91883	38.04865
	-85.91878	38.04929
	-85.9187	38.04997
	-85.91864	38.05028
	-85.91856	38.05047
	-85.91853	38.05073
	-85.91858	38.0508
	-85.91858	38.05101
	-85.9185	38.05125
	-85.91851	38.05148
	-85.91841	38.05195
	-85.91833	38.05271
	-85.91832	38.05335
	-85.91825	38.05389
	-85.91818	38.05396
	-85.91819	38.05415
	-85.91817	38.05454
	-85.91803	38.05496
	-85.91799	38.05582
	-85.91792	38.05599
	-85.91791	38.05667
	-85.91784	38.05739
	-85.91773	38.05812
	-85.91763	38.05893
	-85.91753	38.05908
	-85.91761	38.05919
	-85.91756	38.05937
	-85.91756	38.05967
	-85.91741	38.05989
	-85.91729	38.05996
	-85.91725	38.06037
	-85.91729	38.06063
	-85.91739	38.06085
	-85.91734	38.06139
	-85.91711	38.06274
	-85.91688	38.06361
	-85.91645	38.06478
	-85.9163	38.06528
	-85.91619	38.06581
	-85.91612	38.06631
	-85.91597	38.06654
	-85.91579	38.06696
	-85.91481	38.07036
	-85.91434	38.07173
	-85.91411	38.07262
	-85.91367	38.0737
	-85.91313	38.07485
	-85.91265	38.07603
	-85.9123	38.07674
	-85.9122	38.07701
	-85.91176	38.07804
	-85.91136	38.07887
	-85.91066	38.08011
	-85.91005	38.0813
	-85.90933	38.08279
	-85.90888	38.08391
	-85.90839	38.08495
	-85.90752	38.08707
	-85.90702	38.08886
	-85.90687	38.0892
	-85.90658	38.08995
	-85.90615	38.09144
	-85.90595	38.09225
	-85.90551	38.09418
	-85.90542	38.09514
	-85.90537	38.09552
	-85.9054	38.09586
	-85.9052	38.09794
	-85.90514	38.09839
	-85.90505	38.09957
	-85.90505	38.10024
	-85.90498	38.10142
	-85.90498	38.10229
	-85.90493	38.10314
	-85.90497	38.10357
	-85.90491	38.10496
	-85.90496	38.10557
	-85.90491	38.10577
	-85.90495	38.1059
	-85.90497	38.10616
	-85.90495	38.10642
	-85.905	38.10671
	-85.90501	38.10717
	-85.90507	38.10738
	-85.90515	38.10794
	-85.9053	38.10862
	-85.90555	38.10936
	-85.90563	38.10987
	-85.90574	38.11011
	-85.90579	38.11046
	-85.90586	38.11074
	-85.90595	38.11164
	-85.90601	38.11187
	-85.90622	38.1132
	-85.90619	38.11348
	-85.90621	38.11368
	-85.90635	38.11427
	-85.90632	38.11452
	-85.90639	38.11476
	-85.90648	38.11565
	-85.90658	38.11619
	-85.90683	38.11778
	-85.90703	38.11874
	-85.90717	38.11964
	-85.9073	38.12035
	-85.90744	38.1214
	-85.90754	38.12191
	-85.90757	38.12221
	-85.90757	38.12253
	-85.9076	38.12287
	-85.90764	38.12306
	-85.90757	38.12316
	-85.9076	38.12323
	-85.90769	38.12333
	-85.90771	38.12346
	-85.90766	38.12357
	-85.90766	38.12366
	-85.90773	38.12372
	-85.90775	38.12377
	-85.90771	38.12392
	-85.90776	38.12402
	-85.90801	38.12549
	-85.90837	38.12831
	-85.9085	38.12902
	-85.90851	38.1298
	-85.90853	38.12992
	-85.90864	38.13025
	-85.90889	38.1328
	-85.90906	38.13498
	-85.90922	38.13757
	-85.90934	38.13811
	-85.90945	38.1392
	-85.9095	38.14031
	-85.90955	38.14202
	-85.90955	38.14306
	-85.90949	38.14432
	-85.90938	38.1453
	-85.9094	38.14557
	-85.90935	38.14598
	-85.90932	38.1468
	-85.90928	38.14694
	-85.90926	38.14727
	-85.90925	38.14816
	-85.90919	38.14877
	-85.90908	38.14935
	-85.90892	38.15105
	-85.9089	38.15177
	-85.90884	38.1525
	-85.90877	38.15299
	-85.90872	38.15381
	-85.90859	38.15502
	-85.90857	38.15589
	-85.90865	38.15699
	-85.90863	38.15767
	-85.90864	38.15807
	-85.9086	38.15849
	-85.90853	38.15889
	-85.90856	38.15902
	-85.90849	38.15922
	-85.90853	38.1594
	-85.90847	38.1596
	-85.90833	38.15991
	-85.90833	38.16052
	-85.90815	38.16148
	-85.90803	38.16227
	-85.90787	38.16303
	-85.90775	38.16332
	-85.90772	38.16349
	-85.90768	38.16393
	-85.90756	38.1642
	-85.90744	38.16457
	-85.90737	38.16506
	-85.90716	38.16581
	-85.90715	38.16596
	-85.90699	38.16644
	-85.90688	38.16672
	-85.90677	38.16694
	-85.90672	38.16739
	-85.90662	38.16777
	-85.90644	38.16824
	-85.9064	38.16868
	-85.90628	38.16897
	-85.9061	38.16929
	-85.906	38.16967
	-85.9057	38.17047
	-85.90523	38.17144
	-85.90485	38.17236
	-85.90455	38.17299
	-85.90431	38.17365
	-85.90409	38.17435
	-85.90394	38.17446
	-85.9036	38.17497
	-85.90266	38.17653
	-85.90139	38.17856
	-85.9004	38.18019
	-85.89912	38.18206
	-85.89457	38.18472
	-85.88942	38.19079
	-85.8841	38.19726
	-85.87904	38.20212
	-85.87539	38.20472
	-85.86492	38.21156
	-85.85827	38.21652
	-85.84947	38.22215
	-85.84471	38.22694
	-85.84081	38.23254
	-85.83818	38.23735
	-85.83642	38.24436
	-85.83574	38.24965
	-85.83501	38.26172
	-85.83424	38.26479
	-85.83063	38.27156
	-85.8275	38.27473
	-85.82261	38.27857
	-85.81767	38.28032
	-85.81313	38.28113
	-85.80826	38.28111
	-85.80295	38.28319
	-85.79178	38.28682
	-85.7881	38.28708
	-85.78252	38.28676
	-85.78055	38.28632
	-85.7775	38.28577
	-85.77475	38.28482
	-85.77081	38.28245
	-85.76812	38.28041
	-85.76656	38.27767
	-85.76236	38.27417
	-85.76106	38.27257
	-85.75291	38.26893
	-85.75183	38.26805
	-85.75106	38.2679
	-85.75073	38.26779
	-85.74976	38.26757
	-85.73997	38.26543
	-85.73237	38.26874
	-85.72276	38.27365
	-85.71504	38.278
	-85.70916	38.28063
	-85.69735	38.28561
	-85.68581	38.29148
	-85.67409	38.29798
	-85.66457	38.30505
	-85.65804	38.31172
	-85.6544	38.31966
	-85.64937	38.32801
	-85.64444	38.33976
	-85.63813	38.35252
	-85.63616	38.35744
	-85.63264	38.3643
	-85.62835	38.3746
	-85.62774	38.38153
	-85.62852	38.39101
	-85.62629	38.39983
	-85.62105	38.41254
	-85.61847	38.41825
	-85.61298	38.42747
	-85.60414	38.43654
	-85.5929	38.44367
	-85.58148	38.4477
	-85.56801	38.44858
	-85.54475	38.45147
	-85.53136	38.45436
	-85.5135	38.45778
	-85.50458	38.46162
	-85.49694	38.46592
	-85.48861	38.47297
	-85.48406	38.48003
	-85.47608	38.49299
	-85.46982	38.50166
	-85.45986	38.51053
	-85.45076	38.51382
	-85.43402	38.5204
	-85.42415	38.52678
	-85.41789	38.53289
	-85.41325	38.54182
	-85.41162	38.5492
	-85.41205	38.56215
	-85.41686	38.57423
	-85.42115	38.58101
	-85.42887	38.59349
	-85.43608	38.60724
	-85.43617	38.61549
	-85.43617	38.62689
	-85.43583	38.63621
	-85.436	38.64546
	-85.43514	38.65183
	-85.43643	38.66028
	-85.44209	38.67046
	-85.44973	38.68199
	-85.45231	38.69023
	-85.45076	38.70269
	-85.44604	38.71113
	-85.43926	38.71903
	-85.42724	38.72981
	-85.42203	38.73251
	-85.41385	38.7347
	-85.40416	38.73443
	-85.39008	38.73195
	-85.381	38.72966
	-85.373	38.72881
	-85.36124	38.72867
	-85.35228	38.7293
	-85.34133	38.73128
	-85.31953	38.73644
	-85.30775	38.73896
	-85.29337	38.74014
	-85.27967	38.73957
	-85.27373	38.73888
	-85.26828	38.73795
	-85.26343	38.7368
	-85.25882	38.73533
	-85.25488	38.73351
	-85.25072	38.73127
	-85.24831	38.72962
	-85.24599	38.72756
	-85.24269	38.72406
	-85.23953	38.72017
	-85.23138	38.70912
	-85.22612	38.70314
	-85.22013	38.69773
	-85.21693	38.69508
	-85.21248	38.6921
	-85.20488	38.68963
	-85.20147	38.69101
	-85.19634	38.68983
	-85.19528	38.68961
	-85.19412	38.68958
	-85.19257	38.68961
	-85.19201	38.68951
	-85.1913	38.68931
	-85.19101	38.6892
	-85.19104	38.68911
	-85.1916	38.68908
	-85.19189	38.6891
	-85.19212	38.68905
	-85.19218	38.6889
	-85.192	38.68874
	-85.19039	38.68799
	-85.18942	38.68767
	-85.18532	38.66846
	-85.1762	38.65494
	-85.1402	38.65565
	-85.11057	38.63323
	-85.08835	38.61186
	-85.08822	38.61195
	-85.08633	38.61281
	-85.08596	38.61294
	-85.08529	38.6131
	-85.08482	38.61315
	-85.08438	38.61315
	-85.08311	38.61268
	-85.08277	38.6124
	-85.08153	38.61174
	-85.08106	38.6114
	-85.08048	38.61082
	-85.07991	38.6091
	-85.08009	38.6079
	-85.0803	38.60668
	-85.08039	38.60636
	-85.08061	38.60573
	-85.0809	38.6052
	-85.08115	38.60488
	-85.08169	38.60438
	-85.08238	38.60396
	-85.07603	38.59479
	-85.07635	38.5774
	-85.06476	38.56851
	-85.06489	38.56818
	-85.06499	38.56778
	-85.06509	38.56715
	-85.06484	38.56581
	-85.06421	38.56475
	-85.0635	38.56404
	-85.0623	38.56333
	-85.061	38.56308
	-85.06024	38.56319
	-85.05977	38.56332
	-85.05896	38.56366
	-85.05718	38.56458
	-85.05446	38.56593
	-85.03671	38.57337
	-85.00835	38.55195
	-84.97805	38.51161
	-84.98965	38.48967
	-84.95291	38.46898
	-84.95968	38.43441
	-84.94357	38.42633
	-84.88523	38.40688
	-84.90038	38.37986
	-84.86815	38.36545
	-84.87009	38.35585
	-84.88362	38.35534
	-84.88298	38.33057
	-84.86461	38.30655
	-84.88523	38.29618
	-84.86267	38.28075
	-84.86751	38.26962
	-84.88878	38.2724
	-84.90232	38.26304
	-84.87492	38.25089
	-84.89361	38.239
	-84.89974	38.22583
	-84.90489	38.2071
	-84.90949	38.2017
	-84.91211	38.20145
	-84.91249	38.201
	-84.91266	38.20085
	-84.9136	38.19992
	-84.91395	38.19955
	-84.91398	38.1995
	-84.91388	38.19942
	-84.91385	38.19678
	-84.91366	38.19679
	-84.93873	38.16733
	-84.93197	38.14528
	-84.86557	38.13489
	-84.86203	38.09026
	-84.82883	38.08747
	-84.82993	38.086
	-84.82985	38.086
	-84.82781	38.08404
	-84.82977	38.082
	-84.83034	38.082
	-84.83074	38.08204
	-84.83091	38.08208
	-84.83098	38.0816
	-84.83111	38.08121
	-84.83122	38.08096
	-84.83146	38.08054
	-84.83171	38.08025
	-84.832	38.07999
	-84.83221	38.07984
	-84.83231	38.07978
	-84.83269	38.0796
	-84.83293	38.07952
	-84.83313	38.07947
	-84.83351	38.0794
	-84.83402	38.07939
	-84.83442	38.07945
	-84.83474	38.07954
	-84.84301	38.06844
	-84.82239	38.05296
	-84.84914	38.04915
	-84.82755	38.02225
	-84.83915	38.00777
	-84.83842	38.00751
	-85.00534	37.94528
	-85.16327	37.9052
	-85.26764	37.88461
	-85.3624	37.87702
	-85.49698	37.87594
	-85.62195	37.81521
	-85.81833	37.75117
	-85.94192	37.73597
	-86.06415	37.63707
	-86.28387	37.52933
	-86.51733	37.45742
	-86.76315	37.48358
	-86.89911	37.60553
	-86.9252	37.81846
	-87.04536	37.86773
END
END
