US_Michigan_Lansing
1
	-83.89958	41.71993
	-83.89976	41.71996
	-84.01937	41.71667
	-84.13442	41.71293
	-84.17647	41.71176
	-84.19878	41.71103
	-84.20688	41.71081
	-84.21053	41.71064
	-84.21548	41.71055
	-84.23073	41.71007
	-84.36041	41.70665
	-84.38844	41.7061
	-84.39661	41.70395
	-84.39707	41.70388
	-84.39818	41.70385
	-84.40304	41.70374
	-84.40917	41.70362
	-84.41622	41.70345
	-84.42199	41.70328
	-84.42827	41.70315
	-84.43797	41.70293
	-84.4384	41.70297
	-84.43988	41.70486
	-84.58542	41.70176
	-84.58583	41.70291
	-84.58589	41.70299
	-84.58672	41.70363
	-84.58684	41.70368
	-84.58757	41.70383
	-84.58854	41.7038
	-84.58935	41.70381
	-84.59061	41.70379
	-84.59103	41.70375
	-84.59158	41.70359
	-84.59174	41.70352
	-84.59207	41.70333
	-84.59266	41.70291
	-84.59279	41.70283
	-84.59308	41.70159
	-84.74995	41.69825
	-84.80608	41.69609
	-84.80604	41.70265
	-84.80602	41.70748
	-84.80604	41.72054
	-84.80606	41.73291
	-84.80607	41.7376
	-84.80613	41.74312
	-84.80588	41.76022
	-84.81671	41.76009
	-84.8167	41.7601
	-84.81873	41.76206
	-84.81949	41.76205
	-84.81998	41.76204
	-84.82014	41.76202
	-84.82019	41.76202
	-84.82026	41.76202
	-84.82047	41.76203
	-84.82057	41.76203
	-84.82068	41.76204
	-84.82119	41.76205
	-84.82127	41.76205
	-84.82514	41.762
	-84.82708	41.76002
	-84.86029	41.75989
	-84.89786	41.75979
	-84.89919	41.75784
	-84.8993	41.75782
	-84.89967	41.75778
	-84.89992	41.75778
	-84.903	41.75775
	-84.90302	41.75775
	-84.90787	41.75776
	-84.91253	41.75777
	-84.91728	41.75772
	-84.91729	41.75772
	-84.91771	41.75772
	-84.91773	41.75772
	-84.92259	41.75774
	-84.92488	41.75771
	-84.92491	41.75771
	-84.93236	41.75773
	-84.9343	41.75967
	-84.96086	41.75944
	-84.96156	41.75955
	-84.97155	41.75953
	-84.9728	41.75937
	-85.01987	41.75968
	-85.03782	41.7598
	-85.03944	41.75999
	-85.07834	41.75984
	-85.08381	41.75982
	-85.1061	41.75974
	-85.11727	41.7597
	-85.1231	41.75974
	-85.17223	41.75962
	-85.19747	41.75975
	-85.21436	41.75979
	-84.8584	43.02071
	-85.08911	44.41809
	-84.77051	45.1588
	-84.8346	45.81279
	-84.67977	45.82008
	-84.59763	45.76781
	-84.50098	45.70631
	-84.41527	45.70061
	-84.31784	45.69413
	-83.59717	45.82128
	-82.51861	45.33864
	-82.32952	44.51283
	-82.32647	44.50001
	-82.2984	44.37501
	-82.29811	44.37446
	-82.26936	44.25001
	-82.24991	44.16514
	-82.24991	44.15875
	-82.21986	44.0286
	-82.19409	43.91326
	-82.158	43.75002
	-82.1455	43.69559
	-82.12281	43.59119
	-82.33407	43.17041
	-82.38997	43.06224
	-82.39903	43.04125
	-82.40954	43.01513
	-82.40998	43.01409
	-82.411	43.01132
	-82.41605	43.00548
	-82.41776	43.00399
	-82.42273	43.00006
	-82.42372	42.99852
	-82.42442	42.99698
	-82.42456	42.9965
	-82.42468	42.99551
	-82.42478	42.9952
	-82.42497	42.99338
	-82.42492	42.99305
	-82.42441	42.99171
	-82.42417	42.99128
	-82.42404	42.99095
	-82.42396	42.99064
	-82.42383	42.99059
	-82.42379	42.99032
	-82.42373	42.99015
	-82.42359	42.98995
	-82.42324	42.98894
	-82.42305	42.98844
	-82.42287	42.98819
	-82.42263	42.98768
	-82.42256	42.98763
	-82.42254	42.98755
	-82.42214	42.98691
	-82.42201	42.98683
	-82.42158	42.98623
	-82.42158	42.98611
	-82.42147	42.98604
	-82.42141	42.98581
	-82.42114	42.9855
	-82.42106	42.98521
	-82.42112	42.98495
	-82.42068	42.9844
	-82.42038	42.98408
	-82.42019	42.98399
	-82.41952	42.98333
	-82.41772	42.98177
	-82.41768	42.98163
	-82.41715	42.98122
	-82.41467	42.97895
	-82.41387	42.9782
	-82.41387	42.97792
	-82.41347	42.97689
	-82.41365	42.97643
	-82.41369	42.9761
	-82.41487	42.97317
	-82.41522	42.97163
	-82.41537	42.9713
	-82.41573	42.97024
	-82.4162	42.96835
	-82.41638	42.96748
	-82.4167	42.96642
	-82.41714	42.96578
	-82.41729	42.96564
	-82.41758	42.96526
	-82.42024	42.96207
	-82.42038	42.96187
	-82.42254	42.95933
	-82.42403	42.95855
	-82.42873	42.95202
	-82.42901	42.9519
	-82.42945	42.95145
	-82.43064	42.95047
	-82.43105	42.95021
	-82.43261	42.94902
	-82.43282	42.94893
	-82.43288	42.94884
	-82.43731	42.94554
	-82.44316	42.94085
	-82.44723	42.93771
	-82.44745	42.93739
	-82.44772	42.93715
	-82.44809	42.93671
	-82.44887	42.9355
	-82.45282	42.93008
	-82.45538	42.92705
	-82.45557	42.92685
	-82.45566	42.92647
	-82.45583	42.92611
	-82.45603	42.92581
	-82.45625	42.92518
	-82.46042	42.91239
	-82.4605	42.91222
	-82.46172	42.90751
	-82.46363	42.90227
	-82.46794	42.89248
	-82.46934	42.88872
	-82.46952	42.8881
	-82.46954	42.88787
	-82.46968	42.88755
	-82.4699	42.88627
	-82.46996	42.88332
	-82.46994	42.88093
	-82.46976	42.87958
	-82.46967	42.87826
	-82.46977	42.87746
	-82.46953	42.87691
	-82.46951	42.87566
	-82.46943	42.87508
	-82.46941	42.87412
	-82.46929	42.87307
	-82.46924	42.87209
	-82.4691	42.87058
	-82.46911	42.86917
	-82.46893	42.86879
	-82.46876	42.86733
	-82.53754	42.87194
	-82.61711	42.88202
	-82.65692	42.87902
	-82.65895	42.88085
	-82.66277	42.88066
	-82.66406	42.88058
	-82.6642	42.88056
	-82.66464	42.88045
	-82.66487	42.88036
	-82.66515	42.88022
	-82.6655	42.87997
	-82.66577	42.87972
	-82.66608	42.87933
	-82.66619	42.87915
	-82.66638	42.87831
	-82.72828	42.87365
	-82.79382	42.86829
	-82.90645	42.86165
	-82.95092	42.83569
	-82.97405	42.86022
	-83.08948	42.86446
	-83.10089	42.86515
	-83.10093	42.86533
	-83.10143	42.86558
	-83.10156	42.86562
	-83.10166	42.86587
	-83.10183	42.86622
	-83.10216	42.86673
	-83.10251	42.86708
	-83.10288	42.86738
	-83.10302	42.86747
	-83.10342	42.86768
	-83.10377	42.86781
	-83.10417	42.8679
	-83.10456	42.86794
	-83.10621	42.86795
	-83.10793	42.86798
	-83.1097	42.86804
	-83.11376	42.8681
	-83.11519	42.86811
	-83.11822	42.86807
	-83.11946	42.86809
	-83.12095	42.86807
	-83.12212	42.86808
	-83.12362	42.86651
	-83.1503	42.8681
	-83.20553	42.8678
	-83.2738	42.86143
	-83.36606	42.8584
	-83.37894	42.85935
	-83.38024	42.85801
	-83.38185	42.85798
	-83.38218	42.85787
	-83.38269	42.85776
	-83.38307	42.85775
	-83.38336	42.85769
	-83.38385	42.85764
	-83.38429	42.85764
	-83.38451	42.85766
	-83.38502	42.85775
	-83.3853	42.85782
	-83.38569	42.85795
	-83.38616	42.85817
	-83.38651	42.85841
	-83.3866	42.85849
	-83.38716	42.85939
	-83.38734	42.85935
	-83.38848	42.86006
	-83.40289	42.86113
	-83.45502	42.86204
	-83.53425	42.85127
	-83.6079	42.84672
	-83.63975	42.82002
	-83.6774	42.78056
	-83.69933	42.73955
	-83.80948	42.73067
	-83.85746	42.7311
	-83.84693	42.69369
	-83.84429	42.64422
	-83.84283	42.6031
	-83.82586	42.5807
	-83.83171	42.5667
	-83.83376	42.55054
	-83.83632	42.54326
	-83.83624	42.54234
	-83.83576	42.54236
	-83.83545	42.53552
	-83.83572	42.53442
	-83.83579	42.53432
	-83.83699	42.53339
	-83.8372	42.53334
	-83.83763	42.53327
	-83.8387	42.53322
	-83.83987	42.53319
	-83.84195	42.52725
	-83.87297	42.51022
	-83.88203	42.49987
	-83.89403	42.49404
	-83.92299	42.48045
	-83.9186	42.45196
	-83.91012	42.42908
	-83.91539	42.42001
	-83.90076	42.40705
	-83.8911	42.37442
	-83.8832	42.36253
	-83.90398	42.3461
	-83.90521	42.3441
	-83.90458	42.34341
	-83.90429	42.34301
	-83.90417	42.34278
	-83.90401	42.3424
	-83.90395	42.34221
	-83.90389	42.34138
	-83.90392	42.34116
	-83.90417	42.34041
	-83.90426	42.34026
	-83.90492	42.33957
	-83.90513	42.33944
	-83.90547	42.33926
	-83.90574	42.33916
	-83.90617	42.33904
	-83.90631	42.33902
	-83.90681	42.339
	-83.90732	42.33906
	-83.908	42.33927
	-83.90811	42.33933
	-83.90816	42.33934
	-83.91334	42.33096
	-83.91305	42.31561
	-83.91217	42.27579
	-83.90076	42.24743
	-83.88789	42.21537
	-83.8835	42.16746
	-83.87618	42.10281
	-83.85892	42.02853
	-83.85102	42.00201
	-83.86097	41.9844
	-83.86009	41.87623
	-83.89286	41.8673
	-83.90076	41.83374
	-83.89169	41.73557
	-83.89958	41.71993
END
END
