US_Mississippi_North
1
	-91.16607	33.00411
	-91.16628	33.01133
	-91.16236	33.01968
	-91.15616	33.02358
	-91.14976	33.02631
	-91.14242	33.02723
	-91.13744	33.02874
	-91.12909	33.03355
	-91.12566	33.03828
	-91.12344	33.04658
	-91.12038	33.05453
	-91.12029	33.05592
	-91.12119	33.05917
	-91.12464	33.06413
	-91.14982	33.0816
	-91.16066	33.0856
	-91.16592	33.08617
	-91.17151	33.08782
	-91.17355	33.08932
	-91.17472	33.09164
	-91.18084	33.09836
	-91.19595	33.10456
	-91.20017	33.10693
	-91.20112	33.10818
	-91.20146	33.10964
	-91.20209	33.12125
	-91.20178	33.12512
	-91.1953	33.13473
	-91.19317	33.13673
	-91.18872	33.13981
	-91.18366	33.14169
	-91.16941	33.14264
	-91.16165	33.14178
	-91.1603	33.14122
	-91.15301	33.13509
	-91.15185	33.1318
	-91.15036	33.1307
	-91.14333	33.12978
	-91.13166	33.1291
	-91.11409	33.12983
	-91.10432	33.1316
	-91.0932	33.13673
	-91.08986	33.13965
	-91.08759	33.14518
	-91.08556	33.15582
	-91.08489	33.1618
	-91.08437	33.18086
	-91.08696	33.19851
	-91.08991	33.21019
	-91.09171	33.22081
	-91.08598	33.22164
	-91.08288	33.22162
	-91.07963	33.22322
	-91.07923	33.22389
	-91.07923	33.2265
	-91.07767	33.22749
	-91.0741	33.22682
	-91.0707	33.2273
	-91.07108	33.2301
	-91.06871	33.23294
	-91.06563	33.23298
	-91.06391	33.23736
	-91.05413	33.24611
	-91.05041	33.2512
	-91.04765	33.25999
	-91.04519	33.2654
	-91.04398	33.26984
	-91.04362	33.27464
	-91.04514	33.27902
	-91.04815	33.2828
	-91.05237	33.28542
	-91.05873	33.2869
	-91.06703	33.28718
	-91.07257	33.28589
	-91.07853	33.28331
	-91.08124	33.28125
	-91.08369	33.27856
	-91.08613	33.27365
	-91.09034	33.25733
	-91.09149	33.25484
	-91.09475	33.2505
	-91.09693	33.24163
	-91.09909	33.23817
	-91.1001	33.23812
	-91.10614	33.2418
	-91.11056	33.24593
	-91.11432	33.25295
	-91.11722	33.26069
	-91.11821	33.26207
	-91.12808	33.2685
	-91.12553	33.27473
	-91.12554	33.28025
	-91.14006	33.29662
	-91.14161	33.29954
	-91.14147	33.31432
	-91.14367	33.3284
	-91.14335	33.33052
	-91.14189	33.33296
	-91.14097	33.33649
	-91.14222	33.34899
	-91.14179	33.35008
	-91.14019	33.35145
	-91.12511	33.3601
	-91.12041	33.36381
	-91.10518	33.38018
	-91.09961	33.38509
	-91.09024	33.39312
	-91.07529	33.40597
	-91.06228	33.42124
	-91.05815	33.42871
	-91.05762	33.44534
	-91.05983	33.45026
	-91.0647	33.45378
	-91.06762	33.4551
	-91.07455	33.45581
	-91.07781	33.45565
	-91.08183	33.45419
	-91.0865	33.45158
	-91.09157	33.44632
	-91.09428	33.44267
	-91.09672	33.4376
	-91.09753	33.43373
	-91.09747	33.43173
	-91.09782	33.42569
	-91.09916	33.41833
	-91.10206	33.41052
	-91.11054	33.40227
	-91.11835	33.39736
	-91.12705	33.39067
	-91.14266	33.38219
	-91.15471	33.38063
	-91.1663	33.37971
	-91.17197	33.38103
	-91.17694	33.38284
	-91.19113	33.38963
	-91.20476	33.39882
	-91.20811	33.40201
	-91.20903	33.40363
	-91.20922	33.40629
	-91.2087	33.40872
	-91.20527	33.41423
	-91.20258	33.41683
	-91.19935	33.41832
	-91.19197	33.41773
	-91.18443	33.41958
	-91.17937	33.41715
	-91.17628	33.41698
	-91.16339	33.42216
	-91.14766	33.42717
	-91.14488	33.42771
	-91.13915	33.42695
	-91.13188	33.43006
	-91.13056	33.4319
	-91.13055	33.43326
	-91.12859	33.43628
	-91.1211	33.44356
	-91.11849	33.44912
	-91.11797	33.45381
	-91.11967	33.46023
	-91.12511	33.47284
	-91.13666	33.48132
	-91.15732	33.49292
	-91.16135	33.4925
	-91.17089	33.4925
	-91.17306	33.48903
	-91.17306	33.48426
	-91.17393	33.47949
	-91.17563	33.47176
	-91.1718	33.46234
	-91.16936	33.45263
	-91.17729	33.44364
	-91.18179	33.44078
	-91.18698	33.43859
	-91.19466	33.43636
	-91.20681	33.43385
	-91.21027	33.4338
	-91.21737	33.4347
	-91.23518	33.43897
	-91.23593	33.44061
	-91.23431	33.4423
	-91.23342	33.44404
	-91.23259	33.45396
	-91.23166	33.4571
	-91.22334	33.46276
	-91.22019	33.46305
	-91.21551	33.46478
	-91.20853	33.46861
	-91.20675	33.47031
	-91.20566	33.47355
	-91.19959	33.48313
	-91.19563	33.48847
	-91.18937	33.493
	-91.18564	33.4964
	-91.1852	33.50074
	-91.1852	33.50464
	-91.1865	33.50724
	-91.18737	33.51055
	-91.21411	33.52871
	-91.2193	33.53236
	-91.22632	33.5412
	-91.22983	33.54705
	-91.23229	33.55279
	-91.23254	33.55745
	-91.23142	33.56059
	-91.23083	33.56123
	-91.22849	33.56467
	-91.22412	33.56737
	-91.22147	33.56817
	-91.2202	33.56834
	-91.20315	33.57076
	-91.19828	33.57206
	-91.18894	33.57623
	-91.18107	33.58152
	-91.17822	33.58261
	-91.17598	33.58297
	-91.16075	33.58135
	-91.15743	33.58137
	-91.15215	33.58272
	-91.13842	33.5909
	-91.13404	33.59449
	-91.13245	33.59699
	-91.13159	33.59945
	-91.13044	33.60603
	-91.1309	33.61092
	-91.13439	33.61951
	-91.13921	33.62566
	-91.1505	33.63301
	-91.16421	33.64328
	-91.17117	33.64777
	-91.17831	33.65111
	-91.18545	33.6536
	-91.21128	33.65853
	-91.21324	33.65927
	-91.21905	33.6615
	-91.223	33.66479
	-91.22654	33.66866
	-91.22823	33.67133
	-91.22901	33.67754
	-91.22786	33.68307
	-91.22528	33.68775
	-91.22057	33.69292
	-91.21208	33.69825
	-91.20538	33.70082
	-91.20071	33.70153
	-91.19011	33.70186
	-91.17573	33.70312
	-91.16585	33.70513
	-91.16246	33.70684
	-91.16087	33.7071
	-91.14419	33.6896
	-91.13342	33.67679
	-91.13045	33.67452
	-91.10098	33.66055
	-91.09404	33.65835
	-91.0882	33.65739
	-91.08413	33.65732
	-91.07851	33.65828
	-91.06711	33.66269
	-91.05918	33.6664
	-91.05052	33.66806
	-91.04641	33.66827
	-91.03684	33.67132
	-91.03456	33.67302
	-91.03146	33.67814
	-91.03033	33.68162
	-91.0304	33.68777
	-91.03337	33.68877
	-91.03612	33.68911
	-91.03715	33.69291
	-91.03902	33.6966
	-91.04126	33.69993
	-91.04678	33.70631
	-91.05556	33.71249
	-91.05989	33.71482
	-91.06375	33.71589
	-91.06829	33.71648
	-91.07539	33.7144
	-91.08987	33.70736
	-91.1011	33.70501
	-91.10765	33.70468
	-91.11773	33.70534
	-91.12553	33.70878
	-91.13234	33.71425
	-91.14473	33.7268
	-91.14579	33.72892
	-91.14662	33.73246
	-91.14652	33.7365
	-91.14329	33.74714
	-91.14454	33.74934
	-91.14457	33.75161
	-91.14155	33.75596
	-91.14076	33.75973
	-91.1413	33.76084
	-91.14363	33.7621
	-91.14481	33.764
	-91.14511	33.76734
	-91.14201	33.77382
	-91.13987	33.77712
	-91.13735	33.77992
	-91.13385	33.78281
	-91.13218	33.78342
	-91.12822	33.78345
	-91.12347	33.78211
	-91.11784	33.77903
	-91.11149	33.77457
	-91.10732	33.77062
	-91.089	33.7758
	-91.08551	33.77641
	-91.06052	33.77764
	-91.05389	33.7787
	-91.02678	33.76364
	-91.02328	33.76299
	-91.01277	33.76467
	-91.00011	33.76917
	-90.99384	33.7736
	-90.99122	33.77679
	-90.98944	33.78058
	-90.98847	33.78453
	-90.9893	33.78802
	-90.99175	33.7926
	-91.00011	33.79955
	-91.00777	33.80259
	-91.0201	33.80445
	-91.02517	33.80595
	-91.04245	33.81285
	-91.04685	33.81536
	-91.04968	33.81873
	-91.05282	33.82418
	-91.05669	33.82894
	-91.06498	33.83713
	-91.06751	33.84044
	-91.07119	33.84954
	-91.07301	33.85745
	-91.0728	33.8624
	-91.07088	33.86671
	-91.06125	33.8775
	-91.05531	33.88303
	-91.05328	33.88473
	-91.03667	33.89853
	-91.02638	33.90798
	-91.01748	33.91908
	-91.01083	33.92555
	-91.01004	33.927
	-91.01032	33.92935
	-91.01299	33.93228
	-91.0201	33.93713
	-91.03596	33.94376
	-91.04672	33.94741
	-91.0785	33.95406
	-91.08409	33.95618
	-91.08676	33.95827
	-91.0887	33.96133
	-91.08979	33.966
	-91.08976	33.96972
	-91.08912	33.97265
	-91.08792	33.97534
	-91.08319	33.97986
	-91.07925	33.9821
	-91.07538	33.98359
	-91.0712	33.98447
	-91.06226	33.98508
	-91.04837	33.98508
	-91.04275	33.98681
	-91.03959	33.9893
	-91.03376	33.99532
	-91.01889	34.00315
	-91.01361	33.9945
	-91.00498	33.97701
	-91.00299	33.9709
	-91.00011	33.96643
	-90.99486	33.96312
	-90.98765	33.96079
	-90.98336	33.96019
	-90.97686	33.9605
	-90.97086	33.96187
	-90.96763	33.96332
	-90.96519	33.96546
	-90.96372	33.96769
	-90.96122	33.97615
	-90.96155	33.97995
	-90.97095	33.99189
	-90.97749	33.99655
	-90.97994	34.00011
	-90.98795	34.01904
	-90.98274	34.02047
	-90.97692	34.02134
	-90.97073	34.02162
	-90.95846	34.02025
	-90.95031	34.01782
	-90.94266	34.01805
	-90.9349	34.01926
	-90.92374	34.02314
	-90.92202	34.02322
	-90.91464	34.02188
	-90.89947	34.0238
	-90.89242	34.02686
	-90.88896	34.02979
	-90.88741	34.03251
	-90.88699	34.03509
	-90.88739	34.03984
	-90.88906	34.04636
	-90.88863	34.05242
	-90.88784	34.0554
	-90.88635	34.05856
	-90.88211	34.0639
	-90.87454	34.07204
	-90.87194	34.07636
	-90.87053	34.08052
	-90.87046	34.08274
	-90.87192	34.08665
	-90.87661	34.09291
	-90.87891	34.09457
	-90.88263	34.09661
	-90.88808	34.09781
	-90.89353	34.09779
	-90.90113	34.09467
	-90.91407	34.09276
	-90.91839	34.09305
	-90.92127	34.09396
	-90.94632	34.10937
	-90.94851	34.11127
	-90.95527	34.11886
	-90.95597	34.12013
	-90.95847	34.1251
	-90.95932	34.13035
	-90.9543	34.1385
	-90.93806	34.14875
	-90.91001	34.16551
	-90.90358	34.16433
	-90.89438	34.16095
	-90.88307	34.1515
	-90.87684	34.14813
	-90.86788	34.14215
	-90.86458	34.14055
	-90.85347	34.13751
	-90.84717	34.13688
	-90.8361	34.13788
	-90.83028	34.13981
	-90.82571	34.14201
	-90.82259	34.14405
	-90.81588	34.14988
	-90.81088	34.1559
	-90.80781	34.16147
	-90.80716	34.16746
	-90.80868	34.17588
	-90.81002	34.17844
	-90.81237	34.18077
	-90.81657	34.18302
	-90.82839	34.18478
	-90.8382	34.1838
	-90.84711	34.18605
	-90.8556	34.18688
	-90.85909	34.18629
	-90.86457	34.18388
	-90.86965	34.18297
	-90.87383	34.18322
	-90.87747	34.18563
	-90.8827	34.18436
	-90.88788	34.18198
	-90.89187	34.18477
	-90.9118	34.1939
	-90.91605	34.19692
	-90.93268	34.21482
	-90.93522	34.21905
	-90.93699	34.22704
	-90.93715	34.23411
	-90.9364	34.2367
	-90.93351	34.24022
	-90.92901	34.24454
	-90.92315	34.24653
	-90.9124	34.24593
	-90.90708	34.24449
	-90.90593	34.24353
	-90.90428	34.24096
	-90.90008	34.22962
	-90.89829	34.22725
	-90.89456	34.22438
	-90.87912	34.21545
	-90.86706	34.21214
	-90.85671	34.2116
	-90.85276	34.2094
	-90.84781	34.20653
	-90.84482	34.211
	-90.84215	34.21688
	-90.84001	34.22308
	-90.83951	34.2262
	-90.84013	34.2301
	-90.83998	34.23611
	-90.83697	34.2501
	-90.83241	34.26749
	-90.83061	34.27125
	-90.82827	34.27365
	-90.82448	34.27624
	-90.82092	34.27784
	-90.81283	34.27944
	-90.80293	34.28247
	-90.79757	34.2824
	-90.77227	34.27994
	-90.76516	34.28052
	-90.75527	34.28685
	-90.75268	34.28927
	-90.74308	34.30226
	-90.74089	34.30654
	-90.74061	34.31347
	-90.74269	34.32026
	-90.74471	34.32487
	-90.74894	34.33105
	-90.75203	34.33328
	-90.76517	34.34282
	-90.76711	34.34526
	-90.76773	34.34687
	-90.76844	34.35347
	-90.76706	34.36027
	-90.76576	34.36211
	-90.76208	34.36475
	-90.7562	34.36726
	-90.75011	34.36792
	-90.74162	34.36722
	-90.72913	34.36421
	-90.72491	34.36366
	-90.71209	34.3638
	-90.70015	34.36586
	-90.6905	34.36861
	-90.68322	34.36882
	-90.68192	34.366
	-90.68051	34.36253
	-90.68162	34.35291
	-90.69155	34.33862
	-90.69369	34.32968
	-90.69313	34.32257
	-90.69	34.31858
	-90.686	34.31577
	-90.6781	34.31303
	-90.66934	34.31302
	-90.66139	34.3154
	-90.65749	34.32223
	-90.65737	34.32729
	-90.6604	34.33576
	-90.66686	34.34857
	-90.66679	34.35582
	-90.65535	34.37185
	-90.65854	34.37571
	-90.6414	34.38387
	-90.63494	34.38636
	-90.63159	34.38719
	-90.61848	34.38877
	-90.61394	34.39072
	-90.58068	34.41055
	-90.57534	34.41515
	-90.57114	34.42032
	-90.5684	34.4248
	-90.5665	34.42953
	-90.56583	34.43438
	-90.56733	34.44038
	-90.57396	34.45188
	-90.57689	34.45435
	-90.58372	34.45883
	-90.58548	34.46125
	-90.58835	34.47056
	-90.58992	34.48479
	-90.58894	34.4911
	-90.58652	34.5001
	-90.58353	34.50409
	-90.58106	34.51282
	-90.57849	34.5163
	-90.56753	34.5259
	-90.55528	34.53101
	-90.54573	34.53775
	-90.54363	34.54038
	-90.54128	34.54533
	-90.54074	34.54809
	-90.54095	34.55085
	-90.54589	34.56326
	-90.54924	34.5681
	-90.55767	34.57693
	-90.56487	34.5826
	-90.57013	34.58746
	-90.57479	34.59524
	-90.58169	34.60423
	-90.58722	34.61573
	-90.58825	34.62662
	-90.58302	34.64268
	-90.58309	34.64361
	-90.58503	34.64707
	-90.58634	34.65169
	-90.58732	34.66541
	-90.58854	34.66865
	-90.58842	34.67096
	-90.58201	34.68024
	-90.57874	34.68384
	-90.57311	34.68642
	-90.56733	34.69337
	-90.56339	34.69588
	-90.55563	34.69795
	-90.55232	34.69709
	-90.54986	34.69548
	-90.54807	34.69317
	-90.54276	34.68878
	-90.54007	34.68498
	-90.53886	34.68246
	-90.53806	34.67323
	-90.53941	34.6709
	-90.55016	34.66345
	-90.55264	34.65971
	-90.55396	34.65502
	-90.5551	34.64624
	-90.55413	34.64087
	-90.55176	34.63648
	-90.54761	34.63166
	-90.5437	34.62956
	-90.53716	34.62777
	-90.53219	34.62749
	-90.52448	34.6285
	-90.51717	34.63093
	-90.5081	34.63668
	-90.50306	34.64079
	-90.49664	34.64812
	-90.48789	34.65488
	-90.47972	34.65993
	-90.46982	34.66944
	-90.46604	34.67431
	-90.46282	34.68407
	-90.46255	34.68758
	-90.46373	34.69109
	-90.46706	34.69564
	-90.47118	34.69907
	-90.47519	34.70083
	-90.48004	34.70152
	-90.48697	34.70148
	-90.49655	34.70058
	-90.50985	34.698
	-90.52208	34.6966
	-90.52921	34.69682
	-90.53897	34.69878
	-90.54605	34.70208
	-90.56565	34.72105
	-90.56748	34.72329
	-90.56808	34.7248
	-90.56817	34.72738
	-90.56724	34.73346
	-90.56544	34.73654
	-90.56354	34.73867
	-90.55989	34.74079
	-90.55631	34.74154
	-90.55319	34.74191
	-90.55028	34.7428
	-90.54761	34.74437
	-90.54582	34.74593
	-90.54381	34.74928
	-90.5427	34.75263
	-90.54263	34.7644
	-90.54622	34.77344
	-90.54786	34.77919
	-90.54817	34.78189
	-90.54761	34.78459
	-90.54407	34.79116
	-90.54022	34.79577
	-90.53651	34.79857
	-90.53133	34.80058
	-90.52289	34.80226
	-90.51471	34.80177
	-90.51276	34.79649
	-90.50368	34.78014
	-90.50152	34.77479
	-90.50099	34.77119
	-90.50132	34.76993
	-90.50549	34.76457
	-90.51652	34.75833
	-90.52056	34.75339
	-90.5219	34.74846
	-90.5219	34.74354
	-90.521	34.73861
	-90.51832	34.73279
	-90.51474	34.72966
	-90.50167	34.72424
	-90.48886	34.72373
	-90.4797	34.72479
	-90.4699	34.72703
	-90.45795	34.73295
	-90.45497	34.73556
	-90.45248	34.7399
	-90.45126	34.74448
	-90.45117	34.74779
	-90.45304	34.75335
	-90.45888	34.76427
	-90.47041	34.78088
	-90.47353	34.78883
	-90.47459	34.7932
	-90.47388	34.7984
	-90.47228	34.80246
	-90.47054	34.80504
	-90.46537	34.81059
	-90.45902	34.81444
	-90.45676	34.82039
	-90.45693	34.82338
	-90.46379	34.83492
	-90.4744	34.84949
	-90.48195	34.8578
	-90.48388	34.86133
	-90.48504	34.86925
	-90.48456	34.8751
	-90.48397	34.87718
	-90.47987	34.88326
	-90.47569	34.88631
	-90.46615	34.89099
	-90.45982	34.89195
	-90.45392	34.89112
	-90.44481	34.88799
	-90.44125	34.88631
	-90.43831	34.88458
	-90.43656	34.88273
	-90.4301	34.87121
	-90.42898	34.86717
	-90.42911	34.86509
	-90.43172	34.85891
	-90.43174	34.85505
	-90.43083	34.84898
	-90.42875	34.8414
	-90.42388	34.83461
	-90.42235	34.83367
	-90.41486	34.83185
	-90.41067	34.83203
	-90.40163	34.8353
	-90.37984	34.84593
	-90.35217	34.8532
	-90.34822	34.85511
	-90.34038	34.86036
	-90.3323	34.85253
	-90.32307	34.84639
	-90.3192	34.84485
	-90.31131	34.84422
	-90.30738	34.8462
	-90.30394	34.85052
	-90.30267	34.85437
	-90.30252	34.85647
	-90.3037	34.8597
	-90.30442	34.86059
	-90.30653	34.86251
	-90.31348	34.8717
	-90.31	34.8751
	-90.30196	34.88005
	-90.27936	34.89008
	-90.25009	34.90732
	-90.24831	34.90974
	-90.24655	34.91417
	-90.24472	34.92103
	-90.24448	34.9376
	-90.24612	34.94432
	-90.24783	34.94792
	-90.25006	34.9512
	-90.25397	34.95499
	-90.25966	34.95779
	-90.27824	34.96508
	-90.28223	34.96766
	-90.28724	34.97253
	-90.29308	34.97457
	-90.29642	34.97635
	-90.30247	34.98208
	-90.30442	34.98494
	-90.3093	34.99569
	-90.3031	34.99569
	-90.2907	34.99549
	-90.23772	34.99554
	-90.16701	34.99491
	-90.13931	34.99472
	-90.13172	34.99469
	-90.12735	34.99468
	-90.10348	34.99475
	-90.09611	34.99476
	-90.07539	34.99492
	-90.06078	34.99485
	-90.05276	34.99487
	-90.04479	34.99495
	-90.04267	34.99496
	-90.03155	34.99486
	-90.02507	34.99486
	-90.00582	34.99497
	-89.98991	34.99509
	-89.98391	34.99506
	-89.98136	34.99506
	-89.97885	34.99504
	-89.97649	34.99506
	-89.9761	34.99504
	-89.97318	34.99502
	-89.9559	34.99495
	-89.95342	34.99495
	-89.95325	34.99494
	-89.91867	34.9948
	-89.9176	34.99478
	-89.91052	34.99472
	-89.90143	34.99467
	-89.89817	34.99459
	-89.89543	34.99454
	-89.89545	34.99456
	-89.89339	34.9965
	-89.89273	34.99648
	-89.88696	34.99642
	-89.88671	34.99643
	-89.88667	34.99642
	-89.88376	34.99639
	-89.88179	34.99439
	-89.87841	34.99439
	-89.87836	34.99433
	-89.87704	34.99432
	-89.85138	34.99419
	-89.84838	34.99441
	-89.84683	34.99439
	-89.84608	34.99441
	-89.84552	34.9944
	-89.84273	34.99442
	-89.8426	34.99439
	-89.84218	34.99441
	-89.84065	34.99443
	-89.83994	34.99446
	-89.83808	34.99447
	-89.83784	34.99448
	-89.83778	34.9945
	-89.83774	34.99446
	-89.83753	34.99441
	-89.83624	34.99444
	-89.83319	34.99446
	-89.83174	34.99451
	-89.83081	34.99451
	-89.83029	34.99449
	-89.82739	34.9945
	-89.82734	34.99457
	-89.82678	34.9945
	-89.82506	34.9945
	-89.82436	34.99453
	-89.82433	34.9945
	-89.82094	34.9945
	-89.81609	34.99452
	-89.81583	34.99453
	-89.8146	34.99453
	-89.81305	34.99451
	-89.80899	34.99454
	-89.80284	34.99455
	-89.80225	34.99456
	-89.80207	34.99455
	-89.79734	34.99458
	-89.79538	34.99655
	-89.7887	34.99656
	-89.78793	34.99649
	-89.78715	34.9964
	-89.78627	34.99637
	-89.78308	34.99637
	-89.78052	34.99641
	-89.77783	34.99642
	-89.77604	34.99464
	-89.76841	34.99467
	-89.75986	34.99478
	-89.74178	34.99519
	-89.64428	34.99529
	-89.61941	34.99518
	-89.5131	34.99476
	-89.5112	34.99277
	-89.50013	34.99254
	-89.49419	34.99236
	-89.49378	34.99236
	-89.49246	34.99282
	-89.49224	34.99301
	-89.49172	34.99367
	-89.49161	34.9939
	-89.49152	34.99424
	-89.4869	34.99397
	-89.48098	34.99395
	-89.48004	34.99374
	-89.47955	34.9937
	-89.47875	34.99372
	-89.47817	34.99382
	-89.47782	34.99394
	-89.43495	34.99375
	-89.43369	34.99376
	-89.43198	34.99571
	-89.43092	34.99578
	-89.43041	34.99575
	-89.42994	34.99565
	-89.42867	34.99378
	-89.21743	34.99473
	-89.15683	34.99393
	-89.13914	34.99431
	-89.139	34.99433
	-89.02654	34.99496
	-89.01713	34.99495
	-89.01446	34.99494
	-89.01387	34.99319
	-89.01196	34.99224
	-89.01088	34.99204
	-89.00993	34.99213
	-89.009	34.99247
	-89.0082	34.99301
	-89.00787	34.99316
	-89.0072	34.99493
	-88.92524	34.99484
	-88.88698	34.99587
	-88.85104	34.99509
	-88.82306	34.99517
	-88.72073	34.99541
	-88.46988	34.99603
	-88.4698	34.99605
	-88.38051	34.99561
	-88.36421	34.99559
	-88.3629	34.99745
	-88.36153	34.99768
	-88.36121	34.99771
	-88.3569	34.99776
	-88.35547	34.99719
	-88.35509	34.99679
	-88.35515	34.99558
	-88.25811	34.99546
	-88.25616	34.99548
	-88.25382	34.99555
	-88.25181	34.99556
	-88.20034	34.99563
	-88.20002	34.9956
	-88.19806	34.99014
	-88.1948	34.98587
	-88.1885	34.977
	-88.18597	34.97321
	-88.18284	34.97027
	-88.17842	34.96584
	-88.17558	34.96169
	-88.17127	34.95386
	-88.1693	34.94915
	-88.16434	34.94005
	-88.1599	34.93098
	-88.15489	34.923
	-88.15234	34.92048
	-88.14478	34.91329
	-88.13817	34.90882
	-88.13141	34.90517
	-88.12202	34.90127
	-88.10951	34.89729
	-88.09764	34.89224
	-88.10601	34.82456
	-88.10756	34.81163
	-88.10811	34.80757
	-88.11065	34.78881
	-88.11378	34.76575
	-88.11414	34.76312
	-88.11469	34.76346
	-88.1152	34.76335
	-88.11594	34.76302
	-88.11633	34.76274
	-88.11691	34.76209
	-88.1171	34.76174
	-88.11735	34.76091
	-88.11737	34.76056
	-88.11738	34.76042
	-88.11737	34.75859
	-88.11735	34.75827
	-88.11703	34.75634
	-88.11698	34.75601
	-88.11527	34.75476
	-88.11642	34.7463
	-88.11841	34.72429
	-88.12996	34.65021
	-88.13426	34.62266
	-88.13872	34.58922
	-88.13925	34.58779
	-88.14013	34.58186
	-88.14914	34.51521
	-88.15255	34.49039
	-88.15578	34.46817
	-88.15611	34.46588
	-88.15629	34.46321
	-88.15675	34.45928
	-88.15867	34.44279
	-88.16023	34.42944
	-88.16137	34.41963
	-88.16149	34.41863
	-88.1611	34.41841
	-88.16061	34.41804
	-88.16017	34.41756
	-88.16007	34.41741
	-88.15974	34.4164
	-88.15974	34.4162
	-88.1602	34.41484
	-88.16026	34.41476
	-88.16095	34.41237
	-88.16218	34.41272
	-88.16563	34.3831
	-88.16591	34.38093
	-88.17363	34.32105
	-88.17557	34.3047
	-88.17635	34.30516
	-88.17726	34.30361
	-88.17732	34.30366
	-88.17736	34.3036
	-88.17741	34.30353
	-88.1775	34.3034
	-88.17751	34.30339
	-88.17767	34.30312
	-88.1777	34.30306
	-88.17782	34.30278
	-88.17784	34.30271
	-88.17789	34.30254
	-88.17789	34.30251
	-88.17791	34.30244
	-88.17793	34.30233
	-88.17796	34.30213
	-88.17799	34.3018
	-88.17802	34.30154
	-88.17802	34.30151
	-88.17809	34.30081
	-88.17819	34.30003
	-88.17819	34.29997
	-88.17824	34.29949
	-88.17828	34.29918
	-88.1784	34.29831
	-88.17841	34.29824
	-88.1785	34.29744
	-88.17861	34.29674
	-88.17862	34.29667
	-88.17866	34.29635
	-88.17866	34.29627
	-88.17872	34.29559
	-88.17875	34.29534
	-88.17881	34.29499
	-88.17881	34.29494
	-88.17886	34.29458
	-88.17887	34.29451
	-88.17887	34.29447
	-88.17894	34.29385
	-88.17894	34.29383
	-88.17905	34.29271
	-88.17906	34.29267
	-88.1791	34.29207
	-88.17911	34.29197
	-88.17912	34.2917
	-88.17911	34.29154
	-88.1791	34.29124
	-88.1791	34.29122
	-88.17916	34.291
	-88.17919	34.29087
	-88.17926	34.29052
	-88.17927	34.29047
	-88.1793	34.29025
	-88.17933	34.29002
	-88.17933	34.2899
	-88.17927	34.28929
	-88.17924	34.28921
	-88.17905	34.28874
	-88.17898	34.28862
	-88.1788	34.28836
	-88.17872	34.28825
	-88.17852	34.28804
	-88.17841	34.28792
	-88.17768	34.28795
	-88.18167	34.25822
	-88.18501	34.22092
	-88.18699	34.20467
	-88.19068	34.19012
	-88.19213	34.17535
	-88.19449	34.158
	-88.1952	34.15271
	-88.2002	34.11595
	-88.20267	34.09571
	-88.20356	34.0894
	-88.20599	34.06846
	-88.20723	34.05833
	-88.21074	34.0292
	-88.21715	33.9817
	-88.22376	33.93269
	-88.22366	33.93282
	-88.22242	33.93356
	-88.22204	33.93363
	-88.22116	33.93359
	-88.221	33.93355
	-88.2196	33.93109
	-88.22039	33.93064
	-88.22054	33.93007
	-88.22169	33.92758
	-88.22221	33.9269
	-88.22259	33.92657
	-88.22272	33.92635
	-88.22305	33.92554
	-88.22311	33.92543
	-88.22318	33.92512
	-88.22318	33.92421
	-88.22317	33.92412
	-88.22315	33.92395
	-88.2231	33.9228
	-88.22311	33.92249
	-88.22327	33.92096
	-88.22346	33.92029
	-88.22365	33.9199
	-88.2241	33.9193
	-88.22441	33.91903
	-88.22493	33.91868
	-88.22529	33.91852
	-88.22567	33.91839
	-88.22567	33.91612
	-88.22529	33.91491
	-88.22528	33.91488
	-88.22523	33.91473
	-88.22495	33.91407
	-88.22481	33.91358
	-88.22473	33.91301
	-88.22642	33.91074
	-88.22661	33.91088
	-88.22926	33.89191
	-88.23495	33.85108
	-88.23549	33.84721
	-88.23931	33.81684
	-88.24005	33.81088
	-88.24127	33.80464
	-88.24302	33.79568
	-88.24414	33.78167
	-88.24599	33.76755
	-88.24801	33.75206
	-88.24895	33.74498
	-88.25225	33.7196
	-88.25426	33.70054
	-88.25457	33.7008
	-88.25639	33.69864
	-88.25636	33.69819
	-88.25636	33.6979
	-88.25639	33.69752
	-88.2565	33.69701
	-88.25653	33.69678
	-88.25661	33.69598
	-88.25644	33.69495
	-88.25607	33.69415
	-88.25563	33.69361
	-88.25546	33.69325
	-88.25533	33.69299
	-88.25503	33.69254
	-88.255	33.69251
	-88.25613	33.68286
	-88.25634	33.68205
	-88.25991	33.65271
	-88.26106	33.6432
	-88.26241	33.63206
	-88.26412	33.61803
	-88.26603	33.60229
	-88.267	33.59423
	-88.26715	33.59199
	-88.26816	33.58504
	-88.26908	33.57693
	-88.26953	33.57289
	-88.27005	33.57082
	-88.2714	33.55997
	-88.27462	33.53401
	-88.27655	33.51854
	-88.27651	33.51856
	-88.27482	33.51629
	-88.27496	33.51534
	-88.27502	33.51492
	-88.27503	33.51487
	-88.27518	33.5139
	-88.27525	33.51344
	-88.27538	33.51243
	-88.27573	33.51154
	-88.27577	33.51149
	-88.27757	33.51118
	-88.27883	33.50075
	-88.2897	33.41048
	-88.29108	33.39907
	-88.29302	33.38294
	-88.29624	33.35892
	-88.29761	33.34849
	-88.29988	33.32598
	-88.3005	33.32084
	-88.30484	33.28831
	-88.30843	33.2585
	-88.30809	33.25782
	-88.31186	33.22975
	-88.31293	33.22106
	-88.31516	33.20354
	-88.31691	33.18641
	-88.31713	33.18412
	-88.33093	33.07312
	-88.34074	32.99156
	-88.34093	32.99031
	-88.34474	32.95511
	-88.34501	32.95285
	-88.34804	32.93096
	-88.35429	32.87513
	-88.36864	32.74909
	-88.37301	32.71198
	-88.37434	32.70075
	-88.38281	32.62849
	-88.38494	32.62745
	-88.38502	32.62698
	-88.38465	32.62549
	-88.38451	32.62531
	-88.38387	32.62482
	-88.38401	32.62429
	-88.38412	32.62299
	-88.38399	32.62209
	-88.38393	32.62196
	-88.38365	32.6216
	-88.3863	32.59948
	-88.38885	32.57806
	-88.40035	32.48287
	-88.40089	32.47769
	-88.40379	32.44989
	-88.40379	32.44977
	-88.41117	32.39067
	-88.41327	32.37373
	-88.42145	32.30868
	-88.42434	32.28637
	-88.4285	32.25008
	-88.43164	32.22763
	-88.43288	32.21734
	-88.43386	32.20851
	-88.43736	32.18244
	-88.43826	32.17569
	-88.43771	32.17558
	-88.43788	32.17479
	-88.4376	32.1746
	-88.43704	32.174
	-88.43698	32.1739
	-88.43691	32.1738
	-88.43659	32.17257
	-88.43659	32.17255
	-88.43661	32.17212
	-88.4369	32.1712
	-88.43692	32.17116
	-88.43693	32.17115
	-88.43701	32.17102
	-88.43761	32.17006
	-88.43801	32.16959
	-88.43845	32.16923
	-88.43909	32.16899
	-88.44182	32.14693
	-88.45164	32.06744
	-88.45496	32.04058
	-88.45504	32.03972
	-88.46866	31.93317
	-88.46888	31.93026
	-88.47314	31.89395
	-88.47264	31.87515
	-88.47157	31.85742
	-88.47121	31.85138
	-88.46982	31.81924
	-88.46867	31.79072
	-88.46839	31.78544
	-88.46511	31.72231
	-88.46429	31.6977
	-88.46056	31.63756
	-88.46243	31.63698
	-88.46159	31.63428
	-88.46153	31.63425
	-88.46152	31.63424
	-88.46127	31.63395
	-88.46117	31.63385
	-88.46106	31.63374
	-88.46084	31.63355
	-88.46071	31.63346
	-88.46037	31.63326
	-88.46029	31.63322
	-88.45992	31.62715
	-88.46006	31.62706
	-88.46013	31.62701
	-88.46019	31.62697
	-88.46028	31.6269
	-88.4604	31.6268
	-88.46044	31.62677
	-88.4609	31.62637
	-88.46097	31.62631
	-88.46107	31.62621
	-88.46123	31.62604
	-88.46134	31.62591
	-88.46153	31.62563
	-88.46158	31.62554
	-88.4617	31.6253
	-88.46174	31.6252
	-88.46182	31.62496
	-88.46186	31.62479
	-88.46188	31.62474
	-88.46199	31.62423
	-88.46202	31.62407
	-88.46204	31.62393
	-88.46206	31.62367
	-88.46207	31.62345
	-88.46204	31.62312
	-88.46201	31.62292
	-88.462	31.62286
	-88.46191	31.62232
	-88.46188	31.62211
	-88.46186	31.62202
	-88.46184	31.62192
	-88.46182	31.62181
	-88.4617	31.62135
	-88.46164	31.62115
	-88.46159	31.62101
	-88.46158	31.62097
	-88.46129	31.62023
	-88.46119	31.61992
	-88.46108	31.61961
	-88.46103	31.6192
	-88.46099	31.6188
	-88.46097	31.61854
	-88.46098	31.61833
	-88.46104	31.6174
	-88.46106	31.61725
	-88.46114	31.6167
	-88.45944	31.61443
	-88.45911	31.61468
	-88.45778	31.58967
	-88.45733	31.58121
	-88.45668	31.56917
	-88.56354	31.47084
	-88.89999	31.45502
	-89.12659	31.46147
	-89.27284	31.47611
	-89.3573	31.42866
	-89.42459	31.40698
	-89.55231	31.39995
	-89.59557	31.32549
	-89.65256	31.29439
	-89.72328	31.23511
	-89.81049	31.14936
	-89.78714	31.08116
	-89.76708	31.00192
	-89.80543	31.00205
	-89.80447	31.00258
	-89.8037	31.00297
	-89.79933	31.00455
	-89.79846	31.00489
	-89.79838	31.00494
	-89.79816	31.00504
	-89.79795	31.00516
	-89.79807	31.00538
	-89.79633	31.00672
	-89.79807	31.00896
	-89.79829	31.00899
	-89.79877	31.00899
	-89.7992	31.00892
	-89.79947	31.00885
	-89.80029	31.00846
	-89.80217	31.00778
	-89.80269	31.00758
	-89.80504	31.00674
	-89.80555	31.00652
	-89.80585	31.00637
	-89.80731	31.00558
	-89.80773	31.00538
	-89.80835	31.00517
	-89.8099	31.00468
	-89.81074	31.00445
	-89.81124	31.00435
	-89.8133	31.00411
	-89.81388	31.00406
	-89.81518	31.00411
	-89.81564	31.0041
	-89.81598	31.00407
	-89.81769	31.00208
	-89.82462	31.00206
	-89.83325	31.00194
	-89.83324	31.00194
	-89.83529	30.99999
	-89.83684	31.00002
	-89.83858	30.99997
	-89.83894	30.99998
	-89.84248	30.99996
	-89.84462	30.99997
	-89.84683	30.99994
	-89.84711	30.99992
	-89.85024	30.9999
	-89.852	30.99987
	-89.85323	30.99987
	-89.85398	30.99992
	-89.85462	30.99988
	-89.85528	30.99989
	-89.85584	30.99993
	-89.85641	30.99994
	-89.85711	31.0
	-89.85869	31.0019
	-89.89239	31.00175
	-89.89751	31.00174
	-89.92107	31.00158
	-89.92969	31.00158
	-89.94189	31.00155
	-89.97006	31.00154
	-89.97129	31.00336
	-89.97159	31.00342
	-89.97226	31.0035
	-89.97277	31.00354
	-89.97328	31.00355
	-89.97494	31.00352
	-89.97689	31.00152
	-90.00343	31.00139
	-90.00521	31.00344
	-90.0054	31.00345
	-90.01181	31.00346
	-90.01305	31.00345
	-90.01366	31.00343
	-90.01489	31.00334
	-90.01602	31.00331
	-90.02077	31.00333
	-90.02194	31.00336
	-90.0224	31.00334
	-90.02277	31.00328
	-90.02326	31.00314
	-90.02435	31.00274
	-90.02525	31.00244
	-90.02582	31.00258
	-90.02823	31.00306
	-90.02854	31.0031
	-90.02883	31.00316
	-90.02725	31.00082
	-90.02959	30.99923
	-90.03004	30.99929
	-90.03248	30.99937
	-90.03642	30.99938
	-90.03666	30.99939
	-90.03701	30.99937
	-90.03736	30.99937
	-90.03877	30.99941
	-90.03921	30.99937
	-90.04194	30.99933
	-90.04233	30.99931
	-90.04332	30.9993
	-90.04388	30.99927
	-90.0464	30.99929
	-90.04879	30.99927
	-90.04961	30.99929
	-90.05034	30.99928
	-90.05102	30.99931
	-90.05279	31.00126
	-90.06771	31.00123
	-90.12841	31.00105
	-90.13213	31.00101
	-90.16328	31.001
	-90.1656	31.00096
	-90.19418	31.00088
	-90.24987	31.00064
	-90.25551	31.00071
	-90.25962	31.00071
	-90.34601	31.00036
	-90.34736	31.00055
	-90.35557	31.00035
	-90.36937	31.00033
	-90.38054	30.99987
	-90.42212	30.99981
	-90.43735	30.99973
	-90.44001	30.99973
	-90.44136	31.00167
	-90.44163	31.00172
	-90.4422	31.0017
	-90.44273	31.00179
	-90.44411	31.00176
	-90.44497	31.00226
	-90.44537	31.00237
	-90.44606	31.00242
	-90.44629	31.0024
	-90.44673	31.00231
	-90.44708	31.00219
	-90.44753	31.00198
	-90.44773	31.00184
	-90.44787	31.00186
	-90.44826	31.00185
	-90.44853	31.00182
	-90.44893	31.00172
	-90.44957	31.00151
	-90.45045	30.99974
	-90.47409	30.9998
	-90.47497	30.99977
	-90.4757	31.00127
	-90.47663	31.0016
	-90.47723	31.00171
	-90.47877	31.00175
	-90.48259	31.00171
	-90.48303	31.00175
	-90.48495	31.00174
	-90.48586	31.00175
	-90.48788	30.99977
	-90.48779	30.99968
	-90.56719	30.99973
	-90.58445	30.9997
	-90.58737	30.9996
	-90.58868	30.99965
	-90.64872	30.99949
	-90.65119	30.99951
	-90.73447	30.99921
	-90.73455	30.99922
	-90.75877	30.99958
	-90.76737	30.99941
	-90.76807	31.0012
	-90.76824	31.00128
	-90.76873	31.00142
	-90.76907	31.00147
	-90.76968	31.0015
	-90.77036	31.00147
	-90.77122	31.00146
	-90.77233	31.00151
	-90.77286	31.00151
	-90.77387	31.00144
	-90.77487	31.00143
	-90.77803	31.00152
	-90.77929	31.00149
	-90.77964	31.00147
	-90.78056	31.00134
	-90.78083	31.00133
	-90.78143	31.00132
	-90.78175	31.00134
	-90.78228	31.00135
	-90.78386	31.00132
	-90.78553	30.99944
	-90.82603	30.99936
	-90.89473	30.99963
	-90.92357	30.99951
	-90.92449	30.99794
	-90.9251	30.99778
	-90.92616	30.99753
	-90.92669	30.99748
	-90.92735	30.9975
	-90.92771	30.99755
	-90.92838	30.99769
	-90.92923	30.99774
	-90.92949	30.99777
	-90.92973	30.99782
	-90.93057	30.99832
	-90.93203	30.99862
	-90.93384	30.99875
	-90.9347	30.99902
	-90.93549	30.99948
	-91.05983	30.99916
	-91.06827	30.99892
	-91.08081	30.99891
	-91.11076	30.99914
	-91.17621	30.99914
	-91.22484	30.99918
	-91.24649	30.99947
	-91.42362	30.99898
	-91.42575	30.99901
	-91.49739	30.99901
	-91.50012	30.99869
	-91.53873	30.99939
	-91.62512	30.99917
	-91.63746	30.9993
	-91.62512	31.00537
	-91.60649	31.01122
	-91.59046	31.01727
	-91.57841	31.02403
	-91.57169	31.02978
	-91.5644	31.03897
	-91.56123	31.04622
	-91.56036	31.04951
	-91.55991	31.05412
	-91.56128	31.06091
	-91.56415	31.06683
	-91.56765	31.07019
	-91.59469	31.09144
	-91.60952	31.10156
	-91.61476	31.10436
	-91.61857	31.10733
	-91.62153	31.11026
	-91.62599	31.1169
	-91.62648	31.11913
	-91.62571	31.12876
	-91.62512	31.13188
	-91.62422	31.13373
	-91.62167	31.13687
	-91.6042	31.15454
	-91.59973	31.15959
	-91.59706	31.16349
	-91.5915	31.17312
	-91.58905	31.17859
	-91.58869	31.18103
	-91.58931	31.19127
	-91.58969	31.19285
	-91.59056	31.19484
	-91.59503	31.20197
	-91.60162	31.20857
	-91.62512	31.22607
	-91.64436	31.23441
	-91.65202	31.24269
	-91.65491	31.25017
	-91.65501	31.25182
	-91.65403	31.25575
	-91.65137	31.25953
	-91.64867	31.26224
	-91.64125	31.26692
	-91.63767	31.26768
	-91.62136	31.26781
	-91.60667	31.2659
	-91.58775	31.26256
	-91.57449	31.26129
	-91.56419	31.26163
	-91.5539	31.26305
	-91.53773	31.26737
	-91.51858	31.27528
	-91.51561	31.27821
	-91.51208	31.28418
	-91.50886	31.29164
	-91.5083	31.29583
	-91.50798	31.31294
	-91.50866	31.31513
	-91.51005	31.31682
	-91.51851	31.32333
	-91.53166	31.3318
	-91.53321	31.33322
	-91.53606	31.33835
	-91.54562	31.34376
	-91.54897	31.34726
	-91.54889	31.354
	-91.55087	31.36057
	-91.551	31.36365
	-91.55064	31.36789
	-91.5495	31.36733
	-91.54826	31.36987
	-91.54846	31.37038
	-91.5484	31.37174
	-91.54827	31.3722
	-91.5482	31.37267
	-91.54821	31.375
	-91.54826	31.37556
	-91.54824	31.3761
	-91.54795	31.3768
	-91.54748	31.37753
	-91.54713	31.37789
	-91.54696	31.37799
	-91.54666	31.37813
	-91.54568	31.38078
	-91.54665	31.38114
	-91.54661	31.3812
	-91.54621	31.38248
	-91.55243	31.38566
	-91.55568	31.38641
	-91.56052	31.38456
	-91.56255	31.38322
	-91.56895	31.37763
	-91.57123	31.38466
	-91.57393	31.39089
	-91.57833	31.39907
	-91.57825	31.40386
	-91.57626	31.4105
	-91.57009	31.41949
	-91.56518	31.42345
	-91.5548	31.42857
	-91.55275	31.43069
	-91.54846	31.43267
	-91.54501	31.43303
	-91.54163	31.43171
	-91.54065	31.43076
	-91.53714	31.42416
	-91.537	31.42318
	-91.5395	31.41791
	-91.53946	31.41402
	-91.53234	31.39027
	-91.52695	31.38086
	-91.52184	31.37517
	-91.51598	31.37029
	-91.50945	31.36698
	-91.50863	31.36646
	-91.50625	31.36534
	-91.50483	31.36482
	-91.50358	31.36466
	-91.49919	31.36495
	-91.49767	31.3647
	-91.49642	31.36493
	-91.49394	31.36459
	-91.49277	31.36358
	-91.49264	31.36226
	-91.49292	31.361
	-91.49281	31.36037
	-91.49296	31.36005
	-91.49333	31.35977
	-91.49405	31.35954
	-91.49467	31.35894
	-91.49494	31.35818
	-91.49694	31.35445
	-91.49734	31.35375
	-91.4975	31.35314
	-91.49734	31.35258
	-91.49698	31.35217
	-91.49554	31.35157
	-91.49385	31.35157
	-91.49239	31.35198
	-91.48931	31.35369
	-91.48696	31.35459
	-91.48208	31.35732
	-91.47875	31.35986
	-91.47625	31.36276
	-91.47373	31.36714
	-91.47002	31.37208
	-91.468	31.37445
	-91.46716	31.37742
	-91.46668	31.3816
	-91.46658	31.38437
	-91.46653	31.38717
	-91.46676	31.38897
	-91.46683	31.39
	-91.46696	31.39083
	-91.46776	31.39336
	-91.47078	31.39941
	-91.47258	31.40203
	-91.48015	31.41031
	-91.48928	31.41891
	-91.50145	31.42875
	-91.5053	31.43295
	-91.51036	31.43893
	-91.51337	31.4444
	-91.51513	31.44921
	-91.517	31.46057
	-91.51815	31.48348
	-91.51682	31.49864
	-91.51508	31.50115
	-91.51511	31.50236
	-91.51526	31.50622
	-91.5147	31.50884
	-91.51493	31.50989
	-91.51635	31.51112
	-91.51782	31.5119
	-91.52027	31.51273
	-91.52153	31.51441
	-91.52286	31.51749
	-91.52292	31.51984
	-91.52222	31.52199
	-91.52109	31.52425
	-91.51632	31.52972
	-91.5159	31.53062
	-91.51407	31.53171
	-91.51167	31.53231
	-91.50746	31.5329
	-91.50298	31.53286
	-91.50057	31.53222
	-91.49923	31.53236
	-91.49819	31.53281
	-91.49575	31.53316
	-91.49448	31.53313
	-91.49044	31.53389
	-91.48871	31.5335
	-91.487	31.53304
	-91.48411	31.5324
	-91.48161	31.5306
	-91.48025	31.53007
	-91.47844	31.53039
	-91.46672	31.53444
	-91.45002	31.53967
	-91.44392	31.54247
	-91.43762	31.54617
	-91.42642	31.55457
	-91.41491	31.56217
	-91.40791	31.56937
	-91.40661	31.57197
	-91.40541	31.57647
	-91.40391	31.58977
	-91.41301	31.59537
	-91.41711	31.59626
	-91.42272	31.59707
	-91.43072	31.59646
	-91.43632	31.59496
	-91.44113	31.59234
	-91.45371	31.58992
	-91.45752	31.58757
	-91.46632	31.58607
	-91.47942	31.58547
	-91.48522	31.58617
	-91.48862	31.58747
	-91.49412	31.59016
	-91.50278	31.59573
	-91.51301	31.60688
	-91.51657	31.61182
	-91.51723	31.61346
	-91.51792	31.61864
	-91.51666	31.62733
	-91.51546	31.63037
	-91.51234	31.63472
	-91.50731	31.63907
	-91.49928	31.64466
	-91.49766	31.64537
	-91.49448	31.64501
	-91.49275	31.64428
	-91.49003	31.641
	-91.48752	31.63706
	-91.48262	31.63156
	-91.47982	31.62897
	-91.47432	31.62536
	-91.46382	31.62036
	-91.43672	31.61266
	-91.42962	31.61136
	-91.42112	31.61156
	-91.4165	31.61313
	-91.40101	31.62036
	-91.39831	31.62627
	-91.39611	31.63927
	-91.39571	31.64417
	-91.39801	31.66267
	-91.40011	31.68816
	-91.40001	31.69786
	-91.39791	31.70936
	-91.39711	31.71136
	-91.3807	31.7324
	-91.37934	31.73419
	-91.3718	31.74295
	-91.36927	31.74671
	-91.36796	31.74677
	-91.36671	31.74731
	-91.36503	31.74801
	-91.36314	31.74843
	-91.36157	31.74862
	-91.35868	31.74846
	-91.35676	31.74866
	-91.35513	31.74909
	-91.3529	31.74959
	-91.35054	31.74982
	-91.31763	31.74947
	-91.3128	31.74894
	-91.30719	31.74808
	-91.30453	31.74783
	-91.29766	31.74578
	-91.29547	31.745
	-91.28654	31.7454
	-91.28212	31.7448
	-91.27836	31.74488
	-91.27437	31.74601
	-91.26991	31.74862
	-91.26548	31.75225
	-91.26143	31.75658
	-91.25977	31.75852
	-91.25924	31.76044
	-91.25973	31.76224
	-91.26062	31.76395
	-91.26232	31.76618
	-91.26577	31.76878
	-91.27011	31.77034
	-91.27362	31.77107
	-91.27861	31.77175
	-91.28534	31.77177
	-91.28912	31.77101
	-91.295	31.76905
	-91.29943	31.76715
	-91.30415	31.76593
	-91.31477	31.76456
	-91.32063	31.76304
	-91.32725	31.76093
	-91.33499	31.75988
	-91.34672	31.75826
	-91.35615	31.758
	-91.36124	31.75904
	-91.36548	31.76064
	-91.36405	31.7756
	-91.36371	31.78036
	-91.35951	31.79936
	-91.35761	31.80391
	-91.34875	31.8304
	-91.34571	31.84286
	-91.34301	31.84686
	-91.33841	31.85126
	-91.33381	31.85326
	-91.32691	31.85496
	-91.31931	31.85526
	-91.30913	31.8558
	-91.30448	31.85695
	-91.29606	31.85959
	-91.29443	31.86007
	-91.29391	31.86001
	-91.29345	31.85968
	-91.29291	31.85915
	-91.29269	31.85551
	-91.28931	31.84686
	-91.28937	31.8425
	-91.29006	31.8375
	-91.29013	31.83366
	-91.28941	31.82866
	-91.28781	31.82416
	-91.28491	31.81836
	-91.28259	31.81508
	-91.27998	31.81293
	-91.27427	31.81006
	-91.27036	31.80914
	-91.26698	31.80877
	-91.26393	31.80897
	-91.26174	31.80949
	-91.25972	31.81027
	-91.25697	31.81171
	-91.25561	31.81266
	-91.25417	31.81386
	-91.25111	31.81648
	-91.24911	31.81862
	-91.24756	31.82085
	-91.24648	31.82278
	-91.2461	31.82388
	-91.24613	31.82499
	-91.24667	31.82727
	-91.24632	31.82894
	-91.24509	31.83055
	-91.24505	31.83145
	-91.24528	31.83211
	-91.2462	31.83302
	-91.25077	31.8365
	-91.26066	31.84572
	-91.26114	31.84612
	-91.26661	31.85116
	-91.26811	31.85306
	-91.26881	31.85516
	-91.26901	31.85866
	-91.26754	31.86239
	-91.26703	31.86303
	-91.26637	31.86365
	-91.26607	31.86409
	-91.26507	31.86456
	-91.26436	31.86486
	-91.26114	31.86566
	-91.25402	31.86778
	-91.24708	31.87023
	-91.24252	31.87196
	-91.23583	31.87548
	-91.23354	31.87714
	-91.23029	31.88019
	-91.22627	31.88496
	-91.22184	31.88926
	-91.20943	31.8987
	-91.20722	31.90103
	-91.20427	31.90436
	-91.20185	31.90768
	-91.20101	31.90916
	-91.19986	31.90924
	-91.19751	31.90866
	-91.19493	31.90878
	-91.19363	31.90926
	-91.19261	31.91016
	-91.19081	31.91296
	-91.18921	31.91426
	-91.18328	31.91595
	-91.18091	31.91733
	-91.18023	31.9182
	-91.18023	31.91908
	-91.18102	31.91995
	-91.1842	31.92271
	-91.18478	31.9239
	-91.1844	31.92591
	-91.18453	31.92685
	-91.18366	31.92992
	-91.18371	31.93316
	-91.18404	31.93437
	-91.18473	31.93476
	-91.18577	31.93478
	-91.18631	31.93435
	-91.18872	31.93387
	-91.19111	31.93416
	-91.19291	31.93496
	-91.19321	31.93566
	-91.18951	31.94636
	-91.18854	31.94997
	-91.18881	31.95316
	-91.1888	31.95736
	-91.18844	31.95904
	-91.18758	31.96089
	-91.18562	31.96383
	-91.17906	31.97071
	-91.17583	31.97423
	-91.17308	31.97674
	-91.17021	31.97906
	-91.1696	31.97942
	-91.16736	31.98096
	-91.16509	31.98204
	-91.16321	31.98262
	-91.15983	31.98332
	-91.12022	31.98642
	-91.1102	31.98834
	-91.10564	31.98977
	-91.10107	31.9916
	-91.0973	31.99374
	-91.09237	31.99706
	-91.08814	32.00034
	-91.08466	32.00284
	-91.08199	32.0062
	-91.08039	32.00944
	-91.07952	32.01237
	-91.07939	32.01516
	-91.0796	32.0185
	-91.08049	32.02342
	-91.08181	32.02719
	-91.08441	32.03146
	-91.08811	32.03446
	-91.09551	32.03746
	-91.12511	32.04286
	-91.14511	32.04655
	-91.15141	32.04926
	-91.15631	32.05266
	-91.15901	32.05595
	-91.16131	32.05976
	-91.16201	32.06235
	-91.16201	32.06535
	-91.16161	32.06775
	-91.16031	32.07035
	-91.15581	32.07555
	-91.14881	32.08015
	-91.14511	32.08135
	-91.13931	32.08175
	-91.13491	32.08035
	-91.12861	32.07655
	-91.12411	32.07185
	-91.11431	32.05826
	-91.10371	32.05025
	-91.09871	32.04836
	-91.08596	32.04742
	-91.08208	32.04747
	-91.08138	32.04754
	-91.08076	32.04767
	-91.07999	32.048
	-91.07951	32.04845
	-91.07918	32.04921
	-91.07911	32.05025
	-91.08152	32.07615
	-91.08157	32.07726
	-91.08103	32.07806
	-91.08029	32.07876
	-91.0792	32.07945
	-91.06668	32.08533
	-91.059	32.08876
	-91.05912	32.08932
	-91.05758	32.0917
	-91.05548	32.09034
	-91.05419	32.09091
	-91.05242	32.0934
	-91.05209	32.09376
	-91.05126	32.09447
	-91.051	32.09466
	-91.05021	32.09514
	-91.0499	32.0953
	-91.04837	32.09589
	-91.04704	32.09634
	-91.04649	32.09644
	-91.04643	32.09644
	-91.04633	32.0965
	-91.04598	32.09661
	-91.04548	32.09671
	-91.04373	32.09682
	-91.04279	32.097
	-91.03812	32.09902
	-91.03767	32.09944
	-91.03749	32.09958
	-91.03459	32.10169
	-91.03397	32.10222
	-91.03251	32.10385
	-91.03225	32.10436
	-91.03104	32.10909
	-91.03077	32.10969
	-91.03064	32.10989
	-91.03016	32.11037
	-91.02994	32.11185
	-91.02995	32.11403
	-91.03068	32.12041
	-91.02677	32.12092
	-91.02402	32.12146
	-91.02065	32.12264
	-91.01956	32.12329
	-91.01899	32.12372
	-91.01838	32.12424
	-91.01679	32.12545
	-91.01492	32.12735
	-91.01281	32.12956
	-91.01173	32.1311
	-91.00986	32.1336
	-91.00764	32.13718
	-91.00598	32.14061
	-91.00501	32.14285
	-91.00411	32.14615
	-91.00412	32.14621
	-91.00283	32.16178
	-91.01666	32.16062
	-91.02486	32.16224
	-91.03366	32.16859
	-91.04181	32.17455
	-91.05021	32.17845
	-91.05832	32.18078
	-91.05891	32.17125
	-91.05571	32.16375
	-91.04971	32.15735
	-91.04851	32.15015
	-91.0484	32.14923
	-91.0491	32.14784
	-91.04984	32.1468
	-91.05006	32.14534
	-91.05054	32.14454
	-91.05105	32.14388
	-91.05272	32.12381
	-91.06086	32.12735
	-91.06732	32.13261
	-91.07155	32.13613
	-91.07572	32.1387
	-91.08016	32.14086
	-91.08316	32.14205
	-91.08821	32.144
	-91.09233	32.14471
	-91.09637	32.14449
	-91.09854	32.14419
	-91.10139	32.1429
	-91.10385	32.14095
	-91.10562	32.13871
	-91.10659	32.13648
	-91.10771	32.13174
	-91.1084	32.12553
	-91.11387	32.12573
	-91.1314	32.12621
	-91.13657	32.12737
	-91.1444	32.13039
	-91.15504	32.13224
	-91.16282	32.13269
	-91.16545	32.13429
	-91.1717	32.14425
	-91.17349	32.14901
	-91.17455	32.15498
	-91.17366	32.16423
	-91.17105	32.17653
	-91.16807	32.18664
	-91.16417	32.19689
	-91.16206	32.19904
	-91.15803	32.20196
	-91.13359	32.21343
	-91.1302	32.21367
	-91.12849	32.21317
	-91.12404	32.2111
	-91.11879	32.20762
	-91.11735	32.20702
	-91.11447	32.20668
	-91.11298	32.20648
	-91.10851	32.20815
	-91.10041	32.21785
	-91.09211	32.22385
	-91.08371	32.22645
	-91.07511	32.22705
	-91.07111	32.22605
	-91.06126	32.21857
	-91.05485	32.22482
	-91.05295	32.22793
	-91.05161	32.2341
	-91.05042	32.23719
	-91.05001	32.23788
	-91.04696	32.2406
	-91.04614	32.24116
	-91.0415	32.24214
	-91.03901	32.24235
	-91.03431	32.24155
	-91.02661	32.23875
	-91.02151	32.23615
	-91.00961	32.22615
	-91.00667	32.22423
	-91.00454	32.22333
	-91.0028	32.2229
	-91.00395	32.21797
	-91.00492	32.21229
	-91.00322	32.19758
	-90.99957	32.19089
	-90.99523	32.1928
	-90.99392	32.19363
	-90.99247	32.19668
	-90.98933	32.20157
	-90.98567	32.20668
	-90.98359	32.21053
	-90.9827	32.21413
	-90.98244	32.22225
	-90.98338	32.22693
	-90.98313	32.23137
	-90.98029	32.2436
	-90.97619	32.24786
	-90.96994	32.25126
	-90.96918	32.2521
	-90.96994	32.255
	-90.97134	32.25774
	-90.97966	32.26525
	-90.98103	32.26673
	-90.98298	32.27029
	-90.98408	32.27995
	-90.98075	32.29141
	-90.97947	32.2937
	-90.9762	32.29645
	-90.9746	32.29712
	-90.97164	32.2975
	-90.96415	32.29687
	-90.96308	32.29628
	-90.96117	32.29329
	-90.9554	32.28624
	-90.95301	32.28404
	-90.95135	32.2832
	-90.94783	32.28349
	-90.93399	32.29034
	-90.92223	32.29864
	-90.91616	32.30358
	-90.90517	32.3155
	-90.90256	32.31959
	-90.90124	32.32339
	-90.90072	32.33038
	-90.90455	32.33661
	-90.91236	32.33945
	-90.92117	32.34207
	-90.9349	32.34497
	-90.94298	32.34596
	-90.95458	32.34586
	-90.98667	32.35176
	-90.99362	32.35405
	-91.00011	32.35769
	-91.00351	32.36214
	-91.00451	32.36474
	-91.00451	32.36814
	-91.00061	32.38164
	-90.99624	32.38806
	-90.99469	32.39228
	-90.99378	32.39678
	-90.99408	32.40386
	-90.98072	32.40824
	-90.97446	32.412
	-90.97114	32.41464
	-90.96777	32.41828
	-90.96625	32.42103
	-90.96599	32.42481
	-90.96646	32.43387
	-90.96687	32.4355
	-90.96856	32.43808
	-90.96959	32.43949
	-90.97855	32.44703
	-90.98342	32.44908
	-90.99386	32.45085
	-90.99897	32.45016
	-91.00481	32.44574
	-91.01651	32.44034
	-91.02631	32.43444
	-91.02961	32.43354
	-91.05291	32.43844
	-91.07021	32.44514
	-91.08181	32.45044
	-91.09531	32.45874
	-91.10881	32.47204
	-91.11211	32.47614
	-91.11601	32.48314
	-91.11731	32.49504
	-91.11671	32.50014
	-91.10698	32.51493
	-91.1013	32.5256
	-91.09876	32.53297
	-91.09795	32.53721
	-91.09788	32.54475
	-91.09374	32.54913
	-91.07482	32.53347
	-91.07151	32.52972
	-91.07047	32.52817
	-91.06052	32.51236
	-91.05091	32.50014
	-91.04581	32.49554
	-91.03811	32.49044
	-91.03391	32.48854
	-91.02411	32.48524
	-91.01711	32.48374
	-91.00421	32.48214
	-90.99922	32.48262
	-90.99639	32.48392
	-90.9907	32.48775
	-90.98828	32.49119
	-90.98783	32.49419
	-90.98817	32.4968
	-90.98983	32.50014
	-90.99448	32.50633
	-91.00547	32.51384
	-91.01127	32.5166
	-91.05117	32.53089
	-91.06168	32.53645
	-91.07159	32.54388
	-91.07208	32.5435
	-91.07489	32.54385
	-91.0746	32.54614
	-91.07537	32.54672
	-91.0783	32.55239
	-91.0806	32.55258
	-91.08036	32.5554
	-91.08001	32.5557
	-91.0804	32.55644
	-91.06988	32.56272
	-91.06813	32.56359
	-91.0626	32.56619
	-91.05738	32.56905
	-91.04953	32.57325
	-91.0462	32.57501
	-91.04318	32.57617
	-91.03617	32.57956
	-91.03099	32.58335
	-91.02542	32.59028
	-91.02481	32.59099
	-91.02294	32.59185
	-91.01623	32.59695
	-91.01372	32.59842
	-91.01023	32.60193
	-91.0046	32.60978
	-91.003	32.61468
	-91.00296	32.62255
	-91.0035	32.62485
	-91.00682	32.63126
	-91.01429	32.64048
	-91.02037	32.64453
	-91.02568	32.6466
	-91.02749	32.64516
	-91.02835	32.64463
	-91.03018	32.6442
	-91.03064	32.64228
	-91.03146	32.64144
	-91.03172	32.64023
	-91.03463	32.63951
	-91.03605	32.63857
	-91.0374	32.63778
	-91.03841	32.63644
	-91.0404	32.63252
	-91.04145	32.62514
	-91.04326	32.62078
	-91.0489	32.61356
	-91.0498	32.60719
	-91.06135	32.60537
	-91.07951	32.60068
	-91.08778	32.59707
	-91.1057	32.59088
	-91.11276	32.59019
	-91.11864	32.58514
	-91.11985	32.58479
	-91.12511	32.58519
	-91.12791	32.58649
	-91.13528	32.59165
	-91.14115	32.59721
	-91.14407	32.60061
	-91.1462	32.60414
	-91.15132	32.61592
	-91.15356	32.62618
	-91.15382	32.63128
	-91.15374	32.63523
	-91.1527	32.64076
	-91.15208	32.64151
	-91.14975	32.64404
	-91.14435	32.64803
	-91.14204	32.64926
	-91.13871	32.64977
	-91.13764	32.65062
	-91.13093	32.65887
	-91.12673	32.66659
	-91.12475	32.66829
	-91.12222	32.66893
	-91.11717	32.66922
	-91.11138	32.67015
	-91.10353	32.67237
	-91.09214	32.67539
	-91.08911	32.6761
	-91.08188	32.67922
	-91.07657	32.68166
	-91.07193	32.68463
	-91.06814	32.68853
	-91.06466	32.69379
	-91.06109	32.70014
	-91.05573	32.7084
	-91.05413	32.71114
	-91.05315	32.7144
	-91.05297	32.71864
	-91.05377	32.72157
	-91.05523	32.72372
	-91.05687	32.72526
	-91.06065	32.72728
	-91.06766	32.72919
	-91.07718	32.73253
	-91.08722	32.73479
	-91.09867	32.73524
	-91.10652	32.7349
	-91.11277	32.73405
	-91.11463	32.73299
	-91.11763	32.73201
	-91.12179	32.73134
	-91.12517	32.73163
	-91.13151	32.73251
	-91.1352	32.73405
	-91.13747	32.73556
	-91.13936	32.73821
	-91.13974	32.74031
	-91.14122	32.74551
	-91.14277	32.75124
	-91.14378	32.75368
	-91.14542	32.75591
	-91.14706	32.75769
	-91.15233	32.76125
	-91.15574	32.76387
	-91.1576	32.76565
	-91.15911	32.76793
	-91.15952	32.76947
	-91.15952	32.77082
	-91.16	32.77379
	-91.16063	32.77517
	-91.16306	32.77729
	-91.16362	32.77819
	-91.16398	32.78006
	-91.1644	32.78582
	-91.16407	32.78848
	-91.16141	32.8
	-91.16098	32.80158
	-91.16083	32.8038
	-91.16132	32.81086
	-91.16165	32.81227
	-91.1597	32.81663
	-91.15916	32.81977
	-91.15834	32.8223
	-91.15715	32.82382
	-91.15307	32.82582
	-91.15211	32.82661
	-91.1497	32.83122
	-91.145	32.84287
	-91.14356	32.84474
	-91.13789	32.84898
	-91.12789	32.85506
	-91.12472	32.85486
	-91.11609	32.85564
	-91.10563	32.8584
	-91.08668	32.87339
	-91.0706	32.88866
	-91.06819	32.89193
	-91.06445	32.90106
	-91.06381	32.90371
	-91.06368	32.90636
	-91.06485	32.91652
	-91.06387	32.92269
	-91.0648	32.92646
	-91.07055	32.93604
	-91.07207	32.93783
	-91.08043	32.94321
	-91.08191	32.94477
	-91.08308	32.94791
	-91.08189	32.94944
	-91.08051	32.95012
	-91.0789	32.95182
	-91.08035	32.96279
	-91.0868	32.97627
	-91.09089	32.98117
	-91.09426	32.98437
	-91.09693	32.98641
	-91.10658	32.98894
	-91.11176	32.98836
	-91.12511	32.98467
	-91.13441	32.98053
	-91.13552	32.97966
	-91.13858	32.97135
	-91.13752	32.96955
	-91.13305	32.96654
	-91.13095	32.96381
	-91.13072	32.96226
	-91.13124	32.96093
	-91.13333	32.95906
	-91.13663	32.95735
	-91.13717	32.95652
	-91.13786	32.95276
	-91.13551	32.94616
	-91.13129	32.93005
	-91.1313	32.92692
	-91.13211	32.92312
	-91.13404	32.91768
	-91.14508	32.90549
	-91.15169	32.90194
	-91.15997	32.89988
	-91.17023	32.89939
	-91.1754	32.9
	-91.18163	32.90145
	-91.19678	32.90678
	-91.19977	32.90851
	-91.20826	32.91535
	-91.2116	32.91962
	-91.21284	32.9221
	-91.21397	32.9272
	-91.21403	32.93032
	-91.21282	32.93608
	-91.2107	32.93984
	-91.20744	32.94439
	-91.19941	32.95231
	-91.20119	32.95498
	-91.20203	32.95733
	-91.20184	32.96121
	-91.19965	32.96356
	-91.19743	32.96482
	-91.18698	32.97619
	-91.18216	32.97864
	-91.17331	32.98609
	-91.16897	32.99213
	-91.16619	33.00224
	-91.16607	33.00411
END
END
