US_Massachusetts_Boston
1
	-71.48735	42.70131
	-71.4794	42.7011
	-71.46949	42.70082
	-71.46757	42.70075
	-71.45773	42.70044
	-71.43346	42.69987
	-71.38648	42.69884
	-71.35168	42.6979
	-71.34077	42.6977
	-71.32221	42.6973
	-71.31708	42.69738
	-71.3133	42.69731
	-71.29464	42.69704
	-71.28917	42.70231
	-71.28447	42.70645
	-71.27894	42.71136
	-71.27544	42.71579
	-71.26787	42.72603
	-71.25809	42.73413
	-71.2551	42.73659
	-71.25138	42.73891
	-71.24952	42.74002
	-71.24598	42.74231
	-71.24019	42.74408
	-71.23746	42.74483
	-71.22591	42.74623
	-71.22391	42.74643
	-71.20259	42.74186
	-71.20037	42.74135
	-71.19873	42.741
	-71.19873	42.73963
	-71.19855	42.73938
	-71.19774	42.73919
	-71.19782	42.73904
	-71.19777	42.73902
	-71.19769	42.73917
	-71.19607	42.7388
	-71.19588	42.73889
	-71.19572	42.73897
	-71.19568	42.73906
	-71.19561	42.73905
	-71.19553	42.73951
	-71.19547	42.7397
	-71.19537	42.73964
	-71.19535	42.73968
	-71.19546	42.73974
	-71.19529	42.74024
	-71.18578	42.73816
	-71.18181	42.73732
	-71.18416	42.76587
	-71.18466	42.77246
	-71.18563	42.78392
	-71.18584	42.78679
	-71.18607	42.78933
	-71.18617	42.79088
	-71.1855	42.79156
	-71.18473	42.79219
	-71.17734	42.79906
	-71.17441	42.8017
	-71.16737	42.80822
	-71.16667	42.80891
	-71.16388	42.80995
	-71.14792	42.81617
	-71.14621	42.81679
	-71.13277	42.82145
	-71.11578	42.81765
	-71.10242	42.81462
	-71.06442	42.80626
	-71.05395	42.83337
	-71.04869	42.84226
	-71.04807	42.84231
	-71.0479	42.84227
	-71.04785	42.84233
	-71.04782	42.84233
	-71.04782	42.84237
	-71.04607	42.84464
	-71.0456	42.84464
	-71.0456	42.84498
	-71.04555	42.84553
	-71.04551	42.84568
	-71.04526	42.84628
	-71.04519	42.8465
	-71.04511	42.8469
	-71.04507	42.84734
	-71.04502	42.84761
	-71.04508	42.84828
	-71.04483	42.84869
	-71.03128	42.85924
	-71.0242	42.86043
	-71.01629	42.86169
	-70.99981	42.8641
	-70.99734	42.86453
	-70.97616	42.86756
	-70.97655	42.86859
	-70.97642	42.86891
	-70.97625	42.86924
	-70.97599	42.8696
	-70.97594	42.86966
	-70.97566	42.86991
	-70.97537	42.8701
	-70.97511	42.87024
	-70.97466	42.8704
	-70.97431	42.87047
	-70.97398	42.8705
	-70.97319	42.87073
	-70.97165	42.87105
	-70.9713	42.8711
	-70.97036	42.8712
	-70.97008	42.87139
	-70.97004	42.87143
	-70.96963	42.87169
	-70.9686	42.87221
	-70.96836	42.87235
	-70.96615	42.87379
	-70.96503	42.87437
	-70.9647	42.87452
	-70.96453	42.87458
	-70.9641	42.87469
	-70.96371	42.87475
	-70.96334	42.87477
	-70.96266	42.87474
	-70.96192	42.87468
	-70.96146	42.87466
	-70.96103	42.87466
	-70.95955	42.87395
	-70.95954	42.87397
	-70.95906	42.8736
	-70.95848	42.8731
	-70.95813	42.87291
	-70.9577	42.87265
	-70.9517	42.87509
	-70.94966	42.87585
	-70.92973	42.88504
	-70.91751	42.88637
	-70.91567	42.88649
	-70.9145	42.88662
	-70.90348	42.88671
	-70.89903	42.88572
	-70.88566	42.88288
	-70.87451	42.87658
	-70.87335	42.87597
	-70.87248	42.87547
	-70.87186	42.87507
	-70.86972	42.8736
	-70.86818	42.87499
	-70.8675	42.87495
	-70.86716	42.8749
	-70.86669	42.87479
	-70.8662	42.87477
	-70.86605	42.87475
	-70.86561	42.87463
	-70.86546	42.87457
	-70.86471	42.87406
	-70.86434	42.87354
	-70.86419	42.8732
	-70.86409	42.8729
	-70.86398	42.87239
	-70.86396	42.87214
	-70.86397	42.87173
	-70.86413	42.87109
	-70.86439	42.87063
	-70.86444	42.87057
	-70.86483	42.87024
	-70.86451	42.87002
	-70.86041	42.86819
	-70.8576	42.86663
	-70.85459	42.86489
	-70.85238	42.86356
	-70.85067	42.86257
	-70.84855	42.86129
	-70.84776	42.86088
	-70.84148	42.86305
	-70.83682	42.8647
	-70.83625	42.86506
	-70.82963	42.86875
	-70.82023	42.87185
	-70.81697	42.87198
	-70.81582	42.87204
	-70.73298	42.8754
	-70.56136	42.92222
	-70.38972	42.81495
	-70.36121	42.68844
	-70.65751	42.38119
	-70.79414	42.34237
	-70.86532	42.32214
	-70.90487	42.31828
	-70.94641	42.30411
	-70.95057	42.30282
	-70.96059	42.2997
	-70.96021	42.29532
	-70.95984	42.29105
	-70.95319	42.28516
	-70.93945	42.27302
	-70.93884	42.26843
	-70.9382	42.26363
	-70.94834	42.25688
	-70.95292	42.25316
	-70.95802	42.24901
	-70.9596	42.24842
	-70.96664	42.24582
	-70.96788	42.24018
	-70.96831	42.23826
	-70.95969	42.2352
	-70.96074	42.22843
	-70.96365	42.22511
	-70.97095	42.22244
	-70.97165	42.21827
	-70.97306	42.21462
	-70.97491	42.20882
	-70.97605	42.20526
	-70.9762	42.20502
	-70.98015	42.19881
	-70.97855	42.19754
	-70.9768	42.19614
	-70.97881	42.19232
	-70.97991	42.19024
	-70.97941	42.18425
	-70.97754	42.17937
	-70.97754	42.16969
	-70.97713	42.1693
	-70.96822	42.16066
	-70.97576	42.14348
	-70.9823	42.13918
	-70.99124	42.13331
	-71.00868	42.13293
	-71.01498	42.13279
	-71.03644	42.13435
	-71.04453	42.1384
	-71.05966	42.15078
	-71.0593	42.15239
	-71.0579	42.15861
	-71.06406	42.16434
	-71.07443	42.16135
	-71.0871	42.15183
	-71.10579	42.15042
	-71.10785	42.15026
	-71.11144	42.14886
	-71.12087	42.14518
	-71.12414	42.14081
	-71.1279	42.13579
	-71.13459	42.12666
	-71.14076	42.12623
	-71.14188	42.12615
	-71.14192	42.12618
	-71.14193	42.12619
	-71.14276	42.12674
	-71.14351	42.12725
	-71.14388	42.12754
	-71.14391	42.12757
	-71.1446	42.12796
	-71.14466	42.12798
	-71.14529	42.12808
	-71.14534	42.12808
	-71.14617	42.1279
	-71.14628	42.12785
	-71.14655	42.1277
	-71.14697	42.12742
	-71.14712	42.12733
	-71.14714	42.12731
	-71.14738	42.12715
	-71.14766	42.12575
	-71.15091	42.12552
	-71.15733	42.12508
	-71.17947	42.10127
	-71.18376	42.1003
	-71.19912	42.09684
	-71.21727	42.10533
	-71.23081	42.0988
	-71.23295	42.09777
	-71.23607	42.09049
	-71.23991	42.08152
	-71.24724	42.07653
	-71.2613	42.06694
	-71.27896	42.04754
	-71.30732	42.05032
	-71.33443	42.0505
	-71.34852	42.05535
	-71.35483	42.05752
	-71.37032	42.0657
	-71.36047	42.08358
	-71.38334	42.09429
	-71.40004	42.09807
	-71.40813	42.11099
	-71.41394	42.1256
	-71.42713	42.12926
	-71.43634	42.12908
	-71.43635	42.12879
	-71.43636	42.12873
	-71.43654	42.12817
	-71.4366	42.12805
	-71.43704	42.12746
	-71.43715	42.12736
	-71.43765	42.12703
	-71.4378	42.12696
	-71.43802	42.12687
	-71.43808	42.12685
	-71.43832	42.12679
	-71.43842	42.12677
	-71.43881	42.12673
	-71.43899	42.12673
	-71.43955	42.12681
	-71.43972	42.12686
	-71.43995	42.12694
	-71.44002	42.12697
	-71.44051	42.12727
	-71.44063	42.12738
	-71.44084	42.12741
	-71.44101	42.12745
	-71.44134	42.12756
	-71.44148	42.12762
	-71.4422	42.12814
	-71.44227	42.12822
	-71.44246	42.12849
	-71.44254	42.12862
	-71.44283	42.12946
	-71.44284	42.12954
	-71.45615	42.13291
	-71.47588	42.13499
	-71.47747	42.15195
	-71.47835	42.16981
	-71.48333	42.19196
	-71.48343	42.19197
	-71.48359	42.19198
	-71.48384	42.19201
	-71.48401	42.19204
	-71.4842	42.19208
	-71.48443	42.19215
	-71.48459	42.19221
	-71.48476	42.19227
	-71.48498	42.19237
	-71.48514	42.19246
	-71.48538	42.19261
	-71.48554	42.19273
	-71.48579	42.19295
	-71.48591	42.19307
	-71.48609	42.19328
	-71.48623	42.19348
	-71.48649	42.19395
	-71.48654	42.1941
	-71.48659	42.19425
	-71.48663	42.19439
	-71.4867	42.19467
	-71.48672	42.19487
	-71.48674	42.19506
	-71.48675	42.19525
	-71.48675	42.19541
	-71.48674	42.19556
	-71.48664	42.19613
	-71.48661	42.1962
	-71.4863	42.19678
	-71.48623	42.19686
	-71.48582	42.19726
	-71.48574	42.19732
	-71.48521	42.19759
	-71.48508	42.19763
	-71.48471	42.19772
	-71.48457	42.19774
	-71.48421	42.19775
	-71.48408	42.19775
	-71.48361	42.19767
	-71.48351	42.19763
	-71.48322	42.19752
	-71.48292	42.20434
	-71.48239	42.21412
	-71.4933	42.22844
	-71.50209	42.23014
	-71.51018	42.24355
	-71.51036	42.26099
	-71.50614	42.26451
	-71.50631	42.27206
	-71.50438	42.27726
	-71.5144	42.29743
	-71.51071	42.30537
	-71.51352	42.31135
	-71.50403	42.3172
	-71.51223	42.33039
	-71.48835	42.34124
	-71.48842	42.34511
	-71.48836	42.34512
	-71.48818	42.34518
	-71.48786	42.34532
	-71.48773	42.34539
	-71.4873	42.3457
	-71.48718	42.34581
	-71.48695	42.34608
	-71.4868	42.34628
	-71.48665	42.34652
	-71.48657	42.34667
	-71.48643	42.34701
	-71.48638	42.34715
	-71.48643	42.34847
	-71.48648	42.34862
	-71.48708	42.34944
	-71.48722	42.34955
	-71.48785	42.3499
	-71.48803	42.34996
	-71.48821	42.35001
	-71.4885	42.35008
	-71.4886	42.35632
	-71.48188	42.36698
	-71.48114	42.37855
	-71.46323	42.39692
	-71.44258	42.41548
	-71.42666	42.41951
	-71.42567	42.43329
	-71.42568	42.43345
	-71.42567	42.43345
	-71.42543	42.43338
	-71.42451	42.43316
	-71.42391	42.43311
	-71.42336	42.43315
	-71.4229	42.43324
	-71.42248	42.43337
	-71.42158	42.43394
	-71.42142	42.43412
	-71.42146	42.43478
	-71.42207	42.43438
	-71.42214	42.43435
	-71.42289	42.43424
	-71.42299	42.43424
	-71.42327	42.43427
	-71.4234	42.43429
	-71.42376	42.43439
	-71.42387	42.43443
	-71.42403	42.43449
	-71.4241	42.43451
	-71.42428	42.43458
	-71.42452	42.43469
	-71.42467	42.43476
	-71.42485	42.43488
	-71.425	42.43498
	-71.42536	42.43529
	-71.42545	42.43539
	-71.42558	42.43554
	-71.42566	42.43565
	-71.42569	42.4357
	-71.4259	42.43576
	-71.42597	42.4358
	-71.42659	42.43627
	-71.42664	42.43633
	-71.42682	42.4367
	-71.42685	42.43672
	-71.42698	42.43684
	-71.4272	42.4371
	-71.42732	42.43725
	-71.42742	42.4374
	-71.42749	42.43752
	-71.42759	42.4377
	-71.42765	42.43784
	-71.42779	42.43825
	-71.42782	42.43838
	-71.42787	42.43868
	-71.42788	42.4388
	-71.42788	42.43912
	-71.42787	42.43922
	-71.42787	42.43924
	-71.42786	42.43934
	-71.42781	42.43962
	-71.42777	42.43977
	-71.42768	42.44006
	-71.42763	42.44018
	-71.4275	42.44044
	-71.42743	42.44056
	-71.42727	42.4408
	-71.42717	42.44091
	-71.42708	42.44102
	-71.42724	42.44128
	-71.42664	42.44405
	-71.426	42.44391
	-71.42617	42.44926
	-71.41274	42.46595
	-71.4008	42.48265
	-71.39408	42.50521
	-71.39358	42.52116
	-71.39458	42.53143
	-71.38637	42.53876
	-71.38338	42.55763
	-71.38535	42.56656
	-71.38909	42.57355
	-71.38908	42.57354
	-71.3889	42.57342
	-71.38871	42.57331
	-71.3886	42.57325
	-71.38833	42.57312
	-71.38821	42.57306
	-71.38816	42.57303
	-71.38768	42.57281
	-71.38735	42.57264
	-71.38722	42.57258
	-71.3872	42.57253
	-71.38698	42.57209
	-71.38696	42.57205
	-71.38698	42.57181
	-71.38698	42.57176
	-71.38699	42.57134
	-71.38699	42.57133
	-71.38699	42.57121
	-71.38699	42.5712
	-71.38699	42.57094
	-71.38698	42.57075
	-71.38696	42.57046
	-71.38695	42.57035
	-71.38693	42.5701
	-71.3869	42.56984
	-71.38687	42.56969
	-71.38631	42.56867
	-71.38603	42.56839
	-71.3832	42.56842
	-71.38322	42.57044
	-71.38295	42.5705
	-71.38295	42.57052
	-71.38296	42.57065
	-71.38296	42.57066
	-71.38297	42.57079
	-71.38297	42.5708
	-71.38299	42.57099
	-71.38299	42.57115
	-71.38299	42.57126
	-71.38298	42.57164
	-71.38297	42.57189
	-71.38295	42.57208
	-71.38295	42.57256
	-71.38298	42.57281
	-71.38324	42.57356
	-71.38326	42.57361
	-71.3834	42.57386
	-71.38362	42.57431
	-71.38365	42.57437
	-71.38389	42.57484
	-71.3841	42.57516
	-71.38414	42.5752
	-71.38419	42.57527
	-71.38461	42.57566
	-71.3848	42.57579
	-71.38482	42.57581
	-71.38489	42.57585
	-71.38506	42.57595
	-71.38547	42.57617
	-71.38553	42.57621
	-71.38592	42.5764
	-71.38597	42.57643
	-71.38645	42.57665
	-71.38654	42.5767
	-71.38655	42.5767
	-71.38676	42.57681
	-71.3868	42.57683
	-71.38686	42.57687
	-71.38694	42.57693
	-71.38719	42.57717
	-71.38759	42.57758
	-71.38763	42.57762
	-71.38792	42.5779
	-71.38817	42.5781
	-71.38836	42.57823
	-71.38853	42.57833
	-71.38871	42.57843
	-71.38896	42.57854
	-71.38916	42.57862
	-71.38924	42.57865
	-71.3896	42.57876
	-71.38964	42.57878
	-71.3898	42.57882
	-71.38997	42.57888
	-71.39	42.57896
	-71.39006	42.57906
	-71.3906	42.57965
	-71.3907	42.57972
	-71.39073	42.57975
	-71.39078	42.57978
	-71.39096	42.57991
	-71.39104	42.57996
	-71.39111	42.58001
	-71.39123	42.58011
	-71.39124	42.58011
	-71.39151	42.58035
	-71.39152	42.58036
	-71.39187	42.58065
	-71.39197	42.58073
	-71.39229	42.58097
	-71.39245	42.58108
	-71.39274	42.58125
	-71.39275	42.58126
	-71.39313	42.58148
	-71.39411	42.58123
	-71.39872	42.5878
	-71.40716	42.60218
	-71.41138	42.60852
	-71.42387	42.60036
	-71.42562	42.59997
	-71.42565	42.59983
	-71.42569	42.5997
	-71.42589	42.59928
	-71.42597	42.59916
	-71.42614	42.59891
	-71.42623	42.59882
	-71.42635	42.59869
	-71.42644	42.59859
	-71.42676	42.59834
	-71.42687	42.59827
	-71.42702	42.59818
	-71.42715	42.59811
	-71.42737	42.59801
	-71.42831	42.59765
	-71.42957	42.59714
	-71.43013	42.5969
	-71.43018	42.59688
	-71.43069	42.59668
	-71.43094	42.5966
	-71.43113	42.59656
	-71.43127	42.59653
	-71.43151	42.59649
	-71.43176	42.59646
	-71.43195	42.59645
	-71.43223	42.59646
	-71.43241	42.59647
	-71.43255	42.59649
	-71.43273	42.59652
	-71.43289	42.59656
	-71.43308	42.5966
	-71.4333	42.59667
	-71.43344	42.59673
	-71.4337	42.59685
	-71.43385	42.59694
	-71.43405	42.59706
	-71.43419	42.59717
	-71.43449	42.59744
	-71.43461	42.59757
	-71.43484	42.5979
	-71.44058	42.59661
	-71.45556	42.60555
	-71.45578	42.60532
	-71.45635	42.60486
	-71.45656	42.60469
	-71.45709	42.60438
	-71.45716	42.60435
	-71.45728	42.6043
	-71.45763	42.6042
	-71.45789	42.60415
	-71.45809	42.60412
	-71.45827	42.6041
	-71.4586	42.6041
	-71.45885	42.60412
	-71.45894	42.60413
	-71.45967	42.60421
	-71.4597	42.60421
	-71.45993	42.60424
	-71.46014	42.60428
	-71.46036	42.60434
	-71.46062	42.60442
	-71.46079	42.60449
	-71.46101	42.60459
	-71.4612	42.60469
	-71.46155	42.60493
	-71.46176	42.60511
	-71.46223	42.6057
	-71.46231	42.60586
	-71.46107	42.60872
	-71.46106	42.60872
	-71.4703	42.61396
	-71.48174	42.61667
	-71.49542	42.63339
	-71.49504	42.63371
	-71.49501	42.63379
	-71.4949	42.63429
	-71.49489	42.63436
	-71.49515	42.6351
	-71.49515	42.63511
	-71.49515	42.63515
	-71.49515	42.63523
	-71.49511	42.63533
	-71.49508	42.63542
	-71.49501	42.63567
	-71.49493	42.63622
	-71.49492	42.63647
	-71.49493	42.63653
	-71.4949	42.63657
	-71.49484	42.63668
	-71.49463	42.63733
	-71.49462	42.63741
	-71.4943	42.63824
	-71.49429	42.63842
	-71.49431	42.63882
	-71.49434	42.63903
	-71.49452	42.63955
	-71.49446	42.63958
	-71.49431	42.63966
	-71.49418	42.63973
	-71.49371	42.64012
	-71.49357	42.64027
	-71.49316	42.64095
	-71.49311	42.6411
	-71.493	42.64178
	-71.493	42.64195
	-71.49304	42.64231
	-71.49306	42.64241
	-71.49302	42.64251
	-71.49296	42.64271
	-71.49293	42.64281
	-71.49291	42.64289
	-71.49252	42.64324
	-71.49247	42.64328
	-71.49246	42.64329
	-71.49232	42.64341
	-71.49223	42.6435
	-71.49201	42.64371
	-71.49192	42.64379
	-71.49155	42.6442
	-71.49147	42.64433
	-71.49144	42.64437
	-71.49138	42.64447
	-71.49127	42.64465
	-71.49106	42.64513
	-71.491	42.64536
	-71.49098	42.64543
	-71.49093	42.64565
	-71.49092	42.64569
	-71.49085	42.64601
	-71.4908	42.64618
	-71.49075	42.64639
	-71.49072	42.64658
	-71.49071	42.64662
	-71.4907	42.64667
	-71.49062	42.64683
	-71.49057	42.64692
	-71.49056	42.64694
	-71.49046	42.64708
	-71.49039	42.64719
	-71.49019	42.64743
	-71.49015	42.64748
	-71.48995	42.64774
	-71.4896	42.64846
	-71.48956	42.64863
	-71.491	42.65107
	-71.49286	42.64996
	-71.49313	42.65017
	-71.4933	42.64994
	-71.49355	42.64964
	-71.49367	42.64947
	-71.49376	42.64933
	-71.49385	42.64922
	-71.49377	42.64916
	-71.4941	42.64883
	-71.49421	42.64858
	-71.49432	42.64836
	-71.4944	42.64819
	-71.4945	42.64791
	-71.49459	42.64762
	-71.49464	42.64738
	-71.49466	42.64727
	-71.49468	42.64714
	-71.49471	42.64703
	-71.49474	42.64693
	-71.49482	42.64657
	-71.49482	42.64656
	-71.49502	42.64636
	-71.49511	42.64629
	-71.49516	42.64624
	-71.49517	42.64623
	-71.49555	42.64589
	-71.49581	42.64568
	-71.49594	42.64555
	-71.49691	42.65397
	-71.49694	42.65401
	-71.49697	42.65404
	-71.49729	42.65423
	-71.49798	42.65491
	-71.49825	42.65535
	-71.49849	42.65596
	-71.49853	42.65616
	-71.49766	42.65826
	-71.49752	42.65835
	-71.4968	42.65864
	-71.49664	42.65867
	-71.49642	42.65875
	-71.49614	42.65883
	-71.49572	42.65891
	-71.49565	42.65893
	-71.4937	42.66429
	-71.49405	42.67347
	-71.49194	42.68071
	-71.48842	42.68911
	-71.48735	42.70131
END
END
