US_Missouri_Springfield
1
	-91.47892	36.49828
	-91.50014	36.49881
	-91.52977	36.49902
	-91.53687	36.49916
	-91.53778	36.49914
	-91.53802	36.49751
	-91.53949	36.49773
	-91.53951	36.49723
	-91.53953	36.49724
	-91.54034	36.49722
	-91.54224	36.49723
	-91.5438	36.49721
	-91.54407	36.49715
	-91.54453	36.49712
	-91.54474	36.49715
	-91.54477	36.49714
	-91.54511	36.49714
	-91.54561	36.49716
	-91.54588	36.49721
	-91.54686	36.49716
	-91.54918	36.49717
	-91.55113	36.49916
	-91.59621	36.49916
	-91.60132	36.49934
	-91.63144	36.4992
	-91.64259	36.49934
	-91.67234	36.49946
	-91.68603	36.49937
	-91.68761	36.4994
	-91.72666	36.49921
	-91.76611	36.49911
	-91.78267	36.49908
	-91.79958	36.49895
	-91.80122	36.49707
	-91.80244	36.49698
	-91.80298	36.49697
	-91.80482	36.49701
	-91.80573	36.497
	-91.80669	36.49723
	-91.80685	36.49732
	-91.80736	36.49898
	-91.86438	36.49879
	-91.866	36.49877
	-91.93641	36.49858
	-91.9858	36.49843
	-91.98875	36.4985
	-92.01937	36.49852
	-92.02885	36.49864
	-92.05718	36.49867
	-92.07493	36.49876
	-92.09836	36.4988
	-92.11173	36.49884
	-92.1119	36.49895
	-92.11241	36.49921
	-92.11409	36.49976
	-92.11425	36.49986
	-92.11442	36.50003
	-92.11552	36.50059
	-92.11595	36.50066
	-92.11631	36.50069
	-92.11981	36.50062
	-92.12038	36.50074
	-92.12522	36.50074
	-92.12848	36.5007
	-92.13086	36.50073
	-92.13602	36.50073
	-92.13772	36.50071
	-92.13856	36.50052
	-92.13874	36.50043
	-92.13924	36.50009
	-92.13933	36.50001
	-92.13971	36.49953
	-92.13993	36.4991
	-92.14006	36.49869
	-92.19784	36.49836
	-92.1975	36.49748
	-92.19953	36.49671
	-92.19953	36.49639
	-92.21147	36.49637
	-92.21302	36.49639
	-92.21393	36.49639
	-92.21404	36.49638
	-92.21408	36.49642
	-92.21411	36.49638
	-92.21643	36.49641
	-92.21761	36.49681
	-92.21792	36.49704
	-92.21863	36.49804
	-92.21875	36.4984
	-92.25945	36.49818
	-92.30929	36.49789
	-92.31841	36.49771
	-92.35028	36.49779
	-92.37516	36.4972
	-92.38493	36.49784
	-92.42038	36.49791
	-92.43426	36.49826
	-92.44413	36.49853
	-92.51684	36.49874
	-92.52855	36.49849
	-92.53074	36.49859
	-92.56424	36.49824
	-92.76205	36.4978
	-92.77433	36.49786
	-92.78517	36.49783
	-92.83862	36.49808
	-92.83888	36.49803
	-92.89406	36.49785
	-92.89434	36.49787
	-93.06845	36.49825
	-93.06951	36.49824
	-93.08763	36.49824
	-93.08872	36.4982
	-93.08899	36.49818
	-93.12597	36.49785
	-93.29811	36.49835
	-93.31519	36.49841
	-93.39472	36.49852
	-93.39608	36.49867
	-93.42699	36.49858
	-93.44714	36.49867
	-93.44715	36.4986
	-93.44752	36.49862
	-93.44723	36.49796
	-93.44809	36.49759
	-93.44842	36.49717
	-93.44856	36.49706
	-93.44873	36.49694
	-93.44947	36.49661
	-93.44966	36.49657
	-93.44999	36.49653
	-93.45025	36.49652
	-93.45057	36.49653
	-93.45082	36.49655
	-93.45122	36.49665
	-93.45169	36.49666
	-93.45197	36.49669
	-93.45276	36.49659
	-93.4537	36.49656
	-93.45435	36.49659
	-93.45464	36.49639
	-93.4555	36.49605
	-93.45612	36.49597
	-93.45659	36.49596
	-93.4568	36.49598
	-93.45686	36.49597
	-93.45727	36.49571
	-93.45817	36.49503
	-93.45851	36.49459
	-93.45888	36.49422
	-93.45979	36.49351
	-93.46	36.49318
	-93.46043	36.49261
	-93.46232	36.49183
	-93.46264	36.49187
	-93.46301	36.49186
	-93.46439	36.49152
	-93.46502	36.49127
	-93.46562	36.49113
	-93.46679	36.491
	-93.46738	36.49026
	-93.46781	36.48987
	-93.46911	36.48897
	-93.46996	36.48864
	-93.47052	36.48856
	-93.47213	36.48904
	-93.47236	36.48925
	-93.47274	36.48951
	-93.47322	36.4923
	-93.47069	36.49274
	-93.47032	36.49299
	-93.4701	36.49326
	-93.46998	36.49361
	-93.46821	36.49492
	-93.46724	36.49498
	-93.46636	36.49507
	-93.46619	36.4951
	-93.46564	36.49534
	-93.46376	36.49579
	-93.46337	36.49585
	-93.46305	36.49586
	-93.46257	36.49641
	-93.46153	36.49722
	-93.46118	36.49768
	-93.4608	36.49806
	-93.45993	36.49872
	-93.49229	36.49885
	-93.49983	36.49886
	-93.50021	36.49719
	-93.50047	36.49703
	-93.5008	36.49673
	-93.50121	36.49646
	-93.50153	36.49629
	-93.5025	36.49607
	-93.50645	36.49616
	-93.50727	36.49635
	-93.50755	36.49649
	-93.50805	36.49683
	-93.5086	36.49734
	-93.50843	36.49752
	-93.50889	36.49887
	-93.58428	36.4989
	-93.70109	36.49914
	-93.70108	36.49879
	-93.70303	36.49675
	-93.70395	36.49673
	-93.70429	36.49674
	-93.70474	36.49671
	-93.70544	36.4967
	-93.70599	36.49675
	-93.70628	36.49676
	-93.70685	36.49675
	-93.70694	36.49676
	-93.70783	36.49717
	-93.70836	36.49715
	-93.70946	36.49718
	-93.70995	36.49723
	-93.71023	36.4973
	-93.7114	36.49918
	-93.71889	36.49918
	-93.72802	36.49904
	-93.7572	36.49898
	-93.75684	36.49835
	-93.75666	36.49793
	-93.7566	36.49677
	-93.75662	36.49668
	-93.75687	36.49608
	-93.75753	36.4954
	-93.7576	36.49536
	-93.75853	36.49505
	-93.75886	36.49504
	-93.75903	36.49505
	-93.76053	36.49519
	-93.76115	36.49519
	-93.76119	36.4952
	-93.7632	36.49528
	-93.76386	36.49533
	-93.76418	36.49521
	-93.76471	36.49509
	-93.76511	36.49505
	-93.76567	36.49501
	-93.76645	36.495
	-93.7669	36.49503
	-93.76745	36.4951
	-93.76758	36.49507
	-93.76811	36.49501
	-93.76825	36.49501
	-93.7689	36.49513
	-93.769	36.49517
	-93.76951	36.49546
	-93.77037	36.49606
	-93.77059	36.49624
	-93.77072	36.49637
	-93.77111	36.49631
	-93.77155	36.49622
	-93.77183	36.49619
	-93.77233	36.49617
	-93.77267	36.49619
	-93.77294	36.49623
	-93.77306	36.49626
	-93.77336	36.49638
	-93.77372	36.49599
	-93.77515	36.49539
	-93.77527	36.49539
	-93.77581	36.49547
	-93.77604	36.49553
	-93.77649	36.49572
	-93.77683	36.49591
	-93.77689	36.49596
	-93.77719	36.49515
	-93.77724	36.49508
	-93.778	36.49439
	-93.77842	36.49422
	-93.77855	36.49418
	-93.77959	36.49395
	-93.78196	36.49549
	-93.78069	36.49745
	-93.78062	36.49773
	-93.78065	36.49869
	-93.78062	36.49894
	-93.90466	36.49872
	-93.9063	36.49702
	-93.90706	36.49701
	-93.90724	36.49699
	-93.90814	36.49696
	-93.90849	36.49699
	-93.90871	36.49703
	-93.91059	36.49703
	-93.91214	36.49707
	-93.91333	36.49705
	-93.91386	36.49691
	-93.91444	36.49685
	-93.91464	36.49688
	-93.91507	36.49673
	-93.91589	36.49675
	-93.91597	36.49677
	-93.91646	36.49702
	-93.91758	36.49701
	-93.91758	36.49752
	-93.91921	36.49766
	-93.91912	36.49872
	-94.07611	36.49873
	-94.09859	36.49868
	-94.11106	36.49859
	-94.11147	36.4986
	-94.25875	36.49919
	-94.25864	36.49974
	-94.25914	36.50147
	-94.25928	36.50162
	-94.26052	36.50224
	-94.26085	36.50228
	-94.2618	36.50215
	-94.26316	36.50163
	-94.26516	36.50112
	-94.2663	36.49922
	-94.30798	36.49939
	-94.30801	36.50023
	-94.30804	36.50029
	-94.3087	36.50103
	-94.30884	36.50112
	-94.30963	36.50127
	-94.30999	36.50142
	-94.31016	36.50145
	-94.31076	36.50149
	-94.31145	36.50143
	-94.31184	36.50136
	-94.31218	36.50126
	-94.3125	36.50113
	-94.31274	36.50101
	-94.31296	36.50036
	-94.3134	36.50032
	-94.31357	36.50023
	-94.31383	36.49941
	-94.34588	36.49954
	-94.34565	36.49858
	-94.34576	36.49841
	-94.34595	36.49795
	-94.34632	36.49738
	-94.34658	36.4971
	-94.34748	36.49654
	-94.34779	36.49645
	-94.34847	36.49637
	-94.34969	36.49644
	-94.34994	36.49647
	-94.35093	36.49665
	-94.35128	36.49675
	-94.35206	36.49705
	-94.35358	36.49731
	-94.35426	36.49757
	-94.35493	36.49797
	-94.35533	36.49958
	-94.3612	36.4996
	-94.38571	36.49954
	-94.38678	36.50134
	-94.38747	36.5015
	-94.38786	36.50154
	-94.38832	36.50155
	-94.39069	36.50123
	-94.39101	36.50123
	-94.39223	36.50082
	-94.39274	36.50044
	-94.39297	36.50023
	-94.39365	36.49952
	-94.40639	36.49949
	-94.40684	36.49972
	-94.40689	36.4999
	-94.40707	36.50034
	-94.40971	36.50136
	-94.41044	36.49948
	-94.41605	36.49947
	-94.45258	36.49938
	-94.51948	36.49921
	-94.52202	36.49923
	-94.52396	36.50122
	-94.52843	36.50127
	-94.53707	36.50129
	-94.53732	36.50133
	-94.53765	36.50135
	-94.54449	36.50137
	-94.5475	36.50146
	-94.54906	36.50147
	-94.55467	36.50145
	-94.55805	36.50146
	-94.55924	36.5015
	-94.56129	36.49955
	-94.56124	36.49949
	-94.59427	36.49945
	-94.61598	36.49923
	-94.61755	36.49772
	-94.61778	36.49749
	-94.61974	36.49953
	-94.61971	36.50484
	-94.61967	36.50519
	-94.61958	36.5057
	-94.61943	36.50617
	-94.61919	36.50668
	-94.61878	36.50727
	-94.61792	36.50813
	-94.61752	36.50844
	-94.61712	36.52115
	-94.61724	36.54043
	-94.61711	36.54224
	-94.61714	36.54314
	-94.61706	36.58389
	-94.61711	36.61301
	-94.61706	36.61876
	-94.61711	36.63093
	-94.61811	36.6693
	-94.6181	36.67159
	-94.61616	36.67328
	-94.61612	36.67381
	-94.61605	36.67532
	-94.61612	36.68262
	-94.61616	36.70143
	-94.61793	36.70319
	-94.61755	36.77271
	-94.61761	36.83262
	-94.61817	36.83269
	-94.61839	36.83297
	-94.6187	36.83299
	-94.61918	36.83354
	-94.61889	36.83632
	-94.61911	36.83661
	-94.61941	36.83706
	-94.61964	36.83753
	-94.61968	36.83765
	-94.61978	36.83819
	-94.61975	36.83878
	-94.61957	36.83933
	-94.61888	36.84016
	-94.61881	36.84022
	-94.61849	36.84039
	-94.61761	36.8408
	-94.61763	36.85347
	-94.6179	36.88622
	-94.61749	36.90318
	-94.61753	36.91763
	-94.61829	36.99871
	-94.61799	37.00902
	-94.61797	37.03864
	-94.61994	37.04025
	-94.6194	37.04092
	-94.61966	37.04096
	-94.61965	37.04086
	-94.61984	37.04147
	-94.61991	37.04182
	-94.61999	37.04254
	-94.62008	37.04379
	-94.62005	37.04417
	-94.61993	37.04484
	-94.6199	37.05136
	-94.61992	37.05196
	-94.61988	37.05643
	-94.61985	37.05688
	-94.61984	37.05789
	-94.61985	37.05862
	-94.61983	37.05972
	-94.61984	37.06252
	-94.61986	37.06342
	-94.61793	37.06544
	-94.61798	37.07508
	-94.618	37.07631
	-94.62048	37.07481
	-94.62258	37.07356
	-94.62295	37.07339
	-94.62385	37.07307
	-94.62413	37.073
	-94.62464	37.0729
	-94.62519	37.07283
	-94.62549	37.07281
	-94.62598	37.07282
	-94.62793	37.07466
	-94.62631	37.07679
	-94.62589	37.07687
	-94.62549	37.07693
	-94.62524	37.077
	-94.62477	37.0772
	-94.62016	37.07996
	-94.62013	37.08052
	-94.61839	37.08241
	-94.61822	37.08243
	-94.61807	37.08231
	-94.61812	37.08593
	-94.61808	37.08643
	-94.61808	37.09481
	-94.62	37.09664
	-94.62001	37.09704
	-94.62012	37.09884
	-94.6201	37.10127
	-94.62007	37.10196
	-94.62006	37.10398
	-94.61816	37.10585
	-94.61821	37.11317
	-94.61807	37.12976
	-94.61807	37.13235
	-94.61835	37.16021
	-94.61847	37.17478
	-94.6185	37.18118
	-94.61832	37.18877
	-94.61831	37.20569
	-94.61903	37.2054
	-94.61981	37.20738
	-94.62018	37.20738
	-94.62019	37.20781
	-94.62011	37.21118
	-94.62012	37.21822
	-94.6202	37.22524
	-94.62016	37.22544
	-94.62016	37.2272
	-94.61817	37.2292
	-94.61616	37.22721
	-94.61616	37.22701
	-94.61613	37.22719
	-94.61623	37.22825
	-94.61606	37.22951
	-94.61629	37.22998
	-94.61649	37.23032
	-94.61665	37.23053
	-94.61813	37.23074
	-94.61816	37.2376
	-94.61807	37.24044
	-94.61765	37.32359
	-94.61769	37.33684
	-94.61764	37.33842
	-94.61755	37.36414
	-94.61763	37.36744
	-94.61751	37.41091
	-94.61726	37.42554
	-94.61713	37.43982
	-94.6172	37.45479
	-94.6172	37.46037
	-94.61722	37.46048
	-94.61718	37.4652
	-94.61718	37.46797
	-94.61911	37.46966
	-94.61912	37.46978
	-94.61909	37.47054
	-94.61911	37.47159
	-94.61911	37.47484
	-94.61904	37.4824
	-94.61898	37.48375
	-94.61849	37.48373
	-94.6182	37.4854
	-94.61701	37.48519
	-94.61679	37.52151
	-94.61691	37.5278
	-94.61719	37.55349
	-94.61717	37.55538
	-94.6191	37.55738
	-94.61909	37.55753
	-94.61911	37.5582
	-94.6191	37.5618
	-94.61912	37.56686
	-94.619	37.56755
	-94.61894	37.56773
	-94.61866	37.56826
	-94.61858	37.56836
	-94.61716	37.56856
	-94.61731	37.5715
	-94.61728	37.5719
	-94.61743	37.60952
	-94.6173	37.6105
	-94.61748	37.63717
	-94.61755	37.65395
	-94.61766	37.67356
	-94.61788	37.68221
	-94.61766	37.68748
	-94.6196	37.6884
	-94.61973	37.68877
	-94.6198	37.68904
	-94.61985	37.68925
	-94.61989	37.68958
	-94.6199	37.68996
	-94.61987	37.69125
	-94.61986	37.69294
	-94.61988	37.70201
	-94.61993	37.70548
	-94.61993	37.70733
	-94.6199	37.70911
	-94.61991	37.71088
	-94.61989	37.71438
	-94.6199	37.72032
	-94.61988	37.72217
	-94.61793	37.72407
	-94.61781	37.72971
	-94.61772	37.77297
	-94.61686	37.81946
	-94.61645	37.83756
	-94.61643	37.84528
	-94.61603	37.8617
	-94.61697	37.86144
	-94.61751	37.86335
	-94.61796	37.86336
	-94.61787	37.87141
	-94.61785	37.87242
	-94.61783	37.87255
	-94.61755	37.87342
	-94.61751	37.87349
	-94.61585	37.87388
	-94.6159	37.87687
	-94.61752	37.87711
	-94.6173	37.87866
	-94.61772	37.87866
	-94.6177	37.88111
	-94.61772	37.88307
	-94.61772	37.88624
	-94.61769	37.88688
	-94.61766	37.88711
	-94.61568	37.88845
	-94.61539	37.90639
	-94.61478	37.9342
	-94.61483	37.9367
	-94.61475	37.94077
	-94.61461	37.94436
	-94.61459	37.94998
	-94.61456	37.95152
	-94.61455	37.97245
	-94.6159	37.9729
	-94.61609	37.97342
	-94.61612	37.9736
	-94.61616	37.97401
	-94.61616	37.977
	-94.61621	37.97708
	-94.61609	37.97716
	-94.61579	37.97854
	-94.61615	37.97854
	-94.61616	37.97868
	-94.61617	37.98271
	-94.61616	37.98452
	-94.61612	37.98557
	-94.61609	37.98758
	-94.61603	37.98806
	-94.61601	37.98812
	-94.6144	37.98907
	-94.61421	37.99246
	-94.61409	38.03506
	-94.61209	38.03706
	-94.6121	38.04042
	-94.61208	38.04205
	-94.6121	38.04553
	-94.61205	38.05146
	-94.61206	38.05294
	-94.61205	38.05986
	-94.6121	38.06151
	-94.61211	38.06277
	-94.61204	38.06537
	-94.61206	38.06565
	-94.61213	38.0661
	-94.61406	38.06736
	-94.61386	38.14977
	-94.61375	38.16063
	-94.61342	38.16791
	-94.61307	38.19055
	-94.61285	38.20071
	-94.61282	38.20392
	-94.61266	38.20786
	-94.61254	38.21511
	-94.6126	38.21845
	-94.61251	38.22678
	-94.61249	38.23766
	-94.61269	38.27039
	-94.61285	38.28991
	-94.61284	38.29142
	-94.61267	38.30253
	-94.61267	38.31483
	-94.61279	38.32014
	-94.61282	38.32439
	-94.613	38.3358
	-94.61331	38.36441
	-94.61333	38.36962
	-94.6132	38.38882
	-94.61336	38.40342
	-94.61327	38.41685
	-94.61336	38.45797
	-94.61301	38.47485
	-94.61301	38.4776
	-94.6129	38.48238
	-94.61087	38.48433
	-94.61078	38.48893
	-94.61072	38.48962
	-94.61073	38.48996
	-94.61068	38.49023
	-94.61065	38.49161
	-94.61086	38.49163
	-94.61215	38.49375
	-94.61268	38.49343
	-94.61264	38.49583
	-94.61206	38.54776
	-94.61202	38.54961
	-94.61217	38.56553
	-94.61218	38.57655
	-94.61189	38.58014
	-94.61191	38.60927
	-94.61161	38.62058
	-94.61146	38.62501
	-94.6116	38.63538
	-94.61103	38.66328
	-94.49547	38.67104
	-94.37736	38.69355
	-94.27025	38.69248
	-94.14459	38.6839
	-93.90221	38.66353
	-93.66394	38.62438
	-93.39615	38.59648
	-93.22792	38.59004
	-92.9615	38.55353
	-92.91756	38.53581
	-92.864	38.49713
	-92.67242	38.50358
	-92.53921	38.52238
	-92.47604	38.55031
	-92.31626	38.55081
	-92.31691	38.54273
	-92.30424	38.50653
	-92.28685	38.48162
	-92.25208	38.43801
	-92.23585	38.39269
	-92.22543	38.35152
	-92.19917	38.31654
	-92.14749	38.29037
	-92.09039	38.24096
	-92.06643	38.21397
	-92.0663	38.21441
	-92.06569	38.21472
	-92.06501	38.21501
	-92.06472	38.21531
	-92.06463	38.21537
	-92.06389	38.21569
	-92.0638	38.21571
	-92.06273	38.21564
	-92.06259	38.21559
	-92.06192	38.21519
	-92.06184	38.21512
	-92.06153	38.21473
	-92.06112	38.21459
	-92.06081	38.21442
	-92.06045	38.21426
	-92.06004	38.21403
	-92.05989	38.21393
	-92.05944	38.21357
	-92.05894	38.213
	-92.05877	38.21274
	-92.05866	38.21256
	-92.05844	38.21197
	-92.05842	38.21185
	-92.05842	38.21105
	-92.05847	38.21078
	-92.05846	38.21068
	-92.0585	38.20992
	-92.05848	38.20952
	-92.05852	38.20903
	-92.05862	38.20854
	-92.0583	38.20823
	-92.05801	38.20786
	-92.05763	38.20681
	-92.05762	38.20634
	-92.05764	38.20609
	-92.05772	38.2056
	-92.0578	38.2053
	-92.05805	38.20454
	-92.04038	38.18464
	-92.01663	38.12794
	-91.98787	38.07186
	-91.97847	38.05588
	-91.97831	38.0559
	-91.97761	38.05589
	-91.97751	38.05587
	-91.97616	38.05493
	-91.97614	38.0549
	-91.97582	38.05477
	-91.97522	38.05446
	-91.97503	38.05439
	-91.97465	38.0542
	-91.97453	38.05412
	-91.97412	38.05377
	-91.97401	38.05365
	-91.97365	38.05306
	-91.97359	38.05291
	-91.97367	38.05268
	-91.97311	38.05186
	-91.97309	38.05171
	-91.97307	38.05168
	-91.97297	38.05125
	-91.9729	38.05077
	-91.97287	38.05018
	-91.97296	38.0493
	-91.97307	38.04886
	-91.97317	38.04859
	-91.97337	38.04822
	-91.97345	38.04803
	-91.97353	38.04749
	-91.96161	38.02722
	-91.97078	37.99537
	-91.93978	37.91498
	-91.93513	37.85058
	-91.93447	37.84147
	-91.95156	37.74786
	-91.95274	37.65972
	-91.95982	37.57849
	-91.96748	37.50932
	-91.98398	37.38158
	-91.99177	37.36654
	-91.99171	37.36675
	-91.99446	37.36743
	-91.99452	37.36739
	-91.99548	37.36565
	-91.99546	37.36371
	-91.9958	37.36294
	-91.99582	37.36263
	-91.99581	37.3622
	-91.99552	37.36128
	-91.99538	37.36105
	-91.99497	37.36057
	-91.99492	37.36044
	-92.00063	37.34942
	-92.00005	37.34965
	-91.99929	37.34979
	-91.99683	37.34977
	-91.99643	37.35009
	-91.99596	37.35037
	-91.99596	37.35049
	-91.99583	37.35116
	-91.99575	37.35137
	-91.99555	37.35176
	-91.99539	37.352
	-91.99503	37.35242
	-91.99483	37.3526
	-91.99405	37.35301
	-91.99389	37.35306
	-91.99343	37.35313
	-91.99062	37.35324
	-91.99041	37.3533
	-91.99009	37.35345
	-91.98849	37.35456
	-91.98842	37.3548
	-91.98828	37.35514
	-91.98806	37.35557
	-91.98719	37.35644
	-91.9868	37.35664
	-91.98605	37.35685
	-91.98587	37.35687
	-91.98565	37.35694
	-91.98313	37.35566
	-91.98441	37.35314
	-91.98478	37.35302
	-91.98479	37.35297
	-91.98507	37.35239
	-91.98532	37.35205
	-91.98576	37.3516
	-91.986	37.35142
	-91.98796	37.35007
	-91.98824	37.3499
	-91.98883	37.34962
	-91.98968	37.34934
	-91.9902	37.34925
	-91.99195	37.34918
	-91.99204	37.34854
	-91.99214	37.34819
	-91.99279	37.34723
	-91.99295	37.3471
	-91.99371	37.34671
	-91.9939	37.34666
	-91.99439	37.3466
	-91.99479	37.34628
	-91.9952	37.34602
	-91.99536	37.34595
	-91.99623	37.34576
	-91.99894	37.34579
	-92.00088	37.34501
	-92.00088	37.34451
	-92.00092	37.34405
	-92.00198	37.34247
	-92.00207	37.34242
	-92.00302	37.34219
	-92.00437	37.3422
	-92.03253	37.28781
	-92.03227	37.28778
	-92.03189	37.28771
	-92.03149	37.28767
	-92.03146	37.28768
	-92.03098	37.28817
	-92.03043	37.28879
	-92.03014	37.28906
	-92.02962	37.28944
	-92.02939	37.28958
	-92.02909	37.28974
	-92.02868	37.28991
	-92.0284	37.29
	-92.02809	37.29008
	-92.02787	37.29012
	-92.02765	37.29014
	-92.02541	37.28841
	-92.02715	37.28617
	-92.02726	37.28616
	-92.02733	37.28614
	-92.02757	37.28599
	-92.02801	37.28549
	-92.02851	37.28496
	-92.02905	37.28446
	-92.02983	37.28399
	-92.03003	37.28392
	-92.03051	37.28379
	-92.03101	37.28369
	-92.03169	37.28367
	-92.03185	37.28368
	-92.03204	37.28371
	-92.03252	37.28219
	-92.03249	37.28178
	-92.0325	37.28159
	-92.03258	37.28105
	-92.03265	37.28081
	-92.03315	37.27996
	-92.03326	37.27985
	-92.03373	37.27951
	-92.03448	37.27911
	-92.03494	37.27864
	-92.0352	37.27833
	-92.03544	37.27775
	-92.03554	37.27734
	-92.03568	37.27692
	-92.0359	37.27644
	-92.03644	37.27514
	-92.03717	37.27428
	-92.03758	37.27405
	-92.03785	37.27393
	-92.03793	37.27377
	-92.03821	37.27336
	-92.03857	37.27297
	-92.03873	37.27283
	-92.03902	37.27262
	-92.03929	37.27245
	-92.03982	37.27215
	-92.04063	37.27173
	-92.04093	37.2716
	-92.04587	37.26205
	-92.07653	37.22774
	-92.07202	37.17645
	-92.03017	37.14357
	-92.00483	37.07213
	-91.96711	37.02273
	-91.88636	37.00767
	-91.85997	36.96114
	-91.85933	36.96115
	-91.85927	36.96108
	-91.85886	36.96071
	-91.85821	36.96022
	-91.85728	36.9603
	-91.85701	36.9603
	-91.85658	36.96026
	-91.85633	36.96021
	-91.85576	36.96
	-91.85554	36.95989
	-91.8551	36.95956
	-91.85481	36.95925
	-91.8546	36.95898
	-91.85438	36.95862
	-91.85417	36.95818
	-91.85412	36.95804
	-91.85404	36.95769
	-91.85401	36.95748
	-91.85398	36.95702
	-91.85398	36.95573
	-91.85401	36.95468
	-91.854	36.954
	-91.85401	36.95319
	-91.85403	36.95299
	-91.85403	36.9525
	-91.85406	36.95175
	-91.79972	36.90924
	-91.74019	36.88756
	-91.67594	36.8437
	-91.67773	36.84359
	-91.67756	36.84077
	-91.67743	36.84066
	-91.67693	36.84007
	-91.6769	36.83975
	-91.67678	36.83926
	-91.67668	36.839
	-91.67639	36.83847
	-91.67617	36.8382
	-91.67578	36.83785
	-91.67486	36.83722
	-91.67411	36.83676
	-91.67392	36.83666
	-91.67336	36.83641
	-91.67219	36.83601
	-91.67186	36.83595
	-91.67168	36.83593
	-91.67104	36.83589
	-91.67087	36.83585
	-91.67042	36.83571
	-91.67001	36.83561
	-91.66952	36.83554
	-91.66893	36.83553
	-91.66778	36.83555
	-91.66763	36.83525
	-91.66742	36.83494
	-91.6671	36.83458
	-91.66679	36.83432
	-91.66663	36.83421
	-91.66635	36.83406
	-91.66584	36.83387
	-91.66511	36.83365
	-91.6641	36.83336
	-91.66346	36.83321
	-91.66297	36.83313
	-91.66243	36.83305
	-91.6611	36.83293
	-91.66005	36.83285
	-91.6559	36.83002
	-91.63763	36.76631
	-91.65119	36.70065
	-91.55924	36.60277
	-91.48203	36.54076
	-91.47892	36.49828
END
END
