US_Nebraska_East
1
	-97.59291	42.85416
	-97.59192	42.85384
	-97.5761	42.84418
	-97.54154	42.84761
	-97.51936	42.8608
	-97.48415	42.86817
	-97.48077	42.86834
	-97.47851	42.86781
	-97.47698	42.86538
	-97.47722	42.8595
	-97.47689	42.85566
	-97.47547	42.85443
	-97.4681	42.8545
	-97.46446	42.85372
	-97.46135	42.85159
	-97.45776	42.84767
	-97.45389	42.84626
	-97.44753	42.84564
	-97.44227	42.84624
	-97.43823	42.84741
	-97.43438	42.84953
	-97.43	42.85266
	-97.42589	42.85653
	-97.42318	42.85971
	-97.41773	42.86411
	-97.41712	42.86478
	-97.41567	42.86638
	-97.41215	42.86836
	-97.40876	42.86858
	-97.40233	42.86691
	-97.39782	42.86565
	-97.39407	42.86428
	-97.3816	42.86449
	-97.37733	42.86308
	-97.37483	42.86042
	-97.3708	42.85809
	-97.36594	42.85636
	-97.36173	42.85533
	-97.35911	42.85521
	-97.3549	42.85553
	-97.34508	42.85691
	-97.34108	42.85703
	-97.32821	42.86062
	-97.32623	42.86197
	-97.32216	42.8627
	-97.31804	42.86318
	-97.31157	42.86225
	-97.30813	42.86118
	-97.30267	42.86097
	-97.29873	42.86153
	-97.29465	42.86087
	-97.29173	42.85883
	-97.28561	42.85589
	-97.2768	42.85285
	-97.2677	42.85175
	-97.25534	42.85338
	-97.24573	42.85386
	-97.24126	42.85292
	-97.23449	42.85093
	-97.23127	42.8487
	-97.22841	42.84413
	-97.22549	42.84094
	-97.22209	42.83816
	-97.21908	42.83583
	-97.21663	42.82762
	-97.20945	42.81747
	-97.20664	42.81036
	-97.20204	42.80571
	-97.19642	42.80479
	-97.18985	42.80448
	-97.17834	42.80323
	-97.17243	42.80234
	-97.1616	42.7976
	-97.16021	42.79663
	-97.15539	42.79295
	-97.14895	42.79047
	-97.13848	42.7853
	-97.13505	42.78199
	-97.13539	42.77777
	-97.13402	42.77475
	-97.13033	42.77194
	-97.11651	42.76968
	-97.10831	42.77056
	-97.1011	42.77012
	-97.09475	42.76886
	-97.08462	42.76887
	-97.0817	42.77041
	-97.07737	42.77233
	-97.07058	42.77306
	-97.06272	42.77159
	-97.05998	42.77113
	-97.05192	42.77069
	-97.04393	42.7688
	-97.03587	42.76489
	-97.0263	42.76397
	-97.01836	42.76353
	-97.01694	42.76332
	-97.01321	42.76275
	-97.00901	42.75963
	-97.00647	42.75673
	-97.00351	42.75449
	-96.99858	42.75364
	-96.99347	42.75417
	-96.9866	42.75578
	-96.97746	42.75339
	-96.97279	42.75487
	-96.96794	42.75474
	-96.96519	42.75373
	-96.96231	42.75118
	-96.96043	42.74822
	-96.95922	42.74459
	-96.95858	42.74214
	-96.95792	42.73886
	-96.95828	42.73463
	-96.95691	42.73032
	-96.95699	42.72587
	-96.95468	42.7213
	-96.95287	42.71875
	-96.94738	42.71707
	-96.94326	42.71654
	-96.9394	42.71767
	-96.93626	42.71972
	-96.92841	42.72325
	-96.92506	42.72499
	-96.9215	42.72748
	-96.91464	42.72972
	-96.91107	42.73139
	-96.90794	42.73268
	-96.90253	42.73309
	-96.90043	42.73325
	-96.89738	42.733
	-96.89391	42.73192
	-96.89331	42.73166
	-96.89043	42.73041
	-96.88653	42.72994
	-96.88361	42.73028
	-96.87919	42.73126
	-96.87717	42.7318
	-96.87279	42.73104
	-96.86563	42.72943
	-96.86121	42.72704
	-96.8564	42.72423
	-96.85172	42.72143
	-96.84638	42.71847
	-96.8434	42.71547
	-96.84104	42.71291
	-96.84022	42.70963
	-96.83795	42.70607
	-96.83481	42.70405
	-96.82983	42.70364
	-96.82546	42.70402
	-96.8128	42.70411
	-96.80889	42.70317
	-96.80642	42.70198
	-96.80404	42.6973
	-96.80323	42.69355
	-96.80379	42.68825
	-96.80323	42.68207
	-96.80344	42.67695
	-96.8016	42.67301
	-96.79846	42.66919
	-96.79314	42.66629
	-96.78661	42.66461
	-96.77756	42.66326
	-96.77181	42.66181
	-96.76619	42.66083
	-96.76181	42.66039
	-96.75546	42.65998
	-96.74993	42.66048
	-96.74104	42.66197
	-96.73473	42.66285
	-96.72976	42.66373
	-96.72371	42.66288
	-96.71547	42.6601
	-96.70422	42.65657
	-96.70058	42.65459
	-96.69663	42.65243
	-96.69589	42.64995
	-96.69826	42.64382
	-96.69636	42.64005
	-96.69568	42.6369
	-96.69731	42.63211
	-96.70302	42.62768
	-96.70637	42.62134
	-96.70971	42.61632
	-96.71177	42.61136
	-96.71152	42.60995
	-96.711	42.60713
	-96.70864	42.60318
	-96.70366	42.59749
	-96.69907	42.59323
	-96.69512	42.58902
	-96.68903	42.58185
	-96.68405	42.57661
	-96.67894	42.57307
	-96.67259	42.57035
	-96.6647	42.56814
	-96.65774	42.5657
	-96.6526	42.56321
	-96.64697	42.55992
	-96.64255	42.55655
	-96.63865	42.55268
	-96.6362	42.54923
	-96.63427	42.54534
	-96.63281	42.54076
	-96.6329	42.53703
	-96.63298	42.53111
	-96.63215	42.52766
	-96.63161	42.52561
	-96.62929	42.51992
	-96.62646	42.51533
	-96.62354	42.51204
	-96.6174	42.50783
	-96.61054	42.50502
	-96.60509	42.50378
	-96.59852	42.50353
	-96.59311	42.50416
	-96.58715	42.50609
	-96.58281	42.5085
	-96.57766	42.51201
	-96.57217	42.51508
	-96.56569	42.51777
	-96.55947	42.5191
	-96.55187	42.51944
	-96.54466	42.51875
	-96.53822	42.51736
	-96.53265	42.51486
	-96.52668	42.51084
	-96.52149	42.50537
	-96.5196	42.50122
	-96.51797	42.4967
	-96.51415	42.49192
	-96.51033	42.4885
	-96.50484	42.48464
	-96.499	42.48204
	-96.49282	42.48037
	-96.48561	42.47989
	-96.47767	42.4804
	-96.47209	42.48144
	-96.46638	42.48353
	-96.46257	42.48553
	-96.45626	42.48746
	-96.44999	42.4891
	-96.44428	42.48986
	-96.4402	42.49001
	-96.43677	42.49011
	-96.42847	42.48935
	-96.42526	42.48883
	-96.41898	42.48799
	-96.4117	42.48733
	-96.40703	42.48728
	-96.404	42.4871
	-96.40257	42.48687
	-96.39986	42.48615
	-96.39749	42.48524
	-96.39623	42.48461
	-96.39414	42.48342
	-96.39365	42.48314
	-96.39254	42.48242
	-96.39087	42.48115
	-96.38987	42.48014
	-96.3882	42.47822
	-96.38642	42.47588
	-96.38585	42.47504
	-96.38551	42.47443
	-96.38485	42.47312
	-96.3844	42.47219
	-96.3841	42.47145
	-96.3829	42.46864
	-96.38211	42.46626
	-96.38161	42.46454
	-96.38116	42.46255
	-96.38081	42.46078
	-96.38033	42.45795
	-96.38012	42.45547
	-96.37992	42.45365
	-96.3799	42.45318
	-96.37987	42.45235
	-96.37985	42.45026
	-96.37996	42.44848
	-96.38012	42.44724
	-96.38051	42.44512
	-96.38094	42.44366
	-96.38131	42.44291
	-96.38214	42.44094
	-96.38272	42.43964
	-96.38439	42.43668
	-96.38558	42.43492
	-96.38735	42.43259
	-96.38859	42.4312
	-96.39124	42.42854
	-96.39204	42.42777
	-96.39301	42.42695
	-96.39371	42.42638
	-96.39474	42.42565
	-96.39675	42.42415
	-96.39819	42.42314
	-96.40055	42.42172
	-96.40252	42.42045
	-96.40358	42.41972
	-96.40485	42.41873
	-96.40649	42.41729
	-96.40864	42.41548
	-96.40967	42.41454
	-96.41098	42.41296
	-96.41236	42.41106
	-96.41304	42.4097
	-96.41409	42.408
	-96.41502	42.40575
	-96.41579	42.40285
	-96.41604	42.40105
	-96.41603	42.39658
	-96.4158	42.3952
	-96.4156	42.39421
	-96.41531	42.39306
	-96.41469	42.39139
	-96.41395	42.38985
	-96.41183	42.38619
	-96.40915	42.38149
	-96.40844	42.37609
	-96.41399	42.36593
	-96.41709	42.36144
	-96.41792	42.3587
	-96.41817	42.35468
	-96.41779	42.35145
	-96.41389	42.34339
	-96.408	42.33741
	-96.40296	42.33416
	-96.39722	42.33132
	-96.39627	42.33086
	-96.38417	42.32587
	-96.37531	42.31834
	-96.37179	42.31417
	-96.36997	42.31088
	-96.36921	42.30834
	-96.36851	42.30362
	-96.36845	42.29185
	-96.36579	42.28587
	-96.3608	42.27987
	-96.35735	42.27704
	-96.35639	42.27648
	-96.34145	42.26911
	-96.336	42.26481
	-96.33133	42.25943
	-96.3289	42.25473
	-96.32771	42.24999
	-96.32895	42.24189
	-96.33	42.24022
	-96.32287	42.23364
	-96.32283	42.23146
	-96.32372	42.22989
	-96.33204	42.22158
	-96.33378	42.22051
	-96.33632	42.21892
	-96.33909	42.21809
	-96.34505	42.21749
	-96.35659	42.21518
	-96.35684	42.21501
	-96.35838	42.21425
	-96.35987	42.21055
	-96.35909	42.2078
	-96.35151	42.20049
	-96.34917	42.19725
	-96.34807	42.19475
	-96.34724	42.18672
	-96.35032	42.17744
	-96.34969	42.17204
	-96.34775	42.16681
	-96.34239	42.16049
	-96.33798	42.1572
	-96.32587	42.15149
	-96.31953	42.14665
	-96.31698	42.14317
	-96.31382	42.13634
	-96.31008	42.13252
	-96.30588	42.12983
	-96.30102	42.12804
	-96.28567	42.12562
	-96.2792	42.12348
	-96.275	42.12078
	-96.2723	42.1184
	-96.2689	42.11359
	-96.26732	42.11026
	-96.26659	42.10326
	-96.26764	42.09618
	-96.27178	42.0887
	-96.27413	42.08593
	-96.27676	42.08142
	-96.27908	42.07403
	-96.27934	42.07028
	-96.27844	42.0604
	-96.27555	42.05198
	-96.27288	42.04724
	-96.27143	42.04499
	-96.26864	42.04231
	-96.26389	42.03986
	-96.26113	42.03897
	-96.25609	42.03808
	-96.25454	42.03945
	-96.24683	42.04162
	-96.23839	42.04109
	-96.23212	42.03914
	-96.22566	42.03522
	-96.22382	42.03335
	-96.2219	42.02956
	-96.22173	42.0262
	-96.22361	42.02265
	-96.22787	42.01865
	-96.23886	42.01232
	-96.24193	42.00697
	-96.24238	42.0029
	-96.24236	42.00277
	-96.24203	42.00091
	-96.24071	41.99935
	-96.23649	41.99643
	-96.22974	41.99441
	-96.22546	41.99473
	-96.2239	41.99546
	-96.22181	41.99738
	-96.21764	42.00386
	-96.21522	42.0067
	-96.20608	42.00927
	-96.19456	42.00866
	-96.18807	42.00632
	-96.18464	42.00263
	-96.18357	41.99999
	-96.1838	41.99776
	-96.18478	41.99546
	-96.18952	41.98931
	-96.19214	41.98446
	-96.19155	41.98203
	-96.1906	41.98072
	-96.18626	41.97742
	-96.18424	41.9767
	-96.1772	41.97633
	-96.17415	41.97686
	-96.16807	41.979
	-96.16068	41.98011
	-96.15654	41.98014
	-96.14212	41.97818
	-96.14176	41.97814
	-96.14123	41.97806
	-96.13254	41.97463
	-96.1295	41.97167
	-96.1289	41.96973
	-96.12919	41.96514
	-96.13332	41.95573
	-96.13539	41.95222
	-96.1426	41.94591
	-96.1436	41.94451
	-96.14458	41.94154
	-96.14349	41.93739
	-96.13661	41.92717
	-96.13613	41.92353
	-96.13674	41.92083
	-96.13965	41.91684
	-96.14226	41.91538
	-96.1543	41.91242
	-96.1591	41.91006
	-96.16077	41.90804
	-96.16199	41.90555
	-96.16176	41.90182
	-96.1582	41.89717
	-96.15218	41.89209
	-96.14883	41.88813
	-96.14735	41.88481
	-96.14676	41.87754
	-96.14608	41.87499
	-96.14448	41.87185
	-96.14204	41.86886
	-96.14085	41.86785
	-96.14022	41.86732
	-96.13821	41.86558
	-96.13525	41.86313
	-96.13062	41.86081
	-96.12321	41.85858
	-96.1162	41.85487
	-96.11396	41.8531
	-96.11025	41.84885
	-96.10803	41.8444
	-96.10791	41.84034
	-96.11091	41.83082
	-96.11081	41.82817
	-96.10935	41.82373
	-96.10759	41.82068
	-96.10375	41.81715
	-96.09827	41.81421
	-96.09383	41.81278
	-96.08103	41.81014
	-96.07555	41.80781
	-96.06966	41.80351
	-96.06733	41.80063
	-96.06488	41.79623
	-96.06454	41.793
	-96.06641	41.78891
	-96.0732	41.78301
	-96.07754	41.77782
	-96.07894	41.77135
	-96.0783	41.7616
	-96.07991	41.75789
	-96.08064	41.7572
	-96.08467	41.75331
	-96.09169	41.75042
	-96.09665	41.74927
	-96.09751	41.74908
	-96.10277	41.74634
	-96.10462	41.74421
	-96.10642	41.73789
	-96.10633	41.73459
	-96.10558	41.73165
	-96.10261	41.72802
	-96.0876	41.72218
	-96.07968	41.71796
	-96.07515	41.71326
	-96.07338	41.71067
	-96.07249	41.70879
	-96.07232	41.70686
	-96.07306	41.705
	-96.07595	41.70166
	-96.08243	41.69816
	-96.08653	41.69779
	-96.08657	41.69815
	-96.08731	41.69926
	-96.08738	41.69931
	-96.08834	41.69969
	-96.08882	41.69975
	-96.08936	41.69976
	-96.08948	41.69974
	-96.08971	41.7
	-96.08995	41.70019
	-96.09048	41.70051
	-96.09114	41.70075
	-96.09144	41.70081
	-96.09179	41.70084
	-96.09204	41.70084
	-96.09309	41.70009
	-96.09329	41.70035
	-96.09349	41.70019
	-96.09381	41.69987
	-96.09402	41.69961
	-96.09429	41.69918
	-96.09448	41.69876
	-96.09407	41.69857
	-96.09431	41.69806
	-96.10512	41.69992
	-96.11197	41.69777
	-96.11775	41.69422
	-96.12016	41.69115
	-96.1214	41.68852
	-96.12152	41.68199
	-96.12098	41.67786
	-96.11812	41.6744
	-96.11498	41.67122
	-96.11148	41.66855
	-96.09984	41.66103
	-96.09793	41.65868
	-96.09541	41.65274
	-96.09505	41.64737
	-96.09773	41.63963
	-96.1007	41.63551
	-96.11415	41.62398
	-96.11623	41.62157
	-96.11795	41.61736
	-96.1181	41.6135
	-96.11756	41.61
	-96.11583	41.60576
	-96.11383	41.60228
	-96.10939	41.59687
	-96.10446	41.59317
	-96.1015	41.59158
	-96.08868	41.58752
	-96.08577	41.58575
	-96.08342	41.58334
	-96.08184	41.58041
	-96.08115	41.57729
	-96.08118	41.57427
	-96.08241	41.57123
	-96.08479	41.56783
	-96.09182	41.56109
	-96.09361	41.55827
	-96.09585	41.55088
	-96.09619	41.54719
	-96.09409	41.53927
	-96.08971	41.53178
	-96.08822	41.53059
	-96.08049	41.5282
	-96.07307	41.52505
	-96.06753	41.52034
	-96.06364	41.51616
	-96.05793	41.51149
	-96.05369	41.50886
	-96.04812	41.50727
	-96.0407	41.50708
	-96.0381	41.50799
	-96.0366	41.50905
	-96.0343	41.51285
	-96.03059	41.52729
	-96.02844	41.53962
	-96.02729	41.54108
	-96.02318	41.54436
	-96.01969	41.54574
	-96.01647	41.54608
	-96.01402	41.54588
	-96.01003	41.54553
	-96.00599	41.54429
	-96.00508	41.544
	-96.00116	41.54115
	-95.99953	41.53868
	-95.99389	41.52341
	-95.99267	41.51729
	-95.9926	41.51417
	-95.99283	41.512
	-95.99394	41.50976
	-95.9979	41.50479
	-96.00733	41.49763
	-96.01599	41.49266
	-96.01922	41.4893
	-96.01982	41.48803
	-96.01954	41.48662
	-96.01639	41.48156
	-96.01176	41.47621
	-96.00883	41.47404
	-96.00471	41.47234
	-95.99102	41.47037
	-95.98296	41.46978
	-95.97345	41.46732
	-95.96548	41.46351
	-95.96233	41.46281
	-95.95702	41.46281
	-95.94646	41.46617
	-95.94197	41.46626
	-95.9368	41.46519
	-95.93292	41.4638
	-95.92571	41.45938
	-95.92253	41.45577
	-95.92028	41.45157
	-95.91986	41.44792
	-95.92058	41.4443
	-95.92183	41.44206
	-95.9239	41.43974
	-95.9307	41.43389
	-95.93219	41.43191
	-95.93317	41.42943
	-95.9323	41.42212
	-95.92989	41.41515
	-95.92972	41.41133
	-95.93078	41.40618
	-95.93689	41.39639
	-95.93749	41.39327
	-95.93519	41.38439
	-95.92929	41.3749
	-95.92879	41.3701
	-95.93099	41.3647
	-95.93135	41.36411
	-95.93142	41.36404
	-95.93218	41.36296
	-95.93313	41.36215
	-95.93335	41.36183
	-95.93364	41.36155
	-95.93508	41.36049
	-95.93547	41.36013
	-95.93626	41.35976
	-95.93655	41.35948
	-95.93692	41.35925
	-95.93829	41.35874
	-95.93906	41.35838
	-95.94005	41.35812
	-95.94081	41.35781
	-95.94136	41.35769
	-95.94302	41.35713
	-95.94334	41.35706
	-95.9457	41.3568
	-95.94691	41.35661
	-95.94827	41.35626
	-95.9486	41.35612
	-95.94934	41.35599
	-95.94989	41.35578
	-95.9504	41.35568
	-95.95078	41.35555
	-95.95096	41.35548
	-95.95232	41.35487
	-95.95344	41.35404
	-95.95395	41.35378
	-95.95427	41.35351
	-95.95488	41.35281
	-95.95567	41.35199
	-95.95629	41.35106
	-95.95663	41.35072
	-95.95713	41.34959
	-95.95717	41.34936
	-95.95725	41.34888
	-95.9573	41.34737
	-95.95714	41.3459
	-95.95667	41.34465
	-95.95604	41.34306
	-95.95529	41.3419
	-95.95342	41.33947
	-95.95265	41.33869
	-95.95166	41.3375
	-95.95121	41.33718
	-95.9502	41.33622
	-95.94803	41.33444
	-95.94763	41.33408
	-95.94653	41.33314
	-95.94484	41.33208
	-95.94365	41.33124
	-95.94272	41.33061
	-95.94067	41.32934
	-95.94012	41.32884
	-95.93939	41.32851
	-95.93902	41.32842
	-95.93896	41.32838
	-95.93786	41.32785
	-95.93638	41.327
	-95.93573	41.32647
	-95.93446	41.32596
	-95.93286	41.32505
	-95.93172	41.3246
	-95.93101	41.32424
	-95.92938	41.32313
	-95.92779	41.32256
	-95.92583	41.32158
	-95.92561	41.3215
	-95.92518	41.32135
	-95.92274	41.32086
	-95.92138	41.32043
	-95.91865	41.32008
	-95.91817	41.32007
	-95.9177	41.32014
	-95.91649	41.32011
	-95.91557	41.31995
	-95.91509	41.31992
	-95.91462	41.31996
	-95.91412	41.32008
	-95.91234	41.32008
	-95.91054	41.32029
	-95.90973	41.3203
	-95.90881	41.3205
	-95.90792	41.3206
	-95.90518	41.32111
	-95.90414	41.32124
	-95.90258	41.32135
	-95.90174	41.32147
	-95.90088	41.32134
	-95.89994	41.32148
	-95.89879	41.32125
	-95.89728	41.32123
	-95.89684	41.3211
	-95.89601	41.32095
	-95.89524	41.32097
	-95.89482	41.32094
	-95.8944	41.32085
	-95.89382	41.32061
	-95.89345	41.32054
	-95.89203	41.32037
	-95.89151	41.32021
	-95.89092	41.3199
	-95.88991	41.31968
	-95.88925	41.31947
	-95.88732	41.31862
	-95.88694	41.31857
	-95.88635	41.31842
	-95.88555	41.3181
	-95.88458	41.31742
	-95.88379	41.31701
	-95.88331	41.31685
	-95.88292	41.31665
	-95.88226	41.31618
	-95.88187	41.31569
	-95.88065	41.31482
	-95.88022	41.31462
	-95.87987	41.31438
	-95.87916	41.31357
	-95.87863	41.31333
	-95.87829	41.31308
	-95.8774	41.31207
	-95.87676	41.31154
	-95.87646	41.31109
	-95.87572	41.31029
	-95.8755	41.30986
	-95.87511	41.30945
	-95.87458	41.30841
	-95.87435	41.30818
	-95.87418	41.30792
	-95.87405	41.3074
	-95.87364	41.30629
	-95.8734	41.30588
	-95.87305	41.30487
	-95.8727	41.30428
	-95.87247	41.30344
	-95.87227	41.30307
	-95.87187	41.30181
	-95.87182	41.30135
	-95.87168	41.30097
	-95.87161	41.30007
	-95.87139	41.29948
	-95.87139	41.29857
	-95.87128	41.29808
	-95.8713	41.29729
	-95.87114	41.29669
	-95.87119	41.29604
	-95.87137	41.29508
	-95.87138	41.29429
	-95.87148	41.29402
	-95.87144	41.29341
	-95.87159	41.29274
	-95.87181	41.29238
	-95.87213	41.29115
	-95.87254	41.2903
	-95.87267	41.28992
	-95.87338	41.28886
	-95.87365	41.28834
	-95.874	41.28795
	-95.87414	41.28765
	-95.87432	41.28739
	-95.87472	41.28703
	-95.87531	41.28661
	-95.87559	41.2862
	-95.87605	41.28574
	-95.87748	41.28458
	-95.87841	41.28402
	-95.87888	41.28366
	-95.8805	41.28274
	-95.88145	41.28217
	-95.88332	41.2813
	-95.88449	41.28069
	-95.88761	41.27937
	-95.89111	41.278
	-95.89114	41.278
	-95.89114	41.27799
	-95.89117	41.27799
	-95.89145	41.2779
	-95.89182	41.27777
	-95.89185	41.27777
	-95.89238	41.2776
	-95.89244	41.27758
	-95.89244	41.27757
	-95.89247	41.27757
	-95.89543	41.27661
	-95.89606	41.27635
	-95.89611	41.27632
	-95.89687	41.27619
	-95.89763	41.27598
	-95.89803	41.27572
	-95.89844	41.27554
	-95.89985	41.2752
	-95.90152	41.27468
	-95.902	41.27449
	-95.90276	41.27439
	-95.90284	41.27437
	-95.90518	41.27504
	-95.90666	41.27598
	-95.90669	41.27601
	-95.90671	41.27601
	-95.90702	41.27622
	-95.91221	41.27931
	-95.9126	41.27953
	-95.91224	41.27989
	-95.90944	41.27988
	-95.90814	41.28115
	-95.90583	41.28346
	-95.9057	41.28629
	-95.90661	41.28633
	-95.90614	41.28749
	-95.90548	41.29123
	-95.90536	41.29122
	-95.90512	41.29134
	-95.90522	41.29162
	-95.90477	41.29259
	-95.90471	41.29288
	-95.90479	41.29296
	-95.90539	41.29308
	-95.90541	41.29318
	-95.90515	41.29335
	-95.90482	41.29326
	-95.90458	41.29326
	-95.90422	41.29759
	-95.90439	41.2988
	-95.90486	41.29979
	-95.9059	41.30104
	-95.9082	41.30109
	-95.90824	41.3011
	-95.90851	41.3011
	-95.90946	41.30114
	-95.90949	41.30115
	-95.91171	41.30124
	-95.91358	41.30138
	-95.92025	41.30119
	-95.92236	41.30039
	-95.92469	41.2996
	-95.92639	41.29889
	-95.92764	41.29844
	-95.92965	41.29226
	-95.9296	41.29045
	-95.92962	41.28508
	-95.92865	41.28133
	-95.92588	41.27953
	-95.92481	41.27874
	-95.91819	41.2743
	-95.91804	41.27421
	-95.91791	41.27412
	-95.9179	41.2741
	-95.91594	41.27273
	-95.91482	41.27254
	-95.91409	41.27243
	-95.91481	41.27209
	-95.91532	41.27199
	-95.91574	41.27182
	-95.91634	41.27147
	-95.91666	41.2712
	-95.91747	41.2709
	-95.91752	41.27087
	-95.91775	41.27071
	-95.91787	41.27061
	-95.91873	41.26982
	-95.9197	41.26937
	-95.92012	41.26908
	-95.92056	41.26851
	-95.9215	41.2676
	-95.92164	41.26726
	-95.9217	41.26687
	-95.92239	41.26546
	-95.92242	41.26463
	-95.92231	41.26385
	-95.9223	41.26302
	-95.92204	41.26203
	-95.92211	41.26172
	-95.9221	41.2614
	-95.92178	41.26039
	-95.92161	41.25928
	-95.92136	41.25818
	-95.92072	41.25671
	-95.92044	41.25572
	-95.91962	41.25412
	-95.91953	41.25372
	-95.91909	41.2527
	-95.91835	41.25153
	-95.9174	41.24968
	-95.9169	41.24883
	-95.91673	41.2484
	-95.91621	41.24775
	-95.91602	41.24727
	-95.91579	41.247
	-95.91539	41.24665
	-95.91511	41.24607
	-95.91441	41.24535
	-95.91417	41.245
	-95.91396	41.24448
	-95.91317	41.24354
	-95.91311	41.2433
	-95.91293	41.24292
	-95.91247	41.24229
	-95.91222	41.24157
	-95.91186	41.24102
	-95.91164	41.23999
	-95.9113	41.23944
	-95.91113	41.23848
	-95.91095	41.23803
	-95.91095	41.23775
	-95.9107	41.23623
	-95.91071	41.23504
	-95.91063	41.23458
	-95.91072	41.2343
	-95.91073	41.23362
	-95.91067	41.23322
	-95.91071	41.23268
	-95.91068	41.23215
	-95.91083	41.23189
	-95.91085	41.23166
	-95.91092	41.23153
	-95.91104	41.23096
	-95.91106	41.23046
	-95.91136	41.22978
	-95.9115	41.22896
	-95.9118	41.22832
	-95.91237	41.22733
	-95.91267	41.22672
	-95.91276	41.22629
	-95.91298	41.2259
	-95.91366	41.22499
	-95.91384	41.22458
	-95.91427	41.22386
	-95.91552	41.22256
	-95.91581	41.2221
	-95.917	41.22103
	-95.9173	41.22062
	-95.91849	41.21968
	-95.91904	41.21922
	-95.92096	41.21768
	-95.92186	41.21694
	-95.92245	41.21625
	-95.92276	41.21607
	-95.92304	41.21582
	-95.92343	41.21537
	-95.92368	41.21488
	-95.92446	41.21371
	-95.92508	41.21327
	-95.92546	41.21269
	-95.92568	41.21217
	-95.92593	41.21191
	-95.92612	41.21162
	-95.92634	41.21088
	-95.92657	41.21061
	-95.92674	41.21031
	-95.92683	41.21
	-95.92684	41.20967
	-95.92686	41.20958
	-95.92691	41.20943
	-95.92718	41.20897
	-95.92726	41.20855
	-95.92752	41.20635
	-95.92785	41.20589
	-95.92799	41.2054
	-95.92802	41.2049
	-95.92793	41.20324
	-95.92805	41.20289
	-95.92807	41.20257
	-95.92801	41.20221
	-95.92799	41.20206
	-95.92798	41.20206
	-95.92793	41.20175
	-95.92774	41.2011
	-95.92773	41.20087
	-95.92793	41.20043
	-95.92797	41.20007
	-95.92791	41.19975
	-95.92774	41.19945
	-95.92766	41.19902
	-95.92726	41.1978
	-95.9273	41.19741
	-95.92725	41.19709
	-95.92677	41.19615
	-95.92669	41.19563
	-95.92633	41.19521
	-95.92603	41.19468
	-95.9259	41.19412
	-95.92532	41.19338
	-95.92523	41.19306
	-95.92509	41.1928
	-95.92445	41.19208
	-95.92415	41.19147
	-95.92355	41.19085
	-95.92339	41.19053
	-95.9232	41.19028
	-95.92253	41.18968
	-95.92236	41.1893
	-95.92218	41.18909
	-95.92145	41.18852
	-95.92018	41.18766
	-95.91992	41.18724
	-95.91956	41.1869
	-95.91891	41.18654
	-95.9172	41.18591
	-95.9167	41.18552
	-95.91612	41.18528
	-95.91543	41.18514
	-95.91467	41.18511
	-95.9142	41.18504
	-95.91367	41.18481
	-95.91317	41.18469
	-95.91251	41.18464
	-95.91198	41.18467
	-95.91136	41.18464
	-95.91079	41.18448
	-95.91024	41.1844
	-95.90867	41.18445
	-95.90758	41.18437
	-95.90559	41.18453
	-95.90473	41.1845
	-95.90417	41.18455
	-95.90182	41.18466
	-95.90135	41.18472
	-95.90089	41.18463
	-95.90051	41.18461
	-95.8998	41.18465
	-95.89896	41.18479
	-95.89815	41.18478
	-95.89413	41.18534
	-95.89119	41.18572
	-95.88965	41.18596
	-95.88892	41.18613
	-95.88784	41.18624
	-95.88674	41.1865
	-95.88613	41.18658
	-95.88552	41.18677
	-95.88066	41.18766
	-95.88009	41.18768
	-95.87959	41.18779
	-95.87864	41.18784
	-95.87813	41.18794
	-95.87713	41.18796
	-95.87658	41.18807
	-95.87573	41.18805
	-95.87454	41.18809
	-95.87388	41.18815
	-95.87361	41.18822
	-95.87203	41.18821
	-95.87129	41.18832
	-95.8701	41.18827
	-95.86954	41.18834
	-95.86837	41.18832
	-95.86762	41.18842
	-95.8663	41.18828
	-95.86578	41.1883
	-95.86455	41.18821
	-95.8638	41.18825
	-95.86256	41.18799
	-95.86207	41.18801
	-95.86166	41.18796
	-95.86097	41.18783
	-95.86044	41.18767
	-95.85922	41.1875
	-95.85873	41.18738
	-95.85803	41.18733
	-95.85688	41.187
	-95.85612	41.18695
	-95.85529	41.1867
	-95.85484	41.18653
	-95.85414	41.18641
	-95.85309	41.18599
	-95.85231	41.18583
	-95.85117	41.18532
	-95.85076	41.18523
	-95.85037	41.18509
	-95.84986	41.18477
	-95.8488	41.1843
	-95.84724	41.18335
	-95.84629	41.18255
	-95.84603	41.18235
	-95.84543	41.18193
	-95.84512	41.18161
	-95.84484	41.18115
	-95.84453	41.18079
	-95.84417	41.18041
	-95.84369	41.18007
	-95.84335	41.17968
	-95.84275	41.17813
	-95.84241	41.17778
	-95.84219	41.17742
	-95.84196	41.17632
	-95.84182	41.17598
	-95.84171	41.17586
	-95.84162	41.17547
	-95.84167	41.17486
	-95.84189	41.1711
	-95.84619	41.1667
	-95.85279	41.1654
	-95.86507	41.1678
	-95.86734	41.16873
	-95.86964	41.16883
	-95.87191	41.16812
	-95.87629	41.16515
	-95.88129	41.1599
	-95.88262	41.1552
	-95.88264	41.15506
	-95.88294	41.15457
	-95.88299	41.15367
	-95.88314	41.15326
	-95.8832	41.15265
	-95.88309	41.15185
	-95.88327	41.15148
	-95.88335	41.15106
	-95.88309	41.14934
	-95.88317	41.14881
	-95.88313	41.1482
	-95.88296	41.14782
	-95.8828	41.14722
	-95.88278	41.1469
	-95.88288	41.14666
	-95.88287	41.14645
	-95.88275	41.14602
	-95.88259	41.14572
	-95.8823	41.14474
	-95.88203	41.14353
	-95.88131	41.14213
	-95.88122	41.14167
	-95.88086	41.14088
	-95.88061	41.14062
	-95.88017	41.13995
	-95.88004	41.13956
	-95.87969	41.13894
	-95.87932	41.13859
	-95.87889	41.1381
	-95.86869	41.1247
	-95.86589	41.1179
	-95.86545	41.10127
	-95.86327	41.09376
	-95.86259	41.0884
	-95.86384	41.08351
	-95.86546	41.08037
	-95.87063	41.07523
	-95.8781	41.06959
	-95.88138	41.06519
	-95.88241	41.06041
	-95.88185	41.05721
	-95.87949	41.0533
	-95.86981	41.0452
	-95.86178	41.03943
	-95.86046	41.03789
	-95.86028	41.03708
	-95.85965	41.03569
	-95.85925	41.03346
	-95.8591	41.0316
	-95.85992	41.0254
	-95.86588	41.0174
	-95.86837	41.0127
	-95.86949	41.0094
	-95.8692	41.00595
	-95.86729	41.0016
	-95.86349	40.99734
	-95.86012	40.99524
	-95.85255	40.99174
	-95.84435	40.98952
	-95.83891	40.98648
	-95.83354	40.98266
	-95.83112	40.97944
	-95.82989	40.97778
	-95.82907	40.97569
	-95.82833	40.97238
	-95.82983	40.96386
	-95.83795	40.95062
	-95.84027	40.93994
	-95.83974	40.93278
	-95.83777	40.92471
	-95.83644	40.92164
	-95.83304	40.91724
	-95.8307	40.915
	-95.81871	40.90682
	-95.81693	40.90542
	-95.81684	40.90523
	-95.81541	40.90391
	-95.8143	40.90294
	-95.81346	40.90169
	-95.81199	40.90017
	-95.81089	40.89791
	-95.80977	40.89545
	-95.80947	40.89123
	-95.81071	40.88668
	-95.81208	40.88424
	-95.81593	40.87985
	-95.81959	40.87744
	-95.82499	40.875
	-95.83195	40.87363
	-95.83873	40.87219
	-95.84252	40.87027
	-95.84407	40.86925
	-95.84694	40.86574
	-95.84778	40.86433
	-95.84859	40.86106
	-95.84849	40.85861
	-95.84708	40.85417
	-95.84131	40.8456
	-95.83719	40.83535
	-95.8373	40.83116
	-95.8386	40.82617
	-95.84392	40.81769
	-95.84485	40.81531
	-95.84493	40.81465
	-95.84534	40.81253
	-95.84534	40.81132
	-95.84374	40.80378
	-95.83581	40.79063
	-95.83452	40.78778
	-95.83416	40.78302
	-95.83523	40.77915
	-95.8369	40.77648
	-95.83888	40.77455
	-95.84282	40.77109
	-95.84662	40.76862
	-95.85278	40.76563
	-95.86169	40.76287
	-95.86998	40.75964
	-95.87126	40.75885
	-95.87333	40.75762
	-95.87903	40.75308
	-95.88242	40.74916
	-95.88364	40.74783
	-95.88669	40.7421
	-95.8887	40.73629
	-95.88891	40.73186
	-95.88535	40.72109
	-95.88318	40.71758
	-95.87701	40.71429
	-95.87528	40.71412
	-95.87048	40.71248
	-95.85938	40.70806
	-95.85261	40.70226
	-95.84983	40.69815
	-95.84793	40.6942
	-95.84603	40.68261
	-95.84483	40.67987
	-95.8428	40.6775
	-95.83218	40.6712
	-95.82291	40.66724
	-95.81415	40.66557
	-95.80938	40.66523
	-95.80431	40.66489
	-95.79549	40.66238
	-95.7929	40.66119
	-95.78948	40.65939
	-95.78656	40.65725
	-95.78191	40.65327
	-95.78045	40.65181
	-95.77625	40.64746
	-95.7759	40.64712
	-95.77414	40.6444
	-95.77283	40.6425
	-95.77221	40.64146
	-95.77177	40.64031
	-95.77132	40.63939
	-95.77044	40.63529
	-95.77008	40.62443
	-95.76895	40.62153
	-95.76893	40.62126
	-95.76682	40.61878
	-95.76441	40.61709
	-95.75804	40.61376
	-95.75127	40.60906
	-95.74968	40.60684
	-95.74863	40.60336
	-95.74886	40.59996
	-95.75005	40.59705
	-95.75315	40.59284
	-95.75758	40.58971
	-95.76652	40.58519
	-95.76883	40.5834
	-95.77202	40.58031
	-95.77314	40.5782
	-95.77393	40.57594
	-95.77414	40.57349
	-95.77384	40.57091
	-95.77275	40.56851
	-95.7715	40.5662
	-95.76869	40.56208
	-95.7655	40.55754
	-95.76466	40.55588
	-95.76383	40.55387
	-95.76337	40.5508
	-95.76362	40.5483
	-95.76406	40.54715
	-95.76494	40.54595
	-95.76704	40.54292
	-95.76867	40.5404
	-95.76917	40.53855
	-95.76928	40.53666
	-95.76908	40.53505
	-95.76869	40.53411
	-95.76692	40.53156
	-95.76516	40.52979
	-95.7628	40.52817
	-95.75999	40.52691
	-95.75711	40.52599
	-95.75303	40.525
	-95.74847	40.52437
	-95.74302	40.5239
	-95.74013	40.52382
	-95.73725	40.52393
	-95.73425	40.5245
	-95.73118	40.52544
	-95.73066	40.52544
	-95.72701	40.52727
	-95.72521	40.52791
	-95.7231	40.52826
	-95.72016	40.52828
	-95.71741	40.52788
	-95.71478	40.52695
	-95.71223	40.52554
	-95.70993	40.52371
	-95.70885	40.52145
	-95.69736	40.52842
	-95.69509	40.53305
	-95.69696	40.53707
	-95.69729	40.54128
	-95.69626	40.54524
	-95.69392	40.55024
	-95.69107	40.55581
	-95.68655	40.56014
	-95.6798	40.56411
	-95.67418	40.56498
	-95.67019	40.56368
	-95.6623	40.55638
	-95.66006	40.5514
	-95.65578	40.54569
	-95.65553	40.54459
	-95.65341	40.54189
	-95.65258	40.54077
	-95.65107	40.5406
	-95.64991	40.53915
	-95.64921	40.53818
	-95.64895	40.53768
	-95.64859	40.53668
	-95.64847	40.5361
	-95.64839	40.53444
	-95.65044	40.53235
	-95.65183	40.53238
	-95.65323	40.52768
	-95.65567	40.52356
	-95.66169	40.51731
	-95.66873	40.51466
	-95.69208	40.50813
	-95.6956	40.50647
	-95.70039	40.5051
	-95.69807	40.50294
	-95.69553	40.49895
	-95.69464	40.49697
	-95.69423	40.49525
	-95.69417	40.49279
	-95.69432	40.48851
	-95.69511	40.4857
	-95.69583	40.48377
	-95.69635	40.4822
	-95.69652	40.48142
	-95.69651	40.48085
	-95.69676	40.47885
	-95.69636	40.4759
	-95.69556	40.47388
	-95.6943	40.47179
	-95.69267	40.46948
	-95.68979	40.46683
	-95.68596	40.46419
	-95.68436	40.46337
	-95.67717	40.46016
	-95.67174	40.4567
	-95.66933	40.45486
	-95.66756	40.45319
	-95.66618	40.45178
	-95.66425	40.44995
	-95.66268	40.44805
	-95.66107	40.44638
	-95.66011	40.44505
	-95.65893	40.44328
	-95.6581	40.44161
	-95.65707	40.43976
	-95.65604	40.43718
	-95.65582	40.43625
	-95.65567	40.4352
	-95.65569	40.43415
	-95.65567	40.43214
	-95.65591	40.43015
	-95.65634	40.4284
	-95.65733	40.42629
	-95.65831	40.42454
	-95.66072	40.41884
	-95.66112	40.41724
	-95.66117	40.41564
	-95.661	40.41411
	-95.66051	40.41238
	-95.65881	40.40871
	-95.65185	40.39929
	-95.64942	40.39615
	-95.64698	40.3926
	-95.64393	40.38685
	-95.64215	40.37824
	-95.64268	40.375
	-95.64241	40.36983
	-95.64192	40.36827
	-95.64103	40.3664
	-95.63699	40.36136
	-95.63148	40.35731
	-95.62793	40.35362
	-95.62712	40.3528
	-95.62481	40.34921
	-95.62373	40.34657
	-95.6227	40.34086
	-95.6227	40.34041
	-95.62318	40.33837
	-95.6252	40.33429
	-95.62994	40.33099
	-95.63102	40.33047
	-95.63381	40.3293
	-95.65114	40.32425
	-95.65373	40.32258
	-95.65394	40.32248
	-95.65546	40.32104
	-95.65661	40.31947
	-95.65746	40.31746
	-95.65776	40.31579
	-95.65788	40.31444
	-95.6576	40.31295
	-95.65663	40.31089
	-95.65536	40.30953
	-95.65397	40.30844
	-95.65141	40.30688
	-95.64843	40.30602
	-95.64524	40.30584
	-95.64226	40.30602
	-95.63763	40.3073
	-95.6365	40.30782
	-95.62682	40.31123
	-95.62321	40.31247
	-95.61793	40.31373
	-95.61718	40.31381
	-95.61531	40.31394
	-95.61343	40.31395
	-95.6107	40.31374
	-95.60834	40.31335
	-95.6066	40.31295
	-95.60511	40.31256
	-95.60177	40.3112
	-95.59929	40.30997
	-95.59819	40.3093
	-95.59641	40.30809
	-95.59016	40.3032
	-95.58885	40.30236
	-95.58737	40.30165
	-95.58428	40.30049
	-95.5813	40.29972
	-95.57819	40.29935
	-95.57186	40.29947
	-95.56953	40.29944
	-95.56784	40.29924
	-95.56598	40.2987
	-95.56378	40.298
	-95.56216	40.29736
	-95.56038	40.2965
	-95.55815	40.29513
	-95.55546	40.29314
	-95.55336	40.29098
	-95.55195	40.28879
	-95.5515	40.28743
	-95.55109	40.28479
	-95.55115	40.28292
	-95.55149	40.28106
	-95.55327	40.27782
	-95.55479	40.27497
	-95.55583	40.27277
	-95.55627	40.27076
	-95.55651	40.26924
	-95.55632	40.26771
	-95.55574	40.26596
	-95.55507	40.26451
	-95.55397	40.26325
	-95.55256	40.26172
	-95.55045	40.26034
	-95.54739	40.2588
	-95.54217	40.25707
	-95.53744	40.25578
	-95.53453	40.25467
	-95.52926	40.25202
	-95.52638	40.25068
	-95.52585	40.25044
	-95.52302	40.24942
	-95.52076	40.24892
	-95.51813	40.2486
	-95.51545	40.24851
	-95.51184	40.24851
	-95.5079	40.24872
	-95.49907	40.24943
	-95.49571	40.24941
	-95.49265	40.2492
	-95.48971	40.24869
	-95.48601	40.24763
	-95.48278	40.24627
	-95.48004	40.24463
	-95.47744	40.24258
	-95.47567	40.24077
	-95.47415	40.23892
	-95.47245	40.23613
	-95.47134	40.23366
	-95.47035	40.23082
	-95.4698	40.22783
	-95.46968	40.2252
	-95.46991	40.2223
	-95.47006	40.22151
	-95.47061	40.21918
	-95.47111	40.21779
	-95.47197	40.21576
	-95.47246	40.21484
	-95.47319	40.21375
	-95.47419	40.21258
	-95.47603	40.21052
	-95.47795	40.20854
	-95.47942	40.20656
	-95.4806	40.20456
	-95.48158	40.20262
	-95.48232	40.20067
	-95.48268	40.1991
	-95.48276	40.19735
	-95.48269	40.19581
	-95.48247	40.19401
	-95.48207	40.19237
	-95.48135	40.19027
	-95.48084	40.18904
	-95.47987	40.18726
	-95.4792	40.18616
	-95.47782	40.18419
	-95.47604	40.1821
	-95.47196	40.178
	-95.47037	40.1765
	-95.46389	40.17118
	-95.46176	40.16973
	-95.46075	40.16917
	-95.45787	40.16776
	-95.45482	40.16669
	-95.45243	40.16616
	-95.44765	40.16501
	-95.44498	40.16415
	-95.4428	40.16332
	-95.44069	40.16228
	-95.43844	40.16073
	-95.43635	40.15872
	-95.43482	40.15602
	-95.43426	40.15442
	-95.43399	40.15273
	-95.43387	40.15135
	-95.43375	40.14608
	-95.43346	40.14333
	-95.43312	40.14198
	-95.43251	40.14064
	-95.43104	40.1382
	-95.42986	40.13665
	-95.42865	40.13534
	-95.42672	40.13379
	-95.42476	40.13258
	-95.42189	40.13131
	-95.4199	40.13068
	-95.41793	40.13037
	-95.41537	40.13017
	-95.41266	40.13004
	-95.40974	40.13004
	-95.40816	40.12993
	-95.40625	40.12958
	-95.40402	40.12903
	-95.40118	40.12785
	-95.39883	40.12638
	-95.39735	40.12527
	-95.39537	40.12281
	-95.39378	40.12011
	-95.39328	40.11869
	-95.39274	40.11522
	-95.39276	40.11367
	-95.39289	40.11231
	-95.39306	40.11118
	-95.39448	40.10828
	-95.39578	40.10659
	-95.39733	40.1053
	-95.40014	40.10324
	-95.40498	40.09983
	-95.40874	40.09572
	-95.40992	40.09364
	-95.41047	40.09121
	-95.40998	40.08776
	-95.40846	40.08357
	-95.40776	40.08069
	-95.40799	40.07783
	-95.4088	40.07544
	-95.41004	40.07364
	-95.41197	40.0715
	-95.4149	40.06954
	-95.41752	40.06725
	-95.41885	40.06542
	-95.41988	40.06315
	-95.42071	40.06105
	-95.42096	40.05895
	-95.42065	40.05332
	-95.41842	40.04616
	-95.41533	40.04051
	-95.41087	40.03578
	-95.40434	40.03131
	-95.39687	40.02802
	-95.38958	40.02664
	-95.38583	40.02681
	-95.38229	40.02723
	-95.37326	40.02946
	-95.36401	40.03161
	-95.36064	40.03189
	-95.35731	40.03164
	-95.35339	40.03101
	-95.35003	40.02987
	-95.34728	40.02872
	-95.34424	40.02669
	-95.34139	40.02422
	-95.33932	40.02213
	-95.33722	40.02027
	-95.33539	40.01887
	-95.33317	40.01767
	-95.32864	40.01596
	-95.32406	40.01459
	-95.31856	40.01348
	-95.31542	40.01205
	-95.3113	40.00863
	-95.30921	40.00462
	-95.30847	40.00219
	-95.30805	40.0
	-95.32645	40.0
	-95.33972	40.00003
	-95.35811	40.00001
	-95.35811	40.00141
	-95.35829	40.00159
	-95.35858	40.00183
	-95.35869	40.0019
	-95.35938	40.00219
	-95.35956	40.00223
	-95.35989	40.00228
	-95.36045	40.0023
	-95.36097	40.00224
	-95.36107	40.00221
	-95.36168	40.00195
	-95.36221	40.00151
	-95.36229	40.00141
	-95.36218	40.00132
	-95.36232	40.00001
	-95.36986	40.0
	-95.41484	40.00004
	-95.45205	40.00009
	-95.78457	40.00046
	-95.78809	40.00045
	-95.88252	40.00047
	-95.95814	40.00052
	-95.99539	40.0006
	-96.01005	40.00067
	-96.01472	40.00066
	-96.02409	40.00072
	-96.03623	40.00072
	-96.03823	40.00271
	-96.04946	40.00272
	-96.04973	40.00273
	-96.05072	40.00271
	-96.05106	40.00275
	-96.05169	40.00276
	-96.05291	40.00273
	-96.05337	40.00273
	-96.05339	40.00275
	-96.05355	40.00282
	-96.05423	40.00298
	-96.05441	40.00299
	-96.05481	40.00299
	-96.05531	40.0029
	-96.05543	40.00286
	-96.05572	40.00273
	-96.05638	40.00274
	-96.05785	40.00272
	-96.05806	40.00275
	-96.05833	40.00276
	-96.05868	40.00275
	-96.05971	40.00269
	-96.06147	40.00072
	-96.08141	40.00071
	-96.08798	40.00072
	-96.08996	40.0027
	-96.09637	40.0027
	-96.0993	40.00272
	-96.10243	40.00272
	-96.10515	40.00277
	-96.10876	40.00275
	-96.11032	40.00273
	-96.11166	40.00274
	-96.12351	40.00275
	-96.12383	40.00277
	-96.1253	40.00275
	-96.12713	40.00077
	-96.15305	40.00077
	-96.15315	40.00217
	-96.1532	40.00221
	-96.15389	40.0026
	-96.15406	40.00266
	-96.15456	40.00275
	-96.15485	40.00277
	-96.15636	40.00276
	-96.15726	40.00277
	-96.16066	40.00277
	-96.16167	40.00275
	-96.16357	40.00077
	-96.16902	40.00079
	-96.22182	40.0009
	-96.22378	40.00286
	-96.22779	40.00286
	-96.23	40.00291
	-96.23214	40.00293
	-96.23401	40.00293
	-96.23552	40.0029
	-96.23726	40.00292
	-96.2377	40.0029
	-96.23923	40.00288
	-96.24111	40.00094
	-96.27333	40.00094
	-96.27329	40.00126
	-96.27292	40.00132
	-96.27293	40.0014
	-96.27311	40.00196
	-96.27321	40.00198
	-96.2732	40.00209
	-96.27354	40.00244
	-96.27385	40.00209
	-96.27563	40.0024
	-96.27576	40.00287
	-96.27588	40.00284
	-96.27599	40.00269
	-96.27604	40.00278
	-96.27623	40.00267
	-96.27612	40.0025
	-96.27613	40.00248
	-96.27639	40.00253
	-96.27649	40.00242
	-96.27631	40.00224
	-96.27724	40.00094
	-96.35071	40.00094
	-96.46371	40.00141
	-96.46587	40.00136
	-96.46702	40.00301
	-96.46721	40.00304
	-96.46733	40.00307
	-96.46778	40.00322
	-96.46813	40.0033
	-96.46824	40.00331
	-96.46852	40.00333
	-96.46877	40.00333
	-96.46892	40.00332
	-96.46903	40.00331
	-96.46917	40.0033
	-96.46929	40.00328
	-96.46952	40.00323
	-96.46965	40.00319
	-96.46972	40.00317
	-96.46996	40.0031
	-96.47028	40.00301
	-96.47029	40.00301
	-96.4703	40.00301
	-96.47036	40.00299
	-96.47047	40.00296
	-96.47043	40.00284
	-96.4717	40.00124
	-96.48255	40.001
	-96.49474	40.00102
	-96.50139	40.00102
	-96.52587	40.00106
	-96.55074	40.0011
	-96.55794	40.00111
	-96.56827	40.00111
	-96.56813	40.00217
	-96.56818	40.00224
	-96.56849	40.00256
	-96.56854	40.0026
	-96.5694	40.00302
	-96.56944	40.00303
	-96.56981	40.00307
	-96.56994	40.00307
	-96.57001	40.00307
	-96.57028	40.00307
	-96.57059	40.00306
	-96.57627	40.00312
	-96.57633	40.00313
	-96.57684	40.00312
	-96.57683	40.00317
	-96.57689	40.00317
	-96.57689	40.00318
	-96.57696	40.00318
	-96.57701	40.00319
	-96.57707	40.00318
	-96.5774	40.00314
	-96.5774	40.00317
	-96.57833	40.00316
	-96.58013	40.00317
	-96.58018	40.00316
	-96.58108	40.00315
	-96.58134	40.00313
	-96.58154	40.0031
	-96.58174	40.00306
	-96.58188	40.00302
	-96.58227	40.00288
	-96.58243	40.0028
	-96.58275	40.0026
	-96.5828	40.00257
	-96.58301	40.00111
	-96.59405	40.00111
	-96.60321	40.00115
	-96.60301	40.00189
	-96.60304	40.00194
	-96.60305	40.00195
	-96.6031	40.00204
	-96.60354	40.00257
	-96.60367	40.00268
	-96.6042	40.00301
	-96.60425	40.00303
	-96.6046	40.00313
	-96.60475	40.00317
	-96.6052	40.00321
	-96.60679	40.00319
	-96.60861	40.00321
	-96.60889	40.00321
	-96.60893	40.00321
	-96.60952	40.0032
	-96.60956	40.0032
	-96.60993	40.00317
	-96.60995	40.00317
	-96.61043	40.00308
	-96.6105	40.00307
	-96.61058	40.00306
	-96.61067	40.00306
	-96.61069	40.00304
	-96.61072	40.00304
	-96.61075	40.00303
	-96.61078	40.00303
	-96.61077	40.00297
	-96.61262	40.00119
	-96.63859	40.00131
	-96.65482	40.00133
	-96.74867	40.00141
	-96.74879	40.00067
	-96.7485	40.00058
	-96.74852	40.00051
	-96.74883	40.00045
	-96.74894	39.9998
	-96.74897	39.99978
	-96.74902	39.99974
	-96.74904	39.99972
	-96.7496	40.00032
	-96.7514	40.0
	-96.75159	39.99959
	-96.75165	39.99962
	-96.75173	39.99982
	-96.75181	39.9997
	-96.75189	39.99976
	-96.75177	39.99994
	-96.75178	39.99994
	-96.75192	39.99978
	-96.75203	39.99989
	-96.75208	39.99996
	-96.75184	40.00014
	-96.75229	40.00141
	-96.7656	40.00142
	-96.80672	40.00157
	-96.88097	40.00151
	-96.90611	40.00157
	-96.91845	40.0016
	-96.92606	40.00159
	-97.00928	40.15789
	-97.26746	40.47516
	-97.41852	40.67231
	-97.43225	40.9353
	-97.45972	41.26026
	-97.57095	41.4314
	-97.62863	41.67189
	-97.70279	41.90637
	-97.63962	42.04827
	-97.51327	42.10943
	-97.45972	42.23259
	-97.54211	42.32099
	-97.55859	42.40622
	-97.62176	42.5814
	-97.59291	42.85416
END
END
