US_New York_New York
1
	-73.9057	40.49071
	-73.98029	40.52046
	-74.04211	40.5093
	-74.05787	40.50648
	-74.07105	40.50391
	-74.07818	40.5025
	-74.0829	40.50167
	-74.09448	40.4996
	-74.09858	40.4989
	-74.13716	40.49254
	-74.14994	40.49037
	-74.16039	40.48869
	-74.16386	40.48807
	-74.20645	40.48101
	-74.21704	40.47922
	-74.22815	40.4774
	-74.23793	40.48124
	-74.24993	40.48604
	-74.25316	40.48732
	-74.25331	40.48739
	-74.25429	40.48901
	-74.25672	40.4933
	-74.25732	40.49435
	-74.25909	40.49721
	-74.25909	40.50289
	-74.25829	40.50791
	-74.25481	40.51534
	-74.25442	40.51572
	-74.24607	40.52095
	-74.2461	40.52161
	-74.24644	40.52467
	-74.24879	40.53303
	-74.2502	40.53963
	-74.25061	40.54185
	-74.24741	40.5492
	-74.23921	40.55376
	-74.23305	40.55761
	-74.23213	40.55817
	-74.23169	40.55846
	-74.22908	40.55823
	-74.22451	40.5577
	-74.21804	40.55745
	-74.21658	40.55888
	-74.21528	40.56024
	-74.20897	40.57656
	-74.2083	40.57905
	-74.2063	40.58854
	-74.20369	40.59269
	-74.19952	40.59754
	-74.19941	40.6002
	-74.20381	40.60596
	-74.20313	40.61411
	-74.20186	40.61856
	-74.20374	40.62423
	-74.20244	40.62852
	-74.20225	40.6309
	-74.20047	40.63263
	-74.19699	40.63583
	-74.19564	40.63767
	-74.18968	40.64319
	-74.18855	40.6441
	-74.18834	40.64426
	-74.18678	40.64524
	-74.18564	40.64599
	-74.18139	40.64648
	-74.17907	40.64621
	-74.16137	40.64429
	-74.15953	40.64405
	-74.15825	40.6439
	-74.1577	40.64382
	-74.15643	40.64367
	-74.14325	40.64215
	-74.14208	40.64225
	-74.13391	40.64368
	-74.13002	40.64381
	-74.12557	40.64402
	-74.12067	40.64546
	-74.10998	40.64801
	-74.10998	40.64805
	-74.10632	40.64806
	-74.09375	40.64824
	-74.09358	40.64829
	-74.09058	40.64977
	-74.08681	40.6516
	-74.08663	40.65165
	-74.07726	40.65173
	-74.07157	40.65181
	-74.05574	40.65176
	-74.05306	40.68873
	-74.04125	40.70341
	-74.02628	40.6999
	-74.02196	40.72359
	-74.02159	40.72509
	-74.02112	40.72742
	-74.01678	40.7451
	-74.01378	40.7566
	-74.00918	40.7636
	-74.00508	40.7692
	-74.00138	40.7743
	-73.99958	40.777
	-73.99958	40.77716
	-73.99738	40.7803
	-73.99288	40.7863
	-73.99162	40.78811
	-73.98488	40.7975
	-73.98492	40.79752
	-73.97488	40.8108
	-73.96808	40.8207
	-73.96318	40.8269
	-73.95398	40.848
	-73.95348	40.849
	-73.95175	40.85212
	-73.94838	40.85847
	-73.94776	40.85955
	-73.9453	40.86354
	-73.94286	40.86754
	-73.94186	40.86913
	-73.94113	40.87037
	-73.9402	40.87183
	-73.93901	40.87382
	-73.93838	40.87477
	-73.92982	40.88868
	-73.92919	40.89031
	-73.92724	40.8952
	-73.92655	40.89688
	-73.92566	40.89915
	-73.92495	40.90102
	-73.92384	40.90367
	-73.92247	40.90724
	-73.92097	40.91101
	-73.9199	40.9136
	-73.9191	40.91481
	-73.9184	40.91748
	-73.9179	40.91758
	-73.91218	40.91599
	-73.90381	40.91352
	-73.89834	40.91223
	-73.88815	40.90815
	-73.87182	40.9032
	-73.86557	40.90407
	-73.85477	40.89971
	-73.8458	40.89684
	-73.8458	40.89686
	-73.84512	40.89776
	-73.8451	40.89778
	-73.84427	40.89814
	-73.84422	40.89815
	-73.84369	40.89818
	-73.84343	40.89816
	-73.84309	40.8981
	-73.843	40.89808
	-73.84267	40.89796
	-73.84259	40.89792
	-73.84251	40.89788
	-73.84219	40.89772
	-73.84207	40.89765
	-73.84186	40.89753
	-73.84132	40.8954
	-73.82673	40.89072
	-73.82242	40.89081
	-73.81441	40.8881
	-73.81156	40.88595
	-73.79899	40.88388
	-73.7481	40.87266
	-73.75878	40.84052
	-73.77735	40.81702
	-73.75969	40.77365
	-73.75137	40.76507
	-73.74399	40.75714
	-73.73652	40.75434
	-73.72545	40.74791
	-73.71987	40.7334
	-73.72262	40.71558
	-73.72468	40.69313
	-73.72253	40.68597
	-73.73678	40.66814
	-73.74212	40.66378
	-73.74796	40.6559
	-73.74993	40.64991
	-73.74195	40.64549
	-73.73466	40.63721
	-73.73757	40.63194
	-73.73148	40.61976
	-73.73294	40.61871
	-73.73706	40.61187
	-73.73517	40.60405
	-73.73371	40.59324
	-73.7447	40.59376
	-73.75697	40.58685
	-73.76279	40.53628
	-73.9057	40.49071
END
END
