US_North Carolina_Wilson
1
	-78.40856	35.51588
	-78.28805	35.59275
	-78.28817	35.5955
	-78.28605	35.59758
	-78.28474	35.59751
	-78.28423	35.59741
	-78.28408	35.59736
	-78.28306	35.59593
	-78.10861	35.70721
	-78.09659	35.73776
	-78.09656	35.73918
	-78.09647	35.74173
	-78.0963	35.74394
	-78.09626	35.7448
	-78.09621	35.74529
	-78.09612	35.74569
	-78.096	35.74605
	-78.09589	35.7463
	-78.09572	35.74661
	-78.09547	35.74699
	-78.09536	35.74713
	-78.09497	35.74753
	-78.09484	35.74764
	-78.09456	35.74784
	-78.09409	35.7481
	-78.09364	35.74828
	-78.09317	35.7484
	-78.09235	35.74854
	-78.02862	35.91055
	-77.77549	36.5235
	-77.77564	36.52345
	-77.7763	36.5258
	-77.77651	36.52585
	-77.77636	36.52646
	-77.77609	36.52739
	-77.77581	36.52793
	-77.77569	36.52811
	-77.77531	36.52859
	-77.7749	36.52905
	-77.77461	36.52934
	-77.77416	36.52972
	-77.77297	36.52961
	-77.76642	36.54545
	-77.74971	36.54552
	-77.70121	36.54581
	-77.67236	36.54539
	-77.51939	36.54512
	-77.51929	36.54369
	-77.51891	36.54336
	-77.51866	36.54317
	-77.51798	36.54274
	-77.51773	36.54261
	-77.51707	36.54231
	-77.51655	36.54216
	-77.51565	36.54203
	-77.51465	36.54197
	-77.51426	36.54199
	-77.51372	36.54207
	-77.51317	36.54223
	-77.51134	36.54308
	-77.50957	36.54322
	-77.50796	36.5451
	-77.49868	36.54509
	-77.4136	36.54473
	-77.29691	36.54479
	-77.25304	36.54467
	-77.20497	36.54461
	-77.19017	36.54616
	-77.16966	36.54732
	-77.15268	36.54409
	-77.14399	36.54405
	-77.12469	36.544
	-77.12469	36.54407
	-77.10263	36.54456
	-77.01136	36.54425
	-76.916	36.54383
	-76.91637	36.54409
	-76.91664	36.54443
	-76.91716	36.54522
	-76.91732	36.54605
	-76.91717	36.54716
	-76.91677	36.54863
	-76.91669	36.54907
	-76.91673	36.5495
	-76.91701	36.55018
	-76.91699	36.55074
	-76.91677	36.55123
	-76.91653	36.55145
	-76.9159	36.5521
	-76.87809	36.55158
	-76.87793	36.55006
	-76.87783	36.54998
	-76.87763	36.54991
	-76.87712	36.54956
	-76.87634	36.5492
	-76.87614	36.54912
	-76.87532	36.54883
	-76.87504	36.54876
	-76.87438	36.54864
	-76.87398	36.5486
	-76.87248	36.54862
	-76.87179	36.54876
	-76.87094	36.54908
	-76.87057	36.54927
	-76.87007	36.54959
	-76.86974	36.54985
	-76.8694	36.55006
	-76.86864	36.55049
	-76.8679	36.55093
	-76.86701	36.55143
	-76.84401	36.55111
	-76.8443	36.55177
	-76.84418	36.55208
	-76.84381	36.55268
	-76.8435	36.55302
	-76.84315	36.55332
	-76.84259	36.5537
	-76.8421	36.55406
	-76.84188	36.55424
	-76.84143	36.55453
	-76.84102	36.55473
	-76.8404	36.55497
	-76.83994	36.55509
	-76.83949	36.55519
	-76.83877	36.55533
	-76.83801	36.55544
	-76.83683	36.55552
	-76.83643	36.55553
	-76.83607	36.55553
	-76.8335	36.55543
	-76.83306	36.55539
	-76.83261	36.5553
	-76.8312	36.55488
	-76.82626	36.55315
	-76.82569	36.5529
	-76.8251	36.55258
	-76.82459	36.55085
	-76.80708	36.55061
	-76.7813	36.55066
	-76.74968	36.55038
	-76.73833	36.55098
	-76.73671	36.55098
	-76.5755	36.55075
	-76.55807	36.55035
	-76.5416	36.55048
	-76.4915	36.55065
	-76.46527	36.55063
	-76.38778	36.55075
	-76.31327	36.55055
	-76.31156	36.55056
	-76.29297	36.55055
	-76.1945	36.55055
	-76.19474	36.55007
	-76.19468	36.54988
	-76.19433	36.55
	-76.19423	36.54912
	-76.19404	36.54897
	-76.19164	36.54889
	-76.19112	36.55047
	-76.19062	36.55045
	-76.14925	36.55055
	-76.13865	36.55065
	-76.13115	36.55055
	-76.12236	36.55056
	-76.11175	36.55063
	-76.09444	36.55055
	-76.05095	36.55055
	-76.03475	36.55065
	-76.02675	36.55055
	-76.01335	36.55055
	-76.01174	36.55054
	-76.01086	36.5524
	-76.01063	36.55249
	-76.01009	36.55262
	-76.00948	36.55268
	-76.00894	36.55271
	-76.00874	36.55271
	-76.00824	36.55267
	-76.00736	36.55249
	-76.00643	36.55275
	-76.0059	36.55292
	-76.00473	36.55326
	-76.00225	36.55192
	-76.00304	36.55045
	-75.99695	36.55045
	-75.98413	36.55055
	-75.96285	36.55045
	-75.95765	36.55055
	-75.95715	36.55045
	-75.95695	36.55045
	-75.95655	36.55055
	-75.95285	36.55055
	-75.92804	36.55075
	-75.92215	36.55066
	-75.92205	36.55065
	-75.90344	36.55065
	-75.90184	36.55085
	-75.89414	36.55075
	-75.89324	36.55065
	-75.89201	36.55075
	-75.86921	36.55075
	-75.8671	36.55076
	-75.86704	36.55075
	-75.85446	36.55092
	-75.7975	36.55092
	-75.79051	36.50016
	-75.79056	36.50016
	-75.76983	36.42616
	-75.75555	36.37516
	-75.74963	36.35361
	-75.74501	36.34244
	-75.71132	36.25016
	-75.70908	36.24498
	-75.68425	36.18905
	-75.67848	36.17506
	-75.67508	36.16673
	-75.6701	36.15607
	-75.66716	36.15062
	-75.66625	36.14892
	-75.65319	36.12517
	-75.64951	36.11887
	-75.62462	36.07628
	-75.62285	36.07314
	-75.59072	36.01628
	-75.58616	36.00823
	-75.58161	36.00017
	-75.58156	36.00017
	-75.56605	35.97561
	-75.51151	35.87517
	-75.49961	35.85263
	-75.4805	35.81421
	-75.47673	35.81159
	-75.47182	35.80698
	-75.46945	35.80477
	-75.46624	35.80132
	-75.46445	35.79722
	-75.46112	35.79017
	-75.46081	35.78452
	-75.45708	35.77922
	-75.45163	35.77156
	-75.43954	35.75018
	-75.43762	35.74696
	-75.43204	35.73072
	-75.4247	35.70578
	-75.41782	35.68608
	-75.41135	35.66006
	-75.40681	35.63697
	-75.40502	35.62518
	-75.40039	35.59353
	-75.40039	35.59351
	-75.40012	35.57541
	-75.40085	35.55872
	-75.40242	35.54421
	-75.4058	35.53377
	-75.41509	35.50018
	-75.41709	35.47722
	-75.41709	35.47721
	-75.41724	35.47493
	-75.41735	35.47292
	-75.41747	35.47141
	-75.41786	35.46853
	-75.41813	35.46571
	-75.4188	35.46269
	-75.41928	35.45998
	-75.41963	35.45723
	-75.41986	35.45488
	-75.42033	35.45196
	-75.42077	35.44962
	-75.42176	35.44485
	-75.42191	35.44147
	-75.42253	35.43731
	-75.42252	35.43493
	-75.42279	35.43255
	-75.42306	35.43054
	-75.4235	35.42765
	-75.42364	35.42477
	-75.42362	35.42226
	-75.4236	35.41924
	-75.42379	35.41679
	-75.42373	35.41364
	-75.42375	35.41063
	-75.42414	35.40724
	-75.42424	35.40379
	-75.42454	35.40054
	-75.42502	35.39742
	-75.42532	35.3938
	-75.42558	35.39001
	-75.42613	35.38692
	-75.42685	35.3841
	-75.42733	35.38172
	-75.42842	35.37874
	-75.42898	35.37682
	-75.42975	35.37518
	-75.43423	35.35935
	-75.43448	35.35845
	-75.43853	35.34384
	-75.44124	35.3329
	-75.44368	35.32327
	-75.44452	35.31992
	-75.44635	35.31468
	-75.44649	35.31109
	-75.44775	35.30979
	-75.44842	35.30484
	-75.4502	35.29694
	-75.45209	35.29042
	-75.45417	35.28021
	-75.4549	35.27147
	-75.45556	35.26779
	-75.45557	35.26773
	-75.45645	35.26283
	-75.45746	35.25738
	-75.4583	35.25182
	-75.45867	35.25018
	-75.45933	35.24655
	-75.45972	35.24543
	-75.46101	35.24172
	-75.46364	35.23389
	-75.46438	35.23132
	-75.46623	35.22494
	-75.46816	35.21972
	-75.46848	35.21519
	-75.47086	35.20873
	-75.4746	35.20203
	-75.4803	35.19436
	-75.4821	35.19179
	-75.48457	35.18758
	-75.48768	35.18499
	-75.49959	35.17717
	-75.50132	35.17613
	-75.50506	35.17443
	-75.50949	35.17264
	-75.51392	35.17088
	-75.51921	35.16908
	-75.52305	35.16838
	-75.52771	35.16739
	-75.53218	35.16715
	-75.53665	35.16737
	-75.54031	35.16745
	-75.54434	35.16788
	-75.54599	35.16812
	-75.54698	35.16834
	-75.548	35.16818
	-75.54969	35.16852
	-75.55316	35.16934
	-75.55758	35.17054
	-75.56131	35.17185
	-75.56471	35.1733
	-75.56932	35.17553
	-75.57357	35.17801
	-75.57519	35.17908
	-75.57658	35.18
	-75.57884	35.18184
	-75.57965	35.1828
	-75.5804	35.18329
	-75.58111	35.18378
	-75.58164	35.18391
	-75.58259	35.18406
	-75.58559	35.18407
	-75.59022	35.18376
	-75.59537	35.18283
	-75.59688	35.18253
	-75.60226	35.18103
	-75.60635	35.18038
	-75.61137	35.17915
	-75.6148	35.17833
	-75.61818	35.17752
	-75.6246	35.17582
	-75.62991	35.17399
	-75.63621	35.1722
	-75.64271	35.17001
	-75.65046	35.1672
	-75.65529	35.16577
	-75.65825	35.16472
	-75.67238	35.16021
	-75.68035	35.15685
	-75.6891	35.15321
	-75.69801	35.14953
	-75.70737	35.14611
	-75.71896	35.14326
	-75.7267	35.14158
	-75.7289	35.1411
	-75.73321	35.14093
	-75.73621	35.1407
	-75.73662	35.14057
	-75.74985	35.13621
	-75.78048	35.12521
	-75.78632	35.12269
	-75.79156	35.12116
	-75.79334	35.12046
	-75.79488	35.11923
	-75.79748	35.11886
	-75.8015	35.11747
	-75.80511	35.1167
	-75.80772	35.11591
	-75.81204	35.11424
	-75.81367	35.11328
	-75.81488	35.11272
	-75.81864	35.11124
	-75.82771	35.10672
	-75.83296	35.10467
	-75.83623	35.10369
	-75.83728	35.10314
	-75.83815	35.10281
	-75.84351	35.10047
	-75.8474	35.09939
	-75.85373	35.09736
	-75.85968	35.09457
	-75.86349	35.09307
	-75.86789	35.09095
	-75.87094	35.08982
	-75.88396	35.08397
	-75.89788	35.07712
	-75.90009	35.07523
	-75.90414	35.07343
	-75.90731	35.07176
	-75.9079	35.07159
	-75.90859	35.07152
	-75.91331	35.06815
	-75.91555	35.06723
	-75.9183	35.06524
	-75.92697	35.05991
	-75.9281	35.05952
	-75.92883	35.05869
	-75.93088	35.05746
	-75.93253	35.05615
	-75.93348	35.0556
	-75.93476	35.05416
	-75.93648	35.05299
	-75.93762	35.05235
	-75.93873	35.05145
	-75.94019	35.04982
	-75.94285	35.04739
	-75.94403	35.04616
	-75.945	35.04498
	-75.94664	35.04387
	-75.9476	35.04224
	-75.95007	35.03962
	-75.95243	35.03847
	-75.95297	35.03766
	-75.95466	35.03661
	-75.95626	35.03535
	-75.96036	35.03307
	-75.96709	35.0286
	-75.97235	35.02431
	-75.97429	35.02257
	-75.97713	35.02072
	-75.97864	35.01915
	-75.98014	35.0179
	-75.98198	35.01672
	-75.98342	35.01594
	-75.98535	35.01398
	-75.98726	35.01343
	-75.98793	35.01286
	-75.98876	35.01222
	-75.99016	35.01183
	-75.99209	35.01062
	-75.99474	35.00879
	-75.99841	35.00739
	-75.99962	35.00706
	-76.00296	35.00639
	-76.00694	35.00603
	-76.01237	35.00582
	-76.02443	35.00536
	-76.02801	35.00309
	-76.0326	35.00017
	-76.051	34.98675
	-76.10622	34.9465
	-76.12463	34.93308
	-76.13916	34.9218
	-76.14298	34.91883
	-76.16925	34.89686
	-76.18177	34.88674
	-76.19607	34.87517
	-76.20406	34.86871
	-76.21925	34.85642
	-76.22837	34.84978
	-76.23619	34.84408
	-76.23668	34.84374
	-76.23927	34.84192
	-76.24704	34.83645
	-76.24963	34.83463
	-76.25572	34.82944
	-76.27398	34.81386
	-76.28007	34.80867
	-76.28012	34.80863
	-76.28644	34.80285
	-76.30553	34.78537
	-76.31189	34.77954
	-76.31412	34.7775
	-76.31573	34.77603
	-76.32057	34.77116
	-76.3227	34.76902
	-76.32625	34.76545
	-76.3369	34.75473
	-76.33751	34.75412
	-76.3406	34.75131
	-76.34085	34.75109
	-76.34162	34.75039
	-76.34187	34.75016
	-76.34648	34.74544
	-76.36031	34.73127
	-76.36107	34.73049
	-76.36475	34.72638
	-76.36594	34.72513
	-76.36952	34.72137
	-76.37072	34.72011
	-76.3715	34.71929
	-76.37385	34.71681
	-76.37464	34.71599
	-76.3874	34.70143
	-76.40803	34.6779
	-76.42507	34.6572
	-76.43738	34.64225
	-76.439	34.64029
	-76.43992	34.63902
	-76.4442	34.63316
	-76.44668	34.62874
	-76.4487	34.62516
	-76.44989	34.62312
	-76.45345	34.617
	-76.45464	34.61496
	-76.46374	34.60001
	-76.46634	34.59574
	-76.47107	34.58385
	-76.47746	34.5662
	-76.48318	34.55636
	-76.4862	34.553
	-76.49199	34.54653
	-76.49964	34.54216
	-76.50421	34.5396
	-76.51487	34.53514
	-76.52438	34.53216
	-76.53164	34.53174
	-76.53295	34.53182
	-76.54787	34.53284
	-76.56251	34.53691
	-76.57207	34.54254
	-76.58372	34.55262
	-76.59074	34.56313
	-76.59456	34.57417
	-76.59548	34.57784
	-76.59726	34.58062
	-76.59933	34.58219
	-76.60681	34.5912
	-76.60875	34.59433
	-76.61234	34.60013
	-76.61414	34.61076
	-76.61472	34.61828
	-76.62465	34.62065
	-76.62801	34.62156
	-76.6381	34.62426
	-76.64146	34.62516
	-76.64699	34.62671
	-76.65204	34.62799
	-76.65516	34.62877
	-76.66678	34.63144
	-76.67723	34.6343
	-76.68339	34.63736
	-76.68394	34.63764
	-76.6928	34.64295
	-76.69857	34.64326
	-76.71066	34.64478
	-76.71357	34.64515
	-76.72983	34.64721
	-76.74218	34.64765
	-76.74965	34.64767
	-76.75923	34.64693
	-76.76437	34.64668
	-76.78179	34.64583
	-76.78231	34.64579
	-76.79932	34.64455
	-76.80721	34.64397
	-76.81894	34.64325
	-76.83626	34.64077
	-76.85012	34.63895
	-76.86183	34.63742
	-76.86703	34.63681
	-76.86719	34.63679
	-76.86767	34.63674
	-76.86783	34.63672
	-76.86959	34.63652
	-76.87466	34.63593
	-76.87487	34.63591
	-76.87663	34.63569
	-76.87921	34.63538
	-76.88697	34.63445
	-76.88956	34.63414
	-76.8904	34.63404
	-76.89294	34.63374
	-76.89378	34.63364
	-76.89701	34.63325
	-76.90463	34.63234
	-76.90666	34.63202
	-76.90987	34.63153
	-76.91259	34.6311
	-76.92077	34.62984
	-76.92349	34.62941
	-76.92642	34.62896
	-76.93523	34.62759
	-76.93816	34.62714
	-76.93818	34.62714
	-76.93822	34.62713
	-76.93823	34.62713
	-76.94078	34.62674
	-76.94842	34.62555
	-76.95097	34.62516
	-76.95098	34.62516
	-76.95103	34.62515
	-76.95105	34.62515
	-76.96077	34.62352
	-76.98994	34.61864
	-76.99967	34.61701
	-77.02331	34.61064
	-77.04025	34.60607
	-77.07921	34.59597
	-77.08062	34.595
	-77.08768	34.59128
	-77.09321	34.58904
	-77.12253	34.67703
	-77.10426	34.71102
	-77.11715	34.72556
	-77.12907	34.75921
	-77.15906	34.77911
	-77.1508	34.80753
	-77.07718	34.86641
	-77.14668	34.93828
	-77.1743	34.9509
	-77.1778	34.95127
	-77.18012	34.9516
	-77.18111	34.9517
	-77.1813	34.95173
	-77.18203	34.95188
	-77.18236	34.95198
	-77.1843	34.95273
	-77.18478	34.953
	-77.18851	34.95585
	-77.18842	34.95598
	-77.1898	34.95774
	-77.18961	34.95789
	-77.24743	34.9843
	-77.3428	35.01391
	-77.38341	35.04256
	-77.38315	35.04294
	-77.38324	35.04346
	-77.38359	35.04429
	-77.38483	35.04598
	-77.38631	35.0468
	-77.38653	35.04682
	-77.38705	35.04678
	-77.38889	35.04642
	-77.39279	35.04918
	-77.50585	35.08946
	-77.57277	35.14042
	-77.59762	35.17614
	-77.60032	35.17684
	-77.60134	35.17713
	-77.60162	35.17713
	-77.60281	35.17706
	-77.60351	35.17698
	-77.60404	35.17695
	-77.60698	35.17646
	-77.60828	35.17627
	-77.60923	35.17611
	-77.61066	35.17593
	-77.61115	35.17588
	-77.6118	35.17584
	-77.61223	35.17585
	-77.61254	35.17588
	-77.61574	35.17603
	-77.61634	35.17611
	-77.61657	35.17616
	-77.61694	35.17627
	-77.61749	35.17647
	-77.61809	35.17678
	-77.61921	35.17747
	-77.61941	35.17761
	-77.61968	35.17784
	-77.61971	35.17785
	-77.62059	35.17862
	-77.62088	35.17875
	-77.62094	35.1788
	-77.62101	35.17921
	-77.62251	35.17937
	-77.62215	35.1801
	-77.62226	35.18044
	-77.62469	35.18173
	-77.62566	35.18146
	-77.6266	35.17978
	-77.70967	35.18821
	-77.79889	35.23408
	-77.87272	35.24162
	-77.97877	35.28522
	-77.9787	35.28529
	-77.97842	35.28579
	-77.9784	35.28769
	-77.97877	35.28839
	-77.9798	35.28932
	-77.98087	35.28974
	-77.98161	35.28988
	-77.98195	35.28988
	-77.98276	35.2896
	-78.01193	35.32701
	-78.04577	35.35085
	-78.10961	35.37531
	-78.14653	35.41606
	-78.26728	35.45554
	-78.36034	35.45554
	-78.37617	35.48746
	-78.40856	35.51588
END
END
