US_New Jersey_South
1
	-74.25672	40.4933
	-74.25429	40.48901
	-74.25331	40.48739
	-74.25316	40.48732
	-74.24993	40.48604
	-74.23793	40.48124
	-74.22815	40.4774
	-74.21704	40.47922
	-74.20645	40.48101
	-74.16386	40.48807
	-74.16039	40.48869
	-74.14994	40.49037
	-74.13716	40.49254
	-74.09858	40.4989
	-74.09448	40.4996
	-74.0829	40.50167
	-74.07818	40.5025
	-74.07105	40.50391
	-74.05787	40.50648
	-74.04211	40.5093
	-73.98029	40.52046
	-73.9057	40.49071
	-73.92416	40.47093
	-73.92266	40.46835
	-73.92134	40.46572
	-73.92027	40.46323
	-73.91925	40.46041
	-73.91853	40.45813
	-73.91787	40.45557
	-73.91747	40.45353
	-73.91705	40.45066
	-73.91655	40.44826
	-73.91629	40.44659
	-73.91611	40.44491
	-73.916	40.44323
	-73.91597	40.44155
	-73.91601	40.43929
	-73.91622	40.43515
	-73.91655	40.43198
	-73.91554	40.42926
	-73.9143	40.42542
	-73.91383	40.42377
	-73.91316	40.42081
	-73.91271	40.41764
	-73.91219	40.41601
	-73.91174	40.41436
	-73.91136	40.41271
	-73.91106	40.41105
	-73.91081	40.40919
	-73.91063	40.40711
	-73.9102	40.40395
	-73.91007	40.40208
	-73.91003	40.40038
	-73.90962	40.398
	-73.90922	40.39464
	-73.90907	40.39237
	-73.90905	40.39029
	-73.90851	40.38788
	-73.90813	40.38545
	-73.9079	40.38302
	-73.90783	40.38032
	-73.90729	40.37718
	-73.90701	40.37391
	-73.9066	40.37149
	-73.90636	40.36905
	-73.90627	40.36699
	-73.90605	40.3646
	-73.90599	40.36291
	-73.90596	40.35913
	-73.9061	40.35621
	-73.90612	40.35324
	-73.90624	40.35137
	-73.90648	40.34932
	-73.90655	40.34725
	-73.90673	40.34518
	-73.90708	40.34274
	-73.9076	40.34032
	-73.90721	40.3379
	-73.90696	40.33528
	-73.9069	40.33284
	-73.90699	40.3304
	-73.90724	40.32797
	-73.90763	40.32553
	-73.90809	40.32348
	-73.90866	40.32144
	-73.90912	40.31884
	-73.90974	40.31632
	-73.90995	40.31334
	-73.91043	40.31005
	-73.91067	40.30717
	-73.91091	40.30531
	-73.91087	40.30331
	-73.91095	40.29864
	-73.91109	40.29656
	-73.91135	40.29448
	-73.91193	40.29148
	-73.91241	40.28961
	-73.91292	40.28795
	-73.91356	40.28499
	-73.91419	40.28278
	-73.91502	40.28043
	-73.91535	40.27857
	-73.91576	40.27674
	-73.91626	40.27492
	-73.91691	40.27294
	-73.91713	40.27195
	-73.91737	40.27007
	-73.91774	40.26804
	-73.91811	40.26638
	-73.91857	40.26474
	-73.91895	40.2627
	-73.91946	40.26052
	-73.92015	40.25802
	-73.921	40.25536
	-73.92114	40.25367
	-73.92139	40.25179
	-73.92173	40.24992
	-73.92212	40.24824
	-73.92269	40.24621
	-73.92337	40.2442
	-73.92418	40.24128
	-73.92474	40.23965
	-73.92617	40.23585
	-73.92651	40.23459
	-73.92671	40.23233
	-73.92704	40.23007
	-73.92751	40.22783
	-73.92805	40.2258
	-73.92857	40.22417
	-73.92915	40.22256
	-73.92981	40.22097
	-73.93053	40.21939
	-73.93152	40.21513
	-73.932	40.21349
	-73.93262	40.21168
	-73.93364	40.20917
	-73.93473	40.20689
	-73.93639	40.20209
	-73.93746	40.19959
	-73.93835	40.19726
	-73.94015	40.19303
	-73.94078	40.19051
	-73.94165	40.18783
	-73.94166	40.18456
	-73.94195	40.18136
	-73.9422	40.17968
	-73.94253	40.178
	-73.94336	40.17486
	-73.94424	40.17231
	-73.94529	40.1698
	-73.94651	40.16734
	-73.94789	40.16493
	-73.94824	40.16325
	-73.94865	40.16159
	-73.94914	40.15994
	-73.9497	40.1583
	-73.95088	40.15542
	-73.95268	40.15177
	-73.95331	40.14937
	-73.95405	40.1471
	-73.9547	40.14375
	-73.95549	40.14079
	-73.9565	40.13788
	-73.95783	40.13485
	-73.95844	40.1327
	-73.95917	40.13058
	-73.96035	40.1261
	-73.9609	40.12427
	-73.9626	40.11936
	-73.96371	40.11667
	-73.96408	40.11482
	-73.96454	40.11298
	-73.96509	40.11115
	-73.96572	40.10934
	-73.96619	40.1075
	-73.96627	40.10696
	-73.96603	40.10494
	-73.9659	40.10267
	-73.96589	40.1006
	-73.966	40.09853
	-73.96611	40.09764
	-73.96638	40.09533
	-73.96702	40.09217
	-73.96774	40.08959
	-73.96864	40.08704
	-73.97008	40.08366
	-73.97138	40.08105
	-73.97277	40.07747
	-73.97329	40.07527
	-73.97398	40.07292
	-73.97414	40.07086
	-73.97437	40.06899
	-73.9747	40.06713
	-73.97512	40.06528
	-73.97557	40.06363
	-73.97629	40.06143
	-73.97721	40.05819
	-73.97801	40.05585
	-73.97862	40.05282
	-73.97904	40.05102
	-73.97954	40.04916
	-73.98044	40.04629
	-73.98088	40.04426
	-73.98151	40.04184
	-73.98179	40.04018
	-73.98215	40.03852
	-73.98271	40.03631
	-73.98327	40.03448
	-73.984	40.03131
	-73.98467	40.02911
	-73.98548	40.02692
	-73.98765	40.01942
	-73.98859	40.01566
	-73.98899	40.01334
	-73.98945	40.01131
	-73.98976	40.00948
	-73.99016	40.00766
	-73.99088	40.00495
	-73.99156	40.0028
	-73.99286	39.99802
	-73.99333	39.99564
	-73.99454	39.99092
	-73.99502	39.98851
	-73.99565	39.98613
	-73.99615	39.9839
	-73.99836	39.97555
	-73.99962	39.96943
	-74.00067	39.96372
	-74.00092	39.96175
	-74.00153	39.95796
	-74.00163	39.95574
	-74.00184	39.95352
	-74.00237	39.95039
	-74.00266	39.94774
	-74.00302	39.94552
	-74.00341	39.94369
	-74.00389	39.94187
	-74.00503	39.93543
	-74.00539	39.93378
	-74.00586	39.93204
	-74.00638	39.92918
	-74.00702	39.92624
	-74.00753	39.92423
	-74.00814	39.92223
	-74.00934	39.91688
	-74.00998	39.9145
	-74.01064	39.91124
	-74.0112	39.90902
	-74.01205	39.90489
	-74.01239	39.9028
	-74.01329	39.89817
	-74.01385	39.89388
	-74.01449	39.89067
	-74.01518	39.88515
	-74.01549	39.88316
	-74.01587	39.87747
	-74.01609	39.8754
	-74.01639	39.8734
	-74.01733	39.86827
	-74.01784	39.86589
	-74.01828	39.86262
	-74.01844	39.85985
	-74.01874	39.85677
	-74.01908	39.85438
	-74.0196	39.85177
	-74.01974	39.85069
	-74.01986	39.84899
	-74.02014	39.84665
	-74.02044	39.84313
	-74.02066	39.84144
	-74.02106	39.83915
	-74.02184	39.83145
	-74.02236	39.82752
	-74.02258	39.82363
	-74.02342	39.8171
	-74.02382	39.81314
	-74.02392	39.81107
	-74.02413	39.80901
	-74.02472	39.80476
	-74.02544	39.8012
	-74.0256	39.79931
	-74.02612	39.79532
	-74.02637	39.79271
	-74.02704	39.78884
	-74.02758	39.78508
	-74.02788	39.78248
	-74.02867	39.77762
	-74.02929	39.77485
	-74.02944	39.77285
	-74.02884	39.77063
	-74.02841	39.76857
	-74.02808	39.7665
	-74.02785	39.76423
	-74.02777	39.76234
	-74.02777	39.76044
	-74.02786	39.75875
	-74.02804	39.75688
	-74.02841	39.75446
	-74.02858	39.75277
	-74.02883	39.75108
	-74.0292	39.74921
	-74.02965	39.74735
	-74.03032	39.74514
	-74.03104	39.74314
	-74.03188	39.74116
	-74.0329	39.73903
	-74.03395	39.73712
	-74.03511	39.73524
	-74.03636	39.7334
	-74.03771	39.7316
	-74.03998	39.72889
	-74.04141	39.72735
	-74.04292	39.72585
	-74.04448	39.72398
	-74.04615	39.72216
	-74.04747	39.72083
	-74.04885	39.71954
	-74.05028	39.71828
	-74.05176	39.71707
	-74.0533	39.71589
	-74.05489	39.71475
	-74.05671	39.71353
	-74.0584	39.71248
	-74.05942	39.71066
	-74.06061	39.70831
	-74.06177	39.70624
	-74.06275	39.7039
	-74.06389	39.70161
	-74.06485	39.69988
	-74.06602	39.69801
	-74.0673	39.69537
	-74.07002	39.69029
	-74.07261	39.68575
	-74.07336	39.68419
	-74.07477	39.68148
	-74.07698	39.67756
	-74.07807	39.67576
	-74.07956	39.67297
	-74.08049	39.67143
	-74.08149	39.66993
	-74.08267	39.66829
	-74.0838	39.66684
	-74.08505	39.665
	-74.09095	39.65683
	-74.093	39.65428
	-74.09416	39.65269
	-74.09637	39.64986
	-74.09851	39.64721
	-74.09953	39.64573
	-74.10073	39.64413
	-74.10338	39.64094
	-74.10451	39.63938
	-74.10568	39.63789
	-74.10717	39.63575
	-74.10981	39.63225
	-74.11305	39.62824
	-74.11454	39.62652
	-74.11724	39.62323
	-74.11911	39.62104
	-74.12031	39.61945
	-74.12279	39.61636
	-74.12577	39.61237
	-74.12724	39.60979
	-74.12879	39.60745
	-74.13074	39.60485
	-74.13304	39.60219
	-74.13352	39.60158
	-74.13461	39.59995
	-74.13669	39.59706
	-74.13826	39.59468
	-74.1393	39.59322
	-74.14046	39.59142
	-74.1432	39.58753
	-74.14449	39.58557
	-74.14829	39.5803
	-74.14919	39.57877
	-74.15015	39.57727
	-74.15232	39.57426
	-74.15366	39.57223
	-74.15537	39.56993
	-74.15738	39.56755
	-74.15963	39.56434
	-74.1635	39.55919
	-74.16455	39.55756
	-74.16661	39.55459
	-74.16811	39.55226
	-74.16928	39.55064
	-74.17039	39.54921
	-74.17154	39.54739
	-74.17325	39.54496
	-74.17486	39.54247
	-74.17855	39.53742
	-74.18051	39.53503
	-74.18334	39.53141
	-74.18655	39.52758
	-74.18818	39.52546
	-74.19008	39.52325
	-74.19167	39.52158
	-74.1932	39.5201
	-74.19513	39.51838
	-74.19699	39.51687
	-74.1991	39.51487
	-74.20055	39.51207
	-74.20221	39.50933
	-74.20408	39.50669
	-74.20629	39.50397
	-74.20813	39.50198
	-74.21006	39.50008
	-74.21228	39.49812
	-74.21445	39.49638
	-74.21552	39.49473
	-74.2168	39.49296
	-74.21843	39.48995
	-74.22029	39.48707
	-74.22238	39.48429
	-74.22469	39.48162
	-74.22646	39.47981
	-74.22849	39.47791
	-74.23064	39.4761
	-74.23181	39.4752
	-74.23272	39.4745
	-74.2349	39.47297
	-74.23735	39.47141
	-74.23987	39.46995
	-74.24247	39.46858
	-74.24335	39.46543
	-74.24449	39.46234
	-74.24588	39.45931
	-74.24739	39.45658
	-74.24835	39.45407
	-74.24948	39.45162
	-74.25068	39.44938
	-74.25143	39.4478
	-74.25296	39.44486
	-74.25433	39.44246
	-74.2554	39.44078
	-74.25655	39.43914
	-74.25779	39.43753
	-74.25896	39.43611
	-74.25984	39.43375
	-74.26095	39.43125
	-74.26185	39.42949
	-74.26415	39.42533
	-74.2655	39.42312
	-74.26699	39.42096
	-74.26862	39.41886
	-74.2705	39.41668
	-74.27129	39.41541
	-74.27219	39.41365
	-74.27318	39.41192
	-74.27464	39.40955
	-74.27587	39.40773
	-74.27794	39.40501
	-74.28127	39.40111
	-74.28255	39.39974
	-74.28405	39.39826
	-74.28562	39.39683
	-74.28709	39.39558
	-74.29001	39.39333
	-74.29305	39.39116
	-74.29508	39.3898
	-74.29672	39.38839
	-74.2986	39.38689
	-74.29979	39.38548
	-74.30105	39.3841
	-74.30236	39.38275
	-74.30373	39.38143
	-74.30549	39.37988
	-74.30732	39.37838
	-74.30941	39.37682
	-74.31141	39.37545
	-74.3132	39.3738
	-74.31472	39.37215
	-74.31737	39.36947
	-74.3191	39.36787
	-74.32091	39.36634
	-74.32334	39.36447
	-74.32885	39.36056
	-74.33086	39.35926
	-74.33351	39.3577
	-74.3365	39.3558
	-74.33862	39.35401
	-74.34086	39.35229
	-74.3432	39.35066
	-74.34563	39.34912
	-74.34597	39.34882
	-74.34667	39.34721
	-74.34753	39.34544
	-74.34848	39.34371
	-74.34951	39.342
	-74.35051	39.34049
	-74.35157	39.339
	-74.35375	39.33628
	-74.355	39.33488
	-74.35645	39.33337
	-74.35782	39.33205
	-74.35925	39.33076
	-74.36073	39.32951
	-74.36225	39.32831
	-74.36383	39.32715
	-74.36546	39.32603
	-74.36713	39.32496
	-74.36885	39.32393
	-74.37046	39.3228
	-74.37213	39.32171
	-74.3748	39.3201
	-74.3803	39.31709
	-74.38447	39.31495
	-74.38712	39.3137
	-74.39009	39.31246
	-74.39292	39.31141
	-74.39824	39.30971
	-74.40157	39.30878
	-74.40482	39.30752
	-74.40815	39.30641
	-74.41109	39.30556
	-74.41407	39.30482
	-74.41687	39.30424
	-74.41993	39.30372
	-74.42164	39.30305
	-74.42486	39.3016
	-74.42772	39.30022
	-74.43044	39.29904
	-74.43295	39.29788
	-74.43509	39.29697
	-74.43748	39.29605
	-74.44092	39.29433
	-74.44501	39.29244
	-74.4471	39.29155
	-74.45146	39.28983
	-74.45274	39.28927
	-74.45739	39.28684
	-74.45931	39.28578
	-74.46188	39.2845
	-74.46613	39.28224
	-74.46861	39.28078
	-74.4717	39.27906
	-74.47625	39.27674
	-74.47913	39.27517
	-74.4808	39.27385
	-74.48235	39.27271
	-74.48412	39.27095
	-74.48599	39.26924
	-74.48796	39.2676
	-74.48984	39.26616
	-74.49157	39.26379
	-74.49294	39.26205
	-74.49413	39.26064
	-74.49638	39.25822
	-74.49898	39.25577
	-74.50113	39.25396
	-74.50357	39.2521
	-74.50614	39.25034
	-74.50863	39.24881
	-74.51028	39.24721
	-74.51186	39.2458
	-74.51367	39.2443
	-74.51556	39.24286
	-74.51845	39.24087
	-74.52148	39.23902
	-74.52405	39.23762
	-74.52774	39.23578
	-74.5311	39.23395
	-74.53315	39.23295
	-74.53816	39.23065
	-74.54117	39.22941
	-74.54425	39.22829
	-74.54628	39.22727
	-74.5484	39.22586
	-74.55097	39.22395
	-74.55286	39.22245
	-74.55437	39.22103
	-74.55597	39.21963
	-74.55942	39.21681
	-74.56245	39.21458
	-74.56508	39.21217
	-74.56805	39.2092
	-74.57099	39.20599
	-74.57243	39.20451
	-74.57419	39.20249
	-74.5758	39.20076
	-74.5792	39.1969
	-74.57984	39.19593
	-74.58058	39.19414
	-74.58133	39.19255
	-74.58214	39.19098
	-74.58312	39.18926
	-74.58486	39.18657
	-74.58668	39.18413
	-74.58818	39.18112
	-74.58981	39.17836
	-74.5913	39.17618
	-74.59292	39.17406
	-74.59524	39.17138
	-74.59789	39.16869
	-74.5993	39.16739
	-74.60093	39.166
	-74.60263	39.16466
	-74.60421	39.16349
	-74.60676	39.16096
	-74.6095	39.15835
	-74.61239	39.15534
	-74.61448	39.15333
	-74.61574	39.15203
	-74.61702	39.15048
	-74.61838	39.14897
	-74.62122	39.1455
	-74.62226	39.14385
	-74.62359	39.14193
	-74.62466	39.14018
	-74.62565	39.13868
	-74.62756	39.13607
	-74.62891	39.13406
	-74.63456	39.12611
	-74.63576	39.12453
	-74.63717	39.12283
	-74.6383	39.12137
	-74.6399	39.11946
	-74.64101	39.11785
	-74.64148	39.11709
	-74.64063	39.11448
	-74.63991	39.11161
	-74.63943	39.10901
	-74.63913	39.10659
	-74.63898	39.10433
	-74.63895	39.10225
	-74.63905	39.09998
	-74.63925	39.0979
	-74.63963	39.09546
	-74.64012	39.09323
	-74.64078	39.09085
	-74.64157	39.08851
	-74.64242	39.08635
	-74.6434	39.08422
	-74.64449	39.08213
	-74.64571	39.08008
	-74.6468	39.07839
	-74.64798	39.07673
	-74.64923	39.07511
	-74.6507	39.07337
	-74.65268	39.07117
	-74.65429	39.06951
	-74.65614	39.06776
	-74.65792	39.06622
	-74.65961	39.06487
	-74.6617	39.06331
	-74.6635	39.06207
	-74.66535	39.06088
	-74.66767	39.0595
	-74.66975	39.05833
	-74.67175	39.0573
	-74.674	39.05623
	-74.67692	39.05446
	-74.67817	39.05351
	-74.68101	39.05073
	-74.68278	39.04826
	-74.68427	39.04636
	-74.68636	39.04329
	-74.689	39.03977
	-74.6912	39.03707
	-74.69829	39.02784
	-74.70035	39.0254
	-74.70135	39.02367
	-74.70232	39.02214
	-74.70336	39.02064
	-74.70459	39.019
	-74.7059	39.0174
	-74.70728	39.01584
	-74.70874	39.01432
	-74.71043	39.0127
	-74.71213	39.01086
	-74.71304	39.00935
	-74.71401	39.00787
	-74.71505	39.00641
	-74.71615	39.00498
	-74.71708	39.00288
	-74.71813	39.00082
	-74.71949	38.99845
	-74.72077	38.99644
	-74.72103	38.99477
	-74.72137	38.9931
	-74.72178	38.99145
	-74.72227	38.9898
	-74.72321	38.98705
	-74.72423	38.98463
	-74.72493	38.98151
	-74.72541	38.97985
	-74.72595	38.9782
	-74.72694	38.97566
	-74.7281	38.97317
	-74.72903	38.97142
	-74.73004	38.9697
	-74.73114	38.96801
	-74.73231	38.96635
	-74.73357	38.96473
	-74.73491	38.96315
	-74.73646	38.96145
	-74.73794	38.95995
	-74.73949	38.9585
	-74.74111	38.95709
	-74.7428	38.95573
	-74.74456	38.95442
	-74.74637	38.95316
	-74.74825	38.95196
	-74.75018	38.95081
	-74.75237	38.94962
	-74.75462	38.9485
	-74.75714	38.94735
	-74.75971	38.94629
	-74.76213	38.94541
	-74.76636	38.94401
	-74.76883	38.94326
	-74.77134	38.94259
	-74.77492	38.94175
	-74.77777	38.93962
	-74.78066	38.93769
	-74.78303	38.93561
	-74.78555	38.93365
	-74.78697	38.93237
	-74.78861	38.93099
	-74.79067	38.9294
	-74.79501	38.92626
	-74.79767	38.92386
	-74.80052	38.9216
	-74.80154	38.91927
	-74.8027	38.91698
	-74.80411	38.91457
	-74.80557	38.91239
	-74.80716	38.91026
	-74.80902	38.90804
	-74.81088	38.90606
	-74.81286	38.90414
	-74.81446	38.90273
	-74.81631	38.90122
	-74.81823	38.89978
	-74.82003	38.89853
	-74.82206	38.89723
	-74.82415	38.89599
	-74.82631	38.89483
	-74.82832	38.89383
	-74.83058	38.8928
	-74.83289	38.89184
	-74.83527	38.89095
	-74.83749	38.89021
	-74.83997	38.88946
	-74.84249	38.8888
	-74.8448	38.88826
	-74.84738	38.88776
	-74.85117	38.88717
	-74.8566	38.88655
	-74.85971	38.88629
	-74.86284	38.88614
	-74.86646	38.88613
	-74.87007	38.88627
	-74.87343	38.88655
	-74.877	38.887
	-74.87985	38.88591
	-74.88271	38.88494
	-74.88495	38.88427
	-74.88699	38.88372
	-74.89019	38.88272
	-74.89285	38.88201
	-74.89602	38.88128
	-74.89903	38.88072
	-74.90231	38.88024
	-74.90538	38.87991
	-75.01666	38.79113
	-75.16843	39.05555
	-75.17705	39.06584
	-75.26828	39.18156
	-75.30931	39.22844
	-75.34616	39.27055
	-75.38327	39.30263
	-75.44491	39.35592
	-75.48014	39.38635
	-75.52526	39.42529
	-75.56041	39.45564
	-75.56339	39.48305
	-75.55897	39.49576
	-75.5532	39.49595
	-75.5475	39.4962
	-75.54215	39.49661
	-75.5337	39.49723
	-75.52792	39.49808
	-75.52785	39.49832
	-75.52789	39.49873
	-75.52801	39.49912
	-75.52769	39.49931
	-75.52725	39.49947
	-75.52722	39.49974
	-75.52745	39.49995
	-75.52816	39.50043
	-75.52924	39.50125
	-75.52936	39.50164
	-75.5294	39.50259
	-75.52986	39.50419
	-75.53012	39.50462
	-75.53009	39.50495
	-75.53002	39.5105
	-75.52977	39.51243
	-75.52927	39.51335
	-75.52867	39.51405
	-75.52738	39.51629
	-75.52718	39.51701
	-75.52736	39.51755
	-75.52791	39.51814
	-75.52812	39.51874
	-75.52819	39.51956
	-75.52803	39.52046
	-75.52793	39.52148
	-75.52771	39.52202
	-75.52746	39.52236
	-75.52734	39.52322
	-75.52711	39.52353
	-75.52707	39.52386
	-75.5272	39.52413
	-75.52722	39.52448
	-75.52715	39.52501
	-75.52669	39.5262
	-75.5267	39.52673
	-75.52683	39.52763
	-75.52683	39.52833
	-75.52663	39.52989
	-75.52665	39.53083
	-75.52684	39.53173
	-75.5272	39.53251
	-75.52715	39.5329
	-75.52706	39.53408
	-75.52725	39.53478
	-75.52789	39.53568
	-75.52867	39.53609
	-75.5298	39.53655
	-75.53092	39.53688
	-75.53169	39.53743
	-75.53221	39.53803
	-75.53315	39.53943
	-75.53359	39.54024
	-75.53366	39.54069
	-75.53366	39.54124
	-75.53271	39.54265
	-75.53012	39.54545
	-75.52812	39.5469
	-75.52608	39.5486
	-75.52243	39.55179
	-75.52086	39.55354
	-75.51877	39.55604
	-75.51756	39.5576
	-75.51723	39.55825
	-75.5171	39.55904
	-75.5168	39.55952
	-75.51525	39.56212
	-75.5148	39.56293
	-75.51335	39.56542
	-75.51156	39.56796
	-75.51222	39.5731
	-75.51245	39.57685
	-75.51259	39.57775
	-75.51291	39.57816
	-75.51362	39.57849
	-75.514	39.57904
	-75.51455	39.57934
	-75.51466	39.57968
	-75.51482	39.58034
	-75.51517	39.58085
	-75.5156	39.58091
	-75.51604	39.58083
	-75.51645	39.58103
	-75.51662	39.58112
	-75.51679	39.58165
	-75.51702	39.58194
	-75.51841	39.58274
	-75.51928	39.58291
	-75.51978	39.58317
	-75.52194	39.58319
	-75.52298	39.58349
	-75.52497	39.58409
	-75.52626	39.58424
	-75.5275	39.58426
	-75.52755	39.58428
	-75.52796	39.58452
	-75.52881	39.58553
	-75.52952	39.58617
	-75.53029	39.58675
	-75.53147	39.58835
	-75.53175	39.58879
	-75.53228	39.58901
	-75.53357	39.58983
	-75.53517	39.59099
	-75.53627	39.59152
	-75.53721	39.59205
	-75.53731	39.5926
	-75.53749	39.59328
	-75.53772	39.59368
	-75.53834	39.59385
	-75.53938	39.59407
	-75.54013	39.59414
	-75.54107	39.59414
	-75.54149	39.5942
	-75.5416	39.59422
	-75.54239	39.59451
	-75.54296	39.59496
	-75.54367	39.59579
	-75.54441	39.5965
	-75.54507	39.59677
	-75.54638	39.5972
	-75.54734	39.59773
	-75.54771	39.59804
	-75.54836	39.59896
	-75.54964	39.59964
	-75.55053	39.60067
	-75.55366	39.6019
	-75.55362	39.60221
	-75.5543	39.60386
	-75.55504	39.6045
	-75.55553	39.6048
	-75.5556	39.60567
	-75.55615	39.60615
	-75.5565	39.60669
	-75.55701	39.60741
	-75.55762	39.60894
	-75.55773	39.60944
	-75.55777	39.60994
	-75.55755	39.61039
	-75.55716	39.61105
	-75.55699	39.61173
	-75.55702	39.61222
	-75.55738	39.61289
	-75.55762	39.61373
	-75.55779	39.61526
	-75.55785	39.61612
	-75.55809	39.61695
	-75.55892	39.61802
	-75.55929	39.61914
	-75.55972	39.62093
	-75.55987	39.6227
	-75.55985	39.625
	-75.55968	39.62618
	-75.55923	39.62856
	-75.55907	39.62964
	-75.55886	39.62997
	-75.55837	39.63047
	-75.55831	39.63113
	-75.55792	39.63161
	-75.55764	39.63221
	-75.55719	39.63328
	-75.55682	39.63387
	-75.55577	39.63495
	-75.55441	39.63581
	-75.5531	39.63653
	-75.55082	39.63772
	-75.55024	39.63794
	-75.54962	39.63769
	-75.54906	39.63772
	-75.54886	39.6379
	-75.54865	39.63834
	-75.54761	39.63984
	-75.54678	39.64039
	-75.54589	39.64121
	-75.54377	39.6438
	-75.5425	39.6454
	-75.54162	39.64609
	-75.54067	39.6459
	-75.53897	39.64633
	-75.53772	39.64673
	-75.5371	39.64719
	-75.53639	39.64714
	-75.53549	39.64715
	-75.53518	39.64732
	-75.53426	39.64803
	-75.53394	39.6484
	-75.53351	39.64845
	-75.53297	39.64888
	-75.52985	39.65178
	-75.52942	39.65242
	-75.52884	39.65298
	-75.52832	39.65309
	-75.52809	39.65352
	-75.52757	39.65383
	-75.5272	39.65459
	-75.52686	39.65537
	-75.52712	39.6557
	-75.5263	39.65658
	-75.52563	39.65705
	-75.52488	39.65783
	-75.52402	39.65879
	-75.52277	39.66069
	-75.52217	39.66121
	-75.52109	39.66184
	-75.51946	39.66314
	-75.51798	39.66445
	-75.51682	39.66561
	-75.51542	39.66773
	-75.51411	39.66968
	-75.51281	39.67157
	-75.51217	39.67375
	-75.51136	39.67639
	-75.51075	39.67906
	-75.51082	39.67985
	-75.51092	39.68043
	-75.51084	39.68089
	-75.5101	39.68292
	-75.50967	39.68445
	-75.50969	39.6849
	-75.50957	39.68526
	-75.50929	39.68589
	-75.50924	39.68621
	-75.50948	39.68631
	-75.50993	39.68638
	-75.51015	39.68674
	-75.50991	39.68804
	-75.50955	39.69256
	-75.50968	39.69314
	-75.50996	39.6938
	-75.5093	39.6945
	-75.50847	39.69582
	-75.50735	39.69718
	-75.50679	39.69757
	-75.50616	39.69786
	-75.50496	39.69831
	-75.50291	39.69904
	-75.50215	39.69962
	-75.50146	39.69983
	-75.50069	39.69989
	-75.50005	39.69986
	-75.49935	39.70026
	-75.49911	39.70062
	-75.49855	39.70072
	-75.49772	39.70076
	-75.49688	39.70117
	-75.49671	39.70147
	-75.49685	39.70171
	-75.49711	39.70194
	-75.4969	39.70209
	-75.49658	39.702
	-75.49625	39.70175
	-75.49613	39.70212
	-75.49612	39.70365
	-75.49578	39.70437
	-75.49397	39.70748
	-75.49309	39.7084
	-75.49212	39.70938
	-75.49171	39.71008
	-75.49161	39.71035
	-75.49186	39.71051
	-75.49214	39.71065
	-75.49201	39.71099
	-75.49164	39.71115
	-75.49133	39.71139
	-75.49032	39.71285
	-75.48929	39.7139
	-75.48866	39.71466
	-75.48688	39.71577
	-75.48608	39.71604
	-75.48544	39.71622
	-75.48481	39.71624
	-75.48432	39.71606
	-75.48382	39.71605
	-75.48341	39.71594
	-75.48305	39.71566
	-75.48309	39.71474
	-75.48251	39.71475
	-75.48227	39.71455
	-75.48165	39.71455
	-75.48074	39.71469
	-75.4801	39.71471
	-75.47971	39.71457
	-75.47933	39.71418
	-75.47896	39.71405
	-75.47887	39.71423
	-75.47885	39.71458
	-75.47874	39.71494
	-75.47848	39.71529
	-75.47803	39.71527
	-75.47765	39.71536
	-75.47743	39.71559
	-75.47718	39.71579
	-75.47717	39.71606
	-75.47707	39.71646
	-75.47677	39.71671
	-75.47685	39.71694
	-75.47696	39.71744
	-75.47659	39.71838
	-75.47644	39.71935
	-75.47644	39.72045
	-75.47641	39.72062
	-75.47664	39.72144
	-75.4767	39.72231
	-75.47677	39.72263
	-75.47696	39.72275
	-75.47672	39.72447
	-75.47707	39.72476
	-75.47726	39.72503
	-75.4772	39.72572
	-75.47563	39.72924
	-75.4754	39.73134
	-75.47554	39.73308
	-75.47578	39.73341
	-75.47606	39.7335
	-75.47619	39.73365
	-75.47604	39.73368
	-75.47565	39.73368
	-75.47543	39.73378
	-75.47511	39.73416
	-75.47494	39.73446
	-75.47513	39.73468
	-75.47507	39.73498
	-75.47481	39.73539
	-75.47441	39.73563
	-75.47356	39.73731
	-75.47332	39.73799
	-75.47318	39.7385
	-75.47285	39.7388
	-75.47221	39.73912
	-75.47182	39.73953
	-75.47132	39.74028
	-75.47105	39.74083
	-75.47098	39.7415
	-75.47068	39.74226
	-75.47042	39.74262
	-75.47003	39.74255
	-75.4696	39.74268
	-75.46932	39.74317
	-75.46903	39.74374
	-75.46889	39.74446
	-75.46881	39.74524
	-75.46833	39.74603
	-75.46801	39.74716
	-75.46683	39.74982
	-75.46595	39.75149
	-75.46556	39.75293
	-75.46526	39.75396
	-75.46481	39.75504
	-75.46414	39.75603
	-75.46345	39.75741
	-75.46317	39.75844
	-75.46317	39.75923
	-75.46345	39.76168
	-75.46308	39.76226
	-75.45981	39.76599
	-75.45792	39.76642
	-75.45683	39.76644
	-75.45678	39.76646
	-75.45584	39.76667
	-75.45487	39.76725
	-75.45302	39.76854
	-75.45198	39.76957
	-75.45102	39.77077
	-75.45023	39.77121
	-75.44908	39.77208
	-75.44741	39.77363
	-75.44795	39.77401
	-75.44845	39.77439
	-75.44779	39.77557
	-75.44714	39.77655
	-75.44616	39.77732
	-75.44538	39.77782
	-75.44461	39.7785
	-75.4439	39.77926
	-75.44259	39.78038
	-75.44192	39.78074
	-75.4399	39.78223
	-75.43917	39.78283
	-75.43801	39.78361
	-75.43657	39.78431
	-75.43455	39.78517
	-75.43085	39.78645
	-75.42586	39.78813
	-75.41858	39.79095
	-75.41549	39.7923
	-75.41413	39.79279
	-75.41317	39.79312
	-75.41254	39.79343
	-75.41168	39.79381
	-75.41093	39.79422
	-75.40977	39.79468
	-75.40833	39.79513
	-75.40528	39.79623
	-75.41495	39.80231
	-75.40303	39.80794
	-75.39616	39.81197
	-75.39539	39.81244
	-75.37552	39.82519
	-75.37015	39.8288
	-75.35608	39.83874
	-75.34148	39.84614
	-75.33976	39.84659
	-75.325	39.84961
	-75.32091	39.84982
	-75.31653	39.84999
	-75.31436	39.85006
	-75.28964	39.84889
	-75.28223	39.84911
	-75.27531	39.84921
	-75.26867	39.84996
	-75.2487	39.85369
	-75.24697	39.85398
	-75.23462	39.85675
	-75.2239	39.86019
	-75.2218	39.86098
	-75.21974	39.86194
	-75.21142	39.867
	-75.20409	39.8712
	-75.19986	39.87322
	-75.19947	39.87355
	-75.19905	39.87399
	-75.19855	39.87444
	-75.19783	39.87513
	-75.19764	39.87529
	-75.19712	39.87582
	-75.19676	39.8761
	-75.1964	39.87642
	-75.19591	39.87681
	-75.19536	39.87728
	-75.19417	39.87811
	-75.19274	39.87901
	-75.19217	39.8793
	-75.19081	39.88003
	-75.1901	39.88035
	-75.1889	39.88079
	-75.18789	39.8811
	-75.18721	39.88127
	-75.18642	39.88144
	-75.18573	39.88161
	-75.18396	39.88188
	-75.18139	39.88212
	-75.18011	39.8822
	-75.17677	39.88229
	-75.17265	39.88242
	-75.16866	39.8825
	-75.16452	39.88262
	-75.16287	39.88265
	-75.15663	39.88303
	-75.15065	39.8835
	-75.14737	39.88392
	-75.14563	39.8845
	-75.14375	39.885
	-75.14152	39.88689
	-75.14011	39.88819
	-75.13853	39.88889
	-75.1373	39.88997
	-75.1354	39.89306
	-75.1347	39.89461
	-75.13199	39.89819
	-75.13136	39.89914
	-75.13072	39.90055
	-75.13005	39.90239
	-75.12991	39.90338
	-75.12973	39.90394
	-75.12963	39.90483
	-75.12956	39.90518
	-75.12951	39.9053
	-75.12925	39.90647
	-75.1289	39.90741
	-75.12867	39.90863
	-75.12854	39.9091
	-75.12846	39.91029
	-75.12838	39.91072
	-75.12825	39.91316
	-75.1286	39.91399
	-75.12882	39.91467
	-75.12934	39.9159
	-75.13035	39.9174
	-75.13234	39.92167
	-75.13238	39.92173
	-75.13448	39.92617
	-75.13553	39.92916
	-75.13615	39.93297
	-75.13607	39.93383
	-75.13606	39.93449
	-75.13619	39.9359
	-75.13618	39.93655
	-75.13623	39.9377
	-75.1362	39.93866
	-75.13622	39.93976
	-75.13626	39.94048
	-75.13627	39.94328
	-75.13595	39.94606
	-75.13524	39.95068
	-75.1337	39.95462
	-75.13178	39.95732
	-75.13059	39.95861
	-75.12959	39.9593
	-75.1257	39.96182
	-75.12382	39.96274
	-75.11949	39.96537
	-75.11896	39.96554
	-75.1189	39.96555
	-75.11821	39.96594
	-75.11429	39.96774
	-75.10809	39.97033
	-75.10604	39.9711
	-75.10229	39.97238
	-75.09637	39.97398
	-75.09086	39.97474
	-75.08583	39.9751
	-75.0802	39.97702
	-75.0756	39.97804
	-75.07151	39.98036
	-75.07126	39.98049
	-75.06707	39.98348
	-75.06417	39.98603
	-75.06206	39.98865
	-75.05995	39.99145
	-75.0585	39.9948
	-75.05809	39.9974
	-75.0567	39.99933
	-75.0534	40.00457
	-75.0499	40.00722
	-75.04709	40.00994
	-75.04488	40.0112
	-75.04127	40.01271
	-75.03829	40.01383
	-75.03422	40.01522
	-75.03094	40.01609
	-75.0275	40.01708
	-75.02407	40.01783
	-75.01964	40.01844
	-75.01667	40.01943
	-75.01324	40.0203
	-75.01037	40.02249
	-75.00385	40.027
	-75.00062	40.0287
	-74.99711	40.03129
	-74.99409	40.03341
	-74.99098	40.03577
	-74.98318	40.0414
	-74.98078	40.04354
	-74.97785	40.04537
	-74.97439	40.0498
	-74.96894	40.05276
	-74.96186	40.0558
	-74.9601	40.05642
	-74.95751	40.0572
	-74.95477	40.05791
	-74.95214	40.05886
	-74.94952	40.06018
	-74.94452	40.06327
	-74.94227	40.06451
	-74.93339	40.06853
	-74.92979	40.06996
	-74.92797	40.07062
	-74.92363	40.07162
	-74.92202	40.07182
	-74.92092	40.07182
	-74.91991	40.07153
	-74.91788	40.07072
	-74.91581	40.07015
	-74.91384	40.07001
	-74.91189	40.07011
	-74.9094	40.07055
	-74.90582	40.0713
	-74.90439	40.07174
	-74.90124	40.07298
	-74.89951	40.07359
	-74.89742	40.07412
	-74.89322	40.07506
	-74.89147	40.0755
	-74.8891	40.07629
	-74.88369	40.07851
	-74.88198	40.07916
	-74.87983	40.07985
	-74.8775	40.08051
	-74.87621	40.08084
	-74.87505	40.08106
	-74.87344	40.08128
	-74.86878	40.08181
	-74.86618	40.08223
	-74.86433	40.08257
	-74.86319	40.08287
	-74.86218	40.08323
	-74.8613	40.0836
	-74.86066	40.08394
	-74.86023	40.08443
	-74.85997	40.08497
	-74.85934	40.08703
	-74.85901	40.08796
	-74.85815	40.08943
	-74.85702	40.09092
	-74.85663	40.09131
	-74.8558	40.09209
	-74.85502	40.09274
	-74.85306	40.09395
	-74.84972	40.09581
	-74.84827	40.09649
	-74.84667	40.09705
	-74.84317	40.098
	-74.84142	40.09869
	-74.83961	40.0995
	-74.83803	40.1004
	-74.83734	40.10109
	-74.83661	40.10196
	-74.83582	40.10338
	-74.83503	40.10508
	-74.83464	40.10628
	-74.83405	40.10785
	-74.83364	40.10901
	-74.83339	40.11012
	-74.83262	40.11281
	-74.83211	40.11396
	-74.83006	40.11787
	-74.82839	40.12079
	-74.82739	40.12266
	-74.82647	40.12408
	-74.82558	40.12509
	-74.82415	40.12626
	-74.82257	40.12707
	-74.82092	40.12762
	-74.81966	40.12791
	-74.81825	40.12798
	-74.81701	40.12795
	-74.8157	40.1278
	-74.8144	40.12752
	-74.81211	40.12685
	-74.80956	40.12622
	-74.80834	40.12582
	-74.80669	40.12513
	-74.80473	40.12442
	-74.80159	40.12344
	-74.79946	40.12292
	-74.79685	40.12247
	-74.7946	40.12218
	-74.78962	40.12123
	-74.78766	40.12103
	-74.78614	40.12106
	-74.78498	40.1212
	-74.78375	40.12144
	-74.78262	40.12178
	-74.78121	40.1224
	-74.77937	40.12341
	-74.77327	40.127
	-74.76959	40.12899
	-74.76687	40.13037
	-74.76078	40.13372
	-74.75957	40.13425
	-74.75845	40.13453
	-74.75743	40.13467
	-74.75575	40.13478
	-74.75345	40.13502
	-74.75172	40.13509
	-74.75027	40.13496
	-74.7471	40.13417
	-74.74583	40.13405
	-74.74447	40.13413
	-74.74335	40.13432
	-74.74205	40.13467
	-74.74085	40.13505
	-74.73997	40.13545
	-74.73926	40.13586
	-74.73754	40.13741
	-74.73578	40.13878
	-74.7346	40.13983
	-74.7294	40.14378
	-74.72787	40.14476
	-74.72517	40.14633
	-74.72397	40.14713
	-74.72309	40.14825
	-74.72258	40.14908
	-74.7223	40.1497
	-74.72207	40.15041
	-74.72156	40.15303
	-74.72127	40.15404
	-74.72113	40.15508
	-74.72107	40.15629
	-74.72125	40.15782
	-74.72215	40.16099
	-74.72252	40.16194
	-74.72314	40.16305
	-74.72363	40.16368
	-74.72581	40.16605
	-74.72806	40.16887
	-74.7291	40.16992
	-74.73038	40.17138
	-74.73391	40.17454
	-74.73581	40.17644
	-74.73732	40.17774
	-74.73989	40.17973
	-74.74105	40.18041
	-74.74211	40.18085
	-74.74302	40.18107
	-74.7452	40.18146
	-74.7464	40.18175
	-74.74939	40.18283
	-74.75063	40.18334
	-74.75207	40.18409
	-74.7532	40.18476
	-74.75441	40.18566
	-74.75518	40.18639
	-74.75589	40.18717
	-74.75651	40.188
	-74.75693	40.18877
	-74.75737	40.18976
	-74.75797	40.19163
	-74.759	40.19427
	-74.75964	40.1966
	-74.76044	40.19888
	-74.76067	40.1993
	-74.76206	40.20096
	-74.76269	40.20184
	-74.76391	40.2033
	-74.76561	40.20524
	-74.76691	40.20686
	-74.76751	40.2077
	-74.76781	40.20821
	-74.76816	40.20903
	-74.76845	40.20999
	-74.76903	40.21145
	-74.77061	40.21411
	-74.7717	40.21567
	-74.7722	40.21617
	-74.77261	40.21649
	-74.77531	40.21825
	-74.7775	40.21951
	-74.78074	40.22118
	-74.78201	40.22189
	-74.78594	40.22426
	-74.78749	40.22535
	-74.78853	40.22602
	-74.79228	40.22816
	-74.79374	40.22886
	-74.79443	40.22912
	-74.79501	40.22923
	-74.79614	40.22932
	-74.79666	40.22942
	-74.79716	40.22961
	-74.7998	40.23092
	-74.80179	40.23178
	-74.80418	40.23266
	-74.80724	40.23408
	-74.808	40.23438
	-74.80978	40.23494
	-74.81069	40.23517
	-74.81388	40.23581
	-74.81474	40.23607
	-74.81553	40.2364
	-74.81718	40.23723
	-74.81854	40.23779
	-74.82012	40.2387
	-74.8208	40.23928
	-74.82118	40.2398
	-74.82155	40.24046
	-74.82176	40.24067
	-74.82435	40.24185
	-74.83052	40.24424
	-74.83403	40.24542
	-74.8361	40.24618
	-74.83709	40.24671
	-74.83796	40.24708
	-74.83847	40.24734
	-74.84005	40.24844
	-74.84075	40.24899
	-74.84168	40.24983
	-74.84221	40.25044
	-74.84239	40.25072
	-74.84406	40.25367
	-74.84519	40.25534
	-74.84559	40.25623
	-74.84575	40.2571
	-74.84595	40.2576
	-74.84722	40.25978
	-74.85047	40.26589
	-74.8508	40.26621
	-74.85131	40.26656
	-74.85159	40.26685
	-74.85309	40.26916
	-74.85332	40.26971
	-74.85375	40.27082
	-74.85543	40.27435
	-74.85628	40.2758
	-74.8565	40.27709
	-74.85669	40.27788
	-74.85762	40.28011
	-74.85844	40.28173
	-74.86054	40.28535
	-74.86116	40.28633
	-74.8633	40.28945
	-74.86512	40.29184
	-74.86753	40.29448
	-74.87014	40.29685
	-74.87095	40.29789
	-74.8723	40.29909
	-74.87327	40.29981
	-74.87603	40.30148
	-74.87798	40.3032
	-74.88206	40.30648
	-74.88665	40.30992
	-74.88788	40.3107
	-74.89043	40.31217
	-74.89242	40.31346
	-74.89405	40.31428
	-74.89667	40.31527
	-74.89794	40.31547
	-74.90034	40.31542
	-74.90155	40.31546
	-74.90326	40.31566
	-74.90625	40.31628
	-74.9069	40.3165
	-74.90944	40.31747
	-74.91082	40.3181
	-74.91402	40.31969
	-74.91517	40.32034
	-74.916	40.32088
	-74.91858	40.32308
	-74.92184	40.32577
	-74.92297	40.32683
	-74.92382	40.32754
	-74.92453	40.32801
	-74.92616	40.32892
	-74.92713	40.32941
	-74.92868	40.33032
	-74.93162	40.33216
	-74.93383	40.33345
	-74.93535	40.33444
	-74.93831	40.33647
	-74.93928	40.33725
	-74.94042	40.33828
	-74.94163	40.33964
	-74.942	40.34012
	-74.94273	40.34135
	-74.94374	40.34325
	-74.94452	40.34495
	-74.94504	40.34627
	-74.94525	40.34731
	-74.94537	40.34879
	-74.9261	40.35373
	-74.91357	40.36537
	-74.88851	40.37648
	-74.87872	40.38721
	-74.87735	40.40446
	-74.86877	40.41348
	-74.854	40.41688
	-74.85383	40.43008
	-74.84611	40.44119
	-74.82551	40.45125
	-74.81795	40.463
	-74.80319	40.47175
	-74.80233	40.48899
	-74.79736	40.49538
	-74.7995	40.50369
	-74.78439	40.50793
	-74.78259	40.50571
	-74.77899	40.50434
	-74.76886	40.50356
	-74.76611	40.50441
	-74.76079	40.50545
	-74.7474	40.50317
	-74.74165	40.5016
	-74.72912	40.50336
	-74.72577	40.50649
	-74.7268	40.50839
	-74.72946	40.51465
	-74.72929	40.51778
	-74.72637	40.52078
	-74.72337	40.5185
	-74.71693	40.5172
	-74.7111	40.5183
	-74.705	40.52033
	-74.70319	40.52371
	-74.70586	40.5262
	-74.70817	40.5298
	-74.70538	40.53312
	-74.70841	40.53478
	-74.70975	40.53727
	-74.69907	40.5417
	-74.6987	40.54308
	-74.6964	40.54705
	-74.69227	40.55139
	-74.68741	40.55489
	-74.6817	40.55102
	-74.6766	40.5477
	-74.66774	40.54982
	-74.65487	40.55166
	-74.65123	40.55452
	-74.64735	40.5583
	-74.64407	40.56126
	-74.63849	40.56448
	-74.6329	40.56467
	-74.6272	40.56384
	-74.62149	40.56079
	-74.62113	40.55812
	-74.61761	40.55628
	-74.61288	40.55775
	-74.60474	40.55895
	-74.59831	40.55766
	-74.59467	40.55498
	-74.59494	40.55189
	-74.58791	40.55006
	-74.58413	40.55554
	-74.57349	40.55254
	-74.56817	40.55032
	-74.56745	40.54262
	-74.55846	40.54723
	-74.54972	40.55111
	-74.54426	40.55424
	-74.53734	40.55802
	-74.53224	40.5595
	-74.52739	40.5595
	-74.52083	40.55682
	-74.51792	40.55111
	-74.51646	40.54446
	-74.50967	40.53865
	-74.49704	40.53146
	-74.49304	40.52638
	-74.4843	40.51439
	-74.47981	40.51116
	-74.47434	40.5107
	-74.46925	40.50931
	-74.45929	40.50848
	-74.45189	40.50765
	-74.44521	40.50377
	-74.43902	40.49934
	-74.43635	40.49113
	-74.43247	40.48808
	-74.42676	40.48753
	-74.42094	40.48818
	-74.41535	40.49178
	-74.41159	40.49251
	-74.40176	40.49076
	-74.39739	40.48901
	-74.38343	40.48116
	-74.3549	40.48296
	-74.34667	40.48322
	-74.32778	40.48792
	-74.32074	40.49693
	-74.30959	40.50737
	-74.29774	40.5092
	-74.28967	40.5062
	-74.28796	40.4998
	-74.27302	40.49523
	-74.25672	40.4933
END
END
