US_North Dakota_Bismarck
1
	-99.00564	45.93994
	-99.09287	45.94018
	-99.09756	45.94017
	-99.09951	45.94017
	-99.10237	45.94016
	-99.17283	45.94013
	-99.20136	45.94011
	-99.21202	45.94011
	-99.21387	45.94197
	-99.21659	45.94198
	-99.22166	45.942
	-99.22167	45.942
	-99.22178	45.942
	-99.22226	45.942
	-99.22227	45.942
	-99.22232	45.942
	-99.23466	45.94201
	-99.24249	45.94205
	-99.245	45.94206
	-99.25058	45.94208
	-99.2506	45.94208
	-99.25776	45.94204
	-99.25971	45.94007
	-99.27627	45.94019
	-99.28397	45.9402
	-99.2902	45.94018
	-99.29727	45.94017
	-99.30071	45.94018
	-99.31787	45.94026
	-99.34173	45.94029
	-99.34477	45.9403
	-99.34496	45.9403
	-99.37849	45.9404
	-99.38556	45.94041
	-99.391	45.94039
	-99.40126	45.94037
	-99.44874	45.94036
	-99.49025	45.94036
	-99.49314	45.94038
	-99.58878	45.9411
	-99.61116	45.9411
	-99.66338	45.94107
	-99.67194	45.94106
	-99.68074	45.94101
	-99.69297	45.94095
	-99.7206	45.94099
	-99.74349	45.94094
	-99.74787	45.94093
	-99.74932	45.94094
	-99.74949	45.94096
	-99.7504	45.94094
	-99.83868	45.94129
	-99.88029	45.94167
	-99.9137	45.94173
	-99.96577	45.94182
	-100.0055	45.94195
	-100.069	45.94217
	-100.0842	45.9423
	-100.0966	45.94235
	-100.1085	45.94239
	-100.1087	45.94239
	-100.1103	45.94237
	-100.1361	45.94248
	-100.1417	45.94251
	-100.1521	45.94249
	-100.1708	45.94251
	-100.1836	45.94257
	-100.2748	45.94295
	-100.2756	45.94292
	-100.2841	45.94295
	-100.2853	45.94313
	-100.2941	45.94327
	-100.3664	45.94338
	-100.3676	45.9453
	-100.3678	45.94533
	-100.368	45.94537
	-100.3683	45.94542
	-100.3686	45.94543
	-100.3688	45.94544
	-100.3688	45.94544
	-100.369	45.94544
	-100.3691	45.94544
	-100.3697	45.94542
	-100.3707	45.9454
	-100.3708	45.94597
	-100.3709	45.94612
	-100.3717	45.94695
	-100.3718	45.94702
	-100.3718	45.94703
	-100.3719	45.94733
	-100.372	45.9475
	-100.3725	45.94809
	-100.3727	45.94823
	-100.373	45.94842
	-100.373	45.94842
	-100.3732	45.94858
	-100.3742	45.94901
	-100.3744	45.94903
	-100.3746	45.94904
	-100.3751	45.94904
	-100.3756	45.94907
	-100.3757	45.94907
	-100.3764	45.9491
	-100.3781	45.94921
	-100.3784	45.94925
	-100.3807	45.94759
	-100.379	45.9453
	-100.3786	45.94524
	-100.3784	45.94522
	-100.3766	45.94511
	-100.3766	45.94511
	-100.3759	45.94508
	-100.3754	45.94505
	-100.3754	45.945
	-100.3753	45.94481
	-100.3753	45.9447
	-100.3752	45.94456
	-100.3747	45.94406
	-100.3747	45.94399
	-100.3747	45.9434
	-100.4036	45.94344
	-100.4104	45.94345
	-100.4202	45.94353
	-100.4244	45.94357
	-100.4244	45.94357
	-100.4244	45.94357
	-100.4245	45.94357
	-100.4245	45.94357
	-100.4306	45.94364
	-100.4609	45.94357
	-100.4609	45.94357
	-100.4628	45.94357
	-100.4991	45.94363
	-100.5118	45.94365
	-100.5462	45.94365
	-100.5462	45.94365
	-100.6277	45.94364
	-100.6495	45.94368
	-100.6508	45.94368
	-100.6551	45.9437
	-100.6551	45.9437
	-100.7081	45.94396
	-100.7208	45.94402
	-100.7209	45.94402
	-100.7212	45.94402
	-100.7212	45.94402
	-100.7504	45.94365
	-100.7609	45.94379
	-100.7621	45.9438
	-100.7621	45.94377
	-100.7621	45.94377
	-100.7698	45.94377
	-100.8101	45.9438
	-100.8902	45.94386
	-100.9356	45.94376
	-100.939	45.94385
	-100.9559	45.94383
	-100.9585	45.94383
	-100.9599	45.94575
	-100.9602	45.94581
	-100.9605	45.94584
	-100.9615	45.94583
	-100.9616	45.94583
	-100.9621	45.94582
	-100.9634	45.94581
	-100.9635	45.94581
	-100.9641	45.94576
	-100.9641	45.94549
	-100.9661	45.94498
	-100.9658	45.94383
	-100.9766	45.94386
	-100.9807	45.94407
	-101.0995	45.94384
	-101.1003	45.94567
	-101.1003	45.9457
	-101.1006	45.94578
	-101.1006	45.9458
	-101.1009	45.94586
	-101.101	45.94588
	-101.1012	45.9459
	-101.1014	45.94591
	-101.1015	45.94591
	-101.1042	45.94591
	-101.1049	45.94591
	-101.1049	45.94592
	-101.105	45.94592
	-101.1052	45.94601
	-101.1055	45.94614
	-101.1059	45.94643
	-101.1067	45.94679
	-101.1069	45.94681
	-101.1071	45.94684
	-101.108	45.94675
	-101.1082	45.9467
	-101.1092	45.94599
	-101.1092	45.9459
	-101.1096	45.94441
	-101.1095	45.9441
	-101.1095	45.94397
	-101.1426	45.94384
	-101.1461	45.94384
	-101.1632	45.94391
	-101.1711	45.94396
	-101.1757	45.94398
	-101.1786	45.94391
	-101.1791	45.9439
	-101.2038	45.94389
	-101.2042	45.9439
	-101.2042	45.9439
	-101.2053	45.9439
	-101.224	45.94403
	-101.2715	45.94421
	-101.2827	45.94414
	-101.2827	45.94414
	-101.2872	45.94411
	-101.3006	45.94414
	-101.3133	45.94416
	-101.3286	45.94417
	-101.3339	45.94417
	-101.3631	45.9441
	-101.363	45.94406
	-101.3651	45.94216
	-101.3666	45.94223
	-101.3667	45.94224
	-101.367	45.94223
	-101.3673	45.9422
	-101.3677	45.94216
	-101.3678	45.94216
	-101.3681	45.94213
	-101.3682	45.94213
	-101.3684	45.94213
	-101.3685	45.94213
	-101.3692	45.94214
	-101.3702	45.94214
	-101.3704	45.94214
	-101.3705	45.94215
	-101.3708	45.94217
	-101.3714	45.94217
	-101.3731	45.94215
	-101.3732	45.94215
	-101.3734	45.94216
	-101.3738	45.9422
	-101.3739	45.94223
	-101.374	45.94226
	-101.3742	45.9423
	-101.3745	45.94241
	-101.3747	45.94253
	-101.375	45.94267
	-101.3752	45.94281
	-101.3753	45.94294
	-101.3761	45.94357
	-101.3762	45.94364
	-101.3766	45.94401
	-101.3768	45.94423
	-101.3891	45.9441
	-101.4199	45.94376
	-101.4458	45.94383
	-101.4518	45.94384
	-101.4773	45.9439
	-101.4773	45.9439
	-101.5541	45.94409
	-101.5541	45.94409
	-101.5541	45.94409
	-101.5561	45.94218
	-101.558	45.9422
	-101.558	45.9422
	-101.558	45.9422
	-101.5581	45.94218
	-101.5583	45.94218
	-101.5584	45.94221
	-101.5596	45.9422
	-101.5596	45.9422
	-101.5614	45.94219
	-101.5614	45.94219
	-101.5617	45.94219
	-101.5619	45.9422
	-101.562	45.94222
	-101.5626	45.94237
	-101.5629	45.94247
	-101.5634	45.94284
	-101.5636	45.943
	-101.5641	45.94361
	-101.5642	45.94382
	-101.5643	45.94424
	-101.565	45.94424
	-101.5763	45.94425
	-101.6286	45.94429
	-101.6576	45.94439
	-101.6683	45.94436
	-101.6683	45.94436
	-101.6806	45.94433
	-101.6818	45.94444
	-101.6875	45.94442
	-101.6875	45.94442
	-101.7005	45.94438
	-101.7059	45.94436
	-101.7059	45.94436
	-101.7061	45.94372
	-101.7062	45.94354
	-101.7066	45.94307
	-101.7067	45.94295
	-101.7073	45.9426
	-101.7074	45.94252
	-101.7077	45.94242
	-101.7078	45.94239
	-101.7084	45.94232
	-101.7183	45.94233
	-101.7208	45.94234
	-101.7212	45.94234
	-101.7213	45.94234
	-101.7213	45.94234
	-101.7214	45.94234
	-101.7215	45.94233
	-101.7216	45.94233
	-101.7218	45.94233
	-101.7221	45.94233
	-101.7222	45.94233
	-101.7223	45.94233
	-101.7227	45.94231
	-101.7228	45.94231
	-101.723	45.9423
	-101.7231	45.94228
	-101.7234	45.94222
	-101.7239	45.94202
	-101.7241	45.94197
	-101.7243	45.94191
	-101.7247	45.94184
	-101.725	45.94181
	-101.7252	45.94181
	-101.7256	45.94182
	-101.7259	45.94185
	-101.7264	45.94193
	-101.7266	45.94201
	-101.7271	45.94216
	-101.7272	45.9422
	-101.7278	45.94245
	-101.7278	45.94246
	-101.7286	45.94282
	-101.7289	45.94298
	-101.7293	45.94324
	-101.7294	45.94331
	-101.7296	45.9434
	-101.7298	45.94361
	-101.7299	45.94372
	-101.73	45.94388
	-101.7301	45.94396
	-101.7303	45.94436
	-101.7397	45.9444
	-101.7397	45.9444
	-101.7586	45.94448
	-101.7643	45.94441
	-101.7653	45.94437
	-101.7662	45.94432
	-101.7833	45.94441
	-101.7901	45.94444
	-101.7921	45.94442
	-101.7946	45.9444
	-101.8241	45.94445
	-101.8241	45.94445
	-101.8242	45.94445
	-101.833	45.94446
	-101.8526	45.94446
	-101.8868	45.94456
	-101.9319	45.94451
	-101.9574	45.94448
	-101.965	45.94447
	-101.9737	45.94446
	-101.9885	45.94447
	-101.9895	45.94447
	-101.9921	45.94447
	-101.9922	45.94447
	-101.9922	45.94447
	-101.9922	45.94447
	-101.9988	45.94451
	-101.999	45.94451
	-101.999	45.94451
	-101.9995	45.94451
	-102.0007	45.94452
	-102.0609	45.94462
	-102.0851	45.94464
	-102.0876	45.9446
	-102.1145	45.94475
	-102.1246	45.94481
	-102.1254	45.94465
	-102.1353	45.94459
	-102.1366	45.9446
	-102.1366	45.9446
	-102.1454	45.94466
	-102.1455	45.94466
	-102.1456	45.94466
	-102.1457	45.94466
	-102.1514	45.94466
	-102.1514	45.94466
	-102.1564	45.94466
	-102.1569	45.94466
	-102.158	45.94464
	-102.1594	45.94464
	-102.1712	45.94463
	-102.1713	45.94463
	-102.1767	45.94462
	-102.177	45.94462
	-102.1971	45.94467
	-102.2179	45.94471
	-102.2619	45.94475
	-102.3205	45.9448
	-102.3272	45.94481
	-102.3282	45.94481
	-102.3513	45.94497
	-102.3513	45.94657
	-102.3532	45.94657
	-102.3532	45.94694
	-102.3533	45.94694
	-102.3534	45.94693
	-102.3535	45.94693
	-102.3535	45.94693
	-102.3535	45.94693
	-102.3535	45.94692
	-102.3544	45.94693
	-102.3544	45.94693
	-102.3555	45.94692
	-102.3611	45.94693
	-102.3612	45.94692
	-102.3616	45.94692
	-102.3617	45.94691
	-102.362	45.94689
	-102.3621	45.94688
	-102.3622	45.94686
	-102.3624	45.9468
	-102.3625	45.94678
	-102.3626	45.94676
	-102.3626	45.94675
	-102.3627	45.94671
	-102.3629	45.94667
	-102.3631	45.94658
	-102.3632	45.94651
	-102.3634	45.94636
	-102.3636	45.94627
	-102.3639	45.94603
	-102.364	45.94588
	-102.3643	45.94553
	-102.3643	45.9454
	-102.3645	45.94491
	-102.3927	45.94495
	-102.3928	45.94498
	-102.3964	45.94492
	-102.3986	45.94487
	-102.4041	45.94496
	-102.4041	45.94496
	-102.4062	45.945
	-102.4074	45.94502
	-102.4103	45.94508
	-102.4202	45.94507
	-102.4233	45.94502
	-102.4233	45.94502
	-102.4254	45.94499
	-102.4254	45.94504
	-102.4439	45.94508
	-102.4444	45.94508
	-102.4454	45.94684
	-102.4455	45.94687
	-102.4456	45.94688
	-102.4457	45.94691
	-102.4459	45.94696
	-102.446	45.94697
	-102.446	45.94697
	-102.4462	45.94699
	-102.4463	45.947
	-102.4465	45.947
	-102.4467	45.94701
	-102.4467	45.94701
	-102.4473	45.94703
	-102.4473	45.94703
	-102.4474	45.94703
	-102.448	45.94704
	-102.448	45.94704
	-102.4486	45.94706
	-102.4487	45.94706
	-102.4488	45.94706
	-102.4492	45.94707
	-102.4493	45.94707
	-102.4497	45.94707
	-102.4498	45.94707
	-102.4503	45.94706
	-102.4509	45.94705
	-102.4511	45.94705
	-102.4517	45.94704
	-102.4523	45.94704
	-102.4525	45.94704
	-102.4526	45.94704
	-102.4532	45.94702
	-102.4532	45.94702
	-102.4532	45.94702
	-102.4532	45.94702
	-102.4536	45.94703
	-102.4536	45.94703
	-102.4539	45.94703
	-102.4539	45.94703
	-102.454	45.94704
	-102.454	45.94706
	-102.4541	45.94709
	-102.4541	45.94707
	-102.454	45.94703
	-102.454	45.94686
	-102.4541	45.94683
	-102.4558	45.94786
	-102.4566	45.94704
	-102.4567	45.94705
	-102.4567	45.94705
	-102.4567	45.94705
	-102.4567	45.94705
	-102.4587	45.94704
	-102.4587	45.94704
	-102.4596	45.94704
	-102.4596	45.94704
	-102.4596	45.94704
	-102.4597	45.94703
	-102.4597	45.94703
	-102.4598	45.94703
	-102.4598	45.94703
	-102.46	45.94702
	-102.4601	45.94701
	-102.4604	45.94698
	-102.4606	45.94696
	-102.4607	45.94693
	-102.4608	45.94691
	-102.4608	45.94691
	-102.4609	45.94688
	-102.461	45.94687
	-102.4623	45.94653
	-102.4625	45.94648
	-102.4633	45.94622
	-102.4633	45.94622
	-102.4634	45.94617
	-102.4641	45.94643
	-102.4643	45.94651
	-102.4648	45.94663
	-102.465	45.94665
	-102.4654	45.94674
	-102.4658	45.94681
	-102.4659	45.94682
	-102.4664	45.9469
	-102.4665	45.94691
	-102.467	45.94698
	-102.4672	45.94699
	-102.4678	45.94702
	-102.4679	45.94702
	-102.469	45.94701
	-102.4701	45.94701
	-102.4701	45.94701
	-102.472	45.947
	-102.4735	45.947
	-102.4736	45.947
	-102.475	45.94699
	-102.475	45.94699
	-102.4762	45.94698
	-102.4779	45.94518
	-102.5432	45.94503
	-102.5509	45.94501
	-102.556	45.94509
	-102.5567	45.94678
	-102.557	45.94692
	-102.5574	45.94705
	-102.5576	45.94709
	-102.5576	45.94704
	-102.5584	45.94678
	-102.5584	45.94702
	-102.5584	45.94702
	-102.5584	45.94703
	-102.5585	45.94703
	-102.5586	45.94703
	-102.5587	45.94704
	-102.5592	45.94703
	-102.5595	45.94701
	-102.5598	45.94697
	-102.56	45.94692
	-102.5601	45.9469
	-102.5612	45.94514
	-102.5694	45.94516
	-102.6426	45.9454
	-102.651	45.94545
	-102.651	45.94545
	-102.6516	45.94545
	-102.6526	45.94544
	-102.6667	45.94531
	-102.6725	45.94524
	-102.6741	45.94527
	-102.6907	45.94516
	-102.6938	45.94514
	-102.695	45.94514
	-102.695	45.94514
	-102.7049	45.94507
	-102.8179	45.94509
	-102.8803	45.94507
	-102.9205	45.94504
	-102.9314	45.94507
	-102.942	45.94509
	-102.9425	45.94509
	-102.9899	45.94521
	-102.9923	45.94519
	-102.9923	45.94519
	-102.9953	45.94517
	-102.9956	45.94517
	-103.0261	45.94531
	-103.0446	45.94533
	-103.0478	45.94534
	-103.0524	45.94533
	-103.0524	45.94533
	-103.0641	45.94531
	-103.0785	45.94529
	-103.0979	45.94526
	-103.1409	45.94526
	-103.1613	45.94531
	-103.2013	45.94524
	-103.2013	45.94524
	-103.2106	45.94522
	-103.2184	45.94521
	-103.2588	45.94517
	-103.2841	45.94515
	-103.2841	45.94515
	-103.3071	45.94515
	-103.3691	45.94515
	-103.4094	45.94526
	-103.4094	45.94526
	-103.4092	45.94464
	-103.4093	45.9446
	-103.4097	45.94407
	-103.4098	45.94394
	-103.41	45.94374
	-103.4102	45.94366
	-103.4104	45.94351
	-103.4105	45.94346
	-103.4107	45.94339
	-103.4108	45.94334
	-103.4112	45.94325
	-103.4113	45.94323
	-103.4114	45.94322
	-103.4117	45.94319
	-103.4119	45.94318
	-103.4174	45.9432
	-103.4175	45.9432
	-103.4175	45.9432
	-103.4177	45.94315
	-103.4182	45.9431
	-103.4185	45.94312
	-103.4202	45.94311
	-103.4202	45.94311
	-103.4218	45.94311
	-103.4229	45.9431
	-103.423	45.9431
	-103.4233	45.94311
	-103.4241	45.9431
	-103.4241	45.9431
	-103.4262	45.94311
	-103.4269	45.9431
	-103.4269	45.9431
	-103.4274	45.94311
	-103.43	45.94311
	-103.43	45.94311
	-103.4313	45.94311
	-103.4314	45.94312
	-103.4316	45.94313
	-103.4324	45.94335
	-103.4325	45.94338
	-103.4329	45.94369
	-103.433	45.94375
	-103.4335	45.9446
	-103.4335	45.94469
	-103.4332	45.94531
	-103.4349	45.94529
	-103.5587	45.94513
	-103.5771	45.94528
	-103.6489	45.94524
	-103.6489	45.94524
	-103.6608	45.94523
	-103.6608	45.94524
	-103.6608	45.94524
	-103.6685	45.94524
	-103.6778	45.94524
	-103.7193	45.94525
	-103.7206	45.94709
	-103.7211	45.94717
	-103.7214	45.94723
	-103.7216	45.94725
	-103.7217	45.94727
	-103.7219	45.94728
	-103.722	45.94728
	-103.7222	45.94727
	-103.7223	45.94727
	-103.7224	45.94726
	-103.7226	45.94723
	-103.7227	45.94723
	-103.7232	45.9472
	-103.7267	45.9472
	-103.7267	45.9472
	-103.7291	45.94719
	-103.7321	45.94721
	-103.7322	45.94722
	-103.7324	45.94724
	-103.7325	45.94726
	-103.7326	45.94727
	-103.7328	45.94727
	-103.7329	45.94727
	-103.7334	45.94722
	-103.7334	45.94721
	-103.7335	45.9472
	-103.7359	45.94719
	-103.7359	45.94719
	-103.7373	45.94718
	-103.7375	45.94719
	-103.7375	45.94718
	-103.7377	45.94721
	-103.7394	45.94719
	-103.7414	45.94721
	-103.7414	45.94721
	-103.7428	45.94721
	-103.7437	45.94721
	-103.7442	45.94714
	-103.7445	45.94705
	-103.7459	45.94526
	-103.7537	45.94526
	-103.7537	45.94526
	-103.7992	45.94527
	-103.8885	45.94528
	-103.9239	45.94529
	-104.0454	45.94531
	-104.0468	46.0002
	-104.0463	46.06004
	-104.046	46.09632
	-104.0474	46.09634
	-104.0476	46.09651
	-104.048	46.09724
	-104.0483	46.09818
	-104.0485	46.09896
	-104.0484	46.10006
	-104.048	46.10112
	-104.0476	46.10174
	-104.0459	46.10198
	-104.0458	46.11911
	-104.0458	46.12395
	-104.0456	46.12434
	-104.0456	46.12434
	-104.0452	46.125
	-104.0452	46.12561
	-104.0452	46.12561
	-104.0453	46.2059
	-104.0453	46.21819
	-104.0454	46.28019
	-104.0454	46.28033
	-104.0454	46.28033
	-104.0454	46.28055
	-104.0455	46.32455
	-104.0455	46.3419
	-104.0455	46.35703
	-104.0455	46.36687
	-104.0461	46.38392
	-104.0457	46.43184
	-104.0453	46.47898
	-104.045	46.50979
	-104.0451	46.52818
	-104.0451	46.52818
	-104.0451	46.54093
	-104.0451	46.5415
	-104.0451	46.55627
	-104.0451	46.5563
	-104.0451	46.55675
	-104.0451	46.55675
	-104.0453	46.62943
	-104.0453	46.6352
	-104.0453	46.64025
	-104.0453	46.64145
	-104.0454	46.68512
	-104.0454	46.68512
	-104.0455	46.70874
	-104.0456	46.71388
	-104.0454	46.72133
	-104.0454	46.72218
	-104.0454	46.72542
	-104.0458	46.80306
	-104.0459	46.83079
	-104.0456	46.90494
	-104.0456	46.91309
	-104.0456	46.91309
	-104.0456	46.91882
	-104.0455	46.93389
	-104.0455	46.93401
	-104.0456	46.94123
	-104.0454	46.97984
	-104.0452	47.00719
	-104.0452	47.00719
	-104.0451	47.03759
	-104.0451	47.04086
	-104.0452	47.05364
	-104.0452	47.0575
	-104.0453	47.0639
	-104.0453	47.06563
	-104.0453	47.06563
	-104.0453	47.06664
	-104.0454	47.07857
	-104.045	47.0812
	-104.0451	47.09281
	-104.0449	47.11675
	-104.0449	47.11675
	-104.0448	47.12743
	-104.045	47.15081
	-104.045	47.1538
	-104.0453	47.18682
	-104.0448	47.18654
	-104.0447	47.18656
	-104.0447	47.18657
	-104.0446	47.18658
	-104.0445	47.18661
	-104.0433	47.18732
	-104.0432	47.18745
	-104.0428	47.18879
	-104.0428	47.18888
	-104.0428	47.19185
	-104.0428	47.19193
	-104.043	47.19301
	-104.043	47.19311
	-104.0433	47.1935
	-104.0434	47.19358
	-104.0444	47.19424
	-104.0445	47.19427
	-104.0453	47.19432
	-104.0453	47.19431
	-104.0455	47.21
	-104.0455	47.21
	-104.0455	47.21567
	-104.0452	47.25464
	-104.0449	47.25441
	-104.0432	47.25668
	-104.0436	47.25921
	-104.0436	47.26083
	-104.0437	47.26143
	-104.0437	47.26151
	-104.0437	47.26201
	-104.0432	47.2629
	-104.043	47.26349
	-104.043	47.26359
	-104.043	47.26377
	-104.0429	47.26403
	-104.0429	47.26418
	-104.0429	47.26528
	-104.0429	47.26552
	-104.0431	47.2664
	-104.0434	47.267
	-104.0435	47.26727
	-104.0439	47.2679
	-104.045	47.26872
	-104.0451	47.26873
	-104.0451	47.27141
	-104.0452	47.27393
	-104.0451	47.2751
	-104.0451	47.27697
	-104.0453	47.32827
	-104.0453	47.32836
	-104.0448	47.32873
	-104.0446	47.32993
	-104.0442	47.33006
	-104.0441	47.33008
	-104.0437	47.33041
	-104.0436	47.33045
	-104.043	47.33147
	-104.043	47.33151
	-104.0429	47.33194
	-104.0429	47.33201
	-104.043	47.33233
	-104.043	47.3324
	-104.043	47.3324
	-104.043	47.33262
	-104.043	47.33275
	-104.043	47.33276
	-104.043	47.33289
	-104.043	47.33314
	-104.043	47.33328
	-104.0431	47.33359
	-104.0431	47.33366
	-104.043	47.33409
	-104.0431	47.33423
	-104.0431	47.33453
	-104.0431	47.33498
	-104.0431	47.33529
	-104.0431	47.33558
	-104.0431	47.336
	-104.0431	47.33651
	-104.0431	47.33657
	-104.0431	47.33691
	-104.0431	47.33697
	-104.0431	47.33731
	-104.0431	47.33759
	-104.0431	47.33793
	-104.0431	47.33818
	-104.0431	47.33838
	-104.0431	47.33855
	-104.0431	47.33879
	-104.043	47.33888
	-104.043	47.33919
	-104.0431	47.33957
	-104.0431	47.3398
	-104.0431	47.34046
	-104.0431	47.34047
	-104.0431	47.34089
	-104.0431	47.34106
	-104.0432	47.34158
	-104.0432	47.34218
	-104.0432	47.34254
	-104.0432	47.34286
	-104.0431	47.34322
	-104.0432	47.34377
	-104.0433	47.34406
	-104.0436	47.3448
	-104.0437	47.34496
	-104.0453	47.34518
	-104.0449	47.37501
	-104.0451	47.39746
	-104.045	47.39988
	-104.0448	47.43845
	-104.0446	47.45938
	-104.0441	47.5236
	-104.0439	47.60323
	-104.0442	47.61229
	-104.0437	47.62502
	-104.0432	47.74711
	-104.0432	47.74725
	-104.0432	47.74729
	-104.0431	47.75666
	-104.0431	47.75666
	-104.0424	47.80326
	-104.0424	47.80536
	-104.0425	47.80579
	-104.0425	47.8068
	-104.0426	47.80824
	-104.0419	47.8417
	-104.0418	47.84421
	-104.0418	47.84421
	-104.042	47.8442
	-104.044	47.84554
	-104.044	47.84564
	-104.0438	47.84735
	-104.0438	47.84743
	-104.0428	47.84824
	-104.0427	47.84827
	-104.042	47.8484
	-104.0418	47.8484
	-104.0417	47.86228
	-104.0422	47.89103
	-104.0433	47.94955
	-104.0435	47.95449
	-104.0439	47.96969
	-104.0439	47.96969
	-104.0439	47.97151
	-104.044	47.97742
	-104.0442	47.99284
	-104.0441	47.99611
	-104.0184	47.98848
	-104.0138	47.97734
	-104.0099	47.96751
	-103.9972	47.96664
	-103.988	47.9745
	-103.9808	47.98586
	-103.9626	47.98542
	-103.945	47.97669
	-103.9244	47.95725
	-103.9097	47.95768
	-103.8794	47.96467
	-103.8628	47.97952
	-103.8474	47.98455
	-103.8256	47.97931
	-103.8112	47.98476
	-103.7965	48.00114
	-103.7903	48.0186
	-103.7985	48.04237
	-103.7473	48.04237
	-103.7051	48.04254
	-103.7048	48.0422
	-103.7046	48.04182
	-103.7046	48.04179
	-103.704	48.04084
	-103.7039	48.04075
	-103.7037	48.04046
	-103.7034	48.04012
	-103.7033	48.03997
	-103.7028	48.03968
	-103.7027	48.03963
	-103.7022	48.03945
	-103.702	48.0394
	-103.7016	48.03937
	-103.7014	48.03936
	-103.7009	48.03942
	-103.7008	48.03945
	-103.7006	48.0395
	-103.7005	48.03953
	-103.7002	48.03969
	-103.7	48.03976
	-103.6995	48.04024
	-103.6993	48.04046
	-103.6991	48.04064
	-103.6987	48.04095
	-103.6987	48.04098
	-103.6985	48.04111
	-103.6984	48.04122
	-103.6982	48.04134
	-103.6978	48.04201
	-103.6977	48.04214
	-103.6976	48.04258
	-103.5858	48.04303
	-103.5309	48.01447
	-103.4611	48.01469
	-103.3522	48.03847
	-103.252	48.05438
	-103.2223	48.1093
	-103.1587	48.1387
	-102.9741	48.13674
	-102.8123	48.13434
	-102.6427	48.04239
	-102.5572	47.99744
	-102.5677	47.96709
	-102.6339	47.9317
	-102.6538	47.85055
	-102.6352	47.82033
	-102.5487	47.78199
	-102.4062	47.75699
	-102.3324	47.79783
	-102.2508	47.71006
	-102.2628	47.61374
	-102.0367	47.54839
	-101.8882	47.51351
	-101.7046	47.52909
	-101.5348	47.55524
	-101.318	47.59072
	-101.2082	47.61188
	-101.1815	47.64047
	-100.9297	47.62992
	-100.6909	47.5943
	-100.6283	47.545
	-100.6224	47.36987
	-100.5799	47.29719
	-100.2107	47.26311
	-99.92295	47.2259
	-99.57848	47.19222
	-99.33187	47.10126
	-99.02094	47.04106
	-99.01703	46.74011
	-99.00593	46.42264
	-99.0105	46.28575
	-99.00564	45.93994
END
END
