US_Oklahoma_East
1
	-94.43349	35.38849
	-94.43391	35.38739
	-94.43268	35.38081
	-94.43341	35.37629
	-94.43151	35.36959
	-94.43201	35.36739
	-94.43181	35.36289
	-94.43411	35.30649
	-94.43517	35.29149
	-94.43528	35.28748
	-94.43534	35.28065
	-94.4353	35.28029
	-94.43532	35.27589
	-94.43571	35.27427
	-94.43659	35.25009
	-94.43758	35.2422
	-94.43777	35.23927
	-94.43758	35.23094
	-94.43818	35.21292
	-94.43978	35.2115
	-94.43995	35.21156
	-94.44003	35.21132
	-94.44014	35.21071
	-94.44016	35.20973
	-94.44106	35.20927
	-94.44124	35.20917
	-94.44171	35.20887
	-94.44256	35.20766
	-94.44263	35.20739
	-94.44262	35.20645
	-94.4426	35.20636
	-94.44269	35.20566
	-94.44219	35.2035
	-94.44206	35.20313
	-94.44158	35.20202
	-94.44131	35.20155
	-94.44112	35.20131
	-94.4409	35.20107
	-94.44069	35.20087
	-94.44044	35.20059
	-94.44017	35.20033
	-94.43999	35.19989
	-94.43996	35.19972
	-94.43996	35.19959
	-94.44023	35.19928
	-94.43992	35.19647
	-94.43908	35.19656
	-94.43906	35.19359
	-94.43886	35.18718
	-94.43951	35.17181
	-94.43955	35.16904
	-94.44068	35.13143
	-94.44101	35.13099
	-94.44223	35.12964
	-94.44249	35.12928
	-94.44262	35.12904
	-94.44288	35.12815
	-94.44315	35.12243
	-94.4431	35.1204
	-94.44271	35.11735
	-94.44256	35.11542
	-94.44243	35.11449
	-94.44192	35.11242
	-94.44153	35.11132
	-94.44801	34.93069
	-94.44821	34.93039
	-94.44832	34.93017
	-94.44856	34.92979
	-94.44867	34.92958
	-94.44888	34.92861
	-94.44905	34.92832
	-94.44925	34.92782
	-94.44975	34.92774
	-94.44986	34.92771
	-94.45124	34.92563
	-94.45123	34.92555
	-94.44992	34.92384
	-94.44959	34.92372
	-94.44871	34.92345
	-94.44827	34.92329
	-94.44917	34.89823
	-94.44949	34.89817
	-94.45003	34.89789
	-94.4501	34.89784
	-94.45069	34.89716
	-94.45088	34.89667
	-94.45093	34.89648
	-94.45109	34.89608
	-94.45118	34.89566
	-94.45121	34.89542
	-94.45101	34.89451
	-94.45101	34.89441
	-94.45099	34.89438
	-94.45095	34.8942
	-94.45074	34.89388
	-94.45066	34.89377
	-94.45051	34.89389
	-94.44907	34.8924
	-94.44906	34.89056
	-94.44955	34.87728
	-94.4496	34.87733
	-94.45166	34.8754
	-94.4518	34.87081
	-94.45182	34.86986
	-94.4518	34.86982
	-94.45186	34.8673
	-94.45197	34.86583
	-94.45197	34.86552
	-94.45191	34.86482
	-94.45192	34.86303
	-94.45204	34.86042
	-94.45166	34.8604
	-94.45094	34.85842
	-94.45014	34.85871
	-94.45017	34.8575
	-94.45023	34.85541
	-94.45577	34.69418
	-94.45744	34.64486
	-94.45854	34.64464
	-94.45871	34.64483
	-94.45892	34.64465
	-94.45946	34.64397
	-94.45949	34.64389
	-94.45968	34.64282
	-94.45958	34.64225
	-94.45945	34.64188
	-94.4593	34.64153
	-94.45929	34.6413
	-94.45923	34.64087
	-94.45935	34.63738
	-94.45945	34.63626
	-94.45953	34.63501
	-94.4594	34.63432
	-94.45937	34.63423
	-94.45916	34.63382
	-94.45851	34.63316
	-94.45843	34.63311
	-94.45788	34.63287
	-94.45756	34.6328
	-94.46005	34.54787
	-94.46006	34.54526
	-94.46272	34.45259
	-94.46371	34.41808
	-94.46418	34.40271
	-94.46542	34.35955
	-94.46585	34.35207
	-94.47029	34.18974
	-94.4749	34.02188
	-94.47489	34.01966
	-94.47651	33.97086
	-94.47605	33.97068
	-94.47566	33.97048
	-94.47459	33.96864
	-94.4746	33.96851
	-94.47458	33.96766
	-94.47453	33.96705
	-94.47464	33.96624
	-94.47467	33.96614
	-94.47536	33.9652
	-94.4755	33.96509
	-94.47549	33.96502
	-94.4755	33.96475
	-94.47532	33.96439
	-94.47514	33.96387
	-94.47506	33.9635
	-94.47503	33.96321
	-94.47495	33.96162
	-94.47501	33.96103
	-94.47509	33.9607
	-94.47562	33.95978
	-94.47585	33.95955
	-94.47597	33.95889
	-94.47599	33.95884
	-94.47523	33.95657
	-94.47699	33.95598
	-94.47738	33.93788
	-94.47884	33.88148
	-94.47899	33.8812
	-94.47989	33.85331
	-94.48	33.85341
	-94.48193	33.85134
	-94.4819	33.85043
	-94.4819	33.8498
	-94.48195	33.84896
	-94.48212	33.84491
	-94.48219	33.84371
	-94.48224	33.84254
	-94.48227	33.8413
	-94.4823	33.83921
	-94.48235	33.83772
	-94.48231	33.83631
	-94.4823	33.83484
	-94.48244	33.8327
	-94.48245	33.8319
	-94.48259	33.83029
	-94.4826	33.82861
	-94.48265	33.82657
	-94.48265	33.82454
	-94.4827	33.82321
	-94.48269	33.82255
	-94.48272	33.82148
	-94.48273	33.82118
	-94.48278	33.82065
	-94.48292	33.81981
	-94.483	33.81912
	-94.48301	33.81886
	-94.48298	33.81595
	-94.48313	33.81371
	-94.48312	33.81253
	-94.48316	33.80814
	-94.48327	33.8064
	-94.48327	33.8048
	-94.4833	33.80308
	-94.4814	33.80112
	-94.48154	33.79572
	-94.48184	33.78901
	-94.48268	33.75629
	-94.48278	33.75364
	-94.48287	33.75067
	-94.48387	33.71673
	-94.48384	33.71133
	-94.48462	33.69159
	-94.48452	33.68791
	-94.48553	33.66339
	-94.48558	33.65331
	-94.48585	33.63802
	-94.48749	33.63785
	-94.49444	33.63613
	-94.49779	33.63585
	-94.50071	33.63792
	-94.50517	33.64092
	-94.51049	33.64314
	-94.51513	33.64435
	-94.5207	33.64464
	-94.52568	33.64314
	-94.53049	33.64092
	-94.53435	33.63921
	-94.54182	33.63713
	-94.54791	33.63606
	-94.55238	33.63485
	-94.55426	33.63213
	-94.55384	33.6297
	-94.55246	33.6272
	-94.55203	33.62513
	-94.55289	33.6222
	-94.55495	33.62048
	-94.5583	33.6192
	-94.56147	33.61977
	-94.56671	33.62284
	-94.57074	33.62656
	-94.57368	33.62942
	-94.57212	33.63342
	-94.56913	33.63585
	-94.5651	33.63936
	-94.56027	33.64228
	-94.55186	33.64142
	-94.54697	33.64121
	-94.54319	33.64328
	-94.54002	33.64849
	-94.54019	33.65371
	-94.54251	33.65728
	-94.54645	33.66107
	-94.54937	33.662
	-94.55349	33.66221
	-94.55821	33.66121
	-94.56336	33.65864
	-94.56783	33.65435
	-94.57409	33.64607
	-94.57761	33.64206
	-94.58053	33.63942
	-94.58353	33.63885
	-94.588	33.64021
	-94.59074	33.64199
	-94.59332	33.64421
	-94.59624	33.64657
	-94.59598	33.64928
	-94.59409	33.65221
	-94.59031	33.65493
	-94.57589	33.65971
	-94.57272	33.66128
	-94.57083	33.664
	-94.57023	33.66721
	-94.57049	33.6715
	-94.57195	33.67536
	-94.57392	33.67943
	-94.57521	33.6815
	-94.57804	33.68214
	-94.58087	33.68171
	-94.58396	33.67986
	-94.58508	33.67693
	-94.58714	33.67214
	-94.58937	33.66757
	-94.5916	33.6645
	-94.59418	33.663
	-94.5989	33.66214
	-94.6043	33.66236
	-94.60783	33.66422
	-94.60902	33.66614
	-94.60817	33.66971
	-94.60559	33.67521
	-94.60516	33.679
	-94.60611	33.68193
	-94.60834	33.68393
	-94.61821	33.68907
	-94.62035	33.68943
	-94.62267	33.68707
	-94.62327	33.685
	-94.62499	33.67786
	-94.62645	33.67457
	-94.63048	33.66886
	-94.63692	33.66536
	-94.64241	33.66307
	-94.64654	33.66301
	-94.64833	33.66478
	-94.64808	33.66743
	-94.64576	33.67107
	-94.64319	33.67657
	-94.64344	33.68286
	-94.64516	33.68621
	-94.64919	33.6895
	-94.65623	33.69121
	-94.66301	33.69278
	-94.6685	33.69278
	-94.67271	33.69207
	-94.67949	33.68978
	-94.68833	33.68821
	-94.69692	33.68607
	-94.70267	33.685
	-94.70893	33.68493
	-94.71357	33.68764
	-94.71803	33.69128
	-94.72284	33.69678
	-94.72833	33.70771
	-94.7315	33.7147
	-94.73185	33.71899
	-94.72987	33.72548
	-94.7297	33.72927
	-94.73116	33.73305
	-94.73374	33.73619
	-94.73786	33.7379
	-94.74426	33.73819
	-94.746	33.738
	-94.75142	33.73726
	-94.75485	33.73583
	-94.75888	33.73226
	-94.76215	33.72534
	-94.76524	33.7217
	-94.77056	33.72013
	-94.77622	33.72091
	-94.7806	33.7242
	-94.7824	33.72834
	-94.78137	33.73298
	-94.78026	33.73883
	-94.77966	33.74311
	-94.78034	33.74547
	-94.78283	33.74847
	-94.78747	33.74947
	-94.79296	33.75075
	-94.7988	33.75196
	-94.80326	33.75182
	-94.80849	33.75025
	-94.81416	33.74861
	-94.81948	33.74568
	-94.82532	33.74297
	-94.83167	33.74169
	-94.84042	33.74047
	-94.85158	33.74076
	-94.86145	33.74297
	-94.86609	33.74547
	-94.86703	33.7474
	-94.86643	33.75047
	-94.86489	33.75525
	-94.8642	33.75917
	-94.86437	33.76281
	-94.86574	33.76588
	-94.86806	33.76823
	-94.86969	33.76937
	-94.87407	33.77066
	-94.87776	33.77102
	-94.88128	33.7708
	-94.8866	33.76952
	-94.89218	33.76845
	-94.89501	33.76845
	-94.89887	33.77002
	-94.90119	33.7718
	-94.90265	33.77508
	-94.90351	33.78072
	-94.90497	33.78536
	-94.90634	33.79377
	-94.90557	33.79705
	-94.90368	33.80176
	-94.90231	33.80354
	-94.90239	33.80576
	-94.9036	33.80768
	-94.9066	33.81039
	-94.91012	33.8121
	-94.91295	33.81267
	-94.91484	33.81253
	-94.91724	33.81103
	-94.91853	33.80725
	-94.92033	33.80433
	-94.92222	33.80276
	-94.92445	33.8019
	-94.9272	33.8024
	-94.92857	33.8034
	-94.92883	33.8049
	-94.92831	33.80618
	-94.92703	33.80811
	-94.92445	33.81146
	-94.92325	33.8146
	-94.92377	33.81667
	-94.92617	33.81831
	-94.92857	33.81866
	-94.93286	33.81873
	-94.93853	33.81695
	-94.94196	33.81681
	-94.94565	33.81816
	-94.95046	33.81895
	-94.95389	33.82023
	-94.95672	33.82273
	-94.95655	33.82437
	-94.95527	33.82672
	-94.95123	33.83285
	-94.94857	33.8367
	-94.94694	33.84169
	-94.9472	33.84519
	-94.94857	33.84925
	-94.95226	33.85452
	-94.95621	33.85823
	-94.95964	33.85909
	-94.9623	33.85795
	-94.96908	33.85374
	-94.97346	33.85153
	-94.97689	33.85046
	-94.97878	33.85231
	-94.98033	33.85595
	-94.98084	33.85816
	-94.98144	33.86122
	-94.98307	33.86571
	-94.98651	33.86792
	-94.99295	33.86899
	-94.99681	33.86842
	-95.00033	33.86607
	-95.00522	33.86101
	-95.01174	33.8583
	-95.01612	33.85823
	-95.02033	33.8588
	-95.02874	33.86179
	-95.03268	33.86493
	-95.03586	33.86814
	-95.03826	33.86921
	-95.04247	33.86885
	-95.04937	33.8683
	-95.05217	33.86942
	-95.05434	33.87157
	-95.05388	33.87754
	-95.05381	33.88282
	-95.05406	33.88873
	-95.05749	33.89571
	-95.05869	33.89757
	-95.06135	33.90184
	-95.06685	33.9059
	-95.06908	33.90996
	-95.07028	33.91302
	-95.07294	33.91687
	-95.07526	33.91879
	-95.07775	33.91872
	-95.08161	33.9163
	-95.08521	33.91431
	-95.09362	33.90982
	-95.09938	33.90797
	-95.10281	33.90797
	-95.1071	33.90861
	-95.1095	33.91146
	-95.11148	33.91751
	-95.11319	33.92342
	-95.11525	33.92741
	-95.11791	33.93083
	-95.12178	33.93446
	-95.12504	33.9371
	-95.12796	33.93788
	-95.13053	33.93752
	-95.13637	33.9356
	-95.1404	33.93489
	-95.14461	33.93489
	-95.14778	33.93553
	-95.15446	33.93803
	-95.15808	33.9393
	-95.16435	33.94329
	-95.16976	33.94621
	-95.17757	33.94913
	-95.18855	33.95134
	-95.19688	33.9549
	-95.20108	33.95717
	-95.20503	33.95917
	-95.21063	33.96161
	-95.21507	33.96273
	-95.21971	33.96323
	-95.22357	33.96323
	-95.22761	33.96209
	-95.22924	33.95817
	-95.22967	33.95525
	-95.23087	33.95219
	-95.23327	33.95112
	-95.23688	33.94998
	-95.24297	33.94714
	-95.24863	33.94258
	-95.25121	33.93823
	-95.2519	33.93382
	-95.25121	33.92962
	-95.24984	33.92321
	-95.24863	33.9163
	-95.24863	33.91188
	-95.25027	33.90569
	-95.25224	33.90027
	-95.25481	33.89486
	-95.25705	33.8913
	-95.26177	33.88802
	-95.26359	33.88868
	-95.26443	33.89073
	-95.264	33.89464
	-95.26271	33.90084
	-95.26262	33.90312
	-95.26357	33.90654
	-95.26632	33.90982
	-95.26923	33.91082
	-95.27284	33.91139
	-95.27962	33.91096
	-95.28271	33.91039
	-95.2852	33.90839
	-95.28503	33.90547
	-95.28228	33.90106
	-95.27988	33.89742
	-95.27859	33.89336
	-95.27842	33.8878
	-95.27936	33.88552
	-95.27825	33.88025
	-95.2785	33.87733
	-95.28134	33.87548
	-95.28992	33.8737
	-95.29292	33.87405
	-95.29876	33.87434
	-95.30477	33.87427
	-95.30683	33.87505
	-95.31018	33.87761
	-95.31404	33.8841
	-95.31584	33.88745
	-95.31807	33.88902
	-95.32202	33.89023
	-95.3258	33.89087
	-95.32794	33.89008
	-95.32949	33.88809
	-95.33172	33.88253
	-95.3355	33.87861
	-95.33816	33.87647
	-95.34665	33.87526
	-95.35569	33.87377
	-95.35687	33.87298
	-95.3579	33.86956
	-95.36099	33.86757
	-95.36365	33.867
	-95.36906	33.86842
	-95.37524	33.87077
	-95.38004	33.87106
	-95.38579	33.86899
	-95.39309	33.86464
	-95.39875	33.86293
	-95.40382	33.86293
	-95.40871	33.86529
	-95.41334	33.86892
	-95.41772	33.87184
	-95.42287	33.87256
	-95.42502	33.87099
	-95.42965	33.86685
	-95.43403	33.8655
	-95.43823	33.86529
	-95.44304	33.8665
	-95.44836	33.86935
	-95.44974	33.8717
	-95.45051	33.87412
	-95.45154	33.87818
	-95.45351	33.88218
	-95.45686	33.88588
	-95.46004	33.88788
	-95.46416	33.88852
	-95.46879	33.88738
	-95.47514	33.88296
	-95.48003	33.8794
	-95.49351	33.87562
	-95.49892	33.87562
	-95.50407	33.87626
	-95.50518	33.8769
	-95.50527	33.87883
	-95.50467	33.88196
	-95.50501	33.88446
	-95.50398	33.89073
	-95.50415	33.89472
	-95.50518	33.89664
	-95.50879	33.89863
	-95.51213	33.89835
	-95.51557	33.8965
	-95.51995	33.89122
	-95.52398	33.88709
	-95.52827	33.88424
	-95.53325	33.88161
	-95.53909	33.88039
	-95.54355	33.88061
	-95.54621	33.88189
	-95.54939	33.88517
	-95.55127	33.89023
	-95.55102	33.89358
	-95.54904	33.89757
	-95.54793	33.90248
	-95.54818	33.90711
	-95.5499	33.91274
	-95.55059	33.91651
	-95.55102	33.921
	-95.55241	33.92516
	-95.55448	33.92816
	-95.5566	33.93005
	-95.56114	33.93254
	-95.56655	33.93382
	-95.57179	33.93375
	-95.57702	33.93275
	-95.57934	33.93282
	-95.58535	33.93852
	-95.58947	33.94258
	-95.59299	33.94358
	-95.59505	33.94315
	-95.59651	33.93987
	-95.59625	33.93702
	-95.59788	33.93325
	-95.60123	33.93232
	-95.60432	33.93254
	-95.60887	33.93118
	-95.61453	33.9267
	-95.62071	33.92186
	-95.6232	33.91658
	-95.62474	33.91252
	-95.62792	33.9074
	-95.63032	33.90562
	-95.63419	33.90469
	-95.63813	33.90469
	-95.6456	33.9074
	-95.65058	33.90925
	-95.65521	33.91082
	-95.66217	33.9101
	-95.66766	33.90775
	-95.67418	33.90163
	-95.67839	33.89664
	-95.68388	33.89222
	-95.69058	33.8888
	-95.69607	33.88688
	-95.70242	33.8856
	-95.71066	33.88517
	-95.71452	33.88631
	-95.71976	33.89058
	-95.72311	33.89336
	-95.72954	33.89586
	-95.73572	33.89678
	-95.74242	33.89692
	-95.74791	33.89685
	-95.75143	33.8955
	-95.75564	33.89244
	-95.75924	33.8878
	-95.76267	33.88121
	-95.76323	33.87872
	-95.76306	33.87459
	-95.76264	33.87363
	-95.76216	33.87245
	-95.75911	33.86978
	-95.75413	33.86489
	-95.75199	33.86162
	-95.75147	33.85876
	-95.75233	33.85559
	-95.75551	33.85199
	-95.76143	33.84832
	-95.76452	33.84704
	-95.76769	33.84704
	-95.77168	33.84822
	-95.77508	33.84943
	-95.77735	33.85107
	-95.77967	33.85402
	-95.78186	33.85577
	-95.78666	33.85777
	-95.79211	33.85976
	-95.79752	33.8614
	-95.80048	33.86222
	-95.80675	33.8614
	-95.81396	33.86037
	-95.81971	33.85948
	-95.82172	33.85809
	-95.82232	33.85524
	-95.82172	33.85146
	-95.81971	33.84786
	-95.81898	33.84262
	-95.81975	33.84148
	-95.82417	33.83759
	-95.82666	33.83652
	-95.83374	33.83592
	-95.83893	33.8367
	-95.84288	33.83888
	-95.84661	33.84251
	-95.84915	33.84511
	-95.85254	33.84832
	-95.85498	33.84978
	-95.85953	33.85096
	-95.86082	33.8526
	-95.86215	33.85392
	-95.86653	33.8557
	-95.87404	33.85884
	-95.88408	33.86379
	-95.89112	33.8671
	-95.89584	33.87113
	-95.90485	33.87494
	-95.91047	33.87744
	-95.91403	33.87947
	-95.91794	33.88264
	-95.92215	33.88478
	-95.92584	33.88599
	-95.92931	33.88613
	-95.9327	33.88417
	-95.93536	33.88161
	-95.93579	33.87847
	-95.93644	33.87473
	-95.93785	33.87081
	-95.94051	33.86614
	-95.94309	33.8624
	-95.94618	33.86101
	-95.9497	33.85969
	-95.95515	33.85951
	-95.95995	33.85873
	-95.96395	33.85787
	-95.96931	33.85677
	-95.97459	33.85581
	-95.97824	33.85531
	-95.98115	33.8547
	-95.98755	33.85214
	-95.99437	33.84975
	-95.99965	33.84797
	-96.00789	33.84586
	-96.01081	33.84494
	-96.01364	33.84351
	-96.0154	33.8438
	-96.01742	33.84469
	-96.01836	33.84625
	-96.01866	33.84925
	-96.01883	33.85385
	-96.0178	33.85656
	-96.01626	33.85791
	-96.0154	33.86023
	-96.01562	33.8619
	-96.01665	33.86311
	-96.01858	33.8644
	-96.0224	33.86529
	-96.0278	33.86493
	-96.03021	33.86276
	-96.03124	33.85802
	-96.03124	33.85463
	-96.03089	33.851
	-96.03111	33.84946
	-96.03205	33.84679
	-96.03566	33.84262
	-96.03879	33.84037
	-96.04046	33.84069
	-96.04274	33.84159
	-96.0472	33.84241
	-96.05102	33.84219
	-96.05514	33.84087
	-96.06003	33.83909
	-96.06304	33.83831
	-96.0669	33.83845
	-96.07025	33.83995
	-96.07312	33.84205
	-96.07531	33.84511
	-96.0769	33.84597
	-96.08132	33.84846
	-96.08368	33.85157
	-96.08488	33.85438
	-96.08707	33.85616
	-96.08969	33.85727
	-96.09231	33.85766
	-96.09479	33.85691
	-96.09548	33.85534
	-96.09612	33.85313
	-96.09389	33.8511
	-96.09188	33.84932
	-96.08973	33.84568
	-96.08806	33.84144
	-96.08836	33.83831
	-96.0902	33.83656
	-96.09325	33.83588
	-96.096	33.83702
	-96.09874	33.83852
	-96.10175	33.83941
	-96.10535	33.83955
	-96.10788	33.83891
	-96.11033	33.83635
	-96.11312	33.83271
	-96.11501	33.82975
	-96.11878	33.82761
	-96.12501	33.82583
	-96.12947	33.82586
	-96.13462	33.8254
	-96.13951	33.82405
	-96.14556	33.82119
	-96.15037	33.81948
	-96.15406	33.8162
	-96.15702	33.81428
	-96.16114	33.81242
	-96.16569	33.80907
	-96.16749	33.80494
	-96.16758	33.80001
	-96.16646	33.7968
	-96.16642	33.79235
	-96.16788	33.78735
	-96.16848	33.78182
	-96.16908	33.77576
	-96.17011	33.77127
	-96.17294	33.76634
	-96.17616	33.76306
	-96.18015	33.76042
	-96.18775	33.75696
	-96.19801	33.75332
	-96.20384	33.75275
	-96.21049	33.75264
	-96.21616	33.75211
	-96.22079	33.75218
	-96.22436	33.75061
	-96.22745	33.75068
	-96.23049	33.75157
	-96.23453	33.75407
	-96.23779	33.75685
	-96.24144	33.75831
	-96.24427	33.75853
	-96.24976	33.76013
	-96.25418	33.76231
	-96.25616	33.76413
	-96.26126	33.76706
	-96.26847	33.76913
	-96.27538	33.77062
	-96.28199	33.77119
	-96.28834	33.77159
	-96.29212	33.7708
	-96.29577	33.76795
	-96.29903	33.76342
	-96.30143	33.75639
	-96.30384	33.75114
	-96.30517	33.7474
	-96.30718	33.74479
	-96.31006	33.74172
	-96.31006	33.73755
	-96.30821	33.73373
	-96.30727	33.72805
	-96.30813	33.72241
	-96.30946	33.71706
	-96.31092	33.7101
	-96.31362	33.70528
	-96.31748	33.7011
	-96.32057	33.70007
	-96.32529	33.6995
	-96.331	33.69621
	-96.33551	33.69293
	-96.33911	33.68946
	-96.34289	33.68789
	-96.34739	33.68686
	-96.35323	33.688
	-96.35619	33.69003
	-96.35808	33.69143
	-96.3595	33.69675
	-96.35928	33.69996
	-96.35971	33.70396
	-96.36061	33.70728
	-96.36241	33.71195
	-96.36477	33.71577
	-96.36739	33.71788
	-96.37087	33.72063
	-96.37507	33.7242
	-96.37816	33.7273
	-96.38186	33.73023
	-96.39035	33.73605
	-96.40164	33.74615
	-96.40554	33.74957
	-96.40975	33.75361
	-96.41232	33.7576
	-96.41323	33.76049
	-96.4146	33.76502
	-96.41662	33.76923
	-96.41919	33.7733
	-96.42112	33.77565
	-96.42284	33.77715
	-96.427	33.77844
	-96.43013	33.7799
	-96.4355	33.78086
	-96.44013	33.78136
	-96.44623	33.78182
	-96.45528	33.78175
	-96.46052	33.78193
	-96.46541	33.78147
	-96.47189	33.77943
	-96.47768	33.77694
	-96.48623	33.77408
	-96.49185	33.77344
	-96.4976	33.77341
	-96.50155	33.77448
	-96.50476	33.77662
	-96.50828	33.7794
	-96.51146	33.78314
	-96.5124	33.78536
	-96.51343	33.78907
	-96.51386	33.79235
	-96.51421	33.7952
	-96.51476	33.79944
	-96.51541	33.8024
	-96.51648	33.80615
	-96.51781	33.80871
	-96.51953	33.81278
	-96.52146	33.81563
	-96.52287	33.81795
	-96.52403	33.82037
	-96.52824	33.82241
	-96.53081	33.82355
	-96.533	33.82365
	-96.53717	33.82291
	-96.54429	33.82148
	-96.55159	33.82037
	-96.55601	33.82034
	-96.55993	33.82009
	-96.56118	33.82005
	-96.56435	33.81955
	-96.56727	33.81836
	-96.56862	33.81829
	-96.56968	33.81844
	-96.57197	33.81852
	-96.57515	33.81995
	-96.57987	33.82251
	-96.58536	33.82522
	-96.61351	33.83898
	-96.62012	33.84312
	-96.6239	33.84839
	-96.62467	33.85367
	-96.62029	33.86179
	-96.60802	33.87298
	-96.59995	33.87933
	-96.59343	33.88296
	-96.58974	33.88702
	-96.58837	33.89208
	-96.59135	33.89608
	-96.59206	33.89707
	-96.59669	33.89728
	-96.60862	33.89714
	-96.62836	33.89749
	-96.63677	33.89942
	-96.64639	33.90782
	-96.65446	33.91374
	-96.6627	33.91651
	-96.66793	33.91616
	-96.67454	33.91131
	-96.67892	33.90405
	-96.68269	33.89564
	-96.6845	33.88588
	-96.68544	33.87868
	-96.68707	33.86479
	-96.6893	33.85709
	-96.69531	33.84618
	-96.70252	33.83827
	-96.70819	33.83442
	-96.71694	33.83207
	-96.74681	33.82644
	-96.75316	33.82544
	-96.76406	33.82558
	-96.77153	33.82964
	-96.77616	33.83485
	-96.78063	33.84597
	-96.78415	33.85531
	-96.78689	33.86108
	-96.79144	33.86457
	-96.79874	33.86799
	-96.80595	33.8702
	-96.81384	33.87213
	-96.82148	33.87241
	-96.82801	33.86978
	-96.83624	33.86472
	-96.83968	33.86151
	-96.84345	33.85566
	-96.84629	33.85153
	-96.85307	33.84839
	-96.86028	33.84846
	-96.86749	33.85274
	-96.87736	33.86443
	-96.88311	33.8717
	-96.88946	33.88089
	-96.89066	33.88702
	-96.88809	33.89208
	-96.88251	33.89692
	-96.87701	33.9012
	-96.87667	33.90583
	-96.87723	33.91427
	-96.8789	33.92036
	-96.87959	33.92421
	-96.88122	33.9273
	-96.88354	33.93136
	-96.88641	33.93571
	-96.89092	33.94044
	-96.89577	33.944
	-96.90182	33.94781
	-96.90375	33.95023
	-96.90813	33.95461
	-96.91255	33.95764
	-96.91555	33.95835
	-96.9189	33.95806
	-96.9213	33.95746
	-96.92456	33.95628
	-96.92735	33.95571
	-96.93182	33.95539
	-96.93606	33.98023
	-96.9373	33.9802
	-96.93743	33.98032
	-96.93746	33.98035
	-96.93777	33.98066
	-96.93804	33.98098
	-96.93817	33.98119
	-96.93839	33.98163
	-96.93842	33.98171
	-96.93839	33.98309
	-96.93838	33.98313
	-96.93818	33.9834
	-96.93814	33.98348
	-96.93811	33.98355
	-96.93783	33.98387
	-96.93783	33.98388
	-96.93784	33.98388
	-96.9378	33.98392
	-96.93776	33.98396
	-96.93773	33.98399
	-96.93757	33.98417
	-96.93736	33.98479
	-96.93733	33.98483
	-96.93694	33.98525
	-96.93692	33.98527
	-96.96296	34.13778
	-97.00234	34.17771
	-97.03284	34.25292
	-96.98182	34.30242
	-96.98459	34.37387
	-96.96407	34.41917
	-96.9685	34.47406
	-97.02286	34.50012
	-97.03672	34.62435
	-97.13933	34.76572
	-97.21698	34.88546
	-97.28465	35.03137
	-97.30635	35.13836
	-97.30655	35.13818
	-97.30847	35.14026
	-97.30846	35.14046
	-97.30846	35.14114
	-97.30846	35.14117
	-97.30845	35.14212
	-97.30845	35.14214
	-97.30844	35.14279
	-97.30843	35.14316
	-97.30917	35.14357
	-97.30921	35.14362
	-97.30959	35.14414
	-97.30961	35.14419
	-97.3098	35.14483
	-97.30981	35.1449
	-97.30981	35.14534
	-97.30979	35.14556
	-97.30976	35.14585
	-97.30976	35.14594
	-97.30818	35.14737
	-97.3085	35.14892
	-97.13005	35.15169
	-97.13005	35.34012
	-97.13007	35.34341
	-96.94988	35.3126
	-96.8795	35.3154
	-96.73016	35.31484
	-96.58115	35.31569
	-96.42769	35.32437
	-96.31611	35.31513
	-96.21448	35.35042
	-96.13003	35.36162
	-96.03287	35.35938
	-95.96111	35.36414
	-95.83958	35.35826
	-95.70774	35.35714
	-95.61504	35.35742
	-95.56183	35.33221
	-95.522	35.27393
	-95.50449	35.29888
	-95.48424	35.3028
	-95.39772	35.31513
	-95.35103	35.3028
	-95.33043	35.29243
	-95.28305	35.29411
	-95.26554	35.28935
	-95.25421	35.27141
	-95.24013	35.26244
	-95.22297	35.27281
	-95.20168	35.29159
	-95.1907	35.31709
	-95.17078	35.33921
	-95.14744	35.3535
	-95.14812	35.3675
	-95.1289	35.37617
	-95.11929	35.38569
	-95.10315	35.38485
	-95.09148	35.39577
	-95.08392	35.42151
	-95.07774	35.43662
	-95.06882	35.44641
	-95.05302	35.45368
	-95.03174	35.45116
	-95.01766	35.42599
	-95.00256	35.41508
	-94.96101	35.40864
	-94.88892	35.36638
	-94.80686	35.33809
	-94.77528	35.34818
	-94.76017	35.35742
	-94.73991	35.35602
	-94.7224	35.3479
	-94.70661	35.33473
	-94.6843	35.32773
	-94.67915	35.31821
	-94.67503	35.30364
	-94.66679	35.29467
	-94.65099	35.29215
	-94.63177	35.29607
	-94.61735	35.3028
	-94.60499	35.31821
	-94.59469	35.32549
	-94.58061	35.32885
	-94.56551	35.32465
	-94.55349	35.3112
	-94.54147	35.30448
	-94.52362	35.30616
	-94.51057	35.31316
	-94.49993	35.32493
	-94.49581	35.33557
	-94.49581	35.35042
	-94.48929	35.36498
	-94.47796	35.37561
	-94.46217	35.38065
	-94.44431	35.38233
	-94.43349	35.38849
END
END
