US_Pennsylvania_Pittsburgh
1
	-79.49771	39.72098
	-79.76381	39.72071
	-79.91608	39.72063
	-80.04178	39.72116
	-80.12306	39.72113
	-80.12278	39.72063
	-80.12477	39.71948
	-80.12476	39.71946
	-80.12523	39.71921
	-80.12535	39.71925
	-80.12579	39.71913
	-80.12594	39.71912
	-80.12664	39.71934
	-80.12675	39.71932
	-80.12753	39.71937
	-80.12773	39.71942
	-80.1286	39.7199
	-80.12945	39.72071
	-80.12994	39.72101
	-80.13007	39.72112
	-80.17441	39.7211
	-80.19814	39.72107
	-80.19833	39.72136
	-80.1987	39.72183
	-80.19918	39.72229
	-80.19961	39.72262
	-80.19987	39.72277
	-80.20027	39.72296
	-80.20047	39.72303
	-80.20099	39.72314
	-80.20132	39.72317
	-80.20155	39.72317
	-80.20196	39.72314
	-80.20241	39.72307
	-80.20576	39.72214
	-80.20656	39.72193
	-80.20686	39.72188
	-80.20744	39.72105
	-80.21861	39.72106
	-80.21954	39.7221
	-80.21974	39.7223
	-80.21986	39.7224
	-80.22023	39.72265
	-80.22066	39.72291
	-80.22115	39.72312
	-80.22168	39.72327
	-80.2223	39.72333
	-80.22247	39.72333
	-80.22274	39.72331
	-80.22307	39.72326
	-80.22334	39.72324
	-80.2235	39.72323
	-80.22396	39.72324
	-80.22438	39.72321
	-80.22457	39.72318
	-80.22502	39.72305
	-80.2261	39.72264
	-80.2267	39.72228
	-80.22696	39.72206
	-80.22703	39.72107
	-80.23192	39.72107
	-80.23192	39.72105
	-80.23209	39.72103
	-80.23209	39.7198
	-80.23249	39.7194
	-80.23457	39.72012
	-80.2352	39.71937
	-80.23564	39.71976
	-80.23604	39.72028
	-80.2361	39.7204
	-80.23612	39.72108
	-80.29395	39.72116
	-80.40351	39.72112
	-80.42173	39.72108
	-80.45254	39.72106
	-80.51945	39.72125
	-80.51952	39.79162
	-80.51909	39.85605
	-80.51916	39.96207
	-80.51922	40.01621
	-80.51912	40.28174
	-80.51951	40.28177
	-80.51985	40.28182
	-80.51986	40.28181
	-80.52032	40.28176
	-80.52083	40.28176
	-80.52112	40.28178
	-80.52157	40.28188
	-80.52206	40.28211
	-80.52228	40.28225
	-80.52294	40.28273
	-80.52342	40.28321
	-80.52359	40.28346
	-80.52375	40.28382
	-80.52388	40.28441
	-80.52385	40.28499
	-80.52377	40.28529
	-80.52347	40.28587
	-80.52342	40.28594
	-80.5232	40.28644
	-80.52292	40.28694
	-80.52273	40.28721
	-80.52253	40.28743
	-80.52218	40.28776
	-80.52201	40.28789
	-80.52178	40.28804
	-80.5216	40.28814
	-80.52138	40.28824
	-80.521	40.28838
	-80.52053	40.28846
	-80.52014	40.28846
	-80.51979	40.28841
	-80.51967	40.28841
	-80.51957	40.28844
	-80.51953	40.28843
	-80.51952	40.28841
	-80.51912	40.28819
	-80.51909	40.40723
	-80.51901	40.59685
	-80.51787	40.5967
	-80.51767	40.59685
	-80.51722	40.59734
	-80.51717	40.59742
	-80.51695	40.59917
	-80.51698	40.59926
	-80.51731	40.59987
	-80.51777	40.60032
	-80.51791	40.60042
	-80.51901	40.60025
	-80.51899	40.6388
	-80.51901	40.65236
	-80.52034	40.65253
	-80.52044	40.65243
	-80.52062	40.6526
	-80.52088	40.65289
	-80.5209	40.65292
	-80.52115	40.65298
	-80.52157	40.65314
	-80.5222	40.65353
	-80.52253	40.65382
	-80.52262	40.65391
	-80.52282	40.65411
	-80.52336	40.65585
	-80.52333	40.65601
	-80.5224	40.65738
	-80.52216	40.65753
	-80.52182	40.65769
	-80.52167	40.65775
	-80.52146	40.65782
	-80.52129	40.65786
	-80.52126	40.65787
	-80.52114	40.6579
	-80.52113	40.6579
	-80.51975	40.65822
	-80.51963	40.65826
	-80.51902	40.65796
	-80.51933	40.85129
	-80.51903	40.89965
	-80.51906	41.12506
	-80.51907	41.13335
	-80.51911	41.14552
	-80.51913	41.16095
	-80.51915	41.17134
	-80.51917	41.21849
	-80.52046	41.21838
	-80.52101	41.22098
	-80.52078	41.22137
	-80.52076	41.2214
	-80.52072	41.22147
	-80.52068	41.22154
	-80.5206	41.22166
	-80.52003	41.22254
	-80.51917	41.22272
	-80.5193	41.49911
	-80.51936	41.6995
	-80.51739	41.70148
	-80.51739	41.70311
	-80.51737	41.70429
	-80.51737	41.70431
	-80.51735	41.7057
	-80.51735	41.70583
	-80.51736	41.70589
	-80.51736	41.7059
	-80.51737	41.70609
	-80.51736	41.70663
	-80.51736	41.70665
	-80.51735	41.70773
	-80.51735	41.70779
	-80.51738	41.70965
	-80.51738	41.70992
	-80.51738	41.70997
	-80.51738	41.71109
	-80.51739	41.71254
	-80.51736	41.71353
	-80.51736	41.71363
	-80.51738	41.71441
	-80.51739	41.71458
	-80.51741	41.71478
	-80.51741	41.7148
	-80.51741	41.71484
	-80.51741	41.71672
	-80.51741	41.71675
	-80.51742	41.71796
	-80.51742	41.71855
	-80.5174	41.71991
	-80.5174	41.71994
	-80.5174	41.7213
	-80.51741	41.72131
	-80.51741	41.7222
	-80.51742	41.72242
	-80.51741	41.72376
	-80.51741	41.72377
	-80.51742	41.72668
	-80.51741	41.72868
	-80.51741	41.7287
	-80.51742	41.73107
	-80.51741	41.73209
	-80.51741	41.73212
	-80.51741	41.73423
	-80.5174	41.73503
	-80.5174	41.73504
	-80.5174	41.73537
	-80.5174	41.73538
	-80.51741	41.73696
	-80.5174	41.73845
	-80.5174	41.73846
	-80.5174	41.73949
	-80.51738	41.73962
	-80.51736	41.73988
	-80.51735	41.74013
	-80.51738	41.741
	-80.51738	41.74108
	-80.5174	41.74204
	-80.51741	41.74367
	-80.5174	41.74608
	-80.5174	41.7461
	-80.51741	41.74738
	-80.51741	41.75005
	-80.51741	41.75006
	-80.51741	41.75022
	-80.51742	41.75022
	-80.51742	41.7511
	-80.51742	41.75183
	-80.51742	41.75187
	-80.51743	41.75274
	-80.51938	41.75464
	-80.5194	41.8495
	-80.51934	41.90697
	-80.51933	41.91021
	-80.51934	41.92466
	-80.51933	41.92917
	-80.51932	41.94376
	-80.51932	41.94392
	-80.51932	41.94413
	-80.51932	41.95015
	-80.51933	41.95066
	-80.51934	41.95427
	-80.51934	41.95654
	-80.51937	41.96508
	-80.51937	41.9671
	-80.51937	41.97245
	-80.51937	41.97276
	-80.51935	41.97632
	-80.51935	41.97728
	-80.51937	41.98085
	-80.51964	42.02243
	-80.51985	42.06549
	-80.52003	42.10495
	-80.52024	42.14725
	-80.52046	42.19382
	-80.52069	42.24106
	-80.52089	42.28399
	-80.52108	42.32324
	-80.32135	42.35508
	-80.25786	42.36521
	-80.19825	42.3747
	-80.07994	42.39356
	-79.76184	42.51469
	-79.76177	42.47864
	-79.76177	42.43431
	-79.76177	42.38995
	-79.76177	42.34556
	-79.76177	42.30133
	-79.76187	42.26984
	-79.76188	42.26776
	-79.76187	42.2521
	-79.76187	42.24305
	-79.76187	42.24141
	-79.76181	42.18415
	-79.76192	42.15218
	-79.76332	42.15215
	-79.76345	42.15202
	-79.764	42.1506
	-79.76396	42.14799
	-79.76396	42.14246
	-79.76398	42.13941
	-79.76398	42.13937
	-79.7639	42.13392
	-79.76395	42.1312
	-79.76232	42.12952
	-79.76191	42.10993
	-79.76189	42.08682
	-79.76191	42.042
	-79.76191	42.04195
	-79.76191	42.01904
	-79.76182	41.99885
	-79.67773	41.90367
	-79.63576	41.75834
	-79.62959	41.58129
	-79.66954	41.51144
	-79.66081	41.37992
	-79.68089	41.24355
	-79.67652	41.17328
	-79.64772	41.12135
	-79.62589	41.07728
	-79.46692	40.9538
	-79.4373	40.89597
	-79.44104	40.84448
	-79.44095	40.84446
	-79.44044	40.84425
	-79.44027	40.84415
	-79.44022	40.84412
	-79.44001	40.84398
	-79.43941	40.84341
	-79.43934	40.8433
	-79.439	40.84202
	-79.43901	40.8419
	-79.43908	40.84149
	-79.43916	40.8412
	-79.43919	40.84111
	-79.43949	40.84023
	-79.4395	40.83913
	-79.4415	40.83714
	-79.44157	40.83721
	-79.44378	40.8068
	-79.44503	40.80678
	-79.44537	40.80643
	-79.44589	40.80549
	-79.44597	40.80517
	-79.44584	40.8039
	-79.44566	40.8035
	-79.44528	40.80293
	-79.44499	40.80262
	-79.44412	40.80217
	-79.44437	40.79877
	-79.44329	40.79764
	-79.4433	40.79709
	-79.44299	40.7968
	-79.4427	40.79646
	-79.44235	40.79594
	-79.44205	40.79524
	-79.44194	40.79473
	-79.44189	40.79434
	-79.44185	40.79167
	-79.44187	40.79133
	-79.44195	40.79086
	-79.44224	40.79009
	-79.44238	40.78987
	-79.44265	40.78955
	-79.44286	40.78933
	-79.44304	40.78917
	-79.4432	40.78905
	-79.44334	40.78894
	-79.44366	40.78873
	-79.44395	40.78858
	-79.44412	40.7885
	-79.44452	40.78834
	-79.44491	40.78822
	-79.44532	40.78815
	-79.44553	40.78812
	-79.44583	40.78809
	-79.44586	40.78809
	-79.4467	40.78804
	-79.44684	40.78804
	-79.44688	40.78804
	-79.47359	40.71261
	-79.47374	40.71275
	-79.47414	40.71304
	-79.47484	40.71344
	-79.47495	40.71367
	-79.47518	40.71391
	-79.47518	40.71392
	-79.47529	40.71404
	-79.47638	40.71466
	-79.47665	40.71471
	-79.47667	40.71578
	-79.47729	40.71721
	-79.47741	40.71732
	-79.47772	40.71699
	-79.47879	40.71806
	-79.48078	40.71606
	-79.48078	40.71587
	-79.48066	40.71559
	-79.48063	40.71304
	-79.47902	40.7111
	-79.47778	40.71086
	-79.47736	40.71026
	-79.47647	40.70977
	-79.47708	40.70899
	-79.47724	40.70883
	-79.47816	40.70798
	-79.4788	40.70652
	-79.4788	40.70629
	-79.47816	40.70482
	-79.47788	40.70457
	-79.47777	40.70449
	-79.4778	40.70434
	-79.47782	40.70401
	-79.47791	40.7037
	-79.47825	40.7032
	-79.47875	40.70269
	-79.47975	40.7006
	-79.47998	40.70028
	-79.48097	40.69838
	-79.48119	40.69741
	-79.48116	40.69613
	-79.48115	40.69607
	-79.48136	40.69576
	-79.48083	40.69299
	-79.48051	40.69305
	-79.48544	40.67913
	-79.49242	40.61702
	-79.49263	40.617
	-79.49305	40.61693
	-79.49353	40.61679
	-79.49478	40.61575
	-79.49487	40.61557
	-79.49501	40.61418
	-79.49493	40.61388
	-79.49498	40.61352
	-79.49512	40.61295
	-79.49518	40.61267
	-79.49529	40.61168
	-79.49552	40.61116
	-79.4957	40.61025
	-79.49567	40.60957
	-79.49563	40.60926
	-79.49551	40.60864
	-79.49545	40.60775
	-79.49537	40.60727
	-79.4953	40.60707
	-79.49528	40.60582
	-79.49529	40.60565
	-79.49387	40.60409
	-79.49902	40.55825
	-79.47524	40.50037
	-79.46913	40.44525
	-79.46585	40.44109
	-79.4654	40.44081
	-79.46507	40.44055
	-79.46336	40.43891
	-79.46317	40.4387
	-79.46297	40.43844
	-79.46279	40.4383
	-79.46249	40.43803
	-79.46209	40.43756
	-79.46202	40.4375
	-79.46191	40.43733
	-79.4608	40.43621
	-79.4608	40.4362
	-79.4604	40.43618
	-79.4598	40.43625
	-79.45962	40.43626
	-79.4581	40.43631
	-79.45802	40.43631
	-79.45777	40.4363
	-79.457	40.43623
	-79.45642	40.43609
	-79.45624	40.43602
	-79.45597	40.43591
	-79.45557	40.43569
	-79.45518	40.43542
	-79.45463	40.43483
	-79.45431	40.4343
	-79.45422	40.4342
	-79.45417	40.43415
	-79.45372	40.43336
	-79.45366	40.43315
	-79.45412	40.43124
	-79.45457	40.43074
	-79.45525	40.42989
	-79.45606	40.42867
	-79.45137	40.42272
	-79.44578	40.41563
	-79.44357	40.41534
	-79.44354	40.41538
	-79.44346	40.41532
	-79.44332	40.41531
	-79.44328	40.41526
	-79.44325	40.41523
	-79.44309	40.41489
	-79.44289	40.41469
	-79.4417	40.41378
	-79.44112	40.41307
	-79.44107	40.41297
	-79.44094	40.41274
	-79.44072	40.41224
	-79.44063	40.41192
	-79.44069	40.41191
	-79.44047	40.41142
	-79.44044	40.41094
	-79.44059	40.41007
	-79.44085	40.40942
	-79.44086	40.40939
	-79.43509	40.40206
	-79.43391	40.36509
	-79.43352	40.36524
	-79.43336	40.3653
	-79.43237	40.36558
	-79.43167	40.36588
	-79.42905	40.36482
	-79.4301	40.3622
	-79.43091	40.36186
	-79.43114	40.36177
	-79.43158	40.36165
	-79.43158	40.3612
	-79.43165	40.36067
	-79.43186	40.35991
	-79.43371	40.35887
	-79.43247	40.31959
	-79.4318	40.31463
	-79.43166	40.31464
	-79.43061	40.31478
	-79.43036	40.31479
	-79.42979	40.31479
	-79.42887	40.31457
	-79.42869	40.31448
	-79.42824	40.31416
	-79.42797	40.31391
	-79.42737	40.31277
	-79.42734	40.31259
	-79.42736	40.31182
	-79.42745	40.31143
	-79.42794	40.31051
	-79.42809	40.31035
	-79.429	40.30979
	-79.42907	40.30977
	-79.42911	40.30975
	-79.42929	40.30961
	-79.42975	40.30932
	-79.43093	40.30879
	-79.43102	40.30874
	-79.42935	40.29622
	-79.42546	40.26714
	-79.42591	40.26681
	-79.42609	40.26665
	-79.4263	40.26645
	-79.42652	40.2662
	-79.42667	40.26599
	-79.42687	40.26566
	-79.42696	40.26546
	-79.42707	40.26518
	-79.42714	40.26497
	-79.42722	40.26443
	-79.42723	40.2642
	-79.4272	40.26385
	-79.42717	40.26361
	-79.42704	40.26315
	-79.42694	40.26292
	-79.42676	40.26258
	-79.42662	40.26237
	-79.42646	40.26216
	-79.42497	40.26047
	-79.42457	40.26045
	-79.42286	40.24767
	-79.41996	40.23714
	-79.42016	40.23707
	-79.42043	40.23695
	-79.42055	40.23688
	-79.42132	40.23413
	-79.42122	40.23395
	-79.42103	40.23368
	-79.41984	40.23223
	-79.41856	40.23211
	-79.40279	40.17501
	-79.38531	40.12007
	-79.40414	40.09151
	-79.42293	39.95373
	-79.43253	39.83586
	-79.47283	39.75975
	-79.49771	39.72098
END
END
