US_Pennsylvania_Reading
1
	-75.18824	40.57044
	-75.18508	40.56854
	-75.18402	40.56795
	-75.18329	40.56761
	-75.18246	40.56729
	-75.17894	40.56614
	-75.17443	40.56472
	-75.17311	40.56448
	-75.17197	40.56437
	-75.16668	40.5642
	-75.16371	40.56417
	-75.16241	40.56405
	-75.16201	40.56407
	-75.16064	40.56438
	-75.15989	40.56462
	-75.15852	40.56518
	-75.15792	40.56548
	-75.15723	40.56591
	-75.15424	40.56802
	-75.1524	40.56952
	-75.15063	40.57086
	-75.15018	40.57116
	-75.14592	40.57355
	-75.14426	40.5743
	-75.14212	40.57497
	-75.14018	40.57547
	-75.13834	40.57569
	-75.13616	40.57571
	-75.13472	40.57561
	-75.13232	40.57527
	-75.12979	40.57479
	-75.12783	40.57455
	-75.12351	40.57413
	-75.12136	40.57384
	-75.11899	40.57372
	-75.1174	40.57348
	-75.11651	40.57326
	-75.11559	40.57296
	-75.11249	40.57169
	-75.1069	40.56986
	-75.10494	40.56911
	-75.10364	40.56867
	-75.10084	40.56782
	-75.09982	40.56738
	-75.0993	40.56706
	-75.09837	40.56634
	-75.09545	40.56392
	-75.09316	40.56186
	-75.09263	40.5613
	-75.09194	40.56041
	-75.09073	40.55925
	-75.08917	40.55797
	-75.08783	40.55699
	-75.08706	40.55621
	-75.08384	40.55346
	-75.08295	40.55267
	-75.07998	40.54962
	-75.07807	40.54796
	-75.07556	40.54613
	-75.07452	40.54549
	-75.07372	40.54502
	-75.07106	40.54373
	-75.06909	40.5426
	-75.06864	40.54225
	-75.0679	40.54124
	-75.06764	40.5407
	-75.0674	40.54
	-75.06645	40.53502
	-75.06604	40.53263
	-75.0658	40.53087
	-75.06509	40.52676
	-75.065	40.52588
	-75.06503	40.52501
	-75.06518	40.52391
	-75.06557	40.52241
	-75.06558	40.52112
	-75.06572	40.51902
	-75.06571	40.51828
	-75.06527	40.51371
	-75.06494	40.51155
	-75.06483	40.51026
	-75.06476	40.50701
	-75.06497	40.50511
	-75.06491	40.50295
	-75.06477	40.50234
	-75.06436	40.50141
	-75.06334	40.49946
	-75.06317	40.49877
	-75.06303	40.49615
	-75.06262	40.49366
	-75.06234	40.4908
	-75.06201	40.48835
	-75.06206	40.48787
	-75.06259	40.48678
	-75.06274	40.48623
	-75.06282	40.48563
	-75.06281	40.48346
	-75.06298	40.48166
	-75.06298	40.48105
	-75.06304	40.48045
	-75.06337	40.47895
	-75.06423	40.47716
	-75.06585	40.47534
	-75.06644	40.47479
	-75.06689	40.4745
	-75.06762	40.47415
	-75.06792	40.47388
	-75.06809	40.4736
	-75.06818	40.4732
	-75.06827	40.46994
	-75.0682	40.46944
	-75.06765	40.46827
	-75.06733	40.46706
	-75.06707	40.46636
	-75.06701	40.46604
	-75.06708	40.46562
	-75.06741	40.46457
	-75.06804	40.46313
	-75.06815	40.46261
	-75.06831	40.46221
	-75.06895	40.46132
	-75.0699	40.45926
	-75.07062	40.45786
	-75.07084	40.45727
	-75.07099	40.45665
	-75.07104	40.45615
	-75.07099	40.45578
	-75.07082	40.4554
	-75.0698	40.454
	-75.06932	40.45311
	-75.06841	40.45072
	-75.06695	40.44774
	-75.06621	40.44601
	-75.06607	40.44538
	-75.06598	40.44374
	-75.06583	40.44244
	-75.06566	40.4419
	-75.0647	40.43974
	-75.06428	40.43854
	-75.06424	40.43772
	-75.06442	40.43686
	-75.0644	40.43652
	-75.06332	40.43392
	-75.06297	40.43285
	-75.06262	40.43157
	-75.06245	40.43054
	-75.06235	40.42948
	-75.06227	40.42615
	-75.06196	40.42441
	-75.06132	40.42287
	-75.06082	40.42198
	-75.06039	40.42104
	-75.06019	40.42065
	-75.05953	40.41963
	-75.05849	40.41836
	-75.058	40.41784
	-75.05737	40.41728
	-75.05691	40.41695
	-75.05589	40.41644
	-75.05402	40.41584
	-75.05258	40.41545
	-75.05182	40.4153
	-75.05003	40.41507
	-75.04822	40.41474
	-75.04749	40.41455
	-75.04631	40.41414
	-75.04537	40.41363
	-75.04386	40.41244
	-75.04282	40.41131
	-75.04225	40.41051
	-75.04177	40.41001
	-75.0416	40.40988
	-75.04129	40.40976
	-75.04063	40.40962
	-75.04029	40.40949
	-75.03999	40.40932
	-75.03971	40.40911
	-75.03949	40.40885
	-75.03919	40.40868
	-75.03833	40.40828
	-75.03497	40.40651
	-75.03359	40.40572
	-75.03241	40.40516
	-75.03184	40.40499
	-75.03039	40.4047
	-75.02814	40.40404
	-75.02738	40.40388
	-75.0257	40.40373
	-75.02414	40.40381
	-75.02249	40.40406
	-75.02137	40.4043
	-75.02041	40.40461
	-75.0186	40.40504
	-75.01269	40.40635
	-75.00787	40.40771
	-75.00744	40.40794
	-75.00682	40.4084
	-75.00598	40.40891
	-75.00415	40.40991
	-75.00345	40.41038
	-75.00303	40.41058
	-75.00249	40.41075
	-75.00157	40.41095
	-74.99996	40.41114
	-74.99926	40.41117
	-74.99872	40.41112
	-74.99822	40.411
	-74.99771	40.41081
	-74.99727	40.41071
	-74.99475	40.4104
	-74.99246	40.41
	-74.9906	40.40941
	-74.98839	40.40844
	-74.98769	40.40802
	-74.98701	40.40747
	-74.98584	40.40663
	-74.9848	40.40575
	-74.98412	40.40532
	-74.98182	40.40408
	-74.97824	40.40248
	-74.97708	40.40205
	-74.97302	40.40076
	-74.97028	40.40004
	-74.96893	40.39958
	-74.9676	40.39886
	-74.9668	40.39834
	-74.96567	40.39742
	-74.96489	40.39657
	-74.96452	40.39608
	-74.96363	40.39464
	-74.96299	40.39304
	-74.96246	40.39129
	-74.9619	40.38994
	-74.96121	40.3885
	-74.96097	40.38805
	-74.96013	40.38691
	-74.95631	40.38081
	-74.95441	40.37707
	-74.95298	40.37351
	-74.95244	40.37235
	-74.95031	40.36797
	-74.94897	40.36557
	-74.94852	40.36428
	-74.94806	40.36252
	-74.94742	40.36106
	-74.94665	40.3589
	-74.94617	40.35788
	-74.94592	40.35672
	-74.9459	40.35545
	-74.94602	40.35395
	-74.94595	40.35196
	-74.9456	40.35068
	-74.94543	40.34974
	-74.94537	40.34879
	-74.94525	40.34731
	-74.94504	40.34627
	-74.94452	40.34495
	-74.94374	40.34325
	-74.94273	40.34135
	-74.942	40.34012
	-74.94163	40.33964
	-74.94042	40.33828
	-74.93928	40.33725
	-74.93831	40.33647
	-74.93535	40.33444
	-74.93383	40.33345
	-74.93162	40.33216
	-74.92868	40.33032
	-74.92713	40.32941
	-74.92616	40.32892
	-74.92453	40.32801
	-74.92382	40.32754
	-74.92297	40.32683
	-74.92184	40.32577
	-74.91858	40.32308
	-74.916	40.32088
	-74.91517	40.32034
	-74.91402	40.31969
	-74.91082	40.3181
	-74.90944	40.31747
	-74.9069	40.3165
	-74.90625	40.31628
	-74.90326	40.31566
	-74.90155	40.31546
	-74.90034	40.31542
	-74.89794	40.31547
	-74.89667	40.31527
	-74.89405	40.31428
	-74.89242	40.31346
	-74.89043	40.31217
	-74.88788	40.3107
	-74.88665	40.30992
	-74.88206	40.30648
	-74.87798	40.3032
	-74.87603	40.30148
	-74.87327	40.29981
	-74.8723	40.29909
	-74.87095	40.29789
	-74.87014	40.29685
	-74.86753	40.29448
	-74.86512	40.29184
	-74.8633	40.28945
	-74.86116	40.28633
	-74.86054	40.28535
	-74.85844	40.28173
	-74.85762	40.28011
	-74.85669	40.27788
	-74.8565	40.27709
	-74.85628	40.2758
	-74.85543	40.27435
	-74.85375	40.27082
	-74.85332	40.26971
	-74.85309	40.26916
	-74.85159	40.26685
	-74.85131	40.26656
	-74.8508	40.26621
	-74.85047	40.26589
	-74.84722	40.25978
	-74.84595	40.2576
	-74.84575	40.2571
	-74.84559	40.25623
	-74.84519	40.25534
	-74.84406	40.25367
	-74.84239	40.25072
	-74.84221	40.25044
	-74.84168	40.24983
	-74.84075	40.24899
	-74.84005	40.24844
	-74.83847	40.24734
	-74.83796	40.24708
	-74.83709	40.24671
	-74.8361	40.24618
	-74.83403	40.24542
	-74.83052	40.24424
	-74.82435	40.24185
	-74.82176	40.24067
	-74.82155	40.24046
	-74.82118	40.2398
	-74.8208	40.23928
	-74.82012	40.2387
	-74.81854	40.23779
	-74.81718	40.23723
	-74.81553	40.2364
	-74.81474	40.23607
	-74.81388	40.23581
	-74.81069	40.23517
	-74.80978	40.23494
	-74.808	40.23438
	-74.80724	40.23408
	-74.80418	40.23266
	-74.80179	40.23178
	-74.7998	40.23092
	-74.79716	40.22961
	-74.79666	40.22942
	-74.79614	40.22932
	-74.79501	40.22923
	-74.79443	40.22912
	-74.79374	40.22886
	-74.79228	40.22816
	-74.78853	40.22602
	-74.78749	40.22535
	-74.78594	40.22426
	-74.78201	40.22189
	-74.78074	40.22118
	-74.7775	40.21951
	-74.77531	40.21825
	-74.77261	40.21649
	-74.7722	40.21617
	-74.7717	40.21567
	-74.77061	40.21411
	-74.76903	40.21145
	-74.76845	40.20999
	-74.76816	40.20903
	-74.76781	40.20821
	-74.76751	40.2077
	-74.76691	40.20686
	-74.76561	40.20524
	-74.76391	40.2033
	-74.76269	40.20184
	-74.76206	40.20096
	-74.76067	40.1993
	-74.76044	40.19888
	-74.75964	40.1966
	-74.759	40.19427
	-74.75797	40.19163
	-74.75737	40.18976
	-74.75693	40.18877
	-74.75651	40.188
	-74.75589	40.18717
	-74.75518	40.18639
	-74.75441	40.18566
	-74.7532	40.18476
	-74.75207	40.18409
	-74.75063	40.18334
	-74.74939	40.18283
	-74.7464	40.18175
	-74.7452	40.18146
	-74.74302	40.18107
	-74.74211	40.18085
	-74.74105	40.18041
	-74.73989	40.17973
	-74.73732	40.17774
	-74.73581	40.17644
	-74.73391	40.17454
	-74.73038	40.17138
	-74.7291	40.16992
	-74.72806	40.16887
	-74.72581	40.16605
	-74.72363	40.16368
	-74.72314	40.16305
	-74.72252	40.16194
	-74.72215	40.16099
	-74.72125	40.15782
	-74.72107	40.15629
	-74.72113	40.15508
	-74.72127	40.15404
	-74.72156	40.15303
	-74.72207	40.15041
	-74.7223	40.1497
	-74.72258	40.14908
	-74.72309	40.14825
	-74.72397	40.14713
	-74.72517	40.14633
	-74.72787	40.14476
	-74.7294	40.14378
	-74.7346	40.13983
	-74.73578	40.13878
	-74.73754	40.13741
	-74.73926	40.13586
	-74.73997	40.13545
	-74.74085	40.13505
	-74.74205	40.13467
	-74.74335	40.13432
	-74.74447	40.13413
	-74.74583	40.13405
	-74.7471	40.13417
	-74.75027	40.13496
	-74.75172	40.13509
	-74.75345	40.13502
	-74.75575	40.13478
	-74.75743	40.13467
	-74.75845	40.13453
	-74.75957	40.13425
	-74.76078	40.13372
	-74.76687	40.13037
	-74.76959	40.12899
	-74.77327	40.127
	-74.77937	40.12341
	-74.78121	40.1224
	-74.78262	40.12178
	-74.78375	40.12144
	-74.78498	40.1212
	-74.78614	40.12106
	-74.78766	40.12103
	-74.78962	40.12123
	-74.7946	40.12218
	-74.79685	40.12247
	-74.79946	40.12292
	-74.80159	40.12344
	-74.80473	40.12442
	-74.80669	40.12513
	-74.80834	40.12582
	-74.80956	40.12622
	-74.81211	40.12685
	-74.8144	40.12752
	-74.8157	40.1278
	-74.81701	40.12795
	-74.81825	40.12798
	-74.81966	40.12791
	-74.82092	40.12762
	-74.82257	40.12707
	-74.82415	40.12626
	-74.82558	40.12509
	-74.82647	40.12408
	-74.82739	40.12266
	-74.82839	40.12079
	-74.83006	40.11787
	-74.83211	40.11396
	-74.83262	40.11281
	-74.83339	40.11012
	-74.83364	40.10901
	-74.83405	40.10785
	-74.83464	40.10628
	-74.83503	40.10508
	-74.83582	40.10338
	-74.83661	40.10196
	-74.83734	40.10109
	-74.83803	40.1004
	-74.83961	40.0995
	-74.84142	40.09869
	-74.84317	40.098
	-74.84667	40.09705
	-74.84827	40.09649
	-74.84972	40.09581
	-74.85306	40.09395
	-74.85502	40.09274
	-74.8558	40.09209
	-74.85663	40.09131
	-74.85702	40.09092
	-74.85815	40.08943
	-74.85901	40.08796
	-74.85934	40.08703
	-74.85997	40.08497
	-74.86023	40.08443
	-74.86066	40.08394
	-74.8613	40.0836
	-74.86218	40.08323
	-74.86319	40.08287
	-74.86433	40.08257
	-74.86618	40.08223
	-74.86878	40.08181
	-74.87344	40.08128
	-74.87505	40.08106
	-74.87621	40.08084
	-74.8775	40.08051
	-74.87983	40.07985
	-74.88198	40.07916
	-74.88369	40.07851
	-74.8891	40.07629
	-74.89147	40.0755
	-74.89322	40.07506
	-74.89742	40.07412
	-74.89951	40.07359
	-74.90124	40.07298
	-74.90439	40.07174
	-74.90582	40.0713
	-74.9094	40.07055
	-74.91189	40.07011
	-74.91384	40.07001
	-74.91581	40.07015
	-74.91788	40.07072
	-74.91991	40.07153
	-74.92092	40.07182
	-74.92202	40.07182
	-74.92363	40.07162
	-74.92797	40.07062
	-74.92979	40.06996
	-74.93339	40.06853
	-74.94227	40.06451
	-74.94452	40.06327
	-74.94952	40.06018
	-74.95214	40.05886
	-74.95477	40.05791
	-74.95751	40.0572
	-74.9601	40.05642
	-74.96186	40.0558
	-74.96894	40.05276
	-74.97439	40.0498
	-74.97785	40.04537
	-74.98078	40.04354
	-74.98318	40.0414
	-74.99098	40.03577
	-74.99409	40.03341
	-74.99711	40.03129
	-75.00062	40.0287
	-75.00385	40.027
	-75.01037	40.02249
	-75.01324	40.0203
	-75.01667	40.01943
	-75.01964	40.01844
	-75.02407	40.01783
	-75.0275	40.01708
	-75.03094	40.01609
	-75.03422	40.01522
	-75.03829	40.01383
	-75.04127	40.01271
	-75.04488	40.0112
	-75.04709	40.00994
	-75.0499	40.00722
	-75.0534	40.00457
	-75.0567	39.99933
	-75.05809	39.9974
	-75.0585	39.9948
	-75.05995	39.99145
	-75.06206	39.98865
	-75.06417	39.98603
	-75.06707	39.98348
	-75.07126	39.98049
	-75.07151	39.98036
	-75.0756	39.97804
	-75.0802	39.97702
	-75.08583	39.9751
	-75.09086	39.97474
	-75.09637	39.97398
	-75.10229	39.97238
	-75.10604	39.9711
	-75.10809	39.97033
	-75.11429	39.96774
	-75.11821	39.96594
	-75.1189	39.96555
	-75.11896	39.96554
	-75.11949	39.96537
	-75.12382	39.96274
	-75.1257	39.96182
	-75.12959	39.9593
	-75.13059	39.95861
	-75.13178	39.95732
	-75.1337	39.95462
	-75.13524	39.95068
	-75.13595	39.94606
	-75.13627	39.94328
	-75.13626	39.94048
	-75.13622	39.93976
	-75.1362	39.93866
	-75.13623	39.9377
	-75.13618	39.93655
	-75.13619	39.9359
	-75.13606	39.93449
	-75.13607	39.93383
	-75.13615	39.93297
	-75.13553	39.92916
	-75.13448	39.92617
	-75.13238	39.92173
	-75.13234	39.92167
	-75.13035	39.9174
	-75.12934	39.9159
	-75.12882	39.91467
	-75.1286	39.91399
	-75.12825	39.91316
	-75.12838	39.91072
	-75.12846	39.91029
	-75.12854	39.9091
	-75.12867	39.90863
	-75.1289	39.90741
	-75.12925	39.90647
	-75.12951	39.9053
	-75.12956	39.90518
	-75.12963	39.90483
	-75.12973	39.90394
	-75.12991	39.90338
	-75.13005	39.90239
	-75.13072	39.90055
	-75.13136	39.89914
	-75.13199	39.89819
	-75.1347	39.89461
	-75.1354	39.89306
	-75.1373	39.88997
	-75.13853	39.88889
	-75.14011	39.88819
	-75.14152	39.88689
	-75.14375	39.885
	-75.14563	39.8845
	-75.14737	39.88392
	-75.15065	39.8835
	-75.15663	39.88303
	-75.16287	39.88265
	-75.16452	39.88262
	-75.16866	39.8825
	-75.17265	39.88242
	-75.17677	39.88229
	-75.18011	39.8822
	-75.18139	39.88212
	-75.18396	39.88188
	-75.18573	39.88161
	-75.18642	39.88144
	-75.18721	39.88127
	-75.18789	39.8811
	-75.1889	39.88079
	-75.1901	39.88035
	-75.19081	39.88003
	-75.19217	39.8793
	-75.19274	39.87901
	-75.19417	39.87811
	-75.19536	39.87728
	-75.19591	39.87681
	-75.1964	39.87642
	-75.19676	39.8761
	-75.19712	39.87582
	-75.19764	39.87529
	-75.19783	39.87513
	-75.19855	39.87444
	-75.19905	39.87399
	-75.19947	39.87355
	-75.19986	39.87322
	-75.20409	39.8712
	-75.21142	39.867
	-75.21974	39.86194
	-75.2218	39.86098
	-75.2239	39.86019
	-75.23462	39.85675
	-75.24697	39.85398
	-75.2487	39.85369
	-75.26867	39.84996
	-75.27531	39.84921
	-75.28223	39.84911
	-75.28964	39.84889
	-75.31436	39.85006
	-75.31653	39.84999
	-75.32091	39.84982
	-75.325	39.84961
	-75.33976	39.84659
	-75.34148	39.84614
	-75.35608	39.83874
	-75.37015	39.8288
	-75.37552	39.82519
	-75.39539	39.81244
	-75.39616	39.81197
	-75.40303	39.80794
	-75.41495	39.80231
	-75.42664	39.80865
	-75.43391	39.8122
	-75.44207	39.81588
	-75.45028	39.81936
	-75.45883	39.82253
	-75.46744	39.82538
	-75.47263	39.82696
	-75.47623	39.82798
	-75.48508	39.83038
	-75.49314	39.83219
	-75.4952	39.83264
	-75.50317	39.83434
	-75.51238	39.83593
	-75.5216	39.83714
	-75.53092	39.83818
	-75.53765	39.83872
	-75.54034	39.83899
	-75.54964	39.83942
	-75.55211	39.83942
	-75.55242	39.83943
	-75.56328	39.83943
	-75.56601	39.83942
	-75.56839	39.83928
	-75.57224	39.8391
	-75.57782	39.83882
	-75.57986	39.8387
	-75.5872	39.83812
	-75.59367	39.83745
	-75.5984	39.83687
	-75.60072	39.83657
	-75.60891	39.83539
	-75.61725	39.834
	-75.62844	39.83174
	-75.63229	39.83086
	-75.63461	39.83027
	-75.63551	39.83002
	-75.64141	39.82845
	-75.64638	39.82724
	-75.65069	39.82589
	-75.65477	39.82438
	-75.6631	39.82126
	-75.67148	39.81787
	-75.67932	39.81448
	-75.67991	39.81422
	-75.68116	39.81364
	-75.68314	39.81269
	-75.686	39.81126
	-75.68999	39.80924
	-75.69581	39.80603
	-75.70135	39.80269
	-75.70634	39.79952
	-75.70753	39.79876
	-75.71475	39.79396
	-75.71766	39.79165
	-75.71898	39.79071
	-75.72077	39.78931
	-75.72657	39.78486
	-75.73012	39.78181
	-75.73297	39.77928
	-75.73495	39.77727
	-75.73668	39.77558
	-75.74002	39.77246
	-75.741	39.7714
	-75.74089	39.77113
	-75.74079	39.77082
	-75.74071	39.77046
	-75.74066	39.77011
	-75.74066	39.76986
	-75.74069	39.76951
	-75.74071	39.76939
	-75.74083	39.76898
	-75.74099	39.76864
	-75.74118	39.76834
	-75.74152	39.76796
	-75.74208	39.76751
	-75.74455	39.76776
	-75.74657	39.76563
	-75.74838	39.76365
	-75.74819	39.76335
	-75.748	39.76299
	-75.74784	39.76251
	-75.74778	39.76211
	-75.74778	39.76173
	-75.74783	39.76135
	-75.74786	39.76123
	-75.74805	39.76072
	-75.74813	39.76058
	-75.74832	39.76029
	-75.74922	39.7592
	-75.74936	39.75905
	-75.74956	39.75887
	-75.74987	39.75863
	-75.75048	39.75836
	-75.75059	39.75833
	-75.75126	39.75821
	-75.75149	39.75819
	-75.75197	39.75818
	-75.75209	39.75819
	-75.75247	39.75826
	-75.75263	39.75807
	-75.7544	39.7556
	-75.75857	39.74999
	-75.76017	39.74754
	-75.76256	39.74396
	-75.76433	39.74102
	-75.76593	39.7381
	-75.7677	39.73493
	-75.76951	39.73151
	-75.77121	39.72778
	-75.77275	39.72449
	-75.77389	39.72211
	-75.78872	39.72213
	-75.80762	39.72203
	-75.81295	39.72203
	-75.82603	39.72203
	-75.8417	39.72199
	-75.84503	39.72199
	-75.86366	39.72203
	-75.88511	39.72209
	-75.90369	39.72209
	-75.92218	39.722
	-75.94084	39.72194
	-75.95981	39.7219
	-75.96226	39.72187
	-75.97843	39.72182
	-75.99828	39.72179
	-76.01722	39.72176
	-76.02782	39.72175
	-76.02783	39.72174
	-76.02797	39.72161
	-76.02944	39.72027
	-76.03221	39.72035
	-76.03222	39.72175
	-76.03509	39.72175
	-76.05396	39.72172
	-76.07229	39.72156
	-76.09165	39.72157
	-76.1105	39.72149
	-76.11393	39.72149
	-76.11403	39.72204
	-76.11414	39.72228
	-76.11583	39.72345
	-76.11686	39.72351
	-76.11724	39.7235
	-76.11813	39.72339
	-76.11841	39.72333
	-76.11867	39.72326
	-76.11913	39.72321
	-76.11972	39.72326
	-76.12005	39.72326
	-76.1207	39.72321
	-76.1208	39.7232
	-76.12084	39.72324
	-76.12217	39.7247
	-76.12221	39.72474
	-76.12307	39.72562
	-76.1238	39.7261
	-76.12408	39.7262
	-76.12633	39.7271
	-76.12684	39.72723
	-76.12786	39.72735
	-76.12812	39.72737
	-76.12951	39.72735
	-76.13006	39.72726
	-76.13126	39.7269
	-76.13173	39.72669
	-76.13196	39.72654
	-76.13241	39.72631
	-76.13285	39.726
	-76.13302	39.72585
	-76.13314	39.72302
	-76.13067	39.72292
	-76.13058	39.72275
	-76.13007	39.72302
	-76.12993	39.72309
	-76.12985	39.72314
	-76.12917	39.72335
	-76.12819	39.72336
	-76.12757	39.72329
	-76.12562	39.72251
	-76.1251	39.72197
	-76.12465	39.72148
	-76.12947	39.72148
	-76.13561	39.72142
	-76.14766	39.72127
	-76.16681	39.72124
	-76.18546	39.72111
	-76.20011	39.7211
	-76.2232	39.72116
	-76.23291	39.72117
	-76.23932	39.74934
	-76.28809	39.79262
	-76.33761	39.8266
	-76.34942	39.84108
	-76.34967	39.85362
	-76.37481	39.86944
	-76.3738	39.88719
	-76.38662	39.91959
	-76.46781	39.9485
	-76.49896	40.01438
	-76.52634	40.04378
	-76.53416	40.05439
	-76.56615	40.04949
	-76.64755	40.06228
	-76.6767	40.08404
	-76.69199	40.1058
	-76.73074	40.1289
	-76.73109	40.177
	-76.71148	40.18984
	-76.68988	40.22472
	-76.59976	40.24169
	-76.55162	40.27042
	-76.51767	40.29208
	-76.45348	40.29302
	-76.43315	40.29419
	-76.43321	40.2944
	-76.43319	40.29671
	-76.43308	40.29809
	-76.43312	40.29833
	-76.4334	40.29957
	-76.43345	40.29997
	-76.43346	40.30099
	-76.43332	40.30174
	-76.43327	40.30188
	-76.43325	40.30218
	-76.43327	40.30284
	-76.43332	40.30324
	-76.43163	40.30551
	-76.42937	40.30382
	-76.42929	40.3033
	-76.42927	40.30306
	-76.42925	40.302
	-76.4293	40.3013
	-76.42943	40.30071
	-76.42946	40.30065
	-76.42945	40.30023
	-76.42919	40.29908
	-76.42911	40.29861
	-76.42908	40.29826
	-76.42909	40.29776
	-76.42919	40.2966
	-76.42919	40.29631
	-76.42898	40.29623
	-76.4283	40.29569
	-76.42735	40.29452
	-76.36336	40.2982
	-76.31707	40.32173
	-76.24547	40.3462
	-76.22614	40.36484
	-76.22618	40.36599
	-76.22611	40.36661
	-76.22597	40.36702
	-76.22565	40.36754
	-76.22557	40.36763
	-76.22513	40.36806
	-76.22501	40.36816
	-76.22474	40.36837
	-76.22446	40.36855
	-76.22401	40.37051
	-76.22387	40.37093
	-76.2237	40.37132
	-76.22352	40.37162
	-76.22335	40.37184
	-76.22301	40.37219
	-76.22261	40.37249
	-76.22225	40.37268
	-76.22196	40.3728
	-76.22149	40.37293
	-76.2207	40.37304
	-76.22072	40.373
	-76.2182	40.37171
	-76.21795	40.37179
	-76.2165	40.37214
	-76.2153	40.37249
	-76.21497	40.37263
	-76.21464	40.37282
	-76.21422	40.37314
	-76.21413	40.37323
	-76.21387	40.37356
	-76.21373	40.37378
	-76.2136	40.37404
	-76.2135	40.37433
	-76.21316	40.37558
	-76.21294	40.37655
	-76.21257	40.37773
	-76.21251	40.37798
	-76.21118	40.37927
	-76.21056	40.37946
	-76.20881	40.37995
	-76.20848	40.38006
	-76.20792	40.38031
	-76.2076	40.3805
	-76.20725	40.38076
	-76.20711	40.38088
	-76.20683	40.38118
	-76.20453	40.38401
	-76.20376	40.385
	-76.19285	40.38851
	-76.19426	40.38865
	-76.19595	40.3888
	-76.19617	40.38883
	-76.19781	40.38917
	-76.1993	40.38946
	-76.20083	40.39175
	-76.20084	40.39183
	-76.19852	40.39339
	-76.19549	40.39278
	-76.19241	40.39248
	-76.19122	40.39238
	-76.18891	40.39199
	-76.18826	40.39192
	-76.18798	40.39194
	-76.18787	40.39198
	-76.18661	40.39252
	-76.18528	40.39306
	-76.18498	40.39315
	-76.18465	40.39321
	-76.18435	40.39323
	-76.18407	40.39322
	-76.18381	40.39319
	-76.1831	40.39368
	-76.18275	40.39388
	-76.18256	40.39397
	-76.18246	40.39377
	-76.18145	40.39418
	-76.18096	40.39413
	-76.18055	40.39405
	-76.18025	40.39395
	-76.17989	40.39377
	-76.17936	40.39336
	-76.17913	40.39309
	-76.17903	40.39295
	-76.12697	40.40968
	-76.06643	40.4365
	-76.06633	40.43645
	-76.06588	40.43633
	-76.06533	40.4363
	-76.06495	40.43636
	-76.06475	40.43641
	-76.06427	40.43655
	-76.06356	40.43678
	-76.06331	40.43667
	-76.06303	40.4366
	-76.06273	40.43656
	-76.06236	40.43654
	-76.06202	40.43656
	-76.06106	40.43672
	-76.06077	40.43681
	-76.06045	40.43694
	-76.06029	40.43702
	-76.05981	40.43734
	-76.05969	40.43745
	-76.05938	40.43779
	-76.05876	40.43865
	-76.05861	40.43895
	-76.05849	40.43927
	-76.05839	40.43972
	-76.05838	40.44006
	-76.0029	40.46464
	-75.90564	40.48034
	-75.90654	40.47972
	-75.90704	40.47693
	-75.90426	40.47643
	-75.90164	40.47824
	-75.90101	40.47876
	-75.90072	40.47908
	-75.90039	40.47915
	-75.90005	40.47925
	-75.89947	40.47954
	-75.89933	40.47964
	-75.89885	40.48014
	-75.89875	40.48028
	-75.89873	40.48036
	-75.84921	40.46511
	-75.80601	40.47967
	-75.76465	40.44726
	-75.58201	40.45831
	-75.58133	40.45931
	-75.5808	40.45942
	-75.58058	40.45945
	-75.5801	40.45946
	-75.57917	40.45942
	-75.57847	40.45971
	-75.57783	40.45994
	-75.57716	40.46038
	-75.57686	40.46054
	-75.57643	40.46072
	-75.576	40.46084
	-75.57563	40.46092
	-75.57505	40.4611
	-75.57458	40.46123
	-75.57398	40.46136
	-75.57365	40.4614
	-75.57338	40.46142
	-75.57299	40.46143
	-75.57271	40.46143
	-75.57191	40.46137
	-75.57102	40.4614
	-75.57045	40.46134
	-75.57022	40.46129
	-75.56988	40.46118
	-75.56959	40.46106
	-75.56915	40.46081
	-75.56878	40.46052
	-75.56838	40.46012
	-75.56791	40.4597
	-75.47394	40.47028
	-75.39431	40.47967
	-75.38476	40.48421
	-75.38477	40.48414
	-75.38474	40.48377
	-75.38464	40.48326
	-75.38453	40.48283
	-75.38447	40.48247
	-75.38444	40.48214
	-75.38224	40.48036
	-75.38046	40.48255
	-75.38051	40.48304
	-75.38058	40.48349
	-75.38065	40.48382
	-75.38022	40.4844
	-75.38009	40.48438
	-75.37978	40.48437
	-75.37928	40.48444
	-75.3789	40.48457
	-75.3786	40.48472
	-75.37831	40.48492
	-75.37801	40.48518
	-75.37774	40.4855
	-75.37751	40.48593
	-75.37736	40.48654
	-75.37735	40.48705
	-75.37746	40.48768
	-75.35975	40.4961
	-75.28321	40.52801
	-75.23177	40.55099
	-75.23104	40.55048
	-75.23104	40.55044
	-75.23066	40.55042
	-75.23014	40.55024
	-75.22994	40.55019
	-75.2295	40.55013
	-75.22919	40.55014
	-75.22883	40.5502
	-75.22851	40.5503
	-75.22807	40.55049
	-75.22692	40.55093
	-75.22664	40.55106
	-75.22606	40.55152
	-75.22581	40.55187
	-75.22555	40.55245
	-75.22505	40.55376
	-75.22496	40.55403
	-75.18824	40.57044
END
END
