US_South Carolina_Florence
1
	-80.49978	34.81726
	-80.49183	34.8168
	-80.48568	34.81669
	-80.47201	34.8166
	-80.46639	34.81651
	-80.45169	34.81639
	-80.4344	34.81595
	-80.42933	34.81568
	-80.42542	34.81578
	-80.42102	34.81558
	-80.41832	34.81562
	-80.41715	34.81552
	-80.41335	34.8154
	-80.4129	34.81543
	-80.40454	34.81514
	-80.39993	34.81514
	-80.37479	34.81474
	-80.36939	34.81482
	-80.36186	34.81447
	-80.3543	34.81433
	-80.32926	34.814
	-80.32041	34.81401
	-80.30655	34.81381
	-80.29809	34.81359
	-80.24978	34.81294
	-80.2413	34.81298
	-80.23396	34.81293
	-80.22783	34.81269
	-80.22583	34.81251
	-80.22061	34.81252
	-80.21092	34.81244
	-80.20148	34.81226
	-80.19539	34.81205
	-80.1845	34.81194
	-80.16902	34.81168
	-80.16458	34.81166
	-80.13742	34.81097
	-80.13029	34.81074
	-80.12495	34.81051
	-80.12381	34.8104
	-80.0993	34.81016
	-80.09813	34.80911
	-80.09519	34.80927
	-80.0949	34.80931
	-80.0916	34.80998
	-80.08591	34.80981
	-80.08185	34.80975
	-80.07993	34.8086
	-80.07898	34.80815
	-80.07842	34.80793
	-80.07803	34.80783
	-80.07756	34.80774
	-80.07672	34.80771
	-80.0731	34.80771
	-80.07264	34.80775
	-80.07224	34.80781
	-80.07145	34.80796
	-80.06927	34.80824
	-80.06785	34.8084
	-80.0675	34.80841
	-80.06689	34.80838
	-80.06488	34.80821
	-80.0631	34.80815
	-80.06266	34.80815
	-80.06229	34.80819
	-80.06195	34.80825
	-80.06124	34.80846
	-80.06057	34.80877
	-80.0603	34.80893
	-80.05999	34.80915
	-80.05946	34.80934
	-80.0593	34.80941
	-80.05282	34.80928
	-80.04508	34.80928
	-80.0429	34.80909
	-80.04137	34.80905
	-80.03953	34.80904
	-80.01818	34.80851
	-80.01493	34.80847
	-80.01301	34.80839
	-79.99968	34.80808
	-79.9991	34.80814
	-79.98773	34.80794
	-79.97353	34.80758
	-79.97089	34.80755
	-79.96833	34.80745
	-79.94775	34.80699
	-79.87485	34.80541
	-79.87076	34.80538
	-79.77612	34.80595
	-79.77374	34.80593
	-79.7628	34.80606
	-79.75213	34.80588
	-79.75228	34.80708
	-79.75209	34.80732
	-79.75151	34.80783
	-79.75115	34.80804
	-79.74929	34.80807
	-79.74858	34.80771
	-79.74813	34.8074
	-79.74791	34.8072
	-79.74784	34.80569
	-79.74597	34.80566
	-79.71231	34.8053
	-79.70058	34.80514
	-79.68761	34.80489
	-79.6753	34.80474
	-79.66929	34.79978
	-79.65921	34.79158
	-79.64801	34.78233
	-79.64415	34.77921
	-79.62436	34.76285
	-79.60892	34.75016
	-79.56934	34.71819
	-79.55491	34.70642
	-79.54189	34.69606
	-79.49977	34.66152
	-79.49623	34.65875
	-79.4902	34.65382
	-79.4899	34.65338
	-79.4896	34.65309
	-79.47917	34.6447
	-79.4716	34.6372
	-79.47118	34.63715
	-79.47066	34.63658
	-79.4701	34.63645
	-79.46872	34.63532
	-79.45977	34.62903
	-79.45486	34.62517
	-79.45428	34.62452
	-79.37477	34.55929
	-79.36563	34.55159
	-79.3598	34.54662
	-79.35787	34.54766
	-79.35775	34.54742
	-79.3577	34.54754
	-79.35752	34.54747
	-79.35697	34.54707
	-79.35695	34.5471
	-79.35231	34.54309
	-79.35187	34.54269
	-79.35168	34.54254
	-79.34716	34.53858
	-79.34594	34.53753
	-79.34563	34.53724
	-79.34341	34.53531
	-79.34097	34.53316
	-79.33982	34.53217
	-79.33968	34.53203
	-79.33852	34.53102
	-79.33691	34.52966
	-79.33566	34.52857
	-79.33512	34.52808
	-79.33507	34.52805
	-79.33444	34.5275
	-79.3338	34.52692
	-79.33209	34.52542
	-79.33156	34.52498
	-79.33074	34.52426
	-79.33028	34.52379
	-79.33006	34.52352
	-79.32976	34.52308
	-79.32957	34.52275
	-79.3302	34.52087
	-79.32482	34.51629
	-79.32461	34.51602
	-79.32303	34.51485
	-79.31661	34.50895
	-79.30665	34.50043
	-79.30649	34.50016
	-79.28386	34.47993
	-79.2751	34.4723
	-79.25787	34.45691
	-79.24977	34.44977
	-79.24917	34.44933
	-79.23567	34.4377
	-79.20271	34.40963
	-79.20268	34.41042
	-79.19985	34.41033
	-79.19944	34.40986
	-79.19901	34.40942
	-79.19091	34.40264
	-79.19091	34.40262
	-79.19089	34.40263
	-79.19055	34.40235
	-79.18987	34.40176
	-79.18961	34.40151
	-79.18936	34.40124
	-79.18914	34.40096
	-79.18898	34.40072
	-79.18873	34.40027
	-79.18838	34.3995
	-79.18814	34.39885
	-79.18736	34.39691
	-79.16142	34.37516
	-79.15899	34.37325
	-79.15239	34.36755
	-79.15327	34.3669
	-79.15227	34.36555
	-79.1526	34.36534
	-79.15229	34.3649
	-79.15193	34.36458
	-79.15179	34.36447
	-79.15167	34.3644
	-79.1513	34.36409
	-79.15072	34.36367
	-79.15056	34.36353
	-79.15032	34.36335
	-79.15001	34.36306
	-79.14969	34.3628
	-79.14913	34.36231
	-79.14783	34.36126
	-79.14777	34.36119
	-79.14678	34.36039
	-79.14597	34.35966
	-79.14576	34.3595
	-79.14499	34.35881
	-79.14492	34.35873
	-79.14441	34.35833
	-79.14427	34.35824
	-79.14428	34.35823
	-79.14404	34.35807
	-79.144	34.35806
	-79.14399	34.35808
	-79.1416	34.35857
	-79.13632	34.35399
	-79.11485	34.33589
	-79.07339	34.30115
	-79.07205	34.30004
	-79.07117	34.29924
	-79.06297	34.29243
	-79.04425	34.27661
	-79.03071	34.26527
	-79.0253	34.26079
	-79.02126	34.25737
	-79.01251	34.25017
	-79.01145	34.24938
	-79.00566	34.24412
	-79.00476	34.24339
	-79.00005	34.23915
	-78.99843	34.23824
	-78.92913	34.18
	-78.90596	34.16055
	-78.90451	34.15937
	-78.90433	34.15928
	-78.90218	34.15739
	-78.87475	34.13439
	-78.87435	34.13386
	-78.83272	34.09879
	-78.82862	34.09515
	-78.8216	34.08924
	-78.82244	34.08839
	-78.82244	34.08807
	-78.82222	34.08715
	-78.82208	34.08689
	-78.8216	34.08628
	-78.82139	34.0861
	-78.82084	34.08577
	-78.82026	34.08554
	-78.81993	34.08539
	-78.81792	34.08614
	-78.81663	34.08505
	-78.81536	34.08403
	-78.78003	34.05421
	-78.77963	34.05406
	-78.77759	34.05215
	-78.7161	34.00017
	-78.71631	34.00017
	-78.71221	33.99673
	-78.71154	33.99603
	-78.71016	33.9948
	-78.71014	33.99469
	-78.70277	33.98927
	-78.69474	33.98237
	-78.69383	33.98151
	-78.67746	33.96758
	-78.66253	33.95452
	-78.62521	33.92311
	-78.6247	33.92284
	-78.61591	33.91551
	-78.58693	33.89059
	-78.58641	33.89013
	-78.58087	33.8854
	-78.58092	33.88536
	-78.58136	33.88476
	-78.58144	33.88461
	-78.58163	33.88384
	-78.58164	33.8837
	-78.58166	33.8831
	-78.58141	33.88208
	-78.58134	33.88195
	-78.58111	33.88161
	-78.58102	33.88151
	-78.58046	33.88106
	-78.58036	33.881
	-78.57965	33.88076
	-78.57961	33.88076
	-78.5793	33.88057
	-78.57924	33.88053
	-78.57921	33.88048
	-78.57873	33.88003
	-78.5781	33.8796
	-78.57758	33.87935
	-78.57725	33.87924
	-78.57628	33.87919
	-78.57567	33.8793
	-78.57496	33.88033
	-78.57316	33.87876
	-78.57198	33.87776
	-78.56597	33.87256
	-78.55094	33.8597
	-78.54795	33.85705
	-78.54173	33.85167
	-78.4993	33.81285
	-78.54489	33.813
	-78.59412	33.82791
	-78.63292	33.81618
	-78.6817	33.79921
	-78.70486	33.78958
	-78.7095	33.78755
	-78.7274	33.77967
	-78.7286	33.77902
	-78.73752	33.77363
	-78.7648	33.75725
	-78.78547	33.74417
	-78.81692	33.72225
	-78.86753	33.6809
	-78.89386	33.6563
	-78.90359	33.64738
	-78.94612	33.60835
	-78.94847	33.60619
	-78.97158	33.58448
	-78.98482	33.57204
	-79.01619	33.52324
	-79.04577	33.5009
	-79.07358	33.47563
	-79.09465	33.44622
	-79.09758	33.44111
	-79.12222	33.39806
	-79.1236	33.39449
	-79.13606	33.36237
	-79.14521	33.31972
	-79.15991	33.27235
	-79.16713	33.2384
	-79.14669	33.20127
	-79.15852	33.15832
	-79.20272	33.147
	-79.22447	33.12496
	-79.25611	33.09464
	-79.30442	33.05633
	-79.34103	32.98674
	-79.46978	32.91772
	-79.61334	33.08748
	-79.72759	33.22139
	-79.79809	33.26278
	-79.9793	33.29582
	-80.05015	33.31516
	-80.11874	33.36165
	-80.14215	33.38835
	-80.15852	33.408
	-80.28539	33.4631
	-80.40893	33.46993
	-80.47836	33.54622
	-80.52001	33.6266
	-80.5841	33.73385
	-80.58357	33.76997
	-80.58228	33.85679
	-80.61433	34.00478
	-80.60578	34.0455
	-80.62002	34.09476
	-80.61361	34.11834
	-80.63213	34.17668
	-80.60258	34.20731
	-80.62821	34.23204
	-80.651	34.24263
	-80.68411	34.27265
	-80.68518	34.30912
	-80.70333	34.33999
	-80.72078	34.3641
	-80.74392	34.37585
	-80.78166	34.38055
	-80.78771	34.41375
	-80.8315	34.41257
	-80.86782	34.44488
	-80.88918	34.46836
	-80.89772	34.48979
	-81.05074	34.49595
	-81.36832	34.49595
	-81.38048	34.52898
	-81.38087	34.5286
	-81.38138	34.52825
	-81.3823	34.52741
	-81.38315	34.52695
	-81.38396	34.52673
	-81.38499	34.52617
	-81.38595	34.52592
	-81.38634	34.52592
	-81.38716	34.5261
	-81.38747	34.52623
	-81.388	34.52659
	-81.38825	34.52682
	-81.38871	34.52756
	-81.38901	34.52799
	-81.38938	34.52934
	-81.38935	34.52964
	-81.38895	34.53067
	-81.38883	34.53083
	-81.38883	34.53087
	-81.3883	34.53187
	-81.38874	34.53244
	-81.3888	34.53266
	-81.38931	34.53302
	-81.38987	34.53362
	-81.38998	34.5338
	-81.39027	34.5349
	-81.39024	34.53579
	-81.39003	34.53663
	-81.38975	34.53718
	-81.38945	34.53762
	-81.38912	34.53799
	-81.38826	34.53855
	-81.38771	34.53873
	-81.38738	34.53881
	-81.38648	34.53972
	-81.38571	34.54011
	-81.3853	34.54026
	-81.38469	34.54042
	-81.42315	34.64487
	-81.44451	34.65718
	-81.45448	34.69055
	-81.45875	34.72568
	-81.47975	34.72396
	-81.48865	34.73625
	-81.4794	34.74796
	-81.45341	34.75995
	-81.45483	34.77165
	-81.45198	34.78598
	-81.46231	34.79826
	-81.48652	34.81755
	-81.45519	34.83626
	-81.45305	34.84853
	-81.46231	34.85642
	-81.47726	34.9011
	-81.47192	34.91716
	-81.47477	34.93672
	-81.49399	34.94518
	-81.4858	34.9694
	-81.47975	34.97465
	-81.47762	34.98661
	-81.48545	34.99799
	-81.48794	35.02773
	-81.49435	35.0324
	-81.49649	35.04289
	-81.52034	35.04784
	-81.5417	35.0595
	-81.55772	35.07087
	-81.57232	35.08427
	-81.57268	35.09447
	-81.57517	35.10874
	-81.59119	35.12796
	-81.6065	35.1431
	-81.61148	35.15562
	-81.61517	35.17218
	-81.61386	35.17279
	-81.61323	35.1745
	-81.58168	35.17308
	-81.57211	35.17288
	-81.56383	35.17236
	-81.52946	35.17125
	-81.50973	35.17039
	-81.50867	35.17083
	-81.50814	35.17103
	-81.50767	35.17123
	-81.50767	35.17122
	-81.50718	35.17143
	-81.50624	35.17168
	-81.50577	35.17176
	-81.50551	35.17179
	-81.50491	35.17183
	-81.50465	35.17183
	-81.50393	35.17187
	-81.50328	35.17187
	-81.50291	35.17185
	-81.50245	35.1718
	-81.50214	35.17175
	-81.5015	35.17159
	-81.50116	35.17147
	-81.5001	35.17099
	-81.4998	35.17084
	-81.49922	35.1706
	-81.49904	35.17051
	-81.49892	35.17047
	-81.49874	35.17047
	-81.49804	35.17073
	-81.49754	35.17094
	-81.49631	35.17142
	-81.49571	35.17162
	-81.49536	35.17171
	-81.49519	35.17174
	-81.49463	35.17181
	-81.49398	35.17185
	-81.49345	35.17184
	-81.49238	35.17179
	-81.49187	35.17175
	-81.49082	35.17159
	-81.48982	35.17141
	-81.4881	35.17115
	-81.48556	35.17073
	-81.48499	35.1706
	-81.48439	35.17043
	-81.48096	35.16935
	-81.47753	35.16918
	-81.47729	35.16923
	-81.47673	35.1693
	-81.47639	35.16932
	-81.47607	35.16932
	-81.47548	35.16927
	-81.47518	35.16922
	-81.47477	35.16913
	-81.47448	35.16905
	-81.47448	35.16904
	-81.47015	35.16887
	-81.46687	35.16886
	-81.46392	35.16874
	-81.46407	35.16911
	-81.463	35.17172
	-81.46038	35.17065
	-81.46037	35.17063
	-81.45972	35.17062
	-81.45857	35.17055
	-81.45826	35.17052
	-81.45785	35.17043
	-81.45739	35.17039
	-81.45712	35.17041
	-81.45603	35.17044
	-81.45529	35.17041
	-81.45484	35.17037
	-81.45427	35.17035
	-81.45366	35.17031
	-81.45243	35.17027
	-81.45049	35.16821
	-81.45071	35.16801
	-81.45024	35.16794
	-81.44296	35.16794
	-81.43583	35.16752
	-81.38577	35.16554
	-81.3666	35.16489
	-81.34931	35.16422
	-81.32802	35.16347
	-81.3171	35.163
	-81.31529	35.16289
	-81.30363	35.16252
	-81.30195	35.16242
	-81.29783	35.16231
	-81.28661	35.16184
	-81.28018	35.16166
	-81.26427	35.16106
	-81.2498	35.16045
	-81.24621	35.16029
	-81.24607	35.16027
	-81.24404	35.16208
	-81.24156	35.16195
	-81.23954	35.15997
	-81.23936	35.15997
	-81.17672	35.15703
	-81.12973	35.15486
	-81.1248	35.15474
	-81.12372	35.15479
	-81.10928	35.15412
	-81.10098	35.15347
	-81.09271	35.15302
	-81.08397	35.15222
	-81.07067	35.15134
	-81.0332	35.1492
	-81.03319	35.14869
	-81.03414	35.14869
	-81.03885	35.14846
	-81.04341	35.14839
	-81.04439	35.14792
	-81.04574	35.14671
	-81.04709	35.14516
	-81.04783	35.14374
	-81.05104	35.13468
	-81.0512	35.13324
	-81.05104	35.13165
	-81.05042	35.13105
	-81.04677	35.12947
	-81.04356	35.12832
	-81.04016	35.12694
	-81.03897	35.1263
	-81.03839	35.12514
	-81.03783	35.12419
	-81.03722	35.12337
	-81.03676	35.12255
	-81.03628	35.12111
	-81.03603	35.11962
	-81.03561	35.11858
	-81.03508	35.11737
	-81.03334	35.11462
	-81.033	35.11375
	-81.03268	35.11251
	-81.03255	35.11138
	-81.03247	35.11003
	-81.03255	35.1091
	-81.0328	35.10805
	-81.03381	35.10558
	-81.03495	35.10411
	-81.03616	35.10321
	-81.03737	35.10254
	-81.03863	35.10216
	-81.04158	35.10161
	-81.04318	35.10139
	-81.04464	35.10111
	-81.04652	35.10062
	-81.04834	35.0998
	-81.05008	35.09882
	-81.05101	35.09775
	-81.05208	35.09628
	-81.05275	35.09485
	-81.05289	35.09374
	-81.05302	35.09308
	-81.05342	35.09215
	-81.05382	35.09142
	-81.05496	35.08999
	-81.05656	35.08778
	-81.05696	35.08701
	-81.05724	35.08613
	-81.05704	35.08436
	-81.05682	35.08327
	-81.0567	35.08211
	-81.0567	35.0799
	-81.0569	35.07891
	-81.05791	35.07567
	-81.05803	35.0745
	-81.05803	35.07319
	-81.05765	35.06243
	-81.05746	35.06198
	-81.05687	35.06127
	-81.05569	35.06012
	-81.05394	35.05869
	-81.05202	35.05722
	-81.05002	35.05525
	-81.04837	35.05343
	-81.04658	35.05128
	-81.0448	35.04874
	-81.04253	35.04626
	-81.04149	35.0447
	-81.03538	35.04807
	-81.03459	35.04856
	-81.03163	35.0502
	-81.02727	35.05273
	-81.02675	35.053
	-81.01298	35.06101
	-81.01036	35.06272
	-81.00207	35.06751
	-81.0	35.06882
	-80.99764	35.06981
	-80.98917	35.07473
	-80.97211	35.08453
	-80.95787	35.09264
	-80.94807	35.09877
	-80.94793	35.09887
	-80.94698	35.09905
	-80.94664	35.09957
	-80.94606	35.09986
	-80.94579	35.10001
	-80.9453	35.10032
	-80.94517	35.10042
	-80.94481	35.10075
	-80.94451	35.10109
	-80.94448	35.10114
	-80.93892	35.1048
	-80.93866	35.10471
	-80.93805	35.10453
	-80.93784	35.10448
	-80.93756	35.10443
	-80.93707	35.10439
	-80.93675	35.10441
	-80.93625	35.1045
	-80.9356	35.10472
	-80.93496	35.10467
	-80.93505	35.10432
	-80.9352	35.10356
	-80.93531	35.10284
	-80.93543	35.10164
	-80.93363	35.09945
	-80.93145	35.10125
	-80.93133	35.10239
	-80.93117	35.10334
	-80.91836	35.08958
	-80.91014	35.08066
	-80.90641	35.07667
	-80.90606	35.07642
	-80.89798	35.06743
	-80.89146	35.06079
	-80.88727	35.0562
	-80.88486	35.05348
	-80.87482	35.04173
	-80.87479	35.04164
	-80.84031	35.00172
	-80.83883	35.00015
	-80.83376	34.99419
	-80.83073	34.99047
	-80.8281	34.98735
	-80.8214	34.97954
	-80.81318	34.97038
	-80.81254	34.96951
	-80.81084	34.96756
	-80.80678	34.96325
	-80.80667	34.96304
	-80.80653	34.96291
	-80.80646	34.96289
	-80.79607	34.95108
	-80.78852	34.94261
	-80.78204	34.93579
	-80.78219	34.93429
	-80.7836	34.92424
	-80.78445	34.91734
	-80.78506	34.91314
	-80.78749	34.89365
	-80.78866	34.8854
	-80.78925	34.88558
	-80.7897	34.88533
	-80.79046	34.88461
	-80.79054	34.88448
	-80.79082	34.8837
	-80.79089	34.88357
	-80.79112	34.88304
	-80.79123	34.88193
	-80.7912	34.88173
	-80.79101	34.88135
	-80.79113	34.8813
	-80.7914	34.88108
	-80.79186	34.88053
	-80.79201	34.88028
	-80.79227	34.87942
	-80.79228	34.87916
	-80.79193	34.87914
	-80.79168	34.87723
	-80.78969	34.87748
	-80.7898	34.87668
	-80.78995	34.87515
	-80.79125	34.86595
	-80.79749	34.81975
	-80.79642	34.81978
	-80.78384	34.81967
	-80.78246	34.81972
	-80.78044	34.81967
	-80.77723	34.81943
	-80.77501	34.81942
	-80.77216	34.81952
	-80.7683	34.81941
	-80.75982	34.81937
	-80.7498	34.81916
	-80.74522	34.8194
	-80.72695	34.81925
	-80.71748	34.81922
	-80.70089	34.81902
	-80.69246	34.81905
	-80.67459	34.81883
	-80.67109	34.81871
	-80.65207	34.81863
	-80.64643	34.81847
	-80.64463	34.81851
	-80.64282	34.81849
	-80.62608	34.81821
	-80.6204	34.81818
	-80.6076	34.81798
	-80.55812	34.81744
	-80.52226	34.81735
	-80.51874	34.81729
	-80.51683	34.81732
	-80.49978	34.81726
END
END
