US_Texas_Tyler
1
	-96.43609	33.69654
	-96.39035	33.73605
	-96.38186	33.73023
	-96.37816	33.7273
	-96.37507	33.7242
	-96.37087	33.72063
	-96.36739	33.71788
	-96.36477	33.71577
	-96.36241	33.71195
	-96.36061	33.70728
	-96.35971	33.70396
	-96.35928	33.69996
	-96.3595	33.69675
	-96.35808	33.69143
	-96.35619	33.69003
	-96.35323	33.688
	-96.34739	33.68686
	-96.34289	33.68789
	-96.33911	33.68946
	-96.33551	33.69293
	-96.331	33.69621
	-96.32529	33.6995
	-96.32057	33.70007
	-96.31748	33.7011
	-96.31362	33.70528
	-96.31092	33.7101
	-96.30946	33.71706
	-96.30813	33.72241
	-96.30727	33.72805
	-96.30821	33.73373
	-96.31006	33.73755
	-96.31006	33.74172
	-96.30718	33.74479
	-96.30517	33.7474
	-96.30384	33.75114
	-96.30143	33.75639
	-96.29903	33.76342
	-96.29577	33.76795
	-96.29212	33.7708
	-96.28834	33.77159
	-96.28199	33.77119
	-96.27538	33.77062
	-96.26847	33.76913
	-96.26126	33.76706
	-96.25616	33.76413
	-96.25418	33.76231
	-96.24976	33.76013
	-96.24427	33.75853
	-96.24144	33.75831
	-96.23779	33.75685
	-96.23453	33.75407
	-96.23049	33.75157
	-96.22745	33.75068
	-96.22436	33.75061
	-96.22079	33.75218
	-96.21616	33.75211
	-96.21049	33.75264
	-96.20384	33.75275
	-96.19801	33.75332
	-96.18775	33.75696
	-96.18015	33.76042
	-96.17616	33.76306
	-96.17294	33.76634
	-96.17011	33.77127
	-96.16908	33.77576
	-96.16848	33.78182
	-96.16788	33.78735
	-96.16642	33.79235
	-96.16646	33.7968
	-96.16758	33.80001
	-96.16749	33.80494
	-96.16569	33.80907
	-96.16114	33.81242
	-96.15702	33.81428
	-96.15406	33.8162
	-96.15037	33.81948
	-96.14556	33.82119
	-96.13951	33.82405
	-96.13462	33.8254
	-96.12947	33.82586
	-96.12501	33.82583
	-96.11878	33.82761
	-96.11501	33.82975
	-96.11312	33.83271
	-96.11033	33.83635
	-96.10788	33.83891
	-96.10535	33.83955
	-96.10175	33.83941
	-96.09874	33.83852
	-96.096	33.83702
	-96.09325	33.83588
	-96.0902	33.83656
	-96.08836	33.83831
	-96.08806	33.84144
	-96.08973	33.84568
	-96.09188	33.84932
	-96.09389	33.8511
	-96.09612	33.85313
	-96.09548	33.85534
	-96.09479	33.85691
	-96.09231	33.85766
	-96.08969	33.85727
	-96.08707	33.85616
	-96.08488	33.85438
	-96.08368	33.85157
	-96.08132	33.84846
	-96.0769	33.84597
	-96.07531	33.84511
	-96.07312	33.84205
	-96.07025	33.83995
	-96.0669	33.83845
	-96.06304	33.83831
	-96.06003	33.83909
	-96.05514	33.84087
	-96.05102	33.84219
	-96.0472	33.84241
	-96.04274	33.84159
	-96.04046	33.84069
	-96.03879	33.84037
	-96.03566	33.84262
	-96.03205	33.84679
	-96.03111	33.84946
	-96.03089	33.851
	-96.03124	33.85463
	-96.03124	33.85802
	-96.03021	33.86276
	-96.0278	33.86493
	-96.0224	33.86529
	-96.01858	33.8644
	-96.01665	33.86311
	-96.01562	33.8619
	-96.0154	33.86023
	-96.01626	33.85791
	-96.0178	33.85656
	-96.01883	33.85385
	-96.01866	33.84925
	-96.01836	33.84625
	-96.01742	33.84469
	-96.0154	33.8438
	-96.01364	33.84351
	-96.01081	33.84494
	-96.00789	33.84586
	-95.99965	33.84797
	-95.99437	33.84975
	-95.98755	33.85214
	-95.98115	33.8547
	-95.97824	33.85531
	-95.97459	33.85581
	-95.96931	33.85677
	-95.96395	33.85787
	-95.95995	33.85873
	-95.95515	33.85951
	-95.9497	33.85969
	-95.94618	33.86101
	-95.94309	33.8624
	-95.94051	33.86614
	-95.93785	33.87081
	-95.93644	33.87473
	-95.93579	33.87847
	-95.93536	33.88161
	-95.9327	33.88417
	-95.92931	33.88613
	-95.92584	33.88599
	-95.92215	33.88478
	-95.91794	33.88264
	-95.91403	33.87947
	-95.91047	33.87744
	-95.90485	33.87494
	-95.89584	33.87113
	-95.89112	33.8671
	-95.88408	33.86379
	-95.87404	33.85884
	-95.86653	33.8557
	-95.86215	33.85392
	-95.86082	33.8526
	-95.85953	33.85096
	-95.85498	33.84978
	-95.85254	33.84832
	-95.84915	33.84511
	-95.84661	33.84251
	-95.84288	33.83888
	-95.83893	33.8367
	-95.83374	33.83592
	-95.82666	33.83652
	-95.82417	33.83759
	-95.81975	33.84148
	-95.81898	33.84262
	-95.81971	33.84786
	-95.82172	33.85146
	-95.82232	33.85524
	-95.82172	33.85809
	-95.81971	33.85948
	-95.81396	33.86037
	-95.80675	33.8614
	-95.80048	33.86222
	-95.79752	33.8614
	-95.79211	33.85976
	-95.78666	33.85777
	-95.78186	33.85577
	-95.77967	33.85402
	-95.77735	33.85107
	-95.77508	33.84943
	-95.77168	33.84822
	-95.76769	33.84704
	-95.76452	33.84704
	-95.76143	33.84832
	-95.75551	33.85199
	-95.75233	33.85559
	-95.75147	33.85876
	-95.75199	33.86162
	-95.75413	33.86489
	-95.75911	33.86978
	-95.76216	33.87245
	-95.76264	33.87363
	-95.76306	33.87459
	-95.76323	33.87872
	-95.76267	33.88121
	-95.75924	33.8878
	-95.75564	33.89244
	-95.75143	33.8955
	-95.74791	33.89685
	-95.74242	33.89692
	-95.73572	33.89678
	-95.72954	33.89586
	-95.72311	33.89336
	-95.71976	33.89058
	-95.71452	33.88631
	-95.71066	33.88517
	-95.70242	33.8856
	-95.69607	33.88688
	-95.69058	33.8888
	-95.68388	33.89222
	-95.67839	33.89664
	-95.67418	33.90163
	-95.66766	33.90775
	-95.66217	33.9101
	-95.65521	33.91082
	-95.65058	33.90925
	-95.6456	33.9074
	-95.63813	33.90469
	-95.63419	33.90469
	-95.63032	33.90562
	-95.62792	33.9074
	-95.62474	33.91252
	-95.6232	33.91658
	-95.62071	33.92186
	-95.61453	33.9267
	-95.60887	33.93118
	-95.60432	33.93254
	-95.60123	33.93232
	-95.59788	33.93325
	-95.59625	33.93702
	-95.59651	33.93987
	-95.59505	33.94315
	-95.59299	33.94358
	-95.58947	33.94258
	-95.58535	33.93852
	-95.57934	33.93282
	-95.57702	33.93275
	-95.57179	33.93375
	-95.56655	33.93382
	-95.56114	33.93254
	-95.5566	33.93005
	-95.55448	33.92816
	-95.55241	33.92516
	-95.55102	33.921
	-95.55059	33.91651
	-95.5499	33.91274
	-95.54818	33.90711
	-95.54793	33.90248
	-95.54904	33.89757
	-95.55102	33.89358
	-95.55127	33.89023
	-95.54939	33.88517
	-95.54621	33.88189
	-95.54355	33.88061
	-95.53909	33.88039
	-95.53325	33.88161
	-95.52827	33.88424
	-95.52398	33.88709
	-95.51995	33.89122
	-95.51557	33.8965
	-95.51213	33.89835
	-95.50879	33.89863
	-95.50518	33.89664
	-95.50415	33.89472
	-95.50398	33.89073
	-95.50501	33.88446
	-95.50467	33.88196
	-95.50527	33.87883
	-95.50518	33.8769
	-95.50407	33.87626
	-95.49892	33.87562
	-95.49351	33.87562
	-95.48003	33.8794
	-95.47514	33.88296
	-95.46879	33.88738
	-95.46416	33.88852
	-95.46004	33.88788
	-95.45686	33.88588
	-95.45351	33.88218
	-95.45154	33.87818
	-95.45051	33.87412
	-95.44974	33.8717
	-95.44836	33.86935
	-95.44304	33.8665
	-95.43823	33.86529
	-95.43403	33.8655
	-95.42965	33.86685
	-95.42502	33.87099
	-95.42287	33.87256
	-95.41772	33.87184
	-95.41334	33.86892
	-95.40871	33.86529
	-95.40382	33.86293
	-95.39875	33.86293
	-95.39309	33.86464
	-95.38579	33.86899
	-95.38004	33.87106
	-95.37524	33.87077
	-95.36906	33.86842
	-95.36365	33.867
	-95.36099	33.86757
	-95.3579	33.86956
	-95.35687	33.87298
	-95.35569	33.87377
	-95.34665	33.87526
	-95.33816	33.87647
	-95.3355	33.87861
	-95.33172	33.88253
	-95.32949	33.88809
	-95.32794	33.89008
	-95.3258	33.89087
	-95.32202	33.89023
	-95.31807	33.88902
	-95.31584	33.88745
	-95.31404	33.8841
	-95.31018	33.87761
	-95.30683	33.87505
	-95.30477	33.87427
	-95.29876	33.87434
	-95.29292	33.87405
	-95.28992	33.8737
	-95.28134	33.87548
	-95.2785	33.87733
	-95.27825	33.88025
	-95.27936	33.88552
	-95.27842	33.8878
	-95.27859	33.89336
	-95.27988	33.89742
	-95.28228	33.90106
	-95.28503	33.90547
	-95.2852	33.90839
	-95.28271	33.91039
	-95.27962	33.91096
	-95.27284	33.91139
	-95.26923	33.91082
	-95.26632	33.90982
	-95.26357	33.90654
	-95.26262	33.90312
	-95.26271	33.90084
	-95.264	33.89464
	-95.26443	33.89073
	-95.26359	33.88868
	-95.26177	33.88802
	-95.25705	33.8913
	-95.25481	33.89486
	-95.25224	33.90027
	-95.25027	33.90569
	-95.24863	33.91188
	-95.24863	33.9163
	-95.24984	33.92321
	-95.25121	33.92962
	-95.2519	33.93382
	-95.25121	33.93823
	-95.24863	33.94258
	-95.24297	33.94714
	-95.23688	33.94998
	-95.23327	33.95112
	-95.23087	33.95219
	-95.22967	33.95525
	-95.22924	33.95817
	-95.22761	33.96209
	-95.22357	33.96323
	-95.21971	33.96323
	-95.21507	33.96273
	-95.21063	33.96161
	-95.20503	33.95917
	-95.20108	33.95717
	-95.19688	33.9549
	-95.18855	33.95134
	-95.17757	33.94913
	-95.16976	33.94621
	-95.16435	33.94329
	-95.15808	33.9393
	-95.15446	33.93803
	-95.14778	33.93553
	-95.14461	33.93489
	-95.1404	33.93489
	-95.13637	33.9356
	-95.13053	33.93752
	-95.12796	33.93788
	-95.12504	33.9371
	-95.12178	33.93446
	-95.11791	33.93083
	-95.11525	33.92741
	-95.11319	33.92342
	-95.11148	33.91751
	-95.1095	33.91146
	-95.1071	33.90861
	-95.10281	33.90797
	-95.09938	33.90797
	-95.09362	33.90982
	-95.08521	33.91431
	-95.08161	33.9163
	-95.07775	33.91872
	-95.07526	33.91879
	-95.07294	33.91687
	-95.07028	33.91302
	-95.06908	33.90996
	-95.06685	33.9059
	-95.06135	33.90184
	-95.05869	33.89757
	-95.05749	33.89571
	-95.05406	33.88873
	-95.05381	33.88282
	-95.05388	33.87754
	-95.05434	33.87157
	-95.05217	33.86942
	-95.04937	33.8683
	-95.04247	33.86885
	-95.03826	33.86921
	-95.03586	33.86814
	-95.03268	33.86493
	-95.02874	33.86179
	-95.02033	33.8588
	-95.01612	33.85823
	-95.01174	33.8583
	-95.00522	33.86101
	-95.00033	33.86607
	-94.99681	33.86842
	-94.99295	33.86899
	-94.98651	33.86792
	-94.98307	33.86571
	-94.98144	33.86122
	-94.98084	33.85816
	-94.98033	33.85595
	-94.97878	33.85231
	-94.97689	33.85046
	-94.97346	33.85153
	-94.96908	33.85374
	-94.9623	33.85795
	-94.95964	33.85909
	-94.95621	33.85823
	-94.95226	33.85452
	-94.94857	33.84925
	-94.9472	33.84519
	-94.94694	33.84169
	-94.94857	33.8367
	-94.95123	33.83285
	-94.95527	33.82672
	-94.95655	33.82437
	-94.95672	33.82273
	-94.95389	33.82023
	-94.95046	33.81895
	-94.94565	33.81816
	-94.94196	33.81681
	-94.93853	33.81695
	-94.93286	33.81873
	-94.92857	33.81866
	-94.92617	33.81831
	-94.92377	33.81667
	-94.92325	33.8146
	-94.92445	33.81146
	-94.92703	33.80811
	-94.92831	33.80618
	-94.92883	33.8049
	-94.92857	33.8034
	-94.9272	33.8024
	-94.92445	33.8019
	-94.92222	33.80276
	-94.92033	33.80433
	-94.91853	33.80725
	-94.91724	33.81103
	-94.91484	33.81253
	-94.91295	33.81267
	-94.91012	33.8121
	-94.9066	33.81039
	-94.9036	33.80768
	-94.90239	33.80576
	-94.90231	33.80354
	-94.90368	33.80176
	-94.90557	33.79705
	-94.90634	33.79377
	-94.90497	33.78536
	-94.90351	33.78072
	-94.90265	33.77508
	-94.90119	33.7718
	-94.89887	33.77002
	-94.89501	33.76845
	-94.89218	33.76845
	-94.8866	33.76952
	-94.88128	33.7708
	-94.87776	33.77102
	-94.87407	33.77066
	-94.86969	33.76937
	-94.86806	33.76823
	-94.86574	33.76588
	-94.86437	33.76281
	-94.8642	33.75917
	-94.86489	33.75525
	-94.86643	33.75047
	-94.86703	33.7474
	-94.86609	33.74547
	-94.86145	33.74297
	-94.85158	33.74076
	-94.84042	33.74047
	-94.83167	33.74169
	-94.82532	33.74297
	-94.81948	33.74568
	-94.81416	33.74861
	-94.80849	33.75025
	-94.80326	33.75182
	-94.7988	33.75196
	-94.79296	33.75075
	-94.78747	33.74947
	-94.78283	33.74847
	-94.78034	33.74547
	-94.77966	33.74311
	-94.78026	33.73883
	-94.78137	33.73298
	-94.7824	33.72834
	-94.7806	33.7242
	-94.77622	33.72091
	-94.77056	33.72013
	-94.76524	33.7217
	-94.76215	33.72534
	-94.75888	33.73226
	-94.75485	33.73583
	-94.75142	33.73726
	-94.746	33.738
	-94.74426	33.73819
	-94.73786	33.7379
	-94.73374	33.73619
	-94.73116	33.73305
	-94.7297	33.72927
	-94.72987	33.72548
	-94.73185	33.71899
	-94.7315	33.7147
	-94.72833	33.70771
	-94.72284	33.69678
	-94.71803	33.69128
	-94.71357	33.68764
	-94.70893	33.68493
	-94.70267	33.685
	-94.69692	33.68607
	-94.68833	33.68821
	-94.67949	33.68978
	-94.67271	33.69207
	-94.6685	33.69278
	-94.66301	33.69278
	-94.65623	33.69121
	-94.64919	33.6895
	-94.64516	33.68621
	-94.64344	33.68286
	-94.64319	33.67657
	-94.64576	33.67107
	-94.64808	33.66743
	-94.64833	33.66478
	-94.64654	33.66301
	-94.64241	33.66307
	-94.63692	33.66536
	-94.63048	33.66886
	-94.62645	33.67457
	-94.62499	33.67786
	-94.62327	33.685
	-94.62267	33.68707
	-94.62035	33.68943
	-94.61821	33.68907
	-94.60834	33.68393
	-94.60611	33.68193
	-94.60516	33.679
	-94.60559	33.67521
	-94.60817	33.66971
	-94.60902	33.66614
	-94.60783	33.66422
	-94.6043	33.66236
	-94.5989	33.66214
	-94.59418	33.663
	-94.5916	33.6645
	-94.58937	33.66757
	-94.58714	33.67214
	-94.58508	33.67693
	-94.58396	33.67986
	-94.58087	33.68171
	-94.57804	33.68214
	-94.57521	33.6815
	-94.57392	33.67943
	-94.57195	33.67536
	-94.57049	33.6715
	-94.57023	33.66721
	-94.57083	33.664
	-94.57272	33.66128
	-94.57589	33.65971
	-94.59031	33.65493
	-94.59409	33.65221
	-94.59598	33.64928
	-94.59624	33.64657
	-94.59332	33.64421
	-94.59074	33.64199
	-94.588	33.64021
	-94.58353	33.63885
	-94.58053	33.63942
	-94.57761	33.64206
	-94.57409	33.64607
	-94.56783	33.65435
	-94.56336	33.65864
	-94.55821	33.66121
	-94.55349	33.66221
	-94.54937	33.662
	-94.54645	33.66107
	-94.54251	33.65728
	-94.54019	33.65371
	-94.54002	33.64849
	-94.54319	33.64328
	-94.54697	33.64121
	-94.55186	33.64142
	-94.56027	33.64228
	-94.5651	33.63936
	-94.56913	33.63585
	-94.57212	33.63342
	-94.57368	33.62942
	-94.57074	33.62656
	-94.56671	33.62284
	-94.56147	33.61977
	-94.5583	33.6192
	-94.55495	33.62048
	-94.55289	33.6222
	-94.55203	33.62513
	-94.55246	33.6272
	-94.55384	33.6297
	-94.55426	33.63213
	-94.55238	33.63485
	-94.54791	33.63606
	-94.54182	33.63713
	-94.53435	33.63921
	-94.53049	33.64092
	-94.52568	33.64314
	-94.5207	33.64464
	-94.51513	33.64435
	-94.51049	33.64314
	-94.50517	33.64092
	-94.50071	33.63792
	-94.49779	33.63585
	-94.49444	33.63613
	-94.48749	33.63785
	-94.48585	33.63802
	-94.48088	33.63906
	-94.47461	33.64006
	-94.46526	33.63963
	-94.46002	33.63842
	-94.45719	33.63706
	-94.45453	33.63385
	-94.45307	33.6292
	-94.45204	33.62384
	-94.45153	33.61562
	-94.44998	33.60797
	-94.44801	33.59832
	-94.44603	33.5946
	-94.44226	33.59225
	-94.43822	33.59203
	-94.43178	33.59346
	-94.42552	33.59439
	-94.42251	33.59339
	-94.4214	33.5881
	-94.422	33.58281
	-94.42097	33.57809
	-94.41608	33.57394
	-94.41101	33.57101
	-94.40835	33.56922
	-94.40321	33.56795
	-94.39818	33.56821
	-94.39299	33.57022
	-94.38904	33.5732
	-94.38749	33.57647
	-94.38767	33.57966
	-94.38767	33.58216
	-94.38698	33.58531
	-94.38363	33.58703
	-94.37994	33.58817
	-94.37617	33.58796
	-94.37127	33.58653
	-94.36767	33.58495
	-94.36604	33.58195
	-94.36638	33.57988
	-94.3687	33.57752
	-94.37076	33.5768
	-94.37428	33.5758
	-94.37702	33.57408
	-94.37943	33.57072
	-94.3808	33.56736
	-94.38329	33.56443
	-94.38913	33.56078
	-94.39462	33.55806
	-94.39771	33.5562
	-94.399	33.55449
	-94.39771	33.55148
	-94.39539	33.55027
	-94.3881	33.54776
	-94.38295	33.54705
	-94.37625	33.54762
	-94.36947	33.54876
	-94.36346	33.55019
	-94.35951	33.55213
	-94.3572	33.55513
	-94.35591	33.55899
	-94.35222	33.56514
	-94.34861	33.5685
	-94.34458	33.57122
	-94.34132	33.57315
	-94.33857	33.57401
	-94.33582	33.57444
	-94.33299	33.57401
	-94.33093	33.57165
	-94.33085	33.5675
	-94.33145	33.56278
	-94.33128	33.56035
	-94.33093	33.55592
	-94.32999	33.55234
	-94.3275	33.55048
	-94.32201	33.54848
	-94.31926	33.54819
	-94.31565	33.54855
	-94.31093	33.54976
	-94.30716	33.5522
	-94.30475	33.55556
	-94.30312	33.55935
	-94.30209	33.56428
	-94.30226	33.56757
	-94.30329	33.57172
	-94.30475	33.57537
	-94.3045	33.57851
	-94.30226	33.58059
	-94.2966	33.58116
	-94.29102	33.58059
	-94.28501	33.58044
	-94.28003	33.58159
	-94.276	33.58245
	-94.27274	33.58223
	-94.27102	33.58023
	-94.27042	33.57858
	-94.27094	33.57673
	-94.27385	33.57437
	-94.28948	33.56393
	-94.29196	33.56099
	-94.29239	33.55913
	-94.29162	33.55677
	-94.2887	33.55484
	-94.28561	33.55456
	-94.27832	33.55613
	-94.2736	33.5577
	-94.27102	33.56014
	-94.26939	33.56307
	-94.26759	33.56736
	-94.26604	33.57237
	-94.2645	33.57773
	-94.26218	33.5813
	-94.25635	33.58502
	-94.25034	33.58845
	-94.24656	33.59038
	-94.2427	33.59145
	-94.23866	33.59153
	-94.23557	33.59017
	-94.23386	33.58674
	-94.23334	33.58223
	-94.2342	33.5783
	-94.23695	33.57437
	-94.2415	33.57108
	-94.24776	33.56743
	-94.25094	33.56629
	-94.25368	33.56378
	-94.25429	33.56171
	-94.25317	33.55885
	-94.25102	33.55713
	-94.23669	33.55298
	-94.2312	33.5532
	-94.22613	33.55399
	-94.22115	33.55606
	-94.21824	33.55835
	-94.21463	33.56099
	-94.21257	33.56521
	-94.21214	33.56893
	-94.2124	33.57258
	-94.21343	33.5758
	-94.21497	33.57937
	-94.21609	33.58202
	-94.21609	33.58366
	-94.2148	33.58452
	-94.21223	33.58538
	-94.2106	33.58566
	-94.2051	33.58559
	-94.19729	33.58509
	-94.18828	33.5843
	-94.1803	33.58595
	-94.17824	33.58731
	-94.17522	33.58975
	-94.16843	33.59218
	-94.16429	33.59269
	-94.16153	33.59243
	-94.15884	33.59164
	-94.15583	33.58985
	-94.1537	33.58675
	-94.15194	33.5833
	-94.15127	33.58033
	-94.15161	33.57772
	-94.15481	33.57208
	-94.15712	33.56736
	-94.15798	33.56264
	-94.15764	33.55964
	-94.15498	33.55763
	-94.14948	33.5578
	-94.14399	33.55906
	-94.1421	33.56201
	-94.13618	33.56686
	-94.13241	33.56943
	-94.12708	33.57208
	-94.12211	33.57208
	-94.11533	33.57122
	-94.10571	33.57022
	-94.09885	33.57015
	-94.09361	33.57079
	-94.08692	33.57272
	-94.08134	33.57573
	-94.07799	33.57944
	-94.07507	33.58173
	-94.07181	33.58259
	-94.06955	33.58276
	-94.06595	33.58058
	-94.06443	33.57737
	-94.0649	33.57471
	-94.06494	33.57115
	-94.06331	33.56707
	-94.06022	33.56407
	-94.05327	33.55935
	-94.04958	33.55677
	-94.04589	33.55306
	-94.04426	33.55177
	-94.04337	33.54232
	-94.04315	33.51178
	-94.04179	33.51045
	-94.04178	33.50908
	-94.04158	33.49754
	-94.04156	33.49703
	-94.04151	33.49659
	-94.04127	33.49509
	-94.04109	33.49363
	-94.04106	33.49284
	-94.04107	33.49197
	-94.04112	33.49156
	-94.04302	33.4898
	-94.04327	33.49
	-94.04325	33.48444
	-94.04361	33.48444
	-94.04426	33.4844
	-94.04507	33.4844
	-94.04552	33.48443
	-94.04609	33.4844
	-94.04629	33.48436
	-94.04788	33.4824
	-94.04788	33.48092
	-94.04668	33.47967
	-94.04677	33.47961
	-94.0466	33.47934
	-94.04623	33.4789
	-94.04608	33.47876
	-94.04553	33.47842
	-94.04535	33.47834
	-94.0448	33.47819
	-94.04434	33.47815
	-94.04322	33.47815
	-94.04316	33.4666
	-94.04412	33.4666
	-94.04611	33.46461
	-94.04611	33.46438
	-94.04411	33.46237
	-94.04314	33.46237
	-94.043	33.43832
	-94.04302	33.4261
	-94.04291	33.41321
	-94.04304	33.38121
	-94.04304	33.38122
	-94.04506	33.37923
	-94.04501	33.37711
	-94.04503	33.37624
	-94.04507	33.37592
	-94.04519	33.37441
	-94.04526	33.37262
	-94.04524	33.3721
	-94.0452	33.37174
	-94.04513	33.37143
	-94.04495	33.37092
	-94.0449	33.37065
	-94.04507	33.37
	-94.04512	33.3697
	-94.04514	33.36946
	-94.04514	33.36917
	-94.0451	33.36834
	-94.04513	33.36367
	-94.04517	33.36323
	-94.04523	33.35954
	-94.04521	33.35868
	-94.04508	33.35669
	-94.04507	33.35598
	-94.04519	33.35468
	-94.0452	33.35444
	-94.04515	33.35258
	-94.04513	33.35232
	-94.04495	33.35126
	-94.0448	33.35067
	-94.0446	33.35001
	-94.04456	33.3498
	-94.04457	33.34965
	-94.04466	33.34919
	-94.04483	33.34852
	-94.04499	33.34769
	-94.04502	33.34734
	-94.04502	33.34547
	-94.0451	33.34495
	-94.04515	33.34389
	-94.04509	33.34134
	-94.04509	33.33979
	-94.04431	33.33979
	-94.04425	33.33946
	-94.04509	33.33945
	-94.04504	33.3353
	-94.04514	33.33222
	-94.04511	33.3315
	-94.04512	33.33068
	-94.04503	33.33013
	-94.04485	33.32967
	-94.04478	33.32953
	-94.04306	33.329
	-94.04299	33.27123
	-94.04305	33.2609
	-94.043	33.25013
	-94.04273	33.24182
	-94.04288	33.21522
	-94.04289	33.20267
	-94.04272	33.16029
	-94.04318	33.14348
	-94.04301	33.13389
	-94.04287	33.09273
	-94.04304	33.07948
	-94.04296	33.01921
	-94.04299	33.00749
	-94.04304	32.9569
	-94.04444	32.95682
	-94.04471	32.95646
	-94.0449	32.95606
	-94.04502	32.95554
	-94.04503	32.9553
	-94.045	32.95369
	-94.04501	32.95171
	-94.04509	32.95003
	-94.04508	32.94786
	-94.04505	32.94684
	-94.04505	32.9463
	-94.04509	32.94141
	-94.04509	32.94109
	-94.04506	32.94052
	-94.04506	32.93875
	-94.04509	32.93832
	-94.0451	32.93777
	-94.04317	32.93571
	-94.04307	32.9358
	-94.04309	32.9115
	-94.04192	32.91139
	-94.04179	32.91153
	-94.04165	32.91137
	-94.04156	32.91136
	-94.04157	32.91127
	-94.04138	32.91104
	-94.04117	32.91062
	-94.04106	32.9102
	-94.04103	32.90983
	-94.04102	32.90941
	-94.04106	32.90461
	-94.04103	32.89815
	-94.04101	32.89748
	-94.0409	32.89626
	-94.04089	32.8958
	-94.04105	32.89248
	-94.04104	32.89089
	-94.04108	32.88145
	-94.04107	32.88119
	-94.0411	32.88035
	-94.04298	32.87861
	-94.04278	32.87149
	-94.04283	32.85423
	-94.04277	32.85428
	-94.04262	32.85427
	-94.04202	32.85418
	-94.0417	32.85411
	-94.04121	32.85396
	-94.04073	32.85374
	-94.04044	32.85356
	-94.04005	32.85324
	-94.03981	32.85299
	-94.03928	32.85182
	-94.03924	32.85145
	-94.03945	32.85033
	-94.03957	32.85011
	-94.04005	32.84951
	-94.04085	32.84881
	-94.04132	32.84849
	-94.04137	32.8484
	-94.04155	32.84834
	-94.04165	32.84827
	-94.04167	32.8483
	-94.04285	32.84794
	-94.04296	32.80708
	-94.04303	32.79748
	-94.04279	32.78876
	-94.0443	32.78715
	-94.04454	32.7872
	-94.0446	32.78685
	-94.0449	32.78572
	-94.04496	32.78544
	-94.04498	32.78525
	-94.04499	32.78502
	-94.04494	32.7811
	-94.04506	32.7809
	-94.04534	32.77982
	-94.04532	32.77881
	-94.04517	32.77661
	-94.04497	32.77462
	-94.04496	32.7744
	-94.04497	32.77307
	-94.04503	32.77281
	-94.04511	32.77228
	-94.04517	32.77095
	-94.04518	32.77062
	-94.04517	32.76861
	-94.04515	32.76825
	-94.04505	32.76779
	-94.04476	32.76704
	-94.04477	32.76691
	-94.04475	32.7665
	-94.04462	32.76597
	-94.04452	32.76572
	-94.04439	32.76547
	-94.04424	32.76522
	-94.04408	32.76502
	-94.04401	32.7645
	-94.04391	32.7641
	-94.04385	32.76392
	-94.04296	32.76207
	-94.04297	32.75969
	-94.04338	32.7595
	-94.04355	32.7594
	-94.04393	32.7591
	-94.04411	32.75892
	-94.04448	32.7584
	-94.04457	32.75822
	-94.04473	32.75775
	-94.04479	32.75747
	-94.04483	32.75699
	-94.04482	32.75627
	-94.04488	32.75268
	-94.04487	32.75171
	-94.04499	32.75024
	-94.04502	32.74963
	-94.04501	32.74863
	-94.04497	32.74747
	-94.04495	32.74711
	-94.04485	32.74625
	-94.04484	32.74596
	-94.04485	32.74538
	-94.04491	32.74464
	-94.04493	32.74388
	-94.04492	32.7436
	-94.04486	32.74303
	-94.04474	32.7425
	-94.04457	32.74203
	-94.04443	32.74173
	-94.04426	32.74142
	-94.04337	32.74004
	-94.04356	32.7396
	-94.04382	32.73887
	-94.0444	32.73739
	-94.04465	32.73657
	-94.04476	32.73593
	-94.04478	32.73549
	-94.04475	32.73517
	-94.04471	32.73494
	-94.0445	32.73436
	-94.04445	32.73427
	-94.04444	32.732
	-94.04305	32.73056
	-94.04315	32.69303
	-94.04291	32.65513
	-94.04296	32.64828
	-94.04278	32.64347
	-94.04282	32.6403
	-94.04293	32.62201
	-94.04292	32.61014
	-94.04308	32.56426
	-94.04314	32.5595
	-94.04309	32.51839
	-94.04416	32.51882
	-94.04522	32.5162
	-94.04513	32.51598
	-94.04494	32.51563
	-94.0449	32.51451
	-94.04489	32.51374
	-94.045	32.51292
	-94.04504	32.51194
	-94.04515	32.51091
	-94.04516	32.51068
	-94.04514	32.50965
	-94.04509	32.50874
	-94.04508	32.50779
	-94.04505	32.50734
	-94.04503	32.50616
	-94.04498	32.50521
	-94.04495	32.504
	-94.04495	32.5033
	-94.0449	32.50164
	-94.0449	32.49999
	-94.04492	32.49956
	-94.04494	32.49823
	-94.04491	32.4978
	-94.04484	32.4973
	-94.04482	32.4966
	-94.04472	32.49562
	-94.04469	32.49491
	-94.04472	32.49411
	-94.04479	32.49388
	-94.04484	32.49361
	-94.04492	32.49302
	-94.04496	32.49254
	-94.04499	32.49156
	-94.045	32.49019
	-94.04499	32.48696
	-94.04502	32.48677
	-94.04504	32.48638
	-94.04502	32.48523
	-94.04503	32.48406
	-94.045	32.48205
	-94.04491	32.48119
	-94.04498	32.4807
	-94.04509	32.4792
	-94.04511	32.47859
	-94.04507	32.4781
	-94.04503	32.47792
	-94.04501	32.47768
	-94.04488	32.47285
	-94.04289	32.47096
	-94.04291	32.44222
	-94.043	32.44216
	-94.04367	32.44184
	-94.04455	32.44105
	-94.04463	32.44091
	-94.04491	32.4399
	-94.04494	32.43552
	-94.04301	32.43356
	-94.0429	32.40066
	-94.04292	32.39992
	-94.04298	32.39228
	-94.04291	32.37334
	-94.04292	32.36358
	-94.04284	32.34816
	-94.04283	32.31244
	-94.04273	32.2697
	-94.04266	32.21815
	-94.04283	32.19124
	-94.04308	32.0364
	-94.04191	31.99385
	-94.15664	32.00339
	-94.36007	31.96309
	-94.49136	31.96078
	-94.49277	31.96003
	-94.49346	31.95952
	-94.49374	31.95935
	-94.49508	31.95866
	-94.49548	31.95851
	-94.49591	31.95839
	-94.49646	31.95833
	-94.49772	31.95835
	-94.49819	31.95841
	-94.49842	31.95847
	-94.49917	31.95802
	-94.49994	31.95775
	-94.50028	31.9577
	-94.50055	31.95769
	-94.50711	31.95769
	-94.50732	31.9577
	-94.50818	31.95779
	-94.50848	31.95785
	-94.51004	31.95826
	-94.51118	31.95871
	-94.51147	31.95886
	-94.5119	31.95914
	-94.51246	31.95948
	-94.51268	31.9604
	-94.61322	31.95863
	-94.72386	31.96218
	-94.83985	31.94052
	-94.9559	31.91149
	-95.10922	31.92911
	-95.12754	32.01513
	-95.19901	32.03532
	-95.32361	32.02341
	-95.33116	32.02144
	-95.33124	32.02341
	-95.33284	32.02529
	-95.33682	32.02609
	-95.33827	32.02583
	-95.33875	32.02554
	-95.33904	32.02532
	-95.34022	32.02425
	-95.34118	32.02378
	-95.344	32.02209
	-95.34478	32.02122
	-95.34494	32.02088
	-95.34326	32.01829
	-95.48243	31.98198
	-95.6507	32.01604
	-95.83517	31.99533
	-95.86921	31.99065
	-95.87053	31.99139
	-95.87093	31.9916
	-95.87138	31.99181
	-95.87174	31.99195
	-95.87234	31.99216
	-95.87282	31.99229
	-95.87322	31.99238
	-95.87371	31.99247
	-95.87395	31.99249
	-95.8752	31.99256
	-95.87548	31.99256
	-95.87633	31.99249
	-95.8775	31.99236
	-95.88	31.99214
	-95.88376	31.99175
	-95.88466	31.9916
	-95.88551	31.9914
	-95.88568	31.99134
	-95.88711	31.99082
	-95.89011	31.98967
	-95.89692	31.98702
	-95.89712	31.98672
	-95.89841	31.98516
	-95.89872	31.98486
	-95.90117	31.98296
	-95.90139	31.98281
	-95.90198	31.98247
	-95.90229	31.98232
	-95.9031	31.98202
	-95.90441	31.98168
	-95.90494	31.98162
	-95.90604	31.98165
	-95.90644	31.9817
	-95.90735	31.9819
	-95.9077	31.98203
	-95.90795	31.98194
	-95.90874	31.98184
	-95.90907	31.98186
	-95.91022	31.98233
	-95.91232	31.98412
	-95.91258	31.9847
	-95.98238	31.97512
	-96.11004	31.96217
	-96.25113	31.9746
	-96.37818	31.93677
	-96.52661	31.97305
	-96.63608	32.0148
	-96.63594	32.01501
	-96.63587	32.0155
	-96.63616	32.01665
	-96.63619	32.0167
	-96.63685	32.01736
	-96.63755	32.01765
	-96.63782	32.0177
	-96.63841	32.01769
	-96.63851	32.01767
	-96.63911	32.01746
	-96.63919	32.01742
	-96.63988	32.01682
	-96.63991	32.01678
	-96.63987	32.01651
	-96.63996	32.01648
	-96.63989	32.01626
	-96.65427	32.02174
	-96.73138	31.99509
	-96.73139	31.99553
	-96.73142	31.99557
	-96.73239	31.9964
	-96.73246	31.99643
	-96.73312	31.99657
	-96.73356	31.99655
	-96.73445	31.99619
	-96.73451	31.99615
	-96.73526	31.99511
	-96.73527	31.99508
	-96.7351	31.99396
	-96.73516	31.99384
	-96.73509	31.99381
	-96.76666	31.98289
	-96.87826	31.94485
	-96.87799	31.94374
	-96.87911	31.94188
	-96.8808	31.94092
	-96.88098	31.94091
	-96.88165	31.94102
	-96.88389	31.94179
	-96.88462	31.94197
	-96.88498	31.94256
	-96.90043	31.93729
	-97.00549	31.88803
	-97.19179	31.80346
	-97.35915	31.77957
	-97.51246	31.75984
	-97.69109	31.70997
	-97.7988	31.68079
	-97.7991	31.68136
	-97.79917	31.68159
	-97.79929	31.68311
	-97.79982	31.68432
	-97.79993	31.68443
	-97.80111	31.68505
	-97.80175	31.68514
	-97.80243	31.68512
	-97.803	31.685
	-97.80364	31.68475
	-97.80382	31.68464
	-97.80459	31.68379
	-97.80488	31.68317
	-97.80504	31.6827
	-97.80505	31.68262
	-97.80563	31.68123
	-97.80592	31.68139
	-97.80646	31.68165
	-97.80739	31.68183
	-97.80795	31.68181
	-97.80943	31.68107
	-97.80967	31.68078
	-97.8101	31.67926
	-97.81001	31.67856
	-97.81001	31.67811
	-97.81013	31.67772
	-97.81088	31.67752
	-97.81093	31.67756
	-97.81203	31.678
	-97.81233	31.67803
	-97.81378	31.67756
	-97.81391	31.67744
	-97.81433	31.67658
	-97.84841	31.66735
	-97.89319	31.65016
	-97.89322	31.6508
	-97.89347	31.65103
	-97.89398	31.65137
	-97.89436	31.65154
	-97.89519	31.65172
	-97.89562	31.65172
	-97.89762	31.64972
	-97.89762	31.64846
	-98.03532	31.59558
	-98.21372	31.58054
	-98.21423	31.57932
	-98.21659	31.57815
	-98.21954	31.57893
	-98.22052	31.57997
	-98.24619	31.5778
	-98.24707	31.5754
	-98.2485	31.57414
	-98.2489	31.57405
	-98.24986	31.57419
	-98.24987	31.57412
	-98.25086	31.57431
	-98.25927	31.5767
	-98.2657	31.57616
	-98.2653	31.57528
	-98.26714	31.57445
	-98.26708	31.57416
	-98.26806	31.57394
	-98.26921	31.57404
	-98.27056	31.57456
	-98.27106	31.57571
	-98.31773	31.57177
	-98.47715	31.72724
	-98.50341	31.81708
	-98.49914	31.91409
	-98.548	31.98302
	-98.58099	32.01358
	-98.59809	32.10262
	-98.54983	32.16107
	-98.45882	32.21587
	-98.46121	32.24035
	-98.46011	32.23943
	-98.45829	32.24159
	-98.45832	32.24199
	-98.45839	32.24239
	-98.45844	32.24255
	-98.45847	32.24261
	-98.45846	32.24282
	-98.45847	32.24294
	-98.45864	32.24361
	-98.45868	32.2437
	-98.45892	32.2441
	-98.45894	32.24413
	-98.45895	32.24414
	-98.4592	32.24442
	-98.45925	32.24446
	-98.4596	32.24466
	-98.4596	32.24467
	-98.45966	32.24507
	-98.45992	32.24607
	-98.45996	32.2462
	-98.46001	32.24635
	-98.46022	32.2468
	-98.4603	32.24691
	-98.46067	32.24734
	-98.46071	32.24738
	-98.46138	32.24776
	-98.46148	32.2478
	-98.46199	32.24842
	-98.46438	32.273
	-98.46439	32.273
	-98.46501	32.27273
	-98.46613	32.27532
	-98.46492	32.27839
	-98.46491	32.27841
	-98.46491	32.27842
	-98.46564	32.28589
	-98.46571	32.28596
	-98.46573	32.28599
	-98.46682	32.28708
	-98.46684	32.2871
	-98.46741	32.28769
	-98.46744	32.28772
	-98.46753	32.28782
	-98.46763	32.28793
	-98.46777	32.2881
	-98.46783	32.28818
	-98.46804	32.28847
	-98.46817	32.28868
	-98.46825	32.28883
	-98.46837	32.28907
	-98.46842	32.28921
	-98.46855	32.2898
	-98.46856	32.28997
	-98.46855	32.29032
	-98.46853	32.2905
	-98.46852	32.2906
	-98.46844	32.29105
	-98.46844	32.29109
	-98.46849	32.29135
	-98.46858	32.29172
	-98.46861	32.29186
	-98.46871	32.29237
	-98.46878	32.29279
	-98.46882	32.29306
	-98.46882	32.2932
	-98.46881	32.29354
	-98.46879	32.29368
	-98.46872	32.29403
	-98.46865	32.29423
	-98.46845	32.29467
	-98.46826	32.29499
	-98.46815	32.29526
	-98.46811	32.29536
	-98.46814	32.29587
	-98.46814	32.29594
	-98.46816	32.29691
	-98.46816	32.29697
	-98.46814	32.29879
	-98.46813	32.29978
	-98.46813	32.30251
	-98.46813	32.30258
	-98.46812	32.30298
	-98.46812	32.30299
	-98.4681	32.30324
	-98.4681	32.30409
	-98.4681	32.3041
	-98.46809	32.30625
	-98.46809	32.3072
	-98.46808	32.30915
	-98.46808	32.3109
	-98.46808	32.31099
	-98.48219	32.45609
	-98.3356	32.49523
	-98.23187	32.52267
	-98.22819	32.52389
	-98.22737	32.52293
	-98.22731	32.52291
	-98.22664	32.52273
	-98.2265	32.52271
	-98.22632	32.5227
	-98.226	32.5227
	-98.22576	32.52272
	-98.2255	32.52275
	-98.22507	32.52285
	-98.225	32.52288
	-98.22455	32.52311
	-98.22453	32.52312
	-98.22446	32.52311
	-98.22438	32.52311
	-98.22352	32.52338
	-98.22333	32.52338
	-98.22319	32.5234
	-98.22271	32.52351
	-98.22264	32.52354
	-98.22242	32.52365
	-98.22215	32.52366
	-98.22175	32.52372
	-98.22165	32.52374
	-98.22155	32.52378
	-98.22138	32.52375
	-98.22091	32.52353
	-98.22055	32.52341
	-98.22038	32.52337
	-98.21969	32.52333
	-98.21943	32.52336
	-98.21936	32.52337
	-98.21901	32.52343
	-98.2184	32.52348
	-98.21834	32.52348
	-98.21809	32.52351
	-98.21764	32.52362
	-98.21751	32.52366
	-98.21707	32.52389
	-98.21692	32.52399
	-98.21665	32.52415
	-98.21645	32.52428
	-98.21615	32.5245
	-98.21596	32.52466
	-98.2157	32.52491
	-98.21548	32.52517
	-98.21544	32.5252
	-98.21528	32.52528
	-98.21503	32.52544
	-98.21496	32.52549
	-98.21472	32.52571
	-98.21457	32.52585
	-98.21424	32.52603
	-98.21416	32.52609
	-98.21373	32.52649
	-98.21361	32.52664
	-98.21335	32.52707
	-98.2132	32.52741
	-98.21303	32.52806
	-98.21303	32.52815
	-98.21305	32.52868
	-98.21307	32.52881
	-98.21311	32.52891
	-98.13899	32.55354
	-98.03526	32.58724
	-97.90522	32.60569
	-97.84727	32.60752
	-97.84724	32.60818
	-97.84708	32.6085
	-97.84664	32.60907
	-97.84629	32.60939
	-97.84583	32.60971
	-97.84407	32.61058
	-97.84393	32.61072
	-97.8436	32.61145
	-97.84306	32.61217
	-97.84271	32.61247
	-97.84279	32.61285
	-97.84282	32.61326
	-97.84061	32.61538
	-97.84048	32.61537
	-97.8404	32.61536
	-97.83928	32.61486
	-97.83879	32.61443
	-97.83854	32.61416
	-97.83808	32.61356
	-97.83783	32.61309
	-97.83769	32.61293
	-97.83685	32.61158
	-97.83629	32.61105
	-97.83484	32.61041
	-97.83447	32.6102
	-97.83277	32.60895
	-97.83201	32.60854
	-97.8317	32.60844
	-97.83028	32.60828
	-97.82979	32.60807
	-97.82851	32.60811
	-97.76428	32.60569
	-97.60416	32.61295
	-97.57348	32.53862
	-97.49677	32.46827
	-97.43157	32.42944
	-97.38563	32.43019
	-97.38592	32.43075
	-97.38591	32.43079
	-97.3859	32.43083
	-97.38589	32.43086
	-97.38578	32.43112
	-97.38577	32.43115
	-97.38568	32.43131
	-97.38566	32.43134
	-97.38558	32.43145
	-97.38556	32.43149
	-97.38539	32.43169
	-97.38538	32.4317
	-97.38511	32.43195
	-97.3851	32.43195
	-97.38488	32.43209
	-97.38487	32.4321
	-97.3846	32.43222
	-97.38444	32.43227
	-97.38443	32.43228
	-97.38273	32.43199
	-97.38272	32.43198
	-97.38228	32.43156
	-97.38227	32.43155
	-97.38205	32.43117
	-97.38204	32.43115
	-97.38194	32.43088
	-97.38193	32.43085
	-97.38189	32.4307
	-97.38188	32.43065
	-97.38186	32.43054
	-97.38185	32.43051
	-97.38183	32.43025
	-97.28392	32.43186
	-97.16887	32.444
	-97.13016	32.40989
	-97.13019	32.40976
	-97.12924	32.40834
	-97.12856	32.40728
	-97.12855	32.40727
	-97.12772	32.406
	-97.12752	32.40574
	-97.12744	32.40565
	-97.12711	32.40536
	-97.12702	32.40529
	-97.12668	32.40511
	-97.12661	32.40507
	-97.12627	32.40496
	-97.12611	32.40492
	-97.12505	32.40328
	-97.12503	32.40326
	-97.12462	32.40264
	-97.12459	32.4026
	-97.12423	32.40202
	-97.12419	32.40196
	-97.12409	32.40181
	-97.12397	32.40166
	-97.12392	32.40159
	-97.12368	32.40136
	-97.12362	32.4013
	-97.12336	32.40111
	-97.12329	32.40107
	-97.12296	32.40091
	-97.12288	32.40088
	-97.12257	32.40078
	-97.12248	32.40077
	-97.12222	32.40073
	-97.12214	32.40073
	-97.12188	32.40072
	-97.12179	32.40073
	-97.12163	32.40075
	-97.12079	32.40086
	-97.12008	32.40096
	-97.12005	32.40097
	-97.10367	32.38654
	-97.03555	32.37421
	-97.03511	32.37443
	-97.0351	32.37443
	-97.03452	32.37472
	-97.03439	32.37478
	-97.03419	32.37486
	-97.03326	32.37532
	-97.0332	32.37535
	-97.03281	32.37552
	-97.03214	32.37584
	-97.03189	32.37597
	-97.03173	32.37605
	-97.03158	32.37611
	-97.03116	32.37622
	-97.03105	32.37624
	-97.03054	32.37626
	-97.03045	32.37625
	-97.02986	32.3761
	-97.02978	32.37607
	-97.02909	32.37559
	-97.02905	32.37555
	-97.02888	32.37535
	-97.02859	32.37494
	-97.02854	32.37487
	-97.02839	32.37463
	-97.02835	32.37456
	-97.02821	32.37433
	-97.02759	32.37343
	-97.02756	32.37339
	-97.02738	32.37311
	-97.02709	32.37268
	-96.98286	32.36467
	-96.96309	32.35307
	-96.96315	32.353
	-96.96318	32.35295
	-96.96344	32.35235
	-96.96345	32.35231
	-96.96346	32.35141
	-96.96345	32.35137
	-96.96304	32.35052
	-96.96299	32.35045
	-96.96265	32.35013
	-96.96238	32.34993
	-96.96224	32.34983
	-96.96214	32.34976
	-96.96005	32.34974
	-96.9599	32.34983
	-96.95976	32.3499
	-96.95958	32.35001
	-96.95952	32.35005
	-96.95936	32.35016
	-96.95925	32.35025
	-96.95906	32.35042
	-96.959	32.35049
	-96.95891	32.35061
	-96.89177	32.31121
	-96.79877	32.31445
	-96.76541	32.34067
	-96.76517	32.34175
	-96.76506	32.34234
	-96.76505	32.34238
	-96.76493	32.34299
	-96.76491	32.34307
	-96.76474	32.34374
	-96.76471	32.34385
	-96.76467	32.34399
	-96.76424	32.34568
	-96.76379	32.34755
	-96.76378	32.34758
	-96.76353	32.34853
	-96.76306	32.35042
	-96.76304	32.35051
	-96.76301	32.35061
	-96.76287	32.35121
	-96.7608	32.35275
	-96.76072	32.35275
	-96.75995	32.35255
	-96.7598	32.35247
	-96.75957	32.35234
	-96.75905	32.35199
	-96.75902	32.35197
	-96.75845	32.35157
	-96.75841	32.35155
	-96.75816	32.35137
	-96.75711	32.35068
	-96.75706	32.35066
	-96.75615	32.35003
	-96.75595	32.34991
	-96.70289	32.45128
	-96.6494	32.46363
	-96.6493	32.46372
	-96.64814	32.46484
	-96.64805	32.46492
	-96.64783	32.4651
	-96.6477	32.4652
	-96.6476	32.46528
	-96.64751	32.46534
	-96.64736	32.46543
	-96.64719	32.46552
	-96.64697	32.46564
	-96.64685	32.4657
	-96.64644	32.46587
	-96.64637	32.4659
	-96.64605	32.46602
	-96.64596	32.46605
	-96.64487	32.4664
	-96.64479	32.46644
	-96.64443	32.4666
	-96.64344	32.46709
	-96.64329	32.46716
	-96.64309	32.46724
	-96.64246	32.46738
	-96.6423	32.46739
	-96.64194	32.46737
	-96.64187	32.46737
	-96.64136	32.46723
	-96.64121	32.46717
	-96.64094	32.46703
	-96.64084	32.46698
	-96.64055	32.46676
	-96.64041	32.46664
	-96.64023	32.46647
	-96.64006	32.46627
	-96.63994	32.46625
	-96.6397	32.46618
	-96.63954	32.46613
	-96.6392	32.46598
	-96.60626	32.47358
	-96.52287	32.50904
	-96.47473	32.56391
	-96.48625	32.60732
	-96.49371	32.64843
	-96.53778	32.67526
	-96.53981	32.70094
	-96.51405	32.72489
	-96.52219	32.81952
	-96.49914	32.87193
	-96.48761	32.91462
	-96.50659	32.9425
	-96.49507	32.96526
	-96.47541	33.00336
	-96.47609	33.04259
	-96.47134	33.09315
	-96.4449	33.13574
	-96.41168	33.18398
	-96.44422	33.32685
	-96.44964	33.461
	-96.45241	33.48768
	-96.45197	33.48777
	-96.45167	33.48822
	-96.45115	33.48886
	-96.4507	33.49015
	-96.45073	33.49187
	-96.45078	33.49228
	-96.45094	33.49301
	-96.45106	33.49336
	-96.45141	33.49419
	-96.45181	33.49478
	-96.45191	33.49489
	-96.45321	33.49546
	-96.45875	33.54897
	-96.45891	33.54886
	-96.45905	33.54906
	-96.46039	33.54783
	-96.4623	33.54991
	-96.46229	33.55022
	-96.46195	33.55125
	-96.46169	33.55163
	-96.46132	33.552
	-96.46167	33.55249
	-96.46204	33.55352
	-96.46207	33.55392
	-96.46173	33.55517
	-96.46148	33.55553
	-96.46113	33.55593
	-96.46091	33.55612
	-96.46074	33.55632
	-96.46038	33.55666
	-96.4596	33.55723
	-96.46117	33.57236
	-96.43609	33.69654
END
END
