US_Texas_Victoria
1
	-96.15723	30.09338
	-96.15692	30.09155
	-96.15913	30.08933
	-96.16242	30.0867
	-96.16247	30.08579
	-96.16099	30.08345
	-96.15998	30.08249
	-96.15681	30.08238
	-96.153	30.085
	-96.14977	30.08626
	-96.14775	30.08435
	-96.14689	30.0802
	-96.13921	30.07489
	-96.13677	30.07068
	-96.13947	30.0694
	-96.14154	30.07039
	-96.14407	30.07277
	-96.14715	30.07471
	-96.14923	30.07524
	-96.14984	30.07343
	-96.14989	30.07252
	-96.14795	30.06878
	-96.14535	30.06778
	-96.14553	30.06412
	-96.1441	30.06086
	-96.14108	30.05755
	-96.12764	30.05158
	-96.12079	30.05134
	-96.11661	30.05027
	-96.11264	30.04509
	-96.11024	30.03997
	-96.11092	30.03678
	-96.11369	30.03413
	-96.11487	30.03142
	-96.11502	30.02822
	-96.11249	30.02585
	-96.10725	30.0252
	-96.10086	30.02635
	-96.10064	30.02634
	-96.09886	30.02758
	-96.09797	30.02742
	-96.09758	30.02731
	-96.097	30.02708
	-96.09649	30.02678
	-96.09618	30.02653
	-96.09569	30.02597
	-96.09553	30.02569
	-96.09513	30.02545
	-96.09444	30.02475
	-96.09399	30.024
	-96.09384	30.02368
	-96.09342	30.02256
	-96.09337	30.02233
	-96.0931	30.02203
	-96.09266	30.02124
	-96.09245	30.02051
	-96.09237	30.01982
	-96.09242	30.01912
	-96.09241	30.01905
	-96.09227	30.01864
	-96.09224	30.01823
	-96.09241	30.01822
	-96.09239	30.01629
	-96.09241	30.01629
	-96.08994	30.01175
	-96.08849	30.00896
	-96.08669	30.00248
	-96.08844	29.99887
	-96.09222	29.99717
	-96.09533	29.9982
	-96.0973	30.00102
	-96.09825	30.00335
	-96.09977	30.00478
	-96.10348	30.00445
	-96.10586	29.99858
	-96.10578	29.99655
	-96.10443	29.99584
	-96.10366	29.9947
	-96.10345	29.99427
	-96.10326	29.99377
	-96.10314	29.99299
	-96.10317	29.99242
	-96.1034	29.99158
	-96.10356	29.99128
	-96.10406	29.99067
	-96.10418	29.99056
	-96.10265	29.98838
	-96.09975	29.98278
	-96.09888	29.97909
	-96.09949	29.97727
	-96.10606	29.97201
	-96.10461	29.96921
	-96.10266	29.96593
	-96.09638	29.96479
	-96.0943	29.96426
	-96.09331	29.96285
	-96.09605	29.96066
	-96.11079	29.96118
	-96.11549	29.96227
	-96.11748	29.96463
	-96.11946	29.96745
	-96.12317	29.96712
	-96.12546	29.96308
	-96.12524	29.95666
	-96.12157	29.95607
	-96.11684	29.9559
	-96.11169	29.95343
	-96.10765	29.94962
	-96.10574	29.94542
	-96.10328	29.94167
	-96.11126	29.94012
	-96.11735	29.94492
	-96.12087	29.94871
	-96.12348	29.94926
	-96.12897	29.94442
	-96.13128	29.94037
	-96.13197	29.93673
	-96.13	29.93391
	-96.12743	29.93245
	-96.11975	29.92759
	-96.115	29.91643
	-96.11459	29.91412
	-96.11682	29.91145
	-96.1228	29.90754
	-96.12505	29.90441
	-96.12689	29.89898
	-96.12553	29.89435
	-96.12191	29.89284
	-96.11617	29.89172
	-96.11365	29.88934
	-96.11174	29.88515
	-96.10969	29.8837
	-96.10654	29.88359
	-96.09859	29.88468
	-96.09607	29.8823
	-96.09572	29.87862
	-96.09847	29.87597
	-96.10377	29.87524
	-96.108	29.87494
	-96.11173	29.87415
	-96.1126	29.86685
	-96.11233	29.86134
	-96.11089	29.85854
	-96.1083	29.85753
	-96.103	29.85826
	-96.09923	29.85996
	-96.09612	29.85893
	-96.0984	29.85534
	-96.10967	29.8507
	-96.1162	29.84635
	-96.12009	29.84191
	-96.12346	29.83744
	-96.11899	29.83179
	-96.11627	29.82799
	-96.11603	29.82756
	-96.1141	29.82382
	-96.11156	29.8219
	-96.10676	29.8231
	-96.10398	29.82621
	-96.10239	29.82661
	-96.09986	29.82423
	-96.10054	29.82105
	-96.10301	29.81576
	-96.10415	29.81303
	-96.09747	29.8081
	-96.08652	29.80588
	-96.07973	29.80471
	-96.07281	29.8063
	-96.06908	29.80754
	-96.06699	29.80701
	-96.06452	29.80371
	-96.06489	29.79593
	-96.06121	29.79579
	-96.05852	29.79707
	-96.05786	29.7998
	-96.05719	29.80298
	-96.05506	29.80337
	-96.05244	29.80327
	-96.04736	29.79942
	-96.04548	29.79477
	-96.04412	29.79013
	-96.04613	29.78104
	-96.04379	29.775
	-96.03601	29.77041
	-96.03386	29.76363
	-96.03139	29.7579
	-96.02966	29.75376
	-96.02979	29.74946
	-96.0358	29.74399
	-96.03911	29.7409
	-96.04134	29.73823
	-96.03996	29.73406
	-96.03387	29.72936
	-96.0356	29.72259
	-96.03489	29.72235
	-96.03475	29.72207
	-96.03438	29.72147
	-96.03425	29.72123
	-96.03406	29.7208
	-96.03398	29.7206
	-96.03372	29.71975
	-96.03364	29.71947
	-96.03358	29.71915
	-96.03355	29.71866
	-96.03364	29.71771
	-96.03287	29.7173
	-96.02605	29.71705
	-96.02338	29.71786
	-96.01547	29.71849
	-96.00983	29.71554
	-96.00713	29.70627
	-96.01036	29.70455
	-96.0145	29.70608
	-96.02079	29.70631
	-96.02147	29.70312
	-96.01742	29.6941
	-96.01647	29.69329
	-96.01602	29.69296
	-96.01569	29.69268
	-96.01554	29.69254
	-96.01524	29.69219
	-96.0151	29.69198
	-96.0149	29.6916
	-96.01472	29.69113
	-96.01442	29.69002
	-96.01421	29.68939
	-96.01411	29.68902
	-96.01405	29.68853
	-96.01407	29.68811
	-96.01409	29.68798
	-96.0145	29.68704
	-96.01461	29.6869
	-96.01549	29.68626
	-96.01568	29.68619
	-96.01622	29.68608
	-96.01651	29.68605
	-96.01666	29.68277
	-96.02038	29.68199
	-96.02282	29.68337
	-96.02331	29.68335
	-96.02367	29.68336
	-96.0242	29.68346
	-96.02453	29.68357
	-96.02499	29.68378
	-96.02521	29.68391
	-96.02557	29.68416
	-96.0257	29.68427
	-96.02601	29.6846
	-96.0263	29.68507
	-96.02634	29.68516
	-96.02639	29.68538
	-96.02908	29.68689
	-96.04119	29.68642
	-96.05236	29.68362
	-96.05675	29.67965
	-96.05546	29.67364
	-96.04584	29.66596
	-96.04051	29.6676
	-96.03662	29.67204
	-96.03293	29.67236
	-96.02615	29.6712
	-96.02469	29.66885
	-96.01958	29.66592
	-96.0192	29.66269
	-96.02296	29.66099
	-96.02714	29.66161
	-96.03083	29.66128
	-96.03363	29.65772
	-96.03072	29.65257
	-96.01949	29.64574
	-96.01755	29.64246
	-96.02039	29.63797
	-96.0205	29.63568
	-96.02016	29.632
	-96.01976	29.62924
	-96.02107	29.62379
	-96.02499	29.61888
	-96.02538	29.59964
	-96.09193	29.60205
	-96.07291	29.59357
	-96.06929	29.59252
	-96.06564	29.59193
	-96.06304	29.59137
	-96.06062	29.58716
	-96.06182	29.58399
	-96.06251	29.58035
	-96.06278	29.57486
	-96.06142	29.57022
	-96.05946	29.5674
	-96.04972	29.56246
	-96.04719	29.56053
	-96.04376	29.55536
	-96.04267	29.54523
	-96.04237	29.54063
	-96.04507	29.5389
	-96.04822	29.53901
	-96.05454	29.53833
	-96.05611	29.53838
	-96.05727	29.53613
	-96.05585	29.53287
	-96.05441	29.53006
	-96.05195	29.52676
	-96.05153	29.52446
	-96.05269	29.5222
	-96.05487	29.52045
	-96.05711	29.51732
	-96.0567	29.51501
	-96.05574	29.51314
	-96.05426	29.51125
	-96.05116	29.51022
	-96.04066	29.5103
	-96.03339	29.50912
	-96.02712	29.50843
	-96.02509	29.50698
	-96.02476	29.50284
	-96.02653	29.49877
	-96.02981	29.49614
	-96.03517	29.49359
	-96.04154	29.49198
	-96.04889	29.49179
	-96.05408	29.4929
	-96.05724	29.49256
	-96.05892	29.49032
	-96.05962	29.47567
	-96.05815	29.47332
	-96.05303	29.47084
	-96.05	29.46844
	-96.04658	29.46327
	-96.04363	29.45903
	-96.04117	29.45573
	-96.03707	29.45375
	-96.03391	29.45409
	-96.03236	29.45358
	-96.03038	29.45121
	-96.02988	29.45073
	-96.03047	29.44938
	-96.03101	29.44894
	-96.03313	29.44856
	-96.03472	29.44816
	-96.03633	29.4473
	-96.03642	29.44546
	-96.03594	29.44453
	-96.03444	29.4431
	-96.03132	29.44253
	-96.02402	29.4418
	-96.0194	29.4398
	-96.01794	29.43745
	-96.01286	29.43405
	-96.00886	29.43023
	-96.00626	29.42968
	-96.0036	29.4305
	-95.9999	29.43128
	-95.99371	29.42921
	-95.99275	29.42734
	-95.98772	29.42303
	-95.98235	29.41503
	-95.97324	29.40827
	-95.97185	29.40455
	-95.96996	29.40035
	-95.96943	29.38977
	-95.96963	29.38565
	-95.96924	29.38289
	-95.96826	29.38147
	-95.96042	29.38118
	-95.95631	29.37965
	-95.95487	29.37684
	-95.94981	29.37298
	-95.94894	29.36928
	-95.94606	29.36412
	-95.94205	29.3603
	-95.94057	29.35841
	-95.93962	29.35654
	-95.94023	29.35473
	-95.94134	29.35339
	-95.94244	29.35252
	-95.94561	29.35172
	-95.94827	29.3509
	-95.95149	29.34918
	-95.95313	29.34787
	-95.95425	29.34653
	-95.95538	29.34474
	-95.95395	29.34193
	-95.95303	29.33915
	-95.95107	29.33632
	-95.94812	29.33254
	-95.9425	29.32957
	-95.93783	29.32894
	-95.92951	29.32771
	-95.92434	29.3266
	-95.92131	29.32419
	-95.91516	29.32166
	-95.90789	29.32047
	-95.90772	29.32042
	-95.90795	29.31952
	-95.90736	29.31857
	-95.90587	29.31775
	-95.90558	29.31744
	-95.90527	29.31718
	-95.90418	29.31642
	-95.90389	29.31625
	-95.90129	29.31503
	-95.90118	29.31499
	-95.90094	29.31286
	-95.89967	29.30685
	-95.89732	29.30125
	-95.89487	29.29795
	-95.89051	29.2909
	-95.8867	29.28341
	-95.88394	29.28047
	-95.88402	29.28002
	-95.88526	29.27764
	-95.88508	29.27553
	-95.88497	29.27537
	-95.88425	29.27477
	-95.88257	29.27393
	-95.88146	29.27326
	-95.8811	29.27309
	-95.88032	29.27281
	-95.8795	29.27029
	-95.87376	29.27006
	-95.86436	29.26971
	-95.85817	29.26809
	-95.85252	29.26604
	-95.84857	29.2613
	-95.84256	29.25602
	-95.87212	29.22915
	-95.84487	29.20469
	-95.85753	29.19313
	-95.83903	29.17709
	-95.84043	29.17242
	-95.8406	29.16874
	-95.84812	29.1659
	-95.85001	29.15704
	-95.84955	29.14755
	-95.84005	29.14189
	-95.83743	29.13441
	-95.84099	29.11483
	-95.84342	29.10678
	-95.84086	29.09825
	-95.83691	29.09388
	-95.83031	29.08965
	-95.80575	29.09044
	-95.80032	29.07995
	-95.79673	29.08085
	-95.79388	29.0723
	-95.78317	29.06737
	-95.77444	29.06436
	-95.77081	29.06631
	-95.76578	29.06004
	-95.76696	29.05378
	-95.76934	29.05301
	-95.76936	29.05302
	-95.76953	29.05295
	-95.77134	29.05262
	-95.77399	29.05241
	-95.77424	29.05237
	-95.77642	29.05192
	-95.77801	29.05014
	-95.77845	29.04509
	-95.77842	29.04505
	-95.77893	29.04404
	-95.78465	29.04165
	-95.78482	29.03798
	-95.78069	29.0378
	-95.77939	29.03406
	-95.78342	29.03002
	-95.7832	29.02817
	-95.77946	29.02617
	-95.77864	29.01193
	-95.78483	29.0122
	-95.78304	29.00607
	-95.77763	29.0082
	-95.77188	29.0048
	-95.7785	28.99587
	-95.77798	28.99427
	-95.76689	28.99142
	-95.77045	28.98474
	-95.76626	28.97956
	-95.76962	28.97707
	-95.77012	28.97262
	-95.76656	28.96668
	-95.7329	28.96827
	-95.70151	28.9691
	-95.69669	28.96494
	-95.68961	28.96489
	-95.68242	28.96089
	-95.67838	28.96519
	-95.66851	28.95554
	-95.65395	28.95147
	-95.65063	28.94593
	-95.65005	28.94576
	-95.64981	28.94564
	-95.64948	28.94543
	-95.64917	28.94518
	-95.64894	28.94495
	-95.64866	28.9447
	-95.6483	28.94426
	-95.64801	28.94353
	-95.648	28.94345
	-95.64678	28.94226
	-95.64643	28.94184
	-95.64623	28.94172
	-95.64558	28.94111
	-95.64533	28.94077
	-95.64493	28.94049
	-95.64481	28.94037
	-95.64433	28.93961
	-95.64429	28.93949
	-95.6443	28.93833
	-95.64426	28.93832
	-95.64429	28.93816
	-95.6444	28.93778
	-95.64446	28.93762
	-95.64452	28.93751
	-95.64453	28.93744
	-95.64456	28.93743
	-95.64469	28.93717
	-95.64482	28.93724
	-95.64684	28.9358
	-95.64721	28.93634
	-95.64796	28.93516
	-95.6485	28.93218
	-95.65192	28.92635
	-95.65122	28.91989
	-95.6464	28.91234
	-95.64461	28.90675
	-95.63968	28.9015
	-95.63264	28.89662
	-95.62556	28.89266
	-95.6186	28.8864
	-95.61761	28.88544
	-95.60255	28.87472
	-95.59151	28.86691
	-95.58356	28.85969
	-95.58012	28.85588
	-95.57967	28.85448
	-95.57873	28.8526
	-95.57843	28.84846
	-95.57971	28.84391
	-95.58012	28.83612
	-95.57561	28.83271
	-95.57107	28.83023
	-95.56644	28.82912
	-95.55971	28.82838
	-95.52922	28.83447
	-95.52605	28.83526
	-95.51713	28.83673
	-95.51083	28.83784
	-95.5068	28.83537
	-95.50439	28.8316
	-95.50905	28.8214
	-95.50243	28.81006
	-94.14798	27.79667
	-94.57217	25.27539
	-96.83041	28.04311
	-96.87901	28.08959
	-96.97842	28.10255
	-97.05891	28.13851
	-97.17673	28.09859
	-97.19596	28.11004
	-97.20025	28.11004
	-97.20095	28.11016
	-97.20126	28.11028
	-97.20256	28.11217
	-97.20255	28.11396
	-97.35191	28.20287
	-97.38045	28.30516
	-97.37952	28.3102
	-97.3795	28.31072
	-97.37952	28.31104
	-97.38044	28.31257
	-97.3805	28.3126
	-97.38038	28.31353
	-97.38085	28.31359
	-97.38099	28.31538
	-97.38325	28.31521
	-97.414	28.42543
	-97.46057	28.5612
	-97.49797	28.83692
	-97.54031	28.94538
	-97.61924	29.1026
	-97.71276	29.1881
	-97.71216	29.18869
	-97.71156	29.19014
	-97.71156	29.19033
	-97.71213	29.19171
	-97.71277	29.19236
	-97.7128	29.19241
	-97.71279	29.19242
	-97.71408	29.19459
	-97.71426	29.19485
	-97.71521	29.19599
	-97.71569	29.19641
	-97.71625	29.19675
	-97.71773	29.19701
	-97.7197	29.19657
	-97.72008	29.19644
	-97.72129	29.1959
	-97.76402	29.23496
	-97.83757	29.33492
	-97.8371	29.33486
	-97.83673	29.33485
	-97.83622	29.33488
	-97.83548	29.33471
	-97.83511	29.33466
	-97.83448	29.33464
	-97.83333	29.33495
	-97.83314	29.33507
	-97.83237	29.336
	-97.83223	29.33635
	-97.83167	29.33734
	-97.83073	29.33837
	-97.82928	29.33959
	-97.82897	29.33991
	-97.8286	29.3404
	-97.82897	29.34321
	-97.83178	29.34283
	-97.83202	29.34251
	-97.8334	29.34135
	-97.8336	29.34116
	-97.83478	29.33986
	-97.83504	29.33951
	-97.83544	29.3388
	-97.83562	29.33884
	-97.83618	29.33888
	-97.83677	29.33885
	-97.8373	29.33892
	-97.83747	29.33954
	-97.83791	29.34041
	-97.83838	29.34101
	-97.83901	29.34156
	-97.8393	29.34175
	-97.83939	29.34226
	-97.8395	29.34249
	-97.84145	29.34365
	-97.84179	29.34363
	-97.84262	29.3433
	-97.84273	29.34339
	-97.84327	29.34372
	-97.84428	29.34412
	-97.84439	29.34419
	-97.84922	29.35074
	-97.9271	29.4268
	-98.00393	29.48596
	-98.06665	29.55737
	-98.12966	29.5937
	-97.98431	29.72622
	-97.9184	29.78822
	-97.83325	29.86804
	-97.80441	29.92042
	-97.78931	30.01084
	-97.56546	30.09524
	-97.38968	30.25432
	-97.13287	30.17244
	-96.94061	30.12256
	-96.70715	30.10118
	-96.39679	30.08454
	-96.15723	30.09338
END
END
