US_Tennessee_West
1
	-86.7834	34.99193
	-86.81939	34.99177
	-86.82066	34.99176
	-86.83669	34.99177
	-86.84647	34.99186
	-86.84979	34.99192
	-86.85737	34.99194
	-86.86215	34.99196
	-86.87917	34.99235
	-86.92734	34.99347
	-86.96342	34.99431
	-86.96468	34.99624
	-86.96507	34.99633
	-86.96508	34.99633
	-86.96536	34.99639
	-86.96576	34.99647
	-86.96642	34.9965
	-86.96684	34.99645
	-86.9672	34.99641
	-86.96894	34.99649
	-86.96904	34.99649
	-86.96963	34.99649
	-86.96986	34.99652
	-86.97002	34.99653
	-86.97009	34.99647
	-86.97016	34.99654
	-86.97061	34.99656
	-86.97101	34.99667
	-86.97186	34.99672
	-86.97233	34.99664
	-86.97287	34.99647
	-86.97334	34.99624
	-86.97393	34.99454
	-86.97441	34.99451
	-86.98879	34.99485
	-87.00001	34.99512
	-87.01117	34.99516
	-87.03012	34.99553
	-87.12257	34.99732
	-87.13962	34.99765
	-87.16275	34.9981
	-87.21056	34.99901
	-87.21452	34.9991
	-87.21656	34.99724
	-87.21695	34.99726
	-87.21697	34.99726
	-87.21825	34.99734
	-87.21877	34.99737
	-87.2198	34.99738
	-87.22049	34.99739
	-87.2216	34.99739
	-87.2217	34.99739
	-87.22175	34.99739
	-87.222	34.9974
	-87.22221	34.9974
	-87.22242	34.9974
	-87.22255	34.9974
	-87.22258	34.9974
	-87.22354	34.9974
	-87.22372	34.99739
	-87.22385	34.99738
	-87.224	34.99738
	-87.22405	34.99738
	-87.22406	34.99738
	-87.22501	34.99738
	-87.22508	34.99738
	-87.2257	34.9974
	-87.22576	34.9974
	-87.22634	34.99744
	-87.22697	34.99745
	-87.22747	34.99745
	-87.2275	34.99745
	-87.22784	34.99745
	-87.22844	34.99744
	-87.22849	34.99744
	-87.22888	34.99745
	-87.22961	34.99746
	-87.22992	34.99745
	-87.22996	34.99745
	-87.23022	34.99745
	-87.23055	34.99747
	-87.23064	34.99749
	-87.23103	34.99759
	-87.23111	34.99763
	-87.23195	34.99952
	-87.27001	35.00039
	-87.29742	35.00088
	-87.29911	35.00279
	-87.30334	35.00304
	-87.30411	35.00294
	-87.30422	35.0029
	-87.30478	35.0026
	-87.30486	35.00254
	-87.30507	35.001
	-87.34925	35.00166
	-87.35928	35.00182
	-87.38107	35.00212
	-87.39131	35.00237
	-87.4174	35.00267
	-87.42154	35.00268
	-87.42861	35.00279
	-87.43731	35.00284
	-87.44325	35.00286
	-87.49282	35.0031
	-87.53644	35.00331
	-87.57733	35.0035
	-87.58263	35.00353
	-87.61036	35.00366
	-87.62502	35.00373
	-87.66412	35.00352
	-87.6714	35.00354
	-87.68862	35.00375
	-87.69683	35.00385
	-87.70054	35.00399
	-87.70232	35.00395
	-87.70949	35.00409
	-87.75889	35.00471
	-87.7676	35.00478
	-87.77359	35.00495
	-87.82126	35.00538
	-87.85189	35.00566
	-87.85341	35.00558
	-87.85353	35.00554
	-87.86941	35.00557
	-87.86956	35.00573
	-87.86967	35.00586
	-87.86984	35.00602
	-87.8699	35.00608
	-87.87038	35.00651
	-87.87046	35.00658
	-87.87071	35.00678
	-87.87081	35.00686
	-87.87095	35.00696
	-87.87108	35.00705
	-87.87115	35.00709
	-87.87127	35.00716
	-87.87135	35.00719
	-87.87146	35.00725
	-87.87154	35.00728
	-87.87166	35.00733
	-87.87174	35.00735
	-87.87193	35.00741
	-87.87211	35.00746
	-87.87227	35.00749
	-87.87236	35.0075
	-87.87249	35.00752
	-87.87258	35.00753
	-87.8727	35.00754
	-87.87306	35.00755
	-87.87312	35.00755
	-87.87408	35.00755
	-87.87478	35.00755
	-87.87576	35.00756
	-87.87581	35.00756
	-87.87664	35.00755
	-87.8774	35.00754
	-87.87756	35.00753
	-87.87773	35.00752
	-87.87794	35.00749
	-87.87811	35.00745
	-87.87829	35.00741
	-87.87838	35.00738
	-87.8785	35.00734
	-87.87852	35.00733
	-87.87866	35.00728
	-87.87881	35.00722
	-87.87904	35.00711
	-87.87918	35.00704
	-87.87947	35.00688
	-87.8795	35.00686
	-87.88011	35.0065
	-87.88021	35.00645
	-87.88047	35.00652
	-87.88066	35.00657
	-87.88126	35.00676
	-87.88179	35.00695
	-87.88189	35.00698
	-87.88206	35.00703
	-87.88226	35.00708
	-87.88235	35.0071
	-87.88251	35.00712
	-87.8826	35.00713
	-87.8828	35.00714
	-87.88289	35.00714
	-87.8831	35.00713
	-87.88312	35.00713
	-87.88318	35.00712
	-87.88334	35.0071
	-87.88342	35.00708
	-87.88357	35.00705
	-87.88365	35.00703
	-87.88378	35.00699
	-87.88387	35.00696
	-87.88401	35.00691
	-87.88443	35.00673
	-87.88456	35.00669
	-87.88477	35.00663
	-87.88483	35.00661
	-87.88508	35.00653
	-87.8852	35.00648
	-87.88548	35.00637
	-87.88556	35.00637
	-87.88599	35.00639
	-87.886	35.00639
	-87.88733	35.00646
	-87.88738	35.00646
	-87.88791	35.00647
	-87.88798	35.00647
	-87.88868	35.00646
	-87.88874	35.00646
	-87.88945	35.00643
	-87.89002	35.00641
	-87.89025	35.00641
	-87.89034	35.00641
	-87.8907	35.0064
	-87.89077	35.0064
	-87.89103	35.00638
	-87.89127	35.00635
	-87.8913	35.00634
	-87.89159	35.0063
	-87.89167	35.00629
	-87.89219	35.0062
	-87.89226	35.00619
	-87.89243	35.00615
	-87.89252	35.00613
	-87.89274	35.00607
	-87.89288	35.00603
	-87.893	35.00598
	-87.89307	35.00596
	-87.89335	35.00585
	-87.89349	35.00553
	-87.92689	35.00566
	-87.97349	35.00584
	-87.98699	35.00596
	-88.00003	35.00594
	-88.19592	35.00798
	-88.20297	35.00811
	-88.2023	35.00659
	-88.20152	35.00379
	-88.20101	34.99935
	-88.20002	34.9956
	-88.20034	34.99563
	-88.25181	34.99556
	-88.25382	34.99555
	-88.25616	34.99548
	-88.25811	34.99546
	-88.35515	34.99558
	-88.35509	34.99679
	-88.35547	34.99719
	-88.3569	34.99776
	-88.36121	34.99771
	-88.36153	34.99768
	-88.3629	34.99745
	-88.36421	34.99559
	-88.38051	34.99561
	-88.4698	34.99605
	-88.46988	34.99603
	-88.72073	34.99541
	-88.82306	34.99517
	-88.85104	34.99509
	-88.88698	34.99587
	-88.92524	34.99484
	-89.0072	34.99493
	-89.00787	34.99316
	-89.0082	34.99301
	-89.009	34.99247
	-89.00993	34.99213
	-89.01088	34.99204
	-89.01196	34.99224
	-89.01387	34.99319
	-89.01446	34.99494
	-89.01713	34.99495
	-89.02654	34.99496
	-89.139	34.99433
	-89.13914	34.99431
	-89.15683	34.99393
	-89.21743	34.99473
	-89.42867	34.99378
	-89.42994	34.99565
	-89.43041	34.99575
	-89.43092	34.99578
	-89.43198	34.99571
	-89.43369	34.99376
	-89.43495	34.99375
	-89.47782	34.99394
	-89.47817	34.99382
	-89.47875	34.99372
	-89.47955	34.9937
	-89.48004	34.99374
	-89.48098	34.99395
	-89.4869	34.99397
	-89.49152	34.99424
	-89.49161	34.9939
	-89.49172	34.99367
	-89.49224	34.99301
	-89.49246	34.99282
	-89.49378	34.99236
	-89.49419	34.99236
	-89.50013	34.99254
	-89.5112	34.99277
	-89.5131	34.99476
	-89.61941	34.99518
	-89.64428	34.99529
	-89.74178	34.99519
	-89.75986	34.99478
	-89.76841	34.99467
	-89.77604	34.99464
	-89.77783	34.99642
	-89.78052	34.99641
	-89.78308	34.99637
	-89.78627	34.99637
	-89.78715	34.9964
	-89.78793	34.99649
	-89.7887	34.99656
	-89.79538	34.99655
	-89.79734	34.99458
	-89.80207	34.99455
	-89.80225	34.99456
	-89.80284	34.99455
	-89.80899	34.99454
	-89.81305	34.99451
	-89.8146	34.99453
	-89.81583	34.99453
	-89.81609	34.99452
	-89.82094	34.9945
	-89.82433	34.9945
	-89.82436	34.99453
	-89.82506	34.9945
	-89.82678	34.9945
	-89.82734	34.99457
	-89.82739	34.9945
	-89.83029	34.99449
	-89.83081	34.99451
	-89.83174	34.99451
	-89.83319	34.99446
	-89.83624	34.99444
	-89.83753	34.99441
	-89.83774	34.99446
	-89.83778	34.9945
	-89.83784	34.99448
	-89.83808	34.99447
	-89.83994	34.99446
	-89.84065	34.99443
	-89.84218	34.99441
	-89.8426	34.99439
	-89.84273	34.99442
	-89.84552	34.9944
	-89.84608	34.99441
	-89.84683	34.99439
	-89.84838	34.99441
	-89.85138	34.99419
	-89.87704	34.99432
	-89.87836	34.99433
	-89.87841	34.99439
	-89.88179	34.99439
	-89.88376	34.99639
	-89.88667	34.99642
	-89.88671	34.99643
	-89.88696	34.99642
	-89.89273	34.99648
	-89.89339	34.9965
	-89.89545	34.99456
	-89.89543	34.99454
	-89.89817	34.99459
	-89.90143	34.99467
	-89.91052	34.99472
	-89.9176	34.99478
	-89.91867	34.9948
	-89.95325	34.99494
	-89.95342	34.99495
	-89.9559	34.99495
	-89.97318	34.99502
	-89.9761	34.99504
	-89.97649	34.99506
	-89.97885	34.99504
	-89.98136	34.99506
	-89.98391	34.99506
	-89.98991	34.99509
	-90.00582	34.99497
	-90.02507	34.99486
	-90.03155	34.99486
	-90.04267	34.99496
	-90.04479	34.99495
	-90.05276	34.99487
	-90.06078	34.99485
	-90.07539	34.99492
	-90.09611	34.99476
	-90.10348	34.99475
	-90.12735	34.99468
	-90.13172	34.99469
	-90.13931	34.99472
	-90.16701	34.99491
	-90.23772	34.99554
	-90.2907	34.99549
	-90.3031	34.99569
	-90.3093	34.99569
	-90.3103	35.00429
	-90.30988	35.00975
	-90.3069	35.01819
	-90.3007	35.02879
	-90.2973	35.03789
	-90.2956	35.04009
	-90.292	35.04179
	-90.2653	35.04029
	-90.2638	35.03959
	-90.2634	35.03749
	-90.2624	35.03639
	-90.25649	35.03449
	-90.23061	35.03132
	-90.22479	35.02996
	-90.21626	35.02605
	-90.21438	35.0258
	-90.2094	35.02655
	-90.20078	35.03236
	-90.20022	35.03274
	-90.20004	35.03289
	-90.19807	35.03535
	-90.1961	35.03739
	-90.19582	35.03779
	-90.19695	35.04417
	-90.19722	35.04838
	-90.19706	35.05341
	-90.19587	35.06021
	-90.18206	35.08978
	-90.18139	35.0914
	-90.18016	35.09705
	-90.17684	35.11209
	-90.17582	35.11405
	-90.17459	35.11668
	-90.1736	35.11807
	-90.16982	35.12133
	-90.16795	35.12311
	-90.16533	35.12523
	-90.16006	35.12883
	-90.15599	35.13099
	-90.14868	35.13327
	-90.14469	35.13498
	-90.14363	35.13514
	-90.14279	35.13509
	-90.14125	35.13473
	-90.13902	35.13399
	-90.13416	35.13151
	-90.13226	35.13028
	-90.10939	35.11889
	-90.10059	35.11669
	-90.09651	35.11713
	-90.09311	35.11774
	-90.09061	35.11829
	-90.08671	35.11978
	-90.08342	35.12167
	-90.07599	35.12779
	-90.07526	35.12852
	-90.07484	35.12889
	-90.07269	35.13069
	-90.07119	35.13159
	-90.06809	35.13459
	-90.06659	35.13599
	-90.06539	35.13769
	-90.06477	35.13894
	-90.06461	35.14062
	-90.06648	35.15107
	-90.06696	35.15184
	-90.06779	35.15259
	-90.0694	35.15365
	-90.08869	35.15662
	-90.09284	35.15769
	-90.09849	35.16029
	-90.10282	35.16313
	-90.10703	35.16669
	-90.10861	35.16911
	-90.10929	35.17477
	-90.10918	35.17845
	-90.11109	35.17864
	-90.11421	35.18169
	-90.11739	35.18789
	-90.11754	35.19057
	-90.11618	35.1985
	-90.10908	35.19911
	-90.09741	35.19479
	-90.09647	35.19485
	-90.09328	35.20328
	-90.0886	35.21238
	-90.08688	35.21377
	-90.0844	35.21424
	-90.08205	35.21401
	-90.0804	35.21483
	-90.07887	35.21566
	-90.07828	35.21742
	-90.07828	35.2199
	-90.07946	35.22343
	-90.08087	35.22791
	-90.08294	35.23182
	-90.08632	35.23572
	-90.09089	35.24219
	-90.09795	35.24998
	-90.09949	35.25139
	-90.10509	35.25429
	-90.11011	35.25546
	-90.11649	35.25579
	-90.12359	35.25499
	-90.13212	35.25318
	-90.14039	35.25229
	-90.15209	35.25599
	-90.15886	35.26258
	-90.16659	35.27459
	-90.16879	35.27909
	-90.16887	35.282
	-90.16519	35.29319
	-90.16381	35.29612
	-90.16122	35.29895
	-90.15891	35.30064
	-90.15339	35.30259
	-90.14979	35.30329
	-90.1395	35.29883
	-90.13239	35.30049
	-90.12371	35.30453
	-90.12186	35.30454
	-90.11722	35.30338
	-90.10909	35.30499
	-90.10682	35.32462
	-90.10386	35.33241
	-90.11029	35.34279
	-90.10882	35.34259
	-90.10731	35.34314
	-90.10029	35.35162
	-90.09682	35.35722
	-90.09349	35.36049
	-90.09275	35.36054
	-90.09174	35.36617
	-90.08958	35.37039
	-90.08066	35.38579
	-90.08774	35.39084
	-90.09359	35.39333
	-90.09665	35.39526
	-90.10484	35.40149
	-90.10677	35.40334
	-90.11054	35.40859
	-90.1125	35.41015
	-90.1169	35.41169
	-90.13047	35.41374
	-90.13512	35.41298
	-90.13788	35.41151
	-90.14166	35.40856
	-90.14345	35.40667
	-90.14508	35.40376
	-90.14619	35.39947
	-90.14587	35.39508
	-90.14347	35.3876
	-90.13551	35.37667
	-90.14492	35.37463
	-90.16625	35.37474
	-90.17239	35.37768
	-90.17834	35.38209
	-90.17926	35.38519
	-90.1707	35.41007
	-90.1706	35.41835
	-90.169	35.42185
	-90.12945	35.44193
	-90.12314	35.45985
	-90.12062	35.46574
	-90.11839	35.46879
	-90.11441	35.47247
	-90.10776	35.47692
	-90.10176	35.47689
	-90.09872	35.47859
	-90.08501	35.47883
	-90.08013	35.47684
	-90.07215	35.47075
	-90.0678	35.46622
	-90.06714	35.46483
	-90.06721	35.46096
	-90.07133	35.45034
	-90.07406	35.43961
	-90.07408	35.43398
	-90.07055	35.42329
	-90.06202	35.41518
	-90.06956	35.40807
	-90.062	35.39875
	-90.0517	35.40875
	-90.04183	35.41699
	-90.03711	35.41941
	-90.0327	35.42101
	-90.02951	35.42164
	-90.02238	35.42128
	-90.02017	35.4214
	-90.01565	35.42242
	-90.01244	35.42416
	-90.00264	35.42995
	-90.00276	35.43473
	-90.0037	35.44161
	-90.00583	35.4505
	-90.00717	35.45416
	-90.00945	35.45855
	-90.01304	35.46437
	-90.01365	35.46524
	-90.01661	35.46941
	-90.01954	35.47291
	-90.02209	35.47465
	-90.02618	35.47637
	-90.02859	35.47771
	-90.03145	35.4797
	-90.03601	35.48341
	-90.03895	35.48692
	-90.04332	35.49326
	-90.04457	35.49522
	-90.04599	35.4986
	-90.04683	35.50088
	-90.04828	35.50403
	-90.05028	35.51528
	-90.04909	35.52226
	-90.04623	35.52959
	-90.04475	35.53166
	-90.04196	35.53747
	-90.03974	35.54804
	-90.03761	35.55033
	-90.03294	35.55344
	-90.02862	35.55525
	-90.0239	35.55634
	-90.01731	35.556
	-90.01126	35.55911
	-90.00829	35.56007
	-89.999	35.56116
	-89.99297	35.56077
	-89.98936	35.56004
	-89.97631	35.55387
	-89.9585	35.5417
	-89.95671	35.53937
	-89.95564	35.53452
	-89.95578	35.53321
	-89.95774	35.53012
	-89.95771	35.52719
	-89.95635	35.52559
	-89.95125	35.52187
	-89.94766	35.52002
	-89.94503	35.51939
	-89.93361	35.51854
	-89.92316	35.51443
	-89.91933	35.51387
	-89.9154	35.51512
	-89.91193	35.51741
	-89.90902	35.52055
	-89.90766	35.52294
	-89.90745	35.52358
	-89.904	35.53331
	-89.90398	35.53474
	-89.90439	35.5357
	-89.90558	35.53677
	-89.90954	35.53673
	-89.91078	35.53614
	-89.91273	35.53565
	-89.91345	35.53604
	-89.9134	35.53685
	-89.91294	35.53787
	-89.9114	35.54094
	-89.91036	35.54332
	-89.91004	35.54452
	-89.91079	35.54751
	-89.91418	35.54971
	-89.91742	35.55031
	-89.92414	35.55056
	-89.9291	35.55154
	-89.94139	35.55656
	-89.94475	35.56031
	-89.94691	35.56358
	-89.9542	35.57605
	-89.95669	35.58143
	-89.95792	35.5855
	-89.9579	35.58726
	-89.95675	35.59051
	-89.95414	35.59426
	-89.95115	35.59749
	-89.9454	35.60161
	-89.9325	35.60786
	-89.91962	35.61224
	-89.91217	35.61706
	-89.91069	35.61754
	-89.90603	35.61615
	-89.89979	35.61506
	-89.897	35.61488
	-89.89435	35.61554
	-89.89255	35.61635
	-89.88463	35.62161
	-89.87655	35.62665
	-89.86387	35.63079
	-89.85662	35.63444
	-89.85389	35.63826
	-89.85182	35.64426
	-89.85086	35.65021
	-89.85118	35.65743
	-89.85351	35.66303
	-89.85893	35.66906
	-89.86128	35.67006
	-89.86478	35.67039
	-89.87208	35.66849
	-89.87716	35.66614
	-89.87853	35.66482
	-89.88289	35.65746
	-89.88493	35.65511
	-89.88698	35.65364
	-89.89051	35.65241
	-89.89892	35.6509
	-89.90615	35.65114
	-89.91543	35.65278
	-89.92275	35.65529
	-89.93104	35.66004
	-89.93738	35.66571
	-89.9427	35.67512
	-89.95016	35.68243
	-89.9533	35.68642
	-89.95575	35.69062
	-89.95659	35.69549
	-89.95693	35.71168
	-89.95888	35.72383
	-89.95869	35.72771
	-89.95625	35.73339
	-89.95398	35.73616
	-89.95028	35.73849
	-89.91551	35.75489
	-89.91313	35.7573
	-89.91	35.7594
	-89.90554	35.75906
	-89.88816	35.75008
	-89.88353	35.74498
	-89.87726	35.74137
	-89.87284	35.7413
	-89.86387	35.74759
	-89.85771	35.75008
	-89.84634	35.75573
	-89.83289	35.75491
	-89.82492	35.75572
	-89.82122	35.75672
	-89.81446	35.75994
	-89.81289	35.76115
	-89.80928	35.76438
	-89.79925	35.77544
	-89.79723	35.78012
	-89.79705	35.78265
	-89.79933	35.7885
	-89.79632	35.79281
	-89.78179	35.80508
	-89.76546	35.80951
	-89.76544	35.81121
	-89.75787	35.81041
	-89.74302	35.80582
	-89.74095	35.8057
	-89.7395	35.80586
	-89.73725	35.80613
	-89.73628	35.80603
	-89.73477	35.805
	-89.73303	35.80404
	-89.73122	35.80347
	-89.72995	35.80325
	-89.72828	35.80361
	-89.71783	35.80857
	-89.7141	35.81118
	-89.70802	35.81593
	-89.70527	35.81851
	-89.70387	35.82028
	-89.70175	35.82424
	-89.70104	35.82823
	-89.70141	35.83098
	-89.70288	35.83415
	-89.70435	35.83573
	-89.70926	35.83891
	-89.72952	35.84763
	-89.74942	35.85296
	-89.76434	35.85831
	-89.76941	35.86156
	-89.77247	35.8651
	-89.77329	35.86743
	-89.77356	35.8717
	-89.77285	35.87624
	-89.77173	35.87972
	-89.76874	35.88666
	-89.76569	35.8913
	-89.76295	35.8945
	-89.75841	35.89856
	-89.75074	35.9041
	-89.74441	35.90804
	-89.74135	35.90932
	-89.73922	35.90971
	-89.73752	35.90974
	-89.73529	35.90957
	-89.73249	35.90905
	-89.72853	35.90789
	-89.72058	35.90481
	-89.71727	35.90328
	-89.71244	35.90014
	-89.70907	35.8987
	-89.69864	35.89489
	-89.6964	35.89403
	-89.69385	35.89253
	-89.69166	35.89069
	-89.68493	35.88357
	-89.68149	35.88092
	-89.67876	35.8789
	-89.6729	35.87622
	-89.67013	35.87549
	-89.66765	35.87527
	-89.66544	35.87549
	-89.66189	35.87624
	-89.65825	35.87816
	-89.65089	35.88231
	-89.64775	35.88489
	-89.64477	35.88846
	-89.64291	35.89197
	-89.6423	35.89432
	-89.64225	35.89626
	-89.64266	35.8993
	-89.64334	35.90155
	-89.64484	35.90435
	-89.64671	35.90801
	-89.65034	35.91779
	-89.65228	35.92146
	-89.65615	35.92581
	-89.67112	35.93579
	-89.67662	35.94054
	-89.68692	35.94772
	-89.69987	35.95406
	-89.71023	35.95983
	-89.71456	35.96303
	-89.7188	35.96828
	-89.71968	35.97094
	-89.71997	35.97462
	-89.7189	35.98399
	-89.71902	35.98508
	-89.71933	35.98597
	-89.71993	35.98663
	-89.72844	35.99357
	-89.73122	35.99688
	-89.73309	36.00061
	-89.73382	36.00409
	-89.73339	36.00744
	-89.73253	36.00918
	-89.73172	36.01099
	-89.73072	36.01234
	-89.72915	36.01407
	-89.72667	36.01546
	-89.723	36.01689
	-89.71818	36.01816
	-89.7168	36.01901
	-89.71573	36.02091
	-89.71229	36.02978
	-89.71096	36.0324
	-89.70929	36.03432
	-89.7049	36.03699
	-89.70314	36.03783
	-89.70171	36.03918
	-89.6989	36.04211
	-89.69518	36.04427
	-89.6885	36.04874
	-89.68444	36.05172
	-89.68195	36.07234
	-89.68003	36.08249
	-89.67882	36.08464
	-89.67246	36.09184
	-89.6666	36.0958
	-89.65771	36.09913
	-89.64302	36.10362
	-89.6283	36.10685
	-89.62508	36.10813
	-89.61513	36.11382
	-89.60194	36.11947
	-89.59895	36.12178
	-89.594	36.12719
	-89.59307	36.1297
	-89.5921	36.13564
	-89.5916	36.1441
	-89.59221	36.15012
	-89.5944	36.15546
	-89.60087	36.16456
	-89.607	36.17118
	-89.61823	36.17997
	-89.6238	36.18313
	-89.62948	36.18465
	-89.63689	36.18895
	-89.64479	36.1941
	-89.65488	36.20153
	-89.66414	36.20652
	-89.68242	36.21784
	-89.69263	36.22496
	-89.69968	36.23082
	-89.70446	36.23547
	-89.70525	36.23657
	-89.70554	36.23814
	-89.70533	36.2399
	-89.70351	36.24341
	-89.69982	36.24838
	-89.69857	36.25059
	-89.69523	36.25277
	-89.69131	36.25208
	-89.68623	36.24951
	-89.68217	36.24857
	-89.67805	36.24828
	-89.67088	36.24879
	-89.65252	36.25069
	-89.64218	36.24949
	-89.63679	36.24808
	-89.62442	36.2433
	-89.61114	36.23927
	-89.60651	36.23833
	-89.60237	36.23811
	-89.58733	36.23948
	-89.57754	36.24226
	-89.57393	36.24384
	-89.565	36.25007
	-89.56221	36.25091
	-89.55799	36.25104
	-89.55356	36.25034
	-89.54895	36.2482
	-89.54474	36.24748
	-89.54162	36.24789
	-89.53923	36.24882
	-89.53474	36.25258
	-89.53451	36.2618
	-89.53553	36.27054
	-89.53767	36.27528
	-89.53949	36.27737
	-89.5448	36.28046
	-89.54658	36.28044
	-89.54922	36.27875
	-89.55429	36.27775
	-89.5677	36.2829
	-89.57849	36.28832
	-89.58434	36.29334
	-89.58982	36.29681
	-89.61182	36.30909
	-89.61924	36.32073
	-89.62025	36.32301
	-89.6198	36.32955
	-89.61584	36.33608
	-89.61069	36.34044
	-89.60567	36.34223
	-89.60054	36.34298
	-89.58164	36.34236
	-89.56044	36.33775
	-89.54501	36.33681
	-89.53808	36.3375
	-89.53182	36.33925
	-89.52703	36.34168
	-89.52269	36.34479
	-89.519	36.3486
	-89.51318	36.3599
	-89.50972	36.37363
	-89.50956	36.37506
	-89.51038	36.37836
	-89.51396	36.38489
	-89.52529	36.40045
	-89.54234	36.4201
	-89.54422	36.42368
	-89.54525	36.42708
	-89.5455	36.4307
	-89.54506	36.43491
	-89.54341	36.43877
	-89.54087	36.44156
	-89.52727	36.45155
	-89.52519	36.45399
	-89.52343	36.45657
	-89.52102	36.46193
	-89.51972	36.467
	-89.5195	36.47542
	-89.52064	36.47867
	-89.52267	36.4813
	-89.53452	36.49143
	-89.53912	36.4981
	-89.54295	36.50496
	-89.55432	36.51702
	-89.55835	36.5221
	-89.56034	36.52544
	-89.5658	36.53699
	-89.57007	36.54439
	-89.57124	36.54734
	-89.57151	36.55257
	-89.56981	36.55812
	-89.56682	36.56422
	-89.56318	36.56875
	-89.55809	36.57351
	-89.55264	36.57718
	-89.54611	36.57999
	-89.54246	36.58057
	-89.52758	36.58115
	-89.52234	36.58018
	-89.5187	36.5787
	-89.51447	36.5778
	-89.50008	36.5763
	-89.48484	36.57182
	-89.48089	36.56977
	-89.47909	36.56821
	-89.47334	36.55992
	-89.46776	36.54685
	-89.46544	36.53616
	-89.46589	36.52995
	-89.46867	36.52129
	-89.47246	36.51374
	-89.47719	36.50707
	-89.48247	36.50213
	-89.4852	36.49745
	-89.48671	36.49495
	-89.49349	36.4787
	-89.49425	36.47597
	-89.49407	36.47322
	-89.4932	36.47012
	-89.49067	36.46553
	-89.48621	36.46162
	-89.47653	36.45785
	-89.47172	36.457
	-89.46415	36.45719
	-89.46044	36.45814
	-89.45308	36.46128
	-89.44847	36.46442
	-89.43676	36.47443
	-89.42931	36.48188
	-89.42294	36.48938
	-89.41977	36.4939
	-89.41729	36.49903
	-89.406	36.49912
	-89.40405	36.50109
	-89.39617	36.50113
	-89.39615	36.50112
	-89.39113	36.50108
	-89.38506	36.50165
	-89.38203	36.50201
	-89.38052	36.5021
	-89.38049	36.50165
	-89.37867	36.50145
	-89.37877	36.50052
	-89.35659	36.5022
	-89.34795	36.50308
	-89.30028	36.50715
	-89.2823	36.50678
	-89.27909	36.50651
	-89.23504	36.50593
	-89.21348	36.50566
	-89.2116	36.50369
	-89.20897	36.50364
	-89.20215	36.50342
	-89.19781	36.50322
	-89.19734	36.50321
	-89.193	36.50323
	-89.18668	36.50307
	-89.17948	36.50308
	-89.17051	36.50279
	-89.16853	36.50464
	-89.16573	36.50458
	-89.16379	36.50253
	-89.16038	36.50247
	-89.15837	36.50442
	-89.11754	36.5036
	-89.07212	36.50325
	-89.05887	36.50316
	-89.03465	36.50296
	-89.01044	36.50271
	-89.00006	36.50263
	-88.96447	36.50219
	-88.9202	36.50228
	-88.91799	36.50233
	-88.89951	36.50222
	-88.88501	36.50209
	-88.87759	36.5023
	-88.8758	36.50048
	-88.86923	36.5005
	-88.86907	36.50051
	-88.86883	36.5005
	-88.86876	36.50051
	-88.86767	36.50053
	-88.86488	36.50057
	-88.86301	36.50058
	-88.85909	36.50063
	-88.85712	36.50265
	-88.83463	36.50291
	-88.8301	36.50294
	-88.81664	36.50298
	-88.79959	36.50276
	-88.74752	36.50283
	-88.71525	36.50266
	-88.66113	36.50224
	-88.57728	36.50194
	-88.54519	36.50181
	-88.51643	36.50143
	-88.51227	36.50151
	-88.51192	36.50146
	-88.48921	36.50107
	-88.45171	36.50095
	-88.45185	36.50065
	-88.45088	36.5002
	-88.45022	36.49935
	-88.44816	36.49908
	-88.44791	36.49907
	-88.44445	36.49906
	-88.43398	36.49894
	-88.43162	36.4989
	-88.43142	36.4989
	-88.43025	36.49901
	-88.42974	36.49898
	-88.42929	36.49898
	-88.42917	36.49893
	-88.42793	36.49884
	-88.42774	36.49889
	-88.42758	36.4989
	-88.42682	36.49889
	-88.42578	36.49891
	-88.42573	36.49893
	-88.41665	36.49896
	-88.41626	36.49888
	-88.41595	36.49886
	-88.41447	36.49884
	-88.41289	36.49884
	-88.41156	36.49881
	-88.40733	36.49876
	-88.40267	36.49873
	-88.39895	36.49877
	-88.39646	36.49875
	-88.39578	36.49873
	-88.39349	36.4987
	-88.3913	36.49871
	-88.38787	36.49869
	-88.38491	36.4987
	-88.38268	36.49863
	-88.38161	36.49864
	-88.38053	36.49862
	-88.37851	36.5006
	-88.37861	36.50071
	-88.17928	36.50005
	-88.08591	36.49702
	-88.05705	36.49672
	-88.05457	36.49803
	-88.05047	36.50005
	-88.0453	36.50408
	-88.03948	36.51041
	-88.03782	36.51385
	-88.03733	36.51783
	-88.03783	36.52101
	-88.03727	36.52378
	-88.03585	36.52591
	-88.03413	36.53112
	-88.03249	36.54066
	-88.0338	36.55173
	-88.03562	36.56174
	-88.03962	36.57278
	-88.0412	36.58412
	-88.04513	36.60294
	-88.05574	36.63047
	-88.0556	36.63571
	-88.05704	36.64054
	-88.05858	36.64332
	-88.0644	36.65085
	-88.06821	36.65975
	-88.07053	36.67812
	-88.04477	36.67798
	-88.01179	36.67703
	-87.91212	36.66851
	-87.89542	36.66759
	-87.89441	36.66939
	-87.89353	36.66978
	-87.89311	36.66992
	-87.89245	36.67005
	-87.89206	36.67009
	-87.89106	36.6701
	-87.89106	36.67023
	-87.89096	36.67091
	-87.89082	36.67135
	-87.89012	36.67233
	-87.88972	36.67263
	-87.88901	36.67297
	-87.88764	36.67331
	-87.88755	36.67336
	-87.8874	36.67354
	-87.88585	36.67428
	-87.88493	36.67428
	-87.88455	36.67467
	-87.8844	36.67477
	-87.88332	36.67509
	-87.88275	36.67509
	-87.88105	36.67414
	-87.88074	36.67365
	-87.87957	36.67218
	-87.87798	36.67114
	-87.87767	36.67088
	-87.87707	36.67028
	-87.87653	36.66929
	-87.87639	36.66862
	-87.87639	36.6678
	-87.8765	36.66725
	-87.87664	36.66683
	-87.87677	36.66655
	-87.85045	36.6651
	-87.85354	36.63507
	-87.79704	36.63475
	-87.74477	36.63615
	-87.66042	36.63768
	-87.66062	36.6374
	-87.66035	36.63577
	-87.65962	36.63453
	-87.65949	36.63443
	-87.6581	36.634
	-87.65693	36.63409
	-87.65629	36.63425
	-87.65555	36.63457
	-87.65493	36.635
	-87.65387	36.63607
	-87.65358	36.63631
	-87.65189	36.63784
	-87.6409	36.63804
	-87.56468	36.63911
	-87.5628	36.63911
	-87.47546	36.64024
	-87.43673	36.6409
	-87.42608	36.64101
	-87.42476	36.64105
	-87.41406	36.64105
	-87.39814	36.64114
	-87.34755	36.64144
	-87.34388	36.64151
	-87.28342	36.64175
	-87.28155	36.63977
	-87.27944	36.63971
	-87.27861	36.6397
	-87.27825	36.63973
	-87.27676	36.64057
	-87.27658	36.64083
	-87.2763	36.64173
	-87.24932	36.64183
	-87.24942	36.64171
	-87.24729	36.63985
	-87.24695	36.63987
	-87.24575	36.6399
	-87.24479	36.63991
	-87.23227	36.63988
	-87.23192	36.63989
	-87.23169	36.63991
	-87.23161	36.63993
	-87.23137	36.63984
	-87.23079	36.63982
	-87.23044	36.63983
	-87.22894	36.64057
	-87.22884	36.64069
	-87.22841	36.64173
	-87.22839	36.6419
	-87.17533	36.64214
	-87.17434	36.6409
	-87.17401	36.64059
	-87.17393	36.64053
	-87.17337	36.64024
	-87.17331	36.64022
	-87.17269	36.64012
	-87.17215	36.64017
	-87.17208	36.64019
	-87.17168	36.64032
	-87.17121	36.64058
	-87.17081	36.64216
	-87.11498	36.64241
	-87.01152	36.64395
	-86.90658	36.64625
	-86.90602	36.6463
	-86.85427	36.64688
	-86.83315	36.64721
	-86.8184	36.64764
	-86.81619	36.64772
	-86.81304	36.64765
	-86.78753	36.64829
	-86.76289	36.64894
	-86.75892	36.64902
	-86.71379	36.64934
	-86.60639	36.65211
	-86.60504	36.65212
	-86.58991	36.65249
	-86.56414	36.63347
	-86.55129	36.63799
	-86.55005	36.64482
	-86.54339	36.64389
	-86.54378	36.64054
	-86.53837	36.64232
	-86.50777	36.65245
	-86.4735	36.65167
	-86.47219	36.65176
	-86.4685	36.65184
	-86.37499	36.6498
	-86.37378	36.65013
	-86.35907	36.64984
	-86.33305	36.64878
	-86.29336	36.64536
	-86.22215	36.64089
	-86.21908	36.64082
	-86.21641	36.64059
	-86.21618	36.64053
	-86.20486	36.63974
	-86.19982	36.63948
	-86.19849	36.64164
	-86.19608	36.64015
	-86.19594	36.63953
	-86.19591	36.63928
	-86.19588	36.63906
	-86.1959	36.63738
	-86.19589	36.63707
	-86.1963	36.63578
	-86.19644	36.6356
	-86.19761	36.63486
	-86.19785	36.6348
	-86.19829	36.63476
	-86.19845	36.63476
	-86.21014	36.57313
	-86.21068	36.57312
	-86.21111	36.57306
	-86.21149	36.57297
	-86.2124	36.57246
	-86.21276	36.57211
	-86.21315	36.57176
	-86.21408	36.57086
	-86.21428	36.57064
	-86.21448	36.57038
	-86.21485	36.56866
	-86.21482	36.56854
	-86.21401	36.56739
	-86.21398	36.56558
	-86.21364	36.56448
	-86.21344	36.5642
	-86.21358	36.56383
	-86.21403	36.56302
	-86.21482	36.56182
	-86.21497	36.56155
	-86.21554	36.56029
	-86.21567	36.55986
	-86.21613	36.55757
	-86.21614	36.55689
	-86.216	36.55591
	-86.21586	36.55539
	-86.21515	36.55377
	-86.21498	36.55345
	-86.21471	36.55306
	-86.2146	36.55276
	-86.21468	36.55258
	-86.21482	36.55202
	-86.21512	36.54913
	-86.21529	36.5484
	-86.21526	36.54738
	-86.21516	36.54704
	-86.21513	36.54687
	-86.23142	36.46107
	-86.23166	36.45632
	-86.23182	36.45631
	-86.2342	36.45589
	-86.23548	36.45557
	-86.23688	36.45512
	-86.23774	36.45456
	-86.23798	36.4543
	-86.23818	36.45404
	-86.23845	36.45364
	-86.23871	36.45309
	-86.23891	36.45245
	-86.239	36.45201
	-86.23914	36.45014
	-86.23914	36.44982
	-86.23911	36.44947
	-86.23895	36.44923
	-86.23857	36.44819
	-86.23806	36.44757
	-86.23764	36.44718
	-86.23724	36.44692
	-86.23693	36.4465
	-86.23674	36.44565
	-86.23663	36.44436
	-86.23667	36.44417
	-86.2367	36.44375
	-86.23667	36.44272
	-86.23637	36.44172
	-86.23617	36.4414
	-86.23571	36.44088
	-86.233	36.43876
	-86.2326	36.43836
	-86.23292	36.4323
	-86.23349	36.43187
	-86.23405	36.43121
	-86.23431	36.43073
	-86.23452	36.42958
	-86.23493	36.42901
	-86.23529	36.42809
	-86.23538	36.42736
	-86.23543	36.42727
	-86.23619	36.42708
	-86.23681	36.42681
	-86.2374	36.42642
	-86.23789	36.42598
	-86.23865	36.42499
	-86.23907	36.42387
	-86.2391	36.42329
	-86.239	36.42257
	-86.23888	36.42222
	-86.2387	36.42182
	-86.23828	36.42111
	-86.23785	36.42061
	-86.23648	36.41947
	-86.23548	36.41842
	-86.23532	36.41827
	-86.23372	36.41694
	-86.23616	36.37034
	-86.23564	36.37005
	-86.23533	36.36982
	-86.23493	36.36948
	-86.23437	36.36868
	-86.23426	36.36838
	-86.23413	36.36771
	-86.2341	36.36604
	-86.23427	36.36603
	-86.23408	36.36417
	-86.23536	36.3626
	-86.23657	36.36247
	-86.23962	36.30402
	-86.34445	36.28786
	-86.34171	36.1967
	-86.33533	36.1577
	-86.41516	35.93111
	-86.45062	35.88726
	-86.45845	35.86049
	-86.45732	35.85899
	-86.45766	35.85674
	-86.45806	35.85449
	-86.45813	35.85396
	-86.45822	35.85356
	-86.45832	35.85326
	-86.45895	35.85235
	-86.45921	35.85213
	-86.45965	35.8519
	-86.45969	35.85132
	-86.46016	35.85135
	-86.46053	35.84966
	-86.46155	35.84988
	-86.46544	35.83659
	-86.47865	35.82948
	-86.48148	35.82976
	-86.4823	35.82982
	-86.48352	35.82951
	-86.48362	35.82944
	-86.48444	35.82839
	-86.48446	35.82832
	-86.48456	35.82751
	-86.48455	35.82743
	-86.48426	35.82656
	-86.48422	35.82649
	-86.53248	35.80052
	-86.60187	35.76193
	-86.66568	35.5679
	-86.85282	35.51076
	-86.85733	35.3984
	-86.87022	35.34269
	-86.86185	35.24799
	-86.86442	35.15846
	-86.85669	35.04297
	-86.7834	34.99193
END
END
