US_Virginia_Richmond
1
	-77.17186	37.71024
	-77.11428	37.65519
	-77.083	37.46576
	-77.08176	37.465
	-77.08093	37.46398
	-77.08041	37.46256
	-77.08045	37.46219
	-77.08015	37.46199
	-77.07949	37.46142
	-77.07916	37.46105
	-77.07901	37.46085
	-77.07865	37.4596
	-77.07874	37.4579
	-77.07923	37.45793
	-77.07885	37.45711
	-77.0806	37.45349
	-77.08096	37.45338
	-77.06898	37.38083
	-77.16657	37.14332
	-77.165	37.14364
	-77.16443	37.14087
	-77.16446	37.14082
	-77.16482	37.14041
	-77.16531	37.14008
	-77.16568	37.13993
	-77.16608	37.13981
	-77.16667	37.1396
	-77.1679	37.13921
	-77.16824	37.13908
	-77.16834	37.13899
	-77.16966	37.13578
	-77.16953	37.13573
	-77.16919	37.13555
	-77.16882	37.13526
	-77.1684	37.1347
	-77.16833	37.13456
	-77.16816	37.13407
	-77.16811	37.13336
	-77.16822	37.13285
	-77.16835	37.1325
	-77.1685	37.13219
	-77.16859	37.13204
	-77.16894	37.13157
	-77.16913	37.13137
	-77.16936	37.13115
	-77.16964	37.13093
	-77.16999	37.13068
	-77.17031	37.1305
	-77.17038	37.13042
	-77.17098	37.12924
	-77.17145	37.12827
	-77.17226	37.12672
	-77.17298	37.12523
	-77.17416	37.12483
	-77.20393	37.0524
	-77.20504	37.05262
	-77.2061	37.05191
	-77.2064	37.04882
	-77.20568	37.04812
	-77.21722	37.02003
	-77.27596	36.66975
	-77.27651	36.66961
	-77.27766	36.66928
	-77.27813	36.66908
	-77.27864	36.66867
	-77.27902	36.66809
	-77.27919	36.66753
	-77.27921	36.6672
	-77.2792	36.66664
	-77.27944	36.66645
	-77.27982	36.6661
	-77.27997	36.66593
	-77.28017	36.66566
	-77.28024	36.66556
	-77.28041	36.66524
	-77.28057	36.6647
	-77.28062	36.66428
	-77.2806	36.6639
	-77.28052	36.66353
	-77.28035	36.6631
	-77.28017	36.66279
	-77.27991	36.66243
	-77.27965	36.66201
	-77.27944	36.66163
	-77.27915	36.66122
	-77.27908	36.661
	-77.2789	36.66068
	-77.27877	36.66021
	-77.27868	36.65999
	-77.27854	36.65972
	-77.27853	36.65952
	-77.2778	36.65879
	-77.29691	36.54479
	-77.4136	36.54473
	-77.49868	36.54509
	-77.50796	36.5451
	-77.50957	36.54322
	-77.51134	36.54308
	-77.51317	36.54223
	-77.51372	36.54207
	-77.51426	36.54199
	-77.51465	36.54197
	-77.51565	36.54203
	-77.51655	36.54216
	-77.51707	36.54231
	-77.51773	36.54261
	-77.51798	36.54274
	-77.51866	36.54317
	-77.51891	36.54336
	-77.51929	36.54369
	-77.51939	36.54512
	-77.67236	36.54539
	-77.70121	36.54581
	-77.74971	36.54552
	-77.76642	36.54545
	-77.86799	36.54488
	-77.90153	36.54466
	-78.0462	36.54417
	-78.08	36.54403
	-78.08008	36.54484
	-78.08055	36.54567
	-78.0809	36.54597
	-78.08134	36.54622
	-78.08174	36.54635
	-78.08221	36.54642
	-78.08251	36.54644
	-78.08285	36.54642
	-78.08324	36.54634
	-78.08372	36.54614
	-78.08429	36.54567
	-78.08464	36.54511
	-78.08481	36.5445
	-78.08479	36.54401
	-78.13292	36.54382
	-78.13333	36.54385
	-78.14263	36.54369
	-78.15787	36.54395
	-78.18487	36.54421
	-78.24546	36.54441
	-78.24668	36.54434
	-78.2498	36.54447
	-78.25143	36.54444
	-78.29075	36.54414
	-78.23482	36.71484
	-78.23349	36.71484
	-78.23334	36.71498
	-78.23314	36.71521
	-78.23294	36.71547
	-78.23265	36.71601
	-78.23259	36.71616
	-78.23227	36.71722
	-78.23205	36.71805
	-78.23172	36.71826
	-78.23114	36.7186
	-78.23082	36.71882
	-78.23053	36.71906
	-78.22897	36.72046
	-78.22845	36.72094
	-78.22826	36.72114
	-78.22799	36.72151
	-78.22779	36.72192
	-78.22769	36.72223
	-78.22762	36.72256
	-78.22744	36.72391
	-78.22727	36.72543
	-78.22728	36.72584
	-78.2273	36.72598
	-78.2274	36.72642
	-78.2275	36.7267
	-78.2277	36.72717
	-78.22909	36.73022
	-78.22953	36.73101
	-78.19508	36.83617
	-78.19497	36.83615
	-78.19362	36.83604
	-78.19325	36.83605
	-78.19277	36.83611
	-78.19231	36.83621
	-78.19186	36.83642
	-78.19144	36.83676
	-78.19107	36.83728
	-78.19087	36.83788
	-78.19083	36.83845
	-78.19088	36.83881
	-78.19102	36.83928
	-78.19111	36.83972
	-78.19118	36.83996
	-78.19125	36.84029
	-78.19135	36.8406
	-78.19151	36.841
	-78.19152	36.84109
	-78.19119	36.84107
	-78.19092	36.84109
	-78.19072	36.84112
	-78.18898	36.84335
	-78.19081	36.84477
	-78.19074	36.84497
	-78.19124	36.84514
	-78.19168	36.84522
	-78.15854	36.91918
	-78.15779	36.91919
	-78.15755	36.91921
	-78.15745	36.91923
	-78.15707	36.91933
	-78.15685	36.91942
	-78.15641	36.91964
	-78.15607	36.91986
	-78.15579	36.9201
	-78.15553	36.9204
	-78.15545	36.92052
	-78.1553	36.92076
	-78.15514	36.92108
	-78.15499	36.92149
	-78.15492	36.92183
	-78.1549	36.92202
	-78.15488	36.92241
	-78.15489	36.92258
	-78.15495	36.92297
	-78.15499	36.9231
	-78.15496	36.92316
	-78.15473	36.92344
	-78.15503	36.92366
	-78.15423	36.92547
	-78.15547	36.92602
	-78.01209	37.24595
	-78.07797	37.4113
	-78.09355	37.47243
	-78.09366	37.47566
	-78.09362	37.47595
	-78.09342	37.47679
	-78.09336	37.47714
	-78.09323	37.4786
	-78.09323	37.47904
	-78.09325	37.47926
	-78.09331	37.47965
	-78.09339	37.48003
	-78.09361	37.48073
	-78.09403	37.48217
	-78.09424	37.48298
	-78.09437	37.4834
	-78.09445	37.4836
	-78.09662	37.4845
	-78.13268	37.62603
	-78.0788	37.98844
	-77.99812	37.96207
	-77.91298	37.87702
	-77.84019	37.82009
	-77.7523	37.79134
	-77.67815	37.7566
	-77.63763	37.74737
	-77.59781	37.77072
	-77.55524	37.81467
	-77.48726	37.81575
	-77.4337	37.79676
	-77.39387	37.74194
	-77.33208	37.72131
	-77.26959	37.71587
	-77.21809	37.69523
	-77.17186	37.71024
END
END
