US_Virginia_Lynchburg
1
	-80.25202	37.72982
	-80.26031	37.73352
	-80.26276	37.73834
	-80.25741	37.75608
	-80.25641	37.75637
	-80.25162	37.75587
	-80.24979	37.75711
	-80.25043	37.7613
	-80.25132	37.76296
	-80.2469	37.76831
	-80.24139	37.76944
	-80.23201	37.77562
	-80.23046	37.77831
	-80.2275	37.77889
	-80.22183	37.77829
	-80.21763	37.77678
	-80.2169	37.77606
	-80.2165	37.77645
	-80.21566	37.77748
	-80.21589	37.78199
	-80.21862	37.78329
	-80.22009	37.78316
	-80.22796	37.79171
	-80.22949	37.79233
	-80.22923	37.79466
	-80.22709	37.79889
	-80.21861	37.80978
	-80.21822	37.80972
	-80.21621	37.80783
	-80.21568	37.80784
	-80.21439	37.80837
	-80.21401	37.80871
	-80.21357	37.8093
	-80.21349	37.80946
	-80.214	37.81099
	-80.21096	37.8126
	-80.20648	37.81597
	-80.20584	37.81892
	-80.20285	37.82424
	-80.19963	37.82751
	-80.19465	37.83176
	-80.18638	37.83774
	-80.18177	37.83834
	-80.17939	37.83975
	-80.18355	37.84681
	-80.18306	37.85065
	-80.18181	37.85272
	-80.17671	37.85403
	-80.17208	37.86007
	-80.17203	37.86214
	-80.16896	37.86712
	-80.1622	37.87512
	-80.15462	37.88119
	-80.1536	37.88079
	-80.15344	37.88078
	-80.15283	37.88081
	-80.15274	37.88083
	-80.15117	37.88158
	-80.1496	37.88223
	-80.14913	37.8825
	-80.14899	37.88261
	-80.14841	37.88334
	-80.14821	37.88377
	-80.14763	37.88312
	-80.14694	37.88262
	-80.1468	37.88255
	-80.14578	37.8824
	-80.14562	37.88241
	-80.14526	37.88259
	-80.14471	37.88245
	-80.14461	37.88244
	-80.14362	37.88335
	-80.14195	37.88262
	-80.13193	37.8895
	-80.13104	37.8907
	-80.13046	37.89319
	-80.12955	37.89413
	-80.12362	37.89794
	-80.12302	37.89805
	-80.12061	37.89673
	-80.11775	37.89772
	-80.11748	37.90058
	-80.11911	37.90202
	-80.11897	37.90361
	-80.11688	37.90629
	-80.10682	37.9147
	-80.10293	37.91891
	-80.09656	37.91811
	-80.08695	37.92955
	-80.08082	37.93553
	-80.07544	37.93963
	-80.07451	37.94222
	-80.06657	37.94717
	-80.06368	37.94797
	-80.05684	37.95183
	-80.05104	37.95685
	-80.04841	37.95748
	-80.03624	37.96792
	-80.02417	37.97691
	-80.01314	37.98425
	-80.01255	37.986
	-80.01289	37.98744
	-80.01219	37.98863
	-80.00889	37.99083
	-80.00251	37.99277
	-79.99938	37.99584
	-79.99613	38.001
	-79.9954	38.00331
	-79.9959	38.00579
	-79.99498	38.00785
	-79.99011	38.01325
	-79.98614	38.01418
	-79.98484	38.01661
	-79.98579	38.01809
	-79.98562	38.01916
	-79.98029	38.0276
	-79.97843	38.02908
	-79.97673	38.02928
	-79.97527	38.03007
	-79.9737	38.03256
	-79.97216	38.0361
	-79.97378	38.03874
	-79.97389	38.04
	-79.97123	38.04433
	-79.96819	38.04771
	-79.96003	38.06521
	-79.96009	38.06868
	-79.95437	38.0804
	-79.95351	38.08148
	-79.94911	38.08424
	-79.94236	38.09159
	-79.93827	38.09474
	-79.9351	38.09654
	-79.93425	38.09767
	-79.93391	38.09917
	-79.93103	38.1014
	-79.92764	38.10483
	-79.92633	38.10715
	-79.92969	38.1092
	-79.93436	38.10972
	-79.93805	38.11076
	-79.93895	38.11162
	-79.94484	38.13159
	-79.94275	38.13433
	-79.93375	38.13551
	-79.92903	38.13977
	-79.92875	38.14444
	-79.92867	38.14492
	-79.92551	38.15024
	-79.92525	38.15046
	-79.92312	38.15087
	-79.91866	38.15479
	-79.91488	38.16752
	-79.91506	38.16809
	-79.91607	38.16843
	-79.91792	38.1684
	-79.91891	38.17044
	-79.91863	38.17267
	-79.91676	38.1755
	-79.91662	38.17799
	-79.92102	38.17995
	-79.92119	38.18037
	-79.91706	38.18374
	-79.91617	38.18439
	-79.91634	38.18628
	-79.91441	38.18842
	-79.91096	38.18792
	-79.90609	38.189
	-79.89843	38.19304
	-79.89292	38.19987
	-79.89234	38.2024
	-79.892	38.20338
	-79.89159	38.20465
	-79.88804	38.20736
	-79.88641	38.20795
	-79.88423	38.20787
	-79.88176	38.20938
	-79.88182	38.20993
	-79.88201	38.20993
	-79.88198	38.2106
	-79.8817	38.21155
	-79.88139	38.21206
	-79.88085	38.21265
	-79.88055	38.21287
	-79.87947	38.21324
	-79.87907	38.21326
	-79.87892	38.21345
	-79.87821	38.21424
	-79.87742	38.21477
	-79.87733	38.21481
	-79.87726	38.21493
	-79.87697	38.2153
	-79.87644	38.21583
	-79.87617	38.21608
	-79.87582	38.21648
	-79.87496	38.21705
	-79.87459	38.21717
	-79.87278	38.21629
	-79.86362	38.22395
	-79.85696	38.23107
	-79.85032	38.23333
	-79.84644	38.24
	-79.84521	38.24108
	-79.84298	38.24159
	-79.83749	38.24128
	-79.83512	38.24189
	-79.83417	38.2429
	-79.83403	38.24496
	-79.83297	38.24755
	-79.83088	38.24969
	-79.82528	38.25049
	-79.82101	38.24828
	-79.81962	38.24823
	-79.81715	38.24951
	-79.81486	38.25157
	-79.81572	38.25364
	-79.81571	38.25507
	-79.8142	38.25817
	-79.81327	38.25911
	-79.81286	38.25829
	-79.81178	38.25882
	-79.81121	38.25872
	-79.81114	38.2586
	-79.811	38.25868
	-79.80946	38.25841
	-79.80918	38.25838
	-79.80699	38.25831
	-79.80665	38.25832
	-79.80524	38.25851
	-79.80404	38.25876
	-79.80357	38.25892
	-79.80189	38.25973
	-79.8016	38.2599
	-79.80035	38.26079
	-79.79997	38.26115
	-79.79952	38.2617
	-79.79911	38.26211
	-79.79885	38.26245
	-79.79759	38.26443
	-79.79734	38.26497
	-79.79692	38.2648
	-79.79617	38.26464
	-79.79494	38.26463
	-79.79459	38.26465
	-79.79259	38.26498
	-79.79152	38.26552
	-79.79104	38.26598
	-79.79033	38.26626
	-79.78984	38.26655
	-79.78906	38.26716
	-79.78842	38.26804
	-79.78808	38.26898
	-79.78795	38.26959
	-79.78789	38.27091
	-79.78805	38.27165
	-79.78754	38.2733
	-79.78923	38.27919
	-79.78911	38.27932
	-79.78861	38.28064
	-79.78861	38.28128
	-79.78868	38.28179
	-79.78891	38.28266
	-79.78904	38.28282
	-79.78903	38.28282
	-79.78921	38.28335
	-79.78948	38.28389
	-79.79051	38.28532
	-79.7907	38.28571
	-79.79126	38.28642
	-79.79152	38.28663
	-79.79247	38.28704
	-79.79355	38.28719
	-79.79449	38.28869
	-79.79431	38.29004
	-79.79446	38.29049
	-79.79461	38.29086
	-79.79482	38.29122
	-79.79605	38.29219
	-79.79623	38.29223
	-79.79631	38.29193
	-79.79739	38.29238
	-79.79849	38.29206
	-79.79937	38.29206
	-79.79986	38.29262
	-79.80059	38.29287
	-79.80119	38.29298
	-79.80226	38.29301
	-79.8025	38.29333
	-79.8028	38.29358
	-79.80293	38.29467
	-79.80293	38.29504
	-79.80325	38.29588
	-79.80335	38.29668
	-79.80403	38.29862
	-79.80754	38.30169
	-79.80995	38.30482
	-79.81011	38.30504
	-79.81015	38.30671
	-79.80871	38.30943
	-79.80866	38.30948
	-79.80409	38.31392
	-79.79962	38.31715
	-79.79816	38.31916
	-79.79655	38.32348
	-79.78597	38.33088
	-79.77927	38.33161
	-79.77309	38.33553
	-79.76991	38.34184
	-79.7664	38.35087
	-79.76726	38.35339
	-79.76443	38.35651
	-79.75763	38.35757
	-79.75556	38.35737
	-79.7441	38.35397
	-79.74061	38.3541
	-79.7346	38.35673
	-79.73206	38.36017
	-79.72934	38.36183
	-79.72705	38.36223
	-79.72597	38.36323
	-79.7256	38.36383
	-79.7258	38.36613
	-79.72679	38.37083
	-79.72768	38.3717
	-79.73049	38.37222
	-79.7317	38.37338
	-79.72989	38.38035
	-79.72635	38.38707
	-79.72265	38.38952
	-79.71736	38.40156
	-79.7129	38.40503
	-79.70896	38.40955
	-79.70914	38.41206
	-79.70663	38.41573
	-79.69197	38.42931
	-79.69066	38.42885
	-79.69051	38.42892
	-79.68968	38.42966
	-79.68884	38.4306
	-79.68847	38.43118
	-79.6884	38.43137
	-79.68825	38.43219
	-79.68827	38.43281
	-79.68821	38.43319
	-79.68823	38.43358
	-79.68832	38.43417
	-79.68836	38.43432
	-79.68844	38.43453
	-79.68861	38.43486
	-79.68864	38.43533
	-79.68872	38.43577
	-79.68881	38.43605
	-79.68891	38.43626
	-79.68903	38.43662
	-79.6892	38.43697
	-79.6894	38.43726
	-79.68929	38.43757
	-79.68919	38.43793
	-79.68917	38.43806
	-79.68915	38.43843
	-79.68917	38.43875
	-79.68922	38.43903
	-79.68865	38.43947
	-79.68823	38.43984
	-79.68815	38.43992
	-79.68789	38.44025
	-79.68768	38.44057
	-79.68745	38.44105
	-79.68733	38.4414
	-79.6873	38.44153
	-79.68724	38.44191
	-79.68726	38.44246
	-79.68742	38.44302
	-79.68761	38.4434
	-79.68779	38.44365
	-79.68795	38.44383
	-79.68831	38.44419
	-79.68876	38.44454
	-79.68893	38.44464
	-79.68989	38.44629
	-79.69111	38.44557
	-79.69148	38.44628
	-79.68896	38.44954
	-79.6882	38.45048
	-79.68836	38.45687
	-79.68851	38.45739
	-79.68854	38.45748
	-79.68875	38.45779
	-79.6894	38.45827
	-79.68964	38.45847
	-79.68984	38.45865
	-79.69029	38.45916
	-79.69073	38.4598
	-79.69108	38.46035
	-79.69138	38.4609
	-79.69149	38.46115
	-79.69161	38.46152
	-79.69174	38.4621
	-79.69179	38.46274
	-79.69311	38.46333
	-79.69351	38.46353
	-79.69405	38.46385
	-79.69423	38.46397
	-79.69463	38.46429
	-79.695	38.46467
	-79.69526	38.46501
	-79.69554	38.46544
	-79.69574	38.46584
	-79.69586	38.46615
	-79.69597	38.4665
	-79.69604	38.46687
	-79.69607	38.46712
	-79.69609	38.46755
	-79.69607	38.46793
	-79.69695	38.46866
	-79.69719	38.46888
	-79.69787	38.46961
	-79.69893	38.46987
	-79.69915	38.47119
	-79.69979	38.47196
	-79.70019	38.47254
	-79.7004	38.4729
	-79.70058	38.47328
	-79.70075	38.47373
	-79.70085	38.47409
	-79.701	38.47478
	-79.70038	38.47572
	-79.70067	38.47404
	-79.69789	38.47355
	-79.69657	38.47447
	-79.69452	38.4761
	-79.69424	38.47638
	-79.6938	38.47672
	-79.69341	38.47712
	-79.69309	38.47755
	-79.69282	38.47806
	-79.69277	38.47818
	-79.69261	38.47827
	-79.69235	38.47845
	-79.69213	38.47864
	-79.69185	38.48145
	-79.69463	38.48173
	-79.69467	38.48173
	-79.69477	38.48165
	-79.69496	38.48153
	-79.6952	38.4814
	-79.69546	38.48145
	-79.69696	38.48457
	-79.69757	38.48722
	-79.69451	38.49423
	-79.69227	38.49647
	-79.6913	38.49677
	-79.68834	38.49618
	-79.68297	38.50132
	-79.68161	38.5045
	-79.68157	38.50822
	-79.68037	38.51062
	-79.67407	38.51042
	-79.67047	38.50772
	-79.66967	38.50961
	-79.66851	38.50902
	-79.66804	38.50994
	-79.66779	38.50966
	-79.6677	38.50975
	-79.66764	38.51069
	-79.66718	38.51061
	-79.66715	38.5108
	-79.66757	38.51087
	-79.66723	38.51154
	-79.66725	38.5116
	-79.66758	38.51149
	-79.66751	38.51257
	-79.66799	38.5126
	-79.66757	38.51292
	-79.66567	38.51382
	-79.66347	38.51412
	-79.66207	38.51552
	-79.66297	38.51872
	-79.66677	38.52432
	-79.66977	38.52692
	-79.67157	38.52752
	-79.67297	38.52872
	-79.66877	38.53422
	-79.66687	38.53832
	-79.66967	38.54342
	-79.66927	38.54952
	-79.66814	38.55261
	-79.66881	38.55279
	-79.6689	38.55294
	-79.66916	38.55382
	-79.66922	38.55475
	-79.6693	38.55512
	-79.66923	38.55621
	-79.66901	38.55685
	-79.66851	38.55762
	-79.66752	38.55858
	-79.66746	38.55871
	-79.66718	38.55917
	-79.66703	38.5594
	-79.66684	38.55965
	-79.66657	38.55992
	-79.66618	38.56019
	-79.66605	38.56049
	-79.66591	38.56073
	-79.66567	38.56109
	-79.66537	38.56139
	-79.66492	38.56169
	-79.66463	38.56182
	-79.66408	38.56195
	-79.66362	38.56195
	-79.6632	38.56188
	-79.66312	38.56185
	-79.66297	38.562
	-79.66271	38.56174
	-79.66122	38.56295
	-79.6603	38.56182
	-79.65927	38.56242
	-79.66052	38.56579
	-79.66134	38.56514
	-79.66264	38.56679
	-79.66296	38.56665
	-79.66314	38.56704
	-79.66327	38.56727
	-79.66342	38.56762
	-79.66354	38.56802
	-79.66363	38.56841
	-79.66367	38.56866
	-79.6637	38.56914
	-79.6634	38.57015
	-79.66296	38.57069
	-79.66251	38.571
	-79.66204	38.57119
	-79.66196	38.57133
	-79.6619	38.5714
	-79.66191	38.5715
	-79.66185	38.57199
	-79.66161	38.57258
	-79.66121	38.57309
	-79.66082	38.57339
	-79.66026	38.57363
	-79.65988	38.57374
	-79.65921	38.57388
	-79.65904	38.5739
	-79.65869	38.57391
	-79.65864	38.57403
	-79.65874	38.57437
	-79.65879	38.57483
	-79.65875	38.57529
	-79.65863	38.5757
	-79.65813	38.57665
	-79.65805	38.57662
	-79.65733	38.5777
	-79.65697	38.57795
	-79.65676	38.57819
	-79.65665	38.57864
	-79.65652	38.57896
	-79.65653	38.57901
	-79.65644	38.57947
	-79.65641	38.57956
	-79.65631	38.57981
	-79.65612	38.58017
	-79.65605	38.58029
	-79.65583	38.58056
	-79.65581	38.58084
	-79.65579	38.58093
	-79.65567	38.58131
	-79.65553	38.5816
	-79.65563	38.58231
	-79.65564	38.58268
	-79.65562	38.58301
	-79.65555	38.58356
	-79.65539	38.58429
	-79.65526	38.58466
	-79.65515	38.58489
	-79.65495	38.58523
	-79.65479	38.58545
	-79.65428	38.58593
	-79.65412	38.58604
	-79.65364	38.58627
	-79.65332	38.58637
	-79.65296	38.58673
	-79.65245	38.58702
	-79.65223	38.58729
	-79.65169	38.58783
	-79.65153	38.58816
	-79.65109	38.58885
	-79.65075	38.58934
	-79.65076	38.58944
	-79.65074	38.58999
	-79.65043	38.59082
	-79.65037	38.59091
	-79.64989	38.59141
	-79.64977	38.59164
	-79.64954	38.59197
	-79.64934	38.5922
	-79.64908	38.59246
	-79.64847	38.59245
	-79.64741	38.59329
	-79.64674	38.59244
	-79.64625	38.59244
	-79.64626	38.59183
	-79.64566	38.59106
	-79.64569	38.59079
	-79.64627	38.58961
	-79.64634	38.58954
	-79.64647	38.58925
	-79.64661	38.58903
	-79.64669	38.58837
	-79.64673	38.58825
	-79.64707	38.58761
	-79.64766	38.58677
	-79.6435	38.59198
	-79.57177	38.56312
	-79.56627	38.56252
	-79.55547	38.56022
	-79.54257	38.55322
	-79.53827	38.55182
	-79.53687	38.55092
	-79.53337	38.54622
	-79.53317	38.54472
	-79.53187	38.54282
	-79.52147	38.53392
	-79.49979	38.49776
	-79.47664	38.45723
	-79.40922	38.43822
	-79.40793	38.43974
	-79.40738	38.43978
	-79.40686	38.43976
	-79.40634	38.43966
	-79.40605	38.43973
	-79.40472	38.44024
	-79.40403	38.44038
	-79.40308	38.44039
	-79.40204	38.44047
	-79.40013	38.44091
	-79.39981	38.44095
	-79.39883	38.44102
	-79.39807	38.44092
	-79.3968	38.44049
	-79.39639	38.4403
	-79.39615	38.44015
	-79.39507	38.43864
	-79.39496	38.4378
	-79.39533	38.43634
	-79.39555	38.43604
	-79.39571	38.43499
	-79.39615	38.43453
	-79.3703	38.42724
	-79.31228	38.41188
	-79.30747	38.41306
	-79.30742	38.41361
	-79.3074	38.4144
	-79.30735	38.41479
	-79.30725	38.41525
	-79.30711	38.41571
	-79.30682	38.41631
	-79.30646	38.41673
	-79.30559	38.41724
	-79.30551	38.41727
	-79.30507	38.41734
	-79.30459	38.41733
	-79.30408	38.41722
	-79.30386	38.41716
	-79.30367	38.41709
	-79.30334	38.41695
	-79.30299	38.41675
	-79.30263	38.4166
	-79.30258	38.41659
	-79.30218	38.4166
	-79.30192	38.41659
	-79.30131	38.41653
	-79.30079	38.41668
	-79.30036	38.4167
	-79.30012	38.41686
	-79.29983	38.41702
	-79.29958	38.41712
	-79.29946	38.41714
	-79.29707	38.41833
	-79.29701	38.41821
	-79.29715	38.417
	-79.29706	38.41689
	-79.29688	38.41649
	-79.29671	38.41619
	-79.29649	38.41588
	-79.29627	38.41564
	-79.29597	38.41541
	-79.29561	38.4152
	-79.2952	38.41505
	-79.29446	38.41497
	-79.29397	38.41504
	-79.29367	38.41513
	-79.29325	38.41533
	-79.29264	38.41585
	-79.29243	38.41614
	-79.29223	38.41649
	-79.29215	38.41668
	-79.29193	38.41709
	-79.29179	38.41732
	-79.29163	38.41739
	-79.2913	38.4176
	-79.29109	38.41776
	-79.29077	38.41808
	-79.29048	38.41842
	-79.29064	38.42066
	-79.29053	38.42076
	-79.28843	38.42096
	-79.28687	38.42056
	-79.28561	38.41925
	-79.28297	38.4181
	-79.28015	38.42076
	-79.27974	38.42373
	-79.2783	38.42587
	-79.27853	38.42699
	-79.27882	38.42738
	-79.27923	38.42831
	-79.27945	38.42851
	-79.27975	38.42884
	-79.27986	38.42893
	-79.27997	38.42905
	-79.28004	38.42915
	-79.28022	38.4295
	-79.28054	38.43001
	-79.28071	38.43043
	-79.28068	38.43087
	-79.28069	38.43112
	-79.28188	38.43227
	-79.27453	38.43634
	-79.27206	38.43738
	-79.26741	38.43832
	-79.26626	38.44016
	-79.26619	38.43997
	-79.26396	38.44076
	-79.26383	38.4406
	-79.26317	38.44107
	-79.26288	38.44133
	-79.26235	38.44192
	-79.26194	38.44248
	-79.26185	38.44262
	-79.262	38.4433
	-79.26133	38.44339
	-79.26124	38.4435
	-79.26078	38.44363
	-79.26036	38.44383
	-79.26007	38.44401
	-79.25975	38.44428
	-79.25929	38.44475
	-79.25911	38.44497
	-79.25869	38.44514
	-79.25842	38.4453
	-79.25807	38.44558
	-79.25745	38.44619
	-79.25725	38.44641
	-79.257	38.44673
	-79.25676	38.44711
	-79.25655	38.44735
	-79.2563	38.44757
	-79.25586	38.44801
	-79.25561	38.44822
	-79.25509	38.44872
	-79.25458	38.4493
	-79.25394	38.45009
	-79.25333	38.45095
	-79.25321	38.45111
	-79.25314	38.45118
	-79.25304	38.45112
	-79.253	38.45092
	-79.2527	38.45018
	-79.25235	38.44976
	-79.25147	38.44927
	-79.25143	38.44926
	-79.25083	38.44919
	-79.25028	38.44929
	-79.25024	38.4493
	-79.24956	38.44967
	-79.24901	38.45037
	-79.24882	38.451
	-79.24878	38.45124
	-79.24876	38.45161
	-79.24876	38.452
	-79.2481	38.4519
	-79.24775	38.45187
	-79.24732	38.45187
	-79.2469	38.4519
	-79.24496	38.45228
	-79.24456	38.4524
	-79.2443	38.45251
	-79.244	38.45267
	-79.24355	38.45296
	-79.24316	38.45319
	-79.24312	38.45323
	-79.24278	38.4534
	-79.24251	38.45357
	-79.24237	38.45368
	-79.24206	38.45397
	-79.2417	38.45442
	-79.24104	38.45544
	-79.24076	38.45601
	-79.24055	38.45661
	-79.24048	38.45696
	-79.24039	38.45758
	-79.24038	38.45785
	-79.24038	38.45866
	-79.24042	38.45919
	-79.24046	38.45943
	-79.24067	38.46038
	-79.24089	38.46099
	-79.2412	38.46174
	-79.24131	38.46196
	-79.24156	38.46239
	-79.24141	38.46259
	-79.24111	38.46293
	-79.24095	38.46314
	-79.24059	38.46367
	-79.24065	38.46371
	-79.24009	38.46442
	-79.24007	38.46448
	-79.24008	38.46495
	-79.24003	38.46501
	-79.24002	38.46529
	-79.23981	38.46563
	-79.23891	38.46687
	-79.23883	38.46701
	-79.23863	38.46748
	-79.23853	38.46799
	-79.23835	38.46843
	-79.23819	38.46892
	-79.23811	38.46911
	-79.23797	38.4696
	-79.23794	38.46977
	-79.23858	38.47067
	-79.23577	38.47225
	-79.23446	38.47103
	-79.23396	38.47107
	-79.23365	38.47114
	-79.23273	38.47141
	-79.23188	38.47174
	-79.23121	38.47206
	-79.23095	38.47215
	-79.23005	38.47235
	-79.22923	38.47241
	-79.22884	38.47247
	-79.22857	38.47255
	-79.22812	38.47273
	-79.22801	38.47279
	-79.22769	38.47301
	-79.22723	38.47338
	-79.22651	38.47385
	-79.22589	38.47433
	-79.22559	38.47459
	-79.22452	38.47508
	-79.22422	38.47526
	-79.22377	38.47556
	-79.22339	38.47566
	-79.22195	38.47809
	-79.22307	38.47875
	-79.22096	38.48059
	-79.22141	38.48484
	-79.21907	38.48744
	-79.21521	38.48926
	-79.21059	38.49291
	-79.21002	38.49425
	-79.2097	38.49557
	-79.20796	38.5
	-79.20788	38.50043
	-79.20696	38.50352
	-79.21096	38.50742
	-79.20586	38.52452
	-79.20146	38.52782
	-79.19696	38.53672
	-79.19346	38.54242
	-79.19007	38.54619
	-79.18925	38.54559
	-79.18841	38.54572
	-79.18806	38.5458
	-79.18783	38.54588
	-79.18651	38.54641
	-79.18536	38.54764
	-79.18533	38.54772
	-79.18428	38.54878
	-79.18397	38.54897
	-79.18355	38.54917
	-79.18302	38.54951
	-79.1825	38.54999
	-79.18207	38.55055
	-79.18175	38.55117
	-79.18159	38.55159
	-79.18115	38.55334
	-79.18101	38.55355
	-79.18069	38.55393
	-79.18022	38.55538
	-79.18025	38.55575
	-79.18041	38.55637
	-79.18047	38.55651
	-79.18193	38.5571
	-79.18086	38.55992
	-79.17666	38.56552
	-79.17488	38.56631
	-79.17451	38.56653
	-79.17096	38.56812
	-79.17066	38.56923
	-79.17133	38.57084
	-79.16941	38.57267
	-79.1694	38.57306
	-79.16931	38.57313
	-79.16893	38.57352
	-79.16858	38.57399
	-79.16818	38.57435
	-79.1679	38.57469
	-79.16753	38.57534
	-79.16723	38.57621
	-79.1667	38.57693
	-79.16639	38.57754
	-79.16619	38.57822
	-79.16697	38.57968
	-79.16346	38.58312
	-79.15866	38.59232
	-79.15826	38.59392
	-79.15896	38.59452
	-79.15916	38.60122
	-79.15561	38.60513
	-79.15649	38.60567
	-79.1566	38.6061
	-79.15673	38.6065
	-79.15677	38.6067
	-79.15682	38.60732
	-79.15681	38.6075
	-79.15662	38.60796
	-79.15676	38.60848
	-79.1568	38.609
	-79.15672	38.60957
	-79.15657	38.60999
	-79.15663	38.61027
	-79.15666	38.61067
	-79.15664	38.61106
	-79.15655	38.61187
	-79.15647	38.61226
	-79.15641	38.61246
	-79.15626	38.61283
	-79.15594	38.61353
	-79.15571	38.61416
	-79.15553	38.61458
	-79.15522	38.61526
	-79.15468	38.61629
	-79.15443	38.61672
	-79.15276	38.61718
	-79.15126	38.62062
	-79.14697	38.62564
	-79.14674	38.62582
	-79.14266	38.63442
	-79.13966	38.63722
	-79.13809	38.63781
	-79.13786	38.63743
	-79.13542	38.63886
	-79.13486	38.64099
	-79.13481	38.64109
	-79.13454	38.6415
	-79.13441	38.64178
	-79.13427	38.64191
	-79.13394	38.64231
	-79.13389	38.6424
	-79.13366	38.64299
	-79.13354	38.64311
	-79.13338	38.64331
	-79.13376	38.64612
	-79.13622	38.64578
	-79.13633	38.64592
	-79.13641	38.64586
	-79.13641	38.64591
	-79.13621	38.64612
	-79.13569	38.64651
	-79.13569	38.64792
	-79.13561	38.6481
	-79.13511	38.64874
	-79.13407	38.64965
	-79.1334	38.64745
	-79.13069	38.64828
	-79.13051	38.64861
	-79.12997	38.64915
	-79.12939	38.65074
	-79.12951	38.65223
	-79.12949	38.65238
	-79.12938	38.65258
	-79.12902	38.65282
	-79.12844	38.65558
	-79.12876	38.65565
	-79.12226	38.65982
	-79.12026	38.66022
	-79.11562	38.65995
	-79.11478	38.66128
	-79.11411	38.66143
	-79.11374	38.66148
	-79.1133	38.66149
	-79.11283	38.66146
	-79.11258	38.66142
	-79.11126	38.66113
	-79.10996	38.66078
	-79.10956	38.66064
	-79.10916	38.66046
	-79.10879	38.66027
	-79.10713	38.65952
	-79.1069	38.65939
	-79.10588	38.65875
	-79.10563	38.65857
	-79.10468	38.65775
	-79.1046	38.65665
	-79.09295	38.65952
	-79.09275	38.66282
	-79.09105	38.66932
	-79.08785	38.67382
	-79.08613	38.68009
	-79.0854	38.6799
	-79.08451	38.68041
	-79.08353	38.68198
	-79.08344	38.6831
	-79.08382	38.68444
	-79.0839	38.68456
	-79.08485	38.68471
	-79.08435	38.68652
	-79.08555	38.68882
	-79.08805	38.69011
	-79.08813	38.69018
	-79.09054	38.69006
	-79.09092	38.6904
	-79.09117	38.69067
	-79.09147	38.69106
	-79.09164	38.69113
	-79.09249	38.69178
	-79.09351	38.69313
	-79.09388	38.69396
	-79.09404	38.69479
	-79.09406	38.69482
	-79.09424	38.69568
	-79.09424	38.69624
	-79.09411	38.69694
	-79.09387	38.69758
	-79.09389	38.69803
	-79.09239	38.69962
	-79.09255	38.70015
	-79.09275	38.70231
	-79.08655	38.71601
	-79.08725	38.72011
	-79.08545	38.72461
	-79.08195	38.72971
	-79.07965	38.73471
	-79.07655	38.73921
	-79.07385	38.74211
	-79.07275	38.74461
	-79.07255	38.74751
	-79.06485	38.75441
	-79.06095	38.75671
	-79.05755	38.76021
	-79.05725	38.76141
	-79.05675	38.76651
	-79.05565	38.77091
	-79.05375	38.77231
	-79.05155	38.77261
	-79.05125	38.77391
	-79.05165	38.77801
	-79.05245	38.77921
	-79.05313	38.77971
	-79.05229	38.78054
	-79.05229	38.78102
	-79.05286	38.78215
	-79.05278	38.78219
	-79.05297	38.78257
	-79.05314	38.78287
	-79.05338	38.78363
	-79.05339	38.78372
	-79.05339	38.78375
	-79.05307	38.78413
	-79.05289	38.78442
	-79.05271	38.7848
	-79.05252	38.78535
	-79.05228	38.78576
	-79.05087	38.78779
	-79.05174	38.78839
	-79.04895	38.79071
	-79.04655	38.79211
	-79.03315	38.79101
	-79.02925	38.79101
	-79.02725	38.79211
	-79.02305	38.79861
	-79.02345	38.80261
	-79.02445	38.80371
	-79.02405	38.80921
	-79.02178	38.81362
	-79.02186	38.81377
	-79.02212	38.81403
	-79.02254	38.81463
	-79.02269	38.81495
	-79.02287	38.81578
	-79.02287	38.81595
	-79.023	38.81696
	-79.02294	38.8174
	-79.02275	38.81802
	-79.02251	38.8185
	-79.02248	38.81881
	-79.02087	38.8206
	-79.02052	38.82067
	-79.0189	38.82028
	-79.01858	38.82002
	-79.01852	38.82
	-79.01806	38.81903
	-79.01675	38.82001
	-79.01195	38.82041
	-79.00795	38.82231
	-79.00655	38.82371
	-79.00615	38.82451
	-79.00635	38.82611
	-79.00515	38.82991
	-79.00235	38.83651
	-78.99901	38.84007
	-78.99886	38.84096
	-79.00025	38.84541
	-78.99817	38.84735
	-78.994	38.8501
	-78.94748	38.81761
	-78.94638	38.81879
	-78.94575	38.81881
	-78.94466	38.81854
	-78.94454	38.81847
	-78.94356	38.81691
	-78.94352	38.8164
	-78.94435	38.81543
	-78.86928	38.76299
	-78.8659	38.76703
	-78.86368	38.7718
	-78.84819	38.79498
	-78.83519	38.8115
	-78.83227	38.81439
	-78.82726	38.82161
	-78.82117	38.83098
	-78.81512	38.84159
	-78.81094	38.84962
	-78.80818	38.85618
	-78.79621	38.87461
	-78.79161	38.87759
	-78.79008	38.88008
	-78.78803	38.88512
	-78.78602	38.88719
	-78.7792	38.8923
	-78.77279	38.89374
	-78.75908	38.90053
	-78.75728	38.9032
	-78.75452	38.90573
	-78.75466	38.90758
	-78.75052	38.91603
	-78.73977	38.92646
	-78.73902	38.92539
	-78.7384	38.92526
	-78.73773	38.92515
	-78.73686	38.92509
	-78.73561	38.92509
	-78.73518	38.92505
	-78.73507	38.92503
	-78.73395	38.9247
	-78.73375	38.92462
	-78.73352	38.92455
	-78.73323	38.92448
	-78.73281	38.92442
	-78.73236	38.92443
	-78.73222	38.92445
	-78.7318	38.92454
	-78.73168	38.92458
	-78.73139	38.9247
	-78.73107	38.92488
	-78.73091	38.92499
	-78.73058	38.92525
	-78.7303	38.92557
	-78.73003	38.92605
	-78.72983	38.92626
	-78.72942	38.9265
	-78.72911	38.92673
	-78.72888	38.92693
	-78.72876	38.92696
	-78.72835	38.92711
	-78.72786	38.92734
	-78.72767	38.92746
	-78.72747	38.9276
	-78.72713	38.9279
	-78.7266	38.92846
	-78.72642	38.92859
	-78.72539	38.92875
	-78.72417	38.929
	-78.7238	38.92885
	-78.72367	38.92881
	-78.72332	38.92874
	-78.72318	38.92873
	-78.72266	38.92874
	-78.72249	38.92876
	-78.72206	38.92888
	-78.72193	38.92893
	-78.72163	38.92908
	-78.7213	38.92929
	-78.7214	38.92903
	-78.7215	38.92865
	-78.72161	38.92804
	-78.72182	38.9275
	-78.72201	38.92694
	-78.72213	38.92639
	-78.72215	38.92596
	-78.72211	38.92546
	-78.7222	38.92519
	-78.72232	38.92472
	-78.72238	38.9243
	-78.72239	38.9241
	-78.72238	38.92361
	-78.72234	38.92321
	-78.72231	38.92307
	-78.72207	38.92245
	-78.72094	38.92137
	-78.72063	38.92124
	-78.71967	38.92162
	-78.71945	38.92026
	-78.72034	38.91385
	-78.72077	38.9143
	-78.72282	38.91235
	-78.72283	38.91211
	-78.72286	38.91201
	-78.72302	38.91164
	-78.7231	38.91154
	-78.72327	38.91125
	-78.72344	38.91087
	-78.72352	38.91063
	-78.72363	38.91013
	-78.72366	38.90961
	-78.72364	38.90938
	-78.7235	38.90876
	-78.72333	38.90841
	-78.72305	38.9079
	-78.72281	38.90757
	-78.72259	38.90732
	-78.72221	38.907
	-78.72215	38.90658
	-78.72208	38.90626
	-78.72197	38.90591
	-78.72192	38.9058
	-78.72149	38.90515
	-78.72122	38.9049
	-78.72114	38.90485
	-78.71911	38.9051
	-78.71865	38.90456
	-78.71718	38.9043
	-78.71617	38.90483
	-78.71262	38.90866
	-78.70432	38.91523
	-78.69738	38.9156
	-78.69145	38.9222
	-78.68827	38.92478
	-78.68162	38.92584
	-78.68046	38.92531
	-78.67068	38.9338
	-78.66659	38.9392
	-78.66589	38.94158
	-78.66208	38.9457
	-78.65905	38.94738
	-78.65504	38.95377
	-78.65235	38.96068
	-78.64659	38.96814
	-78.63842	38.96682
	-78.63247	38.97474
	-78.63245	38.97698
	-78.63085	38.97959
	-78.62955	38.98087
	-78.62567	38.98257
	-78.62045	38.9826
	-78.61991	38.98129
	-78.61998	38.97734
	-78.61868	38.97408
	-78.61431	38.97585
	-78.61118	38.97613
	-78.60837	38.96974
	-78.60165	38.9646
	-78.6014	38.96653
	-78.59889	38.96955
	-78.59601	38.97019
	-78.59326	38.97192
	-78.5887	38.97858
	-78.58293	38.98542
	-78.58198	38.9884
	-78.58046	38.99057
	-78.57046	39.00155
	-78.56171	39.00901
	-78.5594	39.01188
	-78.55492	39.01512
	-78.55232	39.01637
	-78.55047	39.01806
	-78.55738	39.02139
	-78.55964	39.02446
	-78.56329	39.02633
	-78.56507	39.02593
	-78.56584	39.0263
	-78.5719	39.032
	-78.56	39.04157
	-78.55675	39.04453
	-78.55426	39.04806
	-78.54773	39.05407
	-78.54568	39.05505
	-78.54022	39.06063
	-78.53169	39.06652
	-78.52654	39.06822
	-78.52271	39.07106
	-78.51679	39.07757
	-78.51595	39.08005
	-78.51648	39.0818
	-78.5121	39.08488
	-78.50762	39.08914
	-78.50438	39.0914
	-78.49598	39.09898
	-78.49516	39.10099
	-78.48428	39.10737
	-78.47843	39.10984
	-78.47732	39.1094
	-78.47538	39.10747
	-78.47321	39.10814
	-78.47026	39.11006
	-78.46953	39.1112
	-78.46666	39.11286
	-78.45987	39.11335
	-78.43943	39.13215
	-78.43777	39.13543
	-78.43666	39.14169
	-78.42729	39.15273
	-78.41394	39.15841
	-78.4126	39.16004
	-78.4037	39.16745
	-78.40697	39.1709
	-78.41197	39.17273
	-78.42631	39.18276
	-78.4287	39.18722
	-78.42429	39.19216
	-78.4249	39.1933
	-78.43085	39.19623
	-78.43643	39.19664
	-78.43622	39.19695
	-78.43613	39.19711
	-78.436	39.19737
	-78.43587	39.1977
	-78.4356	39.19889
	-78.43652	39.2003
	-78.43213	39.20472
	-78.43117	39.20574
	-78.4298	39.20701
	-78.42791	39.20861
	-78.42397	39.21205
	-78.41789	39.2175
	-78.40558	39.23118
	-78.40498	39.23801
	-78.40421	39.24121
	-78.39967	39.24387
	-78.39978	39.24413
	-78.40094	39.24517
	-78.40058	39.24534
	-78.39978	39.24504
	-78.3991	39.24473
	-78.39851	39.24456
	-78.3977	39.24447
	-78.39547	39.24621
	-78.39722	39.24844
	-78.39772	39.2485
	-78.39831	39.24876
	-78.3993	39.24913
	-78.40118	39.25006
	-78.40238	39.25024
	-78.40303	39.25014
	-78.40379	39.24985
	-78.40421	39.24958
	-78.4047	39.24915
	-78.40497	39.24882
	-78.40912	39.25256
	-78.41463	39.25573
	-78.41612	39.25541
	-78.41858	39.25606
	-78.41942	39.25748
	-78.41893	39.25808
	-78.41705	39.2575
	-78.41668	39.25773
	-78.41636	39.25801
	-78.41611	39.2583
	-78.41604	39.2584
	-78.41582	39.25861
	-78.41518	39.25933
	-78.41496	39.2596
	-78.4148	39.25985
	-78.41458	39.26033
	-78.41451	39.26056
	-78.41443	39.26107
	-78.41446	39.2616
	-78.41447	39.26165
	-78.41544	39.26238
	-78.4142	39.26391
	-78.40278	39.27547
	-78.40181	39.27675
	-78.40227	39.27724
	-78.39868	39.28133
	-78.39735	39.28175
	-78.39749	39.28201
	-78.39749	39.28204
	-78.39659	39.28407
	-78.39633	39.28422
	-78.39627	39.28424
	-78.39561	39.28425
	-78.39561	39.28429
	-78.39554	39.2843
	-78.39548	39.28425
	-78.39503	39.28425
	-78.39503	39.28426
	-78.39498	39.28425
	-78.3946	39.28425
	-78.39454	39.28422
	-78.39426	39.28388
	-78.39421	39.28394
	-78.39414	39.28389
	-78.3941	39.28367
	-78.39351	39.28294
	-78.39337	39.28299
	-78.38878	39.28857
	-78.38719	39.29144
	-78.38724	39.29343
	-78.38589	39.29489
	-78.37473	39.30514
	-78.3716	39.30769
	-78.36724	39.31015
	-78.36685	39.31124
	-78.36459	39.31233
	-78.36444	39.31275
	-78.36379	39.31319
	-78.36328	39.31372
	-78.36301	39.31412
	-78.36277	39.31461
	-78.36258	39.31516
	-78.36242	39.31582
	-78.36247	39.31682
	-78.36255	39.31707
	-78.36281	39.31761
	-78.36289	39.31773
	-78.36156	39.31803
	-78.36003	39.31777
	-78.35893	39.31948
	-78.35857	39.3198
	-78.35408	39.32686
	-78.35445	39.32702
	-78.35461	39.32769
	-78.35455	39.32838
	-78.3544	39.32879
	-78.35415	39.32921
	-78.35404	39.32935
	-78.35403	39.32945
	-78.35407	39.32961
	-78.35412	39.33011
	-78.35409	39.3305
	-78.35118	39.33199
	-78.35091	39.33185
	-78.3463	39.33911
	-78.34546	39.34102
	-78.34763	39.34272
	-78.34741	39.3434
	-78.34368	39.34671
	-78.34251	39.34677
	-78.34131	39.34555
	-78.33928	39.3486
	-78.33896	39.34989
	-78.34048	39.35349
	-78.3487	39.35474
	-78.36227	39.35778
	-78.36687	39.35929
	-78.36263	39.36289
	-78.35484	39.37162
	-78.34321	39.38881
	-78.35001	39.39286
	-78.34944	39.39725
	-78.35795	39.40419
	-78.35992	39.40903
	-78.35935	39.41253
	-78.35663	39.4159
	-78.35124	39.42059
	-78.34835	39.42443
	-78.34672	39.42762
	-78.34794	39.43088
	-78.35323	39.43679
	-78.34777	39.44058
	-78.34655	39.44262
	-78.34606	39.44561
	-78.34733	39.44766
	-78.34696	39.45068
	-78.34582	39.4535
	-78.34514	39.45948
	-78.34948	39.4622
	-78.34709	39.46601
	-78.28798	39.42875
	-78.26278	39.41432
	-78.22991	39.39289
	-78.2064	39.37579
	-78.2054	39.3751
	-78.18737	39.36399
	-78.15819	39.34339
	-78.14092	39.33375
	-78.10875	39.31246
	-78.03284	39.2644
	-77.91939	39.19119
	-77.86031	39.15308
	-77.82804	39.13213
	-77.90232	39.06817
	-77.90326	39.06852
	-77.90371	39.06861
	-77.90415	39.06865
	-77.905	39.06866
	-77.90552	39.06859
	-77.90557	39.06858
	-77.90618	39.06831
	-77.90671	39.06782
	-77.90704	39.06719
	-77.90714	39.06663
	-77.90715	39.06644
	-77.90714	39.06402
	-77.92138	39.05175
	-77.99242	38.98617
	-77.99314	38.94355
	-77.99271	38.94377
	-77.99236	38.94363
	-77.99199	38.9434
	-77.99161	38.94304
	-77.99132	38.94262
	-77.99122	38.94242
	-77.99099	38.94186
	-77.99088	38.94142
	-77.99086	38.94093
	-77.99088	38.94063
	-77.99092	38.94037
	-77.99115	38.93966
	-77.99118	38.9396
	-77.99163	38.93905
	-77.99204	38.93876
	-77.9921	38.93873
	-77.99253	38.93857
	-77.99283	38.93849
	-77.99292	38.93885
	-77.99322	38.9388
	-77.99421	38.88
	-77.99413	38.88004
	-77.99379	38.88016
	-77.99364	38.8802
	-77.99344	38.88025
	-77.99305	38.8803
	-77.99272	38.88031
	-77.99237	38.88029
	-77.99197	38.88023
	-77.99182	38.88019
	-77.99034	38.87778
	-77.99213	38.87668
	-77.99225	38.87605
	-77.99237	38.87577
	-77.99257	38.8754
	-77.99281	38.87509
	-77.993	38.87488
	-77.99317	38.87472
	-77.99358	38.8744
	-77.99399	38.87419
	-77.99431	38.87407
	-77.99551	38.80349
	-78.1436	38.61224
	-78.14452	38.61235
	-78.14466	38.61224
	-78.14519	38.61162
	-78.14535	38.61133
	-78.14636	38.61083
	-78.14677	38.61056
	-78.14718	38.61022
	-78.14819	38.60984
	-78.14872	38.60954
	-78.14904	38.60929
	-78.14929	38.60905
	-78.14985	38.60843
	-78.15009	38.6081
	-78.15088	38.60676
	-78.15115	38.6058
	-78.15121	38.60368
	-78.15116	38.60296
	-78.1514	38.60251
	-78.15186	38.60248
	-78.15375	38.60049
	-78.15375	38.60024
	-78.15362	38.59969
	-78.15385	38.59914
	-78.1539	38.59895
	-78.20964	38.52697
	-78.07155	38.36801
	-78.00566	38.30665
	-78.05096	38.17566
	-78.13268	37.62603
	-78.09662	37.4845
	-78.09445	37.4836
	-78.09437	37.4834
	-78.09424	37.48298
	-78.09403	37.48217
	-78.09361	37.48073
	-78.09339	37.48003
	-78.09331	37.47965
	-78.09325	37.47926
	-78.09323	37.47904
	-78.09323	37.4786
	-78.09336	37.47714
	-78.09342	37.47679
	-78.09362	37.47595
	-78.09366	37.47566
	-78.09355	37.47243
	-78.07797	37.4113
	-78.01209	37.24595
	-78.15547	36.92602
	-78.15423	36.92547
	-78.15503	36.92366
	-78.15473	36.92344
	-78.15496	36.92316
	-78.15499	36.9231
	-78.15495	36.92297
	-78.15489	36.92258
	-78.15488	36.92241
	-78.1549	36.92202
	-78.15492	36.92183
	-78.15499	36.92149
	-78.15514	36.92108
	-78.1553	36.92076
	-78.15545	36.92052
	-78.15553	36.9204
	-78.15579	36.9201
	-78.15607	36.91986
	-78.15641	36.91964
	-78.15685	36.91942
	-78.15707	36.91933
	-78.15745	36.91923
	-78.15755	36.91921
	-78.15779	36.91919
	-78.15854	36.91918
	-78.19168	36.84522
	-78.19124	36.84514
	-78.19074	36.84497
	-78.19081	36.84477
	-78.18898	36.84335
	-78.19072	36.84112
	-78.19092	36.84109
	-78.19119	36.84107
	-78.19152	36.84109
	-78.19151	36.841
	-78.19135	36.8406
	-78.19125	36.84029
	-78.19118	36.83996
	-78.19111	36.83972
	-78.19102	36.83928
	-78.19088	36.83881
	-78.19083	36.83845
	-78.19087	36.83788
	-78.19107	36.83728
	-78.19144	36.83676
	-78.19186	36.83642
	-78.19231	36.83621
	-78.19277	36.83611
	-78.19325	36.83605
	-78.19362	36.83604
	-78.19497	36.83615
	-78.19508	36.83617
	-78.22953	36.73101
	-78.22909	36.73022
	-78.2277	36.72717
	-78.2275	36.7267
	-78.2274	36.72642
	-78.2273	36.72598
	-78.22728	36.72584
	-78.22727	36.72543
	-78.22744	36.72391
	-78.22762	36.72256
	-78.22769	36.72223
	-78.22779	36.72192
	-78.22799	36.72151
	-78.22826	36.72114
	-78.22845	36.72094
	-78.22897	36.72046
	-78.23053	36.71906
	-78.23082	36.71882
	-78.23114	36.7186
	-78.23172	36.71826
	-78.23205	36.71805
	-78.23227	36.71722
	-78.23259	36.71616
	-78.23265	36.71601
	-78.23294	36.71547
	-78.23314	36.71521
	-78.23334	36.71498
	-78.23349	36.71484
	-78.23482	36.71484
	-78.29075	36.54414
	-78.313	36.54392
	-78.32392	36.54383
	-78.35859	36.54347
	-78.35842	36.5437
	-78.35842	36.54372
	-78.35878	36.54464
	-78.35953	36.54529
	-78.36011	36.54548
	-78.36065	36.54552
	-78.3612	36.54543
	-78.36166	36.54525
	-78.3623	36.54344
	-78.38147	36.54322
	-78.40667	36.54306
	-78.41722	36.54291
	-78.42673	36.54282
	-78.43653	36.54275
	-78.43663	36.54264
	-78.43683	36.54265
	-78.43889	36.54264
	-78.43951	36.54266
	-78.44105	36.54259
	-78.44122	36.54259
	-78.44128	36.54261
	-78.44138	36.54269
	-78.45697	36.54248
	-78.4616	36.54246
	-78.46143	36.54281
	-78.4595	36.54347
	-78.46041	36.54614
	-78.46072	36.54629
	-78.46113	36.54643
	-78.46157	36.54653
	-78.46198	36.54656
	-78.46223	36.54655
	-78.46256	36.5465
	-78.46337	36.54633
	-78.4637	36.54624
	-78.46421	36.54595
	-78.46425	36.54592
	-78.46477	36.54533
	-78.46503	36.54471
	-78.4652	36.54455
	-78.46557	36.54459
	-78.46605	36.5446
	-78.46651	36.54459
	-78.46773	36.54453
	-78.46831	36.54446
	-78.46719	36.54336
	-78.46808	36.54247
	-78.46819	36.5421
	-78.46807	36.542
	-78.46832	36.54169
	-78.46874	36.54032
	-78.46887	36.54024
	-78.47047	36.54008
	-78.47087	36.54022
	-78.47099	36.54017
	-78.47113	36.54015
	-78.47159	36.54012
	-78.47164	36.54013
	-78.47155	36.54015
	-78.47426	36.54084
	-78.47391	36.54223
	-78.47759	36.54219
	-78.48088	36.54211
	-78.4877	36.54177
	-78.4939	36.54159
	-78.49972	36.54147
	-78.50996	36.54107
	-78.52972	36.54098
	-78.53301	36.541
	-78.53944	36.54101
	-78.58907	36.54125
	-78.60532	36.5411
	-78.60719	36.54128
	-78.60996	36.54126
	-78.6223	36.54136
	-78.66332	36.54201
	-78.67005	36.54203
	-78.67461	36.54213
	-78.67859	36.54213
	-78.68284	36.54204
	-78.68392	36.54212
	-78.68561	36.54207
	-78.68689	36.54206
	-78.69529	36.54206
	-78.70379	36.54197
	-78.70407	36.54205
	-78.70778	36.54205
	-78.72999	36.54187
	-78.73371	36.54195
	-78.74061	36.54197
	-78.74162	36.54009
	-78.74205	36.54
	-78.74222	36.53998
	-78.74259	36.53996
	-78.74343	36.53997
	-78.74577	36.54003
	-78.74643	36.54009
	-78.74703	36.54019
	-78.74727	36.54024
	-78.74739	36.54028
	-78.74768	36.54024
	-78.74902	36.54015
	-78.75621	36.53991
	-78.76063	36.53978
	-78.76069	36.53977
	-78.76201	36.53977
	-78.76283	36.53981
	-78.7638	36.53982
	-78.76576	36.53995
	-78.76611	36.53996
	-78.76723	36.54004
	-78.7687	36.54171
	-78.76887	36.5417
	-78.77586	36.54167
	-78.78506	36.54175
	-78.7867	36.54178
	-78.7963	36.54171
	-78.79929	36.54178
	-78.80179	36.54188
	-78.80526	36.54191
	-78.81874	36.54187
	-78.84843	36.54183
	-78.91542	36.54197
	-78.94201	36.54211
	-78.94225	36.54208
	-78.97058	36.54215
	-78.97181	36.54212
	-79.12474	36.54157
	-79.12608	36.54153
	-79.13794	36.54174
	-79.20703	36.54171
	-79.21258	36.54166
	-79.21854	36.54174
	-79.24974	36.54114
	-79.26308	36.5413
	-79.29748	36.54143
	-79.29753	36.54261
	-79.29748	36.54265
	-79.29753	36.5427
	-79.29753	36.54272
	-79.29771	36.54289
	-79.29784	36.54274
	-79.30029	36.54302
	-79.30046	36.5429
	-79.30072	36.54144
	-79.32218	36.54151
	-79.34269	36.54137
	-79.37292	36.54145
	-79.37474	36.54133
	-79.38661	36.54135
	-79.39754	36.54145
	-79.40079	36.54144
	-79.41221	36.54136
	-79.42546	36.54135
	-79.42865	36.54135
	-79.4429	36.54127
	-79.44568	36.54123
	-79.44596	36.5412
	-79.45191	36.54108
	-79.4567	36.54087
	-79.46131	36.54086
	-79.4613	36.54052
	-79.46134	36.54033
	-79.46153	36.53981
	-79.46203	36.5391
	-79.46226	36.5389
	-79.46267	36.53861
	-79.46289	36.53849
	-79.46329	36.53834
	-79.46357	36.53826
	-79.46412	36.53819
	-79.46437	36.53819
	-79.46483	36.53825
	-79.4651	36.53831
	-79.46547	36.53844
	-79.46571	36.53855
	-79.46621	36.53889
	-79.46639	36.53905
	-79.46673	36.53943
	-79.46717	36.54049
	-79.4672	36.54083
	-79.48073	36.54084
	-79.48971	36.54082
	-79.49575	36.54079
	-79.49637	36.54081
	-79.49731	36.54079
	-79.49975	36.54093
	-79.51097	36.54079
	-79.52181	36.54088
	-79.5641	36.54104
	-79.56398	36.54054
	-79.56619	36.54001
	-79.56621	36.53973
	-79.5665	36.53975
	-79.56675	36.53974
	-79.56706	36.5395
	-79.56733	36.53935
	-79.56783	36.53917
	-79.56815	36.53911
	-79.56878	36.53908
	-79.56932	36.53913
	-79.56984	36.53928
	-79.57015	36.53942
	-79.57052	36.53966
	-79.57041	36.53985
	-79.57111	36.54113
	-79.60437	36.54155
	-79.64789	36.54164
	-79.65791	36.54173
	-79.66787	36.54176
	-79.69497	36.54188
	-79.66252	36.67107
	-79.66038	36.67172
	-79.66014	36.67205
	-79.65998	36.6723
	-79.65982	36.67261
	-79.65965	36.67301
	-79.65956	36.67318
	-79.65938	36.67339
	-79.65912	36.67375
	-79.65886	36.67452
	-79.65888	36.67521
	-79.65908	36.67582
	-79.6594	36.67629
	-79.66048	36.67747
	-79.6605	36.67754
	-79.66078	36.67798
	-79.64545	36.73903
	-79.60493	36.84752
	-79.60581	36.84873
	-79.60602	36.84863
	-79.6061	36.84882
	-79.60609	36.84882
	-79.60623	36.84923
	-79.60626	36.84998
	-79.60612	36.8505
	-79.60605	36.85083
	-79.60584	36.85126
	-79.60567	36.85153
	-79.60513	36.85219
	-79.60485	36.85245
	-79.60464	36.8522
	-79.60283	36.85316
	-79.58574	36.89891
	-79.57682	36.99391
	-79.57764	36.9937
	-79.57767	36.99383
	-79.57789	36.99395
	-79.57846	36.99421
	-79.57896	36.99453
	-79.57904	36.9946
	-79.57936	36.99496
	-79.57961	36.99541
	-79.57974	36.99581
	-79.57978	36.99601
	-79.57982	36.99659
	-79.57964	36.99729
	-79.57923	36.99789
	-79.57868	36.9983
	-79.57816	36.99857
	-79.57781	36.99871
	-79.5776	36.99887
	-79.57731	36.99904
	-79.57727	36.99896
	-79.57643	37.00029
	-79.57623	37.00016
	-79.56814	37.08629
	-79.56989	37.08714
	-79.57004	37.0877
	-79.57008	37.08813
	-79.57007	37.08848
	-79.56998	37.08895
	-79.5698	37.0894
	-79.56951	37.08984
	-79.56877	37.09067
	-79.56772	37.09074
	-79.56721	37.09624
	-79.56987	37.10036
	-79.56956	37.10217
	-79.56911	37.1022
	-79.56916	37.10271
	-79.56926	37.10311
	-79.56937	37.10341
	-79.56952	37.10371
	-79.56965	37.10393
	-79.56993	37.10428
	-79.57028	37.1046
	-79.57066	37.10486
	-79.57093	37.10501
	-79.57111	37.10509
	-79.57156	37.10526
	-79.5719	37.10535
	-79.57237	37.10541
	-79.57256	37.10542
	-79.57292	37.10541
	-79.57312	37.10539
	-79.71133	37.31926
	-79.71211	37.41465
	-79.74897	37.46622
	-79.74948	37.4662
	-79.75018	37.4664
	-79.75053	37.4666
	-79.75097	37.46701
	-79.75128	37.46724
	-79.75148	37.46743
	-79.75173	37.46772
	-79.75184	37.46788
	-79.75212	37.46801
	-79.7524	37.46818
	-79.75318	37.46887
	-79.75346	37.46928
	-79.75354	37.46948
	-79.75375	37.46967
	-79.75395	37.46989
	-79.7541	37.47009
	-79.75427	37.47037
	-79.75451	37.47051
	-79.75563	37.47132
	-79.75586	37.47153
	-79.75613	37.47183
	-79.7565	37.47265
	-79.75654	37.47321
	-79.75647	37.47367
	-79.75637	37.47395
	-79.75635	37.47459
	-79.75627	37.47509
	-79.75625	37.47542
	-79.7562	37.47579
	-79.75595	37.47598
	-79.79035	37.52413
	-79.79653	37.62123
	-79.88404	37.67258
	-80.01787	37.72146
	-80.25202	37.72982
END
END
