US_Washington_Coast
1
	-121.383	47.08139
	-121.3731	47.06846
	-121.3727	47.06664
	-121.3717	47.06159
	-121.3749	47.05514
	-121.3835	47.04912
	-121.394	47.03895
	-121.3959	47.03664
	-121.4019	47.03614
	-121.3972	47.02928
	-121.3951	47.0247
	-121.395	47.02011
	-121.4082	47.01176
	-121.4082	47.00809
	-121.4071	47.00555
	-121.4061	47.00305
	-121.408	46.99569
	-121.4164	46.99427
	-121.4219	46.99331
	-121.4222	46.9931
	-121.4272	46.98868
	-121.4331	46.98588
	-121.4404	46.98308
	-121.4424	46.98169
	-121.4437	46.97984
	-121.4438	46.97918
	-121.4443	46.97525
	-121.4435	46.96929
	-121.4502	46.96787
	-121.4561	46.96415
	-121.4559	46.96269
	-121.4553	46.95911
	-121.4529	46.95233
	-121.4524	46.95081
	-121.4501	46.94829
	-121.4519	46.94594
	-121.4522	46.94336
	-121.4523	46.94272
	-121.4505	46.93897
	-121.4493	46.93504
	-121.4501	46.93306
	-121.4528	46.9309
	-121.4535	46.93045
	-121.4553	46.92906
	-121.4566	46.92722
	-121.4568	46.9269
	-121.4568	46.92375
	-121.4588	46.92227
	-121.4596	46.922
	-121.4611	46.92144
	-121.4649	46.9208
	-121.4671	46.91828
	-121.4685	46.91782
	-121.4713	46.91687
	-121.4737	46.91504
	-121.4741	46.9147
	-121.476	46.91388
	-121.4798	46.91324
	-121.4923	46.9092
	-121.4963	46.90884
	-121.4969	46.90768
	-121.4972	46.90702
	-121.4975	46.90693
	-121.498	46.90673
	-121.4991	46.90639
	-121.4997	46.90603
	-121.4998	46.90583
	-121.4999	46.90543
	-121.4998	46.90483
	-121.4999	46.90464
	-121.4999	46.90424
	-121.5002	46.9039
	-121.5009	46.90346
	-121.501	46.90341
	-121.5011	46.90338
	-121.5012	46.90324
	-121.5016	46.90298
	-121.5016	46.90291
	-121.5017	46.9027
	-121.502	46.90242
	-121.5021	46.90229
	-121.5024	46.90181
	-121.5024	46.90177
	-121.5025	46.90154
	-121.5027	46.90124
	-121.5028	46.90119
	-121.5029	46.90107
	-121.5034	46.90071
	-121.5038	46.90048
	-121.5042	46.9003
	-121.5051	46.90003
	-121.5058	46.90003
	-121.5058	46.90001
	-121.5059	46.89996
	-121.506	46.90003
	-121.5065	46.90003
	-121.5066	46.90013
	-121.5067	46.90016
	-121.507	46.9003
	-121.5071	46.9003
	-121.5072	46.90017
	-121.5073	46.89989
	-121.5078	46.89929
	-121.5082	46.899
	-121.5085	46.89845
	-121.5086	46.89831
	-121.509	46.89783
	-121.5093	46.89755
	-121.5094	46.89749
	-121.5102	46.89715
	-121.5097	46.8968
	-121.5096	46.89667
	-121.5095	46.8963
	-121.5097	46.89584
	-121.5101	46.89556
	-121.5107	46.89509
	-121.5112	46.89488
	-121.5121	46.89413
	-121.5121	46.89399
	-121.5122	46.89392
	-121.5122	46.89372
	-121.5125	46.89358
	-121.5126	46.89351
	-121.5127	46.89351
	-121.5129	46.8934
	-121.5129	46.89337
	-121.5131	46.89319
	-121.5133	46.89289
	-121.5133	46.89269
	-121.5135	46.89255
	-121.5136	46.8924
	-121.5136	46.89228
	-121.5137	46.89224
	-121.5137	46.8918
	-121.5135	46.89104
	-121.5134	46.89097
	-121.5134	46.89077
	-121.5132	46.8906
	-121.5131	46.89049
	-121.513	46.89028
	-121.5128	46.89001
	-121.5127	46.88974
	-121.5124	46.88953
	-121.5118	46.88891
	-121.5116	46.88836
	-121.5116	46.88774
	-121.5119	46.8872
	-121.512	46.88713
	-121.512	46.88692
	-121.5121	46.88671
	-121.5123	46.88637
	-121.5124	46.88596
	-121.5126	46.88582
	-121.5127	46.88555
	-121.5129	46.88528
	-121.5133	46.8849
	-121.5133	46.88479
	-121.5135	46.88466
	-121.5135	46.88452
	-121.5137	46.88438
	-121.5141	46.88415
	-121.5146	46.8839
	-121.5157	46.88363
	-121.5161	46.88338
	-121.5161	46.88335
	-121.5166	46.88314
	-121.5167	46.88306
	-121.5173	46.88267
	-121.5177	46.88226
	-121.5178	46.88184
	-121.5179	46.88175
	-121.518	46.88171
	-121.518	46.88164
	-121.5181	46.88157
	-121.5189	46.88157
	-121.5192	46.88139
	-121.5193	46.88105
	-121.5195	46.88068
	-121.5197	46.88047
	-121.5197	46.88033
	-121.5198	46.88029
	-121.5199	46.8802
	-121.52	46.87992
	-121.5201	46.87985
	-121.52	46.87978
	-121.5199	46.87876
	-121.5201	46.87711
	-121.5208	46.87649
	-121.5208	46.87635
	-121.521	46.87621
	-121.521	46.87594
	-121.5215	46.87505
	-121.5216	46.87498
	-121.5216	46.87484
	-121.5219	46.87457
	-121.5226	46.87351
	-121.5226	46.87327
	-121.5223	46.87314
	-121.5217	46.87277
	-121.5213	46.8727
	-121.5204	46.87251
	-121.5194	46.87234
	-121.5188	46.87232
	-121.5182	46.87237
	-121.517	46.87268
	-121.5169	46.87266
	-121.5168	46.87262
	-121.5164	46.87235
	-121.5161	46.87218
	-121.515	46.87195
	-121.5137	46.87151
	-121.5129	46.8711
	-121.5129	46.87104
	-121.5127	46.87091
	-121.5121	46.87079
	-121.5111	46.87033
	-121.5107	46.87029
	-121.5103	46.87023
	-121.5096	46.87007
	-121.5094	46.86987
	-121.5088	46.86916
	-121.5086	46.86877
	-121.5082	46.86812
	-121.5081	46.86799
	-121.5075	46.8677
	-121.5073	46.86709
	-121.5073	46.8661
	-121.5072	46.86573
	-121.5072	46.86558
	-121.5071	46.86542
	-121.5069	46.86522
	-121.5066	46.8651
	-121.5065	46.86504
	-121.5063	46.86499
	-121.5059	46.86486
	-121.505	46.86472
	-121.5041	46.86471
	-121.5031	46.86484
	-121.5025	46.86486
	-121.5012	46.86468
	-121.5007	46.86449
	-121.5001	46.86434
	-121.4999	46.86425
	-121.4997	46.86412
	-121.4991	46.86397
	-121.4976	46.86364
	-121.497	46.86363
	-121.4961	46.86311
	-121.4957	46.86279
	-121.4949	46.86158
	-121.4947	46.8611
	-121.4947	46.86079
	-121.4946	46.8607
	-121.4947	46.86039
	-121.4948	46.85995
	-121.4947	46.85922
	-121.4948	46.85864
	-121.4949	46.85761
	-121.4952	46.8559
	-121.4952	46.85552
	-121.4953	46.85507
	-121.4952	46.85496
	-121.4952	46.85485
	-121.495	46.85455
	-121.4941	46.85363
	-121.4937	46.85298
	-121.4936	46.85286
	-121.4932	46.85259
	-121.4928	46.85239
	-121.4924	46.85194
	-121.4922	46.85155
	-121.4921	46.85099
	-121.492	46.85073
	-121.4912	46.85009
	-121.4911	46.84976
	-121.4908	46.84952
	-121.4907	46.84945
	-121.4906	46.8494
	-121.4905	46.84927
	-121.4902	46.84903
	-121.4902	46.84884
	-121.4909	46.8483
	-121.491	46.84815
	-121.491	46.84801
	-121.4897	46.84677
	-121.4897	46.84645
	-121.4899	46.84614
	-121.4899	46.84554
	-121.4898	46.84545
	-121.4889	46.84531
	-121.4887	46.8451
	-121.4886	46.84478
	-121.4882	46.84369
	-121.4882	46.84355
	-121.4875	46.84325
	-121.4872	46.84294
	-121.4866	46.84242
	-121.4863	46.84194
	-121.4857	46.84182
	-121.4852	46.84177
	-121.485	46.84172
	-121.485	46.84162
	-121.4848	46.84135
	-121.4843	46.84096
	-121.4839	46.8406
	-121.4839	46.84008
	-121.4831	46.83953
	-121.4828	46.83888
	-121.483	46.83752
	-121.4831	46.83737
	-121.4831	46.83717
	-121.4833	46.83696
	-121.4836	46.83632
	-121.4837	46.8355
	-121.4836	46.83486
	-121.4834	46.83448
	-121.4829	46.83403
	-121.4826	46.83384
	-121.4824	46.83374
	-121.4821	46.83366
	-121.4821	46.83365
	-121.4816	46.83358
	-121.4809	46.83358
	-121.4803	46.83344
	-121.4801	46.83338
	-121.4801	46.83339
	-121.4799	46.83342
	-121.4798	46.83349
	-121.4796	46.83376
	-121.4795	46.83408
	-121.4792	46.83422
	-121.4792	46.83423
	-121.478	46.83444
	-121.4767	46.83443
	-121.4765	46.83435
	-121.4763	46.83385
	-121.4759	46.83317
	-121.4757	46.83295
	-121.4752	46.83217
	-121.4749	46.83181
	-121.4746	46.8317
	-121.4745	46.83171
	-121.4742	46.83177
	-121.4737	46.83202
	-121.4736	46.832
	-121.4728	46.83127
	-121.4726	46.83112
	-121.4725	46.83111
	-121.4721	46.8307
	-121.4717	46.83047
	-121.4717	46.83001
	-121.4709	46.8293
	-121.4708	46.82915
	-121.4709	46.82888
	-121.471	46.82871
	-121.471	46.82834
	-121.4709	46.82803
	-121.4709	46.82747
	-121.4705	46.82696
	-121.4703	46.82647
	-121.4702	46.8264
	-121.4705	46.82588
	-121.4705	46.82484
	-121.4708	46.82445
	-121.4708	46.82382
	-121.471	46.82358
	-121.4712	46.82349
	-121.4714	46.82343
	-121.4719	46.82334
	-121.4724	46.82331
	-121.4726	46.82324
	-121.4726	46.82312
	-121.4722	46.82286
	-121.4715	46.82223
	-121.4716	46.82188
	-121.4721	46.82143
	-121.4723	46.82138
	-121.4728	46.82115
	-121.4733	46.82077
	-121.4741	46.8206
	-121.4743	46.82042
	-121.4743	46.82033
	-121.4742	46.82022
	-121.4736	46.82004
	-121.4728	46.81946
	-121.4725	46.81933
	-121.4724	46.81925
	-121.4724	46.81919
	-121.4723	46.81911
	-121.4723	46.81892
	-121.4719	46.8186
	-121.4711	46.81811
	-121.4709	46.81803
	-121.4707	46.81799
	-121.4698	46.8179
	-121.4686	46.81722
	-121.4684	46.81713
	-121.4682	46.81692
	-121.4668	46.81578
	-121.4656	46.81508
	-121.4648	46.81468
	-121.4641	46.81409
	-121.4636	46.81357
	-121.4632	46.81323
	-121.4631	46.81316
	-121.463	46.81306
	-121.4624	46.81292
	-121.4621	46.81262
	-121.4619	46.81247
	-121.4616	46.81227
	-121.4616	46.81224
	-121.4609	46.81206
	-121.4598	46.81193
	-121.4592	46.81195
	-121.4584	46.81207
	-121.4581	46.81202
	-121.4573	46.81089
	-121.4573	46.81065
	-121.4567	46.81019
	-121.4567	46.81016
	-121.4569	46.80995
	-121.4571	46.80984
	-121.4573	46.80963
	-121.4574	46.80924
	-121.4575	46.80919
	-121.4577	46.80912
	-121.4584	46.80845
	-121.4584	46.80817
	-121.4583	46.808
	-121.4581	46.80784
	-121.4577	46.80759
	-121.4571	46.80735
	-121.4569	46.80716
	-121.4568	46.80682
	-121.4567	46.8066
	-121.457	46.80608
	-121.457	46.80605
	-121.4569	46.80589
	-121.4567	46.80542
	-121.4563	46.80475
	-121.4562	46.80465
	-121.4562	46.80457
	-121.4563	46.80401
	-121.4557	46.80269
	-121.4553	46.80235
	-121.4547	46.80199
	-121.454	46.80138
	-121.4536	46.80111
	-121.4535	46.80109
	-121.4534	46.80104
	-121.4532	46.80098
	-121.4523	46.80081
	-121.4518	46.80077
	-121.4511	46.80083
	-121.4507	46.80054
	-121.4506	46.8004
	-121.4503	46.79962
	-121.4497	46.79869
	-121.4497	46.7986
	-121.45	46.79842
	-121.45	46.79822
	-121.4499	46.79809
	-121.4498	46.79792
	-121.4494	46.79762
	-121.4494	46.79759
	-121.4493	46.79756
	-121.4486	46.79722
	-121.4479	46.79671
	-121.4478	46.79666
	-121.4464	46.79579
	-121.4463	46.79574
	-121.446	46.79564
	-121.4459	46.79554
	-121.4456	46.79537
	-121.4448	46.79512
	-121.4445	46.79494
	-121.4437	46.79432
	-121.4435	46.79387
	-121.4431	46.79343
	-121.4428	46.79291
	-121.4429	46.79261
	-121.4432	46.79242
	-121.4441	46.79217
	-121.4448	46.79213
	-121.446	46.79192
	-121.4462	46.7919
	-121.4466	46.79196
	-121.4475	46.79229
	-121.4477	46.7923
	-121.4477	46.79231
	-121.4478	46.79229
	-121.4479	46.79224
	-121.45	46.7905
	-121.4505	46.79026
	-121.4509	46.78989
	-121.4509	46.78985
	-121.4521	46.78981
	-121.4525	46.78961
	-121.4527	46.78941
	-121.453	46.78917
	-121.4535	46.7888
	-121.4537	46.78863
	-121.4541	46.78815
	-121.4544	46.78752
	-121.4551	46.78667
	-121.4553	46.78651
	-121.4555	46.78591
	-121.4554	46.78487
	-121.4554	46.78424
	-121.4555	46.78385
	-121.4555	46.78371
	-121.4553	46.78344
	-121.4552	46.78316
	-121.455	46.78223
	-121.4551	46.78191
	-121.4552	46.78119
	-121.4552	46.78093
	-121.4551	46.78036
	-121.4546	46.77972
	-121.4543	46.77909
	-121.4539	46.77859
	-121.4534	46.77757
	-121.4524	46.77664
	-121.4514	46.77561
	-121.4507	46.77501
	-121.4501	46.77443
	-121.4501	46.7743
	-121.45	46.77415
	-121.4495	46.77387
	-121.4487	46.77372
	-121.4485	46.77367
	-121.4484	46.77362
	-121.4481	46.77343
	-121.4478	46.773
	-121.4477	46.7728
	-121.4476	46.77265
	-121.4476	46.77252
	-121.4478	46.77236
	-121.4478	46.77209
	-121.4479	46.77177
	-121.4477	46.7711
	-121.4477	46.77099
	-121.4476	46.77081
	-121.4475	46.77013
	-121.4474	46.7698
	-121.4474	46.76917
	-121.4471	46.76858
	-121.447	46.76852
	-121.4468	46.76824
	-121.4465	46.76808
	-121.4463	46.76806
	-121.4452	46.76826
	-121.4449	46.76826
	-121.4444	46.76781
	-121.4441	46.76775
	-121.4435	46.76775
	-121.4433	46.76771
	-121.4429	46.7672
	-121.4427	46.76689
	-121.4426	46.76686
	-121.4412	46.76567
	-121.4404	46.76531
	-121.44	46.76507
	-121.4395	46.76449
	-121.4392	46.76419
	-121.4387	46.76348
	-121.4385	46.76307
	-121.4385	46.76292
	-121.4384	46.76267
	-121.4385	46.76218
	-121.4384	46.76172
	-121.4384	46.76157
	-121.4386	46.76107
	-121.4389	46.76087
	-121.4394	46.76067
	-121.4398	46.76059
	-121.4403	46.76032
	-121.4406	46.76013
	-121.4419	46.75974
	-121.4423	46.75954
	-121.4423	46.75885
	-121.4424	46.75852
	-121.4424	46.75842
	-121.4419	46.75839
	-121.4403	46.75847
	-121.4391	46.75865
	-121.4373	46.75879
	-121.4369	46.75885
	-121.4367	46.7589
	-121.4353	46.75904
	-121.4323	46.75923
	-121.4321	46.75915
	-121.4321	46.75912
	-121.4318	46.75868
	-121.4315	46.75847
	-121.4306	46.75827
	-121.4292	46.75831
	-121.4289	46.75827
	-121.4276	46.75798
	-121.4271	46.75779
	-121.4267	46.75771
	-121.426	46.75769
	-121.4253	46.75738
	-121.4252	46.75735
	-121.4247	46.75699
	-121.4242	46.7559
	-121.4242	46.75527
	-121.4243	46.75515
	-121.425	46.75454
	-121.4251	46.75443
	-121.4251	46.75416
	-121.4249	46.75379
	-121.4239	46.7533
	-121.4237	46.75312
	-121.4237	46.7531
	-121.4236	46.75303
	-121.4237	46.75267
	-121.4247	46.75125
	-121.425	46.75097
	-121.4255	46.75054
	-121.4257	46.75023
	-121.4259	46.74985
	-121.4259	46.74917
	-121.4261	46.74821
	-121.4262	46.74803
	-121.4264	46.74786
	-121.4266	46.74766
	-121.4268	46.74742
	-121.4273	46.74717
	-121.428	46.74676
	-121.4289	46.74642
	-121.4291	46.74621
	-121.4291	46.7457
	-121.4293	46.74505
	-121.4294	46.74493
	-121.4295	46.74491
	-121.4295	46.74477
	-121.43	46.74388
	-121.4306	46.74222
	-121.4307	46.74203
	-121.4305	46.741
	-121.4294	46.73935
	-121.429	46.73914
	-121.4276	46.73901
	-121.4272	46.73886
	-121.4269	46.73867
	-121.4265	46.73861
	-121.4259	46.73853
	-121.4253	46.73853
	-121.4248	46.73839
	-121.4229	46.73839
	-121.4228	46.73838
	-121.4208	46.7377
	-121.4204	46.7375
	-121.4204	46.73743
	-121.419	46.7366
	-121.4169	46.73585
	-121.4157	46.73557
	-121.4127	46.73544
	-121.4122	46.7353
	-121.4107	46.73392
	-121.4104	46.73353
	-121.4098	46.73255
	-121.4098	46.73233
	-121.4097	46.73228
	-121.4096	46.7322
	-121.4096	46.73207
	-121.4094	46.73087
	-121.4093	46.73008
	-121.4093	46.72953
	-121.4091	46.72912
	-121.4085	46.72823
	-121.4069	46.72727
	-121.4064	46.72706
	-121.4039	46.72775
	-121.4024	46.72788
	-121.4021	46.72774
	-121.4019	46.72754
	-121.4016	46.72699
	-121.4013	46.72692
	-121.3993	46.72692
	-121.3989	46.72685
	-121.3986	46.72678
	-121.3984	46.72664
	-121.3965	46.72671
	-121.3954	46.72671
	-121.394	46.72699
	-121.3934	46.72733
	-121.3926	46.72753
	-121.3916	46.72753
	-121.3915	46.72746
	-121.3907	46.72726
	-121.3875	46.72712
	-121.3868	46.72719
	-121.3856	46.72746
	-121.3852	46.72766
	-121.3843	46.72808
	-121.3833	46.72828
	-121.3832	46.72821
	-121.3828	46.72801
	-121.3823	46.72794
	-121.3822	46.72802
	-121.3818	46.72822
	-121.3813	46.72836
	-121.3808	46.72835
	-121.3804	46.72808
	-121.3804	46.72792
	-121.3803	46.72753
	-121.3802	46.72746
	-121.3802	46.72732
	-121.3801	46.72725
	-121.38	46.72726
	-121.3794	46.72698
	-121.3786	46.72677
	-121.3778	46.72684
	-121.3777	46.72691
	-121.3762	46.72726
	-121.3758	46.72716
	-121.3752	46.72699
	-121.3748	46.72692
	-121.3744	46.72687
	-121.3727	46.72691
	-121.372	46.72685
	-121.3716	46.72671
	-121.3709	46.7262
	-121.3705	46.72604
	-121.37	46.72601
	-121.3692	46.7261
	-121.3689	46.72602
	-121.3684	46.72571
	-121.3675	46.72487
	-121.3666	46.72432
	-121.3643	46.72324
	-121.3642	46.72322
	-121.3642	46.72321
	-121.3636	46.72289
	-121.3632	46.72251
	-121.362	46.72084
	-121.3611	46.72004
	-121.36	46.71886
	-121.3591	46.71778
	-121.3587	46.71748
	-121.3582	46.71698
	-121.358	46.7169
	-121.3578	46.71684
	-121.3569	46.71665
	-121.356	46.7164
	-121.3556	46.71627
	-121.3555	46.71626
	-121.3551	46.71599
	-121.3548	46.71562
	-121.3547	46.71553
	-121.3539	46.71447
	-121.3536	46.71326
	-121.3534	46.71279
	-121.3533	46.7126
	-121.3527	46.71217
	-121.3534	46.71194
	-121.3537	46.71172
	-121.3539	46.71166
	-121.3545	46.7114
	-121.3549	46.71137
	-121.3571	46.71213
	-121.3576	46.7124
	-121.3578	46.71246
	-121.358	46.71244
	-121.3584	46.71233
	-121.3612	46.71138
	-121.3629	46.7106
	-121.3642	46.70987
	-121.3649	46.70961
	-121.3652	46.70954
	-121.3666	46.70941
	-121.3673	46.70924
	-121.369	46.70848
	-121.3691	46.70837
	-121.3692	46.7082
	-121.3692	46.70794
	-121.369	46.70746
	-121.369	46.70729
	-121.3695	46.70687
	-121.3703	46.70628
	-121.3706	46.70617
	-121.3711	46.70614
	-121.3724	46.70624
	-121.3727	46.70622
	-121.3739	46.70578
	-121.375	46.70524
	-121.3764	46.70441
	-121.3776	46.70364
	-121.3791	46.70289
	-121.3791	46.70282
	-121.3793	46.70268
	-121.38	46.70165
	-121.38	46.70145
	-121.3801	46.70138
	-121.3802	46.70014
	-121.3801	46.69989
	-121.3801	46.69952
	-121.38	46.69945
	-121.3787	46.69677
	-121.3785	46.69609
	-121.3779	46.69536
	-121.3777	46.69506
	-121.3774	46.69485
	-121.3774	46.69479
	-121.3764	46.69412
	-121.3762	46.69396
	-121.3758	46.69375
	-121.3755	46.69362
	-121.375	46.69311
	-121.3748	46.69269
	-121.3747	46.69253
	-121.3745	46.69152
	-121.3746	46.69073
	-121.3752	46.68942
	-121.3757	46.68821
	-121.3762	46.68751
	-121.3765	46.68724
	-121.3766	46.68696
	-121.377	46.68649
	-121.3773	46.68607
	-121.3777	46.6858
	-121.3801	46.68559
	-121.3814	46.68566
	-121.3815	46.68573
	-121.3834	46.68593
	-121.3839	46.68607
	-121.3851	46.68676
	-121.3856	46.68696
	-121.3869	46.68717
	-121.3884	46.68662
	-121.389	46.6865
	-121.3892	46.68648
	-121.3903	46.6869
	-121.3928	46.68711
	-121.3929	46.68704
	-121.3947	46.6869
	-121.3948	46.68697
	-121.3961	46.68724
	-121.3975	46.68786
	-121.3984	46.688
	-121.3985	46.68797
	-121.3985	46.68793
	-121.3987	46.68793
	-121.3992	46.68772
	-121.3996	46.68738
	-121.3998	46.68738
	-121.3999	46.68733
	-121.3999	46.68732
	-121.4001	46.68729
	-121.4003	46.68724
	-121.4006	46.68704
	-121.4006	46.68642
	-121.4017	46.68563
	-121.4023	46.68512
	-121.4024	46.68512
	-121.4036	46.68443
	-121.4041	46.68423
	-121.405	46.68409
	-121.4052	46.68409
	-121.4053	46.68406
	-121.4053	46.68402
	-121.4061	46.68388
	-121.4073	46.68381
	-121.408	46.68388
	-121.4084	46.68369
	-121.4085	46.68357
	-121.4085	46.68324
	-121.4083	46.68306
	-121.4084	46.68135
	-121.4085	46.68127
	-121.4089	46.68037
	-121.409	46.68004
	-121.4102	46.67832
	-121.4106	46.67796
	-121.411	46.67764
	-121.4117	46.67716
	-121.4126	46.6764
	-121.4132	46.67565
	-121.4134	46.67469
	-121.4133	46.67393
	-121.4132	46.6737
	-121.413	46.67331
	-121.4126	46.6727
	-121.4126	46.67256
	-121.4122	46.67202
	-121.4121	46.67194
	-121.412	46.67178
	-121.4118	46.67125
	-121.4119	46.67073
	-121.4119	46.67036
	-121.412	46.67029
	-121.4122	46.66865
	-121.4122	46.66768
	-121.4121	46.66763
	-121.4121	46.66727
	-121.4119	46.66664
	-121.4114	46.66603
	-121.4113	46.6659
	-121.4113	46.66587
	-121.4114	46.66549
	-121.4118	46.66504
	-121.4118	46.66501
	-121.4129	46.6644
	-121.4133	46.66398
	-121.4138	46.66336
	-121.414	46.66295
	-121.4145	46.66219
	-121.4149	46.66177
	-121.4155	46.66103
	-121.4159	46.66013
	-121.4161	46.65732
	-121.4163	46.65718
	-121.4165	46.65677
	-121.4165	46.65657
	-121.4166	46.65609
	-121.4167	46.65602
	-121.4168	46.65574
	-121.4166	46.65423
	-121.4165	46.65416
	-121.4161	46.65341
	-121.4159	46.65185
	-121.4158	46.65148
	-121.4158	46.65137
	-121.4149	46.65005
	-121.4128	46.64846
	-121.4117	46.64812
	-121.4083	46.64833
	-121.4078	46.64812
	-121.4068	46.64784
	-121.4038	46.64729
	-121.4028	46.64716
	-121.4021	46.64688
	-121.3992	46.6462
	-121.3952	46.64606
	-121.3951	46.64603
	-121.395	46.64592
	-121.3951	46.64544
	-121.3963	46.64393
	-121.3975	46.64269
	-121.3975	46.64259
	-121.3976	46.64242
	-121.3978	46.64214
	-121.3979	46.64208
	-121.398	46.64197
	-121.3984	46.64132
	-121.3981	46.64071
	-121.3981	46.64057
	-121.3979	46.64046
	-121.3975	46.64029
	-121.3967	46.64009
	-121.3945	46.63995
	-121.3925	46.63974
	-121.3914	46.63948
	-121.391	46.6394
	-121.3901	46.63912
	-121.3899	46.63898
	-121.3889	46.63844
	-121.3875	46.63741
	-121.3875	46.63725
	-121.3873	46.63713
	-121.3872	46.63713
	-121.387	46.63693
	-121.3864	46.63569
	-121.3864	46.635
	-121.3865	46.63495
	-121.3876	46.6326
	-121.3879	46.63229
	-121.3883	46.63171
	-121.3885	46.63095
	-121.3885	46.63075
	-121.3886	46.63074
	-121.3886	46.63068
	-121.3888	46.63027
	-121.3889	46.62971
	-121.3889	46.62958
	-121.389	46.62951
	-121.3891	46.62924
	-121.3892	46.62889
	-121.3893	46.62814
	-121.3892	46.62807
	-121.3892	46.62796
	-121.389	46.62683
	-121.3889	46.62677
	-121.3887	46.62643
	-121.3884	46.62553
	-121.3882	46.62484
	-121.3882	46.62471
	-121.3881	46.6246
	-121.3881	46.6244
	-121.388	46.62437
	-121.388	46.62347
	-121.3881	46.62344
	-121.3881	46.62309
	-121.3877	46.62232
	-121.3877	46.62213
	-121.3876	46.62206
	-121.3876	46.62185
	-121.3875	46.62179
	-121.3873	46.62138
	-121.3873	46.62103
	-121.3872	46.62098
	-121.3872	46.62057
	-121.3873	46.62048
	-121.3873	46.62011
	-121.3874	46.62007
	-121.3874	46.61962
	-121.3876	46.61911
	-121.3876	46.6189
	-121.3877	46.61884
	-121.3877	46.61863
	-121.3878	46.61849
	-121.3878	46.61817
	-121.3882	46.6176
	-121.3882	46.61743
	-121.3884	46.61712
	-121.3888	46.61688
	-121.3902	46.61654
	-121.3912	46.61633
	-121.3923	46.61568
	-121.3947	46.6149
	-121.3951	46.61475
	-121.3957	46.61441
	-121.3958	46.61421
	-121.3958	46.61393
	-121.396	46.61332
	-121.3968	46.6127
	-121.3971	46.6126
	-121.3977	46.61243
	-121.3984	46.61225
	-121.3992	46.61186
	-121.3998	46.6112
	-121.4002	46.61085
	-121.4004	46.61047
	-121.4008	46.60958
	-121.401	46.60824
	-121.401	46.60782
	-121.4008	46.60747
	-121.4008	46.60695
	-121.4009	46.60687
	-121.4009	46.6068
	-121.4013	46.60662
	-121.4013	46.60659
	-121.4018	46.60651
	-121.4033	46.60639
	-121.4035	46.60634
	-121.4044	46.60601
	-121.4044	46.606
	-121.4046	46.6059
	-121.4055	46.60452
	-121.4064	46.60378
	-121.4073	46.60296
	-121.4079	46.60221
	-121.4079	46.60181
	-121.4076	46.60132
	-121.4075	46.601
	-121.407	46.60055
	-121.4068	46.60031
	-121.4065	46.6001
	-121.4062	46.60005
	-121.4061	46.59992
	-121.406	46.59983
	-121.4056	46.59904
	-121.4047	46.59807
	-121.4046	46.59794
	-121.4044	46.59743
	-121.4041	46.59646
	-121.4035	46.59573
	-121.4034	46.59553
	-121.4033	46.59537
	-121.4029	46.59447
	-121.402	46.59369
	-121.4019	46.59349
	-121.4019	46.59343
	-121.4018	46.59331
	-121.4018	46.5929
	-121.402	46.59263
	-121.402	46.59218
	-121.4022	46.59194
	-121.4023	46.59186
	-121.4023	46.59094
	-121.4025	46.59084
	-121.4026	46.5905
	-121.4026	46.59028
	-121.4027	46.59021
	-121.4027	46.59001
	-121.4028	46.58995
	-121.4028	46.58967
	-121.4029	46.58962
	-121.4029	46.58926
	-121.403	46.58923
	-121.403	46.58759
	-121.4031	46.58737
	-121.4037	46.58635
	-121.404	46.58598
	-121.4042	46.58578
	-121.4051	46.58464
	-121.4053	46.58402
	-121.4055	46.58368
	-121.4055	46.58349
	-121.4056	46.58346
	-121.4056	46.58332
	-121.4057	46.58325
	-121.4057	46.58308
	-121.4058	46.58306
	-121.4058	46.58287
	-121.4059	46.58286
	-121.406	46.58274
	-121.406	46.58267
	-121.4064	46.58219
	-121.4064	46.58212
	-121.4068	46.58178
	-121.4077	46.58111
	-121.4083	46.58071
	-121.4149	46.57673
	-121.4161	46.57588
	-121.4246	46.56994
	-121.4221	46.5663
	-121.4214	46.56517
	-121.4177	46.56236
	-121.4171	46.56203
	-121.4167	46.5616
	-121.4175	46.55788
	-121.4182	46.55516
	-121.4186	46.55312
	-121.4191	46.55042
	-121.4236	46.5431
	-121.4367	46.53995
	-121.4485	46.52841
	-121.4497	46.52519
	-121.4504	46.52456
	-121.453	46.52196
	-121.4536	46.51692
	-121.4557	46.51345
	-121.4562	46.51277
	-121.4534	46.5073
	-121.4474	46.50183
	-121.4434	46.50049
	-121.4414	46.50005
	-121.4368	46.49962
	-121.4269	46.49703
	-121.4249	46.49649
	-121.4242	46.49283
	-121.4294	46.48912
	-121.4333	46.4836
	-121.4346	46.47992
	-121.4332	46.47718
	-121.4259	46.47494
	-121.4273	46.46712
	-121.4278	46.46484
	-121.4225	46.4635
	-121.4185	46.46217
	-121.4138	46.45852
	-121.4134	46.45561
	-121.4131	46.45395
	-121.4117	46.44662
	-121.4063	46.43611
	-121.4055	46.43062
	-121.3995	46.42241
	-121.3959	46.41963
	-121.3855	46.41151
	-121.3858	46.41118
	-121.3864	46.4104
	-121.3922	46.3871
	-121.445	46.3882
	-121.4491	46.38818
	-121.4527	46.38814
	-121.4557	46.38813
	-121.486	46.38837
	-121.5236	46.38822
	-121.5268	46.38824
	-121.5583	46.38825
	-121.5951	46.38814
	-121.6357	46.38824
	-121.6359	46.38872
	-121.6365	46.38935
	-121.637	46.38976
	-121.6376	46.39005
	-121.6384	46.39033
	-121.6388	46.39042
	-121.6396	46.39054
	-121.6403	46.39052
	-121.6425	46.3901
	-121.6429	46.38998
	-121.6457	46.38883
	-121.6467	46.38865
	-121.6485	46.3885
	-121.6488	46.38966
	-121.6508	46.38919
	-121.651	46.38953
	-121.6524	46.3887
	-121.6528	46.38836
	-121.6529	46.38823
	-121.6967	46.38814
	-121.7488	46.38809
	-121.7512	46.38828
	-121.7584	46.38842
	-121.8198	46.38888
	-121.8333	46.3887
	-121.864	46.38847
	-121.864	46.38807
	-121.8737	46.38806
	-121.8762	46.3876
	-121.8762	46.38759
	-121.8801	46.38757
	-121.8995	46.38762
	-121.9001	46.38927
	-121.9006	46.38955
	-121.9018	46.38994
	-121.9044	46.39085
	-121.9044	46.39088
	-121.9053	46.39114
	-121.9064	46.39132
	-121.9067	46.39135
	-121.9078	46.39138
	-121.9083	46.39136
	-121.9087	46.39133
	-121.909	46.39128
	-121.9096	46.39112
	-121.9102	46.39103
	-121.9103	46.39099
	-121.9111	46.3908
	-121.9114	46.39069
	-121.9124	46.39023
	-121.913	46.39005
	-121.9132	46.38997
	-121.914	46.38957
	-121.9145	46.38921
	-121.9148	46.38884
	-121.9149	46.38865
	-121.9147	46.38765
	-121.9786	46.38779
	-122.0102	46.38805
	-122.0653	46.38834
	-122.0741	46.38844
	-122.1141	46.38819
	-122.1141	46.38646
	-122.1236	46.38653
	-122.1641	46.38656
	-122.2417	46.38637
	-122.2417	46.38529
	-122.24	46.38531
	-122.2398	46.32131
	-122.2395	46.31078
	-122.2387	46.25489
	-122.2389	46.21685
	-122.2389	46.21091
	-122.2428	46.21041
	-122.2434	46.133
	-122.2434	46.13103
	-122.2436	46.11606
	-122.2439	46.10184
	-122.2444	46.07117
	-122.2454	46.05401
	-122.2453	46.04451
	-122.2452	46.03252
	-122.2456	46.02121
	-122.2459	46.01048
	-122.2464	46.00073
	-122.2465	45.99723
	-122.2465	45.97074
	-122.2464	45.96242
	-122.2464	45.9479
	-122.2462	45.93522
	-122.2463	45.92247
	-122.2462	45.9008
	-122.246	45.86657
	-122.25	45.86658
	-122.2495	45.84785
	-122.2494	45.84554
	-122.2494	45.8448
	-122.2491	45.83619
	-122.2494	45.82555
	-122.2494	45.82319
	-122.2496	45.81598
	-122.2495	45.80737
	-122.2494	45.8032
	-122.2493	45.80001
	-122.2491	45.78841
	-122.2491	45.75022
	-122.2492	45.73936
	-122.2494	45.72902
	-122.2494	45.71223
	-122.2495	45.70685
	-122.2495	45.69408
	-122.2497	45.68798
	-122.2499	45.67951
	-122.2499	45.67063
	-122.2498	45.66165
	-122.2496	45.65607
	-122.2493	45.64671
	-122.2491	45.63037
	-122.2491	45.62893
	-122.249	45.6215
	-122.249	45.61274
	-122.2491	45.60858
	-122.2491	45.5947
	-122.249	45.58591
	-122.249	45.56137
	-122.2491	45.55747
	-122.2491	45.55608
	-122.2495	45.54857
	-122.267	45.544
	-122.2968	45.54372
	-122.3315	45.54842
	-122.3389	45.55588
	-122.3467	45.5637
	-122.347	45.56382
	-122.3523	45.56925
	-122.3733	45.57409
	-122.3737	45.57428
	-122.3801	45.57578
	-122.3834	45.57547
	-122.3917	45.5747
	-122.4113	45.56742
	-122.417	45.56659
	-122.4241	45.56558
	-122.4389	45.56346
	-122.4538	45.56733
	-122.4553	45.56817
	-122.4736	45.57839
	-122.4891	45.58247
	-122.4929	45.58345
	-122.5245	45.58969
	-122.5479	45.59647
	-122.5494	45.5968
	-122.5511	45.59715
	-122.5814	45.60355
	-122.5889	45.60513
	-122.5901	45.60539
	-122.6071	45.60811
	-122.642	45.60927
	-122.6733	45.61753
	-122.6771	45.61867
	-122.6896	45.62386
	-122.6915	45.62485
	-122.6943	45.62633
	-122.7028	45.63124
	-122.7144	45.63788
	-122.7314	45.64247
	-122.7382	45.64427
	-122.7406	45.64549
	-122.764	45.65726
	-122.7745	45.68062
	-122.7727	45.698
	-122.7723	45.70121
	-122.7622	45.72864
	-122.7607	45.73474
	-122.7616	45.76072
	-122.764	45.7651
	-122.7675	45.772
	-122.773	45.7789
	-122.774	45.7799
	-122.7817	45.78924
	-122.7841	45.79463
	-122.7888	45.80077
	-122.7944	45.80747
	-122.7962	45.82186
	-122.7925	45.8312
	-122.7865	45.84336
	-122.7841	45.85005
	-122.7846	45.85151
	-122.7847	45.85757
	-122.785	45.86818
	-122.7963	45.88247
	-122.798	45.88456
	-122.7989	45.88647
	-122.8012	45.89145
	-122.8069	45.90328
	-122.8084	45.90658
	-122.8108	45.91164
	-122.8115	45.91273
	-122.8112	45.91382
	-122.8112	45.91386
	-122.8062	45.93242
	-122.814	45.96098
	-122.8376	45.98082
	-122.8488	45.99761
	-122.8595	46.01558
	-122.8746	46.03154
	-122.8794	46.04987
	-122.8818	46.05623
	-122.8845	46.06028
	-122.8911	46.07241
	-122.9041	46.08373
	-122.9374	46.09572
	-122.9397	46.09653
	-122.9589	46.10345
	-122.9627	46.10482
	-122.9721	46.11137
	-123.0042	46.13382
	-123.0053	46.13428
	-123.0094	46.13604
	-123.0221	46.13911
	-123.0338	46.14434
	-123.0413	46.14635
	-123.0511	46.1536
	-123.105	46.17768
	-123.1159	46.18527
	-123.1664	46.18897
	-123.2131	46.17254
	-123.2312	46.16615
	-123.2512	46.15645
	-123.2802	46.14484
	-123.301	46.14463
	-123.3323	46.14613
	-123.3636	46.14633
	-123.3714	46.14637
	-123.3795	46.151
	-123.3905	46.15448
	-123.4308	46.18183
	-123.4276	46.22935
	-123.4476	46.24983
	-123.4687	46.26453
	-123.4748	46.26783
	-123.4796	46.26913
	-123.5012	46.271
	-123.5162	46.26615
	-123.5264	46.2634
	-123.537	46.2613
	-123.5476	46.25982
	-123.5481	46.25987
	-123.5486	46.2597
	-123.5499	46.25946
	-123.5529	46.25934
	-123.5556	46.2591
	-123.5571	46.25898
	-123.5588	46.25887
	-123.5602	46.25863
	-123.5673	46.25792
	-123.5726	46.25756
	-123.5816	46.25691
	-123.5855	46.25661
	-123.5917	46.25679
	-123.6142	46.25756
	-123.6229	46.25786
	-123.6275	46.25833
	-123.6489	46.2591
	-123.6877	46.25632
	-123.7181	46.26124
	-123.7414	46.26915
	-123.7513	46.26504
	-123.7781	46.25425
	-123.7794	46.25388
	-123.7843	46.25324
	-123.7934	46.25246
	-123.7997	46.25159
	-123.803	46.25124
	-123.8065	46.25067
	-123.8095	46.25007
	-123.8151	46.24983
	-123.8719	46.23495
	-123.8726	46.23499
	-123.9305	46.2388
	-123.9464	46.24982
	-123.9465	46.24982
	-123.9576	46.26015
	-123.9634	46.2634
	-123.9653	46.26533
	-123.9698	46.26653
	-123.9733	46.2685
	-123.9763	46.26991
	-123.9798	46.27092
	-123.9829	46.27199
	-123.986	46.27275
	-123.9933	46.27365
	-123.9965	46.27375
	-123.999	46.27403
	-124.0013	46.27401
	-124.0027	46.27434
	-124.0036	46.27471
	-124.0051	46.27577
	-124.0058	46.27679
	-124.0051	46.27769
	-124.0071	46.28021
	-124.0097	46.28322
	-124.0115	46.28657
	-124.013	46.29003
	-124.0149	46.29317
	-124.0178	46.29512
	-124.0226	46.29773
	-124.0249	46.2991
	-124.0301	46.29875
	-124.0342	46.29784
	-124.0356	46.29684
	-124.0372	46.29076
	-124.0386	46.28584
	-124.0389	46.28456
	-124.0388	46.28368
	-124.0376	46.28161
	-124.0366	46.28007
	-124.0338	46.27732
	-124.0336	46.27591
	-124.0336	46.27439
	-124.0344	46.27326
	-124.0357	46.27147
	-124.035	46.26595
	-124.0349	46.26483
	-124.036	46.26418
	-124.0662	46.26296
	-124.1294	46.26184
	-124.1497	46.26113
	-124.1481	46.26511
	-124.1427	46.27351
	-124.1405	46.28869
	-124.1422	46.29962
	-124.1367	46.32188
	-124.1299	46.34031
	-124.1252	46.36919
	-124.1231	46.39464
	-124.1225	46.4175
	-124.1205	46.45701
	-124.1208	46.48663
	-124.1222	46.52366
	-124.1231	46.53154
	-124.1249	46.54931
	-124.1259	46.56232
	-124.1309	46.5979
	-124.1316	46.6283
	-124.1334	46.64237
	-124.129	46.65108
	-124.1202	46.66934
	-124.1209	46.68496
	-124.1261	46.69717
	-124.1227	46.70688
	-124.1283	46.72092
	-124.1479	46.73496
	-124.1533	46.73825
	-124.1624	46.74721
	-124.1674	46.76122
	-124.1621	46.78067
	-124.1629	46.79458
	-124.1667	46.8117
	-124.172	46.83461
	-124.1804	46.85814
	-124.1916	46.88355
	-124.2084	46.89421
	-124.2194	46.90468
	-124.2408	46.92653
	-124.2405	46.92975
	-124.2417	46.95339
	-124.2408	46.96765
	-124.2377	46.98871
	-124.2385	47.02444
	-124.2386	47.03668
	-124.2409	47.06234
	-124.243	47.07899
	-124.2458	47.10034
	-124.2486	47.11782
	-124.2507	47.13598
	-124.2552	47.15606
	-124.2646	47.18785
	-124.2757	47.22365
	-124.2851	47.24242
	-124.2941	47.26885
	-124.3282	47.27043
	-124.3591	47.27725
	-124.3711	47.28921
	-124.378	47.3053
	-124.3658	47.3231
	-124.3522	47.33038
	-124.3544	47.3317
	-124.3834	47.35371
	-124.412	47.37647
	-124.4292	47.40689
	-124.429	47.41343
	-124.4619	47.42662
	-124.4716	47.44856
	-124.4601	47.47226
	-124.4366	47.48535
	-124.4101	47.4892
	-124.4108	47.49746
	-124.4144	47.5121
	-124.4192	47.53085
	-124.4257	47.5641
	-124.4373	47.59908
	-124.4425	47.62407
	-124.4493	47.63145
	-124.497	47.63173
	-124.5356	47.64283
	-124.5451	47.66455
	-124.5416	47.69312
	-124.5197	47.71217
	-124.4972	47.71936
	-124.4938	47.72424
	-124.5108	47.73354
	-124.5294	47.73855
	-124.5707	47.77904
	-124.569	47.78897
	-124.5917	47.78977
	-124.6024	47.79896
	-124.6124	47.81145
	-124.6171	47.82747
	-124.6201	47.83562
	-124.6604	47.84106
	-124.7016	47.87698
	-124.7053	47.88221
	-124.7245	47.89954
	-124.7389	47.91319
	-124.7528	47.93208
	-124.7431	47.9569
	-124.7887	47.97424
	-124.7947	47.98915
	-124.7924	48.00327
	-124.7851	48.02982
	-124.761	48.06004
	-124.7683	48.07063
	-124.7621	48.08418
	-124.7598	48.10323
	-124.7702	48.11356
	-124.7873	48.12387
	-124.7994	48.13445
	-124.8144	48.15324
	-124.8208	48.15833
	-124.8361	48.17612
	-124.8194	48.19358
	-124.7798	48.22548
	-124.774	48.23809
	-124.7679	48.24661
	-124.7523	48.27899
	-124.7501	48.29394
	-124.7345	48.31815
	-124.7672	48.34111
	-124.7877	48.35447
	-124.8023	48.36906
	-124.8125	48.39187
	-124.79	48.41808
	-124.7272	48.49344
	-124.6667	48.47681
	-124.0121	48.29667
	-123.6791	48.24
	-123.5412	48.22456
	-123.2484	48.28403
	-123.1151	48.42283
	-123.1599	48.4535
	-123.2189	48.54872
	-123.2679	48.694
	-123.0085	48.76711
	-123.0085	48.83122
	-123.3222	49.00207
	-123.0753	49.00206
	-123.0382	49.00208
	-122.8456	49.00208
	-122.7903	49.00209
	-122.7869	49.00208
	-122.7305	49.00209
	-122.6472	49.00215
	-122.6021	49.00217
	-122.58	49.0022
	-122.4763	49.00227
	-122.4382	49.00231
	-122.3922	49.00232
	-122.3384	49.00236
	-122.2907	49.00238
	-122.2648	49.0024
	-122.2518	49.00242
	-122.2157	49.00244
	-122.1858	49.00243
	-122.1098	49.00243
	-122.0981	49.00242
	-122.0285	49.00145
	-122.0064	49.00113
	-122.0	49.00105
	-121.9716	49.00062
	-121.9354	49.00009
	-121.8506	48.99878
	-121.8101	48.99813
	-121.7596	48.9973
	-121.7411	48.9973
	-121.6678	48.99827
	-121.6302	48.99878
	-121.613	48.99898
	-121.527	48.99951
	-121.4749	48.99972
	-121.4747	48.99973
	-121.445	48.99984
	-121.4142	48.99995
	-121.4051	48.99995
	-121.3793	49.00032
	-121.3348	49.00092
	-121.3017	49.00089
	-121.2976	49.0009
	-121.2512	49.00078
	-121.1943	49.00058
	-121.155	49.00088
	-121.095	49.00022
	-121.0566	49.00022
	-121.0453	49.00024
	-121.0007	49.00028
	-120.9544	49.00031
	-120.9106	49.00032
	-120.8514	49.0003
	-120.8523	48.99986
	-120.8539	48.99872
	-120.8546	48.99836
	-120.8555	48.99815
	-120.8555	48.99801
	-120.8553	48.99792
	-120.8551	48.99785
	-120.8551	48.99749
	-120.854	48.99556
	-120.8534	48.99518
	-120.8531	48.99453
	-120.8513	48.9938
	-120.8517	48.99309
	-120.853	48.99203
	-120.8531	48.99196
	-120.8543	48.9906
	-120.8542	48.99016
	-120.8575	48.98764
	-120.8576	48.98748
	-120.8583	48.98684
	-120.8585	48.98633
	-120.8616	48.98481
	-120.8615	48.98378
	-120.8622	48.98282
	-120.8622	48.98196
	-120.8627	48.98201
	-120.8631	48.98186
	-120.8633	48.9817
	-120.8635	48.98156
	-120.864	48.98075
	-120.864	48.98066
	-120.866	48.97978
	-120.8665	48.97974
	-120.8713	48.97925
	-120.874	48.97861
	-120.8756	48.97871
	-120.8757	48.97864
	-120.8762	48.97838
	-120.8793	48.97771
	-120.8806	48.97763
	-120.8843	48.97543
	-120.8857	48.97483
	-120.8854	48.97449
	-120.8829	48.97325
	-120.882	48.97306
	-120.8808	48.97166
	-120.8805	48.97096
	-120.8803	48.97036
	-120.8809	48.96926
	-120.8814	48.96897
	-120.8821	48.96862
	-120.8823	48.96796
	-120.8816	48.96682
	-120.8811	48.96608
	-120.8782	48.96484
	-120.8778	48.96411
	-120.8762	48.96339
	-120.8756	48.96356
	-120.8754	48.96349
	-120.8735	48.96276
	-120.8723	48.96208
	-120.8667	48.96191
	-120.8665	48.96174
	-120.8657	48.96113
	-120.8639	48.96047
	-120.8631	48.96043
	-120.8618	48.96001
	-120.8613	48.95969
	-120.8612	48.95965
	-120.861	48.95899
	-120.8607	48.95829
	-120.8598	48.95768
	-120.8565	48.95708
	-120.8546	48.95675
	-120.8536	48.95633
	-120.8529	48.95602
	-120.852	48.95587
	-120.851	48.95597
	-120.8505	48.95629
	-120.8498	48.95652
	-120.8497	48.95594
	-120.8494	48.95562
	-120.8491	48.95534
	-120.8445	48.95232
	-120.8441	48.95168
	-120.8439	48.95142
	-120.8416	48.95076
	-120.8407	48.95032
	-120.8404	48.94868
	-120.8398	48.94784
	-120.8396	48.94709
	-120.8395	48.94644
	-120.8386	48.94465
	-120.8375	48.94332
	-120.8376	48.94238
	-120.8369	48.94169
	-120.8366	48.94069
	-120.8364	48.94026
	-120.8362	48.94015
	-120.8361	48.93943
	-120.8341	48.93933
	-120.8328	48.93851
	-120.8315	48.93833
	-120.8308	48.93798
	-120.8301	48.93798
	-120.8292	48.93841
	-120.8285	48.93876
	-120.827	48.93876
	-120.8265	48.93888
	-120.8263	48.93891
	-120.8259	48.93915
	-120.8245	48.93925
	-120.8224	48.94058
	-120.8208	48.94105
	-120.8206	48.94122
	-120.8201	48.94151
	-120.8199	48.94356
	-120.8193	48.94441
	-120.8185	48.94475
	-120.8181	48.94495
	-120.8169	48.94512
	-120.8156	48.94532
	-120.8135	48.94661
	-120.8134	48.94678
	-120.8138	48.94731
	-120.8144	48.94815
	-120.8153	48.94891
	-120.8155	48.94938
	-120.8154	48.94998
	-120.8153	48.95101
	-120.8144	48.95121
	-120.8116	48.95075
	-120.8063	48.95187
	-120.8058	48.95168
	-120.8054	48.95168
	-120.8045	48.95216
	-120.804	48.95225
	-120.8033	48.95283
	-120.8013	48.95341
	-120.8005	48.9544
	-120.8003	48.9546
	-120.8	48.95486
	-120.7997	48.95542
	-120.8008	48.95813
	-120.8008	48.9591
	-120.8006	48.95918
	-120.7981	48.95873
	-120.7957	48.95863
	-120.7919	48.95922
	-120.7906	48.95915
	-120.7891	48.95848
	-120.7888	48.95788
	-120.7867	48.95771
	-120.7861	48.95789
	-120.7857	48.95803
	-120.7844	48.95781
	-120.7824	48.95691
	-120.7818	48.95681
	-120.7787	48.95753
	-120.7782	48.9575
	-120.7779	48.95738
	-120.7755	48.95654
	-120.7715	48.95575
	-120.771	48.95556
	-120.7685	48.95442
	-120.7676	48.95443
	-120.7671	48.95328
	-120.7666	48.95285
	-120.7665	48.95216
	-120.7665	48.95195
	-120.7656	48.95047
	-120.7645	48.94945
	-120.7623	48.94805
	-120.7617	48.94705
	-120.7607	48.94639
	-120.7601	48.94602
	-120.7591	48.94474
	-120.7584	48.94426
	-120.7573	48.94363
	-120.756	48.94263
	-120.756	48.94222
	-120.7559	48.94176
	-120.7554	48.94073
	-120.756	48.93948
	-120.7558	48.93871
	-120.7558	48.93843
	-120.7547	48.93716
	-120.7542	48.93608
	-120.755	48.93469
	-120.7549	48.93442
	-120.7547	48.93349
	-120.7549	48.93282
	-120.755	48.9326
	-120.7558	48.9316
	-120.757	48.93094
	-120.7582	48.93055
	-120.7583	48.93039
	-120.7591	48.92958
	-120.7611	48.92901
	-120.7614	48.92871
	-120.7625	48.92853
	-120.763	48.9283
	-120.765	48.92828
	-120.7675	48.92764
	-120.769	48.92755
	-120.7708	48.9271
	-120.7713	48.92711
	-120.7718	48.92734
	-120.7719	48.92723
	-120.7718	48.92619
	-120.7722	48.92492
	-120.7721	48.92315
	-120.7719	48.9225
	-120.7716	48.92173
	-120.7706	48.9209
	-120.7708	48.92077
	-120.7719	48.91991
	-120.7722	48.91947
	-120.7722	48.91905
	-120.7726	48.91848
	-120.7724	48.91769
	-120.7723	48.91731
	-120.7707	48.91464
	-120.7698	48.91383
	-120.7685	48.91217
	-120.7683	48.91205
	-120.7678	48.91181
	-120.7678	48.91155
	-120.7687	48.91044
	-120.7711	48.90812
	-120.7722	48.90567
	-120.7714	48.90496
	-120.7714	48.90462
	-120.7713	48.90436
	-120.7704	48.90346
	-120.77	48.90267
	-120.7669	48.90119
	-120.7664	48.90057
	-120.7664	48.90045
	-120.7662	48.90038
	-120.7659	48.90016
	-120.765	48.9001
	-120.7641	48.90026
	-120.7635	48.90055
	-120.7635	48.90059
	-120.7633	48.90051
	-120.7635	48.9001
	-120.7635	48.89882
	-120.764	48.89642
	-120.7643	48.89596
	-120.7646	48.89556
	-120.7653	48.89489
	-120.7659	48.89426
	-120.7661	48.89374
	-120.7663	48.89347
	-120.7663	48.89266
	-120.7656	48.89114
	-120.7651	48.89113
	-120.7646	48.89023
	-120.7646	48.88949
	-120.7642	48.88924
	-120.763	48.88858
	-120.7637	48.88823
	-120.7646	48.88721
	-120.7651	48.88677
	-120.7659	48.88637
	-120.7673	48.88519
	-120.7681	48.88457
	-120.7701	48.88354
	-120.7704	48.88306
	-120.7699	48.88253
	-120.77	48.88129
	-120.7687	48.87993
	-120.7685	48.87823
	-120.768	48.87735
	-120.767	48.87697
	-120.7668	48.87665
	-120.7667	48.87652
	-120.7662	48.87624
	-120.7652	48.87604
	-120.7643	48.87615
	-120.7641	48.87593
	-120.764	48.87589
	-120.7633	48.87403
	-120.7625	48.87355
	-120.7625	48.87321
	-120.7596	48.87264
	-120.7572	48.87135
	-120.7557	48.87101
	-120.7545	48.87053
	-120.7545	48.87004
	-120.7544	48.86994
	-120.7535	48.86937
	-120.7528	48.8692
	-120.7521	48.86877
	-120.7508	48.86769
	-120.7499	48.86733
	-120.7497	48.86727
	-120.7457	48.86715
	-120.7443	48.86643
	-120.7433	48.86614
	-120.7424	48.8659
	-120.7401	48.86477
	-120.7374	48.86418
	-120.7367	48.86447
	-120.7359	48.86451
	-120.7355	48.86221
	-120.7358	48.86188
	-120.7363	48.86138
	-120.7363	48.86127
	-120.7359	48.85969
	-120.7353	48.85859
	-120.7353	48.858
	-120.7343	48.85726
	-120.734	48.85684
	-120.7329	48.85657
	-120.7323	48.85539
	-120.7318	48.8551
	-120.7305	48.85507
	-120.7305	48.85503
	-120.731	48.85435
	-120.7311	48.85408
	-120.7311	48.85393
	-120.7325	48.85323
	-120.733	48.8525
	-120.7337	48.85166
	-120.734	48.85096
	-120.7344	48.84996
	-120.7346	48.84972
	-120.7348	48.84957
	-120.7351	48.84888
	-120.7357	48.84725
	-120.7357	48.84649
	-120.7375	48.84457
	-120.738	48.84344
	-120.7385	48.84246
	-120.7387	48.84131
	-120.7385	48.84101
	-120.7385	48.84096
	-120.7369	48.8398
	-120.7367	48.83654
	-120.737	48.83564
	-120.7371	48.83542
	-120.7377	48.83456
	-120.7377	48.83341
	-120.7374	48.83278
	-120.7362	48.83182
	-120.7372	48.8295
	-120.7376	48.82869
	-120.7377	48.82844
	-120.7378	48.82795
	-120.7377	48.82759
	-120.7376	48.8273
	-120.7378	48.82688
	-120.7383	48.82648
	-120.7386	48.82618
	-120.7389	48.82533
	-120.7392	48.82491
	-120.7412	48.8242
	-120.7422	48.82415
	-120.743	48.82347
	-120.7431	48.82274
	-120.7433	48.82209
	-120.7433	48.82189
	-120.7431	48.82064
	-120.7434	48.82023
	-120.7433	48.81977
	-120.7431	48.81966
	-120.7424	48.81939
	-120.7421	48.81855
	-120.742	48.81818
	-120.742	48.8177
	-120.7424	48.81734
	-120.7429	48.81686
	-120.7434	48.81569
	-120.7432	48.81487
	-120.7431	48.81454
	-120.7425	48.81415
	-120.7419	48.81373
	-120.7425	48.81346
	-120.7427	48.81185
	-120.7409	48.8096
	-120.7407	48.80947
	-120.7402	48.80922
	-120.7401	48.80919
	-120.7395	48.8091
	-120.7389	48.80755
	-120.737	48.80575
	-120.737	48.80545
	-120.7366	48.80503
	-120.7363	48.80483
	-120.7362	48.80443
	-120.7362	48.80423
	-120.7356	48.80377
	-120.7356	48.80302
	-120.7357	48.80285
	-120.7358	48.80259
	-120.7366	48.8019
	-120.7363	48.80112
	-120.7374	48.79801
	-120.7376	48.79748
	-120.7374	48.79633
	-120.7362	48.79454
	-120.736	48.79381
	-120.734	48.79288
	-120.7339	48.79277
	-120.7339	48.79235
	-120.7341	48.79198
	-120.7343	48.79132
	-120.7355	48.78957
	-120.7355	48.78898
	-120.7351	48.78832
	-120.7352	48.78574
	-120.7345	48.78451
	-120.7331	48.78213
	-120.7292	48.77708
	-120.728	48.77613
	-120.7268	48.77549
	-120.7262	48.77491
	-120.7258	48.77435
	-120.7258	48.77404
	-120.7257	48.77331
	-120.7244	48.77338
	-120.7238	48.77312
	-120.7218	48.773
	-120.7192	48.77303
	-120.7184	48.77272
	-120.7177	48.7724
	-120.7126	48.77232
	-120.7113	48.772
	-120.7105	48.7716
	-120.7105	48.77126
	-120.7097	48.77047
	-120.7095	48.77035
	-120.7077	48.76762
	-120.7059	48.76541
	-120.7035	48.76378
	-120.7035	48.76275
	-120.7034	48.76263
	-120.7031	48.76176
	-120.7011	48.75909
	-120.7006	48.75859
	-120.6996	48.75769
	-120.6996	48.7575
	-120.6995	48.75728
	-120.6978	48.757
	-120.6972	48.75676
	-120.6966	48.75648
	-120.694	48.75618
	-120.693	48.75636
	-120.6922	48.75597
	-120.6921	48.75533
	-120.6913	48.75413
	-120.6911	48.75288
	-120.6906	48.752
	-120.6915	48.75075
	-120.6916	48.75033
	-120.6918	48.74986
	-120.6919	48.74872
	-120.6917	48.74839
	-120.6911	48.74729
	-120.6901	48.74653
	-120.6893	48.74538
	-120.6889	48.74516
	-120.6888	48.74512
	-120.6863	48.74457
	-120.685	48.74401
	-120.6828	48.7427
	-120.6817	48.74169
	-120.6816	48.74181
	-120.6807	48.74155
	-120.6801	48.74107
	-120.6794	48.7404
	-120.6788	48.73938
	-120.6783	48.73677
	-120.6768	48.73504
	-120.6758	48.73475
	-120.6745	48.73474
	-120.6733	48.73386
	-120.6698	48.73299
	-120.6663	48.73317
	-120.665	48.73309
	-120.6644	48.7328
	-120.6638	48.73253
	-120.663	48.7309
	-120.6623	48.73013
	-120.661	48.72879
	-120.6608	48.72851
	-120.6596	48.72658
	-120.6565	48.7255
	-120.6552	48.72459
	-120.6547	48.7242
	-120.655	48.72395
	-120.6554	48.72352
	-120.658	48.72028
	-120.6603	48.7203
	-120.6626	48.72116
	-120.6681	48.72135
	-120.6699	48.72107
	-120.6729	48.71972
	-120.6749	48.71905
	-120.6765	48.71896
	-120.6779	48.71813
	-120.6801	48.71472
	-120.6812	48.71317
	-120.6816	48.71026
	-120.6802	48.70734
	-120.6802	48.70474
	-120.6784	48.70347
	-120.6778	48.70264
	-120.677	48.70146
	-120.6779	48.7002
	-120.6779	48.69903
	-120.6777	48.69636
	-120.678	48.6953
	-120.681	48.69418
	-120.6846	48.69458
	-120.6867	48.69517
	-120.6901	48.69555
	-120.6918	48.69609
	-120.6924	48.69627
	-120.6956	48.69687
	-120.6972	48.69738
	-120.6972	48.6974
	-120.699	48.69754
	-120.7011	48.69735
	-120.7033	48.69717
	-120.7041	48.69564
	-120.7059	48.69436
	-120.7073	48.69361
	-120.7075	48.6925
	-120.7083	48.69176
	-120.7119	48.6893
	-120.7119	48.68831
	-120.712	48.68736
	-120.7128	48.686
	-120.7131	48.68466
	-120.7129	48.68214
	-120.7135	48.68123
	-120.715	48.67883
	-120.7178	48.67548
	-120.7187	48.67508
	-120.7188	48.67491
	-120.7189	48.67461
	-120.7182	48.6738
	-120.7191	48.67165
	-120.7173	48.66922
	-120.7173	48.66592
	-120.7168	48.66485
	-120.7203	48.66439
	-120.7214	48.6641
	-120.7215	48.66409
	-120.7217	48.66409
	-120.7233	48.66415
	-120.7279	48.66508
	-120.7303	48.66599
	-120.7307	48.66607
	-120.7328	48.66659
	-120.7339	48.66605
	-120.7364	48.66406
	-120.7368	48.66372
	-120.7388	48.66255
	-120.7413	48.66193
	-120.7439	48.66127
	-120.7447	48.66045
	-120.7476	48.65952
	-120.7484	48.65977
	-120.7489	48.65952
	-120.7501	48.65934
	-120.7506	48.65957
	-120.7512	48.65929
	-120.7511	48.65889
	-120.7509	48.65857
	-120.7512	48.65789
	-120.752	48.65754
	-120.7519	48.65713
	-120.752	48.65657
	-120.7516	48.65565
	-120.7516	48.65499
	-120.7512	48.65469
	-120.7508	48.6549
	-120.7504	48.65413
	-120.7497	48.6537
	-120.7506	48.65336
	-120.7511	48.65286
	-120.7512	48.65239
	-120.7525	48.65185
	-120.7526	48.65049
	-120.7526	48.65015
	-120.7524	48.64865
	-120.753	48.64813
	-120.7531	48.64812
	-120.7533	48.64767
	-120.7538	48.64727
	-120.7582	48.64407
	-120.761	48.64433
	-120.7623	48.64421
	-120.7629	48.64399
	-120.7638	48.6442
	-120.7646	48.64417
	-120.7649	48.64403
	-120.7656	48.64428
	-120.7686	48.64417
	-120.7691	48.644
	-120.7697	48.64337
	-120.7715	48.6427
	-120.7716	48.64238
	-120.7717	48.64219
	-120.7729	48.64128
	-120.7729	48.64113
	-120.7728	48.64047
	-120.7732	48.64015
	-120.7735	48.63956
	-120.7734	48.63836
	-120.7733	48.63766
	-120.7733	48.6375
	-120.7735	48.63721
	-120.7754	48.6369
	-120.7762	48.63679
	-120.7768	48.63651
	-120.7771	48.63639
	-120.7781	48.63453
	-120.7788	48.63416
	-120.7795	48.63191
	-120.7798	48.63076
	-120.7803	48.63044
	-120.7804	48.63042
	-120.781	48.63036
	-120.7818	48.62956
	-120.782	48.62934
	-120.7832	48.62849
	-120.7839	48.62825
	-120.7839	48.62821
	-120.784	48.62801
	-120.7848	48.62765
	-120.7857	48.62729
	-120.786	48.62703
	-120.7868	48.6264
	-120.7877	48.62617
	-120.7879	48.62611
	-120.7882	48.6259
	-120.7885	48.62571
	-120.789	48.62559
	-120.7879	48.62281
	-120.7873	48.62196
	-120.7862	48.62091
	-120.785	48.61907
	-120.7846	48.61877
	-120.7841	48.61848
	-120.7835	48.61647
	-120.7829	48.61542
	-120.7823	48.61407
	-120.782	48.61298
	-120.7827	48.61247
	-120.7832	48.61213
	-120.7848	48.61054
	-120.7852	48.608
	-120.7853	48.60695
	-120.7855	48.6065
	-120.7857	48.60585
	-120.785	48.60384
	-120.7842	48.60259
	-120.7839	48.60215
	-120.7811	48.6005
	-120.778	48.59748
	-120.7765	48.59719
	-120.7755	48.59642
	-120.7735	48.59443
	-120.7739	48.59391
	-120.7732	48.5929
	-120.7726	48.59265
	-120.7715	48.59223
	-120.7694	48.59072
	-120.7684	48.58966
	-120.7684	48.58963
	-120.7663	48.58971
	-120.7656	48.58946
	-120.7657	48.58939
	-120.7658	48.5882
	-120.7646	48.58628
	-120.7626	48.58541
	-120.7625	48.58535
	-120.7601	48.58304
	-120.7589	48.58266
	-120.7589	48.58264
	-120.7583	48.58221
	-120.7564	48.5818
	-120.7553	48.58132
	-120.7552	48.58129
	-120.7547	48.58119
	-120.7522	48.58062
	-120.7495	48.58033
	-120.7487	48.57999
	-120.7478	48.58001
	-120.7472	48.58018
	-120.7471	48.58014
	-120.7466	48.57985
	-120.7463	48.57927
	-120.7455	48.57875
	-120.7446	48.5786
	-120.7422	48.57941
	-120.7349	48.58111
	-120.7309	48.58259
	-120.7308	48.58263
	-120.7307	48.58272
	-120.7303	48.58293
	-120.7298	48.58503
	-120.729	48.58533
	-120.7273	48.58558
	-120.7266	48.5867
	-120.7235	48.5882
	-120.7225	48.58966
	-120.7225	48.59129
	-120.7234	48.593
	-120.7231	48.59393
	-120.7232	48.59445
	-120.7222	48.59581
	-120.7214	48.59696
	-120.7205	48.59654
	-120.7203	48.59646
	-120.7189	48.59681
	-120.7185	48.59675
	-120.7183	48.59608
	-120.7179	48.59529
	-120.717	48.59505
	-120.7161	48.59535
	-120.7149	48.59492
	-120.7147	48.59351
	-120.7114	48.59143
	-120.7096	48.59147
	-120.7073	48.5911
	-120.7047	48.58976
	-120.7032	48.58804
	-120.7032	48.58799
	-120.7022	48.58717
	-120.7013	48.58677
	-120.7011	48.58611
	-120.7007	48.58504
	-120.6988	48.58276
	-120.6985	48.58248
	-120.6984	48.58237
	-120.6975	48.58157
	-120.6965	48.5811
	-120.6963	48.58104
	-120.6963	48.58102
	-120.6953	48.58022
	-120.6929	48.57775
	-120.6925	48.57706
	-120.6922	48.57688
	-120.6901	48.57632
	-120.6886	48.57549
	-120.6882	48.57469
	-120.6879	48.57272
	-120.6867	48.57124
	-120.6857	48.56742
	-120.6854	48.5661
	-120.6879	48.56414
	-120.6883	48.56343
	-120.6893	48.56241
	-120.6902	48.56202
	-120.6908	48.5622
	-120.6921	48.56125
	-120.6921	48.56118
	-120.6923	48.56069
	-120.6941	48.5604
	-120.6944	48.56056
	-120.6961	48.55987
	-120.6986	48.56012
	-120.7002	48.55975
	-120.7006	48.55699
	-120.6999	48.55648
	-120.6997	48.55608
	-120.7006	48.55367
	-120.7007	48.55352
	-120.7015	48.55259
	-120.7019	48.55157
	-120.7022	48.5507
	-120.7026	48.5502
	-120.7034	48.54992
	-120.7041	48.54965
	-120.7053	48.54772
	-120.7049	48.5465
	-120.7047	48.54614
	-120.7077	48.54343
	-120.7089	48.54198
	-120.7083	48.54044
	-120.7072	48.53934
	-120.707	48.53887
	-120.7067	48.53776
	-120.7057	48.53703
	-120.7052	48.53692
	-120.7047	48.53683
	-120.7045	48.53637
	-120.7042	48.53557
	-120.7038	48.53514
	-120.703	48.53437
	-120.7016	48.53247
	-120.7016	48.53159
	-120.7034	48.53079
	-120.7032	48.52928
	-120.7027	48.52844
	-120.7031	48.52676
	-120.7035	48.52649
	-120.7037	48.52648
	-120.7052	48.52632
	-120.7059	48.52598
	-120.7068	48.5251
	-120.7081	48.5241
	-120.7086	48.52369
	-120.7092	48.52372
	-120.7097	48.52357
	-120.711	48.52321
	-120.7149	48.5232
	-120.7165	48.52298
	-120.7171	48.52242
	-120.7211	48.5211
	-120.7222	48.52053
	-120.7245	48.5193
	-120.728	48.51802
	-120.731	48.51784
	-120.731	48.5185
	-120.7318	48.51979
	-120.7318	48.51982
	-120.7327	48.52019
	-120.7328	48.52019
	-120.7336	48.52013
	-120.7337	48.52011
	-120.7346	48.51951
	-120.7346	48.51947
	-120.7351	48.51852
	-120.7351	48.51818
	-120.7365	48.51839
	-120.741	48.5185
	-120.7453	48.51806
	-120.7483	48.51666
	-120.7512	48.51502
	-120.7518	48.51449
	-120.752	48.51364
	-120.7522	48.5133
	-120.7526	48.51277
	-120.7528	48.51244
	-120.7542	48.51172
	-120.7561	48.51133
	-120.7563	48.51127
	-120.7565	48.51126
	-120.7585	48.51108
	-120.7635	48.50902
	-120.7671	48.5082
	-120.7687	48.50825
	-120.7703	48.50776
	-120.7739	48.50755
	-120.7756	48.50784
	-120.7799	48.50808
	-120.7813	48.50839
	-120.7821	48.50827
	-120.784	48.50739
	-120.7851	48.50735
	-120.7877	48.50645
	-120.7886	48.50645
	-120.7957	48.50871
	-120.7966	48.50936
	-120.7977	48.50939
	-120.7992	48.50976
	-120.8033	48.51134
	-120.804	48.51289
	-120.8048	48.51313
	-120.8065	48.51317
	-120.8086	48.51401
	-120.8101	48.5148
	-120.8108	48.51686
	-120.8132	48.51752
	-120.8159	48.51829
	-120.817	48.51905
	-120.8173	48.51928
	-120.8175	48.51946
	-120.8179	48.52003
	-120.8178	48.52063
	-120.817	48.52314
	-120.8158	48.52329
	-120.8146	48.52364
	-120.8143	48.52475
	-120.8143	48.52495
	-120.8129	48.52575
	-120.8121	48.52673
	-120.811	48.52732
	-120.8101	48.52776
	-120.8099	48.52794
	-120.8095	48.52823
	-120.8094	48.52957
	-120.8096	48.52988
	-120.8101	48.53048
	-120.8117	48.53135
	-120.8121	48.532
	-120.8149	48.53335
	-120.8159	48.53426
	-120.8164	48.53461
	-120.8164	48.53526
	-120.8168	48.53601
	-120.8157	48.53669
	-120.8161	48.53703
	-120.817	48.5377
	-120.8191	48.53856
	-120.8224	48.53953
	-120.8252	48.54072
	-120.8256	48.54131
	-120.8258	48.54158
	-120.8258	48.54203
	-120.8253	48.54239
	-120.8253	48.54253
	-120.8256	48.54335
	-120.8253	48.54397
	-120.8253	48.54402
	-120.824	48.54515
	-120.8247	48.54525
	-120.8248	48.54535
	-120.8251	48.54557
	-120.8264	48.54585
	-120.8278	48.54636
	-120.8285	48.5466
	-120.8302	48.54769
	-120.8304	48.54785
	-120.8318	48.54774
	-120.8329	48.54812
	-120.8347	48.54825
	-120.8355	48.54869
	-120.8366	48.54881
	-120.8372	48.54948
	-120.8373	48.54971
	-120.8373	48.55027
	-120.838	48.55064
	-120.8389	48.55072
	-120.8396	48.55041
	-120.8398	48.55028
	-120.841	48.55003
	-120.8421	48.55018
	-120.8438	48.55016
	-120.8444	48.54963
	-120.8445	48.54945
	-120.8448	48.54864
	-120.8451	48.5484
	-120.8451	48.54832
	-120.8457	48.54813
	-120.8469	48.54802
	-120.8482	48.54838
	-120.8495	48.54824
	-120.8504	48.54793
	-120.8509	48.54777
	-120.8517	48.54797
	-120.8528	48.54822
	-120.8541	48.54876
	-120.8558	48.54852
	-120.8571	48.54875
	-120.8576	48.54845
	-120.8582	48.54721
	-120.8589	48.54588
	-120.8592	48.54575
	-120.8606	48.54501
	-120.8604	48.54463
	-120.8608	48.54427
	-120.8611	48.543
	-120.8612	48.54229
	-120.8606	48.5406
	-120.8597	48.53967
	-120.8594	48.53934
	-120.8587	48.53925
	-120.8576	48.5379
	-120.8575	48.53691
	-120.8582	48.53646
	-120.8582	48.53625
	-120.8584	48.5356
	-120.8586	48.5354
	-120.8588	48.53523
	-120.8606	48.53476
	-120.8618	48.53423
	-120.862	48.53376
	-120.8619	48.53348
	-120.8616	48.53303
	-120.862	48.5328
	-120.8619	48.5318
	-120.8623	48.53134
	-120.8629	48.5307
	-120.8628	48.53059
	-120.8626	48.53032
	-120.8628	48.52999
	-120.8635	48.52989
	-120.8663	48.5304
	-120.8721	48.53093
	-120.8723	48.53109
	-120.8731	48.53183
	-120.8734	48.5326
	-120.8746	48.53368
	-120.875	48.5344
	-120.8754	48.53502
	-120.88	48.53589
	-120.8808	48.53632
	-120.8814	48.53696
	-120.8835	48.53716
	-120.8842	48.53782
	-120.8849	48.53808
	-120.886	48.53815
	-120.8864	48.53784
	-120.8867	48.53765
	-120.8872	48.53695
	-120.8883	48.53636
	-120.8902	48.53647
	-120.8921	48.53639
	-120.8949	48.53566
	-120.8964	48.53464
	-120.8969	48.534
	-120.8978	48.53364
	-120.8994	48.53249
	-120.9002	48.53238
	-120.9025	48.53346
	-120.9034	48.53354
	-120.9041	48.53329
	-120.9044	48.53233
	-120.9045	48.53187
	-120.9044	48.53099
	-120.9043	48.53043
	-120.9034	48.52882
	-120.9031	48.52814
	-120.9022	48.52576
	-120.9036	48.52372
	-120.9039	48.52331
	-120.9045	48.52346
	-120.9055	48.52326
	-120.9077	48.52364
	-120.9089	48.52414
	-120.9091	48.52425
	-120.9102	48.52394
	-120.9158	48.5241
	-120.917	48.52437
	-120.9192	48.52417
	-120.9211	48.52435
	-120.924	48.52531
	-120.9256	48.52548
	-120.927	48.52606
	-120.9284	48.52618
	-120.9295	48.52657
	-120.9295	48.52662
	-120.9302	48.52747
	-120.9307	48.5276
	-120.9326	48.52818
	-120.934	48.52889
	-120.9349	48.52929
	-120.937	48.52962
	-120.938	48.53007
	-120.9381	48.53033
	-120.9382	48.53052
	-120.9387	48.53067
	-120.9395	48.53069
	-120.9427	48.52976
	-120.9458	48.5302
	-120.947	48.53004
	-120.9483	48.53001
	-120.9499	48.52999
	-120.9505	48.52965
	-120.951	48.52942
	-120.9509	48.52833
	-120.9509	48.52757
	-120.9513	48.52609
	-120.9517	48.52573
	-120.9523	48.5251
	-120.9534	48.52438
	-120.9546	48.52252
	-120.9553	48.52196
	-120.9525	48.51894
	-120.9522	48.51812
	-120.9509	48.51699
	-120.95	48.51587
	-120.9493	48.51508
	-120.9501	48.5142
	-120.9502	48.5137
	-120.9503	48.51307
	-120.9497	48.51125
	-120.9493	48.51018
	-120.9488	48.50967
	-120.9481	48.50915
	-120.9481	48.50834
	-120.9487	48.50766
	-120.9487	48.5076
	-120.9482	48.50633
	-120.9484	48.50589
	-120.9491	48.50457
	-120.9493	48.50303
	-120.9494	48.50289
	-120.9495	48.5027
	-120.9499	48.50211
	-120.9501	48.50115
	-120.9506	48.50047
	-120.9507	48.49895
	-120.9517	48.49865
	-120.9528	48.49855
	-120.9541	48.49905
	-120.9542	48.49923
	-120.9543	48.49985
	-120.9545	48.50016
	-120.9547	48.50036
	-120.9552	48.5005
	-120.9575	48.50108
	-120.9579	48.50091
	-120.9582	48.50081
	-120.9598	48.50065
	-120.962	48.49933
	-120.9629	48.49875
	-120.9651	48.49835
	-120.9674	48.49875
	-120.9683	48.49935
	-120.969	48.49945
	-120.9716	48.49915
	-120.9729	48.49985
	-120.9734	48.50037
	-120.9752	48.49945
	-120.9762	48.50021
	-120.9766	48.49985
	-120.9777	48.49945
	-120.9842	48.49875
	-120.9851	48.49805
	-120.9866	48.49785
	-120.9904	48.49825
	-120.9914	48.49895
	-120.9924	48.49905
	-120.9934	48.4984
	-120.9942	48.49785
	-120.9964	48.49705
	-120.998	48.49495
	-120.9994	48.49455
	-121.0003	48.49445
	-121.0012	48.4944
	-121.0018	48.49465
	-121.0038	48.49475
	-121.0048	48.49425
	-121.0073	48.49435
	-121.0076	48.49421
	-121.008	48.49405
	-121.0089	48.49395
	-121.0114	48.49435
	-121.0127	48.49425
	-121.013	48.49431
	-121.014	48.49455
	-121.018	48.49425
	-121.0201	48.49505
	-121.023	48.49535
	-121.0269	48.49505
	-121.028	48.49505
	-121.0289	48.49525
	-121.0312	48.49505
	-121.0318	48.49515
	-121.0348	48.49505
	-121.0358	48.49475
	-121.0361	48.4945
	-121.0362	48.49445
	-121.0364	48.49405
	-121.0363	48.49325
	-121.0369	48.49265
	-121.0373	48.49244
	-121.0378	48.4922
	-121.0378	48.49219
	-121.0379	48.49215
	-121.0384	48.4915
	-121.0386	48.49115
	-121.0393	48.49085
	-121.0409	48.49055
	-121.0412	48.49041
	-121.0416	48.49015
	-121.0423	48.49015
	-121.0427	48.48945
	-121.0438	48.48905
	-121.0439	48.48898
	-121.0444	48.48845
	-121.0459	48.48744
	-121.0462	48.48725
	-121.0484	48.48625
	-121.0513	48.48276
	-121.0526	48.48115
	-121.0534	48.48052
	-121.0551	48.47925
	-121.0559	48.4783
	-121.0567	48.47725
	-121.0568	48.47645
	-121.0571	48.47455
	-121.0566	48.47335
	-121.0565	48.47321
	-121.055	48.47205
	-121.0556	48.47165
	-121.0565	48.46985
	-121.058	48.46859
	-121.0598	48.46705
	-121.0601	48.46625
	-121.0606	48.46505
	-121.0603	48.46475
	-121.0605	48.46245
	-121.0614	48.46165
	-121.0618	48.46075
	-121.0625	48.46034
	-121.0631	48.45995
	-121.0631	48.45976
	-121.063	48.45965
	-121.062	48.45945
	-121.061	48.45835
	-121.0611	48.45768
	-121.0611	48.45705
	-121.0609	48.45669
	-121.0608	48.45665
	-121.0607	48.45555
	-121.0602	48.45465
	-121.06	48.45375
	-121.0599	48.45359
	-121.0596	48.45325
	-121.0591	48.45315
	-121.0588	48.45255
	-121.0583	48.45255
	-121.0579	48.45215
	-121.0575	48.45215
	-121.0574	48.45206
	-121.0571	48.45185
	-121.0563	48.45165
	-121.0558	48.45155
	-121.0558	48.45127
	-121.0555	48.45035
	-121.0549	48.45005
	-121.0542	48.44995
	-121.0532	48.44905
	-121.0527	48.44895
	-121.0523	48.44865
	-121.0515	48.44895
	-121.0504	48.44805
	-121.0496	48.44805
	-121.0492	48.44775
	-121.0479	48.44725
	-121.047	48.44725
	-121.0466	48.44779
	-121.0465	48.44785
	-121.0456	48.44815
	-121.0449	48.44804
	-121.0442	48.44795
	-121.0439	48.44766
	-121.0436	48.44745
	-121.0425	48.44712
	-121.0422	48.44705
	-121.0406	48.44575
	-121.0406	48.44523
	-121.0405	48.44495
	-121.0402	48.44485
	-121.0401	48.44455
	-121.0407	48.44345
	-121.0407	48.44295
	-121.0405	48.44234
	-121.0397	48.44164
	-121.0393	48.44135
	-121.0392	48.44112
	-121.039	48.44085
	-121.0392	48.43995
	-121.039	48.43985
	-121.0387	48.43895
	-121.0376	48.43815
	-121.0381	48.43719
	-121.0385	48.43635
	-121.0386	48.43606
	-121.0386	48.43565
	-121.0385	48.43493
	-121.0384	48.43475
	-121.0374	48.43382
	-121.0372	48.43365
	-121.037	48.43325
	-121.0373	48.43245
	-121.0375	48.43232
	-121.0377	48.43213
	-121.0387	48.43135
	-121.0397	48.43105
	-121.0418	48.43075
	-121.0419	48.43063
	-121.0421	48.43045
	-121.0422	48.4295
	-121.0422	48.42805
	-121.0429	48.42705
	-121.043	48.42695
	-121.0433	48.42591
	-121.0439	48.42355
	-121.0448	48.42245
	-121.045	48.42155
	-121.0453	48.42115
	-121.0453	48.42015
	-121.0457	48.41981
	-121.0459	48.41955
	-121.0461	48.41885
	-121.0454	48.41855
	-121.0445	48.41635
	-121.044	48.41605
	-121.0437	48.41505
	-121.0432	48.41425
	-121.0426	48.41375
	-121.042	48.41211
	-121.0415	48.41105
	-121.0419	48.41105
	-121.0423	48.41075
	-121.0438	48.41055
	-121.0462	48.41045
	-121.0478	48.41065
	-121.0484	48.41055
	-121.0496	48.41142
	-121.0496	48.41145
	-121.0507	48.41165
	-121.0508	48.41168
	-121.0517	48.41205
	-121.0528	48.41215
	-121.0546	48.41265
	-121.056	48.41245
	-121.0562	48.41187
	-121.0562	48.41165
	-121.0571	48.41015
	-121.0576	48.40985
	-121.0579	48.40985
	-121.06	48.40725
	-121.0616	48.40615
	-121.062	48.40605
	-121.0621	48.40596
	-121.0622	48.40575
	-121.0622	48.40425
	-121.0624	48.40381
	-121.0626	48.40345
	-121.0622	48.40175
	-121.0623	48.40146
	-121.0623	48.40115
	-121.0632	48.40085
	-121.065	48.39895
	-121.0651	48.39805
	-121.0649	48.39749
	-121.0646	48.39685
	-121.0647	48.39645
	-121.0651	48.39615
	-121.0651	48.39549
	-121.0663	48.39305
	-121.0662	48.39235
	-121.066	48.39209
	-121.0653	48.39135
	-121.0648	48.39095
	-121.0637	48.39055
	-121.0632	48.38965
	-121.0627	48.38945
	-121.0619	48.38915
	-121.0611	48.38867
	-121.0602	48.38815
	-121.0594	48.38715
	-121.0592	48.38575
	-121.0589	48.38545
	-121.0585	48.38365
	-121.0585	48.38273
	-121.0584	48.38225
	-121.059	48.38165
	-121.0606	48.38075
	-121.0617	48.37965
	-121.0617	48.37905
	-121.0611	48.37895
	-121.0608	48.37905
	-121.0596	48.37772
	-121.059	48.37715
	-121.0581	48.37705
	-121.0566	48.37628
	-121.0557	48.37585
	-121.0548	48.37525
	-121.0547	48.37485
	-121.0541	48.37435
	-121.0527	48.37375
	-121.0521	48.37265
	-121.0513	48.37175
	-121.0511	48.37163
	-121.0496	48.37065
	-121.0491	48.37015
	-121.0468	48.36645
	-121.0458	48.36595
	-121.0457	48.36579
	-121.0455	48.36555
	-121.0453	48.36565
	-121.0452	48.36556
	-121.045	48.36545
	-121.0432	48.36375
	-121.0431	48.36335
	-121.043	48.36275
	-121.0419	48.36045
	-121.0417	48.36035
	-121.0418	48.35988
	-121.0419	48.35855
	-121.0413	48.35732
	-121.0408	48.35645
	-121.0413	48.35525
	-121.0422	48.35385
	-121.0422	48.35359
	-121.0419	48.35145
	-121.0413	48.35051
	-121.0408	48.34985
	-121.0406	48.34815
	-121.0423	48.34625
	-121.0432	48.34584
	-121.0456	48.34614
	-121.0464	48.34598
	-121.0468	48.34588
	-121.0474	48.34575
	-121.0479	48.34585
	-121.0503	48.34575
	-121.0503	48.34574
	-121.0526	48.34505
	-121.0538	48.34515
	-121.0544	48.34555
	-121.0545	48.34565
	-121.0561	48.34595
	-121.0572	48.34635
	-121.0583	48.34645
	-121.0592	48.34685
	-121.06	48.34685
	-121.0602	48.34676
	-121.0607	48.34645
	-121.0623	48.34475
	-121.0629	48.34437
	-121.0636	48.34395
	-121.0647	48.34205
	-121.0652	48.33925
	-121.0658	48.33844
	-121.0659	48.33825
	-121.067	48.33834
	-121.0674	48.33848
	-121.0683	48.33884
	-121.0694	48.33895
	-121.07	48.33655
	-121.0696	48.33494
	-121.07	48.33364
	-121.0706	48.33344
	-121.0708	48.33315
	-121.0708	48.33256
	-121.0707	48.33205
	-121.0704	48.33125
	-121.0701	48.33088
	-121.0697	48.33044
	-121.0679	48.32996
	-121.0674	48.32984
	-121.0673	48.32974
	-121.0667	48.32935
	-121.0665	48.32888
	-121.0664	48.32854
	-121.0662	48.32833
	-121.0659	48.32814
	-121.0662	48.32728
	-121.066	48.32605
	-121.0664	48.32545
	-121.0663	48.32518
	-121.0665	48.32485
	-121.0675	48.32444
	-121.0681	48.32394
	-121.0699	48.32335
	-121.0701	48.32294
	-121.0701	48.32262
	-121.0707	48.32214
	-121.0707	48.31947
	-121.0701	48.31709
	-121.0699	48.31654
	-121.0672	48.31504
	-121.0655	48.31515
	-121.0645	48.31504
	-121.063	48.31584
	-121.0628	48.3159
	-121.0607	48.31634
	-121.0594	48.31634
	-121.0591	48.31621
	-121.0589	48.31614
	-121.0581	48.31612
	-121.0567	48.31567
	-121.0539	48.31397
	-121.0528	48.31293
	-121.0494	48.31182
	-121.0486	48.3114
	-121.0473	48.3099
	-121.0466	48.30912
	-121.0449	48.30869
	-121.0437	48.3082
	-121.043	48.30839
	-121.0416	48.3082
	-121.0401	48.30757
	-121.0393	48.30571
	-121.0391	48.30508
	-121.0387	48.3045
	-121.0383	48.30404
	-121.039	48.30291
	-121.039	48.30198
	-121.0385	48.30128
	-121.0385	48.30085
	-121.037	48.30048
	-121.0347	48.30084
	-121.0307	48.3024
	-121.0301	48.30251
	-121.0298	48.30231
	-121.0291	48.30219
	-121.0282	48.30279
	-121.0269	48.30301
	-121.0264	48.30285
	-121.0257	48.30318
	-121.0248	48.3031
	-121.024	48.30298
	-121.0232	48.30251
	-121.0228	48.30224
	-121.02	48.30191
	-121.0194	48.30183
	-121.019	48.30169
	-121.0184	48.30152
	-121.0166	48.30145
	-121.016	48.30112
	-121.0158	48.30105
	-121.0144	48.30075
	-121.0142	48.30079
	-121.014	48.30085
	-121.012	48.30075
	-121.0107	48.30015
	-121.0061	48.29995
	-121.0049	48.29945
	-121.0034	48.29923
	-121.0032	48.29915
	-121.0028	48.29855
	-121.0028	48.29844
	-121.0029	48.29805
	-121.0025	48.29685
	-121.0014	48.29555
	-121.5779	48.2973
	-121.5779	48.29777
	-121.5974	48.29776
	-121.6113	48.29777
	-121.6132	48.29776
	-121.6647	48.29774
	-121.9947	48.29764
	-121.9952	48.29929
	-121.9955	48.29945
	-121.9958	48.29971
	-121.9966	48.30015
	-121.9975	48.30036
	-121.9978	48.30041
	-121.9987	48.30046
	-121.9989	48.30048
	-121.9992	48.30047
	-122.0003	48.30036
	-122.0013	48.30003
	-122.0015	48.29989
	-122.0023	48.2988
	-122.0023	48.29865
	-122.0022	48.29763
	-122.3027	48.29754
	-122.3027	48.29757
	-122.3047	48.29957
	-122.3206	48.29953
	-122.3235	48.29954
	-122.3247	48.29953
	-122.3274	48.29958
	-122.3322	48.29952
	-122.3355	48.29951
	-122.3374	48.29755
	-122.4314	48.29764
	-122.4148	48.27369
	-122.4013	48.25448
	-122.3996	48.25301
	-122.3985	48.25181
	-122.3972	48.25044
	-122.3951	48.24842
	-122.3926	48.24545
	-122.3904	48.24407
	-122.3842	48.24101
	-122.3826	48.23969
	-122.3808	48.23882
	-122.3795	48.23832
	-122.3774	48.23822
	-122.3769	48.23759
	-122.3763	48.23439
	-122.3765	48.23342
	-122.3779	48.23209
	-122.3819	48.23076
	-122.384	48.22823
	-122.3866	48.22453
	-122.3947	48.22236
	-122.4019	48.21743
	-122.4039	48.21451
	-122.4056	48.21188
	-122.4072	48.20985
	-122.4111	48.20508
	-122.4119	48.20407
	-122.4126	48.20282
	-122.4138	48.201
	-122.4147	48.19927
	-122.4156	48.19659
	-122.4164	48.19339
	-122.4177	48.18592
	-122.4179	48.18266
	-122.418	48.17383
	-122.4179	48.17062
	-122.4175	48.16774
	-122.4169	48.1654
	-122.4168	48.16446
	-122.4164	48.16277
	-122.4156	48.16009
	-122.4148	48.15725
	-122.4141	48.15514
	-122.4128	48.15233
	-122.4114	48.14976
	-122.4097	48.14691
	-122.4079	48.14404
	-122.4062	48.14174
	-122.4056	48.14099
	-122.4032	48.13759
	-122.4006	48.13474
	-122.3958	48.12938
	-122.3906	48.12362
	-122.3874	48.12031
	-122.3856	48.11824
	-122.3844	48.11677
	-122.3827	48.11474
	-122.3807	48.11207
	-122.3788	48.10994
	-122.3771	48.10815
	-122.3756	48.10693
	-122.3731	48.10495
	-122.3697	48.10251
	-122.3651	48.09864
	-122.363	48.09646
	-122.3605	48.09349
	-122.3585	48.09131
	-122.3579	48.09048
	-122.3566	48.08875
	-122.3545	48.08612
	-122.3524	48.08339
	-122.3521	48.08292
	-122.3503	48.08031
	-122.3464	48.07258
	-122.3455	48.0702
	-122.3453	48.06971
	-122.3436	48.06604
	-122.3425	48.0633
	-122.3416	48.06016
	-122.3407	48.05676
	-122.3402	48.0543
	-122.3394	48.04978
	-122.3394	48.04948
	-122.3396	48.04769
	-122.34	48.04477
	-122.3404	48.04302
	-122.3409	48.04171
	-122.3432	48.0363
	-122.3445	48.03366
	-122.3469	48.02938
	-122.3483	48.02625
	-122.3531	48.01701
	-122.3508	48.00693
	-122.3447	47.99752
	-122.34	47.99044
	-122.3374	47.98667
	-122.3343	47.98172
	-122.333	47.9788
	-122.3321	47.97689
	-122.3315	47.97578
	-122.3305	47.97322
	-122.3294	47.96969
	-122.3287	47.96622
	-122.3285	47.96376
	-122.3287	47.9619
	-122.3297	47.95394
	-122.3304	47.94772
	-122.3306	47.94696
	-122.3312	47.94407
	-122.3333	47.93322
	-122.3335	47.93301
	-122.3358	47.92872
	-122.3432	47.92132
	-122.3476	47.91623
	-122.3488	47.91472
	-122.3495	47.91184
	-122.398	47.86162
	-122.3984	47.86132
	-122.412	47.85062
	-122.4229	47.83852
	-122.4295	47.82761
	-122.4381	47.81745
	-122.4405	47.80312
	-122.441	47.79855
	-122.4422	47.78562
	-122.4426	47.77819
	-122.4392	47.75986
	-122.432	47.73412
	-122.4322	47.73255
	-122.4328	47.73159
	-122.4329	47.73128
	-122.4333	47.73058
	-122.4336	47.72945
	-122.4341	47.72796
	-122.4348	47.72492
	-122.4352	47.72154
	-122.4359	47.71747
	-122.4366	47.71453
	-122.4386	47.71196
	-122.4412	47.71007
	-122.442	47.70946
	-122.4442	47.70784
	-122.4449	47.70723
	-122.4453	47.70691
	-122.4462	47.70568
	-122.448	47.70271
	-122.4499	47.6995
	-122.4509	47.6975
	-122.4529	47.69389
	-122.4559	47.68825
	-122.4563	47.68764
	-122.4572	47.68606
	-122.4582	47.68408
	-122.4583	47.68377
	-122.4586	47.68311
	-122.4589	47.68232
	-122.4592	47.68064
	-122.4593	47.67977
	-122.4595	47.67762
	-122.4597	47.6762
	-122.4597	47.67427
	-122.4596	47.6727
	-122.4596	47.66954
	-122.4586	47.66438
	-122.4582	47.66334
	-122.4578	47.66197
	-122.4571	47.66001
	-122.4564	47.65841
	-122.4559	47.65715
	-122.4555	47.65584
	-122.455	47.65461
	-122.4546	47.65349
	-122.4544	47.65266
	-122.4541	47.6522
	-122.454	47.65082
	-122.4536	47.64924
	-122.4533	47.64731
	-122.4531	47.64627
	-122.4528	47.64402
	-122.4526	47.64208
	-122.4526	47.63811
	-122.4527	47.63635
	-122.4529	47.63492
	-122.4532	47.63367
	-122.4535	47.63263
	-122.4539	47.63139
	-122.4542	47.63025
	-122.4543	47.62963
	-122.4545	47.62911
	-122.4547	47.62797
	-122.4548	47.62709
	-122.4548	47.6262
	-122.4529	47.62266
	-122.4495	47.61765
	-122.4477	47.61476
	-122.4468	47.59813
	-122.4502	47.58852
	-122.4537	47.57729
	-122.4538	47.57703
	-122.454	47.57661
	-122.454	47.57643
	-122.4546	47.57457
	-122.4544	47.5745
	-122.4548	47.57336
	-122.4546	47.57223
	-122.4542	47.57106
	-122.4534	47.56956
	-122.4525	47.5684
	-122.4516	47.56741
	-122.4507	47.56624
	-122.4497	47.56462
	-122.4486	47.56298
	-122.4481	47.5621
	-122.4473	47.56091
	-122.446	47.55889
	-122.4452	47.55744
	-122.4449	47.55644
	-122.4446	47.55576
	-122.4444	47.55402
	-122.4444	47.55267
	-122.4448	47.54743
	-122.4451	47.54458
	-122.4455	47.54289
	-122.446	47.54189
	-122.4461	47.54163
	-122.4476	47.5403
	-122.4501	47.53868
	-122.4533	47.53657
	-122.4546	47.5356
	-122.4575	47.52226
	-122.4634	47.51968
	-122.4738	47.51827
	-122.485	47.51403
	-122.4872	47.50897
	-122.4902	47.50345
	-122.4944	47.49501
	-122.5032	47.48611
	-122.509	47.4781
	-122.5147	47.47134
	-122.5216	47.46397
	-122.5215	47.45565
	-122.525	47.44777
	-122.5242	47.43929
	-122.5237	47.42987
	-122.5255	47.42167
	-122.53	47.41387
	-122.5369	47.40586
	-122.5383	47.40254
	-122.5399	47.3986
	-122.5393	47.38992
	-122.5287	47.38016
	-122.5282	47.37195
	-122.5368	47.36258
	-122.5419	47.35438
	-122.5431	47.34426
	-122.541	47.33746
	-122.5336	47.33198
	-122.5333	47.33163
	-122.5297	47.32815
	-122.5255	47.3248
	-122.523	47.32344
	-122.5196	47.32221
	-122.5106	47.31998
	-122.5063	47.31965
	-122.4854	47.32278
	-122.4775	47.32648
	-122.4636	47.33311
	-122.4363	47.33583
	-122.4241	47.32561
	-122.4169	47.32017
	-122.4137	47.31782
	-122.4053	47.31185
	-122.4045	47.31125
	-122.3977	47.30651
	-122.395	47.3047
	-122.3938	47.30388
	-122.3781	47.29298
	-122.3757	47.29376
	-122.3748	47.29299
	-122.3747	47.29292
	-122.3744	47.29187
	-122.3744	47.29148
	-122.3745	47.29148
	-122.3744	47.29094
	-122.3743	47.29093
	-122.3743	47.29039
	-122.3717	47.28856
	-122.3585	47.27942
	-122.3557	47.27746
	-122.3351	47.26335
	-122.335	47.25742
	-122.306	47.2573
	-122.304	47.25929
	-122.3022	47.25928
	-122.3013	47.25932
	-122.299	47.25932
	-122.2988	47.2593
	-122.2985	47.25924
	-122.2984	47.25923
	-122.2983	47.25917
	-122.2982	47.25916
	-122.2981	47.25911
	-122.2981	47.2591
	-122.2979	47.25903
	-122.2979	47.25901
	-122.2977	47.25884
	-122.2976	47.25882
	-122.2974	47.25863
	-122.2974	47.25726
	-122.295	47.25725
	-122.2898	47.25725
	-122.2878	47.2592
	-122.287	47.25921
	-122.2863	47.25923
	-122.286	47.25925
	-122.2831	47.25926
	-122.2823	47.25928
	-122.2823	47.25905
	-122.2818	47.25907
	-122.2818	47.25931
	-122.2817	47.2593
	-122.281	47.25929
	-122.2753	47.2593
	-122.2741	47.25935
	-122.2738	47.25935
	-122.2733	47.25931
	-122.2724	47.25933
	-122.2722	47.25932
	-122.2718	47.25928
	-122.2717	47.25924
	-122.2711	47.2591
	-122.2709	47.25906
	-122.2708	47.25906
	-122.2706	47.25907
	-122.2683	47.25934
	-122.267	47.25948
	-122.2648	47.25769
	-122.2651	47.25727
	-122.2525	47.25728
	-122.2298	47.2576
	-122.217	47.25758
	-122.2165	47.2566
	-122.2166	47.25655
	-122.2165	47.25643
	-122.2163	47.2563
	-122.2163	47.25621
	-122.2162	47.25617
	-122.2159	47.25592
	-122.2154	47.25568
	-122.2154	47.25566
	-122.215	47.25557
	-122.2146	47.25554
	-122.2142	47.25554
	-122.2138	47.25557
	-122.2138	47.25558
	-122.2135	47.25564
	-122.2131	47.25579
	-122.2131	47.25581
	-122.2125	47.25625
	-122.2125	47.2563
	-122.2121	47.25687
	-122.212	47.25728
	-122.212	47.25733
	-122.2119	47.25758
	-122.1678	47.25752
	-122.1445	47.2574
	-122.1422	47.25659
	-122.1406	47.25604
	-122.1402	47.25556
	-122.14	47.25508
	-122.1393	47.2544
	-122.1384	47.25398
	-122.1375	47.25376
	-122.135	47.25334
	-122.1346	47.25282
	-122.1345	47.25222
	-122.1351	47.25141
	-122.139	47.24701
	-122.1386	47.24639
	-122.1377	47.24616
	-122.136	47.24598
	-122.1354	47.24579
	-122.1349	47.24521
	-122.1353	47.24356
	-122.1342	47.24252
	-122.1327	47.24233
	-122.1315	47.24236
	-122.1302	47.24242
	-122.1287	47.24302
	-122.1277	47.2431
	-122.127	47.24283
	-122.1267	47.24237
	-122.1264	47.24171
	-122.1256	47.24084
	-122.1242	47.24003
	-122.1237	47.23938
	-122.1231	47.23909
	-122.1225	47.23893
	-122.122	47.2386
	-122.1211	47.23771
	-122.1203	47.237
	-122.1189	47.23636
	-122.1182	47.23582
	-122.117	47.23508
	-122.1168	47.23469
	-122.1172	47.23359
	-122.1169	47.23321
	-122.1164	47.23287
	-122.116	47.23245
	-122.1159	47.232
	-122.1158	47.23099
	-122.1158	47.22966
	-122.1155	47.22839
	-122.1147	47.22743
	-122.1139	47.22657
	-122.1135	47.22598
	-122.1129	47.22586
	-122.1126	47.22555
	-122.1125	47.22517
	-122.1127	47.22473
	-122.1135	47.22438
	-122.1138	47.2241
	-122.114	47.22369
	-122.1139	47.2231
	-122.1136	47.22245
	-122.1133	47.22212
	-122.1131	47.22181
	-122.1131	47.2215
	-122.1133	47.22099
	-122.1135	47.22021
	-122.1136	47.21966
	-122.1136	47.21884
	-122.1135	47.21667
	-122.1131	47.21588
	-122.1131	47.21542
	-122.1132	47.21496
	-122.1137	47.2144
	-122.1138	47.214
	-122.1138	47.2136
	-122.1136	47.21326
	-122.1133	47.21295
	-122.1128	47.21258
	-122.1121	47.21251
	-122.1113	47.21251
	-122.1107	47.21233
	-122.1097	47.21186
	-122.1081	47.21104
	-122.1075	47.21065
	-122.1068	47.20944
	-122.107	47.20888
	-122.1071	47.2083
	-122.107	47.20787
	-122.1067	47.20734
	-122.1062	47.20686
	-122.1046	47.20557
	-122.1038	47.20472
	-122.1035	47.20395
	-122.1035	47.20265
	-122.1037	47.20219
	-122.1041	47.20173
	-122.1042	47.20134
	-122.104	47.20105
	-122.1037	47.2008
	-122.1028	47.20047
	-122.102	47.20046
	-122.1012	47.20029
	-122.0986	47.19944
	-122.0973	47.19935
	-122.0968	47.19927
	-122.0963	47.19915
	-122.0959	47.19887
	-122.0955	47.19852
	-122.0944	47.19751
	-122.0933	47.19632
	-122.093	47.19586
	-122.0929	47.19545
	-122.0926	47.19459
	-122.0923	47.19416
	-122.0919	47.1939
	-122.0911	47.1938
	-122.0881	47.19372
	-122.0855	47.19326
	-122.0835	47.19246
	-122.0829	47.19206
	-122.0825	47.1915
	-122.082	47.19046
	-122.0816	47.18973
	-122.0811	47.18921
	-122.0804	47.18879
	-122.0795	47.18882
	-122.0776	47.18943
	-122.0765	47.18938
	-122.0753	47.18903
	-122.0743	47.18843
	-122.0731	47.18805
	-122.0709	47.18785
	-122.0685	47.1878
	-122.0672	47.18744
	-122.0644	47.18676
	-122.0639	47.18659
	-122.0634	47.18627
	-122.0632	47.18585
	-122.0631	47.18538
	-122.063	47.18465
	-122.063	47.18396
	-122.0624	47.18318
	-122.0618	47.18268
	-122.0603	47.18216
	-122.0592	47.18159
	-122.0579	47.18074
	-122.0575	47.18009
	-122.0572	47.17955
	-122.0564	47.1787
	-122.0559	47.17832
	-122.0545	47.17772
	-122.0541	47.17738
	-122.0539	47.1769
	-122.0538	47.17586
	-122.0538	47.17549
	-122.0535	47.1751
	-122.0524	47.17449
	-122.0511	47.174
	-122.0501	47.1733
	-122.0498	47.17242
	-122.0495	47.17183
	-122.0491	47.17138
	-122.0487	47.17119
	-122.0481	47.17134
	-122.0466	47.17252
	-122.0458	47.17265
	-122.0449	47.17241
	-122.0442	47.17203
	-122.0437	47.17166
	-122.0431	47.17125
	-122.0422	47.17086
	-122.0411	47.17087
	-122.0401	47.17123
	-122.0396	47.17165
	-122.0391	47.17235
	-122.0384	47.17294
	-122.0372	47.17334
	-122.034	47.17419
	-122.0315	47.175
	-122.0306	47.17516
	-122.0294	47.17504
	-122.028	47.17462
	-122.0264	47.1743
	-122.0245	47.17427
	-122.0221	47.17402
	-122.0201	47.17447
	-122.0185	47.17472
	-122.0166	47.17488
	-122.0143	47.17536
	-122.0123	47.17581
	-122.0114	47.17594
	-122.0103	47.17584
	-122.0098	47.17566
	-122.0093	47.17543
	-122.0087	47.17506
	-122.0083	47.17463
	-122.008	47.17407
	-122.0077	47.17241
	-122.0076	47.17197
	-122.0073	47.17162
	-122.0069	47.17124
	-122.0063	47.17087
	-122.0039	47.16994
	-122.0025	47.16971
	-122.0011	47.16969
	-122.0003	47.17002
	-121.9996	47.17055
	-121.999	47.17113
	-121.9981	47.17156
	-121.9967	47.17214
	-121.9958	47.1723
	-121.9949	47.17231
	-121.9945	47.17193
	-121.9944	47.17126
	-121.9943	47.17012
	-121.9938	47.16759
	-121.993	47.16547
	-121.9919	47.16428
	-121.9906	47.16406
	-121.9886	47.16389
	-121.987	47.16378
	-121.9862	47.16378
	-121.9856	47.16397
	-121.9843	47.16461
	-121.9834	47.16484
	-121.9822	47.16489
	-121.9809	47.16475
	-121.9795	47.16428
	-121.9776	47.16323
	-121.9755	47.16213
	-121.9731	47.16062
	-121.9719	47.15927
	-121.971	47.158
	-121.9708	47.15662
	-121.9706	47.15636
	-121.9701	47.15629
	-121.9692	47.15639
	-121.9677	47.15643
	-121.9664	47.15628
	-121.9656	47.15607
	-121.9653	47.15606
	-121.965	47.1562
	-121.9647	47.15659
	-121.9641	47.15719
	-121.9633	47.15761
	-121.9624	47.15771
	-121.9597	47.15685
	-121.9574	47.15642
	-121.9559	47.15588
	-121.9541	47.15555
	-121.953	47.15523
	-121.9521	47.15483
	-121.9516	47.15425
	-121.9514	47.1536
	-121.9513	47.15265
	-121.9511	47.15229
	-121.9509	47.15205
	-121.9504	47.15151
	-121.9502	47.15091
	-121.9502	47.15002
	-121.9503	47.14791
	-121.9506	47.14699
	-121.9511	47.14585
	-121.9509	47.1451
	-121.9505	47.14445
	-121.9469	47.14204
	-121.9459	47.14151
	-121.9452	47.14101
	-121.9448	47.14049
	-121.9441	47.14014
	-121.943	47.14005
	-121.9418	47.13982
	-121.9405	47.13947
	-121.9383	47.1389
	-121.9355	47.13833
	-121.9339	47.13802
	-121.9322	47.13764
	-121.9313	47.13754
	-121.9306	47.13752
	-121.9301	47.1377
	-121.9299	47.13808
	-121.93	47.13863
	-121.9303	47.13935
	-121.9306	47.14028
	-121.9309	47.14138
	-121.931	47.14203
	-121.931	47.14243
	-121.9306	47.14307
	-121.9302	47.14329
	-121.9293	47.14356
	-121.9287	47.14384
	-121.9282	47.14424
	-121.9277	47.14453
	-121.9273	47.14495
	-121.9272	47.14526
	-121.9273	47.14554
	-121.9277	47.14584
	-121.9282	47.14613
	-121.9286	47.1465
	-121.9191	47.14951
	-121.9104	47.15097
	-121.8992	47.1566
	-121.8905	47.15439
	-121.8825	47.15309
	-121.8705	47.15137
	-121.8658	47.15188
	-121.8657	47.15174
	-121.8646	47.15298
	-121.8644	47.15303
	-121.8635	47.15302
	-121.8629	47.15285
	-121.8627	47.15299
	-121.8619	47.15349
	-121.8616	47.15358
	-121.861	47.15366
	-121.8606	47.15366
	-121.8596	47.15337
	-121.8582	47.15257
	-121.8573	47.15078
	-121.8572	47.15074
	-121.8569	47.15028
	-121.8563	47.15045
	-121.8557	47.1505
	-121.8534	47.15112
	-121.8525	47.15115
	-121.8477	47.1501
	-121.8474	47.15002
	-121.8462	47.14959
	-121.8459	47.14946
	-121.8452	47.14904
	-121.8447	47.14867
	-121.8442	47.14811
	-121.8435	47.14777
	-121.8424	47.14767
	-121.8411	47.14604
	-121.8409	47.14597
	-121.8406	47.14544
	-121.8406	47.14534
	-121.837	47.14619
	-121.8338	47.14898
	-121.8325	47.15266
	-121.8259	47.15411
	-121.8206	47.15783
	-121.8139	47.1579
	-121.8127	47.1625
	-121.8094	47.16391
	-121.8035	47.1681
	-121.7929	47.17417
	-121.7822	47.17289
	-121.7769	47.17202
	-121.7702	47.16841
	-121.7641	47.16571
	-121.7567	47.16165
	-121.7454	47.16267
	-121.7451	47.16256
	-121.7444	47.16322
	-121.7412	47.16308
	-121.7409	47.16324
	-121.7407	47.1633
	-121.7388	47.16295
	-121.7377	47.16199
	-121.7364	47.1611
	-121.7361	47.16092
	-121.7348	47.16045
	-121.7317	47.15942
	-121.7316	47.1594
	-121.7312	47.15924
	-121.7311	47.15917
	-121.7305	47.15892
	-121.73	47.15861
	-121.7294	47.15817
	-121.728	47.15706
	-121.7273	47.15668
	-121.7262	47.1563
	-121.7256	47.15598
	-121.7235	47.15435
	-121.7227	47.15387
	-121.7184	47.15227
	-121.7169	47.15183
	-121.7155	47.15156
	-121.7141	47.15146
	-121.7122	47.15142
	-121.7111	47.15149
	-121.7084	47.15161
	-121.7062	47.15173
	-121.7055	47.15179
	-121.7036	47.15185
	-121.7025	47.15182
	-121.6956	47.15141
	-121.693	47.15118
	-121.6925	47.15115
	-121.6915	47.15111
	-121.684	47.15092
	-121.6821	47.15086
	-121.6811	47.15084
	-121.6802	47.15085
	-121.6799	47.15087
	-121.6791	47.15098
	-121.6751	47.15213
	-121.6746	47.15229
	-121.6742	47.15239
	-121.6699	47.15414
	-121.6639	47.15603
	-121.6541	47.15538
	-121.6533	47.15372
	-121.6531	47.15366
	-121.653	47.15365
	-121.6527	47.15356
	-121.6524	47.15352
	-121.6522	47.15352
	-121.6522	47.15351
	-121.6517	47.15334
	-121.6512	47.15314
	-121.6512	47.15312
	-121.651	47.15307
	-121.6509	47.15299
	-121.6508	47.15295
	-121.6499	47.15262
	-121.6497	47.15257
	-121.6495	47.15255
	-121.6495	47.15253
	-121.6493	47.15251
	-121.6478	47.15246
	-121.6478	47.15245
	-121.6474	47.15241
	-121.6469	47.15238
	-121.6465	47.15238
	-121.6465	47.15262
	-121.6459	47.15309
	-121.6453	47.15285
	-121.6448	47.15278
	-121.6445	47.15278
	-121.6441	47.15282
	-121.6435	47.15295
	-121.6428	47.15427
	-121.6412	47.15392
	-121.6339	47.15306
	-121.6232	47.14901
	-121.6164	47.14448
	-121.6103	47.13902
	-121.6043	47.13452
	-121.6014	47.13285
	-121.6011	47.13263
	-121.5996	47.13135
	-121.5993	47.13103
	-121.5982	47.12952
	-121.5968	47.12754
	-121.5952	47.12627
	-121.5947	47.12582
	-121.5942	47.12531
	-121.5939	47.12487
	-121.5937	47.12432
	-121.5933	47.12282
	-121.5933	47.12277
	-121.5928	47.12258
	-121.5887	47.12082
	-121.5823	47.11975
	-121.579	47.12046
	-121.5751	47.12123
	-121.5745	47.12125
	-121.5739	47.12119
	-121.5739	47.12118
	-121.5728	47.12104
	-121.5715	47.12074
	-121.5696	47.12055
	-121.568	47.12057
	-121.5661	47.12071
	-121.5639	47.12064
	-121.5603	47.12118
	-121.5587	47.12181
	-121.5587	47.12183
	-121.5582	47.122
	-121.5577	47.12223
	-121.5576	47.12224
	-121.5573	47.12237
	-121.5565	47.12266
	-121.5562	47.12275
	-121.5549	47.12302
	-121.5546	47.12306
	-121.5463	47.12355
	-121.5459	47.12354
	-121.5447	47.12312
	-121.5441	47.12267
	-121.5394	47.12212
	-121.5255	47.12498
	-121.5227	47.12423
	-121.5225	47.12422
	-121.522	47.12414
	-121.5217	47.12405
	-121.5208	47.12387
	-121.5207	47.12381
	-121.5204	47.12374
	-121.5201	47.12353
	-121.5155	47.1223
	-121.5054	47.11915
	-121.4887	47.11468
	-121.4813	47.11106
	-121.4732	47.10147
	-121.4645	47.09694
	-121.4544	47.08966
	-121.445	47.0856
	-121.4363	47.08519
	-121.4237	47.0885
	-121.4151	47.09223
	-121.4065	47.0932
	-121.3998	47.09003
	-121.383	47.08139
END
END
