Venezuela_North
1
	-70.92706	11.96124
	-71.17041	11.34433
	-71.29715	10.80291
	-71.28987	10.56259
	-70.84177	10.09073
	-70.6569	9.786753
	-70.48367	9.617438
	-70.2292	9.429725
	-70.1798	9.355592
	-70.25803	9.271283
	-70.18391	9.160534
	-69.8185	8.898258
	-69.63771	8.731064
	-69.28543	8.589916
	-69.07751	8.378158
	-68.86752	8.07865
	-67.84948	8.310417
	-67.43607	8.324821
	-66.41417	7.673252
	-66.35768	7.639382
	-66.28769	7.643462
	-66.23828	7.625099
	-66.14873	7.681208
	-65.98094	7.688348
	-65.85742	7.692429
	-65.78434	7.776066
	-65.702	7.855608
	-65.61862	7.90251
	-65.53169	7.894311
	-65.46788	7.852506
	-65.36803	7.848428
	-65.28671	7.856585
	-65.21363	7.832112
	-65.13952	7.817836
	-65.06644	7.781123
	-64.97791	7.683205
	-64.88219	7.654642
	-64.80087	7.666884
	-64.66294	7.754606
	-64.53015	7.758685
	-64.46938	7.812285
	-64.53052	7.888713
	-64.51742	7.992519
	-64.45046	8.011258
	-64.39951	7.991077
	-64.27868	8.089091
	-64.14767	7.998285
	-64.02685	7.946386
	-63.94242	7.962245
	-63.86527	8.055942
	-63.83033	8.12512
	-63.67748	8.1525
	-63.55752	8.263722
	-63.37996	8.325345
	-63.2935	8.253026
	-63.22004	8.30339
	-63.14871	8.320675
	-63.02352	8.313473
	-62.88814	8.27314
	-62.83428	8.30339
	-62.79352	8.34372
	-62.72074	8.352362
	-62.64213	8.396287
	-62.58099	8.465405
	-62.48127	8.517956
	-62.40631	8.522994
	-62.35026	8.556824
	-62.28403	8.561862
	-62.24036	8.594969
	-62.20758	8.664374
	-62.08676	8.736321
	-61.96303	8.865791
	-62.01543	9.08866
	-62.26872	9.358792
	-62.38518	9.569866
	-62.27163	9.783679
	-62.34296	9.882646
	-62.34005	10.11775
	-62.0703	10.02585
	-61.8625	10.58861
	-61.80278	10.58889
	-61.80278	10.71444
	-61.72944	10.92273
	-61.84616	11.13204
	-62.39124	12.1075
	-63.51196	14.10167
	-63.19358	16.02596
	-63.85394	16.09395
	-64.72656	12.43753
	-67.85278	12.32356
	-68.11961	11.52813
	-69.5263	11.99506
	-69.58527	12.16514
	-70.52274	12.37831
	-70.7291	12.79838
	-71.15269	12.74418
	-71.14675	12.52422
	-71.1313	12.49132
	-71.10928	12.45176
	-71.0766	12.38924
	-71.07147	12.38098
	-71.06538	12.36905
	-71.06174	12.36092
	-71.06147	12.35408
	-71.06027	12.34243
	-71.05155	12.32051
	-71.03708	12.29735
	-71.02462	12.26826
	-71.015	12.25532
	-71.00746	12.2467
	-71.00267	12.23825
	-70.99143	12.22529
	-70.9839	12.2108
	-70.96662	12.19388
	-70.95053	12.18391
	-70.93782	12.17461
	-70.92706	12.16567
	-70.92706	11.96124
END
END
