<?xml version="1.0" encoding="UTF-8"?>
<svg width="19" height="19" version="1.1" viewBox="0 0 19 19" xml:space="preserve" xmlns="http://www.w3.org/2000/svg">
 <path d="m9.5 1.625c-4.3488 0-7.875 3.5262-7.875 7.875 0 4.3488 3.5262 7.875 7.875 7.875 0.72626 0 1.3118-0.58551 1.3118-1.3118 0-0.34125-0.1262-0.64923-0.34058-0.8811-0.20562-0.23187-0.32739-0.53324-0.32739-0.87012 0-0.72626 0.58551-1.3118 1.3118-1.3118h1.5447c2.415 0 4.3748-1.9598 4.3748-4.3748 0-3.8676-3.5262-7.0005-7.875-7.0005zm2.1753 1.4678a1.5629 1.5629 0 0 1 1.5623 1.5623 1.5629 1.5629 0 0 1-1.5623 1.5645 1.5629 1.5629 0 0 1-1.5623-1.5645 1.5629 1.5629 0 0 1 1.5623-1.5623zm-4.3814 0.021972a1.5629 1.5629 0 0 1 1.5644 1.5645 1.5629 1.5629 0 0 1-1.5644 1.5623 1.5629 1.5629 0 0 1-1.5623-1.5623 1.5629 1.5629 0 0 1 1.5623-1.5645zm-2.6235 3.5135a1.5629 1.5629 0 0 1 1.5623 1.5644 1.5629 1.5629 0 0 1-1.5623 1.5623 1.5629 1.5629 0 0 1-1.5623-1.5623 1.5629 1.5629 0 0 1 1.5623-1.5644zm9.6284 0a1.5629 1.5629 0 0 1 1.5623 1.5644 1.5629 1.5629 0 0 1-1.5623 1.5623 1.5629 1.5629 0 0 1-1.5623-1.5623 1.5629 1.5629 0 0 1 1.5623-1.5644z" fill="#fff"/>
</svg>
