<?xml version="1.0" encoding="UTF-8"?>
<svg width="19" height="19" version="1.1" viewBox="0 0 19 19" xml:space="preserve" xmlns="http://www.w3.org/2000/svg">
 <path d="m16.25 3.8377c0-0.59998-0.48748-1.0875-1.0875-1.0875h-11.325c-0.59998 0-1.0875 0.48748-1.0875 1.0875 0 0.26249 0.0975 0.52498 0.27749 0.71998l5.7223 6.4423v3.7499h-2.9999c-0.41249 0-0.74998 0.33749-0.74998 0.74998s0.33749 0.74998 0.74998 0.74998h7.4998c0.41249 0 0.74998-0.33749 0.74998-0.74998s-0.33749-0.74998-0.74998-0.74998h-2.9999v-3.7499l5.7223-6.4423c0.17999-0.19499 0.27749-0.45748 0.27749-0.71998zm-10.177 1.9124-1.3275-1.4999h9.5172l-1.335 1.4999z" fill="#fff"/>
</svg>
