<?xml version="1.0" encoding="UTF-8"?>
<svg width="19" height="19" version="1.1" viewBox="0 0 19 19" xml:space="preserve" xmlns="http://www.w3.org/2000/svg">
 <path d="m5 16h3.0005v-4.6364h0.98977c1.6017 0 2.8526-0.35745 3.7136-1.0886 0.8796-0.74002 1.2961-1.8177 1.2961-3.2087 0-1.3464-0.38958-2.3729-1.2044-3.0506-0.82402-0.68656-2.0361-1.016-3.61-1.016l-4.1854 2.25e-4zm3.0005-10.726h1.0742c0.7407 0 1.2686 0.14282 1.6113 0.44597 0.35182 0.31208 0.52672 0.77535 0.52672 1.4263 0 0.63306-0.18515 1.1231-0.61106 1.4619-0.41664 0.3299-1.0557 0.52576-1.8983 0.52576h-0.70278z" fill="#fff"/>
</svg>
