<?xml version="1.0" encoding="UTF-8" standalone="no"?>
<!-- Created with Inkscape (http://www.inkscape.org/) -->

<svg
   width="54"
   height="54"
   viewBox="0 0 54 54"
   version="1.1"
   id="svg1"
   inkscape:version="1.4.2 (ebf0e940, 2025-05-08)"
   sodipodi:docname="l-bicycle.svg"
   xml:space="preserve"
   xmlns:inkscape="http://www.inkscape.org/namespaces/inkscape"
   xmlns:sodipodi="http://sodipodi.sourceforge.net/DTD/sodipodi-0.dtd"
   xmlns="http://www.w3.org/2000/svg"
   xmlns:svg="http://www.w3.org/2000/svg"><sodipodi:namedview
     id="namedview1"
     pagecolor="#e5e5e5"
     bordercolor="#111111"
     borderopacity="1"
     inkscape:showpageshadow="0"
     inkscape:pageopacity="0"
     inkscape:pagecheckerboard="1"
     inkscape:deskcolor="#cccccc"
     inkscape:document-units="px"
     inkscape:zoom="12.037037"
     inkscape:cx="27"
     inkscape:cy="27"
     inkscape:window-width="1512"
     inkscape:window-height="869"
     inkscape:window-x="0"
     inkscape:window-y="38"
     inkscape:window-maximized="1"
     inkscape:current-layer="g7"
     showgrid="true"
     showguides="true"
     guidecolor="#0000ff"
     guideopacity="0.25098039"
     inkscape:lockguides="false"><inkscape:grid
       id="grid1"
       units="px"
       originx="1"
       originy="-29"
       spacingx="1"
       spacingy="1"
       empcolor="#ff00ff"
       empopacity="0.4"
       color="#ff0000"
       opacity="0.14901961"
       empspacing="2"
       dotted="false"
       gridanglex="30"
       gridanglez="30"
       visible="true" /><inkscape:grid
       id="grid2"
       units="px"
       originx="1"
       originy="-29"
       spacingx="0.5"
       spacingy="0.5"
       empcolor="#ff00ff"
       empopacity="0.10196078"
       color="#e500e5"
       opacity="0.10196078"
       empspacing="2"
       dotted="true"
       gridanglex="30"
       gridanglez="30"
       visible="true"
       enabled="false" /><sodipodi:guide
       position="27,81"
       orientation="1,0"
       id="guide1"
       inkscape:locked="false" /><sodipodi:guide
       position="13,27"
       orientation="0,-1"
       id="guide2"
       inkscape:locked="false" /><sodipodi:guide
       position="15,39"
       orientation="-0.70710678,-0.70710678"
       id="guide3"
       inkscape:locked="false" /><sodipodi:guide
       position="39,39"
       orientation="0.70710678,-0.70710678"
       id="guide4"
       inkscape:locked="false" /></sodipodi:namedview><defs
     id="defs1"><clipPath
       clipPathUnits="userSpaceOnUse"
       id="clipPath14"><rect
         style="display:inline;opacity:1;fill:#ff00ff;fill-opacity:1;stroke-width:40.5;stroke-linecap:round;stroke-linejoin:round"
         id="rect15"
         width="54"
         height="54"
         x="4.7683716e-07"
         y="0"
         ry="10" /></clipPath></defs><g
     id="g7"
     clip-path="url(#clipPath14)"
     inkscape:label="clip 10 radius"
     style="display:inline"><rect
       style="display:inline;opacity:1;fill:#d1cda7;fill-opacity:1;stroke-width:40.5;stroke-linecap:round;stroke-linejoin:round"
       id="rect1"
       width="54"
       height="54"
       x="0"
       y="0"
       ry="0"
       rx="0"
       inkscape:label="sport2" /><path
       id="rect7"
       style="opacity:1;fill:#e3e1d2;fill-opacity:1;stroke:none;stroke-width:2;stroke-linecap:round;stroke-linejoin:round;stroke-dasharray:none;stroke-opacity:1"
       d="m 0,0 v 31 h 11 v 23 h 8 V 31 C 32,31 36,21 38,17 41.584521,9.8309585 40,0 54,0 H 4 Z"
       sodipodi:nodetypes="ccccccsccc"
       inkscape:label="background" /><path
       style="display:inline;opacity:1;fill:#cfd5a8;fill-opacity:1;stroke:none;stroke-width:4;stroke-linecap:round;stroke-linejoin:round;stroke-dasharray:none"
       d="M 11,54 H 0 V 31 h 11 z"
       id="path7"
       sodipodi:nodetypes="ccccc"
       inkscape:label="green0" /><path
       id="path1-0"
       d="m 17.5,3.5 c -1.1,0 -2,0.9 -2,2 0,1.1 0.9,2 2,2 1.1,0 2,-0.9 2,-2 0,-1.1 -0.9,-2 -2,-2 z M 14,7 c -0.6,0 -1.100391,0.199609 -1.400391,0.599609 l -2.798828,2.800782 c -0.4000003,0.4 -0.6015623,0.90039 -0.6015623,1.40039 0,0.6 0.201562,1.098438 0.6015623,1.398438 L 13,16 v 4 c 0,0.55 0.45,1 1,1 0.55,0 1,-0.45 1,-1 v -4.400391 c 0,-0.52 -0.200781,-1.008906 -0.550781,-1.378906 L 12.800781,12.5 15.199219,10.099609 16,10.900391 c 1.06,1.06 2.380938,1.779531 3.960938,2.019531 0.6,0.09 1.138671,-0.39 1.138671,-1 0,-0.49 -0.369609,-0.910234 -0.849609,-0.990234 C 19.14,10.749688 18.23,10.22 17.5,9.5 L 15.599609,7.599609 C 15.099609,7.199609 14.6,7 14,7 Z M 7.5,14 C 6.30653,14 5.1622687,14.474459 4.3183593,15.318359 3.4744493,16.162259 3,17.3065 3,18.5 3,19.6935 3.4744493,20.837741 4.3183593,21.681641 5.1622687,22.525541 6.30653,23 7.5,23 8.69347,23 9.837731,22.525541 10.681641,21.681641 11.525551,20.837741 12,19.6935 12,18.5 c 0,-0.5909 -0.115657,-1.176656 -0.341797,-1.722656 -0.22615,-0.5459 -0.558702,-1.041085 -0.976562,-1.458985 -0.41786,-0.4178 -0.913025,-0.750362 -1.458985,-0.976562 C 8.676686,14.115697 8.09095,14 7.5,14 Z m 13,0 c -1.1935,0 -2.337741,0.474459 -3.181641,1.318359 C 16.474459,16.162259 16,17.3065 16,18.5 c 0,1.1935 0.474459,2.337741 1.318359,3.181641 C 18.162259,22.525541 19.3065,23 20.5,23 21.6935,23 22.837741,22.525541 23.681641,21.681641 24.525541,20.837741 25,19.6935 25,18.5 25,17.3065 24.525541,16.162259 23.681641,15.318359 22.837741,14.474459 21.6935,14 20.5,14 Z m -13,1.5 c 0.39397,0 0.7844567,0.07772 1.148438,0.228516 0.36398,0.1507 0.694076,0.37179 0.972656,0.65039 0.27858,0.2786 0.49962,0.608757 0.65039,0.972656 C 10.422244,17.715563 10.5,18.106 10.5,18.5 c 0,0.394 -0.07776,0.784437 -0.228516,1.148438 -0.15077,0.3639 -0.37181,0.694056 -0.65039,0.972656 -0.27858,0.2786 -0.608676,0.49969 -0.972656,0.65039 C 8.2844567,21.422284 7.89397,21.5 7.5,21.5 7.10603,21.5 6.7155433,21.42228 6.351562,21.271484 5.9875827,21.120784 5.657486,20.899694 5.378906,20.621094 5.100326,20.342494 4.879286,20.012337 4.728516,19.648438 4.577756,19.284437 4.5,18.894 4.5,18.5 c 0,-0.394 0.077756,-0.784437 0.228516,-1.148438 0.15077,-0.3639 0.37181,-0.694056 0.65039,-0.972656 0.27858,-0.2786 0.608676,-0.49969 0.972656,-0.65039 C 6.7155433,15.577716 7.10603,15.5 7.5,15.5 Z m 13,0 c 0.394,0 0.784438,0.07772 1.148438,0.228516 0.3639,0.1507 0.694056,0.37179 0.972656,0.65039 0.2786,0.2786 0.49969,0.608757 0.65039,0.972656 C 23.422284,17.715563 23.5,18.106 23.5,18.5 c 0,0.394 -0.07772,0.784437 -0.228516,1.148438 -0.1507,0.3639 -0.37179,0.694056 -0.65039,0.972656 -0.2786,0.2786 -0.608756,0.49969 -0.972656,0.65039 C 21.284438,21.422284 20.894,21.5 20.5,21.5 c -0.394,0 -0.784438,-0.07772 -1.148438,-0.228516 -0.3639,-0.1507 -0.694056,-0.37179 -0.972656,-0.65039 -0.2786,-0.2786 -0.49969,-0.608757 -0.65039,-0.972656 C 17.577716,19.284437 17.5,18.894 17.5,18.5 c 0,-0.394 0.07772,-0.784437 0.228516,-1.148438 0.1507,-0.3639 0.37179,-0.694056 0.65039,-0.972656 0.2786,-0.2786 0.608756,-0.49969 0.972656,-0.65039 C 19.715562,15.577716 20.106,15.5 20.5,15.5 Z"
       style="stroke-width:1;fill:#4d4d4d;fill-opacity:1"
       inkscape:label="bike-r" /><path
       id="path1-0-5"
       d="m 36.5,25.5 c 1.1,0 2,0.9 2,2 0,1.1 -0.9,2 -2,2 -1.1,0 -2,-0.9 -2,-2 0,-1.1 0.9,-2 2,-2 z M 40,29 c 0.6,0 1.100391,0.199609 1.400391,0.599609 l 2.798828,2.800782 c 0.4,0.4 0.601562,0.90039 0.601562,1.40039 0,0.6 -0.201562,1.098438 -0.601562,1.398438 L 41,38 v 4 c 0,0.55 -0.45,1 -1,1 -0.55,0 -1,-0.45 -1,-1 v -4.400391 c 0,-0.52 0.200781,-1.008906 0.550781,-1.378906 L 41.199219,34.5 38.800781,32.099609 38,32.900391 c -1.06,1.06 -2.380938,1.779531 -3.960938,2.019531 -0.6,0.09 -1.138671,-0.39 -1.138671,-1 0,-0.49 0.369609,-0.910234 0.849609,-0.990234 C 34.86,32.749688 35.77,32.22 36.5,31.5 l 1.900391,-1.900391 C 38.900391,29.199609 39.4,29 40,29 Z m 6.5,7 c 1.19347,0 2.337731,0.474459 3.181641,1.318359 C 50.525551,38.162259 51,39.3065 51,40.5 51,41.6935 50.525551,42.837741 49.681641,43.681641 48.837731,44.525541 47.69347,45 46.5,45 45.30653,45 44.162269,44.525541 43.318359,43.681641 42.474449,42.837741 42,41.6935 42,40.5 c 0,-0.5909 0.115657,-1.176656 0.341797,-1.722656 0.22615,-0.5459 0.558702,-1.041085 0.976562,-1.458985 0.41786,-0.4178 0.913025,-0.750362 1.458985,-0.976562 C 45.323314,36.115697 45.90905,36 46.5,36 Z m -13,0 c 1.1935,0 2.337741,0.474459 3.181641,1.318359 C 37.525541,38.162259 38,39.3065 38,40.5 38,41.6935 37.525541,42.837741 36.681641,43.681641 35.837741,44.525541 34.6935,45 33.5,45 32.3065,45 31.162259,44.525541 30.318359,43.681641 29.474459,42.837741 29,41.6935 29,40.5 29,39.3065 29.474459,38.162259 30.318359,37.318359 31.162259,36.474459 32.3065,36 33.5,36 Z m 13,1.5 c -0.39397,0 -0.784457,0.07772 -1.148438,0.228516 -0.36398,0.1507 -0.694076,0.37179 -0.972656,0.65039 -0.27858,0.2786 -0.49962,0.608757 -0.65039,0.972656 C 43.577756,39.715563 43.5,40.106 43.5,40.5 c 0,0.394 0.07776,0.784437 0.228516,1.148438 0.15077,0.3639 0.37181,0.694056 0.65039,0.972656 0.27858,0.2786 0.608676,0.49969 0.972656,0.65039 C 45.715543,43.422284 46.10603,43.5 46.5,43.5 c 0.39397,0 0.784457,-0.07772 1.148438,-0.228516 0.363979,-0.1507 0.694076,-0.37179 0.972656,-0.65039 0.27858,-0.2786 0.49962,-0.608757 0.65039,-0.972656 C 49.422244,41.284437 49.5,40.894 49.5,40.5 c 0,-0.394 -0.07776,-0.784437 -0.228516,-1.148438 -0.15077,-0.3639 -0.37181,-0.694056 -0.65039,-0.972656 -0.27858,-0.2786 -0.608676,-0.49969 -0.972656,-0.65039 C 47.284457,37.577716 46.89397,37.5 46.5,37.5 Z m -13,0 c -0.394,0 -0.784438,0.07772 -1.148438,0.228516 -0.3639,0.1507 -0.694056,0.37179 -0.972656,0.65039 -0.2786,0.2786 -0.49969,0.608757 -0.65039,0.972656 C 30.577716,39.715563 30.5,40.106 30.5,40.5 c 0,0.394 0.07772,0.784437 0.228516,1.148438 0.1507,0.3639 0.37179,0.694056 0.65039,0.972656 0.2786,0.2786 0.608756,0.49969 0.972656,0.65039 C 32.715562,43.422284 33.106,43.5 33.5,43.5 c 0.394,0 0.784438,-0.07772 1.148438,-0.228516 0.3639,-0.1507 0.694056,-0.37179 0.972656,-0.65039 0.2786,-0.2786 0.49969,-0.608757 0.65039,-0.972656 C 36.422284,41.284437 36.5,40.894 36.5,40.5 c 0,-0.394 -0.07772,-0.784437 -0.228516,-1.148438 -0.1507,-0.3639 -0.37179,-0.694056 -0.65039,-0.972656 -0.2786,-0.2786 -0.608756,-0.49969 -0.972656,-0.65039 C 34.284438,37.577716 33.894,37.5 33.5,37.5 Z"
       style="display:inline;fill:#4d4d4d;fill-opacity:1;stroke-width:1"
       inkscape:label="bike-l" /><path
       style="fill:none;fill-opacity:1;stroke:#f8f8f8;stroke-width:3;stroke-linecap:round;stroke-linejoin:round;stroke-dasharray:none;stroke-opacity:1"
       d="m 35,13 c 10,0 12,8 27,5"
       id="path10"
       inkscape:label="residential"
       sodipodi:nodetypes="cc" /><path
       style="fill:none;fill-opacity:1;stroke:#ffffff;stroke-width:4;stroke-linecap:round;stroke-linejoin:round;stroke-dasharray:none;stroke-opacity:1"
       d="M 15,27 V 54"
       id="path8"
       inkscape:label="tertiary"
       sodipodi:nodetypes="cc" /><path
       d="M 53,49 H 42 34 C 28,49 22,46 18,42 14,38 15,27 15,27"
       style="display:inline;fill:none;fill-opacity:1;stroke:#ffffff;stroke-width:4;stroke-linecap:round;stroke-linejoin:round;stroke-dasharray:none;stroke-opacity:1"
       id="path3"
       sodipodi:nodetypes="ccssc" /><path
       d="m 15,27 c 0,0 -1,11 3,15 4,4 10,7 16,7 h 8 11"
       style="display:inline;opacity:0.8;fill:none;fill-opacity:1;stroke:#9c27b0;stroke-width:2;stroke-linecap:butt;stroke-linejoin:round;stroke-dasharray:6, 2;stroke-dashoffset:0;stroke-opacity:1"
       id="path4"
       sodipodi:nodetypes="csscc" /><path
       d="M -4,27 H 7 15 C 31,27 33,19 35,13 37.534639,5.3960827 38,-3 53,-3"
       style="fill:none;fill-opacity:1;stroke:#ffffff;stroke-width:4;stroke-linecap:round;stroke-linejoin:round;stroke-dasharray:none;stroke-opacity:1"
       id="path1"
       sodipodi:nodetypes="ccssc" /><path
       d="M -4,27 H 7 15 C 31,27 33,19 35,13 37.534639,5.3960827 38,-3 53,-3"
       style="fill:none;fill-opacity:1;stroke:#9c27b0;stroke-width:2;stroke-linecap:butt;stroke-linejoin:round;stroke-dasharray:6, 2;stroke-opacity:1;stroke-dashoffset:0;opacity:0.8"
       id="path2"
       sodipodi:nodetypes="ccssc" /></g></svg>
