<?xml version="1.0" encoding="UTF-8"?>
<svg width="19" height="19" version="1.1" viewBox="0 0 19 19" xmlns="http://www.w3.org/2000/svg">
 <path d="m 5.3147 4.7781 c 0.8296 0 1.4947 -0.6566 1.4947 -1.4756 0 -0.819 -0.6652 -1.4756 -1.4947 -1.4756 s -1.4947 0.6566 -1.4947 1.4756 c 0 0.819 0.6652 1.4756 1.4947 1.4756 z m 8.3707 8.2634 v 4.1316 h -2.3917 v -4.1316 h -2.3917 l 2.0926 -6.4926 s 0.299 -1.1805 1.4947 -1.1805 c 1.1958 0 1.4947 1.1805 1.4947 1.1805 l 2.0926 6.4926 z m -7.1748 -1.7708 v 5.9023 h -2.3917 v -5.9023 h -1.1958 v -4.2582 c 0 -0.908 0.7265 -1.6441 1.6461 -1.6441 h 1.4911 c 0.9091 0 1.6461 0.7356 1.6461 1.6441 v 4.2582 z m 7.6275 -7.9682 c 0 0.819 -0.6903 1.4756 -1.5511 1.4756 s -1.5511 -0.6566 -1.5511 -1.4756 c 0 -0.819 0.6903 -1.4756 1.5511 -1.4756 s 1.5511 0.6566 1.5511 1.4756 z" fill="#fff"/>
</svg>
