<?xml version="1.0" encoding="UTF-8"?>
<svg width="19" height="19" version="1.1" viewBox="0 0 19 19" xmlns="http://www.w3.org/2000/svg">
 <path d="m 6.6774 14.5106 c -0.8634 0 -1.5621 0.7047 -1.5621 1.5659 0 0.8613 0.6986 1.5659 1.5621 1.5659 0.8634 0 1.5698 -0.7047 1.5698 -1.5659 0 -0.8613 -0.7064 -1.5659 -1.5698 -1.5659 z m -5.3203 -12.5861 c 0 0.3783 0.314 0.685 0.6812 0.685 h 0.9473 l 2.4429 7.5165 c -0.8648 0 -1.5659 0.9098 -1.5659 2.0331 v -0.308 c 0 1.1229 0.9133 2.0331 2.0339 2.0331 h 9.4296 c 0.3801 0 0.6881 -0.2906 0.6881 -0.685 v 0.1173 c 0 -0.3783 -0.3144 -0.685 -0.6818 -0.685 h -9.5353 c -0.3765 0 -0.6818 -0.2906 -0.6818 -0.685 v 0.1173 c 0 -0.3783 0.3108 -0.685 0.6719 -0.685 h 8.6705 c 1.3434 0 1.2229 -0.344 1.425 -0.7516 l 1.6624 -5.6224 c 0.0651 -0.114 0.0977 -0.2524 0.0977 -0.3909 0 -0.4479 -0.3664 -0.8143 -0.6264 -0.7517 h -12.2312 l -0.9853 -2.5056 h -1.7753 c -0.3687 0 -0.6675 0.2906 -0.6675 0.685 v -0.1173 z m 12.8367 12.5861 c -0.8634 0 -1.5621 0.7047 -1.5621 1.5659 0 0.8613 0.6986 1.5659 1.5621 1.5659 s 1.5698 -0.7047 1.5698 -1.5659 c 0 -0.8613 -0.7064 -1.5659 -1.5698 -1.5659 z" fill="#fff"/>
</svg>
