<?xml version="1.0" encoding="UTF-8" standalone="no"?>
<!-- Created with Inkscape (http://www.inkscape.org/) -->

<svg
   width="54"
   height="54"
   viewBox="0 0 54 54"
   version="1.1"
   id="svg1"
   inkscape:version="1.4.2 (ebf0e940, 2025-05-08)"
   sodipodi:docname="l-outdoors.svg"
   xml:space="preserve"
   xmlns:inkscape="http://www.inkscape.org/namespaces/inkscape"
   xmlns:sodipodi="http://sodipodi.sourceforge.net/DTD/sodipodi-0.dtd"
   xmlns="http://www.w3.org/2000/svg"
   xmlns:svg="http://www.w3.org/2000/svg"><sodipodi:namedview
     id="namedview1"
     pagecolor="#e5e5e5"
     bordercolor="#111111"
     borderopacity="1"
     inkscape:showpageshadow="0"
     inkscape:pageopacity="0"
     inkscape:pagecheckerboard="1"
     inkscape:deskcolor="#cccccc"
     inkscape:document-units="px"
     inkscape:zoom="7.7397982"
     inkscape:cx="25.517461"
     inkscape:cy="37.59788"
     inkscape:window-width="1512"
     inkscape:window-height="869"
     inkscape:window-x="0"
     inkscape:window-y="38"
     inkscape:window-maximized="1"
     inkscape:current-layer="g7"
     showgrid="true"
     showguides="false"
     guidecolor="#0000ff"
     guideopacity="0.25098039"
     inkscape:lockguides="false"><inkscape:grid
       id="grid1"
       units="px"
       originx="1"
       originy="-29"
       spacingx="1"
       spacingy="1"
       empcolor="#ff00ff"
       empopacity="0.4"
       color="#ff0000"
       opacity="0.14901961"
       empspacing="2"
       dotted="false"
       gridanglex="30"
       gridanglez="30"
       visible="true" /><inkscape:grid
       id="grid2"
       units="px"
       originx="1"
       originy="-29"
       spacingx="0.5"
       spacingy="0.5"
       empcolor="#ff00ff"
       empopacity="0.10196078"
       color="#e500e5"
       opacity="0.10196078"
       empspacing="2"
       dotted="true"
       gridanglex="30"
       gridanglez="30"
       visible="true"
       enabled="false" /><sodipodi:guide
       position="27,81"
       orientation="1,0"
       id="guide1"
       inkscape:locked="false" /><sodipodi:guide
       position="15,27"
       orientation="0,-1"
       id="guide2"
       inkscape:locked="false" /><sodipodi:guide
       position="15,39"
       orientation="-0.70710678,-0.70710678"
       id="guide3"
       inkscape:locked="false" /><sodipodi:guide
       position="39,39"
       orientation="0.70710678,-0.70710678"
       id="guide4"
       inkscape:locked="false" /></sodipodi:namedview><defs
     id="defs1"><inkscape:path-effect
       effect="offset"
       id="path-effect14"
       is_visible="true"
       lpeversion="1.3"
       linejoin_type="miter"
       unit="px"
       offset="1"
       miter_limit="4"
       attempt_force_join="false"
       update_on_knot_move="true" /><inkscape:path-effect
       effect="offset"
       id="path-effect13"
       is_visible="true"
       lpeversion="1.3"
       linejoin_type="miter"
       unit="px"
       offset="1"
       miter_limit="4"
       attempt_force_join="false"
       update_on_knot_move="true" /><inkscape:path-effect
       effect="offset"
       id="path-effect12"
       is_visible="true"
       lpeversion="1.3"
       linejoin_type="miter"
       unit="px"
       offset="1"
       miter_limit="4"
       attempt_force_join="false"
       update_on_knot_move="true" /><inkscape:path-effect
       effect="fillet_chamfer"
       id="path-effect11"
       is_visible="true"
       lpeversion="1"
       nodesatellites_param="F,0,1,1,0,1,0,1 @ F,0,1,1,0,1,0,1 @ F,0,0,1,0,0,0,1 @ F,0,0,1,0,0,0,1 @ F,0,1,1,0,1,0,1 @ F,0,1,1,0,1,0,1 @ F,0,0,1,0,0,0,1 @ F,0,1,1,0,1,0,1 @ F,0,1,1,0,1,0,1 @ F,0,0,1,0,0,0,1 @ F,0,0,1,0,0,0,1 @ F,0,1,1,0,1,0,1 @ F,0,1,1,0,1,0,1 @ F,0,0,1,0,0,0,1 @ F,0,1,1,0,1,0,1 @ F,0,1,1,0,1,0,1 @ F,0,0,1,0,0,0,1 @ F,0,0,1,0,0,0,1 @ F,0,1,1,0,1,0,1 @ F,0,1,1,0,1,0,1 | F,0,0,1,0,0,0,1 @ F,0,0,1,0,0,0,1 @ F,0,0,1,0,0,0,1 @ F,0,0,1,0,0,0,1"
       radius="1"
       unit="px"
       method="auto"
       mode="F"
       chamfer_steps="1"
       flexible="false"
       use_knot_distance="true"
       apply_no_radius="true"
       apply_with_radius="true"
       only_selected="true"
       hide_knots="false" /><clipPath
       clipPathUnits="userSpaceOnUse"
       id="clipPath14"><rect
         style="display:inline;opacity:1;fill:#ff00ff;fill-opacity:1;stroke-width:40.5;stroke-linecap:round;stroke-linejoin:round"
         id="rect15"
         width="54"
         height="54"
         x="4.7683716e-07"
         y="0"
         ry="10" /></clipPath></defs><g
     id="g6"
     style="display:none;fill:#ff00ff;fill-opacity:0.203927"
     sodipodi:insensitive="true"><circle
       style="display:inline;fill:#ff00ff;fill-opacity:0.203927;stroke:none;stroke-width:2.85714;stroke-linecap:round;stroke-linejoin:round"
       id="path1"
       cx="44"
       cy="44"
       r="10" /><circle
       style="fill:#ff00ff;fill-opacity:0.203927;stroke:none;stroke-width:2.85714;stroke-linecap:round;stroke-linejoin:round"
       id="circle3"
       cx="10"
       cy="44"
       r="10" /><circle
       style="fill:#ff00ff;fill-opacity:0.203927;stroke:none;stroke-width:2.85714;stroke-linecap:round;stroke-linejoin:round"
       id="circle4"
       cx="10"
       cy="10"
       r="10" /><circle
       style="fill:#ff00ff;fill-opacity:0.203927;stroke:none;stroke-width:2.85714;stroke-linecap:round;stroke-linejoin:round"
       id="circle5"
       cx="44"
       cy="10"
       r="10" /><circle
       style="fill:#ff00ff;fill-opacity:0.203927;stroke:none;stroke-width:2.85714;stroke-linecap:round;stroke-linejoin:round"
       id="circle6"
       cx="27"
       cy="27"
       r="10" /></g><g
     id="g7"
     clip-path="url(#clipPath14)"
     inkscape:label="clip 10 radius"
     style="display:inline"><rect
       style="opacity:1;fill:#c1cc89;fill-opacity:1;stroke-width:40.5;stroke-linecap:round;stroke-linejoin:round"
       id="rect1"
       width="54"
       height="54"
       x="0"
       y="0"
       ry="0"
       rx="0"
       inkscape:label="green1b" /><path
       style="display:inline;opacity:1;fill:none;fill-opacity:1;stroke:#635730;stroke-width:3;stroke-linecap:butt;stroke-linejoin:round;stroke-dasharray:6, 3;stroke-dashoffset:0;stroke-opacity:1"
       d="M 19,55 C 27,43 46,50 48,38"
       id="path5"
       sodipodi:nodetypes="cc"
       inkscape:label="path_expert" /><path
       style="display:inline;opacity:1;fill:none;fill-opacity:1;stroke:#a05012;stroke-width:3;stroke-linecap:butt;stroke-linejoin:round;stroke-dasharray:6, 3;stroke-dashoffset:0;stroke-opacity:1"
       d="M 55,33 C 33,45 19,17 -1,33"
       id="path7"
       sodipodi:nodetypes="cc"
       inkscape:label="track" /><path
       d="M 0,26.67825 V 0 H 37 C 23,19 10,10 0,26.67825 Z"
       style="clip-rule:evenodd;display:inline;fill:#fcec7e;fill-opacity:1;fill-rule:evenodd;stroke-width:0.359493;stroke-linejoin:round;stroke-miterlimit:2"
       id="path2"
       sodipodi:nodetypes="cccc"
       inkscape:label="beach" /><path
       d="M 0,18.768603 V 0 C 8.8733943,0 17.746825,0 26.620219,0 20.26444,11.234272 4.9429843,6.6758533 0,18.769322 Z"
       style="clip-rule:evenodd;fill:#8bd3e0;fill-rule:evenodd;stroke-width:0.359493;stroke-linejoin:round;stroke-miterlimit:2;fill-opacity:1"
       id="path4"
       sodipodi:nodetypes="cccc"
       inkscape:label="water" /><path
       id="path3"
       d="m 7,34 c -1.1012618,0 -2,0.898738 -2,2 0,1.101262 0.8987382,2 2,2 H 7.296875 L 6.9335937,40 H 5 c -1.1012618,0 -2,0.898738 -2,2 0,1.101262 0.8987382,2 2,2 h 1.2089844 l -0.515625,2.837891 C 5.4895436,47.962393 6.3575217,49 7.5,49 8.5646902,49 9.4724807,48.239586 9.6621094,47.193359 L 10.242188,44 h 5.52539 l 0.572266,3.191406 C 16.527588,48.238524 17.435285,49 18.5,49 c 1.141733,-10e-7 2.010265,-1.035366 1.808594,-2.160156 L 19.798828,44 H 21 c 1.101262,0 2,-0.898738 2,-2 0,-1.101262 -0.898738,-2 -2,-2 H 19.080078 L 18.722656,38 H 19 c 1.101262,0 2,-0.898738 2,-2 0,-1.101262 -0.898738,-2 -2,-2 z m 4.332031,4 h 3.359375 l 0.357422,2 H 10.96875 Z"
       style="fill:#ffffff;fill-opacity:1;stroke:none;stroke-opacity:0.50277;opacity:0.6"
       inkscape:label="picnic-0"
       sodipodi:nodetypes="cccccccccccccccccccccccccc" /><path
       id="path12"
       d="m 6,36 a 1,1 45 0 0 1,1 H 8.496094 L 7.769531,41 H 5 a 1,1 135 0 0 -1,1 1,1 45 0 0 1,1 H 7.40625 L 6.6783442,47.016032 A 0.83504305,0.83504305 50.136665 0 0 7.5,48 1.197543,1.197543 140.13667 0 0 8.6783442,47.016032 L 9.40625,43 h 7.197266 l 0.720001,4.015696 A 1.1952433,1.1952433 39.917529 0 0 18.5,48 0.83664973,0.83664973 129.91753 0 0 19.323517,47.015696 L 18.603516,43 H 21 a 1,1 135 0 0 1,-1 1,1 45 0 0 -1,-1 l -2.755859,0 -0.716797,-4 H 19 a 1,1 135 0 0 1,-1 1,1 45 0 0 -1,-1 H 7 a 1,1 135 0 0 -1,1 z m 4.496094,1 h 5.03125 l 0.716797,4 h -6.47461 z"
       style="fill:#717065;fill-opacity:1;stroke:none;stroke-opacity:0.50277"
       inkscape:label="picnic"
       sodipodi:nodetypes="cccccccccccccccccccccccccc" /><path
       d="m 34.5,8 c -1.511752,0 -2.773762,0.9559102 -3.261719,2.292969 -0.570214,0.261919 -1.074715,0.700687 -1.419922,1.304687 l -0.01953,0.03516 -3.271484,6.951171 -0.0039,0.01172 C 26.202758,19.32127 26,20.130687 26,21 c 0,3.30179 2.698467,6 6,6 2.240609,0 4.191398,-1.248231 5.21875,-3.080078 C 37.470074,23.97167 37.731006,24 38,24 c 0.268973,0 0.529903,-0.02833 0.78125,-0.08008 C 39.808581,25.751738 41.759315,27 44,27 c 3.301627,0 6,-2.698522 6,-6 0,-0.869431 -0.202992,-1.678925 -0.523438,-2.404297 l -0.0039,-0.0098 -3.271484,-6.953124 -0.01953,-0.03516 C 45.836471,10.993578 45.331988,10.554891 44.761719,10.292969 44.273755,8.9559509 43.011766,8 41.5,8 40.106712,8 38.909817,8.8178278 38.349609,10 H 37.650391 C 37.09017,8.8178127 35.893256,8 34.5,8 Z M 32,19 c 0.568435,0 1.058176,0.222232 1.417969,0.582031 C 33.777761,19.94183 34,20.4316 34,21 34,21.568314 33.777774,22.058147 33.417969,22.417969 33.058164,22.777791 32.568409,23 32,23 31.431591,23 30.941836,22.777791 30.582031,22.417969 30.222226,22.058147 30,21.568315 30,21 30,20.4316 30.222239,19.94183 30.582031,19.582031 30.941824,19.222233 31.431565,19 32,19 Z m 12,0 c 0.568436,0 1.058177,0.222233 1.417969,0.582031 C 45.777761,19.94183 46,20.431599 46,21 46,21.568315 45.777773,22.058147 45.417969,22.417969 45.058164,22.777791 44.56841,23 44,23 43.431674,23 42.941859,22.777803 42.582031,22.417969 42.222204,22.058135 42,21.56829 42,21 42,20.4316 42.222239,19.94183 42.582031,19.582031 42.941824,19.222232 43.431565,19 44,19 Z"
       style="fill:#ffffff;fill-rule:evenodd;stroke-width:1.27289;fill-opacity:1;opacity:0.6"
       id="path1-8"
       inkscape:label="b-0" /><path
       d="m 34.499995,9.0001515 c -1.229366,0 -2.228166,0.8933402 -2.437464,2.0626075 -0.545316,0.127679 -1.057576,0.47578 -1.375047,1.031252 l -3.250052,6.906067 c -0.271874,0.615139 -0.437494,1.287386 -0.437494,2.000073 0,2.749713 2.250362,5.000053 4.999829,5.000053 2.15493,0 3.988953,-1.391135 4.687575,-3.312652 0.397905,0.19626 0.842333,0.312414 1.312596,0.312414 0.470137,0 0.914691,-0.116154 1.312471,-0.312414 0.698622,1.921517 2.53252,3.312652 4.687575,3.312652 2.749467,0 4.999954,-2.250728 4.999954,-5.000053 0,-0.712687 -0.165658,-1.384934 -0.437406,-2.000073 L 45.312455,12.094011 C 44.995059,11.538539 44.482787,11.190438 43.937407,11.062759 43.72811,9.8935821 42.729272,9.0001515 41.499944,9.0001515 c -1.208135,0 -2.204339,0.8608067 -2.437464,2.0000735 H 36.937521 C 36.704396,9.8610099 35.708068,9.0001515 34.500058,9.0001515 Z m -2.499914,8.9999415 c 1.668741,0 3.000022,1.331315 3.000022,2.999981 0,1.668536 -1.331281,2.999851 -3.000022,2.999851 -1.668742,0 -3.000023,-1.331315 -3.000023,-2.999851 0,-1.668666 1.331281,-2.999981 3.000023,-2.999981 z m 11.999965,0 c 1.668743,0 2.999898,1.331315 2.999898,2.999981 0,1.668536 -1.331155,2.999851 -2.999898,2.999851 -1.668616,0 -3.000022,-1.331315 -3.000022,-2.999851 0,-1.668666 1.331281,-2.999981 3.000022,-2.999981 z M 38,19 c 0.554535,0 0.999966,0.445495 0.999966,1.000166 0,0.554413 -0.445431,0.999908 -0.999966,0.999908 -0.554533,0 -0.999965,-0.445495 -0.999965,-0.999908 C 37.000035,19.445495 37.445467,19 38,19 Z"
       style="display:inline;fill:#7f5933;fill-rule:evenodd;stroke-width:1.27289;fill-opacity:1"
       id="path13"
       inkscape:label="b" /></g></svg>
