<?xml version="1.0" encoding="UTF-8" standalone="no"?>
<!-- Created with Inkscape (http://www.inkscape.org/) -->

<svg
   xmlns:dc="http://purl.org/dc/elements/1.1/"
   xmlns:cc="http://creativecommons.org/ns#"
   xmlns:rdf="http://www.w3.org/1999/02/22-rdf-syntax-ns#"
   xmlns:svg="http://www.w3.org/2000/svg"
   xmlns="http://www.w3.org/2000/svg"
   xmlns:sodipodi="http://sodipodi.sourceforge.net/DTD/sodipodi-0.dtd"
   xmlns:inkscape="http://www.inkscape.org/namespaces/inkscape"
   version="1.0"
   width="24"
   height="24"
   id="symbol-cafe"
   inkscape:version="0.48.2 r9819"
   sodipodi:docname="taxi.svg">
  <title
     id="title2988">Cafe Map Icon</title>
  <metadata
     id="metadata11">
    <rdf:RDF>
      <cc:Work
         rdf:about="">
        <dc:format>image/svg+xml</dc:format>
        <dc:type
           rdf:resource="http://purl.org/dc/dcmitype/StillImage" />
        <dc:title>Cafe Map Icon</dc:title>
        <dc:creator>
          <cc:Agent>
            <dc:title>Yury Melnichek</dc:title>
          </cc:Agent>
        </dc:creator>
        <dc:source>mapsforhumans.com</dc:source>
        <cc:license
           rdf:resource="http://creativecommons.org/licenses/by-sa/3.0/" />
      </cc:Work>
      <cc:License
         rdf:about="http://creativecommons.org/licenses/by-sa/3.0/">
        <cc:permits
           rdf:resource="http://creativecommons.org/ns#Reproduction" />
        <cc:permits
           rdf:resource="http://creativecommons.org/ns#Distribution" />
        <cc:requires
           rdf:resource="http://creativecommons.org/ns#Notice" />
        <cc:requires
           rdf:resource="http://creativecommons.org/ns#Attribution" />
        <cc:permits
           rdf:resource="http://creativecommons.org/ns#DerivativeWorks" />
        <cc:requires
           rdf:resource="http://creativecommons.org/ns#ShareAlike" />
      </cc:License>
    </rdf:RDF>
  </metadata>
  <sodipodi:namedview
     pagecolor="#ffffff"
     bordercolor="#666666"
     borderopacity="1"
     objecttolerance="10"
     gridtolerance="10"
     guidetolerance="10"
     inkscape:pageopacity="0"
     inkscape:pageshadow="2"
     inkscape:window-width="1298"
     inkscape:window-height="819"
     id="namedview9"
     showgrid="true"
     showguides="true"
     inkscape:guide-bbox="true"
     inkscape:zoom="30.085005"
     inkscape:cx="5.7782526"
     inkscape:cy="14.963167"
     inkscape:window-x="207"
     inkscape:window-y="47"
     inkscape:window-maximized="0"
     inkscape:current-layer="symbol-cafe">
    <inkscape:grid
       type="xygrid"
       id="grid2986"
       empspacing="2"
       visible="true"
       enabled="true"
       snapvisiblegridlinesonly="true" />
  </sodipodi:namedview>
  <defs
     id="defs2230" />
  <path
     style="fill:#4d4d4d;fill-opacity:1;fill-rule:evenodd;stroke:none"
     d="m 5,9 -2,7 0,5 1,0 0,3 3,0 0,-3 10,0 0,3 3,0 0,-3 1,0 0,-5 L 19,9 5,9 z m 1,1 12,0 1.46875,5 L 4.53125,15 6,10 z M 5.5,17 C 6.3284271,17 7,17.671573 7,18.5 7,19.328427 6.3284271,20 5.5,20 4.6715729,20 4,19.328427 4,18.5 4,17.671573 4.6715729,17 5.5,17 z m 12.96875,0 c 0.828427,0 1.5,0.671573 1.5,1.5 0,0.828427 -0.671573,1.5 -1.5,1.5 -0.828427,0 -1.5,-0.671573 -1.5,-1.5 0,-0.828427 0.671573,-1.5 1.5,-1.5 z"
     id="rect3008"
     inkscape:connector-curvature="0" />
  <path
     style="fill:#4d4d4d;fill-opacity:1;stroke:none"
     d="M 7,3 6,1 3,1 2,3 2,3 5,3 5,3 5,5 5,5 2,5 3,7 6,7 7,5 l 9,0 1,2 3,0 1,-2 -3,0 0,-2 3,0 -1,-2 -3,0 -1,2 z"
     id="path4534"
     inkscape:connector-curvature="0"
     sodipodi:nodetypes="cccccccccccccccccccccccc" />
</svg>
