<?xml version="1.0" encoding="UTF-8" standalone="no"?>
<!-- Generator: Adobe Illustrator 14.0.0, SVG Export Plug-In . SVG Version: 6.00 Build 43363)  -->

<svg
   xmlns:dc="http://purl.org/dc/elements/1.1/"
   xmlns:cc="http://creativecommons.org/ns#"
   xmlns:rdf="http://www.w3.org/1999/02/22-rdf-syntax-ns#"
   xmlns:svg="http://www.w3.org/2000/svg"
   xmlns="http://www.w3.org/2000/svg"
   xmlns:sodipodi="http://sodipodi.sourceforge.net/DTD/sodipodi-0.dtd"
   xmlns:inkscape="http://www.inkscape.org/namespaces/inkscape"
   version="1.0"
   id="Layer_1"
   x="0px"
   y="0px"
   width="24"
   height="24"
   viewBox="0 0 24 24"
   enable-background="new 0 0 66.461 100"
   xml:space="preserve"
   inkscape:version="0.48.2 r9819"
   sodipodi:docname="railway-station.svg"><title
   id="title3765">Train Map Icon</title><metadata
   id="metadata13"><rdf:RDF><cc:Work
       rdf:about=""><dc:format>image/svg+xml</dc:format><dc:type
         rdf:resource="http://purl.org/dc/dcmitype/StillImage" /><dc:title>Train Map Icon</dc:title><dc:creator><cc:Agent><dc:title>Yury Melnichek</dc:title></cc:Agent></dc:creator><dc:source>mapsforhumans.com</dc:source></cc:Work></rdf:RDF></metadata><defs
   id="defs11" /><sodipodi:namedview
   pagecolor="#ffffff"
   bordercolor="#666666"
   borderopacity="1"
   objecttolerance="10"
   gridtolerance="10"
   guidetolerance="10"
   inkscape:pageopacity="0"
   inkscape:pageshadow="2"
   inkscape:window-width="909"
   inkscape:window-height="754"
   id="namedview9"
   showgrid="true"
   inkscape:zoom="19.154332"
   inkscape:cx="16.487407"
   inkscape:cy="13.293445"
   inkscape:window-x="0"
   inkscape:window-y="0"
   inkscape:window-maximized="0"
   inkscape:current-layer="Layer_1"><inkscape:grid
     type="xygrid"
     id="grid2982"
     empspacing="2"
     visible="true"
     enabled="true"
     snapvisiblegridlinesonly="true" /></sodipodi:namedview>


<rect
   ry="3.4000001"
   rx="3.2"
   y="3"
   x="4"
   height="17"
   width="16"
   id="rect3759"
   style="fill:#f2f2f2;fill-opacity:1;stroke:none" /><rect
   style="fill:#0044d8;fill-opacity:1;stroke:none"
   id="rect2989"
   width="14"
   height="15"
   x="5"
   y="4"
   rx="2.8000002"
   ry="3" />
<path
   style="fill:#ffffff;fill-opacity:1"
   d="m 11.984445,5.3245238 c -0.368153,0 -0.683293,0.2052752 -0.855543,0.5092356 l -1.3377565,0 C 8.756891,5.8329038 8.0012976,6.5481919 8.002284,7.329639 l 0,5.537937 c -9.874e-4,0.7592 0.6831692,1.397115 1.3688682,1.495881 l -2.0533018,2.673486 1.1822039,0 7.4665507,0 0.715545,0 -2.068857,-2.673486 c 0.686404,-0.09888 1.370417,-0.736681 1.368867,-1.495881 l 0,-5.537937 C 15.98396,6.5481919 15.23691,5.8329038 14.208855,5.8337594 l -0.7311,0 -0.637767,0 C 12.667738,5.529799 12.352598,5.3245238 11.984445,5.3245238 z m 0,0.5092356 c 0.27491,0 0.49777,0.2279925 0.49777,0.5092357 0,0.281243 -0.22286,0.5092356 -0.49777,0.5092356 -0.274911,0 -0.49777,-0.2279926 -0.49777,-0.5092356 0,-0.2812432 0.222859,-0.5092357 0.49777,-0.5092357 z M 9.4644834,7.3932936 c 0.1113913,-0.00391 0.2429587,2.139e-4 0.3888828,0 l 2.1466338,0 2.146633,0 c 0.584402,8.4e-4 0.881658,0.043642 0.886653,0.7797668 l 0,1.0025578 c 0.0015,0.4818481 0.235367,0.7638538 -0.886653,0.7638538 l -2.146633,0 -2.1466338,0 c -0.8940971,0 -0.9031936,-0.2820057 -0.9022083,-0.7638538 l 0,-1.0025578 c 0,-0.6628219 0.1791524,-0.7680279 0.5133255,-0.7797668 z m 0.2799965,4.7899974 c 0.4353411,-0.0021 0.7913481,0.308902 0.7933211,0.684285 -0.0019,0.376727 -0.35798,0.681475 -0.7933211,0.684285 -0.430975,-0.0028 -0.7787521,-0.307678 -0.7777658,-0.684285 -9.884e-4,-0.375383 0.3467908,-0.686119 0.7777658,-0.684285 z m 4.4799301,0 c 0.435343,-0.0021 0.775512,0.308902 0.777766,0.684285 -0.0024,0.376605 -0.342423,0.681353 -0.777766,0.684285 -0.431538,-0.0031 -0.794589,-0.30768 -0.793321,-0.684285 -0.0013,-0.375383 0.361783,-0.686119 0.793321,-0.684285 z M 9.993364,15 l 1.991081,0 1.99108,0 0.388883,0.509237 -4.7443707,0 L 9.993364,15 z m -0.7466544,1.018472 5.4910264,0 0.388882,0.509236 -6.2532361,0 0.3733277,-0.509236 z"
   id="path7"
   inkscape:connector-curvature="0" /></svg>