<?xml version="1.0" encoding="UTF-8"?>
<svg width="21" height="30" version="1.1" viewBox="0 0 21 30" xml:space="preserve" xmlns="http://www.w3.org/2000/svg">
 <defs>
  <linearGradient id="linearGradient1" x1="10.5" x2="10.5" y1="5" y2="29" gradientUnits="userSpaceOnUse">
   <stop stop-color="#fff" stop-opacity=".125" offset="0"/>
   <stop stop-color="#080808" stop-opacity=".125" offset="1"/>
  </linearGradient>
 </defs>
 <path d="m10.5 0c-5.8002 0-10.5 4.7022-10.5 10.475v4e-3c0.0091588 2.8463 1.1778 5.5656 3.2344 7.5332 1.5502 1.4956 3.4061 2.6146 4.4141 3.6992 0.50399 0.54229 0.7772 1.0253 0.84375 1.5156 0.066551 0.49028-0.037971 1.0824-0.60352 1.9551-0.32744 0.50519-0.50381 1.0951-0.50391 1.6973 8.05e-5 1.7081 1.4034 3.1209 3.1152 3.121 1.7118-8e-5 3.1152-1.4128 3.1152-3.1211-1e-4 -0.60213-0.17647-1.192-0.50391-1.6973v-2e-3c-0.56419-0.8714-0.67001-1.4633-0.60352-1.9531 0.06655-0.49028 0.33976-0.97334 0.84375-1.5156 1.008-1.0846 2.8638-2.2036 4.4141-3.6992 2.0566-1.9674 3.2252-4.6868 3.2344-7.5332v-4e-3c-6.1e-5 -5.7721-4.6998-10.475-10.5-10.475zm0 1c5.2629 0 9.4999 4.242 9.5 9.4746-0.0083 2.5763-1.0654 5.0381-2.9277 6.8184-2.8606 2.7598-7.4159 4.3931-4.7988 8.4316 0.22302 0.34368 0.34173 0.7446 0.3418 1.1543-5.5e-5 1.1714-0.94381 2.121-2.1152 2.1211-1.1714-5.5e-5 -2.1152-0.94967-2.1152-2.1211 6.83e-5 -0.4097 0.11878-0.81061 0.3418-1.1543 2.6171-4.0385-1.9382-5.6718-4.7988-8.4316-1.8623-1.7802-2.9194-4.242-2.9277-6.8184 5.52e-5 -5.2327 4.2371-9.4746 9.5-9.4746z" fill="#fff" opacity=".6"/>
 <path d="m10.5 1c5.2629 0 9.4999 4.242 9.5 9.4746-0.0083 2.5763-1.0654 5.0381-2.9277 6.8184-2.8606 2.7598-7.4159 4.3931-4.7988 8.4316 0.22302 0.34368 0.34173 0.7446 0.3418 1.1543-5.5e-5 1.1714-0.94381 2.121-2.1152 2.1211-1.1714-5.5e-5 -2.1152-0.94967-2.1152-2.1211 6.83e-5 -0.4097 0.11878-0.81061 0.3418-1.1543 2.6171-4.0385-1.9382-5.6718-4.7988-8.4316-1.8623-1.7802-2.9194-4.242-2.9277-6.8184 5.52e-5 -5.2327 4.2371-9.4746 9.5-9.4746z" fill="url(#linearGradient1)"/>
 <path d="m10.501 6.8646c-0.58277-0.00865-0.58277 0.87346 0 0.86515h1.293v1.0949l-2.4158 2.0192-0.84008-2.249h0.23911c0.58277 0.00865 0.58277-0.87346 0-0.86515h-1.724c-0.58277-0.00865-0.58277 0.87346 0 0.86515h0.56225l0.76778 2.0547c-0.40322-0.20123-0.85085-0.32443-1.33-0.32443-1.6611 0-3.0169 1.3607-3.0169 3.0279s1.3558 3.0279 3.0169 3.0279 3.0169-1.3607 3.0169-3.0279c0-0.57955-0.17264-1.1169-0.45623-1.5782l2.431-2.0327 0.399 1.0038c-0.89861 0.5254-1.5118 1.4922-1.5118 2.6072 0 1.6672 1.3558 3.0279 3.0169 3.0279 1.6612 0 3.0169-1.3607 3.0169-3.0279s-1.3558-3.0279-3.0169-3.0279c-0.24402 0-0.47787 0.03754-0.70547 0.09291l-0.58751-1.4751v-1.6457c0-0.23886-0.193-0.43256-0.43098-0.43256zm-3.4478 4.3256c0.51054 0 0.97192 0.18332 1.3401 0.47816l-1.6162 1.3518c-0.44038 0.36967 0.11015 1.0334 0.55217 0.66572l1.6162-1.3518c0.16222 0.30436 0.26264 0.64786 0.26264 1.0189 0 1.1996-0.95969 2.1629-2.1549 2.1629s-2.1549-0.96323-2.1549-2.1629c0-1.1996 0.95954-2.1628 2.1549-2.1628zm6.8956 0c1.1952 0 2.1549 0.96323 2.1549 2.1629 0 1.1996-0.95969 2.1628-2.1549 2.1628s-2.1549-0.96323-2.1549-2.1628c0-0.7587 0.38512-1.4206 0.96969-1.8063l0.78462 1.9668c0.21204 0.53906 1.0174 0.21637 0.80146-0.32105l-0.78277-1.9634c0.1243-0.02215 0.25118-0.03885 0.3821-0.03885z" fill="#fff" stroke-width=".76923"/>
 <path d="m4.5 7.2292 6-3 6 3" fill="none" stroke="#fff" stroke-linecap="round"/>
</svg>
