<?xml version="1.0" encoding="UTF-8"?>
<svg width="18" height="18" version="1.1" viewBox="0 0 18 18" xmlns="http://www.w3.org/2000/svg">
  <circle cx="9" cy="9" r="9" fill="#fff" opacity=".6"/>
  <circle cx="9" cy="9" r="8.25" fill="#7f5933"/>
  <path d="m6.525 4.05c-0.672 0-1.215 0.555-1.215 1.2375s0.543 1.2375 1.215 1.2375c0.6705 0 1.215-0.5535 1.215-1.2375s-0.5445-1.2375-1.215-1.2375zm4.95 0c-0.6705 0-1.215 0.555-1.215 1.2375s0.5445 1.2375 1.215 1.2375c0.672 0 1.215-0.5535 1.215-1.2375s-0.543-1.2375-1.215-1.2375zm-8.25 3.3v0.825h2.475v2.475l-1.65 3.3h0.825l1.65-3.3 1.65 3.3h0.825l-1.65-3.3v-2.475h3.3v2.475l-1.65 3.3h0.825l1.65-3.3 1.65 3.3h0.825l-1.65-3.3v-2.475h2.475v-0.825z" fill="#fff"/>
</svg>
