<?xml version="1.0" encoding="UTF-8"?>
<svg width="18" height="18" version="1.1" viewBox="0 0 18 18" xmlns="http://www.w3.org/2000/svg">
 <path d="m7.2031 3h3.625c0.10313 0 0.18839 0.084376 0.1875 0.1875l-0.015625 1.8125h-4l0.015625-1.8125c8.89e-4 -0.10312 0.084373-0.1875 0.1875-0.1875zm-1.1875 0.3125-0.015625 10.688h6l0.015625-10.688c0.001059-0.72422-0.58828-1.3125-1.3125-1.3125h-3.375c-0.72422 0-1.3114 0.58828-1.3125 1.3125zm6.9844 1.6875v9h1.5c0.82735 0 1.5-0.67265 1.5-1.5v-6c0-0.82735-0.67265-1.5-1.5-1.5zm-8 9v-9h-1.5c-0.82735 0-1.5 0.67265-1.5 1.5v6c0 0.82735 0.67265 1.5 1.5 1.5z" fill="#717065"/>
</svg>
