<?xml version="1.0" encoding="UTF-8"?>
<svg width="12" height="12" viewBox="0 0 12 12" version="1.1" xmlns="http://www.w3.org/2000/svg" xmlns:xlink="http://www.w3.org/1999/xlink">
    <g>
        <g id="train-s">
            <path id="Rectangle" d="M12,1.875L12,10.125C12,11.16 11.16,12 10.125,12L1.875,12C0.84,12 0,11.16 0,10.125L0,1.875C0,0.84 0.84,0 1.875,0L10.125,0C11.16,0 12,0.84 12,1.875Z" style="fill:white;fill-opacity:0.6;"/>
            <path id="Rectangle1" d="M11.5,2L11.5,10C11.5,10.828 10.828,11.5 10,11.5L2,11.5C1.172,11.5 0.5,10.828 0.5,10L0.5,2C0.5,1.172 1.172,0.5 2,0.5L10,0.5C10.828,0.5 11.5,1.172 11.5,2Z" style="fill:rgb(47,100,153);"/>
        </g>
        <g id="Shape" transform="matrix(0.745847,0,0,0.745847,2.61572,2.06621)">
            <path d="M8.548,1.249C8.548,0.349 8.187,-0.091 7.212,-0.091L1.858,-0.087C0.883,-0.087 0.525,0.36 0.525,1.26L0.486,7.96C0.486,8.935 0.381,9.29 1.356,9.29L1.858,9.29L1.866,8.626C1.866,8.251 2.213,7.951 2.588,7.951L6.549,7.956C6.924,7.956 7.224,8.256 7.224,8.631L7.224,9.306L7.8,9.305C8.761,9.294 8.553,8.921 8.553,7.946L8.548,1.249ZM5.537,6.298C5.537,6.448 5.387,6.598 5.237,6.598L3.812,6.598C3.662,6.598 3.512,6.448 3.512,6.298L3.512,6.148C3.512,5.998 3.662,5.848 3.812,5.848L5.237,5.848C5.387,5.848 5.537,5.998 5.537,6.148L5.537,6.298ZM6.549,4.605L2.526,4.605C2.076,4.605 1.856,4.46 1.856,3.935L1.852,1.918C1.852,1.468 2.076,1.252 2.526,1.252L6.549,1.256C6.999,1.256 7.226,1.468 7.226,1.918L7.222,3.935C7.228,4.371 7.074,4.605 6.549,4.605Z" style="fill:white;fill-rule:nonzero;"/>
        </g>
        <g id="Path" transform="matrix(1.26636,0,0,0.550798,0.159002,4.17278)">
            <path d="M4.822,8.765L4.35,8.765C4.05,8.765 3.823,8.777 3.825,9.3L3.825,10.05C3.823,10.576 4.05,10.575 4.35,10.575L4.875,10.575C5.175,10.575 5.396,10.574 5.4,10.05L5.4,9.3C5.405,8.762 5.165,8.761 4.822,8.765Z" style="fill:white;fill-rule:nonzero;"/>
        </g>
    </g>
</svg>
