<?xml version="1.0" encoding="UTF-8"?>
<svg version="1.1" viewBox="0 0 24 24" width="18" height="18" xmlns="http://www.w3.org/2000/svg">
 <path d="m18.013 9.3332c-2.5772 0-4.6665 2.9848-4.6665 6.6667s2.0893 6.6667 4.6665 6.6667 4.6665-2.9848 4.6665-6.6667-2.0893-6.6667-4.6665-6.6667zm-14.015-8.6672c-1.1046 1e-8 -2 0.89543-2 2v17.334c0 1.1046 0.89543 2 2 2h4.002c1.1046 0 2-0.89543 2-2v-4.1973c2.1559-0.09596 4.0938-0.66055 5.5586-1.9043 1.7298-1.4554 2.4395-3.508 2.4395-5.8105 0-2.229-0.65387-4.2126-2.3262-5.6035-1.5815-1.3177-3.7223-1.8184-6.0918-1.8184h-5.5684z" fill="#fff" opacity=".8"/>
 <path d="m17.851 20.187c2.004 0 3.156-1.044 3.156-2.616 0-2.916-3.816-2.136-3.816-3.336 0-0.42 0.432-0.66 1.212-0.66 0.564 0 1.272 0.12 1.836 0.336l0.54-1.56c-0.648-0.312-1.536-0.492-2.304-0.492-1.968 0-3.312 1.08-3.312 2.652 0 2.736 3.792 2.04 3.792 3.288 0 0.396-0.324 0.624-1.104 0.624-0.648 0-1.5-0.144-2.292-0.492l-0.54 1.596c0.792 0.384 1.788 0.66 2.832 0.66zm-0.66 1.476h1.884v-2.124h-1.884zm0-9.108h1.884v-2.22h-1.884z" fill="#2e89b0"/>
 <path d="m4 20h4.0007v-6.1819h1.3197c2.1356 0 3.8034-0.4766 4.9515-1.4514 1.1728-0.9867 1.7281-2.4236 1.7281-4.2783 0-1.7952-0.51944-3.1639-1.6058-4.0674-1.0987-0.91541-2.7148-1.3546-4.8134-1.3546l-5.5805 3e-4zm4.0007-14.301h1.4322c0.9876 0 1.6915 0.19043 2.1484 0.59463 0.4691 0.4161 0.70229 1.0338 0.70229 1.9017 0 0.84408-0.24686 1.4975-0.81474 1.9492-0.55552 0.43987-1.4076 0.70102-2.5311 0.70102h-0.93704z" fill="#2e89b0"/>
</svg>
