<?xml version="1.0" encoding="UTF-8"?>
<svg version="1.1" viewBox="0 0 16 16" width="12" height="12" xmlns="http://www.w3.org/2000/svg">
 <path d="m2.6666 3.0013e-4c-0.73689-3.6173e-4 -1.3343 0.5971-1.334 1.334v12c-3.617e-4 0.73689 0.5971 1.3343 1.334 1.334h2.668c0.73689 3.61e-4 1.3343-0.5971 1.334-1.334l-0.00195-3.2461c1.4371-0.06384 2.7287-0.43853 3.7051-1.2676 1.153-0.97001 1.6289-2.337 1.6289-3.873 0-1.486-0.43588-2.8071-1.5508-3.7344-1.0553-0.87929-2.4837-1.2129-4.0625-1.2129zm13.333 10.666a3.3333 5.3333 0 0 0-3.3333-5.3333 3.3333 5.3333 0 0 0-3.3333 5.3333 3.3333 5.3333 0 0 0 3.3333 5.3333 3.3333 5.3333 0 0 0 3.3333-5.3333z" fill="#fff" opacity=".8"/>
 <path d="m2.6666 13.333h2.6671l-1.998e-4 -4.5657h0.8798c1.4237 0 2.5356-0.31773 3.301-0.9676 0.78187-0.6578 1.1521-1.6157 1.1521-2.8522 0-1.1968-0.34629-2.1093-1.0705-2.7116-0.73247-0.61027-1.8099-0.90307-3.2089-0.90307l-3.7203 2e-4zm2.6669-9.9784h0.9548c0.6584 0 1.1277 0.12695 1.4323 0.39642 0.31273 0.2774 0.46819 0.6892 0.46819 1.2678 0 0.56272-0.16457 0.99833-0.54316 1.2995-0.37035 0.29325-0.9384 0.46735-1.6874 0.46735h-0.62469z" fill="#2e89b0"/>
 <path d="m11.968 6.5935v1.2183c-0.85584 0.28931-1.406 0.95593-1.406 1.8234 0 1.9856 2.6291 1.6065 2.6291 2.2781 0 0.15907-0.12028 0.28799-0.61967 0.28799-0.4306 0-1.002-0.09548-1.5322-0.32844l-0.144-0.0631-0.46596 1.3769 0.11649 0.05663c0.41166 0.19959 0.89955 0.35534 1.4221 0.42713v1.0694h1.5985v-1.1714c0.85509-0.27802 1.3381-0.93598 1.3381-1.8121 0-2.105-2.6453-1.6833-2.6453-2.3137 0-0.17142 0.18912-0.31226 0.69412-0.31226 0.37558 0 0.8463 0.079565 1.2216 0.22327l0.14076 0.05339 0.46435-1.3461-0.11649-0.055012c-0.31797-0.1531-0.70842-0.25971-1.0969-0.31388v-1.0986h-1.5985z" fill="#2e89b0"/>
</svg>
