<?xml version="1.0" encoding="UTF-8"?>
<svg width="36" height="36" version="1.1" viewBox="0 0 36 36" xml:space="preserve" xmlns="http://www.w3.org/2000/svg">
 <defs>
  <filter id="filter1" x="-.147" y="-.147" width="1.294" height="1.294" color-interpolation-filters="sRGB">
   <feGaussianBlur stdDeviation="1.5925"/>
  </filter>
  <linearGradient id="linearGradient1" x1="18" x2="18" y1="3" y2="29" gradientUnits="userSpaceOnUse">
   <stop stop-color="#3fa8f3" offset="0"/>
   <stop stop-color="#2089d4" offset="1"/>
  </linearGradient>
 </defs>
 <circle cx="18" cy="18" r="13" filter="url(#filter1)" opacity=".35"/>
 <circle cx="18" cy="16" r="13" fill="url(#linearGradient1)" stroke="#fff" stroke-width="2"/>
 <path d="m12.54 9.6115c-1.3317 0-2.4147 1.1091-2.4147 2.4741v6.6863c0 1.0701 0.66584 1.9843 1.5952 2.329a2.8682 2.9399 0 0 1-0.05053-0.46362 2.8682 2.9399 0 0 1 2.8696-2.94 2.8682 2.9399 0 0 1 2.8674 2.94 2.8682 2.9399 0 0 1-0.06811 0.61084h9.659c0.32463 0 0.58885-0.2715 0.58885-0.60424s-0.26423-0.60204-0.58885-0.60204h-1.7907c0.21775-0.37167 0.34277-0.80587 0.34277-1.27v-3.4431c0-3.1537-2.5019-5.7172-5.5787-5.7172h-7.431zm0.52733 2.0851h2.0346c0.32468 0 0.58886 0.26932 0.58886 0.60205v2.0874c0 0.33274-0.26423 0.60204-0.58886 0.60204h-2.0346c-0.32463 0-0.58886-0.26932-0.58886-0.60204v-2.0874c0-0.33274 0.26423-0.60205 0.58886-0.60205zm7.486 1.0437h0.156c1.4041 0 2.5445 1.1712 2.5445 2.6103v4.6911h-1.1755v-4.6911c0-0.77456-0.61315-1.4062-1.3689-1.4062h-0.156c-0.75567 0-1.3689 0.63165-1.3689 1.4062v4.6911h-1.1777v-4.6911c0-1.4391 1.1425-2.6103 2.5466-2.6103zm-6.0139 6.1457a1.7085 1.7511 0 0 0-1.7095 1.7512 1.7085 1.7511 0 0 0 1.7095 1.7512 1.7085 1.7511 0 0 0 1.7073-1.7512 1.7085 1.7511 0 0 0-1.7073-1.7512z" fill="#fff"/>
</svg>
