<?xml version="1.0" encoding="UTF-8"?>
<svg width="36" height="36" version="1.1" viewBox="0 0 36 36" xml:space="preserve" xmlns="http://www.w3.org/2000/svg">
 <defs>
  <filter id="filter1" x="-.147" y="-.147" width="1.294" height="1.294" color-interpolation-filters="sRGB">
   <feGaussianBlur stdDeviation="1.5925"/>
  </filter>
  <linearGradient id="linearGradient1" x1="18" x2="18" y1="3" y2="29" gradientUnits="userSpaceOnUse">
   <stop stop-color="#3fa8f3" offset="0"/>
   <stop stop-color="#2089d4" offset="1"/>
  </linearGradient>
 </defs>
 <circle cx="18" cy="18" r="13" filter="url(#filter1)" opacity=".35"/>
 <circle cx="18" cy="16" r="13" fill="url(#linearGradient1)" stroke="#fff" stroke-width="2"/>
 <path d="m12.167 8.5c-0.91665 0-1.6582 0.75033-1.6582 1.667l-0.008789 11.666c0 0.91665 0.75033 1.667 1.667 1.667h11.666c0.91665 0 1.667-0.75033 1.667-1.667v-11.666c0-0.91665-0.75033-1.667-1.667-1.667zm5.209 2.25h1.248c0.48126 0 0.87598 0.39472 0.87598 0.87598v2.874h2.874c0.48126 0 0.87598 0.39472 0.87598 0.87598v1.248c0 0.48126-0.39472 0.87598-0.87598 0.87598h-2.874v2.874c0 0.48126-0.39472 0.87598-0.87598 0.87598h-1.248c-0.48126 0-0.87598-0.39472-0.87598-0.87598v-2.874h-2.877c-0.48126 0-0.87305-0.39472-0.87305-0.87598v-1.248c0-0.48126 0.3918-0.87598 0.87305-0.87598h2.877v-2.874c0-0.48126 0.39472-0.87598 0.87598-0.87598z" fill="#fff"/>
</svg>
