<?xml version="1.0" encoding="UTF-8"?>
<svg width="20" height="24" version="1.1" viewBox="0 0 20 24" xml:space="preserve" xmlns="http://www.w3.org/2000/svg">
 <path d="m2.7073 0.49998c2.6448 1.931 5.0287 1.9106 7.2927 0 2.264 1.9106 4.6479 1.931 7.2927 0 6.9413 12.6-4.345 20.061-7.2927 20.061s-14.234-7.4606-7.2927-20.061z" fill="#fff" stroke="#fff" stroke-linejoin="round"/>
 <path d="m1.1992 6.2539c-0.32837 1.9515-0.19224 3.7081 0.24609 5.2676 0.36189 1.2875 0.93041 2.4406 1.6152 3.4551 1.1184 1.6567 2.5427 2.9422 3.8555 3.8047s2.558 1.2793 3.084 1.2793c0.52603 0 1.7712-0.41676 3.084-1.2793 1.3128-0.86254 2.7371-2.148 3.8555-3.8047 0.68352-1.0125 1.2513-2.1627 1.6133-3.4473 0.43999-1.5614 0.57693-3.3208 0.24805-5.2754z" fill="#264d99"/>
 <path d="m1.4766 4.9766c-0.11406 0.4346-0.20717 0.86037-0.27734 1.2773h17.602c-0.07017-0.41697-0.16328-0.84274-0.27734-1.2773z" fill="#fff"/>
 <path d="m1.4766 4.9766h17.047c-0.31246-1.1906-0.79469-2.448-1.4805-3.7695-1.1938 0.76436-2.3767 1.2368-3.541 1.2344-1.2254-0.0025941-2.3947-0.50897-3.502-1.3574-1.1072 0.84845-2.2765 1.3548-3.502 1.3574-1.1643 0.0024645-2.3472-0.47002-3.541-1.2344-0.68578 1.3216-1.168 2.579-1.4805 3.7695z" fill="#bf3939"/>
</svg>
