<?xml version="1.0" encoding="UTF-8"?>
<svg width="18" height="18" version="1.1" viewBox="0 0 18 18" xmlns="http://www.w3.org/2000/svg">
 <path d="m5.2156 3.944-0.62222 3.1111h-2.0101c-0.32326 0-0.58333-0.26007-0.58333-0.58333v-0.0996c0-0.0632 0.01-0.12396 0.0292-0.18472l0.61493-1.8448c0.0802-0.23819 0.30382-0.39861 0.55417-0.39861zm0.56875 3.1111 0.62223-3.1111h2.0101v3.1111zm3.799-3.1111h2.0101l0.62222 3.1111h-2.6323zm3.201 0h2.0174c0.25034 0 0.47395 0.16042 0.55416 0.39861l0.61493 1.8448c0.0195 0.0583 0.0292 0.12152 0.0292 0.18472v0.0996c0 0.32326-0.26007 0.58333-0.58333 0.58333h-2.0101zm-10.16 4.2778h12.753c-0.01 0.051-0.32327 1.784-0.94549 5.1941-0.0729 0.39618-0.43507 0.67083-0.83611 0.63437-0.40104-0.0365-0.70729-0.36944-0.70729-0.77291v-0.38889h-7.7778v0.38889c0 0.40347-0.30625 0.73889-0.70729 0.77534-0.40104 0.0365-0.7632-0.24062-0.83611-0.6368-0.6198-3.4125-0.93577-5.1431-0.94306-5.1941z" fill="#717065"/>
  <!--Source: Fontawesome - CC-BY - https://fontawesome.com/icons/dumpster?f=classic&s=solid -->
</svg>
