<?xml version="1.0" encoding="UTF-8"?>
<svg width="19" height="19" version="1.1" viewBox="0 0 19 19" xmlns="http://www.w3.org/2000/svg">
 <path d="m 4.9637 5.2645 1.1321 -1.8763 0.8154 -1.3537 c 0.3088 -0.5146 1.0529 -0.5146 1.3617 0 l 1.1717 1.9475 -0.9737 1.6308 -0.7917 1.2825 -2.7155 -1.6308 z m 12.6267 4.6075 -1.2667 -2.1058 -2.7392 1.5833 1.7495 2.9213 h 0.8946 c 0.6017 0 1.1479 -0.3404 1.417 -0.8788 0.1108 -0.2217 0.1663 -0.4592 0.1663 -0.7046 0 -0.285 -0.0792 -0.5621 -0.2217 -0.8154 z m -4.5283 6.357 h 1.1875 c 0.6017 0 1.1479 -0.3404 1.417 -0.8788 l 1.1479 -2.288 h -3.7525 v -1.5833 l -3.1667 3.1667 3.1667 3.1667 v -1.5833 z m -4.75 -3.1667 h -3.4042 l -0.665 1.1162 c -0.2375 0.3958 -0.2533 0.8867 -0.0475 1.3063 0.2217 0.4512 0.6887 0.7442 1.2033 0.7442 h 2.9133 v -3.1667 z m -3.0717 -2.098 1.3695 0.8233 -1.0846 -4.3463 -4.3383 1.0846 1.3458 0.8075 -0.3246 0.5463 c -0.2771 0.4671 -0.3008 1.0371 -0.0554 1.52 l 1.2905 2.5808 1.797 -3.0162 z m 8.6292 -7.2912 -1.0292 -1.718 c -0.2929 -0.475 -0.8075 -0.7679 -1.3617 -0.7679 h -2.7945 l 2.47 4.1167 -1.3617 0.8154 4.3463 1.0846 1.0846 -4.3463 -1.3537 0.8154 z" fill="#fff"/>
</svg>
