<svg width="21" height="20" viewBox="0 0 21 20" fill="none" xmlns="http://www.w3.org/2000/svg">
<path d="M10.5 0C7.84784 0 5.3043 1.05357 3.42893 2.92893C1.55357 4.8043 0.5 7.34784 0.5 10C0.5 12.6522 1.55357 15.1957 3.42893 17.0711C5.3043 18.9464 7.84784 20 10.5 20C11.8132 20 13.1136 19.7413 14.3268 19.2388C15.5401 18.7362 16.6425 17.9997 17.5711 17.0711C18.4997 16.1425 19.2362 15.0401 19.7388 13.8268C20.2413 12.6136 20.5 11.3132 20.5 10C20.5 8.68678 20.2413 7.38642 19.7388 6.17317C19.2362 4.95991 18.4997 3.85752 17.5711 2.92893C16.6425 2.00035 15.5401 1.26375 14.3268 0.761205C13.1136 0.258658 11.8132 0 10.5 0ZM10.5 2C12.6217 2 14.6566 2.84285 16.1569 4.34315C17.6571 5.84344 18.5 7.87827 18.5 10C18.5 12.1217 17.6571 14.1566 16.1569 15.6569C14.6566 17.1571 12.6217 18 10.5 18C8.37827 18 6.34344 17.1571 4.84315 15.6569C3.34285 14.1566 2.5 12.1217 2.5 10C2.5 7.87827 3.34285 5.84344 4.84315 4.34315C6.34344 2.84285 8.37827 2 10.5 2Z" fill="#757575"/>
<path fill-rule="evenodd" clip-rule="evenodd" d="M14.9084 10.8744C15.5947 10.4935 15.5947 9.50651 14.9084 9.12562L8.95941 5.82423C8.29289 5.45434 7.47418 5.93634 7.47418 6.69861V13.3014C7.47418 14.0637 8.29289 14.5457 8.95942 14.1758L14.9084 10.8744Z" fill="#757575"/>
</svg>
