<svg xmlns="http://www.w3.org/2000/svg" width="48" height="64">
    <ellipse transform="matrix(.05 -.999 .999 .05 -36.602 80.966)" opacity=".5" fill="#808285" enable-background="new" cx="24.244" cy="59.716" rx="1.387" ry="4.166"/>
    <ellipse transform="matrix(.05 -.999 .999 .05 -36.553 80.791)" opacity=".5" enable-background="new" cx="24.184" cy="59.606" rx=".784" ry="2.353"/>
    <path fill="#360" d="M42.125,20.689c0-10.246-8.087-18.551-18.062-18.551S6,10.443,6,20.689c0,4.472,1.745,8.42,4.107,11.776	c2.197,3.121,4.364,7.096,7.818,13.114c2.405,4.192,4.471,9.91,5.492,12.961c0.109,0.326,0.155,0.587,0.264,0.739	c0.365,0.517,0.475,0.47,0.475,0.47s0.109,0.062,0.43-0.519c0.087-0.156,0.139-0.392,0.241-0.686	c1.138-3.268,3.411-9.545,5.319-13.309c2.097-4.131,6.258-10.584,7.461-12.305C40.078,29.395,42.125,25.388,42.125,20.689z"/>
    <path fill="#8AC33F" d="M41.167,20.829C41.167,10.879,33.581,3,24.25,3S7.219,10.925,7.219,20.875c0,4.342,1.79,8.131,3.999,11.39	c2.055,3.031,4.332,6.92,7.563,12.767c2.25,4.071,5.406,13.438,5.406,13.438s3.497-10.283,5.281-13.938	c1.962-4.011,6.22-10.173,7.345-11.845C39.123,29.251,41.167,25.391,41.167,20.829z"/>
    <path fill="#fff" d="M23.342,10.624c0.483-0.979,1.274-0.979,1.758,0l1.735,3.511c0.483,0.978,1.763,1.907,2.843,2.064 l3.885,0.564c1.08,0.157,1.324,0.909,0.543,1.67l-2.81,2.735c-0.78,0.762-1.271,2.265-1.085,3.34l0.662,3.859 c0.184,1.076-0.455,1.541-1.422,1.033l-3.475-1.825c-0.965-0.508-2.546-0.507-3.513,0L18.991,29.4 c-0.966,0.507-1.605,0.043-1.421-1.033l0.663-3.859c0.185-1.076-0.304-2.579-1.086-3.34l-2.81-2.736 c-0.782-0.762-0.538-1.513,0.542-1.67l3.886-0.564c1.08-0.157,2.359-1.086,2.842-2.064L23.342,10.624z"/>
</svg>
