<svg xmlns="http://www.w3.org/2000/svg" xmlns:xlink="http://www.w3.org/1999/xlink" width="24" height="24" viewBox="0 0 96 96" version="1">
    <defs>
        <linearGradient id="c">
            <stop offset="0" stop-color="#fff"/>
            <stop offset="1" stop-color="#fff" stop-opacity="0"/>
        </linearGradient>
        <linearGradient id="d">
            <stop offset="0" stop-color="#fff"/>
            <stop offset="1" stop-color="#fff" stop-opacity="0"/>
        </linearGradient>
        <linearGradient id="b">
            <stop offset="0" stop-color="#fff" stop-opacity=".875"/>
            <stop offset="1" stop-color="#fff" stop-opacity="0"/>
        </linearGradient>
        <linearGradient id="a">
            <stop offset="0" stop-color="#1f2259"/>
            <stop offset="1" stop-color="#2fb5ea"/>
        </linearGradient>
        <filter id="i" color-interpolation-filters="sRGB">
            <feGaussianBlur stdDeviation="1.466"/>
        </filter>
        <filter x="-.101" width="1.202" y="-.138" height="1.276" id="k" color-interpolation-filters="sRGB">
            <feGaussianBlur stdDeviation="3.411"/>
        </filter>
        <filter id="f" color-interpolation-filters="sRGB">
            <feGaussianBlur stdDeviation=".842"/>
        </filter>
        <linearGradient xlink:href="#a" id="e" gradientUnits="userSpaceOnUse" x1="194.689" y1="31.854" x2="194.689" y2="74.712"/>
        <radialGradient xlink:href="#b" id="g" gradientUnits="userSpaceOnUse" gradientTransform="matrix(.162 2.107 -1.691 .263 228.263 -371.43)" cx="180.725" cy="38.594" fx="180.725" fy="38.594" r="28.884"/>
        <linearGradient xlink:href="#c" id="h" gradientUnits="userSpaceOnUse" x1="181.996" y1="36.387" x2="183.279" y2="53.875"/>
        <radialGradient xlink:href="#d" id="j" gradientUnits="userSpaceOnUse" gradientTransform="matrix(-1.018 0 0 -1.182 391.624 74.389)" cx="194.079" cy="26.293" fx="194.079" fy="26.293" r="28.884"/>
    </defs>
    <path d="M72.427 48.012c0 12.363-10.022 22.385-22.385 22.385-12.363 0-22.385-10.022-22.385-22.385 0-12.363 10.022-22.385 22.385-22.385 12.363 0 22.385 10.022 22.385 22.385z" fill="url(#e)" filter="url(#f)"/>
    <path transform="matrix(.436 -.078 .055 .307 -39.974 33.867)" d="M222.448 56.486c0 15.952-12.932 28.884-28.884 28.884s-28.884-12.932-28.884-28.884 12.932-28.884 28.884-28.884 28.884 12.932 28.884 28.884z" fill="url(#g)" stroke="url(#h)" stroke-width=".815" filter="url(#i)"/>
    <path d="M38.99 63.519c-2.712-6.174 1.931-14.179 10.37-17.879 8.439-3.701 17.478-1.697 20.19 4.477 2.712 6.174-1.931 14.179-10.37 17.879-8.439 3.701-17.478 1.697-20.19-4.477z" fill="url(#j)" filter="url(#k)"/>
</svg>
