<svg width="32" height="32" viewBox="0 0 32 32">
  <g fill="none" fill-rule="evenodd">
    <circle cx="16" cy="16" r="16" fill="#C15746"/>
    <circle cx="16" cy="16" r="15" fill="#FFF"/>
    <path fill="#C15746" d="M22.0660837,15.824967 C21.5043654,16.1715487 21.0818387,16.6094485 20.7968533,17.1392004 C20.6571114,17.4302436 20.5718358,17.7025959 20.5410266,17.9567914 C20.499214,18.2729338 20.5355249,18.5789297 20.6488589,18.8758471 C20.8150087,19.2469939 21.0708354,19.51454 21.4174393,19.6779514 C21.6369551,19.7884944 21.8889306,19.8637918 22.173916,19.9043777 C22.5749862,19.9396232 23.0090664,19.8750063 23.4739557,19.712663 C23.7864494,19.5770208 24.0813378,19.404531 24.3586209,19.1957276 C24.7283318,18.9020142 25.0067151,18.5757255 25.1932211,18.2168612 L25.3208594,17.9487812 C25.3907302,17.8040605 25.4402451,17.6240945 25.4683035,17.4104847 C25.5304722,17.0564268 25.5013135,16.7285358 25.3797269,16.4273462 C25.2267811,16.0732883 24.9863591,15.8052081 24.6573605,15.624708 C24.4504984,15.5040185 24.2111767,15.4303231 23.9393952,15.4025539 C23.5174188,15.3523556 23.08774,15.4052241 22.6503589,15.560625 C22.450649,15.6364564 22.2553404,15.7245704 22.0660837,15.824967 L22.0660837,15.824967 L22.0660837,15.824967 Z M22.500714,9.73442135 C22.2289325,9.63883102 21.9599019,9.60465347 21.6930719,9.63295675 C21.3409664,9.65004552 20.9872103,9.74723793 20.6301533,9.92293187 C20.2626431,10.0986258 19.9077867,10.3512193 19.5666845,10.6801782 C19.2838998,10.9690852 19.0440278,11.3001802 18.8443181,11.6745312 C18.7480391,11.8726541 18.6825695,12.0296572 18.6462587,12.1450065 C18.5642841,12.3810451 18.5081673,12.6256282 18.4795586,12.8798237 C18.4410471,13.2338818 18.4850603,13.5825995 18.6110481,13.9265111 C18.763994,14.3307674 19.034675,14.6351612 19.4225413,14.8386243 C19.6420571,14.9491673 19.8835796,15.0191246 20.1443576,15.0495639 C20.465654,15.074129 20.8188598,15.0271348 21.2039753,14.9059114 C21.5560808,14.7804158 21.9015844,14.586031 22.2404861,14.322223 C22.7092265,13.9580185 23.071235,13.5227888 23.3270617,13.0154659 C23.4822082,12.731365 23.5834385,12.44406 23.6302025,12.1524828 C23.7105266,11.7759957 23.7193293,11.4208697 23.6571606,11.0865705 C23.551529,10.5472061 23.2731455,10.1450859 22.8231107,9.88127798 L22.807706,9.85884897 L22.5320735,9.73442135 L22.500714,9.73442135 L22.500714,9.73442135 L22.500714,9.73442135 Z M10.687573,15.9910485 C10.3228137,16.0935812 9.970158,16.2292233 9.62850559,16.397975 C9.14270997,16.6516364 8.7454909,16.9378734 8.43739856,17.2566858 C8.23053656,17.4601491 8.04017948,17.7100724 7.86687754,18.0053877 C7.72933631,18.2494367 7.63305745,18.4913496 7.57584031,18.7332626 C7.41519215,19.406133 7.50982052,20.0539044 7.85917524,20.6765766 C8.07153889,21.0188861 8.35982531,21.2960446 8.72458464,21.5091202 L8.91879285,21.6111189 L9.59824652,21.8706546 C9.83646792,21.9304654 10.2358877,22.0100349 10.797606,22.1077614 L11.9226932,22.3219051 L12.4778096,22.4992011 C12.7776495,22.6348432 12.9949647,22.7427162 13.1297551,22.8228198 C13.3960349,22.981425 13.6848715,23.1806159 13.9951645,23.4214608 C14.2229327,23.602495 14.5568829,23.8753813 14.9959145,24.2390518 C15.2654953,24.442515 15.4800596,24.5797593 15.6407078,24.6497164 L15.698475,24.6764176 L15.721582,24.6988466 L16.008768,24.8307506 L16.0362763,24.8307506 L16.1408077,24.8761426 L16.4775086,24.9546442 C16.7960541,25.0123188 17.1250527,25.014989 17.4639542,24.9626546 C17.9321445,24.8772107 18.3392666,24.706857 18.6864206,24.4505254 C19.0561315,24.1642884 19.3372658,23.7899375 19.528173,23.3274725 C19.6398565,23.071675 19.7174297,22.7710194 19.7614429,22.4271079 C19.8027053,22.0228515 19.7856502,21.6271397 19.7102776,21.2405061 C19.628303,20.7785752 19.4918621,20.3337331 19.3031555,19.9065138 C19.1403067,19.5674084 19.011018,19.2026699 18.9152892,18.8106961 C18.8217612,18.4139162 18.7507899,18.0331569 18.7018253,17.6689524 L18.5576821,16.6446942 C18.4878111,16.2804896 18.4019854,15.9638133 18.297454,15.6951992 C18.1059966,15.2455508 17.8270631,14.875472 17.4595529,14.5838949 C17.2218816,14.4055308 16.9484497,14.2458576 16.6409076,14.1054092 C16.3872815,14.0044786 16.118801,13.9430658 15.8338156,13.9206368 C15.504817,13.9083542 15.1373068,13.967097 14.7312851,14.0979328 C14.457303,14.2036697 14.1899228,14.3190188 13.9285946,14.4439805 C13.6876223,14.5625339 13.3399181,14.7494423 12.8849317,15.0052399 C12.4145406,15.2663777 12.0156712,15.469841 11.6894234,15.6156295 C11.358224,15.7833132 11.0248241,15.9077407 10.687573,15.9910485 L10.687573,15.9910485 L10.687573,15.9910485 Z M13.6529618,8.90561583 C13.5726379,9.13364415 13.5038672,9.36861479 13.4466501,9.60999371 C13.3718277,10.0895474 13.372928,10.522107 13.4505012,10.9092745 C13.5126698,11.2836255 13.6513114,11.627537 13.8658757,11.9415432 C14.0551325,12.202681 14.2674961,12.3911916 14.5062677,12.5070748 C14.7852013,12.6624759 15.0910929,12.7329671 15.4217421,12.7180144 C15.6907727,12.7030618 15.9664054,12.6261623 16.2486399,12.488384 C16.6519109,12.2651619 16.9858609,11.958632 17.2493899,11.5687944 C17.3682255,11.4155294 17.4810094,11.229689 17.5871911,11.0112731 L17.7577423,10.5140966 C17.8485195,10.2380061 17.9062869,9.94269077 17.9288436,9.62921859 C17.9414973,9.13417818 17.863374,8.67117922 17.6917225,8.23915367 C17.5778383,7.95985903 17.4138892,7.71527595 17.1987748,7.50433641 C16.939647,7.24586871 16.6414577,7.0888656 16.3020059,7.03386111 C15.9763084,6.96604004 15.6401576,7.0002176 15.2935537,7.13532571 C15.0014162,7.25067493 14.7329356,7.42530084 14.4903128,7.6586694 C14.1926737,7.94010013 13.9484005,8.28294365 13.7563929,8.68719995 L13.6529618,8.90561583 L13.6529618,8.90561583 L13.6529618,8.90561583 Z M10.7579941,9.35312809 C10.4141411,9.26821825 10.0724887,9.29438543 9.73358708,9.43269768 C9.45135248,9.55338714 9.19882679,9.74296573 8.97656017,10.0014334 C8.88083148,10.1173167 8.78785361,10.2486866 8.69707639,10.3971453 L8.65801468,10.4387992 L8.49516587,10.7779046 L8.41759262,11.0337022 C8.31141079,11.3802838 8.2673976,11.7257975 8.28555304,12.069709 C8.29875699,12.4611487 8.36972827,12.8093325 8.49956719,13.1131923 C8.64701139,13.4822029 8.85002224,13.7849947 9.10859975,14.0210333 C9.32316406,14.2074078 9.56358612,14.3414479 9.83041612,14.4242216 C10.1979263,14.5224821 10.5637859,14.4957809 10.9285453,14.3451861 C11.2129805,14.2298368 11.4693574,14.035452 11.6971257,13.7614976 C11.8341168,13.6055626 11.965056,13.3988952 12.088293,13.1404276 L12.2280348,12.7788932 C12.3160612,12.5022687 12.3611748,12.2427328 12.3639255,11.9992178 C12.3897833,11.4790783 12.3045077,10.9925823 12.1080989,10.5375937 C11.9628553,10.2262576 11.7675467,9.96618783 11.5221732,9.75845243 C11.2894535,9.54537678 11.0352773,9.41187075 10.7579941,9.35312809 L10.7579941,9.35312809 L10.7579941,9.35312809 Z"/>
  </g>
</svg>
