<svg width="32" height="32" viewBox="0 0 32 32">
  <g fill="none" fill-rule="evenodd">
    <circle cx="16" cy="16" r="16" fill="#BB9342"/>
    <circle cx="16" cy="16" r="15" fill="#FFF"/>
    <path fill="#BB9342" fill-rule="nonzero" d="M14.8,8 C13.7112955,8 12.871903,8.55407608 12.225,9.275 C11.8210116,9.0150128 11.3718534,8.8 10.8,8.8 C9.2609524,8.8 8,10.0609524 8,11.6 C8,11.7554448 8.05535472,12.072685 8.175,12.325 C8.07871144,12.4568978 8,12.6034899 8,12.8 L8,20.8 C8,22.56 9.44,24 11.2,24 L18.4,24 C20.16,24 21.6,22.56 21.6,20.8 L21.6,19.875 C22.979648,19.5193704 25,18.2909992 25,16.8 L25,14.4 C25,13.9822222 24.8516248,13.5516244 24.55,13.25 C24.2483752,12.9483756 23.8177776,12.8 23.4,12.8 L21.6,12.8 C21.6,12.6034899 21.5212888,12.4568978 21.425,12.325 C21.5446448,12.072685 21.6,11.7554448 21.6,11.6 C21.6,10.0609524 20.339048,8.8 18.8,8.8 C18.2281464,8.8 17.7789888,9.0150128 17.375,9.275 C16.7280968,8.55407608 15.8887048,8 14.8,8 Z M14.8,9.6 C15.6152384,9.6 16.2137472,10.0377032 16.575,10.7 C16.6966889,10.9227738 16.9168733,11.0745838 17.1683586,11.1091014 C17.419844,11.143619 17.6727885,11.0567483 17.85,10.875 C18.1745752,10.5504247 18.4266664,10.4 18.8,10.4 C19.500952,10.4 20,10.8990476 20,11.6 C20,11.68 19.9959632,11.6655743 20,11.65 C19.9314384,11.7552378 19.8886165,11.875139 19.875,12 L18.4,12 C17.52,12 16.8,12.72 16.8,13.6 C16.8,14.4 17.6,15.12 17.6,16 C17.6,16.88 16.88,17.6 16,17.6 C15.12,17.6 14.4,16.88 14.4,16 C14.4,15.12 15.2,14.4 15.2,13.6 C15.2,12.72 14.48,12 13.6,12 L9.725,12 C9.71138347,11.875139 9.66856159,11.7552378 9.6,11.65 C9.60403712,11.6655743 9.6,11.68 9.6,11.6 C9.6,10.8990476 10.0990476,10.4 10.8,10.4 C11.1733334,10.4 11.4254247,10.5504247 11.75,10.875 C11.9272115,11.0567483 12.180156,11.143619 12.4316414,11.1091014 C12.6831267,11.0745838 12.9033111,10.9227738 13.025,10.7 C13.3862528,10.0377032 13.9847619,9.6 14.8,9.6 Z M9.6,13.6 L11.2,13.6 L11.2,20.8 C11.2,21.68 11.92,22.4 12.8,22.4 L11.2,22.4 C10.32,22.4 9.6,21.68 9.6,20.8 L9.6,13.6 Z M21.6,14.4 L23.4,14.4 L23.4,16.8 C23.4,17.4480864 22.0919456,17.9422088 21.6,18.2 L21.6,14.4 Z"/>
  </g>
</svg>
