<svg width="32" height="32" viewBox="0 0 32 32">
  <g fill="none" fill-rule="evenodd">
    <circle cx="16" cy="16" r="16" fill="#7F5933"/>
    <circle cx="16" cy="16" r="15" fill="#FFF"/>
    <path fill="#7F5933" d="M8.99264706,7 C8.52471324,7 8,7.5 8,8 L8,15 C8,17.216 8.99264706,20 12.9632353,20 C13.3192779,20 13.6443699,19.983 13.9558824,19.938 L13.9558824,17.0005 L9.98529412,17.0005 C9.98529412,17.0005 10.4816176,15.0005 12.9632353,15.0005 C13.4595588,15.0005 13.6546437,15.0745 13.9558824,15.188 L13.9558824,13.0005 C13.9558824,12.0838 14.3184864,11.3179 14.9485294,11.0005 C15.9411765,10.5005 16.3419279,10.7024 16.9338235,11.0005 L17.9264706,11.5005 L17.9264706,8.0005 C17.9264706,7.5005 17.4017574,7.0005 16.9338235,7.0005 C15.9411765,7.0005 14.9485294,8.0005 12.9632353,8.0005 C10.9779412,8.0005 9.98529412,7.0005 8.99264706,7.0005 L8.99264706,7 Z M10.7297794,10.5 C11.4150632,10.5 11.9705882,11.0596 11.9705882,11.75 C11.9705882,12.4404 11.4150632,13 10.7297794,13 C10.0444956,13 9.48897059,12.4404 9.48897059,11.75 C9.48897059,11.0596 10.0444956,10.5 10.7297794,10.5 L10.7297794,10.5 Z M15.9411765,12 C15.4732426,12 14.9485294,12.5 14.9485294,13 L14.9485294,20 C14.9485294,22.216 15.9411765,25 19.9117647,25 C23.8823529,25 24.875,22.216 24.875,20 L24.875,13 C24.875,12.5 24.3502868,12 23.8823529,12 C22.8897059,12 21.8970588,13 19.9117647,13 C17.9264706,13 16.9338235,12 15.9411765,12 L15.9411765,12 Z M17.6783088,15.5 C18.3635926,15.5 18.9191176,16.0596 18.9191176,16.75 C18.9191176,17.4404 18.3635926,18 17.6783088,18 C16.993025,18 16.4375,17.4404 16.4375,16.75 C16.4375,16.0596 16.993025,15.5 17.6783088,15.5 L17.6783088,15.5 Z M22.1452206,15.5 C22.8305044,15.5 23.3860294,16.0596 23.3860294,16.75 C23.3860294,17.4404 22.8305044,18 22.1452206,18 C21.4599368,18 20.9044118,17.4404 20.9044118,16.75 C20.9044118,16.0596 21.4599368,15.5 22.1452206,15.5 L22.1452206,15.5 Z M16.9338235,21 L22.8897059,21 C22.8897059,21 22.3933824,23 19.9117647,23 C17.4301471,23 16.9338235,21 16.9338235,21 L16.9338235,21 Z"/>
  </g>
</svg>
