<svg width="32" height="32" viewBox="0 0 32 32">
  <g fill="none" fill-rule="evenodd">
    <circle cx="16" cy="16" r="16" fill="#7F5933"/>
    <circle cx="16" cy="16" r="15" fill="#FFF"/>
    <path fill="#7F5933" d="M20.8,6 C18.6666667,9.15789474 16.7635061,11.2686316 14.4,13.3684211 C12.1422645,15.3742105 8,14.6855789 8,17.5789474 L8,18.6315789 C8,19.6842105 9.06666667,20.6857895 9.06666667,21.7894737 L9.06666667,22.8421053 C9.06666667,24.4210526 8.53333333,24.4210526 8,26 L9.06666667,26 L11.2,22.8421053 L11.2,26 L12.2666667,26 L12.2666667,24.4210526 L12.2666667,19.6842105 L14.4,19.6842105 L14.4,26 L15.4666667,26 L15.4666667,22.8421053 L15.4666667,21.2631579 L16.5333333,22.8421053 L17.6,26 L18.6666667,26 L17.0333333,19.3881579 C17.6621291,19.0095347 17.6,18.3095979 17.6,17.5789474 L17.6,14.4210526 L21.8666667,8.63157895 L23.4,9.10032895 C23.7196949,9.19806179 24,9.15789474 24,8.89473684 C24,8.36842105 23.6516032,8.25126568 23.4666667,8.10526316 L20.8,6 Z"/>
  </g>
</svg>
