<svg width="32" height="32" viewBox="0 0 32 32">
  <g fill="none" fill-rule="evenodd">
    <circle cx="16" cy="16" r="16" fill="#7F5933"/>
    <circle cx="16" cy="16" r="15" fill="#FFF"/>
    <path fill="#7F5933" d="M24,22.9333333 L24,22.9991283 C24,23.5518945 23.5553691,24 22.9991283,24 L9.00087166,24 C8.4481055,24 8,23.5553691 8,22.9991283 L8,22.9333333 L9.06666667,22.9333333 L9.06666667,20.8 L8,20.8 L8,11.2 L9.06666667,11.2 L9.06666667,9.06666667 L8,9.06666667 L8,9.00087166 C8,8.4481055 8.44463086,8 9.00087166,8 L22.9991283,8 C23.5518945,8 24,8.44463086 24,9.00087166 L24,9.06666667 L22.9333333,9.06666667 L22.9333333,11.2 L24,11.2 L24,20.8 L22.9333333,20.8 L22.9333333,22.9333333 L24,22.9333333 Z M10.1333333,9.06666667 L10.1333333,11.2 L12.2666667,11.2 L12.2666667,9.06666667 L10.1333333,9.06666667 Z M13.3333333,9.06666667 L13.3333333,11.2 L15.4666667,11.2 L15.4666667,9.06666667 L13.3333333,9.06666667 Z M16.5333333,9.06666667 L16.5333333,11.2 L18.6666667,11.2 L18.6666667,9.06666667 L16.5333333,9.06666667 Z M19.7333333,9.06666667 L19.7333333,11.2 L21.8666667,11.2 L21.8666667,9.06666667 L19.7333333,9.06666667 Z M10.1333333,20.8 L10.1333333,22.9333333 L12.2666667,22.9333333 L12.2666667,20.8 L10.1333333,20.8 Z M13.3333333,20.8 L13.3333333,22.9333333 L15.4666667,22.9333333 L15.4666667,20.8 L13.3333333,20.8 Z M16.5333333,20.8 L16.5333333,22.9333333 L18.6666667,22.9333333 L18.6666667,20.8 L16.5333333,20.8 Z M19.7333333,20.8 L19.7333333,22.9333333 L21.8666667,22.9333333 L21.8666667,20.8 L19.7333333,20.8 Z M13.8666667,13.0657308 L13.8666667,18.9342692 C13.8666667,19.3732005 14.1594596,19.5283783 14.520638,19.2755534 L18.5460286,16.4577799 C18.9132568,16.2007202 18.9072071,15.7950449 18.5460286,15.5422201 L14.520638,12.7244466 C14.1534098,12.4673869 13.8666667,12.6244199 13.8666667,13.0657308 Z"/>
  </g>
</svg>
