<svg width="32" height="32" viewBox="0 0 32 32">
  <g fill="none" fill-rule="evenodd">
    <circle cx="16" cy="16" r="16" fill="#7F5933"/>
    <circle cx="16" cy="16" r="15" fill="#FFF"/>
    <path fill="#7F5933" d="M11.2550526,10.6 C12.2798985,10.6 13.1016217,9.799 13.1016217,8.8 C13.1016217,7.801 12.2798985,7 11.2550526,7 C10.2302068,7 9.40848356,7.801 9.40848356,8.8 C9.40848356,9.799 10.2302068,10.6 11.2550526,10.6 L11.2550526,10.6 Z M19.7275461,10.6 C18.7027002,10.6 17.880977,9.799 17.880977,8.8 C17.880977,7.801 18.7027002,7 19.7275461,7 C20.7523919,7 21.5741151,7.801 21.5741151,8.8 C21.5741151,9.799 20.7523919,10.6 19.7275461,10.6 Z M8,13.8056014 C8,12.6979383 8.89502333,11.8 9.99842687,11.8 L12.1568034,11.8 C13.2605041,11.8 14.1552303,12.6973271 14.1552303,13.8056014 L14.1552303,19 L8,19 L8,13.8056014 Z M17.8461538,13 C17.8461538,13 18.1538462,11.8 19.6923077,11.8 C21.2307692,11.8 21.5384615,13 21.5384615,13 L24,20.2 L15.3846154,20.2 L17.8461538,13 Z M18.4615385,20.2 L20.9230769,20.2 L20.9230769,25 L18.4615385,25 L18.4615385,20.2 Z M9.84615385,19 L12.3076923,19 L12.3076923,25 L9.84615385,25 L9.84615385,19 Z"/>
  </g>
</svg>
