<svg width="32" height="32" viewBox="0 0 32 32">
  <g fill="none" fill-rule="evenodd">
    <circle cx="16" cy="16" r="16" fill="#664E42"/>
    <circle cx="16" cy="16" r="15" fill="#FFF"/>
    <path fill="#664E42" d="M11.3684211,20.5714286 C10.4096842,20.5714286 9.63157895,21.3394286 9.63157895,22.2857143 C9.63157895,23.232 10.4096842,24 11.3684211,24 C12.3271579,24 13.1052632,23.232 13.1052632,22.2857143 C13.1052632,21.3394286 12.3271579,20.5714286 11.3684211,20.5714286 L11.3684211,20.5714286 Z M25.8421053,19.4285714 L25.8421053,17.1428571 L24.0878947,10.2171429 C23.7764211,8.99314286 22.4888421,8 21.2105263,8 L7.31578947,8 C6.03747368,8 5,9.024 5,10.2857143 L5,21.7142857 L7.37484211,21.7142857 C7.65852632,19.7817143 9.33168421,18.2857143 11.3684211,18.2857143 C13.4051579,18.2857143 15.0783158,19.7817143 15.362,21.7142857 L27,21.7142857 L27,19.4285714 L25.8421053,19.4285714 L25.8421053,19.4285714 Z M14.2631579,13.7142857 C14.2631579,14.3462857 13.7455789,14.8571429 13.1052632,14.8571429 L9.63157895,14.8571429 C8.99126316,14.8571429 8.47368421,14.3462857 8.47368421,13.7142857 L8.47368421,12.5714286 C8.47368421,11.9394286 8.99126316,11.4285714 9.63157895,11.4285714 L13.1052632,11.4285714 C13.7455789,11.4285714 14.2631579,11.9394286 14.2631579,12.5714286 L14.2631579,13.7142857 L14.2631579,13.7142857 Z M22.3684211,20.5714286 L16.5789474,20.5714286 L16.5789474,13.1428571 C16.5789474,12.1977143 17.3582105,11.4285714 18.3157895,11.4285714 L20.6315789,11.4285714 C21.5891579,11.4285714 22.3684211,12.1977143 22.3684211,13.1428571 L22.3684211,20.5714286 L22.3684211,20.5714286 Z M20.6315789,12.5714286 L18.3157895,12.5714286 C17.9973684,12.5714286 17.7368421,12.8285714 17.7368421,13.1428571 L17.7368421,19.4285714 L21.2105263,19.4285714 L21.2105263,13.1428571 C21.2105263,12.8285714 20.95,12.5714286 20.6315789,12.5714286 L20.6315789,12.5714286 Z"/>
  </g>
</svg>
