<svg width="32" height="32" viewBox="0 0 32 32">
  <g fill="none" fill-rule="evenodd">
    <circle cx="16" cy="16" r="16" fill="#664E42"/>
    <circle cx="16" cy="16" r="15" fill="#FFF"/>
    <path fill="#664E42" d="M24,11 L25,11 L25,24 L24,24 L24,23 L9,23 L9,24 L8,24 L8,9 L9,9 L9,13 L24,13 L24,11 Z M9,15 L9,21 L24,21 L24,15 L9,15 Z M11.5,20 C10.6715729,20 10,19.3284271 10,18.5 C10,17.6715729 10.6715729,17 11.5,17 C12.3284271,17 13,17.6715729 13,18.5 C13,19.3284271 12.3284271,20 11.5,20 Z M11.5,12 C10.6715729,12 10,11.3284271 10,10.5 C10,9.67157288 10.6715729,9 11.5,9 C12.3284271,9 13,9.67157288 13,10.5 C13,11.3284271 12.3284271,12 11.5,12 Z M14,9.99895656 C14,9.44724809 14.4463114,9.04959016 14.9975446,9.11083829 L22.0024554,9.88916171 C22.553384,9.95037601 23,10.4438648 23,11 L23,12 L14,12 L14,9.99895656 Z M14,17.9989566 C14,17.4472481 14.4463114,17.0495902 14.9975446,17.1108383 L22.0024554,17.8891617 C22.553384,17.950376 23,18.4438648 23,19 L23,20 L14,20 L14,17.9989566 Z"/>
  </g>
</svg>
