<svg width="32" height="32" viewBox="0 0 32 32">
  <g fill="none" fill-rule="evenodd">
    <circle cx="16" cy="16" r="16" fill="#8C5F93"/>
    <circle cx="16" cy="16" r="15" fill="#FFF"/>
    <path fill="#8C5F93" d="M13.5966583,21.3333333 C12.8614871,21.3333333 12.2666667,21.9333333 12.2666667,22.6666667 C12.2666667,23.4 12.8614871,24 13.5966583,24 C14.3318296,24 14.9333333,23.4 14.9333333,22.6666667 C14.9333333,21.9333333 14.3318296,21.3333333 13.5966583,21.3333333 L13.5966583,21.3333333 Z M8,8.5583252 C8,8.83907444 8.22247314,9.06666667 8.50625,9.06666667 L9.6,9.06666667 L12.2666667,17.6 L12.1616862,17.6 C11.3360097,17.6 10.6666667,18.2786377 10.6666667,19.1062977 L10.6666667,19.2937023 C10.6666667,20.1256076 11.3311199,20.8 12.1765743,20.8 L21.8958333,20.8 C22.1742769,20.8 22.4,20.5737874 22.4,20.2916585 L22.4,20.2416748 C22.4,19.9609256 22.1827812,19.7333333 21.8983864,19.7333333 L12.5016136,19.7333333 C12.2245801,19.7333333 12,19.5071208 12,19.2249919 L12,19.1750081 C12,18.8942589 12.2224927,18.6666667 12.4980975,18.6666667 L21.7733333,18.6666667 C22.3733333,18.6666667 22.9013333,18.3386667 23.1733333,17.8426667 L23.904,12.6506667 C23.968,12.5386667 24,12.4026667 24,12.2666667 C24,11.8266667 24,11.2 22.9333333,11.2 C22.9597005,11.2 11.4666667,11.2 11.4666667,11.2 L10.4,8 L8.50897827,8 C8.22787733,8 8,8.22621257 8,8.50834147 L8,8.5583252 Z M19.9966583,21.3333333 C19.2614871,21.3333333 18.6666667,21.9333333 18.6666667,22.6666667 C18.6666667,23.4 19.2614871,24 19.9966583,24 C20.7318296,24 21.3333333,23.4 21.3333333,22.6666667 C21.3333333,21.9333333 20.7318296,21.3333333 19.9966583,21.3333333 L19.9966583,21.3333333 Z"/>
  </g>
</svg>
