<svg width="32" height="32" viewBox="0 0 32 32">
  <g fill="none" fill-rule="evenodd">
    <circle cx="16" cy="16" r="16" fill="#8C5F93"/>
    <circle cx="16" cy="16" r="15" fill="#FFF"/>
    <path fill="#8C5F93" d="M18.081052,21.1927099 C16.7751461,22.4692933 16.3003691,24.2457753 16.6502615,25.8917574 C18.3308213,26.232741 20.1502615,25.7686245 21.4561673,24.4920412 C22.7620732,23.2154578 23.2368502,21.4379234 22.8869579,19.7929937 C21.206398,19.4509577 19.3869579,19.9161266 18.081052,21.1927099 L18.081052,21.1927099 Z M9.11411873,19.7929937 C8.76422639,21.436871 9.23900338,23.2154578 10.5449093,24.4920412 C11.8508151,25.7686245 13.6702553,26.232741 15.3508151,25.8917574 C15.7007075,24.2468277 15.2259305,22.4692933 13.9200246,21.1927099 C12.6141187,19.9161266 10.793602,19.4509577 9.11411873,19.7929937 L9.11411873,19.7929937 Z M17.5287604,17.0472344 C17.5287604,16.7399283 17.4813903,16.4463036 17.4124885,16.1589934 C17.5696709,16.4073641 17.7483851,16.6473155 17.970163,16.8641137 C18.5838204,17.4650445 19.3482006,17.8249715 20.1448785,17.9502093 C20.7531529,18.0449269 21.3334359,17.4787259 21.235466,16.8841096 C21.1084282,16.1063725 20.7380806,15.3591555 20.1244233,14.7582247 C19.9026453,14.5403741 19.6550292,14.3656727 19.399877,14.2109672 C19.6916333,14.2762172 19.9909259,14.323576 20.3031375,14.323576 C21.1708705,14.3246284 21.9729314,14.0499472 22.625346,13.588988 C23.1248847,13.2353755 23.1248847,12.4323804 22.625346,12.0819251 C21.9729314,11.6188611 21.1697939,11.3473372 20.3020609,11.3473372 C19.9876961,11.3473372 19.687327,11.3936436 19.394494,11.4599459 C19.6474931,11.3062928 19.8940326,11.1315914 20.1147339,10.9158457 C20.7294679,10.3159673 21.0976623,9.5687503 21.2257767,8.7899608 C21.3215934,8.19534448 20.7434635,7.62809104 20.1341126,7.72491352 C19.3385112,7.84804646 18.574131,8.21113075 17.9593971,8.80995674 C17.7365426,9.02780732 17.5578284,9.26986352 17.3984928,9.52033906 C17.4673946,9.23513372 17.5147647,8.94150902 17.5147647,8.63630773 C17.5147647,7.78595378 17.2348508,7.0029546 16.762227,6.36624155 C16.4015687,5.87791948 15.5822824,5.87791948 15.2216241,6.36624155 C14.7490003,7.0029546 14.470163,7.7870062 14.470163,8.63630773 C14.470163,8.94256144 14.5186097,9.23723855 14.5864349,9.52454874 C14.4292525,9.27617803 14.2505383,9.03622667 14.029837,8.82048092 C13.4161796,8.2195501 12.6517994,7.85962306 11.8551215,7.73438529 C11.2468471,7.63966764 10.6676407,8.20586866 10.7634574,8.79943256 C10.8915718,9.57822207 11.2597662,10.325439 11.8755767,10.9253174 C12.0973547,11.143168 12.3449708,11.3189219 12.6011996,11.4736273 C12.3094432,11.4062726 12.0090741,11.3599662 11.6968625,11.3599662 C10.8269763,11.3599662 10.0270686,11.6346473 9.37465395,12.0956065 C8.87511535,12.4481667 8.87511535,13.2490569 9.37465395,13.6005646 C10.0270686,14.0646811 10.8280529,14.3372574 11.6968625,14.3372574 C12.0112273,14.3372574 12.3115964,14.2898986 12.6044294,14.2235962 C12.3514303,14.3772493 12.1059674,14.5508983 11.8852661,14.7666441 C11.2705321,15.3675749 10.9012612,16.1147919 10.7742233,16.8935814 C10.6784066,17.4881977 11.2554599,18.0543987 11.8648108,17.9586286 C12.6604122,17.8354957 13.425869,17.4734638 14.0395263,16.8735854 C14.2623808,16.6567873 14.4421716,16.4147311 14.6004306,16.1642555 C14.5326054,16.4494609 14.4852353,16.7420331 14.4852353,17.0472344 C14.4841587,17.8975884 14.7651492,18.6805876 15.237773,19.3173006 C15.5984313,19.8056227 16.4177176,19.8056227 16.7772993,19.3173006 C17.2509997,18.68164 17.5287604,17.8975884 17.5287604,17.0472344 L17.5287604,17.0472344 Z M16,15.4749216 C14.5132267,15.4749216 13.3085205,14.2972655 13.3085205,12.8438759 C13.3085205,11.3904863 14.5132267,10.2128303 16,10.2128303 C17.4867733,10.2128303 18.6914795,11.3904863 18.6914795,12.8438759 C18.6914795,14.2972655 17.4867733,15.4749216 16,15.4749216 L16,15.4749216 Z"/>
  </g>
</svg>
