<svg width="32" height="32" viewBox="0 0 32 32">
  <g fill="none" fill-rule="evenodd">
    <circle cx="16" cy="16" r="16" fill="#8C5F93"/>
    <circle cx="16" cy="16" r="15" fill="#FFF"/>
    <path fill="#8C5F93" d="M15.3846154,9.28694737 L15.8304615,8.89473684 L18.1695385,8.89473684 L18.6153846,9.28694737 L18.6153846,10.7894737 L20.7692308,10.7894737 L20.7692308,8.50252632 L19.0612308,7 L14.9387692,7 L13.2307692,8.50252632 L13.2307692,10.7894737 L15.3846154,10.7894737 L15.3846154,9.28694737 L15.3846154,9.28694737 Z M20.7692308,12.6842105 L20.7692308,15.9185263 L19.0612308,17.4210526 L14.9387692,17.4210526 L13.2307692,15.9185263 L13.2307692,12.6842105 L10,12.6842105 L10,23.1052632 C10,24.1511579 10.9649231,25 12.1538462,25 L21.8461538,25 C23.0350769,25 24,24.1511579 24,23.1052632 L24,12.6842105 L20.7692308,12.6842105 L20.7692308,12.6842105 Z M15.3846154,15.1341053 L15.8304615,15.5263158 L18.1695385,15.5263158 L18.6153846,15.1341053 L18.6153846,12.6842105 L15.3846154,12.6842105 L15.3846154,15.1341053 L15.3846154,15.1341053 Z"/>
  </g>
</svg>
