<svg width="32" height="32" viewBox="0 0 32 32">
  <g fill="none" fill-rule="evenodd">
    <circle cx="16" cy="16" r="16" fill="#8C5F93"/>
    <circle cx="16" cy="16" r="15" fill="#FFF"/>
    <path fill="#8C5F93" d="M24,10 L24,18 C24,19.104 23.1567059,20 22.1176471,20 L17.4117647,20 L19.2941176,22 L19.2941176,23 C19.2941176,23.553 18.8734118,24 18.3529412,24 L13.6470588,24 C13.1265882,24 12.7058824,23.553 12.7058824,23 L12.7058824,22 L14.5882353,20 L9.88235294,20 C8.84329412,20 8,19.104 8,18 L8,10 C8,8.896 8.84329412,8 9.88235294,8 L22.1176471,8 C23.1567059,8 24,8.896 24,10 L24,10 Z M22.1176471,17 L22.1176471,10 L9.88235294,10 L9.88235294,17 L22.1176471,17 L22.1176471,17 Z"/>
  </g>
</svg>
