<svg width="32" height="32" viewBox="0 0 32 32">
  <g fill="none" fill-rule="evenodd">
    <circle cx="16" cy="16" r="16" fill="#8C5F93"/>
    <circle cx="16" cy="16" r="15" fill="#FFF"/>
    <path fill="#8C5F93" d="M16.0046244,10 C14.4258256,10 13.0954246,10.589603 13.4385502,12.2000113 L14.9520919,19.350048 C15.005771,19.6030493 15.1510205,19.9000508 15.4783581,19.9000508 L16.5308906,19.9000508 L16.5308906,19.9000508 C16.8582282,19.9000508 17.0034777,19.6030493 17.0571568,19.350048 L18.5706985,12.2000113 C18.9138241,10.589603 17.5834231,10 16.0046244,10 L16.5308906,10 L16.0046244,10 L16.0046244,10 Z M10.2156957,13.3000169 C9.16316327,13.3000169 8.16220488,13.9589203 8.63689703,14.9500254 L10.741962,19.350048 C10.9166824,19.7174499 11.2682282,19.9000508 11.7944945,19.9000508 L12.8470269,19.9000508 C12.8470269,19.9000508 13.4943344,19.9198509 13.3732932,19.350048 L12.3207607,14.4000226 C12.2039296,13.8467197 11.7944945,13.3000169 11.2682282,13.3000169 L10.2156957,13.3000169 L10.2156957,13.3000169 Z M20.7410205,13.3000169 C20.2147543,13.3000169 19.8053191,13.8467197 19.688488,14.4000226 L18.6359555,19.350048 C18.5149143,19.9198509 19.1622218,19.9000508 19.1622218,19.9000508 L20.2147543,19.9000508 C20.7410205,19.9000508 21.0925663,19.7174499 21.2672867,19.350048 L23.3723517,14.9500254 C23.8470438,13.9589203 22.8460854,13.3000169 21.793553,13.3000169 L20.7410205,13.3000169 L20.7410205,13.3000169 Z M7.51910754,16.7375346 C7.31596877,16.7364346 7.14545851,16.8673352 7.05809832,17.1500367 L6.05082474,20.4434536 C5.92557337,20.8559557 6.0108285,21.0660568 6.54446247,20.9593562 L9.16316327,20.4500536 C9.67995671,20.3466531 9.76521184,20.1574521 9.62417249,19.9000508 L8.11063079,17.1500367 C7.95696105,16.8728353 7.72224631,16.7386346 7.51910754,16.7375346 L7.51910754,16.7375346 Z M24.4901412,16.7375346 C24.2870024,16.7386346 24.0512351,16.8728353 23.8986179,17.1500367 L22.3850762,19.9000508 C22.2429843,20.1574521 22.3282395,20.3466531 22.8460854,20.4500536 L25.4279476,20.9725563 C25.9615816,21.0792568 26.0794652,20.8680558 25.9542138,20.4566536 L24.9511504,17.1500367 C24.8648427,16.8673352 24.6943325,16.7364346 24.4901412,16.7375346 L24.4901412,16.7375346 Z"/>
  </g>
</svg>
