<svg width="32" height="32" viewBox="0 0 32 32">
  <g fill="none" fill-rule="evenodd">
    <circle cx="16" cy="16" r="16" fill="#8C5F93"/>
    <circle cx="16" cy="16" r="15" fill="#FFF"/>
    <path fill="#8C5F93" d="M19.8181818,7 L16.5454545,7 L16.5454545,13 L22,13 L22,9 C22,7.896 21.0225455,7 19.8181818,7 L19.8181818,7 Z M10,19.5 C10,22.537 12.6869091,25 16,25 C19.3130909,25 22,22.537 22,19.5 L22,14 L10,14 L10,19.5 L10,19.5 Z M15.4545455,7 L12.1818182,7 C10.9774545,7 10,7.896 10,9 L10,13 L15.4545455,13 L15.4545455,7 L15.4545455,7 Z"/>
  </g>
</svg>
