<svg width="32" height="32" viewBox="0 0 32 32">
  <g fill="none" fill-rule="evenodd">
    <circle cx="16" cy="16" r="16" fill="#8C5F93"/>
    <circle cx="16" cy="16" r="15" fill="#FFF"/>
    <path fill="#8C5F93" d="M24,17.5614118 C24,18.6004706 23.1567059,19.4428235 22.1176471,19.4428235 L22.1176471,23.9990588 L20.2352941,23.9990588 L20.2352941,22.1167059 L11.7647059,22.1167059 L11.7647059,23.9990588 L9.88235294,23.9990588 L9.88235294,19.4428235 C8.84329412,19.4428235 8,18.5995294 8,17.5614118 C8,16.5214118 8.84329412,15.6781176 9.88235294,15.6781176 C10.9214118,15.6781176 11.7647059,16.5214118 11.7647059,17.5614118 L11.7647059,18.352 L13.6470588,18.352 L13.6470588,17.5614118 C13.6470588,15.8127059 12.4432941,14.3501176 10.8235294,13.9294118 L10.8235294,9.43811765 C12.3341176,8.52517647 14.1063529,8 16.0009412,8 C17.8945882,8 19.6658824,8.52611765 21.1764706,9.43811765 L21.1764706,13.9294118 C19.5567059,14.3501176 18.3529412,15.8127059 18.3529412,17.5614118 L18.3529412,18.352 L20.2352941,18.352 L20.2352941,17.5614118 C20.2352941,16.5214118 21.0785882,15.6781176 22.1176471,15.6781176 C23.1567059,15.6781176 24,16.5214118 24,17.5614118 L24,17.5614118 Z"/>
  </g>
</svg>
