<svg width="32" height="32" viewBox="0 0 32 32">
  <g fill="none" fill-rule="evenodd">
    <circle cx="16" cy="16" r="16" fill="#8C5F93"/>
    <circle cx="16" cy="16" r="15" fill="#FFF"/>
    <path fill="#8C5F93" d="M20.3074852,7 C19.180937,7 18.1911686,7.56557895 17.6149704,8.42010526 C18.1911686,9.27557895 19.180937,9.84210526 20.3064082,9.84210526 C21.4318794,9.84210526 22.4216478,9.27557895 23,8.42010526 C22.4216478,7.56463158 21.4329564,7 20.3074852,7 L20.3074852,7 Z M18.7049004,15.7811579 L17.5708131,10.8737895 C17.5589661,10.8150526 17.547119,10.7582105 17.5309639,10.7013684 L17.5083468,10.6028421 L17.4964997,10.6028421 C17.2186322,9.76726316 16.4388799,9.12494737 15.4609585,8.94873684 L15.4609585,7 L14.3839526,7 L14.3839526,8.94873684 C13.4071082,9.12589474 12.6262789,9.76726316 12.3484114,10.6028421 L12.3376414,10.6028421 L12.3150242,10.7013684 C12.2988691,10.7582105 12.2870221,10.8150526 12.275175,10.8737895 L11.1410878,15.7811579 C9.83252558,16.7370526 9,18.178 9,19.7894737 C9,22.6666316 11.6526656,25 14.9235326,25 C18.1943996,25 20.8470652,22.6666316 20.8470652,19.7894737 C20.8459882,18.178 20.0134626,16.7361053 18.7049004,15.7811579 L18.7049004,15.7811579 Z"/>
  </g>
</svg>
