<svg width="32" height="32" viewBox="0 0 32 32">
  <g fill="none" fill-rule="evenodd">
    <circle cx="16" cy="16" r="16" fill="#8C5F93"/>
    <circle cx="16" cy="16" r="15" fill="#FFF"/>
    <path fill="#8C5F93" d="M24.6785727,12.1097065 L20.7809294,13.259889 C21.2690154,14.454348 21.0295011,15.8742145 20.0603737,16.8442722 L16.8450445,20.0603554 C15.8749107,21.0304131 14.45292,21.2689024 13.2583674,20.7808547 L12.1101074,24.6781922 C11.9631784,25.1752964 11.6481869,25.0867434 11.4076661,24.4799542 L10.3016734,21.6985856 L7.52008656,20.5926796 C6.91324978,20.3511715 6.82468985,20.0362046 7.32183309,19.8892872 L11.2194763,18.7391047 C10.730384,17.545652 10.9688919,16.1247792 11.9400321,15.1547215 L15.1553613,11.9386383 C16.1265014,10.9685806 17.5484921,10.7300913 18.7420384,11.2191453 L19.8902984,7.32180784 C20.0372273,6.82470361 20.3502062,6.91325659 20.5927396,7.52004576 L21.6987323,10.3014144 L24.4793128,11.4073204 C25.0861496,11.6488285 25.1757159,11.9627891 24.6785727,12.1097065 L24.6785727,12.1097065 Z"/>
  </g>
</svg>
