<svg width="32" height="32" viewBox="0 0 32 32">
  <g fill="none" fill-rule="evenodd">
    <circle cx="16" cy="16" r="16" fill="#8C5F93"/>
    <circle cx="16" cy="16" r="15" fill="#FFF"/>
    <path fill="#8C5F93" d="M25,11.5482907 L20.5747794,7 L11.8054385,16.01615 L16.229705,20.5644407 C18.182794,19.8278079 20.0204341,18.6684205 21.5880576,17.0568523 C23.155681,15.4452841 24.2824998,13.5571109 25,11.5482907 L25,11.5482907 Z M19.552914,10.9421135 C19.178898,10.5585936 19.1779439,9.93770337 19.552914,9.5541835 C19.9240677,9.16968276 20.5299356,9.1716445 20.9029975,9.5541835 C21.2770136,9.93868424 21.2770136,10.5595745 20.9029975,10.9421135 C20.5318438,11.3256333 19.9250219,11.3256333 19.552914,10.9421135 L19.552914,10.9421135 Z M12.0048501,18.5879892 L10.6547666,17.2010401 L7.41933688,20.5252059 C6.86022104,21.0990144 6.86022104,22.0318211 7.41933688,22.6066105 C7.97845273,23.180419 8.81617238,23.1196051 9.29037131,22.4692888 L12.0048501,18.5879892 L12.0048501,18.5879892 Z"/>
  </g>
</svg>
