<svg width="32" height="32" viewBox="0 0 32 32">
  <g fill="none" fill-rule="evenodd">
    <circle cx="16" cy="16" r="16" fill="#8C5F93"/>
    <circle cx="16" cy="16" r="15" fill="#FFF"/>
    <path fill="#8C5F93" fill-rule="nonzero" d="M22.5416,9.13916667 C22.3232,8.4575 21.7128,8 21.0232,8 L10.9768,8 C10.2872,8 9.6768,8.4575 9.4584,9.13916667 L8,13.6983333 L8,22.1666667 C8,22.6266667 8.3584,23 8.8,23 L10.4,23 C10.8416,23 11.2,22.6266667 11.2,22.1666667 L11.2,20.5 L20.8,20.5 L20.8,22.1666667 C20.8,22.6266667 21.1584,23 21.6,23 L23.2,23 C23.6416,23 24,22.6266667 24,22.1666667 L24,13.6983333 L22.5416,9.13916667 Z M10.8,18 C10.1376,18 9.6,17.44 9.6,16.75 C9.6,16.06 10.1376,15.5 10.8,15.5 C11.4624,15.5 12,16.06 12,16.75 C12,17.44 11.4624,18 10.8,18 Z M21.2,18 C20.5376,18 20,17.44 20,16.75 C20,16.06 20.5376,15.5 21.2,15.5 C21.8624,15.5 22.4,16.06 22.4,16.75 C22.4,17.44 21.8624,18 21.2,18 Z M9.6432,13.8333333 L10.9768,9.66666667 L21.024,9.66666667 L22.3576,13.8333333 L9.6432,13.8333333 Z"/>
  </g>
</svg>
