<svg width="32" height="32" viewBox="0 0 32 32">
  <g fill="none" fill-rule="evenodd">
    <circle cx="16" cy="16" r="16" fill="#8C5F93"/>
    <circle cx="16" cy="16" r="15" fill="#FFF"/>
    <path fill="#8C5F93" d="M21.4187623,8.62003949 C20.5929498,7.79332017 19.252727,7.79332017 18.4269146,8.62003949 C17.6571363,9.38980671 17.6139625,10.6004908 18.2799402,11.4318029 C16.4574577,14.1278256 13.9579745,16.4701965 11.4199106,18.2687699 C10.5895053,17.6138244 9.38615231,17.660672 8.62004839,18.4267649 C7.7933172,19.2534842 7.7933172,20.592769 8.62004839,21.4194881 C8.99667016,21.7961047 9.48168566,21.99268 9.97496841,22.0257487 C10.0080376,22.5181059 10.2036972,23.0031144 10.5812378,23.3806496 C11.4070502,24.2064501 12.7472731,24.2064501 13.5730854,23.3806496 C14.3401078,22.6136379 14.3860376,21.4093837 13.7283272,20.5780718 C15.5691813,18.0345328 18.3809852,15.2135835 20.5598806,13.7144661 C21.3902859,14.3868644 22.6074175,14.3464469 23.3799516,13.5730054 C24.2066828,12.7472049 24.2066828,11.4079198 23.3799516,10.5812007 C23.0033298,10.2045844 22.5183144,10.0080088 22.0250316,9.97585858 C21.9928809,9.48166439 21.7963027,8.99665586 21.4187623,8.62003949 L21.4187623,8.62003949 L21.4187623,8.62003949 Z"/>
  </g>
</svg>
