<svg width="32" height="32" viewBox="0 0 32 32">
  <g fill="none" fill-rule="evenodd">
    <circle cx="16" cy="16" r="16" fill="#8C5F93"/>
    <circle cx="16" cy="16" r="15" fill="#FFF"/>
    <path fill="#8C5F93" d="M15.174,12.437 L14,11.637 L13.502,6 L11.498,6 L11,11.695 L9.838,12.453 C9.375,12.756 9,13.447 9,14 L9,23 C9,23.553 9.447,24 10,24 L15,24 C15.553,24 16,23.553 16,23 L16,14 C16,13.447 15.63,12.748 15.174,12.437 L15.174,12.437 Z M23,18 C24.104,18 25,17.104 25,16 L24,11 L19,11 L18,16 C18,17.104 18.896,18 20,18 L21,18 L21,22.2 L19,23 L19,24 L24,24 L24,23 L22,22.2 L22,18 L23,18 L23,18 Z"/>
  </g>
</svg>
