<svg width="40" height="40" viewBox="0 0 40 40">
  <g fill="none" fill-rule="evenodd">
    <path fill="#FFF" d="M21.2795551,37.5731166 C20.5728764,37.256593 19.4262588,37.2569804 18.7204449,37.5731166 L16.1031742,38.7453999 C15.3964954,39.0619235 14.4552348,38.8090943 14.0020501,38.1824054 L12.321569,35.858543 C11.867829,35.2310861 10.8746353,34.6581128 10.1053144,34.5789878 L7.25254993,34.2855797 C6.48228637,34.2063577 5.79354533,33.5167709 5.71442033,32.7474501 L5.42101219,29.8946856 C5.34179022,29.124422 4.76814595,28.1316157 4.14145704,27.678431 L1.81759457,25.9979499 C1.19013774,25.5442099 0.938463891,24.6026397 1.25460006,23.8968258 L2.42688342,21.2795551 C2.74340697,20.5728764 2.74301958,19.4262588 2.42688342,18.7204449 L1.25460006,16.1031742 C0.938076509,15.3964954 1.19090566,14.4552348 1.81759457,14.0020501 L4.14145704,12.321569 C4.76891387,11.867829 5.34188718,10.8746353 5.42101219,10.1053144 L5.71442033,7.25254993 C5.79364229,6.48228637 6.48322906,5.79354533 7.25254993,5.71442033 L10.1053144,5.42101219 C10.875578,5.34179022 11.8683843,4.76814595 12.321569,4.14145704 L14.0020501,1.81759457 C14.4557901,1.19013774 15.3973603,0.938463891 16.1031742,1.25460006 L18.7204449,2.42688342 C19.4271236,2.74340697 20.5737412,2.74301958 21.2795551,2.42688342 L23.8968258,1.25460006 C24.6035046,0.938076509 25.5447652,1.19090566 25.9979499,1.81759457 L27.678431,4.14145704 C28.132171,4.76891387 29.1253647,5.34188718 29.8946856,5.42101219 L32.7474501,5.71442033 C33.5177136,5.79364229 34.2064547,6.48322906 34.2855797,7.25254993 L34.5789878,10.1053144 C34.6582098,10.875578 35.231854,11.8683843 35.858543,12.321569 L38.1824054,14.0020501 C38.8098623,14.4557901 39.0615361,15.3973603 38.7453999,16.1031742 L37.5731166,18.7204449 C37.256593,19.4271236 37.2569804,20.5737412 37.5731166,21.2795551 L38.7453999,23.8968258 C39.0619235,24.6035046 38.8090943,25.5447652 38.1824054,25.9979499 L35.858543,27.678431 C35.2310861,28.132171 34.6581128,29.1253647 34.5789878,29.8946856 L34.2855797,32.7474501 C34.2063577,33.5177136 33.5167709,34.2064547 32.7474501,34.2855797 L29.8946856,34.5789878 C29.124422,34.6582098 28.1316157,35.231854 27.678431,35.858543 L25.9979499,38.1824054 C25.5442099,38.8098623 24.6026397,39.0615361 23.8968258,38.7453999 L21.2795551,37.5731166 Z" opacity=".4"/>
    <path fill="#68476E" d="M21.2791942,36.7229549 C20.5727148,36.4065207 19.4358931,36.4026652 18.7208058,36.7229549 L16.3616324,37.7796358 C15.6551529,38.09607 14.7202398,37.8517228 14.2611009,37.2168 L12.7463372,35.1221009 C12.2927252,34.4948211 11.3101365,33.9230713 10.5307078,33.8429067 L7.95926334,33.5784324 C7.18921703,33.4992328 6.50173217,32.8201654 6.42156757,32.0407367 L6.15709332,29.4692922 C6.0778937,28.6992459 5.51282185,27.7128017 4.87789908,27.2536628 L2.78319995,25.7388991 C2.1559201,25.2852871 1.90007446,24.353455 2.22036424,23.6383676 L3.27704506,21.2791942 C3.59347934,20.5727148 3.59733484,19.4358931 3.27704506,18.7208058 L2.22036424,16.3616324 C1.90392996,15.6551529 2.14827718,14.7202398 2.78319995,14.2611009 L4.87789908,12.7463372 C5.50517893,12.2927252 6.07692872,11.3101365 6.15709332,10.5307078 L6.42156757,7.95926334 C6.50076718,7.18921703 7.17983462,6.50173217 7.95926334,6.42156757 L10.5307078,6.15709332 C11.3007541,6.0778937 12.2871983,5.51282185 12.7463372,4.87789908 L14.2611009,2.78319995 C14.7147129,2.1559201 15.646545,1.90007446 16.3616324,2.22036424 L18.7208058,3.27704506 C19.4272852,3.59347934 20.5641069,3.59733484 21.2791942,3.27704506 L23.6383676,2.22036424 C24.3448471,1.90392996 25.2797602,2.14827718 25.7388991,2.78319995 L27.2536628,4.87789908 C27.7072748,5.50517893 28.6898635,6.07692872 29.4692922,6.15709332 L32.0407367,6.42156757 C32.810783,6.50076718 33.4982678,7.17983462 33.5784324,7.95926334 L33.8429067,10.5307078 C33.9221063,11.3007541 34.4871782,12.2871983 35.1221009,12.7463372 L37.2168,14.2611009 C37.8440799,14.7147129 38.0999255,15.646545 37.7796358,16.3616324 L36.7229549,18.7208058 C36.4065207,19.4272852 36.4026652,20.5641069 36.7229549,21.2791942 L37.7796358,23.6383676 C38.09607,24.3448471 37.8517228,25.2797602 37.2168,25.7388991 L35.1221009,27.2536628 C34.4948211,27.7072748 33.9230713,28.6898635 33.8429067,29.4692922 L33.5784324,32.0407367 C33.4992328,32.810783 32.8201654,33.4982678 32.0407367,33.5784324 L29.4692922,33.8429067 C28.6992459,33.9221063 27.7128017,34.4871782 27.2536628,35.1221009 L25.7388991,37.2168 C25.2852871,37.8440799 24.353455,38.0999255 23.6383676,37.7796358 L21.2791942,36.7229549 Z"/>
    <path fill="#FFF" d="M21.2726403,35.0200194 C20.5697805,34.7052064 19.4247868,34.7076397 18.7273597,35.0200194 L16.8727165,35.8507197 C16.1698567,36.1655327 15.2307469,35.9100099 14.7829471,35.2907676 L13.5921291,33.6440385 C13.1408412,33.0199725 12.1480309,32.449583 11.3878515,32.3713982 L9.3663332,32.1634841 C8.60023225,32.0846903 7.91470066,31.3938462 7.83651586,30.6336668 L7.62860177,28.6121485 C7.54980794,27.8460475 6.97520378,26.8556706 6.35596152,26.4078709 L4.70923235,25.2170529 C4.08516638,24.7657649 3.83690067,23.8247106 4.14928034,23.1272835 L4.97998061,21.2726403 C5.29479363,20.5697805 5.29236029,19.4247868 4.97998061,18.7273597 L4.14928034,16.8727165 C3.83446733,16.1698567 4.08999009,15.2307469 4.70923235,14.7829471 L6.35596152,13.5921291 C6.98002749,13.1408412 7.55041697,12.1480309 7.62860177,11.3878515 L7.83651586,9.3663332 C7.9153097,8.60023225 8.60615382,7.91470066 9.3663332,7.83651586 L11.3878515,7.62860177 C12.1539525,7.54980794 13.1443294,6.97520378 13.5921291,6.35596152 L14.7829471,4.70923235 C15.2342351,4.08516638 16.1752894,3.83690067 16.8727165,4.14928034 L18.7273597,4.97998061 C19.4302195,5.29479363 20.5752132,5.29236029 21.2726403,4.97998061 L23.1272835,4.14928034 C23.8301433,3.83446733 24.7692531,4.08999009 25.2170529,4.70923235 L26.4078709,6.35596152 C26.8591588,6.98002749 27.8519691,7.55041697 28.6121485,7.62860177 L30.6336668,7.83651586 C31.3997677,7.9153097 32.0852993,8.60615382 32.1634841,9.3663332 L32.3713982,11.3878515 C32.4501921,12.1539525 33.0247962,13.1443294 33.6440385,13.5921291 L35.2907676,14.7829471 C35.9148336,15.2342351 36.1630993,16.1752894 35.8507197,16.8727165 L35.0200194,18.7273597 C34.7052064,19.4302195 34.7076397,20.5752132 35.0200194,21.2726403 L35.8507197,23.1272835 C36.1655327,23.8301433 35.9100099,24.7692531 35.2907676,25.2170529 L33.6440385,26.4078709 C33.0199725,26.8591588 32.449583,27.8519691 32.3713982,28.6121485 L32.1634841,30.6336668 C32.0846903,31.3997677 31.3938462,32.0852993 30.6336668,32.1634841 L28.6121485,32.3713982 C27.8460475,32.4501921 26.8556706,33.0247962 26.4078709,33.6440385 L25.2170529,35.2907676 C24.7657649,35.9148336 23.8247106,36.1630993 23.1272835,35.8507197 L21.2726403,35.0200194 Z"/>
    <path fill="#68476E" d="M31.25,17.36 L31.25,13.5227273 C31.25,12.9578409 30.8170193,12.5 30.2828055,12.5 L9.71719457,12.5 C9.18298078,12.5 8.75,12.9578409 8.75,13.5227273 L8.75,17.2321591 C8.75,17.4026136 8.86960972,17.5468182 9.02984163,17.5679545 C10.1440498,17.7135227 11.0067873,18.7181818 11.0067873,19.9359091 C11.0067873,21.1536364 10.1440498,22.1582955 9.02984163,22.3042045 C8.86960972,22.3253409 8.75,22.4692045 8.75,22.64 L8.75,26.4772727 C8.75,27.0421591 9.18298078,27.5 9.71719457,27.5 L30.2828055,27.5 C30.8170193,27.5 31.25,27.0421591 31.25,26.4772727 L31.25,22.7678409 C31.25,22.5973864 31.1303903,22.4531818 30.9701584,22.4320455 C29.8559502,22.2864773 28.9932127,21.2818182 28.9932127,20.0640909 C28.9932127,18.8463636 29.8559502,17.8417045 30.9701584,17.6957955 C31.1303903,17.6746591 31.25,17.5307955 31.25,17.36 Z M22.3357593,21.0176576 C22.2582276,21.0975784 22.2226314,21.2125611 22.241161,21.3254813 L23.0013609,24.1170347 C23.0432962,24.3743278 22.849711,24.5836685 22.6302819,24.5836685 C22.572255,24.5836685 22.5127653,24.5692312 22.4547386,24.5372629 L20.1531712,22.9295675 C20.1053844,22.9027554 20.0527214,22.8893493 20.0000584,22.8893493 C19.9473955,22.8893493 19.8947325,22.9027554 19.8469457,22.9295675 L17.5453783,24.5372629 C17.4878391,24.5692312 17.4278619,24.5836685 17.369835,24.5836685 C17.1504059,24.5836685 16.9568207,24.3743278 16.998756,24.1170347 L17.7589559,21.3254813 C17.7774855,21.2125611 17.7418893,21.0975784 17.6643576,21.0176576 L15.4817696,19.1805124 C15.2584395,18.9500313 15.3813198,18.5483653 15.690471,18.5009285 L18.4616168,18.422039 C18.5688931,18.4055392 18.6615411,18.334384 18.7093277,18.2317761 L19.6621376,15.4495039 C19.7313798,15.3015217 19.8654752,15.2272727 20.0000584,15.2272727 C20.1346417,15.2272727 20.2687371,15.3015217 20.3379793,15.4495039 L21.2907892,18.2317761 C21.3385758,18.334384 21.4312238,18.4055392 21.5385001,18.422039 L24.3096459,18.5009285 C24.6183095,18.5483653 24.7416774,18.9500313 24.5183473,19.1805124 L22.3357593,21.0176576 L22.3357593,21.0176576 Z"/>
  </g>
</svg>
