<svg width="32" height="32" viewBox="0 0 32 32">
  <g fill="none" fill-rule="evenodd">
    <circle cx="16" cy="16" r="16" fill="#717065"/>
    <circle cx="16" cy="16" r="15" fill="#FFF"/>
    <path fill="#717065" d="M8,10.7333333 L16,7 L24,10.7333333 L24,12.3333333 L21.8666667,12.3333333 L21.8666667,20.8666667 L24,20.8666667 L24,23 L8,23 L8,20.8666667 L10.1333333,20.8666667 L10.1333333,12.3333333 L8,12.3333333 L8,10.7333333 Z M18.6666667,17.6680883 C18.6666667,16.3417444 17.4672593,15.2670221 15.9976296,15.2670221 C15.5093333,15.2670221 15.1063704,14.9087813 15.1063704,14.4652451 C15.1063704,14.0217089 15.5045926,13.6634681 15.9976296,13.6634681 C16.4906667,13.6634681 16.8888889,14.0259736 16.8888889,14.4652451 L18.6666667,14.4652451 C18.6666667,13.4246409 17.9223704,12.546098 16.8888889,12.2134459 L16.8888889,11.2666667 L15.1111111,11.2666667 L15.1111111,12.2134459 C14.0776296,12.546098 13.3333333,13.4246409 13.3333333,14.4652451 C13.3333333,15.7915889 14.5327407,16.8663113 16.0023704,16.8663113 C16.4954074,16.8663113 16.8936296,17.2245521 16.8936296,17.6680883 C16.8936296,18.1116245 16.4954074,18.4698652 16.0023704,18.4698652 C15.5093333,18.4698652 15.1111111,18.1073597 15.1111111,17.6680883 L13.3333333,17.6680883 C13.3333333,18.7086924 14.0776296,19.5872353 15.1111111,19.9198875 L15.1111111,20.8666667 L16.8888889,20.8666667 L16.8888889,19.9198875 C17.9223704,19.5872353 18.6666667,18.7086924 18.6666667,17.6680883 Z"/>
  </g>
</svg>
