<svg width="41" height="41" viewBox="0 0 41 41">
  <g fill="none" fill-rule="evenodd" transform="translate(-3 -4)">
    <path fill="#FFF" d="M24.2795551,41.5731166 C23.5728764,41.256593 22.4262588,41.2569804 21.7204449,41.5731166 L19.1031742,42.7453999 C18.3964954,43.0619235 17.4552348,42.8090943 17.0020501,42.1824054 L15.321569,39.858543 C14.867829,39.2310861 13.8746353,38.6581128 13.1053144,38.5789878 L10.2525499,38.2855797 C9.48228637,38.2063577 8.79354533,37.5167709 8.71442033,36.7474501 L8.42101219,33.8946856 C8.34179022,33.124422 7.76814595,32.1316157 7.14145704,31.678431 L4.81759457,29.9979499 C4.19013774,29.5442099 3.93846389,28.6026397 4.25460006,27.8968258 L5.42688342,25.2795551 C5.74340697,24.5728764 5.74301958,23.4262588 5.42688342,22.7204449 L4.25460006,20.1031742 C3.93807651,19.3964954 4.19090566,18.4552348 4.81759457,18.0020501 L7.14145704,16.321569 C7.76891387,15.867829 8.34188718,14.8746353 8.42101219,14.1053144 L8.71442033,11.2525499 C8.79364229,10.4822864 9.48322906,9.79354533 10.2525499,9.71442033 L13.1053144,9.42101219 C13.875578,9.34179022 14.8683843,8.76814595 15.321569,8.14145704 L17.0020501,5.81759457 C17.4557901,5.19013774 18.3973603,4.93846389 19.1031742,5.25460006 L21.7204449,6.42688342 C22.4271236,6.74340697 23.5737412,6.74301958 24.2795551,6.42688342 L26.8968258,5.25460006 C27.6035046,4.93807651 28.5447652,5.19090566 28.9979499,5.81759457 L30.678431,8.14145704 C31.132171,8.76891387 32.1253647,9.34188718 32.8946856,9.42101219 L35.7474501,9.71442033 C36.5177136,9.79364229 37.2064547,10.4832291 37.2855797,11.2525499 L37.5789878,14.1053144 C37.6582098,14.875578 38.231854,15.8683843 38.858543,16.321569 L41.1824054,18.0020501 C41.8098623,18.4557901 42.0615361,19.3973603 41.7453999,20.1031742 L40.5731166,22.7204449 C40.256593,23.4271236 40.2569804,24.5737412 40.5731166,25.2795551 L41.7453999,27.8968258 C42.0619235,28.6035046 41.8090943,29.5447652 41.1824054,29.9979499 L38.858543,31.678431 C38.2310861,32.132171 37.6581128,33.1253647 37.5789878,33.8946856 L37.2855797,36.7474501 C37.2063577,37.5177136 36.5167709,38.2064547 35.7474501,38.2855797 L32.8946856,38.5789878 C32.124422,38.6582098 31.1316157,39.231854 30.678431,39.858543 L28.9979499,42.1824054 C28.5442099,42.8098623 27.6026397,43.0615361 26.8968258,42.7453999 L24.2795551,41.5731166 Z" opacity=".4"/>
    <path fill="#4E4E46" d="M24.2791942,40.7229549 C23.5727148,40.4065207 22.4358931,40.4026652 21.7208058,40.7229549 L19.3616324,41.7796358 C18.6551529,42.09607 17.7202398,41.8517228 17.2611009,41.2168 L15.7463372,39.1221009 C15.2927252,38.4948211 14.3101365,37.9230713 13.5307078,37.8429067 L10.9592633,37.5784324 C10.189217,37.4992328 9.50173217,36.8201654 9.42156757,36.0407367 L9.15709332,33.4692922 C9.0778937,32.6992459 8.51282185,31.7128017 7.87789908,31.2536628 L5.78319995,29.7388991 C5.1559201,29.2852871 4.90007446,28.353455 5.22036424,27.6383676 L6.27704506,25.2791942 C6.59347934,24.5727148 6.59733484,23.4358931 6.27704506,22.7208058 L5.22036424,20.3616324 C4.90392996,19.6551529 5.14827718,18.7202398 5.78319995,18.2611009 L7.87789908,16.7463372 C8.50517893,16.2927252 9.07692872,15.3101365 9.15709332,14.5307078 L9.42156757,11.9592633 C9.50076718,11.189217 10.1798346,10.5017322 10.9592633,10.4215676 L13.5307078,10.1570933 C14.3007541,10.0778937 15.2871983,9.51282185 15.7463372,8.87789908 L17.2611009,6.78319995 C17.7147129,6.1559201 18.646545,5.90007446 19.3616324,6.22036424 L21.7208058,7.27704506 C22.4272852,7.59347934 23.5641069,7.59733484 24.2791942,7.27704506 L26.6383676,6.22036424 C27.3448471,5.90392996 28.2797602,6.14827718 28.7388991,6.78319995 L30.2536628,8.87789908 C30.7072748,9.50517893 31.6898635,10.0769287 32.4692922,10.1570933 L35.0407367,10.4215676 C35.810783,10.5007672 36.4982678,11.1798346 36.5784324,11.9592633 L36.8429067,14.5307078 C36.9221063,15.3007541 37.4871782,16.2871983 38.1221009,16.7463372 L40.2168,18.2611009 C40.8440799,18.7147129 41.0999255,19.646545 40.7796358,20.3616324 L39.7229549,22.7208058 C39.4065207,23.4272852 39.4026652,24.5641069 39.7229549,25.2791942 L40.7796358,27.6383676 C41.09607,28.3448471 40.8517228,29.2797602 40.2168,29.7388991 L38.1221009,31.2536628 C37.4948211,31.7072748 36.9230713,32.6898635 36.8429067,33.4692922 L36.5784324,36.0407367 C36.4992328,36.810783 35.8201654,37.4982678 35.0407367,37.5784324 L32.4692922,37.8429067 C31.6992459,37.9221063 30.7128017,38.4871782 30.2536628,39.1221009 L28.7388991,41.2168 C28.2852871,41.8440799 27.353455,42.0999255 26.6383676,41.7796358 L24.2791942,40.7229549 Z"/>
    <path fill="#FFF" d="M24.2726403,39.0200194 C23.5697805,38.7052064 22.4247868,38.7076397 21.7273597,39.0200194 L19.8727165,39.8507197 C19.1698567,40.1655327 18.2307469,39.9100099 17.7829471,39.2907676 L16.5921291,37.6440385 C16.1408412,37.0199725 15.1480309,36.449583 14.3878515,36.3713982 L12.3663332,36.1634841 C11.6002323,36.0846903 10.9147007,35.3938462 10.8365159,34.6336668 L10.6286018,32.6121485 C10.5498079,31.8460475 9.97520378,30.8556706 9.35596152,30.4078709 L7.70923235,29.2170529 C7.08516638,28.7657649 6.83690067,27.8247106 7.14928034,27.1272835 L7.97998061,25.2726403 C8.29479363,24.5697805 8.29236029,23.4247868 7.97998061,22.7273597 L7.14928034,20.8727165 C6.83446733,20.1698567 7.08999009,19.2307469 7.70923235,18.7829471 L9.35596152,17.5921291 C9.98002749,17.1408412 10.550417,16.1480309 10.6286018,15.3878515 L10.8365159,13.3663332 C10.9153097,12.6002323 11.6061538,11.9147007 12.3663332,11.8365159 L14.3878515,11.6286018 C15.1539525,11.5498079 16.1443294,10.9752038 16.5921291,10.3559615 L17.7829471,8.70923235 C18.2342351,8.08516638 19.1752894,7.83690067 19.8727165,8.14928034 L21.7273597,8.97998061 C22.4302195,9.29479363 23.5752132,9.29236029 24.2726403,8.97998061 L26.1272835,8.14928034 C26.8301433,7.83446733 27.7692531,8.08999009 28.2170529,8.70923235 L29.4078709,10.3559615 C29.8591588,10.9800275 30.8519691,11.550417 31.6121485,11.6286018 L33.6336668,11.8365159 C34.3997677,11.9153097 35.0852993,12.6061538 35.1634841,13.3663332 L35.3713982,15.3878515 C35.4501921,16.1539525 36.0247962,17.1443294 36.6440385,17.5921291 L38.2907676,18.7829471 C38.9148336,19.2342351 39.1630993,20.1752894 38.8507197,20.8727165 L38.0200194,22.7273597 C37.7052064,23.4302195 37.7076397,24.5752132 38.0200194,25.2726403 L38.8507197,27.1272835 C39.1655327,27.8301433 38.9100099,28.7692531 38.2907676,29.2170529 L36.6440385,30.4078709 C36.0199725,30.8591588 35.449583,31.8519691 35.3713982,32.6121485 L35.1634841,34.6336668 C35.0846903,35.3997677 34.3938462,36.0852993 33.6336668,36.1634841 L31.6121485,36.3713982 C30.8460475,36.4501921 29.8556706,37.0247962 29.4078709,37.6440385 L28.2170529,39.2907676 C27.7657649,39.9148336 26.8247106,40.1630993 26.1272835,39.8507197 L24.2726403,39.0200194 Z"/>
    <path fill="#4E4E46" fill-rule="nonzero" d="M18.5130495,19.8571429 C17.8361264,19.8571429 17.2438187,20.2504911 17.0020604,20.8515625 L15.1888736,25.2712054 C15.0559066,25.6012054 15,25.9120536 15,26.265625 L15,33.4107143 C15,33.7407143 15.2659341,34 15.6043956,34 L18.021978,34 C18.3604396,34 18.6263736,33.7407143 18.6263736,33.4107143 L18.6263736,31.6428571 L28.2967033,31.6428571 L28.2967033,33.4107143 C28.2967033,33.7407143 28.5626374,34 28.9010989,34 L31.3186813,34 C31.6571429,34 31.9230769,33.7407143 31.9230769,33.4107143 L31.9230769,26.265625 C31.9230769,25.9120536 31.8671703,25.6012054 31.7342033,25.2712054 L29.9210165,20.8515625 C29.6792582,20.2504911 29.0869505,19.8571429 28.4100275,19.8571429 L18.5130495,19.8571429 Z M19.3063187,21.7354911 L27.6167582,21.7354911 C27.9068681,21.7354911 28.1879121,21.9181696 28.2967033,22.1774554 L29.8832418,25.75 L17.0398352,25.75 C17.0398352,25.75 18.167033,23.2028125 18.6263736,22.1774554 C18.7351648,21.9181696 19.0162088,21.7354911 19.3063187,21.7354911 Z M18.021978,26.9285714 C19.0252747,26.9285714 19.8351648,27.7182143 19.8351648,28.6964286 C19.8351648,29.6746429 19.0252747,30.4642857 18.021978,30.4642857 C17.0186813,30.4642857 16.2087912,29.6746429 16.2087912,28.6964286 C16.2087912,27.7182143 17.0186813,26.9285714 18.021978,26.9285714 Z M28.9010989,26.9285714 C29.9043956,26.9285714 30.7142857,27.7182143 30.7142857,28.6964286 C30.7142857,29.6746429 29.9043956,30.4642857 28.9010989,30.4642857 C27.8978022,30.4642857 27.0879121,29.6746429 27.0879121,28.6964286 C27.0879121,27.7182143 27.8978022,26.9285714 28.9010989,26.9285714 Z M16.2087912,15.1428571 C16.2087912,13.9904762 17.8825021,12 17.8825021,12 C17.8825021,12 19.556213,13.9904762 19.556213,15.1428571 C19.556213,16.2952381 18.8030431,17.2380952 17.8825021,17.2380952 C16.9619611,17.2380952 16.2087912,16.2952381 16.2087912,15.1428571 Z M23.4615385,12 C23.4615385,12 25.1352494,13.9904762 25.1352494,15.1428571 C25.1352494,16.2952381 24.3820795,17.2380952 23.4615385,17.2380952 C22.5409975,17.2380952 21.7878276,16.2952381 21.7878276,15.1428571 C21.7878276,13.9904762 23.4615385,12 23.4615385,12 Z M29.0405748,12 C29.0405748,12 30.7142857,13.9904762 30.7142857,15.1428571 C30.7142857,16.2952381 29.9611158,17.2380952 29.0405748,17.2380952 C28.1200338,17.2380952 27.3668639,16.2952381 27.3668639,15.1428571 C27.3668639,13.9904762 29.0405748,12 29.0405748,12 Z"/>
  </g>
</svg>
