<svg width="32" height="32" viewBox="0 0 32 32">
  <g fill="none" fill-rule="evenodd" transform="translate(-4 -4)">
    <circle cx="20" cy="20" r="16" fill="#717065"/>
    <circle cx="20" cy="20" r="15" fill="#FFF"/>
    <path fill="#717065" fill-rule="nonzero" d="M15.90625,17 C15.34625,17 14.85625,17.300375 14.65625,17.759375 L13.15625,21.134375 C13.04625,21.386375 13,21.62375 13,21.89375 L13,27.35 C13,27.602 13.22,27.8 13.5,27.8 L15.5,27.8 C15.78,27.8 16,27.602 16,27.35 L16,26 L24,26 L24,27.35 C24,27.602 24.22,27.8 24.5,27.8 L26.5,27.8 C26.78,27.8 27,27.602 27,27.35 L27,21.89375 C27,21.62375 26.95375,21.386375 26.84375,21.134375 L25.34375,17.759375 C25.14375,17.300375 24.65375,17 24.09375,17 L15.90625,17 Z M16.5625,18.434375 L23.4375,18.434375 C23.6775,18.434375 23.91,18.573875 24,18.771875 L25.3125,21.5 L14.6875,21.5 C14.6875,21.5 15.62,19.554875 16,18.771875 C16.09,18.573875 16.3225,18.434375 16.5625,18.434375 Z M15.5,22.4 C16.33,22.4 17,23.003 17,23.75 C17,24.497 16.33,25.1 15.5,25.1 C14.67,25.1 14,24.497 14,23.75 C14,23.003 14.67,22.4 15.5,22.4 Z M24.5,22.4 C25.33,22.4 26,23.003 26,23.75 C26,24.497 25.33,25.1 24.5,25.1 C23.67,25.1 23,24.497 23,23.75 C23,23.003 23.67,22.4 24.5,22.4 Z M14,13.4 C14,12.52 15.3846154,11 15.3846154,11 C15.3846154,11 16.7692308,12.52 16.7692308,13.4 C16.7692308,14.28 16.1461538,15 15.3846154,15 C14.6230769,15 14,14.28 14,13.4 Z M20,11 C20,11 21.3846154,12.52 21.3846154,13.4 C21.3846154,14.28 20.7615385,15 20,15 C19.2384615,15 18.6153846,14.28 18.6153846,13.4 C18.6153846,12.52 20,11 20,11 Z M24.6153846,11 C24.6153846,11 26,12.52 26,13.4 C26,14.28 25.3769231,15 24.6153846,15 C23.8538462,15 23.2307692,14.28 23.2307692,13.4 C23.2307692,12.52 24.6153846,11 24.6153846,11 Z"/>
  </g>
</svg>
