<svg width="41" height="41" viewBox="0 0 41 41">
  <g fill="none" fill-rule="evenodd" transform="translate(-752 -1140)">
    <g transform="translate(749 1136)">
      <path fill="#FFF" d="M24.2795551,41.5731166 C23.5728764,41.256593 22.4262588,41.2569804 21.7204449,41.5731166 L19.1031742,42.7453999 C18.3964954,43.0619235 17.4552348,42.8090943 17.0020501,42.1824054 L15.321569,39.858543 C14.867829,39.2310861 13.8746353,38.6581128 13.1053144,38.5789878 L10.2525499,38.2855797 C9.48228637,38.2063577 8.79354533,37.5167709 8.71442033,36.7474501 L8.42101219,33.8946856 C8.34179022,33.124422 7.76814595,32.1316157 7.14145704,31.678431 L4.81759457,29.9979499 C4.19013774,29.5442099 3.93846389,28.6026397 4.25460006,27.8968258 L5.42688342,25.2795551 C5.74340697,24.5728764 5.74301958,23.4262588 5.42688342,22.7204449 L4.25460006,20.1031742 C3.93807651,19.3964954 4.19090566,18.4552348 4.81759457,18.0020501 L7.14145704,16.321569 C7.76891387,15.867829 8.34188718,14.8746353 8.42101219,14.1053144 L8.71442033,11.2525499 C8.79364229,10.4822864 9.48322906,9.79354533 10.2525499,9.71442033 L13.1053144,9.42101219 C13.875578,9.34179022 14.8683843,8.76814595 15.321569,8.14145704 L17.0020501,5.81759457 C17.4557901,5.19013774 18.3973603,4.93846389 19.1031742,5.25460006 L21.7204449,6.42688342 C22.4271236,6.74340697 23.5737412,6.74301958 24.2795551,6.42688342 L26.8968258,5.25460006 C27.6035046,4.93807651 28.5447652,5.19090566 28.9979499,5.81759457 L30.678431,8.14145704 C31.132171,8.76891387 32.1253647,9.34188718 32.8946856,9.42101219 L35.7474501,9.71442033 C36.5177136,9.79364229 37.2064547,10.4832291 37.2855797,11.2525499 L37.5789878,14.1053144 C37.6582098,14.875578 38.231854,15.8683843 38.858543,16.321569 L41.1824054,18.0020501 C41.8098623,18.4557901 42.0615361,19.3973603 41.7453999,20.1031742 L40.5731166,22.7204449 C40.256593,23.4271236 40.2569804,24.5737412 40.5731166,25.2795551 L41.7453999,27.8968258 C42.0619235,28.6035046 41.8090943,29.5447652 41.1824054,29.9979499 L38.858543,31.678431 C38.2310861,32.132171 37.6581128,33.1253647 37.5789878,33.8946856 L37.2855797,36.7474501 C37.2063577,37.5177136 36.5167709,38.2064547 35.7474501,38.2855797 L32.8946856,38.5789878 C32.124422,38.6582098 31.1316157,39.231854 30.678431,39.858543 L28.9979499,42.1824054 C28.5442099,42.8098623 27.6026397,43.0615361 26.8968258,42.7453999 L24.2795551,41.5731166 Z" opacity=".4"/>
      <path fill="#4E4E46" d="M24.2791942,40.7229549 C23.5727148,40.4065207 22.4358931,40.4026652 21.7208058,40.7229549 L19.3616324,41.7796358 C18.6551529,42.09607 17.7202398,41.8517228 17.2611009,41.2168 L15.7463372,39.1221009 C15.2927252,38.4948211 14.3101365,37.9230713 13.5307078,37.8429067 L10.9592633,37.5784324 C10.189217,37.4992328 9.50173217,36.8201654 9.42156757,36.0407367 L9.15709332,33.4692922 C9.0778937,32.6992459 8.51282185,31.7128017 7.87789908,31.2536628 L5.78319995,29.7388991 C5.1559201,29.2852871 4.90007446,28.353455 5.22036424,27.6383676 L6.27704506,25.2791942 C6.59347934,24.5727148 6.59733484,23.4358931 6.27704506,22.7208058 L5.22036424,20.3616324 C4.90392996,19.6551529 5.14827718,18.7202398 5.78319995,18.2611009 L7.87789908,16.7463372 C8.50517893,16.2927252 9.07692872,15.3101365 9.15709332,14.5307078 L9.42156757,11.9592633 C9.50076718,11.189217 10.1798346,10.5017322 10.9592633,10.4215676 L13.5307078,10.1570933 C14.3007541,10.0778937 15.2871983,9.51282185 15.7463372,8.87789908 L17.2611009,6.78319995 C17.7147129,6.1559201 18.646545,5.90007446 19.3616324,6.22036424 L21.7208058,7.27704506 C22.4272852,7.59347934 23.5641069,7.59733484 24.2791942,7.27704506 L26.6383676,6.22036424 C27.3448471,5.90392996 28.2797602,6.14827718 28.7388991,6.78319995 L30.2536628,8.87789908 C30.7072748,9.50517893 31.6898635,10.0769287 32.4692922,10.1570933 L35.0407367,10.4215676 C35.810783,10.5007672 36.4982678,11.1798346 36.5784324,11.9592633 L36.8429067,14.5307078 C36.9221063,15.3007541 37.4871782,16.2871983 38.1221009,16.7463372 L40.2168,18.2611009 C40.8440799,18.7147129 41.0999255,19.646545 40.7796358,20.3616324 L39.7229549,22.7208058 C39.4065207,23.4272852 39.4026652,24.5641069 39.7229549,25.2791942 L40.7796358,27.6383676 C41.09607,28.3448471 40.8517228,29.2797602 40.2168,29.7388991 L38.1221009,31.2536628 C37.4948211,31.7072748 36.9230713,32.6898635 36.8429067,33.4692922 L36.5784324,36.0407367 C36.4992328,36.810783 35.8201654,37.4982678 35.0407367,37.5784324 L32.4692922,37.8429067 C31.6992459,37.9221063 30.7128017,38.4871782 30.2536628,39.1221009 L28.7388991,41.2168 C28.2852871,41.8440799 27.353455,42.0999255 26.6383676,41.7796358 L24.2791942,40.7229549 Z"/>
      <path fill="#FFF" d="M24.2726403,39.0200194 C23.5697805,38.7052064 22.4247868,38.7076397 21.7273597,39.0200194 L19.8727165,39.8507197 C19.1698567,40.1655327 18.2307469,39.9100099 17.7829471,39.2907676 L16.5921291,37.6440385 C16.1408412,37.0199725 15.1480309,36.449583 14.3878515,36.3713982 L12.3663332,36.1634841 C11.6002323,36.0846903 10.9147007,35.3938462 10.8365159,34.6336668 L10.6286018,32.6121485 C10.5498079,31.8460475 9.97520378,30.8556706 9.35596152,30.4078709 L7.70923235,29.2170529 C7.08516638,28.7657649 6.83690067,27.8247106 7.14928034,27.1272835 L7.97998061,25.2726403 C8.29479363,24.5697805 8.29236029,23.4247868 7.97998061,22.7273597 L7.14928034,20.8727165 C6.83446733,20.1698567 7.08999009,19.2307469 7.70923235,18.7829471 L9.35596152,17.5921291 C9.98002749,17.1408412 10.550417,16.1480309 10.6286018,15.3878515 L10.8365159,13.3663332 C10.9153097,12.6002323 11.6061538,11.9147007 12.3663332,11.8365159 L14.3878515,11.6286018 C15.1539525,11.5498079 16.1443294,10.9752038 16.5921291,10.3559615 L17.7829471,8.70923235 C18.2342351,8.08516638 19.1752894,7.83690067 19.8727165,8.14928034 L21.7273597,8.97998061 C22.4302195,9.29479363 23.5752132,9.29236029 24.2726403,8.97998061 L26.1272835,8.14928034 C26.8301433,7.83446733 27.7692531,8.08999009 28.2170529,8.70923235 L29.4078709,10.3559615 C29.8591588,10.9800275 30.8519691,11.550417 31.6121485,11.6286018 L33.6336668,11.8365159 C34.3997677,11.9153097 35.0852993,12.6061538 35.1634841,13.3663332 L35.3713982,15.3878515 C35.4501921,16.1539525 36.0247962,17.1443294 36.6440385,17.5921291 L38.2907676,18.7829471 C38.9148336,19.2342351 39.1630993,20.1752894 38.8507197,20.8727165 L38.0200194,22.7273597 C37.7052064,23.4302195 37.7076397,24.5752132 38.0200194,25.2726403 L38.8507197,27.1272835 C39.1655327,27.8301433 38.9100099,28.7692531 38.2907676,29.2170529 L36.6440385,30.4078709 C36.0199725,30.8591588 35.449583,31.8519691 35.3713982,32.6121485 L35.1634841,34.6336668 C35.0846903,35.3997677 34.3938462,36.0852993 33.6336668,36.1634841 L31.6121485,36.3713982 C30.8460475,36.4501921 29.8556706,37.0247962 29.4078709,37.6440385 L28.2170529,39.2907676 C27.7657649,39.9148336 26.8247106,40.1630993 26.1272835,39.8507197 L24.2726403,39.0200194 Z"/>
      <path fill="#4E4E46" fill-rule="nonzero" d="M16,13 C14.3545455,13 13,14.4266625 13,16.1597222 L13,20.3726852 L13,23.5324074 C13,24.1643519 13.4,24.5856481 14,24.5856481 L15,24.5856481 C15,23.4270833 15.9,22.4791667 17,22.4791667 C18.1,22.4791667 19,23.4270833 19,24.5856481 L27,24.5856481 C27,23.4270833 27.9,22.4791667 29,22.4791667 C30.1,22.4791667 31,23.4270833 31,24.5856481 L32,24.5856481 C32.6,24.5856481 33,24.1643519 33,23.5324074 L33,20.8005642 C33,19.9579716 32.39375,19.1087963 31.59375,18.7928241 L29,17.640842 L26.375,14.2507234 C26.3699,14.2440037 26.3489,14.2574009 26.34375,14.2507234 C25.761139,13.4952813 24.925155,13 24,13 L16,13 Z M16,15.1064815 L24,15.1064815 C24.266667,15.1064815 24.595338,15.2813689 24.8125,15.5672743 L26.09375,17.212963 L15,17.212963 L15,16.1597222 C15,15.5756523 15.4454545,15.1064815 16,15.1064815 Z M17,26.9930556 C15.3549901,26.9930556 14,28.4201873 14,30.1527778 C14,31.8853683 15.3549901,33.3125 17,33.3125 C18.2920182,33.3125 19.3942822,32.4232962 19.8125,31.2060185 L21.28125,31.2060185 C21.627293,31.8346937 22.260396,32.2592593 23,32.2592593 C23.739604,32.2592593 24.372707,31.8346937 24.71875,31.2060185 L26.1875,31.2060185 C26.605718,32.4232962 27.707982,33.3125 29,33.3125 C30.64501,33.3125 32,31.8853693 32,30.1527778 C32,28.4201862 30.64501,26.9930556 29,26.9930556 C27.707982,26.9930556 26.605718,27.8822593 26.1875,29.099537 L24.71875,29.099537 C24.372707,28.4708619 23.739604,28.0462963 23,28.0462963 C22.260396,28.0462963 21.627293,28.4708619 21.28125,29.099537 L19.8125,29.099537 C19.3942822,27.8822593 18.2920182,26.9930556 17,26.9930556 Z M17,29.099537 C17.5641291,29.099537 18,29.5586141 18,30.1527778 C18,30.7469414 17.5641291,31.2060185 17,31.2060185 C16.4358709,31.2060185 16,30.7469414 16,30.1527778 C16,29.5586141 16.4358709,29.099537 17,29.099537 Z M29,29.099537 C29.564128,29.099537 30,29.5586152 30,30.1527778 C30,30.7469404 29.564128,31.2060185 29,31.2060185 C28.435872,31.2060185 28,30.7469404 28,30.1527778 C28,29.5586152 28.435872,29.099537 29,29.099537 Z"/>
    </g>
  </g>
</svg>
