<svg width="32" height="32" viewBox="0 0 32 32">
  <g fill="none" fill-rule="evenodd">
    <circle cx="16" cy="16" r="16" fill="#717065"/>
    <circle cx="16" cy="16" r="15" fill="#FFF"/>
    <path fill="#717065" d="M15.4615385,6 C14.2720015,6 13.3076923,6.94252632 13.3076923,8.10526316 C13.3076923,9.268 14.2720015,10.2105263 15.4615385,10.2105263 C16.6510754,10.2105263 17.6153846,9.268 17.6153846,8.10526316 C17.6153846,6.94252632 16.6510754,6 15.4615385,6 L15.4615385,6 Z M9.26923077,10.2105263 L9.80769231,12.3157895 C10.0769231,13.3684211 10.7200185,13.3684211 11.5240385,13.3684211 L13.3076923,13.3684211 C13.9471154,14.4210526 13.6465677,15.9703158 13.8461538,17.5789474 L12.8701923,17.5789474 C11.7932692,17.5789474 10.0769231,18.6315789 11.1538462,20.7368421 L12.7692308,23.8947368 C13.8461538,26 15.4615385,24.4210526 14.9230769,23.3684211 L13.3076923,20.2105263 C13.0384615,19.6842105 13.5923231,19.6842105 13.8461538,19.6842105 L16.5039246,19.6842105 C16.5039246,19.6842105 17.7787215,22.4501053 19.28034,24.3457895 C19.8346538,25.0455789 20.4486508,26 21.2171862,26 C21.7556477,26 22.6783985,25.1866316 21.69632,24.0410526 C19.8572154,21.8957895 18.6923077,19.6842105 18.6923077,18.6315789 C18.6923077,17.4071579 18.4722492,14.8287368 18.1538462,13.3684211 L19.7692308,13.3684211 C20.2947692,14.398 21.1153846,16 21.1153846,16 C21.7106431,17.0077895 23,16.9316842 23,16 C23,15.8721053 23,15.5906316 22.8497477,15.2875789 L21.1153846,11.7894737 C21.0046985,11.5662105 20.8424708,11.2631579 20.0384615,11.2631579 L11.6923077,11.2631579 L10.8846154,8.63157895 C10.5615385,7.57894737 9,7.57894737 9,8.63157895 C9,9.15789474 9.19078769,9.79694737 9.26923077,10.2105263 L9.26923077,10.2105263 Z"/>
  </g>
</svg>
