<svg width="32" height="32" viewBox="0 0 32 32">
  <g fill="none" fill-rule="evenodd">
    <circle cx="16" cy="16" r="16" fill="#717065"/>
    <circle cx="16" cy="16" r="15" fill="#FFF"/>
    <path fill="#717065" d="M15.5263162,8 C14.5789478,8 13.6315794,8.49999375 13.6315794,9.999975 C13.6315794,10.5366683 13.6729699,10.6281671 13.7796057,11.0937613 L14.4309215,13.9374258 L10.9078953,16.2186973 L7.71052701,14.2499219 C7.60412068,14.1839227 7.46538389,14.1819227 7.29605335,14.2189223 C7.12672271,14.2559218 6.99964973,14.4676192 7.00000073,14.6876164 C7.00035173,14.9076137 7.09128062,15.0350121 7.23684282,15.1251109 L20.9736844,23.6250047 C21.4052779,23.8880014 21.7946587,23.9939001 22.1578949,24 C22.4120018,24 22.6616883,23.9650004 22.8684211,23.8750016 C23.3706704,23.6571043 23.6849229,23.2632092 23.9046053,23.0313121 C24.0146763,22.9150136 24.0526316,22.7732153 24.0526316,22.6250172 C24.0526316,22.4135198 23.930638,22.1888226 23.6677632,22.156323 C23.4981303,22.1353233 23.3603602,22.2003225 23.2532895,22.3438207 C23.0309005,22.641417 22.7533007,22.8646142 22.513158,22.9688129 C22.2730153,23.0730116 22.0074385,23.0913114 21.4473686,22.7500156 L12.6546058,17.3125836 L16.0592109,15.2189098 C16.374425,14.9909126 16.5348031,14.5481181 16.4440793,14.156423 L16.0592109,12.5001437 L19.4466184,14.6049174 L20.0855265,17.1755853 C20.1585686,17.4633817 20.3601696,17.7115786 20.6184212,17.8318771 L22.7796054,18.8318646 C24.3011548,19.5358558 24.517978,18.0059749 23.5493422,17.5628805 L21.7730264,16.7503906 L20.2631581,10.5009687 L17.3618424,8.75099061 C16.6169532,8.29709629 16.0000004,8.00099999 15.5263162,8.00099999 L15.5263162,8 Z M23.1052632,9.999975 C22.0588285,9.999975 21.2105265,10.8953638 21.2105265,11.99995 C21.2105265,13.1045362 22.0588285,13.999925 23.1052632,13.999925 C24.1516979,13.999925 25,13.1045362 25,11.99995 C25,10.8953638 24.1516979,9.999975 23.1052632,9.999975 L23.1052632,9.999975 Z"/>
  </g>
</svg>
