<svg width="32" height="32" viewBox="0 0 32 32">
  <g fill="none" fill-rule="evenodd">
    <circle cx="16" cy="16" r="16" fill="#717065"/>
    <circle cx="16" cy="16" r="15" fill="#FFF"/>
    <path fill="#717065" fill-rule="nonzero" d="M13.6626081,8 C12.655106,8 12.062149,8.34176261 12.062149,8.34176261 L12.4032304,8.99680763 L10.3829787,10.4492987 L10.7240602,11.531547 L12.1670971,11.1897844 C13.1745993,11.918878 14.2608125,11.4404103 14.344771,9.70881307 C14.8485221,10.8935901 14.4234821,11.8049571 13.583897,11.9872305 L13.583897,13.4682018 L11.1438527,16.0883819 C10.9759357,16.2706553 10.8919772,16.6408981 11.1438527,16.9143082 L12.5868897,18.7370422 L13.5051859,19.2781663 L14.2660599,18.2813587 L13.2428156,17.8256752 L12.4032304,16.5440654 L13.583897,15.7466193 C13.583897,15.7466193 14.433977,17.4611284 15.9452302,18.2813587 L17.4407412,16.8288676 L16.6011561,18.195918 C16.097405,19.107285 16.3650228,20.1211807 17.2046079,20.7591376 L18.5426967,21.7559453 L17.7818227,23.5786792 L17.7818227,24.5754868 L16.6011561,24.5754868 L16.7848153,23.6641199 L17.8605338,22.0122672 L16.8635264,21.3857024 L15.6828598,23.2084364 L15.3417784,24.5754868 L19.0412003,24.5754868 L19.0412003,23.6641199 L20.1431558,21.3002618 L19.0412003,19.7338498 C19.0412003,19.7338498 20.7203706,18.8338749 20.7203706,17.284551 C20.7203706,17.256182 20.7208164,17.2043216 20.7203706,17.1706302 C22.4367697,16.8111096 22.6818396,19.4074966 22.0584594,20.9300189 L24,20.9300189 C24,18.2870547 22.982003,16.3731841 21.6386668,16.3731841 C21.2516382,16.3731841 20.9079776,16.5118403 20.6416595,16.6579862 C20.5095449,16.1282533 20.1292909,15.4603017 18.8837781,15.0915743 L17.0209486,13.7245238 C17.6926167,12.0840632 17.6086582,8 13.6626081,8 Z M10.7801418,13.443299 L8.89361702,14.4054983 L8,15.4776632 L9.19148936,16.0824742 L9.58865248,15.3676976 L10.7056738,14.5979381 L11.3510638,14.5979381 L12.4680851,13.443299 L10.7801418,13.443299 Z"/>
  </g>
</svg>
