<svg width="32" height="32" viewBox="0 0 32 32">
  <g fill="none" fill-rule="evenodd">
    <circle cx="16" cy="16" r="16" fill="#717065"/>
    <circle cx="16" cy="16" r="15" fill="#FFF"/>
    <path fill="#717065" fill-rule="nonzero" d="M14.4590747,8 C13.5156702,8 12.7508897,8.7163444 12.7508897,9.6 C12.7508897,10.4836556 13.5156702,11.2 14.4590747,11.2 C15.4024789,11.2 16.1672598,10.4836556 16.1672598,9.6 C16.1672598,8.7163444 15.4024789,8 14.4590747,8 Z M22.1459075,8 C22.1459075,10.7161905 21.2544629,12.0807974 20.3042705,12.8 C19.354078,13.5192026 18.2804914,13.6 17.8754448,13.6 L17.8754448,14.4 C18.4099001,14.4 19.6743917,14.2807974 20.8380783,13.4 C22.0017648,12.5192026 23,10.8838095 23,8 L22.1459075,8 Z M18.7562278,8.125 C18.7562278,8.125 18.412599,9.39059648 18.088968,10.3 L18.088968,10.325 L18.0622776,10.375 C17.9645702,10.7410774 17.6695599,11.0219339 17.2882562,11.175 L12.430605,13.1 C11.7571276,13.3628433 11.140182,13.1756202 10.7491103,12.6 C10.1479671,11.6357749 9.46797153,10.625 9.46797153,10.625 L8,11.45 C8,11.45 8.69070668,12.5019348 9.28113879,13.45 L9.30782918,13.475 C10.1124871,14.65938 11.6948297,15.1121568 13.0711744,14.575 L13.2313167,14.525 L14.0320285,16.95 L17.2882562,15.525 L16.9679715,13.05 L17.955516,12.65 C18.7460897,12.332641 19.4271345,11.6976765 19.6903915,10.825 L19.7170819,10.825 C20.0767248,9.81440352 20.411032,8.525 20.411032,8.525 L18.7562278,8.125 Z M18.7295374,16.05 C18.4111018,16.04172 18.1015317,16.097544 17.7953737,16.225 L17.7686833,16.225 L17.7419929,16.25 L13.8185053,18.075 C12.7199573,18.5894864 11.8828121,19.5595464 11.6565836,20.725 L13.3380783,21.025 C13.4534869,20.4304536 13.98289,19.8105136 14.5925267,19.525 L17.0213523,18.4 L17.0213523,24 L17.8754448,24 L17.8754448,18 L18.4893238,17.7 C18.6456902,17.634904 18.7541796,17.633976 18.8362989,17.675 C18.9184199,17.716024 18.9803826,17.77458 18.9964413,17.925 L19.4234875,21.525 L21.1049822,21.35 L20.6779359,17.75 C20.6085853,17.10042 20.1954608,16.5539768 19.6370107,16.275 C19.3577856,16.1355112 19.047973,16.0582824 18.7295374,16.05 Z M11.6565836,20.725 L11.6298932,20.725 L10.8825623,24 L12.6708185,24 L13.3380783,21.05 L11.6565836,20.725 Z"/>
  </g>
</svg>
