<svg width="32" height="32" viewBox="0 0 32 32">
  <g fill="none" fill-rule="evenodd">
    <circle cx="16" cy="16" r="16" fill="#717065"/>
    <circle cx="16" cy="16" r="15" fill="#FFF"/>
    <path fill="#717065" d="M24,15.0535789 C24,12.9362105 22.9461333,11.0376842 21.2864,9.73410526 L20.8,7 L18.6666667,7 L18.9237333,8.44473684 C18.016,8.12736842 17.0336,7.94736842 16.0010667,7.94736842 C14.9674667,7.94736842 13.9829333,8.12736842 13.0762667,8.44568421 L13.3333333,7 L11.2,7 L10.7136,9.73505263 C9.05386667,11.0376842 8,12.9362105 8,15.0535789 C8,16.3751579 8.416,17.6076842 9.12533333,18.6677895 L8,25 L10.1333333,25 L10.9258667,20.5416842 C12.1781333,21.4568421 13.7493333,22.0328421 15.4666667,22.1351579 L15.4666667,24.0526316 L16.5333333,24.0526316 L16.5333333,22.1351579 C18.2496,22.0347368 19.8218667,21.4577895 21.0741333,20.5426316 L21.8666667,25 L24,25 L22.8746667,18.6687368 C23.584,17.6076842 24,16.3751579 24,15.0535789 L24,15.0535789 Z M16.0010667,20.2641053 C12.7658667,20.2641053 10.1333333,17.926 10.1333333,15.0535789 C10.1333333,12.1802105 12.7658667,9.84210526 16.0010667,9.84210526 C19.2352,9.84210526 21.8666667,12.1802105 21.8666667,15.0535789 C21.8666667,17.926 19.2352,20.2641053 16.0010667,20.2641053 L16.0010667,20.2641053 Z M16.0010667,12.6842105 C14.5301333,12.6842105 13.3333333,13.7462105 13.3333333,15.0526316 C13.3333333,16.3590526 14.5301333,17.4210526 16.0010667,17.4210526 C17.4709333,17.4210526 18.6666667,16.3590526 18.6666667,15.0526316 C18.6666667,13.7462105 17.4709333,12.6842105 16.0010667,12.6842105 L16.0010667,12.6842105 Z M16.0010667,16.4736842 C15.1168,16.4736842 14.4,15.8370526 14.4,15.0526316 C14.4,14.2682105 15.1168,13.6315789 16.0010667,13.6315789 C16.8842667,13.6315789 17.6,14.2682105 17.6,15.0526316 C17.6,15.8370526 16.8842667,16.4736842 16.0010667,16.4736842 L16.0010667,16.4736842 Z"/>
  </g>
</svg>
