<svg width="32" height="32" viewBox="0 0 32 32">
  <g fill="none" fill-rule="evenodd">
    <circle cx="16" cy="16" r="16" fill="#717065"/>
    <circle cx="16" cy="16" r="15" fill="#FFF"/>
    <path fill="#717065" d="M20.0979443,8.00220933 C17.0413079,8.12455007 14.0213738,9.35454506 11.68843,11.68843 C9.35454506,14.0213738 8.12549115,17.0413079 8.00220933,20.0979443 C7.92409947,22.0695124 9.93048762,24.0759005 11.9020557,23.9977907 C14.9586921,23.8745088 17.9786262,22.6454549 20.31157,20.31157 C22.6454549,17.9786262 23.8754499,14.9586921 23.9977907,11.9020557 C24.0759005,9.93048762 22.0695124,7.92409947 20.0979443,8.00220933 L20.0979443,8.00220933 Z M20.9100986,14.1888865 C21.1303119,14.4081587 21.1303119,14.7667112 20.9100986,14.9869246 L20.6343614,15.2626618 C20.528019,15.3690041 20.3859156,15.4282923 20.2353423,15.4282923 C20.0847691,15.4282923 19.9426656,15.3699452 19.8363233,15.2626618 L18.8237184,14.2509979 L17.0751869,15.9995295 L18.0868507,17.0121344 C18.3070641,17.2314066 18.3070641,17.5899591 18.0868507,17.8101724 L17.8111135,18.0859096 C17.7047712,18.192252 17.5626677,18.2515402 17.4120945,18.2515402 C17.2615213,18.2515402 17.1194178,18.1931931 17.0130754,18.0859096 L16.0004705,17.0742458 L14.251939,18.8227773 L15.2636028,19.8353822 C15.3699452,19.9417246 15.4292334,20.083828 15.4292334,20.2344013 C15.4292334,20.3849745 15.3708863,20.527078 15.2636028,20.6334203 L14.9878656,20.9091575 C14.8815233,21.0154998 14.7394198,21.074788 14.5888466,21.074788 C14.4382734,21.074788 14.2961699,21.0164409 14.1898276,20.9091575 L13.1772227,19.8974937 L12.1646178,20.9091575 C12.0582754,21.0154998 11.916172,21.074788 11.7655987,21.074788 C11.6150255,21.074788 11.472922,21.0164409 11.3665797,20.9091575 L11.0908425,20.6334203 C10.8706292,20.414148 10.8706292,20.0555956 11.0908425,19.8353822 L12.1025063,18.8227773 L11.0908425,17.8101724 C10.8706292,17.5909002 10.8706292,17.2323477 11.0908425,17.0121344 L11.3665797,16.7363972 C11.472922,16.6300548 11.6150255,16.5707666 11.7655987,16.5707666 C11.916172,16.5707666 12.0582754,16.6291137 12.1646178,16.7363972 L13.1772227,17.748061 L14.9257542,15.9995295 L13.9140904,14.9869246 C13.693877,14.7676523 13.693877,14.4090998 13.9140904,14.1888865 L14.1898276,13.9131493 C14.2961699,13.8068069 14.4382734,13.7475187 14.5888466,13.7475187 C14.7394198,13.7475187 14.8815233,13.8058659 14.9878656,13.9131493 L16.0004705,14.9248131 L17.7490021,13.1762816 L16.7373382,12.1636767 C16.6309959,12.0573344 16.5717077,11.9152309 16.5717077,11.7646577 C16.5717077,11.6140844 16.6300548,11.471981 16.7373382,11.3656386 L17.0130754,11.0899014 C17.1194178,10.9835591 17.2615213,10.9242709 17.4120945,10.9242709 C17.5626677,10.9242709 17.7047712,10.982618 17.8111135,11.0899014 L18.8237184,12.1015652 L19.8363233,11.0899014 C19.9426656,10.9835591 20.0847691,10.9242709 20.2353423,10.9242709 C20.3859156,10.9242709 20.528019,10.982618 20.6343614,11.0899014 L20.9100986,11.3656386 C21.1303119,11.5849109 21.1303119,11.9434634 20.9100986,12.1636767 L19.8984348,13.1762816 L20.9100986,14.1888865 L20.9100986,14.1888865 Z"/>
  </g>
</svg>
