<svg width="36" height="36" viewBox="0 0 36 36">
  <g fill="none" fill-rule="evenodd">
    <path fill="#FFFFFE" d="M18,0 C27.9394103,0 36,8.06060951 36,18 C36,27.9395953 27.9394103,36 18,36 C8.06058972,36 0,27.9395953 0,18 C0,8.06060951 8.06058972,0 18,0" opacity=".6"/>
    <path fill="#F9C623" d="M18.9113684,2.07057895 C21.6077895,2.07057895 24.0745263,3.04952632 26.0555789,4.707 C26.4730526,5.09710526 26.3995789,5.391 25.9858947,5.43921053 C20.0606316,6.64278947 14.1355789,8.31689474 8.21031579,10.2697368 C7.56589474,10.4516316 7.86357895,9.16405263 8.12715789,8.74447368 C10.4410526,4.74678947 14.4522105,2.07057895 18.9113684,2.07057895 Z M29.3136842,22.1977368 C27.1269474,26.7703684 22.8155789,29.923 17.976,29.923 C15.6490526,29.923 13.4934737,29.1941579 11.6730526,27.9295263 C11.1791579,27.5307895 11.3237895,27.1747895 11.7877895,27.0023684 C16.9412632,24.9404737 22.4096842,23.0888947 28.4033684,21.5874211 C29.0924211,21.4114211 29.6193684,21.5267895 29.3136842,22.1977368 Z"/>
    <path fill="#BF2626" d="M6.26168421,19.7086842 L8.70926316,18.5853158 L8.70063158,21.5143684 L11.0366316,17.7425789 C11.8391579,16.6324737 13.6046316,17.7558421 12.9625263,18.8259474 C12.3741053,19.8958421 11.7856842,20.9659474 11.1970526,22.0360526 L12.9625263,24.0423684 C13.7233684,24.8762632 12.0528421,26.8301579 11.0366316,25.7676316 C10.2875789,25.0053158 9.53852632,24.2427895 8.78947368,23.4804737 L8.74947368,26.2091053 C8.79494737,26.7714211 8.64547368,27.1326842 8.18757895,27.2924737 C7.54568421,27.5600526 6.90357895,27.8274211 6.26168421,28.095 L6.26168421,19.7086842 Z M13.5821053,17.7402632 C13.5882105,17.1691053 13.8545263,16.7707895 14.4309474,16.4512105 C15.0178947,16.2101579 15.6048421,15.9691053 16.1917895,15.7278421 L16.1288421,23.2739474 C16.1153684,23.8876316 15.8612632,24.3488947 15.1856842,24.6575263 C14.6406316,24.8878421 14.0955789,25.1183684 13.5507368,25.3491053 C13.5507368,25.3491053 13.5821053,17.8975263 13.5821053,17.7402632 Z M16.9776842,23.9657368 L16.9149474,15.6337368 C17.376,15.4659474 17.8372632,15.2983684 18.2983158,15.1305789 C18.8244211,14.9093158 19.2427368,15.1926842 19.4301053,15.5080526 L21.7882105,18.0861579 C21.7778947,17.1219474 21.7671579,16.1577368 21.7568421,15.1935263 C21.7254737,14.6065789 22.3016842,14.1874211 23.0145263,13.9358421 L24.0206316,13.6215263 L24.052,21.3560526 C24.0555789,22.2314211 22.4785263,22.6981579 22.0082105,22.1105789 C21.6848421,21.6697368 19.3357895,19.1236316 19.3357895,19.1236316 L19.2416842,22.3621579 C19.1943158,23.2817368 18.5025263,23.5804737 16.9776842,23.9657368 Z M28.1393684,16.1053158 L31.5978947,15.2564737 L31.5978947,18.6834211 C31.252,20.0040526 30.1831579,20.7166842 28.2966316,21.0101579 C25.8861053,21.2406842 24.4189474,19.8781579 24.4608421,17.3000526 C24.9324211,13.6320526 26.9970526,12.0179474 30.6547368,12.4581579 C32.4783158,12.7305789 31.8181053,14.7848947 30.2774737,14.4703684 C28.2597895,14.0813158 26.908,15.0899474 26.8189474,16.9227895 C26.9027368,18.7779474 28.1604211,19.543 29.46,18.4634211 L29.4913684,17.6459474 C28.6791579,17.8347895 28.0816842,17.7926842 28.108,17.1114211 C28.108,17.1114211 28.2023158,16.1366842 28.1393684,16.1053158 Z M20.2052632,10.5160526 L22.4498947,9.94868421 L22.4498947,12.239 C22.2254737,13.1215263 21.5315789,13.5977368 20.3071579,13.7939474 C18.7427368,13.9478421 17.7905263,13.0373158 17.8176842,11.3143684 C18.1237895,8.863 19.4637895,7.78447368 21.8376842,8.07878947 C23.0212632,8.26068421 22.5928421,9.63352632 21.5928421,9.42342105 C20.2833684,9.16342105 19.4058947,9.83752632 19.3482105,11.0623684 C19.4027368,12.3019474 20.2187368,12.8133158 21.0623158,12.0920526 L21.0825263,11.5455263 C20.5553684,11.6718421 20.1677895,11.6436316 20.1848421,11.1884737 C20.1848421,11.1884737 20.2458947,10.5371053 20.2052632,10.5160526 Z M4.95747368,13.1181579 L7.508,12.2152105 C8.61389474,11.8522632 9.33621053,13.8874211 8.20757895,15.0592105 C9.38126316,14.9387895 9.38126316,17.1958421 7.98189474,17.9482632 L4.98021053,19.3701579 C4.98021053,19.3701579 4.98021053,13.2535263 4.95747368,13.1181579 Z M6.38505263,15.9152105 L6.30863158,17.5419474 C6.90842105,17.3177368 7.53663158,16.9897368 7.53052632,16.1571053 C7.53957895,15.7320526 7.02694737,15.5888947 6.38505263,15.9152105 Z M6.37936842,13.6147895 L6.30863158,15.1333158 C6.864,14.9240526 7.44589474,14.6177368 7.44042105,13.8404737 C7.44863158,13.4436316 6.97410526,13.3101579 6.37936842,13.6147895 Z M9.22336842,11.8992105 C9.21578947,11.0225789 10.7054737,10.9097368 10.6905263,11.6735263 C10.6905263,12.7720526 10.6905263,13.8703684 10.6905263,14.9688947 C10.6753684,15.7663684 11.6985263,15.7286842 11.7964211,14.7882632 C11.7814737,13.4941579 11.7663158,12.3131053 11.7513684,11.019 C11.7964211,10.2817368 13.2185263,10.011 13.2408421,10.7707895 C13.2334737,12.1701579 13.2258947,13.3663684 13.2185263,14.7657368 C13.1581053,15.9242632 12.4661053,16.6992105 11.2096842,16.955 C10.2690526,17.1432105 9.19326316,16.7444737 9.20084211,15.7587895 C9.20084211,15.7587895 9.22336842,12.0347895 9.22336842,11.8992105 Z M13.7374737,15.7587895 L13.6696842,10.0484737 L15.9042105,9.34889474 C17.2962105,8.92005263 18.2892632,10.8234211 16.7393684,12.3733158 C17.0930526,12.7720526 17.4467368,13.1707895 17.8002105,13.5695263 C18.3191579,14.2316316 17.2357895,15.1419474 16.6490526,14.6078421 L15.2271579,13.2760526 C15.2046316,13.7200526 15.1821053,14.1638421 15.1593684,14.6078421 C15.1143158,15.2737368 14.6404211,15.5821579 13.7374737,15.7587895 Z M15.1821053,10.5901579 C15.1745263,11.1318421 15.1669474,11.7413158 15.1593684,12.283 C16.5667368,11.6057368 16.3934737,10.0032105 15.1821053,10.5901579 Z M26.4138947,12.283 L26.3747368,6.76110526 L28.6816842,6.38026316 C30.1183158,6.14973684 31.1317895,8.11836842 29.5261053,9.41015789 C29.8882105,9.84194737 30.2507368,10.2735263 30.6130526,10.7051053 C31.1444211,11.4126842 30.0229474,12.1488947 29.4210526,11.5556316 L27.9625263,10.0825789 C27.9368421,10.5080526 27.9111579,10.9337368 27.8856842,11.3592105 C27.8355789,11.9960526 27.3454737,12.2314211 26.4138947,12.283 Z M27.9305263,7.48342105 C27.9197895,8.00552632 27.9088421,8.59268421 27.8981053,9.11478947 C29.352,8.64636842 29.1823158,7.07647368 27.9305263,7.48342105 Z M22.8250526,7.51268421 L26.0818947,6.847 C26.0898947,7.91668421 25.8126316,8.09121053 24.2515789,8.39226316 C24.2515789,8.68531579 24.2515789,9.02615789 24.2515789,9.31942105 L25.9391579,9.01036842 C26.0044211,9.90384211 25.8705263,10.1091053 24.3227368,10.3655263 L24.3227368,11.5539474 L26.1056842,11.1259474 C26.1452632,11.7996316 26.1056842,12.4019474 25.2023158,12.6238421 C24.3305263,12.7981579 23.7444211,12.9248947 22.8726316,13.0992105 L22.8250526,7.51268421 Z"/>
    <path fill="#2F6499" d="M18.0917895,0.420684211 C19.6046316,0.420684211 21.072,0.622157895 22.4705263,0.997947368 L22.3709474,1.16594737 C19.0082105,0.449736842 14.1884211,1.52026316 12.0597895,2.53036842 C6.76294737,4.79542105 3.00926316,10.2891053 3.00926316,16.6798421 C3.00926316,20.1280526 4.10252632,23.3145789 5.94063158,25.8743684 L5.94063158,28.6493158 L7.71094737,27.9263684 C10.2829474,30.4147895 13.7052632,31.9366842 17.4536842,31.9366842 C23.38,31.9366842 28.4911579,28.1335263 30.7138947,22.7200526 C31.6086316,23.2257368 32.8149474,23.9156316 33.7985263,24.4796316 C31.1802105,30.6324737 25.1202105,34.9596316 18.0917895,34.9596316 C8.68042105,34.9596316 1.00442105,27.2019474 1.00442105,17.6901579 C1.00442105,8.17836842 8.68042105,0.420684211 18.0917895,0.420684211"/>
  </g>
</svg>
