<svg width="40" height="40" viewBox="0 0 40 40">
  <g fill="none" fill-rule="evenodd">
    <path fill="#FFF" d="M21.2795551,37.5731166 C20.5728764,37.256593 19.4262588,37.2569804 18.7204449,37.5731166 L16.1031742,38.7453999 C15.3964954,39.0619235 14.4552348,38.8090943 14.0020501,38.1824054 L12.321569,35.858543 C11.867829,35.2310861 10.8746353,34.6581128 10.1053144,34.5789878 L7.25254993,34.2855797 C6.48228637,34.2063577 5.79354533,33.5167709 5.71442033,32.7474501 L5.42101219,29.8946856 C5.34179022,29.124422 4.76814595,28.1316157 4.14145704,27.678431 L1.81759457,25.9979499 C1.19013774,25.5442099 0.938463891,24.6026397 1.25460006,23.8968258 L2.42688342,21.2795551 C2.74340697,20.5728764 2.74301958,19.4262588 2.42688342,18.7204449 L1.25460006,16.1031742 C0.938076509,15.3964954 1.19090566,14.4552348 1.81759457,14.0020501 L4.14145704,12.321569 C4.76891387,11.867829 5.34188718,10.8746353 5.42101219,10.1053144 L5.71442033,7.25254993 C5.79364229,6.48228637 6.48322906,5.79354533 7.25254993,5.71442033 L10.1053144,5.42101219 C10.875578,5.34179022 11.8683843,4.76814595 12.321569,4.14145704 L14.0020501,1.81759457 C14.4557901,1.19013774 15.3973603,0.938463891 16.1031742,1.25460006 L18.7204449,2.42688342 C19.4271236,2.74340697 20.5737412,2.74301958 21.2795551,2.42688342 L23.8968258,1.25460006 C24.6035046,0.938076509 25.5447652,1.19090566 25.9979499,1.81759457 L27.678431,4.14145704 C28.132171,4.76891387 29.1253647,5.34188718 29.8946856,5.42101219 L32.7474501,5.71442033 C33.5177136,5.79364229 34.2064547,6.48322906 34.2855797,7.25254993 L34.5789878,10.1053144 C34.6582098,10.875578 35.231854,11.8683843 35.858543,12.321569 L38.1824054,14.0020501 C38.8098623,14.4557901 39.0615361,15.3973603 38.7453999,16.1031742 L37.5731166,18.7204449 C37.256593,19.4271236 37.2569804,20.5737412 37.5731166,21.2795551 L38.7453999,23.8968258 C39.0619235,24.6035046 38.8090943,25.5447652 38.1824054,25.9979499 L35.858543,27.678431 C35.2310861,28.132171 34.6581128,29.1253647 34.5789878,29.8946856 L34.2855797,32.7474501 C34.2063577,33.5177136 33.5167709,34.2064547 32.7474501,34.2855797 L29.8946856,34.5789878 C29.124422,34.6582098 28.1316157,35.231854 27.678431,35.858543 L25.9979499,38.1824054 C25.5442099,38.8098623 24.6026397,39.0615361 23.8968258,38.7453999 L21.2795551,37.5731166 Z" opacity=".4"/>
    <path fill="#4E4E46" d="M21.2791942,36.7229549 C20.5727148,36.4065207 19.4358931,36.4026652 18.7208058,36.7229549 L16.3616324,37.7796358 C15.6551529,38.09607 14.7202398,37.8517228 14.2611009,37.2168 L12.7463372,35.1221009 C12.2927252,34.4948211 11.3101365,33.9230713 10.5307078,33.8429067 L7.95926334,33.5784324 C7.18921703,33.4992328 6.50173217,32.8201654 6.42156757,32.0407367 L6.15709332,29.4692922 C6.0778937,28.6992459 5.51282185,27.7128017 4.87789908,27.2536628 L2.78319995,25.7388991 C2.1559201,25.2852871 1.90007446,24.353455 2.22036424,23.6383676 L3.27704506,21.2791942 C3.59347934,20.5727148 3.59733484,19.4358931 3.27704506,18.7208058 L2.22036424,16.3616324 C1.90392996,15.6551529 2.14827718,14.7202398 2.78319995,14.2611009 L4.87789908,12.7463372 C5.50517893,12.2927252 6.07692872,11.3101365 6.15709332,10.5307078 L6.42156757,7.95926334 C6.50076718,7.18921703 7.17983462,6.50173217 7.95926334,6.42156757 L10.5307078,6.15709332 C11.3007541,6.0778937 12.2871983,5.51282185 12.7463372,4.87789908 L14.2611009,2.78319995 C14.7147129,2.1559201 15.646545,1.90007446 16.3616324,2.22036424 L18.7208058,3.27704506 C19.4272852,3.59347934 20.5641069,3.59733484 21.2791942,3.27704506 L23.6383676,2.22036424 C24.3448471,1.90392996 25.2797602,2.14827718 25.7388991,2.78319995 L27.2536628,4.87789908 C27.7072748,5.50517893 28.6898635,6.07692872 29.4692922,6.15709332 L32.0407367,6.42156757 C32.810783,6.50076718 33.4982678,7.17983462 33.5784324,7.95926334 L33.8429067,10.5307078 C33.9221063,11.3007541 34.4871782,12.2871983 35.1221009,12.7463372 L37.2168,14.2611009 C37.8440799,14.7147129 38.0999255,15.646545 37.7796358,16.3616324 L36.7229549,18.7208058 C36.4065207,19.4272852 36.4026652,20.5641069 36.7229549,21.2791942 L37.7796358,23.6383676 C38.09607,24.3448471 37.8517228,25.2797602 37.2168,25.7388991 L35.1221009,27.2536628 C34.4948211,27.7072748 33.9230713,28.6898635 33.8429067,29.4692922 L33.5784324,32.0407367 C33.4992328,32.810783 32.8201654,33.4982678 32.0407367,33.5784324 L29.4692922,33.8429067 C28.6992459,33.9221063 27.7128017,34.4871782 27.2536628,35.1221009 L25.7388991,37.2168 C25.2852871,37.8440799 24.353455,38.0999255 23.6383676,37.7796358 L21.2791942,36.7229549 Z"/>
    <path fill="#FFF" d="M21.2726403,35.0200194 C20.5697805,34.7052064 19.4247868,34.7076397 18.7273597,35.0200194 L16.8727165,35.8507197 C16.1698567,36.1655327 15.2307469,35.9100099 14.7829471,35.2907676 L13.5921291,33.6440385 C13.1408412,33.0199725 12.1480309,32.449583 11.3878515,32.3713982 L9.3663332,32.1634841 C8.60023225,32.0846903 7.91470066,31.3938462 7.83651586,30.6336668 L7.62860177,28.6121485 C7.54980794,27.8460475 6.97520378,26.8556706 6.35596152,26.4078709 L4.70923235,25.2170529 C4.08516638,24.7657649 3.83690067,23.8247106 4.14928034,23.1272835 L4.97998061,21.2726403 C5.29479363,20.5697805 5.29236029,19.4247868 4.97998061,18.7273597 L4.14928034,16.8727165 C3.83446733,16.1698567 4.08999009,15.2307469 4.70923235,14.7829471 L6.35596152,13.5921291 C6.98002749,13.1408412 7.55041697,12.1480309 7.62860177,11.3878515 L7.83651586,9.3663332 C7.9153097,8.60023225 8.60615382,7.91470066 9.3663332,7.83651586 L11.3878515,7.62860177 C12.1539525,7.54980794 13.1443294,6.97520378 13.5921291,6.35596152 L14.7829471,4.70923235 C15.2342351,4.08516638 16.1752894,3.83690067 16.8727165,4.14928034 L18.7273597,4.97998061 C19.4302195,5.29479363 20.5752132,5.29236029 21.2726403,4.97998061 L23.1272835,4.14928034 C23.8301433,3.83446733 24.7692531,4.08999009 25.2170529,4.70923235 L26.4078709,6.35596152 C26.8591588,6.98002749 27.8519691,7.55041697 28.6121485,7.62860177 L30.6336668,7.83651586 C31.3997677,7.9153097 32.0852993,8.60615382 32.1634841,9.3663332 L32.3713982,11.3878515 C32.4501921,12.1539525 33.0247962,13.1443294 33.6440385,13.5921291 L35.2907676,14.7829471 C35.9148336,15.2342351 36.1630993,16.1752894 35.8507197,16.8727165 L35.0200194,18.7273597 C34.7052064,19.4302195 34.7076397,20.5752132 35.0200194,21.2726403 L35.8507197,23.1272835 C36.1655327,23.8301433 35.9100099,24.7692531 35.2907676,25.2170529 L33.6440385,26.4078709 C33.0199725,26.8591588 32.449583,27.8519691 32.3713982,28.6121485 L32.1634841,30.6336668 C32.0846903,31.3997677 31.3938462,32.0852993 30.6336668,32.1634841 L28.6121485,32.3713982 C27.8460475,32.4501921 26.8556706,33.0247962 26.4078709,33.6440385 L25.2170529,35.2907676 C24.7657649,35.9148336 23.8247106,36.1630993 23.1272835,35.8507197 L21.2726403,35.0200194 Z"/>
    <path fill="#4E4E46" d="M29.4841562,18.4059078 L27.5702706,18.6339144 C27.2493157,16.8276745 26.3054006,15.242316 24.9647331,14.1058456 L26.1182756,12.5584882 C26.6950468,11.7628401 26.4747605,10.7201849 25.6255922,10.2285456 C24.7764238,9.73690635 23.7650016,10.0670409 23.3658806,10.964817 L22.6055374,12.742556 C21.7907148,12.449235 20.9154911,12.2794176 20,12.2794176 C19.0845089,12.2794176 18.2081009,12.449235 17.3932782,12.7437436 L16.6317507,10.964817 C16.2338141,10.0658534 15.2235762,9.73690635 14.3744078,10.2273581 C13.5252395,10.7189973 13.3049532,11.7628401 13.8793557,12.5584882 L15.0340825,14.1070331 C13.6957838,15.2411285 12.7542373,16.8252994 12.4309138,18.6267892 L10.5170281,18.4035327 C9.54113591,18.3014047 8.75,19.017488 8.75,20.0007665 C8.75,20.984045 9.54113591,21.7001283 10.5170281,21.5980003 L12.4309138,21.3747439 C12.753053,23.1738586 13.6934151,24.7556544 15.0281609,25.8897498 L13.8793557,27.4382947 C13.3037688,28.2363179 13.5252395,29.2801607 14.3744078,29.7717999 C15.2235762,30.2634392 16.2373671,29.9344921 16.6364881,29.0367161 L17.4015686,27.2613521 C18.2152069,27.5534856 19.0868776,27.7221155 20,27.7221155 C20.9131224,27.7221155 21.7859775,27.5534856 22.5984314,27.2613521 L23.3623276,29.034341 C23.7638172,29.9344921 24.7752395,30.2634392 25.6255922,29.7717999 C26.4747605,29.2801607 26.6962312,28.2339428 26.1206443,27.4394823 L24.9706548,25.8897498 C26.3077692,24.7544669 27.2493157,23.1691084 27.5702706,21.3664311 L29.4841562,21.5944377 C30.4588641,21.6977532 31.25,20.984045 31.25,20.0007665 C31.25,19.017488 30.4588641,18.3025923 29.4841562,18.4059078 L29.4841562,18.4059078 Z M25.4195178,18.8904218 L21.0031319,19.4176871 L23.6524897,15.8645841 C24.5324508,16.6483568 25.1767291,17.6921996 25.4195178,18.8904218 L25.4195178,18.8904218 Z M19.9988157,14.4514181 C20.6123013,14.4514181 21.1902569,14.5749217 21.7421571,14.760177 L19.9976313,18.8381703 L18.2542899,14.7613646 C18.8061901,14.5761092 19.38533,14.4514181 19.9988157,14.4514181 L19.9988157,14.4514181 Z M16.3439573,15.8669591 L18.9731814,19.3915614 L14.5804822,18.8773589 C14.8256395,17.6850744 15.4675492,16.6459817 16.3439573,15.8669591 L16.3439573,15.8669591 Z M14.5804822,21.121799 L18.9412043,20.6111592 L16.3356669,24.1238861 C15.4628119,23.3448635 14.8244552,22.3093335 14.5804822,21.121799 L14.5804822,21.121799 Z M19.9988157,25.5477399 C19.3900674,25.5477399 18.8156648,25.4242363 18.2685019,25.2425435 L19.9988157,21.2251145 L21.7291294,25.2425435 C21.1807822,25.4242363 20.607564,25.5477399 19.9988157,25.5477399 L19.9988157,25.5477399 Z M23.6631488,24.1262612 L21.0362933,20.586221 L25.4195178,21.1087362 C25.1779135,22.3022083 24.5371881,23.3424884 23.6631488,24.1262612 L23.6631488,24.1262612 Z"/>
  </g>
</svg>
