<svg width="32" height="32" viewBox="0 0 32 32">
  <g fill="none" fill-rule="evenodd">
    <circle cx="16" cy="16" r="16" fill="#717065"/>
    <circle cx="16" cy="16" r="15" fill="#FFF"/>
    <path fill="#717065" d="M23.587325,14.7247262 L22.0562164,14.9071315 C21.7994526,13.4621396 21.0443205,12.1938528 19.9717865,11.2846764 L20.8946205,10.0467905 C21.3560375,9.41027209 21.1798084,8.57614789 20.5004737,8.18283649 C19.8211391,7.78952508 19.0120013,8.05363274 18.6927045,8.77185357 L18.0844299,10.1940448 C17.4325718,9.95938801 16.7323929,9.82353407 16,9.82353407 C15.2676071,9.82353407 14.5664807,9.95938801 13.9146226,10.1949948 L13.3054006,8.77185357 C12.9870513,8.05268271 12.1788609,7.78952508 11.4995263,8.18188646 C10.8201916,8.57519787 10.6439625,9.41027209 11.1034846,10.0467905 L12.027266,11.2856265 C10.956627,12.1929028 10.2033898,13.4602395 9.94473102,14.9014313 L8.41362249,14.7228262 C7.63290873,14.6411238 7,15.2139904 7,16.0006132 C7,16.787236 7.63290873,17.3601026 8.41362249,17.2784003 L9.94473102,17.0997951 C10.2024424,18.5390868 10.9547321,19.8045235 12.0225287,20.7117999 L11.1034846,21.9506358 C10.6430151,22.5890543 10.8201916,23.4241285 11.4995263,23.8174399 C12.1788609,24.2107513 12.9898937,23.9475937 13.3091904,23.2293729 L13.9212549,21.8090817 C14.5721655,22.0427885 15.2695021,22.1776924 16,22.1776924 C16.7304979,22.1776924 17.428782,22.0427885 18.0787451,21.8090817 L18.6898621,23.2274728 C19.0110538,23.9475937 19.8201916,24.2107513 20.5004737,23.8174399 C21.1798084,23.4241285 21.3569849,22.5871542 20.8965154,21.9515858 L19.9765238,20.7117999 C21.0462154,19.8035735 21.7994526,18.5352867 22.0562164,17.0931449 L23.587325,17.2755502 C24.3670913,17.3582026 25,16.787236 25,16.0006132 C25,15.2139904 24.3670913,14.6420738 23.587325,14.7247262 L23.587325,14.7247262 Z M20.3356143,15.1123375 L16.8025055,15.5341497 L18.9219918,12.6916673 C19.6259606,13.3186854 20.1413833,14.1537597 20.3356143,15.1123375 L20.3356143,15.1123375 Z M15.9990525,11.5611345 C16.489841,11.5611345 16.9522055,11.6599373 17.3937257,11.8081416 L15.9981051,15.0705362 L14.6034319,11.8090917 C15.0449521,11.6608874 15.508264,11.5611345 15.9990525,11.5611345 L15.9990525,11.5611345 Z M13.0751658,12.6935673 L15.1785451,15.5132491 L11.6643857,15.1018872 C11.8605116,14.1480595 12.3740394,13.3167854 13.0751658,12.6935673 L13.0751658,12.6935673 Z M11.6643857,16.8974392 L15.1529635,16.4889274 L13.0685335,19.2991089 C12.3702495,18.6758908 11.8595642,17.8474668 11.6643857,16.8974392 L11.6643857,16.8974392 Z M15.9990525,20.4381919 C15.5120539,20.4381919 15.0525318,20.3393891 14.6148016,20.1940348 L15.9990525,16.9800916 L17.3833035,20.1940348 C16.9446258,20.3393891 16.4860512,20.4381919 15.9990525,20.4381919 L15.9990525,20.4381919 Z M18.930519,19.3010089 L16.8290346,16.4689768 L20.3356143,16.8869889 C20.1423308,17.8417666 19.6297505,18.6739908 18.930519,19.3010089 L18.930519,19.3010089 Z"/>
  </g>
</svg>
