<svg width="32" height="32" viewBox="0 0 32 32">
  <g fill="none" fill-rule="evenodd">
    <circle cx="16" cy="16" r="16" fill="#717065"/>
    <circle cx="16" cy="16" r="15" fill="#FFF"/>
    <path fill="#717065" d="M20.8,17 L19.0222222,17 L19.0222222,21 L20.8,21 L20.8,17 Z M22.9333333,17 L22.9333333,21 L24,21 L24,23 L8,23 L8,21 L9.06666667,21 L9.06666667,17 L8,17 L8,15 L24,15 L24,17 L22.9333333,17 Z M16.8888889,17 L15.1111111,17 L15.1111111,21 L16.8888889,21 L16.8888889,17 Z M12.9777778,17 L11.2,17 L11.2,21 L12.9777778,21 L12.9777778,17 Z M16.5333333,11.2666667 L24,15 L8,15 L15.4666667,11.2666667 L15.4666667,7 L16.5333333,7 L16.5333333,11.2666667 Z M16,15 C16.5891037,15 17.0666667,14.5522847 17.0666667,14 C17.0666667,13.4477153 16.5891037,13 16,13 C15.4108963,13 14.9333333,13.4477153 14.9333333,14 C14.9333333,14.5522847 15.4108963,15 16,15 Z M16.5333333,8 L18.6666667,7.5 L20.8,8 L20.8,10 L18.6666667,9.5 L16.5333333,10 L16.5333333,8 Z"/>
  </g>
</svg>
