<svg width="32" height="32" viewBox="0 0 32 32">
  <g fill="none" fill-rule="evenodd">
    <circle cx="16" cy="16" r="16" fill="#717065"/>
    <circle cx="16" cy="16" r="15" fill="#FFF"/>
    <path fill="#717065" d="M23.9411765,11.2 L19.7058824,11.2 L19.7058824,9.06666667 C19.7058824,8.4768 19.2315294,8 18.6470588,8 L13.3529412,8 C12.7684706,8 12.2941176,8.4768 12.2941176,9.06666667 L12.2941176,11.2 L8.05882353,11.2 C7.47435294,11.2 7,11.6768 7,12.2666667 L7,22.9333333 C7,23.5232 7.47435294,24 8.05882353,24 L23.9411765,24 C24.5256471,24 25,23.5232 25,22.9333333 L25,12.2666667 C25,11.6768 24.5256471,11.2 23.9411765,11.2 L23.9411765,11.2 Z M11.2352941,22.9333333 L10.1764706,22.9333333 L10.1764706,12.2666667 L11.2352941,12.2666667 L11.2352941,22.9333333 Z M18.6470588,11.2 L13.3529412,11.2 L13.3529412,9.06666667 L18.6470588,9.06666667 L18.6470588,11.2 Z M21.8235294,22.9333333 L20.7647059,22.9333333 L20.7647059,12.2666667 L21.8235294,12.2666667 L21.8235294,22.9333333 Z"/>
  </g>
</svg>
