<svg width="32" height="32" viewBox="0 0 32 32">
  <g fill="none" fill-rule="evenodd">
    <circle cx="16" cy="16" r="16" fill="#717065"/>
    <circle cx="16" cy="16" r="15" fill="#FFF"/>
    <path fill="#717065" d="M19.7692308,12.2666667 L12.2307692,12.2666667 C11.6359846,12.2666667 11.1538462,11.78912 11.1538462,11.2 L11.1538462,8.53333333 C11.1538462,8.23882667 11.3949692,8 11.6923077,8 C11.9896462,8 12.2307692,8.23882667 12.2307692,8.53333333 L12.2307692,10.1333333 L13.3076923,10.1333333 L13.3076923,9.06666667 C13.3076923,8.47754667 13.7898308,8 14.3846154,8 C14.9794,8 15.4615385,8.47754667 15.4615385,9.06666667 L15.4615385,10.1333333 L16.5384615,10.1333333 L16.5384615,9.06666667 C16.5384615,8.47754667 17.0206,8 17.6153846,8 C18.2101692,8 18.6923077,8.47754667 18.6923077,9.06666667 L18.6923077,10.1333333 L19.7692308,10.1333333 L19.7692308,8.53333333 C19.7692308,8.23882667 20.0103538,8 20.3076923,8 C20.6050308,8 20.8461538,8.23882667 20.8461538,8.53333333 L20.8461538,11.2 C20.8461538,11.78912 20.3640154,12.2666667 19.7692308,12.2666667 L19.7692308,12.2666667 Z M23,23.4666667 C23,23.7611733 22.7588769,24 22.4615385,24 L9.53846154,24 C9.24112308,24 9,23.7611733 9,23.4666667 C9,23.17216 9.24112308,22.9333333 9.53846154,22.9333333 L10.0769231,22.9333333 C10.6717077,22.9333333 11.1538462,22.4557867 11.1538462,21.8666667 C11.1538462,21.8666667 12.2307692,15.4666667 12.2307692,14.4 C12.2307692,13.81088 12.7129077,13.3333333 13.3076923,13.3333333 L18.6923077,13.3333333 C19.2870923,13.3333333 19.7692308,13.81088 19.7692308,14.4 C19.7692308,15.4666667 20.8461538,21.8666667 20.8461538,21.8666667 C20.8461538,22.4557867 21.3282923,22.9333333 21.9230769,22.9333333 L22.4615385,22.9333333 C22.7547846,22.9332267 22.9941846,23.1656533 23,23.456 L23,23.4666667 L23,23.4666667 Z M17.6153846,19.2 C17.6153846,18.3163733 16.8921231,17.6 16,17.6 C15.1078769,17.6 14.3846154,18.3163733 14.3846154,19.2 L14.3846154,22.9333333 L17.6153846,22.9333333 L17.6153846,19.2 L17.6153846,19.2 Z"/>
  </g>
</svg>
