<svg width="32" height="32" viewBox="0 0 32 32">
  <g fill="none" fill-rule="evenodd">
    <circle cx="16" cy="16" r="16" fill="#717065"/>
    <circle cx="16" cy="16" r="15" fill="#FFF"/>
    <path fill="#717065" d="M13.3626154,17.5882353 C13.3270769,17.7597647 13.3076923,17.9365882 13.3076923,18.1176471 C13.3076923,19.5767059 14.5149231,20.7647059 16,20.7647059 C17.4850769,20.7647059 18.6923077,19.5767059 18.6923077,18.1176471 C18.6923077,17.9365882 18.6729231,17.7597647 18.6373846,17.5882353 L13.3626154,17.5882353 L13.3626154,17.5882353 Z M20.8461538,7 L11.1538462,7 C9.96923077,7 9,7.95294118 9,9.11764706 L9,22.8823529 C9,24.0470588 9.96923077,25 11.1538462,25 L20.8461538,25 C22.0307692,25 23,24.0470588 23,22.8823529 L23,9.11764706 C23,7.95294118 22.0307692,7 20.8461538,7 L20.8461538,7 Z M15.4615385,8.90588235 C16.1744615,8.90588235 16.7538462,9.47658824 16.7538462,10.1764706 C16.7538462,10.8763529 16.1744615,11.4470588 15.4615385,11.4470588 C14.7486154,11.4470588 14.1692308,10.8774118 14.1692308,10.1764706 C14.1692308,9.47552941 14.7486154,8.90588235 15.4615385,8.90588235 L15.4615385,8.90588235 Z M12.2307692,8.90588235 C12.9436923,8.90588235 13.5230769,9.47658824 13.5230769,10.1764706 C13.5230769,10.8763529 12.9436923,11.4470588 12.2307692,11.4470588 C11.5178462,11.4470588 10.9384615,10.8774118 10.9384615,10.1764706 C10.9384615,9.47552941 11.5178462,8.90588235 12.2307692,8.90588235 L12.2307692,8.90588235 Z M16,23.0941176 C13.2086154,23.0941176 10.9384615,20.8621176 10.9384615,18.1176471 C10.9384615,15.3731765 13.2086154,13.1411765 16,13.1411765 C18.7913846,13.1411765 21.0615385,15.3731765 21.0615385,18.1176471 C21.0615385,20.8621176 18.7913846,23.0941176 16,23.0941176 L16,23.0941176 Z"/>
  </g>
</svg>
