<svg width="32" height="32" viewBox="0 0 32 32">
  <g fill="none" fill-rule="evenodd">
    <circle cx="16" cy="16" r="16" fill="#717065"/>
    <circle cx="16" cy="16" r="15" fill="#FFF"/>
    <path fill="#717065" fill-rule="nonzero" d="M13.75,9 C10,9 7,12.1111111 7,16 C7,19.8888889 10,23 13.75,23 C17.5,23 20.5,19.8888889 20.5,16 C20.5,12.1111111 17.5,9 13.75,9 Z M17.8046875,9.24305556 C19.9046875,10.7208333 21.25,13.2 21.25,16 C21.25,18.8 19.9046875,21.2791667 17.8046875,22.7569444 C20.6546875,21.9013889 22.75,19.2666667 22.75,16 C22.75,12.7333333 20.6546875,10.0986111 17.8046875,9.24305556 Z M20.0546875,9.24305556 C22.1546875,10.7208333 23.5,13.2 23.5,16 C23.5,18.8 22.1546875,21.2791667 20.0546875,22.7569444 C22.9046875,21.9013889 25,19.2666667 25,16 C25,12.7333333 22.9046875,10.0986111 20.0546875,9.24305556 Z M14.5,12.8888889 L14.5,19.1111111 L13,19.1111111 L13,15.2222222 L11.5,15.2222222 L11.5,14.0555556 C13,13.9 14.5,12.8888889 14.5,12.8888889 Z"/>
  </g>
</svg>
