<svg width="32" height="32" viewBox="0 0 32 32">
  <g fill="none" fill-rule="evenodd">
    <circle cx="16" cy="16" r="16" fill="#717065"/>
    <circle cx="16" cy="16" r="15" fill="#FFF"/>
    <path fill="#717065" d="M23,13.4009068 L9,13.4009068 C9,15.4465651 10.0790769,17.2612959 11.7472308,18.4180419 L9,25 L11.1538462,25 L11.5943077,23.945537 L18.0795385,23.945537 L17.1996923,21.836611 L12.4752308,21.836611 L13.5284615,19.313281 C14.2963077,19.5768967 15.1276923,19.7276849 16,19.7276849 C16.8723077,19.7276849 17.7036923,19.5768967 18.4726154,19.313281 L20.8461538,25 L23,25 L20.2527692,18.4180419 C21.9209231,17.2612959 23,15.4465651 23,13.4009068 L23,13.4009068 Z M15.8255385,12.285285 C19.5172308,10.2375178 15.8007692,6.93810302 16.4727692,5 C14.0001538,7.43264617 17.0715385,11.0136026 15.8255385,12.285285 L15.8255385,12.285285 Z M19.0563077,12.285285 C22.748,10.8617599 19.0315385,8.56830284 19.7035385,7.22069911 C17.2309231,8.91205778 20.3023077,11.401645 19.0563077,12.285285 L19.0563077,12.285285 Z M12.5947692,12.285285 C16.2864615,10.8617599 12.57,8.56830284 13.242,7.22069911 C10.7693846,8.91205778 13.8407692,11.401645 12.5947692,12.285285 L12.5947692,12.285285 Z"/>
  </g>
</svg>
