<?xml version="1.0" encoding="UTF-8"?>
<svg width="19" height="19" version="1.1" viewBox="0 0 19 19" xml:space="preserve" xmlns="http://www.w3.org/2000/svg">
 <path d="m8.1875 17.375v-3.7242c-0.41055 0.14515-0.85225 0.22408-1.3125 0.22408-2.1747 0-3.9375-1.7629-3.9375-3.9375 0-1.1072 0.45699-2.1076 1.1926-2.823-0.20444-0.47622-0.31764-1.0009-0.31764-1.5519 0-2.1747 1.7629-3.9375 3.9375-3.9375 1.3674 0 2.5719 0.69697 3.2778 1.755 0.07359-0.00336 0.1477-0.00504 0.22216-0.00504 2.658 0 4.8126 2.1546 4.8126 4.8126 0 2.658-2.1546 4.8126-4.8126 4.8126-0.45499 0-0.8953-0.06318-1.3125-0.18112v4.5561h-1.7499z" fill="#fff"/>
</svg>
