<?xml version="1.0" encoding="UTF-8"?>
<svg width="28" height="28" version="1.1" viewBox="0 0 28 28" xmlns="http://www.w3.org/2000/svg">
 <path d="m22.548 9.2994c1.6915-0.39771 2.9517-1.9167 2.9517-3.7327 0-2.1179-1.7154-3.8333-3.8333-3.8333-2.0796 0-3.771 1.6531-3.8333 3.7135l-8.8071 3.5267c-0.6948-0.6852-1.6435-1.1069-2.6929-1.1069-2.1179 0-3.8333 1.7154-3.8333 3.8333 0 2.1179 1.7154 3.8333 3.8333 3.8333 0.58458 0 1.1404-0.12937 1.634-0.36417l6.9767 6.1046c-0.11496 0.36417-0.1773 0.75709-0.1773 1.1596 0 2.1179 1.7154 3.8333 3.8333 3.8333s3.8333-1.7154 3.8333-3.8333c0-1.3273-0.67084-2.4965-1.6962-3.1817zm-12.559 3.5602c0.10538-0.33063 0.16771-0.68042 0.17729-1.0398l8.8071-3.5219c0.1725 0.16771 0.35459 0.32105 0.55583 0.45521l-1.8112 9.9475c-0.26354 0.06227-0.5175 0.14854-0.75708 0.26355z" fill="#fff"/>
</svg>
