<?xml version="1.0" encoding="UTF-8" standalone="no"?>
<svg
   height="24px"
   viewBox="0 -960 960 960"
   width="24px"
   fill="#434343"
   version="1.1"
   id="svg1"
   sodipodi:docname="plus-alert.svg"
   inkscape:export-filename="plus-normal.png"
   inkscape:export-xdpi="96"
   inkscape:export-ydpi="96"
   inkscape:version="1.4.2 (ebf0e940, 2025-05-08)"
   xmlns:inkscape="http://www.inkscape.org/namespaces/inkscape"
   xmlns:sodipodi="http://sodipodi.sourceforge.net/DTD/sodipodi-0.dtd"
   xmlns="http://www.w3.org/2000/svg"
   xmlns:svg="http://www.w3.org/2000/svg">
  <defs
     id="defs1">
    <inkscape:path-effect
       effect="fillet_chamfer"
       id="path-effect9"
       is_visible="true"
       lpeversion="1"
       nodesatellites_param="F,0,0,1,0,120,0,1 @ F,0,0,1,0,120,0,1 @ F,0,0,1,0,120,0,1"
       radius="3"
       unit="px"
       method="auto"
       mode="F"
       chamfer_steps="1"
       flexible="false"
       use_knot_distance="true"
       apply_no_radius="true"
       apply_with_radius="true"
       only_selected="false"
       hide_knots="false" />
    <inkscape:path-effect
       effect="fillet_chamfer"
       id="path-effect7"
       is_visible="true"
       lpeversion="1"
       nodesatellites_param="F,0,0,1,0,120,0,1 @ F,0,0,1,0,120,0,1 @ F,0,0,1,0,120,0,1"
       radius="3"
       unit="px"
       method="auto"
       mode="F"
       chamfer_steps="1"
       flexible="false"
       use_knot_distance="true"
       apply_no_radius="true"
       apply_with_radius="true"
       only_selected="false"
       hide_knots="false" />
    <inkscape:path-effect
       effect="fillet_chamfer"
       id="path-effect5"
       is_visible="true"
       lpeversion="1"
       nodesatellites_param="F,0,0,1,0,120,0,1 @ F,0,0,1,0,120,0,1 @ F,0,0,1,0,120,0,1"
       radius="3"
       unit="px"
       method="auto"
       mode="F"
       chamfer_steps="1"
       flexible="false"
       use_knot_distance="true"
       apply_no_radius="true"
       apply_with_radius="true"
       only_selected="false"
       hide_knots="false" />
  </defs>
  <sodipodi:namedview
     id="namedview1"
     pagecolor="#ffffff"
     bordercolor="#111111"
     borderopacity="1"
     inkscape:showpageshadow="0"
     inkscape:pageopacity="0"
     inkscape:pagecheckerboard="1"
     inkscape:deskcolor="#d1d1d1"
     showgrid="true"
     inkscape:zoom="9.748559"
     inkscape:cx="5.5392802"
     inkscape:cy="7.6934447"
     inkscape:window-width="1512"
     inkscape:window-height="869"
     inkscape:window-x="0"
     inkscape:window-y="38"
     inkscape:window-maximized="1"
     inkscape:current-layer="svg1"
     showguides="true">
    <inkscape:grid
       id="grid1"
       units="px"
       originx="0"
       originy="0"
       spacingx="10"
       spacingy="10"
       empcolor="#e50000"
       empopacity="0.30196078"
       color="#e50000"
       opacity="0.14901961"
       empspacing="4"
       enabled="true"
       visible="true" />
  </sodipodi:namedview>
  <path
     id="rect4"
     style="fill:#757575;fill-opacity:1;stroke:none;stroke-width:60;stroke-linecap:round;stroke-linejoin:round;stroke-dasharray:none;stroke-opacity:1;paint-order:markers stroke fill;opacity:1"
     inkscape:label="plus-cut"
     d="M 480 -800 C 457.84 -800 440 -782.16 440 -760 L 440 -520 L 200 -520 C 177.84 -520 160 -502.16 160 -480 C 160 -457.84 177.84 -440 200 -440 L 440 -440 L 440 -200 C 440 -177.84 457.84 -160 480 -160 C 502.16 -160 520 -177.84 520 -200 L 520 -440 L 760 -440 A 120 120 0 0 1 646.875 -520 L 520 -520 L 520 -760 C 520 -782.16 502.16 -800 480 -800 z " />
  <path
     d="m 720,-680 v -120 c 0,-11.33333 3.8333,-20.83333 11.5,-28.5 7.6667,-7.66667 17.1667,-11.5 28.5,-11.5 11.3333,0 20.8333,3.83333 28.5,11.5 7.6667,7.66667 11.5,17.16667 11.5,28.5 v 120 c 0,11.33333 -3.8333,20.83333 -11.5,28.5 -7.6667,7.66667 -17.1667,11.5 -28.5,11.5 -11.3333,0 -20.8333,-3.83333 -28.5,-11.5 -7.6667,-7.66667 -11.5,-17.16667 -11.5,-28.5 z m 40,160 c -11.3333,0 -20.8333,-3.83333 -28.5,-11.5 -7.6667,-7.66667 -11.5,-17.16667 -11.5,-28.5 0,-11.33333 3.8333,-20.83333 11.5,-28.5 7.6667,-7.66667 17.1667,-11.5 28.5,-11.5 11.3333,0 20.8333,3.83333 28.5,11.5 7.6667,7.66667 11.5,17.16667 11.5,28.5 0,11.33333 -3.8333,20.83333 -11.5,28.5 -7.6667,7.66667 -17.1667,11.5 -28.5,11.5 z"
     id="path1-7"
     style="fill:#757575;fill-opacity:1"
     inkscape:label="excl" />
</svg>
