<?xml version="1.0" encoding="UTF-8"?>
<svg width="19" height="19" version="1.1" viewBox="0 0 19 19" xml:space="preserve" xmlns="http://www.w3.org/2000/svg">
 <path d="m16.079 5.3257 0.0088-0.0087-2.7905-2.7905c-0.25369-0.25369-0.67359-0.25369-0.92728 0s-0.25369 0.67359 0 0.92728l1.3822 1.3822c-0.91853 0.34992-1.5396 1.2859-1.3822 2.3707 0.13997 0.96227 0.96227 1.7408 1.9245 1.8458 0.41115 0.043737 0.76982-0.026248 1.111-0.17496v6.3073c0 0.48114-0.39366 0.8748-0.8748 0.8748s-0.8748-0.39366-0.8748-0.8748v-3.9366c0-0.96227-0.78731-1.7496-1.7496-1.7496h-0.87482v-6.1236c0-0.96227-0.78731-1.7496-1.7496-1.7496h-5.2487c-0.96227 0-1.7496 0.78731-1.7496 1.7496v13.122c0 0.48114 0.39366 0.8748 0.8748 0.8748h6.9983c0.48114 0 0.8748-0.39366 0.8748-0.8748v-5.6861h1.3122v4.2516c0 1.1459 0.8223 2.187 1.9595 2.3007 1.3122 0.13123 2.4144-0.89229 2.4144-2.1781v-8.3106c0-0.60362-0.24493-1.1547-0.63859-1.5483zm-6.7971 2.4232h-5.2487v-3.4992c0-0.48114 0.39366-0.8748 0.8748-0.8748h3.4992c0.48114 0 0.8748 0.39366 0.8748 0.8748zm5.2487 0c-0.48114 0-0.8748-0.39366-0.8748-0.8748 0-0.48114 0.39365-0.8748 0.8748-0.8748 0.48115 0 0.8748 0.39366 0.8748 0.8748 0 0.48114-0.39366 0.8748-0.8748 0.8748z" fill="#fff"/>
</svg>
