<?xml version="1.0" encoding="UTF-8"?>
<svg width="19" height="19" version="1.1" viewBox="0 0 19 19" xml:space="preserve" xmlns="http://www.w3.org/2000/svg">
 <path d="m13.134 1.2589a0.75038 0.75038 0 0 0-0.414 1.2712l1.9395 1.9395c0.35775 0.35775 0.61088 0.79988 0.74138 1.2802h-0.65025c-1.2341 0-2.25 1.0159-2.25 2.25s1.0159 2.25 2.25 2.25h0.74925v5.2504c0 0.423-0.32625 0.74925-0.74925 0.74925a0.73912 0.73912 0 0 1-0.75038-0.74925v-1.5008c0-1.233-1.0159-2.25-2.25-2.25h-0.75038v-7.4992a1.4962 1.4962 0 0 0-1.4996-1.5008h-5.9996a1.4962 1.4962 0 0 0-1.5008 1.5008v11.999a1.4962 1.4962 0 0 0 1.5008 1.5008h5.9996a1.4962 1.4962 0 0 0 1.4996-1.5008v-2.9992h0.75038c0.423 0 0.75038 0.32625 0.75038 0.74925v1.5008c0 1.233 1.0159 2.25 2.25 2.25 1.233 0 2.25-1.017 2.25-2.25v-9a4.3695 4.3695 0 0 0-1.2802-3.0904l-1.9395-1.9406a0.75038 0.75038 0 0 0-0.648-0.21038zm-8.8852 2.9914h4.5c0.41625 0 0.75038 0.33412 0.75038 0.74925v3.7508h-5.9985v-3.7508c0-0.41512 0.33412-0.74925 0.74925-0.74925zm10.502 2.6246a1.125 1.125 0 1 1 0 2.25 1.125 1.125 0 0 1 0-2.25z" fill="#fff"/>
</svg>
