<svg xmlns="http://www.w3.org/2000/svg" xmlns:android="http://schemas.android.com/apk/res/android" height="24dp" width="24dp" viewportWidth="24" viewportHeight="24">
	<path fill="#ffffff" d="&#xA;            M18,11H6V6H18&#xA;            M16.5,17A1.5,1.5 0 0,1 15,15.5&#xA;            A1.5,1.5 0 0,1 16.5,14&#xA;            A1.5,1.5 0 0,1 18,15.5&#xA;            A1.5,1.5 0 0,1 16.5,17&#xA;            M7.5,17A1.5,1.5 0 0,1 6,15.5&#xA;            A1.5,1.5 0 0,1 7.5,14&#xA;            A1.5,1.5 0 0,1 9,15.5&#xA;            A1.5,1.5 0 0,1 7.5,17&#xA;            M4,16C4,16.88 4.39,17.67 5,18.22V20&#xA;            A1,1 0 0,0 6,21H7&#xA;            A1,1 0 0,0 8,20V19H16V20&#xA;            A1,1 0 0,0 17,21H18&#xA;            A1,1 0 0,0 19,20V18.22&#xA;            C19.61,17.67 20,16.88 20,16V6&#xA;            C20,2.5 16.42,2 12,2&#xA;            C7.58,2 4,2.5 4,6V16Z"/>
</svg>
