<svg width="24" height="24" viewBox="0 0 24 24" fill="none" xmlns="http://www.w3.org/2000/svg">
<path d="M11.9854 0C13.6304 4.83249e-06 15.1748 0.311443 16.6191 0.933594C18.0634 1.55576 19.3417 2.42018 20.4531 3.52734C21.5644 4.63447 22.4329 5.91328 23.0596 7.36328C23.6862 8.81324 23.9999 10.3561 24 11.9922C24 13.6382 23.6863 15.1847 23.0596 16.6299C22.4329 18.0749 21.5663 19.351 20.46 20.458C19.3535 21.5651 18.078 22.4325 16.6338 23.0596C15.1895 23.6866 13.6449 24 12 24C10.3551 24 8.81045 23.6866 7.36621 23.0596C5.92196 22.4325 4.64651 21.5651 3.54004 20.458C2.43366 19.351 1.56709 18.0749 0.94043 16.6299C0.313747 15.1847 0 13.6382 0 11.9922C6.03957e-05 10.3561 0.313807 8.81324 0.94043 7.36328C1.56708 5.91328 2.4307 4.63447 3.53223 3.52734C4.63382 2.42018 5.90726 1.55576 7.35156 0.933594C8.79585 0.311457 10.3404 0 11.9854 0ZM15.9219 6.90723C15.5987 6.90723 15.319 7.03044 15.084 7.27539L12.0146 10.3174L8.94531 7.27539C8.73968 7.05003 8.45993 6.93652 8.10742 6.93652C7.77461 6.93659 7.49275 7.05203 7.2627 7.28223C7.03281 7.51234 6.91806 7.79408 6.91797 8.12695C6.91797 8.45023 7.03557 8.72971 7.27051 8.96484L10.3105 12.0068L7.27051 15.0645C7.03554 15.2898 6.91797 15.5644 6.91797 15.8877C6.91806 16.2304 7.03269 16.5198 7.2627 16.7549C7.49275 16.99 7.77462 17.1074 8.10742 17.1074C8.45988 17.1074 8.75426 16.99 8.98926 16.7549L12.0146 13.7119L15.04 16.7549C15.2848 16.99 15.5743 17.1074 15.9072 17.1074C16.2498 17.1074 16.5366 16.99 16.7666 16.7549C16.9966 16.5198 17.1112 16.2304 17.1113 15.8877C17.1113 15.5644 16.9937 15.2849 16.7588 15.0498L13.7188 12.0068L16.7734 8.9502C17.0084 8.71505 17.126 8.43561 17.126 8.1123C17.1259 7.77932 17.0113 7.49483 16.7812 7.25977C16.5512 7.02472 16.2645 6.90728 15.9219 6.90723Z" fill="black"/>
</svg>
