<?xml version="1.0" encoding="UTF-8"?>
<svg width="19" height="19" version="1.1" viewBox="0 0 19 19" xml:space="preserve" xmlns="http://www.w3.org/2000/svg">
 <path d="m16.572 6.2855h-0.92188l-1.7416-2.9026c-0.09258-0.153-0.2443-0.26165-0.4198-0.2983-0.17422-0.036-0.35872 0.0025-0.50466 0.10607l-4.3324 3.0949h2.2121l2.3008-1.6432 0.98618 1.6432h-2.722v1.2858h4.5001v5.1429h-7.7144v-1.2858h-1.2858v1.9286c0 0.35551 0.28801 0.64288 0.64288 0.64288h4.4242l-0.144 0.28801c-0.10928 0.21922-0.32916 0.35487-0.5741 0.35487h-4.0828l-1.5519-1.5519v-3.3244l1.5519-1.5525h2.3053v0.64288c0 0.35422-0.28801 0.64288-0.64288 0.64288h-1.2858v1.2858h1.2858c1.0633 0 1.9286-0.86532 1.9286-1.9286v-1.2858c0-0.35487-0.28736-0.64288-0.64288-0.64288h-3.2143c-0.17036 0-0.3343 0.06686-0.45451 0.18901l-1.1784 1.1778c-0.090003-0.046924-0.18709-0.081002-0.29572-0.081002h-2.5715c-0.35487 7.5e-6 -0.64288 0.28802-0.64288 0.64288v5.1431c0 0.35551 0.28801 0.64288 0.64288 0.64288h2.5715c0.10865 0 0.20572-0.03342 0.29572-0.081l1.1784 1.179c0.12021 0.11958 0.28415 0.18771 0.45451 0.18771h4.3491c0.73544 0 1.3963-0.40822 1.7248-1.0665l0.43074-0.86211h3.1385c0.35551 0 0.64288-0.28736 0.64288-0.64288v-6.4288c0-0.35487-0.28736-0.64288-0.64288-0.64288zm-12.215 7.0717h-1.2858v-3.8572h1.2858z" fill="#fff"/>
</svg>
