<?xml version="1.0" encoding="UTF-8"?>
<svg width="19" height="19" version="1.1" viewBox="0 0 19 19" xmlns="http://www.w3.org/2000/svg">
 <path d="m 3.5167 3.2155 c -1.3231 0 -2.399 1.1019 -2.399 2.458 v 6.6427 c 0 1.0632 0.6615 1.9714 1.5848 2.3139 a 2.8496 2.9207 0 0 1 -0.0502 -0.4606 2.8496 2.9207 0 0 1 2.8509 -2.9209 2.8496 2.9207 0 0 1 2.8488 2.9209 2.8496 2.9207 0 0 1 -0.0677 0.6069 h 9.5961 c 0.3225 0 0.585 -0.2697 0.585 -0.6003 s -0.2625 -0.5981 -0.585 -0.5981 h -1.7791 c 0.2163 -0.3692 0.3405 -0.8006 0.3405 -1.2617 v -3.4207 c 0 -3.1332 -2.4856 -5.68 -5.5424 -5.68 h -7.3826 z m 0.5239 2.0716 h 2.0214 c 0.3226 0 0.585 0.2676 0.585 0.5981 v 2.0738 c 0 0.3306 -0.2625 0.5981 -0.585 0.5981 h -2.0214 c -0.3225 0 -0.585 -0.2676 -0.585 -0.5981 v -2.0738 c 0 -0.3306 0.2625 -0.5981 0.585 -0.5981 z m 7.4373 1.0369 h 0.155 c 1.3949 0 2.5279 1.1636 2.5279 2.5933 v 4.6606 h -1.1678 v -4.6606 c 0 -0.7695 -0.6092 -1.3971 -1.36 -1.3971 h -0.155 c -0.7508 0 -1.36 0.6275 -1.36 1.3971 v 4.6606 h -1.1701 v -4.6606 c 0 -1.4297 1.1351 -2.5933 2.53 -2.5933 z m -5.9747 6.1057 a 1.6974 1.7397 0 0 0 -1.6984 1.7398 1.6974 1.7397 0 0 0 1.6984 1.7398 1.6974 1.7397 0 0 0 1.6961 -1.7398 1.6974 1.7397 0 0 0 -1.6961 -1.7398 z" fill="#fff"/>
</svg>
