<svg width="30" height="26" viewBox="0 0 30 26" fill="none" xmlns="http://www.w3.org/2000/svg">
<path d="M29.2438 11.8991L23.2135 16.5739L25.0508 23.5649C25.1521 23.9444 25.126 24.3424 24.9757 24.7086C24.8255 25.0748 24.5578 25.3927 24.2064 25.6223C23.8551 25.8519 23.4359 25.9828 23.0019 25.9984C22.5678 26.0141 22.1383 25.9138 21.7676 25.7103L15.0003 21.9685L8.22892 25.7103C7.8583 25.9126 7.42931 26.0119 6.99598 25.9957C6.56265 25.9795 6.14435 25.8484 5.79376 25.6191C5.44316 25.3897 5.17595 25.0723 5.02577 24.7067C4.87559 24.3412 4.84915 23.9439 4.94978 23.5649L6.79371 16.5739L0.763419 11.8991C0.435502 11.6445 0.198347 11.3088 0.08157 10.9338C-0.0352066 10.5588 -0.0264289 10.1612 0.106807 9.79073C0.240043 9.4202 0.491831 9.09316 0.830728 8.85043C1.16963 8.6077 1.58061 8.46004 2.01236 8.42591L9.91874 7.85285L12.9687 1.22179C13.1338 0.860399 13.4148 0.551276 13.7759 0.333719C14.1371 0.116163 14.5621 0 14.9969 0C15.4317 0 15.8567 0.116163 16.2179 0.333719C16.579 0.551276 16.86 0.860399 17.0251 1.22179L20.0738 7.85285L27.9801 8.42591C28.4127 8.45878 28.8249 8.60561 29.1651 8.848C29.5052 9.09039 29.7581 9.41757 29.8922 9.78854C30.0263 10.1595 30.0355 10.5578 29.9187 10.9334C29.802 11.3091 29.5644 11.6455 29.2358 11.9004L29.2438 11.8991Z" fill="#F9C236"/>
</svg>
