<?xml version="1.0" encoding="UTF-8" standalone="no"?>
<!-- Created with Inkscape (http://www.inkscape.org/) -->

<svg
   width="24"
   height="24"
   viewBox="0 0 24 24"
   version="1.1"
   id="svg1"
   inkscape:version="1.4.2 (ebf0e940, 2025-05-08)"
   sodipodi:docname="globe-download.svg"
   xml:space="preserve"
   inkscape:export-filename="bitmap.png"
   inkscape:export-xdpi="96"
   inkscape:export-ydpi="96"
   xmlns:inkscape="http://www.inkscape.org/namespaces/inkscape"
   xmlns:sodipodi="http://sodipodi.sourceforge.net/DTD/sodipodi-0.dtd"
   xmlns="http://www.w3.org/2000/svg"
   xmlns:svg="http://www.w3.org/2000/svg"><sodipodi:namedview
     id="namedview1"
     pagecolor="#e5e5e5"
     bordercolor="#111111"
     borderopacity="1"
     inkscape:showpageshadow="0"
     inkscape:pageopacity="0"
     inkscape:pagecheckerboard="1"
     inkscape:deskcolor="#cccccc"
     inkscape:document-units="px"
     inkscape:zoom="16.28688"
     inkscape:cx="10.192253"
     inkscape:cy="13.507805"
     inkscape:window-width="1512"
     inkscape:window-height="869"
     inkscape:window-x="0"
     inkscape:window-y="38"
     inkscape:window-maximized="1"
     inkscape:current-layer="svg1"
     showgrid="true"
     showguides="true"
     guidecolor="#0000ff"
     guideopacity="0.25098039"
     inkscape:lockguides="false"><inkscape:grid
       id="grid1"
       units="px"
       originx="2"
       originy="2"
       spacingx="1"
       spacingy="1"
       empcolor="#ff00ff"
       empopacity="0.4"
       color="#ff0000"
       opacity="0.30196078"
       empspacing="4"
       dotted="false"
       gridanglex="30"
       gridanglez="30"
       visible="true" /><inkscape:grid
       id="grid2"
       units="px"
       originx="2.7755576e-17"
       originy="0"
       spacingx="0.5"
       spacingy="0.5"
       empcolor="#ff00ff"
       empopacity="0.10196078"
       color="#e500e5"
       opacity="0.10196078"
       empspacing="2"
       dotted="true"
       gridanglex="30"
       gridanglez="30"
       visible="true"
       enabled="true" /><sodipodi:guide
       position="12,24"
       orientation="1,0"
       id="guide1"
       inkscape:locked="false" /><sodipodi:guide
       position="0,12"
       orientation="0,-1"
       id="guide2"
       inkscape:locked="false" /><sodipodi:guide
       position="0,24"
       orientation="-0.70710678,-0.70710678"
       id="guide3"
       inkscape:locked="false" /><sodipodi:guide
       position="24,24"
       orientation="0.70710678,-0.70710678"
       id="guide4"
       inkscape:locked="false" /></sodipodi:namedview><defs
     id="defs1" /><path
     id="path6"
     style="baseline-shift:baseline;display:inline;overflow:visible;vector-effect:none;fill:#757575;fill-opacity:1;stroke-linecap:round;stroke-linejoin:round;paint-order:markers stroke fill;enable-background:accumulate;stop-color:#000000"
     d="m 18,14 a 1,1 0 0 0 -1,1 v 4.585938 L 15.707031,18.292969 A 1,1 0 0 0 15,18 a 1,1 0 0 0 -0.707031,0.292969 1,1 0 0 0 0,1.414062 l 3,3 a 1.0001,1.0001 0 0 0 1.414062,0 l 3,-3 a 1,1 0 0 0 0,-1.414062 1,1 0 0 0 -1.414062,0 L 19,19.585938 V 15 a 1,1 0 0 0 -1,-1 z"
     inkscape:label="down" /><path
     style="opacity:1;fill:#757575;fill-opacity:1;stroke:none;stroke-width:1.5;stroke-linecap:round;stroke-linejoin:round;paint-order:markers stroke fill"
     d="m 9.5,8 1,-1 V 6 l 1,-0.5 h 1 L 13,6 h 1 l 2,-1.5 1,0.5 2,2 0.5,1 0.5,1 v 2.5 L 19.5,11 18.5,10.5 18,11 16.5,11.5 h -1 L 15,11 H 14 L 13.5,10.5 H 12 L 10.5,9 h -1 z"
     id="path14"
     sodipodi:nodetypes="ccccccccccccccccccccccccc" /><path
     style="opacity:1;fill:#757575;fill-opacity:1;stroke:none;stroke-width:1.5;stroke-linecap:round;stroke-linejoin:round;paint-order:markers stroke fill"
     d="M 3.5,10.5 V 9 L 4,9.5 H 6 L 6.5,9 h 1 L 8,9.5 V 10 H 8.5 L 9,11 H 9.5 L 10,11.5 V 12 l 0.5,0.5 v 1 l -1,1 v 2 L 9,17 8.5,18 H 8 V 16.5 L 7.5,16 V 15 L 8.5,14 8,13.5 H 6.5 l -2,-2 z"
     id="path15"
     sodipodi:nodetypes="cccccccccccccccccccccccccccc" /><path
     style="opacity:1;fill:#757575;fill-opacity:1;stroke:none;stroke-width:1.5;stroke-linecap:round;stroke-linejoin:round;paint-order:markers stroke fill"
     d="M 8.5,7 H 9 V 7.5 L 8.5,8 v 0 h -1 V 7 L 8,6.5 Z"
     id="path16"
     sodipodi:nodetypes="ccccccccc" /><path
     style="opacity:1;fill:#757575;fill-opacity:1;stroke:none;stroke-width:1.5;stroke-linecap:round;stroke-linejoin:round;paint-order:markers stroke fill"
     d="m 11.5,15 0.5,-1 1,-1 1,-0.5 1,0.5 v 0.5 l -1,1 V 15 l -0.5,0.5 -0.5,1 -1,-1"
     id="path17"
     sodipodi:nodetypes="ccccccccccc" /><path
     id="path21"
     style="fill:#757575;fill-opacity:1;stroke:none;stroke-width:2.5;stroke-linecap:round;stroke-linejoin:round;paint-order:markers stroke fill"
     d="M 12 2 A 10 10 0 0 0 2 12 A 10 10 0 0 0 12 22 A 10 10 0 0 0 13.4375 21.896484 A 6 6 0 0 1 12.339844 19.992188 A 8 8 0 0 1 12 20 A 8 8 0 0 1 4 12 A 8 8 0 0 1 12 4 A 8 8 0 0 1 20 12 A 8 8 0 0 1 19.992188 12.339844 A 6 6 0 0 1 21.896484 13.4375 A 10 10 0 0 0 22 12 A 10 10 0 0 0 12 2 z "
     inkscape:label="circ" /></svg>
