<?xml version="1.0" encoding="UTF-8"?>
<svg width="19" height="19" version="1.1" viewBox="0 0 19 19" xml:space="preserve" xmlns="http://www.w3.org/2000/svg">
 <path d="m9.4997 3.3143c-0.7576-0.01118-0.7576 1.1355 0 1.1247h1.6809v1.4234l-3.1405 2.625-1.0921-2.9237h0.31084c0.7576 0.01118 0.7576-1.1355 0-1.1247h-2.2412c-0.7576-0.01118-0.7576 1.1355 0 1.1247h0.73092l0.99812 2.6711c-0.52419-0.2616-1.1061-0.42176-1.729-0.42176-2.1594 0-3.922 1.7689-3.922 3.9363 0 2.1674 1.7625 3.9363 3.922 3.9363s3.922-1.7689 3.922-3.9363c0-0.75342-0.22443-1.452-0.5931-2.0517l3.1603-2.6425 0.5187 1.3049c-1.1682 0.68302-1.9653 1.9399-1.9653 3.3894 0 2.1674 1.7625 3.9363 3.922 3.9363 2.1594 0 3.922-1.7689 3.922-3.9363 0-2.1674-1.7625-3.9363-3.922-3.9363-0.31723 0-0.62123 0.0488-0.91711 0.1208l-0.76376-1.9176v-2.1394c0-0.31052-0.2509-0.56233-0.56027-0.56233zm-4.4821 5.6233c0.6637 0 1.2635 0.23832 1.7421 0.62161l-2.1011 1.7573c-0.57249 0.48057 0.1432 1.3434 0.71782 0.86544l2.1011-1.7573c0.21089 0.39567 0.34143 0.84222 0.34143 1.3246 0 1.5595-1.2476 2.8118-2.8014 2.8118s-2.8014-1.2522-2.8014-2.8118c0-1.5595 1.2474-2.8116 2.8014-2.8116zm8.9643 0c1.5538 0 2.8014 1.2522 2.8014 2.8118 0 1.5595-1.2476 2.8116-2.8014 2.8116s-2.8014-1.2522-2.8014-2.8116c0-0.98631 0.50066-1.8468 1.2606-2.3482l1.02 2.5568c0.27565 0.70078 1.3226 0.28128 1.0419-0.41736l-1.0176-2.5524c0.16159-0.0288 0.32653-0.05051 0.49673-0.05051z" fill="#fff"/>
</svg>
