<?xml version="1.0" encoding="utf-8"?>
<!-- Generator: Adobe Illustrator 16.0.1, SVG Export Plug-In . SVG Version: 6.00 Build 0)  -->
<!DOCTYPE svg PUBLIC "-//W3C//DTD SVG 1.1//EN" "http://www.w3.org/Graphics/SVG/1.1/DTD/svg11.dtd">
<svg version="1.1"
	 id="theatre" xmlns:dc="http://purl.org/dc/elements/1.1/" xmlns:cc="http://creativecommons.org/ns#" xmlns:rdf="http://www.w3.org/1999/02/22-rdf-syntax-ns#" xmlns:sodipodi="http://sodipodi.sourceforge.net/DTD/sodipodi-0.dtd" xmlns:inkscape="http://www.inkscape.org/namespaces/inkscape" sodipodi:docname="theatre.svg" inkscape:version="0.48.2 r9819" xmlns:svg="http://www.w3.org/2000/svg"
	 xmlns="http://www.w3.org/2000/svg" xmlns:xlink="http://www.w3.org/1999/xlink" x="0px" y="0px" width="24px" height="24px"
	 viewBox="0 0 24 24" enable-background="new 0 0 24 24" xml:space="preserve">
<sodipodi:namedview  inkscape:cx="12.362941" inkscape:zoom="13.240134" pagecolor="#ffffff" inkscape:cy="14.034139" borderopacity="1" objecttolerance="10" guidetolerance="10" bordercolor="#666666" gridtolerance="10" showgrid="true" inkscape:window-height="658" inkscape:current-layer="theatre" inkscape:window-y="0" inkscape:pageopacity="0" inkscape:pageshadow="2" inkscape:window-x="0" inkscape:window-width="977" inkscape:window-maximized="0" id="namedview33">
	<inkscape:grid  visible="true" empspacing="2" enabled="true" snapvisiblegridlinesonly="true" type="xygrid" id="grid3014">
		</inkscape:grid>
</sodipodi:namedview>
<g>
	<path fill="#333333" d="M13.067,12.551c-0.631,2.356,4.082,3.619,4.714,1.263C16.414,14.726,13.757,14.166,13.067,12.551z"/>
	<path fill="#333333" d="M15.352,8.067c-2.34-0.105-2.386-0.075-3.536-0.947c-0.15,0.561,0.69,2.122,1.873,2.439
		C15.334,9.488,15.042,9.249,15.352,8.067z"/>
	<path fill="#333333" d="M17.896,10.687c1.184,0.317,2.691-0.615,2.842-1.176c-1.432,0.181-1.457,0.131-3.535-0.947
		C16.88,9.741,16.507,9.803,17.896,10.687z"/>
	<path fill="#333333" d="M12.216,1.587l-0.947,3.535c-1.263,4.713-1.979,12.1,2.735,13.362c4.713,1.264,7.785-5.491,9.049-10.205
		L24,4.744C18.654,5.838,16.299,5.207,12.216,1.587z M21.969,8.96c-0.986,3.677-3.654,9.596-7.695,8.514
		c-4.04-1.082-3.391-7.543-2.406-11.221l0.74-2.758c3.547,2.921,5.566,3.463,10.1,2.707L21.969,8.96z"/>
</g>
<path fill="#666666" d="M10.365,12.617c-0.271,0.149-0.568,0.336-0.927,0.586c-0.316-1.178-0.316-1.178,0.694-2.123
	c0.067-0.018,0.137-0.019,0.206-0.029c0.057-1.768,0.36-3.594,0.746-5.192C7.678,8.591,5.285,9.012,0.474,8.028l0.947,3.535
	c1.263,4.713,4.336,11.468,9.049,10.205c1.718-0.46,2.708-1.739,3.22-3.4C11.433,17.583,10.532,15.293,10.365,12.617z M3.546,14.782
	c-0.15-0.562,0.69-2.122,1.873-2.439c1.646,0.071,1.354,0.311,1.663,1.492C4.743,13.94,4.696,13.91,3.546,14.782z M7.167,18.864
	c-0.632-2.356,4.082-3.62,4.713-1.263C10.513,16.689,7.856,17.248,7.167,18.864z"/>
</svg>
