<?xml version="1.0" encoding="utf-8"?>
<!-- Generator: Adobe Illustrator 16.0.1, SVG Export Plug-In . SVG Version: 6.00 Build 0)  -->
<!DOCTYPE svg PUBLIC "-//W3C//DTD SVG 1.1//EN" "http://www.w3.org/Graphics/SVG/1.1/DTD/svg11.dtd">
<svg version="1.1"
	 id="hotel" xmlns:dc="http://purl.org/dc/elements/1.1/" xmlns:cc="http://creativecommons.org/ns#" xmlns:rdf="http://www.w3.org/1999/02/22-rdf-syntax-ns#" xmlns:svg="http://www.w3.org/2000/svg" xmlns:sodipodi="http://sodipodi.sourceforge.net/DTD/sodipodi-0.dtd" xmlns:inkscape="http://www.inkscape.org/namespaces/inkscape" sodipodi:docname="hotel.svg" inkscape:version="0.48.2 r9819"
	 xmlns="http://www.w3.org/2000/svg" xmlns:xlink="http://www.w3.org/1999/xlink" x="0px" y="0px" width="24px" height="24px"
	 viewBox="0 0 24 24" enable-background="new 0 0 24 24" xml:space="preserve">
<title  id="title3008">Hotel Map Icon</title>
<sodipodi:namedview  inkscape:cy="9.3199997" pagecolor="#ffffff" bordercolor="#666666" borderopacity="1" objecttolerance="10" gridtolerance="10" guidetolerance="10" showgrid="true" inkscape:zoom="12.660945" inkscape:cx="-4.4230507" id="namedview5" inkscape:pageshadow="2" inkscape:current-layer="hotel" inkscape:window-maximized="0" inkscape:pageopacity="0" inkscape:window-width="928" inkscape:window-y="0" inkscape:window-x="0" inkscape:window-height="643">
	<inkscape:grid  enabled="true" visible="true" empspacing="2" id="grid2986" type="xygrid" snapvisiblegridlinesonly="true">
		</inkscape:grid>
</sodipodi:namedview>
<rect id="rect2988" x="2" y="8" fill="#50524E" width="2" height="12"/>
<path id="path2990" sodipodi:ry="1" sodipodi:rx="1" sodipodi:cy="20" sodipodi:cx="3" sodipodi:type="arc" fill="#50524E" d="M4,20
	c0,0.553-0.448,1-1,1s-1-0.447-1-1s0.448-1,1-1S4,19.447,4,20z"/>
<path id="path2992" sodipodi:ry="1" sodipodi:rx="1" sodipodi:cy="8" sodipodi:cx="3" sodipodi:type="arc" fill="#50524E" d="M4,8
	c0,0.552-0.448,1-1,1S2,8.552,2,8s0.448-1,1-1S4,7.448,4,8z"/>
<rect id="rect2994" x="20" y="12" fill="#50524E" width="2" height="8"/>
<path id="path2996" sodipodi:ry="1" sodipodi:rx="1" sodipodi:cy="20" sodipodi:cx="3" sodipodi:type="arc" fill="#50524E" d="
	M22,20c0,0.553-0.447,1-1,1s-1-0.447-1-1s0.447-1,1-1S22,19.447,22,20z"/>
<path id="path2998" sodipodi:ry="1" sodipodi:rx="1" sodipodi:cy="8" sodipodi:cx="3" sodipodi:type="arc" fill="#50524E" d="M22,12
	c0,0.553-0.447,1-1,1s-1-0.447-1-1c0-0.552,0.447-1,1-1S22,11.448,22,12z"/>
<rect id="rect3000" x="3" y="14" fill="#50524E" width="17" height="2"/>
<path id="rect3006" fill="#50524E" d="M6,10h4c0.552,0,1,0.448,1,1v1c0,0.553-0.448,1-1,1H6c-0.552,0-1-0.447-1-1v-1
	C5,10.448,5.448,10,6,10z"/>
</svg>
