<?xml version="1.0" encoding="UTF-8" standalone="no"?>
<svg
   xmlns:dc="http://purl.org/dc/elements/1.1/"
   xmlns:cc="http://creativecommons.org/ns#"
   xmlns:rdf="http://www.w3.org/1999/02/22-rdf-syntax-ns#"
   xmlns:svg="http://www.w3.org/2000/svg"
   xmlns="http://www.w3.org/2000/svg"
   id="svg4"
   viewBox="0 0 32 32"
   height="32"
   width="32"
   version="1.1">
  <metadata
     id="metadata10">
    <rdf:RDF>
      <cc:Work
         rdf:about="">
        <dc:format>image/svg+xml</dc:format>
        <dc:type
           rdf:resource="http://purl.org/dc/dcmitype/StillImage" />
        <dc:title></dc:title>
      </cc:Work>
    </rdf:RDF>
  </metadata>
  <defs
     id="defs8" />
  <circle
     r="16"
     style="fill:#62ae25;fill-opacity:1;stroke-width:1.29772973"
     cy="16"
     cx="16"
     id="path3715" />
  <path
     style="fill:#ffffff"
     id="path2"
     d="m 25.82,19.42 -2.5,4.33 C 22.83,24.61 21.92,25.06 21,25 h -2 v 2 L 16.5,22.5 19,18 v 2 h 2.82 l -2.22,-3.85 4.33,-2.5 1.8,3.12 c 0.52,0.77 0.59,1.8 0.09,2.65 M 13.21,7.06 h 5 c 0.98,0 1.83,0.57 2.24,1.39 l 1,1.74 1.73,-1 -2.64,4.41 -5.15,0.09 1.73,-1 -1.41,-2.45 -2.21,3.85 -4.34,-2.5 1.8,-3.12 C 11.37,7.64 12.22,7.06 13.21,7.06 M 9.05,23.76 6.55,19.43 C 6.06,18.58 6.13,17.56 6.64,16.79 l 1,-1.73 -1.73,-1 5.14,0.08 2.65,4.42 -1.73,-1 L 10.56,20 H 15 v 5 H 11.4 C 10.47,25.07 9.55,24.61 9.05,23.76 Z" />
</svg>
