<?xml version="1.0" encoding="UTF-8" standalone="no"?>
<svg
   xmlns:dc="http://purl.org/dc/elements/1.1/"
   xmlns:cc="http://creativecommons.org/ns#"
   xmlns:rdf="http://www.w3.org/1999/02/22-rdf-syntax-ns#"
   xmlns:svg="http://www.w3.org/2000/svg"
   xmlns="http://www.w3.org/2000/svg"
   id="svg4"
   viewBox="0 0 32 32"
   height="32"
   width="32"
   version="1.1">
  <metadata
     id="metadata10">
    <rdf:RDF>
      <cc:Work
         rdf:about="">
        <dc:format>image/svg+xml</dc:format>
        <dc:type
           rdf:resource="http://purl.org/dc/dcmitype/StillImage" />
        <dc:title></dc:title>
      </cc:Work>
    </rdf:RDF>
  </metadata>
  <defs
     id="defs8" />
  <circle
     r="16"
     style="fill:#2a2b26;fill-opacity:1;stroke-width:1.29772973"
     cy="16"
     cx="16"
     id="path3715" />
  <path
     style="fill:#ffffff;opacity:0.5"
     id="path2-3"
     d="m 24,13 h 2 V 11 L 24,8.9999997 H 7 A 2,2 0 0 0 5,11 v 9 a 2,2 0 0 0 2,2 h 1 a 3,3 0 0 0 3,3 3,3 0 0 0 3,-3 h 5 a 3,3 0 0 0 6,0 h 2 v -5 m -16,6.5 a 1.5,1.5 0 0 1 0,-3 1.5,1.5 0 0 1 0,3 M 13,17 H 7 v -3 h 6 m 5,6 h -3 v -6 h 3 m 4,9.5 A 1.5,1.5 0 1 1 23.5,22 1.54,1.54 0 0 1 22,23.5 M 21,17 v -2.5 h 2.5 l 2,2.5 z" />
</svg>
