<?xml version="1.0" encoding="utf-8"?>
<!-- Generator: Adobe Illustrator 16.0.1, SVG Export Plug-In . SVG Version: 6.00 Build 0)  -->
<!DOCTYPE svg PUBLIC "-//W3C//DTD SVG 1.1//EN" "http://www.w3.org/Graphics/SVG/1.1/DTD/svg11.dtd">
<svg version="1.1"
	 id="symbol-parking" xmlns:dc="http://purl.org/dc/elements/1.1/" xmlns:cc="http://creativecommons.org/ns#" xmlns:rdf="http://www.w3.org/1999/02/22-rdf-syntax-ns#" xmlns:sodipodi="http://sodipodi.sourceforge.net/DTD/sodipodi-0.dtd" xmlns:inkscape="http://www.inkscape.org/namespaces/inkscape" sodipodi:docname="parking.svg" inkscape:version="0.48.2 r9819" xmlns:svg="http://www.w3.org/2000/svg"
	 xmlns="http://www.w3.org/2000/svg" xmlns:xlink="http://www.w3.org/1999/xlink" x="0px" y="0px" width="24px" height="24px"
	 viewBox="0 0 24 24" enable-background="new 0 0 24 24" xml:space="preserve">
<title  id="title2985">Parking Map Icon</title>
<sodipodi:namedview  inkscape:cx="15.149227" inkscape:zoom="16.026026" pagecolor="#ffffff" inkscape:cy="12.641088" borderopacity="1" objecttolerance="10" guidetolerance="10" bordercolor="#666666" gridtolerance="10" showgrid="true" inkscape:window-height="612" inkscape:current-layer="symbol-parking" inkscape:window-y="0" inkscape:pageopacity="0" inkscape:pageshadow="2" inkscape:window-x="0" inkscape:window-width="894" inkscape:window-maximized="0" id="namedview7">
	<inkscape:grid  visible="true" empspacing="2" enabled="true" snapvisiblegridlinesonly="true" type="xygrid" id="grid2988">
		</inkscape:grid>
</sodipodi:namedview>
<path id="rect2987" fill="#F2F2F2" d="M5.4,1h13.2C21.03,1,23,2.97,23,5.4v13.2c0,2.431-1.97,4.4-4.4,4.4H5.4
	C2.97,23,1,21.03,1,18.6V5.4C1,2.97,2.97,1,5.4,1z"/>
<path id="rect2985" fill="#0044D8" d="M6,2h12c2.209,0,4,1.791,4,4v12c0,2.209-1.791,4-4,4H6c-2.209,0-4-1.791-4-4V6
	C2,3.791,3.791,2,6,2z"/>
<path id="rect3766" sodipodi:nodetypes="cccccssscccsssccc" inkscape:connector-curvature="0" fill="#FFFFFF" d="M7,5v10
	c0,0,0,4,0,5h3v-5h3c2.762,0,5-2.238,5-5c0-2.761-2.238-5-5-5h-3H7z M10,7.531h3c1.104,0,2,1.113,2,2.469s-0.896,2.469-2,2.469h-3
	V10V7.531z"/>
</svg>
