<?xml version="1.0" encoding="utf-8"?>
<!-- Generator: Adobe Illustrator 16.0.1, SVG Export Plug-In . SVG Version: 6.00 Build 0)  -->
<!DOCTYPE svg PUBLIC "-//W3C//DTD SVG 1.1//EN" "http://www.w3.org/Graphics/SVG/1.1/DTD/svg11.dtd">
<svg version="1.1"
	 id="svg2" xmlns:dc="http://purl.org/dc/elements/1.1/" xmlns:cc="http://creativecommons.org/ns#" xmlns:rdf="http://www.w3.org/1999/02/22-rdf-syntax-ns#" xmlns:sodipodi="http://sodipodi.sourceforge.net/DTD/sodipodi-0.dtd" xmlns:inkscape="http://www.inkscape.org/namespaces/inkscape" sodipodi:docname="police.svg" inkscape:version="0.48.2 r9819" xmlns:svg="http://www.w3.org/2000/svg"
	 xmlns="http://www.w3.org/2000/svg" xmlns:xlink="http://www.w3.org/1999/xlink" x="0px" y="0px" width="182.439px"
	 height="182.439px" viewBox="0 0 182.439 182.439" enable-background="new 0 0 182.439 182.439" xml:space="preserve">
<sodipodi:namedview  inkscape:cx="106.119" inkscape:zoom="0.74866731" pagecolor="#ffffff" inkscape:cy="62.519989" borderopacity="1" objecttolerance="10" guidetolerance="10" bordercolor="#666666" gridtolerance="10" showgrid="false" inkscape:window-height="484" inkscape:current-layer="svg2" inkscape:window-y="0" inkscape:pageopacity="0" inkscape:pageshadow="2" inkscape:window-x="0" inkscape:window-width="640" inkscape:window-maximized="0" id="namedview12" fit-margin-bottom="10" fit-margin-right="10" fit-margin-left="10" fit-margin-top="10">
	</sodipodi:namedview>
<g id="g2993">
	<path id="path4" inkscape:connector-curvature="0" fill="#50524E" d="M125.425,28.358H57.499V16.324
		c0-3.493,2.831-6.324,6.324-6.324h55.277c3.493,0,6.324,2.831,6.324,6.324V28.358z"/>
	<path id="path6" inkscape:connector-curvature="0" fill="#50524E" d="M125.425,36.956c0,18.757-15.206,39.962-33.963,39.962
		c-18.756,0-33.962-21.206-33.962-39.962C81.152,36.956,102.53,36.956,125.425,36.956z"/>
	<g>
		<path fill="#50524E" d="M50.724,83.94c-6.262,0-11.338,5.578-11.338,12.458v63.584c0,6.882,5.075,12.458,11.338,12.458h9.911
			l56.788-88.5H50.724z"/>
		<path fill="#50524E" d="M133.849,83.998L79.385,172.44h53.411c6.263,0,11.339-5.577,11.339-12.458V96.398
			C144.135,89.908,139.617,84.582,133.849,83.998z"/>
		<path fill="#50524E" d="M132.796,83.94c0.355,0,0.706,0.023,1.053,0.059l0.036-0.059H132.796z"/>
	</g>
</g>
</svg>
