<?xml version="1.0" encoding="UTF-8" standalone="no"?>
<!-- Created with Inkscape (http://www.inkscape.org/) -->

<svg
   width="54"
   height="54"
   viewBox="0 0 54 54"
   version="1.1"
   id="svg1"
   inkscape:version="1.4.2 (ebf0e940, 2025-05-08)"
   sodipodi:docname="hiking-light.svg"
   xml:space="preserve"
   xmlns:inkscape="http://www.inkscape.org/namespaces/inkscape"
   xmlns:sodipodi="http://sodipodi.sourceforge.net/DTD/sodipodi-0.dtd"
   xmlns="http://www.w3.org/2000/svg"
   xmlns:svg="http://www.w3.org/2000/svg"><sodipodi:namedview
     id="namedview1"
     pagecolor="#e5e5e5"
     bordercolor="#111111"
     borderopacity="1"
     inkscape:showpageshadow="0"
     inkscape:pageopacity="0"
     inkscape:pagecheckerboard="1"
     inkscape:deskcolor="#cccccc"
     inkscape:document-units="px"
     inkscape:zoom="20.7328"
     inkscape:cx="39.960835"
     inkscape:cy="11.672326"
     inkscape:window-width="1512"
     inkscape:window-height="869"
     inkscape:window-x="0"
     inkscape:window-y="38"
     inkscape:window-maximized="1"
     inkscape:current-layer="svg1"
     showgrid="true"
     showguides="true"
     guidecolor="#0000ff"
     guideopacity="0.25098039"
     inkscape:lockguides="false"><inkscape:grid
       id="grid1"
       units="px"
       originx="1"
       originy="-29"
       spacingx="1"
       spacingy="1"
       empcolor="#ff00ff"
       empopacity="0.4"
       color="#ff0000"
       opacity="0.14901961"
       empspacing="2"
       dotted="false"
       gridanglex="30"
       gridanglez="30"
       visible="true" /><inkscape:grid
       id="grid2"
       units="px"
       originx="1"
       originy="-29"
       spacingx="0.5"
       spacingy="0.5"
       empcolor="#ff00ff"
       empopacity="0.10196078"
       color="#e500e5"
       opacity="0.10196078"
       empspacing="2"
       dotted="true"
       gridanglex="30"
       gridanglez="30"
       visible="true"
       enabled="false" /><sodipodi:guide
       position="27,81"
       orientation="1,0"
       id="guide1"
       inkscape:locked="false" /><sodipodi:guide
       position="15,27"
       orientation="0,-1"
       id="guide2"
       inkscape:locked="false" /><sodipodi:guide
       position="15,39"
       orientation="-0.70710678,-0.70710678"
       id="guide3"
       inkscape:locked="false" /><sodipodi:guide
       position="39,39"
       orientation="0.70710678,-0.70710678"
       id="guide4"
       inkscape:locked="false" /></sodipodi:namedview><defs
     id="defs1"><inkscape:path-effect
       effect="fillet_chamfer"
       id="path-effect1"
       is_visible="true"
       lpeversion="1"
       nodesatellites_param="F,0,0,1,0,0,0,1 @ F,0,0,1,0,0,0,1 @ F,0,0,1,0,0,0,1 @ F,0,0,1,0,0,0,1 @ F,0,0,1,0,0,0,1 | F,0,1,1,0,0.5,0,1 @ F,0,1,1,0,0.5,0,1 @ F,0,1,1,0,0.5,0,1 @ F,0,1,1,0,0.5,0,1 @ F,0,1,1,0,0.5,0,1 | F,0,1,1,0,0.5,0,1 @ F,0,1,1,0,0.5,0,1 @ F,0,1,1,0,0.5,0,1 @ F,0,1,1,0,0.5,0,1 @ F,0,1,1,0,0.5,0,1"
       radius="0.5"
       unit="px"
       method="auto"
       mode="F"
       chamfer_steps="1"
       flexible="false"
       use_knot_distance="true"
       apply_no_radius="true"
       apply_with_radius="true"
       only_selected="true"
       hide_knots="false" /><clipPath
       clipPathUnits="userSpaceOnUse"
       id="clipPath14"><rect
         style="display:inline;opacity:1;fill:#ff00ff;fill-opacity:1;stroke-width:40.5;stroke-linecap:round;stroke-linejoin:round"
         id="rect15"
         width="54"
         height="54"
         x="4.7683716e-07"
         y="0"
         ry="10" /></clipPath></defs><g
     id="g7"
     clip-path="url(#clipPath14)"
     inkscape:label="clip 10 radius"
     style="display:inline"><rect
       style="display:inline;opacity:1;fill:#bcc87e;fill-opacity:1;stroke-width:40.5;stroke-linecap:round;stroke-linejoin:round;stroke:none"
       id="rect1"
       width="54"
       height="54"
       x="0"
       y="0"
       ry="0"
       rx="0"
       inkscape:label="green2" /><path
       style="display:inline;opacity:1;fill:#aabf65;fill-opacity:1;stroke:none;stroke-width:2;stroke-linecap:round;stroke-linejoin:round;stroke-dasharray:none;stroke-dashoffset:0;stroke-opacity:1"
       d="M 54,54 H 0 c 27,0 55,-8 54,-29"
       id="path21"
       sodipodi:nodetypes="ccc"
       inkscape:label="forest" /><path
       style="display:inline;opacity:1;fill:#c6cf93;fill-opacity:1;stroke:none;stroke-width:2;stroke-linecap:round;stroke-linejoin:round;stroke-dasharray:none;stroke-dashoffset:0;stroke-opacity:1"
       d="M 4.7683716e-7,0 H 54 C 28,0 17,30 0,36"
       id="path20"
       sodipodi:nodetypes="ccc"
       inkscape:label="green1" /><path
       style="display:inline;opacity:1;fill:none;fill-opacity:1;stroke:#f8f8f8;stroke-width:4;stroke-linecap:butt;stroke-linejoin:round;stroke-dasharray:none;stroke-dashoffset:0;stroke-opacity:1"
       d="M 45,31 C 31.57213,25.664117 29,-3 5,-3"
       id="path4"
       sodipodi:nodetypes="cc"
       inkscape:label="path-blue-0" /><path
       style="opacity:1;fill:none;fill-opacity:1;stroke:#009100;stroke-width:2;stroke-linecap:butt;stroke-linejoin:round;stroke-dasharray:6, 2;stroke-dashoffset:0;stroke-opacity:1"
       d="M 45,31 C 31.57213,25.664117 29,-3 5,-3"
       id="path19"
       sodipodi:nodetypes="cc"
       inkscape:label="path-blue" /><path
       style="display:inline;opacity:1;fill:none;fill-opacity:1;stroke:#f8f8f8;stroke-width:4;stroke-linecap:butt;stroke-linejoin:round;stroke-dasharray:none;stroke-dashoffset:0;stroke-opacity:1"
       d="M 37,37 C 62,47 27,50 37,60"
       id="path3"
       sodipodi:nodetypes="cc"
       inkscape:label="path-purple-0" /><path
       style="opacity:1;fill:none;fill-opacity:1;stroke:#005c94;stroke-width:2;stroke-linecap:butt;stroke-linejoin:round;stroke-dasharray:6, 2;stroke-dashoffset:0;stroke-opacity:1"
       d="M 37,37 C 62,47 27,50 37,60"
       id="path16"
       sodipodi:nodetypes="cc"
       inkscape:label="path-purple" /><path
       style="display:inline;opacity:1;fill:none;fill-opacity:1;stroke:#f8f8f8;stroke-width:4;stroke-linecap:round;stroke-linejoin:round;stroke-dasharray:none;stroke-dashoffset:0;stroke-opacity:1"
       d="M -1,54 C 1,42 31,51 37,37 37.828911,35.065874 43,33 45,31 51,25 35,20 69,21"
       id="path2"
       sodipodi:nodetypes="cssc"
       inkscape:label="path-orange-0" /><path
       style="display:inline;opacity:1;fill:none;fill-opacity:1;stroke:#ff6600;stroke-width:2;stroke-linecap:round;stroke-linejoin:round;stroke-dasharray:none;stroke-dashoffset:0;stroke-opacity:1"
       d="M -1,54 C 1,42 31,51 37,37 37.828911,35.065874 43,33 45,31 51,25 35,20 69,21"
       id="path13"
       sodipodi:nodetypes="cssc"
       inkscape:label="path-orange" /><path
       id="path1-1"
       style="fill:#4d4d4d;fill-opacity:1;stroke-width:0.0374996"
       d="m 19.246373,9.9999997 c -0.824993,0 -1.529693,0.2953173 -2.117187,0.8828123 -0.587495,0.587494 -0.882813,1.292196 -0.882813,2.117188 0,0.824992 0.29532,1.529694 0.882813,2.117188 0.587494,0.587494 1.292194,0.88281 2.117187,0.88281 0.824992,0 1.529692,-0.295318 2.117188,-0.88281 0.587493,-0.587494 0.882812,-1.292196 0.882812,-2.117188 0,-0.824992 -0.295319,-1.529694 -0.882812,-2.117188 -0.587496,-0.587495 -1.292196,-0.8828123 -2.117188,-0.8828123 z m -3.224609,7.4999973 c -0.574993,0 -1.125396,0.182426 -1.650391,0.544922 -0.524994,0.362497 -0.863673,0.903911 -1.013672,1.628906 L 9.1213725,41.16406 c -0.100005,0.474994 -0.0012,0.89844 0.2988285,1.273437 0.299997,0.374995 0.701176,0.5625 1.201172,0.5625 0.374997,0 0.706645,-0.11289 0.994141,-0.337892 0.287498,-0.224997 0.469923,-0.513285 0.544922,-0.86328 l 2.4375,-10.798828 3.148437,3 v 6 c 0,0.424995 0.142185,0.780861 0.429688,1.06836 0.287498,0.287496 0.645317,0.43164 1.070312,0.43164 0.424996,0 0.780864,-0.144135 1.06836,-0.43164 0.287497,-0.287499 0.43164,-0.643365 0.43164,-1.06836 v -7.611328 c 0,-0.199999 -0.03633,-0.394534 -0.11133,-0.582031 -0.075,-0.1875 -0.189846,-0.357814 -0.339845,-0.507813 l -2.697265,-2.548828 0.898437,-4.5 c 0.749992,0.87499 1.637119,1.612897 2.66211,2.212891 1.704351,1.110413 3.712908,1.537109 5.58789,1.537109 0.82842,0 1.5,-0.671582 1.5,-1.5 0,-0.82842 -0.67158,-1.5 -1.5,-1.5 -1.79454,-0.09368 -3.247254,-0.616016 -4.705077,-1.630859 -0.712494,-0.587493 -1.296099,-1.243758 -1.746095,-1.96875 l -1.5,-2.400391 c -0.299997,-0.499994 -0.692191,-0.875003 -1.179687,-1.125 -0.487495,-0.249998 -1.018756,-0.375 -1.59375,-0.375 z m -6.7187505,0.03906 c -0.632805,-0.01641 -1.230474,0.140625 -1.792968,0.46875 -0.749994,0.437494 -1.19961,1.079695 -1.34961,1.929687 l -1.125,5.888671 c -0.075,0.424995 -3.9e-4,0.805082 0.22461,1.142579 0.224997,0.337497 0.5375025,0.544141 0.9375,0.619141 l 2.548827,0.412109 c 0.424995,0.075 0.8070345,0.0024 1.1445315,-0.222656 0.337499,-0.224997 0.544142,-0.551566 0.619142,-0.976563 l 1.423827,-7.34961 c 0.075,-0.424995 0.0074,-0.80508 -0.205077,-1.142577 -0.212499,-0.337497 -0.530082,-0.546094 -0.955079,-0.621094 -0.218746,-0.04376 -1.2597675,-0.142965 -1.4707035,-0.14844 z m 15.4941405,1.742187 c -0.04915,0.0025 -0.09808,0.0085 -0.14649,0.01758 -0.609454,0.12081 -1.005577,0.71281 -0.884766,1.322266 l 0.554688,2.802734 c 0.740309,0.253417 1.520996,0.400609 2.378906,0.449218 l -0.726561,-3.689451 c -0.110416,-0.552934 -0.613107,-0.938719 -1.175783,-0.902344 z m 2.875001,9.525391 c 0,0 -0.575853,0.318359 -0.925782,0.318359 -0.433692,0 -0.875876,-0.02336 -1.318359,-0.07227 l 1.957972,9.928023 c 0.118965,0.611043 0.711551,1.009309 1.322267,0.888672 0.610248,-0.119895 1.007442,-0.712181 0.886719,-1.322267 z"
       sodipodi:nodetypes="ssssssssscscccsscccsssssssccccssccccssccccsccccccccccccccccscccccscc"
       inkscape:label="man" /><path
       id="path18"
       style="fill:#4d4d4d;fill-opacity:1;stroke:none"
       inkscape:label="guidepost"
       d="m 42,5 c -0.554,0 -1,0.446 -1,1 v 15 h 2 V 6 C 43,5.446 42.554,5 42,5 Z m 1.5,2.5 v 2 A 0.5,0.5 45 0 0 44,10 l 2.5,0 a 1.5,1.5 161.56505 0 0 0.9,-0.3 l 1.2,-0.9 a 0.375,0.375 90 0 0 0,-0.6 L 47.4,7.3 A 1.5,1.5 18.434949 0 0 46.5,7 H 44 a 0.5,0.5 135 0 0 -0.5,0.5 z m -6.9,2.8 -1.2,0.9 a 0.375,0.375 90 0 0 0,0.6 l 1.2,0.9 a 1.5,1.5 18.434949 0 0 0.9,0.3 l 2.5,0 a 0.5,0.5 135 0 0 0.5,-0.5 v -2 A 0.5,0.5 45 0 0 40,10 l -2.5,0 a 1.5,1.5 161.56505 0 0 -0.9,0.3 z"
       sodipodi:nodetypes="ssccsscccccccccccc" /></g></svg>
