<?xml version="1.0" encoding="UTF-8"?>
<svg width="19" height="19" version="1.1" viewBox="0 0 19 19" xml:space="preserve" xmlns="http://www.w3.org/2000/svg">
 <path d="m8.0937 6.7437v-3.3162c0-0.37416-0.29823-0.67749-0.67017-0.67749h-0.06589c-0.37013 0-0.67017 0.31338-0.67017 0.67749v3.3162h-1.4063v-3.3162c0-0.37416-0.29823-0.67749-0.67017-0.67749h-0.06589c-0.37015 0-0.67019 0.31338-0.67019 0.67749v3.3162c0 1.5503 1.4063 2.7563 2.7422 2.7563l-0.18249 5.8397c-0.0157 0.50277 0.36996 0.91034 0.86376 0.91034h0.18434c0.49275 0 0.87546-0.40203 0.85428-0.91034l-0.24332-5.8397c1.4063 0 3.0938-1.206 2.8125-2.7563v-3.3162c0-0.37416-0.29823-0.67749-0.67017-0.67749h-0.06591c-0.37012 0-0.67017 0.31338-0.67017 0.67749v3.3162h-1.4063zm3.6563 3.6563h1.6875v5.0118c0 0.4629 0.37452 0.83816 0.84375 0.83816 0.46599 0 0.84375-0.37515 0.84375-0.84449v-12.655c-2.3558 0-3.4313 1.638-3.375 2.925v4.725z" fill="#fff"/>
</svg>
